tick,type,time,meta,track,numerator,denominator,clocks_per_click,notated_32nd_notes_per_beat,key,tempo,program,channel,control,value,note,velocity
0,track_name,0,1,0,,,,,,,,,,,,
0,control_change,0,0,2,,,,,,,,1,93,22,,
0,control_change,0,0,2,,,,,,,,1,91,17,,
0,control_change,0,0,2,,,,,,,,1,10,82,,
0,control_change,0,0,2,,,,,,,,1,7,127,,
0,program_change,0,0,2,,,,,,,0,1,,,,
0,track_name,0,1,2,,,,,,,,,,,,
0,control_change,0,0,1,,,,,,,,0,93,19,,
0,control_change,0,0,1,,,,,,,,0,91,23,,
0,control_change,0,0,1,,,,,,,,0,10,44,,
0,control_change,0,0,1,,,,,,,,0,7,127,,
0,end_of_track,0,1,3,,,,,,,,,,,,
0,track_name,0,1,1,,,,,,,,,,,,
0,set_tempo,0,1,0,,,,,,416667,,,,,,
0,key_signature,0,1,0,,,,,Bb,,,,,,,
0,time_signature,0,1,0,6,8,12,8,,,,,,,,
0,text,0,1,0,,,,,,,,,,,,
0,copyright,0,1,0,,,,,,,,,,,,
0,program_change,0,0,1,,,,,,,0,0,,,,
300,note_on,300,0,1,,,,,,,,0,,,65,75
360,note_on,60,0,1,,,,,,,,0,,,65,0
360,note_on,0,0,1,,,,,,,,0,,,65,81
360,note_on,360,0,2,,,,,,,,1,,,46,73
360,note_on,0,0,2,,,,,,,,1,,,58,73
420,note_on,60,0,1,,,,,,,,0,,,65,0
420,note_on,0,0,1,,,,,,,,0,,,62,84
480,note_on,0,0,1,,,,,,,,0,,,70,87
480,note_on,60,0,1,,,,,,,,0,,,62,0
480,note_on,120,0,2,,,,,,,,1,,,58,0
480,note_on,0,0,2,,,,,,,,1,,,46,0
540,note_on,0,0,1,,,,,,,,0,,,70,89
540,note_on,60,0,1,,,,,,,,0,,,70,0
600,note_on,60,0,1,,,,,,,,0,,,70,0
600,note_on,0,0,1,,,,,,,,0,,,65,91
660,note_on,60,0,1,,,,,,,,0,,,65,0
660,note_on,0,0,1,,,,,,,,0,,,74,90
720,note_on,0,0,1,,,,,,,,0,,,74,88
720,note_on,60,0,1,,,,,,,,0,,,74,0
780,note_on,0,0,1,,,,,,,,0,,,70,85
780,note_on,60,0,1,,,,,,,,0,,,74,0
840,note_on,0,0,1,,,,,,,,0,,,77,81
840,note_on,60,0,1,,,,,,,,0,,,70,0
900,note_on,60,0,1,,,,,,,,0,,,77,0
900,note_on,0,0,1,,,,,,,,0,,,77,77
1020,note_on,540,0,2,,,,,,,,1,,,65,71
1020,note_on,0,0,1,,,,,,,,0,,,72,80
1020,note_on,0,0,2,,,,,,,,1,,,57,71
1020,note_on,120,0,1,,,,,,,,0,,,77,0
1020,note_on,0,0,1,,,,,,,,0,,,75,80
1080,note_on,60,0,2,,,,,,,,1,,,57,0
1080,note_on,60,0,1,,,,,,,,0,,,75,0
1080,note_on,0,0,1,,,,,,,,0,,,74,83
1080,note_on,0,0,1,,,,,,,,0,,,70,83
1080,note_on,0,0,1,,,,,,,,0,,,72,0
1080,note_on,0,0,2,,,,,,,,1,,,58,72
1140,note_on,0,0,1,,,,,,,,0,,,72,83
1140,note_on,0,0,1,,,,,,,,0,,,75,83
1140,note_on,0,0,1,,,,,,,,0,,,70,0
1140,note_on,60,0,1,,,,,,,,0,,,74,0
1200,note_on,120,0,2,,,,,,,,1,,,58,0
1200,note_on,0,0,2,,,,,,,,1,,,65,0
1200,note_on,0,0,1,,,,,,,,0,,,77,84
1200,note_on,60,0,1,,,,,,,,0,,,72,0
1200,note_on,0,0,1,,,,,,,,0,,,74,84
1200,note_on,0,0,1,,,,,,,,0,,,75,0
1260,note_on,0,0,1,,,,,,,,0,,,74,0
1260,note_on,0,0,1,,,,,,,,0,,,79,83
1260,note_on,0,0,1,,,,,,,,0,,,75,83
1260,note_on,60,0,2,,,,,,,,1,,,63,77
1260,note_on,60,0,1,,,,,,,,0,,,77,0
1320,note_on,0,0,1,,,,,,,,0,,,75,82
1320,note_on,0,0,1,,,,,,,,0,,,72,82
1320,note_on,0,0,1,,,,,,,,0,,,75,0
1320,note_on,60,0,1,,,,,,,,0,,,79,0
1380,note_on,0,0,2,,,,,,,,1,,,64,80
1380,note_on,120,0,2,,,,,,,,1,,,63,0
1380,note_on,0,0,1,,,,,,,,0,,,74,80
1380,note_on,0,0,1,,,,,,,,0,,,70,80
1380,note_on,60,0,1,,,,,,,,0,,,75,0
1380,note_on,0,0,1,,,,,,,,0,,,72,0
1440,note_on,60,0,2,,,,,,,,1,,,64,0
1440,note_on,0,0,2,,,,,,,,1,,,65,80
1440,note_on,60,0,1,,,,,,,,0,,,74,0
1440,note_on,0,0,1,,,,,,,,0,,,70,0
1440,note_on,0,0,1,,,,,,,,0,,,69,78
1440,note_on,0,0,1,,,,,,,,0,,,72,78
1500,note_on,0,0,1,,,,,,,,0,,,69,0
1500,note_on,0,0,1,,,,,,,,0,,,72,76
1500,note_on,0,0,2,,,,,,,,1,,,65,80
1500,note_on,60,0,2,,,,,,,,1,,,65,0
1500,note_on,0,0,1,,,,,,,,0,,,69,76
1500,note_on,60,0,1,,,,,,,,0,,,72,0
1560,note_on,60,0,1,,,,,,,,0,,,72,0
1560,note_on,0,0,1,,,,,,,,0,,,69,0
1560,note_on,0,0,1,,,,,,,,0,,,72,82
1560,note_on,0,0,1,,,,,,,,0,,,75,82
1560,note_on,60,0,2,,,,,,,,1,,,65,0
1560,note_on,0,0,2,,,,,,,,1,,,64,78
1590,note_on,0,0,1,,,,,,,,0,,,72,0
1590,note_on,0,0,1,,,,,,,,0,,,74,87
1590,note_on,30,0,1,,,,,,,,0,,,75,0
1590,note_on,0,0,1,,,,,,,,0,,,70,87
1620,note_on,60,0,2,,,,,,,,1,,,64,0
1620,note_on,30,0,1,,,,,,,,0,,,74,0
1620,note_on,0,0,1,,,,,,,,0,,,70,0
1620,note_on,0,0,1,,,,,,,,0,,,72,92
1620,note_on,0,0,1,,,,,,,,0,,,69,92
1620,note_on,0,0,2,,,,,,,,1,,,65,80
1740,note_on,120,0,2,,,,,,,,1,,,65,0
1740,note_on,120,0,1,,,,,,,,0,,,69,0
1740,note_on,0,0,1,,,,,,,,0,,,72,0
1740,note_on,0,0,1,,,,,,,,0,,,65,81
1800,note_on,0,0,2,,,,,,,,1,,,58,73
1800,note_on,60,0,2,,,,,,,,1,,,46,73
1800,note_on,0,0,1,,,,,,,,0,,,65,84
1800,note_on,60,0,1,,,,,,,,0,,,65,0
1860,note_on,60,0,1,,,,,,,,0,,,65,0
1860,note_on,0,0,1,,,,,,,,0,,,62,84
1920,note_on,0,0,1,,,,,,,,0,,,70,84
1920,note_on,60,0,1,,,,,,,,0,,,62,0
1920,note_on,0,0,2,,,,,,,,1,,,46,0
1920,note_on,120,0,2,,,,,,,,1,,,58,0
1980,note_on,0,0,1,,,,,,,,0,,,70,83
1980,note_on,60,0,1,,,,,,,,0,,,70,0
2040,note_on,60,0,1,,,,,,,,0,,,70,0
2040,note_on,0,0,1,,,,,,,,0,,,65,81
2100,note_on,60,0,1,,,,,,,,0,,,65,0
2100,note_on,0,0,1,,,,,,,,0,,,74,80
2160,note_on,0,0,1,,,,,,,,0,,,74,78
2160,note_on,60,0,1,,,,,,,,0,,,74,0
2220,note_on,60,0,1,,,,,,,,0,,,74,0
2220,note_on,0,0,1,,,,,,,,0,,,70,77
2280,note_on,60,0,1,,,,,,,,0,,,70,0
2280,note_on,0,0,1,,,,,,,,0,,,77,74
2340,note_on,0,0,1,,,,,,,,0,,,77,75
2340,note_on,60,0,1,,,,,,,,0,,,77,0
2460,note_on,120,0,1,,,,,,,,0,,,77,0
2460,note_on,540,0,2,,,,,,,,1,,,60,76
2460,note_on,0,0,2,,,,,,,,1,,,58,76
2460,note_on,0,0,1,,,,,,,,0,,,79,76
2460,note_on,0,0,1,,,,,,,,0,,,76,76
2520,note_on,0,0,2,,,,,,,,1,,,57,78
2520,note_on,0,0,2,,,,,,,,1,,,60,78
2520,note_on,0,0,2,,,,,,,,1,,,60,0
2520,note_on,0,0,1,,,,,,,,0,,,76,0
2520,note_on,0,0,1,,,,,,,,0,,,77,80
2520,note_on,60,0,2,,,,,,,,1,,,58,0
2520,note_on,0,0,1,,,,,,,,0,,,81,80
2520,note_on,60,0,1,,,,,,,,0,,,79,0
2580,note_on,60,0,1,,,,,,,,0,,,81,0
2580,note_on,0,0,1,,,,,,,,0,,,77,0
2580,note_on,0,0,1,,,,,,,,0,,,82,80
2580,note_on,0,0,1,,,,,,,,0,,,79,80
2580,note_on,60,0,2,,,,,,,,1,,,57,0
2580,note_on,0,0,2,,,,,,,,1,,,60,0
2580,note_on,0,0,2,,,,,,,,1,,,55,79
2640,note_on,0,0,2,,,,,,,,1,,,53,80
2640,note_on,60,0,2,,,,,,,,1,,,55,0
2640,note_on,0,0,1,,,,,,,,0,,,82,0
2640,note_on,60,0,1,,,,,,,,0,,,79,0
2640,note_on,0,0,1,,,,,,,,0,,,81,79
2640,note_on,0,0,1,,,,,,,,0,,,84,79
2700,note_on,0,0,1,,,,,,,,0,,,81,0
2700,note_on,0,0,1,,,,,,,,0,,,79,79
2700,note_on,60,0,1,,,,,,,,0,,,84,0
2700,note_on,0,0,1,,,,,,,,0,,,82,79
2700,note_on,60,0,2,,,,,,,,1,,,53,0
2700,note_on,0,0,2,,,,,,,,1,,,58,80
2760,note_on,0,0,1,,,,,,,,0,,,81,79
2760,note_on,0,0,1,,,,,,,,0,,,82,0
2760,note_on,60,0,1,,,,,,,,0,,,79,0
2760,note_on,0,0,1,,,,,,,,0,,,77,79
2820,note_on,0,0,1,,,,,,,,0,,,79,79
2820,note_on,0,0,2,,,,,,,,1,,,60,80
2820,note_on,120,0,2,,,,,,,,1,,,58,0
2820,note_on,0,0,1,,,,,,,,0,,,76,79
2820,note_on,60,0,1,,,,,,,,0,,,81,0
2820,note_on,0,0,1,,,,,,,,0,,,77,0
2880,note_on,0,0,1,,,,,,,,0,,,76,0
2880,note_on,0,0,1,,,,,,,,0,,,77,78
2880,note_on,60,0,1,,,,,,,,0,,,79,0
2880,note_on,60,0,2,,,,,,,,1,,,60,0
2880,note_on,0,0,2,,,,,,,,1,,,53,79
2880,note_on,0,0,1,,,,,,,,0,,,69,78
2940,note_on,0,0,1,,,,,,,,0,,,77,77
2940,note_on,60,0,1,,,,,,,,0,,,77,0
2940,note_on,0,0,2,,,,,,,,1,,,48,79
2940,note_on,0,0,1,,,,,,,,0,,,69,77
2940,note_on,60,0,2,,,,,,,,1,,,53,0
2940,note_on,0,0,1,,,,,,,,0,,,69,0
3000,note_on,0,0,2,,,,,,,,1,,,45,77
3000,note_on,0,0,1,,,,,,,,0,,,77,75
3000,note_on,0,0,1,,,,,,,,0,,,69,75
3000,note_on,0,0,1,,,,,,,,0,,,69,0
3000,note_on,60,0,1,,,,,,,,0,,,77,0
3000,note_on,60,0,2,,,,,,,,1,,,48,0
3060,note_on,60,0,1,,,,,,,,0,,,77,0
3060,note_on,0,0,1,,,,,,,,0,,,77,74
3060,note_on,60,0,2,,,,,,,,1,,,45,0
3060,note_on,0,0,2,,,,,,,,1,,,41,76
3060,note_on,0,0,1,,,,,,,,0,,,69,0
3060,note_on,0,0,1,,,,,,,,0,,,69,74
3120,note_on,60,0,1,,,,,,,,0,,,69,0
3120,note_on,0,0,1,,,,,,,,0,,,77,0
3135,note_on,15,0,1,,,,,,,,0,,,72,79
3150,note_on,15,0,1,,,,,,,,0,,,72,0
3150,note_on,0,0,1,,,,,,,,0,,,74,81
3165,note_on,15,0,1,,,,,,,,0,,,74,0
3165,note_on,0,0,1,,,,,,,,0,,,75,82
3180,note_on,15,0,1,,,,,,,,0,,,75,0
3180,note_on,120,0,2,,,,,,,,1,,,41,0
3180,note_on,0,0,1,,,,,,,,0,,,77,85
3195,note_on,0,0,1,,,,,,,,0,,,79,86
3195,note_on,15,0,1,,,,,,,,0,,,77,0
3210,note_on,0,0,1,,,,,,,,0,,,81,88
3210,note_on,15,0,1,,,,,,,,0,,,79,0
3225,note_on,15,0,1,,,,,,,,0,,,81,0
3225,note_on,0,0,1,,,,,,,,0,,,82,90
3240,note_on,60,0,2,,,,,,,,1,,,63,66
3240,note_on,0,0,2,,,,,,,,1,,,53,66
3240,note_on,15,0,1,,,,,,,,0,,,82,0
3240,note_on,0,0,1,,,,,,,,0,,,84,90
3270,note_on,30,0,2,,,,,,,,1,,,63,0
3270,note_on,0,0,2,,,,,,,,1,,,65,69
3300,note_on,30,0,2,,,,,,,,1,,,65,0
3300,note_on,0,0,2,,,,,,,,1,,,63,72
3330,note_on,30,0,2,,,,,,,,1,,,63,0
3330,note_on,0,0,2,,,,,,,,1,,,65,73
3360,note_on,120,0,1,,,,,,,,0,,,84,0
3360,note_on,30,0,2,,,,,,,,1,,,65,0
3360,note_on,0,0,2,,,,,,,,1,,,63,73
3360,note_on,0,0,1,,,,,,,,0,,,82,90
3390,note_on,30,0,1,,,,,,,,0,,,82,0
3390,note_on,0,0,2,,,,,,,,1,,,65,73
3390,note_on,30,0,2,,,,,,,,1,,,63,0
3405,note_on,15,0,1,,,,,,,,0,,,82,90
3420,note_on,0,0,2,,,,,,,,1,,,53,0
3420,note_on,30,0,2,,,,,,,,1,,,65,0
3420,note_on,0,0,2,,,,,,,,1,,,53,73
3420,note_on,0,0,2,,,,,,,,1,,,63,73
3420,note_on,0,0,1,,,,,,,,0,,,81,90
3420,note_on,15,0,1,,,,,,,,0,,,82,0
3450,note_on,30,0,2,,,,,,,,1,,,63,0
3450,note_on,0,0,2,,,,,,,,1,,,65,72
3480,note_on,60,0,1,,,,,,,,0,,,81,0
3480,note_on,0,0,1,,,,,,,,0,,,79,90
3480,note_on,0,0,2,,,,,,,,1,,,63,71
3480,note_on,30,0,2,,,,,,,,1,,,65,0
3510,note_on,0,0,2,,,,,,,,1,,,65,71
3510,note_on,30,0,2,,,,,,,,1,,,63,0
3540,note_on,60,0,1,,,,,,,,0,,,79,0
3540,note_on,0,0,1,,,,,,,,0,,,81,90
3540,note_on,0,0,2,,,,,,,,1,,,63,70
3540,note_on,30,0,2,,,,,,,,1,,,65,0
3570,note_on,0,0,2,,,,,,,,1,,,65,69
3570,note_on,30,0,2,,,,,,,,1,,,63,0
3600,note_on,0,0,2,,,,,,,,1,,,53,69
3600,note_on,0,0,1,,,,,,,,0,,,82,90
3600,note_on,60,0,1,,,,,,,,0,,,81,0
3600,note_on,30,0,2,,,,,,,,1,,,65,0
3600,note_on,0,0,2,,,,,,,,1,,,53,0
3600,note_on,0,0,2,,,,,,,,1,,,62,69
3630,note_on,0,0,2,,,,,,,,1,,,65,69
3630,note_on,30,0,2,,,,,,,,1,,,62,0
3660,note_on,0,0,2,,,,,,,,1,,,62,70
3660,note_on,30,0,2,,,,,,,,1,,,65,0
3690,note_on,0,0,2,,,,,,,,1,,,65,71
3690,note_on,30,0,2,,,,,,,,1,,,62,0
3720,note_on,0,0,1,,,,,,,,0,,,77,90
3720,note_on,0,0,2,,,,,,,,1,,,62,72
3720,note_on,30,0,2,,,,,,,,1,,,65,0
3720,note_on,120,0,1,,,,,,,,0,,,82,0
3750,note_on,0,0,2,,,,,,,,1,,,65,72
3750,note_on,30,0,2,,,,,,,,1,,,62,0
3780,note_on,60,0,1,,,,,,,,0,,,77,0
3780,note_on,0,0,1,,,,,,,,0,,,74,90
3780,note_on,0,0,2,,,,,,,,1,,,53,72
3780,note_on,0,0,2,,,,,,,,1,,,62,72
3780,note_on,0,0,2,,,,,,,,1,,,53,0
3780,note_on,30,0,2,,,,,,,,1,,,65,0
3810,note_on,30,0,2,,,,,,,,1,,,62,0
3810,note_on,0,0,2,,,,,,,,1,,,65,72
3840,note_on,0,0,2,,,,,,,,1,,,62,73
3840,note_on,30,0,2,,,,,,,,1,,,65,0
3870,note_on,30,0,2,,,,,,,,1,,,62,0
3870,note_on,0,0,2,,,,,,,,1,,,65,73
3900,note_on,120,0,1,,,,,,,,0,,,74,0
3900,note_on,30,0,2,,,,,,,,1,,,65,0
3900,note_on,0,0,2,,,,,,,,1,,,62,73
3900,note_on,0,0,1,,,,,,,,0,,,82,90
3930,note_on,30,0,2,,,,,,,,1,,,62,0
3930,note_on,0,0,2,,,,,,,,1,,,65,72
3930,note_on,30,0,1,,,,,,,,0,,,82,0
3945,note_on,15,0,1,,,,,,,,0,,,86,80
3960,note_on,15,0,1,,,,,,,,0,,,86,0
3960,note_on,0,0,1,,,,,,,,0,,,84,90
3960,note_on,0,0,2,,,,,,,,1,,,63,72
3960,note_on,0,0,2,,,,,,,,1,,,53,0
3960,note_on,30,0,2,,,,,,,,1,,,65,0
3960,note_on,0,0,2,,,,,,,,1,,,53,72
3990,note_on,30,0,2,,,,,,,,1,,,63,0
3990,note_on,0,0,2,,,,,,,,1,,,65,72
4020,note_on,30,0,2,,,,,,,,1,,,65,0
4020,note_on,0,0,2,,,,,,,,1,,,63,73
4050,note_on,0,0,2,,,,,,,,1,,,65,74
4050,note_on,30,0,2,,,,,,,,1,,,63,0
4080,note_on,120,0,1,,,,,,,,0,,,84,0
4080,note_on,0,0,2,,,,,,,,1,,,63,75
4080,note_on,30,0,2,,,,,,,,1,,,65,0
4080,note_on,0,0,1,,,,,,,,0,,,82,90
4110,note_on,30,0,1,,,,,,,,0,,,82,0
4110,note_on,30,0,2,,,,,,,,1,,,63,0
4110,note_on,0,0,2,,,,,,,,1,,,65,75
4125,note_on,15,0,1,,,,,,,,0,,,82,80
4140,note_on,0,0,1,,,,,,,,0,,,81,90
4140,note_on,0,0,2,,,,,,,,1,,,53,0
4140,note_on,30,0,2,,,,,,,,1,,,65,0
4140,note_on,15,0,1,,,,,,,,0,,,82,0
4140,note_on,0,0,2,,,,,,,,1,,,53,75
4140,note_on,0,0,2,,,,,,,,1,,,63,75
4170,note_on,30,0,2,,,,,,,,1,,,63,0
4170,note_on,0,0,2,,,,,,,,1,,,65,74
4200,note_on,30,0,2,,,,,,,,1,,,65,0
4200,note_on,0,0,2,,,,,,,,1,,,63,73
4200,note_on,60,0,1,,,,,,,,0,,,81,0
4200,note_on,0,0,1,,,,,,,,0,,,79,90
4230,note_on,30,0,2,,,,,,,,1,,,63,0
4230,note_on,0,0,2,,,,,,,,1,,,65,75
4260,note_on,30,0,2,,,,,,,,1,,,65,0
4260,note_on,0,0,2,,,,,,,,1,,,63,76
4260,note_on,60,0,1,,,,,,,,0,,,79,0
4260,note_on,0,0,1,,,,,,,,0,,,81,90
4290,note_on,0,0,2,,,,,,,,1,,,65,76
4290,note_on,30,0,2,,,,,,,,1,,,63,0
4320,note_on,60,0,1,,,,,,,,0,,,81,0
4320,note_on,0,0,2,,,,,,,,1,,,62,77
4320,note_on,0,0,2,,,,,,,,1,,,53,77
4320,note_on,0,0,2,,,,,,,,1,,,53,0
4320,note_on,0,0,1,,,,,,,,0,,,82,90
4320,note_on,30,0,2,,,,,,,,1,,,65,0
4350,note_on,30,0,2,,,,,,,,1,,,62,0
4350,note_on,0,0,2,,,,,,,,1,,,65,77
4380,note_on,0,0,2,,,,,,,,1,,,62,77
4380,note_on,30,0,2,,,,,,,,1,,,65,0
4410,note_on,0,0,2,,,,,,,,1,,,65,78
4410,note_on,30,0,2,,,,,,,,1,,,62,0
4440,note_on,30,0,2,,,,,,,,1,,,65,0
4440,note_on,120,0,1,,,,,,,,0,,,82,0
4440,note_on,0,0,2,,,,,,,,1,,,62,78
4440,note_on,0,0,1,,,,,,,,0,,,77,90
4470,note_on,0,0,2,,,,,,,,1,,,65,78
4470,note_on,30,0,2,,,,,,,,1,,,62,0
4500,note_on,30,0,2,,,,,,,,1,,,65,0
4500,note_on,0,0,2,,,,,,,,1,,,53,0
4500,note_on,0,0,2,,,,,,,,1,,,53,78
4500,note_on,0,0,1,,,,,,,,0,,,82,90
4500,note_on,60,0,1,,,,,,,,0,,,77,0
4500,note_on,0,0,2,,,,,,,,1,,,62,78
4530,note_on,0,0,2,,,,,,,,1,,,65,77
4530,note_on,30,0,2,,,,,,,,1,,,62,0
4560,note_on,30,0,2,,,,,,,,1,,,65,0
4560,note_on,0,0,2,,,,,,,,1,,,62,75
4590,note_on,0,0,2,,,,,,,,1,,,65,74
4590,note_on,30,0,2,,,,,,,,1,,,62,0
4620,note_on,120,0,1,,,,,,,,0,,,82,0
4620,note_on,0,0,1,,,,,,,,0,,,86,90
4620,note_on,0,0,2,,,,,,,,1,,,62,72
4620,note_on,30,0,2,,,,,,,,1,,,65,0
4650,note_on,0,0,2,,,,,,,,1,,,65,69
4650,note_on,30,0,2,,,,,,,,1,,,62,0
4650,note_on,30,0,1,,,,,,,,0,,,86,0
4665,note_on,15,0,1,,,,,,,,0,,,86,80
4680,note_on,30,0,2,,,,,,,,1,,,65,0
4680,note_on,0,0,2,,,,,,,,1,,,53,0
4680,note_on,0,0,2,,,,,,,,1,,,62,67
4680,note_on,0,0,1,,,,,,,,0,,,84,90
4680,note_on,15,0,1,,,,,,,,0,,,86,0
4710,note_on,30,0,2,,,,,,,,1,,,62,0
4710,note_on,0,0,2,,,,,,,,1,,,65,67
4740,note_on,30,0,2,,,,,,,,1,,,65,0
4740,note_on,0,0,2,,,,,,,,1,,,62,67
4770,note_on,0,0,2,,,,,,,,1,,,65,68
4770,note_on,30,0,2,,,,,,,,1,,,62,0
4800,note_on,0,0,1,,,,,,,,0,,,82,90
4800,note_on,120,0,1,,,,,,,,0,,,84,0
4800,note_on,0,0,2,,,,,,,,1,,,62,70
4800,note_on,30,0,2,,,,,,,,1,,,65,0
4830,note_on,30,0,2,,,,,,,,1,,,62,0
4830,note_on,0,0,2,,,,,,,,1,,,65,71
4830,note_on,30,0,1,,,,,,,,0,,,82,0
4845,note_on,15,0,1,,,,,,,,0,,,82,80
4860,note_on,0,0,1,,,,,,,,0,,,81,90
4860,note_on,15,0,1,,,,,,,,0,,,82,0
4860,note_on,0,0,2,,,,,,,,1,,,60,73
4860,note_on,30,0,2,,,,,,,,1,,,65,0
4890,note_on,0,0,2,,,,,,,,1,,,63,74
4890,note_on,30,0,2,,,,,,,,1,,,60,0
4920,note_on,30,0,2,,,,,,,,1,,,63,0
4920,note_on,60,0,1,,,,,,,,0,,,81,0
4920,note_on,0,0,1,,,,,,,,0,,,79,90
4920,note_on,0,0,2,,,,,,,,1,,,60,75
4950,note_on,30,0,2,,,,,,,,1,,,60,0
4950,note_on,0,0,2,,,,,,,,1,,,63,75
4980,note_on,60,0,1,,,,,,,,0,,,79,0
4980,note_on,0,0,1,,,,,,,,0,,,81,90
4980,note_on,30,0,2,,,,,,,,1,,,63,0
4980,note_on,0,0,2,,,,,,,,1,,,60,75
5010,note_on,30,0,2,,,,,,,,1,,,60,0
5010,note_on,0,0,2,,,,,,,,1,,,63,76
5040,note_on,30,0,2,,,,,,,,1,,,63,0
5040,note_on,0,0,2,,,,,,,,1,,,58,77
5040,note_on,0,0,1,,,,,,,,0,,,82,90
5040,note_on,60,0,1,,,,,,,,0,,,81,0
5070,note_on,30,0,2,,,,,,,,1,,,58,0
5070,note_on,0,0,2,,,,,,,,1,,,62,77
5100,note_on,30,0,2,,,,,,,,1,,,62,0
5100,note_on,0,0,2,,,,,,,,1,,,58,77
5130,note_on,30,0,2,,,,,,,,1,,,58,0
5130,note_on,0,0,2,,,,,,,,1,,,62,75
5160,note_on,30,0,2,,,,,,,,1,,,62,0
5160,note_on,0,0,2,,,,,,,,1,,,58,72
5190,note_on,0,0,2,,,,,,,,1,,,62,71
5190,note_on,30,0,2,,,,,,,,1,,,58,0
5220,note_on,180,0,1,,,,,,,,0,,,82,0
5220,note_on,0,0,1,,,,,,,,0,,,77,90
5220,note_on,0,0,2,,,,,,,,1,,,57,70
5220,note_on,0,0,2,,,,,,,,1,,,53,70
5220,note_on,30,0,2,,,,,,,,1,,,62,0
5250,note_on,0,0,2,,,,,,,,1,,,53,0
5250,note_on,30,0,2,,,,,,,,1,,,57,0
5250,note_on,0,0,2,,,,,,,,1,,,62,69
5280,note_on,0,0,2,,,,,,,,1,,,57,69
5280,note_on,0,0,2,,,,,,,,1,,,53,69
5280,note_on,30,0,2,,,,,,,,1,,,62,0
5310,note_on,0,0,2,,,,,,,,1,,,62,69
5310,note_on,0,0,2,,,,,,,,1,,,53,0
5310,note_on,30,0,2,,,,,,,,1,,,57,0
5340,note_on,0,0,2,,,,,,,,1,,,57,71
5340,note_on,0,0,2,,,,,,,,1,,,53,71
5340,note_on,30,0,2,,,,,,,,1,,,62,0
5340,note_on,120,0,1,,,,,,,,0,,,77,0
5340,note_on,0,0,1,,,,,,,,0,,,78,90
5370,note_on,0,0,2,,,,,,,,1,,,53,0
5370,note_on,30,0,2,,,,,,,,1,,,57,0
5370,note_on,0,0,2,,,,,,,,1,,,63,72
5400,note_on,60,0,1,,,,,,,,0,,,78,0
5400,note_on,0,0,1,,,,,,,,0,,,79,90
5400,note_on,0,0,2,,,,,,,,1,,,55,74
5400,note_on,30,0,2,,,,,,,,1,,,63,0
5400,note_on,0,0,2,,,,,,,,1,,,58,74
5430,note_on,30,0,2,,,,,,,,1,,,58,0
5430,note_on,0,0,2,,,,,,,,1,,,62,74
5460,note_on,30,0,2,,,,,,,,1,,,62,0
5460,note_on,0,0,2,,,,,,,,1,,,58,74
5490,note_on,0,0,2,,,,,,,,1,,,62,74
5490,note_on,30,0,2,,,,,,,,1,,,58,0
5520,note_on,120,0,1,,,,,,,,0,,,79,0
5520,note_on,30,0,2,,,,,,,,1,,,62,0
5520,note_on,0,0,2,,,,,,,,1,,,58,74
5520,note_on,0,0,1,,,,,,,,0,,,79,90
5550,note_on,30,0,1,,,,,,,,0,,,79,0
5550,note_on,30,0,2,,,,,,,,1,,,58,0
5550,note_on,0,0,2,,,,,,,,1,,,62,74
5565,note_on,15,0,1,,,,,,,,0,,,81,90
5580,note_on,0,0,2,,,,,,,,1,,,58,73
5580,note_on,30,0,2,,,,,,,,1,,,62,0
5580,note_on,0,0,1,,,,,,,,0,,,79,90
5580,note_on,0,0,2,,,,,,,,1,,,55,73
5580,note_on,15,0,1,,,,,,,,0,,,81,0
5580,note_on,0,0,2,,,,,,,,1,,,55,0
5610,note_on,0,0,2,,,,,,,,1,,,62,71
5610,note_on,30,0,2,,,,,,,,1,,,58,0
5640,note_on,30,0,2,,,,,,,,1,,,62,0
5640,note_on,0,0,2,,,,,,,,1,,,58,69
5640,note_on,60,0,1,,,,,,,,0,,,79,0
5640,note_on,0,0,1,,,,,,,,0,,,78,90
5670,note_on,30,0,2,,,,,,,,1,,,58,0
5670,note_on,0,0,2,,,,,,,,1,,,62,68
5700,note_on,60,0,1,,,,,,,,0,,,78,0
5700,note_on,0,0,1,,,,,,,,0,,,79,90
5700,note_on,0,0,2,,,,,,,,1,,,58,69
5700,note_on,30,0,2,,,,,,,,1,,,62,0
5730,note_on,0,0,2,,,,,,,,1,,,62,71
5730,note_on,30,0,2,,,,,,,,1,,,58,0
5760,note_on,60,0,1,,,,,,,,0,,,79,0
5760,note_on,0,0,1,,,,,,,,0,,,81,90
5760,note_on,0,0,2,,,,,,,,1,,,50,73
5760,note_on,30,0,2,,,,,,,,1,,,62,0
5760,note_on,0,0,2,,,,,,,,1,,,55,0
5760,note_on,0,0,2,,,,,,,,1,,,60,73
5790,note_on,30,0,2,,,,,,,,1,,,60,0
5790,note_on,0,0,2,,,,,,,,1,,,62,75
5820,note_on,0,0,2,,,,,,,,1,,,60,76
5820,note_on,30,0,2,,,,,,,,1,,,62,0
5850,note_on,30,0,2,,,,,,,,1,,,60,0
5850,note_on,0,0,2,,,,,,,,1,,,62,76
5880,note_on,0,0,1,,,,,,,,0,,,78,90
5880,note_on,120,0,1,,,,,,,,0,,,81,0
5880,note_on,0,0,2,,,,,,,,1,,,60,76
5880,note_on,30,0,2,,,,,,,,1,,,62,0
5910,note_on,0,0,2,,,,,,,,1,,,62,75
5910,note_on,30,0,2,,,,,,,,1,,,60,0
5940,note_on,60,0,1,,,,,,,,0,,,78,0
5940,note_on,0,0,1,,,,,,,,0,,,74,90
5940,note_on,0,0,2,,,,,,,,1,,,60,75
5940,note_on,0,0,2,,,,,,,,1,,,50,75
5940,note_on,0,0,2,,,,,,,,1,,,50,0
5940,note_on,30,0,2,,,,,,,,1,,,62,0
5970,note_on,0,0,2,,,,,,,,1,,,62,76
5970,note_on,30,0,2,,,,,,,,1,,,60,0
6000,note_on,0,0,2,,,,,,,,1,,,60,76
6000,note_on,30,0,2,,,,,,,,1,,,62,0
6030,note_on,30,0,2,,,,,,,,1,,,60,0
6030,note_on,0,0,2,,,,,,,,1,,,62,76
6060,note_on,30,0,2,,,,,,,,1,,,62,0
6060,note_on,0,0,2,,,,,,,,1,,,60,74
6060,note_on,0,0,1,,,,,,,,0,,,78,90
6060,note_on,120,0,1,,,,,,,,0,,,74,0
6090,note_on,30,0,2,,,,,,,,1,,,60,0
6090,note_on,0,0,2,,,,,,,,1,,,62,73
6120,note_on,0,0,1,,,,,,,,0,,,79,87
6120,note_on,60,0,1,,,,,,,,0,,,78,0
6120,note_on,30,0,2,,,,,,,,1,,,62,0
6120,note_on,0,0,2,,,,,,,,1,,,58,73
6120,note_on,0,0,2,,,,,,,,1,,,55,73
6120,note_on,0,0,2,,,,,,,,1,,,50,0
6135,note_on,15,0,1,,,,,,,,0,,,79,0
6135,note_on,0,0,1,,,,,,,,0,,,81,88
6150,note_on,0,0,2,,,,,,,,1,,,62,73
6150,note_on,15,0,1,,,,,,,,0,,,81,0
6150,note_on,0,0,1,,,,,,,,0,,,79,88
6150,note_on,30,0,2,,,,,,,,1,,,58,0
6165,note_on,15,0,1,,,,,,,,0,,,79,0
6165,note_on,0,0,1,,,,,,,,0,,,81,88
6180,note_on,0,0,1,,,,,,,,0,,,79,89
6180,note_on,15,0,1,,,,,,,,0,,,81,0
6180,note_on,30,0,2,,,,,,,,1,,,62,0
6180,note_on,0,0,2,,,,,,,,1,,,58,73
6195,note_on,15,0,1,,,,,,,,0,,,79,0
6195,note_on,0,0,1,,,,,,,,0,,,81,89
6210,note_on,15,0,1,,,,,,,,0,,,81,0
6210,note_on,0,0,1,,,,,,,,0,,,79,89
6210,note_on,30,0,2,,,,,,,,1,,,58,0
6210,note_on,0,0,2,,,,,,,,1,,,62,74
6225,note_on,0,0,1,,,,,,,,0,,,81,89
6225,note_on,15,0,1,,,,,,,,0,,,79,0
6240,note_on,0,0,2,,,,,,,,1,,,58,77
6240,note_on,30,0,2,,,,,,,,1,,,62,0
6240,note_on,15,0,1,,,,,,,,0,,,81,0
6240,note_on,0,0,1,,,,,,,,0,,,82,88
6270,note_on,0,0,2,,,,,,,,1,,,62,78
6270,note_on,30,0,2,,,,,,,,1,,,58,0
6300,note_on,60,0,1,,,,,,,,0,,,82,0
6300,note_on,0,0,2,,,,,,,,1,,,55,0
6300,note_on,0,0,2,,,,,,,,1,,,55,79
6300,note_on,0,0,2,,,,,,,,1,,,58,79
6300,note_on,0,0,1,,,,,,,,0,,,79,88
6300,note_on,30,0,2,,,,,,,,1,,,62,0
6315,note_on,15,0,1,,,,,,,,0,,,79,0
6315,note_on,0,0,1,,,,,,,,0,,,81,89
6330,note_on,0,0,2,,,,,,,,1,,,62,80
6330,note_on,15,0,1,,,,,,,,0,,,81,0
6330,note_on,0,0,1,,,,,,,,0,,,79,90
6330,note_on,30,0,2,,,,,,,,1,,,58,0
6345,note_on,0,0,1,,,,,,,,0,,,81,90
6345,note_on,15,0,1,,,,,,,,0,,,79,0
6360,note_on,15,0,1,,,,,,,,0,,,81,0
6360,note_on,0,0,1,,,,,,,,0,,,79,90
6360,note_on,30,0,2,,,,,,,,1,,,62,0
6360,note_on,0,0,2,,,,,,,,1,,,58,81
6375,note_on,15,0,1,,,,,,,,0,,,79,0
6375,note_on,0,0,1,,,,,,,,0,,,81,90
6390,note_on,15,0,1,,,,,,,,0,,,81,0
6390,note_on,0,0,1,,,,,,,,0,,,79,90
6390,note_on,30,0,2,,,,,,,,1,,,58,0
6390,note_on,0,0,2,,,,,,,,1,,,62,81
6405,note_on,15,0,1,,,,,,,,0,,,79,0
6405,note_on,0,0,1,,,,,,,,0,,,81,90
6420,note_on,15,0,1,,,,,,,,0,,,81,0
6420,note_on,0,0,2,,,,,,,,1,,,58,80
6420,note_on,0,0,1,,,,,,,,0,,,82,89
6420,note_on,30,0,2,,,,,,,,1,,,62,0
6450,note_on,30,0,2,,,,,,,,1,,,58,0
6450,note_on,0,0,2,,,,,,,,1,,,62,79
6480,note_on,0,0,1,,,,,,,,0,,,79,89
6480,note_on,0,0,2,,,,,,,,1,,,55,0
6480,note_on,30,0,2,,,,,,,,1,,,62,0
6480,note_on,0,0,2,,,,,,,,1,,,58,77
6480,note_on,0,0,2,,,,,,,,1,,,55,77
6480,note_on,60,0,1,,,,,,,,0,,,82,0
6495,note_on,15,0,1,,,,,,,,0,,,79,0
6495,note_on,0,0,1,,,,,,,,0,,,81,90
6510,note_on,0,0,2,,,,,,,,1,,,60,77
6510,note_on,15,0,1,,,,,,,,0,,,81,0
6510,note_on,0,0,1,,,,,,,,0,,,79,91
6510,note_on,30,0,2,,,,,,,,1,,,58,0
6525,note_on,15,0,1,,,,,,,,0,,,79,0
6525,note_on,0,0,1,,,,,,,,0,,,81,91
6540,note_on,15,0,1,,,,,,,,0,,,81,0
6540,note_on,0,0,2,,,,,,,,1,,,58,75
6540,note_on,30,0,2,,,,,,,,1,,,60,0
6540,note_on,0,0,1,,,,,,,,0,,,79,92
6555,note_on,0,0,1,,,,,,,,0,,,81,92
6555,note_on,15,0,1,,,,,,,,0,,,79,0
6570,note_on,15,0,1,,,,,,,,0,,,81,0
6570,note_on,0,0,2,,,,,,,,1,,,60,75
6570,note_on,30,0,2,,,,,,,,1,,,58,0
6570,note_on,0,0,1,,,,,,,,0,,,79,92
6585,note_on,0,0,1,,,,,,,,0,,,81,92
6585,note_on,15,0,1,,,,,,,,0,,,79,0
6600,note_on,0,0,1,,,,,,,,0,,,82,92
6600,note_on,30,0,2,,,,,,,,1,,,60,0
6600,note_on,0,0,2,,,,,,,,1,,,58,75
6600,note_on,15,0,1,,,,,,,,0,,,81,0
6630,note_on,30,0,2,,,,,,,,1,,,58,0
6630,note_on,0,0,2,,,,,,,,1,,,60,74
6660,note_on,60,0,1,,,,,,,,0,,,82,0
6660,note_on,0,0,1,,,,,,,,0,,,72,89
6660,note_on,30,0,2,,,,,,,,1,,,60,0
6660,note_on,0,0,2,,,,,,,,1,,,55,0
6660,note_on,0,0,2,,,,,,,,1,,,55,73
6660,note_on,0,0,2,,,,,,,,1,,,58,73
6690,note_on,30,0,2,,,,,,,,1,,,58,0
6690,note_on,0,0,2,,,,,,,,1,,,60,73
6720,note_on,0,0,2,,,,,,,,1,,,58,73
6720,note_on,30,0,2,,,,,,,,1,,,60,0
6720,note_on,0,0,1,,,,,,,,0,,,74,90
6720,note_on,60,0,1,,,,,,,,0,,,72,0
6750,note_on,30,0,2,,,,,,,,1,,,58,0
6750,note_on,0,0,2,,,,,,,,1,,,60,72
6780,note_on,60,0,1,,,,,,,,0,,,74,0
6780,note_on,0,0,1,,,,,,,,0,,,76,90
6780,note_on,0,0,2,,,,,,,,1,,,58,72
6780,note_on,30,0,2,,,,,,,,1,,,60,0
6810,note_on,0,0,2,,,,,,,,1,,,60,73
6810,note_on,30,0,2,,,,,,,,1,,,58,0
6840,note_on,30,0,2,,,,,,,,1,,,60,0
6840,note_on,0,0,2,,,,,,,,1,,,55,0
6840,note_on,0,0,2,,,,,,,,1,,,53,73
6840,note_on,0,0,2,,,,,,,,1,,,57,73
6840,note_on,60,0,1,,,,,,,,0,,,76,0
6840,note_on,0,0,1,,,,,,,,0,,,79,85
6855,note_on,15,0,1,,,,,,,,0,,,79,0
6855,note_on,0,0,1,,,,,,,,0,,,81,86
6870,note_on,15,0,1,,,,,,,,0,,,81,0
6870,note_on,0,0,1,,,,,,,,0,,,79,88
6870,note_on,30,0,2,,,,,,,,1,,,57,0
6870,note_on,0,0,2,,,,,,,,1,,,60,74
6885,note_on,0,0,1,,,,,,,,0,,,81,89
6885,note_on,15,0,1,,,,,,,,0,,,79,0
6900,note_on,15,0,1,,,,,,,,0,,,81,0
6900,note_on,0,0,2,,,,,,,,1,,,57,76
6900,note_on,30,0,2,,,,,,,,1,,,60,0
6900,note_on,0,0,1,,,,,,,,0,,,79,89
6915,note_on,0,0,1,,,,,,,,0,,,81,89
6915,note_on,15,0,1,,,,,,,,0,,,79,0
6930,note_on,0,0,1,,,,,,,,0,,,79,89
6930,note_on,15,0,1,,,,,,,,0,,,81,0
6930,note_on,0,0,2,,,,,,,,1,,,60,78
6930,note_on,30,0,2,,,,,,,,1,,,57,0
6945,note_on,0,0,1,,,,,,,,0,,,81,89
6945,note_on,15,0,1,,,,,,,,0,,,79,0
6960,note_on,0,0,1,,,,,,,,0,,,81,89
6960,note_on,15,0,1,,,,,,,,0,,,81,0
6960,note_on,0,0,2,,,,,,,,1,,,57,79
6960,note_on,30,0,2,,,,,,,,1,,,60,0
6990,note_on,0,0,2,,,,,,,,1,,,60,80
6990,note_on,30,0,2,,,,,,,,1,,,57,0
7020,note_on,30,0,2,,,,,,,,1,,,60,0
7020,note_on,0,0,2,,,,,,,,1,,,53,0
7020,note_on,0,0,2,,,,,,,,1,,,48,81
7020,note_on,0,0,2,,,,,,,,1,,,58,81
7020,note_on,60,0,1,,,,,,,,0,,,81,0
7020,note_on,0,0,1,,,,,,,,0,,,72,87
7050,note_on,30,0,2,,,,,,,,1,,,58,0
7050,note_on,0,0,2,,,,,,,,1,,,60,81
7080,note_on,60,0,1,,,,,,,,0,,,72,0
7080,note_on,0,0,1,,,,,,,,0,,,74,94
7080,note_on,0,0,2,,,,,,,,1,,,58,80
7080,note_on,30,0,2,,,,,,,,1,,,60,0
7110,note_on,0,0,2,,,,,,,,1,,,60,80
7110,note_on,30,0,2,,,,,,,,1,,,58,0
7140,note_on,0,0,1,,,,,,,,0,,,76,100
7140,note_on,60,0,1,,,,,,,,0,,,74,0
7140,note_on,30,0,2,,,,,,,,1,,,60,0
7140,note_on,0,0,2,,,,,,,,1,,,58,79
7170,note_on,0,0,2,,,,,,,,1,,,60,78
7170,note_on,30,0,2,,,,,,,,1,,,58,0
7200,note_on,0,0,1,,,,,,,,0,,,79,90
7200,note_on,60,0,1,,,,,,,,0,,,76,0
7200,note_on,30,0,2,,,,,,,,1,,,60,0
7200,note_on,0,0,2,,,,,,,,1,,,53,78
7200,note_on,0,0,2,,,,,,,,1,,,48,0
7200,note_on,0,0,2,,,,,,,,1,,,57,78
7215,note_on,15,0,1,,,,,,,,0,,,79,0
7215,note_on,0,0,1,,,,,,,,0,,,77,87
7230,note_on,30,0,2,,,,,,,,1,,,57,0
7230,note_on,0,0,1,,,,,,,,0,,,79,89
7230,note_on,15,0,1,,,,,,,,0,,,77,0
7230,note_on,0,0,2,,,,,,,,1,,,60,78
7245,note_on,0,0,1,,,,,,,,0,,,77,90
7245,note_on,15,0,1,,,,,,,,0,,,79,0
7260,note_on,15,0,1,,,,,,,,0,,,77,0
7260,note_on,30,0,2,,,,,,,,1,,,60,0
7260,note_on,0,0,2,,,,,,,,1,,,57,78
7260,note_on,0,0,1,,,,,,,,0,,,79,91
7275,note_on,0,0,1,,,,,,,,0,,,77,91
7275,note_on,15,0,1,,,,,,,,0,,,79,0
7290,note_on,0,0,2,,,,,,,,1,,,60,78
7290,note_on,30,0,2,,,,,,,,1,,,57,0
7290,note_on,15,0,1,,,,,,,,0,,,77,0
7290,note_on,0,0,1,,,,,,,,0,,,79,91
7305,note_on,15,0,1,,,,,,,,0,,,79,0
7305,note_on,0,0,1,,,,,,,,0,,,77,90
7320,note_on,30,0,2,,,,,,,,1,,,60,0
7320,note_on,0,0,2,,,,,,,,1,,,57,78
7320,note_on,0,0,1,,,,,,,,0,,,81,90
7320,note_on,15,0,1,,,,,,,,0,,,77,0
7350,note_on,0,0,2,,,,,,,,1,,,60,78
7350,note_on,30,0,2,,,,,,,,1,,,57,0
7380,note_on,0,0,1,,,,,,,,0,,,72,87
7380,note_on,60,0,1,,,,,,,,0,,,81,0
7380,note_on,0,0,2,,,,,,,,1,,,48,76
7380,note_on,30,0,2,,,,,,,,1,,,60,0
7380,note_on,0,0,2,,,,,,,,1,,,53,0
7380,note_on,0,0,2,,,,,,,,1,,,58,76
7410,note_on,0,0,2,,,,,,,,1,,,60,75
7410,note_on,30,0,2,,,,,,,,1,,,58,0
7440,note_on,0,0,2,,,,,,,,1,,,58,74
7440,note_on,30,0,2,,,,,,,,1,,,60,0
7440,note_on,60,0,1,,,,,,,,0,,,72,0
7440,note_on,0,0,1,,,,,,,,0,,,74,91
7470,note_on,30,0,2,,,,,,,,1,,,58,0
7470,note_on,0,0,2,,,,,,,,1,,,60,74
7500,note_on,60,0,1,,,,,,,,0,,,74,0
7500,note_on,30,0,2,,,,,,,,1,,,60,0
7500,note_on,0,0,2,,,,,,,,1,,,58,73
7500,note_on,0,0,1,,,,,,,,0,,,76,93
7530,note_on,30,0,2,,,,,,,,1,,,58,0
7530,note_on,0,0,2,,,,,,,,1,,,60,73
7560,note_on,60,0,1,,,,,,,,0,,,76,0
7560,note_on,0,0,2,,,,,,,,1,,,48,0
7560,note_on,0,0,2,,,,,,,,1,,,57,73
7560,note_on,0,0,1,,,,,,,,0,,,77,93
7560,note_on,0,0,2,,,,,,,,1,,,53,73
7560,note_on,30,0,2,,,,,,,,1,,,60,0
7575,note_on,15,0,1,,,,,,,,0,,,77,0
7575,note_on,0,0,1,,,,,,,,0,,,79,93
7590,note_on,15,0,1,,,,,,,,0,,,79,0
7590,note_on,0,0,1,,,,,,,,0,,,77,92
7605,note_on,15,0,1,,,,,,,,0,,,77,0
7605,note_on,0,0,1,,,,,,,,0,,,79,92
7620,note_on,15,0,1,,,,,,,,0,,,79,0
7620,note_on,0,0,1,,,,,,,,0,,,77,91
7635,note_on,15,0,1,,,,,,,,0,,,77,0
7635,note_on,0,0,1,,,,,,,,0,,,79,91
7650,note_on,15,0,1,,,,,,,,0,,,79,0
7650,note_on,0,0,1,,,,,,,,0,,,77,91
7665,note_on,15,0,1,,,,,,,,0,,,77,0
7665,note_on,0,0,1,,,,,,,,0,,,79,91
7680,note_on,120,0,2,,,,,,,,1,,,57,0
7680,note_on,0,0,2,,,,,,,,1,,,53,0
7680,note_on,15,0,1,,,,,,,,0,,,79,0
7680,note_on,0,0,1,,,,,,,,0,,,81,91
7740,note_on,60,0,1,,,,,,,,0,,,81,0
7740,note_on,0,0,1,,,,,,,,0,,,77,90
7755,note_on,15,0,1,,,,,,,,0,,,77,0
7755,note_on,0,0,1,,,,,,,,0,,,79,90
7770,note_on,15,0,1,,,,,,,,0,,,79,0
7770,note_on,0,0,1,,,,,,,,0,,,77,90
7785,note_on,15,0,1,,,,,,,,0,,,77,0
7785,note_on,0,0,1,,,,,,,,0,,,79,90
7800,note_on,15,0,1,,,,,,,,0,,,79,0
7800,note_on,0,0,1,,,,,,,,0,,,77,90
7815,note_on,0,0,1,,,,,,,,0,,,79,90
7815,note_on,15,0,1,,,,,,,,0,,,77,0
7830,note_on,0,0,1,,,,,,,,0,,,77,90
7830,note_on,15,0,1,,,,,,,,0,,,79,0
7845,note_on,15,0,1,,,,,,,,0,,,77,0
7845,note_on,0,0,1,,,,,,,,0,,,79,89
7860,note_on,15,0,1,,,,,,,,0,,,79,0
7860,note_on,0,0,1,,,,,,,,0,,,84,88
7920,note_on,60,0,1,,,,,,,,0,,,84,0
7920,note_on,0,0,1,,,,,,,,0,,,79,85
7935,note_on,0,0,1,,,,,,,,0,,,77,85
7935,note_on,15,0,1,,,,,,,,0,,,79,0
7950,note_on,15,0,1,,,,,,,,0,,,77,0
7950,note_on,0,0,1,,,,,,,,0,,,79,85
7965,note_on,15,0,1,,,,,,,,0,,,79,0
7965,note_on,0,0,1,,,,,,,,0,,,77,85
7980,note_on,15,0,1,,,,,,,,0,,,77,0
7980,note_on,0,0,1,,,,,,,,0,,,79,85
7995,note_on,15,0,1,,,,,,,,0,,,79,0
7995,note_on,0,0,1,,,,,,,,0,,,77,85
8010,note_on,0,0,1,,,,,,,,0,,,79,85
8010,note_on,15,0,1,,,,,,,,0,,,77,0
8025,note_on,0,0,1,,,,,,,,0,,,77,86
8025,note_on,15,0,1,,,,,,,,0,,,79,0
8040,note_on,15,0,1,,,,,,,,0,,,77,0
8040,note_on,0,0,1,,,,,,,,0,,,81,87
8100,note_on,60,0,1,,,,,,,,0,,,81,0
8100,note_on,0,0,1,,,,,,,,0,,,79,87
8115,note_on,15,0,1,,,,,,,,0,,,79,0
8115,note_on,0,0,1,,,,,,,,0,,,77,87
8130,note_on,0,0,1,,,,,,,,0,,,79,88
8130,note_on,15,0,1,,,,,,,,0,,,77,0
8145,note_on,15,0,1,,,,,,,,0,,,79,0
8145,note_on,0,0,1,,,,,,,,0,,,77,88
8160,note_on,15,0,1,,,,,,,,0,,,77,0
8160,note_on,0,0,1,,,,,,,,0,,,79,88
8175,note_on,15,0,1,,,,,,,,0,,,79,0
8175,note_on,0,0,1,,,,,,,,0,,,77,88
8190,note_on,15,0,1,,,,,,,,0,,,77,0
8190,note_on,0,0,1,,,,,,,,0,,,79,88
8205,note_on,15,0,1,,,,,,,,0,,,79,0
8205,note_on,0,0,1,,,,,,,,0,,,77,89
8220,note_on,15,0,1,,,,,,,,0,,,77,0
8220,note_on,0,0,1,,,,,,,,0,,,84,89
8280,note_on,60,0,1,,,,,,,,0,,,84,0
8280,note_on,0,0,1,,,,,,,,0,,,81,91
8280,note_on,600,0,2,,,,,,,,1,,,63,82
8280,note_on,0,0,2,,,,,,,,1,,,57,82
8280,note_on,0,0,2,,,,,,,,1,,,60,82
8280,note_on,0,0,2,,,,,,,,1,,,53,82
8340,note_on,0,0,1,,,,,,,,0,,,87,92
8340,note_on,60,0,1,,,,,,,,0,,,81,0
8400,note_on,0,0,1,,,,,,,,0,,,84,91
8400,note_on,60,0,1,,,,,,,,0,,,87,0
8460,note_on,0,0,2,,,,,,,,1,,,57,0
8460,note_on,0,0,2,,,,,,,,1,,,60,0
8460,note_on,0,0,2,,,,,,,,1,,,63,0
8460,note_on,180,0,2,,,,,,,,1,,,53,0
8460,note_on,60,0,1,,,,,,,,0,,,84,0
8460,note_on,0,0,1,,,,,,,,0,,,81,90
8520,note_on,60,0,1,,,,,,,,0,,,81,0
8520,note_on,0,0,1,,,,,,,,0,,,77,91
8580,note_on,0,0,1,,,,,,,,0,,,76,91
8580,note_on,60,0,1,,,,,,,,0,,,77,0
8640,note_on,0,0,1,,,,,,,,0,,,75,87
8640,note_on,60,0,1,,,,,,,,0,,,76,0
8640,note_on,0,0,2,,,,,,,,1,,,48,82
8640,note_on,180,0,2,,,,,,,,1,,,41,82
8640,note_on,0,0,2,,,,,,,,1,,,45,82
8640,note_on,0,0,2,,,,,,,,1,,,51,82
8700,note_on,0,0,1,,,,,,,,0,,,72,89
8700,note_on,60,0,1,,,,,,,,0,,,75,0
8760,note_on,0,0,1,,,,,,,,0,,,69,94
8760,note_on,60,0,1,,,,,,,,0,,,72,0
8820,note_on,0,0,2,,,,,,,,1,,,45,0
8820,note_on,0,0,1,,,,,,,,0,,,65,95
8820,note_on,180,0,2,,,,,,,,1,,,51,0
8820,note_on,0,0,2,,,,,,,,1,,,41,0
8820,note_on,0,0,2,,,,,,,,1,,,48,0
8820,note_on,60,0,1,,,,,,,,0,,,69,0
8880,note_on,60,0,1,,,,,,,,0,,,65,0
8880,note_on,0,0,1,,,,,,,,0,,,64,96
8940,note_on,0,0,1,,,,,,,,0,,,63,94
8940,note_on,60,0,1,,,,,,,,0,,,64,0
9000,note_on,60,0,1,,,,,,,,0,,,63,0
9000,note_on,180,0,2,,,,,,,,1,,,46,79
9000,note_on,0,0,1,,,,,,,,0,,,62,94
9060,note_on,60,0,1,,,,,,,,0,,,62,0
9060,note_on,0,0,1,,,,,,,,0,,,58,93
9120,note_on,120,0,2,,,,,,,,1,,,46,0
9120,note_on,60,0,1,,,,,,,,0,,,58,0
9120,note_on,0,0,1,,,,,,,,0,,,65,96
9180,note_on,60,0,1,,,,,,,,0,,,65,0
9180,note_on,0,0,1,,,,,,,,0,,,65,98
9240,note_on,60,0,1,,,,,,,,0,,,65,0
9240,note_on,0,0,1,,,,,,,,0,,,62,98
9300,note_on,0,0,1,,,,,,,,0,,,70,97
9300,note_on,60,0,1,,,,,,,,0,,,62,0
9360,note_on,0,0,1,,,,,,,,0,,,70,96
9360,note_on,60,0,1,,,,,,,,0,,,70,0
9420,note_on,0,0,1,,,,,,,,0,,,65,95
9420,note_on,60,0,1,,,,,,,,0,,,70,0
9480,note_on,0,0,1,,,,,,,,0,,,74,95
9480,note_on,60,0,1,,,,,,,,0,,,65,0
9540,note_on,0,0,1,,,,,,,,0,,,77,95
9540,note_on,60,0,1,,,,,,,,0,,,74,0
9660,note_on,0,0,2,,,,,,,,1,,,57,80
9660,note_on,540,0,2,,,,,,,,1,,,65,80
9660,note_on,120,0,1,,,,,,,,0,,,77,0
9660,note_on,0,0,1,,,,,,,,0,,,75,98
9660,note_on,0,0,1,,,,,,,,0,,,72,98
9720,note_on,0,0,1,,,,,,,,0,,,70,101
9720,note_on,0,0,1,,,,,,,,0,,,74,101
9720,note_on,60,0,1,,,,,,,,0,,,75,0
9720,note_on,60,0,2,,,,,,,,1,,,57,0
9720,note_on,0,0,2,,,,,,,,1,,,58,79
9720,note_on,0,0,1,,,,,,,,0,,,72,0
9780,note_on,60,0,1,,,,,,,,0,,,74,0
9780,note_on,0,0,1,,,,,,,,0,,,70,0
9780,note_on,0,0,1,,,,,,,,0,,,72,102
9780,note_on,0,0,1,,,,,,,,0,,,75,102
9839,note_on,119,0,2,,,,,,,,1,,,65,0
9840,note_on,60,0,1,,,,,,,,0,,,72,0
9840,note_on,0,0,1,,,,,,,,0,,,75,0
9840,note_on,0,0,1,,,,,,,,0,,,77,102
9840,note_on,0,0,1,,,,,,,,0,,,74,102
9840,note_on,1,0,2,,,,,,,,1,,,58,0
9900,note_on,0,0,1,,,,,,,,0,,,79,102
9900,note_on,60,0,2,,,,,,,,1,,,63,82
9900,note_on,0,0,1,,,,,,,,0,,,77,0
9900,note_on,60,0,1,,,,,,,,0,,,74,0
9900,note_on,0,0,1,,,,,,,,0,,,75,102
9960,note_on,0,0,1,,,,,,,,0,,,75,101
9960,note_on,0,0,1,,,,,,,,0,,,79,0
9960,note_on,60,0,1,,,,,,,,0,,,75,0
9960,note_on,0,0,1,,,,,,,,0,,,72,101
10020,note_on,60,0,1,,,,,,,,0,,,75,0
10020,note_on,0,0,1,,,,,,,,0,,,72,0
10020,note_on,0,0,1,,,,,,,,0,,,70,99
10020,note_on,120,0,2,,,,,,,,1,,,63,0
10020,note_on,0,0,2,,,,,,,,1,,,64,83
10020,note_on,0,0,1,,,,,,,,0,,,74,99
10080,note_on,60,0,1,,,,,,,,0,,,74,0
10080,note_on,0,0,1,,,,,,,,0,,,70,0
10080,note_on,0,0,1,,,,,,,,0,,,72,98
10080,note_on,0,0,1,,,,,,,,0,,,69,98
10080,note_on,60,0,2,,,,,,,,1,,,64,0
10080,note_on,0,0,2,,,,,,,,1,,,65,83
10140,note_on,0,0,2,,,,,,,,1,,,65,83
10140,note_on,0,0,1,,,,,,,,0,,,72,99
10140,note_on,0,0,1,,,,,,,,0,,,69,99
10140,note_on,0,0,1,,,,,,,,0,,,72,0
10140,note_on,60,0,1,,,,,,,,0,,,69,0
10140,note_on,60,0,2,,,,,,,,1,,,65,0
10200,note_on,0,0,1,,,,,,,,0,,,75,99
10200,note_on,0,0,1,,,,,,,,0,,,72,99
10200,note_on,0,0,1,,,,,,,,0,,,69,0
10200,note_on,60,0,1,,,,,,,,0,,,72,0
10200,note_on,0,0,2,,,,,,,,1,,,64,83
10200,note_on,60,0,2,,,,,,,,1,,,65,0
10230,note_on,30,0,1,,,,,,,,0,,,75,0
10230,note_on,0,0,1,,,,,,,,0,,,70,99
10230,note_on,0,0,1,,,,,,,,0,,,74,99
10230,note_on,0,0,1,,,,,,,,0,,,72,0
10260,note_on,60,0,2,,,,,,,,1,,,64,0
10260,note_on,0,0,2,,,,,,,,1,,,65,83
10260,note_on,30,0,1,,,,,,,,0,,,74,0
10260,note_on,0,0,1,,,,,,,,0,,,70,0
10260,note_on,0,0,1,,,,,,,,0,,,69,98
10260,note_on,0,0,1,,,,,,,,0,,,72,98
10380,note_on,0,0,1,,,,,,,,0,,,69,0
10380,note_on,0,0,1,,,,,,,,0,,,65,93
10380,note_on,120,0,1,,,,,,,,0,,,72,0
10380,note_on,120,0,2,,,,,,,,1,,,65,0
10410,note_on,30,0,1,,,,,,,,0,,,65,0
10425,note_on,15,0,1,,,,,,,,0,,,67,95
10440,note_on,60,0,2,,,,,,,,1,,,46,81
10440,note_on,0,0,2,,,,,,,,1,,,58,81
10440,note_on,0,0,1,,,,,,,,0,,,65,95
10440,note_on,15,0,1,,,,,,,,0,,,67,0
10500,note_on,60,0,1,,,,,,,,0,,,65,0
10500,note_on,0,0,1,,,,,,,,0,,,62,96
10560,note_on,60,0,1,,,,,,,,0,,,62,0
10560,note_on,0,0,2,,,,,,,,1,,,46,0
10560,note_on,0,0,1,,,,,,,,0,,,70,97
10560,note_on,120,0,2,,,,,,,,1,,,58,0
10590,note_on,30,0,1,,,,,,,,0,,,70,0
10605,note_on,15,0,1,,,,,,,,0,,,72,97
10620,note_on,15,0,1,,,,,,,,0,,,72,0
10620,note_on,0,0,1,,,,,,,,0,,,70,96
10680,note_on,60,0,1,,,,,,,,0,,,70,0
10680,note_on,0,0,1,,,,,,,,0,,,65,91
10740,note_on,60,0,1,,,,,,,,0,,,65,0
10740,note_on,0,0,1,,,,,,,,0,,,74,91
10770,note_on,30,0,1,,,,,,,,0,,,74,0
10785,note_on,15,0,1,,,,,,,,0,,,75,91
10800,note_on,0,0,1,,,,,,,,0,,,74,91
10800,note_on,15,0,1,,,,,,,,0,,,75,0
10860,note_on,60,0,1,,,,,,,,0,,,74,0
10860,note_on,0,0,1,,,,,,,,0,,,70,94
10920,note_on,60,0,1,,,,,,,,0,,,70,0
10920,note_on,0,0,1,,,,,,,,0,,,77,95
10980,note_on,60,0,1,,,,,,,,0,,,77,0
10980,note_on,0,0,1,,,,,,,,0,,,74,92
10980,note_on,0,0,1,,,,,,,,0,,,77,92
11100,note_on,540,0,2,,,,,,,,1,,,51,79
11100,note_on,120,0,1,,,,,,,,0,,,77,0
11100,note_on,0,0,1,,,,,,,,0,,,74,0
11100,note_on,0,0,1,,,,,,,,0,,,79,96
11100,note_on,0,0,1,,,,,,,,0,,,75,96
11160,note_on,60,0,2,,,,,,,,1,,,51,0
11160,note_on,0,0,1,,,,,,,,0,,,79,0
11160,note_on,0,0,1,,,,,,,,0,,,77,98
11160,note_on,0,0,2,,,,,,,,1,,,53,80
11160,note_on,60,0,1,,,,,,,,0,,,75,0
11160,note_on,0,0,1,,,,,,,,0,,,74,98
11220,note_on,0,0,1,,,,,,,,0,,,75,99
11220,note_on,0,0,1,,,,,,,,0,,,74,0
11220,note_on,0,0,1,,,,,,,,0,,,72,99
11220,note_on,60,0,1,,,,,,,,0,,,77,0
11280,note_on,60,0,1,,,,,,,,0,,,75,0
11280,note_on,0,0,1,,,,,,,,0,,,72,0
11280,note_on,0,0,1,,,,,,,,0,,,70,96
11280,note_on,0,0,1,,,,,,,,0,,,74,96
11280,note_on,120,0,2,,,,,,,,1,,,53,0
11340,note_on,60,0,2,,,,,,,,1,,,41,80
11340,note_on,0,0,1,,,,,,,,0,,,63,95
11340,note_on,0,0,1,,,,,,,,0,,,70,0
11340,note_on,60,0,1,,,,,,,,0,,,74,0
11340,note_on,0,0,1,,,,,,,,0,,,72,95
11400,note_on,60,0,1,,,,,,,,0,,,72,0
11400,note_on,0,0,1,,,,,,,,0,,,63,0
11400,note_on,0,0,1,,,,,,,,0,,,70,95
11400,note_on,0,0,1,,,,,,,,0,,,62,95
11460,note_on,60,0,1,,,,,,,,0,,,70,0
11460,note_on,120,0,2,,,,,,,,1,,,41,0
11460,note_on,0,0,1,,,,,,,,0,,,60,99
11460,note_on,0,0,1,,,,,,,,0,,,69,99
11460,note_on,0,0,1,,,,,,,,0,,,62,0
11520,note_on,60,0,1,,,,,,,,0,,,69,0
11520,note_on,0,0,1,,,,,,,,0,,,60,0
11520,note_on,0,0,1,,,,,,,,0,,,62,103
11520,note_on,0,0,1,,,,,,,,0,,,70,103
11520,note_on,60,0,2,,,,,,,,1,,,58,78
11580,note_on,0,0,2,,,,,,,,1,,,53,77
11580,note_on,60,0,2,,,,,,,,1,,,58,0
11640,note_on,0,0,2,,,,,,,,1,,,50,77
11640,note_on,60,0,2,,,,,,,,1,,,53,0
11640,note_on,120,0,1,,,,,,,,0,,,70,0
11640,note_on,0,0,1,,,,,,,,0,,,62,0
11700,note_on,60,0,2,,,,,,,,1,,,50,0
11700,note_on,0,0,2,,,,,,,,1,,,46,77
11820,note_on,180,0,1,,,,,,,,0,,,77,96
11820,note_on,120,0,2,,,,,,,,1,,,46,0
11880,note_on,0,0,1,,,,,,,,0,,,77,96
11880,note_on,60,0,1,,,,,,,,0,,,77,0
11880,note_on,60,0,2,,,,,,,,1,,,60,77
11940,note_on,60,0,2,,,,,,,,1,,,60,0
11940,note_on,0,0,2,,,,,,,,1,,,63,78
11940,note_on,0,0,1,,,,,,,,0,,,69,95
11940,note_on,60,0,1,,,,,,,,0,,,77,0
12000,note_on,60,0,2,,,,,,,,1,,,63,0
12000,note_on,0,0,2,,,,,,,,1,,,65,79
12000,note_on,0,0,1,,,,,,,,0,,,69,92
12000,note_on,60,0,1,,,,,,,,0,,,69,0
12030,note_on,30,0,1,,,,,,,,0,,,69,0
12045,note_on,15,0,1,,,,,,,,0,,,72,91
12060,note_on,0,0,1,,,,,,,,0,,,70,90
12060,note_on,15,0,1,,,,,,,,0,,,72,0
12060,note_on,0,0,2,,,,,,,,1,,,58,79
12060,note_on,60,0,2,,,,,,,,1,,,65,0
12120,note_on,60,0,2,,,,,,,,1,,,58,0
12120,note_on,60,0,1,,,,,,,,0,,,70,0
12120,note_on,0,0,1,,,,,,,,0,,,69,92
12120,note_on,0,0,2,,,,,,,,1,,,62,78
12180,note_on,60,0,2,,,,,,,,1,,,62,0
12180,note_on,0,0,2,,,,,,,,1,,,65,78
12180,note_on,60,0,1,,,,,,,,0,,,69,0
12180,note_on,0,0,1,,,,,,,,0,,,70,95
12240,note_on,60,0,2,,,,,,,,1,,,65,0
12240,note_on,0,0,1,,,,,,,,0,,,71,98
12240,note_on,0,0,2,,,,,,,,1,,,57,76
12240,note_on,60,0,1,,,,,,,,0,,,70,0
12300,note_on,0,0,2,,,,,,,,1,,,60,76
12300,note_on,60,0,2,,,,,,,,1,,,57,0
12360,note_on,0,0,2,,,,,,,,1,,,65,78
12360,note_on,60,0,2,,,,,,,,1,,,60,0
12420,note_on,0,0,1,,,,,,,,0,,,72,92
12420,note_on,0,0,2,,,,,,,,1,,,51,79
12420,note_on,60,0,2,,,,,,,,1,,,65,0
12420,note_on,180,0,1,,,,,,,,0,,,71,0
12480,note_on,60,0,2,,,,,,,,1,,,51,0
12480,note_on,0,0,2,,,,,,,,1,,,57,79
12540,note_on,0,0,2,,,,,,,,1,,,60,78
12540,note_on,60,0,2,,,,,,,,1,,,57,0
12540,note_on,120,0,1,,,,,,,,0,,,72,0
12540,note_on,0,0,1,,,,,,,,0,,,77,92
12600,note_on,60,0,1,,,,,,,,0,,,77,0
12600,note_on,0,0,1,,,,,,,,0,,,77,95
12600,note_on,60,0,2,,,,,,,,1,,,60,0
12600,note_on,0,0,2,,,,,,,,1,,,50,77
12660,note_on,0,0,2,,,,,,,,1,,,53,77
12660,note_on,0,0,1,,,,,,,,0,,,70,96
12660,note_on,60,0,1,,,,,,,,0,,,77,0
12660,note_on,60,0,2,,,,,,,,1,,,50,0
12720,note_on,0,0,2,,,,,,,,1,,,58,76
12720,note_on,60,0,2,,,,,,,,1,,,53,0
12720,note_on,60,0,1,,,,,,,,0,,,70,0
12720,note_on,0,0,1,,,,,,,,0,,,70,97
12750,note_on,30,0,1,,,,,,,,0,,,70,0
12765,note_on,15,0,1,,,,,,,,0,,,74,95
12780,note_on,15,0,1,,,,,,,,0,,,74,0
12780,note_on,0,0,2,,,,,,,,1,,,48,76
12780,note_on,0,0,1,,,,,,,,0,,,72,93
12780,note_on,60,0,2,,,,,,,,1,,,58,0
12840,note_on,0,0,1,,,,,,,,0,,,70,93
12840,note_on,60,0,2,,,,,,,,1,,,48,0
12840,note_on,0,0,2,,,,,,,,1,,,53,75
12840,note_on,60,0,1,,,,,,,,0,,,72,0
12900,note_on,60,0,2,,,,,,,,1,,,53,0
12900,note_on,0,0,2,,,,,,,,1,,,57,75
12900,note_on,60,0,1,,,,,,,,0,,,70,0
12900,note_on,0,0,1,,,,,,,,0,,,72,95
12960,note_on,0,0,2,,,,,,,,1,,,46,76
12960,note_on,60,0,2,,,,,,,,1,,,57,0
12960,note_on,60,0,1,,,,,,,,0,,,72,0
12960,note_on,0,0,1,,,,,,,,0,,,73,98
13020,note_on,0,0,2,,,,,,,,1,,,53,76
13020,note_on,60,0,2,,,,,,,,1,,,46,0
13080,note_on,60,0,2,,,,,,,,1,,,53,0
13080,note_on,120,0,1,,,,,,,,0,,,73,0
13080,note_on,0,0,2,,,,,,,,1,,,58,76
13140,note_on,0,0,2,,,,,,,,1,,,46,76
13140,note_on,60,0,1,,,,,,,,0,,,74,92
13140,note_on,60,0,2,,,,,,,,1,,,58,0
13200,note_on,60,0,2,,,,,,,,1,,,46,0
13200,note_on,0,0,2,,,,,,,,1,,,53,76
13260,note_on,60,0,2,,,,,,,,1,,,53,0
13260,note_on,0,0,2,,,,,,,,1,,,58,76
13260,note_on,120,0,1,,,,,,,,0,,,74,0
13260,note_on,0,0,1,,,,,,,,0,,,77,92
13320,note_on,60,0,1,,,,,,,,0,,,77,0
13320,note_on,0,0,1,,,,,,,,0,,,82,94
13320,note_on,60,0,2,,,,,,,,1,,,58,0
13320,note_on,0,0,2,,,,,,,,1,,,50,76
13380,note_on,60,0,2,,,,,,,,1,,,50,0
13380,note_on,0,0,2,,,,,,,,1,,,53,76
13380,note_on,60,0,1,,,,,,,,0,,,82,0
13380,note_on,0,0,1,,,,,,,,0,,,81,94
13440,note_on,60,0,1,,,,,,,,0,,,81,0
13440,note_on,0,0,1,,,,,,,,0,,,79,94
13440,note_on,60,0,2,,,,,,,,1,,,53,0
13440,note_on,0,0,2,,,,,,,,1,,,58,76
13500,note_on,60,0,1,,,,,,,,0,,,79,0
13500,note_on,0,0,1,,,,,,,,0,,,77,94
13500,note_on,0,0,2,,,,,,,,1,,,50,76
13500,note_on,60,0,2,,,,,,,,1,,,58,0
13560,note_on,60,0,1,,,,,,,,0,,,77,0
13560,note_on,0,0,1,,,,,,,,0,,,75,91
13560,note_on,0,0,2,,,,,,,,1,,,53,76
13560,note_on,60,0,2,,,,,,,,1,,,50,0
13620,note_on,0,0,2,,,,,,,,1,,,58,76
13620,note_on,60,0,2,,,,,,,,1,,,53,0
13620,note_on,60,0,1,,,,,,,,0,,,75,0
13620,note_on,0,0,1,,,,,,,,0,,,74,91
13680,note_on,60,0,1,,,,,,,,0,,,74,0
13680,note_on,0,0,1,,,,,,,,0,,,74,92
13680,note_on,60,0,2,,,,,,,,1,,,58,0
13680,note_on,0,0,2,,,,,,,,1,,,51,76
13740,note_on,60,0,1,,,,,,,,0,,,74,0
13740,note_on,0,0,1,,,,,,,,0,,,72,96
13740,note_on,60,0,2,,,,,,,,1,,,51,0
13740,note_on,0,0,2,,,,,,,,1,,,55,76
13800,note_on,0,0,1,,,,,,,,0,,,71,96
13800,note_on,60,0,1,,,,,,,,0,,,72,0
13800,note_on,60,0,2,,,,,,,,1,,,55,0
13800,note_on,0,0,2,,,,,,,,1,,,59,75
13860,note_on,0,0,2,,,,,,,,1,,,51,75
13860,note_on,60,0,2,,,,,,,,1,,,59,0
13860,note_on,60,0,1,,,,,,,,0,,,71,0
13860,note_on,0,0,1,,,,,,,,0,,,72,96
13920,note_on,60,0,2,,,,,,,,1,,,51,0
13920,note_on,0,0,2,,,,,,,,1,,,55,75
13920,note_on,60,0,1,,,,,,,,0,,,72,0
13920,note_on,0,0,1,,,,,,,,0,,,75,92
13980,note_on,60,0,2,,,,,,,,1,,,55,0
13980,note_on,0,0,2,,,,,,,,1,,,60,76
13980,note_on,60,0,1,,,,,,,,0,,,75,0
13980,note_on,0,0,1,,,,,,,,0,,,79,90
14040,note_on,60,0,1,,,,,,,,0,,,79,0
14040,note_on,60,0,2,,,,,,,,1,,,60,0
14040,note_on,0,0,2,,,,,,,,1,,,53,77
14040,note_on,0,0,1,,,,,,,,0,,,77,93
14100,note_on,60,0,1,,,,,,,,0,,,77,0
14100,note_on,0,0,1,,,,,,,,0,,,74,95
14100,note_on,60,0,2,,,,,,,,1,,,53,0
14100,note_on,0,0,2,,,,,,,,1,,,58,77
14160,note_on,60,0,2,,,,,,,,1,,,58,0
14160,note_on,0,0,2,,,,,,,,1,,,62,77
14160,note_on,0,0,1,,,,,,,,0,,,70,96
14160,note_on,60,0,1,,,,,,,,0,,,74,0
14220,note_on,60,0,2,,,,,,,,1,,,62,0
14220,note_on,0,0,2,,,,,,,,1,,,53,77
14220,note_on,0,0,1,,,,,,,,0,,,65,97
14220,note_on,60,0,1,,,,,,,,0,,,70,0
14280,note_on,0,0,2,,,,,,,,1,,,60,77
14280,note_on,0,0,1,,,,,,,,0,,,67,97
14280,note_on,60,0,1,,,,,,,,0,,,65,0
14280,note_on,60,0,2,,,,,,,,1,,,53,0
14340,note_on,60,0,2,,,,,,,,1,,,60,0
14340,note_on,0,0,1,,,,,,,,0,,,69,96
14340,note_on,60,0,1,,,,,,,,0,,,67,0
14340,note_on,0,0,2,,,,,,,,1,,,63,77
14400,note_on,60,0,1,,,,,,,,0,,,69,0
14400,note_on,60,0,2,,,,,,,,1,,,63,0
14400,note_on,0,0,2,,,,,,,,1,,,46,77
14400,note_on,0,0,1,,,,,,,,0,,,70,96
14460,note_on,60,0,2,,,,,,,,1,,,46,0
14460,note_on,0,0,2,,,,,,,,1,,,50,77
14520,note_on,0,0,2,,,,,,,,1,,,53,76
14520,note_on,60,0,2,,,,,,,,1,,,50,0
14520,note_on,120,0,1,,,,,,,,0,,,70,0
14580,note_on,60,0,2,,,,,,,,1,,,53,0
14580,note_on,60,0,1,,,,,,,,0,,,70,110
14580,note_on,0,0,2,,,,,,,,1,,,58,76
14610,note_on,30,0,1,,,,,,,,0,,,70,0
14610,note_on,0,0,1,,,,,,,,0,,,72,107
14640,note_on,0,0,1,,,,,,,,0,,,74,104
14640,note_on,30,0,1,,,,,,,,0,,,72,0
14670,note_on,30,0,1,,,,,,,,0,,,74,0
14670,note_on,0,0,1,,,,,,,,0,,,75,102
14700,note_on,30,0,1,,,,,,,,0,,,75,0
14700,note_on,0,0,1,,,,,,,,0,,,77,98
14700,note_on,120,0,2,,,,,,,,1,,,58,0
14715,note_on,15,0,1,,,,,,,,0,,,77,0
14715,note_on,0,0,1,,,,,,,,0,,,79,97
14730,note_on,0,0,1,,,,,,,,0,,,81,97
14730,note_on,15,0,1,,,,,,,,0,,,79,0
14745,note_on,15,0,1,,,,,,,,0,,,81,0
14745,note_on,0,0,1,,,,,,,,0,,,82,96
14760,note_on,60,0,2,,,,,,,,1,,,51,77
14760,note_on,15,0,1,,,,,,,,0,,,82,0
14760,note_on,0,0,1,,,,,,,,0,,,84,95
14820,note_on,0,0,2,,,,,,,,1,,,57,77
14820,note_on,60,0,2,,,,,,,,1,,,51,0
14880,note_on,120,0,1,,,,,,,,0,,,84,0
14880,note_on,60,0,2,,,,,,,,1,,,57,0
14880,note_on,0,0,2,,,,,,,,1,,,60,77
14880,note_on,0,0,1,,,,,,,,0,,,82,92
14910,note_on,30,0,1,,,,,,,,0,,,82,0
14925,note_on,15,0,1,,,,,,,,0,,,82,92
14940,note_on,15,0,1,,,,,,,,0,,,82,0
14940,note_on,0,0,1,,,,,,,,0,,,81,92
14940,note_on,60,0,2,,,,,,,,1,,,60,0
14940,note_on,0,0,2,,,,,,,,1,,,51,77
15000,note_on,60,0,1,,,,,,,,0,,,81,0
15000,note_on,0,0,2,,,,,,,,1,,,57,76
15000,note_on,60,0,2,,,,,,,,1,,,51,0
15000,note_on,0,0,1,,,,,,,,0,,,79,92
15060,note_on,60,0,1,,,,,,,,0,,,79,0
15060,note_on,60,0,2,,,,,,,,1,,,57,0
15060,note_on,0,0,2,,,,,,,,1,,,60,77
15060,note_on,0,0,1,,,,,,,,0,,,81,89
15120,note_on,60,0,2,,,,,,,,1,,,60,0
15120,note_on,0,0,1,,,,,,,,0,,,82,86
15120,note_on,60,0,1,,,,,,,,0,,,81,0
15120,note_on,0,0,2,,,,,,,,1,,,53,78
15180,note_on,60,0,2,,,,,,,,1,,,53,0
15180,note_on,0,0,2,,,,,,,,1,,,57,78
15240,note_on,60,0,2,,,,,,,,1,,,57,0
15240,note_on,0,0,2,,,,,,,,1,,,58,78
15300,note_on,60,0,2,,,,,,,,1,,,58,0
15300,note_on,0,0,2,,,,,,,,1,,,50,78
15300,note_on,0,0,1,,,,,,,,0,,,77,91
15300,note_on,180,0,1,,,,,,,,0,,,82,0
15360,note_on,60,0,2,,,,,,,,1,,,50,0
15360,note_on,0,0,2,,,,,,,,1,,,53,77
15420,note_on,0,0,1,,,,,,,,0,,,86,94
15420,note_on,60,0,2,,,,,,,,1,,,53,0
15420,note_on,0,0,2,,,,,,,,1,,,58,77
15420,note_on,120,0,1,,,,,,,,0,,,77,0
15480,note_on,60,0,1,,,,,,,,0,,,86,0
15480,note_on,0,0,1,,,,,,,,0,,,86,92
15480,note_on,60,0,2,,,,,,,,1,,,58,0
15480,note_on,0,0,2,,,,,,,,1,,,51,76
15540,note_on,60,0,2,,,,,,,,1,,,51,0
15540,note_on,0,0,2,,,,,,,,1,,,55,76
15540,note_on,60,0,1,,,,,,,,0,,,86,0
15540,note_on,0,0,1,,,,,,,,0,,,84,89
15600,note_on,0,0,2,,,,,,,,1,,,59,76
15600,note_on,60,0,2,,,,,,,,1,,,55,0
15600,note_on,0,0,1,,,,,,,,0,,,83,88
15600,note_on,60,0,1,,,,,,,,0,,,84,0
15660,note_on,0,0,1,,,,,,,,0,,,84,87
15660,note_on,0,0,2,,,,,,,,1,,,52,76
15660,note_on,60,0,2,,,,,,,,1,,,59,0
15660,note_on,60,0,1,,,,,,,,0,,,83,0
15720,note_on,60,0,2,,,,,,,,1,,,52,0
15720,note_on,60,0,1,,,,,,,,0,,,84,0
15720,note_on,0,0,1,,,,,,,,0,,,86,91
15720,note_on,0,0,2,,,,,,,,1,,,55,77
15780,note_on,60,0,1,,,,,,,,0,,,86,0
15780,note_on,60,0,2,,,,,,,,1,,,55,0
15780,note_on,0,0,2,,,,,,,,1,,,60,77
15780,note_on,0,0,1,,,,,,,,0,,,82,94
15840,note_on,60,0,1,,,,,,,,0,,,82,0
15840,note_on,0,0,1,,,,,,,,0,,,81,93
15840,note_on,0,0,2,,,,,,,,1,,,53,77
15840,note_on,60,0,2,,,,,,,,1,,,60,0
15900,note_on,60,0,2,,,,,,,,1,,,53,0
15900,note_on,0,0,2,,,,,,,,1,,,57,77
15960,note_on,0,0,2,,,,,,,,1,,,60,77
15960,note_on,60,0,2,,,,,,,,1,,,57,0
15960,note_on,120,0,1,,,,,,,,0,,,81,0
16020,note_on,0,0,2,,,,,,,,1,,,53,77
16020,note_on,60,0,2,,,,,,,,1,,,60,0
16020,note_on,60,0,1,,,,,,,,0,,,81,108
16050,note_on,30,0,1,,,,,,,,0,,,81,0
16050,note_on,0,0,1,,,,,,,,0,,,79,104
16080,note_on,0,0,2,,,,,,,,1,,,57,77
16080,note_on,60,0,2,,,,,,,,1,,,53,0
16080,note_on,0,0,1,,,,,,,,0,,,77,103
16080,note_on,30,0,1,,,,,,,,0,,,79,0
16110,note_on,0,0,1,,,,,,,,0,,,79,101
16110,note_on,30,0,1,,,,,,,,0,,,77,0
16140,note_on,60,0,2,,,,,,,,1,,,57,0
16140,note_on,0,0,1,,,,,,,,0,,,81,100
16140,note_on,0,0,2,,,,,,,,1,,,60,77
16140,note_on,30,0,1,,,,,,,,0,,,79,0
16155,note_on,0,0,1,,,,,,,,0,,,82,99
16155,note_on,15,0,1,,,,,,,,0,,,81,0
16170,note_on,15,0,1,,,,,,,,0,,,82,0
16170,note_on,0,0,1,,,,,,,,0,,,84,98
16185,note_on,15,0,1,,,,,,,,0,,,84,0
16185,note_on,0,0,1,,,,,,,,0,,,86,98
16200,note_on,60,0,2,,,,,,,,1,,,60,0
16200,note_on,15,0,1,,,,,,,,0,,,86,0
16200,note_on,0,0,1,,,,,,,,0,,,87,96
16200,note_on,0,0,2,,,,,,,,1,,,51,77
16260,note_on,60,0,2,,,,,,,,1,,,51,0
16260,note_on,0,0,2,,,,,,,,1,,,57,77
16320,note_on,60,0,2,,,,,,,,1,,,57,0
16320,note_on,0,0,1,,,,,,,,0,,,84,90
16320,note_on,0,0,2,,,,,,,,1,,,60,77
16320,note_on,120,0,1,,,,,,,,0,,,87,0
16350,note_on,30,0,1,,,,,,,,0,,,84,0
16365,note_on,15,0,1,,,,,,,,0,,,82,92
16380,note_on,15,0,1,,,,,,,,0,,,82,0
16380,note_on,0,0,1,,,,,,,,0,,,81,93
16380,note_on,60,0,2,,,,,,,,1,,,60,0
16380,note_on,0,0,2,,,,,,,,1,,,51,78
16440,note_on,60,0,1,,,,,,,,0,,,81,0
16440,note_on,0,0,2,,,,,,,,1,,,57,79
16440,note_on,60,0,2,,,,,,,,1,,,51,0
16440,note_on,0,0,1,,,,,,,,0,,,79,95
16500,note_on,0,0,1,,,,,,,,0,,,81,93
16500,note_on,60,0,2,,,,,,,,1,,,57,0
16500,note_on,60,0,1,,,,,,,,0,,,79,0
16500,note_on,0,0,2,,,,,,,,1,,,60,79
16560,note_on,60,0,1,,,,,,,,0,,,81,0
16560,note_on,60,0,2,,,,,,,,1,,,60,0
16560,note_on,0,0,2,,,,,,,,1,,,50,78
16560,note_on,0,0,1,,,,,,,,0,,,82,89
16620,note_on,60,0,2,,,,,,,,1,,,50,0
16620,note_on,0,0,2,,,,,,,,1,,,53,77
16680,note_on,60,0,2,,,,,,,,1,,,53,0
16680,note_on,120,0,1,,,,,,,,0,,,82,0
16680,note_on,0,0,2,,,,,,,,1,,,58,77
16740,note_on,60,0,1,,,,,,,,0,,,82,106
16740,note_on,60,0,2,,,,,,,,1,,,58,0
16740,note_on,0,0,2,,,,,,,,1,,,50,77
16770,note_on,30,0,1,,,,,,,,0,,,82,0
16770,note_on,0,0,1,,,,,,,,0,,,81,104
16800,note_on,60,0,2,,,,,,,,1,,,50,0
16800,note_on,0,0,2,,,,,,,,1,,,53,77
16800,note_on,30,0,1,,,,,,,,0,,,81,0
16800,note_on,0,0,1,,,,,,,,0,,,79,103
16830,note_on,0,0,1,,,,,,,,0,,,77,102
16830,note_on,30,0,1,,,,,,,,0,,,79,0
16860,note_on,0,0,1,,,,,,,,0,,,75,101
16860,note_on,30,0,1,,,,,,,,0,,,77,0
16860,note_on,0,0,2,,,,,,,,1,,,53,77
16860,note_on,60,0,2,,,,,,,,1,,,53,0
16890,note_on,30,0,1,,,,,,,,0,,,75,0
16890,note_on,0,0,1,,,,,,,,0,,,74,100
16920,note_on,30,0,1,,,,,,,,0,,,74,0
16920,note_on,0,0,1,,,,,,,,0,,,79,99
16920,note_on,0,0,2,,,,,,,,1,,,39,77
16920,note_on,60,0,2,,,,,,,,1,,,53,0
16950,note_on,30,0,1,,,,,,,,0,,,79,0
16950,note_on,0,0,1,,,,,,,,0,,,77,98
16980,note_on,30,0,1,,,,,,,,0,,,77,0
16980,note_on,0,0,1,,,,,,,,0,,,75,96
16980,note_on,0,0,2,,,,,,,,1,,,51,77
16980,note_on,60,0,2,,,,,,,,1,,,39,0
17010,note_on,0,0,1,,,,,,,,0,,,74,95
17010,note_on,30,0,1,,,,,,,,0,,,75,0
17040,note_on,0,0,2,,,,,,,,1,,,51,77
17040,note_on,0,0,1,,,,,,,,0,,,72,94
17040,note_on,30,0,1,,,,,,,,0,,,74,0
17040,note_on,60,0,2,,,,,,,,1,,,51,0
17070,note_on,30,0,1,,,,,,,,0,,,72,0
17070,note_on,0,0,1,,,,,,,,0,,,70,93
17100,note_on,30,0,1,,,,,,,,0,,,70,0
17100,note_on,0,0,1,,,,,,,,0,,,69,93
17100,note_on,0,0,2,,,,,,,,1,,,41,77
17100,note_on,60,0,2,,,,,,,,1,,,51,0
17130,note_on,30,0,1,,,,,,,,0,,,69,0
17130,note_on,0,0,1,,,,,,,,0,,,67,92
17160,note_on,0,0,1,,,,,,,,0,,,65,91
17160,note_on,30,0,1,,,,,,,,0,,,67,0
17160,note_on,60,0,2,,,,,,,,1,,,41,0
17160,note_on,0,0,2,,,,,,,,1,,,53,77
17190,note_on,30,0,1,,,,,,,,0,,,65,0
17190,note_on,0,0,1,,,,,,,,0,,,63,91
17220,note_on,30,0,1,,,,,,,,0,,,63,0
17220,note_on,60,0,2,,,,,,,,1,,,53,0
17220,note_on,0,0,2,,,,,,,,1,,,53,77
17220,note_on,0,0,1,,,,,,,,0,,,62,89
17250,note_on,30,0,1,,,,,,,,0,,,62,0
17250,note_on,0,0,1,,,,,,,,0,,,60,88
17280,note_on,0,0,2,,,,,,,,1,,,34,77
17280,note_on,60,0,2,,,,,,,,1,,,53,0
17280,note_on,0,0,2,,,,,,,,1,,,58,87
17280,note_on,30,0,1,,,,,,,,0,,,60,0
17310,note_on,0,0,2,,,,,,,,1,,,46,77
17310,note_on,30,0,2,,,,,,,,1,,,34,0
17340,note_on,0,0,2,,,,,,,,1,,,34,77
17340,note_on,30,0,2,,,,,,,,1,,,46,0
17370,note_on,30,0,2,,,,,,,,1,,,34,0
17370,note_on,0,0,2,,,,,,,,1,,,46,77
17400,note_on,30,0,2,,,,,,,,1,,,46,0
17400,note_on,0,0,2,,,,,,,,1,,,53,87
17400,note_on,0,0,2,,,,,,,,1,,,34,77
17400,note_on,0,0,2,,,,,,,,1,,,58,0
17430,note_on,30,0,2,,,,,,,,1,,,34,0
17430,note_on,0,0,2,,,,,,,,1,,,46,77
17460,note_on,0,0,2,,,,,,,,1,,,53,0
17460,note_on,0,0,2,,,,,,,,1,,,50,87
17460,note_on,0,0,2,,,,,,,,1,,,34,77
17460,note_on,30,0,2,,,,,,,,1,,,46,0
17490,note_on,30,0,2,,,,,,,,1,,,34,0
17490,note_on,0,0,2,,,,,,,,1,,,46,77
17520,note_on,30,0,2,,,,,,,,1,,,46,0
17520,note_on,0,0,2,,,,,,,,1,,,34,77
17550,note_on,30,0,2,,,,,,,,1,,,34,0
17550,note_on,0,0,2,,,,,,,,1,,,46,77
17580,note_on,0,0,2,,,,,,,,1,,,50,0
17580,note_on,30,0,2,,,,,,,,1,,,46,0
17580,note_on,0,0,2,,,,,,,,1,,,58,87
17580,note_on,0,0,2,,,,,,,,1,,,34,77
17610,note_on,30,0,2,,,,,,,,1,,,34,0
17610,note_on,0,0,2,,,,,,,,1,,,46,77
17640,note_on,0,0,2,,,,,,,,1,,,58,0
17640,note_on,0,0,2,,,,,,,,1,,,51,87
17640,note_on,0,0,2,,,,,,,,1,,,60,87
17640,note_on,30,0,2,,,,,,,,1,,,46,0
17640,note_on,0,0,2,,,,,,,,1,,,34,77
17670,note_on,0,0,2,,,,,,,,1,,,46,77
17670,note_on,30,0,2,,,,,,,,1,,,34,0
17700,note_on,30,0,2,,,,,,,,1,,,46,0
17700,note_on,0,0,2,,,,,,,,1,,,34,77
17730,note_on,30,0,2,,,,,,,,1,,,34,0
17730,note_on,0,0,2,,,,,,,,1,,,46,77
17760,note_on,30,0,2,,,,,,,,1,,,46,0
17760,note_on,0,0,2,,,,,,,,1,,,60,0
17760,note_on,0,0,2,,,,,,,,1,,,51,0
17760,note_on,0,0,2,,,,,,,,1,,,58,87
17760,note_on,0,0,2,,,,,,,,1,,,34,77
17790,note_on,30,0,2,,,,,,,,1,,,34,0
17790,note_on,0,0,2,,,,,,,,1,,,58,0
17790,note_on,0,0,2,,,,,,,,1,,,46,77
17805,note_on,15,0,2,,,,,,,,1,,,58,118
17820,note_on,0,0,2,,,,,,,,1,,,51,87
17820,note_on,0,0,2,,,,,,,,1,,,46,0
17820,note_on,0,0,2,,,,,,,,1,,,57,87
17820,note_on,0,0,2,,,,,,,,1,,,34,77
17820,note_on,15,0,2,,,,,,,,1,,,58,0
17850,note_on,30,0,2,,,,,,,,1,,,34,0
17850,note_on,0,0,2,,,,,,,,1,,,46,77
17880,note_on,30,0,2,,,,,,,,1,,,46,0
17880,note_on,0,0,2,,,,,,,,1,,,57,0
17880,note_on,0,0,2,,,,,,,,1,,,51,0
17880,note_on,0,0,2,,,,,,,,1,,,55,87
17880,note_on,0,0,2,,,,,,,,1,,,34,77
17910,note_on,0,0,2,,,,,,,,1,,,46,77
17910,note_on,30,0,2,,,,,,,,1,,,34,0
17940,note_on,0,0,2,,,,,,,,1,,,34,77
17940,note_on,0,0,2,,,,,,,,1,,,57,87
17940,note_on,0,0,2,,,,,,,,1,,,55,0
17940,note_on,30,0,2,,,,,,,,1,,,46,0
17970,note_on,30,0,2,,,,,,,,1,,,34,0
17970,note_on,0,0,2,,,,,,,,1,,,46,77
18000,note_on,30,0,2,,,,,,,,1,,,46,0
18000,note_on,0,0,2,,,,,,,,1,,,57,0
18000,note_on,0,0,2,,,,,,,,1,,,50,87
18000,note_on,0,0,2,,,,,,,,1,,,58,87
18000,note_on,0,0,2,,,,,,,,1,,,34,77
18030,note_on,30,0,2,,,,,,,,1,,,34,0
18030,note_on,0,0,2,,,,,,,,1,,,46,77
18060,note_on,30,0,2,,,,,,,,1,,,46,0
18060,note_on,0,0,2,,,,,,,,1,,,34,77
18090,note_on,0,0,2,,,,,,,,1,,,46,77
18090,note_on,30,0,2,,,,,,,,1,,,34,0
18120,note_on,0,0,2,,,,,,,,1,,,34,77
18120,note_on,0,0,2,,,,,,,,1,,,53,87
18120,note_on,0,0,2,,,,,,,,1,,,50,0
18120,note_on,0,0,2,,,,,,,,1,,,58,0
18120,note_on,30,0,2,,,,,,,,1,,,46,0
18150,note_on,0,0,2,,,,,,,,1,,,46,77
18150,note_on,30,0,2,,,,,,,,1,,,34,0
18180,note_on,30,0,2,,,,,,,,1,,,46,0
18180,note_on,0,0,2,,,,,,,,1,,,53,0
18180,note_on,0,0,2,,,,,,,,1,,,58,87
18180,note_on,0,0,2,,,,,,,,1,,,34,77
18210,note_on,30,0,2,,,,,,,,1,,,34,0
18210,note_on,0,0,2,,,,,,,,1,,,46,77
18240,note_on,30,0,2,,,,,,,,1,,,46,0
18240,note_on,0,0,2,,,,,,,,1,,,34,77
18270,note_on,30,0,2,,,,,,,,1,,,34,0
18270,note_on,0,0,2,,,,,,,,1,,,46,77
18300,note_on,0,0,2,,,,,,,,1,,,34,77
18300,note_on,30,0,2,,,,,,,,1,,,46,0
18300,note_on,0,0,2,,,,,,,,1,,,58,0
18300,note_on,0,0,2,,,,,,,,1,,,62,87
18330,note_on,30,0,2,,,,,,,,1,,,34,0
18330,note_on,0,0,2,,,,,,,,1,,,46,77
18360,note_on,30,0,2,,,,,,,,1,,,46,0
18360,note_on,0,0,2,,,,,,,,1,,,62,0
18360,note_on,0,0,2,,,,,,,,1,,,53,87
18360,note_on,0,0,2,,,,,,,,1,,,63,87
18360,note_on,0,0,2,,,,,,,,1,,,34,77
18390,note_on,30,0,2,,,,,,,,1,,,34,0
18390,note_on,0,0,2,,,,,,,,1,,,46,77
18420,note_on,0,0,2,,,,,,,,1,,,34,77
18420,note_on,30,0,2,,,,,,,,1,,,46,0
18450,note_on,30,0,2,,,,,,,,1,,,34,0
18450,note_on,0,0,2,,,,,,,,1,,,46,77
18480,note_on,30,0,2,,,,,,,,1,,,46,0
18480,note_on,0,0,2,,,,,,,,1,,,63,0
18480,note_on,0,0,2,,,,,,,,1,,,53,0
18480,note_on,0,0,2,,,,,,,,1,,,54,87
18480,note_on,0,0,2,,,,,,,,1,,,63,87
18480,note_on,0,0,2,,,,,,,,1,,,34,77
18510,note_on,30,0,2,,,,,,,,1,,,34,0
18510,note_on,0,0,2,,,,,,,,1,,,63,0
18510,note_on,0,0,2,,,,,,,,1,,,46,77
18525,note_on,15,0,2,,,,,,,,1,,,65,121
18540,note_on,15,0,2,,,,,,,,1,,,65,0
18540,note_on,0,0,2,,,,,,,,1,,,55,87
18540,note_on,0,0,2,,,,,,,,1,,,54,0
18540,note_on,0,0,2,,,,,,,,1,,,63,87
18540,note_on,0,0,2,,,,,,,,1,,,34,77
18540,note_on,0,0,2,,,,,,,,1,,,46,0
18570,note_on,30,0,2,,,,,,,,1,,,34,0
18570,note_on,0,0,2,,,,,,,,1,,,46,77
18600,note_on,0,0,2,,,,,,,,1,,,34,77
18600,note_on,0,0,2,,,,,,,,1,,,62,87
18600,note_on,0,0,2,,,,,,,,1,,,55,0
18600,note_on,0,0,2,,,,,,,,1,,,63,0
18600,note_on,30,0,2,,,,,,,,1,,,46,0
18630,note_on,0,0,2,,,,,,,,1,,,46,77
18630,note_on,30,0,2,,,,,,,,1,,,34,0
18660,note_on,30,0,2,,,,,,,,1,,,46,0
18660,note_on,0,0,2,,,,,,,,1,,,34,77
18660,note_on,0,0,2,,,,,,,,1,,,63,87
18660,note_on,0,0,2,,,,,,,,1,,,57,87
18660,note_on,0,0,2,,,,,,,,1,,,62,0
18690,note_on,0,0,2,,,,,,,,1,,,46,77
18690,note_on,30,0,2,,,,,,,,1,,,34,0
18720,note_on,0,0,2,,,,,,,,1,,,34,77
18720,note_on,0,0,2,,,,,,,,1,,,57,0
18720,note_on,0,0,2,,,,,,,,1,,,63,0
18720,note_on,30,0,2,,,,,,,,1,,,46,0
18720,note_on,1440,0,1,,,,,,,,0,,,62,88
18720,note_on,0,0,1,,,,,,,,0,,,65,88
18750,note_on,0,0,2,,,,,,,,1,,,46,77
18750,note_on,30,0,2,,,,,,,,1,,,34,0
18780,note_on,30,0,2,,,,,,,,1,,,46,0
18780,note_on,0,0,2,,,,,,,,1,,,34,77
18810,note_on,0,0,2,,,,,,,,1,,,46,77
18810,note_on,30,0,2,,,,,,,,1,,,34,0
18840,note_on,0,0,1,,,,,,,,0,,,62,0
18840,note_on,120,0,1,,,,,,,,0,,,65,0
18840,note_on,30,0,2,,,,,,,,1,,,46,0
18840,note_on,0,0,2,,,,,,,,1,,,34,77
18840,note_on,0,0,1,,,,,,,,0,,,62,88
18840,note_on,0,0,1,,,,,,,,0,,,65,88
18870,note_on,30,0,2,,,,,,,,1,,,34,0
18870,note_on,0,0,2,,,,,,,,1,,,46,77
18900,note_on,60,0,1,,,,,,,,0,,,65,0
18900,note_on,0,0,1,,,,,,,,0,,,62,0
18900,note_on,0,0,1,,,,,,,,0,,,70,88
18900,note_on,30,0,2,,,,,,,,1,,,46,0
18900,note_on,0,0,1,,,,,,,,0,,,65,88
18900,note_on,0,0,2,,,,,,,,1,,,34,78
18930,note_on,30,0,2,,,,,,,,1,,,34,0
18930,note_on,0,0,2,,,,,,,,1,,,46,79
18960,note_on,30,0,2,,,,,,,,1,,,46,0
18960,note_on,0,0,2,,,,,,,,1,,,34,79
18990,note_on,30,0,2,,,,,,,,1,,,34,0
18990,note_on,0,0,2,,,,,,,,1,,,46,79
19020,note_on,30,0,2,,,,,,,,1,,,46,0
19020,note_on,0,0,2,,,,,,,,1,,,34,79
19020,note_on,120,0,1,,,,,,,,0,,,65,0
19020,note_on,0,0,1,,,,,,,,0,,,70,0
19020,note_on,0,0,1,,,,,,,,0,,,74,88
19020,note_on,0,0,1,,,,,,,,0,,,70,88
19050,note_on,0,0,2,,,,,,,,1,,,46,79
19050,note_on,30,0,2,,,,,,,,1,,,34,0
19080,note_on,0,0,1,,,,,,,,0,,,75,88
19080,note_on,0,0,1,,,,,,,,0,,,65,88
19080,note_on,0,0,1,,,,,,,,0,,,70,0
19080,note_on,60,0,1,,,,,,,,0,,,74,0
19080,note_on,30,0,2,,,,,,,,1,,,46,0
19080,note_on,0,0,2,,,,,,,,1,,,34,79
19110,note_on,0,0,2,,,,,,,,1,,,46,78
19110,note_on,30,0,2,,,,,,,,1,,,34,0
19140,note_on,0,0,2,,,,,,,,1,,,34,77
19140,note_on,30,0,2,,,,,,,,1,,,46,0
19170,note_on,30,0,2,,,,,,,,1,,,34,0
19170,note_on,0,0,2,,,,,,,,1,,,46,76
19200,note_on,120,0,1,,,,,,,,0,,,75,0
19200,note_on,0,0,1,,,,,,,,0,,,65,0
19200,note_on,0,0,1,,,,,,,,0,,,75,88
19200,note_on,0,0,2,,,,,,,,1,,,34,75
19200,note_on,30,0,2,,,,,,,,1,,,46,0
19200,note_on,0,0,1,,,,,,,,0,,,66,88
19230,note_on,0,0,2,,,,,,,,1,,,46,75
19230,note_on,30,0,1,,,,,,,,0,,,75,0
19230,note_on,30,0,2,,,,,,,,1,,,34,0
19245,note_on,15,0,1,,,,,,,,0,,,77,88
19260,note_on,30,0,2,,,,,,,,1,,,46,0
19260,note_on,0,0,1,,,,,,,,0,,,75,88
19260,note_on,15,0,1,,,,,,,,0,,,77,0
19260,note_on,0,0,1,,,,,,,,0,,,66,0
19260,note_on,0,0,1,,,,,,,,0,,,66,88
19260,note_on,0,0,2,,,,,,,,1,,,34,74
19290,note_on,30,0,2,,,,,,,,1,,,34,0
19290,note_on,0,0,2,,,,,,,,1,,,46,73
19320,note_on,0,0,1,,,,,,,,0,,,74,88
19320,note_on,0,0,1,,,,,,,,0,,,66,0
19320,note_on,60,0,1,,,,,,,,0,,,75,0
19320,note_on,30,0,2,,,,,,,,1,,,46,0
19320,note_on,0,0,2,,,,,,,,1,,,34,73
19350,note_on,0,0,2,,,,,,,,1,,,46,73
19350,note_on,30,0,2,,,,,,,,1,,,34,0
19380,note_on,0,0,1,,,,,,,,0,,,75,88
19380,note_on,0,0,1,,,,,,,,0,,,69,88
19380,note_on,60,0,1,,,,,,,,0,,,74,0
19380,note_on,30,0,2,,,,,,,,1,,,46,0
19380,note_on,0,0,2,,,,,,,,1,,,34,73
19410,note_on,30,0,2,,,,,,,,1,,,34,0
19410,note_on,0,0,2,,,,,,,,1,,,46,72
19440,note_on,0,0,1,,,,,,,,0,,,74,88
19440,note_on,0,0,1,,,,,,,,0,,,70,88
19440,note_on,0,0,2,,,,,,,,1,,,34,72
19440,note_on,30,0,2,,,,,,,,1,,,46,0
19440,note_on,0,0,1,,,,,,,,0,,,69,0
19440,note_on,60,0,1,,,,,,,,0,,,75,0
19470,note_on,0,0,2,,,,,,,,1,,,46,72
19470,note_on,30,0,2,,,,,,,,1,,,34,0
19500,note_on,0,0,2,,,,,,,,1,,,34,72
19500,note_on,30,0,2,,,,,,,,1,,,46,0
19530,note_on,30,0,2,,,,,,,,1,,,34,0
19530,note_on,0,0,2,,,,,,,,1,,,46,72
19560,note_on,0,0,1,,,,,,,,0,,,77,88
19560,note_on,120,0,1,,,,,,,,0,,,74,0
19560,note_on,0,0,1,,,,,,,,0,,,74,88
19560,note_on,30,0,2,,,,,,,,1,,,46,0
19560,note_on,0,0,2,,,,,,,,1,,,34,72
19560,note_on,0,0,1,,,,,,,,0,,,70,0
19590,note_on,30,0,2,,,,,,,,1,,,34,0
19590,note_on,0,0,2,,,,,,,,1,,,46,72
19620,note_on,30,0,2,,,,,,,,1,,,46,0
19620,note_on,0,0,2,,,,,,,,1,,,34,72
19620,note_on,0,0,1,,,,,,,,0,,,74,88
19620,note_on,0,0,1,,,,,,,,0,,,82,88
19620,note_on,0,0,1,,,,,,,,0,,,74,0
19620,note_on,60,0,1,,,,,,,,0,,,77,0
19650,note_on,30,0,2,,,,,,,,1,,,34,0
19650,note_on,0,0,2,,,,,,,,1,,,46,72
19680,note_on,0,0,2,,,,,,,,1,,,34,72
19680,note_on,30,0,2,,,,,,,,1,,,46,0
19710,note_on,30,0,2,,,,,,,,1,,,34,0
19710,note_on,0,0,2,,,,,,,,1,,,46,72
19740,note_on,0,0,1,,,,,,,,0,,,82,0
19740,note_on,120,0,1,,,,,,,,0,,,74,0
19740,note_on,0,0,1,,,,,,,,0,,,81,88
19740,note_on,0,0,1,,,,,,,,0,,,77,88
19740,note_on,30,0,2,,,,,,,,1,,,46,0
19740,note_on,0,0,2,,,,,,,,1,,,34,72
19770,note_on,30,0,2,,,,,,,,1,,,34,0
19770,note_on,0,0,2,,,,,,,,1,,,46,72
19800,note_on,0,0,1,,,,,,,,0,,,79,88
19800,note_on,0,0,2,,,,,,,,1,,,34,72
19800,note_on,30,0,2,,,,,,,,1,,,46,0
19800,note_on,60,0,1,,,,,,,,0,,,81,0
19800,note_on,0,0,1,,,,,,,,0,,,77,0
19800,note_on,0,0,1,,,,,,,,0,,,75,88
19830,note_on,0,0,2,,,,,,,,1,,,46,73
19830,note_on,30,0,2,,,,,,,,1,,,34,0
19860,note_on,0,0,2,,,,,,,,1,,,34,74
19860,note_on,30,0,2,,,,,,,,1,,,46,0
19890,note_on,0,0,2,,,,,,,,1,,,46,74
19890,note_on,30,0,2,,,,,,,,1,,,34,0
19920,note_on,120,0,1,,,,,,,,0,,,75,0
19920,note_on,0,0,2,,,,,,,,1,,,34,73
19920,note_on,0,0,1,,,,,,,,0,,,72,88
19920,note_on,0,0,1,,,,,,,,0,,,84,88
19920,note_on,0,0,1,,,,,,,,0,,,79,0
19920,note_on,30,0,2,,,,,,,,1,,,46,0
19950,note_on,30,0,2,,,,,,,,1,,,34,0
19950,note_on,30,0,1,,,,,,,,0,,,84,0
19950,note_on,0,0,2,,,,,,,,1,,,46,76
19965,note_on,15,0,1,,,,,,,,0,,,82,88
19980,note_on,30,0,2,,,,,,,,1,,,46,0
19980,note_on,0,0,1,,,,,,,,0,,,81,88
19980,note_on,15,0,1,,,,,,,,0,,,82,0
19980,note_on,0,0,1,,,,,,,,0,,,72,0
19980,note_on,0,0,2,,,,,,,,1,,,34,75
19980,note_on,0,0,1,,,,,,,,0,,,75,88
20010,note_on,30,0,2,,,,,,,,1,,,34,0
20010,note_on,0,0,2,,,,,,,,1,,,46,75
20040,note_on,0,0,2,,,,,,,,1,,,34,75
20040,note_on,60,0,1,,,,,,,,0,,,75,0
20040,note_on,30,0,2,,,,,,,,1,,,46,0
20040,note_on,0,0,1,,,,,,,,0,,,81,0
20040,note_on,0,0,1,,,,,,,,0,,,79,88
20070,note_on,30,0,2,,,,,,,,1,,,34,0
20070,note_on,0,0,2,,,,,,,,1,,,46,75
20100,note_on,60,0,1,,,,,,,,0,,,79,0
20100,note_on,0,0,2,,,,,,,,1,,,34,75
20100,note_on,0,0,1,,,,,,,,0,,,81,88
20100,note_on,30,0,2,,,,,,,,1,,,46,0
20130,note_on,30,0,2,,,,,,,,1,,,34,0
20130,note_on,0,0,2,,,,,,,,1,,,46,76
20160,note_on,0,0,1,,,,,,,,0,,,82,88
20160,note_on,30,0,2,,,,,,,,1,,,46,0
20160,note_on,0,0,1,,,,,,,,0,,,74,88
20160,note_on,0,0,2,,,,,,,,1,,,34,76
20160,note_on,60,0,1,,,,,,,,0,,,81,0
20190,note_on,0,0,2,,,,,,,,1,,,46,76
20190,note_on,30,0,2,,,,,,,,1,,,34,0
20220,note_on,30,0,2,,,,,,,,1,,,46,0
20220,note_on,0,0,2,,,,,,,,1,,,34,76
20250,note_on,30,0,2,,,,,,,,1,,,34,0
20250,note_on,0,0,2,,,,,,,,1,,,46,77
20280,note_on,0,0,2,,,,,,,,1,,,34,77
20280,note_on,120,0,1,,,,,,,,0,,,74,0
20280,note_on,0,0,1,,,,,,,,0,,,82,0
20280,note_on,0,0,1,,,,,,,,0,,,77,88
20280,note_on,30,0,2,,,,,,,,1,,,46,0
20310,note_on,30,0,2,,,,,,,,1,,,34,0
20310,note_on,0,0,2,,,,,,,,1,,,46,77
20340,note_on,0,0,1,,,,,,,,0,,,82,88
20340,note_on,60,0,1,,,,,,,,0,,,77,0
20340,note_on,30,0,2,,,,,,,,1,,,46,0
20340,note_on,0,0,2,,,,,,,,1,,,34,76
20370,note_on,0,0,2,,,,,,,,1,,,46,76
20370,note_on,30,0,2,,,,,,,,1,,,34,0
20400,note_on,30,0,2,,,,,,,,1,,,46,0
20400,note_on,0,0,2,,,,,,,,1,,,34,75
20430,note_on,30,0,2,,,,,,,,1,,,34,0
20430,note_on,0,0,2,,,,,,,,1,,,46,75
20460,note_on,120,0,1,,,,,,,,0,,,82,0
20460,note_on,30,0,2,,,,,,,,1,,,46,0
20460,note_on,0,0,2,,,,,,,,1,,,34,74
20460,note_on,0,0,1,,,,,,,,0,,,86,88
20490,note_on,30,0,2,,,,,,,,1,,,34,0
20490,note_on,0,0,2,,,,,,,,1,,,46,74
20520,note_on,60,0,1,,,,,,,,0,,,86,0
20520,note_on,0,0,1,,,,,,,,0,,,79,88
20520,note_on,0,0,1,,,,,,,,0,,,75,88
20520,note_on,30,0,2,,,,,,,,1,,,46,0
20520,note_on,0,0,2,,,,,,,,1,,,34,74
20550,note_on,30,0,2,,,,,,,,1,,,34,0
20550,note_on,0,0,2,,,,,,,,1,,,46,74
20580,note_on,30,0,2,,,,,,,,1,,,46,0
20580,note_on,0,0,2,,,,,,,,1,,,34,74
20610,note_on,30,0,2,,,,,,,,1,,,34,0
20610,note_on,0,0,2,,,,,,,,1,,,46,74
20640,note_on,0,0,1,,,,,,,,0,,,72,88
20640,note_on,0,0,1,,,,,,,,0,,,84,88
20640,note_on,30,0,2,,,,,,,,1,,,46,0
20640,note_on,0,0,1,,,,,,,,0,,,79,0
20640,note_on,0,0,2,,,,,,,,1,,,34,74
20640,note_on,120,0,1,,,,,,,,0,,,75,0
20670,note_on,30,0,2,,,,,,,,1,,,34,0
20670,note_on,0,0,2,,,,,,,,1,,,46,74
20670,note_on,30,0,1,,,,,,,,0,,,84,0
20685,note_on,15,0,1,,,,,,,,0,,,82,88
20700,note_on,0,0,1,,,,,,,,0,,,72,0
20700,note_on,15,0,1,,,,,,,,0,,,82,0
20700,note_on,0,0,1,,,,,,,,0,,,81,88
20700,note_on,0,0,2,,,,,,,,1,,,34,73
20700,note_on,0,0,1,,,,,,,,0,,,75,88
20700,note_on,30,0,2,,,,,,,,1,,,46,0
20730,note_on,0,0,2,,,,,,,,1,,,46,73
20730,note_on,30,0,2,,,,,,,,1,,,34,0
20760,note_on,60,0,1,,,,,,,,0,,,75,0
20760,note_on,0,0,1,,,,,,,,0,,,81,0
20760,note_on,0,0,2,,,,,,,,1,,,34,72
20760,note_on,30,0,2,,,,,,,,1,,,46,0
20760,note_on,0,0,1,,,,,,,,0,,,79,88
20790,note_on,0,0,2,,,,,,,,1,,,46,72
20790,note_on,30,0,2,,,,,,,,1,,,34,0
20820,note_on,30,0,2,,,,,,,,1,,,46,0
20820,note_on,60,0,1,,,,,,,,0,,,79,0
20820,note_on,0,0,1,,,,,,,,0,,,81,88
20820,note_on,0,0,2,,,,,,,,1,,,34,72
20850,note_on,0,0,2,,,,,,,,1,,,46,71
20850,note_on,30,0,2,,,,,,,,1,,,34,0
20880,note_on,30,0,2,,,,,,,,1,,,46,0
20880,note_on,60,0,1,,,,,,,,0,,,81,0
20880,note_on,0,0,1,,,,,,,,0,,,67,63
20910,note_on,30,0,1,,,,,,,,0,,,67,0
20910,note_on,0,0,1,,,,,,,,0,,,82,56
20940,note_on,30,0,1,,,,,,,,0,,,82,0
20940,note_on,0,0,1,,,,,,,,0,,,67,56
20970,note_on,0,0,1,,,,,,,,0,,,82,56
20970,note_on,30,0,1,,,,,,,,0,,,67,0
21000,note_on,0,0,1,,,,,,,,0,,,67,57
21000,note_on,30,0,1,,,,,,,,0,,,82,0
21030,note_on,30,0,1,,,,,,,,0,,,67,0
21030,note_on,0,0,1,,,,,,,,0,,,82,57
21060,note_on,30,0,1,,,,,,,,0,,,82,0
21060,note_on,0,0,1,,,,,,,,0,,,67,57
21090,note_on,30,0,1,,,,,,,,0,,,67,0
21090,note_on,0,0,1,,,,,,,,0,,,82,56
21120,note_on,30,0,1,,,,,,,,0,,,82,0
21120,note_on,0,0,1,,,,,,,,0,,,67,56
21150,note_on,30,0,1,,,,,,,,0,,,67,0
21150,note_on,0,0,1,,,,,,,,0,,,82,55
21180,note_on,30,0,1,,,,,,,,0,,,82,0
21180,note_on,0,0,1,,,,,,,,0,,,67,55
21210,note_on,30,0,1,,,,,,,,0,,,67,0
21210,note_on,0,0,1,,,,,,,,0,,,82,55
21240,note_on,30,0,1,,,,,,,,0,,,82,0
21240,note_on,0,0,2,,,,,,,,1,,,68,72
21240,note_on,360,0,2,,,,,,,,1,,,65,72
21240,note_on,0,0,1,,,,,,,,0,,,67,55
21270,note_on,0,0,1,,,,,,,,0,,,82,55
21270,note_on,30,0,1,,,,,,,,0,,,67,0
21300,note_on,30,0,1,,,,,,,,0,,,82,0
21300,note_on,0,0,1,,,,,,,,0,,,67,54
21300,note_on,0,0,2,,,,,,,,1,,,67,72
21300,note_on,0,0,2,,,,,,,,1,,,63,72
21300,note_on,0,0,2,,,,,,,,1,,,65,0
21300,note_on,60,0,2,,,,,,,,1,,,68,0
21330,note_on,30,0,1,,,,,,,,0,,,67,0
21330,note_on,0,0,1,,,,,,,,0,,,82,54
21360,note_on,30,0,1,,,,,,,,0,,,82,0
21360,note_on,0,0,1,,,,,,,,0,,,67,54
21360,note_on,0,0,2,,,,,,,,1,,,65,72
21360,note_on,0,0,2,,,,,,,,1,,,62,72
21360,note_on,0,0,2,,,,,,,,1,,,63,0
21360,note_on,60,0,2,,,,,,,,1,,,67,0
21390,note_on,30,0,1,,,,,,,,0,,,67,0
21390,note_on,0,0,1,,,,,,,,0,,,82,54
21420,note_on,0,0,2,,,,,,,,1,,,62,0
21420,note_on,0,0,2,,,,,,,,1,,,62,72
21420,note_on,0,0,2,,,,,,,,1,,,65,72
21420,note_on,60,0,2,,,,,,,,1,,,65,0
21420,note_on,30,0,1,,,,,,,,0,,,82,0
21420,note_on,0,0,1,,,,,,,,0,,,67,54
21450,note_on,30,0,1,,,,,,,,0,,,67,0
21450,note_on,0,0,1,,,,,,,,0,,,82,55
21480,note_on,30,0,1,,,,,,,,0,,,82,0
21480,note_on,0,0,1,,,,,,,,0,,,67,55
21510,note_on,30,0,1,,,,,,,,0,,,67,0
21510,note_on,0,0,1,,,,,,,,0,,,82,56
21540,note_on,30,0,1,,,,,,,,0,,,82,0
21540,note_on,0,0,1,,,,,,,,0,,,67,56
21540,note_on,0,0,2,,,,,,,,1,,,62,0
21540,note_on,120,0,2,,,,,,,,1,,,65,0
21570,note_on,30,0,1,,,,,,,,0,,,67,0
21570,note_on,0,0,1,,,,,,,,0,,,82,56
21600,note_on,0,0,1,,,,,,,,0,,,67,56
21600,note_on,0,0,2,,,,,,,,1,,,67,72
21600,note_on,60,0,2,,,,,,,,1,,,63,72
21600,note_on,30,0,1,,,,,,,,0,,,82,0
21630,note_on,30,0,1,,,,,,,,0,,,67,0
21630,note_on,0,0,1,,,,,,,,0,,,82,56
21660,note_on,0,0,2,,,,,,,,1,,,58,72
21660,note_on,60,0,2,,,,,,,,1,,,67,0
21660,note_on,0,0,2,,,,,,,,1,,,65,72
21660,note_on,0,0,2,,,,,,,,1,,,63,0
21660,note_on,30,0,1,,,,,,,,0,,,82,0
21660,note_on,0,0,1,,,,,,,,0,,,67,56
21690,note_on,30,0,1,,,,,,,,0,,,67,0
21690,note_on,0,0,1,,,,,,,,0,,,82,56
21720,note_on,0,0,2,,,,,,,,1,,,63,72
21720,note_on,0,0,2,,,,,,,,1,,,55,72
21720,note_on,0,0,2,,,,,,,,1,,,58,0
21720,note_on,60,0,2,,,,,,,,1,,,65,0
21720,note_on,30,0,1,,,,,,,,0,,,82,0
21720,note_on,0,0,1,,,,,,,,0,,,67,56
21750,note_on,0,0,1,,,,,,,,0,,,82,56
21750,note_on,30,0,1,,,,,,,,0,,,67,0
21780,note_on,0,0,2,,,,,,,,1,,,63,72
21780,note_on,0,0,2,,,,,,,,1,,,55,72
21780,note_on,60,0,2,,,,,,,,1,,,63,0
21780,note_on,0,0,2,,,,,,,,1,,,55,0
21780,note_on,30,0,1,,,,,,,,0,,,82,0
21780,note_on,0,0,1,,,,,,,,0,,,67,55
21810,note_on,30,0,1,,,,,,,,0,,,67,0
21810,note_on,0,0,1,,,,,,,,0,,,82,55
21840,note_on,0,0,1,,,,,,,,0,,,67,56
21840,note_on,30,0,1,,,,,,,,0,,,82,0
21870,note_on,0,0,1,,,,,,,,0,,,82,56
21870,note_on,30,0,1,,,,,,,,0,,,67,0
21900,note_on,0,0,2,,,,,,,,1,,,58,72
21900,note_on,0,0,2,,,,,,,,1,,,55,0
21900,note_on,120,0,2,,,,,,,,1,,,63,0
21900,note_on,0,0,1,,,,,,,,0,,,67,57
21900,note_on,30,0,1,,,,,,,,0,,,82,0
21900,note_on,0,0,2,,,,,,,,1,,,65,72
21930,note_on,0,0,1,,,,,,,,0,,,82,57
21930,note_on,30,0,1,,,,,,,,0,,,67,0
21960,note_on,0,0,2,,,,,,,,1,,,58,0
21960,note_on,30,0,1,,,,,,,,0,,,82,0
21960,note_on,0,0,2,,,,,,,,1,,,67,72
21960,note_on,0,0,1,,,,,,,,0,,,67,58
21960,note_on,0,0,2,,,,,,,,1,,,63,72
21960,note_on,60,0,2,,,,,,,,1,,,65,0
21990,note_on,30,0,1,,,,,,,,0,,,67,0
21990,note_on,0,0,1,,,,,,,,0,,,82,58
22020,note_on,30,0,1,,,,,,,,0,,,82,0
22020,note_on,0,0,1,,,,,,,,0,,,67,58
22050,note_on,0,0,1,,,,,,,,0,,,82,59
22050,note_on,30,0,1,,,,,,,,0,,,67,0
22080,note_on,0,0,2,,,,,,,,1,,,65,72
22080,note_on,0,0,1,,,,,,,,0,,,67,59
22080,note_on,0,0,2,,,,,,,,1,,,63,0
22080,note_on,120,0,2,,,,,,,,1,,,67,0
22080,note_on,30,0,1,,,,,,,,0,,,82,0
22080,note_on,0,0,2,,,,,,,,1,,,58,72
22110,note_on,30,0,1,,,,,,,,0,,,67,0
22110,note_on,0,0,1,,,,,,,,0,,,82,59
22140,note_on,60,0,2,,,,,,,,1,,,65,0
22140,note_on,0,0,2,,,,,,,,1,,,58,0
22140,note_on,0,0,2,,,,,,,,1,,,63,72
22140,note_on,0,0,2,,,,,,,,1,,,67,72
22140,note_on,30,0,1,,,,,,,,0,,,82,0
22140,note_on,0,0,1,,,,,,,,0,,,67,59
22170,note_on,0,0,1,,,,,,,,0,,,82,59
22170,note_on,30,0,1,,,,,,,,0,,,67,0
22200,note_on,0,0,1,,,,,,,,0,,,67,60
22200,note_on,30,0,1,,,,,,,,0,,,82,0
22230,note_on,30,0,1,,,,,,,,0,,,67,0
22230,note_on,0,0,1,,,,,,,,0,,,82,60
22260,note_on,30,0,1,,,,,,,,0,,,82,0
22260,note_on,0,0,1,,,,,,,,0,,,67,60
22260,note_on,0,0,2,,,,,,,,1,,,68,72
22260,note_on,0,0,2,,,,,,,,1,,,65,72
22260,note_on,0,0,2,,,,,,,,1,,,63,0
22260,note_on,120,0,2,,,,,,,,1,,,67,0
22290,note_on,30,0,1,,,,,,,,0,,,67,0
22290,note_on,0,0,1,,,,,,,,0,,,82,59
22320,note_on,0,0,2,,,,,,,,1,,,65,0
22320,note_on,0,0,2,,,,,,,,1,,,58,72
22320,note_on,0,0,2,,,,,,,,1,,,65,72
22320,note_on,30,0,1,,,,,,,,0,,,82,0
22320,note_on,0,0,1,,,,,,,,0,,,67,59
22320,note_on,60,0,2,,,,,,,,1,,,68,0
22350,note_on,30,0,1,,,,,,,,0,,,67,0
22350,note_on,0,0,1,,,,,,,,0,,,82,58
22380,note_on,30,0,1,,,,,,,,0,,,82,0
22380,note_on,0,0,1,,,,,,,,0,,,67,58
22410,note_on,0,0,1,,,,,,,,0,,,82,58
22410,note_on,30,0,1,,,,,,,,0,,,67,0
22440,note_on,30,0,1,,,,,,,,0,,,82,0
22440,note_on,0,0,1,,,,,,,,0,,,67,57
22440,note_on,120,0,2,,,,,,,,1,,,65,0
22440,note_on,0,0,2,,,,,,,,1,,,58,0
22470,note_on,0,0,1,,,,,,,,0,,,82,57
22470,note_on,30,0,1,,,,,,,,0,,,67,0
22500,note_on,0,0,1,,,,,,,,0,,,67,56
22500,note_on,30,0,1,,,,,,,,0,,,82,0
22530,note_on,0,0,1,,,,,,,,0,,,82,56
22530,note_on,30,0,1,,,,,,,,0,,,67,0
22560,note_on,0,0,1,,,,,,,,0,,,67,55
22560,note_on,30,0,1,,,,,,,,0,,,82,0
22590,note_on,30,0,1,,,,,,,,0,,,67,0
22590,note_on,0,0,1,,,,,,,,0,,,82,55
22620,note_on,30,0,1,,,,,,,,0,,,82,0
22620,note_on,0,0,1,,,,,,,,0,,,67,55
22650,note_on,30,0,1,,,,,,,,0,,,67,0
22650,note_on,0,0,1,,,,,,,,0,,,82,54
22680,note_on,0,0,2,,,,,,,,1,,,68,69
22680,note_on,240,0,2,,,,,,,,1,,,65,69
22680,note_on,30,0,1,,,,,,,,0,,,82,0
22680,note_on,0,0,1,,,,,,,,0,,,67,54
22710,note_on,30,0,1,,,,,,,,0,,,67,0
22710,note_on,0,0,1,,,,,,,,0,,,82,54
22740,note_on,0,0,2,,,,,,,,1,,,67,76
22740,note_on,0,0,1,,,,,,,,0,,,67,54
22740,note_on,30,0,1,,,,,,,,0,,,82,0
22740,note_on,0,0,2,,,,,,,,1,,,63,76
22740,note_on,0,0,2,,,,,,,,1,,,65,0
22740,note_on,60,0,2,,,,,,,,1,,,68,0
22770,note_on,30,0,1,,,,,,,,0,,,67,0
22770,note_on,0,0,1,,,,,,,,0,,,82,54
22800,note_on,30,0,1,,,,,,,,0,,,82,0
22800,note_on,0,0,1,,,,,,,,0,,,67,53
22800,note_on,0,0,2,,,,,,,,1,,,63,0
22800,note_on,0,0,2,,,,,,,,1,,,62,80
22800,note_on,0,0,2,,,,,,,,1,,,65,80
22800,note_on,60,0,2,,,,,,,,1,,,67,0
22830,note_on,30,0,1,,,,,,,,0,,,67,0
22830,note_on,0,0,1,,,,,,,,0,,,82,53
22860,note_on,0,0,2,,,,,,,,1,,,62,0
22860,note_on,0,0,2,,,,,,,,1,,,62,82
22860,note_on,30,0,1,,,,,,,,0,,,82,0
22860,note_on,0,0,1,,,,,,,,0,,,67,53
22860,note_on,0,0,2,,,,,,,,1,,,65,82
22860,note_on,60,0,2,,,,,,,,1,,,65,0
22890,note_on,30,0,1,,,,,,,,0,,,67,0
22890,note_on,0,0,1,,,,,,,,0,,,82,53
22920,note_on,30,0,1,,,,,,,,0,,,82,0
22920,note_on,0,0,1,,,,,,,,0,,,67,54
22950,note_on,0,0,1,,,,,,,,0,,,82,55
22950,note_on,30,0,1,,,,,,,,0,,,67,0
22980,note_on,0,0,1,,,,,,,,0,,,67,55
22980,note_on,30,0,1,,,,,,,,0,,,82,0
22980,note_on,120,0,2,,,,,,,,1,,,65,0
22980,note_on,0,0,2,,,,,,,,1,,,62,0
23010,note_on,0,0,1,,,,,,,,0,,,82,55
23010,note_on,30,0,1,,,,,,,,0,,,67,0
23040,note_on,30,0,1,,,,,,,,0,,,82,0
23040,note_on,0,0,1,,,,,,,,0,,,67,54
23040,note_on,0,0,2,,,,,,,,1,,,67,71
23040,note_on,60,0,2,,,,,,,,1,,,63,71
23070,note_on,30,0,1,,,,,,,,0,,,67,0
23070,note_on,0,0,1,,,,,,,,0,,,82,54
23100,note_on,0,0,2,,,,,,,,1,,,65,79
23100,note_on,0,0,2,,,,,,,,1,,,58,79
23100,note_on,0,0,2,,,,,,,,1,,,63,0
23100,note_on,60,0,2,,,,,,,,1,,,67,0
23100,note_on,30,0,1,,,,,,,,0,,,82,0
23100,note_on,0,0,1,,,,,,,,0,,,67,54
23130,note_on,0,0,1,,,,,,,,0,,,82,54
23130,note_on,30,0,1,,,,,,,,0,,,67,0
23160,note_on,0,0,1,,,,,,,,0,,,67,53
23160,note_on,30,0,1,,,,,,,,0,,,82,0
23160,note_on,60,0,2,,,,,,,,1,,,65,0
23160,note_on,0,0,2,,,,,,,,1,,,58,0
23160,note_on,0,0,2,,,,,,,,1,,,55,84
23160,note_on,0,0,2,,,,,,,,1,,,63,84
23190,note_on,0,0,1,,,,,,,,0,,,82,53
23190,note_on,30,0,1,,,,,,,,0,,,67,0
23220,note_on,0,0,2,,,,,,,,1,,,63,87
23220,note_on,30,0,1,,,,,,,,0,,,82,0
23220,note_on,0,0,2,,,,,,,,1,,,55,87
23220,note_on,60,0,2,,,,,,,,1,,,63,0
23220,note_on,0,0,2,,,,,,,,1,,,55,0
23220,note_on,0,0,1,,,,,,,,0,,,67,53
23250,note_on,0,0,1,,,,,,,,0,,,82,53
23250,note_on,30,0,1,,,,,,,,0,,,67,0
23280,note_on,30,0,1,,,,,,,,0,,,82,0
23280,note_on,0,0,1,,,,,,,,0,,,67,54
23310,note_on,30,0,1,,,,,,,,0,,,67,0
23310,note_on,0,0,1,,,,,,,,0,,,82,55
23340,note_on,30,0,1,,,,,,,,0,,,82,0
23340,note_on,0,0,1,,,,,,,,0,,,67,55
23340,note_on,0,0,2,,,,,,,,1,,,55,0
23340,note_on,0,0,2,,,,,,,,1,,,58,82
23340,note_on,0,0,2,,,,,,,,1,,,65,82
23340,note_on,120,0,2,,,,,,,,1,,,63,0
23370,note_on,30,0,1,,,,,,,,0,,,67,0
23370,note_on,0,0,1,,,,,,,,0,,,82,55
23400,note_on,60,0,2,,,,,,,,1,,,65,0
23400,note_on,0,0,2,,,,,,,,1,,,58,0
23400,note_on,0,0,2,,,,,,,,1,,,63,76
23400,note_on,0,0,2,,,,,,,,1,,,67,76
23400,note_on,0,0,1,,,,,,,,0,,,67,55
23400,note_on,30,0,1,,,,,,,,0,,,82,0
23430,note_on,30,0,1,,,,,,,,0,,,67,0
23430,note_on,0,0,1,,,,,,,,0,,,82,55
23460,note_on,30,0,1,,,,,,,,0,,,82,0
23460,note_on,0,0,1,,,,,,,,0,,,67,55
23490,note_on,0,0,1,,,,,,,,0,,,82,55
23490,note_on,30,0,1,,,,,,,,0,,,67,0
23520,note_on,0,0,2,,,,,,,,1,,,63,0
23520,note_on,120,0,2,,,,,,,,1,,,67,0
23520,note_on,0,0,2,,,,,,,,1,,,67,77
23520,note_on,0,0,1,,,,,,,,0,,,67,55
23520,note_on,30,0,1,,,,,,,,0,,,82,0
23520,note_on,0,0,2,,,,,,,,1,,,63,77
23550,note_on,0,0,1,,,,,,,,0,,,82,55
23550,note_on,30,0,1,,,,,,,,0,,,67,0
23580,note_on,30,0,1,,,,,,,,0,,,82,0
23580,note_on,0,0,2,,,,,,,,1,,,65,71
23580,note_on,0,0,2,,,,,,,,1,,,62,71
23580,note_on,60,0,2,,,,,,,,1,,,67,0
23580,note_on,0,0,1,,,,,,,,0,,,79,55
23580,note_on,0,0,1,,,,,,,,0,,,82,55
23580,note_on,0,0,2,,,,,,,,1,,,63,0
23640,note_on,0,0,1,,,,,,,,0,,,80,55
23640,note_on,0,0,1,,,,,,,,0,,,77,55
23640,note_on,60,0,1,,,,,,,,0,,,79,0
23640,note_on,0,0,1,,,,,,,,0,,,82,0
23700,note_on,0,0,1,,,,,,,,0,,,79,55
23700,note_on,120,0,2,,,,,,,,1,,,65,0
23700,note_on,0,0,2,,,,,,,,1,,,62,0
23700,note_on,0,0,2,,,,,,,,1,,,63,69
23700,note_on,0,0,2,,,,,,,,1,,,67,69
23700,note_on,0,0,1,,,,,,,,0,,,75,55
23700,note_on,0,0,1,,,,,,,,0,,,77,0
23700,note_on,60,0,1,,,,,,,,0,,,80,0
23760,note_on,0,0,2,,,,,,,,1,,,70,75
23760,note_on,60,0,1,,,,,,,,0,,,79,0
23760,note_on,0,0,1,,,,,,,,0,,,75,0
23760,note_on,0,0,1,,,,,,,,0,,,74,56
23760,note_on,0,0,1,,,,,,,,0,,,77,56
23760,note_on,60,0,2,,,,,,,,1,,,67,0
23760,note_on,0,0,2,,,,,,,,1,,,63,0
23820,note_on,0,0,2,,,,,,,,1,,,70,78
23820,note_on,60,0,2,,,,,,,,1,,,70,0
23820,note_on,0,0,1,,,,,,,,0,,,74,0
23820,note_on,60,0,1,,,,,,,,0,,,77,0
23820,note_on,0,0,1,,,,,,,,0,,,77,56
23820,note_on,0,0,1,,,,,,,,0,,,74,56
23880,note_on,60,0,1,,,,,,,,0,,,77,0
23880,note_on,0,0,2,,,,,,,,1,,,69,79
23880,note_on,60,0,2,,,,,,,,1,,,70,0
23880,note_on,0,0,1,,,,,,,,0,,,74,0
23880,note_on,0,0,1,,,,,,,,0,,,80,56
23880,note_on,0,0,1,,,,,,,,0,,,77,56
23910,note_on,0,0,1,,,,,,,,0,,,79,56
23910,note_on,0,0,1,,,,,,,,0,,,80,0
23910,note_on,30,0,1,,,,,,,,0,,,77,0
23910,note_on,0,0,1,,,,,,,,0,,,75,56
23940,note_on,30,0,1,,,,,,,,0,,,79,0
23940,note_on,0,0,1,,,,,,,,0,,,75,0
23940,note_on,0,0,1,,,,,,,,0,,,74,56
23940,note_on,0,0,1,,,,,,,,0,,,77,56
23940,note_on,60,0,2,,,,,,,,1,,,69,0
23940,note_on,0,0,2,,,,,,,,1,,,70,79
24000,note_on,60,0,2,,,,,,,,1,,,70,0
24000,note_on,0,0,2,,,,,,,,1,,,70,78
24000,note_on,0,0,1,,,,,,,,0,,,77,56
24000,note_on,0,0,1,,,,,,,,0,,,74,56
24000,note_on,0,0,1,,,,,,,,0,,,74,0
24000,note_on,60,0,1,,,,,,,,0,,,77,0
24060,note_on,0,0,2,,,,,,,,1,,,69,76
24060,note_on,0,0,1,,,,,,,,0,,,77,60
24060,note_on,0,0,1,,,,,,,,0,,,74,0
24060,note_on,60,0,1,,,,,,,,0,,,77,0
24060,note_on,60,0,2,,,,,,,,1,,,70,0
24060,note_on,0,0,1,,,,,,,,0,,,80,60
24090,note_on,0,0,1,,,,,,,,0,,,77,0
24090,note_on,0,0,1,,,,,,,,0,,,79,59
24090,note_on,0,0,1,,,,,,,,0,,,75,59
24090,note_on,30,0,1,,,,,,,,0,,,80,0
24120,note_on,0,0,1,,,,,,,,0,,,74,59
24120,note_on,0,0,1,,,,,,,,0,,,75,0
24120,note_on,30,0,1,,,,,,,,0,,,79,0
24120,note_on,60,0,2,,,,,,,,1,,,69,0
24120,note_on,0,0,2,,,,,,,,1,,,70,75
24120,note_on,0,0,1,,,,,,,,0,,,77,59
24180,note_on,60,0,2,,,,,,,,1,,,70,0
24180,note_on,0,0,2,,,,,,,,1,,,70,77
24180,note_on,0,0,1,,,,,,,,0,,,74,58
24180,note_on,60,0,1,,,,,,,,0,,,77,0
24180,note_on,0,0,1,,,,,,,,0,,,74,0
24180,note_on,0,0,1,,,,,,,,0,,,77,58
24240,note_on,0,0,1,,,,,,,,0,,,80,58
24240,note_on,60,0,1,,,,,,,,0,,,77,0
24240,note_on,0,0,1,,,,,,,,0,,,74,0
24240,note_on,0,0,1,,,,,,,,0,,,77,58
24240,note_on,0,0,2,,,,,,,,1,,,69,81
24240,note_on,60,0,2,,,,,,,,1,,,70,0
24270,note_on,30,0,1,,,,,,,,0,,,77,0
24270,note_on,0,0,1,,,,,,,,0,,,80,0
24270,note_on,0,0,1,,,,,,,,0,,,75,58
24270,note_on,0,0,1,,,,,,,,0,,,79,58
24300,note_on,30,0,1,,,,,,,,0,,,79,0
24300,note_on,0,0,1,,,,,,,,0,,,75,0
24300,note_on,0,0,1,,,,,,,,0,,,74,58
24300,note_on,0,0,1,,,,,,,,0,,,77,58
24300,note_on,60,0,2,,,,,,,,1,,,69,0
24300,note_on,0,0,2,,,,,,,,1,,,70,86
24420,note_on,120,0,2,,,,,,,,1,,,70,0
24420,note_on,0,0,1,,,,,,,,0,,,70,60
24420,note_on,120,0,1,,,,,,,,0,,,77,0
24420,note_on,0,0,1,,,,,,,,0,,,74,0
24480,note_on,60,0,2,,,,,,,,1,,,67,72
24480,note_on,0,0,2,,,,,,,,1,,,63,72
24480,note_on,60,0,1,,,,,,,,0,,,70,0
24480,note_on,0,0,1,,,,,,,,0,,,70,61
24540,note_on,0,0,1,,,,,,,,0,,,67,62
24540,note_on,60,0,1,,,,,,,,0,,,70,0
24600,note_on,0,0,2,,,,,,,,1,,,67,0
24600,note_on,120,0,2,,,,,,,,1,,,63,0
24600,note_on,60,0,1,,,,,,,,0,,,67,0
24600,note_on,0,0,1,,,,,,,,0,,,75,63
24660,note_on,0,0,1,,,,,,,,0,,,75,63
24660,note_on,60,0,1,,,,,,,,0,,,75,0
24660,note_on,0,0,2,,,,,,,,1,,,63,72
24660,note_on,60,0,2,,,,,,,,1,,,67,72
24720,note_on,0,0,1,,,,,,,,0,,,70,61
24720,note_on,60,0,1,,,,,,,,0,,,75,0
24780,note_on,0,0,1,,,,,,,,0,,,79,61
24780,note_on,60,0,1,,,,,,,,0,,,70,0
24780,note_on,0,0,2,,,,,,,,1,,,67,0
24780,note_on,120,0,2,,,,,,,,1,,,63,0
24840,note_on,0,0,2,,,,,,,,1,,,63,72
24840,note_on,60,0,1,,,,,,,,0,,,79,0
24840,note_on,0,0,1,,,,,,,,0,,,79,61
24840,note_on,60,0,2,,,,,,,,1,,,67,72
24900,note_on,0,0,1,,,,,,,,0,,,75,60
24900,note_on,60,0,1,,,,,,,,0,,,79,0
24960,note_on,120,0,2,,,,,,,,1,,,63,0
24960,note_on,60,0,1,,,,,,,,0,,,75,0
24960,note_on,0,0,1,,,,,,,,0,,,82,60
24960,note_on,0,0,2,,,,,,,,1,,,67,0
25020,note_on,60,0,1,,,,,,,,0,,,82,0
25020,note_on,0,0,1,,,,,,,,0,,,82,60
25140,note_on,180,0,2,,,,,,,,1,,,70,72
25140,note_on,120,0,1,,,,,,,,0,,,82,0
25140,note_on,0,0,2,,,,,,,,1,,,62,72
25140,note_on,0,0,1,,,,,,,,0,,,80,60
25140,note_on,0,0,1,,,,,,,,0,,,77,60
25200,note_on,60,0,2,,,,,,,,1,,,62,0
25200,note_on,60,0,1,,,,,,,,0,,,77,0
25200,note_on,0,0,1,,,,,,,,0,,,80,0
25200,note_on,0,0,1,,,,,,,,0,,,75,61
25200,note_on,0,0,1,,,,,,,,0,,,79,61
25200,note_on,0,0,2,,,,,,,,1,,,63,72
25260,note_on,60,0,1,,,,,,,,0,,,79,0
25260,note_on,0,0,1,,,,,,,,0,,,75,0
25260,note_on,0,0,1,,,,,,,,0,,,80,62
25260,note_on,0,0,1,,,,,,,,0,,,77,62
25317,note_on,117,0,2,,,,,,,,1,,,70,0
25320,note_on,3,0,2,,,,,,,,1,,,63,0
25320,note_on,0,0,1,,,,,,,,0,,,80,0
25320,note_on,0,0,1,,,,,,,,0,,,82,63
25320,note_on,60,0,1,,,,,,,,0,,,77,0
25320,note_on,0,0,1,,,,,,,,0,,,79,63
25380,note_on,60,0,1,,,,,,,,0,,,79,0
25380,note_on,0,0,1,,,,,,,,0,,,82,0
25380,note_on,0,0,1,,,,,,,,0,,,80,63
25380,note_on,0,0,1,,,,,,,,0,,,84,63
25380,note_on,0,0,2,,,,,,,,1,,,68,72
25380,note_on,60,0,2,,,,,,,,1,,,56,72
25440,note_on,0,0,1,,,,,,,,0,,,80,62
25440,note_on,60,0,1,,,,,,,,0,,,84,0
25440,note_on,0,0,1,,,,,,,,0,,,77,62
25440,note_on,0,0,1,,,,,,,,0,,,80,0
25500,note_on,0,0,1,,,,,,,,0,,,79,61
25500,note_on,0,0,1,,,,,,,,0,,,75,61
25500,note_on,0,0,1,,,,,,,,0,,,77,0
25500,note_on,60,0,1,,,,,,,,0,,,80,0
25500,note_on,0,0,2,,,,,,,,1,,,56,0
25500,note_on,0,0,2,,,,,,,,1,,,57,78
25500,note_on,0,0,2,,,,,,,,1,,,69,78
25500,note_on,120,0,2,,,,,,,,1,,,68,0
25560,note_on,0,0,1,,,,,,,,0,,,74,59
25560,note_on,0,0,1,,,,,,,,0,,,77,59
25560,note_on,60,0,1,,,,,,,,0,,,79,0
25560,note_on,0,0,1,,,,,,,,0,,,75,0
25560,note_on,0,0,2,,,,,,,,1,,,69,0
25560,note_on,60,0,2,,,,,,,,1,,,57,0
25560,note_on,0,0,2,,,,,,,,1,,,70,77
25560,note_on,0,0,2,,,,,,,,1,,,58,77
25620,note_on,0,0,2,,,,,,,,1,,,58,0
25620,note_on,0,0,2,,,,,,,,1,,,70,74
25620,note_on,60,0,1,,,,,,,,0,,,77,0
25620,note_on,0,0,1,,,,,,,,0,,,74,0
25620,note_on,60,0,2,,,,,,,,1,,,70,0
25620,note_on,0,0,1,,,,,,,,0,,,74,58
25620,note_on,0,0,2,,,,,,,,1,,,58,74
25620,note_on,0,0,1,,,,,,,,0,,,77,58
25680,note_on,60,0,1,,,,,,,,0,,,77,0
25680,note_on,0,0,1,,,,,,,,0,,,77,57
25680,note_on,0,0,1,,,,,,,,0,,,80,57
25680,note_on,60,0,2,,,,,,,,1,,,70,0
25680,note_on,0,0,2,,,,,,,,1,,,58,0
25680,note_on,0,0,2,,,,,,,,1,,,57,71
25680,note_on,0,0,2,,,,,,,,1,,,69,71
25680,note_on,0,0,1,,,,,,,,0,,,74,0
25710,note_on,30,0,1,,,,,,,,0,,,80,0
25710,note_on,0,0,1,,,,,,,,0,,,77,0
25710,note_on,0,0,1,,,,,,,,0,,,75,55
25710,note_on,0,0,1,,,,,,,,0,,,79,55
25740,note_on,30,0,1,,,,,,,,0,,,79,0
25740,note_on,0,0,1,,,,,,,,0,,,77,55
25740,note_on,0,0,1,,,,,,,,0,,,74,55
25740,note_on,60,0,2,,,,,,,,1,,,69,0
25740,note_on,0,0,2,,,,,,,,1,,,57,0
25740,note_on,0,0,2,,,,,,,,1,,,70,69
25740,note_on,0,0,2,,,,,,,,1,,,58,69
25740,note_on,0,0,1,,,,,,,,0,,,75,0
25860,note_on,0,0,2,,,,,,,,1,,,58,0
25860,note_on,120,0,2,,,,,,,,1,,,70,0
25860,note_on,120,0,1,,,,,,,,0,,,77,0
25860,note_on,0,0,1,,,,,,,,0,,,74,0
25860,note_on,0,0,1,,,,,,,,0,,,70,58
25860,note_on,0,0,2,,,,,,,,1,,,67,60
25920,note_on,60,0,2,,,,,,,,1,,,67,0
25920,note_on,0,0,1,,,,,,,,0,,,70,59
25920,note_on,0,0,2,,,,,,,,1,,,67,61
25920,note_on,60,0,1,,,,,,,,0,,,70,0
25980,note_on,60,0,2,,,,,,,,1,,,67,0
25980,note_on,0,0,2,,,,,,,,1,,,63,63
25980,note_on,60,0,1,,,,,,,,0,,,70,0
25980,note_on,0,0,1,,,,,,,,0,,,67,60
26040,note_on,60,0,1,,,,,,,,0,,,67,0
26040,note_on,0,0,2,,,,,,,,1,,,63,64
26040,note_on,60,0,2,,,,,,,,1,,,63,0
26040,note_on,0,0,1,,,,,,,,0,,,75,61
26100,note_on,60,0,2,,,,,,,,1,,,63,0
26100,note_on,60,0,1,,,,,,,,0,,,75,0
26100,note_on,0,0,1,,,,,,,,0,,,75,61
26100,note_on,0,0,2,,,,,,,,1,,,63,64
26160,note_on,60,0,2,,,,,,,,1,,,63,0
26160,note_on,0,0,1,,,,,,,,0,,,70,60
26160,note_on,60,0,1,,,,,,,,0,,,75,0
26160,note_on,0,0,2,,,,,,,,1,,,58,63
26220,note_on,60,0,2,,,,,,,,1,,,58,0
26220,note_on,0,0,2,,,,,,,,1,,,58,64
26220,note_on,0,0,1,,,,,,,,0,,,79,60
26220,note_on,60,0,1,,,,,,,,0,,,70,0
26280,note_on,0,0,2,,,,,,,,1,,,58,65
26280,note_on,60,0,2,,,,,,,,1,,,58,0
26280,note_on,0,0,1,,,,,,,,0,,,79,59
26280,note_on,60,0,1,,,,,,,,0,,,79,0
26340,note_on,60,0,1,,,,,,,,0,,,79,0
26340,note_on,0,0,2,,,,,,,,1,,,55,66
26340,note_on,60,0,2,,,,,,,,1,,,58,0
26340,note_on,0,0,1,,,,,,,,0,,,75,61
26400,note_on,60,0,1,,,,,,,,0,,,75,0
26400,note_on,0,0,1,,,,,,,,0,,,82,64
26400,note_on,0,0,2,,,,,,,,1,,,55,66
26400,note_on,60,0,2,,,,,,,,1,,,55,0
26460,note_on,60,0,1,,,,,,,,0,,,82,0
26460,note_on,0,0,1,,,,,,,,0,,,82,65
26460,note_on,0,0,2,,,,,,,,1,,,55,67
26460,note_on,60,0,2,,,,,,,,1,,,55,0
26520,note_on,60,0,2,,,,,,,,1,,,55,0
26520,note_on,0,0,2,,,,,,,,1,,,51,68
26520,note_on,60,0,1,,,,,,,,0,,,82,0
26520,note_on,0,0,1,,,,,,,,0,,,79,65
26580,note_on,60,0,2,,,,,,,,1,,,51,0
26580,note_on,60,0,1,,,,,,,,0,,,79,0
26580,note_on,0,0,2,,,,,,,,1,,,51,69
26580,note_on,0,0,1,,,,,,,,0,,,87,64
26640,note_on,60,0,1,,,,,,,,0,,,87,0
26640,note_on,0,0,1,,,,,,,,0,,,80,65
26640,note_on,0,0,1,,,,,,,,0,,,72,65
26640,note_on,0,0,1,,,,,,,,0,,,75,65
26640,note_on,60,0,2,,,,,,,,1,,,51,0
26640,note_on,0,0,2,,,,,,,,1,,,56,71
26640,note_on,0,0,2,,,,,,,,1,,,44,71
26670,note_on,0,0,1,,,,,,,,0,,,84,65
26670,note_on,0,0,1,,,,,,,,0,,,80,0
26670,note_on,0,0,1,,,,,,,,0,,,72,0
26670,note_on,30,0,1,,,,,,,,0,,,75,0
26700,note_on,30,0,1,,,,,,,,0,,,84,0
26700,note_on,60,0,2,,,,,,,,1,,,44,0
26700,note_on,0,0,2,,,,,,,,1,,,56,71
26700,note_on,0,0,2,,,,,,,,1,,,56,0
26700,note_on,0,0,1,,,,,,,,0,,,75,66
26700,note_on,0,0,1,,,,,,,,0,,,80,66
26700,note_on,0,0,2,,,,,,,,1,,,44,71
26700,note_on,0,0,1,,,,,,,,0,,,72,66
26730,note_on,30,0,1,,,,,,,,0,,,75,0
26730,note_on,0,0,1,,,,,,,,0,,,84,66
26730,note_on,0,0,1,,,,,,,,0,,,80,0
26730,note_on,0,0,1,,,,,,,,0,,,72,0
26760,note_on,0,0,1,,,,,,,,0,,,75,66
26760,note_on,0,0,1,,,,,,,,0,,,72,66
26760,note_on,30,0,1,,,,,,,,0,,,84,0
26760,note_on,60,0,2,,,,,,,,1,,,44,0
26760,note_on,0,0,2,,,,,,,,1,,,56,0
26760,note_on,0,0,2,,,,,,,,1,,,44,71
26760,note_on,0,0,2,,,,,,,,1,,,56,71
26760,note_on,0,0,1,,,,,,,,0,,,80,66
26790,note_on,0,0,1,,,,,,,,0,,,72,0
26790,note_on,30,0,1,,,,,,,,0,,,75,0
26790,note_on,0,0,1,,,,,,,,0,,,84,66
26790,note_on,0,0,1,,,,,,,,0,,,80,0
26820,note_on,0,0,1,,,,,,,,0,,,75,66
26820,note_on,0,0,1,,,,,,,,0,,,72,66
26820,note_on,0,0,2,,,,,,,,1,,,56,71
26820,note_on,0,0,2,,,,,,,,1,,,44,71
26820,note_on,0,0,2,,,,,,,,1,,,44,0
26820,note_on,60,0,2,,,,,,,,1,,,56,0
26820,note_on,0,0,1,,,,,,,,0,,,80,66
26820,note_on,30,0,1,,,,,,,,0,,,84,0
26850,note_on,0,0,1,,,,,,,,0,,,80,0
26850,note_on,0,0,1,,,,,,,,0,,,72,0
26850,note_on,30,0,1,,,,,,,,0,,,75,0
26850,note_on,0,0,1,,,,,,,,0,,,84,66
26880,note_on,0,0,1,,,,,,,,0,,,72,66
26880,note_on,30,0,1,,,,,,,,0,,,84,0
26880,note_on,60,0,2,,,,,,,,1,,,56,0
26880,note_on,0,0,2,,,,,,,,1,,,44,0
26880,note_on,0,0,2,,,,,,,,1,,,56,71
26880,note_on,0,0,2,,,,,,,,1,,,44,71
26880,note_on,0,0,1,,,,,,,,0,,,75,66
26880,note_on,0,0,1,,,,,,,,0,,,80,66
26910,note_on,0,0,1,,,,,,,,0,,,84,66
26910,note_on,30,0,1,,,,,,,,0,,,75,0
26910,note_on,0,0,1,,,,,,,,0,,,72,0
26910,note_on,0,0,1,,,,,,,,0,,,80,0
26940,note_on,0,0,2,,,,,,,,1,,,56,0
26940,note_on,0,0,2,,,,,,,,1,,,44,71
26940,note_on,30,0,1,,,,,,,,0,,,84,0
26940,note_on,0,0,1,,,,,,,,0,,,80,66
26940,note_on,0,0,1,,,,,,,,0,,,72,66
26940,note_on,0,0,1,,,,,,,,0,,,75,66
26940,note_on,0,0,2,,,,,,,,1,,,56,71
26940,note_on,60,0,2,,,,,,,,1,,,44,0
26970,note_on,0,0,1,,,,,,,,0,,,84,66
26970,note_on,0,0,1,,,,,,,,0,,,80,0
26970,note_on,0,0,1,,,,,,,,0,,,72,0
26970,note_on,30,0,1,,,,,,,,0,,,75,0
27000,note_on,0,0,1,,,,,,,,0,,,68,67
27000,note_on,0,0,1,,,,,,,,0,,,70,67
27000,note_on,30,0,1,,,,,,,,0,,,84,0
27000,note_on,0,0,1,,,,,,,,0,,,65,67
27000,note_on,0,0,2,,,,,,,,1,,,56,0
27000,note_on,0,0,2,,,,,,,,1,,,46,71
27000,note_on,0,0,2,,,,,,,,1,,,58,71
27000,note_on,60,0,2,,,,,,,,1,,,44,0
27030,note_on,0,0,1,,,,,,,,0,,,74,67
27030,note_on,0,0,1,,,,,,,,0,,,70,0
27030,note_on,0,0,1,,,,,,,,0,,,68,0
27030,note_on,30,0,1,,,,,,,,0,,,65,0
27060,note_on,0,0,2,,,,,,,,1,,,58,70
27060,note_on,0,0,2,,,,,,,,1,,,46,70
27060,note_on,0,0,1,,,,,,,,0,,,68,68
27060,note_on,60,0,2,,,,,,,,1,,,46,0
27060,note_on,0,0,2,,,,,,,,1,,,58,0
27060,note_on,0,0,1,,,,,,,,0,,,65,68
27060,note_on,30,0,1,,,,,,,,0,,,74,0
27060,note_on,0,0,1,,,,,,,,0,,,70,68
27090,note_on,30,0,1,,,,,,,,0,,,65,0
27090,note_on,0,0,1,,,,,,,,0,,,74,70
27090,note_on,0,0,1,,,,,,,,0,,,70,0
27090,note_on,0,0,1,,,,,,,,0,,,68,0
27120,note_on,30,0,1,,,,,,,,0,,,74,0
27120,note_on,0,0,1,,,,,,,,0,,,70,71
27120,note_on,0,0,1,,,,,,,,0,,,68,71
27120,note_on,0,0,2,,,,,,,,1,,,58,69
27120,note_on,0,0,1,,,,,,,,0,,,65,71
27120,note_on,0,0,2,,,,,,,,1,,,58,0
27120,note_on,60,0,2,,,,,,,,1,,,46,0
27120,note_on,0,0,2,,,,,,,,1,,,46,69
27150,note_on,30,0,1,,,,,,,,0,,,65,0
27150,note_on,0,0,1,,,,,,,,0,,,70,0
27150,note_on,0,0,1,,,,,,,,0,,,74,72
27150,note_on,0,0,1,,,,,,,,0,,,68,0
27180,note_on,0,0,2,,,,,,,,1,,,46,0
27180,note_on,30,0,1,,,,,,,,0,,,74,0
27180,note_on,0,0,1,,,,,,,,0,,,70,72
27180,note_on,0,0,1,,,,,,,,0,,,68,72
27180,note_on,0,0,1,,,,,,,,0,,,65,72
27180,note_on,60,0,2,,,,,,,,1,,,58,0
27180,note_on,0,0,2,,,,,,,,1,,,46,68
27180,note_on,0,0,2,,,,,,,,1,,,58,68
27210,note_on,0,0,1,,,,,,,,0,,,74,73
27210,note_on,30,0,1,,,,,,,,0,,,65,0
27210,note_on,0,0,1,,,,,,,,0,,,70,0
27210,note_on,0,0,1,,,,,,,,0,,,68,0
27240,note_on,30,0,1,,,,,,,,0,,,74,0
27240,note_on,0,0,1,,,,,,,,0,,,65,76
27240,note_on,0,0,1,,,,,,,,0,,,68,76
27240,note_on,0,0,1,,,,,,,,0,,,70,76
27240,note_on,0,0,2,,,,,,,,1,,,46,67
27240,note_on,0,0,2,,,,,,,,1,,,58,67
27240,note_on,0,0,2,,,,,,,,1,,,46,0
27240,note_on,60,0,2,,,,,,,,1,,,58,0
27270,note_on,30,0,1,,,,,,,,0,,,65,0
27270,note_on,0,0,1,,,,,,,,0,,,68,0
27270,note_on,0,0,1,,,,,,,,0,,,70,0
27270,note_on,0,0,1,,,,,,,,0,,,74,82
27300,note_on,0,0,2,,,,,,,,1,,,46,66
27300,note_on,0,0,2,,,,,,,,1,,,58,66
27300,note_on,0,0,2,,,,,,,,1,,,58,0
27300,note_on,60,0,2,,,,,,,,1,,,46,0
27300,note_on,0,0,1,,,,,,,,0,,,70,83
27300,note_on,0,0,1,,,,,,,,0,,,65,83
27300,note_on,0,0,1,,,,,,,,0,,,68,83
27300,note_on,30,0,1,,,,,,,,0,,,74,0
27330,note_on,0,0,1,,,,,,,,0,,,74,94
27330,note_on,0,0,1,,,,,,,,0,,,70,0
27330,note_on,0,0,1,,,,,,,,0,,,68,0
27330,note_on,30,0,1,,,,,,,,0,,,65,0
27360,note_on,60,0,2,,,,,,,,1,,,46,0
27360,note_on,0,0,2,,,,,,,,1,,,39,65
27360,note_on,0,0,2,,,,,,,,1,,,58,0
27360,note_on,0,0,1,,,,,,,,0,,,67,97
27360,note_on,0,0,1,,,,,,,,0,,,75,97
27360,note_on,30,0,1,,,,,,,,0,,,74,0
27390,note_on,30,0,2,,,,,,,,1,,,39,0
27390,note_on,0,0,2,,,,,,,,1,,,51,65
27420,note_on,30,0,2,,,,,,,,1,,,51,0
27420,note_on,0,0,2,,,,,,,,1,,,39,65
27450,note_on,30,0,2,,,,,,,,1,,,39,0
27450,note_on,0,0,2,,,,,,,,1,,,51,65
27480,note_on,0,0,1,,,,,,,,0,,,70,72
27480,note_on,0,0,1,,,,,,,,0,,,67,0
27480,note_on,120,0,1,,,,,,,,0,,,75,0
27480,note_on,0,0,2,,,,,,,,1,,,39,65
27480,note_on,30,0,2,,,,,,,,1,,,51,0
27510,note_on,30,0,2,,,,,,,,1,,,39,0
27510,note_on,0,0,2,,,,,,,,1,,,51,65
27540,note_on,30,0,2,,,,,,,,1,,,51,0
27540,note_on,0,0,2,,,,,,,,1,,,39,65
27540,note_on,0,0,1,,,,,,,,0,,,75,72
27540,note_on,60,0,1,,,,,,,,0,,,70,0
27570,note_on,30,0,2,,,,,,,,1,,,39,0
27570,note_on,0,0,2,,,,,,,,1,,,51,64
27600,note_on,30,0,2,,,,,,,,1,,,51,0
27600,note_on,0,0,2,,,,,,,,1,,,39,65
27630,note_on,0,0,2,,,,,,,,1,,,51,65
27630,note_on,30,0,2,,,,,,,,1,,,39,0
27660,note_on,0,0,2,,,,,,,,1,,,39,64
27660,note_on,30,0,2,,,,,,,,1,,,51,0
27660,note_on,120,0,1,,,,,,,,0,,,75,0
27660,note_on,0,0,1,,,,,,,,0,,,79,72
27690,note_on,30,0,2,,,,,,,,1,,,39,0
27690,note_on,0,0,2,,,,,,,,1,,,51,64
27720,note_on,0,0,1,,,,,,,,0,,,68,72
27720,note_on,0,0,2,,,,,,,,1,,,39,64
27720,note_on,30,0,2,,,,,,,,1,,,51,0
27720,note_on,60,0,1,,,,,,,,0,,,79,0
27720,note_on,0,0,1,,,,,,,,0,,,77,72
27750,note_on,30,0,2,,,,,,,,1,,,39,0
27750,note_on,0,0,2,,,,,,,,1,,,51,64
27780,note_on,30,0,2,,,,,,,,1,,,51,0
27780,note_on,0,0,2,,,,,,,,1,,,39,64
27810,note_on,30,0,2,,,,,,,,1,,,39,0
27810,note_on,0,0,2,,,,,,,,1,,,51,64
27840,note_on,30,0,2,,,,,,,,1,,,51,0
27840,note_on,0,0,2,,,,,,,,1,,,39,64
27840,note_on,0,0,1,,,,,,,,0,,,68,0
27840,note_on,0,0,1,,,,,,,,0,,,75,72
27840,note_on,120,0,1,,,,,,,,0,,,77,0
27870,note_on,30,0,1,,,,,,,,0,,,75,0
27870,note_on,0,0,2,,,,,,,,1,,,51,64
27870,note_on,30,0,2,,,,,,,,1,,,39,0
27885,note_on,15,0,1,,,,,,,,0,,,75,72
27900,note_on,0,0,2,,,,,,,,1,,,39,64
27900,note_on,30,0,2,,,,,,,,1,,,51,0
27900,note_on,15,0,1,,,,,,,,0,,,75,0
27900,note_on,0,0,1,,,,,,,,0,,,65,72
27900,note_on,0,0,1,,,,,,,,0,,,74,72
27930,note_on,30,0,2,,,,,,,,1,,,39,0
27930,note_on,0,0,2,,,,,,,,1,,,51,64
27960,note_on,0,0,1,,,,,,,,0,,,65,0
27960,note_on,0,0,1,,,,,,,,0,,,72,72
27960,note_on,60,0,1,,,,,,,,0,,,74,0
27960,note_on,0,0,2,,,,,,,,1,,,39,65
27960,note_on,30,0,2,,,,,,,,1,,,51,0
27990,note_on,0,0,2,,,,,,,,1,,,51,67
27990,note_on,30,0,2,,,,,,,,1,,,39,0
28020,note_on,30,0,2,,,,,,,,1,,,51,0
28020,note_on,0,0,2,,,,,,,,1,,,39,68
28020,note_on,0,0,1,,,,,,,,0,,,74,72
28020,note_on,60,0,1,,,,,,,,0,,,72,0
28050,note_on,30,0,2,,,,,,,,1,,,39,0
28050,note_on,0,0,2,,,,,,,,1,,,51,69
28080,note_on,0,0,1,,,,,,,,0,,,67,97
28080,note_on,0,0,1,,,,,,,,0,,,75,97
28080,note_on,60,0,1,,,,,,,,0,,,74,0
28080,note_on,30,0,2,,,,,,,,1,,,51,0
28080,note_on,0,0,2,,,,,,,,1,,,39,69
28110,note_on,0,0,2,,,,,,,,1,,,51,70
28110,note_on,30,0,2,,,,,,,,1,,,39,0
28140,note_on,30,0,2,,,,,,,,1,,,51,0
28140,note_on,0,0,2,,,,,,,,1,,,39,70
28170,note_on,30,0,2,,,,,,,,1,,,39,0
28170,note_on,0,0,2,,,,,,,,1,,,51,70
28200,note_on,0,0,1,,,,,,,,0,,,70,66
28200,note_on,30,0,2,,,,,,,,1,,,51,0
28200,note_on,0,0,2,,,,,,,,1,,,39,70
28200,note_on,0,0,1,,,,,,,,0,,,67,0
28200,note_on,120,0,1,,,,,,,,0,,,75,0
28230,note_on,0,0,2,,,,,,,,1,,,51,70
28230,note_on,30,0,2,,,,,,,,1,,,39,0
28260,note_on,30,0,2,,,,,,,,1,,,51,0
28260,note_on,0,0,2,,,,,,,,1,,,39,69
28260,note_on,60,0,1,,,,,,,,0,,,70,0
28260,note_on,0,0,1,,,,,,,,0,,,75,69
28290,note_on,30,0,2,,,,,,,,1,,,39,0
28290,note_on,0,0,2,,,,,,,,1,,,51,68
28320,note_on,0,0,2,,,,,,,,1,,,39,68
28320,note_on,30,0,2,,,,,,,,1,,,51,0
28350,note_on,30,0,2,,,,,,,,1,,,39,0
28350,note_on,0,0,2,,,,,,,,1,,,51,67
28380,note_on,120,0,1,,,,,,,,0,,,75,0
28380,note_on,30,0,2,,,,,,,,1,,,51,0
28380,note_on,0,0,1,,,,,,,,0,,,79,70
28380,note_on,0,0,2,,,,,,,,1,,,39,67
28410,note_on,30,0,2,,,,,,,,1,,,39,0
28410,note_on,0,0,2,,,,,,,,1,,,51,66
28440,note_on,0,0,1,,,,,,,,0,,,72,68
28440,note_on,0,0,1,,,,,,,,0,,,80,68
28440,note_on,60,0,1,,,,,,,,0,,,79,0
28440,note_on,0,0,2,,,,,,,,1,,,39,66
28440,note_on,30,0,2,,,,,,,,1,,,51,0
28470,note_on,30,0,2,,,,,,,,1,,,39,0
28470,note_on,0,0,2,,,,,,,,1,,,51,68
28500,note_on,30,0,2,,,,,,,,1,,,51,0
28500,note_on,0,0,2,,,,,,,,1,,,39,66
28500,note_on,0,0,1,,,,,,,,0,,,80,67
28500,note_on,0,0,1,,,,,,,,0,,,74,67
28500,note_on,0,0,1,,,,,,,,0,,,72,0
28500,note_on,60,0,1,,,,,,,,0,,,80,0
28530,note_on,30,0,2,,,,,,,,1,,,39,0
28530,note_on,0,0,2,,,,,,,,1,,,51,66
28560,note_on,0,0,2,,,,,,,,1,,,39,65
28560,note_on,30,0,2,,,,,,,,1,,,51,0
28560,note_on,60,0,1,,,,,,,,0,,,80,0
28560,note_on,0,0,1,,,,,,,,0,,,74,0
28560,note_on,0,0,1,,,,,,,,0,,,75,65
28560,note_on,0,0,1,,,,,,,,0,,,80,65
28590,note_on,30,0,2,,,,,,,,1,,,39,0
28590,note_on,0,0,2,,,,,,,,1,,,51,65
28591,note_on,31,0,1,,,,,,,,0,,,80,0
28605,note_on,14,0,1,,,,,,,,0,,,82,65
28620,note_on,0,0,2,,,,,,,,1,,,39,65
28620,note_on,15,0,1,,,,,,,,0,,,82,0
28620,note_on,30,0,2,,,,,,,,1,,,51,0
28620,note_on,0,0,1,,,,,,,,0,,,76,65
28620,note_on,0,0,1,,,,,,,,0,,,80,65
28620,note_on,0,0,1,,,,,,,,0,,,75,0
28650,note_on,0,0,2,,,,,,,,1,,,51,64
28650,note_on,30,0,2,,,,,,,,1,,,39,0
28680,note_on,60,0,1,,,,,,,,0,,,80,0
28680,note_on,0,0,2,,,,,,,,1,,,39,65
28680,note_on,30,0,2,,,,,,,,1,,,51,0
28680,note_on,0,0,1,,,,,,,,0,,,79,65
28710,note_on,30,0,2,,,,,,,,1,,,39,0
28710,note_on,0,0,2,,,,,,,,1,,,51,65
28740,note_on,0,0,1,,,,,,,,0,,,76,0
28740,note_on,0,0,2,,,,,,,,1,,,39,66
28740,note_on,0,0,1,,,,,,,,0,,,80,65
28740,note_on,0,0,1,,,,,,,,0,,,77,65
28740,note_on,30,0,2,,,,,,,,1,,,51,0
28740,note_on,60,0,1,,,,,,,,0,,,79,0
28770,note_on,0,0,2,,,,,,,,1,,,51,67
28770,note_on,30,0,2,,,,,,,,1,,,39,0
28800,note_on,0,0,2,,,,,,,,1,,,39,67
28800,note_on,30,0,2,,,,,,,,1,,,51,0
28800,note_on,0,0,1,,,,,,,,0,,,77,0
28800,note_on,0,0,1,,,,,,,,0,,,79,65
28800,note_on,0,0,1,,,,,,,,0,,,75,65
28800,note_on,60,0,1,,,,,,,,0,,,80,0
28830,note_on,30,0,2,,,,,,,,1,,,39,0
28830,note_on,0,0,2,,,,,,,,1,,,51,68
28860,note_on,0,0,2,,,,,,,,1,,,39,69
28860,note_on,30,0,2,,,,,,,,1,,,51,0
28890,note_on,0,0,2,,,,,,,,1,,,51,70
28890,note_on,30,0,2,,,,,,,,1,,,39,0
28920,note_on,0,0,1,,,,,,,,0,,,70,66
28920,note_on,0,0,2,,,,,,,,1,,,39,71
28920,note_on,30,0,2,,,,,,,,1,,,51,0
28920,note_on,120,0,1,,,,,,,,0,,,79,0
28920,note_on,0,0,1,,,,,,,,0,,,75,0
28950,note_on,30,0,2,,,,,,,,1,,,39,0
28950,note_on,0,0,2,,,,,,,,1,,,51,72
28980,note_on,60,0,1,,,,,,,,0,,,70,0
28980,note_on,0,0,1,,,,,,,,0,,,67,67
28980,note_on,30,0,2,,,,,,,,1,,,51,0
28980,note_on,0,0,2,,,,,,,,1,,,39,72
29010,note_on,30,0,2,,,,,,,,1,,,39,0
29010,note_on,0,0,2,,,,,,,,1,,,51,71
29040,note_on,0,0,2,,,,,,,,1,,,39,70
29040,note_on,30,0,2,,,,,,,,1,,,51,0
29070,note_on,0,0,2,,,,,,,,1,,,51,70
29070,note_on,30,0,2,,,,,,,,1,,,39,0
29100,note_on,30,0,2,,,,,,,,1,,,51,0
29100,note_on,0,0,2,,,,,,,,1,,,39,69
29100,note_on,0,0,1,,,,,,,,0,,,79,68
29100,note_on,120,0,1,,,,,,,,0,,,67,0
29130,note_on,0,0,2,,,,,,,,1,,,51,68
29130,note_on,30,0,2,,,,,,,,1,,,39,0
29160,note_on,30,0,2,,,,,,,,1,,,51,0
29160,note_on,0,0,1,,,,,,,,0,,,68,68
29160,note_on,0,0,1,,,,,,,,0,,,78,68
29160,note_on,0,0,2,,,,,,,,1,,,39,67
29160,note_on,60,0,1,,,,,,,,0,,,79,0
29190,note_on,0,0,2,,,,,,,,1,,,51,66
29190,note_on,30,0,2,,,,,,,,1,,,39,0
29220,note_on,60,0,1,,,,,,,,0,,,78,0
29220,note_on,0,0,1,,,,,,,,0,,,77,68
29220,note_on,0,0,2,,,,,,,,1,,,39,66
29220,note_on,30,0,2,,,,,,,,1,,,51,0
29250,note_on,0,0,2,,,,,,,,1,,,51,65
29250,note_on,30,0,2,,,,,,,,1,,,39,0
29280,note_on,0,0,2,,,,,,,,1,,,39,65
29280,note_on,30,0,2,,,,,,,,1,,,51,0
29280,note_on,60,0,1,,,,,,,,0,,,77,0
29280,note_on,0,0,1,,,,,,,,0,,,76,68
29307,note_on,27,0,1,,,,,,,,0,,,76,0
29310,note_on,0,0,2,,,,,,,,1,,,51,65
29310,note_on,30,0,2,,,,,,,,1,,,39,0
29325,note_on,18,0,1,,,,,,,,0,,,75,68
29340,note_on,30,0,2,,,,,,,,1,,,51,0
29340,note_on,0,0,1,,,,,,,,0,,,65,68
29340,note_on,0,0,1,,,,,,,,0,,,68,0
29340,note_on,15,0,1,,,,,,,,0,,,75,0
29340,note_on,0,0,2,,,,,,,,1,,,39,65
29340,note_on,0,0,1,,,,,,,,0,,,74,68
29340,note_on,0,0,1,,,,,,,,0,,,68,68
29370,note_on,0,0,2,,,,,,,,1,,,51,65
29370,note_on,30,0,2,,,,,,,,1,,,39,0
29400,note_on,60,0,1,,,,,,,,0,,,74,0
29400,note_on,30,0,2,,,,,,,,1,,,51,0
29400,note_on,0,0,2,,,,,,,,1,,,39,65
29400,note_on,0,0,1,,,,,,,,0,,,72,67
29430,note_on,0,0,2,,,,,,,,1,,,51,64
29430,note_on,30,0,2,,,,,,,,1,,,39,0
29460,note_on,0,0,2,,,,,,,,1,,,39,63
29460,note_on,30,0,2,,,,,,,,1,,,51,0
29460,note_on,60,0,1,,,,,,,,0,,,72,0
29460,note_on,0,0,1,,,,,,,,0,,,74,66
29490,note_on,0,0,2,,,,,,,,1,,,51,64
29490,note_on,30,0,2,,,,,,,,1,,,39,0
29520,note_on,0,0,2,,,,,,,,1,,,39,64
29520,note_on,30,0,2,,,,,,,,1,,,51,0
29520,note_on,0,0,1,,,,,,,,0,,,75,66
29520,note_on,0,0,1,,,,,,,,0,,,67,66
29520,note_on,0,0,1,,,,,,,,0,,,65,0
29520,note_on,0,0,1,,,,,,,,0,,,68,0
29520,note_on,60,0,1,,,,,,,,0,,,74,0
29550,note_on,0,0,2,,,,,,,,1,,,51,65
29550,note_on,30,0,2,,,,,,,,1,,,39,0
29580,note_on,0,0,2,,,,,,,,1,,,39,64
29580,note_on,30,0,2,,,,,,,,1,,,51,0
29610,note_on,0,0,2,,,,,,,,1,,,51,64
29610,note_on,30,0,2,,,,,,,,1,,,39,0
29640,note_on,0,0,1,,,,,,,,0,,,67,0
29640,note_on,120,0,1,,,,,,,,0,,,75,0
29640,note_on,30,0,2,,,,,,,,1,,,51,0
29640,note_on,0,0,2,,,,,,,,1,,,39,64
29640,note_on,0,0,1,,,,,,,,0,,,70,67
29670,note_on,30,0,2,,,,,,,,1,,,39,0
29670,note_on,0,0,2,,,,,,,,1,,,51,64
29700,note_on,30,0,2,,,,,,,,1,,,51,0
29700,note_on,60,0,1,,,,,,,,0,,,70,0
29700,note_on,0,0,1,,,,,,,,0,,,75,69
29700,note_on,0,0,2,,,,,,,,1,,,39,64
29730,note_on,30,0,2,,,,,,,,1,,,39,0
29730,note_on,0,0,2,,,,,,,,1,,,51,64
29760,note_on,30,0,2,,,,,,,,1,,,51,0
29760,note_on,0,0,2,,,,,,,,1,,,39,64
29790,note_on,0,0,2,,,,,,,,1,,,51,66
29790,note_on,30,0,2,,,,,,,,1,,,39,0
29820,note_on,0,0,1,,,,,,,,0,,,79,71
29820,note_on,0,0,2,,,,,,,,1,,,39,67
29820,note_on,120,0,1,,,,,,,,0,,,75,0
29820,note_on,30,0,2,,,,,,,,1,,,51,0
29850,note_on,30,0,2,,,,,,,,1,,,39,0
29850,note_on,0,0,2,,,,,,,,1,,,51,68
29880,note_on,30,0,2,,,,,,,,1,,,51,0
29880,note_on,0,0,2,,,,,,,,1,,,39,69
29880,note_on,60,0,1,,,,,,,,0,,,79,0
29880,note_on,0,0,1,,,,,,,,0,,,78,72
29880,note_on,0,0,1,,,,,,,,0,,,68,72
29910,note_on,0,0,2,,,,,,,,1,,,51,72
29910,note_on,30,0,2,,,,,,,,1,,,39,0
29940,note_on,30,0,2,,,,,,,,1,,,51,0
29940,note_on,60,0,1,,,,,,,,0,,,78,0
29940,note_on,0,0,2,,,,,,,,1,,,39,73
29940,note_on,0,0,1,,,,,,,,0,,,77,73
29970,note_on,0,0,2,,,,,,,,1,,,51,73
29970,note_on,30,0,2,,,,,,,,1,,,39,0
30000,note_on,60,0,1,,,,,,,,0,,,77,0
30000,note_on,0,0,2,,,,,,,,1,,,39,74
30000,note_on,30,0,2,,,,,,,,1,,,51,0
30000,note_on,0,0,1,,,,,,,,0,,,76,74
30027,note_on,27,0,1,,,,,,,,0,,,76,0
30030,note_on,0,0,2,,,,,,,,1,,,51,74
30030,note_on,30,0,2,,,,,,,,1,,,39,0
30045,note_on,18,0,1,,,,,,,,0,,,75,76
30060,note_on,0,0,2,,,,,,,,1,,,39,76
30060,note_on,30,0,2,,,,,,,,1,,,51,0
30060,note_on,15,0,1,,,,,,,,0,,,75,0
30060,note_on,0,0,1,,,,,,,,0,,,68,0
30060,note_on,0,0,1,,,,,,,,0,,,65,77
30060,note_on,0,0,1,,,,,,,,0,,,68,77
30060,note_on,0,0,1,,,,,,,,0,,,74,77
30090,note_on,0,0,2,,,,,,,,1,,,51,78
30090,note_on,30,0,2,,,,,,,,1,,,39,0
30120,note_on,60,0,1,,,,,,,,0,,,74,0
30120,note_on,30,0,2,,,,,,,,1,,,51,0
30120,note_on,0,0,2,,,,,,,,1,,,39,79
30120,note_on,0,0,1,,,,,,,,0,,,72,85
30150,note_on,30,0,2,,,,,,,,1,,,39,0
30150,note_on,0,0,2,,,,,,,,1,,,51,80
30180,note_on,60,0,1,,,,,,,,0,,,72,0
30180,note_on,0,0,1,,,,,,,,0,,,74,96
30180,note_on,30,0,2,,,,,,,,1,,,51,0
30180,note_on,0,0,2,,,,,,,,1,,,39,82
30210,note_on,30,0,2,,,,,,,,1,,,39,0
30210,note_on,0,0,2,,,,,,,,1,,,51,86
30240,note_on,0,0,2,,,,,,,,1,,,39,90
30240,note_on,0,0,1,,,,,,,,0,,,70,103
30240,note_on,0,0,1,,,,,,,,0,,,67,103
30240,note_on,0,0,1,,,,,,,,0,,,68,0
30240,note_on,60,0,1,,,,,,,,0,,,74,0
30240,note_on,30,0,2,,,,,,,,1,,,51,0
30240,note_on,0,0,1,,,,,,,,0,,,75,103
30240,note_on,0,0,1,,,,,,,,0,,,65,0
30240,note_on,0,0,2,,,,,,,,1,,,51,90
30300,note_on,60,0,1,,,,,,,,0,,,67,0
30300,note_on,0,0,1,,,,,,,,0,,,70,0
30300,note_on,0,0,1,,,,,,,,0,,,75,0
30300,note_on,0,0,1,,,,,,,,0,,,82,72
30360,note_on,120,0,2,,,,,,,,1,,,51,0
30360,note_on,0,0,2,,,,,,,,1,,,39,0
30360,note_on,60,0,1,,,,,,,,0,,,82,0
30360,note_on,0,0,1,,,,,,,,0,,,79,72
30420,note_on,60,0,1,,,,,,,,0,,,79,0
30420,note_on,0,0,1,,,,,,,,0,,,75,72
30480,note_on,60,0,1,,,,,,,,0,,,75,0
30480,note_on,0,0,1,,,,,,,,0,,,70,72
30540,note_on,0,0,1,,,,,,,,0,,,67,72
30540,note_on,60,0,1,,,,,,,,0,,,70,0
30600,note_on,0,0,1,,,,,,,,0,,,65,72
30600,note_on,60,0,1,,,,,,,,0,,,67,0
30600,note_on,240,0,2,,,,,,,,1,,,44,72
30600,note_on,0,0,2,,,,,,,,1,,,48,72
30600,note_on,0,0,2,,,,,,,,1,,,53,72
30600,note_on,0,0,2,,,,,,,,1,,,56,72
30660,note_on,0,0,1,,,,,,,,0,,,84,72
30660,note_on,60,0,1,,,,,,,,0,,,65,0
30720,note_on,60,0,1,,,,,,,,0,,,84,0
30720,note_on,0,0,1,,,,,,,,0,,,80,72
30780,note_on,60,0,1,,,,,,,,0,,,80,0
30780,note_on,0,0,1,,,,,,,,0,,,77,72
30840,note_on,60,0,1,,,,,,,,0,,,77,0
30840,note_on,0,0,1,,,,,,,,0,,,72,72
30900,note_on,60,0,1,,,,,,,,0,,,72,0
30900,note_on,0,0,1,,,,,,,,0,,,69,72
30960,note_on,60,0,1,,,,,,,,0,,,69,0
30960,note_on,0,0,1,,,,,,,,0,,,67,72
30960,note_on,0,0,2,,,,,,,,1,,,53,0
30960,note_on,0,0,2,,,,,,,,1,,,55,72
30960,note_on,0,0,2,,,,,,,,1,,,51,72
30960,note_on,0,0,2,,,,,,,,1,,,46,72
30960,note_on,0,0,2,,,,,,,,1,,,48,0
30960,note_on,360,0,2,,,,,,,,1,,,56,0
30960,note_on,0,0,2,,,,,,,,1,,,44,0
31020,note_on,60,0,1,,,,,,,,0,,,67,0
31020,note_on,0,0,1,,,,,,,,0,,,82,72
31080,note_on,0,0,1,,,,,,,,0,,,79,72
31080,note_on,60,0,1,,,,,,,,0,,,82,0
31140,note_on,0,0,1,,,,,,,,0,,,75,72
31140,note_on,60,0,1,,,,,,,,0,,,79,0
31200,note_on,60,0,1,,,,,,,,0,,,75,0
31200,note_on,0,0,1,,,,,,,,0,,,70,72
31260,note_on,60,0,1,,,,,,,,0,,,70,0
31260,note_on,0,0,1,,,,,,,,0,,,67,72
31320,note_on,360,0,2,,,,,,,,1,,,55,0
31320,note_on,0,0,1,,,,,,,,0,,,65,72
31320,note_on,0,0,2,,,,,,,,1,,,51,0
31320,note_on,0,0,2,,,,,,,,1,,,46,0
31320,note_on,0,0,2,,,,,,,,1,,,47,72
31320,note_on,0,0,2,,,,,,,,1,,,53,72
31320,note_on,0,0,2,,,,,,,,1,,,56,72
31320,note_on,60,0,1,,,,,,,,0,,,67,0
31380,note_on,60,0,1,,,,,,,,0,,,65,0
31380,note_on,0,0,1,,,,,,,,0,,,80,72
31440,note_on,60,0,1,,,,,,,,0,,,80,0
31440,note_on,0,0,1,,,,,,,,0,,,77,72
31500,note_on,0,0,1,,,,,,,,0,,,74,72
31500,note_on,60,0,1,,,,,,,,0,,,77,0
31560,note_on,60,0,1,,,,,,,,0,,,74,0
31560,note_on,0,0,1,,,,,,,,0,,,68,72
31620,note_on,60,0,1,,,,,,,,0,,,68,0
31620,note_on,0,0,1,,,,,,,,0,,,65,72
31680,note_on,60,0,1,,,,,,,,0,,,65,0
31680,note_on,0,0,1,,,,,,,,0,,,63,72
31680,note_on,360,0,2,,,,,,,,1,,,56,0
31680,note_on,0,0,2,,,,,,,,1,,,55,72
31680,note_on,0,0,2,,,,,,,,1,,,51,72
31680,note_on,0,0,2,,,,,,,,1,,,48,72
31680,note_on,0,0,2,,,,,,,,1,,,47,0
31680,note_on,0,0,2,,,,,,,,1,,,53,0
31740,note_on,60,0,1,,,,,,,,0,,,63,0
31740,note_on,0,0,1,,,,,,,,0,,,79,72
31800,note_on,0,0,1,,,,,,,,0,,,75,72
31800,note_on,60,0,1,,,,,,,,0,,,79,0
31860,note_on,60,0,1,,,,,,,,0,,,75,0
31860,note_on,0,0,1,,,,,,,,0,,,72,72
31920,note_on,0,0,1,,,,,,,,0,,,67,72
31920,note_on,60,0,1,,,,,,,,0,,,72,0
31980,note_on,0,0,1,,,,,,,,0,,,63,72
31980,note_on,60,0,1,,,,,,,,0,,,67,0
32040,note_on,360,0,2,,,,,,,,1,,,55,0
32040,note_on,0,0,2,,,,,,,,1,,,56,72
32040,note_on,0,0,2,,,,,,,,1,,,53,72
32040,note_on,0,0,1,,,,,,,,0,,,60,72
32040,note_on,0,0,2,,,,,,,,1,,,44,72
32040,note_on,0,0,2,,,,,,,,1,,,48,0
32040,note_on,60,0,1,,,,,,,,0,,,63,0
32040,note_on,0,0,2,,,,,,,,1,,,51,0
32100,note_on,0,0,1,,,,,,,,0,,,72,72
32100,note_on,60,0,1,,,,,,,,0,,,60,0
32160,note_on,0,0,1,,,,,,,,0,,,70,72
32160,note_on,60,0,1,,,,,,,,0,,,72,0
32220,note_on,0,0,1,,,,,,,,0,,,68,72
32220,note_on,60,0,1,,,,,,,,0,,,70,0
32280,note_on,60,0,1,,,,,,,,0,,,68,0
32280,note_on,0,0,1,,,,,,,,0,,,67,72
32340,note_on,60,0,1,,,,,,,,0,,,67,0
32340,note_on,0,0,1,,,,,,,,0,,,65,72
32400,note_on,60,0,1,,,,,,,,0,,,65,0
32400,note_on,0,0,1,,,,,,,,0,,,63,72
32400,note_on,0,0,2,,,,,,,,1,,,55,72
32400,note_on,0,0,2,,,,,,,,1,,,51,72
32400,note_on,360,0,2,,,,,,,,1,,,56,0
32400,note_on,0,0,2,,,,,,,,1,,,53,0
32400,note_on,0,0,2,,,,,,,,1,,,46,72
32400,note_on,0,0,2,,,,,,,,1,,,44,0
32460,note_on,0,0,1,,,,,,,,0,,,70,72
32460,note_on,60,0,1,,,,,,,,0,,,63,0
32520,note_on,0,0,1,,,,,,,,0,,,68,72
32520,note_on,60,0,1,,,,,,,,0,,,70,0
32580,note_on,0,0,1,,,,,,,,0,,,67,72
32580,note_on,60,0,1,,,,,,,,0,,,68,0
32640,note_on,0,0,1,,,,,,,,0,,,65,72
32640,note_on,60,0,1,,,,,,,,0,,,67,0
32700,note_on,0,0,1,,,,,,,,0,,,63,72
32700,note_on,60,0,1,,,,,,,,0,,,65,0
32760,note_on,0,0,1,,,,,,,,0,,,62,72
32760,note_on,60,0,1,,,,,,,,0,,,63,0
32760,note_on,360,0,2,,,,,,,,1,,,55,0
32760,note_on,0,0,2,,,,,,,,1,,,56,72
32760,note_on,0,0,2,,,,,,,,1,,,53,72
32760,note_on,0,0,2,,,,,,,,1,,,46,72
32760,note_on,0,0,2,,,,,,,,1,,,46,0
32760,note_on,0,0,2,,,,,,,,1,,,51,0
32820,note_on,60,0,1,,,,,,,,0,,,62,0
32820,note_on,0,0,1,,,,,,,,0,,,68,72
32880,note_on,0,0,1,,,,,,,,0,,,67,72
32880,note_on,60,0,1,,,,,,,,0,,,68,0
32940,note_on,0,0,2,,,,,,,,1,,,47,72
32940,note_on,0,0,1,,,,,,,,0,,,65,72
32940,note_on,180,0,2,,,,,,,,1,,,46,0
32940,note_on,60,0,1,,,,,,,,0,,,67,0
33000,note_on,0,0,1,,,,,,,,0,,,63,72
33000,note_on,60,0,1,,,,,,,,0,,,65,0
33060,note_on,0,0,1,,,,,,,,0,,,62,72
33060,note_on,60,0,1,,,,,,,,0,,,63,0
33120,note_on,180,0,2,,,,,,,,1,,,47,0
33120,note_on,0,0,2,,,,,,,,1,,,51,72
33120,note_on,0,0,2,,,,,,,,1,,,48,72
33120,note_on,0,0,2,,,,,,,,1,,,53,0
33120,note_on,0,0,2,,,,,,,,1,,,56,0
33120,note_on,0,0,2,,,,,,,,1,,,55,72
33120,note_on,0,0,1,,,,,,,,0,,,63,72
33120,note_on,60,0,1,,,,,,,,0,,,62,0
33180,note_on,0,0,1,,,,,,,,0,,,67,72
33180,note_on,60,0,1,,,,,,,,0,,,63,0
33240,note_on,60,0,1,,,,,,,,0,,,67,0
33240,note_on,0,0,1,,,,,,,,0,,,72,72
33300,note_on,0,0,1,,,,,,,,0,,,75,72
33300,note_on,60,0,1,,,,,,,,0,,,72,0
33360,note_on,0,0,1,,,,,,,,0,,,79,72
33360,note_on,60,0,1,,,,,,,,0,,,75,0
33360,note_on,0,0,2,,,,,,,,1,,,51,0
33360,note_on,240,0,2,,,,,,,,1,,,55,0
33360,note_on,0,0,2,,,,,,,,1,,,48,0
33420,note_on,0,0,1,,,,,,,,0,,,84,72
33420,note_on,60,0,1,,,,,,,,0,,,79,0
33480,note_on,60,0,1,,,,,,,,0,,,84,0
33480,note_on,0,0,1,,,,,,,,0,,,81,72
33480,note_on,0,0,2,,,,,,,,1,,,41,72
33480,note_on,0,0,2,,,,,,,,1,,,45,72
33480,note_on,0,0,2,,,,,,,,1,,,48,72
33480,note_on,0,0,2,,,,,,,,1,,,51,72
33480,note_on,120,0,2,,,,,,,,1,,,53,72
33540,note_on,0,0,1,,,,,,,,0,,,87,72
33540,note_on,60,0,1,,,,,,,,0,,,81,0
33600,note_on,0,0,1,,,,,,,,0,,,86,72
33600,note_on,60,0,1,,,,,,,,0,,,87,0
33660,note_on,60,0,1,,,,,,,,0,,,86,0
33660,note_on,0,0,1,,,,,,,,0,,,84,72
33720,note_on,60,0,1,,,,,,,,0,,,84,0
33720,note_on,0,0,1,,,,,,,,0,,,82,72
33780,note_on,60,0,1,,,,,,,,0,,,82,0
33780,note_on,0,0,1,,,,,,,,0,,,81,72
33840,note_on,60,0,1,,,,,,,,0,,,81,0
33840,note_on,0,0,1,,,,,,,,0,,,79,72
33900,note_on,0,0,1,,,,,,,,0,,,77,72
33900,note_on,60,0,1,,,,,,,,0,,,79,0
33960,note_on,0,0,1,,,,,,,,0,,,75,72
33960,note_on,60,0,1,,,,,,,,0,,,77,0
34020,note_on,0,0,1,,,,,,,,0,,,74,72
34020,note_on,60,0,1,,,,,,,,0,,,75,0
34080,note_on,60,0,1,,,,,,,,0,,,74,0
34080,note_on,0,0,1,,,,,,,,0,,,72,72
34140,note_on,0,0,1,,,,,,,,0,,,70,72
34140,note_on,60,0,1,,,,,,,,0,,,72,0
34200,note_on,60,0,1,,,,,,,,0,,,70,0
34200,note_on,0,0,1,,,,,,,,0,,,69,72
34200,note_on,0,0,2,,,,,,,,1,,,48,0
34200,note_on,720,0,2,,,,,,,,1,,,41,0
34200,note_on,0,0,2,,,,,,,,1,,,41,72
34200,note_on,0,0,2,,,,,,,,1,,,45,72
34200,note_on,0,0,2,,,,,,,,1,,,53,0
34200,note_on,0,0,2,,,,,,,,1,,,51,72
34200,note_on,0,0,2,,,,,,,,1,,,45,0
34200,note_on,0,0,2,,,,,,,,1,,,48,72
34200,note_on,0,0,2,,,,,,,,1,,,51,0
34260,note_on,60,0,1,,,,,,,,0,,,69,0
34260,note_on,0,0,1,,,,,,,,0,,,67,72
34320,note_on,60,0,1,,,,,,,,0,,,67,0
34320,note_on,0,0,1,,,,,,,,0,,,65,72
34380,note_on,60,0,1,,,,,,,,0,,,65,0
34380,note_on,0,0,1,,,,,,,,0,,,63,72
34440,note_on,0,0,1,,,,,,,,0,,,62,72
34440,note_on,60,0,1,,,,,,,,0,,,63,0
34500,note_on,0,0,1,,,,,,,,0,,,60,72
34500,note_on,60,0,1,,,,,,,,0,,,62,0
34560,note_on,0,0,1,,,,,,,,0,,,58,72
34560,note_on,60,0,1,,,,,,,,0,,,60,0
34620,note_on,60,0,1,,,,,,,,0,,,58,0
34620,note_on,0,0,1,,,,,,,,0,,,57,72
34680,note_on,60,0,1,,,,,,,,0,,,57,0
34680,note_on,0,0,1,,,,,,,,0,,,55,72
34740,note_on,60,0,1,,,,,,,,0,,,55,0
34740,note_on,0,0,1,,,,,,,,0,,,53,72
34800,note_on,60,0,1,,,,,,,,0,,,53,0
34800,note_on,0,0,1,,,,,,,,0,,,55,72
34860,note_on,60,0,1,,,,,,,,0,,,55,0
34860,note_on,0,0,1,,,,,,,,0,,,57,72
34920,note_on,0,0,2,,,,,,,,1,,,51,0
34920,note_on,0,0,2,,,,,,,,1,,,48,0
34920,note_on,0,0,2,,,,,,,,1,,,45,0
34920,note_on,0,0,2,,,,,,,,1,,,46,72
34920,note_on,720,0,2,,,,,,,,1,,,41,0
34920,note_on,60,0,1,,,,,,,,0,,,57,0
34920,note_on,0,0,1,,,,,,,,0,,,58,72
34980,note_on,60,0,2,,,,,,,,1,,,46,0
34980,note_on,0,0,2,,,,,,,,1,,,41,72
34980,note_on,0,0,1,,,,,,,,0,,,53,72
34980,note_on,60,0,1,,,,,,,,0,,,58,0
35040,note_on,60,0,2,,,,,,,,1,,,41,0
35040,note_on,0,0,2,,,,,,,,1,,,50,72
35040,note_on,0,0,1,,,,,,,,0,,,62,72
35040,note_on,60,0,1,,,,,,,,0,,,53,0
35100,note_on,60,0,1,,,,,,,,0,,,62,0
35100,note_on,0,0,1,,,,,,,,0,,,62,72
35100,note_on,60,0,2,,,,,,,,1,,,50,0
35100,note_on,0,0,2,,,,,,,,1,,,50,72
35160,note_on,0,0,1,,,,,,,,0,,,58,72
35160,note_on,0,0,2,,,,,,,,1,,,46,72
35160,note_on,60,0,2,,,,,,,,1,,,50,0
35160,note_on,60,0,1,,,,,,,,0,,,62,0
35220,note_on,0,0,2,,,,,,,,1,,,53,72
35220,note_on,60,0,2,,,,,,,,1,,,46,0
35220,note_on,0,0,1,,,,,,,,0,,,65,72
35220,note_on,60,0,1,,,,,,,,0,,,58,0
35280,note_on,60,0,2,,,,,,,,1,,,53,0
35280,note_on,60,0,1,,,,,,,,0,,,65,0
35280,note_on,0,0,1,,,,,,,,0,,,65,72
35280,note_on,0,0,2,,,,,,,,1,,,53,72
35340,note_on,60,0,2,,,,,,,,1,,,53,0
35340,note_on,0,0,1,,,,,,,,0,,,62,72
35340,note_on,0,0,2,,,,,,,,1,,,50,72
35340,note_on,60,0,1,,,,,,,,0,,,65,0
35400,note_on,60,0,2,,,,,,,,1,,,50,0
35400,note_on,0,0,2,,,,,,,,1,,,58,72
35400,note_on,60,0,1,,,,,,,,0,,,62,0
35400,note_on,0,0,1,,,,,,,,0,,,70,72
35460,note_on,60,0,2,,,,,,,,1,,,58,0
35460,note_on,60,0,1,,,,,,,,0,,,70,0
35460,note_on,0,0,1,,,,,,,,0,,,70,72
35460,note_on,0,0,2,,,,,,,,1,,,58,72
35520,note_on,60,0,2,,,,,,,,1,,,58,0
35520,note_on,0,0,2,,,,,,,,1,,,53,72
35520,note_on,60,0,1,,,,,,,,0,,,70,0
35520,note_on,0,0,1,,,,,,,,0,,,65,72
35580,note_on,60,0,2,,,,,,,,1,,,53,0
35580,note_on,0,0,2,,,,,,,,1,,,62,72
35580,note_on,0,0,1,,,,,,,,0,,,74,72
35580,note_on,60,0,1,,,,,,,,0,,,65,0
35640,note_on,60,0,2,,,,,,,,1,,,62,0
35640,note_on,0,0,2,,,,,,,,1,,,62,72
35640,note_on,0,0,1,,,,,,,,0,,,74,72
35640,note_on,60,0,1,,,,,,,,0,,,74,0
35700,note_on,0,0,1,,,,,,,,0,,,70,72
35700,note_on,0,0,2,,,,,,,,1,,,58,72
35700,note_on,60,0,1,,,,,,,,0,,,74,0
35700,note_on,60,0,2,,,,,,,,1,,,62,0
35760,note_on,60,0,1,,,,,,,,0,,,70,0
35760,note_on,0,0,1,,,,,,,,0,,,77,72
35760,note_on,60,0,2,,,,,,,,1,,,58,0
35760,note_on,0,0,2,,,,,,,,1,,,65,72
35820,note_on,60,0,1,,,,,,,,0,,,77,0
35820,note_on,60,0,2,,,,,,,,1,,,65,0
35820,note_on,0,0,1,,,,,,,,0,,,77,72
35940,note_on,120,0,2,,,,,,,,1,,,65,72
35940,note_on,120,0,1,,,,,,,,0,,,77,0
35940,note_on,0,0,1,,,,,,,,0,,,72,72
35940,note_on,0,0,1,,,,,,,,0,,,75,72
35940,note_on,0,0,2,,,,,,,,1,,,57,72
36000,note_on,0,0,2,,,,,,,,1,,,65,0
36000,note_on,0,0,1,,,,,,,,0,,,74,72
36000,note_on,0,0,1,,,,,,,,0,,,70,72
36000,note_on,0,0,1,,,,,,,,0,,,72,0
36000,note_on,60,0,2,,,,,,,,1,,,57,0
36000,note_on,60,0,1,,,,,,,,0,,,75,0
36000,note_on,0,0,2,,,,,,,,1,,,58,72
36000,note_on,0,0,2,,,,,,,,1,,,65,72
36060,note_on,0,0,1,,,,,,,,0,,,75,72
36060,note_on,0,0,1,,,,,,,,0,,,72,72
36060,note_on,60,0,1,,,,,,,,0,,,74,0
36060,note_on,0,0,1,,,,,,,,0,,,70,0
36120,note_on,0,0,2,,,,,,,,1,,,58,0
36120,note_on,120,0,2,,,,,,,,1,,,65,0
36120,note_on,0,0,1,,,,,,,,0,,,77,72
36120,note_on,0,0,1,,,,,,,,0,,,74,72
36120,note_on,0,0,1,,,,,,,,0,,,72,0
36120,note_on,60,0,1,,,,,,,,0,,,75,0
36180,note_on,0,0,2,,,,,,,,1,,,63,72
36180,note_on,60,0,2,,,,,,,,1,,,51,72
36180,note_on,0,0,1,,,,,,,,0,,,79,72
36180,note_on,0,0,1,,,,,,,,0,,,75,72
36180,note_on,0,0,1,,,,,,,,0,,,74,0
36180,note_on,60,0,1,,,,,,,,0,,,77,0
36240,note_on,0,0,1,,,,,,,,0,,,72,72
36240,note_on,0,0,1,,,,,,,,0,,,75,0
36240,note_on,0,0,1,,,,,,,,0,,,75,72
36240,note_on,60,0,1,,,,,,,,0,,,79,0
36300,note_on,0,0,1,,,,,,,,0,,,70,72
36300,note_on,0,0,1,,,,,,,,0,,,72,0
36300,note_on,60,0,1,,,,,,,,0,,,75,0
36300,note_on,0,0,2,,,,,,,,1,,,64,72
36300,note_on,0,0,2,,,,,,,,1,,,52,72
36300,note_on,0,0,2,,,,,,,,1,,,51,0
36300,note_on,120,0,2,,,,,,,,1,,,63,0
36300,note_on,0,0,1,,,,,,,,0,,,74,72
36360,note_on,0,0,1,,,,,,,,0,,,72,72
36360,note_on,0,0,1,,,,,,,,0,,,69,72
36360,note_on,0,0,1,,,,,,,,0,,,70,0
36360,note_on,60,0,2,,,,,,,,1,,,64,0
36360,note_on,0,0,2,,,,,,,,1,,,52,0
36360,note_on,0,0,2,,,,,,,,1,,,53,72
36360,note_on,0,0,2,,,,,,,,1,,,65,72
36360,note_on,60,0,1,,,,,,,,0,,,74,0
36420,note_on,60,0,2,,,,,,,,1,,,65,0
36420,note_on,0,0,1,,,,,,,,0,,,72,72
36420,note_on,0,0,1,,,,,,,,0,,,69,72
36420,note_on,0,0,1,,,,,,,,0,,,69,0
36420,note_on,60,0,1,,,,,,,,0,,,72,0
36420,note_on,0,0,2,,,,,,,,1,,,53,0
36420,note_on,0,0,2,,,,,,,,1,,,53,72
36420,note_on,0,0,2,,,,,,,,1,,,65,72
36480,note_on,0,0,2,,,,,,,,1,,,53,0
36480,note_on,0,0,1,,,,,,,,0,,,69,0
36480,note_on,60,0,1,,,,,,,,0,,,72,0
36480,note_on,60,0,2,,,,,,,,1,,,65,0
36480,note_on,0,0,2,,,,,,,,1,,,52,72
36480,note_on,0,0,2,,,,,,,,1,,,64,72
36480,note_on,0,0,1,,,,,,,,0,,,75,72
36480,note_on,0,0,1,,,,,,,,0,,,72,72
36510,note_on,0,0,1,,,,,,,,0,,,70,72
36510,note_on,0,0,1,,,,,,,,0,,,74,72
36510,note_on,0,0,1,,,,,,,,0,,,72,0
36510,note_on,30,0,1,,,,,,,,0,,,75,0
36540,note_on,30,0,1,,,,,,,,0,,,74,0
36540,note_on,0,0,1,,,,,,,,0,,,70,0
36540,note_on,0,0,1,,,,,,,,0,,,69,72
36540,note_on,0,0,1,,,,,,,,0,,,72,72
36540,note_on,0,0,2,,,,,,,,1,,,65,72
36540,note_on,0,0,2,,,,,,,,1,,,53,72
36540,note_on,60,0,2,,,,,,,,1,,,52,0
36540,note_on,0,0,2,,,,,,,,1,,,64,0
36660,note_on,0,0,2,,,,,,,,1,,,53,0
36660,note_on,0,0,1,,,,,,,,0,,,65,72
36660,note_on,0,0,1,,,,,,,,0,,,69,0
36660,note_on,120,0,1,,,,,,,,0,,,72,0
36660,note_on,120,0,2,,,,,,,,1,,,65,0
36690,note_on,30,0,1,,,,,,,,0,,,65,0
36705,note_on,15,0,1,,,,,,,,0,,,67,72
36720,note_on,15,0,1,,,,,,,,0,,,67,0
36720,note_on,0,0,1,,,,,,,,0,,,65,72
36720,note_on,60,0,2,,,,,,,,1,,,58,72
36780,note_on,60,0,1,,,,,,,,0,,,65,0
36780,note_on,0,0,1,,,,,,,,0,,,62,72
36840,note_on,120,0,2,,,,,,,,1,,,58,0
36840,note_on,0,0,1,,,,,,,,0,,,70,72
36840,note_on,60,0,1,,,,,,,,0,,,62,0
36870,note_on,30,0,1,,,,,,,,0,,,70,0
36885,note_on,15,0,1,,,,,,,,0,,,72,72
36900,note_on,15,0,1,,,,,,,,0,,,72,0
36900,note_on,0,0,1,,,,,,,,0,,,70,72
36960,note_on,60,0,1,,,,,,,,0,,,70,0
36960,note_on,0,0,1,,,,,,,,0,,,65,72
37020,note_on,0,0,1,,,,,,,,0,,,74,72
37020,note_on,60,0,1,,,,,,,,0,,,65,0
37050,note_on,30,0,1,,,,,,,,0,,,74,0
37065,note_on,15,0,1,,,,,,,,0,,,75,72
37080,note_on,0,0,1,,,,,,,,0,,,74,72
37080,note_on,15,0,1,,,,,,,,0,,,75,0
37140,note_on,0,0,1,,,,,,,,0,,,70,72
37140,note_on,60,0,1,,,,,,,,0,,,74,0
37200,note_on,0,0,1,,,,,,,,0,,,77,72
37200,note_on,60,0,1,,,,,,,,0,,,70,0
37260,note_on,0,0,1,,,,,,,,0,,,77,72
37260,note_on,60,0,1,,,,,,,,0,,,77,0
37380,note_on,0,0,1,,,,,,,,0,,,76,72
37380,note_on,0,0,1,,,,,,,,0,,,79,72
37380,note_on,120,0,1,,,,,,,,0,,,77,0
37380,note_on,540,0,2,,,,,,,,1,,,58,72
37380,note_on,0,0,2,,,,,,,,1,,,60,72
37440,note_on,0,0,1,,,,,,,,0,,,81,72
37440,note_on,0,0,1,,,,,,,,0,,,77,72
37440,note_on,0,0,1,,,,,,,,0,,,79,0
37440,note_on,60,0,2,,,,,,,,1,,,60,0
37440,note_on,0,0,2,,,,,,,,1,,,58,0
37440,note_on,60,0,1,,,,,,,,0,,,76,0
37440,note_on,0,0,2,,,,,,,,1,,,60,72
37440,note_on,0,0,2,,,,,,,,1,,,57,72
37500,note_on,60,0,2,,,,,,,,1,,,60,0
37500,note_on,0,0,2,,,,,,,,1,,,57,0
37500,note_on,0,0,2,,,,,,,,1,,,55,72
37500,note_on,0,0,1,,,,,,,,0,,,79,72
37500,note_on,0,0,1,,,,,,,,0,,,82,72
37500,note_on,0,0,1,,,,,,,,0,,,81,0
37500,note_on,60,0,1,,,,,,,,0,,,77,0
37560,note_on,0,0,1,,,,,,,,0,,,84,72
37560,note_on,0,0,1,,,,,,,,0,,,82,0
37560,note_on,60,0,1,,,,,,,,0,,,79,0
37560,note_on,0,0,1,,,,,,,,0,,,81,72
37560,note_on,0,0,2,,,,,,,,1,,,53,72
37560,note_on,60,0,2,,,,,,,,1,,,55,0
37620,note_on,0,0,1,,,,,,,,0,,,82,72
37620,note_on,0,0,2,,,,,,,,1,,,58,72
37620,note_on,60,0,2,,,,,,,,1,,,53,0
37620,note_on,60,0,1,,,,,,,,0,,,81,0
37620,note_on,0,0,1,,,,,,,,0,,,84,0
37620,note_on,0,0,1,,,,,,,,0,,,79,72
37680,note_on,0,0,1,,,,,,,,0,,,77,72
37680,note_on,0,0,1,,,,,,,,0,,,81,72
37680,note_on,60,0,1,,,,,,,,0,,,79,0
37680,note_on,0,0,1,,,,,,,,0,,,82,0
37740,note_on,120,0,2,,,,,,,,1,,,58,0
37740,note_on,0,0,2,,,,,,,,1,,,60,72
37740,note_on,60,0,1,,,,,,,,0,,,77,0
37740,note_on,0,0,1,,,,,,,,0,,,81,0
37740,note_on,0,0,1,,,,,,,,0,,,76,72
37740,note_on,0,0,1,,,,,,,,0,,,79,72
37800,note_on,0,0,1,,,,,,,,0,,,77,72
37800,note_on,0,0,1,,,,,,,,0,,,69,72
37800,note_on,60,0,2,,,,,,,,1,,,60,0
37800,note_on,60,0,1,,,,,,,,0,,,79,0
37800,note_on,0,0,2,,,,,,,,1,,,53,72
37800,note_on,0,0,1,,,,,,,,0,,,76,0
37860,note_on,60,0,1,,,,,,,,0,,,77,0
37860,note_on,0,0,1,,,,,,,,0,,,77,72
37860,note_on,0,0,1,,,,,,,,0,,,69,0
37860,note_on,0,0,1,,,,,,,,0,,,69,72
37860,note_on,60,0,2,,,,,,,,1,,,53,0
37860,note_on,0,0,2,,,,,,,,1,,,48,72
37920,note_on,0,0,1,,,,,,,,0,,,77,72
37920,note_on,0,0,1,,,,,,,,0,,,69,72
37920,note_on,0,0,1,,,,,,,,0,,,69,0
37920,note_on,60,0,1,,,,,,,,0,,,77,0
37920,note_on,0,0,2,,,,,,,,1,,,45,72
37920,note_on,60,0,2,,,,,,,,1,,,48,0
37980,note_on,0,0,2,,,,,,,,1,,,41,72
37980,note_on,60,0,2,,,,,,,,1,,,45,0
37980,note_on,0,0,1,,,,,,,,0,,,69,0
37980,note_on,60,0,1,,,,,,,,0,,,77,0
37980,note_on,0,0,1,,,,,,,,0,,,77,72
37980,note_on,0,0,1,,,,,,,,0,,,69,72
38040,note_on,60,0,1,,,,,,,,0,,,77,0
38040,note_on,0,0,1,,,,,,,,0,,,69,0
38055,note_on,15,0,1,,,,,,,,0,,,72,72
38070,note_on,0,0,1,,,,,,,,0,,,74,72
38070,note_on,15,0,1,,,,,,,,0,,,72,0
38085,note_on,15,0,1,,,,,,,,0,,,74,0
38085,note_on,0,0,1,,,,,,,,0,,,75,72
38100,note_on,120,0,2,,,,,,,,1,,,41,0
38100,note_on,15,0,1,,,,,,,,0,,,75,0
38100,note_on,0,0,1,,,,,,,,0,,,77,72
38115,note_on,15,0,1,,,,,,,,0,,,77,0
38115,note_on,0,0,1,,,,,,,,0,,,79,72
38130,note_on,0,0,1,,,,,,,,0,,,81,72
38130,note_on,15,0,1,,,,,,,,0,,,79,0
38145,note_on,15,0,1,,,,,,,,0,,,81,0
38145,note_on,0,0,1,,,,,,,,0,,,82,72
38160,note_on,0,0,2,,,,,,,,1,,,53,66
38160,note_on,60,0,2,,,,,,,,1,,,63,66
38160,note_on,0,0,1,,,,,,,,0,,,84,90
38160,note_on,15,0,1,,,,,,,,0,,,82,0
38190,note_on,30,0,2,,,,,,,,1,,,63,0
38190,note_on,0,0,2,,,,,,,,1,,,65,69
38220,note_on,30,0,2,,,,,,,,1,,,65,0
38220,note_on,0,0,2,,,,,,,,1,,,63,72
38250,note_on,30,0,2,,,,,,,,1,,,63,0
38250,note_on,0,0,2,,,,,,,,1,,,65,73
38280,note_on,0,0,1,,,,,,,,0,,,82,90
38280,note_on,120,0,1,,,,,,,,0,,,84,0
38280,note_on,0,0,2,,,,,,,,1,,,63,73
38280,note_on,30,0,2,,,,,,,,1,,,65,0
38310,note_on,0,0,2,,,,,,,,1,,,65,73
38310,note_on,30,0,2,,,,,,,,1,,,63,0
38310,note_on,30,0,1,,,,,,,,0,,,82,0
38325,note_on,15,0,1,,,,,,,,0,,,82,90
38340,note_on,30,0,2,,,,,,,,1,,,65,0
38340,note_on,0,0,2,,,,,,,,1,,,53,0
38340,note_on,0,0,2,,,,,,,,1,,,63,73
38340,note_on,0,0,2,,,,,,,,1,,,53,73
38340,note_on,0,0,1,,,,,,,,0,,,81,90
38340,note_on,15,0,1,,,,,,,,0,,,82,0
38370,note_on,30,0,2,,,,,,,,1,,,63,0
38370,note_on,0,0,2,,,,,,,,1,,,65,72
38400,note_on,0,0,2,,,,,,,,1,,,63,71
38400,note_on,30,0,2,,,,,,,,1,,,65,0
38400,note_on,0,0,1,,,,,,,,0,,,79,90
38400,note_on,60,0,1,,,,,,,,0,,,81,0
38430,note_on,30,0,2,,,,,,,,1,,,63,0
38430,note_on,0,0,2,,,,,,,,1,,,65,71
38460,note_on,30,0,2,,,,,,,,1,,,65,0
38460,note_on,0,0,2,,,,,,,,1,,,63,70
38460,note_on,0,0,1,,,,,,,,0,,,81,90
38460,note_on,60,0,1,,,,,,,,0,,,79,0
38490,note_on,0,0,2,,,,,,,,1,,,65,69
38490,note_on,30,0,2,,,,,,,,1,,,63,0
38520,note_on,0,0,2,,,,,,,,1,,,62,69
38520,note_on,0,0,2,,,,,,,,1,,,53,0
38520,note_on,0,0,1,,,,,,,,0,,,82,90
38520,note_on,60,0,1,,,,,,,,0,,,81,0
38520,note_on,0,0,2,,,,,,,,1,,,53,69
38520,note_on,30,0,2,,,,,,,,1,,,65,0
38550,note_on,30,0,2,,,,,,,,1,,,62,0
38550,note_on,0,0,2,,,,,,,,1,,,65,69
38580,note_on,30,0,2,,,,,,,,1,,,65,0
38580,note_on,0,0,2,,,,,,,,1,,,62,70
38610,note_on,30,0,2,,,,,,,,1,,,62,0
38610,note_on,0,0,2,,,,,,,,1,,,65,71
38640,note_on,0,0,2,,,,,,,,1,,,62,72
38640,note_on,30,0,2,,,,,,,,1,,,65,0
38640,note_on,0,0,1,,,,,,,,0,,,77,90
38640,note_on,120,0,1,,,,,,,,0,,,82,0
38670,note_on,0,0,2,,,,,,,,1,,,65,72
38670,note_on,30,0,2,,,,,,,,1,,,62,0
38700,note_on,60,0,1,,,,,,,,0,,,77,0
38700,note_on,0,0,2,,,,,,,,1,,,53,72
38700,note_on,0,0,2,,,,,,,,1,,,62,72
38700,note_on,0,0,2,,,,,,,,1,,,53,0
38700,note_on,0,0,1,,,,,,,,0,,,74,90
38700,note_on,30,0,2,,,,,,,,1,,,65,0
38730,note_on,0,0,2,,,,,,,,1,,,65,72
38730,note_on,30,0,2,,,,,,,,1,,,62,0
38760,note_on,0,0,2,,,,,,,,1,,,62,73
38760,note_on,30,0,2,,,,,,,,1,,,65,0
38790,note_on,0,0,2,,,,,,,,1,,,65,73
38790,note_on,30,0,2,,,,,,,,1,,,62,0
38820,note_on,0,0,2,,,,,,,,1,,,62,73
38820,note_on,30,0,2,,,,,,,,1,,,65,0
38820,note_on,120,0,1,,,,,,,,0,,,74,0
38820,note_on,0,0,1,,,,,,,,0,,,82,90
38850,note_on,0,0,2,,,,,,,,1,,,65,72
38850,note_on,30,0,2,,,,,,,,1,,,62,0
38850,note_on,30,0,1,,,,,,,,0,,,82,0
38865,note_on,15,0,1,,,,,,,,0,,,86,80
38880,note_on,0,0,1,,,,,,,,0,,,84,90
38880,note_on,15,0,1,,,,,,,,0,,,86,0
38880,note_on,0,0,2,,,,,,,,1,,,63,72
38880,note_on,0,0,2,,,,,,,,1,,,53,72
38880,note_on,0,0,2,,,,,,,,1,,,53,0
38880,note_on,30,0,2,,,,,,,,1,,,65,0
38910,note_on,30,0,2,,,,,,,,1,,,63,0
38910,note_on,0,0,2,,,,,,,,1,,,65,72
38940,note_on,30,0,2,,,,,,,,1,,,65,0
38940,note_on,0,0,2,,,,,,,,1,,,63,73
38970,note_on,30,0,2,,,,,,,,1,,,63,0
38970,note_on,0,0,2,,,,,,,,1,,,65,74
39000,note_on,0,0,2,,,,,,,,1,,,63,75
39000,note_on,0,0,1,,,,,,,,0,,,82,90
39000,note_on,120,0,1,,,,,,,,0,,,84,0
39000,note_on,30,0,2,,,,,,,,1,,,65,0
39030,note_on,30,0,1,,,,,,,,0,,,82,0
39030,note_on,30,0,2,,,,,,,,1,,,63,0
39030,note_on,0,0,2,,,,,,,,1,,,65,75
39045,note_on,15,0,1,,,,,,,,0,,,82,80
39060,note_on,0,0,2,,,,,,,,1,,,53,75
39060,note_on,15,0,1,,,,,,,,0,,,82,0
39060,note_on,0,0,1,,,,,,,,0,,,81,90
39060,note_on,0,0,2,,,,,,,,1,,,53,0
39060,note_on,30,0,2,,,,,,,,1,,,65,0
39060,note_on,0,0,2,,,,,,,,1,,,63,75
39090,note_on,0,0,2,,,,,,,,1,,,65,74
39090,note_on,30,0,2,,,,,,,,1,,,63,0
39120,note_on,0,0,1,,,,,,,,0,,,79,90
39120,note_on,60,0,1,,,,,,,,0,,,81,0
39120,note_on,30,0,2,,,,,,,,1,,,65,0
39120,note_on,0,0,2,,,,,,,,1,,,63,73
39150,note_on,30,0,2,,,,,,,,1,,,63,0
39150,note_on,0,0,2,,,,,,,,1,,,65,75
39180,note_on,0,0,1,,,,,,,,0,,,81,90
39180,note_on,60,0,1,,,,,,,,0,,,79,0
39180,note_on,30,0,2,,,,,,,,1,,,65,0
39180,note_on,0,0,2,,,,,,,,1,,,63,76
39210,note_on,0,0,2,,,,,,,,1,,,65,76
39210,note_on,30,0,2,,,,,,,,1,,,63,0
39240,note_on,0,0,2,,,,,,,,1,,,62,77
39240,note_on,0,0,2,,,,,,,,1,,,53,77
39240,note_on,0,0,2,,,,,,,,1,,,53,0
39240,note_on,30,0,2,,,,,,,,1,,,65,0
39240,note_on,60,0,1,,,,,,,,0,,,81,0
39240,note_on,0,0,1,,,,,,,,0,,,82,90
39270,note_on,0,0,2,,,,,,,,1,,,65,77
39270,note_on,30,0,2,,,,,,,,1,,,62,0
39300,note_on,0,0,2,,,,,,,,1,,,62,77
39300,note_on,30,0,2,,,,,,,,1,,,65,0
39330,note_on,0,0,2,,,,,,,,1,,,65,78
39330,note_on,30,0,2,,,,,,,,1,,,62,0
39360,note_on,30,0,2,,,,,,,,1,,,65,0
39360,note_on,120,0,1,,,,,,,,0,,,82,0
39360,note_on,0,0,1,,,,,,,,0,,,77,90
39360,note_on,0,0,2,,,,,,,,1,,,62,78
39390,note_on,0,0,2,,,,,,,,1,,,65,78
39390,note_on,30,0,2,,,,,,,,1,,,62,0
39420,note_on,0,0,1,,,,,,,,0,,,82,90
39420,note_on,0,0,2,,,,,,,,1,,,62,78
39420,note_on,0,0,2,,,,,,,,1,,,53,78
39420,note_on,0,0,2,,,,,,,,1,,,53,0
39420,note_on,30,0,2,,,,,,,,1,,,65,0
39420,note_on,60,0,1,,,,,,,,0,,,77,0
39450,note_on,0,0,2,,,,,,,,1,,,65,77
39450,note_on,30,0,2,,,,,,,,1,,,62,0
39480,note_on,0,0,2,,,,,,,,1,,,62,75
39480,note_on,30,0,2,,,,,,,,1,,,65,0
39510,note_on,0,0,2,,,,,,,,1,,,65,74
39510,note_on,30,0,2,,,,,,,,1,,,62,0
39540,note_on,120,0,1,,,,,,,,0,,,82,0
39540,note_on,0,0,1,,,,,,,,0,,,86,90
39540,note_on,30,0,2,,,,,,,,1,,,65,0
39540,note_on,0,0,2,,,,,,,,1,,,62,72
39570,note_on,30,0,1,,,,,,,,0,,,86,0
39570,note_on,30,0,2,,,,,,,,1,,,62,0
39570,note_on,0,0,2,,,,,,,,1,,,65,69
39585,note_on,15,0,1,,,,,,,,0,,,86,80
39600,note_on,30,0,2,,,,,,,,1,,,65,0
39600,note_on,0,0,2,,,,,,,,1,,,53,0
39600,note_on,0,0,2,,,,,,,,1,,,62,67
39600,note_on,15,0,1,,,,,,,,0,,,86,0
39600,note_on,0,0,1,,,,,,,,0,,,84,90
39630,note_on,30,0,2,,,,,,,,1,,,62,0
39630,note_on,0,0,2,,,,,,,,1,,,65,67
39660,note_on,30,0,2,,,,,,,,1,,,65,0
39660,note_on,0,0,2,,,,,,,,1,,,62,67
39690,note_on,0,0,2,,,,,,,,1,,,65,68
39690,note_on,30,0,2,,,,,,,,1,,,62,0
39720,note_on,0,0,1,,,,,,,,0,,,82,90
39720,note_on,120,0,1,,,,,,,,0,,,84,0
39720,note_on,0,0,2,,,,,,,,1,,,62,70
39720,note_on,30,0,2,,,,,,,,1,,,65,0
39750,note_on,30,0,2,,,,,,,,1,,,62,0
39750,note_on,0,0,2,,,,,,,,1,,,65,71
39750,note_on,30,0,1,,,,,,,,0,,,82,0
39765,note_on,15,0,1,,,,,,,,0,,,82,80
39780,note_on,15,0,1,,,,,,,,0,,,82,0
39780,note_on,0,0,1,,,,,,,,0,,,81,90
39780,note_on,30,0,2,,,,,,,,1,,,65,0
39780,note_on,0,0,2,,,,,,,,1,,,60,73
39810,note_on,0,0,2,,,,,,,,1,,,63,74
39810,note_on,30,0,2,,,,,,,,1,,,60,0
39840,note_on,60,0,1,,,,,,,,0,,,81,0
39840,note_on,0,0,1,,,,,,,,0,,,79,90
39840,note_on,30,0,2,,,,,,,,1,,,63,0
39840,note_on,0,0,2,,,,,,,,1,,,60,75
39870,note_on,0,0,2,,,,,,,,1,,,63,75
39870,note_on,30,0,2,,,,,,,,1,,,60,0
39900,note_on,60,0,1,,,,,,,,0,,,79,0
39900,note_on,0,0,1,,,,,,,,0,,,81,90
39900,note_on,30,0,2,,,,,,,,1,,,63,0
39900,note_on,0,0,2,,,,,,,,1,,,60,75
39930,note_on,30,0,2,,,,,,,,1,,,60,0
39930,note_on,0,0,2,,,,,,,,1,,,63,76
39960,note_on,30,0,2,,,,,,,,1,,,63,0
39960,note_on,0,0,1,,,,,,,,0,,,82,90
39960,note_on,60,0,1,,,,,,,,0,,,81,0
39960,note_on,0,0,2,,,,,,,,1,,,58,77
39990,note_on,0,0,2,,,,,,,,1,,,62,77
39990,note_on,30,0,2,,,,,,,,1,,,58,0
40020,note_on,30,0,2,,,,,,,,1,,,62,0
40020,note_on,0,0,2,,,,,,,,1,,,58,77
40050,note_on,30,0,2,,,,,,,,1,,,58,0
40050,note_on,0,0,2,,,,,,,,1,,,62,75
40080,note_on,30,0,2,,,,,,,,1,,,62,0
40080,note_on,0,0,2,,,,,,,,1,,,58,72
40110,note_on,0,0,2,,,,,,,,1,,,62,71
40110,note_on,30,0,2,,,,,,,,1,,,58,0
40140,note_on,180,0,1,,,,,,,,0,,,82,0
40140,note_on,0,0,1,,,,,,,,0,,,77,90
40140,note_on,0,0,2,,,,,,,,1,,,57,70
40140,note_on,30,0,2,,,,,,,,1,,,62,0
40140,note_on,0,0,2,,,,,,,,1,,,53,70
40170,note_on,0,0,2,,,,,,,,1,,,53,0
40170,note_on,30,0,2,,,,,,,,1,,,57,0
40170,note_on,0,0,2,,,,,,,,1,,,62,69
40200,note_on,0,0,2,,,,,,,,1,,,53,69
40200,note_on,30,0,2,,,,,,,,1,,,62,0
40200,note_on,0,0,2,,,,,,,,1,,,57,69
40230,note_on,0,0,2,,,,,,,,1,,,62,69
40230,note_on,0,0,2,,,,,,,,1,,,53,0
40230,note_on,30,0,2,,,,,,,,1,,,57,0
40260,note_on,0,0,1,,,,,,,,0,,,78,90
40260,note_on,30,0,2,,,,,,,,1,,,62,0
40260,note_on,0,0,2,,,,,,,,1,,,53,71
40260,note_on,0,0,2,,,,,,,,1,,,57,71
40260,note_on,120,0,1,,,,,,,,0,,,77,0
40290,note_on,0,0,2,,,,,,,,1,,,53,0
40290,note_on,30,0,2,,,,,,,,1,,,57,0
40290,note_on,0,0,2,,,,,,,,1,,,63,72
40320,note_on,0,0,2,,,,,,,,1,,,55,74
40320,note_on,30,0,2,,,,,,,,1,,,63,0
40320,note_on,60,0,1,,,,,,,,0,,,78,0
40320,note_on,0,0,1,,,,,,,,0,,,79,90
40320,note_on,0,0,2,,,,,,,,1,,,58,74
40350,note_on,30,0,2,,,,,,,,1,,,58,0
40350,note_on,0,0,2,,,,,,,,1,,,62,74
40380,note_on,30,0,2,,,,,,,,1,,,62,0
40380,note_on,0,0,2,,,,,,,,1,,,58,74
40410,note_on,30,0,2,,,,,,,,1,,,58,0
40410,note_on,0,0,2,,,,,,,,1,,,62,74
40440,note_on,0,0,1,,,,,,,,0,,,79,90
40440,note_on,30,0,2,,,,,,,,1,,,62,0
40440,note_on,0,0,2,,,,,,,,1,,,58,74
40440,note_on,120,0,1,,,,,,,,0,,,79,0
40470,note_on,30,0,2,,,,,,,,1,,,58,0
40470,note_on,0,0,2,,,,,,,,1,,,62,74
40470,note_on,30,0,1,,,,,,,,0,,,79,0
40485,note_on,15,0,1,,,,,,,,0,,,81,90
40500,note_on,30,0,2,,,,,,,,1,,,62,0
40500,note_on,15,0,1,,,,,,,,0,,,81,0
40500,note_on,0,0,1,,,,,,,,0,,,79,90
40500,note_on,0,0,2,,,,,,,,1,,,55,0
40500,note_on,0,0,2,,,,,,,,1,,,55,73
40500,note_on,0,0,2,,,,,,,,1,,,58,73
40530,note_on,30,0,2,,,,,,,,1,,,58,0
40530,note_on,0,0,2,,,,,,,,1,,,62,71
40560,note_on,30,0,2,,,,,,,,1,,,62,0
40560,note_on,0,0,1,,,,,,,,0,,,78,90
40560,note_on,60,0,1,,,,,,,,0,,,79,0
40560,note_on,0,0,2,,,,,,,,1,,,58,69
40590,note_on,0,0,2,,,,,,,,1,,,62,68
40590,note_on,30,0,2,,,,,,,,1,,,58,0
40620,note_on,60,0,1,,,,,,,,0,,,78,0
40620,note_on,30,0,2,,,,,,,,1,,,62,0
40620,note_on,0,0,2,,,,,,,,1,,,58,69
40620,note_on,0,0,1,,,,,,,,0,,,79,90
40650,note_on,0,0,2,,,,,,,,1,,,62,71
40650,note_on,30,0,2,,,,,,,,1,,,58,0
40680,note_on,60,0,1,,,,,,,,0,,,79,0
40680,note_on,0,0,1,,,,,,,,0,,,81,90
40680,note_on,30,0,2,,,,,,,,1,,,62,0
40680,note_on,0,0,2,,,,,,,,1,,,55,0
40680,note_on,0,0,2,,,,,,,,1,,,50,73
40680,note_on,0,0,2,,,,,,,,1,,,60,73
40710,note_on,30,0,2,,,,,,,,1,,,60,0
40710,note_on,0,0,2,,,,,,,,1,,,62,75
40740,note_on,30,0,2,,,,,,,,1,,,62,0
40740,note_on,0,0,2,,,,,,,,1,,,60,76
40770,note_on,0,0,2,,,,,,,,1,,,62,76
40770,note_on,30,0,2,,,,,,,,1,,,60,0
40800,note_on,30,0,2,,,,,,,,1,,,62,0
40800,note_on,0,0,2,,,,,,,,1,,,60,76
40800,note_on,120,0,1,,,,,,,,0,,,81,0
40800,note_on,0,0,1,,,,,,,,0,,,78,90
40830,note_on,30,0,2,,,,,,,,1,,,60,0
40830,note_on,0,0,2,,,,,,,,1,,,62,75
40860,note_on,30,0,2,,,,,,,,1,,,62,0
40860,note_on,0,0,2,,,,,,,,1,,,50,0
40860,note_on,0,0,2,,,,,,,,1,,,50,75
40860,note_on,0,0,2,,,,,,,,1,,,60,75
40860,note_on,60,0,1,,,,,,,,0,,,78,0
40860,note_on,0,0,1,,,,,,,,0,,,74,90
40890,note_on,0,0,2,,,,,,,,1,,,62,76
40890,note_on,30,0,2,,,,,,,,1,,,60,0
40920,note_on,30,0,2,,,,,,,,1,,,62,0
40920,note_on,0,0,2,,,,,,,,1,,,60,76
40950,note_on,30,0,2,,,,,,,,1,,,60,0
40950,note_on,0,0,2,,,,,,,,1,,,62,76
40980,note_on,0,0,2,,,,,,,,1,,,60,74
40980,note_on,30,0,2,,,,,,,,1,,,62,0
40980,note_on,0,0,1,,,,,,,,0,,,78,90
40980,note_on,120,0,1,,,,,,,,0,,,74,0
41010,note_on,30,0,2,,,,,,,,1,,,60,0
41010,note_on,0,0,2,,,,,,,,1,,,62,73
41040,note_on,0,0,1,,,,,,,,0,,,79,87
41040,note_on,60,0,1,,,,,,,,0,,,78,0
41040,note_on,0,0,2,,,,,,,,1,,,55,73
41040,note_on,0,0,2,,,,,,,,1,,,50,0
41040,note_on,0,0,2,,,,,,,,1,,,58,73
41040,note_on,30,0,2,,,,,,,,1,,,62,0
41055,note_on,0,0,1,,,,,,,,0,,,81,88
41055,note_on,15,0,1,,,,,,,,0,,,79,0
41070,note_on,30,0,2,,,,,,,,1,,,58,0
41070,note_on,0,0,2,,,,,,,,1,,,62,73
41070,note_on,15,0,1,,,,,,,,0,,,81,0
41070,note_on,0,0,1,,,,,,,,0,,,79,88
41085,note_on,0,0,1,,,,,,,,0,,,81,88
41085,note_on,15,0,1,,,,,,,,0,,,79,0
41100,note_on,0,0,1,,,,,,,,0,,,79,89
41100,note_on,15,0,1,,,,,,,,0,,,81,0
41100,note_on,30,0,2,,,,,,,,1,,,62,0
41100,note_on,0,0,2,,,,,,,,1,,,58,73
41115,note_on,15,0,1,,,,,,,,0,,,79,0
41115,note_on,0,0,1,,,,,,,,0,,,81,89
41130,note_on,30,0,2,,,,,,,,1,,,58,0
41130,note_on,0,0,2,,,,,,,,1,,,62,74
41130,note_on,15,0,1,,,,,,,,0,,,81,0
41130,note_on,0,0,1,,,,,,,,0,,,79,89
41145,note_on,15,0,1,,,,,,,,0,,,79,0
41145,note_on,0,0,1,,,,,,,,0,,,81,89
41160,note_on,30,0,2,,,,,,,,1,,,62,0
41160,note_on,15,0,1,,,,,,,,0,,,81,0
41160,note_on,0,0,1,,,,,,,,0,,,82,88
41160,note_on,0,0,2,,,,,,,,1,,,58,77
41190,note_on,30,0,2,,,,,,,,1,,,58,0
41190,note_on,0,0,2,,,,,,,,1,,,62,78
41220,note_on,60,0,1,,,,,,,,0,,,82,0
41220,note_on,0,0,2,,,,,,,,1,,,58,79
41220,note_on,0,0,1,,,,,,,,0,,,79,88
41220,note_on,0,0,2,,,,,,,,1,,,55,0
41220,note_on,0,0,2,,,,,,,,1,,,55,79
41220,note_on,30,0,2,,,,,,,,1,,,62,0
41235,note_on,15,0,1,,,,,,,,0,,,79,0
41235,note_on,0,0,1,,,,,,,,0,,,81,89
41250,note_on,0,0,1,,,,,,,,0,,,79,90
41250,note_on,15,0,1,,,,,,,,0,,,81,0
41250,note_on,0,0,2,,,,,,,,1,,,62,80
41250,note_on,30,0,2,,,,,,,,1,,,58,0
41265,note_on,0,0,1,,,,,,,,0,,,81,90
41265,note_on,15,0,1,,,,,,,,0,,,79,0
41280,note_on,0,0,1,,,,,,,,0,,,79,90
41280,note_on,15,0,1,,,,,,,,0,,,81,0
41280,note_on,0,0,2,,,,,,,,1,,,58,81
41280,note_on,30,0,2,,,,,,,,1,,,62,0
41295,note_on,0,0,1,,,,,,,,0,,,81,90
41295,note_on,15,0,1,,,,,,,,0,,,79,0
41310,note_on,0,0,1,,,,,,,,0,,,79,90
41310,note_on,15,0,1,,,,,,,,0,,,81,0
41310,note_on,30,0,2,,,,,,,,1,,,58,0
41310,note_on,0,0,2,,,,,,,,1,,,62,81
41325,note_on,15,0,1,,,,,,,,0,,,79,0
41325,note_on,0,0,1,,,,,,,,0,,,81,90
41340,note_on,0,0,1,,,,,,,,0,,,82,89
41340,note_on,0,0,2,,,,,,,,1,,,58,80
41340,note_on,30,0,2,,,,,,,,1,,,62,0
41340,note_on,15,0,1,,,,,,,,0,,,81,0
41370,note_on,0,0,2,,,,,,,,1,,,62,79
41370,note_on,30,0,2,,,,,,,,1,,,58,0
41400,note_on,0,0,1,,,,,,,,0,,,79,89
41400,note_on,60,0,1,,,,,,,,0,,,82,0
41400,note_on,0,0,2,,,,,,,,1,,,58,77
41400,note_on,30,0,2,,,,,,,,1,,,62,0
41400,note_on,0,0,2,,,,,,,,1,,,55,0
41400,note_on,0,0,2,,,,,,,,1,,,55,77
41415,note_on,0,0,1,,,,,,,,0,,,81,90
41415,note_on,15,0,1,,,,,,,,0,,,79,0
41430,note_on,0,0,2,,,,,,,,1,,,60,77
41430,note_on,30,0,2,,,,,,,,1,,,58,0
41430,note_on,0,0,1,,,,,,,,0,,,79,91
41430,note_on,15,0,1,,,,,,,,0,,,81,0
41445,note_on,15,0,1,,,,,,,,0,,,79,0
41445,note_on,0,0,1,,,,,,,,0,,,81,91
41460,note_on,30,0,2,,,,,,,,1,,,60,0
41460,note_on,15,0,1,,,,,,,,0,,,81,0
41460,note_on,0,0,1,,,,,,,,0,,,79,92
41460,note_on,0,0,2,,,,,,,,1,,,58,75
41475,note_on,15,0,1,,,,,,,,0,,,79,0
41475,note_on,0,0,1,,,,,,,,0,,,81,92
41490,note_on,15,0,1,,,,,,,,0,,,81,0
41490,note_on,0,0,1,,,,,,,,0,,,79,92
41490,note_on,30,0,2,,,,,,,,1,,,58,0
41490,note_on,0,0,2,,,,,,,,1,,,60,75
41505,note_on,0,0,1,,,,,,,,0,,,81,92
41505,note_on,15,0,1,,,,,,,,0,,,79,0
41520,note_on,30,0,2,,,,,,,,1,,,60,0
41520,note_on,0,0,2,,,,,,,,1,,,58,75
41520,note_on,0,0,1,,,,,,,,0,,,82,92
41520,note_on,15,0,1,,,,,,,,0,,,81,0
41550,note_on,30,0,2,,,,,,,,1,,,58,0
41550,note_on,0,0,2,,,,,,,,1,,,60,74
41580,note_on,0,0,1,,,,,,,,0,,,72,89
41580,note_on,60,0,1,,,,,,,,0,,,82,0
41580,note_on,30,0,2,,,,,,,,1,,,60,0
41580,note_on,0,0,2,,,,,,,,1,,,58,73
41580,note_on,0,0,2,,,,,,,,1,,,55,73
41580,note_on,0,0,2,,,,,,,,1,,,55,0
41610,note_on,0,0,2,,,,,,,,1,,,60,73
41610,note_on,30,0,2,,,,,,,,1,,,58,0
41640,note_on,0,0,2,,,,,,,,1,,,58,73
41640,note_on,60,0,1,,,,,,,,0,,,72,0
41640,note_on,30,0,2,,,,,,,,1,,,60,0
41640,note_on,0,0,1,,,,,,,,0,,,74,90
41670,note_on,0,0,2,,,,,,,,1,,,60,72
41670,note_on,30,0,2,,,,,,,,1,,,58,0
41700,note_on,0,0,1,,,,,,,,0,,,76,90
41700,note_on,60,0,1,,,,,,,,0,,,74,0
41700,note_on,30,0,2,,,,,,,,1,,,60,0
41700,note_on,0,0,2,,,,,,,,1,,,58,72
41730,note_on,0,0,2,,,,,,,,1,,,60,73
41730,note_on,30,0,2,,,,,,,,1,,,58,0
41760,note_on,0,0,1,,,,,,,,0,,,79,85
41760,note_on,0,0,2,,,,,,,,1,,,57,73
41760,note_on,0,0,2,,,,,,,,1,,,53,73
41760,note_on,0,0,2,,,,,,,,1,,,55,0
41760,note_on,30,0,2,,,,,,,,1,,,60,0
41760,note_on,60,0,1,,,,,,,,0,,,76,0
41775,note_on,15,0,1,,,,,,,,0,,,79,0
41775,note_on,0,0,1,,,,,,,,0,,,81,86
41790,note_on,0,0,2,,,,,,,,1,,,60,74
41790,note_on,30,0,2,,,,,,,,1,,,57,0
41790,note_on,0,0,1,,,,,,,,0,,,79,88
41790,note_on,15,0,1,,,,,,,,0,,,81,0
41805,note_on,0,0,1,,,,,,,,0,,,81,89
41805,note_on,15,0,1,,,,,,,,0,,,79,0
41820,note_on,15,0,1,,,,,,,,0,,,81,0
41820,note_on,0,0,1,,,,,,,,0,,,79,89
41820,note_on,0,0,2,,,,,,,,1,,,57,76
41820,note_on,30,0,2,,,,,,,,1,,,60,0
41835,note_on,15,0,1,,,,,,,,0,,,79,0
41835,note_on,0,0,1,,,,,,,,0,,,81,89
41850,note_on,0,0,2,,,,,,,,1,,,60,78
41850,note_on,30,0,2,,,,,,,,1,,,57,0
41850,note_on,15,0,1,,,,,,,,0,,,81,0
41850,note_on,0,0,1,,,,,,,,0,,,79,89
41865,note_on,15,0,1,,,,,,,,0,,,79,0
41865,note_on,0,0,1,,,,,,,,0,,,81,89
41880,note_on,15,0,1,,,,,,,,0,,,81,0
41880,note_on,0,0,2,,,,,,,,1,,,57,79
41880,note_on,0,0,1,,,,,,,,0,,,81,89
41880,note_on,30,0,2,,,,,,,,1,,,60,0
41910,note_on,30,0,2,,,,,,,,1,,,57,0
41910,note_on,0,0,2,,,,,,,,1,,,60,80
41940,note_on,0,0,2,,,,,,,,1,,,58,81
41940,note_on,0,0,2,,,,,,,,1,,,48,81
41940,note_on,0,0,1,,,,,,,,0,,,72,87
41940,note_on,30,0,2,,,,,,,,1,,,60,0
41940,note_on,0,0,2,,,,,,,,1,,,53,0
41940,note_on,60,0,1,,,,,,,,0,,,81,0
41970,note_on,30,0,2,,,,,,,,1,,,58,0
41970,note_on,0,0,2,,,,,,,,1,,,60,81
42000,note_on,0,0,1,,,,,,,,0,,,74,94
42000,note_on,0,0,2,,,,,,,,1,,,58,80
42000,note_on,30,0,2,,,,,,,,1,,,60,0
42000,note_on,60,0,1,,,,,,,,0,,,72,0
42030,note_on,30,0,2,,,,,,,,1,,,58,0
42030,note_on,0,0,2,,,,,,,,1,,,60,80
42060,note_on,0,0,1,,,,,,,,0,,,76,100
42060,note_on,0,0,2,,,,,,,,1,,,58,79
42060,note_on,30,0,2,,,,,,,,1,,,60,0
42060,note_on,60,0,1,,,,,,,,0,,,74,0
42090,note_on,0,0,2,,,,,,,,1,,,60,78
42090,note_on,30,0,2,,,,,,,,1,,,58,0
42120,note_on,0,0,2,,,,,,,,1,,,57,78
42120,note_on,0,0,2,,,,,,,,1,,,53,78
42120,note_on,0,0,2,,,,,,,,1,,,48,0
42120,note_on,30,0,2,,,,,,,,1,,,60,0
42120,note_on,60,0,1,,,,,,,,0,,,76,0
42120,note_on,0,0,1,,,,,,,,0,,,79,90
42135,note_on,15,0,1,,,,,,,,0,,,79,0
42135,note_on,0,0,1,,,,,,,,0,,,77,87
42150,note_on,15,0,1,,,,,,,,0,,,77,0
42150,note_on,0,0,1,,,,,,,,0,,,79,89
42150,note_on,30,0,2,,,,,,,,1,,,57,0
42150,note_on,0,0,2,,,,,,,,1,,,60,78
42165,note_on,15,0,1,,,,,,,,0,,,79,0
42165,note_on,0,0,1,,,,,,,,0,,,77,90
42180,note_on,15,0,1,,,,,,,,0,,,77,0
42180,note_on,0,0,2,,,,,,,,1,,,57,78
42180,note_on,0,0,1,,,,,,,,0,,,79,91
42180,note_on,30,0,2,,,,,,,,1,,,60,0
42195,note_on,0,0,1,,,,,,,,0,,,77,91
42195,note_on,15,0,1,,,,,,,,0,,,79,0
42210,note_on,30,0,2,,,,,,,,1,,,57,0
42210,note_on,0,0,2,,,,,,,,1,,,60,78
42210,note_on,15,0,1,,,,,,,,0,,,77,0
42210,note_on,0,0,1,,,,,,,,0,,,79,91
42225,note_on,15,0,1,,,,,,,,0,,,79,0
42225,note_on,0,0,1,,,,,,,,0,,,77,90
42240,note_on,30,0,2,,,,,,,,1,,,60,0
42240,note_on,0,0,2,,,,,,,,1,,,57,78
42240,note_on,0,0,1,,,,,,,,0,,,81,90
42240,note_on,15,0,1,,,,,,,,0,,,77,0
42270,note_on,30,0,2,,,,,,,,1,,,57,0
42270,note_on,0,0,2,,,,,,,,1,,,60,78
42300,note_on,60,0,1,,,,,,,,0,,,81,0
42300,note_on,30,0,2,,,,,,,,1,,,60,0
42300,note_on,0,0,2,,,,,,,,1,,,53,0
42300,note_on,0,0,2,,,,,,,,1,,,48,76
42300,note_on,0,0,2,,,,,,,,1,,,58,76
42300,note_on,0,0,1,,,,,,,,0,,,72,87
42330,note_on,30,0,2,,,,,,,,1,,,58,0
42330,note_on,0,0,2,,,,,,,,1,,,60,75
42360,note_on,0,0,1,,,,,,,,0,,,74,91
42360,note_on,60,0,1,,,,,,,,0,,,72,0
42360,note_on,0,0,2,,,,,,,,1,,,58,74
42360,note_on,30,0,2,,,,,,,,1,,,60,0
42390,note_on,0,0,2,,,,,,,,1,,,60,74
42390,note_on,30,0,2,,,,,,,,1,,,58,0
42420,note_on,0,0,2,,,,,,,,1,,,58,73
42420,note_on,0,0,1,,,,,,,,0,,,76,93
42420,note_on,60,0,1,,,,,,,,0,,,74,0
42420,note_on,30,0,2,,,,,,,,1,,,60,0
42450,note_on,30,0,2,,,,,,,,1,,,58,0
42450,note_on,0,0,2,,,,,,,,1,,,60,73
42480,note_on,60,0,1,,,,,,,,0,,,76,0
42480,note_on,0,0,1,,,,,,,,0,,,77,93
42480,note_on,0,0,2,,,,,,,,1,,,57,73
42480,note_on,0,0,2,,,,,,,,1,,,53,73
42480,note_on,30,0,2,,,,,,,,1,,,60,0
42480,note_on,0,0,2,,,,,,,,1,,,48,0
42495,note_on,15,0,1,,,,,,,,0,,,77,0
42495,note_on,0,0,1,,,,,,,,0,,,79,93
42510,note_on,15,0,1,,,,,,,,0,,,79,0
42510,note_on,0,0,1,,,,,,,,0,,,77,92
42525,note_on,15,0,1,,,,,,,,0,,,77,0
42525,note_on,0,0,1,,,,,,,,0,,,79,92
42540,note_on,15,0,1,,,,,,,,0,,,79,0
42540,note_on,0,0,1,,,,,,,,0,,,77,91
42555,note_on,15,0,1,,,,,,,,0,,,77,0
42555,note_on,0,0,1,,,,,,,,0,,,79,91
42570,note_on,15,0,1,,,,,,,,0,,,79,0
42570,note_on,0,0,1,,,,,,,,0,,,77,91
42585,note_on,15,0,1,,,,,,,,0,,,77,0
42585,note_on,0,0,1,,,,,,,,0,,,79,91
42600,note_on,120,0,2,,,,,,,,1,,,57,0
42600,note_on,15,0,1,,,,,,,,0,,,79,0
42600,note_on,0,0,1,,,,,,,,0,,,81,91
42600,note_on,0,0,2,,,,,,,,1,,,53,0
42660,note_on,60,0,1,,,,,,,,0,,,81,0
42660,note_on,0,0,1,,,,,,,,0,,,77,90
42675,note_on,15,0,1,,,,,,,,0,,,77,0
42675,note_on,0,0,1,,,,,,,,0,,,79,90
42690,note_on,15,0,1,,,,,,,,0,,,79,0
42690,note_on,0,0,1,,,,,,,,0,,,77,90
42705,note_on,0,0,1,,,,,,,,0,,,79,90
42705,note_on,15,0,1,,,,,,,,0,,,77,0
42720,note_on,15,0,1,,,,,,,,0,,,79,0
42720,note_on,0,0,1,,,,,,,,0,,,77,90
42735,note_on,15,0,1,,,,,,,,0,,,77,0
42735,note_on,0,0,1,,,,,,,,0,,,79,90
42750,note_on,15,0,1,,,,,,,,0,,,79,0
42750,note_on,0,0,1,,,,,,,,0,,,77,90
42765,note_on,15,0,1,,,,,,,,0,,,77,0
42765,note_on,0,0,1,,,,,,,,0,,,79,89
42780,note_on,15,0,1,,,,,,,,0,,,79,0
42780,note_on,0,0,1,,,,,,,,0,,,84,88
42840,note_on,0,0,1,,,,,,,,0,,,79,85
42840,note_on,60,0,1,,,,,,,,0,,,84,0
42855,note_on,15,0,1,,,,,,,,0,,,79,0
42855,note_on,0,0,1,,,,,,,,0,,,77,85
42870,note_on,15,0,1,,,,,,,,0,,,77,0
42870,note_on,0,0,1,,,,,,,,0,,,79,85
42885,note_on,15,0,1,,,,,,,,0,,,79,0
42885,note_on,0,0,1,,,,,,,,0,,,77,85
42900,note_on,15,0,1,,,,,,,,0,,,77,0
42900,note_on,0,0,1,,,,,,,,0,,,79,85
42915,note_on,15,0,1,,,,,,,,0,,,79,0
42915,note_on,0,0,1,,,,,,,,0,,,77,85
42930,note_on,15,0,1,,,,,,,,0,,,77,0
42930,note_on,0,0,1,,,,,,,,0,,,79,85
42945,note_on,0,0,1,,,,,,,,0,,,77,86
42945,note_on,15,0,1,,,,,,,,0,,,79,0
42960,note_on,15,0,1,,,,,,,,0,,,77,0
42960,note_on,0,0,1,,,,,,,,0,,,81,87
43020,note_on,0,0,1,,,,,,,,0,,,79,87
43020,note_on,60,0,1,,,,,,,,0,,,81,0
43035,note_on,15,0,1,,,,,,,,0,,,79,0
43035,note_on,0,0,1,,,,,,,,0,,,77,87
43050,note_on,0,0,1,,,,,,,,0,,,79,88
43050,note_on,15,0,1,,,,,,,,0,,,77,0
43065,note_on,15,0,1,,,,,,,,0,,,79,0
43065,note_on,0,0,1,,,,,,,,0,,,77,88
43080,note_on,15,0,1,,,,,,,,0,,,77,0
43080,note_on,0,0,1,,,,,,,,0,,,79,88
43095,note_on,15,0,1,,,,,,,,0,,,79,0
43095,note_on,0,0,1,,,,,,,,0,,,77,88
43110,note_on,0,0,1,,,,,,,,0,,,79,88
43110,note_on,15,0,1,,,,,,,,0,,,77,0
43125,note_on,15,0,1,,,,,,,,0,,,79,0
43125,note_on,0,0,1,,,,,,,,0,,,77,89
43140,note_on,15,0,1,,,,,,,,0,,,77,0
43140,note_on,0,0,1,,,,,,,,0,,,84,89
43200,note_on,0,0,2,,,,,,,,1,,,57,82
43200,note_on,0,0,2,,,,,,,,1,,,53,82
43200,note_on,0,0,2,,,,,,,,1,,,60,82
43200,note_on,600,0,2,,,,,,,,1,,,63,82
43200,note_on,60,0,1,,,,,,,,0,,,84,0
43200,note_on,0,0,1,,,,,,,,0,,,81,91
43260,note_on,0,0,1,,,,,,,,0,,,87,92
43260,note_on,60,0,1,,,,,,,,0,,,81,0
43320,note_on,60,0,1,,,,,,,,0,,,87,0
43320,note_on,0,0,1,,,,,,,,0,,,84,91
43380,note_on,0,0,2,,,,,,,,1,,,57,0
43380,note_on,0,0,2,,,,,,,,1,,,60,0
43380,note_on,0,0,2,,,,,,,,1,,,63,0
43380,note_on,180,0,2,,,,,,,,1,,,53,0
43380,note_on,0,0,1,,,,,,,,0,,,81,90
43380,note_on,60,0,1,,,,,,,,0,,,84,0
43440,note_on,0,0,1,,,,,,,,0,,,77,91
43440,note_on,60,0,1,,,,,,,,0,,,81,0
43500,note_on,60,0,1,,,,,,,,0,,,77,0
43500,note_on,0,0,1,,,,,,,,0,,,76,91
43560,note_on,0,0,2,,,,,,,,1,,,51,82
43560,note_on,0,0,2,,,,,,,,1,,,48,82
43560,note_on,0,0,2,,,,,,,,1,,,45,82
43560,note_on,180,0,2,,,,,,,,1,,,41,82
43560,note_on,60,0,1,,,,,,,,0,,,76,0
43560,note_on,0,0,1,,,,,,,,0,,,75,87
43620,note_on,0,0,1,,,,,,,,0,,,72,89
43620,note_on,60,0,1,,,,,,,,0,,,75,0
43680,note_on,0,0,1,,,,,,,,0,,,69,94
43680,note_on,60,0,1,,,,,,,,0,,,72,0
43740,note_on,0,0,1,,,,,,,,0,,,65,95
43740,note_on,60,0,1,,,,,,,,0,,,69,0
43740,note_on,180,0,2,,,,,,,,1,,,51,0
43740,note_on,0,0,2,,,,,,,,1,,,41,0
43740,note_on,0,0,2,,,,,,,,1,,,45,0
43740,note_on,0,0,2,,,,,,,,1,,,48,0
43800,note_on,0,0,1,,,,,,,,0,,,64,96
43800,note_on,60,0,1,,,,,,,,0,,,65,0
43860,note_on,60,0,1,,,,,,,,0,,,64,0
43860,note_on,0,0,1,,,,,,,,0,,,63,94
43920,note_on,180,0,2,,,,,,,,1,,,50,76
43920,note_on,0,0,1,,,,,,,,0,,,62,94
43920,note_on,60,0,1,,,,,,,,0,,,63,0
43980,note_on,60,0,2,,,,,,,,1,,,50,0
43980,note_on,60,0,1,,,,,,,,0,,,62,0
43980,note_on,0,0,1,,,,,,,,0,,,58,93
43980,note_on,0,0,2,,,,,,,,1,,,46,80
44040,note_on,60,0,2,,,,,,,,1,,,46,0
44040,note_on,60,0,1,,,,,,,,0,,,58,0
44040,note_on,0,0,1,,,,,,,,0,,,65,96
44040,note_on,0,0,2,,,,,,,,1,,,53,81
44100,note_on,60,0,1,,,,,,,,0,,,65,0
44100,note_on,0,0,1,,,,,,,,0,,,65,98
44100,note_on,60,0,2,,,,,,,,1,,,53,0
44100,note_on,0,0,2,,,,,,,,1,,,53,81
44160,note_on,60,0,2,,,,,,,,1,,,53,0
44160,note_on,0,0,1,,,,,,,,0,,,62,98
44160,note_on,0,0,2,,,,,,,,1,,,50,81
44160,note_on,60,0,1,,,,,,,,0,,,65,0
44220,note_on,0,0,1,,,,,,,,0,,,70,97
44220,note_on,60,0,1,,,,,,,,0,,,62,0
44220,note_on,60,0,2,,,,,,,,1,,,50,0
44220,note_on,0,0,2,,,,,,,,1,,,58,80
44280,note_on,0,0,2,,,,,,,,1,,,58,80
44280,note_on,0,0,1,,,,,,,,0,,,70,96
44280,note_on,60,0,1,,,,,,,,0,,,70,0
44280,note_on,60,0,2,,,,,,,,1,,,58,0
44340,note_on,60,0,2,,,,,,,,1,,,58,0
44340,note_on,0,0,1,,,,,,,,0,,,65,95
44340,note_on,60,0,1,,,,,,,,0,,,70,0
44340,note_on,0,0,2,,,,,,,,1,,,53,79
44400,note_on,0,0,2,,,,,,,,1,,,62,78
44400,note_on,60,0,2,,,,,,,,1,,,53,0
44400,note_on,0,0,1,,,,,,,,0,,,74,95
44400,note_on,60,0,1,,,,,,,,0,,,65,0
44460,note_on,0,0,1,,,,,,,,0,,,77,95
44460,note_on,60,0,1,,,,,,,,0,,,74,0
44460,note_on,60,0,2,,,,,,,,1,,,62,0
44580,note_on,120,0,1,,,,,,,,0,,,77,0
44580,note_on,0,0,2,,,,,,,,1,,,57,72
44580,note_on,0,0,1,,,,,,,,0,,,72,98
44580,note_on,120,0,2,,,,,,,,1,,,45,72
44580,note_on,0,0,1,,,,,,,,0,,,75,98
44640,note_on,0,0,1,,,,,,,,0,,,72,0
44640,note_on,0,0,2,,,,,,,,1,,,46,72
44640,note_on,0,0,1,,,,,,,,0,,,74,101
44640,note_on,0,0,2,,,,,,,,1,,,45,0
44640,note_on,0,0,1,,,,,,,,0,,,70,101
44640,note_on,60,0,1,,,,,,,,0,,,75,0
44640,note_on,60,0,2,,,,,,,,1,,,57,0
44670,note_on,30,0,2,,,,,,,,1,,,46,0
44670,note_on,0,0,2,,,,,,,,1,,,58,72
44700,note_on,0,0,1,,,,,,,,0,,,75,102
44700,note_on,0,0,2,,,,,,,,1,,,46,72
44700,note_on,30,0,2,,,,,,,,1,,,58,0
44700,note_on,60,0,1,,,,,,,,0,,,74,0
44700,note_on,0,0,1,,,,,,,,0,,,72,102
44700,note_on,0,0,1,,,,,,,,0,,,70,0
44730,note_on,30,0,2,,,,,,,,1,,,46,0
44730,note_on,0,0,2,,,,,,,,1,,,58,72
44760,note_on,0,0,1,,,,,,,,0,,,75,0
44760,note_on,0,0,1,,,,,,,,0,,,77,102
44760,note_on,0,0,2,,,,,,,,1,,,46,73
44760,note_on,30,0,2,,,,,,,,1,,,58,0
44760,note_on,60,0,1,,,,,,,,0,,,72,0
44760,note_on,0,0,1,,,,,,,,0,,,74,102
44790,note_on,0,0,2,,,,,,,,1,,,58,74
44790,note_on,30,0,2,,,,,,,,1,,,46,0
44820,note_on,0,0,1,,,,,,,,0,,,77,0
44820,note_on,30,0,2,,,,,,,,1,,,58,0
44820,note_on,0,0,2,,,,,,,,1,,,39,74
44820,note_on,60,0,1,,,,,,,,0,,,74,0
44820,note_on,0,0,1,,,,,,,,0,,,79,102
44820,note_on,0,0,1,,,,,,,,0,,,75,102
44850,note_on,30,0,2,,,,,,,,1,,,39,0
44850,note_on,0,0,2,,,,,,,,1,,,51,76
44880,note_on,0,0,1,,,,,,,,0,,,79,0
44880,note_on,0,0,1,,,,,,,,0,,,72,101
44880,note_on,0,0,1,,,,,,,,0,,,75,101
44880,note_on,60,0,1,,,,,,,,0,,,75,0
44880,note_on,0,0,2,,,,,,,,1,,,39,76
44880,note_on,30,0,2,,,,,,,,1,,,51,0
44910,note_on,0,0,2,,,,,,,,1,,,51,77
44910,note_on,30,0,2,,,,,,,,1,,,39,0
44940,note_on,60,0,1,,,,,,,,0,,,75,0
44940,note_on,0,0,1,,,,,,,,0,,,74,99
44940,note_on,0,0,1,,,,,,,,0,,,70,99
44940,note_on,0,0,1,,,,,,,,0,,,72,0
44940,note_on,0,0,2,,,,,,,,1,,,40,77
44940,note_on,30,0,2,,,,,,,,1,,,51,0
44970,note_on,30,0,2,,,,,,,,1,,,40,0
44970,note_on,0,0,2,,,,,,,,1,,,52,77
45000,note_on,0,0,1,,,,,,,,0,,,72,98
45000,note_on,0,0,2,,,,,,,,1,,,41,77
45000,note_on,0,0,1,,,,,,,,0,,,70,0
45000,note_on,0,0,1,,,,,,,,0,,,69,98
45000,note_on,60,0,1,,,,,,,,0,,,74,0
45000,note_on,30,0,2,,,,,,,,1,,,52,0
45030,note_on,30,0,2,,,,,,,,1,,,41,0
45030,note_on,0,0,2,,,,,,,,1,,,53,76
45060,note_on,0,0,1,,,,,,,,0,,,69,99
45060,note_on,0,0,1,,,,,,,,0,,,72,0
45060,note_on,60,0,1,,,,,,,,0,,,69,0
45060,note_on,30,0,2,,,,,,,,1,,,53,0
45060,note_on,0,0,2,,,,,,,,1,,,41,75
45060,note_on,0,0,1,,,,,,,,0,,,72,99
45090,note_on,30,0,2,,,,,,,,1,,,41,0
45090,note_on,0,0,2,,,,,,,,1,,,53,74
45120,note_on,60,0,1,,,,,,,,0,,,72,0
45120,note_on,30,0,2,,,,,,,,1,,,53,0
45120,note_on,0,0,1,,,,,,,,0,,,69,0
45120,note_on,0,0,1,,,,,,,,0,,,75,99
45120,note_on,0,0,2,,,,,,,,1,,,40,73
45120,note_on,0,0,1,,,,,,,,0,,,72,99
45150,note_on,0,0,2,,,,,,,,1,,,52,73
45150,note_on,30,0,1,,,,,,,,0,,,75,0
45150,note_on,0,0,1,,,,,,,,0,,,72,0
45150,note_on,0,0,1,,,,,,,,0,,,70,99
45150,note_on,0,0,1,,,,,,,,0,,,74,99
45150,note_on,30,0,2,,,,,,,,1,,,40,0
45180,note_on,30,0,1,,,,,,,,0,,,74,0
45180,note_on,0,0,1,,,,,,,,0,,,70,0
45180,note_on,0,0,1,,,,,,,,0,,,69,98
45180,note_on,0,0,1,,,,,,,,0,,,72,98
45180,note_on,0,0,2,,,,,,,,1,,,53,72
45180,note_on,0,0,2,,,,,,,,1,,,41,72
45180,note_on,30,0,2,,,,,,,,1,,,52,0
45300,note_on,0,0,2,,,,,,,,1,,,41,0
45300,note_on,120,0,2,,,,,,,,1,,,53,0
45300,note_on,120,0,1,,,,,,,,0,,,72,0
45300,note_on,0,0,1,,,,,,,,0,,,69,0
45300,note_on,0,0,1,,,,,,,,0,,,65,93
45330,note_on,30,0,1,,,,,,,,0,,,65,0
45345,note_on,15,0,1,,,,,,,,0,,,67,95
45360,note_on,0,0,1,,,,,,,,0,,,65,95
45360,note_on,15,0,1,,,,,,,,0,,,67,0
45360,note_on,60,0,2,,,,,,,,1,,,46,72
45370,note_on,10,0,2,,,,,,,,1,,,50,72
45380,note_on,10,0,2,,,,,,,,1,,,53,72
45390,note_on,10,0,2,,,,,,,,1,,,58,72
45420,note_on,0,0,1,,,,,,,,0,,,62,96
45420,note_on,60,0,1,,,,,,,,0,,,65,0
45480,note_on,0,0,1,,,,,,,,0,,,70,97
45480,note_on,60,0,1,,,,,,,,0,,,62,0
45480,note_on,90,0,2,,,,,,,,1,,,46,0
45490,note_on,10,0,2,,,,,,,,1,,,50,0
45500,note_on,10,0,2,,,,,,,,1,,,53,0
45510,note_on,30,0,1,,,,,,,,0,,,70,0
45510,note_on,10,0,2,,,,,,,,1,,,58,0
45525,note_on,15,0,1,,,,,,,,0,,,72,97
45540,note_on,0,0,1,,,,,,,,0,,,70,96
45540,note_on,15,0,1,,,,,,,,0,,,72,0
45541,note_on,31,0,2,,,,,,,,1,,,46,73
45551,note_on,10,0,2,,,,,,,,1,,,50,73
45561,note_on,10,0,2,,,,,,,,1,,,53,73
45571,note_on,10,0,2,,,,,,,,1,,,58,74
45600,note_on,60,0,1,,,,,,,,0,,,70,0
45600,note_on,0,0,1,,,,,,,,0,,,65,91
45660,note_on,60,0,1,,,,,,,,0,,,65,0
45660,note_on,0,0,1,,,,,,,,0,,,74,91
45661,note_on,90,0,2,,,,,,,,1,,,46,0
45671,note_on,10,0,2,,,,,,,,1,,,50,0
45681,note_on,10,0,2,,,,,,,,1,,,53,0
45690,note_on,30,0,1,,,,,,,,0,,,74,0
45691,note_on,10,0,2,,,,,,,,1,,,58,0
45705,note_on,15,0,1,,,,,,,,0,,,75,91
45720,note_on,15,0,1,,,,,,,,0,,,75,0
45720,note_on,0,0,1,,,,,,,,0,,,74,91
45720,note_on,29,0,2,,,,,,,,1,,,46,74
45730,note_on,10,0,2,,,,,,,,1,,,50,74
45740,note_on,10,0,2,,,,,,,,1,,,53,73
45750,note_on,10,0,2,,,,,,,,1,,,58,73
45780,note_on,0,0,1,,,,,,,,0,,,70,94
45780,note_on,60,0,1,,,,,,,,0,,,74,0
45840,note_on,0,0,1,,,,,,,,0,,,77,95
45840,note_on,60,0,1,,,,,,,,0,,,70,0
45840,note_on,90,0,2,,,,,,,,1,,,46,0
45850,note_on,10,0,2,,,,,,,,1,,,50,0
45860,note_on,10,0,2,,,,,,,,1,,,53,0
45870,note_on,10,0,2,,,,,,,,1,,,58,0
45900,note_on,0,0,1,,,,,,,,0,,,74,95
45900,note_on,0,0,1,,,,,,,,0,,,70,95
45900,note_on,0,0,1,,,,,,,,0,,,77,95
45900,note_on,60,0,1,,,,,,,,0,,,77,0
45901,note_on,31,0,2,,,,,,,,1,,,46,72
45911,note_on,10,0,2,,,,,,,,1,,,50,72
45921,note_on,10,0,2,,,,,,,,1,,,53,72
45931,note_on,10,0,2,,,,,,,,1,,,58,73
45960,note_on,0,0,1,,,,,,,,0,,,70,0
45960,note_on,0,0,1,,,,,,,,0,,,74,0
45960,note_on,60,0,1,,,,,,,,0,,,77,0
46020,note_on,89,0,2,,,,,,,,1,,,41,73
46020,note_on,60,0,1,,,,,,,,0,,,79,96
46020,note_on,0,0,1,,,,,,,,0,,,75,96
46021,note_on,1,0,2,,,,,,,,1,,,46,0
46031,note_on,10,0,2,,,,,,,,1,,,50,0
46041,note_on,10,0,2,,,,,,,,1,,,53,0
46050,note_on,0,0,2,,,,,,,,1,,,53,72
46050,note_on,9,0,2,,,,,,,,1,,,41,0
46051,note_on,1,0,2,,,,,,,,1,,,58,0
46080,note_on,0,0,2,,,,,,,,1,,,41,72
46080,note_on,0,0,1,,,,,,,,0,,,77,98
46080,note_on,0,0,1,,,,,,,,0,,,74,98
46080,note_on,60,0,1,,,,,,,,0,,,75,0
46080,note_on,29,0,2,,,,,,,,1,,,53,0
46080,note_on,0,0,1,,,,,,,,0,,,79,0
46110,note_on,30,0,2,,,,,,,,1,,,41,0
46110,note_on,0,0,2,,,,,,,,1,,,53,72
46140,note_on,0,0,1,,,,,,,,0,,,74,0
46140,note_on,0,0,1,,,,,,,,0,,,72,99
46140,note_on,0,0,1,,,,,,,,0,,,75,99
46140,note_on,30,0,2,,,,,,,,1,,,53,0
46140,note_on,0,0,2,,,,,,,,1,,,41,71
46140,note_on,60,0,1,,,,,,,,0,,,77,0
46170,note_on,30,0,2,,,,,,,,1,,,41,0
46170,note_on,0,0,2,,,,,,,,1,,,53,71
46200,note_on,30,0,2,,,,,,,,1,,,53,0
46200,note_on,0,0,2,,,,,,,,1,,,41,70
46200,note_on,0,0,1,,,,,,,,0,,,74,96
46200,note_on,0,0,1,,,,,,,,0,,,70,96
46200,note_on,0,0,1,,,,,,,,0,,,72,0
46200,note_on,60,0,1,,,,,,,,0,,,75,0
46230,note_on,30,0,2,,,,,,,,1,,,41,0
46230,note_on,0,0,2,,,,,,,,1,,,53,70
46260,note_on,30,0,2,,,,,,,,1,,,53,0
46260,note_on,0,0,1,,,,,,,,0,,,63,95
46260,note_on,0,0,1,,,,,,,,0,,,70,0
46260,note_on,60,0,1,,,,,,,,0,,,74,0
46260,note_on,0,0,2,,,,,,,,1,,,41,70
46260,note_on,0,0,1,,,,,,,,0,,,72,95
46290,note_on,0,0,2,,,,,,,,1,,,53,70
46290,note_on,30,0,2,,,,,,,,1,,,41,0
46320,note_on,0,0,2,,,,,,,,1,,,41,70
46320,note_on,30,0,2,,,,,,,,1,,,53,0
46320,note_on,0,0,1,,,,,,,,0,,,70,95
46320,note_on,0,0,1,,,,,,,,0,,,62,95
46320,note_on,0,0,1,,,,,,,,0,,,63,0
46320,note_on,60,0,1,,,,,,,,0,,,72,0
46350,note_on,30,0,2,,,,,,,,1,,,41,0
46350,note_on,0,0,2,,,,,,,,1,,,53,70
46380,note_on,0,0,1,,,,,,,,0,,,60,99
46380,note_on,0,0,1,,,,,,,,0,,,62,0
46380,note_on,60,0,1,,,,,,,,0,,,70,0
46380,note_on,30,0,2,,,,,,,,1,,,53,0
46380,note_on,0,0,2,,,,,,,,1,,,41,70
46380,note_on,0,0,1,,,,,,,,0,,,69,99
46410,note_on,0,0,2,,,,,,,,1,,,53,71
46410,note_on,30,0,2,,,,,,,,1,,,41,0
46440,note_on,60,0,1,,,,,,,,0,,,69,0
46440,note_on,30,0,2,,,,,,,,1,,,53,0
46440,note_on,0,0,2,,,,,,,,1,,,58,71
46440,note_on,0,0,1,,,,,,,,0,,,70,103
46440,note_on,0,0,1,,,,,,,,0,,,62,103
46440,note_on,0,0,1,,,,,,,,0,,,60,0
46500,note_on,60,0,2,,,,,,,,1,,,58,0
46500,note_on,0,0,2,,,,,,,,1,,,53,73
46560,note_on,60,0,2,,,,,,,,1,,,53,0
46560,note_on,0,0,1,,,,,,,,0,,,62,0
46560,note_on,120,0,1,,,,,,,,0,,,70,0
46560,note_on,0,0,2,,,,,,,,1,,,50,73
46620,note_on,60,0,2,,,,,,,,1,,,50,0
46620,note_on,0,0,2,,,,,,,,1,,,46,73
46740,note_on,120,0,2,,,,,,,,1,,,46,0
46740,note_on,180,0,1,,,,,,,,0,,,82,96
46768,note_on,28,0,1,,,,,,,,0,,,82,0
46770,note_on,2,0,1,,,,,,,,0,,,82,74
46785,note_on,0,0,1,,,,,,,,0,,,84,74
46785,note_on,15,0,1,,,,,,,,0,,,82,0
46800,note_on,0,0,1,,,,,,,,0,,,86,96
46800,note_on,15,0,1,,,,,,,,0,,,84,0
46800,note_on,60,0,2,,,,,,,,1,,,55,67
46860,note_on,0,0,1,,,,,,,,0,,,84,96
46860,note_on,60,0,1,,,,,,,,0,,,86,0
46860,note_on,60,0,2,,,,,,,,1,,,55,0
46860,note_on,0,0,2,,,,,,,,1,,,58,68
46920,note_on,0,0,2,,,,,,,,1,,,62,69
46920,note_on,0,0,1,,,,,,,,0,,,82,96
46920,note_on,60,0,1,,,,,,,,0,,,84,0
46920,note_on,60,0,2,,,,,,,,1,,,58,0
46949,note_on,29,0,1,,,,,,,,0,,,82,0
46965,note_on,16,0,1,,,,,,,,0,,,84,74
46980,note_on,0,0,1,,,,,,,,0,,,82,96
46980,note_on,15,0,1,,,,,,,,0,,,84,0
46980,note_on,60,0,2,,,,,,,,1,,,62,0
46980,note_on,0,0,2,,,,,,,,1,,,55,69
47040,note_on,0,0,1,,,,,,,,0,,,81,96
47040,note_on,60,0,1,,,,,,,,0,,,82,0
47040,note_on,60,0,2,,,,,,,,1,,,55,0
47040,note_on,0,0,2,,,,,,,,1,,,58,69
47100,note_on,0,0,1,,,,,,,,0,,,79,96
47100,note_on,60,0,1,,,,,,,,0,,,81,0
47100,note_on,60,0,2,,,,,,,,1,,,58,0
47100,note_on,0,0,2,,,,,,,,1,,,62,69
47160,note_on,60,0,1,,,,,,,,0,,,79,0
47160,note_on,60,0,2,,,,,,,,1,,,62,0
47160,note_on,0,0,1,,,,,,,,0,,,78,74
47160,note_on,0,0,2,,,,,,,,1,,,57,69
47190,note_on,0,0,1,,,,,,,,0,,,76,74
47190,note_on,30,0,1,,,,,,,,0,,,78,0
47220,note_on,0,0,1,,,,,,,,0,,,74,74
47220,note_on,30,0,1,,,,,,,,0,,,76,0
47220,note_on,60,0,2,,,,,,,,1,,,57,0
47220,note_on,0,0,2,,,,,,,,1,,,60,69
47250,note_on,30,0,1,,,,,,,,0,,,74,0
47250,note_on,0,0,1,,,,,,,,0,,,76,74
47280,note_on,0,0,2,,,,,,,,1,,,62,69
47280,note_on,60,0,2,,,,,,,,1,,,60,0
47280,note_on,30,0,1,,,,,,,,0,,,76,0
47280,note_on,0,0,1,,,,,,,,0,,,78,74
47295,note_on,0,0,1,,,,,,,,0,,,79,74
47295,note_on,15,0,1,,,,,,,,0,,,78,0
47310,note_on,0,0,1,,,,,,,,0,,,81,74
47310,note_on,15,0,1,,,,,,,,0,,,79,0
47325,note_on,15,0,1,,,,,,,,0,,,81,0
47325,note_on,0,0,1,,,,,,,,0,,,82,74
47340,note_on,0,0,2,,,,,,,,1,,,57,69
47340,note_on,60,0,2,,,,,,,,1,,,62,0
47340,note_on,0,0,1,,,,,,,,0,,,84,75
47340,note_on,15,0,1,,,,,,,,0,,,82,0
47370,note_on,0,0,1,,,,,,,,0,,,82,75
47370,note_on,30,0,1,,,,,,,,0,,,84,0
47400,note_on,30,0,1,,,,,,,,0,,,82,0
47400,note_on,0,0,1,,,,,,,,0,,,81,75
47400,note_on,60,0,2,,,,,,,,1,,,57,0
47400,note_on,0,0,2,,,,,,,,1,,,60,69
47430,note_on,30,0,1,,,,,,,,0,,,81,0
47430,note_on,0,0,1,,,,,,,,0,,,82,75
47460,note_on,0,0,2,,,,,,,,1,,,62,69
47460,note_on,60,0,2,,,,,,,,1,,,60,0
47460,note_on,30,0,1,,,,,,,,0,,,82,0
47460,note_on,0,0,1,,,,,,,,0,,,84,75
47490,note_on,0,0,1,,,,,,,,0,,,86,75
47490,note_on,30,0,1,,,,,,,,0,,,84,0
47505,note_on,0,0,1,,,,,,,,0,,,84,75
47505,note_on,15,0,1,,,,,,,,0,,,86,0
47510,note_on,5,0,1,,,,,,,,0,,,84,0
47510,note_on,0,0,1,,,,,,,,0,,,86,75
47515,note_on,5,0,1,,,,,,,,0,,,86,0
47520,note_on,60,0,2,,,,,,,,1,,,62,0
47520,note_on,5,0,1,,,,,,,,0,,,87,75
47520,note_on,0,0,2,,,,,,,,1,,,54,69
47580,note_on,0,0,1,,,,,,,,0,,,86,76
47580,note_on,60,0,1,,,,,,,,0,,,87,0
47580,note_on,0,0,2,,,,,,,,1,,,57,69
47580,note_on,60,0,2,,,,,,,,1,,,54,0
47640,note_on,0,0,1,,,,,,,,0,,,84,76
47640,note_on,60,0,1,,,,,,,,0,,,86,0
47640,note_on,0,0,2,,,,,,,,1,,,62,69
47640,note_on,60,0,2,,,,,,,,1,,,57,0
47669,note_on,29,0,1,,,,,,,,0,,,84,0
47685,note_on,16,0,1,,,,,,,,0,,,86,75
47700,note_on,60,0,2,,,,,,,,1,,,62,0
47700,note_on,15,0,1,,,,,,,,0,,,86,0
47700,note_on,0,0,2,,,,,,,,1,,,54,69
47700,note_on,0,0,1,,,,,,,,0,,,84,75
47760,note_on,60,0,1,,,,,,,,0,,,84,0
47760,note_on,0,0,1,,,,,,,,0,,,82,75
47760,note_on,60,0,2,,,,,,,,1,,,54,0
47760,note_on,0,0,2,,,,,,,,1,,,57,69
47820,note_on,60,0,1,,,,,,,,0,,,82,0
47820,note_on,0,0,1,,,,,,,,0,,,81,74
47820,note_on,60,0,2,,,,,,,,1,,,57,0
47820,note_on,0,0,2,,,,,,,,1,,,62,69
47880,note_on,60,0,2,,,,,,,,1,,,62,0
47880,note_on,0,0,2,,,,,,,,1,,,55,69
47880,note_on,0,0,1,,,,,,,,0,,,82,73
47880,note_on,60,0,1,,,,,,,,0,,,81,0
47940,note_on,60,0,2,,,,,,,,1,,,55,0
47940,note_on,0,0,2,,,,,,,,1,,,58,69
48000,note_on,0,0,2,,,,,,,,1,,,62,69
48000,note_on,60,0,2,,,,,,,,1,,,58,0
48060,note_on,0,0,1,,,,,,,,0,,,86,67
48060,note_on,60,0,2,,,,,,,,1,,,62,0
48060,note_on,0,0,2,,,,,,,,1,,,55,69
48060,note_on,180,0,1,,,,,,,,0,,,82,0
48120,note_on,0,0,2,,,,,,,,1,,,58,69
48120,note_on,60,0,2,,,,,,,,1,,,55,0
48180,note_on,0,0,2,,,,,,,,1,,,62,69
48180,note_on,120,0,1,,,,,,,,0,,,86,0
48180,note_on,0,0,1,,,,,,,,0,,,82,71
48180,note_on,60,0,2,,,,,,,,1,,,58,0
48209,note_on,29,0,1,,,,,,,,0,,,82,0
48210,note_on,1,0,1,,,,,,,,0,,,82,71
48225,note_on,0,0,1,,,,,,,,0,,,84,71
48225,note_on,15,0,1,,,,,,,,0,,,82,0
48240,note_on,0,0,1,,,,,,,,0,,,86,72
48240,note_on,0,0,2,,,,,,,,1,,,46,69
48240,note_on,60,0,2,,,,,,,,1,,,62,0
48240,note_on,15,0,1,,,,,,,,0,,,84,0
48300,note_on,60,0,1,,,,,,,,0,,,86,0
48300,note_on,0,0,2,,,,,,,,1,,,50,69
48300,note_on,0,0,1,,,,,,,,0,,,84,73
48300,note_on,60,0,2,,,,,,,,1,,,46,0
48360,note_on,0,0,1,,,,,,,,0,,,82,73
48360,note_on,60,0,1,,,,,,,,0,,,84,0
48360,note_on,60,0,2,,,,,,,,1,,,50,0
48360,note_on,0,0,2,,,,,,,,1,,,55,69
48390,note_on,30,0,1,,,,,,,,0,,,82,0
48405,note_on,15,0,1,,,,,,,,0,,,84,73
48420,note_on,15,0,1,,,,,,,,0,,,84,0
48420,note_on,0,0,1,,,,,,,,0,,,82,74
48420,note_on,60,0,2,,,,,,,,1,,,55,0
48420,note_on,0,0,2,,,,,,,,1,,,46,69
48480,note_on,60,0,1,,,,,,,,0,,,82,0
48480,note_on,0,0,1,,,,,,,,0,,,81,74
48480,note_on,0,0,2,,,,,,,,1,,,50,69
48480,note_on,60,0,2,,,,,,,,1,,,46,0
48540,note_on,0,0,2,,,,,,,,1,,,55,69
48540,note_on,60,0,2,,,,,,,,1,,,50,0
48540,note_on,0,0,1,,,,,,,,0,,,79,74
48540,note_on,60,0,1,,,,,,,,0,,,81,0
48600,note_on,60,0,2,,,,,,,,1,,,55,0
48600,note_on,0,0,1,,,,,,,,0,,,77,74
48600,note_on,60,0,1,,,,,,,,0,,,79,0
48600,note_on,0,0,2,,,,,,,,1,,,48,69
48660,note_on,0,0,1,,,,,,,,0,,,75,74
48660,note_on,60,0,1,,,,,,,,0,,,77,0
48660,note_on,60,0,2,,,,,,,,1,,,48,0
48660,note_on,0,0,2,,,,,,,,1,,,51,69
48720,note_on,60,0,2,,,,,,,,1,,,51,0
48720,note_on,0,0,2,,,,,,,,1,,,57,69
48720,note_on,60,0,1,,,,,,,,0,,,75,0
48720,note_on,0,0,1,,,,,,,,0,,,74,74
48780,note_on,60,0,2,,,,,,,,1,,,57,0
48780,note_on,0,0,2,,,,,,,,1,,,48,69
48780,note_on,60,0,1,,,,,,,,0,,,74,0
48780,note_on,0,0,1,,,,,,,,0,,,72,74
48840,note_on,0,0,2,,,,,,,,1,,,51,69
48840,note_on,0,0,1,,,,,,,,0,,,70,74
48840,note_on,60,0,2,,,,,,,,1,,,48,0
48840,note_on,60,0,1,,,,,,,,0,,,72,0
48900,note_on,0,0,2,,,,,,,,1,,,57,69
48900,note_on,0,0,1,,,,,,,,0,,,69,74
48900,note_on,60,0,1,,,,,,,,0,,,70,0
48900,note_on,60,0,2,,,,,,,,1,,,51,0
48960,note_on,60,0,1,,,,,,,,0,,,69,0
48960,note_on,0,0,1,,,,,,,,0,,,67,74
48960,note_on,0,0,2,,,,,,,,1,,,50,69
48960,note_on,60,0,2,,,,,,,,1,,,57,0
49020,note_on,60,0,2,,,,,,,,1,,,50,0
49020,note_on,0,0,1,,,,,,,,0,,,69,74
49020,note_on,60,0,1,,,,,,,,0,,,67,0
49020,note_on,0,0,2,,,,,,,,1,,,55,69
49080,note_on,60,0,1,,,,,,,,0,,,69,0
49080,note_on,60,0,2,,,,,,,,1,,,55,0
49080,note_on,0,0,2,,,,,,,,1,,,58,68
49080,note_on,0,0,1,,,,,,,,0,,,70,74
49109,note_on,29,0,1,,,,,,,,0,,,70,0
49125,note_on,16,0,1,,,,,,,,0,,,70,74
49140,note_on,0,0,1,,,,,,,,0,,,69,74
49140,note_on,60,0,2,,,,,,,,1,,,58,0
49140,note_on,0,0,2,,,,,,,,1,,,50,68
49140,note_on,15,0,1,,,,,,,,0,,,70,0
49200,note_on,60,0,1,,,,,,,,0,,,69,0
49200,note_on,0,0,1,,,,,,,,0,,,67,74
49200,note_on,60,0,2,,,,,,,,1,,,50,0
49200,note_on,0,0,2,,,,,,,,1,,,57,68
49260,note_on,60,0,2,,,,,,,,1,,,57,0
49260,note_on,0,0,2,,,,,,,,1,,,60,68
49260,note_on,0,0,1,,,,,,,,0,,,66,73
49260,note_on,60,0,1,,,,,,,,0,,,67,0
49320,note_on,0,0,2,,,,,,,,1,,,55,67
49320,note_on,60,0,1,,,,,,,,0,,,66,0
49320,note_on,60,0,2,,,,,,,,1,,,60,0
49320,note_on,0,0,1,,,,,,,,0,,,67,73
49380,note_on,0,0,2,,,,,,,,1,,,58,67
49380,note_on,60,0,2,,,,,,,,1,,,55,0
49440,note_on,0,0,2,,,,,,,,1,,,62,67
49440,note_on,60,0,2,,,,,,,,1,,,58,0
49500,note_on,0,0,2,,,,,,,,1,,,67,67
49500,note_on,60,0,2,,,,,,,,1,,,62,0
49500,note_on,180,0,1,,,,,,,,0,,,67,0
49620,note_on,120,0,2,,,,,,,,1,,,67,0
49620,note_on,120,0,1,,,,,,,,0,,,86,71
49680,note_on,60,0,1,,,,,,,,0,,,86,0
49680,note_on,60,0,2,,,,,,,,1,,,57,65
49680,note_on,0,0,1,,,,,,,,0,,,86,71
49740,note_on,0,0,1,,,,,,,,0,,,78,71
49740,note_on,60,0,2,,,,,,,,1,,,57,0
49740,note_on,0,0,2,,,,,,,,1,,,60,66
49740,note_on,60,0,1,,,,,,,,0,,,86,0
49800,note_on,60,0,1,,,,,,,,0,,,78,0
49800,note_on,0,0,1,,,,,,,,0,,,78,71
49800,note_on,60,0,2,,,,,,,,1,,,60,0
49800,note_on,0,0,2,,,,,,,,1,,,62,66
49830,note_on,30,0,1,,,,,,,,0,,,78,0
49845,note_on,15,0,1,,,,,,,,0,,,81,71
49860,note_on,15,0,1,,,,,,,,0,,,81,0
49860,note_on,0,0,2,,,,,,,,1,,,55,67
49860,note_on,0,0,1,,,,,,,,0,,,79,71
49860,note_on,60,0,2,,,,,,,,1,,,62,0
49920,note_on,0,0,1,,,,,,,,0,,,78,72
49920,note_on,60,0,1,,,,,,,,0,,,79,0
49920,note_on,0,0,2,,,,,,,,1,,,58,67
49920,note_on,60,0,2,,,,,,,,1,,,55,0
49980,note_on,60,0,2,,,,,,,,1,,,58,0
49980,note_on,0,0,2,,,,,,,,1,,,62,67
49980,note_on,0,0,1,,,,,,,,0,,,79,73
49980,note_on,60,0,1,,,,,,,,0,,,78,0
50040,note_on,60,0,2,,,,,,,,1,,,62,0
50040,note_on,0,0,2,,,,,,,,1,,,54,67
50040,note_on,0,0,1,,,,,,,,0,,,80,73
50040,note_on,60,0,1,,,,,,,,0,,,79,0
50100,note_on,60,0,2,,,,,,,,1,,,54,0
50100,note_on,0,0,2,,,,,,,,1,,,57,67
50160,note_on,0,0,2,,,,,,,,1,,,62,67
50160,note_on,60,0,2,,,,,,,,1,,,57,0
50220,note_on,60,0,2,,,,,,,,1,,,62,0
50220,note_on,0,0,1,,,,,,,,0,,,81,74
50220,note_on,180,0,1,,,,,,,,0,,,80,0
50220,note_on,0,0,2,,,,,,,,1,,,50,67
50280,note_on,60,0,2,,,,,,,,1,,,50,0
50280,note_on,0,0,2,,,,,,,,1,,,54,67
50340,note_on,0,0,1,,,,,,,,0,,,86,74
50340,note_on,120,0,1,,,,,,,,0,,,81,0
50340,note_on,60,0,2,,,,,,,,1,,,54,0
50340,note_on,0,0,2,,,,,,,,1,,,62,67
50400,note_on,60,0,2,,,,,,,,1,,,62,0
50400,note_on,0,0,1,,,,,,,,0,,,86,75
50400,note_on,60,0,1,,,,,,,,0,,,86,0
50400,note_on,0,0,2,,,,,,,,1,,,46,68
50460,note_on,60,0,2,,,,,,,,1,,,46,0
50460,note_on,0,0,2,,,,,,,,1,,,50,68
50460,note_on,60,0,1,,,,,,,,0,,,86,0
50460,note_on,0,0,1,,,,,,,,0,,,79,75
50520,note_on,0,0,1,,,,,,,,0,,,79,75
50520,note_on,0,0,2,,,,,,,,1,,,55,68
50520,note_on,60,0,2,,,,,,,,1,,,50,0
50520,note_on,60,0,1,,,,,,,,0,,,79,0
50550,note_on,30,0,1,,,,,,,,0,,,79,0
50565,note_on,15,0,1,,,,,,,,0,,,82,75
50580,note_on,15,0,1,,,,,,,,0,,,82,0
50580,note_on,0,0,2,,,,,,,,1,,,45,68
50580,note_on,60,0,2,,,,,,,,1,,,55,0
50580,note_on,0,0,1,,,,,,,,0,,,81,75
50640,note_on,60,0,2,,,,,,,,1,,,45,0
50640,note_on,60,0,1,,,,,,,,0,,,81,0
50640,note_on,0,0,1,,,,,,,,0,,,79,75
50640,note_on,0,0,2,,,,,,,,1,,,48,68
50700,note_on,60,0,1,,,,,,,,0,,,79,0
50700,note_on,0,0,1,,,,,,,,0,,,81,75
50700,note_on,60,0,2,,,,,,,,1,,,48,0
50700,note_on,0,0,2,,,,,,,,1,,,54,68
50760,note_on,0,0,2,,,,,,,,1,,,43,68
50760,note_on,60,0,2,,,,,,,,1,,,54,0
50760,note_on,60,0,1,,,,,,,,0,,,81,0
50760,note_on,0,0,1,,,,,,,,0,,,81,75
50820,note_on,0,0,2,,,,,,,,1,,,46,68
50820,note_on,60,0,2,,,,,,,,1,,,43,0
50880,note_on,0,0,2,,,,,,,,1,,,50,68
50880,note_on,60,0,2,,,,,,,,1,,,46,0
50940,note_on,0,0,2,,,,,,,,1,,,43,69
50940,note_on,180,0,1,,,,,,,,0,,,81,0
50940,note_on,0,0,1,,,,,,,,0,,,82,75
50940,note_on,60,0,2,,,,,,,,1,,,50,0
51000,note_on,60,0,2,,,,,,,,1,,,43,0
51000,note_on,0,0,2,,,,,,,,1,,,46,69
51060,note_on,120,0,1,,,,,,,,0,,,82,0
51060,note_on,60,0,2,,,,,,,,1,,,46,0
51060,note_on,0,0,2,,,,,,,,1,,,50,69
51060,note_on,0,0,1,,,,,,,,0,,,86,74
51120,note_on,60,0,2,,,,,,,,1,,,50,0
51120,note_on,0,0,1,,,,,,,,0,,,87,74
51120,note_on,60,0,1,,,,,,,,0,,,86,0
51120,note_on,0,0,2,,,,,,,,1,,,48,70
51180,note_on,0,0,2,,,,,,,,1,,,57,70
51180,note_on,60,0,2,,,,,,,,1,,,48,0
51180,note_on,60,0,1,,,,,,,,0,,,87,0
51180,note_on,0,0,1,,,,,,,,0,,,78,74
51240,note_on,0,0,1,,,,,,,,0,,,78,73
51240,note_on,60,0,1,,,,,,,,0,,,78,0
51240,note_on,0,0,2,,,,,,,,1,,,60,70
51240,note_on,60,0,2,,,,,,,,1,,,57,0
51300,note_on,0,0,2,,,,,,,,1,,,48,70
51300,note_on,60,0,2,,,,,,,,1,,,60,0
51300,note_on,0,0,1,,,,,,,,0,,,78,73
51300,note_on,60,0,1,,,,,,,,0,,,78,0
51360,note_on,0,0,2,,,,,,,,1,,,51,70
51360,note_on,60,0,2,,,,,,,,1,,,48,0
51420,note_on,0,0,1,,,,,,,,0,,,87,73
51420,note_on,60,0,2,,,,,,,,1,,,51,0
51420,note_on,120,0,1,,,,,,,,0,,,78,0
51420,note_on,0,0,2,,,,,,,,1,,,57,70
51480,note_on,60,0,1,,,,,,,,0,,,87,0
51480,note_on,0,0,1,,,,,,,,0,,,86,73
51480,note_on,60,0,2,,,,,,,,1,,,57,0
51480,note_on,0,0,2,,,,,,,,1,,,46,70
51540,note_on,60,0,2,,,,,,,,1,,,46,0
51540,note_on,0,0,2,,,,,,,,1,,,55,70
51540,note_on,60,0,1,,,,,,,,0,,,86,0
51540,note_on,0,0,1,,,,,,,,0,,,79,72
51600,note_on,60,0,2,,,,,,,,1,,,55,0
51600,note_on,0,0,2,,,,,,,,1,,,58,70
51600,note_on,60,0,1,,,,,,,,0,,,79,0
51600,note_on,0,0,1,,,,,,,,0,,,79,72
51660,note_on,0,0,2,,,,,,,,1,,,46,70
51660,note_on,60,0,2,,,,,,,,1,,,58,0
51660,note_on,60,0,1,,,,,,,,0,,,79,0
51660,note_on,0,0,1,,,,,,,,0,,,79,72
51720,note_on,60,0,2,,,,,,,,1,,,46,0
51720,note_on,0,0,2,,,,,,,,1,,,50,70
51780,note_on,120,0,1,,,,,,,,0,,,79,0
51780,note_on,0,0,2,,,,,,,,1,,,55,70
51780,note_on,60,0,2,,,,,,,,1,,,50,0
51780,note_on,0,0,1,,,,,,,,0,,,86,72
51840,note_on,60,0,1,,,,,,,,0,,,86,0
51840,note_on,0,0,2,,,,,,,,1,,,48,70
51840,note_on,60,0,2,,,,,,,,1,,,55,0
51840,note_on,0,0,1,,,,,,,,0,,,86,72
51900,note_on,60,0,1,,,,,,,,0,,,86,0
51900,note_on,0,0,1,,,,,,,,0,,,84,73
51900,note_on,0,0,2,,,,,,,,1,,,51,70
51900,note_on,60,0,2,,,,,,,,1,,,48,0
51960,note_on,0,0,2,,,,,,,,1,,,57,70
51960,note_on,60,0,1,,,,,,,,0,,,84,0
51960,note_on,0,0,1,,,,,,,,0,,,82,73
51960,note_on,60,0,2,,,,,,,,1,,,51,0
51990,note_on,30,0,1,,,,,,,,0,,,82,0
52005,note_on,15,0,1,,,,,,,,0,,,82,73
52020,note_on,0,0,1,,,,,,,,0,,,81,73
52020,note_on,15,0,1,,,,,,,,0,,,82,0
52020,note_on,0,0,2,,,,,,,,1,,,50,70
52020,note_on,60,0,2,,,,,,,,1,,,57,0
52080,note_on,0,0,1,,,,,,,,0,,,79,73
52080,note_on,0,0,2,,,,,,,,1,,,57,70
52080,note_on,60,0,2,,,,,,,,1,,,50,0
52080,note_on,60,0,1,,,,,,,,0,,,81,0
52140,note_on,60,0,2,,,,,,,,1,,,57,0
52140,note_on,0,0,1,,,,,,,,0,,,78,73
52140,note_on,0,0,2,,,,,,,,1,,,60,70
52140,note_on,60,0,1,,,,,,,,0,,,79,0
52200,note_on,60,0,1,,,,,,,,0,,,78,0
52200,note_on,0,0,1,,,,,,,,0,,,79,72
52200,note_on,0,0,2,,,,,,,,1,,,51,70
52200,note_on,60,0,2,,,,,,,,1,,,60,0
52260,note_on,60,0,1,,,,,,,,0,,,79,0
52260,note_on,0,0,1,,,,,,,,0,,,73,72
52260,note_on,0,0,2,,,,,,,,1,,,55,70
52260,note_on,60,0,2,,,,,,,,1,,,51,0
52320,note_on,60,0,1,,,,,,,,0,,,73,0
52320,note_on,0,0,2,,,,,,,,1,,,58,70
52320,note_on,60,0,2,,,,,,,,1,,,55,0
52320,note_on,0,0,1,,,,,,,,0,,,73,71
52380,note_on,0,0,1,,,,,,,,0,,,73,71
52380,note_on,60,0,2,,,,,,,,1,,,58,0
52380,note_on,0,0,2,,,,,,,,1,,,51,69
52380,note_on,60,0,1,,,,,,,,0,,,73,0
52440,note_on,60,0,2,,,,,,,,1,,,51,0
52440,note_on,0,0,2,,,,,,,,1,,,55,69
52500,note_on,0,0,2,,,,,,,,1,,,58,69
52500,note_on,60,0,2,,,,,,,,1,,,55,0
52560,note_on,60,0,2,,,,,,,,1,,,58,0
52560,note_on,0,0,2,,,,,,,,1,,,51,68
52620,note_on,60,0,2,,,,,,,,1,,,51,0
52620,note_on,0,0,2,,,,,,,,1,,,55,68
52680,note_on,0,0,2,,,,,,,,1,,,58,68
52680,note_on,60,0,2,,,,,,,,1,,,55,0
52740,note_on,360,0,1,,,,,,,,0,,,73,0
52740,note_on,0,0,2,,,,,,,,1,,,51,68
52740,note_on,60,0,2,,,,,,,,1,,,58,0
52740,note_on,0,0,1,,,,,,,,0,,,73,72
52800,note_on,0,0,2,,,,,,,,1,,,55,68
52800,note_on,60,0,2,,,,,,,,1,,,51,0
52800,note_on,60,0,1,,,,,,,,0,,,73,0
52800,note_on,0,0,1,,,,,,,,0,,,73,72
52860,note_on,0,0,1,,,,,,,,0,,,73,73
52860,note_on,60,0,1,,,,,,,,0,,,73,0
52860,note_on,60,0,2,,,,,,,,1,,,55,0
52860,note_on,0,0,2,,,,,,,,1,,,58,68
52920,note_on,60,0,1,,,,,,,,0,,,73,0
52920,note_on,0,0,1,,,,,,,,0,,,74,73
52920,note_on,60,0,2,,,,,,,,1,,,58,0
52920,note_on,0,0,2,,,,,,,,1,,,50,67
52980,note_on,0,0,2,,,,,,,,1,,,55,67
52980,note_on,60,0,2,,,,,,,,1,,,50,0
53040,note_on,60,0,2,,,,,,,,1,,,55,0
53040,note_on,0,0,2,,,,,,,,1,,,59,67
53100,note_on,60,0,2,,,,,,,,1,,,59,0
53100,note_on,0,0,2,,,,,,,,1,,,50,67
53100,note_on,180,0,1,,,,,,,,0,,,74,0
53100,note_on,0,0,1,,,,,,,,0,,,79,73
53160,note_on,60,0,1,,,,,,,,0,,,79,0
53160,note_on,60,0,2,,,,,,,,1,,,50,0
53160,note_on,0,0,2,,,,,,,,1,,,55,67
53160,note_on,0,0,1,,,,,,,,0,,,83,73
53220,note_on,60,0,2,,,,,,,,1,,,55,0
53220,note_on,60,0,1,,,,,,,,0,,,83,0
53220,note_on,0,0,2,,,,,,,,1,,,59,67
53220,note_on,0,0,1,,,,,,,,0,,,85,73
53280,note_on,0,0,2,,,,,,,,1,,,50,67
53280,note_on,0,0,1,,,,,,,,0,,,86,73
53280,note_on,60,0,1,,,,,,,,0,,,85,0
53280,note_on,60,0,2,,,,,,,,1,,,59,0
53340,note_on,0,0,1,,,,,,,,0,,,88,72
53340,note_on,60,0,1,,,,,,,,0,,,86,0
53340,note_on,0,0,2,,,,,,,,1,,,54,67
53340,note_on,60,0,2,,,,,,,,1,,,50,0
53400,note_on,0,0,1,,,,,,,,0,,,86,72
53400,note_on,60,0,1,,,,,,,,0,,,88,0
53400,note_on,60,0,2,,,,,,,,1,,,54,0
53400,note_on,0,0,2,,,,,,,,1,,,60,67
53460,note_on,60,0,2,,,,,,,,1,,,60,0
53460,note_on,0,0,2,,,,,,,,1,,,50,66
53460,note_on,60,0,1,,,,,,,,0,,,86,0
53460,note_on,0,0,1,,,,,,,,0,,,84,71
53520,note_on,60,0,2,,,,,,,,1,,,50,0
53520,note_on,0,0,2,,,,,,,,1,,,54,66
53520,note_on,60,0,1,,,,,,,,0,,,84,0
53520,note_on,0,0,1,,,,,,,,0,,,83,71
53580,note_on,60,0,1,,,,,,,,0,,,83,0
53580,note_on,0,0,2,,,,,,,,1,,,60,66
53580,note_on,60,0,2,,,,,,,,1,,,54,0
53580,note_on,0,0,1,,,,,,,,0,,,81,71
53640,note_on,60,0,1,,,,,,,,0,,,81,0
53640,key_signature,53640,1,0,,,,,G,,,,,,,
53640,note_on,60,0,2,,,,,,,,1,,,60,0
53640,note_on,0,0,2,,,,,,,,1,,,43,68
53640,note_on,0,0,2,,,,,,,,1,,,47,68
53640,note_on,0,0,2,,,,,,,,1,,,50,68
53640,note_on,0,0,2,,,,,,,,1,,,55,68
53640,note_on,0,0,1,,,,,,,,0,,,83,99
53670,note_on,30,0,1,,,,,,,,0,,,83,0
53670,note_on,0,0,1,,,,,,,,0,,,86,99
53700,note_on,30,0,1,,,,,,,,0,,,86,0
53700,note_on,0,0,1,,,,,,,,0,,,84,99
53730,note_on,0,0,1,,,,,,,,0,,,83,99
53730,note_on,30,0,1,,,,,,,,0,,,84,0
53760,note_on,120,0,2,,,,,,,,1,,,55,0
53760,note_on,0,0,2,,,,,,,,1,,,47,0
53760,note_on,30,0,1,,,,,,,,0,,,83,0
53760,note_on,0,0,1,,,,,,,,0,,,81,101
53760,note_on,0,0,2,,,,,,,,1,,,43,0
53760,note_on,0,0,2,,,,,,,,1,,,50,0
53790,note_on,30,0,1,,,,,,,,0,,,81,0
53790,note_on,0,0,1,,,,,,,,0,,,79,101
53820,note_on,60,0,2,,,,,,,,1,,,45,71
53820,note_on,0,0,2,,,,,,,,1,,,48,71
53820,note_on,0,0,2,,,,,,,,1,,,50,71
53820,note_on,0,0,1,,,,,,,,0,,,78,101
53820,note_on,30,0,1,,,,,,,,0,,,79,0
53820,note_on,0,0,2,,,,,,,,1,,,54,71
53850,note_on,0,0,1,,,,,,,,0,,,76,101
53850,note_on,30,0,1,,,,,,,,0,,,78,0
53880,note_on,30,0,1,,,,,,,,0,,,76,0
53880,note_on,0,0,1,,,,,,,,0,,,74,101
53910,note_on,30,0,1,,,,,,,,0,,,74,0
53910,note_on,0,0,1,,,,,,,,0,,,72,101
53940,note_on,30,0,1,,,,,,,,0,,,72,0
53940,note_on,0,0,1,,,,,,,,0,,,71,101
53940,note_on,120,0,2,,,,,,,,1,,,54,0
53940,note_on,0,0,2,,,,,,,,1,,,45,0
53940,note_on,0,0,2,,,,,,,,1,,,48,0
53940,note_on,0,0,2,,,,,,,,1,,,50,0
53970,note_on,30,0,1,,,,,,,,0,,,71,0
53970,note_on,0,0,1,,,,,,,,0,,,69,101
54000,note_on,30,0,1,,,,,,,,0,,,69,0
54000,note_on,60,0,2,,,,,,,,1,,,47,71
54000,note_on,0,0,2,,,,,,,,1,,,50,71
54000,note_on,0,0,2,,,,,,,,1,,,55,71
54000,note_on,0,0,1,,,,,,,,0,,,67,101
54030,note_on,0,0,1,,,,,,,,0,,,66,101
54030,note_on,30,0,1,,,,,,,,0,,,67,0
54060,note_on,30,0,1,,,,,,,,0,,,66,0
54060,note_on,0,0,1,,,,,,,,0,,,67,101
54090,note_on,30,0,1,,,,,,,,0,,,67,0
54090,note_on,0,0,1,,,,,,,,0,,,69,101
54120,note_on,0,0,2,,,,,,,,1,,,47,0
54120,note_on,0,0,2,,,,,,,,1,,,50,0
54120,note_on,120,0,2,,,,,,,,1,,,55,0
54120,note_on,30,0,1,,,,,,,,0,,,69,0
54120,note_on,0,0,1,,,,,,,,0,,,71,101
54150,note_on,0,0,1,,,,,,,,0,,,72,101
54150,note_on,30,0,1,,,,,,,,0,,,71,0
54180,note_on,30,0,1,,,,,,,,0,,,72,0
54180,note_on,0,0,1,,,,,,,,0,,,74,101
54210,note_on,30,0,1,,,,,,,,0,,,74,0
54210,note_on,0,0,1,,,,,,,,0,,,76,101
54240,note_on,30,0,1,,,,,,,,0,,,76,0
54240,note_on,0,0,1,,,,,,,,0,,,78,101
54270,note_on,30,0,1,,,,,,,,0,,,78,0
54270,note_on,0,0,1,,,,,,,,0,,,79,101
54300,note_on,0,0,1,,,,,,,,0,,,81,101
54300,note_on,30,0,1,,,,,,,,0,,,79,0
54330,note_on,0,0,1,,,,,,,,0,,,83,101
54330,note_on,30,0,1,,,,,,,,0,,,81,0
54360,note_on,0,0,1,,,,,,,,0,,,84,101
54360,note_on,30,0,1,,,,,,,,0,,,83,0
54360,note_on,0,0,2,,,,,,,,1,,,62,73
54360,note_on,0,0,2,,,,,,,,1,,,57,73
54360,note_on,240,0,2,,,,,,,,1,,,54,73
54390,note_on,30,0,1,,,,,,,,0,,,84,0
54390,note_on,0,0,1,,,,,,,,0,,,86,101
54420,note_on,0,0,1,,,,,,,,0,,,84,101
54420,note_on,30,0,1,,,,,,,,0,,,86,0
54450,note_on,0,0,1,,,,,,,,0,,,83,101
54450,note_on,30,0,1,,,,,,,,0,,,84,0
54480,note_on,30,0,1,,,,,,,,0,,,83,0
54480,note_on,120,0,2,,,,,,,,1,,,62,0
54480,note_on,0,0,2,,,,,,,,1,,,57,0
54480,note_on,0,0,2,,,,,,,,1,,,54,0
54480,note_on,0,0,1,,,,,,,,0,,,84,101
54510,note_on,30,0,1,,,,,,,,0,,,84,0
54510,note_on,0,0,1,,,,,,,,0,,,81,101
54540,note_on,0,0,2,,,,,,,,1,,,55,75
54540,note_on,30,0,1,,,,,,,,0,,,81,0
54540,note_on,0,0,1,,,,,,,,0,,,83,101
54540,note_on,0,0,2,,,,,,,,1,,,59,75
54540,note_on,60,0,2,,,,,,,,1,,,62,75
54570,note_on,30,0,1,,,,,,,,0,,,83,0
54570,note_on,0,0,1,,,,,,,,0,,,84,101
54600,note_on,30,0,1,,,,,,,,0,,,84,0
54600,note_on,0,0,1,,,,,,,,0,,,83,101
54630,note_on,30,0,1,,,,,,,,0,,,83,0
54630,note_on,0,0,1,,,,,,,,0,,,81,101
54660,note_on,30,0,1,,,,,,,,0,,,81,0
54660,note_on,0,0,1,,,,,,,,0,,,83,101
54660,note_on,0,0,2,,,,,,,,1,,,55,0
54660,note_on,0,0,2,,,,,,,,1,,,62,0
54660,note_on,120,0,2,,,,,,,,1,,,59,0
54690,note_on,0,0,1,,,,,,,,0,,,79,101
54690,note_on,30,0,1,,,,,,,,0,,,83,0
54720,note_on,30,0,1,,,,,,,,0,,,79,0
54720,note_on,0,0,1,,,,,,,,0,,,86,101
54720,note_on,0,0,2,,,,,,,,1,,,62,75
54720,note_on,0,0,2,,,,,,,,1,,,57,75
54720,note_on,0,0,2,,,,,,,,1,,,54,75
54720,note_on,60,0,2,,,,,,,,1,,,50,75
54750,note_on,0,0,1,,,,,,,,0,,,81,101
54750,note_on,30,0,1,,,,,,,,0,,,86,0
54780,note_on,0,0,1,,,,,,,,0,,,78,101
54780,note_on,30,0,1,,,,,,,,0,,,81,0
54810,note_on,30,0,1,,,,,,,,0,,,78,0
54810,note_on,0,0,1,,,,,,,,0,,,74,101
54840,note_on,30,0,1,,,,,,,,0,,,74,0
54840,note_on,0,0,1,,,,,,,,0,,,69,101
54840,note_on,120,0,2,,,,,,,,1,,,62,0
54840,note_on,0,0,2,,,,,,,,1,,,50,0
54840,note_on,0,0,2,,,,,,,,1,,,54,0
54840,note_on,0,0,2,,,,,,,,1,,,57,0
54870,note_on,30,0,1,,,,,,,,0,,,69,0
54870,note_on,0,0,1,,,,,,,,0,,,66,101
54900,control_change,0,0,1,,,,,,,,0,64,127,,
54900,note_on,0,0,1,,,,,,,,0,,,62,101
54900,note_on,30,0,1,,,,,,,,0,,,66,0
55020,note_on,120,0,1,,,,,,,,0,,,62,0
55020,control_change,0,0,1,,,,,,,,0,64,0,,
55080,note_on,0,0,2,,,,,,,,1,,,55,76
55080,note_on,60,0,1,,,,,,,,0,,,83,101
55080,note_on,240,0,2,,,,,,,,1,,,50,76
55080,note_on,0,0,2,,,,,,,,1,,,47,76
55080,note_on,0,0,2,,,,,,,,1,,,43,76
55110,note_on,0,0,1,,,,,,,,0,,,86,101
55110,note_on,30,0,1,,,,,,,,0,,,83,0
55140,note_on,0,0,1,,,,,,,,0,,,84,101
55140,note_on,30,0,1,,,,,,,,0,,,86,0
55170,note_on,0,0,1,,,,,,,,0,,,83,101
55170,note_on,30,0,1,,,,,,,,0,,,84,0
55200,note_on,30,0,1,,,,,,,,0,,,83,0
55200,note_on,0,0,2,,,,,,,,1,,,43,0
55200,note_on,0,0,2,,,,,,,,1,,,55,0
55200,note_on,0,0,2,,,,,,,,1,,,50,0
55200,note_on,120,0,2,,,,,,,,1,,,47,0
55200,note_on,0,0,1,,,,,,,,0,,,81,101
55230,note_on,0,0,1,,,,,,,,0,,,79,101
55230,note_on,30,0,1,,,,,,,,0,,,81,0
55260,note_on,30,0,1,,,,,,,,0,,,79,0
55260,note_on,0,0,1,,,,,,,,0,,,78,101
55260,note_on,60,0,2,,,,,,,,1,,,50,76
55260,note_on,0,0,2,,,,,,,,1,,,54,76
55260,note_on,0,0,2,,,,,,,,1,,,45,76
55260,note_on,0,0,2,,,,,,,,1,,,48,76
55290,note_on,30,0,1,,,,,,,,0,,,78,0
55290,note_on,0,0,1,,,,,,,,0,,,76,101
55320,note_on,30,0,1,,,,,,,,0,,,76,0
55320,note_on,0,0,1,,,,,,,,0,,,74,101
55350,note_on,30,0,1,,,,,,,,0,,,74,0
55350,note_on,0,0,1,,,,,,,,0,,,72,101
55380,note_on,30,0,1,,,,,,,,0,,,72,0
55380,note_on,120,0,2,,,,,,,,1,,,48,0
55380,note_on,0,0,2,,,,,,,,1,,,50,0
55380,note_on,0,0,2,,,,,,,,1,,,54,0
55380,note_on,0,0,2,,,,,,,,1,,,45,0
55380,note_on,0,0,1,,,,,,,,0,,,71,101
55410,note_on,30,0,1,,,,,,,,0,,,71,0
55410,note_on,0,0,1,,,,,,,,0,,,69,101
55440,note_on,30,0,1,,,,,,,,0,,,69,0
55440,note_on,0,0,1,,,,,,,,0,,,71,101
55440,note_on,60,0,2,,,,,,,,1,,,47,76
55440,note_on,0,0,2,,,,,,,,1,,,50,76
55440,note_on,0,0,2,,,,,,,,1,,,55,76
55470,note_on,30,0,1,,,,,,,,0,,,71,0
55470,note_on,0,0,1,,,,,,,,0,,,74,101
55500,note_on,30,0,1,,,,,,,,0,,,74,0
55500,note_on,0,0,1,,,,,,,,0,,,72,101
55530,note_on,30,0,1,,,,,,,,0,,,72,0
55530,note_on,0,0,1,,,,,,,,0,,,71,101
55560,note_on,0,0,2,,,,,,,,1,,,47,0
55560,note_on,0,0,2,,,,,,,,1,,,50,0
55560,note_on,0,0,1,,,,,,,,0,,,69,100
55560,note_on,30,0,1,,,,,,,,0,,,71,0
55560,note_on,120,0,2,,,,,,,,1,,,55,0
55590,note_on,0,0,1,,,,,,,,0,,,67,100
55590,note_on,30,0,1,,,,,,,,0,,,69,0
55620,note_on,60,0,2,,,,,,,,1,,,48,76
55620,note_on,0,0,2,,,,,,,,1,,,52,76
55620,note_on,0,0,1,,,,,,,,0,,,66,100
55620,note_on,30,0,1,,,,,,,,0,,,67,0
55650,note_on,0,0,1,,,,,,,,0,,,64,100
55650,note_on,30,0,1,,,,,,,,0,,,66,0
55680,note_on,0,0,1,,,,,,,,0,,,62,100
55680,note_on,30,0,1,,,,,,,,0,,,64,0
55710,note_on,0,0,1,,,,,,,,0,,,60,100
55710,note_on,30,0,1,,,,,,,,0,,,62,0
55740,note_on,0,0,1,,,,,,,,0,,,59,100
55740,note_on,30,0,1,,,,,,,,0,,,60,0
55740,note_on,120,0,2,,,,,,,,1,,,52,0
55740,note_on,0,0,2,,,,,,,,1,,,48,0
55770,note_on,30,0,1,,,,,,,,0,,,59,0
55770,note_on,0,0,1,,,,,,,,0,,,57,100
55800,note_on,0,0,1,,,,,,,,0,,,55,100
55800,note_on,30,0,1,,,,,,,,0,,,57,0
55800,note_on,60,0,2,,,,,,,,1,,,50,75
55860,note_on,0,0,1,,,,,,,,0,,,59,100
55860,note_on,60,0,1,,,,,,,,0,,,55,0
55920,note_on,120,0,2,,,,,,,,1,,,50,0
55920,note_on,0,0,1,,,,,,,,0,,,62,99
55920,note_on,60,0,1,,,,,,,,0,,,59,0
55980,note_on,60,0,2,,,,,,,,1,,,38,75
55980,note_on,0,0,1,,,,,,,,0,,,67,99
55980,note_on,0,0,1,,,,,,,,0,,,59,99
55980,note_on,60,0,1,,,,,,,,0,,,62,0
56040,note_on,0,0,1,,,,,,,,0,,,60,99
56040,note_on,0,0,1,,,,,,,,0,,,69,99
56040,note_on,0,0,1,,,,,,,,0,,,59,0
56040,note_on,60,0,1,,,,,,,,0,,,67,0
56100,note_on,0,0,1,,,,,,,,0,,,57,99
56100,note_on,0,0,1,,,,,,,,0,,,60,0
56100,note_on,60,0,1,,,,,,,,0,,,69,0
56100,note_on,0,0,1,,,,,,,,0,,,66,99
56100,note_on,120,0,2,,,,,,,,1,,,38,0
56160,note_on,0,0,1,,,,,,,,0,,,59,99
56160,note_on,0,0,1,,,,,,,,0,,,67,99
56160,note_on,0,0,1,,,,,,,,0,,,57,0
56160,note_on,60,0,1,,,,,,,,0,,,66,0
56160,note_on,60,0,2,,,,,,,,1,,,43,76
56220,note_on,0,0,2,,,,,,,,1,,,55,76
56220,note_on,60,0,2,,,,,,,,1,,,43,0
56280,note_on,60,0,2,,,,,,,,1,,,55,0
56280,note_on,0,0,2,,,,,,,,1,,,55,76
56340,note_on,0,0,1,,,,,,,,0,,,59,0
56340,note_on,180,0,1,,,,,,,,0,,,67,0
56340,note_on,60,0,2,,,,,,,,1,,,55,0
56340,note_on,0,0,2,,,,,,,,1,,,55,76
56460,note_on,120,0,1,,,,,,,,0,,,75,98
56460,note_on,120,0,2,,,,,,,,1,,,55,0
56520,note_on,60,0,2,,,,,,,,1,,,60,76
56520,note_on,60,0,1,,,,,,,,0,,,75,0
56520,note_on,0,0,1,,,,,,,,0,,,69,98
56520,note_on,0,0,1,,,,,,,,0,,,66,98
56520,note_on,0,0,1,,,,,,,,0,,,75,98
56580,note_on,60,0,2,,,,,,,,1,,,60,0
56580,note_on,60,0,1,,,,,,,,0,,,75,0
56580,note_on,0,0,2,,,,,,,,1,,,62,76
56580,note_on,0,0,1,,,,,,,,0,,,74,98
56640,note_on,60,0,1,,,,,,,,0,,,74,0
56640,note_on,0,0,2,,,,,,,,1,,,63,76
56640,note_on,60,0,2,,,,,,,,1,,,62,0
56640,note_on,0,0,1,,,,,,,,0,,,72,98
56700,note_on,0,0,1,,,,,,,,0,,,66,0
56700,note_on,0,0,1,,,,,,,,0,,,69,0
56700,note_on,0,0,1,,,,,,,,0,,,69,98
56700,note_on,0,0,1,,,,,,,,0,,,66,98
56700,note_on,0,0,1,,,,,,,,0,,,72,98
56700,note_on,60,0,2,,,,,,,,1,,,63,0
56700,note_on,0,0,2,,,,,,,,1,,,63,76
56700,note_on,60,0,1,,,,,,,,0,,,72,0
56760,note_on,60,0,2,,,,,,,,1,,,63,0
56760,note_on,0,0,2,,,,,,,,1,,,62,75
56760,note_on,0,0,1,,,,,,,,0,,,74,97
56760,note_on,60,0,1,,,,,,,,0,,,72,0
56820,note_on,60,0,1,,,,,,,,0,,,74,0
56820,note_on,60,0,2,,,,,,,,1,,,62,0
56820,note_on,0,0,2,,,,,,,,1,,,60,75
56820,note_on,0,0,1,,,,,,,,0,,,75,97
56880,note_on,60,0,2,,,,,,,,1,,,60,0
56880,note_on,0,0,1,,,,,,,,0,,,66,0
56880,note_on,0,0,1,,,,,,,,0,,,69,0
56880,note_on,60,0,1,,,,,,,,0,,,75,0
56880,note_on,0,0,1,,,,,,,,0,,,66,97
56880,note_on,0,0,2,,,,,,,,1,,,60,74
56880,note_on,0,0,1,,,,,,,,0,,,69,97
56880,note_on,0,0,1,,,,,,,,0,,,75,97
56940,note_on,60,0,1,,,,,,,,0,,,75,0
56940,note_on,0,0,1,,,,,,,,0,,,74,97
56940,note_on,60,0,2,,,,,,,,1,,,60,0
56940,note_on,0,0,2,,,,,,,,1,,,62,74
57000,note_on,60,0,1,,,,,,,,0,,,74,0
57000,note_on,0,0,1,,,,,,,,0,,,72,95
57000,note_on,60,0,2,,,,,,,,1,,,62,0
57000,note_on,0,0,2,,,,,,,,1,,,63,73
57060,note_on,0,0,1,,,,,,,,0,,,66,0
57060,note_on,60,0,2,,,,,,,,1,,,63,0
57060,control_change,0,0,2,,,,,,,,1,64,127,,
57060,note_on,60,0,1,,,,,,,,0,,,72,0
57060,note_on,0,0,1,,,,,,,,0,,,69,0
57060,note_on,0,0,1,,,,,,,,0,,,66,95
57060,note_on,0,0,1,,,,,,,,0,,,69,95
57060,note_on,0,0,1,,,,,,,,0,,,72,95
57060,control_change,0,0,1,,,,,,,,0,64,127,,
57060,note_on,0,0,2,,,,,,,,1,,,63,72
57180,control_change,120,0,1,,,,,,,,0,64,0,,
57180,control_change,120,0,2,,,,,,,,1,64,0,,
57240,note_on,60,0,1,,,,,,,,0,,,72,0
57240,end_of_track,0,1,0,,,,,,,,,,,,
57240,note_on,60,0,2,,,,,,,,1,,,63,0
57240,note_on,0,0,1,,,,,,,,0,,,67,94
57240,note_on,0,0,1,,,,,,,,0,,,66,0
57240,note_on,0,0,1,,,,,,,,0,,,69,0
57240,note_on,0,0,1,,,,,,,,0,,,70,94
57240,key_signature,3600,1,0,,,,,Bb,,,,,,,
57240,note_on,0,0,1,,,,,,,,0,,,64,94
57240,note_on,0,0,1,,,,,,,,0,,,61,94
57270,note_on,0,0,1,,,,,,,,0,,,69,94
57270,note_on,30,0,1,,,,,,,,0,,,70,0
57300,note_on,0,0,1,,,,,,,,0,,,67,0
57300,note_on,0,0,1,,,,,,,,0,,,64,0
57300,note_on,0,0,1,,,,,,,,0,,,61,0
57300,note_on,0,0,1,,,,,,,,0,,,61,94
57300,note_on,0,0,1,,,,,,,,0,,,64,94
57300,note_on,0,0,1,,,,,,,,0,,,67,94
57300,note_on,0,0,1,,,,,,,,0,,,70,94
57300,note_on,30,0,1,,,,,,,,0,,,69,0
57330,note_on,0,0,1,,,,,,,,0,,,69,94
57330,note_on,30,0,1,,,,,,,,0,,,70,0
57360,note_on,0,0,1,,,,,,,,0,,,67,0
57360,note_on,30,0,1,,,,,,,,0,,,69,0
57360,note_on,0,0,1,,,,,,,,0,,,70,58
57360,note_on,0,0,1,,,,,,,,0,,,67,68
57360,note_on,0,0,1,,,,,,,,0,,,64,68
57360,note_on,0,0,1,,,,,,,,0,,,61,0
57360,note_on,0,0,1,,,,,,,,0,,,64,0
57360,note_on,0,0,1,,,,,,,,0,,,61,68
57390,note_on,30,0,1,,,,,,,,0,,,70,0
57390,note_on,0,0,1,,,,,,,,0,,,69,58
57420,note_on,30,0,1,,,,,,,,0,,,69,0
57420,note_on,0,0,1,,,,,,,,0,,,67,0
57420,note_on,0,0,1,,,,,,,,0,,,64,0
57420,note_on,0,0,1,,,,,,,,0,,,61,0
57420,note_on,0,0,1,,,,,,,,0,,,64,68
57420,note_on,0,0,1,,,,,,,,0,,,67,68
57420,note_on,0,0,1,,,,,,,,0,,,70,58
57420,note_on,0,0,1,,,,,,,,0,,,61,68
57540,note_on,120,0,1,,,,,,,,0,,,70,0
57540,note_on,0,0,1,,,,,,,,0,,,61,0
57540,note_on,0,0,1,,,,,,,,0,,,67,0
57540,note_on,0,0,1,,,,,,,,0,,,64,0
57600,note_on,0,0,1,,,,,,,,0,,,74,68
57600,note_on,0,0,1,,,,,,,,0,,,67,68
57600,note_on,0,0,1,,,,,,,,0,,,70,68
57600,note_on,60,0,1,,,,,,,,0,,,62,68
57630,note_on,0,0,1,,,,,,,,0,,,73,68
57630,note_on,30,0,1,,,,,,,,0,,,74,0
57660,note_on,0,0,1,,,,,,,,0,,,67,0
57660,note_on,0,0,1,,,,,,,,0,,,70,0
57660,note_on,0,0,1,,,,,,,,0,,,62,0
57660,note_on,0,0,1,,,,,,,,0,,,62,68
57660,note_on,0,0,1,,,,,,,,0,,,70,68
57660,note_on,0,0,1,,,,,,,,0,,,67,68
57660,note_on,0,0,1,,,,,,,,0,,,74,68
57660,note_on,30,0,1,,,,,,,,0,,,73,0
57690,note_on,0,0,1,,,,,,,,0,,,73,68
57690,note_on,30,0,1,,,,,,,,0,,,74,0
57720,note_on,0,0,1,,,,,,,,0,,,62,0
57720,note_on,0,0,1,,,,,,,,0,,,70,0
57720,note_on,0,0,1,,,,,,,,0,,,74,68
57720,note_on,0,0,1,,,,,,,,0,,,67,68
57720,note_on,0,0,1,,,,,,,,0,,,67,0
57720,note_on,0,0,1,,,,,,,,0,,,62,68
57720,note_on,30,0,1,,,,,,,,0,,,73,0
57720,note_on,0,0,1,,,,,,,,0,,,70,68
57750,note_on,30,0,1,,,,,,,,0,,,74,0
57750,note_on,0,0,1,,,,,,,,0,,,73,68
57780,note_on,30,0,1,,,,,,,,0,,,73,0
57780,note_on,0,0,1,,,,,,,,0,,,67,0
57780,note_on,0,0,1,,,,,,,,0,,,62,0
57780,note_on,0,0,1,,,,,,,,0,,,62,68
57780,note_on,0,0,1,,,,,,,,0,,,67,68
57780,note_on,0,0,1,,,,,,,,0,,,70,68
57780,note_on,0,0,1,,,,,,,,0,,,74,68
57780,note_on,0,0,1,,,,,,,,0,,,70,0
57900,note_on,120,0,1,,,,,,,,0,,,74,0
57900,note_on,0,0,1,,,,,,,,0,,,62,0
57900,note_on,0,0,1,,,,,,,,0,,,70,0
57900,note_on,0,0,1,,,,,,,,0,,,67,0
57960,note_on,0,0,2,,,,,,,,1,,,38,74
57960,note_on,60,0,1,,,,,,,,0,,,86,69
57960,note_on,720,0,2,,,,,,,,1,,,50,74
57990,note_on,0,0,1,,,,,,,,0,,,85,69
57990,note_on,30,0,1,,,,,,,,0,,,86,0
58020,note_on,0,0,1,,,,,,,,0,,,86,69
58020,note_on,60,0,2,,,,,,,,1,,,38,0
58020,note_on,30,0,1,,,,,,,,0,,,85,0
58020,note_on,0,0,2,,,,,,,,1,,,50,0
58020,note_on,0,0,2,,,,,,,,1,,,38,74
58020,note_on,0,0,2,,,,,,,,1,,,50,74
58050,note_on,0,0,1,,,,,,,,0,,,85,69
58050,note_on,30,0,1,,,,,,,,0,,,86,0
58080,note_on,0,0,2,,,,,,,,1,,,50,74
58080,note_on,0,0,2,,,,,,,,1,,,38,74
58080,note_on,60,0,2,,,,,,,,1,,,38,0
58080,note_on,0,0,1,,,,,,,,0,,,86,69
58080,note_on,30,0,1,,,,,,,,0,,,85,0
58080,note_on,0,0,2,,,,,,,,1,,,50,0
58110,note_on,0,0,1,,,,,,,,0,,,85,69
58110,note_on,30,0,1,,,,,,,,0,,,86,0
58140,note_on,0,0,2,,,,,,,,1,,,38,75
58140,note_on,0,0,2,,,,,,,,1,,,50,0
58140,note_on,60,0,2,,,,,,,,1,,,38,0
58140,note_on,30,0,1,,,,,,,,0,,,85,0
58140,note_on,0,0,1,,,,,,,,0,,,86,69
58140,note_on,0,0,2,,,,,,,,1,,,50,75
58170,note_on,0,0,1,,,,,,,,0,,,85,69
58170,note_on,30,0,1,,,,,,,,0,,,86,0
58200,note_on,0,0,1,,,,,,,,0,,,86,69
58200,note_on,60,0,2,,,,,,,,1,,,38,0
58200,note_on,0,0,2,,,,,,,,1,,,50,0
58200,note_on,0,0,2,,,,,,,,1,,,50,75
58200,note_on,0,0,2,,,,,,,,1,,,38,75
58200,note_on,30,0,1,,,,,,,,0,,,85,0
58230,note_on,30,0,1,,,,,,,,0,,,86,0
58230,note_on,0,0,1,,,,,,,,0,,,85,69
58260,note_on,0,0,2,,,,,,,,1,,,50,0
58260,note_on,60,0,2,,,,,,,,1,,,38,0
58260,note_on,0,0,1,,,,,,,,0,,,86,69
58260,note_on,30,0,1,,,,,,,,0,,,85,0
58260,note_on,0,0,2,,,,,,,,1,,,38,76
58260,note_on,0,0,2,,,,,,,,1,,,50,76
58290,note_on,30,0,1,,,,,,,,0,,,86,0
58290,note_on,0,0,1,,,,,,,,0,,,84,69
58320,note_on,0,0,2,,,,,,,,1,,,31,76
58320,note_on,0,0,2,,,,,,,,1,,,43,76
58320,note_on,0,0,2,,,,,,,,1,,,50,0
58320,note_on,60,0,2,,,,,,,,1,,,38,0
58320,note_on,30,0,1,,,,,,,,0,,,84,0
58320,note_on,0,0,1,,,,,,,,0,,,83,69
58350,note_on,30,0,1,,,,,,,,0,,,83,0
58350,note_on,0,0,1,,,,,,,,0,,,86,69
58380,note_on,30,0,1,,,,,,,,0,,,86,0
58380,note_on,0,0,1,,,,,,,,0,,,84,69
58380,note_on,0,0,2,,,,,,,,1,,,43,0
58380,note_on,0,0,2,,,,,,,,1,,,31,76
58380,note_on,60,0,2,,,,,,,,1,,,31,0
58380,note_on,0,0,2,,,,,,,,1,,,43,76
58410,note_on,30,0,1,,,,,,,,0,,,84,0
58410,note_on,0,0,1,,,,,,,,0,,,83,69
58440,note_on,30,0,1,,,,,,,,0,,,83,0
58440,note_on,0,0,1,,,,,,,,0,,,81,69
58440,note_on,0,0,2,,,,,,,,1,,,31,76
58440,note_on,0,0,2,,,,,,,,1,,,43,76
58440,note_on,0,0,2,,,,,,,,1,,,43,0
58440,note_on,60,0,2,,,,,,,,1,,,31,0
58470,note_on,30,0,1,,,,,,,,0,,,81,0
58470,note_on,0,0,1,,,,,,,,0,,,79,69
58500,note_on,0,0,2,,,,,,,,1,,,43,0
58500,note_on,60,0,2,,,,,,,,1,,,31,0
58500,note_on,0,0,2,,,,,,,,1,,,43,76
58500,note_on,0,0,1,,,,,,,,0,,,78,69
58500,note_on,30,0,1,,,,,,,,0,,,79,0
58500,note_on,0,0,2,,,,,,,,1,,,31,76
58530,note_on,0,0,1,,,,,,,,0,,,76,69
58530,note_on,30,0,1,,,,,,,,0,,,78,0
58560,note_on,0,0,2,,,,,,,,1,,,31,76
58560,note_on,0,0,2,,,,,,,,1,,,43,76
58560,note_on,0,0,2,,,,,,,,1,,,31,0
58560,note_on,0,0,1,,,,,,,,0,,,74,69
58560,note_on,60,0,2,,,,,,,,1,,,43,0
58560,note_on,30,0,1,,,,,,,,0,,,76,0
58590,note_on,0,0,1,,,,,,,,0,,,72,69
58590,note_on,30,0,1,,,,,,,,0,,,74,0
58620,note_on,60,0,2,,,,,,,,1,,,31,0
58620,note_on,0,0,2,,,,,,,,1,,,43,0
58620,note_on,0,0,2,,,,,,,,1,,,31,76
58620,note_on,0,0,2,,,,,,,,1,,,43,76
58620,note_on,0,0,1,,,,,,,,0,,,71,69
58620,note_on,30,0,1,,,,,,,,0,,,72,0
58650,note_on,0,0,1,,,,,,,,0,,,69,69
58650,note_on,30,0,1,,,,,,,,0,,,71,0
58680,note_on,0,0,2,,,,,,,,1,,,43,0
58680,note_on,60,0,2,,,,,,,,1,,,31,0
58680,note_on,30,0,1,,,,,,,,0,,,69,0
58680,note_on,0,0,2,,,,,,,,1,,,34,76
58680,note_on,0,0,1,,,,,,,,0,,,67,69
58680,note_on,0,0,2,,,,,,,,1,,,46,76
58710,note_on,0,0,1,,,,,,,,0,,,66,69
58710,note_on,30,0,1,,,,,,,,0,,,67,0
58740,note_on,0,0,2,,,,,,,,1,,,46,76
58740,note_on,0,0,2,,,,,,,,1,,,34,76
58740,note_on,0,0,2,,,,,,,,1,,,34,0
58740,note_on,0,0,1,,,,,,,,0,,,63,69
58740,note_on,60,0,2,,,,,,,,1,,,46,0
58740,note_on,30,0,1,,,,,,,,0,,,66,0
58770,note_on,30,0,1,,,,,,,,0,,,63,0
58770,note_on,0,0,1,,,,,,,,0,,,62,69
58800,note_on,0,0,2,,,,,,,,1,,,46,0
58800,note_on,0,0,2,,,,,,,,1,,,46,76
58800,note_on,30,0,1,,,,,,,,0,,,62,0
58800,note_on,0,0,1,,,,,,,,0,,,60,69
58800,note_on,60,0,2,,,,,,,,1,,,34,0
58800,note_on,0,0,2,,,,,,,,1,,,34,76
58830,note_on,30,0,1,,,,,,,,0,,,60,0
58830,note_on,0,0,1,,,,,,,,0,,,58,69
58860,note_on,0,0,2,,,,,,,,1,,,36,76
58860,note_on,30,0,1,,,,,,,,0,,,58,0
58860,note_on,0,0,1,,,,,,,,0,,,57,69
58860,note_on,60,0,2,,,,,,,,1,,,34,0
58860,note_on,0,0,2,,,,,,,,1,,,48,76
58860,note_on,0,0,2,,,,,,,,1,,,46,0
58890,note_on,0,0,1,,,,,,,,0,,,55,69
58890,note_on,30,0,1,,,,,,,,0,,,57,0
58920,note_on,60,0,2,,,,,,,,1,,,48,0
58920,note_on,0,0,2,,,,,,,,1,,,36,0
58920,note_on,0,0,2,,,,,,,,1,,,36,76
58920,note_on,0,0,2,,,,,,,,1,,,54,76
58920,note_on,30,0,1,,,,,,,,0,,,55,0
58950,note_on,30,0,2,,,,,,,,1,,,54,0
58950,note_on,0,0,2,,,,,,,,1,,,51,76
58980,note_on,30,0,2,,,,,,,,1,,,51,0
58980,note_on,0,0,2,,,,,,,,1,,,36,0
58980,note_on,0,0,2,,,,,,,,1,,,50,76
58980,note_on,0,0,2,,,,,,,,1,,,36,76
59010,note_on,0,0,2,,,,,,,,1,,,48,76
59010,note_on,30,0,2,,,,,,,,1,,,50,0
59040,note_on,30,0,2,,,,,,,,1,,,48,0
59040,note_on,0,0,2,,,,,,,,1,,,36,0
59040,note_on,0,0,2,,,,,,,,1,,,46,76
59040,note_on,0,0,2,,,,,,,,1,,,38,76
59070,note_on,30,0,2,,,,,,,,1,,,46,0
59070,note_on,0,0,2,,,,,,,,1,,,50,76
59100,note_on,0,0,2,,,,,,,,1,,,55,76
59100,note_on,30,0,2,,,,,,,,1,,,50,0
59100,note_on,0,0,2,,,,,,,,1,,,38,0
59100,note_on,0,0,2,,,,,,,,1,,,38,76
59130,note_on,30,0,2,,,,,,,,1,,,55,0
59130,note_on,0,0,2,,,,,,,,1,,,50,76
59160,note_on,0,0,2,,,,,,,,1,,,55,76
59160,note_on,0,0,2,,,,,,,,1,,,38,76
59160,note_on,0,0,2,,,,,,,,1,,,38,0
59160,note_on,30,0,2,,,,,,,,1,,,50,0
59190,note_on,0,0,2,,,,,,,,1,,,50,76
59190,note_on,30,0,2,,,,,,,,1,,,55,0
59220,note_on,0,0,2,,,,,,,,1,,,38,76
59220,note_on,0,0,2,,,,,,,,1,,,45,76
59220,note_on,0,0,2,,,,,,,,1,,,38,0
59220,note_on,30,0,2,,,,,,,,1,,,50,0
59250,note_on,0,0,2,,,,,,,,1,,,50,76
59250,note_on,30,0,2,,,,,,,,1,,,45,0
59280,note_on,0,0,2,,,,,,,,1,,,38,0
59280,note_on,30,0,2,,,,,,,,1,,,50,0
59280,note_on,0,0,2,,,,,,,,1,,,38,76
59280,note_on,0,0,2,,,,,,,,1,,,54,76
59310,note_on,30,0,2,,,,,,,,1,,,54,0
59310,note_on,0,0,2,,,,,,,,1,,,50,76
59340,note_on,30,0,2,,,,,,,,1,,,50,0
59340,note_on,0,0,2,,,,,,,,1,,,38,0
59340,note_on,0,0,2,,,,,,,,1,,,38,76
59340,note_on,0,0,2,,,,,,,,1,,,54,76
59370,note_on,30,0,2,,,,,,,,1,,,54,0
59370,note_on,0,0,2,,,,,,,,1,,,50,76
59400,note_on,30,0,2,,,,,,,,1,,,50,0
59400,note_on,0,0,2,,,,,,,,1,,,38,0
59400,note_on,0,0,2,,,,,,,,1,,,31,76
59400,note_on,0,0,2,,,,,,,,1,,,55,76
59460,note_on,60,0,2,,,,,,,,1,,,43,75
59520,note_on,0,0,2,,,,,,,,1,,,43,75
59520,note_on,60,0,2,,,,,,,,1,,,43,0
59580,note_on,60,0,2,,,,,,,,1,,,43,0
59580,note_on,0,0,2,,,,,,,,1,,,55,0
59580,note_on,0,0,2,,,,,,,,1,,,43,75
59640,note_on,60,0,2,,,,,,,,1,,,43,0
59640,note_on,0,0,2,,,,,,,,1,,,43,74
59700,note_on,60,0,2,,,,,,,,1,,,43,0
59700,note_on,0,0,2,,,,,,,,1,,,43,74
59760,note_on,0,0,1,,,,,,,,0,,,77,69
59760,note_on,60,0,2,,,,,,,,1,,,43,0
59760,note_on,0,0,2,,,,,,,,1,,,31,0
59760,note_on,0,0,2,,,,,,,,1,,,43,74
59760,note_on,840,0,1,,,,,,,,0,,,71,69
59760,note_on,0,0,1,,,,,,,,0,,,74,69
59820,note_on,0,0,1,,,,,,,,0,,,80,69
59820,note_on,0,0,1,,,,,,,,0,,,71,0
59820,note_on,0,0,1,,,,,,,,0,,,74,0
59820,note_on,60,0,2,,,,,,,,1,,,55,74
59820,note_on,60,0,1,,,,,,,,0,,,77,0
59850,note_on,30,0,1,,,,,,,,0,,,80,0
59850,note_on,0,0,1,,,,,,,,0,,,79,69
59880,note_on,60,0,2,,,,,,,,1,,,55,0
59880,note_on,0,0,2,,,,,,,,1,,,55,74
59880,note_on,30,0,1,,,,,,,,0,,,79,0
59880,note_on,0,0,1,,,,,,,,0,,,77,69
59910,note_on,0,0,1,,,,,,,,0,,,75,69
59910,note_on,30,0,1,,,,,,,,0,,,77,0
59940,note_on,0,0,1,,,,,,,,0,,,74,69
59940,note_on,30,0,1,,,,,,,,0,,,75,0
59940,note_on,0,0,2,,,,,,,,1,,,55,74
59940,note_on,60,0,2,,,,,,,,1,,,55,0
60000,note_on,0,0,2,,,,,,,,1,,,55,75
60000,note_on,60,0,2,,,,,,,,1,,,55,0
60060,note_on,120,0,1,,,,,,,,0,,,74,0
60060,note_on,0,0,2,,,,,,,,1,,,55,76
60060,note_on,60,0,2,,,,,,,,1,,,55,0
60120,note_on,0,0,2,,,,,,,,1,,,43,76
60120,note_on,0,0,2,,,,,,,,1,,,43,0
60120,note_on,60,0,2,,,,,,,,1,,,55,0
60120,note_on,60,0,1,,,,,,,,0,,,72,69
60120,note_on,0,0,1,,,,,,,,0,,,75,69
60120,note_on,0,0,1,,,,,,,,0,,,67,69
60180,note_on,60,0,1,,,,,,,,0,,,67,0
60180,note_on,0,0,1,,,,,,,,0,,,75,0
60180,note_on,0,0,1,,,,,,,,0,,,72,0
60180,note_on,60,0,2,,,,,,,,1,,,55,76
60180,note_on,0,0,1,,,,,,,,0,,,79,69
60210,note_on,0,0,1,,,,,,,,0,,,77,69
60210,note_on,30,0,1,,,,,,,,0,,,79,0
60240,note_on,60,0,2,,,,,,,,1,,,55,0
60240,note_on,0,0,1,,,,,,,,0,,,75,69
60240,note_on,30,0,1,,,,,,,,0,,,77,0
60240,note_on,0,0,2,,,,,,,,1,,,55,76
60270,note_on,0,0,1,,,,,,,,0,,,74,69
60270,note_on,30,0,1,,,,,,,,0,,,75,0
60300,note_on,0,0,1,,,,,,,,0,,,72,69
60300,note_on,30,0,1,,,,,,,,0,,,74,0
60300,note_on,60,0,2,,,,,,,,1,,,55,0
60300,note_on,0,0,2,,,,,,,,1,,,55,76
60360,note_on,60,0,2,,,,,,,,1,,,55,0
60360,note_on,0,0,2,,,,,,,,1,,,55,76
60420,note_on,60,0,2,,,,,,,,1,,,55,0
60420,note_on,0,0,2,,,,,,,,1,,,55,76
60420,note_on,120,0,1,,,,,,,,0,,,72,0
60480,note_on,60,0,2,,,,,,,,1,,,55,0
60480,note_on,0,0,2,,,,,,,,1,,,43,0
60480,note_on,0,0,2,,,,,,,,1,,,43,76
60480,note_on,0,0,1,,,,,,,,0,,,84,69
60480,note_on,60,0,1,,,,,,,,0,,,75,69
60540,note_on,0,0,1,,,,,,,,0,,,75,0
60540,note_on,0,0,1,,,,,,,,0,,,84,69
60540,note_on,60,0,1,,,,,,,,0,,,84,0
60540,note_on,60,0,2,,,,,,,,1,,,55,76
60570,note_on,30,0,1,,,,,,,,0,,,84,0
60570,note_on,0,0,1,,,,,,,,0,,,83,69
60600,note_on,30,0,1,,,,,,,,0,,,83,0
60600,note_on,0,0,1,,,,,,,,0,,,84,69
60600,note_on,60,0,2,,,,,,,,1,,,55,0
60600,note_on,0,0,2,,,,,,,,1,,,55,76
60630,note_on,30,0,1,,,,,,,,0,,,84,0
60630,note_on,0,0,1,,,,,,,,0,,,86,69
60660,note_on,0,0,1,,,,,,,,0,,,87,69
60660,note_on,30,0,1,,,,,,,,0,,,86,0
60660,note_on,60,0,2,,,,,,,,1,,,55,0
60660,note_on,0,0,2,,,,,,,,1,,,55,76
60660,note_on,0,0,1,,,,,,,,0,,,78,69
60720,note_on,0,0,2,,,,,,,,1,,,55,76
60720,note_on,60,0,2,,,,,,,,1,,,55,0
60780,note_on,60,0,2,,,,,,,,1,,,55,0
60780,note_on,0,0,2,,,,,,,,1,,,55,76
60780,note_on,120,0,1,,,,,,,,0,,,78,0
60780,note_on,0,0,1,,,,,,,,0,,,84,69
60780,note_on,0,0,1,,,,,,,,0,,,87,0
60840,note_on,0,0,1,,,,,,,,0,,,55,69
60840,note_on,60,0,2,,,,,,,,1,,,55,0
60840,note_on,0,0,2,,,,,,,,1,,,43,0
60840,note_on,0,0,1,,,,,,,,0,,,79,69
60840,note_on,0,0,1,,,,,,,,0,,,83,69
60840,note_on,60,0,1,,,,,,,,0,,,84,0
60900,note_on,0,0,1,,,,,,,,0,,,86,69
60900,note_on,0,0,1,,,,,,,,0,,,83,0
60900,note_on,60,0,1,,,,,,,,0,,,79,0
60900,note_on,0,0,1,,,,,,,,0,,,67,69
60930,note_on,0,0,1,,,,,,,,0,,,84,69
60930,note_on,30,0,1,,,,,,,,0,,,86,0
60960,note_on,30,0,1,,,,,,,,0,,,84,0
60960,note_on,0,0,1,,,,,,,,0,,,67,0
60960,note_on,0,0,1,,,,,,,,0,,,83,69
60960,note_on,0,0,1,,,,,,,,0,,,67,69
60990,note_on,30,0,1,,,,,,,,0,,,83,0
60990,note_on,0,0,1,,,,,,,,0,,,81,69
61020,note_on,30,0,1,,,,,,,,0,,,81,0
61020,note_on,0,0,1,,,,,,,,0,,,67,0
61020,note_on,0,0,1,,,,,,,,0,,,79,69
61020,note_on,0,0,1,,,,,,,,0,,,67,69
61080,note_on,60,0,1,,,,,,,,0,,,67,0
61080,note_on,0,0,1,,,,,,,,0,,,67,69
61140,note_on,60,0,1,,,,,,,,0,,,67,0
61140,note_on,0,0,1,,,,,,,,0,,,67,69
61140,note_on,0,0,1,,,,,,,,0,,,79,0
61200,note_on,60,0,1,,,,,,,,0,,,67,0
61200,note_on,0,0,1,,,,,,,,0,,,55,0
61200,note_on,0,0,1,,,,,,,,0,,,77,69
61200,note_on,0,0,1,,,,,,,,0,,,55,69
61200,note_on,0,0,1,,,,,,,,0,,,86,69
61200,note_on,0,0,1,,,,,,,,0,,,83,69
61260,note_on,0,0,1,,,,,,,,0,,,86,0
61260,note_on,0,0,1,,,,,,,,0,,,67,69
61260,note_on,0,0,1,,,,,,,,0,,,89,69
61260,note_on,0,0,1,,,,,,,,0,,,77,0
61260,note_on,60,0,1,,,,,,,,0,,,83,0
61290,note_on,0,0,1,,,,,,,,0,,,87,69
61290,note_on,30,0,1,,,,,,,,0,,,89,0
61320,note_on,0,0,1,,,,,,,,0,,,86,69
61320,note_on,30,0,1,,,,,,,,0,,,87,0
61320,note_on,0,0,1,,,,,,,,0,,,67,0
61320,note_on,0,0,1,,,,,,,,0,,,67,69
61350,note_on,0,0,1,,,,,,,,0,,,84,69
61350,note_on,30,0,1,,,,,,,,0,,,86,0
61380,note_on,30,0,1,,,,,,,,0,,,84,0
61380,note_on,0,0,1,,,,,,,,0,,,67,69
61380,note_on,0,0,1,,,,,,,,0,,,67,0
61380,note_on,0,0,1,,,,,,,,0,,,82,69
61440,note_on,60,0,1,,,,,,,,0,,,67,0
61440,note_on,0,0,1,,,,,,,,0,,,67,69
61500,note_on,0,0,1,,,,,,,,0,,,82,0
61500,note_on,60,0,1,,,,,,,,0,,,67,0
61500,note_on,0,0,1,,,,,,,,0,,,67,69
61560,note_on,0,0,1,,,,,,,,0,,,55,69
61560,note_on,0,0,1,,,,,,,,0,,,84,69
61560,note_on,0,0,1,,,,,,,,0,,,75,69
61560,note_on,0,0,1,,,,,,,,0,,,79,69
61560,note_on,60,0,1,,,,,,,,0,,,67,0
61560,note_on,0,0,1,,,,,,,,0,,,55,0
61620,note_on,60,0,1,,,,,,,,0,,,79,0
61620,note_on,0,0,1,,,,,,,,0,,,75,0
61620,note_on,0,0,1,,,,,,,,0,,,84,0
61620,note_on,0,0,1,,,,,,,,0,,,79,69
61620,note_on,0,0,1,,,,,,,,0,,,67,69
61650,note_on,30,0,1,,,,,,,,0,,,79,0
61650,note_on,0,0,1,,,,,,,,0,,,77,69
61680,note_on,0,0,1,,,,,,,,0,,,67,68
61680,note_on,0,0,1,,,,,,,,0,,,75,68
61680,note_on,0,0,1,,,,,,,,0,,,67,0
61680,note_on,30,0,1,,,,,,,,0,,,77,0
61710,note_on,30,0,1,,,,,,,,0,,,75,0
61710,note_on,0,0,1,,,,,,,,0,,,74,68
61740,note_on,0,0,1,,,,,,,,0,,,67,68
61740,note_on,0,0,1,,,,,,,,0,,,72,68
61740,note_on,30,0,1,,,,,,,,0,,,74,0
61740,note_on,0,0,1,,,,,,,,0,,,67,0
61800,note_on,60,0,1,,,,,,,,0,,,67,0
61800,note_on,0,0,1,,,,,,,,0,,,67,68
61860,note_on,0,0,1,,,,,,,,0,,,72,0
61860,note_on,0,0,1,,,,,,,,0,,,67,68
61860,note_on,60,0,1,,,,,,,,0,,,67,0
61920,note_on,0,0,1,,,,,,,,0,,,55,68
61920,note_on,60,0,1,,,,,,,,0,,,67,0
61920,note_on,0,0,1,,,,,,,,0,,,84,68
61920,note_on,0,0,1,,,,,,,,0,,,78,68
61920,note_on,0,0,1,,,,,,,,0,,,75,68
61920,note_on,0,0,1,,,,,,,,0,,,55,0
61980,note_on,60,0,1,,,,,,,,0,,,75,0
61980,note_on,0,0,1,,,,,,,,0,,,84,0
61980,note_on,0,0,1,,,,,,,,0,,,78,0
61980,note_on,0,0,1,,,,,,,,0,,,67,68
61980,note_on,0,0,1,,,,,,,,0,,,87,68
62010,note_on,30,0,1,,,,,,,,0,,,87,0
62010,note_on,0,0,1,,,,,,,,0,,,84,68
62040,note_on,0,0,1,,,,,,,,0,,,67,0
62040,note_on,0,0,1,,,,,,,,0,,,82,68
62040,note_on,0,0,1,,,,,,,,0,,,67,68
62040,note_on,30,0,1,,,,,,,,0,,,84,0
62070,note_on,30,0,1,,,,,,,,0,,,82,0
62070,note_on,0,0,1,,,,,,,,0,,,80,68
62100,note_on,0,0,1,,,,,,,,0,,,67,0
62100,note_on,0,0,1,,,,,,,,0,,,79,68
62100,note_on,0,0,1,,,,,,,,0,,,67,68
62100,note_on,30,0,1,,,,,,,,0,,,80,0
62130,note_on,30,0,1,,,,,,,,0,,,79,0
62130,note_on,0,0,1,,,,,,,,0,,,78,68
62160,note_on,0,0,1,,,,,,,,0,,,67,68
62160,note_on,0,0,1,,,,,,,,0,,,77,68
62160,note_on,30,0,1,,,,,,,,0,,,78,0
62160,note_on,0,0,1,,,,,,,,0,,,67,0
62190,note_on,30,0,1,,,,,,,,0,,,77,0
62190,note_on,0,0,1,,,,,,,,0,,,78,68
62220,note_on,30,0,1,,,,,,,,0,,,78,0
62220,note_on,0,0,1,,,,,,,,0,,,67,0
62220,note_on,0,0,1,,,,,,,,0,,,84,68
62220,note_on,0,0,1,,,,,,,,0,,,67,68
62250,note_on,30,0,1,,,,,,,,0,,,84,0
62250,note_on,0,0,1,,,,,,,,0,,,78,68
62280,note_on,30,0,1,,,,,,,,0,,,78,0
62280,note_on,0,0,1,,,,,,,,0,,,67,0
62280,note_on,0,0,1,,,,,,,,0,,,55,0
62280,note_on,0,0,1,,,,,,,,0,,,79,68
62280,note_on,0,0,1,,,,,,,,0,,,55,68
62340,note_on,60,0,1,,,,,,,,0,,,67,68
62400,note_on,0,0,1,,,,,,,,0,,,67,68
62400,note_on,60,0,1,,,,,,,,0,,,67,0
62400,note_on,0,0,1,,,,,,,,0,,,79,0
62460,note_on,0,0,1,,,,,,,,0,,,67,68
62460,note_on,60,0,1,,,,,,,,0,,,67,0
62520,note_on,60,0,1,,,,,,,,0,,,67,0
62520,note_on,0,0,1,,,,,,,,0,,,67,68
62580,note_on,60,0,1,,,,,,,,0,,,67,0
62580,note_on,0,0,1,,,,,,,,0,,,67,68
62640,note_on,60,0,1,,,,,,,,0,,,67,0
62640,note_on,0,0,1,,,,,,,,0,,,55,0
62640,note_on,0,0,1,,,,,,,,0,,,62,68
62640,note_on,0,0,1,,,,,,,,0,,,79,68
62640,note_on,0,0,1,,,,,,,,0,,,77,68
62700,note_on,60,0,1,,,,,,,,0,,,77,0
62700,note_on,0,0,1,,,,,,,,0,,,62,0
62700,note_on,0,0,1,,,,,,,,0,,,79,68
62700,note_on,0,0,1,,,,,,,,0,,,79,0
62700,note_on,0,0,1,,,,,,,,0,,,65,68
62700,note_on,0,0,1,,,,,,,,0,,,77,68
62730,note_on,0,0,1,,,,,,,,0,,,63,68
62730,note_on,30,0,1,,,,,,,,0,,,65,0
62760,note_on,30,0,1,,,,,,,,0,,,63,0
62760,note_on,0,0,1,,,,,,,,0,,,79,0
62760,note_on,0,0,1,,,,,,,,0,,,77,0
62760,note_on,0,0,1,,,,,,,,0,,,62,68
62760,note_on,0,0,1,,,,,,,,0,,,77,68
62760,note_on,0,0,1,,,,,,,,0,,,79,68
62790,note_on,0,0,1,,,,,,,,0,,,60,68
62790,note_on,30,0,1,,,,,,,,0,,,62,0
62820,note_on,0,0,1,,,,,,,,0,,,79,0
62820,note_on,0,0,1,,,,,,,,0,,,77,0
62820,note_on,0,0,1,,,,,,,,0,,,59,68
62820,note_on,0,0,1,,,,,,,,0,,,74,68
62820,note_on,0,0,1,,,,,,,,0,,,77,68
62820,note_on,0,0,1,,,,,,,,0,,,79,68
62820,note_on,30,0,1,,,,,,,,0,,,60,0
62880,note_on,0,0,1,,,,,,,,0,,,79,68
62880,note_on,0,0,1,,,,,,,,0,,,77,68
62880,note_on,0,0,1,,,,,,,,0,,,74,0
62880,note_on,0,0,1,,,,,,,,0,,,77,0
62880,note_on,60,0,1,,,,,,,,0,,,79,0
62880,note_on,0,0,1,,,,,,,,0,,,74,68
62940,note_on,60,0,1,,,,,,,,0,,,79,0
62940,note_on,0,0,1,,,,,,,,0,,,59,0
62940,note_on,0,0,1,,,,,,,,0,,,74,0
62940,note_on,0,0,1,,,,,,,,0,,,77,0
62940,note_on,0,0,1,,,,,,,,0,,,74,68
62940,note_on,0,0,1,,,,,,,,0,,,77,68
62940,note_on,0,0,1,,,,,,,,0,,,79,68
63000,note_on,0,0,1,,,,,,,,0,,,60,68
63000,note_on,0,0,1,,,,,,,,0,,,79,68
63000,note_on,0,0,1,,,,,,,,0,,,75,68
63000,note_on,60,0,1,,,,,,,,0,,,79,0
63000,note_on,0,0,1,,,,,,,,0,,,74,0
63000,note_on,0,0,1,,,,,,,,0,,,77,0
63000,note_on,0,0,1,,,,,,,,0,,,72,68
63060,note_on,0,0,1,,,,,,,,0,,,67,68
63060,note_on,0,0,1,,,,,,,,0,,,72,68
63060,note_on,0,0,1,,,,,,,,0,,,79,68
63060,note_on,0,0,1,,,,,,,,0,,,79,0
63060,note_on,0,0,1,,,,,,,,0,,,75,0
63060,note_on,0,0,1,,,,,,,,0,,,72,0
63060,note_on,60,0,1,,,,,,,,0,,,60,0
63060,note_on,0,0,1,,,,,,,,0,,,75,68
63090,note_on,30,0,1,,,,,,,,0,,,67,0
63090,note_on,0,0,1,,,,,,,,0,,,65,68
63120,note_on,0,0,1,,,,,,,,0,,,63,68
63120,note_on,0,0,1,,,,,,,,0,,,79,68
63120,note_on,0,0,1,,,,,,,,0,,,75,68
63120,note_on,0,0,1,,,,,,,,0,,,72,68
63120,note_on,0,0,1,,,,,,,,0,,,75,0
63120,note_on,0,0,1,,,,,,,,0,,,79,0
63120,note_on,0,0,1,,,,,,,,0,,,72,0
63120,note_on,30,0,1,,,,,,,,0,,,65,0
63150,note_on,30,0,1,,,,,,,,0,,,63,0
63150,note_on,0,0,1,,,,,,,,0,,,62,68
63180,note_on,0,0,1,,,,,,,,0,,,79,68
63180,note_on,0,0,1,,,,,,,,0,,,72,68
63180,note_on,0,0,1,,,,,,,,0,,,60,68
63180,note_on,0,0,1,,,,,,,,0,,,75,68
63180,note_on,0,0,1,,,,,,,,0,,,75,0
63180,note_on,0,0,1,,,,,,,,0,,,79,0
63180,note_on,30,0,1,,,,,,,,0,,,62,0
63180,note_on,0,0,1,,,,,,,,0,,,72,0
63240,note_on,60,0,1,,,,,,,,0,,,79,0
63240,note_on,0,0,1,,,,,,,,0,,,75,0
63240,note_on,0,0,1,,,,,,,,0,,,72,0
63240,note_on,0,0,1,,,,,,,,0,,,72,67
63240,note_on,0,0,1,,,,,,,,0,,,75,67
63240,note_on,0,0,1,,,,,,,,0,,,79,67
63300,note_on,0,0,1,,,,,,,,0,,,79,67
63300,note_on,0,0,1,,,,,,,,0,,,75,67
63300,note_on,0,0,1,,,,,,,,0,,,72,67
63300,note_on,0,0,1,,,,,,,,0,,,72,0
63300,note_on,0,0,1,,,,,,,,0,,,60,0
63300,note_on,60,0,1,,,,,,,,0,,,79,0
63300,note_on,0,0,1,,,,,,,,0,,,75,0
63360,note_on,60,0,1,,,,,,,,0,,,79,0
63360,note_on,0,0,1,,,,,,,,0,,,75,0
63360,note_on,0,0,1,,,,,,,,0,,,84,67
63360,note_on,0,0,1,,,,,,,,0,,,78,67
63360,note_on,0,0,1,,,,,,,,0,,,72,67
63360,note_on,2520,0,2,,,,,,,,1,,,56,68
63360,note_on,0,0,1,,,,,,,,0,,,72,0
63420,note_on,0,0,1,,,,,,,,0,,,78,67
63420,note_on,0,0,1,,,,,,,,0,,,78,0
63420,note_on,0,0,1,,,,,,,,0,,,84,0
63420,note_on,0,0,1,,,,,,,,0,,,84,67
63420,note_on,0,0,1,,,,,,,,0,,,72,67
63420,note_on,60,0,1,,,,,,,,0,,,72,0
63420,note_on,0,0,2,,,,,,,,1,,,60,68
63420,note_on,60,0,2,,,,,,,,1,,,56,0
63450,note_on,0,0,2,,,,,,,,1,,,58,68
63450,note_on,30,0,2,,,,,,,,1,,,60,0
63480,note_on,30,0,2,,,,,,,,1,,,58,0
63480,note_on,0,0,1,,,,,,,,0,,,84,67
63480,note_on,0,0,1,,,,,,,,0,,,72,67
63480,note_on,0,0,1,,,,,,,,0,,,78,0
63480,note_on,0,0,1,,,,,,,,0,,,84,0
63480,note_on,60,0,1,,,,,,,,0,,,72,0
63480,note_on,0,0,2,,,,,,,,1,,,56,68
63480,note_on,0,0,1,,,,,,,,0,,,78,67
63510,note_on,30,0,2,,,,,,,,1,,,56,0
63510,note_on,0,0,2,,,,,,,,1,,,55,68
63540,note_on,30,0,2,,,,,,,,1,,,55,0
63540,note_on,0,0,2,,,,,,,,1,,,54,68
63540,note_on,0,0,1,,,,,,,,0,,,72,0
63540,note_on,60,0,1,,,,,,,,0,,,84,0
63540,note_on,0,0,1,,,,,,,,0,,,78,0
63540,note_on,0,0,1,,,,,,,,0,,,81,67
63540,note_on,0,0,1,,,,,,,,0,,,78,67
63540,note_on,0,0,1,,,,,,,,0,,,72,67
63540,note_on,0,0,1,,,,,,,,0,,,84,67
63600,note_on,0,0,1,,,,,,,,0,,,72,0
63600,note_on,0,0,1,,,,,,,,0,,,78,0
63600,note_on,0,0,1,,,,,,,,0,,,81,67
63600,note_on,0,0,1,,,,,,,,0,,,84,67
63600,note_on,0,0,1,,,,,,,,0,,,78,67
63600,note_on,0,0,1,,,,,,,,0,,,72,67
63600,note_on,60,0,1,,,,,,,,0,,,84,0
63600,note_on,0,0,1,,,,,,,,0,,,81,0
63660,note_on,0,0,1,,,,,,,,0,,,72,67
63660,note_on,120,0,2,,,,,,,,1,,,54,0
63660,note_on,60,0,1,,,,,,,,0,,,72,0
63660,note_on,0,0,1,,,,,,,,0,,,81,0
63660,note_on,0,0,1,,,,,,,,0,,,84,0
63660,note_on,0,0,1,,,,,,,,0,,,78,0
63660,note_on,0,0,1,,,,,,,,0,,,81,67
63660,note_on,0,0,1,,,,,,,,0,,,84,67
63660,note_on,0,0,1,,,,,,,,0,,,78,67
63720,note_on,60,0,1,,,,,,,,0,,,72,0
63720,note_on,0,0,1,,,,,,,,0,,,81,0
63720,note_on,0,0,1,,,,,,,,0,,,78,0
63720,note_on,0,0,1,,,,,,,,0,,,83,67
63720,note_on,0,0,1,,,,,,,,0,,,79,67
63720,note_on,0,0,1,,,,,,,,0,,,74,67
63720,note_on,0,0,1,,,,,,,,0,,,84,0
63720,note_on,60,0,2,,,,,,,,1,,,55,69
63780,note_on,0,0,1,,,,,,,,0,,,79,0
63780,note_on,0,0,1,,,,,,,,0,,,83,0
63780,note_on,0,0,1,,,,,,,,0,,,79,67
63780,note_on,0,0,1,,,,,,,,0,,,83,67
63780,note_on,0,0,1,,,,,,,,0,,,74,67
63780,note_on,60,0,2,,,,,,,,1,,,55,0
63780,note_on,0,0,2,,,,,,,,1,,,50,69
63780,note_on,60,0,1,,,,,,,,0,,,74,0
63810,note_on,0,0,2,,,,,,,,1,,,48,69
63810,note_on,30,0,2,,,,,,,,1,,,50,0
63840,note_on,0,0,2,,,,,,,,1,,,47,69
63840,note_on,30,0,2,,,,,,,,1,,,48,0
63840,note_on,0,0,1,,,,,,,,0,,,79,67
63840,note_on,0,0,1,,,,,,,,0,,,74,67
63840,note_on,0,0,1,,,,,,,,0,,,79,0
63840,note_on,0,0,1,,,,,,,,0,,,83,0
63840,note_on,60,0,1,,,,,,,,0,,,74,0
63840,note_on,0,0,1,,,,,,,,0,,,83,67
63870,note_on,30,0,2,,,,,,,,1,,,47,0
63870,note_on,0,0,2,,,,,,,,1,,,45,69
63900,note_on,0,0,1,,,,,,,,0,,,79,67
63900,note_on,0,0,2,,,,,,,,1,,,43,69
63900,note_on,0,0,1,,,,,,,,0,,,74,0
63900,note_on,30,0,2,,,,,,,,1,,,45,0
63900,note_on,0,0,1,,,,,,,,0,,,79,0
63900,note_on,0,0,1,,,,,,,,0,,,74,67
63900,note_on,0,0,1,,,,,,,,0,,,83,67
63900,note_on,60,0,1,,,,,,,,0,,,83,0
63960,note_on,0,0,1,,,,,,,,0,,,79,0
63960,note_on,0,0,1,,,,,,,,0,,,74,67
63960,note_on,0,0,1,,,,,,,,0,,,83,67
63960,note_on,0,0,1,,,,,,,,0,,,79,67
63960,note_on,60,0,1,,,,,,,,0,,,83,0
63960,note_on,0,0,1,,,,,,,,0,,,74,0
64020,note_on,0,0,1,,,,,,,,0,,,74,67
64020,note_on,60,0,1,,,,,,,,0,,,74,0
64020,note_on,0,0,1,,,,,,,,0,,,79,0
64020,note_on,0,0,1,,,,,,,,0,,,83,0
64020,note_on,0,0,1,,,,,,,,0,,,83,67
64020,note_on,0,0,1,,,,,,,,0,,,79,67
64020,note_on,120,0,2,,,,,,,,1,,,43,0
64080,note_on,0,0,1,,,,,,,,0,,,75,67
64080,note_on,0,0,1,,,,,,,,0,,,79,67
64080,note_on,0,0,1,,,,,,,,0,,,83,0
64080,note_on,0,0,1,,,,,,,,0,,,84,67
64080,note_on,60,0,2,,,,,,,,1,,,48,70
64080,note_on,60,0,1,,,,,,,,0,,,74,0
64080,note_on,0,0,1,,,,,,,,0,,,79,0
64140,note_on,0,0,1,,,,,,,,0,,,72,67
64140,note_on,0,0,1,,,,,,,,0,,,75,67
64140,note_on,0,0,1,,,,,,,,0,,,67,67
64140,note_on,0,0,1,,,,,,,,0,,,84,0
64140,note_on,0,0,1,,,,,,,,0,,,79,67
64140,note_on,60,0,1,,,,,,,,0,,,79,0
64140,note_on,60,0,2,,,,,,,,1,,,48,0
64140,note_on,0,0,2,,,,,,,,1,,,55,70
64140,note_on,0,0,1,,,,,,,,0,,,75,0
64170,note_on,30,0,2,,,,,,,,1,,,55,0
64170,note_on,0,0,2,,,,,,,,1,,,53,71
64200,note_on,60,0,1,,,,,,,,0,,,72,0
64200,note_on,0,0,1,,,,,,,,0,,,67,0
64200,note_on,0,0,1,,,,,,,,0,,,79,0
64200,note_on,0,0,1,,,,,,,,0,,,67,67
64200,note_on,0,0,1,,,,,,,,0,,,75,67
64200,note_on,0,0,1,,,,,,,,0,,,79,67
64200,note_on,0,0,1,,,,,,,,0,,,72,67
64200,note_on,0,0,1,,,,,,,,0,,,75,0
64200,note_on,30,0,2,,,,,,,,1,,,53,0
64200,note_on,0,0,2,,,,,,,,1,,,51,71
64230,note_on,30,0,2,,,,,,,,1,,,51,0
64230,note_on,0,0,2,,,,,,,,1,,,50,71
64260,note_on,0,0,1,,,,,,,,0,,,75,0
64260,note_on,0,0,1,,,,,,,,0,,,67,0
64260,note_on,0,0,1,,,,,,,,0,,,79,0
64260,note_on,0,0,1,,,,,,,,0,,,75,67
64260,note_on,60,0,1,,,,,,,,0,,,72,0
64260,note_on,0,0,1,,,,,,,,0,,,79,67
64260,note_on,0,0,1,,,,,,,,0,,,67,67
64260,note_on,0,0,2,,,,,,,,1,,,48,71
64260,note_on,30,0,2,,,,,,,,1,,,50,0
64260,note_on,0,0,1,,,,,,,,0,,,72,67
64320,note_on,60,0,1,,,,,,,,0,,,79,0
64320,note_on,0,0,1,,,,,,,,0,,,67,0
64320,note_on,0,0,1,,,,,,,,0,,,72,0
64320,note_on,0,0,1,,,,,,,,0,,,75,0
64320,note_on,0,0,1,,,,,,,,0,,,67,67
64320,note_on,0,0,1,,,,,,,,0,,,72,67
64320,note_on,0,0,1,,,,,,,,0,,,75,67
64320,note_on,0,0,1,,,,,,,,0,,,79,67
64380,note_on,60,0,1,,,,,,,,0,,,79,0
64380,note_on,0,0,1,,,,,,,,0,,,67,0
64380,note_on,0,0,1,,,,,,,,0,,,67,67
64380,note_on,0,0,1,,,,,,,,0,,,75,0
64380,note_on,0,0,1,,,,,,,,0,,,72,67
64380,note_on,0,0,1,,,,,,,,0,,,79,67
64380,note_on,120,0,2,,,,,,,,1,,,48,0
64380,note_on,0,0,1,,,,,,,,0,,,72,0
64380,note_on,0,0,1,,,,,,,,0,,,75,67
64440,note_on,60,0,1,,,,,,,,0,,,79,0
64440,note_on,0,0,1,,,,,,,,0,,,67,0
64440,note_on,0,0,1,,,,,,,,0,,,72,0
64440,note_on,0,0,1,,,,,,,,0,,,75,0
64440,note_on,0,0,1,,,,,,,,0,,,80,67
64440,note_on,0,0,1,,,,,,,,0,,,75,67
64440,note_on,0,0,1,,,,,,,,0,,,72,67
64440,note_on,0,0,1,,,,,,,,0,,,84,67
64440,note_on,60,0,2,,,,,,,,1,,,44,72
64500,note_on,0,0,1,,,,,,,,0,,,80,67
64500,note_on,60,0,1,,,,,,,,0,,,84,0
64500,note_on,0,0,1,,,,,,,,0,,,72,0
64500,note_on,0,0,1,,,,,,,,0,,,80,0
64500,note_on,0,0,1,,,,,,,,0,,,75,0
64500,note_on,0,0,1,,,,,,,,0,,,75,67
64500,note_on,60,0,2,,,,,,,,1,,,44,0
64500,note_on,0,0,2,,,,,,,,1,,,48,72
64500,note_on,0,0,1,,,,,,,,0,,,84,67
64500,note_on,0,0,1,,,,,,,,0,,,72,67
64530,note_on,30,0,2,,,,,,,,1,,,48,0
64530,note_on,0,0,2,,,,,,,,1,,,46,72
64560,note_on,0,0,1,,,,,,,,0,,,84,67
64560,note_on,0,0,1,,,,,,,,0,,,72,67
64560,note_on,0,0,1,,,,,,,,0,,,80,67
64560,note_on,0,0,1,,,,,,,,0,,,72,0
64560,note_on,0,0,1,,,,,,,,0,,,75,0
64560,note_on,0,0,1,,,,,,,,0,,,80,0
64560,note_on,60,0,1,,,,,,,,0,,,84,0
64560,note_on,0,0,2,,,,,,,,1,,,44,72
64560,note_on,30,0,2,,,,,,,,1,,,46,0
64560,note_on,0,0,1,,,,,,,,0,,,75,67
64590,note_on,0,0,2,,,,,,,,1,,,43,72
64590,note_on,30,0,2,,,,,,,,1,,,44,0
64620,note_on,0,0,1,,,,,,,,0,,,72,0
64620,note_on,0,0,1,,,,,,,,0,,,84,67
64620,note_on,0,0,1,,,,,,,,0,,,72,67
64620,note_on,0,0,1,,,,,,,,0,,,80,0
64620,note_on,0,0,1,,,,,,,,0,,,84,0
64620,note_on,0,0,1,,,,,,,,0,,,75,67
64620,note_on,0,0,2,,,,,,,,1,,,42,73
64620,note_on,30,0,2,,,,,,,,1,,,43,0
64620,note_on,60,0,1,,,,,,,,0,,,75,0
64620,note_on,0,0,1,,,,,,,,0,,,81,67
64680,note_on,0,0,1,,,,,,,,0,,,75,0
64680,note_on,0,0,1,,,,,,,,0,,,72,0
64680,note_on,0,0,1,,,,,,,,0,,,81,67
64680,note_on,0,0,1,,,,,,,,0,,,84,67
64680,note_on,0,0,1,,,,,,,,0,,,75,67
64680,note_on,60,0,1,,,,,,,,0,,,84,0
64680,note_on,0,0,1,,,,,,,,0,,,72,67
64680,note_on,0,0,1,,,,,,,,0,,,81,0
64740,note_on,0,0,1,,,,,,,,0,,,84,0
64740,note_on,0,0,1,,,,,,,,0,,,75,0
64740,note_on,0,0,1,,,,,,,,0,,,81,67
64740,note_on,0,0,1,,,,,,,,0,,,84,67
64740,note_on,120,0,2,,,,,,,,1,,,42,0
64740,note_on,60,0,1,,,,,,,,0,,,72,0
64740,note_on,0,0,1,,,,,,,,0,,,72,67
64740,note_on,0,0,1,,,,,,,,0,,,81,0
64740,note_on,0,0,1,,,,,,,,0,,,75,67
64800,note_on,0,0,1,,,,,,,,0,,,81,0
64800,note_on,0,0,1,,,,,,,,0,,,84,0
64800,note_on,60,0,2,,,,,,,,1,,,43,73
64800,note_on,0,0,1,,,,,,,,0,,,72,0
64800,note_on,0,0,1,,,,,,,,0,,,74,67
64800,note_on,0,0,1,,,,,,,,0,,,83,67
64800,note_on,0,0,1,,,,,,,,0,,,79,67
64800,note_on,60,0,1,,,,,,,,0,,,75,0
64830,note_on,0,0,2,,,,,,,,1,,,47,74
64830,note_on,30,0,2,,,,,,,,1,,,43,0
64860,note_on,0,0,1,,,,,,,,0,,,79,67
64860,note_on,60,0,1,,,,,,,,0,,,79,0
64860,note_on,0,0,1,,,,,,,,0,,,83,0
64860,note_on,0,0,1,,,,,,,,0,,,74,0
64860,note_on,0,0,1,,,,,,,,0,,,74,67
64860,note_on,0,0,1,,,,,,,,0,,,83,67
64860,note_on,30,0,2,,,,,,,,1,,,47,0
64860,note_on,0,0,2,,,,,,,,1,,,48,74
64890,note_on,30,0,2,,,,,,,,1,,,48,0
64890,note_on,0,0,2,,,,,,,,1,,,50,74
64920,note_on,60,0,1,,,,,,,,0,,,83,0
64920,note_on,0,0,1,,,,,,,,0,,,74,67
64920,note_on,0,0,1,,,,,,,,0,,,79,67
64920,note_on,0,0,1,,,,,,,,0,,,83,67
64920,note_on,0,0,1,,,,,,,,0,,,74,0
64920,note_on,0,0,1,,,,,,,,0,,,79,0
64920,note_on,30,0,2,,,,,,,,1,,,50,0
64920,note_on,0,0,2,,,,,,,,1,,,52,74
64950,note_on,0,0,2,,,,,,,,1,,,54,74
64950,note_on,30,0,2,,,,,,,,1,,,52,0
64980,note_on,0,0,2,,,,,,,,1,,,55,74
64980,note_on,60,0,1,,,,,,,,0,,,83,0
64980,note_on,0,0,1,,,,,,,,0,,,79,0
64980,note_on,0,0,1,,,,,,,,0,,,74,0
64980,note_on,0,0,1,,,,,,,,0,,,79,67
64980,note_on,30,0,2,,,,,,,,1,,,54,0
65010,note_on,30,0,1,,,,,,,,0,,,79,0
65010,note_on,0,0,1,,,,,,,,0,,,78,67
65040,note_on,30,0,1,,,,,,,,0,,,78,0
65040,note_on,0,0,1,,,,,,,,0,,,79,67
65070,note_on,0,0,1,,,,,,,,0,,,74,67
65070,note_on,30,0,1,,,,,,,,0,,,79,0
65100,note_on,0,0,1,,,,,,,,0,,,71,67
65100,note_on,30,0,1,,,,,,,,0,,,74,0
65100,note_on,120,0,2,,,,,,,,1,,,55,0
65130,note_on,30,0,1,,,,,,,,0,,,71,0
65130,note_on,0,0,1,,,,,,,,0,,,67,67
65160,note_on,0,0,1,,,,,,,,0,,,79,67
65160,note_on,60,0,2,,,,,,,,1,,,55,75
65160,note_on,30,0,1,,,,,,,,0,,,67,0
65160,note_on,0,0,1,,,,,,,,0,,,75,67
65160,note_on,0,0,1,,,,,,,,0,,,84,67
65190,note_on,0,0,2,,,,,,,,1,,,59,75
65190,note_on,30,0,2,,,,,,,,1,,,55,0
65220,note_on,60,0,1,,,,,,,,0,,,84,0
65220,note_on,0,0,1,,,,,,,,0,,,75,0
65220,note_on,0,0,1,,,,,,,,0,,,75,67
65220,note_on,0,0,1,,,,,,,,0,,,79,67
65220,note_on,0,0,1,,,,,,,,0,,,84,67
65220,note_on,0,0,2,,,,,,,,1,,,60,75
65220,note_on,30,0,2,,,,,,,,1,,,59,0
65220,note_on,0,0,1,,,,,,,,0,,,79,0
65250,note_on,0,0,2,,,,,,,,1,,,62,75
65250,note_on,30,0,2,,,,,,,,1,,,60,0
65280,note_on,0,0,1,,,,,,,,0,,,79,0
65280,note_on,0,0,1,,,,,,,,0,,,75,0
65280,note_on,0,0,1,,,,,,,,0,,,75,67
65280,note_on,0,0,1,,,,,,,,0,,,79,67
65280,note_on,60,0,1,,,,,,,,0,,,84,0
65280,note_on,0,0,1,,,,,,,,0,,,84,67
65280,note_on,30,0,2,,,,,,,,1,,,62,0
65280,note_on,0,0,2,,,,,,,,1,,,63,75
65310,note_on,30,0,2,,,,,,,,1,,,63,0
65310,note_on,0,0,2,,,,,,,,1,,,66,75
65340,note_on,0,0,1,,,,,,,,0,,,79,67
65340,note_on,0,0,1,,,,,,,,0,,,75,0
65340,note_on,0,0,1,,,,,,,,0,,,79,0
65340,note_on,60,0,1,,,,,,,,0,,,84,0
65340,note_on,0,0,2,,,,,,,,1,,,67,75
65340,note_on,30,0,2,,,,,,,,1,,,66,0
65370,note_on,0,0,1,,,,,,,,0,,,78,67
65370,note_on,30,0,1,,,,,,,,0,,,79,0
65400,note_on,30,0,1,,,,,,,,0,,,78,0
65400,note_on,0,0,1,,,,,,,,0,,,79,67
65430,note_on,30,0,1,,,,,,,,0,,,79,0
65430,note_on,0,0,1,,,,,,,,0,,,75,67
65460,note_on,30,0,1,,,,,,,,0,,,75,0
65460,note_on,0,0,1,,,,,,,,0,,,72,67
65460,note_on,120,0,2,,,,,,,,1,,,67,0
65490,note_on,30,0,1,,,,,,,,0,,,72,0
65490,note_on,0,0,1,,,,,,,,0,,,67,67
65520,note_on,60,0,2,,,,,,,,1,,,43,75
65520,note_on,30,0,1,,,,,,,,0,,,67,0
65520,note_on,0,0,1,,,,,,,,0,,,71,67
65520,note_on,0,0,1,,,,,,,,0,,,74,67
65520,note_on,0,0,1,,,,,,,,0,,,79,67
65550,note_on,0,0,2,,,,,,,,1,,,47,75
65550,note_on,30,0,2,,,,,,,,1,,,43,0
65580,note_on,0,0,1,,,,,,,,0,,,71,67
65580,note_on,0,0,1,,,,,,,,0,,,79,67
65580,note_on,0,0,1,,,,,,,,0,,,74,67
65580,note_on,0,0,1,,,,,,,,0,,,71,0
65580,note_on,0,0,1,,,,,,,,0,,,74,0
65580,note_on,60,0,1,,,,,,,,0,,,79,0
65580,note_on,0,0,2,,,,,,,,1,,,48,75
65580,note_on,30,0,2,,,,,,,,1,,,47,0
65610,note_on,0,0,2,,,,,,,,1,,,50,75
65610,note_on,30,0,2,,,,,,,,1,,,48,0
65640,note_on,0,0,1,,,,,,,,0,,,71,66
65640,note_on,0,0,2,,,,,,,,1,,,52,75
65640,note_on,30,0,2,,,,,,,,1,,,50,0
65640,note_on,0,0,1,,,,,,,,0,,,74,66
65640,note_on,60,0,1,,,,,,,,0,,,71,0
65640,note_on,0,0,1,,,,,,,,0,,,79,0
65640,note_on,0,0,1,,,,,,,,0,,,74,0
65640,note_on,0,0,1,,,,,,,,0,,,79,66
65670,note_on,30,0,2,,,,,,,,1,,,52,0
65670,note_on,0,0,2,,,,,,,,1,,,54,75
65700,note_on,0,0,1,,,,,,,,0,,,79,66
65700,note_on,0,0,1,,,,,,,,0,,,74,0
65700,note_on,0,0,1,,,,,,,,0,,,79,0
65700,note_on,60,0,1,,,,,,,,0,,,71,0
65700,note_on,30,0,2,,,,,,,,1,,,54,0
65700,note_on,0,0,2,,,,,,,,1,,,55,75
65730,note_on,0,0,1,,,,,,,,0,,,78,66
65730,note_on,30,0,1,,,,,,,,0,,,79,0
65760,note_on,30,0,1,,,,,,,,0,,,78,0
65760,note_on,0,0,1,,,,,,,,0,,,79,66
65790,note_on,30,0,1,,,,,,,,0,,,79,0
65790,note_on,0,0,1,,,,,,,,0,,,74,66
65820,note_on,0,0,1,,,,,,,,0,,,71,66
65820,note_on,120,0,2,,,,,,,,1,,,55,0
65820,note_on,30,0,1,,,,,,,,0,,,74,0
65850,note_on,30,0,1,,,,,,,,0,,,71,0
65850,note_on,0,0,1,,,,,,,,0,,,67,66
65880,note_on,30,0,1,,,,,,,,0,,,67,0
65880,note_on,60,0,2,,,,,,,,1,,,55,75
65880,note_on,0,0,1,,,,,,,,0,,,79,66
65880,note_on,0,0,1,,,,,,,,0,,,75,66
65880,note_on,0,0,1,,,,,,,,0,,,84,66
65910,note_on,0,0,2,,,,,,,,1,,,59,75
65910,note_on,30,0,2,,,,,,,,1,,,55,0
65940,note_on,0,0,2,,,,,,,,1,,,60,75
65940,note_on,30,0,2,,,,,,,,1,,,59,0
65940,note_on,0,0,1,,,,,,,,0,,,79,0
65940,note_on,0,0,1,,,,,,,,0,,,79,66
65940,note_on,0,0,1,,,,,,,,0,,,84,66
65940,note_on,0,0,1,,,,,,,,0,,,84,0
65940,note_on,60,0,1,,,,,,,,0,,,75,0
65940,note_on,0,0,1,,,,,,,,0,,,75,66
65970,note_on,30,0,2,,,,,,,,1,,,60,0
65970,note_on,0,0,2,,,,,,,,1,,,62,75
66000,note_on,60,0,1,,,,,,,,0,,,75,0
66000,note_on,0,0,2,,,,,,,,1,,,63,75
66000,note_on,0,0,1,,,,,,,,0,,,84,66
66000,note_on,0,0,1,,,,,,,,0,,,75,66
66000,note_on,0,0,1,,,,,,,,0,,,79,66
66000,note_on,0,0,1,,,,,,,,0,,,84,0
66000,note_on,0,0,1,,,,,,,,0,,,79,0
66000,note_on,30,0,2,,,,,,,,1,,,62,0
66030,note_on,0,0,2,,,,,,,,1,,,66,75
66030,note_on,30,0,2,,,,,,,,1,,,63,0
66060,note_on,0,0,1,,,,,,,,0,,,75,0
66060,note_on,0,0,1,,,,,,,,0,,,79,0
66060,note_on,60,0,1,,,,,,,,0,,,84,0
66060,note_on,0,0,2,,,,,,,,1,,,67,75
66060,note_on,30,0,2,,,,,,,,1,,,66,0
66060,note_on,0,0,1,,,,,,,,0,,,79,66
66090,note_on,30,0,1,,,,,,,,0,,,79,0
66090,note_on,0,0,1,,,,,,,,0,,,78,66
66120,note_on,30,0,1,,,,,,,,0,,,78,0
66120,note_on,0,0,1,,,,,,,,0,,,79,66
66150,note_on,30,0,1,,,,,,,,0,,,79,0
66150,note_on,0,0,1,,,,,,,,0,,,74,66
66180,note_on,30,0,1,,,,,,,,0,,,74,0
66180,note_on,0,0,1,,,,,,,,0,,,71,66
66180,note_on,120,0,2,,,,,,,,1,,,67,0
66210,note_on,30,0,1,,,,,,,,0,,,71,0
66210,note_on,0,0,1,,,,,,,,0,,,67,66
66240,note_on,60,0,2,,,,,,,,1,,,43,75
66240,note_on,0,0,1,,,,,,,,0,,,67,66
66240,note_on,30,0,1,,,,,,,,0,,,67,0
66270,note_on,0,0,2,,,,,,,,1,,,55,75
66270,note_on,30,0,2,,,,,,,,1,,,43,0
66270,note_on,30,0,1,,,,,,,,0,,,67,0
66270,note_on,0,0,1,,,,,,,,0,,,79,66
66300,note_on,30,0,1,,,,,,,,0,,,79,0
66300,note_on,0,0,2,,,,,,,,1,,,43,75
66300,note_on,30,0,2,,,,,,,,1,,,55,0
66300,note_on,0,0,1,,,,,,,,0,,,67,66
66330,note_on,30,0,2,,,,,,,,1,,,43,0
66330,note_on,0,0,2,,,,,,,,1,,,55,75
66330,note_on,30,0,1,,,,,,,,0,,,67,0
66330,note_on,0,0,1,,,,,,,,0,,,79,66
66360,note_on,0,0,1,,,,,,,,0,,,66,66
66360,note_on,30,0,1,,,,,,,,0,,,79,0
66360,note_on,0,0,2,,,,,,,,1,,,44,75
66360,note_on,30,0,2,,,,,,,,1,,,55,0
66390,note_on,30,0,2,,,,,,,,1,,,44,0
66390,note_on,0,0,1,,,,,,,,0,,,78,66
66390,note_on,30,0,1,,,,,,,,0,,,66,0
66390,note_on,0,0,2,,,,,,,,1,,,56,75
66420,note_on,0,0,1,,,,,,,,0,,,67,66
66420,note_on,30,0,1,,,,,,,,0,,,78,0
66420,note_on,0,0,2,,,,,,,,1,,,43,75
66420,note_on,30,0,2,,,,,,,,1,,,56,0
66450,note_on,0,0,1,,,,,,,,0,,,79,66
66450,note_on,30,0,2,,,,,,,,1,,,43,0
66450,note_on,0,0,2,,,,,,,,1,,,55,75
66450,note_on,30,0,1,,,,,,,,0,,,67,0
66480,note_on,30,0,2,,,,,,,,1,,,55,0
66480,note_on,0,0,2,,,,,,,,1,,,43,75
66480,note_on,30,0,1,,,,,,,,0,,,79,0
66480,note_on,0,0,1,,,,,,,,0,,,67,66
66510,note_on,30,0,2,,,,,,,,1,,,43,0
66510,note_on,0,0,2,,,,,,,,1,,,55,75
66510,note_on,0,0,1,,,,,,,,0,,,79,66
66510,note_on,30,0,1,,,,,,,,0,,,67,0
66540,note_on,0,0,1,,,,,,,,0,,,66,66
66540,note_on,30,0,1,,,,,,,,0,,,79,0
66540,note_on,30,0,2,,,,,,,,1,,,55,0
66540,note_on,0,0,2,,,,,,,,1,,,44,75
66570,note_on,0,0,2,,,,,,,,1,,,56,75
66570,note_on,30,0,2,,,,,,,,1,,,44,0
66570,note_on,0,0,1,,,,,,,,0,,,78,66
66570,note_on,30,0,1,,,,,,,,0,,,66,0
66600,note_on,30,0,1,,,,,,,,0,,,78,0
66600,note_on,0,0,1,,,,,,,,0,,,67,66
66600,note_on,0,0,2,,,,,,,,1,,,43,75
66600,note_on,30,0,2,,,,,,,,1,,,56,0
66630,note_on,0,0,2,,,,,,,,1,,,55,75
66630,note_on,30,0,2,,,,,,,,1,,,43,0
66630,note_on,30,0,1,,,,,,,,0,,,67,0
66630,note_on,0,0,1,,,,,,,,0,,,79,66
66660,note_on,0,0,2,,,,,,,,1,,,43,74
66660,note_on,30,0,1,,,,,,,,0,,,79,0
66660,note_on,0,0,1,,,,,,,,0,,,67,66
66660,note_on,30,0,2,,,,,,,,1,,,55,0
66690,note_on,30,0,1,,,,,,,,0,,,67,0
66690,note_on,0,0,1,,,,,,,,0,,,79,66
66690,note_on,30,0,2,,,,,,,,1,,,43,0
66690,note_on,0,0,2,,,,,,,,1,,,55,74
66720,note_on,30,0,2,,,,,,,,1,,,55,0
66720,note_on,0,0,2,,,,,,,,1,,,44,74
66720,note_on,30,0,1,,,,,,,,0,,,79,0
66720,note_on,0,0,1,,,,,,,,0,,,66,66
66750,note_on,0,0,1,,,,,,,,0,,,78,66
66750,note_on,30,0,1,,,,,,,,0,,,66,0
66750,note_on,30,0,2,,,,,,,,1,,,44,0
66750,note_on,0,0,2,,,,,,,,1,,,56,74
66780,note_on,0,0,1,,,,,,,,0,,,67,66
66780,note_on,30,0,2,,,,,,,,1,,,56,0
66780,note_on,0,0,2,,,,,,,,1,,,43,74
66780,note_on,30,0,1,,,,,,,,0,,,78,0
66810,note_on,30,0,1,,,,,,,,0,,,67,0
66810,note_on,0,0,1,,,,,,,,0,,,79,66
66810,note_on,0,0,2,,,,,,,,1,,,55,74
66810,note_on,30,0,2,,,,,,,,1,,,43,0
66840,note_on,30,0,1,,,,,,,,0,,,79,0
66840,note_on,0,0,2,,,,,,,,1,,,43,74
66840,note_on,30,0,2,,,,,,,,1,,,55,0
66840,note_on,0,0,1,,,,,,,,0,,,67,66
66870,note_on,0,0,1,,,,,,,,0,,,79,66
66870,note_on,30,0,2,,,,,,,,1,,,43,0
66870,note_on,0,0,2,,,,,,,,1,,,55,74
66870,note_on,30,0,1,,,,,,,,0,,,67,0
66900,note_on,0,0,1,,,,,,,,0,,,66,66
66900,note_on,30,0,1,,,,,,,,0,,,79,0
66900,note_on,30,0,2,,,,,,,,1,,,55,0
66900,note_on,0,0,2,,,,,,,,1,,,44,74
66930,note_on,0,0,2,,,,,,,,1,,,56,74
66930,note_on,30,0,1,,,,,,,,0,,,66,0
66930,note_on,30,0,2,,,,,,,,1,,,44,0
66930,note_on,0,0,1,,,,,,,,0,,,78,66
66960,note_on,0,0,1,,,,,,,,0,,,67,66
66960,note_on,30,0,2,,,,,,,,1,,,56,0
66960,note_on,0,0,2,,,,,,,,1,,,55,74
66960,note_on,0,0,2,,,,,,,,1,,,43,74
66960,note_on,30,0,1,,,,,,,,0,,,78,0
66990,note_on,30,0,1,,,,,,,,0,,,67,0
66990,note_on,0,0,1,,,,,,,,0,,,79,66
67020,note_on,30,0,1,,,,,,,,0,,,79,0
67020,note_on,0,0,1,,,,,,,,0,,,67,66
67050,note_on,30,0,1,,,,,,,,0,,,67,0
67050,note_on,0,0,1,,,,,,,,0,,,79,66
67080,note_on,0,0,1,,,,,,,,0,,,67,66
67080,note_on,0,0,2,,,,,,,,1,,,43,0
67080,note_on,120,0,2,,,,,,,,1,,,55,0
67080,note_on,30,0,1,,,,,,,,0,,,79,0
67110,note_on,30,0,1,,,,,,,,0,,,67,0
67110,note_on,0,0,1,,,,,,,,0,,,79,66
67140,note_on,0,0,1,,,,,,,,0,,,67,66
67140,note_on,30,0,1,,,,,,,,0,,,79,0
67170,note_on,0,0,1,,,,,,,,0,,,79,66
67170,note_on,30,0,1,,,,,,,,0,,,67,0
67200,note_on,30,0,1,,,,,,,,0,,,79,0
67200,note_on,0,0,1,,,,,,,,0,,,67,66
67230,note_on,0,0,1,,,,,,,,0,,,79,66
67230,note_on,30,0,1,,,,,,,,0,,,67,0
67260,note_on,0,0,1,,,,,,,,0,,,67,66
67260,note_on,30,0,1,,,,,,,,0,,,79,0
67290,note_on,30,0,1,,,,,,,,0,,,67,0
67290,note_on,0,0,1,,,,,,,,0,,,79,66
67320,note_on,0,0,2,,,,,,,,1,,,48,74
67320,note_on,0,0,1,,,,,,,,0,,,67,66
67320,note_on,0,0,2,,,,,,,,1,,,52,74
67320,note_on,30,0,1,,,,,,,,0,,,79,0
67320,note_on,240,0,2,,,,,,,,1,,,58,74
67320,note_on,0,0,2,,,,,,,,1,,,55,74
67380,note_on,0,0,1,,,,,,,,0,,,82,66
67380,note_on,60,0,1,,,,,,,,0,,,67,0
67440,note_on,0,0,1,,,,,,,,0,,,79,66
67440,note_on,60,0,1,,,,,,,,0,,,82,0
67500,note_on,0,0,1,,,,,,,,0,,,76,66
67500,note_on,60,0,1,,,,,,,,0,,,79,0
67560,note_on,60,0,1,,,,,,,,0,,,76,0
67560,note_on,0,0,1,,,,,,,,0,,,72,66
67620,note_on,0,0,1,,,,,,,,0,,,70,66
67620,note_on,60,0,1,,,,,,,,0,,,72,0
67680,note_on,0,0,1,,,,,,,,0,,,67,66
67680,note_on,60,0,1,,,,,,,,0,,,70,0
67740,note_on,60,0,1,,,,,,,,0,,,67,0
67740,note_on,0,0,1,,,,,,,,0,,,82,66
67800,note_on,60,0,1,,,,,,,,0,,,82,0
67800,note_on,0,0,1,,,,,,,,0,,,79,66
67860,note_on,60,0,1,,,,,,,,0,,,79,0
67860,note_on,0,0,1,,,,,,,,0,,,76,66
67920,note_on,60,0,1,,,,,,,,0,,,76,0
67920,note_on,0,0,1,,,,,,,,0,,,72,66
67980,note_on,0,0,1,,,,,,,,0,,,70,66
67980,note_on,60,0,1,,,,,,,,0,,,72,0
68040,note_on,0,0,1,,,,,,,,0,,,64,66
68040,note_on,0,0,2,,,,,,,,1,,,40,74
68040,note_on,0,0,2,,,,,,,,1,,,43,74
68040,note_on,0,0,2,,,,,,,,1,,,46,74
68040,note_on,60,0,1,,,,,,,,0,,,70,0
68040,note_on,720,0,2,,,,,,,,1,,,48,0
68040,note_on,0,0,2,,,,,,,,1,,,58,0
68040,note_on,0,0,2,,,,,,,,1,,,55,0
68040,note_on,0,0,2,,,,,,,,1,,,52,0
68040,note_on,0,0,2,,,,,,,,1,,,48,74
68040,note_on,0,0,2,,,,,,,,1,,,36,74
68100,note_on,60,0,1,,,,,,,,0,,,64,0
68100,note_on,0,0,1,,,,,,,,0,,,76,66
68160,note_on,0,0,1,,,,,,,,0,,,72,66
68160,note_on,60,0,1,,,,,,,,0,,,76,0
68220,note_on,0,0,1,,,,,,,,0,,,70,66
68220,note_on,60,0,1,,,,,,,,0,,,72,0
68280,note_on,0,0,1,,,,,,,,0,,,67,66
68280,note_on,60,0,1,,,,,,,,0,,,70,0
68340,note_on,0,0,1,,,,,,,,0,,,64,66
68340,note_on,60,0,1,,,,,,,,0,,,67,0
68400,note_on,0,0,1,,,,,,,,0,,,60,66
68400,note_on,60,0,1,,,,,,,,0,,,64,0
68460,note_on,0,0,1,,,,,,,,0,,,70,66
68460,note_on,60,0,1,,,,,,,,0,,,60,0
68520,note_on,60,0,1,,,,,,,,0,,,70,0
68520,note_on,0,0,1,,,,,,,,0,,,67,66
68580,note_on,60,0,1,,,,,,,,0,,,67,0
68580,note_on,0,0,1,,,,,,,,0,,,64,66
68640,note_on,60,0,1,,,,,,,,0,,,64,0
68640,note_on,0,0,1,,,,,,,,0,,,60,66
68700,note_on,0,0,1,,,,,,,,0,,,58,66
68700,note_on,60,0,1,,,,,,,,0,,,60,0
68760,note_on,0,0,2,,,,,,,,1,,,46,0
68760,note_on,0,0,2,,,,,,,,1,,,36,0
68760,note_on,0,0,2,,,,,,,,1,,,40,0
68760,note_on,0,0,2,,,,,,,,1,,,36,73
68760,note_on,0,0,2,,,,,,,,1,,,40,73
68760,note_on,0,0,2,,,,,,,,1,,,43,73
68760,note_on,0,0,2,,,,,,,,1,,,48,73
68760,note_on,0,0,2,,,,,,,,1,,,46,73
68760,note_on,0,0,2,,,,,,,,1,,,43,0
68760,note_on,720,0,2,,,,,,,,1,,,48,0
68760,note_on,60,0,1,,,,,,,,0,,,58,0
68760,note_on,0,0,1,,,,,,,,0,,,55,66
68820,note_on,60,0,1,,,,,,,,0,,,55,0
68820,note_on,0,0,1,,,,,,,,0,,,67,66
68880,note_on,60,0,1,,,,,,,,0,,,67,0
68880,note_on,0,0,1,,,,,,,,0,,,64,66
68940,note_on,60,0,1,,,,,,,,0,,,64,0
68940,note_on,0,0,1,,,,,,,,0,,,60,66
69000,note_on,0,0,2,,,,,,,,1,,,40,0
69000,note_on,60,0,1,,,,,,,,0,,,60,0
69000,note_on,0,0,1,,,,,,,,0,,,58,66
69000,note_on,0,0,2,,,,,,,,1,,,48,0
69000,note_on,240,0,2,,,,,,,,1,,,46,0
69000,note_on,0,0,2,,,,,,,,1,,,43,0
69000,note_on,0,0,2,,,,,,,,1,,,36,0
69060,note_on,0,0,1,,,,,,,,0,,,55,66
69060,note_on,60,0,1,,,,,,,,0,,,58,0
69120,note_on,120,0,2,,,,,,,,1,,,36,73
69120,note_on,0,0,2,,,,,,,,1,,,48,73
69120,note_on,0,0,2,,,,,,,,1,,,52,73
69120,note_on,60,0,1,,,,,,,,0,,,55,0
69180,note_on,60,0,2,,,,,,,,1,,,52,0
69180,note_on,0,0,2,,,,,,,,1,,,58,73
69240,note_on,0,0,2,,,,,,,,1,,,36,0
69240,note_on,0,0,2,,,,,,,,1,,,55,73
69240,note_on,0,0,2,,,,,,,,1,,,48,0
69240,note_on,60,0,2,,,,,,,,1,,,58,0
69300,note_on,60,0,2,,,,,,,,1,,,55,0
69300,note_on,0,0,2,,,,,,,,1,,,36,76
69300,note_on,0,0,2,,,,,,,,1,,,48,76
69300,note_on,0,0,2,,,,,,,,1,,,52,76
69360,note_on,60,0,2,,,,,,,,1,,,52,0
69360,note_on,0,0,2,,,,,,,,1,,,58,76
69420,note_on,60,0,2,,,,,,,,1,,,58,0
69420,note_on,0,0,2,,,,,,,,1,,,48,0
69420,note_on,0,0,2,,,,,,,,1,,,36,0
69420,note_on,0,0,2,,,,,,,,1,,,55,76
69480,note_on,0,0,2,,,,,,,,1,,,36,76
69480,note_on,0,0,2,,,,,,,,1,,,52,76
69480,note_on,0,0,2,,,,,,,,1,,,48,76
69480,note_on,60,0,2,,,,,,,,1,,,55,0
69540,note_on,0,0,2,,,,,,,,1,,,58,76
69540,note_on,60,0,2,,,,,,,,1,,,52,0
69600,note_on,60,0,2,,,,,,,,1,,,58,0
69600,note_on,0,0,2,,,,,,,,1,,,48,0
69600,note_on,0,0,2,,,,,,,,1,,,36,0
69600,note_on,0,0,2,,,,,,,,1,,,55,76
69660,note_on,60,0,2,,,,,,,,1,,,55,0
69660,note_on,0,0,2,,,,,,,,1,,,36,75
69660,note_on,0,0,2,,,,,,,,1,,,48,75
69660,note_on,0,0,2,,,,,,,,1,,,52,75
69720,note_on,60,0,2,,,,,,,,1,,,52,0
69720,note_on,0,0,2,,,,,,,,1,,,58,75
69780,note_on,0,0,2,,,,,,,,1,,,48,0
69780,note_on,0,0,2,,,,,,,,1,,,36,0
69780,note_on,0,0,2,,,,,,,,1,,,55,74
69780,note_on,60,0,2,,,,,,,,1,,,58,0
69840,note_on,60,0,2,,,,,,,,1,,,55,0
69840,note_on,0,0,2,,,,,,,,1,,,48,74
69840,note_on,0,0,2,,,,,,,,1,,,36,74
69840,note_on,0,0,2,,,,,,,,1,,,52,74
70020,note_on,180,0,2,,,,,,,,1,,,52,0
70020,note_on,0,0,2,,,,,,,,1,,,48,0
70020,note_on,0,0,2,,,,,,,,1,,,36,0
70140,note_on,120,0,2,,,,,,,,1,,,53,74
70200,note_on,60,0,2,,,,,,,,1,,,53,0
70200,note_on,0,0,2,,,,,,,,1,,,41,74
70200,note_on,0,0,2,,,,,,,,1,,,53,74
70260,note_on,0,0,2,,,,,,,,1,,,48,74
70260,note_on,0,0,2,,,,,,,,1,,,41,0
70260,note_on,0,0,2,,,,,,,,1,,,36,74
70260,note_on,60,0,2,,,,,,,,1,,,53,0
70320,note_on,60,0,2,,,,,,,,1,,,48,0
70320,note_on,0,0,2,,,,,,,,1,,,36,0
70320,note_on,0,0,2,,,,,,,,1,,,45,74
70320,note_on,0,0,2,,,,,,,,1,,,57,74
70380,note_on,0,0,2,,,,,,,,1,,,57,74
70380,note_on,0,0,2,,,,,,,,1,,,45,0
70380,note_on,60,0,2,,,,,,,,1,,,57,0
70380,note_on,0,0,2,,,,,,,,1,,,45,74
70440,note_on,60,0,2,,,,,,,,1,,,57,0
70440,note_on,0,0,2,,,,,,,,1,,,45,0
70440,note_on,0,0,2,,,,,,,,1,,,41,74
70440,note_on,0,0,2,,,,,,,,1,,,53,74
70500,note_on,0,0,2,,,,,,,,1,,,48,74
70500,note_on,0,0,2,,,,,,,,1,,,60,74
70500,note_on,60,0,2,,,,,,,,1,,,53,0
70500,note_on,0,0,2,,,,,,,,1,,,41,0
70560,note_on,0,0,2,,,,,,,,1,,,48,0
70560,note_on,0,0,2,,,,,,,,1,,,48,74
70560,note_on,0,0,2,,,,,,,,1,,,60,74
70560,note_on,60,0,2,,,,,,,,1,,,60,0
70620,note_on,60,0,2,,,,,,,,1,,,60,0
70620,note_on,0,0,2,,,,,,,,1,,,48,0
70620,note_on,0,0,2,,,,,,,,1,,,45,74
70620,note_on,0,0,2,,,,,,,,1,,,57,74
70680,note_on,0,0,2,,,,,,,,1,,,45,0
70680,note_on,0,0,2,,,,,,,,1,,,53,74
70680,note_on,60,0,2,,,,,,,,1,,,57,0
70680,note_on,1560,0,1,,,,,,,,0,,,65,68
70740,note_on,60,0,1,,,,,,,,0,,,65,0
70740,note_on,60,0,2,,,,,,,,1,,,53,0
70740,note_on,0,0,2,,,,,,,,1,,,53,74
70740,note_on,0,0,1,,,,,,,,0,,,65,68
70800,note_on,60,0,1,,,,,,,,0,,,65,0
70800,note_on,0,0,2,,,,,,,,1,,,48,74
70800,note_on,0,0,1,,,,,,,,0,,,60,68
70800,note_on,60,0,2,,,,,,,,1,,,53,0
70860,note_on,60,0,2,,,,,,,,1,,,48,0
70860,note_on,0,0,1,,,,,,,,0,,,69,68
70860,note_on,60,0,1,,,,,,,,0,,,60,0
70860,note_on,0,0,2,,,,,,,,1,,,57,74
70920,note_on,60,0,2,,,,,,,,1,,,57,0
70920,note_on,0,0,2,,,,,,,,1,,,57,74
70920,note_on,0,0,1,,,,,,,,0,,,69,68
70920,note_on,60,0,1,,,,,,,,0,,,69,0
70980,note_on,60,0,2,,,,,,,,1,,,57,0
70980,note_on,0,0,2,,,,,,,,1,,,53,74
70980,note_on,0,0,1,,,,,,,,0,,,65,68
70980,note_on,60,0,1,,,,,,,,0,,,69,0
71040,note_on,60,0,1,,,,,,,,0,,,65,0
71040,note_on,0,0,2,,,,,,,,1,,,60,74
71040,note_on,0,0,1,,,,,,,,0,,,72,68
71040,note_on,60,0,2,,,,,,,,1,,,53,0
71100,note_on,60,0,2,,,,,,,,1,,,60,0
71100,note_on,60,0,1,,,,,,,,0,,,72,0
71100,note_on,0,0,1,,,,,,,,0,,,72,68
71220,note_on,0,0,2,,,,,,,,1,,,60,74
71220,note_on,120,0,1,,,,,,,,0,,,72,0
71220,note_on,0,0,1,,,,,,,,0,,,67,68
71220,note_on,0,0,1,,,,,,,,0,,,70,68
71220,note_on,120,0,2,,,,,,,,1,,,52,74
71280,note_on,60,0,1,,,,,,,,0,,,70,0
71280,note_on,0,0,1,,,,,,,,0,,,67,0
71280,note_on,0,0,1,,,,,,,,0,,,65,68
71280,note_on,0,0,1,,,,,,,,0,,,69,68
71280,note_on,0,0,2,,,,,,,,1,,,60,74
71280,note_on,0,0,2,,,,,,,,1,,,53,74
71280,note_on,0,0,2,,,,,,,,1,,,52,0
71280,note_on,60,0,2,,,,,,,,1,,,60,0
71400,note_on,0,0,1,,,,,,,,0,,,65,0
71400,note_on,0,0,1,,,,,,,,0,,,72,68
71400,note_on,120,0,2,,,,,,,,1,,,60,0
71400,note_on,0,0,2,,,,,,,,1,,,53,0
71400,note_on,120,0,1,,,,,,,,0,,,69,0
71460,note_on,60,0,1,,,,,,,,0,,,72,0
71460,note_on,0,0,1,,,,,,,,0,,,72,68
71580,note_on,180,0,2,,,,,,,,1,,,52,74
71580,note_on,120,0,1,,,,,,,,0,,,72,0
71580,note_on,0,0,1,,,,,,,,0,,,70,68
71580,note_on,0,0,2,,,,,,,,1,,,60,74
71580,note_on,0,0,1,,,,,,,,0,,,67,68
71640,note_on,0,0,1,,,,,,,,0,,,65,68
71640,note_on,0,0,1,,,,,,,,0,,,69,68
71640,note_on,0,0,2,,,,,,,,1,,,53,74
71640,note_on,60,0,1,,,,,,,,0,,,70,0
71640,note_on,0,0,2,,,,,,,,1,,,60,74
71640,note_on,0,0,2,,,,,,,,1,,,52,0
71640,note_on,0,0,1,,,,,,,,0,,,67,0
71640,note_on,60,0,2,,,,,,,,1,,,60,0
71760,note_on,120,0,2,,,,,,,,1,,,53,0
71760,note_on,0,0,2,,,,,,,,1,,,60,0
71760,note_on,120,0,1,,,,,,,,0,,,69,0
71760,note_on,0,0,1,,,,,,,,0,,,65,0
71760,note_on,0,0,1,,,,,,,,0,,,74,68
71820,note_on,0,0,1,,,,,,,,0,,,72,68
71820,note_on,60,0,1,,,,,,,,0,,,74,0
71940,note_on,0,0,2,,,,,,,,1,,,60,73
71940,note_on,0,0,1,,,,,,,,0,,,70,68
71940,note_on,120,0,1,,,,,,,,0,,,72,0
71940,note_on,0,0,1,,,,,,,,0,,,67,68
71940,note_on,180,0,2,,,,,,,,1,,,52,73
72000,note_on,60,0,2,,,,,,,,1,,,60,0
72000,note_on,0,0,2,,,,,,,,1,,,52,0
72000,note_on,0,0,2,,,,,,,,1,,,53,73
72000,note_on,0,0,2,,,,,,,,1,,,60,73
72000,note_on,60,0,1,,,,,,,,0,,,70,0
72000,note_on,0,0,1,,,,,,,,0,,,67,0
72000,note_on,0,0,1,,,,,,,,0,,,65,68
72000,note_on,0,0,1,,,,,,,,0,,,69,68
72120,note_on,120,0,1,,,,,,,,0,,,69,0
72120,note_on,0,0,1,,,,,,,,0,,,75,68
72120,note_on,0,0,1,,,,,,,,0,,,65,0
72120,note_on,120,0,2,,,,,,,,1,,,60,0
72120,note_on,0,0,2,,,,,,,,1,,,53,0
72180,note_on,0,0,1,,,,,,,,0,,,74,68
72180,note_on,60,0,1,,,,,,,,0,,,75,0
72300,note_on,0,0,1,,,,,,,,0,,,69,68
72300,note_on,0,0,1,,,,,,,,0,,,72,68
72300,note_on,120,0,1,,,,,,,,0,,,74,0
72300,note_on,180,0,2,,,,,,,,1,,,54,73
72300,note_on,0,0,2,,,,,,,,1,,,62,73
72360,note_on,0,0,1,,,,,,,,0,,,67,67
72360,note_on,0,0,2,,,,,,,,1,,,62,74
72360,note_on,0,0,2,,,,,,,,1,,,54,0
72360,note_on,0,0,2,,,,,,,,1,,,55,74
72360,note_on,0,0,1,,,,,,,,0,,,70,67
72360,note_on,60,0,1,,,,,,,,0,,,69,0
72360,note_on,0,0,1,,,,,,,,0,,,72,0
72360,note_on,60,0,2,,,,,,,,1,,,62,0
72480,note_on,120,0,2,,,,,,,,1,,,62,0
72480,note_on,0,0,2,,,,,,,,1,,,55,0
72480,note_on,0,0,1,,,,,,,,0,,,75,67
72480,note_on,0,0,1,,,,,,,,0,,,70,0
72480,note_on,120,0,1,,,,,,,,0,,,67,0
72540,note_on,0,0,1,,,,,,,,0,,,74,67
72540,note_on,60,0,1,,,,,,,,0,,,75,0
72660,note_on,0,0,2,,,,,,,,1,,,62,75
72660,note_on,0,0,1,,,,,,,,0,,,72,67
72660,note_on,0,0,1,,,,,,,,0,,,69,67
72660,note_on,120,0,1,,,,,,,,0,,,74,0
72660,note_on,180,0,2,,,,,,,,1,,,54,75
72720,note_on,0,0,2,,,,,,,,1,,,62,75
72720,note_on,0,0,2,,,,,,,,1,,,55,75
72720,note_on,0,0,2,,,,,,,,1,,,54,0
72720,note_on,0,0,1,,,,,,,,0,,,67,67
72720,note_on,60,0,1,,,,,,,,0,,,72,0
72720,note_on,0,0,1,,,,,,,,0,,,69,0
72720,note_on,60,0,2,,,,,,,,1,,,62,0
72720,note_on,0,0,1,,,,,,,,0,,,70,67
72840,note_on,0,0,1,,,,,,,,0,,,79,67
72840,note_on,0,0,1,,,,,,,,0,,,70,0
72840,note_on,120,0,1,,,,,,,,0,,,67,0
72840,note_on,0,0,2,,,,,,,,1,,,62,0
72840,note_on,120,0,2,,,,,,,,1,,,55,0
72900,note_on,60,0,1,,,,,,,,0,,,79,0
72900,note_on,0,0,1,,,,,,,,0,,,77,67
73020,note_on,0,0,1,,,,,,,,0,,,72,67
73020,note_on,180,0,2,,,,,,,,1,,,57,75
73020,note_on,0,0,2,,,,,,,,1,,,65,75
73020,note_on,120,0,1,,,,,,,,0,,,77,0
73020,note_on,0,0,1,,,,,,,,0,,,75,67
73080,note_on,0,0,2,,,,,,,,1,,,65,75
73080,note_on,60,0,1,,,,,,,,0,,,75,0
73080,note_on,0,0,1,,,,,,,,0,,,72,0
73080,note_on,0,0,1,,,,,,,,0,,,74,67
73080,note_on,0,0,2,,,,,,,,1,,,58,75
73080,note_on,60,0,2,,,,,,,,1,,,65,0
73080,note_on,0,0,2,,,,,,,,1,,,57,0
73080,note_on,0,0,1,,,,,,,,0,,,70,67
73200,note_on,0,0,1,,,,,,,,0,,,70,0
73200,note_on,0,0,1,,,,,,,,0,,,79,67
73200,note_on,0,0,2,,,,,,,,1,,,65,0
73200,note_on,120,0,2,,,,,,,,1,,,58,0
73200,note_on,120,0,1,,,,,,,,0,,,74,0
73260,note_on,60,0,1,,,,,,,,0,,,79,0
73260,note_on,0,0,1,,,,,,,,0,,,79,67
73320,note_on,60,0,1,,,,,,,,0,,,79,0
73320,note_on,0,0,1,,,,,,,,0,,,77,67
73380,note_on,0,0,2,,,,,,,,1,,,65,77
73380,note_on,180,0,2,,,,,,,,1,,,57,77
73380,note_on,0,0,1,,,,,,,,0,,,72,67
73380,note_on,0,0,1,,,,,,,,0,,,75,67
73380,note_on,60,0,1,,,,,,,,0,,,77,0
73440,note_on,0,0,2,,,,,,,,1,,,58,77
73440,note_on,0,0,2,,,,,,,,1,,,65,77
73440,note_on,0,0,2,,,,,,,,1,,,57,0
73440,note_on,60,0,2,,,,,,,,1,,,65,0
73440,note_on,0,0,1,,,,,,,,0,,,72,0
73440,note_on,0,0,1,,,,,,,,0,,,70,67
73440,note_on,60,0,1,,,,,,,,0,,,75,0
73440,note_on,0,0,1,,,,,,,,0,,,74,67
73500,note_on,60,0,1,,,,,,,,0,,,74,0
73500,note_on,0,0,1,,,,,,,,0,,,70,0
73500,note_on,0,0,1,,,,,,,,0,,,72,67
73500,note_on,0,0,1,,,,,,,,0,,,75,67
73560,note_on,0,0,1,,,,,,,,0,,,77,67
73560,note_on,60,0,1,,,,,,,,0,,,75,0
73560,note_on,0,0,1,,,,,,,,0,,,72,0
73560,note_on,120,0,2,,,,,,,,1,,,58,0
73560,note_on,0,0,2,,,,,,,,1,,,65,0
73560,note_on,0,0,1,,,,,,,,0,,,74,67
73620,note_on,60,0,2,,,,,,,,1,,,63,78
73620,note_on,0,0,1,,,,,,,,0,,,79,67
73620,note_on,60,0,1,,,,,,,,0,,,77,0
73620,note_on,0,0,1,,,,,,,,0,,,75,67
73620,note_on,0,0,1,,,,,,,,0,,,74,0
73680,note_on,60,0,1,,,,,,,,0,,,79,0
73680,note_on,0,0,1,,,,,,,,0,,,75,0
73680,note_on,0,0,1,,,,,,,,0,,,72,67
73680,note_on,0,0,1,,,,,,,,0,,,75,67
73740,note_on,0,0,2,,,,,,,,1,,,64,78
73740,note_on,0,0,1,,,,,,,,0,,,74,67
73740,note_on,120,0,2,,,,,,,,1,,,63,0
73740,note_on,60,0,1,,,,,,,,0,,,75,0
73740,note_on,0,0,1,,,,,,,,0,,,70,67
73740,note_on,0,0,1,,,,,,,,0,,,72,0
73800,note_on,0,0,1,,,,,,,,0,,,72,67
73800,note_on,0,0,1,,,,,,,,0,,,69,67
73800,note_on,0,0,1,,,,,,,,0,,,70,0
73800,note_on,0,0,2,,,,,,,,1,,,65,78
73800,note_on,60,0,2,,,,,,,,1,,,64,0
73800,note_on,60,0,1,,,,,,,,0,,,74,0
73830,note_on,0,0,1,,,,,,,,0,,,74,67
73830,note_on,0,0,1,,,,,,,,0,,,70,67
73830,note_on,0,0,1,,,,,,,,0,,,69,0
73830,note_on,30,0,1,,,,,,,,0,,,72,0
73830,note_on,30,0,2,,,,,,,,1,,,65,0
73830,note_on,0,0,2,,,,,,,,1,,,64,78
73860,note_on,30,0,2,,,,,,,,1,,,64,0
73860,note_on,0,0,2,,,,,,,,1,,,65,78
73860,note_on,30,0,1,,,,,,,,0,,,74,0
73860,note_on,0,0,1,,,,,,,,0,,,70,0
73860,note_on,0,0,1,,,,,,,,0,,,69,67
73860,note_on,0,0,1,,,,,,,,0,,,72,67
73890,note_on,30,0,1,,,,,,,,0,,,72,0
73890,note_on,0,0,1,,,,,,,,0,,,69,0
73890,note_on,0,0,1,,,,,,,,0,,,70,67
73890,note_on,0,0,1,,,,,,,,0,,,74,67
73890,note_on,30,0,2,,,,,,,,1,,,65,0
73890,note_on,0,0,2,,,,,,,,1,,,64,78
73920,note_on,30,0,2,,,,,,,,1,,,64,0
73920,note_on,0,0,1,,,,,,,,0,,,72,67
73920,note_on,0,0,1,,,,,,,,0,,,69,67
73920,note_on,0,0,1,,,,,,,,0,,,70,0
73920,note_on,30,0,1,,,,,,,,0,,,74,0
73920,note_on,0,0,2,,,,,,,,1,,,65,78
73950,note_on,0,0,1,,,,,,,,0,,,70,67
73950,note_on,0,0,1,,,,,,,,0,,,69,0
73950,note_on,0,0,1,,,,,,,,0,,,74,67
73950,note_on,0,0,2,,,,,,,,1,,,64,78
73950,note_on,30,0,2,,,,,,,,1,,,65,0
73950,note_on,30,0,1,,,,,,,,0,,,72,0
73980,note_on,30,0,1,,,,,,,,0,,,74,0
73980,note_on,0,0,1,,,,,,,,0,,,70,0
73980,note_on,0,0,1,,,,,,,,0,,,69,67
73980,note_on,0,0,1,,,,,,,,0,,,72,67
73980,note_on,30,0,2,,,,,,,,1,,,64,0
73980,note_on,0,0,2,,,,,,,,1,,,65,78
74100,note_on,0,0,1,,,,,,,,0,,,65,67
74100,note_on,120,0,2,,,,,,,,1,,,65,0
74100,note_on,0,0,1,,,,,,,,0,,,69,0
74100,note_on,120,0,1,,,,,,,,0,,,72,0
74160,note_on,60,0,2,,,,,,,,1,,,46,78
74160,note_on,60,0,1,,,,,,,,0,,,65,0
74160,note_on,0,0,1,,,,,,,,0,,,65,67
74190,note_on,30,0,1,,,,,,,,0,,,65,0
74190,note_on,0,0,1,,,,,,,,0,,,62,67
74220,note_on,60,0,2,,,,,,,,1,,,46,0
74220,note_on,0,0,2,,,,,,,,1,,,41,78
74220,note_on,30,0,1,,,,,,,,0,,,62,0
74220,note_on,0,0,1,,,,,,,,0,,,63,67
74250,note_on,30,0,1,,,,,,,,0,,,63,0
74250,note_on,0,0,1,,,,,,,,0,,,65,67
74280,note_on,30,0,1,,,,,,,,0,,,65,0
74280,note_on,0,0,1,,,,,,,,0,,,67,67
74280,note_on,60,0,2,,,,,,,,1,,,41,0
74280,note_on,0,0,2,,,,,,,,1,,,41,78
74310,note_on,0,0,1,,,,,,,,0,,,69,67
74310,note_on,30,0,1,,,,,,,,0,,,67,0
74340,note_on,0,0,1,,,,,,,,0,,,70,67
74340,note_on,30,0,1,,,,,,,,0,,,69,0
74340,note_on,60,0,2,,,,,,,,1,,,41,0
74340,note_on,0,0,2,,,,,,,,1,,,50,78
74370,note_on,0,0,1,,,,,,,,0,,,65,67
74370,note_on,30,0,1,,,,,,,,0,,,70,0
74400,note_on,0,0,1,,,,,,,,0,,,67,67
74400,note_on,60,0,2,,,,,,,,1,,,50,0
74400,note_on,0,0,2,,,,,,,,1,,,46,78
74400,note_on,30,0,1,,,,,,,,0,,,65,0
74430,note_on,30,0,1,,,,,,,,0,,,67,0
74430,note_on,0,0,1,,,,,,,,0,,,69,67
74460,note_on,30,0,1,,,,,,,,0,,,69,0
74460,note_on,0,0,2,,,,,,,,1,,,46,78
74460,note_on,60,0,2,,,,,,,,1,,,46,0
74460,note_on,0,0,1,,,,,,,,0,,,70,67
74490,note_on,30,0,1,,,,,,,,0,,,70,0
74490,note_on,0,0,1,,,,,,,,0,,,72,67
74520,note_on,0,0,1,,,,,,,,0,,,74,67
74520,note_on,0,0,2,,,,,,,,1,,,53,78
74520,note_on,60,0,2,,,,,,,,1,,,46,0
74520,note_on,30,0,1,,,,,,,,0,,,72,0
74550,note_on,30,0,1,,,,,,,,0,,,74,0
74550,note_on,0,0,1,,,,,,,,0,,,69,67
74580,note_on,0,0,1,,,,,,,,0,,,70,67
74580,note_on,0,0,2,,,,,,,,1,,,50,77
74580,note_on,30,0,1,,,,,,,,0,,,69,0
74580,note_on,60,0,2,,,,,,,,1,,,53,0
74610,note_on,30,0,1,,,,,,,,0,,,70,0
74610,note_on,0,0,1,,,,,,,,0,,,72,67
74640,note_on,30,0,1,,,,,,,,0,,,72,0
74640,note_on,0,0,1,,,,,,,,0,,,74,67
74640,note_on,0,0,2,,,,,,,,1,,,50,77
74640,note_on,60,0,2,,,,,,,,1,,,50,0
74670,note_on,30,0,1,,,,,,,,0,,,74,0
74670,note_on,0,0,1,,,,,,,,0,,,75,67
74700,note_on,0,0,1,,,,,,,,0,,,77,67
74700,note_on,0,0,2,,,,,,,,1,,,58,77
74700,note_on,30,0,1,,,,,,,,0,,,75,0
74700,note_on,60,0,2,,,,,,,,1,,,50,0
74730,note_on,0,0,1,,,,,,,,0,,,74,67
74730,note_on,30,0,1,,,,,,,,0,,,77,0
74760,note_on,0,0,1,,,,,,,,0,,,75,67
74760,note_on,30,0,1,,,,,,,,0,,,74,0
74760,note_on,60,0,2,,,,,,,,1,,,58,0
74760,note_on,0,0,2,,,,,,,,1,,,53,77
74790,note_on,0,0,1,,,,,,,,0,,,77,67
74790,note_on,30,0,1,,,,,,,,0,,,75,0
74820,note_on,30,0,1,,,,,,,,0,,,77,0
74820,note_on,60,0,2,,,,,,,,1,,,53,0
74820,note_on,0,0,2,,,,,,,,1,,,53,77
74820,note_on,0,0,1,,,,,,,,0,,,79,67
74850,note_on,0,0,1,,,,,,,,0,,,81,67
74850,note_on,30,0,1,,,,,,,,0,,,79,0
74880,note_on,0,0,2,,,,,,,,1,,,53,77
74880,note_on,30,0,1,,,,,,,,0,,,81,0
74880,note_on,0,0,2,,,,,,,,1,,,50,77
74880,note_on,0,0,1,,,,,,,,0,,,82,67
74880,note_on,0,0,2,,,,,,,,1,,,58,77
74880,note_on,60,0,2,,,,,,,,1,,,53,0
74910,note_on,30,0,1,,,,,,,,0,,,82,0
74910,note_on,0,0,1,,,,,,,,0,,,81,67
74940,note_on,60,0,2,,,,,,,,1,,,50,0
74940,note_on,30,0,1,,,,,,,,0,,,81,0
74940,note_on,0,0,2,,,,,,,,1,,,50,77
74940,note_on,0,0,2,,,,,,,,1,,,58,0
74940,note_on,0,0,2,,,,,,,,1,,,53,0
74940,note_on,0,0,2,,,,,,,,1,,,58,77
74940,note_on,0,0,1,,,,,,,,0,,,79,67
74940,note_on,0,0,2,,,,,,,,1,,,53,77
74970,note_on,30,0,1,,,,,,,,0,,,79,0
74970,note_on,0,0,1,,,,,,,,0,,,77,67
75000,note_on,30,0,1,,,,,,,,0,,,77,0
75000,note_on,60,0,2,,,,,,,,1,,,50,0
75000,note_on,0,0,2,,,,,,,,1,,,58,0
75000,note_on,0,0,2,,,,,,,,1,,,53,0
75000,note_on,0,0,2,,,,,,,,1,,,50,77
75000,note_on,0,0,2,,,,,,,,1,,,53,77
75000,note_on,0,0,2,,,,,,,,1,,,58,77
75000,note_on,0,0,1,,,,,,,,0,,,75,67
75030,note_on,30,0,1,,,,,,,,0,,,75,0
75030,note_on,0,0,1,,,,,,,,0,,,74,67
75060,note_on,0,0,2,,,,,,,,1,,,50,77
75060,note_on,0,0,2,,,,,,,,1,,,58,77
75060,note_on,0,0,1,,,,,,,,0,,,72,67
75060,note_on,60,0,2,,,,,,,,1,,,58,0
75060,note_on,0,0,2,,,,,,,,1,,,50,0
75060,note_on,0,0,2,,,,,,,,1,,,53,0
75060,note_on,30,0,1,,,,,,,,0,,,74,0
75060,note_on,0,0,2,,,,,,,,1,,,53,77
75090,note_on,30,0,1,,,,,,,,0,,,72,0
75090,note_on,0,0,1,,,,,,,,0,,,70,67
75120,note_on,0,0,1,,,,,,,,0,,,69,67
75120,note_on,30,0,1,,,,,,,,0,,,70,0
75120,note_on,0,0,2,,,,,,,,1,,,53,77
75120,note_on,0,0,2,,,,,,,,1,,,58,77
75120,note_on,0,0,2,,,,,,,,1,,,50,0
75120,note_on,60,0,2,,,,,,,,1,,,58,0
75120,note_on,0,0,2,,,,,,,,1,,,50,77
75120,note_on,0,0,2,,,,,,,,1,,,53,0
75150,note_on,30,0,1,,,,,,,,0,,,69,0
75150,note_on,0,0,1,,,,,,,,0,,,70,67
75180,note_on,30,0,1,,,,,,,,0,,,70,0
75180,note_on,0,0,1,,,,,,,,0,,,74,67
75180,note_on,0,0,2,,,,,,,,1,,,50,76
75180,note_on,60,0,2,,,,,,,,1,,,50,0
75180,note_on,0,0,2,,,,,,,,1,,,53,0
75180,note_on,0,0,2,,,,,,,,1,,,58,0
75180,note_on,0,0,2,,,,,,,,1,,,58,76
75180,note_on,0,0,2,,,,,,,,1,,,53,76
75210,note_on,0,0,1,,,,,,,,0,,,70,67
75210,note_on,30,0,1,,,,,,,,0,,,74,0
75240,note_on,60,0,2,,,,,,,,1,,,50,0
75240,note_on,30,0,1,,,,,,,,0,,,70,0
75240,note_on,0,0,2,,,,,,,,1,,,53,0
75240,note_on,0,0,2,,,,,,,,1,,,58,0
75240,note_on,0,0,2,,,,,,,,1,,,55,76
75240,note_on,0,0,1,,,,,,,,0,,,79,67
75240,note_on,0,0,2,,,,,,,,1,,,51,76
75270,note_on,30,0,1,,,,,,,,0,,,79,0
75270,note_on,0,0,1,,,,,,,,0,,,77,67
75300,note_on,30,0,1,,,,,,,,0,,,77,0
75300,note_on,0,0,1,,,,,,,,0,,,75,67
75300,note_on,0,0,2,,,,,,,,1,,,55,76
75300,note_on,0,0,2,,,,,,,,1,,,51,76
75300,note_on,0,0,2,,,,,,,,1,,,55,0
75300,note_on,60,0,2,,,,,,,,1,,,51,0
75330,note_on,30,0,1,,,,,,,,0,,,75,0
75330,note_on,0,0,1,,,,,,,,0,,,74,67
75360,note_on,0,0,2,,,,,,,,1,,,51,0
75360,note_on,60,0,2,,,,,,,,1,,,55,0
75360,note_on,30,0,1,,,,,,,,0,,,74,0
75360,note_on,0,0,1,,,,,,,,0,,,72,68
75360,note_on,0,0,2,,,,,,,,1,,,55,76
75360,note_on,0,0,2,,,,,,,,1,,,51,76
75390,note_on,0,0,1,,,,,,,,0,,,70,68
75390,note_on,30,0,1,,,,,,,,0,,,72,0
75420,note_on,30,0,1,,,,,,,,0,,,70,0
75420,note_on,0,0,1,,,,,,,,0,,,69,68
75420,note_on,0,0,2,,,,,,,,1,,,53,75
75420,note_on,0,0,2,,,,,,,,1,,,51,0
75420,note_on,60,0,2,,,,,,,,1,,,55,0
75450,note_on,30,0,1,,,,,,,,0,,,69,0
75450,note_on,0,0,1,,,,,,,,0,,,67,68
75480,note_on,30,0,1,,,,,,,,0,,,67,0
75480,note_on,0,0,1,,,,,,,,0,,,65,68
75480,note_on,0,0,2,,,,,,,,1,,,53,75
75480,note_on,60,0,2,,,,,,,,1,,,53,0
75510,note_on,30,0,1,,,,,,,,0,,,65,0
75510,note_on,0,0,1,,,,,,,,0,,,63,68
75540,note_on,0,0,2,,,,,,,,1,,,53,75
75540,note_on,60,0,2,,,,,,,,1,,,53,0
75540,note_on,0,0,1,,,,,,,,0,,,62,68
75540,note_on,30,0,1,,,,,,,,0,,,63,0
75570,note_on,0,0,1,,,,,,,,0,,,60,68
75570,note_on,30,0,1,,,,,,,,0,,,62,0
75600,note_on,0,0,1,,,,,,,,0,,,58,68
75600,note_on,30,0,1,,,,,,,,0,,,60,0
75600,note_on,0,0,2,,,,,,,,1,,,46,75
75600,note_on,60,0,2,,,,,,,,1,,,53,0
75630,note_on,30,0,1,,,,,,,,0,,,58,0
75630,note_on,0,0,1,,,,,,,,0,,,62,68
75660,note_on,0,0,2,,,,,,,,1,,,41,75
75660,note_on,60,0,2,,,,,,,,1,,,46,0
75660,note_on,30,0,1,,,,,,,,0,,,62,0
75660,note_on,0,0,1,,,,,,,,0,,,63,68
75690,note_on,30,0,1,,,,,,,,0,,,63,0
75690,note_on,0,0,1,,,,,,,,0,,,65,68
75720,note_on,60,0,2,,,,,,,,1,,,41,0
75720,note_on,30,0,1,,,,,,,,0,,,65,0
75720,note_on,0,0,2,,,,,,,,1,,,41,75
75720,note_on,0,0,1,,,,,,,,0,,,67,68
75750,note_on,30,0,1,,,,,,,,0,,,67,0
75750,note_on,0,0,1,,,,,,,,0,,,69,68
75780,note_on,0,0,1,,,,,,,,0,,,70,68
75780,note_on,0,0,2,,,,,,,,1,,,50,75
75780,note_on,60,0,2,,,,,,,,1,,,41,0
75780,note_on,30,0,1,,,,,,,,0,,,69,0
75810,note_on,30,0,1,,,,,,,,0,,,70,0
75810,note_on,0,0,1,,,,,,,,0,,,65,68
75840,note_on,30,0,1,,,,,,,,0,,,65,0
75840,note_on,0,0,1,,,,,,,,0,,,67,68
75840,note_on,60,0,2,,,,,,,,1,,,50,0
75840,note_on,0,0,2,,,,,,,,1,,,46,75
75870,note_on,30,0,1,,,,,,,,0,,,67,0
75870,note_on,0,0,1,,,,,,,,0,,,69,68
75900,note_on,30,0,1,,,,,,,,0,,,69,0
75900,note_on,0,0,1,,,,,,,,0,,,70,68
75900,note_on,60,0,2,,,,,,,,1,,,46,0
75900,note_on,0,0,2,,,,,,,,1,,,46,75
75930,note_on,30,0,1,,,,,,,,0,,,70,0
75930,note_on,0,0,1,,,,,,,,0,,,72,68
75960,note_on,60,0,2,,,,,,,,1,,,46,0
75960,note_on,0,0,2,,,,,,,,1,,,53,75
75960,note_on,30,0,1,,,,,,,,0,,,72,0
75960,note_on,0,0,1,,,,,,,,0,,,74,68
75990,note_on,30,0,1,,,,,,,,0,,,74,0
75990,note_on,0,0,1,,,,,,,,0,,,69,68
76020,note_on,0,0,2,,,,,,,,1,,,50,76
76020,note_on,60,0,2,,,,,,,,1,,,53,0
76020,note_on,0,0,1,,,,,,,,0,,,70,68
76020,note_on,30,0,1,,,,,,,,0,,,69,0
76050,note_on,30,0,1,,,,,,,,0,,,70,0
76050,note_on,0,0,1,,,,,,,,0,,,72,68
76080,note_on,30,0,1,,,,,,,,0,,,72,0
76080,note_on,0,0,1,,,,,,,,0,,,74,68
76080,note_on,0,0,2,,,,,,,,1,,,50,76
76080,note_on,60,0,2,,,,,,,,1,,,50,0
76110,note_on,0,0,1,,,,,,,,0,,,75,68
76110,note_on,30,0,1,,,,,,,,0,,,74,0
76140,note_on,60,0,2,,,,,,,,1,,,50,0
76140,note_on,0,0,1,,,,,,,,0,,,77,68
76140,note_on,0,0,2,,,,,,,,1,,,58,76
76140,note_on,30,0,1,,,,,,,,0,,,75,0
76170,note_on,30,0,1,,,,,,,,0,,,77,0
76170,note_on,0,0,1,,,,,,,,0,,,74,68
76200,note_on,60,0,2,,,,,,,,1,,,58,0
76200,note_on,0,0,1,,,,,,,,0,,,75,68
76200,note_on,0,0,2,,,,,,,,1,,,53,76
76200,note_on,30,0,1,,,,,,,,0,,,74,0
76230,note_on,0,0,1,,,,,,,,0,,,77,68
76230,note_on,30,0,1,,,,,,,,0,,,75,0
76260,note_on,60,0,2,,,,,,,,1,,,53,0
76260,note_on,0,0,2,,,,,,,,1,,,53,76
76260,note_on,0,0,1,,,,,,,,0,,,79,68
76260,note_on,30,0,1,,,,,,,,0,,,77,0
76290,note_on,0,0,1,,,,,,,,0,,,81,68
76290,note_on,30,0,1,,,,,,,,0,,,79,0
76320,note_on,0,0,1,,,,,,,,0,,,82,68
76320,note_on,30,0,1,,,,,,,,0,,,81,0
76320,note_on,0,0,2,,,,,,,,1,,,50,76
76320,note_on,60,0,2,,,,,,,,1,,,53,0
76320,note_on,0,0,2,,,,,,,,1,,,58,76
76320,note_on,0,0,2,,,,,,,,1,,,53,76
76350,note_on,0,0,1,,,,,,,,0,,,81,68
76350,note_on,30,0,1,,,,,,,,0,,,82,0
76380,note_on,0,0,2,,,,,,,,1,,,58,76
76380,note_on,0,0,2,,,,,,,,1,,,50,76
76380,note_on,0,0,2,,,,,,,,1,,,53,76
76380,note_on,0,0,2,,,,,,,,1,,,58,0
76380,note_on,0,0,2,,,,,,,,1,,,53,0
76380,note_on,0,0,1,,,,,,,,0,,,79,68
76380,note_on,30,0,1,,,,,,,,0,,,81,0
76380,note_on,60,0,2,,,,,,,,1,,,50,0
76410,note_on,0,0,1,,,,,,,,0,,,77,68
76410,note_on,30,0,1,,,,,,,,0,,,79,0
76440,note_on,0,0,2,,,,,,,,1,,,58,77
76440,note_on,60,0,2,,,,,,,,1,,,53,0
76440,note_on,0,0,2,,,,,,,,1,,,50,0
76440,note_on,0,0,2,,,,,,,,1,,,58,0
76440,note_on,0,0,2,,,,,,,,1,,,50,77
76440,note_on,0,0,2,,,,,,,,1,,,53,77
76440,note_on,0,0,1,,,,,,,,0,,,75,68
76440,note_on,30,0,1,,,,,,,,0,,,77,0
76470,note_on,30,0,1,,,,,,,,0,,,75,0
76470,note_on,0,0,1,,,,,,,,0,,,74,68
76500,note_on,30,0,1,,,,,,,,0,,,74,0
76500,note_on,0,0,1,,,,,,,,0,,,72,68
76500,note_on,60,0,2,,,,,,,,1,,,53,0
76500,note_on,0,0,2,,,,,,,,1,,,53,77
76500,note_on,0,0,2,,,,,,,,1,,,58,0
76500,note_on,0,0,2,,,,,,,,1,,,58,77
76500,note_on,0,0,2,,,,,,,,1,,,50,77
76500,note_on,0,0,2,,,,,,,,1,,,50,0
76530,note_on,0,0,1,,,,,,,,0,,,70,68
76530,note_on,30,0,1,,,,,,,,0,,,72,0
76560,note_on,60,0,2,,,,,,,,1,,,58,0
76560,note_on,0,0,2,,,,,,,,1,,,50,77
76560,note_on,0,0,2,,,,,,,,1,,,53,77
76560,note_on,0,0,2,,,,,,,,1,,,58,77
76560,note_on,0,0,2,,,,,,,,1,,,50,0
76560,note_on,30,0,1,,,,,,,,0,,,70,0
76560,note_on,0,0,1,,,,,,,,0,,,69,68
76560,note_on,0,0,2,,,,,,,,1,,,53,0
76590,note_on,30,0,1,,,,,,,,0,,,69,0
76590,note_on,0,0,1,,,,,,,,0,,,67,68
76620,note_on,0,0,2,,,,,,,,1,,,50,77
76620,note_on,0,0,2,,,,,,,,1,,,53,77
76620,note_on,0,0,2,,,,,,,,1,,,58,77
76620,note_on,0,0,2,,,,,,,,1,,,58,0
76620,note_on,0,0,2,,,,,,,,1,,,53,0
76620,note_on,60,0,2,,,,,,,,1,,,50,0
76620,note_on,30,0,1,,,,,,,,0,,,67,0
76620,note_on,0,0,1,,,,,,,,0,,,65,68
76650,note_on,30,0,1,,,,,,,,0,,,65,0
76650,note_on,0,0,1,,,,,,,,0,,,63,68
76680,note_on,30,0,1,,,,,,,,0,,,63,0
76680,note_on,0,0,2,,,,,,,,1,,,53,0
76680,note_on,0,0,2,,,,,,,,1,,,62,77
76680,note_on,0,0,2,,,,,,,,1,,,39,77
76680,note_on,60,0,2,,,,,,,,1,,,50,0
76680,note_on,0,0,2,,,,,,,,1,,,58,0
76680,note_on,0,0,2,,,,,,,,1,,,51,77
76710,note_on,30,0,2,,,,,,,,1,,,62,0
76710,note_on,0,0,2,,,,,,,,1,,,60,77
76740,note_on,30,0,2,,,,,,,,1,,,60,0
76740,note_on,0,0,2,,,,,,,,1,,,39,0
76740,note_on,0,0,2,,,,,,,,1,,,51,0
76740,note_on,0,0,2,,,,,,,,1,,,51,77
76740,note_on,0,0,2,,,,,,,,1,,,39,77
76740,note_on,0,0,2,,,,,,,,1,,,58,77
76770,note_on,30,0,2,,,,,,,,1,,,58,0
76770,note_on,0,0,2,,,,,,,,1,,,57,77
76800,note_on,0,0,2,,,,,,,,1,,,39,0
76800,note_on,0,0,2,,,,,,,,1,,,51,0
76800,note_on,0,0,2,,,,,,,,1,,,51,77
76800,note_on,0,0,2,,,,,,,,1,,,39,77
76800,note_on,30,0,2,,,,,,,,1,,,57,0
76800,note_on,0,0,2,,,,,,,,1,,,55,77
76830,note_on,0,0,2,,,,,,,,1,,,53,77
76830,note_on,30,0,2,,,,,,,,1,,,55,0
76860,note_on,30,0,2,,,,,,,,1,,,53,0
76860,note_on,0,0,2,,,,,,,,1,,,39,0
76860,note_on,0,0,2,,,,,,,,1,,,51,0
76860,note_on,0,0,2,,,,,,,,1,,,51,77
76860,note_on,0,0,2,,,,,,,,1,,,41,77
76890,note_on,0,0,2,,,,,,,,1,,,50,77
76890,note_on,30,0,2,,,,,,,,1,,,51,0
76920,note_on,30,0,2,,,,,,,,1,,,50,0
76920,note_on,0,0,2,,,,,,,,1,,,48,77
76920,note_on,0,0,2,,,,,,,,1,,,41,77
76920,note_on,0,0,2,,,,,,,,1,,,41,0
76950,note_on,0,0,2,,,,,,,,1,,,46,77
76950,note_on,30,0,2,,,,,,,,1,,,48,0
76980,note_on,0,0,2,,,,,,,,1,,,41,77
76980,note_on,0,0,2,,,,,,,,1,,,45,77
76980,note_on,30,0,2,,,,,,,,1,,,46,0
76980,note_on,0,0,2,,,,,,,,1,,,41,0
77010,note_on,0,0,2,,,,,,,,1,,,48,77
77010,note_on,30,0,2,,,,,,,,1,,,45,0
77040,note_on,0,0,2,,,,,,,,1,,,34,77
77040,note_on,30,0,2,,,,,,,,1,,,48,0
77040,note_on,0,0,2,,,,,,,,1,,,41,0
77040,note_on,0,0,2,,,,,,,,1,,,46,77
77100,note_on,60,0,2,,,,,,,,1,,,46,0
77100,note_on,0,0,2,,,,,,,,1,,,50,77
77160,note_on,0,0,2,,,,,,,,1,,,34,0
77160,note_on,60,0,2,,,,,,,,1,,,50,0
77160,note_on,0,0,2,,,,,,,,1,,,53,77
77220,note_on,0,0,2,,,,,,,,1,,,58,76
77220,note_on,60,0,2,,,,,,,,1,,,53,0
77280,note_on,60,0,2,,,,,,,,1,,,58,0
77280,note_on,600,0,1,,,,,,,,0,,,62,69
77340,note_on,0,0,1,,,,,,,,0,,,65,69
77340,note_on,60,0,1,,,,,,,,0,,,62,0
77400,note_on,0,0,1,,,,,,,,0,,,65,69
77400,note_on,0,0,1,,,,,,,,0,,,60,69
77400,note_on,60,0,1,,,,,,,,0,,,65,0
77400,note_on,120,0,2,,,,,,,,1,,,53,75
77400,note_on,0,0,1,,,,,,,,0,,,69,69
77430,note_on,0,0,2,,,,,,,,1,,,55,74
77430,note_on,30,0,2,,,,,,,,1,,,53,0
77460,note_on,30,0,2,,,,,,,,1,,,55,0
77460,note_on,0,0,2,,,,,,,,1,,,53,74
77490,note_on,30,0,2,,,,,,,,1,,,53,0
77490,note_on,0,0,2,,,,,,,,1,,,51,74
77520,note_on,0,0,1,,,,,,,,0,,,60,0
77520,note_on,30,0,2,,,,,,,,1,,,51,0
77520,note_on,0,0,2,,,,,,,,1,,,50,74
77520,note_on,0,0,1,,,,,,,,0,,,65,0
77520,note_on,120,0,1,,,,,,,,0,,,69,0
77520,note_on,0,0,1,,,,,,,,0,,,60,69
77520,note_on,0,0,1,,,,,,,,0,,,69,69
77520,note_on,0,0,1,,,,,,,,0,,,65,69
77550,note_on,30,0,2,,,,,,,,1,,,50,0
77550,note_on,0,0,2,,,,,,,,1,,,48,74
77580,note_on,0,0,1,,,,,,,,0,,,65,0
77580,note_on,0,0,1,,,,,,,,0,,,60,0
77580,note_on,0,0,1,,,,,,,,0,,,62,69
77580,note_on,0,0,1,,,,,,,,0,,,65,69
77580,note_on,0,0,1,,,,,,,,0,,,70,69
77580,note_on,60,0,1,,,,,,,,0,,,69,0
77580,note_on,0,0,2,,,,,,,,1,,,46,74
77580,note_on,30,0,2,,,,,,,,1,,,48,0
77610,note_on,0,0,2,,,,,,,,1,,,45,74
77610,note_on,30,0,2,,,,,,,,1,,,46,0
77640,note_on,30,0,2,,,,,,,,1,,,45,0
77640,note_on,0,0,2,,,,,,,,1,,,46,74
77670,note_on,0,0,2,,,,,,,,1,,,48,74
77670,note_on,30,0,2,,,,,,,,1,,,46,0
77700,note_on,0,0,2,,,,,,,,1,,,50,74
77700,note_on,0,0,1,,,,,,,,0,,,70,69
77700,note_on,30,0,2,,,,,,,,1,,,48,0
77700,note_on,0,0,1,,,,,,,,0,,,65,69
77700,note_on,0,0,1,,,,,,,,0,,,62,69
77700,note_on,0,0,1,,,,,,,,0,,,62,0
77700,note_on,0,0,1,,,,,,,,0,,,65,0
77700,note_on,120,0,1,,,,,,,,0,,,70,0
77730,note_on,30,0,2,,,,,,,,1,,,50,0
77730,note_on,0,0,2,,,,,,,,1,,,51,74
77760,note_on,0,0,1,,,,,,,,0,,,62,0
77760,note_on,0,0,1,,,,,,,,0,,,69,69
77760,note_on,0,0,1,,,,,,,,0,,,65,69
77760,note_on,0,0,1,,,,,,,,0,,,60,69
77760,note_on,0,0,1,,,,,,,,0,,,70,0
77760,note_on,60,0,1,,,,,,,,0,,,65,0
77760,note_on,30,0,2,,,,,,,,1,,,51,0
77760,note_on,0,0,2,,,,,,,,1,,,53,74
77790,note_on,30,0,2,,,,,,,,1,,,53,0
77790,note_on,0,0,2,,,,,,,,1,,,55,74
77820,note_on,0,0,2,,,,,,,,1,,,53,74
77820,note_on,30,0,2,,,,,,,,1,,,55,0
77850,note_on,30,0,2,,,,,,,,1,,,53,0
77850,note_on,0,0,2,,,,,,,,1,,,51,74
77880,note_on,0,0,1,,,,,,,,0,,,60,0
77880,note_on,0,0,1,,,,,,,,0,,,60,69
77880,note_on,0,0,1,,,,,,,,0,,,69,69
77880,note_on,0,0,1,,,,,,,,0,,,65,69
77880,note_on,0,0,1,,,,,,,,0,,,65,0
77880,note_on,120,0,1,,,,,,,,0,,,69,0
77880,note_on,30,0,2,,,,,,,,1,,,51,0
77880,note_on,0,0,2,,,,,,,,1,,,50,74
77910,note_on,0,0,2,,,,,,,,1,,,48,74
77910,note_on,30,0,2,,,,,,,,1,,,50,0
77940,note_on,0,0,2,,,,,,,,1,,,46,74
77940,note_on,30,0,2,,,,,,,,1,,,48,0
77940,note_on,0,0,1,,,,,,,,0,,,70,69
77940,note_on,0,0,1,,,,,,,,0,,,65,69
77940,note_on,0,0,1,,,,,,,,0,,,62,69
77940,note_on,0,0,1,,,,,,,,0,,,65,0
77940,note_on,0,0,1,,,,,,,,0,,,69,0
77940,note_on,60,0,1,,,,,,,,0,,,60,0
77970,note_on,30,0,2,,,,,,,,1,,,46,0
77970,note_on,0,0,2,,,,,,,,1,,,45,74
78000,note_on,30,0,2,,,,,,,,1,,,45,0
78000,note_on,0,0,2,,,,,,,,1,,,46,74
78030,note_on,30,0,2,,,,,,,,1,,,46,0
78030,note_on,0,0,2,,,,,,,,1,,,48,74
78060,note_on,0,0,1,,,,,,,,0,,,70,69
78060,note_on,0,0,1,,,,,,,,0,,,62,69
78060,note_on,0,0,1,,,,,,,,0,,,62,0
78060,note_on,0,0,1,,,,,,,,0,,,65,69
78060,note_on,0,0,1,,,,,,,,0,,,65,0
78060,note_on,30,0,2,,,,,,,,1,,,48,0
78060,note_on,0,0,2,,,,,,,,1,,,50,74
78060,note_on,120,0,1,,,,,,,,0,,,70,0
78090,note_on,0,0,2,,,,,,,,1,,,51,74
78090,note_on,30,0,2,,,,,,,,1,,,50,0
78120,note_on,0,0,1,,,,,,,,0,,,65,0
78120,note_on,60,0,1,,,,,,,,0,,,62,0
78120,note_on,0,0,1,,,,,,,,0,,,60,69
78120,note_on,0,0,1,,,,,,,,0,,,70,0
78120,note_on,0,0,1,,,,,,,,0,,,69,69
78120,note_on,0,0,1,,,,,,,,0,,,65,69
78120,note_on,0,0,2,,,,,,,,1,,,53,75
78120,note_on,30,0,2,,,,,,,,1,,,51,0
78150,note_on,0,0,2,,,,,,,,1,,,55,75
78150,note_on,30,0,2,,,,,,,,1,,,53,0
78180,note_on,30,0,2,,,,,,,,1,,,55,0
78180,note_on,0,0,2,,,,,,,,1,,,53,75
78210,note_on,30,0,2,,,,,,,,1,,,53,0
78210,note_on,0,0,2,,,,,,,,1,,,51,75
78240,note_on,0,0,1,,,,,,,,0,,,65,69
78240,note_on,0,0,1,,,,,,,,0,,,69,69
78240,note_on,0,0,1,,,,,,,,0,,,60,0
78240,note_on,0,0,1,,,,,,,,0,,,65,0
78240,note_on,30,0,2,,,,,,,,1,,,51,0
78240,note_on,120,0,1,,,,,,,,0,,,69,0
78240,note_on,0,0,2,,,,,,,,1,,,50,75
78240,note_on,0,0,1,,,,,,,,0,,,60,69
78270,note_on,30,0,2,,,,,,,,1,,,50,0
78270,note_on,0,0,2,,,,,,,,1,,,48,75
78300,note_on,0,0,1,,,,,,,,0,,,65,69
78300,note_on,0,0,2,,,,,,,,1,,,46,75
78300,note_on,0,0,1,,,,,,,,0,,,70,69
78300,note_on,0,0,1,,,,,,,,0,,,62,69
78300,note_on,0,0,1,,,,,,,,0,,,69,0
78300,note_on,0,0,1,,,,,,,,0,,,60,0
78300,note_on,60,0,1,,,,,,,,0,,,65,0
78300,note_on,30,0,2,,,,,,,,1,,,48,0
78330,note_on,30,0,2,,,,,,,,1,,,46,0
78330,note_on,0,0,2,,,,,,,,1,,,45,75
78360,note_on,30,0,2,,,,,,,,1,,,45,0
78360,note_on,0,0,2,,,,,,,,1,,,46,75
78390,note_on,30,0,2,,,,,,,,1,,,46,0
78390,note_on,0,0,2,,,,,,,,1,,,48,75
78420,note_on,0,0,2,,,,,,,,1,,,50,75
78420,note_on,30,0,2,,,,,,,,1,,,48,0
78420,note_on,0,0,1,,,,,,,,0,,,65,69
78420,note_on,0,0,1,,,,,,,,0,,,62,69
78420,note_on,0,0,1,,,,,,,,0,,,70,69
78420,note_on,0,0,1,,,,,,,,0,,,62,0
78420,note_on,0,0,1,,,,,,,,0,,,65,0
78420,note_on,120,0,1,,,,,,,,0,,,70,0
78450,note_on,0,0,2,,,,,,,,1,,,51,75
78450,note_on,30,0,2,,,,,,,,1,,,50,0
78480,note_on,30,0,2,,,,,,,,1,,,51,0
78480,note_on,0,0,1,,,,,,,,0,,,62,69
78480,note_on,0,0,1,,,,,,,,0,,,65,69
78480,note_on,0,0,1,,,,,,,,0,,,70,69
78480,note_on,0,0,1,,,,,,,,0,,,70,0
78480,note_on,0,0,1,,,,,,,,0,,,62,0
78480,note_on,60,0,1,,,,,,,,0,,,65,0
78480,note_on,0,0,2,,,,,,,,1,,,53,75
78510,note_on,0,0,2,,,,,,,,1,,,55,75
78510,note_on,30,0,2,,,,,,,,1,,,53,0
78540,note_on,30,0,2,,,,,,,,1,,,55,0
78540,note_on,0,0,2,,,,,,,,1,,,56,75
78570,note_on,0,0,2,,,,,,,,1,,,55,75
78570,note_on,30,0,2,,,,,,,,1,,,56,0
78600,note_on,30,0,2,,,,,,,,1,,,55,0
78600,note_on,0,0,2,,,,,,,,1,,,53,75
78630,note_on,30,0,2,,,,,,,,1,,,53,0
78630,note_on,0,0,2,,,,,,,,1,,,51,75
78660,note_on,30,0,2,,,,,,,,1,,,51,0
78660,note_on,0,0,2,,,,,,,,1,,,50,75
78660,note_on,0,0,1,,,,,,,,0,,,65,0
78660,note_on,0,0,1,,,,,,,,0,,,70,0
78660,note_on,180,0,1,,,,,,,,0,,,62,0
78690,note_on,30,0,2,,,,,,,,1,,,50,0
78690,note_on,0,0,2,,,,,,,,1,,,48,75
78720,note_on,30,0,2,,,,,,,,1,,,48,0
78720,note_on,0,0,2,,,,,,,,1,,,46,75
78750,note_on,30,0,2,,,,,,,,1,,,46,0
78750,note_on,0,0,2,,,,,,,,1,,,44,75
78780,note_on,30,0,2,,,,,,,,1,,,44,0
78780,note_on,0,0,2,,,,,,,,1,,,43,75
78810,note_on,30,0,2,,,,,,,,1,,,43,0
78810,note_on,0,0,2,,,,,,,,1,,,41,75
78840,note_on,0,0,1,,,,,,,,0,,,58,68
78840,note_on,30,0,2,,,,,,,,1,,,41,0
78840,note_on,0,0,2,,,,,,,,1,,,39,75
78840,note_on,0,0,2,,,,,,,,1,,,55,75
78840,note_on,180,0,1,,,,,,,,0,,,67,68
78840,note_on,0,0,1,,,,,,,,0,,,63,68
78900,note_on,0,0,2,,,,,,,,1,,,55,75
78900,note_on,0,0,2,,,,,,,,1,,,51,75
78900,note_on,0,0,2,,,,,,,,1,,,55,0
78900,note_on,60,0,2,,,,,,,,1,,,39,0
78900,note_on,60,0,1,,,,,,,,0,,,58,0
78900,note_on,0,0,1,,,,,,,,0,,,63,0
78900,note_on,0,0,1,,,,,,,,0,,,67,0
78900,note_on,0,0,1,,,,,,,,0,,,67,68
78960,note_on,60,0,1,,,,,,,,0,,,67,0
78960,note_on,0,0,1,,,,,,,,0,,,63,68
78960,note_on,0,0,2,,,,,,,,1,,,55,75
78960,note_on,0,0,2,,,,,,,,1,,,51,75
78960,note_on,60,0,2,,,,,,,,1,,,55,0
78960,note_on,0,0,2,,,,,,,,1,,,51,0
79020,note_on,0,0,2,,,,,,,,1,,,39,76
79020,note_on,60,0,1,,,,,,,,0,,,63,0
79020,note_on,0,0,1,,,,,,,,0,,,70,68
79020,note_on,0,0,1,,,,,,,,0,,,58,68
79020,note_on,0,0,2,,,,,,,,1,,,51,0
79020,note_on,60,0,2,,,,,,,,1,,,55,0
79080,note_on,0,0,2,,,,,,,,1,,,55,76
79080,note_on,0,0,2,,,,,,,,1,,,51,76
79080,note_on,0,0,1,,,,,,,,0,,,70,68
79080,note_on,0,0,1,,,,,,,,0,,,70,0
79080,note_on,60,0,1,,,,,,,,0,,,58,0
79080,note_on,60,0,2,,,,,,,,1,,,39,0
79140,note_on,0,0,1,,,,,,,,0,,,67,68
79140,note_on,60,0,1,,,,,,,,0,,,70,0
79140,note_on,60,0,2,,,,,,,,1,,,55,0
79140,note_on,0,0,2,,,,,,,,1,,,55,76
79140,note_on,0,0,2,,,,,,,,1,,,51,0
79140,note_on,0,0,2,,,,,,,,1,,,51,76
79200,note_on,0,0,2,,,,,,,,1,,,39,76
79200,note_on,0,0,2,,,,,,,,1,,,55,0
79200,note_on,60,0,2,,,,,,,,1,,,51,0
79200,note_on,60,0,1,,,,,,,,0,,,67,0
79200,note_on,0,0,1,,,,,,,,0,,,67,68
79200,note_on,0,0,1,,,,,,,,0,,,75,68
79260,note_on,0,0,2,,,,,,,,1,,,55,76
79260,note_on,0,0,2,,,,,,,,1,,,51,76
79260,note_on,60,0,2,,,,,,,,1,,,39,0
79260,note_on,60,0,1,,,,,,,,0,,,75,0
79260,note_on,0,0,1,,,,,,,,0,,,67,0
79260,note_on,0,0,1,,,,,,,,0,,,75,68
79320,note_on,60,0,2,,,,,,,,1,,,55,0
79320,note_on,0,0,2,,,,,,,,1,,,51,0
79320,note_on,0,0,2,,,,,,,,1,,,51,76
79320,note_on,0,0,2,,,,,,,,1,,,55,76
79320,note_on,0,0,1,,,,,,,,0,,,70,68
79320,note_on,60,0,1,,,,,,,,0,,,75,0
79380,note_on,60,0,1,,,,,,,,0,,,70,0
79380,note_on,0,0,1,,,,,,,,0,,,70,68
79380,note_on,0,0,2,,,,,,,,1,,,39,76
79380,note_on,60,0,2,,,,,,,,1,,,51,0
79380,note_on,0,0,1,,,,,,,,0,,,79,68
79380,note_on,0,0,2,,,,,,,,1,,,55,0
79440,note_on,60,0,1,,,,,,,,0,,,70,0
79440,note_on,0,0,1,,,,,,,,0,,,79,0
79440,note_on,0,0,1,,,,,,,,0,,,79,68
79440,note_on,0,0,2,,,,,,,,1,,,51,76
79440,note_on,0,0,2,,,,,,,,1,,,55,76
79440,note_on,60,0,2,,,,,,,,1,,,39,0
79500,note_on,0,0,2,,,,,,,,1,,,55,0
79500,note_on,0,0,2,,,,,,,,1,,,55,76
79500,note_on,0,0,2,,,,,,,,1,,,51,76
79500,note_on,60,0,2,,,,,,,,1,,,51,0
79500,note_on,0,0,1,,,,,,,,0,,,75,68
79500,note_on,60,0,1,,,,,,,,0,,,79,0
79560,note_on,60,0,1,,,,,,,,0,,,75,0
79560,note_on,0,0,1,,,,,,,,0,,,77,68
79560,note_on,0,0,2,,,,,,,,1,,,41,76
79560,note_on,0,0,2,,,,,,,,1,,,55,0
79560,note_on,60,0,2,,,,,,,,1,,,51,0
79620,note_on,0,0,2,,,,,,,,1,,,58,76
79620,note_on,0,0,2,,,,,,,,1,,,53,76
79620,note_on,0,0,2,,,,,,,,1,,,62,76
79620,note_on,0,0,1,,,,,,,,0,,,74,68
79620,note_on,60,0,2,,,,,,,,1,,,41,0
79620,note_on,0,0,1,,,,,,,,0,,,70,68
79620,note_on,0,0,1,,,,,,,,0,,,65,68
79620,note_on,60,0,1,,,,,,,,0,,,77,0
79680,note_on,60,0,2,,,,,,,,1,,,58,0
79680,note_on,0,0,1,,,,,,,,0,,,70,68
79680,note_on,0,0,1,,,,,,,,0,,,74,68
79680,note_on,0,0,2,,,,,,,,1,,,53,0
79680,note_on,60,0,1,,,,,,,,0,,,74,0
79680,note_on,0,0,1,,,,,,,,0,,,70,0
79680,note_on,0,0,1,,,,,,,,0,,,65,0
79680,note_on,0,0,1,,,,,,,,0,,,65,68
79680,note_on,0,0,2,,,,,,,,1,,,62,76
79680,note_on,0,0,2,,,,,,,,1,,,62,0
79680,note_on,0,0,2,,,,,,,,1,,,53,76
79680,note_on,0,0,2,,,,,,,,1,,,58,76
79740,note_on,0,0,1,,,,,,,,0,,,76,68
79740,note_on,0,0,2,,,,,,,,1,,,62,0
79740,note_on,0,0,2,,,,,,,,1,,,42,76
79740,note_on,60,0,1,,,,,,,,0,,,74,0
79740,note_on,0,0,1,,,,,,,,0,,,70,0
79740,note_on,0,0,1,,,,,,,,0,,,65,0
79740,note_on,0,0,2,,,,,,,,1,,,53,0
79740,note_on,60,0,2,,,,,,,,1,,,58,0
79800,note_on,0,0,1,,,,,,,,0,,,64,68
79800,note_on,60,0,2,,,,,,,,1,,,42,0
79800,note_on,0,0,1,,,,,,,,0,,,73,68
79800,note_on,0,0,1,,,,,,,,0,,,70,68
79800,note_on,60,0,1,,,,,,,,0,,,76,0
79800,note_on,0,0,2,,,,,,,,1,,,54,76
79800,note_on,0,0,2,,,,,,,,1,,,61,76
79800,note_on,0,0,2,,,,,,,,1,,,58,76
79860,note_on,60,0,2,,,,,,,,1,,,58,0
79860,note_on,0,0,1,,,,,,,,0,,,70,68
79860,note_on,0,0,2,,,,,,,,1,,,54,0
79860,note_on,0,0,2,,,,,,,,1,,,61,0
79860,note_on,0,0,2,,,,,,,,1,,,61,75
79860,note_on,60,0,1,,,,,,,,0,,,73,0
79860,note_on,0,0,2,,,,,,,,1,,,58,75
79860,note_on,0,0,1,,,,,,,,0,,,64,0
79860,note_on,0,0,1,,,,,,,,0,,,64,68
79860,note_on,0,0,1,,,,,,,,0,,,73,68
79860,note_on,0,0,1,,,,,,,,0,,,70,0
79860,note_on,0,0,2,,,,,,,,1,,,54,75
79920,note_on,60,0,2,,,,,,,,1,,,54,0
79920,note_on,0,0,2,,,,,,,,1,,,61,0
79920,note_on,60,0,1,,,,,,,,0,,,73,0
79920,note_on,0,0,1,,,,,,,,0,,,70,0
79920,note_on,0,0,1,,,,,,,,0,,,64,0
79920,note_on,0,0,1,,,,,,,,0,,,77,68
79920,note_on,0,0,2,,,,,,,,1,,,41,75
79920,note_on,0,0,2,,,,,,,,1,,,58,0
79980,note_on,0,0,2,,,,,,,,1,,,53,75
79980,note_on,0,0,2,,,,,,,,1,,,62,75
79980,note_on,60,0,2,,,,,,,,1,,,41,0
79980,note_on,60,0,1,,,,,,,,0,,,77,0
79980,note_on,0,0,1,,,,,,,,0,,,65,68
79980,note_on,0,0,1,,,,,,,,0,,,70,68
79980,note_on,0,0,1,,,,,,,,0,,,74,68
79980,note_on,0,0,2,,,,,,,,1,,,58,75
80040,note_on,0,0,1,,,,,,,,0,,,70,0
80040,note_on,0,0,1,,,,,,,,0,,,65,0
80040,note_on,0,0,1,,,,,,,,0,,,70,68
80040,note_on,0,0,2,,,,,,,,1,,,53,0
80040,note_on,0,0,2,,,,,,,,1,,,58,75
80040,note_on,0,0,2,,,,,,,,1,,,53,75
80040,note_on,0,0,2,,,,,,,,1,,,62,75
80040,note_on,0,0,1,,,,,,,,0,,,74,68
80040,note_on,0,0,1,,,,,,,,0,,,65,68
80040,note_on,0,0,2,,,,,,,,1,,,62,0
80040,note_on,60,0,2,,,,,,,,1,,,58,0
80040,note_on,60,0,1,,,,,,,,0,,,74,0
80100,note_on,0,0,2,,,,,,,,1,,,53,0
80100,note_on,60,0,2,,,,,,,,1,,,58,0
80100,note_on,0,0,2,,,,,,,,1,,,42,75
80100,note_on,0,0,2,,,,,,,,1,,,62,0
80100,note_on,0,0,1,,,,,,,,0,,,74,0
80100,note_on,0,0,1,,,,,,,,0,,,76,68
80100,note_on,60,0,1,,,,,,,,0,,,65,0
80100,note_on,0,0,1,,,,,,,,0,,,70,0
80160,note_on,0,0,2,,,,,,,,1,,,61,75
80160,note_on,0,0,1,,,,,,,,0,,,73,67
80160,note_on,0,0,1,,,,,,,,0,,,70,67
80160,note_on,0,0,1,,,,,,,,0,,,64,67
80160,note_on,60,0,1,,,,,,,,0,,,76,0
80160,note_on,60,0,2,,,,,,,,1,,,42,0
80160,note_on,0,0,2,,,,,,,,1,,,58,75
80160,note_on,0,0,2,,,,,,,,1,,,54,75
80220,note_on,0,0,2,,,,,,,,1,,,61,75
80220,note_on,0,0,2,,,,,,,,1,,,61,0
80220,note_on,0,0,2,,,,,,,,1,,,54,75
80220,note_on,60,0,2,,,,,,,,1,,,54,0
80220,note_on,0,0,2,,,,,,,,1,,,58,0
80220,note_on,0,0,2,,,,,,,,1,,,58,75
80220,note_on,0,0,1,,,,,,,,0,,,70,0
80220,note_on,0,0,1,,,,,,,,0,,,64,67
80220,note_on,0,0,1,,,,,,,,0,,,64,0
80220,note_on,0,0,1,,,,,,,,0,,,70,67
80220,note_on,60,0,1,,,,,,,,0,,,73,0
80220,note_on,0,0,1,,,,,,,,0,,,73,67
80280,note_on,0,0,1,,,,,,,,0,,,77,67
80280,note_on,0,0,1,,,,,,,,0,,,73,0
80280,note_on,0,0,1,,,,,,,,0,,,70,0
80280,note_on,60,0,1,,,,,,,,0,,,64,0
80280,note_on,0,0,2,,,,,,,,1,,,41,75
80280,note_on,60,0,2,,,,,,,,1,,,58,0
80280,note_on,0,0,2,,,,,,,,1,,,54,0
80280,note_on,0,0,2,,,,,,,,1,,,61,0
80340,note_on,0,0,1,,,,,,,,0,,,74,67
80340,note_on,0,0,2,,,,,,,,1,,,62,75
80340,note_on,0,0,2,,,,,,,,1,,,53,75
80340,note_on,60,0,2,,,,,,,,1,,,41,0
80340,note_on,60,0,1,,,,,,,,0,,,77,0
80340,note_on,0,0,1,,,,,,,,0,,,65,67
80340,note_on,0,0,2,,,,,,,,1,,,58,75
80340,note_on,0,0,1,,,,,,,,0,,,70,67
80400,note_on,0,0,1,,,,,,,,0,,,65,0
80400,note_on,0,0,1,,,,,,,,0,,,70,0
80400,note_on,0,0,1,,,,,,,,0,,,65,67
80400,note_on,0,0,1,,,,,,,,0,,,70,67
80400,note_on,0,0,1,,,,,,,,0,,,74,67
80400,note_on,0,0,2,,,,,,,,1,,,62,75
80400,note_on,0,0,2,,,,,,,,1,,,53,75
80400,note_on,0,0,2,,,,,,,,1,,,53,0
80400,note_on,0,0,2,,,,,,,,1,,,62,0
80400,note_on,60,0,2,,,,,,,,1,,,58,0
80400,note_on,60,0,1,,,,,,,,0,,,74,0
80400,note_on,0,0,2,,,,,,,,1,,,58,75
80460,note_on,60,0,1,,,,,,,,0,,,74,0
80460,note_on,0,0,2,,,,,,,,1,,,62,0
80460,note_on,0,0,1,,,,,,,,0,,,70,0
80460,note_on,0,0,2,,,,,,,,1,,,41,75
80460,note_on,0,0,1,,,,,,,,0,,,82,67
80460,note_on,0,0,1,,,,,,,,0,,,65,0
80460,note_on,60,0,2,,,,,,,,1,,,58,0
80460,note_on,0,0,2,,,,,,,,1,,,53,0
80520,note_on,0,0,1,,,,,,,,0,,,74,67
80520,note_on,60,0,1,,,,,,,,0,,,82,0
80520,note_on,60,0,2,,,,,,,,1,,,41,0
80520,note_on,0,0,1,,,,,,,,0,,,70,67
80520,note_on,0,0,1,,,,,,,,0,,,77,67
80520,note_on,0,0,2,,,,,,,,1,,,62,73
80520,note_on,0,0,2,,,,,,,,1,,,53,73
80520,note_on,0,0,2,,,,,,,,1,,,58,73
80580,note_on,0,0,2,,,,,,,,1,,,53,72
80580,note_on,0,0,2,,,,,,,,1,,,58,72
80580,note_on,0,0,2,,,,,,,,1,,,62,72
80580,note_on,0,0,2,,,,,,,,1,,,62,0
80580,note_on,0,0,2,,,,,,,,1,,,58,0
80580,note_on,60,0,2,,,,,,,,1,,,53,0
80580,note_on,60,0,1,,,,,,,,0,,,77,0
80580,note_on,0,0,1,,,,,,,,0,,,70,0
80580,note_on,0,0,1,,,,,,,,0,,,70,67
80580,note_on,0,0,1,,,,,,,,0,,,74,67
80580,note_on,0,0,1,,,,,,,,0,,,77,67
80580,note_on,0,0,1,,,,,,,,0,,,74,0
80640,note_on,0,0,2,,,,,,,,1,,,62,0
80640,note_on,60,0,1,,,,,,,,0,,,77,0
80640,note_on,0,0,1,,,,,,,,0,,,74,0
80640,note_on,0,0,1,,,,,,,,0,,,86,67
80640,note_on,60,0,2,,,,,,,,1,,,53,0
80640,note_on,0,0,2,,,,,,,,1,,,58,0
80640,note_on,0,0,2,,,,,,,,1,,,53,72
80640,note_on,0,0,1,,,,,,,,0,,,70,0
80700,note_on,0,0,1,,,,,,,,0,,,74,67
80700,note_on,0,0,1,,,,,,,,0,,,77,67
80700,note_on,60,0,2,,,,,,,,1,,,53,0
80700,note_on,0,0,2,,,,,,,,1,,,65,72
80700,note_on,0,0,2,,,,,,,,1,,,62,72
80700,note_on,60,0,1,,,,,,,,0,,,86,0
80700,note_on,0,0,2,,,,,,,,1,,,58,72
80700,note_on,0,0,1,,,,,,,,0,,,82,67
80760,note_on,0,0,1,,,,,,,,0,,,77,66
80760,note_on,0,0,1,,,,,,,,0,,,74,66
80760,note_on,60,0,2,,,,,,,,1,,,58,0
80760,note_on,0,0,2,,,,,,,,1,,,62,0
80760,note_on,0,0,2,,,,,,,,1,,,65,0
80760,note_on,0,0,2,,,,,,,,1,,,65,72
80760,note_on,0,0,2,,,,,,,,1,,,58,72
80760,note_on,0,0,2,,,,,,,,1,,,62,72
80760,note_on,0,0,1,,,,,,,,0,,,82,0
80760,note_on,60,0,1,,,,,,,,0,,,77,0
80760,note_on,0,0,1,,,,,,,,0,,,74,0
80760,note_on,0,0,1,,,,,,,,0,,,82,66
80820,note_on,0,0,1,,,,,,,,0,,,89,66
80820,note_on,0,0,1,,,,,,,,0,,,82,0
80820,note_on,0,0,1,,,,,,,,0,,,74,0
80820,note_on,60,0,1,,,,,,,,0,,,77,0
80820,note_on,0,0,2,,,,,,,,1,,,53,72
80820,note_on,60,0,2,,,,,,,,1,,,58,0
80820,note_on,0,0,2,,,,,,,,1,,,62,0
80820,note_on,0,0,2,,,,,,,,1,,,65,0
80880,note_on,60,0,2,,,,,,,,1,,,53,0
80880,note_on,0,0,2,,,,,,,,1,,,62,72
80880,note_on,0,0,1,,,,,,,,0,,,82,66
80880,note_on,0,0,2,,,,,,,,1,,,65,72
80880,note_on,60,0,1,,,,,,,,0,,,89,0
80880,note_on,0,0,1,,,,,,,,0,,,77,66
80880,note_on,0,0,2,,,,,,,,1,,,58,72
80880,note_on,0,0,1,,,,,,,,0,,,86,66
80940,note_on,0,0,2,,,,,,,,1,,,62,72
80940,note_on,0,0,1,,,,,,,,0,,,82,0
80940,note_on,0,0,1,,,,,,,,0,,,77,0
80940,note_on,0,0,1,,,,,,,,0,,,77,66
80940,note_on,0,0,1,,,,,,,,0,,,82,66
80940,note_on,0,0,2,,,,,,,,1,,,58,72
80940,note_on,0,0,1,,,,,,,,0,,,86,66
80940,note_on,60,0,2,,,,,,,,1,,,58,0
80940,note_on,0,0,2,,,,,,,,1,,,62,0
80940,note_on,0,0,2,,,,,,,,1,,,65,0
80940,note_on,0,0,2,,,,,,,,1,,,65,72
80940,note_on,60,0,1,,,,,,,,0,,,86,0
81000,note_on,0,0,1,,,,,,,,0,,,82,0
81000,note_on,60,0,1,,,,,,,,0,,,86,0
81000,note_on,0,0,1,,,,,,,,0,,,74,66
81000,note_on,0,0,2,,,,,,,,1,,,53,72
81000,note_on,0,0,1,,,,,,,,0,,,77,0
81000,note_on,0,0,2,,,,,,,,1,,,58,72
81000,note_on,0,0,2,,,,,,,,1,,,62,72
81000,note_on,0,0,2,,,,,,,,1,,,65,72
81000,note_on,0,0,2,,,,,,,,1,,,65,0
81000,note_on,0,0,2,,,,,,,,1,,,62,0
81000,note_on,60,0,2,,,,,,,,1,,,58,0
81060,note_on,60,0,1,,,,,,,,0,,,74,0
81060,note_on,0,0,1,,,,,,,,0,,,89,66
81120,note_on,60,0,1,,,,,,,,0,,,89,0
81120,note_on,0,0,1,,,,,,,,0,,,86,66
81180,note_on,0,0,1,,,,,,,,0,,,82,66
81180,note_on,60,0,1,,,,,,,,0,,,86,0
81240,note_on,0,0,1,,,,,,,,0,,,77,66
81240,note_on,60,0,1,,,,,,,,0,,,82,0
81300,note_on,60,0,1,,,,,,,,0,,,77,0
81300,note_on,0,0,1,,,,,,,,0,,,74,66
81360,note_on,0,0,1,,,,,,,,0,,,69,66
81360,note_on,360,0,2,,,,,,,,1,,,53,0
81360,note_on,0,0,2,,,,,,,,1,,,65,0
81360,note_on,60,0,1,,,,,,,,0,,,74,0
81360,note_on,0,0,2,,,,,,,,1,,,58,0
81360,note_on,0,0,2,,,,,,,,1,,,53,73
81360,note_on,0,0,2,,,,,,,,1,,,57,73
81360,note_on,0,0,2,,,,,,,,1,,,60,73
81360,note_on,0,0,2,,,,,,,,1,,,62,0
81360,note_on,0,0,2,,,,,,,,1,,,62,73
81360,note_on,0,0,2,,,,,,,,1,,,65,73
81420,note_on,0,0,1,,,,,,,,0,,,87,66
81420,note_on,60,0,1,,,,,,,,0,,,69,0
81480,note_on,0,0,1,,,,,,,,0,,,84,66
81480,note_on,60,0,1,,,,,,,,0,,,87,0
81540,note_on,60,0,1,,,,,,,,0,,,84,0
81540,note_on,0,0,1,,,,,,,,0,,,81,66
81600,note_on,60,0,1,,,,,,,,0,,,81,0
81600,note_on,0,0,1,,,,,,,,0,,,77,66
81660,note_on,60,0,1,,,,,,,,0,,,77,0
81660,note_on,0,0,1,,,,,,,,0,,,75,66
81720,note_on,0,0,1,,,,,,,,0,,,74,83
81720,note_on,0,0,2,,,,,,,,1,,,58,95
81720,note_on,60,0,1,,,,,,,,0,,,75,0
81720,note_on,0,0,2,,,,,,,,1,,,62,95
81720,note_on,0,0,2,,,,,,,,1,,,53,95
81720,note_on,0,0,2,,,,,,,,1,,,50,95
81720,note_on,0,0,2,,,,,,,,1,,,57,0
81720,note_on,360,0,2,,,,,,,,1,,,53,0
81720,note_on,0,0,2,,,,,,,,1,,,60,0
81720,note_on,0,0,2,,,,,,,,1,,,65,0
81720,note_on,0,0,2,,,,,,,,1,,,62,0
81780,note_on,60,0,1,,,,,,,,0,,,74,0
81780,note_on,0,0,1,,,,,,,,0,,,89,85
81810,note_on,0,0,1,,,,,,,,0,,,87,85
81810,note_on,30,0,1,,,,,,,,0,,,89,0
81840,note_on,0,0,1,,,,,,,,0,,,86,85
81840,note_on,30,0,1,,,,,,,,0,,,87,0
81840,note_on,0,0,2,,,,,,,,1,,,53,0
81840,note_on,120,0,2,,,,,,,,1,,,58,0
81840,note_on,0,0,2,,,,,,,,1,,,50,0
81840,note_on,0,0,2,,,,,,,,1,,,62,0
81870,note_on,30,0,1,,,,,,,,0,,,86,0
81870,note_on,0,0,1,,,,,,,,0,,,84,85
81900,note_on,30,0,1,,,,,,,,0,,,84,0
81900,note_on,0,0,1,,,,,,,,0,,,82,86
81930,note_on,30,0,1,,,,,,,,0,,,82,0
81930,note_on,0,0,1,,,,,,,,0,,,81,86
81960,note_on,30,0,1,,,,,,,,0,,,81,0
81960,note_on,0,0,1,,,,,,,,0,,,79,86
81990,note_on,30,0,1,,,,,,,,0,,,79,0
81990,note_on,0,0,1,,,,,,,,0,,,77,86
82020,note_on,0,0,1,,,,,,,,0,,,75,86
82020,note_on,30,0,1,,,,,,,,0,,,77,0
82050,note_on,30,0,1,,,,,,,,0,,,75,0
82050,note_on,0,0,1,,,,,,,,0,,,74,87
82080,note_on,0,0,1,,,,,,,,0,,,72,87
82080,note_on,240,0,2,,,,,,,,1,,,51,95
82080,note_on,0,0,2,,,,,,,,1,,,55,95
82080,note_on,0,0,2,,,,,,,,1,,,60,95
82080,note_on,30,0,1,,,,,,,,0,,,74,0
82140,note_on,0,0,1,,,,,,,,0,,,79,87
82140,note_on,60,0,1,,,,,,,,0,,,72,0
82170,note_on,30,0,1,,,,,,,,0,,,79,0
82170,note_on,0,0,1,,,,,,,,0,,,77,87
82200,note_on,120,0,2,,,,,,,,1,,,60,0
82200,note_on,0,0,2,,,,,,,,1,,,51,0
82200,note_on,0,0,2,,,,,,,,1,,,55,0
82200,note_on,30,0,1,,,,,,,,0,,,77,0
82200,note_on,0,0,1,,,,,,,,0,,,75,87
82230,note_on,30,0,1,,,,,,,,0,,,75,0
82230,note_on,0,0,1,,,,,,,,0,,,74,88
82260,note_on,30,0,1,,,,,,,,0,,,74,0
82260,note_on,0,0,1,,,,,,,,0,,,72,88
82290,note_on,30,0,1,,,,,,,,0,,,72,0
82290,note_on,0,0,1,,,,,,,,0,,,70,88
82320,note_on,0,0,1,,,,,,,,0,,,69,88
82320,note_on,30,0,1,,,,,,,,0,,,70,0
82350,note_on,0,0,1,,,,,,,,0,,,67,88
82350,note_on,30,0,1,,,,,,,,0,,,69,0
82380,note_on,30,0,1,,,,,,,,0,,,67,0
82380,note_on,0,0,1,,,,,,,,0,,,65,88
82410,note_on,30,0,1,,,,,,,,0,,,65,0
82410,note_on,0,0,1,,,,,,,,0,,,63,88
82440,note_on,0,0,2,,,,,,,,1,,,53,95
82440,note_on,240,0,2,,,,,,,,1,,,58,95
82440,note_on,30,0,1,,,,,,,,0,,,63,0
82440,note_on,0,0,1,,,,,,,,0,,,62,88
82500,note_on,0,0,1,,,,,,,,0,,,65,88
82500,note_on,60,0,1,,,,,,,,0,,,62,0
82560,note_on,0,0,2,,,,,,,,1,,,58,0
82560,note_on,60,0,1,,,,,,,,0,,,65,0
82560,note_on,0,0,1,,,,,,,,0,,,70,88
82560,note_on,120,0,2,,,,,,,,1,,,53,0
82620,note_on,60,0,1,,,,,,,,0,,,70,0
82620,note_on,0,0,1,,,,,,,,0,,,74,88
82680,note_on,60,0,1,,,,,,,,0,,,74,0
82680,note_on,0,0,1,,,,,,,,0,,,77,88
82740,note_on,60,0,1,,,,,,,,0,,,77,0
82740,note_on,0,0,1,,,,,,,,0,,,82,90
82800,note_on,60,0,1,,,,,,,,0,,,82,0
82800,note_on,0,0,1,,,,,,,,0,,,70,90
82800,note_on,0,0,1,,,,,,,,0,,,74,90
82800,note_on,0,0,1,,,,,,,,0,,,77,90
82800,note_on,240,0,2,,,,,,,,1,,,53,95
82800,note_on,0,0,2,,,,,,,,1,,,65,95
82860,note_on,0,0,1,,,,,,,,0,,,74,0
82860,note_on,0,0,1,,,,,,,,0,,,70,0
82860,note_on,0,0,1,,,,,,,,0,,,82,90
82860,note_on,60,0,2,,,,,,,,1,,,65,0
82860,note_on,60,0,1,,,,,,,,0,,,77,0
82860,note_on,0,0,2,,,,,,,,1,,,53,0
82860,note_on,0,0,2,,,,,,,,1,,,53,95
82860,note_on,0,0,2,,,,,,,,1,,,65,95
82920,note_on,0,0,2,,,,,,,,1,,,53,95
82920,note_on,0,0,2,,,,,,,,1,,,65,95
82920,note_on,0,0,2,,,,,,,,1,,,53,0
82920,note_on,60,0,2,,,,,,,,1,,,65,0
82920,note_on,60,0,1,,,,,,,,0,,,82,0
82920,note_on,0,0,1,,,,,,,,0,,,70,90
82920,note_on,0,0,1,,,,,,,,0,,,77,90
82920,note_on,0,0,1,,,,,,,,0,,,74,90
82980,note_on,0,0,2,,,,,,,,1,,,65,0
82980,note_on,60,0,1,,,,,,,,0,,,77,0
82980,note_on,0,0,1,,,,,,,,0,,,74,0
82980,note_on,0,0,1,,,,,,,,0,,,70,0
82980,note_on,0,0,1,,,,,,,,0,,,82,90
82980,note_on,0,0,2,,,,,,,,1,,,53,95
82980,note_on,60,0,2,,,,,,,,1,,,53,0
82980,note_on,0,0,2,,,,,,,,1,,,65,95
83040,note_on,0,0,1,,,,,,,,0,,,77,90
83040,note_on,0,0,1,,,,,,,,0,,,74,90
83040,note_on,0,0,1,,,,,,,,0,,,70,90
83040,note_on,60,0,1,,,,,,,,0,,,82,0
83040,note_on,60,0,2,,,,,,,,1,,,65,0
83040,note_on,0,0,2,,,,,,,,1,,,53,0
83040,note_on,0,0,2,,,,,,,,1,,,65,95
83040,note_on,0,0,2,,,,,,,,1,,,53,95
83100,note_on,0,0,2,,,,,,,,1,,,53,0
83100,note_on,0,0,1,,,,,,,,0,,,82,90
83100,note_on,0,0,1,,,,,,,,0,,,70,0
83100,note_on,0,0,1,,,,,,,,0,,,74,0
83100,note_on,60,0,1,,,,,,,,0,,,77,0
83100,note_on,60,0,2,,,,,,,,1,,,65,0
83100,note_on,0,0,2,,,,,,,,1,,,53,95
83100,note_on,0,0,2,,,,,,,,1,,,65,95
83160,note_on,0,0,1,,,,,,,,0,,,75,90
83160,note_on,0,0,1,,,,,,,,0,,,77,90
83160,note_on,0,0,1,,,,,,,,0,,,72,90
83160,note_on,0,0,2,,,,,,,,1,,,65,0
83160,note_on,0,0,2,,,,,,,,1,,,65,95
83160,note_on,0,0,2,,,,,,,,1,,,53,95
83160,note_on,60,0,2,,,,,,,,1,,,53,0
83160,note_on,60,0,1,,,,,,,,0,,,82,0
83220,note_on,60,0,2,,,,,,,,1,,,53,0
83220,note_on,0,0,2,,,,,,,,1,,,65,0
83220,note_on,0,0,1,,,,,,,,0,,,81,90
83220,note_on,0,0,1,,,,,,,,0,,,72,0
83220,note_on,0,0,1,,,,,,,,0,,,75,0
83220,note_on,60,0,1,,,,,,,,0,,,77,0
83220,note_on,0,0,2,,,,,,,,1,,,53,95
83220,note_on,0,0,2,,,,,,,,1,,,65,95
83280,note_on,0,0,2,,,,,,,,1,,,53,0
83280,note_on,0,0,1,,,,,,,,0,,,75,91
83280,note_on,0,0,2,,,,,,,,1,,,65,95
83280,note_on,0,0,1,,,,,,,,0,,,72,91
83280,note_on,0,0,2,,,,,,,,1,,,53,95
83280,note_on,60,0,2,,,,,,,,1,,,65,0
83280,note_on,60,0,1,,,,,,,,0,,,81,0
83280,note_on,0,0,1,,,,,,,,0,,,77,91
83340,note_on,0,0,2,,,,,,,,1,,,65,0
83340,note_on,60,0,1,,,,,,,,0,,,72,0
83340,note_on,0,0,2,,,,,,,,1,,,53,95
83340,note_on,0,0,1,,,,,,,,0,,,81,91
83340,note_on,0,0,2,,,,,,,,1,,,65,95
83340,note_on,60,0,2,,,,,,,,1,,,53,0
83340,note_on,0,0,1,,,,,,,,0,,,75,0
83340,note_on,0,0,1,,,,,,,,0,,,77,0
83400,note_on,0,0,2,,,,,,,,1,,,65,95
83400,note_on,0,0,2,,,,,,,,1,,,53,95
83400,note_on,0,0,2,,,,,,,,1,,,65,0
83400,note_on,60,0,1,,,,,,,,0,,,81,0
83400,note_on,0,0,1,,,,,,,,0,,,75,91
83400,note_on,0,0,1,,,,,,,,0,,,72,91
83400,note_on,0,0,1,,,,,,,,0,,,77,91
83400,note_on,60,0,2,,,,,,,,1,,,53,0
83460,note_on,0,0,1,,,,,,,,0,,,81,91
83460,note_on,0,0,1,,,,,,,,0,,,72,0
83460,note_on,60,0,1,,,,,,,,0,,,75,0
83460,note_on,60,0,2,,,,,,,,1,,,65,0
83460,note_on,0,0,2,,,,,,,,1,,,53,0
83460,note_on,0,0,2,,,,,,,,1,,,53,95
83460,note_on,0,0,2,,,,,,,,1,,,65,95
83460,note_on,0,0,1,,,,,,,,0,,,77,0
83520,note_on,0,0,2,,,,,,,,1,,,58,95
83520,note_on,60,0,2,,,,,,,,1,,,65,0
83520,note_on,0,0,2,,,,,,,,1,,,53,0
83520,note_on,60,0,1,,,,,,,,0,,,81,0
83520,note_on,0,0,1,,,,,,,,0,,,74,91
83520,note_on,0,0,1,,,,,,,,0,,,77,91
83520,note_on,0,0,1,,,,,,,,0,,,82,91
83550,note_on,0,0,2,,,,,,,,1,,,57,95
83550,note_on,30,0,2,,,,,,,,1,,,58,0
83580,note_on,0,0,2,,,,,,,,1,,,58,95
83580,note_on,30,0,2,,,,,,,,1,,,57,0
83610,note_on,0,0,2,,,,,,,,1,,,60,95
83610,note_on,30,0,2,,,,,,,,1,,,58,0
83640,note_on,120,0,1,,,,,,,,0,,,82,0
83640,note_on,0,0,2,,,,,,,,1,,,62,95
83640,note_on,0,0,1,,,,,,,,0,,,82,91
83640,note_on,0,0,1,,,,,,,,0,,,77,91
83640,note_on,0,0,1,,,,,,,,0,,,74,91
83640,note_on,0,0,1,,,,,,,,0,,,74,0
83640,note_on,0,0,1,,,,,,,,0,,,77,0
83640,note_on,30,0,2,,,,,,,,1,,,60,0
83670,note_on,0,0,2,,,,,,,,1,,,63,95
83670,note_on,30,0,2,,,,,,,,1,,,62,0
83700,note_on,60,0,1,,,,,,,,0,,,82,0
83700,note_on,0,0,1,,,,,,,,0,,,77,0
83700,note_on,0,0,1,,,,,,,,0,,,74,0
83700,note_on,0,0,1,,,,,,,,0,,,81,91
83700,note_on,0,0,1,,,,,,,,0,,,72,91
83700,note_on,0,0,1,,,,,,,,0,,,77,91
83700,note_on,0,0,2,,,,,,,,1,,,65,95
83700,note_on,30,0,2,,,,,,,,1,,,63,0
83730,note_on,30,0,2,,,,,,,,1,,,65,0
83730,note_on,0,0,2,,,,,,,,1,,,67,95
83760,note_on,0,0,2,,,,,,,,1,,,65,95
83760,note_on,30,0,2,,,,,,,,1,,,67,0
83790,note_on,0,0,2,,,,,,,,1,,,63,95
83790,note_on,30,0,2,,,,,,,,1,,,65,0
83820,note_on,0,0,2,,,,,,,,1,,,62,95
83820,note_on,30,0,2,,,,,,,,1,,,63,0
83820,note_on,0,0,1,,,,,,,,0,,,81,91
83820,note_on,0,0,1,,,,,,,,0,,,77,91
83820,note_on,0,0,1,,,,,,,,0,,,72,91
83820,note_on,0,0,1,,,,,,,,0,,,72,0
83820,note_on,0,0,1,,,,,,,,0,,,77,0
83820,note_on,120,0,1,,,,,,,,0,,,81,0
83850,note_on,0,0,2,,,,,,,,1,,,60,95
83850,note_on,30,0,2,,,,,,,,1,,,62,0
83880,note_on,0,0,1,,,,,,,,0,,,77,90
83880,note_on,0,0,1,,,,,,,,0,,,82,90
83880,note_on,0,0,1,,,,,,,,0,,,77,0
83880,note_on,60,0,1,,,,,,,,0,,,81,0
83880,note_on,0,0,2,,,,,,,,1,,,58,95
83880,note_on,30,0,2,,,,,,,,1,,,60,0
83880,note_on,0,0,1,,,,,,,,0,,,72,0
83880,note_on,0,0,1,,,,,,,,0,,,74,90
83910,note_on,0,0,2,,,,,,,,1,,,57,95
83910,note_on,30,0,2,,,,,,,,1,,,58,0
83940,note_on,30,0,2,,,,,,,,1,,,57,0
83940,note_on,0,0,2,,,,,,,,1,,,58,95
83970,note_on,30,0,2,,,,,,,,1,,,58,0
83970,note_on,0,0,2,,,,,,,,1,,,60,95
84000,note_on,0,0,1,,,,,,,,0,,,77,0
84000,note_on,30,0,2,,,,,,,,1,,,60,0
84000,note_on,0,0,2,,,,,,,,1,,,62,95
84000,note_on,0,0,1,,,,,,,,0,,,82,90
84000,note_on,0,0,1,,,,,,,,0,,,77,90
84000,note_on,0,0,1,,,,,,,,0,,,74,90
84000,note_on,120,0,1,,,,,,,,0,,,74,0
84000,note_on,0,0,1,,,,,,,,0,,,82,0
84030,note_on,30,0,2,,,,,,,,1,,,62,0
84030,note_on,0,0,2,,,,,,,,1,,,63,95
84060,note_on,30,0,2,,,,,,,,1,,,63,0
84060,note_on,0,0,2,,,,,,,,1,,,65,95
84060,note_on,60,0,1,,,,,,,,0,,,77,0
84060,note_on,0,0,1,,,,,,,,0,,,82,0
84060,note_on,0,0,1,,,,,,,,0,,,74,0
84060,note_on,0,0,1,,,,,,,,0,,,77,90
84060,note_on,0,0,1,,,,,,,,0,,,72,90
84060,note_on,0,0,1,,,,,,,,0,,,81,90
84090,note_on,30,0,2,,,,,,,,1,,,65,0
84090,note_on,0,0,2,,,,,,,,1,,,67,95
84120,note_on,30,0,2,,,,,,,,1,,,67,0
84120,note_on,0,0,2,,,,,,,,1,,,65,95
84150,note_on,0,0,2,,,,,,,,1,,,63,95
84150,note_on,30,0,2,,,,,,,,1,,,65,0
84180,note_on,120,0,1,,,,,,,,0,,,81,0
84180,note_on,0,0,1,,,,,,,,0,,,72,0
84180,note_on,30,0,2,,,,,,,,1,,,63,0
84180,note_on,0,0,1,,,,,,,,0,,,77,0
84180,note_on,0,0,1,,,,,,,,0,,,72,88
84180,note_on,0,0,1,,,,,,,,0,,,81,88
84180,note_on,0,0,1,,,,,,,,0,,,77,88
84180,note_on,0,0,2,,,,,,,,1,,,62,95
84210,note_on,30,0,2,,,,,,,,1,,,62,0
84210,note_on,0,0,2,,,,,,,,1,,,60,95
84240,note_on,0,0,1,,,,,,,,0,,,72,0
84240,note_on,0,0,1,,,,,,,,0,,,81,0
84240,note_on,0,0,2,,,,,,,,1,,,58,110
84240,note_on,30,0,2,,,,,,,,1,,,60,0
84240,note_on,0,0,1,,,,,,,,0,,,70,88
84240,note_on,60,0,1,,,,,,,,0,,,77,0
84270,note_on,30,0,1,,,,,,,,0,,,70,0
84270,note_on,0,0,1,,,,,,,,0,,,82,88
84300,note_on,30,0,1,,,,,,,,0,,,82,0
84300,note_on,0,0,1,,,,,,,,0,,,70,88
84330,note_on,0,0,1,,,,,,,,0,,,82,88
84330,note_on,30,0,1,,,,,,,,0,,,70,0
84360,note_on,120,0,2,,,,,,,,1,,,58,0
84360,note_on,30,0,1,,,,,,,,0,,,82,0
84360,note_on,0,0,1,,,,,,,,0,,,70,88
84390,note_on,30,0,1,,,,,,,,0,,,70,0
84390,note_on,0,0,1,,,,,,,,0,,,82,88
84420,note_on,0,0,1,,,,,,,,0,,,70,88
84420,note_on,30,0,1,,,,,,,,0,,,82,0
84450,note_on,30,0,1,,,,,,,,0,,,70,0
84450,note_on,0,0,1,,,,,,,,0,,,82,88
84480,note_on,30,0,1,,,,,,,,0,,,82,0
84480,note_on,0,0,1,,,,,,,,0,,,70,88
84510,note_on,30,0,1,,,,,,,,0,,,70,0
84510,note_on,0,0,1,,,,,,,,0,,,82,88
84540,note_on,30,0,1,,,,,,,,0,,,82,0
84540,note_on,0,0,1,,,,,,,,0,,,70,88
84570,note_on,30,0,1,,,,,,,,0,,,70,0
84570,note_on,0,0,1,,,,,,,,0,,,82,88
84600,note_on,0,0,1,,,,,,,,0,,,70,88
84600,note_on,30,0,1,,,,,,,,0,,,82,0
84600,note_on,240,0,2,,,,,,,,1,,,65,101
84600,note_on,0,0,2,,,,,,,,1,,,68,101
84630,note_on,0,0,1,,,,,,,,0,,,82,88
84630,note_on,30,0,1,,,,,,,,0,,,70,0
84660,note_on,0,0,1,,,,,,,,0,,,70,88
84660,note_on,0,0,2,,,,,,,,1,,,67,101
84660,note_on,30,0,1,,,,,,,,0,,,82,0
84660,note_on,0,0,2,,,,,,,,1,,,63,101
84660,note_on,60,0,2,,,,,,,,1,,,68,0
84660,note_on,0,0,2,,,,,,,,1,,,65,0
84690,note_on,0,0,1,,,,,,,,0,,,82,88
84690,note_on,30,0,1,,,,,,,,0,,,70,0
84720,note_on,0,0,1,,,,,,,,0,,,70,88
84720,note_on,30,0,1,,,,,,,,0,,,82,0
84720,note_on,60,0,2,,,,,,,,1,,,67,0
84720,note_on,0,0,2,,,,,,,,1,,,65,101
84720,note_on,0,0,2,,,,,,,,1,,,63,0
84720,note_on,0,0,2,,,,,,,,1,,,58,101
84750,note_on,30,0,1,,,,,,,,0,,,70,0
84750,note_on,0,0,1,,,,,,,,0,,,82,88
84780,note_on,0,0,2,,,,,,,,1,,,58,0
84780,note_on,60,0,2,,,,,,,,1,,,65,0
84780,note_on,0,0,2,,,,,,,,1,,,65,101
84780,note_on,30,0,1,,,,,,,,0,,,82,0
84780,note_on,0,0,1,,,,,,,,0,,,70,88
84780,note_on,0,0,2,,,,,,,,1,,,58,101
84810,note_on,0,0,1,,,,,,,,0,,,82,88
84810,note_on,30,0,1,,,,,,,,0,,,70,0
84840,note_on,0,0,1,,,,,,,,0,,,70,85
84840,note_on,30,0,1,,,,,,,,0,,,82,0
84870,note_on,30,0,1,,,,,,,,0,,,70,0
84870,note_on,0,0,1,,,,,,,,0,,,82,85
84900,note_on,30,0,1,,,,,,,,0,,,82,0
84900,note_on,0,0,1,,,,,,,,0,,,70,85
84900,note_on,120,0,2,,,,,,,,1,,,65,0
84900,note_on,0,0,2,,,,,,,,1,,,58,0
84930,note_on,0,0,1,,,,,,,,0,,,82,85
84930,note_on,30,0,1,,,,,,,,0,,,70,0
84960,note_on,0,0,2,,,,,,,,1,,,67,101
84960,note_on,60,0,2,,,,,,,,1,,,63,101
84960,note_on,0,0,1,,,,,,,,0,,,70,85
84960,note_on,30,0,1,,,,,,,,0,,,82,0
84990,note_on,0,0,1,,,,,,,,0,,,82,85
84990,note_on,30,0,1,,,,,,,,0,,,70,0
85020,note_on,0,0,2,,,,,,,,1,,,63,0
85020,note_on,0,0,2,,,,,,,,1,,,58,101
85020,note_on,0,0,1,,,,,,,,0,,,70,85
85020,note_on,0,0,2,,,,,,,,1,,,65,101
85020,note_on,60,0,2,,,,,,,,1,,,67,0
85020,note_on,30,0,1,,,,,,,,0,,,82,0
85050,note_on,30,0,1,,,,,,,,0,,,70,0
85050,note_on,0,0,1,,,,,,,,0,,,82,85
85080,note_on,30,0,1,,,,,,,,0,,,82,0
85080,note_on,0,0,1,,,,,,,,0,,,70,85
85080,note_on,60,0,2,,,,,,,,1,,,65,0
85080,note_on,0,0,2,,,,,,,,1,,,58,0
85080,note_on,0,0,2,,,,,,,,1,,,55,101
85080,note_on,0,0,2,,,,,,,,1,,,63,101
85110,note_on,30,0,1,,,,,,,,0,,,70,0
85110,note_on,0,0,1,,,,,,,,0,,,82,84
85140,note_on,0,0,2,,,,,,,,1,,,63,101
85140,note_on,60,0,2,,,,,,,,1,,,63,0
85140,note_on,0,0,2,,,,,,,,1,,,55,0
85140,note_on,0,0,2,,,,,,,,1,,,55,101
85140,note_on,0,0,1,,,,,,,,0,,,70,84
85140,note_on,30,0,1,,,,,,,,0,,,82,0
85170,note_on,30,0,1,,,,,,,,0,,,70,0
85170,note_on,0,0,1,,,,,,,,0,,,82,84
85200,note_on,30,0,1,,,,,,,,0,,,82,0
85200,note_on,0,0,1,,,,,,,,0,,,70,84
85230,note_on,30,0,1,,,,,,,,0,,,70,0
85230,note_on,0,0,1,,,,,,,,0,,,82,84
85260,note_on,0,0,2,,,,,,,,1,,,55,0
85260,note_on,30,0,1,,,,,,,,0,,,82,0
85260,note_on,0,0,2,,,,,,,,1,,,65,100
85260,note_on,0,0,2,,,,,,,,1,,,58,100
85260,note_on,120,0,2,,,,,,,,1,,,63,0
85260,note_on,0,0,1,,,,,,,,0,,,70,84
85290,note_on,30,0,1,,,,,,,,0,,,70,0
85290,note_on,0,0,1,,,,,,,,0,,,82,84
85320,note_on,0,0,2,,,,,,,,1,,,67,100
85320,note_on,30,0,1,,,,,,,,0,,,82,0
85320,note_on,0,0,2,,,,,,,,1,,,58,0
85320,note_on,0,0,2,,,,,,,,1,,,63,100
85320,note_on,0,0,1,,,,,,,,0,,,70,84
85320,note_on,60,0,2,,,,,,,,1,,,65,0
85350,note_on,30,0,1,,,,,,,,0,,,70,0
85350,note_on,0,0,1,,,,,,,,0,,,82,84
85380,note_on,0,0,1,,,,,,,,0,,,70,84
85380,note_on,30,0,1,,,,,,,,0,,,82,0
85410,note_on,0,0,1,,,,,,,,0,,,82,84
85410,note_on,30,0,1,,,,,,,,0,,,70,0
85440,note_on,30,0,1,,,,,,,,0,,,82,0
85440,note_on,0,0,1,,,,,,,,0,,,70,84
85440,note_on,0,0,2,,,,,,,,1,,,65,99
85440,note_on,0,0,2,,,,,,,,1,,,58,99
85440,note_on,0,0,2,,,,,,,,1,,,63,0
85440,note_on,120,0,2,,,,,,,,1,,,67,0
85470,note_on,30,0,1,,,,,,,,0,,,70,0
85470,note_on,0,0,1,,,,,,,,0,,,82,82
85500,note_on,0,0,2,,,,,,,,1,,,63,99
85500,note_on,0,0,2,,,,,,,,1,,,67,99
85500,note_on,60,0,2,,,,,,,,1,,,65,0
85500,note_on,0,0,2,,,,,,,,1,,,58,0
85500,note_on,30,0,1,,,,,,,,0,,,82,0
85500,note_on,0,0,1,,,,,,,,0,,,70,82
85530,note_on,30,0,1,,,,,,,,0,,,70,0
85530,note_on,0,0,1,,,,,,,,0,,,82,82
85560,note_on,30,0,1,,,,,,,,0,,,82,0
85560,note_on,0,0,1,,,,,,,,0,,,70,82
85590,note_on,30,0,1,,,,,,,,0,,,70,0
85590,note_on,0,0,1,,,,,,,,0,,,82,82
85620,note_on,30,0,1,,,,,,,,0,,,82,0
85620,note_on,0,0,2,,,,,,,,1,,,63,0
85620,note_on,0,0,2,,,,,,,,1,,,65,98
85620,note_on,0,0,2,,,,,,,,1,,,68,98
85620,note_on,0,0,1,,,,,,,,0,,,70,82
85620,note_on,120,0,2,,,,,,,,1,,,67,0
85650,note_on,30,0,1,,,,,,,,0,,,70,0
85650,note_on,0,0,1,,,,,,,,0,,,82,82
85680,note_on,60,0,2,,,,,,,,1,,,68,0
85680,note_on,0,0,2,,,,,,,,1,,,65,0
85680,note_on,0,0,2,,,,,,,,1,,,58,98
85680,note_on,0,0,2,,,,,,,,1,,,65,98
85680,note_on,0,0,1,,,,,,,,0,,,70,82
85680,note_on,30,0,1,,,,,,,,0,,,82,0
85710,note_on,0,0,1,,,,,,,,0,,,82,82
85710,note_on,30,0,1,,,,,,,,0,,,70,0
85740,note_on,0,0,1,,,,,,,,0,,,70,82
85740,note_on,30,0,1,,,,,,,,0,,,82,0
85770,note_on,30,0,1,,,,,,,,0,,,70,0
85770,note_on,0,0,1,,,,,,,,0,,,82,81
85800,note_on,0,0,1,,,,,,,,0,,,70,81
85800,note_on,30,0,1,,,,,,,,0,,,82,0
85830,note_on,30,0,1,,,,,,,,0,,,70,0
85830,note_on,0,0,1,,,,,,,,0,,,82,81
85860,note_on,180,0,2,,,,,,,,1,,,65,0
85860,note_on,0,0,1,,,,,,,,0,,,70,81
85860,note_on,0,0,2,,,,,,,,1,,,58,0
85860,note_on,30,0,1,,,,,,,,0,,,82,0
85890,note_on,30,0,1,,,,,,,,0,,,70,0
85890,note_on,0,0,1,,,,,,,,0,,,82,81
85920,note_on,30,0,1,,,,,,,,0,,,82,0
85920,note_on,0,0,1,,,,,,,,0,,,70,81
85950,note_on,30,0,1,,,,,,,,0,,,70,0
85950,note_on,0,0,1,,,,,,,,0,,,82,81
85980,note_on,30,0,1,,,,,,,,0,,,82,0
85980,note_on,0,0,1,,,,,,,,0,,,70,81
86010,note_on,30,0,1,,,,,,,,0,,,70,0
86010,note_on,0,0,1,,,,,,,,0,,,82,81
86040,note_on,0,0,2,,,,,,,,1,,,68,97
86040,note_on,180,0,2,,,,,,,,1,,,65,97
86040,note_on,0,0,1,,,,,,,,0,,,70,80
86040,note_on,30,0,1,,,,,,,,0,,,82,0
86070,note_on,30,0,1,,,,,,,,0,,,70,0
86070,note_on,0,0,1,,,,,,,,0,,,82,80
86100,note_on,30,0,1,,,,,,,,0,,,82,0
86100,note_on,0,0,1,,,,,,,,0,,,70,80
86100,note_on,0,0,2,,,,,,,,1,,,63,97
86100,note_on,60,0,2,,,,,,,,1,,,68,0
86100,note_on,0,0,2,,,,,,,,1,,,65,0
86100,note_on,0,0,2,,,,,,,,1,,,67,97
86130,note_on,0,0,1,,,,,,,,0,,,82,80
86130,note_on,30,0,1,,,,,,,,0,,,70,0
86160,note_on,60,0,2,,,,,,,,1,,,67,0
86160,note_on,30,0,1,,,,,,,,0,,,82,0
86160,note_on,0,0,1,,,,,,,,0,,,70,80
86160,note_on,0,0,2,,,,,,,,1,,,65,97
86160,note_on,0,0,2,,,,,,,,1,,,58,97
86160,note_on,0,0,2,,,,,,,,1,,,63,0
86190,note_on,0,0,1,,,,,,,,0,,,82,80
86190,note_on,30,0,1,,,,,,,,0,,,70,0
86220,note_on,30,0,1,,,,,,,,0,,,82,0
86220,note_on,60,0,2,,,,,,,,1,,,65,0
86220,note_on,0,0,2,,,,,,,,1,,,58,0
86220,note_on,0,0,2,,,,,,,,1,,,58,97
86220,note_on,0,0,2,,,,,,,,1,,,65,97
86220,note_on,0,0,1,,,,,,,,0,,,70,80
86250,note_on,0,0,1,,,,,,,,0,,,82,80
86250,note_on,30,0,1,,,,,,,,0,,,70,0
86280,note_on,30,0,1,,,,,,,,0,,,82,0
86280,note_on,0,0,1,,,,,,,,0,,,70,80
86310,note_on,0,0,1,,,,,,,,0,,,82,80
86310,note_on,30,0,1,,,,,,,,0,,,70,0
86340,note_on,0,0,2,,,,,,,,1,,,58,0
86340,note_on,120,0,2,,,,,,,,1,,,65,0
86340,note_on,0,0,1,,,,,,,,0,,,70,80
86340,note_on,30,0,1,,,,,,,,0,,,82,0
86370,note_on,0,0,1,,,,,,,,0,,,82,80
86370,note_on,30,0,1,,,,,,,,0,,,70,0
86400,note_on,60,0,2,,,,,,,,1,,,63,98
86400,note_on,0,0,2,,,,,,,,1,,,67,98
86400,note_on,30,0,1,,,,,,,,0,,,82,0
86400,note_on,0,0,1,,,,,,,,0,,,70,80
86430,note_on,30,0,1,,,,,,,,0,,,70,0
86430,note_on,0,0,1,,,,,,,,0,,,82,79
86460,note_on,0,0,2,,,,,,,,1,,,58,98
86460,note_on,0,0,2,,,,,,,,1,,,65,98
86460,note_on,60,0,2,,,,,,,,1,,,67,0
86460,note_on,0,0,1,,,,,,,,0,,,70,79
86460,note_on,0,0,2,,,,,,,,1,,,63,0
86460,note_on,30,0,1,,,,,,,,0,,,82,0
86490,note_on,0,0,1,,,,,,,,0,,,82,79
86490,note_on,30,0,1,,,,,,,,0,,,70,0
86520,note_on,0,0,1,,,,,,,,0,,,70,79
86520,note_on,30,0,1,,,,,,,,0,,,82,0
86520,note_on,0,0,2,,,,,,,,1,,,55,98
86520,note_on,0,0,2,,,,,,,,1,,,58,0
86520,note_on,60,0,2,,,,,,,,1,,,65,0
86520,note_on,0,0,2,,,,,,,,1,,,63,98
86550,note_on,30,0,1,,,,,,,,0,,,70,0
86550,note_on,0,0,1,,,,,,,,0,,,82,79
86580,note_on,60,0,2,,,,,,,,1,,,63,0
86580,note_on,0,0,2,,,,,,,,1,,,55,0
86580,note_on,0,0,2,,,,,,,,1,,,55,99
86580,note_on,0,0,2,,,,,,,,1,,,63,99
86580,note_on,0,0,1,,,,,,,,0,,,70,79
86580,note_on,30,0,1,,,,,,,,0,,,82,0
86610,note_on,0,0,1,,,,,,,,0,,,82,79
86610,note_on,30,0,1,,,,,,,,0,,,70,0
86640,note_on,0,0,1,,,,,,,,0,,,70,79
86640,note_on,30,0,1,,,,,,,,0,,,82,0
86670,note_on,0,0,1,,,,,,,,0,,,82,79
86670,note_on,30,0,1,,,,,,,,0,,,70,0
86700,note_on,0,0,2,,,,,,,,1,,,58,99
86700,note_on,30,0,1,,,,,,,,0,,,82,0
86700,note_on,0,0,1,,,,,,,,0,,,70,79
86700,note_on,120,0,2,,,,,,,,1,,,63,0
86700,note_on,0,0,2,,,,,,,,1,,,65,99
86700,note_on,0,0,2,,,,,,,,1,,,55,0
86730,note_on,30,0,1,,,,,,,,0,,,70,0
86730,note_on,0,0,1,,,,,,,,0,,,82,79
86760,note_on,0,0,1,,,,,,,,0,,,70,79
86760,note_on,30,0,1,,,,,,,,0,,,82,0
86760,note_on,0,0,2,,,,,,,,1,,,67,99
86760,note_on,0,0,2,,,,,,,,1,,,63,99
86760,note_on,0,0,2,,,,,,,,1,,,58,0
86760,note_on,60,0,2,,,,,,,,1,,,65,0
86790,note_on,0,0,1,,,,,,,,0,,,82,79
86790,note_on,30,0,1,,,,,,,,0,,,70,0
86820,note_on,0,0,1,,,,,,,,0,,,70,79
86820,note_on,30,0,1,,,,,,,,0,,,82,0
86850,note_on,0,0,1,,,,,,,,0,,,82,79
86850,note_on,30,0,1,,,,,,,,0,,,70,0
86880,note_on,0,0,2,,,,,,,,1,,,63,0
86880,note_on,0,0,1,,,,,,,,0,,,70,79
86880,note_on,30,0,1,,,,,,,,0,,,82,0
86880,note_on,0,0,2,,,,,,,,1,,,63,99
86880,note_on,120,0,2,,,,,,,,1,,,67,0
86880,note_on,0,0,2,,,,,,,,1,,,67,99
86910,note_on,0,0,1,,,,,,,,0,,,82,79
86910,note_on,30,0,1,,,,,,,,0,,,70,0
86940,note_on,60,0,2,,,,,,,,1,,,67,0
86940,note_on,0,0,1,,,,,,,,0,,,70,79
86940,note_on,0,0,2,,,,,,,,1,,,68,100
86940,note_on,0,0,2,,,,,,,,1,,,65,100
86940,note_on,0,0,2,,,,,,,,1,,,63,0
86940,note_on,30,0,1,,,,,,,,0,,,82,0
86970,note_on,0,0,1,,,,,,,,0,,,82,79
86970,note_on,30,0,1,,,,,,,,0,,,70,0
87000,note_on,0,0,1,,,,,,,,0,,,70,80
87000,note_on,30,0,1,,,,,,,,0,,,82,0
87030,note_on,30,0,1,,,,,,,,0,,,70,0
87030,note_on,0,0,1,,,,,,,,0,,,82,80
87060,note_on,0,0,1,,,,,,,,0,,,70,80
87060,note_on,30,0,1,,,,,,,,0,,,82,0
87060,note_on,0,0,2,,,,,,,,1,,,63,100
87060,note_on,0,0,2,,,,,,,,1,,,65,0
87060,note_on,120,0,2,,,,,,,,1,,,68,0
87060,note_on,0,0,2,,,,,,,,1,,,67,100
87090,note_on,30,0,1,,,,,,,,0,,,70,0
87090,note_on,0,0,1,,,,,,,,0,,,82,80
87120,note_on,60,0,2,,,,,,,,1,,,67,0
87120,note_on,0,0,1,,,,,,,,0,,,70,81
87120,note_on,0,0,2,,,,,,,,1,,,65,101
87120,note_on,0,0,2,,,,,,,,1,,,58,101
87120,note_on,30,0,1,,,,,,,,0,,,82,0
87120,note_on,0,0,2,,,,,,,,1,,,63,0
87150,note_on,0,0,1,,,,,,,,0,,,82,81
87150,note_on,30,0,1,,,,,,,,0,,,70,0
87180,note_on,30,0,1,,,,,,,,0,,,82,0
87180,note_on,0,0,1,,,,,,,,0,,,70,81
87210,note_on,30,0,1,,,,,,,,0,,,70,0
87210,note_on,0,0,1,,,,,,,,0,,,82,81
87240,note_on,30,0,1,,,,,,,,0,,,82,0
87240,note_on,0,0,1,,,,,,,,0,,,70,81
87270,note_on,30,0,1,,,,,,,,0,,,70,0
87270,note_on,0,0,1,,,,,,,,0,,,82,81
87300,note_on,0,0,2,,,,,,,,1,,,58,0
87300,note_on,30,0,1,,,,,,,,0,,,82,0
87300,note_on,180,0,2,,,,,,,,1,,,65,0
87300,note_on,0,0,1,,,,,,,,0,,,70,82
87330,note_on,0,0,1,,,,,,,,0,,,82,82
87330,note_on,30,0,1,,,,,,,,0,,,70,0
87360,note_on,0,0,1,,,,,,,,0,,,70,82
87360,note_on,30,0,1,,,,,,,,0,,,82,0
87390,note_on,0,0,1,,,,,,,,0,,,82,83
87390,note_on,30,0,1,,,,,,,,0,,,70,0
87420,note_on,0,0,1,,,,,,,,0,,,68,83
87420,note_on,30,0,1,,,,,,,,0,,,82,0
87450,note_on,0,0,1,,,,,,,,0,,,80,83
87450,note_on,30,0,1,,,,,,,,0,,,68,0
87480,note_on,30,0,1,,,,,,,,0,,,80,0
87480,note_on,0,0,2,,,,,,,,1,,,65,103
87480,note_on,180,0,2,,,,,,,,1,,,62,103
87480,note_on,0,0,2,,,,,,,,1,,,59,103
87480,note_on,0,0,1,,,,,,,,0,,,68,83
87510,note_on,0,0,1,,,,,,,,0,,,80,83
87510,note_on,30,0,1,,,,,,,,0,,,68,0
87540,note_on,30,0,1,,,,,,,,0,,,80,0
87540,note_on,0,0,1,,,,,,,,0,,,67,83
87570,note_on,30,0,1,,,,,,,,0,,,67,0
87570,note_on,0,0,1,,,,,,,,0,,,79,83
87600,note_on,30,0,1,,,,,,,,0,,,79,0
87600,note_on,0,0,1,,,,,,,,0,,,67,83
87630,note_on,30,0,1,,,,,,,,0,,,67,0
87630,note_on,0,0,1,,,,,,,,0,,,79,83
87660,note_on,30,0,1,,,,,,,,0,,,79,0
87660,note_on,0,0,1,,,,,,,,0,,,67,83
87690,note_on,30,0,1,,,,,,,,0,,,67,0
87690,note_on,0,0,1,,,,,,,,0,,,79,84
87720,note_on,30,0,1,,,,,,,,0,,,79,0
87720,note_on,0,0,1,,,,,,,,0,,,67,85
87750,note_on,30,0,1,,,,,,,,0,,,67,0
87750,note_on,0,0,1,,,,,,,,0,,,79,85
87780,note_on,0,0,2,,,,,,,,1,,,62,0
87780,note_on,300,0,2,,,,,,,,1,,,65,0
87780,note_on,0,0,2,,,,,,,,1,,,62,104
87780,note_on,0,0,2,,,,,,,,1,,,65,104
87780,note_on,30,0,1,,,,,,,,0,,,79,0
87780,note_on,0,0,2,,,,,,,,1,,,59,0
87780,note_on,0,0,1,,,,,,,,0,,,67,85
87810,note_on,30,0,1,,,,,,,,0,,,67,0
87810,note_on,0,0,1,,,,,,,,0,,,79,86
87840,note_on,0,0,2,,,,,,,,1,,,65,105
87840,note_on,0,0,2,,,,,,,,1,,,62,105
87840,note_on,0,0,2,,,,,,,,1,,,62,0
87840,note_on,60,0,2,,,,,,,,1,,,65,0
87840,note_on,30,0,1,,,,,,,,0,,,79,0
87840,note_on,0,0,1,,,,,,,,0,,,67,86
87870,note_on,30,0,1,,,,,,,,0,,,67,0
87870,note_on,0,0,1,,,,,,,,0,,,79,86
87900,note_on,60,0,2,,,,,,,,1,,,65,0
87900,note_on,0,0,2,,,,,,,,1,,,60,105
87900,note_on,30,0,1,,,,,,,,0,,,79,0
87900,note_on,0,0,2,,,,,,,,1,,,63,105
87900,note_on,0,0,1,,,,,,,,0,,,67,87
87900,note_on,0,0,2,,,,,,,,1,,,62,0
87930,note_on,0,0,1,,,,,,,,0,,,79,87
87930,note_on,30,0,1,,,,,,,,0,,,67,0
87960,note_on,0,0,2,,,,,,,,1,,,62,106
87960,note_on,0,0,2,,,,,,,,1,,,55,106
87960,note_on,0,0,2,,,,,,,,1,,,60,0
87960,note_on,30,0,1,,,,,,,,0,,,79,0
87960,note_on,60,0,2,,,,,,,,1,,,63,0
87960,note_on,0,0,1,,,,,,,,0,,,67,87
87990,note_on,30,0,1,,,,,,,,0,,,67,0
87990,note_on,0,0,1,,,,,,,,0,,,79,87
88020,note_on,0,0,2,,,,,,,,1,,,62,106
88020,note_on,0,0,2,,,,,,,,1,,,55,106
88020,note_on,0,0,2,,,,,,,,1,,,55,0
88020,note_on,60,0,2,,,,,,,,1,,,62,0
88020,note_on,0,0,1,,,,,,,,0,,,67,87
88020,note_on,30,0,1,,,,,,,,0,,,79,0
88050,note_on,0,0,1,,,,,,,,0,,,79,87
88050,note_on,30,0,1,,,,,,,,0,,,67,0
88080,note_on,30,0,1,,,,,,,,0,,,79,0
88080,note_on,0,0,1,,,,,,,,0,,,67,87
88110,note_on,30,0,1,,,,,,,,0,,,67,0
88110,note_on,0,0,1,,,,,,,,0,,,79,88
88140,note_on,120,0,2,,,,,,,,1,,,62,0
88140,note_on,0,0,2,,,,,,,,1,,,55,0
88140,note_on,0,0,1,,,,,,,,0,,,67,88
88140,note_on,30,0,1,,,,,,,,0,,,79,0
88170,note_on,0,0,1,,,,,,,,0,,,79,88
88170,note_on,30,0,1,,,,,,,,0,,,67,0
88200,note_on,30,0,1,,,,,,,,0,,,79,0
88200,note_on,0,0,2,,,,,,,,1,,,60,106
88200,note_on,60,0,2,,,,,,,,1,,,63,106
88200,note_on,0,0,1,,,,,,,,0,,,67,88
88230,note_on,0,0,1,,,,,,,,0,,,79,88
88230,note_on,30,0,1,,,,,,,,0,,,67,0
88260,note_on,0,0,2,,,,,,,,1,,,63,0
88260,note_on,60,0,2,,,,,,,,1,,,60,0
88260,note_on,0,0,2,,,,,,,,1,,,62,106
88260,note_on,0,0,1,,,,,,,,0,,,67,88
88260,note_on,30,0,1,,,,,,,,0,,,79,0
88260,note_on,0,0,2,,,,,,,,1,,,55,106
88290,note_on,30,0,1,,,,,,,,0,,,67,0
88290,note_on,0,0,1,,,,,,,,0,,,79,88
88320,note_on,0,0,1,,,,,,,,0,,,67,87
88320,note_on,0,0,2,,,,,,,,1,,,62,0
88320,note_on,0,0,2,,,,,,,,1,,,51,106
88320,note_on,0,0,2,,,,,,,,1,,,60,106
88320,note_on,60,0,2,,,,,,,,1,,,55,0
88320,note_on,30,0,1,,,,,,,,0,,,79,0
88350,note_on,30,0,1,,,,,,,,0,,,67,0
88350,note_on,0,0,1,,,,,,,,0,,,79,87
88380,note_on,60,0,2,,,,,,,,1,,,60,0
88380,note_on,0,0,2,,,,,,,,1,,,60,106
88380,note_on,0,0,1,,,,,,,,0,,,67,87
88380,note_on,30,0,1,,,,,,,,0,,,79,0
88380,note_on,0,0,2,,,,,,,,1,,,51,0
88380,note_on,0,0,2,,,,,,,,1,,,51,106
88410,note_on,30,0,1,,,,,,,,0,,,67,0
88410,note_on,0,0,1,,,,,,,,0,,,79,87
88440,note_on,30,0,1,,,,,,,,0,,,79,0
88440,note_on,0,0,1,,,,,,,,0,,,67,87
88470,note_on,30,0,1,,,,,,,,0,,,67,0
88470,note_on,0,0,1,,,,,,,,0,,,79,86
88500,note_on,30,0,1,,,,,,,,0,,,79,0
88500,note_on,0,0,1,,,,,,,,0,,,67,86
88500,note_on,0,0,2,,,,,,,,1,,,51,0
88500,note_on,120,0,2,,,,,,,,1,,,60,0
88500,note_on,0,0,2,,,,,,,,1,,,51,107
88500,note_on,0,0,2,,,,,,,,1,,,62,107
88530,note_on,0,0,1,,,,,,,,0,,,79,86
88530,note_on,30,0,1,,,,,,,,0,,,67,0
88560,note_on,0,0,2,,,,,,,,1,,,60,107
88560,note_on,0,0,1,,,,,,,,0,,,67,85
88560,note_on,30,0,1,,,,,,,,0,,,79,0
88560,note_on,60,0,2,,,,,,,,1,,,51,0
88560,note_on,0,0,2,,,,,,,,1,,,62,0
88560,note_on,0,0,2,,,,,,,,1,,,63,107
88590,note_on,0,0,1,,,,,,,,0,,,79,85
88590,note_on,30,0,1,,,,,,,,0,,,67,0
88620,note_on,0,0,1,,,,,,,,0,,,67,85
88620,note_on,30,0,1,,,,,,,,0,,,79,0
88650,note_on,30,0,1,,,,,,,,0,,,67,0
88650,note_on,0,0,1,,,,,,,,0,,,79,85
88680,note_on,30,0,1,,,,,,,,0,,,79,0
88680,note_on,0,0,1,,,,,,,,0,,,67,84
88680,note_on,0,0,2,,,,,,,,1,,,55,108
88680,note_on,0,0,2,,,,,,,,1,,,62,108
88680,note_on,120,0,2,,,,,,,,1,,,60,0
88680,note_on,0,0,2,,,,,,,,1,,,63,0
88710,note_on,30,0,1,,,,,,,,0,,,67,0
88710,note_on,0,0,1,,,,,,,,0,,,79,84
88740,note_on,0,0,1,,,,,,,,0,,,67,83
88740,note_on,60,0,2,,,,,,,,1,,,55,0
88740,note_on,0,0,2,,,,,,,,1,,,62,0
88740,note_on,0,0,2,,,,,,,,1,,,63,108
88740,note_on,0,0,2,,,,,,,,1,,,60,108
88740,note_on,30,0,1,,,,,,,,0,,,79,0
88770,note_on,0,0,1,,,,,,,,0,,,79,83
88770,note_on,30,0,1,,,,,,,,0,,,67,0
88800,note_on,30,0,1,,,,,,,,0,,,79,0
88800,note_on,0,0,1,,,,,,,,0,,,67,82
88830,note_on,30,0,1,,,,,,,,0,,,67,0
88830,note_on,0,0,1,,,,,,,,0,,,79,82
88860,note_on,0,0,2,,,,,,,,1,,,65,108
88860,note_on,0,0,2,,,,,,,,1,,,63,0
88860,note_on,120,0,2,,,,,,,,1,,,60,0
88860,note_on,30,0,1,,,,,,,,0,,,79,0
88860,note_on,0,0,1,,,,,,,,0,,,67,82
88860,note_on,0,0,2,,,,,,,,1,,,62,108
88890,note_on,0,0,1,,,,,,,,0,,,79,82
88890,note_on,30,0,1,,,,,,,,0,,,67,0
88920,note_on,0,0,2,,,,,,,,1,,,65,0
88920,note_on,0,0,2,,,,,,,,1,,,62,108
88920,note_on,0,0,2,,,,,,,,1,,,55,108
88920,note_on,60,0,2,,,,,,,,1,,,62,0
88920,note_on,30,0,1,,,,,,,,0,,,79,0
88920,note_on,0,0,1,,,,,,,,0,,,67,81
88950,note_on,30,0,1,,,,,,,,0,,,67,0
88950,note_on,0,0,1,,,,,,,,0,,,79,81
88980,note_on,0,0,1,,,,,,,,0,,,67,80
88980,note_on,30,0,1,,,,,,,,0,,,79,0
89010,note_on,0,0,1,,,,,,,,0,,,79,80
89010,note_on,30,0,1,,,,,,,,0,,,67,0
89040,note_on,30,0,1,,,,,,,,0,,,79,0
89040,note_on,0,0,1,,,,,,,,0,,,67,80
89070,note_on,30,0,1,,,,,,,,0,,,67,0
89070,note_on,0,0,1,,,,,,,,0,,,79,80
89100,note_on,0,0,2,,,,,,,,1,,,62,0
89100,note_on,180,0,2,,,,,,,,1,,,55,0
89100,note_on,30,0,1,,,,,,,,0,,,79,0
89100,note_on,0,0,1,,,,,,,,0,,,67,80
89130,note_on,30,0,1,,,,,,,,0,,,67,0
89130,note_on,0,0,1,,,,,,,,0,,,79,80
89160,note_on,0,0,1,,,,,,,,0,,,67,80
89160,note_on,30,0,1,,,,,,,,0,,,79,0
89190,note_on,30,0,1,,,,,,,,0,,,67,0
89190,note_on,0,0,1,,,,,,,,0,,,79,80
89220,note_on,30,0,1,,,,,,,,0,,,79,0
89220,note_on,0,0,1,,,,,,,,0,,,66,80
89250,note_on,0,0,1,,,,,,,,0,,,78,79
89250,note_on,30,0,1,,,,,,,,0,,,66,0
89280,note_on,30,0,1,,,,,,,,0,,,78,0
89280,note_on,0,0,1,,,,,,,,0,,,65,81
89280,note_on,180,0,2,,,,,,,,1,,,63,108
89280,note_on,0,0,2,,,,,,,,1,,,60,108
89310,note_on,30,0,1,,,,,,,,0,,,65,0
89310,note_on,0,0,1,,,,,,,,0,,,77,81
89340,note_on,0,0,2,,,,,,,,1,,,58,108
89340,note_on,0,0,2,,,,,,,,1,,,62,108
89340,note_on,0,0,2,,,,,,,,1,,,63,0
89340,note_on,60,0,2,,,,,,,,1,,,60,0
89340,note_on,30,0,1,,,,,,,,0,,,77,0
89340,note_on,0,0,1,,,,,,,,0,,,65,80
89370,note_on,30,0,1,,,,,,,,0,,,65,0
89370,note_on,0,0,1,,,,,,,,0,,,77,80
89400,note_on,0,0,2,,,,,,,,1,,,60,108
89400,note_on,0,0,2,,,,,,,,1,,,53,108
89400,note_on,0,0,2,,,,,,,,1,,,62,0
89400,note_on,60,0,2,,,,,,,,1,,,58,0
89400,note_on,30,0,1,,,,,,,,0,,,77,0
89400,note_on,0,0,1,,,,,,,,0,,,65,80
89430,note_on,0,0,1,,,,,,,,0,,,77,80
89430,note_on,30,0,1,,,,,,,,0,,,65,0
89460,note_on,30,0,1,,,,,,,,0,,,77,0
89460,note_on,0,0,2,,,,,,,,1,,,53,108
89460,note_on,0,0,2,,,,,,,,1,,,60,108
89460,note_on,0,0,2,,,,,,,,1,,,53,0
89460,note_on,0,0,1,,,,,,,,0,,,65,80
89460,note_on,60,0,2,,,,,,,,1,,,60,0
89490,note_on,30,0,1,,,,,,,,0,,,65,0
89490,note_on,0,0,1,,,,,,,,0,,,77,80
89520,note_on,30,0,1,,,,,,,,0,,,77,0
89520,note_on,0,0,1,,,,,,,,0,,,65,80
89550,note_on,30,0,1,,,,,,,,0,,,65,0
89550,note_on,0,0,1,,,,,,,,0,,,77,80
89580,note_on,0,0,1,,,,,,,,0,,,65,80
89580,note_on,30,0,1,,,,,,,,0,,,77,0
89610,note_on,30,0,1,,,,,,,,0,,,65,0
89610,note_on,0,0,1,,,,,,,,0,,,77,79
89640,note_on,30,0,1,,,,,,,,0,,,77,0
89640,note_on,0,0,1,,,,,,,,0,,,65,81
89640,note_on,0,0,2,,,,,,,,1,,,62,108
89640,note_on,0,0,2,,,,,,,,1,,,58,108
89640,note_on,0,0,2,,,,,,,,1,,,60,0
89640,note_on,180,0,2,,,,,,,,1,,,53,0
89670,note_on,0,0,1,,,,,,,,0,,,77,81
89670,note_on,30,0,1,,,,,,,,0,,,65,0
89700,note_on,0,0,1,,,,,,,,0,,,65,80
89700,note_on,60,0,2,,,,,,,,1,,,58,0
89700,note_on,0,0,2,,,,,,,,1,,,62,0
89700,note_on,0,0,2,,,,,,,,1,,,53,108
89700,note_on,0,0,2,,,,,,,,1,,,60,108
89700,note_on,30,0,1,,,,,,,,0,,,77,0
89730,note_on,30,0,1,,,,,,,,0,,,65,0
89730,note_on,0,0,1,,,,,,,,0,,,77,80
89760,note_on,30,0,1,,,,,,,,0,,,77,0
89760,note_on,0,0,1,,,,,,,,0,,,65,80
89760,note_on,0,0,2,,,,,,,,1,,,53,0
89760,note_on,60,0,2,,,,,,,,1,,,60,0
89760,note_on,0,0,2,,,,,,,,1,,,50,108
89760,note_on,0,0,2,,,,,,,,1,,,58,108
89790,note_on,30,0,1,,,,,,,,0,,,65,0
89790,note_on,0,0,1,,,,,,,,0,,,77,80
89820,note_on,0,0,2,,,,,,,,1,,,58,108
89820,note_on,30,0,1,,,,,,,,0,,,77,0
89820,note_on,0,0,1,,,,,,,,0,,,65,80
89820,note_on,0,0,2,,,,,,,,1,,,50,0
89820,note_on,60,0,2,,,,,,,,1,,,58,0
89820,note_on,0,0,2,,,,,,,,1,,,50,108
89850,note_on,30,0,1,,,,,,,,0,,,65,0
89850,note_on,0,0,1,,,,,,,,0,,,77,80
89880,note_on,30,0,1,,,,,,,,0,,,77,0
89880,note_on,0,0,1,,,,,,,,0,,,65,80
89910,note_on,30,0,1,,,,,,,,0,,,65,0
89910,note_on,0,0,1,,,,,,,,0,,,77,80
89940,note_on,0,0,1,,,,,,,,0,,,65,80
89940,note_on,0,0,2,,,,,,,,1,,,60,108
89940,note_on,0,0,2,,,,,,,,1,,,53,108
89940,note_on,0,0,2,,,,,,,,1,,,50,0
89940,note_on,120,0,2,,,,,,,,1,,,58,0
89940,note_on,30,0,1,,,,,,,,0,,,77,0
89970,note_on,30,0,1,,,,,,,,0,,,65,0
89970,note_on,0,0,1,,,,,,,,0,,,77,79
90000,note_on,0,0,1,,,,,,,,0,,,65,81
90000,note_on,0,0,2,,,,,,,,1,,,58,108
90000,note_on,0,0,2,,,,,,,,1,,,62,108
90000,note_on,0,0,2,,,,,,,,1,,,53,0
90000,note_on,60,0,2,,,,,,,,1,,,60,0
90000,note_on,30,0,1,,,,,,,,0,,,77,0
90030,note_on,30,0,1,,,,,,,,0,,,65,0
90030,note_on,0,0,1,,,,,,,,0,,,77,81
90060,note_on,30,0,1,,,,,,,,0,,,77,0
90060,note_on,0,0,1,,,,,,,,0,,,65,80
90090,note_on,30,0,1,,,,,,,,0,,,65,0
90090,note_on,0,0,1,,,,,,,,0,,,77,80
90120,note_on,30,0,1,,,,,,,,0,,,77,0
90120,note_on,0,0,2,,,,,,,,1,,,62,0
90120,note_on,0,0,2,,,,,,,,1,,,60,108
90120,note_on,0,0,2,,,,,,,,1,,,53,108
90120,note_on,120,0,2,,,,,,,,1,,,58,0
90120,note_on,0,0,1,,,,,,,,0,,,65,80
90150,note_on,30,0,1,,,,,,,,0,,,65,0
90150,note_on,0,0,1,,,,,,,,0,,,77,80
90180,note_on,0,0,2,,,,,,,,1,,,62,108
90180,note_on,0,0,1,,,,,,,,0,,,65,80
90180,note_on,60,0,2,,,,,,,,1,,,60,0
90180,note_on,0,0,2,,,,,,,,1,,,53,0
90180,note_on,30,0,1,,,,,,,,0,,,77,0
90180,note_on,0,0,2,,,,,,,,1,,,58,108
90210,note_on,30,0,1,,,,,,,,0,,,65,0
90210,note_on,0,0,1,,,,,,,,0,,,77,80
90240,note_on,30,0,1,,,,,,,,0,,,77,0
90240,note_on,0,0,1,,,,,,,,0,,,65,80
90270,note_on,0,0,1,,,,,,,,0,,,77,80
90270,note_on,30,0,1,,,,,,,,0,,,65,0
90300,note_on,0,0,2,,,,,,,,1,,,62,0
90300,note_on,0,0,2,,,,,,,,1,,,63,108
90300,note_on,0,0,2,,,,,,,,1,,,60,108
90300,note_on,30,0,1,,,,,,,,0,,,77,0
90300,note_on,0,0,1,,,,,,,,0,,,65,80
90300,note_on,120,0,2,,,,,,,,1,,,58,0
90330,note_on,0,0,1,,,,,,,,0,,,77,79
90330,note_on,30,0,1,,,,,,,,0,,,65,0
90360,note_on,0,0,2,,,,,,,,1,,,63,0
90360,note_on,0,0,2,,,,,,,,1,,,53,106
90360,note_on,0,0,2,,,,,,,,1,,,60,106
90360,note_on,0,0,1,,,,,,,,0,,,65,80
90360,note_on,30,0,1,,,,,,,,0,,,77,0
90360,note_on,60,0,2,,,,,,,,1,,,60,0
90390,note_on,0,0,1,,,,,,,,0,,,77,80
90390,note_on,30,0,1,,,,,,,,0,,,65,0
90420,note_on,0,0,1,,,,,,,,0,,,65,80
90420,note_on,30,0,1,,,,,,,,0,,,77,0
90450,note_on,30,0,1,,,,,,,,0,,,65,0
90450,note_on,0,0,1,,,,,,,,0,,,77,80
90480,note_on,0,0,1,,,,,,,,0,,,65,80
90480,note_on,30,0,1,,,,,,,,0,,,77,0
90510,note_on,0,0,1,,,,,,,,0,,,77,79
90510,note_on,30,0,1,,,,,,,,0,,,65,0
90540,note_on,0,0,2,,,,,,,,1,,,60,106
90540,note_on,0,0,2,,,,,,,,1,,,57,106
90540,note_on,0,0,2,,,,,,,,1,,,53,106
90540,note_on,0,0,2,,,,,,,,1,,,51,106
90540,note_on,0,0,2,,,,,,,,1,,,53,0
90540,note_on,180,0,2,,,,,,,,1,,,60,0
90540,note_on,0,0,1,,,,,,,,0,,,69,79
90540,note_on,30,0,1,,,,,,,,0,,,77,0
90570,note_on,30,0,1,,,,,,,,0,,,69,0
90570,note_on,0,0,1,,,,,,,,0,,,72,79
90600,note_on,0,0,1,,,,,,,,0,,,75,79
90600,note_on,30,0,1,,,,,,,,0,,,72,0
90630,note_on,0,0,1,,,,,,,,0,,,77,79
90630,note_on,30,0,1,,,,,,,,0,,,75,0
90660,note_on,0,0,1,,,,,,,,0,,,79,79
90660,note_on,30,0,1,,,,,,,,0,,,77,0
90690,note_on,0,0,1,,,,,,,,0,,,81,79
90690,note_on,30,0,1,,,,,,,,0,,,79,0
90720,note_on,30,0,1,,,,,,,,0,,,81,0
90720,note_on,0,0,1,,,,,,,,0,,,82,79
90720,note_on,0,0,2,,,,,,,,1,,,51,0
90720,note_on,0,0,2,,,,,,,,1,,,58,107
90720,note_on,0,0,2,,,,,,,,1,,,62,107
90720,note_on,0,0,2,,,,,,,,1,,,53,107
90720,note_on,0,0,2,,,,,,,,1,,,50,107
90720,note_on,0,0,2,,,,,,,,1,,,57,0
90720,note_on,0,0,2,,,,,,,,1,,,53,0
90720,note_on,180,0,2,,,,,,,,1,,,60,0
90750,note_on,30,0,1,,,,,,,,0,,,82,0
90750,note_on,0,0,1,,,,,,,,0,,,84,79
90780,note_on,30,0,1,,,,,,,,0,,,84,0
90780,note_on,0,0,1,,,,,,,,0,,,86,79
90810,note_on,30,0,1,,,,,,,,0,,,86,0
90810,note_on,0,0,1,,,,,,,,0,,,87,79
90840,note_on,0,0,1,,,,,,,,0,,,89,79
90840,note_on,30,0,1,,,,,,,,0,,,87,0
90870,note_on,30,0,1,,,,,,,,0,,,89,0
90870,note_on,0,0,1,,,,,,,,0,,,87,79
90900,note_on,30,0,1,,,,,,,,0,,,87,0
90900,note_on,0,0,1,,,,,,,,0,,,86,79
90930,note_on,30,0,1,,,,,,,,0,,,86,0
90930,note_on,0,0,1,,,,,,,,0,,,84,79
90960,note_on,30,0,1,,,,,,,,0,,,84,0
90960,note_on,0,0,1,,,,,,,,0,,,82,79
90990,note_on,30,0,1,,,,,,,,0,,,82,0
90990,note_on,0,0,1,,,,,,,,0,,,81,79
91020,note_on,30,0,1,,,,,,,,0,,,81,0
91020,note_on,0,0,1,,,,,,,,0,,,79,79
91050,note_on,0,0,1,,,,,,,,0,,,77,79
91050,note_on,30,0,1,,,,,,,,0,,,79,0
91080,note_on,0,0,2,,,,,,,,1,,,50,0
91080,note_on,0,0,1,,,,,,,,0,,,75,79
91080,note_on,30,0,1,,,,,,,,0,,,77,0
91080,note_on,360,0,2,,,,,,,,1,,,58,0
91080,note_on,0,0,2,,,,,,,,1,,,53,0
91080,note_on,0,0,2,,,,,,,,1,,,62,0
91080,note_on,0,0,2,,,,,,,,1,,,39,105
91110,note_on,30,0,1,,,,,,,,0,,,75,0
91110,note_on,0,0,1,,,,,,,,0,,,74,79
91140,note_on,0,0,2,,,,,,,,1,,,51,104
91140,note_on,30,0,1,,,,,,,,0,,,74,0
91140,note_on,0,0,1,,,,,,,,0,,,72,79
91140,note_on,60,0,2,,,,,,,,1,,,39,0
91170,note_on,0,0,1,,,,,,,,0,,,70,79
91170,note_on,30,0,1,,,,,,,,0,,,72,0
91200,note_on,0,0,1,,,,,,,,0,,,69,79
91200,note_on,30,0,1,,,,,,,,0,,,70,0
91200,note_on,0,0,2,,,,,,,,1,,,50,104
91200,note_on,60,0,2,,,,,,,,1,,,51,0
91230,note_on,0,0,1,,,,,,,,0,,,67,79
91230,note_on,30,0,1,,,,,,,,0,,,69,0
91260,note_on,0,0,2,,,,,,,,1,,,41,104
91260,note_on,0,0,1,,,,,,,,0,,,65,79
91260,note_on,30,0,1,,,,,,,,0,,,67,0
91260,note_on,60,0,2,,,,,,,,1,,,50,0
91290,note_on,30,0,1,,,,,,,,0,,,65,0
91290,note_on,0,0,1,,,,,,,,0,,,63,79
91320,note_on,30,0,1,,,,,,,,0,,,63,0
91320,note_on,0,0,2,,,,,,,,1,,,53,104
91320,note_on,0,0,1,,,,,,,,0,,,62,79
91320,note_on,60,0,2,,,,,,,,1,,,41,0
91350,note_on,30,0,1,,,,,,,,0,,,62,0
91350,note_on,0,0,1,,,,,,,,0,,,60,79
91380,note_on,60,0,2,,,,,,,,1,,,53,0
91380,note_on,0,0,2,,,,,,,,1,,,53,104
91380,note_on,0,0,1,,,,,,,,0,,,58,79
91380,note_on,30,0,1,,,,,,,,0,,,60,0
91410,note_on,0,0,1,,,,,,,,0,,,57,79
91410,note_on,30,0,1,,,,,,,,0,,,58,0
91440,note_on,30,0,1,,,,,,,,0,,,57,0
91440,note_on,0,0,2,,,,,,,,1,,,34,79
91440,note_on,0,0,2,,,,,,,,1,,,58,79
91440,note_on,60,0,2,,,,,,,,1,,,53,0
91470,note_on,0,0,2,,,,,,,,1,,,58,0
91470,note_on,0,0,2,,,,,,,,1,,,46,79
91470,note_on,30,0,2,,,,,,,,1,,,34,0
91470,note_on,0,0,2,,,,,,,,1,,,53,79
91500,note_on,30,0,2,,,,,,,,1,,,53,0
91500,note_on,0,0,2,,,,,,,,1,,,46,0
91500,note_on,0,0,2,,,,,,,,1,,,58,79
91500,note_on,0,0,2,,,,,,,,1,,,34,79
91530,note_on,30,0,2,,,,,,,,1,,,34,0
91530,note_on,0,0,2,,,,,,,,1,,,58,0
91530,note_on,0,0,2,,,,,,,,1,,,53,79
91530,note_on,0,0,2,,,,,,,,1,,,46,79
91560,note_on,0,0,2,,,,,,,,1,,,34,79
91560,note_on,0,0,2,,,,,,,,1,,,50,79
91560,note_on,30,0,2,,,,,,,,1,,,53,0
91560,note_on,0,0,2,,,,,,,,1,,,46,0
91590,note_on,30,0,2,,,,,,,,1,,,50,0
91590,note_on,0,0,2,,,,,,,,1,,,34,0
91590,note_on,0,0,2,,,,,,,,1,,,53,79
91590,note_on,0,0,2,,,,,,,,1,,,46,79
91620,note_on,30,0,2,,,,,,,,1,,,46,0
91620,note_on,0,0,2,,,,,,,,1,,,58,79
91620,note_on,0,0,2,,,,,,,,1,,,34,79
91620,note_on,0,0,2,,,,,,,,1,,,53,0
91650,note_on,0,0,2,,,,,,,,1,,,53,79
91650,note_on,0,0,2,,,,,,,,1,,,34,0
91650,note_on,30,0,2,,,,,,,,1,,,58,0
91650,note_on,0,0,2,,,,,,,,1,,,46,79
91680,note_on,30,0,2,,,,,,,,1,,,53,0
91680,note_on,0,0,2,,,,,,,,1,,,46,0
91680,note_on,0,0,2,,,,,,,,1,,,34,79
91680,note_on,0,0,2,,,,,,,,1,,,58,79
91710,note_on,0,0,2,,,,,,,,1,,,50,79
91710,note_on,0,0,2,,,,,,,,1,,,46,79
91710,note_on,0,0,2,,,,,,,,1,,,34,0
91710,note_on,30,0,2,,,,,,,,1,,,58,0
91740,note_on,0,0,2,,,,,,,,1,,,34,79
91740,note_on,0,0,2,,,,,,,,1,,,58,79
91740,note_on,0,0,2,,,,,,,,1,,,46,0
91740,note_on,30,0,2,,,,,,,,1,,,50,0
91770,note_on,0,0,2,,,,,,,,1,,,46,79
91770,note_on,0,0,2,,,,,,,,1,,,62,79
91770,note_on,0,0,2,,,,,,,,1,,,58,0
91770,note_on,30,0,2,,,,,,,,1,,,34,0
91800,note_on,0,0,2,,,,,,,,1,,,34,79
91800,note_on,30,0,2,,,,,,,,1,,,46,0
91800,note_on,0,0,2,,,,,,,,1,,,62,0
91800,note_on,360,0,1,,,,,,,,0,,,60,79
91830,note_on,30,0,2,,,,,,,,1,,,34,0
91830,note_on,0,0,2,,,,,,,,1,,,46,79
91860,note_on,0,0,2,,,,,,,,1,,,34,79
91860,note_on,30,0,2,,,,,,,,1,,,46,0
91890,note_on,0,0,2,,,,,,,,1,,,46,79
91890,note_on,30,0,2,,,,,,,,1,,,34,0
91920,note_on,0,0,1,,,,,,,,0,,,58,78
91920,note_on,120,0,1,,,,,,,,0,,,60,0
91920,note_on,0,0,2,,,,,,,,1,,,34,79
91920,note_on,30,0,2,,,,,,,,1,,,46,0
91950,note_on,0,0,2,,,,,,,,1,,,46,79
91950,note_on,30,0,2,,,,,,,,1,,,34,0
91980,note_on,0,0,2,,,,,,,,1,,,34,79
91980,note_on,30,0,2,,,,,,,,1,,,46,0
91980,note_on,60,0,1,,,,,,,,0,,,58,0
91980,note_on,0,0,1,,,,,,,,0,,,58,78
92010,note_on,0,0,1,,,,,,,,0,,,57,78
92010,note_on,30,0,1,,,,,,,,0,,,58,0
92010,note_on,30,0,2,,,,,,,,1,,,34,0
92010,note_on,0,0,2,,,,,,,,1,,,46,79
92025,note_on,15,0,1,,,,,,,,0,,,57,0
92030,note_on,5,0,1,,,,,,,,0,,,58,78
92035,note_on,5,0,1,,,,,,,,0,,,58,0
92040,note_on,5,0,1,,,,,,,,0,,,57,78
92040,note_on,30,0,2,,,,,,,,1,,,46,0
92040,note_on,0,0,2,,,,,,,,1,,,34,79
92070,note_on,0,0,1,,,,,,,,0,,,56,78
92070,note_on,30,0,1,,,,,,,,0,,,57,0
92070,note_on,0,0,2,,,,,,,,1,,,46,79
92070,note_on,30,0,2,,,,,,,,1,,,34,0
92100,note_on,30,0,2,,,,,,,,1,,,46,0
92100,note_on,0,0,1,,,,,,,,0,,,57,79
92100,note_on,30,0,1,,,,,,,,0,,,56,0
92100,note_on,0,0,2,,,,,,,,1,,,34,79
92130,note_on,0,0,2,,,,,,,,1,,,46,79
92130,note_on,30,0,2,,,,,,,,1,,,34,0
92130,note_on,30,0,1,,,,,,,,0,,,57,0
92130,note_on,0,0,1,,,,,,,,0,,,60,79
92160,note_on,30,0,1,,,,,,,,0,,,60,0
92160,note_on,30,0,2,,,,,,,,1,,,46,0
92160,note_on,0,0,2,,,,,,,,1,,,58,81
92160,note_on,0,0,2,,,,,,,,1,,,34,81
92190,note_on,0,0,2,,,,,,,,1,,,46,81
92190,note_on,0,0,2,,,,,,,,1,,,53,81
92190,note_on,0,0,2,,,,,,,,1,,,58,0
92190,note_on,30,0,2,,,,,,,,1,,,34,0
92220,note_on,0,0,2,,,,,,,,1,,,50,81
92220,note_on,0,0,2,,,,,,,,1,,,53,0
92220,note_on,0,0,2,,,,,,,,1,,,34,81
92220,note_on,30,0,2,,,,,,,,1,,,46,0
92250,note_on,30,0,2,,,,,,,,1,,,34,0
92250,note_on,0,0,2,,,,,,,,1,,,50,0
92250,note_on,0,0,2,,,,,,,,1,,,46,81
92250,note_on,0,0,2,,,,,,,,1,,,53,81
92280,note_on,0,0,2,,,,,,,,1,,,53,0
92280,note_on,0,0,2,,,,,,,,1,,,34,81
92280,note_on,0,0,2,,,,,,,,1,,,58,81
92280,note_on,30,0,2,,,,,,,,1,,,46,0
92310,note_on,0,0,2,,,,,,,,1,,,62,81
92310,note_on,0,0,2,,,,,,,,1,,,58,0
92310,note_on,30,0,2,,,,,,,,1,,,34,0
92310,note_on,0,0,2,,,,,,,,1,,,46,81
92340,note_on,180,0,1,,,,,,,,0,,,62,80
92340,note_on,0,0,2,,,,,,,,1,,,34,81
92340,note_on,0,0,2,,,,,,,,1,,,62,0
92340,note_on,30,0,2,,,,,,,,1,,,46,0
92370,note_on,30,0,1,,,,,,,,0,,,62,0
92370,note_on,30,0,2,,,,,,,,1,,,34,0
92370,note_on,0,0,2,,,,,,,,1,,,46,81
92370,note_on,0,0,2,,,,,,,,1,,,58,81
92400,note_on,0,0,2,,,,,,,,1,,,53,81
92400,note_on,30,0,2,,,,,,,,1,,,46,0
92400,note_on,0,0,2,,,,,,,,1,,,34,81
92400,note_on,0,0,2,,,,,,,,1,,,58,0
92430,note_on,0,0,2,,,,,,,,1,,,58,81
92430,note_on,30,0,2,,,,,,,,1,,,34,0
92430,note_on,0,0,2,,,,,,,,1,,,53,0
92430,note_on,0,0,2,,,,,,,,1,,,46,81
92460,note_on,30,0,2,,,,,,,,1,,,46,0
92460,note_on,0,0,2,,,,,,,,1,,,34,81
92460,note_on,0,0,2,,,,,,,,1,,,58,0
92460,note_on,90,0,1,,,,,,,,0,,,62,81
92490,note_on,30,0,1,,,,,,,,0,,,62,0
92490,note_on,30,0,2,,,,,,,,1,,,34,0
92490,note_on,0,0,1,,,,,,,,0,,,65,81
92490,note_on,0,0,2,,,,,,,,1,,,46,81
92505,note_on,15,0,1,,,,,,,,0,,,65,0
92515,note_on,10,0,1,,,,,,,,0,,,65,81
92520,note_on,5,0,1,,,,,,,,0,,,65,0
92520,note_on,0,0,1,,,,,,,,0,,,63,81
92520,note_on,0,0,2,,,,,,,,1,,,34,81
92520,note_on,30,0,2,,,,,,,,1,,,46,0
92535,note_on,15,0,1,,,,,,,,0,,,63,0
92550,note_on,15,0,1,,,,,,,,0,,,62,81
92550,note_on,30,0,2,,,,,,,,1,,,34,0
92550,note_on,0,0,2,,,,,,,,1,,,46,81
92565,note_on,15,0,1,,,,,,,,0,,,62,0
92575,note_on,10,0,1,,,,,,,,0,,,65,81
92580,note_on,0,0,1,,,,,,,,0,,,63,81
92580,note_on,5,0,1,,,,,,,,0,,,65,0
92580,note_on,0,0,2,,,,,,,,1,,,34,81
92580,note_on,30,0,2,,,,,,,,1,,,46,0
92595,note_on,15,0,1,,,,,,,,0,,,63,0
92610,note_on,0,0,2,,,,,,,,1,,,46,79
92610,note_on,15,0,1,,,,,,,,0,,,62,81
92610,note_on,30,0,2,,,,,,,,1,,,34,0
92625,note_on,15,0,1,,,,,,,,0,,,62,0
92635,note_on,10,0,1,,,,,,,,0,,,65,81
92640,note_on,30,0,2,,,,,,,,1,,,46,0
92640,note_on,0,0,2,,,,,,,,1,,,34,79
92640,note_on,0,0,1,,,,,,,,0,,,63,81
92640,note_on,5,0,1,,,,,,,,0,,,65,0
92655,note_on,15,0,1,,,,,,,,0,,,63,0
92670,note_on,0,0,2,,,,,,,,1,,,46,79
92670,note_on,30,0,2,,,,,,,,1,,,34,0
92670,note_on,15,0,1,,,,,,,,0,,,62,81
92685,note_on,15,0,1,,,,,,,,0,,,62,0
92695,note_on,10,0,1,,,,,,,,0,,,65,82
92700,note_on,5,0,1,,,,,,,,0,,,65,0
92700,note_on,0,0,2,,,,,,,,1,,,34,79
92700,note_on,0,0,1,,,,,,,,0,,,63,82
92700,note_on,30,0,2,,,,,,,,1,,,46,0
92730,note_on,0,0,1,,,,,,,,0,,,62,82
92730,note_on,30,0,1,,,,,,,,0,,,63,0
92730,note_on,30,0,2,,,,,,,,1,,,34,0
92730,note_on,0,0,2,,,,,,,,1,,,46,79
92760,note_on,30,0,1,,,,,,,,0,,,62,0
92760,note_on,30,0,2,,,,,,,,1,,,46,0
92760,note_on,0,0,2,,,,,,,,1,,,34,79
92760,note_on,0,0,1,,,,,,,,0,,,63,82
92790,note_on,30,0,2,,,,,,,,1,,,34,0
92790,note_on,0,0,2,,,,,,,,1,,,46,79
92790,note_on,0,0,1,,,,,,,,0,,,67,82
92790,note_on,30,0,1,,,,,,,,0,,,63,0
92820,note_on,0,0,2,,,,,,,,1,,,34,79
92820,note_on,30,0,1,,,,,,,,0,,,67,0
92820,note_on,0,0,1,,,,,,,,0,,,65,82
92820,note_on,30,0,2,,,,,,,,1,,,46,0
92850,note_on,30,0,2,,,,,,,,1,,,34,0
92850,note_on,0,0,2,,,,,,,,1,,,46,79
92850,note_on,30,0,1,,,,,,,,0,,,65,0
92850,note_on,0,0,1,,,,,,,,0,,,63,82
92880,note_on,30,0,1,,,,,,,,0,,,63,0
92880,note_on,0,0,1,,,,,,,,0,,,62,83
92880,note_on,0,0,2,,,,,,,,1,,,34,79
92880,note_on,30,0,2,,,,,,,,1,,,46,0
92910,note_on,30,0,2,,,,,,,,1,,,34,0
92910,note_on,0,0,2,,,,,,,,1,,,46,79
92910,note_on,30,0,1,,,,,,,,0,,,62,0
92910,note_on,0,0,1,,,,,,,,0,,,65,83
92940,note_on,0,0,2,,,,,,,,1,,,34,79
92940,note_on,30,0,2,,,,,,,,1,,,46,0
92940,note_on,0,0,1,,,,,,,,0,,,67,84
92940,note_on,30,0,1,,,,,,,,0,,,65,0
92970,note_on,0,0,2,,,,,,,,1,,,46,79
92970,note_on,30,0,1,,,,,,,,0,,,67,0
92970,note_on,0,0,1,,,,,,,,0,,,69,84
92970,note_on,30,0,2,,,,,,,,1,,,34,0
93000,note_on,30,0,2,,,,,,,,1,,,46,0
93000,note_on,0,0,2,,,,,,,,1,,,34,79
93000,note_on,0,0,1,,,,,,,,0,,,70,84
93000,note_on,30,0,1,,,,,,,,0,,,69,0
93030,note_on,30,0,1,,,,,,,,0,,,70,0
93030,note_on,30,0,2,,,,,,,,1,,,34,0
93030,note_on,0,0,2,,,,,,,,1,,,46,79
93030,note_on,0,0,1,,,,,,,,0,,,72,84
93060,note_on,30,0,1,,,,,,,,0,,,72,0
93060,note_on,0,0,1,,,,,,,,0,,,74,84
93060,note_on,30,0,2,,,,,,,,1,,,46,0
93060,note_on,0,0,2,,,,,,,,1,,,34,79
93090,note_on,30,0,2,,,,,,,,1,,,34,0
93090,note_on,0,0,2,,,,,,,,1,,,46,79
93120,note_on,0,0,2,,,,,,,,1,,,34,79
93120,note_on,30,0,2,,,,,,,,1,,,46,0
93150,note_on,30,0,2,,,,,,,,1,,,34,0
93150,note_on,0,0,2,,,,,,,,1,,,46,79
93180,note_on,30,0,2,,,,,,,,1,,,46,0
93180,note_on,0,0,1,,,,,,,,0,,,77,84
93180,note_on,120,0,1,,,,,,,,0,,,74,0
93180,note_on,0,0,2,,,,,,,,1,,,34,79
93210,note_on,30,0,2,,,,,,,,1,,,34,0
93210,note_on,0,0,2,,,,,,,,1,,,46,79
93210,note_on,30,0,1,,,,,,,,0,,,77,0
93235,note_on,25,0,1,,,,,,,,0,,,77,84
93240,note_on,0,0,2,,,,,,,,1,,,34,79
93240,note_on,30,0,2,,,,,,,,1,,,46,0
93240,note_on,0,0,1,,,,,,,,0,,,67,84
93240,note_on,0,0,1,,,,,,,,0,,,75,84
93240,note_on,5,0,1,,,,,,,,0,,,77,0
93270,note_on,30,0,2,,,,,,,,1,,,34,0
93270,note_on,0,0,1,,,,,,,,0,,,74,84
93270,note_on,30,0,1,,,,,,,,0,,,75,0
93270,note_on,0,0,2,,,,,,,,1,,,46,79
93285,note_on,15,0,1,,,,,,,,0,,,74,0
93295,note_on,10,0,1,,,,,,,,0,,,77,84
93300,note_on,30,0,2,,,,,,,,1,,,46,0
93300,note_on,0,0,2,,,,,,,,1,,,34,79
93300,note_on,0,0,1,,,,,,,,0,,,75,84
93300,note_on,5,0,1,,,,,,,,0,,,77,0
93330,note_on,30,0,2,,,,,,,,1,,,34,0
93330,note_on,0,0,2,,,,,,,,1,,,46,79
93330,note_on,0,0,1,,,,,,,,0,,,74,84
93330,note_on,30,0,1,,,,,,,,0,,,75,0
93345,note_on,15,0,1,,,,,,,,0,,,74,0
93355,note_on,10,0,1,,,,,,,,0,,,77,84
93360,note_on,5,0,1,,,,,,,,0,,,77,0
93360,note_on,0,0,2,,,,,,,,1,,,34,79
93360,note_on,0,0,1,,,,,,,,0,,,75,84
93360,note_on,30,0,2,,,,,,,,1,,,46,0
93390,note_on,30,0,2,,,,,,,,1,,,34,0
93390,note_on,0,0,2,,,,,,,,1,,,46,79
93390,note_on,30,0,1,,,,,,,,0,,,75,0
93390,note_on,0,0,1,,,,,,,,0,,,74,84
93415,note_on,25,0,1,,,,,,,,0,,,77,84
93420,note_on,0,0,2,,,,,,,,1,,,34,79
93420,note_on,0,0,1,,,,,,,,0,,,67,0
93420,note_on,5,0,1,,,,,,,,0,,,77,0
93420,note_on,30,0,2,,,,,,,,1,,,46,0
93420,note_on,0,0,1,,,,,,,,0,,,69,84
93420,note_on,0,0,1,,,,,,,,0,,,75,84
93420,note_on,0,0,1,,,,,,,,0,,,74,0
93450,note_on,30,0,2,,,,,,,,1,,,34,0
93450,note_on,0,0,1,,,,,,,,0,,,74,84
93450,note_on,30,0,1,,,,,,,,0,,,75,0
93450,note_on,0,0,2,,,,,,,,1,,,46,79
93480,note_on,30,0,1,,,,,,,,0,,,74,0
93480,note_on,30,0,2,,,,,,,,1,,,46,0
93480,note_on,0,0,1,,,,,,,,0,,,75,84
93480,note_on,0,0,2,,,,,,,,1,,,34,79
93510,note_on,30,0,1,,,,,,,,0,,,75,0
93510,note_on,0,0,1,,,,,,,,0,,,79,84
93510,note_on,0,0,2,,,,,,,,1,,,46,79
93510,note_on,30,0,2,,,,,,,,1,,,34,0
93540,note_on,0,0,1,,,,,,,,0,,,77,84
93540,note_on,30,0,2,,,,,,,,1,,,46,0
93540,note_on,0,0,2,,,,,,,,1,,,34,79
93540,note_on,30,0,1,,,,,,,,0,,,79,0
93570,note_on,30,0,1,,,,,,,,0,,,77,0
93570,note_on,30,0,2,,,,,,,,1,,,34,0
93570,note_on,0,0,1,,,,,,,,0,,,75,84
93570,note_on,0,0,2,,,,,,,,1,,,46,79
93600,note_on,30,0,1,,,,,,,,0,,,75,0
93600,note_on,0,0,2,,,,,,,,1,,,34,79
93600,note_on,0,0,1,,,,,,,,0,,,74,84
93600,note_on,0,0,1,,,,,,,,0,,,69,0
93600,note_on,30,0,2,,,,,,,,1,,,46,0
93630,note_on,30,0,2,,,,,,,,1,,,34,0
93630,note_on,0,0,2,,,,,,,,1,,,46,79
93630,note_on,0,0,1,,,,,,,,0,,,77,84
93630,note_on,30,0,1,,,,,,,,0,,,74,0
93660,note_on,30,0,2,,,,,,,,1,,,46,0
93660,note_on,0,0,2,,,,,,,,1,,,34,79
93660,note_on,0,0,1,,,,,,,,0,,,79,84
93660,note_on,30,0,1,,,,,,,,0,,,77,0
93690,note_on,30,0,2,,,,,,,,1,,,34,0
93690,note_on,0,0,2,,,,,,,,1,,,46,79
93690,note_on,30,0,1,,,,,,,,0,,,79,0
93690,note_on,0,0,1,,,,,,,,0,,,81,84
93720,note_on,0,0,2,,,,,,,,1,,,34,79
93720,note_on,30,0,2,,,,,,,,1,,,46,0
93720,note_on,0,0,1,,,,,,,,0,,,82,83
93720,note_on,30,0,1,,,,,,,,0,,,81,0
93750,note_on,30,0,1,,,,,,,,0,,,82,0
93750,note_on,0,0,1,,,,,,,,0,,,84,83
93750,note_on,30,0,2,,,,,,,,1,,,34,0
93750,note_on,0,0,2,,,,,,,,1,,,46,79
93780,note_on,0,0,1,,,,,,,,0,,,86,83
93780,note_on,30,0,1,,,,,,,,0,,,84,0
93780,note_on,0,0,2,,,,,,,,1,,,34,79
93780,note_on,30,0,2,,,,,,,,1,,,46,0
93810,note_on,0,0,2,,,,,,,,1,,,46,79
93810,note_on,30,0,2,,,,,,,,1,,,34,0
93840,note_on,0,0,2,,,,,,,,1,,,34,79
93840,note_on,30,0,2,,,,,,,,1,,,46,0
93870,note_on,30,0,2,,,,,,,,1,,,34,0
93870,note_on,0,0,2,,,,,,,,1,,,46,79
93900,note_on,120,0,1,,,,,,,,0,,,86,0
93900,note_on,0,0,1,,,,,,,,0,,,89,82
93900,note_on,30,0,2,,,,,,,,1,,,46,0
93900,note_on,0,0,2,,,,,,,,1,,,34,79
93930,note_on,0,0,2,,,,,,,,1,,,46,79
93930,note_on,30,0,2,,,,,,,,1,,,34,0
93960,note_on,0,0,2,,,,,,,,1,,,34,79
93960,note_on,30,0,2,,,,,,,,1,,,46,0
93960,note_on,60,0,1,,,,,,,,0,,,89,0
93960,note_on,0,0,1,,,,,,,,0,,,81,83
93960,note_on,0,0,1,,,,,,,,0,,,87,83
93975,note_on,0,0,1,,,,,,,,0,,,79,84
93975,note_on,0,0,1,,,,,,,,0,,,81,0
93975,note_on,0,0,1,,,,,,,,0,,,86,84
93975,note_on,15,0,1,,,,,,,,0,,,87,0
93990,note_on,0,0,2,,,,,,,,1,,,46,79
93990,note_on,0,0,1,,,,,,,,0,,,77,84
93990,note_on,0,0,1,,,,,,,,0,,,84,84
93990,note_on,0,0,1,,,,,,,,0,,,86,0
93990,note_on,15,0,1,,,,,,,,0,,,79,0
93990,note_on,30,0,2,,,,,,,,1,,,34,0
94005,note_on,0,0,1,,,,,,,,0,,,79,84
94005,note_on,0,0,1,,,,,,,,0,,,86,84
94005,note_on,0,0,1,,,,,,,,0,,,84,0
94005,note_on,15,0,1,,,,,,,,0,,,77,0
94020,note_on,15,0,1,,,,,,,,0,,,79,0
94020,note_on,0,0,1,,,,,,,,0,,,87,84
94020,note_on,0,0,2,,,,,,,,1,,,34,79
94020,note_on,30,0,2,,,,,,,,1,,,46,0
94020,note_on,0,0,1,,,,,,,,0,,,86,0
94020,note_on,0,0,1,,,,,,,,0,,,81,84
94035,note_on,15,0,1,,,,,,,,0,,,81,0
94035,note_on,0,0,1,,,,,,,,0,,,87,0
94035,note_on,0,0,1,,,,,,,,0,,,86,84
94035,note_on,0,0,1,,,,,,,,0,,,79,84
94050,note_on,15,0,1,,,,,,,,0,,,79,0
94050,note_on,0,0,1,,,,,,,,0,,,86,0
94050,note_on,0,0,1,,,,,,,,0,,,81,85
94050,note_on,0,0,1,,,,,,,,0,,,87,85
94050,note_on,0,0,2,,,,,,,,1,,,46,79
94050,note_on,30,0,2,,,,,,,,1,,,34,0
94065,note_on,15,0,1,,,,,,,,0,,,81,0
94065,note_on,0,0,1,,,,,,,,0,,,87,0
94065,note_on,0,0,1,,,,,,,,0,,,86,85
94065,note_on,0,0,1,,,,,,,,0,,,79,85
94080,note_on,0,0,2,,,,,,,,1,,,34,79
94080,note_on,15,0,1,,,,,,,,0,,,79,0
94080,note_on,0,0,1,,,,,,,,0,,,86,0
94080,note_on,0,0,1,,,,,,,,0,,,87,85
94080,note_on,0,0,1,,,,,,,,0,,,81,85
94080,note_on,30,0,2,,,,,,,,1,,,46,0
94095,note_on,15,0,1,,,,,,,,0,,,81,0
94095,note_on,0,0,1,,,,,,,,0,,,79,85
94095,note_on,0,0,1,,,,,,,,0,,,86,85
94095,note_on,0,0,1,,,,,,,,0,,,87,0
94110,note_on,0,0,1,,,,,,,,0,,,79,0
94110,note_on,0,0,1,,,,,,,,0,,,87,86
94110,note_on,0,0,1,,,,,,,,0,,,81,86
94110,note_on,30,0,2,,,,,,,,1,,,34,0
94110,note_on,0,0,2,,,,,,,,1,,,46,79
94110,note_on,15,0,1,,,,,,,,0,,,86,0
94125,note_on,15,0,1,,,,,,,,0,,,81,0
94125,note_on,0,0,1,,,,,,,,0,,,87,0
94125,note_on,0,0,1,,,,,,,,0,,,82,86
94125,note_on,0,0,1,,,,,,,,0,,,89,86
94140,note_on,30,0,2,,,,,,,,1,,,46,0
94140,note_on,0,0,1,,,,,,,,0,,,81,86
94140,note_on,0,0,1,,,,,,,,0,,,82,0
94140,note_on,15,0,1,,,,,,,,0,,,89,0
94140,note_on,0,0,2,,,,,,,,1,,,34,79
94140,note_on,0,0,1,,,,,,,,0,,,87,86
94155,note_on,0,0,1,,,,,,,,0,,,87,0
94155,note_on,15,0,1,,,,,,,,0,,,81,0
94155,note_on,0,0,1,,,,,,,,0,,,89,86
94155,note_on,0,0,1,,,,,,,,0,,,82,86
94170,note_on,30,0,2,,,,,,,,1,,,34,0
94170,note_on,0,0,1,,,,,,,,0,,,87,86
94170,note_on,0,0,1,,,,,,,,0,,,81,86
94170,note_on,0,0,1,,,,,,,,0,,,82,0
94170,note_on,15,0,1,,,,,,,,0,,,89,0
94170,note_on,0,0,2,,,,,,,,1,,,46,79
94185,note_on,0,0,1,,,,,,,,0,,,89,86
94185,note_on,0,0,1,,,,,,,,0,,,82,86
94185,note_on,0,0,1,,,,,,,,0,,,87,0
94185,note_on,15,0,1,,,,,,,,0,,,81,0
94200,note_on,0,0,1,,,,,,,,0,,,81,87
94200,note_on,0,0,1,,,,,,,,0,,,87,87
94200,note_on,0,0,2,,,,,,,,1,,,34,79
94200,note_on,15,0,1,,,,,,,,0,,,89,0
94200,note_on,30,0,2,,,,,,,,1,,,46,0
94200,note_on,0,0,1,,,,,,,,0,,,82,0
94215,note_on,0,0,1,,,,,,,,0,,,82,87
94215,note_on,0,0,1,,,,,,,,0,,,87,0
94215,note_on,0,0,1,,,,,,,,0,,,89,87
94215,note_on,15,0,1,,,,,,,,0,,,81,0
94230,note_on,30,0,2,,,,,,,,1,,,34,0
94230,note_on,0,0,1,,,,,,,,0,,,81,87
94230,note_on,0,0,1,,,,,,,,0,,,87,87
94230,note_on,0,0,1,,,,,,,,0,,,82,0
94230,note_on,15,0,1,,,,,,,,0,,,89,0
94230,note_on,0,0,2,,,,,,,,1,,,46,79
94245,note_on,0,0,1,,,,,,,,0,,,89,88
94245,note_on,0,0,1,,,,,,,,0,,,87,0
94245,note_on,15,0,1,,,,,,,,0,,,81,0
94245,note_on,0,0,1,,,,,,,,0,,,82,88
94260,note_on,30,0,2,,,,,,,,1,,,46,0
94260,note_on,0,0,1,,,,,,,,0,,,86,88
94260,note_on,15,0,1,,,,,,,,0,,,89,0
94260,note_on,0,0,2,,,,,,,,1,,,34,79
94260,note_on,0,0,1,,,,,,,,0,,,82,0
94290,note_on,30,0,1,,,,,,,,0,,,86,0
94290,note_on,0,0,2,,,,,,,,1,,,46,79
94290,note_on,30,0,2,,,,,,,,1,,,34,0
94290,note_on,0,0,1,,,,,,,,0,,,87,88
94320,note_on,0,0,2,,,,,,,,1,,,34,79
94320,note_on,0,0,2,,,,,,,,1,,,46,79
94320,note_on,0,0,1,,,,,,,,0,,,86,88
94320,note_on,30,0,1,,,,,,,,0,,,87,0
94320,note_on,30,0,2,,,,,,,,1,,,46,0
94350,note_on,30,0,1,,,,,,,,0,,,86,0
94350,note_on,0,0,1,,,,,,,,0,,,89,89
94380,note_on,0,0,1,,,,,,,,0,,,87,89
94380,note_on,30,0,1,,,,,,,,0,,,89,0
94410,note_on,0,0,1,,,,,,,,0,,,86,90
94410,note_on,30,0,1,,,,,,,,0,,,87,0
94440,note_on,0,0,1,,,,,,,,0,,,84,91
94440,note_on,120,0,2,,,,,,,,1,,,46,0
94440,note_on,30,0,1,,,,,,,,0,,,86,0
94440,note_on,0,0,2,,,,,,,,1,,,34,0
94470,note_on,30,0,1,,,,,,,,0,,,84,0
94470,note_on,0,0,1,,,,,,,,0,,,82,92
94500,note_on,0,0,1,,,,,,,,0,,,81,92
94500,note_on,30,0,1,,,,,,,,0,,,82,0
94530,note_on,0,0,1,,,,,,,,0,,,79,93
94530,note_on,30,0,1,,,,,,,,0,,,81,0
94560,note_on,0,0,1,,,,,,,,0,,,77,94
94560,note_on,30,0,1,,,,,,,,0,,,79,0
94590,note_on,0,0,1,,,,,,,,0,,,75,94
94590,note_on,30,0,1,,,,,,,,0,,,77,0
94620,note_on,30,0,1,,,,,,,,0,,,75,0
94620,note_on,180,0,2,,,,,,,,1,,,53,79
94620,note_on,0,0,1,,,,,,,,0,,,74,94
94620,note_on,0,0,2,,,,,,,,1,,,63,79
94650,note_on,0,0,1,,,,,,,,0,,,72,95
94650,note_on,30,0,1,,,,,,,,0,,,74,0
94680,note_on,0,0,1,,,,,,,,0,,,70,95
94680,note_on,60,0,2,,,,,,,,1,,,63,0
94680,note_on,0,0,2,,,,,,,,1,,,53,0
94680,note_on,30,0,1,,,,,,,,0,,,72,0
94680,note_on,0,0,2,,,,,,,,1,,,62,79
94680,note_on,0,0,2,,,,,,,,1,,,58,79
94710,note_on,0,0,1,,,,,,,,0,,,77,96
94710,note_on,30,0,1,,,,,,,,0,,,70,0
94740,note_on,0,0,1,,,,,,,,0,,,75,97
94740,note_on,30,0,1,,,,,,,,0,,,77,0
94770,note_on,30,0,1,,,,,,,,0,,,75,0
94770,note_on,0,0,1,,,,,,,,0,,,74,97
94800,note_on,30,0,1,,,,,,,,0,,,74,0
94800,note_on,120,0,2,,,,,,,,1,,,58,0
94800,note_on,0,0,2,,,,,,,,1,,,62,0
94800,note_on,0,0,1,,,,,,,,0,,,72,98
94830,note_on,0,0,1,,,,,,,,0,,,70,98
94830,note_on,30,0,1,,,,,,,,0,,,72,0
94860,note_on,0,0,1,,,,,,,,0,,,69,99
94860,note_on,30,0,1,,,,,,,,0,,,70,0
94890,note_on,30,0,1,,,,,,,,0,,,69,0
94890,note_on,0,0,1,,,,,,,,0,,,67,100
94920,note_on,0,0,1,,,,,,,,0,,,65,102
94920,note_on,30,0,1,,,,,,,,0,,,67,0
94950,note_on,0,0,1,,,,,,,,0,,,63,104
94950,note_on,30,0,1,,,,,,,,0,,,65,0
94980,note_on,0,0,1,,,,,,,,0,,,62,105
94980,note_on,180,0,2,,,,,,,,1,,,41,79
94980,note_on,30,0,1,,,,,,,,0,,,63,0
94980,note_on,0,0,2,,,,,,,,1,,,51,79
95010,note_on,30,0,1,,,,,,,,0,,,62,0
95010,note_on,0,0,1,,,,,,,,0,,,60,106
95040,note_on,60,0,2,,,,,,,,1,,,51,0
95040,note_on,0,0,2,,,,,,,,1,,,41,0
95040,note_on,0,0,2,,,,,,,,1,,,50,79
95040,note_on,0,0,2,,,,,,,,1,,,46,79
95040,note_on,30,0,1,,,,,,,,0,,,60,0
95040,note_on,0,0,1,,,,,,,,0,,,58,107
95070,note_on,30,0,1,,,,,,,,0,,,58,0
95070,note_on,0,0,1,,,,,,,,0,,,65,108
95100,note_on,30,0,1,,,,,,,,0,,,65,0
95100,note_on,0,0,1,,,,,,,,0,,,63,109
95130,note_on,0,0,1,,,,,,,,0,,,62,111
95130,note_on,30,0,1,,,,,,,,0,,,63,0
95160,note_on,30,0,1,,,,,,,,0,,,62,0
95160,note_on,0,0,1,,,,,,,,0,,,60,114
95160,note_on,0,0,2,,,,,,,,1,,,50,0
95160,note_on,120,0,2,,,,,,,,1,,,46,0
95190,note_on,0,0,1,,,,,,,,0,,,58,115
95190,note_on,30,0,1,,,,,,,,0,,,60,0
95220,note_on,60,0,2,,,,,,,,1,,,57,84
95220,note_on,30,0,1,,,,,,,,0,,,58,0
95250,note_on,30,0,2,,,,,,,,1,,,57,0
95250,note_on,0,0,2,,,,,,,,1,,,55,86
95280,note_on,30,0,2,,,,,,,,1,,,55,0
95280,note_on,0,0,2,,,,,,,,1,,,53,88
95310,note_on,30,0,2,,,,,,,,1,,,53,0
95310,note_on,0,0,2,,,,,,,,1,,,51,88
95340,note_on,30,0,2,,,,,,,,1,,,51,0
95340,note_on,0,0,2,,,,,,,,1,,,50,90
95370,note_on,30,0,2,,,,,,,,1,,,50,0
95370,note_on,0,0,2,,,,,,,,1,,,48,92
95400,note_on,0,0,2,,,,,,,,1,,,34,94
95400,note_on,30,0,2,,,,,,,,1,,,48,0
95400,note_on,0,0,2,,,,,,,,1,,,46,94
95460,note_on,60,0,2,,,,,,,,1,,,34,0
95460,note_on,0,0,2,,,,,,,,1,,,46,0
95460,note_on,0,0,2,,,,,,,,1,,,50,97
95460,note_on,0,0,2,,,,,,,,1,,,38,97
95520,note_on,60,0,2,,,,,,,,1,,,38,0
95520,note_on,0,0,2,,,,,,,,1,,,50,0
95520,note_on,0,0,2,,,,,,,,1,,,53,102
95520,note_on,0,0,2,,,,,,,,1,,,41,102
95580,note_on,60,0,2,,,,,,,,1,,,41,0
95580,note_on,0,0,2,,,,,,,,1,,,53,0
95580,note_on,0,0,2,,,,,,,,1,,,58,106
95580,note_on,0,0,2,,,,,,,,1,,,46,106
95640,note_on,60,0,2,,,,,,,,1,,,46,0
95640,note_on,0,0,2,,,,,,,,1,,,41,109
95640,note_on,0,0,2,,,,,,,,1,,,58,0
95640,note_on,420,0,1,,,,,,,,0,,,62,127
95640,note_on,0,0,1,,,,,,,,0,,,58,127
95700,note_on,0,0,1,,,,,,,,0,,,62,127
95700,note_on,0,0,2,,,,,,,,1,,,38,112
95700,note_on,60,0,2,,,,,,,,1,,,41,0
95700,note_on,60,0,1,,,,,,,,0,,,58,0
95700,note_on,0,0,1,,,,,,,,0,,,62,0
95700,note_on,0,0,1,,,,,,,,0,,,65,127
95760,note_on,0,0,2,,,,,,,,1,,,34,116
95760,note_on,60,0,2,,,,,,,,1,,,38,0
95760,note_on,60,0,1,,,,,,,,0,,,62,0
95760,note_on,0,0,1,,,,,,,,0,,,65,0
95760,note_on,0,0,1,,,,,,,,0,,,65,123
95760,note_on,0,0,1,,,,,,,,0,,,62,123
95760,note_on,0,0,1,,,,,,,,0,,,70,123
95880,note_on,120,0,1,,,,,,,,0,,,62,0
95880,note_on,0,0,1,,,,,,,,0,,,70,0
95880,note_on,0,0,1,,,,,,,,0,,,65,0
95880,note_on,120,0,2,,,,,,,,1,,,34,0
95940,note_on,60,0,1,,,,,,,,0,,,70,126
95940,note_on,0,0,1,,,,,,,,0,,,74,126
95940,note_on,0,0,1,,,,,,,,0,,,65,126
95940,note_on,0,0,2,,,,,,,,1,,,46,121
95940,note_on,60,0,2,,,,,,,,1,,,34,121
96060,note_on,120,0,2,,,,,,,,1,,,46,0
96060,note_on,0,0,2,,,,,,,,1,,,34,0
96060,note_on,120,0,1,,,,,,,,0,,,65,0
96060,note_on,0,0,1,,,,,,,,0,,,74,0
96060,note_on,0,0,1,,,,,,,,0,,,70,0
96120,note_on,0,0,1,,,,,,,,0,,,65,127
96120,control_change,60,0,1,,,,,,,,0,64,127,,
96120,note_on,0,0,1,,,,,,,,0,,,62,127
96120,note_on,0,0,2,,,,,,,,1,,,46,124
96120,note_on,0,0,2,,,,,,,,1,,,34,124
96120,note_on,0,0,1,,,,,,,,0,,,70,127
96120,control_change,60,0,2,,,,,,,,1,64,127,,
96300,note_on,0,0,2,,,,,,,,1,,,46,0
96300,note_on,180,0,2,,,,,,,,1,,,34,0
96300,note_on,0,0,1,,,,,,,,0,,,70,0
96300,note_on,0,0,1,,,,,,,,0,,,62,0
96300,note_on,180,0,1,,,,,,,,0,,,65,0
97020,end_of_track,0,1,2,,,,,,,,,,,,
97020,control_change,720,0,2,,,,,,,,1,64,0,,
97020,end_of_track,0,1,1,,,,,,,,,,,,
97020,control_change,720,0,1,,,,,,,,0,64,0,,
