tick,type,data,time,meta,track,numerator,denominator,clocks_per_click,notated_32nd_notes_per_beat,key,tempo,port,program,channel,control,value,note,velocity
0,sequencer_specific,"(0, 0, 65)",0,1,0,,,,,,,,,,,,,
0,program_change,,0,0,1,,,,,,,,0,0,,,,
0,program_change,,0,0,1,,,,,,,,0,0,,,,
0,control_change,,0,0,1,,,,,,,,,0,7,127,,
0,control_change,,0,0,1,,,,,,,,,0,10,64,,
0,control_change,,0,0,1,,,,,,,,,0,121,0,,
0,control_change,,0,0,1,,,,,,,,,0,0,0,,
0,control_change,,0,0,1,,,,,,,,,0,7,127,,
0,control_change,,0,0,1,,,,,,,,,0,10,64,,
0,track_name,,0,1,6,,,,,,,,,,,,,
0,midi_port,,0,1,2,,,,,,,0,,,,,,
0,track_name,,0,1,1,,,,,,,,,,,,,
0,track_name,,0,1,2,,,,,,,,,,,,,
0,midi_port,,0,1,3,,,,,,,0,,,,,,
0,track_name,,0,1,3,,,,,,,,,,,,,
0,end_of_track,,0,1,3,,,,,,,,,,,,,
0,midi_port,,0,1,4,,,,,,,0,,,,,,
0,track_name,,0,1,4,,,,,,,,,,,,,
0,end_of_track,,0,1,4,,,,,,,,,,,,,
0,midi_port,,0,1,5,,,,,,,0,,,,,,
0,track_name,,0,1,5,,,,,,,,,,,,,
0,end_of_track,,0,1,5,,,,,,,,,,,,,
0,midi_port,,0,1,6,,,,,,,0,,,,,,
0,end_of_track,,0,1,2,,,,,,,,,,,,,
0,midi_port,,0,1,1,,,,,,,0,,,,,,
0,end_of_track,,0,1,6,,,,,,,,,,,,,
0,set_tempo,,0,1,0,,,,,,377358,,,,,,,
0,time_signature,,0,1,0,3,4,24,8,,,,,,,,,
0,key_signature,,0,1,0,,,,,C,,,,,,,,
235,note_on,,235,0,1,,,,,,,,,0,,,76,84
297,note_on,,62,0,1,,,,,,,,,0,,,75,71
305,note_on,,8,0,1,,,,,,,,,0,,,76,0
362,note_on,,57,0,1,,,,,,,,,0,,,76,80
363,note_on,,1,0,1,,,,,,,,,0,,,75,0
417,note_on,,54,0,1,,,,,,,,,0,,,75,65
432,note_on,,15,0,1,,,,,,,,,0,,,76,0
476,note_on,,44,0,1,,,,,,,,,0,,,76,84
478,note_on,,2,0,1,,,,,,,,,0,,,75,0
535,note_on,,57,0,1,,,,,,,,,0,,,71,69
551,note_on,,16,0,1,,,,,,,,,0,,,76,0
593,note_on,,42,0,1,,,,,,,,,0,,,74,78
600,note_on,,7,0,1,,,,,,,,,0,,,71,0
653,note_on,,53,0,1,,,,,,,,,0,,,74,0
654,note_on,,1,0,1,,,,,,,,,0,,,72,73
715,note_on,,61,0,1,,,,,,,,,0,,,45,65
717,note_on,,2,0,1,,,,,,,,,0,,,69,74
729,note_on,,12,0,1,,,,,,,,,0,,,72,0
760,control_change,,31,0,1,,,,,,,,,0,64,127,,
772,note_on,,12,0,1,,,,,,,,,0,,,45,0
775,note_on,,3,0,1,,,,,,,,,0,,,52,66
835,note_on,,60,0,1,,,,,,,,,0,,,57,63
850,note_on,,15,0,1,,,,,,,,,0,,,52,0
866,note_on,,16,0,1,,,,,,,,,0,,,69,0
894,note_on,,28,0,1,,,,,,,,,0,,,60,71
894,note_on,,0,0,1,,,,,,,,,0,,,57,0
944,note_on,,50,0,1,,,,,,,,,0,,,60,0
951,note_on,,7,0,1,,,,,,,,,0,,,64,67
956,control_change,,5,0,1,,,,,,,,,0,64,0,,
1008,note_on,,52,0,1,,,,,,,,,0,,,69,77
1008,note_on,,0,0,1,,,,,,,,,0,,,64,0
1062,note_on,,54,0,1,,,,,,,,,0,,,71,74
1066,note_on,,4,0,1,,,,,,,,,0,,,40,68
1068,note_on,,2,0,1,,,,,,,,,0,,,69,0
1095,control_change,,27,0,1,,,,,,,,,0,64,127,,
1122,note_on,,27,0,1,,,,,,,,,0,,,52,70
1123,note_on,,1,0,1,,,,,,,,,0,,,71,0
1125,note_on,,2,0,1,,,,,,,,,0,,,40,0
1175,note_on,,50,0,1,,,,,,,,,0,,,56,74
1181,note_on,,6,0,1,,,,,,,,,0,,,52,0
1231,note_on,,50,0,1,,,,,,,,,0,,,64,66
1234,note_on,,3,0,1,,,,,,,,,0,,,56,0
1285,control_change,,51,0,1,,,,,,,,,0,64,0,,
1290,note_on,,5,0,1,,,,,,,,,0,,,68,75
1309,note_on,,19,0,1,,,,,,,,,0,,,64,0
1355,note_on,,46,0,1,,,,,,,,,0,,,71,80
1356,note_on,,1,0,1,,,,,,,,,0,,,68,0
1420,note_on,,0,0,1,,,,,,,,,0,,,71,0
1420,note_on,,64,0,1,,,,,,,,,0,,,45,64
1421,note_on,,1,0,1,,,,,,,,,0,,,72,73
1471,control_change,,50,0,1,,,,,,,,,0,64,127,,
1487,note_on,,16,0,1,,,,,,,,,0,,,52,62
1495,note_on,,8,0,1,,,,,,,,,0,,,45,0
1506,note_on,,11,0,1,,,,,,,,,0,,,72,0
1550,note_on,,44,0,1,,,,,,,,,0,,,57,60
1562,note_on,,12,0,1,,,,,,,,,0,,,52,0
1609,note_on,,47,0,1,,,,,,,,,0,,,57,0
1611,note_on,,2,0,1,,,,,,,,,0,,,64,68
1677,note_on,,66,0,1,,,,,,,,,0,,,76,72
1679,note_on,,2,0,1,,,,,,,,,0,,,64,0
1680,control_change,,1,0,1,,,,,,,,,0,64,0,,
1737,note_on,,57,0,1,,,,,,,,,0,,,75,61
1743,note_on,,6,0,1,,,,,,,,,0,,,76,0
1797,note_on,,54,0,1,,,,,,,,,0,,,75,0
1800,note_on,,3,0,1,,,,,,,,,0,,,76,73
1856,note_on,,56,0,1,,,,,,,,,0,,,75,64
1870,note_on,,14,0,1,,,,,,,,,0,,,76,0
1912,note_on,,42,0,1,,,,,,,,,0,,,76,77
1914,note_on,,2,0,1,,,,,,,,,0,,,75,0
1967,note_on,,53,0,1,,,,,,,,,0,,,71,76
1987,note_on,,20,0,1,,,,,,,,,0,,,76,0
2025,note_on,,38,0,1,,,,,,,,,0,,,74,83
2043,note_on,,18,0,1,,,,,,,,,0,,,71,0
2083,note_on,,40,0,1,,,,,,,,,0,,,72,81
2085,note_on,,2,0,1,,,,,,,,,0,,,74,0
2146,note_on,,61,0,1,,,,,,,,,0,,,69,73
2146,note_on,,0,0,1,,,,,,,,,0,,,45,66
2153,note_on,,7,0,1,,,,,,,,,0,,,72,0
2180,control_change,,27,0,1,,,,,,,,,0,64,127,,
2201,note_on,,21,0,1,,,,,,,,,0,,,45,0
2210,note_on,,9,0,1,,,,,,,,,0,,,52,61
2265,note_on,,55,0,1,,,,,,,,,0,,,52,0
2271,note_on,,6,0,1,,,,,,,,,0,,,57,58
2295,note_on,,24,0,1,,,,,,,,,0,,,69,0
2325,note_on,,30,0,1,,,,,,,,,0,,,60,66
2330,note_on,,5,0,1,,,,,,,,,0,,,57,0
2385,control_change,,55,0,1,,,,,,,,,0,64,0,,
2385,note_on,,0,0,1,,,,,,,,,0,,,64,65
2385,note_on,,0,0,1,,,,,,,,,0,,,60,0
2440,note_on,,55,0,1,,,,,,,,,0,,,64,0
2445,note_on,,5,0,1,,,,,,,,,0,,,69,69
2491,note_on,,46,0,1,,,,,,,,,0,,,69,0
2500,note_on,,0,0,1,,,,,,,,,0,,,71,76
2500,note_on,,9,0,1,,,,,,,,,0,,,40,62
2531,control_change,,31,0,1,,,,,,,,,0,64,127,,
2545,note_on,,14,0,1,,,,,,,,,0,,,40,0
2560,note_on,,15,0,1,,,,,,,,,0,,,52,78
2570,note_on,,10,0,1,,,,,,,,,0,,,71,0
2610,note_on,,40,0,1,,,,,,,,,0,,,52,0
2620,note_on,,10,0,1,,,,,,,,,0,,,56,79
2675,note_on,,55,0,1,,,,,,,,,0,,,64,77
2679,note_on,,4,0,1,,,,,,,,,0,,,56,0
2705,control_change,,26,0,1,,,,,,,,,0,64,0,,
2736,note_on,,31,0,1,,,,,,,,,0,,,72,83
2753,note_on,,17,0,1,,,,,,,,,0,,,64,0
2797,note_on,,44,0,1,,,,,,,,,0,,,72,0
2799,note_on,,2,0,1,,,,,,,,,0,,,71,80
2855,note_on,,56,0,1,,,,,,,,,0,,,71,0
2865,note_on,,10,0,1,,,,,,,,,0,,,69,72
2866,note_on,,1,0,1,,,,,,,,,0,,,45,61
2917,control_change,,51,0,1,,,,,,,,,0,64,127,,
2935,note_on,,18,0,1,,,,,,,,,0,,,52,70
2937,note_on,,2,0,1,,,,,,,,,0,,,69,0
2939,note_on,,2,0,1,,,,,,,,,0,,,45,0
3010,note_on,,71,0,1,,,,,,,,,0,,,57,57
3010,note_on,,0,0,1,,,,,,,,,0,,,52,0
3127,control_change,,117,0,1,,,,,,,,,0,64,0,,
3141,note_on,,14,0,1,,,,,,,,,0,,,76,59
3159,note_on,,18,0,1,,,,,,,,,0,,,57,0
3200,note_on,,41,0,1,,,,,,,,,0,,,75,45
3204,note_on,,4,0,1,,,,,,,,,0,,,76,0
3260,note_on,,56,0,1,,,,,,,,,0,,,76,59
3263,note_on,,3,0,1,,,,,,,,,0,,,75,0
3320,note_on,,57,0,1,,,,,,,,,0,,,75,45
3328,note_on,,8,0,1,,,,,,,,,0,,,76,0
3375,note_on,,47,0,1,,,,,,,,,0,,,76,63
3383,note_on,,8,0,1,,,,,,,,,0,,,75,0
3436,note_on,,53,0,1,,,,,,,,,0,,,71,45
3440,note_on,,4,0,1,,,,,,,,,0,,,76,0
3500,note_on,,60,0,1,,,,,,,,,0,,,74,47
3511,note_on,,11,0,1,,,,,,,,,0,,,71,0
3551,note_on,,40,0,1,,,,,,,,,0,,,74,0
3557,note_on,,6,0,1,,,,,,,,,0,,,72,45
3617,note_on,,60,0,1,,,,,,,,,0,,,69,41
3620,note_on,,3,0,1,,,,,,,,,0,,,45,40
3627,note_on,,7,0,1,,,,,,,,,0,,,72,0
3651,control_change,,24,0,1,,,,,,,,,0,64,127,,
3672,note_on,,21,0,1,,,,,,,,,0,,,45,0
3675,note_on,,3,0,1,,,,,,,,,0,,,52,44
3731,note_on,,56,0,1,,,,,,,,,0,,,57,48
3735,note_on,,4,0,1,,,,,,,,,0,,,52,0
3736,note_on,,1,0,1,,,,,,,,,0,,,69,0
3785,note_on,,49,0,1,,,,,,,,,0,,,60,52
3790,note_on,,5,0,1,,,,,,,,,0,,,57,0
3832,control_change,,42,0,1,,,,,,,,,0,64,0,,
3850,note_on,,18,0,1,,,,,,,,,0,,,64,55
3851,note_on,,1,0,1,,,,,,,,,0,,,60,0
3905,note_on,,54,0,1,,,,,,,,,0,,,69,48
3910,note_on,,5,0,1,,,,,,,,,0,,,64,0
3960,note_on,,50,0,1,,,,,,,,,0,,,71,59
3960,note_on,,0,0,1,,,,,,,,,0,,,69,0
3961,note_on,,1,0,1,,,,,,,,,0,,,40,59
4002,control_change,,41,0,1,,,,,,,,,0,64,127,,
4006,note_on,,4,0,1,,,,,,,,,0,,,40,0
4020,note_on,,14,0,1,,,,,,,,,0,,,52,46
4068,note_on,,48,0,1,,,,,,,,,0,,,52,0
4077,note_on,,9,0,1,,,,,,,,,0,,,56,54
4079,note_on,,2,0,1,,,,,,,,,0,,,71,0
4136,note_on,,57,0,1,,,,,,,,,0,,,56,0
4137,note_on,,1,0,1,,,,,,,,,0,,,64,54
4165,control_change,,28,0,1,,,,,,,,,0,64,0,,
4190,note_on,,25,0,1,,,,,,,,,0,,,68,57
4210,note_on,,20,0,1,,,,,,,,,0,,,64,0
4250,note_on,,40,0,1,,,,,,,,,0,,,71,57
4253,note_on,,3,0,1,,,,,,,,,0,,,68,0
4305,note_on,,52,0,1,,,,,,,,,0,,,71,0
4309,note_on,,4,0,1,,,,,,,,,0,,,72,77
4310,note_on,,1,0,1,,,,,,,,,0,,,45,57
4361,control_change,,51,0,1,,,,,,,,,0,64,127,,
4370,note_on,,0,0,1,,,,,,,,,0,,,45,0
4370,note_on,,9,0,1,,,,,,,,,0,,,52,48
4428,note_on,,58,0,1,,,,,,,,,0,,,72,0
4430,note_on,,2,0,1,,,,,,,,,0,,,52,0
4431,note_on,,1,0,1,,,,,,,,,0,,,57,44
4490,note_on,,59,0,1,,,,,,,,,0,,,57,0
4496,note_on,,6,0,1,,,,,,,,,0,,,64,53
4521,control_change,,25,0,1,,,,,,,,,0,64,0,,
4557,note_on,,36,0,1,,,,,,,,,0,,,76,67
4561,note_on,,4,0,1,,,,,,,,,0,,,64,0
4615,note_on,,54,0,1,,,,,,,,,0,,,75,53
4625,note_on,,10,0,1,,,,,,,,,0,,,76,0
4670,note_on,,45,0,1,,,,,,,,,0,,,76,67
4675,note_on,,5,0,1,,,,,,,,,0,,,75,0
4731,note_on,,56,0,1,,,,,,,,,0,,,75,59
4742,note_on,,11,0,1,,,,,,,,,0,,,76,0
4785,note_on,,43,0,1,,,,,,,,,0,,,76,69
4786,note_on,,1,0,1,,,,,,,,,0,,,75,0
4842,note_on,,56,0,1,,,,,,,,,0,,,71,55
4857,note_on,,15,0,1,,,,,,,,,0,,,76,0
4906,note_on,,49,0,1,,,,,,,,,0,,,74,65
4930,note_on,,24,0,1,,,,,,,,,0,,,71,0
4970,note_on,,40,0,1,,,,,,,,,0,,,72,59
4971,note_on,,1,0,1,,,,,,,,,0,,,74,0
5035,note_on,,64,0,1,,,,,,,,,0,,,69,71
5036,note_on,,1,0,1,,,,,,,,,0,,,45,62
5040,note_on,,4,0,1,,,,,,,,,0,,,72,0
5066,control_change,,26,0,1,,,,,,,,,0,64,127,,
5094,note_on,,28,0,1,,,,,,,,,0,,,45,0
5100,note_on,,6,0,1,,,,,,,,,0,,,52,69
5154,note_on,,54,0,1,,,,,,,,,0,,,69,0
5155,note_on,,1,0,1,,,,,,,,,0,,,57,69
5158,note_on,,3,0,1,,,,,,,,,0,,,52,0
5214,note_on,,56,0,1,,,,,,,,,0,,,57,0
5216,note_on,,2,0,1,,,,,,,,,0,,,60,76
5225,control_change,,9,0,1,,,,,,,,,0,64,0,,
5270,note_on,,45,0,1,,,,,,,,,0,,,64,78
5276,note_on,,6,0,1,,,,,,,,,0,,,60,0
5330,note_on,,54,0,1,,,,,,,,,0,,,69,77
5335,note_on,,5,0,1,,,,,,,,,0,,,64,0
5380,note_on,,45,0,1,,,,,,,,,0,,,69,0
5385,note_on,,0,0,1,,,,,,,,,0,,,40,65
5385,note_on,,5,0,1,,,,,,,,,0,,,71,79
5425,control_change,,40,0,1,,,,,,,,,0,64,127,,
5430,note_on,,5,0,1,,,,,,,,,0,,,40,0
5445,note_on,,15,0,1,,,,,,,,,0,,,52,68
5503,note_on,,58,0,1,,,,,,,,,0,,,52,0
5504,note_on,,1,0,1,,,,,,,,,0,,,71,0
5510,note_on,,6,0,1,,,,,,,,,0,,,56,75
5560,note_on,,50,0,1,,,,,,,,,0,,,56,0
5566,note_on,,6,0,1,,,,,,,,,0,,,64,83
5585,control_change,,19,0,1,,,,,,,,,0,64,0,,
5630,note_on,,45,0,1,,,,,,,,,0,,,72,86
5637,note_on,,7,0,1,,,,,,,,,0,,,64,0
5688,note_on,,51,0,1,,,,,,,,,0,,,72,0
5694,note_on,,6,0,1,,,,,,,,,0,,,71,75
5752,note_on,,58,0,1,,,,,,,,,0,,,71,0
5760,note_on,,8,0,1,,,,,,,,,0,,,45,65
5762,note_on,,2,0,1,,,,,,,,,0,,,69,71
5810,control_change,,48,0,1,,,,,,,,,0,64,127,,
5825,note_on,,15,0,1,,,,,,,,,0,,,52,67
5825,note_on,,0,0,1,,,,,,,,,0,,,45,0
5830,note_on,,5,0,1,,,,,,,,,0,,,69,0
5890,note_on,,60,0,1,,,,,,,,,0,,,57,66
5900,note_on,,10,0,1,,,,,,,,,0,,,52,0
5931,note_on,,31,0,1,,,,,,,,,0,,,57,0
5946,note_on,,15,0,1,,,,,,,,,0,,,71,82
6005,note_on,,59,0,1,,,,,,,,,0,,,72,88
6010,control_change,,5,0,1,,,,,,,,,0,64,0,,
6029,note_on,,19,0,1,,,,,,,,,0,,,71,0
6066,note_on,,37,0,1,,,,,,,,,0,,,74,90
6086,note_on,,20,0,1,,,,,,,,,0,,,72,0
6133,note_on,,47,0,1,,,,,,,,,0,,,76,94
6133,note_on,,0,0,1,,,,,,,,,0,,,48,68
6136,note_on,,3,0,1,,,,,,,,,0,,,74,0
6193,note_on,,57,0,1,,,,,,,,,0,,,48,0
6195,note_on,,2,0,1,,,,,,,,,0,,,55,80
6201,control_change,,6,0,1,,,,,,,,,0,64,127,,
6246,note_on,,45,0,1,,,,,,,,,0,,,76,0
6256,note_on,,10,0,1,,,,,,,,,0,,,60,93
6277,note_on,,21,0,1,,,,,,,,,0,,,55,0
6310,note_on,,33,0,1,,,,,,,,,0,,,67,97
6338,note_on,,28,0,1,,,,,,,,,0,,,60,0
6360,control_change,,22,0,1,,,,,,,,,0,64,0,,
6365,note_on,,5,0,1,,,,,,,,,0,,,77,101
6395,note_on,,30,0,1,,,,,,,,,0,,,67,0
6425,note_on,,30,0,1,,,,,,,,,0,,,76,96
6445,note_on,,20,0,1,,,,,,,,,0,,,77,0
6485,note_on,,40,0,1,,,,,,,,,0,,,74,96
6486,note_on,,1,0,1,,,,,,,,,0,,,43,76
6497,note_on,,11,0,1,,,,,,,,,0,,,76,0
6530,control_change,,33,0,1,,,,,,,,,0,64,127,,
6539,note_on,,9,0,1,,,,,,,,,0,,,43,0
6547,note_on,,8,0,1,,,,,,,,,0,,,55,86
6600,note_on,,53,0,1,,,,,,,,,0,,,55,0
6604,note_on,,4,0,1,,,,,,,,,0,,,74,0
6605,note_on,,1,0,1,,,,,,,,,0,,,59,84
6650,note_on,,45,0,1,,,,,,,,,0,,,59,0
6660,note_on,,10,0,1,,,,,,,,,0,,,65,93
6706,control_change,,46,0,1,,,,,,,,,0,64,0,,
6725,note_on,,19,0,1,,,,,,,,,0,,,76,96
6752,note_on,,27,0,1,,,,,,,,,0,,,65,0
6786,note_on,,34,0,1,,,,,,,,,0,,,74,83
6800,note_on,,14,0,1,,,,,,,,,0,,,76,0
6847,note_on,,47,0,1,,,,,,,,,0,,,72,87
6848,note_on,,1,0,1,,,,,,,,,0,,,45,71
6856,note_on,,8,0,1,,,,,,,,,0,,,74,0
6887,control_change,,31,0,1,,,,,,,,,0,64,127,,
6911,note_on,,24,0,1,,,,,,,,,0,,,52,81
6923,note_on,,12,0,1,,,,,,,,,0,,,45,0
6966,note_on,,43,0,1,,,,,,,,,0,,,72,0
6973,note_on,,7,0,1,,,,,,,,,0,,,57,66
6979,note_on,,6,0,1,,,,,,,,,0,,,52,0
7031,note_on,,52,0,1,,,,,,,,,0,,,64,78
7040,note_on,,9,0,1,,,,,,,,,0,,,57,0
7056,control_change,,16,0,1,,,,,,,,,0,64,0,,
7093,note_on,,37,0,1,,,,,,,,,0,,,74,84
7111,note_on,,18,0,1,,,,,,,,,0,,,64,0
7148,note_on,,37,0,1,,,,,,,,,0,,,74,0
7150,note_on,,2,0,1,,,,,,,,,0,,,72,81
7220,note_on,,70,0,1,,,,,,,,,0,,,71,78
7221,note_on,,1,0,1,,,,,,,,,0,,,40,63
7222,note_on,,1,0,1,,,,,,,,,0,,,72,0
7260,control_change,,38,0,1,,,,,,,,,0,64,127,,
7279,note_on,,19,0,1,,,,,,,,,0,,,40,0
7290,note_on,,11,0,1,,,,,,,,,0,,,52,64
7345,note_on,,55,0,1,,,,,,,,,0,,,52,0
7362,note_on,,17,0,1,,,,,,,,,0,,,71,0
7369,note_on,,7,0,1,,,,,,,,,0,,,64,75
7455,note_on,,86,0,1,,,,,,,,,0,,,64,0
7458,note_on,,3,0,1,,,,,,,,,0,,,76,77
7496,note_on,,38,0,1,,,,,,,,,0,,,76,0
7536,note_on,,40,0,1,,,,,,,,,0,,,64,67
7576,note_on,,40,0,1,,,,,,,,,0,,,64,0
7606,note_on,,30,0,1,,,,,,,,,0,,,76,63
7631,note_on,,25,0,1,,,,,,,,,0,,,76,0
7671,note_on,,40,0,1,,,,,,,,,0,,,76,58
7730,note_on,,59,0,1,,,,,,,,,0,,,76,0
7740,note_on,,10,0,1,,,,,,,,,0,,,88,57
7777,note_on,,37,0,1,,,,,,,,,0,,,88,0
7814,note_on,,37,0,1,,,,,,,,,0,,,75,71
7889,note_on,,75,0,1,,,,,,,,,0,,,75,0
7901,note_on,,12,0,1,,,,,,,,,0,,,76,64
7971,note_on,,70,0,1,,,,,,,,,0,,,76,0
7982,note_on,,11,0,1,,,,,,,,,0,,,75,66
7986,control_change,,4,0,1,,,,,,,,,0,64,0,,
8060,note_on,,74,0,1,,,,,,,,,0,,,76,60
8064,note_on,,4,0,1,,,,,,,,,0,,,75,0
8141,note_on,,77,0,1,,,,,,,,,0,,,75,57
8165,note_on,,24,0,1,,,,,,,,,0,,,76,0
8236,note_on,,71,0,1,,,,,,,,,0,,,76,65
8241,note_on,,5,0,1,,,,,,,,,0,,,75,0
8351,note_on,,110,0,1,,,,,,,,,0,,,75,58
8357,note_on,,6,0,1,,,,,,,,,0,,,76,0
8444,note_on,,87,0,1,,,,,,,,,0,,,75,0
8455,note_on,,11,0,1,,,,,,,,,0,,,76,66
8540,note_on,,85,0,1,,,,,,,,,0,,,75,59
8540,note_on,,0,0,1,,,,,,,,,0,,,76,0
8610,note_on,,70,0,1,,,,,,,,,0,,,76,71
8615,note_on,,5,0,1,,,,,,,,,0,,,75,0
8680,note_on,,65,0,1,,,,,,,,,0,,,75,62
8690,note_on,,10,0,1,,,,,,,,,0,,,76,0
8740,note_on,,50,0,1,,,,,,,,,0,,,76,77
8743,note_on,,3,0,1,,,,,,,,,0,,,75,0
8805,note_on,,62,0,1,,,,,,,,,0,,,71,69
8827,note_on,,22,0,1,,,,,,,,,0,,,76,0
8871,note_on,,44,0,1,,,,,,,,,0,,,74,79
8902,note_on,,31,0,1,,,,,,,,,0,,,71,0
8941,note_on,,39,0,1,,,,,,,,,0,,,72,73
8946,note_on,,5,0,1,,,,,,,,,0,,,74,0
9015,note_on,,69,0,1,,,,,,,,,0,,,69,77
9017,note_on,,2,0,1,,,,,,,,,0,,,45,69
9019,note_on,,2,0,1,,,,,,,,,0,,,72,0
9056,control_change,,37,0,1,,,,,,,,,0,64,127,,
9072,note_on,,16,0,1,,,,,,,,,0,,,45,0
9076,note_on,,4,0,1,,,,,,,,,0,,,52,66
9134,note_on,,58,0,1,,,,,,,,,0,,,69,0
9136,note_on,,2,0,1,,,,,,,,,0,,,57,68
9136,note_on,,0,0,1,,,,,,,,,0,,,52,0
9164,note_on,,28,0,1,,,,,,,,,0,,,57,0
9190,note_on,,26,0,1,,,,,,,,,0,,,60,81
9248,note_on,,58,0,1,,,,,,,,,0,,,60,0
9251,note_on,,3,0,1,,,,,,,,,0,,,64,78
9257,control_change,,6,0,1,,,,,,,,,0,64,0,,
9301,note_on,,44,0,1,,,,,,,,,0,,,64,0
9305,note_on,,4,0,1,,,,,,,,,0,,,69,83
9355,note_on,,50,0,1,,,,,,,,,0,,,69,0
9357,note_on,,2,0,1,,,,,,,,,0,,,71,83
9360,note_on,,3,0,1,,,,,,,,,0,,,40,65
9390,control_change,,30,0,1,,,,,,,,,0,64,127,,
9400,note_on,,10,0,1,,,,,,,,,0,,,40,0
9417,note_on,,17,0,1,,,,,,,,,0,,,52,73
9469,note_on,,52,0,1,,,,,,,,,0,,,52,0
9475,note_on,,6,0,1,,,,,,,,,0,,,56,81
9476,note_on,,1,0,1,,,,,,,,,0,,,71,0
9527,note_on,,51,0,1,,,,,,,,,0,,,56,0
9530,note_on,,3,0,1,,,,,,,,,0,,,64,77
9572,control_change,,42,0,1,,,,,,,,,0,64,0,,
9587,note_on,,15,0,1,,,,,,,,,0,,,68,82
9600,note_on,,13,0,1,,,,,,,,,0,,,64,0
9645,note_on,,45,0,1,,,,,,,,,0,,,68,0
9647,note_on,,2,0,1,,,,,,,,,0,,,71,85
9697,note_on,,50,0,1,,,,,,,,,0,,,71,0
9705,note_on,,8,0,1,,,,,,,,,0,,,72,88
9705,note_on,,0,0,1,,,,,,,,,0,,,45,66
9732,control_change,,27,0,1,,,,,,,,,0,64,127,,
9762,note_on,,30,0,1,,,,,,,,,0,,,45,0
9765,note_on,,3,0,1,,,,,,,,,0,,,52,63
9824,note_on,,59,0,1,,,,,,,,,0,,,72,0
9826,note_on,,2,0,1,,,,,,,,,0,,,57,67
9830,note_on,,4,0,1,,,,,,,,,0,,,52,0
9893,note_on,,63,0,1,,,,,,,,,0,,,57,0
9895,note_on,,2,0,1,,,,,,,,,0,,,64,78
9955,note_on,,0,0,1,,,,,,,,,0,,,64,0
9955,control_change,,60,0,1,,,,,,,,,0,64,0,,
9960,note_on,,5,0,1,,,,,,,,,0,,,76,81
10018,note_on,,58,0,1,,,,,,,,,0,,,75,83
10021,note_on,,3,0,1,,,,,,,,,0,,,76,0
10075,note_on,,54,0,1,,,,,,,,,0,,,76,83
10083,note_on,,8,0,1,,,,,,,,,0,,,75,0
10136,note_on,,53,0,1,,,,,,,,,0,,,75,77
10151,note_on,,15,0,1,,,,,,,,,0,,,76,0
10191,note_on,,40,0,1,,,,,,,,,0,,,75,0
10193,note_on,,2,0,1,,,,,,,,,0,,,76,78
10249,note_on,,56,0,1,,,,,,,,,0,,,71,77
10258,note_on,,9,0,1,,,,,,,,,0,,,76,0
10306,note_on,,48,0,1,,,,,,,,,0,,,74,80
10324,note_on,,18,0,1,,,,,,,,,0,,,71,0
10366,note_on,,42,0,1,,,,,,,,,0,,,72,75
10366,note_on,,0,0,1,,,,,,,,,0,,,74,0
10430,note_on,,64,0,1,,,,,,,,,0,,,69,76
10433,note_on,,3,0,1,,,,,,,,,0,,,45,62
10434,note_on,,1,0,1,,,,,,,,,0,,,72,0
10471,control_change,,37,0,1,,,,,,,,,0,64,127,,
10490,note_on,,19,0,1,,,,,,,,,0,,,52,68
10493,note_on,,3,0,1,,,,,,,,,0,,,45,0
10545,note_on,,52,0,1,,,,,,,,,0,,,52,0
10550,note_on,,5,0,1,,,,,,,,,0,,,57,63
10579,note_on,,29,0,1,,,,,,,,,0,,,69,0
10610,note_on,,31,0,1,,,,,,,,,0,,,60,71
10610,note_on,,0,0,1,,,,,,,,,0,,,57,0
10620,control_change,,10,0,1,,,,,,,,,0,64,0,,
10675,note_on,,55,0,1,,,,,,,,,0,,,64,75
10690,note_on,,15,0,1,,,,,,,,,0,,,60,0
10736,note_on,,46,0,1,,,,,,,,,0,,,69,78
10740,note_on,,4,0,1,,,,,,,,,0,,,64,0
10789,note_on,,49,0,1,,,,,,,,,0,,,69,0
10792,note_on,,3,0,1,,,,,,,,,0,,,40,66
10793,note_on,,1,0,1,,,,,,,,,0,,,71,78
10825,control_change,,32,0,1,,,,,,,,,0,64,127,,
10837,note_on,,12,0,1,,,,,,,,,0,,,40,0
10850,note_on,,13,0,1,,,,,,,,,0,,,52,80
10900,note_on,,50,0,1,,,,,,,,,0,,,52,0
10910,note_on,,10,0,1,,,,,,,,,0,,,56,74
10912,note_on,,2,0,1,,,,,,,,,0,,,71,0
10970,note_on,,58,0,1,,,,,,,,,0,,,56,0
10972,note_on,,2,0,1,,,,,,,,,0,,,64,78
10996,control_change,,24,0,1,,,,,,,,,0,64,0,,
11035,note_on,,39,0,1,,,,,,,,,0,,,72,83
11049,note_on,,14,0,1,,,,,,,,,0,,,64,0
11102,note_on,,53,0,1,,,,,,,,,0,,,72,0
11106,note_on,,4,0,1,,,,,,,,,0,,,71,72
11163,note_on,,57,0,1,,,,,,,,,0,,,71,0
11175,note_on,,12,0,1,,,,,,,,,0,,,45,69
11176,note_on,,1,0,1,,,,,,,,,0,,,69,80
11200,control_change,,24,0,1,,,,,,,,,0,64,127,,
11226,set_tempo,,11226,1,0,,,,,,372670,,,,,,,
11230,set_tempo,,4,1,0,,,,,,375000,,,,,,,
11232,set_tempo,,2,1,0,,,,,,377358,,,,,,,
11236,set_tempo,,4,1,0,,,,,,382165,,,,,,,
11240,set_tempo,,4,1,0,,,,,,384615,,,,,,,
11244,set_tempo,,4,1,0,,,,,,387096,,,,,,,
11245,note_on,,45,0,1,,,,,,,,,0,,,52,78
11248,set_tempo,,4,1,0,,,,,,392156,,,,,,,
11260,note_on,,15,0,1,,,,,,,,,0,,,45,0
11280,set_tempo,,32,1,0,,,,,,397350,,,,,,,
11292,set_tempo,,12,1,0,,,,,,402684,,,,,,,
11304,set_tempo,,12,1,0,,,,,,405405,,,,,,,
11316,set_tempo,,12,1,0,,,,,,408163,,,,,,,
11320,note_on,,60,0,1,,,,,,,,,0,,,52,0
11322,note_on,,2,0,1,,,,,,,,,0,,,57,67
11328,set_tempo,,12,1,0,,,,,,413793,,,,,,,
11355,note_on,,33,0,1,,,,,,,,,0,,,69,0
11360,set_tempo,,32,1,0,,,,,,419580,,,,,,,
11372,set_tempo,,12,1,0,,,,,,425531,,,,,,,
11389,note_on,,34,0,1,,,,,,,,,0,,,57,0
11396,set_tempo,,24,1,0,,,,,,431654,,,,,,,
11412,set_tempo,,16,1,0,,,,,,434782,,,,,,,
11424,set_tempo,,12,1,0,,,,,,437956,,,,,,,
11425,note_on,,0,0,1,,,,,,,,,0,,,60,87
11425,note_on,,36,0,1,,,,,,,,,0,,,72,77
11425,note_on,,0,0,1,,,,,,,,,0,,,64,63
11427,note_on,,2,0,1,,,,,,,,,0,,,58,60
11430,control_change,,3,0,1,,,,,,,,,0,64,0,,
11440,set_tempo,,16,1,0,,,,,,444444,,,,,,,
11461,note_on,,31,0,1,,,,,,,,,0,,,64,0
11463,note_on,,2,0,1,,,,,,,,,0,,,60,0
11464,set_tempo,,24,1,0,,,,,,451127,,,,,,,
11466,control_change,,3,0,1,,,,,,,,,0,64,127,,
11476,set_tempo,,12,1,0,,,,,,454545,,,,,,,
11484,note_on,,18,0,1,,,,,,,,,0,,,72,0
11488,set_tempo,,12,1,0,,,,,,458015,,,,,,,
11500,set_tempo,,12,1,0,,,,,,465116,,,,,,,
11502,note_on,,18,0,1,,,,,,,,,0,,,58,0
11509,note_on,,7,0,1,,,,,,,,,0,,,65,75
11509,note_on,,0,0,1,,,,,,,,,0,,,72,84
11510,note_on,,1,0,1,,,,,,,,,0,,,57,69
11510,note_on,,0,0,1,,,,,,,,,0,,,60,82
11512,set_tempo,,12,1,0,,,,,,468750,,,,,,,
11516,set_tempo,,4,1,0,,,,,,472440,,,,,,,
11528,set_tempo,,12,1,0,,,,,,480000,,,,,,,
11536,set_tempo,,8,1,0,,,,,,483870,,,,,,,
11539,note_on,,29,0,1,,,,,,,,,0,,,65,0
11540,set_tempo,,4,1,0,,,,,,487804,,,,,,,
11547,note_on,,8,0,1,,,,,,,,,0,,,60,0
11548,set_tempo,,8,1,0,,,,,,495867,,,,,,,
11564,set_tempo,,16,1,0,,,,,,504201,,,,,,,
11565,note_on,,18,0,1,,,,,,,,,0,,,57,0
11568,note_on,,3,0,1,,,,,,,,,0,,,72,0
11572,set_tempo,,8,1,0,,,,,,512820,,,,,,,
11580,note_on,,0,0,1,,,,,,,,,0,,,72,93
11580,note_on,,0,0,1,,,,,,,,,0,,,64,71
11580,note_on,,0,0,1,,,,,,,,,0,,,60,73
11580,note_on,,0,0,1,,,,,,,,,0,,,55,77
11580,note_on,,12,0,1,,,,,,,,,0,,,67,82
11580,note_on,,0,0,1,,,,,,,,,0,,,58,67
11580,set_tempo,,8,1,0,,,,,,517241,,,,,,,
11592,set_tempo,,12,1,0,,,,,,521739,,,,,,,
11596,set_tempo,,4,1,0,,,,,,526315,,,,,,,
11608,set_tempo,,12,1,0,,,,,,530973,,,,,,,
11620,set_tempo,,12,1,0,,,,,,540540,,,,,,,
11628,set_tempo,,8,1,0,,,,,,550458,,,,,,,
11639,note_on,,59,0,1,,,,,,,,,0,,,72,0
11639,note_on,,0,0,1,,,,,,,,,0,,,67,0
11639,note_on,,0,0,1,,,,,,,,,0,,,64,0
11639,note_on,,0,0,1,,,,,,,,,0,,,60,0
11639,note_on,,0,0,1,,,,,,,,,0,,,55,0
11639,note_on,,0,0,1,,,,,,,,,0,,,58,0
11644,set_tempo,,16,1,0,,,,,,555555,,,,,,,
11646,note_on,,7,0,1,,,,,,,,,0,,,65,76
11648,set_tempo,,4,1,0,,,,,,560747,,,,,,,
11654,set_tempo,,6,1,0,,,,,,566037,,,,,,,
11658,set_tempo,,4,1,0,,,,,,571428,,,,,,,
11664,set_tempo,,6,1,0,,,,,,576923,,,,,,,
11669,note_on,,23,0,1,,,,,,,,,0,,,69,81
11670,set_tempo,,6,1,0,,,,,,582524,,,,,,,
11674,note_on,,5,0,1,,,,,,,,,0,,,65,0
11682,control_change,,8,0,1,,,,,,,,,0,64,0,,
11688,set_tempo,,18,1,0,,,,,,428571,,,,,,,
11695,note_on,,13,0,1,,,,,,,,,0,,,72,103
11696,note_on,,1,0,1,,,,,,,,,0,,,53,85
11699,note_on,,3,0,1,,,,,,,,,0,,,69,0
11740,control_change,,41,0,1,,,,,,,,,0,64,127,,
11747,note_on,,7,0,1,,,,,,,,,0,,,57,71
11780,note_on,,33,0,1,,,,,,,,,0,,,72,0
11781,note_on,,1,0,1,,,,,,,,,0,,,53,0
11800,note_on,,19,0,1,,,,,,,,,0,,,60,80
11812,note_on,,12,0,1,,,,,,,,,0,,,57,0
11847,note_on,,35,0,1,,,,,,,,,0,,,57,91
11850,note_on,,3,0,1,,,,,,,,,0,,,60,0
11892,note_on,,42,0,1,,,,,,,,,0,,,57,0
11894,note_on,,2,0,1,,,,,,,,,0,,,60,89
11895,note_on,,1,0,1,,,,,,,,,0,,,77,112
11939,note_on,,44,0,1,,,,,,,,,0,,,57,82
11940,note_on,,1,0,1,,,,,,,,,0,,,77,0
11945,note_on,,5,0,1,,,,,,,,,0,,,60,0
11972,note_on,,27,0,1,,,,,,,,,0,,,76,97
11987,note_on,,15,0,1,,,,,,,,,0,,,76,0
11990,note_on,,3,0,1,,,,,,,,,0,,,57,0
11995,note_on,,5,0,1,,,,,,,,,0,,,76,106
11996,note_on,,1,0,1,,,,,,,,,0,,,53,80
12000,control_change,,4,0,1,,,,,,,,,0,64,0,,
12045,control_change,,45,0,1,,,,,,,,,0,64,127,,
12045,note_on,,0,0,1,,,,,,,,,0,,,58,99
12054,note_on,,9,0,1,,,,,,,,,0,,,53,0
12092,note_on,,38,0,1,,,,,,,,,0,,,74,110
12092,note_on,,0,0,1,,,,,,,,,0,,,76,0
12095,note_on,,3,0,1,,,,,,,,,0,,,62,75
12095,note_on,,0,0,1,,,,,,,,,0,,,58,0
12135,note_on,,40,0,1,,,,,,,,,0,,,58,97
12138,note_on,,3,0,1,,,,,,,,,0,,,62,0
12155,note_on,,17,0,1,,,,,,,,,0,,,74,0
12180,note_on,,25,0,1,,,,,,,,,0,,,58,0
12182,note_on,,2,0,1,,,,,,,,,0,,,82,110
12185,note_on,,3,0,1,,,,,,,,,0,,,62,75
12205,note_on,,20,0,1,,,,,,,,,0,,,82,0
12225,note_on,,20,0,1,,,,,,,,,0,,,58,84
12230,note_on,,5,0,1,,,,,,,,,0,,,62,0
12256,note_on,,26,0,1,,,,,,,,,0,,,81,103
12272,note_on,,16,0,1,,,,,,,,,0,,,81,0
12278,note_on,,6,0,1,,,,,,,,,0,,,58,0
12285,control_change,,7,0,1,,,,,,,,,0,64,0,,
12285,note_on,,0,0,1,,,,,,,,,0,,,81,112
12286,note_on,,1,0,1,,,,,,,,,0,,,53,84
12330,control_change,,44,0,1,,,,,,,,,0,64,127,,
12333,note_on,,3,0,1,,,,,,,,,0,,,64,76
12336,note_on,,3,0,1,,,,,,,,,0,,,79,109
12336,note_on,,0,0,1,,,,,,,,,0,,,53,0
12355,note_on,,19,0,1,,,,,,,,,0,,,81,0
12380,note_on,,25,0,1,,,,,,,,,0,,,77,110
12381,note_on,,1,0,1,,,,,,,,,0,,,58,81
12381,note_on,,0,0,1,,,,,,,,,0,,,64,0
12382,note_on,,1,0,1,,,,,,,,,0,,,53,57
12383,note_on,,1,0,1,,,,,,,,,0,,,55,81
12386,note_on,,3,0,1,,,,,,,,,0,,,79,0
12391,control_change,,5,0,1,,,,,,,,,0,64,0,,
12412,note_on,,21,0,1,,,,,,,,,0,,,53,0
12425,control_change,,13,0,1,,,,,,,,,0,64,127,,
12426,note_on,,1,0,1,,,,,,,,,0,,,58,0
12428,note_on,,2,0,1,,,,,,,,,0,,,55,0
12431,note_on,,3,0,1,,,,,,,,,0,,,76,117
12431,note_on,,0,0,1,,,,,,,,,0,,,64,83
12443,note_on,,12,0,1,,,,,,,,,0,,,77,0
12471,note_on,,0,0,1,,,,,,,,,0,,,64,0
12471,control_change,,28,0,1,,,,,,,,,0,64,0,,
12480,note_on,,0,0,1,,,,,,,,,0,,,55,73
12480,note_on,,9,0,1,,,,,,,,,0,,,74,107
12481,note_on,,1,0,1,,,,,,,,,0,,,58,66
12482,note_on,,1,0,1,,,,,,,,,0,,,53,75
12495,control_change,,13,0,1,,,,,,,,,0,64,127,,
12497,note_on,,2,0,1,,,,,,,,,0,,,76,0
12522,note_on,,25,0,1,,,,,,,,,0,,,74,0
12524,note_on,,2,0,1,,,,,,,,,0,,,53,0
12526,note_on,,2,0,1,,,,,,,,,0,,,55,0
12526,note_on,,0,0,1,,,,,,,,,0,,,58,0
12532,note_on,,0,0,1,,,,,,,,,0,,,64,76
12532,note_on,,6,0,1,,,,,,,,,0,,,72,109
12555,note_on,,23,0,1,,,,,,,,,0,,,64,0
12572,control_change,,17,0,1,,,,,,,,,0,64,0,,
12580,note_on,,8,0,1,,,,,,,,,0,,,70,115
12582,note_on,,2,0,1,,,,,,,,,0,,,53,70
12602,note_on,,20,0,1,,,,,,,,,0,,,72,0
12633,note_on,,31,0,1,,,,,,,,,0,,,53,0
12635,note_on,,2,0,1,,,,,,,,,0,,,57,71
12635,control_change,,0,0,1,,,,,,,,,0,64,127,,
12682,note_on,,47,0,1,,,,,,,,,0,,,70,0
12683,note_on,,1,0,1,,,,,,,,,0,,,57,0
12688,note_on,,5,0,1,,,,,,,,,0,,,69,103
12688,note_on,,0,0,1,,,,,,,,,0,,,60,74
12713,note_on,,25,0,1,,,,,,,,,0,,,69,0
12733,note_on,,20,0,1,,,,,,,,,0,,,60,0
12737,note_on,,4,0,1,,,,,,,,,0,,,57,78
12767,note_on,,30,0,1,,,,,,,,,0,,,57,0
12780,note_on,,13,0,1,,,,,,,,,0,,,70,98
12781,note_on,,1,0,1,,,,,,,,,0,,,60,97
12797,note_on,,16,0,1,,,,,,,,,0,,,69,101
12802,note_on,,5,0,1,,,,,,,,,0,,,70,0
12807,control_change,,5,0,1,,,,,,,,,0,64,0,,
12815,note_on,,8,0,1,,,,,,,,,0,,,69,0
12816,note_on,,1,0,1,,,,,,,,,0,,,67,100
12831,note_on,,15,0,1,,,,,,,,,0,,,60,0
12834,note_on,,3,0,1,,,,,,,,,0,,,67,0
12835,note_on,,1,0,1,,,,,,,,,0,,,69,107
12836,note_on,,1,0,1,,,,,,,,,0,,,57,77
12860,note_on,,24,0,1,,,,,,,,,0,,,70,99
12865,note_on,,5,0,1,,,,,,,,,0,,,69,0
12882,note_on,,17,0,1,,,,,,,,,0,,,57,0
12888,note_on,,0,0,1,,,,,,,,,0,,,53,74
12888,note_on,,6,0,1,,,,,,,,,0,,,72,109
12893,note_on,,5,0,1,,,,,,,,,0,,,70,0
12934,note_on,,41,0,1,,,,,,,,,0,,,53,0
12937,control_change,,3,0,1,,,,,,,,,0,64,127,,
12937,note_on,,0,0,1,,,,,,,,,0,,,57,74
12987,note_on,,50,0,1,,,,,,,,,0,,,60,80
12992,note_on,,5,0,1,,,,,,,,,0,,,57,0
13036,note_on,,44,0,1,,,,,,,,,0,,,57,71
13037,note_on,,1,0,1,,,,,,,,,0,,,72,0
13044,note_on,,7,0,1,,,,,,,,,0,,,60,0
13079,note_on,,35,0,1,,,,,,,,,0,,,57,0
13086,note_on,,7,0,1,,,,,,,,,0,,,74,111
13087,note_on,,1,0,1,,,,,,,,,0,,,60,89
13137,note_on,,50,0,1,,,,,,,,,0,,,60,0
13142,note_on,,5,0,1,,,,,,,,,0,,,57,84
13142,note_on,,0,0,1,,,,,,,,,0,,,75,112
13146,note_on,,4,0,1,,,,,,,,,0,,,74,0
13165,note_on,,19,0,1,,,,,,,,,0,,,57,0
13200,note_on,,35,0,1,,,,,,,,,0,,,76,115
13200,note_on,,0,0,1,,,,,,,,,0,,,52,69
13207,control_change,,7,0,1,,,,,,,,,0,64,0,,
13207,note_on,,0,0,1,,,,,,,,,0,,,75,0
13250,note_on,,43,0,1,,,,,,,,,0,,,57,84
13270,control_change,,20,0,1,,,,,,,,,0,64,127,,
13301,note_on,,31,0,1,,,,,,,,,0,,,60,90
13303,note_on,,2,0,1,,,,,,,,,0,,,57,0
13320,note_on,,17,0,1,,,,,,,,,0,,,76,0
13340,note_on,,20,0,1,,,,,,,,,0,,,52,0
13344,note_on,,4,0,1,,,,,,,,,0,,,60,0
13350,note_on,,0,0,1,,,,,,,,,0,,,57,83
13350,note_on,,6,0,1,,,,,,,,,0,,,76,115
13396,note_on,,46,0,1,,,,,,,,,0,,,57,0
13405,note_on,,0,0,1,,,,,,,,,0,,,76,0
13405,control_change,,9,0,1,,,,,,,,,0,64,0,,
13406,note_on,,1,0,1,,,,,,,,,0,,,50,77
13407,note_on,,1,0,1,,,,,,,,,0,,,62,71
13407,note_on,,0,0,1,,,,,,,,,0,,,77,115
13450,control_change,,43,0,1,,,,,,,,,0,64,127,,
13453,note_on,,3,0,1,,,,,,,,,0,,,62,0
13456,note_on,,3,0,1,,,,,,,,,0,,,69,106
13456,note_on,,0,0,1,,,,,,,,,0,,,53,93
13461,note_on,,5,0,1,,,,,,,,,0,,,50,0
13472,note_on,,11,0,1,,,,,,,,,0,,,77,0
13509,note_on,,37,0,1,,,,,,,,,0,,,55,97
13510,note_on,,1,0,1,,,,,,,,,0,,,72,117
13511,control_change,,1,0,1,,,,,,,,,0,64,0,,
13515,note_on,,4,0,1,,,,,,,,,0,,,53,0
13516,note_on,,1,0,1,,,,,,,,,0,,,69,0
13554,note_on,,38,0,1,,,,,,,,,0,,,55,0
13560,note_on,,6,0,1,,,,,,,,,0,,,64,78
13565,control_change,,5,0,1,,,,,,,,,0,64,127,,
13605,note_on,,40,0,1,,,,,,,,,0,,,64,0
13610,note_on,,5,0,1,,,,,,,,,0,,,55,98
13616,note_on,,6,0,1,,,,,,,,,0,,,72,0
13647,note_on,,31,0,1,,,,,,,,,0,,,55,0
13650,note_on,,3,0,1,,,,,,,,,0,,,74,102
13652,note_on,,2,0,1,,,,,,,,,0,,,64,76
13670,note_on,,18,0,1,,,,,,,,,0,,,72,100
13677,note_on,,7,0,1,,,,,,,,,0,,,64,0
13680,note_on,,3,0,1,,,,,,,,,0,,,74,0
13690,note_on,,10,0,1,,,,,,,,,0,,,71,93
13690,note_on,,0,0,1,,,,,,,,,0,,,72,0
13710,note_on,,0,0,1,,,,,,,,,0,,,71,0
13710,note_on,,20,0,1,,,,,,,,,0,,,72,94
13717,control_change,,7,0,1,,,,,,,,,0,64,0,,
13725,note_on,,8,0,1,,,,,,,,,0,,,74,108
13725,note_on,,0,0,1,,,,,,,,,0,,,55,92
13730,note_on,,5,0,1,,,,,,,,,0,,,72,0
13766,control_change,,36,0,1,,,,,,,,,0,64,127,,
13770,note_on,,4,0,1,,,,,,,,,0,,,65,76
13781,note_on,,11,0,1,,,,,,,,,0,,,55,0
13785,note_on,,4,0,1,,,,,,,,,0,,,65,0
13788,note_on,,3,0,1,,,,,,,,,0,,,74,0
13791,note_on,,3,0,1,,,,,,,,,0,,,71,104
13809,note_on,,18,0,1,,,,,,,,,0,,,71,0
13820,control_change,,11,0,1,,,,,,,,,0,64,0,,
13826,note_on,,6,0,1,,,,,,,,,0,,,72,100
13826,note_on,,0,0,1,,,,,,,,,0,,,60,77
13827,note_on,,1,0,1,,,,,,,,,0,,,64,62
13852,note_on,,25,0,1,,,,,,,,,0,,,72,0
13856,note_on,,4,0,1,,,,,,,,,0,,,79,102
13867,control_change,,11,0,1,,,,,,,,,0,64,127,,
13885,note_on,,18,0,1,,,,,,,,,0,,,67,104
13887,note_on,,2,0,1,,,,,,,,,0,,,79,0
13902,note_on,,15,0,1,,,,,,,,,0,,,64,0
13907,note_on,,5,0,1,,,,,,,,,0,,,60,0
13910,note_on,,3,0,1,,,,,,,,,0,,,67,0
13912,note_on,,2,0,1,,,,,,,,,0,,,79,98
13940,note_on,,28,0,1,,,,,,,,,0,,,69,102
13943,note_on,,3,0,1,,,,,,,,,0,,,79,0
13965,note_on,,22,0,1,,,,,,,,,0,,,79,97
13965,note_on,,0,0,1,,,,,,,,,0,,,69,0
13989,note_on,,24,0,1,,,,,,,,,0,,,67,83
13990,note_on,,1,0,1,,,,,,,,,0,,,65,92
13990,note_on,,0,0,1,,,,,,,,,0,,,71,103
14000,note_on,,10,0,1,,,,,,,,,0,,,79,0
14002,control_change,,2,0,1,,,,,,,,,0,64,0,,
14009,note_on,,7,0,1,,,,,,,,,0,,,67,0
14015,note_on,,6,0,1,,,,,,,,,0,,,65,0
14015,note_on,,0,0,1,,,,,,,,,0,,,71,0
14016,note_on,,1,0,1,,,,,,,,,0,,,79,103
14040,note_on,,24,0,1,,,,,,,,,0,,,72,108
14043,note_on,,0,0,1,,,,,,,,,0,,,64,89
14043,note_on,,3,0,1,,,,,,,,,0,,,67,83
14047,note_on,,4,0,1,,,,,,,,,0,,,79,0
14058,note_on,,11,0,1,,,,,,,,,0,,,67,0
14059,note_on,,1,0,1,,,,,,,,,0,,,64,0
14070,note_on,,11,0,1,,,,,,,,,0,,,72,0
14071,note_on,,1,0,1,,,,,,,,,0,,,79,101
14099,note_on,,28,0,1,,,,,,,,,0,,,74,102
14100,note_on,,1,0,1,,,,,,,,,0,,,62,76
14100,note_on,,0,0,1,,,,,,,,,0,,,67,80
14104,note_on,,4,0,1,,,,,,,,,0,,,79,0
14115,note_on,,11,0,1,,,,,,,,,0,,,67,0
14116,note_on,,1,0,1,,,,,,,,,0,,,62,0
14127,note_on,,11,0,1,,,,,,,,,0,,,74,0
14130,note_on,,3,0,1,,,,,,,,,0,,,79,98
14161,note_on,,31,0,1,,,,,,,,,0,,,79,0
14165,note_on,,0,0,1,,,,,,,,,0,,,60,86
14165,note_on,,4,0,1,,,,,,,,,0,,,64,63
14165,note_on,,0,0,1,,,,,,,,,0,,,67,66
14166,note_on,,1,0,1,,,,,,,,,0,,,76,98
14195,control_change,,29,0,1,,,,,,,,,0,64,127,,
14195,note_on,,0,0,1,,,,,,,,,0,,,79,102
14199,note_on,,4,0,1,,,,,,,,,0,,,76,0
14208,note_on,,9,0,1,,,,,,,,,0,,,67,0
14220,note_on,,12,0,1,,,,,,,,,0,,,60,0
14225,note_on,,5,0,1,,,,,,,,,0,,,64,0
14226,note_on,,1,0,1,,,,,,,,,0,,,84,119
14236,note_on,,10,0,1,,,,,,,,,0,,,79,0
14255,note_on,,19,0,1,,,,,,,,,0,,,83,113
14269,note_on,,14,0,1,,,,,,,,,0,,,84,0
14290,note_on,,21,0,1,,,,,,,,,0,,,57,65
14290,note_on,,0,0,1,,,,,,,,,0,,,81,110
14290,note_on,,0,0,1,,,,,,,,,0,,,53,71
14292,control_change,,2,0,1,,,,,,,,,0,64,0,,
14300,note_on,,8,0,1,,,,,,,,,0,,,83,0
14321,note_on,,21,0,1,,,,,,,,,0,,,79,110
14338,note_on,,17,0,1,,,,,,,,,0,,,81,0
14345,note_on,,7,0,1,,,,,,,,,0,,,77,117
14351,note_on,,6,0,1,,,,,,,,,0,,,79,0
14375,note_on,,24,0,1,,,,,,,,,0,,,76,101
14380,note_on,,5,0,1,,,,,,,,,0,,,57,0
14385,note_on,,5,0,1,,,,,,,,,0,,,77,0
14396,note_on,,11,0,1,,,,,,,,,0,,,53,0
14405,note_on,,9,0,1,,,,,,,,,0,,,59,81
14405,note_on,,0,0,1,,,,,,,,,0,,,74,106
14405,note_on,,0,0,1,,,,,,,,,0,,,55,66
14410,note_on,,5,0,1,,,,,,,,,0,,,76,0
14432,note_on,,22,0,1,,,,,,,,,0,,,79,104
14435,note_on,,3,0,1,,,,,,,,,0,,,74,0
14460,note_on,,25,0,1,,,,,,,,,0,,,77,100
14467,note_on,,7,0,1,,,,,,,,,0,,,79,0
14485,note_on,,18,0,1,,,,,,,,,0,,,74,101
14490,note_on,,5,0,1,,,,,,,,,0,,,77,0
14516,note_on,,26,0,1,,,,,,,,,0,,,59,0
14520,note_on,,4,0,1,,,,,,,,,0,,,72,105
14520,note_on,,0,0,1,,,,,,,,,0,,,74,0
14522,note_on,,2,0,1,,,,,,,,,0,,,60,91
14525,note_on,,3,0,1,,,,,,,,,0,,,55,0
14548,note_on,,23,0,1,,,,,,,,,0,,,72,0
14555,note_on,,7,0,1,,,,,,,,,0,,,79,102
14585,note_on,,30,0,1,,,,,,,,,0,,,67,102
14590,note_on,,5,0,1,,,,,,,,,0,,,79,0
14610,note_on,,20,0,1,,,,,,,,,0,,,60,0
14611,note_on,,1,0,1,,,,,,,,,0,,,67,0
14612,note_on,,1,0,1,,,,,,,,,0,,,79,94
14640,note_on,,28,0,1,,,,,,,,,0,,,69,103
14645,note_on,,5,0,1,,,,,,,,,0,,,79,0
14665,note_on,,0,0,1,,,,,,,,,0,,,69,0
14665,note_on,,20,0,1,,,,,,,,,0,,,79,93
14691,note_on,,0,0,1,,,,,,,,,0,,,65,100
14691,note_on,,26,0,1,,,,,,,,,0,,,67,92
14692,note_on,,1,0,1,,,,,,,,,0,,,71,103
14705,note_on,,13,0,1,,,,,,,,,0,,,79,0
14718,note_on,,13,0,1,,,,,,,,,0,,,71,0
14720,note_on,,2,0,1,,,,,,,,,0,,,67,0
14721,note_on,,1,0,1,,,,,,,,,0,,,79,103
14721,note_on,,0,0,1,,,,,,,,,0,,,65,0
14750,note_on,,29,0,1,,,,,,,,,0,,,67,87
14750,note_on,,0,0,1,,,,,,,,,0,,,72,108
14751,note_on,,1,0,1,,,,,,,,,0,,,64,83
14759,note_on,,8,0,1,,,,,,,,,0,,,79,0
14775,note_on,,16,0,1,,,,,,,,,0,,,72,0
14776,note_on,,1,0,1,,,,,,,,,0,,,79,106
14779,note_on,,3,0,1,,,,,,,,,0,,,67,0
14780,note_on,,1,0,1,,,,,,,,,0,,,64,0
14805,note_on,,25,0,1,,,,,,,,,0,,,62,80
14805,note_on,,0,0,1,,,,,,,,,0,,,74,104
14806,note_on,,1,0,1,,,,,,,,,0,,,67,81
14816,note_on,,10,0,1,,,,,,,,,0,,,79,0
14830,note_on,,14,0,1,,,,,,,,,0,,,74,0
14834,note_on,,4,0,1,,,,,,,,,0,,,62,0
14835,note_on,,1,0,1,,,,,,,,,0,,,67,0
14839,note_on,,4,0,1,,,,,,,,,0,,,79,112
14875,note_on,,36,0,1,,,,,,,,,0,,,67,61
14875,note_on,,0,0,1,,,,,,,,,0,,,76,96
14876,note_on,,1,0,1,,,,,,,,,0,,,64,57
14876,note_on,,0,0,1,,,,,,,,,0,,,60,65
14877,note_on,,1,0,1,,,,,,,,,0,,,79,0
14906,note_on,,29,0,1,,,,,,,,,0,,,79,107
14910,control_change,,4,0,1,,,,,,,,,0,64,127,,
14910,note_on,,0,0,1,,,,,,,,,0,,,76,0
14910,note_on,,0,0,1,,,,,,,,,0,,,67,0
14929,note_on,,19,0,1,,,,,,,,,0,,,60,0
14932,note_on,,3,0,1,,,,,,,,,0,,,64,0
14936,note_on,,4,0,1,,,,,,,,,0,,,84,119
14946,note_on,,10,0,1,,,,,,,,,0,,,79,0
14970,note_on,,24,0,1,,,,,,,,,0,,,83,118
14976,note_on,,6,0,1,,,,,,,,,0,,,84,0
15005,control_change,,29,0,1,,,,,,,,,0,64,0,,
15005,note_on,,0,0,1,,,,,,,,,0,,,81,109
15006,note_on,,1,0,1,,,,,,,,,0,,,53,83
15006,note_on,,0,0,1,,,,,,,,,0,,,57,65
15015,note_on,,9,0,1,,,,,,,,,0,,,83,0
15035,note_on,,20,0,1,,,,,,,,,0,,,79,105
15055,note_on,,20,0,1,,,,,,,,,0,,,81,0
15060,note_on,,5,0,1,,,,,,,,,0,,,77,100
15065,note_on,,5,0,1,,,,,,,,,0,,,79,0
15090,note_on,,25,0,1,,,,,,,,,0,,,76,98
15100,note_on,,10,0,1,,,,,,,,,0,,,77,0
15112,note_on,,12,0,1,,,,,,,,,0,,,57,0
15122,note_on,,10,0,1,,,,,,,,,0,,,59,71
15123,note_on,,1,0,1,,,,,,,,,0,,,74,104
15123,note_on,,0,0,1,,,,,,,,,0,,,55,62
15126,note_on,,3,0,1,,,,,,,,,0,,,53,0
15130,note_on,,4,0,1,,,,,,,,,0,,,76,0
15151,note_on,,21,0,1,,,,,,,,,0,,,79,103
15153,note_on,,2,0,1,,,,,,,,,0,,,74,0
15187,note_on,,34,0,1,,,,,,,,,0,,,77,106
15194,note_on,,7,0,1,,,,,,,,,0,,,79,0
15220,note_on,,26,0,1,,,,,,,,,0,,,74,98
15222,note_on,,2,0,1,,,,,,,,,0,,,77,0
15240,note_on,,18,0,1,,,,,,,,,0,,,55,0
15241,note_on,,1,0,1,,,,,,,,,0,,,59,0
15250,note_on,,9,0,1,,,,,,,,,0,,,74,0
15259,note_on,,9,0,1,,,,,,,,,0,,,76,94
15260,note_on,,1,0,1,,,,,,,,,0,,,56,72
15262,note_on,,2,0,1,,,,,,,,,0,,,59,78
15292,note_on,,30,0,1,,,,,,,,,0,,,76,0
15295,note_on,,3,0,1,,,,,,,,,0,,,77,92
15328,note_on,,33,0,1,,,,,,,,,0,,,76,91
15330,note_on,,2,0,1,,,,,,,,,0,,,77,0
15360,note_on,,30,0,1,,,,,,,,,0,,,75,93
15366,note_on,,6,0,1,,,,,,,,,0,,,76,0
15390,note_on,,24,0,1,,,,,,,,,0,,,75,0
15395,note_on,,5,0,1,,,,,,,,,0,,,76,97
15431,note_on,,0,0,1,,,,,,,,,0,,,76,0
15431,note_on,,36,0,1,,,,,,,,,0,,,71,92
15457,note_on,,26,0,1,,,,,,,,,0,,,59,0
15459,note_on,,2,0,1,,,,,,,,,0,,,71,0
15463,note_on,,4,0,1,,,,,,,,,0,,,56,0
15465,note_on,,2,0,1,,,,,,,,,0,,,76,91
15500,note_on,,35,0,1,,,,,,,,,0,,,76,0
15503,note_on,,3,0,1,,,,,,,,,0,,,75,85
15540,note_on,,37,0,1,,,,,,,,,0,,,76,86
15541,note_on,,1,0,1,,,,,,,,,0,,,75,0
15575,note_on,,34,0,1,,,,,,,,,0,,,71,76
15575,note_on,,0,0,1,,,,,,,,,0,,,76,0
15600,note_on,,25,0,1,,,,,,,,,0,,,71,0
15612,note_on,,12,0,1,,,,,,,,,0,,,76,93
15648,note_on,,36,0,1,,,,,,,,,0,,,76,0
15650,note_on,,2,0,1,,,,,,,,,0,,,75,83
15710,note_on,,60,0,1,,,,,,,,,0,,,76,74
15710,note_on,,0,0,1,,,,,,,,,0,,,75,0
15950,note_on,,240,0,1,,,,,,,,,0,,,71,74
15950,note_on,,0,0,1,,,,,,,,,0,,,76,0
16020,note_on,,70,0,1,,,,,,,,,0,,,76,73
16025,note_on,,5,0,1,,,,,,,,,0,,,71,0
16091,note_on,,66,0,1,,,,,,,,,0,,,75,76
16092,note_on,,1,0,1,,,,,,,,,0,,,76,0
16176,note_on,,84,0,1,,,,,,,,,0,,,75,0
16185,note_on,,9,0,1,,,,,,,,,0,,,76,66
16451,note_on,,266,0,1,,,,,,,,,0,,,71,69
16451,note_on,,0,0,1,,,,,,,,,0,,,76,0
16546,note_on,,95,0,1,,,,,,,,,0,,,71,0
16560,note_on,,14,0,1,,,,,,,,,0,,,76,62
16660,note_on,,100,0,1,,,,,,,,,0,,,75,61
16673,note_on,,13,0,1,,,,,,,,,0,,,76,0
16760,note_on,,87,0,1,,,,,,,,,0,,,76,65
16783,note_on,,23,0,1,,,,,,,,,0,,,75,0
16819,note_on,,36,0,1,,,,,,,,,0,,,76,0
16840,note_on,,21,0,1,,,,,,,,,0,,,75,60
16927,note_on,,87,0,1,,,,,,,,,0,,,76,69
16935,note_on,,8,0,1,,,,,,,,,0,,,75,0
16986,note_on,,51,0,1,,,,,,,,,0,,,76,0
17015,note_on,,29,0,1,,,,,,,,,0,,,75,65
17146,note_on,,131,0,1,,,,,,,,,0,,,76,66
17178,note_on,,32,0,1,,,,,,,,,0,,,75,0
17235,note_on,,57,0,1,,,,,,,,,0,,,76,0
17265,note_on,,30,0,1,,,,,,,,,0,,,75,64
17358,note_on,,93,0,1,,,,,,,,,0,,,75,0
17366,note_on,,8,0,1,,,,,,,,,0,,,76,59
17440,note_on,,74,0,1,,,,,,,,,0,,,75,60
17452,note_on,,12,0,1,,,,,,,,,0,,,76,0
17515,note_on,,63,0,1,,,,,,,,,0,,,76,73
17518,note_on,,3,0,1,,,,,,,,,0,,,75,0
17520,set_tempo,,5832,1,0,,,,,,425531,,,,,,,
17548,set_tempo,,28,1,0,,,,,,422535,,,,,,,
17552,set_tempo,,4,1,0,,,,,,419580,,,,,,,
17582,note_on,,64,0,1,,,,,,,,,0,,,71,73
17596,note_on,,14,0,1,,,,,,,,,0,,,76,0
17612,set_tempo,,60,1,0,,,,,,416666,,,,,,,
17616,set_tempo,,4,1,0,,,,,,413793,,,,,,,
17636,set_tempo,,20,1,0,,,,,,410958,,,,,,,
17640,set_tempo,,4,1,0,,,,,,408163,,,,,,,
17646,note_on,,50,0,1,,,,,,,,,0,,,74,81
17654,set_tempo,,14,1,0,,,,,,405405,,,,,,,
17658,set_tempo,,4,1,0,,,,,,402684,,,,,,,
17664,set_tempo,,6,1,0,,,,,,400000,,,,,,,
17670,set_tempo,,6,1,0,,,,,,397350,,,,,,,
17678,set_tempo,,8,1,0,,,,,,394736,,,,,,,
17680,set_tempo,,2,1,0,,,,,,392156,,,,,,,
17692,set_tempo,,12,1,0,,,,,,389610,,,,,,,
17692,note_on,,46,0,1,,,,,,,,,0,,,71,0
17698,set_tempo,,6,1,0,,,,,,387096,,,,,,,
17709,note_on,,17,0,1,,,,,,,,,0,,,74,0
17711,note_on,,2,0,1,,,,,,,,,0,,,72,76
17712,set_tempo,,14,1,0,,,,,,384615,,,,,,,
17714,set_tempo,,2,1,0,,,,,,382165,,,,,,,
17728,set_tempo,,14,1,0,,,,,,379746,,,,,,,
17736,end_of_track,,0,1,0,,,,,,,,,,,,,
17736,set_tempo,,8,1,0,,,,,,377358,,,,,,,
17782,note_on,,71,0,1,,,,,,,,,0,,,69,73
17786,note_on,,4,0,1,,,,,,,,,0,,,45,65
17794,note_on,,8,0,1,,,,,,,,,0,,,72,0
17826,control_change,,32,0,1,,,,,,,,,0,64,127,,
17846,note_on,,20,0,1,,,,,,,,,0,,,52,67
17849,note_on,,3,0,1,,,,,,,,,0,,,45,0
17900,note_on,,51,0,1,,,,,,,,,0,,,57,67
17919,note_on,,19,0,1,,,,,,,,,0,,,52,0
17931,note_on,,12,0,1,,,,,,,,,0,,,69,0
17960,note_on,,0,0,1,,,,,,,,,0,,,57,0
17960,note_on,,29,0,1,,,,,,,,,0,,,60,78
18015,note_on,,55,0,1,,,,,,,,,0,,,64,75
18016,note_on,,1,0,1,,,,,,,,,0,,,60,0
18047,control_change,,31,0,1,,,,,,,,,0,64,0,,
18070,note_on,,23,0,1,,,,,,,,,0,,,64,0
18075,note_on,,5,0,1,,,,,,,,,0,,,69,78
18126,note_on,,51,0,1,,,,,,,,,0,,,69,0
18129,note_on,,3,0,1,,,,,,,,,0,,,71,80
18130,note_on,,1,0,1,,,,,,,,,0,,,40,77
18160,control_change,,30,0,1,,,,,,,,,0,64,127,,
18170,note_on,,10,0,1,,,,,,,,,0,,,40,0
18182,note_on,,12,0,1,,,,,,,,,0,,,52,87
18230,note_on,,48,0,1,,,,,,,,,0,,,52,0
18236,note_on,,6,0,1,,,,,,,,,0,,,56,86
18248,note_on,,12,0,1,,,,,,,,,0,,,71,0
18285,note_on,,37,0,1,,,,,,,,,0,,,64,91
18295,note_on,,10,0,1,,,,,,,,,0,,,56,0
18332,note_on,,37,0,1,,,,,,,,,0,,,68,96
18360,note_on,,28,0,1,,,,,,,,,0,,,64,0
18385,control_change,,25,0,1,,,,,,,,,0,64,0,,
18390,note_on,,5,0,1,,,,,,,,,0,,,71,93
18397,note_on,,7,0,1,,,,,,,,,0,,,68,0
18450,note_on,,53,0,1,,,,,,,,,0,,,71,0
18455,note_on,,0,0,1,,,,,,,,,0,,,45,63
18455,note_on,,5,0,1,,,,,,,,,0,,,72,86
18516,control_change,,61,0,1,,,,,,,,,0,64,127,,
18525,note_on,,9,0,1,,,,,,,,,0,,,52,67
18527,note_on,,2,0,1,,,,,,,,,0,,,45,0
18574,note_on,,47,0,1,,,,,,,,,0,,,72,0
18585,note_on,,11,0,1,,,,,,,,,0,,,57,62
18615,note_on,,30,0,1,,,,,,,,,0,,,52,0
18637,note_on,,22,0,1,,,,,,,,,0,,,64,82
18644,note_on,,7,0,1,,,,,,,,,0,,,57,0
18681,control_change,,37,0,1,,,,,,,,,0,64,0,,
18692,note_on,,11,0,1,,,,,,,,,0,,,64,0
18702,note_on,,10,0,1,,,,,,,,,0,,,76,84
18760,note_on,,58,0,1,,,,,,,,,0,,,75,84
18763,note_on,,3,0,1,,,,,,,,,0,,,76,0
18825,note_on,,62,0,1,,,,,,,,,0,,,76,92
18827,note_on,,2,0,1,,,,,,,,,0,,,75,0
18885,note_on,,58,0,1,,,,,,,,,0,,,75,85
18903,note_on,,18,0,1,,,,,,,,,0,,,76,0
18936,note_on,,33,0,1,,,,,,,,,0,,,76,90
18938,note_on,,2,0,1,,,,,,,,,0,,,75,0
18990,note_on,,52,0,1,,,,,,,,,0,,,71,86
19001,note_on,,11,0,1,,,,,,,,,0,,,76,0
19046,note_on,,45,0,1,,,,,,,,,0,,,74,88
19065,note_on,,19,0,1,,,,,,,,,0,,,71,0
19100,note_on,,35,0,1,,,,,,,,,0,,,72,92
19106,note_on,,6,0,1,,,,,,,,,0,,,74,0
19170,note_on,,64,0,1,,,,,,,,,0,,,69,83
19172,note_on,,2,0,1,,,,,,,,,0,,,45,71
19173,note_on,,1,0,1,,,,,,,,,0,,,72,0
19215,control_change,,42,0,1,,,,,,,,,0,64,127,,
19228,note_on,,13,0,1,,,,,,,,,0,,,45,0
19232,note_on,,4,0,1,,,,,,,,,0,,,52,73
19236,note_on,,4,0,1,,,,,,,,,0,,,69,0
19292,note_on,,56,0,1,,,,,,,,,0,,,57,68
19307,note_on,,15,0,1,,,,,,,,,0,,,52,0
19345,note_on,,38,0,1,,,,,,,,,0,,,60,82
19352,note_on,,7,0,1,,,,,,,,,0,,,57,0
19395,control_change,,43,0,1,,,,,,,,,0,64,0,,
19396,note_on,,1,0,1,,,,,,,,,0,,,64,75
19400,note_on,,4,0,1,,,,,,,,,0,,,60,0
19447,note_on,,47,0,1,,,,,,,,,0,,,69,85
19456,note_on,,9,0,1,,,,,,,,,0,,,64,0
19498,note_on,,42,0,1,,,,,,,,,0,,,69,0
19500,note_on,,2,0,1,,,,,,,,,0,,,40,71
19500,note_on,,0,0,1,,,,,,,,,0,,,71,90
19530,control_change,,30,0,1,,,,,,,,,0,64,127,,
19542,note_on,,12,0,1,,,,,,,,,0,,,40,0
19557,note_on,,15,0,1,,,,,,,,,0,,,52,69
19589,note_on,,32,0,1,,,,,,,,,0,,,71,0
19593,note_on,,4,0,1,,,,,,,,,0,,,52,0
19605,note_on,,12,0,1,,,,,,,,,0,,,56,84
19656,note_on,,51,0,1,,,,,,,,,0,,,64,75
19664,note_on,,8,0,1,,,,,,,,,0,,,56,0
19681,control_change,,17,0,1,,,,,,,,,0,64,0,,
19712,note_on,,31,0,1,,,,,,,,,0,,,72,94
19726,note_on,,14,0,1,,,,,,,,,0,,,64,0
19767,note_on,,41,0,1,,,,,,,,,0,,,71,83
19770,note_on,,3,0,1,,,,,,,,,0,,,72,0
19826,note_on,,56,0,1,,,,,,,,,0,,,71,0
19828,note_on,,2,0,1,,,,,,,,,0,,,69,80
19831,note_on,,3,0,1,,,,,,,,,0,,,45,71
19881,control_change,,50,0,1,,,,,,,,,0,64,127,,
19886,note_on,,5,0,1,,,,,,,,,0,,,45,0
19891,note_on,,5,0,1,,,,,,,,,0,,,52,73
19908,note_on,,17,0,1,,,,,,,,,0,,,69,0
19952,note_on,,44,0,1,,,,,,,,,0,,,57,69
19964,note_on,,12,0,1,,,,,,,,,0,,,52,0
19990,note_on,,26,0,1,,,,,,,,,0,,,57,0
20001,note_on,,11,0,1,,,,,,,,,0,,,71,96
20050,control_change,,49,0,1,,,,,,,,,0,64,0,,
20060,note_on,,10,0,1,,,,,,,,,0,,,72,103
20079,note_on,,19,0,1,,,,,,,,,0,,,71,0
20112,note_on,,33,0,1,,,,,,,,,0,,,74,109
20125,note_on,,13,0,1,,,,,,,,,0,,,72,0
20170,note_on,,45,0,1,,,,,,,,,0,,,76,107
20172,note_on,,2,0,1,,,,,,,,,0,,,48,76
20175,note_on,,3,0,1,,,,,,,,,0,,,74,0
20210,control_change,,35,0,1,,,,,,,,,0,64,127,,
20225,note_on,,15,0,1,,,,,,,,,0,,,55,94
20227,note_on,,2,0,1,,,,,,,,,0,,,48,0
20280,note_on,,53,0,1,,,,,,,,,0,,,60,103
20289,note_on,,9,0,1,,,,,,,,,0,,,76,0
20300,note_on,,11,0,1,,,,,,,,,0,,,55,0
20325,note_on,,25,0,1,,,,,,,,,0,,,67,104
20332,note_on,,7,0,1,,,,,,,,,0,,,60,0
20381,note_on,,49,0,1,,,,,,,,,0,,,77,106
20396,control_change,,15,0,1,,,,,,,,,0,64,0,,
20401,note_on,,5,0,1,,,,,,,,,0,,,67,0
20435,note_on,,34,0,1,,,,,,,,,0,,,76,96
20459,note_on,,24,0,1,,,,,,,,,0,,,77,0
20493,note_on,,34,0,1,,,,,,,,,0,,,43,81
20495,note_on,,2,0,1,,,,,,,,,0,,,74,101
20505,note_on,,10,0,1,,,,,,,,,0,,,76,0
20520,control_change,,15,0,1,,,,,,,,,0,64,127,,
20540,note_on,,20,0,1,,,,,,,,,0,,,43,0
20551,note_on,,11,0,1,,,,,,,,,0,,,55,73
20594,note_on,,43,0,1,,,,,,,,,0,,,55,0
20605,note_on,,11,0,1,,,,,,,,,0,,,59,76
20614,note_on,,9,0,1,,,,,,,,,0,,,74,0
20655,note_on,,41,0,1,,,,,,,,,0,,,65,94
20665,note_on,,10,0,1,,,,,,,,,0,,,59,0
20696,control_change,,31,0,1,,,,,,,,,0,64,0,,
20711,note_on,,15,0,1,,,,,,,,,0,,,76,98
20720,note_on,,9,0,1,,,,,,,,,0,,,65,0
20767,note_on,,47,0,1,,,,,,,,,0,,,74,88
20772,note_on,,5,0,1,,,,,,,,,0,,,76,0
20823,note_on,,51,0,1,,,,,,,,,0,,,74,0
20830,note_on,,7,0,1,,,,,,,,,0,,,72,82
20831,note_on,,1,0,1,,,,,,,,,0,,,45,66
20887,note_on,,56,0,1,,,,,,,,,0,,,52,81
20896,note_on,,9,0,1,,,,,,,,,0,,,45,0
20945,note_on,,49,0,1,,,,,,,,,0,,,57,69
20960,note_on,,15,0,1,,,,,,,,,0,,,52,0
20979,note_on,,19,0,1,,,,,,,,,0,,,72,0
21005,note_on,,0,0,1,,,,,,,,,0,,,57,0
21005,note_on,,26,0,1,,,,,,,,,0,,,64,81
21067,note_on,,62,0,1,,,,,,,,,0,,,74,83
21070,note_on,,3,0,1,,,,,,,,,0,,,64,0
21126,note_on,,56,0,1,,,,,,,,,0,,,74,0
21128,note_on,,2,0,1,,,,,,,,,0,,,72,81
21200,note_on,,72,0,1,,,,,,,,,0,,,71,74
21202,note_on,,2,0,1,,,,,,,,,0,,,40,67
21202,control_change,,0,0,1,,,,,,,,,0,64,127,,
21217,note_on,,15,0,1,,,,,,,,,0,,,72,0
21254,note_on,,37,0,1,,,,,,,,,0,,,40,0
21270,note_on,,16,0,1,,,,,,,,,0,,,52,64
21330,note_on,,0,0,1,,,,,,,,,0,,,52,0
21330,note_on,,60,0,1,,,,,,,,,0,,,64,65
21349,note_on,,19,0,1,,,,,,,,,0,,,71,0
21360,note_on,,11,0,1,,,,,,,,,0,,,64,0
21395,note_on,,35,0,1,,,,,,,,,0,,,64,62
21455,note_on,,60,0,1,,,,,,,,,0,,,64,0
21460,note_on,,5,0,1,,,,,,,,,0,,,76,71
21516,note_on,,56,0,1,,,,,,,,,0,,,64,76
21519,note_on,,3,0,1,,,,,,,,,0,,,76,0
21576,note_on,,57,0,1,,,,,,,,,0,,,64,0
21582,note_on,,6,0,1,,,,,,,,,0,,,76,69
21627,note_on,,45,0,1,,,,,,,,,0,,,76,0
21651,note_on,,24,0,1,,,,,,,,,0,,,76,63
21730,note_on,,79,0,1,,,,,,,,,0,,,88,61
21741,note_on,,11,0,1,,,,,,,,,0,,,76,0
21790,note_on,,49,0,1,,,,,,,,,0,,,88,0
21807,note_on,,0,0,1,,,,,,,,,0,,,75,63
21807,control_change,,17,0,1,,,,,,,,,0,64,0,,
21904,note_on,,97,0,1,,,,,,,,,0,,,75,0
21911,note_on,,7,0,1,,,,,,,,,0,,,76,60
22000,note_on,,89,0,1,,,,,,,,,0,,,76,0
22030,note_on,,30,0,1,,,,,,,,,0,,,75,64
22127,note_on,,97,0,1,,,,,,,,,0,,,75,0
22130,note_on,,3,0,1,,,,,,,,,0,,,76,62
22197,note_on,,67,0,1,,,,,,,,,0,,,76,0
22211,note_on,,14,0,1,,,,,,,,,0,,,75,73
22296,note_on,,85,0,1,,,,,,,,,0,,,76,71
22301,note_on,,5,0,1,,,,,,,,,0,,,75,0
22376,note_on,,75,0,1,,,,,,,,,0,,,76,0
22391,note_on,,15,0,1,,,,,,,,,0,,,75,64
22476,note_on,,85,0,1,,,,,,,,,0,,,75,0
22485,note_on,,9,0,1,,,,,,,,,0,,,76,61
22570,note_on,,85,0,1,,,,,,,,,0,,,75,69
22573,note_on,,3,0,1,,,,,,,,,0,,,76,0
22645,note_on,,0,0,1,,,,,,,,,0,,,75,0
22645,note_on,,72,0,1,,,,,,,,,0,,,76,66
22705,note_on,,60,0,1,,,,,,,,,0,,,75,84
22711,note_on,,6,0,1,,,,,,,,,0,,,76,0
22760,note_on,,49,0,1,,,,,,,,,0,,,75,0
22765,note_on,,5,0,1,,,,,,,,,0,,,76,82
22820,note_on,,55,0,1,,,,,,,,,0,,,71,87
22835,note_on,,15,0,1,,,,,,,,,0,,,76,0
22885,note_on,,50,0,1,,,,,,,,,0,,,74,76
22905,note_on,,20,0,1,,,,,,,,,0,,,71,0
22956,note_on,,51,0,1,,,,,,,,,0,,,72,78
22967,note_on,,11,0,1,,,,,,,,,0,,,74,0
23040,note_on,,0,0,1,,,,,,,,,0,,,69,76
23040,note_on,,73,0,1,,,,,,,,,0,,,45,68
23044,note_on,,4,0,1,,,,,,,,,0,,,72,0
23085,control_change,,41,0,1,,,,,,,,,0,64,127,,
23091,note_on,,6,0,1,,,,,,,,,0,,,45,0
23101,note_on,,10,0,1,,,,,,,,,0,,,52,68
23117,note_on,,16,0,1,,,,,,,,,0,,,69,0
23155,note_on,,38,0,1,,,,,,,,,0,,,57,65
23161,note_on,,6,0,1,,,,,,,,,0,,,52,0
23200,note_on,,39,0,1,,,,,,,,,0,,,57,0
23215,note_on,,15,0,1,,,,,,,,,0,,,60,80
23261,note_on,,46,0,1,,,,,,,,,0,,,60,0
23265,note_on,,4,0,1,,,,,,,,,0,,,64,73
23276,control_change,,11,0,1,,,,,,,,,0,64,0,,
23320,note_on,,0,0,1,,,,,,,,,0,,,64,0
23320,note_on,,44,0,1,,,,,,,,,0,,,69,73
23370,note_on,,50,0,1,,,,,,,,,0,,,69,0
23375,note_on,,0,0,1,,,,,,,,,0,,,40,65
23375,note_on,,5,0,1,,,,,,,,,0,,,71,76
23405,control_change,,30,0,1,,,,,,,,,0,64,127,,
23412,note_on,,7,0,1,,,,,,,,,0,,,40,0
23431,note_on,,19,0,1,,,,,,,,,0,,,52,70
23476,note_on,,45,0,1,,,,,,,,,0,,,52,0
23485,note_on,,9,0,1,,,,,,,,,0,,,56,78
23494,note_on,,9,0,1,,,,,,,,,0,,,71,0
23537,note_on,,43,0,1,,,,,,,,,0,,,56,0
23540,note_on,,3,0,1,,,,,,,,,0,,,64,75
23585,note_on,,45,0,1,,,,,,,,,0,,,68,77
23600,control_change,,15,0,1,,,,,,,,,0,64,0,,
23607,note_on,,7,0,1,,,,,,,,,0,,,64,0
23640,note_on,,33,0,1,,,,,,,,,0,,,71,93
23646,note_on,,6,0,1,,,,,,,,,0,,,68,0
23695,note_on,,49,0,1,,,,,,,,,0,,,71,0
23705,note_on,,10,0,1,,,,,,,,,0,,,72,87
23707,note_on,,2,0,1,,,,,,,,,0,,,45,61
23747,control_change,,40,0,1,,,,,,,,,0,64,127,,
23770,note_on,,23,0,1,,,,,,,,,0,,,52,65
23775,note_on,,5,0,1,,,,,,,,,0,,,45,0
23825,note_on,,50,0,1,,,,,,,,,0,,,57,59
23827,note_on,,2,0,1,,,,,,,,,0,,,52,0
23854,note_on,,27,0,1,,,,,,,,,0,,,72,0
23885,note_on,,31,0,1,,,,,,,,,0,,,64,63
23892,note_on,,7,0,1,,,,,,,,,0,,,57,0
23936,note_on,,44,0,1,,,,,,,,,0,,,64,0
23947,control_change,,11,0,1,,,,,,,,,0,64,0,,
23950,note_on,,3,0,1,,,,,,,,,0,,,76,71
24016,note_on,,66,0,1,,,,,,,,,0,,,75,71
24023,note_on,,7,0,1,,,,,,,,,0,,,76,0
24075,note_on,,52,0,1,,,,,,,,,0,,,76,77
24079,note_on,,4,0,1,,,,,,,,,0,,,75,0
24137,note_on,,58,0,1,,,,,,,,,0,,,75,76
24153,note_on,,16,0,1,,,,,,,,,0,,,76,0
24190,note_on,,37,0,1,,,,,,,,,0,,,76,88
24193,note_on,,3,0,1,,,,,,,,,0,,,75,0
24240,note_on,,47,0,1,,,,,,,,,0,,,71,84
24252,note_on,,12,0,1,,,,,,,,,0,,,76,0
24297,note_on,,45,0,1,,,,,,,,,0,,,74,88
24317,note_on,,20,0,1,,,,,,,,,0,,,71,0
24350,note_on,,33,0,1,,,,,,,,,0,,,72,83
24350,note_on,,0,0,1,,,,,,,,,0,,,74,0
24410,note_on,,60,0,1,,,,,,,,,0,,,69,80
24410,note_on,,0,0,1,,,,,,,,,0,,,72,0
24415,note_on,,5,0,1,,,,,,,,,0,,,45,63
24455,control_change,,40,0,1,,,,,,,,,0,64,127,,
24470,note_on,,0,0,1,,,,,,,,,0,,,45,0
24470,note_on,,15,0,1,,,,,,,,,0,,,52,71
24515,note_on,,45,0,1,,,,,,,,,0,,,57,64
24520,note_on,,5,0,1,,,,,,,,,0,,,52,0
24529,note_on,,9,0,1,,,,,,,,,0,,,69,0
24567,note_on,,38,0,1,,,,,,,,,0,,,57,0
24570,note_on,,3,0,1,,,,,,,,,0,,,60,84
24612,note_on,,42,0,1,,,,,,,,,0,,,60,0
24621,note_on,,9,0,1,,,,,,,,,0,,,64,75
24675,note_on,,54,0,1,,,,,,,,,0,,,69,89
24681,note_on,,6,0,1,,,,,,,,,0,,,64,0
24700,control_change,,19,0,1,,,,,,,,,0,64,0,,
24725,note_on,,25,0,1,,,,,,,,,0,,,69,0
24733,note_on,,8,0,1,,,,,,,,,0,,,71,89
24735,note_on,,2,0,1,,,,,,,,,0,,,40,64
24775,note_on,,40,0,1,,,,,,,,,0,,,40,0
24780,control_change,,5,0,1,,,,,,,,,0,64,127,,
24787,note_on,,7,0,1,,,,,,,,,0,,,52,74
24840,note_on,,53,0,1,,,,,,,,,0,,,52,0
24845,note_on,,5,0,1,,,,,,,,,0,,,56,86
24882,note_on,,37,0,1,,,,,,,,,0,,,71,0
24890,note_on,,0,0,1,,,,,,,,,0,,,56,0
24890,note_on,,8,0,1,,,,,,,,,0,,,64,82
24945,note_on,,55,0,1,,,,,,,,,0,,,72,90
24971,note_on,,26,0,1,,,,,,,,,0,,,64,0
24995,control_change,,24,0,1,,,,,,,,,0,64,0,,
25006,note_on,,11,0,1,,,,,,,,,0,,,71,89
25010,note_on,,4,0,1,,,,,,,,,0,,,72,0
25076,note_on,,66,0,1,,,,,,,,,0,,,71,0
25080,note_on,,4,0,1,,,,,,,,,0,,,69,76
25082,note_on,,2,0,1,,,,,,,,,0,,,45,80
25108,note_on,,26,0,1,,,,,,,,,0,,,45,0
25125,control_change,,17,0,1,,,,,,,,,0,64,127,,
25145,note_on,,20,0,1,,,,,,,,,0,,,45,80
25165,note_on,,20,0,1,,,,,,,,,0,,,45,0
25200,note_on,,35,0,1,,,,,,,,,0,,,45,86
25218,note_on,,18,0,1,,,,,,,,,0,,,45,0
25252,note_on,,34,0,1,,,,,,,,,0,,,45,87
25259,note_on,,7,0,1,,,,,,,,,0,,,69,0
25272,note_on,,13,0,1,,,,,,,,,0,,,45,0
25306,note_on,,34,0,1,,,,,,,,,0,,,45,81
25336,note_on,,30,0,1,,,,,,,,,0,,,45,0
25365,note_on,,29,0,1,,,,,,,,,0,,,45,72
25383,note_on,,18,0,1,,,,,,,,,0,,,45,0
25420,control_change,,37,0,1,,,,,,,,,0,64,0,,
25421,note_on,,1,0,1,,,,,,,,,0,,,73,85
25421,note_on,,0,0,1,,,,,,,,,0,,,70,74
25421,note_on,,0,0,1,,,,,,,,,0,,,67,67
25421,note_on,,0,0,1,,,,,,,,,0,,,64,58
25421,note_on,,0,0,1,,,,,,,,,0,,,45,80
25446,note_on,,25,0,1,,,,,,,,,0,,,45,0
25472,control_change,,26,0,1,,,,,,,,,0,64,127,,
25480,note_on,,8,0,1,,,,,,,,,0,,,45,83
25500,note_on,,20,0,1,,,,,,,,,0,,,45,0
25522,note_on,,22,0,1,,,,,,,,,0,,,64,0
25530,note_on,,8,0,1,,,,,,,,,0,,,45,83
25541,note_on,,11,0,1,,,,,,,,,0,,,67,0
25550,note_on,,9,0,1,,,,,,,,,0,,,45,0
25571,note_on,,21,0,1,,,,,,,,,0,,,70,0
25580,note_on,,9,0,1,,,,,,,,,0,,,45,79
25600,note_on,,20,0,1,,,,,,,,,0,,,45,0
25631,note_on,,31,0,1,,,,,,,,,0,,,73,0
25635,note_on,,4,0,1,,,,,,,,,0,,,45,79
25655,note_on,,20,0,1,,,,,,,,,0,,,45,0
25688,note_on,,33,0,1,,,,,,,,,0,,,45,80
25708,note_on,,20,0,1,,,,,,,,,0,,,45,0
25737,note_on,,29,0,1,,,,,,,,,0,,,74,96
25738,note_on,,1,0,1,,,,,,,,,0,,,65,93
25740,note_on,,0,0,1,,,,,,,,,0,,,69,94
25740,control_change,,2,0,1,,,,,,,,,0,64,0,,
25741,note_on,,1,0,1,,,,,,,,,0,,,45,81
25761,note_on,,20,0,1,,,,,,,,,0,,,45,0
25786,control_change,,25,0,1,,,,,,,,,0,64,127,,
25795,note_on,,9,0,1,,,,,,,,,0,,,45,81
25810,note_on,,15,0,1,,,,,,,,,0,,,45,0
25824,note_on,,14,0,1,,,,,,,,,0,,,65,0
25826,note_on,,2,0,1,,,,,,,,,0,,,69,0
25837,note_on,,11,0,1,,,,,,,,,0,,,74,0
25845,note_on,,8,0,1,,,,,,,,,0,,,45,86
25863,note_on,,18,0,1,,,,,,,,,0,,,45,0
25891,note_on,,28,0,1,,,,,,,,,0,,,45,87
25907,note_on,,16,0,1,,,,,,,,,0,,,45,0
25940,note_on,,0,0,1,,,,,,,,,0,,,73,91
25940,note_on,,0,0,1,,,,,,,,,0,,,76,94
25940,note_on,,0,0,1,,,,,,,,,0,,,45,93
25940,control_change,,33,0,1,,,,,,,,,0,64,0,,
25955,note_on,,15,0,1,,,,,,,,,0,,,45,0
25956,control_change,,1,0,1,,,,,,,,,0,64,127,,
25972,note_on,,16,0,1,,,,,,,,,0,,,73,0
25980,note_on,,8,0,1,,,,,,,,,0,,,76,0
25990,note_on,,0,0,1,,,,,,,,,0,,,45,90
25990,note_on,,0,0,1,,,,,,,,,0,,,74,98
25990,note_on,,10,0,1,,,,,,,,,0,,,77,102
26008,note_on,,18,0,1,,,,,,,,,0,,,45,0
26020,note_on,,12,0,1,,,,,,,,,0,,,74,0
26035,note_on,,15,0,1,,,,,,,,,0,,,77,0
26045,note_on,,0,0,1,,,,,,,,,0,,,45,86
26045,note_on,,0,0,1,,,,,,,,,0,,,77,107
26045,note_on,,10,0,1,,,,,,,,,0,,,74,105
26046,note_on,,1,0,1,,,,,,,,,0,,,68,101
26060,control_change,,14,0,1,,,,,,,,,0,64,0,,
26065,note_on,,5,0,1,,,,,,,,,0,,,45,0
26100,note_on,,35,0,1,,,,,,,,,0,,,45,90
26110,control_change,,10,0,1,,,,,,,,,0,64,127,,
26120,note_on,,10,0,1,,,,,,,,,0,,,45,0
26150,note_on,,30,0,1,,,,,,,,,0,,,45,90
26156,note_on,,6,0,1,,,,,,,,,0,,,68,0
26157,note_on,,1,0,1,,,,,,,,,0,,,74,0
26165,note_on,,8,0,1,,,,,,,,,0,,,77,0
26166,note_on,,1,0,1,,,,,,,,,0,,,45,0
26203,note_on,,37,0,1,,,,,,,,,0,,,45,89
26219,note_on,,16,0,1,,,,,,,,,0,,,45,0
26254,note_on,,35,0,1,,,,,,,,,0,,,45,86
26255,note_on,,0,0,1,,,,,,,,,0,,,77,107
26255,note_on,,1,0,1,,,,,,,,,0,,,68,101
26255,note_on,,0,0,1,,,,,,,,,0,,,74,108
26257,control_change,,2,0,1,,,,,,,,,0,64,0,,
26279,note_on,,22,0,1,,,,,,,,,0,,,45,0
26280,control_change,,1,0,1,,,,,,,,,0,64,127,,
26305,note_on,,25,0,1,,,,,,,,,0,,,45,102
26305,note_on,,0,0,1,,,,,,,,,0,,,68,0
26305,note_on,,0,0,1,,,,,,,,,0,,,74,0
26312,note_on,,7,0,1,,,,,,,,,0,,,77,0
26323,note_on,,11,0,1,,,,,,,,,0,,,45,0
26355,note_on,,32,0,1,,,,,,,,,0,,,72,106
26355,note_on,,0,0,1,,,,,,,,,0,,,76,109
26356,note_on,,1,0,1,,,,,,,,,0,,,45,101
26356,note_on,,0,0,1,,,,,,,,,0,,,69,107
26360,control_change,,4,0,1,,,,,,,,,0,64,0,,
26381,note_on,,21,0,1,,,,,,,,,0,,,45,0
26400,control_change,,19,0,1,,,,,,,,,0,64,127,,
26405,note_on,,5,0,1,,,,,,,,,0,,,45,105
26420,note_on,,15,0,1,,,,,,,,,0,,,45,0
26455,note_on,,35,0,1,,,,,,,,,0,,,45,108
26473,note_on,,18,0,1,,,,,,,,,0,,,45,0
26480,control_change,,7,0,1,,,,,,,,,0,64,0,,
26505,note_on,,25,0,1,,,,,,,,,0,,,45,103
26520,note_on,,15,0,1,,,,,,,,,0,,,45,0
26546,control_change,,26,0,1,,,,,,,,,0,64,127,,
26556,note_on,,10,0,1,,,,,,,,,0,,,45,105
26557,note_on,,1,0,1,,,,,,,,,0,,,76,0
26560,note_on,,3,0,1,,,,,,,,,0,,,72,0
26567,note_on,,7,0,1,,,,,,,,,0,,,69,0
26571,note_on,,4,0,1,,,,,,,,,0,,,45,0
26605,note_on,,34,0,1,,,,,,,,,0,,,45,102
26620,note_on,,15,0,1,,,,,,,,,0,,,45,0
26657,note_on,,0,0,1,,,,,,,,,0,,,74,106
26657,note_on,,37,0,1,,,,,,,,,0,,,65,112
26658,note_on,,0,0,1,,,,,,,,,0,,,45,92
26658,note_on,,1,0,1,,,,,,,,,0,,,38,83
26662,control_change,,4,0,1,,,,,,,,,0,64,0,,
26679,note_on,,17,0,1,,,,,,,,,0,,,45,0
26688,note_on,,9,0,1,,,,,,,,,0,,,38,0
26707,control_change,,19,0,1,,,,,,,,,0,64,127,,
26713,note_on,,6,0,1,,,,,,,,,0,,,45,96
26713,note_on,,0,0,1,,,,,,,,,0,,,38,86
26733,note_on,,20,0,1,,,,,,,,,0,,,38,0
26733,note_on,,0,0,1,,,,,,,,,0,,,45,0
26760,note_on,,27,0,1,,,,,,,,,0,,,38,99
26761,note_on,,1,0,1,,,,,,,,,0,,,45,98
26781,note_on,,20,0,1,,,,,,,,,0,,,45,0
26783,note_on,,2,0,1,,,,,,,,,0,,,38,0
26807,note_on,,24,0,1,,,,,,,,,0,,,45,103
26808,note_on,,1,0,1,,,,,,,,,0,,,38,104
26823,note_on,,15,0,1,,,,,,,,,0,,,38,0
26825,note_on,,2,0,1,,,,,,,,,0,,,45,0
26836,note_on,,11,0,1,,,,,,,,,0,,,74,0
26836,note_on,,0,0,1,,,,,,,,,0,,,65,0
26855,note_on,,19,0,1,,,,,,,,,0,,,38,103
26858,note_on,,0,0,1,,,,,,,,,0,,,64,97
26858,note_on,,0,0,1,,,,,,,,,0,,,72,113
26858,note_on,,3,0,1,,,,,,,,,0,,,45,112
26870,note_on,,12,0,1,,,,,,,,,0,,,38,0
26878,note_on,,8,0,1,,,,,,,,,0,,,45,0
26900,note_on,,0,0,1,,,,,,,,,0,,,38,95
26900,note_on,,0,0,1,,,,,,,,,0,,,71,111
26900,note_on,,0,0,1,,,,,,,,,0,,,62,89
26900,note_on,,22,0,1,,,,,,,,,0,,,45,95
26915,note_on,,15,0,1,,,,,,,,,0,,,45,0
26916,note_on,,1,0,1,,,,,,,,,0,,,38,0
26917,note_on,,0,0,1,,,,,,,,,0,,,72,0
26917,note_on,,1,0,1,,,,,,,,,0,,,64,0
26955,note_on,,0,0,1,,,,,,,,,0,,,66,102
26955,note_on,,38,0,1,,,,,,,,,0,,,60,100
26955,note_on,,0,0,1,,,,,,,,,0,,,69,113
26955,note_on,,0,0,1,,,,,,,,,0,,,39,87
26955,note_on,,0,0,1,,,,,,,,,0,,,45,81
26959,note_on,,0,0,1,,,,,,,,,0,,,71,0
26959,note_on,,4,0,1,,,,,,,,,0,,,62,0
26960,control_change,,1,0,1,,,,,,,,,0,64,0,,
26975,note_on,,15,0,1,,,,,,,,,0,,,39,0
26986,note_on,,11,0,1,,,,,,,,,0,,,45,0
27005,control_change,,19,0,1,,,,,,,,,0,64,127,,
27010,note_on,,0,0,1,,,,,,,,,0,,,39,98
27010,note_on,,5,0,1,,,,,,,,,0,,,45,87
27028,note_on,,18,0,1,,,,,,,,,0,,,39,0
27031,note_on,,3,0,1,,,,,,,,,0,,,45,0
27040,note_on,,9,0,1,,,,,,,,,0,,,66,0
27045,note_on,,5,0,1,,,,,,,,,0,,,60,0
27048,note_on,,3,0,1,,,,,,,,,0,,,69,0
27055,note_on,,7,0,1,,,,,,,,,0,,,39,96
27055,note_on,,0,0,1,,,,,,,,,0,,,45,94
27072,note_on,,17,0,1,,,,,,,,,0,,,39,0
27075,note_on,,3,0,1,,,,,,,,,0,,,45,0
27100,note_on,,0,0,1,,,,,,,,,0,,,45,93
27100,note_on,,25,0,1,,,,,,,,,0,,,39,104
27116,note_on,,16,0,1,,,,,,,,,0,,,39,0
27120,note_on,,4,0,1,,,,,,,,,0,,,45,0
27140,control_change,,20,0,1,,,,,,,,,0,64,0,,
27149,note_on,,0,0,1,,,,,,,,,0,,,45,101
27149,note_on,,0,0,1,,,,,,,,,0,,,60,115
27149,note_on,,9,0,1,,,,,,,,,0,,,69,117
27149,note_on,,0,0,1,,,,,,,,,0,,,39,97
27170,note_on,,21,0,1,,,,,,,,,0,,,39,0
27170,note_on,,0,0,1,,,,,,,,,0,,,45,0
27195,note_on,,25,0,1,,,,,,,,,0,,,39,105
27196,note_on,,1,0,1,,,,,,,,,0,,,45,101
27214,note_on,,18,0,1,,,,,,,,,0,,,60,0
27219,note_on,,5,0,1,,,,,,,,,0,,,69,0
27220,note_on,,1,0,1,,,,,,,,,0,,,39,0
27221,note_on,,1,0,1,,,,,,,,,0,,,45,0
27250,note_on,,0,0,1,,,,,,,,,0,,,40,84
27250,note_on,,0,0,1,,,,,,,,,0,,,60,112
27250,note_on,,29,0,1,,,,,,,,,0,,,45,92
27251,note_on,,1,0,1,,,,,,,,,0,,,69,115
27270,note_on,,0,0,1,,,,,,,,,0,,,45,0
27270,note_on,,19,0,1,,,,,,,,,0,,,40,0
27300,note_on,,30,0,1,,,,,,,,,0,,,45,83
27302,note_on,,2,0,1,,,,,,,,,0,,,40,83
27322,note_on,,0,0,1,,,,,,,,,0,,,45,0
27322,note_on,,20,0,1,,,,,,,,,0,,,40,0
27352,note_on,,0,0,1,,,,,,,,,0,,,40,79
27352,note_on,,0,0,1,,,,,,,,,0,,,45,86
27352,note_on,,0,0,1,,,,,,,,,0,,,64,76
27352,note_on,,30,0,1,,,,,,,,,0,,,72,100
27354,note_on,,2,0,1,,,,,,,,,0,,,69,0
27369,note_on,,0,0,1,,,,,,,,,0,,,40,0
27369,note_on,,15,0,1,,,,,,,,,0,,,60,0
27372,note_on,,3,0,1,,,,,,,,,0,,,45,0
27398,note_on,,26,0,1,,,,,,,,,0,,,40,86
27400,note_on,,2,0,1,,,,,,,,,0,,,45,93
27416,note_on,,16,0,1,,,,,,,,,0,,,45,0
27416,note_on,,0,0,1,,,,,,,,,0,,,40,0
27446,note_on,,0,0,1,,,,,,,,,0,,,71,96
27446,note_on,,30,0,1,,,,,,,,,0,,,44,95
27446,note_on,,0,0,1,,,,,,,,,0,,,62,70
27447,note_on,,1,0,1,,,,,,,,,0,,,40,86
27462,note_on,,15,0,1,,,,,,,,,0,,,72,0
27464,note_on,,2,0,1,,,,,,,,,0,,,44,0
27465,note_on,,1,0,1,,,,,,,,,0,,,40,0
27471,note_on,,6,0,1,,,,,,,,,0,,,64,0
27503,note_on,,32,0,1,,,,,,,,,0,,,44,103
27503,note_on,,0,0,1,,,,,,,,,0,,,40,66
27518,note_on,,15,0,1,,,,,,,,,0,,,44,0
27521,note_on,,3,0,1,,,,,,,,,0,,,40,0
27559,note_on,,38,0,1,,,,,,,,,0,,,71,0
27564,note_on,,5,0,1,,,,,,,,,0,,,45,66
27565,note_on,,1,0,1,,,,,,,,,0,,,69,87
27565,note_on,,0,0,1,,,,,,,,,0,,,62,0
27566,note_on,,1,0,1,,,,,,,,,0,,,33,77
27566,note_on,,0,0,1,,,,,,,,,0,,,60,80
27589,note_on,,23,0,1,,,,,,,,,0,,,45,0
27596,note_on,,7,0,1,,,,,,,,,0,,,33,0
27605,control_change,,9,0,1,,,,,,,,,0,64,127,,
27625,note_on,,20,0,1,,,,,,,,,0,,,45,66
27646,note_on,,21,0,1,,,,,,,,,0,,,45,0
27675,note_on,,29,0,1,,,,,,,,,0,,,45,81
27695,note_on,,20,0,1,,,,,,,,,0,,,45,0
27726,note_on,,31,0,1,,,,,,,,,0,,,45,76
27744,note_on,,18,0,1,,,,,,,,,0,,,45,0
27774,note_on,,30,0,1,,,,,,,,,0,,,69,0
27775,note_on,,1,0,1,,,,,,,,,0,,,60,0
27776,note_on,,1,0,1,,,,,,,,,0,,,45,75
27791,note_on,,15,0,1,,,,,,,,,0,,,45,0
27821,note_on,,30,0,1,,,,,,,,,0,,,45,75
27837,note_on,,16,0,1,,,,,,,,,0,,,45,0
27871,control_change,,34,0,1,,,,,,,,,0,64,0,,
27873,note_on,,2,0,1,,,,,,,,,0,,,73,102
27875,note_on,,0,0,1,,,,,,,,,0,,,70,103
27875,note_on,,0,0,1,,,,,,,,,0,,,67,95
27875,note_on,,2,0,1,,,,,,,,,0,,,64,100
27876,note_on,,1,0,1,,,,,,,,,0,,,45,98
27901,note_on,,25,0,1,,,,,,,,,0,,,45,0
27920,control_change,,19,0,1,,,,,,,,,0,64,127,,
27922,note_on,,2,0,1,,,,,,,,,0,,,45,93
27950,note_on,,28,0,1,,,,,,,,,0,,,45,0
27971,note_on,,21,0,1,,,,,,,,,0,,,45,92
27996,note_on,,25,0,1,,,,,,,,,0,,,45,0
28021,note_on,,25,0,1,,,,,,,,,0,,,45,89
28049,note_on,,28,0,1,,,,,,,,,0,,,45,0
28070,note_on,,21,0,1,,,,,,,,,0,,,45,93
28082,note_on,,12,0,1,,,,,,,,,0,,,73,0
28084,note_on,,0,0,1,,,,,,,,,0,,,64,0
28084,note_on,,2,0,1,,,,,,,,,0,,,70,0
28084,note_on,,0,0,1,,,,,,,,,0,,,67,0
28100,note_on,,16,0,1,,,,,,,,,0,,,45,0
28120,note_on,,20,0,1,,,,,,,,,0,,,45,95
28145,note_on,,25,0,1,,,,,,,,,0,,,45,0
28167,note_on,,22,0,1,,,,,,,,,0,,,74,99
28170,note_on,,0,0,1,,,,,,,,,0,,,65,90
28170,note_on,,3,0,1,,,,,,,,,0,,,45,96
28170,note_on,,0,0,1,,,,,,,,,0,,,69,95
28175,control_change,,5,0,1,,,,,,,,,0,64,0,,
28185,note_on,,10,0,1,,,,,,,,,0,,,45,0
28211,control_change,,26,0,1,,,,,,,,,0,64,127,,
28220,note_on,,9,0,1,,,,,,,,,0,,,45,93
28235,note_on,,15,0,1,,,,,,,,,0,,,45,0
28265,note_on,,30,0,1,,,,,,,,,0,,,45,90
28292,note_on,,27,0,1,,,,,,,,,0,,,45,0
28312,note_on,,20,0,1,,,,,,,,,0,,,45,92
28316,note_on,,4,0,1,,,,,,,,,0,,,74,0
28319,note_on,,0,0,1,,,,,,,,,0,,,69,0
28319,note_on,,3,0,1,,,,,,,,,0,,,65,0
28334,note_on,,15,0,1,,,,,,,,,0,,,45,0
28346,control_change,,12,0,1,,,,,,,,,0,64,0,,
28355,note_on,,9,0,1,,,,,,,,,0,,,45,87
28356,note_on,,1,0,1,,,,,,,,,0,,,73,92
28357,note_on,,1,0,1,,,,,,,,,0,,,76,96
28375,note_on,,18,0,1,,,,,,,,,0,,,45,0
28380,control_change,,5,0,1,,,,,,,,,0,64,127,,
28386,note_on,,6,0,1,,,,,,,,,0,,,73,0
28392,note_on,,6,0,1,,,,,,,,,0,,,76,0
28408,note_on,,16,0,1,,,,,,,,,0,,,45,90
28409,note_on,,1,0,1,,,,,,,,,0,,,77,97
28409,note_on,,0,0,1,,,,,,,,,0,,,74,96
28425,note_on,,16,0,1,,,,,,,,,0,,,45,0
28430,note_on,,5,0,1,,,,,,,,,0,,,74,0
28438,note_on,,8,0,1,,,,,,,,,0,,,77,0
28460,note_on,,0,0,1,,,,,,,,,0,,,45,93
28460,note_on,,22,0,1,,,,,,,,,0,,,74,97
28461,note_on,,1,0,1,,,,,,,,,0,,,77,96
28466,control_change,,5,0,1,,,,,,,,,0,64,0,,
28485,note_on,,19,0,1,,,,,,,,,0,,,45,0
28505,note_on,,20,0,1,,,,,,,,,0,,,45,91
28510,control_change,,5,0,1,,,,,,,,,0,64,127,,
28522,note_on,,12,0,1,,,,,,,,,0,,,45,0
28550,note_on,,28,0,1,,,,,,,,,0,,,45,93
28567,note_on,,17,0,1,,,,,,,,,0,,,45,0
28598,note_on,,31,0,1,,,,,,,,,0,,,45,90
28613,note_on,,15,0,1,,,,,,,,,0,,,45,0
28639,note_on,,26,0,1,,,,,,,,,0,,,74,0
28640,note_on,,0,0,1,,,,,,,,,0,,,77,0
28640,control_change,,1,0,1,,,,,,,,,0,64,0,,
28648,note_on,,8,0,1,,,,,,,,,0,,,45,86
28650,note_on,,0,0,1,,,,,,,,,0,,,74,98
28650,note_on,,2,0,1,,,,,,,,,0,,,77,107
28663,note_on,,13,0,1,,,,,,,,,0,,,45,0
28671,control_change,,8,0,1,,,,,,,,,0,64,127,,
28699,note_on,,28,0,1,,,,,,,,,0,,,45,96
28719,note_on,,20,0,1,,,,,,,,,0,,,45,0
28739,note_on,,20,0,1,,,,,,,,,0,,,74,0
28739,note_on,,0,0,1,,,,,,,,,0,,,77,0
28750,note_on,,0,0,1,,,,,,,,,0,,,77,103
28750,note_on,,0,0,1,,,,,,,,,0,,,74,97
28750,note_on,,11,0,1,,,,,,,,,0,,,46,88
28755,control_change,,5,0,1,,,,,,,,,0,64,0,,
28786,note_on,,31,0,1,,,,,,,,,0,,,46,0
28795,control_change,,9,0,1,,,,,,,,,0,64,127,,
28810,note_on,,15,0,1,,,,,,,,,0,,,46,93
28825,note_on,,15,0,1,,,,,,,,,0,,,46,0
28855,note_on,,30,0,1,,,,,,,,,0,,,46,87
28872,note_on,,17,0,1,,,,,,,,,0,,,46,0
28895,note_on,,23,0,1,,,,,,,,,0,,,46,87
28913,note_on,,18,0,1,,,,,,,,,0,,,46,0
28915,note_on,,2,0,1,,,,,,,,,0,,,77,0
28920,note_on,,5,0,1,,,,,,,,,0,,,74,0
28940,note_on,,20,0,1,,,,,,,,,0,,,46,91
28955,note_on,,15,0,1,,,,,,,,,0,,,46,0
28988,note_on,,33,0,1,,,,,,,,,0,,,46,93
29003,note_on,,15,0,1,,,,,,,,,0,,,46,0
29025,control_change,,22,0,1,,,,,,,,,0,64,0,,
29040,note_on,,15,0,1,,,,,,,,,0,,,46,86
29040,note_on,,0,0,1,,,,,,,,,0,,,75,97
29041,note_on,,1,0,1,,,,,,,,,0,,,67,90
29060,note_on,,19,0,1,,,,,,,,,0,,,46,0
29076,control_change,,16,0,1,,,,,,,,,0,64,127,,
29077,control_change,,1,0,1,,,,,,,,,0,64,0,,
29077,control_change,,0,0,1,,,,,,,,,0,64,127,,
29087,note_on,,10,0,1,,,,,,,,,0,,,46,89
29100,note_on,,13,0,1,,,,,,,,,0,,,75,0
29107,note_on,,7,0,1,,,,,,,,,0,,,46,0
29119,note_on,,12,0,1,,,,,,,,,0,,,67,0
29136,note_on,,17,0,1,,,,,,,,,0,,,46,90
29156,note_on,,20,0,1,,,,,,,,,0,,,46,0
29185,note_on,,29,0,1,,,,,,,,,0,,,46,92
29200,note_on,,15,0,1,,,,,,,,,0,,,46,0
29233,note_on,,33,0,1,,,,,,,,,0,,,46,88
29233,note_on,,0,0,1,,,,,,,,,0,,,65,87
29233,note_on,,0,0,1,,,,,,,,,0,,,74,100
29248,note_on,,15,0,1,,,,,,,,,0,,,46,0
29280,note_on,,32,0,1,,,,,,,,,0,,,46,88
29280,note_on,,0,0,1,,,,,,,,,0,,,72,95
29280,note_on,,0,0,1,,,,,,,,,0,,,63,91
29292,note_on,,12,0,1,,,,,,,,,0,,,74,0
29292,note_on,,0,0,1,,,,,,,,,0,,,65,0
29298,note_on,,6,0,1,,,,,,,,,0,,,46,0
29335,note_on,,37,0,1,,,,,,,,,0,,,46,88
29336,note_on,,0,0,1,,,,,,,,,0,,,70,98
29336,note_on,,1,0,1,,,,,,,,,0,,,65,97
29337,note_on,,1,0,1,,,,,,,,,0,,,62,93
29339,note_on,,0,0,1,,,,,,,,,0,,,72,0
29339,note_on,,2,0,1,,,,,,,,,0,,,63,0
29345,control_change,,6,0,1,,,,,,,,,0,64,0,,
29355,note_on,,10,0,1,,,,,,,,,0,,,46,0
29383,note_on,,28,0,1,,,,,,,,,0,,,46,87
29398,note_on,,15,0,1,,,,,,,,,0,,,46,0
29430,note_on,,32,0,1,,,,,,,,,0,,,46,91
29450,note_on,,20,0,1,,,,,,,,,0,,,46,0
29452,note_on,,2,0,1,,,,,,,,,0,,,62,0
29461,note_on,,9,0,1,,,,,,,,,0,,,65,0
29476,note_on,,15,0,1,,,,,,,,,0,,,70,0
29480,note_on,,4,0,1,,,,,,,,,0,,,46,89
29500,note_on,,20,0,1,,,,,,,,,0,,,46,0
29535,note_on,,35,0,1,,,,,,,,,0,,,65,87
29535,note_on,,0,0,1,,,,,,,,,0,,,69,87
29536,note_on,,1,0,1,,,,,,,,,0,,,62,80
29536,note_on,,0,0,1,,,,,,,,,0,,,46,89
29556,note_on,,20,0,1,,,,,,,,,0,,,46,0
29571,note_on,,15,0,1,,,,,,,,,0,,,62,0
29585,note_on,,14,0,1,,,,,,,,,0,,,46,87
29585,note_on,,0,0,1,,,,,,,,,0,,,65,0
29605,note_on,,20,0,1,,,,,,,,,0,,,46,0
29635,note_on,,30,0,1,,,,,,,,,0,,,69,0
29638,note_on,,0,0,1,,,,,,,,,0,,,68,88
29638,note_on,,0,0,1,,,,,,,,,0,,,65,76
29638,note_on,,0,0,1,,,,,,,,,0,,,62,71
29638,note_on,,3,0,1,,,,,,,,,0,,,47,73
29663,note_on,,25,0,1,,,,,,,,,0,,,47,0
29688,note_on,,25,0,1,,,,,,,,,0,,,47,81
29711,note_on,,23,0,1,,,,,,,,,0,,,47,0
29728,note_on,,17,0,1,,,,,,,,,0,,,62,0
29735,note_on,,7,0,1,,,,,,,,,0,,,65,0
29738,note_on,,3,0,1,,,,,,,,,0,,,47,87
29740,note_on,,2,0,1,,,,,,,,,0,,,68,0
29758,note_on,,18,0,1,,,,,,,,,0,,,47,0
29788,note_on,,30,0,1,,,,,,,,,0,,,47,78
29806,note_on,,18,0,1,,,,,,,,,0,,,47,0
29835,note_on,,29,0,1,,,,,,,,,0,,,47,83
29835,note_on,,0,0,1,,,,,,,,,0,,,62,83
29835,note_on,,0,0,1,,,,,,,,,0,,,68,93
29836,note_on,,1,0,1,,,,,,,,,0,,,65,80
29855,note_on,,19,0,1,,,,,,,,,0,,,47,0
29888,note_on,,33,0,1,,,,,,,,,0,,,47,97
29903,note_on,,15,0,1,,,,,,,,,0,,,47,0
29924,note_on,,0,0,1,,,,,,,,,0,,,62,0
29924,note_on,,21,0,1,,,,,,,,,0,,,68,0
29925,note_on,,1,0,1,,,,,,,,,0,,,65,0
29950,note_on,,0,0,1,,,,,,,,,0,,,48,68
29950,note_on,,25,0,1,,,,,,,,,0,,,60,73
29951,note_on,,1,0,1,,,,,,,,,0,,,64,73
29952,note_on,,1,0,1,,,,,,,,,0,,,69,77
30099,note_on,,0,0,1,,,,,,,,,0,,,60,0
30099,note_on,,147,0,1,,,,,,,,,0,,,48,0
30100,note_on,,1,0,1,,,,,,,,,0,,,64,0
30101,note_on,,1,0,1,,,,,,,,,0,,,69,0
30326,note_on,,0,0,1,,,,,,,,,0,,,52,61
30326,note_on,,0,0,1,,,,,,,,,0,,,56,58
30326,note_on,,0,0,1,,,,,,,,,0,,,62,59
30326,note_on,,0,0,1,,,,,,,,,0,,,64,62
30326,note_on,,225,0,1,,,,,,,,,0,,,71,74
30475,note_on,,0,0,1,,,,,,,,,0,,,64,0
30475,note_on,,0,0,1,,,,,,,,,0,,,56,0
30475,note_on,,0,0,1,,,,,,,,,0,,,62,0
30475,note_on,,149,0,1,,,,,,,,,0,,,52,0
30505,note_on,,30,0,1,,,,,,,,,0,,,71,0
30720,note_on,,215,0,1,,,,,,,,,0,,,33,64
30721,note_on,,1,0,1,,,,,,,,,0,,,57,67
30745,control_change,,24,0,1,,,,,,,,,0,64,127,,
30759,note_on,,14,0,1,,,,,,,,,0,,,57,0
30761,note_on,,2,0,1,,,,,,,,,0,,,60,81
30795,note_on,,34,0,1,,,,,,,,,0,,,64,80
30809,note_on,,14,0,1,,,,,,,,,0,,,33,0
30820,note_on,,11,0,1,,,,,,,,,0,,,60,0
30832,note_on,,12,0,1,,,,,,,,,0,,,69,98
30854,note_on,,22,0,1,,,,,,,,,0,,,64,0
30869,note_on,,15,0,1,,,,,,,,,0,,,72,101
30891,note_on,,22,0,1,,,,,,,,,0,,,69,0
30905,note_on,,14,0,1,,,,,,,,,0,,,76,96
30907,note_on,,2,0,1,,,,,,,,,0,,,72,0
30940,note_on,,33,0,1,,,,,,,,,0,,,74,103
30941,note_on,,0,0,1,,,,,,,,,0,,,57,73
30941,control_change,,1,0,1,,,,,,,,,0,64,0,,
30941,note_on,,0,0,1,,,,,,,,,0,,,64,70
30941,note_on,,0,0,1,,,,,,,,,0,,,60,83
30950,note_on,,9,0,1,,,,,,,,,0,,,76,0
30977,note_on,,27,0,1,,,,,,,,,0,,,72,103
30980,control_change,,3,0,1,,,,,,,,,0,64,127,,
30982,note_on,,2,0,1,,,,,,,,,0,,,74,0
31000,note_on,,0,0,1,,,,,,,,,0,,,64,0
31000,note_on,,0,0,1,,,,,,,,,0,,,60,0
31000,note_on,,18,0,1,,,,,,,,,0,,,57,0
31012,note_on,,12,0,1,,,,,,,,,0,,,71,103
31017,note_on,,5,0,1,,,,,,,,,0,,,72,0
31040,note_on,,23,0,1,,,,,,,,,0,,,71,0
31045,note_on,,0,0,1,,,,,,,,,0,,,60,84
31045,note_on,,0,0,1,,,,,,,,,0,,,64,81
31045,note_on,,5,0,1,,,,,,,,,0,,,69,103
31045,note_on,,0,0,1,,,,,,,,,0,,,57,74
31050,control_change,,5,0,1,,,,,,,,,0,64,0,,
31085,note_on,,35,0,1,,,,,,,,,0,,,72,109
31090,note_on,,5,0,1,,,,,,,,,0,,,69,0
31100,control_change,,10,0,1,,,,,,,,,0,64,127,,
31120,note_on,,0,0,1,,,,,,,,,0,,,72,0
31120,note_on,,20,0,1,,,,,,,,,0,,,76,99
31122,note_on,,2,0,1,,,,,,,,,0,,,60,0
31134,note_on,,12,0,1,,,,,,,,,0,,,64,0
31134,note_on,,0,0,1,,,,,,,,,0,,,57,0
31150,note_on,,16,0,1,,,,,,,,,0,,,76,0
31155,note_on,,5,0,1,,,,,,,,,0,,,81,105
31185,note_on,,30,0,1,,,,,,,,,0,,,81,0
31190,note_on,,5,0,1,,,,,,,,,0,,,84,113
31226,note_on,,36,0,1,,,,,,,,,0,,,88,110
31233,note_on,,7,0,1,,,,,,,,,0,,,84,0
31255,control_change,,22,0,1,,,,,,,,,0,64,0,,
31260,note_on,,0,0,1,,,,,,,,,0,,,64,73
31260,note_on,,5,0,1,,,,,,,,,0,,,57,77
31260,note_on,,0,0,1,,,,,,,,,0,,,60,96
31261,note_on,,1,0,1,,,,,,,,,0,,,86,108
31281,note_on,,20,0,1,,,,,,,,,0,,,88,0
31295,note_on,,14,0,1,,,,,,,,,0,,,64,0
31295,note_on,,0,0,1,,,,,,,,,0,,,57,0
31295,note_on,,0,0,1,,,,,,,,,0,,,60,0
31297,note_on,,2,0,1,,,,,,,,,0,,,86,0
31300,control_change,,0,0,1,,,,,,,,,0,64,127,,
31300,note_on,,3,0,1,,,,,,,,,0,,,84,110
31333,note_on,,33,0,1,,,,,,,,,0,,,83,107
31337,note_on,,4,0,1,,,,,,,,,0,,,84,0
31363,note_on,,26,0,1,,,,,,,,,0,,,83,0
31365,control_change,,2,0,1,,,,,,,,,0,64,0,,
31366,note_on,,1,0,1,,,,,,,,,0,,,60,94
31366,note_on,,0,0,1,,,,,,,,,0,,,64,81
31366,note_on,,0,0,1,,,,,,,,,0,,,81,101
31366,note_on,,0,0,1,,,,,,,,,0,,,57,81
31402,note_on,,36,0,1,,,,,,,,,0,,,84,110
31416,note_on,,14,0,1,,,,,,,,,0,,,81,0
31420,control_change,,4,0,1,,,,,,,,,0,64,127,,
31440,note_on,,20,0,1,,,,,,,,,0,,,88,107
31445,note_on,,5,0,1,,,,,,,,,0,,,84,0
31460,note_on,,15,0,1,,,,,,,,,0,,,88,0
31480,note_on,,20,0,1,,,,,,,,,0,,,93,113
31501,note_on,,21,0,1,,,,,,,,,0,,,57,0
31502,note_on,,1,0,1,,,,,,,,,0,,,60,0
31506,note_on,,4,0,1,,,,,,,,,0,,,64,0
31520,note_on,,14,0,1,,,,,,,,,0,,,96,108
31535,note_on,,15,0,1,,,,,,,,,0,,,93,0
31557,note_on,,22,0,1,,,,,,,,,0,,,100,115
31575,note_on,,18,0,1,,,,,,,,,0,,,96,0
31595,control_change,,20,0,1,,,,,,,,,0,64,0,,
31600,note_on,,0,0,1,,,,,,,,,0,,,98,116
31600,note_on,,5,0,1,,,,,,,,,0,,,64,78
31601,note_on,,0,0,1,,,,,,,,,0,,,57,77
31601,note_on,,1,0,1,,,,,,,,,0,,,60,94
31627,note_on,,26,0,1,,,,,,,,,0,,,100,0
31640,control_change,,13,0,1,,,,,,,,,0,64,127,,
31645,note_on,,5,0,1,,,,,,,,,0,,,96,111
31656,note_on,,11,0,1,,,,,,,,,0,,,57,0
31659,note_on,,3,0,1,,,,,,,,,0,,,60,0
31660,note_on,,0,0,1,,,,,,,,,0,,,98,0
31660,note_on,,1,0,1,,,,,,,,,0,,,64,0
31680,note_on,,20,0,1,,,,,,,,,0,,,95,109
31685,note_on,,5,0,1,,,,,,,,,0,,,96,0
31729,note_on,,44,0,1,,,,,,,,,0,,,60,92
31730,note_on,,1,0,1,,,,,,,,,0,,,94,110
31730,note_on,,0,0,1,,,,,,,,,0,,,57,69
31731,note_on,,1,0,1,,,,,,,,,0,,,64,70
31735,control_change,,4,0,1,,,,,,,,,0,64,0,,
31748,note_on,,13,0,1,,,,,,,,,0,,,95,0
31780,note_on,,32,0,1,,,,,,,,,0,,,93,106
31795,note_on,,15,0,1,,,,,,,,,0,,,94,0
31825,note_on,,30,0,1,,,,,,,,,0,,,92,106
31835,note_on,,10,0,1,,,,,,,,,0,,,93,0
31865,note_on,,30,0,1,,,,,,,,,0,,,91,99
31868,note_on,,3,0,1,,,,,,,,,0,,,92,0
31905,note_on,,37,0,1,,,,,,,,,0,,,90,97
31908,note_on,,3,0,1,,,,,,,,,0,,,57,0
31910,note_on,,2,0,1,,,,,,,,,0,,,91,0
31919,note_on,,9,0,1,,,,,,,,,0,,,60,0
31919,note_on,,0,0,1,,,,,,,,,0,,,64,0
31945,note_on,,26,0,1,,,,,,,,,0,,,89,94
31955,note_on,,10,0,1,,,,,,,,,0,,,90,0
31985,note_on,,30,0,1,,,,,,,,,0,,,88,91
31985,note_on,,0,0,1,,,,,,,,,0,,,89,0
32020,note_on,,35,0,1,,,,,,,,,0,,,87,87
32027,note_on,,7,0,1,,,,,,,,,0,,,88,0
32060,note_on,,33,0,1,,,,,,,,,0,,,86,84
32079,note_on,,19,0,1,,,,,,,,,0,,,87,0
32100,note_on,,21,0,1,,,,,,,,,0,,,85,81
32110,note_on,,10,0,1,,,,,,,,,0,,,86,0
32145,note_on,,35,0,1,,,,,,,,,0,,,84,81
32160,note_on,,15,0,1,,,,,,,,,0,,,85,0
32185,note_on,,0,0,1,,,,,,,,,0,,,84,0
32185,note_on,,25,0,1,,,,,,,,,0,,,83,76
32225,note_on,,40,0,1,,,,,,,,,0,,,82,75
32230,note_on,,5,0,1,,,,,,,,,0,,,83,0
32265,note_on,,35,0,1,,,,,,,,,0,,,81,78
32270,note_on,,5,0,1,,,,,,,,,0,,,82,0
32312,note_on,,42,0,1,,,,,,,,,0,,,80,72
32315,note_on,,3,0,1,,,,,,,,,0,,,81,0
32360,note_on,,45,0,1,,,,,,,,,0,,,80,0
32365,note_on,,5,0,1,,,,,,,,,0,,,79,72
32431,note_on,,66,0,1,,,,,,,,,0,,,78,64
32440,note_on,,9,0,1,,,,,,,,,0,,,79,0
32510,note_on,,70,0,1,,,,,,,,,0,,,77,72
32514,note_on,,4,0,1,,,,,,,,,0,,,78,0
32620,note_on,,0,0,1,,,,,,,,,0,,,77,0
32620,note_on,,106,0,1,,,,,,,,,0,,,76,72
32715,note_on,,95,0,1,,,,,,,,,0,,,75,71
32722,note_on,,7,0,1,,,,,,,,,0,,,76,0
32785,note_on,,63,0,1,,,,,,,,,0,,,76,77
32786,note_on,,1,0,1,,,,,,,,,0,,,75,0
32842,note_on,,56,0,1,,,,,,,,,0,,,71,71
32866,note_on,,24,0,1,,,,,,,,,0,,,76,0
32900,note_on,,34,0,1,,,,,,,,,0,,,74,74
32942,note_on,,42,0,1,,,,,,,,,0,,,71,0
32962,note_on,,20,0,1,,,,,,,,,0,,,72,75
32967,note_on,,5,0,1,,,,,,,,,0,,,74,0
33050,note_on,,0,0,1,,,,,,,,,0,,,72,0
33050,note_on,,83,0,1,,,,,,,,,0,,,69,69
33052,note_on,,2,0,1,,,,,,,,,0,,,45,63
33095,control_change,,43,0,1,,,,,,,,,0,64,127,,
33115,note_on,,20,0,1,,,,,,,,,0,,,52,61
33122,note_on,,7,0,1,,,,,,,,,0,,,45,0
33130,note_on,,8,0,1,,,,,,,,,0,,,69,0
33175,note_on,,45,0,1,,,,,,,,,0,,,57,63
33198,note_on,,23,0,1,,,,,,,,,0,,,52,0
33218,note_on,,20,0,1,,,,,,,,,0,,,57,0
33230,note_on,,12,0,1,,,,,,,,,0,,,60,75
33280,note_on,,50,0,1,,,,,,,,,0,,,60,0
33281,note_on,,1,0,1,,,,,,,,,0,,,64,71
33322,note_on,,41,0,1,,,,,,,,,0,,,64,0
33330,note_on,,8,0,1,,,,,,,,,0,,,69,78
33376,control_change,,46,0,1,,,,,,,,,0,64,0,,
33378,note_on,,2,0,1,,,,,,,,,0,,,69,0
33382,note_on,,0,0,1,,,,,,,,,0,,,71,77
33382,note_on,,4,0,1,,,,,,,,,0,,,40,74
33412,control_change,,30,0,1,,,,,,,,,0,64,127,,
33420,note_on,,8,0,1,,,,,,,,,0,,,40,0
33430,note_on,,10,0,1,,,,,,,,,0,,,52,71
33477,note_on,,47,0,1,,,,,,,,,0,,,56,79
33480,note_on,,3,0,1,,,,,,,,,0,,,52,0
33492,note_on,,12,0,1,,,,,,,,,0,,,71,0
33498,note_on,,6,0,1,,,,,,,,,0,,,56,0
33521,note_on,,23,0,1,,,,,,,,,0,,,64,75
33565,note_on,,44,0,1,,,,,,,,,0,,,68,78
33569,note_on,,4,0,1,,,,,,,,,0,,,64,0
33610,note_on,,41,0,1,,,,,,,,,0,,,71,90
33622,note_on,,12,0,1,,,,,,,,,0,,,68,0
33661,note_on,,39,0,1,,,,,,,,,0,,,71,0
33665,note_on,,4,0,1,,,,,,,,,0,,,72,91
33668,note_on,,3,0,1,,,,,,,,,0,,,45,63
33675,control_change,,7,0,1,,,,,,,,,0,64,0,,
33720,control_change,,45,0,1,,,,,,,,,0,64,127,,
33725,note_on,,5,0,1,,,,,,,,,0,,,52,76
33743,note_on,,18,0,1,,,,,,,,,0,,,45,0
33775,note_on,,32,0,1,,,,,,,,,0,,,57,68
33790,note_on,,15,0,1,,,,,,,,,0,,,52,0
33820,note_on,,30,0,1,,,,,,,,,0,,,72,0
33825,note_on,,5,0,1,,,,,,,,,0,,,64,68
33834,note_on,,9,0,1,,,,,,,,,0,,,57,0
33880,note_on,,46,0,1,,,,,,,,,0,,,76,76
33880,note_on,,0,0,1,,,,,,,,,0,,,64,0
33890,control_change,,10,0,1,,,,,,,,,0,64,0,,
33936,note_on,,46,0,1,,,,,,,,,0,,,75,69
33948,note_on,,12,0,1,,,,,,,,,0,,,76,0
33995,note_on,,47,0,1,,,,,,,,,0,,,76,76
33996,note_on,,1,0,1,,,,,,,,,0,,,75,0
34050,note_on,,54,0,1,,,,,,,,,0,,,75,73
34070,note_on,,20,0,1,,,,,,,,,0,,,76,0
34095,note_on,,25,0,1,,,,,,,,,0,,,76,87
34100,note_on,,5,0,1,,,,,,,,,0,,,75,0
34145,note_on,,45,0,1,,,,,,,,,0,,,71,84
34167,note_on,,22,0,1,,,,,,,,,0,,,76,0
34190,note_on,,23,0,1,,,,,,,,,0,,,74,77
34211,note_on,,21,0,1,,,,,,,,,0,,,71,0
34243,note_on,,32,0,1,,,,,,,,,0,,,74,0
34245,note_on,,2,0,1,,,,,,,,,0,,,72,75
34299,note_on,,54,0,1,,,,,,,,,0,,,45,62
34300,note_on,,1,0,1,,,,,,,,,0,,,69,71
34305,note_on,,5,0,1,,,,,,,,,0,,,72,0
34332,control_change,,27,0,1,,,,,,,,,0,64,127,,
34354,note_on,,22,0,1,,,,,,,,,0,,,45,0
34360,note_on,,6,0,1,,,,,,,,,0,,,52,60
34405,note_on,,45,0,1,,,,,,,,,0,,,57,65
34420,note_on,,15,0,1,,,,,,,,,0,,,52,0
34435,note_on,,15,0,1,,,,,,,,,0,,,69,0
34452,note_on,,17,0,1,,,,,,,,,0,,,60,70
34457,note_on,,5,0,1,,,,,,,,,0,,,57,0
34492,note_on,,35,0,1,,,,,,,,,0,,,60,0
34495,note_on,,3,0,1,,,,,,,,,0,,,64,75
34540,note_on,,45,0,1,,,,,,,,,0,,,64,0
34545,note_on,,5,0,1,,,,,,,,,0,,,69,77
34587,note_on,,42,0,1,,,,,,,,,0,,,69,0
34590,control_change,,3,0,1,,,,,,,,,0,64,0,,
34590,note_on,,0,0,1,,,,,,,,,0,,,71,74
34591,note_on,,1,0,1,,,,,,,,,0,,,40,69
34622,control_change,,31,0,1,,,,,,,,,0,64,127,,
34632,note_on,,10,0,1,,,,,,,,,0,,,40,0
34650,note_on,,18,0,1,,,,,,,,,0,,,52,67
34698,note_on,,48,0,1,,,,,,,,,0,,,52,0
34705,note_on,,7,0,1,,,,,,,,,0,,,56,76
34710,note_on,,5,0,1,,,,,,,,,0,,,71,0
34742,note_on,,32,0,1,,,,,,,,,0,,,56,0
34755,note_on,,13,0,1,,,,,,,,,0,,,64,66
34803,note_on,,48,0,1,,,,,,,,,0,,,64,0
34805,note_on,,2,0,1,,,,,,,,,0,,,72,83
34850,note_on,,45,0,1,,,,,,,,,0,,,72,0
34855,note_on,,5,0,1,,,,,,,,,0,,,71,71
34892,control_change,,37,0,1,,,,,,,,,0,64,0,,
34900,note_on,,8,0,1,,,,,,,,,0,,,71,0
34907,note_on,,7,0,1,,,,,,,,,0,,,45,55
34908,note_on,,1,0,1,,,,,,,,,0,,,69,66
34950,control_change,,42,0,1,,,,,,,,,0,64,127,,
34971,note_on,,21,0,1,,,,,,,,,0,,,52,67
34975,note_on,,4,0,1,,,,,,,,,0,,,45,0
35027,note_on,,52,0,1,,,,,,,,,0,,,69,0
35035,note_on,,8,0,1,,,,,,,,,0,,,57,58
35039,note_on,,4,0,1,,,,,,,,,0,,,52,0
35090,note_on,,51,0,1,,,,,,,,,0,,,71,94
35095,note_on,,5,0,1,,,,,,,,,0,,,57,0
35121,control_change,,26,0,1,,,,,,,,,0,64,0,,
35145,note_on,,24,0,1,,,,,,,,,0,,,72,96
35175,note_on,,30,0,1,,,,,,,,,0,,,71,0
35203,note_on,,28,0,1,,,,,,,,,0,,,74,104
35215,note_on,,12,0,1,,,,,,,,,0,,,72,0
35260,note_on,,45,0,1,,,,,,,,,0,,,48,64
35260,note_on,,0,0,1,,,,,,,,,0,,,76,103
35263,note_on,,3,0,1,,,,,,,,,0,,,74,0
35300,control_change,,37,0,1,,,,,,,,,0,64,127,,
35320,note_on,,20,0,1,,,,,,,,,0,,,55,74
35322,note_on,,2,0,1,,,,,,,,,0,,,76,0
35325,note_on,,3,0,1,,,,,,,,,0,,,48,0
35371,note_on,,46,0,1,,,,,,,,,0,,,60,91
35402,note_on,,31,0,1,,,,,,,,,0,,,55,0
35411,note_on,,9,0,1,,,,,,,,,0,,,67,103
35438,note_on,,27,0,1,,,,,,,,,0,,,60,0
35465,note_on,,27,0,1,,,,,,,,,0,,,77,107
35486,note_on,,21,0,1,,,,,,,,,0,,,67,0
35516,note_on,,30,0,1,,,,,,,,,0,,,76,104
35530,note_on,,14,0,1,,,,,,,,,0,,,77,0
35560,control_change,,30,0,1,,,,,,,,,0,64,0,,
35565,note_on,,5,0,1,,,,,,,,,0,,,43,71
35565,note_on,,0,0,1,,,,,,,,,0,,,74,104
35579,note_on,,14,0,1,,,,,,,,,0,,,76,0
35605,control_change,,26,0,1,,,,,,,,,0,64,127,,
35613,note_on,,8,0,1,,,,,,,,,0,,,43,0
35620,note_on,,7,0,1,,,,,,,,,0,,,55,71
35625,note_on,,5,0,1,,,,,,,,,0,,,74,0
35670,note_on,,45,0,1,,,,,,,,,0,,,59,67
35673,note_on,,3,0,1,,,,,,,,,0,,,55,0
35713,note_on,,40,0,1,,,,,,,,,0,,,59,0
35716,note_on,,3,0,1,,,,,,,,,0,,,65,91
35767,note_on,,51,0,1,,,,,,,,,0,,,76,97
35786,note_on,,19,0,1,,,,,,,,,0,,,65,0
35801,control_change,,15,0,1,,,,,,,,,0,64,0,,
35820,note_on,,19,0,1,,,,,,,,,0,,,74,91
35833,note_on,,13,0,1,,,,,,,,,0,,,76,0
35875,note_on,,42,0,1,,,,,,,,,0,,,72,91
35875,note_on,,0,0,1,,,,,,,,,0,,,45,64
35882,note_on,,7,0,1,,,,,,,,,0,,,74,0
35912,control_change,,30,0,1,,,,,,,,,0,64,127,,
35932,note_on,,20,0,1,,,,,,,,,0,,,45,0
35935,note_on,,0,0,1,,,,,,,,,0,,,72,0
35935,note_on,,3,0,1,,,,,,,,,0,,,52,62
35986,note_on,,51,0,1,,,,,,,,,0,,,57,64
36005,note_on,,19,0,1,,,,,,,,,0,,,52,0
36045,note_on,,40,0,1,,,,,,,,,0,,,64,83
36045,note_on,,0,0,1,,,,,,,,,0,,,57,0
36066,control_change,,21,0,1,,,,,,,,,0,64,0,,
36105,note_on,,39,0,1,,,,,,,,,0,,,74,79
36115,note_on,,10,0,1,,,,,,,,,0,,,64,0
36160,note_on,,45,0,1,,,,,,,,,0,,,74,0
36165,note_on,,5,0,1,,,,,,,,,0,,,72,78
36235,note_on,,70,0,1,,,,,,,,,0,,,71,75
36236,note_on,,1,0,1,,,,,,,,,0,,,40,61
36240,note_on,,4,0,1,,,,,,,,,0,,,72,0
36265,control_change,,25,0,1,,,,,,,,,0,64,127,,
36299,note_on,,34,0,1,,,,,,,,,0,,,40,0
36317,note_on,,18,0,1,,,,,,,,,0,,,52,63
36354,note_on,,37,0,1,,,,,,,,,0,,,71,0
36375,note_on,,21,0,1,,,,,,,,,0,,,52,0
36386,note_on,,11,0,1,,,,,,,,,0,,,64,72
36421,note_on,,35,0,1,,,,,,,,,0,,,64,0
36456,note_on,,35,0,1,,,,,,,,,0,,,64,69
36497,note_on,,41,0,1,,,,,,,,,0,,,64,0
36531,note_on,,34,0,1,,,,,,,,,0,,,76,72
36569,note_on,,38,0,1,,,,,,,,,0,,,76,0
36590,note_on,,21,0,1,,,,,,,,,0,,,64,59
36635,note_on,,45,0,1,,,,,,,,,0,,,64,0
36665,note_on,,30,0,1,,,,,,,,,0,,,76,66
36695,note_on,,30,0,1,,,,,,,,,0,,,76,0
36740,note_on,,45,0,1,,,,,,,,,0,,,76,66
36806,note_on,,66,0,1,,,,,,,,,0,,,76,0
36830,note_on,,24,0,1,,,,,,,,,0,,,88,64
36855,control_change,,25,0,1,,,,,,,,,0,64,0,,
36900,note_on,,45,0,1,,,,,,,,,0,,,88,0
36916,note_on,,16,0,1,,,,,,,,,0,,,75,77
37031,note_on,,115,0,1,,,,,,,,,0,,,76,67
37036,note_on,,5,0,1,,,,,,,,,0,,,75,0
37096,note_on,,60,0,1,,,,,,,,,0,,,76,0
37120,note_on,,24,0,1,,,,,,,,,0,,,75,65
37191,note_on,,71,0,1,,,,,,,,,0,,,75,0
37210,note_on,,19,0,1,,,,,,,,,0,,,76,64
37282,note_on,,72,0,1,,,,,,,,,0,,,76,0
37290,note_on,,8,0,1,,,,,,,,,0,,,75,60
37415,note_on,,125,0,1,,,,,,,,,0,,,76,59
37425,note_on,,10,0,1,,,,,,,,,0,,,75,0
37503,note_on,,78,0,1,,,,,,,,,0,,,76,0
37522,note_on,,19,0,1,,,,,,,,,0,,,75,67
37620,note_on,,98,0,1,,,,,,,,,0,,,75,0
37621,note_on,,1,0,1,,,,,,,,,0,,,76,64
37705,note_on,,84,0,1,,,,,,,,,0,,,75,74
37706,note_on,,1,0,1,,,,,,,,,0,,,76,0
37780,note_on,,74,0,1,,,,,,,,,0,,,76,71
37785,note_on,,5,0,1,,,,,,,,,0,,,75,0
37852,note_on,,67,0,1,,,,,,,,,0,,,75,79
37870,note_on,,18,0,1,,,,,,,,,0,,,76,0
37907,note_on,,37,0,1,,,,,,,,,0,,,76,78
37913,note_on,,6,0,1,,,,,,,,,0,,,75,0
37970,note_on,,57,0,1,,,,,,,,,0,,,71,73
38000,note_on,,30,0,1,,,,,,,,,0,,,76,0
38026,note_on,,26,0,1,,,,,,,,,0,,,74,75
38058,note_on,,32,0,1,,,,,,,,,0,,,71,0
38092,note_on,,34,0,1,,,,,,,,,0,,,72,77
38104,note_on,,12,0,1,,,,,,,,,0,,,74,0
38167,note_on,,63,0,1,,,,,,,,,0,,,69,68
38168,note_on,,1,0,1,,,,,,,,,0,,,45,64
38172,note_on,,4,0,1,,,,,,,,,0,,,72,0
38212,control_change,,40,0,1,,,,,,,,,0,64,127,,
38231,note_on,,19,0,1,,,,,,,,,0,,,52,61
38240,note_on,,9,0,1,,,,,,,,,0,,,69,0
38243,note_on,,3,0,1,,,,,,,,,0,,,45,0
38281,note_on,,38,0,1,,,,,,,,,0,,,52,0
38290,note_on,,9,0,1,,,,,,,,,0,,,57,57
38340,note_on,,50,0,1,,,,,,,,,0,,,60,78
38349,note_on,,9,0,1,,,,,,,,,0,,,57,0
38385,note_on,,36,0,1,,,,,,,,,0,,,60,0
38390,note_on,,5,0,1,,,,,,,,,0,,,64,77
38435,note_on,,45,0,1,,,,,,,,,0,,,64,0
38442,note_on,,7,0,1,,,,,,,,,0,,,69,78
38470,control_change,,28,0,1,,,,,,,,,0,64,0,,
38493,note_on,,0,0,1,,,,,,,,,0,,,40,66
38493,note_on,,23,0,1,,,,,,,,,0,,,71,84
38501,note_on,,8,0,1,,,,,,,,,0,,,69,0
38530,control_change,,29,0,1,,,,,,,,,0,64,127,,
38533,note_on,,3,0,1,,,,,,,,,0,,,40,0
38546,note_on,,13,0,1,,,,,,,,,0,,,52,71
38601,note_on,,55,0,1,,,,,,,,,0,,,56,78
38605,note_on,,4,0,1,,,,,,,,,0,,,52,0
38612,note_on,,7,0,1,,,,,,,,,0,,,71,0
38651,note_on,,39,0,1,,,,,,,,,0,,,64,70
38660,note_on,,9,0,1,,,,,,,,,0,,,56,0
38700,note_on,,40,0,1,,,,,,,,,0,,,68,72
38716,note_on,,16,0,1,,,,,,,,,0,,,64,0
38750,control_change,,34,0,1,,,,,,,,,0,64,0,,
38755,note_on,,5,0,1,,,,,,,,,0,,,71,74
38770,note_on,,15,0,1,,,,,,,,,0,,,68,0
38823,note_on,,53,0,1,,,,,,,,,0,,,72,80
38825,note_on,,2,0,1,,,,,,,,,0,,,45,58
38844,note_on,,19,0,1,,,,,,,,,0,,,71,0
38875,control_change,,31,0,1,,,,,,,,,0,64,127,,
38895,note_on,,20,0,1,,,,,,,,,0,,,52,62
38900,note_on,,5,0,1,,,,,,,,,0,,,45,0
38911,note_on,,11,0,1,,,,,,,,,0,,,72,0
38960,note_on,,49,0,1,,,,,,,,,0,,,57,62
38966,note_on,,6,0,1,,,,,,,,,0,,,52,0
39020,note_on,,0,0,1,,,,,,,,,0,,,57,0
39020,note_on,,54,0,1,,,,,,,,,0,,,64,81
39080,note_on,,60,0,1,,,,,,,,,0,,,64,0
39081,control_change,,1,0,1,,,,,,,,,0,64,0,,
39085,note_on,,4,0,1,,,,,,,,,0,,,76,84
39141,note_on,,56,0,1,,,,,,,,,0,,,75,81
39150,note_on,,9,0,1,,,,,,,,,0,,,76,0
39195,note_on,,45,0,1,,,,,,,,,0,,,76,88
39196,note_on,,1,0,1,,,,,,,,,0,,,75,0
39255,note_on,,59,0,1,,,,,,,,,0,,,75,79
39270,note_on,,15,0,1,,,,,,,,,0,,,76,0
39306,note_on,,36,0,1,,,,,,,,,0,,,76,81
39312,note_on,,6,0,1,,,,,,,,,0,,,75,0
39361,note_on,,49,0,1,,,,,,,,,0,,,71,77
39384,note_on,,23,0,1,,,,,,,,,0,,,76,0
39415,note_on,,31,0,1,,,,,,,,,0,,,74,83
39441,note_on,,26,0,1,,,,,,,,,0,,,71,0
39474,note_on,,33,0,1,,,,,,,,,0,,,72,77
39475,note_on,,1,0,1,,,,,,,,,0,,,74,0
39539,note_on,,0,0,1,,,,,,,,,0,,,45,67
39539,note_on,,64,0,1,,,,,,,,,0,,,69,74
39549,note_on,,10,0,1,,,,,,,,,0,,,72,0
39580,control_change,,31,0,1,,,,,,,,,0,64,127,,
39604,note_on,,24,0,1,,,,,,,,,0,,,45,0
39605,note_on,,1,0,1,,,,,,,,,0,,,52,68
39607,note_on,,2,0,1,,,,,,,,,0,,,69,0
39655,note_on,,48,0,1,,,,,,,,,0,,,57,74
39672,note_on,,17,0,1,,,,,,,,,0,,,52,0
39706,note_on,,34,0,1,,,,,,,,,0,,,60,81
39715,note_on,,9,0,1,,,,,,,,,0,,,57,0
39760,note_on,,45,0,1,,,,,,,,,0,,,64,80
39761,note_on,,1,0,1,,,,,,,,,0,,,60,0
39820,note_on,,59,0,1,,,,,,,,,0,,,64,0
39825,note_on,,5,0,1,,,,,,,,,0,,,69,81
39875,control_change,,50,0,1,,,,,,,,,0,64,0,,
39875,note_on,,0,0,1,,,,,,,,,0,,,69,0
39882,note_on,,7,0,1,,,,,,,,,0,,,40,65
39883,note_on,,1,0,1,,,,,,,,,0,,,71,80
39922,control_change,,39,0,1,,,,,,,,,0,64,127,,
39927,note_on,,5,0,1,,,,,,,,,0,,,40,0
39947,note_on,,20,0,1,,,,,,,,,0,,,52,63
39993,note_on,,46,0,1,,,,,,,,,0,,,52,0
40002,note_on,,9,0,1,,,,,,,,,0,,,71,0
40015,note_on,,13,0,1,,,,,,,,,0,,,56,68
40051,note_on,,36,0,1,,,,,,,,,0,,,56,0
40080,note_on,,29,0,1,,,,,,,,,0,,,62,70
40150,control_change,,70,0,1,,,,,,,,,0,64,0,,
40165,note_on,,15,0,1,,,,,,,,,0,,,72,82
40260,note_on,,95,0,1,,,,,,,,,0,,,71,75
40265,note_on,,5,0,1,,,,,,,,,0,,,62,0
40270,note_on,,5,0,1,,,,,,,,,0,,,72,0
40388,note_on,,0,0,1,,,,,,,,,0,,,45,58
40388,note_on,,0,0,1,,,,,,,,,0,,,60,55
40388,note_on,,118,0,1,,,,,,,,,0,,,69,68
40388,note_on,,0,0,1,,,,,,,,,0,,,33,55
40409,note_on,,21,0,1,,,,,,,,,0,,,71,0
40490,control_change,,81,0,1,,,,,,,,,0,121,0,,
40777,note_on,,0,0,1,,,,,,,,,0,,,33,0
40777,note_on,,0,0,1,,,,,,,,,0,,,60,0
40777,note_on,,0,0,1,,,,,,,,,0,,,69,0
40777,end_of_track,,0,1,1,,,,,,,,,,,,,
40777,note_on,,287,0,1,,,,,,,,,0,,,45,0
