tick,type,time,meta,track,numerator,denominator,clocks_per_click,notated_32nd_notes_per_beat,key,tempo,program,channel,control,value,note,velocity
0,track_name,0,1,0,,,,,,,,,,,,
0,key_signature,0,1,0,,,,,A,,,,,,,
0,set_tempo,0,1,0,,,,,,517241,,,,,,
0,track_name,0,1,1,,,,,,,,,,,,
0,program_change,0,0,1,,,,,,,73,0,,,,
0,control_change,0,0,1,,,,,,,,0,7,118,,
0,control_change,0,0,1,,,,,,,,0,10,64,,
0,control_change,0,0,1,,,,,,,,0,93,19,,
0,control_change,0,0,1,,,,,,,,0,91,13,,
0,program_change,0,0,2,,,,,,,0,1,,,,
0,control_change,0,0,3,,,,,,,,2,91,15,,
0,control_change,0,0,3,,,,,,,,2,93,10,,
0,control_change,0,0,3,,,,,,,,2,10,87,,
0,control_change,0,0,3,,,,,,,,2,7,96,,
0,program_change,0,0,3,,,,,,,0,2,,,,
0,track_name,0,1,3,,,,,,,,,,,,
0,control_change,0,0,2,,,,,,,,1,91,6,,
0,control_change,0,0,2,,,,,,,,1,93,10,,
0,control_change,0,0,2,,,,,,,,1,10,35,,
0,control_change,0,0,2,,,,,,,,1,7,88,,
0,time_signature,0,1,0,4,4,24,8,,,,,,,,
0,text,0,1,0,,,,,,,,,,,,
0,track_name,0,1,2,,,,,,,,,,,,
0,text,0,1,0,,,,,,,,,,,,
0,text,0,1,0,,,,,,,,,,,,
0,text,0,1,0,,,,,,,,,,,,
0,text,0,1,0,,,,,,,,,,,,
0,text,0,1,0,,,,,,,,,,,,
0,text,0,1,0,,,,,,,,,,,,
0,text,0,1,0,,,,,,,,,,,,
0,text,0,1,0,,,,,,,,,,,,
0,text,0,1,0,,,,,,,,,,,,
0,text,0,1,0,,,,,,,,,,,,
0,text,0,1,0,,,,,,,,,,,,
0,text,0,1,0,,,,,,,,,,,,
0,text,0,1,0,,,,,,,,,,,,
0,text,0,1,0,,,,,,,,,,,,
0,text,0,1,0,,,,,,,,,,,,
0,copyright,0,1,0,,,,,,,,,,,,
0,text,0,1,0,,,,,,,,,,,,
0,text,0,1,0,,,,,,,,,,,,
0,track_name,0,1,0,,,,,,,,,,,,
0,text,0,1,0,,,,,,,,,,,,
0,text,0,1,0,,,,,,,,,,,,
480,note_on,0,0,3,,,,,,,,2,,,45,60
480,note_on,0,0,2,,,,,,,,1,,,61,60
480,note_on,0,0,2,,,,,,,,1,,,64,60
480,note_on,480,0,1,,,,,,,,0,,,69,60
480,note_on,480,0,2,,,,,,,,1,,,69,60
480,note_on,480,0,3,,,,,,,,2,,,57,60
540,note_on,60,0,3,,,,,,,,2,,,45,0
540,note_on,0,0,2,,,,,,,,1,,,69,0
540,note_on,0,0,3,,,,,,,,2,,,52,60
540,note_on,60,0,2,,,,,,,,1,,,61,0
540,note_on,0,0,2,,,,,,,,1,,,64,0
540,note_on,0,0,3,,,,,,,,2,,,57,0
600,note_on,0,0,2,,,,,,,,1,,,61,60
600,note_on,60,0,2,,,,,,,,1,,,69,60
600,note_on,0,0,3,,,,,,,,2,,,57,60
600,note_on,0,0,3,,,,,,,,2,,,45,60
600,note_on,0,0,2,,,,,,,,1,,,64,60
600,note_on,120,0,1,,,,,,,,0,,,69,0
600,note_on,0,0,1,,,,,,,,0,,,69,60
600,note_on,60,0,3,,,,,,,,2,,,52,0
660,note_on,0,0,3,,,,,,,,2,,,57,0
660,note_on,60,0,1,,,,,,,,0,,,69,0
660,note_on,0,0,1,,,,,,,,0,,,69,60
660,note_on,0,0,3,,,,,,,,2,,,52,60
660,note_on,60,0,3,,,,,,,,2,,,45,0
660,note_on,60,0,2,,,,,,,,1,,,61,0
660,note_on,0,0,2,,,,,,,,1,,,64,0
660,note_on,0,0,2,,,,,,,,1,,,69,0
720,note_on,60,0,3,,,,,,,,2,,,52,0
720,note_on,60,0,1,,,,,,,,0,,,69,0
720,note_on,60,0,2,,,,,,,,1,,,69,60
720,note_on,0,0,2,,,,,,,,1,,,64,60
720,note_on,0,0,2,,,,,,,,1,,,61,60
720,note_on,0,0,3,,,,,,,,2,,,57,60
720,note_on,0,0,3,,,,,,,,2,,,45,60
720,note_on,0,0,1,,,,,,,,0,,,69,60
780,note_on,60,0,3,,,,,,,,2,,,45,0
780,note_on,0,0,3,,,,,,,,2,,,57,0
780,note_on,0,0,3,,,,,,,,2,,,52,60
780,note_on,0,0,2,,,,,,,,1,,,69,0
780,note_on,0,0,2,,,,,,,,1,,,64,0
780,note_on,0,0,1,,,,,,,,0,,,71,60
780,note_on,60,0,2,,,,,,,,1,,,61,0
780,note_on,60,0,1,,,,,,,,0,,,69,0
795,note_on,15,0,1,,,,,,,,0,,,71,0
795,note_on,0,0,1,,,,,,,,0,,,69,60
810,note_on,15,0,1,,,,,,,,0,,,69,0
810,note_on,0,0,1,,,,,,,,0,,,68,60
825,note_on,15,0,1,,,,,,,,0,,,68,0
825,note_on,0,0,1,,,,,,,,0,,,69,60
840,note_on,0,0,2,,,,,,,,1,,,69,60
840,note_on,0,0,2,,,,,,,,1,,,64,60
840,note_on,60,0,2,,,,,,,,1,,,61,60
840,note_on,0,0,3,,,,,,,,2,,,57,60
840,note_on,60,0,3,,,,,,,,2,,,52,0
840,note_on,15,0,1,,,,,,,,0,,,69,0
840,note_on,0,0,1,,,,,,,,0,,,73,60
840,note_on,0,0,3,,,,,,,,2,,,45,60
900,note_on,60,0,1,,,,,,,,0,,,73,0
900,note_on,0,0,1,,,,,,,,0,,,69,60
900,note_on,0,0,2,,,,,,,,1,,,61,0
900,note_on,0,0,2,,,,,,,,1,,,64,0
900,note_on,0,0,3,,,,,,,,2,,,52,60
900,note_on,0,0,3,,,,,,,,2,,,57,0
900,note_on,60,0,3,,,,,,,,2,,,45,0
900,note_on,60,0,2,,,,,,,,1,,,69,0
960,note_on,0,0,3,,,,,,,,2,,,47,60
960,note_on,0,0,3,,,,,,,,2,,,59,60
960,note_on,0,0,1,,,,,,,,0,,,74,60
960,note_on,60,0,3,,,,,,,,2,,,52,0
960,note_on,60,0,1,,,,,,,,0,,,69,0
960,note_on,60,0,2,,,,,,,,1,,,62,60
960,note_on,0,0,2,,,,,,,,1,,,68,60
960,note_on,0,0,2,,,,,,,,1,,,64,60
1020,note_on,0,0,3,,,,,,,,2,,,52,60
1020,note_on,0,0,2,,,,,,,,1,,,64,0
1020,note_on,60,0,3,,,,,,,,2,,,47,0
1020,note_on,0,0,2,,,,,,,,1,,,62,0
1020,note_on,60,0,2,,,,,,,,1,,,68,0
1020,note_on,0,0,3,,,,,,,,2,,,59,0
1080,note_on,0,0,3,,,,,,,,2,,,59,60
1080,note_on,0,0,3,,,,,,,,2,,,47,60
1080,note_on,60,0,3,,,,,,,,2,,,52,0
1080,note_on,60,0,2,,,,,,,,1,,,62,60
1080,note_on,0,0,2,,,,,,,,1,,,64,60
1080,note_on,0,0,2,,,,,,,,1,,,68,60
1140,note_on,0,0,3,,,,,,,,2,,,52,60
1140,note_on,0,0,3,,,,,,,,2,,,47,0
1140,note_on,60,0,3,,,,,,,,2,,,59,0
1140,note_on,0,0,1,,,,,,,,0,,,71,60
1140,note_on,180,0,1,,,,,,,,0,,,74,0
1140,note_on,0,0,2,,,,,,,,1,,,62,0
1140,note_on,0,0,2,,,,,,,,1,,,64,0
1140,note_on,60,0,2,,,,,,,,1,,,68,0
1200,note_on,0,0,2,,,,,,,,1,,,64,60
1200,note_on,0,0,2,,,,,,,,1,,,68,60
1200,note_on,60,0,1,,,,,,,,0,,,71,0
1200,note_on,0,0,1,,,,,,,,0,,,68,60
1200,note_on,60,0,3,,,,,,,,2,,,52,0
1200,note_on,0,0,3,,,,,,,,2,,,47,60
1200,note_on,0,0,3,,,,,,,,2,,,59,60
1200,note_on,60,0,2,,,,,,,,1,,,62,60
1260,note_on,0,0,2,,,,,,,,1,,,62,0
1260,note_on,0,0,3,,,,,,,,2,,,52,60
1260,note_on,60,0,3,,,,,,,,2,,,59,0
1260,note_on,0,0,2,,,,,,,,1,,,64,0
1260,note_on,60,0,2,,,,,,,,1,,,68,0
1260,note_on,0,0,3,,,,,,,,2,,,47,0
1320,note_on,120,0,1,,,,,,,,0,,,68,0
1320,note_on,0,0,3,,,,,,,,2,,,47,60
1320,note_on,0,0,3,,,,,,,,2,,,59,60
1320,note_on,60,0,3,,,,,,,,2,,,52,0
1320,note_on,60,0,2,,,,,,,,1,,,62,60
1320,note_on,0,0,2,,,,,,,,1,,,64,60
1320,note_on,0,0,2,,,,,,,,1,,,68,60
1380,note_on,60,0,2,,,,,,,,1,,,68,0
1380,note_on,0,0,2,,,,,,,,1,,,64,0
1380,note_on,0,0,2,,,,,,,,1,,,62,0
1380,note_on,60,0,3,,,,,,,,2,,,47,0
1380,note_on,0,0,3,,,,,,,,2,,,59,0
1380,note_on,0,0,3,,,,,,,,2,,,52,60
1440,note_on,60,0,3,,,,,,,,2,,,52,0
1440,note_on,0,0,3,,,,,,,,2,,,57,60
1440,note_on,120,0,1,,,,,,,,0,,,69,60
1440,note_on,0,0,2,,,,,,,,1,,,61,60
1440,note_on,0,0,2,,,,,,,,1,,,64,60
1440,note_on,60,0,2,,,,,,,,1,,,69,60
1440,note_on,0,0,3,,,,,,,,2,,,45,60
1500,note_on,60,0,1,,,,,,,,0,,,69,0
1500,note_on,0,0,3,,,,,,,,2,,,45,0
1500,note_on,0,0,3,,,,,,,,2,,,52,60
1500,note_on,60,0,3,,,,,,,,2,,,57,0
1500,note_on,0,0,1,,,,,,,,0,,,76,60
1500,note_on,60,0,2,,,,,,,,1,,,61,0
1500,note_on,0,0,2,,,,,,,,1,,,64,0
1500,note_on,0,0,2,,,,,,,,1,,,69,0
1560,note_on,0,0,2,,,,,,,,1,,,64,60
1560,note_on,0,0,3,,,,,,,,2,,,57,60
1560,note_on,0,0,3,,,,,,,,2,,,45,60
1560,note_on,60,0,3,,,,,,,,2,,,52,0
1560,note_on,60,0,1,,,,,,,,0,,,76,0
1560,note_on,0,0,1,,,,,,,,0,,,75,60
1560,note_on,60,0,2,,,,,,,,1,,,69,60
1560,note_on,0,0,2,,,,,,,,1,,,61,60
1620,note_on,60,0,3,,,,,,,,2,,,57,0
1620,note_on,60,0,2,,,,,,,,1,,,61,0
1620,note_on,0,0,2,,,,,,,,1,,,64,0
1620,note_on,0,0,2,,,,,,,,1,,,69,0
1620,note_on,0,0,1,,,,,,,,0,,,76,60
1620,note_on,60,0,1,,,,,,,,0,,,75,0
1620,note_on,0,0,3,,,,,,,,2,,,45,0
1620,note_on,0,0,3,,,,,,,,2,,,52,60
1680,note_on,60,0,2,,,,,,,,1,,,69,60
1680,note_on,60,0,3,,,,,,,,2,,,52,0
1680,note_on,0,0,2,,,,,,,,1,,,64,60
1680,note_on,60,0,1,,,,,,,,0,,,76,0
1680,note_on,0,0,1,,,,,,,,0,,,74,60
1680,note_on,0,0,3,,,,,,,,2,,,45,60
1680,note_on,0,0,2,,,,,,,,1,,,61,60
1680,note_on,0,0,3,,,,,,,,2,,,57,60
1740,note_on,60,0,3,,,,,,,,2,,,57,0
1740,note_on,60,0,1,,,,,,,,0,,,74,0
1740,note_on,0,0,3,,,,,,,,2,,,45,0
1740,note_on,60,0,2,,,,,,,,1,,,61,0
1740,note_on,0,0,2,,,,,,,,1,,,64,0
1740,note_on,0,0,2,,,,,,,,1,,,69,0
1740,note_on,0,0,3,,,,,,,,2,,,52,60
1740,note_on,0,0,1,,,,,,,,0,,,73,60
1800,note_on,0,0,3,,,,,,,,2,,,57,60
1800,note_on,0,0,3,,,,,,,,2,,,45,60
1800,note_on,60,0,3,,,,,,,,2,,,52,0
1800,note_on,0,0,2,,,,,,,,1,,,69,60
1800,note_on,0,0,2,,,,,,,,1,,,64,60
1800,note_on,60,0,2,,,,,,,,1,,,61,60
1800,note_on,0,0,1,,,,,,,,0,,,71,60
1800,note_on,60,0,1,,,,,,,,0,,,73,0
1860,note_on,0,0,3,,,,,,,,2,,,45,0
1860,note_on,0,0,2,,,,,,,,1,,,61,0
1860,note_on,0,0,2,,,,,,,,1,,,64,0
1860,note_on,60,0,2,,,,,,,,1,,,69,0
1860,note_on,0,0,1,,,,,,,,0,,,69,60
1860,note_on,60,0,1,,,,,,,,0,,,71,0
1860,note_on,0,0,3,,,,,,,,2,,,52,60
1860,note_on,60,0,3,,,,,,,,2,,,57,0
1920,note_on,0,0,2,,,,,,,,1,,,68,60
1920,note_on,0,0,2,,,,,,,,1,,,64,60
1920,note_on,0,0,3,,,,,,,,2,,,59,60
1920,note_on,0,0,3,,,,,,,,2,,,47,60
1920,note_on,60,0,2,,,,,,,,1,,,62,60
1920,note_on,60,0,3,,,,,,,,2,,,52,0
1920,note_on,60,0,1,,,,,,,,0,,,69,0
1920,note_on,0,0,1,,,,,,,,0,,,74,60
1980,note_on,0,0,1,,,,,,,,0,,,71,60
1980,note_on,0,0,2,,,,,,,,1,,,62,0
1980,note_on,0,0,2,,,,,,,,1,,,64,0
1980,note_on,60,0,2,,,,,,,,1,,,68,0
1980,note_on,0,0,3,,,,,,,,2,,,52,60
1980,note_on,60,0,3,,,,,,,,2,,,59,0
1980,note_on,0,0,3,,,,,,,,2,,,47,0
1980,note_on,60,0,1,,,,,,,,0,,,74,0
2040,note_on,60,0,1,,,,,,,,0,,,71,0
2040,note_on,0,0,1,,,,,,,,0,,,68,60
2040,note_on,60,0,3,,,,,,,,2,,,52,0
2040,note_on,0,0,3,,,,,,,,2,,,59,60
2040,note_on,0,0,3,,,,,,,,2,,,47,60
2040,note_on,0,0,2,,,,,,,,1,,,68,60
2040,note_on,0,0,2,,,,,,,,1,,,64,60
2040,note_on,60,0,2,,,,,,,,1,,,62,60
2100,note_on,60,0,3,,,,,,,,2,,,47,0
2100,note_on,0,0,3,,,,,,,,2,,,59,0
2100,note_on,0,0,2,,,,,,,,1,,,64,0
2100,note_on,0,0,2,,,,,,,,1,,,62,0
2100,note_on,0,0,3,,,,,,,,2,,,52,60
2100,note_on,60,0,2,,,,,,,,1,,,68,0
2160,note_on,0,0,2,,,,,,,,1,,,68,60
2160,note_on,60,0,2,,,,,,,,1,,,62,60
2160,note_on,120,0,1,,,,,,,,0,,,68,0
2160,note_on,0,0,2,,,,,,,,1,,,64,60
2160,note_on,0,0,3,,,,,,,,2,,,59,60
2160,note_on,0,0,3,,,,,,,,2,,,47,60
2160,note_on,60,0,3,,,,,,,,2,,,52,0
2220,note_on,0,0,2,,,,,,,,1,,,64,0
2220,note_on,0,0,2,,,,,,,,1,,,62,0
2220,note_on,60,0,2,,,,,,,,1,,,68,0
2220,note_on,60,0,3,,,,,,,,2,,,59,0
2220,note_on,0,0,3,,,,,,,,2,,,52,60
2220,note_on,0,0,3,,,,,,,,2,,,47,0
2280,note_on,60,0,2,,,,,,,,1,,,62,60
2280,note_on,0,0,3,,,,,,,,2,,,59,60
2280,note_on,0,0,3,,,,,,,,2,,,47,60
2280,note_on,60,0,3,,,,,,,,2,,,52,0
2280,note_on,0,0,2,,,,,,,,1,,,68,60
2280,note_on,0,0,2,,,,,,,,1,,,64,60
2340,note_on,0,0,3,,,,,,,,2,,,52,60
2340,note_on,60,0,3,,,,,,,,2,,,59,0
2340,note_on,60,0,2,,,,,,,,1,,,68,0
2340,note_on,0,0,2,,,,,,,,1,,,64,0
2340,note_on,0,0,2,,,,,,,,1,,,62,0
2340,note_on,0,0,3,,,,,,,,2,,,47,0
2400,note_on,240,0,1,,,,,,,,0,,,69,58
2400,note_on,60,0,2,,,,,,,,1,,,61,60
2400,note_on,0,0,3,,,,,,,,2,,,57,60
2400,note_on,0,0,2,,,,,,,,1,,,64,60
2400,note_on,60,0,3,,,,,,,,2,,,52,0
2400,note_on,0,0,2,,,,,,,,1,,,69,60
2400,note_on,0,0,3,,,,,,,,2,,,45,60
2460,note_on,0,0,2,,,,,,,,1,,,64,0
2460,note_on,60,0,3,,,,,,,,2,,,57,0
2460,note_on,0,0,3,,,,,,,,2,,,45,0
2460,note_on,0,0,3,,,,,,,,2,,,52,60
2460,note_on,60,0,2,,,,,,,,1,,,69,0
2460,note_on,0,0,2,,,,,,,,1,,,61,0
2520,note_on,60,0,3,,,,,,,,2,,,52,0
2520,note_on,60,0,2,,,,,,,,1,,,69,60
2520,note_on,0,0,2,,,,,,,,1,,,64,60
2520,note_on,0,0,2,,,,,,,,1,,,61,60
2520,note_on,0,0,1,,,,,,,,0,,,69,72
2520,note_on,120,0,1,,,,,,,,0,,,69,0
2520,note_on,0,0,3,,,,,,,,2,,,57,60
2520,note_on,0,0,3,,,,,,,,2,,,45,60
2580,note_on,0,0,2,,,,,,,,1,,,64,0
2580,note_on,60,0,1,,,,,,,,0,,,69,0
2580,note_on,0,0,1,,,,,,,,0,,,71,79
2580,note_on,60,0,3,,,,,,,,2,,,57,0
2580,note_on,60,0,2,,,,,,,,1,,,61,0
2580,note_on,0,0,3,,,,,,,,2,,,45,0
2580,note_on,0,0,3,,,,,,,,2,,,52,60
2580,note_on,0,0,2,,,,,,,,1,,,69,0
2640,note_on,0,0,1,,,,,,,,0,,,73,86
2640,note_on,60,0,1,,,,,,,,0,,,71,0
2640,note_on,0,0,3,,,,,,,,2,,,45,60
2640,note_on,0,0,3,,,,,,,,2,,,57,60
2640,note_on,0,0,2,,,,,,,,1,,,64,60
2640,note_on,0,0,2,,,,,,,,1,,,69,60
2640,note_on,60,0,2,,,,,,,,1,,,73,60
2640,note_on,60,0,3,,,,,,,,2,,,52,0
2700,note_on,0,0,2,,,,,,,,1,,,73,0
2700,note_on,60,0,2,,,,,,,,1,,,64,0
2700,note_on,0,0,2,,,,,,,,1,,,69,0
2700,note_on,60,0,3,,,,,,,,2,,,57,0
2700,note_on,0,0,3,,,,,,,,2,,,52,60
2700,note_on,0,0,3,,,,,,,,2,,,45,0
2760,note_on,0,0,3,,,,,,,,2,,,45,60
2760,note_on,0,0,3,,,,,,,,2,,,57,60
2760,note_on,60,0,3,,,,,,,,2,,,52,0
2760,note_on,60,0,2,,,,,,,,1,,,71,60
2760,note_on,0,0,2,,,,,,,,1,,,75,60
2760,note_on,0,0,2,,,,,,,,1,,,66,60
2760,note_on,120,0,1,,,,,,,,0,,,73,0
2760,note_on,0,0,1,,,,,,,,0,,,75,97
2820,note_on,0,0,2,,,,,,,,1,,,75,0
2820,note_on,60,0,2,,,,,,,,1,,,66,0
2820,note_on,0,0,2,,,,,,,,1,,,71,0
2820,note_on,60,0,3,,,,,,,,2,,,45,0
2820,note_on,0,0,3,,,,,,,,2,,,57,0
2820,note_on,0,0,3,,,,,,,,2,,,52,60
2880,note_on,0,0,2,,,,,,,,1,,,71,100
2880,note_on,0,0,2,,,,,,,,1,,,76,100
2880,note_on,60,0,3,,,,,,,,2,,,52,0
2880,note_on,60,0,2,,,,,,,,1,,,64,100
2880,note_on,120,0,1,,,,,,,,0,,,75,0
2880,note_on,0,0,1,,,,,,,,0,,,76,100
2880,note_on,0,0,3,,,,,,,,2,,,56,100
2880,note_on,0,0,3,,,,,,,,2,,,44,100
2940,note_on,0,0,3,,,,,,,,2,,,52,100
2940,note_on,60,0,3,,,,,,,,2,,,56,0
2940,note_on,0,0,3,,,,,,,,2,,,44,0
2940,note_on,0,0,2,,,,,,,,1,,,64,0
2940,note_on,60,0,2,,,,,,,,1,,,76,0
2940,note_on,0,0,2,,,,,,,,1,,,71,0
3000,note_on,0,0,3,,,,,,,,2,,,56,100
3000,note_on,60,0,3,,,,,,,,2,,,52,0
3000,note_on,60,0,2,,,,,,,,1,,,76,100
3000,note_on,0,0,2,,,,,,,,1,,,71,100
3000,note_on,0,0,3,,,,,,,,2,,,44,100
3000,note_on,0,0,2,,,,,,,,1,,,64,100
3060,note_on,60,0,2,,,,,,,,1,,,64,0
3060,note_on,0,0,2,,,,,,,,1,,,71,0
3060,note_on,60,0,3,,,,,,,,2,,,44,0
3060,note_on,0,0,2,,,,,,,,1,,,76,0
3060,note_on,0,0,3,,,,,,,,2,,,52,100
3060,note_on,0,0,3,,,,,,,,2,,,56,0
3120,note_on,0,0,2,,,,,,,,1,,,76,100
3120,note_on,60,0,2,,,,,,,,1,,,64,100
3120,note_on,0,0,3,,,,,,,,2,,,56,100
3120,note_on,0,0,3,,,,,,,,2,,,44,100
3120,note_on,60,0,3,,,,,,,,2,,,52,0
3120,note_on,0,0,2,,,,,,,,1,,,71,100
3180,note_on,300,0,1,,,,,,,,0,,,76,0
3180,note_on,0,0,3,,,,,,,,2,,,44,0
3180,note_on,60,0,3,,,,,,,,2,,,56,0
3180,note_on,60,0,2,,,,,,,,1,,,76,0
3180,note_on,0,0,2,,,,,,,,1,,,71,0
3180,note_on,0,0,2,,,,,,,,1,,,64,0
3180,note_on,0,0,1,,,,,,,,0,,,75,100
3180,note_on,0,0,3,,,,,,,,2,,,52,100
3240,note_on,0,0,3,,,,,,,,2,,,44,100
3240,note_on,0,0,3,,,,,,,,2,,,56,100
3240,note_on,60,0,1,,,,,,,,0,,,75,0
3240,note_on,0,0,2,,,,,,,,1,,,64,100
3240,note_on,60,0,2,,,,,,,,1,,,71,100
3240,note_on,0,0,1,,,,,,,,0,,,73,99
3240,note_on,60,0,3,,,,,,,,2,,,52,0
3300,note_on,60,0,3,,,,,,,,2,,,56,0
3300,note_on,0,0,3,,,,,,,,2,,,52,100
3300,note_on,60,0,1,,,,,,,,0,,,73,0
3300,note_on,0,0,3,,,,,,,,2,,,44,0
3300,note_on,0,0,1,,,,,,,,0,,,71,100
3300,note_on,0,0,2,,,,,,,,1,,,71,0
3300,note_on,60,0,2,,,,,,,,1,,,64,0
3360,note_on,0,0,2,,,,,,,,1,,,64,100
3360,note_on,60,0,2,,,,,,,,1,,,73,100
3360,note_on,60,0,3,,,,,,,,2,,,52,0
3360,note_on,0,0,3,,,,,,,,2,,,45,100
3360,note_on,60,0,1,,,,,,,,0,,,71,0
3360,note_on,0,0,1,,,,,,,,0,,,73,100
3360,note_on,0,0,3,,,,,,,,2,,,57,100
3420,note_on,0,0,2,,,,,,,,1,,,73,0
3420,note_on,60,0,2,,,,,,,,1,,,64,0
3420,note_on,60,0,3,,,,,,,,2,,,57,0
3420,note_on,0,0,3,,,,,,,,2,,,45,0
3420,note_on,0,0,3,,,,,,,,2,,,52,100
3480,note_on,60,0,3,,,,,,,,2,,,52,0
3480,note_on,0,0,3,,,,,,,,2,,,45,100
3480,note_on,0,0,3,,,,,,,,2,,,57,100
3480,note_on,60,0,2,,,,,,,,1,,,64,100
3480,note_on,0,0,2,,,,,,,,1,,,73,100
3540,note_on,60,0,3,,,,,,,,2,,,57,0
3540,note_on,0,0,3,,,,,,,,2,,,45,0
3540,note_on,0,0,3,,,,,,,,2,,,54,100
3540,note_on,60,0,2,,,,,,,,1,,,73,0
3540,note_on,0,0,2,,,,,,,,1,,,64,0
3570,note_on,210,0,1,,,,,,,,0,,,73,0
3585,note_on,15,0,1,,,,,,,,0,,,76,96
3600,note_on,0,0,1,,,,,,,,0,,,75,94
3600,note_on,0,0,3,,,,,,,,2,,,47,100
3600,note_on,15,0,1,,,,,,,,0,,,76,0
3600,note_on,0,0,3,,,,,,,,2,,,59,100
3600,note_on,60,0,3,,,,,,,,2,,,54,0
3600,note_on,0,0,2,,,,,,,,1,,,69,100
3600,note_on,0,0,2,,,,,,,,1,,,66,100
3600,note_on,60,0,2,,,,,,,,1,,,75,100
3660,note_on,60,0,3,,,,,,,,2,,,59,0
3660,note_on,0,0,3,,,,,,,,2,,,54,100
3660,note_on,60,0,2,,,,,,,,1,,,66,0
3660,note_on,0,0,2,,,,,,,,1,,,69,0
3660,note_on,0,0,1,,,,,,,,0,,,73,91
3660,note_on,60,0,1,,,,,,,,0,,,75,0
3660,note_on,0,0,2,,,,,,,,1,,,75,0
3660,note_on,0,0,3,,,,,,,,2,,,47,0
3720,note_on,0,0,2,,,,,,,,1,,,66,100
3720,note_on,60,0,3,,,,,,,,2,,,54,0
3720,note_on,60,0,2,,,,,,,,1,,,69,100
3720,note_on,0,0,3,,,,,,,,2,,,47,100
3720,note_on,0,0,3,,,,,,,,2,,,59,100
3720,note_on,0,0,2,,,,,,,,1,,,75,100
3720,note_on,0,0,1,,,,,,,,0,,,75,88
3720,note_on,60,0,1,,,,,,,,0,,,73,0
3780,note_on,60,0,3,,,,,,,,2,,,59,0
3780,note_on,0,0,3,,,,,,,,2,,,47,0
3780,note_on,0,0,3,,,,,,,,2,,,54,100
3780,note_on,0,0,2,,,,,,,,1,,,66,0
3780,note_on,0,0,2,,,,,,,,1,,,69,0
3780,note_on,60,0,2,,,,,,,,1,,,75,0
3780,note_on,60,0,1,,,,,,,,0,,,75,0
3780,note_on,0,0,1,,,,,,,,0,,,78,82
3840,note_on,0,0,2,,,,,,,,1,,,68,100
3840,note_on,60,0,2,,,,,,,,1,,,76,100
3840,note_on,60,0,1,,,,,,,,0,,,78,0
3840,note_on,0,0,1,,,,,,,,0,,,76,78
3840,note_on,60,0,3,,,,,,,,2,,,54,0
3840,note_on,0,0,3,,,,,,,,2,,,40,100
3840,note_on,0,0,3,,,,,,,,2,,,52,100
3960,note_on,120,0,2,,,,,,,,1,,,68,0
3960,note_on,0,0,3,,,,,,,,2,,,40,0
3960,note_on,120,0,3,,,,,,,,2,,,52,0
3960,note_on,0,0,2,,,,,,,,1,,,76,0
3960,note_on,0,0,2,,,,,,,,1,,,71,70
3960,note_on,0,0,3,,,,,,,,2,,,59,70
3960,set_tempo,3960,1,0,,,,,,833333,,,,,,
3960,note_on,120,0,1,,,,,,,,0,,,76,0
4200,note_on,0,0,3,,,,,,,,2,,,56,70
4200,note_on,240,0,2,,,,,,,,1,,,71,0
4200,note_on,240,0,3,,,,,,,,2,,,59,0
4200,note_on,0,0,2,,,,,,,,1,,,68,70
4320,note_on,0,0,2,,,,,,,,1,,,64,70
4320,note_on,120,0,3,,,,,,,,2,,,56,0
4320,note_on,0,0,3,,,,,,,,2,,,52,70
4320,note_on,360,0,1,,,,,,,,0,,,71,58
4320,note_on,120,0,2,,,,,,,,1,,,68,0
4320,set_tempo,360,1,0,,,,,,833333,,,,,,
4440,note_on,120,0,1,,,,,,,,0,,,71,0
4440,note_on,120,0,3,,,,,,,,2,,,52,0
4440,note_on,0,0,1,,,,,,,,0,,,71,61
4440,note_on,120,0,2,,,,,,,,1,,,64,0
4500,note_on,60,0,1,,,,,,,,0,,,71,0
4500,note_on,0,0,1,,,,,,,,0,,,69,61
4560,note_on,60,0,1,,,,,,,,0,,,69,0
4560,note_on,0,0,1,,,,,,,,0,,,68,60
4620,note_on,60,0,1,,,,,,,,0,,,68,0
4620,note_on,0,0,1,,,,,,,,0,,,71,60
4680,note_on,60,0,1,,,,,,,,0,,,71,0
4680,note_on,0,0,1,,,,,,,,0,,,69,60
4740,note_on,0,0,1,,,,,,,,0,,,73,60
4740,note_on,60,0,1,,,,,,,,0,,,69,0
4800,note_on,0,0,1,,,,,,,,0,,,73,61
4800,note_on,60,0,1,,,,,,,,0,,,73,0
4920,note_on,0,0,1,,,,,,,,0,,,71,60
4920,note_on,120,0,1,,,,,,,,0,,,73,0
4920,note_on,480,0,3,,,,,,,,2,,,52,70
4930,note_on,10,0,3,,,,,,,,2,,,56,70
4940,note_on,10,0,3,,,,,,,,2,,,59,70
4950,note_on,10,0,3,,,,,,,,2,,,62,70
4960,note_on,520,0,2,,,,,,,,1,,,64,70
4970,note_on,10,0,2,,,,,,,,1,,,68,70
4980,note_on,10,0,2,,,,,,,,1,,,71,70
4990,note_on,10,0,2,,,,,,,,1,,,74,70
5040,note_on,120,0,1,,,,,,,,0,,,71,0
5160,note_on,210,0,3,,,,,,,,2,,,52,0
5170,note_on,10,0,3,,,,,,,,2,,,56,0
5180,note_on,10,0,3,,,,,,,,2,,,59,0
5190,note_on,10,0,3,,,,,,,,2,,,62,0
5200,note_on,210,0,2,,,,,,,,1,,,74,0
5200,note_on,0,0,2,,,,,,,,1,,,64,0
5210,note_on,10,0,2,,,,,,,,1,,,68,0
5220,note_on,10,0,2,,,,,,,,1,,,71,0
5220,note_on,0,0,2,,,,,,,,1,,,71,70
5220,note_on,30,0,3,,,,,,,,2,,,59,70
5280,note_on,240,0,1,,,,,,,,0,,,74,70
5280,note_on,0,0,3,,,,,,,,2,,,52,70
5280,note_on,60,0,3,,,,,,,,2,,,59,0
5280,note_on,60,0,2,,,,,,,,1,,,71,0
5290,note_on,10,0,3,,,,,,,,2,,,56,70
5300,note_on,10,0,3,,,,,,,,2,,,59,70
5310,note_on,10,0,3,,,,,,,,2,,,62,70
5320,note_on,40,0,2,,,,,,,,1,,,64,70
5330,note_on,10,0,2,,,,,,,,1,,,68,70
5340,note_on,10,0,2,,,,,,,,1,,,71,70
5350,note_on,10,0,2,,,,,,,,1,,,74,70
5400,note_on,120,0,1,,,,,,,,0,,,74,0
5400,note_on,0,0,1,,,,,,,,0,,,74,70
5460,note_on,60,0,1,,,,,,,,0,,,74,0
5460,note_on,0,0,1,,,,,,,,0,,,73,71
5520,note_on,0,0,1,,,,,,,,0,,,71,70
5520,note_on,210,0,3,,,,,,,,2,,,52,0
5520,note_on,60,0,1,,,,,,,,0,,,73,0
5530,note_on,10,0,3,,,,,,,,2,,,56,0
5540,note_on,10,0,3,,,,,,,,2,,,59,0
5550,note_on,10,0,3,,,,,,,,2,,,62,0
5560,note_on,0,0,1,,,,,,,,0,,,73,68
5560,note_on,40,0,1,,,,,,,,0,,,71,0
5560,note_on,210,0,2,,,,,,,,1,,,64,0
5570,note_on,10,0,2,,,,,,,,1,,,68,0
5580,note_on,10,0,2,,,,,,,,1,,,71,0
5590,note_on,10,0,2,,,,,,,,1,,,74,0
5600,note_on,40,0,1,,,,,,,,0,,,73,0
5600,note_on,0,0,1,,,,,,,,0,,,74,67
5638,set_tempo,1318,1,0,,,,,,833333,,,,,,
5640,note_on,40,0,1,,,,,,,,0,,,74,0
5640,note_on,0,0,1,,,,,,,,0,,,73,66
5662,set_tempo,24,1,0,,,,,,821918,,,,,,
5680,note_on,0,0,1,,,,,,,,0,,,74,65
5680,note_on,40,0,1,,,,,,,,0,,,73,0
5686,set_tempo,24,1,0,,,,,,833333,,,,,,
5704,set_tempo,18,1,0,,,,,,845070,,,,,,
5710,set_tempo,6,1,0,,,,,,857143,,,,,,
5720,note_on,0,0,1,,,,,,,,0,,,76,64
5720,note_on,40,0,1,,,,,,,,0,,,74,0
5722,set_tempo,12,1,0,,,,,,869565,,,,,,
5742,set_tempo,20,1,0,,,,,,882353,,,,,,
5752,set_tempo,10,1,0,,,,,,895522,,,,,,
5758,set_tempo,6,1,0,,,,,,909091,,,,,,
5760,note_on,40,0,1,,,,,,,,0,,,76,0
5760,note_on,0,0,1,,,,,,,,0,,,76,64
5776,set_tempo,18,1,0,,,,,,923077,,,,,,
5782,set_tempo,6,1,0,,,,,,937500,,,,,,
5790,note_on,0,0,1,,,,,,,,0,,,74,62
5790,note_on,30,0,1,,,,,,,,0,,,76,0
5790,set_tempo,8,1,0,,,,,,952381,,,,,,
5814,set_tempo,24,1,0,,,,,,967742,,,,,,
5820,note_on,0,0,1,,,,,,,,0,,,73,62
5820,note_on,30,0,1,,,,,,,,0,,,74,0
5824,set_tempo,10,1,0,,,,,,983607,,,,,,
5830,set_tempo,6,1,0,,,,,,1000000,,,,,,
5842,set_tempo,12,1,0,,,,,,1016949,,,,,,
5848,set_tempo,6,1,0,,,,,,1034483,,,,,,
5850,note_on,30,0,1,,,,,,,,0,,,73,0
5850,note_on,0,0,1,,,,,,,,0,,,74,61
5856,set_tempo,8,1,0,,,,,,1052632,,,,,,
5872,set_tempo,16,1,0,,,,,,1071429,,,,,,
5880,note_on,30,0,1,,,,,,,,0,,,74,0
5880,note_on,0,0,1,,,,,,,,0,,,71,61
5884,set_tempo,12,1,0,,,,,,1090909,,,,,,
5892,set_tempo,8,1,0,,,,,,1111111,,,,,,
5914,set_tempo,22,1,0,,,,,,1132075,,,,,,
5924,set_tempo,10,1,0,,,,,,1153846,,,,,,
5932,set_tempo,8,1,0,,,,,,1176471,,,,,,
5950,set_tempo,18,1,0,,,,,,1200000,,,,,,
5958,set_tempo,8,1,0,,,,,,1224490,,,,,,
5964,set_tempo,6,1,0,,,,,,1250000,,,,,,
5996,set_tempo,32,1,0,,,,,,1276596,,,,,,
6000,note_on,120,0,1,,,,,,,,0,,,71,0
6016,set_tempo,20,1,0,,,,,,517241,,,,,,
6060,note_on,470,0,2,,,,,,,,1,,,67,70
6060,note_on,0,0,2,,,,,,,,1,,,72,70
6060,note_on,60,0,1,,,,,,,,0,,,72,70
6060,note_on,510,0,3,,,,,,,,2,,,52,70
6060,note_on,0,0,3,,,,,,,,2,,,55,70
6060,note_on,0,0,3,,,,,,,,2,,,60,70
6120,note_on,0,0,2,,,,,,,,1,,,67,70
6120,note_on,60,0,1,,,,,,,,0,,,72,0
6120,note_on,60,0,3,,,,,,,,2,,,60,0
6120,note_on,0,0,1,,,,,,,,0,,,72,70
6120,note_on,0,0,2,,,,,,,,1,,,72,70
6120,note_on,0,0,3,,,,,,,,2,,,52,0
6120,note_on,0,0,3,,,,,,,,2,,,52,70
6120,note_on,0,0,3,,,,,,,,2,,,55,70
6120,note_on,0,0,3,,,,,,,,2,,,60,70
6120,note_on,0,0,2,,,,,,,,1,,,67,0
6120,note_on,60,0,2,,,,,,,,1,,,72,0
6120,note_on,0,0,3,,,,,,,,2,,,55,0
6180,note_on,60,0,3,,,,,,,,2,,,60,0
6180,note_on,0,0,3,,,,,,,,2,,,52,0
6180,note_on,0,0,3,,,,,,,,2,,,55,0
6180,note_on,0,0,3,,,,,,,,2,,,55,70
6180,note_on,60,0,1,,,,,,,,0,,,72,0
6180,note_on,0,0,1,,,,,,,,0,,,74,70
6180,note_on,0,0,3,,,,,,,,2,,,50,70
6180,note_on,60,0,2,,,,,,,,1,,,72,0
6180,note_on,0,0,2,,,,,,,,1,,,67,0
6180,note_on,0,0,2,,,,,,,,1,,,67,70
6180,note_on,0,0,2,,,,,,,,1,,,71,70
6180,note_on,0,0,2,,,,,,,,1,,,74,70
6180,note_on,0,0,3,,,,,,,,2,,,59,70
6240,note_on,60,0,3,,,,,,,,2,,,59,0
6240,note_on,0,0,3,,,,,,,,2,,,50,0
6240,note_on,0,0,3,,,,,,,,2,,,48,87
6240,note_on,0,0,3,,,,,,,,2,,,55,0
6240,note_on,0,0,3,,,,,,,,2,,,60,87
6240,note_on,60,0,1,,,,,,,,0,,,74,0
6240,note_on,0,0,1,,,,,,,,0,,,76,80
6240,note_on,0,0,2,,,,,,,,1,,,67,77
6240,note_on,0,0,2,,,,,,,,1,,,67,0
6240,note_on,0,0,3,,,,,,,,2,,,55,87
6240,note_on,0,0,2,,,,,,,,1,,,71,0
6240,note_on,60,0,2,,,,,,,,1,,,74,0
6270,note_on,0,0,2,,,,,,,,1,,,72,77
6270,note_on,30,0,2,,,,,,,,1,,,67,0
6300,note_on,60,0,3,,,,,,,,2,,,60,0
6300,note_on,0,0,3,,,,,,,,2,,,55,0
6300,note_on,30,0,2,,,,,,,,1,,,72,0
6300,note_on,0,0,2,,,,,,,,1,,,76,78
6300,note_on,0,0,3,,,,,,,,2,,,48,0
6330,note_on,0,0,2,,,,,,,,1,,,72,79
6330,note_on,30,0,2,,,,,,,,1,,,76,0
6360,note_on,30,0,2,,,,,,,,1,,,72,0
6360,note_on,0,0,2,,,,,,,,1,,,67,79
6360,note_on,60,0,3,,,,,,,,2,,,48,97
6360,note_on,0,0,3,,,,,,,,2,,,55,97
6360,note_on,0,0,3,,,,,,,,2,,,60,97
6390,note_on,0,0,2,,,,,,,,1,,,72,81
6390,note_on,30,0,2,,,,,,,,1,,,67,0
6420,note_on,0,0,2,,,,,,,,1,,,76,82
6420,note_on,30,0,2,,,,,,,,1,,,72,0
6420,note_on,60,0,3,,,,,,,,2,,,60,0
6420,note_on,0,0,3,,,,,,,,2,,,55,0
6420,note_on,0,0,3,,,,,,,,2,,,48,0
6450,note_on,0,0,2,,,,,,,,1,,,72,84
6450,note_on,30,0,2,,,,,,,,1,,,76,0
6480,note_on,0,0,1,,,,,,,,0,,,76,90
6480,note_on,240,0,1,,,,,,,,0,,,76,0
6480,note_on,30,0,2,,,,,,,,1,,,72,0
6480,note_on,0,0,2,,,,,,,,1,,,67,85
6480,note_on,0,0,3,,,,,,,,2,,,55,105
6480,note_on,60,0,3,,,,,,,,2,,,48,105
6480,note_on,0,0,3,,,,,,,,2,,,60,105
6510,note_on,0,0,2,,,,,,,,1,,,70,86
6510,note_on,30,0,2,,,,,,,,1,,,67,0
6540,note_on,60,0,3,,,,,,,,2,,,60,0
6540,note_on,0,0,3,,,,,,,,2,,,55,0
6540,note_on,0,0,3,,,,,,,,2,,,48,0
6540,note_on,0,0,2,,,,,,,,1,,,76,88
6540,note_on,30,0,2,,,,,,,,1,,,70,0
6570,note_on,0,0,2,,,,,,,,1,,,70,89
6570,note_on,30,0,2,,,,,,,,1,,,76,0
6600,note_on,0,0,3,,,,,,,,2,,,60,70
6600,note_on,60,0,3,,,,,,,,2,,,48,70
6600,note_on,0,0,3,,,,,,,,2,,,55,70
6600,note_on,30,0,2,,,,,,,,1,,,70,0
6600,note_on,0,0,2,,,,,,,,1,,,67,91
6630,note_on,30,0,2,,,,,,,,1,,,67,0
6630,note_on,0,0,2,,,,,,,,1,,,70,92
6660,note_on,60,0,3,,,,,,,,2,,,60,0
6660,note_on,30,0,2,,,,,,,,1,,,70,0
6660,note_on,0,0,2,,,,,,,,1,,,76,94
6660,note_on,0,0,3,,,,,,,,2,,,55,0
6660,note_on,0,0,3,,,,,,,,2,,,48,0
6690,note_on,30,0,2,,,,,,,,1,,,76,0
6690,note_on,0,0,2,,,,,,,,1,,,70,94
6720,note_on,0,0,3,,,,,,,,2,,,60,70
6720,note_on,60,0,3,,,,,,,,2,,,53,70
6720,note_on,240,0,1,,,,,,,,0,,,76,0
6720,note_on,0,0,1,,,,,,,,0,,,77,79
6720,note_on,0,0,2,,,,,,,,1,,,65,95
6720,note_on,30,0,2,,,,,,,,1,,,70,0
6720,note_on,0,0,3,,,,,,,,2,,,57,70
6750,note_on,30,0,2,,,,,,,,1,,,65,0
6750,note_on,0,0,2,,,,,,,,1,,,69,96
6780,note_on,0,0,3,,,,,,,,2,,,57,0
6780,note_on,0,0,2,,,,,,,,1,,,77,97
6780,note_on,60,0,3,,,,,,,,2,,,60,0
6780,note_on,0,0,3,,,,,,,,2,,,53,0
6780,note_on,30,0,2,,,,,,,,1,,,69,0
6810,note_on,30,0,2,,,,,,,,1,,,77,0
6810,note_on,0,0,2,,,,,,,,1,,,69,97
6840,note_on,0,0,3,,,,,,,,2,,,60,70
6840,note_on,0,0,3,,,,,,,,2,,,57,70
6840,note_on,60,0,3,,,,,,,,2,,,53,70
6840,note_on,30,0,2,,,,,,,,1,,,69,0
6840,note_on,0,0,2,,,,,,,,1,,,65,97
6840,note_on,0,0,1,,,,,,,,0,,,77,82
6840,note_on,120,0,1,,,,,,,,0,,,77,0
6870,note_on,30,0,2,,,,,,,,1,,,65,0
6870,note_on,0,0,2,,,,,,,,1,,,69,97
6900,note_on,0,0,3,,,,,,,,2,,,57,0
6900,note_on,0,0,3,,,,,,,,2,,,53,0
6900,note_on,60,0,3,,,,,,,,2,,,60,0
6900,note_on,0,0,2,,,,,,,,1,,,77,97
6900,note_on,30,0,2,,,,,,,,1,,,69,0
6900,note_on,60,0,1,,,,,,,,0,,,77,0
6900,note_on,0,0,1,,,,,,,,0,,,77,84
6930,note_on,0,0,2,,,,,,,,1,,,69,97
6930,note_on,30,0,2,,,,,,,,1,,,77,0
6960,note_on,0,0,3,,,,,,,,2,,,59,70
6960,note_on,60,0,3,,,,,,,,2,,,55,70
6960,note_on,0,0,1,,,,,,,,0,,,76,85
6960,note_on,30,0,2,,,,,,,,1,,,69,0
6960,note_on,0,0,2,,,,,,,,1,,,65,97
6960,note_on,60,0,1,,,,,,,,0,,,77,0
6990,note_on,0,0,2,,,,,,,,1,,,71,97
6990,note_on,30,0,2,,,,,,,,1,,,65,0
7020,note_on,0,0,3,,,,,,,,2,,,55,0
7020,note_on,0,0,1,,,,,,,,0,,,74,88
7020,note_on,0,0,2,,,,,,,,1,,,74,97
7020,note_on,30,0,2,,,,,,,,1,,,71,0
7020,note_on,60,0,3,,,,,,,,2,,,59,0
7020,note_on,60,0,1,,,,,,,,0,,,76,0
7050,note_on,30,0,2,,,,,,,,1,,,74,0
7050,note_on,0,0,2,,,,,,,,1,,,71,97
7080,note_on,0,0,3,,,,,,,,2,,,59,70
7080,note_on,30,0,2,,,,,,,,1,,,71,0
7080,note_on,60,0,1,,,,,,,,0,,,74,0
7080,note_on,60,0,3,,,,,,,,2,,,55,70
7080,note_on,0,0,2,,,,,,,,1,,,65,97
7080,note_on,0,0,1,,,,,,,,0,,,72,89
7110,note_on,0,0,2,,,,,,,,1,,,71,97
7110,note_on,30,0,2,,,,,,,,1,,,65,0
7140,note_on,0,0,3,,,,,,,,2,,,55,0
7140,note_on,60,0,3,,,,,,,,2,,,59,0
7140,note_on,0,0,1,,,,,,,,0,,,71,91
7140,note_on,30,0,2,,,,,,,,1,,,71,0
7140,note_on,0,0,2,,,,,,,,1,,,74,97
7140,note_on,60,0,1,,,,,,,,0,,,72,0
7170,note_on,0,0,2,,,,,,,,1,,,71,97
7170,note_on,30,0,2,,,,,,,,1,,,74,0
7200,note_on,0,0,2,,,,,,,,1,,,64,96
7200,note_on,30,0,2,,,,,,,,1,,,71,0
7200,note_on,0,0,3,,,,,,,,2,,,60,70
7200,note_on,60,0,1,,,,,,,,0,,,71,0
7200,note_on,0,0,1,,,,,,,,0,,,72,92
7200,note_on,0,0,3,,,,,,,,2,,,55,70
7200,note_on,60,0,3,,,,,,,,2,,,48,70
7230,note_on,30,0,2,,,,,,,,1,,,64,0
7230,note_on,0,0,2,,,,,,,,1,,,67,96
7260,note_on,60,0,3,,,,,,,,2,,,60,0
7260,note_on,0,0,2,,,,,,,,1,,,73,96
7260,note_on,0,0,3,,,,,,,,2,,,55,0
7260,note_on,30,0,2,,,,,,,,1,,,67,0
7260,note_on,0,0,3,,,,,,,,2,,,48,0
7290,note_on,30,0,2,,,,,,,,1,,,73,0
7290,note_on,0,0,2,,,,,,,,1,,,67,95
7320,note_on,0,0,3,,,,,,,,2,,,60,70
7320,note_on,0,0,3,,,,,,,,2,,,55,70
7320,note_on,60,0,3,,,,,,,,2,,,48,70
7320,note_on,0,0,2,,,,,,,,1,,,64,95
7320,note_on,30,0,2,,,,,,,,1,,,67,0
7350,note_on,30,0,2,,,,,,,,1,,,64,0
7350,note_on,0,0,2,,,,,,,,1,,,67,94
7380,note_on,0,0,1,,,,,,,,0,,,72,76
7380,note_on,30,0,2,,,,,,,,1,,,67,0
7380,note_on,180,0,1,,,,,,,,0,,,72,0
7380,note_on,60,0,3,,,,,,,,2,,,60,0
7380,note_on,0,0,3,,,,,,,,2,,,55,0
7380,note_on,0,0,3,,,,,,,,2,,,48,0
7380,note_on,0,0,2,,,,,,,,1,,,73,94
7410,note_on,0,0,2,,,,,,,,1,,,67,94
7410,note_on,30,0,2,,,,,,,,1,,,73,0
7440,note_on,30,0,2,,,,,,,,1,,,67,0
7440,note_on,0,0,2,,,,,,,,1,,,65,94
7440,note_on,60,0,1,,,,,,,,0,,,72,0
7440,note_on,0,0,1,,,,,,,,0,,,74,80
7440,note_on,60,0,3,,,,,,,,2,,,48,70
7440,note_on,0,0,3,,,,,,,,2,,,55,70
7440,note_on,0,0,3,,,,,,,,2,,,60,70
7470,note_on,30,0,2,,,,,,,,1,,,65,0
7470,note_on,0,0,2,,,,,,,,1,,,67,94
7500,note_on,60,0,3,,,,,,,,2,,,60,0
7500,note_on,60,0,1,,,,,,,,0,,,74,0
7500,note_on,0,0,3,,,,,,,,2,,,55,0
7500,note_on,0,0,3,,,,,,,,2,,,48,0
7500,note_on,30,0,2,,,,,,,,1,,,67,0
7500,note_on,0,0,2,,,,,,,,1,,,74,94
7500,note_on,0,0,1,,,,,,,,0,,,76,84
7530,note_on,30,0,2,,,,,,,,1,,,74,0
7530,note_on,0,0,2,,,,,,,,1,,,67,94
7560,note_on,60,0,3,,,,,,,,2,,,48,70
7560,note_on,0,0,1,,,,,,,,0,,,77,88
7560,note_on,0,0,3,,,,,,,,2,,,60,70
7560,note_on,0,0,3,,,,,,,,2,,,55,70
7560,note_on,60,0,1,,,,,,,,0,,,76,0
7560,note_on,30,0,2,,,,,,,,1,,,67,0
7560,note_on,0,0,2,,,,,,,,1,,,65,95
7590,note_on,30,0,2,,,,,,,,1,,,65,0
7590,note_on,0,0,2,,,,,,,,1,,,67,95
7620,note_on,0,0,2,,,,,,,,1,,,74,95
7620,note_on,30,0,2,,,,,,,,1,,,67,0
7620,note_on,0,0,3,,,,,,,,2,,,55,0
7620,note_on,60,0,1,,,,,,,,0,,,77,0
7620,note_on,0,0,1,,,,,,,,0,,,74,90
7620,note_on,0,0,3,,,,,,,,2,,,48,0
7620,note_on,60,0,3,,,,,,,,2,,,60,0
7650,note_on,30,0,2,,,,,,,,1,,,74,0
7650,note_on,0,0,2,,,,,,,,1,,,67,95
7680,note_on,60,0,3,,,,,,,,2,,,48,92
7680,note_on,0,0,3,,,,,,,,2,,,52,92
7680,note_on,0,0,1,,,,,,,,0,,,79,92
7680,note_on,0,0,3,,,,,,,,2,,,60,92
7680,note_on,0,0,3,,,,,,,,2,,,55,92
7680,note_on,60,0,1,,,,,,,,0,,,74,0
7680,note_on,30,0,2,,,,,,,,1,,,67,0
7680,note_on,0,0,2,,,,,,,,1,,,67,95
7710,note_on,30,0,2,,,,,,,,1,,,67,0
7710,note_on,0,0,2,,,,,,,,1,,,76,95
7740,note_on,0,0,2,,,,,,,,1,,,79,95
7740,note_on,0,0,3,,,,,,,,2,,,48,0
7740,note_on,30,0,2,,,,,,,,1,,,76,0
7740,note_on,60,0,3,,,,,,,,2,,,60,0
7740,note_on,0,0,3,,,,,,,,2,,,55,0
7740,note_on,0,0,3,,,,,,,,2,,,52,0
7770,note_on,30,0,2,,,,,,,,1,,,79,0
7770,note_on,0,0,2,,,,,,,,1,,,76,95
7800,note_on,60,0,3,,,,,,,,2,,,48,92
7800,note_on,0,0,1,,,,,,,,0,,,76,92
7800,note_on,120,0,1,,,,,,,,0,,,79,0
7800,note_on,0,0,2,,,,,,,,1,,,67,95
7800,note_on,0,0,3,,,,,,,,2,,,60,92
7800,note_on,0,0,3,,,,,,,,2,,,55,92
7800,note_on,0,0,3,,,,,,,,2,,,52,92
7800,note_on,30,0,2,,,,,,,,1,,,76,0
7830,note_on,30,0,2,,,,,,,,1,,,67,0
7830,note_on,0,0,2,,,,,,,,1,,,72,95
7860,note_on,30,0,2,,,,,,,,1,,,72,0
7860,note_on,0,0,2,,,,,,,,1,,,76,95
7860,note_on,60,0,1,,,,,,,,0,,,76,0
7860,note_on,0,0,1,,,,,,,,0,,,76,82
7860,note_on,60,0,3,,,,,,,,2,,,60,0
7860,note_on,0,0,3,,,,,,,,2,,,48,0
7860,note_on,0,0,3,,,,,,,,2,,,52,0
7860,note_on,0,0,3,,,,,,,,2,,,55,0
7890,note_on,0,0,2,,,,,,,,1,,,72,95
7890,note_on,30,0,2,,,,,,,,1,,,76,0
7920,note_on,60,0,1,,,,,,,,0,,,76,0
7920,note_on,0,0,2,,,,,,,,1,,,65,95
7920,note_on,30,0,2,,,,,,,,1,,,72,0
7920,note_on,0,0,3,,,,,,,,2,,,55,92
7920,note_on,0,0,3,,,,,,,,2,,,50,92
7920,note_on,0,0,3,,,,,,,,2,,,47,92
7920,note_on,60,0,3,,,,,,,,2,,,43,92
7920,note_on,0,0,1,,,,,,,,0,,,74,85
7950,note_on,30,0,2,,,,,,,,1,,,65,0
7950,note_on,0,0,2,,,,,,,,1,,,71,95
7980,note_on,60,0,3,,,,,,,,2,,,55,0
7980,note_on,30,0,2,,,,,,,,1,,,71,0
7980,note_on,0,0,2,,,,,,,,1,,,74,95
7980,note_on,0,0,3,,,,,,,,2,,,43,0
7980,note_on,0,0,3,,,,,,,,2,,,47,0
7980,note_on,0,0,3,,,,,,,,2,,,50,0
7980,note_on,60,0,1,,,,,,,,0,,,74,0
7980,note_on,0,0,1,,,,,,,,0,,,76,88
8010,note_on,30,0,2,,,,,,,,1,,,74,0
8010,note_on,0,0,2,,,,,,,,1,,,71,95
8040,note_on,30,0,2,,,,,,,,1,,,71,0
8040,note_on,0,0,2,,,,,,,,1,,,65,95
8040,note_on,0,0,1,,,,,,,,0,,,77,92
8040,note_on,60,0,3,,,,,,,,2,,,43,92
8040,note_on,0,0,3,,,,,,,,2,,,47,92
8040,note_on,60,0,1,,,,,,,,0,,,76,0
8040,note_on,0,0,3,,,,,,,,2,,,50,92
8040,note_on,0,0,3,,,,,,,,2,,,55,92
8070,note_on,0,0,2,,,,,,,,1,,,71,95
8070,note_on,30,0,2,,,,,,,,1,,,65,0
8100,note_on,0,0,1,,,,,,,,0,,,74,97
8100,note_on,0,0,3,,,,,,,,2,,,50,0
8100,note_on,0,0,3,,,,,,,,2,,,47,0
8100,note_on,0,0,3,,,,,,,,2,,,43,0
8100,note_on,60,0,3,,,,,,,,2,,,55,0
8100,note_on,0,0,2,,,,,,,,1,,,74,95
8100,note_on,30,0,2,,,,,,,,1,,,71,0
8100,note_on,60,0,1,,,,,,,,0,,,77,0
8130,note_on,0,0,2,,,,,,,,1,,,71,95
8130,note_on,30,0,2,,,,,,,,1,,,74,0
8160,note_on,60,0,1,,,,,,,,0,,,74,0
8160,note_on,60,0,3,,,,,,,,2,,,48,60
8160,note_on,0,0,3,,,,,,,,2,,,52,60
8160,note_on,0,0,2,,,,,,,,1,,,72,92
8160,note_on,0,0,1,,,,,,,,0,,,72,104
8160,note_on,30,0,2,,,,,,,,1,,,71,0
8220,note_on,60,0,3,,,,,,,,2,,,52,0
8220,note_on,0,0,3,,,,,,,,2,,,48,0
8220,note_on,0,0,3,,,,,,,,2,,,55,60
8280,note_on,120,0,1,,,,,,,,0,,,72,0
8280,note_on,60,0,3,,,,,,,,2,,,55,0
8280,note_on,0,0,3,,,,,,,,2,,,48,60
8280,note_on,0,0,2,,,,,,,,1,,,72,69
8280,note_on,120,0,2,,,,,,,,1,,,72,0
8280,note_on,0,0,3,,,,,,,,2,,,52,60
8340,note_on,60,0,3,,,,,,,,2,,,52,0
8340,note_on,0,0,3,,,,,,,,2,,,48,0
8340,note_on,60,0,2,,,,,,,,1,,,72,0
8340,note_on,0,0,2,,,,,,,,1,,,72,70
8340,note_on,0,0,3,,,,,,,,2,,,55,60
8400,note_on,0,0,2,,,,,,,,1,,,74,71
8400,note_on,60,0,2,,,,,,,,1,,,72,0
8400,note_on,0,0,3,,,,,,,,2,,,48,60
8400,note_on,0,0,3,,,,,,,,2,,,52,60
8400,note_on,60,0,3,,,,,,,,2,,,55,0
8415,note_on,15,0,2,,,,,,,,1,,,74,0
8415,note_on,0,0,2,,,,,,,,1,,,72,71
8430,note_on,15,0,2,,,,,,,,1,,,72,0
8430,note_on,0,0,2,,,,,,,,1,,,74,70
8445,note_on,15,0,2,,,,,,,,1,,,74,0
8445,note_on,0,0,2,,,,,,,,1,,,72,70
8460,note_on,0,0,3,,,,,,,,2,,,48,0
8460,note_on,0,0,3,,,,,,,,2,,,55,60
8460,note_on,15,0,2,,,,,,,,1,,,72,0
8460,note_on,60,0,3,,,,,,,,2,,,52,0
8460,note_on,0,0,2,,,,,,,,1,,,74,70
8475,note_on,15,0,2,,,,,,,,1,,,74,0
8475,note_on,0,0,2,,,,,,,,1,,,72,70
8490,note_on,0,0,2,,,,,,,,1,,,74,69
8490,note_on,15,0,2,,,,,,,,1,,,72,0
8505,note_on,15,0,2,,,,,,,,1,,,74,0
8505,note_on,0,0,2,,,,,,,,1,,,72,69
8520,note_on,15,0,2,,,,,,,,1,,,72,0
8520,note_on,0,0,2,,,,,,,,1,,,76,69
8520,note_on,60,0,3,,,,,,,,2,,,55,0
8520,note_on,0,0,3,,,,,,,,2,,,48,60
8520,note_on,0,0,3,,,,,,,,2,,,52,60
8580,note_on,0,0,3,,,,,,,,2,,,48,0
8580,note_on,0,0,3,,,,,,,,2,,,55,60
8580,note_on,60,0,3,,,,,,,,2,,,52,0
8580,note_on,0,0,2,,,,,,,,1,,,72,68
8580,note_on,60,0,2,,,,,,,,1,,,76,0
8640,note_on,0,0,3,,,,,,,,2,,,50,60
8640,note_on,0,0,3,,,,,,,,2,,,53,60
8640,note_on,0,0,2,,,,,,,,1,,,77,67
8640,note_on,60,0,2,,,,,,,,1,,,72,0
8640,note_on,60,0,3,,,,,,,,2,,,55,0
8700,note_on,0,0,3,,,,,,,,2,,,50,0
8700,note_on,60,0,3,,,,,,,,2,,,53,0
8700,note_on,0,0,3,,,,,,,,2,,,55,60
8700,note_on,60,0,2,,,,,,,,1,,,77,0
8700,note_on,0,0,2,,,,,,,,1,,,74,66
8760,note_on,60,0,2,,,,,,,,1,,,74,0
8760,note_on,0,0,3,,,,,,,,2,,,53,60
8760,note_on,0,0,3,,,,,,,,2,,,50,60
8760,note_on,0,0,2,,,,,,,,1,,,71,65
8760,note_on,60,0,3,,,,,,,,2,,,55,0
8820,note_on,0,0,3,,,,,,,,2,,,55,60
8820,note_on,0,0,3,,,,,,,,2,,,50,0
8820,note_on,60,0,3,,,,,,,,2,,,53,0
8880,note_on,600,0,1,,,,,,,,0,,,77,60
8880,note_on,0,0,3,,,,,,,,2,,,43,60
8880,note_on,0,0,3,,,,,,,,2,,,50,60
8880,note_on,120,0,2,,,,,,,,1,,,71,0
8880,note_on,60,0,3,,,,,,,,2,,,55,0
8940,note_on,60,0,3,,,,,,,,2,,,50,0
8940,note_on,0,0,3,,,,,,,,2,,,43,0
8940,note_on,0,0,1,,,,,,,,0,,,74,58
8940,note_on,60,0,1,,,,,,,,0,,,77,0
8940,note_on,0,0,3,,,,,,,,2,,,55,60
9000,note_on,60,0,1,,,,,,,,0,,,74,0
9000,note_on,60,0,3,,,,,,,,2,,,55,0
9000,note_on,0,0,3,,,,,,,,2,,,43,60
9000,note_on,0,0,3,,,,,,,,2,,,50,60
9000,note_on,0,0,1,,,,,,,,0,,,71,60
9060,note_on,60,0,3,,,,,,,,2,,,50,0
9060,note_on,0,0,3,,,,,,,,2,,,43,0
9060,note_on,0,0,3,,,,,,,,2,,,55,60
9120,note_on,240,0,2,,,,,,,,1,,,72,66
9120,note_on,60,0,3,,,,,,,,2,,,55,0
9120,note_on,0,0,3,,,,,,,,2,,,48,60
9120,note_on,0,0,3,,,,,,,,2,,,52,60
9120,note_on,120,0,1,,,,,,,,0,,,71,0
9180,note_on,60,0,3,,,,,,,,2,,,52,0
9180,note_on,0,0,3,,,,,,,,2,,,48,0
9180,note_on,0,0,3,,,,,,,,2,,,55,60
9240,note_on,120,0,2,,,,,,,,1,,,72,0
9240,note_on,0,0,2,,,,,,,,1,,,72,66
9240,note_on,60,0,3,,,,,,,,2,,,55,0
9240,note_on,0,0,3,,,,,,,,2,,,52,60
9240,note_on,0,0,3,,,,,,,,2,,,48,60
9300,note_on,60,0,2,,,,,,,,1,,,72,0
9300,note_on,0,0,2,,,,,,,,1,,,72,66
9300,note_on,0,0,3,,,,,,,,2,,,48,0
9300,note_on,0,0,3,,,,,,,,2,,,55,60
9300,note_on,60,0,3,,,,,,,,2,,,52,0
9360,note_on,60,0,3,,,,,,,,2,,,55,0
9360,note_on,0,0,3,,,,,,,,2,,,48,60
9360,note_on,0,0,3,,,,,,,,2,,,52,60
9360,note_on,0,0,2,,,,,,,,1,,,74,66
9360,note_on,60,0,2,,,,,,,,1,,,72,0
9375,note_on,0,0,2,,,,,,,,1,,,72,66
9375,note_on,15,0,2,,,,,,,,1,,,74,0
9390,note_on,0,0,2,,,,,,,,1,,,74,66
9390,note_on,15,0,2,,,,,,,,1,,,72,0
9405,note_on,15,0,2,,,,,,,,1,,,74,0
9405,note_on,0,0,2,,,,,,,,1,,,72,66
9420,note_on,60,0,3,,,,,,,,2,,,52,0
9420,note_on,0,0,3,,,,,,,,2,,,48,0
9420,note_on,0,0,3,,,,,,,,2,,,55,60
9420,note_on,15,0,2,,,,,,,,1,,,72,0
9420,note_on,0,0,2,,,,,,,,1,,,74,66
9435,note_on,0,0,2,,,,,,,,1,,,72,66
9435,note_on,15,0,2,,,,,,,,1,,,74,0
9450,note_on,15,0,2,,,,,,,,1,,,72,0
9450,note_on,0,0,2,,,,,,,,1,,,74,65
9465,note_on,15,0,2,,,,,,,,1,,,74,0
9465,note_on,0,0,2,,,,,,,,1,,,72,65
9480,note_on,0,0,3,,,,,,,,2,,,52,60
9480,note_on,15,0,2,,,,,,,,1,,,72,0
9480,note_on,0,0,3,,,,,,,,2,,,48,60
9480,note_on,0,0,2,,,,,,,,1,,,76,65
9480,note_on,60,0,3,,,,,,,,2,,,55,0
9540,note_on,60,0,3,,,,,,,,2,,,52,0
9540,note_on,0,0,3,,,,,,,,2,,,55,60
9540,note_on,0,0,2,,,,,,,,1,,,72,64
9540,note_on,60,0,2,,,,,,,,1,,,76,0
9540,note_on,0,0,3,,,,,,,,2,,,48,0
9600,note_on,60,0,2,,,,,,,,1,,,72,0
9600,note_on,60,0,3,,,,,,,,2,,,55,0
9600,note_on,0,0,3,,,,,,,,2,,,52,60
9600,note_on,0,0,3,,,,,,,,2,,,56,60
9600,note_on,0,0,2,,,,,,,,1,,,74,63
9660,note_on,0,0,2,,,,,,,,1,,,71,63
9660,note_on,60,0,3,,,,,,,,2,,,56,0
9660,note_on,0,0,3,,,,,,,,2,,,59,60
9660,note_on,0,0,3,,,,,,,,2,,,52,0
9660,note_on,60,0,2,,,,,,,,1,,,74,0
9720,note_on,0,0,2,,,,,,,,1,,,68,61
9720,note_on,60,0,2,,,,,,,,1,,,71,0
9720,note_on,60,0,3,,,,,,,,2,,,59,0
9720,note_on,0,0,3,,,,,,,,2,,,52,60
9720,note_on,0,0,3,,,,,,,,2,,,56,60
9780,note_on,60,0,3,,,,,,,,2,,,56,0
9780,note_on,0,0,3,,,,,,,,2,,,52,0
9780,note_on,0,0,3,,,,,,,,2,,,59,60
9840,note_on,120,0,2,,,,,,,,1,,,68,0
9840,note_on,60,0,3,,,,,,,,2,,,59,0
9840,note_on,0,0,3,,,,,,,,2,,,52,60
9840,note_on,0,0,3,,,,,,,,2,,,56,60
9840,note_on,720,0,1,,,,,,,,0,,,74,59
9900,note_on,60,0,3,,,,,,,,2,,,56,0
9900,note_on,0,0,1,,,,,,,,0,,,71,56
9900,note_on,0,0,3,,,,,,,,2,,,59,60
9900,note_on,60,0,1,,,,,,,,0,,,74,0
9900,note_on,0,0,3,,,,,,,,2,,,52,0
9960,note_on,60,0,1,,,,,,,,0,,,71,0
9960,note_on,0,0,1,,,,,,,,0,,,68,54
9960,note_on,0,0,3,,,,,,,,2,,,52,60
9960,note_on,0,0,3,,,,,,,,2,,,56,60
9960,note_on,60,0,3,,,,,,,,2,,,59,0
10020,note_on,60,0,3,,,,,,,,2,,,56,0
10020,note_on,0,0,3,,,,,,,,2,,,52,0
10020,note_on,0,0,3,,,,,,,,2,,,59,60
10080,note_on,120,0,1,,,,,,,,0,,,68,0
10080,note_on,60,0,3,,,,,,,,2,,,59,0
10080,note_on,240,0,2,,,,,,,,1,,,74,60
10080,note_on,0,0,3,,,,,,,,2,,,52,60
10080,note_on,0,0,3,,,,,,,,2,,,56,60
10140,note_on,60,0,2,,,,,,,,1,,,74,0
10140,note_on,0,0,2,,,,,,,,1,,,71,60
10140,note_on,0,0,3,,,,,,,,2,,,52,0
10140,note_on,60,0,3,,,,,,,,2,,,56,0
10140,note_on,0,0,3,,,,,,,,2,,,59,60
10200,note_on,60,0,3,,,,,,,,2,,,59,0
10200,note_on,0,0,3,,,,,,,,2,,,52,60
10200,note_on,0,0,3,,,,,,,,2,,,56,60
10200,note_on,0,0,2,,,,,,,,1,,,68,60
10200,note_on,60,0,2,,,,,,,,1,,,71,0
10260,note_on,0,0,3,,,,,,,,2,,,59,60
10260,note_on,60,0,3,,,,,,,,2,,,56,0
10260,note_on,0,0,3,,,,,,,,2,,,52,0
10320,note_on,60,0,3,,,,,,,,2,,,59,0
10320,note_on,120,0,2,,,,,,,,1,,,68,0
10320,note_on,0,0,3,,,,,,,,2,,,56,60
10320,note_on,240,0,1,,,,,,,,0,,,74,62
10320,note_on,0,0,3,,,,,,,,2,,,52,60
10380,note_on,60,0,3,,,,,,,,2,,,56,0
10380,note_on,0,0,3,,,,,,,,2,,,52,0
10380,note_on,0,0,3,,,,,,,,2,,,59,60
10440,note_on,60,0,3,,,,,,,,2,,,59,0
10440,note_on,0,0,3,,,,,,,,2,,,52,60
10440,note_on,0,0,3,,,,,,,,2,,,56,60
10440,note_on,120,0,2,,,,,,,,1,,,74,60
10440,note_on,120,0,1,,,,,,,,0,,,74,0
10440,note_on,0,0,1,,,,,,,,0,,,71,63
10500,note_on,0,0,3,,,,,,,,2,,,59,60
10500,note_on,0,0,2,,,,,,,,1,,,71,60
10500,note_on,60,0,2,,,,,,,,1,,,74,0
10500,note_on,0,0,3,,,,,,,,2,,,52,0
10500,note_on,60,0,3,,,,,,,,2,,,56,0
10500,note_on,0,0,1,,,,,,,,0,,,71,62
10500,note_on,60,0,1,,,,,,,,0,,,71,0
10560,note_on,0,0,1,,,,,,,,0,,,68,60
10560,note_on,0,0,3,,,,,,,,2,,,52,60
10560,note_on,60,0,1,,,,,,,,0,,,71,0
10560,note_on,60,0,2,,,,,,,,1,,,71,0
10560,note_on,60,0,3,,,,,,,,2,,,59,0
10560,note_on,0,0,2,,,,,,,,1,,,68,60
10560,note_on,0,0,3,,,,,,,,2,,,56,60
10680,note_on,0,0,3,,,,,,,,2,,,64,60
10680,note_on,120,0,3,,,,,,,,2,,,56,0
10680,note_on,0,0,1,,,,,,,,0,,,76,60
10680,note_on,0,0,3,,,,,,,,2,,,52,0
10680,note_on,120,0,1,,,,,,,,0,,,68,0
10680,note_on,0,0,2,,,,,,,,1,,,76,60
10680,note_on,120,0,2,,,,,,,,1,,,68,0
10920,note_on,0,0,2,,,,,,,,1,,,74,60
10920,note_on,0,0,1,,,,,,,,0,,,74,62
10920,note_on,240,0,1,,,,,,,,0,,,76,0
10920,note_on,240,0,2,,,,,,,,1,,,76,0
10920,note_on,240,0,3,,,,,,,,2,,,64,0
10920,note_on,0,0,3,,,,,,,,2,,,62,60
10980,note_on,0,0,1,,,,,,,,0,,,71,62
10980,note_on,60,0,1,,,,,,,,0,,,74,0
10980,note_on,60,0,3,,,,,,,,2,,,62,0
10980,note_on,60,0,2,,,,,,,,1,,,74,0
10980,note_on,0,0,2,,,,,,,,1,,,71,60
10980,note_on,0,0,3,,,,,,,,2,,,59,60
11040,note_on,60,0,3,,,,,,,,2,,,59,0
11040,note_on,0,0,3,,,,,,,,2,,,56,60
11040,note_on,0,0,2,,,,,,,,1,,,68,60
11040,note_on,60,0,2,,,,,,,,1,,,71,0
11040,note_on,60,0,1,,,,,,,,0,,,71,0
11040,note_on,0,0,1,,,,,,,,0,,,68,61
11160,note_on,0,0,1,,,,,,,,0,,,76,60
11160,note_on,120,0,3,,,,,,,,2,,,56,0
11160,note_on,0,0,3,,,,,,,,2,,,64,60
11160,note_on,120,0,1,,,,,,,,0,,,68,0
11160,note_on,120,0,2,,,,,,,,1,,,68,0
11160,note_on,0,0,2,,,,,,,,1,,,76,60
11280,note_on,120,0,1,,,,,,,,0,,,76,0
11280,note_on,0,0,3,,,,,,,,2,,,62,60
11280,note_on,120,0,3,,,,,,,,2,,,64,0
11280,note_on,0,0,2,,,,,,,,1,,,74,60
11280,note_on,0,0,1,,,,,,,,0,,,74,60
11280,note_on,120,0,2,,,,,,,,1,,,76,0
11400,note_on,0,0,2,,,,,,,,1,,,71,60
11400,note_on,120,0,2,,,,,,,,1,,,74,0
11400,note_on,0,0,1,,,,,,,,0,,,71,62
11400,note_on,120,0,1,,,,,,,,0,,,74,0
11400,note_on,120,0,3,,,,,,,,2,,,62,0
11400,note_on,0,0,3,,,,,,,,2,,,59,60
11520,note_on,120,0,2,,,,,,,,1,,,71,0
11520,note_on,0,0,2,,,,,,,,1,,,68,60
11520,note_on,120,0,1,,,,,,,,0,,,71,0
11520,note_on,120,0,3,,,,,,,,2,,,59,0
11520,note_on,0,0,3,,,,,,,,2,,,56,60
11520,note_on,0,0,1,,,,,,,,0,,,68,63
11580,note_on,0,0,3,,,,,,,,2,,,64,60
11580,note_on,60,0,3,,,,,,,,2,,,56,0
11580,note_on,60,0,2,,,,,,,,1,,,68,0
11580,note_on,0,0,2,,,,,,,,1,,,76,60
11580,note_on,0,0,1,,,,,,,,0,,,76,61
11580,note_on,60,0,1,,,,,,,,0,,,68,0
11640,note_on,60,0,3,,,,,,,,2,,,64,0
11640,note_on,60,0,2,,,,,,,,1,,,76,0
11640,note_on,0,0,2,,,,,,,,1,,,74,60
11640,note_on,0,0,3,,,,,,,,2,,,62,60
11640,note_on,0,0,1,,,,,,,,0,,,74,61
11640,note_on,60,0,1,,,,,,,,0,,,76,0
11700,note_on,60,0,2,,,,,,,,1,,,74,0
11700,note_on,0,0,2,,,,,,,,1,,,71,60
11700,note_on,0,0,1,,,,,,,,0,,,71,61
11700,note_on,60,0,1,,,,,,,,0,,,74,0
11700,note_on,60,0,3,,,,,,,,2,,,62,0
11700,note_on,0,0,3,,,,,,,,2,,,59,60
11760,note_on,0,0,1,,,,,,,,0,,,68,63
11760,note_on,60,0,1,,,,,,,,0,,,71,0
11760,note_on,0,0,2,,,,,,,,1,,,68,60
11760,note_on,60,0,2,,,,,,,,1,,,71,0
11760,note_on,60,0,3,,,,,,,,2,,,59,0
11760,note_on,0,0,3,,,,,,,,2,,,56,60
11800,note_on,0,0,1,,,,,,,,0,,,78,63
11800,note_on,40,0,3,,,,,,,,2,,,56,0
11800,note_on,0,0,3,,,,,,,,2,,,66,60
11800,note_on,0,0,2,,,,,,,,1,,,78,60
11800,note_on,40,0,2,,,,,,,,1,,,68,0
11800,note_on,40,0,1,,,,,,,,0,,,68,0
11840,note_on,40,0,3,,,,,,,,2,,,66,0
11840,note_on,0,0,3,,,,,,,,2,,,64,60
11840,note_on,40,0,1,,,,,,,,0,,,78,0
11840,note_on,40,0,2,,,,,,,,1,,,78,0
11840,note_on,0,0,2,,,,,,,,1,,,76,60
11840,note_on,0,0,1,,,,,,,,0,,,76,64
11880,note_on,40,0,1,,,,,,,,0,,,76,0
11880,note_on,0,0,3,,,,,,,,2,,,62,60
11880,note_on,40,0,3,,,,,,,,2,,,64,0
11880,note_on,40,0,2,,,,,,,,1,,,76,0
11880,note_on,0,0,2,,,,,,,,1,,,74,60
11880,note_on,0,0,1,,,,,,,,0,,,74,64
11920,note_on,40,0,2,,,,,,,,1,,,74,0
11920,note_on,0,0,1,,,,,,,,0,,,73,65
11920,note_on,40,0,1,,,,,,,,0,,,74,0
11920,note_on,40,0,3,,,,,,,,2,,,62,0
11920,note_on,0,0,3,,,,,,,,2,,,61,60
11920,note_on,0,0,2,,,,,,,,1,,,73,60
11960,note_on,40,0,2,,,,,,,,1,,,73,0
11960,note_on,0,0,2,,,,,,,,1,,,71,60
11960,note_on,40,0,1,,,,,,,,0,,,73,0
11960,note_on,40,0,3,,,,,,,,2,,,61,0
11960,note_on,0,0,3,,,,,,,,2,,,59,60
11960,note_on,0,0,1,,,,,,,,0,,,71,65
12000,note_on,40,0,3,,,,,,,,2,,,59,0
12000,set_tempo,5984,1,0,,,,,,555556,,,,,,
12000,note_on,0,0,3,,,,,,,,2,,,45,60
12000,note_on,40,0,1,,,,,,,,0,,,71,0
12000,note_on,0,0,1,,,,,,,,0,,,69,65
12000,note_on,0,0,3,,,,,,,,2,,,57,60
12000,note_on,0,0,2,,,,,,,,1,,,61,60
12000,note_on,0,0,2,,,,,,,,1,,,64,60
12000,note_on,0,0,2,,,,,,,,1,,,69,60
12000,note_on,40,0,2,,,,,,,,1,,,71,0
12060,note_on,60,0,3,,,,,,,,2,,,45,0
12060,note_on,0,0,3,,,,,,,,2,,,57,0
12060,note_on,0,0,3,,,,,,,,2,,,52,60
12060,note_on,0,0,2,,,,,,,,1,,,64,0
12060,note_on,60,0,2,,,,,,,,1,,,61,0
12060,note_on,0,0,2,,,,,,,,1,,,69,0
12060,note_on,60,0,1,,,,,,,,0,,,69,0
12060,note_on,0,0,1,,,,,,,,0,,,76,65
12120,note_on,0,0,1,,,,,,,,0,,,75,65
12120,note_on,0,0,3,,,,,,,,2,,,45,60
12120,note_on,60,0,1,,,,,,,,0,,,76,0
12120,note_on,60,0,3,,,,,,,,2,,,52,0
12120,note_on,0,0,3,,,,,,,,2,,,57,60
12120,note_on,0,0,2,,,,,,,,1,,,61,60
12120,note_on,60,0,2,,,,,,,,1,,,69,60
12120,note_on,0,0,2,,,,,,,,1,,,64,60
12180,note_on,0,0,3,,,,,,,,2,,,52,60
12180,note_on,0,0,2,,,,,,,,1,,,64,0
12180,note_on,60,0,2,,,,,,,,1,,,61,0
12180,note_on,60,0,3,,,,,,,,2,,,45,0
12180,note_on,60,0,1,,,,,,,,0,,,75,0
12180,note_on,0,0,1,,,,,,,,0,,,76,65
12180,note_on,0,0,2,,,,,,,,1,,,69,0
12180,note_on,0,0,3,,,,,,,,2,,,57,0
12240,note_on,0,0,2,,,,,,,,1,,,64,58
12240,note_on,0,0,2,,,,,,,,1,,,61,58
12240,note_on,60,0,2,,,,,,,,1,,,69,58
12240,note_on,60,0,3,,,,,,,,2,,,52,0
12240,note_on,0,0,3,,,,,,,,2,,,57,60
12240,note_on,0,0,3,,,,,,,,2,,,45,60
12240,note_on,60,0,1,,,,,,,,0,,,76,0
12240,note_on,0,0,1,,,,,,,,0,,,74,65
12280,note_on,40,0,1,,,,,,,,0,,,74,0
12280,note_on,0,0,1,,,,,,,,0,,,73,65
12300,note_on,60,0,2,,,,,,,,1,,,61,0
12300,note_on,0,0,2,,,,,,,,1,,,64,0
12300,note_on,0,0,2,,,,,,,,1,,,69,0
12300,note_on,60,0,3,,,,,,,,2,,,45,0
12300,note_on,0,0,3,,,,,,,,2,,,57,0
12300,note_on,0,0,3,,,,,,,,2,,,52,60
12320,note_on,40,0,1,,,,,,,,0,,,73,0
12320,note_on,0,0,1,,,,,,,,0,,,73,65
12360,note_on,0,0,2,,,,,,,,1,,,69,58
12360,note_on,0,0,3,,,,,,,,2,,,45,60
12360,note_on,60,0,3,,,,,,,,2,,,52,0
12360,note_on,40,0,1,,,,,,,,0,,,73,0
12360,note_on,0,0,2,,,,,,,,1,,,64,58
12360,note_on,0,0,1,,,,,,,,0,,,73,64
12360,note_on,0,0,3,,,,,,,,2,,,57,60
12360,note_on,60,0,2,,,,,,,,1,,,61,58
12400,note_on,0,0,1,,,,,,,,0,,,71,63
12400,note_on,40,0,1,,,,,,,,0,,,73,0
12420,note_on,0,0,2,,,,,,,,1,,,61,0
12420,note_on,0,0,2,,,,,,,,1,,,64,0
12420,note_on,0,0,3,,,,,,,,2,,,52,60
12420,note_on,0,0,3,,,,,,,,2,,,57,0
12420,note_on,60,0,3,,,,,,,,2,,,45,0
12420,note_on,60,0,2,,,,,,,,1,,,69,0
12440,note_on,0,0,1,,,,,,,,0,,,69,63
12440,note_on,40,0,1,,,,,,,,0,,,71,0
12480,note_on,0,0,1,,,,,,,,0,,,76,62
12480,note_on,40,0,1,,,,,,,,0,,,69,0
12480,note_on,0,0,3,,,,,,,,2,,,47,60
12480,note_on,60,0,3,,,,,,,,2,,,52,0
12480,note_on,60,0,2,,,,,,,,1,,,62,57
12480,note_on,0,0,2,,,,,,,,1,,,64,57
12480,note_on,0,0,2,,,,,,,,1,,,68,57
12480,note_on,0,0,3,,,,,,,,2,,,59,60
12540,note_on,60,0,3,,,,,,,,2,,,47,0
12540,note_on,0,0,3,,,,,,,,2,,,59,0
12540,note_on,0,0,3,,,,,,,,2,,,52,60
12540,note_on,0,0,2,,,,,,,,1,,,62,0
12540,note_on,0,0,1,,,,,,,,0,,,74,61
12540,note_on,0,0,2,,,,,,,,1,,,64,0
12540,note_on,60,0,1,,,,,,,,0,,,76,0
12540,note_on,60,0,2,,,,,,,,1,,,68,0
12600,note_on,0,0,3,,,,,,,,2,,,59,60
12600,note_on,0,0,3,,,,,,,,2,,,47,60
12600,note_on,60,0,3,,,,,,,,2,,,52,0
12600,note_on,60,0,2,,,,,,,,1,,,62,56
12600,note_on,0,0,2,,,,,,,,1,,,64,56
12600,note_on,0,0,2,,,,,,,,1,,,68,56
12660,note_on,0,0,3,,,,,,,,2,,,47,0
12660,note_on,0,0,1,,,,,,,,0,,,71,60
12660,note_on,0,0,2,,,,,,,,1,,,62,0
12660,note_on,0,0,3,,,,,,,,2,,,52,60
12660,note_on,120,0,1,,,,,,,,0,,,74,0
12660,note_on,60,0,3,,,,,,,,2,,,59,0
12660,note_on,0,0,2,,,,,,,,1,,,64,0
12660,note_on,60,0,2,,,,,,,,1,,,68,0
12720,note_on,60,0,1,,,,,,,,0,,,71,0
12720,note_on,0,0,3,,,,,,,,2,,,47,60
12720,note_on,60,0,3,,,,,,,,2,,,52,0
12720,note_on,0,0,2,,,,,,,,1,,,64,60
12720,note_on,60,0,2,,,,,,,,1,,,62,60
12720,note_on,0,0,1,,,,,,,,0,,,68,60
12720,note_on,0,0,2,,,,,,,,1,,,68,60
12720,note_on,0,0,3,,,,,,,,2,,,59,60
12780,note_on,0,0,2,,,,,,,,1,,,62,0
12780,note_on,0,0,3,,,,,,,,2,,,52,60
12780,note_on,0,0,2,,,,,,,,1,,,64,0
12780,note_on,60,0,2,,,,,,,,1,,,68,0
12780,note_on,0,0,3,,,,,,,,2,,,47,0
12780,note_on,60,0,3,,,,,,,,2,,,59,0
12840,note_on,120,0,1,,,,,,,,0,,,68,0
12840,note_on,0,0,1,,,,,,,,0,,,68,60
12840,note_on,0,0,2,,,,,,,,1,,,68,60
12840,note_on,0,0,2,,,,,,,,1,,,64,60
12840,note_on,60,0,2,,,,,,,,1,,,62,60
12840,note_on,60,0,3,,,,,,,,2,,,52,0
12840,note_on,0,0,3,,,,,,,,2,,,59,60
12840,note_on,0,0,3,,,,,,,,2,,,47,60
12900,note_on,60,0,3,,,,,,,,2,,,47,0
12900,note_on,0,0,3,,,,,,,,2,,,52,60
12900,note_on,0,0,3,,,,,,,,2,,,59,0
12900,note_on,60,0,2,,,,,,,,1,,,68,0
12900,note_on,0,0,2,,,,,,,,1,,,64,0
12900,note_on,0,0,2,,,,,,,,1,,,62,0
12960,note_on,60,0,2,,,,,,,,1,,,67,60
12960,note_on,120,0,1,,,,,,,,0,,,68,0
12960,note_on,0,0,1,,,,,,,,0,,,67,60
12960,note_on,60,0,3,,,,,,,,2,,,52,0
12960,note_on,0,0,3,,,,,,,,2,,,49,60
12960,note_on,0,0,3,,,,,,,,2,,,52,60
12960,note_on,0,0,2,,,,,,,,1,,,64,60
13020,note_on,60,0,2,,,,,,,,1,,,64,0
13020,note_on,0,0,2,,,,,,,,1,,,67,0
13020,note_on,0,0,3,,,,,,,,2,,,57,60
13020,note_on,60,0,3,,,,,,,,2,,,52,0
13020,note_on,0,0,3,,,,,,,,2,,,49,0
13080,note_on,60,0,2,,,,,,,,1,,,67,60
13080,note_on,0,0,3,,,,,,,,2,,,52,60
13080,note_on,0,0,3,,,,,,,,2,,,49,60
13080,note_on,60,0,3,,,,,,,,2,,,57,0
13080,note_on,0,0,2,,,,,,,,1,,,64,60
13140,note_on,0,0,1,,,,,,,,0,,,67,60
13140,note_on,180,0,1,,,,,,,,0,,,67,0
13140,note_on,0,0,3,,,,,,,,2,,,57,60
13140,note_on,0,0,3,,,,,,,,2,,,49,0
13140,note_on,60,0,3,,,,,,,,2,,,52,0
13140,note_on,60,0,2,,,,,,,,1,,,64,0
13140,note_on,0,0,2,,,,,,,,1,,,67,0
13200,note_on,0,0,2,,,,,,,,1,,,64,60
13200,note_on,0,0,3,,,,,,,,2,,,52,60
13200,note_on,0,0,3,,,,,,,,2,,,49,60
13200,note_on,60,0,2,,,,,,,,1,,,67,60
13200,note_on,60,0,3,,,,,,,,2,,,57,0
13200,note_on,0,0,1,,,,,,,,0,,,67,60
13200,note_on,60,0,1,,,,,,,,0,,,67,0
13260,note_on,60,0,2,,,,,,,,1,,,64,0
13260,note_on,60,0,1,,,,,,,,0,,,67,0
13260,note_on,60,0,3,,,,,,,,2,,,52,0
13260,note_on,0,0,3,,,,,,,,2,,,49,0
13260,note_on,0,0,3,,,,,,,,2,,,57,60
13260,note_on,0,0,2,,,,,,,,1,,,67,0
13275,note_on,15,0,1,,,,,,,,0,,,69,60
13290,note_on,0,0,1,,,,,,,,0,,,67,60
13290,note_on,15,0,1,,,,,,,,0,,,69,0
13305,note_on,0,0,1,,,,,,,,0,,,66,60
13305,note_on,15,0,1,,,,,,,,0,,,67,0
13320,note_on,0,0,3,,,,,,,,2,,,49,60
13320,note_on,60,0,3,,,,,,,,2,,,57,0
13320,note_on,0,0,2,,,,,,,,1,,,67,60
13320,note_on,0,0,3,,,,,,,,2,,,52,60
13320,note_on,15,0,1,,,,,,,,0,,,66,0
13320,note_on,0,0,1,,,,,,,,0,,,67,60
13320,note_on,60,0,2,,,,,,,,1,,,64,60
13380,note_on,0,0,1,,,,,,,,0,,,69,60
13380,note_on,60,0,3,,,,,,,,2,,,52,0
13380,note_on,60,0,2,,,,,,,,1,,,67,0
13380,note_on,0,0,2,,,,,,,,1,,,64,0
13380,note_on,0,0,3,,,,,,,,2,,,57,60
13380,note_on,0,0,3,,,,,,,,2,,,49,0
13380,note_on,60,0,1,,,,,,,,0,,,67,0
13440,note_on,60,0,2,,,,,,,,1,,,62,60
13440,note_on,0,0,2,,,,,,,,1,,,66,60
13440,note_on,0,0,1,,,,,,,,0,,,66,60
13440,note_on,0,0,3,,,,,,,,2,,,50,60
13440,note_on,60,0,1,,,,,,,,0,,,69,0
13440,note_on,60,0,3,,,,,,,,2,,,57,0
13440,note_on,0,0,3,,,,,,,,2,,,54,60
13500,note_on,0,0,3,,,,,,,,2,,,57,60
13500,note_on,60,0,3,,,,,,,,2,,,54,0
13500,note_on,60,0,2,,,,,,,,1,,,66,0
13500,note_on,0,0,3,,,,,,,,2,,,50,0
13500,note_on,0,0,2,,,,,,,,1,,,62,0
13560,note_on,60,0,2,,,,,,,,1,,,69,60
13560,note_on,0,0,2,,,,,,,,1,,,66,60
13560,note_on,60,0,3,,,,,,,,2,,,57,0
13560,note_on,0,0,3,,,,,,,,2,,,50,60
13560,note_on,0,0,1,,,,,,,,0,,,69,60
13560,note_on,120,0,1,,,,,,,,0,,,66,0
13560,note_on,0,0,3,,,,,,,,2,,,54,60
13620,note_on,60,0,2,,,,,,,,1,,,66,0
13620,note_on,0,0,2,,,,,,,,1,,,69,0
13620,note_on,60,0,3,,,,,,,,2,,,50,0
13620,note_on,0,0,3,,,,,,,,2,,,54,0
13620,note_on,0,0,3,,,,,,,,2,,,57,60
13680,note_on,0,0,3,,,,,,,,2,,,50,60
13680,note_on,120,0,1,,,,,,,,0,,,69,0
13680,note_on,0,0,2,,,,,,,,1,,,74,60
13680,note_on,0,0,2,,,,,,,,1,,,69,60
13680,note_on,60,0,2,,,,,,,,1,,,66,60
13680,note_on,0,0,3,,,,,,,,2,,,54,60
13680,note_on,60,0,3,,,,,,,,2,,,57,0
13680,note_on,0,0,1,,,,,,,,0,,,74,60
13740,note_on,60,0,2,,,,,,,,1,,,69,0
13740,note_on,0,0,2,,,,,,,,1,,,74,0
13740,note_on,0,0,2,,,,,,,,1,,,66,0
13740,note_on,0,0,3,,,,,,,,2,,,57,60
13740,note_on,0,0,3,,,,,,,,2,,,54,0
13740,note_on,60,0,3,,,,,,,,2,,,50,0
13800,note_on,60,0,3,,,,,,,,2,,,57,0
13800,note_on,120,0,1,,,,,,,,0,,,74,0
13800,note_on,0,0,1,,,,,,,,0,,,69,64
13800,note_on,0,0,3,,,,,,,,2,,,54,60
13800,note_on,0,0,3,,,,,,,,2,,,50,60
13800,note_on,0,0,2,,,,,,,,1,,,69,60
13800,note_on,60,0,2,,,,,,,,1,,,66,60
13860,note_on,60,0,3,,,,,,,,2,,,54,0
13860,note_on,0,0,3,,,,,,,,2,,,50,0
13860,note_on,0,0,3,,,,,,,,2,,,57,60
13860,note_on,0,0,1,,,,,,,,0,,,78,64
13860,note_on,60,0,2,,,,,,,,1,,,69,0
13860,note_on,60,0,1,,,,,,,,0,,,69,0
13860,note_on,0,0,2,,,,,,,,1,,,66,0
13920,note_on,60,0,2,,,,,,,,1,,,69,60
13920,note_on,0,0,2,,,,,,,,1,,,76,60
13920,note_on,0,0,2,,,,,,,,1,,,67,60
13920,note_on,0,0,3,,,,,,,,2,,,52,60
13920,note_on,0,0,3,,,,,,,,2,,,49,60
13920,note_on,60,0,3,,,,,,,,2,,,57,0
13920,note_on,0,0,1,,,,,,,,0,,,78,65
13920,note_on,60,0,1,,,,,,,,0,,,78,0
13980,note_on,0,0,1,,,,,,,,0,,,76,66
13980,note_on,60,0,1,,,,,,,,0,,,78,0
13980,note_on,0,0,3,,,,,,,,2,,,49,0
13980,note_on,0,0,3,,,,,,,,2,,,57,60
13980,note_on,60,0,2,,,,,,,,1,,,67,0
13980,note_on,0,0,2,,,,,,,,1,,,76,0
13980,note_on,0,0,2,,,,,,,,1,,,69,0
13980,note_on,60,0,3,,,,,,,,2,,,52,0
14040,note_on,0,0,1,,,,,,,,0,,,74,69
14040,note_on,60,0,1,,,,,,,,0,,,76,0
14040,note_on,60,0,2,,,,,,,,1,,,67,60
14040,note_on,0,0,2,,,,,,,,1,,,69,60
14040,note_on,0,0,3,,,,,,,,2,,,52,60
14040,note_on,0,0,3,,,,,,,,2,,,49,60
14040,note_on,60,0,3,,,,,,,,2,,,57,0
14040,note_on,0,0,2,,,,,,,,1,,,76,60
14100,note_on,0,0,3,,,,,,,,2,,,57,60
14100,note_on,0,0,3,,,,,,,,2,,,49,0
14100,note_on,60,0,3,,,,,,,,2,,,52,0
14100,note_on,0,0,1,,,,,,,,0,,,73,69
14100,note_on,60,0,1,,,,,,,,0,,,74,0
14100,note_on,60,0,2,,,,,,,,1,,,76,0
14100,note_on,0,0,2,,,,,,,,1,,,69,0
14100,note_on,0,0,2,,,,,,,,1,,,67,0
14160,note_on,0,0,1,,,,,,,,0,,,71,70
14160,note_on,60,0,1,,,,,,,,0,,,73,0
14160,note_on,0,0,3,,,,,,,,2,,,52,60
14160,note_on,0,0,3,,,,,,,,2,,,49,60
14160,note_on,60,0,3,,,,,,,,2,,,57,0
14160,note_on,60,0,2,,,,,,,,1,,,69,60
14160,note_on,0,0,2,,,,,,,,1,,,64,60
14220,note_on,60,0,1,,,,,,,,0,,,71,0
14220,note_on,0,0,3,,,,,,,,2,,,57,60
14220,note_on,0,0,3,,,,,,,,2,,,49,0
14220,note_on,60,0,3,,,,,,,,2,,,52,0
14220,note_on,0,0,1,,,,,,,,0,,,69,72
14220,note_on,0,0,2,,,,,,,,1,,,69,0
14220,note_on,60,0,2,,,,,,,,1,,,64,0
14280,note_on,60,0,2,,,,,,,,1,,,64,60
14280,note_on,0,0,2,,,,,,,,1,,,67,60
14280,note_on,60,0,3,,,,,,,,2,,,57,0
14280,note_on,0,0,3,,,,,,,,2,,,49,60
14280,note_on,0,0,3,,,,,,,,2,,,52,60
14280,note_on,60,0,1,,,,,,,,0,,,69,0
14340,note_on,0,0,3,,,,,,,,2,,,49,0
14340,note_on,60,0,3,,,,,,,,2,,,52,0
14340,note_on,60,0,1,,,,,,,,0,,,67,75
14340,note_on,0,0,2,,,,,,,,1,,,64,0
14340,note_on,60,0,2,,,,,,,,1,,,67,0
14340,note_on,0,0,3,,,,,,,,2,,,57,60
14400,note_on,60,0,3,,,,,,,,2,,,57,0
14400,note_on,0,0,3,,,,,,,,2,,,50,64
14400,note_on,0,0,3,,,,,,,,2,,,54,64
14400,note_on,60,0,1,,,,,,,,0,,,67,0
14400,note_on,0,0,1,,,,,,,,0,,,67,77
14400,note_on,60,0,2,,,,,,,,1,,,62,60
14400,note_on,0,0,2,,,,,,,,1,,,66,60
14430,note_on,0,0,1,,,,,,,,0,,,66,77
14430,note_on,30,0,1,,,,,,,,0,,,67,0
14460,note_on,0,0,2,,,,,,,,1,,,62,0
14460,note_on,0,0,1,,,,,,,,0,,,69,78
14460,note_on,30,0,1,,,,,,,,0,,,66,0
14460,note_on,0,0,3,,,,,,,,2,,,57,66
14460,note_on,0,0,3,,,,,,,,2,,,50,0
14460,note_on,60,0,3,,,,,,,,2,,,54,0
14460,note_on,60,0,2,,,,,,,,1,,,66,0
14490,note_on,0,0,1,,,,,,,,0,,,67,79
14490,note_on,30,0,1,,,,,,,,0,,,69,0
14520,note_on,0,0,2,,,,,,,,1,,,66,67
14520,note_on,0,0,3,,,,,,,,2,,,54,71
14520,note_on,0,0,1,,,,,,,,0,,,66,80
14520,note_on,30,0,1,,,,,,,,0,,,67,0
14520,note_on,60,0,3,,,,,,,,2,,,57,0
14520,note_on,0,0,3,,,,,,,,2,,,50,71
14520,note_on,60,0,2,,,,,,,,1,,,62,67
14580,note_on,0,0,3,,,,,,,,2,,,56,78
14580,note_on,0,0,3,,,,,,,,2,,,52,78
14580,note_on,0,0,2,,,,,,,,1,,,68,71
14580,note_on,0,0,3,,,,,,,,2,,,50,0
14580,note_on,60,0,2,,,,,,,,1,,,66,0
14580,note_on,0,0,2,,,,,,,,1,,,64,71
14580,note_on,0,0,2,,,,,,,,1,,,62,0
14580,note_on,60,0,1,,,,,,,,0,,,66,0
14580,note_on,60,0,3,,,,,,,,2,,,54,0
14580,note_on,0,0,1,,,,,,,,0,,,68,83
14640,note_on,0,0,2,,,,,,,,1,,,66,77
14640,note_on,0,0,2,,,,,,,,1,,,64,0
14640,note_on,0,0,2,,,,,,,,1,,,69,77
14640,note_on,60,0,2,,,,,,,,1,,,68,0
14640,note_on,60,0,1,,,,,,,,0,,,68,0
14640,note_on,60,0,3,,,,,,,,2,,,56,0
14640,note_on,0,0,3,,,,,,,,2,,,52,0
14640,note_on,0,0,3,,,,,,,,2,,,54,84
14640,note_on,0,0,3,,,,,,,,2,,,57,84
14640,note_on,0,0,1,,,,,,,,0,,,69,86
14700,note_on,0,0,2,,,,,,,,1,,,66,0
14700,note_on,60,0,3,,,,,,,,2,,,57,0
14700,note_on,0,0,3,,,,,,,,2,,,54,0
14700,note_on,0,0,3,,,,,,,,2,,,56,90
14700,note_on,0,0,3,,,,,,,,2,,,59,90
14700,note_on,0,0,1,,,,,,,,0,,,71,90
14700,note_on,60,0,2,,,,,,,,1,,,69,0
14700,note_on,0,0,2,,,,,,,,1,,,68,83
14700,note_on,0,0,2,,,,,,,,1,,,71,83
14700,note_on,60,0,1,,,,,,,,0,,,69,0
14760,note_on,0,0,2,,,,,,,,1,,,69,91
14760,note_on,0,0,2,,,,,,,,1,,,68,0
14760,note_on,60,0,2,,,,,,,,1,,,71,0
14760,note_on,60,0,3,,,,,,,,2,,,59,0
14760,note_on,0,0,3,,,,,,,,2,,,56,0
14760,note_on,0,0,3,,,,,,,,2,,,57,95
14760,note_on,0,0,3,,,,,,,,2,,,61,95
14760,note_on,60,0,1,,,,,,,,0,,,71,0
14760,note_on,0,0,1,,,,,,,,0,,,73,96
14760,note_on,0,0,2,,,,,,,,1,,,73,91
14820,note_on,60,0,3,,,,,,,,2,,,61,0
14820,note_on,0,0,3,,,,,,,,2,,,57,0
14820,note_on,0,0,3,,,,,,,,2,,,62,102
14820,note_on,0,0,2,,,,,,,,1,,,74,104
14820,note_on,60,0,1,,,,,,,,0,,,73,0
14820,note_on,0,0,2,,,,,,,,1,,,71,104
14820,note_on,0,0,2,,,,,,,,1,,,69,0
14820,note_on,60,0,2,,,,,,,,1,,,73,0
14820,note_on,0,0,3,,,,,,,,2,,,59,102
14820,note_on,0,0,1,,,,,,,,0,,,74,99
14880,note_on,60,0,2,,,,,,,,1,,,74,0
14880,note_on,0,0,2,,,,,,,,1,,,71,0
14880,note_on,0,0,2,,,,,,,,1,,,73,100
14880,note_on,0,0,2,,,,,,,,1,,,76,100
14880,note_on,0,0,1,,,,,,,,0,,,76,102
14880,note_on,60,0,3,,,,,,,,2,,,59,0
14880,note_on,0,0,3,,,,,,,,2,,,62,0
14880,note_on,0,0,3,,,,,,,,2,,,64,108
14880,note_on,0,0,3,,,,,,,,2,,,61,108
14880,note_on,0,0,3,,,,,,,,2,,,57,108
14880,note_on,60,0,1,,,,,,,,0,,,74,0
14940,note_on,0,0,2,,,,,,,,1,,,73,100
14940,note_on,0,0,2,,,,,,,,1,,,76,100
14940,note_on,0,0,2,,,,,,,,1,,,73,0
14940,note_on,60,0,2,,,,,,,,1,,,76,0
15000,note_on,0,0,2,,,,,,,,1,,,76,100
15000,note_on,0,0,2,,,,,,,,1,,,73,100
15000,note_on,0,0,2,,,,,,,,1,,,73,0
15000,note_on,60,0,2,,,,,,,,1,,,76,0
15060,note_on,0,0,2,,,,,,,,1,,,73,0
15060,note_on,60,0,2,,,,,,,,1,,,76,0
15060,note_on,0,0,2,,,,,,,,1,,,73,100
15060,note_on,0,0,2,,,,,,,,1,,,76,100
15120,note_on,60,0,2,,,,,,,,1,,,76,0
15120,note_on,0,0,2,,,,,,,,1,,,73,0
15120,note_on,0,0,2,,,,,,,,1,,,73,100
15120,note_on,0,0,2,,,,,,,,1,,,76,100
15180,note_on,60,0,2,,,,,,,,1,,,76,0
15180,note_on,0,0,2,,,,,,,,1,,,76,80
15180,note_on,0,0,2,,,,,,,,1,,,73,80
15180,note_on,0,0,2,,,,,,,,1,,,73,0
15240,note_on,0,0,2,,,,,,,,1,,,71,70
15240,note_on,0,0,2,,,,,,,,1,,,73,0
15240,note_on,60,0,2,,,,,,,,1,,,76,0
15240,note_on,0,0,3,,,,,,,,2,,,62,60
15240,note_on,0,0,1,,,,,,,,0,,,74,86
15240,note_on,0,0,3,,,,,,,,2,,,59,60
15240,note_on,360,0,1,,,,,,,,0,,,76,0
15240,note_on,360,0,3,,,,,,,,2,,,57,0
15240,note_on,0,0,3,,,,,,,,2,,,61,0
15240,note_on,0,0,3,,,,,,,,2,,,64,0
15240,note_on,0,0,2,,,,,,,,1,,,74,70
15300,note_on,0,0,1,,,,,,,,0,,,73,80
15300,note_on,60,0,1,,,,,,,,0,,,74,0
15300,note_on,0,0,3,,,,,,,,2,,,57,60
15300,note_on,0,0,3,,,,,,,,2,,,61,60
15300,note_on,0,0,3,,,,,,,,2,,,62,0
15300,note_on,60,0,3,,,,,,,,2,,,59,0
15300,note_on,0,0,2,,,,,,,,1,,,73,60
15300,note_on,0,0,2,,,,,,,,1,,,69,60
15300,note_on,0,0,2,,,,,,,,1,,,71,0
15300,note_on,60,0,2,,,,,,,,1,,,74,0
15360,note_on,0,0,2,,,,,,,,1,,,62,60
15360,note_on,0,0,2,,,,,,,,1,,,69,0
15360,note_on,0,0,2,,,,,,,,1,,,71,60
15360,note_on,0,0,2,,,,,,,,1,,,66,60
15360,note_on,0,0,1,,,,,,,,0,,,71,77
15360,note_on,0,0,3,,,,,,,,2,,,59,60
15360,note_on,0,0,3,,,,,,,,2,,,50,60
15360,note_on,0,0,3,,,,,,,,2,,,61,0
15360,note_on,60,0,3,,,,,,,,2,,,57,0
15360,note_on,60,0,2,,,,,,,,1,,,73,0
15360,note_on,60,0,1,,,,,,,,0,,,73,0
15420,note_on,60,0,1,,,,,,,,0,,,71,0
15420,note_on,0,0,1,,,,,,,,0,,,73,72
15420,note_on,0,0,2,,,,,,,,1,,,71,60
15420,note_on,0,0,2,,,,,,,,1,,,62,0
15420,note_on,60,0,3,,,,,,,,2,,,59,0
15420,note_on,0,0,3,,,,,,,,2,,,50,0
15420,note_on,0,0,2,,,,,,,,1,,,66,60
15420,note_on,60,0,2,,,,,,,,1,,,66,0
15420,note_on,0,0,2,,,,,,,,1,,,71,0
15420,note_on,0,0,2,,,,,,,,1,,,62,60
15480,note_on,60,0,2,,,,,,,,1,,,66,0
15480,note_on,0,0,2,,,,,,,,1,,,62,0
15480,note_on,0,0,2,,,,,,,,1,,,71,0
15480,note_on,0,0,2,,,,,,,,1,,,71,60
15480,note_on,0,0,2,,,,,,,,1,,,66,60
15480,note_on,60,0,1,,,,,,,,0,,,73,0
15480,note_on,0,0,3,,,,,,,,2,,,59,60
15480,note_on,60,0,3,,,,,,,,2,,,50,60
15480,note_on,0,0,1,,,,,,,,0,,,74,68
15480,note_on,0,0,2,,,,,,,,1,,,62,60
15540,note_on,0,0,1,,,,,,,,0,,,71,62
15540,note_on,0,0,3,,,,,,,,2,,,50,0
15540,note_on,60,0,3,,,,,,,,2,,,59,0
15540,note_on,60,0,1,,,,,,,,0,,,74,0
15540,note_on,0,0,2,,,,,,,,1,,,71,60
15540,note_on,0,0,2,,,,,,,,1,,,66,60
15540,note_on,60,0,2,,,,,,,,1,,,66,0
15540,note_on,0,0,2,,,,,,,,1,,,71,0
15540,note_on,0,0,2,,,,,,,,1,,,62,0
15540,note_on,0,0,2,,,,,,,,1,,,62,60
15570,note_on,30,0,1,,,,,,,,0,,,71,0
15570,note_on,0,0,1,,,,,,,,0,,,73,60
15600,note_on,60,0,2,,,,,,,,1,,,66,0
15600,note_on,0,0,2,,,,,,,,1,,,61,60
15600,note_on,0,0,1,,,,,,,,0,,,69,59
15600,note_on,0,0,2,,,,,,,,1,,,64,60
15600,note_on,0,0,3,,,,,,,,2,,,57,60
15600,note_on,0,0,2,,,,,,,,1,,,62,0
15600,note_on,0,0,2,,,,,,,,1,,,71,0
15600,note_on,0,0,2,,,,,,,,1,,,69,60
15600,note_on,30,0,1,,,,,,,,0,,,73,0
15600,note_on,60,0,3,,,,,,,,2,,,52,60
15660,note_on,60,0,3,,,,,,,,2,,,57,0
15660,note_on,0,0,3,,,,,,,,2,,,52,0
15660,note_on,0,0,2,,,,,,,,1,,,64,0
15660,note_on,0,0,2,,,,,,,,1,,,61,60
15660,note_on,0,0,2,,,,,,,,1,,,64,60
15660,note_on,0,0,2,,,,,,,,1,,,69,60
15660,note_on,0,0,2,,,,,,,,1,,,61,0
15660,note_on,60,0,2,,,,,,,,1,,,69,0
15720,note_on,120,0,1,,,,,,,,0,,,69,0
15720,note_on,0,0,3,,,,,,,,2,,,59,60
15720,note_on,0,0,1,,,,,,,,0,,,71,60
15720,note_on,60,0,3,,,,,,,,2,,,52,60
15720,note_on,0,0,3,,,,,,,,2,,,56,60
15720,note_on,60,0,2,,,,,,,,1,,,61,0
15720,note_on,0,0,2,,,,,,,,1,,,64,0
15720,note_on,0,0,2,,,,,,,,1,,,69,0
15720,note_on,0,0,2,,,,,,,,1,,,71,60
15720,note_on,0,0,2,,,,,,,,1,,,62,60
15720,note_on,0,0,2,,,,,,,,1,,,64,60
15780,note_on,0,0,3,,,,,,,,2,,,52,0
15780,note_on,0,0,3,,,,,,,,2,,,56,0
15780,note_on,0,0,2,,,,,,,,1,,,62,60
15780,note_on,0,0,2,,,,,,,,1,,,71,60
15780,note_on,0,0,2,,,,,,,,1,,,71,0
15780,note_on,0,0,2,,,,,,,,1,,,64,60
15780,note_on,60,0,2,,,,,,,,1,,,64,0
15780,note_on,60,0,3,,,,,,,,2,,,59,0
15780,note_on,0,0,2,,,,,,,,1,,,62,0
15840,note_on,0,0,3,,,,,,,,2,,,45,60
15840,note_on,60,0,3,,,,,,,,2,,,49,60
15840,note_on,120,0,1,,,,,,,,0,,,71,0
15840,note_on,0,0,2,,,,,,,,1,,,69,60
15840,note_on,0,0,1,,,,,,,,0,,,69,56
15840,note_on,0,0,2,,,,,,,,1,,,62,0
15840,note_on,60,0,2,,,,,,,,1,,,64,0
15840,note_on,0,0,2,,,,,,,,1,,,71,0
15900,note_on,60,0,2,,,,,,,,1,,,69,0
15900,note_on,0,0,2,,,,,,,,1,,,76,60
15900,note_on,60,0,3,,,,,,,,2,,,45,0
15900,note_on,0,0,3,,,,,,,,2,,,49,0
15900,note_on,0,0,3,,,,,,,,2,,,57,60
15960,note_on,0,0,3,,,,,,,,2,,,50,60
15960,note_on,120,0,1,,,,,,,,0,,,69,0
15960,note_on,60,0,3,,,,,,,,2,,,57,0
15960,note_on,0,0,3,,,,,,,,2,,,47,60
16020,note_on,0,0,3,,,,,,,,2,,,57,60
16020,note_on,60,0,3,,,,,,,,2,,,50,0
16020,note_on,0,0,2,,,,,,,,1,,,74,60
16020,note_on,0,0,3,,,,,,,,2,,,47,0
16020,note_on,120,0,2,,,,,,,,1,,,76,0
16080,note_on,0,0,3,,,,,,,,2,,,50,60
16080,note_on,0,0,2,,,,,,,,1,,,73,60
16080,note_on,60,0,2,,,,,,,,1,,,74,0
16080,note_on,0,0,3,,,,,,,,2,,,47,60
16080,note_on,60,0,3,,,,,,,,2,,,57,0
16140,note_on,60,0,2,,,,,,,,1,,,73,0
16140,note_on,0,0,2,,,,,,,,1,,,71,60
16140,note_on,0,0,3,,,,,,,,2,,,57,60
16140,note_on,60,0,3,,,,,,,,2,,,50,0
16140,note_on,0,0,3,,,,,,,,2,,,47,0
16200,note_on,0,0,2,,,,,,,,1,,,69,60
16200,note_on,60,0,2,,,,,,,,1,,,71,0
16200,note_on,0,0,3,,,,,,,,2,,,47,60
16200,note_on,60,0,3,,,,,,,,2,,,57,0
16200,note_on,0,0,3,,,,,,,,2,,,50,60
16260,note_on,60,0,2,,,,,,,,1,,,69,0
16260,note_on,0,0,2,,,,,,,,1,,,68,60
16260,note_on,60,0,3,,,,,,,,2,,,50,0
16260,note_on,0,0,3,,,,,,,,2,,,57,60
16260,note_on,0,0,3,,,,,,,,2,,,47,0
16320,note_on,0,0,2,,,,,,,,1,,,67,60
16320,note_on,60,0,2,,,,,,,,1,,,68,0
16320,note_on,60,0,3,,,,,,,,2,,,57,0
16320,note_on,0,0,3,,,,,,,,2,,,49,60
16320,note_on,0,0,3,,,,,,,,2,,,52,60
16380,note_on,0,0,3,,,,,,,,2,,,49,0
16380,note_on,0,0,3,,,,,,,,2,,,57,60
16380,note_on,60,0,3,,,,,,,,2,,,52,0
16440,note_on,0,0,2,,,,,,,,1,,,66,60
16440,note_on,120,0,2,,,,,,,,1,,,67,0
16440,note_on,60,0,3,,,,,,,,2,,,57,0
16440,note_on,0,0,3,,,,,,,,2,,,49,60
16440,note_on,0,0,3,,,,,,,,2,,,52,60
16470,note_on,30,0,2,,,,,,,,1,,,66,0
16470,note_on,0,0,2,,,,,,,,1,,,67,60
16500,note_on,60,0,3,,,,,,,,2,,,52,0
16500,note_on,0,0,2,,,,,,,,1,,,66,60
16500,note_on,0,0,3,,,,,,,,2,,,49,0
16500,note_on,0,0,3,,,,,,,,2,,,57,60
16500,note_on,30,0,2,,,,,,,,1,,,67,0
16530,note_on,30,0,2,,,,,,,,1,,,66,0
16530,note_on,0,0,2,,,,,,,,1,,,67,60
16560,note_on,0,0,3,,,,,,,,2,,,52,60
16560,note_on,60,0,3,,,,,,,,2,,,57,0
16560,note_on,30,0,2,,,,,,,,1,,,67,0
16560,note_on,0,0,2,,,,,,,,1,,,67,62
16560,note_on,0,0,3,,,,,,,,2,,,49,60
16590,note_on,30,0,2,,,,,,,,1,,,67,0
16590,note_on,0,0,2,,,,,,,,1,,,69,62
16620,note_on,0,0,3,,,,,,,,2,,,52,0
16620,note_on,60,0,3,,,,,,,,2,,,49,0
16620,note_on,0,0,2,,,,,,,,1,,,67,72
16620,note_on,30,0,2,,,,,,,,1,,,69,0
16620,note_on,0,0,3,,,,,,,,2,,,57,60
16640,note_on,20,0,2,,,,,,,,1,,,67,0
16640,note_on,0,0,2,,,,,,,,1,,,66,72
16660,note_on,20,0,2,,,,,,,,1,,,66,0
16660,note_on,0,0,2,,,,,,,,1,,,67,62
16680,note_on,60,0,3,,,,,,,,2,,,57,0
16680,note_on,0,0,3,,,,,,,,2,,,52,60
16680,note_on,20,0,2,,,,,,,,1,,,67,0
16680,note_on,0,0,2,,,,,,,,1,,,71,60
16680,note_on,0,0,3,,,,,,,,2,,,49,60
16740,note_on,60,0,3,,,,,,,,2,,,49,0
16740,note_on,0,0,2,,,,,,,,1,,,67,60
16740,note_on,0,0,3,,,,,,,,2,,,57,60
16740,note_on,0,0,3,,,,,,,,2,,,52,0
16740,note_on,60,0,2,,,,,,,,1,,,71,0
16800,note_on,0,0,3,,,,,,,,2,,,50,60
16800,note_on,60,0,3,,,,,,,,2,,,57,0
16800,note_on,0,0,3,,,,,,,,2,,,54,60
16800,note_on,0,0,2,,,,,,,,1,,,66,60
16800,note_on,60,0,2,,,,,,,,1,,,67,0
16800,note_on,840,0,1,,,,,,,,0,,,69,60
16860,note_on,0,0,3,,,,,,,,2,,,57,60
16860,note_on,60,0,1,,,,,,,,0,,,69,0
16860,note_on,0,0,1,,,,,,,,0,,,74,63
16860,note_on,60,0,3,,,,,,,,2,,,54,0
16860,note_on,0,0,3,,,,,,,,2,,,50,0
16920,note_on,60,0,3,,,,,,,,2,,,57,0
16920,note_on,0,0,3,,,,,,,,2,,,50,60
16920,note_on,0,0,3,,,,,,,,2,,,54,60
16920,note_on,120,0,2,,,,,,,,1,,,66,0
16920,note_on,60,0,1,,,,,,,,0,,,74,0
16920,note_on,0,0,1,,,,,,,,0,,,74,65
16980,note_on,60,0,3,,,,,,,,2,,,54,0
16980,note_on,0,0,3,,,,,,,,2,,,50,0
16980,note_on,0,0,3,,,,,,,,2,,,57,60
16980,note_on,0,0,1,,,,,,,,0,,,74,63
16980,note_on,60,0,1,,,,,,,,0,,,74,0
17040,note_on,0,0,3,,,,,,,,2,,,54,60
17040,note_on,0,0,1,,,,,,,,0,,,78,62
17040,note_on,60,0,1,,,,,,,,0,,,74,0
17040,note_on,0,0,2,,,,,,,,1,,,74,60
17040,note_on,120,0,2,,,,,,,,1,,,78,60
17040,note_on,0,0,3,,,,,,,,2,,,50,60
17040,note_on,60,0,3,,,,,,,,2,,,57,0
17040,note_on,0,0,2,,,,,,,,1,,,69,60
17100,note_on,0,0,2,,,,,,,,1,,,74,0
17100,note_on,0,0,2,,,,,,,,1,,,78,0
17100,note_on,60,0,1,,,,,,,,0,,,78,0
17100,note_on,0,0,1,,,,,,,,0,,,74,62
17100,note_on,60,0,2,,,,,,,,1,,,69,0
17100,note_on,60,0,3,,,,,,,,2,,,54,0
17100,note_on,0,0,3,,,,,,,,2,,,50,0
17100,note_on,0,0,3,,,,,,,,2,,,57,60
17160,note_on,0,0,3,,,,,,,,2,,,54,60
17160,note_on,0,0,1,,,,,,,,0,,,69,62
17160,note_on,60,0,1,,,,,,,,0,,,74,0
17160,note_on,60,0,3,,,,,,,,2,,,57,0
17160,note_on,0,0,3,,,,,,,,2,,,50,60
17220,note_on,0,0,1,,,,,,,,0,,,66,61
17220,note_on,60,0,1,,,,,,,,0,,,69,0
17220,note_on,60,0,3,,,,,,,,2,,,54,0
17220,note_on,0,0,3,,,,,,,,2,,,50,0
17220,note_on,0,0,3,,,,,,,,2,,,57,60
17280,note_on,180,0,2,,,,,,,,1,,,69,60
17280,note_on,60,0,1,,,,,,,,0,,,66,0
17280,note_on,0,0,3,,,,,,,,2,,,49,60
17280,note_on,60,0,3,,,,,,,,2,,,57,0
17280,note_on,0,0,3,,,,,,,,2,,,52,60
17280,note_on,0,0,1,,,,,,,,0,,,69,59
17295,note_on,15,0,2,,,,,,,,1,,,69,0
17295,note_on,0,0,2,,,,,,,,1,,,67,60
17310,note_on,15,0,2,,,,,,,,1,,,67,0
17310,note_on,0,0,2,,,,,,,,1,,,69,60
17325,note_on,15,0,2,,,,,,,,1,,,69,0
17325,note_on,0,0,2,,,,,,,,1,,,67,60
17340,note_on,60,0,1,,,,,,,,0,,,69,0
17340,note_on,60,0,3,,,,,,,,2,,,52,0
17340,note_on,0,0,3,,,,,,,,2,,,49,0
17340,note_on,15,0,2,,,,,,,,1,,,67,0
17340,note_on,0,0,2,,,,,,,,1,,,69,60
17340,note_on,0,0,1,,,,,,,,0,,,67,58
17340,note_on,0,0,3,,,,,,,,2,,,57,60
17370,note_on,0,0,2,,,,,,,,1,,,71,60
17370,note_on,30,0,2,,,,,,,,1,,,69,0
17400,note_on,0,0,1,,,,,,,,0,,,67,57
17400,note_on,60,0,1,,,,,,,,0,,,67,0
17400,note_on,0,0,2,,,,,,,,1,,,73,60
17400,note_on,30,0,2,,,,,,,,1,,,71,0
17400,note_on,60,0,3,,,,,,,,2,,,57,0
17400,note_on,0,0,3,,,,,,,,2,,,49,60
17400,note_on,0,0,3,,,,,,,,2,,,52,60
17430,note_on,30,0,2,,,,,,,,1,,,73,0
17430,note_on,0,0,2,,,,,,,,1,,,74,60
17460,note_on,0,0,2,,,,,,,,1,,,76,60
17460,note_on,30,0,2,,,,,,,,1,,,74,0
17460,note_on,60,0,3,,,,,,,,2,,,52,0
17460,note_on,0,0,3,,,,,,,,2,,,49,0
17460,note_on,0,0,3,,,,,,,,2,,,57,60
17490,note_on,0,0,2,,,,,,,,1,,,78,60
17490,note_on,30,0,2,,,,,,,,1,,,76,0
17520,note_on,60,0,3,,,,,,,,2,,,57,0
17520,note_on,0,0,3,,,,,,,,2,,,52,60
17520,note_on,0,0,1,,,,,,,,0,,,69,53
17520,note_on,120,0,1,,,,,,,,0,,,67,0
17520,note_on,0,0,3,,,,,,,,2,,,49,60
17520,note_on,0,0,2,,,,,,,,1,,,79,60
17520,note_on,30,0,2,,,,,,,,1,,,78,0
17550,note_on,30,0,2,,,,,,,,1,,,79,0
17550,note_on,0,0,2,,,,,,,,1,,,78,60
17580,note_on,0,0,3,,,,,,,,2,,,57,60
17580,note_on,60,0,3,,,,,,,,2,,,49,0
17580,note_on,30,0,2,,,,,,,,1,,,78,0
17580,note_on,0,0,2,,,,,,,,1,,,76,60
17580,note_on,0,0,3,,,,,,,,2,,,52,0
17610,note_on,30,0,2,,,,,,,,1,,,76,0
17610,note_on,0,0,2,,,,,,,,1,,,74,60
17640,note_on,30,0,2,,,,,,,,1,,,74,0
17640,note_on,0,0,2,,,,,,,,1,,,73,60
17640,note_on,0,0,3,,,,,,,,2,,,49,60
17640,note_on,0,0,3,,,,,,,,2,,,52,60
17640,note_on,60,0,3,,,,,,,,2,,,57,0
17670,note_on,0,0,2,,,,,,,,1,,,71,60
17670,note_on,30,0,2,,,,,,,,1,,,73,0
17700,note_on,0,0,3,,,,,,,,2,,,57,60
17700,note_on,0,0,3,,,,,,,,2,,,52,0
17700,note_on,60,0,3,,,,,,,,2,,,49,0
17700,note_on,0,0,2,,,,,,,,1,,,69,60
17700,note_on,30,0,2,,,,,,,,1,,,71,0
17700,note_on,180,0,1,,,,,,,,0,,,69,0
17700,note_on,0,0,1,,,,,,,,0,,,69,60
17730,note_on,30,0,2,,,,,,,,1,,,69,0
17730,note_on,0,0,2,,,,,,,,1,,,67,60
17760,note_on,60,0,1,,,,,,,,0,,,69,0
17760,note_on,0,0,1,,,,,,,,0,,,69,57
17760,note_on,30,0,2,,,,,,,,1,,,67,0
17760,note_on,0,0,2,,,,,,,,1,,,66,60
17760,note_on,60,0,3,,,,,,,,2,,,57,0
17760,note_on,0,0,3,,,,,,,,2,,,50,60
17760,note_on,0,0,3,,,,,,,,2,,,54,60
17820,note_on,60,0,3,,,,,,,,2,,,54,0
17820,note_on,0,0,1,,,,,,,,0,,,74,58
17820,note_on,60,0,1,,,,,,,,0,,,69,0
17820,note_on,0,0,3,,,,,,,,2,,,50,0
17820,note_on,60,0,2,,,,,,,,1,,,66,0
17820,note_on,0,0,3,,,,,,,,2,,,57,60
17880,note_on,60,0,3,,,,,,,,2,,,57,0
17880,note_on,0,0,3,,,,,,,,2,,,50,60
17880,note_on,0,0,3,,,,,,,,2,,,54,60
17880,note_on,60,0,2,,,,,,,,1,,,74,60
17880,note_on,60,0,1,,,,,,,,0,,,74,0
17880,note_on,0,0,1,,,,,,,,0,,,74,59
17880,note_on,0,0,2,,,,,,,,1,,,66,60
17940,note_on,0,0,3,,,,,,,,2,,,57,60
17940,note_on,0,0,1,,,,,,,,0,,,74,59
17940,note_on,0,0,3,,,,,,,,2,,,50,0
17940,note_on,60,0,2,,,,,,,,1,,,66,0
17940,note_on,0,0,2,,,,,,,,1,,,74,0
17940,note_on,60,0,1,,,,,,,,0,,,74,0
17940,note_on,60,0,3,,,,,,,,2,,,54,0
18000,note_on,60,0,2,,,,,,,,1,,,66,60
18000,note_on,60,0,3,,,,,,,,2,,,57,0
18000,note_on,0,0,2,,,,,,,,1,,,74,60
18000,note_on,0,0,1,,,,,,,,0,,,74,59
18000,note_on,0,0,3,,,,,,,,2,,,54,60
18000,note_on,0,0,3,,,,,,,,2,,,50,60
18000,note_on,60,0,1,,,,,,,,0,,,74,0
18060,note_on,0,0,3,,,,,,,,2,,,59,60
18060,note_on,0,0,3,,,,,,,,2,,,54,0
18060,note_on,60,0,3,,,,,,,,2,,,50,0
18060,note_on,0,0,2,,,,,,,,1,,,66,0
18060,note_on,60,0,1,,,,,,,,0,,,74,0
18060,note_on,0,0,1,,,,,,,,0,,,73,60
18060,note_on,60,0,2,,,,,,,,1,,,74,0
18120,note_on,60,0,3,,,,,,,,2,,,59,0
18120,note_on,60,0,2,,,,,,,,1,,,71,60
18120,note_on,0,0,2,,,,,,,,1,,,66,60
18120,note_on,0,0,3,,,,,,,,2,,,50,60
18120,note_on,60,0,1,,,,,,,,0,,,73,0
18120,note_on,0,0,3,,,,,,,,2,,,54,60
18120,note_on,0,0,1,,,,,,,,0,,,71,60
18160,note_on,0,0,1,,,,,,,,0,,,73,59
18160,note_on,40,0,1,,,,,,,,0,,,71,0
18180,note_on,60,0,2,,,,,,,,1,,,66,0
18180,note_on,0,0,2,,,,,,,,1,,,71,0
18180,note_on,60,0,3,,,,,,,,2,,,50,0
18180,note_on,0,0,3,,,,,,,,2,,,54,0
18180,note_on,0,0,3,,,,,,,,2,,,59,60
18200,note_on,0,0,1,,,,,,,,0,,,69,59
18200,note_on,40,0,1,,,,,,,,0,,,73,0
18240,note_on,60,0,3,,,,,,,,2,,,59,0
18240,note_on,0,0,3,,,,,,,,2,,,56,60
18240,note_on,0,0,2,,,,,,,,1,,,64,60
18240,note_on,60,0,2,,,,,,,,1,,,68,60
18240,note_on,0,0,3,,,,,,,,2,,,52,60
18240,note_on,0,0,1,,,,,,,,0,,,69,59
18240,note_on,40,0,1,,,,,,,,0,,,69,0
18270,note_on,0,0,1,,,,,,,,0,,,68,60
18270,note_on,30,0,1,,,,,,,,0,,,69,0
18300,note_on,30,0,1,,,,,,,,0,,,68,0
18300,note_on,0,0,1,,,,,,,,0,,,71,60
18300,note_on,0,0,3,,,,,,,,2,,,52,0
18300,note_on,60,0,3,,,,,,,,2,,,56,0
18300,note_on,0,0,3,,,,,,,,2,,,59,60
18300,note_on,60,0,2,,,,,,,,1,,,64,0
18300,note_on,0,0,2,,,,,,,,1,,,68,0
18330,note_on,0,0,1,,,,,,,,0,,,69,61
18330,note_on,30,0,1,,,,,,,,0,,,71,0
18360,note_on,30,0,1,,,,,,,,0,,,69,0
18360,note_on,60,0,2,,,,,,,,1,,,68,62
18360,note_on,0,0,2,,,,,,,,1,,,64,62
18360,note_on,0,0,1,,,,,,,,0,,,68,62
18360,note_on,60,0,3,,,,,,,,2,,,59,0
18360,note_on,0,0,3,,,,,,,,2,,,52,60
18360,note_on,0,0,3,,,,,,,,2,,,56,60
18420,note_on,0,0,1,,,,,,,,0,,,68,65
18420,note_on,0,0,2,,,,,,,,1,,,64,64
18420,note_on,0,0,2,,,,,,,,1,,,68,64
18420,note_on,0,0,3,,,,,,,,2,,,56,60
18420,note_on,60,0,3,,,,,,,,2,,,56,0
18420,note_on,0,0,3,,,,,,,,2,,,52,0
18420,note_on,0,0,2,,,,,,,,1,,,68,0
18420,note_on,60,0,2,,,,,,,,1,,,64,0
18420,note_on,0,0,3,,,,,,,,2,,,52,60
18420,note_on,60,0,1,,,,,,,,0,,,68,0
18480,note_on,60,0,2,,,,,,,,1,,,64,0
18480,note_on,0,0,2,,,,,,,,1,,,68,0
18480,note_on,0,0,2,,,,,,,,1,,,69,75
18480,note_on,0,0,2,,,,,,,,1,,,66,75
18480,note_on,0,0,3,,,,,,,,2,,,54,60
18480,note_on,0,0,1,,,,,,,,0,,,69,68
18480,note_on,60,0,3,,,,,,,,2,,,56,0
18480,note_on,0,0,3,,,,,,,,2,,,52,0
18480,note_on,0,0,3,,,,,,,,2,,,57,60
18480,note_on,60,0,1,,,,,,,,0,,,68,0
18540,note_on,0,0,1,,,,,,,,0,,,71,74
18540,note_on,0,0,2,,,,,,,,1,,,68,84
18540,note_on,0,0,2,,,,,,,,1,,,71,84
18540,note_on,0,0,2,,,,,,,,1,,,69,0
18540,note_on,60,0,2,,,,,,,,1,,,66,0
18540,note_on,60,0,3,,,,,,,,2,,,57,0
18540,note_on,60,0,1,,,,,,,,0,,,69,0
18540,note_on,0,0,3,,,,,,,,2,,,56,60
18540,note_on,0,0,3,,,,,,,,2,,,59,60
18540,note_on,0,0,3,,,,,,,,2,,,54,0
18600,note_on,0,0,3,,,,,,,,2,,,61,60
18600,note_on,60,0,2,,,,,,,,1,,,68,0
18600,note_on,0,0,2,,,,,,,,1,,,71,0
18600,note_on,0,0,2,,,,,,,,1,,,69,89
18600,note_on,0,0,2,,,,,,,,1,,,73,89
18600,note_on,60,0,1,,,,,,,,0,,,71,0
18600,note_on,0,0,3,,,,,,,,2,,,59,0
18600,note_on,0,0,1,,,,,,,,0,,,73,80
18600,note_on,60,0,3,,,,,,,,2,,,56,0
18600,note_on,0,0,3,,,,,,,,2,,,57,60
18660,note_on,0,0,1,,,,,,,,0,,,74,84
18660,note_on,0,0,2,,,,,,,,1,,,71,95
18660,note_on,0,0,2,,,,,,,,1,,,74,95
18660,note_on,0,0,2,,,,,,,,1,,,69,0
18660,note_on,60,0,2,,,,,,,,1,,,73,0
18660,note_on,60,0,3,,,,,,,,2,,,57,0
18660,note_on,0,0,3,,,,,,,,2,,,62,60
18660,note_on,0,0,3,,,,,,,,2,,,59,60
18660,note_on,0,0,3,,,,,,,,2,,,61,0
18660,note_on,60,0,1,,,,,,,,0,,,73,0
18720,note_on,0,0,2,,,,,,,,1,,,76,100
18720,note_on,0,0,2,,,,,,,,1,,,73,100
18720,note_on,0,0,2,,,,,,,,1,,,74,0
18720,note_on,60,0,2,,,,,,,,1,,,71,0
18720,note_on,60,0,3,,,,,,,,2,,,59,0
18720,note_on,0,0,1,,,,,,,,0,,,76,94
18720,note_on,0,0,3,,,,,,,,2,,,62,0
18720,note_on,0,0,3,,,,,,,,2,,,57,110
18720,note_on,0,0,3,,,,,,,,2,,,61,110
18720,note_on,60,0,1,,,,,,,,0,,,74,0
18720,note_on,0,0,3,,,,,,,,2,,,64,110
18780,note_on,0,0,2,,,,,,,,1,,,73,105
18780,note_on,60,0,2,,,,,,,,1,,,76,0
18780,note_on,0,0,2,,,,,,,,1,,,73,0
18780,note_on,0,0,2,,,,,,,,1,,,76,105
18840,note_on,0,0,2,,,,,,,,1,,,73,0
18840,note_on,60,0,2,,,,,,,,1,,,76,0
18840,note_on,0,0,2,,,,,,,,1,,,73,108
18840,note_on,0,0,2,,,,,,,,1,,,76,108
18900,note_on,60,0,2,,,,,,,,1,,,76,0
18900,note_on,0,0,2,,,,,,,,1,,,73,0
18900,note_on,0,0,2,,,,,,,,1,,,73,110
18900,note_on,0,0,2,,,,,,,,1,,,76,110
18960,note_on,60,0,2,,,,,,,,1,,,76,0
18960,note_on,0,0,2,,,,,,,,1,,,73,0
18960,note_on,0,0,2,,,,,,,,1,,,73,110
18960,note_on,0,0,2,,,,,,,,1,,,76,110
19020,note_on,0,0,2,,,,,,,,1,,,73,110
19020,note_on,0,0,2,,,,,,,,1,,,73,0
19020,note_on,0,0,2,,,,,,,,1,,,76,110
19020,note_on,60,0,2,,,,,,,,1,,,76,0
19080,note_on,360,0,1,,,,,,,,0,,,76,0
19080,note_on,60,0,2,,,,,,,,1,,,76,0
19080,note_on,0,0,2,,,,,,,,1,,,73,0
19080,note_on,0,0,2,,,,,,,,1,,,71,110
19080,note_on,0,0,2,,,,,,,,1,,,74,110
19080,note_on,0,0,3,,,,,,,,2,,,62,110
19080,note_on,0,0,3,,,,,,,,2,,,59,110
19080,note_on,0,0,3,,,,,,,,2,,,64,0
19080,note_on,0,0,3,,,,,,,,2,,,61,0
19080,note_on,360,0,3,,,,,,,,2,,,57,0
19080,note_on,0,0,1,,,,,,,,0,,,74,83
19140,note_on,0,0,3,,,,,,,,2,,,57,110
19140,note_on,60,0,3,,,,,,,,2,,,62,0
19140,note_on,60,0,2,,,,,,,,1,,,74,0
19140,note_on,0,0,1,,,,,,,,0,,,73,82
19140,note_on,0,0,2,,,,,,,,1,,,73,110
19140,note_on,0,0,2,,,,,,,,1,,,69,110
19140,note_on,0,0,2,,,,,,,,1,,,71,0
19140,note_on,0,0,3,,,,,,,,2,,,59,0
19140,note_on,60,0,1,,,,,,,,0,,,74,0
19140,note_on,0,0,3,,,,,,,,2,,,61,110
19200,note_on,60,0,1,,,,,,,,0,,,73,0
19200,note_on,0,0,1,,,,,,,,0,,,78,82
19200,note_on,60,0,3,,,,,,,,2,,,57,0
19200,note_on,0,0,3,,,,,,,,2,,,61,0
19200,note_on,60,0,2,,,,,,,,1,,,73,0
19200,note_on,0,0,2,,,,,,,,1,,,69,0
19200,note_on,0,0,2,,,,,,,,1,,,62,110
19200,note_on,0,0,2,,,,,,,,1,,,66,110
19200,note_on,0,0,2,,,,,,,,1,,,69,110
19200,note_on,0,0,2,,,,,,,,1,,,74,110
19200,note_on,0,0,2,,,,,,,,1,,,78,110
19260,note_on,0,0,2,,,,,,,,1,,,69,0
19260,note_on,60,0,2,,,,,,,,1,,,78,0
19260,note_on,0,0,2,,,,,,,,1,,,78,110
19260,note_on,0,0,2,,,,,,,,1,,,62,0
19260,note_on,0,0,2,,,,,,,,1,,,74,0
19260,note_on,0,0,2,,,,,,,,1,,,69,110
19260,note_on,0,0,2,,,,,,,,1,,,74,110
19260,note_on,0,0,2,,,,,,,,1,,,66,0
19320,note_on,0,0,2,,,,,,,,1,,,78,110
19320,note_on,0,0,2,,,,,,,,1,,,74,110
19320,note_on,0,0,2,,,,,,,,1,,,69,110
19320,note_on,0,0,2,,,,,,,,1,,,66,110
19320,note_on,0,0,2,,,,,,,,1,,,62,110
19320,note_on,0,0,2,,,,,,,,1,,,69,0
19320,note_on,0,0,2,,,,,,,,1,,,74,0
19320,note_on,120,0,1,,,,,,,,0,,,78,0
19320,note_on,0,0,1,,,,,,,,0,,,78,81
19320,note_on,60,0,2,,,,,,,,1,,,78,0
19380,note_on,0,0,1,,,,,,,,0,,,78,81
19380,note_on,60,0,1,,,,,,,,0,,,78,0
19380,note_on,0,0,2,,,,,,,,1,,,62,0
19380,note_on,0,0,2,,,,,,,,1,,,74,110
19380,note_on,60,0,2,,,,,,,,1,,,78,0
19380,note_on,0,0,2,,,,,,,,1,,,69,0
19380,note_on,0,0,2,,,,,,,,1,,,66,0
19380,note_on,0,0,2,,,,,,,,1,,,74,0
19380,note_on,0,0,2,,,,,,,,1,,,69,110
19380,note_on,0,0,2,,,,,,,,1,,,78,110
19440,note_on,0,0,2,,,,,,,,1,,,62,110
19440,note_on,60,0,2,,,,,,,,1,,,78,0
19440,note_on,0,0,2,,,,,,,,1,,,69,110
19440,note_on,0,0,2,,,,,,,,1,,,74,110
19440,note_on,0,0,2,,,,,,,,1,,,66,110
19440,note_on,0,0,2,,,,,,,,1,,,69,0
19440,note_on,60,0,1,,,,,,,,0,,,78,0
19440,note_on,0,0,1,,,,,,,,0,,,78,81
19440,note_on,0,0,2,,,,,,,,1,,,78,110
19440,note_on,0,0,2,,,,,,,,1,,,74,0
19500,note_on,0,0,2,,,,,,,,1,,,69,110
19500,note_on,60,0,2,,,,,,,,1,,,78,0
19500,note_on,0,0,2,,,,,,,,1,,,69,0
19500,note_on,0,0,2,,,,,,,,1,,,62,0
19500,note_on,0,0,2,,,,,,,,1,,,78,110
19500,note_on,0,0,2,,,,,,,,1,,,74,110
19500,note_on,0,0,2,,,,,,,,1,,,74,0
19500,note_on,0,0,2,,,,,,,,1,,,66,0
19530,note_on,90,0,1,,,,,,,,0,,,78,0
19530,note_on,0,0,1,,,,,,,,0,,,80,82
19558,note_on,28,0,1,,,,,,,,0,,,80,0
19560,note_on,60,0,2,,,,,,,,1,,,78,0
19560,note_on,0,0,2,,,,,,,,1,,,66,110
19560,note_on,0,0,2,,,,,,,,1,,,74,110
19560,note_on,0,0,2,,,,,,,,1,,,78,110
19560,note_on,0,0,2,,,,,,,,1,,,74,0
19560,note_on,0,0,2,,,,,,,,1,,,62,110
19560,note_on,0,0,2,,,,,,,,1,,,69,0
19560,note_on,2,0,1,,,,,,,,0,,,78,83
19620,note_on,0,0,2,,,,,,,,1,,,73,110
19620,note_on,0,0,1,,,,,,,,0,,,76,86
19620,note_on,60,0,1,,,,,,,,0,,,78,0
19620,note_on,60,0,2,,,,,,,,1,,,78,0
19620,note_on,0,0,2,,,,,,,,1,,,62,0
19620,note_on,0,0,2,,,,,,,,1,,,66,0
19620,note_on,0,0,2,,,,,,,,1,,,74,0
19620,note_on,0,0,2,,,,,,,,1,,,76,110
19680,note_on,0,0,2,,,,,,,,1,,,64,110
19680,note_on,60,0,2,,,,,,,,1,,,76,0
19680,note_on,0,0,1,,,,,,,,0,,,76,89
19680,note_on,0,0,2,,,,,,,,1,,,73,0
19680,note_on,0,0,2,,,,,,,,1,,,73,110
19680,note_on,0,0,2,,,,,,,,1,,,76,110
19680,note_on,0,0,2,,,,,,,,1,,,57,110
19680,note_on,60,0,1,,,,,,,,0,,,76,0
19680,note_on,0,0,2,,,,,,,,1,,,61,110
19740,note_on,0,0,2,,,,,,,,1,,,73,110
19740,note_on,60,0,2,,,,,,,,1,,,64,0
19740,note_on,0,0,2,,,,,,,,1,,,57,0
19740,note_on,0,0,2,,,,,,,,1,,,73,0
19740,note_on,0,0,2,,,,,,,,1,,,76,0
19740,note_on,0,0,2,,,,,,,,1,,,76,110
19740,note_on,0,0,2,,,,,,,,1,,,61,0
19800,note_on,0,0,2,,,,,,,,1,,,64,110
19800,note_on,120,0,1,,,,,,,,0,,,76,0
19800,note_on,0,0,1,,,,,,,,0,,,76,101
19800,note_on,0,0,2,,,,,,,,1,,,61,110
19800,note_on,0,0,2,,,,,,,,1,,,57,110
19800,note_on,0,0,2,,,,,,,,1,,,76,110
19800,note_on,0,0,2,,,,,,,,1,,,73,110
19800,note_on,0,0,2,,,,,,,,1,,,73,0
19800,note_on,60,0,2,,,,,,,,1,,,76,0
19860,note_on,0,0,2,,,,,,,,1,,,76,110
19860,note_on,0,0,2,,,,,,,,1,,,73,110
19860,note_on,0,0,2,,,,,,,,1,,,61,0
19860,note_on,0,0,2,,,,,,,,1,,,76,0
19860,note_on,0,0,2,,,,,,,,1,,,73,0
19860,note_on,0,0,2,,,,,,,,1,,,57,0
19860,note_on,60,0,2,,,,,,,,1,,,64,0
19920,note_on,0,0,2,,,,,,,,1,,,76,109
19920,note_on,0,0,2,,,,,,,,1,,,73,109
19920,note_on,0,0,2,,,,,,,,1,,,57,109
19920,note_on,0,0,2,,,,,,,,1,,,61,109
19920,note_on,0,0,2,,,,,,,,1,,,64,109
19920,note_on,60,0,2,,,,,,,,1,,,76,0
19920,note_on,0,0,2,,,,,,,,1,,,73,0
19980,note_on,60,0,2,,,,,,,,1,,,64,0
19980,note_on,0,0,2,,,,,,,,1,,,57,0
19980,note_on,0,0,2,,,,,,,,1,,,73,0
19980,note_on,0,0,2,,,,,,,,1,,,76,0
19980,note_on,0,0,2,,,,,,,,1,,,61,0
19980,note_on,0,0,2,,,,,,,,1,,,73,104
19980,note_on,0,0,2,,,,,,,,1,,,76,104
20040,note_on,60,0,2,,,,,,,,1,,,76,0
20040,note_on,0,0,2,,,,,,,,1,,,73,0
20040,note_on,0,0,2,,,,,,,,1,,,71,91
20040,note_on,0,0,2,,,,,,,,1,,,74,91
20040,note_on,240,0,1,,,,,,,,0,,,76,0
20040,note_on,0,0,1,,,,,,,,0,,,74,67
20100,note_on,0,0,2,,,,,,,,1,,,71,0
20100,note_on,0,0,2,,,,,,,,1,,,73,84
20100,note_on,0,0,2,,,,,,,,1,,,69,84
20100,note_on,900,0,3,,,,,,,,2,,,61,81
20100,note_on,60,0,2,,,,,,,,1,,,74,0
20100,note_on,0,0,1,,,,,,,,0,,,73,65
20100,note_on,60,0,1,,,,,,,,0,,,74,0
20100,note_on,0,0,3,,,,,,,,2,,,57,81
20160,note_on,0,0,1,,,,,,,,0,,,73,65
20160,note_on,60,0,1,,,,,,,,0,,,73,0
20160,note_on,0,0,3,,,,,,,,2,,,59,80
20160,note_on,0,0,3,,,,,,,,2,,,52,80
20160,note_on,0,0,3,,,,,,,,2,,,61,0
20160,note_on,60,0,3,,,,,,,,2,,,57,0
20160,note_on,60,0,2,,,,,,,,1,,,73,0
20160,note_on,0,0,2,,,,,,,,1,,,69,0
20160,note_on,0,0,2,,,,,,,,1,,,62,80
20160,note_on,0,0,2,,,,,,,,1,,,68,80
20160,note_on,0,0,2,,,,,,,,1,,,71,80
20220,note_on,0,0,2,,,,,,,,1,,,62,77
20220,note_on,0,0,2,,,,,,,,1,,,62,0
20220,note_on,0,0,2,,,,,,,,1,,,68,0
20220,note_on,60,0,2,,,,,,,,1,,,71,0
20220,note_on,60,0,3,,,,,,,,2,,,59,0
20220,note_on,0,0,2,,,,,,,,1,,,71,77
20220,note_on,60,0,1,,,,,,,,0,,,73,0
20220,note_on,0,0,1,,,,,,,,0,,,71,64
20220,note_on,0,0,3,,,,,,,,2,,,52,0
20220,note_on,0,0,2,,,,,,,,1,,,68,77
20280,note_on,0,0,2,,,,,,,,1,,,71,77
20280,note_on,60,0,3,,,,,,,,2,,,40,77
20280,note_on,0,0,2,,,,,,,,1,,,68,77
20280,note_on,0,0,2,,,,,,,,1,,,71,0
20280,note_on,0,0,2,,,,,,,,1,,,62,0
20280,note_on,0,0,3,,,,,,,,2,,,52,77
20280,note_on,60,0,1,,,,,,,,0,,,71,0
20280,note_on,0,0,1,,,,,,,,0,,,71,63
20280,note_on,60,0,2,,,,,,,,1,,,68,0
20280,note_on,0,0,2,,,,,,,,1,,,62,77
20340,note_on,60,0,1,,,,,,,,0,,,71,0
20340,note_on,0,0,1,,,,,,,,0,,,71,62
20340,note_on,0,0,3,,,,,,,,2,,,40,0
20340,note_on,60,0,3,,,,,,,,2,,,52,0
20340,note_on,0,0,2,,,,,,,,1,,,71,76
20340,note_on,60,0,2,,,,,,,,1,,,71,0
20340,note_on,0,0,2,,,,,,,,1,,,68,0
20340,note_on,0,0,2,,,,,,,,1,,,62,0
20340,note_on,0,0,2,,,,,,,,1,,,68,76
20340,note_on,0,0,2,,,,,,,,1,,,62,76
20400,note_on,0,0,2,,,,,,,,1,,,68,0
20400,note_on,0,0,3,,,,,,,,2,,,52,75
20400,note_on,60,0,3,,,,,,,,2,,,40,75
20400,note_on,60,0,1,,,,,,,,0,,,71,0
20400,note_on,0,0,2,,,,,,,,1,,,62,0
20400,note_on,0,0,2,,,,,,,,1,,,62,76
20400,note_on,0,0,2,,,,,,,,1,,,71,76
20400,note_on,0,0,2,,,,,,,,1,,,68,76
20400,note_on,0,0,1,,,,,,,,0,,,71,61
20400,note_on,60,0,2,,,,,,,,1,,,71,0
20440,note_on,40,0,1,,,,,,,,0,,,71,0
20440,note_on,0,0,1,,,,,,,,0,,,76,60
20460,note_on,60,0,3,,,,,,,,2,,,52,0
20460,note_on,60,0,2,,,,,,,,1,,,62,0
20460,note_on,0,0,2,,,,,,,,1,,,71,0
20460,note_on,0,0,2,,,,,,,,1,,,68,0
20460,note_on,0,0,2,,,,,,,,1,,,68,75
20460,note_on,0,0,2,,,,,,,,1,,,62,75
20460,note_on,0,0,2,,,,,,,,1,,,71,75
20460,note_on,0,0,3,,,,,,,,2,,,40,0
20480,note_on,40,0,1,,,,,,,,0,,,76,0
20480,note_on,0,0,1,,,,,,,,0,,,74,59
20520,note_on,40,0,1,,,,,,,,0,,,74,0
20520,note_on,0,0,1,,,,,,,,0,,,73,59
20520,note_on,0,0,2,,,,,,,,1,,,62,76
20520,note_on,60,0,3,,,,,,,,2,,,40,72
20520,note_on,0,0,2,,,,,,,,1,,,62,0
20520,note_on,0,0,2,,,,,,,,1,,,71,0
20520,note_on,0,0,2,,,,,,,,1,,,71,76
20520,note_on,0,0,3,,,,,,,,2,,,52,72
20520,note_on,0,0,2,,,,,,,,1,,,68,76
20520,note_on,60,0,2,,,,,,,,1,,,68,0
20560,note_on,40,0,1,,,,,,,,0,,,73,0
20560,note_on,0,0,1,,,,,,,,0,,,74,58
20580,note_on,60,0,2,,,,,,,,1,,,62,0
20580,note_on,0,0,3,,,,,,,,2,,,40,0
20580,note_on,60,0,3,,,,,,,,2,,,52,0
20580,note_on,0,0,2,,,,,,,,1,,,71,70
20580,note_on,0,0,2,,,,,,,,1,,,68,70
20580,note_on,0,0,2,,,,,,,,1,,,62,70
20580,note_on,0,0,2,,,,,,,,1,,,71,0
20580,note_on,0,0,2,,,,,,,,1,,,68,0
20600,note_on,0,0,1,,,,,,,,0,,,71,58
20600,note_on,40,0,1,,,,,,,,0,,,74,0
20640,note_on,60,0,3,,,,,,,,2,,,49,68
20640,note_on,0,0,3,,,,,,,,2,,,45,68
20640,note_on,0,0,2,,,,,,,,1,,,62,0
20640,note_on,0,0,2,,,,,,,,1,,,68,0
20640,note_on,60,0,2,,,,,,,,1,,,71,0
20640,note_on,40,0,1,,,,,,,,0,,,71,0
20640,note_on,0,0,1,,,,,,,,0,,,69,57
20640,note_on,0,0,2,,,,,,,,1,,,69,69
20700,note_on,0,0,3,,,,,,,,2,,,52,64
20700,note_on,60,0,3,,,,,,,,2,,,45,0
20700,note_on,0,0,3,,,,,,,,2,,,49,0
20760,note_on,0,0,3,,,,,,,,2,,,49,63
20760,note_on,60,0,3,,,,,,,,2,,,52,0
20760,note_on,0,0,3,,,,,,,,2,,,45,63
20760,note_on,120,0,1,,,,,,,,0,,,69,0
20760,note_on,120,0,2,,,,,,,,1,,,69,0
20760,end_of_track,0,1,1,,,,,,,,,,,,
20760,note_on,0,0,2,,,,,,,,1,,,69,68
20820,note_on,0,0,3,,,,,,,,2,,,52,63
20820,note_on,0,0,3,,,,,,,,2,,,49,0
20820,note_on,60,0,2,,,,,,,,1,,,69,0
20820,note_on,0,0,2,,,,,,,,1,,,69,67
20820,note_on,60,0,3,,,,,,,,2,,,45,0
20880,note_on,0,0,2,,,,,,,,1,,,71,66
20880,note_on,60,0,2,,,,,,,,1,,,69,0
20880,note_on,0,0,3,,,,,,,,2,,,45,63
20880,note_on,0,0,3,,,,,,,,2,,,49,63
20880,note_on,60,0,3,,,,,,,,2,,,52,0
20895,note_on,0,0,2,,,,,,,,1,,,69,66
20895,note_on,15,0,2,,,,,,,,1,,,71,0
20910,note_on,0,0,2,,,,,,,,1,,,71,65
20910,note_on,15,0,2,,,,,,,,1,,,69,0
20925,note_on,0,0,2,,,,,,,,1,,,69,65
20925,note_on,15,0,2,,,,,,,,1,,,71,0
20940,note_on,60,0,3,,,,,,,,2,,,45,0
20940,note_on,0,0,3,,,,,,,,2,,,52,62
20940,note_on,0,0,3,,,,,,,,2,,,49,0
20940,note_on,0,0,2,,,,,,,,1,,,71,65
20940,note_on,15,0,2,,,,,,,,1,,,69,0
20955,note_on,0,0,2,,,,,,,,1,,,69,64
20955,note_on,15,0,2,,,,,,,,1,,,71,0
20970,note_on,0,0,2,,,,,,,,1,,,71,64
20970,note_on,15,0,2,,,,,,,,1,,,69,0
20985,note_on,15,0,2,,,,,,,,1,,,71,0
20985,note_on,0,0,2,,,,,,,,1,,,69,64
21000,note_on,0,0,3,,,,,,,,2,,,49,61
21000,note_on,0,0,3,,,,,,,,2,,,45,61
21000,note_on,15,0,2,,,,,,,,1,,,69,0
21000,note_on,60,0,3,,,,,,,,2,,,52,0
21000,note_on,0,0,2,,,,,,,,1,,,73,64
21060,note_on,60,0,2,,,,,,,,1,,,73,0
21060,note_on,0,0,2,,,,,,,,1,,,69,63
21060,note_on,0,0,3,,,,,,,,2,,,49,0
21060,note_on,0,0,3,,,,,,,,2,,,52,60
21060,note_on,60,0,3,,,,,,,,2,,,45,0
21120,note_on,60,0,3,,,,,,,,2,,,52,0
21120,note_on,0,0,3,,,,,,,,2,,,50,59
21120,note_on,0,0,2,,,,,,,,1,,,74,73
21120,note_on,60,0,2,,,,,,,,1,,,69,0
21120,note_on,0,0,3,,,,,,,,2,,,47,59
21180,note_on,0,0,3,,,,,,,,2,,,52,57
21180,note_on,0,0,3,,,,,,,,2,,,50,0
21180,note_on,60,0,3,,,,,,,,2,,,47,0
21240,note_on,0,0,3,,,,,,,,2,,,47,57
21240,note_on,0,0,3,,,,,,,,2,,,50,57
21240,note_on,60,0,3,,,,,,,,2,,,52,0
21300,note_on,180,0,2,,,,,,,,1,,,74,0
21300,note_on,0,0,3,,,,,,,,2,,,52,56
21300,note_on,0,0,3,,,,,,,,2,,,50,0
21300,note_on,60,0,3,,,,,,,,2,,,47,0
21300,note_on,0,0,2,,,,,,,,1,,,69,71
21360,note_on,60,0,3,,,,,,,,2,,,52,0
21360,note_on,60,0,2,,,,,,,,1,,,69,0
21360,note_on,0,0,2,,,,,,,,1,,,69,69
21360,note_on,0,0,3,,,,,,,,2,,,40,55
21375,note_on,0,0,2,,,,,,,,1,,,68,70
21375,note_on,15,0,2,,,,,,,,1,,,69,0
21390,note_on,15,0,2,,,,,,,,1,,,68,0
21390,note_on,0,0,2,,,,,,,,1,,,69,73
21420,note_on,30,0,2,,,,,,,,1,,,69,0
21420,note_on,60,0,3,,,,,,,,2,,,40,0
21420,note_on,0,0,3,,,,,,,,2,,,52,54
21420,note_on,0,0,2,,,,,,,,1,,,71,78
21450,note_on,30,0,2,,,,,,,,1,,,71,0
21450,note_on,0,0,2,,,,,,,,1,,,73,79
21480,note_on,60,0,3,,,,,,,,2,,,52,0
21480,note_on,0,0,3,,,,,,,,2,,,38,54
21480,note_on,0,0,2,,,,,,,,1,,,74,82
21480,note_on,30,0,2,,,,,,,,1,,,73,0
21510,note_on,30,0,2,,,,,,,,1,,,74,0
21510,note_on,0,0,2,,,,,,,,1,,,76,83
21540,note_on,30,0,2,,,,,,,,1,,,76,0
21540,note_on,0,0,2,,,,,,,,1,,,78,79
21540,note_on,60,0,3,,,,,,,,2,,,38,0
21540,note_on,0,0,3,,,,,,,,2,,,50,54
21570,note_on,30,0,2,,,,,,,,1,,,78,0
21570,note_on,0,0,2,,,,,,,,1,,,80,76
21586,set_tempo,9586,1,0,,,,,,550459,,,,,,
21596,set_tempo,10,1,0,,,,,,555556,,,,,,
21600,note_on,30,0,2,,,,,,,,1,,,80,0
21600,note_on,0,0,3,,,,,,,,2,,,49,54
21600,note_on,0,0,3,,,,,,,,2,,,37,54
21600,note_on,60,0,3,,,,,,,,2,,,50,0
21600,note_on,0,0,2,,,,,,,,1,,,81,72
21606,set_tempo,10,1,0,,,,,,560748,,,,,,
21616,set_tempo,10,1,0,,,,,,566038,,,,,,
21626,set_tempo,10,1,0,,,,,,571429,,,,,,
21630,note_on,30,0,2,,,,,,,,1,,,81,0
21630,note_on,0,0,2,,,,,,,,1,,,83,70
21636,set_tempo,10,1,0,,,,,,576923,,,,,,
21646,set_tempo,10,1,0,,,,,,582524,,,,,,
21656,set_tempo,10,1,0,,,,,,588235,,,,,,
21660,note_on,30,0,2,,,,,,,,1,,,83,0
21660,note_on,0,0,2,,,,,,,,1,,,85,67
21664,set_tempo,8,1,0,,,,,,594059,,,,,,
21674,set_tempo,10,1,0,,,,,,600000,,,,,,
21684,set_tempo,10,1,0,,,,,,606061,,,,,,
21690,note_on,0,0,2,,,,,,,,1,,,86,65
21690,note_on,30,0,2,,,,,,,,1,,,85,0
21694,set_tempo,10,1,0,,,,,,612245,,,,,,
21704,set_tempo,10,1,0,,,,,,618557,,,,,,
21714,set_tempo,10,1,0,,,,,,625000,,,,,,
21720,note_on,30,0,2,,,,,,,,1,,,86,0
21720,note_on,0,0,2,,,,,,,,1,,,88,64
21720,note_on,120,0,3,,,,,,,,2,,,49,0
21720,note_on,0,0,3,,,,,,,,2,,,37,0
21724,set_tempo,10,1,0,,,,,,631579,,,,,,
21732,set_tempo,8,1,0,,,,,,638298,,,,,,
21742,set_tempo,10,1,0,,,,,,645161,,,,,,
21750,note_on,30,0,2,,,,,,,,1,,,88,0
21750,note_on,0,0,2,,,,,,,,1,,,90,62
21752,set_tempo,10,1,0,,,,,,652174,,,,,,
21762,set_tempo,10,1,0,,,,,,659341,,,,,,
21772,set_tempo,10,1,0,,,,,,666667,,,,,,
21780,note_on,0,0,2,,,,,,,,1,,,92,61
21780,note_on,30,0,2,,,,,,,,1,,,90,0
21782,set_tempo,10,1,0,,,,,,674157,,,,,,
21792,set_tempo,10,1,0,,,,,,681818,,,,,,
21800,set_tempo,8,1,0,,,,,,689655,,,,,,
21810,note_on,0,0,2,,,,,,,,1,,,93,60
21810,note_on,30,0,2,,,,,,,,1,,,92,0
21810,set_tempo,10,1,0,,,,,,697674,,,,,,
21820,set_tempo,10,1,0,,,,,,705882,,,,,,
21830,set_tempo,10,1,0,,,,,,714286,,,,,,
21840,set_tempo,10,1,0,,,,,,722892,,,,,,
21840,note_on,0,0,3,,,,,,,,2,,,40,51
21840,note_on,120,0,3,,,,,,,,2,,,52,51
21840,note_on,0,0,2,,,,,,,,1,,,88,58
21840,note_on,30,0,2,,,,,,,,1,,,93,0
21850,set_tempo,10,1,0,,,,,,731707,,,,,,
21860,set_tempo,10,1,0,,,,,,740741,,,,,,
21868,set_tempo,8,1,0,,,,,,750000,,,,,,
21878,set_tempo,10,1,0,,,,,,759494,,,,,,
21888,set_tempo,10,1,0,,,,,,769231,,,,,,
21898,set_tempo,10,1,0,,,,,,779221,,,,,,
21900,note_on,0,0,3,,,,,,,,2,,,52,0
21900,note_on,60,0,3,,,,,,,,2,,,40,0
21900,note_on,60,0,2,,,,,,,,1,,,88,0
21908,set_tempo,10,1,0,,,,,,789474,,,,,,
21918,set_tempo,10,1,0,,,,,,800000,,,,,,
21928,set_tempo,10,1,0,,,,,,810811,,,,,,
21936,set_tempo,8,1,0,,,,,,821918,,,,,,
21946,set_tempo,10,1,0,,,,,,833333,,,,,,
21956,set_tempo,10,1,0,,,,,,845070,,,,,,
21960,note_on,0,0,2,,,,,,,,1,,,59,54
21960,note_on,0,0,2,,,,,,,,1,,,64,54
21960,note_on,0,0,2,,,,,,,,1,,,68,54
21960,control_change,60,0,3,,,,,,,,2,64,127,,
21960,note_on,0,0,3,,,,,,,,2,,,52,51
21960,note_on,0,0,3,,,,,,,,2,,,40,51
21960,control_change,60,0,2,,,,,,,,1,64,127,,
21960,note_on,0,0,2,,,,,,,,1,,,62,54
21966,set_tempo,10,1,0,,,,,,857143,,,,,,
21976,set_tempo,10,1,0,,,,,,869565,,,,,,
21986,set_tempo,10,1,0,,,,,,882353,,,,,,
21996,set_tempo,10,1,0,,,,,,895522,,,,,,
22004,set_tempo,8,1,0,,,,,,909091,,,,,,
22014,set_tempo,10,1,0,,,,,,923077,,,,,,
22020,note_on,0,0,3,,,,,,,,2,,,52,0
22020,control_change,0,0,3,,,,,,,,2,64,0,,
22020,control_change,0,0,2,,,,,,,,1,64,0,,
22020,note_on,0,0,2,,,,,,,,1,,,62,0
22020,note_on,0,0,2,,,,,,,,1,,,59,0
22020,note_on,0,0,2,,,,,,,,1,,,68,0
22020,note_on,60,0,2,,,,,,,,1,,,64,0
22020,note_on,60,0,3,,,,,,,,2,,,40,0
22024,set_tempo,10,1,0,,,,,,937500,,,,,,
22034,set_tempo,10,1,0,,,,,,952381,,,,,,
22044,set_tempo,10,1,0,,,,,,967742,,,,,,
22054,set_tempo,10,1,0,,,,,,983607,,,,,,
22064,set_tempo,10,1,0,,,,,,1000000,,,,,,
22072,set_tempo,8,1,0,,,,,,1016949,,,,,,
22072,end_of_track,0,1,0,,,,,,,,,,,,
22080,control_change,60,0,3,,,,,,,,2,64,127,,
22080,note_on,0,0,3,,,,,,,,2,,,33,49
22080,note_on,0,0,3,,,,,,,,2,,,45,49
22080,note_on,0,0,2,,,,,,,,1,,,57,54
22080,note_on,0,0,2,,,,,,,,1,,,61,54
22080,note_on,0,0,2,,,,,,,,1,,,64,54
22080,note_on,60,0,2,,,,,,,,1,,,69,54
22140,control_change,60,0,2,,,,,,,,1,64,127,,
22200,note_on,0,0,3,,,,,,,,2,,,33,0
22200,note_on,0,0,2,,,,,,,,1,,,69,0
22200,note_on,60,0,2,,,,,,,,1,,,57,0
22200,note_on,120,0,3,,,,,,,,2,,,45,0
22200,note_on,0,0,2,,,,,,,,1,,,61,0
22200,note_on,0,0,2,,,,,,,,1,,,64,0
22320,end_of_track,0,1,3,,,,,,,,,,,,
22320,control_change,120,0,3,,,,,,,,2,64,0,,
22380,end_of_track,0,1,2,,,,,,,,,,,,
22380,control_change,180,0,2,,,,,,,,1,64,0,,
