tick,type,time,meta,track,numerator,denominator,clocks_per_click,notated_32nd_notes_per_beat,key,tempo,control,value,channel,program,pitch,note,velocity
0,track_name,0,1,0,,,,,,,,,,,,,
0,control_change,0,0,4,,,,,,,1,0,3,,,,
0,pitchwheel,0,0,4,,,,,,,,,3,,0,,
0,control_change,0,0,4,,,,,,,7,117,3,,,,
0,control_change,0,0,2,,,,,,,0,0,1,,,,
0,pitchwheel,0,0,1,,,,,,,,,0,,0,,
0,program_change,0,0,1,,,,,,,,,0,0,,,
0,control_change,0,0,1,,,,,,,10,73,0,,,,
0,control_change,0,0,1,,,,,,,91,100,0,,,,
0,control_change,0,0,1,,,,,,,93,28,0,,,,
0,control_change,0,0,1,,,,,,,64,0,0,,,,
0,control_change,0,0,1,,,,,,,1,0,0,,,,
0,control_change,0,0,4,,,,,,,64,0,3,,,,
0,control_change,0,0,1,,,,,,,7,127,0,,,,
0,control_change,0,0,1,,,,,,,0,0,0,,,,
0,track_name,0,1,1,,,,,,,,,,,,,
0,track_name,0,1,5,,,,,,,,,,,,,
0,control_change,0,0,5,,,,,,,0,0,4,,,,
0,control_change,0,0,5,,,,,,,32,0,4,,,,
0,program_change,0,0,5,,,,,,,,,4,0,,,
0,control_change,0,0,5,,,,,,,10,55,4,,,,
0,control_change,0,0,5,,,,,,,91,100,4,,,,
0,control_change,0,0,5,,,,,,,93,28,4,,,,
0,control_change,0,0,5,,,,,,,64,0,4,,,,
0,control_change,0,0,5,,,,,,,1,0,4,,,,
0,control_change,0,0,1,,,,,,,32,0,0,,,,
0,pitchwheel,0,0,5,,,,,,,,,4,,0,,
0,control_change,0,0,4,,,,,,,93,28,3,,,,
0,control_change,0,0,4,,,,,,,10,55,3,,,,
0,control_change,0,0,2,,,,,,,32,0,1,,,,
0,program_change,0,0,2,,,,,,,,,1,0,,,
0,control_change,0,0,2,,,,,,,10,64,1,,,,
0,control_change,0,0,2,,,,,,,91,100,1,,,,
0,control_change,0,0,2,,,,,,,93,28,1,,,,
0,control_change,0,0,2,,,,,,,64,0,1,,,,
0,control_change,0,0,2,,,,,,,1,0,1,,,,
0,pitchwheel,0,0,2,,,,,,,,,1,,0,,
0,control_change,0,0,2,,,,,,,7,117,1,,,,
0,track_name,0,1,3,,,,,,,,,,,,,
0,control_change,0,0,3,,,,,,,0,0,2,,,,
0,control_change,0,0,4,,,,,,,91,100,3,,,,
0,control_change,0,0,3,,,,,,,32,0,2,,,,
0,control_change,0,0,3,,,,,,,10,64,2,,,,
0,control_change,0,0,3,,,,,,,91,100,2,,,,
0,control_change,0,0,3,,,,,,,93,28,2,,,,
0,control_change,0,0,3,,,,,,,64,0,2,,,,
0,control_change,0,0,3,,,,,,,1,0,2,,,,
0,pitchwheel,0,0,3,,,,,,,,,2,,0,,
0,control_change,0,0,3,,,,,,,7,112,2,,,,
0,track_name,0,1,4,,,,,,,,,,,,,
0,control_change,0,0,4,,,,,,,0,0,3,,,,
0,control_change,0,0,4,,,,,,,32,0,3,,,,
0,program_change,0,0,4,,,,,,,,,3,0,,,
0,program_change,0,0,3,,,,,,,,,2,0,,,
0,control_change,0,0,5,,,,,,,7,122,4,,,,
0,track_name,0,1,2,,,,,,,,,,,,,
0,time_signature,0,1,0,4,4,24,8,,,,,,,,,
0,key_signature,0,1,0,,,,,C,,,,,,,,
0,set_tempo,0,1,0,,,,,,600000,,,,,,,
0,marker,0,1,0,,,,,,,,,,,,,
1440,control_change,1440,0,2,,,,,,,64,0,1,,,,
1440,control_change,1440,0,5,,,,,,,64,0,4,,,,
1440,control_change,1440,0,4,,,,,,,64,0,3,,,,
1440,control_change,1440,0,3,,,,,,,64,0,2,,,,
1440,set_tempo,1440,1,0,,,,,,508474,,,,,,,
1440,note_on,0,0,2,,,,,,,,,1,,,52,47
1440,note_on,0,0,2,,,,,,,,,1,,,67,47
1440,control_change,1440,0,1,,,,,,,64,0,0,,,,
1440,note_on,0,0,1,,,,,,,,,0,,,60,47
1440,note_on,0,0,1,,,,,,,,,0,,,72,47
1674,note_off,234,0,2,,,,,,,,,1,,,67,0
1674,note_off,0,0,2,,,,,,,,,1,,,52,0
1674,note_off,0,0,1,,,,,,,,,0,,,60,0
1674,note_off,234,0,1,,,,,,,,,0,,,72,0
1800,note_on,126,0,1,,,,,,,,,0,,,74,49
1800,note_on,0,0,2,,,,,,,,,1,,,55,49
1800,note_on,126,0,2,,,,,,,,,1,,,71,49
1800,note_on,0,0,1,,,,,,,,,0,,,62,49
1870,set_tempo,430,1,0,,,,,,517241,,,,,,,
1878,note_off,78,0,1,,,,,,,,,0,,,62,0
1878,note_off,0,0,1,,,,,,,,,0,,,74,0
1878,note_off,78,0,2,,,,,,,,,1,,,55,0
1878,note_off,0,0,2,,,,,,,,,1,,,71,0
1920,note_on,42,0,1,,,,,,,,,0,,,76,50
1920,marker,0,1,0,,,,,,,,,,,,,
1920,set_tempo,50,1,0,,,,,,508474,,,,,,,
1920,note_on,0,0,2,,,,,,,,,1,,,60,50
1920,note_on,0,0,1,,,,,,,,,0,,,64,50
1920,note_on,42,0,2,,,,,,,,,1,,,72,50
2400,note_on,960,0,4,,,,,,,,,3,,,48,46
2400,note_on,960,0,5,,,,,,,,,4,,,36,46
2520,note_on,0,0,5,,,,,,,,,4,,,31,45
2520,note_off,120,0,5,,,,,,,,,4,,,36,0
2520,note_on,0,0,4,,,,,,,,,3,,,43,45
2520,note_off,120,0,4,,,,,,,,,3,,,48,0
2640,note_off,120,0,5,,,,,,,,,4,,,31,0
2640,note_off,120,0,4,,,,,,,,,3,,,43,0
2640,note_on,0,0,5,,,,,,,,,4,,,36,43
2640,note_on,0,0,4,,,,,,,,,3,,,48,43
2760,note_off,120,0,5,,,,,,,,,4,,,36,0
2760,note_on,0,0,5,,,,,,,,,4,,,31,42
2760,note_off,120,0,4,,,,,,,,,3,,,48,0
2760,note_on,0,0,4,,,,,,,,,3,,,43,42
2880,note_off,120,0,5,,,,,,,,,4,,,31,0
2880,note_on,0,0,5,,,,,,,,,4,,,36,40
2880,note_off,120,0,4,,,,,,,,,3,,,43,0
2880,note_on,0,0,4,,,,,,,,,3,,,48,40
3240,note_off,360,0,5,,,,,,,,,4,,,36,0
3240,set_tempo,1320,1,0,,,,,,571428,,,,,,,
3240,note_off,360,0,4,,,,,,,,,3,,,48,0
3360,note_on,0,0,1,,,,,,,,,0,,,72,42
3360,note_on,0,0,1,,,,,,,,,0,,,60,42
3360,note_off,0,0,1,,,,,,,,,0,,,76,0
3360,note_off,1440,0,1,,,,,,,,,0,,,64,0
3360,note_on,0,0,2,,,,,,,,,1,,,52,42
3360,note_on,0,0,2,,,,,,,,,1,,,67,42
3360,note_off,0,0,2,,,,,,,,,1,,,72,0
3360,note_off,1440,0,2,,,,,,,,,1,,,60,0
3360,set_tempo,120,1,0,,,,,,508474,,,,,,,
3594,note_off,234,0,2,,,,,,,,,1,,,52,0
3594,note_off,0,0,2,,,,,,,,,1,,,67,0
3594,note_off,234,0,1,,,,,,,,,0,,,72,0
3594,note_off,0,0,1,,,,,,,,,0,,,60,0
3720,note_on,0,0,1,,,,,,,,,0,,,62,44
3720,note_on,126,0,1,,,,,,,,,0,,,74,44
3720,note_on,126,0,2,,,,,,,,,1,,,71,44
3720,note_on,0,0,2,,,,,,,,,1,,,55,44
3790,set_tempo,430,1,0,,,,,,517241,,,,,,,
3798,note_off,0,0,1,,,,,,,,,0,,,74,0
3798,note_off,78,0,1,,,,,,,,,0,,,62,0
3798,note_off,78,0,2,,,,,,,,,1,,,55,0
3798,note_off,0,0,2,,,,,,,,,1,,,71,0
3840,note_on,42,0,1,,,,,,,,,0,,,76,47
3840,note_on,0,0,2,,,,,,,,,1,,,60,47
3840,set_tempo,50,1,0,,,,,,508474,,,,,,,
3840,note_on,42,0,2,,,,,,,,,1,,,72,47
3840,note_on,0,0,1,,,,,,,,,0,,,64,47
3840,marker,0,1,0,,,,,,,,,,,,,
4320,note_on,1080,0,5,,,,,,,,,4,,,36,43
4320,note_on,1080,0,4,,,,,,,,,3,,,48,43
4440,note_off,120,0,4,,,,,,,,,3,,,48,0
4440,note_on,0,0,4,,,,,,,,,3,,,43,42
4440,note_off,120,0,5,,,,,,,,,4,,,36,0
4440,note_on,0,0,5,,,,,,,,,4,,,31,42
4560,note_on,0,0,4,,,,,,,,,3,,,48,41
4560,note_off,120,0,4,,,,,,,,,3,,,43,0
4560,note_on,0,0,5,,,,,,,,,4,,,36,41
4560,note_off,120,0,5,,,,,,,,,4,,,31,0
4680,note_on,0,0,4,,,,,,,,,3,,,43,40
4680,note_off,120,0,4,,,,,,,,,3,,,48,0
4680,note_on,0,0,5,,,,,,,,,4,,,31,40
4680,note_off,120,0,5,,,,,,,,,4,,,36,0
4800,note_on,0,0,5,,,,,,,,,4,,,36,38
4800,note_off,120,0,5,,,,,,,,,4,,,31,0
4800,note_off,120,0,4,,,,,,,,,3,,,43,0
4800,note_on,0,0,4,,,,,,,,,3,,,48,38
5160,note_off,360,0,4,,,,,,,,,3,,,48,0
5160,note_off,360,0,5,,,,,,,,,4,,,36,0
5160,set_tempo,1320,1,0,,,,,,582524,,,,,,,
5280,note_off,1440,0,2,,,,,,,,,1,,,60,0
5280,note_on,0,0,1,,,,,,,,,0,,,76,49
5280,note_on,0,0,1,,,,,,,,,0,,,64,49
5280,note_off,0,0,1,,,,,,,,,0,,,76,0
5280,note_off,1440,0,1,,,,,,,,,0,,,64,0
5280,note_on,3840,0,3,,,,,,,,,2,,,60,49
5280,note_off,0,0,2,,,,,,,,,1,,,72,0
5280,set_tempo,120,1,0,,,,,,508474,,,,,,,
5280,note_on,120,0,5,,,,,,,,,4,,,48,49
5514,note_off,234,0,5,,,,,,,,,4,,,48,0
5514,note_off,0,0,1,,,,,,,,,0,,,64,0
5514,note_off,234,0,1,,,,,,,,,0,,,76,0
5514,note_off,234,0,3,,,,,,,,,2,,,60,0
5640,note_on,126,0,5,,,,,,,,,4,,,48,51
5640,note_on,126,0,1,,,,,,,,,0,,,65,51
5640,note_on,126,0,3,,,,,,,,,2,,,62,51
5640,note_on,0,0,1,,,,,,,,,0,,,77,51
5715,set_tempo,435,1,0,,,,,,517241,,,,,,,
5718,note_off,78,0,5,,,,,,,,,4,,,48,0
5718,note_off,78,0,3,,,,,,,,,2,,,62,0
5718,note_off,0,0,1,,,,,,,,,0,,,65,0
5718,note_off,78,0,1,,,,,,,,,0,,,77,0
5760,note_on,42,0,5,,,,,,,,,4,,,48,52
5760,note_on,0,0,1,,,,,,,,,0,,,67,52
5760,marker,0,1,0,,,,,,,,,,,,,
5760,note_on,42,0,3,,,,,,,,,2,,,64,52
5760,note_on,42,0,1,,,,,,,,,0,,,79,52
5760,set_tempo,45,1,0,,,,,,508474,,,,,,,
6240,note_on,0,0,1,,,,,,,,,0,,,69,55
6240,note_off,480,0,1,,,,,,,,,0,,,67,0
6240,note_on,0,0,3,,,,,,,,,2,,,64,55
6240,note_on,0,0,1,,,,,,,,,0,,,81,55
6240,note_off,480,0,3,,,,,,,,,2,,,64,0
6240,note_on,0,0,5,,,,,,,,,4,,,48,55
6240,note_off,480,0,5,,,,,,,,,4,,,48,0
6240,note_off,0,0,1,,,,,,,,,0,,,79,0
6474,note_off,234,0,3,,,,,,,,,2,,,64,0
6474,note_off,0,0,1,,,,,,,,,0,,,81,0
6474,note_off,234,0,1,,,,,,,,,0,,,69,0
6474,note_off,234,0,5,,,,,,,,,4,,,48,0
6600,note_on,126,0,3,,,,,,,,,2,,,62,57
6600,note_on,126,0,5,,,,,,,,,4,,,47,57
6600,note_on,126,0,1,,,,,,,,,0,,,83,57
6600,note_on,0,0,1,,,,,,,,,0,,,71,57
6660,set_tempo,900,1,0,,,,,,517241,,,,,,,
6678,note_off,78,0,5,,,,,,,,,4,,,47,0
6678,note_off,0,0,1,,,,,,,,,0,,,83,0
6678,note_off,78,0,3,,,,,,,,,2,,,62,0
6678,note_off,78,0,1,,,,,,,,,0,,,71,0
6720,note_on,42,0,1,,,,,,,,,0,,,84,58
6720,note_on,0,0,1,,,,,,,,,0,,,72,58
6720,note_on,42,0,3,,,,,,,,,2,,,60,58
6720,set_tempo,60,1,0,,,,,,508474,,,,,,,
6720,note_on,42,0,5,,,,,,,,,4,,,45,58
7200,note_on,0,0,5,,,,,,,,,4,,,50,61
7200,note_off,0,0,1,,,,,,,,,0,,,84,0
7200,note_on,0,0,1,,,,,,,,,0,,,81,61
7200,note_on,0,0,1,,,,,,,,,0,,,69,61
7200,note_on,0,0,3,,,,,,,,,2,,,60,61
7200,note_off,480,0,3,,,,,,,,,2,,,60,0
7200,note_on,0,0,3,,,,,,,,,2,,,54,61
7200,note_off,480,0,5,,,,,,,,,4,,,45,0
7200,note_off,480,0,1,,,,,,,,,0,,,72,0
7434,note_off,234,0,1,,,,,,,,,0,,,69,0
7434,note_off,0,0,3,,,,,,,,,2,,,54,0
7434,note_off,0,0,1,,,,,,,,,0,,,81,0
7434,note_off,234,0,5,,,,,,,,,4,,,50,0
7434,note_off,234,0,3,,,,,,,,,2,,,60,0
7560,note_on,126,0,3,,,,,,,,,2,,,57,63
7560,note_on,0,0,3,,,,,,,,,2,,,60,63
7560,note_on,126,0,1,,,,,,,,,0,,,78,63
7560,note_on,126,0,5,,,,,,,,,4,,,50,63
7560,note_on,0,0,1,,,,,,,,,0,,,66,63
7638,note_off,78,0,1,,,,,,,,,0,,,66,0
7638,note_off,0,0,1,,,,,,,,,0,,,78,0
7638,note_off,78,0,3,,,,,,,,,2,,,60,0
7638,note_off,78,0,5,,,,,,,,,4,,,50,0
7638,note_off,0,0,3,,,,,,,,,2,,,57,0
7642,set_tempo,922,1,0,,,,,,517241,,,,,,,
7680,note_on,0,0,3,,,,,,,,,2,,,55,64
7680,note_on,42,0,5,,,,,,,,,4,,,43,64
7680,note_on,42,0,3,,,,,,,,,2,,,59,64
7680,note_on,42,0,1,,,,,,,,,0,,,67,64
7680,set_tempo,38,1,0,,,,,,526315,,,,,,,
7680,note_on,0,0,1,,,,,,,,,0,,,79,64
8040,note_off,360,0,5,,,,,,,,,4,,,43,0
8040,note_off,360,0,3,,,,,,,,,2,,,55,0
8040,note_off,0,0,3,,,,,,,,,2,,,59,0
8040,note_off,0,0,1,,,,,,,,,0,,,67,0
8040,note_off,360,0,1,,,,,,,,,0,,,79,0
8160,note_on,0,0,2,,,,,,,,,1,,,62,59
8160,note_on,0,0,1,,,,,,,,,0,,,79,59
8160,note_on,120,0,1,,,,,,,,,0,,,67,59
8160,note_on,0,0,2,,,,,,,,,1,,,74,59
8160,note_on,120,0,5,,,,,,,,,4,,,43,59
8160,note_on,0,0,3,,,,,,,,,2,,,55,59
8160,note_on,0,0,3,,,,,,,,,2,,,59,59
8160,note_on,2880,0,2,,,,,,,,,1,,,71,59
8160,note_on,120,0,3,,,,,,,,,2,,,50,59
8520,note_off,0,0,3,,,,,,,,,2,,,50,0
8520,note_off,360,0,2,,,,,,,,,1,,,62,0
8520,note_off,0,0,2,,,,,,,,,1,,,74,0
8520,note_off,0,0,2,,,,,,,,,1,,,71,0
8520,note_off,360,0,1,,,,,,,,,0,,,79,0
8520,note_off,0,0,1,,,,,,,,,0,,,67,0
8520,note_off,360,0,3,,,,,,,,,2,,,59,0
8520,note_off,360,0,5,,,,,,,,,4,,,43,0
8520,note_off,0,0,3,,,,,,,,,2,,,55,0
8540,set_tempo,860,1,0,,,,,,550458,,,,,,,
8640,note_on,120,0,1,,,,,,,,,0,,,67,53
8640,note_on,0,0,2,,,,,,,,,1,,,74,53
8640,note_on,0,0,2,,,,,,,,,1,,,62,53
8640,note_on,120,0,2,,,,,,,,,1,,,71,53
8640,note_on,120,0,3,,,,,,,,,2,,,50,53
8640,note_on,0,0,3,,,,,,,,,2,,,55,53
8640,note_on,0,0,3,,,,,,,,,2,,,59,53
8640,note_on,0,0,1,,,,,,,,,0,,,79,53
8640,note_on,120,0,5,,,,,,,,,4,,,43,53
9000,note_off,360,0,3,,,,,,,,,2,,,59,0
9000,set_tempo,460,1,0,,,,,,769230,,,,,,,
9000,note_off,360,0,5,,,,,,,,,4,,,43,0
9000,note_off,0,0,3,,,,,,,,,2,,,50,0
9000,note_off,0,0,1,,,,,,,,,0,,,67,0
9000,note_off,360,0,1,,,,,,,,,0,,,79,0
9000,note_off,360,0,2,,,,,,,,,1,,,62,0
9000,note_off,0,0,2,,,,,,,,,1,,,74,0
9000,note_off,0,0,2,,,,,,,,,1,,,71,0
9000,note_off,0,0,3,,,,,,,,,2,,,55,0
9120,note_on,0,0,5,,,,,,,,,4,,,60,49
9120,note_on,120,0,5,,,,,,,,,4,,,36,49
9120,note_on,0,0,4,,,,,,,,,3,,,52,49
9120,set_tempo,120,1,0,,,,,,508474,,,,,,,
9120,note_on,0,0,4,,,,,,,,,3,,,55,49
9120,note_on,3960,0,4,,,,,,,,,3,,,48,49
9480,note_on,0,0,5,,,,,,,,,4,,,31,51
9480,note_off,360,0,5,,,,,,,,,4,,,60,0
9480,note_on,0,0,5,,,,,,,,,4,,,62,51
9480,note_off,0,0,5,,,,,,,,,4,,,36,0
9480,note_off,360,0,4,,,,,,,,,3,,,55,0
9480,note_off,0,0,4,,,,,,,,,3,,,52,0
9480,note_off,0,0,4,,,,,,,,,3,,,48,0
9480,note_on,0,0,4,,,,,,,,,3,,,43,51
9480,note_on,0,0,4,,,,,,,,,3,,,59,51
9480,note_on,0,0,4,,,,,,,,,3,,,55,51
9547,set_tempo,427,1,0,,,,,,517241,,,,,,,
9600,note_off,0,0,5,,,,,,,,,4,,,31,0
9600,set_tempo,53,1,0,,,,,,508474,,,,,,,
9600,note_off,120,0,4,,,,,,,,,3,,,55,0
9600,note_off,0,0,4,,,,,,,,,3,,,59,0
9600,note_off,0,0,4,,,,,,,,,3,,,43,0
9600,note_off,120,0,5,,,,,,,,,4,,,62,0
9600,note_on,0,0,4,,,,,,,,,3,,,48,53
9600,note_on,0,0,4,,,,,,,,,3,,,55,53
9600,note_on,0,0,4,,,,,,,,,3,,,60,53
9600,note_on,0,0,5,,,,,,,,,4,,,36,53
9600,note_on,0,0,5,,,,,,,,,4,,,64,53
10080,note_on,1080,0,2,,,,,,,,,1,,,72,47
10080,note_on,1080,0,1,,,,,,,,,0,,,84,47
10200,note_off,120,0,1,,,,,,,,,0,,,84,0
10200,note_on,0,0,2,,,,,,,,,1,,,67,46
10200,note_off,120,0,2,,,,,,,,,1,,,72,0
10200,note_on,0,0,1,,,,,,,,,0,,,79,46
10320,note_off,120,0,2,,,,,,,,,1,,,67,0
10320,note_on,0,0,2,,,,,,,,,1,,,72,45
10320,note_off,120,0,1,,,,,,,,,0,,,79,0
10320,note_on,0,0,1,,,,,,,,,0,,,84,45
10440,note_on,0,0,1,,,,,,,,,0,,,79,44
10440,note_off,120,0,2,,,,,,,,,1,,,72,0
10440,note_on,0,0,2,,,,,,,,,1,,,67,44
10440,note_off,120,0,1,,,,,,,,,0,,,84,0
10560,note_off,120,0,1,,,,,,,,,0,,,79,0
10560,note_on,0,0,1,,,,,,,,,0,,,84,43
10560,note_off,120,0,2,,,,,,,,,1,,,67,0
10560,note_on,0,0,2,,,,,,,,,1,,,72,43
10920,set_tempo,1320,1,0,,,,,,571428,,,,,,,
10920,note_off,360,0,2,,,,,,,,,1,,,72,0
10920,note_off,360,0,1,,,,,,,,,0,,,84,0
11040,note_off,1440,0,5,,,,,,,,,4,,,64,0
11040,note_off,0,0,5,,,,,,,,,4,,,36,0
11040,note_on,0,0,5,,,,,,,,,4,,,60,44
11040,note_on,0,0,4,,,,,,,,,3,,,48,44
11040,note_off,1440,0,4,,,,,,,,,3,,,55,0
11040,note_off,0,0,4,,,,,,,,,3,,,48,0
11040,note_on,0,0,4,,,,,,,,,3,,,55,44
11040,note_on,0,0,4,,,,,,,,,3,,,52,44
11040,note_on,0,0,5,,,,,,,,,4,,,36,44
11040,note_off,0,0,4,,,,,,,,,3,,,60,0
11040,set_tempo,120,1,0,,,,,,508474,,,,,,,
11400,note_off,360,0,4,,,,,,,,,3,,,48,0
11400,note_on,0,0,5,,,,,,,,,4,,,31,46
11400,note_on,0,0,5,,,,,,,,,4,,,62,46
11400,note_off,0,0,5,,,,,,,,,4,,,36,0
11400,note_off,0,0,4,,,,,,,,,3,,,52,0
11400,note_off,360,0,5,,,,,,,,,4,,,60,0
11400,note_off,0,0,4,,,,,,,,,3,,,55,0
11400,note_on,0,0,4,,,,,,,,,3,,,43,46
11400,note_on,0,0,4,,,,,,,,,3,,,55,46
11400,note_on,0,0,4,,,,,,,,,3,,,59,46
11460,set_tempo,420,1,0,,,,,,517241,,,,,,,
11520,note_off,120,0,5,,,,,,,,,4,,,62,0
11520,set_tempo,60,1,0,,,,,,508474,,,,,,,
11520,note_off,120,0,4,,,,,,,,,3,,,59,0
11520,note_off,0,0,4,,,,,,,,,3,,,55,0
11520,note_on,0,0,5,,,,,,,,,4,,,64,49
11520,note_on,0,0,4,,,,,,,,,3,,,60,49
11520,note_on,0,0,4,,,,,,,,,3,,,48,49
11520,note_on,0,0,4,,,,,,,,,3,,,55,49
11520,note_off,0,0,4,,,,,,,,,3,,,43,0
11520,note_on,0,0,5,,,,,,,,,4,,,36,49
11520,note_off,0,0,5,,,,,,,,,4,,,31,0
12000,note_on,1080,0,1,,,,,,,,,0,,,84,46
12000,note_on,1080,0,2,,,,,,,,,1,,,72,46
12120,note_off,120,0,1,,,,,,,,,0,,,84,0
12120,note_on,0,0,2,,,,,,,,,1,,,67,45
12120,note_off,120,0,2,,,,,,,,,1,,,72,0
12120,note_on,0,0,1,,,,,,,,,0,,,79,45
12240,note_off,120,0,2,,,,,,,,,1,,,67,0
12240,note_on,0,0,2,,,,,,,,,1,,,72,44
12240,note_off,120,0,1,,,,,,,,,0,,,79,0
12240,note_on,0,0,1,,,,,,,,,0,,,84,44
12360,note_on,0,0,1,,,,,,,,,0,,,79,43
12360,note_off,120,0,1,,,,,,,,,0,,,84,0
12360,note_on,0,0,2,,,,,,,,,1,,,67,43
12360,note_off,120,0,2,,,,,,,,,1,,,72,0
12480,note_off,120,0,1,,,,,,,,,0,,,79,0
12480,note_on,0,0,1,,,,,,,,,0,,,84,43
12480,note_on,0,0,2,,,,,,,,,1,,,72,43
12480,note_off,120,0,2,,,,,,,,,1,,,67,0
12840,note_off,360,0,1,,,,,,,,,0,,,84,0
12840,note_off,360,0,2,,,,,,,,,1,,,72,0
12840,set_tempo,1320,1,0,,,,,,571428,,,,,,,
12864,note_off,0,0,5,,,,,,,,,4,,,36,0
12864,note_off,1344,0,5,,,,,,,,,4,,,64,0
12864,note_off,0,0,4,,,,,,,,,3,,,48,0
12864,note_off,0,0,4,,,,,,,,,3,,,55,0
12864,note_off,1344,0,4,,,,,,,,,3,,,60,0
12960,set_tempo,120,1,0,,,,,,508474,,,,,,,
12960,note_on,120,0,1,,,,,,,,,0,,,88,50
12960,note_on,96,0,5,,,,,,,,,4,,,36,50
12960,note_on,0,0,5,,,,,,,,,4,,,52,50
12960,note_on,96,0,4,,,,,,,,,3,,,48,50
12960,note_on,120,0,2,,,,,,,,,1,,,64,50
13138,note_off,178,0,2,,,,,,,,,1,,,64,0
13138,note_off,178,0,5,,,,,,,,,4,,,52,0
13138,note_off,0,0,5,,,,,,,,,4,,,36,0
13138,note_off,178,0,4,,,,,,,,,3,,,48,0
13320,note_on,182,0,4,,,,,,,,,3,,,48,52
13320,note_on,0,0,4,,,,,,,,,3,,,50,52
13320,note_on,0,0,5,,,,,,,,,4,,,53,52
13320,note_on,182,0,5,,,,,,,,,4,,,36,52
13320,note_on,182,0,2,,,,,,,,,1,,,65,52
13380,set_tempo,420,1,0,,,,,,517241,,,,,,,
13398,note_off,78,0,2,,,,,,,,,1,,,65,0
13398,note_off,78,0,5,,,,,,,,,4,,,53,0
13398,note_off,0,0,5,,,,,,,,,4,,,36,0
13398,note_off,78,0,4,,,,,,,,,3,,,50,0
13398,note_off,0,0,4,,,,,,,,,3,,,48,0
13440,note_on,42,0,4,,,,,,,,,3,,,48,53
13440,note_on,0,0,5,,,,,,,,,4,,,55,53
13440,note_on,42,0,5,,,,,,,,,4,,,36,53
13440,note_on,42,0,2,,,,,,,,,1,,,67,53
13440,note_on,0,0,4,,,,,,,,,3,,,52,53
13440,set_tempo,60,1,0,,,,,,508474,,,,,,,
13680,note_off,720,0,1,,,,,,,,,0,,,88,0
13680,note_on,0,0,1,,,,,,,,,0,,,88,55
13920,note_off,480,0,5,,,,,,,,,4,,,55,0
13920,note_off,480,0,4,,,,,,,,,3,,,52,0
13920,note_off,0,0,4,,,,,,,,,3,,,48,0
13920,note_on,0,0,4,,,,,,,,,3,,,52,56
13920,note_off,0,0,5,,,,,,,,,4,,,36,0
13920,note_on,0,0,5,,,,,,,,,4,,,36,56
13920,note_on,0,0,2,,,,,,,,,1,,,69,56
13920,note_off,480,0,2,,,,,,,,,1,,,67,0
13920,note_on,0,0,4,,,,,,,,,3,,,48,56
13920,note_on,0,0,5,,,,,,,,,4,,,57,56
14122,note_off,202,0,4,,,,,,,,,3,,,48,0
14122,note_off,0,0,4,,,,,,,,,3,,,52,0
14122,note_off,202,0,2,,,,,,,,,1,,,69,0
14122,note_off,0,0,5,,,,,,,,,4,,,36,0
14122,note_off,202,0,5,,,,,,,,,4,,,57,0
14160,note_on,0,0,1,,,,,,,,,0,,,88,58
14160,note_off,480,0,1,,,,,,,,,0,,,88,0
14280,note_off,120,0,1,,,,,,,,,0,,,88,0
14280,note_on,0,0,1,,,,,,,,,0,,,86,59
14280,note_on,158,0,2,,,,,,,,,1,,,71,59
14280,note_on,0,0,4,,,,,,,,,3,,,47,59
14280,note_on,158,0,4,,,,,,,,,3,,,50,59
14280,note_on,0,0,5,,,,,,,,,4,,,59,59
14280,note_on,158,0,5,,,,,,,,,4,,,35,59
14340,set_tempo,900,1,0,,,,,,517241,,,,,,,
14358,note_off,78,0,2,,,,,,,,,1,,,71,0
14358,note_off,78,0,4,,,,,,,,,3,,,47,0
14358,note_off,0,0,4,,,,,,,,,3,,,50,0
14358,note_off,0,0,5,,,,,,,,,4,,,35,0
14358,note_off,78,0,5,,,,,,,,,4,,,59,0
14400,note_on,42,0,4,,,,,,,,,3,,,52,60
14400,note_on,0,0,4,,,,,,,,,3,,,48,60
14400,note_on,0,0,4,,,,,,,,,3,,,55,60
14400,note_on,42,0,5,,,,,,,,,4,,,36,60
14400,note_on,42,0,2,,,,,,,,,1,,,72,60
14400,note_on,0,0,5,,,,,,,,,4,,,60,60
14400,set_tempo,60,1,0,,,,,,508474,,,,,,,
14400,note_off,120,0,1,,,,,,,,,0,,,86,0
14400,note_on,0,0,1,,,,,,,,,0,,,84,60
14520,note_on,0,0,1,,,,,,,,,0,,,83,60
14520,note_off,120,0,1,,,,,,,,,0,,,84,0
14640,note_on,0,0,1,,,,,,,,,0,,,81,61
14640,note_off,120,0,1,,,,,,,,,0,,,83,0
14760,note_off,120,0,1,,,,,,,,,0,,,81,0
14760,note_on,0,0,1,,,,,,,,,0,,,79,62
14880,note_on,0,0,2,,,,,,,,,1,,,69,63
14880,note_on,0,0,5,,,,,,,,,4,,,57,63
14880,note_off,0,0,5,,,,,,,,,4,,,36,0
14880,note_off,480,0,4,,,,,,,,,3,,,55,0
14880,note_off,0,0,4,,,,,,,,,3,,,48,0
14880,note_off,480,0,5,,,,,,,,,4,,,60,0
14880,note_on,0,0,1,,,,,,,,,0,,,78,63
14880,note_off,120,0,1,,,,,,,,,0,,,79,0
14880,note_off,480,0,2,,,,,,,,,1,,,72,0
14880,note_off,0,0,4,,,,,,,,,3,,,52,0
14920,note_off,40,0,1,,,,,,,,,0,,,78,0
14920,note_on,0,0,1,,,,,,,,,0,,,79,63
14960,note_off,40,0,1,,,,,,,,,0,,,79,0
14960,note_on,0,0,1,,,,,,,,,0,,,78,63
15000,note_off,40,0,1,,,,,,,,,0,,,78,0
15000,note_on,0,0,1,,,,,,,,,0,,,76,63
15060,note_off,60,0,1,,,,,,,,,0,,,76,0
15060,note_on,0,0,1,,,,,,,,,0,,,78,64
15114,note_off,234,0,5,,,,,,,,,4,,,57,0
15114,note_off,234,0,2,,,,,,,,,1,,,69,0
15120,note_on,0,0,1,,,,,,,,,0,,,81,64
15120,note_off,60,0,1,,,,,,,,,0,,,78,0
15240,note_on,0,0,1,,,,,,,,,0,,,84,65
15240,note_on,126,0,5,,,,,,,,,4,,,54,65
15240,note_off,120,0,1,,,,,,,,,0,,,81,0
15240,note_on,126,0,2,,,,,,,,,1,,,66,65
15307,set_tempo,907,1,0,,,,,,517241,,,,,,,
15318,note_off,78,0,5,,,,,,,,,4,,,54,0
15318,note_off,78,0,2,,,,,,,,,1,,,66,0
15360,note_on,42,0,2,,,,,,,,,1,,,67,61
15360,note_on,480,0,4,,,,,,,,,3,,,43,61
15360,note_on,0,0,1,,,,,,,,,0,,,83,61
15360,note_on,0,0,5,,,,,,,,,4,,,55,61
15360,note_on,42,0,5,,,,,,,,,4,,,31,61
15360,note_off,120,0,1,,,,,,,,,0,,,84,0
15480,note_off,120,0,1,,,,,,,,,0,,,83,0
15600,note_on,120,0,1,,,,,,,,,0,,,86,59
15720,note_off,120,0,1,,,,,,,,,0,,,86,0
15720,note_on,0,0,1,,,,,,,,,0,,,83,58
15720,note_off,360,0,4,,,,,,,,,3,,,43,0
15720,note_off,360,0,2,,,,,,,,,1,,,67,0
15720,note_off,360,0,5,,,,,,,,,4,,,55,0
15720,note_off,0,0,5,,,,,,,,,4,,,31,0
15840,note_on,0,0,4,,,,,,,,,3,,,47,57
15840,note_on,0,0,3,,,,,,,,,2,,,62,57
15840,note_on,120,0,2,,,,,,,,,1,,,67,57
15840,note_on,6840,0,3,,,,,,,,,2,,,59,57
15840,note_on,120,0,5,,,,,,,,,4,,,31,57
15840,note_on,120,0,4,,,,,,,,,3,,,43,57
15840,note_on,0,0,5,,,,,,,,,4,,,55,57
15840,note_on,0,0,4,,,,,,,,,3,,,50,57
15840,note_off,120,0,1,,,,,,,,,0,,,83,0
15840,note_on,0,0,1,,,,,,,,,0,,,79,57
15960,note_off,120,0,1,,,,,,,,,0,,,79,0
16080,note_on,120,0,1,,,,,,,,,0,,,86,54
16200,note_off,0,0,5,,,,,,,,,4,,,31,0
16200,set_tempo,893,1,0,,,,,,535714,,,,,,,
16200,note_off,360,0,3,,,,,,,,,2,,,62,0
16200,note_off,360,0,2,,,,,,,,,1,,,67,0
16200,note_off,0,0,4,,,,,,,,,3,,,43,0
16200,note_off,360,0,5,,,,,,,,,4,,,55,0
16200,note_off,360,0,4,,,,,,,,,3,,,50,0
16200,note_off,0,0,3,,,,,,,,,2,,,59,0
16200,note_off,120,0,1,,,,,,,,,0,,,86,0
16200,note_on,0,0,1,,,,,,,,,0,,,83,53
16200,note_off,0,0,4,,,,,,,,,3,,,47,0
16320,note_on,0,0,5,,,,,,,,,4,,,55,52
16320,note_on,120,0,3,,,,,,,,,2,,,59,52
16320,note_on,120,0,5,,,,,,,,,4,,,31,52
16320,note_on,120,0,2,,,,,,,,,1,,,67,52
16320,note_off,120,0,1,,,,,,,,,0,,,83,0
16320,note_on,0,0,1,,,,,,,,,0,,,79,52
16320,note_on,0,0,4,,,,,,,,,3,,,50,52
16320,note_on,0,0,3,,,,,,,,,2,,,62,52
16320,note_on,0,0,4,,,,,,,,,3,,,47,52
16320,note_on,120,0,4,,,,,,,,,3,,,43,52
16680,note_off,360,0,2,,,,,,,,,1,,,67,0
16680,note_off,360,0,1,,,,,,,,,0,,,79,0
16680,note_off,0,0,5,,,,,,,,,4,,,31,0
16680,note_off,360,0,5,,,,,,,,,4,,,55,0
16680,note_off,0,0,3,,,,,,,,,2,,,59,0
16680,set_tempo,480,1,0,,,,,,769230,,,,,,,
16680,note_off,360,0,3,,,,,,,,,2,,,62,0
16680,note_off,0,0,4,,,,,,,,,3,,,47,0
16680,note_off,360,0,4,,,,,,,,,3,,,50,0
16680,note_off,0,0,4,,,,,,,,,3,,,43,0
16800,control_change,120,0,4,,,,,,,64,0,3,,,,
16800,set_tempo,120,1,0,,,,,,508474,,,,,,,
16800,control_change,120,0,3,,,,,,,64,0,2,,,,
16800,note_on,0,0,1,,,,,,,,,0,,,79,47
16800,control_change,0,0,1,,,,,,,64,0,0,,,,
16800,control_change,120,0,1,,,,,,,64,0,0,,,,
16800,control_change,120,0,2,,,,,,,64,0,1,,,,
16800,note_on,0,0,2,,,,,,,,,1,,,67,47
16800,control_change,120,0,5,,,,,,,64,0,4,,,,
16800,control_change,0,0,1,,,,,,,64,0,0,,,,
17034,note_off,234,0,1,,,,,,,,,0,,,79,0
17034,note_off,234,0,2,,,,,,,,,1,,,67,0
17160,note_on,126,0,1,,,,,,,,,0,,,81,46
17160,set_tempo,360,1,0,,,,,,517241,,,,,,,
17160,note_on,126,0,2,,,,,,,,,1,,,69,46
17238,note_off,78,0,2,,,,,,,,,1,,,69,0
17238,note_off,78,0,1,,,,,,,,,0,,,81,0
17280,note_on,42,0,2,,,,,,,,,1,,,70,46
17280,set_tempo,120,1,0,,,,,,508474,,,,,,,
17280,note_on,42,0,1,,,,,,,,,0,,,82,46
17280,control_change,480,0,3,,,,,,,64,0,2,,,,
17280,note_on,0,0,3,,,,,,,,,2,,,50,47
17280,note_on,480,0,5,,,,,,,,,4,,,31,46
17280,note_on,480,0,4,,,,,,,,,3,,,43,46
17320,control_change,40,0,3,,,,,,,64,127,2,,,,
17400,note_on,0,0,3,,,,,,,,,2,,,55,47
17400,note_off,80,0,3,,,,,,,,,2,,,50,0
17520,note_off,120,0,3,,,,,,,,,2,,,55,0
17520,note_on,0,0,3,,,,,,,,,2,,,58,47
17640,note_on,0,0,3,,,,,,,,,2,,,55,47
17640,note_off,120,0,3,,,,,,,,,2,,,58,0
17760,note_off,0,0,3,,,,,,,,,2,,,55,0
17760,note_on,0,0,1,,,,,,,,,0,,,82,48
17760,note_off,480,0,5,,,,,,,,,4,,,31,0
17760,note_off,480,0,1,,,,,,,,,0,,,82,0
17760,note_off,480,0,4,,,,,,,,,3,,,43,0
17760,control_change,120,0,3,,,,,,,64,0,2,,,,
17760,note_off,480,0,2,,,,,,,,,1,,,70,0
17760,note_on,0,0,2,,,,,,,,,1,,,70,48
17760,note_on,0,0,3,,,,,,,,,2,,,50,47
17800,control_change,40,0,3,,,,,,,64,127,2,,,,
17880,note_on,0,0,3,,,,,,,,,2,,,55,48
17880,note_off,80,0,3,,,,,,,,,2,,,50,0
18000,note_off,120,0,3,,,,,,,,,2,,,55,0
18000,note_on,0,0,3,,,,,,,,,2,,,58,48
18120,note_off,360,0,1,,,,,,,,,0,,,82,0
18120,note_on,0,0,1,,,,,,,,,0,,,81,49
18120,note_on,0,0,3,,,,,,,,,2,,,55,48
18120,note_off,120,0,3,,,,,,,,,2,,,58,0
18120,note_off,360,0,2,,,,,,,,,1,,,70,0
18120,note_on,0,0,2,,,,,,,,,1,,,69,49
18180,set_tempo,900,1,0,,,,,,517241,,,,,,,
18240,note_on,0,0,1,,,,,,,,,0,,,79,49
18240,note_off,120,0,1,,,,,,,,,0,,,81,0
18240,note_on,0,0,3,,,,,,,,,2,,,50,48
18240,set_tempo,60,1,0,,,,,,508474,,,,,,,
18240,control_change,120,0,3,,,,,,,64,0,2,,,,
18240,note_on,0,0,2,,,,,,,,,1,,,67,49
18240,note_on,480,0,4,,,,,,,,,3,,,46,49
18240,note_off,0,0,3,,,,,,,,,2,,,55,0
18240,note_on,480,0,5,,,,,,,,,4,,,34,49
18240,note_off,120,0,2,,,,,,,,,1,,,69,0
18280,control_change,40,0,3,,,,,,,64,127,2,,,,
18360,note_on,0,0,3,,,,,,,,,2,,,55,48
18360,note_off,80,0,3,,,,,,,,,2,,,50,0
18480,note_on,240,0,2,,,,,,,,,1,,,62,50
18480,note_off,120,0,3,,,,,,,,,2,,,55,0
18600,note_on,120,0,3,,,,,,,,,2,,,55,49
18600,note_off,120,0,2,,,,,,,,,1,,,62,0
18600,note_off,0,0,2,,,,,,,,,1,,,67,0
18600,note_on,0,0,2,,,,,,,,,1,,,65,50
18600,note_on,0,0,1,,,,,,,,,0,,,77,50
18600,note_off,360,0,1,,,,,,,,,0,,,79,0
18720,control_change,120,0,3,,,,,,,64,0,2,,,,
18720,note_on,0,0,3,,,,,,,,,2,,,50,49
18720,note_off,480,0,4,,,,,,,,,3,,,46,0
18720,note_on,0,0,2,,,,,,,,,1,,,64,50
18720,note_off,120,0,2,,,,,,,,,1,,,65,0
18720,note_off,0,0,3,,,,,,,,,2,,,55,0
18720,note_off,120,0,1,,,,,,,,,0,,,77,0
18720,note_off,480,0,5,,,,,,,,,4,,,34,0
18720,note_on,0,0,1,,,,,,,,,0,,,76,50
18760,control_change,40,0,3,,,,,,,64,127,2,,,,
18840,note_off,80,0,3,,,,,,,,,2,,,50,0
18840,note_on,0,0,3,,,,,,,,,2,,,56,49
18960,note_on,240,0,2,,,,,,,,,1,,,62,51
18960,note_off,120,0,3,,,,,,,,,2,,,56,0
19080,note_on,0,0,1,,,,,,,,,0,,,74,51
19080,note_on,120,0,3,,,,,,,,,2,,,56,50
19080,note_on,0,0,2,,,,,,,,,1,,,64,51
19080,note_off,0,0,2,,,,,,,,,1,,,64,0
19080,note_off,120,0,2,,,,,,,,,1,,,62,0
19080,note_off,360,0,1,,,,,,,,,0,,,76,0
19140,set_tempo,900,1,0,,,,,,517241,,,,,,,
19200,note_on,480,0,5,,,,,,,,,4,,,33,52
19200,set_tempo,60,1,0,,,,,,508474,,,,,,,
19200,note_on,0,0,1,,,,,,,,,0,,,73,52
19200,note_off,120,0,1,,,,,,,,,0,,,74,0
19200,note_on,480,0,4,,,,,,,,,3,,,45,52
19200,control_change,120,0,3,,,,,,,64,0,2,,,,
19200,note_on,0,0,3,,,,,,,,,2,,,52,50
19200,note_off,0,0,3,,,,,,,,,2,,,56,0
19200,note_off,120,0,2,,,,,,,,,1,,,64,0
19200,note_on,0,0,2,,,,,,,,,1,,,64,52
19240,control_change,40,0,3,,,,,,,64,127,2,,,,
19320,note_on,0,0,3,,,,,,,,,2,,,57,50
19320,note_off,80,0,3,,,,,,,,,2,,,52,0
19434,note_off,234,0,1,,,,,,,,,0,,,73,0
19440,note_off,120,0,3,,,,,,,,,2,,,57,0
19440,note_on,0,0,3,,,,,,,,,2,,,61,50
19560,note_off,120,0,3,,,,,,,,,2,,,61,0
19560,note_on,0,0,3,,,,,,,,,2,,,57,50
19560,note_on,126,0,1,,,,,,,,,0,,,76,53
19560,note_off,360,0,2,,,,,,,,,1,,,64,0
19638,note_off,78,0,1,,,,,,,,,0,,,76,0
19680,note_off,480,0,5,,,,,,,,,4,,,33,0
19680,note_on,0,0,3,,,,,,,,,2,,,52,51
19680,note_off,0,0,3,,,,,,,,,2,,,57,0
19680,control_change,120,0,3,,,,,,,64,0,2,,,,
19680,note_on,42,0,1,,,,,,,,,0,,,81,53
19680,note_off,480,0,4,,,,,,,,,3,,,45,0
19720,control_change,40,0,3,,,,,,,64,127,2,,,,
19800,note_off,80,0,3,,,,,,,,,2,,,52,0
19800,note_on,0,0,3,,,,,,,,,2,,,57,51
19920,note_on,0,0,3,,,,,,,,,2,,,61,51
19920,note_off,120,0,3,,,,,,,,,2,,,57,0
20040,note_off,120,0,3,,,,,,,,,2,,,61,0
20040,note_on,0,0,3,,,,,,,,,2,,,57,51
20160,control_change,120,0,3,,,,,,,64,0,2,,,,
20160,note_on,0,0,3,,,,,,,,,2,,,55,51
20160,note_off,0,0,3,,,,,,,,,2,,,57,0
20200,control_change,40,0,3,,,,,,,64,127,2,,,,
20280,note_off,80,0,3,,,,,,,,,2,,,55,0
20280,note_on,0,0,3,,,,,,,,,2,,,57,52
20400,note_on,0,0,1,,,,,,,,,0,,,82,55
20400,note_off,120,0,3,,,,,,,,,2,,,57,0
20400,note_on,0,0,3,,,,,,,,,2,,,61,52
20400,note_off,720,0,1,,,,,,,,,0,,,81,0
20520,note_off,120,0,1,,,,,,,,,0,,,82,0
20520,note_on,0,0,1,,,,,,,,,0,,,81,55
20520,note_off,120,0,3,,,,,,,,,2,,,61,0
20520,note_on,0,0,3,,,,,,,,,2,,,57,52
20640,note_on,960,0,4,,,,,,,,,3,,,53,56
20640,note_off,120,0,1,,,,,,,,,0,,,81,0
20640,note_on,0,0,1,,,,,,,,,0,,,81,56
20640,control_change,120,0,3,,,,,,,64,0,2,,,,
20640,note_off,0,0,3,,,,,,,,,2,,,57,0
20640,note_on,0,0,3,,,,,,,,,2,,,38,52
20640,note_on,960,0,5,,,,,,,,,4,,,62,56
20640,note_on,0,0,4,,,,,,,,,3,,,57,56
20680,control_change,40,0,3,,,,,,,64,127,2,,,,
20760,note_off,80,0,3,,,,,,,,,2,,,38,0
20760,note_on,0,0,3,,,,,,,,,2,,,45,52
20760,note_off,120,0,1,,,,,,,,,0,,,81,0
20760,note_on,0,0,1,,,,,,,,,0,,,79,56
20874,note_off,234,0,5,,,,,,,,,4,,,62,0
20874,note_off,0,0,4,,,,,,,,,3,,,53,0
20874,note_off,234,0,4,,,,,,,,,3,,,57,0
20880,note_off,120,0,1,,,,,,,,,0,,,79,0
20880,note_off,120,0,3,,,,,,,,,2,,,45,0
20880,note_on,0,0,3,,,,,,,,,2,,,33,53
20880,note_on,0,0,1,,,,,,,,,0,,,77,56
21000,note_on,0,0,1,,,,,,,,,0,,,76,57
21000,note_off,120,0,1,,,,,,,,,0,,,77,0
21000,note_on,0,0,4,,,,,,,,,3,,,57,57
21000,note_on,126,0,4,,,,,,,,,3,,,61,57
21000,note_on,0,0,3,,,,,,,,,2,,,45,53
21000,note_off,120,0,3,,,,,,,,,2,,,33,0
21000,note_on,126,0,5,,,,,,,,,4,,,64,57
21067,set_tempo,1867,1,0,,,,,,517241,,,,,,,
21078,note_off,78,0,4,,,,,,,,,3,,,57,0
21078,note_off,0,0,4,,,,,,,,,3,,,61,0
21078,note_off,78,0,5,,,,,,,,,4,,,64,0
21120,note_on,42,0,4,,,,,,,,,3,,,62,57
21120,note_on,0,0,4,,,,,,,,,3,,,57,57
21120,note_off,120,0,1,,,,,,,,,0,,,76,0
21120,note_on,42,0,5,,,,,,,,,4,,,65,57
21120,set_tempo,53,1,0,,,,,,508474,,,,,,,
21120,note_on,0,0,3,,,,,,,,,2,,,38,53
21120,note_off,0,0,3,,,,,,,,,2,,,45,0
21120,note_on,0,0,1,,,,,,,,,0,,,74,57
21120,control_change,120,0,3,,,,,,,64,0,2,,,,
21160,control_change,40,0,3,,,,,,,64,127,2,,,,
21240,note_off,80,0,3,,,,,,,,,2,,,38,0
21240,note_on,0,0,3,,,,,,,,,2,,,45,53
21360,note_on,0,0,3,,,,,,,,,2,,,50,53
21360,note_off,120,0,3,,,,,,,,,2,,,45,0
21480,note_on,0,0,3,,,,,,,,,2,,,45,54
21480,note_off,360,0,1,,,,,,,,,0,,,74,0
21480,note_off,120,0,3,,,,,,,,,2,,,50,0
21600,note_on,0,0,3,,,,,,,,,2,,,38,54
21600,control_change,120,0,3,,,,,,,64,0,2,,,,
21600,note_on,120,0,1,,,,,,,,,0,,,74,58
21600,note_on,0,0,1,,,,,,,,,0,,,86,58
21600,note_off,0,0,3,,,,,,,,,2,,,45,0
21640,control_change,40,0,3,,,,,,,64,127,2,,,,
21720,note_on,0,0,3,,,,,,,,,2,,,45,54
21720,note_off,80,0,3,,,,,,,,,2,,,38,0
21834,note_off,234,0,1,,,,,,,,,0,,,86,0
21834,note_off,0,0,1,,,,,,,,,0,,,74,0
21840,note_off,120,0,3,,,,,,,,,2,,,45,0
21840,note_on,0,0,3,,,,,,,,,2,,,50,54
21960,note_on,126,0,1,,,,,,,,,0,,,76,60
21960,note_on,0,0,2,,,,,,,,,1,,,85,60
21960,note_on,2400,0,2,,,,,,,,,1,,,73,60
21960,note_off,120,0,3,,,,,,,,,2,,,50,0
21960,note_on,0,0,1,,,,,,,,,0,,,88,60
21960,note_on,0,0,3,,,,,,,,,2,,,45,54
22020,set_tempo,900,1,0,,,,,,517241,,,,,,,
22038,note_off,0,0,2,,,,,,,,,1,,,73,0
22038,note_off,78,0,1,,,,,,,,,0,,,88,0
22038,note_off,78,0,2,,,,,,,,,1,,,85,0
22038,note_off,0,0,1,,,,,,,,,0,,,76,0
22080,set_tempo,60,1,0,,,,,,508474,,,,,,,
22080,note_on,0,0,2,,,,,,,,,1,,,86,60
22080,note_on,42,0,2,,,,,,,,,1,,,74,60
22080,note_on,42,0,1,,,,,,,,,0,,,77,60
22080,note_on,0,0,1,,,,,,,,,0,,,89,60
22080,control_change,120,0,3,,,,,,,64,0,2,,,,
22080,note_off,0,0,3,,,,,,,,,2,,,45,0
22080,note_on,0,0,3,,,,,,,,,2,,,38,55
22120,control_change,40,0,3,,,,,,,64,127,2,,,,
22200,note_on,0,0,3,,,,,,,,,2,,,45,55
22200,note_off,80,0,3,,,,,,,,,2,,,38,0
22320,note_on,0,0,3,,,,,,,,,2,,,50,55
22320,note_off,120,0,3,,,,,,,,,2,,,45,0
22440,note_off,120,0,3,,,,,,,,,2,,,50,0
22440,note_on,0,0,3,,,,,,,,,2,,,45,55
22440,note_off,0,0,2,,,,,,,,,1,,,74,0
22440,note_off,360,0,1,,,,,,,,,0,,,89,0
22440,note_off,0,0,1,,,,,,,,,0,,,77,0
22440,note_off,360,0,2,,,,,,,,,1,,,86,0
22560,note_on,0,0,5,,,,,,,,,4,,,62,61
22560,note_off,1440,0,5,,,,,,,,,4,,,65,0
22560,note_on,0,0,3,,,,,,,,,2,,,38,55
22560,control_change,120,0,3,,,,,,,64,0,2,,,,
22560,note_off,0,0,3,,,,,,,,,2,,,45,0
22560,note_on,0,0,4,,,,,,,,,3,,,57,61
22560,note_off,1440,0,4,,,,,,,,,3,,,57,0
22560,note_off,0,0,4,,,,,,,,,3,,,62,0
22560,note_on,0,0,4,,,,,,,,,3,,,53,61
22600,control_change,40,0,3,,,,,,,64,127,2,,,,
22680,note_off,80,0,3,,,,,,,,,2,,,38,0
22680,note_on,0,0,3,,,,,,,,,2,,,45,56
22794,note_off,234,0,5,,,,,,,,,4,,,62,0
22794,note_off,0,0,4,,,,,,,,,3,,,57,0
22794,note_off,234,0,4,,,,,,,,,3,,,53,0
22800,note_off,120,0,3,,,,,,,,,2,,,45,0
22800,note_on,0,0,3,,,,,,,,,2,,,33,56
22920,note_off,120,0,3,,,,,,,,,2,,,33,0
22920,note_on,126,0,4,,,,,,,,,3,,,61,62
22920,note_on,126,0,5,,,,,,,,,4,,,64,62
22920,note_on,0,0,3,,,,,,,,,2,,,45,56
22920,note_on,0,0,4,,,,,,,,,3,,,57,62
22998,note_off,78,0,5,,,,,,,,,4,,,64,0
22998,note_off,0,0,4,,,,,,,,,3,,,61,0
22998,note_off,78,0,4,,,,,,,,,3,,,57,0
23002,set_tempo,922,1,0,,,,,,517241,,,,,,,
23040,control_change,120,0,3,,,,,,,64,0,2,,,,
23040,note_on,0,0,4,,,,,,,,,3,,,57,63
23040,set_tempo,38,1,0,,,,,,508474,,,,,,,
23040,note_on,0,0,3,,,,,,,,,2,,,38,56
23040,note_on,42,0,4,,,,,,,,,3,,,62,63
23040,note_on,42,0,5,,,,,,,,,4,,,65,63
23040,note_off,0,0,3,,,,,,,,,2,,,45,0
23080,control_change,40,0,3,,,,,,,64,127,2,,,,
23160,note_on,0,0,3,,,,,,,,,2,,,45,56
23160,note_off,80,0,3,,,,,,,,,2,,,38,0
23280,note_off,120,0,3,,,,,,,,,2,,,45,0
23280,note_on,0,0,3,,,,,,,,,2,,,50,57
23400,note_off,120,0,3,,,,,,,,,2,,,50,0
23400,note_on,0,0,3,,,,,,,,,2,,,45,57
23520,note_on,1080,0,1,,,,,,,,,0,,,86,64
23520,note_on,0,0,1,,,,,,,,,0,,,74,64
23520,note_on,0,0,3,,,,,,,,,2,,,38,57
23520,note_off,0,0,3,,,,,,,,,2,,,45,0
23520,control_change,120,0,3,,,,,,,64,0,2,,,,
23560,control_change,40,0,3,,,,,,,64,127,2,,,,
23640,note_on,0,0,3,,,,,,,,,2,,,45,57
23640,note_off,80,0,3,,,,,,,,,2,,,38,0
23754,note_off,234,0,1,,,,,,,,,0,,,74,0
23754,note_off,0,0,1,,,,,,,,,0,,,86,0
23760,note_off,120,0,3,,,,,,,,,2,,,45,0
23760,note_on,0,0,3,,,,,,,,,2,,,50,57
23880,note_on,0,0,3,,,,,,,,,2,,,45,58
23880,note_on,0,0,2,,,,,,,,,1,,,73,65
23880,note_on,0,0,1,,,,,,,,,0,,,76,65
23880,note_on,126,0,1,,,,,,,,,0,,,88,65
23880,note_on,1440,0,2,,,,,,,,,1,,,85,65
23880,note_off,120,0,3,,,,,,,,,2,,,50,0
23940,set_tempo,900,1,0,,,,,,517241,,,,,,,
23958,note_off,0,0,2,,,,,,,,,1,,,85,0
23958,note_off,78,0,2,,,,,,,,,1,,,73,0
23958,note_off,78,0,1,,,,,,,,,0,,,76,0
23958,note_off,0,0,1,,,,,,,,,0,,,88,0
24000,note_on,42,0,2,,,,,,,,,1,,,86,65
24000,note_on,0,0,2,,,,,,,,,1,,,74,65
24000,control_change,120,0,3,,,,,,,64,0,2,,,,
24000,set_tempo,60,1,0,,,,,,508474,,,,,,,
24000,note_on,0,0,1,,,,,,,,,0,,,77,65
24000,note_on,42,0,1,,,,,,,,,0,,,89,65
24000,note_off,0,0,3,,,,,,,,,2,,,45,0
24000,note_on,0,0,3,,,,,,,,,2,,,38,58
24040,control_change,40,0,3,,,,,,,64,127,2,,,,
24120,note_off,80,0,3,,,,,,,,,2,,,38,0
24120,note_on,0,0,3,,,,,,,,,2,,,45,58
24240,note_on,0,0,3,,,,,,,,,2,,,50,58
24240,note_off,120,0,3,,,,,,,,,2,,,45,0
24360,note_off,0,0,1,,,,,,,,,0,,,89,0
24360,note_off,360,0,1,,,,,,,,,0,,,77,0
24360,note_off,360,0,2,,,,,,,,,1,,,74,0
24360,note_off,120,0,3,,,,,,,,,2,,,50,0
24360,note_on,0,0,3,,,,,,,,,2,,,45,58
24360,note_off,0,0,2,,,,,,,,,1,,,86,0
24480,note_off,0,0,3,,,,,,,,,2,,,45,0
24480,note_on,0,0,1,,,,,,,,,0,,,65,67
24480,note_on,120,0,1,,,,,,,,,0,,,77,67
24480,note_off,1440,0,4,,,,,,,,,3,,,57,0
24480,control_change,120,0,3,,,,,,,64,0,2,,,,
24480,note_off,1440,0,5,,,,,,,,,4,,,65,0
24480,note_off,0,0,4,,,,,,,,,3,,,62,0
24480,note_on,0,0,3,,,,,,,,,2,,,38,59
24520,control_change,40,0,3,,,,,,,64,127,2,,,,
24600,note_on,0,0,3,,,,,,,,,2,,,50,59
24600,note_off,80,0,3,,,,,,,,,2,,,38,0
24714,note_off,234,0,1,,,,,,,,,0,,,65,0
24714,note_off,0,0,1,,,,,,,,,0,,,77,0
24720,note_off,120,0,3,,,,,,,,,2,,,50,0
24720,note_on,0,0,3,,,,,,,,,2,,,36,59
24840,note_off,120,0,3,,,,,,,,,2,,,36,0
24840,note_on,0,0,3,,,,,,,,,2,,,48,59
24840,note_on,0,0,2,,,,,,,,,1,,,64,68
24840,note_on,480,0,2,,,,,,,,,1,,,76,68
24840,note_on,126,0,1,,,,,,,,,0,,,67,68
24840,note_on,0,0,1,,,,,,,,,0,,,79,68
24907,set_tempo,907,1,0,,,,,,517241,,,,,,,
24918,note_off,0,0,1,,,,,,,,,0,,,67,0
24918,note_off,78,0,1,,,,,,,,,0,,,79,0
24918,note_off,78,0,2,,,,,,,,,1,,,64,0
24918,note_off,0,0,2,,,,,,,,,1,,,76,0
24960,note_on,0,0,2,,,,,,,,,1,,,65,68
24960,note_on,0,0,3,,,,,,,,,2,,,29,59
24960,note_off,0,0,3,,,,,,,,,2,,,48,0
24960,note_on,42,0,2,,,,,,,,,1,,,77,68
24960,control_change,120,0,3,,,,,,,64,0,2,,,,
24960,note_on,0,0,1,,,,,,,,,0,,,81,68
24960,set_tempo,53,1,0,,,,,,508474,,,,,,,
24960,note_on,42,0,1,,,,,,,,,0,,,69,68
25000,control_change,40,0,3,,,,,,,64,127,2,,,,
25080,note_on,0,0,3,,,,,,,,,2,,,36,60
25080,note_off,80,0,3,,,,,,,,,2,,,29,0
25200,note_on,0,0,3,,,,,,,,,2,,,41,60
25200,note_off,120,0,3,,,,,,,,,2,,,36,0
25320,note_off,120,0,3,,,,,,,,,2,,,41,0
25320,note_on,0,0,3,,,,,,,,,2,,,36,60
25440,note_off,0,0,3,,,,,,,,,2,,,36,0
25440,note_on,0,0,3,,,,,,,,,2,,,29,60
25440,note_on,960,0,4,,,,,,,,,3,,,45,69
25440,note_on,960,0,5,,,,,,,,,4,,,53,69
25440,control_change,120,0,3,,,,,,,64,0,2,,,,
25480,control_change,40,0,3,,,,,,,64,127,2,,,,
25560,note_off,80,0,3,,,,,,,,,2,,,29,0
25560,note_on,0,0,3,,,,,,,,,2,,,36,61
25674,note_off,234,0,4,,,,,,,,,3,,,45,0
25674,note_off,234,0,5,,,,,,,,,4,,,53,0
25680,note_off,120,0,3,,,,,,,,,2,,,36,0
25680,note_on,0,0,3,,,,,,,,,2,,,41,61
25800,note_on,126,0,5,,,,,,,,,4,,,55,71
25800,note_on,126,0,4,,,,,,,,,3,,,48,71
25800,note_off,120,0,3,,,,,,,,,2,,,41,0
25800,note_on,0,0,3,,,,,,,,,2,,,36,61
25860,set_tempo,900,1,0,,,,,,517241,,,,,,,
25878,note_off,78,0,4,,,,,,,,,3,,,48,0
25878,note_off,78,0,5,,,,,,,,,4,,,55,0
25920,set_tempo,60,1,0,,,,,,508474,,,,,,,
25920,note_on,42,0,5,,,,,,,,,4,,,57,71
25920,note_on,42,0,4,,,,,,,,,3,,,53,71
25920,note_off,0,0,3,,,,,,,,,2,,,36,0
25920,note_on,0,0,3,,,,,,,,,2,,,29,61
25920,control_change,120,0,3,,,,,,,64,0,2,,,,
25960,control_change,40,0,3,,,,,,,64,127,2,,,,
26040,note_off,80,0,3,,,,,,,,,2,,,29,0
26040,note_on,0,0,3,,,,,,,,,2,,,36,61
26160,note_off,120,0,3,,,,,,,,,2,,,36,0
26160,note_on,0,0,3,,,,,,,,,2,,,41,62
26280,note_off,360,0,5,,,,,,,,,4,,,57,0
26280,note_off,120,0,3,,,,,,,,,2,,,41,0
26280,note_on,0,0,3,,,,,,,,,2,,,36,62
26280,note_off,360,0,4,,,,,,,,,3,,,53,0
26400,control_change,120,0,3,,,,,,,64,0,2,,,,
26400,note_off,0,0,3,,,,,,,,,2,,,36,0
26400,note_on,0,0,3,,,,,,,,,2,,,29,62
26400,note_on,0,0,1,,,,,,,,,0,,,77,72
26400,note_on,0,0,1,,,,,,,,,0,,,65,72
26400,note_off,0,0,1,,,,,,,,,0,,,69,0
26400,note_off,1440,0,1,,,,,,,,,0,,,81,0
26400,note_off,0,0,2,,,,,,,,,1,,,77,0
26400,note_off,1440,0,2,,,,,,,,,1,,,65,0
26440,control_change,40,0,3,,,,,,,64,127,2,,,,
26520,note_on,0,0,3,,,,,,,,,2,,,36,62
26520,note_off,80,0,3,,,,,,,,,2,,,29,0
26634,note_off,234,0,1,,,,,,,,,0,,,77,0
26634,note_off,0,0,1,,,,,,,,,0,,,65,0
26640,note_on,0,0,3,,,,,,,,,2,,,41,62
26640,note_off,120,0,3,,,,,,,,,2,,,36,0
26760,note_off,120,0,3,,,,,,,,,2,,,41,0
26760,note_on,126,0,1,,,,,,,,,0,,,79,73
26760,note_on,0,0,1,,,,,,,,,0,,,67,73
26760,note_on,0,0,2,,,,,,,,,1,,,76,73
26760,note_on,360,0,2,,,,,,,,,1,,,64,73
26760,note_on,0,0,3,,,,,,,,,2,,,36,63
26827,set_tempo,907,1,0,,,,,,517241,,,,,,,
26838,note_off,0,0,1,,,,,,,,,0,,,79,0
26838,note_off,78,0,1,,,,,,,,,0,,,67,0
26838,note_off,0,0,2,,,,,,,,,1,,,64,0
26838,note_off,78,0,2,,,,,,,,,1,,,76,0
26880,control_change,120,0,3,,,,,,,64,0,2,,,,
26880,note_on,0,0,2,,,,,,,,,1,,,65,74
26880,note_on,42,0,2,,,,,,,,,1,,,77,74
26880,note_on,42,0,1,,,,,,,,,0,,,69,74
26880,note_on,0,0,1,,,,,,,,,0,,,81,74
26880,note_off,0,0,3,,,,,,,,,2,,,36,0
26880,set_tempo,53,1,0,,,,,,508474,,,,,,,
26880,note_on,0,0,3,,,,,,,,,2,,,29,63
26920,control_change,40,0,3,,,,,,,64,127,2,,,,
27000,note_on,0,0,3,,,,,,,,,2,,,36,63
27000,note_off,80,0,3,,,,,,,,,2,,,29,0
27120,note_on,0,0,3,,,,,,,,,2,,,41,63
27120,note_off,120,0,3,,,,,,,,,2,,,36,0
27240,note_off,120,0,3,,,,,,,,,2,,,41,0
27240,note_off,360,0,1,,,,,,,,,0,,,81,0
27240,note_on,0,0,3,,,,,,,,,2,,,36,63
27240,note_off,360,0,2,,,,,,,,,1,,,65,0
27240,note_off,0,0,1,,,,,,,,,0,,,69,0
27240,note_off,0,0,2,,,,,,,,,1,,,77,0
27360,note_on,1080,0,5,,,,,,,,,4,,,53,75
27360,note_on,1080,0,4,,,,,,,,,3,,,45,75
27360,note_on,0,0,3,,,,,,,,,2,,,29,64
27360,note_off,0,0,3,,,,,,,,,2,,,36,0
27360,note_on,0,0,1,,,,,,,,,0,,,65,75
27360,control_change,120,0,3,,,,,,,64,0,2,,,,
27360,note_on,120,0,1,,,,,,,,,0,,,77,75
27400,control_change,40,0,3,,,,,,,64,127,2,,,,
27480,note_off,80,0,3,,,,,,,,,2,,,29,0
27480,note_on,0,0,3,,,,,,,,,2,,,36,64
27594,note_off,234,0,1,,,,,,,,,0,,,65,0
27594,note_off,0,0,1,,,,,,,,,0,,,77,0
27594,note_off,234,0,4,,,,,,,,,3,,,45,0
27594,note_off,234,0,5,,,,,,,,,4,,,53,0
27600,note_off,120,0,3,,,,,,,,,2,,,36,0
27600,note_on,0,0,3,,,,,,,,,2,,,41,64
27720,note_on,126,0,1,,,,,,,,,0,,,67,76
27720,note_off,120,0,3,,,,,,,,,2,,,41,0
27720,note_on,0,0,2,,,,,,,,,1,,,64,76
27720,note_on,126,0,5,,,,,,,,,4,,,55,76
27720,note_on,126,0,4,,,,,,,,,3,,,48,76
27720,note_on,0,0,3,,,,,,,,,2,,,36,64
27720,note_on,480,0,2,,,,,,,,,1,,,76,76
27720,note_on,0,0,1,,,,,,,,,0,,,79,76
27780,set_tempo,900,1,0,,,,,,517241,,,,,,,
27798,note_off,78,0,2,,,,,,,,,1,,,64,0
27798,note_off,0,0,2,,,,,,,,,1,,,76,0
27798,note_off,78,0,1,,,,,,,,,0,,,79,0
27798,note_off,78,0,5,,,,,,,,,4,,,55,0
27798,note_off,78,0,4,,,,,,,,,3,,,48,0
27798,note_off,0,0,1,,,,,,,,,0,,,67,0
27840,note_on,42,0,5,,,,,,,,,4,,,57,76
27840,note_on,42,0,4,,,,,,,,,3,,,53,76
27840,note_on,0,0,1,,,,,,,,,0,,,69,76
27840,control_change,120,0,3,,,,,,,64,0,2,,,,
27840,note_off,0,0,3,,,,,,,,,2,,,36,0
27840,note_on,0,0,3,,,,,,,,,2,,,29,64
27840,note_on,42,0,2,,,,,,,,,1,,,65,76
27840,note_on,0,0,2,,,,,,,,,1,,,77,76
27840,set_tempo,60,1,0,,,,,,508474,,,,,,,
27840,note_on,42,0,1,,,,,,,,,0,,,81,76
27880,control_change,40,0,3,,,,,,,64,127,2,,,,
27960,note_off,80,0,3,,,,,,,,,2,,,29,0
27960,note_on,0,0,3,,,,,,,,,2,,,36,65
28080,note_off,120,0,3,,,,,,,,,2,,,36,0
28080,note_on,0,0,3,,,,,,,,,2,,,41,65
28200,note_off,360,0,1,,,,,,,,,0,,,69,0
28200,note_off,360,0,4,,,,,,,,,3,,,53,0
28200,note_off,120,0,3,,,,,,,,,2,,,41,0
28200,note_on,0,0,3,,,,,,,,,2,,,36,65
28200,note_off,360,0,5,,,,,,,,,4,,,57,0
28200,note_off,0,0,2,,,,,,,,,1,,,65,0
28200,note_off,0,0,1,,,,,,,,,0,,,81,0
28200,note_off,360,0,2,,,,,,,,,1,,,77,0
28320,note_on,120,0,4,,,,,,,,,3,,,45,77
28320,note_on,120,0,5,,,,,,,,,4,,,53,77
28320,note_on,0,0,1,,,,,,,,,0,,,65,77
28320,control_change,120,0,3,,,,,,,64,0,2,,,,
28320,note_on,0,0,3,,,,,,,,,2,,,29,65
28320,note_on,120,0,1,,,,,,,,,0,,,77,77
28320,note_off,0,0,3,,,,,,,,,2,,,36,0
28360,control_change,40,0,3,,,,,,,64,127,2,,,,
28440,note_off,80,0,3,,,,,,,,,2,,,29,0
28440,note_on,0,0,3,,,,,,,,,2,,,36,65
28554,note_off,234,0,5,,,,,,,,,4,,,53,0
28554,note_off,234,0,1,,,,,,,,,0,,,65,0
28554,note_off,0,0,1,,,,,,,,,0,,,77,0
28554,note_off,234,0,4,,,,,,,,,3,,,45,0
28560,note_on,0,0,3,,,,,,,,,2,,,41,66
28560,note_off,120,0,3,,,,,,,,,2,,,36,0
28680,note_on,126,0,4,,,,,,,,,3,,,48,83
28680,note_on,0,0,2,,,,,,,,,1,,,64,83
28680,note_off,120,0,3,,,,,,,,,2,,,41,0
28680,note_on,126,0,1,,,,,,,,,0,,,67,83
28680,note_on,480,0,2,,,,,,,,,1,,,76,83
28680,note_on,126,0,5,,,,,,,,,4,,,55,83
28680,note_on,0,0,3,,,,,,,,,2,,,36,66
28680,note_on,0,0,1,,,,,,,,,0,,,79,83
28747,set_tempo,907,1,0,,,,,,517241,,,,,,,
28758,note_off,0,0,2,,,,,,,,,1,,,76,0
28758,note_off,78,0,2,,,,,,,,,1,,,64,0
28758,note_off,78,0,1,,,,,,,,,0,,,79,0
28758,note_off,0,0,1,,,,,,,,,0,,,67,0
28758,note_off,78,0,5,,,,,,,,,4,,,55,0
28758,note_off,78,0,4,,,,,,,,,3,,,48,0
28800,note_on,42,0,4,,,,,,,,,3,,,53,86
28800,note_on,0,0,2,,,,,,,,,1,,,77,86
28800,note_on,42,0,2,,,,,,,,,1,,,65,86
28800,note_on,42,0,5,,,,,,,,,4,,,57,86
28800,control_change,120,0,3,,,,,,,64,0,2,,,,
28800,note_off,0,0,3,,,,,,,,,2,,,36,0
28800,set_tempo,53,1,0,,,,,,508474,,,,,,,
28800,note_on,42,0,1,,,,,,,,,0,,,81,86
28800,note_on,0,0,1,,,,,,,,,0,,,69,86
29160,note_off,0,0,1,,,,,,,,,0,,,81,0
29160,note_off,360,0,1,,,,,,,,,0,,,69,0
29160,note_off,360,0,5,,,,,,,,,4,,,57,0
29160,note_off,0,0,2,,,,,,,,,1,,,65,0
29160,note_off,360,0,4,,,,,,,,,3,,,53,0
29160,note_off,360,0,2,,,,,,,,,1,,,77,0
29220,set_tempo,420,1,0,,,,,,517241,,,,,,,
29280,note_on,0,0,1,,,,,,,,,0,,,62,79
29280,note_on,120,0,1,,,,,,,,,0,,,74,79
29280,note_on,120,0,5,,,,,,,,,4,,,50,79
29280,set_tempo,60,1,0,,,,,,508474,,,,,,,
29280,note_on,0,0,5,,,,,,,,,4,,,38,79
29514,note_off,0,0,1,,,,,,,,,0,,,74,0
29514,note_off,234,0,1,,,,,,,,,0,,,62,0
29514,note_off,234,0,5,,,,,,,,,4,,,38,0
29514,note_off,0,0,5,,,,,,,,,4,,,50,0
29640,note_on,126,0,1,,,,,,,,,0,,,76,81
29640,note_on,0,0,1,,,,,,,,,0,,,64,81
29640,note_on,0,0,5,,,,,,,,,4,,,40,81
29640,note_on,126,0,5,,,,,,,,,4,,,52,81
29700,set_tempo,420,1,0,,,,,,517241,,,,,,,
29718,note_off,0,0,1,,,,,,,,,0,,,76,0
29718,note_off,78,0,1,,,,,,,,,0,,,64,0
29718,note_off,0,0,5,,,,,,,,,4,,,52,0
29718,note_off,78,0,5,,,,,,,,,4,,,40,0
29760,set_tempo,60,1,0,,,,,,508474,,,,,,,
29760,note_on,0,0,1,,,,,,,,,0,,,65,86
29760,note_on,42,0,1,,,,,,,,,0,,,77,86
29760,note_on,42,0,5,,,,,,,,,4,,,53,86
29760,note_on,0,0,5,,,,,,,,,4,,,41,86
30120,note_off,0,0,1,,,,,,,,,0,,,77,0
30120,note_off,360,0,5,,,,,,,,,4,,,41,0
30120,note_off,0,0,5,,,,,,,,,4,,,53,0
30120,note_off,360,0,1,,,,,,,,,0,,,65,0
30172,set_tempo,412,1,0,,,,,,517241,,,,,,,
30240,note_on,0,0,1,,,,,,,,,0,,,71,79
30240,note_on,120,0,1,,,,,,,,,0,,,59,79
30240,note_on,0,0,5,,,,,,,,,4,,,47,79
30240,note_on,120,0,5,,,,,,,,,4,,,35,79
30240,set_tempo,68,1,0,,,,,,508474,,,,,,,
30474,note_off,0,0,1,,,,,,,,,0,,,59,0
30474,note_off,0,0,5,,,,,,,,,4,,,35,0
30474,note_off,234,0,5,,,,,,,,,4,,,47,0
30474,note_off,234,0,1,,,,,,,,,0,,,71,0
30600,note_on,126,0,5,,,,,,,,,4,,,48,82
30600,note_on,126,0,1,,,,,,,,,0,,,72,82
30600,note_on,0,0,1,,,,,,,,,0,,,60,82
30600,note_on,0,0,5,,,,,,,,,4,,,36,82
30660,set_tempo,420,1,0,,,,,,517241,,,,,,,
30678,note_off,78,0,5,,,,,,,,,4,,,36,0
30678,note_off,0,0,5,,,,,,,,,4,,,48,0
30678,note_off,78,0,1,,,,,,,,,0,,,60,0
30678,note_off,0,0,1,,,,,,,,,0,,,72,0
30720,set_tempo,60,1,0,,,,,,508474,,,,,,,
30720,note_on,42,0,5,,,,,,,,,4,,,38,83
30720,note_on,0,0,1,,,,,,,,,0,,,62,83
30720,note_on,42,0,1,,,,,,,,,0,,,74,83
30720,note_on,0,0,3,,,,,,,,,2,,,50,81
30720,control_change,1920,0,3,,,,,,,64,0,2,,,,
30760,control_change,40,0,3,,,,,,,64,127,2,,,,
30840,note_on,0,0,3,,,,,,,,,2,,,47,80
30840,note_off,80,0,3,,,,,,,,,2,,,50,0
30960,note_on,0,0,3,,,,,,,,,2,,,50,79
30960,note_off,120,0,3,,,,,,,,,2,,,47,0
31080,note_off,0,0,1,,,,,,,,,0,,,74,0
31080,set_tempo,360,1,0,,,,,,517241,,,,,,,
31080,note_off,120,0,3,,,,,,,,,2,,,50,0
31080,note_off,360,0,5,,,,,,,,,4,,,38,0
31080,note_on,0,0,3,,,,,,,,,2,,,47,78
31080,note_off,360,0,1,,,,,,,,,0,,,62,0
31200,set_tempo,120,1,0,,,,,,508474,,,,,,,
31200,note_on,120,0,5,,,,,,,,,4,,,31,80
31200,note_on,0,0,2,,,,,,,,,1,,,55,80
31200,note_on,2040,0,2,,,,,,,,,1,,,67,80
31200,note_on,0,0,3,,,,,,,,,2,,,43,77
31200,note_off,0,0,3,,,,,,,,,2,,,47,0
31200,control_change,120,0,3,,,,,,,64,0,2,,,,
31240,control_change,40,0,3,,,,,,,64,127,2,,,,
31320,note_on,0,0,3,,,,,,,,,2,,,47,77
31320,note_off,80,0,3,,,,,,,,,2,,,43,0
31434,note_off,0,0,2,,,,,,,,,1,,,67,0
31434,note_off,234,0,2,,,,,,,,,1,,,55,0
31440,note_off,120,0,3,,,,,,,,,2,,,47,0
31440,note_on,0,0,3,,,,,,,,,2,,,50,76
31560,note_on,0,0,3,,,,,,,,,2,,,47,75
31560,note_off,120,0,3,,,,,,,,,2,,,50,0
31560,note_off,360,0,5,,,,,,,,,4,,,31,0
31560,note_on,126,0,2,,,,,,,,,1,,,67,78
31560,note_on,0,0,2,,,,,,,,,1,,,55,78
31620,set_tempo,420,1,0,,,,,,517241,,,,,,,
31638,note_off,0,0,2,,,,,,,,,1,,,67,0
31638,note_off,78,0,2,,,,,,,,,1,,,55,0
31680,note_on,0,0,2,,,,,,,,,1,,,55,78
31680,note_on,42,0,2,,,,,,,,,1,,,67,78
31680,control_change,120,0,3,,,,,,,64,0,2,,,,
31680,note_off,0,0,3,,,,,,,,,2,,,47,0
31680,note_on,0,0,3,,,,,,,,,2,,,43,74
31688,set_tempo,68,1,0,,,,,,508474,,,,,,,
31720,control_change,40,0,3,,,,,,,64,127,2,,,,
31800,note_on,0,0,3,,,,,,,,,2,,,47,75
31800,note_off,80,0,3,,,,,,,,,2,,,43,0
31920,note_on,0,0,3,,,,,,,,,2,,,50,76
31920,note_off,120,0,3,,,,,,,,,2,,,47,0
32040,set_tempo,352,1,0,,,,,,517241,,,,,,,
32040,note_off,120,0,3,,,,,,,,,2,,,50,0
32040,note_on,0,0,3,,,,,,,,,2,,,47,77
32040,note_off,360,0,2,,,,,,,,,1,,,55,0
32040,note_off,0,0,2,,,,,,,,,1,,,67,0
32160,note_on,1080,0,1,,,,,,,,,0,,,62,83
32160,note_on,120,0,2,,,,,,,,,1,,,71,83
32160,control_change,120,0,3,,,,,,,64,0,2,,,,
32160,note_off,0,0,3,,,,,,,,,2,,,47,0
32160,note_on,0,0,3,,,,,,,,,2,,,43,79
32160,note_on,0,0,1,,,,,,,,,0,,,74,83
32160,note_on,0,0,2,,,,,,,,,1,,,55,83
32160,note_on,600,0,5,,,,,,,,,4,,,31,83
32200,control_change,40,0,3,,,,,,,64,127,2,,,,
32280,note_off,80,0,3,,,,,,,,,2,,,43,0
32280,note_on,0,0,3,,,,,,,,,2,,,47,80
32394,note_off,234,0,5,,,,,,,,,4,,,31,0
32400,note_off,120,0,3,,,,,,,,,2,,,47,0
32400,note_on,0,0,3,,,,,,,,,2,,,50,81
32520,note_off,0,0,2,,,,,,,,,1,,,71,0
32520,note_off,360,0,2,,,,,,,,,1,,,55,0
32520,set_tempo,480,1,0,,,,,,526315,,,,,,,
32520,note_off,360,0,1,,,,,,,,,0,,,74,0
32520,note_off,0,0,1,,,,,,,,,0,,,62,0
32520,note_on,0,0,3,,,,,,,,,2,,,47,83
32520,note_off,120,0,3,,,,,,,,,2,,,50,0
32520,note_on,126,0,5,,,,,,,,,4,,,31,86
32598,note_off,78,0,5,,,,,,,,,4,,,31,0
32640,control_change,120,0,3,,,,,,,64,0,2,,,,
32640,note_on,0,0,1,,,,,,,,,0,,,76,92
32640,note_on,42,0,5,,,,,,,,,4,,,36,92
32640,set_tempo,120,1,0,,,,,,508474,,,,,,,
32640,note_on,120,0,2,,,,,,,,,1,,,72,92
32640,note_on,0,0,2,,,,,,,,,1,,,60,92
32640,note_on,120,0,1,,,,,,,,,0,,,64,92
32640,note_off,0,0,3,,,,,,,,,2,,,47,0
32640,note_on,0,0,3,,,,,,,,,2,,,43,89
32680,control_change,40,0,3,,,,,,,64,127,2,,,,
32760,note_on,0,0,3,,,,,,,,,2,,,48,89
32760,note_off,80,0,3,,,,,,,,,2,,,43,0
32880,note_on,0,0,3,,,,,,,,,2,,,52,88
32880,note_off,120,0,3,,,,,,,,,2,,,48,0
33000,note_on,0,0,3,,,,,,,,,2,,,48,88
33000,note_off,120,0,3,,,,,,,,,2,,,52,0
33000,note_off,360,0,5,,,,,,,,,4,,,36,0
33120,note_on,120,0,5,,,,,,,,,4,,,36,90
33120,note_off,0,0,3,,,,,,,,,2,,,48,0
33120,note_on,0,0,3,,,,,,,,,2,,,43,88
33120,control_change,120,0,3,,,,,,,64,0,2,,,,
33160,control_change,40,0,3,,,,,,,64,127,2,,,,
33240,note_off,80,0,3,,,,,,,,,2,,,43,0
33240,note_on,0,0,3,,,,,,,,,2,,,48,87
33360,note_off,720,0,1,,,,,,,,,0,,,76,0
33360,note_off,0,0,1,,,,,,,,,0,,,64,0
33360,note_on,0,0,1,,,,,,,,,0,,,62,90
33360,note_on,0,0,3,,,,,,,,,2,,,52,87
33360,note_off,720,0,2,,,,,,,,,1,,,60,0
33360,note_off,0,0,2,,,,,,,,,1,,,72,0
33360,note_on,0,0,2,,,,,,,,,1,,,71,90
33360,note_on,0,0,2,,,,,,,,,1,,,59,90
33360,note_on,0,0,1,,,,,,,,,0,,,74,90
33360,note_off,120,0,3,,,,,,,,,2,,,48,0
33480,note_off,120,0,3,,,,,,,,,2,,,52,0
33480,note_on,0,0,3,,,,,,,,,2,,,48,87
33480,note_off,360,0,5,,,,,,,,,4,,,36,0
33600,note_off,240,0,1,,,,,,,,,0,,,74,0
33600,note_off,0,0,1,,,,,,,,,0,,,62,0
33600,note_on,0,0,2,,,,,,,,,1,,,67,89
33600,note_on,0,0,1,,,,,,,,,0,,,72,89
33600,note_off,240,0,2,,,,,,,,,1,,,59,0
33600,note_on,0,0,2,,,,,,,,,1,,,52,89
33600,control_change,120,0,3,,,,,,,64,0,2,,,,
33600,note_off,0,0,3,,,,,,,,,2,,,48,0
33600,note_on,0,0,3,,,,,,,,,2,,,43,86
33600,note_on,0,0,1,,,,,,,,,0,,,60,89
33600,note_off,0,0,2,,,,,,,,,1,,,71,0
33640,control_change,40,0,3,,,,,,,64,127,2,,,,
33720,note_off,80,0,3,,,,,,,,,2,,,43,0
33720,note_on,0,0,3,,,,,,,,,2,,,48,86
33840,note_off,240,0,2,,,,,,,,,1,,,67,0
33840,note_off,0,0,1,,,,,,,,,0,,,60,0
33840,note_on,0,0,1,,,,,,,,,0,,,64,88
33840,note_on,0,0,1,,,,,,,,,0,,,76,88
33840,note_off,0,0,2,,,,,,,,,1,,,52,0
33840,note_on,0,0,2,,,,,,,,,1,,,72,88
33840,note_on,0,0,3,,,,,,,,,2,,,52,85
33840,note_off,120,0,3,,,,,,,,,2,,,48,0
33840,note_off,240,0,1,,,,,,,,,0,,,72,0
33840,note_on,0,0,2,,,,,,,,,1,,,60,88
33960,note_on,0,0,3,,,,,,,,,2,,,48,85
33960,note_off,120,0,3,,,,,,,,,2,,,52,0
33996,note_off,156,0,2,,,,,,,,,1,,,60,0
33996,note_off,0,0,2,,,,,,,,,1,,,72,0
33996,note_off,156,0,1,,,,,,,,,0,,,76,0
33996,note_off,0,0,1,,,,,,,,,0,,,64,0
34080,note_on,84,0,1,,,,,,,,,0,,,67,88
34080,note_on,0,0,1,,,,,,,,,0,,,79,88
34080,note_on,0,0,3,,,,,,,,,2,,,43,85
34080,note_on,84,0,2,,,,,,,,,1,,,76,88
34080,control_change,120,0,3,,,,,,,64,0,2,,,,
34080,note_on,0,0,2,,,,,,,,,1,,,64,88
34080,note_off,0,0,3,,,,,,,,,2,,,48,0
34080,note_on,600,0,5,,,,,,,,,4,,,36,88
34120,control_change,40,0,3,,,,,,,64,127,2,,,,
34200,note_off,80,0,3,,,,,,,,,2,,,43,0
34200,note_on,0,0,3,,,,,,,,,2,,,48,84
34236,note_off,156,0,1,,,,,,,,,0,,,79,0
34236,note_off,156,0,2,,,,,,,,,1,,,64,0
34236,note_off,0,0,2,,,,,,,,,1,,,76,0
34236,note_off,0,0,1,,,,,,,,,0,,,67,0
34314,note_off,234,0,5,,,,,,,,,4,,,36,0
34320,note_on,84,0,1,,,,,,,,,0,,,64,87
34320,note_off,120,0,3,,,,,,,,,2,,,48,0
34320,note_on,0,0,3,,,,,,,,,2,,,52,84
34320,note_on,0,0,1,,,,,,,,,0,,,76,87
34320,note_on,84,0,2,,,,,,,,,1,,,72,87
34320,note_on,0,0,2,,,,,,,,,1,,,60,87
34440,note_off,120,0,3,,,,,,,,,2,,,52,0
34440,note_on,126,0,5,,,,,,,,,4,,,36,87
34440,note_on,0,0,3,,,,,,,,,2,,,48,83
34476,note_off,156,0,1,,,,,,,,,0,,,76,0
34476,note_off,0,0,1,,,,,,,,,0,,,64,0
34476,note_off,0,0,2,,,,,,,,,1,,,72,0
34476,note_off,156,0,2,,,,,,,,,1,,,60,0
34518,note_off,78,0,5,,,,,,,,,4,,,36,0
34560,note_on,0,0,1,,,,,,,,,0,,,74,86
34560,note_on,84,0,1,,,,,,,,,0,,,62,86
34560,note_on,42,0,5,,,,,,,,,4,,,31,86
34560,note_on,84,0,2,,,,,,,,,1,,,71,86
34560,control_change,120,0,3,,,,,,,64,0,2,,,,
34560,note_off,0,0,3,,,,,,,,,2,,,48,0
34560,note_on,0,0,3,,,,,,,,,2,,,43,83
34560,note_on,0,0,2,,,,,,,,,1,,,59,86
34600,control_change,40,0,3,,,,,,,64,127,2,,,,
34680,note_off,80,0,3,,,,,,,,,2,,,43,0
34680,note_on,0,0,3,,,,,,,,,2,,,47,83
34800,note_off,120,0,3,,,,,,,,,2,,,47,0
34800,note_on,0,0,3,,,,,,,,,2,,,50,82
34920,note_off,120,0,3,,,,,,,,,2,,,50,0
34920,note_off,360,0,5,,,,,,,,,4,,,31,0
34920,note_off,360,0,2,,,,,,,,,1,,,59,0
34920,note_off,0,0,2,,,,,,,,,1,,,71,0
34920,note_off,360,0,1,,,,,,,,,0,,,74,0
34920,note_off,0,0,1,,,,,,,,,0,,,62,0
34920,note_on,0,0,3,,,,,,,,,2,,,47,82
35040,note_on,120,0,5,,,,,,,,,4,,,31,85
35040,control_change,120,0,3,,,,,,,64,0,2,,,,
35040,note_on,0,0,3,,,,,,,,,2,,,43,81
35040,note_on,0,0,2,,,,,,,,,1,,,67,85
35040,note_off,0,0,3,,,,,,,,,2,,,47,0
35040,note_on,120,0,2,,,,,,,,,1,,,55,85
35080,control_change,40,0,3,,,,,,,64,127,2,,,,
35160,note_off,80,0,3,,,,,,,,,2,,,43,0
35160,note_on,0,0,3,,,,,,,,,2,,,47,81
35274,note_off,0,0,2,,,,,,,,,1,,,55,0
35274,note_off,234,0,2,,,,,,,,,1,,,67,0
35280,note_off,120,0,3,,,,,,,,,2,,,47,0
35280,note_on,0,0,3,,,,,,,,,2,,,50,81
35400,note_off,360,0,5,,,,,,,,,4,,,31,0
35400,note_on,126,0,2,,,,,,,,,1,,,55,84
35400,note_on,0,0,2,,,,,,,,,1,,,67,84
35400,note_off,120,0,3,,,,,,,,,2,,,50,0
35400,note_on,0,0,3,,,,,,,,,2,,,47,80
35460,set_tempo,2820,1,0,,,,,,517241,,,,,,,
35478,note_off,78,0,2,,,,,,,,,1,,,67,0
35478,note_off,0,0,2,,,,,,,,,1,,,55,0
35520,control_change,120,0,3,,,,,,,64,0,2,,,,
35520,note_on,42,0,2,,,,,,,,,1,,,67,84
35520,note_off,0,0,3,,,,,,,,,2,,,47,0
35520,note_on,0,0,2,,,,,,,,,1,,,55,84
35520,set_tempo,60,1,0,,,,,,508474,,,,,,,
35520,note_on,0,0,3,,,,,,,,,2,,,43,78
35560,control_change,40,0,3,,,,,,,64,127,2,,,,
35640,note_on,0,0,3,,,,,,,,,2,,,47,80
35640,note_off,80,0,3,,,,,,,,,2,,,43,0
35760,note_on,0,0,3,,,,,,,,,2,,,50,81
35760,note_off,120,0,3,,,,,,,,,2,,,47,0
35880,set_tempo,360,1,0,,,,,,517241,,,,,,,
35880,note_off,360,0,2,,,,,,,,,1,,,55,0
35880,note_off,0,0,2,,,,,,,,,1,,,67,0
35880,note_on,0,0,3,,,,,,,,,2,,,47,82
35880,note_off,120,0,3,,,,,,,,,2,,,50,0
36000,note_off,0,0,3,,,,,,,,,2,,,47,0
36000,note_on,0,0,1,,,,,,,,,0,,,62,89
36000,note_on,1080,0,1,,,,,,,,,0,,,74,89
36000,note_on,0,0,3,,,,,,,,,2,,,43,84
36000,control_change,120,0,3,,,,,,,64,0,2,,,,
36000,note_on,600,0,5,,,,,,,,,4,,,31,89
36000,set_tempo,120,1,0,,,,,,508474,,,,,,,
36000,note_on,0,0,2,,,,,,,,,1,,,71,89
36000,note_on,120,0,2,,,,,,,,,1,,,55,89
36040,control_change,40,0,3,,,,,,,64,127,2,,,,
36120,note_off,80,0,3,,,,,,,,,2,,,43,0
36120,note_on,0,0,3,,,,,,,,,2,,,47,85
36234,note_off,234,0,5,,,,,,,,,4,,,31,0
36240,note_off,120,0,3,,,,,,,,,2,,,47,0
36240,note_on,0,0,3,,,,,,,,,2,,,50,87
36360,note_off,120,0,3,,,,,,,,,2,,,50,0
36360,note_on,126,0,5,,,,,,,,,4,,,31,93
36360,note_off,360,0,2,,,,,,,,,1,,,71,0
36360,set_tempo,360,1,0,,,,,,517241,,,,,,,
36360,note_off,360,0,1,,,,,,,,,0,,,62,0
36360,note_off,0,0,2,,,,,,,,,1,,,55,0
36360,note_on,0,0,3,,,,,,,,,2,,,47,88
36360,note_off,0,0,1,,,,,,,,,0,,,74,0
36438,note_off,78,0,5,,,,,,,,,4,,,31,0
36480,note_on,0,0,2,,,,,,,,,1,,,72,99
36480,note_on,0,0,1,,,,,,,,,0,,,64,99
36480,control_change,120,0,3,,,,,,,64,0,2,,,,
36480,note_off,0,0,3,,,,,,,,,2,,,47,0
36480,note_on,0,0,3,,,,,,,,,2,,,43,91
36480,set_tempo,120,1,0,,,,,,508474,,,,,,,
36480,note_on,42,0,5,,,,,,,,,4,,,36,99
36480,note_on,120,0,2,,,,,,,,,1,,,60,99
36480,note_on,120,0,1,,,,,,,,,0,,,76,99
36520,control_change,40,0,3,,,,,,,64,127,2,,,,
36600,note_off,80,0,3,,,,,,,,,2,,,43,0
36600,note_on,0,0,3,,,,,,,,,2,,,48,91
36720,note_on,0,0,3,,,,,,,,,2,,,52,91
36720,note_off,120,0,3,,,,,,,,,2,,,48,0
36840,note_off,360,0,5,,,,,,,,,4,,,36,0
36840,note_on,0,0,3,,,,,,,,,2,,,48,90
36840,note_off,120,0,3,,,,,,,,,2,,,52,0
36960,note_on,120,0,5,,,,,,,,,4,,,36,97
36960,note_on,0,0,3,,,,,,,,,2,,,43,90
36960,note_off,0,0,3,,,,,,,,,2,,,48,0
36960,control_change,120,0,3,,,,,,,64,0,2,,,,
37000,control_change,40,0,3,,,,,,,64,127,2,,,,
37080,note_on,0,0,3,,,,,,,,,2,,,48,90
37080,note_off,80,0,3,,,,,,,,,2,,,43,0
37200,note_on,0,0,2,,,,,,,,,1,,,71,96
37200,note_off,720,0,2,,,,,,,,,1,,,72,0
37200,note_off,0,0,2,,,,,,,,,1,,,60,0
37200,note_off,720,0,1,,,,,,,,,0,,,64,0
37200,note_off,0,0,1,,,,,,,,,0,,,76,0
37200,note_on,0,0,1,,,,,,,,,0,,,74,96
37200,note_on,0,0,2,,,,,,,,,1,,,59,96
37200,note_on,0,0,3,,,,,,,,,2,,,52,89
37200,note_off,120,0,3,,,,,,,,,2,,,48,0
37200,note_on,0,0,1,,,,,,,,,0,,,62,96
37320,note_off,360,0,5,,,,,,,,,4,,,36,0
37320,note_off,120,0,3,,,,,,,,,2,,,52,0
37320,note_on,0,0,3,,,,,,,,,2,,,48,89
37440,note_off,240,0,2,,,,,,,,,1,,,71,0
37440,note_off,0,0,2,,,,,,,,,1,,,59,0
37440,note_on,0,0,2,,,,,,,,,1,,,52,96
37440,note_on,0,0,2,,,,,,,,,1,,,67,96
37440,control_change,120,0,3,,,,,,,64,0,2,,,,
37440,note_off,240,0,1,,,,,,,,,0,,,62,0
37440,note_on,0,0,1,,,,,,,,,0,,,72,96
37440,note_on,0,0,3,,,,,,,,,2,,,43,89
37440,note_off,0,0,3,,,,,,,,,2,,,48,0
37440,note_on,0,0,1,,,,,,,,,0,,,60,96
37440,note_off,0,0,1,,,,,,,,,0,,,74,0
37480,control_change,40,0,3,,,,,,,64,127,2,,,,
37560,note_on,0,0,3,,,,,,,,,2,,,48,88
37560,note_off,80,0,3,,,,,,,,,2,,,43,0
37680,note_off,240,0,1,,,,,,,,,0,,,60,0
37680,note_off,0,0,1,,,,,,,,,0,,,72,0
37680,note_on,0,0,2,,,,,,,,,1,,,72,95
37680,note_on,0,0,3,,,,,,,,,2,,,52,88
37680,note_off,0,0,2,,,,,,,,,1,,,52,0
37680,note_on,0,0,1,,,,,,,,,0,,,76,95
37680,note_on,0,0,1,,,,,,,,,0,,,64,95
37680,note_off,120,0,3,,,,,,,,,2,,,48,0
37680,note_on,0,0,2,,,,,,,,,1,,,60,95
37680,note_off,240,0,2,,,,,,,,,1,,,67,0
37800,note_off,120,0,3,,,,,,,,,2,,,52,0
37800,note_on,0,0,3,,,,,,,,,2,,,48,87
37836,note_off,0,0,1,,,,,,,,,0,,,76,0
37836,note_off,156,0,2,,,,,,,,,1,,,72,0
37836,note_off,0,0,2,,,,,,,,,1,,,60,0
37836,note_off,156,0,1,,,,,,,,,0,,,64,0
37920,note_off,0,0,3,,,,,,,,,2,,,48,0
37920,note_on,0,0,3,,,,,,,,,2,,,43,87
37920,note_on,84,0,2,,,,,,,,,1,,,64,95
37920,note_on,0,0,2,,,,,,,,,1,,,76,95
37920,note_on,0,0,1,,,,,,,,,0,,,67,95
37920,note_on,84,0,1,,,,,,,,,0,,,79,95
37920,control_change,120,0,3,,,,,,,64,0,2,,,,
37920,note_on,600,0,5,,,,,,,,,4,,,36,95
37960,control_change,40,0,3,,,,,,,64,127,2,,,,
38040,note_off,80,0,3,,,,,,,,,2,,,43,0
38040,note_on,0,0,3,,,,,,,,,2,,,48,87
38076,note_off,156,0,1,,,,,,,,,0,,,67,0
38076,note_off,0,0,2,,,,,,,,,1,,,64,0
38076,note_off,0,0,1,,,,,,,,,0,,,79,0
38076,note_off,156,0,2,,,,,,,,,1,,,76,0
38154,note_off,234,0,5,,,,,,,,,4,,,36,0
38160,note_on,0,0,2,,,,,,,,,1,,,72,94
38160,note_on,0,0,1,,,,,,,,,0,,,64,94
38160,note_on,84,0,1,,,,,,,,,0,,,76,94
38160,note_on,84,0,2,,,,,,,,,1,,,60,94
38160,note_off,120,0,3,,,,,,,,,2,,,48,0
38160,note_on,0,0,3,,,,,,,,,2,,,52,86
38280,note_on,0,0,3,,,,,,,,,2,,,48,86
38280,note_off,120,0,3,,,,,,,,,2,,,52,0
38280,note_on,126,0,5,,,,,,,,,4,,,36,94
38316,note_off,156,0,1,,,,,,,,,0,,,64,0
38316,note_off,156,0,2,,,,,,,,,1,,,72,0
38316,note_off,0,0,2,,,,,,,,,1,,,60,0
38316,note_off,0,0,1,,,,,,,,,0,,,76,0
38358,note_off,78,0,5,,,,,,,,,4,,,36,0
38400,note_off,0,0,3,,,,,,,,,2,,,48,0
38400,note_on,84,0,2,,,,,,,,,1,,,59,97
38400,note_on,42,0,5,,,,,,,,,4,,,31,97
38400,note_on,84,0,1,,,,,,,,,0,,,74,97
38400,note_on,0,0,2,,,,,,,,,1,,,71,97
38400,note_on,0,0,1,,,,,,,,,0,,,62,97
38400,control_change,120,0,3,,,,,,,64,0,2,,,,
38760,note_off,360,0,1,,,,,,,,,0,,,62,0
38760,note_off,360,0,5,,,,,,,,,4,,,31,0
38760,note_off,0,0,2,,,,,,,,,1,,,59,0
38760,note_off,360,0,2,,,,,,,,,1,,,71,0
38760,note_off,0,0,1,,,,,,,,,0,,,74,0
38760,set_tempo,2280,1,0,,,,,,517241,,,,,,,
38880,note_on,0,0,5,,,,,,,,,4,,,36,93
38880,note_on,120,0,5,,,,,,,,,4,,,48,93
38880,note_on,0,0,4,,,,,,,,,3,,,60,93
38880,note_on,0,0,4,,,,,,,,,3,,,64,93
38880,note_on,9720,0,4,,,,,,,,,3,,,55,93
38880,set_tempo,120,1,0,,,,,,508474,,,,,,,
39114,note_off,0,0,4,,,,,,,,,3,,,55,0
39114,note_off,234,0,4,,,,,,,,,3,,,60,0
39114,note_off,0,0,4,,,,,,,,,3,,,64,0
39114,note_off,0,0,5,,,,,,,,,4,,,48,0
39114,note_off,234,0,5,,,,,,,,,4,,,36,0
39240,note_on,0,0,4,,,,,,,,,3,,,64,91
39240,note_on,126,0,4,,,,,,,,,3,,,55,91
39240,note_on,126,0,5,,,,,,,,,4,,,48,91
39240,note_on,0,0,5,,,,,,,,,4,,,36,91
39240,note_on,0,0,4,,,,,,,,,3,,,60,91
39318,note_off,0,0,4,,,,,,,,,3,,,55,0
39318,note_off,0,0,4,,,,,,,,,3,,,60,0
39318,note_off,78,0,5,,,,,,,,,4,,,36,0
39318,note_off,0,0,5,,,,,,,,,4,,,48,0
39318,note_off,78,0,4,,,,,,,,,3,,,64,0
39360,note_on,0,0,4,,,,,,,,,3,,,62,90
39360,note_on,42,0,4,,,,,,,,,3,,,55,90
39360,note_on,42,0,5,,,,,,,,,4,,,43,90
39360,note_on,0,0,5,,,,,,,,,4,,,31,90
39360,note_on,0,0,4,,,,,,,,,3,,,59,90
39720,note_off,360,0,4,,,,,,,,,3,,,59,0
39720,note_off,0,0,4,,,,,,,,,3,,,62,0
39720,note_off,0,0,4,,,,,,,,,3,,,55,0
39720,note_off,0,0,5,,,,,,,,,4,,,43,0
39720,note_off,360,0,5,,,,,,,,,4,,,31,0
39720,set_tempo,840,1,0,,,,,,535714,,,,,,,
39840,note_on,0,0,1,,,,,,,,,0,,,88,96
39840,note_on,1080,0,1,,,,,,,,,0,,,76,96
39840,note_on,0,0,2,,,,,,,,,1,,,67,96
39840,note_on,0,0,4,,,,,,,,,3,,,55,96
39840,note_on,0,0,4,,,,,,,,,3,,,64,96
39840,note_on,120,0,4,,,,,,,,,3,,,61,96
39840,set_tempo,120,1,0,,,,,,526315,,,,,,,
39840,note_on,0,0,5,,,,,,,,,4,,,31,96
39840,note_on,0,0,2,,,,,,,,,1,,,73,96
39840,note_on,1080,0,2,,,,,,,,,1,,,85,96
39840,note_on,120,0,5,,,,,,,,,4,,,43,96
39960,set_tempo,120,1,0,,,,,,517241,,,,,,,
40074,note_off,0,0,4,,,,,,,,,3,,,61,0
40074,note_off,0,0,4,,,,,,,,,3,,,64,0
40074,note_off,234,0,4,,,,,,,,,3,,,55,0
40074,note_off,0,0,5,,,,,,,,,4,,,43,0
40074,note_off,234,0,5,,,,,,,,,4,,,31,0
40074,note_off,234,0,2,,,,,,,,,1,,,73,0
40074,note_off,0,0,2,,,,,,,,,1,,,67,0
40074,note_off,0,0,2,,,,,,,,,1,,,85,0
40074,note_off,0,0,1,,,,,,,,,0,,,76,0
40074,note_off,234,0,1,,,,,,,,,0,,,88,0
40200,note_on,126,0,5,,,,,,,,,4,,,43,102
40200,note_on,126,0,2,,,,,,,,,1,,,85,102
40200,note_on,0,0,1,,,,,,,,,0,,,88,102
40200,note_on,126,0,1,,,,,,,,,0,,,76,102
40200,note_on,0,0,2,,,,,,,,,1,,,73,102
40200,note_on,0,0,2,,,,,,,,,1,,,67,102
40200,note_on,126,0,4,,,,,,,,,3,,,61,102
40200,note_on,0,0,4,,,,,,,,,3,,,64,102
40200,note_on,0,0,4,,,,,,,,,3,,,55,102
40200,note_on,0,0,5,,,,,,,,,4,,,31,102
40260,set_tempo,300,1,0,,,,,,571428,,,,,,,
40278,note_off,0,0,2,,,,,,,,,1,,,85,0
40278,note_off,0,0,4,,,,,,,,,3,,,64,0
40278,note_off,78,0,4,,,,,,,,,3,,,55,0
40278,note_off,78,0,5,,,,,,,,,4,,,31,0
40278,note_off,0,0,5,,,,,,,,,4,,,43,0
40278,note_off,0,0,1,,,,,,,,,0,,,76,0
40278,note_off,78,0,1,,,,,,,,,0,,,88,0
40278,note_off,0,0,2,,,,,,,,,1,,,67,0
40278,note_off,0,0,4,,,,,,,,,3,,,61,0
40278,note_off,78,0,2,,,,,,,,,1,,,73,0
40280,note_on,2,0,1,,,,,,,,,0,,,86,103
40320,note_on,42,0,5,,,,,,,,,4,,,43,103
40320,note_on,0,0,5,,,,,,,,,4,,,31,103
40320,note_on,0,0,4,,,,,,,,,3,,,65,103
40320,note_on,42,0,2,,,,,,,,,1,,,74,103
40320,note_on,0,0,2,,,,,,,,,1,,,67,103
40320,note_on,40,0,1,,,,,,,,,0,,,77,103
40320,note_on,0,0,4,,,,,,,,,3,,,55,103
40320,note_on,42,0,4,,,,,,,,,3,,,62,103
40320,note_on,0,0,1,,,,,,,,,0,,,89,103
40320,set_tempo,60,1,0,,,,,,508474,,,,,,,
40440,note_on,0,0,5,,,,,,,,,4,,,31,103
40440,note_off,120,0,5,,,,,,,,,4,,,31,0
40560,note_off,120,0,5,,,,,,,,,4,,,31,0
40560,note_on,0,0,5,,,,,,,,,4,,,33,100
40660,note_off,100,0,5,,,,,,,,,4,,,43,0
40660,note_off,340,0,1,,,,,,,,,0,,,86,0
40675,note_off,355,0,2,,,,,,,,,1,,,67,0
40680,note_off,20,0,5,,,,,,,,,4,,,33,0
40680,note_off,360,0,4,,,,,,,,,3,,,55,0
40680,note_off,0,0,4,,,,,,,,,3,,,65,0
40680,note_off,0,0,4,,,,,,,,,3,,,62,0
40680,note_off,20,0,1,,,,,,,,,0,,,77,0
40680,note_on,0,0,5,,,,,,,,,4,,,35,97
40685,note_off,10,0,2,,,,,,,,,1,,,74,0
40800,note_off,120,0,5,,,,,,,,,4,,,35,0
40800,note_on,0,0,5,,,,,,,,,4,,,36,94
40920,note_off,120,0,5,,,,,,,,,4,,,36,0
40920,note_on,0,0,5,,,,,,,,,4,,,38,92
40920,note_on,0,0,1,,,,,,,,,0,,,88,92
40920,note_off,240,0,1,,,,,,,,,0,,,89,0
41040,note_on,0,0,1,,,,,,,,,0,,,86,89
41040,note_off,120,0,5,,,,,,,,,4,,,38,0
41040,note_on,0,0,5,,,,,,,,,4,,,40,89
41040,note_off,120,0,1,,,,,,,,,0,,,88,0
41160,note_on,0,0,5,,,,,,,,,4,,,42,86
41160,note_on,0,0,1,,,,,,,,,0,,,84,86
41160,note_off,120,0,1,,,,,,,,,0,,,86,0
41160,note_off,120,0,5,,,,,,,,,4,,,40,0
41280,note_off,120,0,1,,,,,,,,,0,,,84,0
41280,note_on,0,0,5,,,,,,,,,4,,,43,83
41280,note_on,0,0,1,,,,,,,,,0,,,83,83
41280,note_off,120,0,5,,,,,,,,,4,,,42,0
41400,note_off,120,0,1,,,,,,,,,0,,,83,0
41400,note_off,120,0,5,,,,,,,,,4,,,43,0
41400,note_on,0,0,5,,,,,,,,,4,,,42,79
41400,note_on,0,0,1,,,,,,,,,0,,,81,79
41520,note_off,120,0,5,,,,,,,,,4,,,42,0
41520,note_on,0,0,5,,,,,,,,,4,,,43,75
41520,note_off,120,0,1,,,,,,,,,0,,,81,0
41520,note_on,0,0,1,,,,,,,,,0,,,79,75
41640,note_on,0,0,5,,,,,,,,,4,,,45,71
41640,note_off,120,0,5,,,,,,,,,4,,,43,0
41640,note_on,0,0,1,,,,,,,,,0,,,77,71
41640,note_off,120,0,1,,,,,,,,,0,,,79,0
41760,set_tempo,1440,1,0,,,,,,508474,,,,,,,
41760,note_on,1075,0,2,,,,,,,,,1,,,52,68
41760,note_on,0,0,5,,,,,,,,,4,,,43,68
41760,note_off,120,0,5,,,,,,,,,4,,,45,0
41760,note_on,0,0,1,,,,,,,,,0,,,60,68
41760,note_on,0,0,1,,,,,,,,,0,,,76,68
41760,note_off,120,0,1,,,,,,,,,0,,,77,0
41880,note_off,120,0,1,,,,,,,,,0,,,76,0
41880,note_on,0,0,1,,,,,,,,,0,,,74,64
41880,note_off,120,0,5,,,,,,,,,4,,,43,0
41880,note_on,0,0,5,,,,,,,,,4,,,41,64
41994,note_off,234,0,2,,,,,,,,,1,,,52,0
41994,note_off,114,0,1,,,,,,,,,0,,,60,0
42000,note_off,6,0,1,,,,,,,,,0,,,74,0
42000,note_off,120,0,5,,,,,,,,,4,,,41,0
42000,note_on,0,0,5,,,,,,,,,4,,,40,60
42000,note_on,0,0,1,,,,,,,,,0,,,72,60
42120,note_on,126,0,2,,,,,,,,,1,,,55,57
42120,note_off,120,0,1,,,,,,,,,0,,,72,0
42120,note_on,0,0,1,,,,,,,,,0,,,62,57
42120,note_off,120,0,5,,,,,,,,,4,,,40,0
42120,note_on,0,0,5,,,,,,,,,4,,,38,57
42120,note_on,0,0,1,,,,,,,,,0,,,74,57
42187,set_tempo,427,1,0,,,,,,526315,,,,,,,
42198,note_off,78,0,1,,,,,,,,,0,,,62,0
42198,note_off,78,0,2,,,,,,,,,1,,,55,0
42240,note_off,120,0,5,,,,,,,,,4,,,38,0
42240,note_on,0,0,5,,,,,,,,,4,,,36,55
42240,note_on,0,0,1,,,,,,,,,0,,,64,55
42240,note_on,0,0,2,,,,,,,,,1,,,72,55
42240,note_on,42,0,2,,,,,,,,,1,,,60,55
42240,note_on,0,0,1,,,,,,,,,0,,,76,55
42240,note_off,42,0,1,,,,,,,,,0,,,74,0
42240,set_tempo,53,1,0,,,,,,508474,,,,,,,
42720,note_on,2040,0,4,,,,,,,,,3,,,48,50
42720,note_off,480,0,5,,,,,,,,,4,,,36,0
42720,note_on,0,0,5,,,,,,,,,4,,,36,50
42840,note_off,120,0,4,,,,,,,,,3,,,48,0
42840,note_on,0,0,4,,,,,,,,,3,,,43,48
42840,note_off,120,0,5,,,,,,,,,4,,,36,0
42840,note_on,0,0,5,,,,,,,,,4,,,31,48
42960,note_off,120,0,4,,,,,,,,,3,,,43,0
42960,note_off,120,0,5,,,,,,,,,4,,,31,0
42960,note_on,0,0,5,,,,,,,,,4,,,36,47
42960,note_on,0,0,4,,,,,,,,,3,,,48,47
43080,note_on,0,0,4,,,,,,,,,3,,,43,45
43080,note_off,120,0,5,,,,,,,,,4,,,36,0
43080,note_off,120,0,4,,,,,,,,,3,,,48,0
43080,note_on,0,0,5,,,,,,,,,4,,,31,45
43200,note_off,120,0,4,,,,,,,,,3,,,43,0
43200,note_on,0,0,4,,,,,,,,,3,,,48,44
43200,note_on,0,0,5,,,,,,,,,4,,,36,44
43200,note_off,120,0,5,,,,,,,,,4,,,31,0
43560,note_off,360,0,5,,,,,,,,,4,,,36,0
43560,set_tempo,1320,1,0,,,,,,571428,,,,,,,
43560,note_off,360,0,4,,,,,,,,,3,,,48,0
43680,note_on,0,0,1,,,,,,,,,0,,,60,45
43680,note_on,0,0,1,,,,,,,,,0,,,72,45
43680,note_off,0,0,1,,,,,,,,,0,,,64,0
43680,note_off,1440,0,1,,,,,,,,,0,,,76,0
43680,note_off,0,0,2,,,,,,,,,1,,,60,0
43680,note_on,0,0,2,,,,,,,,,1,,,67,45
43680,note_on,0,0,2,,,,,,,,,1,,,52,45
43680,set_tempo,120,1,0,,,,,,508474,,,,,,,
43680,note_off,1440,0,2,,,,,,,,,1,,,72,0
43914,note_off,0,0,1,,,,,,,,,0,,,72,0
43914,note_off,234,0,2,,,,,,,,,1,,,52,0
43914,note_off,0,0,2,,,,,,,,,1,,,67,0
43914,note_off,234,0,1,,,,,,,,,0,,,60,0
44040,note_on,126,0,1,,,,,,,,,0,,,62,48
44040,note_on,0,0,1,,,,,,,,,0,,,74,48
44040,note_on,0,0,2,,,,,,,,,1,,,55,48
44040,note_on,126,0,2,,,,,,,,,1,,,71,48
44107,set_tempo,427,1,0,,,,,,517241,,,,,,,
44118,note_off,0,0,1,,,,,,,,,0,,,62,0
44118,note_off,0,0,2,,,,,,,,,1,,,71,0
44118,note_off,78,0,2,,,,,,,,,1,,,55,0
44118,note_off,78,0,1,,,,,,,,,0,,,74,0
44160,set_tempo,53,1,0,,,,,,508474,,,,,,,
44160,note_on,42,0,1,,,,,,,,,0,,,64,51
44160,note_on,0,0,1,,,,,,,,,0,,,76,51
44160,note_on,0,0,2,,,,,,,,,1,,,72,51
44160,note_on,42,0,2,,,,,,,,,1,,,60,51
44640,note_on,1080,0,5,,,,,,,,,4,,,36,48
44640,note_on,1080,0,4,,,,,,,,,3,,,48,48
44760,note_off,120,0,4,,,,,,,,,3,,,48,0
44760,note_on,0,0,5,,,,,,,,,4,,,31,47
44760,note_off,120,0,5,,,,,,,,,4,,,36,0
44760,note_on,0,0,4,,,,,,,,,3,,,43,47
44880,note_off,120,0,4,,,,,,,,,3,,,43,0
44880,note_on,0,0,5,,,,,,,,,4,,,36,46
44880,note_off,120,0,5,,,,,,,,,4,,,31,0
44880,note_on,0,0,4,,,,,,,,,3,,,48,46
45000,note_on,0,0,5,,,,,,,,,4,,,31,45
45000,note_off,120,0,4,,,,,,,,,3,,,48,0
45000,note_on,0,0,4,,,,,,,,,3,,,43,45
45000,note_off,120,0,5,,,,,,,,,4,,,36,0
45120,note_on,0,0,5,,,,,,,,,4,,,36,43
45120,note_on,0,0,4,,,,,,,,,3,,,48,43
45120,note_off,120,0,4,,,,,,,,,3,,,43,0
45120,note_off,120,0,5,,,,,,,,,4,,,31,0
45480,set_tempo,1320,1,0,,,,,,582524,,,,,,,
45480,note_off,360,0,5,,,,,,,,,4,,,36,0
45480,note_off,360,0,4,,,,,,,,,3,,,48,0
45600,note_on,120,0,5,,,,,,,,,4,,,48,47
45600,set_tempo,120,1,0,,,,,,508474,,,,,,,
45600,note_on,0,0,1,,,,,,,,,0,,,64,47
45600,note_on,0,0,2,,,,,,,,,1,,,60,47
45600,note_off,1440,0,1,,,,,,,,,0,,,76,0
45600,note_off,0,0,2,,,,,,,,,1,,,60,0
45600,note_off,1440,0,2,,,,,,,,,1,,,72,0
45600,note_off,0,0,1,,,,,,,,,0,,,64,0
45600,note_on,0,0,1,,,,,,,,,0,,,76,47
45834,note_off,234,0,1,,,,,,,,,0,,,64,0
45834,note_off,0,0,1,,,,,,,,,0,,,76,0
45834,note_off,234,0,2,,,,,,,,,1,,,60,0
45834,note_off,234,0,5,,,,,,,,,4,,,48,0
45960,note_on,126,0,5,,,,,,,,,4,,,48,49
45960,note_on,0,0,1,,,,,,,,,0,,,65,49
45960,note_on,126,0,1,,,,,,,,,0,,,77,49
45960,note_on,126,0,2,,,,,,,,,1,,,62,49
46020,set_tempo,420,1,0,,,,,,517241,,,,,,,
46038,note_off,78,0,5,,,,,,,,,4,,,48,0
46038,note_off,78,0,2,,,,,,,,,1,,,62,0
46038,note_off,0,0,1,,,,,,,,,0,,,77,0
46038,note_off,78,0,1,,,,,,,,,0,,,65,0
46080,note_on,42,0,5,,,,,,,,,4,,,48,50
46080,note_on,42,0,2,,,,,,,,,1,,,64,50
46080,set_tempo,60,1,0,,,,,,508474,,,,,,,
46080,note_on,42,0,1,,,,,,,,,0,,,67,50
46080,note_on,0,0,1,,,,,,,,,0,,,79,50
46560,note_off,480,0,1,,,,,,,,,0,,,79,0
46560,note_off,480,0,2,,,,,,,,,1,,,64,0
46560,note_on,0,0,2,,,,,,,,,1,,,64,52
46560,note_on,0,0,1,,,,,,,,,0,,,69,52
46560,note_off,480,0,5,,,,,,,,,4,,,48,0
46560,note_on,0,0,5,,,,,,,,,4,,,48,52
46560,note_on,0,0,1,,,,,,,,,0,,,81,52
46560,note_off,0,0,1,,,,,,,,,0,,,67,0
46794,note_off,234,0,5,,,,,,,,,4,,,48,0
46794,note_off,0,0,1,,,,,,,,,0,,,69,0
46794,note_off,234,0,2,,,,,,,,,1,,,64,0
46794,note_off,234,0,1,,,,,,,,,0,,,81,0
46920,note_on,126,0,5,,,,,,,,,4,,,47,54
46920,note_on,126,0,1,,,,,,,,,0,,,71,54
46920,note_on,0,0,1,,,,,,,,,0,,,83,54
46920,note_on,126,0,2,,,,,,,,,1,,,62,54
46980,set_tempo,900,1,0,,,,,,517241,,,,,,,
46998,note_off,0,0,1,,,,,,,,,0,,,71,0
46998,note_off,78,0,2,,,,,,,,,1,,,62,0
46998,note_off,78,0,5,,,,,,,,,4,,,47,0
46998,note_off,78,0,1,,,,,,,,,0,,,83,0
47040,note_on,42,0,2,,,,,,,,,1,,,64,55
47040,note_on,42,0,1,,,,,,,,,0,,,72,55
47040,note_on,42,0,5,,,,,,,,,4,,,45,55
47040,set_tempo,60,1,0,,,,,,508474,,,,,,,
47040,note_on,0,0,1,,,,,,,,,0,,,84,55
47040,note_on,1560,0,4,,,,,,,,,3,,,60,55
47520,note_on,0,0,5,,,,,,,,,4,,,50,57
47520,note_on,0,0,1,,,,,,,,,0,,,81,57
47520,note_on,0,0,1,,,,,,,,,0,,,69,57
47520,note_off,480,0,1,,,,,,,,,0,,,84,0
47520,note_off,480,0,5,,,,,,,,,4,,,45,0
47520,note_off,480,0,2,,,,,,,,,1,,,64,0
47520,note_off,0,0,1,,,,,,,,,0,,,72,0
47520,note_on,0,0,4,,,,,,,,,3,,,54,57
47520,note_on,0,0,4,,,,,,,,,3,,,60,57
47520,note_off,480,0,4,,,,,,,,,3,,,60,0
47754,note_off,0,0,4,,,,,,,,,3,,,60,0
47754,note_off,234,0,4,,,,,,,,,3,,,54,0
47754,note_off,234,0,5,,,,,,,,,4,,,50,0
47754,note_off,234,0,1,,,,,,,,,0,,,81,0
47754,note_off,0,0,1,,,,,,,,,0,,,69,0
47880,note_on,126,0,5,,,,,,,,,4,,,50,59
47880,note_on,126,0,1,,,,,,,,,0,,,66,59
47880,note_on,0,0,1,,,,,,,,,0,,,78,59
47880,note_on,126,0,4,,,,,,,,,3,,,60,59
47880,note_on,0,0,4,,,,,,,,,3,,,57,59
47940,set_tempo,900,1,0,,,,,,517241,,,,,,,
47958,note_off,0,0,4,,,,,,,,,3,,,60,0
47958,note_off,78,0,1,,,,,,,,,0,,,78,0
47958,note_off,78,0,4,,,,,,,,,3,,,57,0
47958,note_off,0,0,1,,,,,,,,,0,,,66,0
47958,note_off,78,0,5,,,,,,,,,4,,,50,0
48000,note_on,42,0,4,,,,,,,,,3,,,55,61
48000,note_on,42,0,1,,,,,,,,,0,,,79,61
48000,note_on,0,0,1,,,,,,,,,0,,,67,61
48000,note_on,42,0,5,,,,,,,,,4,,,43,61
48000,set_tempo,60,1,0,,,,,,526315,,,,,,,
48000,note_on,480,0,2,,,,,,,,,1,,,59,61
48360,note_off,0,0,1,,,,,,,,,0,,,79,0
48360,note_off,360,0,1,,,,,,,,,0,,,67,0
48360,note_off,360,0,2,,,,,,,,,1,,,59,0
48360,note_off,360,0,4,,,,,,,,,3,,,55,0
48360,note_off,360,0,5,,,,,,,,,4,,,43,0
48480,note_on,120,0,2,,,,,,,,,1,,,62,58
48480,note_on,0,0,2,,,,,,,,,1,,,59,58
48480,note_on,120,0,4,,,,,,,,,3,,,55,58
48480,note_on,0,0,4,,,,,,,,,3,,,50,58
48480,note_on,0,0,2,,,,,,,,,1,,,74,58
48480,note_on,0,0,2,,,,,,,,,1,,,71,58
48480,note_on,0,0,1,,,,,,,,,0,,,67,58
48480,note_on,120,0,1,,,,,,,,,0,,,79,58
48480,note_on,120,0,5,,,,,,,,,4,,,43,58
48830,set_tempo,830,1,0,,,,,,550458,,,,,,,
48840,note_off,0,0,1,,,,,,,,,0,,,79,0
48840,note_off,360,0,1,,,,,,,,,0,,,67,0
48840,note_off,0,0,4,,,,,,,,,3,,,55,0
48840,note_off,360,0,2,,,,,,,,,1,,,71,0
48840,note_off,0,0,2,,,,,,,,,1,,,74,0
48840,note_off,0,0,2,,,,,,,,,1,,,59,0
48840,note_off,0,0,2,,,,,,,,,1,,,62,0
48840,note_off,360,0,5,,,,,,,,,4,,,43,0
48840,note_off,360,0,4,,,,,,,,,3,,,50,0
48960,note_on,120,0,4,,,,,,,,,3,,,55,55
48960,note_on,0,0,4,,,,,,,,,3,,,50,55
48960,note_on,120,0,1,,,,,,,,,0,,,79,55
48960,note_on,0,0,1,,,,,,,,,0,,,67,55
48960,note_on,120,0,2,,,,,,,,,1,,,62,55
48960,note_on,0,0,2,,,,,,,,,1,,,59,55
48960,note_on,120,0,5,,,,,,,,,4,,,43,55
48960,note_on,0,0,2,,,,,,,,,1,,,71,55
48960,note_on,0,0,2,,,,,,,,,1,,,74,55
49320,note_off,0,0,2,,,,,,,,,1,,,59,0
49320,set_tempo,490,1,0,,,,,,769230,,,,,,,
49320,note_off,0,0,1,,,,,,,,,0,,,79,0
49320,note_off,360,0,2,,,,,,,,,1,,,71,0
49320,note_off,360,0,5,,,,,,,,,4,,,43,0
49320,note_off,0,0,2,,,,,,,,,1,,,62,0
49320,note_off,0,0,4,,,,,,,,,3,,,55,0
49320,note_off,360,0,4,,,,,,,,,3,,,50,0
49320,note_off,0,0,2,,,,,,,,,1,,,74,0
49320,note_off,360,0,1,,,,,,,,,0,,,67,0
49440,set_tempo,120,1,0,,,,,,508474,,,,,,,
49440,note_on,0,0,5,,,,,,,,,4,,,43,48
49440,note_on,120,0,5,,,,,,,,,4,,,62,48
49440,note_on,0,0,4,,,,,,,,,3,,,50,48
49440,note_on,0,0,4,,,,,,,,,3,,,59,48
49440,note_on,0,0,4,,,,,,,,,3,,,47,48
49440,note_on,120,0,4,,,,,,,,,3,,,55,48
49674,note_off,234,0,5,,,,,,,,,4,,,43,0
49674,note_off,0,0,5,,,,,,,,,4,,,62,0
49674,note_off,234,0,4,,,,,,,,,3,,,47,0
49674,note_off,0,0,4,,,,,,,,,3,,,50,0
49674,note_off,0,0,4,,,,,,,,,3,,,59,0
49674,note_off,0,0,4,,,,,,,,,3,,,55,0
49800,note_on,126,0,5,,,,,,,,,4,,,64,50
49800,note_on,0,0,5,,,,,,,,,4,,,43,50
49800,note_on,126,0,4,,,,,,,,,3,,,55,50
49800,note_on,0,0,4,,,,,,,,,3,,,60,50
49800,note_on,0,0,4,,,,,,,,,3,,,52,50
49800,note_on,0,0,4,,,,,,,,,3,,,48,50
49860,set_tempo,420,1,0,,,,,,517241,,,,,,,
49878,note_off,0,0,4,,,,,,,,,3,,,60,0
49878,note_off,0,0,4,,,,,,,,,3,,,48,0
49878,note_off,78,0,4,,,,,,,,,3,,,52,0
49878,note_off,78,0,5,,,,,,,,,4,,,43,0
49878,note_off,0,0,5,,,,,,,,,4,,,64,0
49878,note_off,0,0,4,,,,,,,,,3,,,55,0
49920,note_on,0,0,4,,,,,,,,,3,,,55,51
49920,note_on,0,0,4,,,,,,,,,3,,,50,51
49920,note_on,0,0,4,,,,,,,,,3,,,53,51
49920,note_on,42,0,5,,,,,,,,,4,,,65,51
49920,set_tempo,60,1,0,,,,,,508474,,,,,,,
49920,note_on,42,0,4,,,,,,,,,3,,,62,51
49920,note_on,0,0,5,,,,,,,,,4,,,43,51
50400,note_on,0,0,1,,,,,,,,,0,,,89,55
50400,note_on,1080,0,1,,,,,,,,,0,,,77,55
50400,note_on,0,0,2,,,,,,,,,1,,,74,55
50400,note_on,1080,0,2,,,,,,,,,1,,,86,55
50634,note_off,234,0,1,,,,,,,,,0,,,89,0
50634,note_off,0,0,2,,,,,,,,,1,,,86,0
50634,note_off,0,0,1,,,,,,,,,0,,,77,0
50634,note_off,234,0,2,,,,,,,,,1,,,74,0
50760,note_on,126,0,2,,,,,,,,,1,,,84,57
50760,note_on,0,0,2,,,,,,,,,1,,,72,57
50760,note_on,0,0,1,,,,,,,,,0,,,88,57
50760,note_on,126,0,1,,,,,,,,,0,,,76,57
50820,set_tempo,900,1,0,,,,,,517241,,,,,,,
50838,note_off,78,0,2,,,,,,,,,1,,,72,0
50838,note_off,0,0,1,,,,,,,,,0,,,76,0
50838,note_off,78,0,1,,,,,,,,,0,,,88,0
50838,note_off,0,0,2,,,,,,,,,1,,,84,0
50880,set_tempo,60,1,0,,,,,,508474,,,,,,,
50880,note_on,42,0,2,,,,,,,,,1,,,83,58
50880,note_on,0,0,1,,,,,,,,,0,,,86,58
50880,note_on,42,0,1,,,,,,,,,0,,,74,58
50880,note_on,0,0,2,,,,,,,,,1,,,71,58
51360,note_off,1440,0,5,,,,,,,,,4,,,43,0
51360,note_off,0,0,5,,,,,,,,,4,,,65,0
51360,note_on,0,0,5,,,,,,,,,4,,,62,61
51360,note_on,0,0,5,,,,,,,,,4,,,43,61
51360,note_on,0,0,4,,,,,,,,,3,,,55,61
51360,note_on,0,0,4,,,,,,,,,3,,,59,61
51360,note_on,0,0,4,,,,,,,,,3,,,47,61
51360,note_off,0,0,4,,,,,,,,,3,,,62,0
51360,note_off,0,0,4,,,,,,,,,3,,,55,0
51360,note_off,0,0,4,,,,,,,,,3,,,50,0
51360,note_off,1440,0,4,,,,,,,,,3,,,53,0
51360,note_on,0,0,4,,,,,,,,,3,,,50,61
51594,note_off,234,0,4,,,,,,,,,3,,,55,0
51594,note_off,0,0,4,,,,,,,,,3,,,50,0
51594,note_off,0,0,4,,,,,,,,,3,,,47,0
51594,note_off,0,0,5,,,,,,,,,4,,,62,0
51594,note_off,234,0,5,,,,,,,,,4,,,43,0
51594,note_off,0,0,4,,,,,,,,,3,,,59,0
51720,note_on,126,0,5,,,,,,,,,4,,,64,64
51720,note_on,0,0,5,,,,,,,,,4,,,43,64
51720,note_on,126,0,4,,,,,,,,,3,,,52,64
51720,note_on,0,0,4,,,,,,,,,3,,,55,64
51720,note_on,0,0,4,,,,,,,,,3,,,60,64
51720,note_on,0,0,4,,,,,,,,,3,,,48,64
51780,set_tempo,900,1,0,,,,,,517241,,,,,,,
51798,note_off,0,0,4,,,,,,,,,3,,,48,0
51798,note_off,0,0,4,,,,,,,,,3,,,60,0
51798,note_off,78,0,5,,,,,,,,,4,,,43,0
51798,note_off,0,0,4,,,,,,,,,3,,,52,0
51798,note_off,0,0,5,,,,,,,,,4,,,64,0
51798,note_off,78,0,4,,,,,,,,,3,,,55,0
51840,set_tempo,60,1,0,,,,,,508474,,,,,,,
51840,note_on,42,0,5,,,,,,,,,4,,,65,65
51840,note_on,0,0,4,,,,,,,,,3,,,62,65
51840,note_on,0,0,5,,,,,,,,,4,,,43,65
51840,note_on,0,0,4,,,,,,,,,3,,,50,65
51840,note_on,42,0,4,,,,,,,,,3,,,53,65
51840,note_on,0,0,4,,,,,,,,,3,,,55,65
52200,note_off,360,0,4,,,,,,,,,3,,,62,0
52200,note_off,0,0,4,,,,,,,,,3,,,55,0
52200,note_off,0,0,4,,,,,,,,,3,,,50,0
52200,note_off,0,0,4,,,,,,,,,3,,,53,0
52200,note_off,360,0,5,,,,,,,,,4,,,43,0
52200,note_off,0,0,5,,,,,,,,,4,,,65,0
52320,note_on,0,0,2,,,,,,,,,1,,,74,68
52320,note_on,120,0,5,,,,,,,,,4,,,62,68
52320,note_on,0,0,5,,,,,,,,,4,,,44,68
52320,note_off,1440,0,2,,,,,,,,,1,,,71,0
52320,note_off,0,0,2,,,,,,,,,1,,,83,0
52320,note_on,0,0,2,,,,,,,,,1,,,86,68
52320,note_off,0,0,1,,,,,,,,,0,,,74,0
52320,note_off,1440,0,1,,,,,,,,,0,,,86,0
52320,note_on,0,0,1,,,,,,,,,0,,,89,68
52320,note_on,0,0,1,,,,,,,,,0,,,77,68
52320,note_on,0,0,4,,,,,,,,,3,,,59,68
52320,note_on,0,0,4,,,,,,,,,3,,,50,68
52320,note_on,120,0,4,,,,,,,,,3,,,56,68
52320,note_on,0,0,4,,,,,,,,,3,,,47,68
52554,note_off,0,0,4,,,,,,,,,3,,,56,0
52554,note_off,0,0,4,,,,,,,,,3,,,50,0
52554,note_off,0,0,4,,,,,,,,,3,,,59,0
52554,note_off,234,0,1,,,,,,,,,0,,,77,0
52554,note_off,0,0,1,,,,,,,,,0,,,89,0
52554,note_off,234,0,2,,,,,,,,,1,,,86,0
52554,note_off,0,0,2,,,,,,,,,1,,,74,0
52554,note_off,234,0,5,,,,,,,,,4,,,44,0
52554,note_off,0,0,5,,,,,,,,,4,,,62,0
52554,note_off,234,0,4,,,,,,,,,3,,,47,0
52680,note_on,126,0,1,,,,,,,,,0,,,88,70
52680,note_on,0,0,1,,,,,,,,,0,,,76,70
52680,note_on,126,0,2,,,,,,,,,1,,,72,70
52680,note_on,0,0,5,,,,,,,,,4,,,44,70
52680,note_on,0,0,2,,,,,,,,,1,,,84,70
52680,note_on,126,0,4,,,,,,,,,3,,,60,70
52680,note_on,0,0,4,,,,,,,,,3,,,56,70
52680,note_on,0,0,4,,,,,,,,,3,,,52,70
52680,note_on,126,0,5,,,,,,,,,4,,,64,70
52680,note_on,0,0,4,,,,,,,,,3,,,48,70
52740,set_tempo,900,1,0,,,,,,517241,,,,,,,
52758,note_off,78,0,4,,,,,,,,,3,,,52,0
52758,note_off,0,0,2,,,,,,,,,1,,,72,0
52758,note_off,78,0,2,,,,,,,,,1,,,84,0
52758,note_off,0,0,4,,,,,,,,,3,,,48,0
52758,note_off,78,0,1,,,,,,,,,0,,,76,0
52758,note_off,0,0,5,,,,,,,,,4,,,64,0
52758,note_off,78,0,5,,,,,,,,,4,,,44,0
52758,note_off,0,0,4,,,,,,,,,3,,,60,0
52758,note_off,0,0,4,,,,,,,,,3,,,56,0
52758,note_off,0,0,1,,,,,,,,,0,,,88,0
52800,note_on,0,0,4,,,,,,,,,3,,,53,71
52800,note_on,0,0,4,,,,,,,,,3,,,62,71
52800,note_on,0,0,2,,,,,,,,,1,,,71,71
52800,note_on,0,0,1,,,,,,,,,0,,,86,71
52800,note_on,42,0,2,,,,,,,,,1,,,83,71
52800,set_tempo,60,1,0,,,,,,508474,,,,,,,
52800,note_on,0,0,5,,,,,,,,,4,,,44,71
52800,note_on,42,0,5,,,,,,,,,4,,,65,71
52800,note_on,42,0,4,,,,,,,,,3,,,50,71
52800,note_on,42,0,1,,,,,,,,,0,,,74,71
53160,note_off,360,0,1,,,,,,,,,0,,,86,0
53160,note_off,0,0,1,,,,,,,,,0,,,74,0
53160,note_off,0,0,5,,,,,,,,,4,,,65,0
53160,note_off,360,0,5,,,,,,,,,4,,,44,0
53160,set_tempo,360,1,0,,,,,,535714,,,,,,,
53160,note_off,0,0,4,,,,,,,,,3,,,50,0
53160,note_off,360,0,2,,,,,,,,,1,,,71,0
53160,note_off,0,0,2,,,,,,,,,1,,,83,0
53160,note_off,360,0,4,,,,,,,,,3,,,62,0
53160,note_off,0,0,4,,,,,,,,,3,,,53,0
53280,note_on,120,0,5,,,,,,,,,4,,,64,75
53280,note_on,0,0,1,,,,,,,,,0,,,88,75
53280,note_on,120,0,2,,,,,,,,,1,,,83,75
53280,note_on,0,0,2,,,,,,,,,1,,,71,75
53280,note_on,0,0,5,,,,,,,,,4,,,44,75
53280,note_on,120,0,4,,,,,,,,,3,,,56,75
53280,note_on,0,0,4,,,,,,,,,3,,,59,75
53280,note_on,120,0,1,,,,,,,,,0,,,76,75
53280,note_on,0,0,4,,,,,,,,,3,,,52,75
53280,set_tempo,120,1,0,,,,,,508474,,,,,,,
53280,note_on,0,0,4,,,,,,,,,3,,,47,75
53514,note_off,234,0,1,,,,,,,,,0,,,88,0
53514,note_off,0,0,1,,,,,,,,,0,,,76,0
53514,note_off,0,0,4,,,,,,,,,3,,,59,0
53514,note_off,0,0,4,,,,,,,,,3,,,56,0
53514,note_off,234,0,2,,,,,,,,,1,,,71,0
53514,note_off,0,0,5,,,,,,,,,4,,,64,0
53514,note_off,234,0,5,,,,,,,,,4,,,44,0
53514,note_off,234,0,4,,,,,,,,,3,,,52,0
53514,note_off,0,0,2,,,,,,,,,1,,,83,0
53514,note_off,0,0,4,,,,,,,,,3,,,47,0
53640,note_on,0,0,4,,,,,,,,,3,,,52,77
53640,note_on,0,0,4,,,,,,,,,3,,,64,77
53640,note_on,0,0,4,,,,,,,,,3,,,59,77
53640,note_on,126,0,4,,,,,,,,,3,,,56,77
53640,note_on,0,0,4,,,,,,,,,3,,,47,77
53640,note_on,0,0,1,,,,,,,,,0,,,86,77
53640,set_tempo,360,1,0,,,,,,526315,,,,,,,
53640,note_on,126,0,1,,,,,,,,,0,,,74,77
53640,note_on,126,0,5,,,,,,,,,4,,,44,77
53640,note_on,126,0,2,,,,,,,,,1,,,83,77
53640,note_on,0,0,2,,,,,,,,,1,,,71,77
53718,note_off,0,0,4,,,,,,,,,3,,,52,0
53718,note_off,0,0,4,,,,,,,,,3,,,56,0
53718,note_off,78,0,1,,,,,,,,,0,,,86,0
53718,note_off,0,0,4,,,,,,,,,3,,,64,0
53718,note_off,0,0,4,,,,,,,,,3,,,59,0
53718,note_off,0,0,2,,,,,,,,,1,,,83,0
53718,note_off,78,0,2,,,,,,,,,1,,,71,0
53718,note_off,78,0,5,,,,,,,,,4,,,44,0
53718,note_off,78,0,4,,,,,,,,,3,,,47,0
53718,note_off,0,0,1,,,,,,,,,0,,,74,0
53760,note_on,42,0,4,,,,,,,,,3,,,48,85
53760,note_on,0,0,4,,,,,,,,,3,,,52,85
53760,note_on,0,0,4,,,,,,,,,3,,,57,85
53760,note_on,0,0,1,,,,,,,,,0,,,72,85
53760,note_on,42,0,1,,,,,,,,,0,,,84,85
53760,note_on,42,0,5,,,,,,,,,4,,,45,85
53760,set_tempo,120,1,0,,,,,,508474,,,,,,,
53864,note_off,104,0,1,,,,,,,,,0,,,72,0
53864,note_off,0,0,1,,,,,,,,,0,,,84,0
53920,note_on,56,0,1,,,,,,,,,0,,,83,84
53920,note_on,0,0,1,,,,,,,,,0,,,71,84
53920,note_off,160,0,4,,,,,,,,,3,,,57,0
53920,note_on,0,0,4,,,,,,,,,3,,,60,84
54024,note_off,104,0,1,,,,,,,,,0,,,71,0
54024,note_off,0,0,1,,,,,,,,,0,,,83,0
54080,note_on,56,0,1,,,,,,,,,0,,,84,83
54080,note_on,0,0,1,,,,,,,,,0,,,72,83
54080,note_off,160,0,4,,,,,,,,,3,,,60,0
54080,note_on,0,0,4,,,,,,,,,3,,,64,83
54120,note_off,0,0,4,,,,,,,,,3,,,48,0
54120,note_off,40,0,4,,,,,,,,,3,,,52,0
54120,note_off,360,0,5,,,,,,,,,4,,,45,0
54184,note_off,0,0,1,,,,,,,,,0,,,84,0
54184,note_off,104,0,1,,,,,,,,,0,,,72,0
54240,note_on,56,0,1,,,,,,,,,0,,,86,81
54240,note_on,120,0,5,,,,,,,,,4,,,41,81
54240,note_on,0,0,1,,,,,,,,,0,,,74,81
54240,note_off,120,0,4,,,,,,,,,3,,,64,0
54240,note_on,0,0,4,,,,,,,,,3,,,57,81
54344,note_off,0,0,1,,,,,,,,,0,,,86,0
54344,note_off,104,0,1,,,,,,,,,0,,,74,0
54400,note_off,160,0,4,,,,,,,,,3,,,57,0
54400,note_on,56,0,1,,,,,,,,,0,,,76,80
54400,note_on,0,0,1,,,,,,,,,0,,,88,80
54400,note_on,0,0,4,,,,,,,,,3,,,62,80
54474,note_off,234,0,5,,,,,,,,,4,,,41,0
54504,note_off,104,0,1,,,,,,,,,0,,,88,0
54504,note_off,0,0,1,,,,,,,,,0,,,76,0
54560,note_off,160,0,4,,,,,,,,,3,,,62,0
54560,note_on,0,0,4,,,,,,,,,3,,,65,78
54560,note_on,56,0,1,,,,,,,,,0,,,77,78
54560,note_on,0,0,1,,,,,,,,,0,,,89,78
54600,note_on,126,0,5,,,,,,,,,4,,,41,78
54664,note_off,0,0,1,,,,,,,,,0,,,77,0
54664,note_off,104,0,1,,,,,,,,,0,,,89,0
54678,note_off,78,0,5,,,,,,,,,4,,,41,0
54720,note_on,0,0,4,,,,,,,,,3,,,55,77
54720,note_on,56,0,1,,,,,,,,,0,,,88,77
54720,note_on,42,0,5,,,,,,,,,4,,,43,77
54720,note_on,0,0,1,,,,,,,,,0,,,76,77
54720,note_off,160,0,4,,,,,,,,,3,,,65,0
54824,note_off,104,0,1,,,,,,,,,0,,,76,0
54824,note_off,0,0,1,,,,,,,,,0,,,88,0
54880,note_on,56,0,1,,,,,,,,,0,,,86,75
54880,note_off,160,0,4,,,,,,,,,3,,,55,0
54880,note_on,0,0,1,,,,,,,,,0,,,74,75
54880,note_on,0,0,4,,,,,,,,,3,,,60,75
54984,note_off,104,0,1,,,,,,,,,0,,,74,0
54984,note_off,0,0,1,,,,,,,,,0,,,86,0
55040,note_on,56,0,1,,,,,,,,,0,,,72,74
55040,note_on,0,0,1,,,,,,,,,0,,,84,74
55040,note_on,0,0,4,,,,,,,,,3,,,64,74
55040,note_off,160,0,4,,,,,,,,,3,,,60,0
55080,note_off,360,0,5,,,,,,,,,4,,,43,0
55144,note_off,0,0,1,,,,,,,,,0,,,72,0
55144,note_off,104,0,1,,,,,,,,,0,,,84,0
55200,note_off,160,0,4,,,,,,,,,3,,,64,0
55200,note_on,0,0,4,,,,,,,,,3,,,53,73
55200,note_on,56,0,1,,,,,,,,,0,,,67,73
55200,note_on,0,0,1,,,,,,,,,0,,,79,73
55200,note_on,120,0,5,,,,,,,,,4,,,31,73
55304,note_off,104,0,1,,,,,,,,,0,,,79,0
55304,note_off,0,0,1,,,,,,,,,0,,,67,0
55360,note_on,0,0,1,,,,,,,,,0,,,69,71
55360,note_on,56,0,1,,,,,,,,,0,,,81,71
55360,note_on,0,0,4,,,,,,,,,3,,,55,71
55360,note_off,160,0,4,,,,,,,,,3,,,53,0
55434,note_off,234,0,5,,,,,,,,,4,,,31,0
55440,set_tempo,1680,1,0,,,,,,517241,,,,,,,
55464,note_off,104,0,1,,,,,,,,,0,,,69,0
55464,note_off,0,0,1,,,,,,,,,0,,,81,0
55520,note_on,0,0,4,,,,,,,,,3,,,62,70
55520,note_off,160,0,4,,,,,,,,,3,,,55,0
55520,note_on,56,0,1,,,,,,,,,0,,,83,70
55520,note_on,0,0,1,,,,,,,,,0,,,71,70
55560,note_on,126,0,5,,,,,,,,,4,,,31,67
55560,set_tempo,120,1,0,,,,,,526315,,,,,,,
55624,note_off,104,0,1,,,,,,,,,0,,,71,0
55624,note_off,0,0,1,,,,,,,,,0,,,83,0
55638,note_off,78,0,5,,,,,,,,,4,,,31,0
55680,note_off,160,0,4,,,,,,,,,3,,,62,0
55680,note_on,0,0,4,,,,,,,,,3,,,60,66
55680,note_on,0,0,4,,,,,,,,,3,,,52,66
55680,note_on,0,0,4,,,,,,,,,3,,,55,66
55680,note_on,42,0,5,,,,,,,,,4,,,36,66
55680,note_on,0,0,1,,,,,,,,,0,,,84,66
55680,note_on,56,0,1,,,,,,,,,0,,,72,66
55680,set_tempo,120,1,0,,,,,,508474,,,,,,,
55680,control_change,17280,0,3,,,,,,,64,0,2,,,,
55720,control_change,40,0,3,,,,,,,64,127,2,,,,
55800,note_on,80,0,3,,,,,,,,,2,,,43,60
55920,note_off,120,0,3,,,,,,,,,2,,,43,0
55920,note_on,0,0,3,,,,,,,,,2,,,48,60
56040,note_off,360,0,4,,,,,,,,,3,,,55,0
56040,note_off,0,0,4,,,,,,,,,3,,,60,0
56040,note_on,0,0,3,,,,,,,,,2,,,43,59
56040,note_off,120,0,3,,,,,,,,,2,,,48,0
56040,note_off,0,0,4,,,,,,,,,3,,,52,0
56040,note_off,0,0,1,,,,,,,,,0,,,72,0
56040,note_off,360,0,1,,,,,,,,,0,,,84,0
56160,note_on,0,0,1,,,,,,,,,0,,,75,59
56160,note_on,120,0,1,,,,,,,,,0,,,63,59
56160,note_on,0,0,5,,,,,,,,,4,,,36,59
56160,control_change,120,0,3,,,,,,,64,0,2,,,,
56160,note_off,0,0,3,,,,,,,,,2,,,43,0
56160,note_off,480,0,5,,,,,,,,,4,,,36,0
56200,control_change,40,0,3,,,,,,,64,127,2,,,,
56280,note_on,80,0,3,,,,,,,,,2,,,43,58
56400,note_on,0,0,3,,,,,,,,,2,,,48,58
56400,note_off,120,0,3,,,,,,,,,2,,,43,0
56520,note_on,0,0,1,,,,,,,,,0,,,62,58
56520,note_off,360,0,1,,,,,,,,,0,,,75,0
56520,note_on,0,0,1,,,,,,,,,0,,,74,58
56520,note_off,0,0,1,,,,,,,,,0,,,63,0
56520,note_on,0,0,3,,,,,,,,,2,,,43,57
56520,note_off,120,0,3,,,,,,,,,2,,,48,0
56580,set_tempo,900,1,0,,,,,,517241,,,,,,,
56640,note_on,0,0,1,,,,,,,,,0,,,60,57
56640,set_tempo,60,1,0,,,,,,508474,,,,,,,
56640,note_off,0,0,3,,,,,,,,,2,,,43,0
56640,control_change,120,0,3,,,,,,,64,0,2,,,,
56640,note_on,0,0,5,,,,,,,,,4,,,36,57
56640,note_off,480,0,5,,,,,,,,,4,,,36,0
56640,note_on,0,0,1,,,,,,,,,0,,,72,57
56640,note_off,0,0,1,,,,,,,,,0,,,62,0
56640,note_off,120,0,1,,,,,,,,,0,,,74,0
56680,control_change,40,0,3,,,,,,,64,127,2,,,,
56760,note_on,80,0,3,,,,,,,,,2,,,43,56
56880,note_on,0,0,3,,,,,,,,,2,,,48,56
56880,note_off,120,0,3,,,,,,,,,2,,,43,0
57000,note_on,0,0,3,,,,,,,,,2,,,43,55
57000,note_off,360,0,1,,,,,,,,,0,,,60,0
57000,note_off,0,0,1,,,,,,,,,0,,,72,0
57000,note_off,120,0,3,,,,,,,,,2,,,48,0
57120,note_off,480,0,5,,,,,,,,,4,,,36,0
57120,note_on,0,0,5,,,,,,,,,4,,,31,55
57120,note_on,3402,0,2,,,,,,,,,1,,,79,55
57120,note_on,0,0,1,,,,,,,,,0,,,74,55
57120,control_change,120,0,3,,,,,,,64,0,2,,,,
57120,note_off,0,0,3,,,,,,,,,2,,,43,0
57120,note_on,120,0,1,,,,,,,,,0,,,62,55
57160,control_change,40,0,3,,,,,,,64,127,2,,,,
57240,note_on,80,0,3,,,,,,,,,2,,,43,55
57354,note_off,0,0,1,,,,,,,,,0,,,62,0
57354,note_off,234,0,1,,,,,,,,,0,,,74,0
57354,note_off,234,0,2,,,,,,,,,1,,,79,0
57360,note_off,120,0,3,,,,,,,,,2,,,43,0
57360,note_on,0,0,3,,,,,,,,,2,,,47,54
57480,note_on,126,0,2,,,,,,,,,1,,,79,54
57480,note_off,120,0,3,,,,,,,,,2,,,47,0
57480,note_on,0,0,3,,,,,,,,,2,,,43,54
57480,note_on,126,0,1,,,,,,,,,0,,,62,54
57480,note_on,0,0,1,,,,,,,,,0,,,74,54
57540,set_tempo,900,1,0,,,,,,517241,,,,,,,
57558,note_off,0,0,1,,,,,,,,,0,,,62,0
57558,note_off,78,0,2,,,,,,,,,1,,,79,0
57558,note_off,78,0,1,,,,,,,,,0,,,74,0
57600,note_on,42,0,1,,,,,,,,,0,,,64,54
57600,note_off,0,0,3,,,,,,,,,2,,,43,0
57600,control_change,120,0,3,,,,,,,64,0,2,,,,
57600,note_on,42,0,2,,,,,,,,,1,,,79,54
57600,note_off,480,0,5,,,,,,,,,4,,,31,0
57600,note_on,1560,0,4,,,,,,,,,3,,,36,54
57600,set_tempo,60,1,0,,,,,,508474,,,,,,,
57600,note_on,0,0,1,,,,,,,,,0,,,76,54
57640,control_change,40,0,3,,,,,,,64,127,2,,,,
57720,note_on,80,0,3,,,,,,,,,2,,,43,53
57840,note_off,120,0,3,,,,,,,,,2,,,43,0
57840,note_on,0,0,3,,,,,,,,,2,,,48,52
57960,note_off,360,0,1,,,,,,,,,0,,,76,0
57960,note_off,0,0,1,,,,,,,,,0,,,64,0
57960,note_on,0,0,3,,,,,,,,,2,,,43,52
57960,note_off,120,0,3,,,,,,,,,2,,,48,0
57960,note_off,360,0,2,,,,,,,,,1,,,79,0
58080,note_off,0,0,3,,,,,,,,,2,,,43,0
58080,control_change,120,0,3,,,,,,,64,0,2,,,,
58080,note_on,0,0,1,,,,,,,,,0,,,76,52
58080,note_on,120,0,1,,,,,,,,,0,,,64,52
58080,note_off,480,0,4,,,,,,,,,3,,,36,0
58080,note_on,0,0,4,,,,,,,,,3,,,36,52
58120,control_change,40,0,3,,,,,,,64,127,2,,,,
58200,note_on,80,0,3,,,,,,,,,2,,,43,51
58320,note_off,120,0,3,,,,,,,,,2,,,43,0
58320,note_on,0,0,3,,,,,,,,,2,,,48,50
58440,note_off,360,0,1,,,,,,,,,0,,,76,0
58440,note_off,0,0,1,,,,,,,,,0,,,64,0
58440,note_on,0,0,1,,,,,,,,,0,,,62,50
58440,note_on,0,0,3,,,,,,,,,2,,,43,50
58440,note_off,120,0,3,,,,,,,,,2,,,48,0
58440,note_on,0,0,1,,,,,,,,,0,,,74,50
58500,set_tempo,900,1,0,,,,,,517241,,,,,,,
58560,set_tempo,60,1,0,,,,,,508474,,,,,,,
58560,note_on,0,0,4,,,,,,,,,3,,,36,50
58560,note_off,0,0,3,,,,,,,,,2,,,43,0
58560,note_on,0,0,1,,,,,,,,,0,,,72,50
58560,note_on,0,0,1,,,,,,,,,0,,,60,50
58560,note_off,0,0,1,,,,,,,,,0,,,62,0
58560,note_off,120,0,1,,,,,,,,,0,,,74,0
58560,note_off,480,0,4,,,,,,,,,3,,,36,0
58560,control_change,120,0,3,,,,,,,64,0,2,,,,
58600,control_change,40,0,3,,,,,,,64,127,2,,,,
58680,note_on,80,0,3,,,,,,,,,2,,,43,49
58800,note_on,0,0,3,,,,,,,,,2,,,48,48
58800,note_off,120,0,3,,,,,,,,,2,,,43,0
58920,note_off,0,0,1,,,,,,,,,0,,,60,0
58920,note_on,0,0,3,,,,,,,,,2,,,43,48
58920,note_off,120,0,3,,,,,,,,,2,,,48,0
58920,note_off,360,0,1,,,,,,,,,0,,,72,0
59040,control_change,120,0,3,,,,,,,64,0,2,,,,
59040,note_off,0,0,3,,,,,,,,,2,,,43,0
59040,note_off,480,0,4,,,,,,,,,3,,,36,0
59040,note_on,0,0,1,,,,,,,,,0,,,74,48
59040,note_on,120,0,1,,,,,,,,,0,,,62,48
59040,note_on,1080,0,2,,,,,,,,,1,,,79,48
59040,note_on,0,0,4,,,,,,,,,3,,,31,48
59080,control_change,40,0,3,,,,,,,64,127,2,,,,
59160,note_on,80,0,3,,,,,,,,,2,,,43,47
59274,note_off,0,0,1,,,,,,,,,0,,,62,0
59274,note_off,234,0,1,,,,,,,,,0,,,74,0
59274,note_off,234,0,2,,,,,,,,,1,,,79,0
59280,note_on,0,0,3,,,,,,,,,2,,,47,47
59280,note_off,120,0,3,,,,,,,,,2,,,43,0
59400,note_on,0,0,3,,,,,,,,,2,,,43,46
59400,note_off,120,0,3,,,,,,,,,2,,,47,0
59400,note_on,126,0,2,,,,,,,,,1,,,79,48
59400,note_on,126,0,1,,,,,,,,,0,,,62,48
59400,note_on,0,0,1,,,,,,,,,0,,,74,48
59460,set_tempo,900,1,0,,,,,,517241,,,,,,,
59478,note_off,78,0,2,,,,,,,,,1,,,79,0
59478,note_off,78,0,1,,,,,,,,,0,,,74,0
59478,note_off,0,0,1,,,,,,,,,0,,,62,0
59520,set_tempo,60,1,0,,,,,,508474,,,,,,,
59520,note_on,42,0,2,,,,,,,,,1,,,79,48
59520,note_off,480,0,4,,,,,,,,,3,,,31,0
59520,note_on,0,0,4,,,,,,,,,3,,,36,48
59520,control_change,120,0,3,,,,,,,64,0,2,,,,
59520,note_on,0,0,1,,,,,,,,,0,,,75,48
59520,note_on,42,0,1,,,,,,,,,0,,,63,48
59520,note_off,0,0,3,,,,,,,,,2,,,43,0
59560,control_change,40,0,3,,,,,,,64,127,2,,,,
59640,note_on,80,0,3,,,,,,,,,2,,,43,45
59760,note_off,120,0,3,,,,,,,,,2,,,43,0
59760,note_on,0,0,3,,,,,,,,,2,,,48,44
59880,note_off,0,0,1,,,,,,,,,0,,,63,0
59880,note_off,360,0,1,,,,,,,,,0,,,75,0
59880,note_off,360,0,2,,,,,,,,,1,,,79,0
59880,set_tempo,360,1,0,,,,,,517241,,,,,,,
59880,note_off,120,0,3,,,,,,,,,2,,,48,0
59880,note_on,0,0,3,,,,,,,,,2,,,43,45
60000,note_on,120,0,1,,,,,,,,,0,,,87,50
60000,note_on,0,0,1,,,,,,,,,0,,,75,50
60000,set_tempo,120,1,0,,,,,,508474,,,,,,,
60000,note_off,480,0,4,,,,,,,,,3,,,36,0
60000,note_on,0,0,4,,,,,,,,,3,,,44,50
60000,note_off,0,0,3,,,,,,,,,2,,,43,0
60000,note_on,0,0,3,,,,,,,,,2,,,48,45
60000,note_on,2400,0,5,,,,,,,,,4,,,32,50
60000,control_change,120,0,3,,,,,,,64,0,2,,,,
60040,control_change,40,0,3,,,,,,,64,127,2,,,,
60120,note_on,0,0,3,,,,,,,,,2,,,53,46
60120,note_off,80,0,3,,,,,,,,,2,,,48,0
60240,note_on,0,0,3,,,,,,,,,2,,,60,46
60240,note_off,120,0,3,,,,,,,,,2,,,53,0
60360,note_off,360,0,1,,,,,,,,,0,,,75,0
60360,note_off,0,0,1,,,,,,,,,0,,,87,0
60360,note_on,0,0,1,,,,,,,,,0,,,86,52
60360,note_on,0,0,3,,,,,,,,,2,,,53,47
60360,note_off,120,0,3,,,,,,,,,2,,,60,0
60360,note_on,0,0,1,,,,,,,,,0,,,74,52
60420,set_tempo,420,1,0,,,,,,517241,,,,,,,
60480,set_tempo,60,1,0,,,,,,508474,,,,,,,
60480,note_off,480,0,5,,,,,,,,,4,,,32,0
60480,note_off,0,0,1,,,,,,,,,0,,,86,0
60480,note_on,0,0,1,,,,,,,,,0,,,84,53
60480,note_on,0,0,1,,,,,,,,,0,,,72,53
60480,note_on,0,0,5,,,,,,,,,4,,,31,53
60480,note_off,120,0,1,,,,,,,,,0,,,74,0
60480,note_on,0,0,3,,,,,,,,,2,,,48,47
60480,note_off,0,0,3,,,,,,,,,2,,,53,0
60480,control_change,120,0,3,,,,,,,64,0,2,,,,
60480,note_on,0,0,4,,,,,,,,,3,,,43,53
60480,note_off,480,0,4,,,,,,,,,3,,,44,0
60520,control_change,40,0,3,,,,,,,64,127,2,,,,
60600,note_on,0,0,3,,,,,,,,,2,,,55,48
60600,note_off,80,0,3,,,,,,,,,2,,,48,0
60720,note_off,120,0,3,,,,,,,,,2,,,55,0
60720,note_on,0,0,3,,,,,,,,,2,,,60,48
60840,note_off,120,0,3,,,,,,,,,2,,,60,0
60840,note_off,0,0,1,,,,,,,,,0,,,84,0
60840,note_on,0,0,3,,,,,,,,,2,,,55,49
60840,note_off,360,0,1,,,,,,,,,0,,,72,0
60960,note_on,120,0,1,,,,,,,,,0,,,86,55
60960,note_on,0,0,1,,,,,,,,,0,,,74,55
60960,note_on,0,0,4,,,,,,,,,3,,,41,55
60960,note_off,480,0,4,,,,,,,,,3,,,43,0
60960,note_off,480,0,5,,,,,,,,,4,,,31,0
60960,control_change,120,0,3,,,,,,,64,0,2,,,,
60960,note_off,0,0,3,,,,,,,,,2,,,55,0
60960,note_on,0,0,3,,,,,,,,,2,,,48,49
60960,note_on,0,0,5,,,,,,,,,4,,,29,55
61000,control_change,40,0,3,,,,,,,64,127,2,,,,
61080,note_on,0,0,3,,,,,,,,,2,,,56,50
61080,note_off,80,0,3,,,,,,,,,2,,,48,0
61194,note_off,234,0,1,,,,,,,,,0,,,74,0
61194,note_off,0,0,1,,,,,,,,,0,,,86,0
61200,note_off,120,0,3,,,,,,,,,2,,,56,0
61200,note_on,0,0,3,,,,,,,,,2,,,60,50
61320,note_on,126,0,1,,,,,,,,,0,,,86,56
61320,note_on,0,0,1,,,,,,,,,0,,,74,56
61320,note_on,0,0,3,,,,,,,,,2,,,56,51
61320,note_off,120,0,3,,,,,,,,,2,,,60,0
61372,set_tempo,892,1,0,,,,,,517241,,,,,,,
61398,note_off,0,0,1,,,,,,,,,0,,,86,0
61398,note_off,78,0,1,,,,,,,,,0,,,74,0
61440,note_off,480,0,5,,,,,,,,,4,,,29,0
61440,note_on,0,0,5,,,,,,,,,4,,,31,57
61440,note_on,0,0,4,,,,,,,,,3,,,43,57
61440,set_tempo,68,1,0,,,,,,508474,,,,,,,
61440,note_on,0,0,1,,,,,,,,,0,,,76,57
61440,note_on,42,0,1,,,,,,,,,0,,,88,57
61440,note_off,480,0,4,,,,,,,,,3,,,41,0
61440,control_change,120,0,3,,,,,,,64,0,2,,,,
61440,note_off,0,0,3,,,,,,,,,2,,,56,0
61440,note_on,0,0,3,,,,,,,,,2,,,48,51
61480,control_change,40,0,3,,,,,,,64,127,2,,,,
61560,note_on,0,0,3,,,,,,,,,2,,,55,52
61560,note_off,80,0,3,,,,,,,,,2,,,48,0
61680,note_on,0,0,3,,,,,,,,,2,,,60,52
61680,note_off,120,0,3,,,,,,,,,2,,,55,0
61800,note_on,0,0,3,,,,,,,,,2,,,55,53
61800,note_off,360,0,1,,,,,,,,,0,,,76,0
61800,note_off,0,0,1,,,,,,,,,0,,,88,0
61800,note_off,120,0,3,,,,,,,,,2,,,60,0
61867,set_tempo,427,1,0,,,,,,517241,,,,,,,
61920,note_on,0,0,1,,,,,,,,,0,,,88,59
61920,note_on,120,0,1,,,,,,,,,0,,,76,59
61920,note_on,0,0,5,,,,,,,,,4,,,33,59
61920,note_off,480,0,5,,,,,,,,,4,,,31,0
61920,note_on,0,0,4,,,,,,,,,3,,,45,59
61920,note_off,480,0,4,,,,,,,,,3,,,43,0
61920,control_change,120,0,3,,,,,,,64,0,2,,,,
61920,note_off,0,0,3,,,,,,,,,2,,,55,0
61920,set_tempo,53,1,0,,,,,,508474,,,,,,,
61920,note_on,0,0,3,,,,,,,,,2,,,48,53
61960,control_change,40,0,3,,,,,,,64,127,2,,,,
62040,note_on,0,0,3,,,,,,,,,2,,,54,54
62040,note_off,80,0,3,,,,,,,,,2,,,48,0
62160,note_on,0,0,3,,,,,,,,,2,,,60,54
62160,note_off,120,0,3,,,,,,,,,2,,,54,0
62280,note_on,0,0,3,,,,,,,,,2,,,54,55
62280,note_on,0,0,1,,,,,,,,,0,,,86,61
62280,note_on,0,0,1,,,,,,,,,0,,,74,61
62280,note_off,0,0,1,,,,,,,,,0,,,76,0
62280,note_off,360,0,1,,,,,,,,,0,,,88,0
62280,note_off,120,0,3,,,,,,,,,2,,,60,0
62340,set_tempo,420,1,0,,,,,,517241,,,,,,,
62400,control_change,120,0,3,,,,,,,64,0,2,,,,
62400,note_off,0,0,1,,,,,,,,,0,,,74,0
62400,note_off,0,0,3,,,,,,,,,2,,,54,0
62400,note_on,0,0,4,,,,,,,,,3,,,43,61
62400,note_off,480,0,4,,,,,,,,,3,,,45,0
62400,note_on,0,0,3,,,,,,,,,2,,,48,56
62400,note_off,120,0,1,,,,,,,,,0,,,86,0
62400,set_tempo,60,1,0,,,,,,508474,,,,,,,
62400,note_off,480,0,5,,,,,,,,,4,,,33,0
62400,note_on,0,0,1,,,,,,,,,0,,,72,61
62400,note_on,0,0,5,,,,,,,,,4,,,31,61
62400,note_on,0,0,1,,,,,,,,,0,,,84,61
62440,control_change,40,0,3,,,,,,,64,127,2,,,,
62520,note_on,0,0,3,,,,,,,,,2,,,55,56
62520,note_off,80,0,3,,,,,,,,,2,,,48,0
62640,note_on,0,0,3,,,,,,,,,2,,,60,57
62640,note_off,120,0,3,,,,,,,,,2,,,55,0
62760,note_off,0,0,1,,,,,,,,,0,,,72,0
62760,note_off,120,0,3,,,,,,,,,2,,,60,0
62760,note_off,360,0,1,,,,,,,,,0,,,84,0
62760,note_on,0,0,3,,,,,,,,,2,,,55,57
62880,note_off,0,0,3,,,,,,,,,2,,,55,0
62880,note_on,0,0,1,,,,,,,,,0,,,86,64
62880,note_on,0,0,4,,,,,,,,,3,,,42,64
62880,note_on,120,0,1,,,,,,,,,0,,,74,64
62880,note_on,0,0,3,,,,,,,,,2,,,48,58
62880,note_off,480,0,5,,,,,,,,,4,,,31,0
62880,note_on,0,0,5,,,,,,,,,4,,,30,64
62880,control_change,120,0,3,,,,,,,64,0,2,,,,
62880,note_off,480,0,4,,,,,,,,,3,,,43,0
62920,control_change,40,0,3,,,,,,,64,127,2,,,,
63000,note_on,0,0,3,,,,,,,,,2,,,57,58
63000,note_off,80,0,3,,,,,,,,,2,,,48,0
63114,note_off,234,0,1,,,,,,,,,0,,,86,0
63114,note_off,0,0,1,,,,,,,,,0,,,74,0
63120,note_off,120,0,3,,,,,,,,,2,,,57,0
63120,note_on,0,0,3,,,,,,,,,2,,,60,59
63240,note_on,0,0,1,,,,,,,,,0,,,86,65
63240,note_off,120,0,3,,,,,,,,,2,,,60,0
63240,note_on,0,0,3,,,,,,,,,2,,,57,59
63240,note_on,126,0,1,,,,,,,,,0,,,74,65
63307,set_tempo,907,1,0,,,,,,517241,,,,,,,
63318,note_off,78,0,1,,,,,,,,,0,,,86,0
63318,note_off,0,0,1,,,,,,,,,0,,,74,0
63360,note_off,480,0,5,,,,,,,,,4,,,30,0
63360,note_on,0,0,3,,,,,,,,,2,,,48,60
63360,control_change,120,0,3,,,,,,,64,0,2,,,,
63360,note_off,0,0,3,,,,,,,,,2,,,57,0
63360,set_tempo,53,1,0,,,,,,508474,,,,,,,
63360,note_on,0,0,4,,,,,,,,,3,,,43,66
63360,note_on,42,0,1,,,,,,,,,0,,,76,66
63360,note_on,0,0,1,,,,,,,,,0,,,88,66
63360,note_off,480,0,4,,,,,,,,,3,,,42,0
63360,note_on,0,0,5,,,,,,,,,4,,,31,66
63400,control_change,40,0,3,,,,,,,64,127,2,,,,
63480,note_on,0,0,3,,,,,,,,,2,,,55,60
63480,note_off,80,0,3,,,,,,,,,2,,,48,0
63600,note_on,0,0,3,,,,,,,,,2,,,60,61
63600,note_off,120,0,3,,,,,,,,,2,,,55,0
63720,note_on,0,0,3,,,,,,,,,2,,,55,61
63720,note_off,360,0,4,,,,,,,,,3,,,43,0
63720,note_off,0,0,1,,,,,,,,,0,,,76,0
63720,note_off,360,0,1,,,,,,,,,0,,,88,0
63720,note_off,120,0,3,,,,,,,,,2,,,60,0
63720,set_tempo,360,1,0,,,,,,517241,,,,,,,
63720,note_off,360,0,5,,,,,,,,,4,,,31,0
63840,note_on,120,0,4,,,,,,,,,3,,,44,68
63840,note_on,0,0,1,,,,,,,,,0,,,76,68
63840,note_on,120,0,1,,,,,,,,,0,,,88,68
63840,set_tempo,120,1,0,,,,,,508474,,,,,,,
63840,control_change,120,0,3,,,,,,,64,0,2,,,,
63840,note_off,0,0,3,,,,,,,,,2,,,55,0
63840,note_on,0,0,3,,,,,,,,,2,,,52,62
63840,note_on,120,0,5,,,,,,,,,4,,,32,68
63880,control_change,40,0,3,,,,,,,64,127,2,,,,
63960,note_off,80,0,3,,,,,,,,,2,,,52,0
63960,note_on,0,0,3,,,,,,,,,2,,,59,62
64074,note_off,234,0,5,,,,,,,,,4,,,32,0
64074,note_off,234,0,4,,,,,,,,,3,,,44,0
64080,note_on,0,0,3,,,,,,,,,2,,,62,63
64080,note_off,120,0,3,,,,,,,,,2,,,59,0
64200,note_on,0,0,3,,,,,,,,,2,,,59,63
64200,note_off,0,0,1,,,,,,,,,0,,,88,0
64200,note_on,126,0,4,,,,,,,,,3,,,44,70
64200,note_on,0,0,1,,,,,,,,,0,,,74,70
64200,note_off,120,0,3,,,,,,,,,2,,,62,0
64200,note_off,360,0,1,,,,,,,,,0,,,76,0
64200,note_on,0,0,1,,,,,,,,,0,,,86,70
64200,note_on,126,0,5,,,,,,,,,4,,,32,70
64260,set_tempo,420,1,0,,,,,,517241,,,,,,,
64278,note_off,78,0,5,,,,,,,,,4,,,32,0
64278,note_off,78,0,4,,,,,,,,,3,,,44,0
64320,note_on,42,0,5,,,,,,,,,4,,,33,70
64320,note_on,0,0,1,,,,,,,,,0,,,72,70
64320,note_on,0,0,1,,,,,,,,,0,,,84,70
64320,note_off,0,0,1,,,,,,,,,0,,,86,0
64320,note_off,120,0,1,,,,,,,,,0,,,74,0
64320,note_on,42,0,4,,,,,,,,,3,,,45,70
64320,set_tempo,60,1,0,,,,,,508474,,,,,,,
64320,note_off,0,0,3,,,,,,,,,2,,,59,0
64320,note_on,0,0,3,,,,,,,,,2,,,52,64
64320,control_change,120,0,3,,,,,,,64,0,2,,,,
64360,control_change,40,0,3,,,,,,,64,127,2,,,,
64440,note_off,80,0,3,,,,,,,,,2,,,52,0
64440,note_on,0,0,3,,,,,,,,,2,,,57,64
64560,note_off,120,0,3,,,,,,,,,2,,,57,0
64560,note_on,0,0,3,,,,,,,,,2,,,60,65
64680,note_off,120,0,3,,,,,,,,,2,,,60,0
64680,note_on,0,0,3,,,,,,,,,2,,,57,65
64680,note_off,360,0,5,,,,,,,,,4,,,33,0
64680,note_off,360,0,1,,,,,,,,,0,,,72,0
64680,note_off,0,0,1,,,,,,,,,0,,,84,0
64680,note_off,360,0,4,,,,,,,,,3,,,45,0
64800,note_on,120,0,5,,,,,,,,,4,,,40,72
64800,note_on,0,0,1,,,,,,,,,0,,,72,72
64800,note_on,0,0,3,,,,,,,,,2,,,48,66
64800,note_off,0,0,3,,,,,,,,,2,,,57,0
64800,control_change,120,0,3,,,,,,,64,0,2,,,,
64800,note_on,120,0,1,,,,,,,,,0,,,84,72
64840,control_change,40,0,3,,,,,,,64,127,2,,,,
64920,note_off,80,0,3,,,,,,,,,2,,,48,0
64920,note_on,0,0,3,,,,,,,,,2,,,55,67
65034,note_off,234,0,5,,,,,,,,,4,,,40,0
65040,note_on,0,0,3,,,,,,,,,2,,,58,67
65040,note_off,120,0,3,,,,,,,,,2,,,55,0
65160,note_on,0,0,3,,,,,,,,,2,,,55,68
65160,note_off,360,0,1,,,,,,,,,0,,,72,0
65160,note_on,126,0,5,,,,,,,,,4,,,40,74
65160,note_on,0,0,1,,,,,,,,,0,,,70,74
65160,note_on,0,0,1,,,,,,,,,0,,,82,74
65160,note_off,120,0,3,,,,,,,,,2,,,58,0
65160,note_off,0,0,1,,,,,,,,,0,,,84,0
65212,set_tempo,892,1,0,,,,,,517241,,,,,,,
65238,note_off,78,0,5,,,,,,,,,4,,,40,0
65280,set_tempo,68,1,0,,,,,,508474,,,,,,,
65280,note_on,42,0,5,,,,,,,,,4,,,41,74
65280,note_on,0,0,1,,,,,,,,,0,,,69,74
65280,note_on,0,0,1,,,,,,,,,0,,,81,74
65280,note_off,0,0,1,,,,,,,,,0,,,82,0
65280,note_off,120,0,1,,,,,,,,,0,,,70,0
65280,note_on,0,0,3,,,,,,,,,2,,,48,68
65280,note_off,0,0,3,,,,,,,,,2,,,55,0
65280,control_change,120,0,3,,,,,,,64,0,2,,,,
65320,control_change,40,0,3,,,,,,,64,127,2,,,,
65400,note_off,80,0,3,,,,,,,,,2,,,48,0
65400,note_on,0,0,3,,,,,,,,,2,,,53,69
65520,note_on,0,0,3,,,,,,,,,2,,,57,69
65520,note_off,120,0,3,,,,,,,,,2,,,53,0
65640,note_off,360,0,1,,,,,,,,,0,,,69,0
65640,note_off,120,0,3,,,,,,,,,2,,,57,0
65640,note_off,0,0,1,,,,,,,,,0,,,81,0
65640,note_off,360,0,5,,,,,,,,,4,,,41,0
65640,note_on,0,0,3,,,,,,,,,2,,,53,70
65760,note_on,120,0,1,,,,,,,,,0,,,81,76
65760,note_on,0,0,1,,,,,,,,,0,,,69,76
65760,control_change,120,0,3,,,,,,,64,0,2,,,,
65760,note_on,120,0,5,,,,,,,,,4,,,37,76
65760,note_on,0,0,3,,,,,,,,,2,,,52,70
65760,note_off,0,0,3,,,,,,,,,2,,,53,0
65800,control_change,40,0,3,,,,,,,64,127,2,,,,
65880,note_on,0,0,3,,,,,,,,,2,,,55,71
65880,note_off,80,0,3,,,,,,,,,2,,,52,0
65994,note_off,234,0,5,,,,,,,,,4,,,37,0
66000,note_off,120,0,3,,,,,,,,,2,,,55,0
66000,note_on,0,0,3,,,,,,,,,2,,,57,71
66120,note_off,360,0,1,,,,,,,,,0,,,69,0
66120,note_on,126,0,5,,,,,,,,,4,,,37,78
66120,note_off,0,0,1,,,,,,,,,0,,,81,0
66120,note_on,0,0,1,,,,,,,,,0,,,79,78
66120,note_on,0,0,1,,,,,,,,,0,,,67,78
66120,note_off,120,0,3,,,,,,,,,2,,,57,0
66120,note_on,0,0,3,,,,,,,,,2,,,52,72
66180,set_tempo,900,1,0,,,,,,517241,,,,,,,
66198,note_off,78,0,5,,,,,,,,,4,,,37,0
66240,note_off,0,0,3,,,,,,,,,2,,,52,0
66240,note_off,120,0,1,,,,,,,,,0,,,67,0
66240,note_off,0,0,1,,,,,,,,,0,,,79,0
66240,note_on,0,0,1,,,,,,,,,0,,,77,79
66240,note_on,0,0,3,,,,,,,,,2,,,50,72
66240,note_on,42,0,5,,,,,,,,,4,,,38,79
66240,note_on,0,0,1,,,,,,,,,0,,,65,79
66240,control_change,120,0,3,,,,,,,64,0,2,,,,
66240,set_tempo,60,1,0,,,,,,508474,,,,,,,
66280,control_change,40,0,3,,,,,,,64,127,2,,,,
66360,note_off,80,0,3,,,,,,,,,2,,,50,0
66360,note_on,0,0,3,,,,,,,,,2,,,57,73
66360,note_off,120,0,1,,,,,,,,,0,,,65,0
66360,note_off,0,0,1,,,,,,,,,0,,,77,0
66360,note_off,120,0,5,,,,,,,,,4,,,38,0
66480,note_off,120,0,3,,,,,,,,,2,,,57,0
66480,note_on,0,0,3,,,,,,,,,2,,,49,73
66480,note_on,0,0,3,,,,,,,,,2,,,55,73
66480,note_on,120,0,5,,,,,,,,,4,,,40,80
66480,note_on,120,0,1,,,,,,,,,0,,,76,80
66480,note_on,0,0,1,,,,,,,,,0,,,64,80
66600,note_on,0,0,3,,,,,,,,,2,,,57,74
66600,note_off,120,0,3,,,,,,,,,2,,,55,0
66600,note_off,120,0,5,,,,,,,,,4,,,40,0
66600,note_off,120,0,1,,,,,,,,,0,,,64,0
66600,note_off,0,0,3,,,,,,,,,2,,,49,0
66600,note_off,0,0,1,,,,,,,,,0,,,76,0
66720,note_on,120,0,1,,,,,,,,,0,,,62,81
66720,control_change,0,0,3,,,,,,,64,0,2,,,,
66720,note_off,0,0,3,,,,,,,,,2,,,57,0
66720,note_on,0,0,3,,,,,,,,,2,,,50,74
66720,note_on,0,0,3,,,,,,,,,2,,,53,74
66720,note_on,0,0,1,,,,,,,,,0,,,74,81
66720,control_change,120,0,3,,,,,,,64,0,2,,,,
66720,note_on,120,0,5,,,,,,,,,4,,,41,81
66760,control_change,40,0,3,,,,,,,64,127,2,,,,
66760,control_change,0,0,3,,,,,,,64,127,2,,,,
66840,note_off,120,0,5,,,,,,,,,4,,,41,0
66840,note_off,80,0,3,,,,,,,,,2,,,53,0
66840,note_off,0,0,3,,,,,,,,,2,,,50,0
66840,note_on,0,0,3,,,,,,,,,2,,,57,75
66840,note_off,120,0,1,,,,,,,,,0,,,74,0
66840,note_off,0,0,1,,,,,,,,,0,,,62,0
66960,note_off,120,0,3,,,,,,,,,2,,,57,0
66960,note_on,120,0,1,,,,,,,,,0,,,72,82
66960,note_on,0,0,1,,,,,,,,,0,,,60,82
66960,note_on,0,0,3,,,,,,,,,2,,,50,75
66960,note_on,120,0,5,,,,,,,,,4,,,42,82
67080,note_off,120,0,3,,,,,,,,,2,,,50,0
67080,note_on,0,0,3,,,,,,,,,2,,,57,76
67080,note_off,0,0,1,,,,,,,,,0,,,72,0
67080,note_off,120,0,1,,,,,,,,,0,,,60,0
67080,note_off,120,0,5,,,,,,,,,4,,,42,0
67140,set_tempo,900,1,0,,,,,,517241,,,,,,,
67200,note_on,0,0,3,,,,,,,,,2,,,50,76
67200,note_off,0,0,3,,,,,,,,,2,,,57,0
67200,control_change,120,0,3,,,,,,,64,0,2,,,,
67200,note_on,120,0,1,,,,,,,,,0,,,59,83
67200,note_on,120,0,5,,,,,,,,,4,,,43,83
67200,note_on,0,0,1,,,,,,,,,0,,,71,83
67240,control_change,40,0,3,,,,,,,64,127,2,,,,
67280,set_tempo,140,1,0,,,,,,508474,,,,,,,
67320,note_off,120,0,5,,,,,,,,,4,,,43,0
67320,note_off,120,0,1,,,,,,,,,0,,,71,0
67320,note_off,0,0,1,,,,,,,,,0,,,59,0
67320,note_off,80,0,3,,,,,,,,,2,,,50,0
67320,note_on,0,0,3,,,,,,,,,2,,,55,77
67440,note_on,0,0,3,,,,,,,,,2,,,43,78
67440,note_on,120,0,1,,,,,,,,,0,,,83,84
67440,note_on,0,0,1,,,,,,,,,0,,,71,84
67440,note_on,120,0,5,,,,,,,,,4,,,41,84
67440,note_off,120,0,3,,,,,,,,,2,,,55,0
67560,note_off,120,0,1,,,,,,,,,0,,,71,0
67560,note_off,0,0,1,,,,,,,,,0,,,83,0
67560,note_off,120,0,5,,,,,,,,,4,,,41,0
67560,note_on,0,0,3,,,,,,,,,2,,,55,78
67560,note_off,120,0,3,,,,,,,,,2,,,43,0
67680,note_on,0,0,1,,,,,,,,,0,,,72,85
67680,note_on,0,0,3,,,,,,,,,2,,,43,79
67680,control_change,120,0,3,,,,,,,64,0,2,,,,
67680,note_on,120,0,5,,,,,,,,,4,,,40,85
67680,note_off,0,0,3,,,,,,,,,2,,,55,0
67680,note_on,120,0,1,,,,,,,,,0,,,84,85
67720,control_change,40,0,3,,,,,,,64,127,2,,,,
67800,note_off,120,0,1,,,,,,,,,0,,,72,0
67800,note_off,0,0,1,,,,,,,,,0,,,84,0
67800,note_off,120,0,5,,,,,,,,,4,,,40,0
67800,note_on,0,0,3,,,,,,,,,2,,,55,79
67800,note_off,80,0,3,,,,,,,,,2,,,43,0
67920,note_on,0,0,1,,,,,,,,,0,,,74,86
67920,note_on,120,0,5,,,,,,,,,4,,,41,86
67920,note_on,0,0,3,,,,,,,,,2,,,45,80
67920,note_off,120,0,3,,,,,,,,,2,,,55,0
67920,note_on,120,0,1,,,,,,,,,0,,,86,86
67920,note_on,0,0,2,,,,,,,,,1,,,69,86
67920,note_on,8040,0,2,,,,,,,,,1,,,72,86
68040,note_off,0,0,2,,,,,,,,,1,,,72,0
68040,note_off,120,0,2,,,,,,,,,1,,,69,0
68040,note_off,120,0,3,,,,,,,,,2,,,45,0
68040,note_off,120,0,5,,,,,,,,,4,,,41,0
68040,note_off,0,0,1,,,,,,,,,0,,,86,0
68040,note_on,0,0,3,,,,,,,,,2,,,57,80
68040,note_off,120,0,1,,,,,,,,,0,,,74,0
68160,note_on,0,0,2,,,,,,,,,1,,,72,89
68160,note_on,120,0,2,,,,,,,,,1,,,67,89
68160,note_on,0,0,1,,,,,,,,,0,,,76,89
68160,note_on,120,0,1,,,,,,,,,0,,,88,89
68160,control_change,120,0,3,,,,,,,64,0,2,,,,
68160,note_on,0,0,2,,,,,,,,,1,,,84,89
68160,note_on,0,0,3,,,,,,,,,2,,,43,81
68160,note_off,0,0,3,,,,,,,,,2,,,57,0
68160,note_on,120,0,5,,,,,,,,,4,,,31,89
68200,control_change,40,0,3,,,,,,,64,127,2,,,,
68280,note_off,80,0,3,,,,,,,,,2,,,43,0
68280,note_on,0,0,3,,,,,,,,,2,,,48,81
68340,note_off,180,0,1,,,,,,,,,0,,,76,0
68340,note_off,0,0,1,,,,,,,,,0,,,88,0
68340,note_off,180,0,5,,,,,,,,,4,,,31,0
68340,note_off,180,0,2,,,,,,,,,1,,,84,0
68340,note_off,0,0,2,,,,,,,,,1,,,72,0
68340,note_off,0,0,2,,,,,,,,,1,,,67,0
68400,note_off,120,0,3,,,,,,,,,2,,,48,0
68400,note_on,0,0,3,,,,,,,,,2,,,52,79
68520,set_tempo,1240,1,0,,,,,,517241,,,,,,,
68520,note_on,0,0,3,,,,,,,,,2,,,55,78
68520,note_off,120,0,3,,,,,,,,,2,,,52,0
68640,note_on,0,0,2,,,,,,,,,1,,,71,84
68640,note_on,300,0,1,,,,,,,,,0,,,74,84
68640,note_on,0,0,1,,,,,,,,,0,,,86,84
68640,note_on,300,0,2,,,,,,,,,1,,,83,84
68640,note_on,0,0,3,,,,,,,,,2,,,43,77
68640,control_change,120,0,3,,,,,,,64,0,2,,,,
68640,note_on,300,0,5,,,,,,,,,4,,,31,84
68640,note_on,0,0,2,,,,,,,,,1,,,67,84
68640,note_on,0,0,2,,,,,,,,,1,,,65,84
68640,note_off,0,0,3,,,,,,,,,2,,,55,0
68680,control_change,40,0,3,,,,,,,64,127,2,,,,
68760,note_off,80,0,3,,,,,,,,,2,,,43,0
68760,note_on,0,0,3,,,,,,,,,2,,,47,75
68820,note_off,180,0,5,,,,,,,,,4,,,31,0
68820,note_off,180,0,2,,,,,,,,,1,,,65,0
68820,note_off,0,0,2,,,,,,,,,1,,,67,0
68820,note_off,0,0,2,,,,,,,,,1,,,71,0
68820,note_off,0,0,1,,,,,,,,,0,,,74,0
68820,note_off,0,0,2,,,,,,,,,1,,,83,0
68820,note_off,180,0,1,,,,,,,,,0,,,86,0
68880,note_on,0,0,3,,,,,,,,,2,,,50,74
68880,note_off,120,0,3,,,,,,,,,2,,,47,0
69000,note_off,120,0,3,,,,,,,,,2,,,50,0
69000,note_on,0,0,3,,,,,,,,,2,,,55,73
69000,set_tempo,480,1,0,,,,,,535714,,,,,,,
69120,note_on,300,0,5,,,,,,,,,4,,,36,80
69120,note_on,0,0,1,,,,,,,,,0,,,84,80
69120,note_on,300,0,2,,,,,,,,,1,,,64,80
69120,note_on,4440,0,4,,,,,,,,,3,,,48,80
69120,control_change,120,0,3,,,,,,,64,0,2,,,,
69120,note_off,0,0,3,,,,,,,,,2,,,55,0
69120,set_tempo,120,1,0,,,,,,508474,,,,,,,
69120,note_on,300,0,1,,,,,,,,,0,,,72,80
69120,note_on,0,0,2,,,,,,,,,1,,,67,80
69480,note_off,360,0,2,,,,,,,,,1,,,67,0
69480,note_off,0,0,2,,,,,,,,,1,,,64,0
69480,note_off,0,0,1,,,,,,,,,0,,,72,0
69480,set_tempo,360,1,0,,,,,,517241,,,,,,,
69480,note_off,360,0,5,,,,,,,,,4,,,36,0
69480,note_off,360,0,4,,,,,,,,,3,,,48,0
69480,note_off,360,0,1,,,,,,,,,0,,,84,0
69600,set_tempo,120,1,0,,,,,,508474,,,,,,,
69600,note_on,0,0,5,,,,,,,,,4,,,48,57
69600,note_on,120,0,5,,,,,,,,,4,,,64,57
69600,note_on,120,0,4,,,,,,,,,3,,,60,57
69600,note_on,0,0,4,,,,,,,,,3,,,55,57
69834,note_off,234,0,5,,,,,,,,,4,,,48,0
69834,note_off,234,0,4,,,,,,,,,3,,,55,0
69834,note_off,0,0,4,,,,,,,,,3,,,60,0
69834,note_off,0,0,5,,,,,,,,,4,,,64,0
69960,note_on,126,0,5,,,,,,,,,4,,,64,55
69960,note_on,0,0,5,,,,,,,,,4,,,48,55
69960,note_on,0,0,4,,,,,,,,,3,,,55,55
69960,note_on,126,0,4,,,,,,,,,3,,,60,55
70020,set_tempo,420,1,0,,,,,,517241,,,,,,,
70038,note_off,78,0,4,,,,,,,,,3,,,55,0
70038,note_off,0,0,5,,,,,,,,,4,,,64,0
70038,note_off,78,0,5,,,,,,,,,4,,,48,0
70038,note_off,0,0,4,,,,,,,,,3,,,60,0
70080,note_on,42,0,4,,,,,,,,,3,,,62,54
70080,note_on,42,0,5,,,,,,,,,4,,,65,54
70080,note_on,0,0,5,,,,,,,,,4,,,36,54
70080,set_tempo,60,1,0,,,,,,508474,,,,,,,
70080,note_on,0,0,1,,,,,,,,,0,,,67,54
70080,note_on,600,0,1,,,,,,,,,0,,,79,54
70080,note_on,0,0,4,,,,,,,,,3,,,55,54
70200,note_off,120,0,1,,,,,,,,,0,,,67,0
70200,note_off,0,0,1,,,,,,,,,0,,,79,0
70200,note_on,0,0,1,,,,,,,,,0,,,69,53
70200,note_on,0,0,1,,,,,,,,,0,,,81,53
70320,note_on,0,0,1,,,,,,,,,0,,,71,52
70320,note_on,0,0,1,,,,,,,,,0,,,83,52
70320,note_off,120,0,1,,,,,,,,,0,,,81,0
70320,note_off,0,0,1,,,,,,,,,0,,,69,0
70440,note_off,360,0,4,,,,,,,,,3,,,55,0
70440,note_off,0,0,4,,,,,,,,,3,,,62,0
70440,note_off,360,0,5,,,,,,,,,4,,,36,0
70440,note_off,0,0,5,,,,,,,,,4,,,65,0
70440,note_on,0,0,1,,,,,,,,,0,,,72,52
70440,note_on,0,0,1,,,,,,,,,0,,,84,52
70440,note_off,0,0,1,,,,,,,,,0,,,71,0
70440,note_off,120,0,1,,,,,,,,,0,,,83,0
70560,note_on,0,0,5,,,,,,,,,4,,,48,51
70560,note_off,120,0,1,,,,,,,,,0,,,72,0
70560,note_off,0,0,1,,,,,,,,,0,,,84,0
70560,note_on,120,0,5,,,,,,,,,4,,,65,51
70560,note_on,0,0,1,,,,,,,,,0,,,86,51
70560,note_on,0,0,1,,,,,,,,,0,,,74,51
70560,note_on,120,0,4,,,,,,,,,3,,,62,51
70560,note_on,0,0,4,,,,,,,,,3,,,55,51
70680,note_off,120,0,1,,,,,,,,,0,,,86,0
70680,note_off,0,0,1,,,,,,,,,0,,,74,0
70680,note_on,0,0,1,,,,,,,,,0,,,76,50
70680,note_on,0,0,1,,,,,,,,,0,,,88,50
70794,note_off,234,0,4,,,,,,,,,3,,,55,0
70794,note_off,0,0,4,,,,,,,,,3,,,62,0
70794,note_off,234,0,5,,,,,,,,,4,,,48,0
70794,note_off,0,0,5,,,,,,,,,4,,,65,0
70800,note_on,0,0,1,,,,,,,,,0,,,77,50
70800,note_off,0,0,1,,,,,,,,,0,,,76,0
70800,note_off,120,0,1,,,,,,,,,0,,,88,0
70800,note_on,0,0,1,,,,,,,,,0,,,89,50
70920,note_on,126,0,4,,,,,,,,,3,,,62,49
70920,note_on,0,0,4,,,,,,,,,3,,,55,49
70920,note_on,0,0,1,,,,,,,,,0,,,86,49
70920,note_on,126,0,5,,,,,,,,,4,,,65,49
70920,note_on,0,0,1,,,,,,,,,0,,,74,49
70920,note_off,0,0,1,,,,,,,,,0,,,77,0
70920,note_off,120,0,1,,,,,,,,,0,,,89,0
70920,note_on,0,0,5,,,,,,,,,4,,,48,49
70980,set_tempo,900,1,0,,,,,,517241,,,,,,,
70998,note_off,0,0,5,,,,,,,,,4,,,65,0
70998,note_off,78,0,5,,,,,,,,,4,,,48,0
70998,note_off,0,0,4,,,,,,,,,3,,,62,0
70998,note_off,78,0,4,,,,,,,,,3,,,55,0
71040,note_on,42,0,5,,,,,,,,,4,,,64,48
71040,note_on,42,0,4,,,,,,,,,3,,,55,48
71040,note_on,0,0,5,,,,,,,,,4,,,36,48
71040,note_on,0,0,4,,,,,,,,,3,,,60,48
71040,note_on,0,0,1,,,,,,,,,0,,,76,48
71040,note_on,0,0,1,,,,,,,,,0,,,88,48
71040,note_off,0,0,1,,,,,,,,,0,,,74,0
71040,note_off,120,0,1,,,,,,,,,0,,,86,0
71040,set_tempo,60,1,0,,,,,,508474,,,,,,,
71400,set_tempo,360,1,0,,,,,,517241,,,,,,,
71400,note_off,0,0,4,,,,,,,,,3,,,55,0
71400,note_off,360,0,5,,,,,,,,,4,,,36,0
71400,note_off,360,0,1,,,,,,,,,0,,,76,0
71400,note_off,0,0,1,,,,,,,,,0,,,88,0
71400,note_off,0,0,5,,,,,,,,,4,,,64,0
71400,note_off,360,0,4,,,,,,,,,3,,,60,0
71520,note_on,120,0,4,,,,,,,,,3,,,55,44
71520,set_tempo,120,1,0,,,,,,508474,,,,,,,
71520,note_on,0,0,5,,,,,,,,,4,,,48,44
71520,note_on,120,0,5,,,,,,,,,4,,,64,44
71520,note_on,0,0,4,,,,,,,,,3,,,60,44
71754,note_off,234,0,4,,,,,,,,,3,,,60,0
71754,note_off,0,0,4,,,,,,,,,3,,,55,0
71754,note_off,234,0,5,,,,,,,,,4,,,48,0
71754,note_off,0,0,5,,,,,,,,,4,,,64,0
71880,note_on,0,0,4,,,,,,,,,3,,,55,42
71880,note_on,126,0,5,,,,,,,,,4,,,64,42
71880,note_on,0,0,5,,,,,,,,,4,,,48,42
71880,note_on,126,0,4,,,,,,,,,3,,,60,42
71925,set_tempo,405,1,0,,,,,,517241,,,,,,,
71958,note_off,78,0,5,,,,,,,,,4,,,48,0
71958,note_off,0,0,4,,,,,,,,,3,,,60,0
71958,note_off,0,0,5,,,,,,,,,4,,,64,0
71958,note_off,78,0,4,,,,,,,,,3,,,55,0
72000,note_on,0,0,5,,,,,,,,,4,,,36,42
72000,note_on,0,0,4,,,,,,,,,3,,,59,42
72000,note_on,600,0,1,,,,,,,,,0,,,67,42
72000,note_on,0,0,1,,,,,,,,,0,,,79,42
72000,note_on,42,0,5,,,,,,,,,4,,,62,42
72000,note_on,0,0,4,,,,,,,,,3,,,55,42
72000,note_on,42,0,4,,,,,,,,,3,,,53,42
72000,set_tempo,75,1,0,,,,,,508474,,,,,,,
72120,note_on,0,0,1,,,,,,,,,0,,,66,41
72120,note_off,0,0,1,,,,,,,,,0,,,67,0
72120,note_on,0,0,1,,,,,,,,,0,,,78,41
72120,note_off,120,0,1,,,,,,,,,0,,,79,0
72240,note_off,120,0,1,,,,,,,,,0,,,78,0
72240,note_on,0,0,1,,,,,,,,,0,,,67,41
72240,note_on,0,0,1,,,,,,,,,0,,,79,41
72240,note_off,0,0,1,,,,,,,,,0,,,66,0
72360,note_off,0,0,4,,,,,,,,,3,,,53,0
72360,note_off,0,0,4,,,,,,,,,3,,,55,0
72360,note_off,360,0,5,,,,,,,,,4,,,36,0
72360,note_off,0,0,5,,,,,,,,,4,,,62,0
72360,note_off,360,0,4,,,,,,,,,3,,,59,0
72360,note_off,120,0,1,,,,,,,,,0,,,67,0
72360,note_off,0,0,1,,,,,,,,,0,,,79,0
72360,note_on,0,0,1,,,,,,,,,0,,,81,40
72360,note_on,0,0,1,,,,,,,,,0,,,69,40
72480,note_on,120,0,5,,,,,,,,,4,,,62,40
72480,note_on,0,0,5,,,,,,,,,4,,,48,40
72480,note_on,120,0,4,,,,,,,,,3,,,53,40
72480,note_on,0,0,4,,,,,,,,,3,,,59,40
72480,note_on,0,0,4,,,,,,,,,3,,,55,40
72480,note_off,120,0,1,,,,,,,,,0,,,69,0
72480,note_off,0,0,1,,,,,,,,,0,,,81,0
72480,note_on,0,0,1,,,,,,,,,0,,,83,40
72480,note_on,0,0,1,,,,,,,,,0,,,71,40
72600,note_off,0,0,1,,,,,,,,,0,,,83,0
72600,note_on,0,0,1,,,,,,,,,0,,,84,39
72600,note_on,0,0,1,,,,,,,,,0,,,72,39
72600,note_off,120,0,1,,,,,,,,,0,,,71,0
72714,note_off,0,0,4,,,,,,,,,3,,,53,0
72714,note_off,0,0,4,,,,,,,,,3,,,59,0
72714,note_off,234,0,4,,,,,,,,,3,,,55,0
72714,note_off,0,0,5,,,,,,,,,4,,,62,0
72714,note_off,234,0,5,,,,,,,,,4,,,48,0
72720,note_off,120,0,1,,,,,,,,,0,,,72,0
72720,note_off,0,0,1,,,,,,,,,0,,,84,0
72720,note_on,0,0,1,,,,,,,,,0,,,86,38
72720,note_on,0,0,1,,,,,,,,,0,,,74,38
72840,note_on,0,0,4,,,,,,,,,3,,,55,38
72840,note_on,0,0,4,,,,,,,,,3,,,53,38
72840,note_on,126,0,4,,,,,,,,,3,,,59,38
72840,set_tempo,840,1,0,,,,,,517241,,,,,,,
72840,note_on,0,0,1,,,,,,,,,0,,,71,38
72840,note_on,0,0,1,,,,,,,,,0,,,83,38
72840,note_off,0,0,1,,,,,,,,,0,,,86,0
72840,note_off,120,0,1,,,,,,,,,0,,,74,0
72840,note_on,126,0,5,,,,,,,,,4,,,62,38
72840,note_on,0,0,5,,,,,,,,,4,,,48,38
72918,note_off,78,0,5,,,,,,,,,4,,,48,0
72918,note_off,78,0,4,,,,,,,,,3,,,55,0
72918,note_off,0,0,4,,,,,,,,,3,,,53,0
72918,note_off,0,0,5,,,,,,,,,4,,,62,0
72918,note_off,0,0,4,,,,,,,,,3,,,59,0
72960,note_off,120,0,1,,,,,,,,,0,,,71,0
72960,note_on,0,0,1,,,,,,,,,0,,,84,37
72960,note_off,0,0,1,,,,,,,,,0,,,83,0
72960,note_on,0,0,1,,,,,,,,,0,,,72,37
72960,note_on,42,0,4,,,,,,,,,3,,,52,37
72960,set_tempo,120,1,0,,,,,,508474,,,,,,,
72960,note_on,42,0,5,,,,,,,,,4,,,60,37
72960,note_on,0,0,4,,,,,,,,,3,,,55,37
72960,note_on,0,0,5,,,,,,,,,4,,,36,37
73320,note_off,0,0,5,,,,,,,,,4,,,60,0
73320,set_tempo,360,1,0,,,,,,517241,,,,,,,
73320,note_off,360,0,1,,,,,,,,,0,,,72,0
73320,note_off,360,0,5,,,,,,,,,4,,,36,0
73320,note_off,0,0,4,,,,,,,,,3,,,52,0
73320,note_off,360,0,4,,,,,,,,,3,,,55,0
73320,note_off,0,0,1,,,,,,,,,0,,,84,0
73440,note_on,0,0,4,,,,,,,,,3,,,60,35
73440,note_on,0,0,5,,,,,,,,,4,,,48,35
73440,note_on,120,0,4,,,,,,,,,3,,,55,35
73440,set_tempo,120,1,0,,,,,,508474,,,,,,,
73440,note_on,120,0,5,,,,,,,,,4,,,64,35
73674,note_off,0,0,4,,,,,,,,,3,,,55,0
73674,note_off,234,0,4,,,,,,,,,3,,,60,0
73674,note_off,234,0,5,,,,,,,,,4,,,48,0
73674,note_off,0,0,5,,,,,,,,,4,,,64,0
73800,note_on,0,0,4,,,,,,,,,3,,,60,43
73800,note_on,126,0,4,,,,,,,,,3,,,55,43
73800,note_on,0,0,5,,,,,,,,,4,,,48,43
73800,note_on,126,0,5,,,,,,,,,4,,,64,43
73860,set_tempo,420,1,0,,,,,,517241,,,,,,,
73878,note_off,78,0,5,,,,,,,,,4,,,48,0
73878,note_off,0,0,4,,,,,,,,,3,,,55,0
73878,note_off,78,0,4,,,,,,,,,3,,,60,0
73878,note_off,0,0,5,,,,,,,,,4,,,64,0
73920,set_tempo,60,1,0,,,,,,508474,,,,,,,
73920,note_on,0,0,4,,,,,,,,,3,,,62,46
73920,note_on,42,0,5,,,,,,,,,4,,,65,46
73920,note_on,42,0,4,,,,,,,,,3,,,55,46
73920,note_on,600,0,1,,,,,,,,,0,,,67,46
73920,note_on,0,0,1,,,,,,,,,0,,,79,46
73920,note_on,0,0,5,,,,,,,,,4,,,36,46
74040,note_off,120,0,1,,,,,,,,,0,,,79,0
74040,note_off,0,0,1,,,,,,,,,0,,,67,0
74040,note_on,0,0,1,,,,,,,,,0,,,69,48
74040,note_on,0,0,1,,,,,,,,,0,,,81,48
74160,note_off,0,0,1,,,,,,,,,0,,,69,0
74160,note_on,0,0,1,,,,,,,,,0,,,83,51
74160,note_on,0,0,1,,,,,,,,,0,,,71,51
74160,note_off,120,0,1,,,,,,,,,0,,,81,0
74280,note_off,0,0,1,,,,,,,,,0,,,71,0
74280,note_on,0,0,1,,,,,,,,,0,,,84,54
74280,note_off,120,0,1,,,,,,,,,0,,,83,0
74280,note_off,0,0,4,,,,,,,,,3,,,55,0
74280,note_off,360,0,4,,,,,,,,,3,,,62,0
74280,note_off,360,0,5,,,,,,,,,4,,,36,0
74280,note_off,0,0,5,,,,,,,,,4,,,65,0
74280,note_on,0,0,1,,,,,,,,,0,,,72,54
74400,note_on,120,0,4,,,,,,,,,3,,,55,57
74400,note_on,120,0,5,,,,,,,,,4,,,65,57
74400,note_on,0,0,5,,,,,,,,,4,,,48,57
74400,note_on,0,0,4,,,,,,,,,3,,,62,57
74400,note_on,0,0,1,,,,,,,,,0,,,86,57
74400,note_off,120,0,1,,,,,,,,,0,,,72,0
74400,note_off,0,0,1,,,,,,,,,0,,,84,0
74400,note_on,0,0,1,,,,,,,,,0,,,74,57
74520,note_off,120,0,1,,,,,,,,,0,,,86,0
74520,note_on,0,0,1,,,,,,,,,0,,,88,59
74520,note_on,0,0,1,,,,,,,,,0,,,76,59
74520,note_off,0,0,1,,,,,,,,,0,,,74,0
74634,note_off,234,0,4,,,,,,,,,3,,,62,0
74634,note_off,0,0,4,,,,,,,,,3,,,55,0
74634,note_off,0,0,5,,,,,,,,,4,,,65,0
74634,note_off,234,0,5,,,,,,,,,4,,,48,0
74640,note_on,0,0,1,,,,,,,,,0,,,77,62
74640,note_off,0,0,1,,,,,,,,,0,,,76,0
74640,note_off,120,0,1,,,,,,,,,0,,,88,0
74640,note_on,0,0,1,,,,,,,,,0,,,89,62
74760,note_on,126,0,5,,,,,,,,,4,,,65,65
74760,note_on,0,0,5,,,,,,,,,4,,,48,65
74760,note_on,126,0,4,,,,,,,,,3,,,55,65
74760,note_on,0,0,1,,,,,,,,,0,,,74,65
74760,note_on,0,0,4,,,,,,,,,3,,,62,65
74760,note_off,120,0,1,,,,,,,,,0,,,89,0
74760,note_on,0,0,1,,,,,,,,,0,,,86,65
74760,note_off,0,0,1,,,,,,,,,0,,,77,0
74838,note_off,0,0,4,,,,,,,,,3,,,55,0
74838,note_off,78,0,4,,,,,,,,,3,,,62,0
74838,note_off,78,0,5,,,,,,,,,4,,,48,0
74842,set_tempo,922,1,0,,,,,,517241,,,,,,,
74880,note_off,42,0,5,,,,,,,,,4,,,65,0
74880,note_on,0,0,5,,,,,,,,,4,,,64,68
74880,note_on,0,0,5,,,,,,,,,4,,,48,68
74880,set_tempo,38,1,0,,,,,,508474,,,,,,,
74880,note_off,120,0,1,,,,,,,,,0,,,86,0
74880,note_on,0,0,1,,,,,,,,,0,,,84,68
74880,note_off,0,0,1,,,,,,,,,0,,,74,0
74880,note_on,0,0,4,,,,,,,,,3,,,60,68
74880,note_on,42,0,4,,,,,,,,,3,,,55,68
74880,note_on,0,0,1,,,,,,,,,0,,,72,68
75000,note_off,120,0,1,,,,,,,,,0,,,84,0
75000,note_off,0,0,1,,,,,,,,,0,,,72,0
75000,note_on,0,0,1,,,,,,,,,0,,,83,71
75000,note_on,0,0,5,,,,,,,,,4,,,47,71
75000,note_off,120,0,5,,,,,,,,,4,,,48,0
75000,note_on,0,0,1,,,,,,,,,0,,,71,71
75120,note_off,120,0,1,,,,,,,,,0,,,71,0
75120,note_on,0,0,1,,,,,,,,,0,,,69,73
75120,note_on,0,0,1,,,,,,,,,0,,,81,73
75120,note_off,0,0,1,,,,,,,,,0,,,83,0
75120,note_off,120,0,5,,,,,,,,,4,,,47,0
75120,note_on,0,0,5,,,,,,,,,4,,,45,73
75240,note_on,0,0,1,,,,,,,,,0,,,79,76
75240,note_on,0,0,1,,,,,,,,,0,,,67,76
75240,note_off,360,0,4,,,,,,,,,3,,,60,0
75240,note_off,0,0,4,,,,,,,,,3,,,55,0
75240,note_on,0,0,5,,,,,,,,,4,,,43,76
75240,note_off,120,0,5,,,,,,,,,4,,,45,0
75240,note_off,0,0,5,,,,,,,,,4,,,64,0
75240,note_off,0,0,1,,,,,,,,,0,,,69,0
75240,note_off,120,0,1,,,,,,,,,0,,,81,0
75360,note_off,120,0,1,,,,,,,,,0,,,67,0
75360,note_off,0,0,1,,,,,,,,,0,,,79,0
75360,note_on,0,0,1,,,,,,,,,0,,,65,79
75360,note_on,0,0,1,,,,,,,,,0,,,77,79
75360,note_on,0,0,5,,,,,,,,,4,,,41,79
75360,note_off,120,0,5,,,,,,,,,4,,,43,0
75480,note_on,0,0,1,,,,,,,,,0,,,76,82
75480,note_off,120,0,5,,,,,,,,,4,,,41,0
75480,note_on,0,0,1,,,,,,,,,0,,,64,82
75480,note_off,0,0,1,,,,,,,,,0,,,65,0
75480,note_off,120,0,1,,,,,,,,,0,,,77,0
75480,note_on,0,0,5,,,,,,,,,4,,,40,82
75600,note_off,0,0,1,,,,,,,,,0,,,64,0
75600,note_on,0,0,1,,,,,,,,,0,,,62,84
75600,note_on,0,0,1,,,,,,,,,0,,,74,84
75600,note_off,120,0,1,,,,,,,,,0,,,76,0
75600,note_on,0,0,5,,,,,,,,,4,,,38,84
75600,note_off,120,0,5,,,,,,,,,4,,,40,0
75720,note_on,0,0,1,,,,,,,,,0,,,60,87
75720,note_off,120,0,1,,,,,,,,,0,,,62,0
75720,note_off,120,0,5,,,,,,,,,4,,,38,0
75720,note_on,0,0,5,,,,,,,,,4,,,36,87
75720,note_on,0,0,1,,,,,,,,,0,,,72,87
75720,set_tempo,840,1,0,,,,,,517241,,,,,,,
75720,note_off,0,0,1,,,,,,,,,0,,,74,0
75840,note_on,0,0,1,,,,,,,,,0,,,79,90
75840,note_on,0,0,1,,,,,,,,,0,,,67,90
75840,note_off,120,0,5,,,,,,,,,4,,,36,0
75840,note_on,0,0,5,,,,,,,,,4,,,43,90
75840,set_tempo,120,1,0,,,,,,508474,,,,,,,
75840,note_off,120,0,1,,,,,,,,,0,,,60,0
75840,note_off,0,0,1,,,,,,,,,0,,,72,0
75840,note_on,600,0,4,,,,,,,,,3,,,55,90
75960,note_off,120,0,4,,,,,,,,,3,,,55,0
75960,note_on,0,0,4,,,,,,,,,3,,,57,92
76080,note_off,120,0,4,,,,,,,,,3,,,57,0
76080,note_on,0,0,4,,,,,,,,,3,,,59,93
76200,note_off,0,0,1,,,,,,,,,0,,,79,0
76200,note_off,360,0,1,,,,,,,,,0,,,67,0
76200,note_off,360,0,5,,,,,,,,,4,,,43,0
76200,note_off,120,0,4,,,,,,,,,3,,,59,0
76200,note_on,0,0,4,,,,,,,,,3,,,60,93
76320,note_on,0,0,1,,,,,,,,,0,,,83,94
76320,note_on,120,0,1,,,,,,,,,0,,,71,94
76320,note_on,0,0,4,,,,,,,,,3,,,62,94
76320,note_on,120,0,5,,,,,,,,,4,,,31,94
76320,note_off,120,0,4,,,,,,,,,3,,,60,0
76400,note_off,0,0,1,,,,,,,,,0,,,71,0
76400,note_on,0,0,1,,,,,,,,,0,,,84,94
76400,note_on,0,0,1,,,,,,,,,0,,,72,94
76400,note_off,80,0,1,,,,,,,,,0,,,83,0
76440,note_off,120,0,4,,,,,,,,,3,,,62,0
76440,note_on,0,0,4,,,,,,,,,3,,,64,94
76480,note_off,0,0,1,,,,,,,,,0,,,84,0
76480,note_off,80,0,1,,,,,,,,,0,,,72,0
76480,note_on,0,0,1,,,,,,,,,0,,,71,95
76480,note_on,0,0,1,,,,,,,,,0,,,83,95
76554,note_off,234,0,5,,,,,,,,,4,,,31,0
76560,note_on,0,0,4,,,,,,,,,3,,,65,95
76560,note_on,0,0,1,,,,,,,,,0,,,81,95
76560,note_off,80,0,1,,,,,,,,,0,,,71,0
76560,note_off,0,0,1,,,,,,,,,0,,,83,0
76560,note_on,0,0,1,,,,,,,,,0,,,69,95
76560,note_off,120,0,4,,,,,,,,,3,,,64,0
76680,note_off,120,0,4,,,,,,,,,3,,,65,0
76680,note_on,0,0,4,,,,,,,,,3,,,62,96
76680,set_tempo,840,1,0,,,,,,517241,,,,,,,
76680,note_off,0,0,1,,,,,,,,,0,,,69,0
76680,note_on,0,0,1,,,,,,,,,0,,,83,96
76680,note_on,0,0,1,,,,,,,,,0,,,71,96
76680,note_off,120,0,1,,,,,,,,,0,,,81,0
76680,note_on,126,0,5,,,,,,,,,4,,,31,96
76758,note_off,78,0,5,,,,,,,,,4,,,31,0
76800,set_tempo,120,1,0,,,,,,526315,,,,,,,
76800,note_on,0,0,1,,,,,,,,,0,,,72,96
76800,note_on,0,0,1,,,,,,,,,0,,,84,96
76800,note_off,0,0,1,,,,,,,,,0,,,83,0
76800,note_off,120,0,1,,,,,,,,,0,,,71,0
76800,note_on,0,0,4,,,,,,,,,3,,,60,96
76800,note_off,120,0,4,,,,,,,,,3,,,62,0
76800,note_on,42,0,5,,,,,,,,,4,,,36,96
77160,note_off,360,0,4,,,,,,,,,3,,,60,0
77160,note_off,0,0,1,,,,,,,,,0,,,84,0
77160,note_off,360,0,1,,,,,,,,,0,,,72,0
77160,note_off,360,0,5,,,,,,,,,4,,,36,0
77280,note_on,120,0,4,,,,,,,,,3,,,48,96
77280,note_on,0,0,2,,,,,,,,,1,,,84,96
77280,note_on,0,0,2,,,,,,,,,1,,,72,96
77280,note_on,7800,0,2,,,,,,,,,1,,,60,96
77280,note_on,0,0,2,,,,,,,,,1,,,79,96
77280,note_on,0,0,2,,,,,,,,,1,,,67,96
77280,note_on,0,0,2,,,,,,,,,1,,,64,96
77280,note_on,120,0,1,,,,,,,,,0,,,88,96
77280,note_on,120,0,5,,,,,,,,,4,,,36,96
77280,note_on,0,0,1,,,,,,,,,0,,,76,96
77400,note_on,0,0,5,,,,,,,,,4,,,31,94
77400,note_off,120,0,5,,,,,,,,,4,,,36,0
77400,note_on,0,0,4,,,,,,,,,3,,,43,94
77400,note_off,120,0,4,,,,,,,,,3,,,48,0
77520,note_off,120,0,4,,,,,,,,,3,,,43,0
77520,note_off,120,0,5,,,,,,,,,4,,,31,0
77520,note_on,0,0,5,,,,,,,,,4,,,36,92
77520,note_on,0,0,4,,,,,,,,,3,,,48,92
77530,set_tempo,730,1,0,,,,,,550458,,,,,,,
77640,set_tempo,110,1,0,,,,,,550458,,,,,,,
77640,note_off,0,0,2,,,,,,,,,1,,,72,0
77640,note_off,0,0,2,,,,,,,,,1,,,64,0
77640,note_off,120,0,5,,,,,,,,,4,,,36,0
77640,note_off,0,0,1,,,,,,,,,0,,,88,0
77640,note_off,360,0,1,,,,,,,,,0,,,76,0
77640,note_off,0,0,2,,,,,,,,,1,,,67,0
77640,note_off,0,0,2,,,,,,,,,1,,,79,0
77640,note_on,0,0,4,,,,,,,,,3,,,43,91
77640,note_off,120,0,4,,,,,,,,,3,,,48,0
77640,note_on,0,0,5,,,,,,,,,4,,,31,91
77640,note_off,360,0,2,,,,,,,,,1,,,84,0
77640,note_off,0,0,2,,,,,,,,,1,,,60,0
77760,note_off,120,0,4,,,,,,,,,3,,,43,0
77760,note_on,0,0,4,,,,,,,,,3,,,48,89
77760,note_on,120,0,2,,,,,,,,,1,,,60,89
77760,note_on,0,0,1,,,,,,,,,0,,,72,89
77760,note_off,120,0,5,,,,,,,,,4,,,31,0
77760,note_on,0,0,5,,,,,,,,,4,,,36,89
77760,note_on,0,0,2,,,,,,,,,1,,,64,89
77760,note_on,0,0,2,,,,,,,,,1,,,76,89
77760,note_on,0,0,2,,,,,,,,,1,,,79,89
77760,note_on,0,0,2,,,,,,,,,1,,,67,89
77760,note_on,120,0,1,,,,,,,,,0,,,84,89
78110,set_tempo,470,1,0,,,,,,2400000,,,,,,,
78120,note_off,0,0,2,,,,,,,,,1,,,60,0
78120,note_off,360,0,2,,,,,,,,,1,,,79,0
78120,note_off,0,0,2,,,,,,,,,1,,,76,0
78120,note_off,0,0,2,,,,,,,,,1,,,64,0
78120,note_off,360,0,4,,,,,,,,,3,,,48,0
78120,note_off,0,0,2,,,,,,,,,1,,,67,0
78120,note_off,360,0,5,,,,,,,,,4,,,36,0
78120,note_off,360,0,1,,,,,,,,,0,,,72,0
78120,note_off,0,0,1,,,,,,,,,0,,,84,0
78240,control_change,9120,0,3,,,,,,,64,0,2,,,,
78240,set_tempo,130,1,0,,,,,,508474,,,,,,,
78240,control_change,120,0,2,,,,,,,64,0,1,,,,
78240,control_change,120,0,5,,,,,,,64,0,4,,,,
78240,control_change,120,0,4,,,,,,,64,0,3,,,,
78240,note_on,0,0,1,,,,,,,,,0,,,67,44
78240,control_change,120,0,1,,,,,,,64,0,0,,,,
78480,note_off,240,0,1,,,,,,,,,0,,,67,0
78480,note_on,0,0,1,,,,,,,,,0,,,69,45
78600,note_off,120,0,1,,,,,,,,,0,,,69,0
78600,set_tempo,360,1,0,,,,,,517241,,,,,,,
78600,note_on,0,0,1,,,,,,,,,0,,,71,46
78720,note_off,120,0,1,,,,,,,,,0,,,71,0
78720,control_change,480,0,3,,,,,,,64,0,2,,,,
78720,note_on,0,0,3,,,,,,,,,2,,,52,41
78720,note_on,480,0,5,,,,,,,,,4,,,48,49
78720,note_on,0,0,1,,,,,,,,,0,,,72,46
78720,set_tempo,120,1,0,,,,,,508474,,,,,,,
78760,control_change,40,0,3,,,,,,,64,127,2,,,,
78880,note_on,0,0,3,,,,,,,,,2,,,55,42
78880,note_off,120,0,3,,,,,,,,,2,,,52,0
79040,note_off,160,0,3,,,,,,,,,2,,,55,0
79040,note_on,0,0,3,,,,,,,,,2,,,60,44
79200,note_on,0,0,3,,,,,,,,,2,,,52,45
79200,note_off,0,0,3,,,,,,,,,2,,,60,0
79200,control_change,160,0,3,,,,,,,64,0,2,,,,
79240,control_change,40,0,3,,,,,,,64,127,2,,,,
79360,note_on,0,0,3,,,,,,,,,2,,,55,46
79360,note_off,120,0,3,,,,,,,,,2,,,52,0
79520,note_on,0,0,3,,,,,,,,,2,,,60,47
79520,note_off,160,0,3,,,,,,,,,2,,,55,0
79680,note_on,0,0,5,,,,,,,,,4,,,43,55
79680,note_on,0,0,3,,,,,,,,,2,,,55,48
79680,note_off,0,0,3,,,,,,,,,2,,,60,0
79680,control_change,160,0,3,,,,,,,64,0,2,,,,
79680,note_off,960,0,5,,,,,,,,,4,,,48,0
79680,note_off,960,0,1,,,,,,,,,0,,,72,0
79680,note_on,0,0,1,,,,,,,,,0,,,74,50
79720,control_change,40,0,3,,,,,,,64,127,2,,,,
79840,note_on,0,0,3,,,,,,,,,2,,,59,49
79840,note_off,120,0,3,,,,,,,,,2,,,55,0
80000,note_on,0,0,3,,,,,,,,,2,,,62,50
80000,note_off,160,0,3,,,,,,,,,2,,,59,0
80160,note_on,0,0,1,,,,,,,,,0,,,76,52
80160,note_on,0,0,3,,,,,,,,,2,,,55,51
80160,control_change,160,0,3,,,,,,,64,0,2,,,,
80160,note_off,0,0,3,,,,,,,,,2,,,62,0
80160,note_on,0,0,5,,,,,,,,,4,,,40,57
80160,note_off,480,0,1,,,,,,,,,0,,,74,0
80160,note_off,480,0,5,,,,,,,,,4,,,43,0
80200,control_change,40,0,3,,,,,,,64,127,2,,,,
80320,note_on,0,0,3,,,,,,,,,2,,,61,52
80320,note_off,120,0,3,,,,,,,,,2,,,55,0
80480,note_off,160,0,3,,,,,,,,,2,,,61,0
80480,note_on,0,0,3,,,,,,,,,2,,,64,53
80520,set_tempo,1800,1,0,,,,,,517241,,,,,,,
80640,note_on,0,0,1,,,,,,,,,0,,,77,60
80640,note_on,0,0,5,,,,,,,,,4,,,38,61
80640,note_off,480,0,5,,,,,,,,,4,,,40,0
80640,note_off,0,0,3,,,,,,,,,2,,,64,0
80640,note_on,0,0,3,,,,,,,,,2,,,57,53
80640,note_off,480,0,1,,,,,,,,,0,,,76,0
80640,set_tempo,120,1,0,,,,,,508474,,,,,,,
80640,control_change,160,0,3,,,,,,,64,0,2,,,,
80680,control_change,40,0,3,,,,,,,64,127,2,,,,
80800,note_off,120,0,3,,,,,,,,,2,,,57,0
80800,note_on,0,0,3,,,,,,,,,2,,,62,53
80960,note_off,160,0,3,,,,,,,,,2,,,62,0
80960,note_on,0,0,3,,,,,,,,,2,,,65,53
81120,control_change,160,0,3,,,,,,,64,0,2,,,,
81120,note_off,0,0,3,,,,,,,,,2,,,65,0
81120,note_on,0,0,3,,,,,,,,,2,,,53,52
81160,control_change,40,0,3,,,,,,,64,127,2,,,,
81280,note_on,0,0,3,,,,,,,,,2,,,57,52
81280,note_off,120,0,3,,,,,,,,,2,,,53,0
81440,note_off,160,0,3,,,,,,,,,2,,,57,0
81440,note_on,0,0,3,,,,,,,,,2,,,62,51
81600,control_change,160,0,3,,,,,,,64,0,2,,,,
81600,note_on,0,0,3,,,,,,,,,2,,,50,51
81600,note_off,960,0,5,,,,,,,,,4,,,38,0
81600,note_on,0,0,5,,,,,,,,,4,,,41,58
81600,note_off,960,0,1,,,,,,,,,0,,,77,0
81600,note_on,0,0,1,,,,,,,,,0,,,74,54
81600,note_off,0,0,3,,,,,,,,,2,,,62,0
81640,control_change,40,0,3,,,,,,,64,127,2,,,,
81760,note_off,120,0,3,,,,,,,,,2,,,50,0
81760,note_on,0,0,3,,,,,,,,,2,,,57,51
81920,note_on,0,0,3,,,,,,,,,2,,,62,50
81920,note_off,160,0,3,,,,,,,,,2,,,57,0
82080,control_change,160,0,3,,,,,,,64,0,2,,,,
82080,note_off,0,0,3,,,,,,,,,2,,,62,0
82080,note_on,0,0,5,,,,,,,,,4,,,42,56
82080,note_off,480,0,5,,,,,,,,,4,,,41,0
82080,note_on,0,0,3,,,,,,,,,2,,,50,50
82120,control_change,40,0,3,,,,,,,64,127,2,,,,
82240,note_on,0,0,3,,,,,,,,,2,,,57,50
82240,note_off,120,0,3,,,,,,,,,2,,,50,0
82320,note_off,720,0,1,,,,,,,,,0,,,74,0
82320,note_on,0,0,1,,,,,,,,,0,,,72,52
82400,note_on,0,0,3,,,,,,,,,2,,,60,49
82400,note_off,160,0,3,,,,,,,,,2,,,57,0
82440,set_tempo,1800,1,0,,,,,,517241,,,,,,,
82560,control_change,160,0,3,,,,,,,64,0,2,,,,
82560,note_off,0,0,3,,,,,,,,,2,,,60,0
82560,note_on,0,0,1,,,,,,,,,0,,,71,51
82560,note_off,240,0,1,,,,,,,,,0,,,72,0
82560,note_on,0,0,5,,,,,,,,,4,,,43,54
82560,note_off,480,0,5,,,,,,,,,4,,,42,0
82560,set_tempo,120,1,0,,,,,,508474,,,,,,,
82560,note_on,0,0,3,,,,,,,,,2,,,50,49
82600,control_change,40,0,3,,,,,,,64,127,2,,,,
82640,note_on,0,0,1,,,,,,,,,0,,,72,51
82640,note_off,80,0,1,,,,,,,,,0,,,71,0
82720,note_on,0,0,1,,,,,,,,,0,,,71,51
82720,note_off,120,0,3,,,,,,,,,2,,,50,0
82720,note_off,80,0,1,,,,,,,,,0,,,72,0
82720,note_on,0,0,3,,,,,,,,,2,,,55,48
82800,note_on,0,0,1,,,,,,,,,0,,,69,51
82800,note_off,80,0,1,,,,,,,,,0,,,71,0
82880,note_on,0,0,3,,,,,,,,,2,,,59,48
82880,note_off,160,0,3,,,,,,,,,2,,,55,0
82920,note_on,0,0,1,,,,,,,,,0,,,71,50
82920,note_off,120,0,1,,,,,,,,,0,,,69,0
83040,note_on,0,0,1,,,,,,,,,0,,,74,50
83040,note_off,0,0,3,,,,,,,,,2,,,59,0
83040,note_on,0,0,3,,,,,,,,,2,,,47,48
83040,control_change,160,0,3,,,,,,,64,0,2,,,,
83040,note_off,120,0,1,,,,,,,,,0,,,71,0
83080,control_change,40,0,3,,,,,,,64,127,2,,,,
83200,note_on,0,0,3,,,,,,,,,2,,,50,47
83200,note_off,120,0,3,,,,,,,,,2,,,47,0
83280,note_off,240,0,1,,,,,,,,,0,,,74,0
83280,note_on,0,0,1,,,,,,,,,0,,,71,49
83360,note_on,0,0,3,,,,,,,,,2,,,55,47
83360,note_off,160,0,3,,,,,,,,,2,,,50,0
83520,note_off,960,0,5,,,,,,,,,4,,,43,0
83520,note_on,0,0,5,,,,,,,,,4,,,31,51
83520,note_off,240,0,1,,,,,,,,,0,,,71,0
83520,note_on,0,0,1,,,,,,,,,0,,,67,49
83520,note_off,0,0,3,,,,,,,,,2,,,55,0
83520,note_on,0,0,3,,,,,,,,,2,,,47,47
83520,control_change,160,0,3,,,,,,,64,0,2,,,,
83560,control_change,40,0,3,,,,,,,64,127,2,,,,
83680,note_off,120,0,3,,,,,,,,,2,,,47,0
83680,note_on,0,0,3,,,,,,,,,2,,,50,46
83840,note_off,160,0,3,,,,,,,,,2,,,50,0
83840,note_on,0,0,3,,,,,,,,,2,,,55,46
83880,note_off,360,0,1,,,,,,,,,0,,,67,0
84000,note_on,120,0,1,,,,,,,,,0,,,79,47
84000,note_on,0,0,3,,,,,,,,,2,,,47,45
84000,control_change,160,0,3,,,,,,,64,0,2,,,,
84000,note_off,0,0,3,,,,,,,,,2,,,55,0
84040,control_change,40,0,3,,,,,,,64,127,2,,,,
84160,note_off,120,0,3,,,,,,,,,2,,,47,0
84160,note_on,0,0,3,,,,,,,,,2,,,50,45
84320,note_off,160,0,3,,,,,,,,,2,,,50,0
84320,note_on,0,0,3,,,,,,,,,2,,,55,45
84360,set_tempo,1800,1,0,,,,,,517241,,,,,,,
84360,note_off,360,0,1,,,,,,,,,0,,,79,0
84360,note_on,0,0,1,,,,,,,,,0,,,77,46
84435,note_off,75,0,1,,,,,,,,,0,,,77,0
84440,note_on,5,0,1,,,,,,,,,0,,,77,46
84480,control_change,160,0,3,,,,,,,64,0,2,,,,
84480,note_off,0,0,3,,,,,,,,,2,,,55,0
84480,note_on,0,0,3,,,,,,,,,2,,,48,44
84480,note_on,40,0,1,,,,,,,,,0,,,76,46
84480,note_on,0,0,5,,,,,,,,,4,,,36,47
84480,set_tempo,120,1,0,,,,,,508474,,,,,,,
84480,note_off,960,0,5,,,,,,,,,4,,,31,0
84505,note_off,25,0,1,,,,,,,,,0,,,77,0
84520,control_change,40,0,3,,,,,,,64,127,2,,,,
84640,note_off,120,0,3,,,,,,,,,2,,,48,0
84640,note_on,0,0,3,,,,,,,,,2,,,52,44
84800,note_off,160,0,3,,,,,,,,,2,,,52,0
84800,note_on,0,0,3,,,,,,,,,2,,,55,44
84840,note_on,0,0,1,,,,,,,,,0,,,74,45
84840,note_off,335,0,1,,,,,,,,,0,,,76,0
84960,note_off,0,0,3,,,,,,,,,2,,,55,0
84960,note_on,0,0,3,,,,,,,,,2,,,48,43
84960,control_change,160,0,3,,,,,,,64,0,2,,,,
84960,note_off,120,0,1,,,,,,,,,0,,,74,0
84960,note_on,0,0,1,,,,,,,,,0,,,76,44
85000,control_change,40,0,3,,,,,,,64,127,2,,,,
85120,note_off,120,0,3,,,,,,,,,2,,,48,0
85120,note_on,0,0,3,,,,,,,,,2,,,52,43
85280,note_off,160,0,3,,,,,,,,,2,,,52,0
85280,note_on,0,0,3,,,,,,,,,2,,,55,42
85320,note_off,360,0,1,,,,,,,,,0,,,76,0
85320,note_on,0,0,1,,,,,,,,,0,,,77,43
85440,note_on,0,0,5,,,,,,,,,4,,,40,48
85440,note_on,0,0,1,,,,,,,,,0,,,79,43
85440,note_off,960,0,5,,,,,,,,,4,,,36,0
85440,note_on,0,0,3,,,,,,,,,2,,,48,42
85440,note_off,0,0,3,,,,,,,,,2,,,55,0
85440,note_off,120,0,1,,,,,,,,,0,,,77,0
85440,control_change,160,0,3,,,,,,,64,0,2,,,,
85480,control_change,40,0,3,,,,,,,64,127,2,,,,
85600,note_off,120,0,3,,,,,,,,,2,,,48,0
85600,note_on,0,0,3,,,,,,,,,2,,,52,42
85760,note_on,0,0,3,,,,,,,,,2,,,55,41
85760,note_off,160,0,3,,,,,,,,,2,,,52,0
85800,set_tempo,1320,1,0,,,,,,517241,,,,,,,
85800,note_off,360,0,1,,,,,,,,,0,,,79,0
85920,note_on,0,0,5,,,,,,,,,4,,,43,49
85920,note_on,7680,0,2,,,,,,,,,1,,,67,42
85920,note_off,0,0,3,,,,,,,,,2,,,55,0
85920,set_tempo,120,1,0,,,,,,508474,,,,,,,
85920,note_on,0,0,3,,,,,,,,,2,,,50,41
85920,note_on,120,0,1,,,,,,,,,0,,,79,42
85920,control_change,160,0,3,,,,,,,64,0,2,,,,
85920,note_off,480,0,5,,,,,,,,,4,,,40,0
85960,control_change,40,0,3,,,,,,,64,127,2,,,,
86080,note_on,0,0,3,,,,,,,,,2,,,53,41
86080,note_off,120,0,3,,,,,,,,,2,,,50,0
86160,note_off,240,0,1,,,,,,,,,0,,,79,0
86160,note_off,240,0,2,,,,,,,,,1,,,67,0
86160,note_on,0,0,2,,,,,,,,,1,,,69,43
86160,note_on,0,0,1,,,,,,,,,0,,,81,43
86240,note_on,0,0,3,,,,,,,,,2,,,55,40
86240,note_off,160,0,3,,,,,,,,,2,,,53,0
86280,note_off,120,0,1,,,,,,,,,0,,,81,0
86280,note_on,0,0,1,,,,,,,,,0,,,83,43
86280,note_off,120,0,2,,,,,,,,,1,,,69,0
86280,note_on,0,0,2,,,,,,,,,1,,,71,43
86280,set_tempo,360,1,0,,,,,,517241,,,,,,,
86400,note_on,0,0,5,,,,,,,,,4,,,48,51
86400,note_off,480,0,5,,,,,,,,,4,,,43,0
86400,set_tempo,120,1,0,,,,,,508474,,,,,,,
86400,note_off,0,0,3,,,,,,,,,2,,,55,0
86400,note_on,0,0,3,,,,,,,,,2,,,52,40
86400,control_change,160,0,3,,,,,,,64,0,2,,,,
86400,note_on,0,0,1,,,,,,,,,0,,,84,44
86400,note_off,120,0,2,,,,,,,,,1,,,71,0
86400,note_on,0,0,2,,,,,,,,,1,,,72,44
86400,note_off,120,0,1,,,,,,,,,0,,,83,0
86440,control_change,40,0,3,,,,,,,64,127,2,,,,
86560,note_off,120,0,3,,,,,,,,,2,,,52,0
86560,note_on,0,0,3,,,,,,,,,2,,,55,39
86720,note_off,160,0,3,,,,,,,,,2,,,55,0
86720,note_on,0,0,3,,,,,,,,,2,,,52,40
86880,note_on,0,0,5,,,,,,,,,4,,,36,53
86880,note_off,480,0,5,,,,,,,,,4,,,48,0
86880,note_off,0,0,3,,,,,,,,,2,,,52,0
86880,note_on,0,0,3,,,,,,,,,2,,,48,40
86880,control_change,160,0,3,,,,,,,64,0,2,,,,
86920,control_change,40,0,3,,,,,,,64,127,2,,,,
87040,note_on,0,0,3,,,,,,,,,2,,,52,41
87040,note_off,120,0,3,,,,,,,,,2,,,48,0
87200,note_on,0,0,3,,,,,,,,,2,,,55,42
87200,note_off,160,0,3,,,,,,,,,2,,,52,0
87360,note_off,960,0,2,,,,,,,,,1,,,72,0
87360,note_on,0,0,2,,,,,,,,,1,,,74,47
87360,note_off,960,0,1,,,,,,,,,0,,,84,0
87360,note_off,480,0,5,,,,,,,,,4,,,36,0
87360,note_on,0,0,1,,,,,,,,,0,,,86,47
87360,note_on,0,0,3,,,,,,,,,2,,,47,43
87360,note_off,0,0,3,,,,,,,,,2,,,55,0
87360,note_on,0,0,5,,,,,,,,,4,,,43,55
87360,control_change,160,0,3,,,,,,,64,0,2,,,,
87400,control_change,40,0,3,,,,,,,64,127,2,,,,
87520,note_on,0,0,3,,,,,,,,,2,,,50,44
87520,note_off,120,0,3,,,,,,,,,2,,,47,0
87680,note_off,160,0,3,,,,,,,,,2,,,50,0
87680,note_on,0,0,3,,,,,,,,,2,,,55,45
87840,note_off,0,0,3,,,,,,,,,2,,,55,0
87840,note_off,480,0,2,,,,,,,,,1,,,74,0
87840,note_on,0,0,2,,,,,,,,,1,,,76,49
87840,note_off,480,0,5,,,,,,,,,4,,,43,0
87840,control_change,160,0,3,,,,,,,64,0,2,,,,
87840,note_on,0,0,5,,,,,,,,,4,,,40,57
87840,note_on,0,0,3,,,,,,,,,2,,,49,45
87840,note_off,480,0,1,,,,,,,,,0,,,86,0
87840,note_on,0,0,1,,,,,,,,,0,,,88,49
87880,control_change,40,0,3,,,,,,,64,127,2,,,,
88000,note_off,120,0,3,,,,,,,,,2,,,49,0
88000,note_on,0,0,3,,,,,,,,,2,,,55,46
88160,note_off,160,0,3,,,,,,,,,2,,,55,0
88160,note_on,0,0,3,,,,,,,,,2,,,57,47
88200,set_tempo,1800,1,0,,,,,,517241,,,,,,,
88320,control_change,160,0,3,,,,,,,64,0,2,,,,
88320,note_off,0,0,3,,,,,,,,,2,,,57,0
88320,note_on,0,0,3,,,,,,,,,2,,,50,47
88320,note_on,0,0,1,,,,,,,,,0,,,89,53
88320,note_off,480,0,1,,,,,,,,,0,,,88,0
88320,note_off,480,0,5,,,,,,,,,4,,,40,0
88320,note_off,480,0,2,,,,,,,,,1,,,76,0
88320,note_on,0,0,2,,,,,,,,,1,,,77,53
88320,set_tempo,120,1,0,,,,,,508474,,,,,,,
88320,note_on,0,0,5,,,,,,,,,4,,,38,61
88360,control_change,40,0,3,,,,,,,64,127,2,,,,
88480,note_off,120,0,3,,,,,,,,,2,,,50,0
88480,note_on,0,0,3,,,,,,,,,2,,,53,47
88640,note_off,160,0,3,,,,,,,,,2,,,53,0
88640,note_on,0,0,3,,,,,,,,,2,,,57,47
88800,control_change,160,0,3,,,,,,,64,0,2,,,,
88800,note_off,0,0,3,,,,,,,,,2,,,57,0
88800,note_on,0,0,3,,,,,,,,,2,,,50,46
88840,control_change,40,0,3,,,,,,,64,127,2,,,,
88960,note_off,120,0,3,,,,,,,,,2,,,50,0
88960,note_on,0,0,3,,,,,,,,,2,,,53,46
89120,note_off,160,0,3,,,,,,,,,2,,,53,0
89120,note_on,0,0,3,,,,,,,,,2,,,57,46
89280,note_on,0,0,5,,,,,,,,,4,,,41,58
89280,note_off,960,0,5,,,,,,,,,4,,,38,0
89280,note_off,960,0,1,,,,,,,,,0,,,89,0
89280,note_on,0,0,1,,,,,,,,,0,,,86,50
89280,note_off,960,0,2,,,,,,,,,1,,,77,0
89280,control_change,160,0,3,,,,,,,64,0,2,,,,
89280,note_on,0,0,2,,,,,,,,,1,,,74,50
89280,note_on,0,0,3,,,,,,,,,2,,,50,45
89280,note_off,0,0,3,,,,,,,,,2,,,57,0
89320,control_change,40,0,3,,,,,,,64,127,2,,,,
89440,note_on,0,0,3,,,,,,,,,2,,,57,45
89440,note_off,120,0,3,,,,,,,,,2,,,50,0
89600,note_off,160,0,3,,,,,,,,,2,,,57,0
89600,note_on,0,0,3,,,,,,,,,2,,,62,44
89760,control_change,160,0,3,,,,,,,64,0,2,,,,
89760,note_on,0,0,3,,,,,,,,,2,,,50,44
89760,note_off,480,0,5,,,,,,,,,4,,,41,0
89760,note_on,0,0,5,,,,,,,,,4,,,42,57
89760,note_off,0,0,3,,,,,,,,,2,,,62,0
89800,control_change,40,0,3,,,,,,,64,127,2,,,,
89920,note_off,120,0,3,,,,,,,,,2,,,50,0
89920,note_on,0,0,3,,,,,,,,,2,,,57,44
90000,note_off,720,0,2,,,,,,,,,1,,,74,0
90000,note_on,0,0,2,,,,,,,,,1,,,72,48
90000,note_on,0,0,1,,,,,,,,,0,,,84,48
90000,note_off,720,0,1,,,,,,,,,0,,,86,0
90080,note_on,0,0,3,,,,,,,,,2,,,60,43
90080,note_off,160,0,3,,,,,,,,,2,,,57,0
90120,set_tempo,1800,1,0,,,,,,517241,,,,,,,
90240,control_change,160,0,3,,,,,,,64,0,2,,,,
90240,set_tempo,120,1,0,,,,,,508474,,,,,,,
90240,note_off,240,0,1,,,,,,,,,0,,,84,0
90240,note_on,0,0,1,,,,,,,,,0,,,83,47
90240,note_on,0,0,2,,,,,,,,,1,,,71,47
90240,note_off,240,0,2,,,,,,,,,1,,,72,0
90240,note_on,0,0,5,,,,,,,,,4,,,43,55
90240,note_off,480,0,5,,,,,,,,,4,,,42,0
90240,note_off,0,0,3,,,,,,,,,2,,,60,0
90240,note_on,0,0,3,,,,,,,,,2,,,50,43
90280,control_change,40,0,3,,,,,,,64,127,2,,,,
90320,note_off,80,0,1,,,,,,,,,0,,,83,0
90320,note_on,0,0,2,,,,,,,,,1,,,72,47
90320,note_off,80,0,2,,,,,,,,,1,,,71,0
90320,note_on,0,0,1,,,,,,,,,0,,,84,47
90400,note_off,80,0,1,,,,,,,,,0,,,84,0
90400,note_on,0,0,1,,,,,,,,,0,,,83,47
90400,note_off,120,0,3,,,,,,,,,2,,,50,0
90400,note_on,0,0,2,,,,,,,,,1,,,71,47
90400,note_on,0,0,3,,,,,,,,,2,,,55,43
90400,note_off,80,0,2,,,,,,,,,1,,,72,0
90480,note_off,80,0,1,,,,,,,,,0,,,83,0
90480,note_on,0,0,1,,,,,,,,,0,,,81,46
90480,note_on,0,0,2,,,,,,,,,1,,,69,46
90480,note_off,80,0,2,,,,,,,,,1,,,71,0
90560,note_on,0,0,3,,,,,,,,,2,,,59,42
90560,note_off,160,0,3,,,,,,,,,2,,,55,0
90600,note_on,0,0,1,,,,,,,,,0,,,83,46
90600,note_off,120,0,1,,,,,,,,,0,,,81,0
90600,note_on,0,0,2,,,,,,,,,1,,,71,46
90600,note_off,120,0,2,,,,,,,,,1,,,69,0
90720,note_off,0,0,3,,,,,,,,,2,,,59,0
90720,control_change,160,0,3,,,,,,,64,0,2,,,,
90720,note_off,120,0,1,,,,,,,,,0,,,83,0
90720,note_on,0,0,1,,,,,,,,,0,,,84,46
90720,note_on,0,0,3,,,,,,,,,2,,,50,42
90720,note_off,120,0,2,,,,,,,,,1,,,71,0
90720,note_on,0,0,2,,,,,,,,,1,,,72,46
90760,control_change,40,0,3,,,,,,,64,127,2,,,,
90880,note_on,0,0,3,,,,,,,,,2,,,55,42
90880,note_off,120,0,3,,,,,,,,,2,,,50,0
90960,note_off,240,0,2,,,,,,,,,1,,,72,0
90960,note_on,0,0,2,,,,,,,,,1,,,74,45
90960,note_off,240,0,1,,,,,,,,,0,,,84,0
90960,note_on,0,0,1,,,,,,,,,0,,,86,45
91040,note_on,0,0,3,,,,,,,,,2,,,59,41
91040,note_off,160,0,3,,,,,,,,,2,,,55,0
91080,set_tempo,840,1,0,,,,,,517241,,,,,,,
91200,note_off,960,0,5,,,,,,,,,4,,,43,0
91200,note_on,0,0,5,,,,,,,,,4,,,31,54
91200,note_off,240,0,1,,,,,,,,,0,,,86,0
91200,note_off,0,0,3,,,,,,,,,2,,,59,0
91200,note_on,0,0,3,,,,,,,,,2,,,50,41
91200,note_on,0,0,1,,,,,,,,,0,,,79,44
91200,note_off,240,0,2,,,,,,,,,1,,,74,0
91200,note_on,0,0,2,,,,,,,,,1,,,67,44
91200,control_change,160,0,3,,,,,,,64,0,2,,,,
91200,set_tempo,120,1,0,,,,,,508474,,,,,,,
91240,control_change,40,0,3,,,,,,,64,127,2,,,,
91280,note_on,0,0,1,,,,,,,,,0,,,81,44
91280,note_off,80,0,2,,,,,,,,,1,,,67,0
91280,note_on,0,0,2,,,,,,,,,1,,,69,44
91280,note_off,80,0,1,,,,,,,,,0,,,79,0
91360,note_on,0,0,1,,,,,,,,,0,,,79,44
91360,note_off,120,0,3,,,,,,,,,2,,,50,0
91360,note_off,80,0,2,,,,,,,,,1,,,69,0
91360,note_on,0,0,2,,,,,,,,,1,,,67,44
91360,note_off,80,0,1,,,,,,,,,0,,,81,0
91360,note_on,0,0,3,,,,,,,,,2,,,53,40
91440,note_off,80,0,2,,,,,,,,,1,,,67,0
91440,note_on,0,0,2,,,,,,,,,1,,,66,43
91440,note_off,80,0,1,,,,,,,,,0,,,79,0
91440,note_on,0,0,1,,,,,,,,,0,,,78,43
91520,note_on,0,0,3,,,,,,,,,2,,,55,40
91520,note_off,160,0,3,,,,,,,,,2,,,53,0
91560,note_on,0,0,1,,,,,,,,,0,,,79,43
91560,note_off,120,0,1,,,,,,,,,0,,,78,0
91560,note_off,120,0,2,,,,,,,,,1,,,66,0
91560,note_on,0,0,2,,,,,,,,,1,,,67,43
91680,note_off,120,0,1,,,,,,,,,0,,,79,0
91680,note_on,0,0,1,,,,,,,,,0,,,81,43
91680,note_on,0,0,3,,,,,,,,,2,,,50,40
91680,note_off,0,0,3,,,,,,,,,2,,,55,0
91680,control_change,160,0,3,,,,,,,64,0,2,,,,
91680,note_off,120,0,2,,,,,,,,,1,,,67,0
91680,note_on,0,0,2,,,,,,,,,1,,,69,43
91720,control_change,40,0,3,,,,,,,64,127,2,,,,
91840,note_on,0,0,3,,,,,,,,,2,,,53,39
91840,note_off,120,0,3,,,,,,,,,2,,,50,0
91920,note_off,240,0,1,,,,,,,,,0,,,81,0
91920,note_on,0,0,1,,,,,,,,,0,,,83,42
91920,note_off,240,0,2,,,,,,,,,1,,,69,0
91920,note_on,0,0,2,,,,,,,,,1,,,71,42
92000,note_on,0,0,3,,,,,,,,,2,,,55,39
92000,note_off,160,0,3,,,,,,,,,2,,,53,0
92040,set_tempo,840,1,0,,,,,,517241,,,,,,,
92160,set_tempo,120,1,0,,,,,,517241,,,,,,,
92160,note_off,240,0,2,,,,,,,,,1,,,71,0
92160,note_off,960,0,5,,,,,,,,,4,,,31,0
92160,note_on,0,0,5,,,,,,,,,4,,,36,51
92160,note_on,0,0,2,,,,,,,,,1,,,74,41
92160,note_on,0,0,1,,,,,,,,,0,,,86,41
92160,note_off,240,0,1,,,,,,,,,0,,,83,0
92160,note_off,0,0,3,,,,,,,,,2,,,55,0
92160,control_change,160,0,3,,,,,,,64,0,2,,,,
92160,note_on,0,0,3,,,,,,,,,2,,,47,39
92200,control_change,40,0,3,,,,,,,64,127,2,,,,
92320,note_off,120,0,3,,,,,,,,,2,,,47,0
92320,note_on,0,0,3,,,,,,,,,2,,,53,38
92480,note_off,160,0,3,,,,,,,,,2,,,53,0
92480,note_on,0,0,3,,,,,,,,,2,,,55,38
92640,note_off,480,0,5,,,,,,,,,4,,,36,0
92640,note_on,0,0,3,,,,,,,,,2,,,47,38
92640,note_off,0,0,3,,,,,,,,,2,,,55,0
92640,note_on,0,0,5,,,,,,,,,4,,,31,50
92640,control_change,160,0,3,,,,,,,64,0,2,,,,
92680,control_change,40,0,3,,,,,,,64,127,2,,,,
92800,note_on,0,0,3,,,,,,,,,2,,,53,37
92800,note_off,120,0,3,,,,,,,,,2,,,47,0
92960,note_on,0,0,3,,,,,,,,,2,,,55,37
92960,note_off,160,0,3,,,,,,,,,2,,,53,0
93120,note_on,0,0,3,,,,,,,,,2,,,48,37
93120,note_on,0,0,3,,,,,,,,,2,,,52,37
93120,note_on,0,0,3,,,,,,,,,2,,,55,37
93120,note_off,0,0,3,,,,,,,,,2,,,55,0
93120,control_change,160,0,3,,,,,,,64,0,2,,,,
93120,note_on,0,0,1,,,,,,,,,0,,,84,38
93120,note_off,960,0,1,,,,,,,,,0,,,86,0
93120,note_off,480,0,5,,,,,,,,,4,,,31,0
93120,note_on,0,0,5,,,,,,,,,4,,,36,49
93120,note_off,960,0,2,,,,,,,,,1,,,74,0
93120,note_on,0,0,2,,,,,,,,,1,,,72,38
93160,control_change,40,0,3,,,,,,,64,127,2,,,,
93480,note_off,320,0,3,,,,,,,,,2,,,48,0
93480,note_off,0,0,3,,,,,,,,,2,,,55,0
93480,note_off,0,0,3,,,,,,,,,2,,,52,0
93480,note_off,360,0,1,,,,,,,,,0,,,84,0
93480,note_off,360,0,5,,,,,,,,,4,,,36,0
93480,set_tempo,1320,1,0,,,,,,612244,,,,,,,
93480,note_off,360,0,2,,,,,,,,,1,,,72,0
93600,control_change,120,0,3,,,,,,,64,0,2,,,,
93600,control_change,120,0,2,,,,,,,64,0,1,,,,
93600,control_change,15360,0,4,,,,,,,64,0,3,,,,
93600,control_change,120,0,5,,,,,,,64,0,4,,,,
93600,control_change,120,0,1,,,,,,,64,0,0,,,,
93600,set_tempo,120,1,0,,,,,,508474,,,,,,,
93600,note_on,0,0,1,,,,,,,,,0,,,67,44
93840,note_on,0,0,1,,,,,,,,,0,,,69,45
93840,note_off,240,0,1,,,,,,,,,0,,,67,0
93960,set_tempo,360,1,0,,,,,,517241,,,,,,,
93960,note_on,0,0,1,,,,,,,,,0,,,71,46
93960,note_off,120,0,1,,,,,,,,,0,,,69,0
94080,note_off,120,0,1,,,,,,,,,0,,,71,0
94080,note_on,480,0,5,,,,,,,,,4,,,48,49
94080,control_change,480,0,3,,,,,,,64,0,2,,,,
94080,note_on,0,0,3,,,,,,,,,2,,,52,41
94080,set_tempo,120,1,0,,,,,,508474,,,,,,,
94080,note_on,0,0,1,,,,,,,,,0,,,72,46
94120,control_change,40,0,3,,,,,,,64,127,2,,,,
94240,note_off,120,0,3,,,,,,,,,2,,,52,0
94240,note_on,0,0,3,,,,,,,,,2,,,55,42
94400,note_on,0,0,3,,,,,,,,,2,,,60,44
94400,note_off,160,0,3,,,,,,,,,2,,,55,0
94560,control_change,160,0,3,,,,,,,64,0,2,,,,
94560,note_off,0,0,3,,,,,,,,,2,,,60,0
94560,note_on,0,0,3,,,,,,,,,2,,,52,45
94600,control_change,40,0,3,,,,,,,64,127,2,,,,
94720,note_off,120,0,3,,,,,,,,,2,,,52,0
94720,note_on,0,0,3,,,,,,,,,2,,,55,46
94880,note_on,0,0,3,,,,,,,,,2,,,60,47
94880,note_off,160,0,3,,,,,,,,,2,,,55,0
95040,note_on,0,0,3,,,,,,,,,2,,,55,48
95040,note_off,960,0,5,,,,,,,,,4,,,48,0
95040,note_on,0,0,5,,,,,,,,,4,,,43,55
95040,note_off,0,0,3,,,,,,,,,2,,,60,0
95040,note_off,960,0,1,,,,,,,,,0,,,72,0
95040,note_on,0,0,1,,,,,,,,,0,,,74,50
95040,control_change,160,0,3,,,,,,,64,0,2,,,,
95080,control_change,40,0,3,,,,,,,64,127,2,,,,
95200,note_on,0,0,3,,,,,,,,,2,,,59,49
95200,note_off,120,0,3,,,,,,,,,2,,,55,0
95360,note_on,0,0,3,,,,,,,,,2,,,62,50
95360,note_off,160,0,3,,,,,,,,,2,,,59,0
95520,note_off,480,0,5,,,,,,,,,4,,,43,0
95520,control_change,160,0,3,,,,,,,64,0,2,,,,
95520,note_off,480,0,1,,,,,,,,,0,,,74,0
95520,note_on,0,0,1,,,,,,,,,0,,,76,52
95520,note_off,0,0,3,,,,,,,,,2,,,62,0
95520,note_on,0,0,3,,,,,,,,,2,,,55,51
95520,note_on,0,0,5,,,,,,,,,4,,,40,57
95560,control_change,40,0,3,,,,,,,64,127,2,,,,
95680,note_on,0,0,3,,,,,,,,,2,,,61,52
95680,note_off,120,0,3,,,,,,,,,2,,,55,0
95840,note_on,0,0,3,,,,,,,,,2,,,64,53
95840,note_off,160,0,3,,,,,,,,,2,,,61,0
95880,set_tempo,1800,1,0,,,,,,517241,,,,,,,
96000,note_off,480,0,1,,,,,,,,,0,,,76,0
96000,note_off,480,0,5,,,,,,,,,4,,,40,0
96000,note_on,0,0,1,,,,,,,,,0,,,77,60
96000,note_on,0,0,5,,,,,,,,,4,,,38,61
96000,set_tempo,120,1,0,,,,,,508474,,,,,,,
96000,control_change,160,0,3,,,,,,,64,0,2,,,,
96000,note_off,0,0,3,,,,,,,,,2,,,64,0
96000,note_on,0,0,3,,,,,,,,,2,,,57,53
96040,control_change,40,0,3,,,,,,,64,127,2,,,,
96160,note_off,120,0,3,,,,,,,,,2,,,57,0
96160,note_on,0,0,3,,,,,,,,,2,,,62,53
96320,note_on,0,0,3,,,,,,,,,2,,,65,53
96320,note_off,160,0,3,,,,,,,,,2,,,62,0
96480,note_on,0,0,3,,,,,,,,,2,,,53,52
96480,note_off,0,0,3,,,,,,,,,2,,,65,0
96480,control_change,160,0,3,,,,,,,64,0,2,,,,
96520,control_change,40,0,3,,,,,,,64,127,2,,,,
96640,note_off,120,0,3,,,,,,,,,2,,,53,0
96640,note_on,0,0,3,,,,,,,,,2,,,57,52
96800,note_on,0,0,3,,,,,,,,,2,,,62,51
96800,note_off,160,0,3,,,,,,,,,2,,,57,0
96960,note_off,960,0,1,,,,,,,,,0,,,77,0
96960,note_on,0,0,1,,,,,,,,,0,,,74,54
96960,note_off,960,0,5,,,,,,,,,4,,,38,0
96960,note_on,0,0,5,,,,,,,,,4,,,41,58
96960,note_on,0,0,3,,,,,,,,,2,,,50,51
96960,note_off,0,0,3,,,,,,,,,2,,,62,0
96960,control_change,160,0,3,,,,,,,64,0,2,,,,
97000,control_change,40,0,3,,,,,,,64,127,2,,,,
97120,note_on,0,0,3,,,,,,,,,2,,,57,51
97120,note_off,120,0,3,,,,,,,,,2,,,50,0
97280,note_off,160,0,3,,,,,,,,,2,,,57,0
97280,note_on,0,0,3,,,,,,,,,2,,,62,50
97440,note_on,0,0,3,,,,,,,,,2,,,50,50
97440,control_change,160,0,3,,,,,,,64,0,2,,,,
97440,note_on,0,0,5,,,,,,,,,4,,,42,56
97440,note_off,480,0,5,,,,,,,,,4,,,41,0
97440,note_off,0,0,3,,,,,,,,,2,,,62,0
97480,control_change,40,0,3,,,,,,,64,127,2,,,,
97600,note_off,120,0,3,,,,,,,,,2,,,50,0
97600,note_on,0,0,3,,,,,,,,,2,,,57,50
97680,note_off,720,0,1,,,,,,,,,0,,,74,0
97680,note_on,0,0,1,,,,,,,,,0,,,72,52
97760,note_off,160,0,3,,,,,,,,,2,,,57,0
97760,note_on,0,0,3,,,,,,,,,2,,,60,49
97800,set_tempo,1800,1,0,,,,,,517241,,,,,,,
97920,control_change,160,0,3,,,,,,,64,0,2,,,,
97920,note_off,0,0,3,,,,,,,,,2,,,60,0
97920,note_on,0,0,3,,,,,,,,,2,,,50,49
97920,note_on,0,0,5,,,,,,,,,4,,,43,54
97920,note_on,0,0,1,,,,,,,,,0,,,71,51
97920,note_off,240,0,1,,,,,,,,,0,,,72,0
97920,note_off,480,0,5,,,,,,,,,4,,,42,0
97920,set_tempo,120,1,0,,,,,,508474,,,,,,,
97960,control_change,40,0,3,,,,,,,64,127,2,,,,
98000,note_on,0,0,1,,,,,,,,,0,,,72,51
98000,note_off,80,0,1,,,,,,,,,0,,,71,0
98080,note_on,0,0,1,,,,,,,,,0,,,71,51
98080,note_off,80,0,1,,,,,,,,,0,,,72,0
98080,note_on,0,0,3,,,,,,,,,2,,,55,48
98080,note_off,120,0,3,,,,,,,,,2,,,50,0
98160,note_on,0,0,1,,,,,,,,,0,,,69,51
98160,note_off,80,0,1,,,,,,,,,0,,,71,0
98240,note_off,160,0,3,,,,,,,,,2,,,55,0
98240,note_on,0,0,3,,,,,,,,,2,,,59,48
98280,note_on,0,0,1,,,,,,,,,0,,,71,50
98280,note_off,120,0,1,,,,,,,,,0,,,69,0
98400,control_change,160,0,3,,,,,,,64,0,2,,,,
98400,note_on,0,0,3,,,,,,,,,2,,,47,48
98400,note_on,0,0,1,,,,,,,,,0,,,74,50
98400,note_off,120,0,1,,,,,,,,,0,,,71,0
98400,note_off,0,0,3,,,,,,,,,2,,,59,0
98440,control_change,40,0,3,,,,,,,64,127,2,,,,
98560,note_off,120,0,3,,,,,,,,,2,,,47,0
98560,note_on,0,0,3,,,,,,,,,2,,,50,47
98640,note_off,240,0,1,,,,,,,,,0,,,74,0
98640,note_on,0,0,1,,,,,,,,,0,,,71,49
98720,note_on,0,0,3,,,,,,,,,2,,,55,47
98720,note_off,160,0,3,,,,,,,,,2,,,50,0
98880,note_off,240,0,1,,,,,,,,,0,,,71,0
98880,note_on,0,0,5,,,,,,,,,4,,,31,51
98880,control_change,160,0,3,,,,,,,64,0,2,,,,
98880,note_off,0,0,3,,,,,,,,,2,,,55,0
98880,note_off,960,0,5,,,,,,,,,4,,,43,0
98880,note_on,0,0,3,,,,,,,,,2,,,47,47
98880,note_on,0,0,1,,,,,,,,,0,,,67,49
98920,control_change,40,0,3,,,,,,,64,127,2,,,,
99040,note_on,0,0,3,,,,,,,,,2,,,50,46
99040,note_off,120,0,3,,,,,,,,,2,,,47,0
99200,note_off,160,0,3,,,,,,,,,2,,,50,0
99200,note_on,0,0,3,,,,,,,,,2,,,55,46
99240,note_off,360,0,1,,,,,,,,,0,,,67,0
99360,note_off,0,0,3,,,,,,,,,2,,,55,0
99360,control_change,160,0,3,,,,,,,64,0,2,,,,
99360,note_on,0,0,3,,,,,,,,,2,,,47,45
99360,note_on,120,0,1,,,,,,,,,0,,,79,47
99400,control_change,40,0,3,,,,,,,64,127,2,,,,
99520,note_off,120,0,3,,,,,,,,,2,,,47,0
99520,note_on,0,0,3,,,,,,,,,2,,,50,45
99680,note_off,160,0,3,,,,,,,,,2,,,50,0
99680,note_on,0,0,3,,,,,,,,,2,,,55,45
99720,note_off,360,0,1,,,,,,,,,0,,,79,0
99720,set_tempo,1800,1,0,,,,,,517241,,,,,,,
99720,note_on,0,0,1,,,,,,,,,0,,,77,46
99795,note_off,75,0,1,,,,,,,,,0,,,77,0
99800,note_on,5,0,1,,,,,,,,,0,,,77,46
99840,set_tempo,120,1,0,,,,,,508474,,,,,,,
99840,note_on,0,0,5,,,,,,,,,4,,,36,47
99840,note_off,960,0,5,,,,,,,,,4,,,31,0
99840,control_change,160,0,3,,,,,,,64,0,2,,,,
99840,note_on,0,0,3,,,,,,,,,2,,,48,44
99840,note_on,40,0,1,,,,,,,,,0,,,76,46
99840,note_off,0,0,3,,,,,,,,,2,,,55,0
99865,note_off,25,0,1,,,,,,,,,0,,,77,0
99880,control_change,40,0,3,,,,,,,64,127,2,,,,
100000,note_on,0,0,3,,,,,,,,,2,,,52,44
100000,note_off,120,0,3,,,,,,,,,2,,,48,0
100160,note_off,160,0,3,,,,,,,,,2,,,52,0
100160,note_on,0,0,3,,,,,,,,,2,,,55,44
100200,note_on,0,0,1,,,,,,,,,0,,,74,45
100200,note_off,335,0,1,,,,,,,,,0,,,76,0
100320,control_change,160,0,3,,,,,,,64,0,2,,,,
100320,note_on,0,0,3,,,,,,,,,2,,,48,43
100320,note_off,0,0,3,,,,,,,,,2,,,55,0
100320,note_off,120,0,1,,,,,,,,,0,,,74,0
100320,note_on,0,0,1,,,,,,,,,0,,,76,44
100360,control_change,40,0,3,,,,,,,64,127,2,,,,
100480,note_on,0,0,3,,,,,,,,,2,,,52,43
100480,note_off,120,0,3,,,,,,,,,2,,,48,0
100640,note_on,0,0,3,,,,,,,,,2,,,55,42
100640,note_off,160,0,3,,,,,,,,,2,,,52,0
100680,note_on,0,0,1,,,,,,,,,0,,,77,43
100680,note_off,360,0,1,,,,,,,,,0,,,76,0
100800,note_off,120,0,1,,,,,,,,,0,,,77,0
100800,note_off,960,0,5,,,,,,,,,4,,,36,0
100800,note_on,0,0,5,,,,,,,,,4,,,40,48
100800,note_on,0,0,1,,,,,,,,,0,,,79,43
100800,control_change,160,0,3,,,,,,,64,0,2,,,,
100800,note_off,0,0,3,,,,,,,,,2,,,55,0
100800,note_on,0,0,3,,,,,,,,,2,,,48,42
100840,control_change,40,0,3,,,,,,,64,127,2,,,,
100960,note_on,0,0,3,,,,,,,,,2,,,52,42
100960,note_off,120,0,3,,,,,,,,,2,,,48,0
101120,note_off,160,0,3,,,,,,,,,2,,,52,0
101120,note_on,0,0,3,,,,,,,,,2,,,55,41
101160,set_tempo,1320,1,0,,,,,,517241,,,,,,,
101160,note_off,360,0,1,,,,,,,,,0,,,79,0
101280,note_on,0,0,5,,,,,,,,,4,,,43,49
101280,note_off,480,0,5,,,,,,,,,4,,,40,0
101280,note_on,7680,0,2,,,,,,,,,1,,,67,42
101280,note_on,0,0,3,,,,,,,,,2,,,50,41
101280,note_off,0,0,3,,,,,,,,,2,,,55,0
101280,control_change,160,0,3,,,,,,,64,0,2,,,,
101280,set_tempo,120,1,0,,,,,,508474,,,,,,,
101280,note_on,120,0,1,,,,,,,,,0,,,79,42
101320,control_change,40,0,3,,,,,,,64,127,2,,,,
101440,note_off,120,0,3,,,,,,,,,2,,,50,0
101440,note_on,0,0,3,,,,,,,,,2,,,53,41
101520,note_off,240,0,2,,,,,,,,,1,,,67,0
101520,note_off,240,0,1,,,,,,,,,0,,,79,0
101520,note_on,0,0,1,,,,,,,,,0,,,81,43
101520,note_on,0,0,2,,,,,,,,,1,,,69,43
101600,note_on,0,0,3,,,,,,,,,2,,,55,40
101600,note_off,160,0,3,,,,,,,,,2,,,53,0
101640,note_off,120,0,2,,,,,,,,,1,,,69,0
101640,note_on,0,0,2,,,,,,,,,1,,,71,43
101640,set_tempo,360,1,0,,,,,,517241,,,,,,,
101640,note_on,0,0,1,,,,,,,,,0,,,83,43
101640,note_off,120,0,1,,,,,,,,,0,,,81,0
101760,note_on,0,0,1,,,,,,,,,0,,,84,44
101760,note_off,120,0,1,,,,,,,,,0,,,83,0
101760,note_on,0,0,3,,,,,,,,,2,,,52,40
101760,note_off,0,0,3,,,,,,,,,2,,,55,0
101760,control_change,160,0,3,,,,,,,64,0,2,,,,
101760,set_tempo,120,1,0,,,,,,508474,,,,,,,
101760,note_off,480,0,5,,,,,,,,,4,,,43,0
101760,note_on,0,0,2,,,,,,,,,1,,,72,44
101760,note_off,120,0,2,,,,,,,,,1,,,71,0
101760,note_on,0,0,5,,,,,,,,,4,,,48,51
101800,control_change,40,0,3,,,,,,,64,127,2,,,,
101920,note_on,0,0,3,,,,,,,,,2,,,55,39
101920,note_off,120,0,3,,,,,,,,,2,,,52,0
102080,note_on,0,0,3,,,,,,,,,2,,,52,40
102080,note_off,160,0,3,,,,,,,,,2,,,55,0
102240,note_off,480,0,5,,,,,,,,,4,,,48,0
102240,note_on,0,0,5,,,,,,,,,4,,,36,53
102240,note_off,0,0,3,,,,,,,,,2,,,52,0
102240,control_change,160,0,3,,,,,,,64,0,2,,,,
102240,note_on,0,0,3,,,,,,,,,2,,,48,40
102280,control_change,40,0,3,,,,,,,64,127,2,,,,
102400,note_off,120,0,3,,,,,,,,,2,,,48,0
102400,note_on,0,0,3,,,,,,,,,2,,,52,41
102560,note_off,160,0,3,,,,,,,,,2,,,52,0
102560,note_on,0,0,3,,,,,,,,,2,,,55,42
102720,note_on,0,0,3,,,,,,,,,2,,,47,43
102720,note_on,0,0,2,,,,,,,,,1,,,74,47
102720,note_off,960,0,2,,,,,,,,,1,,,72,0
102720,note_off,480,0,5,,,,,,,,,4,,,36,0
102720,note_on,0,0,5,,,,,,,,,4,,,43,55
102720,note_off,960,0,1,,,,,,,,,0,,,84,0
102720,note_on,0,0,1,,,,,,,,,0,,,86,47
102720,note_off,0,0,3,,,,,,,,,2,,,55,0
102720,control_change,160,0,3,,,,,,,64,0,2,,,,
102760,control_change,40,0,3,,,,,,,64,127,2,,,,
102880,note_on,0,0,3,,,,,,,,,2,,,50,44
102880,note_off,120,0,3,,,,,,,,,2,,,47,0
103040,note_on,0,0,3,,,,,,,,,2,,,55,45
103040,note_off,160,0,3,,,,,,,,,2,,,50,0
103200,note_on,0,0,3,,,,,,,,,2,,,49,45
103200,note_on,0,0,2,,,,,,,,,1,,,76,49
103200,note_on,0,0,5,,,,,,,,,4,,,40,57
103200,note_off,480,0,5,,,,,,,,,4,,,43,0
103200,note_off,480,0,1,,,,,,,,,0,,,86,0
103200,note_on,0,0,1,,,,,,,,,0,,,88,49
103200,control_change,160,0,3,,,,,,,64,0,2,,,,
103200,note_off,480,0,2,,,,,,,,,1,,,74,0
103200,note_off,0,0,3,,,,,,,,,2,,,55,0
103240,control_change,40,0,3,,,,,,,64,127,2,,,,
103360,note_off,120,0,3,,,,,,,,,2,,,49,0
103360,note_on,0,0,3,,,,,,,,,2,,,55,46
103520,note_off,160,0,3,,,,,,,,,2,,,55,0
103520,note_on,0,0,3,,,,,,,,,2,,,57,47
103560,set_tempo,1800,1,0,,,,,,517241,,,,,,,
103680,note_on,0,0,1,,,,,,,,,0,,,89,53
103680,note_off,0,0,3,,,,,,,,,2,,,57,0
103680,note_off,480,0,1,,,,,,,,,0,,,88,0
103680,note_on,0,0,3,,,,,,,,,2,,,50,47
103680,note_on,0,0,2,,,,,,,,,1,,,77,53
103680,note_off,480,0,5,,,,,,,,,4,,,40,0
103680,note_on,0,0,5,,,,,,,,,4,,,38,61
103680,set_tempo,120,1,0,,,,,,508474,,,,,,,
103680,control_change,160,0,3,,,,,,,64,0,2,,,,
103680,note_off,480,0,2,,,,,,,,,1,,,76,0
103720,control_change,40,0,3,,,,,,,64,127,2,,,,
103840,note_on,0,0,3,,,,,,,,,2,,,53,47
103840,note_off,120,0,3,,,,,,,,,2,,,50,0
104000,note_off,160,0,3,,,,,,,,,2,,,53,0
104000,note_on,0,0,3,,,,,,,,,2,,,57,47
104160,control_change,160,0,3,,,,,,,64,0,2,,,,
104160,note_off,0,0,3,,,,,,,,,2,,,57,0
104160,note_on,0,0,3,,,,,,,,,2,,,50,46
104200,control_change,40,0,3,,,,,,,64,127,2,,,,
104320,note_off,120,0,3,,,,,,,,,2,,,50,0
104320,note_on,0,0,3,,,,,,,,,2,,,53,46
104480,note_on,0,0,3,,,,,,,,,2,,,57,46
104480,note_off,160,0,3,,,,,,,,,2,,,53,0
104640,note_on,0,0,2,,,,,,,,,1,,,74,50
104640,note_off,960,0,2,,,,,,,,,1,,,77,0
104640,control_change,160,0,3,,,,,,,64,0,2,,,,
104640,note_off,0,0,3,,,,,,,,,2,,,57,0
104640,note_on,0,0,3,,,,,,,,,2,,,50,45
104640,note_off,960,0,5,,,,,,,,,4,,,38,0
104640,note_on,0,0,5,,,,,,,,,4,,,41,58
104640,note_on,0,0,1,,,,,,,,,0,,,86,50
104640,note_off,960,0,1,,,,,,,,,0,,,89,0
104680,control_change,40,0,3,,,,,,,64,127,2,,,,
104800,note_on,0,0,3,,,,,,,,,2,,,57,45
104800,note_off,120,0,3,,,,,,,,,2,,,50,0
104960,note_on,0,0,3,,,,,,,,,2,,,62,44
104960,note_off,160,0,3,,,,,,,,,2,,,57,0
105120,control_change,160,0,3,,,,,,,64,0,2,,,,
105120,note_off,0,0,3,,,,,,,,,2,,,62,0
105120,note_on,0,0,3,,,,,,,,,2,,,50,44
105120,note_on,0,0,5,,,,,,,,,4,,,42,57
105120,note_off,480,0,5,,,,,,,,,4,,,41,0
105160,control_change,40,0,3,,,,,,,64,127,2,,,,
105280,note_on,0,0,3,,,,,,,,,2,,,57,44
105280,note_off,120,0,3,,,,,,,,,2,,,50,0
105360,note_off,720,0,2,,,,,,,,,1,,,74,0
105360,note_off,720,0,1,,,,,,,,,0,,,86,0
105360,note_on,0,0,2,,,,,,,,,1,,,72,48
105360,note_on,0,0,1,,,,,,,,,0,,,84,48
105440,note_on,0,0,3,,,,,,,,,2,,,60,43
105440,note_off,160,0,3,,,,,,,,,2,,,57,0
105480,set_tempo,1800,1,0,,,,,,517241,,,,,,,
105600,note_on,0,0,1,,,,,,,,,0,,,83,47
105600,note_off,480,0,5,,,,,,,,,4,,,42,0
105600,note_on,0,0,5,,,,,,,,,4,,,43,55
105600,note_off,240,0,1,,,,,,,,,0,,,84,0
105600,note_off,0,0,3,,,,,,,,,2,,,60,0
105600,note_off,240,0,2,,,,,,,,,1,,,72,0
105600,note_on,0,0,2,,,,,,,,,1,,,71,47
105600,set_tempo,120,1,0,,,,,,508474,,,,,,,
105600,control_change,160,0,3,,,,,,,64,0,2,,,,
105600,note_on,0,0,3,,,,,,,,,2,,,50,43
105640,control_change,40,0,3,,,,,,,64,127,2,,,,
105680,note_on,0,0,2,,,,,,,,,1,,,72,47
105680,note_off,80,0,2,,,,,,,,,1,,,71,0
105680,note_off,80,0,1,,,,,,,,,0,,,83,0
105680,note_on,0,0,1,,,,,,,,,0,,,84,47
105760,note_off,80,0,2,,,,,,,,,1,,,72,0
105760,note_off,120,0,3,,,,,,,,,2,,,50,0
105760,note_off,80,0,1,,,,,,,,,0,,,84,0
105760,note_on,0,0,1,,,,,,,,,0,,,83,47
105760,note_on,0,0,2,,,,,,,,,1,,,71,47
105760,note_on,0,0,3,,,,,,,,,2,,,55,43
105840,note_on,0,0,1,,,,,,,,,0,,,81,46
105840,note_on,0,0,2,,,,,,,,,1,,,69,46
105840,note_off,80,0,2,,,,,,,,,1,,,71,0
105840,note_off,80,0,1,,,,,,,,,0,,,83,0
105920,note_off,160,0,3,,,,,,,,,2,,,55,0
105920,note_on,0,0,3,,,,,,,,,2,,,59,42
105960,note_on,0,0,1,,,,,,,,,0,,,83,46
105960,note_off,120,0,1,,,,,,,,,0,,,81,0
105960,note_on,0,0,2,,,,,,,,,1,,,71,46
105960,note_off,120,0,2,,,,,,,,,1,,,69,0
106080,note_off,0,0,3,,,,,,,,,2,,,59,0
106080,note_on,0,0,1,,,,,,,,,0,,,84,46
106080,note_on,0,0,3,,,,,,,,,2,,,50,42
106080,control_change,160,0,3,,,,,,,64,0,2,,,,
106080,note_off,120,0,1,,,,,,,,,0,,,83,0
106080,note_off,120,0,2,,,,,,,,,1,,,71,0
106080,note_on,0,0,2,,,,,,,,,1,,,72,46
106120,control_change,40,0,3,,,,,,,64,127,2,,,,
106240,note_on,0,0,3,,,,,,,,,2,,,55,42
106240,note_off,120,0,3,,,,,,,,,2,,,50,0
106320,note_off,240,0,2,,,,,,,,,1,,,72,0
106320,note_on,0,0,2,,,,,,,,,1,,,74,45
106320,note_on,0,0,1,,,,,,,,,0,,,86,45
106320,note_off,240,0,1,,,,,,,,,0,,,84,0
106400,note_on,0,0,3,,,,,,,,,2,,,59,41
106400,note_off,160,0,3,,,,,,,,,2,,,55,0
106440,set_tempo,840,1,0,,,,,,517241,,,,,,,
106560,note_on,0,0,5,,,,,,,,,4,,,31,54
106560,note_off,240,0,2,,,,,,,,,1,,,74,0
106560,note_on,0,0,2,,,,,,,,,1,,,67,44
106560,note_on,0,0,3,,,,,,,,,2,,,50,41
106560,control_change,160,0,3,,,,,,,64,0,2,,,,
106560,note_off,960,0,5,,,,,,,,,4,,,43,0
106560,note_off,0,0,3,,,,,,,,,2,,,59,0
106560,set_tempo,120,1,0,,,,,,508474,,,,,,,
106560,note_on,0,0,1,,,,,,,,,0,,,79,44
106560,note_off,240,0,1,,,,,,,,,0,,,86,0
106600,control_change,40,0,3,,,,,,,64,127,2,,,,
106640,note_on,0,0,1,,,,,,,,,0,,,81,44
106640,note_off,80,0,2,,,,,,,,,1,,,67,0
106640,note_on,0,0,2,,,,,,,,,1,,,69,44
106640,note_off,80,0,1,,,,,,,,,0,,,79,0
106720,note_on,0,0,2,,,,,,,,,1,,,67,44
106720,note_on,0,0,1,,,,,,,,,0,,,79,44
106720,note_off,80,0,1,,,,,,,,,0,,,81,0
106720,note_off,120,0,3,,,,,,,,,2,,,50,0
106720,note_on,0,0,3,,,,,,,,,2,,,53,40
106720,note_off,80,0,2,,,,,,,,,1,,,69,0
106800,note_on,0,0,1,,,,,,,,,0,,,78,43
106800,note_on,0,0,2,,,,,,,,,1,,,66,43
106800,note_off,80,0,2,,,,,,,,,1,,,67,0
106800,note_off,80,0,1,,,,,,,,,0,,,79,0
106880,note_off,160,0,3,,,,,,,,,2,,,53,0
106880,note_on,0,0,3,,,,,,,,,2,,,55,40
106920,note_on,0,0,1,,,,,,,,,0,,,79,43
106920,note_off,120,0,2,,,,,,,,,1,,,66,0
106920,note_off,120,0,1,,,,,,,,,0,,,78,0
106920,note_on,0,0,2,,,,,,,,,1,,,67,43
107040,note_off,0,0,3,,,,,,,,,2,,,55,0
107040,control_change,160,0,3,,,,,,,64,0,2,,,,
107040,note_on,0,0,3,,,,,,,,,2,,,50,40
107040,note_off,120,0,2,,,,,,,,,1,,,67,0
107040,note_on,0,0,2,,,,,,,,,1,,,69,43
107040,note_on,0,0,1,,,,,,,,,0,,,81,43
107040,note_off,120,0,1,,,,,,,,,0,,,79,0
107080,control_change,40,0,3,,,,,,,64,127,2,,,,
107200,note_on,0,0,3,,,,,,,,,2,,,53,39
107200,note_off,120,0,3,,,,,,,,,2,,,50,0
107280,note_on,0,0,2,,,,,,,,,1,,,71,42
107280,note_off,240,0,2,,,,,,,,,1,,,69,0
107280,note_off,240,0,1,,,,,,,,,0,,,81,0
107280,note_on,0,0,1,,,,,,,,,0,,,83,42
107360,note_on,0,0,3,,,,,,,,,2,,,55,39
107360,note_off,160,0,3,,,,,,,,,2,,,53,0
107400,set_tempo,840,1,0,,,,,,517241,,,,,,,
107520,note_on,0,0,3,,,,,,,,,2,,,47,39
107520,note_off,0,0,3,,,,,,,,,2,,,55,0
107520,control_change,160,0,3,,,,,,,64,0,2,,,,
107520,note_off,240,0,2,,,,,,,,,1,,,71,0
107520,note_off,960,0,5,,,,,,,,,4,,,31,0
107520,note_on,0,0,5,,,,,,,,,4,,,36,51
107520,note_on,0,0,2,,,,,,,,,1,,,74,41
107520,set_tempo,120,1,0,,,,,,517241,,,,,,,
107520,note_off,240,0,1,,,,,,,,,0,,,83,0
107520,note_on,0,0,1,,,,,,,,,0,,,86,41
107560,control_change,40,0,3,,,,,,,64,127,2,,,,
107680,note_on,0,0,3,,,,,,,,,2,,,53,38
107680,note_off,120,0,3,,,,,,,,,2,,,47,0
107840,note_on,0,0,3,,,,,,,,,2,,,55,38
107840,note_off,160,0,3,,,,,,,,,2,,,53,0
108000,note_off,480,0,5,,,,,,,,,4,,,36,0
108000,note_off,0,0,3,,,,,,,,,2,,,55,0
108000,control_change,160,0,3,,,,,,,64,0,2,,,,
108000,note_on,0,0,5,,,,,,,,,4,,,31,50
108000,note_on,0,0,3,,,,,,,,,2,,,47,38
108040,control_change,40,0,3,,,,,,,64,127,2,,,,
108160,note_off,120,0,3,,,,,,,,,2,,,47,0
108160,note_on,0,0,3,,,,,,,,,2,,,53,37
108320,note_off,160,0,3,,,,,,,,,2,,,53,0
108320,note_on,0,0,3,,,,,,,,,2,,,55,37
108480,note_on,0,0,1,,,,,,,,,0,,,84,38
108480,note_on,0,0,2,,,,,,,,,1,,,72,38
108480,control_change,160,0,3,,,,,,,64,0,2,,,,
108480,note_on,0,0,3,,,,,,,,,2,,,48,37
108480,note_on,0,0,3,,,,,,,,,2,,,52,37
108480,note_on,0,0,3,,,,,,,,,2,,,55,37
108480,note_off,960,0,1,,,,,,,,,0,,,86,0
108480,note_off,480,0,5,,,,,,,,,4,,,31,0
108480,note_on,0,0,5,,,,,,,,,4,,,36,49
108480,note_off,960,0,2,,,,,,,,,1,,,74,0
108480,note_off,0,0,3,,,,,,,,,2,,,55,0
108520,control_change,40,0,3,,,,,,,64,127,2,,,,
108840,note_off,320,0,3,,,,,,,,,2,,,55,0
108840,note_off,0,0,3,,,,,,,,,2,,,52,0
108840,note_off,360,0,1,,,,,,,,,0,,,84,0
108840,set_tempo,1320,1,0,,,,,,612244,,,,,,,
108840,note_off,0,0,3,,,,,,,,,2,,,48,0
108840,note_off,360,0,5,,,,,,,,,4,,,36,0
108840,note_off,360,0,2,,,,,,,,,1,,,72,0
108960,note_on,0,0,3,,,,,,,,,2,,,55,38
108960,control_change,120,0,1,,,,,,,64,0,0,,,,
108960,note_on,0,0,3,,,,,,,,,2,,,67,38
108960,control_change,15360,0,4,,,,,,,64,0,3,,,,
108960,control_change,120,0,3,,,,,,,64,0,2,,,,
108960,set_tempo,120,1,0,,,,,,508474,,,,,,,
108960,note_on,0,0,5,,,,,,,,,4,,,36,49
108960,control_change,120,0,5,,,,,,,64,0,4,,,,
108960,control_change,0,0,3,,,,,,,64,0,2,,,,
108960,control_change,120,0,2,,,,,,,64,0,1,,,,
109000,control_change,40,0,3,,,,,,,64,127,2,,,,
109120,note_on,0,0,3,,,,,,,,,2,,,70,38
109120,note_off,0,0,3,,,,,,,,,2,,,67,0
109120,note_off,120,0,3,,,,,,,,,2,,,55,0
109120,note_on,0,0,3,,,,,,,,,2,,,58,38
109200,note_on,0,0,5,,,,,,,,,4,,,38,50
109200,note_off,240,0,5,,,,,,,,,4,,,36,0
109280,note_on,0,0,3,,,,,,,,,2,,,60,38
109280,note_off,160,0,3,,,,,,,,,2,,,58,0
109280,note_on,0,0,3,,,,,,,,,2,,,72,38
109280,note_off,0,0,3,,,,,,,,,2,,,70,0
109320,note_on,0,0,5,,,,,,,,,4,,,40,50
109320,note_off,120,0,5,,,,,,,,,4,,,38,0
109320,set_tempo,360,1,0,,,,,,517241,,,,,,,
109440,note_on,0,0,5,,,,,,,,,4,,,41,50
109440,note_off,120,0,5,,,,,,,,,4,,,40,0
109440,set_tempo,120,1,0,,,,,,508474,,,,,,,
109440,control_change,160,0,3,,,,,,,64,0,2,,,,
109440,note_off,0,0,3,,,,,,,,,2,,,60,0
109440,note_off,0,0,3,,,,,,,,,2,,,72,0
109440,note_on,0,0,3,,,,,,,,,2,,,53,39
109440,note_on,0,0,3,,,,,,,,,2,,,65,39
109480,control_change,40,0,3,,,,,,,64,127,2,,,,
109600,note_on,0,0,3,,,,,,,,,2,,,69,39
109600,note_off,120,0,3,,,,,,,,,2,,,65,0
109600,note_on,0,0,3,,,,,,,,,2,,,57,39
109600,note_off,0,0,3,,,,,,,,,2,,,53,0
109760,note_on,0,0,3,,,,,,,,,2,,,60,39
109760,note_off,160,0,3,,,,,,,,,2,,,57,0
109760,note_on,0,0,3,,,,,,,,,2,,,72,39
109760,note_off,0,0,3,,,,,,,,,2,,,69,0
109920,note_on,0,0,3,,,,,,,,,2,,,53,39
109920,note_on,0,0,3,,,,,,,,,2,,,65,39
109920,note_off,0,0,3,,,,,,,,,2,,,60,0
109920,control_change,160,0,3,,,,,,,64,0,2,,,,
109920,note_off,0,0,3,,,,,,,,,2,,,72,0
109960,control_change,40,0,3,,,,,,,64,127,2,,,,
110080,note_on,0,0,3,,,,,,,,,2,,,69,39
110080,note_off,120,0,3,,,,,,,,,2,,,53,0
110080,note_off,0,0,3,,,,,,,,,2,,,65,0
110080,note_on,0,0,3,,,,,,,,,2,,,57,39
110240,note_off,0,0,3,,,,,,,,,2,,,69,0
110240,note_off,160,0,3,,,,,,,,,2,,,57,0
110240,note_on,0,0,3,,,,,,,,,2,,,72,40
110240,note_on,0,0,3,,,,,,,,,2,,,60,40
110400,note_off,960,0,5,,,,,,,,,4,,,41,0
110400,note_on,0,0,3,,,,,,,,,2,,,53,40
110400,note_on,0,0,5,,,,,,,,,4,,,43,54
110400,note_off,0,0,3,,,,,,,,,2,,,60,0
110400,note_off,0,0,3,,,,,,,,,2,,,72,0
110400,note_on,0,0,3,,,,,,,,,2,,,65,40
110400,control_change,160,0,3,,,,,,,64,0,2,,,,
110440,control_change,40,0,3,,,,,,,64,127,2,,,,
110560,note_on,0,0,3,,,,,,,,,2,,,57,40
110560,note_on,0,0,3,,,,,,,,,2,,,69,40
110560,note_off,0,0,3,,,,,,,,,2,,,65,0
110560,note_off,120,0,3,,,,,,,,,2,,,53,0
110720,note_on,0,0,3,,,,,,,,,2,,,72,40
110720,note_off,0,0,3,,,,,,,,,2,,,69,0
110720,note_off,160,0,3,,,,,,,,,2,,,57,0
110720,note_on,0,0,3,,,,,,,,,2,,,60,40
110880,note_on,0,0,5,,,,,,,,,4,,,45,56
110880,note_off,480,0,5,,,,,,,,,4,,,43,0
110880,control_change,160,0,3,,,,,,,64,0,2,,,,
110880,note_off,0,0,3,,,,,,,,,2,,,72,0
110880,note_off,0,0,3,,,,,,,,,2,,,60,0
110880,note_on,0,0,3,,,,,,,,,2,,,65,40
110880,note_on,0,0,3,,,,,,,,,2,,,53,40
110920,control_change,40,0,3,,,,,,,64,127,2,,,,
111040,note_off,120,0,3,,,,,,,,,2,,,53,0
111040,note_off,0,0,3,,,,,,,,,2,,,65,0
111040,note_on,0,0,3,,,,,,,,,2,,,69,41
111040,note_on,0,0,3,,,,,,,,,2,,,57,41
111200,note_off,0,0,3,,,,,,,,,2,,,57,0
111200,note_on,0,0,3,,,,,,,,,2,,,60,41
111200,note_off,160,0,3,,,,,,,,,2,,,69,0
111200,note_on,0,0,3,,,,,,,,,2,,,72,41
111240,set_tempo,1800,1,0,,,,,,517241,,,,,,,
111360,set_tempo,120,1,0,,,,,,508474,,,,,,,
111360,note_on,0,0,5,,,,,,,,,4,,,46,63
111360,note_off,480,0,5,,,,,,,,,4,,,45,0
111360,control_change,160,0,3,,,,,,,64,0,2,,,,
111360,note_off,0,0,3,,,,,,,,,2,,,72,0
111360,note_off,0,0,3,,,,,,,,,2,,,60,0
111360,note_on,0,0,3,,,,,,,,,2,,,52,41
111360,note_on,0,0,3,,,,,,,,,2,,,64,41
111400,control_change,40,0,3,,,,,,,64,127,2,,,,
111520,note_off,120,0,3,,,,,,,,,2,,,64,0
111520,note_off,0,0,3,,,,,,,,,2,,,52,0
111520,note_on,0,0,3,,,,,,,,,2,,,55,41
111520,note_on,0,0,3,,,,,,,,,2,,,67,41
111680,note_off,160,0,3,,,,,,,,,2,,,67,0
111680,note_on,0,0,3,,,,,,,,,2,,,60,41
111680,note_off,0,0,3,,,,,,,,,2,,,55,0
111680,note_on,0,0,3,,,,,,,,,2,,,72,41
111840,note_off,0,0,3,,,,,,,,,2,,,60,0
111840,note_on,0,0,3,,,,,,,,,2,,,64,42
111840,note_on,0,0,3,,,,,,,,,2,,,52,42
111840,control_change,160,0,3,,,,,,,64,0,2,,,,
111840,note_off,0,0,3,,,,,,,,,2,,,72,0
111880,control_change,40,0,3,,,,,,,64,127,2,,,,
112000,note_off,120,0,3,,,,,,,,,2,,,52,0
112000,note_off,0,0,3,,,,,,,,,2,,,64,0
112000,note_on,0,0,3,,,,,,,,,2,,,55,42
112000,note_on,0,0,3,,,,,,,,,2,,,67,42
112160,note_on,0,0,3,,,,,,,,,2,,,60,42
112160,note_on,0,0,3,,,,,,,,,2,,,72,42
112160,note_off,0,0,3,,,,,,,,,2,,,55,0
112160,note_off,160,0,3,,,,,,,,,2,,,67,0
112320,note_off,960,0,5,,,,,,,,,4,,,46,0
112320,note_on,0,0,5,,,,,,,,,4,,,43,56
112320,control_change,160,0,3,,,,,,,64,0,2,,,,
112320,note_off,0,0,3,,,,,,,,,2,,,60,0
112320,note_off,0,0,3,,,,,,,,,2,,,72,0
112320,note_on,0,0,3,,,,,,,,,2,,,64,42
112320,note_on,0,0,3,,,,,,,,,2,,,52,42
112360,control_change,40,0,3,,,,,,,64,127,2,,,,
112480,note_off,0,0,3,,,,,,,,,2,,,64,0
112480,note_on,0,0,3,,,,,,,,,2,,,55,42
112480,note_on,0,0,3,,,,,,,,,2,,,67,42
112480,note_off,120,0,3,,,,,,,,,2,,,52,0
112640,note_off,160,0,3,,,,,,,,,2,,,67,0
112640,note_off,0,0,3,,,,,,,,,2,,,55,0
112640,note_on,0,0,3,,,,,,,,,2,,,60,43
112640,note_on,0,0,3,,,,,,,,,2,,,72,43
112800,control_change,160,0,3,,,,,,,64,0,2,,,,
112800,note_off,0,0,3,,,,,,,,,2,,,72,0
112800,note_off,0,0,3,,,,,,,,,2,,,60,0
112800,note_on,0,0,3,,,,,,,,,2,,,53,43
112800,note_on,0,0,3,,,,,,,,,2,,,65,43
112840,control_change,40,0,3,,,,,,,64,127,2,,,,
112960,note_off,120,0,3,,,,,,,,,2,,,65,0
112960,note_off,0,0,3,,,,,,,,,2,,,53,0
112960,note_on,0,0,3,,,,,,,,,2,,,69,43
112960,note_on,0,0,3,,,,,,,,,2,,,57,43
113040,note_off,720,0,5,,,,,,,,,4,,,43,0
113040,note_on,0,0,5,,,,,,,,,4,,,41,54
113120,note_off,160,0,3,,,,,,,,,2,,,57,0
113120,note_off,0,0,3,,,,,,,,,2,,,69,0
113120,note_on,0,0,3,,,,,,,,,2,,,60,43
113120,note_on,0,0,3,,,,,,,,,2,,,72,43
113160,set_tempo,1800,1,0,,,,,,517241,,,,,,,
113280,note_off,240,0,5,,,,,,,,,4,,,41,0
113280,set_tempo,120,1,0,,,,,,508474,,,,,,,
113280,note_on,0,0,5,,,,,,,,,4,,,40,49
113280,note_on,0,0,3,,,,,,,,,2,,,67,43
113280,note_on,0,0,3,,,,,,,,,2,,,55,43
113280,note_off,0,0,3,,,,,,,,,2,,,60,0
113280,note_off,0,0,3,,,,,,,,,2,,,72,0
113280,control_change,160,0,3,,,,,,,64,0,2,,,,
113280,note_on,4320,0,1,,,,,,,,,0,,,84,46
113320,control_change,40,0,3,,,,,,,64,127,2,,,,
113360,note_off,80,0,5,,,,,,,,,4,,,40,0
113360,note_on,0,0,5,,,,,,,,,4,,,41,50
113440,note_off,120,0,3,,,,,,,,,2,,,67,0
113440,note_off,0,0,3,,,,,,,,,2,,,55,0
113440,note_on,0,0,3,,,,,,,,,2,,,58,43
113440,note_off,80,0,5,,,,,,,,,4,,,41,0
113440,note_on,0,0,5,,,,,,,,,4,,,40,51
113440,note_on,0,0,3,,,,,,,,,2,,,70,43
113520,note_off,80,0,5,,,,,,,,,4,,,40,0
113520,note_on,0,0,5,,,,,,,,,4,,,38,53
113600,note_on,0,0,3,,,,,,,,,2,,,72,44
113600,note_on,0,0,3,,,,,,,,,2,,,60,44
113600,note_off,0,0,3,,,,,,,,,2,,,58,0
113600,note_off,160,0,3,,,,,,,,,2,,,70,0
113640,note_on,0,0,5,,,,,,,,,4,,,40,55
113640,note_off,120,0,5,,,,,,,,,4,,,38,0
113760,note_off,120,0,5,,,,,,,,,4,,,40,0
113760,control_change,160,0,3,,,,,,,64,0,2,,,,
113760,note_off,0,0,3,,,,,,,,,2,,,72,0
113760,note_off,0,0,3,,,,,,,,,2,,,60,0
113760,note_on,0,0,5,,,,,,,,,4,,,43,57
113760,note_on,0,0,3,,,,,,,,,2,,,67,44
113760,note_on,0,0,3,,,,,,,,,2,,,55,44
113800,control_change,40,0,3,,,,,,,64,127,2,,,,
113920,note_on,0,0,3,,,,,,,,,2,,,70,44
113920,note_on,0,0,3,,,,,,,,,2,,,58,44
113920,note_off,0,0,3,,,,,,,,,2,,,55,0
113920,note_off,120,0,3,,,,,,,,,2,,,67,0
114000,note_off,240,0,5,,,,,,,,,4,,,43,0
114000,note_on,0,0,5,,,,,,,,,4,,,40,57
114080,note_off,0,0,3,,,,,,,,,2,,,70,0
114080,note_off,160,0,3,,,,,,,,,2,,,58,0
114080,note_on,0,0,3,,,,,,,,,2,,,60,44
114080,note_on,0,0,3,,,,,,,,,2,,,72,44
114240,control_change,160,0,3,,,,,,,64,0,2,,,,
114240,note_off,0,0,3,,,,,,,,,2,,,72,0
114240,note_on,0,0,5,,,,,,,,,4,,,36,58
114240,note_off,240,0,5,,,,,,,,,4,,,40,0
114240,note_off,0,0,3,,,,,,,,,2,,,60,0
114240,note_on,0,0,3,,,,,,,,,2,,,64,44
114240,note_on,0,0,1,,,,,,,,,0,,,86,48
114240,note_off,960,0,1,,,,,,,,,0,,,84,0
114240,note_on,0,0,3,,,,,,,,,2,,,52,44
114280,control_change,40,0,3,,,,,,,64,127,2,,,,
114400,note_on,0,0,3,,,,,,,,,2,,,55,45
114400,note_off,120,0,3,,,,,,,,,2,,,64,0
114400,note_off,0,0,3,,,,,,,,,2,,,52,0
114400,note_on,0,0,3,,,,,,,,,2,,,67,45
114560,note_off,160,0,3,,,,,,,,,2,,,55,0
114560,note_off,0,0,3,,,,,,,,,2,,,67,0
114560,note_on,0,0,3,,,,,,,,,2,,,60,45
114600,note_off,360,0,5,,,,,,,,,4,,,36,0
114720,control_change,160,0,3,,,,,,,64,0,2,,,,
114720,note_off,0,0,3,,,,,,,,,2,,,60,0
114720,note_off,480,0,1,,,,,,,,,0,,,86,0
114720,note_on,0,0,1,,,,,,,,,0,,,88,49
114720,note_on,0,0,3,,,,,,,,,2,,,64,45
114720,note_on,0,0,3,,,,,,,,,2,,,52,45
114720,note_on,120,0,5,,,,,,,,,4,,,48,59
114760,control_change,40,0,3,,,,,,,64,127,2,,,,
114880,note_on,0,0,3,,,,,,,,,2,,,67,45
114880,note_off,0,0,3,,,,,,,,,2,,,52,0
114880,note_off,120,0,3,,,,,,,,,2,,,64,0
114880,note_on,0,0,3,,,,,,,,,2,,,55,45
115040,note_off,0,0,3,,,,,,,,,2,,,55,0
115040,note_on,0,0,3,,,,,,,,,2,,,72,45
115040,note_on,0,0,3,,,,,,,,,2,,,60,45
115040,note_off,160,0,3,,,,,,,,,2,,,67,0
115080,set_tempo,1800,1,0,,,,,,517241,,,,,,,
115080,note_on,0,0,5,,,,,,,,,4,,,46,59
115080,note_off,360,0,5,,,,,,,,,4,,,48,0
115160,note_on,0,0,5,,,,,,,,,4,,,46,60
115160,note_off,80,0,5,,,,,,,,,4,,,46,0
115200,note_on,40,0,5,,,,,,,,,4,,,45,60
115200,set_tempo,120,1,0,,,,,,508474,,,,,,,
115200,note_on,0,0,1,,,,,,,,,0,,,89,50
115200,control_change,160,0,3,,,,,,,64,0,2,,,,
115200,note_off,0,0,3,,,,,,,,,2,,,60,0
115200,note_off,0,0,3,,,,,,,,,2,,,72,0
115200,note_on,0,0,3,,,,,,,,,2,,,65,46
115200,note_on,0,0,3,,,,,,,,,2,,,53,46
115200,note_off,480,0,1,,,,,,,,,0,,,88,0
115235,note_off,35,0,5,,,,,,,,,4,,,46,0
115240,control_change,40,0,3,,,,,,,64,127,2,,,,
115360,note_off,0,0,3,,,,,,,,,2,,,65,0
115360,note_on,0,0,3,,,,,,,,,2,,,69,46
115360,note_on,0,0,3,,,,,,,,,2,,,57,46
115360,note_off,120,0,3,,,,,,,,,2,,,53,0
115520,note_on,0,0,3,,,,,,,,,2,,,72,46
115520,note_off,0,0,3,,,,,,,,,2,,,69,0
115520,note_off,160,0,3,,,,,,,,,2,,,57,0
115520,note_on,0,0,3,,,,,,,,,2,,,60,46
115560,note_off,325,0,5,,,,,,,,,4,,,45,0
115560,note_on,0,0,5,,,,,,,,,4,,,43,60
115680,note_off,0,0,3,,,,,,,,,2,,,72,0
115680,note_on,0,0,5,,,,,,,,,4,,,45,61
115680,control_change,160,0,3,,,,,,,64,0,2,,,,
115680,note_on,0,0,3,,,,,,,,,2,,,53,46
115680,note_on,0,0,3,,,,,,,,,2,,,65,46
115680,note_off,0,0,3,,,,,,,,,2,,,60,0
115680,note_off,120,0,5,,,,,,,,,4,,,43,0
115720,control_change,40,0,3,,,,,,,64,127,2,,,,
115840,note_off,120,0,3,,,,,,,,,2,,,53,0
115840,note_off,0,0,3,,,,,,,,,2,,,65,0
115840,note_on,0,0,3,,,,,,,,,2,,,57,46
115840,note_on,0,0,3,,,,,,,,,2,,,69,46
115920,note_on,0,0,1,,,,,,,,,0,,,88,51
115920,note_off,720,0,1,,,,,,,,,0,,,89,0
116000,note_on,0,0,3,,,,,,,,,2,,,72,47
116000,note_off,160,0,3,,,,,,,,,2,,,69,0
116000,note_off,0,0,3,,,,,,,,,2,,,57,0
116000,note_on,0,0,3,,,,,,,,,2,,,60,47
116040,note_off,120,0,1,,,,,,,,,0,,,88,0
116040,note_on,0,0,1,,,,,,,,,0,,,86,51
116040,note_off,360,0,5,,,,,,,,,4,,,45,0
116040,note_on,0,0,5,,,,,,,,,4,,,46,61
116160,note_off,120,0,5,,,,,,,,,4,,,46,0
116160,note_on,0,0,5,,,,,,,,,4,,,48,60
116160,note_on,0,0,3,,,,,,,,,2,,,64,47
116160,note_off,120,0,1,,,,,,,,,0,,,86,0
116160,note_on,0,0,3,,,,,,,,,2,,,52,47
116160,note_off,0,0,3,,,,,,,,,2,,,60,0
116160,note_off,0,0,3,,,,,,,,,2,,,72,0
116160,control_change,160,0,3,,,,,,,64,0,2,,,,
116160,note_on,0,0,1,,,,,,,,,0,,,84,51
116200,control_change,40,0,3,,,,,,,64,127,2,,,,
116280,note_off,120,0,1,,,,,,,,,0,,,84,0
116320,note_off,0,0,3,,,,,,,,,2,,,52,0
116320,note_on,0,0,3,,,,,,,,,2,,,55,47
116320,note_off,120,0,3,,,,,,,,,2,,,64,0
116320,note_on,0,0,3,,,,,,,,,2,,,67,47
116400,note_on,120,0,1,,,,,,,,,0,,,84,52
116480,note_on,0,0,3,,,,,,,,,2,,,60,47
116480,note_on,0,0,3,,,,,,,,,2,,,72,47
116480,note_off,0,0,3,,,,,,,,,2,,,55,0
116480,note_off,160,0,3,,,,,,,,,2,,,67,0
116520,note_off,120,0,1,,,,,,,,,0,,,84,0
116520,note_off,360,0,5,,,,,,,,,4,,,48,0
116520,set_tempo,1320,1,0,,,,,,517241,,,,,,,
116640,note_off,0,0,3,,,,,,,,,2,,,60,0
116640,note_on,120,0,5,,,,,,,,,4,,,36,62
116640,note_on,0,0,3,,,,,,,,,2,,,67,47
116640,set_tempo,120,1,0,,,,,,508474,,,,,,,
116640,note_on,0,0,3,,,,,,,,,2,,,55,47
116640,note_off,0,0,3,,,,,,,,,2,,,72,0
116640,control_change,160,0,3,,,,,,,64,0,2,,,,
116640,note_on,120,0,1,,,,,,,,,0,,,84,52
116680,control_change,40,0,3,,,,,,,64,127,2,,,,
116760,note_off,120,0,1,,,,,,,,,0,,,84,0
116800,note_off,0,0,3,,,,,,,,,2,,,67,0
116800,note_off,120,0,3,,,,,,,,,2,,,55,0
116800,note_on,0,0,3,,,,,,,,,2,,,70,48
116800,note_on,0,0,3,,,,,,,,,2,,,58,48
116880,note_off,240,0,5,,,,,,,,,4,,,36,0
116880,note_on,0,0,5,,,,,,,,,4,,,38,63
116880,note_on,120,0,1,,,,,,,,,0,,,84,53
116960,note_on,0,0,3,,,,,,,,,2,,,72,48
116960,note_on,0,0,3,,,,,,,,,2,,,60,48
116960,note_off,160,0,3,,,,,,,,,2,,,58,0
116960,note_off,0,0,3,,,,,,,,,2,,,70,0
117000,note_off,120,0,1,,,,,,,,,0,,,84,0
117000,note_off,120,0,5,,,,,,,,,4,,,38,0
117000,set_tempo,360,1,0,,,,,,517241,,,,,,,
117000,note_on,0,0,5,,,,,,,,,4,,,40,63
117120,note_off,120,0,5,,,,,,,,,4,,,40,0
117120,note_on,0,0,5,,,,,,,,,4,,,41,63
117120,control_change,160,0,3,,,,,,,64,0,2,,,,
117120,set_tempo,120,1,0,,,,,,508474,,,,,,,
117120,note_off,0,0,3,,,,,,,,,2,,,72,0
117120,note_on,120,0,1,,,,,,,,,0,,,84,53
117120,note_on,0,0,3,,,,,,,,,2,,,53,48
117120,note_on,0,0,3,,,,,,,,,2,,,65,48
117120,note_off,0,0,3,,,,,,,,,2,,,60,0
117160,control_change,40,0,3,,,,,,,64,127,2,,,,
117280,note_on,0,0,3,,,,,,,,,2,,,69,48
117280,note_on,0,0,3,,,,,,,,,2,,,57,48
117280,note_off,0,0,3,,,,,,,,,2,,,53,0
117280,note_off,120,0,3,,,,,,,,,2,,,65,0
117440,note_on,0,0,3,,,,,,,,,2,,,72,48
117440,note_on,0,0,3,,,,,,,,,2,,,60,48
117440,note_off,0,0,3,,,,,,,,,2,,,57,0
117440,note_off,160,0,3,,,,,,,,,2,,,69,0
117600,note_off,480,0,1,,,,,,,,,0,,,84,0
117600,note_on,0,0,3,,,,,,,,,2,,,53,49
117600,note_on,0,0,3,,,,,,,,,2,,,65,49
117600,note_off,0,0,3,,,,,,,,,2,,,60,0
117600,note_on,0,0,1,,,,,,,,,0,,,81,54
117600,control_change,160,0,3,,,,,,,64,0,2,,,,
117600,note_off,0,0,3,,,,,,,,,2,,,72,0
117640,control_change,40,0,3,,,,,,,64,127,2,,,,
117760,note_on,0,0,3,,,,,,,,,2,,,69,49
117760,note_off,120,0,3,,,,,,,,,2,,,53,0
117760,note_off,0,0,3,,,,,,,,,2,,,65,0
117760,note_on,0,0,3,,,,,,,,,2,,,57,49
117920,note_on,0,0,3,,,,,,,,,2,,,72,49
117920,note_off,0,0,3,,,,,,,,,2,,,69,0
117920,note_off,160,0,3,,,,,,,,,2,,,57,0
117920,note_on,0,0,3,,,,,,,,,2,,,60,49
117960,note_off,360,0,1,,,,,,,,,0,,,81,0
118080,note_on,0,0,5,,,,,,,,,4,,,43,65
118080,note_off,960,0,5,,,,,,,,,4,,,41,0
118080,control_change,160,0,3,,,,,,,64,0,2,,,,
118080,note_off,0,0,3,,,,,,,,,2,,,72,0
118080,note_off,0,0,3,,,,,,,,,2,,,60,0
118080,note_on,0,0,3,,,,,,,,,2,,,65,49
118080,note_on,0,0,3,,,,,,,,,2,,,53,49
118120,control_change,40,0,3,,,,,,,64,127,2,,,,
118240,note_off,0,0,3,,,,,,,,,2,,,65,0
118240,note_on,0,0,3,,,,,,,,,2,,,57,49
118240,note_on,0,0,3,,,,,,,,,2,,,69,49
118240,note_off,120,0,3,,,,,,,,,2,,,53,0
118320,note_on,360,0,1,,,,,,,,,0,,,81,55
118400,note_off,160,0,3,,,,,,,,,2,,,57,0
118400,note_off,0,0,3,,,,,,,,,2,,,69,0
118400,note_on,0,0,3,,,,,,,,,2,,,60,50
118400,note_on,0,0,3,,,,,,,,,2,,,72,50
118476,note_off,156,0,1,,,,,,,,,0,,,81,0
118560,note_on,0,0,3,,,,,,,,,2,,,53,50
118560,note_off,0,0,3,,,,,,,,,2,,,72,0
118560,note_on,84,0,1,,,,,,,,,0,,,81,56
118560,note_on,0,0,3,,,,,,,,,2,,,65,50
118560,control_change,160,0,3,,,,,,,64,0,2,,,,
118560,note_off,0,0,3,,,,,,,,,2,,,60,0
118560,note_on,0,0,5,,,,,,,,,4,,,45,66
118560,note_off,480,0,5,,,,,,,,,4,,,43,0
118600,control_change,40,0,3,,,,,,,64,127,2,,,,
118720,note_on,0,0,3,,,,,,,,,2,,,57,50
118720,note_on,0,0,3,,,,,,,,,2,,,69,50
118720,note_off,0,0,3,,,,,,,,,2,,,65,0
118720,note_off,120,0,3,,,,,,,,,2,,,53,0
118794,note_off,234,0,1,,,,,,,,,0,,,81,0
118880,note_off,0,0,3,,,,,,,,,2,,,69,0
118880,note_on,0,0,3,,,,,,,,,2,,,72,50
118880,note_off,160,0,3,,,,,,,,,2,,,57,0
118880,note_on,0,0,3,,,,,,,,,2,,,60,50
118920,set_tempo,1800,1,0,,,,,,517241,,,,,,,
118920,note_on,126,0,1,,,,,,,,,0,,,79,56
118998,note_off,78,0,1,,,,,,,,,0,,,79,0
119040,note_on,0,0,5,,,,,,,,,4,,,38,68
119040,note_on,42,0,1,,,,,,,,,0,,,77,57
119040,set_tempo,120,1,0,,,,,,508474,,,,,,,
119040,note_off,480,0,5,,,,,,,,,4,,,45,0
119040,control_change,160,0,3,,,,,,,64,0,2,,,,
119040,note_off,0,0,3,,,,,,,,,2,,,72,0
119040,note_off,0,0,3,,,,,,,,,2,,,60,0
119040,note_on,0,0,3,,,,,,,,,2,,,53,50
119040,note_on,0,0,3,,,,,,,,,2,,,65,50
119080,control_change,40,0,3,,,,,,,64,127,2,,,,
119200,note_off,120,0,3,,,,,,,,,2,,,65,0
119200,note_on,0,0,3,,,,,,,,,2,,,69,51
119200,note_on,0,0,3,,,,,,,,,2,,,57,51
119200,note_off,0,0,3,,,,,,,,,2,,,53,0
119360,note_off,160,0,3,,,,,,,,,2,,,69,0
119360,note_off,0,0,3,,,,,,,,,2,,,57,0
119360,note_on,0,0,3,,,,,,,,,2,,,74,51
119360,note_on,0,0,3,,,,,,,,,2,,,62,51
119520,note_on,0,0,3,,,,,,,,,2,,,53,51
119520,control_change,160,0,3,,,,,,,64,0,2,,,,
119520,note_off,0,0,3,,,,,,,,,2,,,62,0
119520,note_off,0,0,3,,,,,,,,,2,,,74,0
119520,note_on,0,0,3,,,,,,,,,2,,,65,51
119560,control_change,40,0,3,,,,,,,64,127,2,,,,
119680,note_off,120,0,3,,,,,,,,,2,,,53,0
119680,note_off,0,0,3,,,,,,,,,2,,,65,0
119680,note_on,0,0,3,,,,,,,,,2,,,69,51
119680,note_on,0,0,3,,,,,,,,,2,,,57,51
119840,note_on,0,0,3,,,,,,,,,2,,,62,51
119840,note_off,0,0,3,,,,,,,,,2,,,69,0
119840,note_on,0,0,3,,,,,,,,,2,,,74,51
119840,note_off,160,0,3,,,,,,,,,2,,,57,0
120000,note_on,0,0,3,,,,,,,,,2,,,67,52
120000,note_on,0,0,5,,,,,,,,,4,,,40,68
120000,note_off,960,0,5,,,,,,,,,4,,,38,0
120000,note_on,0,0,3,,,,,,,,,2,,,55,52
120000,note_off,960,0,1,,,,,,,,,0,,,77,0
120000,note_off,0,0,3,,,,,,,,,2,,,74,0
120000,note_off,0,0,3,,,,,,,,,2,,,62,0
120000,note_on,0,0,1,,,,,,,,,0,,,79,58
120000,control_change,160,0,3,,,,,,,64,0,2,,,,
120040,control_change,40,0,3,,,,,,,64,127,2,,,,
120160,note_off,120,0,3,,,,,,,,,2,,,67,0
120160,note_off,0,0,3,,,,,,,,,2,,,55,0
120160,note_on,0,0,3,,,,,,,,,2,,,57,52
120160,note_on,0,0,3,,,,,,,,,2,,,69,52
120320,note_off,160,0,3,,,,,,,,,2,,,69,0
120320,note_on,0,0,3,,,,,,,,,2,,,61,52
120320,note_on,0,0,3,,,,,,,,,2,,,73,52
120320,note_off,0,0,3,,,,,,,,,2,,,57,0
120480,note_on,0,0,1,,,,,,,,,0,,,81,59
120480,note_on,0,0,5,,,,,,,,,4,,,41,69
120480,note_off,480,0,1,,,,,,,,,0,,,79,0
120480,note_off,480,0,5,,,,,,,,,4,,,40,0
120480,note_on,0,0,3,,,,,,,,,2,,,53,52
120480,note_off,0,0,3,,,,,,,,,2,,,73,0
120480,note_off,0,0,3,,,,,,,,,2,,,61,0
120480,note_on,0,0,3,,,,,,,,,2,,,65,52
120480,control_change,160,0,3,,,,,,,64,0,2,,,,
120480,control_change,0,0,3,,,,,,,64,0,2,,,,
120520,control_change,0,0,3,,,,,,,64,127,2,,,,
120520,control_change,40,0,3,,,,,,,64,127,2,,,,
120640,note_off,120,0,3,,,,,,,,,2,,,53,0
120640,note_off,0,0,3,,,,,,,,,2,,,65,0
120640,note_on,0,0,3,,,,,,,,,2,,,57,52
120640,note_on,0,0,3,,,,,,,,,2,,,69,52
120800,note_off,160,0,3,,,,,,,,,2,,,69,0
120800,note_off,0,0,3,,,,,,,,,2,,,57,0
120800,note_on,0,0,3,,,,,,,,,2,,,62,53
120800,note_on,0,0,3,,,,,,,,,2,,,74,53
120840,set_tempo,1800,1,0,,,,,,517241,,,,,,,
120960,note_on,0,0,3,,,,,,,,,2,,,65,53
120960,note_on,0,0,3,,,,,,,,,2,,,53,53
120960,note_off,480,0,1,,,,,,,,,0,,,81,0
120960,note_on,0,0,1,,,,,,,,,0,,,74,60
120960,set_tempo,120,1,0,,,,,,508474,,,,,,,
120960,note_on,0,0,5,,,,,,,,,4,,,43,70
120960,note_off,480,0,5,,,,,,,,,4,,,41,0
120960,note_off,0,0,3,,,,,,,,,2,,,62,0
120960,note_off,0,0,3,,,,,,,,,2,,,74,0
120960,control_change,160,0,3,,,,,,,64,0,2,,,,
121000,control_change,40,0,3,,,,,,,64,127,2,,,,
121120,note_off,0,0,3,,,,,,,,,2,,,53,0
121120,note_on,0,0,3,,,,,,,,,2,,,55,53
121120,note_on,0,0,3,,,,,,,,,2,,,67,53
121120,note_off,120,0,3,,,,,,,,,2,,,65,0
121280,note_off,160,0,3,,,,,,,,,2,,,67,0
121280,note_on,0,0,3,,,,,,,,,2,,,71,53
121280,note_on,0,0,3,,,,,,,,,2,,,53,53
121280,note_off,0,0,3,,,,,,,,,2,,,55,0
121320,note_off,360,0,5,,,,,,,,,4,,,43,0
121320,note_off,360,0,1,,,,,,,,,0,,,74,0
121440,note_on,120,0,1,,,,,,,,,0,,,83,68
121440,note_on,120,0,5,,,,,,,,,4,,,31,78
121440,note_off,0,0,3,,,,,,,,,2,,,53,0
121440,note_on,0,0,3,,,,,,,,,2,,,65,53
121440,control_change,160,0,3,,,,,,,64,0,2,,,,
121440,note_off,0,0,3,,,,,,,,,2,,,71,0
121440,note_on,0,0,3,,,,,,,,,2,,,50,53
121480,control_change,40,0,3,,,,,,,64,127,2,,,,
121520,note_off,80,0,1,,,,,,,,,0,,,83,0
121520,note_on,0,0,1,,,,,,,,,0,,,84,61
121600,note_off,80,0,1,,,,,,,,,0,,,84,0
121600,note_on,0,0,1,,,,,,,,,0,,,83,61
121600,note_on,0,0,3,,,,,,,,,2,,,53,53
121600,note_off,0,0,3,,,,,,,,,2,,,50,0
121600,note_off,120,0,3,,,,,,,,,2,,,65,0
121600,note_on,0,0,3,,,,,,,,,2,,,67,53
121680,note_off,80,0,1,,,,,,,,,0,,,83,0
121680,note_on,0,0,1,,,,,,,,,0,,,81,62
121760,note_on,0,0,3,,,,,,,,,2,,,71,54
121760,note_on,0,0,3,,,,,,,,,2,,,55,54
121760,note_off,0,0,3,,,,,,,,,2,,,53,0
121760,note_off,160,0,3,,,,,,,,,2,,,67,0
121800,note_off,120,0,1,,,,,,,,,0,,,81,0
121800,note_on,0,0,1,,,,,,,,,0,,,83,62
121920,note_off,480,0,5,,,,,,,,,4,,,31,0
121920,note_on,0,0,5,,,,,,,,,4,,,36,72
121920,note_off,120,0,1,,,,,,,,,0,,,83,0
121920,note_on,0,0,1,,,,,,,,,0,,,84,62
121920,note_off,0,0,3,,,,,,,,,2,,,55,0
121920,note_on,0,0,3,,,,,,,,,2,,,48,54
121920,note_off,0,0,3,,,,,,,,,2,,,71,0
121920,note_on,0,0,3,,,,,,,,,2,,,64,54
121920,control_change,160,0,3,,,,,,,64,0,2,,,,
121960,control_change,40,0,3,,,,,,,64,127,2,,,,
122080,note_off,120,0,3,,,,,,,,,2,,,64,0
122080,note_off,0,0,3,,,,,,,,,2,,,48,0
122080,note_on,0,0,3,,,,,,,,,2,,,52,54
122080,note_on,0,0,3,,,,,,,,,2,,,67,54
122240,note_off,160,0,3,,,,,,,,,2,,,67,0
122240,note_off,0,0,3,,,,,,,,,2,,,52,0
122240,note_on,0,0,3,,,,,,,,,2,,,72,54
122240,note_on,0,0,3,,,,,,,,,2,,,55,54
122280,note_off,360,0,5,,,,,,,,,4,,,36,0
122280,note_off,360,0,1,,,,,,,,,0,,,84,0
122400,control_change,160,0,3,,,,,,,64,0,2,,,,
122400,note_on,13440,0,2,,,,,,,,,1,,,72,71
122400,note_off,0,0,3,,,,,,,,,2,,,72,0
122400,note_off,0,0,3,,,,,,,,,2,,,55,0
122400,note_on,120,0,5,,,,,,,,,4,,,40,81
122400,note_on,0,0,3,,,,,,,,,2,,,48,54
122400,note_on,0,0,3,,,,,,,,,2,,,60,54
122400,note_on,120,0,1,,,,,,,,,0,,,76,71
122440,control_change,40,0,3,,,,,,,64,127,2,,,,
122560,note_off,120,0,3,,,,,,,,,2,,,60,0
122560,note_on,0,0,3,,,,,,,,,2,,,52,55
122560,note_on,0,0,3,,,,,,,,,2,,,64,55
122560,note_off,0,0,3,,,,,,,,,2,,,48,0
122720,note_on,0,0,3,,,,,,,,,2,,,55,55
122720,note_off,0,0,3,,,,,,,,,2,,,52,0
122720,note_off,160,0,3,,,,,,,,,2,,,64,0
122720,note_on,0,0,3,,,,,,,,,2,,,67,55
122760,note_on,0,0,5,,,,,,,,,4,,,36,73
122760,note_off,360,0,5,,,,,,,,,4,,,40,0
122760,set_tempo,1800,1,0,,,,,,517241,,,,,,,
122880,note_on,0,0,3,,,,,,,,,2,,,59,55
122880,note_off,480,0,2,,,,,,,,,1,,,72,0
122880,note_on,0,0,3,,,,,,,,,2,,,47,55
122880,note_on,0,0,5,,,,,,,,,4,,,43,74
122880,note_off,120,0,5,,,,,,,,,4,,,36,0
122880,set_tempo,120,1,0,,,,,,508474,,,,,,,
122880,note_off,480,0,1,,,,,,,,,0,,,76,0
122880,note_on,0,0,1,,,,,,,,,0,,,74,64
122880,note_on,0,0,2,,,,,,,,,1,,,71,64
122880,note_off,0,0,3,,,,,,,,,2,,,67,0
122880,note_off,0,0,3,,,,,,,,,2,,,55,0
122880,control_change,160,0,3,,,,,,,64,0,2,,,,
122920,control_change,40,0,3,,,,,,,64,127,2,,,,
123040,note_off,0,0,3,,,,,,,,,2,,,59,0
123040,note_on,0,0,3,,,,,,,,,2,,,50,55
123040,note_on,0,0,3,,,,,,,,,2,,,62,55
123040,note_off,120,0,3,,,,,,,,,2,,,47,0
123200,note_on,0,0,3,,,,,,,,,2,,,67,55
123200,note_off,160,0,3,,,,,,,,,2,,,62,0
123200,note_on,0,0,3,,,,,,,,,2,,,55,55
123200,note_off,0,0,3,,,,,,,,,2,,,50,0
123240,note_off,360,0,1,,,,,,,,,0,,,74,0
123240,note_off,360,0,5,,,,,,,,,4,,,43,0
123240,note_off,360,0,2,,,,,,,,,1,,,71,0
123360,control_change,160,0,3,,,,,,,64,0,2,,,,
123360,note_off,0,0,3,,,,,,,,,2,,,55,0
123360,note_on,0,0,3,,,,,,,,,2,,,50,56
123360,note_on,0,0,3,,,,,,,,,2,,,65,56
123360,note_on,120,0,5,,,,,,,,,4,,,31,80
123360,note_on,120,0,1,,,,,,,,,0,,,83,70
123360,note_off,0,0,3,,,,,,,,,2,,,67,0
123400,control_change,40,0,3,,,,,,,64,127,2,,,,
123440,note_off,80,0,1,,,,,,,,,0,,,83,0
123440,note_on,0,0,1,,,,,,,,,0,,,84,65
123520,note_off,0,0,3,,,,,,,,,2,,,50,0
123520,note_off,120,0,3,,,,,,,,,2,,,65,0
123520,note_on,0,0,1,,,,,,,,,0,,,83,65
123520,note_on,0,0,3,,,,,,,,,2,,,53,56
123520,note_on,0,0,3,,,,,,,,,2,,,67,56
123520,note_off,80,0,1,,,,,,,,,0,,,84,0
123600,note_off,80,0,1,,,,,,,,,0,,,83,0
123600,note_on,0,0,1,,,,,,,,,0,,,81,65
123680,note_on,0,0,3,,,,,,,,,2,,,71,56
123680,note_off,160,0,3,,,,,,,,,2,,,67,0
123680,note_on,0,0,3,,,,,,,,,2,,,55,56
123680,note_off,0,0,3,,,,,,,,,2,,,53,0
123720,note_off,120,0,1,,,,,,,,,0,,,81,0
123720,note_on,0,0,1,,,,,,,,,0,,,83,65
123840,note_on,0,0,5,,,,,,,,,4,,,36,75
123840,note_off,480,0,5,,,,,,,,,4,,,31,0
123840,note_on,0,0,1,,,,,,,,,0,,,84,65
123840,control_change,160,0,3,,,,,,,64,0,2,,,,
123840,note_off,0,0,3,,,,,,,,,2,,,71,0
123840,note_off,0,0,3,,,,,,,,,2,,,55,0
123840,note_on,0,0,3,,,,,,,,,2,,,48,56
123840,note_on,0,0,3,,,,,,,,,2,,,64,56
123840,note_off,120,0,1,,,,,,,,,0,,,83,0
123880,control_change,40,0,3,,,,,,,64,127,2,,,,
124000,note_off,0,0,3,,,,,,,,,2,,,48,0
124000,note_off,120,0,3,,,,,,,,,2,,,64,0
124000,note_on,0,0,3,,,,,,,,,2,,,52,56
124000,note_on,0,0,3,,,,,,,,,2,,,67,56
124160,note_off,0,0,3,,,,,,,,,2,,,52,0
124160,note_on,0,0,3,,,,,,,,,2,,,72,57
124160,note_on,0,0,3,,,,,,,,,2,,,55,57
124160,note_off,160,0,3,,,,,,,,,2,,,67,0
124200,note_off,360,0,5,,,,,,,,,4,,,36,0
124200,note_off,360,0,1,,,,,,,,,0,,,84,0
124320,note_on,1080,0,2,,,,,,,,,1,,,72,73
124320,note_on,120,0,5,,,,,,,,,4,,,40,83
124320,note_off,0,0,3,,,,,,,,,2,,,55,0
124320,control_change,160,0,3,,,,,,,64,0,2,,,,
124320,note_on,120,0,1,,,,,,,,,0,,,76,73
124320,note_on,0,0,3,,,,,,,,,2,,,60,57
124320,note_on,0,0,3,,,,,,,,,2,,,48,57
124320,note_off,0,0,3,,,,,,,,,2,,,72,0
124360,control_change,40,0,3,,,,,,,64,127,2,,,,
124480,note_off,120,0,3,,,,,,,,,2,,,60,0
124480,note_on,0,0,3,,,,,,,,,2,,,52,57
124480,note_on,0,0,3,,,,,,,,,2,,,64,57
124480,note_off,0,0,3,,,,,,,,,2,,,48,0
124640,note_on,0,0,3,,,,,,,,,2,,,67,57
124640,note_on,0,0,3,,,,,,,,,2,,,55,57
124640,note_off,0,0,3,,,,,,,,,2,,,52,0
124640,note_off,160,0,3,,,,,,,,,2,,,64,0
124680,note_off,360,0,5,,,,,,,,,4,,,40,0
124680,note_on,0,0,5,,,,,,,,,4,,,36,80
124680,set_tempo,1800,1,0,,,,,,526315,,,,,,,
124800,control_change,160,0,3,,,,,,,64,0,2,,,,
124800,note_off,120,0,5,,,,,,,,,4,,,36,0
124800,note_on,0,0,5,,,,,,,,,4,,,43,68
124800,note_off,0,0,3,,,,,,,,,2,,,67,0
124800,note_on,0,0,2,,,,,,,,,1,,,71,68
124800,note_off,480,0,2,,,,,,,,,1,,,72,0
124800,note_off,0,0,3,,,,,,,,,2,,,55,0
124800,note_on,0,0,3,,,,,,,,,2,,,55,57
124800,note_on,0,0,1,,,,,,,,,0,,,74,68
124800,note_on,0,0,3,,,,,,,,,2,,,62,57
124800,note_on,0,0,3,,,,,,,,,2,,,59,57
124800,note_on,0,0,3,,,,,,,,,2,,,67,57
124800,note_on,0,0,3,,,,,,,,,2,,,50,57
124800,note_on,0,0,3,,,,,,,,,2,,,47,57
124800,note_off,480,0,1,,,,,,,,,0,,,76,0
124800,note_on,0,0,5,,,,,,,,,4,,,31,78
124800,set_tempo,120,1,0,,,,,,517241,,,,,,,
125160,note_off,0,0,3,,,,,,,,,2,,,50,0
125160,note_off,360,0,5,,,,,,,,,4,,,31,0
125160,note_off,0,0,5,,,,,,,,,4,,,43,0
125160,note_off,360,0,2,,,,,,,,,1,,,71,0
125160,note_off,0,0,3,,,,,,,,,2,,,62,0
125160,note_off,0,0,3,,,,,,,,,2,,,47,0
125160,note_off,0,0,3,,,,,,,,,2,,,67,0
125160,note_off,360,0,3,,,,,,,,,2,,,55,0
125160,set_tempo,360,1,0,,,,,,526315,,,,,,,
125160,note_off,0,0,3,,,,,,,,,2,,,59,0
125160,note_off,360,0,1,,,,,,,,,0,,,74,0
125280,set_tempo,120,1,0,,,,,,508474,,,,,,,
125280,note_on,120,0,1,,,,,,,,,0,,,86,75
125640,note_off,360,0,1,,,,,,,,,0,,,86,0
125640,note_on,0,0,1,,,,,,,,,0,,,83,67
125760,note_on,0,0,1,,,,,,,,,0,,,79,64
125760,note_off,120,0,1,,,,,,,,,0,,,83,0
125767,set_tempo,487,1,0,,,,,,517241,,,,,,,
126120,note_off,360,0,1,,,,,,,,,0,,,79,0
126240,set_tempo,473,1,0,,,,,,526315,,,,,,,
126240,note_on,1080,0,2,,,,,,,,,1,,,62,54
126240,note_on,1080,0,5,,,,,,,,,4,,,38,54
126240,note_on,17280,0,4,,,,,,,,,3,,,50,54
126240,note_on,120,0,1,,,,,,,,,0,,,74,54
126460,set_tempo,220,1,0,,,,,,540540,,,,,,,
126600,note_on,0,0,1,,,,,,,,,0,,,71,45
126600,note_off,360,0,1,,,,,,,,,0,,,74,0
126600,note_off,360,0,5,,,,,,,,,4,,,38,0
126600,note_on,0,0,5,,,,,,,,,4,,,35,45
126600,note_on,0,0,4,,,,,,,,,3,,,47,45
126600,note_off,360,0,4,,,,,,,,,3,,,50,0
126600,note_on,0,0,2,,,,,,,,,1,,,59,45
126600,set_tempo,140,1,0,,,,,,550458,,,,,,,
126600,note_off,360,0,2,,,,,,,,,1,,,62,0
126720,note_on,0,0,4,,,,,,,,,3,,,43,43
126720,note_off,120,0,4,,,,,,,,,3,,,47,0
126720,set_tempo,120,1,0,,,,,,441176,,,,,,,
126720,note_on,0,0,5,,,,,,,,,4,,,31,43
126720,note_off,120,0,5,,,,,,,,,4,,,35,0
126720,note_off,120,0,1,,,,,,,,,0,,,71,0
126720,note_on,0,0,1,,,,,,,,,0,,,67,43
126720,note_off,120,0,2,,,,,,,,,1,,,59,0
126720,note_on,0,0,2,,,,,,,,,1,,,55,43
129600,set_tempo,2880,1,0,,,,,,500000,,,,,,,
129607,note_off,2887,0,2,,,,,,,,,1,,,55,0
129607,note_off,2887,0,1,,,,,,,,,0,,,67,0
130080,control_change,473,0,2,,,,,,,64,0,1,,,,
130080,set_tempo,480,1,0,,,,,,508474,,,,,,,
130080,note_on,0,0,1,,,,,,,,,0,,,60,47
130080,control_change,4920,0,3,,,,,,,64,0,2,,,,
130080,note_on,0,0,2,,,,,,,,,1,,,52,47
130080,control_change,473,0,1,,,,,,,64,0,0,,,,
130080,note_on,0,0,2,,,,,,,,,1,,,67,47
130080,control_change,3360,0,4,,,,,,,64,0,3,,,,
130080,note_on,0,0,1,,,,,,,,,0,,,72,47
130080,control_change,3360,0,5,,,,,,,64,0,4,,,,
130314,note_off,0,0,2,,,,,,,,,1,,,67,0
130314,note_off,234,0,2,,,,,,,,,1,,,52,0
130314,note_off,234,0,1,,,,,,,,,0,,,60,0
130314,note_off,0,0,1,,,,,,,,,0,,,72,0
130440,note_on,0,0,2,,,,,,,,,1,,,71,49
130440,note_on,126,0,1,,,,,,,,,0,,,62,49
130440,note_on,0,0,1,,,,,,,,,0,,,74,49
130440,note_on,126,0,2,,,,,,,,,1,,,55,49
130510,set_tempo,430,1,0,,,,,,517241,,,,,,,
130518,note_off,78,0,1,,,,,,,,,0,,,74,0
130518,note_off,0,0,1,,,,,,,,,0,,,62,0
130518,note_off,78,0,2,,,,,,,,,1,,,71,0
130518,note_off,0,0,2,,,,,,,,,1,,,55,0
130560,note_on,0,0,2,,,,,,,,,1,,,72,50
130560,note_on,42,0,1,,,,,,,,,0,,,64,50
130560,note_on,0,0,1,,,,,,,,,0,,,76,50
130560,note_on,42,0,2,,,,,,,,,1,,,60,50
130560,set_tempo,50,1,0,,,,,,508474,,,,,,,
130560,note_off,480,0,4,,,,,,,,,3,,,43,0
130560,note_off,480,0,5,,,,,,,,,4,,,31,0
131040,note_on,480,0,5,,,,,,,,,4,,,36,46
131040,note_on,480,0,4,,,,,,,,,3,,,48,46
131160,note_on,0,0,4,,,,,,,,,3,,,43,45
131160,note_on,0,0,5,,,,,,,,,4,,,31,45
131160,note_off,120,0,4,,,,,,,,,3,,,48,0
131160,note_off,120,0,5,,,,,,,,,4,,,36,0
131280,note_off,120,0,5,,,,,,,,,4,,,31,0
131280,note_on,0,0,5,,,,,,,,,4,,,36,43
131280,note_on,0,0,4,,,,,,,,,3,,,48,43
131280,note_off,120,0,4,,,,,,,,,3,,,43,0
131400,note_off,120,0,4,,,,,,,,,3,,,48,0
131400,note_on,0,0,4,,,,,,,,,3,,,43,42
131400,note_on,0,0,5,,,,,,,,,4,,,31,42
131400,note_off,120,0,5,,,,,,,,,4,,,36,0
131520,note_off,120,0,4,,,,,,,,,3,,,43,0
131520,note_off,120,0,5,,,,,,,,,4,,,31,0
131520,note_on,0,0,4,,,,,,,,,3,,,48,40
131520,note_on,0,0,5,,,,,,,,,4,,,36,40
131880,set_tempo,1320,1,0,,,,,,571428,,,,,,,
131880,note_off,360,0,4,,,,,,,,,3,,,48,0
131880,note_off,360,0,5,,,,,,,,,4,,,36,0
132000,note_off,0,0,2,,,,,,,,,1,,,60,0
132000,note_on,0,0,2,,,,,,,,,1,,,52,42
132000,note_off,1440,0,1,,,,,,,,,0,,,76,0
132000,note_off,0,0,1,,,,,,,,,0,,,64,0
132000,note_on,0,0,1,,,,,,,,,0,,,72,42
132000,note_on,0,0,1,,,,,,,,,0,,,60,42
132000,note_on,0,0,2,,,,,,,,,1,,,67,42
132000,note_off,1440,0,2,,,,,,,,,1,,,72,0
132000,set_tempo,120,1,0,,,,,,508474,,,,,,,
132234,note_off,234,0,1,,,,,,,,,0,,,60,0
132234,note_off,0,0,1,,,,,,,,,0,,,72,0
132234,note_off,0,0,2,,,,,,,,,1,,,52,0
132234,note_off,234,0,2,,,,,,,,,1,,,67,0
132360,note_on,0,0,1,,,,,,,,,0,,,74,44
132360,note_on,126,0,1,,,,,,,,,0,,,62,44
132360,note_on,0,0,2,,,,,,,,,1,,,71,44
132360,note_on,126,0,2,,,,,,,,,1,,,55,44
132430,set_tempo,430,1,0,,,,,,517241,,,,,,,
132438,note_off,0,0,1,,,,,,,,,0,,,62,0
132438,note_off,0,0,2,,,,,,,,,1,,,55,0
132438,note_off,78,0,2,,,,,,,,,1,,,71,0
132438,note_off,78,0,1,,,,,,,,,0,,,74,0
132480,note_on,0,0,1,,,,,,,,,0,,,76,47
132480,set_tempo,50,1,0,,,,,,508474,,,,,,,
132480,note_on,42,0,2,,,,,,,,,1,,,60,47
132480,note_on,0,0,2,,,,,,,,,1,,,72,47
132480,note_on,42,0,1,,,,,,,,,0,,,64,47
132960,note_on,1080,0,4,,,,,,,,,3,,,48,43
132960,note_on,1080,0,5,,,,,,,,,4,,,36,43
133080,note_off,120,0,5,,,,,,,,,4,,,36,0
133080,note_on,0,0,5,,,,,,,,,4,,,31,42
133080,note_on,0,0,4,,,,,,,,,3,,,43,42
133080,note_off,120,0,4,,,,,,,,,3,,,48,0
133200,note_off,120,0,5,,,,,,,,,4,,,31,0
133200,note_off,120,0,4,,,,,,,,,3,,,43,0
133200,note_on,0,0,5,,,,,,,,,4,,,36,41
133200,note_on,0,0,4,,,,,,,,,3,,,48,41
133320,note_on,0,0,5,,,,,,,,,4,,,31,40
133320,note_off,120,0,5,,,,,,,,,4,,,36,0
133320,note_off,120,0,4,,,,,,,,,3,,,48,0
133320,note_on,0,0,4,,,,,,,,,3,,,43,40
133440,note_on,0,0,5,,,,,,,,,4,,,36,38
133440,note_on,0,0,4,,,,,,,,,3,,,48,38
133440,note_off,120,0,5,,,,,,,,,4,,,31,0
133440,note_off,120,0,4,,,,,,,,,3,,,43,0
133800,note_off,360,0,4,,,,,,,,,3,,,48,0
133800,set_tempo,1320,1,0,,,,,,582524,,,,,,,
133800,note_off,360,0,5,,,,,,,,,4,,,36,0
133920,note_on,120,0,5,,,,,,,,,4,,,48,49
133920,note_off,1440,0,1,,,,,,,,,0,,,76,0
133920,note_on,0,0,1,,,,,,,,,0,,,64,49
133920,note_off,1440,0,2,,,,,,,,,1,,,72,0
133920,set_tempo,120,1,0,,,,,,508474,,,,,,,
133920,note_off,0,0,2,,,,,,,,,1,,,60,0
133920,note_on,3840,0,3,,,,,,,,,2,,,60,49
133920,note_on,0,0,1,,,,,,,,,0,,,76,49
133920,note_off,0,0,1,,,,,,,,,0,,,64,0
134154,note_off,234,0,3,,,,,,,,,2,,,60,0
134154,note_off,234,0,1,,,,,,,,,0,,,64,0
134154,note_off,234,0,5,,,,,,,,,4,,,48,0
134154,note_off,0,0,1,,,,,,,,,0,,,76,0
134280,note_on,126,0,3,,,,,,,,,2,,,62,51
134280,note_on,126,0,5,,,,,,,,,4,,,48,51
134280,note_on,126,0,1,,,,,,,,,0,,,77,51
134280,note_on,0,0,1,,,,,,,,,0,,,65,51
134355,set_tempo,435,1,0,,,,,,517241,,,,,,,
134358,note_off,78,0,5,,,,,,,,,4,,,48,0
134358,note_off,0,0,1,,,,,,,,,0,,,77,0
134358,note_off,78,0,1,,,,,,,,,0,,,65,0
134358,note_off,78,0,3,,,,,,,,,2,,,62,0
134400,note_on,0,0,1,,,,,,,,,0,,,79,52
134400,note_on,42,0,3,,,,,,,,,2,,,64,52
134400,note_on,42,0,5,,,,,,,,,4,,,48,52
134400,set_tempo,45,1,0,,,,,,508474,,,,,,,
134400,note_on,42,0,1,,,,,,,,,0,,,67,52
134880,note_off,480,0,1,,,,,,,,,0,,,79,0
134880,note_off,0,0,1,,,,,,,,,0,,,67,0
134880,note_on,0,0,1,,,,,,,,,0,,,69,55
134880,note_off,480,0,5,,,,,,,,,4,,,48,0
134880,note_on,0,0,5,,,,,,,,,4,,,48,55
134880,note_on,0,0,3,,,,,,,,,2,,,64,55
134880,note_off,480,0,3,,,,,,,,,2,,,64,0
134880,note_on,0,0,1,,,,,,,,,0,,,81,55
135114,note_off,234,0,3,,,,,,,,,2,,,64,0
135114,note_off,234,0,1,,,,,,,,,0,,,81,0
135114,note_off,0,0,1,,,,,,,,,0,,,69,0
135114,note_off,234,0,5,,,,,,,,,4,,,48,0
135240,note_on,126,0,5,,,,,,,,,4,,,47,57
135240,note_on,126,0,3,,,,,,,,,2,,,62,57
135240,note_on,126,0,1,,,,,,,,,0,,,71,57
135240,note_on,0,0,1,,,,,,,,,0,,,83,57
135300,set_tempo,900,1,0,,,,,,517241,,,,,,,
135318,note_off,78,0,5,,,,,,,,,4,,,47,0
135318,note_off,78,0,1,,,,,,,,,0,,,83,0
135318,note_off,78,0,3,,,,,,,,,2,,,62,0
135318,note_off,0,0,1,,,,,,,,,0,,,71,0
135360,note_on,42,0,1,,,,,,,,,0,,,72,58
135360,note_on,42,0,5,,,,,,,,,4,,,45,58
135360,note_on,42,0,3,,,,,,,,,2,,,60,58
135360,note_on,0,0,1,,,,,,,,,0,,,84,58
135360,set_tempo,60,1,0,,,,,,508474,,,,,,,
135840,note_on,0,0,3,,,,,,,,,2,,,54,61
135840,note_on,0,0,3,,,,,,,,,2,,,60,61
135840,note_off,480,0,3,,,,,,,,,2,,,60,0
135840,note_on,0,0,1,,,,,,,,,0,,,69,61
135840,note_on,0,0,5,,,,,,,,,4,,,50,61
135840,note_off,480,0,1,,,,,,,,,0,,,84,0
135840,note_on,0,0,1,,,,,,,,,0,,,81,61
135840,note_off,0,0,1,,,,,,,,,0,,,72,0
135840,note_off,480,0,5,,,,,,,,,4,,,45,0
136074,note_off,234,0,5,,,,,,,,,4,,,50,0
136074,note_off,234,0,3,,,,,,,,,2,,,54,0
136074,note_off,0,0,3,,,,,,,,,2,,,60,0
136074,note_off,234,0,1,,,,,,,,,0,,,81,0
136074,note_off,0,0,1,,,,,,,,,0,,,69,0
136200,note_on,0,0,3,,,,,,,,,2,,,57,63
136200,note_on,126,0,3,,,,,,,,,2,,,60,63
136200,note_on,126,0,1,,,,,,,,,0,,,66,63
136200,note_on,0,0,1,,,,,,,,,0,,,78,63
136200,note_on,126,0,5,,,,,,,,,4,,,50,63
136278,note_off,0,0,3,,,,,,,,,2,,,60,0
136278,note_off,78,0,3,,,,,,,,,2,,,57,0
136278,note_off,78,0,1,,,,,,,,,0,,,78,0
136278,note_off,0,0,1,,,,,,,,,0,,,66,0
136278,note_off,78,0,5,,,,,,,,,4,,,50,0
136282,set_tempo,922,1,0,,,,,,517241,,,,,,,
136320,note_on,42,0,5,,,,,,,,,4,,,43,64
136320,set_tempo,38,1,0,,,,,,526315,,,,,,,
136320,note_on,42,0,1,,,,,,,,,0,,,79,64
136320,note_on,0,0,1,,,,,,,,,0,,,67,64
136320,note_on,42,0,3,,,,,,,,,2,,,55,64
136320,note_on,0,0,3,,,,,,,,,2,,,59,64
136680,note_off,360,0,1,,,,,,,,,0,,,67,0
136680,note_off,0,0,1,,,,,,,,,0,,,79,0
136680,note_off,360,0,5,,,,,,,,,4,,,43,0
136680,note_off,360,0,3,,,,,,,,,2,,,59,0
136680,note_off,0,0,3,,,,,,,,,2,,,55,0
136800,note_on,120,0,5,,,,,,,,,4,,,43,59
136800,note_on,0,0,3,,,,,,,,,2,,,50,59
136800,note_on,120,0,1,,,,,,,,,0,,,79,59
136800,note_on,0,0,1,,,,,,,,,0,,,67,59
136800,note_on,0,0,3,,,,,,,,,2,,,55,59
136800,note_on,120,0,3,,,,,,,,,2,,,59,59
136800,note_on,2880,0,2,,,,,,,,,1,,,62,59
136800,note_on,0,0,2,,,,,,,,,1,,,74,59
136800,note_on,0,0,2,,,,,,,,,1,,,71,59
137160,note_off,0,0,2,,,,,,,,,1,,,74,0
137160,note_off,360,0,3,,,,,,,,,2,,,50,0
137160,note_off,0,0,3,,,,,,,,,2,,,59,0
137160,note_off,360,0,2,,,,,,,,,1,,,71,0
137160,note_off,360,0,5,,,,,,,,,4,,,43,0
137160,note_off,0,0,3,,,,,,,,,2,,,55,0
137160,note_off,0,0,2,,,,,,,,,1,,,62,0
137160,note_off,360,0,1,,,,,,,,,0,,,67,0
137160,note_off,0,0,1,,,,,,,,,0,,,79,0
137180,set_tempo,860,1,0,,,,,,550458,,,,,,,
137280,note_on,120,0,2,,,,,,,,,1,,,62,53
137280,note_on,0,0,1,,,,,,,,,0,,,67,53
137280,note_on,0,0,2,,,,,,,,,1,,,74,53
137280,note_on,0,0,2,,,,,,,,,1,,,71,53
137280,note_on,120,0,1,,,,,,,,,0,,,79,53
137280,note_on,120,0,5,,,,,,,,,4,,,43,53
137280,note_on,120,0,3,,,,,,,,,2,,,59,53
137280,note_on,0,0,3,,,,,,,,,2,,,50,53
137280,note_on,0,0,3,,,,,,,,,2,,,55,53
137640,note_off,360,0,2,,,,,,,,,1,,,71,0
137640,note_off,360,0,5,,,,,,,,,4,,,43,0
137640,note_off,0,0,2,,,,,,,,,1,,,74,0
137640,note_off,0,0,1,,,,,,,,,0,,,79,0
137640,note_off,360,0,1,,,,,,,,,0,,,67,0
137640,note_off,0,0,2,,,,,,,,,1,,,62,0
137640,note_off,360,0,3,,,,,,,,,2,,,50,0
137640,note_off,0,0,3,,,,,,,,,2,,,55,0
137640,note_off,0,0,3,,,,,,,,,2,,,59,0
137640,set_tempo,460,1,0,,,,,,769230,,,,,,,
137760,note_on,0,0,4,,,,,,,,,3,,,48,49
137760,note_on,0,0,4,,,,,,,,,3,,,52,49
137760,note_on,3960,0,4,,,,,,,,,3,,,55,49
137760,note_on,120,0,5,,,,,,,,,4,,,60,49
137760,note_on,0,0,5,,,,,,,,,4,,,36,49
137760,set_tempo,120,1,0,,,,,,508474,,,,,,,
138120,note_off,0,0,4,,,,,,,,,3,,,55,0
138120,note_on,0,0,4,,,,,,,,,3,,,55,51
138120,note_on,0,0,4,,,,,,,,,3,,,59,51
138120,note_on,0,0,4,,,,,,,,,3,,,43,51
138120,note_on,0,0,5,,,,,,,,,4,,,31,51
138120,note_off,0,0,5,,,,,,,,,4,,,60,0
138120,note_on,0,0,5,,,,,,,,,4,,,62,51
138120,note_off,360,0,4,,,,,,,,,3,,,48,0
138120,note_off,360,0,5,,,,,,,,,4,,,36,0
138120,note_off,0,0,4,,,,,,,,,3,,,52,0
138187,set_tempo,427,1,0,,,,,,517241,,,,,,,
138240,note_off,0,0,5,,,,,,,,,4,,,62,0
138240,note_on,0,0,4,,,,,,,,,3,,,60,53
138240,note_on,0,0,5,,,,,,,,,4,,,36,53
138240,note_on,0,0,5,,,,,,,,,4,,,64,53
138240,note_off,120,0,5,,,,,,,,,4,,,31,0
138240,note_on,0,0,4,,,,,,,,,3,,,48,53
138240,note_off,120,0,4,,,,,,,,,3,,,43,0
138240,note_off,0,0,4,,,,,,,,,3,,,55,0
138240,note_off,0,0,4,,,,,,,,,3,,,59,0
138240,set_tempo,53,1,0,,,,,,508474,,,,,,,
138240,note_on,0,0,4,,,,,,,,,3,,,55,53
138720,note_on,1080,0,2,,,,,,,,,1,,,72,47
138720,note_on,1080,0,1,,,,,,,,,0,,,84,47
138840,note_on,0,0,2,,,,,,,,,1,,,67,46
138840,note_on,0,0,1,,,,,,,,,0,,,79,46
138840,note_off,120,0,1,,,,,,,,,0,,,84,0
138840,note_off,120,0,2,,,,,,,,,1,,,72,0
138960,note_on,0,0,2,,,,,,,,,1,,,72,45
138960,note_off,120,0,2,,,,,,,,,1,,,67,0
138960,note_on,0,0,1,,,,,,,,,0,,,84,45
138960,note_off,120,0,1,,,,,,,,,0,,,79,0
139080,note_off,120,0,2,,,,,,,,,1,,,72,0
139080,note_on,0,0,2,,,,,,,,,1,,,67,44
139080,note_off,120,0,1,,,,,,,,,0,,,84,0
139080,note_on,0,0,1,,,,,,,,,0,,,79,44
139200,note_off,120,0,1,,,,,,,,,0,,,79,0
139200,note_on,0,0,2,,,,,,,,,1,,,72,43
139200,note_off,120,0,2,,,,,,,,,1,,,67,0
139200,note_on,0,0,1,,,,,,,,,0,,,84,43
139560,note_off,360,0,1,,,,,,,,,0,,,84,0
139560,set_tempo,1320,1,0,,,,,,571428,,,,,,,
139560,note_off,360,0,2,,,,,,,,,1,,,72,0
139680,note_off,1440,0,5,,,,,,,,,4,,,36,0
139680,note_on,0,0,5,,,,,,,,,4,,,36,44
139680,set_tempo,120,1,0,,,,,,508474,,,,,,,
139680,note_on,0,0,5,,,,,,,,,4,,,60,44
139680,note_off,0,0,5,,,,,,,,,4,,,64,0
139680,note_on,0,0,4,,,,,,,,,3,,,48,44
139680,note_off,1440,0,4,,,,,,,,,3,,,60,0
139680,note_off,0,0,4,,,,,,,,,3,,,48,0
139680,note_on,0,0,4,,,,,,,,,3,,,55,44
139680,note_on,0,0,4,,,,,,,,,3,,,52,44
139680,note_off,0,0,4,,,,,,,,,3,,,55,0
140040,note_off,360,0,5,,,,,,,,,4,,,36,0
140040,note_off,0,0,5,,,,,,,,,4,,,60,0
140040,note_on,0,0,5,,,,,,,,,4,,,62,46
140040,note_on,0,0,5,,,,,,,,,4,,,31,46
140040,note_on,0,0,4,,,,,,,,,3,,,55,46
140040,note_off,360,0,4,,,,,,,,,3,,,55,0
140040,note_off,0,0,4,,,,,,,,,3,,,52,0
140040,note_on,0,0,4,,,,,,,,,3,,,43,46
140040,note_off,0,0,4,,,,,,,,,3,,,48,0
140040,note_on,0,0,4,,,,,,,,,3,,,59,46
140100,set_tempo,420,1,0,,,,,,517241,,,,,,,
140160,set_tempo,60,1,0,,,,,,508474,,,,,,,
140160,note_on,0,0,5,,,,,,,,,4,,,36,49
140160,note_off,0,0,5,,,,,,,,,4,,,62,0
140160,note_on,0,0,4,,,,,,,,,3,,,55,49
140160,note_off,120,0,5,,,,,,,,,4,,,31,0
140160,note_on,0,0,4,,,,,,,,,3,,,60,49
140160,note_off,0,0,4,,,,,,,,,3,,,59,0
140160,note_off,0,0,4,,,,,,,,,3,,,55,0
140160,note_off,120,0,4,,,,,,,,,3,,,43,0
140160,note_on,0,0,4,,,,,,,,,3,,,48,49
140160,note_on,0,0,5,,,,,,,,,4,,,64,49
140640,note_on,1080,0,1,,,,,,,,,0,,,84,46
140640,note_on,1080,0,2,,,,,,,,,1,,,72,46
140760,note_on,0,0,1,,,,,,,,,0,,,79,45
140760,note_off,120,0,2,,,,,,,,,1,,,72,0
140760,note_on,0,0,2,,,,,,,,,1,,,67,45
140760,note_off,120,0,1,,,,,,,,,0,,,84,0
140880,note_off,120,0,1,,,,,,,,,0,,,79,0
140880,note_on,0,0,1,,,,,,,,,0,,,84,44
140880,note_off,120,0,2,,,,,,,,,1,,,67,0
140880,note_on,0,0,2,,,,,,,,,1,,,72,44
141000,note_off,120,0,1,,,,,,,,,0,,,84,0
141000,note_on,0,0,1,,,,,,,,,0,,,79,43
141000,note_on,0,0,2,,,,,,,,,1,,,67,43
141000,note_off,120,0,2,,,,,,,,,1,,,72,0
141120,note_on,0,0,2,,,,,,,,,1,,,72,43
141120,note_on,0,0,1,,,,,,,,,0,,,84,43
141120,note_off,120,0,1,,,,,,,,,0,,,79,0
141120,note_off,120,0,2,,,,,,,,,1,,,67,0
141480,note_off,360,0,2,,,,,,,,,1,,,72,0
141480,note_off,360,0,1,,,,,,,,,0,,,84,0
141480,set_tempo,1320,1,0,,,,,,571428,,,,,,,
141504,note_off,0,0,5,,,,,,,,,4,,,64,0
141504,note_off,1344,0,5,,,,,,,,,4,,,36,0
141504,note_off,1344,0,4,,,,,,,,,3,,,55,0
141504,note_off,0,0,4,,,,,,,,,3,,,48,0
141504,note_off,0,0,4,,,,,,,,,3,,,60,0
141600,note_on,120,0,1,,,,,,,,,0,,,88,50
141600,note_on,120,0,2,,,,,,,,,1,,,64,50
141600,note_on,0,0,5,,,,,,,,,4,,,36,50
141600,note_on,96,0,5,,,,,,,,,4,,,52,50
141600,set_tempo,120,1,0,,,,,,508474,,,,,,,
141600,note_on,96,0,4,,,,,,,,,3,,,48,50
141778,note_off,178,0,5,,,,,,,,,4,,,36,0
141778,note_off,178,0,2,,,,,,,,,1,,,64,0
141778,note_off,0,0,5,,,,,,,,,4,,,52,0
141778,note_off,178,0,4,,,,,,,,,3,,,48,0
141960,note_on,182,0,5,,,,,,,,,4,,,53,52
141960,note_on,182,0,2,,,,,,,,,1,,,65,52
141960,note_on,0,0,5,,,,,,,,,4,,,36,52
141960,note_on,0,0,4,,,,,,,,,3,,,48,52
141960,note_on,182,0,4,,,,,,,,,3,,,50,52
142020,set_tempo,420,1,0,,,,,,517241,,,,,,,
142038,note_off,78,0,4,,,,,,,,,3,,,48,0
142038,note_off,0,0,4,,,,,,,,,3,,,50,0
142038,note_off,78,0,2,,,,,,,,,1,,,65,0
142038,note_off,0,0,5,,,,,,,,,4,,,53,0
142038,note_off,78,0,5,,,,,,,,,4,,,36,0
142080,note_on,42,0,2,,,,,,,,,1,,,67,53
142080,note_on,0,0,5,,,,,,,,,4,,,36,53
142080,note_on,42,0,5,,,,,,,,,4,,,55,53
142080,note_on,0,0,4,,,,,,,,,3,,,48,53
142080,set_tempo,60,1,0,,,,,,508474,,,,,,,
142080,note_on,42,0,4,,,,,,,,,3,,,52,53
142320,note_on,0,0,1,,,,,,,,,0,,,88,55
142320,note_off,720,0,1,,,,,,,,,0,,,88,0
142560,note_off,480,0,5,,,,,,,,,4,,,36,0
142560,note_off,0,0,5,,,,,,,,,4,,,55,0
142560,note_on,0,0,5,,,,,,,,,4,,,57,56
142560,note_on,0,0,5,,,,,,,,,4,,,36,56
142560,note_off,480,0,2,,,,,,,,,1,,,67,0
142560,note_on,0,0,2,,,,,,,,,1,,,69,56
142560,note_on,0,0,4,,,,,,,,,3,,,52,56
142560,note_on,0,0,4,,,,,,,,,3,,,48,56
142560,note_off,0,0,4,,,,,,,,,3,,,52,0
142560,note_off,480,0,4,,,,,,,,,3,,,48,0
142762,note_off,202,0,2,,,,,,,,,1,,,69,0
142762,note_off,202,0,5,,,,,,,,,4,,,36,0
142762,note_off,202,0,4,,,,,,,,,3,,,52,0
142762,note_off,0,0,5,,,,,,,,,4,,,57,0
142762,note_off,0,0,4,,,,,,,,,3,,,48,0
142800,note_off,480,0,1,,,,,,,,,0,,,88,0
142800,note_on,0,0,1,,,,,,,,,0,,,88,58
142920,note_on,158,0,5,,,,,,,,,4,,,59,59
142920,note_on,0,0,4,,,,,,,,,3,,,50,59
142920,note_off,120,0,1,,,,,,,,,0,,,88,0
142920,note_on,0,0,1,,,,,,,,,0,,,86,59
142920,note_on,158,0,4,,,,,,,,,3,,,47,59
142920,note_on,158,0,2,,,,,,,,,1,,,71,59
142920,note_on,0,0,5,,,,,,,,,4,,,35,59
142980,set_tempo,900,1,0,,,,,,517241,,,,,,,
142998,note_off,78,0,2,,,,,,,,,1,,,71,0
142998,note_off,78,0,5,,,,,,,,,4,,,35,0
142998,note_off,78,0,4,,,,,,,,,3,,,50,0
142998,note_off,0,0,5,,,,,,,,,4,,,59,0
142998,note_off,0,0,4,,,,,,,,,3,,,47,0
143040,note_on,42,0,5,,,,,,,,,4,,,60,60
143040,note_on,0,0,5,,,,,,,,,4,,,36,60
143040,note_on,42,0,2,,,,,,,,,1,,,72,60
143040,set_tempo,60,1,0,,,,,,508474,,,,,,,
143040,note_on,0,0,4,,,,,,,,,3,,,52,60
143040,note_on,0,0,4,,,,,,,,,3,,,48,60
143040,note_on,42,0,4,,,,,,,,,3,,,55,60
143040,note_off,120,0,1,,,,,,,,,0,,,86,0
143040,note_on,0,0,1,,,,,,,,,0,,,84,60
143160,note_off,120,0,1,,,,,,,,,0,,,84,0
143160,note_on,0,0,1,,,,,,,,,0,,,83,60
143280,note_on,0,0,1,,,,,,,,,0,,,81,61
143280,note_off,120,0,1,,,,,,,,,0,,,83,0
143400,note_on,0,0,1,,,,,,,,,0,,,79,62
143400,note_off,120,0,1,,,,,,,,,0,,,81,0
143520,note_off,0,0,4,,,,,,,,,3,,,55,0
143520,note_on,0,0,2,,,,,,,,,1,,,69,63
143520,note_on,0,0,5,,,,,,,,,4,,,57,63
143520,note_off,0,0,5,,,,,,,,,4,,,60,0
143520,note_off,480,0,5,,,,,,,,,4,,,36,0
143520,note_off,120,0,1,,,,,,,,,0,,,79,0
143520,note_on,0,0,1,,,,,,,,,0,,,78,63
143520,note_off,480,0,4,,,,,,,,,3,,,52,0
143520,note_off,480,0,2,,,,,,,,,1,,,72,0
143520,note_off,0,0,4,,,,,,,,,3,,,48,0
143560,note_off,40,0,1,,,,,,,,,0,,,78,0
143560,note_on,0,0,1,,,,,,,,,0,,,79,63
143600,note_off,40,0,1,,,,,,,,,0,,,79,0
143600,note_on,0,0,1,,,,,,,,,0,,,78,63
143640,note_on,0,0,1,,,,,,,,,0,,,76,63
143640,note_off,40,0,1,,,,,,,,,0,,,78,0
143700,note_on,0,0,1,,,,,,,,,0,,,78,64
143700,note_off,60,0,1,,,,,,,,,0,,,76,0
143754,note_off,234,0,2,,,,,,,,,1,,,69,0
143754,note_off,234,0,5,,,,,,,,,4,,,57,0
143760,note_off,60,0,1,,,,,,,,,0,,,78,0
143760,note_on,0,0,1,,,,,,,,,0,,,81,64
143880,note_off,120,0,1,,,,,,,,,0,,,81,0
143880,note_on,0,0,1,,,,,,,,,0,,,84,65
143880,note_on,126,0,5,,,,,,,,,4,,,54,65
143880,note_on,126,0,2,,,,,,,,,1,,,66,65
143947,set_tempo,907,1,0,,,,,,517241,,,,,,,
143958,note_off,78,0,5,,,,,,,,,4,,,54,0
143958,note_off,78,0,2,,,,,,,,,1,,,66,0
144000,note_on,42,0,2,,,,,,,,,1,,,67,61
144000,note_on,0,0,5,,,,,,,,,4,,,31,61
144000,note_on,42,0,5,,,,,,,,,4,,,55,61
144000,note_on,480,0,4,,,,,,,,,3,,,43,61
144000,note_off,120,0,1,,,,,,,,,0,,,84,0
144000,note_on,0,0,1,,,,,,,,,0,,,83,61
144120,note_off,120,0,1,,,,,,,,,0,,,83,0
144240,note_on,120,0,1,,,,,,,,,0,,,86,59
144360,note_off,0,0,5,,,,,,,,,4,,,55,0
144360,note_off,360,0,5,,,,,,,,,4,,,31,0
144360,note_off,360,0,4,,,,,,,,,3,,,43,0
144360,note_off,360,0,2,,,,,,,,,1,,,67,0
144360,note_off,120,0,1,,,,,,,,,0,,,86,0
144360,note_on,0,0,1,,,,,,,,,0,,,83,58
144480,note_off,120,0,1,,,,,,,,,0,,,83,0
144480,note_on,0,0,1,,,,,,,,,0,,,79,57
144480,note_on,120,0,4,,,,,,,,,3,,,50,57
144480,note_on,0,0,4,,,,,,,,,3,,,43,57
144480,note_on,6840,0,3,,,,,,,,,2,,,62,57
144480,note_on,120,0,2,,,,,,,,,1,,,67,57
144480,note_on,0,0,4,,,,,,,,,3,,,47,57
144480,note_on,0,0,3,,,,,,,,,2,,,59,57
144480,note_on,0,0,5,,,,,,,,,4,,,31,57
144480,note_on,120,0,5,,,,,,,,,4,,,55,57
144600,note_off,120,0,1,,,,,,,,,0,,,79,0
144720,note_on,120,0,1,,,,,,,,,0,,,86,54
144840,note_off,120,0,1,,,,,,,,,0,,,86,0
144840,note_on,0,0,1,,,,,,,,,0,,,83,53
144840,note_off,0,0,4,,,,,,,,,3,,,50,0
144840,note_off,360,0,3,,,,,,,,,2,,,59,0
144840,note_off,0,0,5,,,,,,,,,4,,,55,0
144840,set_tempo,893,1,0,,,,,,535714,,,,,,,
144840,note_off,360,0,2,,,,,,,,,1,,,67,0
144840,note_off,0,0,4,,,,,,,,,3,,,47,0
144840,note_off,360,0,4,,,,,,,,,3,,,43,0
144840,note_off,0,0,3,,,,,,,,,2,,,62,0
144840,note_off,360,0,5,,,,,,,,,4,,,31,0
144960,note_on,0,0,1,,,,,,,,,0,,,79,52
144960,note_off,120,0,1,,,,,,,,,0,,,83,0
144960,note_on,0,0,5,,,,,,,,,4,,,31,52
144960,note_on,120,0,3,,,,,,,,,2,,,62,52
144960,note_on,0,0,3,,,,,,,,,2,,,59,52
144960,note_on,0,0,4,,,,,,,,,3,,,43,52
144960,note_on,0,0,4,,,,,,,,,3,,,47,52
144960,note_on,120,0,2,,,,,,,,,1,,,67,52
144960,note_on,120,0,4,,,,,,,,,3,,,50,52
144960,note_on,120,0,5,,,,,,,,,4,,,55,52
145320,note_off,360,0,3,,,,,,,,,2,,,59,0
145320,note_off,0,0,4,,,,,,,,,3,,,50,0
145320,note_off,360,0,1,,,,,,,,,0,,,79,0
145320,note_off,0,0,3,,,,,,,,,2,,,62,0
145320,note_off,0,0,4,,,,,,,,,3,,,47,0
145320,note_off,360,0,4,,,,,,,,,3,,,43,0
145320,set_tempo,480,1,0,,,,,,769230,,,,,,,
145320,note_off,360,0,2,,,,,,,,,1,,,67,0
145320,note_off,360,0,5,,,,,,,,,4,,,31,0
145320,note_off,0,0,5,,,,,,,,,4,,,55,0
145440,note_on,0,0,2,,,,,,,,,1,,,67,47
145440,control_change,120,0,2,,,,,,,64,0,1,,,,
145440,control_change,120,0,1,,,,,,,64,0,0,,,,
145440,control_change,0,0,1,,,,,,,64,0,0,,,,
145440,control_change,0,0,1,,,,,,,64,0,0,,,,
145440,control_change,120,0,5,,,,,,,64,0,4,,,,
145440,note_on,0,0,1,,,,,,,,,0,,,79,47
145440,control_change,120,0,3,,,,,,,64,0,2,,,,
145440,set_tempo,120,1,0,,,,,,508474,,,,,,,
145440,control_change,120,0,4,,,,,,,64,0,3,,,,
145674,note_off,234,0,1,,,,,,,,,0,,,79,0
145674,note_off,234,0,2,,,,,,,,,1,,,67,0
145800,note_on,126,0,1,,,,,,,,,0,,,81,46
145800,set_tempo,360,1,0,,,,,,517241,,,,,,,
145800,note_on,126,0,2,,,,,,,,,1,,,69,46
145878,note_off,78,0,2,,,,,,,,,1,,,69,0
145878,note_off,78,0,1,,,,,,,,,0,,,81,0
145920,note_on,42,0,1,,,,,,,,,0,,,82,46
145920,note_on,480,0,5,,,,,,,,,4,,,31,46
145920,note_on,480,0,4,,,,,,,,,3,,,43,46
145920,note_on,42,0,2,,,,,,,,,1,,,70,46
145920,set_tempo,120,1,0,,,,,,508474,,,,,,,
145920,control_change,480,0,3,,,,,,,64,0,2,,,,
145920,note_on,0,0,3,,,,,,,,,2,,,50,47
145960,control_change,40,0,3,,,,,,,64,127,2,,,,
146040,note_on,0,0,3,,,,,,,,,2,,,55,47
146040,note_off,80,0,3,,,,,,,,,2,,,50,0
146160,note_on,0,0,3,,,,,,,,,2,,,58,47
146160,note_off,120,0,3,,,,,,,,,2,,,55,0
146280,note_on,0,0,3,,,,,,,,,2,,,55,47
146280,note_off,120,0,3,,,,,,,,,2,,,58,0
146400,note_off,0,0,3,,,,,,,,,2,,,55,0
146400,note_on,0,0,2,,,,,,,,,1,,,70,48
146400,note_off,480,0,2,,,,,,,,,1,,,70,0
146400,control_change,120,0,3,,,,,,,64,0,2,,,,
146400,note_off,480,0,1,,,,,,,,,0,,,82,0
146400,note_on,0,0,1,,,,,,,,,0,,,82,48
146400,note_off,480,0,4,,,,,,,,,3,,,43,0
146400,note_on,0,0,3,,,,,,,,,2,,,50,47
146400,note_off,480,0,5,,,,,,,,,4,,,31,0
146440,control_change,40,0,3,,,,,,,64,127,2,,,,
146520,note_on,0,0,3,,,,,,,,,2,,,55,48
146520,note_off,80,0,3,,,,,,,,,2,,,50,0
146640,note_on,0,0,3,,,,,,,,,2,,,58,48
146640,note_off,120,0,3,,,,,,,,,2,,,55,0
146760,note_off,360,0,1,,,,,,,,,0,,,82,0
146760,note_on,0,0,1,,,,,,,,,0,,,81,49
146760,note_off,120,0,3,,,,,,,,,2,,,58,0
146760,note_on,0,0,3,,,,,,,,,2,,,55,48
146760,note_off,360,0,2,,,,,,,,,1,,,70,0
146760,note_on,0,0,2,,,,,,,,,1,,,69,49
146820,set_tempo,900,1,0,,,,,,517241,,,,,,,
146880,set_tempo,60,1,0,,,,,,508474,,,,,,,
146880,note_off,120,0,2,,,,,,,,,1,,,69,0
146880,note_on,0,0,2,,,,,,,,,1,,,67,49
146880,note_on,0,0,3,,,,,,,,,2,,,50,48
146880,note_on,480,0,4,,,,,,,,,3,,,46,49
146880,control_change,120,0,3,,,,,,,64,0,2,,,,
146880,note_on,480,0,5,,,,,,,,,4,,,34,49
146880,note_off,120,0,1,,,,,,,,,0,,,81,0
146880,note_on,0,0,1,,,,,,,,,0,,,79,49
146880,note_off,0,0,3,,,,,,,,,2,,,55,0
146920,control_change,40,0,3,,,,,,,64,127,2,,,,
147000,note_on,0,0,3,,,,,,,,,2,,,55,48
147000,note_off,80,0,3,,,,,,,,,2,,,50,0
147120,note_on,240,0,2,,,,,,,,,1,,,62,50
147120,note_off,120,0,3,,,,,,,,,2,,,55,0
147240,note_off,0,0,2,,,,,,,,,1,,,67,0
147240,note_on,120,0,3,,,,,,,,,2,,,55,49
147240,note_off,360,0,1,,,,,,,,,0,,,79,0
147240,note_on,0,0,1,,,,,,,,,0,,,77,50
147240,note_on,0,0,2,,,,,,,,,1,,,65,50
147240,note_off,120,0,2,,,,,,,,,1,,,62,0
147360,note_on,0,0,3,,,,,,,,,2,,,50,49
147360,note_off,120,0,1,,,,,,,,,0,,,77,0
147360,control_change,120,0,3,,,,,,,64,0,2,,,,
147360,note_on,0,0,1,,,,,,,,,0,,,76,50
147360,note_off,0,0,3,,,,,,,,,2,,,55,0
147360,note_off,480,0,4,,,,,,,,,3,,,46,0
147360,note_off,480,0,5,,,,,,,,,4,,,34,0
147360,note_off,120,0,2,,,,,,,,,1,,,65,0
147360,note_on,0,0,2,,,,,,,,,1,,,64,50
147400,control_change,40,0,3,,,,,,,64,127,2,,,,
147480,note_off,80,0,3,,,,,,,,,2,,,50,0
147480,note_on,0,0,3,,,,,,,,,2,,,56,49
147600,note_off,120,0,3,,,,,,,,,2,,,56,0
147600,note_on,240,0,2,,,,,,,,,1,,,62,51
147720,note_on,120,0,3,,,,,,,,,2,,,56,50
147720,note_off,120,0,2,,,,,,,,,1,,,62,0
147720,note_off,0,0,2,,,,,,,,,1,,,64,0
147720,note_on,0,0,2,,,,,,,,,1,,,64,51
147720,note_on,0,0,1,,,,,,,,,0,,,74,51
147720,note_off,360,0,1,,,,,,,,,0,,,76,0
147780,set_tempo,900,1,0,,,,,,517241,,,,,,,
147840,note_on,0,0,1,,,,,,,,,0,,,73,52
147840,note_on,0,0,3,,,,,,,,,2,,,52,50
147840,note_off,0,0,3,,,,,,,,,2,,,56,0
147840,note_on,480,0,4,,,,,,,,,3,,,45,52
147840,set_tempo,60,1,0,,,,,,508474,,,,,,,
147840,note_off,120,0,2,,,,,,,,,1,,,64,0
147840,note_on,0,0,2,,,,,,,,,1,,,64,52
147840,note_on,480,0,5,,,,,,,,,4,,,33,52
147840,control_change,120,0,3,,,,,,,64,0,2,,,,
147840,note_off,120,0,1,,,,,,,,,0,,,74,0
147880,control_change,40,0,3,,,,,,,64,127,2,,,,
147960,note_on,0,0,3,,,,,,,,,2,,,57,50
147960,note_off,80,0,3,,,,,,,,,2,,,52,0
148074,note_off,234,0,1,,,,,,,,,0,,,73,0
148080,note_off,120,0,3,,,,,,,,,2,,,57,0
148080,note_on,0,0,3,,,,,,,,,2,,,61,50
148200,note_off,120,0,3,,,,,,,,,2,,,61,0
148200,note_on,0,0,3,,,,,,,,,2,,,57,50
148200,note_on,126,0,1,,,,,,,,,0,,,76,53
148200,note_off,360,0,2,,,,,,,,,1,,,64,0
148278,note_off,78,0,1,,,,,,,,,0,,,76,0
148320,note_on,42,0,1,,,,,,,,,0,,,81,53
148320,note_off,480,0,4,,,,,,,,,3,,,45,0
148320,note_off,480,0,5,,,,,,,,,4,,,33,0
148320,control_change,120,0,3,,,,,,,64,0,2,,,,
148320,note_off,0,0,3,,,,,,,,,2,,,57,0
148320,note_on,0,0,3,,,,,,,,,2,,,52,51
148360,control_change,40,0,3,,,,,,,64,127,2,,,,
148440,note_off,80,0,3,,,,,,,,,2,,,52,0
148440,note_on,0,0,3,,,,,,,,,2,,,57,51
148560,note_on,0,0,3,,,,,,,,,2,,,61,51
148560,note_off,120,0,3,,,,,,,,,2,,,57,0
148680,note_on,0,0,3,,,,,,,,,2,,,57,51
148680,note_off,120,0,3,,,,,,,,,2,,,61,0
148800,note_on,0,0,3,,,,,,,,,2,,,55,51
148800,control_change,120,0,3,,,,,,,64,0,2,,,,
148800,note_off,0,0,3,,,,,,,,,2,,,57,0
148840,control_change,40,0,3,,,,,,,64,127,2,,,,
148920,note_on,0,0,3,,,,,,,,,2,,,57,52
148920,note_off,80,0,3,,,,,,,,,2,,,55,0
149040,note_on,0,0,1,,,,,,,,,0,,,82,55
149040,note_on,0,0,3,,,,,,,,,2,,,61,52
149040,note_off,120,0,3,,,,,,,,,2,,,57,0
149040,note_off,720,0,1,,,,,,,,,0,,,81,0
149160,note_on,0,0,1,,,,,,,,,0,,,81,55
149160,note_off,120,0,1,,,,,,,,,0,,,82,0
149160,note_off,120,0,3,,,,,,,,,2,,,61,0
149160,note_on,0,0,3,,,,,,,,,2,,,57,52
149280,control_change,120,0,3,,,,,,,64,0,2,,,,
149280,note_off,0,0,3,,,,,,,,,2,,,57,0
149280,note_on,0,0,3,,,,,,,,,2,,,38,52
149280,note_on,0,0,1,,,,,,,,,0,,,81,56
149280,note_off,120,0,1,,,,,,,,,0,,,81,0
149280,note_on,960,0,5,,,,,,,,,4,,,62,56
149280,note_on,0,0,4,,,,,,,,,3,,,53,56
149280,note_on,960,0,4,,,,,,,,,3,,,57,56
149320,control_change,40,0,3,,,,,,,64,127,2,,,,
149400,note_on,0,0,1,,,,,,,,,0,,,79,56
149400,note_off,120,0,1,,,,,,,,,0,,,81,0
149400,note_on,0,0,3,,,,,,,,,2,,,45,52
149400,note_off,80,0,3,,,,,,,,,2,,,38,0
149514,note_off,234,0,4,,,,,,,,,3,,,53,0
149514,note_off,0,0,4,,,,,,,,,3,,,57,0
149514,note_off,234,0,5,,,,,,,,,4,,,62,0
149520,note_on,0,0,3,,,,,,,,,2,,,33,53
149520,note_off,120,0,1,,,,,,,,,0,,,79,0
149520,note_on,0,0,1,,,,,,,,,0,,,77,56
149520,note_off,120,0,3,,,,,,,,,2,,,45,0
149640,note_off,120,0,1,,,,,,,,,0,,,77,0
149640,note_on,0,0,1,,,,,,,,,0,,,76,57
149640,note_off,120,0,3,,,,,,,,,2,,,33,0
149640,note_on,126,0,5,,,,,,,,,4,,,64,57
149640,note_on,0,0,4,,,,,,,,,3,,,61,57
149640,note_on,126,0,4,,,,,,,,,3,,,57,57
149640,note_on,0,0,3,,,,,,,,,2,,,45,53
149707,set_tempo,1867,1,0,,,,,,517241,,,,,,,
149718,note_off,78,0,4,,,,,,,,,3,,,61,0
149718,note_off,0,0,4,,,,,,,,,3,,,57,0
149718,note_off,78,0,5,,,,,,,,,4,,,64,0
149760,note_on,0,0,1,,,,,,,,,0,,,74,57
149760,set_tempo,53,1,0,,,,,,508474,,,,,,,
149760,note_on,0,0,4,,,,,,,,,3,,,62,57
149760,note_on,42,0,4,,,,,,,,,3,,,57,57
149760,note_off,120,0,1,,,,,,,,,0,,,76,0
149760,note_on,42,0,5,,,,,,,,,4,,,65,57
149760,control_change,120,0,3,,,,,,,64,0,2,,,,
149760,note_off,0,0,3,,,,,,,,,2,,,45,0
149760,note_on,0,0,3,,,,,,,,,2,,,38,53
149800,control_change,40,0,3,,,,,,,64,127,2,,,,
149880,note_off,80,0,3,,,,,,,,,2,,,38,0
149880,note_on,0,0,3,,,,,,,,,2,,,45,53
150000,note_on,0,0,3,,,,,,,,,2,,,50,53
150000,note_off,120,0,3,,,,,,,,,2,,,45,0
150120,note_off,360,0,1,,,,,,,,,0,,,74,0
150120,note_on,0,0,3,,,,,,,,,2,,,45,54
150120,note_off,120,0,3,,,,,,,,,2,,,50,0
150240,control_change,120,0,3,,,,,,,64,0,2,,,,
150240,note_off,0,0,3,,,,,,,,,2,,,45,0
150240,note_on,0,0,3,,,,,,,,,2,,,38,54
150240,note_on,0,0,1,,,,,,,,,0,,,74,58
150240,note_on,120,0,1,,,,,,,,,0,,,86,58
150280,control_change,40,0,3,,,,,,,64,127,2,,,,
150360,note_on,0,0,3,,,,,,,,,2,,,45,54
150360,note_off,80,0,3,,,,,,,,,2,,,38,0
150474,note_off,0,0,1,,,,,,,,,0,,,86,0
150474,note_off,234,0,1,,,,,,,,,0,,,74,0
150480,note_off,120,0,3,,,,,,,,,2,,,45,0
150480,note_on,0,0,3,,,,,,,,,2,,,50,54
150600,note_off,120,0,3,,,,,,,,,2,,,50,0
150600,note_on,0,0,3,,,,,,,,,2,,,45,54
150600,note_on,126,0,1,,,,,,,,,0,,,88,60
150600,note_on,0,0,1,,,,,,,,,0,,,76,60
150600,note_on,2400,0,2,,,,,,,,,1,,,85,60
150600,note_on,0,0,2,,,,,,,,,1,,,73,60
150660,set_tempo,900,1,0,,,,,,517241,,,,,,,
150678,note_off,78,0,1,,,,,,,,,0,,,76,0
150678,note_off,0,0,1,,,,,,,,,0,,,88,0
150678,note_off,78,0,2,,,,,,,,,1,,,73,0
150678,note_off,0,0,2,,,,,,,,,1,,,85,0
150720,note_on,42,0,1,,,,,,,,,0,,,89,60
150720,note_on,0,0,1,,,,,,,,,0,,,77,60
150720,set_tempo,60,1,0,,,,,,508474,,,,,,,
150720,control_change,120,0,3,,,,,,,64,0,2,,,,
150720,note_off,0,0,3,,,,,,,,,2,,,45,0
150720,note_on,0,0,3,,,,,,,,,2,,,38,55
150720,note_on,0,0,2,,,,,,,,,1,,,74,60
150720,note_on,42,0,2,,,,,,,,,1,,,86,60
150760,control_change,40,0,3,,,,,,,64,127,2,,,,
150840,note_on,0,0,3,,,,,,,,,2,,,45,55
150840,note_off,80,0,3,,,,,,,,,2,,,38,0
150960,note_on,0,0,3,,,,,,,,,2,,,50,55
150960,note_off,120,0,3,,,,,,,,,2,,,45,0
151080,note_off,0,0,2,,,,,,,,,1,,,86,0
151080,note_off,0,0,1,,,,,,,,,0,,,89,0
151080,note_off,360,0,2,,,,,,,,,1,,,74,0
151080,note_on,0,0,3,,,,,,,,,2,,,45,55
151080,note_off,360,0,1,,,,,,,,,0,,,77,0
151080,note_off,120,0,3,,,,,,,,,2,,,50,0
151200,note_off,1440,0,5,,,,,,,,,4,,,65,0
151200,control_change,120,0,3,,,,,,,64,0,2,,,,
151200,note_off,0,0,3,,,,,,,,,2,,,45,0
151200,note_on,0,0,3,,,,,,,,,2,,,38,55
151200,note_off,1440,0,4,,,,,,,,,3,,,62,0
151200,note_on,0,0,5,,,,,,,,,4,,,62,61
151200,note_off,0,0,4,,,,,,,,,3,,,57,0
151200,note_on,0,0,4,,,,,,,,,3,,,53,61
151200,note_on,0,0,4,,,,,,,,,3,,,57,61
151240,control_change,40,0,3,,,,,,,64,127,2,,,,
151320,note_off,80,0,3,,,,,,,,,2,,,38,0
151320,note_on,0,0,3,,,,,,,,,2,,,45,56
151434,note_off,234,0,5,,,,,,,,,4,,,62,0
151434,note_off,234,0,4,,,,,,,,,3,,,57,0
151434,note_off,0,0,4,,,,,,,,,3,,,53,0
151440,note_on,0,0,3,,,,,,,,,2,,,33,56
151440,note_off,120,0,3,,,,,,,,,2,,,45,0
151560,note_on,0,0,4,,,,,,,,,3,,,61,62
151560,note_on,126,0,4,,,,,,,,,3,,,57,62
151560,note_on,0,0,3,,,,,,,,,2,,,45,56
151560,note_off,120,0,3,,,,,,,,,2,,,33,0
151560,note_on,126,0,5,,,,,,,,,4,,,64,62
151638,note_off,78,0,4,,,,,,,,,3,,,61,0
151638,note_off,78,0,5,,,,,,,,,4,,,64,0
151638,note_off,0,0,4,,,,,,,,,3,,,57,0
151642,set_tempo,922,1,0,,,,,,517241,,,,,,,
151680,note_on,42,0,4,,,,,,,,,3,,,57,63
151680,note_on,0,0,4,,,,,,,,,3,,,62,63
151680,note_off,0,0,3,,,,,,,,,2,,,45,0
151680,control_change,120,0,3,,,,,,,64,0,2,,,,
151680,note_on,42,0,5,,,,,,,,,4,,,65,63
151680,set_tempo,38,1,0,,,,,,508474,,,,,,,
151680,note_on,0,0,3,,,,,,,,,2,,,38,56
151720,control_change,40,0,3,,,,,,,64,127,2,,,,
151800,note_off,80,0,3,,,,,,,,,2,,,38,0
151800,note_on,0,0,3,,,,,,,,,2,,,45,56
151920,note_off,120,0,3,,,,,,,,,2,,,45,0
151920,note_on,0,0,3,,,,,,,,,2,,,50,57
152040,note_on,0,0,3,,,,,,,,,2,,,45,57
152040,note_off,120,0,3,,,,,,,,,2,,,50,0
152160,note_on,0,0,3,,,,,,,,,2,,,38,57
152160,note_off,0,0,3,,,,,,,,,2,,,45,0
152160,note_on,1080,0,1,,,,,,,,,0,,,74,64
152160,note_on,0,0,1,,,,,,,,,0,,,86,64
152160,control_change,120,0,3,,,,,,,64,0,2,,,,
152200,control_change,40,0,3,,,,,,,64,127,2,,,,
152280,note_off,80,0,3,,,,,,,,,2,,,38,0
152280,note_on,0,0,3,,,,,,,,,2,,,45,57
152394,note_off,234,0,1,,,,,,,,,0,,,86,0
152394,note_off,0,0,1,,,,,,,,,0,,,74,0
152400,note_off,120,0,3,,,,,,,,,2,,,45,0
152400,note_on,0,0,3,,,,,,,,,2,,,50,57
152520,note_on,0,0,1,,,,,,,,,0,,,88,65
152520,note_on,0,0,2,,,,,,,,,1,,,85,65
152520,note_on,0,0,3,,,,,,,,,2,,,45,58
152520,note_off,120,0,3,,,,,,,,,2,,,50,0
152520,note_on,126,0,1,,,,,,,,,0,,,76,65
152520,note_on,1440,0,2,,,,,,,,,1,,,73,65
152580,set_tempo,900,1,0,,,,,,517241,,,,,,,
152598,note_off,78,0,1,,,,,,,,,0,,,88,0
152598,note_off,78,0,2,,,,,,,,,1,,,85,0
152598,note_off,0,0,2,,,,,,,,,1,,,73,0
152598,note_off,0,0,1,,,,,,,,,0,,,76,0
152640,note_off,0,0,3,,,,,,,,,2,,,45,0
152640,control_change,120,0,3,,,,,,,64,0,2,,,,
152640,note_on,42,0,2,,,,,,,,,1,,,74,65
152640,note_on,0,0,2,,,,,,,,,1,,,86,65
152640,note_on,0,0,1,,,,,,,,,0,,,89,65
152640,note_on,42,0,1,,,,,,,,,0,,,77,65
152640,set_tempo,60,1,0,,,,,,508474,,,,,,,
152640,note_on,0,0,3,,,,,,,,,2,,,38,58
152680,control_change,40,0,3,,,,,,,64,127,2,,,,
152760,note_off,80,0,3,,,,,,,,,2,,,38,0
152760,note_on,0,0,3,,,,,,,,,2,,,45,58
152880,note_on,0,0,3,,,,,,,,,2,,,50,58
152880,note_off,120,0,3,,,,,,,,,2,,,45,0
153000,note_off,120,0,3,,,,,,,,,2,,,50,0
153000,note_off,0,0,1,,,,,,,,,0,,,77,0
153000,note_off,0,0,2,,,,,,,,,1,,,74,0
153000,note_off,360,0,2,,,,,,,,,1,,,86,0
153000,note_off,360,0,1,,,,,,,,,0,,,89,0
153000,note_on,0,0,3,,,,,,,,,2,,,45,58
153120,note_on,120,0,1,,,,,,,,,0,,,65,67
153120,note_on,0,0,1,,,,,,,,,0,,,77,67
153120,note_off,1440,0,5,,,,,,,,,4,,,65,0
153120,control_change,120,0,3,,,,,,,64,0,2,,,,
153120,note_off,0,0,3,,,,,,,,,2,,,45,0
153120,note_on,0,0,3,,,,,,,,,2,,,38,59
153120,note_off,1440,0,4,,,,,,,,,3,,,62,0
153120,note_off,0,0,4,,,,,,,,,3,,,57,0
153160,control_change,40,0,3,,,,,,,64,127,2,,,,
153240,note_on,0,0,3,,,,,,,,,2,,,50,59
153240,note_off,80,0,3,,,,,,,,,2,,,38,0
153354,note_off,234,0,1,,,,,,,,,0,,,77,0
153354,note_off,0,0,1,,,,,,,,,0,,,65,0
153360,note_off,120,0,3,,,,,,,,,2,,,50,0
153360,note_on,0,0,3,,,,,,,,,2,,,36,59
153480,note_on,0,0,1,,,,,,,,,0,,,67,68
153480,note_on,0,0,2,,,,,,,,,1,,,76,68
153480,note_on,480,0,2,,,,,,,,,1,,,64,68
153480,note_on,126,0,1,,,,,,,,,0,,,79,68
153480,note_off,120,0,3,,,,,,,,,2,,,36,0
153480,note_on,0,0,3,,,,,,,,,2,,,48,59
153547,set_tempo,907,1,0,,,,,,517241,,,,,,,
153558,note_off,0,0,1,,,,,,,,,0,,,79,0
153558,note_off,78,0,1,,,,,,,,,0,,,67,0
153558,note_off,78,0,2,,,,,,,,,1,,,76,0
153558,note_off,0,0,2,,,,,,,,,1,,,64,0
153600,note_on,42,0,1,,,,,,,,,0,,,81,68
153600,note_on,0,0,1,,,,,,,,,0,,,69,68
153600,note_on,42,0,2,,,,,,,,,1,,,65,68
153600,note_off,0,0,3,,,,,,,,,2,,,48,0
153600,control_change,120,0,3,,,,,,,64,0,2,,,,
153600,note_on,0,0,2,,,,,,,,,1,,,77,68
153600,set_tempo,53,1,0,,,,,,508474,,,,,,,
153600,note_on,0,0,3,,,,,,,,,2,,,29,59
153640,control_change,40,0,3,,,,,,,64,127,2,,,,
153720,note_off,80,0,3,,,,,,,,,2,,,29,0
153720,note_on,0,0,3,,,,,,,,,2,,,36,60
153840,note_off,120,0,3,,,,,,,,,2,,,36,0
153840,note_on,0,0,3,,,,,,,,,2,,,41,60
153960,note_off,120,0,3,,,,,,,,,2,,,41,0
153960,note_on,0,0,3,,,,,,,,,2,,,36,60
154080,control_change,120,0,3,,,,,,,64,0,2,,,,
154080,note_off,0,0,3,,,,,,,,,2,,,36,0
154080,note_on,0,0,3,,,,,,,,,2,,,29,60
154080,note_on,960,0,5,,,,,,,,,4,,,53,69
154080,note_on,960,0,4,,,,,,,,,3,,,45,69
154120,control_change,40,0,3,,,,,,,64,127,2,,,,
154200,note_off,80,0,3,,,,,,,,,2,,,29,0
154200,note_on,0,0,3,,,,,,,,,2,,,36,61
154314,note_off,234,0,5,,,,,,,,,4,,,53,0
154314,note_off,234,0,4,,,,,,,,,3,,,45,0
154320,note_on,0,0,3,,,,,,,,,2,,,41,61
154320,note_off,120,0,3,,,,,,,,,2,,,36,0
154440,note_on,126,0,4,,,,,,,,,3,,,48,71
154440,note_off,120,0,3,,,,,,,,,2,,,41,0
154440,note_on,0,0,3,,,,,,,,,2,,,36,61
154440,note_on,126,0,5,,,,,,,,,4,,,55,71
154500,set_tempo,900,1,0,,,,,,517241,,,,,,,
154518,note_off,78,0,5,,,,,,,,,4,,,55,0
154518,note_off,78,0,4,,,,,,,,,3,,,48,0
154560,note_on,42,0,4,,,,,,,,,3,,,53,71
154560,set_tempo,60,1,0,,,,,,508474,,,,,,,
154560,note_on,42,0,5,,,,,,,,,4,,,57,71
154560,note_on,0,0,3,,,,,,,,,2,,,29,61
154560,note_off,0,0,3,,,,,,,,,2,,,36,0
154560,control_change,120,0,3,,,,,,,64,0,2,,,,
154600,control_change,40,0,3,,,,,,,64,127,2,,,,
154680,note_on,0,0,3,,,,,,,,,2,,,36,61
154680,note_off,80,0,3,,,,,,,,,2,,,29,0
154800,note_on,0,0,3,,,,,,,,,2,,,41,62
154800,note_off,120,0,3,,,,,,,,,2,,,36,0
154920,note_off,120,0,3,,,,,,,,,2,,,41,0
154920,note_on,0,0,3,,,,,,,,,2,,,36,62
154920,note_off,360,0,5,,,,,,,,,4,,,57,0
154920,note_off,360,0,4,,,,,,,,,3,,,53,0
155040,note_off,0,0,2,,,,,,,,,1,,,65,0
155040,note_on,0,0,1,,,,,,,,,0,,,77,72
155040,note_on,0,0,1,,,,,,,,,0,,,65,72
155040,note_off,1440,0,1,,,,,,,,,0,,,69,0
155040,note_off,1440,0,2,,,,,,,,,1,,,77,0
155040,note_off,0,0,1,,,,,,,,,0,,,81,0
155040,control_change,120,0,3,,,,,,,64,0,2,,,,
155040,note_off,0,0,3,,,,,,,,,2,,,36,0
155040,note_on,0,0,3,,,,,,,,,2,,,29,62
155080,control_change,40,0,3,,,,,,,64,127,2,,,,
155160,note_on,0,0,3,,,,,,,,,2,,,36,62
155160,note_off,80,0,3,,,,,,,,,2,,,29,0
155274,note_off,0,0,1,,,,,,,,,0,,,77,0
155274,note_off,234,0,1,,,,,,,,,0,,,65,0
155280,note_off,120,0,3,,,,,,,,,2,,,36,0
155280,note_on,0,0,3,,,,,,,,,2,,,41,62
155400,note_on,0,0,3,,,,,,,,,2,,,36,63
155400,note_on,360,0,2,,,,,,,,,1,,,76,73
155400,note_on,126,0,1,,,,,,,,,0,,,67,73
155400,note_off,120,0,3,,,,,,,,,2,,,41,0
155400,note_on,0,0,2,,,,,,,,,1,,,64,73
155400,note_on,0,0,1,,,,,,,,,0,,,79,73
155467,set_tempo,907,1,0,,,,,,517241,,,,,,,
155478,note_off,0,0,1,,,,,,,,,0,,,67,0
155478,note_off,78,0,1,,,,,,,,,0,,,79,0
155478,note_off,78,0,2,,,,,,,,,1,,,64,0
155478,note_off,0,0,2,,,,,,,,,1,,,76,0
155520,note_off,0,0,3,,,,,,,,,2,,,36,0
155520,note_on,0,0,3,,,,,,,,,2,,,29,63
155520,set_tempo,53,1,0,,,,,,508474,,,,,,,
155520,control_change,120,0,3,,,,,,,64,0,2,,,,
155520,note_on,42,0,1,,,,,,,,,0,,,81,74
155520,note_on,0,0,1,,,,,,,,,0,,,69,74
155520,note_on,42,0,2,,,,,,,,,1,,,65,74
155520,note_on,0,0,2,,,,,,,,,1,,,77,74
155560,control_change,40,0,3,,,,,,,64,127,2,,,,
155640,note_on,0,0,3,,,,,,,,,2,,,36,63
155640,note_off,80,0,3,,,,,,,,,2,,,29,0
155760,note_off,120,0,3,,,,,,,,,2,,,36,0
155760,note_on,0,0,3,,,,,,,,,2,,,41,63
155880,note_off,360,0,2,,,,,,,,,1,,,77,0
155880,note_off,0,0,2,,,,,,,,,1,,,65,0
155880,note_off,0,0,1,,,,,,,,,0,,,81,0
155880,note_off,360,0,1,,,,,,,,,0,,,69,0
155880,note_off,120,0,3,,,,,,,,,2,,,41,0
155880,note_on,0,0,3,,,,,,,,,2,,,36,63
156000,note_on,0,0,1,,,,,,,,,0,,,77,75
156000,note_on,120,0,1,,,,,,,,,0,,,65,75
156000,note_on,0,0,3,,,,,,,,,2,,,29,64
156000,note_on,1080,0,5,,,,,,,,,4,,,53,75
156000,note_off,0,0,3,,,,,,,,,2,,,36,0
156000,note_on,1080,0,4,,,,,,,,,3,,,45,75
156000,control_change,120,0,3,,,,,,,64,0,2,,,,
156040,control_change,40,0,3,,,,,,,64,127,2,,,,
156120,note_on,0,0,3,,,,,,,,,2,,,36,64
156120,note_off,80,0,3,,,,,,,,,2,,,29,0
156234,note_off,234,0,1,,,,,,,,,0,,,77,0
156234,note_off,234,0,4,,,,,,,,,3,,,45,0
156234,note_off,0,0,1,,,,,,,,,0,,,65,0
156234,note_off,234,0,5,,,,,,,,,4,,,53,0
156240,note_off,120,0,3,,,,,,,,,2,,,36,0
156240,note_on,0,0,3,,,,,,,,,2,,,41,64
156360,note_on,126,0,5,,,,,,,,,4,,,55,76
156360,note_off,120,0,3,,,,,,,,,2,,,41,0
156360,note_on,0,0,3,,,,,,,,,2,,,36,64
156360,note_on,0,0,1,,,,,,,,,0,,,67,76
156360,note_on,0,0,2,,,,,,,,,1,,,76,76
156360,note_on,480,0,2,,,,,,,,,1,,,64,76
156360,note_on,126,0,4,,,,,,,,,3,,,48,76
156360,note_on,126,0,1,,,,,,,,,0,,,79,76
156420,set_tempo,900,1,0,,,,,,517241,,,,,,,
156438,note_off,0,0,1,,,,,,,,,0,,,79,0
156438,note_off,78,0,1,,,,,,,,,0,,,67,0
156438,note_off,0,0,2,,,,,,,,,1,,,64,0
156438,note_off,78,0,2,,,,,,,,,1,,,76,0
156438,note_off,78,0,5,,,,,,,,,4,,,55,0
156438,note_off,78,0,4,,,,,,,,,3,,,48,0
156480,note_on,42,0,1,,,,,,,,,0,,,69,76
156480,note_on,0,0,3,,,,,,,,,2,,,29,64
156480,note_off,0,0,3,,,,,,,,,2,,,36,0
156480,control_change,120,0,3,,,,,,,64,0,2,,,,
156480,note_on,42,0,4,,,,,,,,,3,,,53,76
156480,note_on,0,0,1,,,,,,,,,0,,,81,76
156480,set_tempo,60,1,0,,,,,,508474,,,,,,,
156480,note_on,0,0,2,,,,,,,,,1,,,65,76
156480,note_on,42,0,2,,,,,,,,,1,,,77,76
156480,note_on,42,0,5,,,,,,,,,4,,,57,76
156520,control_change,40,0,3,,,,,,,64,127,2,,,,
156600,note_on,0,0,3,,,,,,,,,2,,,36,65
156600,note_off,80,0,3,,,,,,,,,2,,,29,0
156720,note_on,0,0,3,,,,,,,,,2,,,41,65
156720,note_off,120,0,3,,,,,,,,,2,,,36,0
156840,note_on,0,0,3,,,,,,,,,2,,,36,65
156840,note_off,360,0,4,,,,,,,,,3,,,53,0
156840,note_off,360,0,1,,,,,,,,,0,,,81,0
156840,note_off,360,0,5,,,,,,,,,4,,,57,0
156840,note_off,0,0,2,,,,,,,,,1,,,77,0
156840,note_off,360,0,2,,,,,,,,,1,,,65,0
156840,note_off,120,0,3,,,,,,,,,2,,,41,0
156840,note_off,0,0,1,,,,,,,,,0,,,69,0
156960,note_off,0,0,3,,,,,,,,,2,,,36,0
156960,note_on,0,0,3,,,,,,,,,2,,,29,65
156960,note_on,120,0,4,,,,,,,,,3,,,45,77
156960,note_on,120,0,1,,,,,,,,,0,,,65,77
156960,control_change,120,0,3,,,,,,,64,0,2,,,,
156960,note_on,120,0,5,,,,,,,,,4,,,53,77
156960,note_on,0,0,1,,,,,,,,,0,,,77,77
157000,control_change,40,0,3,,,,,,,64,127,2,,,,
157080,note_on,0,0,3,,,,,,,,,2,,,36,65
157080,note_off,80,0,3,,,,,,,,,2,,,29,0
157194,note_off,234,0,4,,,,,,,,,3,,,45,0
157194,note_off,234,0,5,,,,,,,,,4,,,53,0
157194,note_off,0,0,1,,,,,,,,,0,,,65,0
157194,note_off,234,0,1,,,,,,,,,0,,,77,0
157200,note_on,0,0,3,,,,,,,,,2,,,41,66
157200,note_off,120,0,3,,,,,,,,,2,,,36,0
157320,note_on,126,0,5,,,,,,,,,4,,,55,83
157320,note_on,126,0,4,,,,,,,,,3,,,48,83
157320,note_on,126,0,1,,,,,,,,,0,,,79,83
157320,note_on,0,0,2,,,,,,,,,1,,,76,83
157320,note_on,480,0,2,,,,,,,,,1,,,64,83
157320,note_on,0,0,1,,,,,,,,,0,,,67,83
157320,note_on,0,0,3,,,,,,,,,2,,,36,66
157320,note_off,120,0,3,,,,,,,,,2,,,41,0
157387,set_tempo,907,1,0,,,,,,517241,,,,,,,
157398,note_off,78,0,5,,,,,,,,,4,,,55,0
157398,note_off,78,0,2,,,,,,,,,1,,,76,0
157398,note_off,0,0,2,,,,,,,,,1,,,64,0
157398,note_off,78,0,4,,,,,,,,,3,,,48,0
157398,note_off,78,0,1,,,,,,,,,0,,,67,0
157398,note_off,0,0,1,,,,,,,,,0,,,79,0
157440,note_on,0,0,1,,,,,,,,,0,,,81,86
157440,set_tempo,53,1,0,,,,,,508474,,,,,,,
157440,note_on,42,0,4,,,,,,,,,3,,,53,86
157440,note_off,0,0,3,,,,,,,,,2,,,36,0
157440,note_on,0,0,2,,,,,,,,,1,,,65,86
157440,note_on,42,0,2,,,,,,,,,1,,,77,86
157440,note_on,42,0,5,,,,,,,,,4,,,57,86
157440,note_on,42,0,1,,,,,,,,,0,,,69,86
157440,control_change,120,0,3,,,,,,,64,0,2,,,,
157800,note_off,360,0,4,,,,,,,,,3,,,53,0
157800,note_off,0,0,1,,,,,,,,,0,,,69,0
157800,note_off,360,0,1,,,,,,,,,0,,,81,0
157800,note_off,0,0,2,,,,,,,,,1,,,77,0
157800,note_off,360,0,2,,,,,,,,,1,,,65,0
157800,note_off,360,0,5,,,,,,,,,4,,,57,0
157860,set_tempo,420,1,0,,,,,,517241,,,,,,,
157920,note_on,120,0,1,,,,,,,,,0,,,62,79
157920,set_tempo,60,1,0,,,,,,508474,,,,,,,
157920,note_on,0,0,5,,,,,,,,,4,,,50,79
157920,note_on,0,0,1,,,,,,,,,0,,,74,79
157920,note_on,120,0,5,,,,,,,,,4,,,38,79
158154,note_off,234,0,1,,,,,,,,,0,,,74,0
158154,note_off,0,0,1,,,,,,,,,0,,,62,0
158154,note_off,234,0,5,,,,,,,,,4,,,50,0
158154,note_off,0,0,5,,,,,,,,,4,,,38,0
158280,note_on,126,0,1,,,,,,,,,0,,,64,81
158280,note_on,0,0,1,,,,,,,,,0,,,76,81
158280,note_on,126,0,5,,,,,,,,,4,,,40,81
158280,note_on,0,0,5,,,,,,,,,4,,,52,81
158340,set_tempo,420,1,0,,,,,,517241,,,,,,,
158358,note_off,78,0,1,,,,,,,,,0,,,76,0
158358,note_off,0,0,5,,,,,,,,,4,,,40,0
158358,note_off,0,0,1,,,,,,,,,0,,,64,0
158358,note_off,78,0,5,,,,,,,,,4,,,52,0
158400,set_tempo,60,1,0,,,,,,508474,,,,,,,
158400,note_on,42,0,5,,,,,,,,,4,,,41,86
158400,note_on,42,0,1,,,,,,,,,0,,,65,86
158400,note_on,0,0,1,,,,,,,,,0,,,77,86
158400,note_on,0,0,5,,,,,,,,,4,,,53,86
158760,note_off,360,0,1,,,,,,,,,0,,,77,0
158760,note_off,0,0,1,,,,,,,,,0,,,65,0
158760,note_off,360,0,5,,,,,,,,,4,,,53,0
158760,note_off,0,0,5,,,,,,,,,4,,,41,0
158812,set_tempo,412,1,0,,,,,,517241,,,,,,,
158880,note_on,0,0,1,,,,,,,,,0,,,59,79
158880,note_on,120,0,5,,,,,,,,,4,,,47,79
158880,note_on,120,0,1,,,,,,,,,0,,,71,79
158880,set_tempo,68,1,0,,,,,,508474,,,,,,,
158880,note_on,0,0,5,,,,,,,,,4,,,35,79
159114,note_off,234,0,5,,,,,,,,,4,,,35,0
159114,note_off,234,0,1,,,,,,,,,0,,,59,0
159114,note_off,0,0,5,,,,,,,,,4,,,47,0
159114,note_off,0,0,1,,,,,,,,,0,,,71,0
159240,note_on,126,0,5,,,,,,,,,4,,,36,82
159240,note_on,0,0,1,,,,,,,,,0,,,72,82
159240,note_on,126,0,1,,,,,,,,,0,,,60,82
159240,note_on,0,0,5,,,,,,,,,4,,,48,82
159300,set_tempo,420,1,0,,,,,,517241,,,,,,,
159318,note_off,78,0,1,,,,,,,,,0,,,72,0
159318,note_off,0,0,1,,,,,,,,,0,,,60,0
159318,note_off,78,0,5,,,,,,,,,4,,,48,0
159318,note_off,0,0,5,,,,,,,,,4,,,36,0
159360,note_on,0,0,3,,,,,,,,,2,,,50,81
159360,control_change,1920,0,3,,,,,,,64,0,2,,,,
159360,note_on,42,0,5,,,,,,,,,4,,,38,83
159360,set_tempo,60,1,0,,,,,,508474,,,,,,,
159360,note_on,0,0,1,,,,,,,,,0,,,74,83
159360,note_on,42,0,1,,,,,,,,,0,,,62,83
159400,control_change,40,0,3,,,,,,,64,127,2,,,,
159480,note_on,0,0,3,,,,,,,,,2,,,47,80
159480,note_off,80,0,3,,,,,,,,,2,,,50,0
159600,note_on,0,0,3,,,,,,,,,2,,,50,79
159600,note_off,120,0,3,,,,,,,,,2,,,47,0
159720,note_off,120,0,3,,,,,,,,,2,,,50,0
159720,note_off,360,0,5,,,,,,,,,4,,,38,0
159720,note_off,360,0,1,,,,,,,,,0,,,74,0
159720,note_off,0,0,1,,,,,,,,,0,,,62,0
159720,set_tempo,360,1,0,,,,,,517241,,,,,,,
159720,note_on,0,0,3,,,,,,,,,2,,,47,78
159840,set_tempo,120,1,0,,,,,,508474,,,,,,,
159840,control_change,120,0,3,,,,,,,64,0,2,,,,
159840,note_off,0,0,3,,,,,,,,,2,,,47,0
159840,note_on,0,0,3,,,,,,,,,2,,,43,77
159840,note_on,0,0,2,,,,,,,,,1,,,67,80
159840,note_on,2040,0,2,,,,,,,,,1,,,55,80
159840,note_on,120,0,5,,,,,,,,,4,,,31,80
159880,control_change,40,0,3,,,,,,,64,127,2,,,,
159960,note_on,0,0,3,,,,,,,,,2,,,47,77
159960,note_off,80,0,3,,,,,,,,,2,,,43,0
160074,note_off,0,0,2,,,,,,,,,1,,,55,0
160074,note_off,234,0,2,,,,,,,,,1,,,67,0
160080,note_off,120,0,3,,,,,,,,,2,,,47,0
160080,note_on,0,0,3,,,,,,,,,2,,,50,76
160200,note_off,360,0,5,,,,,,,,,4,,,31,0
160200,note_off,120,0,3,,,,,,,,,2,,,50,0
160200,note_on,126,0,2,,,,,,,,,1,,,55,78
160200,note_on,0,0,2,,,,,,,,,1,,,67,78
160200,note_on,0,0,3,,,,,,,,,2,,,47,75
160260,set_tempo,420,1,0,,,,,,517241,,,,,,,
160278,note_off,0,0,2,,,,,,,,,1,,,55,0
160278,note_off,78,0,2,,,,,,,,,1,,,67,0
160320,note_on,0,0,2,,,,,,,,,1,,,67,78
160320,note_on,42,0,2,,,,,,,,,1,,,55,78
160320,control_change,120,0,3,,,,,,,64,0,2,,,,
160320,note_on,0,0,3,,,,,,,,,2,,,43,74
160320,note_off,0,0,3,,,,,,,,,2,,,47,0
160328,set_tempo,68,1,0,,,,,,508474,,,,,,,
160360,control_change,40,0,3,,,,,,,64,127,2,,,,
160440,note_off,80,0,3,,,,,,,,,2,,,43,0
160440,note_on,0,0,3,,,,,,,,,2,,,47,75
160560,note_off,120,0,3,,,,,,,,,2,,,47,0
160560,note_on,0,0,3,,,,,,,,,2,,,50,76
160680,note_on,0,0,3,,,,,,,,,2,,,47,77
160680,note_off,0,0,2,,,,,,,,,1,,,55,0
160680,note_off,120,0,3,,,,,,,,,2,,,50,0
160680,note_off,360,0,2,,,,,,,,,1,,,67,0
160680,set_tempo,352,1,0,,,,,,517241,,,,,,,
160800,note_on,0,0,3,,,,,,,,,2,,,43,79
160800,control_change,120,0,3,,,,,,,64,0,2,,,,
160800,note_on,120,0,2,,,,,,,,,1,,,55,83
160800,note_on,0,0,2,,,,,,,,,1,,,71,83
160800,note_on,600,0,5,,,,,,,,,4,,,31,83
160800,note_on,1080,0,1,,,,,,,,,0,,,74,83
160800,note_off,0,0,3,,,,,,,,,2,,,47,0
160800,note_on,0,0,1,,,,,,,,,0,,,62,83
160840,control_change,40,0,3,,,,,,,64,127,2,,,,
160920,note_on,0,0,3,,,,,,,,,2,,,47,80
160920,note_off,80,0,3,,,,,,,,,2,,,43,0
161034,note_off,234,0,5,,,,,,,,,4,,,31,0
161040,note_on,0,0,3,,,,,,,,,2,,,50,81
161040,note_off,120,0,3,,,,,,,,,2,,,47,0
161160,note_off,0,0,1,,,,,,,,,0,,,74,0
161160,note_off,360,0,1,,,,,,,,,0,,,62,0
161160,set_tempo,480,1,0,,,,,,526315,,,,,,,
161160,note_off,120,0,3,,,,,,,,,2,,,50,0
161160,note_on,0,0,3,,,,,,,,,2,,,47,83
161160,note_on,126,0,5,,,,,,,,,4,,,31,86
161160,note_off,360,0,2,,,,,,,,,1,,,71,0
161160,note_off,0,0,2,,,,,,,,,1,,,55,0
161238,note_off,78,0,5,,,,,,,,,4,,,31,0
161280,control_change,120,0,3,,,,,,,64,0,2,,,,
161280,note_off,0,0,3,,,,,,,,,2,,,47,0
161280,note_on,0,0,3,,,,,,,,,2,,,43,89
161280,note_on,120,0,2,,,,,,,,,1,,,60,92
161280,note_on,120,0,1,,,,,,,,,0,,,76,92
161280,note_on,42,0,5,,,,,,,,,4,,,36,92
161280,note_on,0,0,1,,,,,,,,,0,,,64,92
161280,set_tempo,120,1,0,,,,,,508474,,,,,,,
161280,note_on,0,0,2,,,,,,,,,1,,,72,92
161320,control_change,40,0,3,,,,,,,64,127,2,,,,
161400,note_on,0,0,3,,,,,,,,,2,,,48,89
161400,note_off,80,0,3,,,,,,,,,2,,,43,0
161520,note_on,0,0,3,,,,,,,,,2,,,52,88
161520,note_off,120,0,3,,,,,,,,,2,,,48,0
161640,note_on,0,0,3,,,,,,,,,2,,,48,88
161640,note_off,120,0,3,,,,,,,,,2,,,52,0
161640,note_off,360,0,5,,,,,,,,,4,,,36,0
161760,note_on,120,0,5,,,,,,,,,4,,,36,90
161760,control_change,120,0,3,,,,,,,64,0,2,,,,
161760,note_off,0,0,3,,,,,,,,,2,,,48,0
161760,note_on,0,0,3,,,,,,,,,2,,,43,88
161800,control_change,40,0,3,,,,,,,64,127,2,,,,
161880,note_off,80,0,3,,,,,,,,,2,,,43,0
161880,note_on,0,0,3,,,,,,,,,2,,,48,87
162000,note_on,0,0,3,,,,,,,,,2,,,52,87
162000,note_off,120,0,3,,,,,,,,,2,,,48,0
162000,note_on,0,0,1,,,,,,,,,0,,,74,90
162000,note_on,0,0,2,,,,,,,,,1,,,71,90
162000,note_on,0,0,2,,,,,,,,,1,,,59,90
162000,note_off,0,0,2,,,,,,,,,1,,,60,0
162000,note_off,720,0,2,,,,,,,,,1,,,72,0
162000,note_off,720,0,1,,,,,,,,,0,,,64,0
162000,note_off,0,0,1,,,,,,,,,0,,,76,0
162000,note_on,0,0,1,,,,,,,,,0,,,62,90
162120,note_on,0,0,3,,,,,,,,,2,,,48,87
162120,note_off,120,0,3,,,,,,,,,2,,,52,0
162120,note_off,360,0,5,,,,,,,,,4,,,36,0
162240,note_off,0,0,2,,,,,,,,,1,,,59,0
162240,note_off,240,0,2,,,,,,,,,1,,,71,0
162240,note_on,0,0,2,,,,,,,,,1,,,52,89
162240,control_change,120,0,3,,,,,,,64,0,2,,,,
162240,note_off,0,0,3,,,,,,,,,2,,,48,0
162240,note_on,0,0,1,,,,,,,,,0,,,60,89
162240,note_on,0,0,1,,,,,,,,,0,,,72,89
162240,note_off,0,0,1,,,,,,,,,0,,,74,0
162240,note_off,240,0,1,,,,,,,,,0,,,62,0
162240,note_on,0,0,2,,,,,,,,,1,,,67,89
162240,note_on,0,0,3,,,,,,,,,2,,,43,86
162280,control_change,40,0,3,,,,,,,64,127,2,,,,
162360,note_off,80,0,3,,,,,,,,,2,,,43,0
162360,note_on,0,0,3,,,,,,,,,2,,,48,86
162480,note_off,120,0,3,,,,,,,,,2,,,48,0
162480,note_on,0,0,2,,,,,,,,,1,,,72,88
162480,note_off,0,0,2,,,,,,,,,1,,,67,0
162480,note_off,240,0,2,,,,,,,,,1,,,52,0
162480,note_on,0,0,3,,,,,,,,,2,,,52,85
162480,note_on,0,0,2,,,,,,,,,1,,,60,88
162480,note_on,0,0,1,,,,,,,,,0,,,64,88
162480,note_on,0,0,1,,,,,,,,,0,,,76,88
162480,note_off,0,0,1,,,,,,,,,0,,,72,0
162480,note_off,240,0,1,,,,,,,,,0,,,60,0
162600,note_on,0,0,3,,,,,,,,,2,,,48,85
162600,note_off,120,0,3,,,,,,,,,2,,,52,0
162636,note_off,156,0,1,,,,,,,,,0,,,64,0
162636,note_off,156,0,2,,,,,,,,,1,,,72,0
162636,note_off,0,0,2,,,,,,,,,1,,,60,0
162636,note_off,0,0,1,,,,,,,,,0,,,76,0
162720,note_on,84,0,1,,,,,,,,,0,,,79,88
162720,note_on,0,0,3,,,,,,,,,2,,,43,85
162720,control_change,120,0,3,,,,,,,64,0,2,,,,
162720,note_on,84,0,2,,,,,,,,,1,,,64,88
162720,note_on,0,0,2,,,,,,,,,1,,,76,88
162720,note_on,600,0,5,,,,,,,,,4,,,36,88
162720,note_on,0,0,1,,,,,,,,,0,,,67,88
162720,note_off,0,0,3,,,,,,,,,2,,,48,0
162760,control_change,40,0,3,,,,,,,64,127,2,,,,
162840,note_off,80,0,3,,,,,,,,,2,,,43,0
162840,note_on,0,0,3,,,,,,,,,2,,,48,84
162876,note_off,0,0,1,,,,,,,,,0,,,79,0
162876,note_off,156,0,1,,,,,,,,,0,,,67,0
162876,note_off,0,0,2,,,,,,,,,1,,,64,0
162876,note_off,156,0,2,,,,,,,,,1,,,76,0
162954,note_off,234,0,5,,,,,,,,,4,,,36,0
162960,note_on,0,0,2,,,,,,,,,1,,,72,87
162960,note_on,0,0,1,,,,,,,,,0,,,64,87
162960,note_off,120,0,3,,,,,,,,,2,,,48,0
162960,note_on,0,0,3,,,,,,,,,2,,,52,84
162960,note_on,84,0,2,,,,,,,,,1,,,60,87
162960,note_on,84,0,1,,,,,,,,,0,,,76,87
163080,note_on,126,0,5,,,,,,,,,4,,,36,87
163080,note_on,0,0,3,,,,,,,,,2,,,48,83
163080,note_off,120,0,3,,,,,,,,,2,,,52,0
163116,note_off,156,0,1,,,,,,,,,0,,,64,0
163116,note_off,156,0,2,,,,,,,,,1,,,72,0
163116,note_off,0,0,2,,,,,,,,,1,,,60,0
163116,note_off,0,0,1,,,,,,,,,0,,,76,0
163158,note_off,78,0,5,,,,,,,,,4,,,36,0
163200,note_on,0,0,3,,,,,,,,,2,,,43,83
163200,note_off,0,0,3,,,,,,,,,2,,,48,0
163200,control_change,120,0,3,,,,,,,64,0,2,,,,
163200,note_on,84,0,2,,,,,,,,,1,,,59,86
163200,note_on,0,0,2,,,,,,,,,1,,,71,86
163200,note_on,84,0,1,,,,,,,,,0,,,74,86
163200,note_on,0,0,1,,,,,,,,,0,,,62,86
163200,note_on,42,0,5,,,,,,,,,4,,,31,86
163240,control_change,40,0,3,,,,,,,64,127,2,,,,
163320,note_on,0,0,3,,,,,,,,,2,,,47,83
163320,note_off,80,0,3,,,,,,,,,2,,,43,0
163440,note_on,0,0,3,,,,,,,,,2,,,50,82
163440,note_off,120,0,3,,,,,,,,,2,,,47,0
163560,note_off,120,0,3,,,,,,,,,2,,,50,0
163560,note_on,0,0,3,,,,,,,,,2,,,47,82
163560,note_off,360,0,2,,,,,,,,,1,,,71,0
163560,note_off,0,0,2,,,,,,,,,1,,,59,0
163560,note_off,360,0,5,,,,,,,,,4,,,31,0
163560,note_off,360,0,1,,,,,,,,,0,,,62,0
163560,note_off,0,0,1,,,,,,,,,0,,,74,0
163680,note_on,0,0,3,,,,,,,,,2,,,43,81
163680,note_off,0,0,3,,,,,,,,,2,,,47,0
163680,note_on,0,0,2,,,,,,,,,1,,,55,85
163680,note_on,120,0,2,,,,,,,,,1,,,67,85
163680,control_change,120,0,3,,,,,,,64,0,2,,,,
163680,note_on,120,0,5,,,,,,,,,4,,,31,85
163720,control_change,40,0,3,,,,,,,64,127,2,,,,
163800,note_off,80,0,3,,,,,,,,,2,,,43,0
163800,note_on,0,0,3,,,,,,,,,2,,,47,81
163914,note_off,234,0,2,,,,,,,,,1,,,55,0
163914,note_off,0,0,2,,,,,,,,,1,,,67,0
163920,note_off,120,0,3,,,,,,,,,2,,,47,0
163920,note_on,0,0,3,,,,,,,,,2,,,50,81
164040,note_on,0,0,3,,,,,,,,,2,,,47,80
164040,note_off,120,0,3,,,,,,,,,2,,,50,0
164040,note_on,126,0,2,,,,,,,,,1,,,67,84
164040,note_on,0,0,2,,,,,,,,,1,,,55,84
164040,note_off,360,0,5,,,,,,,,,4,,,31,0
164100,set_tempo,2820,1,0,,,,,,517241,,,,,,,
164118,note_off,78,0,2,,,,,,,,,1,,,55,0
164118,note_off,0,0,2,,,,,,,,,1,,,67,0
164160,set_tempo,60,1,0,,,,,,508474,,,,,,,
164160,note_on,42,0,2,,,,,,,,,1,,,55,84
164160,note_on,0,0,2,,,,,,,,,1,,,67,84
164160,control_change,120,0,3,,,,,,,64,0,2,,,,
164160,note_off,0,0,3,,,,,,,,,2,,,47,0
164160,note_on,0,0,3,,,,,,,,,2,,,43,78
164200,control_change,40,0,3,,,,,,,64,127,2,,,,
164280,note_on,0,0,3,,,,,,,,,2,,,47,80
164280,note_off,80,0,3,,,,,,,,,2,,,43,0
164400,note_off,120,0,3,,,,,,,,,2,,,47,0
164400,note_on,0,0,3,,,,,,,,,2,,,50,81
164520,note_off,120,0,3,,,,,,,,,2,,,50,0
164520,set_tempo,360,1,0,,,,,,517241,,,,,,,
164520,note_off,0,0,2,,,,,,,,,1,,,55,0
164520,note_off,360,0,2,,,,,,,,,1,,,67,0
164520,note_on,0,0,3,,,,,,,,,2,,,47,82
164640,control_change,120,0,3,,,,,,,64,0,2,,,,
164640,note_on,600,0,5,,,,,,,,,4,,,31,89
164640,set_tempo,120,1,0,,,,,,508474,,,,,,,
164640,note_on,0,0,1,,,,,,,,,0,,,74,89
164640,note_on,1080,0,1,,,,,,,,,0,,,62,89
164640,note_on,0,0,3,,,,,,,,,2,,,43,84
164640,note_off,0,0,3,,,,,,,,,2,,,47,0
164640,note_on,120,0,2,,,,,,,,,1,,,71,89
164640,note_on,0,0,2,,,,,,,,,1,,,55,89
164680,control_change,40,0,3,,,,,,,64,127,2,,,,
164760,note_off,80,0,3,,,,,,,,,2,,,43,0
164760,note_on,0,0,3,,,,,,,,,2,,,47,85
164874,note_off,234,0,5,,,,,,,,,4,,,31,0
164880,note_off,120,0,3,,,,,,,,,2,,,47,0
164880,note_on,0,0,3,,,,,,,,,2,,,50,87
165000,set_tempo,360,1,0,,,,,,517241,,,,,,,
165000,note_on,0,0,3,,,,,,,,,2,,,47,88
165000,note_off,360,0,2,,,,,,,,,1,,,55,0
165000,note_off,120,0,3,,,,,,,,,2,,,50,0
165000,note_off,0,0,2,,,,,,,,,1,,,71,0
165000,note_on,126,0,5,,,,,,,,,4,,,31,93
165000,note_off,0,0,1,,,,,,,,,0,,,62,0
165000,note_off,360,0,1,,,,,,,,,0,,,74,0
165078,note_off,78,0,5,,,,,,,,,4,,,31,0
165120,note_on,120,0,2,,,,,,,,,1,,,72,99
165120,note_on,0,0,1,,,,,,,,,0,,,76,99
165120,note_on,0,0,3,,,,,,,,,2,,,43,91
165120,note_off,0,0,3,,,,,,,,,2,,,47,0
165120,control_change,120,0,3,,,,,,,64,0,2,,,,
165120,note_on,120,0,1,,,,,,,,,0,,,64,99
165120,note_on,42,0,5,,,,,,,,,4,,,36,99
165120,set_tempo,120,1,0,,,,,,508474,,,,,,,
165120,note_on,0,0,2,,,,,,,,,1,,,60,99
165160,control_change,40,0,3,,,,,,,64,127,2,,,,
165240,note_on,0,0,3,,,,,,,,,2,,,48,91
165240,note_off,80,0,3,,,,,,,,,2,,,43,0
165360,note_off,120,0,3,,,,,,,,,2,,,48,0
165360,note_on,0,0,3,,,,,,,,,2,,,52,91
165480,note_on,0,0,3,,,,,,,,,2,,,48,90
165480,note_off,120,0,3,,,,,,,,,2,,,52,0
165480,note_off,360,0,5,,,,,,,,,4,,,36,0
165600,control_change,120,0,3,,,,,,,64,0,2,,,,
165600,note_off,0,0,3,,,,,,,,,2,,,48,0
165600,note_on,0,0,3,,,,,,,,,2,,,43,90
165600,note_on,120,0,5,,,,,,,,,4,,,36,97
165640,control_change,40,0,3,,,,,,,64,127,2,,,,
165720,note_off,80,0,3,,,,,,,,,2,,,43,0
165720,note_on,0,0,3,,,,,,,,,2,,,48,90
165840,note_off,720,0,2,,,,,,,,,1,,,60,0
165840,note_on,0,0,2,,,,,,,,,1,,,59,96
165840,note_on,0,0,2,,,,,,,,,1,,,71,96
165840,note_off,720,0,1,,,,,,,,,0,,,76,0
165840,note_off,0,0,1,,,,,,,,,0,,,64,0
165840,note_on,0,0,1,,,,,,,,,0,,,62,96
165840,note_on,0,0,1,,,,,,,,,0,,,74,96
165840,note_off,120,0,3,,,,,,,,,2,,,48,0
165840,note_on,0,0,3,,,,,,,,,2,,,52,89
165840,note_off,0,0,2,,,,,,,,,1,,,72,0
165960,note_off,120,0,3,,,,,,,,,2,,,52,0
165960,note_off,360,0,5,,,,,,,,,4,,,36,0
165960,note_on,0,0,3,,,,,,,,,2,,,48,89
166080,control_change,120,0,3,,,,,,,64,0,2,,,,
166080,note_off,0,0,3,,,,,,,,,2,,,48,0
166080,note_on,0,0,3,,,,,,,,,2,,,43,89
166080,note_on,0,0,1,,,,,,,,,0,,,72,96
166080,note_on,0,0,2,,,,,,,,,1,,,52,96
166080,note_on,0,0,2,,,,,,,,,1,,,67,96
166080,note_off,0,0,2,,,,,,,,,1,,,71,0
166080,note_off,240,0,1,,,,,,,,,0,,,74,0
166080,note_off,0,0,1,,,,,,,,,0,,,62,0
166080,note_on,0,0,1,,,,,,,,,0,,,60,96
166080,note_off,240,0,2,,,,,,,,,1,,,59,0
166120,control_change,40,0,3,,,,,,,64,127,2,,,,
166200,note_on,0,0,3,,,,,,,,,2,,,48,88
166200,note_off,80,0,3,,,,,,,,,2,,,43,0
166320,note_off,120,0,3,,,,,,,,,2,,,48,0
166320,note_on,0,0,3,,,,,,,,,2,,,52,88
166320,note_off,240,0,1,,,,,,,,,0,,,72,0
166320,note_off,0,0,1,,,,,,,,,0,,,60,0
166320,note_on,0,0,2,,,,,,,,,1,,,72,95
166320,note_on,0,0,2,,,,,,,,,1,,,60,95
166320,note_off,0,0,2,,,,,,,,,1,,,67,0
166320,note_off,240,0,2,,,,,,,,,1,,,52,0
166320,note_on,0,0,1,,,,,,,,,0,,,64,95
166320,note_on,0,0,1,,,,,,,,,0,,,76,95
166440,note_on,0,0,3,,,,,,,,,2,,,48,87
166440,note_off,120,0,3,,,,,,,,,2,,,52,0
166476,note_off,156,0,2,,,,,,,,,1,,,60,0
166476,note_off,0,0,1,,,,,,,,,0,,,64,0
166476,note_off,156,0,1,,,,,,,,,0,,,76,0
166476,note_off,0,0,2,,,,,,,,,1,,,72,0
166560,note_on,0,0,2,,,,,,,,,1,,,64,95
166560,note_on,84,0,1,,,,,,,,,0,,,67,95
166560,note_on,0,0,1,,,,,,,,,0,,,79,95
166560,note_on,84,0,2,,,,,,,,,1,,,76,95
166560,control_change,120,0,3,,,,,,,64,0,2,,,,
166560,note_off,0,0,3,,,,,,,,,2,,,48,0
166560,note_on,0,0,3,,,,,,,,,2,,,43,87
166560,note_on,600,0,5,,,,,,,,,4,,,36,95
166600,control_change,40,0,3,,,,,,,64,127,2,,,,
166680,note_on,0,0,3,,,,,,,,,2,,,48,87
166680,note_off,80,0,3,,,,,,,,,2,,,43,0
166716,note_off,0,0,1,,,,,,,,,0,,,67,0
166716,note_off,156,0,1,,,,,,,,,0,,,79,0
166716,note_off,156,0,2,,,,,,,,,1,,,64,0
166716,note_off,0,0,2,,,,,,,,,1,,,76,0
166794,note_off,234,0,5,,,,,,,,,4,,,36,0
166800,note_on,0,0,1,,,,,,,,,0,,,76,94
166800,note_on,0,0,3,,,,,,,,,2,,,52,86
166800,note_off,120,0,3,,,,,,,,,2,,,48,0
166800,note_on,84,0,2,,,,,,,,,1,,,72,94
166800,note_on,84,0,1,,,,,,,,,0,,,64,94
166800,note_on,0,0,2,,,,,,,,,1,,,60,94
166920,note_on,0,0,3,,,,,,,,,2,,,48,86
166920,note_off,120,0,3,,,,,,,,,2,,,52,0
166920,note_on,126,0,5,,,,,,,,,4,,,36,94
166956,note_off,156,0,2,,,,,,,,,1,,,60,0
166956,note_off,0,0,2,,,,,,,,,1,,,72,0
166956,note_off,0,0,1,,,,,,,,,0,,,64,0
166956,note_off,156,0,1,,,,,,,,,0,,,76,0
166998,note_off,78,0,5,,,,,,,,,4,,,36,0
167040,note_on,0,0,1,,,,,,,,,0,,,74,97
167040,note_on,84,0,1,,,,,,,,,0,,,62,97
167040,note_on,42,0,5,,,,,,,,,4,,,31,97
167040,note_on,0,0,2,,,,,,,,,1,,,59,97
167040,note_off,0,0,3,,,,,,,,,2,,,48,0
167040,control_change,120,0,3,,,,,,,64,0,2,,,,
167040,note_on,84,0,2,,,,,,,,,1,,,71,97
167400,note_off,360,0,5,,,,,,,,,4,,,31,0
167400,set_tempo,2280,1,0,,,,,,517241,,,,,,,
167400,note_off,360,0,1,,,,,,,,,0,,,74,0
167400,note_off,0,0,1,,,,,,,,,0,,,62,0
167400,note_off,360,0,2,,,,,,,,,1,,,59,0
167400,note_off,0,0,2,,,,,,,,,1,,,71,0
167520,set_tempo,120,1,0,,,,,,508474,,,,,,,
167520,note_on,0,0,5,,,,,,,,,4,,,48,93
167520,note_on,120,0,5,,,,,,,,,4,,,36,93
167520,note_on,9720,0,4,,,,,,,,,3,,,60,93
167520,note_on,0,0,4,,,,,,,,,3,,,64,93
167520,note_on,0,0,4,,,,,,,,,3,,,55,93
167754,note_off,0,0,5,,,,,,,,,4,,,36,0
167754,note_off,234,0,5,,,,,,,,,4,,,48,0
167754,note_off,0,0,4,,,,,,,,,3,,,64,0
167754,note_off,0,0,4,,,,,,,,,3,,,60,0
167754,note_off,234,0,4,,,,,,,,,3,,,55,0
167880,note_on,0,0,5,,,,,,,,,4,,,48,91
167880,note_on,126,0,5,,,,,,,,,4,,,36,91
167880,note_on,126,0,4,,,,,,,,,3,,,64,91
167880,note_on,0,0,4,,,,,,,,,3,,,60,91
167880,note_on,0,0,4,,,,,,,,,3,,,55,91
167958,note_off,0,0,5,,,,,,,,,4,,,36,0
167958,note_off,0,0,4,,,,,,,,,3,,,64,0
167958,note_off,78,0,5,,,,,,,,,4,,,48,0
167958,note_off,78,0,4,,,,,,,,,3,,,55,0
167958,note_off,0,0,4,,,,,,,,,3,,,60,0
168000,note_on,42,0,4,,,,,,,,,3,,,59,90
168000,note_on,0,0,4,,,,,,,,,3,,,62,90
168000,note_on,0,0,4,,,,,,,,,3,,,55,90
168000,note_on,0,0,5,,,,,,,,,4,,,43,90
168000,note_on,42,0,5,,,,,,,,,4,,,31,90
168360,note_off,360,0,5,,,,,,,,,4,,,43,0
168360,set_tempo,840,1,0,,,,,,535714,,,,,,,
168360,note_off,0,0,5,,,,,,,,,4,,,31,0
168360,note_off,0,0,4,,,,,,,,,3,,,59,0
168360,note_off,0,0,4,,,,,,,,,3,,,62,0
168360,note_off,360,0,4,,,,,,,,,3,,,55,0
168480,set_tempo,120,1,0,,,,,,526315,,,,,,,
168480,note_on,120,0,4,,,,,,,,,3,,,55,96
168480,note_on,0,0,4,,,,,,,,,3,,,64,96
168480,note_on,120,0,5,,,,,,,,,4,,,31,96
168480,note_on,0,0,5,,,,,,,,,4,,,43,96
168480,note_on,0,0,4,,,,,,,,,3,,,61,96
168480,note_on,0,0,1,,,,,,,,,0,,,76,96
168480,note_on,1080,0,1,,,,,,,,,0,,,88,96
168480,note_on,0,0,2,,,,,,,,,1,,,85,96
168480,note_on,0,0,2,,,,,,,,,1,,,67,96
168480,note_on,1080,0,2,,,,,,,,,1,,,73,96
168600,set_tempo,120,1,0,,,,,,517241,,,,,,,
168714,note_off,0,0,1,,,,,,,,,0,,,88,0
168714,note_off,0,0,5,,,,,,,,,4,,,31,0
168714,note_off,234,0,5,,,,,,,,,4,,,43,0
168714,note_off,0,0,2,,,,,,,,,1,,,73,0
168714,note_off,0,0,2,,,,,,,,,1,,,67,0
168714,note_off,234,0,2,,,,,,,,,1,,,85,0
168714,note_off,234,0,1,,,,,,,,,0,,,76,0
168714,note_off,234,0,4,,,,,,,,,3,,,61,0
168714,note_off,0,0,4,,,,,,,,,3,,,64,0
168714,note_off,0,0,4,,,,,,,,,3,,,55,0
168840,note_on,126,0,5,,,,,,,,,4,,,31,102
168840,note_on,0,0,5,,,,,,,,,4,,,43,102
168840,note_on,126,0,1,,,,,,,,,0,,,88,102
168840,note_on,0,0,2,,,,,,,,,1,,,85,102
168840,note_on,0,0,2,,,,,,,,,1,,,67,102
168840,note_on,0,0,1,,,,,,,,,0,,,76,102
168840,note_on,0,0,4,,,,,,,,,3,,,64,102
168840,note_on,126,0,2,,,,,,,,,1,,,73,102
168840,note_on,0,0,4,,,,,,,,,3,,,61,102
168840,note_on,126,0,4,,,,,,,,,3,,,55,102
168900,set_tempo,300,1,0,,,,,,571428,,,,,,,
168918,note_off,78,0,2,,,,,,,,,1,,,85,0
168918,note_off,0,0,5,,,,,,,,,4,,,31,0
168918,note_off,78,0,4,,,,,,,,,3,,,61,0
168918,note_off,0,0,4,,,,,,,,,3,,,64,0
168918,note_off,0,0,2,,,,,,,,,1,,,73,0
168918,note_off,78,0,5,,,,,,,,,4,,,43,0
168918,note_off,0,0,4,,,,,,,,,3,,,55,0
168918,note_off,78,0,1,,,,,,,,,0,,,76,0
168918,note_off,0,0,1,,,,,,,,,0,,,88,0
168918,note_off,0,0,2,,,,,,,,,1,,,67,0
168920,note_on,2,0,1,,,,,,,,,0,,,86,103
168960,note_on,0,0,5,,,,,,,,,4,,,43,103
168960,note_on,42,0,5,,,,,,,,,4,,,31,103
168960,note_on,42,0,4,,,,,,,,,3,,,55,103
168960,note_on,0,0,1,,,,,,,,,0,,,77,103
168960,note_on,0,0,4,,,,,,,,,3,,,62,103
168960,note_on,0,0,2,,,,,,,,,1,,,74,103
168960,set_tempo,60,1,0,,,,,,508474,,,,,,,
168960,note_on,40,0,1,,,,,,,,,0,,,89,103
168960,note_on,0,0,4,,,,,,,,,3,,,65,103
168960,note_on,42,0,2,,,,,,,,,1,,,67,103
169080,note_off,120,0,5,,,,,,,,,4,,,31,0
169080,note_on,0,0,5,,,,,,,,,4,,,31,103
169200,note_off,120,0,5,,,,,,,,,4,,,31,0
169200,note_on,0,0,5,,,,,,,,,4,,,33,100
169300,note_off,340,0,1,,,,,,,,,0,,,86,0
169300,note_off,100,0,5,,,,,,,,,4,,,43,0
169315,note_off,355,0,2,,,,,,,,,1,,,67,0
169320,note_on,0,0,5,,,,,,,,,4,,,35,97
169320,note_off,20,0,1,,,,,,,,,0,,,77,0
169320,note_off,0,0,4,,,,,,,,,3,,,55,0
169320,note_off,0,0,4,,,,,,,,,3,,,65,0
169320,note_off,360,0,4,,,,,,,,,3,,,62,0
169320,note_off,20,0,5,,,,,,,,,4,,,33,0
169325,note_off,10,0,2,,,,,,,,,1,,,74,0
169440,note_on,0,0,5,,,,,,,,,4,,,36,94
169440,note_off,120,0,5,,,,,,,,,4,,,35,0
169560,note_on,0,0,1,,,,,,,,,0,,,88,92
169560,note_off,240,0,1,,,,,,,,,0,,,89,0
169560,note_on,0,0,5,,,,,,,,,4,,,38,92
169560,note_off,120,0,5,,,,,,,,,4,,,36,0
169680,note_on,0,0,1,,,,,,,,,0,,,86,89
169680,note_off,120,0,1,,,,,,,,,0,,,88,0
169680,note_off,120,0,5,,,,,,,,,4,,,38,0
169680,note_on,0,0,5,,,,,,,,,4,,,40,89
169800,note_on,0,0,1,,,,,,,,,0,,,84,86
169800,note_off,120,0,1,,,,,,,,,0,,,86,0
169800,note_off,120,0,5,,,,,,,,,4,,,40,0
169800,note_on,0,0,5,,,,,,,,,4,,,42,86
169920,note_off,120,0,5,,,,,,,,,4,,,42,0
169920,note_on,0,0,5,,,,,,,,,4,,,43,83
169920,note_on,0,0,1,,,,,,,,,0,,,83,83
169920,note_off,120,0,1,,,,,,,,,0,,,84,0
170040,note_off,120,0,1,,,,,,,,,0,,,83,0
170040,note_off,120,0,5,,,,,,,,,4,,,43,0
170040,note_on,0,0,5,,,,,,,,,4,,,42,79
170040,note_on,0,0,1,,,,,,,,,0,,,81,79
170160,note_off,120,0,1,,,,,,,,,0,,,81,0
170160,note_on,0,0,1,,,,,,,,,0,,,79,75
170160,note_off,120,0,5,,,,,,,,,4,,,42,0
170160,note_on,0,0,5,,,,,,,,,4,,,43,75
170280,note_on,0,0,1,,,,,,,,,0,,,77,71
170280,note_off,120,0,1,,,,,,,,,0,,,79,0
170280,note_off,120,0,5,,,,,,,,,4,,,43,0
170280,note_on,0,0,5,,,,,,,,,4,,,45,71
170400,note_on,0,0,1,,,,,,,,,0,,,60,68
170400,note_on,0,0,1,,,,,,,,,0,,,76,68
170400,note_off,120,0,1,,,,,,,,,0,,,77,0
170400,note_on,0,0,5,,,,,,,,,4,,,43,68
170400,note_off,120,0,5,,,,,,,,,4,,,45,0
170400,set_tempo,1440,1,0,,,,,,508474,,,,,,,
170400,note_on,1075,0,2,,,,,,,,,1,,,52,68
170520,note_on,0,0,5,,,,,,,,,4,,,41,64
170520,note_on,0,0,1,,,,,,,,,0,,,74,64
170520,note_off,120,0,1,,,,,,,,,0,,,76,0
170520,note_off,120,0,5,,,,,,,,,4,,,43,0
170634,note_off,234,0,2,,,,,,,,,1,,,52,0
170634,note_off,114,0,1,,,,,,,,,0,,,60,0
170640,note_on,0,0,5,,,,,,,,,4,,,40,60
170640,note_on,0,0,1,,,,,,,,,0,,,72,60
170640,note_off,120,0,5,,,,,,,,,4,,,41,0
170640,note_off,6,0,1,,,,,,,,,0,,,74,0
170760,note_on,0,0,1,,,,,,,,,0,,,62,57
170760,note_on,0,0,1,,,,,,,,,0,,,74,57
170760,note_on,126,0,2,,,,,,,,,1,,,55,57
170760,note_off,120,0,5,,,,,,,,,4,,,40,0
170760,note_off,120,0,1,,,,,,,,,0,,,72,0
170760,note_on,0,0,5,,,,,,,,,4,,,38,57
170827,set_tempo,427,1,0,,,,,,526315,,,,,,,
170838,note_off,78,0,1,,,,,,,,,0,,,62,0
170838,note_off,78,0,2,,,,,,,,,1,,,55,0
170880,note_on,0,0,1,,,,,,,,,0,,,76,55
170880,note_on,0,0,1,,,,,,,,,0,,,64,55
170880,note_on,42,0,2,,,,,,,,,1,,,72,55
170880,note_on,0,0,2,,,,,,,,,1,,,60,55
170880,set_tempo,53,1,0,,,,,,508474,,,,,,,
170880,note_on,0,0,5,,,,,,,,,4,,,36,55
170880,note_off,120,0,5,,,,,,,,,4,,,38,0
170880,note_off,42,0,1,,,,,,,,,0,,,74,0
171360,note_on,0,0,5,,,,,,,,,4,,,36,50
171360,note_on,2040,0,4,,,,,,,,,3,,,48,50
171360,note_off,480,0,5,,,,,,,,,4,,,36,0
171480,note_off,120,0,4,,,,,,,,,3,,,48,0
171480,note_on,0,0,4,,,,,,,,,3,,,43,48
171480,note_off,120,0,5,,,,,,,,,4,,,36,0
171480,note_on,0,0,5,,,,,,,,,4,,,31,48
171600,note_off,120,0,4,,,,,,,,,3,,,43,0
171600,note_on,0,0,4,,,,,,,,,3,,,48,47
171600,note_on,0,0,5,,,,,,,,,4,,,36,47
171600,note_off,120,0,5,,,,,,,,,4,,,31,0
171720,note_off,120,0,5,,,,,,,,,4,,,36,0
171720,note_off,120,0,4,,,,,,,,,3,,,48,0
171720,note_on,0,0,4,,,,,,,,,3,,,43,45
171720,note_on,0,0,5,,,,,,,,,4,,,31,45
171840,note_off,120,0,5,,,,,,,,,4,,,31,0
171840,note_on,0,0,5,,,,,,,,,4,,,36,44
171840,note_off,120,0,4,,,,,,,,,3,,,43,0
171840,note_on,0,0,4,,,,,,,,,3,,,48,44
172200,note_off,360,0,4,,,,,,,,,3,,,48,0
172200,set_tempo,1320,1,0,,,,,,571428,,,,,,,
172200,note_off,360,0,5,,,,,,,,,4,,,36,0
172320,note_on,0,0,2,,,,,,,,,1,,,67,45
172320,note_on,0,0,2,,,,,,,,,1,,,52,45
172320,note_off,1440,0,2,,,,,,,,,1,,,60,0
172320,note_on,0,0,1,,,,,,,,,0,,,72,45
172320,note_on,0,0,1,,,,,,,,,0,,,60,45
172320,note_off,0,0,1,,,,,,,,,0,,,76,0
172320,note_off,1440,0,1,,,,,,,,,0,,,64,0
172320,set_tempo,120,1,0,,,,,,508474,,,,,,,
172320,note_off,0,0,2,,,,,,,,,1,,,72,0
172554,note_off,0,0,2,,,,,,,,,1,,,52,0
172554,note_off,234,0,1,,,,,,,,,0,,,72,0
172554,note_off,0,0,1,,,,,,,,,0,,,60,0
172554,note_off,234,0,2,,,,,,,,,1,,,67,0
172680,note_on,126,0,1,,,,,,,,,0,,,74,48
172680,note_on,0,0,1,,,,,,,,,0,,,62,48
172680,note_on,126,0,2,,,,,,,,,1,,,55,48
172680,note_on,0,0,2,,,,,,,,,1,,,71,48
172747,set_tempo,427,1,0,,,,,,517241,,,,,,,
172758,note_off,0,0,1,,,,,,,,,0,,,74,0
172758,note_off,78,0,1,,,,,,,,,0,,,62,0
172758,note_off,0,0,2,,,,,,,,,1,,,55,0
172758,note_off,78,0,2,,,,,,,,,1,,,71,0
172800,note_on,42,0,1,,,,,,,,,0,,,76,51
172800,set_tempo,53,1,0,,,,,,508474,,,,,,,
172800,note_on,0,0,2,,,,,,,,,1,,,60,51
172800,note_on,42,0,2,,,,,,,,,1,,,72,51
172800,note_on,0,0,1,,,,,,,,,0,,,64,51
173280,note_on,1080,0,5,,,,,,,,,4,,,36,48
173280,note_on,1080,0,4,,,,,,,,,3,,,48,48
173400,note_off,120,0,5,,,,,,,,,4,,,36,0
173400,note_on,0,0,5,,,,,,,,,4,,,31,47
173400,note_on,0,0,4,,,,,,,,,3,,,43,47
173400,note_off,120,0,4,,,,,,,,,3,,,48,0
173520,note_off,120,0,5,,,,,,,,,4,,,31,0
173520,note_on,0,0,5,,,,,,,,,4,,,36,46
173520,note_on,0,0,4,,,,,,,,,3,,,48,46
173520,note_off,120,0,4,,,,,,,,,3,,,43,0
173640,note_off,120,0,5,,,,,,,,,4,,,36,0
173640,note_on,0,0,4,,,,,,,,,3,,,43,45
173640,note_off,120,0,4,,,,,,,,,3,,,48,0
173640,note_on,0,0,5,,,,,,,,,4,,,31,45
173760,note_off,120,0,4,,,,,,,,,3,,,43,0
173760,note_on,0,0,4,,,,,,,,,3,,,48,43
173760,note_off,120,0,5,,,,,,,,,4,,,31,0
173760,note_on,0,0,5,,,,,,,,,4,,,36,43
174120,note_off,360,0,5,,,,,,,,,4,,,36,0
174120,set_tempo,1320,1,0,,,,,,588235,,,,,,,
174120,note_off,360,0,4,,,,,,,,,3,,,48,0
174240,note_on,0,0,1,,,,,,,,,0,,,64,47
174240,note_on,120,0,5,,,,,,,,,4,,,48,47
174240,note_off,1440,0,1,,,,,,,,,0,,,64,0
174240,note_off,1440,0,2,,,,,,,,,1,,,60,0
174240,set_tempo,120,1,0,,,,,,508474,,,,,,,
174240,note_on,0,0,1,,,,,,,,,0,,,76,47
174240,note_on,0,0,2,,,,,,,,,1,,,60,47
174240,note_off,0,0,1,,,,,,,,,0,,,76,0
174240,note_off,0,0,2,,,,,,,,,1,,,72,0
174474,note_off,0,0,1,,,,,,,,,0,,,64,0
174474,note_off,234,0,2,,,,,,,,,1,,,60,0
174474,note_off,234,0,1,,,,,,,,,0,,,76,0
174474,note_off,234,0,5,,,,,,,,,4,,,48,0
174600,note_on,126,0,1,,,,,,,,,0,,,65,49
174600,note_on,126,0,5,,,,,,,,,4,,,48,49
174600,note_on,126,0,2,,,,,,,,,1,,,62,49
174600,note_on,0,0,1,,,,,,,,,0,,,77,49
174660,set_tempo,420,1,0,,,,,,517241,,,,,,,
174678,note_off,78,0,5,,,,,,,,,4,,,48,0
174678,note_off,78,0,2,,,,,,,,,1,,,62,0
174678,note_off,0,0,1,,,,,,,,,0,,,65,0
174678,note_off,78,0,1,,,,,,,,,0,,,77,0
174720,set_tempo,60,1,0,,,,,,508474,,,,,,,
174720,note_on,0,0,1,,,,,,,,,0,,,67,50
174720,note_on,42,0,2,,,,,,,,,1,,,64,50
174720,note_on,42,0,5,,,,,,,,,4,,,48,50
174720,note_on,42,0,1,,,,,,,,,0,,,79,50
175200,note_on,0,0,1,,,,,,,,,0,,,81,52
175200,note_off,0,0,1,,,,,,,,,0,,,79,0
175200,note_off,480,0,1,,,,,,,,,0,,,67,0
175200,note_on,0,0,1,,,,,,,,,0,,,69,52
175200,note_on,0,0,2,,,,,,,,,1,,,64,52
175200,note_off,480,0,2,,,,,,,,,1,,,64,0
175200,note_off,480,0,5,,,,,,,,,4,,,48,0
175200,note_on,0,0,5,,,,,,,,,4,,,48,52
175434,note_off,0,0,1,,,,,,,,,0,,,81,0
175434,note_off,234,0,5,,,,,,,,,4,,,48,0
175434,note_off,234,0,1,,,,,,,,,0,,,69,0
175434,note_off,234,0,2,,,,,,,,,1,,,64,0
175560,note_on,0,0,1,,,,,,,,,0,,,71,54
175560,note_on,126,0,1,,,,,,,,,0,,,83,54
175560,note_on,126,0,2,,,,,,,,,1,,,62,54
175560,note_on,126,0,5,,,,,,,,,4,,,47,54
175620,set_tempo,900,1,0,,,,,,517241,,,,,,,
175638,note_off,0,0,1,,,,,,,,,0,,,83,0
175638,note_off,78,0,5,,,,,,,,,4,,,47,0
175638,note_off,78,0,2,,,,,,,,,1,,,62,0
175638,note_off,78,0,1,,,,,,,,,0,,,71,0
175680,note_on,42,0,1,,,,,,,,,0,,,84,55
175680,note_on,42,0,5,,,,,,,,,4,,,45,55
175680,note_on,0,0,1,,,,,,,,,0,,,72,55
175680,note_on,42,0,2,,,,,,,,,1,,,64,55
175680,note_on,1560,0,4,,,,,,,,,3,,,60,55
175680,set_tempo,60,1,0,,,,,,508474,,,,,,,
176160,note_off,480,0,2,,,,,,,,,1,,,64,0
176160,note_on,0,0,4,,,,,,,,,3,,,60,57
176160,note_on,0,0,4,,,,,,,,,3,,,54,57
176160,note_off,480,0,4,,,,,,,,,3,,,60,0
176160,note_off,480,0,5,,,,,,,,,4,,,45,0
176160,note_off,480,0,1,,,,,,,,,0,,,72,0
176160,note_on,0,0,5,,,,,,,,,4,,,50,57
176160,note_on,0,0,1,,,,,,,,,0,,,81,57
176160,note_on,0,0,1,,,,,,,,,0,,,69,57
176160,note_off,0,0,1,,,,,,,,,0,,,84,0
176394,note_off,234,0,4,,,,,,,,,3,,,60,0
176394,note_off,234,0,5,,,,,,,,,4,,,50,0
176394,note_off,234,0,1,,,,,,,,,0,,,69,0
176394,note_off,0,0,1,,,,,,,,,0,,,81,0
176394,note_off,0,0,4,,,,,,,,,3,,,54,0
176520,note_on,126,0,4,,,,,,,,,3,,,57,59
176520,note_on,0,0,4,,,,,,,,,3,,,60,59
176520,note_on,126,0,5,,,,,,,,,4,,,50,59
176520,note_on,126,0,1,,,,,,,,,0,,,78,59
176520,note_on,0,0,1,,,,,,,,,0,,,66,59
176580,set_tempo,900,1,0,,,,,,517241,,,,,,,
176598,note_off,0,0,1,,,,,,,,,0,,,78,0
176598,note_off,78,0,4,,,,,,,,,3,,,60,0
176598,note_off,0,0,4,,,,,,,,,3,,,57,0
176598,note_off,78,0,5,,,,,,,,,4,,,50,0
176598,note_off,78,0,1,,,,,,,,,0,,,66,0
176640,note_on,42,0,1,,,,,,,,,0,,,67,61
176640,note_on,0,0,1,,,,,,,,,0,,,79,61
176640,set_tempo,60,1,0,,,,,,526315,,,,,,,
176640,note_on,480,0,2,,,,,,,,,1,,,59,61
176640,note_on,42,0,4,,,,,,,,,3,,,55,61
176640,note_on,42,0,5,,,,,,,,,4,,,43,61
177000,note_off,360,0,1,,,,,,,,,0,,,79,0
177000,note_off,0,0,1,,,,,,,,,0,,,67,0
177000,note_off,360,0,2,,,,,,,,,1,,,59,0
177000,note_off,360,0,4,,,,,,,,,3,,,55,0
177000,note_off,360,0,5,,,,,,,,,4,,,43,0
177120,note_on,0,0,4,,,,,,,,,3,,,55,58
177120,note_on,120,0,4,,,,,,,,,3,,,50,58
177120,note_on,0,0,2,,,,,,,,,1,,,74,58
177120,note_on,120,0,1,,,,,,,,,0,,,67,58
177120,note_on,0,0,1,,,,,,,,,0,,,79,58
177120,note_on,0,0,2,,,,,,,,,1,,,62,58
177120,note_on,0,0,2,,,,,,,,,1,,,59,58
177120,note_on,120,0,5,,,,,,,,,4,,,43,58
177120,note_on,120,0,2,,,,,,,,,1,,,71,58
177470,set_tempo,830,1,0,,,,,,550458,,,,,,,
177480,note_off,360,0,5,,,,,,,,,4,,,43,0
177480,note_off,360,0,1,,,,,,,,,0,,,79,0
177480,note_off,0,0,4,,,,,,,,,3,,,50,0
177480,note_off,360,0,4,,,,,,,,,3,,,55,0
177480,note_off,360,0,2,,,,,,,,,1,,,62,0
177480,note_off,0,0,2,,,,,,,,,1,,,59,0
177480,note_off,0,0,2,,,,,,,,,1,,,71,0
177480,note_off,0,0,1,,,,,,,,,0,,,67,0
177480,note_off,0,0,2,,,,,,,,,1,,,74,0
177600,note_on,0,0,2,,,,,,,,,1,,,59,55
177600,note_on,0,0,2,,,,,,,,,1,,,74,55
177600,note_on,120,0,1,,,,,,,,,0,,,67,55
177600,note_on,0,0,1,,,,,,,,,0,,,79,55
177600,note_on,0,0,4,,,,,,,,,3,,,55,55
177600,note_on,120,0,4,,,,,,,,,3,,,50,55
177600,note_on,120,0,2,,,,,,,,,1,,,71,55
177600,note_on,0,0,2,,,,,,,,,1,,,62,55
177600,note_on,120,0,5,,,,,,,,,4,,,43,55
177960,note_off,360,0,1,,,,,,,,,0,,,79,0
177960,note_off,0,0,1,,,,,,,,,0,,,67,0
177960,note_off,0,0,4,,,,,,,,,3,,,50,0
177960,note_off,360,0,4,,,,,,,,,3,,,55,0
177960,set_tempo,490,1,0,,,,,,769230,,,,,,,
177960,note_off,360,0,2,,,,,,,,,1,,,62,0
177960,note_off,360,0,5,,,,,,,,,4,,,43,0
177960,note_off,0,0,2,,,,,,,,,1,,,71,0
177960,note_off,0,0,2,,,,,,,,,1,,,59,0
177960,note_off,0,0,2,,,,,,,,,1,,,74,0
178080,note_on,120,0,5,,,,,,,,,4,,,43,48
178080,note_on,0,0,4,,,,,,,,,3,,,55,48
178080,note_on,0,0,4,,,,,,,,,3,,,59,48
178080,note_on,120,0,4,,,,,,,,,3,,,47,48
178080,note_on,0,0,4,,,,,,,,,3,,,50,48
178080,note_on,0,0,5,,,,,,,,,4,,,62,48
178080,set_tempo,120,1,0,,,,,,508474,,,,,,,
178314,note_off,0,0,4,,,,,,,,,3,,,50,0
178314,note_off,0,0,5,,,,,,,,,4,,,43,0
178314,note_off,234,0,5,,,,,,,,,4,,,62,0
178314,note_off,234,0,4,,,,,,,,,3,,,55,0
178314,note_off,0,0,4,,,,,,,,,3,,,59,0
178314,note_off,0,0,4,,,,,,,,,3,,,47,0
178440,note_on,0,0,4,,,,,,,,,3,,,55,50
178440,note_on,0,0,5,,,,,,,,,4,,,64,50
178440,note_on,126,0,5,,,,,,,,,4,,,43,50
178440,note_on,0,0,4,,,,,,,,,3,,,60,50
178440,note_on,126,0,4,,,,,,,,,3,,,52,50
178440,note_on,0,0,4,,,,,,,,,3,,,48,50
178500,set_tempo,420,1,0,,,,,,517241,,,,,,,
178518,note_off,0,0,5,,,,,,,,,4,,,43,0
178518,note_off,78,0,4,,,,,,,,,3,,,55,0
178518,note_off,78,0,5,,,,,,,,,4,,,64,0
178518,note_off,0,0,4,,,,,,,,,3,,,60,0
178518,note_off,0,0,4,,,,,,,,,3,,,48,0
178518,note_off,0,0,4,,,,,,,,,3,,,52,0
178560,note_on,0,0,4,,,,,,,,,3,,,62,51
178560,note_on,0,0,4,,,,,,,,,3,,,50,51
178560,note_on,42,0,5,,,,,,,,,4,,,43,51
178560,note_on,0,0,5,,,,,,,,,4,,,65,51
178560,note_on,42,0,4,,,,,,,,,3,,,53,51
178560,set_tempo,60,1,0,,,,,,508474,,,,,,,
178560,note_on,0,0,4,,,,,,,,,3,,,55,51
179040,note_on,0,0,1,,,,,,,,,0,,,77,55
179040,note_on,1080,0,1,,,,,,,,,0,,,89,55
179040,note_on,0,0,2,,,,,,,,,1,,,86,55
179040,note_on,1080,0,2,,,,,,,,,1,,,74,55
179274,note_off,234,0,1,,,,,,,,,0,,,77,0
179274,note_off,0,0,1,,,,,,,,,0,,,89,0
179274,note_off,0,0,2,,,,,,,,,1,,,74,0
179274,note_off,234,0,2,,,,,,,,,1,,,86,0
179400,note_on,126,0,1,,,,,,,,,0,,,88,57
179400,note_on,0,0,1,,,,,,,,,0,,,76,57
179400,note_on,126,0,2,,,,,,,,,1,,,72,57
179400,note_on,0,0,2,,,,,,,,,1,,,84,57
179460,set_tempo,900,1,0,,,,,,517241,,,,,,,
179478,note_off,78,0,2,,,,,,,,,1,,,84,0
179478,note_off,78,0,1,,,,,,,,,0,,,76,0
179478,note_off,0,0,2,,,,,,,,,1,,,72,0
179478,note_off,0,0,1,,,,,,,,,0,,,88,0
179520,note_on,42,0,2,,,,,,,,,1,,,71,58
179520,set_tempo,60,1,0,,,,,,508474,,,,,,,
179520,note_on,42,0,1,,,,,,,,,0,,,86,58
179520,note_on,0,0,1,,,,,,,,,0,,,74,58
179520,note_on,0,0,2,,,,,,,,,1,,,83,58
180000,note_on,0,0,5,,,,,,,,,4,,,62,61
180000,note_on,0,0,5,,,,,,,,,4,,,43,61
180000,note_off,0,0,5,,,,,,,,,4,,,43,0
180000,note_off,1440,0,5,,,,,,,,,4,,,65,0
180000,note_off,1440,0,4,,,,,,,,,3,,,62,0
180000,note_off,0,0,4,,,,,,,,,3,,,55,0
180000,note_on,0,0,4,,,,,,,,,3,,,47,61
180000,note_on,0,0,4,,,,,,,,,3,,,50,61
180000,note_on,0,0,4,,,,,,,,,3,,,59,61
180000,note_on,0,0,4,,,,,,,,,3,,,55,61
180000,note_off,0,0,4,,,,,,,,,3,,,53,0
180000,note_off,0,0,4,,,,,,,,,3,,,50,0
180234,note_off,0,0,4,,,,,,,,,3,,,55,0
180234,note_off,0,0,4,,,,,,,,,3,,,50,0
180234,note_off,234,0,4,,,,,,,,,3,,,47,0
180234,note_off,0,0,5,,,,,,,,,4,,,43,0
180234,note_off,234,0,5,,,,,,,,,4,,,62,0
180234,note_off,0,0,4,,,,,,,,,3,,,59,0
180360,note_on,126,0,5,,,,,,,,,4,,,43,64
180360,note_on,126,0,4,,,,,,,,,3,,,55,64
180360,note_on,0,0,5,,,,,,,,,4,,,64,64
180360,note_on,0,0,4,,,,,,,,,3,,,52,64
180360,note_on,0,0,4,,,,,,,,,3,,,48,64
180360,note_on,0,0,4,,,,,,,,,3,,,60,64
180420,set_tempo,900,1,0,,,,,,517241,,,,,,,
180438,note_off,78,0,5,,,,,,,,,4,,,64,0
180438,note_off,0,0,5,,,,,,,,,4,,,43,0
180438,note_off,0,0,4,,,,,,,,,3,,,55,0
180438,note_off,0,0,4,,,,,,,,,3,,,60,0
180438,note_off,0,0,4,,,,,,,,,3,,,48,0
180438,note_off,78,0,4,,,,,,,,,3,,,52,0
180480,note_on,0,0,4,,,,,,,,,3,,,50,65
180480,note_on,0,0,4,,,,,,,,,3,,,53,65
180480,set_tempo,60,1,0,,,,,,508474,,,,,,,
180480,note_on,0,0,4,,,,,,,,,3,,,55,65
180480,note_on,42,0,4,,,,,,,,,3,,,62,65
180480,note_on,42,0,5,,,,,,,,,4,,,43,65
180480,note_on,0,0,5,,,,,,,,,4,,,65,65
180840,note_off,360,0,4,,,,,,,,,3,,,53,0
180840,note_off,0,0,4,,,,,,,,,3,,,50,0
180840,note_off,0,0,4,,,,,,,,,3,,,55,0
180840,note_off,0,0,4,,,,,,,,,3,,,62,0
180840,note_off,0,0,5,,,,,,,,,4,,,43,0
180840,note_off,360,0,5,,,,,,,,,4,,,65,0
180960,note_on,120,0,4,,,,,,,,,3,,,47,68
180960,note_on,0,0,4,,,,,,,,,3,,,59,68
180960,note_on,0,0,4,,,,,,,,,3,,,50,68
180960,note_on,0,0,4,,,,,,,,,3,,,56,68
180960,note_off,1440,0,1,,,,,,,,,0,,,74,0
180960,note_off,0,0,1,,,,,,,,,0,,,86,0
180960,note_on,0,0,1,,,,,,,,,0,,,77,68
180960,note_on,0,0,1,,,,,,,,,0,,,89,68
180960,note_off,0,0,2,,,,,,,,,1,,,71,0
180960,note_on,0,0,5,,,,,,,,,4,,,62,68
180960,note_on,120,0,5,,,,,,,,,4,,,44,68
180960,note_on,0,0,2,,,,,,,,,1,,,86,68
180960,note_on,0,0,2,,,,,,,,,1,,,74,68
180960,note_off,1440,0,2,,,,,,,,,1,,,83,0
181194,note_off,0,0,5,,,,,,,,,4,,,44,0
181194,note_off,234,0,5,,,,,,,,,4,,,62,0
181194,note_off,0,0,2,,,,,,,,,1,,,86,0
181194,note_off,234,0,4,,,,,,,,,3,,,56,0
181194,note_off,0,0,4,,,,,,,,,3,,,50,0
181194,note_off,0,0,4,,,,,,,,,3,,,47,0
181194,note_off,0,0,4,,,,,,,,,3,,,59,0
181194,note_off,234,0,2,,,,,,,,,1,,,74,0
181194,note_off,234,0,1,,,,,,,,,0,,,89,0
181194,note_off,0,0,1,,,,,,,,,0,,,77,0
181320,note_on,0,0,4,,,,,,,,,3,,,48,70
181320,note_on,0,0,4,,,,,,,,,3,,,56,70
181320,note_on,0,0,4,,,,,,,,,3,,,60,70
181320,note_on,126,0,2,,,,,,,,,1,,,84,70
181320,note_on,0,0,2,,,,,,,,,1,,,72,70
181320,note_on,126,0,1,,,,,,,,,0,,,76,70
181320,note_on,0,0,1,,,,,,,,,0,,,88,70
181320,note_on,126,0,5,,,,,,,,,4,,,44,70
181320,note_on,0,0,5,,,,,,,,,4,,,64,70
181320,note_on,126,0,4,,,,,,,,,3,,,52,70
181380,set_tempo,900,1,0,,,,,,517241,,,,,,,
181398,note_off,0,0,1,,,,,,,,,0,,,76,0
181398,note_off,78,0,1,,,,,,,,,0,,,88,0
181398,note_off,0,0,2,,,,,,,,,1,,,84,0
181398,note_off,0,0,4,,,,,,,,,3,,,56,0
181398,note_off,0,0,4,,,,,,,,,3,,,48,0
181398,note_off,0,0,4,,,,,,,,,3,,,52,0
181398,note_off,78,0,2,,,,,,,,,1,,,72,0
181398,note_off,78,0,5,,,,,,,,,4,,,64,0
181398,note_off,0,0,5,,,,,,,,,4,,,44,0
181398,note_off,78,0,4,,,,,,,,,3,,,60,0
181440,note_on,0,0,4,,,,,,,,,3,,,50,71
181440,note_on,42,0,2,,,,,,,,,1,,,71,71
181440,note_on,0,0,2,,,,,,,,,1,,,83,71
181440,note_on,42,0,4,,,,,,,,,3,,,62,71
181440,note_on,0,0,4,,,,,,,,,3,,,53,71
181440,set_tempo,60,1,0,,,,,,508474,,,,,,,
181440,note_on,0,0,5,,,,,,,,,4,,,65,71
181440,note_on,42,0,5,,,,,,,,,4,,,44,71
181440,note_on,42,0,1,,,,,,,,,0,,,86,71
181440,note_on,0,0,1,,,,,,,,,0,,,74,71
181800,note_off,0,0,5,,,,,,,,,4,,,44,0
181800,note_off,360,0,5,,,,,,,,,4,,,65,0
181800,note_off,360,0,1,,,,,,,,,0,,,74,0
181800,note_off,0,0,1,,,,,,,,,0,,,86,0
181800,note_off,360,0,4,,,,,,,,,3,,,50,0
181800,note_off,0,0,4,,,,,,,,,3,,,53,0
181800,set_tempo,360,1,0,,,,,,540540,,,,,,,
181800,note_off,0,0,4,,,,,,,,,3,,,62,0
181800,note_off,0,0,2,,,,,,,,,1,,,71,0
181800,note_off,360,0,2,,,,,,,,,1,,,83,0
181920,note_on,0,0,1,,,,,,,,,0,,,76,75
181920,note_on,120,0,1,,,,,,,,,0,,,88,75
181920,set_tempo,120,1,0,,,,,,508474,,,,,,,
181920,note_on,120,0,5,,,,,,,,,4,,,44,75
181920,note_on,0,0,4,,,,,,,,,3,,,56,75
181920,note_on,0,0,4,,,,,,,,,3,,,59,75
181920,note_on,0,0,4,,,,,,,,,3,,,47,75
181920,note_on,120,0,4,,,,,,,,,3,,,52,75
181920,note_on,0,0,2,,,,,,,,,1,,,83,75
181920,note_on,120,0,2,,,,,,,,,1,,,71,75
181920,note_on,0,0,5,,,,,,,,,4,,,64,75
182154,note_off,0,0,2,,,,,,,,,1,,,71,0
182154,note_off,234,0,2,,,,,,,,,1,,,83,0
182154,note_off,0,0,1,,,,,,,,,0,,,88,0
182154,note_off,234,0,5,,,,,,,,,4,,,64,0
182154,note_off,234,0,1,,,,,,,,,0,,,76,0
182154,note_off,0,0,5,,,,,,,,,4,,,44,0
182154,note_off,234,0,4,,,,,,,,,3,,,56,0
182154,note_off,0,0,4,,,,,,,,,3,,,59,0
182154,note_off,0,0,4,,,,,,,,,3,,,47,0
182154,note_off,0,0,4,,,,,,,,,3,,,52,0
182280,note_on,0,0,2,,,,,,,,,1,,,83,77
182280,note_on,126,0,1,,,,,,,,,0,,,86,77
182280,note_on,0,0,4,,,,,,,,,3,,,56,77
182280,note_on,0,0,4,,,,,,,,,3,,,59,77
182280,note_on,0,0,4,,,,,,,,,3,,,64,77
182280,note_on,126,0,5,,,,,,,,,4,,,44,77
182280,note_on,0,0,4,,,,,,,,,3,,,52,77
182280,note_on,126,0,4,,,,,,,,,3,,,47,77
182280,note_on,126,0,2,,,,,,,,,1,,,71,77
182280,note_on,0,0,1,,,,,,,,,0,,,74,77
182280,set_tempo,360,1,0,,,,,,526315,,,,,,,
182358,note_off,0,0,1,,,,,,,,,0,,,86,0
182358,note_off,78,0,4,,,,,,,,,3,,,56,0
182358,note_off,0,0,2,,,,,,,,,1,,,71,0
182358,note_off,78,0,2,,,,,,,,,1,,,83,0
182358,note_off,0,0,4,,,,,,,,,3,,,64,0
182358,note_off,0,0,4,,,,,,,,,3,,,59,0
182358,note_off,78,0,5,,,,,,,,,4,,,44,0
182358,note_off,0,0,4,,,,,,,,,3,,,52,0
182358,note_off,0,0,4,,,,,,,,,3,,,47,0
182358,note_off,78,0,1,,,,,,,,,0,,,74,0
182400,note_on,0,0,1,,,,,,,,,0,,,84,85
182400,note_on,42,0,1,,,,,,,,,0,,,72,85
182400,note_on,42,0,4,,,,,,,,,3,,,57,85
182400,note_on,0,0,4,,,,,,,,,3,,,52,85
182400,note_on,42,0,5,,,,,,,,,4,,,45,85
182400,set_tempo,120,1,0,,,,,,508474,,,,,,,
182400,note_on,0,0,4,,,,,,,,,3,,,48,85
182504,note_off,104,0,1,,,,,,,,,0,,,84,0
182504,note_off,0,0,1,,,,,,,,,0,,,72,0
182560,note_on,0,0,1,,,,,,,,,0,,,83,84
182560,note_on,56,0,1,,,,,,,,,0,,,71,84
182560,note_on,0,0,4,,,,,,,,,3,,,60,84
182560,note_off,160,0,4,,,,,,,,,3,,,57,0
182664,note_off,0,0,1,,,,,,,,,0,,,71,0
182664,note_off,104,0,1,,,,,,,,,0,,,83,0
182720,note_on,56,0,1,,,,,,,,,0,,,72,83
182720,note_on,0,0,1,,,,,,,,,0,,,84,83
182720,note_on,0,0,4,,,,,,,,,3,,,64,83
182720,note_off,160,0,4,,,,,,,,,3,,,60,0
182760,note_off,360,0,5,,,,,,,,,4,,,45,0
182760,note_off,0,0,4,,,,,,,,,3,,,52,0
182760,note_off,40,0,4,,,,,,,,,3,,,48,0
182824,note_off,104,0,1,,,,,,,,,0,,,84,0
182824,note_off,0,0,1,,,,,,,,,0,,,72,0
182880,note_on,120,0,5,,,,,,,,,4,,,41,81
182880,note_off,120,0,4,,,,,,,,,3,,,64,0
182880,note_on,56,0,1,,,,,,,,,0,,,74,81
182880,note_on,0,0,1,,,,,,,,,0,,,86,81
182880,note_on,0,0,4,,,,,,,,,3,,,57,81
182984,note_off,104,0,1,,,,,,,,,0,,,86,0
182984,note_off,0,0,1,,,,,,,,,0,,,74,0
183040,note_on,56,0,1,,,,,,,,,0,,,88,80
183040,note_on,0,0,1,,,,,,,,,0,,,76,80
183040,note_off,160,0,4,,,,,,,,,3,,,57,0
183040,note_on,0,0,4,,,,,,,,,3,,,62,80
183114,note_off,234,0,5,,,,,,,,,4,,,41,0
183144,note_off,104,0,1,,,,,,,,,0,,,76,0
183144,note_off,0,0,1,,,,,,,,,0,,,88,0
183200,note_on,56,0,1,,,,,,,,,0,,,89,78
183200,note_on,0,0,1,,,,,,,,,0,,,77,78
183200,note_on,0,0,4,,,,,,,,,3,,,65,78
183200,note_off,160,0,4,,,,,,,,,3,,,62,0
183240,note_on,126,0,5,,,,,,,,,4,,,41,78
183304,note_off,104,0,1,,,,,,,,,0,,,77,0
183304,note_off,0,0,1,,,,,,,,,0,,,89,0
183318,note_off,78,0,5,,,,,,,,,4,,,41,0
183360,note_off,160,0,4,,,,,,,,,3,,,65,0
183360,note_on,56,0,1,,,,,,,,,0,,,76,77
183360,note_on,0,0,1,,,,,,,,,0,,,88,77
183360,note_on,0,0,4,,,,,,,,,3,,,55,77
183360,note_on,42,0,5,,,,,,,,,4,,,43,77
183464,note_off,104,0,1,,,,,,,,,0,,,88,0
183464,note_off,0,0,1,,,,,,,,,0,,,76,0
183520,note_on,56,0,1,,,,,,,,,0,,,74,75
183520,note_on,0,0,1,,,,,,,,,0,,,86,75
183520,note_on,0,0,4,,,,,,,,,3,,,60,75
183520,note_off,160,0,4,,,,,,,,,3,,,55,0
183624,note_off,104,0,1,,,,,,,,,0,,,86,0
183624,note_off,0,0,1,,,,,,,,,0,,,74,0
183680,note_off,160,0,4,,,,,,,,,3,,,60,0
183680,note_on,56,0,1,,,,,,,,,0,,,84,74
183680,note_on,0,0,1,,,,,,,,,0,,,72,74
183680,note_on,0,0,4,,,,,,,,,3,,,64,74
183720,note_off,360,0,5,,,,,,,,,4,,,43,0
183784,note_off,104,0,1,,,,,,,,,0,,,72,0
183784,note_off,0,0,1,,,,,,,,,0,,,84,0
183840,note_on,0,0,1,,,,,,,,,0,,,67,73
183840,note_on,56,0,1,,,,,,,,,0,,,79,73
183840,note_off,160,0,4,,,,,,,,,3,,,64,0
183840,note_on,0,0,4,,,,,,,,,3,,,53,73
183840,note_on,120,0,5,,,,,,,,,4,,,31,73
183944,note_off,0,0,1,,,,,,,,,0,,,79,0
183944,note_off,104,0,1,,,,,,,,,0,,,67,0
184000,note_on,0,0,4,,,,,,,,,3,,,55,71
184000,note_on,56,0,1,,,,,,,,,0,,,69,71
184000,note_on,0,0,1,,,,,,,,,0,,,81,71
184000,note_off,160,0,4,,,,,,,,,3,,,53,0
184074,note_off,234,0,5,,,,,,,,,4,,,31,0
184080,set_tempo,1680,1,0,,,,,,517241,,,,,,,
184104,note_off,104,0,1,,,,,,,,,0,,,81,0
184104,note_off,0,0,1,,,,,,,,,0,,,69,0
184160,note_off,160,0,4,,,,,,,,,3,,,55,0
184160,note_on,0,0,4,,,,,,,,,3,,,62,70
184160,note_on,0,0,1,,,,,,,,,0,,,83,70
184160,note_on,56,0,1,,,,,,,,,0,,,71,70
184200,note_on,126,0,5,,,,,,,,,4,,,31,67
184200,set_tempo,120,1,0,,,,,,526315,,,,,,,
184264,note_off,104,0,1,,,,,,,,,0,,,83,0
184264,note_off,0,0,1,,,,,,,,,0,,,71,0
184278,note_off,78,0,5,,,,,,,,,4,,,31,0
184320,note_on,0,0,4,,,,,,,,,3,,,55,66
184320,control_change,17280,0,3,,,,,,,64,0,2,,,,
184320,note_on,0,0,4,,,,,,,,,3,,,52,66
184320,set_tempo,120,1,0,,,,,,508474,,,,,,,
184320,note_on,0,0,1,,,,,,,,,0,,,72,66
184320,note_on,56,0,1,,,,,,,,,0,,,84,66
184320,note_on,42,0,5,,,,,,,,,4,,,36,66
184320,note_on,0,0,4,,,,,,,,,3,,,60,66
184320,note_off,160,0,4,,,,,,,,,3,,,62,0
184360,control_change,40,0,3,,,,,,,64,127,2,,,,
184440,note_on,80,0,3,,,,,,,,,2,,,43,60
184560,note_off,120,0,3,,,,,,,,,2,,,43,0
184560,note_on,0,0,3,,,,,,,,,2,,,48,60
184680,note_off,0,0,4,,,,,,,,,3,,,52,0
184680,note_off,0,0,4,,,,,,,,,3,,,55,0
184680,note_off,360,0,4,,,,,,,,,3,,,60,0
184680,note_on,0,0,3,,,,,,,,,2,,,43,59
184680,note_off,360,0,1,,,,,,,,,0,,,72,0
184680,note_off,0,0,1,,,,,,,,,0,,,84,0
184680,note_off,120,0,3,,,,,,,,,2,,,48,0
184800,note_on,0,0,5,,,,,,,,,4,,,36,59
184800,note_off,480,0,5,,,,,,,,,4,,,36,0
184800,note_off,0,0,3,,,,,,,,,2,,,43,0
184800,control_change,120,0,3,,,,,,,64,0,2,,,,
184800,note_on,120,0,1,,,,,,,,,0,,,75,59
184800,note_on,0,0,1,,,,,,,,,0,,,63,59
184840,control_change,40,0,3,,,,,,,64,127,2,,,,
184920,note_on,80,0,3,,,,,,,,,2,,,43,58
185040,note_off,120,0,3,,,,,,,,,2,,,43,0
185040,note_on,0,0,3,,,,,,,,,2,,,48,58
185160,note_off,120,0,3,,,,,,,,,2,,,48,0
185160,note_on,0,0,3,,,,,,,,,2,,,43,57
185160,note_off,360,0,1,,,,,,,,,0,,,63,0
185160,note_off,0,0,1,,,,,,,,,0,,,75,0
185160,note_on,0,0,1,,,,,,,,,0,,,74,58
185160,note_on,0,0,1,,,,,,,,,0,,,62,58
185220,set_tempo,900,1,0,,,,,,517241,,,,,,,
185280,control_change,120,0,3,,,,,,,64,0,2,,,,
185280,set_tempo,60,1,0,,,,,,508474,,,,,,,
185280,note_on,0,0,1,,,,,,,,,0,,,60,57
185280,note_off,480,0,5,,,,,,,,,4,,,36,0
185280,note_off,0,0,3,,,,,,,,,2,,,43,0
185280,note_off,120,0,1,,,,,,,,,0,,,62,0
185280,note_off,0,0,1,,,,,,,,,0,,,74,0
185280,note_on,0,0,5,,,,,,,,,4,,,36,57
185280,note_on,0,0,1,,,,,,,,,0,,,72,57
185320,control_change,40,0,3,,,,,,,64,127,2,,,,
185400,note_on,80,0,3,,,,,,,,,2,,,43,56
185520,note_on,0,0,3,,,,,,,,,2,,,48,56
185520,note_off,120,0,3,,,,,,,,,2,,,43,0
185640,note_off,0,0,1,,,,,,,,,0,,,60,0
185640,note_off,120,0,3,,,,,,,,,2,,,48,0
185640,note_on,0,0,3,,,,,,,,,2,,,43,55
185640,note_off,360,0,1,,,,,,,,,0,,,72,0
185760,note_on,3402,0,2,,,,,,,,,1,,,79,55
185760,note_off,480,0,5,,,,,,,,,4,,,36,0
185760,note_off,0,0,3,,,,,,,,,2,,,43,0
185760,note_on,0,0,5,,,,,,,,,4,,,31,55
185760,note_on,120,0,1,,,,,,,,,0,,,74,55
185760,note_on,0,0,1,,,,,,,,,0,,,62,55
185760,control_change,120,0,3,,,,,,,64,0,2,,,,
185800,control_change,40,0,3,,,,,,,64,127,2,,,,
185880,note_on,80,0,3,,,,,,,,,2,,,43,55
185994,note_off,0,0,1,,,,,,,,,0,,,74,0
185994,note_off,234,0,1,,,,,,,,,0,,,62,0
185994,note_off,234,0,2,,,,,,,,,1,,,79,0
186000,note_on,0,0,3,,,,,,,,,2,,,47,54
186000,note_off,120,0,3,,,,,,,,,2,,,43,0
186120,note_on,126,0,2,,,,,,,,,1,,,79,54
186120,note_on,0,0,1,,,,,,,,,0,,,62,54
186120,note_on,0,0,3,,,,,,,,,2,,,43,54
186120,note_off,120,0,3,,,,,,,,,2,,,47,0
186120,note_on,126,0,1,,,,,,,,,0,,,74,54
186180,set_tempo,900,1,0,,,,,,517241,,,,,,,
186198,note_off,78,0,2,,,,,,,,,1,,,79,0
186198,note_off,78,0,1,,,,,,,,,0,,,62,0
186198,note_off,0,0,1,,,,,,,,,0,,,74,0
186240,control_change,120,0,3,,,,,,,64,0,2,,,,
186240,note_on,42,0,2,,,,,,,,,1,,,79,54
186240,note_on,1560,0,4,,,,,,,,,3,,,36,54
186240,note_on,42,0,1,,,,,,,,,0,,,76,54
186240,note_on,0,0,1,,,,,,,,,0,,,64,54
186240,note_off,0,0,3,,,,,,,,,2,,,43,0
186240,set_tempo,60,1,0,,,,,,508474,,,,,,,
186240,note_off,480,0,5,,,,,,,,,4,,,31,0
186280,control_change,40,0,3,,,,,,,64,127,2,,,,
186360,note_on,80,0,3,,,,,,,,,2,,,43,53
186480,note_on,0,0,3,,,,,,,,,2,,,48,52
186480,note_off,120,0,3,,,,,,,,,2,,,43,0
186600,note_on,0,0,3,,,,,,,,,2,,,43,52
186600,note_off,120,0,3,,,,,,,,,2,,,48,0
186600,note_off,0,0,1,,,,,,,,,0,,,76,0
186600,note_off,360,0,1,,,,,,,,,0,,,64,0
186600,note_off,360,0,2,,,,,,,,,1,,,79,0
186720,note_on,120,0,1,,,,,,,,,0,,,76,52
186720,note_on,0,0,4,,,,,,,,,3,,,36,52
186720,note_off,480,0,4,,,,,,,,,3,,,36,0
186720,note_off,0,0,3,,,,,,,,,2,,,43,0
186720,note_on,0,0,1,,,,,,,,,0,,,64,52
186720,control_change,120,0,3,,,,,,,64,0,2,,,,
186760,control_change,40,0,3,,,,,,,64,127,2,,,,
186840,note_on,80,0,3,,,,,,,,,2,,,43,51
186960,note_off,120,0,3,,,,,,,,,2,,,43,0
186960,note_on,0,0,3,,,,,,,,,2,,,48,50
187080,note_on,0,0,1,,,,,,,,,0,,,62,50
187080,note_on,0,0,1,,,,,,,,,0,,,74,50
187080,note_off,0,0,1,,,,,,,,,0,,,76,0
187080,note_off,360,0,1,,,,,,,,,0,,,64,0
187080,note_on,0,0,3,,,,,,,,,2,,,43,50
187080,note_off,120,0,3,,,,,,,,,2,,,48,0
187140,set_tempo,900,1,0,,,,,,517241,,,,,,,
187200,set_tempo,60,1,0,,,,,,508474,,,,,,,
187200,control_change,120,0,3,,,,,,,64,0,2,,,,
187200,note_off,0,0,3,,,,,,,,,2,,,43,0
187200,note_on,0,0,4,,,,,,,,,3,,,36,50
187200,note_off,480,0,4,,,,,,,,,3,,,36,0
187200,note_on,0,0,1,,,,,,,,,0,,,60,50
187200,note_on,0,0,1,,,,,,,,,0,,,72,50
187200,note_off,0,0,1,,,,,,,,,0,,,74,0
187200,note_off,120,0,1,,,,,,,,,0,,,62,0
187240,control_change,40,0,3,,,,,,,64,127,2,,,,
187320,note_on,80,0,3,,,,,,,,,2,,,43,49
187440,note_on,0,0,3,,,,,,,,,2,,,48,48
187440,note_off,120,0,3,,,,,,,,,2,,,43,0
187560,note_off,120,0,3,,,,,,,,,2,,,48,0
187560,note_off,0,0,1,,,,,,,,,0,,,72,0
187560,note_off,360,0,1,,,,,,,,,0,,,60,0
187560,note_on,0,0,3,,,,,,,,,2,,,43,48
187680,note_on,1080,0,2,,,,,,,,,1,,,79,48
187680,note_on,0,0,4,,,,,,,,,3,,,31,48
187680,control_change,120,0,3,,,,,,,64,0,2,,,,
187680,note_off,480,0,4,,,,,,,,,3,,,36,0
187680,note_on,120,0,1,,,,,,,,,0,,,74,48
187680,note_on,0,0,1,,,,,,,,,0,,,62,48
187680,note_off,0,0,3,,,,,,,,,2,,,43,0
187720,control_change,40,0,3,,,,,,,64,127,2,,,,
187800,note_on,80,0,3,,,,,,,,,2,,,43,47
187914,note_off,0,0,1,,,,,,,,,0,,,74,0
187914,note_off,234,0,1,,,,,,,,,0,,,62,0
187914,note_off,234,0,2,,,,,,,,,1,,,79,0
187920,note_off,120,0,3,,,,,,,,,2,,,43,0
187920,note_on,0,0,3,,,,,,,,,2,,,47,47
188040,note_on,126,0,2,,,,,,,,,1,,,79,48
188040,note_off,120,0,3,,,,,,,,,2,,,47,0
188040,note_on,0,0,3,,,,,,,,,2,,,43,46
188040,note_on,126,0,1,,,,,,,,,0,,,74,48
188040,note_on,0,0,1,,,,,,,,,0,,,62,48
188100,set_tempo,900,1,0,,,,,,517241,,,,,,,
188118,note_off,78,0,2,,,,,,,,,1,,,79,0
188118,note_off,78,0,1,,,,,,,,,0,,,62,0
188118,note_off,0,0,1,,,,,,,,,0,,,74,0
188160,note_off,480,0,4,,,,,,,,,3,,,31,0
188160,note_off,0,0,3,,,,,,,,,2,,,43,0
188160,control_change,120,0,3,,,,,,,64,0,2,,,,
188160,set_tempo,60,1,0,,,,,,508474,,,,,,,
188160,note_on,0,0,1,,,,,,,,,0,,,63,48
188160,note_on,42,0,2,,,,,,,,,1,,,79,48
188160,note_on,0,0,4,,,,,,,,,3,,,36,48
188160,note_on,42,0,1,,,,,,,,,0,,,75,48
188200,control_change,40,0,3,,,,,,,64,127,2,,,,
188280,note_on,80,0,3,,,,,,,,,2,,,43,45
188400,note_on,0,0,3,,,,,,,,,2,,,48,44
188400,note_off,120,0,3,,,,,,,,,2,,,43,0
188520,note_off,360,0,1,,,,,,,,,0,,,63,0
188520,set_tempo,360,1,0,,,,,,517241,,,,,,,
188520,note_off,0,0,1,,,,,,,,,0,,,75,0
188520,note_on,0,0,3,,,,,,,,,2,,,43,45
188520,note_off,120,0,3,,,,,,,,,2,,,48,0
188520,note_off,360,0,2,,,,,,,,,1,,,79,0
188640,note_off,480,0,4,,,,,,,,,3,,,36,0
188640,note_on,0,0,4,,,,,,,,,3,,,44,50
188640,note_on,0,0,3,,,,,,,,,2,,,48,45
188640,note_on,120,0,1,,,,,,,,,0,,,75,50
188640,note_on,0,0,1,,,,,,,,,0,,,87,50
188640,note_off,0,0,3,,,,,,,,,2,,,43,0
188640,control_change,120,0,3,,,,,,,64,0,2,,,,
188640,set_tempo,120,1,0,,,,,,508474,,,,,,,
188640,note_on,2400,0,5,,,,,,,,,4,,,32,50
188680,control_change,40,0,3,,,,,,,64,127,2,,,,
188760,note_off,80,0,3,,,,,,,,,2,,,48,0
188760,note_on,0,0,3,,,,,,,,,2,,,53,46
188880,note_on,0,0,3,,,,,,,,,2,,,60,46
188880,note_off,120,0,3,,,,,,,,,2,,,53,0
189000,note_on,0,0,3,,,,,,,,,2,,,53,47
189000,note_off,360,0,1,,,,,,,,,0,,,87,0
189000,note_off,0,0,1,,,,,,,,,0,,,75,0
189000,note_on,0,0,1,,,,,,,,,0,,,74,52
189000,note_on,0,0,1,,,,,,,,,0,,,86,52
189000,note_off,120,0,3,,,,,,,,,2,,,60,0
189060,set_tempo,420,1,0,,,,,,517241,,,,,,,
189120,note_off,120,0,1,,,,,,,,,0,,,86,0
189120,note_on,0,0,3,,,,,,,,,2,,,48,47
189120,note_off,0,0,3,,,,,,,,,2,,,53,0
189120,control_change,120,0,3,,,,,,,64,0,2,,,,
189120,note_off,480,0,5,,,,,,,,,4,,,32,0
189120,note_off,480,0,4,,,,,,,,,3,,,44,0
189120,note_on,0,0,4,,,,,,,,,3,,,43,53
189120,note_on,0,0,5,,,,,,,,,4,,,31,53
189120,note_off,0,0,1,,,,,,,,,0,,,74,0
189120,note_on,0,0,1,,,,,,,,,0,,,72,53
189120,note_on,0,0,1,,,,,,,,,0,,,84,53
189120,set_tempo,60,1,0,,,,,,508474,,,,,,,
189160,control_change,40,0,3,,,,,,,64,127,2,,,,
189240,note_on,0,0,3,,,,,,,,,2,,,55,48
189240,note_off,80,0,3,,,,,,,,,2,,,48,0
189360,note_on,0,0,3,,,,,,,,,2,,,60,48
189360,note_off,120,0,3,,,,,,,,,2,,,55,0
189480,note_off,120,0,3,,,,,,,,,2,,,60,0
189480,note_on,0,0,3,,,,,,,,,2,,,55,49
189480,note_off,360,0,1,,,,,,,,,0,,,84,0
189480,note_off,0,0,1,,,,,,,,,0,,,72,0
189600,note_on,0,0,4,,,,,,,,,3,,,41,55
189600,note_off,480,0,5,,,,,,,,,4,,,31,0
189600,note_on,0,0,5,,,,,,,,,4,,,29,55
189600,note_off,480,0,4,,,,,,,,,3,,,43,0
189600,control_change,120,0,3,,,,,,,64,0,2,,,,
189600,note_off,0,0,3,,,,,,,,,2,,,55,0
189600,note_on,0,0,3,,,,,,,,,2,,,48,49
189600,note_on,0,0,1,,,,,,,,,0,,,86,55
189600,note_on,120,0,1,,,,,,,,,0,,,74,55
189640,control_change,40,0,3,,,,,,,64,127,2,,,,
189720,note_off,80,0,3,,,,,,,,,2,,,48,0
189720,note_on,0,0,3,,,,,,,,,2,,,56,50
189834,note_off,234,0,1,,,,,,,,,0,,,86,0
189834,note_off,0,0,1,,,,,,,,,0,,,74,0
189840,note_off,120,0,3,,,,,,,,,2,,,56,0
189840,note_on,0,0,3,,,,,,,,,2,,,60,50
189960,note_on,126,0,1,,,,,,,,,0,,,74,56
189960,note_on,0,0,1,,,,,,,,,0,,,86,56
189960,note_on,0,0,3,,,,,,,,,2,,,56,51
189960,note_off,120,0,3,,,,,,,,,2,,,60,0
190012,set_tempo,892,1,0,,,,,,517241,,,,,,,
190038,note_off,0,0,1,,,,,,,,,0,,,74,0
190038,note_off,78,0,1,,,,,,,,,0,,,86,0
190080,note_on,0,0,4,,,,,,,,,3,,,43,57
190080,note_off,0,0,3,,,,,,,,,2,,,56,0
190080,control_change,120,0,3,,,,,,,64,0,2,,,,
190080,note_off,480,0,4,,,,,,,,,3,,,41,0
190080,note_on,0,0,5,,,,,,,,,4,,,31,57
190080,note_off,480,0,5,,,,,,,,,4,,,29,0
190080,set_tempo,68,1,0,,,,,,508474,,,,,,,
190080,note_on,42,0,1,,,,,,,,,0,,,76,57
190080,note_on,0,0,1,,,,,,,,,0,,,88,57
190080,note_on,0,0,3,,,,,,,,,2,,,48,51
190120,control_change,40,0,3,,,,,,,64,127,2,,,,
190200,note_on,0,0,3,,,,,,,,,2,,,55,52
190200,note_off,80,0,3,,,,,,,,,2,,,48,0
190320,note_off,120,0,3,,,,,,,,,2,,,55,0
190320,note_on,0,0,3,,,,,,,,,2,,,60,52
190440,note_off,0,0,1,,,,,,,,,0,,,76,0
190440,note_off,360,0,1,,,,,,,,,0,,,88,0
190440,note_off,120,0,3,,,,,,,,,2,,,60,0
190440,note_on,0,0,3,,,,,,,,,2,,,55,53
190507,set_tempo,427,1,0,,,,,,517241,,,,,,,
190560,note_on,0,0,1,,,,,,,,,0,,,76,59
190560,note_on,120,0,1,,,,,,,,,0,,,88,59
190560,control_change,120,0,3,,,,,,,64,0,2,,,,
190560,note_off,0,0,3,,,,,,,,,2,,,55,0
190560,note_on,0,0,3,,,,,,,,,2,,,48,53
190560,set_tempo,53,1,0,,,,,,508474,,,,,,,
190560,note_off,480,0,5,,,,,,,,,4,,,31,0
190560,note_on,0,0,5,,,,,,,,,4,,,33,59
190560,note_on,0,0,4,,,,,,,,,3,,,45,59
190560,note_off,480,0,4,,,,,,,,,3,,,43,0
190600,control_change,40,0,3,,,,,,,64,127,2,,,,
190680,note_off,80,0,3,,,,,,,,,2,,,48,0
190680,note_on,0,0,3,,,,,,,,,2,,,54,54
190800,note_off,120,0,3,,,,,,,,,2,,,54,0
190800,note_on,0,0,3,,,,,,,,,2,,,60,54
190920,note_on,0,0,3,,,,,,,,,2,,,54,55
190920,note_off,360,0,1,,,,,,,,,0,,,76,0
190920,note_off,0,0,1,,,,,,,,,0,,,88,0
190920,note_on,0,0,1,,,,,,,,,0,,,86,61
190920,note_on,0,0,1,,,,,,,,,0,,,74,61
190920,note_off,120,0,3,,,,,,,,,2,,,60,0
190980,set_tempo,420,1,0,,,,,,517241,,,,,,,
191040,note_on,0,0,4,,,,,,,,,3,,,43,61
191040,set_tempo,60,1,0,,,,,,508474,,,,,,,
191040,note_off,480,0,5,,,,,,,,,4,,,33,0
191040,note_on,0,0,5,,,,,,,,,4,,,31,61
191040,control_change,120,0,3,,,,,,,64,0,2,,,,
191040,note_off,0,0,3,,,,,,,,,2,,,54,0
191040,note_on,0,0,3,,,,,,,,,2,,,48,56
191040,note_on,0,0,1,,,,,,,,,0,,,72,61
191040,note_off,480,0,4,,,,,,,,,3,,,45,0
191040,note_on,0,0,1,,,,,,,,,0,,,84,61
191040,note_off,0,0,1,,,,,,,,,0,,,86,0
191040,note_off,120,0,1,,,,,,,,,0,,,74,0
191080,control_change,40,0,3,,,,,,,64,127,2,,,,
191160,note_off,80,0,3,,,,,,,,,2,,,48,0
191160,note_on,0,0,3,,,,,,,,,2,,,55,56
191280,note_on,0,0,3,,,,,,,,,2,,,60,57
191280,note_off,120,0,3,,,,,,,,,2,,,55,0
191400,note_off,120,0,3,,,,,,,,,2,,,60,0
191400,note_off,360,0,1,,,,,,,,,0,,,72,0
191400,note_off,0,0,1,,,,,,,,,0,,,84,0
191400,note_on,0,0,3,,,,,,,,,2,,,55,57
191520,note_on,0,0,3,,,,,,,,,2,,,48,58
191520,note_on,120,0,1,,,,,,,,,0,,,86,64
191520,note_off,0,0,3,,,,,,,,,2,,,55,0
191520,note_on,0,0,4,,,,,,,,,3,,,42,64
191520,note_on,0,0,1,,,,,,,,,0,,,74,64
191520,note_off,480,0,5,,,,,,,,,4,,,31,0
191520,note_on,0,0,5,,,,,,,,,4,,,30,64
191520,note_off,480,0,4,,,,,,,,,3,,,43,0
191520,control_change,120,0,3,,,,,,,64,0,2,,,,
191560,control_change,40,0,3,,,,,,,64,127,2,,,,
191640,note_off,80,0,3,,,,,,,,,2,,,48,0
191640,note_on,0,0,3,,,,,,,,,2,,,57,58
191754,note_off,234,0,1,,,,,,,,,0,,,74,0
191754,note_off,0,0,1,,,,,,,,,0,,,86,0
191760,note_off,120,0,3,,,,,,,,,2,,,57,0
191760,note_on,0,0,3,,,,,,,,,2,,,60,59
191880,note_on,0,0,1,,,,,,,,,0,,,74,65
191880,note_off,120,0,3,,,,,,,,,2,,,60,0
191880,note_on,0,0,3,,,,,,,,,2,,,57,59
191880,note_on,126,0,1,,,,,,,,,0,,,86,65
191947,set_tempo,907,1,0,,,,,,517241,,,,,,,
191958,note_off,78,0,1,,,,,,,,,0,,,74,0
191958,note_off,0,0,1,,,,,,,,,0,,,86,0
192000,note_on,42,0,1,,,,,,,,,0,,,88,66
192000,note_on,0,0,5,,,,,,,,,4,,,31,66
192000,note_off,480,0,5,,,,,,,,,4,,,30,0
192000,set_tempo,53,1,0,,,,,,508474,,,,,,,
192000,note_on,0,0,4,,,,,,,,,3,,,43,66
192000,note_off,480,0,4,,,,,,,,,3,,,42,0
192000,note_on,0,0,1,,,,,,,,,0,,,76,66
192000,control_change,120,0,3,,,,,,,64,0,2,,,,
192000,note_off,0,0,3,,,,,,,,,2,,,57,0
192000,note_on,0,0,3,,,,,,,,,2,,,48,60
192040,control_change,40,0,3,,,,,,,64,127,2,,,,
192120,note_off,80,0,3,,,,,,,,,2,,,48,0
192120,note_on,0,0,3,,,,,,,,,2,,,55,60
192240,note_on,0,0,3,,,,,,,,,2,,,60,61
192240,note_off,120,0,3,,,,,,,,,2,,,55,0
192360,note_off,0,0,1,,,,,,,,,0,,,88,0
192360,note_off,360,0,5,,,,,,,,,4,,,31,0
192360,note_off,360,0,1,,,,,,,,,0,,,76,0
192360,note_on,0,0,3,,,,,,,,,2,,,55,61
192360,set_tempo,360,1,0,,,,,,517241,,,,,,,
192360,note_off,120,0,3,,,,,,,,,2,,,60,0
192360,note_off,360,0,4,,,,,,,,,3,,,43,0
192480,note_on,120,0,4,,,,,,,,,3,,,44,68
192480,set_tempo,120,1,0,,,,,,508474,,,,,,,
192480,control_change,120,0,3,,,,,,,64,0,2,,,,
192480,note_on,0,0,3,,,,,,,,,2,,,52,62
192480,note_on,120,0,5,,,,,,,,,4,,,32,68
192480,note_on,0,0,1,,,,,,,,,0,,,88,68
192480,note_on,120,0,1,,,,,,,,,0,,,76,68
192480,note_off,0,0,3,,,,,,,,,2,,,55,0
192520,control_change,40,0,3,,,,,,,64,127,2,,,,
192600,note_off,80,0,3,,,,,,,,,2,,,52,0
192600,note_on,0,0,3,,,,,,,,,2,,,59,62
192714,note_off,234,0,4,,,,,,,,,3,,,44,0
192714,note_off,234,0,5,,,,,,,,,4,,,32,0
192720,note_on,0,0,3,,,,,,,,,2,,,62,63
192720,note_off,120,0,3,,,,,,,,,2,,,59,0
192840,note_on,0,0,1,,,,,,,,,0,,,86,70
192840,note_on,0,0,3,,,,,,,,,2,,,59,63
192840,note_on,126,0,5,,,,,,,,,4,,,32,70
192840,note_on,0,0,1,,,,,,,,,0,,,74,70
192840,note_off,0,0,1,,,,,,,,,0,,,76,0
192840,note_off,120,0,3,,,,,,,,,2,,,62,0
192840,note_on,126,0,4,,,,,,,,,3,,,44,70
192840,note_off,360,0,1,,,,,,,,,0,,,88,0
192900,set_tempo,420,1,0,,,,,,517241,,,,,,,
192918,note_off,78,0,5,,,,,,,,,4,,,32,0
192918,note_off,78,0,4,,,,,,,,,3,,,44,0
192960,note_on,0,0,3,,,,,,,,,2,,,52,64
192960,note_on,42,0,4,,,,,,,,,3,,,45,70
192960,set_tempo,60,1,0,,,,,,508474,,,,,,,
192960,note_off,0,0,1,,,,,,,,,0,,,74,0
192960,note_off,120,0,1,,,,,,,,,0,,,86,0
192960,note_on,0,0,1,,,,,,,,,0,,,72,70
192960,control_change,120,0,3,,,,,,,64,0,2,,,,
192960,note_on,42,0,5,,,,,,,,,4,,,33,70
192960,note_off,0,0,3,,,,,,,,,2,,,59,0
192960,note_on,0,0,1,,,,,,,,,0,,,84,70
193000,control_change,40,0,3,,,,,,,64,127,2,,,,
193080,note_on,0,0,3,,,,,,,,,2,,,57,64
193080,note_off,80,0,3,,,,,,,,,2,,,52,0
193200,note_off,120,0,3,,,,,,,,,2,,,57,0
193200,note_on,0,0,3,,,,,,,,,2,,,60,65
193320,note_off,360,0,5,,,,,,,,,4,,,33,0
193320,note_off,120,0,3,,,,,,,,,2,,,60,0
193320,note_on,0,0,3,,,,,,,,,2,,,57,65
193320,note_off,360,0,4,,,,,,,,,3,,,45,0
193320,note_off,0,0,1,,,,,,,,,0,,,72,0
193320,note_off,360,0,1,,,,,,,,,0,,,84,0
193440,note_on,120,0,5,,,,,,,,,4,,,40,72
193440,control_change,120,0,3,,,,,,,64,0,2,,,,
193440,note_off,0,0,3,,,,,,,,,2,,,57,0
193440,note_on,0,0,3,,,,,,,,,2,,,48,66
193440,note_on,0,0,1,,,,,,,,,0,,,84,72
193440,note_on,120,0,1,,,,,,,,,0,,,72,72
193480,control_change,40,0,3,,,,,,,64,127,2,,,,
193560,note_off,80,0,3,,,,,,,,,2,,,48,0
193560,note_on,0,0,3,,,,,,,,,2,,,55,67
193674,note_off,234,0,5,,,,,,,,,4,,,40,0
193680,note_off,120,0,3,,,,,,,,,2,,,55,0
193680,note_on,0,0,3,,,,,,,,,2,,,58,67
193800,note_off,360,0,1,,,,,,,,,0,,,84,0
193800,note_off,0,0,1,,,,,,,,,0,,,72,0
193800,note_on,0,0,1,,,,,,,,,0,,,70,74
193800,note_on,0,0,1,,,,,,,,,0,,,82,74
193800,note_off,120,0,3,,,,,,,,,2,,,58,0
193800,note_on,126,0,5,,,,,,,,,4,,,40,74
193800,note_on,0,0,3,,,,,,,,,2,,,55,68
193852,set_tempo,892,1,0,,,,,,517241,,,,,,,
193878,note_off,78,0,5,,,,,,,,,4,,,40,0
193920,note_on,42,0,5,,,,,,,,,4,,,41,74
193920,note_off,0,0,1,,,,,,,,,0,,,70,0
193920,note_off,120,0,1,,,,,,,,,0,,,82,0
193920,note_on,0,0,3,,,,,,,,,2,,,48,68
193920,set_tempo,68,1,0,,,,,,508474,,,,,,,
193920,control_change,120,0,3,,,,,,,64,0,2,,,,
193920,note_on,0,0,1,,,,,,,,,0,,,69,74
193920,note_off,0,0,3,,,,,,,,,2,,,55,0
193920,note_on,0,0,1,,,,,,,,,0,,,81,74
193960,control_change,40,0,3,,,,,,,64,127,2,,,,
194040,note_off,80,0,3,,,,,,,,,2,,,48,0
194040,note_on,0,0,3,,,,,,,,,2,,,53,69
194160,note_off,120,0,3,,,,,,,,,2,,,53,0
194160,note_on,0,0,3,,,,,,,,,2,,,57,69
194280,note_off,360,0,5,,,,,,,,,4,,,41,0
194280,note_off,0,0,1,,,,,,,,,0,,,69,0
194280,note_off,120,0,3,,,,,,,,,2,,,57,0
194280,note_off,360,0,1,,,,,,,,,0,,,81,0
194280,note_on,0,0,3,,,,,,,,,2,,,53,70
194400,control_change,120,0,3,,,,,,,64,0,2,,,,
194400,note_off,0,0,3,,,,,,,,,2,,,53,0
194400,note_on,0,0,3,,,,,,,,,2,,,52,70
194400,note_on,120,0,5,,,,,,,,,4,,,37,76
194400,note_on,0,0,1,,,,,,,,,0,,,81,76
194400,note_on,120,0,1,,,,,,,,,0,,,69,76
194440,control_change,40,0,3,,,,,,,64,127,2,,,,
194520,note_off,80,0,3,,,,,,,,,2,,,52,0
194520,note_on,0,0,3,,,,,,,,,2,,,55,71
194634,note_off,234,0,5,,,,,,,,,4,,,37,0
194640,note_off,120,0,3,,,,,,,,,2,,,55,0
194640,note_on,0,0,3,,,,,,,,,2,,,57,71
194760,note_off,120,0,3,,,,,,,,,2,,,57,0
194760,note_on,0,0,3,,,,,,,,,2,,,52,72
194760,note_off,0,0,1,,,,,,,,,0,,,69,0
194760,note_on,126,0,5,,,,,,,,,4,,,37,78
194760,note_on,0,0,1,,,,,,,,,0,,,79,78
194760,note_on,0,0,1,,,,,,,,,0,,,67,78
194760,note_off,360,0,1,,,,,,,,,0,,,81,0
194820,set_tempo,900,1,0,,,,,,517241,,,,,,,
194838,note_off,78,0,5,,,,,,,,,4,,,37,0
194880,note_on,0,0,3,,,,,,,,,2,,,50,72
194880,note_off,0,0,3,,,,,,,,,2,,,52,0
194880,control_change,120,0,3,,,,,,,64,0,2,,,,
194880,note_on,42,0,5,,,,,,,,,4,,,38,79
194880,note_on,0,0,1,,,,,,,,,0,,,77,79
194880,note_on,0,0,1,,,,,,,,,0,,,65,79
194880,note_off,0,0,1,,,,,,,,,0,,,67,0
194880,note_off,120,0,1,,,,,,,,,0,,,79,0
194880,set_tempo,60,1,0,,,,,,508474,,,,,,,
194920,control_change,40,0,3,,,,,,,64,127,2,,,,
195000,note_off,80,0,3,,,,,,,,,2,,,50,0
195000,note_off,120,0,5,,,,,,,,,4,,,38,0
195000,note_off,120,0,1,,,,,,,,,0,,,77,0
195000,note_off,0,0,1,,,,,,,,,0,,,65,0
195000,note_on,0,0,3,,,,,,,,,2,,,57,73
195120,note_on,120,0,1,,,,,,,,,0,,,64,80
195120,note_on,0,0,1,,,,,,,,,0,,,76,80
195120,note_on,0,0,3,,,,,,,,,2,,,49,73
195120,note_on,0,0,3,,,,,,,,,2,,,55,73
195120,note_off,120,0,3,,,,,,,,,2,,,57,0
195120,note_on,120,0,5,,,,,,,,,4,,,40,80
195240,note_on,0,0,3,,,,,,,,,2,,,57,74
195240,note_off,0,0,3,,,,,,,,,2,,,55,0
195240,note_off,120,0,3,,,,,,,,,2,,,49,0
195240,note_off,120,0,5,,,,,,,,,4,,,40,0
195240,note_off,120,0,1,,,,,,,,,0,,,76,0
195240,note_off,0,0,1,,,,,,,,,0,,,64,0
195360,note_on,120,0,5,,,,,,,,,4,,,41,81
195360,note_on,0,0,3,,,,,,,,,2,,,50,74
195360,note_on,0,0,3,,,,,,,,,2,,,53,74
195360,note_off,0,0,3,,,,,,,,,2,,,57,0
195360,control_change,0,0,3,,,,,,,64,0,2,,,,
195360,control_change,120,0,3,,,,,,,64,0,2,,,,
195360,note_on,0,0,1,,,,,,,,,0,,,62,81
195360,note_on,120,0,1,,,,,,,,,0,,,74,81
195400,control_change,0,0,3,,,,,,,64,127,2,,,,
195400,control_change,40,0,3,,,,,,,64,127,2,,,,
195480,note_off,80,0,3,,,,,,,,,2,,,50,0
195480,note_off,0,0,3,,,,,,,,,2,,,53,0
195480,note_off,120,0,1,,,,,,,,,0,,,62,0
195480,note_off,0,0,1,,,,,,,,,0,,,74,0
195480,note_on,0,0,3,,,,,,,,,2,,,57,75
195480,note_off,120,0,5,,,,,,,,,4,,,41,0
195600,note_on,120,0,1,,,,,,,,,0,,,60,82
195600,note_on,0,0,1,,,,,,,,,0,,,72,82
195600,note_on,120,0,5,,,,,,,,,4,,,42,82
195600,note_on,0,0,3,,,,,,,,,2,,,50,75
195600,note_off,120,0,3,,,,,,,,,2,,,57,0
195720,note_off,120,0,5,,,,,,,,,4,,,42,0
195720,note_on,0,0,3,,,,,,,,,2,,,57,76
195720,note_off,120,0,3,,,,,,,,,2,,,50,0
195720,note_off,120,0,1,,,,,,,,,0,,,72,0
195720,note_off,0,0,1,,,,,,,,,0,,,60,0
195780,set_tempo,900,1,0,,,,,,517241,,,,,,,
195840,note_off,0,0,3,,,,,,,,,2,,,57,0
195840,note_on,120,0,1,,,,,,,,,0,,,71,83
195840,note_on,0,0,1,,,,,,,,,0,,,59,83
195840,note_on,120,0,5,,,,,,,,,4,,,43,83
195840,control_change,120,0,3,,,,,,,64,0,2,,,,
195840,note_on,0,0,3,,,,,,,,,2,,,50,76
195880,control_change,40,0,3,,,,,,,64,127,2,,,,
195920,set_tempo,140,1,0,,,,,,508474,,,,,,,
195960,note_off,120,0,1,,,,,,,,,0,,,59,0
195960,note_off,0,0,1,,,,,,,,,0,,,71,0
195960,note_off,80,0,3,,,,,,,,,2,,,50,0
195960,note_on,0,0,3,,,,,,,,,2,,,55,77
195960,note_off,120,0,5,,,,,,,,,4,,,43,0
196080,note_on,0,0,3,,,,,,,,,2,,,43,78
196080,note_on,120,0,5,,,,,,,,,4,,,41,84
196080,note_on,120,0,1,,,,,,,,,0,,,71,84
196080,note_on,0,0,1,,,,,,,,,0,,,83,84
196080,note_off,120,0,3,,,,,,,,,2,,,55,0
196200,note_off,120,0,5,,,,,,,,,4,,,41,0
196200,note_off,120,0,1,,,,,,,,,0,,,83,0
196200,note_on,0,0,3,,,,,,,,,2,,,55,78
196200,note_off,120,0,3,,,,,,,,,2,,,43,0
196200,note_off,0,0,1,,,,,,,,,0,,,71,0
196320,note_on,0,0,3,,,,,,,,,2,,,43,79
196320,note_off,0,0,3,,,,,,,,,2,,,55,0
196320,control_change,120,0,3,,,,,,,64,0,2,,,,
196320,note_on,120,0,5,,,,,,,,,4,,,40,85
196320,note_on,120,0,1,,,,,,,,,0,,,72,85
196320,note_on,0,0,1,,,,,,,,,0,,,84,85
196360,control_change,40,0,3,,,,,,,64,127,2,,,,
196440,note_on,0,0,3,,,,,,,,,2,,,55,79
196440,note_off,80,0,3,,,,,,,,,2,,,43,0
196440,note_off,120,0,1,,,,,,,,,0,,,84,0
196440,note_off,120,0,5,,,,,,,,,4,,,40,0
196440,note_off,0,0,1,,,,,,,,,0,,,72,0
196560,note_on,0,0,1,,,,,,,,,0,,,86,86
196560,note_on,120,0,5,,,,,,,,,4,,,41,86
196560,note_on,120,0,1,,,,,,,,,0,,,74,86
196560,note_on,0,0,3,,,,,,,,,2,,,45,80
196560,note_off,120,0,3,,,,,,,,,2,,,55,0
196560,note_on,0,0,2,,,,,,,,,1,,,72,86
196560,note_on,8040,0,2,,,,,,,,,1,,,69,86
196680,note_off,120,0,2,,,,,,,,,1,,,72,0
196680,note_off,120,0,1,,,,,,,,,0,,,86,0
196680,note_off,120,0,5,,,,,,,,,4,,,41,0
196680,note_off,0,0,2,,,,,,,,,1,,,69,0
196680,note_on,0,0,3,,,,,,,,,2,,,57,80
196680,note_off,120,0,3,,,,,,,,,2,,,45,0
196680,note_off,0,0,1,,,,,,,,,0,,,74,0
196800,note_off,0,0,3,,,,,,,,,2,,,57,0
196800,note_on,120,0,2,,,,,,,,,1,,,84,89
196800,note_on,0,0,2,,,,,,,,,1,,,72,89
196800,note_on,0,0,2,,,,,,,,,1,,,67,89
196800,note_on,0,0,3,,,,,,,,,2,,,43,81
196800,note_on,0,0,1,,,,,,,,,0,,,88,89
196800,note_on,120,0,1,,,,,,,,,0,,,76,89
196800,control_change,120,0,3,,,,,,,64,0,2,,,,
196800,note_on,120,0,5,,,,,,,,,4,,,31,89
196840,control_change,40,0,3,,,,,,,64,127,2,,,,
196920,note_off,80,0,3,,,,,,,,,2,,,43,0
196920,note_on,0,0,3,,,,,,,,,2,,,48,81
196980,note_off,0,0,1,,,,,,,,,0,,,76,0
196980,note_off,180,0,5,,,,,,,,,4,,,31,0
196980,note_off,180,0,1,,,,,,,,,0,,,88,0
196980,note_off,180,0,2,,,,,,,,,1,,,67,0
196980,note_off,0,0,2,,,,,,,,,1,,,84,0
196980,note_off,0,0,2,,,,,,,,,1,,,72,0
197040,note_off,120,0,3,,,,,,,,,2,,,48,0
197040,note_on,0,0,3,,,,,,,,,2,,,52,79
197160,note_off,120,0,3,,,,,,,,,2,,,52,0
197160,note_on,0,0,3,,,,,,,,,2,,,55,78
197160,set_tempo,1240,1,0,,,,,,517241,,,,,,,
197280,note_on,0,0,2,,,,,,,,,1,,,83,84
197280,note_on,0,0,3,,,,,,,,,2,,,43,77
197280,note_off,0,0,3,,,,,,,,,2,,,55,0
197280,note_on,0,0,1,,,,,,,,,0,,,74,84
197280,note_on,300,0,5,,,,,,,,,4,,,31,84
197280,note_on,300,0,1,,,,,,,,,0,,,86,84
197280,control_change,120,0,3,,,,,,,64,0,2,,,,
197280,note_on,300,0,2,,,,,,,,,1,,,65,84
197280,note_on,0,0,2,,,,,,,,,1,,,71,84
197280,note_on,0,0,2,,,,,,,,,1,,,67,84
197320,control_change,40,0,3,,,,,,,64,127,2,,,,
197400,note_off,80,0,3,,,,,,,,,2,,,43,0
197400,note_on,0,0,3,,,,,,,,,2,,,47,75
197460,note_off,180,0,1,,,,,,,,,0,,,74,0
197460,note_off,0,0,1,,,,,,,,,0,,,86,0
197460,note_off,180,0,2,,,,,,,,,1,,,83,0
197460,note_off,0,0,2,,,,,,,,,1,,,65,0
197460,note_off,180,0,5,,,,,,,,,4,,,31,0
197460,note_off,0,0,2,,,,,,,,,1,,,67,0
197460,note_off,0,0,2,,,,,,,,,1,,,71,0
197520,note_off,120,0,3,,,,,,,,,2,,,47,0
197520,note_on,0,0,3,,,,,,,,,2,,,50,74
197640,note_off,120,0,3,,,,,,,,,2,,,50,0
197640,set_tempo,480,1,0,,,,,,535714,,,,,,,
197640,note_on,0,0,3,,,,,,,,,2,,,55,73
197760,note_on,300,0,2,,,,,,,,,1,,,67,80
197760,note_on,300,0,1,,,,,,,,,0,,,84,80
197760,note_on,0,0,1,,,,,,,,,0,,,72,80
197760,control_change,120,0,3,,,,,,,64,0,2,,,,
197760,note_on,300,0,5,,,,,,,,,4,,,36,80
197760,note_on,4440,0,4,,,,,,,,,3,,,48,80
197760,note_off,0,0,3,,,,,,,,,2,,,55,0
197760,set_tempo,120,1,0,,,,,,508474,,,,,,,
197760,note_on,0,0,2,,,,,,,,,1,,,64,80
198120,note_off,0,0,1,,,,,,,,,0,,,84,0
198120,note_off,0,0,2,,,,,,,,,1,,,67,0
198120,set_tempo,360,1,0,,,,,,517241,,,,,,,
198120,note_off,360,0,1,,,,,,,,,0,,,72,0
198120,note_off,360,0,5,,,,,,,,,4,,,36,0
198120,note_off,360,0,4,,,,,,,,,3,,,48,0
198120,note_off,360,0,2,,,,,,,,,1,,,64,0
198240,note_on,120,0,5,,,,,,,,,4,,,48,57
198240,note_on,0,0,5,,,,,,,,,4,,,64,57
198240,note_on,120,0,4,,,,,,,,,3,,,55,57
198240,note_on,0,0,4,,,,,,,,,3,,,60,57
198240,set_tempo,120,1,0,,,,,,508474,,,,,,,
198474,note_off,234,0,4,,,,,,,,,3,,,60,0
198474,note_off,0,0,4,,,,,,,,,3,,,55,0
198474,note_off,0,0,5,,,,,,,,,4,,,48,0
198474,note_off,234,0,5,,,,,,,,,4,,,64,0
198600,note_on,126,0,5,,,,,,,,,4,,,48,55
198600,note_on,0,0,4,,,,,,,,,3,,,60,55
198600,note_on,126,0,4,,,,,,,,,3,,,55,55
198600,note_on,0,0,5,,,,,,,,,4,,,64,55
198660,set_tempo,420,1,0,,,,,,517241,,,,,,,
198678,note_off,0,0,4,,,,,,,,,3,,,55,0
198678,note_off,78,0,4,,,,,,,,,3,,,60,0
198678,note_off,78,0,5,,,,,,,,,4,,,64,0
198678,note_off,0,0,5,,,,,,,,,4,,,48,0
198720,note_on,0,0,4,,,,,,,,,3,,,62,54
198720,note_on,0,0,1,,,,,,,,,0,,,79,54
198720,note_on,600,0,1,,,,,,,,,0,,,67,54
198720,set_tempo,60,1,0,,,,,,508474,,,,,,,
198720,note_on,42,0,4,,,,,,,,,3,,,55,54
198720,note_on,42,0,5,,,,,,,,,4,,,36,54
198720,note_on,0,0,5,,,,,,,,,4,,,65,54
198840,note_on,0,0,1,,,,,,,,,0,,,69,53
198840,note_off,120,0,1,,,,,,,,,0,,,79,0
198840,note_off,0,0,1,,,,,,,,,0,,,67,0
198840,note_on,0,0,1,,,,,,,,,0,,,81,53
198960,note_on,0,0,1,,,,,,,,,0,,,71,52
198960,note_on,0,0,1,,,,,,,,,0,,,83,52
198960,note_off,0,0,1,,,,,,,,,0,,,81,0
198960,note_off,120,0,1,,,,,,,,,0,,,69,0
199080,note_on,0,0,1,,,,,,,,,0,,,84,52
199080,note_off,360,0,4,,,,,,,,,3,,,62,0
199080,note_off,0,0,4,,,,,,,,,3,,,55,0
199080,note_off,120,0,1,,,,,,,,,0,,,71,0
199080,note_off,360,0,5,,,,,,,,,4,,,65,0
199080,note_off,0,0,5,,,,,,,,,4,,,36,0
199080,note_off,0,0,1,,,,,,,,,0,,,83,0
199080,note_on,0,0,1,,,,,,,,,0,,,72,52
199200,note_on,0,0,1,,,,,,,,,0,,,86,51
199200,note_on,0,0,1,,,,,,,,,0,,,74,51
199200,note_off,120,0,1,,,,,,,,,0,,,84,0
199200,note_on,0,0,5,,,,,,,,,4,,,65,51
199200,note_on,120,0,5,,,,,,,,,4,,,48,51
199200,note_off,0,0,1,,,,,,,,,0,,,72,0
199200,note_on,120,0,4,,,,,,,,,3,,,55,51
199200,note_on,0,0,4,,,,,,,,,3,,,62,51
199320,note_off,120,0,1,,,,,,,,,0,,,74,0
199320,note_off,0,0,1,,,,,,,,,0,,,86,0
199320,note_on,0,0,1,,,,,,,,,0,,,88,50
199320,note_on,0,0,1,,,,,,,,,0,,,76,50
199434,note_off,234,0,5,,,,,,,,,4,,,65,0
199434,note_off,0,0,5,,,,,,,,,4,,,48,0
199434,note_off,234,0,4,,,,,,,,,3,,,62,0
199434,note_off,0,0,4,,,,,,,,,3,,,55,0
199440,note_off,120,0,1,,,,,,,,,0,,,76,0
199440,note_on,0,0,1,,,,,,,,,0,,,77,50
199440,note_on,0,0,1,,,,,,,,,0,,,89,50
199440,note_off,0,0,1,,,,,,,,,0,,,88,0
199560,note_on,0,0,5,,,,,,,,,4,,,65,49
199560,note_on,126,0,5,,,,,,,,,4,,,48,49
199560,note_on,126,0,4,,,,,,,,,3,,,55,49
199560,note_off,0,0,1,,,,,,,,,0,,,89,0
199560,note_on,0,0,1,,,,,,,,,0,,,86,49
199560,note_on,0,0,1,,,,,,,,,0,,,74,49
199560,note_on,0,0,4,,,,,,,,,3,,,62,49
199560,note_off,120,0,1,,,,,,,,,0,,,77,0
199620,set_tempo,900,1,0,,,,,,517241,,,,,,,
199638,note_off,78,0,5,,,,,,,,,4,,,65,0
199638,note_off,0,0,4,,,,,,,,,3,,,55,0
199638,note_off,0,0,5,,,,,,,,,4,,,48,0
199638,note_off,78,0,4,,,,,,,,,3,,,62,0
199680,note_off,120,0,1,,,,,,,,,0,,,74,0
199680,note_on,0,0,4,,,,,,,,,3,,,55,48
199680,note_on,42,0,4,,,,,,,,,3,,,60,48
199680,set_tempo,60,1,0,,,,,,508474,,,,,,,
199680,note_on,0,0,5,,,,,,,,,4,,,64,48
199680,note_on,42,0,5,,,,,,,,,4,,,36,48
199680,note_on,0,0,1,,,,,,,,,0,,,88,48
199680,note_on,0,0,1,,,,,,,,,0,,,76,48
199680,note_off,0,0,1,,,,,,,,,0,,,86,0
200040,note_off,0,0,4,,,,,,,,,3,,,60,0
200040,note_off,0,0,5,,,,,,,,,4,,,36,0
200040,note_off,360,0,5,,,,,,,,,4,,,64,0
200040,note_off,360,0,1,,,,,,,,,0,,,88,0
200040,note_off,0,0,1,,,,,,,,,0,,,76,0
200040,set_tempo,360,1,0,,,,,,517241,,,,,,,
200040,note_off,360,0,4,,,,,,,,,3,,,55,0
200160,note_on,120,0,5,,,,,,,,,4,,,48,44
200160,note_on,0,0,5,,,,,,,,,4,,,64,44
200160,set_tempo,120,1,0,,,,,,508474,,,,,,,
200160,note_on,0,0,4,,,,,,,,,3,,,55,44
200160,note_on,120,0,4,,,,,,,,,3,,,60,44
200394,note_off,0,0,4,,,,,,,,,3,,,60,0
200394,note_off,234,0,4,,,,,,,,,3,,,55,0
200394,note_off,0,0,5,,,,,,,,,4,,,48,0
200394,note_off,234,0,5,,,,,,,,,4,,,64,0
200520,note_on,0,0,4,,,,,,,,,3,,,60,42
200520,note_on,0,0,5,,,,,,,,,4,,,64,42
200520,note_on,126,0,5,,,,,,,,,4,,,48,42
200520,note_on,126,0,4,,,,,,,,,3,,,55,42
200565,set_tempo,405,1,0,,,,,,517241,,,,,,,
200598,note_off,0,0,4,,,,,,,,,3,,,55,0
200598,note_off,0,0,5,,,,,,,,,4,,,48,0
200598,note_off,78,0,5,,,,,,,,,4,,,64,0
200598,note_off,78,0,4,,,,,,,,,3,,,60,0
200640,note_on,42,0,4,,,,,,,,,3,,,59,42
200640,note_on,0,0,4,,,,,,,,,3,,,55,42
200640,set_tempo,75,1,0,,,,,,508474,,,,,,,
200640,note_on,0,0,1,,,,,,,,,0,,,67,42
200640,note_on,42,0,5,,,,,,,,,4,,,36,42
200640,note_on,0,0,5,,,,,,,,,4,,,62,42
200640,note_on,0,0,4,,,,,,,,,3,,,53,42
200640,note_on,600,0,1,,,,,,,,,0,,,79,42
200760,note_on,0,0,1,,,,,,,,,0,,,66,41
200760,note_off,0,0,1,,,,,,,,,0,,,79,0
200760,note_off,120,0,1,,,,,,,,,0,,,67,0
200760,note_on,0,0,1,,,,,,,,,0,,,78,41
200880,note_on,0,0,1,,,,,,,,,0,,,67,41
200880,note_on,0,0,1,,,,,,,,,0,,,79,41
200880,note_off,0,0,1,,,,,,,,,0,,,78,0
200880,note_off,120,0,1,,,,,,,,,0,,,66,0
201000,note_off,0,0,4,,,,,,,,,3,,,59,0
201000,note_off,120,0,1,,,,,,,,,0,,,79,0
201000,note_off,360,0,5,,,,,,,,,4,,,62,0
201000,note_on,0,0,1,,,,,,,,,0,,,81,40
201000,note_on,0,0,1,,,,,,,,,0,,,69,40
201000,note_off,0,0,5,,,,,,,,,4,,,36,0
201000,note_off,360,0,4,,,,,,,,,3,,,53,0
201000,note_off,0,0,4,,,,,,,,,3,,,55,0
201000,note_off,0,0,1,,,,,,,,,0,,,67,0
201120,note_on,0,0,5,,,,,,,,,4,,,62,40
201120,note_on,120,0,5,,,,,,,,,4,,,48,40
201120,note_on,0,0,4,,,,,,,,,3,,,53,40
201120,note_on,0,0,1,,,,,,,,,0,,,71,40
201120,note_off,0,0,1,,,,,,,,,0,,,69,0
201120,note_off,120,0,1,,,,,,,,,0,,,81,0
201120,note_on,0,0,1,,,,,,,,,0,,,83,40
201120,note_on,0,0,4,,,,,,,,,3,,,59,40
201120,note_on,120,0,4,,,,,,,,,3,,,55,40
201240,note_off,120,0,1,,,,,,,,,0,,,83,0
201240,note_off,0,0,1,,,,,,,,,0,,,71,0
201240,note_on,0,0,1,,,,,,,,,0,,,72,39
201240,note_on,0,0,1,,,,,,,,,0,,,84,39
201354,note_off,0,0,4,,,,,,,,,3,,,55,0
201354,note_off,0,0,4,,,,,,,,,3,,,59,0
201354,note_off,234,0,4,,,,,,,,,3,,,53,0
201354,note_off,0,0,5,,,,,,,,,4,,,48,0
201354,note_off,234,0,5,,,,,,,,,4,,,62,0
201360,note_off,0,0,1,,,,,,,,,0,,,72,0
201360,note_on,0,0,1,,,,,,,,,0,,,74,38
201360,note_on,0,0,1,,,,,,,,,0,,,86,38
201360,note_off,120,0,1,,,,,,,,,0,,,84,0
201480,note_on,126,0,4,,,,,,,,,3,,,55,38
201480,note_off,120,0,1,,,,,,,,,0,,,86,0
201480,note_off,0,0,1,,,,,,,,,0,,,74,0
201480,note_on,0,0,1,,,,,,,,,0,,,71,38
201480,note_on,0,0,1,,,,,,,,,0,,,83,38
201480,note_on,0,0,4,,,,,,,,,3,,,53,38
201480,note_on,126,0,5,,,,,,,,,4,,,48,38
201480,note_on,0,0,5,,,,,,,,,4,,,62,38
201480,set_tempo,840,1,0,,,,,,517241,,,,,,,
201480,note_on,0,0,4,,,,,,,,,3,,,59,38
201558,note_off,0,0,4,,,,,,,,,3,,,55,0
201558,note_off,0,0,4,,,,,,,,,3,,,53,0
201558,note_off,78,0,4,,,,,,,,,3,,,59,0
201558,note_off,0,0,5,,,,,,,,,4,,,48,0
201558,note_off,78,0,5,,,,,,,,,4,,,62,0
201600,note_off,120,0,1,,,,,,,,,0,,,83,0
201600,note_on,42,0,5,,,,,,,,,4,,,36,37
201600,note_on,0,0,1,,,,,,,,,0,,,72,37
201600,note_on,0,0,1,,,,,,,,,0,,,84,37
201600,set_tempo,120,1,0,,,,,,508474,,,,,,,
201600,note_on,42,0,4,,,,,,,,,3,,,55,37
201600,note_on,0,0,4,,,,,,,,,3,,,52,37
201600,note_off,0,0,1,,,,,,,,,0,,,71,0
201600,note_on,0,0,5,,,,,,,,,4,,,60,37
201960,note_off,360,0,4,,,,,,,,,3,,,52,0
201960,note_off,0,0,1,,,,,,,,,0,,,72,0
201960,note_off,0,0,4,,,,,,,,,3,,,55,0
201960,set_tempo,360,1,0,,,,,,517241,,,,,,,
201960,note_off,0,0,5,,,,,,,,,4,,,36,0
201960,note_off,360,0,5,,,,,,,,,4,,,60,0
201960,note_off,360,0,1,,,,,,,,,0,,,84,0
202080,note_on,0,0,5,,,,,,,,,4,,,64,35
202080,note_on,120,0,5,,,,,,,,,4,,,48,35
202080,set_tempo,120,1,0,,,,,,508474,,,,,,,
202080,note_on,120,0,4,,,,,,,,,3,,,60,35
202080,note_on,0,0,4,,,,,,,,,3,,,55,35
202314,note_off,0,0,5,,,,,,,,,4,,,48,0
202314,note_off,0,0,4,,,,,,,,,3,,,60,0
202314,note_off,234,0,4,,,,,,,,,3,,,55,0
202314,note_off,234,0,5,,,,,,,,,4,,,64,0
202440,note_on,126,0,5,,,,,,,,,4,,,48,43
202440,note_on,0,0,5,,,,,,,,,4,,,64,43
202440,note_on,0,0,4,,,,,,,,,3,,,55,43
202440,note_on,126,0,4,,,,,,,,,3,,,60,43
202500,set_tempo,420,1,0,,,,,,517241,,,,,,,
202518,note_off,0,0,4,,,,,,,,,3,,,60,0
202518,note_off,0,0,5,,,,,,,,,4,,,48,0
202518,note_off,78,0,5,,,,,,,,,4,,,64,0
202518,note_off,78,0,4,,,,,,,,,3,,,55,0
202560,note_on,0,0,5,,,,,,,,,4,,,65,46
202560,note_on,42,0,5,,,,,,,,,4,,,36,46
202560,note_on,600,0,1,,,,,,,,,0,,,79,46
202560,note_on,0,0,1,,,,,,,,,0,,,67,46
202560,note_on,0,0,4,,,,,,,,,3,,,55,46
202560,set_tempo,60,1,0,,,,,,508474,,,,,,,
202560,note_on,42,0,4,,,,,,,,,3,,,62,46
202680,note_on,0,0,1,,,,,,,,,0,,,81,48
202680,note_off,0,0,1,,,,,,,,,0,,,79,0
202680,note_off,120,0,1,,,,,,,,,0,,,67,0
202680,note_on,0,0,1,,,,,,,,,0,,,69,48
202800,note_off,0,0,1,,,,,,,,,0,,,81,0
202800,note_on,0,0,1,,,,,,,,,0,,,83,51
202800,note_on,0,0,1,,,,,,,,,0,,,71,51
202800,note_off,120,0,1,,,,,,,,,0,,,69,0
202920,note_off,0,0,4,,,,,,,,,3,,,62,0
202920,note_off,360,0,4,,,,,,,,,3,,,55,0
202920,note_off,0,0,5,,,,,,,,,4,,,36,0
202920,note_off,0,0,1,,,,,,,,,0,,,83,0
202920,note_off,120,0,1,,,,,,,,,0,,,71,0
202920,note_on,0,0,1,,,,,,,,,0,,,84,54
202920,note_on,0,0,1,,,,,,,,,0,,,72,54
202920,note_off,360,0,5,,,,,,,,,4,,,65,0
203040,note_on,0,0,4,,,,,,,,,3,,,55,57
203040,note_on,120,0,4,,,,,,,,,3,,,62,57
203040,note_on,0,0,5,,,,,,,,,4,,,65,57
203040,note_off,120,0,1,,,,,,,,,0,,,84,0
203040,note_on,120,0,5,,,,,,,,,4,,,48,57
203040,note_off,0,0,1,,,,,,,,,0,,,72,0
203040,note_on,0,0,1,,,,,,,,,0,,,86,57
203040,note_on,0,0,1,,,,,,,,,0,,,74,57
203160,note_on,0,0,1,,,,,,,,,0,,,88,59
203160,note_on,0,0,1,,,,,,,,,0,,,76,59
203160,note_off,0,0,1,,,,,,,,,0,,,86,0
203160,note_off,120,0,1,,,,,,,,,0,,,74,0
203274,note_off,0,0,5,,,,,,,,,4,,,48,0
203274,note_off,0,0,4,,,,,,,,,3,,,62,0
203274,note_off,234,0,4,,,,,,,,,3,,,55,0
203274,note_off,234,0,5,,,,,,,,,4,,,65,0
203280,note_on,0,0,1,,,,,,,,,0,,,89,62
203280,note_on,0,0,1,,,,,,,,,0,,,77,62
203280,note_off,120,0,1,,,,,,,,,0,,,76,0
203280,note_off,0,0,1,,,,,,,,,0,,,88,0
203400,note_on,0,0,4,,,,,,,,,3,,,55,65
203400,note_on,126,0,5,,,,,,,,,4,,,48,65
203400,note_on,0,0,5,,,,,,,,,4,,,65,65
203400,note_on,0,0,1,,,,,,,,,0,,,86,65
203400,note_off,0,0,1,,,,,,,,,0,,,89,0
203400,note_off,120,0,1,,,,,,,,,0,,,77,0
203400,note_on,126,0,4,,,,,,,,,3,,,62,65
203400,note_on,0,0,1,,,,,,,,,0,,,74,65
203478,note_off,78,0,4,,,,,,,,,3,,,55,0
203478,note_off,78,0,5,,,,,,,,,4,,,48,0
203478,note_off,0,0,4,,,,,,,,,3,,,62,0
203482,set_tempo,922,1,0,,,,,,517241,,,,,,,
203520,note_on,0,0,1,,,,,,,,,0,,,72,68
203520,note_on,0,0,1,,,,,,,,,0,,,84,68
203520,note_on,0,0,5,,,,,,,,,4,,,64,68
203520,note_on,0,0,5,,,,,,,,,4,,,48,68
203520,note_off,42,0,5,,,,,,,,,4,,,65,0
203520,note_off,120,0,1,,,,,,,,,0,,,74,0
203520,note_on,0,0,4,,,,,,,,,3,,,55,68
203520,note_on,42,0,4,,,,,,,,,3,,,60,68
203520,note_off,0,0,1,,,,,,,,,0,,,86,0
203520,set_tempo,38,1,0,,,,,,508474,,,,,,,
203640,note_on,0,0,5,,,,,,,,,4,,,47,71
203640,note_off,120,0,5,,,,,,,,,4,,,48,0
203640,note_off,120,0,1,,,,,,,,,0,,,72,0
203640,note_off,0,0,1,,,,,,,,,0,,,84,0
203640,note_on,0,0,1,,,,,,,,,0,,,71,71
203640,note_on,0,0,1,,,,,,,,,0,,,83,71
203760,note_on,0,0,5,,,,,,,,,4,,,45,73
203760,note_off,120,0,5,,,,,,,,,4,,,47,0
203760,note_on,0,0,1,,,,,,,,,0,,,69,73
203760,note_off,120,0,1,,,,,,,,,0,,,83,0
203760,note_off,0,0,1,,,,,,,,,0,,,71,0
203760,note_on,0,0,1,,,,,,,,,0,,,81,73
203880,note_off,120,0,1,,,,,,,,,0,,,69,0
203880,note_off,120,0,5,,,,,,,,,4,,,45,0
203880,note_on,0,0,5,,,,,,,,,4,,,43,76
203880,note_off,0,0,5,,,,,,,,,4,,,64,0
203880,note_on,0,0,1,,,,,,,,,0,,,79,76
203880,note_off,0,0,1,,,,,,,,,0,,,81,0
203880,note_on,0,0,1,,,,,,,,,0,,,67,76
203880,note_off,360,0,4,,,,,,,,,3,,,55,0
203880,note_off,0,0,4,,,,,,,,,3,,,60,0
204000,note_on,0,0,1,,,,,,,,,0,,,65,79
204000,note_on,0,0,1,,,,,,,,,0,,,77,79
204000,note_off,0,0,1,,,,,,,,,0,,,67,0
204000,note_off,120,0,1,,,,,,,,,0,,,79,0
204000,note_on,0,0,5,,,,,,,,,4,,,41,79
204000,note_off,120,0,5,,,,,,,,,4,,,43,0
204120,note_on,0,0,1,,,,,,,,,0,,,64,82
204120,note_on,0,0,1,,,,,,,,,0,,,76,82
204120,note_off,120,0,1,,,,,,,,,0,,,65,0
204120,note_on,0,0,5,,,,,,,,,4,,,40,82
204120,note_off,120,0,5,,,,,,,,,4,,,41,0
204120,note_off,0,0,1,,,,,,,,,0,,,77,0
204240,note_on,0,0,1,,,,,,,,,0,,,74,84
204240,note_off,120,0,1,,,,,,,,,0,,,64,0
204240,note_on,0,0,1,,,,,,,,,0,,,62,84
204240,note_off,120,0,5,,,,,,,,,4,,,40,0
204240,note_on,0,0,5,,,,,,,,,4,,,38,84
204240,note_off,0,0,1,,,,,,,,,0,,,76,0
204360,note_on,0,0,1,,,,,,,,,0,,,72,87
204360,note_off,120,0,1,,,,,,,,,0,,,74,0
204360,note_off,0,0,1,,,,,,,,,0,,,62,0
204360,note_on,0,0,1,,,,,,,,,0,,,60,87
204360,note_on,0,0,5,,,,,,,,,4,,,36,87
204360,note_off,120,0,5,,,,,,,,,4,,,38,0
204360,set_tempo,840,1,0,,,,,,517241,,,,,,,
204480,set_tempo,120,1,0,,,,,,508474,,,,,,,
204480,note_on,600,0,4,,,,,,,,,3,,,55,90
204480,note_on,0,0,1,,,,,,,,,0,,,79,90
204480,note_on,0,0,1,,,,,,,,,0,,,67,90
204480,note_off,0,0,1,,,,,,,,,0,,,60,0
204480,note_off,120,0,1,,,,,,,,,0,,,72,0
204480,note_off,120,0,5,,,,,,,,,4,,,36,0
204480,note_on,0,0,5,,,,,,,,,4,,,43,90
204600,note_off,120,0,4,,,,,,,,,3,,,55,0
204600,note_on,0,0,4,,,,,,,,,3,,,57,92
204720,note_off,120,0,4,,,,,,,,,3,,,57,0
204720,note_on,0,0,4,,,,,,,,,3,,,59,93
204840,note_off,360,0,1,,,,,,,,,0,,,79,0
204840,note_off,0,0,1,,,,,,,,,0,,,67,0
204840,note_off,360,0,5,,,,,,,,,4,,,43,0
204840,note_off,120,0,4,,,,,,,,,3,,,59,0
204840,note_on,0,0,4,,,,,,,,,3,,,60,93
204960,note_on,120,0,5,,,,,,,,,4,,,31,94
204960,note_on,120,0,1,,,,,,,,,0,,,83,94
204960,note_on,0,0,4,,,,,,,,,3,,,62,94
204960,note_on,0,0,1,,,,,,,,,0,,,71,94
204960,note_off,120,0,4,,,,,,,,,3,,,60,0
205040,note_off,80,0,1,,,,,,,,,0,,,71,0
205040,note_on,0,0,1,,,,,,,,,0,,,72,94
205040,note_off,0,0,1,,,,,,,,,0,,,83,0
205040,note_on,0,0,1,,,,,,,,,0,,,84,94
205080,note_off,120,0,4,,,,,,,,,3,,,62,0
205080,note_on,0,0,4,,,,,,,,,3,,,64,94
205120,note_off,80,0,1,,,,,,,,,0,,,84,0
205120,note_off,0,0,1,,,,,,,,,0,,,72,0
205120,note_on,0,0,1,,,,,,,,,0,,,71,95
205120,note_on,0,0,1,,,,,,,,,0,,,83,95
205194,note_off,234,0,5,,,,,,,,,4,,,31,0
205200,note_off,0,0,1,,,,,,,,,0,,,71,0
205200,note_on,0,0,1,,,,,,,,,0,,,69,95
205200,note_on,0,0,1,,,,,,,,,0,,,81,95
205200,note_on,0,0,4,,,,,,,,,3,,,65,95
205200,note_off,80,0,1,,,,,,,,,0,,,83,0
205200,note_off,120,0,4,,,,,,,,,3,,,64,0
205320,note_on,126,0,5,,,,,,,,,4,,,31,96
205320,note_off,120,0,1,,,,,,,,,0,,,69,0
205320,set_tempo,840,1,0,,,,,,517241,,,,,,,
205320,note_off,0,0,1,,,,,,,,,0,,,81,0
205320,note_on,0,0,4,,,,,,,,,3,,,62,96
205320,note_off,120,0,4,,,,,,,,,3,,,65,0
205320,note_on,0,0,1,,,,,,,,,0,,,71,96
205320,note_on,0,0,1,,,,,,,,,0,,,83,96
205398,note_off,78,0,5,,,,,,,,,4,,,31,0
205440,note_on,42,0,5,,,,,,,,,4,,,36,96
205440,note_on,0,0,1,,,,,,,,,0,,,72,96
205440,set_tempo,120,1,0,,,,,,526315,,,,,,,
205440,note_off,120,0,4,,,,,,,,,3,,,62,0
205440,note_on,0,0,4,,,,,,,,,3,,,60,96
205440,note_off,120,0,1,,,,,,,,,0,,,83,0
205440,note_off,0,0,1,,,,,,,,,0,,,71,0
205440,note_on,0,0,1,,,,,,,,,0,,,84,96
205800,note_off,360,0,4,,,,,,,,,3,,,60,0
205800,note_off,360,0,1,,,,,,,,,0,,,84,0
205800,note_off,360,0,5,,,,,,,,,4,,,36,0
205800,note_off,0,0,1,,,,,,,,,0,,,72,0
205900,set_tempo,460,1,0,,,,,,550458,,,,,,,
205920,note_on,120,0,4,,,,,,,,,3,,,48,96
205920,note_on,120,0,5,,,,,,,,,4,,,36,96
205920,note_on,0,0,1,,,,,,,,,0,,,88,96
205920,note_on,120,0,1,,,,,,,,,0,,,76,96
205920,note_on,7800,0,2,,,,,,,,,1,,,84,96
205920,note_on,0,0,2,,,,,,,,,1,,,67,96
205920,note_on,0,0,2,,,,,,,,,1,,,64,96
205920,note_on,0,0,2,,,,,,,,,1,,,72,96
205920,note_on,0,0,2,,,,,,,,,1,,,60,96
205920,note_on,0,0,2,,,,,,,,,1,,,79,96
206040,note_off,120,0,5,,,,,,,,,4,,,36,0
206040,note_off,120,0,4,,,,,,,,,3,,,48,0
206040,note_on,0,0,4,,,,,,,,,3,,,43,94
206040,note_on,0,0,5,,,,,,,,,4,,,31,94
206160,note_off,120,0,4,,,,,,,,,3,,,43,0
206160,note_on,0,0,5,,,,,,,,,4,,,36,92
206160,note_off,120,0,5,,,,,,,,,4,,,31,0
206160,note_on,0,0,4,,,,,,,,,3,,,48,92
206280,note_off,360,0,1,,,,,,,,,0,,,88,0
206280,note_off,0,0,1,,,,,,,,,0,,,76,0
206280,note_on,0,0,5,,,,,,,,,4,,,31,91
206280,note_off,0,0,2,,,,,,,,,1,,,79,0
206280,note_off,0,0,2,,,,,,,,,1,,,72,0
206280,note_off,360,0,2,,,,,,,,,1,,,60,0
206280,note_off,120,0,4,,,,,,,,,3,,,48,0
206280,set_tempo,380,1,0,,,,,,612244,,,,,,,
206280,note_off,120,0,5,,,,,,,,,4,,,36,0
206280,note_on,0,0,4,,,,,,,,,3,,,43,91
206280,note_off,0,0,2,,,,,,,,,1,,,64,0
206280,note_off,0,0,2,,,,,,,,,1,,,67,0
206280,note_off,0,0,2,,,,,,,,,1,,,84,0
206400,note_on,0,0,2,,,,,,,,,1,,,76,89
206400,note_on,120,0,2,,,,,,,,,1,,,79,89
206400,note_on,0,0,4,,,,,,,,,3,,,48,89
206400,note_on,120,0,1,,,,,,,,,0,,,72,89
206400,note_on,0,0,1,,,,,,,,,0,,,84,89
206400,note_off,120,0,5,,,,,,,,,4,,,31,0
206400,note_on,0,0,5,,,,,,,,,4,,,36,89
206400,note_on,0,0,2,,,,,,,,,1,,,60,89
206400,note_on,0,0,2,,,,,,,,,1,,,67,89
206400,note_on,0,0,2,,,,,,,,,1,,,64,89
206400,note_off,120,0,4,,,,,,,,,3,,,43,0
206750,set_tempo,470,1,0,,,,,,2400000,,,,,,,
206760,note_off,360,0,5,,,,,,,,,4,,,36,0
206760,note_off,0,0,1,,,,,,,,,0,,,72,0
206760,note_off,360,0,1,,,,,,,,,0,,,84,0
206760,note_off,0,0,2,,,,,,,,,1,,,79,0
206760,note_off,360,0,2,,,,,,,,,1,,,60,0
206760,note_off,0,0,2,,,,,,,,,1,,,67,0
206760,note_off,360,0,4,,,,,,,,,3,,,48,0
206760,note_off,0,0,2,,,,,,,,,1,,,76,0
206760,note_off,0,0,2,,,,,,,,,1,,,64,0
207360,set_tempo,610,1,0,,,,,,600000,,,,,,,
209280,control_change,2520,0,5,,,,,,,10,55,4,,,,
209280,control_change,0,0,5,,,,,,,91,100,4,,,,
209280,control_change,0,0,5,,,,,,,93,28,4,,,,
209280,control_change,0,0,5,,,,,,,1,0,4,,,,
209280,pitchwheel,0,0,5,,,,,,,,,4,,0,,
209280,control_change,0,0,5,,,,,,,7,122,4,,,,
209280,control_change,0,0,5,,,,,,,0,0,4,,,,
209280,control_change,0,0,5,,,,,,,32,0,4,,,,
209280,program_change,0,0,5,,,,,,,,,4,0,,,
209280,control_change,0,0,5,,,,,,,64,0,4,,,,
209280,pitchwheel,0,0,2,,,,,,,,,1,,0,,
209280,marker,0,1,0,,,,,,,,,,,,,
209280,control_change,0,0,2,,,,,,,1,0,1,,,,
209280,control_change,0,0,2,,,,,,,64,0,1,,,,
209280,control_change,0,0,2,,,,,,,93,28,1,,,,
209280,control_change,0,0,2,,,,,,,91,100,1,,,,
209280,control_change,0,0,2,,,,,,,10,64,1,,,,
209280,control_change,0,0,2,,,,,,,0,0,1,,,,
209280,control_change,0,0,2,,,,,,,32,0,1,,,,
209280,program_change,0,0,2,,,,,,,,,1,0,,,
209280,control_change,2520,0,2,,,,,,,7,117,1,,,,
209280,control_change,11520,0,3,,,,,,,7,112,2,,,,
209280,control_change,0,0,3,,,,,,,1,0,2,,,,
209280,control_change,0,0,3,,,,,,,64,0,2,,,,
209280,control_change,0,0,3,,,,,,,93,28,2,,,,
209280,control_change,0,0,3,,,,,,,91,100,2,,,,
209280,control_change,0,0,3,,,,,,,10,64,2,,,,
209280,control_change,0,0,3,,,,,,,0,0,2,,,,
209280,control_change,0,0,3,,,,,,,32,0,2,,,,
209280,program_change,0,0,3,,,,,,,,,2,0,,,
209280,pitchwheel,0,0,3,,,,,,,,,2,,0,,
209280,control_change,0,0,1,,,,,,,91,100,0,,,,
209280,control_change,2520,0,1,,,,,,,10,73,0,,,,
209280,control_change,0,0,4,,,,,,,32,0,3,,,,
209280,program_change,0,0,1,,,,,,,,,0,0,,,
209280,pitchwheel,0,0,1,,,,,,,,,0,,0,,
209280,control_change,0,0,1,,,,,,,32,0,0,,,,
209280,control_change,0,0,1,,,,,,,0,0,0,,,,
209280,control_change,0,0,1,,,,,,,7,127,0,,,,
209280,program_change,0,0,4,,,,,,,,,3,0,,,
209280,control_change,0,0,1,,,,,,,93,28,0,,,,
209280,control_change,0,0,4,,,,,,,0,0,3,,,,
209280,time_signature,1920,1,0,2,4,24,8,,,,,,,,,
209280,control_change,0,0,4,,,,,,,91,100,3,,,,
209280,control_change,0,0,4,,,,,,,93,28,3,,,,
209280,control_change,0,0,4,,,,,,,64,0,3,,,,
209280,control_change,0,0,4,,,,,,,1,0,3,,,,
209280,pitchwheel,0,0,4,,,,,,,,,3,,0,,
209280,control_change,2520,0,4,,,,,,,7,117,3,,,,
209280,control_change,0,0,1,,,,,,,1,0,0,,,,
209280,control_change,0,0,1,,,,,,,64,0,0,,,,
209280,control_change,0,0,4,,,,,,,10,55,3,,,,
210240,note_on,960,0,5,,,,,,,,,4,,,39,46
210240,set_tempo,960,1,0,,,,,,487804,,,,,,,
210240,note_on,960,0,3,,,,,,,,,2,,,51,46
210318,note_off,78,0,3,,,,,,,,,2,,,51,0
210360,note_on,42,0,3,,,,,,,,,2,,,46,46
210438,note_off,78,0,3,,,,,,,,,2,,,46,0
210480,note_on,42,0,3,,,,,,,,,2,,,43,46
210558,note_off,78,0,3,,,,,,,,,2,,,43,0
210600,note_off,360,0,5,,,,,,,,,4,,,39,0
210600,note_on,42,0,3,,,,,,,,,2,,,46,46
210678,note_off,78,0,3,,,,,,,,,2,,,46,0
210720,note_on,42,0,3,,,,,,,,,2,,,51,47
210720,note_on,120,0,5,,,,,,,,,4,,,39,47
210798,note_off,78,0,3,,,,,,,,,2,,,51,0
210840,note_on,42,0,3,,,,,,,,,2,,,46,47
210918,note_off,78,0,3,,,,,,,,,2,,,46,0
210960,note_on,42,0,3,,,,,,,,,2,,,43,47
211038,note_off,78,0,3,,,,,,,,,2,,,43,0
211080,note_off,360,0,5,,,,,,,,,4,,,39,0
211080,note_on,42,0,3,,,,,,,,,2,,,46,48
211140,set_tempo,900,1,0,,,,,,495867,,,,,,,
211140,note_on,60,0,5,,,,,,,,,4,,,39,48
211158,note_off,78,0,3,,,,,,,,,2,,,46,0
211188,note_off,48,0,5,,,,,,,,,4,,,39,0
211200,note_on,42,0,3,,,,,,,,,2,,,51,48
211200,set_tempo,60,1,0,,,,,,487804,,,,,,,
211200,note_on,12,0,5,,,,,,,,,4,,,39,48
211278,note_off,78,0,3,,,,,,,,,2,,,51,0
211320,note_on,42,0,3,,,,,,,,,2,,,46,48
211398,note_off,78,0,3,,,,,,,,,2,,,46,0
211440,note_on,2160,0,2,,,,,,,,,1,,,55,46
211440,note_on,2160,0,1,,,,,,,,,0,,,75,46
211440,note_on,0,0,2,,,,,,,,,1,,,70,46
211440,note_on,42,0,3,,,,,,,,,2,,,43,48
211440,note_on,0,0,2,,,,,,,,,1,,,63,46
211518,note_off,78,0,3,,,,,,,,,2,,,43,0
211560,note_on,42,0,3,,,,,,,,,2,,,46,49
211638,note_off,78,0,3,,,,,,,,,2,,,46,0
211680,note_off,240,0,2,,,,,,,,,1,,,70,0
211680,note_off,0,0,2,,,,,,,,,1,,,63,0
211680,note_on,0,0,2,,,,,,,,,1,,,67,47
211680,note_on,0,0,1,,,,,,,,,0,,,79,47
211680,note_on,0,0,2,,,,,,,,,1,,,63,47
211680,note_on,42,0,3,,,,,,,,,2,,,51,49
211680,note_on,0,0,2,,,,,,,,,1,,,70,47
211680,note_off,0,0,2,,,,,,,,,1,,,55,0
211680,note_off,240,0,1,,,,,,,,,0,,,75,0
211758,note_off,78,0,3,,,,,,,,,2,,,51,0
211800,note_on,42,0,3,,,,,,,,,2,,,46,49
211878,note_off,78,0,3,,,,,,,,,2,,,46,0
211920,note_off,0,0,2,,,,,,,,,1,,,67,0
211920,note_off,240,0,2,,,,,,,,,1,,,70,0
211920,note_off,240,0,1,,,,,,,,,0,,,79,0
211920,note_off,0,0,2,,,,,,,,,1,,,63,0
211920,note_on,0,0,1,,,,,,,,,0,,,75,47
211920,note_on,0,0,2,,,,,,,,,1,,,63,47
211920,note_on,0,0,2,,,,,,,,,1,,,70,47
211920,note_on,42,0,3,,,,,,,,,2,,,51,50
211920,note_on,0,0,2,,,,,,,,,1,,,55,47
211998,note_off,78,0,3,,,,,,,,,2,,,51,0
212040,note_on,42,0,3,,,,,,,,,2,,,55,50
212047,set_tempo,847,1,0,,,,,,500000,,,,,,,
212118,note_off,78,0,3,,,,,,,,,2,,,55,0
212160,set_tempo,113,1,0,,,,,,487804,,,,,,,
212160,note_on,0,0,5,,,,,,,,,4,,,34,50
212160,note_off,960,0,5,,,,,,,,,4,,,39,0
212160,note_off,240,0,2,,,,,,,,,1,,,70,0
212160,note_on,42,0,3,,,,,,,,,2,,,53,50
212160,note_off,0,0,2,,,,,,,,,1,,,55,0
212160,note_off,0,0,2,,,,,,,,,1,,,63,0
212160,note_off,240,0,1,,,,,,,,,0,,,75,0
212238,note_off,78,0,3,,,,,,,,,2,,,53,0
212280,note_on,42,0,3,,,,,,,,,2,,,50,50
212358,note_off,78,0,3,,,,,,,,,2,,,50,0
212400,note_on,42,0,3,,,,,,,,,2,,,46,51
212478,note_off,78,0,3,,,,,,,,,2,,,46,0
212520,note_on,42,0,3,,,,,,,,,2,,,50,51
212520,note_off,360,0,5,,,,,,,,,4,,,34,0
212598,note_off,78,0,3,,,,,,,,,2,,,50,0
212640,note_on,120,0,5,,,,,,,,,4,,,34,51
212640,note_on,42,0,3,,,,,,,,,2,,,53,51
212718,note_off,78,0,3,,,,,,,,,2,,,53,0
212760,note_on,42,0,3,,,,,,,,,2,,,50,51
212838,note_off,78,0,3,,,,,,,,,2,,,50,0
212880,note_on,42,0,3,,,,,,,,,2,,,46,52
212958,note_off,78,0,3,,,,,,,,,2,,,46,0
213000,note_off,360,0,5,,,,,,,,,4,,,34,0
213000,note_on,42,0,3,,,,,,,,,2,,,50,52
213060,set_tempo,900,1,0,,,,,,495867,,,,,,,
213060,note_on,60,0,5,,,,,,,,,4,,,34,52
213078,note_off,78,0,3,,,,,,,,,2,,,50,0
213108,note_off,48,0,5,,,,,,,,,4,,,34,0
213120,note_on,12,0,5,,,,,,,,,4,,,34,52
213120,note_on,42,0,3,,,,,,,,,2,,,53,52
213120,set_tempo,60,1,0,,,,,,487804,,,,,,,
213198,note_off,78,0,3,,,,,,,,,2,,,53,0
213240,note_on,42,0,3,,,,,,,,,2,,,50,53
213318,note_off,78,0,3,,,,,,,,,2,,,50,0
213360,note_on,1200,0,1,,,,,,,,,0,,,77,51
213360,note_on,0,0,2,,,,,,,,,1,,,74,51
213360,note_on,0,0,2,,,,,,,,,1,,,65,51
213360,note_on,42,0,3,,,,,,,,,2,,,46,53
213360,note_on,1200,0,2,,,,,,,,,1,,,58,51
213438,note_off,78,0,3,,,,,,,,,2,,,46,0
213480,note_on,42,0,3,,,,,,,,,2,,,50,53
213558,note_off,78,0,3,,,,,,,,,2,,,50,0
213600,note_on,42,0,3,,,,,,,,,2,,,53,53
213600,note_off,240,0,1,,,,,,,,,0,,,77,0
213600,note_off,0,0,2,,,,,,,,,1,,,65,0
213600,note_on,0,0,2,,,,,,,,,1,,,74,52
213600,note_on,0,0,2,,,,,,,,,1,,,65,52
213600,note_on,0,0,2,,,,,,,,,1,,,68,52
213600,note_off,0,0,2,,,,,,,,,1,,,58,0
213600,note_off,240,0,2,,,,,,,,,1,,,74,0
213600,note_on,0,0,1,,,,,,,,,0,,,80,52
213678,note_off,78,0,3,,,,,,,,,2,,,53,0
213720,note_on,42,0,3,,,,,,,,,2,,,50,54
213798,note_off,78,0,3,,,,,,,,,2,,,50,0
213840,note_off,240,0,1,,,,,,,,,0,,,80,0
213840,note_on,0,0,1,,,,,,,,,0,,,77,53
213840,note_on,42,0,3,,,,,,,,,2,,,53,54
213840,note_off,0,0,2,,,,,,,,,1,,,65,0
213840,note_off,240,0,2,,,,,,,,,1,,,74,0
213840,note_on,0,0,2,,,,,,,,,1,,,74,53
213840,note_on,0,0,2,,,,,,,,,1,,,65,53
213840,note_on,0,0,2,,,,,,,,,1,,,58,53
213840,note_off,0,0,2,,,,,,,,,1,,,68,0
213918,note_off,78,0,3,,,,,,,,,2,,,53,0
213960,note_on,42,0,3,,,,,,,,,2,,,56,54
213967,set_tempo,847,1,0,,,,,,500000,,,,,,,
214038,note_off,78,0,3,,,,,,,,,2,,,56,0
214080,note_on,0,0,2,,,,,,,,,1,,,67,53
214080,set_tempo,113,1,0,,,,,,487804,,,,,,,
214080,note_off,0,0,2,,,,,,,,,1,,,65,0
214080,note_off,240,0,2,,,,,,,,,1,,,74,0
214080,note_on,0,0,1,,,,,,,,,0,,,75,53
214080,note_off,0,0,2,,,,,,,,,1,,,58,0
214080,note_off,960,0,5,,,,,,,,,4,,,34,0
214080,note_off,240,0,1,,,,,,,,,0,,,77,0
214080,note_on,0,0,5,,,,,,,,,4,,,39,54
214080,note_on,42,0,3,,,,,,,,,2,,,63,53
214080,note_on,0,0,3,,,,,,,,,2,,,55,54
214158,note_off,78,0,3,,,,,,,,,2,,,63,0
214200,note_on,42,0,3,,,,,,,,,2,,,58,54
214236,note_off,36,0,3,,,,,,,,,2,,,55,0
214236,note_off,156,0,5,,,,,,,,,4,,,39,0
214278,note_off,42,0,3,,,,,,,,,2,,,58,0
214320,note_on,0,0,3,,,,,,,,,2,,,51,55
214320,note_on,42,0,3,,,,,,,,,2,,,55,54
214320,note_on,0,0,3,,,,,,,,,2,,,43,55
214320,note_on,0,0,3,,,,,,,,,2,,,46,55
214398,note_off,78,0,3,,,,,,,,,2,,,55,0
214440,note_off,360,0,1,,,,,,,,,0,,,75,0
214440,note_on,42,0,3,,,,,,,,,2,,,58,55
214440,note_off,360,0,2,,,,,,,,,1,,,67,0
214476,note_off,0,0,3,,,,,,,,,2,,,51,0
214476,note_off,0,0,3,,,,,,,,,2,,,43,0
214476,note_off,36,0,3,,,,,,,,,2,,,46,0
214518,note_off,42,0,3,,,,,,,,,2,,,58,0
214560,note_on,42,0,3,,,,,,,,,2,,,63,55
214560,note_on,120,0,1,,,,,,,,,0,,,75,55
214560,note_on,324,0,5,,,,,,,,,4,,,39,56
214560,note_on,120,0,2,,,,,,,,,1,,,67,55
214638,note_off,78,0,3,,,,,,,,,2,,,63,0
214680,note_on,42,0,3,,,,,,,,,2,,,58,55
214716,note_off,156,0,5,,,,,,,,,4,,,39,0
214758,note_off,78,0,3,,,,,,,,,2,,,58,0
214800,note_on,0,0,3,,,,,,,,,2,,,51,56
214800,note_on,0,0,3,,,,,,,,,2,,,46,56
214800,note_on,42,0,3,,,,,,,,,2,,,55,56
214800,note_on,0,0,3,,,,,,,,,2,,,43,56
214878,note_off,78,0,3,,,,,,,,,2,,,55,0
214920,note_off,360,0,2,,,,,,,,,1,,,67,0
214920,note_on,42,0,3,,,,,,,,,2,,,58,56
214920,note_off,360,0,1,,,,,,,,,0,,,75,0
214956,note_off,0,0,3,,,,,,,,,2,,,46,0
214956,note_off,0,0,3,,,,,,,,,2,,,51,0
214956,note_off,36,0,3,,,,,,,,,2,,,43,0
214980,note_on,60,0,2,,,,,,,,,1,,,67,56
214980,note_on,60,0,1,,,,,,,,,0,,,75,56
214980,set_tempo,900,1,0,,,,,,495867,,,,,,,
214998,note_off,42,0,3,,,,,,,,,2,,,58,0
215028,note_off,48,0,1,,,,,,,,,0,,,75,0
215028,note_off,48,0,2,,,,,,,,,1,,,67,0
215040,note_on,12,0,1,,,,,,,,,0,,,75,56
215040,note_on,12,0,2,,,,,,,,,1,,,67,56
215040,note_on,42,0,3,,,,,,,,,2,,,63,56
215040,set_tempo,60,1,0,,,,,,487804,,,,,,,
215118,note_off,78,0,3,,,,,,,,,2,,,63,0
215160,note_on,42,0,3,,,,,,,,,2,,,58,57
215238,note_off,78,0,3,,,,,,,,,2,,,58,0
215280,note_on,42,0,3,,,,,,,,,2,,,55,57
215280,note_on,0,0,3,,,,,,,,,2,,,51,57
215280,note_on,564,0,5,,,,,,,,,4,,,39,57
215358,note_off,78,0,3,,,,,,,,,2,,,55,0
215400,note_off,360,0,1,,,,,,,,,0,,,75,0
215400,note_off,360,0,2,,,,,,,,,1,,,67,0
215400,note_on,42,0,3,,,,,,,,,2,,,58,57
215460,note_on,60,0,1,,,,,,,,,0,,,77,57
215478,note_off,78,0,3,,,,,,,,,2,,,58,0
215520,note_off,240,0,5,,,,,,,,,4,,,39,0
215520,note_off,42,0,3,,,,,,,,,2,,,51,0
215520,note_on,0,0,3,,,,,,,,,2,,,63,58
215520,note_on,0,0,3,,,,,,,,,2,,,55,58
215520,note_off,60,0,1,,,,,,,,,0,,,77,0
215520,note_on,0,0,1,,,,,,,,,0,,,75,58
215520,note_on,0,0,5,,,,,,,,,4,,,43,58
215598,note_off,78,0,3,,,,,,,,,2,,,63,0
215640,note_on,42,0,3,,,,,,,,,2,,,58,58
215640,note_off,120,0,1,,,,,,,,,0,,,75,0
215640,note_on,0,0,1,,,,,,,,,0,,,74,58
215718,note_off,78,0,3,,,,,,,,,2,,,58,0
215760,note_on,0,0,1,,,,,,,,,0,,,75,58
215760,note_off,42,0,3,,,,,,,,,2,,,55,0
215760,note_off,240,0,5,,,,,,,,,4,,,43,0
215760,note_on,0,0,5,,,,,,,,,4,,,39,58
215760,note_off,120,0,1,,,,,,,,,0,,,74,0
215760,note_on,0,0,3,,,,,,,,,2,,,63,58
215760,note_on,0,0,3,,,,,,,,,2,,,51,58
215838,note_off,78,0,3,,,,,,,,,2,,,63,0
215880,note_on,0,0,1,,,,,,,,,0,,,79,59
215880,note_on,42,0,3,,,,,,,,,2,,,67,59
215880,note_off,120,0,1,,,,,,,,,0,,,75,0
215895,set_tempo,855,1,0,,,,,,500000,,,,,,,
215958,note_off,78,0,3,,,,,,,,,2,,,67,0
216000,note_off,120,0,1,,,,,,,,,0,,,79,0
216000,note_on,0,0,1,,,,,,,,,0,,,77,59
216000,note_on,0,0,3,,,,,,,,,2,,,65,59
216000,set_tempo,105,1,0,,,,,,487804,,,,,,,
216000,note_off,42,0,3,,,,,,,,,2,,,51,0
216000,note_on,0,0,3,,,,,,,,,2,,,46,59
216000,note_on,0,0,5,,,,,,,,,4,,,34,59
216000,note_off,240,0,5,,,,,,,,,4,,,39,0
216078,note_off,78,0,3,,,,,,,,,2,,,65,0
216120,note_on,42,0,3,,,,,,,,,2,,,62,59
216156,note_off,156,0,5,,,,,,,,,4,,,34,0
216156,note_off,36,0,3,,,,,,,,,2,,,46,0
216198,note_off,42,0,3,,,,,,,,,2,,,62,0
216240,note_on,42,0,3,,,,,,,,,2,,,58,60
216240,note_on,0,0,3,,,,,,,,,2,,,53,59
216240,note_on,0,0,3,,,,,,,,,2,,,50,59
216240,note_on,0,0,3,,,,,,,,,2,,,46,59
216318,note_off,78,0,3,,,,,,,,,2,,,58,0
216360,note_on,42,0,3,,,,,,,,,2,,,62,60
216360,note_off,360,0,1,,,,,,,,,0,,,77,0
216396,note_off,36,0,3,,,,,,,,,2,,,50,0
216396,note_off,0,0,3,,,,,,,,,2,,,53,0
216396,note_off,0,0,3,,,,,,,,,2,,,46,0
216438,note_off,42,0,3,,,,,,,,,2,,,62,0
216480,note_on,42,0,3,,,,,,,,,2,,,65,60
216480,note_on,120,0,1,,,,,,,,,0,,,77,60
216480,note_on,324,0,5,,,,,,,,,4,,,34,60
216558,note_off,78,0,3,,,,,,,,,2,,,65,0
216600,note_on,42,0,3,,,,,,,,,2,,,62,61
216636,note_off,156,0,5,,,,,,,,,4,,,34,0
216678,note_off,78,0,3,,,,,,,,,2,,,62,0
216720,note_on,0,0,3,,,,,,,,,2,,,50,61
216720,note_on,0,0,3,,,,,,,,,2,,,53,61
216720,note_on,0,0,3,,,,,,,,,2,,,46,61
216720,note_on,42,0,3,,,,,,,,,2,,,58,61
216798,note_off,78,0,3,,,,,,,,,2,,,58,0
216840,note_off,360,0,1,,,,,,,,,0,,,77,0
216840,note_on,42,0,3,,,,,,,,,2,,,62,62
216876,note_off,36,0,3,,,,,,,,,2,,,50,0
216876,note_off,0,0,3,,,,,,,,,2,,,53,0
216876,note_off,0,0,3,,,,,,,,,2,,,46,0
216900,note_on,60,0,1,,,,,,,,,0,,,77,62
216900,set_tempo,900,1,0,,,,,,495867,,,,,,,
216918,note_off,42,0,3,,,,,,,,,2,,,62,0
216948,note_off,48,0,1,,,,,,,,,0,,,77,0
216960,set_tempo,60,1,0,,,,,,487804,,,,,,,
216960,note_on,12,0,1,,,,,,,,,0,,,77,62
216960,note_on,42,0,3,,,,,,,,,2,,,65,62
217038,note_off,78,0,3,,,,,,,,,2,,,65,0
217080,note_on,42,0,3,,,,,,,,,2,,,62,62
217158,note_off,78,0,3,,,,,,,,,2,,,62,0
217200,note_on,564,0,5,,,,,,,,,4,,,34,62
217200,note_on,42,0,3,,,,,,,,,2,,,58,63
217200,note_on,0,0,3,,,,,,,,,2,,,46,62
217278,note_off,78,0,3,,,,,,,,,2,,,58,0
217320,note_on,42,0,3,,,,,,,,,2,,,62,63
217320,note_off,360,0,1,,,,,,,,,0,,,77,0
217380,note_on,60,0,1,,,,,,,,,0,,,79,63
217398,note_off,78,0,3,,,,,,,,,2,,,62,0
217440,note_off,42,0,3,,,,,,,,,2,,,46,0
217440,note_on,0,0,3,,,,,,,,,2,,,50,62
217440,note_on,0,0,3,,,,,,,,,2,,,65,63
217440,note_off,60,0,1,,,,,,,,,0,,,79,0
217440,note_on,0,0,5,,,,,,,,,4,,,38,62
217440,note_off,240,0,5,,,,,,,,,4,,,34,0
217440,note_on,0,0,1,,,,,,,,,0,,,77,63
217560,note_off,120,0,1,,,,,,,,,0,,,77,0
217560,note_on,0,0,1,,,,,,,,,0,,,76,63
217560,note_on,120,0,3,,,,,,,,,2,,,64,54
217567,note_off,7,0,3,,,,,,,,,2,,,65,0
217680,note_on,0,0,1,,,,,,,,,0,,,77,63
217680,note_off,113,0,3,,,,,,,,,2,,,50,0
217680,note_on,0,0,5,,,,,,,,,4,,,34,63
217680,note_off,240,0,5,,,,,,,,,4,,,38,0
217680,note_on,0,0,3,,,,,,,,,2,,,46,63
217680,note_off,120,0,1,,,,,,,,,0,,,76,0
217680,note_on,0,0,3,,,,,,,,,2,,,65,54
217687,note_off,7,0,3,,,,,,,,,2,,,64,0
217800,note_off,120,0,1,,,,,,,,,0,,,77,0
217800,note_on,113,0,3,,,,,,,,,2,,,68,54
217800,note_on,0,0,1,,,,,,,,,0,,,80,63
217807,note_off,7,0,3,,,,,,,,,2,,,65,0
217815,set_tempo,855,1,0,,,,,,495867,,,,,,,
217920,note_off,113,0,3,,,,,,,,,2,,,46,0
217920,note_on,0,0,3,,,,,,,,,2,,,63,64
217920,note_on,0,0,3,,,,,,,,,2,,,67,64
217920,note_on,0,0,3,,,,,,,,,2,,,75,64
217920,note_on,0,0,3,,,,,,,,,2,,,51,64
217920,note_on,0,0,5,,,,,,,,,4,,,39,64
217920,note_off,240,0,5,,,,,,,,,4,,,34,0
217920,set_tempo,105,1,0,,,,,,495867,,,,,,,
217920,note_off,120,0,1,,,,,,,,,0,,,80,0
217920,note_on,0,0,1,,,,,,,,,0,,,79,64
217927,note_off,7,0,3,,,,,,,,,2,,,68,0
218040,note_off,113,0,3,,,,,,,,,2,,,51,0
218040,note_on,0,0,3,,,,,,,,,2,,,51,66
218040,note_on,0,0,3,,,,,,,,,2,,,55,66
218160,note_off,0,0,3,,,,,,,,,2,,,67,0
218160,note_off,240,0,1,,,,,,,,,0,,,79,0
218160,note_on,0,0,1,,,,,,,,,0,,,80,67
218160,note_off,120,0,3,,,,,,,,,2,,,55,0
218160,note_off,0,0,3,,,,,,,,,2,,,51,0
218160,note_off,240,0,5,,,,,,,,,4,,,39,0
218160,note_off,0,0,3,,,,,,,,,2,,,75,0
218160,note_off,0,0,3,,,,,,,,,2,,,63,0
218160,note_on,0,0,3,,,,,,,,,2,,,65,67
218160,note_on,0,0,5,,,,,,,,,4,,,51,67
218160,note_on,0,0,3,,,,,,,,,2,,,56,67
218160,note_on,0,0,3,,,,,,,,,2,,,68,67
218160,note_on,0,0,3,,,,,,,,,2,,,77,67
218160,note_on,0,0,3,,,,,,,,,2,,,53,67
218280,note_on,0,0,3,,,,,,,,,2,,,55,69
218280,note_off,120,0,1,,,,,,,,,0,,,80,0
218280,note_on,0,0,1,,,,,,,,,0,,,82,69
218280,note_on,0,0,3,,,,,,,,,2,,,58,69
218280,note_on,0,0,3,,,,,,,,,2,,,70,69
218280,note_on,0,0,3,,,,,,,,,2,,,79,69
218280,note_off,0,0,3,,,,,,,,,2,,,68,0
218280,note_off,0,0,3,,,,,,,,,2,,,65,0
218280,note_off,0,0,3,,,,,,,,,2,,,77,0
218280,note_off,0,0,3,,,,,,,,,2,,,53,0
218280,note_off,120,0,3,,,,,,,,,2,,,56,0
218280,note_on,0,0,3,,,,,,,,,2,,,67,69
218340,note_on,0,0,5,,,,,,,,,4,,,51,70
218340,note_off,180,0,5,,,,,,,,,4,,,51,0
218400,set_tempo,480,1,0,,,,,,495867,,,,,,,
218400,note_off,120,0,1,,,,,,,,,0,,,82,0
218400,note_on,0,0,5,,,,,,,,,4,,,51,70
218400,note_off,60,0,5,,,,,,,,,4,,,51,0
218400,note_on,0,0,1,,,,,,,,,0,,,84,70
218400,note_on,0,0,3,,,,,,,,,2,,,56,70
218400,note_on,0,0,3,,,,,,,,,2,,,68,70
218400,note_off,120,0,3,,,,,,,,,2,,,55,0
218400,note_off,0,0,3,,,,,,,,,2,,,58,0
218400,note_on,0,0,3,,,,,,,,,2,,,80,70
218400,note_off,0,0,3,,,,,,,,,2,,,79,0
218400,note_off,0,0,3,,,,,,,,,2,,,70,0
218400,note_off,0,0,3,,,,,,,,,2,,,67,0
218400,note_on,0,0,3,,,,,,,,,2,,,60,70
218400,note_on,0,0,3,,,,,,,,,2,,,72,70
218520,note_off,120,0,1,,,,,,,,,0,,,84,0
218520,note_off,120,0,3,,,,,,,,,2,,,56,0
218520,note_off,0,0,3,,,,,,,,,2,,,80,0
218520,note_on,0,0,3,,,,,,,,,2,,,82,72
218520,note_on,0,0,3,,,,,,,,,2,,,70,72
218520,note_on,0,0,3,,,,,,,,,2,,,74,72
218520,note_on,0,0,3,,,,,,,,,2,,,62,72
218520,note_off,0,0,3,,,,,,,,,2,,,60,0
218520,note_off,0,0,3,,,,,,,,,2,,,68,0
218520,note_off,0,0,3,,,,,,,,,2,,,72,0
218520,note_on,0,0,3,,,,,,,,,2,,,58,72
218520,note_on,0,0,1,,,,,,,,,0,,,86,72
218640,note_off,240,0,5,,,,,,,,,4,,,51,0
218640,note_on,0,0,5,,,,,,,,,4,,,51,73
218640,note_on,0,0,3,,,,,,,,,2,,,75,73
218640,note_on,0,0,1,,,,,,,,,0,,,87,73
218640,note_on,0,0,3,,,,,,,,,2,,,84,73
218640,note_off,120,0,3,,,,,,,,,2,,,58,0
218640,note_off,0,0,3,,,,,,,,,2,,,82,0
218640,note_off,0,0,3,,,,,,,,,2,,,70,0
218640,note_on,0,0,3,,,,,,,,,2,,,72,73
218640,note_off,0,0,3,,,,,,,,,2,,,62,0
218640,note_on,0,0,3,,,,,,,,,2,,,63,73
218640,note_on,0,0,3,,,,,,,,,2,,,60,73
218640,note_off,0,0,3,,,,,,,,,2,,,74,0
218640,note_off,120,0,1,,,,,,,,,0,,,86,0
218760,note_on,0,0,3,,,,,,,,,2,,,60,75
218760,note_off,120,0,3,,,,,,,,,2,,,84,0
218760,note_off,0,0,3,,,,,,,,,2,,,72,0
218760,note_off,0,0,3,,,,,,,,,2,,,75,0
218760,note_off,0,0,3,,,,,,,,,2,,,60,0
218760,note_off,0,0,3,,,,,,,,,2,,,63,0
218760,note_on,0,0,3,,,,,,,,,2,,,72,75
218760,note_on,0,0,3,,,,,,,,,2,,,68,75
218760,note_off,120,0,1,,,,,,,,,0,,,87,0
218760,note_on,0,0,1,,,,,,,,,0,,,84,75
218760,note_on,0,0,3,,,,,,,,,2,,,80,75
218760,note_on,0,0,3,,,,,,,,,2,,,56,75
218820,set_tempo,420,1,0,,,,,,500000,,,,,,,
218880,note_off,120,0,3,,,,,,,,,2,,,56,0
218880,note_off,0,0,3,,,,,,,,,2,,,80,0
218880,note_off,0,0,3,,,,,,,,,2,,,68,0
218880,note_off,0,0,3,,,,,,,,,2,,,72,0
218880,note_off,240,0,5,,,,,,,,,4,,,51,0
218880,note_off,0,0,3,,,,,,,,,2,,,60,0
218880,note_on,0,0,3,,,,,,,,,2,,,67,78
218880,note_on,0,0,3,,,,,,,,,2,,,79,78
218880,note_on,0,0,3,,,,,,,,,2,,,58,78
218880,note_on,0,0,3,,,,,,,,,2,,,55,78
218880,note_on,0,0,1,,,,,,,,,0,,,82,78
218880,note_off,120,0,1,,,,,,,,,0,,,84,0
218880,note_on,0,0,3,,,,,,,,,2,,,70,78
218880,note_on,0,0,5,,,,,,,,,4,,,51,78
218880,set_tempo,60,1,0,,,,,,508474,,,,,,,
219360,note_off,480,0,3,,,,,,,,,2,,,55,0
219360,note_off,0,0,3,,,,,,,,,2,,,58,0
219360,note_on,0,0,3,,,,,,,,,2,,,55,87
219360,note_on,0,0,3,,,,,,,,,2,,,51,87
219360,note_on,0,0,3,,,,,,,,,2,,,63,87
219360,note_on,0,0,3,,,,,,,,,2,,,67,87
219360,note_on,0,0,5,,,,,,,,,4,,,39,87
219360,note_on,0,0,3,,,,,,,,,2,,,75,87
219360,note_off,480,0,1,,,,,,,,,0,,,82,0
219360,note_on,0,0,1,,,,,,,,,0,,,79,87
219360,note_off,0,0,3,,,,,,,,,2,,,70,0
219360,note_off,0,0,3,,,,,,,,,2,,,67,0
219360,note_off,0,0,3,,,,,,,,,2,,,79,0
219360,note_off,480,0,5,,,,,,,,,4,,,51,0
219480,set_tempo,600,1,0,,,,,,571428,,,,,,,
219600,note_off,240,0,5,,,,,,,,,4,,,39,0
219600,note_off,0,0,3,,,,,,,,,2,,,51,0
219600,note_off,240,0,1,,,,,,,,,0,,,79,0
219600,note_off,0,0,3,,,,,,,,,2,,,67,0
219600,note_off,0,0,3,,,,,,,,,2,,,75,0
219600,note_off,0,0,3,,,,,,,,,2,,,63,0
219600,note_off,240,0,3,,,,,,,,,2,,,55,0
219720,note_on,4320,0,2,,,,,,,,,1,,,67,94
219720,note_on,120,0,3,,,,,,,,,2,,,51,94
219720,note_on,120,0,5,,,,,,,,,4,,,39,94
219720,note_on,120,0,1,,,,,,,,,0,,,79,94
219720,note_on,0,0,3,,,,,,,,,2,,,55,94
219727,set_tempo,247,1,0,,,,,,508474,,,,,,,
219840,note_off,0,0,3,,,,,,,,,2,,,51,0
219840,note_on,0,0,3,,,,,,,,,2,,,46,101
219840,note_on,0,0,3,,,,,,,,,2,,,53,101
219840,note_on,0,0,3,,,,,,,,,2,,,50,101
219840,note_on,0,0,5,,,,,,,,,4,,,29,101
219840,note_off,120,0,5,,,,,,,,,4,,,39,0
219840,note_off,120,0,1,,,,,,,,,0,,,79,0
219840,note_on,0,0,1,,,,,,,,,0,,,77,101
219840,set_tempo,113,1,0,,,,,,495867,,,,,,,
219840,note_off,120,0,3,,,,,,,,,2,,,55,0
219840,note_off,120,0,2,,,,,,,,,1,,,67,0
219840,note_on,0,0,2,,,,,,,,,1,,,65,101
220080,note_off,240,0,3,,,,,,,,,2,,,50,0
220080,note_on,0,0,3,,,,,,,,,2,,,58,99
220080,note_on,0,0,3,,,,,,,,,2,,,50,99
220080,note_on,0,0,3,,,,,,,,,2,,,53,99
220080,note_off,0,0,3,,,,,,,,,2,,,53,0
220080,note_on,0,0,5,,,,,,,,,4,,,41,99
220080,note_off,240,0,1,,,,,,,,,0,,,77,0
220080,note_on,0,0,1,,,,,,,,,0,,,82,99
220080,note_on,0,0,2,,,,,,,,,1,,,70,99
220080,note_off,240,0,2,,,,,,,,,1,,,65,0
220080,note_off,240,0,5,,,,,,,,,4,,,29,0
220080,note_off,0,0,3,,,,,,,,,2,,,46,0
220260,note_on,0,0,3,,,,,,,,,2,,,50,97
220260,note_on,0,0,3,,,,,,,,,2,,,53,97
220260,note_on,0,0,3,,,,,,,,,2,,,58,97
220260,note_off,0,0,3,,,,,,,,,2,,,58,0
220260,note_off,180,0,3,,,,,,,,,2,,,53,0
220260,note_off,0,0,3,,,,,,,,,2,,,50,0
220260,note_on,0,0,2,,,,,,,,,1,,,74,97
220260,note_off,180,0,2,,,,,,,,,1,,,70,0
220260,note_on,0,0,5,,,,,,,,,4,,,41,97
220260,note_off,180,0,5,,,,,,,,,4,,,41,0
220260,note_off,180,0,1,,,,,,,,,0,,,82,0
220260,note_on,0,0,1,,,,,,,,,0,,,86,97
220320,note_on,0,0,2,,,,,,,,,1,,,77,97
220320,note_off,60,0,2,,,,,,,,,1,,,74,0
220320,note_off,0,0,3,,,,,,,,,2,,,58,0
220320,note_on,0,0,3,,,,,,,,,2,,,51,97
220320,note_on,0,0,3,,,,,,,,,2,,,57,97
220320,note_on,0,0,3,,,,,,,,,2,,,48,97
220320,note_on,0,0,5,,,,,,,,,4,,,29,97
220320,note_off,60,0,5,,,,,,,,,4,,,41,0
220320,note_off,60,0,1,,,,,,,,,0,,,86,0
220320,note_on,0,0,1,,,,,,,,,0,,,89,97
220320,note_off,0,0,3,,,,,,,,,2,,,50,0
220320,note_off,60,0,3,,,,,,,,,2,,,53,0
220440,note_off,120,0,3,,,,,,,,,2,,,48,0
220440,note_off,0,0,3,,,,,,,,,2,,,57,0
220440,note_off,120,0,2,,,,,,,,,1,,,77,0
220440,note_off,0,0,3,,,,,,,,,2,,,51,0
220440,note_off,120,0,5,,,,,,,,,4,,,29,0
220440,note_off,120,0,1,,,,,,,,,0,,,89,0
220560,note_on,120,0,2,,,,,,,,,1,,,77,92
220560,note_on,120,0,1,,,,,,,,,0,,,89,92
220560,note_on,120,0,5,,,,,,,,,4,,,41,92
220560,note_on,0,0,3,,,,,,,,,2,,,48,92
220560,note_on,0,0,3,,,,,,,,,2,,,57,92
220560,note_on,120,0,3,,,,,,,,,2,,,51,92
220680,note_off,0,0,3,,,,,,,,,2,,,57,0
220680,note_off,120,0,5,,,,,,,,,4,,,41,0
220680,note_off,120,0,2,,,,,,,,,1,,,77,0
220680,note_off,120,0,3,,,,,,,,,2,,,48,0
220680,note_off,120,0,1,,,,,,,,,0,,,89,0
220680,note_off,0,0,3,,,,,,,,,2,,,51,0
220740,set_tempo,900,1,0,,,,,,535714,,,,,,,
220800,note_on,0,0,3,,,,,,,,,2,,,58,96
220800,note_on,120,0,1,,,,,,,,,0,,,82,96
220800,note_on,120,0,5,,,,,,,,,4,,,34,96
220800,note_on,120,0,3,,,,,,,,,2,,,46,96
220800,note_on,120,0,2,,,,,,,,,1,,,70,96
221160,note_off,360,0,1,,,,,,,,,0,,,82,0
221160,note_off,360,0,2,,,,,,,,,1,,,70,0
221280,set_tempo,540,1,0,,,,,,612244,,,,,,,
221520,note_off,0,0,3,,,,,,,,,2,,,46,0
221520,note_on,12240,0,4,,,,,,,,,3,,,48,55
221520,note_on,0,0,4,,,,,,,,,3,,,60,55
221520,note_off,720,0,5,,,,,,,,,4,,,34,0
221520,note_off,720,0,3,,,,,,,,,2,,,58,0
221520,note_on,0,0,5,,,,,,,,,4,,,36,55
221527,set_tempo,247,1,0,,,,,,495867,,,,,,,
221700,set_tempo,173,1,0,,,,,,500000,,,,,,,
221760,note_off,240,0,5,,,,,,,,,4,,,36,0
221760,note_on,600,0,1,,,,,,,,,0,,,73,39
221760,set_tempo,60,1,0,,,,,,487804,,,,,,,
221760,note_off,240,0,4,,,,,,,,,3,,,60,0
221760,note_off,0,0,4,,,,,,,,,3,,,48,0
221760,note_on,0,0,4,,,,,,,,,3,,,49,39
221760,note_on,0,0,4,,,,,,,,,3,,,61,37
221760,note_on,0,0,5,,,,,,,,,4,,,37,39
221880,note_off,120,0,4,,,,,,,,,3,,,61,0
221880,note_on,0,0,4,,,,,,,,,3,,,56,37
222000,note_on,0,0,4,,,,,,,,,3,,,53,37
222000,note_off,120,0,4,,,,,,,,,3,,,56,0
222120,note_on,0,0,4,,,,,,,,,3,,,56,38
222120,note_off,120,0,4,,,,,,,,,3,,,53,0
222240,note_off,480,0,1,,,,,,,,,0,,,73,0
222240,note_on,0,0,4,,,,,,,,,3,,,49,35
222240,note_off,0,0,4,,,,,,,,,3,,,49,0
222240,note_off,120,0,4,,,,,,,,,3,,,56,0
222240,note_on,0,0,5,,,,,,,,,4,,,37,35
222240,note_off,480,0,5,,,,,,,,,4,,,37,0
222240,note_on,0,0,1,,,,,,,,,0,,,73,35
222240,note_on,0,0,4,,,,,,,,,3,,,61,38
222360,note_off,120,0,4,,,,,,,,,3,,,61,0
222360,note_on,0,0,4,,,,,,,,,3,,,56,38
222480,note_on,0,0,4,,,,,,,,,3,,,53,39
222480,note_off,120,0,4,,,,,,,,,3,,,56,0
222600,note_off,360,0,1,,,,,,,,,0,,,73,0
222600,note_off,360,0,5,,,,,,,,,4,,,37,0
222600,note_off,120,0,4,,,,,,,,,3,,,53,0
222600,note_off,0,0,4,,,,,,,,,3,,,49,0
222600,note_on,0,0,4,,,,,,,,,3,,,56,39
222660,note_on,60,0,5,,,,,,,,,4,,,37,37
222660,set_tempo,900,1,0,,,,,,495867,,,,,,,
222660,note_on,60,0,1,,,,,,,,,0,,,73,37
222660,note_on,60,0,4,,,,,,,,,3,,,49,37
222720,note_on,0,0,1,,,,,,,,,0,,,73,37
222720,note_off,60,0,1,,,,,,,,,0,,,73,0
222720,set_tempo,60,1,0,,,,,,487804,,,,,,,
222720,note_off,60,0,5,,,,,,,,,4,,,37,0
222720,note_on,0,0,5,,,,,,,,,4,,,37,37
222720,note_off,0,0,4,,,,,,,,,3,,,56,0
222720,note_on,0,0,4,,,,,,,,,3,,,49,37
222720,note_on,0,0,4,,,,,,,,,3,,,61,40
222720,note_off,60,0,4,,,,,,,,,3,,,49,0
222840,note_on,0,0,4,,,,,,,,,3,,,56,40
222840,note_off,120,0,4,,,,,,,,,3,,,61,0
222960,note_on,0,0,4,,,,,,,,,3,,,53,40
222960,note_off,120,0,4,,,,,,,,,3,,,56,0
223080,note_off,120,0,4,,,,,,,,,3,,,53,0
223080,note_on,0,0,4,,,,,,,,,3,,,56,41
223200,note_on,0,0,1,,,,,,,,,0,,,73,38
223200,note_off,480,0,1,,,,,,,,,0,,,73,0
223200,note_on,0,0,4,,,,,,,,,3,,,61,41
223200,note_off,120,0,4,,,,,,,,,3,,,56,0
223320,note_on,0,0,1,,,,,,,,,0,,,75,38
223320,note_on,0,0,4,,,,,,,,,3,,,63,41
223320,note_off,120,0,1,,,,,,,,,0,,,73,0
223320,note_off,120,0,4,,,,,,,,,3,,,61,0
223440,note_on,0,0,1,,,,,,,,,0,,,77,39
223440,note_off,120,0,4,,,,,,,,,3,,,63,0
223440,note_on,0,0,4,,,,,,,,,3,,,65,42
223440,note_off,120,0,1,,,,,,,,,0,,,75,0
223560,note_on,0,0,4,,,,,,,,,3,,,67,42
223560,note_off,120,0,1,,,,,,,,,0,,,77,0
223560,note_off,120,0,4,,,,,,,,,3,,,65,0
223560,note_on,0,0,1,,,,,,,,,0,,,79,39
223642,set_tempo,922,1,0,,,,,,495867,,,,,,,
223680,note_off,960,0,5,,,,,,,,,4,,,37,0
223680,note_on,0,0,1,,,,,,,,,0,,,80,40
223680,note_off,120,0,1,,,,,,,,,0,,,79,0
223680,note_on,0,0,5,,,,,,,,,4,,,32,40
223680,set_tempo,38,1,0,,,,,,487804,,,,,,,
223680,note_on,0,0,4,,,,,,,,,3,,,68,42
223680,note_on,0,0,4,,,,,,,,,3,,,44,40
223680,note_off,0,0,4,,,,,,,,,3,,,49,0
223680,note_off,120,0,4,,,,,,,,,3,,,67,0
223800,note_on,0,0,4,,,,,,,,,3,,,63,43
223800,note_off,120,0,4,,,,,,,,,3,,,68,0
223920,note_off,120,0,4,,,,,,,,,3,,,63,0
223920,note_on,0,0,4,,,,,,,,,3,,,60,43
224040,note_off,120,0,4,,,,,,,,,3,,,60,0
224040,note_on,0,0,4,,,,,,,,,3,,,63,43
224160,note_off,0,0,4,,,,,,,,,3,,,44,0
224160,note_off,480,0,5,,,,,,,,,4,,,32,0
224160,note_on,0,0,1,,,,,,,,,0,,,80,41
224160,note_off,480,0,1,,,,,,,,,0,,,80,0
224160,note_off,120,0,4,,,,,,,,,3,,,63,0
224160,note_on,0,0,5,,,,,,,,,4,,,32,41
224160,note_on,0,0,4,,,,,,,,,3,,,44,41
224160,note_on,0,0,4,,,,,,,,,3,,,68,44
224280,note_on,0,0,4,,,,,,,,,3,,,63,44
224280,note_off,120,0,4,,,,,,,,,3,,,68,0
224400,note_off,120,0,4,,,,,,,,,3,,,63,0
224400,note_on,0,0,4,,,,,,,,,3,,,60,45
224520,note_off,0,0,4,,,,,,,,,3,,,44,0
224520,note_off,120,0,4,,,,,,,,,3,,,60,0
224520,note_on,0,0,4,,,,,,,,,3,,,63,45
224520,note_off,360,0,1,,,,,,,,,0,,,80,0
224520,note_off,360,0,5,,,,,,,,,4,,,32,0
224580,note_on,60,0,4,,,,,,,,,3,,,44,42
224580,note_on,60,0,1,,,,,,,,,0,,,80,42
224580,set_tempo,900,1,0,,,,,,495867,,,,,,,
224580,note_on,60,0,5,,,,,,,,,4,,,32,42
224640,note_off,60,0,5,,,,,,,,,4,,,32,0
224640,note_on,0,0,5,,,,,,,,,4,,,32,42
224640,note_off,60,0,1,,,,,,,,,0,,,80,0
224640,note_off,0,0,4,,,,,,,,,3,,,63,0
224640,note_on,0,0,1,,,,,,,,,0,,,80,42
224640,set_tempo,60,1,0,,,,,,487804,,,,,,,
224640,note_off,60,0,4,,,,,,,,,3,,,44,0
224640,note_on,0,0,4,,,,,,,,,3,,,68,44
224640,note_on,0,0,4,,,,,,,,,3,,,44,42
224760,note_off,120,0,4,,,,,,,,,3,,,68,0
224760,note_on,0,0,4,,,,,,,,,3,,,63,46
224880,note_off,120,0,4,,,,,,,,,3,,,63,0
224880,note_on,0,0,4,,,,,,,,,3,,,60,47
225000,note_off,120,0,4,,,,,,,,,3,,,60,0
225000,note_on,0,0,4,,,,,,,,,3,,,63,48
225120,note_off,480,0,1,,,,,,,,,0,,,80,0
225120,note_on,0,0,1,,,,,,,,,0,,,80,44
225120,note_on,0,0,4,,,,,,,,,3,,,68,50
225120,note_off,120,0,4,,,,,,,,,3,,,63,0
225240,note_off,120,0,4,,,,,,,,,3,,,68,0
225240,note_off,120,0,1,,,,,,,,,0,,,80,0
225240,note_on,0,0,4,,,,,,,,,3,,,67,51
225240,note_on,0,0,1,,,,,,,,,0,,,79,44
225360,note_on,0,0,1,,,,,,,,,0,,,77,45
225360,note_on,0,0,4,,,,,,,,,3,,,65,51
225360,note_off,120,0,4,,,,,,,,,3,,,67,0
225360,note_off,120,0,1,,,,,,,,,0,,,79,0
225480,note_off,120,0,1,,,,,,,,,0,,,77,0
225480,note_on,0,0,1,,,,,,,,,0,,,75,45
225480,note_off,120,0,4,,,,,,,,,3,,,65,0
225480,note_on,0,0,4,,,,,,,,,3,,,63,55
225540,set_tempo,900,1,0,,,,,,495867,,,,,,,
225600,note_off,120,0,1,,,,,,,,,0,,,75,0
225600,set_tempo,60,1,0,,,,,,495867,,,,,,,
225600,note_on,0,0,4,,,,,,,,,3,,,62,44
225600,note_on,0,0,1,,,,,,,,,0,,,74,44
225600,note_on,0,0,4,,,,,,,,,3,,,53,44
225600,note_off,0,0,4,,,,,,,,,3,,,44,0
225600,note_on,4440,0,2,,,,,,,,,1,,,68,44
225600,note_off,960,0,5,,,,,,,,,4,,,32,0
225600,note_on,0,0,2,,,,,,,,,1,,,65,44
225600,note_on,0,0,5,,,,,,,,,4,,,34,44
225600,note_on,0,0,4,,,,,,,,,3,,,46,44
225600,note_on,0,0,4,,,,,,,,,3,,,56,44
225600,note_off,120,0,4,,,,,,,,,3,,,63,0
226080,note_off,0,0,4,,,,,,,,,3,,,46,0
226080,note_on,0,0,5,,,,,,,,,4,,,34,50
226080,note_off,480,0,4,,,,,,,,,3,,,62,0
226080,note_off,480,0,2,,,,,,,,,1,,,65,0
226080,note_off,0,0,2,,,,,,,,,1,,,68,0
226080,note_on,0,0,2,,,,,,,,,1,,,68,50
226080,note_off,0,0,4,,,,,,,,,3,,,56,0
226080,note_on,0,0,2,,,,,,,,,1,,,65,50
226080,note_on,0,0,1,,,,,,,,,0,,,74,50
226080,note_off,480,0,5,,,,,,,,,4,,,34,0
226080,note_off,0,0,4,,,,,,,,,3,,,53,0
226080,note_on,0,0,4,,,,,,,,,3,,,62,50
226080,note_on,0,0,4,,,,,,,,,3,,,56,50
226080,note_on,0,0,4,,,,,,,,,3,,,46,50
226080,note_off,480,0,1,,,,,,,,,0,,,74,0
226080,note_on,0,0,4,,,,,,,,,3,,,53,50
226320,note_off,0,0,4,,,,,,,,,3,,,62,0
226320,note_on,0,0,1,,,,,,,,,0,,,74,51
226320,note_off,240,0,4,,,,,,,,,3,,,53,0
226320,note_on,0,0,5,,,,,,,,,4,,,35,51
226320,note_off,240,0,5,,,,,,,,,4,,,34,0
226320,note_off,0,0,4,,,,,,,,,3,,,46,0
226320,note_on,0,0,4,,,,,,,,,3,,,47,51
226320,note_on,0,0,4,,,,,,,,,3,,,62,51
226320,note_on,0,0,4,,,,,,,,,3,,,53,51
226320,note_on,0,0,4,,,,,,,,,3,,,56,51
226320,note_off,240,0,2,,,,,,,,,1,,,65,0
226320,note_off,0,0,2,,,,,,,,,1,,,68,0
226320,note_off,0,0,4,,,,,,,,,3,,,56,0
226320,note_on,0,0,2,,,,,,,,,1,,,68,51
226320,note_on,0,0,2,,,,,,,,,1,,,65,51
226320,note_off,240,0,1,,,,,,,,,0,,,74,0
226360,note_on,0,0,1,,,,,,,,,0,,,75,53
226360,note_off,40,0,1,,,,,,,,,0,,,74,0
226400,note_on,0,0,1,,,,,,,,,0,,,74,54
226400,note_off,40,0,1,,,,,,,,,0,,,75,0
226440,note_on,0,0,1,,,,,,,,,0,,,72,55
226440,note_off,40,0,1,,,,,,,,,0,,,74,0
226500,set_tempo,900,1,0,,,,,,500000,,,,,,,
226500,note_on,0,0,1,,,,,,,,,0,,,74,58
226500,note_off,60,0,1,,,,,,,,,0,,,72,0
226560,note_off,0,0,2,,,,,,,,,1,,,65,0
226560,note_on,0,0,2,,,,,,,,,1,,,67,60
226560,set_tempo,60,1,0,,,,,,495867,,,,,,,
226560,note_off,240,0,2,,,,,,,,,1,,,68,0
226560,note_on,0,0,5,,,,,,,,,4,,,36,60
226560,note_on,0,0,1,,,,,,,,,0,,,75,60
226560,note_off,240,0,4,,,,,,,,,3,,,56,0
226560,note_off,0,0,4,,,,,,,,,3,,,47,0
226560,note_on,0,0,4,,,,,,,,,3,,,48,60
226560,note_on,0,0,4,,,,,,,,,3,,,55,60
226560,note_on,0,0,4,,,,,,,,,3,,,63,60
226560,note_on,0,0,4,,,,,,,,,3,,,51,60
226560,note_off,0,0,4,,,,,,,,,3,,,53,0
226560,note_off,240,0,5,,,,,,,,,4,,,35,0
226560,note_off,0,0,4,,,,,,,,,3,,,62,0
226560,note_off,60,0,1,,,,,,,,,0,,,74,0
226680,note_off,120,0,1,,,,,,,,,0,,,75,0
226680,note_off,120,0,2,,,,,,,,,1,,,67,0
226800,note_on,0,0,4,,,,,,,,,3,,,63,59
226800,note_on,120,0,1,,,,,,,,,0,,,75,59
226800,note_on,120,0,2,,,,,,,,,1,,,67,59
226800,note_off,240,0,4,,,,,,,,,3,,,51,0
226800,note_off,0,0,4,,,,,,,,,3,,,55,0
226800,note_off,0,0,4,,,,,,,,,3,,,63,0
226800,note_on,0,0,4,,,,,,,,,3,,,48,59
226800,note_on,0,0,4,,,,,,,,,3,,,55,59
226800,note_off,240,0,5,,,,,,,,,4,,,36,0
226800,note_on,0,0,4,,,,,,,,,3,,,51,59
226800,note_off,0,0,4,,,,,,,,,3,,,48,0
226800,note_on,0,0,5,,,,,,,,,4,,,36,59
226920,note_off,120,0,4,,,,,,,,,3,,,63,0
226920,note_off,0,0,4,,,,,,,,,3,,,48,0
226920,note_off,0,0,4,,,,,,,,,3,,,55,0
226920,note_off,120,0,2,,,,,,,,,1,,,67,0
226920,note_off,0,0,4,,,,,,,,,3,,,51,0
226920,note_off,120,0,5,,,,,,,,,4,,,36,0
226920,note_off,120,0,1,,,,,,,,,0,,,75,0
227160,set_tempo,600,1,0,,,,,,500000,,,,,,,
227280,note_on,360,0,1,,,,,,,,,0,,,75,61
227280,set_tempo,120,1,0,,,,,,500000,,,,,,,
227280,note_on,0,0,4,,,,,,,,,3,,,55,61
227280,note_on,0,0,4,,,,,,,,,3,,,51,61
227280,note_on,360,0,5,,,,,,,,,4,,,36,61
227280,note_on,360,0,2,,,,,,,,,1,,,67,61
227280,note_on,360,0,4,,,,,,,,,3,,,48,61
227400,note_off,120,0,5,,,,,,,,,4,,,36,0
227400,note_off,120,0,1,,,,,,,,,0,,,75,0
227400,note_off,0,0,4,,,,,,,,,3,,,55,0
227400,note_off,120,0,2,,,,,,,,,1,,,67,0
227400,note_off,0,0,4,,,,,,,,,3,,,48,0
227400,note_off,120,0,4,,,,,,,,,3,,,51,0
227400,note_on,0,0,1,,,,,,,,,0,,,77,63
227520,note_on,120,0,4,,,,,,,,,3,,,48,66
227520,note_on,0,0,4,,,,,,,,,3,,,55,66
227520,set_tempo,240,1,0,,,,,,495867,,,,,,,
227520,note_on,0,0,1,,,,,,,,,0,,,79,66
227520,note_on,0,0,4,,,,,,,,,3,,,51,66
227520,note_on,120,0,5,,,,,,,,,4,,,36,66
227520,note_on,120,0,2,,,,,,,,,1,,,67,66
227520,note_on,0,0,2,,,,,,,,,1,,,63,66
227520,note_on,0,0,2,,,,,,,,,1,,,75,66
227520,note_off,120,0,1,,,,,,,,,0,,,77,0
227880,note_off,0,0,4,,,,,,,,,3,,,55,0
227880,note_off,0,0,4,,,,,,,,,3,,,48,0
227880,note_off,360,0,5,,,,,,,,,4,,,36,0
227880,note_off,360,0,4,,,,,,,,,3,,,51,0
227940,note_on,0,0,4,,,,,,,,,3,,,51,67
227940,note_on,0,0,4,,,,,,,,,3,,,55,67
227940,note_on,0,0,4,,,,,,,,,3,,,36,67
227940,note_on,60,0,4,,,,,,,,,3,,,48,67
228000,note_off,480,0,1,,,,,,,,,0,,,79,0
228000,note_off,0,0,2,,,,,,,,,1,,,67,0
228000,note_on,0,0,2,,,,,,,,,1,,,69,68
228000,note_on,120,0,5,,,,,,,,,4,,,29,68
228000,note_on,0,0,2,,,,,,,,,1,,,63,68
228000,note_on,0,0,2,,,,,,,,,1,,,75,68
228000,note_off,0,0,2,,,,,,,,,1,,,63,0
228000,note_on,0,0,4,,,,,,,,,3,,,51,68
228000,note_off,480,0,2,,,,,,,,,1,,,75,0
228000,note_on,0,0,4,,,,,,,,,3,,,41,68
228000,note_off,0,0,4,,,,,,,,,3,,,48,0
228000,note_off,0,0,4,,,,,,,,,3,,,36,0
228000,note_off,0,0,4,,,,,,,,,3,,,55,0
228000,note_off,60,0,4,,,,,,,,,3,,,51,0
228000,note_on,0,0,1,,,,,,,,,0,,,81,68
228000,note_on,0,0,4,,,,,,,,,3,,,60,68
228360,note_off,0,0,4,,,,,,,,,3,,,60,0
228360,note_off,0,0,4,,,,,,,,,3,,,41,0
228360,note_off,360,0,5,,,,,,,,,4,,,29,0
228360,note_off,360,0,4,,,,,,,,,3,,,51,0
228420,note_on,60,0,5,,,,,,,,,4,,,29,69
228420,set_tempo,900,1,0,,,,,,500000,,,,,,,
228420,note_on,0,0,4,,,,,,,,,3,,,51,69
228420,note_on,60,0,4,,,,,,,,,3,,,41,69
228420,note_on,0,0,4,,,,,,,,,3,,,60,69
228480,note_on,6960,0,3,,,,,,,,,2,,,70,62
228480,note_on,0,0,3,,,,,,,,,2,,,62,62
228480,note_off,60,0,5,,,,,,,,,4,,,29,0
228480,note_off,480,0,2,,,,,,,,,1,,,75,0
228480,note_off,0,0,2,,,,,,,,,1,,,63,0
228480,note_off,0,0,2,,,,,,,,,1,,,69,0
228480,note_on,0,0,2,,,,,,,,,1,,,74,73
228480,set_tempo,60,1,0,,,,,,508474,,,,,,,
228480,note_on,0,0,5,,,,,,,,,4,,,34,69
228480,note_on,0,0,1,,,,,,,,,0,,,82,73
228480,note_off,60,0,4,,,,,,,,,3,,,51,0
228480,note_off,480,0,1,,,,,,,,,0,,,81,0
228480,note_off,0,0,4,,,,,,,,,3,,,60,0
228480,note_off,0,0,4,,,,,,,,,3,,,41,0
228480,note_on,0,0,4,,,,,,,,,3,,,50,69
228480,note_on,0,0,4,,,,,,,,,3,,,58,69
228480,note_on,0,0,4,,,,,,,,,3,,,46,69
228560,note_on,0,0,3,,,,,,,,,2,,,62,62
228560,note_off,0,0,3,,,,,,,,,2,,,70,0
228560,note_off,80,0,3,,,,,,,,,2,,,62,0
228640,note_on,0,0,3,,,,,,,,,2,,,65,63
228640,note_off,80,0,3,,,,,,,,,2,,,62,0
228720,set_tempo,240,1,0,,,,,,495867,,,,,,,
228720,note_off,0,0,4,,,,,,,,,3,,,50,0
228720,note_on,0,0,5,,,,,,,,,4,,,41,70
228720,note_on,0,0,4,,,,,,,,,3,,,53,70
228720,note_off,80,0,3,,,,,,,,,2,,,65,0
228720,note_on,0,0,3,,,,,,,,,2,,,70,63
228720,note_off,0,0,4,,,,,,,,,3,,,46,0
228720,note_off,240,0,5,,,,,,,,,4,,,34,0
228720,note_off,240,0,4,,,,,,,,,3,,,58,0
228800,note_on,0,0,3,,,,,,,,,2,,,65,63
228800,note_off,80,0,3,,,,,,,,,2,,,70,0
228880,note_off,80,0,3,,,,,,,,,2,,,65,0
228880,note_on,0,0,3,,,,,,,,,2,,,62,64
228900,note_on,0,0,5,,,,,,,,,4,,,38,71
228900,note_off,180,0,5,,,,,,,,,4,,,41,0
228900,note_off,180,0,4,,,,,,,,,3,,,53,0
228900,note_on,0,0,4,,,,,,,,,3,,,50,71
228960,note_on,0,0,5,,,,,,,,,4,,,34,71
228960,note_off,80,0,3,,,,,,,,,2,,,62,0
228960,note_on,0,0,3,,,,,,,,,2,,,58,64
228960,note_off,60,0,5,,,,,,,,,4,,,38,0
228960,note_on,0,0,4,,,,,,,,,3,,,46,71
228960,note_off,60,0,4,,,,,,,,,3,,,50,0
228960,note_off,480,0,2,,,,,,,,,1,,,74,0
228960,note_off,480,0,1,,,,,,,,,0,,,82,0
229040,note_on,0,0,3,,,,,,,,,2,,,63,64
229040,note_off,80,0,3,,,,,,,,,2,,,58,0
229120,note_on,0,0,3,,,,,,,,,2,,,67,65
229120,note_off,80,0,3,,,,,,,,,2,,,63,0
229200,note_on,240,0,1,,,,,,,,,0,,,82,85
229200,note_on,0,0,4,,,,,,,,,3,,,44,72
229200,note_off,240,0,4,,,,,,,,,3,,,46,0
229200,note_on,0,0,3,,,,,,,,,2,,,70,65
229200,note_off,80,0,3,,,,,,,,,2,,,67,0
229200,note_off,240,0,5,,,,,,,,,4,,,34,0
229200,note_on,0,0,5,,,,,,,,,4,,,32,72
229280,note_off,80,0,3,,,,,,,,,2,,,70,0
229280,note_on,0,0,3,,,,,,,,,2,,,67,65
229360,note_on,0,0,3,,,,,,,,,2,,,63,66
229360,note_off,80,0,3,,,,,,,,,2,,,67,0
229380,set_tempo,660,1,0,,,,,,500000,,,,,,,
229440,note_off,240,0,4,,,,,,,,,3,,,44,0
229440,note_off,80,0,3,,,,,,,,,2,,,63,0
229440,note_on,0,0,3,,,,,,,,,2,,,58,66
229440,note_on,240,0,5,,,,,,,,,4,,,31,73
229440,set_tempo,60,1,0,,,,,,495867,,,,,,,
229440,note_on,0,0,4,,,,,,,,,3,,,43,73
229455,note_off,15,0,5,,,,,,,,,4,,,32,0
229520,note_off,80,0,3,,,,,,,,,2,,,58,0
229520,note_on,0,0,3,,,,,,,,,2,,,63,66
229600,note_on,0,0,3,,,,,,,,,2,,,67,66
229600,note_off,80,0,3,,,,,,,,,2,,,63,0
229680,note_on,0,0,1,,,,,,,,,0,,,87,77
229680,note_off,480,0,1,,,,,,,,,0,,,82,0
229680,note_off,80,0,3,,,,,,,,,2,,,67,0
229680,note_on,0,0,3,,,,,,,,,2,,,58,67
229680,note_off,240,0,4,,,,,,,,,3,,,43,0
229680,note_off,225,0,5,,,,,,,,,4,,,31,0
229760,note_on,0,0,3,,,,,,,,,2,,,63,67
229760,note_off,80,0,3,,,,,,,,,2,,,58,0
229840,note_off,80,0,3,,,,,,,,,2,,,63,0
229840,note_on,0,0,3,,,,,,,,,2,,,67,67
229860,note_off,180,0,1,,,,,,,,,0,,,87,0
229860,note_on,0,0,1,,,,,,,,,0,,,82,78
229920,note_off,80,0,3,,,,,,,,,2,,,67,0
229920,note_on,0,0,3,,,,,,,,,2,,,58,68
229920,note_on,0,0,1,,,,,,,,,0,,,79,78
229920,note_off,60,0,1,,,,,,,,,0,,,82,0
230000,note_on,0,0,3,,,,,,,,,2,,,62,68
230000,note_off,80,0,3,,,,,,,,,2,,,58,0
230080,note_on,0,0,3,,,,,,,,,2,,,65,68
230080,note_off,80,0,3,,,,,,,,,2,,,62,0
230160,note_on,0,0,3,,,,,,,,,2,,,70,69
230160,note_off,240,0,1,,,,,,,,,0,,,79,0
230160,note_off,80,0,3,,,,,,,,,2,,,65,0
230160,note_on,0,0,1,,,,,,,,,0,,,75,79
230160,note_on,480,0,4,,,,,,,,,3,,,51,76
230160,note_on,480,0,5,,,,,,,,,4,,,39,76
230240,note_on,0,0,3,,,,,,,,,2,,,65,69
230240,note_off,80,0,3,,,,,,,,,2,,,70,0
230280,note_off,120,0,5,,,,,,,,,4,,,39,0
230280,note_off,120,0,4,,,,,,,,,3,,,51,0
230280,note_on,0,0,4,,,,,,,,,3,,,53,77
230280,note_on,0,0,5,,,,,,,,,4,,,41,76
230320,note_off,80,0,3,,,,,,,,,2,,,65,0
230320,note_on,0,0,3,,,,,,,,,2,,,62,69
230340,note_off,60,0,5,,,,,,,,,4,,,41,0
230340,set_tempo,900,1,0,,,,,,500000,,,,,,,
230340,note_off,60,0,4,,,,,,,,,3,,,53,0
230340,note_on,0,0,4,,,,,,,,,3,,,55,77
230340,note_on,0,0,5,,,,,,,,,4,,,43,77
230400,note_off,60,0,4,,,,,,,,,3,,,55,0
230400,note_off,240,0,1,,,,,,,,,0,,,75,0
230400,note_on,0,0,4,,,,,,,,,3,,,56,77
230400,note_on,0,0,5,,,,,,,,,4,,,44,77
230400,set_tempo,60,1,0,,,,,,495867,,,,,,,
230400,note_on,0,0,3,,,,,,,,,2,,,58,70
230400,note_off,60,0,5,,,,,,,,,4,,,43,0
230400,note_on,0,0,1,,,,,,,,,0,,,70,80
230400,note_off,80,0,3,,,,,,,,,2,,,62,0
230480,note_on,0,0,3,,,,,,,,,2,,,62,70
230480,note_off,80,0,3,,,,,,,,,2,,,58,0
230560,note_off,80,0,3,,,,,,,,,2,,,62,0
230560,note_on,0,0,3,,,,,,,,,2,,,65,70
230640,note_on,0,0,4,,,,,,,,,3,,,53,78
230640,note_off,240,0,4,,,,,,,,,3,,,56,0
230640,note_on,0,0,5,,,,,,,,,4,,,41,78
230640,note_off,240,0,5,,,,,,,,,4,,,44,0
230640,note_off,80,0,3,,,,,,,,,2,,,65,0
230640,note_on,0,0,3,,,,,,,,,2,,,70,70
230640,note_off,240,0,1,,,,,,,,,0,,,70,0
230720,note_off,80,0,3,,,,,,,,,2,,,70,0
230720,note_on,0,0,3,,,,,,,,,2,,,65,71
230760,note_off,120,0,4,,,,,,,,,3,,,53,0
230760,note_off,120,0,5,,,,,,,,,4,,,41,0
230800,note_off,80,0,3,,,,,,,,,2,,,65,0
230800,note_on,0,0,3,,,,,,,,,2,,,62,71
230820,note_on,60,0,5,,,,,,,,,4,,,38,79
230820,note_on,60,0,4,,,,,,,,,3,,,50,79
230880,note_off,60,0,5,,,,,,,,,4,,,38,0
230880,note_off,60,0,4,,,,,,,,,3,,,50,0
230880,note_on,0,0,4,,,,,,,,,3,,,46,79
230880,note_off,80,0,3,,,,,,,,,2,,,62,0
230880,note_on,0,0,5,,,,,,,,,4,,,34,79
230880,note_on,0,0,3,,,,,,,,,2,,,58,71
230960,note_off,80,0,3,,,,,,,,,2,,,58,0
230960,note_on,0,0,3,,,,,,,,,2,,,62,72
231040,note_off,80,0,3,,,,,,,,,2,,,62,0
231040,note_on,0,0,3,,,,,,,,,2,,,65,72
231120,note_off,240,0,4,,,,,,,,,3,,,46,0
231120,note_off,240,0,5,,,,,,,,,4,,,34,0
231120,note_on,0,0,3,,,,,,,,,2,,,70,72
231120,note_on,0,0,5,,,,,,,,,4,,,32,80
231120,note_on,0,0,4,,,,,,,,,3,,,44,80
231120,note_on,480,0,1,,,,,,,,,0,,,82,93
231120,note_off,80,0,3,,,,,,,,,2,,,65,0
231200,note_on,0,0,3,,,,,,,,,2,,,65,73
231200,note_off,80,0,3,,,,,,,,,2,,,70,0
231280,note_off,80,0,3,,,,,,,,,2,,,65,0
231280,note_on,0,0,3,,,,,,,,,2,,,62,73
231300,set_tempo,900,1,0,,,,,,500000,,,,,,,
231360,note_on,0,0,5,,,,,,,,,4,,,31,81
231360,note_off,240,0,5,,,,,,,,,4,,,32,0
231360,set_tempo,60,1,0,,,,,,517241,,,,,,,
231360,note_off,240,0,4,,,,,,,,,3,,,44,0
231360,note_on,0,0,3,,,,,,,,,2,,,63,73
231360,note_off,80,0,3,,,,,,,,,2,,,62,0
231360,note_on,0,0,4,,,,,,,,,3,,,43,81
231440,note_on,0,0,3,,,,,,,,,2,,,67,74
231440,note_off,80,0,3,,,,,,,,,2,,,63,0
231520,note_off,80,0,3,,,,,,,,,2,,,67,0
231520,note_on,0,0,3,,,,,,,,,2,,,70,74
231600,note_on,0,0,4,,,,,,,,,3,,,63,83
231600,note_off,240,0,4,,,,,,,,,3,,,43,0
231600,note_on,0,0,5,,,,,,,,,4,,,51,83
231600,note_off,80,0,3,,,,,,,,,2,,,70,0
231600,note_on,2640,0,2,,,,,,,,,1,,,75,83
231600,note_off,480,0,1,,,,,,,,,0,,,82,0
231600,note_on,0,0,1,,,,,,,,,0,,,87,83
231600,note_off,240,0,5,,,,,,,,,4,,,31,0
231607,set_tempo,247,1,0,,,,,,495867,,,,,,,
231780,note_off,180,0,5,,,,,,,,,4,,,51,0
231780,note_on,0,0,5,,,,,,,,,4,,,46,81
231780,note_off,180,0,2,,,,,,,,,1,,,75,0
231780,note_off,180,0,1,,,,,,,,,0,,,87,0
231780,note_on,0,0,4,,,,,,,,,3,,,58,81
231780,note_on,0,0,1,,,,,,,,,0,,,82,81
231780,note_off,180,0,4,,,,,,,,,3,,,63,0
231780,note_on,0,0,2,,,,,,,,,1,,,70,81
231840,note_on,0,0,1,,,,,,,,,0,,,79,80
231840,note_off,60,0,5,,,,,,,,,4,,,46,0
231840,note_on,0,0,5,,,,,,,,,4,,,43,80
231840,note_on,0,0,2,,,,,,,,,1,,,67,80
231840,note_off,60,0,2,,,,,,,,,1,,,70,0
231840,note_on,0,0,4,,,,,,,,,3,,,55,80
231840,note_off,60,0,1,,,,,,,,,0,,,82,0
231840,note_off,60,0,4,,,,,,,,,3,,,58,0
231960,note_off,120,0,4,,,,,,,,,3,,,55,0
231960,note_off,120,0,5,,,,,,,,,4,,,43,0
231960,note_off,120,0,2,,,,,,,,,1,,,67,0
231960,note_off,120,0,1,,,,,,,,,0,,,79,0
232080,note_on,120,0,5,,,,,,,,,4,,,39,78
232080,note_on,120,0,2,,,,,,,,,1,,,63,78
232080,note_on,120,0,1,,,,,,,,,0,,,75,78
232080,note_on,120,0,4,,,,,,,,,3,,,51,78
232200,note_off,120,0,4,,,,,,,,,3,,,51,0
232200,note_off,120,0,5,,,,,,,,,4,,,39,0
232200,note_off,120,0,2,,,,,,,,,1,,,63,0
232200,note_off,120,0,1,,,,,,,,,0,,,75,0
232260,set_tempo,653,1,0,,,,,,517241,,,,,,,
232320,note_on,120,0,2,,,,,,,,,1,,,58,65
232320,note_on,120,0,4,,,,,,,,,3,,,46,65
232320,note_on,120,0,5,,,,,,,,,4,,,34,65
232320,note_on,120,0,1,,,,,,,,,0,,,70,65
232560,note_on,0,0,4,,,,,,,,,3,,,50,30
232560,note_on,0,0,4,,,,,,,,,3,,,53,30
232560,note_off,240,0,1,,,,,,,,,0,,,70,0
232560,note_off,240,0,2,,,,,,,,,1,,,58,0
232560,note_on,0,0,4,,,,,,,,,3,,,58,30
232560,set_tempo,300,1,0,,,,,,582524,,,,,,,
232560,note_off,240,0,4,,,,,,,,,3,,,46,0
232560,note_off,240,0,5,,,,,,,,,4,,,34,0
232680,note_on,120,0,1,,,,,,,,,0,,,69,31
232680,set_tempo,120,1,0,,,,,,500000,,,,,,,
232800,note_on,240,0,5,,,,,,,,,4,,,34,32
232800,note_on,0,0,4,,,,,,,,,3,,,46,32
232800,note_off,0,0,4,,,,,,,,,3,,,50,0
232800,note_on,0,0,1,,,,,,,,,0,,,70,32
232800,note_off,0,0,4,,,,,,,,,3,,,53,0
232800,note_off,240,0,4,,,,,,,,,3,,,58,0
232800,note_off,120,0,1,,,,,,,,,0,,,69,0
233040,note_off,240,0,4,,,,,,,,,3,,,46,0
233040,note_on,0,0,4,,,,,,,,,3,,,58,34
233040,note_on,0,0,4,,,,,,,,,3,,,53,34
233040,note_off,240,0,5,,,,,,,,,4,,,34,0
233040,note_on,0,0,4,,,,,,,,,3,,,50,34
233160,note_on,0,0,1,,,,,,,,,0,,,69,34
233160,note_off,360,0,1,,,,,,,,,0,,,70,0
233167,set_tempo,487,1,0,,,,,,517241,,,,,,,
233280,note_on,240,0,5,,,,,,,,,4,,,34,35
233280,note_on,0,0,4,,,,,,,,,3,,,46,35
233280,note_on,0,0,1,,,,,,,,,0,,,70,35
233280,note_off,120,0,1,,,,,,,,,0,,,69,0
233280,note_off,0,0,4,,,,,,,,,3,,,50,0
233280,note_off,0,0,4,,,,,,,,,3,,,53,0
233280,note_off,240,0,4,,,,,,,,,3,,,58,0
233280,set_tempo,113,1,0,,,,,,500000,,,,,,,
233400,note_on,0,0,1,,,,,,,,,0,,,69,36
233400,note_off,120,0,1,,,,,,,,,0,,,70,0
233520,note_off,240,0,5,,,,,,,,,4,,,34,0
233520,note_on,0,0,4,,,,,,,,,3,,,58,37
233520,note_off,240,0,4,,,,,,,,,3,,,46,0
233520,note_on,0,0,4,,,,,,,,,3,,,50,37
233520,note_on,0,0,4,,,,,,,,,3,,,53,37
233520,note_on,0,0,1,,,,,,,,,0,,,70,37
233520,note_off,120,0,1,,,,,,,,,0,,,69,0
233640,note_on,0,0,1,,,,,,,,,0,,,69,38
233640,note_off,120,0,1,,,,,,,,,0,,,70,0
233760,note_off,120,0,1,,,,,,,,,0,,,69,0
233760,note_on,0,0,1,,,,,,,,,0,,,70,39
233760,note_off,0,0,4,,,,,,,,,3,,,53,0
233760,note_off,0,0,4,,,,,,,,,3,,,50,0
233760,note_off,240,0,4,,,,,,,,,3,,,58,0
233880,note_on,0,0,1,,,,,,,,,0,,,72,39
233880,note_off,120,0,1,,,,,,,,,0,,,70,0
234000,note_on,0,0,1,,,,,,,,,0,,,74,40
234000,note_off,120,0,1,,,,,,,,,0,,,72,0
234120,note_off,120,0,1,,,,,,,,,0,,,74,0
234120,note_on,0,0,1,,,,,,,,,0,,,75,41
234180,set_tempo,900,1,0,,,,,,508474,,,,,,,
234240,note_on,0,0,1,,,,,,,,,0,,,77,42
234240,note_off,120,0,1,,,,,,,,,0,,,75,0
234360,note_off,120,0,1,,,,,,,,,0,,,77,0
234360,note_on,0,0,1,,,,,,,,,0,,,73,43
234480,note_off,120,0,1,,,,,,,,,0,,,73,0
234480,note_on,0,0,1,,,,,,,,,0,,,74,44
234600,note_on,0,0,1,,,,,,,,,0,,,76,44
234600,note_off,120,0,1,,,,,,,,,0,,,74,0
234660,set_tempo,480,1,0,,,,,,517241,,,,,,,
234720,note_on,0,0,1,,,,,,,,,0,,,77,47
234720,note_off,120,0,1,,,,,,,,,0,,,76,0
234780,set_tempo,120,1,0,,,,,,526315,,,,,,,
234840,note_on,0,0,1,,,,,,,,,0,,,79,45
234840,note_off,120,0,1,,,,,,,,,0,,,77,0
234840,note_on,1080,0,4,,,,,,,,,3,,,46,45
234906,set_tempo,126,1,0,,,,,,535714,,,,,,,
234960,note_off,120,0,1,,,,,,,,,0,,,79,0
234960,note_off,120,0,4,,,,,,,,,3,,,46,0
234960,note_on,0,0,4,,,,,,,,,3,,,48,43
234960,note_on,0,0,1,,,,,,,,,0,,,80,43
235030,set_tempo,124,1,0,,,,,,638297,,,,,,,
235080,note_on,0,0,4,,,,,,,,,3,,,50,41
235080,note_off,120,0,4,,,,,,,,,3,,,48,0
235080,note_on,0,0,1,,,,,,,,,0,,,77,41
235080,note_off,120,0,1,,,,,,,,,0,,,80,0
235080,set_tempo,50,1,0,,,,,,731707,,,,,,,
235200,set_tempo,120,1,0,,,,,,487804,,,,,,,
235200,note_on,0,0,1,,,,,,,,,0,,,75,42
235200,note_on,2640,0,2,,,,,,,,,1,,,63,42
235200,note_on,0,0,4,,,,,,,,,3,,,51,42
235200,note_off,120,0,4,,,,,,,,,3,,,50,0
235200,note_off,120,0,1,,,,,,,,,0,,,77,0
235200,note_on,1680,0,5,,,,,,,,,4,,,39,42
235278,note_off,78,0,2,,,,,,,,,1,,,63,0
235320,note_on,42,0,2,,,,,,,,,1,,,58,42
235398,note_off,78,0,2,,,,,,,,,1,,,58,0
235440,note_on,42,0,2,,,,,,,,,1,,,55,43
235440,note_on,0,0,4,,,,,,,,,3,,,46,43
235440,note_on,0,0,4,,,,,,,,,3,,,43,43
235440,note_on,0,0,4,,,,,,,,,3,,,51,43
235440,note_off,240,0,4,,,,,,,,,3,,,51,0
235440,note_off,240,0,5,,,,,,,,,4,,,39,0
235518,note_off,78,0,2,,,,,,,,,1,,,55,0
235560,note_on,42,0,2,,,,,,,,,1,,,58,43
235638,note_off,78,0,2,,,,,,,,,1,,,58,0
235680,note_off,0,0,4,,,,,,,,,3,,,43,0
235680,note_off,0,0,4,,,,,,,,,3,,,46,0
235680,note_on,42,0,2,,,,,,,,,1,,,63,44
235680,note_on,240,0,5,,,,,,,,,4,,,39,44
235680,note_on,0,0,1,,,,,,,,,0,,,75,44
235680,note_off,480,0,1,,,,,,,,,0,,,75,0
235680,note_off,240,0,4,,,,,,,,,3,,,51,0
235758,note_off,78,0,2,,,,,,,,,1,,,63,0
235800,note_on,42,0,2,,,,,,,,,1,,,58,44
235878,note_off,78,0,2,,,,,,,,,1,,,58,0
235920,note_on,42,0,2,,,,,,,,,1,,,55,45
235920,note_on,0,0,4,,,,,,,,,3,,,51,45
235920,note_on,0,0,4,,,,,,,,,3,,,43,45
235920,note_on,240,0,4,,,,,,,,,3,,,46,45
235920,note_off,240,0,5,,,,,,,,,4,,,39,0
235998,note_off,78,0,2,,,,,,,,,1,,,55,0
236040,note_on,42,0,2,,,,,,,,,1,,,58,45
236040,note_off,360,0,1,,,,,,,,,0,,,75,0
236100,set_tempo,900,1,0,,,,,,495867,,,,,,,
236100,note_on,60,0,1,,,,,,,,,0,,,75,45
236118,note_off,78,0,2,,,,,,,,,1,,,58,0
236160,set_tempo,60,1,0,,,,,,487804,,,,,,,
236160,note_on,0,0,1,,,,,,,,,0,,,75,46
236160,note_on,42,0,2,,,,,,,,,1,,,63,46
236160,note_off,240,0,4,,,,,,,,,3,,,51,0
236160,note_off,0,0,4,,,,,,,,,3,,,43,0
236160,note_off,0,0,4,,,,,,,,,3,,,46,0
236160,note_off,60,0,1,,,,,,,,,0,,,75,0
236238,note_off,78,0,2,,,,,,,,,1,,,63,0
236280,note_on,42,0,2,,,,,,,,,1,,,58,46
236358,note_off,78,0,2,,,,,,,,,1,,,58,0
236400,note_on,42,0,2,,,,,,,,,1,,,55,47
236400,note_on,480,0,5,,,,,,,,,4,,,39,47
236400,note_on,240,0,4,,,,,,,,,3,,,51,47
236478,note_off,78,0,2,,,,,,,,,1,,,55,0
236520,note_on,42,0,2,,,,,,,,,1,,,58,47
236598,note_off,78,0,2,,,,,,,,,1,,,58,0
236600,note_on,440,0,1,,,,,,,,,0,,,77,47
236640,note_on,0,0,4,,,,,,,,,3,,,55,47
236640,note_off,40,0,1,,,,,,,,,0,,,77,0
236640,note_off,240,0,4,,,,,,,,,3,,,51,0
236640,note_off,240,0,5,,,,,,,,,4,,,39,0
236640,note_on,0,0,5,,,,,,,,,4,,,43,47
236640,note_off,0,0,1,,,,,,,,,0,,,75,0
236640,note_on,42,0,2,,,,,,,,,1,,,63,47
236640,note_on,0,0,1,,,,,,,,,0,,,75,47
236718,note_off,78,0,2,,,,,,,,,1,,,63,0
236760,note_on,0,0,1,,,,,,,,,0,,,74,48
236760,note_off,120,0,1,,,,,,,,,0,,,75,0
236760,note_on,42,0,2,,,,,,,,,1,,,58,48
236838,note_off,78,0,2,,,,,,,,,1,,,58,0
236880,note_off,240,0,5,,,,,,,,,4,,,43,0
236880,note_on,42,0,2,,,,,,,,,1,,,63,48
236880,note_on,0,0,4,,,,,,,,,3,,,51,48
236880,note_off,240,0,4,,,,,,,,,3,,,55,0
236880,note_on,0,0,5,,,,,,,,,4,,,39,48
236880,note_on,0,0,1,,,,,,,,,0,,,75,48
236880,note_off,120,0,1,,,,,,,,,0,,,74,0
236958,note_off,78,0,2,,,,,,,,,1,,,63,0
237000,note_on,42,0,2,,,,,,,,,1,,,67,49
237000,note_off,120,0,1,,,,,,,,,0,,,75,0
237000,note_on,0,0,1,,,,,,,,,0,,,79,49
237007,set_tempo,847,1,0,,,,,,500000,,,,,,,
237078,note_off,78,0,2,,,,,,,,,1,,,67,0
237120,note_on,0,0,4,,,,,,,,,3,,,46,49
237120,note_on,42,0,2,,,,,,,,,1,,,65,49
237120,note_on,0,0,5,,,,,,,,,4,,,34,49
237120,note_off,240,0,5,,,,,,,,,4,,,39,0
237120,set_tempo,113,1,0,,,,,,487804,,,,,,,
237120,note_off,120,0,1,,,,,,,,,0,,,79,0
237120,note_off,240,0,4,,,,,,,,,3,,,51,0
237120,note_on,0,0,1,,,,,,,,,0,,,77,49
237198,note_off,78,0,2,,,,,,,,,1,,,65,0
237240,note_on,42,0,2,,,,,,,,,1,,,62,50
237318,note_off,78,0,2,,,,,,,,,1,,,62,0
237360,note_off,240,0,4,,,,,,,,,3,,,46,0
237360,note_on,0,0,4,,,,,,,,,3,,,53,50
237360,note_on,0,0,4,,,,,,,,,3,,,46,50
237360,note_off,240,0,5,,,,,,,,,4,,,34,0
237360,note_on,0,0,4,,,,,,,,,3,,,50,50
237360,note_on,42,0,2,,,,,,,,,1,,,58,50
237438,note_off,78,0,2,,,,,,,,,1,,,58,0
237480,note_on,42,0,2,,,,,,,,,1,,,62,51
237558,note_off,78,0,2,,,,,,,,,1,,,62,0
237600,note_on,0,0,1,,,,,,,,,0,,,77,51
237600,note_off,240,0,4,,,,,,,,,3,,,46,0
237600,note_off,0,0,4,,,,,,,,,3,,,50,0
237600,note_on,42,0,2,,,,,,,,,1,,,65,51
237600,note_on,240,0,5,,,,,,,,,4,,,34,51
237600,note_off,0,0,4,,,,,,,,,3,,,53,0
237600,note_off,480,0,1,,,,,,,,,0,,,77,0
237678,note_off,78,0,2,,,,,,,,,1,,,65,0
237720,note_on,42,0,2,,,,,,,,,1,,,62,52
237798,note_off,78,0,2,,,,,,,,,1,,,62,0
237840,note_off,240,0,5,,,,,,,,,4,,,34,0
237840,note_on,240,0,4,,,,,,,,,3,,,50,52
237840,note_on,0,0,4,,,,,,,,,3,,,46,52
237840,note_on,0,0,4,,,,,,,,,3,,,53,52
237840,note_on,42,0,2,,,,,,,,,1,,,58,52
237918,note_off,78,0,2,,,,,,,,,1,,,58,0
237960,note_off,360,0,1,,,,,,,,,0,,,77,0
237960,note_on,42,0,2,,,,,,,,,1,,,62,53
238020,set_tempo,900,1,0,,,,,,495867,,,,,,,
238020,note_on,60,0,1,,,,,,,,,0,,,77,53
238038,note_off,78,0,2,,,,,,,,,1,,,62,0
238080,note_off,60,0,1,,,,,,,,,0,,,77,0
238080,note_on,42,0,2,,,,,,,,,1,,,65,53
238080,note_off,240,0,4,,,,,,,,,3,,,46,0
238080,note_off,0,0,4,,,,,,,,,3,,,53,0
238080,note_off,0,0,4,,,,,,,,,3,,,50,0
238080,set_tempo,60,1,0,,,,,,487804,,,,,,,
238080,note_on,0,0,1,,,,,,,,,0,,,77,53
238158,note_off,78,0,2,,,,,,,,,1,,,65,0
238200,note_on,42,0,2,,,,,,,,,1,,,62,54
238278,note_off,78,0,2,,,,,,,,,1,,,62,0
238320,note_on,42,0,2,,,,,,,,,1,,,58,54
238320,note_on,240,0,4,,,,,,,,,3,,,46,54
238320,note_on,480,0,5,,,,,,,,,4,,,34,54
238398,note_off,78,0,2,,,,,,,,,1,,,58,0
238440,note_on,42,0,2,,,,,,,,,1,,,62,54
238518,note_off,78,0,2,,,,,,,,,1,,,62,0
238520,note_on,440,0,1,,,,,,,,,0,,,79,55
238560,note_on,0,0,1,,,,,,,,,0,,,77,55
238560,note_off,240,0,5,,,,,,,,,4,,,34,0
238560,note_on,0,0,5,,,,,,,,,4,,,38,55
238560,note_off,0,0,1,,,,,,,,,0,,,77,0
238560,note_off,40,0,1,,,,,,,,,0,,,79,0
238560,note_on,0,0,4,,,,,,,,,3,,,50,55
238560,note_off,240,0,4,,,,,,,,,3,,,46,0
238560,note_on,42,0,2,,,,,,,,,1,,,65,55
238680,note_off,120,0,1,,,,,,,,,0,,,77,0
238680,note_off,120,0,2,,,,,,,,,1,,,65,0
238680,note_on,0,0,2,,,,,,,,,1,,,64,55
238680,note_on,0,0,1,,,,,,,,,0,,,76,55
238800,note_on,0,0,1,,,,,,,,,0,,,77,56
238800,note_on,0,0,5,,,,,,,,,4,,,34,56
238800,note_off,240,0,5,,,,,,,,,4,,,38,0
238800,note_off,120,0,1,,,,,,,,,0,,,76,0
238800,note_off,240,0,4,,,,,,,,,3,,,50,0
238800,note_on,0,0,2,,,,,,,,,1,,,65,56
238800,note_off,120,0,2,,,,,,,,,1,,,64,0
238800,note_on,0,0,4,,,,,,,,,3,,,46,56
238920,note_off,120,0,2,,,,,,,,,1,,,65,0
238920,note_on,0,0,1,,,,,,,,,0,,,80,56
238920,note_off,120,0,1,,,,,,,,,0,,,77,0
238920,note_on,0,0,2,,,,,,,,,1,,,68,56
238942,set_tempo,862,1,0,,,,,,500000,,,,,,,
239040,set_tempo,98,1,0,,,,,,487804,,,,,,,
239040,note_off,120,0,2,,,,,,,,,1,,,68,0
239040,note_off,240,0,4,,,,,,,,,3,,,46,0
239040,note_on,0,0,1,,,,,,,,,0,,,79,57
239040,note_on,0,0,2,,,,,,,,,1,,,67,57
239040,note_off,240,0,5,,,,,,,,,4,,,34,0
239040,note_on,0,0,5,,,,,,,,,4,,,39,57
239040,note_off,120,0,1,,,,,,,,,0,,,80,0
239040,note_on,0,0,4,,,,,,,,,3,,,51,57
239118,note_off,78,0,4,,,,,,,,,3,,,51,0
239118,note_off,78,0,5,,,,,,,,,4,,,39,0
239136,note_off,96,0,1,,,,,,,,,0,,,79,0
239136,note_off,96,0,2,,,,,,,,,1,,,67,0
239160,note_on,24,0,1,,,,,,,,,0,,,82,57
239160,note_on,42,0,5,,,,,,,,,4,,,34,57
239160,note_on,42,0,4,,,,,,,,,3,,,46,57
239160,note_on,24,0,2,,,,,,,,,1,,,70,57
239238,note_off,78,0,5,,,,,,,,,4,,,34,0
239238,note_off,78,0,4,,,,,,,,,3,,,46,0
239256,note_off,96,0,2,,,,,,,,,1,,,70,0
239256,note_off,96,0,1,,,,,,,,,0,,,82,0
239280,note_on,42,0,5,,,,,,,,,4,,,31,58
239280,note_on,24,0,2,,,,,,,,,1,,,70,58
239280,note_on,42,0,4,,,,,,,,,3,,,43,58
239280,note_on,24,0,1,,,,,,,,,0,,,82,58
239358,note_off,78,0,5,,,,,,,,,4,,,31,0
239358,note_off,78,0,4,,,,,,,,,3,,,43,0
239376,note_off,96,0,2,,,,,,,,,1,,,70,0
239376,note_off,96,0,1,,,,,,,,,0,,,82,0
239400,note_on,24,0,2,,,,,,,,,1,,,70,58
239400,note_on,24,0,1,,,,,,,,,0,,,82,58
239400,note_on,42,0,4,,,,,,,,,3,,,46,58
239400,note_on,42,0,5,,,,,,,,,4,,,34,58
239478,note_off,78,0,4,,,,,,,,,3,,,46,0
239478,note_off,78,0,5,,,,,,,,,4,,,34,0
239496,note_off,96,0,1,,,,,,,,,0,,,82,0
239496,note_off,96,0,2,,,,,,,,,1,,,70,0
239520,note_on,42,0,4,,,,,,,,,3,,,51,59
239520,note_on,24,0,1,,,,,,,,,0,,,82,59
239520,note_on,42,0,5,,,,,,,,,4,,,39,59
239520,note_on,24,0,2,,,,,,,,,1,,,70,59
239598,note_off,78,0,4,,,,,,,,,3,,,51,0
239598,note_off,78,0,5,,,,,,,,,4,,,39,0
239616,note_off,96,0,1,,,,,,,,,0,,,82,0
239616,note_off,96,0,2,,,,,,,,,1,,,70,0
239640,note_on,24,0,2,,,,,,,,,1,,,70,59
239640,note_on,42,0,4,,,,,,,,,3,,,46,59
239640,note_on,24,0,1,,,,,,,,,0,,,82,59
239640,note_on,42,0,5,,,,,,,,,4,,,34,59
239718,note_off,78,0,5,,,,,,,,,4,,,34,0
239718,note_off,78,0,4,,,,,,,,,3,,,46,0
239736,note_off,96,0,2,,,,,,,,,1,,,70,0
239736,note_off,96,0,1,,,,,,,,,0,,,82,0
239760,note_on,42,0,4,,,,,,,,,3,,,43,60
239760,note_on,24,0,2,,,,,,,,,1,,,70,60
239760,note_on,24,0,1,,,,,,,,,0,,,82,60
239760,note_on,42,0,5,,,,,,,,,4,,,31,60
239838,note_off,78,0,4,,,,,,,,,3,,,43,0
239838,note_off,78,0,5,,,,,,,,,4,,,31,0
239856,note_off,96,0,2,,,,,,,,,1,,,70,0
239856,note_off,96,0,1,,,,,,,,,0,,,82,0
239880,note_on,42,0,4,,,,,,,,,3,,,46,60
239880,note_on,24,0,1,,,,,,,,,0,,,82,60
239880,note_on,24,0,2,,,,,,,,,1,,,70,60
239880,note_on,42,0,5,,,,,,,,,4,,,34,60
239940,set_tempo,900,1,0,,,,,,495867,,,,,,,
239958,note_off,78,0,4,,,,,,,,,3,,,46,0
239958,note_off,78,0,5,,,,,,,,,4,,,34,0
239976,note_off,96,0,2,,,,,,,,,1,,,70,0
239976,note_off,96,0,1,,,,,,,,,0,,,82,0
240000,set_tempo,60,1,0,,,,,,487804,,,,,,,
240000,note_on,24,0,1,,,,,,,,,0,,,82,61
240000,note_on,42,0,4,,,,,,,,,3,,,51,61
240000,note_on,24,0,2,,,,,,,,,1,,,70,61
240000,note_on,42,0,5,,,,,,,,,4,,,39,61
240078,note_off,78,0,5,,,,,,,,,4,,,39,0
240078,note_off,78,0,4,,,,,,,,,3,,,51,0
240096,note_off,96,0,1,,,,,,,,,0,,,82,0
240096,note_off,96,0,2,,,,,,,,,1,,,70,0
240120,note_on,24,0,2,,,,,,,,,1,,,70,61
240120,note_on,42,0,4,,,,,,,,,3,,,46,61
240120,note_on,24,0,1,,,,,,,,,0,,,82,61
240120,note_on,42,0,5,,,,,,,,,4,,,34,61
240198,note_off,78,0,4,,,,,,,,,3,,,46,0
240198,note_off,78,0,5,,,,,,,,,4,,,34,0
240216,note_off,96,0,1,,,,,,,,,0,,,82,0
240216,note_off,96,0,2,,,,,,,,,1,,,70,0
240240,note_on,24,0,1,,,,,,,,,0,,,82,62
240240,note_on,42,0,5,,,,,,,,,4,,,31,62
240240,note_on,42,0,4,,,,,,,,,3,,,43,62
240240,note_on,24,0,2,,,,,,,,,1,,,70,62
240318,note_off,78,0,5,,,,,,,,,4,,,31,0
240318,note_off,78,0,4,,,,,,,,,3,,,43,0
240336,note_off,96,0,2,,,,,,,,,1,,,70,0
240336,note_off,96,0,1,,,,,,,,,0,,,82,0
240360,note_on,24,0,2,,,,,,,,,1,,,70,62
240360,note_on,42,0,5,,,,,,,,,4,,,34,62
240360,note_on,42,0,4,,,,,,,,,3,,,46,62
240360,note_on,24,0,1,,,,,,,,,0,,,82,62
240438,note_off,78,0,4,,,,,,,,,3,,,46,0
240438,note_off,78,0,5,,,,,,,,,4,,,34,0
240456,note_off,96,0,1,,,,,,,,,0,,,82,0
240456,note_off,96,0,2,,,,,,,,,1,,,70,0
240480,note_on,24,0,2,,,,,,,,,1,,,70,62
240480,note_on,24,0,1,,,,,,,,,0,,,82,62
240480,note_on,42,0,4,,,,,,,,,3,,,51,62
240480,note_on,42,0,5,,,,,,,,,4,,,39,62
240558,note_off,78,0,5,,,,,,,,,4,,,39,0
240558,note_off,78,0,4,,,,,,,,,3,,,51,0
240576,note_off,96,0,1,,,,,,,,,0,,,82,0
240576,note_off,96,0,2,,,,,,,,,1,,,70,0
240600,note_on,42,0,4,,,,,,,,,3,,,46,63
240600,note_on,24,0,1,,,,,,,,,0,,,82,63
240600,note_on,24,0,2,,,,,,,,,1,,,70,63
240600,note_on,42,0,5,,,,,,,,,4,,,34,63
240678,note_off,78,0,5,,,,,,,,,4,,,34,0
240678,note_off,78,0,4,,,,,,,,,3,,,46,0
240696,note_off,96,0,2,,,,,,,,,1,,,70,0
240696,note_off,96,0,1,,,,,,,,,0,,,82,0
240720,note_on,24,0,2,,,,,,,,,1,,,70,63
240720,note_on,24,0,1,,,,,,,,,0,,,82,63
240720,note_on,42,0,5,,,,,,,,,4,,,39,63
240720,note_on,42,0,4,,,,,,,,,3,,,51,63
240798,note_off,78,0,4,,,,,,,,,3,,,51,0
240798,note_off,78,0,5,,,,,,,,,4,,,39,0
240816,note_off,96,0,2,,,,,,,,,1,,,70,0
240816,note_off,96,0,1,,,,,,,,,0,,,82,0
240840,note_on,24,0,1,,,,,,,,,0,,,82,64
240840,note_on,24,0,2,,,,,,,,,1,,,70,64
240840,note_on,42,0,5,,,,,,,,,4,,,43,64
240840,note_on,42,0,4,,,,,,,,,3,,,55,64
240847,set_tempo,847,1,0,,,,,,495867,,,,,,,
240918,note_off,78,0,5,,,,,,,,,4,,,43,0
240918,note_off,78,0,4,,,,,,,,,3,,,55,0
240936,note_off,96,0,2,,,,,,,,,1,,,70,0
240936,note_off,96,0,1,,,,,,,,,0,,,82,0
240960,set_tempo,113,1,0,,,,,,487804,,,,,,,
240960,note_on,42,0,5,,,,,,,,,4,,,41,64
240960,note_on,24,0,2,,,,,,,,,1,,,70,64
240960,note_on,42,0,4,,,,,,,,,3,,,53,64
240960,note_on,24,0,1,,,,,,,,,0,,,82,64
241038,note_off,78,0,5,,,,,,,,,4,,,41,0
241038,note_off,78,0,4,,,,,,,,,3,,,53,0
241056,note_off,96,0,2,,,,,,,,,1,,,70,0
241056,note_off,96,0,1,,,,,,,,,0,,,82,0
241080,note_on,24,0,2,,,,,,,,,1,,,70,65
241080,note_on,42,0,4,,,,,,,,,3,,,50,65
241080,note_on,42,0,5,,,,,,,,,4,,,38,65
241080,note_on,24,0,1,,,,,,,,,0,,,82,65
241158,note_off,78,0,4,,,,,,,,,3,,,50,0
241158,note_off,78,0,5,,,,,,,,,4,,,38,0
241176,note_off,96,0,1,,,,,,,,,0,,,82,0
241176,note_off,96,0,2,,,,,,,,,1,,,70,0
241200,note_on,42,0,4,,,,,,,,,3,,,46,65
241200,note_on,24,0,1,,,,,,,,,0,,,82,65
241200,note_on,24,0,2,,,,,,,,,1,,,70,65
241200,note_on,42,0,5,,,,,,,,,4,,,34,65
241278,note_off,78,0,4,,,,,,,,,3,,,46,0
241278,note_off,78,0,5,,,,,,,,,4,,,34,0
241296,note_off,96,0,2,,,,,,,,,1,,,70,0
241296,note_off,96,0,1,,,,,,,,,0,,,82,0
241320,note_on,42,0,4,,,,,,,,,3,,,50,66
241320,note_on,24,0,1,,,,,,,,,0,,,82,66
241320,note_on,42,0,5,,,,,,,,,4,,,38,66
241320,note_on,24,0,2,,,,,,,,,1,,,70,66
241398,note_off,78,0,5,,,,,,,,,4,,,38,0
241398,note_off,78,0,4,,,,,,,,,3,,,50,0
241416,note_off,96,0,1,,,,,,,,,0,,,82,0
241416,note_off,96,0,2,,,,,,,,,1,,,70,0
241440,note_on,42,0,5,,,,,,,,,4,,,41,66
241440,note_on,24,0,1,,,,,,,,,0,,,82,66
241440,note_on,42,0,4,,,,,,,,,3,,,53,66
241440,note_on,24,0,2,,,,,,,,,1,,,70,66
241518,note_off,78,0,4,,,,,,,,,3,,,53,0
241518,note_off,78,0,5,,,,,,,,,4,,,41,0
241536,note_off,96,0,1,,,,,,,,,0,,,82,0
241536,note_off,96,0,2,,,,,,,,,1,,,70,0
241560,note_on,42,0,4,,,,,,,,,3,,,50,67
241560,note_on,24,0,2,,,,,,,,,1,,,70,67
241560,note_on,24,0,1,,,,,,,,,0,,,82,67
241560,note_on,42,0,5,,,,,,,,,4,,,38,67
241638,note_off,78,0,5,,,,,,,,,4,,,38,0
241638,note_off,78,0,4,,,,,,,,,3,,,50,0
241656,note_off,96,0,2,,,,,,,,,1,,,70,0
241656,note_off,96,0,1,,,,,,,,,0,,,82,0
241680,note_on,42,0,5,,,,,,,,,4,,,34,67
241680,note_on,24,0,2,,,,,,,,,1,,,70,67
241680,note_on,42,0,4,,,,,,,,,3,,,46,67
241680,note_on,24,0,1,,,,,,,,,0,,,82,67
241758,note_off,78,0,4,,,,,,,,,3,,,46,0
241758,note_off,78,0,5,,,,,,,,,4,,,34,0
241776,note_off,96,0,1,,,,,,,,,0,,,82,0
241776,note_off,96,0,2,,,,,,,,,1,,,70,0
241800,note_on,24,0,2,,,,,,,,,1,,,70,68
241800,note_on,42,0,4,,,,,,,,,3,,,50,68
241800,note_on,42,0,5,,,,,,,,,4,,,38,68
241800,note_on,24,0,1,,,,,,,,,0,,,82,68
241860,set_tempo,900,1,0,,,,,,495867,,,,,,,
241878,note_off,78,0,5,,,,,,,,,4,,,38,0
241878,note_off,78,0,4,,,,,,,,,3,,,50,0
241896,note_off,96,0,2,,,,,,,,,1,,,70,0
241896,note_off,96,0,1,,,,,,,,,0,,,82,0
241920,note_on,42,0,4,,,,,,,,,3,,,53,68
241920,note_on,24,0,1,,,,,,,,,0,,,82,68
241920,note_on,42,0,5,,,,,,,,,4,,,41,68
241920,note_on,24,0,2,,,,,,,,,1,,,70,68
241920,set_tempo,60,1,0,,,,,,487804,,,,,,,
241998,note_off,78,0,4,,,,,,,,,3,,,53,0
241998,note_off,78,0,5,,,,,,,,,4,,,41,0
242016,note_off,96,0,2,,,,,,,,,1,,,70,0
242016,note_off,96,0,1,,,,,,,,,0,,,82,0
242040,note_on,24,0,1,,,,,,,,,0,,,82,69
242040,note_on,42,0,4,,,,,,,,,3,,,50,69
242040,note_on,24,0,2,,,,,,,,,1,,,70,69
242040,note_on,42,0,5,,,,,,,,,4,,,38,69
242118,note_off,78,0,4,,,,,,,,,3,,,50,0
242118,note_off,78,0,5,,,,,,,,,4,,,38,0
242136,note_off,96,0,2,,,,,,,,,1,,,70,0
242136,note_off,96,0,1,,,,,,,,,0,,,82,0
242160,note_on,24,0,2,,,,,,,,,1,,,70,69
242160,note_on,24,0,1,,,,,,,,,0,,,82,69
242160,note_on,42,0,4,,,,,,,,,3,,,46,69
242160,note_on,42,0,5,,,,,,,,,4,,,34,69
242238,note_off,78,0,5,,,,,,,,,4,,,34,0
242238,note_off,78,0,4,,,,,,,,,3,,,46,0
242256,note_off,96,0,2,,,,,,,,,1,,,70,0
242256,note_off,96,0,1,,,,,,,,,0,,,82,0
242280,note_on,42,0,5,,,,,,,,,4,,,38,69
242280,note_on,42,0,4,,,,,,,,,3,,,50,69
242280,note_on,24,0,2,,,,,,,,,1,,,70,69
242280,note_on,24,0,1,,,,,,,,,0,,,82,69
242358,note_off,78,0,4,,,,,,,,,3,,,50,0
242358,note_off,78,0,5,,,,,,,,,4,,,38,0
242376,note_off,96,0,2,,,,,,,,,1,,,70,0
242376,note_off,96,0,1,,,,,,,,,0,,,82,0
242400,note_on,42,0,5,,,,,,,,,4,,,41,70
242400,note_on,24,0,1,,,,,,,,,0,,,82,70
242400,note_on,24,0,2,,,,,,,,,1,,,70,70
242400,note_on,42,0,4,,,,,,,,,3,,,53,70
242478,note_off,78,0,5,,,,,,,,,4,,,41,0
242478,note_off,78,0,4,,,,,,,,,3,,,53,0
242496,note_off,96,0,1,,,,,,,,,0,,,82,0
242496,note_off,96,0,2,,,,,,,,,1,,,70,0
242520,note_on,24,0,1,,,,,,,,,0,,,82,70
242520,note_on,42,0,5,,,,,,,,,4,,,38,70
242520,note_on,42,0,4,,,,,,,,,3,,,50,70
242520,note_on,24,0,2,,,,,,,,,1,,,70,70
242598,note_off,78,0,5,,,,,,,,,4,,,38,0
242598,note_off,78,0,4,,,,,,,,,3,,,50,0
242616,note_off,96,0,1,,,,,,,,,0,,,82,0
242616,note_off,96,0,2,,,,,,,,,1,,,70,0
242640,note_on,42,0,5,,,,,,,,,4,,,41,71
242640,note_on,24,0,2,,,,,,,,,1,,,70,71
242640,note_on,42,0,4,,,,,,,,,3,,,53,71
242640,note_on,24,0,1,,,,,,,,,0,,,82,71
242718,note_off,78,0,4,,,,,,,,,3,,,53,0
242718,note_off,78,0,5,,,,,,,,,4,,,41,0
242736,note_off,96,0,2,,,,,,,,,1,,,70,0
242736,note_off,96,0,1,,,,,,,,,0,,,82,0
242760,note_on,42,0,4,,,,,,,,,3,,,56,72
242760,set_tempo,840,1,0,,,,,,495867,,,,,,,
242760,note_on,24,0,2,,,,,,,,,1,,,70,72
242760,note_on,24,0,1,,,,,,,,,0,,,82,72
242760,note_on,42,0,5,,,,,,,,,4,,,44,72
242838,note_off,78,0,4,,,,,,,,,3,,,56,0
242838,note_off,78,0,5,,,,,,,,,4,,,44,0
242856,note_off,96,0,2,,,,,,,,,1,,,70,0
242856,note_off,96,0,1,,,,,,,,,0,,,82,0
242880,set_tempo,120,1,0,,,,,,487804,,,,,,,
242880,note_on,24,0,2,,,,,,,,,1,,,70,72
242880,note_on,24,0,1,,,,,,,,,0,,,82,72
242880,note_on,42,0,5,,,,,,,,,4,,,39,72
242880,note_on,42,0,4,,,,,,,,,3,,,55,72
242976,note_off,96,0,1,,,,,,,,,0,,,82,0
242976,note_off,96,0,2,,,,,,,,,1,,,70,0
243000,note_on,0,0,4,,,,,,,,,3,,,51,73
243000,note_on,24,0,1,,,,,,,,,0,,,87,73
243000,note_on,0,0,4,,,,,,,,,3,,,55,73
243000,note_on,24,0,2,,,,,,,,,1,,,75,73
243000,note_off,120,0,4,,,,,,,,,3,,,55,0
243000,note_on,0,0,5,,,,,,,,,4,,,39,73
243000,note_off,120,0,5,,,,,,,,,4,,,39,0
243096,note_off,96,0,2,,,,,,,,,1,,,75,0
243096,note_off,96,0,1,,,,,,,,,0,,,87,0
243120,note_on,24,0,1,,,,,,,,,0,,,87,73
243120,note_off,120,0,5,,,,,,,,,4,,,39,0
243120,note_on,24,0,2,,,,,,,,,1,,,75,73
243120,note_on,0,0,5,,,,,,,,,4,,,41,73
243120,note_off,120,0,4,,,,,,,,,3,,,51,0
243120,note_on,0,0,4,,,,,,,,,3,,,51,73
243120,note_off,0,0,4,,,,,,,,,3,,,55,0
243120,note_on,0,0,4,,,,,,,,,3,,,56,73
243216,note_off,96,0,1,,,,,,,,,0,,,87,0
243216,note_off,96,0,2,,,,,,,,,1,,,75,0
243240,note_on,0,0,5,,,,,,,,,4,,,43,74
243240,note_on,0,0,4,,,,,,,,,3,,,58,74
243240,note_on,0,0,4,,,,,,,,,3,,,51,74
243240,note_off,120,0,5,,,,,,,,,4,,,41,0
243240,note_on,24,0,2,,,,,,,,,1,,,75,74
243240,note_off,120,0,4,,,,,,,,,3,,,51,0
243240,note_off,0,0,4,,,,,,,,,3,,,56,0
243240,note_on,24,0,1,,,,,,,,,0,,,87,74
243336,note_off,96,0,1,,,,,,,,,0,,,87,0
243336,note_off,96,0,2,,,,,,,,,1,,,75,0
243360,note_on,24,0,1,,,,,,,,,0,,,87,74
243360,note_off,120,0,5,,,,,,,,,4,,,43,0
243360,note_on,0,0,5,,,,,,,,,4,,,44,74
243360,note_off,0,0,4,,,,,,,,,3,,,51,0
243360,note_off,120,0,4,,,,,,,,,3,,,58,0
243360,note_on,0,0,4,,,,,,,,,3,,,60,74
243360,note_on,0,0,4,,,,,,,,,3,,,51,74
243360,note_on,24,0,2,,,,,,,,,1,,,75,74
243456,note_off,96,0,2,,,,,,,,,1,,,75,0
243456,note_off,96,0,1,,,,,,,,,0,,,87,0
243480,note_off,120,0,4,,,,,,,,,3,,,51,0
243480,note_off,0,0,4,,,,,,,,,3,,,60,0
243480,note_on,24,0,1,,,,,,,,,0,,,87,75
243480,note_on,0,0,4,,,,,,,,,3,,,51,75
243480,note_off,120,0,5,,,,,,,,,4,,,44,0
243480,note_on,0,0,5,,,,,,,,,4,,,46,75
243480,note_on,0,0,4,,,,,,,,,3,,,62,75
243480,note_on,24,0,2,,,,,,,,,1,,,75,75
243576,note_off,96,0,2,,,,,,,,,1,,,75,0
243576,note_off,96,0,1,,,,,,,,,0,,,87,0
243600,note_on,24,0,2,,,,,,,,,1,,,75,75
243600,note_on,0,0,5,,,,,,,,,4,,,48,75
243600,note_off,120,0,5,,,,,,,,,4,,,46,0
243600,note_on,24,0,1,,,,,,,,,0,,,87,75
243600,note_on,0,0,4,,,,,,,,,3,,,63,75
243600,note_on,0,0,4,,,,,,,,,3,,,51,75
243600,note_off,0,0,4,,,,,,,,,3,,,51,0
243600,note_off,120,0,4,,,,,,,,,3,,,62,0
243696,note_off,96,0,1,,,,,,,,,0,,,87,0
243696,note_off,96,0,2,,,,,,,,,1,,,75,0
243720,note_on,24,0,2,,,,,,,,,1,,,75,75
243720,note_on,24,0,1,,,,,,,,,0,,,87,75
243720,note_on,0,0,4,,,,,,,,,3,,,51,75
243720,note_off,120,0,5,,,,,,,,,4,,,48,0
243720,note_off,120,0,4,,,,,,,,,3,,,63,0
243720,note_off,0,0,4,,,,,,,,,3,,,51,0
243720,note_on,0,0,4,,,,,,,,,3,,,60,75
243720,note_on,0,0,5,,,,,,,,,4,,,44,75
243780,set_tempo,900,1,0,,,,,,495867,,,,,,,
243816,note_off,96,0,2,,,,,,,,,1,,,75,0
243816,note_off,96,0,1,,,,,,,,,0,,,87,0
243840,note_off,120,0,5,,,,,,,,,4,,,44,0
243840,set_tempo,60,1,0,,,,,,487804,,,,,,,
243840,note_off,120,0,4,,,,,,,,,3,,,51,0
243840,note_on,0,0,5,,,,,,,,,4,,,43,76
243840,note_on,0,0,4,,,,,,,,,3,,,58,76
243840,note_on,0,0,4,,,,,,,,,3,,,51,76
243840,note_on,24,0,2,,,,,,,,,1,,,75,76
243840,note_off,0,0,4,,,,,,,,,3,,,60,0
243840,note_on,24,0,1,,,,,,,,,0,,,87,76
243960,note_off,120,0,2,,,,,,,,,1,,,75,0
243960,note_on,0,0,2,,,,,,,,,1,,,74,76
243960,note_on,0,0,1,,,,,,,,,0,,,86,76
243960,note_off,120,0,1,,,,,,,,,0,,,87,0
244080,note_off,120,0,2,,,,,,,,,1,,,74,0
244080,note_on,0,0,1,,,,,,,,,0,,,87,77
244080,note_off,120,0,1,,,,,,,,,0,,,86,0
244080,note_on,0,0,2,,,,,,,,,1,,,75,77
244200,note_on,0,0,1,,,,,,,,,0,,,86,77
244200,note_off,120,0,2,,,,,,,,,1,,,75,0
244200,note_off,120,0,1,,,,,,,,,0,,,87,0
244200,note_on,0,0,2,,,,,,,,,1,,,74,77
244320,note_off,120,0,1,,,,,,,,,0,,,86,0
244320,note_on,0,0,1,,,,,,,,,0,,,87,78
244320,note_on,0,0,5,,,,,,,,,4,,,39,78
244320,note_on,0,0,2,,,,,,,,,1,,,75,78
244320,note_on,0,0,4,,,,,,,,,3,,,55,78
244320,note_on,0,0,4,,,,,,,,,3,,,58,78
244320,note_off,0,0,4,,,,,,,,,3,,,58,0
244320,note_off,480,0,4,,,,,,,,,3,,,51,0
244320,note_off,480,0,5,,,,,,,,,4,,,43,0
244320,note_off,120,0,2,,,,,,,,,1,,,74,0
244440,note_off,120,0,1,,,,,,,,,0,,,87,0
244440,note_off,120,0,2,,,,,,,,,1,,,75,0
244440,note_on,0,0,2,,,,,,,,,1,,,74,78
244440,note_on,0,0,1,,,,,,,,,0,,,86,78
244560,note_on,0,0,4,,,,,,,,,3,,,61,79
244560,note_off,240,0,5,,,,,,,,,4,,,39,0
244560,note_on,0,0,5,,,,,,,,,4,,,31,79
244560,note_on,0,0,4,,,,,,,,,3,,,43,79
244560,note_on,0,0,4,,,,,,,,,3,,,58,79
244560,note_on,0,0,2,,,,,,,,,1,,,75,79
244560,note_off,120,0,2,,,,,,,,,1,,,74,0
244560,note_off,120,0,1,,,,,,,,,0,,,86,0
244560,note_off,0,0,4,,,,,,,,,3,,,58,0
244560,note_on,0,0,1,,,,,,,,,0,,,87,79
244560,note_off,240,0,4,,,,,,,,,3,,,55,0
244680,note_on,0,0,2,,,,,,,,,1,,,76,79
244680,note_off,120,0,1,,,,,,,,,0,,,87,0
244680,note_off,120,0,5,,,,,,,,,4,,,31,0
244680,note_on,0,0,1,,,,,,,,,0,,,88,79
244680,note_off,0,0,4,,,,,,,,,3,,,58,0
244680,note_off,0,0,4,,,,,,,,,3,,,61,0
244680,note_off,120,0,4,,,,,,,,,3,,,43,0
244680,note_off,120,0,2,,,,,,,,,1,,,75,0
244740,note_on,0,0,4,,,,,,,,,3,,,43,79
244740,note_on,60,0,4,,,,,,,,,3,,,58,79
244740,note_on,60,0,5,,,,,,,,,4,,,31,79
244740,note_on,0,0,4,,,,,,,,,3,,,61,79
244740,set_tempo,900,1,0,,,,,,495867,,,,,,,
244800,note_on,0,0,4,,,,,,,,,3,,,60,80
244800,note_on,0,0,5,,,,,,,,,4,,,32,80
244800,note_on,0,0,4,,,,,,,,,3,,,44,80
244800,note_on,0,0,4,,,,,,,,,3,,,56,80
244800,note_on,0,0,1,,,,,,,,,0,,,89,80
244800,note_off,0,0,4,,,,,,,,,3,,,58,0
244800,note_off,120,0,1,,,,,,,,,0,,,88,0
244800,note_off,60,0,4,,,,,,,,,3,,,43,0
244800,note_off,60,0,5,,,,,,,,,4,,,31,0
244800,note_on,0,0,2,,,,,,,,,1,,,77,80
244800,note_off,120,0,2,,,,,,,,,1,,,76,0
244800,note_off,0,0,4,,,,,,,,,3,,,61,0
244956,note_off,156,0,2,,,,,,,,,1,,,77,0
244956,note_off,156,0,4,,,,,,,,,3,,,44,0
244956,note_off,0,0,4,,,,,,,,,3,,,56,0
244956,note_off,156,0,1,,,,,,,,,0,,,89,0
244956,note_off,0,0,4,,,,,,,,,3,,,60,0
244956,note_off,156,0,5,,,,,,,,,4,,,32,0
245040,note_on,0,0,4,,,,,,,,,3,,,56,86
245040,note_on,84,0,1,,,,,,,,,0,,,89,86
245040,note_on,84,0,2,,,,,,,,,1,,,77,86
245040,note_on,0,0,4,,,,,,,,,3,,,60,86
245040,note_on,84,0,4,,,,,,,,,3,,,44,86
245040,note_on,84,0,5,,,,,,,,,4,,,32,86
245184,note_off,144,0,4,,,,,,,,,3,,,56,0
245184,note_off,0,0,4,,,,,,,,,3,,,60,0
245184,note_off,0,0,4,,,,,,,,,3,,,44,0
245184,note_off,144,0,1,,,,,,,,,0,,,89,0
245184,note_off,144,0,2,,,,,,,,,1,,,77,0
245184,note_off,144,0,5,,,,,,,,,4,,,32,0
245220,note_on,36,0,4,,,,,,,,,3,,,44,81
245220,note_on,0,0,4,,,,,,,,,3,,,60,81
245220,note_on,36,0,2,,,,,,,,,1,,,77,81
245220,note_on,0,0,4,,,,,,,,,3,,,56,81
245220,note_on,36,0,5,,,,,,,,,4,,,32,81
245220,set_tempo,480,1,0,,,,,,500000,,,,,,,
245220,note_on,36,0,1,,,,,,,,,0,,,89,81
245268,note_off,0,0,4,,,,,,,,,3,,,60,0
245268,note_off,48,0,1,,,,,,,,,0,,,89,0
245268,note_off,0,0,4,,,,,,,,,3,,,44,0
245268,note_off,48,0,2,,,,,,,,,1,,,77,0
245268,note_off,48,0,5,,,,,,,,,4,,,32,0
245268,note_off,48,0,4,,,,,,,,,3,,,56,0
245280,note_on,0,0,4,,,,,,,,,3,,,46,81
245280,note_on,12,0,2,,,,,,,,,1,,,68,81
245280,note_on,0,0,2,,,,,,,,,1,,,65,81
245280,note_on,0,0,4,,,,,,,,,3,,,53,81
245280,set_tempo,60,1,0,,,,,,495867,,,,,,,
245280,note_on,12,0,5,,,,,,,,,4,,,34,81
245280,note_on,0,0,2,,,,,,,,,1,,,74,81
245280,note_on,12,0,4,,,,,,,,,3,,,56,81
245280,note_on,12,0,1,,,,,,,,,0,,,86,81
245280,note_on,0,0,2,,,,,,,,,1,,,80,81
245436,note_off,0,0,4,,,,,,,,,3,,,56,0
245436,note_off,156,0,1,,,,,,,,,0,,,86,0
245436,note_off,0,0,2,,,,,,,,,1,,,74,0
245436,note_off,0,0,2,,,,,,,,,1,,,65,0
245436,note_off,0,0,2,,,,,,,,,1,,,68,0
245436,note_off,0,0,4,,,,,,,,,3,,,53,0
245436,note_off,156,0,4,,,,,,,,,3,,,46,0
245436,note_off,156,0,5,,,,,,,,,4,,,34,0
245436,note_off,156,0,2,,,,,,,,,1,,,80,0
245520,note_on,0,0,2,,,,,,,,,1,,,65,91
245520,note_on,84,0,4,,,,,,,,,3,,,46,91
245520,note_on,0,0,4,,,,,,,,,3,,,56,91
245520,note_on,0,0,4,,,,,,,,,3,,,53,91
245520,note_on,0,0,2,,,,,,,,,1,,,68,91
245520,note_on,84,0,1,,,,,,,,,0,,,86,91
245520,note_on,0,0,2,,,,,,,,,1,,,80,91
245520,note_on,84,0,5,,,,,,,,,4,,,34,91
245520,note_on,84,0,2,,,,,,,,,1,,,74,91
245664,note_off,144,0,2,,,,,,,,,1,,,80,0
245664,note_off,0,0,2,,,,,,,,,1,,,68,0
245664,note_off,0,0,2,,,,,,,,,1,,,65,0
245664,note_off,0,0,2,,,,,,,,,1,,,74,0
245664,note_off,144,0,4,,,,,,,,,3,,,56,0
245664,note_off,0,0,4,,,,,,,,,3,,,53,0
245664,note_off,0,0,4,,,,,,,,,3,,,46,0
245664,note_off,144,0,5,,,,,,,,,4,,,34,0
245664,note_off,144,0,1,,,,,,,,,0,,,86,0
245700,note_on,36,0,5,,,,,,,,,4,,,34,83
245700,note_on,36,0,4,,,,,,,,,3,,,56,83
245700,note_on,0,0,4,,,,,,,,,3,,,46,83
245700,note_on,0,0,4,,,,,,,,,3,,,53,83
245700,note_on,36,0,1,,,,,,,,,0,,,86,83
245700,note_on,0,0,2,,,,,,,,,1,,,74,83
245700,set_tempo,420,1,0,,,,,,508474,,,,,,,
245700,note_on,36,0,2,,,,,,,,,1,,,68,83
245700,note_on,0,0,2,,,,,,,,,1,,,80,83
245700,note_on,0,0,2,,,,,,,,,1,,,65,83
245748,note_off,0,0,4,,,,,,,,,3,,,56,0
245748,note_off,48,0,5,,,,,,,,,4,,,34,0
245748,note_off,48,0,2,,,,,,,,,1,,,80,0
245748,note_off,48,0,1,,,,,,,,,0,,,86,0
245748,note_off,0,0,2,,,,,,,,,1,,,68,0
245748,note_off,0,0,4,,,,,,,,,3,,,53,0
245748,note_off,48,0,4,,,,,,,,,3,,,46,0
245748,note_off,0,0,2,,,,,,,,,1,,,74,0
245748,note_off,0,0,2,,,,,,,,,1,,,65,0
245760,note_on,0,0,2,,,,,,,,,1,,,79,90
245760,note_on,0,0,2,,,,,,,,,1,,,75,90
245760,note_on,0,0,2,,,,,,,,,1,,,67,90
245760,note_on,12,0,2,,,,,,,,,1,,,63,90
245760,note_on,12,0,5,,,,,,,,,4,,,39,90
245760,note_on,12,0,4,,,,,,,,,3,,,51,90
245760,note_on,0,0,4,,,,,,,,,3,,,55,90
245760,note_on,12,0,1,,,,,,,,,0,,,87,90
245880,note_off,120,0,1,,,,,,,,,0,,,87,0
245880,note_off,0,0,2,,,,,,,,,1,,,75,0
245880,note_off,120,0,2,,,,,,,,,1,,,79,0
245880,note_on,0,0,5,,,,,,,,,4,,,39,86
245880,note_off,120,0,5,,,,,,,,,4,,,39,0
245880,note_on,0,0,4,,,,,,,,,3,,,51,86
245880,note_on,0,0,4,,,,,,,,,3,,,55,86
245880,note_off,0,0,4,,,,,,,,,3,,,51,0
245880,note_off,120,0,4,,,,,,,,,3,,,55,0
245880,note_on,0,0,2,,,,,,,,,1,,,75,86
245880,note_on,0,0,2,,,,,,,,,1,,,67,86
245880,note_on,0,0,2,,,,,,,,,1,,,63,86
245880,note_off,0,0,2,,,,,,,,,1,,,63,0
245880,note_off,0,0,2,,,,,,,,,1,,,67,0
245880,note_on,0,0,1,,,,,,,,,0,,,79,86
245960,set_tempo,260,1,0,,,,,,508474,,,,,,,
246000,note_on,0,0,5,,,,,,,,,4,,,39,87
246000,note_off,120,0,5,,,,,,,,,4,,,39,0
246000,note_off,0,0,2,,,,,,,,,1,,,63,0
246000,note_on,0,0,4,,,,,,,,,3,,,56,87
246000,note_off,120,0,1,,,,,,,,,0,,,79,0
246000,note_on,0,0,1,,,,,,,,,0,,,80,87
246000,note_off,120,0,4,,,,,,,,,3,,,51,0
246000,note_off,120,0,2,,,,,,,,,1,,,75,0
246000,note_off,0,0,2,,,,,,,,,1,,,67,0
246000,note_on,0,0,4,,,,,,,,,3,,,53,87
246000,note_on,0,0,2,,,,,,,,,1,,,68,87
246000,note_on,0,0,2,,,,,,,,,1,,,65,87
246000,note_off,0,0,4,,,,,,,,,3,,,55,0
246000,note_on,0,0,2,,,,,,,,,1,,,77,87
246120,note_off,0,0,4,,,,,,,,,3,,,56,0
246120,note_on,0,0,5,,,,,,,,,4,,,39,88
246120,note_on,0,0,4,,,,,,,,,3,,,55,88
246120,note_on,0,0,4,,,,,,,,,3,,,58,88
246120,note_on,0,0,1,,,,,,,,,0,,,82,88
246120,note_off,120,0,4,,,,,,,,,3,,,53,0
246120,note_off,0,0,2,,,,,,,,,1,,,68,0
246120,note_on,0,0,2,,,,,,,,,1,,,67,88
246120,note_on,0,0,2,,,,,,,,,1,,,70,88
246120,note_on,0,0,2,,,,,,,,,1,,,79,88
246120,note_off,120,0,5,,,,,,,,,4,,,39,0
246120,note_off,120,0,1,,,,,,,,,0,,,80,0
246120,note_off,120,0,2,,,,,,,,,1,,,77,0
246120,note_off,0,0,2,,,,,,,,,1,,,65,0
246240,note_off,120,0,4,,,,,,,,,3,,,58,0
246240,note_off,0,0,4,,,,,,,,,3,,,55,0
246240,note_on,0,0,4,,,,,,,,,3,,,51,89
246240,note_on,0,0,4,,,,,,,,,3,,,60,89
246240,note_on,0,0,4,,,,,,,,,3,,,56,89
246240,note_on,0,0,1,,,,,,,,,0,,,84,89
246240,note_off,120,0,1,,,,,,,,,0,,,82,0
246240,note_off,120,0,2,,,,,,,,,1,,,79,0
246240,note_off,0,0,2,,,,,,,,,1,,,70,0
246240,note_off,0,0,2,,,,,,,,,1,,,67,0
246240,note_on,0,0,2,,,,,,,,,1,,,72,89
246240,note_on,0,0,2,,,,,,,,,1,,,68,89
246240,note_on,0,0,2,,,,,,,,,1,,,80,89
246240,note_on,0,0,5,,,,,,,,,4,,,39,89
246240,note_off,120,0,5,,,,,,,,,4,,,39,0
246360,note_on,0,0,1,,,,,,,,,0,,,86,91
246360,note_off,120,0,1,,,,,,,,,0,,,84,0
246360,note_on,0,0,5,,,,,,,,,4,,,39,91
246360,note_on,0,0,4,,,,,,,,,3,,,62,91
246360,note_on,0,0,4,,,,,,,,,3,,,58,91
246360,note_on,0,0,4,,,,,,,,,3,,,51,91
246360,note_on,0,0,2,,,,,,,,,1,,,70,91
246360,note_off,0,0,4,,,,,,,,,3,,,60,0
246360,note_off,120,0,4,,,,,,,,,3,,,56,0
246360,note_off,120,0,5,,,,,,,,,4,,,39,0
246360,note_on,0,0,2,,,,,,,,,1,,,82,91
246360,note_off,120,0,2,,,,,,,,,1,,,80,0
246360,note_off,0,0,2,,,,,,,,,1,,,68,0
246360,note_off,0,0,2,,,,,,,,,1,,,72,0
246360,note_off,0,0,4,,,,,,,,,3,,,51,0
246360,note_on,0,0,2,,,,,,,,,1,,,74,91
246480,note_off,120,0,4,,,,,,,,,3,,,62,0
246480,note_on,0,0,4,,,,,,,,,3,,,63,92
246480,note_on,0,0,4,,,,,,,,,3,,,60,92
246480,note_on,0,0,4,,,,,,,,,3,,,51,92
246480,note_off,0,0,4,,,,,,,,,3,,,51,0
246480,note_off,120,0,5,,,,,,,,,4,,,39,0
246480,note_off,0,0,4,,,,,,,,,3,,,58,0
246480,note_on,0,0,5,,,,,,,,,4,,,39,92
246480,note_off,0,0,2,,,,,,,,,1,,,74,0
246480,note_off,0,0,2,,,,,,,,,1,,,70,0
246480,note_off,120,0,1,,,,,,,,,0,,,86,0
246480,note_on,0,0,2,,,,,,,,,1,,,84,92
246480,note_on,0,0,2,,,,,,,,,1,,,75,92
246480,note_on,0,0,2,,,,,,,,,1,,,72,92
246480,note_on,0,0,1,,,,,,,,,0,,,87,92
246480,note_off,120,0,2,,,,,,,,,1,,,82,0
246570,set_tempo,610,1,0,,,,,,517241,,,,,,,
246600,note_off,0,0,4,,,,,,,,,3,,,60,0
246600,note_on,0,0,2,,,,,,,,,1,,,72,93
246600,note_on,0,0,1,,,,,,,,,0,,,84,93
246600,note_off,0,0,4,,,,,,,,,3,,,51,0
246600,note_off,120,0,2,,,,,,,,,1,,,84,0
246600,note_off,0,0,2,,,,,,,,,1,,,75,0
246600,note_on,0,0,2,,,,,,,,,1,,,80,93
246600,note_on,0,0,2,,,,,,,,,1,,,68,93
246600,note_off,120,0,1,,,,,,,,,0,,,87,0
246600,note_on,0,0,4,,,,,,,,,3,,,51,93
246600,note_off,120,0,4,,,,,,,,,3,,,63,0
246600,note_on,0,0,4,,,,,,,,,3,,,56,93
246600,note_on,0,0,5,,,,,,,,,4,,,39,93
246600,note_on,0,0,4,,,,,,,,,3,,,60,93
246600,note_off,120,0,5,,,,,,,,,4,,,39,0
246600,note_off,0,0,2,,,,,,,,,1,,,72,0
246720,note_off,120,0,4,,,,,,,,,3,,,56,0
246720,note_off,120,0,5,,,,,,,,,4,,,39,0
246720,note_off,120,0,2,,,,,,,,,1,,,80,0
246720,note_off,0,0,2,,,,,,,,,1,,,68,0
246720,note_off,0,0,2,,,,,,,,,1,,,72,0
246720,note_on,0,0,2,,,,,,,,,1,,,70,95
246720,note_on,0,0,2,,,,,,,,,1,,,67,95
246720,note_on,0,0,2,,,,,,,,,1,,,79,95
246720,note_off,0,0,4,,,,,,,,,3,,,51,0
246720,note_on,0,0,4,,,,,,,,,3,,,55,95
246720,note_off,0,0,4,,,,,,,,,3,,,60,0
246720,note_off,120,0,1,,,,,,,,,0,,,84,0
246720,note_on,0,0,1,,,,,,,,,0,,,82,95
246720,note_on,0,0,4,,,,,,,,,3,,,51,95
246720,note_on,0,0,4,,,,,,,,,3,,,58,95
246720,note_on,0,0,5,,,,,,,,,4,,,39,95
247200,set_tempo,630,1,0,,,,,,526315,,,,,,,
247200,note_off,480,0,1,,,,,,,,,0,,,82,0
247200,note_on,0,0,4,,,,,,,,,3,,,55,80
247200,note_on,0,0,1,,,,,,,,,0,,,79,80
247200,note_on,0,0,2,,,,,,,,,1,,,75,80
247200,note_off,0,0,2,,,,,,,,,1,,,67,0
247200,note_off,0,0,2,,,,,,,,,1,,,70,0
247200,note_on,0,0,2,,,,,,,,,1,,,63,80
247200,note_on,0,0,2,,,,,,,,,1,,,67,80
247200,note_off,480,0,4,,,,,,,,,3,,,51,0
247200,note_off,0,0,4,,,,,,,,,3,,,58,0
247200,note_off,0,0,4,,,,,,,,,3,,,55,0
247200,note_on,0,0,4,,,,,,,,,3,,,51,80
247200,note_on,0,0,5,,,,,,,,,4,,,39,80
247200,note_off,480,0,5,,,,,,,,,4,,,39,0
247200,note_off,480,0,2,,,,,,,,,1,,,79,0
247440,note_off,240,0,1,,,,,,,,,0,,,79,0
247440,note_off,0,0,4,,,,,,,,,3,,,51,0
247440,note_on,0,0,1,,,,,,,,,0,,,79,85
247440,note_off,240,0,4,,,,,,,,,3,,,55,0
247440,note_on,0,0,2,,,,,,,,,1,,,67,85
247440,note_off,0,0,2,,,,,,,,,1,,,63,0
247440,note_off,0,0,2,,,,,,,,,1,,,67,0
247440,note_off,240,0,2,,,,,,,,,1,,,75,0
247440,note_off,240,0,5,,,,,,,,,4,,,39,0
247440,set_tempo,240,1,0,,,,,,517241,,,,,,,
247584,note_off,144,0,1,,,,,,,,,0,,,79,0
247584,note_off,144,0,2,,,,,,,,,1,,,67,0
247620,set_tempo,180,1,0,,,,,,540540,,,,,,,
247620,note_on,36,0,1,,,,,,,,,0,,,79,89
247620,note_on,36,0,2,,,,,,,,,1,,,67,89
247668,note_off,48,0,1,,,,,,,,,0,,,79,0
247668,note_off,48,0,2,,,,,,,,,1,,,67,0
247680,note_on,12,0,2,,,,,,,,,1,,,59,92
247680,set_tempo,60,1,0,,,,,,495867,,,,,,,
247680,note_on,0,0,2,,,,,,,,,1,,,62,92
247680,note_on,0,0,2,,,,,,,,,1,,,67,92
247680,note_on,0,0,2,,,,,,,,,1,,,74,92
247680,note_on,0,0,2,,,,,,,,,1,,,71,92
247680,note_on,240,0,4,,,,,,,,,3,,,55,92
247680,note_on,0,0,4,,,,,,,,,3,,,47,92
247680,note_on,240,0,5,,,,,,,,,4,,,31,92
247680,note_on,0,0,4,,,,,,,,,3,,,43,92
247680,note_on,12,0,1,,,,,,,,,0,,,79,92
247680,note_on,0,0,4,,,,,,,,,3,,,50,92
248400,note_off,0,0,2,,,,,,,,,1,,,74,0
248400,note_off,720,0,1,,,,,,,,,0,,,79,0
248400,note_on,0,0,1,,,,,,,,,0,,,79,75
248400,note_off,720,0,2,,,,,,,,,1,,,71,0
248400,note_off,0,0,2,,,,,,,,,1,,,67,0
248400,note_off,0,0,2,,,,,,,,,1,,,62,0
248400,note_off,0,0,2,,,,,,,,,1,,,59,0
248400,note_on,0,0,2,,,,,,,,,1,,,67,75
248460,note_on,0,0,2,,,,,,,,,1,,,65,74
248460,note_off,60,0,2,,,,,,,,,1,,,67,0
248460,note_on,0,0,1,,,,,,,,,0,,,77,74
248460,note_off,60,0,1,,,,,,,,,0,,,79,0
248520,note_on,0,0,1,,,,,,,,,0,,,75,72
248520,note_off,60,0,2,,,,,,,,,1,,,65,0
248520,note_on,0,0,2,,,,,,,,,1,,,63,72
248520,note_off,60,0,1,,,,,,,,,0,,,77,0
248580,note_on,0,0,2,,,,,,,,,1,,,62,71
248580,note_on,0,0,1,,,,,,,,,0,,,74,71
248580,note_off,60,0,1,,,,,,,,,0,,,75,0
248580,set_tempo,900,1,0,,,,,,500000,,,,,,,
248580,note_off,60,0,2,,,,,,,,,1,,,63,0
248640,set_tempo,60,1,0,,,,,,508474,,,,,,,
248640,note_on,0,0,1,,,,,,,,,0,,,75,70
248640,note_off,60,0,1,,,,,,,,,0,,,74,0
248640,note_off,60,0,2,,,,,,,,,1,,,62,0
248640,note_on,0,0,5,,,,,,,,,4,,,36,70
248640,note_on,0,0,4,,,,,,,,,3,,,51,70
248640,note_off,960,0,5,,,,,,,,,4,,,31,0
248640,note_on,0,0,4,,,,,,,,,3,,,48,70
248640,note_off,0,0,4,,,,,,,,,3,,,55,0
248640,note_off,0,0,4,,,,,,,,,3,,,50,0
248640,note_off,0,0,4,,,,,,,,,3,,,47,0
248640,note_off,960,0,4,,,,,,,,,3,,,43,0
248640,note_on,0,0,2,,,,,,,,,1,,,63,70
248640,note_on,0,0,4,,,,,,,,,3,,,55,70
248796,note_off,156,0,4,,,,,,,,,3,,,51,0
248796,note_off,0,0,4,,,,,,,,,3,,,48,0
248796,note_off,156,0,5,,,,,,,,,4,,,36,0
248796,note_off,0,0,4,,,,,,,,,3,,,55,0
248880,note_off,240,0,2,,,,,,,,,1,,,63,0
248880,note_on,0,0,2,,,,,,,,,1,,,72,72
248880,note_on,0,0,1,,,,,,,,,0,,,84,72
248880,note_on,0,0,4,,,,,,,,,3,,,60,72
248880,note_on,84,0,5,,,,,,,,,4,,,32,72
248880,note_on,0,0,4,,,,,,,,,3,,,56,72
248880,note_on,84,0,4,,,,,,,,,3,,,44,72
248880,note_on,0,0,2,,,,,,,,,1,,,80,72
248880,note_off,240,0,1,,,,,,,,,0,,,75,0
248880,note_on,0,0,2,,,,,,,,,1,,,68,72
248887,set_tempo,247,1,0,,,,,,495867,,,,,,,
249036,note_off,156,0,4,,,,,,,,,3,,,60,0
249036,note_off,0,0,4,,,,,,,,,3,,,44,0
249036,note_off,156,0,5,,,,,,,,,4,,,32,0
249036,note_off,0,0,4,,,,,,,,,3,,,56,0
249060,note_off,180,0,1,,,,,,,,,0,,,84,0
249060,note_on,0,0,1,,,,,,,,,0,,,80,69
249060,note_off,180,0,2,,,,,,,,,1,,,80,0
249060,note_off,0,0,2,,,,,,,,,1,,,68,0
249060,note_off,0,0,2,,,,,,,,,1,,,72,0
249060,note_on,0,0,2,,,,,,,,,1,,,68,69
249060,note_on,0,0,2,,,,,,,,,1,,,65,69
249060,note_on,0,0,2,,,,,,,,,1,,,77,69
249120,note_on,84,0,5,,,,,,,,,4,,,34,68
249120,note_off,60,0,1,,,,,,,,,0,,,80,0
249120,note_on,0,0,1,,,,,,,,,0,,,79,68
249120,note_off,0,0,2,,,,,,,,,1,,,65,0
249120,note_off,60,0,2,,,,,,,,,1,,,77,0
249120,note_on,0,0,2,,,,,,,,,1,,,67,68
249120,note_on,84,0,4,,,,,,,,,3,,,46,68
249120,note_on,0,0,4,,,,,,,,,3,,,58,68
249120,note_on,0,0,4,,,,,,,,,3,,,55,68
249120,note_off,0,0,2,,,,,,,,,1,,,68,0
249120,note_on,0,0,2,,,,,,,,,1,,,63,68
249120,note_on,0,0,2,,,,,,,,,1,,,75,68
249240,note_off,0,0,2,,,,,,,,,1,,,67,0
249240,note_off,120,0,1,,,,,,,,,0,,,79,0
249240,note_off,0,0,2,,,,,,,,,1,,,63,0
249240,note_off,120,0,2,,,,,,,,,1,,,75,0
249276,note_off,0,0,4,,,,,,,,,3,,,58,0
249276,note_off,156,0,4,,,,,,,,,3,,,55,0
249276,note_off,156,0,5,,,,,,,,,4,,,34,0
249276,note_off,0,0,4,,,,,,,,,3,,,46,0
249320,set_tempo,433,1,0,,,,,,652173,,,,,,,
249360,note_on,0,0,4,,,,,,,,,3,,,58,64
249360,note_on,84,0,4,,,,,,,,,3,,,46,64
249360,note_on,120,0,2,,,,,,,,,1,,,65,64
249360,note_on,0,0,2,,,,,,,,,1,,,74,64
249360,note_on,0,0,2,,,,,,,,,1,,,62,64
249360,note_on,120,0,1,,,,,,,,,0,,,77,64
249360,note_on,84,0,5,,,,,,,,,4,,,34,64
249480,note_off,0,0,2,,,,,,,,,1,,,65,0
249480,note_off,0,0,2,,,,,,,,,1,,,62,0
249480,note_off,120,0,2,,,,,,,,,1,,,74,0
249480,note_off,120,0,1,,,,,,,,,0,,,77,0
249516,note_off,0,0,4,,,,,,,,,3,,,46,0
249516,note_off,156,0,4,,,,,,,,,3,,,58,0
249516,note_off,156,0,5,,,,,,,,,4,,,34,0
249600,note_on,0,0,4,,,,,,,,,3,,,50,79
249600,set_tempo,280,1,0,,,,,,495867,,,,,,,
249600,note_on,120,0,1,,,,,,,,,0,,,79,79
249600,note_on,120,0,2,,,,,,,,,1,,,71,79
249600,note_on,0,0,2,,,,,,,,,1,,,62,79
249600,note_on,0,0,2,,,,,,,,,1,,,67,79
249600,note_on,0,0,2,,,,,,,,,1,,,59,79
249600,note_on,0,0,2,,,,,,,,,1,,,74,79
249600,note_on,0,0,4,,,,,,,,,3,,,43,79
249600,note_on,84,0,5,,,,,,,,,4,,,31,79
249600,note_on,84,0,4,,,,,,,,,3,,,55,79
249600,note_on,0,0,4,,,,,,,,,3,,,47,79
250320,note_off,720,0,2,,,,,,,,,1,,,74,0
250320,note_off,0,0,2,,,,,,,,,1,,,67,0
250320,note_off,0,0,2,,,,,,,,,1,,,59,0
250320,note_off,0,0,2,,,,,,,,,1,,,62,0
250320,note_off,0,0,2,,,,,,,,,1,,,71,0
250320,note_on,0,0,2,,,,,,,,,1,,,67,64
250320,note_off,720,0,1,,,,,,,,,0,,,79,0
250320,note_on,0,0,1,,,,,,,,,0,,,79,64
250380,note_off,60,0,2,,,,,,,,,1,,,67,0
250380,note_on,0,0,2,,,,,,,,,1,,,65,63
250380,note_on,0,0,1,,,,,,,,,0,,,77,63
250380,note_off,60,0,1,,,,,,,,,0,,,79,0
250440,note_off,60,0,1,,,,,,,,,0,,,77,0
250440,note_off,60,0,2,,,,,,,,,1,,,65,0
250440,note_on,0,0,2,,,,,,,,,1,,,63,61
250440,note_on,0,0,1,,,,,,,,,0,,,75,61
250500,note_off,60,0,1,,,,,,,,,0,,,75,0
250500,note_on,0,0,1,,,,,,,,,0,,,74,59
250500,note_on,0,0,2,,,,,,,,,1,,,62,59
250500,note_off,60,0,2,,,,,,,,,1,,,63,0
250500,set_tempo,900,1,0,,,,,,500000,,,,,,,
250560,note_on,0,0,2,,,,,,,,,1,,,48,58
250560,note_on,0,0,2,,,,,,,,,1,,,63,58
250560,note_on,0,0,1,,,,,,,,,0,,,75,58
250560,note_off,60,0,2,,,,,,,,,1,,,62,0
250560,set_tempo,60,1,0,,,,,,508474,,,,,,,
250560,note_on,0,0,5,,,,,,,,,4,,,36,58
250560,note_off,960,0,5,,,,,,,,,4,,,31,0
250560,note_off,960,0,4,,,,,,,,,3,,,43,0
250560,note_off,0,0,4,,,,,,,,,3,,,47,0
250560,note_off,0,0,4,,,,,,,,,3,,,50,0
250560,note_off,0,0,4,,,,,,,,,3,,,55,0
250560,note_on,0,0,4,,,,,,,,,3,,,55,58
250560,note_on,0,0,4,,,,,,,,,3,,,51,58
250560,note_off,60,0,1,,,,,,,,,0,,,74,0
250800,note_off,240,0,1,,,,,,,,,0,,,75,0
250800,note_off,240,0,5,,,,,,,,,4,,,36,0
250800,note_off,0,0,4,,,,,,,,,3,,,55,0
250800,note_on,0,0,4,,,,,,,,,3,,,51,68
250800,note_off,240,0,4,,,,,,,,,3,,,51,0
250800,note_off,240,0,2,,,,,,,,,1,,,63,0
250800,note_on,0,0,1,,,,,,,,,0,,,87,68
250800,note_on,0,0,4,,,,,,,,,3,,,55,68
250800,note_on,0,0,2,,,,,,,,,1,,,75,68
250800,note_on,0,0,2,,,,,,,,,1,,,72,68
250800,note_on,0,0,2,,,,,,,,,1,,,84,68
250800,note_off,0,0,2,,,,,,,,,1,,,48,0
250800,note_on,0,0,4,,,,,,,,,3,,,60,68
250807,set_tempo,247,1,0,,,,,,495867,,,,,,,
251040,note_off,0,0,4,,,,,,,,,3,,,55,0
251040,note_off,0,0,4,,,,,,,,,3,,,51,0
251040,note_on,0,0,4,,,,,,,,,3,,,44,63
251040,note_on,240,0,5,,,,,,,,,4,,,32,63
251040,note_off,240,0,4,,,,,,,,,3,,,60,0
251280,note_off,480,0,2,,,,,,,,,1,,,84,0
251280,note_off,0,0,2,,,,,,,,,1,,,75,0
251280,note_on,0,0,2,,,,,,,,,1,,,82,60
251280,note_on,0,0,2,,,,,,,,,1,,,74,60
251280,note_off,0,0,2,,,,,,,,,1,,,72,0
251280,note_on,0,0,4,,,,,,,,,3,,,51,60
251280,note_on,0,0,4,,,,,,,,,3,,,56,60
251280,note_off,240,0,4,,,,,,,,,3,,,44,0
251280,note_on,0,0,2,,,,,,,,,1,,,70,60
251280,note_off,240,0,5,,,,,,,,,4,,,32,0
251280,note_on,0,0,1,,,,,,,,,0,,,86,60
251280,note_off,480,0,1,,,,,,,,,0,,,87,0
251280,note_on,0,0,4,,,,,,,,,3,,,60,60
251400,note_off,120,0,2,,,,,,,,,1,,,82,0
251400,note_off,0,0,2,,,,,,,,,1,,,74,0
251400,note_off,0,0,2,,,,,,,,,1,,,70,0
251400,note_on,0,0,2,,,,,,,,,1,,,80,58
251400,note_on,0,0,2,,,,,,,,,1,,,68,58
251400,note_off,120,0,1,,,,,,,,,0,,,86,0
251400,note_on,0,0,1,,,,,,,,,0,,,84,58
251400,note_on,0,0,2,,,,,,,,,1,,,72,58
251460,set_tempo,653,1,0,,,,,,500000,,,,,,,
251478,note_off,78,0,2,,,,,,,,,1,,,80,0
251478,note_off,0,0,2,,,,,,,,,1,,,68,0
251478,note_off,0,0,2,,,,,,,,,1,,,72,0
251478,note_off,78,0,1,,,,,,,,,0,,,84,0
251520,note_on,0,0,2,,,,,,,,,1,,,80,57
251520,note_on,240,0,5,,,,,,,,,4,,,34,57
251520,set_tempo,60,1,0,,,,,,495867,,,,,,,
251520,note_on,42,0,2,,,,,,,,,1,,,72,57
251520,note_on,42,0,1,,,,,,,,,0,,,84,57
251520,note_off,240,0,4,,,,,,,,,3,,,60,0
251520,note_off,0,0,4,,,,,,,,,3,,,51,0
251520,note_off,0,0,4,,,,,,,,,3,,,56,0
251520,note_on,0,0,4,,,,,,,,,3,,,46,57
251520,note_on,0,0,2,,,,,,,,,1,,,68,57
251640,note_off,0,0,2,,,,,,,,,1,,,68,0
251640,note_on,0,0,2,,,,,,,,,1,,,79,55
251640,note_on,0,0,2,,,,,,,,,1,,,70,55
251640,note_on,0,0,2,,,,,,,,,1,,,67,55
251640,note_off,0,0,2,,,,,,,,,1,,,72,0
251640,note_on,0,0,1,,,,,,,,,0,,,82,55
251640,note_off,120,0,1,,,,,,,,,0,,,84,0
251640,note_off,120,0,2,,,,,,,,,1,,,80,0
251718,note_off,78,0,2,,,,,,,,,1,,,79,0
251718,note_off,0,0,2,,,,,,,,,1,,,70,0
251718,note_off,0,0,2,,,,,,,,,1,,,67,0
251718,note_off,78,0,1,,,,,,,,,0,,,82,0
251760,note_on,42,0,2,,,,,,,,,1,,,65,54
251760,note_on,0,0,2,,,,,,,,,1,,,68,54
251760,note_on,0,0,2,,,,,,,,,1,,,77,54
251760,note_on,0,0,4,,,,,,,,,3,,,58,54
251760,note_on,0,0,4,,,,,,,,,3,,,55,54
251760,note_on,42,0,1,,,,,,,,,0,,,80,54
251760,note_on,0,0,4,,,,,,,,,3,,,51,54
251760,note_off,240,0,5,,,,,,,,,4,,,34,0
251760,note_off,240,0,4,,,,,,,,,3,,,46,0
251838,note_off,78,0,2,,,,,,,,,1,,,77,0
251838,note_off,0,0,2,,,,,,,,,1,,,68,0
251838,note_off,78,0,1,,,,,,,,,0,,,80,0
251838,note_off,0,0,2,,,,,,,,,1,,,65,0
251880,note_on,42,0,2,,,,,,,,,1,,,67,52
251880,note_on,0,0,2,,,,,,,,,1,,,63,52
251880,note_on,0,0,2,,,,,,,,,1,,,75,52
251880,note_on,42,0,1,,,,,,,,,0,,,79,52
251958,note_off,78,0,1,,,,,,,,,0,,,79,0
251958,note_off,78,0,2,,,,,,,,,1,,,75,0
251958,note_off,0,0,2,,,,,,,,,1,,,63,0
251958,note_off,0,0,2,,,,,,,,,1,,,67,0
252000,note_on,240,0,5,,,,,,,,,4,,,34,51
252000,note_on,0,0,2,,,,,,,,,1,,,70,51
252000,note_on,0,0,2,,,,,,,,,1,,,79,51
252000,note_on,42,0,1,,,,,,,,,0,,,82,51
252000,note_on,42,0,2,,,,,,,,,1,,,67,51
252000,note_on,0,0,4,,,,,,,,,3,,,46,51
252000,note_off,0,0,4,,,,,,,,,3,,,55,0
252000,note_off,0,0,4,,,,,,,,,3,,,58,0
252000,note_off,240,0,4,,,,,,,,,3,,,51,0
252120,note_on,0,0,1,,,,,,,,,0,,,80,49
252120,note_on,0,0,2,,,,,,,,,1,,,77,49
252120,note_off,120,0,1,,,,,,,,,0,,,82,0
252120,note_off,120,0,2,,,,,,,,,1,,,79,0
252120,note_on,0,0,2,,,,,,,,,1,,,68,49
252120,note_on,0,0,2,,,,,,,,,1,,,65,49
252120,note_off,0,0,2,,,,,,,,,1,,,67,0
252120,note_off,0,0,2,,,,,,,,,1,,,70,0
252198,note_off,78,0,1,,,,,,,,,0,,,80,0
252198,note_off,78,0,2,,,,,,,,,1,,,77,0
252198,note_off,0,0,2,,,,,,,,,1,,,68,0
252198,note_off,0,0,2,,,,,,,,,1,,,65,0
252240,note_on,0,0,2,,,,,,,,,1,,,63,47
252240,note_on,0,0,2,,,,,,,,,1,,,75,47
252240,note_on,42,0,1,,,,,,,,,0,,,79,47
252240,note_on,0,0,4,,,,,,,,,3,,,58,47
252240,note_on,42,0,2,,,,,,,,,1,,,67,47
252240,note_on,0,0,4,,,,,,,,,3,,,56,47
252240,note_off,240,0,5,,,,,,,,,4,,,34,0
252240,note_off,240,0,4,,,,,,,,,3,,,46,0
252318,note_off,0,0,2,,,,,,,,,1,,,67,0
252318,note_off,78,0,2,,,,,,,,,1,,,75,0
252318,note_off,78,0,1,,,,,,,,,0,,,79,0
252318,note_off,0,0,2,,,,,,,,,1,,,63,0
252350,set_tempo,830,1,0,,,,,,508474,,,,,,,
252360,note_on,0,0,2,,,,,,,,,1,,,62,46
252360,note_on,0,0,2,,,,,,,,,1,,,74,46
252360,note_on,42,0,2,,,,,,,,,1,,,65,46
252360,note_on,42,0,1,,,,,,,,,0,,,77,46
252438,note_off,0,0,2,,,,,,,,,1,,,62,0
252438,note_off,0,0,2,,,,,,,,,1,,,65,0
252438,note_off,78,0,1,,,,,,,,,0,,,77,0
252438,note_off,78,0,2,,,,,,,,,1,,,74,0
252480,note_off,240,0,4,,,,,,,,,3,,,56,0
252480,note_off,0,0,4,,,,,,,,,3,,,58,0
252480,note_on,0,0,4,,,,,,,,,3,,,55,48
252480,note_on,240,0,5,,,,,,,,,4,,,39,48
252480,note_on,0,0,4,,,,,,,,,3,,,58,48
252480,note_on,0,0,4,,,,,,,,,3,,,51,48
252480,note_on,42,0,2,,,,,,,,,1,,,63,48
252480,note_on,42,0,1,,,,,,,,,0,,,75,48
252480,set_tempo,130,1,0,,,,,,487804,,,,,,,
252558,note_off,78,0,1,,,,,,,,,0,,,75,0
252558,note_off,78,0,2,,,,,,,,,1,,,63,0
252600,note_on,42,0,1,,,,,,,,,0,,,82,47
252600,note_on,42,0,2,,,,,,,,,1,,,70,47
252678,note_off,78,0,1,,,,,,,,,0,,,82,0
252678,note_off,78,0,2,,,,,,,,,1,,,70,0
252720,note_off,240,0,5,,,,,,,,,4,,,39,0
252720,note_on,42,0,1,,,,,,,,,0,,,79,47
252720,note_off,240,0,4,,,,,,,,,3,,,51,0
252720,note_off,0,0,4,,,,,,,,,3,,,58,0
252720,note_off,0,0,4,,,,,,,,,3,,,55,0
252720,note_on,42,0,2,,,,,,,,,1,,,67,47
252798,note_off,78,0,1,,,,,,,,,0,,,79,0
252798,note_off,78,0,2,,,,,,,,,1,,,67,0
252840,note_on,42,0,1,,,,,,,,,0,,,82,47
252840,note_on,42,0,2,,,,,,,,,1,,,70,47
252918,note_off,78,0,2,,,,,,,,,1,,,70,0
252918,note_off,78,0,1,,,,,,,,,0,,,82,0
252960,note_on,42,0,2,,,,,,,,,1,,,75,47
252960,note_on,42,0,1,,,,,,,,,0,,,87,47
253038,note_off,78,0,1,,,,,,,,,0,,,87,0
253038,note_off,78,0,2,,,,,,,,,1,,,75,0
253080,note_on,42,0,2,,,,,,,,,1,,,70,46
253080,note_on,42,0,1,,,,,,,,,0,,,82,46
253158,note_off,78,0,2,,,,,,,,,1,,,70,0
253158,note_off,78,0,1,,,,,,,,,0,,,82,0
253200,note_on,42,0,2,,,,,,,,,1,,,67,46
253200,note_on,42,0,1,,,,,,,,,0,,,79,46
253278,note_off,78,0,2,,,,,,,,,1,,,67,0
253278,note_off,78,0,1,,,,,,,,,0,,,79,0
253320,note_on,42,0,2,,,,,,,,,1,,,70,46
253320,note_on,42,0,1,,,,,,,,,0,,,82,46
253380,set_tempo,900,1,0,,,,,,495867,,,,,,,
253398,note_off,78,0,2,,,,,,,,,1,,,70,0
253398,note_off,78,0,1,,,,,,,,,0,,,82,0
253440,note_on,720,0,5,,,,,,,,,4,,,46,51
253440,set_tempo,60,1,0,,,,,,487804,,,,,,,
253440,note_on,0,0,4,,,,,,,,,3,,,53,46
253440,note_on,0,0,4,,,,,,,,,3,,,58,46
253440,note_on,0,0,4,,,,,,,,,3,,,65,46
253440,note_on,42,0,2,,,,,,,,,1,,,74,46
253440,note_on,42,0,1,,,,,,,,,0,,,86,46
253440,note_on,720,0,4,,,,,,,,,3,,,62,46
253518,note_off,78,0,2,,,,,,,,,1,,,74,0
253518,note_off,78,0,1,,,,,,,,,0,,,86,0
253560,note_on,42,0,2,,,,,,,,,1,,,70,46
253560,note_on,42,0,1,,,,,,,,,0,,,82,46
253638,note_off,78,0,2,,,,,,,,,1,,,70,0
253638,note_off,78,0,1,,,,,,,,,0,,,82,0
253680,note_on,42,0,2,,,,,,,,,1,,,68,45
253680,note_on,42,0,1,,,,,,,,,0,,,80,45
253758,note_off,78,0,2,,,,,,,,,1,,,68,0
253758,note_off,78,0,1,,,,,,,,,0,,,80,0
253800,note_on,42,0,1,,,,,,,,,0,,,82,45
253800,note_on,42,0,2,,,,,,,,,1,,,70,45
253878,note_off,78,0,2,,,,,,,,,1,,,70,0
253878,note_off,78,0,1,,,,,,,,,0,,,82,0
253920,note_off,480,0,5,,,,,,,,,4,,,46,0
253920,note_on,0,0,4,,,,,,,,,3,,,65,45
253920,note_on,0,0,5,,,,,,,,,4,,,46,54
253920,note_on,42,0,1,,,,,,,,,0,,,86,45
253920,note_on,0,0,4,,,,,,,,,3,,,62,45
253920,note_on,0,0,4,,,,,,,,,3,,,53,45
253920,note_off,0,0,4,,,,,,,,,3,,,62,0
253920,note_on,0,0,4,,,,,,,,,3,,,58,45
253920,note_off,0,0,4,,,,,,,,,3,,,58,0
253920,note_on,42,0,2,,,,,,,,,1,,,74,45
253920,note_off,480,0,4,,,,,,,,,3,,,65,0
253920,note_off,0,0,4,,,,,,,,,3,,,53,0
253998,note_off,78,0,2,,,,,,,,,1,,,74,0
253998,note_off,78,0,1,,,,,,,,,0,,,86,0
254040,note_on,42,0,2,,,,,,,,,1,,,70,45
254040,note_on,42,0,1,,,,,,,,,0,,,82,45
254118,note_off,78,0,1,,,,,,,,,0,,,82,0
254118,note_off,78,0,2,,,,,,,,,1,,,70,0
254160,note_on,42,0,1,,,,,,,,,0,,,80,44
254160,note_on,42,0,2,,,,,,,,,1,,,68,44
254238,note_off,78,0,1,,,,,,,,,0,,,80,0
254238,note_off,78,0,2,,,,,,,,,1,,,68,0
254280,note_on,42,0,1,,,,,,,,,0,,,82,44
254280,note_on,42,0,2,,,,,,,,,1,,,70,44
254280,note_off,0,0,4,,,,,,,,,3,,,53,0
254280,note_off,0,0,4,,,,,,,,,3,,,62,0
254280,note_off,0,0,4,,,,,,,,,3,,,58,0
254280,note_off,360,0,4,,,,,,,,,3,,,65,0
254280,note_off,360,0,5,,,,,,,,,4,,,46,0
254340,note_on,0,0,4,,,,,,,,,3,,,62,44
254340,note_on,60,0,5,,,,,,,,,4,,,46,44
254340,note_on,0,0,4,,,,,,,,,3,,,58,44
254340,note_on,60,0,4,,,,,,,,,3,,,53,44
254340,set_tempo,900,1,0,,,,,,495867,,,,,,,
254340,note_on,0,0,4,,,,,,,,,3,,,65,44
254358,note_off,78,0,1,,,,,,,,,0,,,82,0
254358,note_off,78,0,2,,,,,,,,,1,,,70,0
254400,note_on,42,0,1,,,,,,,,,0,,,87,44
254400,note_on,0,0,5,,,,,,,,,4,,,51,49
254400,note_off,60,0,5,,,,,,,,,4,,,46,0
254400,note_on,42,0,2,,,,,,,,,1,,,75,44
254400,set_tempo,60,1,0,,,,,,487804,,,,,,,
254400,note_on,0,0,4,,,,,,,,,3,,,63,44
254400,note_off,0,0,4,,,,,,,,,3,,,53,0
254400,note_off,0,0,4,,,,,,,,,3,,,62,0
254400,note_off,0,0,4,,,,,,,,,3,,,58,0
254400,note_off,60,0,4,,,,,,,,,3,,,65,0
254400,note_on,0,0,4,,,,,,,,,3,,,67,44
254400,note_on,0,0,4,,,,,,,,,3,,,58,44
254400,note_on,0,0,4,,,,,,,,,3,,,55,44
254478,note_off,78,0,2,,,,,,,,,1,,,75,0
254478,note_off,78,0,1,,,,,,,,,0,,,87,0
254520,note_on,42,0,2,,,,,,,,,1,,,70,44
254520,note_on,42,0,1,,,,,,,,,0,,,82,44
254598,note_off,78,0,2,,,,,,,,,1,,,70,0
254598,note_off,78,0,1,,,,,,,,,0,,,82,0
254640,note_on,42,0,1,,,,,,,,,0,,,79,44
254640,note_on,42,0,2,,,,,,,,,1,,,67,44
254640,note_off,240,0,4,,,,,,,,,3,,,67,0
254640,note_off,0,0,4,,,,,,,,,3,,,58,0
254640,note_off,0,0,4,,,,,,,,,3,,,63,0
254640,note_off,0,0,4,,,,,,,,,3,,,55,0
254640,note_off,240,0,5,,,,,,,,,4,,,51,0
254640,note_on,0,0,5,,,,,,,,,4,,,58,59
254718,note_off,78,0,1,,,,,,,,,0,,,79,0
254718,note_off,78,0,2,,,,,,,,,1,,,67,0
254760,note_on,42,0,2,,,,,,,,,1,,,70,43
254760,note_on,42,0,1,,,,,,,,,0,,,82,43
254838,note_off,78,0,1,,,,,,,,,0,,,82,0
254838,note_off,78,0,2,,,,,,,,,1,,,70,0
254880,note_on,42,0,2,,,,,,,,,1,,,75,43
254880,note_on,42,0,1,,,,,,,,,0,,,87,43
254958,note_off,78,0,1,,,,,,,,,0,,,87,0
254958,note_off,78,0,2,,,,,,,,,1,,,75,0
255000,note_on,42,0,2,,,,,,,,,1,,,70,43
255000,note_on,42,0,1,,,,,,,,,0,,,82,43
255078,note_off,78,0,2,,,,,,,,,1,,,70,0
255078,note_off,78,0,1,,,,,,,,,0,,,82,0
255120,note_on,42,0,2,,,,,,,,,1,,,67,43
255120,note_off,480,0,5,,,,,,,,,4,,,58,0
255120,note_on,0,0,5,,,,,,,,,4,,,55,48
255120,note_on,42,0,1,,,,,,,,,0,,,79,43
255198,note_off,78,0,2,,,,,,,,,1,,,67,0
255198,note_off,78,0,1,,,,,,,,,0,,,79,0
255240,note_on,42,0,1,,,,,,,,,0,,,82,42
255240,note_on,42,0,2,,,,,,,,,1,,,70,42
255300,note_off,180,0,5,,,,,,,,,4,,,55,0
255300,set_tempo,900,1,0,,,,,,495867,,,,,,,
255300,note_on,0,0,5,,,,,,,,,4,,,51,47
255318,note_off,78,0,1,,,,,,,,,0,,,82,0
255318,note_off,78,0,2,,,,,,,,,1,,,70,0
255360,note_on,0,0,4,,,,,,,,,3,,,56,42
255360,note_on,0,0,4,,,,,,,,,3,,,62,42
255360,note_on,0,0,4,,,,,,,,,3,,,58,42
255360,note_on,0,0,4,,,,,,,,,3,,,65,42
255360,note_on,42,0,1,,,,,,,,,0,,,86,42
255360,note_on,42,0,2,,,,,,,,,1,,,74,42
255360,note_on,720,0,4,,,,,,,,,3,,,53,42
255360,set_tempo,60,1,0,,,,,,487804,,,,,,,
255360,note_off,60,0,5,,,,,,,,,4,,,51,0
255360,note_on,0,0,5,,,,,,,,,4,,,46,47
255438,note_off,78,0,2,,,,,,,,,1,,,74,0
255438,note_off,78,0,1,,,,,,,,,0,,,86,0
255480,note_on,42,0,2,,,,,,,,,1,,,70,42
255480,note_on,42,0,1,,,,,,,,,0,,,82,42
255558,note_off,78,0,2,,,,,,,,,1,,,70,0
255558,note_off,78,0,1,,,,,,,,,0,,,82,0
255600,note_on,42,0,1,,,,,,,,,0,,,80,42
255600,note_on,42,0,2,,,,,,,,,1,,,68,42
255678,note_off,78,0,2,,,,,,,,,1,,,68,0
255678,note_off,78,0,1,,,,,,,,,0,,,80,0
255720,note_on,42,0,1,,,,,,,,,0,,,82,42
255720,note_on,42,0,2,,,,,,,,,1,,,70,42
255798,note_off,78,0,1,,,,,,,,,0,,,82,0
255798,note_off,78,0,2,,,,,,,,,1,,,70,0
255840,note_on,42,0,1,,,,,,,,,0,,,86,41
255840,note_off,480,0,4,,,,,,,,,3,,,65,0
255840,note_off,0,0,4,,,,,,,,,3,,,58,0
255840,note_off,0,0,4,,,,,,,,,3,,,62,0
255840,note_off,480,0,5,,,,,,,,,4,,,46,0
255840,note_on,42,0,2,,,,,,,,,1,,,74,41
255840,note_off,0,0,4,,,,,,,,,3,,,56,0
255840,note_off,0,0,4,,,,,,,,,3,,,53,0
255840,note_on,0,0,4,,,,,,,,,3,,,62,41
255840,note_on,0,0,4,,,,,,,,,3,,,58,41
255840,note_on,0,0,4,,,,,,,,,3,,,56,41
255840,note_on,0,0,4,,,,,,,,,3,,,53,41
255840,note_on,0,0,4,,,,,,,,,3,,,65,41
255840,note_on,0,0,5,,,,,,,,,4,,,46,46
255918,note_off,78,0,1,,,,,,,,,0,,,86,0
255918,note_off,78,0,2,,,,,,,,,1,,,74,0
255960,note_on,42,0,1,,,,,,,,,0,,,82,41
255960,note_on,42,0,2,,,,,,,,,1,,,70,41
256038,note_off,78,0,1,,,,,,,,,0,,,82,0
256038,note_off,78,0,2,,,,,,,,,1,,,70,0
256080,note_on,42,0,1,,,,,,,,,0,,,80,41
256080,note_on,42,0,2,,,,,,,,,1,,,68,41
256158,note_off,78,0,2,,,,,,,,,1,,,68,0
256158,note_off,78,0,1,,,,,,,,,0,,,80,0
256200,note_off,0,0,4,,,,,,,,,3,,,53,0
256200,note_off,360,0,5,,,,,,,,,4,,,46,0
256200,note_off,0,0,4,,,,,,,,,3,,,56,0
256200,note_on,42,0,2,,,,,,,,,1,,,70,41
256200,note_off,360,0,4,,,,,,,,,3,,,65,0
256200,note_off,0,0,4,,,,,,,,,3,,,58,0
256200,note_off,0,0,4,,,,,,,,,3,,,62,0
256200,note_on,42,0,1,,,,,,,,,0,,,82,41
256260,note_on,0,0,4,,,,,,,,,3,,,53,41
256260,set_tempo,900,1,0,,,,,,495867,,,,,,,
256260,note_on,60,0,5,,,,,,,,,4,,,46,46
256260,note_on,60,0,4,,,,,,,,,3,,,62,41
256260,note_on,0,0,4,,,,,,,,,3,,,58,41
256260,note_on,0,0,4,,,,,,,,,3,,,65,41
256260,note_on,0,0,4,,,,,,,,,3,,,56,41
256278,note_off,78,0,2,,,,,,,,,1,,,70,0
256278,note_off,78,0,1,,,,,,,,,0,,,82,0
256320,note_off,0,0,4,,,,,,,,,3,,,56,0
256320,note_off,0,0,4,,,,,,,,,3,,,58,0
256320,note_off,0,0,4,,,,,,,,,3,,,62,0
256320,note_on,0,0,4,,,,,,,,,3,,,58,40
256320,note_on,0,0,4,,,,,,,,,3,,,55,40
256320,note_on,0,0,4,,,,,,,,,3,,,51,40
256320,note_on,0,0,4,,,,,,,,,3,,,63,40
256320,note_on,42,0,1,,,,,,,,,0,,,87,40
256320,note_off,60,0,4,,,,,,,,,3,,,65,0
256320,note_off,0,0,4,,,,,,,,,3,,,53,0
256320,note_on,0,0,5,,,,,,,,,4,,,39,45
256320,set_tempo,60,1,0,,,,,,487804,,,,,,,
256320,note_on,42,0,2,,,,,,,,,1,,,75,40
256320,note_on,0,0,2,,,,,,,,,1,,,67,40
256320,note_on,0,0,2,,,,,,,,,1,,,79,40
256320,note_off,60,0,5,,,,,,,,,4,,,46,0
256398,note_off,0,0,4,,,,,,,,,3,,,58,0
256398,note_off,0,0,4,,,,,,,,,3,,,55,0
256398,note_off,0,0,4,,,,,,,,,3,,,51,0
256398,note_off,78,0,4,,,,,,,,,3,,,63,0
256398,note_off,78,0,5,,,,,,,,,4,,,39,0
256440,note_on,42,0,5,,,,,,,,,4,,,46,40
256440,note_on,42,0,4,,,,,,,,,3,,,58,40
256518,note_off,78,0,5,,,,,,,,,4,,,46,0
256518,note_off,78,0,4,,,,,,,,,3,,,58,0
256560,note_on,42,0,5,,,,,,,,,4,,,43,40
256560,note_on,42,0,4,,,,,,,,,3,,,55,40
256638,note_off,78,0,4,,,,,,,,,3,,,55,0
256638,note_off,78,0,5,,,,,,,,,4,,,43,0
256680,note_on,42,0,4,,,,,,,,,3,,,58,40
256680,note_on,42,0,5,,,,,,,,,4,,,46,40
256758,note_off,78,0,4,,,,,,,,,3,,,58,0
256758,note_off,78,0,5,,,,,,,,,4,,,46,0
256800,note_on,42,0,5,,,,,,,,,4,,,51,40
256800,note_off,480,0,2,,,,,,,,,1,,,79,0
256800,note_off,0,0,2,,,,,,,,,1,,,67,0
256800,note_off,0,0,2,,,,,,,,,1,,,75,0
256800,note_on,42,0,4,,,,,,,,,3,,,63,40
256800,note_off,480,0,1,,,,,,,,,0,,,87,0
256878,note_off,78,0,4,,,,,,,,,3,,,63,0
256878,note_off,78,0,5,,,,,,,,,4,,,51,0
256920,note_on,42,0,4,,,,,,,,,3,,,58,39
256920,note_on,42,0,5,,,,,,,,,4,,,46,39
256998,note_off,78,0,5,,,,,,,,,4,,,46,0
256998,note_off,78,0,4,,,,,,,,,3,,,58,0
257040,note_on,42,0,4,,,,,,,,,3,,,55,39
257040,note_on,42,0,5,,,,,,,,,4,,,43,39
257118,note_off,78,0,4,,,,,,,,,3,,,55,0
257118,note_off,78,0,5,,,,,,,,,4,,,43,0
257160,note_on,42,0,4,,,,,,,,,3,,,58,39
257160,note_on,42,0,5,,,,,,,,,4,,,46,39
257220,set_tempo,900,1,0,,,,,,508474,,,,,,,
257238,note_off,78,0,4,,,,,,,,,3,,,58,0
257238,note_off,78,0,5,,,,,,,,,4,,,46,0
257280,note_on,480,0,1,,,,,,,,,0,,,77,39
257280,note_on,42,0,5,,,,,,,,,4,,,34,39
257280,note_on,480,0,2,,,,,,,,,1,,,74,39
257280,set_tempo,60,1,0,,,,,,487804,,,,,,,
257280,note_on,0,0,2,,,,,,,,,1,,,65,39
257280,note_on,0,0,4,,,,,,,,,3,,,50,39
257280,note_on,0,0,2,,,,,,,,,1,,,70,39
257280,note_on,42,0,4,,,,,,,,,3,,,62,39
257358,note_off,0,0,4,,,,,,,,,3,,,62,0
257358,note_off,78,0,4,,,,,,,,,3,,,50,0
257358,note_off,78,0,5,,,,,,,,,4,,,34,0
257400,note_on,42,0,4,,,,,,,,,3,,,58,38
257400,note_on,42,0,5,,,,,,,,,4,,,46,38
257478,note_off,78,0,5,,,,,,,,,4,,,46,0
257478,note_off,78,0,4,,,,,,,,,3,,,58,0
257520,note_on,42,0,5,,,,,,,,,4,,,44,38
257520,note_on,42,0,4,,,,,,,,,3,,,56,38
257598,note_off,78,0,5,,,,,,,,,4,,,44,0
257598,note_off,78,0,4,,,,,,,,,3,,,56,0
257640,note_on,42,0,5,,,,,,,,,4,,,46,38
257640,note_on,42,0,4,,,,,,,,,3,,,58,38
257718,note_off,78,0,4,,,,,,,,,3,,,58,0
257718,note_off,78,0,5,,,,,,,,,4,,,46,0
257760,note_on,42,0,4,,,,,,,,,3,,,62,38
257760,note_on,0,0,4,,,,,,,,,3,,,50,38
257760,note_on,42,0,5,,,,,,,,,4,,,34,38
257760,note_off,480,0,1,,,,,,,,,0,,,77,0
257760,note_on,0,0,1,,,,,,,,,0,,,77,38
257760,note_on,0,0,2,,,,,,,,,1,,,74,38
257760,note_on,0,0,2,,,,,,,,,1,,,65,38
257760,note_on,0,0,2,,,,,,,,,1,,,70,38
257760,note_off,0,0,2,,,,,,,,,1,,,74,0
257760,note_off,0,0,2,,,,,,,,,1,,,70,0
257760,note_off,480,0,2,,,,,,,,,1,,,65,0
257838,note_off,78,0,4,,,,,,,,,3,,,50,0
257838,note_off,0,0,4,,,,,,,,,3,,,62,0
257838,note_off,78,0,5,,,,,,,,,4,,,34,0
257880,note_on,42,0,5,,,,,,,,,4,,,46,38
257880,note_on,42,0,4,,,,,,,,,3,,,58,38
257958,note_off,78,0,4,,,,,,,,,3,,,58,0
257958,note_off,78,0,5,,,,,,,,,4,,,46,0
258000,note_on,42,0,4,,,,,,,,,3,,,56,37
258000,note_on,42,0,5,,,,,,,,,4,,,44,37
258078,note_off,78,0,4,,,,,,,,,3,,,56,0
258078,note_off,78,0,5,,,,,,,,,4,,,44,0
258120,note_off,360,0,2,,,,,,,,,1,,,74,0
258120,note_off,0,0,2,,,,,,,,,1,,,70,0
258120,note_off,0,0,2,,,,,,,,,1,,,65,0
258120,note_on,42,0,4,,,,,,,,,3,,,58,37
258120,note_off,360,0,1,,,,,,,,,0,,,77,0
258120,note_on,42,0,5,,,,,,,,,4,,,46,37
258180,set_tempo,900,1,0,,,,,,495867,,,,,,,
258180,note_on,60,0,2,,,,,,,,,1,,,70,37
258180,note_on,0,0,2,,,,,,,,,1,,,65,37
258180,note_on,0,0,2,,,,,,,,,1,,,74,37
258180,note_on,60,0,1,,,,,,,,,0,,,77,37
258198,note_off,78,0,5,,,,,,,,,4,,,46,0
258198,note_off,78,0,4,,,,,,,,,3,,,58,0
258240,note_off,0,0,2,,,,,,,,,1,,,70,0
258240,note_off,0,0,2,,,,,,,,,1,,,74,0
258240,note_off,60,0,2,,,,,,,,,1,,,65,0
258240,note_on,42,0,5,,,,,,,,,4,,,39,37
258240,set_tempo,60,1,0,,,,,,487804,,,,,,,
258240,note_on,0,0,2,,,,,,,,,1,,,67,37
258240,note_on,0,0,2,,,,,,,,,1,,,75,37
258240,note_on,0,0,4,,,,,,,,,3,,,51,37
258240,note_on,0,0,2,,,,,,,,,1,,,70,37
258240,note_on,0,0,1,,,,,,,,,0,,,79,37
258240,note_off,60,0,1,,,,,,,,,0,,,77,0
258240,note_on,42,0,4,,,,,,,,,3,,,63,37
258318,note_off,78,0,4,,,,,,,,,3,,,51,0
258318,note_off,0,0,4,,,,,,,,,3,,,63,0
258318,note_off,78,0,5,,,,,,,,,4,,,39,0
258360,note_on,42,0,5,,,,,,,,,4,,,46,37
258360,note_on,42,0,4,,,,,,,,,3,,,58,37
258438,note_off,78,0,4,,,,,,,,,3,,,58,0
258438,note_off,78,0,5,,,,,,,,,4,,,46,0
258480,note_off,0,0,2,,,,,,,,,1,,,67,0
258480,note_on,42,0,4,,,,,,,,,3,,,55,43
258480,note_off,240,0,1,,,,,,,,,0,,,79,0
258480,note_on,0,0,1,,,,,,,,,0,,,82,53
258480,note_on,42,0,5,,,,,,,,,4,,,43,43
258480,note_off,0,0,2,,,,,,,,,1,,,70,0
258480,note_on,0,0,2,,,,,,,,,1,,,70,53
258480,note_off,240,0,2,,,,,,,,,1,,,75,0
258558,note_off,78,0,4,,,,,,,,,3,,,55,0
258558,note_off,78,0,5,,,,,,,,,4,,,43,0
258600,note_on,42,0,4,,,,,,,,,3,,,58,36
258600,note_on,42,0,5,,,,,,,,,4,,,46,36
258678,note_off,78,0,4,,,,,,,,,3,,,58,0
258678,note_off,78,0,5,,,,,,,,,4,,,46,0
258720,note_on,0,0,4,,,,,,,,,3,,,51,36
258720,note_on,42,0,4,,,,,,,,,3,,,63,36
258720,note_on,42,0,5,,,,,,,,,4,,,39,36
258798,note_off,0,0,4,,,,,,,,,3,,,63,0
258798,note_off,78,0,5,,,,,,,,,4,,,39,0
258798,note_off,78,0,4,,,,,,,,,3,,,51,0
258840,note_on,42,0,4,,,,,,,,,3,,,58,36
258840,note_on,42,0,5,,,,,,,,,4,,,46,36
258918,note_off,78,0,4,,,,,,,,,3,,,58,0
258918,note_off,78,0,5,,,,,,,,,4,,,46,0
258960,note_off,480,0,2,,,,,,,,,1,,,70,0
258960,note_on,0,0,1,,,,,,,,,0,,,79,36
258960,note_off,480,0,1,,,,,,,,,0,,,82,0
258960,note_on,0,0,2,,,,,,,,,1,,,67,36
258960,note_on,42,0,5,,,,,,,,,4,,,43,36
258960,note_on,42,0,4,,,,,,,,,3,,,55,36
259038,note_off,78,0,5,,,,,,,,,4,,,43,0
259038,note_off,78,0,4,,,,,,,,,3,,,55,0
259080,note_on,42,0,5,,,,,,,,,4,,,46,35
259080,note_on,42,0,4,,,,,,,,,3,,,58,35
259140,note_on,60,0,4,,,,,,,,,3,,,63,35
259140,note_off,180,0,1,,,,,,,,,0,,,79,0
259140,note_on,0,0,1,,,,,,,,,0,,,75,35
259140,set_tempo,900,1,0,,,,,,495867,,,,,,,
259140,note_off,180,0,2,,,,,,,,,1,,,67,0
259158,note_off,18,0,4,,,,,,,,,3,,,58,0
259158,note_off,78,0,5,,,,,,,,,4,,,46,0
259200,note_on,0,0,1,,,,,,,,,0,,,77,35
259200,note_on,0,0,4,,,,,,,,,3,,,50,35
259200,note_off,60,0,1,,,,,,,,,0,,,75,0
259200,note_on,60,0,2,,,,,,,,,1,,,65,35
259200,note_on,0,0,4,,,,,,,,,3,,,62,35
259200,note_on,0,0,2,,,,,,,,,1,,,74,35
259200,note_on,0,0,2,,,,,,,,,1,,,70,35
259200,note_on,42,0,5,,,,,,,,,4,,,34,35
259200,note_off,42,0,4,,,,,,,,,3,,,63,0
259200,set_tempo,60,1,0,,,,,,487804,,,,,,,
259278,note_off,78,0,5,,,,,,,,,4,,,34,0
259278,note_off,78,0,4,,,,,,,,,3,,,50,0
259278,note_off,0,0,4,,,,,,,,,3,,,62,0
259320,note_on,42,0,5,,,,,,,,,4,,,46,35
259320,note_on,42,0,4,,,,,,,,,3,,,58,35
259398,note_off,78,0,5,,,,,,,,,4,,,46,0
259398,note_off,78,0,4,,,,,,,,,3,,,58,0
259440,note_on,42,0,4,,,,,,,,,3,,,56,35
259440,note_on,42,0,5,,,,,,,,,4,,,44,35
259518,note_off,78,0,5,,,,,,,,,4,,,44,0
259518,note_off,78,0,4,,,,,,,,,3,,,56,0
259560,note_on,42,0,5,,,,,,,,,4,,,46,34
259560,note_on,42,0,4,,,,,,,,,3,,,58,34
259638,note_off,78,0,5,,,,,,,,,4,,,46,0
259638,note_off,78,0,4,,,,,,,,,3,,,58,0
259680,note_on,0,0,1,,,,,,,,,0,,,77,34
259680,note_off,0,0,2,,,,,,,,,1,,,70,0
259680,note_off,0,0,2,,,,,,,,,1,,,65,0
259680,note_on,0,0,2,,,,,,,,,1,,,65,34
259680,note_on,0,0,2,,,,,,,,,1,,,70,34
259680,note_on,0,0,2,,,,,,,,,1,,,74,34
259680,note_off,480,0,1,,,,,,,,,0,,,77,0
259680,note_on,42,0,4,,,,,,,,,3,,,62,34
259680,note_on,42,0,5,,,,,,,,,4,,,34,34
259680,note_on,0,0,4,,,,,,,,,3,,,50,34
259680,note_off,480,0,2,,,,,,,,,1,,,74,0
259758,note_off,78,0,5,,,,,,,,,4,,,34,0
259758,note_off,78,0,4,,,,,,,,,3,,,50,0
259758,note_off,0,0,4,,,,,,,,,3,,,62,0
259800,note_on,42,0,4,,,,,,,,,3,,,58,34
259800,note_on,42,0,5,,,,,,,,,4,,,46,34
259878,note_off,78,0,4,,,,,,,,,3,,,58,0
259878,note_off,78,0,5,,,,,,,,,4,,,46,0
259920,note_on,42,0,4,,,,,,,,,3,,,56,34
259920,note_on,42,0,5,,,,,,,,,4,,,44,34
259998,note_off,78,0,4,,,,,,,,,3,,,56,0
259998,note_off,78,0,5,,,,,,,,,4,,,44,0
260040,note_off,0,0,2,,,,,,,,,1,,,70,0
260040,note_on,42,0,4,,,,,,,,,3,,,58,34
260040,note_on,42,0,5,,,,,,,,,4,,,46,34
260040,note_off,360,0,1,,,,,,,,,0,,,77,0
260040,note_off,0,0,2,,,,,,,,,1,,,65,0
260040,note_off,360,0,2,,,,,,,,,1,,,74,0
260100,note_on,60,0,1,,,,,,,,,0,,,77,33
260100,note_on,0,0,2,,,,,,,,,1,,,74,33
260100,note_on,0,0,2,,,,,,,,,1,,,70,33
260100,set_tempo,900,1,0,,,,,,495867,,,,,,,
260100,note_on,60,0,2,,,,,,,,,1,,,65,33
260118,note_off,78,0,5,,,,,,,,,4,,,46,0
260118,note_off,78,0,4,,,,,,,,,3,,,58,0
260160,note_off,0,0,2,,,,,,,,,1,,,65,0
260160,note_off,60,0,1,,,,,,,,,0,,,77,0
260160,note_off,60,0,2,,,,,,,,,1,,,74,0
260160,note_off,0,0,2,,,,,,,,,1,,,70,0
260160,note_on,42,0,5,,,,,,,,,4,,,39,33
260160,note_on,42,0,4,,,,,,,,,3,,,55,33
260160,note_on,0,0,2,,,,,,,,,1,,,67,33
260160,note_on,0,0,1,,,,,,,,,0,,,75,33
260160,set_tempo,60,1,0,,,,,,487804,,,,,,,
260160,note_on,0,0,2,,,,,,,,,1,,,70,33
260238,note_off,78,0,5,,,,,,,,,4,,,39,0
260238,note_off,78,0,4,,,,,,,,,3,,,55,0
260280,note_on,42,0,5,,,,,,,,,4,,,39,33
260280,note_on,42,0,4,,,,,,,,,3,,,51,33
260352,note_off,192,0,2,,,,,,,,,1,,,70,0
260352,note_off,0,0,2,,,,,,,,,1,,,67,0
260352,note_off,192,0,1,,,,,,,,,0,,,75,0
260358,note_off,78,0,5,,,,,,,,,4,,,39,0
260358,note_off,78,0,4,,,,,,,,,3,,,51,0
260400,note_on,0,0,2,,,,,,,,,1,,,67,33
260400,note_on,42,0,5,,,,,,,,,4,,,43,33
260400,note_on,42,0,4,,,,,,,,,3,,,55,33
260400,note_on,48,0,1,,,,,,,,,0,,,87,33
260400,note_on,48,0,2,,,,,,,,,1,,,70,33
260400,note_on,0,0,2,,,,,,,,,1,,,82,33
260400,note_on,0,0,2,,,,,,,,,1,,,79,33
260478,note_off,78,0,5,,,,,,,,,4,,,43,0
260478,note_off,78,0,4,,,,,,,,,3,,,55,0
260496,note_off,0,0,2,,,,,,,,,1,,,70,0
260496,note_off,96,0,2,,,,,,,,,1,,,79,0
260496,note_off,0,0,2,,,,,,,,,1,,,82,0
260496,note_off,96,0,1,,,,,,,,,0,,,87,0
260496,note_off,0,0,2,,,,,,,,,1,,,67,0
260520,note_on,42,0,5,,,,,,,,,4,,,46,33
260520,note_on,42,0,4,,,,,,,,,3,,,58,33
260580,note_on,84,0,1,,,,,,,,,0,,,87,33
260580,note_on,84,0,2,,,,,,,,,1,,,70,33
260580,note_on,0,0,2,,,,,,,,,1,,,67,33
260580,note_on,0,0,2,,,,,,,,,1,,,79,33
260580,note_on,0,0,2,,,,,,,,,1,,,82,33
260598,note_off,78,0,4,,,,,,,,,3,,,58,0
260598,note_off,78,0,5,,,,,,,,,4,,,46,0
260628,note_off,48,0,1,,,,,,,,,0,,,87,0
260628,note_off,0,0,2,,,,,,,,,1,,,70,0
260628,note_off,48,0,2,,,,,,,,,1,,,82,0
260628,note_off,0,0,2,,,,,,,,,1,,,79,0
260628,note_off,0,0,2,,,,,,,,,1,,,67,0
260640,note_on,0,0,2,,,,,,,,,1,,,75,32
260640,note_on,42,0,4,,,,,,,,,3,,,51,32
260640,note_on,12,0,2,,,,,,,,,1,,,67,32
260640,note_on,0,0,2,,,,,,,,,1,,,63,32
260640,note_on,12,0,1,,,,,,,,,0,,,87,32
260640,note_on,42,0,5,,,,,,,,,4,,,39,32
260640,note_on,0,0,2,,,,,,,,,1,,,79,32
260718,note_off,78,0,4,,,,,,,,,3,,,51,0
260718,note_off,78,0,5,,,,,,,,,4,,,39,0
260760,note_on,42,0,5,,,,,,,,,4,,,39,32
260760,note_on,42,0,4,,,,,,,,,3,,,51,32
260832,note_off,0,0,2,,,,,,,,,1,,,67,0
260832,note_off,0,0,2,,,,,,,,,1,,,63,0
260832,note_off,0,0,2,,,,,,,,,1,,,79,0
260832,note_off,192,0,2,,,,,,,,,1,,,75,0
260832,note_off,192,0,1,,,,,,,,,0,,,87,0
260838,note_off,78,0,5,,,,,,,,,4,,,39,0
260838,note_off,78,0,4,,,,,,,,,3,,,51,0
260880,note_on,42,0,5,,,,,,,,,4,,,43,32
260880,note_on,0,0,2,,,,,,,,,1,,,79,32
260880,note_on,42,0,4,,,,,,,,,3,,,55,32
260880,note_on,48,0,1,,,,,,,,,0,,,87,32
260880,note_on,0,0,2,,,,,,,,,1,,,82,32
260880,note_on,48,0,2,,,,,,,,,1,,,70,32
260880,note_on,0,0,2,,,,,,,,,1,,,67,32
260958,note_off,78,0,4,,,,,,,,,3,,,55,0
260958,note_off,78,0,5,,,,,,,,,4,,,43,0
261000,note_on,42,0,4,,,,,,,,,3,,,58,32
261000,note_on,42,0,5,,,,,,,,,4,,,46,32
261024,note_off,0,0,2,,,,,,,,,1,,,67,0
261024,note_off,144,0,1,,,,,,,,,0,,,87,0
261024,note_off,144,0,2,,,,,,,,,1,,,82,0
261024,note_off,0,0,2,,,,,,,,,1,,,79,0
261024,note_off,0,0,2,,,,,,,,,1,,,70,0
261060,note_on,0,0,2,,,,,,,,,1,,,79,32
261060,note_on,0,0,2,,,,,,,,,1,,,82,32
261060,note_on,0,0,2,,,,,,,,,1,,,67,32
261060,note_on,36,0,1,,,,,,,,,0,,,87,32
261060,note_on,36,0,2,,,,,,,,,1,,,70,32
261060,set_tempo,900,1,0,,,,,,500000,,,,,,,
261078,note_off,78,0,4,,,,,,,,,3,,,58,0
261078,note_off,78,0,5,,,,,,,,,4,,,46,0
261108,note_off,0,0,2,,,,,,,,,1,,,82,0
261108,note_off,48,0,2,,,,,,,,,1,,,79,0
261108,note_off,48,0,1,,,,,,,,,0,,,87,0
261108,note_off,0,0,2,,,,,,,,,1,,,67,0
261108,note_off,0,0,2,,,,,,,,,1,,,70,0
261120,note_on,12,0,2,,,,,,,,,1,,,67,32
261120,note_on,0,0,2,,,,,,,,,1,,,63,32
261120,note_on,0,0,2,,,,,,,,,1,,,79,32
261120,note_on,0,0,2,,,,,,,,,1,,,75,32
261120,note_on,12,0,1,,,,,,,,,0,,,87,32
261120,note_on,42,0,5,,,,,,,,,4,,,39,32
261120,set_tempo,60,1,0,,,,,,508474,,,,,,,
261120,note_on,42,0,4,,,,,,,,,3,,,51,32
261276,note_off,156,0,4,,,,,,,,,3,,,51,0
261276,note_off,156,0,1,,,,,,,,,0,,,87,0
261276,note_off,0,0,2,,,,,,,,,1,,,67,0
261276,note_off,0,0,2,,,,,,,,,1,,,63,0
261276,note_off,0,0,2,,,,,,,,,1,,,79,0
261276,note_off,156,0,5,,,,,,,,,4,,,39,0
261276,note_off,156,0,2,,,,,,,,,1,,,75,0
261360,note_on,0,0,2,,,,,,,,,1,,,79,31
261360,note_on,0,0,2,,,,,,,,,1,,,75,31
261360,note_on,84,0,5,,,,,,,,,4,,,39,31
261360,note_on,84,0,4,,,,,,,,,3,,,51,31
261360,note_on,84,0,2,,,,,,,,,1,,,63,31
261360,note_on,84,0,1,,,,,,,,,0,,,87,31
261516,note_off,156,0,1,,,,,,,,,0,,,87,0
261516,note_off,156,0,4,,,,,,,,,3,,,51,0
261516,note_off,156,0,5,,,,,,,,,4,,,39,0
261516,note_off,0,0,2,,,,,,,,,1,,,63,0
261516,note_off,0,0,2,,,,,,,,,1,,,79,0
261516,note_off,156,0,2,,,,,,,,,1,,,75,0
261540,set_tempo,420,1,0,,,,,,517241,,,,,,,
261600,note_on,84,0,5,,,,,,,,,4,,,39,31
261600,note_on,84,0,1,,,,,,,,,0,,,87,31
261600,note_on,0,0,2,,,,,,,,,1,,,75,31
261600,note_on,84,0,4,,,,,,,,,3,,,51,31
261600,note_on,84,0,2,,,,,,,,,1,,,63,31
261600,note_on,0,0,2,,,,,,,,,1,,,79,31
261756,note_off,156,0,5,,,,,,,,,4,,,39,0
261756,note_off,156,0,4,,,,,,,,,3,,,51,0
261756,note_off,156,0,2,,,,,,,,,1,,,75,0
261756,note_off,0,0,2,,,,,,,,,1,,,79,0
261756,note_off,0,0,2,,,,,,,,,1,,,63,0
261756,note_off,156,0,1,,,,,,,,,0,,,87,0
261840,control_change,84,0,4,,,,,,,64,0,3,,,,
261840,control_change,30240,0,3,,,,,,,64,0,2,,,,
261840,set_tempo,300,1,0,,,,,,769230,,,,,,,
261840,control_change,84,0,5,,,,,,,64,0,4,,,,
261840,control_change,84,0,2,,,,,,,64,0,1,,,,
261840,control_change,84,0,1,,,,,,,64,0,0,,,,
261960,set_tempo,120,1,0,,,,,,508474,,,,,,,
262000,note_on,160,0,5,,,,,,,,,4,,,32,72
262040,note_on,0,0,5,,,,,,,,,4,,,31,75
262040,note_off,40,0,5,,,,,,,,,4,,,32,0
262080,note_on,0,0,5,,,,,,,,,4,,,32,79
262080,note_off,40,0,5,,,,,,,,,4,,,31,0
262080,set_tempo,120,1,0,,,,,,500000,,,,,,,
262236,note_off,156,0,5,,,,,,,,,4,,,32,0
262320,note_on,84,0,5,,,,,,,,,4,,,32,60
262476,note_off,156,0,5,,,,,,,,,4,,,32,0
262480,note_on,4,0,5,,,,,,,,,4,,,32,70
262520,note_on,0,0,5,,,,,,,,,4,,,31,72
262520,note_off,40,0,5,,,,,,,,,4,,,32,0
262560,note_on,0,0,5,,,,,,,,,4,,,32,75
262560,note_off,40,0,5,,,,,,,,,4,,,31,0
262716,note_off,156,0,5,,,,,,,,,4,,,32,0
262800,note_on,84,0,5,,,,,,,,,4,,,32,58
262956,note_off,156,0,5,,,,,,,,,4,,,32,0
262960,note_on,4,0,5,,,,,,,,,4,,,32,69
263000,note_off,40,0,5,,,,,,,,,4,,,32,0
263000,note_on,0,0,5,,,,,,,,,4,,,31,71
263040,note_off,40,0,5,,,,,,,,,4,,,31,0
263040,note_on,0,0,5,,,,,,,,,4,,,32,74
263196,note_off,156,0,5,,,,,,,,,4,,,32,0
263280,note_on,84,0,5,,,,,,,,,4,,,32,57
263436,note_off,156,0,5,,,,,,,,,4,,,32,0
263520,note_on,84,0,5,,,,,,,,,4,,,32,56
263676,note_off,156,0,5,,,,,,,,,4,,,32,0
263760,note_on,84,0,5,,,,,,,,,4,,,32,55
263760,note_on,1920,0,4,,,,,,,,,3,,,60,55
263880,note_off,120,0,4,,,,,,,,,3,,,60,0
263880,note_on,0,0,4,,,,,,,,,3,,,63,55
263916,note_off,156,0,5,,,,,,,,,4,,,32,0
264000,note_on,84,0,5,,,,,,,,,4,,,32,54
264000,note_off,120,0,4,,,,,,,,,3,,,63,0
264000,note_on,0,0,4,,,,,,,,,3,,,53,54
264120,note_off,120,0,4,,,,,,,,,3,,,53,0
264120,note_on,0,0,4,,,,,,,,,3,,,61,54
264156,note_off,156,0,5,,,,,,,,,4,,,32,0
264240,note_off,120,0,4,,,,,,,,,3,,,61,0
264240,note_on,0,0,4,,,,,,,,,3,,,56,53
264240,note_on,84,0,5,,,,,,,,,4,,,32,53
264360,note_on,0,0,4,,,,,,,,,3,,,65,53
264360,note_off,120,0,4,,,,,,,,,3,,,56,0
264396,note_off,156,0,5,,,,,,,,,4,,,32,0
264480,note_on,0,0,4,,,,,,,,,3,,,55,52
264480,note_off,120,0,4,,,,,,,,,3,,,65,0
264480,note_on,84,0,5,,,,,,,,,4,,,32,52
264600,note_off,120,0,4,,,,,,,,,3,,,55,0
264600,note_on,0,0,4,,,,,,,,,3,,,63,52
264636,note_off,156,0,5,,,,,,,,,4,,,32,0
264720,note_off,120,0,4,,,,,,,,,3,,,63,0
264720,note_on,0,0,4,,,,,,,,,3,,,58,51
264720,note_on,84,0,5,,,,,,,,,4,,,32,51
264840,note_on,0,0,4,,,,,,,,,3,,,61,51
264840,note_off,120,0,4,,,,,,,,,3,,,58,0
264876,note_off,156,0,5,,,,,,,,,4,,,32,0
264960,note_on,84,0,5,,,,,,,,,4,,,32,50
264960,note_off,120,0,4,,,,,,,,,3,,,61,0
264960,note_on,0,0,4,,,,,,,,,3,,,56,50
264960,note_on,0,0,4,,,,,,,,,3,,,60,50
264960,note_on,3120,0,2,,,,,,,,,1,,,68,50
264960,note_on,3120,0,1,,,,,,,,,0,,,80,50
265040,note_on,0,0,1,,,,,,,,,0,,,75,50
265040,note_on,0,0,2,,,,,,,,,1,,,63,50
265040,note_off,80,0,2,,,,,,,,,1,,,68,0
265040,note_off,80,0,1,,,,,,,,,0,,,80,0
265116,note_off,156,0,5,,,,,,,,,4,,,32,0
265120,note_off,80,0,2,,,,,,,,,1,,,63,0
265120,note_off,80,0,1,,,,,,,,,0,,,75,0
265120,note_on,0,0,2,,,,,,,,,1,,,68,50
265120,note_on,0,0,1,,,,,,,,,0,,,80,50
265200,note_off,80,0,1,,,,,,,,,0,,,80,0
265200,note_on,0,0,1,,,,,,,,,0,,,84,49
265200,note_off,0,0,4,,,,,,,,,3,,,56,0
265200,note_on,84,0,5,,,,,,,,,4,,,32,49
265200,note_off,240,0,4,,,,,,,,,3,,,60,0
265200,note_off,80,0,2,,,,,,,,,1,,,68,0
265200,note_on,0,0,2,,,,,,,,,1,,,72,49
265280,note_on,0,0,2,,,,,,,,,1,,,68,49
265280,note_off,80,0,2,,,,,,,,,1,,,72,0
265280,note_off,80,0,1,,,,,,,,,0,,,84,0
265280,note_on,0,0,1,,,,,,,,,0,,,80,49
265356,note_off,156,0,5,,,,,,,,,4,,,32,0
265360,note_on,0,0,2,,,,,,,,,1,,,72,49
265360,note_off,80,0,2,,,,,,,,,1,,,68,0
265360,note_off,80,0,1,,,,,,,,,0,,,80,0
265360,note_on,0,0,1,,,,,,,,,0,,,84,49
265380,set_tempo,3300,1,0,,,,,,508474,,,,,,,
265440,note_off,80,0,1,,,,,,,,,0,,,84,0
265440,note_on,0,0,1,,,,,,,,,0,,,87,49
265440,note_on,0,0,2,,,,,,,,,1,,,75,49
265440,note_off,80,0,2,,,,,,,,,1,,,72,0
265440,note_on,84,0,5,,,,,,,,,4,,,32,49
265596,note_off,156,0,5,,,,,,,,,4,,,32,0
265680,note_on,84,0,5,,,,,,,,,4,,,32,48
265680,set_tempo,300,1,0,,,,,,517241,,,,,,,
265800,set_tempo,120,1,0,,,,,,500000,,,,,,,
265836,note_off,156,0,5,,,,,,,,,4,,,32,0
265840,note_on,4,0,5,,,,,,,,,4,,,32,65
265880,note_off,40,0,5,,,,,,,,,4,,,32,0
265880,note_on,0,0,5,,,,,,,,,4,,,31,69
265920,note_off,480,0,1,,,,,,,,,0,,,87,0
265920,note_off,40,0,5,,,,,,,,,4,,,31,0
265920,note_off,480,0,2,,,,,,,,,1,,,75,0
265920,note_on,0,0,5,,,,,,,,,4,,,32,73
266076,note_off,156,0,5,,,,,,,,,4,,,32,0
266160,note_on,84,0,5,,,,,,,,,4,,,32,58
266316,note_off,156,0,5,,,,,,,,,4,,,32,0
266320,note_on,4,0,5,,,,,,,,,4,,,32,64
266360,note_on,0,0,5,,,,,,,,,4,,,31,67
266360,note_off,40,0,5,,,,,,,,,4,,,32,0
266400,note_on,0,0,5,,,,,,,,,4,,,32,70
266400,note_off,40,0,5,,,,,,,,,4,,,31,0
266556,note_off,156,0,5,,,,,,,,,4,,,32,0
266640,note_on,84,0,5,,,,,,,,,4,,,32,53
266796,note_off,156,0,5,,,,,,,,,4,,,32,0
266800,note_on,4,0,5,,,,,,,,,4,,,32,61
266840,note_off,40,0,5,,,,,,,,,4,,,32,0
266840,note_on,0,0,5,,,,,,,,,4,,,31,64
266880,note_off,40,0,5,,,,,,,,,4,,,31,0
266880,note_on,0,0,5,,,,,,,,,4,,,32,66
267036,note_off,156,0,5,,,,,,,,,4,,,32,0
267120,note_on,84,0,5,,,,,,,,,4,,,32,55
267276,note_off,156,0,5,,,,,,,,,4,,,32,0
267360,note_on,84,0,5,,,,,,,,,4,,,32,54
267516,note_off,156,0,5,,,,,,,,,4,,,32,0
267600,note_on,2400,0,4,,,,,,,,,3,,,54,53
267600,note_on,84,0,5,,,,,,,,,4,,,32,53
267720,note_on,0,0,4,,,,,,,,,3,,,63,52
267720,note_off,120,0,4,,,,,,,,,3,,,54,0
267756,note_off,156,0,5,,,,,,,,,4,,,32,0
267840,note_on,0,0,4,,,,,,,,,3,,,53,52
267840,note_on,84,0,5,,,,,,,,,4,,,32,52
267840,note_off,120,0,4,,,,,,,,,3,,,63,0
267960,note_on,0,0,4,,,,,,,,,3,,,61,51
267960,note_off,120,0,4,,,,,,,,,3,,,53,0
267996,note_off,156,0,5,,,,,,,,,4,,,32,0
268080,note_off,120,0,4,,,,,,,,,3,,,61,0
268080,note_on,0,0,4,,,,,,,,,3,,,49,51
268080,note_on,84,0,5,,,,,,,,,4,,,32,51
268200,note_off,120,0,4,,,,,,,,,3,,,49,0
268200,note_on,0,0,4,,,,,,,,,3,,,58,50
268236,note_off,156,0,5,,,,,,,,,4,,,32,0
268320,note_off,120,0,4,,,,,,,,,3,,,58,0
268320,note_on,84,0,5,,,,,,,,,4,,,32,50
268320,note_on,0,0,4,,,,,,,,,3,,,46,50
268440,note_off,120,0,4,,,,,,,,,3,,,46,0
268440,note_on,0,0,4,,,,,,,,,3,,,55,49
268476,note_off,156,0,5,,,,,,,,,4,,,32,0
268560,note_on,84,0,5,,,,,,,,,4,,,32,49
268560,note_off,120,0,4,,,,,,,,,3,,,55,0
268560,note_on,0,0,4,,,,,,,,,3,,,49,49
268680,note_on,0,0,4,,,,,,,,,3,,,58,49
268680,note_off,120,0,4,,,,,,,,,3,,,49,0
268716,note_off,156,0,5,,,,,,,,,4,,,32,0
268800,note_off,120,0,4,,,,,,,,,3,,,58,0
268800,note_on,2880,0,1,,,,,,,,,0,,,80,48
268800,note_on,84,0,5,,,,,,,,,4,,,32,48
268800,note_on,2880,0,2,,,,,,,,,1,,,68,48
268800,note_on,0,0,4,,,,,,,,,3,,,48,48
268800,note_on,0,0,4,,,,,,,,,3,,,56,48
268880,note_on,0,0,1,,,,,,,,,0,,,75,48
268880,note_on,0,0,2,,,,,,,,,1,,,63,48
268880,note_off,80,0,1,,,,,,,,,0,,,80,0
268880,note_off,80,0,2,,,,,,,,,1,,,68,0
268956,note_off,156,0,5,,,,,,,,,4,,,32,0
268960,note_off,80,0,1,,,,,,,,,0,,,75,0
268960,note_on,0,0,1,,,,,,,,,0,,,80,47
268960,note_on,0,0,2,,,,,,,,,1,,,68,47
268960,note_off,80,0,2,,,,,,,,,1,,,63,0
269040,note_off,80,0,1,,,,,,,,,0,,,80,0
269040,note_on,0,0,1,,,,,,,,,0,,,84,47
269040,note_off,240,0,4,,,,,,,,,3,,,56,0
269040,note_off,80,0,2,,,,,,,,,1,,,68,0
269040,note_on,84,0,5,,,,,,,,,4,,,32,47
269040,note_on,0,0,2,,,,,,,,,1,,,72,47
269120,note_off,80,0,1,,,,,,,,,0,,,84,0
269120,note_on,0,0,1,,,,,,,,,0,,,87,47
269120,note_on,0,0,2,,,,,,,,,1,,,75,47
269120,note_off,80,0,2,,,,,,,,,1,,,72,0
269196,note_off,156,0,5,,,,,,,,,4,,,32,0
269200,note_off,80,0,1,,,,,,,,,0,,,87,0
269200,note_on,0,0,1,,,,,,,,,0,,,84,46
269200,note_on,0,0,2,,,,,,,,,1,,,72,46
269200,note_off,80,0,2,,,,,,,,,1,,,75,0
269220,set_tempo,3420,1,0,,,,,,508474,,,,,,,
269280,note_on,84,0,5,,,,,,,,,4,,,32,46
269280,note_off,80,0,1,,,,,,,,,0,,,84,0
269280,note_on,0,0,1,,,,,,,,,0,,,80,46
269280,note_off,240,0,4,,,,,,,,,3,,,48,0
269280,note_off,80,0,2,,,,,,,,,1,,,72,0
269280,note_on,0,0,2,,,,,,,,,1,,,68,46
269400,set_tempo,180,1,0,,,,,,517241,,,,,,,
269436,note_off,156,0,5,,,,,,,,,4,,,32,0
269520,set_tempo,120,1,0,,,,,,769230,,,,,,,
269520,control_change,240,0,1,,,,,,,64,0,0,,,,
269520,note_off,0,0,1,,,,,,,,,0,,,80,0
269520,control_change,7680,0,3,,,,,,,64,0,2,,,,
269520,control_change,240,0,2,,,,,,,64,0,1,,,,
269520,note_off,0,0,2,,,,,,,,,1,,,68,0
269520,control_change,84,0,5,,,,,,,64,0,4,,,,
269520,control_change,240,0,4,,,,,,,64,0,3,,,,
269640,set_tempo,120,1,0,,,,,,508474,,,,,,,
269680,note_on,160,0,5,,,,,,,,,4,,,32,72
269720,note_off,40,0,5,,,,,,,,,4,,,32,0
269720,note_on,0,0,5,,,,,,,,,4,,,31,75
269760,set_tempo,120,1,0,,,,,,500000,,,,,,,
269760,note_on,0,0,5,,,,,,,,,4,,,32,79
269760,note_off,40,0,5,,,,,,,,,4,,,31,0
269916,note_off,156,0,5,,,,,,,,,4,,,32,0
270000,note_on,84,0,5,,,,,,,,,4,,,32,60
270156,note_off,156,0,5,,,,,,,,,4,,,32,0
270160,note_on,4,0,5,,,,,,,,,4,,,32,70
270200,note_on,0,0,5,,,,,,,,,4,,,31,72
270200,note_off,40,0,5,,,,,,,,,4,,,32,0
270240,note_on,0,0,5,,,,,,,,,4,,,32,75
270240,note_off,40,0,5,,,,,,,,,4,,,31,0
270396,note_off,156,0,5,,,,,,,,,4,,,32,0
270480,note_on,84,0,5,,,,,,,,,4,,,32,58
270636,note_off,156,0,5,,,,,,,,,4,,,32,0
270640,note_on,4,0,5,,,,,,,,,4,,,32,69
270680,note_on,0,0,5,,,,,,,,,4,,,31,71
270680,note_off,40,0,5,,,,,,,,,4,,,32,0
270720,note_on,0,0,5,,,,,,,,,4,,,32,74
270720,note_off,40,0,5,,,,,,,,,4,,,31,0
270876,note_off,156,0,5,,,,,,,,,4,,,32,0
270960,note_on,84,0,5,,,,,,,,,4,,,32,57
271116,note_off,156,0,5,,,,,,,,,4,,,32,0
271200,note_on,84,0,5,,,,,,,,,4,,,32,56
271356,note_off,156,0,5,,,,,,,,,4,,,32,0
271440,note_on,1920,0,4,,,,,,,,,3,,,60,55
271440,note_on,84,0,5,,,,,,,,,4,,,32,55
271560,note_off,120,0,4,,,,,,,,,3,,,60,0
271560,note_on,0,0,4,,,,,,,,,3,,,63,55
271596,note_off,156,0,5,,,,,,,,,4,,,32,0
271680,note_off,120,0,4,,,,,,,,,3,,,63,0
271680,note_on,0,0,4,,,,,,,,,3,,,53,54
271680,note_on,84,0,5,,,,,,,,,4,,,32,54
271800,note_off,120,0,4,,,,,,,,,3,,,53,0
271800,note_on,0,0,4,,,,,,,,,3,,,61,54
271836,note_off,156,0,5,,,,,,,,,4,,,32,0
271920,note_on,0,0,4,,,,,,,,,3,,,56,53
271920,note_off,120,0,4,,,,,,,,,3,,,61,0
271920,note_on,84,0,5,,,,,,,,,4,,,32,53
272040,note_on,0,0,4,,,,,,,,,3,,,65,53
272040,note_off,120,0,4,,,,,,,,,3,,,56,0
272076,note_off,156,0,5,,,,,,,,,4,,,32,0
272160,note_on,0,0,4,,,,,,,,,3,,,55,52
272160,note_off,120,0,4,,,,,,,,,3,,,65,0
272160,note_on,84,0,5,,,,,,,,,4,,,32,52
272280,note_on,0,0,4,,,,,,,,,3,,,63,52
272280,note_off,120,0,4,,,,,,,,,3,,,55,0
272316,note_off,156,0,5,,,,,,,,,4,,,32,0
272400,note_on,0,0,4,,,,,,,,,3,,,58,51
272400,note_off,120,0,4,,,,,,,,,3,,,63,0
272400,note_on,84,0,5,,,,,,,,,4,,,32,51
272520,note_on,0,0,4,,,,,,,,,3,,,61,51
272520,note_off,120,0,4,,,,,,,,,3,,,58,0
272556,note_off,156,0,5,,,,,,,,,4,,,32,0
272640,note_on,3120,0,1,,,,,,,,,0,,,80,50
272640,note_on,0,0,4,,,,,,,,,3,,,56,50
272640,note_on,0,0,4,,,,,,,,,3,,,60,50
272640,note_on,84,0,5,,,,,,,,,4,,,32,50
272640,note_on,3120,0,2,,,,,,,,,1,,,68,50
272640,note_off,120,0,4,,,,,,,,,3,,,61,0
272720,note_off,80,0,1,,,,,,,,,0,,,80,0
272720,note_on,0,0,1,,,,,,,,,0,,,75,50
272720,note_off,80,0,2,,,,,,,,,1,,,68,0
272720,note_on,0,0,2,,,,,,,,,1,,,63,50
272796,note_off,156,0,5,,,,,,,,,4,,,32,0
272800,note_off,80,0,1,,,,,,,,,0,,,75,0
272800,note_on,0,0,1,,,,,,,,,0,,,80,50
272800,note_on,0,0,2,,,,,,,,,1,,,68,50
272800,note_off,80,0,2,,,,,,,,,1,,,63,0
272880,note_off,80,0,2,,,,,,,,,1,,,68,0
272880,note_off,240,0,4,,,,,,,,,3,,,56,0
272880,note_off,0,0,4,,,,,,,,,3,,,60,0
272880,note_on,84,0,5,,,,,,,,,4,,,32,49
272880,note_off,80,0,1,,,,,,,,,0,,,80,0
272880,note_on,0,0,1,,,,,,,,,0,,,84,49
272880,note_on,0,0,2,,,,,,,,,1,,,72,49
272960,note_off,80,0,2,,,,,,,,,1,,,72,0
272960,note_on,0,0,1,,,,,,,,,0,,,80,49
272960,note_off,80,0,1,,,,,,,,,0,,,84,0
272960,note_on,0,0,2,,,,,,,,,1,,,68,49
273036,note_off,156,0,5,,,,,,,,,4,,,32,0
273040,note_on,0,0,1,,,,,,,,,0,,,84,49
273040,note_on,0,0,2,,,,,,,,,1,,,72,49
273040,note_off,80,0,2,,,,,,,,,1,,,68,0
273040,note_off,80,0,1,,,,,,,,,0,,,80,0
273060,set_tempo,3300,1,0,,,,,,508474,,,,,,,
273120,note_on,0,0,2,,,,,,,,,1,,,75,49
273120,note_on,84,0,5,,,,,,,,,4,,,32,49
273120,note_on,0,0,1,,,,,,,,,0,,,87,49
273120,note_off,80,0,1,,,,,,,,,0,,,84,0
273120,note_off,80,0,2,,,,,,,,,1,,,72,0
273276,note_off,156,0,5,,,,,,,,,4,,,32,0
273360,set_tempo,300,1,0,,,,,,517241,,,,,,,
273360,note_on,84,0,5,,,,,,,,,4,,,32,48
273480,set_tempo,120,1,0,,,,,,500000,,,,,,,
273516,note_off,156,0,5,,,,,,,,,4,,,32,0
273520,note_on,4,0,5,,,,,,,,,4,,,32,65
273560,note_off,40,0,5,,,,,,,,,4,,,32,0
273560,note_on,0,0,5,,,,,,,,,4,,,31,69
273600,note_off,40,0,5,,,,,,,,,4,,,31,0
273600,note_on,0,0,5,,,,,,,,,4,,,32,73
273600,note_off,480,0,2,,,,,,,,,1,,,75,0
273600,note_off,480,0,1,,,,,,,,,0,,,87,0
273756,note_off,156,0,5,,,,,,,,,4,,,32,0
273840,note_on,84,0,5,,,,,,,,,4,,,32,58
273996,note_off,156,0,5,,,,,,,,,4,,,32,0
274000,note_on,4,0,5,,,,,,,,,4,,,32,64
274040,note_off,40,0,5,,,,,,,,,4,,,32,0
274040,note_on,0,0,5,,,,,,,,,4,,,31,67
274080,note_off,40,0,5,,,,,,,,,4,,,31,0
274080,note_on,0,0,5,,,,,,,,,4,,,32,70
274236,note_off,156,0,5,,,,,,,,,4,,,32,0
274320,note_on,84,0,5,,,,,,,,,4,,,32,53
274476,note_off,156,0,5,,,,,,,,,4,,,32,0
274480,note_on,4,0,5,,,,,,,,,4,,,32,61
274520,note_off,40,0,5,,,,,,,,,4,,,32,0
274520,note_on,0,0,5,,,,,,,,,4,,,31,64
274560,note_off,40,0,5,,,,,,,,,4,,,31,0
274560,note_on,0,0,5,,,,,,,,,4,,,32,66
274716,note_off,156,0,5,,,,,,,,,4,,,32,0
274800,note_on,84,0,5,,,,,,,,,4,,,32,55
274956,note_off,156,0,5,,,,,,,,,4,,,32,0
275040,note_on,84,0,5,,,,,,,,,4,,,32,54
275196,note_off,156,0,5,,,,,,,,,4,,,32,0
275280,note_on,2400,0,4,,,,,,,,,3,,,54,53
275280,note_on,84,0,5,,,,,,,,,4,,,32,53
275400,note_off,120,0,4,,,,,,,,,3,,,54,0
275400,note_on,0,0,4,,,,,,,,,3,,,63,52
275436,note_off,156,0,5,,,,,,,,,4,,,32,0
275520,note_on,0,0,4,,,,,,,,,3,,,53,52
275520,note_off,120,0,4,,,,,,,,,3,,,63,0
275520,note_on,84,0,5,,,,,,,,,4,,,32,52
275640,note_on,0,0,4,,,,,,,,,3,,,61,51
275640,note_off,120,0,4,,,,,,,,,3,,,53,0
275676,note_off,156,0,5,,,,,,,,,4,,,32,0
275760,note_on,84,0,5,,,,,,,,,4,,,32,51
275760,note_off,120,0,4,,,,,,,,,3,,,61,0
275760,note_on,0,0,4,,,,,,,,,3,,,49,51
275880,note_off,120,0,4,,,,,,,,,3,,,49,0
275880,note_on,0,0,4,,,,,,,,,3,,,58,50
275916,note_off,156,0,5,,,,,,,,,4,,,32,0
276000,note_on,0,0,4,,,,,,,,,3,,,46,50
276000,note_off,120,0,4,,,,,,,,,3,,,58,0
276000,note_on,84,0,5,,,,,,,,,4,,,32,50
276120,note_off,120,0,4,,,,,,,,,3,,,46,0
276120,note_on,0,0,4,,,,,,,,,3,,,55,49
276156,note_off,156,0,5,,,,,,,,,4,,,32,0
276240,note_on,0,0,4,,,,,,,,,3,,,49,49
276240,note_off,120,0,4,,,,,,,,,3,,,55,0
276240,note_on,84,0,5,,,,,,,,,4,,,32,49
276360,note_on,0,0,4,,,,,,,,,3,,,58,49
276360,note_off,120,0,4,,,,,,,,,3,,,49,0
276396,note_off,156,0,5,,,,,,,,,4,,,32,0
276480,note_on,84,0,5,,,,,,,,,4,,,32,48
276480,note_on,0,0,4,,,,,,,,,3,,,56,48
276480,note_off,120,0,4,,,,,,,,,3,,,58,0
276480,note_on,0,0,4,,,,,,,,,3,,,48,48
276480,note_on,2880,0,1,,,,,,,,,0,,,80,48
276480,note_on,2880,0,2,,,,,,,,,1,,,68,48
276560,note_on,0,0,1,,,,,,,,,0,,,75,48
276560,note_off,80,0,2,,,,,,,,,1,,,68,0
276560,note_on,0,0,2,,,,,,,,,1,,,63,48
276560,note_off,80,0,1,,,,,,,,,0,,,80,0
276636,note_off,156,0,5,,,,,,,,,4,,,32,0
276640,note_off,80,0,2,,,,,,,,,1,,,63,0
276640,note_on,0,0,2,,,,,,,,,1,,,68,47
276640,note_off,80,0,1,,,,,,,,,0,,,75,0
276640,note_on,0,0,1,,,,,,,,,0,,,80,47
276720,note_on,0,0,1,,,,,,,,,0,,,84,47
276720,note_off,80,0,1,,,,,,,,,0,,,80,0
276720,note_on,84,0,5,,,,,,,,,4,,,32,47
276720,note_off,80,0,2,,,,,,,,,1,,,68,0
276720,note_off,240,0,4,,,,,,,,,3,,,56,0
276720,note_on,0,0,2,,,,,,,,,1,,,72,47
276800,note_on,0,0,1,,,,,,,,,0,,,87,47
276800,note_off,80,0,1,,,,,,,,,0,,,84,0
276800,note_off,80,0,2,,,,,,,,,1,,,72,0
276800,note_on,0,0,2,,,,,,,,,1,,,75,47
276876,note_off,156,0,5,,,,,,,,,4,,,32,0
276880,note_off,80,0,1,,,,,,,,,0,,,87,0
276880,note_off,80,0,2,,,,,,,,,1,,,75,0
276880,note_on,0,0,2,,,,,,,,,1,,,72,46
276880,note_on,0,0,1,,,,,,,,,0,,,84,46
276900,set_tempo,3420,1,0,,,,,,508474,,,,,,,
276960,note_off,80,0,2,,,,,,,,,1,,,72,0
276960,note_on,0,0,1,,,,,,,,,0,,,80,46
276960,note_on,0,0,2,,,,,,,,,1,,,68,46
276960,note_off,80,0,1,,,,,,,,,0,,,84,0
276960,note_off,240,0,4,,,,,,,,,3,,,48,0
276960,note_on,84,0,5,,,,,,,,,4,,,32,46
277080,set_tempo,180,1,0,,,,,,517241,,,,,,,
277116,note_off,156,0,5,,,,,,,,,4,,,32,0
277200,note_on,0,0,5,,,,,,,,,4,,,34,73
277200,control_change,84,0,5,,,,,,,64,0,4,,,,
277200,control_change,240,0,1,,,,,,,64,0,0,,,,
277200,control_change,240,0,2,,,,,,,64,0,1,,,,
277200,note_off,0,0,1,,,,,,,,,0,,,80,0
277200,note_on,0,0,1,,,,,,,,,0,,,70,73
277200,note_off,0,0,2,,,,,,,,,1,,,68,0
277200,note_on,0,0,2,,,,,,,,,1,,,58,73
277200,control_change,7680,0,3,,,,,,,64,0,2,,,,
277200,control_change,240,0,4,,,,,,,64,0,3,,,,
277200,set_tempo,120,1,0,,,,,,500000,,,,,,,
277200,note_on,0,0,4,,,,,,,,,3,,,46,73
277280,note_off,80,0,1,,,,,,,,,0,,,70,0
277280,note_on,0,0,1,,,,,,,,,0,,,72,76
277280,note_off,80,0,4,,,,,,,,,3,,,46,0
277280,note_on,0,0,2,,,,,,,,,1,,,60,76
277280,note_off,80,0,2,,,,,,,,,1,,,58,0
277280,note_off,80,0,5,,,,,,,,,4,,,34,0
277280,note_on,0,0,5,,,,,,,,,4,,,36,76
277280,note_on,0,0,4,,,,,,,,,3,,,48,76
277360,note_off,80,0,4,,,,,,,,,3,,,48,0
277360,note_on,0,0,4,,,,,,,,,3,,,50,80
277360,note_on,0,0,2,,,,,,,,,1,,,62,80
277360,note_on,0,0,5,,,,,,,,,4,,,38,80
277360,note_off,80,0,1,,,,,,,,,0,,,72,0
277360,note_on,0,0,1,,,,,,,,,0,,,74,80
277360,note_off,80,0,5,,,,,,,,,4,,,36,0
277360,note_off,80,0,2,,,,,,,,,1,,,60,0
277440,note_on,0,0,2,,,,,,,,,1,,,63,83
277440,note_off,80,0,1,,,,,,,,,0,,,74,0
277440,note_on,0,0,1,,,,,,,,,0,,,75,83
277440,note_off,80,0,2,,,,,,,,,1,,,62,0
277440,note_off,80,0,4,,,,,,,,,3,,,50,0
277440,note_on,0,0,4,,,,,,,,,3,,,51,83
277440,note_on,0,0,5,,,,,,,,,4,,,39,83
277440,note_off,80,0,5,,,,,,,,,4,,,38,0
277518,note_off,78,0,5,,,,,,,,,4,,,39,0
277518,note_off,78,0,1,,,,,,,,,0,,,75,0
277518,note_off,78,0,2,,,,,,,,,1,,,63,0
277518,note_off,78,0,4,,,,,,,,,3,,,51,0
277560,note_on,42,0,5,,,,,,,,,4,,,34,76
277560,note_on,42,0,1,,,,,,,,,0,,,70,76
277560,note_on,42,0,2,,,,,,,,,1,,,58,76
277560,note_on,42,0,4,,,,,,,,,3,,,46,76
277638,note_off,78,0,2,,,,,,,,,1,,,58,0
277638,note_off,78,0,1,,,,,,,,,0,,,70,0
277638,note_off,78,0,4,,,,,,,,,3,,,46,0
277638,note_off,78,0,5,,,,,,,,,4,,,34,0
277680,note_on,42,0,1,,,,,,,,,0,,,72,76
277680,note_on,42,0,4,,,,,,,,,3,,,48,76
277680,note_on,42,0,2,,,,,,,,,1,,,60,76
277680,note_on,42,0,5,,,,,,,,,4,,,36,76
277758,note_off,78,0,5,,,,,,,,,4,,,36,0
277758,note_off,78,0,4,,,,,,,,,3,,,48,0
277758,note_off,78,0,2,,,,,,,,,1,,,60,0
277758,note_off,78,0,1,,,,,,,,,0,,,72,0
277800,note_on,42,0,5,,,,,,,,,4,,,38,77
277800,note_on,42,0,4,,,,,,,,,3,,,50,77
277800,note_on,42,0,2,,,,,,,,,1,,,62,77
277800,note_on,42,0,1,,,,,,,,,0,,,74,77
277878,note_off,78,0,1,,,,,,,,,0,,,74,0
277878,note_off,78,0,5,,,,,,,,,4,,,38,0
277878,note_off,78,0,4,,,,,,,,,3,,,50,0
277878,note_off,78,0,2,,,,,,,,,1,,,62,0
277920,note_on,42,0,2,,,,,,,,,1,,,63,78
277920,note_on,42,0,5,,,,,,,,,4,,,39,78
277920,note_on,42,0,4,,,,,,,,,3,,,51,78
277920,note_on,42,0,1,,,,,,,,,0,,,75,78
277998,note_off,78,0,4,,,,,,,,,3,,,51,0
277998,note_off,78,0,1,,,,,,,,,0,,,75,0
277998,note_off,78,0,2,,,,,,,,,1,,,63,0
277998,note_off,78,0,5,,,,,,,,,4,,,39,0
278040,note_on,42,0,1,,,,,,,,,0,,,77,78
278040,note_on,42,0,2,,,,,,,,,1,,,65,78
278040,note_on,42,0,5,,,,,,,,,4,,,41,78
278040,note_on,42,0,4,,,,,,,,,3,,,53,78
278118,note_off,78,0,2,,,,,,,,,1,,,65,0
278118,note_off,78,0,4,,,,,,,,,3,,,53,0
278118,note_off,78,0,1,,,,,,,,,0,,,77,0
278118,note_off,78,0,5,,,,,,,,,4,,,41,0
278160,note_on,42,0,4,,,,,,,,,3,,,55,79
278160,note_on,42,0,1,,,,,,,,,0,,,79,79
278160,note_on,42,0,2,,,,,,,,,1,,,67,79
278160,note_on,42,0,5,,,,,,,,,4,,,43,79
278238,note_off,78,0,4,,,,,,,,,3,,,55,0
278238,note_off,78,0,1,,,,,,,,,0,,,79,0
278238,note_off,78,0,2,,,,,,,,,1,,,67,0
278238,note_off,78,0,5,,,,,,,,,4,,,43,0
278280,note_on,42,0,4,,,,,,,,,3,,,56,79
278280,note_on,42,0,1,,,,,,,,,0,,,80,79
278280,note_on,42,0,5,,,,,,,,,4,,,44,79
278280,note_on,42,0,2,,,,,,,,,1,,,68,79
278358,note_off,78,0,1,,,,,,,,,0,,,80,0
278358,note_off,78,0,5,,,,,,,,,4,,,44,0
278358,note_off,78,0,2,,,,,,,,,1,,,68,0
278358,note_off,78,0,4,,,,,,,,,3,,,56,0
278400,note_on,42,0,2,,,,,,,,,1,,,70,80
278400,note_on,42,0,1,,,,,,,,,0,,,82,80
278400,note_on,42,0,5,,,,,,,,,4,,,46,80
278400,note_on,42,0,4,,,,,,,,,3,,,58,80
278478,note_off,78,0,2,,,,,,,,,1,,,70,0
278478,note_off,78,0,4,,,,,,,,,3,,,58,0
278478,note_off,78,0,5,,,,,,,,,4,,,46,0
278478,note_off,78,0,1,,,,,,,,,0,,,82,0
278520,note_on,42,0,5,,,,,,,,,4,,,39,81
278520,note_on,42,0,2,,,,,,,,,1,,,63,81
278520,note_on,42,0,1,,,,,,,,,0,,,75,81
278520,note_on,42,0,4,,,,,,,,,3,,,51,81
278598,note_off,78,0,1,,,,,,,,,0,,,75,0
278598,note_off,78,0,4,,,,,,,,,3,,,51,0
278598,note_off,78,0,2,,,,,,,,,1,,,63,0
278598,note_off,78,0,5,,,,,,,,,4,,,39,0
278640,note_on,42,0,5,,,,,,,,,4,,,41,81
278640,note_on,42,0,1,,,,,,,,,0,,,77,81
278640,note_on,42,0,4,,,,,,,,,3,,,53,81
278640,note_on,42,0,2,,,,,,,,,1,,,65,81
278718,note_off,78,0,1,,,,,,,,,0,,,77,0
278718,note_off,78,0,4,,,,,,,,,3,,,53,0
278718,note_off,78,0,5,,,,,,,,,4,,,41,0
278718,note_off,78,0,2,,,,,,,,,1,,,65,0
278760,note_on,42,0,4,,,,,,,,,3,,,55,82
278760,note_on,42,0,2,,,,,,,,,1,,,67,82
278760,note_on,42,0,1,,,,,,,,,0,,,79,82
278760,note_on,42,0,5,,,,,,,,,4,,,43,82
278838,note_off,78,0,2,,,,,,,,,1,,,67,0
278838,note_off,78,0,4,,,,,,,,,3,,,55,0
278838,note_off,78,0,1,,,,,,,,,0,,,79,0
278838,note_off,78,0,5,,,,,,,,,4,,,43,0
278880,note_on,42,0,1,,,,,,,,,0,,,80,82
278880,note_on,42,0,5,,,,,,,,,4,,,44,82
278880,note_on,42,0,2,,,,,,,,,1,,,68,82
278880,note_on,42,0,4,,,,,,,,,3,,,56,82
278958,note_off,78,0,5,,,,,,,,,4,,,44,0
278958,note_off,78,0,1,,,,,,,,,0,,,80,0
278958,note_off,78,0,2,,,,,,,,,1,,,68,0
278958,note_off,78,0,4,,,,,,,,,3,,,56,0
279000,note_on,42,0,4,,,,,,,,,3,,,58,83
279000,note_on,42,0,2,,,,,,,,,1,,,70,83
279000,note_on,42,0,1,,,,,,,,,0,,,82,83
279000,note_on,42,0,5,,,,,,,,,4,,,46,83
279078,note_off,78,0,5,,,,,,,,,4,,,46,0
279078,note_off,78,0,2,,,,,,,,,1,,,70,0
279078,note_off,78,0,1,,,,,,,,,0,,,82,0
279078,note_off,78,0,4,,,,,,,,,3,,,58,0
279120,note_on,42,0,2,,,,,,,,,1,,,72,84
279120,note_on,42,0,1,,,,,,,,,0,,,84,84
279120,note_on,42,0,5,,,,,,,,,4,,,48,84
279120,note_on,42,0,4,,,,,,,,,3,,,60,84
279198,note_off,78,0,1,,,,,,,,,0,,,84,0
279198,note_off,78,0,2,,,,,,,,,1,,,72,0
279198,note_off,78,0,4,,,,,,,,,3,,,60,0
279198,note_off,78,0,5,,,,,,,,,4,,,48,0
279240,note_on,42,0,4,,,,,,,,,3,,,62,84
279240,note_on,42,0,2,,,,,,,,,1,,,74,84
279240,note_on,42,0,5,,,,,,,,,4,,,50,84
279240,note_on,42,0,1,,,,,,,,,0,,,86,84
279318,note_off,78,0,5,,,,,,,,,4,,,50,0
279318,note_off,78,0,1,,,,,,,,,0,,,86,0
279318,note_off,78,0,2,,,,,,,,,1,,,74,0
279318,note_off,78,0,4,,,,,,,,,3,,,62,0
279360,note_on,42,0,5,,,,,,,,,4,,,51,85
279360,note_on,42,0,1,,,,,,,,,0,,,87,85
279360,note_on,42,0,2,,,,,,,,,1,,,75,85
279360,note_on,42,0,4,,,,,,,,,3,,,63,85
279438,note_off,78,0,5,,,,,,,,,4,,,51,0
279438,note_off,78,0,1,,,,,,,,,0,,,87,0
279438,note_off,78,0,4,,,,,,,,,3,,,63,0
279438,note_off,78,0,2,,,,,,,,,1,,,75,0
279480,note_on,42,0,2,,,,,,,,,1,,,70,85
279480,note_on,42,0,5,,,,,,,,,4,,,46,85
279480,note_on,42,0,4,,,,,,,,,3,,,58,85
279480,note_on,42,0,1,,,,,,,,,0,,,82,85
279558,note_off,78,0,1,,,,,,,,,0,,,82,0
279558,note_off,78,0,5,,,,,,,,,4,,,46,0
279558,note_off,78,0,2,,,,,,,,,1,,,70,0
279558,note_off,78,0,4,,,,,,,,,3,,,58,0
279600,note_on,42,0,4,,,,,,,,,3,,,63,86
279600,note_on,42,0,5,,,,,,,,,4,,,51,86
279600,note_on,42,0,1,,,,,,,,,0,,,87,86
279600,note_on,42,0,2,,,,,,,,,1,,,75,86
279678,note_off,78,0,1,,,,,,,,,0,,,87,0
279678,note_off,78,0,2,,,,,,,,,1,,,75,0
279678,note_off,78,0,5,,,,,,,,,4,,,51,0
279678,note_off,78,0,4,,,,,,,,,3,,,63,0
279720,note_on,42,0,1,,,,,,,,,0,,,82,87
279720,note_on,42,0,2,,,,,,,,,1,,,70,87
279720,note_on,42,0,4,,,,,,,,,3,,,58,87
279720,note_on,42,0,5,,,,,,,,,4,,,46,87
279798,note_off,78,0,2,,,,,,,,,1,,,70,0
279798,note_off,78,0,1,,,,,,,,,0,,,82,0
279798,note_off,78,0,4,,,,,,,,,3,,,58,0
279798,note_off,78,0,5,,,,,,,,,4,,,46,0
279840,note_on,42,0,5,,,,,,,,,4,,,51,87
279840,note_on,42,0,2,,,,,,,,,1,,,75,87
279840,note_on,42,0,4,,,,,,,,,3,,,63,87
279840,note_on,42,0,1,,,,,,,,,0,,,87,87
279918,note_off,78,0,4,,,,,,,,,3,,,63,0
279918,note_off,78,0,1,,,,,,,,,0,,,87,0
279918,note_off,78,0,5,,,,,,,,,4,,,51,0
279918,note_off,78,0,2,,,,,,,,,1,,,75,0
279960,note_on,42,0,5,,,,,,,,,4,,,46,88
279960,note_on,42,0,4,,,,,,,,,3,,,58,88
279960,note_on,42,0,1,,,,,,,,,0,,,82,88
279960,note_on,42,0,2,,,,,,,,,1,,,70,88
280038,note_off,78,0,1,,,,,,,,,0,,,82,0
280038,note_off,78,0,4,,,,,,,,,3,,,58,0
280038,note_off,78,0,5,,,,,,,,,4,,,46,0
280038,note_off,78,0,2,,,,,,,,,1,,,70,0
280080,set_tempo,2880,1,0,,,,,,508474,,,,,,,
280080,note_on,42,0,1,,,,,,,,,0,,,87,88
280080,note_on,42,0,5,,,,,,,,,4,,,51,88
280080,note_on,42,0,2,,,,,,,,,1,,,75,88
280080,note_on,42,0,4,,,,,,,,,3,,,63,88
280158,note_off,78,0,4,,,,,,,,,3,,,63,0
280158,note_off,78,0,1,,,,,,,,,0,,,87,0
280158,note_off,78,0,5,,,,,,,,,4,,,51,0
280158,note_off,78,0,2,,,,,,,,,1,,,75,0
280200,note_on,42,0,2,,,,,,,,,1,,,70,89
280200,set_tempo,120,1,0,,,,,,535714,,,,,,,
280200,note_on,42,0,5,,,,,,,,,4,,,46,89
280200,note_on,42,0,4,,,,,,,,,3,,,58,89
280200,note_on,42,0,1,,,,,,,,,0,,,82,89
280278,note_off,78,0,5,,,,,,,,,4,,,46,0
280278,note_off,78,0,1,,,,,,,,,0,,,82,0
280278,note_off,78,0,2,,,,,,,,,1,,,70,0
280278,note_off,78,0,4,,,,,,,,,3,,,58,0
280320,note_on,42,0,4,,,,,,,,,3,,,61,97
280320,set_tempo,120,1,0,,,,,,500000,,,,,,,
280320,note_on,42,0,1,,,,,,,,,0,,,85,97
280320,note_on,0,0,4,,,,,,,,,3,,,58,97
280320,note_on,0,0,2,,,,,,,,,1,,,70,97
280320,note_on,0,0,2,,,,,,,,,1,,,67,97
280320,note_on,42,0,2,,,,,,,,,1,,,73,97
280320,note_on,0,0,4,,,,,,,,,3,,,55,97
280320,note_on,0,0,4,,,,,,,,,3,,,51,97
280320,note_on,42,0,5,,,,,,,,,4,,,39,97
281280,set_tempo,960,1,0,,,,,,508474,,,,,,,
281280,note_off,960,0,1,,,,,,,,,0,,,85,0
281280,note_on,0,0,1,,,,,,,,,0,,,85,89
281340,set_tempo,60,1,0,,,,,,500000,,,,,,,
281340,note_on,0,0,1,,,,,,,,,0,,,84,89
281340,note_off,60,0,1,,,,,,,,,0,,,85,0
281400,note_on,0,0,1,,,,,,,,,0,,,82,88
281400,set_tempo,60,1,0,,,,,,508474,,,,,,,
281400,note_off,60,0,1,,,,,,,,,0,,,84,0
281460,note_on,0,0,1,,,,,,,,,0,,,80,88
281460,note_off,60,0,1,,,,,,,,,0,,,82,0
281460,set_tempo,60,1,0,,,,,,526315,,,,,,,
281520,note_on,0,0,1,,,,,,,,,0,,,79,82
281520,note_off,0,0,1,,,,,,,,,0,,,80,0
281520,control_change,60,0,1,,,,,,,64,127,0,,,,
281520,control_change,1200,0,4,,,,,,,64,127,3,,,,
281520,control_change,1200,0,5,,,,,,,64,127,4,,,,
282240,note_off,720,0,4,,,,,,,,,3,,,58,0
282240,note_off,720,0,5,,,,,,,,,4,,,39,0
282240,note_off,0,0,4,,,,,,,,,3,,,55,0
282240,note_off,0,0,4,,,,,,,,,3,,,51,0
282240,note_off,720,0,1,,,,,,,,,0,,,79,0
282240,note_off,0,0,2,,,,,,,,,1,,,73,0
282240,note_off,0,0,2,,,,,,,,,1,,,67,0
282240,note_off,1920,0,2,,,,,,,,,1,,,70,0
282240,note_off,0,0,4,,,,,,,,,3,,,61,0
282240,set_tempo,780,1,0,,,,,,731707,,,,,,,
282960,control_change,720,0,4,,,,,,,64,0,3,,,,
282960,control_change,720,0,5,,,,,,,64,0,4,,,,
282960,control_change,720,0,1,,,,,,,64,0,0,,,,
283120,note_on,160,0,5,,,,,,,,,4,,,32,74
283160,note_on,0,0,5,,,,,,,,,4,,,31,76
283160,note_off,40,0,5,,,,,,,,,4,,,32,0
283200,note_off,40,0,5,,,,,,,,,4,,,31,0
283200,note_on,0,0,5,,,,,,,,,4,,,32,78
283200,set_tempo,960,1,0,,,,,,500000,,,,,,,
283356,note_off,156,0,5,,,,,,,,,4,,,32,0
283440,note_on,84,0,5,,,,,,,,,4,,,32,64
283596,note_off,156,0,5,,,,,,,,,4,,,32,0
283600,note_on,4,0,5,,,,,,,,,4,,,32,70
283640,note_off,40,0,5,,,,,,,,,4,,,32,0
283640,note_on,0,0,5,,,,,,,,,4,,,31,72
283680,note_off,40,0,5,,,,,,,,,4,,,31,0
283680,note_on,0,0,5,,,,,,,,,4,,,32,76
283836,note_off,156,0,5,,,,,,,,,4,,,32,0
283920,note_on,84,0,5,,,,,,,,,4,,,32,62
284076,note_off,156,0,5,,,,,,,,,4,,,32,0
284080,note_on,4,0,5,,,,,,,,,4,,,32,66
284120,note_on,0,0,5,,,,,,,,,4,,,31,68
284120,note_off,40,0,5,,,,,,,,,4,,,32,0
284160,note_on,0,0,5,,,,,,,,,4,,,32,73
284160,note_off,40,0,5,,,,,,,,,4,,,31,0
284316,note_off,156,0,5,,,,,,,,,4,,,32,0
284400,note_on,1440,0,1,,,,,,,,,0,,,75,62
284400,note_on,84,0,5,,,,,,,,,4,,,32,62
284400,note_on,2160,0,2,,,,,,,,,1,,,72,62
284400,note_on,0,0,2,,,,,,,,,1,,,60,62
284400,note_on,0,0,2,,,,,,,,,1,,,63,62
284556,note_off,156,0,5,,,,,,,,,4,,,32,0
284640,note_on,84,0,5,,,,,,,,,4,,,32,61
284640,note_off,240,0,2,,,,,,,,,1,,,63,0
284640,note_off,0,0,2,,,,,,,,,1,,,60,0
284640,note_off,240,0,1,,,,,,,,,0,,,75,0
284640,note_off,0,0,2,,,,,,,,,1,,,72,0
284796,note_off,156,0,5,,,,,,,,,4,,,32,0
284880,note_on,240,0,1,,,,,,,,,0,,,87,60
284880,note_on,1920,0,4,,,,,,,,,3,,,60,60
284880,note_on,0,0,2,,,,,,,,,1,,,66,60
284880,note_on,84,0,5,,,,,,,,,4,,,32,60
284880,note_on,0,0,2,,,,,,,,,1,,,75,60
284880,note_on,240,0,2,,,,,,,,,1,,,78,60
284960,note_off,80,0,4,,,,,,,,,3,,,60,0
284960,note_on,0,0,4,,,,,,,,,3,,,63,60
285036,note_off,156,0,5,,,,,,,,,4,,,32,0
285040,note_off,80,0,4,,,,,,,,,3,,,63,0
285040,note_on,0,0,4,,,,,,,,,3,,,60,60
285120,note_off,240,0,1,,,,,,,,,0,,,87,0
285120,note_off,80,0,4,,,,,,,,,3,,,60,0
285120,note_on,0,0,4,,,,,,,,,3,,,53,59
285120,note_off,0,0,2,,,,,,,,,1,,,78,0
285120,note_off,0,0,2,,,,,,,,,1,,,75,0
285120,note_off,240,0,2,,,,,,,,,1,,,66,0
285120,note_on,84,0,5,,,,,,,,,4,,,32,59
285200,note_off,80,0,4,,,,,,,,,3,,,53,0
285200,note_on,0,0,4,,,,,,,,,3,,,61,59
285276,note_off,156,0,5,,,,,,,,,4,,,32,0
285280,note_off,80,0,4,,,,,,,,,3,,,61,0
285280,note_on,0,0,4,,,,,,,,,3,,,53,59
285360,note_off,80,0,4,,,,,,,,,3,,,53,0
285360,note_on,84,0,5,,,,,,,,,4,,,32,58
285360,note_on,240,0,1,,,,,,,,,0,,,85,58
285360,note_on,0,0,4,,,,,,,,,3,,,65,57
285360,note_on,0,0,2,,,,,,,,,1,,,65,58
285360,note_on,0,0,2,,,,,,,,,1,,,73,58
285360,note_on,240,0,2,,,,,,,,,1,,,77,58
285440,note_on,0,0,4,,,,,,,,,3,,,56,58
285440,note_off,80,0,4,,,,,,,,,3,,,65,0
285516,note_off,156,0,5,,,,,,,,,4,,,32,0
285520,note_off,80,0,4,,,,,,,,,3,,,56,0
285520,note_on,0,0,4,,,,,,,,,3,,,65,57
285600,note_on,84,0,5,,,,,,,,,4,,,32,57
285600,note_off,240,0,1,,,,,,,,,0,,,85,0
285600,note_off,240,0,2,,,,,,,,,1,,,65,0
285600,note_off,0,0,2,,,,,,,,,1,,,73,0
285600,note_off,0,0,2,,,,,,,,,1,,,77,0
285600,note_off,80,0,4,,,,,,,,,3,,,65,0
285600,note_on,0,0,4,,,,,,,,,3,,,55,57
285680,note_off,80,0,4,,,,,,,,,3,,,55,0
285680,note_on,0,0,4,,,,,,,,,3,,,63,57
285756,note_off,156,0,5,,,,,,,,,4,,,32,0
285760,note_on,0,0,4,,,,,,,,,3,,,55,56
285760,note_off,80,0,4,,,,,,,,,3,,,63,0
285840,note_on,0,0,4,,,,,,,,,3,,,61,56
285840,note_on,240,0,1,,,,,,,,,0,,,82,56
285840,note_on,0,0,2,,,,,,,,,1,,,73,56
285840,note_on,0,0,2,,,,,,,,,1,,,70,56
285840,note_on,0,0,2,,,,,,,,,1,,,67,56
285840,note_on,240,0,2,,,,,,,,,1,,,79,56
285840,note_on,84,0,5,,,,,,,,,4,,,32,56
285840,note_off,80,0,4,,,,,,,,,3,,,55,0
285920,note_off,80,0,4,,,,,,,,,3,,,61,0
285920,note_on,0,0,4,,,,,,,,,3,,,58,56
285996,note_off,156,0,5,,,,,,,,,4,,,32,0
286000,note_off,80,0,4,,,,,,,,,3,,,58,0
286000,note_on,0,0,4,,,,,,,,,3,,,61,55
286080,note_on,0,0,4,,,,,,,,,3,,,56,55
286080,note_on,0,0,4,,,,,,,,,3,,,60,55
286080,note_off,80,0,4,,,,,,,,,3,,,61,0
286080,note_off,0,0,2,,,,,,,,,1,,,79,0
286080,note_on,84,0,5,,,,,,,,,4,,,32,55
286080,note_off,240,0,2,,,,,,,,,1,,,70,0
286080,note_off,0,0,2,,,,,,,,,1,,,73,0
286080,note_on,0,0,2,,,,,,,,,1,,,72,55
286080,note_on,0,0,1,,,,,,,,,0,,,84,55
286080,note_off,240,0,1,,,,,,,,,0,,,82,0
286080,note_off,0,0,2,,,,,,,,,1,,,67,0
286080,note_on,0,0,2,,,,,,,,,1,,,80,55
286080,note_on,0,0,2,,,,,,,,,1,,,68,55
286160,note_off,80,0,2,,,,,,,,,1,,,72,0
286160,note_on,0,0,1,,,,,,,,,0,,,75,55
286160,note_off,80,0,1,,,,,,,,,0,,,84,0
286160,note_off,0,0,2,,,,,,,,,1,,,80,0
286160,note_on,0,0,2,,,,,,,,,1,,,63,55
286160,note_off,0,0,2,,,,,,,,,1,,,68,0
286236,note_off,156,0,5,,,,,,,,,4,,,32,0
286240,note_on,0,0,2,,,,,,,,,1,,,68,54
286240,note_off,80,0,2,,,,,,,,,1,,,63,0
286240,note_off,80,0,1,,,,,,,,,0,,,75,0
286240,note_on,0,0,1,,,,,,,,,0,,,80,54
286320,note_off,80,0,1,,,,,,,,,0,,,80,0
286320,note_on,84,0,5,,,,,,,,,4,,,32,54
286320,note_off,240,0,4,,,,,,,,,3,,,60,0
286320,note_off,80,0,2,,,,,,,,,1,,,68,0
286320,note_on,0,0,2,,,,,,,,,1,,,72,54
286320,note_off,0,0,4,,,,,,,,,3,,,56,0
286320,note_on,0,0,1,,,,,,,,,0,,,84,54
286400,note_on,0,0,2,,,,,,,,,1,,,68,54
286400,note_on,0,0,1,,,,,,,,,0,,,80,54
286400,note_off,80,0,2,,,,,,,,,1,,,72,0
286400,note_off,80,0,1,,,,,,,,,0,,,84,0
286476,note_off,156,0,5,,,,,,,,,4,,,32,0
286480,note_off,80,0,2,,,,,,,,,1,,,68,0
286480,note_on,0,0,2,,,,,,,,,1,,,72,53
286480,note_off,80,0,1,,,,,,,,,0,,,80,0
286480,note_on,0,0,1,,,,,,,,,0,,,84,53
286500,set_tempo,3300,1,0,,,,,,508474,,,,,,,
286560,note_on,84,0,5,,,,,,,,,4,,,32,53
286560,note_off,80,0,2,,,,,,,,,1,,,72,0
286560,note_on,0,0,2,,,,,,,,,1,,,75,53
286560,note_on,0,0,1,,,,,,,,,0,,,87,53
286560,note_off,80,0,1,,,,,,,,,0,,,84,0
286716,note_off,156,0,5,,,,,,,,,4,,,32,0
286800,note_off,240,0,2,,,,,,,,,1,,,75,0
286800,note_on,84,0,5,,,,,,,,,4,,,32,52
286800,set_tempo,300,1,0,,,,,,517241,,,,,,,
286800,note_off,240,0,1,,,,,,,,,0,,,87,0
286920,set_tempo,120,1,0,,,,,,500000,,,,,,,
286956,note_off,156,0,5,,,,,,,,,4,,,32,0
286960,note_on,4,0,5,,,,,,,,,4,,,32,67
287000,note_off,40,0,5,,,,,,,,,4,,,32,0
287000,note_on,0,0,5,,,,,,,,,4,,,31,70
287040,note_off,40,0,5,,,,,,,,,4,,,31,0
287040,note_on,0,0,5,,,,,,,,,4,,,32,72
287196,note_off,156,0,5,,,,,,,,,4,,,32,0
287280,note_on,84,0,5,,,,,,,,,4,,,32,53
287436,note_off,156,0,5,,,,,,,,,4,,,32,0
287440,note_on,4,0,5,,,,,,,,,4,,,32,63
287480,note_off,40,0,5,,,,,,,,,4,,,32,0
287480,note_on,0,0,5,,,,,,,,,4,,,31,66
287520,note_off,40,0,5,,,,,,,,,4,,,31,0
287520,note_on,0,0,5,,,,,,,,,4,,,32,69
287676,note_off,156,0,5,,,,,,,,,4,,,32,0
287760,note_on,84,0,5,,,,,,,,,4,,,32,51
287916,note_off,156,0,5,,,,,,,,,4,,,32,0
287920,note_on,4,0,5,,,,,,,,,4,,,32,60
287960,note_off,40,0,5,,,,,,,,,4,,,32,0
287960,note_on,0,0,5,,,,,,,,,4,,,31,62
288000,note_off,40,0,5,,,,,,,,,4,,,31,0
288000,note_on,0,0,5,,,,,,,,,4,,,32,66
288156,note_off,156,0,5,,,,,,,,,4,,,32,0
288240,note_on,84,0,5,,,,,,,,,4,,,32,50
288240,note_on,1440,0,1,,,,,,,,,0,,,75,50
288240,note_on,0,0,2,,,,,,,,,1,,,63,50
288240,note_on,0,0,2,,,,,,,,,1,,,60,50
288240,note_on,1440,0,2,,,,,,,,,1,,,72,50
288396,note_off,156,0,5,,,,,,,,,4,,,32,0
288480,note_off,0,0,2,,,,,,,,,1,,,60,0
288480,note_off,0,0,2,,,,,,,,,1,,,72,0
288480,note_off,240,0,2,,,,,,,,,1,,,63,0
288480,note_off,240,0,1,,,,,,,,,0,,,75,0
288480,note_on,84,0,5,,,,,,,,,4,,,32,49
288636,note_off,156,0,5,,,,,,,,,4,,,32,0
288720,note_on,240,0,2,,,,,,,,,1,,,75,49
288720,note_on,240,0,1,,,,,,,,,0,,,84,49
288720,note_on,2400,0,4,,,,,,,,,3,,,54,49
288720,note_on,0,0,2,,,,,,,,,1,,,63,49
288720,note_on,84,0,5,,,,,,,,,4,,,32,49
288720,note_on,0,0,2,,,,,,,,,1,,,72,49
288800,note_off,80,0,4,,,,,,,,,3,,,54,0
288800,note_on,0,0,4,,,,,,,,,3,,,62,49
288876,note_off,156,0,5,,,,,,,,,4,,,32,0
288880,note_on,80,0,4,,,,,,,,,3,,,54,48
288885,note_off,5,0,4,,,,,,,,,3,,,62,0
288960,note_on,0,0,4,,,,,,,,,3,,,61,48
288960,note_on,84,0,5,,,,,,,,,4,,,32,48
288960,note_off,0,0,2,,,,,,,,,1,,,75,0
288960,note_off,0,0,2,,,,,,,,,1,,,63,0
288960,note_off,240,0,2,,,,,,,,,1,,,72,0
288960,note_off,240,0,1,,,,,,,,,0,,,84,0
288960,note_off,75,0,4,,,,,,,,,3,,,54,0
289040,note_on,0,0,4,,,,,,,,,3,,,53,48
289040,note_off,80,0,4,,,,,,,,,3,,,61,0
289116,note_off,156,0,5,,,,,,,,,4,,,32,0
289120,note_on,0,0,4,,,,,,,,,3,,,61,48
289120,note_off,80,0,4,,,,,,,,,3,,,53,0
289200,note_off,80,0,4,,,,,,,,,3,,,61,0
289200,note_on,240,0,1,,,,,,,,,0,,,85,47
289200,note_on,0,0,4,,,,,,,,,3,,,49,47
289200,note_on,84,0,5,,,,,,,,,4,,,32,47
289200,note_on,240,0,2,,,,,,,,,1,,,77,47
289200,note_on,0,0,2,,,,,,,,,1,,,65,47
289200,note_on,0,0,2,,,,,,,,,1,,,73,47
289280,note_off,80,0,4,,,,,,,,,3,,,49,0
289280,note_on,0,0,4,,,,,,,,,3,,,58,47
289356,note_off,156,0,5,,,,,,,,,4,,,32,0
289360,note_off,80,0,4,,,,,,,,,3,,,58,0
289360,note_on,0,0,4,,,,,,,,,3,,,49,47
289440,note_on,84,0,5,,,,,,,,,4,,,32,47
289440,note_on,0,0,4,,,,,,,,,3,,,55,47
289440,note_off,80,0,4,,,,,,,,,3,,,49,0
289440,note_off,240,0,2,,,,,,,,,1,,,73,0
289440,note_off,0,0,2,,,,,,,,,1,,,65,0
289440,note_off,240,0,1,,,,,,,,,0,,,85,0
289440,note_off,0,0,2,,,,,,,,,1,,,77,0
289520,note_off,80,0,4,,,,,,,,,3,,,55,0
289520,note_on,0,0,4,,,,,,,,,3,,,46,46
289596,note_off,156,0,5,,,,,,,,,4,,,32,0
289600,note_on,0,0,4,,,,,,,,,3,,,55,46
289600,note_off,80,0,4,,,,,,,,,3,,,46,0
289680,note_on,0,0,2,,,,,,,,,1,,,70,46
289680,note_on,84,0,5,,,,,,,,,4,,,32,46
289680,note_on,0,0,2,,,,,,,,,1,,,58,46
289680,note_off,80,0,4,,,,,,,,,3,,,55,0
289680,note_on,0,0,4,,,,,,,,,3,,,49,46
289680,note_on,240,0,2,,,,,,,,,1,,,67,46
289680,note_on,240,0,1,,,,,,,,,0,,,79,46
289760,note_on,0,0,4,,,,,,,,,3,,,58,46
289760,note_off,80,0,4,,,,,,,,,3,,,49,0
289836,note_off,156,0,5,,,,,,,,,4,,,32,0
289840,note_on,0,0,4,,,,,,,,,3,,,49,46
289840,note_off,80,0,4,,,,,,,,,3,,,58,0
289920,note_off,80,0,4,,,,,,,,,3,,,49,0
289920,note_on,0,0,4,,,,,,,,,3,,,36,45
289920,note_on,0,0,4,,,,,,,,,3,,,48,45
289920,note_on,0,0,4,,,,,,,,,3,,,56,45
289920,note_off,240,0,2,,,,,,,,,1,,,58,0
289920,note_off,0,0,2,,,,,,,,,1,,,70,0
289920,note_off,0,0,2,,,,,,,,,1,,,67,0
289920,note_on,0,0,2,,,,,,,,,1,,,68,45
289920,note_on,84,0,5,,,,,,,,,4,,,32,45
289920,note_on,0,0,1,,,,,,,,,0,,,80,45
289920,note_off,240,0,1,,,,,,,,,0,,,79,0
290000,note_off,80,0,1,,,,,,,,,0,,,80,0
290000,note_on,0,0,1,,,,,,,,,0,,,75,45
290000,note_on,0,0,2,,,,,,,,,1,,,63,45
290000,note_off,80,0,2,,,,,,,,,1,,,68,0
290080,note_on,0,0,1,,,,,,,,,0,,,80,45
290080,note_off,80,0,1,,,,,,,,,0,,,75,0
290080,note_on,0,0,2,,,,,,,,,1,,,68,45
290080,note_off,80,0,2,,,,,,,,,1,,,63,0
290160,note_off,80,0,2,,,,,,,,,1,,,68,0
290160,note_on,0,0,2,,,,,,,,,1,,,72,45
290160,note_off,80,0,1,,,,,,,,,0,,,80,0
290160,note_on,0,0,1,,,,,,,,,0,,,84,45
290240,note_off,80,0,1,,,,,,,,,0,,,84,0
290240,note_on,0,0,1,,,,,,,,,0,,,87,44
290240,note_off,80,0,2,,,,,,,,,1,,,72,0
290240,note_on,0,0,2,,,,,,,,,1,,,75,44
290320,note_off,80,0,2,,,,,,,,,1,,,75,0
290320,note_on,0,0,1,,,,,,,,,0,,,84,44
290320,note_off,80,0,1,,,,,,,,,0,,,87,0
290320,note_on,0,0,2,,,,,,,,,1,,,72,44
290340,set_tempo,3420,1,0,,,,,,508474,,,,,,,
290400,control_change,80,0,2,,,,,,,64,0,1,,,,
290400,note_on,0,0,2,,,,,,,,,1,,,68,44
290400,note_on,0,0,4,,,,,,,,,3,,,50,44
290400,note_on,0,0,4,,,,,,,,,3,,,37,44
290400,note_off,0,0,4,,,,,,,,,3,,,36,0
290400,note_off,0,0,4,,,,,,,,,3,,,48,0
290400,set_tempo,60,1,0,,,,,,517241,,,,,,,
290400,control_change,480,0,5,,,,,,,64,0,4,,,,
290400,note_off,0,0,5,,,,,,,,,4,,,32,0
290400,note_on,0,0,5,,,,,,,,,4,,,34,44
290400,control_change,480,0,4,,,,,,,64,0,3,,,,
290400,note_off,0,0,2,,,,,,,,,1,,,72,0
290400,control_change,13200,0,3,,,,,,,64,0,2,,,,
290400,note_off,0,0,1,,,,,,,,,0,,,84,0
290400,note_on,0,0,1,,,,,,,,,0,,,80,44
290400,control_change,80,0,1,,,,,,,64,0,0,,,,
290520,note_off,120,0,4,,,,,,,,,3,,,56,0
290520,set_tempo,120,1,0,,,,,,535714,,,,,,,
290520,note_on,0,0,4,,,,,,,,,3,,,55,46
290640,control_change,240,0,2,,,,,,,64,0,1,,,,
290640,control_change,240,0,3,,,,,,,64,0,2,,,,
290640,note_off,0,0,2,,,,,,,,,1,,,68,0
290640,note_on,0,0,2,,,,,,,,,1,,,58,73
290640,set_tempo,120,1,0,,,,,,500000,,,,,,,
290640,note_off,0,0,4,,,,,,,,,3,,,55,0
290640,control_change,120,0,4,,,,,,,64,0,3,,,,
290640,note_on,0,0,1,,,,,,,,,0,,,70,73
290640,note_off,0,0,1,,,,,,,,,0,,,80,0
290640,control_change,240,0,1,,,,,,,64,0,0,,,,
290640,control_change,240,0,5,,,,,,,64,0,4,,,,
290640,note_on,0,0,4,,,,,,,,,3,,,46,73
290720,note_on,80,0,5,,,,,,,,,4,,,36,76
290720,note_off,80,0,4,,,,,,,,,3,,,46,0
290720,note_on,0,0,4,,,,,,,,,3,,,48,76
290720,note_on,0,0,2,,,,,,,,,1,,,60,76
290720,note_off,80,0,2,,,,,,,,,1,,,58,0
290720,note_on,0,0,1,,,,,,,,,0,,,72,76
290720,note_off,80,0,1,,,,,,,,,0,,,70,0
290800,note_off,80,0,5,,,,,,,,,4,,,36,0
290800,note_on,0,0,2,,,,,,,,,1,,,62,80
290800,note_off,80,0,2,,,,,,,,,1,,,60,0
290800,note_on,0,0,5,,,,,,,,,4,,,38,80
290800,note_off,80,0,4,,,,,,,,,3,,,48,0
290800,note_off,80,0,1,,,,,,,,,0,,,72,0
290800,note_on,0,0,1,,,,,,,,,0,,,74,80
290880,note_on,0,0,2,,,,,,,,,1,,,63,83
290880,note_off,80,0,2,,,,,,,,,1,,,62,0
290880,note_off,0,0,5,,,,,,,,,4,,,34,0
290880,note_off,80,0,5,,,,,,,,,4,,,38,0
290880,note_on,0,0,4,,,,,,,,,3,,,51,83
290880,note_off,0,0,4,,,,,,,,,3,,,37,0
290880,note_off,80,0,1,,,,,,,,,0,,,74,0
290880,note_off,80,0,4,,,,,,,,,3,,,50,0
290880,note_on,0,0,1,,,,,,,,,0,,,75,83
290880,note_on,0,0,5,,,,,,,,,4,,,39,83
290958,note_off,78,0,1,,,,,,,,,0,,,75,0
290958,note_off,78,0,2,,,,,,,,,1,,,63,0
290958,note_off,78,0,4,,,,,,,,,3,,,51,0
290958,note_off,78,0,5,,,,,,,,,4,,,39,0
291000,note_on,42,0,1,,,,,,,,,0,,,70,76
291000,note_on,42,0,4,,,,,,,,,3,,,46,76
291000,note_on,42,0,2,,,,,,,,,1,,,58,76
291000,note_on,42,0,5,,,,,,,,,4,,,34,76
291078,note_off,78,0,1,,,,,,,,,0,,,70,0
291078,note_off,78,0,5,,,,,,,,,4,,,34,0
291078,note_off,78,0,4,,,,,,,,,3,,,46,0
291078,note_off,78,0,2,,,,,,,,,1,,,58,0
291120,note_on,42,0,5,,,,,,,,,4,,,36,76
291120,note_on,42,0,1,,,,,,,,,0,,,72,76
291120,note_on,42,0,4,,,,,,,,,3,,,48,76
291120,note_on,42,0,2,,,,,,,,,1,,,60,76
291198,note_off,78,0,5,,,,,,,,,4,,,36,0
291198,note_off,78,0,1,,,,,,,,,0,,,72,0
291198,note_off,78,0,2,,,,,,,,,1,,,60,0
291198,note_off,78,0,4,,,,,,,,,3,,,48,0
291240,note_on,42,0,4,,,,,,,,,3,,,50,77
291240,note_on,42,0,1,,,,,,,,,0,,,74,77
291240,note_on,42,0,2,,,,,,,,,1,,,62,77
291240,note_on,42,0,5,,,,,,,,,4,,,38,77
291318,note_off,78,0,1,,,,,,,,,0,,,74,0
291318,note_off,78,0,4,,,,,,,,,3,,,50,0
291318,note_off,78,0,2,,,,,,,,,1,,,62,0
291318,note_off,78,0,5,,,,,,,,,4,,,38,0
291360,note_on,42,0,4,,,,,,,,,3,,,51,78
291360,note_on,42,0,1,,,,,,,,,0,,,75,78
291360,note_on,42,0,2,,,,,,,,,1,,,63,78
291360,note_on,42,0,5,,,,,,,,,4,,,39,78
291438,note_off,78,0,1,,,,,,,,,0,,,75,0
291438,note_off,78,0,5,,,,,,,,,4,,,39,0
291438,note_off,78,0,2,,,,,,,,,1,,,63,0
291438,note_off,78,0,4,,,,,,,,,3,,,51,0
291480,note_on,42,0,2,,,,,,,,,1,,,65,78
291480,note_on,42,0,5,,,,,,,,,4,,,41,78
291480,note_on,42,0,1,,,,,,,,,0,,,77,78
291480,note_on,42,0,4,,,,,,,,,3,,,53,78
291558,note_off,78,0,2,,,,,,,,,1,,,65,0
291558,note_off,78,0,5,,,,,,,,,4,,,41,0
291558,note_off,78,0,1,,,,,,,,,0,,,77,0
291558,note_off,78,0,4,,,,,,,,,3,,,53,0
291600,note_on,42,0,2,,,,,,,,,1,,,67,79
291600,note_on,42,0,1,,,,,,,,,0,,,79,79
291600,note_on,42,0,4,,,,,,,,,3,,,55,79
291600,note_on,42,0,5,,,,,,,,,4,,,43,79
291678,note_off,78,0,1,,,,,,,,,0,,,79,0
291678,note_off,78,0,2,,,,,,,,,1,,,67,0
291678,note_off,78,0,4,,,,,,,,,3,,,55,0
291678,note_off,78,0,5,,,,,,,,,4,,,43,0
291720,note_on,42,0,2,,,,,,,,,1,,,68,79
291720,note_on,42,0,5,,,,,,,,,4,,,44,79
291720,note_on,42,0,4,,,,,,,,,3,,,56,79
291720,note_on,42,0,1,,,,,,,,,0,,,80,79
291798,note_off,78,0,5,,,,,,,,,4,,,44,0
291798,note_off,78,0,4,,,,,,,,,3,,,56,0
291798,note_off,78,0,1,,,,,,,,,0,,,80,0
291798,note_off,78,0,2,,,,,,,,,1,,,68,0
291840,note_on,42,0,1,,,,,,,,,0,,,82,80
291840,note_on,42,0,4,,,,,,,,,3,,,58,80
291840,note_on,42,0,2,,,,,,,,,1,,,70,80
291840,note_on,42,0,5,,,,,,,,,4,,,46,80
291918,note_off,78,0,2,,,,,,,,,1,,,70,0
291918,note_off,78,0,1,,,,,,,,,0,,,82,0
291918,note_off,78,0,5,,,,,,,,,4,,,46,0
291918,note_off,78,0,4,,,,,,,,,3,,,58,0
291960,note_on,42,0,5,,,,,,,,,4,,,39,81
291960,note_on,42,0,4,,,,,,,,,3,,,51,81
291960,note_on,42,0,1,,,,,,,,,0,,,75,81
291960,note_on,42,0,2,,,,,,,,,1,,,63,81
292038,note_off,78,0,1,,,,,,,,,0,,,75,0
292038,note_off,78,0,2,,,,,,,,,1,,,63,0
292038,note_off,78,0,4,,,,,,,,,3,,,51,0
292038,note_off,78,0,5,,,,,,,,,4,,,39,0
292080,note_on,42,0,5,,,,,,,,,4,,,41,81
292080,note_on,42,0,1,,,,,,,,,0,,,77,81
292080,note_on,42,0,4,,,,,,,,,3,,,53,81
292080,note_on,42,0,2,,,,,,,,,1,,,65,81
292158,note_off,78,0,1,,,,,,,,,0,,,77,0
292158,note_off,78,0,2,,,,,,,,,1,,,65,0
292158,note_off,78,0,4,,,,,,,,,3,,,53,0
292158,note_off,78,0,5,,,,,,,,,4,,,41,0
292200,note_on,42,0,5,,,,,,,,,4,,,43,82
292200,note_on,42,0,2,,,,,,,,,1,,,67,82
292200,note_on,42,0,4,,,,,,,,,3,,,55,82
292200,note_on,42,0,1,,,,,,,,,0,,,79,82
292278,note_off,78,0,5,,,,,,,,,4,,,43,0
292278,note_off,78,0,2,,,,,,,,,1,,,67,0
292278,note_off,78,0,4,,,,,,,,,3,,,55,0
292278,note_off,78,0,1,,,,,,,,,0,,,79,0
292320,note_on,42,0,4,,,,,,,,,3,,,56,82
292320,note_on,42,0,1,,,,,,,,,0,,,80,82
292320,note_on,42,0,5,,,,,,,,,4,,,44,82
292320,note_on,42,0,2,,,,,,,,,1,,,68,82
292398,note_off,78,0,4,,,,,,,,,3,,,56,0
292398,note_off,78,0,1,,,,,,,,,0,,,80,0
292398,note_off,78,0,5,,,,,,,,,4,,,44,0
292398,note_off,78,0,2,,,,,,,,,1,,,68,0
292440,note_on,42,0,2,,,,,,,,,1,,,70,83
292440,note_on,42,0,4,,,,,,,,,3,,,58,83
292440,note_on,42,0,1,,,,,,,,,0,,,82,83
292440,note_on,42,0,5,,,,,,,,,4,,,46,83
292518,note_off,78,0,2,,,,,,,,,1,,,70,0
292518,note_off,78,0,4,,,,,,,,,3,,,58,0
292518,note_off,78,0,1,,,,,,,,,0,,,82,0
292518,note_off,78,0,5,,,,,,,,,4,,,46,0
292560,note_on,42,0,4,,,,,,,,,3,,,60,84
292560,note_on,42,0,2,,,,,,,,,1,,,72,84
292560,note_on,42,0,5,,,,,,,,,4,,,48,84
292560,note_on,42,0,1,,,,,,,,,0,,,84,84
292638,note_off,78,0,4,,,,,,,,,3,,,60,0
292638,note_off,78,0,5,,,,,,,,,4,,,48,0
292638,note_off,78,0,2,,,,,,,,,1,,,72,0
292638,note_off,78,0,1,,,,,,,,,0,,,84,0
292680,note_on,42,0,1,,,,,,,,,0,,,86,84
292680,note_on,42,0,4,,,,,,,,,3,,,62,84
292680,note_on,42,0,2,,,,,,,,,1,,,74,84
292680,note_on,42,0,5,,,,,,,,,4,,,50,84
292758,note_off,78,0,4,,,,,,,,,3,,,62,0
292758,note_off,78,0,5,,,,,,,,,4,,,50,0
292758,note_off,78,0,1,,,,,,,,,0,,,86,0
292758,note_off,78,0,2,,,,,,,,,1,,,74,0
292800,note_on,42,0,1,,,,,,,,,0,,,87,85
292800,note_on,42,0,2,,,,,,,,,1,,,75,85
292800,note_on,42,0,4,,,,,,,,,3,,,63,85
292800,note_on,42,0,5,,,,,,,,,4,,,51,85
292878,note_off,78,0,1,,,,,,,,,0,,,87,0
292878,note_off,78,0,2,,,,,,,,,1,,,75,0
292878,note_off,78,0,5,,,,,,,,,4,,,51,0
292878,note_off,78,0,4,,,,,,,,,3,,,63,0
292920,note_on,42,0,2,,,,,,,,,1,,,70,85
292920,note_on,42,0,4,,,,,,,,,3,,,58,85
292920,note_on,42,0,5,,,,,,,,,4,,,46,85
292920,note_on,42,0,1,,,,,,,,,0,,,82,85
292998,note_off,78,0,2,,,,,,,,,1,,,70,0
292998,note_off,78,0,1,,,,,,,,,0,,,82,0
292998,note_off,78,0,5,,,,,,,,,4,,,46,0
292998,note_off,78,0,4,,,,,,,,,3,,,58,0
293040,note_on,42,0,1,,,,,,,,,0,,,87,86
293040,note_on,42,0,2,,,,,,,,,1,,,75,86
293040,note_on,42,0,5,,,,,,,,,4,,,51,86
293040,note_on,42,0,4,,,,,,,,,3,,,63,86
293118,note_off,78,0,5,,,,,,,,,4,,,51,0
293118,note_off,78,0,2,,,,,,,,,1,,,75,0
293118,note_off,78,0,1,,,,,,,,,0,,,87,0
293118,note_off,78,0,4,,,,,,,,,3,,,63,0
293160,note_on,42,0,2,,,,,,,,,1,,,70,87
293160,note_on,42,0,4,,,,,,,,,3,,,58,87
293160,note_on,42,0,1,,,,,,,,,0,,,82,87
293160,note_on,42,0,5,,,,,,,,,4,,,46,87
293238,note_off,78,0,2,,,,,,,,,1,,,70,0
293238,note_off,78,0,4,,,,,,,,,3,,,58,0
293238,note_off,78,0,5,,,,,,,,,4,,,46,0
293238,note_off,78,0,1,,,,,,,,,0,,,82,0
293280,note_on,42,0,5,,,,,,,,,4,,,51,87
293280,note_on,42,0,4,,,,,,,,,3,,,63,87
293280,note_on,42,0,1,,,,,,,,,0,,,87,87
293280,note_on,42,0,2,,,,,,,,,1,,,75,87
293358,note_off,78,0,2,,,,,,,,,1,,,75,0
293358,note_off,78,0,4,,,,,,,,,3,,,63,0
293358,note_off,78,0,1,,,,,,,,,0,,,87,0
293358,note_off,78,0,5,,,,,,,,,4,,,51,0
293400,note_on,42,0,4,,,,,,,,,3,,,58,88
293400,note_on,42,0,2,,,,,,,,,1,,,70,88
293400,note_on,42,0,5,,,,,,,,,4,,,46,88
293400,note_on,42,0,1,,,,,,,,,0,,,82,88
293478,note_off,78,0,2,,,,,,,,,1,,,70,0
293478,note_off,78,0,1,,,,,,,,,0,,,82,0
293478,note_off,78,0,4,,,,,,,,,3,,,58,0
293478,note_off,78,0,5,,,,,,,,,4,,,46,0
293520,note_on,42,0,1,,,,,,,,,0,,,87,88
293520,note_on,42,0,5,,,,,,,,,4,,,51,88
293520,set_tempo,2880,1,0,,,,,,508474,,,,,,,
293520,note_on,42,0,4,,,,,,,,,3,,,63,88
293520,note_on,42,0,2,,,,,,,,,1,,,75,88
293598,note_off,78,0,4,,,,,,,,,3,,,63,0
293598,note_off,78,0,5,,,,,,,,,4,,,51,0
293598,note_off,78,0,2,,,,,,,,,1,,,75,0
293598,note_off,78,0,1,,,,,,,,,0,,,87,0
293640,note_on,42,0,4,,,,,,,,,3,,,58,89
293640,set_tempo,120,1,0,,,,,,535714,,,,,,,
293640,note_on,42,0,2,,,,,,,,,1,,,70,89
293640,note_on,42,0,1,,,,,,,,,0,,,82,89
293640,note_on,42,0,5,,,,,,,,,4,,,46,89
293718,note_off,78,0,4,,,,,,,,,3,,,58,0
293718,note_off,78,0,1,,,,,,,,,0,,,82,0
293718,note_off,78,0,2,,,,,,,,,1,,,70,0
293718,note_off,78,0,5,,,,,,,,,4,,,46,0
293760,set_tempo,120,1,0,,,,,,500000,,,,,,,
293760,note_on,42,0,1,,,,,,,,,0,,,85,97
293760,note_on,42,0,5,,,,,,,,,4,,,39,97
293760,note_on,0,0,2,,,,,,,,,1,,,73,97
293760,note_on,0,0,2,,,,,,,,,1,,,67,97
293760,note_on,0,0,4,,,,,,,,,3,,,61,97
293760,note_on,0,0,4,,,,,,,,,3,,,51,97
293760,note_on,0,0,4,,,,,,,,,3,,,55,97
293760,note_on,42,0,4,,,,,,,,,3,,,58,97
293760,note_on,42,0,2,,,,,,,,,1,,,70,97
294720,note_on,0,0,1,,,,,,,,,0,,,85,89
294720,note_off,960,0,1,,,,,,,,,0,,,85,0
294720,set_tempo,960,1,0,,,,,,508474,,,,,,,
294780,note_on,0,0,1,,,,,,,,,0,,,84,89
294780,note_off,60,0,1,,,,,,,,,0,,,85,0
294780,set_tempo,60,1,0,,,,,,500000,,,,,,,
294840,set_tempo,60,1,0,,,,,,508474,,,,,,,
294840,note_off,60,0,1,,,,,,,,,0,,,84,0
294840,note_on,0,0,1,,,,,,,,,0,,,82,88
294900,note_on,0,0,1,,,,,,,,,0,,,80,88
294900,note_off,60,0,1,,,,,,,,,0,,,82,0
294900,set_tempo,60,1,0,,,,,,526315,,,,,,,
294960,note_off,0,0,1,,,,,,,,,0,,,80,0
294960,control_change,60,0,1,,,,,,,64,127,0,,,,
294960,note_on,0,0,1,,,,,,,,,0,,,79,82
294960,control_change,1200,0,4,,,,,,,64,127,3,,,,
294960,control_change,1200,0,5,,,,,,,64,127,4,,,,
295680,note_off,0,0,2,,,,,,,,,1,,,67,0
295680,set_tempo,780,1,0,,,,,,769230,,,,,,,
295680,note_off,0,0,2,,,,,,,,,1,,,70,0
295680,note_off,720,0,5,,,,,,,,,4,,,39,0
295680,note_off,720,0,1,,,,,,,,,0,,,79,0
295680,note_off,0,0,4,,,,,,,,,3,,,51,0
295680,note_off,0,0,4,,,,,,,,,3,,,55,0
295680,note_off,0,0,4,,,,,,,,,3,,,58,0
295680,note_off,1920,0,2,,,,,,,,,1,,,73,0
295680,note_off,720,0,4,,,,,,,,,3,,,61,0
296400,control_change,720,0,5,,,,,,,64,0,4,,,,
296400,control_change,720,0,1,,,,,,,64,0,0,,,,
296400,control_change,720,0,4,,,,,,,64,0,3,,,,
296560,note_on,160,0,5,,,,,,,,,4,,,32,74
296600,note_off,40,0,5,,,,,,,,,4,,,32,0
296600,note_on,0,0,5,,,,,,,,,4,,,31,76
296640,note_off,40,0,5,,,,,,,,,4,,,31,0
296640,note_on,0,0,5,,,,,,,,,4,,,32,78
296640,set_tempo,960,1,0,,,,,,500000,,,,,,,
296796,note_off,156,0,5,,,,,,,,,4,,,32,0
296880,note_on,84,0,5,,,,,,,,,4,,,32,64
297036,note_off,156,0,5,,,,,,,,,4,,,32,0
297040,note_on,4,0,5,,,,,,,,,4,,,32,70
297080,note_on,0,0,5,,,,,,,,,4,,,31,72
297080,note_off,40,0,5,,,,,,,,,4,,,32,0
297120,note_off,40,0,5,,,,,,,,,4,,,31,0
297120,note_on,0,0,5,,,,,,,,,4,,,32,76
297276,note_off,156,0,5,,,,,,,,,4,,,32,0
297360,note_on,84,0,5,,,,,,,,,4,,,32,62
297516,note_off,156,0,5,,,,,,,,,4,,,32,0
297520,note_on,4,0,5,,,,,,,,,4,,,32,66
297560,note_off,40,0,5,,,,,,,,,4,,,32,0
297560,note_on,0,0,5,,,,,,,,,4,,,31,68
297600,note_on,0,0,5,,,,,,,,,4,,,32,73
297600,note_off,40,0,5,,,,,,,,,4,,,31,0
297756,note_off,156,0,5,,,,,,,,,4,,,32,0
297840,note_on,1440,0,1,,,,,,,,,0,,,75,62
297840,note_on,0,0,2,,,,,,,,,1,,,72,62
297840,note_on,0,0,2,,,,,,,,,1,,,60,62
297840,note_on,2160,0,2,,,,,,,,,1,,,63,62
297840,note_on,84,0,5,,,,,,,,,4,,,32,62
297996,note_off,156,0,5,,,,,,,,,4,,,32,0
298080,note_off,0,0,2,,,,,,,,,1,,,63,0
298080,note_off,240,0,1,,,,,,,,,0,,,75,0
298080,note_off,0,0,2,,,,,,,,,1,,,60,0
298080,note_on,84,0,5,,,,,,,,,4,,,32,61
298080,note_off,240,0,2,,,,,,,,,1,,,72,0
298236,note_off,156,0,5,,,,,,,,,4,,,32,0
298320,note_on,240,0,2,,,,,,,,,1,,,66,60
298320,note_on,240,0,1,,,,,,,,,0,,,87,60
298320,note_on,0,0,2,,,,,,,,,1,,,75,60
298320,note_on,84,0,5,,,,,,,,,4,,,32,60
298320,note_on,0,0,2,,,,,,,,,1,,,78,60
298320,note_on,1920,0,4,,,,,,,,,3,,,60,60
298400,note_off,80,0,4,,,,,,,,,3,,,60,0
298400,note_on,0,0,4,,,,,,,,,3,,,63,60
298476,note_off,156,0,5,,,,,,,,,4,,,32,0
298480,note_on,0,0,4,,,,,,,,,3,,,60,60
298480,note_off,80,0,4,,,,,,,,,3,,,63,0
298560,note_off,0,0,2,,,,,,,,,1,,,66,0
298560,note_on,84,0,5,,,,,,,,,4,,,32,59
298560,note_off,240,0,2,,,,,,,,,1,,,78,0
298560,note_off,0,0,2,,,,,,,,,1,,,75,0
298560,note_off,240,0,1,,,,,,,,,0,,,87,0
298560,note_on,0,0,4,,,,,,,,,3,,,53,59
298560,note_off,80,0,4,,,,,,,,,3,,,60,0
298640,note_off,80,0,4,,,,,,,,,3,,,53,0
298640,note_on,0,0,4,,,,,,,,,3,,,61,59
298716,note_off,156,0,5,,,,,,,,,4,,,32,0
298720,note_off,80,0,4,,,,,,,,,3,,,61,0
298720,note_on,0,0,4,,,,,,,,,3,,,53,59
298800,note_on,0,0,2,,,,,,,,,1,,,77,58
298800,note_on,84,0,5,,,,,,,,,4,,,32,58
298800,note_on,0,0,4,,,,,,,,,3,,,65,57
298800,note_on,240,0,1,,,,,,,,,0,,,85,58
298800,note_on,240,0,2,,,,,,,,,1,,,65,58
298800,note_on,0,0,2,,,,,,,,,1,,,73,58
298800,note_off,80,0,4,,,,,,,,,3,,,53,0
298880,note_on,0,0,4,,,,,,,,,3,,,56,58
298880,note_off,80,0,4,,,,,,,,,3,,,65,0
298956,note_off,156,0,5,,,,,,,,,4,,,32,0
298960,note_off,80,0,4,,,,,,,,,3,,,56,0
298960,note_on,0,0,4,,,,,,,,,3,,,65,57
299040,note_on,84,0,5,,,,,,,,,4,,,32,57
299040,note_off,80,0,4,,,,,,,,,3,,,65,0
299040,note_on,0,0,4,,,,,,,,,3,,,55,57
299040,note_off,0,0,2,,,,,,,,,1,,,65,0
299040,note_off,0,0,2,,,,,,,,,1,,,73,0
299040,note_off,240,0,2,,,,,,,,,1,,,77,0
299040,note_off,240,0,1,,,,,,,,,0,,,85,0
299120,note_off,80,0,4,,,,,,,,,3,,,55,0
299120,note_on,0,0,4,,,,,,,,,3,,,63,57
299196,note_off,156,0,5,,,,,,,,,4,,,32,0
299200,note_off,80,0,4,,,,,,,,,3,,,63,0
299200,note_on,0,0,4,,,,,,,,,3,,,55,56
299280,note_on,0,0,4,,,,,,,,,3,,,61,56
299280,note_on,240,0,1,,,,,,,,,0,,,82,56
299280,note_on,0,0,2,,,,,,,,,1,,,73,56
299280,note_on,0,0,2,,,,,,,,,1,,,67,56
299280,note_on,0,0,2,,,,,,,,,1,,,79,56
299280,note_on,240,0,2,,,,,,,,,1,,,70,56
299280,note_off,80,0,4,,,,,,,,,3,,,55,0
299280,note_on,84,0,5,,,,,,,,,4,,,32,56
299360,note_off,80,0,4,,,,,,,,,3,,,61,0
299360,note_on,0,0,4,,,,,,,,,3,,,58,56
299436,note_off,156,0,5,,,,,,,,,4,,,32,0
299440,note_off,80,0,4,,,,,,,,,3,,,58,0
299440,note_on,0,0,4,,,,,,,,,3,,,61,55
299520,note_off,0,0,2,,,,,,,,,1,,,73,0
299520,note_off,0,0,2,,,,,,,,,1,,,67,0
299520,note_off,240,0,2,,,,,,,,,1,,,79,0
299520,note_on,0,0,2,,,,,,,,,1,,,80,55
299520,note_on,0,0,2,,,,,,,,,1,,,72,55
299520,note_on,0,0,4,,,,,,,,,3,,,60,55
299520,note_off,0,0,2,,,,,,,,,1,,,70,0
299520,note_off,240,0,1,,,,,,,,,0,,,82,0
299520,note_on,0,0,1,,,,,,,,,0,,,84,55
299520,note_on,0,0,2,,,,,,,,,1,,,68,55
299520,note_off,80,0,4,,,,,,,,,3,,,61,0
299520,note_on,0,0,4,,,,,,,,,3,,,56,55
299520,note_on,84,0,5,,,,,,,,,4,,,32,55
299600,note_off,0,0,2,,,,,,,,,1,,,72,0
299600,note_on,0,0,1,,,,,,,,,0,,,75,55
299600,note_off,80,0,1,,,,,,,,,0,,,84,0
299600,note_on,0,0,2,,,,,,,,,1,,,63,55
299600,note_off,80,0,2,,,,,,,,,1,,,80,0
299600,note_off,0,0,2,,,,,,,,,1,,,68,0
299676,note_off,156,0,5,,,,,,,,,4,,,32,0
299680,note_on,0,0,1,,,,,,,,,0,,,80,54
299680,note_on,0,0,2,,,,,,,,,1,,,68,54
299680,note_off,80,0,2,,,,,,,,,1,,,63,0
299680,note_off,80,0,1,,,,,,,,,0,,,75,0
299760,note_on,84,0,5,,,,,,,,,4,,,32,54
299760,note_off,80,0,2,,,,,,,,,1,,,68,0
299760,note_off,0,0,4,,,,,,,,,3,,,60,0
299760,note_off,240,0,4,,,,,,,,,3,,,56,0
299760,note_on,0,0,1,,,,,,,,,0,,,84,54
299760,note_on,0,0,2,,,,,,,,,1,,,72,54
299760,note_off,80,0,1,,,,,,,,,0,,,80,0
299840,note_off,80,0,1,,,,,,,,,0,,,84,0
299840,note_off,80,0,2,,,,,,,,,1,,,72,0
299840,note_on,0,0,1,,,,,,,,,0,,,80,54
299840,note_on,0,0,2,,,,,,,,,1,,,68,54
299916,note_off,156,0,5,,,,,,,,,4,,,32,0
299920,note_on,0,0,2,,,,,,,,,1,,,72,53
299920,note_off,80,0,2,,,,,,,,,1,,,68,0
299920,note_off,80,0,1,,,,,,,,,0,,,80,0
299920,note_on,0,0,1,,,,,,,,,0,,,84,53
299940,set_tempo,3300,1,0,,,,,,508474,,,,,,,
300000,note_off,80,0,1,,,,,,,,,0,,,84,0
300000,note_on,0,0,1,,,,,,,,,0,,,87,53
300000,note_on,0,0,2,,,,,,,,,1,,,75,53
300000,note_off,80,0,2,,,,,,,,,1,,,72,0
300000,note_on,84,0,5,,,,,,,,,4,,,32,53
300156,note_off,156,0,5,,,,,,,,,4,,,32,0
300240,note_off,240,0,1,,,,,,,,,0,,,87,0
300240,note_off,240,0,2,,,,,,,,,1,,,75,0
300240,set_tempo,300,1,0,,,,,,517241,,,,,,,
300240,note_on,84,0,5,,,,,,,,,4,,,32,52
300360,set_tempo,120,1,0,,,,,,500000,,,,,,,
300396,note_off,156,0,5,,,,,,,,,4,,,32,0
300400,note_on,4,0,5,,,,,,,,,4,,,32,67
300440,note_on,0,0,5,,,,,,,,,4,,,31,70
300440,note_off,40,0,5,,,,,,,,,4,,,32,0
300480,note_on,0,0,5,,,,,,,,,4,,,32,72
300480,note_off,40,0,5,,,,,,,,,4,,,31,0
300636,note_off,156,0,5,,,,,,,,,4,,,32,0
300720,note_on,84,0,5,,,,,,,,,4,,,32,53
300876,note_off,156,0,5,,,,,,,,,4,,,32,0
300880,note_on,4,0,5,,,,,,,,,4,,,32,63
300920,note_off,40,0,5,,,,,,,,,4,,,32,0
300920,note_on,0,0,5,,,,,,,,,4,,,31,66
300960,note_off,40,0,5,,,,,,,,,4,,,31,0
300960,note_on,0,0,5,,,,,,,,,4,,,32,69
301116,note_off,156,0,5,,,,,,,,,4,,,32,0
301200,note_on,84,0,5,,,,,,,,,4,,,32,51
301356,note_off,156,0,5,,,,,,,,,4,,,32,0
301360,note_on,4,0,5,,,,,,,,,4,,,32,60
301400,note_on,0,0,5,,,,,,,,,4,,,31,62
301400,note_off,40,0,5,,,,,,,,,4,,,32,0
301440,note_on,0,0,5,,,,,,,,,4,,,32,66
301440,note_off,40,0,5,,,,,,,,,4,,,31,0
301596,note_off,156,0,5,,,,,,,,,4,,,32,0
301680,note_on,1440,0,1,,,,,,,,,0,,,75,50
301680,note_on,1440,0,2,,,,,,,,,1,,,63,50
301680,note_on,0,0,2,,,,,,,,,1,,,60,50
301680,note_on,0,0,2,,,,,,,,,1,,,72,50
301680,note_on,84,0,5,,,,,,,,,4,,,32,50
301836,note_off,156,0,5,,,,,,,,,4,,,32,0
301920,note_on,84,0,5,,,,,,,,,4,,,32,49
301920,note_off,240,0,2,,,,,,,,,1,,,72,0
301920,note_off,0,0,2,,,,,,,,,1,,,60,0
301920,note_off,0,0,2,,,,,,,,,1,,,63,0
301920,note_off,240,0,1,,,,,,,,,0,,,75,0
302076,note_off,156,0,5,,,,,,,,,4,,,32,0
302160,note_on,0,0,2,,,,,,,,,1,,,75,49
302160,note_on,240,0,1,,,,,,,,,0,,,84,49
302160,note_on,2400,0,4,,,,,,,,,3,,,54,49
302160,note_on,84,0,5,,,,,,,,,4,,,32,49
302160,note_on,0,0,2,,,,,,,,,1,,,63,49
302160,note_on,240,0,2,,,,,,,,,1,,,72,49
302240,note_off,80,0,4,,,,,,,,,3,,,54,0
302240,note_on,0,0,4,,,,,,,,,3,,,62,49
302316,note_off,156,0,5,,,,,,,,,4,,,32,0
302320,note_on,80,0,4,,,,,,,,,3,,,54,48
302325,note_off,5,0,4,,,,,,,,,3,,,62,0
302400,note_on,0,0,4,,,,,,,,,3,,,61,48
302400,note_off,240,0,2,,,,,,,,,1,,,75,0
302400,note_off,0,0,2,,,,,,,,,1,,,63,0
302400,note_off,0,0,2,,,,,,,,,1,,,72,0
302400,note_off,240,0,1,,,,,,,,,0,,,84,0
302400,note_on,84,0,5,,,,,,,,,4,,,32,48
302400,note_off,75,0,4,,,,,,,,,3,,,54,0
302480,note_off,80,0,4,,,,,,,,,3,,,61,0
302480,note_on,0,0,4,,,,,,,,,3,,,53,48
302556,note_off,156,0,5,,,,,,,,,4,,,32,0
302560,note_off,80,0,4,,,,,,,,,3,,,53,0
302560,note_on,0,0,4,,,,,,,,,3,,,61,48
302640,note_on,84,0,5,,,,,,,,,4,,,32,47
302640,note_off,80,0,4,,,,,,,,,3,,,61,0
302640,note_on,0,0,4,,,,,,,,,3,,,49,47
302640,note_on,240,0,1,,,,,,,,,0,,,85,47
302640,note_on,240,0,2,,,,,,,,,1,,,73,47
302640,note_on,0,0,2,,,,,,,,,1,,,65,47
302640,note_on,0,0,2,,,,,,,,,1,,,77,47
302720,note_off,80,0,4,,,,,,,,,3,,,49,0
302720,note_on,0,0,4,,,,,,,,,3,,,58,47
302796,note_off,156,0,5,,,,,,,,,4,,,32,0
302800,note_on,0,0,4,,,,,,,,,3,,,49,47
302800,note_off,80,0,4,,,,,,,,,3,,,58,0
302880,note_on,0,0,4,,,,,,,,,3,,,55,47
302880,note_off,80,0,4,,,,,,,,,3,,,49,0
302880,note_off,0,0,2,,,,,,,,,1,,,73,0
302880,note_off,0,0,2,,,,,,,,,1,,,65,0
302880,note_on,84,0,5,,,,,,,,,4,,,32,47
302880,note_off,240,0,1,,,,,,,,,0,,,85,0
302880,note_off,240,0,2,,,,,,,,,1,,,77,0
302960,note_on,0,0,4,,,,,,,,,3,,,46,46
302960,note_off,80,0,4,,,,,,,,,3,,,55,0
303036,note_off,156,0,5,,,,,,,,,4,,,32,0
303040,note_off,80,0,4,,,,,,,,,3,,,46,0
303040,note_on,0,0,4,,,,,,,,,3,,,55,46
303120,note_on,0,0,2,,,,,,,,,1,,,70,46
303120,note_on,240,0,2,,,,,,,,,1,,,58,46
303120,note_on,84,0,5,,,,,,,,,4,,,32,46
303120,note_on,240,0,1,,,,,,,,,0,,,79,46
303120,note_on,0,0,4,,,,,,,,,3,,,49,46
303120,note_on,0,0,2,,,,,,,,,1,,,67,46
303120,note_off,80,0,4,,,,,,,,,3,,,55,0
303200,note_off,80,0,4,,,,,,,,,3,,,49,0
303200,note_on,0,0,4,,,,,,,,,3,,,58,46
303276,note_off,156,0,5,,,,,,,,,4,,,32,0
303280,note_on,0,0,4,,,,,,,,,3,,,49,46
303280,note_off,80,0,4,,,,,,,,,3,,,58,0
303360,note_on,0,0,4,,,,,,,,,3,,,48,45
303360,note_on,0,0,4,,,,,,,,,3,,,44,45
303360,note_off,80,0,4,,,,,,,,,3,,,49,0
303360,note_off,240,0,2,,,,,,,,,1,,,67,0
303360,note_off,0,0,2,,,,,,,,,1,,,70,0
303360,note_off,0,0,2,,,,,,,,,1,,,58,0
303360,note_on,0,0,2,,,,,,,,,1,,,68,45
303360,note_on,84,0,5,,,,,,,,,4,,,32,45
303360,note_off,240,0,1,,,,,,,,,0,,,79,0
303360,note_on,0,0,1,,,,,,,,,0,,,80,45
303360,note_on,0,0,4,,,,,,,,,3,,,56,45
303440,note_off,80,0,1,,,,,,,,,0,,,80,0
303440,note_off,80,0,2,,,,,,,,,1,,,68,0
303440,note_on,0,0,2,,,,,,,,,1,,,63,45
303440,note_on,0,0,1,,,,,,,,,0,,,75,45
303520,note_off,80,0,1,,,,,,,,,0,,,75,0
303520,note_on,0,0,1,,,,,,,,,0,,,80,45
303520,note_off,80,0,2,,,,,,,,,1,,,63,0
303520,note_on,0,0,2,,,,,,,,,1,,,68,45
303600,note_off,80,0,1,,,,,,,,,0,,,80,0
303600,note_on,0,0,1,,,,,,,,,0,,,84,45
303600,note_off,80,0,2,,,,,,,,,1,,,68,0
303600,note_on,0,0,2,,,,,,,,,1,,,72,45
303680,note_off,80,0,1,,,,,,,,,0,,,84,0
303680,note_on,0,0,1,,,,,,,,,0,,,87,44
303680,note_off,80,0,2,,,,,,,,,1,,,72,0
303680,note_on,0,0,2,,,,,,,,,1,,,75,44
303760,note_on,0,0,2,,,,,,,,,1,,,72,44
303760,note_off,80,0,1,,,,,,,,,0,,,87,0
303760,note_on,0,0,1,,,,,,,,,0,,,84,44
303760,note_off,80,0,2,,,,,,,,,1,,,75,0
303780,set_tempo,3420,1,0,,,,,,508474,,,,,,,
303840,control_change,480,0,4,,,,,,,64,0,3,,,,
303840,note_on,0,0,5,,,,,,,,,4,,,34,44
303840,note_off,0,0,4,,,,,,,,,3,,,44,0
303840,note_off,0,0,4,,,,,,,,,3,,,48,0
303840,note_on,0,0,4,,,,,,,,,3,,,46,44
303840,set_tempo,60,1,0,,,,,,535714,,,,,,,
303840,control_change,480,0,5,,,,,,,64,0,4,,,,
303840,note_on,0,0,1,,,,,,,,,0,,,80,44
303840,note_off,0,0,1,,,,,,,,,0,,,84,0
303840,control_change,80,0,1,,,,,,,64,0,0,,,,
303840,note_off,0,0,5,,,,,,,,,4,,,32,0
303840,note_on,0,0,4,,,,,,,,,3,,,50,44
303840,control_change,13200,0,3,,,,,,,64,0,2,,,,
303840,control_change,80,0,2,,,,,,,64,0,1,,,,
303840,note_on,0,0,2,,,,,,,,,1,,,68,44
303840,note_off,0,0,2,,,,,,,,,1,,,72,0
303960,set_tempo,120,1,0,,,,,,550458,,,,,,,
303960,note_on,0,0,4,,,,,,,,,3,,,55,46
303960,note_off,120,0,4,,,,,,,,,3,,,56,0
304080,note_off,240,0,2,,,,,,,,,1,,,68,0
304080,note_on,0,0,4,,,,,,,,,3,,,56,49
304080,note_off,120,0,4,,,,,,,,,3,,,55,0
304080,note_off,240,0,1,,,,,,,,,0,,,80,0
304080,set_tempo,120,1,0,,,,,,659340,,,,,,,
304200,note_on,0,0,4,,,,,,,,,3,,,53,48
304200,set_tempo,120,1,0,,,,,,526315,,,,,,,
304200,note_off,120,0,4,,,,,,,,,3,,,56,0
305040,set_tempo,840,1,0,,,,,,659340,,,,,,,
305040,note_off,1200,0,5,,,,,,,,,4,,,34,0
305115,note_off,915,0,4,,,,,,,,,3,,,50,0
305122,note_off,0,0,4,,,,,,,,,3,,,46,0
305122,note_off,7,0,4,,,,,,,,,3,,,53,0
305280,note_on,0,0,5,,,,,,,,,4,,,39,46
305280,set_tempo,240,1,0,,,,,,487804,,,,,,,
305280,note_on,0,0,3,,,,,,,,,2,,,51,46
305280,control_change,1200,0,2,,,,,,,64,0,1,,,,
305280,control_change,1200,0,1,,,,,,,64,0,0,,,,
305280,control_change,158,0,4,,,,,,,64,0,3,,,,
305280,control_change,1440,0,3,,,,,,,64,0,2,,,,
305280,control_change,240,0,5,,,,,,,64,0,4,,,,
305358,note_off,78,0,3,,,,,,,,,2,,,51,0
305400,note_on,42,0,3,,,,,,,,,2,,,46,46
305478,note_off,78,0,3,,,,,,,,,2,,,46,0
305520,note_on,42,0,3,,,,,,,,,2,,,43,46
305598,note_off,78,0,3,,,,,,,,,2,,,43,0
305640,note_on,42,0,3,,,,,,,,,2,,,46,46
305640,note_off,360,0,5,,,,,,,,,4,,,39,0
305718,note_off,78,0,3,,,,,,,,,2,,,46,0
305760,note_on,120,0,5,,,,,,,,,4,,,39,47
305760,note_on,42,0,3,,,,,,,,,2,,,51,47
305838,note_off,78,0,3,,,,,,,,,2,,,51,0
305880,note_on,42,0,3,,,,,,,,,2,,,46,47
305958,note_off,78,0,3,,,,,,,,,2,,,46,0
306000,note_on,42,0,3,,,,,,,,,2,,,43,47
306078,note_off,78,0,3,,,,,,,,,2,,,43,0
306120,note_on,42,0,3,,,,,,,,,2,,,46,48
306120,note_off,360,0,5,,,,,,,,,4,,,39,0
306180,note_on,60,0,5,,,,,,,,,4,,,39,48
306180,set_tempo,900,1,0,,,,,,495867,,,,,,,
306198,note_off,78,0,3,,,,,,,,,2,,,46,0
306228,note_off,48,0,5,,,,,,,,,4,,,39,0
306240,note_on,42,0,3,,,,,,,,,2,,,51,48
306240,note_on,12,0,5,,,,,,,,,4,,,39,48
306240,set_tempo,60,1,0,,,,,,487804,,,,,,,
306318,note_off,78,0,3,,,,,,,,,2,,,51,0
306360,note_on,42,0,3,,,,,,,,,2,,,46,48
306438,note_off,78,0,3,,,,,,,,,2,,,46,0
306480,note_on,42,0,3,,,,,,,,,2,,,43,48
306480,note_on,1200,0,2,,,,,,,,,1,,,70,46
306480,note_on,0,0,2,,,,,,,,,1,,,55,46
306480,note_on,0,0,2,,,,,,,,,1,,,63,46
306480,note_on,1200,0,1,,,,,,,,,0,,,75,46
306558,note_off,78,0,3,,,,,,,,,2,,,43,0
306600,note_on,42,0,3,,,,,,,,,2,,,46,49
306678,note_off,78,0,3,,,,,,,,,2,,,46,0
306720,note_off,240,0,1,,,,,,,,,0,,,75,0
306720,note_on,0,0,2,,,,,,,,,1,,,67,47
306720,note_on,42,0,3,,,,,,,,,2,,,51,49
306720,note_on,0,0,2,,,,,,,,,1,,,70,47
306720,note_off,240,0,2,,,,,,,,,1,,,55,0
306720,note_off,0,0,2,,,,,,,,,1,,,63,0
306720,note_on,0,0,1,,,,,,,,,0,,,79,47
306720,note_on,0,0,2,,,,,,,,,1,,,63,47
306720,note_off,0,0,2,,,,,,,,,1,,,70,0
306798,note_off,78,0,3,,,,,,,,,2,,,51,0
306840,note_on,42,0,3,,,,,,,,,2,,,46,49
306918,note_off,78,0,3,,,,,,,,,2,,,46,0
306960,note_on,42,0,3,,,,,,,,,2,,,51,50
306960,note_on,0,0,2,,,,,,,,,1,,,70,47
306960,note_on,0,0,2,,,,,,,,,1,,,63,47
306960,note_on,0,0,2,,,,,,,,,1,,,55,47
306960,note_off,240,0,2,,,,,,,,,1,,,67,0
306960,note_off,0,0,2,,,,,,,,,1,,,63,0
306960,note_off,0,0,2,,,,,,,,,1,,,70,0
306960,note_off,240,0,1,,,,,,,,,0,,,79,0
306960,note_on,0,0,1,,,,,,,,,0,,,75,47
307038,note_off,78,0,3,,,,,,,,,2,,,51,0
307080,note_on,42,0,3,,,,,,,,,2,,,55,50
307087,set_tempo,847,1,0,,,,,,500000,,,,,,,
307158,note_off,78,0,3,,,,,,,,,2,,,55,0
307200,note_on,42,0,3,,,,,,,,,2,,,53,50
307200,note_on,0,0,5,,,,,,,,,4,,,34,50
307200,note_off,960,0,5,,,,,,,,,4,,,39,0
307200,note_off,240,0,2,,,,,,,,,1,,,55,0
307200,note_off,0,0,2,,,,,,,,,1,,,70,0
307200,note_off,240,0,1,,,,,,,,,0,,,75,0
307200,set_tempo,113,1,0,,,,,,487804,,,,,,,
307200,note_off,0,0,2,,,,,,,,,1,,,63,0
307278,note_off,78,0,3,,,,,,,,,2,,,53,0
307320,note_on,42,0,3,,,,,,,,,2,,,50,50
307398,note_off,78,0,3,,,,,,,,,2,,,50,0
307440,note_on,42,0,3,,,,,,,,,2,,,46,51
307518,note_off,78,0,3,,,,,,,,,2,,,46,0
307560,note_off,360,0,5,,,,,,,,,4,,,34,0
307560,note_on,42,0,3,,,,,,,,,2,,,50,51
307638,note_off,78,0,3,,,,,,,,,2,,,50,0
307680,note_on,42,0,3,,,,,,,,,2,,,53,51
307680,note_on,120,0,5,,,,,,,,,4,,,34,51
307758,note_off,78,0,3,,,,,,,,,2,,,53,0
307800,note_on,42,0,3,,,,,,,,,2,,,50,51
307878,note_off,78,0,3,,,,,,,,,2,,,50,0
307920,note_on,42,0,3,,,,,,,,,2,,,46,52
307998,note_off,78,0,3,,,,,,,,,2,,,46,0
308040,note_on,42,0,3,,,,,,,,,2,,,50,52
308040,note_off,360,0,5,,,,,,,,,4,,,34,0
308100,note_on,60,0,5,,,,,,,,,4,,,34,52
308100,set_tempo,900,1,0,,,,,,495867,,,,,,,
308118,note_off,78,0,3,,,,,,,,,2,,,50,0
308148,note_off,48,0,5,,,,,,,,,4,,,34,0
308160,note_on,12,0,5,,,,,,,,,4,,,34,52
308160,set_tempo,60,1,0,,,,,,487804,,,,,,,
308160,note_on,42,0,3,,,,,,,,,2,,,53,52
308238,note_off,78,0,3,,,,,,,,,2,,,53,0
308280,note_on,42,0,3,,,,,,,,,2,,,50,53
308358,note_off,78,0,3,,,,,,,,,2,,,50,0
308400,note_on,42,0,3,,,,,,,,,2,,,46,53
308400,note_on,1200,0,2,,,,,,,,,1,,,74,51
308400,note_on,0,0,2,,,,,,,,,1,,,65,51
308400,note_on,0,0,2,,,,,,,,,1,,,58,51
308400,note_on,1200,0,1,,,,,,,,,0,,,77,51
308478,note_off,78,0,3,,,,,,,,,2,,,46,0
308520,note_on,42,0,3,,,,,,,,,2,,,50,53
308598,note_off,78,0,3,,,,,,,,,2,,,50,0
308640,note_on,0,0,1,,,,,,,,,0,,,80,52
308640,note_off,240,0,1,,,,,,,,,0,,,77,0
308640,note_off,240,0,2,,,,,,,,,1,,,58,0
308640,note_on,0,0,2,,,,,,,,,1,,,65,52
308640,note_on,0,0,2,,,,,,,,,1,,,74,52
308640,note_off,0,0,2,,,,,,,,,1,,,74,0
308640,note_off,0,0,2,,,,,,,,,1,,,65,0
308640,note_on,42,0,3,,,,,,,,,2,,,53,53
308640,note_on,0,0,2,,,,,,,,,1,,,68,52
308718,note_off,78,0,3,,,,,,,,,2,,,53,0
308760,note_on,42,0,3,,,,,,,,,2,,,50,54
308838,note_off,78,0,3,,,,,,,,,2,,,50,0
308880,note_off,240,0,1,,,,,,,,,0,,,80,0
308880,note_on,0,0,1,,,,,,,,,0,,,77,53
308880,note_off,240,0,2,,,,,,,,,1,,,68,0
308880,note_off,0,0,2,,,,,,,,,1,,,65,0
308880,note_off,0,0,2,,,,,,,,,1,,,74,0
308880,note_on,0,0,2,,,,,,,,,1,,,74,53
308880,note_on,0,0,2,,,,,,,,,1,,,65,53
308880,note_on,0,0,2,,,,,,,,,1,,,58,53
308880,note_on,42,0,3,,,,,,,,,2,,,53,54
308958,note_off,78,0,3,,,,,,,,,2,,,53,0
309000,note_on,42,0,3,,,,,,,,,2,,,56,54
309007,set_tempo,847,1,0,,,,,,500000,,,,,,,
309078,note_off,78,0,3,,,,,,,,,2,,,56,0
309120,note_off,240,0,1,,,,,,,,,0,,,77,0
309120,note_off,0,0,2,,,,,,,,,1,,,74,0
309120,note_off,0,0,2,,,,,,,,,1,,,65,0
309120,note_off,960,0,5,,,,,,,,,4,,,34,0
309120,note_on,0,0,2,,,,,,,,,1,,,67,53
309120,note_off,240,0,2,,,,,,,,,1,,,58,0
309120,note_on,42,0,3,,,,,,,,,2,,,55,54
309120,set_tempo,113,1,0,,,,,,487804,,,,,,,
309120,note_on,0,0,3,,,,,,,,,2,,,63,53
309120,note_on,0,0,1,,,,,,,,,0,,,75,53
309120,note_on,0,0,5,,,,,,,,,4,,,39,54
309198,note_off,78,0,3,,,,,,,,,2,,,63,0
309240,note_on,42,0,3,,,,,,,,,2,,,58,54
309276,note_off,156,0,5,,,,,,,,,4,,,39,0
309276,note_off,36,0,3,,,,,,,,,2,,,55,0
309318,note_off,42,0,3,,,,,,,,,2,,,58,0
309360,note_on,42,0,3,,,,,,,,,2,,,46,55
309360,note_on,0,0,3,,,,,,,,,2,,,43,55
309360,note_on,0,0,3,,,,,,,,,2,,,55,54
309360,note_on,0,0,3,,,,,,,,,2,,,51,55
309438,note_off,78,0,3,,,,,,,,,2,,,55,0
309480,note_on,42,0,3,,,,,,,,,2,,,58,55
309480,note_off,360,0,1,,,,,,,,,0,,,75,0
309480,note_off,360,0,2,,,,,,,,,1,,,67,0
309516,note_off,0,0,3,,,,,,,,,2,,,46,0
309516,note_off,0,0,3,,,,,,,,,2,,,51,0
309516,note_off,36,0,3,,,,,,,,,2,,,43,0
309558,note_off,42,0,3,,,,,,,,,2,,,58,0
309600,note_on,324,0,5,,,,,,,,,4,,,39,56
309600,note_on,120,0,2,,,,,,,,,1,,,67,55
309600,note_on,42,0,3,,,,,,,,,2,,,63,55
309600,note_on,120,0,1,,,,,,,,,0,,,75,55
309678,note_off,78,0,3,,,,,,,,,2,,,63,0
309720,note_on,42,0,3,,,,,,,,,2,,,58,55
309756,note_off,156,0,5,,,,,,,,,4,,,39,0
309798,note_off,78,0,3,,,,,,,,,2,,,58,0
309840,note_on,0,0,3,,,,,,,,,2,,,55,56
309840,note_on,0,0,3,,,,,,,,,2,,,46,56
309840,note_on,0,0,3,,,,,,,,,2,,,51,56
309840,note_on,42,0,3,,,,,,,,,2,,,43,56
309918,note_off,78,0,3,,,,,,,,,2,,,55,0
309960,note_off,360,0,1,,,,,,,,,0,,,75,0
309960,note_on,42,0,3,,,,,,,,,2,,,58,56
309960,note_off,360,0,2,,,,,,,,,1,,,67,0
309996,note_off,0,0,3,,,,,,,,,2,,,51,0
309996,note_off,0,0,3,,,,,,,,,2,,,43,0
309996,note_off,36,0,3,,,,,,,,,2,,,46,0
310020,note_on,60,0,2,,,,,,,,,1,,,67,56
310020,set_tempo,900,1,0,,,,,,495867,,,,,,,
310020,note_on,60,0,1,,,,,,,,,0,,,75,56
310038,note_off,42,0,3,,,,,,,,,2,,,58,0
310068,note_off,48,0,2,,,,,,,,,1,,,67,0
310068,note_off,48,0,1,,,,,,,,,0,,,75,0
310080,note_on,12,0,2,,,,,,,,,1,,,67,56
310080,note_on,12,0,1,,,,,,,,,0,,,75,56
310080,set_tempo,60,1,0,,,,,,487804,,,,,,,
310080,note_on,42,0,3,,,,,,,,,2,,,63,56
310158,note_off,78,0,3,,,,,,,,,2,,,63,0
310200,note_on,42,0,3,,,,,,,,,2,,,58,57
310278,note_off,78,0,3,,,,,,,,,2,,,58,0
310320,note_on,42,0,3,,,,,,,,,2,,,51,57
310320,note_on,0,0,3,,,,,,,,,2,,,55,57
310320,note_on,564,0,5,,,,,,,,,4,,,39,57
310398,note_off,78,0,3,,,,,,,,,2,,,55,0
310440,note_off,360,0,1,,,,,,,,,0,,,75,0
310440,note_off,360,0,2,,,,,,,,,1,,,67,0
310440,note_on,42,0,3,,,,,,,,,2,,,58,57
310500,note_on,60,0,1,,,,,,,,,0,,,77,57
310518,note_off,78,0,3,,,,,,,,,2,,,58,0
310560,note_on,0,0,5,,,,,,,,,4,,,43,58
310560,note_on,0,0,1,,,,,,,,,0,,,75,58
310560,note_off,60,0,1,,,,,,,,,0,,,77,0
310560,note_off,240,0,5,,,,,,,,,4,,,39,0
310560,note_on,0,0,3,,,,,,,,,2,,,63,58
310560,note_on,0,0,3,,,,,,,,,2,,,55,58
310560,note_off,42,0,3,,,,,,,,,2,,,51,0
310638,note_off,78,0,3,,,,,,,,,2,,,63,0
310680,note_off,120,0,1,,,,,,,,,0,,,75,0
310680,note_on,0,0,1,,,,,,,,,0,,,74,58
310680,note_on,42,0,3,,,,,,,,,2,,,58,58
310758,note_off,78,0,3,,,,,,,,,2,,,58,0
310800,note_on,0,0,3,,,,,,,,,2,,,63,58
310800,note_off,240,0,5,,,,,,,,,4,,,43,0
310800,note_on,0,0,3,,,,,,,,,2,,,51,58
310800,note_off,42,0,3,,,,,,,,,2,,,55,0
310800,note_on,0,0,1,,,,,,,,,0,,,75,58
310800,note_off,120,0,1,,,,,,,,,0,,,74,0
310800,note_on,0,0,5,,,,,,,,,4,,,39,58
310878,note_off,78,0,3,,,,,,,,,2,,,63,0
310920,note_on,0,0,1,,,,,,,,,0,,,79,59
310920,note_off,120,0,1,,,,,,,,,0,,,75,0
310920,note_on,42,0,3,,,,,,,,,2,,,67,59
310935,set_tempo,855,1,0,,,,,,500000,,,,,,,
310998,note_off,78,0,3,,,,,,,,,2,,,67,0
311040,note_off,240,0,5,,,,,,,,,4,,,39,0
311040,note_off,120,0,1,,,,,,,,,0,,,79,0
311040,set_tempo,105,1,0,,,,,,487804,,,,,,,
311040,note_on,0,0,1,,,,,,,,,0,,,77,59
311040,note_on,0,0,5,,,,,,,,,4,,,34,59
311040,note_off,42,0,3,,,,,,,,,2,,,51,0
311040,note_on,0,0,3,,,,,,,,,2,,,65,59
311040,note_on,0,0,3,,,,,,,,,2,,,46,59
311118,note_off,78,0,3,,,,,,,,,2,,,65,0
311160,note_on,42,0,3,,,,,,,,,2,,,62,59
311196,note_off,156,0,5,,,,,,,,,4,,,34,0
311196,note_off,36,0,3,,,,,,,,,2,,,46,0
311238,note_off,42,0,3,,,,,,,,,2,,,62,0
311280,note_on,0,0,3,,,,,,,,,2,,,58,60
311280,note_on,42,0,3,,,,,,,,,2,,,50,59
311280,note_on,0,0,3,,,,,,,,,2,,,53,59
311280,note_on,0,0,3,,,,,,,,,2,,,46,59
311358,note_off,78,0,3,,,,,,,,,2,,,58,0
311400,note_off,360,0,1,,,,,,,,,0,,,77,0
311400,note_on,42,0,3,,,,,,,,,2,,,62,60
311436,note_off,36,0,3,,,,,,,,,2,,,46,0
311436,note_off,0,0,3,,,,,,,,,2,,,50,0
311436,note_off,0,0,3,,,,,,,,,2,,,53,0
311478,note_off,42,0,3,,,,,,,,,2,,,62,0
311520,note_on,42,0,3,,,,,,,,,2,,,65,60
311520,note_on,324,0,5,,,,,,,,,4,,,34,60
311520,note_on,120,0,1,,,,,,,,,0,,,77,60
311598,note_off,78,0,3,,,,,,,,,2,,,65,0
311640,note_on,42,0,3,,,,,,,,,2,,,62,61
311676,note_off,156,0,5,,,,,,,,,4,,,34,0
311718,note_off,78,0,3,,,,,,,,,2,,,62,0
311760,note_on,0,0,3,,,,,,,,,2,,,58,61
311760,note_on,42,0,3,,,,,,,,,2,,,50,61
311760,note_on,0,0,3,,,,,,,,,2,,,53,61
311760,note_on,0,0,3,,,,,,,,,2,,,46,61
311838,note_off,78,0,3,,,,,,,,,2,,,58,0
311880,note_off,360,0,1,,,,,,,,,0,,,77,0
311880,note_on,42,0,3,,,,,,,,,2,,,62,62
311916,note_off,0,0,3,,,,,,,,,2,,,53,0
311916,note_off,36,0,3,,,,,,,,,2,,,46,0
311916,note_off,0,0,3,,,,,,,,,2,,,50,0
311940,set_tempo,900,1,0,,,,,,495867,,,,,,,
311940,note_on,60,0,1,,,,,,,,,0,,,77,62
311958,note_off,42,0,3,,,,,,,,,2,,,62,0
311988,note_off,48,0,1,,,,,,,,,0,,,77,0
312000,note_on,12,0,1,,,,,,,,,0,,,77,62
312000,note_on,42,0,3,,,,,,,,,2,,,65,62
312000,set_tempo,60,1,0,,,,,,487804,,,,,,,
312078,note_off,78,0,3,,,,,,,,,2,,,65,0
312120,note_on,42,0,3,,,,,,,,,2,,,62,62
312198,note_off,78,0,3,,,,,,,,,2,,,62,0
312240,note_on,0,0,3,,,,,,,,,2,,,58,63
312240,note_on,564,0,5,,,,,,,,,4,,,34,62
312240,note_on,42,0,3,,,,,,,,,2,,,46,62
312318,note_off,78,0,3,,,,,,,,,2,,,58,0
312360,note_on,42,0,3,,,,,,,,,2,,,62,63
312360,note_off,360,0,1,,,,,,,,,0,,,77,0
312420,note_on,60,0,1,,,,,,,,,0,,,79,63
312438,note_off,78,0,3,,,,,,,,,2,,,62,0
312480,note_on,0,0,3,,,,,,,,,2,,,65,63
312480,note_off,240,0,5,,,,,,,,,4,,,34,0
312480,note_on,0,0,5,,,,,,,,,4,,,38,62
312480,note_off,42,0,3,,,,,,,,,2,,,46,0
312480,note_on,0,0,3,,,,,,,,,2,,,50,62
312480,note_on,0,0,1,,,,,,,,,0,,,77,63
312480,note_off,60,0,1,,,,,,,,,0,,,79,0
312600,note_off,120,0,1,,,,,,,,,0,,,77,0
312600,note_on,0,0,1,,,,,,,,,0,,,76,63
312600,note_on,120,0,3,,,,,,,,,2,,,64,54
312607,note_off,7,0,3,,,,,,,,,2,,,65,0
312720,note_on,0,0,3,,,,,,,,,2,,,65,54
312720,note_on,0,0,3,,,,,,,,,2,,,46,63
312720,note_off,113,0,3,,,,,,,,,2,,,50,0
312720,note_off,120,0,1,,,,,,,,,0,,,76,0
312720,note_on,0,0,1,,,,,,,,,0,,,77,63
312720,note_off,240,0,5,,,,,,,,,4,,,38,0
312720,note_on,0,0,5,,,,,,,,,4,,,34,63
312727,note_off,7,0,3,,,,,,,,,2,,,64,0
312840,note_on,113,0,3,,,,,,,,,2,,,68,54
312840,note_off,120,0,1,,,,,,,,,0,,,77,0
312840,note_on,0,0,1,,,,,,,,,0,,,80,63
312847,note_off,7,0,3,,,,,,,,,2,,,65,0
312855,set_tempo,855,1,0,,,,,,495867,,,,,,,
312960,set_tempo,105,1,0,,,,,,495867,,,,,,,
312960,note_on,0,0,3,,,,,,,,,2,,,75,64
312960,note_on,0,0,3,,,,,,,,,2,,,67,64
312960,note_on,0,0,3,,,,,,,,,2,,,63,64
312960,note_off,240,0,5,,,,,,,,,4,,,34,0
312960,note_off,113,0,3,,,,,,,,,2,,,46,0
312960,note_on,0,0,3,,,,,,,,,2,,,51,64
312960,note_on,0,0,1,,,,,,,,,0,,,79,64
312960,note_on,0,0,5,,,,,,,,,4,,,39,64
312960,note_off,120,0,1,,,,,,,,,0,,,80,0
312967,note_off,7,0,3,,,,,,,,,2,,,68,0
313080,note_off,113,0,3,,,,,,,,,2,,,51,0
313080,note_on,0,0,3,,,,,,,,,2,,,55,66
313080,note_on,0,0,3,,,,,,,,,2,,,51,66
313200,note_on,0,0,5,,,,,,,,,4,,,51,67
313200,note_off,240,0,5,,,,,,,,,4,,,39,0
313200,note_on,0,0,3,,,,,,,,,2,,,53,67
313200,note_on,0,0,3,,,,,,,,,2,,,65,67
313200,note_on,0,0,3,,,,,,,,,2,,,77,67
313200,note_on,0,0,3,,,,,,,,,2,,,56,67
313200,note_on,0,0,3,,,,,,,,,2,,,68,67
313200,note_off,0,0,3,,,,,,,,,2,,,67,0
313200,note_off,0,0,3,,,,,,,,,2,,,75,0
313200,note_off,0,0,3,,,,,,,,,2,,,55,0
313200,note_off,120,0,3,,,,,,,,,2,,,51,0
313200,note_off,240,0,1,,,,,,,,,0,,,79,0
313200,note_on,0,0,1,,,,,,,,,0,,,80,67
313200,note_off,0,0,3,,,,,,,,,2,,,63,0
313320,note_on,0,0,1,,,,,,,,,0,,,82,69
313320,note_on,0,0,3,,,,,,,,,2,,,67,69
313320,note_on,0,0,3,,,,,,,,,2,,,70,69
313320,note_on,0,0,3,,,,,,,,,2,,,79,69
313320,note_off,120,0,1,,,,,,,,,0,,,80,0
313320,note_on,0,0,3,,,,,,,,,2,,,55,69
313320,note_off,0,0,3,,,,,,,,,2,,,56,0
313320,note_off,0,0,3,,,,,,,,,2,,,53,0
313320,note_on,0,0,3,,,,,,,,,2,,,58,69
313320,note_off,0,0,3,,,,,,,,,2,,,77,0
313320,note_off,0,0,3,,,,,,,,,2,,,65,0
313320,note_off,120,0,3,,,,,,,,,2,,,68,0
313380,note_on,0,0,5,,,,,,,,,4,,,51,70
313380,note_off,180,0,5,,,,,,,,,4,,,51,0
313440,note_on,0,0,3,,,,,,,,,2,,,60,70
313440,note_on,0,0,3,,,,,,,,,2,,,68,70
313440,note_on,0,0,3,,,,,,,,,2,,,72,70
313440,note_on,0,0,3,,,,,,,,,2,,,80,70
313440,note_on,0,0,3,,,,,,,,,2,,,56,70
313440,note_off,60,0,5,,,,,,,,,4,,,51,0
313440,note_on,0,0,5,,,,,,,,,4,,,51,70
313440,set_tempo,480,1,0,,,,,,495867,,,,,,,
313440,note_on,0,0,1,,,,,,,,,0,,,84,70
313440,note_off,120,0,3,,,,,,,,,2,,,67,0
313440,note_off,0,0,3,,,,,,,,,2,,,70,0
313440,note_off,0,0,3,,,,,,,,,2,,,79,0
313440,note_off,0,0,3,,,,,,,,,2,,,55,0
313440,note_off,120,0,1,,,,,,,,,0,,,82,0
313440,note_off,0,0,3,,,,,,,,,2,,,58,0
313560,note_off,120,0,1,,,,,,,,,0,,,84,0
313560,note_on,0,0,1,,,,,,,,,0,,,86,72
313560,note_off,120,0,3,,,,,,,,,2,,,60,0
313560,note_off,0,0,3,,,,,,,,,2,,,72,0
313560,note_off,0,0,3,,,,,,,,,2,,,80,0
313560,note_off,0,0,3,,,,,,,,,2,,,56,0
313560,note_on,0,0,3,,,,,,,,,2,,,58,72
313560,note_on,0,0,3,,,,,,,,,2,,,82,72
313560,note_on,0,0,3,,,,,,,,,2,,,70,72
313560,note_on,0,0,3,,,,,,,,,2,,,74,72
313560,note_on,0,0,3,,,,,,,,,2,,,62,72
313560,note_off,0,0,3,,,,,,,,,2,,,68,0
313680,note_off,120,0,1,,,,,,,,,0,,,86,0
313680,note_on,0,0,1,,,,,,,,,0,,,87,73
313680,note_off,0,0,3,,,,,,,,,2,,,74,0
313680,note_on,0,0,5,,,,,,,,,4,,,51,73
313680,note_on,0,0,3,,,,,,,,,2,,,63,73
313680,note_on,0,0,3,,,,,,,,,2,,,60,73
313680,note_off,240,0,5,,,,,,,,,4,,,51,0
313680,note_off,0,0,3,,,,,,,,,2,,,70,0
313680,note_on,0,0,3,,,,,,,,,2,,,75,73
313680,note_on,0,0,3,,,,,,,,,2,,,72,73
313680,note_off,0,0,3,,,,,,,,,2,,,58,0
313680,note_off,0,0,3,,,,,,,,,2,,,82,0
313680,note_off,120,0,3,,,,,,,,,2,,,62,0
313680,note_on,0,0,3,,,,,,,,,2,,,84,73
313800,note_on,0,0,1,,,,,,,,,0,,,84,75
313800,note_off,120,0,3,,,,,,,,,2,,,63,0
313800,note_off,0,0,3,,,,,,,,,2,,,72,0
313800,note_off,0,0,3,,,,,,,,,2,,,84,0
313800,note_on,0,0,3,,,,,,,,,2,,,56,75
313800,note_on,0,0,3,,,,,,,,,2,,,80,75
313800,note_on,0,0,3,,,,,,,,,2,,,72,75
313800,note_on,0,0,3,,,,,,,,,2,,,60,75
313800,note_on,0,0,3,,,,,,,,,2,,,68,75
313800,note_off,0,0,3,,,,,,,,,2,,,60,0
313800,note_off,120,0,1,,,,,,,,,0,,,87,0
313800,note_off,0,0,3,,,,,,,,,2,,,75,0
313860,set_tempo,420,1,0,,,,,,500000,,,,,,,
313920,note_on,0,0,3,,,,,,,,,2,,,79,78
313920,note_on,0,0,3,,,,,,,,,2,,,58,78
313920,note_off,0,0,3,,,,,,,,,2,,,68,0
313920,note_on,0,0,3,,,,,,,,,2,,,55,78
313920,note_off,0,0,3,,,,,,,,,2,,,56,0
313920,note_off,0,0,3,,,,,,,,,2,,,80,0
313920,note_on,0,0,3,,,,,,,,,2,,,67,78
313920,note_on,0,0,3,,,,,,,,,2,,,70,78
313920,set_tempo,60,1,0,,,,,,508474,,,,,,,
313920,note_off,120,0,3,,,,,,,,,2,,,60,0
313920,note_off,0,0,3,,,,,,,,,2,,,72,0
313920,note_on,0,0,5,,,,,,,,,4,,,51,78
313920,note_on,0,0,1,,,,,,,,,0,,,82,78
313920,note_off,240,0,5,,,,,,,,,4,,,51,0
313920,note_off,120,0,1,,,,,,,,,0,,,84,0
314400,note_on,0,0,3,,,,,,,,,2,,,75,87
314400,note_on,0,0,3,,,,,,,,,2,,,63,87
314400,note_on,0,0,3,,,,,,,,,2,,,51,87
314400,note_on,0,0,3,,,,,,,,,2,,,55,87
314400,note_off,480,0,3,,,,,,,,,2,,,70,0
314400,note_off,480,0,5,,,,,,,,,4,,,51,0
314400,note_off,480,0,1,,,,,,,,,0,,,82,0
314400,note_on,0,0,1,,,,,,,,,0,,,79,87
314400,note_off,0,0,3,,,,,,,,,2,,,55,0
314400,note_on,0,0,3,,,,,,,,,2,,,67,87
314400,note_off,0,0,3,,,,,,,,,2,,,58,0
314400,note_off,0,0,3,,,,,,,,,2,,,79,0
314400,note_on,0,0,5,,,,,,,,,4,,,39,87
314400,note_off,0,0,3,,,,,,,,,2,,,67,0
314520,set_tempo,600,1,0,,,,,,571428,,,,,,,
314640,note_off,0,0,3,,,,,,,,,2,,,75,0
314640,note_off,240,0,1,,,,,,,,,0,,,79,0
314640,note_off,0,0,3,,,,,,,,,2,,,51,0
314640,note_off,0,0,3,,,,,,,,,2,,,55,0
314640,note_off,240,0,5,,,,,,,,,4,,,39,0
314640,note_off,240,0,3,,,,,,,,,2,,,67,0
314640,note_off,0,0,3,,,,,,,,,2,,,63,0
314760,note_on,120,0,3,,,,,,,,,2,,,55,94
314760,note_on,0,0,3,,,,,,,,,2,,,51,94
314760,note_on,4320,0,2,,,,,,,,,1,,,67,94
314760,note_on,120,0,1,,,,,,,,,0,,,79,94
314760,note_on,120,0,5,,,,,,,,,4,,,39,94
314767,set_tempo,247,1,0,,,,,,508474,,,,,,,
314880,set_tempo,113,1,0,,,,,,495867,,,,,,,
314880,note_on,0,0,2,,,,,,,,,1,,,65,101
314880,note_on,0,0,3,,,,,,,,,2,,,46,101
314880,note_on,0,0,3,,,,,,,,,2,,,53,101
314880,note_on,0,0,3,,,,,,,,,2,,,50,101
314880,note_off,120,0,3,,,,,,,,,2,,,51,0
314880,note_off,0,0,3,,,,,,,,,2,,,55,0
314880,note_on,0,0,5,,,,,,,,,4,,,29,101
314880,note_off,120,0,2,,,,,,,,,1,,,67,0
314880,note_off,120,0,1,,,,,,,,,0,,,79,0
314880,note_on,0,0,1,,,,,,,,,0,,,77,101
314880,note_off,120,0,5,,,,,,,,,4,,,39,0
315120,note_off,240,0,3,,,,,,,,,2,,,46,0
315120,note_off,0,0,3,,,,,,,,,2,,,53,0
315120,note_off,0,0,3,,,,,,,,,2,,,50,0
315120,note_on,0,0,3,,,,,,,,,2,,,53,99
315120,note_on,0,0,3,,,,,,,,,2,,,58,99
315120,note_on,0,0,1,,,,,,,,,0,,,82,99
315120,note_off,240,0,1,,,,,,,,,0,,,77,0
315120,note_on,0,0,3,,,,,,,,,2,,,50,99
315120,note_off,240,0,5,,,,,,,,,4,,,29,0
315120,note_off,240,0,2,,,,,,,,,1,,,65,0
315120,note_on,0,0,2,,,,,,,,,1,,,70,99
315120,note_on,0,0,5,,,,,,,,,4,,,41,99
315300,note_off,180,0,5,,,,,,,,,4,,,41,0
315300,note_on,0,0,5,,,,,,,,,4,,,41,97
315300,note_on,0,0,3,,,,,,,,,2,,,58,97
315300,note_off,180,0,1,,,,,,,,,0,,,82,0
315300,note_on,0,0,1,,,,,,,,,0,,,86,97
315300,note_on,0,0,3,,,,,,,,,2,,,50,97
315300,note_on,0,0,2,,,,,,,,,1,,,74,97
315300,note_on,0,0,3,,,,,,,,,2,,,53,97
315300,note_off,0,0,3,,,,,,,,,2,,,53,0
315300,note_off,180,0,3,,,,,,,,,2,,,58,0
315300,note_off,180,0,2,,,,,,,,,1,,,70,0
315300,note_off,0,0,3,,,,,,,,,2,,,50,0
315360,note_off,60,0,2,,,,,,,,,1,,,74,0
315360,note_off,60,0,1,,,,,,,,,0,,,86,0
315360,note_on,0,0,1,,,,,,,,,0,,,89,97
315360,note_on,0,0,3,,,,,,,,,2,,,57,97
315360,note_on,0,0,3,,,,,,,,,2,,,51,97
315360,note_off,0,0,3,,,,,,,,,2,,,53,0
315360,note_off,0,0,3,,,,,,,,,2,,,50,0
315360,note_off,60,0,3,,,,,,,,,2,,,58,0
315360,note_on,0,0,5,,,,,,,,,4,,,29,97
315360,note_off,60,0,5,,,,,,,,,4,,,41,0
315360,note_on,0,0,2,,,,,,,,,1,,,77,97
315360,note_on,0,0,3,,,,,,,,,2,,,48,97
315480,note_off,120,0,3,,,,,,,,,2,,,51,0
315480,note_off,120,0,5,,,,,,,,,4,,,29,0
315480,note_off,120,0,2,,,,,,,,,1,,,77,0
315480,note_off,0,0,3,,,,,,,,,2,,,57,0
315480,note_off,0,0,3,,,,,,,,,2,,,48,0
315480,note_off,120,0,1,,,,,,,,,0,,,89,0
315600,note_on,120,0,5,,,,,,,,,4,,,41,92
315600,note_on,120,0,3,,,,,,,,,2,,,48,92
315600,note_on,120,0,1,,,,,,,,,0,,,89,92
315600,note_on,120,0,2,,,,,,,,,1,,,77,92
315600,note_on,0,0,3,,,,,,,,,2,,,51,92
315600,note_on,0,0,3,,,,,,,,,2,,,57,92
315720,note_off,120,0,2,,,,,,,,,1,,,77,0
315720,note_off,120,0,1,,,,,,,,,0,,,89,0
315720,note_off,120,0,5,,,,,,,,,4,,,41,0
315720,note_off,120,0,3,,,,,,,,,2,,,51,0
315720,note_off,0,0,3,,,,,,,,,2,,,57,0
315720,note_off,0,0,3,,,,,,,,,2,,,48,0
315780,set_tempo,900,1,0,,,,,,535714,,,,,,,
315840,note_on,120,0,5,,,,,,,,,4,,,34,96
315840,note_on,0,0,3,,,,,,,,,2,,,46,96
315840,note_on,120,0,1,,,,,,,,,0,,,82,96
315840,note_on,120,0,2,,,,,,,,,1,,,70,96
315840,note_on,120,0,3,,,,,,,,,2,,,58,96
316200,note_off,360,0,1,,,,,,,,,0,,,82,0
316200,note_off,360,0,2,,,,,,,,,1,,,70,0
316320,set_tempo,540,1,0,,,,,,612244,,,,,,,
316560,note_on,0,0,5,,,,,,,,,4,,,36,55
316560,note_off,720,0,5,,,,,,,,,4,,,34,0
316560,note_off,0,0,3,,,,,,,,,2,,,58,0
316560,note_on,0,0,4,,,,,,,,,3,,,48,55
316560,note_on,11280,0,4,,,,,,,,,3,,,60,55
316560,note_off,720,0,3,,,,,,,,,2,,,46,0
316567,set_tempo,247,1,0,,,,,,495867,,,,,,,
316740,set_tempo,173,1,0,,,,,,500000,,,,,,,
316800,note_off,240,0,4,,,,,,,,,3,,,48,0
316800,note_on,0,0,5,,,,,,,,,4,,,37,39
316800,note_on,0,0,4,,,,,,,,,3,,,61,37
316800,set_tempo,60,1,0,,,,,,487804,,,,,,,
316800,note_on,600,0,1,,,,,,,,,0,,,73,39
316800,note_off,0,0,4,,,,,,,,,3,,,60,0
316800,note_off,240,0,5,,,,,,,,,4,,,36,0
316800,note_on,0,0,4,,,,,,,,,3,,,49,39
316920,note_off,120,0,4,,,,,,,,,3,,,61,0
316920,note_on,0,0,4,,,,,,,,,3,,,56,37
317040,note_on,0,0,4,,,,,,,,,3,,,53,37
317040,note_off,120,0,4,,,,,,,,,3,,,56,0
317160,note_on,0,0,4,,,,,,,,,3,,,56,38
317160,note_off,120,0,4,,,,,,,,,3,,,53,0
317280,note_off,480,0,1,,,,,,,,,0,,,73,0
317280,note_on,0,0,1,,,,,,,,,0,,,73,35
317280,note_off,480,0,5,,,,,,,,,4,,,37,0
317280,note_on,0,0,4,,,,,,,,,3,,,49,35
317280,note_on,0,0,4,,,,,,,,,3,,,61,38
317280,note_off,120,0,4,,,,,,,,,3,,,56,0
317280,note_off,0,0,4,,,,,,,,,3,,,49,0
317280,note_on,0,0,5,,,,,,,,,4,,,37,35
317400,note_off,120,0,4,,,,,,,,,3,,,61,0
317400,note_on,0,0,4,,,,,,,,,3,,,56,38
317520,note_off,120,0,4,,,,,,,,,3,,,56,0
317520,note_on,0,0,4,,,,,,,,,3,,,53,39
317640,note_off,360,0,1,,,,,,,,,0,,,73,0
317640,note_off,120,0,4,,,,,,,,,3,,,53,0
317640,note_on,0,0,4,,,,,,,,,3,,,56,39
317640,note_off,0,0,4,,,,,,,,,3,,,49,0
317640,note_off,360,0,5,,,,,,,,,4,,,37,0
317700,set_tempo,900,1,0,,,,,,495867,,,,,,,
317700,note_on,60,0,4,,,,,,,,,3,,,49,37
317700,note_on,60,0,5,,,,,,,,,4,,,37,37
317700,note_on,60,0,1,,,,,,,,,0,,,73,37
317760,note_on,0,0,5,,,,,,,,,4,,,37,37
317760,note_off,60,0,5,,,,,,,,,4,,,37,0
317760,note_on,0,0,1,,,,,,,,,0,,,73,37
317760,note_off,0,0,4,,,,,,,,,3,,,56,0
317760,set_tempo,60,1,0,,,,,,487804,,,,,,,
317760,note_off,60,0,4,,,,,,,,,3,,,49,0
317760,note_off,60,0,1,,,,,,,,,0,,,73,0
317760,note_on,0,0,4,,,,,,,,,3,,,49,37
317760,note_on,0,0,4,,,,,,,,,3,,,61,40
317880,note_on,0,0,4,,,,,,,,,3,,,56,40
317880,note_off,120,0,4,,,,,,,,,3,,,61,0
318000,note_off,120,0,4,,,,,,,,,3,,,56,0
318000,note_on,0,0,4,,,,,,,,,3,,,53,40
318120,note_off,120,0,4,,,,,,,,,3,,,53,0
318120,note_on,0,0,4,,,,,,,,,3,,,56,41
318240,note_off,480,0,1,,,,,,,,,0,,,73,0
318240,note_on,0,0,1,,,,,,,,,0,,,73,38
318240,note_on,0,0,4,,,,,,,,,3,,,61,41
318240,note_off,120,0,4,,,,,,,,,3,,,56,0
318360,note_on,0,0,1,,,,,,,,,0,,,75,38
318360,note_off,120,0,4,,,,,,,,,3,,,61,0
318360,note_off,120,0,1,,,,,,,,,0,,,73,0
318360,note_on,0,0,4,,,,,,,,,3,,,63,41
318480,note_on,0,0,4,,,,,,,,,3,,,65,42
318480,note_off,120,0,1,,,,,,,,,0,,,75,0
318480,note_on,0,0,1,,,,,,,,,0,,,77,39
318480,note_off,120,0,4,,,,,,,,,3,,,63,0
318600,note_on,0,0,4,,,,,,,,,3,,,67,42
318600,note_off,120,0,4,,,,,,,,,3,,,65,0
318600,note_on,0,0,1,,,,,,,,,0,,,79,39
318600,note_off,120,0,1,,,,,,,,,0,,,77,0
318682,set_tempo,922,1,0,,,,,,495867,,,,,,,
318720,set_tempo,38,1,0,,,,,,487804,,,,,,,
318720,note_off,120,0,1,,,,,,,,,0,,,79,0
318720,note_on,0,0,5,,,,,,,,,4,,,32,40
318720,note_on,0,0,1,,,,,,,,,0,,,80,40
318720,note_off,960,0,5,,,,,,,,,4,,,37,0
318720,note_off,120,0,4,,,,,,,,,3,,,67,0
318720,note_off,0,0,4,,,,,,,,,3,,,49,0
318720,note_on,0,0,4,,,,,,,,,3,,,68,42
318720,note_on,0,0,4,,,,,,,,,3,,,44,40
318840,note_off,120,0,4,,,,,,,,,3,,,68,0
318840,note_on,0,0,4,,,,,,,,,3,,,63,43
318960,note_on,0,0,4,,,,,,,,,3,,,60,43
318960,note_off,120,0,4,,,,,,,,,3,,,63,0
319080,note_on,0,0,4,,,,,,,,,3,,,63,43
319080,note_off,120,0,4,,,,,,,,,3,,,60,0
319200,note_off,480,0,5,,,,,,,,,4,,,32,0
319200,note_on,0,0,5,,,,,,,,,4,,,32,41
319200,note_on,0,0,4,,,,,,,,,3,,,44,41
319200,note_off,120,0,4,,,,,,,,,3,,,63,0
319200,note_off,0,0,4,,,,,,,,,3,,,44,0
319200,note_on,0,0,4,,,,,,,,,3,,,68,44
319200,note_off,480,0,1,,,,,,,,,0,,,80,0
319200,note_on,0,0,1,,,,,,,,,0,,,80,41
319320,note_off,120,0,4,,,,,,,,,3,,,68,0
319320,note_on,0,0,4,,,,,,,,,3,,,63,44
319440,note_off,120,0,4,,,,,,,,,3,,,63,0
319440,note_on,0,0,4,,,,,,,,,3,,,60,45
319560,note_off,360,0,1,,,,,,,,,0,,,80,0
319560,note_off,360,0,5,,,,,,,,,4,,,32,0
319560,note_off,120,0,4,,,,,,,,,3,,,60,0
319560,note_off,0,0,4,,,,,,,,,3,,,44,0
319560,note_on,0,0,4,,,,,,,,,3,,,63,45
319620,set_tempo,900,1,0,,,,,,495867,,,,,,,
319620,note_on,60,0,1,,,,,,,,,0,,,80,42
319620,note_on,60,0,4,,,,,,,,,3,,,44,42
319620,note_on,60,0,5,,,,,,,,,4,,,32,42
319680,note_off,60,0,5,,,,,,,,,4,,,32,0
319680,note_on,0,0,1,,,,,,,,,0,,,80,42
319680,note_off,60,0,1,,,,,,,,,0,,,80,0
319680,note_off,60,0,4,,,,,,,,,3,,,44,0
319680,note_on,0,0,5,,,,,,,,,4,,,32,42
319680,note_off,0,0,4,,,,,,,,,3,,,63,0
319680,note_on,0,0,4,,,,,,,,,3,,,44,42
319680,set_tempo,60,1,0,,,,,,487804,,,,,,,
319680,note_on,0,0,4,,,,,,,,,3,,,68,44
319800,note_on,0,0,4,,,,,,,,,3,,,63,46
319800,note_off,120,0,4,,,,,,,,,3,,,68,0
319920,note_off,120,0,4,,,,,,,,,3,,,63,0
319920,note_on,0,0,4,,,,,,,,,3,,,60,47
320040,note_off,120,0,4,,,,,,,,,3,,,60,0
320040,note_on,0,0,4,,,,,,,,,3,,,63,48
320160,note_off,120,0,4,,,,,,,,,3,,,63,0
320160,note_on,0,0,4,,,,,,,,,3,,,68,50
320160,note_off,480,0,1,,,,,,,,,0,,,80,0
320160,note_on,0,0,1,,,,,,,,,0,,,80,44
320280,note_off,120,0,4,,,,,,,,,3,,,68,0
320280,note_on,0,0,1,,,,,,,,,0,,,79,44
320280,note_off,120,0,1,,,,,,,,,0,,,80,0
320280,note_on,0,0,4,,,,,,,,,3,,,67,51
320400,note_off,120,0,1,,,,,,,,,0,,,79,0
320400,note_on,0,0,4,,,,,,,,,3,,,65,51
320400,note_off,120,0,4,,,,,,,,,3,,,67,0
320400,note_on,0,0,1,,,,,,,,,0,,,77,45
320520,note_off,120,0,1,,,,,,,,,0,,,77,0
320520,note_on,0,0,1,,,,,,,,,0,,,75,45
320520,note_on,0,0,4,,,,,,,,,3,,,63,55
320520,note_off,120,0,4,,,,,,,,,3,,,65,0
320580,set_tempo,900,1,0,,,,,,495867,,,,,,,
320640,note_off,960,0,5,,,,,,,,,4,,,32,0
320640,note_on,0,0,5,,,,,,,,,4,,,34,44
320640,note_on,0,0,4,,,,,,,,,3,,,53,44
320640,note_off,0,0,4,,,,,,,,,3,,,44,0
320640,note_off,120,0,4,,,,,,,,,3,,,63,0
320640,note_on,0,0,4,,,,,,,,,3,,,62,44
320640,note_on,0,0,4,,,,,,,,,3,,,56,44
320640,note_on,0,0,4,,,,,,,,,3,,,46,44
320640,note_on,4440,0,2,,,,,,,,,1,,,65,44
320640,set_tempo,60,1,0,,,,,,495867,,,,,,,
320640,note_off,120,0,1,,,,,,,,,0,,,75,0
320640,note_on,0,0,2,,,,,,,,,1,,,68,44
320640,note_on,0,0,1,,,,,,,,,0,,,74,44
321120,note_off,480,0,2,,,,,,,,,1,,,68,0
321120,note_off,480,0,5,,,,,,,,,4,,,34,0
321120,note_on,0,0,5,,,,,,,,,4,,,34,50
321120,note_on,0,0,2,,,,,,,,,1,,,68,50
321120,note_off,0,0,2,,,,,,,,,1,,,65,0
321120,note_on,0,0,1,,,,,,,,,0,,,74,50
321120,note_off,480,0,1,,,,,,,,,0,,,74,0
321120,note_on,0,0,2,,,,,,,,,1,,,65,50
321120,note_off,0,0,4,,,,,,,,,3,,,62,0
321120,note_on,0,0,4,,,,,,,,,3,,,46,50
321120,note_on,0,0,4,,,,,,,,,3,,,62,50
321120,note_on,0,0,4,,,,,,,,,3,,,53,50
321120,note_off,0,0,4,,,,,,,,,3,,,53,0
321120,note_off,0,0,4,,,,,,,,,3,,,56,0
321120,note_off,480,0,4,,,,,,,,,3,,,46,0
321120,note_on,0,0,4,,,,,,,,,3,,,56,50
321360,note_on,0,0,4,,,,,,,,,3,,,56,51
321360,note_off,240,0,1,,,,,,,,,0,,,74,0
321360,note_on,0,0,1,,,,,,,,,0,,,74,51
321360,note_off,240,0,4,,,,,,,,,3,,,46,0
321360,note_off,0,0,4,,,,,,,,,3,,,56,0
321360,note_off,0,0,4,,,,,,,,,3,,,62,0
321360,note_off,0,0,4,,,,,,,,,3,,,53,0
321360,note_off,240,0,5,,,,,,,,,4,,,34,0
321360,note_on,0,0,2,,,,,,,,,1,,,65,51
321360,note_on,0,0,2,,,,,,,,,1,,,68,51
321360,note_off,0,0,2,,,,,,,,,1,,,65,0
321360,note_off,240,0,2,,,,,,,,,1,,,68,0
321360,note_on,0,0,4,,,,,,,,,3,,,53,51
321360,note_on,0,0,4,,,,,,,,,3,,,62,51
321360,note_on,0,0,4,,,,,,,,,3,,,47,51
321360,note_on,0,0,5,,,,,,,,,4,,,35,51
321400,note_off,40,0,1,,,,,,,,,0,,,74,0
321400,note_on,0,0,1,,,,,,,,,0,,,75,53
321440,note_off,40,0,1,,,,,,,,,0,,,75,0
321440,note_on,0,0,1,,,,,,,,,0,,,74,54
321480,note_off,40,0,1,,,,,,,,,0,,,74,0
321480,note_on,0,0,1,,,,,,,,,0,,,72,55
321540,note_on,0,0,1,,,,,,,,,0,,,74,58
321540,note_off,60,0,1,,,,,,,,,0,,,72,0
321540,set_tempo,900,1,0,,,,,,500000,,,,,,,
321600,note_on,0,0,4,,,,,,,,,3,,,48,60
321600,note_off,240,0,5,,,,,,,,,4,,,35,0
321600,note_off,0,0,4,,,,,,,,,3,,,62,0
321600,note_on,0,0,2,,,,,,,,,1,,,67,60
321600,note_off,0,0,2,,,,,,,,,1,,,68,0
321600,note_off,240,0,2,,,,,,,,,1,,,65,0
321600,note_off,60,0,1,,,,,,,,,0,,,74,0
321600,note_on,0,0,4,,,,,,,,,3,,,51,60
321600,note_off,240,0,4,,,,,,,,,3,,,47,0
321600,note_off,0,0,4,,,,,,,,,3,,,53,0
321600,note_off,0,0,4,,,,,,,,,3,,,56,0
321600,note_on,0,0,5,,,,,,,,,4,,,36,60
321600,note_on,0,0,4,,,,,,,,,3,,,55,60
321600,note_on,0,0,4,,,,,,,,,3,,,63,60
321600,note_on,0,0,1,,,,,,,,,0,,,75,60
321600,set_tempo,60,1,0,,,,,,495867,,,,,,,
321720,note_off,120,0,1,,,,,,,,,0,,,75,0
321720,note_off,120,0,2,,,,,,,,,1,,,67,0
321840,note_on,0,0,5,,,,,,,,,4,,,36,59
321840,note_on,120,0,1,,,,,,,,,0,,,75,59
321840,note_on,0,0,4,,,,,,,,,3,,,48,59
321840,note_on,120,0,2,,,,,,,,,1,,,67,59
321840,note_on,0,0,4,,,,,,,,,3,,,63,59
321840,note_off,0,0,4,,,,,,,,,3,,,51,0
321840,note_off,0,0,4,,,,,,,,,3,,,63,0
321840,note_off,0,0,4,,,,,,,,,3,,,55,0
321840,note_off,240,0,4,,,,,,,,,3,,,48,0
321840,note_on,0,0,4,,,,,,,,,3,,,51,59
321840,note_off,240,0,5,,,,,,,,,4,,,36,0
321840,note_on,0,0,4,,,,,,,,,3,,,55,59
321960,note_off,120,0,5,,,,,,,,,4,,,36,0
321960,note_off,120,0,2,,,,,,,,,1,,,67,0
321960,note_off,0,0,4,,,,,,,,,3,,,51,0
321960,note_off,120,0,1,,,,,,,,,0,,,75,0
321960,note_off,120,0,4,,,,,,,,,3,,,48,0
321960,note_off,0,0,4,,,,,,,,,3,,,55,0
321960,note_off,0,0,4,,,,,,,,,3,,,63,0
322200,set_tempo,600,1,0,,,,,,500000,,,,,,,
322320,note_on,360,0,5,,,,,,,,,4,,,36,61
322320,set_tempo,120,1,0,,,,,,500000,,,,,,,
322320,note_on,360,0,1,,,,,,,,,0,,,75,61
322320,note_on,0,0,4,,,,,,,,,3,,,55,61
322320,note_on,0,0,4,,,,,,,,,3,,,48,61
322320,note_on,360,0,2,,,,,,,,,1,,,67,61
322320,note_on,360,0,4,,,,,,,,,3,,,51,61
322440,note_off,120,0,2,,,,,,,,,1,,,67,0
322440,note_off,0,0,4,,,,,,,,,3,,,55,0
322440,note_off,120,0,4,,,,,,,,,3,,,48,0
322440,note_off,120,0,1,,,,,,,,,0,,,75,0
322440,note_off,120,0,5,,,,,,,,,4,,,36,0
322440,note_off,0,0,4,,,,,,,,,3,,,51,0
322440,note_on,0,0,1,,,,,,,,,0,,,77,63
322560,set_tempo,240,1,0,,,,,,495867,,,,,,,
322560,note_on,0,0,1,,,,,,,,,0,,,79,66
322560,note_on,120,0,2,,,,,,,,,1,,,75,66
322560,note_on,0,0,2,,,,,,,,,1,,,67,66
322560,note_off,120,0,1,,,,,,,,,0,,,77,0
322560,note_on,0,0,2,,,,,,,,,1,,,63,66
322560,note_on,120,0,5,,,,,,,,,4,,,36,66
322560,note_on,0,0,4,,,,,,,,,3,,,55,66
322560,note_on,0,0,4,,,,,,,,,3,,,48,66
322560,note_on,120,0,4,,,,,,,,,3,,,51,66
322920,note_off,360,0,4,,,,,,,,,3,,,48,0
322920,note_off,0,0,4,,,,,,,,,3,,,55,0
322920,note_off,0,0,4,,,,,,,,,3,,,51,0
322920,note_off,360,0,5,,,,,,,,,4,,,36,0
322980,note_on,0,0,4,,,,,,,,,3,,,36,67
322980,note_on,0,0,4,,,,,,,,,3,,,48,67
322980,note_on,0,0,4,,,,,,,,,3,,,55,67
322980,note_on,60,0,4,,,,,,,,,3,,,51,67
323040,note_on,0,0,4,,,,,,,,,3,,,60,68
323040,note_on,0,0,4,,,,,,,,,3,,,41,68
323040,note_off,480,0,1,,,,,,,,,0,,,79,0
323040,note_off,0,0,4,,,,,,,,,3,,,36,0
323040,note_off,480,0,2,,,,,,,,,1,,,67,0
323040,note_off,0,0,2,,,,,,,,,1,,,63,0
323040,note_off,0,0,2,,,,,,,,,1,,,75,0
323040,note_on,0,0,2,,,,,,,,,1,,,75,68
323040,note_on,0,0,2,,,,,,,,,1,,,63,68
323040,note_on,0,0,2,,,,,,,,,1,,,69,68
323040,note_off,0,0,4,,,,,,,,,3,,,55,0
323040,note_off,60,0,4,,,,,,,,,3,,,48,0
323040,note_on,0,0,4,,,,,,,,,3,,,51,68
323040,note_on,0,0,1,,,,,,,,,0,,,81,68
323040,note_off,0,0,4,,,,,,,,,3,,,51,0
323040,note_on,120,0,5,,,,,,,,,4,,,29,68
323400,note_off,360,0,4,,,,,,,,,3,,,41,0
323400,note_off,360,0,5,,,,,,,,,4,,,29,0
323400,note_off,0,0,4,,,,,,,,,3,,,51,0
323400,note_off,0,0,4,,,,,,,,,3,,,60,0
323460,note_on,0,0,4,,,,,,,,,3,,,60,69
323460,note_on,60,0,4,,,,,,,,,3,,,51,69
323460,note_on,0,0,4,,,,,,,,,3,,,41,69
323460,set_tempo,900,1,0,,,,,,500000,,,,,,,
323460,note_on,60,0,5,,,,,,,,,4,,,29,69
323520,note_off,0,0,4,,,,,,,,,3,,,60,0
323520,note_on,6960,0,3,,,,,,,,,2,,,62,62
323520,note_on,0,0,3,,,,,,,,,2,,,70,62
323520,note_on,0,0,4,,,,,,,,,3,,,46,69
323520,set_tempo,60,1,0,,,,,,508474,,,,,,,
323520,note_off,0,0,4,,,,,,,,,3,,,51,0
323520,note_on,0,0,4,,,,,,,,,3,,,50,69
323520,note_on,0,0,4,,,,,,,,,3,,,58,69
323520,note_off,480,0,2,,,,,,,,,1,,,69,0
323520,note_off,0,0,2,,,,,,,,,1,,,63,0
323520,note_off,0,0,2,,,,,,,,,1,,,75,0
323520,note_on,0,0,2,,,,,,,,,1,,,74,73
323520,note_on,0,0,1,,,,,,,,,0,,,82,73
323520,note_off,480,0,1,,,,,,,,,0,,,81,0
323520,note_on,0,0,5,,,,,,,,,4,,,34,69
323520,note_off,60,0,5,,,,,,,,,4,,,29,0
323520,note_off,60,0,4,,,,,,,,,3,,,41,0
323600,note_off,80,0,3,,,,,,,,,2,,,70,0
323600,note_off,0,0,3,,,,,,,,,2,,,62,0
323600,note_on,0,0,3,,,,,,,,,2,,,62,62
323680,note_off,80,0,3,,,,,,,,,2,,,62,0
323680,note_on,0,0,3,,,,,,,,,2,,,65,63
323760,note_on,0,0,4,,,,,,,,,3,,,53,70
323760,note_off,240,0,5,,,,,,,,,4,,,34,0
323760,note_on,0,0,3,,,,,,,,,2,,,70,63
323760,note_off,0,0,4,,,,,,,,,3,,,58,0
323760,note_on,0,0,5,,,,,,,,,4,,,41,70
323760,note_off,0,0,4,,,,,,,,,3,,,46,0
323760,note_off,240,0,4,,,,,,,,,3,,,50,0
323760,note_off,80,0,3,,,,,,,,,2,,,65,0
323760,set_tempo,240,1,0,,,,,,495867,,,,,,,
323840,note_off,80,0,3,,,,,,,,,2,,,70,0
323840,note_on,0,0,3,,,,,,,,,2,,,65,63
323920,note_on,0,0,3,,,,,,,,,2,,,62,64
323920,note_off,80,0,3,,,,,,,,,2,,,65,0
323940,note_on,0,0,5,,,,,,,,,4,,,38,71
323940,note_off,180,0,5,,,,,,,,,4,,,41,0
323940,note_on,0,0,4,,,,,,,,,3,,,50,71
323940,note_off,180,0,4,,,,,,,,,3,,,53,0
324000,note_off,480,0,1,,,,,,,,,0,,,82,0
324000,note_off,480,0,2,,,,,,,,,1,,,74,0
324000,note_off,60,0,5,,,,,,,,,4,,,38,0
324000,note_on,0,0,3,,,,,,,,,2,,,58,64
324000,note_off,80,0,3,,,,,,,,,2,,,62,0
324000,note_on,0,0,5,,,,,,,,,4,,,34,71
324000,note_off,60,0,4,,,,,,,,,3,,,50,0
324000,note_on,0,0,4,,,,,,,,,3,,,46,71
324080,note_off,80,0,3,,,,,,,,,2,,,58,0
324080,note_on,0,0,3,,,,,,,,,2,,,63,64
324160,note_on,0,0,3,,,,,,,,,2,,,67,65
324160,note_off,80,0,3,,,,,,,,,2,,,63,0
324240,note_on,0,0,3,,,,,,,,,2,,,70,65
324240,note_on,240,0,1,,,,,,,,,0,,,82,85
324240,note_off,80,0,3,,,,,,,,,2,,,67,0
324240,note_on,0,0,4,,,,,,,,,3,,,44,72
324240,note_on,0,0,5,,,,,,,,,4,,,32,72
324240,note_off,240,0,5,,,,,,,,,4,,,34,0
324240,note_off,240,0,4,,,,,,,,,3,,,46,0
324320,note_on,0,0,3,,,,,,,,,2,,,67,65
324320,note_off,80,0,3,,,,,,,,,2,,,70,0
324400,note_on,0,0,3,,,,,,,,,2,,,63,66
324400,note_off,80,0,3,,,,,,,,,2,,,67,0
324420,set_tempo,660,1,0,,,,,,500000,,,,,,,
324480,note_off,80,0,3,,,,,,,,,2,,,63,0
324480,note_on,240,0,5,,,,,,,,,4,,,31,73
324480,set_tempo,60,1,0,,,,,,495867,,,,,,,
324480,note_on,0,0,4,,,,,,,,,3,,,43,73
324480,note_off,240,0,4,,,,,,,,,3,,,44,0
324480,note_on,0,0,3,,,,,,,,,2,,,58,66
324495,note_off,15,0,5,,,,,,,,,4,,,32,0
324560,note_off,80,0,3,,,,,,,,,2,,,58,0
324560,note_on,0,0,3,,,,,,,,,2,,,63,66
324640,note_off,80,0,3,,,,,,,,,2,,,63,0
324640,note_on,0,0,3,,,,,,,,,2,,,67,66
324720,note_on,0,0,1,,,,,,,,,0,,,87,77
324720,note_off,240,0,4,,,,,,,,,3,,,43,0
324720,note_off,80,0,3,,,,,,,,,2,,,67,0
324720,note_on,0,0,3,,,,,,,,,2,,,58,67
324720,note_off,480,0,1,,,,,,,,,0,,,82,0
324720,note_off,225,0,5,,,,,,,,,4,,,31,0
324800,note_off,80,0,3,,,,,,,,,2,,,58,0
324800,note_on,0,0,3,,,,,,,,,2,,,63,67
324880,note_off,80,0,3,,,,,,,,,2,,,63,0
324880,note_on,0,0,3,,,,,,,,,2,,,67,67
324900,note_off,180,0,1,,,,,,,,,0,,,87,0
324900,note_on,0,0,1,,,,,,,,,0,,,82,78
324960,note_off,80,0,3,,,,,,,,,2,,,67,0
324960,note_off,60,0,1,,,,,,,,,0,,,82,0
324960,note_on,0,0,1,,,,,,,,,0,,,79,78
324960,note_on,0,0,3,,,,,,,,,2,,,58,68
325040,note_off,80,0,3,,,,,,,,,2,,,58,0
325040,note_on,0,0,3,,,,,,,,,2,,,62,68
325120,note_off,80,0,3,,,,,,,,,2,,,62,0
325120,note_on,0,0,3,,,,,,,,,2,,,65,68
325200,note_on,480,0,5,,,,,,,,,4,,,39,76
325200,note_on,480,0,4,,,,,,,,,3,,,51,76
325200,note_off,240,0,1,,,,,,,,,0,,,79,0
325200,note_on,0,0,1,,,,,,,,,0,,,75,79
325200,note_on,0,0,3,,,,,,,,,2,,,70,69
325200,note_off,80,0,3,,,,,,,,,2,,,65,0
325280,note_on,0,0,3,,,,,,,,,2,,,65,69
325280,note_off,80,0,3,,,,,,,,,2,,,70,0
325320,note_on,0,0,5,,,,,,,,,4,,,41,76
325320,note_on,0,0,4,,,,,,,,,3,,,53,77
325320,note_off,120,0,4,,,,,,,,,3,,,51,0
325320,note_off,120,0,5,,,,,,,,,4,,,39,0
325360,note_off,80,0,3,,,,,,,,,2,,,65,0
325360,note_on,0,0,3,,,,,,,,,2,,,62,69
325380,note_off,60,0,5,,,,,,,,,4,,,41,0
325380,set_tempo,900,1,0,,,,,,500000,,,,,,,
325380,note_on,0,0,4,,,,,,,,,3,,,55,77
325380,note_off,60,0,4,,,,,,,,,3,,,53,0
325380,note_on,0,0,5,,,,,,,,,4,,,43,77
325440,note_on,0,0,3,,,,,,,,,2,,,58,70
325440,note_off,80,0,3,,,,,,,,,2,,,62,0
325440,note_on,0,0,5,,,,,,,,,4,,,44,77
325440,note_off,240,0,1,,,,,,,,,0,,,75,0
325440,set_tempo,60,1,0,,,,,,495867,,,,,,,
325440,note_on,0,0,1,,,,,,,,,0,,,70,80
325440,note_off,60,0,5,,,,,,,,,4,,,43,0
325440,note_off,60,0,4,,,,,,,,,3,,,55,0
325440,note_on,0,0,4,,,,,,,,,3,,,56,77
325520,note_off,80,0,3,,,,,,,,,2,,,58,0
325520,note_on,0,0,3,,,,,,,,,2,,,62,70
325600,note_off,80,0,3,,,,,,,,,2,,,62,0
325600,note_on,0,0,3,,,,,,,,,2,,,65,70
325680,note_off,240,0,4,,,,,,,,,3,,,56,0
325680,note_off,240,0,1,,,,,,,,,0,,,70,0
325680,note_on,0,0,3,,,,,,,,,2,,,70,70
325680,note_on,0,0,4,,,,,,,,,3,,,53,78
325680,note_off,240,0,5,,,,,,,,,4,,,44,0
325680,note_on,0,0,5,,,,,,,,,4,,,41,78
325680,note_off,80,0,3,,,,,,,,,2,,,65,0
325760,note_off,80,0,3,,,,,,,,,2,,,70,0
325760,note_on,0,0,3,,,,,,,,,2,,,65,71
325800,note_off,120,0,5,,,,,,,,,4,,,41,0
325800,note_off,120,0,4,,,,,,,,,3,,,53,0
325840,note_off,80,0,3,,,,,,,,,2,,,65,0
325840,note_on,0,0,3,,,,,,,,,2,,,62,71
325860,note_on,60,0,5,,,,,,,,,4,,,38,79
325860,note_on,60,0,4,,,,,,,,,3,,,50,79
325920,note_off,60,0,4,,,,,,,,,3,,,50,0
325920,note_off,80,0,3,,,,,,,,,2,,,62,0
325920,note_on,0,0,3,,,,,,,,,2,,,58,71
325920,note_off,60,0,5,,,,,,,,,4,,,38,0
325920,note_on,0,0,5,,,,,,,,,4,,,34,79
325920,note_on,0,0,4,,,,,,,,,3,,,46,79
326000,note_off,80,0,3,,,,,,,,,2,,,58,0
326000,note_on,0,0,3,,,,,,,,,2,,,62,72
326080,note_off,80,0,3,,,,,,,,,2,,,62,0
326080,note_on,0,0,3,,,,,,,,,2,,,65,72
326160,note_off,80,0,3,,,,,,,,,2,,,65,0
326160,note_off,240,0,4,,,,,,,,,3,,,46,0
326160,note_on,0,0,4,,,,,,,,,3,,,44,80
326160,note_off,240,0,5,,,,,,,,,4,,,34,0
326160,note_on,480,0,1,,,,,,,,,0,,,82,93
326160,note_on,0,0,5,,,,,,,,,4,,,32,80
326160,note_on,0,0,3,,,,,,,,,2,,,70,72
326240,note_off,80,0,3,,,,,,,,,2,,,70,0
326240,note_on,0,0,3,,,,,,,,,2,,,65,73
326320,note_off,80,0,3,,,,,,,,,2,,,65,0
326320,note_on,0,0,3,,,,,,,,,2,,,62,73
326340,set_tempo,900,1,0,,,,,,500000,,,,,,,
326400,note_on,0,0,5,,,,,,,,,4,,,31,81
326400,set_tempo,60,1,0,,,,,,517241,,,,,,,
326400,note_on,0,0,4,,,,,,,,,3,,,43,81
326400,note_off,240,0,4,,,,,,,,,3,,,44,0
326400,note_off,240,0,5,,,,,,,,,4,,,32,0
326400,note_on,0,0,3,,,,,,,,,2,,,63,73
326400,note_off,80,0,3,,,,,,,,,2,,,62,0
326480,note_off,80,0,3,,,,,,,,,2,,,63,0
326480,note_on,0,0,3,,,,,,,,,2,,,67,74
326560,note_on,0,0,3,,,,,,,,,2,,,70,74
326560,note_off,80,0,3,,,,,,,,,2,,,67,0
326640,note_on,0,0,1,,,,,,,,,0,,,87,83
326640,note_off,240,0,5,,,,,,,,,4,,,31,0
326640,note_on,0,0,5,,,,,,,,,4,,,51,83
326640,note_off,240,0,4,,,,,,,,,3,,,43,0
326640,note_on,0,0,4,,,,,,,,,3,,,63,83
326640,note_off,480,0,1,,,,,,,,,0,,,82,0
326640,note_on,2640,0,2,,,,,,,,,1,,,75,83
326640,note_off,80,0,3,,,,,,,,,2,,,70,0
326647,set_tempo,247,1,0,,,,,,495867,,,,,,,
326820,note_off,180,0,4,,,,,,,,,3,,,63,0
326820,note_on,0,0,4,,,,,,,,,3,,,58,81
326820,note_on,0,0,5,,,,,,,,,4,,,46,81
326820,note_off,180,0,5,,,,,,,,,4,,,51,0
326820,note_off,180,0,1,,,,,,,,,0,,,87,0
326820,note_on,0,0,1,,,,,,,,,0,,,82,81
326820,note_off,180,0,2,,,,,,,,,1,,,75,0
326820,note_on,0,0,2,,,,,,,,,1,,,70,81
326880,note_on,0,0,5,,,,,,,,,4,,,43,80
326880,note_off,60,0,5,,,,,,,,,4,,,46,0
326880,note_off,60,0,4,,,,,,,,,3,,,58,0
326880,note_off,60,0,1,,,,,,,,,0,,,82,0
326880,note_on,0,0,1,,,,,,,,,0,,,79,80
326880,note_on,0,0,4,,,,,,,,,3,,,55,80
326880,note_off,60,0,2,,,,,,,,,1,,,70,0
326880,note_on,0,0,2,,,,,,,,,1,,,67,80
327000,note_off,120,0,2,,,,,,,,,1,,,67,0
327000,note_off,120,0,1,,,,,,,,,0,,,79,0
327000,note_off,120,0,5,,,,,,,,,4,,,43,0
327000,note_off,120,0,4,,,,,,,,,3,,,55,0
327120,note_on,120,0,5,,,,,,,,,4,,,39,78
327120,note_on,120,0,2,,,,,,,,,1,,,63,78
327120,note_on,120,0,4,,,,,,,,,3,,,51,78
327120,note_on,120,0,1,,,,,,,,,0,,,75,78
327240,note_off,120,0,5,,,,,,,,,4,,,39,0
327240,note_off,120,0,1,,,,,,,,,0,,,75,0
327240,note_off,120,0,4,,,,,,,,,3,,,51,0
327240,note_off,120,0,2,,,,,,,,,1,,,63,0
327300,set_tempo,653,1,0,,,,,,517241,,,,,,,
327360,note_on,120,0,2,,,,,,,,,1,,,58,65
327360,note_on,120,0,4,,,,,,,,,3,,,46,65
327360,note_on,120,0,5,,,,,,,,,4,,,34,65
327360,note_on,120,0,1,,,,,,,,,0,,,70,65
327600,note_off,240,0,1,,,,,,,,,0,,,70,0
327600,note_off,240,0,2,,,,,,,,,1,,,58,0
327600,note_off,240,0,5,,,,,,,,,4,,,34,0
327600,note_off,240,0,4,,,,,,,,,3,,,46,0
327600,note_on,0,0,4,,,,,,,,,3,,,58,30
327600,note_on,0,0,4,,,,,,,,,3,,,50,30
327600,note_on,0,0,4,,,,,,,,,3,,,53,30
327600,set_tempo,300,1,0,,,,,,582524,,,,,,,
327720,set_tempo,120,1,0,,,,,,500000,,,,,,,
327720,note_on,120,0,1,,,,,,,,,0,,,69,31
327840,note_off,240,0,4,,,,,,,,,3,,,53,0
327840,note_on,0,0,1,,,,,,,,,0,,,70,32
327840,note_on,0,0,4,,,,,,,,,3,,,46,32
327840,note_off,120,0,1,,,,,,,,,0,,,69,0
327840,note_off,0,0,4,,,,,,,,,3,,,50,0
327840,note_off,0,0,4,,,,,,,,,3,,,58,0
327840,note_on,240,0,5,,,,,,,,,4,,,34,32
328080,note_on,0,0,4,,,,,,,,,3,,,50,34
328080,note_on,0,0,4,,,,,,,,,3,,,53,34
328080,note_on,0,0,4,,,,,,,,,3,,,58,34
328080,note_off,240,0,4,,,,,,,,,3,,,46,0
328080,note_off,240,0,5,,,,,,,,,4,,,34,0
328200,note_on,0,0,1,,,,,,,,,0,,,69,34
328200,note_off,360,0,1,,,,,,,,,0,,,70,0
328207,set_tempo,487,1,0,,,,,,517241,,,,,,,
328320,note_off,120,0,1,,,,,,,,,0,,,69,0
328320,note_on,0,0,1,,,,,,,,,0,,,70,35
328320,note_on,240,0,5,,,,,,,,,4,,,34,35
328320,note_off,240,0,4,,,,,,,,,3,,,50,0
328320,note_off,0,0,4,,,,,,,,,3,,,53,0
328320,note_off,0,0,4,,,,,,,,,3,,,58,0
328320,note_on,0,0,4,,,,,,,,,3,,,46,35
328320,set_tempo,113,1,0,,,,,,500000,,,,,,,
328440,note_on,0,0,1,,,,,,,,,0,,,69,36
328440,note_off,120,0,1,,,,,,,,,0,,,70,0
328560,note_off,240,0,5,,,,,,,,,4,,,34,0
328560,note_on,0,0,4,,,,,,,,,3,,,53,37
328560,note_on,0,0,4,,,,,,,,,3,,,50,37
328560,note_on,0,0,4,,,,,,,,,3,,,58,37
328560,note_off,240,0,4,,,,,,,,,3,,,46,0
328560,note_off,120,0,1,,,,,,,,,0,,,69,0
328560,note_on,0,0,1,,,,,,,,,0,,,70,37
328680,note_off,120,0,1,,,,,,,,,0,,,70,0
328680,note_on,0,0,1,,,,,,,,,0,,,69,38
328800,note_off,240,0,4,,,,,,,,,3,,,53,0
328800,note_off,0,0,4,,,,,,,,,3,,,50,0
328800,note_off,0,0,4,,,,,,,,,3,,,58,0
328800,note_on,0,0,1,,,,,,,,,0,,,70,39
328800,note_off,120,0,1,,,,,,,,,0,,,69,0
328920,note_off,120,0,1,,,,,,,,,0,,,70,0
328920,note_on,0,0,1,,,,,,,,,0,,,72,39
329040,note_off,120,0,1,,,,,,,,,0,,,72,0
329040,note_on,0,0,1,,,,,,,,,0,,,74,40
329160,note_off,120,0,1,,,,,,,,,0,,,74,0
329160,note_on,0,0,1,,,,,,,,,0,,,75,41
329220,set_tempo,900,1,0,,,,,,508474,,,,,,,
329280,note_on,0,0,1,,,,,,,,,0,,,77,42
329280,note_off,120,0,1,,,,,,,,,0,,,75,0
329400,note_off,120,0,1,,,,,,,,,0,,,77,0
329400,note_on,0,0,1,,,,,,,,,0,,,73,43
329520,note_off,120,0,1,,,,,,,,,0,,,73,0
329520,note_on,0,0,1,,,,,,,,,0,,,74,44
329640,note_off,120,0,1,,,,,,,,,0,,,74,0
329640,note_on,0,0,1,,,,,,,,,0,,,76,44
329700,set_tempo,480,1,0,,,,,,517241,,,,,,,
329760,note_on,0,0,1,,,,,,,,,0,,,77,47
329760,note_off,120,0,1,,,,,,,,,0,,,76,0
329820,set_tempo,120,1,0,,,,,,526315,,,,,,,
329880,note_on,1080,0,4,,,,,,,,,3,,,46,45
329880,note_on,0,0,1,,,,,,,,,0,,,79,45
329880,note_off,120,0,1,,,,,,,,,0,,,77,0
329946,set_tempo,126,1,0,,,,,,535714,,,,,,,
330000,note_on,0,0,4,,,,,,,,,3,,,48,43
330000,note_off,120,0,4,,,,,,,,,3,,,46,0
330000,note_on,0,0,1,,,,,,,,,0,,,80,43
330000,note_off,120,0,1,,,,,,,,,0,,,79,0
330070,set_tempo,124,1,0,,,,,,638297,,,,,,,
330120,note_off,120,0,4,,,,,,,,,3,,,48,0
330120,note_on,0,0,4,,,,,,,,,3,,,50,41
330120,set_tempo,50,1,0,,,,,,731707,,,,,,,
330120,note_off,120,0,1,,,,,,,,,0,,,80,0
330120,note_on,0,0,1,,,,,,,,,0,,,77,41
330240,note_off,120,0,4,,,,,,,,,3,,,50,0
330240,note_on,0,0,1,,,,,,,,,0,,,75,42
330240,note_on,0,0,4,,,,,,,,,3,,,51,42
330240,note_on,1680,0,5,,,,,,,,,4,,,39,42
330240,note_on,2640,0,2,,,,,,,,,1,,,63,42
330240,set_tempo,120,1,0,,,,,,487804,,,,,,,
330240,note_off,120,0,1,,,,,,,,,0,,,77,0
330318,note_off,78,0,2,,,,,,,,,1,,,63,0
330360,note_on,42,0,2,,,,,,,,,1,,,58,42
330438,note_off,78,0,2,,,,,,,,,1,,,58,0
330480,note_on,42,0,2,,,,,,,,,1,,,55,43
330480,note_off,240,0,5,,,,,,,,,4,,,39,0
330480,note_off,240,0,4,,,,,,,,,3,,,51,0
330480,note_on,0,0,4,,,,,,,,,3,,,51,43
330480,note_on,0,0,4,,,,,,,,,3,,,43,43
330480,note_on,0,0,4,,,,,,,,,3,,,46,43
330558,note_off,78,0,2,,,,,,,,,1,,,55,0
330600,note_on,42,0,2,,,,,,,,,1,,,58,43
330678,note_off,78,0,2,,,,,,,,,1,,,58,0
330720,note_off,0,0,4,,,,,,,,,3,,,51,0
330720,note_off,480,0,1,,,,,,,,,0,,,75,0
330720,note_off,240,0,4,,,,,,,,,3,,,46,0
330720,note_off,0,0,4,,,,,,,,,3,,,43,0
330720,note_on,42,0,2,,,,,,,,,1,,,63,44
330720,note_on,0,0,1,,,,,,,,,0,,,75,44
330720,note_on,240,0,5,,,,,,,,,4,,,39,44
330798,note_off,78,0,2,,,,,,,,,1,,,63,0
330840,note_on,42,0,2,,,,,,,,,1,,,58,44
330918,note_off,78,0,2,,,,,,,,,1,,,58,0
330960,note_on,42,0,2,,,,,,,,,1,,,55,45
330960,note_on,0,0,4,,,,,,,,,3,,,43,45
330960,note_on,240,0,4,,,,,,,,,3,,,51,45
330960,note_off,240,0,5,,,,,,,,,4,,,39,0
330960,note_on,0,0,4,,,,,,,,,3,,,46,45
331038,note_off,78,0,2,,,,,,,,,1,,,55,0
331080,note_on,42,0,2,,,,,,,,,1,,,58,45
331080,note_off,360,0,1,,,,,,,,,0,,,75,0
331140,note_on,60,0,1,,,,,,,,,0,,,75,45
331140,set_tempo,900,1,0,,,,,,495867,,,,,,,
331158,note_off,78,0,2,,,,,,,,,1,,,58,0
331200,note_off,0,0,4,,,,,,,,,3,,,43,0
331200,note_on,42,0,2,,,,,,,,,1,,,63,46
331200,note_off,240,0,4,,,,,,,,,3,,,46,0
331200,set_tempo,60,1,0,,,,,,487804,,,,,,,
331200,note_off,0,0,4,,,,,,,,,3,,,51,0
331200,note_off,60,0,1,,,,,,,,,0,,,75,0
331200,note_on,0,0,1,,,,,,,,,0,,,75,46
331278,note_off,78,0,2,,,,,,,,,1,,,63,0
331320,note_on,42,0,2,,,,,,,,,1,,,58,46
331398,note_off,78,0,2,,,,,,,,,1,,,58,0
331440,note_on,240,0,4,,,,,,,,,3,,,51,47
331440,note_on,42,0,2,,,,,,,,,1,,,55,47
331440,note_on,480,0,5,,,,,,,,,4,,,39,47
331518,note_off,78,0,2,,,,,,,,,1,,,55,0
331560,note_on,42,0,2,,,,,,,,,1,,,58,47
331638,note_off,78,0,2,,,,,,,,,1,,,58,0
331640,note_on,440,0,1,,,,,,,,,0,,,77,47
331680,note_on,42,0,2,,,,,,,,,1,,,63,47
331680,note_off,240,0,4,,,,,,,,,3,,,51,0
331680,note_on,0,0,4,,,,,,,,,3,,,55,47
331680,note_off,240,0,5,,,,,,,,,4,,,39,0
331680,note_on,0,0,1,,,,,,,,,0,,,75,47
331680,note_off,40,0,1,,,,,,,,,0,,,77,0
331680,note_off,0,0,1,,,,,,,,,0,,,75,0
331680,note_on,0,0,5,,,,,,,,,4,,,43,47
331758,note_off,78,0,2,,,,,,,,,1,,,63,0
331800,note_off,120,0,1,,,,,,,,,0,,,75,0
331800,note_on,42,0,2,,,,,,,,,1,,,58,48
331800,note_on,0,0,1,,,,,,,,,0,,,74,48
331878,note_off,78,0,2,,,,,,,,,1,,,58,0
331920,note_on,0,0,4,,,,,,,,,3,,,51,48
331920,note_off,240,0,5,,,,,,,,,4,,,43,0
331920,note_on,0,0,5,,,,,,,,,4,,,39,48
331920,note_off,240,0,4,,,,,,,,,3,,,55,0
331920,note_on,0,0,1,,,,,,,,,0,,,75,48
331920,note_off,120,0,1,,,,,,,,,0,,,74,0
331920,note_on,42,0,2,,,,,,,,,1,,,63,48
331998,note_off,78,0,2,,,,,,,,,1,,,63,0
332040,note_on,0,0,1,,,,,,,,,0,,,79,49
332040,note_on,42,0,2,,,,,,,,,1,,,67,49
332040,note_off,120,0,1,,,,,,,,,0,,,75,0
332047,set_tempo,847,1,0,,,,,,500000,,,,,,,
332118,note_off,78,0,2,,,,,,,,,1,,,67,0
332160,note_on,0,0,4,,,,,,,,,3,,,46,49
332160,note_off,240,0,5,,,,,,,,,4,,,39,0
332160,note_on,0,0,5,,,,,,,,,4,,,34,49
332160,note_on,42,0,2,,,,,,,,,1,,,65,49
332160,note_off,120,0,1,,,,,,,,,0,,,79,0
332160,note_on,0,0,1,,,,,,,,,0,,,77,49
332160,set_tempo,113,1,0,,,,,,487804,,,,,,,
332160,note_off,240,0,4,,,,,,,,,3,,,51,0
332238,note_off,78,0,2,,,,,,,,,1,,,65,0
332280,note_on,42,0,2,,,,,,,,,1,,,62,50
332358,note_off,78,0,2,,,,,,,,,1,,,62,0
332400,note_on,0,0,4,,,,,,,,,3,,,53,50
332400,note_off,240,0,5,,,,,,,,,4,,,34,0
332400,note_on,42,0,2,,,,,,,,,1,,,58,50
332400,note_off,240,0,4,,,,,,,,,3,,,46,0
332400,note_on,0,0,4,,,,,,,,,3,,,50,50
332400,note_on,0,0,4,,,,,,,,,3,,,46,50
332478,note_off,78,0,2,,,,,,,,,1,,,58,0
332520,note_on,42,0,2,,,,,,,,,1,,,62,51
332598,note_off,78,0,2,,,,,,,,,1,,,62,0
332640,note_on,0,0,1,,,,,,,,,0,,,77,51
332640,note_on,240,0,5,,,,,,,,,4,,,34,51
332640,note_off,0,0,4,,,,,,,,,3,,,46,0
332640,note_off,0,0,4,,,,,,,,,3,,,50,0
332640,note_on,42,0,2,,,,,,,,,1,,,65,51
332640,note_off,480,0,1,,,,,,,,,0,,,77,0
332640,note_off,240,0,4,,,,,,,,,3,,,53,0
332718,note_off,78,0,2,,,,,,,,,1,,,65,0
332760,note_on,42,0,2,,,,,,,,,1,,,62,52
332838,note_off,78,0,2,,,,,,,,,1,,,62,0
332880,note_on,240,0,4,,,,,,,,,3,,,46,52
332880,note_on,0,0,4,,,,,,,,,3,,,50,52
332880,note_on,42,0,2,,,,,,,,,1,,,58,52
332880,note_off,240,0,5,,,,,,,,,4,,,34,0
332880,note_on,0,0,4,,,,,,,,,3,,,53,52
332958,note_off,78,0,2,,,,,,,,,1,,,58,0
333000,note_off,360,0,1,,,,,,,,,0,,,77,0
333000,note_on,42,0,2,,,,,,,,,1,,,62,53
333060,set_tempo,900,1,0,,,,,,495867,,,,,,,
333060,note_on,60,0,1,,,,,,,,,0,,,77,53
333078,note_off,78,0,2,,,,,,,,,1,,,62,0
333120,note_off,240,0,4,,,,,,,,,3,,,50,0
333120,note_on,0,0,1,,,,,,,,,0,,,77,53
333120,note_off,0,0,4,,,,,,,,,3,,,53,0
333120,note_off,0,0,4,,,,,,,,,3,,,46,0
333120,set_tempo,60,1,0,,,,,,487804,,,,,,,
333120,note_off,60,0,1,,,,,,,,,0,,,77,0
333120,note_on,42,0,2,,,,,,,,,1,,,65,53
333198,note_off,78,0,2,,,,,,,,,1,,,65,0
333240,note_on,42,0,2,,,,,,,,,1,,,62,54
333318,note_off,78,0,2,,,,,,,,,1,,,62,0
333360,note_on,42,0,2,,,,,,,,,1,,,58,54
333360,note_on,240,0,4,,,,,,,,,3,,,46,54
333360,note_on,480,0,5,,,,,,,,,4,,,34,54
333438,note_off,78,0,2,,,,,,,,,1,,,58,0
333480,note_on,42,0,2,,,,,,,,,1,,,62,54
333558,note_off,78,0,2,,,,,,,,,1,,,62,0
333560,note_on,440,0,1,,,,,,,,,0,,,79,55
333600,note_on,0,0,1,,,,,,,,,0,,,77,55
333600,note_off,240,0,4,,,,,,,,,3,,,46,0
333600,note_on,0,0,4,,,,,,,,,3,,,50,55
333600,note_off,240,0,5,,,,,,,,,4,,,34,0
333600,note_on,0,0,5,,,,,,,,,4,,,38,55
333600,note_off,0,0,1,,,,,,,,,0,,,77,0
333600,note_off,40,0,1,,,,,,,,,0,,,79,0
333600,note_on,42,0,2,,,,,,,,,1,,,65,55
333720,note_on,0,0,2,,,,,,,,,1,,,64,55
333720,note_off,120,0,2,,,,,,,,,1,,,65,0
333720,note_on,0,0,1,,,,,,,,,0,,,76,55
333720,note_off,120,0,1,,,,,,,,,0,,,77,0
333840,note_off,120,0,2,,,,,,,,,1,,,64,0
333840,note_off,120,0,1,,,,,,,,,0,,,76,0
333840,note_on,0,0,1,,,,,,,,,0,,,77,56
333840,note_on,0,0,5,,,,,,,,,4,,,34,56
333840,note_off,240,0,5,,,,,,,,,4,,,38,0
333840,note_on,0,0,4,,,,,,,,,3,,,46,56
333840,note_off,240,0,4,,,,,,,,,3,,,50,0
333840,note_on,0,0,2,,,,,,,,,1,,,65,56
333960,note_off,120,0,1,,,,,,,,,0,,,77,0
333960,note_off,120,0,2,,,,,,,,,1,,,65,0
333960,note_on,0,0,2,,,,,,,,,1,,,68,56
333960,note_on,0,0,1,,,,,,,,,0,,,80,56
333982,set_tempo,862,1,0,,,,,,500000,,,,,,,
334080,set_tempo,98,1,0,,,,,,487804,,,,,,,
334080,note_off,120,0,1,,,,,,,,,0,,,80,0
334080,note_on,0,0,1,,,,,,,,,0,,,79,57
334080,note_off,120,0,2,,,,,,,,,1,,,68,0
334080,note_on,0,0,2,,,,,,,,,1,,,67,57
334080,note_off,240,0,5,,,,,,,,,4,,,34,0
334080,note_on,0,0,5,,,,,,,,,4,,,39,57
334080,note_off,240,0,4,,,,,,,,,3,,,46,0
334080,note_on,0,0,4,,,,,,,,,3,,,51,57
334158,note_off,78,0,5,,,,,,,,,4,,,39,0
334158,note_off,78,0,4,,,,,,,,,3,,,51,0
334176,note_off,96,0,1,,,,,,,,,0,,,79,0
334176,note_off,96,0,2,,,,,,,,,1,,,67,0
334200,note_on,24,0,2,,,,,,,,,1,,,70,57
334200,note_on,42,0,5,,,,,,,,,4,,,34,57
334200,note_on,42,0,4,,,,,,,,,3,,,46,57
334200,note_on,24,0,1,,,,,,,,,0,,,82,57
334278,note_off,78,0,4,,,,,,,,,3,,,46,0
334278,note_off,78,0,5,,,,,,,,,4,,,34,0
334296,note_off,96,0,2,,,,,,,,,1,,,70,0
334296,note_off,96,0,1,,,,,,,,,0,,,82,0
334320,note_on,42,0,5,,,,,,,,,4,,,31,58
334320,note_on,24,0,2,,,,,,,,,1,,,70,58
334320,note_on,42,0,4,,,,,,,,,3,,,43,58
334320,note_on,24,0,1,,,,,,,,,0,,,82,58
334398,note_off,78,0,4,,,,,,,,,3,,,43,0
334398,note_off,78,0,5,,,,,,,,,4,,,31,0
334416,note_off,96,0,2,,,,,,,,,1,,,70,0
334416,note_off,96,0,1,,,,,,,,,0,,,82,0
334440,note_on,42,0,5,,,,,,,,,4,,,34,58
334440,note_on,42,0,4,,,,,,,,,3,,,46,58
334440,note_on,24,0,1,,,,,,,,,0,,,82,58
334440,note_on,24,0,2,,,,,,,,,1,,,70,58
334518,note_off,78,0,5,,,,,,,,,4,,,34,0
334518,note_off,78,0,4,,,,,,,,,3,,,46,0
334536,note_off,96,0,2,,,,,,,,,1,,,70,0
334536,note_off,96,0,1,,,,,,,,,0,,,82,0
334560,note_on,42,0,5,,,,,,,,,4,,,39,59
334560,note_on,24,0,1,,,,,,,,,0,,,82,59
334560,note_on,24,0,2,,,,,,,,,1,,,70,59
334560,note_on,42,0,4,,,,,,,,,3,,,51,59
334638,note_off,78,0,4,,,,,,,,,3,,,51,0
334638,note_off,78,0,5,,,,,,,,,4,,,39,0
334656,note_off,96,0,1,,,,,,,,,0,,,82,0
334656,note_off,96,0,2,,,,,,,,,1,,,70,0
334680,note_on,24,0,1,,,,,,,,,0,,,82,59
334680,note_on,24,0,2,,,,,,,,,1,,,70,59
334680,note_on,42,0,5,,,,,,,,,4,,,34,59
334680,note_on,42,0,4,,,,,,,,,3,,,46,59
334758,note_off,78,0,4,,,,,,,,,3,,,46,0
334758,note_off,78,0,5,,,,,,,,,4,,,34,0
334776,note_off,96,0,1,,,,,,,,,0,,,82,0
334776,note_off,96,0,2,,,,,,,,,1,,,70,0
334800,note_on,42,0,5,,,,,,,,,4,,,31,60
334800,note_on,24,0,1,,,,,,,,,0,,,82,60
334800,note_on,42,0,4,,,,,,,,,3,,,43,60
334800,note_on,24,0,2,,,,,,,,,1,,,70,60
334878,note_off,78,0,4,,,,,,,,,3,,,43,0
334878,note_off,78,0,5,,,,,,,,,4,,,31,0
334896,note_off,96,0,2,,,,,,,,,1,,,70,0
334896,note_off,96,0,1,,,,,,,,,0,,,82,0
334920,note_on,42,0,5,,,,,,,,,4,,,34,60
334920,note_on,24,0,2,,,,,,,,,1,,,70,60
334920,note_on,24,0,1,,,,,,,,,0,,,82,60
334920,note_on,42,0,4,,,,,,,,,3,,,46,60
334980,set_tempo,900,1,0,,,,,,495867,,,,,,,
334998,note_off,78,0,5,,,,,,,,,4,,,34,0
334998,note_off,78,0,4,,,,,,,,,3,,,46,0
335016,note_off,96,0,2,,,,,,,,,1,,,70,0
335016,note_off,96,0,1,,,,,,,,,0,,,82,0
335040,note_on,24,0,2,,,,,,,,,1,,,70,61
335040,set_tempo,60,1,0,,,,,,487804,,,,,,,
335040,note_on,42,0,5,,,,,,,,,4,,,39,61
335040,note_on,24,0,1,,,,,,,,,0,,,82,61
335040,note_on,42,0,4,,,,,,,,,3,,,51,61
335118,note_off,78,0,5,,,,,,,,,4,,,39,0
335118,note_off,78,0,4,,,,,,,,,3,,,51,0
335136,note_off,96,0,2,,,,,,,,,1,,,70,0
335136,note_off,96,0,1,,,,,,,,,0,,,82,0
335160,note_on,42,0,4,,,,,,,,,3,,,46,61
335160,note_on,42,0,5,,,,,,,,,4,,,34,61
335160,note_on,24,0,2,,,,,,,,,1,,,70,61
335160,note_on,24,0,1,,,,,,,,,0,,,82,61
335238,note_off,78,0,5,,,,,,,,,4,,,34,0
335238,note_off,78,0,4,,,,,,,,,3,,,46,0
335256,note_off,96,0,2,,,,,,,,,1,,,70,0
335256,note_off,96,0,1,,,,,,,,,0,,,82,0
335280,note_on,24,0,2,,,,,,,,,1,,,70,62
335280,note_on,42,0,5,,,,,,,,,4,,,31,62
335280,note_on,42,0,4,,,,,,,,,3,,,43,62
335280,note_on,24,0,1,,,,,,,,,0,,,82,62
335358,note_off,78,0,4,,,,,,,,,3,,,43,0
335358,note_off,78,0,5,,,,,,,,,4,,,31,0
335376,note_off,96,0,2,,,,,,,,,1,,,70,0
335376,note_off,96,0,1,,,,,,,,,0,,,82,0
335400,note_on,42,0,5,,,,,,,,,4,,,34,62
335400,note_on,24,0,2,,,,,,,,,1,,,70,62
335400,note_on,42,0,4,,,,,,,,,3,,,46,62
335400,note_on,24,0,1,,,,,,,,,0,,,82,62
335478,note_off,78,0,4,,,,,,,,,3,,,46,0
335478,note_off,78,0,5,,,,,,,,,4,,,34,0
335496,note_off,96,0,1,,,,,,,,,0,,,82,0
335496,note_off,96,0,2,,,,,,,,,1,,,70,0
335520,note_on,24,0,2,,,,,,,,,1,,,70,62
335520,note_on,24,0,1,,,,,,,,,0,,,82,62
335520,note_on,42,0,5,,,,,,,,,4,,,39,62
335520,note_on,42,0,4,,,,,,,,,3,,,51,62
335598,note_off,78,0,5,,,,,,,,,4,,,39,0
335598,note_off,78,0,4,,,,,,,,,3,,,51,0
335616,note_off,96,0,2,,,,,,,,,1,,,70,0
335616,note_off,96,0,1,,,,,,,,,0,,,82,0
335640,note_on,42,0,5,,,,,,,,,4,,,34,63
335640,note_on,24,0,2,,,,,,,,,1,,,70,63
335640,note_on,24,0,1,,,,,,,,,0,,,82,63
335640,note_on,42,0,4,,,,,,,,,3,,,46,63
335718,note_off,78,0,5,,,,,,,,,4,,,34,0
335718,note_off,78,0,4,,,,,,,,,3,,,46,0
335736,note_off,96,0,1,,,,,,,,,0,,,82,0
335736,note_off,96,0,2,,,,,,,,,1,,,70,0
335760,note_on,24,0,1,,,,,,,,,0,,,82,63
335760,note_on,24,0,2,,,,,,,,,1,,,70,63
335760,note_on,42,0,5,,,,,,,,,4,,,39,63
335760,note_on,42,0,4,,,,,,,,,3,,,51,63
335838,note_off,78,0,5,,,,,,,,,4,,,39,0
335838,note_off,78,0,4,,,,,,,,,3,,,51,0
335856,note_off,96,0,1,,,,,,,,,0,,,82,0
335856,note_off,96,0,2,,,,,,,,,1,,,70,0
335880,note_on,24,0,2,,,,,,,,,1,,,70,64
335880,note_on,42,0,4,,,,,,,,,3,,,55,64
335880,note_on,42,0,5,,,,,,,,,4,,,43,64
335880,note_on,24,0,1,,,,,,,,,0,,,82,64
335887,set_tempo,847,1,0,,,,,,495867,,,,,,,
335958,note_off,78,0,4,,,,,,,,,3,,,55,0
335958,note_off,78,0,5,,,,,,,,,4,,,43,0
335976,note_off,96,0,1,,,,,,,,,0,,,82,0
335976,note_off,96,0,2,,,,,,,,,1,,,70,0
336000,note_on,24,0,1,,,,,,,,,0,,,82,64
336000,set_tempo,113,1,0,,,,,,487804,,,,,,,
336000,note_on,42,0,5,,,,,,,,,4,,,41,64
336000,note_on,24,0,2,,,,,,,,,1,,,70,64
336000,note_on,42,0,4,,,,,,,,,3,,,53,64
336078,note_off,78,0,4,,,,,,,,,3,,,53,0
336078,note_off,78,0,5,,,,,,,,,4,,,41,0
336096,note_off,96,0,1,,,,,,,,,0,,,82,0
336096,note_off,96,0,2,,,,,,,,,1,,,70,0
336120,note_on,24,0,2,,,,,,,,,1,,,70,65
336120,note_on,42,0,5,,,,,,,,,4,,,38,65
336120,note_on,42,0,4,,,,,,,,,3,,,50,65
336120,note_on,24,0,1,,,,,,,,,0,,,82,65
336198,note_off,78,0,5,,,,,,,,,4,,,38,0
336198,note_off,78,0,4,,,,,,,,,3,,,50,0
336216,note_off,96,0,2,,,,,,,,,1,,,70,0
336216,note_off,96,0,1,,,,,,,,,0,,,82,0
336240,note_on,24,0,1,,,,,,,,,0,,,82,65
336240,note_on,42,0,4,,,,,,,,,3,,,46,65
336240,note_on,42,0,5,,,,,,,,,4,,,34,65
336240,note_on,24,0,2,,,,,,,,,1,,,70,65
336318,note_off,78,0,5,,,,,,,,,4,,,34,0
336318,note_off,78,0,4,,,,,,,,,3,,,46,0
336336,note_off,96,0,1,,,,,,,,,0,,,82,0
336336,note_off,96,0,2,,,,,,,,,1,,,70,0
336360,note_on,24,0,2,,,,,,,,,1,,,70,66
336360,note_on,42,0,4,,,,,,,,,3,,,50,66
336360,note_on,42,0,5,,,,,,,,,4,,,38,66
336360,note_on,24,0,1,,,,,,,,,0,,,82,66
336438,note_off,78,0,5,,,,,,,,,4,,,38,0
336438,note_off,78,0,4,,,,,,,,,3,,,50,0
336456,note_off,96,0,2,,,,,,,,,1,,,70,0
336456,note_off,96,0,1,,,,,,,,,0,,,82,0
336480,note_on,42,0,5,,,,,,,,,4,,,41,66
336480,note_on,24,0,1,,,,,,,,,0,,,82,66
336480,note_on,42,0,4,,,,,,,,,3,,,53,66
336480,note_on,24,0,2,,,,,,,,,1,,,70,66
336558,note_off,78,0,5,,,,,,,,,4,,,41,0
336558,note_off,78,0,4,,,,,,,,,3,,,53,0
336576,note_off,96,0,2,,,,,,,,,1,,,70,0
336576,note_off,96,0,1,,,,,,,,,0,,,82,0
336600,note_on,42,0,4,,,,,,,,,3,,,50,67
336600,note_on,24,0,1,,,,,,,,,0,,,82,67
336600,note_on,42,0,5,,,,,,,,,4,,,38,67
336600,note_on,24,0,2,,,,,,,,,1,,,70,67
336678,note_off,78,0,4,,,,,,,,,3,,,50,0
336678,note_off,78,0,5,,,,,,,,,4,,,38,0
336696,note_off,96,0,1,,,,,,,,,0,,,82,0
336696,note_off,96,0,2,,,,,,,,,1,,,70,0
336720,note_on,24,0,1,,,,,,,,,0,,,82,67
336720,note_on,42,0,5,,,,,,,,,4,,,34,67
336720,note_on,24,0,2,,,,,,,,,1,,,70,67
336720,note_on,42,0,4,,,,,,,,,3,,,46,67
336798,note_off,78,0,5,,,,,,,,,4,,,34,0
336798,note_off,78,0,4,,,,,,,,,3,,,46,0
336816,note_off,96,0,1,,,,,,,,,0,,,82,0
336816,note_off,96,0,2,,,,,,,,,1,,,70,0
336840,note_on,42,0,5,,,,,,,,,4,,,38,68
336840,note_on,24,0,1,,,,,,,,,0,,,82,68
336840,note_on,24,0,2,,,,,,,,,1,,,70,68
336840,note_on,42,0,4,,,,,,,,,3,,,50,68
336900,set_tempo,900,1,0,,,,,,495867,,,,,,,
336918,note_off,78,0,4,,,,,,,,,3,,,50,0
336918,note_off,78,0,5,,,,,,,,,4,,,38,0
336936,note_off,96,0,1,,,,,,,,,0,,,82,0
336936,note_off,96,0,2,,,,,,,,,1,,,70,0
336960,note_on,24,0,1,,,,,,,,,0,,,82,68
336960,set_tempo,60,1,0,,,,,,487804,,,,,,,
336960,note_on,42,0,5,,,,,,,,,4,,,41,68
336960,note_on,42,0,4,,,,,,,,,3,,,53,68
336960,note_on,24,0,2,,,,,,,,,1,,,70,68
337038,note_off,78,0,4,,,,,,,,,3,,,53,0
337038,note_off,78,0,5,,,,,,,,,4,,,41,0
337056,note_off,96,0,2,,,,,,,,,1,,,70,0
337056,note_off,96,0,1,,,,,,,,,0,,,82,0
337080,note_on,24,0,2,,,,,,,,,1,,,70,69
337080,note_on,42,0,4,,,,,,,,,3,,,50,69
337080,note_on,24,0,1,,,,,,,,,0,,,82,69
337080,note_on,42,0,5,,,,,,,,,4,,,38,69
337158,note_off,78,0,5,,,,,,,,,4,,,38,0
337158,note_off,78,0,4,,,,,,,,,3,,,50,0
337176,note_off,96,0,1,,,,,,,,,0,,,82,0
337176,note_off,96,0,2,,,,,,,,,1,,,70,0
337200,note_on,24,0,2,,,,,,,,,1,,,70,69
337200,note_on,42,0,5,,,,,,,,,4,,,34,69
337200,note_on,42,0,4,,,,,,,,,3,,,46,69
337200,note_on,24,0,1,,,,,,,,,0,,,82,69
337278,note_off,78,0,4,,,,,,,,,3,,,46,0
337278,note_off,78,0,5,,,,,,,,,4,,,34,0
337296,note_off,96,0,2,,,,,,,,,1,,,70,0
337296,note_off,96,0,1,,,,,,,,,0,,,82,0
337320,note_on,42,0,4,,,,,,,,,3,,,50,69
337320,note_on,24,0,2,,,,,,,,,1,,,70,69
337320,note_on,42,0,5,,,,,,,,,4,,,38,69
337320,note_on,24,0,1,,,,,,,,,0,,,82,69
337398,note_off,78,0,5,,,,,,,,,4,,,38,0
337398,note_off,78,0,4,,,,,,,,,3,,,50,0
337416,note_off,96,0,2,,,,,,,,,1,,,70,0
337416,note_off,96,0,1,,,,,,,,,0,,,82,0
337440,note_on,42,0,4,,,,,,,,,3,,,53,70
337440,note_on,42,0,5,,,,,,,,,4,,,41,70
337440,note_on,24,0,1,,,,,,,,,0,,,82,70
337440,note_on,24,0,2,,,,,,,,,1,,,70,70
337518,note_off,78,0,4,,,,,,,,,3,,,53,0
337518,note_off,78,0,5,,,,,,,,,4,,,41,0
337536,note_off,96,0,2,,,,,,,,,1,,,70,0
337536,note_off,96,0,1,,,,,,,,,0,,,82,0
337560,note_on,24,0,1,,,,,,,,,0,,,82,70
337560,note_on,42,0,4,,,,,,,,,3,,,50,70
337560,note_on,24,0,2,,,,,,,,,1,,,70,70
337560,note_on,42,0,5,,,,,,,,,4,,,38,70
337638,note_off,78,0,5,,,,,,,,,4,,,38,0
337638,note_off,78,0,4,,,,,,,,,3,,,50,0
337656,note_off,96,0,1,,,,,,,,,0,,,82,0
337656,note_off,96,0,2,,,,,,,,,1,,,70,0
337680,note_on,42,0,5,,,,,,,,,4,,,41,71
337680,note_on,24,0,1,,,,,,,,,0,,,82,71
337680,note_on,24,0,2,,,,,,,,,1,,,70,71
337680,note_on,42,0,4,,,,,,,,,3,,,53,71
337758,note_off,78,0,5,,,,,,,,,4,,,41,0
337758,note_off,78,0,4,,,,,,,,,3,,,53,0
337776,note_off,96,0,1,,,,,,,,,0,,,82,0
337776,note_off,96,0,2,,,,,,,,,1,,,70,0
337800,note_on,42,0,4,,,,,,,,,3,,,56,72
337800,set_tempo,840,1,0,,,,,,495867,,,,,,,
337800,note_on,42,0,5,,,,,,,,,4,,,44,72
337800,note_on,24,0,2,,,,,,,,,1,,,70,72
337800,note_on,24,0,1,,,,,,,,,0,,,82,72
337878,note_off,78,0,4,,,,,,,,,3,,,56,0
337878,note_off,78,0,5,,,,,,,,,4,,,44,0
337896,note_off,96,0,1,,,,,,,,,0,,,82,0
337896,note_off,96,0,2,,,,,,,,,1,,,70,0
337920,note_on,42,0,4,,,,,,,,,3,,,55,72
337920,note_on,42,0,5,,,,,,,,,4,,,39,72
337920,note_on,24,0,2,,,,,,,,,1,,,70,72
337920,set_tempo,120,1,0,,,,,,487804,,,,,,,
337920,note_on,24,0,1,,,,,,,,,0,,,82,72
338016,note_off,96,0,2,,,,,,,,,1,,,70,0
338016,note_off,96,0,1,,,,,,,,,0,,,82,0
338040,note_on,24,0,2,,,,,,,,,1,,,75,73
338040,note_on,24,0,1,,,,,,,,,0,,,87,73
338040,note_on,0,0,4,,,,,,,,,3,,,55,73
338040,note_on,0,0,5,,,,,,,,,4,,,39,73
338040,note_on,0,0,4,,,,,,,,,3,,,51,73
338040,note_off,120,0,4,,,,,,,,,3,,,55,0
338040,note_off,120,0,5,,,,,,,,,4,,,39,0
338136,note_off,96,0,2,,,,,,,,,1,,,75,0
338136,note_off,96,0,1,,,,,,,,,0,,,87,0
338160,note_off,120,0,5,,,,,,,,,4,,,39,0
338160,note_off,120,0,4,,,,,,,,,3,,,55,0
338160,note_on,0,0,4,,,,,,,,,3,,,56,73
338160,note_on,0,0,4,,,,,,,,,3,,,51,73
338160,note_off,0,0,4,,,,,,,,,3,,,51,0
338160,note_on,24,0,1,,,,,,,,,0,,,87,73
338160,note_on,0,0,5,,,,,,,,,4,,,41,73
338160,note_on,24,0,2,,,,,,,,,1,,,75,73
338256,note_off,96,0,2,,,,,,,,,1,,,75,0
338256,note_off,96,0,1,,,,,,,,,0,,,87,0
338280,note_off,0,0,4,,,,,,,,,3,,,51,0
338280,note_off,120,0,4,,,,,,,,,3,,,56,0
338280,note_on,0,0,5,,,,,,,,,4,,,43,74
338280,note_on,24,0,1,,,,,,,,,0,,,87,74
338280,note_on,0,0,4,,,,,,,,,3,,,58,74
338280,note_on,24,0,2,,,,,,,,,1,,,75,74
338280,note_off,120,0,5,,,,,,,,,4,,,41,0
338280,note_on,0,0,4,,,,,,,,,3,,,51,74
338376,note_off,96,0,2,,,,,,,,,1,,,75,0
338376,note_off,96,0,1,,,,,,,,,0,,,87,0
338400,note_on,24,0,2,,,,,,,,,1,,,75,74
338400,note_on,0,0,4,,,,,,,,,3,,,51,74
338400,note_off,0,0,4,,,,,,,,,3,,,58,0
338400,note_on,0,0,5,,,,,,,,,4,,,44,74
338400,note_on,0,0,4,,,,,,,,,3,,,60,74
338400,note_off,120,0,5,,,,,,,,,4,,,43,0
338400,note_on,24,0,1,,,,,,,,,0,,,87,74
338400,note_off,120,0,4,,,,,,,,,3,,,51,0
338496,note_off,96,0,1,,,,,,,,,0,,,87,0
338496,note_off,96,0,2,,,,,,,,,1,,,75,0
338520,note_on,24,0,2,,,,,,,,,1,,,75,75
338520,note_on,0,0,4,,,,,,,,,3,,,51,75
338520,note_on,0,0,4,,,,,,,,,3,,,62,75
338520,note_off,120,0,4,,,,,,,,,3,,,60,0
338520,note_on,24,0,1,,,,,,,,,0,,,87,75
338520,note_on,0,0,5,,,,,,,,,4,,,46,75
338520,note_off,0,0,4,,,,,,,,,3,,,51,0
338520,note_off,120,0,5,,,,,,,,,4,,,44,0
338616,note_off,96,0,2,,,,,,,,,1,,,75,0
338616,note_off,96,0,1,,,,,,,,,0,,,87,0
338640,note_on,24,0,2,,,,,,,,,1,,,75,75
338640,note_on,0,0,5,,,,,,,,,4,,,48,75
338640,note_off,120,0,5,,,,,,,,,4,,,46,0
338640,note_on,24,0,1,,,,,,,,,0,,,87,75
338640,note_off,120,0,4,,,,,,,,,3,,,51,0
338640,note_on,0,0,4,,,,,,,,,3,,,51,75
338640,note_on,0,0,4,,,,,,,,,3,,,63,75
338640,note_off,0,0,4,,,,,,,,,3,,,62,0
338736,note_off,96,0,2,,,,,,,,,1,,,75,0
338736,note_off,96,0,1,,,,,,,,,0,,,87,0
338760,note_on,24,0,2,,,,,,,,,1,,,75,75
338760,note_off,120,0,5,,,,,,,,,4,,,48,0
338760,note_on,0,0,5,,,,,,,,,4,,,44,75
338760,note_on,24,0,1,,,,,,,,,0,,,87,75
338760,note_on,0,0,4,,,,,,,,,3,,,60,75
338760,note_on,0,0,4,,,,,,,,,3,,,51,75
338760,note_off,0,0,4,,,,,,,,,3,,,63,0
338760,note_off,120,0,4,,,,,,,,,3,,,51,0
338820,set_tempo,900,1,0,,,,,,495867,,,,,,,
338856,note_off,96,0,2,,,,,,,,,1,,,75,0
338856,note_off,96,0,1,,,,,,,,,0,,,87,0
338880,note_off,0,0,4,,,,,,,,,3,,,51,0
338880,note_on,0,0,4,,,,,,,,,3,,,51,76
338880,note_on,0,0,4,,,,,,,,,3,,,58,76
338880,note_on,24,0,1,,,,,,,,,0,,,87,76
338880,set_tempo,60,1,0,,,,,,487804,,,,,,,
338880,note_on,24,0,2,,,,,,,,,1,,,75,76
338880,note_off,120,0,5,,,,,,,,,4,,,44,0
338880,note_on,0,0,5,,,,,,,,,4,,,43,76
338880,note_off,120,0,4,,,,,,,,,3,,,60,0
339000,note_off,120,0,1,,,,,,,,,0,,,87,0
339000,note_on,0,0,1,,,,,,,,,0,,,86,76
339000,note_off,120,0,2,,,,,,,,,1,,,75,0
339000,note_on,0,0,2,,,,,,,,,1,,,74,76
339120,note_off,120,0,2,,,,,,,,,1,,,74,0
339120,note_on,0,0,1,,,,,,,,,0,,,87,77
339120,note_off,120,0,1,,,,,,,,,0,,,86,0
339120,note_on,0,0,2,,,,,,,,,1,,,75,77
339240,note_off,120,0,2,,,,,,,,,1,,,75,0
339240,note_on,0,0,2,,,,,,,,,1,,,74,77
339240,note_on,0,0,1,,,,,,,,,0,,,86,77
339240,note_off,120,0,1,,,,,,,,,0,,,87,0
339360,note_off,120,0,2,,,,,,,,,1,,,74,0
339360,note_on,0,0,2,,,,,,,,,1,,,75,78
339360,note_off,480,0,5,,,,,,,,,4,,,43,0
339360,note_on,0,0,4,,,,,,,,,3,,,55,78
339360,note_off,0,0,4,,,,,,,,,3,,,51,0
339360,note_off,480,0,4,,,,,,,,,3,,,58,0
339360,note_on,0,0,5,,,,,,,,,4,,,39,78
339360,note_on,0,0,1,,,,,,,,,0,,,87,78
339360,note_off,120,0,1,,,,,,,,,0,,,86,0
339360,note_on,0,0,4,,,,,,,,,3,,,58,78
339480,note_on,0,0,1,,,,,,,,,0,,,86,78
339480,note_off,120,0,1,,,,,,,,,0,,,87,0
339480,note_off,120,0,2,,,,,,,,,1,,,75,0
339480,note_on,0,0,2,,,,,,,,,1,,,74,78
339600,note_on,0,0,4,,,,,,,,,3,,,61,79
339600,note_off,120,0,2,,,,,,,,,1,,,74,0
339600,note_on,0,0,2,,,,,,,,,1,,,75,79
339600,note_on,0,0,4,,,,,,,,,3,,,43,79
339600,note_off,0,0,4,,,,,,,,,3,,,55,0
339600,note_off,240,0,4,,,,,,,,,3,,,58,0
339600,note_on,0,0,4,,,,,,,,,3,,,58,79
339600,note_on,0,0,1,,,,,,,,,0,,,87,79
339600,note_off,120,0,1,,,,,,,,,0,,,86,0
339600,note_off,240,0,5,,,,,,,,,4,,,39,0
339600,note_on,0,0,5,,,,,,,,,4,,,31,79
339720,note_off,0,0,4,,,,,,,,,3,,,61,0
339720,note_off,0,0,4,,,,,,,,,3,,,43,0
339720,note_off,120,0,1,,,,,,,,,0,,,87,0
339720,note_on,0,0,1,,,,,,,,,0,,,88,79
339720,note_off,120,0,4,,,,,,,,,3,,,58,0
339720,note_off,120,0,2,,,,,,,,,1,,,75,0
339720,note_on,0,0,2,,,,,,,,,1,,,76,79
339720,note_off,120,0,5,,,,,,,,,4,,,31,0
339780,set_tempo,900,1,0,,,,,,495867,,,,,,,
339780,note_on,60,0,4,,,,,,,,,3,,,43,79
339780,note_on,0,0,4,,,,,,,,,3,,,61,79
339780,note_on,0,0,4,,,,,,,,,3,,,58,79
339780,note_on,60,0,5,,,,,,,,,4,,,31,79
339840,note_on,0,0,4,,,,,,,,,3,,,56,80
339840,note_on,0,0,4,,,,,,,,,3,,,44,80
339840,note_off,0,0,4,,,,,,,,,3,,,61,0
339840,note_off,60,0,4,,,,,,,,,3,,,58,0
339840,note_on,0,0,1,,,,,,,,,0,,,89,80
339840,note_off,120,0,1,,,,,,,,,0,,,88,0
339840,note_on,0,0,2,,,,,,,,,1,,,77,80
339840,note_off,120,0,2,,,,,,,,,1,,,76,0
339840,note_on,0,0,5,,,,,,,,,4,,,32,80
339840,note_off,60,0,5,,,,,,,,,4,,,31,0
339840,note_on,0,0,4,,,,,,,,,3,,,60,80
339840,note_off,0,0,4,,,,,,,,,3,,,43,0
339996,note_off,0,0,4,,,,,,,,,3,,,56,0
339996,note_off,156,0,2,,,,,,,,,1,,,77,0
339996,note_off,0,0,4,,,,,,,,,3,,,44,0
339996,note_off,156,0,4,,,,,,,,,3,,,60,0
339996,note_off,156,0,1,,,,,,,,,0,,,89,0
339996,note_off,156,0,5,,,,,,,,,4,,,32,0
340080,note_on,84,0,2,,,,,,,,,1,,,77,86
340080,note_on,84,0,5,,,,,,,,,4,,,32,86
340080,note_on,0,0,4,,,,,,,,,3,,,44,86
340080,note_on,0,0,4,,,,,,,,,3,,,60,86
340080,note_on,84,0,4,,,,,,,,,3,,,56,86
340080,note_on,84,0,1,,,,,,,,,0,,,89,86
340224,note_off,0,0,4,,,,,,,,,3,,,56,0
340224,note_off,0,0,4,,,,,,,,,3,,,60,0
340224,note_off,144,0,4,,,,,,,,,3,,,44,0
340224,note_off,144,0,1,,,,,,,,,0,,,89,0
340224,note_off,144,0,5,,,,,,,,,4,,,32,0
340224,note_off,144,0,2,,,,,,,,,1,,,77,0
340260,note_on,36,0,5,,,,,,,,,4,,,32,81
340260,note_on,36,0,1,,,,,,,,,0,,,89,81
340260,note_on,36,0,2,,,,,,,,,1,,,77,81
340260,set_tempo,480,1,0,,,,,,500000,,,,,,,
340260,note_on,36,0,4,,,,,,,,,3,,,56,81
340260,note_on,0,0,4,,,,,,,,,3,,,60,81
340260,note_on,0,0,4,,,,,,,,,3,,,44,81
340308,note_off,48,0,5,,,,,,,,,4,,,32,0
340308,note_off,0,0,4,,,,,,,,,3,,,56,0
340308,note_off,48,0,4,,,,,,,,,3,,,44,0
340308,note_off,0,0,4,,,,,,,,,3,,,60,0
340308,note_off,48,0,1,,,,,,,,,0,,,89,0
340308,note_off,48,0,2,,,,,,,,,1,,,77,0
340320,set_tempo,60,1,0,,,,,,495867,,,,,,,
340320,note_on,0,0,4,,,,,,,,,3,,,56,81
340320,note_on,0,0,4,,,,,,,,,3,,,53,81
340320,note_on,12,0,5,,,,,,,,,4,,,34,81
340320,note_on,0,0,2,,,,,,,,,1,,,65,81
340320,note_on,0,0,2,,,,,,,,,1,,,74,81
340320,note_on,12,0,1,,,,,,,,,0,,,86,81
340320,note_on,12,0,2,,,,,,,,,1,,,80,81
340320,note_on,12,0,4,,,,,,,,,3,,,46,81
340320,note_on,0,0,2,,,,,,,,,1,,,68,81
340476,note_off,0,0,2,,,,,,,,,1,,,65,0
340476,note_off,156,0,4,,,,,,,,,3,,,56,0
340476,note_off,0,0,4,,,,,,,,,3,,,53,0
340476,note_off,0,0,4,,,,,,,,,3,,,46,0
340476,note_off,156,0,2,,,,,,,,,1,,,68,0
340476,note_off,156,0,1,,,,,,,,,0,,,86,0
340476,note_off,156,0,5,,,,,,,,,4,,,34,0
340476,note_off,0,0,2,,,,,,,,,1,,,80,0
340476,note_off,0,0,2,,,,,,,,,1,,,74,0
340560,note_on,0,0,2,,,,,,,,,1,,,65,91
340560,note_on,0,0,2,,,,,,,,,1,,,74,91
340560,note_on,0,0,2,,,,,,,,,1,,,68,91
340560,note_on,0,0,4,,,,,,,,,3,,,46,91
340560,note_on,0,0,4,,,,,,,,,3,,,53,91
340560,note_on,84,0,4,,,,,,,,,3,,,56,91
340560,note_on,84,0,2,,,,,,,,,1,,,80,91
340560,note_on,84,0,1,,,,,,,,,0,,,86,91
340560,note_on,84,0,5,,,,,,,,,4,,,34,91
340704,note_off,0,0,4,,,,,,,,,3,,,56,0
340704,note_off,144,0,5,,,,,,,,,4,,,34,0
340704,note_off,144,0,4,,,,,,,,,3,,,46,0
340704,note_off,0,0,4,,,,,,,,,3,,,53,0
340704,note_off,144,0,1,,,,,,,,,0,,,86,0
340704,note_off,144,0,2,,,,,,,,,1,,,74,0
340704,note_off,0,0,2,,,,,,,,,1,,,65,0
340704,note_off,0,0,2,,,,,,,,,1,,,68,0
340704,note_off,0,0,2,,,,,,,,,1,,,80,0
340740,note_on,0,0,2,,,,,,,,,1,,,65,83
340740,note_on,36,0,5,,,,,,,,,4,,,34,83
340740,note_on,36,0,1,,,,,,,,,0,,,86,83
340740,note_on,36,0,4,,,,,,,,,3,,,46,83
340740,note_on,0,0,2,,,,,,,,,1,,,68,83
340740,note_on,0,0,4,,,,,,,,,3,,,56,83
340740,note_on,0,0,2,,,,,,,,,1,,,74,83
340740,note_on,36,0,2,,,,,,,,,1,,,80,83
340740,note_on,0,0,4,,,,,,,,,3,,,53,83
340740,set_tempo,420,1,0,,,,,,508474,,,,,,,
340788,note_off,0,0,4,,,,,,,,,3,,,53,0
340788,note_off,0,0,4,,,,,,,,,3,,,46,0
340788,note_off,48,0,1,,,,,,,,,0,,,86,0
340788,note_off,48,0,5,,,,,,,,,4,,,34,0
340788,note_off,48,0,4,,,,,,,,,3,,,56,0
340788,note_off,0,0,2,,,,,,,,,1,,,80,0
340788,note_off,0,0,2,,,,,,,,,1,,,74,0
340788,note_off,0,0,2,,,,,,,,,1,,,65,0
340788,note_off,48,0,2,,,,,,,,,1,,,68,0
340800,note_on,0,0,2,,,,,,,,,1,,,75,90
340800,note_on,0,0,4,,,,,,,,,3,,,51,90
340800,note_on,12,0,4,,,,,,,,,3,,,55,90
340800,note_on,12,0,2,,,,,,,,,1,,,79,90
340800,note_on,12,0,1,,,,,,,,,0,,,87,90
340800,note_on,12,0,5,,,,,,,,,4,,,39,90
340800,note_on,0,0,2,,,,,,,,,1,,,67,90
340800,note_on,0,0,2,,,,,,,,,1,,,63,90
340920,note_on,0,0,4,,,,,,,,,3,,,55,86
340920,note_on,0,0,4,,,,,,,,,3,,,51,86
340920,note_off,0,0,4,,,,,,,,,3,,,55,0
340920,note_off,120,0,4,,,,,,,,,3,,,51,0
340920,note_on,0,0,2,,,,,,,,,1,,,75,86
340920,note_off,120,0,1,,,,,,,,,0,,,87,0
340920,note_on,0,0,2,,,,,,,,,1,,,63,86
340920,note_on,0,0,2,,,,,,,,,1,,,67,86
340920,note_on,0,0,5,,,,,,,,,4,,,39,86
340920,note_off,0,0,2,,,,,,,,,1,,,79,0
340920,note_off,0,0,2,,,,,,,,,1,,,75,0
340920,note_off,0,0,2,,,,,,,,,1,,,67,0
340920,note_off,120,0,2,,,,,,,,,1,,,63,0
340920,note_on,0,0,1,,,,,,,,,0,,,79,86
340920,note_off,120,0,5,,,,,,,,,4,,,39,0
340960,set_tempo,220,1,0,,,,,,508474,,,,,,,
341040,note_on,0,0,2,,,,,,,,,1,,,68,87
341040,note_off,120,0,4,,,,,,,,,3,,,55,0
341040,note_off,0,0,4,,,,,,,,,3,,,51,0
341040,note_on,0,0,4,,,,,,,,,3,,,53,87
341040,note_on,0,0,4,,,,,,,,,3,,,56,87
341040,note_on,0,0,1,,,,,,,,,0,,,80,87
341040,note_off,120,0,1,,,,,,,,,0,,,79,0
341040,note_on,0,0,2,,,,,,,,,1,,,77,87
341040,note_off,0,0,2,,,,,,,,,1,,,75,0
341040,note_on,0,0,5,,,,,,,,,4,,,39,87
341040,note_off,120,0,5,,,,,,,,,4,,,39,0
341040,note_on,0,0,2,,,,,,,,,1,,,65,87
341040,note_off,120,0,2,,,,,,,,,1,,,63,0
341040,note_off,0,0,2,,,,,,,,,1,,,67,0
341160,note_on,0,0,5,,,,,,,,,4,,,39,88
341160,note_on,0,0,4,,,,,,,,,3,,,58,88
341160,note_off,0,0,4,,,,,,,,,3,,,53,0
341160,note_off,120,0,4,,,,,,,,,3,,,56,0
341160,note_on,0,0,4,,,,,,,,,3,,,55,88
341160,note_off,120,0,2,,,,,,,,,1,,,68,0
341160,note_off,120,0,1,,,,,,,,,0,,,80,0
341160,note_on,0,0,2,,,,,,,,,1,,,67,88
341160,note_on,0,0,2,,,,,,,,,1,,,70,88
341160,note_on,0,0,2,,,,,,,,,1,,,79,88
341160,note_off,0,0,2,,,,,,,,,1,,,77,0
341160,note_off,120,0,5,,,,,,,,,4,,,39,0
341160,note_off,0,0,2,,,,,,,,,1,,,65,0
341160,note_on,0,0,1,,,,,,,,,0,,,82,88
341280,note_on,0,0,5,,,,,,,,,4,,,39,89
341280,note_off,120,0,1,,,,,,,,,0,,,82,0
341280,note_off,120,0,2,,,,,,,,,1,,,67,0
341280,note_off,0,0,2,,,,,,,,,1,,,70,0
341280,note_off,0,0,2,,,,,,,,,1,,,79,0
341280,note_on,0,0,2,,,,,,,,,1,,,80,89
341280,note_on,0,0,2,,,,,,,,,1,,,68,89
341280,note_on,0,0,2,,,,,,,,,1,,,72,89
341280,note_off,120,0,5,,,,,,,,,4,,,39,0
341280,note_on,0,0,1,,,,,,,,,0,,,84,89
341280,note_off,0,0,4,,,,,,,,,3,,,58,0
341280,note_on,0,0,4,,,,,,,,,3,,,56,89
341280,note_on,0,0,4,,,,,,,,,3,,,60,89
341280,note_on,0,0,4,,,,,,,,,3,,,51,89
341280,note_off,120,0,4,,,,,,,,,3,,,55,0
341400,note_off,120,0,2,,,,,,,,,1,,,72,0
341400,note_off,0,0,2,,,,,,,,,1,,,68,0
341400,note_on,0,0,4,,,,,,,,,3,,,51,91
341400,note_on,0,0,4,,,,,,,,,3,,,58,91
341400,note_on,0,0,4,,,,,,,,,3,,,62,91
341400,note_off,0,0,4,,,,,,,,,3,,,56,0
341400,note_off,0,0,4,,,,,,,,,3,,,60,0
341400,note_off,120,0,1,,,,,,,,,0,,,84,0
341400,note_on,0,0,1,,,,,,,,,0,,,86,91
341400,note_off,0,0,2,,,,,,,,,1,,,80,0
341400,note_on,0,0,2,,,,,,,,,1,,,70,91
341400,note_on,0,0,2,,,,,,,,,1,,,74,91
341400,note_off,120,0,4,,,,,,,,,3,,,51,0
341400,note_on,0,0,5,,,,,,,,,4,,,39,91
341400,note_off,120,0,5,,,,,,,,,4,,,39,0
341400,note_on,0,0,2,,,,,,,,,1,,,82,91
341520,note_off,120,0,2,,,,,,,,,1,,,74,0
341520,note_off,0,0,2,,,,,,,,,1,,,70,0
341520,note_off,0,0,2,,,,,,,,,1,,,82,0
341520,note_on,0,0,2,,,,,,,,,1,,,84,92
341520,note_on,0,0,2,,,,,,,,,1,,,75,92
341520,note_on,0,0,2,,,,,,,,,1,,,72,92
341520,note_on,0,0,4,,,,,,,,,3,,,60,92
341520,note_on,0,0,4,,,,,,,,,3,,,51,92
341520,note_off,0,0,4,,,,,,,,,3,,,62,0
341520,note_off,120,0,5,,,,,,,,,4,,,39,0
341520,note_on,0,0,5,,,,,,,,,4,,,39,92
341520,note_on,0,0,4,,,,,,,,,3,,,63,92
341520,note_off,120,0,1,,,,,,,,,0,,,86,0
341520,note_off,120,0,4,,,,,,,,,3,,,51,0
341520,note_on,0,0,1,,,,,,,,,0,,,87,92
341520,note_off,0,0,4,,,,,,,,,3,,,58,0
341620,set_tempo,660,1,0,,,,,,517241,,,,,,,
341640,note_off,120,0,5,,,,,,,,,4,,,39,0
341640,note_on,0,0,5,,,,,,,,,4,,,39,93
341640,note_off,120,0,2,,,,,,,,,1,,,72,0
341640,note_on,0,0,4,,,,,,,,,3,,,56,93
341640,note_on,0,0,1,,,,,,,,,0,,,84,93
341640,note_off,120,0,1,,,,,,,,,0,,,87,0
341640,note_off,120,0,4,,,,,,,,,3,,,51,0
341640,note_on,0,0,4,,,,,,,,,3,,,60,93
341640,note_off,0,0,2,,,,,,,,,1,,,75,0
341640,note_off,0,0,2,,,,,,,,,1,,,84,0
341640,note_on,0,0,2,,,,,,,,,1,,,80,93
341640,note_on,0,0,2,,,,,,,,,1,,,68,93
341640,note_on,0,0,2,,,,,,,,,1,,,72,93
341640,note_on,0,0,4,,,,,,,,,3,,,51,93
341640,note_off,0,0,4,,,,,,,,,3,,,63,0
341640,note_off,0,0,4,,,,,,,,,3,,,60,0
341760,note_on,0,0,4,,,,,,,,,3,,,55,95
341760,note_on,0,0,5,,,,,,,,,4,,,39,95
341760,note_on,0,0,4,,,,,,,,,3,,,51,95
341760,note_off,0,0,4,,,,,,,,,3,,,56,0
341760,note_off,0,0,4,,,,,,,,,3,,,60,0
341760,note_off,120,0,4,,,,,,,,,3,,,51,0
341760,note_off,120,0,5,,,,,,,,,4,,,39,0
341760,note_on,0,0,4,,,,,,,,,3,,,58,95
341760,note_off,120,0,2,,,,,,,,,1,,,72,0
341760,note_off,120,0,1,,,,,,,,,0,,,84,0
341760,note_off,0,0,2,,,,,,,,,1,,,80,0
341760,note_on,0,0,2,,,,,,,,,1,,,79,95
341760,note_on,0,0,2,,,,,,,,,1,,,67,95
341760,note_on,0,0,2,,,,,,,,,1,,,70,95
341760,note_off,0,0,2,,,,,,,,,1,,,68,0
341760,note_on,0,0,1,,,,,,,,,0,,,82,95
342240,note_on,0,0,4,,,,,,,,,3,,,51,80
342240,set_tempo,620,1,0,,,,,,526315,,,,,,,
342240,note_off,480,0,1,,,,,,,,,0,,,82,0
342240,note_on,0,0,1,,,,,,,,,0,,,79,80
342240,note_off,480,0,2,,,,,,,,,1,,,70,0
342240,note_off,0,0,2,,,,,,,,,1,,,67,0
342240,note_off,480,0,5,,,,,,,,,4,,,39,0
342240,note_on,0,0,5,,,,,,,,,4,,,39,80
342240,note_on,0,0,2,,,,,,,,,1,,,75,80
342240,note_off,0,0,2,,,,,,,,,1,,,79,0
342240,note_on,0,0,2,,,,,,,,,1,,,63,80
342240,note_off,480,0,4,,,,,,,,,3,,,55,0
342240,note_off,0,0,4,,,,,,,,,3,,,58,0
342240,note_off,0,0,4,,,,,,,,,3,,,51,0
342240,note_on,0,0,2,,,,,,,,,1,,,67,80
342240,note_on,0,0,4,,,,,,,,,3,,,55,80
342480,note_off,240,0,4,,,,,,,,,3,,,51,0
342480,note_off,240,0,2,,,,,,,,,1,,,63,0
342480,note_off,0,0,2,,,,,,,,,1,,,67,0
342480,note_off,0,0,2,,,,,,,,,1,,,75,0
342480,note_off,240,0,1,,,,,,,,,0,,,79,0
342480,note_on,0,0,2,,,,,,,,,1,,,67,85
342480,set_tempo,240,1,0,,,,,,517241,,,,,,,
342480,note_off,0,0,4,,,,,,,,,3,,,55,0
342480,note_off,240,0,5,,,,,,,,,4,,,39,0
342480,note_on,0,0,1,,,,,,,,,0,,,79,85
342624,note_off,144,0,2,,,,,,,,,1,,,67,0
342624,note_off,144,0,1,,,,,,,,,0,,,79,0
342660,note_on,36,0,1,,,,,,,,,0,,,79,89
342660,note_on,36,0,2,,,,,,,,,1,,,67,89
342660,set_tempo,180,1,0,,,,,,540540,,,,,,,
342708,note_off,48,0,2,,,,,,,,,1,,,67,0
342708,note_off,48,0,1,,,,,,,,,0,,,79,0
342720,note_on,0,0,4,,,,,,,,,3,,,55,92
342720,note_on,12,0,1,,,,,,,,,0,,,79,92
342720,note_on,0,0,4,,,,,,,,,3,,,50,92
342720,note_on,0,0,2,,,,,,,,,1,,,59,92
342720,note_on,0,0,2,,,,,,,,,1,,,62,92
342720,note_on,240,0,4,,,,,,,,,3,,,43,92
342720,set_tempo,60,1,0,,,,,,495867,,,,,,,
342720,note_on,0,0,2,,,,,,,,,1,,,67,92
342720,note_on,0,0,2,,,,,,,,,1,,,74,92
342720,note_on,12,0,2,,,,,,,,,1,,,71,92
342720,note_on,240,0,5,,,,,,,,,4,,,31,92
342720,note_on,0,0,4,,,,,,,,,3,,,47,92
343440,note_off,720,0,2,,,,,,,,,1,,,59,0
343440,note_off,0,0,2,,,,,,,,,1,,,62,0
343440,note_on,0,0,2,,,,,,,,,1,,,67,75
343440,note_off,0,0,2,,,,,,,,,1,,,71,0
343440,note_off,0,0,2,,,,,,,,,1,,,74,0
343440,note_off,0,0,2,,,,,,,,,1,,,67,0
343440,note_off,720,0,1,,,,,,,,,0,,,79,0
343440,note_on,0,0,1,,,,,,,,,0,,,79,75
343500,note_off,60,0,2,,,,,,,,,1,,,67,0
343500,note_on,0,0,2,,,,,,,,,1,,,65,74
343500,note_on,0,0,1,,,,,,,,,0,,,77,74
343500,note_off,60,0,1,,,,,,,,,0,,,79,0
343560,note_on,0,0,1,,,,,,,,,0,,,75,72
343560,note_off,60,0,1,,,,,,,,,0,,,77,0
343560,note_on,0,0,2,,,,,,,,,1,,,63,72
343560,note_off,60,0,2,,,,,,,,,1,,,65,0
343620,note_on,0,0,2,,,,,,,,,1,,,62,71
343620,note_on,0,0,1,,,,,,,,,0,,,74,71
343620,note_off,60,0,1,,,,,,,,,0,,,75,0
343620,note_off,60,0,2,,,,,,,,,1,,,63,0
343620,set_tempo,900,1,0,,,,,,500000,,,,,,,
343680,note_on,0,0,4,,,,,,,,,3,,,51,70
343680,note_off,0,0,4,,,,,,,,,3,,,47,0
343680,note_off,0,0,4,,,,,,,,,3,,,43,0
343680,note_on,0,0,4,,,,,,,,,3,,,55,70
343680,note_on,0,0,5,,,,,,,,,4,,,36,70
343680,note_off,960,0,5,,,,,,,,,4,,,31,0
343680,note_on,0,0,2,,,,,,,,,1,,,63,70
343680,note_off,0,0,4,,,,,,,,,3,,,50,0
343680,note_on,0,0,1,,,,,,,,,0,,,75,70
343680,note_on,0,0,4,,,,,,,,,3,,,48,70
343680,note_off,960,0,4,,,,,,,,,3,,,55,0
343680,note_off,60,0,1,,,,,,,,,0,,,74,0
343680,note_off,60,0,2,,,,,,,,,1,,,62,0
343836,note_off,156,0,4,,,,,,,,,3,,,48,0
343836,note_off,0,0,4,,,,,,,,,3,,,55,0
343836,note_off,0,0,4,,,,,,,,,3,,,51,0
343836,note_off,156,0,5,,,,,,,,,4,,,36,0
343920,note_on,0,0,1,,,,,,,,,0,,,84,72
343920,note_off,240,0,1,,,,,,,,,0,,,75,0
343920,note_on,84,0,4,,,,,,,,,3,,,60,72
343920,note_on,0,0,2,,,,,,,,,1,,,72,72
343920,note_on,0,0,2,,,,,,,,,1,,,68,72
343920,note_on,0,0,2,,,,,,,,,1,,,80,72
343920,note_off,240,0,2,,,,,,,,,1,,,63,0
343920,note_on,0,0,4,,,,,,,,,3,,,44,72
343920,note_on,0,0,4,,,,,,,,,3,,,56,72
343920,note_on,84,0,5,,,,,,,,,4,,,32,72
343927,set_tempo,307,1,0,,,,,,495867,,,,,,,
344076,note_off,156,0,5,,,,,,,,,4,,,32,0
344076,note_off,0,0,4,,,,,,,,,3,,,56,0
344076,note_off,156,0,4,,,,,,,,,3,,,44,0
344076,note_off,0,0,4,,,,,,,,,3,,,60,0
344100,note_on,0,0,2,,,,,,,,,1,,,65,69
344100,note_on,0,0,2,,,,,,,,,1,,,77,69
344100,note_off,0,0,2,,,,,,,,,1,,,80,0
344100,note_off,0,0,2,,,,,,,,,1,,,68,0
344100,note_off,180,0,2,,,,,,,,,1,,,72,0
344100,note_on,0,0,2,,,,,,,,,1,,,68,69
344100,note_off,180,0,1,,,,,,,,,0,,,84,0
344100,note_on,0,0,1,,,,,,,,,0,,,80,69
344160,note_on,0,0,4,,,,,,,,,3,,,46,68
344160,note_on,0,0,1,,,,,,,,,0,,,79,68
344160,note_on,84,0,5,,,,,,,,,4,,,34,68
344160,note_off,60,0,1,,,,,,,,,0,,,80,0
344160,note_off,60,0,2,,,,,,,,,1,,,68,0
344160,note_on,84,0,4,,,,,,,,,3,,,55,68
344160,note_off,0,0,2,,,,,,,,,1,,,65,0
344160,note_off,0,0,2,,,,,,,,,1,,,77,0
344160,note_on,0,0,2,,,,,,,,,1,,,75,68
344160,note_on,0,0,2,,,,,,,,,1,,,63,68
344160,note_on,0,0,2,,,,,,,,,1,,,67,68
344160,note_on,0,0,4,,,,,,,,,3,,,58,68
344280,note_off,120,0,1,,,,,,,,,0,,,79,0
344280,note_off,0,0,2,,,,,,,,,1,,,75,0
344280,note_off,120,0,2,,,,,,,,,1,,,67,0
344280,note_off,0,0,2,,,,,,,,,1,,,63,0
344316,note_off,156,0,5,,,,,,,,,4,,,34,0
344316,note_off,0,0,4,,,,,,,,,3,,,55,0
344316,note_off,0,0,4,,,,,,,,,3,,,58,0
344316,note_off,156,0,4,,,,,,,,,3,,,46,0
344380,set_tempo,453,1,0,,,,,,638297,,,,,,,
344400,note_on,0,0,4,,,,,,,,,3,,,46,64
344400,note_on,84,0,5,,,,,,,,,4,,,34,64
344400,note_on,84,0,4,,,,,,,,,3,,,58,64
344400,note_on,120,0,1,,,,,,,,,0,,,77,64
344400,note_on,120,0,2,,,,,,,,,1,,,74,64
344400,note_on,0,0,2,,,,,,,,,1,,,65,64
344400,note_on,0,0,2,,,,,,,,,1,,,62,64
344520,note_off,120,0,1,,,,,,,,,0,,,77,0
344520,note_off,0,0,2,,,,,,,,,1,,,62,0
344520,note_off,0,0,2,,,,,,,,,1,,,74,0
344520,note_off,120,0,2,,,,,,,,,1,,,65,0
344556,note_off,156,0,5,,,,,,,,,4,,,34,0
344556,note_off,0,0,4,,,,,,,,,3,,,58,0
344556,note_off,156,0,4,,,,,,,,,3,,,46,0
344640,set_tempo,260,1,0,,,,,,495867,,,,,,,
344640,note_on,120,0,2,,,,,,,,,1,,,74,79
344640,note_on,0,0,4,,,,,,,,,3,,,50,79
344640,note_on,120,0,1,,,,,,,,,0,,,79,79
344640,note_on,84,0,5,,,,,,,,,4,,,31,79
344640,note_on,0,0,2,,,,,,,,,1,,,59,79
344640,note_on,0,0,4,,,,,,,,,3,,,55,79
344640,note_on,0,0,4,,,,,,,,,3,,,47,79
344640,note_on,84,0,4,,,,,,,,,3,,,43,79
344640,note_on,0,0,2,,,,,,,,,1,,,67,79
344640,note_on,0,0,2,,,,,,,,,1,,,62,79
344640,note_on,0,0,2,,,,,,,,,1,,,71,79
345360,note_off,720,0,1,,,,,,,,,0,,,79,0
345360,note_on,0,0,1,,,,,,,,,0,,,79,64
345360,note_on,0,0,2,,,,,,,,,1,,,67,64
345360,note_off,0,0,2,,,,,,,,,1,,,59,0
345360,note_off,0,0,2,,,,,,,,,1,,,74,0
345360,note_off,0,0,2,,,,,,,,,1,,,62,0
345360,note_off,720,0,2,,,,,,,,,1,,,71,0
345360,note_off,0,0,2,,,,,,,,,1,,,67,0
345420,note_off,60,0,2,,,,,,,,,1,,,67,0
345420,note_on,0,0,2,,,,,,,,,1,,,65,63
345420,note_off,60,0,1,,,,,,,,,0,,,79,0
345420,note_on,0,0,1,,,,,,,,,0,,,77,63
345480,note_off,60,0,2,,,,,,,,,1,,,65,0
345480,note_on,0,0,2,,,,,,,,,1,,,63,61
345480,note_on,0,0,1,,,,,,,,,0,,,75,61
345480,note_off,60,0,1,,,,,,,,,0,,,77,0
345540,set_tempo,900,1,0,,,,,,500000,,,,,,,
345540,note_off,60,0,1,,,,,,,,,0,,,75,0
345540,note_off,60,0,2,,,,,,,,,1,,,63,0
345540,note_on,0,0,1,,,,,,,,,0,,,74,59
345540,note_on,0,0,2,,,,,,,,,1,,,62,59
345600,note_off,960,0,5,,,,,,,,,4,,,31,0
345600,note_on,0,0,5,,,,,,,,,4,,,36,58
345600,note_on,0,0,1,,,,,,,,,0,,,75,58
345600,note_off,60,0,1,,,,,,,,,0,,,74,0
345600,note_off,60,0,2,,,,,,,,,1,,,62,0
345600,note_on,0,0,2,,,,,,,,,1,,,63,58
345600,note_on,0,0,2,,,,,,,,,1,,,48,58
345600,note_on,0,0,4,,,,,,,,,3,,,55,58
345600,note_on,0,0,4,,,,,,,,,3,,,51,58
345600,note_off,0,0,4,,,,,,,,,3,,,43,0
345600,note_off,0,0,4,,,,,,,,,3,,,47,0
345600,note_off,0,0,4,,,,,,,,,3,,,50,0
345600,note_off,960,0,4,,,,,,,,,3,,,55,0
345840,note_on,0,0,4,,,,,,,,,3,,,55,68
345840,note_off,240,0,5,,,,,,,,,4,,,36,0
345840,note_on,0,0,1,,,,,,,,,0,,,87,68
345840,note_off,240,0,1,,,,,,,,,0,,,75,0
345840,note_on,0,0,4,,,,,,,,,3,,,51,68
345840,note_off,0,0,4,,,,,,,,,3,,,51,0
345840,note_on,0,0,4,,,,,,,,,3,,,60,68
345840,note_on,0,0,2,,,,,,,,,1,,,72,68
345840,note_on,0,0,2,,,,,,,,,1,,,75,68
345840,note_on,0,0,2,,,,,,,,,1,,,84,68
345840,note_off,0,0,2,,,,,,,,,1,,,63,0
345840,note_off,240,0,2,,,,,,,,,1,,,48,0
345840,note_off,240,0,4,,,,,,,,,3,,,55,0
345847,set_tempo,307,1,0,,,,,,495867,,,,,,,
346080,note_off,0,0,4,,,,,,,,,3,,,60,0
346080,note_on,0,0,4,,,,,,,,,3,,,44,63
346080,note_off,0,0,4,,,,,,,,,3,,,55,0
346080,note_off,240,0,4,,,,,,,,,3,,,51,0
346080,note_on,240,0,5,,,,,,,,,4,,,32,63
346320,note_off,240,0,5,,,,,,,,,4,,,32,0
346320,note_on,0,0,1,,,,,,,,,0,,,86,60
346320,note_off,480,0,1,,,,,,,,,0,,,87,0
346320,note_on,0,0,4,,,,,,,,,3,,,51,60
346320,note_on,0,0,4,,,,,,,,,3,,,60,60
346320,note_off,240,0,4,,,,,,,,,3,,,44,0
346320,note_off,480,0,2,,,,,,,,,1,,,72,0
346320,note_off,0,0,2,,,,,,,,,1,,,75,0
346320,note_on,0,0,4,,,,,,,,,3,,,56,60
346320,note_on,0,0,2,,,,,,,,,1,,,70,60
346320,note_on,0,0,2,,,,,,,,,1,,,74,60
346320,note_off,0,0,2,,,,,,,,,1,,,84,0
346320,note_on,0,0,2,,,,,,,,,1,,,82,60
346440,note_off,120,0,1,,,,,,,,,0,,,86,0
346440,note_on,0,0,1,,,,,,,,,0,,,84,58
346440,note_off,0,0,2,,,,,,,,,1,,,82,0
346440,note_on,0,0,2,,,,,,,,,1,,,80,58
346440,note_on,0,0,2,,,,,,,,,1,,,68,58
346440,note_on,0,0,2,,,,,,,,,1,,,72,58
346440,note_off,0,0,2,,,,,,,,,1,,,74,0
346440,note_off,120,0,2,,,,,,,,,1,,,70,0
346500,set_tempo,653,1,0,,,,,,500000,,,,,,,
346518,note_off,78,0,1,,,,,,,,,0,,,84,0
346518,note_off,78,0,2,,,,,,,,,1,,,72,0
346518,note_off,0,0,2,,,,,,,,,1,,,68,0
346518,note_off,0,0,2,,,,,,,,,1,,,80,0
346560,note_off,0,0,4,,,,,,,,,3,,,60,0
346560,note_off,0,0,4,,,,,,,,,3,,,51,0
346560,note_off,240,0,4,,,,,,,,,3,,,56,0
346560,note_on,0,0,4,,,,,,,,,3,,,46,57
346560,set_tempo,60,1,0,,,,,,495867,,,,,,,
346560,note_on,42,0,1,,,,,,,,,0,,,84,57
346560,note_on,240,0,5,,,,,,,,,4,,,34,57
346560,note_on,0,0,2,,,,,,,,,1,,,72,57
346560,note_on,0,0,2,,,,,,,,,1,,,68,57
346560,note_on,42,0,2,,,,,,,,,1,,,80,57
346680,note_on,0,0,2,,,,,,,,,1,,,70,55
346680,note_on,0,0,1,,,,,,,,,0,,,82,55
346680,note_off,120,0,1,,,,,,,,,0,,,84,0
346680,note_on,0,0,2,,,,,,,,,1,,,67,55
346680,note_on,0,0,2,,,,,,,,,1,,,79,55
346680,note_off,0,0,2,,,,,,,,,1,,,80,0
346680,note_off,0,0,2,,,,,,,,,1,,,68,0
346680,note_off,120,0,2,,,,,,,,,1,,,72,0
346758,note_off,78,0,2,,,,,,,,,1,,,67,0
346758,note_off,0,0,2,,,,,,,,,1,,,70,0
346758,note_off,78,0,1,,,,,,,,,0,,,82,0
346758,note_off,0,0,2,,,,,,,,,1,,,79,0
346800,note_off,240,0,5,,,,,,,,,4,,,34,0
346800,note_on,42,0,2,,,,,,,,,1,,,77,54
346800,note_on,0,0,2,,,,,,,,,1,,,65,54
346800,note_on,42,0,1,,,,,,,,,0,,,80,54
346800,note_off,240,0,4,,,,,,,,,3,,,46,0
346800,note_on,0,0,4,,,,,,,,,3,,,51,54
346800,note_on,0,0,4,,,,,,,,,3,,,58,54
346800,note_on,0,0,4,,,,,,,,,3,,,55,54
346800,note_on,0,0,2,,,,,,,,,1,,,68,54
346878,note_off,0,0,2,,,,,,,,,1,,,68,0
346878,note_off,78,0,1,,,,,,,,,0,,,80,0
346878,note_off,0,0,2,,,,,,,,,1,,,77,0
346878,note_off,78,0,2,,,,,,,,,1,,,65,0
346920,note_on,0,0,2,,,,,,,,,1,,,67,52
346920,note_on,0,0,2,,,,,,,,,1,,,63,52
346920,note_on,42,0,2,,,,,,,,,1,,,75,52
346920,note_on,42,0,1,,,,,,,,,0,,,79,52
346998,note_off,0,0,2,,,,,,,,,1,,,75,0
346998,note_off,0,0,2,,,,,,,,,1,,,63,0
346998,note_off,78,0,2,,,,,,,,,1,,,67,0
346998,note_off,78,0,1,,,,,,,,,0,,,79,0
347040,note_on,42,0,1,,,,,,,,,0,,,82,51
347040,note_on,42,0,2,,,,,,,,,1,,,79,51
347040,note_on,0,0,2,,,,,,,,,1,,,70,51
347040,note_on,0,0,2,,,,,,,,,1,,,67,51
347040,note_off,240,0,4,,,,,,,,,3,,,55,0
347040,note_off,0,0,4,,,,,,,,,3,,,58,0
347040,note_on,240,0,5,,,,,,,,,4,,,34,51
347040,note_off,0,0,4,,,,,,,,,3,,,51,0
347040,note_on,0,0,4,,,,,,,,,3,,,46,51
347160,note_on,0,0,2,,,,,,,,,1,,,68,49
347160,note_on,0,0,2,,,,,,,,,1,,,65,49
347160,note_on,0,0,2,,,,,,,,,1,,,77,49
347160,note_off,0,0,2,,,,,,,,,1,,,79,0
347160,note_off,0,0,2,,,,,,,,,1,,,70,0
347160,note_off,120,0,2,,,,,,,,,1,,,67,0
347160,note_on,0,0,1,,,,,,,,,0,,,80,49
347160,note_off,120,0,1,,,,,,,,,0,,,82,0
347238,note_off,78,0,1,,,,,,,,,0,,,80,0
347238,note_off,78,0,2,,,,,,,,,1,,,65,0
347238,note_off,0,0,2,,,,,,,,,1,,,68,0
347238,note_off,0,0,2,,,,,,,,,1,,,77,0
347280,note_on,0,0,4,,,,,,,,,3,,,58,47
347280,note_on,42,0,2,,,,,,,,,1,,,75,47
347280,note_on,0,0,2,,,,,,,,,1,,,63,47
347280,note_on,0,0,2,,,,,,,,,1,,,67,47
347280,note_off,240,0,4,,,,,,,,,3,,,46,0
347280,note_on,42,0,1,,,,,,,,,0,,,79,47
347280,note_off,240,0,5,,,,,,,,,4,,,34,0
347280,note_on,0,0,4,,,,,,,,,3,,,56,47
347358,note_off,0,0,2,,,,,,,,,1,,,63,0
347358,note_off,0,0,2,,,,,,,,,1,,,75,0
347358,note_off,78,0,1,,,,,,,,,0,,,79,0
347358,note_off,78,0,2,,,,,,,,,1,,,67,0
347390,set_tempo,830,1,0,,,,,,508474,,,,,,,
347400,note_on,42,0,2,,,,,,,,,1,,,74,46
347400,note_on,42,0,1,,,,,,,,,0,,,77,46
347400,note_on,0,0,2,,,,,,,,,1,,,62,46
347400,note_on,0,0,2,,,,,,,,,1,,,65,46
347478,note_off,0,0,2,,,,,,,,,1,,,74,0
347478,note_off,78,0,1,,,,,,,,,0,,,77,0
347478,note_off,0,0,2,,,,,,,,,1,,,62,0
347478,note_off,78,0,2,,,,,,,,,1,,,65,0
347520,note_on,0,0,4,,,,,,,,,3,,,58,48
347520,note_on,0,0,4,,,,,,,,,3,,,51,48
347520,note_off,240,0,4,,,,,,,,,3,,,58,0
347520,note_off,0,0,4,,,,,,,,,3,,,56,0
347520,note_on,0,0,4,,,,,,,,,3,,,55,48
347520,note_on,42,0,2,,,,,,,,,1,,,63,48
347520,note_on,42,0,1,,,,,,,,,0,,,75,48
347520,set_tempo,130,1,0,,,,,,487804,,,,,,,
347520,note_on,240,0,5,,,,,,,,,4,,,39,48
347598,note_off,78,0,2,,,,,,,,,1,,,63,0
347598,note_off,78,0,1,,,,,,,,,0,,,75,0
347640,note_on,42,0,1,,,,,,,,,0,,,82,47
347640,note_on,42,0,2,,,,,,,,,1,,,70,47
347718,note_off,78,0,2,,,,,,,,,1,,,70,0
347718,note_off,78,0,1,,,,,,,,,0,,,82,0
347760,note_off,240,0,4,,,,,,,,,3,,,55,0
347760,note_on,42,0,1,,,,,,,,,0,,,79,47
347760,note_on,42,0,2,,,,,,,,,1,,,67,47
347760,note_off,0,0,4,,,,,,,,,3,,,51,0
347760,note_off,0,0,4,,,,,,,,,3,,,58,0
347760,note_off,240,0,5,,,,,,,,,4,,,39,0
347838,note_off,78,0,2,,,,,,,,,1,,,67,0
347838,note_off,78,0,1,,,,,,,,,0,,,79,0
347880,note_on,42,0,1,,,,,,,,,0,,,82,47
347880,note_on,42,0,2,,,,,,,,,1,,,70,47
347958,note_off,78,0,2,,,,,,,,,1,,,70,0
347958,note_off,78,0,1,,,,,,,,,0,,,82,0
348000,note_on,42,0,1,,,,,,,,,0,,,87,47
348000,note_on,42,0,2,,,,,,,,,1,,,75,47
348078,note_off,78,0,2,,,,,,,,,1,,,75,0
348078,note_off,78,0,1,,,,,,,,,0,,,87,0
348120,note_on,42,0,2,,,,,,,,,1,,,70,46
348120,note_on,42,0,1,,,,,,,,,0,,,82,46
348198,note_off,78,0,2,,,,,,,,,1,,,70,0
348198,note_off,78,0,1,,,,,,,,,0,,,82,0
348240,note_on,42,0,2,,,,,,,,,1,,,67,46
348240,note_on,42,0,1,,,,,,,,,0,,,79,46
348318,note_off,78,0,2,,,,,,,,,1,,,67,0
348318,note_off,78,0,1,,,,,,,,,0,,,79,0
348360,note_on,42,0,2,,,,,,,,,1,,,70,46
348360,note_on,42,0,1,,,,,,,,,0,,,82,46
348420,set_tempo,900,1,0,,,,,,495867,,,,,,,
348438,note_off,78,0,2,,,,,,,,,1,,,70,0
348438,note_off,78,0,1,,,,,,,,,0,,,82,0
348480,set_tempo,60,1,0,,,,,,487804,,,,,,,
348480,note_on,42,0,2,,,,,,,,,1,,,74,46
348480,note_on,720,0,4,,,,,,,,,3,,,65,46
348480,note_on,42,0,1,,,,,,,,,0,,,86,46
348480,note_on,0,0,4,,,,,,,,,3,,,58,46
348480,note_on,720,0,5,,,,,,,,,4,,,46,51
348480,note_on,0,0,4,,,,,,,,,3,,,53,46
348480,note_on,0,0,4,,,,,,,,,3,,,62,46
348558,note_off,78,0,1,,,,,,,,,0,,,86,0
348558,note_off,78,0,2,,,,,,,,,1,,,74,0
348600,note_on,42,0,1,,,,,,,,,0,,,82,46
348600,note_on,42,0,2,,,,,,,,,1,,,70,46
348678,note_off,78,0,1,,,,,,,,,0,,,82,0
348678,note_off,78,0,2,,,,,,,,,1,,,70,0
348720,note_on,42,0,2,,,,,,,,,1,,,68,45
348720,note_on,42,0,1,,,,,,,,,0,,,80,45
348798,note_off,78,0,2,,,,,,,,,1,,,68,0
348798,note_off,78,0,1,,,,,,,,,0,,,80,0
348840,note_on,42,0,1,,,,,,,,,0,,,82,45
348840,note_on,42,0,2,,,,,,,,,1,,,70,45
348918,note_off,78,0,1,,,,,,,,,0,,,82,0
348918,note_off,78,0,2,,,,,,,,,1,,,70,0
348960,note_on,42,0,1,,,,,,,,,0,,,86,45
348960,note_off,480,0,4,,,,,,,,,3,,,62,0
348960,note_on,0,0,4,,,,,,,,,3,,,62,45
348960,note_on,0,0,4,,,,,,,,,3,,,53,45
348960,note_off,0,0,4,,,,,,,,,3,,,53,0
348960,note_off,480,0,5,,,,,,,,,4,,,46,0
348960,note_on,0,0,5,,,,,,,,,4,,,46,54
348960,note_off,0,0,4,,,,,,,,,3,,,58,0
348960,note_off,0,0,4,,,,,,,,,3,,,65,0
348960,note_on,0,0,4,,,,,,,,,3,,,65,45
348960,note_on,0,0,4,,,,,,,,,3,,,58,45
348960,note_on,42,0,2,,,,,,,,,1,,,74,45
349038,note_off,78,0,1,,,,,,,,,0,,,86,0
349038,note_off,78,0,2,,,,,,,,,1,,,74,0
349080,note_on,42,0,2,,,,,,,,,1,,,70,45
349080,note_on,42,0,1,,,,,,,,,0,,,82,45
349158,note_off,78,0,2,,,,,,,,,1,,,70,0
349158,note_off,78,0,1,,,,,,,,,0,,,82,0
349200,note_on,42,0,2,,,,,,,,,1,,,68,44
349200,note_on,42,0,1,,,,,,,,,0,,,80,44
349278,note_off,78,0,2,,,,,,,,,1,,,68,0
349278,note_off,78,0,1,,,,,,,,,0,,,80,0
349320,note_off,360,0,5,,,,,,,,,4,,,46,0
349320,note_off,0,0,4,,,,,,,,,3,,,58,0
349320,note_on,42,0,1,,,,,,,,,0,,,82,44
349320,note_on,42,0,2,,,,,,,,,1,,,70,44
349320,note_off,0,0,4,,,,,,,,,3,,,65,0
349320,note_off,0,0,4,,,,,,,,,3,,,62,0
349320,note_off,360,0,4,,,,,,,,,3,,,53,0
349380,note_on,0,0,4,,,,,,,,,3,,,62,44
349380,note_on,0,0,4,,,,,,,,,3,,,58,44
349380,set_tempo,900,1,0,,,,,,495867,,,,,,,
349380,note_on,60,0,5,,,,,,,,,4,,,46,44
349380,note_on,60,0,4,,,,,,,,,3,,,65,44
349380,note_on,0,0,4,,,,,,,,,3,,,53,44
349398,note_off,78,0,1,,,,,,,,,0,,,82,0
349398,note_off,78,0,2,,,,,,,,,1,,,70,0
349440,note_off,60,0,5,,,,,,,,,4,,,46,0
349440,note_on,0,0,4,,,,,,,,,3,,,58,44
349440,note_off,0,0,4,,,,,,,,,3,,,65,0
349440,note_on,0,0,4,,,,,,,,,3,,,67,44
349440,note_on,0,0,4,,,,,,,,,3,,,63,44
349440,note_on,0,0,4,,,,,,,,,3,,,55,44
349440,set_tempo,60,1,0,,,,,,487804,,,,,,,
349440,note_on,42,0,1,,,,,,,,,0,,,87,44
349440,note_off,0,0,4,,,,,,,,,3,,,58,0
349440,note_off,0,0,4,,,,,,,,,3,,,62,0
349440,note_on,42,0,2,,,,,,,,,1,,,75,44
349440,note_on,0,0,5,,,,,,,,,4,,,51,49
349440,note_off,60,0,4,,,,,,,,,3,,,53,0
349518,note_off,78,0,1,,,,,,,,,0,,,87,0
349518,note_off,78,0,2,,,,,,,,,1,,,75,0
349560,note_on,42,0,2,,,,,,,,,1,,,70,44
349560,note_on,42,0,1,,,,,,,,,0,,,82,44
349638,note_off,78,0,1,,,,,,,,,0,,,82,0
349638,note_off,78,0,2,,,,,,,,,1,,,70,0
349680,note_off,240,0,4,,,,,,,,,3,,,55,0
349680,note_off,0,0,4,,,,,,,,,3,,,63,0
349680,note_off,0,0,4,,,,,,,,,3,,,58,0
349680,note_off,0,0,4,,,,,,,,,3,,,67,0
349680,note_on,42,0,1,,,,,,,,,0,,,79,44
349680,note_on,0,0,5,,,,,,,,,4,,,58,59
349680,note_off,240,0,5,,,,,,,,,4,,,51,0
349680,note_on,42,0,2,,,,,,,,,1,,,67,44
349758,note_off,78,0,1,,,,,,,,,0,,,79,0
349758,note_off,78,0,2,,,,,,,,,1,,,67,0
349800,note_on,42,0,1,,,,,,,,,0,,,82,43
349800,note_on,42,0,2,,,,,,,,,1,,,70,43
349878,note_off,78,0,2,,,,,,,,,1,,,70,0
349878,note_off,78,0,1,,,,,,,,,0,,,82,0
349920,note_on,42,0,2,,,,,,,,,1,,,75,43
349920,note_on,42,0,1,,,,,,,,,0,,,87,43
349998,note_off,78,0,1,,,,,,,,,0,,,87,0
349998,note_off,78,0,2,,,,,,,,,1,,,75,0
350040,note_on,42,0,1,,,,,,,,,0,,,82,43
350040,note_on,42,0,2,,,,,,,,,1,,,70,43
350118,note_off,78,0,1,,,,,,,,,0,,,82,0
350118,note_off,78,0,2,,,,,,,,,1,,,70,0
350160,note_on,0,0,5,,,,,,,,,4,,,55,48
350160,note_on,42,0,1,,,,,,,,,0,,,79,43
350160,note_on,42,0,2,,,,,,,,,1,,,67,43
350160,note_off,480,0,5,,,,,,,,,4,,,58,0
350238,note_off,78,0,1,,,,,,,,,0,,,79,0
350238,note_off,78,0,2,,,,,,,,,1,,,67,0
350280,note_on,42,0,1,,,,,,,,,0,,,82,42
350280,note_on,42,0,2,,,,,,,,,1,,,70,42
350340,note_on,0,0,5,,,,,,,,,4,,,51,47
350340,note_off,180,0,5,,,,,,,,,4,,,55,0
350340,set_tempo,900,1,0,,,,,,495867,,,,,,,
350358,note_off,78,0,1,,,,,,,,,0,,,82,0
350358,note_off,78,0,2,,,,,,,,,1,,,70,0
350400,set_tempo,60,1,0,,,,,,487804,,,,,,,
350400,note_on,0,0,5,,,,,,,,,4,,,46,47
350400,note_on,720,0,4,,,,,,,,,3,,,65,42
350400,note_on,0,0,4,,,,,,,,,3,,,53,42
350400,note_on,42,0,2,,,,,,,,,1,,,74,42
350400,note_on,0,0,4,,,,,,,,,3,,,62,42
350400,note_on,0,0,4,,,,,,,,,3,,,58,42
350400,note_off,60,0,5,,,,,,,,,4,,,51,0
350400,note_on,42,0,1,,,,,,,,,0,,,86,42
350400,note_on,0,0,4,,,,,,,,,3,,,56,42
350478,note_off,78,0,2,,,,,,,,,1,,,74,0
350478,note_off,78,0,1,,,,,,,,,0,,,86,0
350520,note_on,42,0,2,,,,,,,,,1,,,70,42
350520,note_on,42,0,1,,,,,,,,,0,,,82,42
350598,note_off,78,0,1,,,,,,,,,0,,,82,0
350598,note_off,78,0,2,,,,,,,,,1,,,70,0
350640,note_on,42,0,1,,,,,,,,,0,,,80,42
350640,note_on,42,0,2,,,,,,,,,1,,,68,42
350718,note_off,78,0,1,,,,,,,,,0,,,80,0
350718,note_off,78,0,2,,,,,,,,,1,,,68,0
350760,note_on,42,0,2,,,,,,,,,1,,,70,42
350760,note_on,42,0,1,,,,,,,,,0,,,82,42
350838,note_off,78,0,1,,,,,,,,,0,,,82,0
350838,note_off,78,0,2,,,,,,,,,1,,,70,0
350880,note_on,42,0,1,,,,,,,,,0,,,86,41
350880,note_on,0,0,4,,,,,,,,,3,,,65,41
350880,note_on,0,0,4,,,,,,,,,3,,,62,41
350880,note_on,0,0,4,,,,,,,,,3,,,58,41
350880,note_on,0,0,4,,,,,,,,,3,,,56,41
350880,note_on,0,0,4,,,,,,,,,3,,,53,41
350880,note_off,0,0,4,,,,,,,,,3,,,65,0
350880,note_off,0,0,4,,,,,,,,,3,,,58,0
350880,note_off,0,0,4,,,,,,,,,3,,,62,0
350880,note_off,0,0,4,,,,,,,,,3,,,56,0
350880,note_off,480,0,4,,,,,,,,,3,,,53,0
350880,note_on,42,0,2,,,,,,,,,1,,,74,41
350880,note_on,0,0,5,,,,,,,,,4,,,46,46
350880,note_off,480,0,5,,,,,,,,,4,,,46,0
350958,note_off,78,0,2,,,,,,,,,1,,,74,0
350958,note_off,78,0,1,,,,,,,,,0,,,86,0
351000,note_on,42,0,1,,,,,,,,,0,,,82,41
351000,note_on,42,0,2,,,,,,,,,1,,,70,41
351078,note_off,78,0,2,,,,,,,,,1,,,70,0
351078,note_off,78,0,1,,,,,,,,,0,,,82,0
351120,note_on,42,0,2,,,,,,,,,1,,,68,41
351120,note_on,42,0,1,,,,,,,,,0,,,80,41
351198,note_off,78,0,1,,,,,,,,,0,,,80,0
351198,note_off,78,0,2,,,,,,,,,1,,,68,0
351240,note_on,42,0,1,,,,,,,,,0,,,82,41
351240,note_off,0,0,4,,,,,,,,,3,,,65,0
351240,note_off,0,0,4,,,,,,,,,3,,,58,0
351240,note_off,0,0,4,,,,,,,,,3,,,56,0
351240,note_on,42,0,2,,,,,,,,,1,,,70,41
351240,note_off,360,0,5,,,,,,,,,4,,,46,0
351240,note_off,360,0,4,,,,,,,,,3,,,62,0
351240,note_off,0,0,4,,,,,,,,,3,,,53,0
351300,set_tempo,900,1,0,,,,,,495867,,,,,,,
351300,note_on,0,0,4,,,,,,,,,3,,,62,41
351300,note_on,0,0,4,,,,,,,,,3,,,58,41
351300,note_on,0,0,4,,,,,,,,,3,,,56,41
351300,note_on,0,0,4,,,,,,,,,3,,,53,41
351300,note_on,60,0,4,,,,,,,,,3,,,65,41
351300,note_on,60,0,5,,,,,,,,,4,,,46,46
351318,note_off,78,0,2,,,,,,,,,1,,,70,0
351318,note_off,78,0,1,,,,,,,,,0,,,82,0
351360,note_on,42,0,1,,,,,,,,,0,,,87,40
351360,set_tempo,60,1,0,,,,,,487804,,,,,,,
351360,note_on,0,0,4,,,,,,,,,3,,,55,40
351360,note_on,0,0,5,,,,,,,,,4,,,39,45
351360,note_off,60,0,5,,,,,,,,,4,,,46,0
351360,note_on,42,0,2,,,,,,,,,1,,,79,40
351360,note_on,0,0,2,,,,,,,,,1,,,67,40
351360,note_on,0,0,2,,,,,,,,,1,,,75,40
351360,note_on,0,0,4,,,,,,,,,3,,,51,40
351360,note_on,0,0,4,,,,,,,,,3,,,63,40
351360,note_off,0,0,4,,,,,,,,,3,,,65,0
351360,note_off,0,0,4,,,,,,,,,3,,,53,0
351360,note_off,0,0,4,,,,,,,,,3,,,56,0
351360,note_off,0,0,4,,,,,,,,,3,,,58,0
351360,note_off,60,0,4,,,,,,,,,3,,,62,0
351360,note_on,0,0,4,,,,,,,,,3,,,58,40
351438,note_off,0,0,4,,,,,,,,,3,,,55,0
351438,note_off,78,0,5,,,,,,,,,4,,,39,0
351438,note_off,0,0,4,,,,,,,,,3,,,63,0
351438,note_off,0,0,4,,,,,,,,,3,,,51,0
351438,note_off,78,0,4,,,,,,,,,3,,,58,0
351480,note_on,42,0,4,,,,,,,,,3,,,58,40
351480,note_on,42,0,5,,,,,,,,,4,,,46,40
351558,note_off,78,0,4,,,,,,,,,3,,,58,0
351558,note_off,78,0,5,,,,,,,,,4,,,46,0
351600,note_on,42,0,4,,,,,,,,,3,,,55,40
351600,note_on,42,0,5,,,,,,,,,4,,,43,40
351678,note_off,78,0,5,,,,,,,,,4,,,43,0
351678,note_off,78,0,4,,,,,,,,,3,,,55,0
351720,note_on,42,0,5,,,,,,,,,4,,,46,40
351720,note_on,42,0,4,,,,,,,,,3,,,58,40
351798,note_off,78,0,5,,,,,,,,,4,,,46,0
351798,note_off,78,0,4,,,,,,,,,3,,,58,0
351840,note_off,480,0,2,,,,,,,,,1,,,75,0
351840,note_off,0,0,2,,,,,,,,,1,,,67,0
351840,note_off,0,0,2,,,,,,,,,1,,,79,0
351840,note_on,42,0,4,,,,,,,,,3,,,63,40
351840,note_on,42,0,5,,,,,,,,,4,,,51,40
351840,note_off,480,0,1,,,,,,,,,0,,,87,0
351918,note_off,78,0,4,,,,,,,,,3,,,63,0
351918,note_off,78,0,5,,,,,,,,,4,,,51,0
351960,note_on,42,0,5,,,,,,,,,4,,,46,39
351960,note_on,42,0,4,,,,,,,,,3,,,58,39
352038,note_off,78,0,5,,,,,,,,,4,,,46,0
352038,note_off,78,0,4,,,,,,,,,3,,,58,0
352080,note_on,42,0,4,,,,,,,,,3,,,55,39
352080,note_on,42,0,5,,,,,,,,,4,,,43,39
352158,note_off,78,0,4,,,,,,,,,3,,,55,0
352158,note_off,78,0,5,,,,,,,,,4,,,43,0
352200,note_on,42,0,5,,,,,,,,,4,,,46,39
352200,note_on,42,0,4,,,,,,,,,3,,,58,39
352260,set_tempo,900,1,0,,,,,,508474,,,,,,,
352278,note_off,78,0,5,,,,,,,,,4,,,46,0
352278,note_off,78,0,4,,,,,,,,,3,,,58,0
352320,note_on,480,0,1,,,,,,,,,0,,,77,39
352320,note_on,42,0,4,,,,,,,,,3,,,50,39
352320,note_on,0,0,4,,,,,,,,,3,,,62,39
352320,set_tempo,60,1,0,,,,,,487804,,,,,,,
352320,note_on,42,0,5,,,,,,,,,4,,,34,39
352320,note_on,480,0,2,,,,,,,,,1,,,65,39
352320,note_on,0,0,2,,,,,,,,,1,,,70,39
352320,note_on,0,0,2,,,,,,,,,1,,,74,39
352398,note_off,0,0,4,,,,,,,,,3,,,50,0
352398,note_off,78,0,4,,,,,,,,,3,,,62,0
352398,note_off,78,0,5,,,,,,,,,4,,,34,0
352440,note_on,42,0,4,,,,,,,,,3,,,58,38
352440,note_on,42,0,5,,,,,,,,,4,,,46,38
352518,note_off,78,0,4,,,,,,,,,3,,,58,0
352518,note_off,78,0,5,,,,,,,,,4,,,46,0
352560,note_on,42,0,5,,,,,,,,,4,,,44,38
352560,note_on,42,0,4,,,,,,,,,3,,,56,38
352638,note_off,78,0,4,,,,,,,,,3,,,56,0
352638,note_off,78,0,5,,,,,,,,,4,,,44,0
352680,note_on,42,0,5,,,,,,,,,4,,,46,38
352680,note_on,42,0,4,,,,,,,,,3,,,58,38
352758,note_off,78,0,5,,,,,,,,,4,,,46,0
352758,note_off,78,0,4,,,,,,,,,3,,,58,0
352800,note_on,0,0,1,,,,,,,,,0,,,77,38
352800,note_on,42,0,5,,,,,,,,,4,,,34,38
352800,note_off,480,0,1,,,,,,,,,0,,,77,0
352800,note_on,0,0,2,,,,,,,,,1,,,70,38
352800,note_on,0,0,2,,,,,,,,,1,,,74,38
352800,note_off,480,0,2,,,,,,,,,1,,,74,0
352800,note_on,0,0,4,,,,,,,,,3,,,62,38
352800,note_on,42,0,4,,,,,,,,,3,,,50,38
352800,note_off,0,0,2,,,,,,,,,1,,,65,0
352800,note_off,0,0,2,,,,,,,,,1,,,70,0
352800,note_on,0,0,2,,,,,,,,,1,,,65,38
352878,note_off,78,0,4,,,,,,,,,3,,,62,0
352878,note_off,78,0,5,,,,,,,,,4,,,34,0
352878,note_off,0,0,4,,,,,,,,,3,,,50,0
352920,note_on,42,0,5,,,,,,,,,4,,,46,38
352920,note_on,42,0,4,,,,,,,,,3,,,58,38
352998,note_off,78,0,5,,,,,,,,,4,,,46,0
352998,note_off,78,0,4,,,,,,,,,3,,,58,0
353040,note_on,42,0,4,,,,,,,,,3,,,56,37
353040,note_on,42,0,5,,,,,,,,,4,,,44,37
353118,note_off,78,0,5,,,,,,,,,4,,,44,0
353118,note_off,78,0,4,,,,,,,,,3,,,56,0
353160,note_on,42,0,4,,,,,,,,,3,,,58,37
353160,note_on,42,0,5,,,,,,,,,4,,,46,37
353160,note_off,360,0,1,,,,,,,,,0,,,77,0
353160,note_off,360,0,2,,,,,,,,,1,,,70,0
353160,note_off,0,0,2,,,,,,,,,1,,,65,0
353160,note_off,0,0,2,,,,,,,,,1,,,74,0
353220,set_tempo,900,1,0,,,,,,495867,,,,,,,
353220,note_on,60,0,1,,,,,,,,,0,,,77,37
353220,note_on,60,0,2,,,,,,,,,1,,,65,37
353220,note_on,0,0,2,,,,,,,,,1,,,74,37
353220,note_on,0,0,2,,,,,,,,,1,,,70,37
353238,note_off,78,0,4,,,,,,,,,3,,,58,0
353238,note_off,78,0,5,,,,,,,,,4,,,46,0
353280,set_tempo,60,1,0,,,,,,487804,,,,,,,
353280,note_on,42,0,5,,,,,,,,,4,,,39,37
353280,note_on,0,0,1,,,,,,,,,0,,,79,37
353280,note_off,60,0,1,,,,,,,,,0,,,77,0
353280,note_on,0,0,2,,,,,,,,,1,,,70,37
353280,note_off,60,0,2,,,,,,,,,1,,,70,0
353280,note_on,0,0,2,,,,,,,,,1,,,75,37
353280,note_on,42,0,4,,,,,,,,,3,,,51,37
353280,note_on,0,0,4,,,,,,,,,3,,,63,37
353280,note_on,0,0,2,,,,,,,,,1,,,67,37
353280,note_off,0,0,2,,,,,,,,,1,,,65,0
353280,note_off,0,0,2,,,,,,,,,1,,,74,0
353358,note_off,0,0,4,,,,,,,,,3,,,51,0
353358,note_off,78,0,5,,,,,,,,,4,,,39,0
353358,note_off,78,0,4,,,,,,,,,3,,,63,0
353400,note_on,42,0,5,,,,,,,,,4,,,46,37
353400,note_on,42,0,4,,,,,,,,,3,,,58,37
353478,note_off,78,0,5,,,,,,,,,4,,,46,0
353478,note_off,78,0,4,,,,,,,,,3,,,58,0
353520,note_on,42,0,5,,,,,,,,,4,,,43,43
353520,note_off,240,0,2,,,,,,,,,1,,,70,0
353520,note_off,0,0,2,,,,,,,,,1,,,67,0
353520,note_on,0,0,2,,,,,,,,,1,,,70,53
353520,note_off,240,0,1,,,,,,,,,0,,,79,0
353520,note_off,0,0,2,,,,,,,,,1,,,75,0
353520,note_on,42,0,4,,,,,,,,,3,,,55,43
353520,note_on,0,0,1,,,,,,,,,0,,,82,53
353598,note_off,78,0,4,,,,,,,,,3,,,55,0
353598,note_off,78,0,5,,,,,,,,,4,,,43,0
353640,note_on,42,0,4,,,,,,,,,3,,,58,36
353640,note_on,42,0,5,,,,,,,,,4,,,46,36
353718,note_off,78,0,4,,,,,,,,,3,,,58,0
353718,note_off,78,0,5,,,,,,,,,4,,,46,0
353760,note_on,42,0,4,,,,,,,,,3,,,51,36
353760,note_on,0,0,4,,,,,,,,,3,,,63,36
353760,note_on,42,0,5,,,,,,,,,4,,,39,36
353838,note_off,78,0,5,,,,,,,,,4,,,39,0
353838,note_off,78,0,4,,,,,,,,,3,,,63,0
353838,note_off,0,0,4,,,,,,,,,3,,,51,0
353880,note_on,42,0,5,,,,,,,,,4,,,46,36
353880,note_on,42,0,4,,,,,,,,,3,,,58,36
353958,note_off,78,0,4,,,,,,,,,3,,,58,0
353958,note_off,78,0,5,,,,,,,,,4,,,46,0
354000,note_on,42,0,4,,,,,,,,,3,,,55,36
354000,note_on,0,0,2,,,,,,,,,1,,,67,36
354000,note_off,480,0,1,,,,,,,,,0,,,82,0
354000,note_on,0,0,1,,,,,,,,,0,,,79,36
354000,note_off,480,0,2,,,,,,,,,1,,,70,0
354000,note_on,42,0,5,,,,,,,,,4,,,43,36
354078,note_off,78,0,5,,,,,,,,,4,,,43,0
354078,note_off,78,0,4,,,,,,,,,3,,,55,0
354120,note_on,42,0,5,,,,,,,,,4,,,46,35
354120,note_on,42,0,4,,,,,,,,,3,,,58,35
354180,note_on,0,0,1,,,,,,,,,0,,,75,35
354180,note_off,180,0,1,,,,,,,,,0,,,79,0
354180,note_on,60,0,4,,,,,,,,,3,,,63,35
354180,set_tempo,900,1,0,,,,,,495867,,,,,,,
354180,note_off,180,0,2,,,,,,,,,1,,,67,0
354198,note_off,78,0,5,,,,,,,,,4,,,46,0
354198,note_off,18,0,4,,,,,,,,,3,,,58,0
354240,note_on,0,0,2,,,,,,,,,1,,,65,35
354240,note_off,42,0,4,,,,,,,,,3,,,63,0
354240,note_on,0,0,2,,,,,,,,,1,,,70,35
354240,set_tempo,60,1,0,,,,,,487804,,,,,,,
354240,note_on,0,0,4,,,,,,,,,3,,,50,35
354240,note_off,60,0,1,,,,,,,,,0,,,75,0
354240,note_on,0,0,1,,,,,,,,,0,,,77,35
354240,note_on,42,0,5,,,,,,,,,4,,,34,35
354240,note_on,60,0,2,,,,,,,,,1,,,74,35
354240,note_on,0,0,4,,,,,,,,,3,,,62,35
354318,note_off,0,0,4,,,,,,,,,3,,,50,0
354318,note_off,78,0,4,,,,,,,,,3,,,62,0
354318,note_off,78,0,5,,,,,,,,,4,,,34,0
354360,note_on,42,0,4,,,,,,,,,3,,,58,35
354360,note_on,42,0,5,,,,,,,,,4,,,46,35
354438,note_off,78,0,5,,,,,,,,,4,,,46,0
354438,note_off,78,0,4,,,,,,,,,3,,,58,0
354480,note_on,42,0,5,,,,,,,,,4,,,44,35
354480,note_on,42,0,4,,,,,,,,,3,,,56,35
354558,note_off,78,0,4,,,,,,,,,3,,,56,0
354558,note_off,78,0,5,,,,,,,,,4,,,44,0
354600,note_on,42,0,5,,,,,,,,,4,,,46,34
354600,note_on,42,0,4,,,,,,,,,3,,,58,34
354678,note_off,78,0,4,,,,,,,,,3,,,58,0
354678,note_off,78,0,5,,,,,,,,,4,,,46,0
354720,note_off,480,0,1,,,,,,,,,0,,,77,0
354720,note_on,0,0,1,,,,,,,,,0,,,77,34
354720,note_on,42,0,5,,,,,,,,,4,,,34,34
354720,note_on,0,0,2,,,,,,,,,1,,,65,34
354720,note_off,480,0,2,,,,,,,,,1,,,65,0
354720,note_off,0,0,2,,,,,,,,,1,,,70,0
354720,note_off,0,0,2,,,,,,,,,1,,,74,0
354720,note_on,0,0,2,,,,,,,,,1,,,74,34
354720,note_on,0,0,2,,,,,,,,,1,,,70,34
354720,note_on,0,0,4,,,,,,,,,3,,,62,34
354720,note_on,42,0,4,,,,,,,,,3,,,50,34
354798,note_off,0,0,4,,,,,,,,,3,,,50,0
354798,note_off,78,0,4,,,,,,,,,3,,,62,0
354798,note_off,78,0,5,,,,,,,,,4,,,34,0
354840,note_on,42,0,4,,,,,,,,,3,,,58,34
354840,note_on,42,0,5,,,,,,,,,4,,,46,34
354918,note_off,78,0,4,,,,,,,,,3,,,58,0
354918,note_off,78,0,5,,,,,,,,,4,,,46,0
354960,note_on,42,0,5,,,,,,,,,4,,,44,34
354960,note_on,42,0,4,,,,,,,,,3,,,56,34
355038,note_off,78,0,5,,,,,,,,,4,,,44,0
355038,note_off,78,0,4,,,,,,,,,3,,,56,0
355080,note_on,42,0,5,,,,,,,,,4,,,46,34
355080,note_off,360,0,1,,,,,,,,,0,,,77,0
355080,note_off,0,0,2,,,,,,,,,1,,,74,0
355080,note_off,0,0,2,,,,,,,,,1,,,70,0
355080,note_off,360,0,2,,,,,,,,,1,,,65,0
355080,note_on,42,0,4,,,,,,,,,3,,,58,34
355140,set_tempo,900,1,0,,,,,,495867,,,,,,,
355140,note_on,60,0,2,,,,,,,,,1,,,74,33
355140,note_on,0,0,2,,,,,,,,,1,,,70,33
355140,note_on,0,0,2,,,,,,,,,1,,,65,33
355140,note_on,60,0,1,,,,,,,,,0,,,77,33
355158,note_off,78,0,5,,,,,,,,,4,,,46,0
355158,note_off,78,0,4,,,,,,,,,3,,,58,0
355200,note_on,0,0,2,,,,,,,,,1,,,70,33
355200,set_tempo,60,1,0,,,,,,487804,,,,,,,
355200,note_on,0,0,1,,,,,,,,,0,,,75,33
355200,note_off,60,0,1,,,,,,,,,0,,,77,0
355200,note_on,42,0,5,,,,,,,,,4,,,39,33
355200,note_on,42,0,4,,,,,,,,,3,,,55,33
355200,note_off,0,0,2,,,,,,,,,1,,,74,0
355200,note_off,0,0,2,,,,,,,,,1,,,70,0
355200,note_off,60,0,2,,,,,,,,,1,,,65,0
355200,note_on,0,0,2,,,,,,,,,1,,,67,33
355278,note_off,78,0,4,,,,,,,,,3,,,55,0
355278,note_off,78,0,5,,,,,,,,,4,,,39,0
355320,note_on,42,0,5,,,,,,,,,4,,,39,33
355320,note_on,42,0,4,,,,,,,,,3,,,51,33
355392,note_off,192,0,2,,,,,,,,,1,,,67,0
355392,note_off,0,0,2,,,,,,,,,1,,,70,0
355392,note_off,192,0,1,,,,,,,,,0,,,75,0
355398,note_off,78,0,4,,,,,,,,,3,,,51,0
355398,note_off,78,0,5,,,,,,,,,4,,,39,0
355440,note_on,42,0,4,,,,,,,,,3,,,55,33
355440,note_on,0,0,2,,,,,,,,,1,,,67,33
355440,note_on,0,0,2,,,,,,,,,1,,,70,33
355440,note_on,0,0,2,,,,,,,,,1,,,82,33
355440,note_on,48,0,1,,,,,,,,,0,,,87,33
355440,note_on,42,0,5,,,,,,,,,4,,,43,33
355440,note_on,48,0,2,,,,,,,,,1,,,79,33
355518,note_off,78,0,5,,,,,,,,,4,,,43,0
355518,note_off,78,0,4,,,,,,,,,3,,,55,0
355536,note_off,0,0,2,,,,,,,,,1,,,79,0
355536,note_off,0,0,2,,,,,,,,,1,,,82,0
355536,note_off,0,0,2,,,,,,,,,1,,,67,0
355536,note_off,96,0,2,,,,,,,,,1,,,70,0
355536,note_off,96,0,1,,,,,,,,,0,,,87,0
355560,note_on,42,0,5,,,,,,,,,4,,,46,33
355560,note_on,42,0,4,,,,,,,,,3,,,58,33
355620,note_on,0,0,2,,,,,,,,,1,,,70,33
355620,note_on,84,0,1,,,,,,,,,0,,,87,33
355620,note_on,0,0,2,,,,,,,,,1,,,79,33
355620,note_on,0,0,2,,,,,,,,,1,,,67,33
355620,note_on,84,0,2,,,,,,,,,1,,,82,33
355638,note_off,78,0,5,,,,,,,,,4,,,46,0
355638,note_off,78,0,4,,,,,,,,,3,,,58,0
355668,note_off,48,0,2,,,,,,,,,1,,,70,0
355668,note_off,0,0,2,,,,,,,,,1,,,82,0
355668,note_off,0,0,2,,,,,,,,,1,,,79,0
355668,note_off,48,0,1,,,,,,,,,0,,,87,0
355668,note_off,0,0,2,,,,,,,,,1,,,67,0
355680,note_on,42,0,5,,,,,,,,,4,,,39,32
355680,note_on,0,0,2,,,,,,,,,1,,,79,32
355680,note_on,42,0,4,,,,,,,,,3,,,51,32
355680,note_on,12,0,2,,,,,,,,,1,,,75,32
355680,note_on,12,0,1,,,,,,,,,0,,,87,32
355680,note_on,0,0,2,,,,,,,,,1,,,67,32
355680,note_on,0,0,2,,,,,,,,,1,,,63,32
355758,note_off,78,0,5,,,,,,,,,4,,,39,0
355758,note_off,78,0,4,,,,,,,,,3,,,51,0
355800,note_on,42,0,4,,,,,,,,,3,,,51,32
355800,note_on,42,0,5,,,,,,,,,4,,,39,32
355872,note_off,0,0,2,,,,,,,,,1,,,63,0
355872,note_off,0,0,2,,,,,,,,,1,,,79,0
355872,note_off,0,0,2,,,,,,,,,1,,,75,0
355872,note_off,192,0,1,,,,,,,,,0,,,87,0
355872,note_off,192,0,2,,,,,,,,,1,,,67,0
355878,note_off,78,0,4,,,,,,,,,3,,,51,0
355878,note_off,78,0,5,,,,,,,,,4,,,39,0
355920,note_on,48,0,2,,,,,,,,,1,,,82,32
355920,note_on,0,0,2,,,,,,,,,1,,,79,32
355920,note_on,48,0,1,,,,,,,,,0,,,87,32
355920,note_on,42,0,5,,,,,,,,,4,,,43,32
355920,note_on,0,0,2,,,,,,,,,1,,,67,32
355920,note_on,0,0,2,,,,,,,,,1,,,70,32
355920,note_on,42,0,4,,,,,,,,,3,,,55,32
355998,note_off,78,0,5,,,,,,,,,4,,,43,0
355998,note_off,78,0,4,,,,,,,,,3,,,55,0
356040,note_on,42,0,5,,,,,,,,,4,,,46,32
356040,note_on,42,0,4,,,,,,,,,3,,,58,32
356064,note_off,0,0,2,,,,,,,,,1,,,67,0
356064,note_off,0,0,2,,,,,,,,,1,,,79,0
356064,note_off,144,0,2,,,,,,,,,1,,,70,0
356064,note_off,144,0,1,,,,,,,,,0,,,87,0
356064,note_off,0,0,2,,,,,,,,,1,,,82,0
356100,note_on,36,0,2,,,,,,,,,1,,,79,32
356100,note_on,0,0,2,,,,,,,,,1,,,82,32
356100,note_on,36,0,1,,,,,,,,,0,,,87,32
356100,note_on,0,0,2,,,,,,,,,1,,,70,32
356100,note_on,0,0,2,,,,,,,,,1,,,67,32
356100,set_tempo,900,1,0,,,,,,500000,,,,,,,
356118,note_off,78,0,4,,,,,,,,,3,,,58,0
356118,note_off,78,0,5,,,,,,,,,4,,,46,0
356148,note_off,0,0,2,,,,,,,,,1,,,67,0
356148,note_off,0,0,2,,,,,,,,,1,,,82,0
356148,note_off,0,0,2,,,,,,,,,1,,,79,0
356148,note_off,48,0,1,,,,,,,,,0,,,87,0
356148,note_off,48,0,2,,,,,,,,,1,,,70,0
356160,set_tempo,60,1,0,,,,,,517241,,,,,,,
356160,note_on,42,0,5,,,,,,,,,4,,,39,32
356160,note_on,12,0,1,,,,,,,,,0,,,87,32
356160,note_on,12,0,2,,,,,,,,,1,,,75,32
356160,note_on,0,0,2,,,,,,,,,1,,,79,32
356160,note_on,0,0,2,,,,,,,,,1,,,63,32
356160,note_on,0,0,2,,,,,,,,,1,,,67,32
356160,note_on,42,0,4,,,,,,,,,3,,,51,32
356316,note_off,0,0,2,,,,,,,,,1,,,63,0
356316,note_off,156,0,2,,,,,,,,,1,,,67,0
356316,note_off,156,0,4,,,,,,,,,3,,,51,0
356316,note_off,0,0,2,,,,,,,,,1,,,79,0
356316,note_off,156,0,5,,,,,,,,,4,,,39,0
356316,note_off,0,0,2,,,,,,,,,1,,,75,0
356316,note_off,156,0,1,,,,,,,,,0,,,87,0
356400,note_on,84,0,2,,,,,,,,,1,,,75,31
356400,note_on,84,0,4,,,,,,,,,3,,,51,31
356400,note_on,0,0,2,,,,,,,,,1,,,63,31
356400,note_on,84,0,1,,,,,,,,,0,,,87,31
356400,note_on,0,0,2,,,,,,,,,1,,,79,31
356400,note_on,84,0,5,,,,,,,,,4,,,39,31
356410,set_tempo,250,1,0,,,,,,550458,,,,,,,
356556,note_off,156,0,1,,,,,,,,,0,,,87,0
356556,note_off,0,0,2,,,,,,,,,1,,,75,0
356556,note_off,156,0,2,,,,,,,,,1,,,63,0
356556,note_off,156,0,4,,,,,,,,,3,,,51,0
356556,note_off,0,0,2,,,,,,,,,1,,,79,0
356556,note_off,156,0,5,,,,,,,,,4,,,39,0
356640,note_on,84,0,5,,,,,,,,,4,,,39,31
356640,note_on,84,0,1,,,,,,,,,0,,,87,31
356640,note_on,84,0,2,,,,,,,,,1,,,75,31
356640,note_on,0,0,2,,,,,,,,,1,,,79,31
356640,note_on,0,0,2,,,,,,,,,1,,,63,31
356640,note_on,84,0,4,,,,,,,,,3,,,51,31
356796,note_off,156,0,4,,,,,,,,,3,,,51,0
356796,note_off,156,0,5,,,,,,,,,4,,,39,0
356796,note_off,156,0,2,,,,,,,,,1,,,63,0
356796,note_off,0,0,2,,,,,,,,,1,,,79,0
356796,note_off,0,0,2,,,,,,,,,1,,,75,0
356796,note_off,156,0,1,,,,,,,,,0,,,87,0
358080,control_change,0,0,3,,,,,,,10,64,2,,,,
358080,control_change,1284,0,4,,,,,,,0,0,3,,,,
358080,control_change,0,0,1,,,,,,,7,127,0,,,,
358080,control_change,0,0,1,,,,,,,32,0,0,,,,
358080,control_change,1284,0,1,,,,,,,0,0,0,,,,
358080,control_change,1284,0,2,,,,,,,0,0,1,,,,
358080,control_change,0,0,2,,,,,,,32,0,1,,,,
358080,program_change,0,0,2,,,,,,,,,1,0,,,
358080,control_change,0,0,1,,,,,,,1,0,0,,,,
358080,control_change,0,0,2,,,,,,,10,64,1,,,,
358080,control_change,0,0,2,,,,,,,93,28,1,,,,
358080,control_change,0,0,2,,,,,,,64,0,1,,,,
358080,control_change,0,0,2,,,,,,,1,0,1,,,,
358080,pitchwheel,0,0,2,,,,,,,,,1,,0,,
358080,control_change,0,0,2,,,,,,,7,117,1,,,,
358080,control_change,0,0,3,,,,,,,7,112,2,,,,
358080,control_change,0,0,2,,,,,,,91,100,1,,,,
358080,pitchwheel,0,0,3,,,,,,,,,2,,0,,
358080,control_change,0,0,1,,,,,,,64,0,0,,,,
358080,control_change,0,0,1,,,,,,,91,100,0,,,,
358080,control_change,0,0,4,,,,,,,32,0,3,,,,
358080,program_change,0,0,4,,,,,,,,,3,0,,,
358080,control_change,0,0,4,,,,,,,10,55,3,,,,
358080,control_change,0,0,4,,,,,,,91,100,3,,,,
358080,control_change,0,0,4,,,,,,,93,28,3,,,,
358080,control_change,31440,0,3,,,,,,,0,0,2,,,,
358080,control_change,0,0,1,,,,,,,93,28,0,,,,
358080,control_change,0,0,3,,,,,,,32,0,2,,,,
358080,control_change,0,0,3,,,,,,,91,100,2,,,,
358080,control_change,0,0,3,,,,,,,93,28,2,,,,
358080,control_change,0,0,3,,,,,,,64,0,2,,,,
358080,pitchwheel,0,0,1,,,,,,,,,0,,0,,
358080,program_change,0,0,1,,,,,,,,,0,0,,,
358080,control_change,0,0,1,,,,,,,10,73,0,,,,
358080,program_change,0,0,3,,,,,,,,,2,0,,,
358080,set_tempo,1670,1,0,,,,,,1071428,,,,,,,
358080,control_change,0,0,3,,,,,,,1,0,2,,,,
358080,control_change,0,0,5,,,,,,,32,0,4,,,,
358080,control_change,0,0,5,,,,,,,10,55,4,,,,
358080,control_change,0,0,5,,,,,,,91,100,4,,,,
358080,control_change,0,0,5,,,,,,,93,28,4,,,,
358080,control_change,0,0,4,,,,,,,64,0,3,,,,
358080,control_change,0,0,4,,,,,,,1,0,3,,,,
358080,pitchwheel,0,0,4,,,,,,,,,3,,0,,
358080,program_change,0,0,5,,,,,,,,,4,0,,,
358080,control_change,0,0,4,,,,,,,7,117,3,,,,
358080,control_change,0,0,5,,,,,,,1,0,4,,,,
358080,marker,0,1,0,,,,,,,,,,,,,
358080,pitchwheel,0,0,5,,,,,,,,,4,,0,,
358080,control_change,0,0,5,,,,,,,7,122,4,,,,
358080,control_change,0,0,5,,,,,,,64,0,4,,,,
358080,control_change,1284,0,5,,,,,,,0,0,4,,,,
359520,control_change,1440,0,2,,,,,,,64,0,1,,,,
359520,control_change,1440,0,5,,,,,,,64,0,4,,,,
359520,set_tempo,1440,1,0,,,,,,434782,,,,,,,
359520,control_change,1440,0,1,,,,,,,64,0,0,,,,
359520,control_change,1440,0,3,,,,,,,64,0,2,,,,
359520,control_change,1440,0,4,,,,,,,64,0,3,,,,
359880,note_on,360,0,5,,,,,,,,,4,,,33,72
359880,note_on,360,0,4,,,,,,,,,3,,,45,72
359880,note_on,360,0,2,,,,,,,,,1,,,57,72
359880,note_on,360,0,1,,,,,,,,,0,,,69,72
359958,note_off,78,0,1,,,,,,,,,0,,,69,0
359958,note_off,78,0,4,,,,,,,,,3,,,45,0
359958,note_off,78,0,5,,,,,,,,,4,,,33,0
359958,note_off,78,0,2,,,,,,,,,1,,,57,0
359960,set_tempo,440,1,0,,,,,,441176,,,,,,,
360000,note_on,42,0,5,,,,,,,,,4,,,33,80
360000,note_on,42,0,4,,,,,,,,,3,,,45,80
360000,set_tempo,40,1,0,,,,,,434782,,,,,,,
360000,note_on,42,0,2,,,,,,,,,1,,,57,80
360000,note_on,42,0,1,,,,,,,,,0,,,69,80
360360,note_off,360,0,5,,,,,,,,,4,,,33,0
360360,note_off,360,0,4,,,,,,,,,3,,,45,0
360360,note_off,360,0,1,,,,,,,,,0,,,69,0
360360,note_off,360,0,2,,,,,,,,,1,,,57,0
360480,note_on,120,0,2,,,,,,,,,1,,,62,74
360480,note_on,120,0,4,,,,,,,,,3,,,50,74
360480,note_on,120,0,5,,,,,,,,,4,,,38,74
360480,note_on,120,0,1,,,,,,,,,0,,,74,74
360636,note_off,156,0,1,,,,,,,,,0,,,74,0
360636,note_off,156,0,4,,,,,,,,,3,,,50,0
360636,note_off,156,0,5,,,,,,,,,4,,,38,0
360636,note_off,156,0,2,,,,,,,,,1,,,62,0
360840,note_on,204,0,4,,,,,,,,,3,,,45,75
360840,note_on,204,0,5,,,,,,,,,4,,,33,75
360840,note_on,204,0,1,,,,,,,,,0,,,69,75
360840,note_on,204,0,2,,,,,,,,,1,,,57,75
360918,note_off,78,0,4,,,,,,,,,3,,,45,0
360918,note_off,78,0,5,,,,,,,,,4,,,33,0
360918,note_off,78,0,2,,,,,,,,,1,,,57,0
360918,note_off,78,0,1,,,,,,,,,0,,,69,0
360920,set_tempo,920,1,0,,,,,,441176,,,,,,,
360960,note_on,42,0,1,,,,,,,,,0,,,69,82
360960,note_on,42,0,4,,,,,,,,,3,,,45,82
360960,note_on,42,0,5,,,,,,,,,4,,,33,82
360960,set_tempo,40,1,0,,,,,,434782,,,,,,,
360960,note_on,42,0,2,,,,,,,,,1,,,57,82
361320,note_off,360,0,1,,,,,,,,,0,,,69,0
361320,note_off,360,0,2,,,,,,,,,1,,,57,0
361320,note_off,360,0,4,,,,,,,,,3,,,45,0
361320,note_off,360,0,5,,,,,,,,,4,,,33,0
361440,note_on,120,0,2,,,,,,,,,1,,,62,77
361440,note_on,120,0,1,,,,,,,,,0,,,74,77
361440,note_on,120,0,4,,,,,,,,,3,,,50,77
361440,note_on,120,0,5,,,,,,,,,4,,,38,77
361596,note_off,156,0,5,,,,,,,,,4,,,38,0
361596,note_off,156,0,2,,,,,,,,,1,,,62,0
361596,note_off,156,0,1,,,,,,,,,0,,,74,0
361596,note_off,156,0,4,,,,,,,,,3,,,50,0
361800,note_on,204,0,5,,,,,,,,,4,,,33,78
361800,note_on,204,0,2,,,,,,,,,1,,,57,78
361800,note_on,204,0,1,,,,,,,,,0,,,69,78
361800,note_on,204,0,4,,,,,,,,,3,,,45,78
361878,note_off,78,0,1,,,,,,,,,0,,,69,0
361878,note_off,78,0,5,,,,,,,,,4,,,33,0
361878,note_off,78,0,2,,,,,,,,,1,,,57,0
361878,note_off,78,0,4,,,,,,,,,3,,,45,0
361880,set_tempo,920,1,0,,,,,,441176,,,,,,,
361920,set_tempo,40,1,0,,,,,,434782,,,,,,,
361920,note_on,42,0,1,,,,,,,,,0,,,69,85
361920,note_on,42,0,2,,,,,,,,,1,,,57,85
361920,note_on,42,0,4,,,,,,,,,3,,,45,85
361920,note_on,42,0,5,,,,,,,,,4,,,33,85
362280,note_off,360,0,2,,,,,,,,,1,,,57,0
362280,note_off,360,0,4,,,,,,,,,3,,,45,0
362280,note_off,360,0,5,,,,,,,,,4,,,33,0
362280,note_off,360,0,1,,,,,,,,,0,,,69,0
362400,note_on,120,0,4,,,,,,,,,3,,,50,80
362400,note_on,120,0,5,,,,,,,,,4,,,38,80
362400,note_on,120,0,1,,,,,,,,,0,,,74,80
362400,note_on,120,0,2,,,,,,,,,1,,,62,80
362556,note_off,156,0,5,,,,,,,,,4,,,38,0
362556,note_off,156,0,4,,,,,,,,,3,,,50,0
362556,note_off,156,0,1,,,,,,,,,0,,,74,0
362556,note_off,156,0,2,,,,,,,,,1,,,62,0
362760,note_on,204,0,4,,,,,,,,,3,,,54,81
362760,note_on,204,0,1,,,,,,,,,0,,,78,81
362760,note_on,204,0,5,,,,,,,,,4,,,42,81
362760,note_on,204,0,2,,,,,,,,,1,,,66,81
362820,set_tempo,900,1,0,,,,,,441176,,,,,,,
362838,note_off,78,0,4,,,,,,,,,3,,,54,0
362838,note_off,78,0,1,,,,,,,,,0,,,78,0
362838,note_off,78,0,5,,,,,,,,,4,,,42,0
362838,note_off,78,0,2,,,,,,,,,1,,,66,0
362880,note_on,42,0,5,,,,,,,,,4,,,45,87
362880,note_on,42,0,2,,,,,,,,,1,,,69,87
362880,note_on,42,0,1,,,,,,,,,0,,,81,87
362880,note_on,42,0,4,,,,,,,,,3,,,57,87
363360,set_tempo,540,1,0,,,,,,472440,,,,,,,
363720,note_off,840,0,1,,,,,,,,,0,,,81,0
363720,note_off,840,0,5,,,,,,,,,4,,,45,0
363720,note_off,840,0,4,,,,,,,,,3,,,57,0
363720,note_off,840,0,2,,,,,,,,,1,,,69,0
363840,set_tempo,480,1,0,,,,,,447761,,,,,,,
363840,note_on,120,0,5,,,,,,,,,4,,,57,59
363840,note_on,0,0,4,,,,,,,,,3,,,64,59
363840,note_on,120,0,4,,,,,,,,,3,,,67,59
363840,note_on,120,0,1,,,,,,,,,0,,,79,59
363880,note_off,40,0,1,,,,,,,,,0,,,79,0
363880,note_on,0,0,1,,,,,,,,,0,,,81,59
363900,set_tempo,60,1,0,,,,,,441176,,,,,,,
363920,note_off,40,0,1,,,,,,,,,0,,,81,0
363920,note_on,0,0,1,,,,,,,,,0,,,79,59
363960,note_on,0,0,1,,,,,,,,,0,,,81,58
363960,note_off,40,0,1,,,,,,,,,0,,,79,0
364000,note_off,40,0,1,,,,,,,,,0,,,81,0
364000,note_on,0,0,1,,,,,,,,,0,,,79,58
364040,note_on,0,0,1,,,,,,,,,0,,,81,58
364040,note_off,40,0,1,,,,,,,,,0,,,79,0
364080,note_off,40,0,1,,,,,,,,,0,,,81,0
364080,note_on,0,0,1,,,,,,,,,0,,,79,58
364120,note_off,40,0,1,,,,,,,,,0,,,79,0
364120,note_on,0,0,1,,,,,,,,,0,,,81,58
364160,note_off,40,0,1,,,,,,,,,0,,,81,0
364160,note_on,0,0,1,,,,,,,,,0,,,79,58
364200,note_off,40,0,1,,,,,,,,,0,,,79,0
364200,note_on,0,0,1,,,,,,,,,0,,,78,58
364260,note_on,0,0,1,,,,,,,,,0,,,79,57
364260,note_off,60,0,1,,,,,,,,,0,,,78,0
364280,set_tempo,380,1,0,,,,,,447761,,,,,,,
364320,note_on,0,0,4,,,,,,,,,3,,,64,57
364320,note_off,0,0,4,,,,,,,,,3,,,67,0
364320,note_off,480,0,4,,,,,,,,,3,,,64,0
364320,note_on,0,0,4,,,,,,,,,3,,,67,57
364320,note_on,0,0,1,,,,,,,,,0,,,76,57
364320,note_on,0,0,5,,,,,,,,,4,,,57,57
364320,set_tempo,40,1,0,,,,,,441176,,,,,,,
364320,note_off,480,0,5,,,,,,,,,4,,,57,0
364320,note_off,60,0,1,,,,,,,,,0,,,79,0
364476,note_off,156,0,1,,,,,,,,,0,,,76,0
364560,note_on,84,0,1,,,,,,,,,0,,,73,56
364716,note_off,156,0,1,,,,,,,,,0,,,73,0
364800,note_on,0,0,4,,,,,,,,,3,,,66,57
364800,note_off,480,0,5,,,,,,,,,4,,,57,0
364800,note_on,0,0,5,,,,,,,,,4,,,62,57
364800,note_off,480,0,4,,,,,,,,,3,,,64,0
364800,note_off,0,0,4,,,,,,,,,3,,,67,0
364800,note_on,84,0,1,,,,,,,,,0,,,74,57
365040,note_on,0,0,1,,,,,,,,,0,,,78,54
365040,note_off,240,0,1,,,,,,,,,0,,,74,0
365196,note_off,156,0,1,,,,,,,,,0,,,78,0
365220,set_tempo,900,1,0,,,,,,447761,,,,,,,
365280,note_on,84,0,1,,,,,,,,,0,,,69,51
365640,note_off,360,0,1,,,,,,,,,0,,,69,0
365640,note_off,840,0,4,,,,,,,,,3,,,66,0
365640,note_off,840,0,5,,,,,,,,,4,,,62,0
365640,set_tempo,420,1,0,,,,,,447761,,,,,,,
365760,set_tempo,120,1,0,,,,,,447761,,,,,,,
365760,note_on,120,0,4,,,,,,,,,3,,,50,51
365760,note_on,0,0,4,,,,,,,,,3,,,47,51
365760,note_on,120,0,5,,,,,,,,,4,,,40,51
365760,note_on,120,0,1,,,,,,,,,0,,,62,51
365800,note_on,0,0,1,,,,,,,,,0,,,64,50
365800,note_off,40,0,1,,,,,,,,,0,,,62,0
365820,set_tempo,60,1,0,,,,,,441176,,,,,,,
365840,note_on,0,0,1,,,,,,,,,0,,,62,50
365840,note_off,40,0,1,,,,,,,,,0,,,64,0
365880,note_on,0,0,1,,,,,,,,,0,,,64,50
365880,note_off,40,0,1,,,,,,,,,0,,,62,0
365920,note_on,0,0,1,,,,,,,,,0,,,62,50
365920,note_off,40,0,1,,,,,,,,,0,,,64,0
365960,note_off,40,0,1,,,,,,,,,0,,,62,0
365960,note_on,0,0,1,,,,,,,,,0,,,64,49
366000,note_off,40,0,1,,,,,,,,,0,,,64,0
366000,note_on,0,0,1,,,,,,,,,0,,,62,49
366040,note_on,0,0,1,,,,,,,,,0,,,64,49
366040,note_off,40,0,1,,,,,,,,,0,,,62,0
366080,note_off,40,0,1,,,,,,,,,0,,,64,0
366080,note_on,0,0,1,,,,,,,,,0,,,62,48
366120,note_on,0,0,1,,,,,,,,,0,,,61,48
366120,note_off,40,0,1,,,,,,,,,0,,,62,0
366180,note_off,60,0,1,,,,,,,,,0,,,61,0
366180,note_on,0,0,1,,,,,,,,,0,,,62,48
366200,set_tempo,380,1,0,,,,,,447761,,,,,,,
366240,note_off,480,0,4,,,,,,,,,3,,,47,0
366240,note_on,0,0,4,,,,,,,,,3,,,47,49
366240,note_on,0,0,4,,,,,,,,,3,,,50,49
366240,note_on,0,0,1,,,,,,,,,0,,,59,49
366240,note_on,0,0,5,,,,,,,,,4,,,40,49
366240,note_off,480,0,5,,,,,,,,,4,,,40,0
366240,note_off,60,0,1,,,,,,,,,0,,,62,0
366240,note_off,0,0,4,,,,,,,,,3,,,50,0
366396,note_off,156,0,1,,,,,,,,,0,,,59,0
366480,note_on,84,0,1,,,,,,,,,0,,,56,46
366636,note_off,156,0,1,,,,,,,,,0,,,56,0
366660,set_tempo,460,1,0,,,,,,454545,,,,,,,
366720,note_off,480,0,5,,,,,,,,,4,,,40,0
366720,note_on,0,0,5,,,,,,,,,4,,,45,44
366720,note_on,0,0,4,,,,,,,,,3,,,49,44
366720,note_off,480,0,4,,,,,,,,,3,,,47,0
366720,note_off,0,0,4,,,,,,,,,3,,,50,0
366720,note_on,84,0,1,,,,,,,,,0,,,57,44
367242,note_off,522,0,5,,,,,,,,,4,,,45,0
367242,note_off,522,0,4,,,,,,,,,3,,,49,0
367242,note_off,522,0,1,,,,,,,,,0,,,57,0
367440,set_tempo,780,1,0,,,,,,472440,,,,,,,
367680,note_on,438,0,5,,,,,,,,,4,,,57,54
367680,set_tempo,240,1,0,,,,,,447761,,,,,,,
367680,note_on,438,0,4,,,,,,,,,3,,,64,54
367680,note_on,0,0,4,,,,,,,,,3,,,67,54
367680,note_on,438,0,1,,,,,,,,,0,,,79,54
367720,note_on,0,0,1,,,,,,,,,0,,,81,54
367720,note_off,40,0,1,,,,,,,,,0,,,79,0
367740,set_tempo,60,1,0,,,,,,441176,,,,,,,
367760,note_on,0,0,1,,,,,,,,,0,,,79,54
367760,note_off,40,0,1,,,,,,,,,0,,,81,0
367800,note_off,40,0,1,,,,,,,,,0,,,79,0
367800,note_on,0,0,1,,,,,,,,,0,,,81,54
367840,note_off,40,0,1,,,,,,,,,0,,,81,0
367840,note_on,0,0,1,,,,,,,,,0,,,79,54
367880,note_on,0,0,1,,,,,,,,,0,,,81,54
367880,note_off,40,0,1,,,,,,,,,0,,,79,0
367920,note_on,0,0,1,,,,,,,,,0,,,79,53
367920,note_off,40,0,1,,,,,,,,,0,,,81,0
367960,note_off,40,0,1,,,,,,,,,0,,,79,0
367960,note_on,0,0,1,,,,,,,,,0,,,81,53
368000,note_off,40,0,1,,,,,,,,,0,,,81,0
368000,note_on,0,0,1,,,,,,,,,0,,,79,53
368040,note_on,0,0,1,,,,,,,,,0,,,78,53
368040,note_off,40,0,1,,,,,,,,,0,,,79,0
368100,note_on,0,0,1,,,,,,,,,0,,,79,53
368100,note_off,60,0,1,,,,,,,,,0,,,78,0
368120,set_tempo,380,1,0,,,,,,447761,,,,,,,
368160,note_off,60,0,1,,,,,,,,,0,,,79,0
368160,note_on,0,0,4,,,,,,,,,3,,,67,53
368160,note_on,0,0,4,,,,,,,,,3,,,64,53
368160,note_off,0,0,4,,,,,,,,,3,,,64,0
368160,note_off,480,0,4,,,,,,,,,3,,,67,0
368160,note_on,0,0,5,,,,,,,,,4,,,57,53
368160,note_off,480,0,5,,,,,,,,,4,,,57,0
368160,set_tempo,40,1,0,,,,,,441176,,,,,,,
368160,note_on,0,0,1,,,,,,,,,0,,,76,53
368316,note_off,156,0,1,,,,,,,,,0,,,76,0
368400,note_on,84,0,1,,,,,,,,,0,,,73,52
368556,note_off,156,0,1,,,,,,,,,0,,,73,0
368640,note_on,84,0,1,,,,,,,,,0,,,74,53
368640,note_off,0,0,4,,,,,,,,,3,,,64,0
368640,note_on,0,0,4,,,,,,,,,3,,,66,53
368640,note_off,480,0,4,,,,,,,,,3,,,67,0
368640,note_on,0,0,5,,,,,,,,,4,,,62,53
368640,note_off,480,0,5,,,,,,,,,4,,,57,0
368880,note_off,240,0,1,,,,,,,,,0,,,74,0
368880,note_on,0,0,1,,,,,,,,,0,,,78,50
369036,note_off,156,0,1,,,,,,,,,0,,,78,0
369060,set_tempo,900,1,0,,,,,,447761,,,,,,,
369120,note_on,84,0,1,,,,,,,,,0,,,69,47
369475,note_off,835,0,5,,,,,,,,,4,,,62,0
369480,note_off,360,0,1,,,,,,,,,0,,,69,0
369480,note_off,840,0,4,,,,,,,,,3,,,66,0
369600,note_on,120,0,1,,,,,,,,,0,,,55,47
369600,note_on,0,0,4,,,,,,,,,3,,,40,47
369600,note_on,125,0,5,,,,,,,,,4,,,33,47
369600,set_tempo,540,1,0,,,,,,447761,,,,,,,
369600,note_on,120,0,4,,,,,,,,,3,,,43,47
369640,note_on,0,0,1,,,,,,,,,0,,,57,47
369640,note_off,40,0,1,,,,,,,,,0,,,55,0
369660,set_tempo,60,1,0,,,,,,441176,,,,,,,
369680,note_on,0,0,1,,,,,,,,,0,,,55,47
369680,note_off,40,0,1,,,,,,,,,0,,,57,0
369720,note_off,40,0,1,,,,,,,,,0,,,55,0
369720,note_on,0,0,1,,,,,,,,,0,,,57,46
369760,note_on,0,0,1,,,,,,,,,0,,,55,46
369760,note_off,40,0,1,,,,,,,,,0,,,57,0
369800,note_off,40,0,1,,,,,,,,,0,,,55,0
369800,note_on,0,0,1,,,,,,,,,0,,,57,46
369840,note_off,40,0,1,,,,,,,,,0,,,57,0
369840,note_on,0,0,1,,,,,,,,,0,,,55,46
369880,note_on,0,0,1,,,,,,,,,0,,,57,45
369880,note_off,40,0,1,,,,,,,,,0,,,55,0
369920,note_on,0,0,1,,,,,,,,,0,,,55,45
369920,note_off,40,0,1,,,,,,,,,0,,,57,0
369960,note_off,40,0,1,,,,,,,,,0,,,55,0
369960,note_on,0,0,1,,,,,,,,,0,,,54,45
370020,note_off,60,0,1,,,,,,,,,0,,,54,0
370020,set_tempo,360,1,0,,,,,,447761,,,,,,,
370020,note_on,0,0,1,,,,,,,,,0,,,55,44
370080,note_off,480,0,5,,,,,,,,,4,,,33,0
370080,note_on,0,0,1,,,,,,,,,0,,,52,44
370080,note_on,0,0,5,,,,,,,,,4,,,33,44
370080,note_on,0,0,4,,,,,,,,,3,,,43,44
370080,note_on,0,0,4,,,,,,,,,3,,,40,44
370080,note_off,0,0,4,,,,,,,,,3,,,43,0
370080,note_off,480,0,4,,,,,,,,,3,,,40,0
370080,note_off,60,0,1,,,,,,,,,0,,,55,0
370320,note_off,240,0,1,,,,,,,,,0,,,52,0
370320,note_on,0,0,1,,,,,,,,,0,,,49,45
370450,set_tempo,430,1,0,,,,,,454545,,,,,,,
370560,note_off,480,0,4,,,,,,,,,3,,,43,0
370560,note_off,0,0,4,,,,,,,,,3,,,40,0
370560,note_on,0,0,4,,,,,,,,,3,,,42,42
370560,note_on,0,0,1,,,,,,,,,0,,,50,42
370560,note_off,240,0,1,,,,,,,,,0,,,49,0
370560,note_on,0,0,5,,,,,,,,,4,,,38,42
370560,note_off,480,0,5,,,,,,,,,4,,,33,0
371040,set_tempo,590,1,0,,,,,,500000,,,,,,,
371040,note_off,480,0,5,,,,,,,,,4,,,38,0
371040,note_off,480,0,4,,,,,,,,,3,,,42,0
371040,note_off,480,0,1,,,,,,,,,0,,,50,0
371400,set_tempo,360,1,0,,,,,,434782,,,,,,,
371400,note_on,360,0,4,,,,,,,,,3,,,53,64
371400,note_on,0,0,4,,,,,,,,,3,,,29,64
371400,note_on,0,0,4,,,,,,,,,3,,,41,64
371478,note_off,0,0,4,,,,,,,,,3,,,29,0
371478,note_off,78,0,4,,,,,,,,,3,,,41,0
371478,note_off,0,0,4,,,,,,,,,3,,,53,0
371480,set_tempo,80,1,0,,,,,,441176,,,,,,,
371520,set_tempo,40,1,0,,,,,,434782,,,,,,,
371520,note_on,0,0,4,,,,,,,,,3,,,53,64
371520,note_on,42,0,4,,,,,,,,,3,,,41,64
371520,note_on,0,0,4,,,,,,,,,3,,,29,64
371880,note_off,360,0,4,,,,,,,,,3,,,53,0
371880,note_off,0,0,4,,,,,,,,,3,,,29,0
371880,note_off,0,0,4,,,,,,,,,3,,,41,0
372000,note_on,120,0,4,,,,,,,,,3,,,46,65
372000,note_on,0,0,4,,,,,,,,,3,,,34,65
372000,note_on,0,0,4,,,,,,,,,3,,,58,65
372156,note_off,156,0,4,,,,,,,,,3,,,58,0
372156,note_off,0,0,4,,,,,,,,,3,,,34,0
372156,note_off,0,0,4,,,,,,,,,3,,,46,0
372360,note_on,204,0,4,,,,,,,,,3,,,53,65
372360,note_on,0,0,4,,,,,,,,,3,,,29,65
372360,note_on,0,0,4,,,,,,,,,3,,,41,65
372438,note_off,78,0,4,,,,,,,,,3,,,41,0
372438,note_off,0,0,4,,,,,,,,,3,,,29,0
372438,note_off,0,0,4,,,,,,,,,3,,,53,0
372440,set_tempo,920,1,0,,,,,,441176,,,,,,,
372480,set_tempo,40,1,0,,,,,,434782,,,,,,,
372480,note_on,0,0,4,,,,,,,,,3,,,41,65
372480,note_on,42,0,4,,,,,,,,,3,,,53,65
372480,note_on,0,0,4,,,,,,,,,3,,,29,65
372840,note_off,360,0,4,,,,,,,,,3,,,41,0
372840,note_off,0,0,4,,,,,,,,,3,,,53,0
372840,note_off,0,0,4,,,,,,,,,3,,,29,0
372960,note_on,0,0,4,,,,,,,,,3,,,46,66
372960,note_on,0,0,4,,,,,,,,,3,,,34,66
372960,note_on,120,0,4,,,,,,,,,3,,,58,66
373116,note_off,0,0,4,,,,,,,,,3,,,58,0
373116,note_off,0,0,4,,,,,,,,,3,,,34,0
373116,note_off,156,0,4,,,,,,,,,3,,,46,0
373320,note_on,204,0,4,,,,,,,,,3,,,29,66
373320,note_on,0,0,4,,,,,,,,,3,,,41,66
373320,note_on,0,0,4,,,,,,,,,3,,,53,66
373398,note_off,0,0,4,,,,,,,,,3,,,29,0
373398,note_off,0,0,4,,,,,,,,,3,,,41,0
373398,note_off,78,0,4,,,,,,,,,3,,,53,0
373400,set_tempo,920,1,0,,,,,,441176,,,,,,,
373440,set_tempo,40,1,0,,,,,,434782,,,,,,,
373440,note_on,42,0,4,,,,,,,,,3,,,53,66
373440,note_on,0,0,4,,,,,,,,,3,,,29,66
373440,note_on,0,0,4,,,,,,,,,3,,,41,66
373800,note_off,0,0,4,,,,,,,,,3,,,53,0
373800,note_off,360,0,4,,,,,,,,,3,,,41,0
373800,note_off,0,0,4,,,,,,,,,3,,,29,0
373920,note_on,0,0,4,,,,,,,,,3,,,36,67
373920,note_on,0,0,4,,,,,,,,,3,,,48,67
373920,note_on,120,0,4,,,,,,,,,3,,,60,67
374076,note_off,156,0,4,,,,,,,,,3,,,36,0
374076,note_off,0,0,4,,,,,,,,,3,,,48,0
374076,note_off,0,0,4,,,,,,,,,3,,,60,0
374280,note_on,204,0,4,,,,,,,,,3,,,41,67
374280,note_on,0,0,4,,,,,,,,,3,,,53,67
374280,note_on,0,0,4,,,,,,,,,3,,,29,67
374358,note_off,78,0,4,,,,,,,,,3,,,53,0
374358,note_off,0,0,4,,,,,,,,,3,,,41,0
374358,note_off,0,0,4,,,,,,,,,3,,,29,0
374360,set_tempo,920,1,0,,,,,,441176,,,,,,,
374400,note_on,42,0,4,,,,,,,,,3,,,41,68
374400,note_on,0,0,4,,,,,,,,,3,,,29,68
374400,note_on,0,0,4,,,,,,,,,3,,,53,68
374400,set_tempo,40,1,0,,,,,,434782,,,,,,,
374760,note_off,360,0,4,,,,,,,,,3,,,53,0
374760,note_off,0,0,4,,,,,,,,,3,,,29,0
374760,note_off,0,0,4,,,,,,,,,3,,,41,0
374880,note_on,120,0,4,,,,,,,,,3,,,60,68
374880,note_on,0,0,4,,,,,,,,,3,,,48,68
374880,note_on,0,0,4,,,,,,,,,3,,,36,68
375036,note_off,156,0,4,,,,,,,,,3,,,36,0
375036,note_off,0,0,4,,,,,,,,,3,,,48,0
375036,note_off,0,0,4,,,,,,,,,3,,,60,0
375240,note_on,204,0,4,,,,,,,,,3,,,53,69
375240,note_on,0,0,4,,,,,,,,,3,,,41,69
375240,note_on,11520,0,2,,,,,,,,,1,,,65,69
375240,note_on,0,0,4,,,,,,,,,3,,,29,69
375240,note_on,4200,0,1,,,,,,,,,0,,,77,69
375240,set_tempo,840,1,0,,,,,,441176,,,,,,,
375318,note_off,0,0,4,,,,,,,,,3,,,53,0
375318,note_off,0,0,4,,,,,,,,,3,,,41,0
375318,note_off,78,0,1,,,,,,,,,0,,,77,0
375318,note_off,78,0,4,,,,,,,,,3,,,29,0
375318,note_off,78,0,2,,,,,,,,,1,,,65,0
375360,note_on,42,0,2,,,,,,,,,1,,,65,69
375360,note_on,0,0,4,,,,,,,,,3,,,29,69
375360,note_on,42,0,4,,,,,,,,,3,,,53,69
375360,note_on,42,0,1,,,,,,,,,0,,,77,69
375360,set_tempo,120,1,0,,,,,,434782,,,,,,,
375360,note_on,0,0,4,,,,,,,,,3,,,41,69
375520,note_on,0,0,2,,,,,,,,,1,,,70,69
375520,note_off,160,0,2,,,,,,,,,1,,,65,0
375520,note_off,160,0,1,,,,,,,,,0,,,77,0
375520,note_on,0,0,1,,,,,,,,,0,,,74,69
375624,note_off,104,0,2,,,,,,,,,1,,,70,0
375624,note_off,104,0,1,,,,,,,,,0,,,74,0
375680,note_on,56,0,2,,,,,,,,,1,,,65,69
375680,note_on,56,0,1,,,,,,,,,0,,,77,69
375720,note_off,0,0,4,,,,,,,,,3,,,53,0
375720,note_off,0,0,4,,,,,,,,,3,,,29,0
375720,note_off,360,0,4,,,,,,,,,3,,,41,0
375784,note_off,104,0,1,,,,,,,,,0,,,77,0
375784,note_off,104,0,2,,,,,,,,,1,,,65,0
375840,note_on,120,0,4,,,,,,,,,3,,,58,69
375840,note_on,56,0,1,,,,,,,,,0,,,77,69
375840,note_on,0,0,4,,,,,,,,,3,,,34,69
375840,note_on,56,0,2,,,,,,,,,1,,,65,69
375840,note_on,0,0,4,,,,,,,,,3,,,46,69
375996,note_off,156,0,4,,,,,,,,,3,,,46,0
375996,note_off,0,0,4,,,,,,,,,3,,,58,0
375996,note_off,0,0,4,,,,,,,,,3,,,34,0
376000,note_off,160,0,2,,,,,,,,,1,,,65,0
376000,note_off,160,0,1,,,,,,,,,0,,,77,0
376000,note_on,0,0,1,,,,,,,,,0,,,74,70
376000,note_on,0,0,2,,,,,,,,,1,,,70,70
376104,note_off,104,0,1,,,,,,,,,0,,,74,0
376104,note_off,104,0,2,,,,,,,,,1,,,70,0
376160,note_on,56,0,1,,,,,,,,,0,,,77,70
376160,note_on,56,0,2,,,,,,,,,1,,,65,70
376200,note_on,204,0,4,,,,,,,,,3,,,41,70
376200,note_on,0,0,4,,,,,,,,,3,,,53,70
376200,note_on,0,0,4,,,,,,,,,3,,,29,70
376264,note_off,104,0,2,,,,,,,,,1,,,65,0
376264,note_off,104,0,1,,,,,,,,,0,,,77,0
376278,note_off,0,0,4,,,,,,,,,3,,,41,0
376278,note_off,0,0,4,,,,,,,,,3,,,29,0
376278,note_off,78,0,4,,,,,,,,,3,,,53,0
376280,set_tempo,920,1,0,,,,,,441176,,,,,,,
376320,note_on,0,0,4,,,,,,,,,3,,,29,70
376320,set_tempo,40,1,0,,,,,,434782,,,,,,,
376320,note_on,42,0,4,,,,,,,,,3,,,41,70
376320,note_on,56,0,2,,,,,,,,,1,,,65,70
376320,note_on,56,0,1,,,,,,,,,0,,,77,70
376320,note_on,0,0,4,,,,,,,,,3,,,53,70
376480,note_off,160,0,2,,,,,,,,,1,,,65,0
376480,note_on,0,0,2,,,,,,,,,1,,,70,70
376480,note_on,0,0,1,,,,,,,,,0,,,74,70
376480,note_off,160,0,1,,,,,,,,,0,,,77,0
376584,note_off,104,0,1,,,,,,,,,0,,,74,0
376584,note_off,104,0,2,,,,,,,,,1,,,70,0
376640,note_on,56,0,1,,,,,,,,,0,,,77,70
376640,note_on,56,0,2,,,,,,,,,1,,,65,70
376680,note_off,360,0,4,,,,,,,,,3,,,53,0
376680,note_off,0,0,4,,,,,,,,,3,,,41,0
376680,note_off,0,0,4,,,,,,,,,3,,,29,0
376744,note_off,104,0,2,,,,,,,,,1,,,65,0
376744,note_off,104,0,1,,,,,,,,,0,,,77,0
376800,note_on,56,0,1,,,,,,,,,0,,,77,71
376800,note_on,120,0,4,,,,,,,,,3,,,46,71
376800,note_on,0,0,4,,,,,,,,,3,,,34,71
376800,note_on,0,0,4,,,,,,,,,3,,,58,71
376800,note_on,56,0,2,,,,,,,,,1,,,65,71
376956,note_off,156,0,4,,,,,,,,,3,,,58,0
376956,note_off,0,0,4,,,,,,,,,3,,,34,0
376956,note_off,0,0,4,,,,,,,,,3,,,46,0
376960,note_on,0,0,2,,,,,,,,,1,,,70,71
376960,note_off,160,0,2,,,,,,,,,1,,,65,0
376960,note_off,160,0,1,,,,,,,,,0,,,77,0
376960,note_on,0,0,1,,,,,,,,,0,,,74,71
377064,note_off,104,0,1,,,,,,,,,0,,,74,0
377064,note_off,104,0,2,,,,,,,,,1,,,70,0
377120,note_on,56,0,2,,,,,,,,,1,,,65,71
377120,note_on,56,0,1,,,,,,,,,0,,,77,71
377160,note_on,0,0,4,,,,,,,,,3,,,29,71
377160,note_on,0,0,4,,,,,,,,,3,,,41,71
377160,note_on,204,0,4,,,,,,,,,3,,,53,71
377224,note_off,104,0,2,,,,,,,,,1,,,65,0
377224,note_off,104,0,1,,,,,,,,,0,,,77,0
377238,note_off,0,0,4,,,,,,,,,3,,,53,0
377238,note_off,0,0,4,,,,,,,,,3,,,41,0
377238,note_off,78,0,4,,,,,,,,,3,,,29,0
377240,set_tempo,920,1,0,,,,,,441176,,,,,,,
377280,note_on,42,0,4,,,,,,,,,3,,,41,71
377280,note_on,0,0,4,,,,,,,,,3,,,53,71
377280,note_on,56,0,1,,,,,,,,,0,,,77,71
377280,note_on,56,0,2,,,,,,,,,1,,,65,71
377280,note_on,0,0,4,,,,,,,,,3,,,29,71
377280,set_tempo,40,1,0,,,,,,434782,,,,,,,
377440,note_on,0,0,1,,,,,,,,,0,,,75,71
377440,note_off,160,0,2,,,,,,,,,1,,,65,0
377440,note_off,160,0,1,,,,,,,,,0,,,77,0
377440,note_on,0,0,2,,,,,,,,,1,,,69,71
377544,note_off,104,0,1,,,,,,,,,0,,,75,0
377544,note_off,104,0,2,,,,,,,,,1,,,69,0
377600,note_on,56,0,2,,,,,,,,,1,,,65,72
377600,note_on,56,0,1,,,,,,,,,0,,,77,72
377640,note_off,0,0,4,,,,,,,,,3,,,41,0
377640,note_off,0,0,4,,,,,,,,,3,,,29,0
377640,note_off,360,0,4,,,,,,,,,3,,,53,0
377704,note_off,104,0,1,,,,,,,,,0,,,77,0
377704,note_off,104,0,2,,,,,,,,,1,,,65,0
377760,note_on,56,0,1,,,,,,,,,0,,,77,72
377760,note_on,120,0,4,,,,,,,,,3,,,36,72
377760,note_on,56,0,2,,,,,,,,,1,,,65,72
377760,note_on,0,0,4,,,,,,,,,3,,,60,72
377760,note_on,0,0,4,,,,,,,,,3,,,48,72
377916,note_off,156,0,4,,,,,,,,,3,,,60,0
377916,note_off,0,0,4,,,,,,,,,3,,,48,0
377916,note_off,0,0,4,,,,,,,,,3,,,36,0
377920,note_off,160,0,1,,,,,,,,,0,,,77,0
377920,note_on,0,0,1,,,,,,,,,0,,,75,72
377920,note_off,160,0,2,,,,,,,,,1,,,65,0
377920,note_on,0,0,2,,,,,,,,,1,,,69,72
378024,note_off,104,0,2,,,,,,,,,1,,,69,0
378024,note_off,104,0,1,,,,,,,,,0,,,75,0
378080,note_on,56,0,1,,,,,,,,,0,,,77,72
378080,note_on,56,0,2,,,,,,,,,1,,,65,72
378120,note_on,0,0,4,,,,,,,,,3,,,29,72
378120,note_on,204,0,4,,,,,,,,,3,,,53,72
378120,note_on,0,0,4,,,,,,,,,3,,,41,72
378184,note_off,104,0,2,,,,,,,,,1,,,65,0
378184,note_off,104,0,1,,,,,,,,,0,,,77,0
378198,note_off,0,0,4,,,,,,,,,3,,,53,0
378198,note_off,0,0,4,,,,,,,,,3,,,29,0
378198,note_off,78,0,4,,,,,,,,,3,,,41,0
378200,set_tempo,920,1,0,,,,,,441176,,,,,,,
378240,note_on,56,0,1,,,,,,,,,0,,,77,72
378240,note_on,42,0,4,,,,,,,,,3,,,53,72
378240,note_on,56,0,2,,,,,,,,,1,,,65,72
378240,note_on,0,0,4,,,,,,,,,3,,,29,72
378240,set_tempo,40,1,0,,,,,,434782,,,,,,,
378240,note_on,0,0,4,,,,,,,,,3,,,41,72
378400,note_off,160,0,1,,,,,,,,,0,,,77,0
378400,note_on,0,0,1,,,,,,,,,0,,,75,73
378400,note_on,0,0,2,,,,,,,,,1,,,69,73
378400,note_off,160,0,2,,,,,,,,,1,,,65,0
378504,note_off,104,0,1,,,,,,,,,0,,,75,0
378504,note_off,104,0,2,,,,,,,,,1,,,69,0
378560,note_on,56,0,1,,,,,,,,,0,,,77,73
378560,note_on,56,0,2,,,,,,,,,1,,,65,73
378600,note_off,0,0,4,,,,,,,,,3,,,53,0
378600,note_off,0,0,4,,,,,,,,,3,,,29,0
378600,note_off,360,0,4,,,,,,,,,3,,,41,0
378664,note_off,104,0,1,,,,,,,,,0,,,77,0
378664,note_off,104,0,2,,,,,,,,,1,,,65,0
378720,note_on,56,0,1,,,,,,,,,0,,,77,73
378720,note_on,56,0,2,,,,,,,,,1,,,65,73
378720,note_on,0,0,4,,,,,,,,,3,,,60,73
378720,note_on,0,0,4,,,,,,,,,3,,,48,73
378720,note_on,120,0,4,,,,,,,,,3,,,36,73
378876,note_off,156,0,4,,,,,,,,,3,,,60,0
378876,note_off,0,0,4,,,,,,,,,3,,,48,0
378876,note_off,0,0,4,,,,,,,,,3,,,36,0
378880,note_on,0,0,1,,,,,,,,,0,,,75,73
378880,note_off,160,0,1,,,,,,,,,0,,,77,0
378880,note_on,0,0,2,,,,,,,,,1,,,69,73
378880,note_off,160,0,2,,,,,,,,,1,,,65,0
378984,note_off,104,0,2,,,,,,,,,1,,,69,0
378984,note_off,104,0,1,,,,,,,,,0,,,75,0
379040,note_on,56,0,2,,,,,,,,,1,,,65,73
379040,note_on,56,0,1,,,,,,,,,0,,,77,73
379080,note_on,204,0,4,,,,,,,,,3,,,29,73
379080,note_on,0,0,4,,,,,,,,,3,,,41,73
379080,note_on,0,0,4,,,,,,,,,3,,,53,73
379080,set_tempo,840,1,0,,,,,,441176,,,,,,,
379144,note_off,104,0,2,,,,,,,,,1,,,65,0
379144,note_off,104,0,1,,,,,,,,,0,,,77,0
379158,note_off,78,0,4,,,,,,,,,3,,,53,0
379158,note_off,0,0,4,,,,,,,,,3,,,41,0
379158,note_off,0,0,4,,,,,,,,,3,,,29,0
379200,note_on,56,0,2,,,,,,,,,1,,,65,74
379200,set_tempo,120,1,0,,,,,,434782,,,,,,,
379200,note_on,56,0,1,,,,,,,,,0,,,77,74
379200,note_on,0,0,4,,,,,,,,,3,,,46,74
379200,note_on,42,0,4,,,,,,,,,3,,,34,74
379200,note_on,19680,0,3,,,,,,,,,2,,,53,74
379360,note_off,160,0,3,,,,,,,,,2,,,53,0
379360,note_on,0,0,3,,,,,,,,,2,,,58,74
379488,note_off,288,0,1,,,,,,,,,0,,,77,0
379520,note_on,0,0,3,,,,,,,,,2,,,53,74
379520,note_off,160,0,3,,,,,,,,,2,,,58,0
379560,note_on,72,0,1,,,,,,,,,0,,,82,74
379656,note_off,96,0,1,,,,,,,,,0,,,82,0
379680,note_on,0,0,2,,,,,,,,,1,,,65,74
379680,note_off,0,0,4,,,,,,,,,3,,,34,0
379680,note_off,480,0,4,,,,,,,,,3,,,46,0
379680,set_tempo,480,1,0,,,,,,447761,,,,,,,
379680,note_off,480,0,2,,,,,,,,,1,,,65,0
379680,note_on,0,0,2,,,,,,,,,1,,,62,74
379680,note_on,0,0,2,,,,,,,,,1,,,70,74
379680,note_on,24,0,1,,,,,,,,,0,,,82,74
379680,note_off,160,0,3,,,,,,,,,2,,,53,0
379680,note_on,0,0,3,,,,,,,,,2,,,50,74
379720,note_on,0,0,1,,,,,,,,,0,,,84,74
379720,note_off,40,0,1,,,,,,,,,0,,,82,0
379740,set_tempo,60,1,0,,,,,,441176,,,,,,,
379760,note_on,0,0,1,,,,,,,,,0,,,82,74
379760,note_off,40,0,1,,,,,,,,,0,,,84,0
379800,note_on,0,0,1,,,,,,,,,0,,,84,74
379800,note_off,40,0,1,,,,,,,,,0,,,82,0
379840,note_off,160,0,3,,,,,,,,,2,,,50,0
379840,note_on,0,0,3,,,,,,,,,2,,,46,74
379840,note_off,40,0,1,,,,,,,,,0,,,84,0
379840,note_on,0,0,1,,,,,,,,,0,,,82,74
379880,note_on,0,0,1,,,,,,,,,0,,,84,74
379880,note_off,40,0,1,,,,,,,,,0,,,82,0
379920,note_on,0,0,1,,,,,,,,,0,,,82,74
379920,note_off,40,0,1,,,,,,,,,0,,,84,0
379960,note_off,40,0,1,,,,,,,,,0,,,82,0
379960,note_on,0,0,1,,,,,,,,,0,,,84,75
380000,note_on,0,0,3,,,,,,,,,2,,,58,75
380000,note_off,160,0,3,,,,,,,,,2,,,46,0
380000,note_off,40,0,1,,,,,,,,,0,,,84,0
380000,note_on,0,0,1,,,,,,,,,0,,,82,75
380040,note_off,40,0,1,,,,,,,,,0,,,82,0
380040,note_on,0,0,1,,,,,,,,,0,,,81,75
380100,note_off,60,0,1,,,,,,,,,0,,,81,0
380100,note_on,0,0,1,,,,,,,,,0,,,82,75
380120,set_tempo,380,1,0,,,,,,441176,,,,,,,
380160,note_on,0,0,4,,,,,,,,,3,,,34,75
380160,note_off,480,0,2,,,,,,,,,1,,,65,0
380160,set_tempo,40,1,0,,,,,,434782,,,,,,,
380160,note_off,0,0,2,,,,,,,,,1,,,70,0
380160,note_on,480,0,4,,,,,,,,,3,,,46,75
380160,note_off,0,0,2,,,,,,,,,1,,,62,0
380160,note_on,0,0,1,,,,,,,,,0,,,77,75
380160,note_off,60,0,1,,,,,,,,,0,,,82,0
380160,note_off,160,0,3,,,,,,,,,2,,,58,0
380320,note_on,160,0,3,,,,,,,,,2,,,58,75
380448,note_off,288,0,1,,,,,,,,,0,,,77,0
380480,note_on,0,0,3,,,,,,,,,2,,,53,75
380480,note_off,160,0,3,,,,,,,,,2,,,58,0
380520,note_on,72,0,1,,,,,,,,,0,,,82,75
380616,note_off,96,0,1,,,,,,,,,0,,,82,0
380640,note_on,24,0,1,,,,,,,,,0,,,82,75
380640,note_on,0,0,2,,,,,,,,,1,,,65,75
380640,note_on,0,0,2,,,,,,,,,1,,,62,75
380640,note_on,480,0,2,,,,,,,,,1,,,70,75
380640,note_off,160,0,3,,,,,,,,,2,,,53,0
380640,note_on,0,0,3,,,,,,,,,2,,,50,75
380640,note_off,480,0,4,,,,,,,,,3,,,34,0
380640,note_off,0,0,4,,,,,,,,,3,,,46,0
380640,set_tempo,480,1,0,,,,,,447761,,,,,,,
380680,note_off,40,0,1,,,,,,,,,0,,,82,0
380680,note_on,0,0,1,,,,,,,,,0,,,84,75
380700,set_tempo,60,1,0,,,,,,441176,,,,,,,
380720,note_on,0,0,1,,,,,,,,,0,,,82,75
380720,note_off,40,0,1,,,,,,,,,0,,,84,0
380760,note_off,40,0,1,,,,,,,,,0,,,82,0
380760,note_on,0,0,1,,,,,,,,,0,,,84,76
380800,note_on,0,0,3,,,,,,,,,2,,,46,76
380800,note_off,160,0,3,,,,,,,,,2,,,50,0
380800,note_off,40,0,1,,,,,,,,,0,,,84,0
380800,note_on,0,0,1,,,,,,,,,0,,,82,76
380840,note_off,40,0,1,,,,,,,,,0,,,82,0
380840,note_on,0,0,1,,,,,,,,,0,,,84,76
380880,note_on,0,0,1,,,,,,,,,0,,,82,76
380880,note_off,40,0,1,,,,,,,,,0,,,84,0
380920,note_off,40,0,1,,,,,,,,,0,,,82,0
380920,note_on,0,0,1,,,,,,,,,0,,,84,76
380960,note_on,0,0,3,,,,,,,,,2,,,58,76
380960,note_off,160,0,3,,,,,,,,,2,,,46,0
380960,note_off,40,0,1,,,,,,,,,0,,,84,0
380960,note_on,0,0,1,,,,,,,,,0,,,82,76
381000,note_off,40,0,1,,,,,,,,,0,,,82,0
381000,note_on,0,0,1,,,,,,,,,0,,,81,76
381060,note_on,0,0,1,,,,,,,,,0,,,82,76
381060,note_off,60,0,1,,,,,,,,,0,,,81,0
381080,set_tempo,380,1,0,,,,,,441176,,,,,,,
381120,note_on,0,0,1,,,,,,,,,0,,,79,76
381120,note_off,0,0,2,,,,,,,,,1,,,70,0
381120,note_off,0,0,2,,,,,,,,,1,,,62,0
381120,note_off,480,0,2,,,,,,,,,1,,,65,0
381120,note_off,60,0,1,,,,,,,,,0,,,82,0
381120,note_off,160,0,3,,,,,,,,,2,,,58,0
381120,set_tempo,40,1,0,,,,,,434782,,,,,,,
381120,note_on,480,0,4,,,,,,,,,3,,,39,76
381280,note_on,160,0,3,,,,,,,,,2,,,58,76
381408,note_off,288,0,1,,,,,,,,,0,,,79,0
381440,note_off,160,0,3,,,,,,,,,2,,,58,0
381440,note_on,0,0,3,,,,,,,,,2,,,55,76
381480,note_on,360,0,2,,,,,,,,,1,,,79,76
381480,note_on,72,0,1,,,,,,,,,0,,,82,76
381560,set_tempo,440,1,0,,,,,,441176,,,,,,,
381576,note_off,96,0,1,,,,,,,,,0,,,82,0
381576,note_off,96,0,2,,,,,,,,,1,,,79,0
381600,note_on,24,0,2,,,,,,,,,1,,,79,88
381600,note_on,0,0,2,,,,,,,,,1,,,70,77
381600,note_on,0,0,2,,,,,,,,,1,,,63,77
381600,note_on,0,0,3,,,,,,,,,2,,,51,77
381600,note_on,0,0,2,,,,,,,,,1,,,67,77
381600,note_off,480,0,4,,,,,,,,,3,,,39,0
381600,note_off,160,0,3,,,,,,,,,2,,,55,0
381600,set_tempo,40,1,0,,,,,,434782,,,,,,,
381600,note_on,24,0,1,,,,,,,,,0,,,82,87
381760,note_off,160,0,3,,,,,,,,,2,,,51,0
381760,note_on,0,0,3,,,,,,,,,2,,,46,77
381920,note_off,160,0,3,,,,,,,,,2,,,46,0
381920,note_on,0,0,3,,,,,,,,,2,,,58,77
382040,set_tempo,440,1,0,,,,,,441176,,,,,,,
382080,note_on,0,0,2,,,,,,,,,1,,,63,77
382080,note_on,0,0,2,,,,,,,,,1,,,67,77
382080,note_on,0,0,2,,,,,,,,,1,,,70,77
382080,note_off,0,0,2,,,,,,,,,1,,,63,0
382080,note_off,160,0,3,,,,,,,,,2,,,58,0
382080,note_off,480,0,2,,,,,,,,,1,,,67,0
382080,note_on,480,0,4,,,,,,,,,3,,,39,77
382080,set_tempo,40,1,0,,,,,,434782,,,,,,,
382080,note_off,0,0,2,,,,,,,,,1,,,70,0
382240,note_on,160,0,3,,,,,,,,,2,,,58,77
382400,note_off,160,0,3,,,,,,,,,2,,,58,0
382400,note_on,0,0,3,,,,,,,,,2,,,55,78
382560,note_on,0,0,2,,,,,,,,,1,,,67,78
382560,note_on,0,0,3,,,,,,,,,2,,,51,78
382560,note_on,0,0,2,,,,,,,,,1,,,63,78
382560,note_off,160,0,3,,,,,,,,,2,,,55,0
382560,note_on,0,0,2,,,,,,,,,1,,,80,78
382560,note_off,0,0,2,,,,,,,,,1,,,70,0
382560,note_on,0,0,2,,,,,,,,,1,,,70,78
382560,note_off,480,0,2,,,,,,,,,1,,,67,0
382560,note_off,480,0,4,,,,,,,,,3,,,39,0
382560,note_off,960,0,1,,,,,,,,,0,,,82,0
382560,note_on,0,0,1,,,,,,,,,0,,,84,78
382560,note_off,0,0,2,,,,,,,,,1,,,79,0
382560,note_off,0,0,2,,,,,,,,,1,,,63,0
382680,note_off,120,0,2,,,,,,,,,1,,,80,0
382680,note_on,0,0,2,,,,,,,,,1,,,79,78
382680,note_off,120,0,1,,,,,,,,,0,,,84,0
382680,note_on,0,0,1,,,,,,,,,0,,,82,78
382720,note_off,160,0,3,,,,,,,,,2,,,51,0
382720,note_on,0,0,3,,,,,,,,,2,,,46,78
382800,note_off,120,0,2,,,,,,,,,1,,,79,0
382800,note_on,0,0,2,,,,,,,,,1,,,77,78
382800,note_off,120,0,1,,,,,,,,,0,,,82,0
382800,note_on,0,0,1,,,,,,,,,0,,,81,78
382880,note_on,0,0,3,,,,,,,,,2,,,58,78
382880,note_off,160,0,3,,,,,,,,,2,,,46,0
382920,note_off,120,0,2,,,,,,,,,1,,,77,0
382920,note_on,0,0,1,,,,,,,,,0,,,79,78
382920,note_off,120,0,1,,,,,,,,,0,,,81,0
382920,note_on,0,0,2,,,,,,,,,1,,,75,78
383002,set_tempo,922,1,0,,,,,,441176,,,,,,,
383040,note_off,0,0,2,,,,,,,,,1,,,70,0
383040,note_on,0,0,2,,,,,,,,,1,,,74,78
383040,note_on,0,0,2,,,,,,,,,1,,,65,78
383040,set_tempo,38,1,0,,,,,,434782,,,,,,,
383040,note_on,0,0,2,,,,,,,,,1,,,62,78
383040,note_off,120,0,2,,,,,,,,,1,,,75,0
383040,note_off,160,0,3,,,,,,,,,2,,,58,0
383040,note_off,0,0,2,,,,,,,,,1,,,67,0
383040,note_off,120,0,1,,,,,,,,,0,,,79,0
383040,note_on,0,0,1,,,,,,,,,0,,,77,78
383040,note_on,480,0,4,,,,,,,,,3,,,41,78
383040,note_off,0,0,2,,,,,,,,,1,,,63,0
383200,note_on,160,0,3,,,,,,,,,2,,,53,78
383360,note_off,160,0,3,,,,,,,,,2,,,53,0
383360,note_on,0,0,3,,,,,,,,,2,,,50,79
383400,note_off,360,0,2,,,,,,,,,1,,,62,0
383400,note_off,0,0,2,,,,,,,,,1,,,65,0
383400,note_off,0,0,2,,,,,,,,,1,,,74,0
383400,note_off,360,0,1,,,,,,,,,0,,,77,0
383520,note_on,0,0,3,,,,,,,,,2,,,58,79
383520,note_on,120,0,2,,,,,,,,,1,,,70,79
383520,note_on,0,0,2,,,,,,,,,1,,,62,79
383520,note_off,160,0,3,,,,,,,,,2,,,50,0
383520,note_off,480,0,4,,,,,,,,,3,,,41,0
383520,note_on,120,0,1,,,,,,,,,0,,,74,79
383520,note_on,0,0,3,,,,,,,,,2,,,46,79
383680,note_off,160,0,3,,,,,,,,,2,,,46,0
383680,note_on,0,0,3,,,,,,,,,2,,,41,79
383808,note_off,128,0,3,,,,,,,,,2,,,58,0
383808,note_off,288,0,2,,,,,,,,,1,,,62,0
383808,note_off,0,0,2,,,,,,,,,1,,,70,0
383808,note_off,288,0,1,,,,,,,,,0,,,74,0
383840,note_off,32,0,3,,,,,,,,,2,,,41,0
383840,note_on,0,0,3,,,,,,,,,2,,,53,79
383880,note_on,72,0,1,,,,,,,,,0,,,74,81
383880,note_on,40,0,3,,,,,,,,,2,,,58,81
383880,note_on,0,0,2,,,,,,,,,1,,,62,81
383880,note_on,72,0,2,,,,,,,,,1,,,70,81
383960,set_tempo,920,1,0,,,,,,441176,,,,,,,
383976,note_off,96,0,3,,,,,,,,,2,,,58,0
383976,note_off,96,0,1,,,,,,,,,0,,,74,0
383976,note_off,96,0,2,,,,,,,,,1,,,62,0
383976,note_off,0,0,2,,,,,,,,,1,,,70,0
384000,note_on,0,0,2,,,,,,,,,1,,,63,80
384000,note_off,24,0,3,,,,,,,,,2,,,53,0
384000,note_on,24,0,2,,,,,,,,,1,,,72,80
384000,note_on,480,0,4,,,,,,,,,3,,,29,80
384000,note_on,0,0,2,,,,,,,,,1,,,60,80
384000,note_on,24,0,1,,,,,,,,,0,,,75,80
384000,set_tempo,40,1,0,,,,,,434782,,,,,,,
384160,note_on,160,0,3,,,,,,,,,2,,,53,79
384320,note_on,0,0,3,,,,,,,,,2,,,48,78
384320,note_off,160,0,3,,,,,,,,,2,,,53,0
384360,note_off,360,0,2,,,,,,,,,1,,,63,0
384360,note_off,360,0,1,,,,,,,,,0,,,75,0
384360,note_off,0,0,2,,,,,,,,,1,,,60,0
384360,note_off,0,0,2,,,,,,,,,1,,,72,0
384480,note_on,0,0,3,,,,,,,,,2,,,57,77
384480,note_off,160,0,3,,,,,,,,,2,,,48,0
384480,note_on,0,0,3,,,,,,,,,2,,,45,77
384480,note_on,120,0,2,,,,,,,,,1,,,69,77
384480,note_on,120,0,1,,,,,,,,,0,,,72,77
384480,note_off,480,0,4,,,,,,,,,3,,,29,0
384480,note_on,0,0,2,,,,,,,,,1,,,60,77
384640,note_on,0,0,3,,,,,,,,,2,,,41,76
384640,note_off,160,0,3,,,,,,,,,2,,,45,0
384768,note_off,288,0,2,,,,,,,,,1,,,60,0
384768,note_off,128,0,3,,,,,,,,,2,,,57,0
384768,note_off,288,0,1,,,,,,,,,0,,,72,0
384768,note_off,0,0,2,,,,,,,,,1,,,69,0
384800,note_on,0,0,3,,,,,,,,,2,,,53,75
384800,note_off,32,0,3,,,,,,,,,2,,,41,0
384840,note_on,72,0,2,,,,,,,,,1,,,65,74
384840,note_on,72,0,1,,,,,,,,,0,,,77,74
384847,set_tempo,847,1,0,,,,,,441176,,,,,,,
384936,note_off,96,0,2,,,,,,,,,1,,,65,0
384936,note_off,96,0,1,,,,,,,,,0,,,77,0
384960,note_on,24,0,1,,,,,,,,,0,,,77,74
384960,note_on,24,0,2,,,,,,,,,1,,,65,74
384960,note_off,160,0,3,,,,,,,,,2,,,53,0
384960,set_tempo,113,1,0,,,,,,434782,,,,,,,
384960,note_on,480,0,4,,,,,,,,,3,,,34,74
385120,note_off,160,0,2,,,,,,,,,1,,,65,0
385120,note_on,0,0,2,,,,,,,,,1,,,70,74
385120,note_on,160,0,3,,,,,,,,,2,,,46,74
385120,note_on,0,0,3,,,,,,,,,2,,,50,74
385120,note_on,0,0,1,,,,,,,,,0,,,74,74
385120,note_off,160,0,1,,,,,,,,,0,,,77,0
385224,note_off,104,0,2,,,,,,,,,1,,,70,0
385224,note_off,104,0,1,,,,,,,,,0,,,74,0
385280,note_on,56,0,1,,,,,,,,,0,,,82,75
385280,note_on,56,0,2,,,,,,,,,1,,,65,75
385280,note_off,160,0,3,,,,,,,,,2,,,50,0
385280,note_on,0,0,3,,,,,,,,,2,,,53,75
385280,note_off,0,0,3,,,,,,,,,2,,,46,0
385320,note_off,360,0,4,,,,,,,,,3,,,34,0
385384,note_off,104,0,1,,,,,,,,,0,,,82,0
385384,note_off,104,0,2,,,,,,,,,1,,,65,0
385440,note_off,160,0,3,,,,,,,,,2,,,53,0
385440,note_on,56,0,2,,,,,,,,,1,,,65,75
385440,note_on,120,0,4,,,,,,,,,3,,,46,75
385440,note_on,56,0,1,,,,,,,,,0,,,82,75
385600,note_off,160,0,2,,,,,,,,,1,,,65,0
385600,note_on,0,0,2,,,,,,,,,1,,,70,75
385600,note_off,160,0,1,,,,,,,,,0,,,82,0
385600,note_on,0,0,3,,,,,,,,,2,,,50,75
385600,note_on,0,0,1,,,,,,,,,0,,,77,75
385600,note_on,160,0,3,,,,,,,,,2,,,53,75
385704,note_off,104,0,2,,,,,,,,,1,,,70,0
385704,note_off,104,0,1,,,,,,,,,0,,,77,0
385760,note_off,160,0,3,,,,,,,,,2,,,50,0
385760,note_on,0,0,3,,,,,,,,,2,,,58,76
385760,note_on,56,0,1,,,,,,,,,0,,,77,76
385760,note_off,0,0,3,,,,,,,,,2,,,53,0
385760,note_on,56,0,2,,,,,,,,,1,,,65,76
385800,note_off,360,0,4,,,,,,,,,3,,,46,0
385864,note_off,104,0,2,,,,,,,,,1,,,65,0
385864,note_off,104,0,1,,,,,,,,,0,,,77,0
385880,set_tempo,920,1,0,,,,,,441176,,,,,,,
385920,note_on,56,0,1,,,,,,,,,0,,,77,76
385920,note_off,160,0,3,,,,,,,,,2,,,58,0
385920,note_on,120,0,4,,,,,,,,,3,,,34,76
385920,note_on,56,0,2,,,,,,,,,1,,,65,76
385920,set_tempo,40,1,0,,,,,,434782,,,,,,,
386080,note_off,160,0,1,,,,,,,,,0,,,77,0
386080,note_on,0,0,1,,,,,,,,,0,,,74,76
386080,note_on,0,0,2,,,,,,,,,1,,,70,76
386080,note_on,0,0,3,,,,,,,,,2,,,50,76
386080,note_off,160,0,2,,,,,,,,,1,,,65,0
386080,note_on,160,0,3,,,,,,,,,2,,,46,76
386184,note_off,104,0,1,,,,,,,,,0,,,74,0
386184,note_off,104,0,2,,,,,,,,,1,,,70,0
386240,note_on,56,0,1,,,,,,,,,0,,,82,77
386240,note_off,160,0,3,,,,,,,,,2,,,50,0
386240,note_off,0,0,3,,,,,,,,,2,,,46,0
386240,note_on,0,0,3,,,,,,,,,2,,,53,77
386240,note_on,56,0,2,,,,,,,,,1,,,65,77
386280,note_off,360,0,4,,,,,,,,,3,,,34,0
386344,note_off,104,0,2,,,,,,,,,1,,,65,0
386344,note_off,104,0,1,,,,,,,,,0,,,82,0
386400,note_on,120,0,4,,,,,,,,,3,,,46,77
386400,note_on,56,0,2,,,,,,,,,1,,,65,77
386400,note_on,56,0,1,,,,,,,,,0,,,82,77
386400,note_off,160,0,3,,,,,,,,,2,,,53,0
386560,note_on,160,0,3,,,,,,,,,2,,,50,78
386560,note_on,0,0,3,,,,,,,,,2,,,53,78
386560,note_off,160,0,2,,,,,,,,,1,,,65,0
386560,note_on,0,0,2,,,,,,,,,1,,,70,78
386560,note_on,0,0,1,,,,,,,,,0,,,77,78
386560,note_off,160,0,1,,,,,,,,,0,,,82,0
386664,note_off,104,0,2,,,,,,,,,1,,,70,0
386664,note_off,104,0,1,,,,,,,,,0,,,77,0
386720,note_on,56,0,2,,,,,,,,,1,,,67,78
386720,note_on,56,0,1,,,,,,,,,0,,,79,78
386720,note_on,0,0,3,,,,,,,,,2,,,58,78
386720,note_off,0,0,3,,,,,,,,,2,,,50,0
386720,note_off,160,0,3,,,,,,,,,2,,,53,0
386760,note_off,360,0,4,,,,,,,,,3,,,46,0
386824,note_off,104,0,1,,,,,,,,,0,,,79,0
386824,note_off,104,0,2,,,,,,,,,1,,,67,0
386840,set_tempo,920,1,0,,,,,,441176,,,,,,,
386880,note_on,56,0,2,,,,,,,,,1,,,67,78
386880,note_off,160,0,3,,,,,,,,,2,,,58,0
386880,note_on,56,0,1,,,,,,,,,0,,,79,78
386880,note_on,120,0,4,,,,,,,,,3,,,39,78
386880,set_tempo,40,1,0,,,,,,434782,,,,,,,
387040,note_on,0,0,1,,,,,,,,,0,,,75,79
387040,note_on,160,0,3,,,,,,,,,2,,,46,79
387040,note_on,0,0,3,,,,,,,,,2,,,51,79
387040,note_on,0,0,2,,,,,,,,,1,,,63,79
387040,note_off,160,0,1,,,,,,,,,0,,,79,0
387040,note_off,160,0,2,,,,,,,,,1,,,67,0
387144,note_off,104,0,1,,,,,,,,,0,,,75,0
387144,note_off,104,0,2,,,,,,,,,1,,,63,0
387200,note_off,160,0,3,,,,,,,,,2,,,51,0
387200,note_off,0,0,3,,,,,,,,,2,,,46,0
387200,note_on,0,0,3,,,,,,,,,2,,,55,79
387200,note_on,56,0,1,,,,,,,,,0,,,82,79
387200,note_on,56,0,2,,,,,,,,,1,,,67,79
387200,note_on,0,0,2,,,,,,,,,1,,,70,79
387240,note_off,360,0,4,,,,,,,,,3,,,39,0
387304,note_off,0,0,2,,,,,,,,,1,,,67,0
387304,note_off,104,0,1,,,,,,,,,0,,,82,0
387304,note_off,104,0,2,,,,,,,,,1,,,70,0
387320,set_tempo,440,1,0,,,,,,441176,,,,,,,
387360,note_on,120,0,4,,,,,,,,,3,,,51,79
387360,note_on,0,0,2,,,,,,,,,1,,,67,89
387360,note_on,56,0,2,,,,,,,,,1,,,70,89
387360,note_on,56,0,1,,,,,,,,,0,,,82,89
387360,note_off,160,0,3,,,,,,,,,2,,,55,0
387360,set_tempo,40,1,0,,,,,,434782,,,,,,,
387520,note_on,160,0,3,,,,,,,,,2,,,55,80
387680,note_on,0,0,3,,,,,,,,,2,,,58,80
387680,note_off,160,0,3,,,,,,,,,2,,,55,0
387720,note_off,360,0,4,,,,,,,,,3,,,51,0
387800,set_tempo,440,1,0,,,,,,441176,,,,,,,
387840,note_off,160,0,3,,,,,,,,,2,,,58,0
387840,note_on,120,0,4,,,,,,,,,3,,,51,81
387840,set_tempo,40,1,0,,,,,,434782,,,,,,,
388000,note_on,160,0,3,,,,,,,,,2,,,55,81
388080,note_on,0,0,2,,,,,,,,,1,,,69,81
388080,note_off,0,0,2,,,,,,,,,1,,,70,0
388080,note_off,720,0,2,,,,,,,,,1,,,67,0
388080,note_on,0,0,1,,,,,,,,,0,,,81,81
388080,note_off,720,0,1,,,,,,,,,0,,,82,0
388160,note_off,160,0,3,,,,,,,,,2,,,55,0
388160,note_on,0,0,3,,,,,,,,,2,,,58,81
388200,note_off,360,0,4,,,,,,,,,3,,,51,0
388200,note_on,0,0,1,,,,,,,,,0,,,82,81
388200,note_off,120,0,2,,,,,,,,,1,,,69,0
388200,note_on,0,0,2,,,,,,,,,1,,,70,81
388200,note_off,120,0,1,,,,,,,,,0,,,81,0
388320,note_off,120,0,1,,,,,,,,,0,,,82,0
388320,note_on,0,0,1,,,,,,,,,0,,,84,82
388320,note_off,160,0,3,,,,,,,,,2,,,58,0
388320,note_on,120,0,4,,,,,,,,,3,,,39,82
388320,note_on,0,0,2,,,,,,,,,1,,,72,82
388320,note_off,120,0,2,,,,,,,,,1,,,70,0
388440,note_off,120,0,1,,,,,,,,,0,,,84,0
388440,note_on,0,0,2,,,,,,,,,1,,,70,82
388440,note_off,120,0,2,,,,,,,,,1,,,72,0
388440,note_on,0,0,1,,,,,,,,,0,,,82,82
388480,note_on,160,0,3,,,,,,,,,2,,,55,82
388480,note_on,0,0,3,,,,,,,,,2,,,51,82
388560,note_on,0,0,1,,,,,,,,,0,,,81,82
388560,note_on,0,0,2,,,,,,,,,1,,,69,82
388560,note_off,120,0,2,,,,,,,,,1,,,70,0
388560,note_off,120,0,1,,,,,,,,,0,,,82,0
388640,note_on,0,0,3,,,,,,,,,2,,,58,82
388640,note_off,0,0,3,,,,,,,,,2,,,55,0
388640,note_off,160,0,3,,,,,,,,,2,,,51,0
388680,note_off,120,0,2,,,,,,,,,1,,,69,0
388680,note_on,0,0,1,,,,,,,,,0,,,79,82
388680,note_off,360,0,4,,,,,,,,,3,,,39,0
388680,note_on,0,0,2,,,,,,,,,1,,,67,82
388680,note_off,120,0,1,,,,,,,,,0,,,81,0
388760,set_tempo,920,1,0,,,,,,441176,,,,,,,
388800,note_on,0,0,2,,,,,,,,,1,,,65,83
388800,note_on,0,0,1,,,,,,,,,0,,,77,83
388800,note_off,120,0,2,,,,,,,,,1,,,67,0
388800,set_tempo,40,1,0,,,,,,434782,,,,,,,
388800,note_off,160,0,3,,,,,,,,,2,,,58,0
388800,note_on,120,0,4,,,,,,,,,3,,,41,83
388800,note_off,120,0,1,,,,,,,,,0,,,79,0
388960,note_on,160,0,3,,,,,,,,,2,,,53,83
388960,note_on,0,0,3,,,,,,,,,2,,,50,83
389120,note_off,160,0,3,,,,,,,,,2,,,50,0
389120,note_off,0,0,3,,,,,,,,,2,,,53,0
389120,note_on,0,0,3,,,,,,,,,2,,,58,84
389160,note_off,360,0,1,,,,,,,,,0,,,77,0
389160,note_off,360,0,2,,,,,,,,,1,,,65,0
389160,note_off,360,0,4,,,,,,,,,3,,,41,0
389280,note_on,120,0,1,,,,,,,,,0,,,86,84
389280,note_on,0,0,2,,,,,,,,,1,,,70,84
389280,note_on,0,0,2,,,,,,,,,1,,,74,84
389280,note_on,120,0,2,,,,,,,,,1,,,82,84
389280,note_off,160,0,3,,,,,,,,,2,,,58,0
389280,note_on,18240,0,5,,,,,,,,,4,,,29,84
389280,note_on,120,0,4,,,,,,,,,3,,,41,84
389440,note_on,0,0,3,,,,,,,,,2,,,50,84
389440,note_on,160,0,3,,,,,,,,,2,,,46,84
389568,note_off,0,0,2,,,,,,,,,1,,,82,0
389568,note_off,0,0,2,,,,,,,,,1,,,74,0
389568,note_off,288,0,2,,,,,,,,,1,,,70,0
389568,note_off,288,0,1,,,,,,,,,0,,,86,0
389600,note_on,0,0,3,,,,,,,,,2,,,53,85
389600,note_off,160,0,3,,,,,,,,,2,,,50,0
389600,note_off,0,0,3,,,,,,,,,2,,,46,0
389640,note_on,72,0,1,,,,,,,,,0,,,86,85
389640,note_off,360,0,4,,,,,,,,,3,,,41,0
389640,note_on,0,0,2,,,,,,,,,1,,,70,85
389640,note_on,0,0,2,,,,,,,,,1,,,74,85
389640,note_on,72,0,2,,,,,,,,,1,,,82,85
389640,note_off,360,0,5,,,,,,,,,4,,,29,0
389720,set_tempo,920,1,0,,,,,,441176,,,,,,,
389736,note_off,96,0,2,,,,,,,,,1,,,70,0
389736,note_off,0,0,2,,,,,,,,,1,,,82,0
389736,note_off,0,0,2,,,,,,,,,1,,,74,0
389736,note_off,96,0,1,,,,,,,,,0,,,86,0
389760,note_on,0,0,2,,,,,,,,,1,,,72,85
389760,note_on,120,0,5,,,,,,,,,4,,,29,85
389760,note_on,120,0,4,,,,,,,,,3,,,41,85
389760,set_tempo,40,1,0,,,,,,434782,,,,,,,
389760,note_on,0,0,2,,,,,,,,,1,,,75,85
389760,note_off,160,0,3,,,,,,,,,2,,,53,0
389760,note_on,24,0,2,,,,,,,,,1,,,84,85
389760,note_on,24,0,1,,,,,,,,,0,,,87,85
389920,note_on,0,0,3,,,,,,,,,2,,,48,84
389920,note_on,160,0,3,,,,,,,,,2,,,45,84
390048,note_off,288,0,1,,,,,,,,,0,,,87,0
390048,note_off,288,0,2,,,,,,,,,1,,,72,0
390048,note_off,0,0,2,,,,,,,,,1,,,75,0
390048,note_off,0,0,2,,,,,,,,,1,,,84,0
390080,note_off,160,0,3,,,,,,,,,2,,,48,0
390080,note_off,0,0,3,,,,,,,,,2,,,45,0
390080,note_on,0,0,3,,,,,,,,,2,,,53,83
390120,note_off,360,0,5,,,,,,,,,4,,,29,0
390120,note_off,360,0,4,,,,,,,,,3,,,41,0
390120,note_on,0,0,2,,,,,,,,,1,,,72,83
390120,note_on,0,0,2,,,,,,,,,1,,,75,83
390120,note_on,72,0,1,,,,,,,,,0,,,87,83
390120,note_on,72,0,2,,,,,,,,,1,,,84,83
390216,note_off,0,0,2,,,,,,,,,1,,,75,0
390216,note_off,0,0,2,,,,,,,,,1,,,84,0
390216,note_off,96,0,1,,,,,,,,,0,,,87,0
390216,note_off,96,0,2,,,,,,,,,1,,,72,0
390240,note_on,120,0,4,,,,,,,,,3,,,41,82
390240,note_on,120,0,5,,,,,,,,,4,,,29,82
390240,note_on,24,0,2,,,,,,,,,1,,,81,82
390240,note_on,0,0,2,,,,,,,,,1,,,69,82
390240,note_on,0,0,2,,,,,,,,,1,,,72,82
390240,note_on,24,0,1,,,,,,,,,0,,,84,82
390240,note_off,160,0,3,,,,,,,,,2,,,53,0
390400,note_on,160,0,3,,,,,,,,,2,,,51,81
390528,note_off,0,0,2,,,,,,,,,1,,,69,0
390528,note_off,288,0,2,,,,,,,,,1,,,72,0
390528,note_off,0,0,2,,,,,,,,,1,,,81,0
390528,note_off,288,0,1,,,,,,,,,0,,,84,0
390560,note_on,0,0,3,,,,,,,,,2,,,53,80
390560,note_off,160,0,3,,,,,,,,,2,,,51,0
390600,note_on,72,0,2,,,,,,,,,1,,,81,80
390600,note_on,0,0,2,,,,,,,,,1,,,69,80
390600,note_on,0,0,2,,,,,,,,,1,,,72,80
390600,note_off,360,0,4,,,,,,,,,3,,,41,0
390600,note_off,360,0,5,,,,,,,,,4,,,29,0
390600,note_on,72,0,1,,,,,,,,,0,,,84,80
390607,set_tempo,847,1,0,,,,,,441176,,,,,,,
390696,note_off,96,0,2,,,,,,,,,1,,,72,0
390696,note_off,0,0,2,,,,,,,,,1,,,69,0
390696,note_off,0,0,2,,,,,,,,,1,,,81,0
390696,note_off,96,0,1,,,,,,,,,0,,,84,0
390720,note_off,160,0,3,,,,,,,,,2,,,53,0
390720,note_on,24,0,1,,,,,,,,,0,,,82,80
390720,note_on,120,0,4,,,,,,,,,3,,,46,80
390720,note_on,24,0,2,,,,,,,,,1,,,70,80
390720,note_on,120,0,5,,,,,,,,,4,,,34,80
390720,set_tempo,113,1,0,,,,,,434782,,,,,,,
390720,note_on,0,0,3,,,,,,,,,2,,,50,80
390824,note_off,104,0,3,,,,,,,,,2,,,50,0
390880,note_on,56,0,3,,,,,,,,,2,,,53,80
390984,note_off,104,0,3,,,,,,,,,2,,,53,0
391040,note_on,56,0,3,,,,,,,,,2,,,58,81
391080,note_off,360,0,5,,,,,,,,,4,,,34,0
391080,note_off,360,0,1,,,,,,,,,0,,,82,0
391080,note_off,360,0,2,,,,,,,,,1,,,70,0
391080,note_off,360,0,4,,,,,,,,,3,,,46,0
391144,note_off,104,0,3,,,,,,,,,2,,,58,0
391200,note_on,120,0,1,,,,,,,,,0,,,84,81
391200,note_on,56,0,3,,,,,,,,,2,,,51,81
391200,note_on,120,0,5,,,,,,,,,4,,,39,81
391200,note_on,120,0,2,,,,,,,,,1,,,75,81
391304,note_off,104,0,3,,,,,,,,,2,,,51,0
391360,note_on,0,0,1,,,,,,,,,0,,,86,82
391360,note_off,160,0,1,,,,,,,,,0,,,84,0
391360,note_on,0,0,2,,,,,,,,,1,,,77,82
391360,note_on,56,0,3,,,,,,,,,2,,,55,82
391360,note_off,160,0,2,,,,,,,,,1,,,75,0
391434,note_off,234,0,5,,,,,,,,,4,,,39,0
391464,note_off,104,0,3,,,,,,,,,2,,,55,0
391520,note_on,0,0,1,,,,,,,,,0,,,87,82
391520,note_off,160,0,2,,,,,,,,,1,,,77,0
391520,note_on,0,0,2,,,,,,,,,1,,,79,82
391520,note_off,160,0,1,,,,,,,,,0,,,86,0
391520,note_on,56,0,3,,,,,,,,,2,,,60,82
391560,note_on,126,0,5,,,,,,,,,4,,,39,83
391624,note_off,104,0,3,,,,,,,,,2,,,60,0
391638,note_off,78,0,5,,,,,,,,,4,,,39,0
391680,note_on,56,0,3,,,,,,,,,2,,,50,83
391680,note_off,160,0,1,,,,,,,,,0,,,87,0
391680,note_on,0,0,1,,,,,,,,,0,,,86,83
391680,note_off,160,0,2,,,,,,,,,1,,,79,0
391680,note_on,0,0,2,,,,,,,,,1,,,77,83
391680,note_on,42,0,5,,,,,,,,,4,,,41,83
391784,note_off,104,0,3,,,,,,,,,2,,,50,0
391840,note_off,160,0,1,,,,,,,,,0,,,86,0
391840,note_on,0,0,1,,,,,,,,,0,,,84,83
391840,note_off,160,0,2,,,,,,,,,1,,,77,0
391840,note_on,0,0,2,,,,,,,,,1,,,75,83
391840,note_on,56,0,3,,,,,,,,,2,,,53,83
391944,note_off,104,0,3,,,,,,,,,2,,,53,0
392000,note_off,160,0,2,,,,,,,,,1,,,75,0
392000,note_on,0,0,2,,,,,,,,,1,,,74,84
392000,note_on,56,0,3,,,,,,,,,2,,,58,84
392000,note_on,0,0,1,,,,,,,,,0,,,82,84
392000,note_off,160,0,1,,,,,,,,,0,,,84,0
392040,note_off,360,0,5,,,,,,,,,4,,,41,0
392104,note_off,104,0,3,,,,,,,,,2,,,58,0
392160,note_on,120,0,5,,,,,,,,,4,,,29,84
392160,note_on,0,0,2,,,,,,,,,1,,,72,84
392160,note_off,160,0,2,,,,,,,,,1,,,74,0
392160,note_on,0,0,1,,,,,,,,,0,,,81,84
392160,note_off,160,0,1,,,,,,,,,0,,,82,0
392160,note_on,56,0,3,,,,,,,,,2,,,48,84
392264,note_off,104,0,3,,,,,,,,,2,,,48,0
392320,note_off,160,0,2,,,,,,,,,1,,,72,0
392320,note_on,0,0,1,,,,,,,,,0,,,82,85
392320,note_off,160,0,1,,,,,,,,,0,,,81,0
392320,note_on,0,0,2,,,,,,,,,1,,,74,85
392320,note_on,56,0,3,,,,,,,,,2,,,53,85
392394,note_off,234,0,5,,,,,,,,,4,,,29,0
392424,note_off,104,0,3,,,,,,,,,2,,,53,0
392480,note_off,160,0,2,,,,,,,,,1,,,74,0
392480,note_on,0,0,1,,,,,,,,,0,,,84,85
392480,note_off,160,0,1,,,,,,,,,0,,,82,0
392480,note_on,0,0,2,,,,,,,,,1,,,75,85
392480,note_on,56,0,3,,,,,,,,,2,,,57,85
392520,note_on,126,0,5,,,,,,,,,4,,,29,85
392584,note_off,104,0,3,,,,,,,,,2,,,57,0
392598,note_off,78,0,5,,,,,,,,,4,,,29,0
392600,set_tempo,1880,1,0,,,,,,441176,,,,,,,
392640,note_off,160,0,2,,,,,,,,,1,,,75,0
392640,note_on,0,0,2,,,,,,,,,1,,,74,86
392640,note_on,0,0,1,,,,,,,,,0,,,82,86
392640,note_off,160,0,1,,,,,,,,,0,,,84,0
392640,note_on,56,0,3,,,,,,,,,2,,,50,86
392640,note_on,42,0,5,,,,,,,,,4,,,34,86
392640,set_tempo,40,1,0,,,,,,434782,,,,,,,
392744,note_off,104,0,3,,,,,,,,,2,,,50,0
392800,note_on,56,0,3,,,,,,,,,2,,,53,86
392800,note_off,160,0,1,,,,,,,,,0,,,82,0
392800,note_on,0,0,1,,,,,,,,,0,,,81,86
392800,note_off,160,0,2,,,,,,,,,1,,,74,0
392800,note_on,0,0,2,,,,,,,,,1,,,72,86
392904,note_off,104,0,3,,,,,,,,,2,,,53,0
392960,note_on,0,0,2,,,,,,,,,1,,,74,87
392960,note_on,56,0,3,,,,,,,,,2,,,58,87
392960,note_on,0,0,1,,,,,,,,,0,,,82,87
392960,note_off,160,0,1,,,,,,,,,0,,,81,0
392960,note_off,160,0,2,,,,,,,,,1,,,72,0
393000,note_off,360,0,5,,,,,,,,,4,,,34,0
393064,note_off,104,0,3,,,,,,,,,2,,,58,0
393120,note_on,120,0,5,,,,,,,,,4,,,39,87
393120,note_on,0,0,2,,,,,,,,,1,,,75,87
393120,note_off,160,0,2,,,,,,,,,1,,,74,0
393120,note_on,56,0,3,,,,,,,,,2,,,51,87
393120,note_on,0,0,1,,,,,,,,,0,,,84,87
393120,note_off,160,0,1,,,,,,,,,0,,,82,0
393224,note_off,104,0,3,,,,,,,,,2,,,51,0
393280,note_on,0,0,1,,,,,,,,,0,,,86,88
393280,note_on,0,0,2,,,,,,,,,1,,,77,88
393280,note_off,160,0,2,,,,,,,,,1,,,75,0
393280,note_on,56,0,3,,,,,,,,,2,,,55,88
393280,note_off,160,0,1,,,,,,,,,0,,,84,0
393354,note_off,234,0,5,,,,,,,,,4,,,39,0
393384,note_off,104,0,3,,,,,,,,,2,,,55,0
393440,note_off,160,0,1,,,,,,,,,0,,,86,0
393440,note_on,0,0,1,,,,,,,,,0,,,87,88
393440,note_on,56,0,3,,,,,,,,,2,,,60,88
393440,note_off,160,0,2,,,,,,,,,1,,,77,0
393440,note_on,0,0,2,,,,,,,,,1,,,79,88
393480,note_on,126,0,5,,,,,,,,,4,,,39,88
393544,note_off,104,0,3,,,,,,,,,2,,,60,0
393558,note_off,78,0,5,,,,,,,,,4,,,39,0
393600,note_on,42,0,5,,,,,,,,,4,,,41,89
393600,note_on,0,0,2,,,,,,,,,1,,,77,89
393600,note_on,56,0,3,,,,,,,,,2,,,50,89
393600,note_on,0,0,1,,,,,,,,,0,,,86,89
393600,note_off,160,0,2,,,,,,,,,1,,,79,0
393600,note_off,160,0,1,,,,,,,,,0,,,87,0
393704,note_off,104,0,3,,,,,,,,,2,,,50,0
393760,note_on,56,0,3,,,,,,,,,2,,,53,89
393760,note_on,0,0,1,,,,,,,,,0,,,84,89
393760,note_off,160,0,1,,,,,,,,,0,,,86,0
393760,note_off,160,0,2,,,,,,,,,1,,,77,0
393760,note_on,0,0,2,,,,,,,,,1,,,75,89
393864,note_off,104,0,3,,,,,,,,,2,,,53,0
393920,note_off,160,0,1,,,,,,,,,0,,,84,0
393920,note_on,0,0,1,,,,,,,,,0,,,82,90
393920,note_on,56,0,3,,,,,,,,,2,,,58,90
393920,note_off,160,0,2,,,,,,,,,1,,,75,0
393920,note_on,0,0,2,,,,,,,,,1,,,74,90
393960,note_off,360,0,5,,,,,,,,,4,,,41,0
394024,note_off,104,0,3,,,,,,,,,2,,,58,0
394080,note_on,56,0,3,,,,,,,,,2,,,48,90
394080,note_off,160,0,2,,,,,,,,,1,,,74,0
394080,note_on,120,0,5,,,,,,,,,4,,,29,90
394080,note_on,0,0,1,,,,,,,,,0,,,81,90
394080,note_off,160,0,1,,,,,,,,,0,,,82,0
394080,note_on,0,0,2,,,,,,,,,1,,,72,90
394184,note_off,104,0,3,,,,,,,,,2,,,48,0
394240,note_on,0,0,2,,,,,,,,,1,,,74,91
394240,note_off,160,0,2,,,,,,,,,1,,,72,0
394240,note_on,0,0,1,,,,,,,,,0,,,82,91
394240,note_off,160,0,1,,,,,,,,,0,,,81,0
394240,note_on,56,0,3,,,,,,,,,2,,,53,91
394314,note_off,234,0,5,,,,,,,,,4,,,29,0
394344,note_off,104,0,3,,,,,,,,,2,,,53,0
394400,note_off,160,0,1,,,,,,,,,0,,,82,0
394400,note_on,56,0,3,,,,,,,,,2,,,57,91
394400,note_on,0,0,1,,,,,,,,,0,,,84,91
394400,note_off,160,0,2,,,,,,,,,1,,,74,0
394400,note_on,0,0,2,,,,,,,,,1,,,75,91
394440,note_on,126,0,5,,,,,,,,,4,,,29,91
394440,set_tempo,1800,1,0,,,,,,441176,,,,,,,
394504,note_off,104,0,3,,,,,,,,,2,,,57,0
394518,note_off,78,0,5,,,,,,,,,4,,,29,0
394560,note_off,160,0,2,,,,,,,,,1,,,75,0
394560,note_on,42,0,5,,,,,,,,,4,,,34,90
394560,note_on,0,0,1,,,,,,,,,0,,,82,90
394560,set_tempo,120,1,0,,,,,,434782,,,,,,,
394560,note_off,160,0,1,,,,,,,,,0,,,84,0
394560,note_on,0,0,4,,,,,,,,,3,,,58,90
394560,note_on,3480,0,4,,,,,,,,,3,,,50,90
394560,note_on,0,0,4,,,,,,,,,3,,,53,90
394720,note_on,0,0,1,,,,,,,,,0,,,86,90
394720,note_off,160,0,1,,,,,,,,,0,,,82,0
394880,note_off,160,0,1,,,,,,,,,0,,,86,0
394880,note_on,0,0,1,,,,,,,,,0,,,82,91
395040,note_off,480,0,4,,,,,,,,,3,,,58,0
395040,note_off,0,0,4,,,,,,,,,3,,,53,0
395040,note_off,0,0,4,,,,,,,,,3,,,50,0
395040,note_off,160,0,1,,,,,,,,,0,,,82,0
395040,note_off,480,0,5,,,,,,,,,4,,,34,0
395040,note_on,0,0,1,,,,,,,,,0,,,77,91
395200,note_on,0,0,1,,,,,,,,,0,,,74,92
395200,note_off,160,0,1,,,,,,,,,0,,,77,0
395360,note_off,160,0,1,,,,,,,,,0,,,74,0
395360,note_on,0,0,1,,,,,,,,,0,,,77,92
395400,set_tempo,840,1,0,,,,,,441176,,,,,,,
395520,note_on,480,0,4,,,,,,,,,3,,,46,92
395520,note_on,0,0,4,,,,,,,,,3,,,53,92
395520,note_off,160,0,1,,,,,,,,,0,,,77,0
395520,note_on,480,0,5,,,,,,,,,4,,,34,92
395520,note_on,0,0,4,,,,,,,,,3,,,58,92
395520,set_tempo,120,1,0,,,,,,434782,,,,,,,
395520,note_on,0,0,4,,,,,,,,,3,,,50,92
395520,note_on,0,0,1,,,,,,,,,0,,,82,92
395680,note_off,160,0,1,,,,,,,,,0,,,82,0
395680,note_on,0,0,1,,,,,,,,,0,,,86,93
395840,note_off,160,0,1,,,,,,,,,0,,,86,0
395840,note_on,0,0,1,,,,,,,,,0,,,82,93
396000,note_off,480,0,5,,,,,,,,,4,,,34,0
396000,note_on,0,0,1,,,,,,,,,0,,,77,94
396000,note_off,160,0,1,,,,,,,,,0,,,82,0
396000,note_off,0,0,4,,,,,,,,,3,,,46,0
396000,note_off,480,0,4,,,,,,,,,3,,,58,0
396000,note_off,0,0,4,,,,,,,,,3,,,50,0
396000,note_off,0,0,4,,,,,,,,,3,,,53,0
396160,note_on,0,0,1,,,,,,,,,0,,,74,94
396160,note_off,160,0,1,,,,,,,,,0,,,77,0
396320,note_on,0,0,1,,,,,,,,,0,,,77,95
396320,note_off,160,0,1,,,,,,,,,0,,,74,0
396360,set_tempo,840,1,0,,,,,,441176,,,,,,,
396480,note_on,480,0,4,,,,,,,,,3,,,53,95
396480,note_on,0,0,4,,,,,,,,,3,,,50,95
396480,note_on,0,0,4,,,,,,,,,3,,,34,95
396480,set_tempo,120,1,0,,,,,,625000,,,,,,,
396480,note_on,0,0,4,,,,,,,,,3,,,46,95
396480,note_on,0,0,4,,,,,,,,,3,,,58,95
396480,note_on,1920,0,2,,,,,,,,,1,,,70,95
396480,note_on,0,0,2,,,,,,,,,1,,,65,95
396480,note_off,160,0,1,,,,,,,,,0,,,77,0
396480,note_on,0,0,1,,,,,,,,,0,,,82,95
396480,note_on,0,0,2,,,,,,,,,1,,,62,95
396960,note_off,480,0,2,,,,,,,,,1,,,65,0
396960,note_off,0,0,2,,,,,,,,,1,,,62,0
396960,note_off,0,0,2,,,,,,,,,1,,,70,0
396960,note_off,480,0,1,,,,,,,,,0,,,82,0
396960,note_off,0,0,4,,,,,,,,,3,,,58,0
396960,note_off,0,0,4,,,,,,,,,3,,,53,0
396960,note_off,0,0,4,,,,,,,,,3,,,50,0
396960,note_off,0,0,4,,,,,,,,,3,,,46,0
396960,note_off,480,0,4,,,,,,,,,3,,,34,0
397440,set_tempo,960,1,0,,,,,,441176,,,,,,,
397440,note_on,480,0,4,,,,,,,,,3,,,58,49
397568,note_off,128,0,4,,,,,,,,,3,,,58,0
397600,note_on,32,0,4,,,,,,,,,3,,,57,48
397728,note_off,128,0,4,,,,,,,,,3,,,57,0
397760,note_on,32,0,4,,,,,,,,,3,,,55,48
397888,note_off,128,0,4,,,,,,,,,3,,,55,0
397920,note_on,32,0,4,,,,,,,,,3,,,53,48
398048,note_off,128,0,4,,,,,,,,,3,,,53,0
398080,note_on,32,0,4,,,,,,,,,3,,,52,47
398208,note_off,128,0,4,,,,,,,,,3,,,52,0
398240,note_on,32,0,4,,,,,,,,,3,,,50,47
398360,set_tempo,920,1,0,,,,,,447761,,,,,,,
398368,note_off,128,0,4,,,,,,,,,3,,,50,0
398400,note_on,3896,0,3,,,,,,,,,2,,,33,46
398400,note_on,32,0,4,,,,,,,,,3,,,49,46
398400,note_on,0,0,3,,,,,,,,,2,,,45,46
398400,set_tempo,40,1,0,,,,,,441176,,,,,,,
398760,note_off,0,0,3,,,,,,,,,2,,,33,0
398760,note_off,360,0,3,,,,,,,,,2,,,45,0
398760,note_off,360,0,4,,,,,,,,,3,,,49,0
398880,note_on,120,0,4,,,,,,,,,3,,,52,45
399168,note_off,288,0,4,,,,,,,,,3,,,52,0
399240,note_on,72,0,4,,,,,,,,,3,,,52,44
399320,set_tempo,920,1,0,,,,,,447761,,,,,,,
399336,note_off,96,0,4,,,,,,,,,3,,,52,0
399360,note_on,24,0,4,,,,,,,,,3,,,45,44
399360,set_tempo,40,1,0,,,,,,441176,,,,,,,
399360,note_on,600,0,3,,,,,,,,,2,,,33,44
399720,note_off,360,0,3,,,,,,,,,2,,,33,0
399720,note_off,360,0,4,,,,,,,,,3,,,45,0
399840,note_on,120,0,4,,,,,,,,,3,,,52,43
400128,note_off,288,0,4,,,,,,,,,3,,,52,0
400200,note_on,72,0,4,,,,,,,,,3,,,52,42
400280,set_tempo,920,1,0,,,,,,447761,,,,,,,
400296,note_off,96,0,4,,,,,,,,,3,,,52,0
400320,note_on,600,0,3,,,,,,,,,2,,,33,41
400320,note_on,0,0,3,,,,,,,,,2,,,45,41
400320,note_on,24,0,4,,,,,,,,,3,,,49,41
400320,set_tempo,40,1,0,,,,,,441176,,,,,,,
400680,note_off,360,0,3,,,,,,,,,2,,,45,0
400680,note_off,360,0,4,,,,,,,,,3,,,49,0
400680,note_off,0,0,3,,,,,,,,,2,,,33,0
400800,note_on,120,0,4,,,,,,,,,3,,,52,39
401040,note_off,240,0,4,,,,,,,,,3,,,52,0
401240,set_tempo,920,1,0,,,,,,447761,,,,,,,
401270,set_tempo,30,1,0,,,,,,441176,,,,,,,
401280,note_on,4320,0,1,,,,,,,,,0,,,82,51
401280,set_tempo,10,1,0,,,,,,441176,,,,,,,
401408,note_off,128,0,1,,,,,,,,,0,,,82,0
401440,note_on,32,0,1,,,,,,,,,0,,,81,51
401568,note_off,128,0,1,,,,,,,,,0,,,81,0
401600,note_on,32,0,1,,,,,,,,,0,,,79,50
401728,note_off,128,0,1,,,,,,,,,0,,,79,0
401760,note_on,32,0,1,,,,,,,,,0,,,77,50
401888,note_off,128,0,1,,,,,,,,,0,,,77,0
401920,note_on,32,0,1,,,,,,,,,0,,,76,49
402048,note_off,128,0,1,,,,,,,,,0,,,76,0
402080,note_on,32,0,1,,,,,,,,,0,,,74,49
402200,set_tempo,920,1,0,,,,,,447761,,,,,,,
402208,note_off,128,0,1,,,,,,,,,0,,,74,0
402240,set_tempo,40,1,0,,,,,,441176,,,,,,,
402240,note_on,1560,0,3,,,,,,,,,2,,,67,49
402240,note_on,0,0,3,,,,,,,,,2,,,64,49
402240,note_on,1200,0,4,,,,,,,,,3,,,57,49
402240,note_on,32,0,1,,,,,,,,,0,,,73,49
402600,note_off,0,0,3,,,,,,,,,2,,,67,0
402600,note_off,360,0,4,,,,,,,,,3,,,57,0
402600,note_off,360,0,1,,,,,,,,,0,,,73,0
402600,note_off,360,0,3,,,,,,,,,2,,,64,0
402720,note_on,120,0,1,,,,,,,,,0,,,76,47
402720,note_on,120,0,4,,,,,,,,,3,,,55,47
403008,note_off,288,0,1,,,,,,,,,0,,,76,0
403008,note_off,288,0,4,,,,,,,,,3,,,55,0
403080,note_on,72,0,1,,,,,,,,,0,,,76,46
403080,note_on,72,0,4,,,,,,,,,3,,,55,46
403160,set_tempo,920,1,0,,,,,,447761,,,,,,,
403176,note_off,96,0,1,,,,,,,,,0,,,76,0
403176,note_off,96,0,4,,,,,,,,,3,,,55,0
403200,note_on,600,0,3,,,,,,,,,2,,,57,46
403200,note_on,24,0,1,,,,,,,,,0,,,69,46
403200,set_tempo,40,1,0,,,,,,441176,,,,,,,
403200,note_on,24,0,4,,,,,,,,,3,,,52,46
403200,note_on,0,0,3,,,,,,,,,2,,,67,46
403200,note_on,0,0,3,,,,,,,,,2,,,64,46
403560,note_off,360,0,3,,,,,,,,,2,,,64,0
403560,note_off,0,0,3,,,,,,,,,2,,,67,0
403560,note_off,0,0,3,,,,,,,,,2,,,57,0
403560,note_off,360,0,1,,,,,,,,,0,,,69,0
403560,note_off,360,0,4,,,,,,,,,3,,,52,0
403680,note_on,120,0,1,,,,,,,,,0,,,76,45
403680,note_on,120,0,4,,,,,,,,,3,,,49,45
403968,note_off,288,0,1,,,,,,,,,0,,,76,0
403968,note_off,288,0,4,,,,,,,,,3,,,49,0
404040,note_on,72,0,1,,,,,,,,,0,,,76,44
404040,note_on,72,0,4,,,,,,,,,3,,,49,44
404120,set_tempo,920,1,0,,,,,,447761,,,,,,,
404136,note_off,96,0,1,,,,,,,,,0,,,76,0
404136,note_off,96,0,4,,,,,,,,,3,,,49,0
404160,note_on,600,0,3,,,,,,,,,2,,,57,43
404160,note_on,0,0,3,,,,,,,,,2,,,64,43
404160,note_on,0,0,3,,,,,,,,,2,,,67,43
404160,note_on,24,0,4,,,,,,,,,3,,,45,43
404160,set_tempo,40,1,0,,,,,,441176,,,,,,,
404160,note_on,24,0,1,,,,,,,,,0,,,73,43
404520,note_off,0,0,3,,,,,,,,,2,,,64,0
404520,note_off,360,0,4,,,,,,,,,3,,,45,0
404520,note_off,360,0,1,,,,,,,,,0,,,73,0
404520,note_off,360,0,3,,,,,,,,,2,,,67,0
404520,note_off,0,0,3,,,,,,,,,2,,,57,0
404640,note_on,120,0,1,,,,,,,,,0,,,76,41
404640,note_on,120,0,4,,,,,,,,,3,,,55,41
404880,note_off,240,0,4,,,,,,,,,3,,,55,0
404880,note_off,240,0,1,,,,,,,,,0,,,76,0
405000,note_on,120,0,4,,,,,,,,,3,,,55,51
405080,set_tempo,920,1,0,,,,,,447761,,,,,,,
405096,note_off,96,0,4,,,,,,,,,3,,,55,0
405120,set_tempo,40,1,0,,,,,,441176,,,,,,,
405120,note_on,24,0,4,,,,,,,,,3,,,58,51
405248,note_off,128,0,4,,,,,,,,,3,,,58,0
405280,note_on,32,0,4,,,,,,,,,3,,,57,51
405408,note_off,128,0,4,,,,,,,,,3,,,57,0
405440,note_on,32,0,4,,,,,,,,,3,,,55,51
405568,note_off,128,0,4,,,,,,,,,3,,,55,0
405600,note_on,32,0,4,,,,,,,,,3,,,53,50
405728,note_off,128,0,4,,,,,,,,,3,,,53,0
405760,note_on,32,0,4,,,,,,,,,3,,,52,50
405888,note_off,128,0,4,,,,,,,,,3,,,52,0
405920,note_on,32,0,4,,,,,,,,,3,,,50,50
406040,set_tempo,920,1,0,,,,,,447761,,,,,,,
406048,note_off,128,0,4,,,,,,,,,3,,,50,0
406080,note_on,1560,0,3,,,,,,,,,2,,,45,50
406080,note_on,0,0,3,,,,,,,,,2,,,33,50
406080,note_on,32,0,4,,,,,,,,,3,,,49,50
406080,note_on,9120,0,2,,,,,,,,,1,,,70,50
406080,set_tempo,40,1,0,,,,,,441176,,,,,,,
406208,note_off,128,0,2,,,,,,,,,1,,,70,0
406240,note_on,32,0,2,,,,,,,,,1,,,69,50
406368,note_off,128,0,2,,,,,,,,,1,,,69,0
406400,note_on,32,0,2,,,,,,,,,1,,,67,49
406440,note_off,360,0,3,,,,,,,,,2,,,33,0
406440,note_off,0,0,3,,,,,,,,,2,,,45,0
406440,note_off,360,0,4,,,,,,,,,3,,,49,0
406528,note_off,128,0,2,,,,,,,,,1,,,67,0
406560,note_on,120,0,4,,,,,,,,,3,,,52,49
406560,note_on,32,0,2,,,,,,,,,1,,,65,49
406688,note_off,128,0,2,,,,,,,,,1,,,65,0
406720,note_on,32,0,2,,,,,,,,,1,,,64,49
406800,note_off,240,0,4,,,,,,,,,3,,,52,0
406848,note_off,128,0,2,,,,,,,,,1,,,64,0
406880,note_on,32,0,2,,,,,,,,,1,,,62,49
407000,set_tempo,920,1,0,,,,,,447761,,,,,,,
407008,note_off,128,0,2,,,,,,,,,1,,,62,0
407040,note_on,2160,0,1,,,,,,,,,0,,,82,48
407040,set_tempo,40,1,0,,,,,,441176,,,,,,,
407040,note_on,32,0,2,,,,,,,,,1,,,61,48
407168,note_off,128,0,1,,,,,,,,,0,,,82,0
407200,note_on,32,0,1,,,,,,,,,0,,,81,48
407328,note_off,128,0,1,,,,,,,,,0,,,81,0
407360,note_on,32,0,1,,,,,,,,,0,,,79,48
407400,note_off,360,0,2,,,,,,,,,1,,,61,0
407488,note_off,128,0,1,,,,,,,,,0,,,79,0
407520,note_on,32,0,1,,,,,,,,,0,,,77,48
407520,note_on,720,0,4,,,,,,,,,3,,,55,48
407520,note_on,120,0,2,,,,,,,,,1,,,64,48
407648,note_off,128,0,1,,,,,,,,,0,,,77,0
407680,note_on,32,0,1,,,,,,,,,0,,,76,48
407765,note_off,245,0,2,,,,,,,,,1,,,64,0
407808,note_off,128,0,1,,,,,,,,,0,,,76,0
407808,note_off,288,0,4,,,,,,,,,3,,,55,0
407840,note_on,32,0,1,,,,,,,,,0,,,74,47
407880,note_on,72,0,4,,,,,,,,,3,,,55,47
407960,set_tempo,920,1,0,,,,,,447761,,,,,,,
407968,note_off,128,0,1,,,,,,,,,0,,,74,0
407976,note_off,96,0,4,,,,,,,,,3,,,55,0
408000,note_on,32,0,1,,,,,,,,,0,,,73,47
408000,set_tempo,40,1,0,,,,,,441176,,,,,,,
408000,note_on,24,0,4,,,,,,,,,3,,,58,47
408128,note_off,128,0,4,,,,,,,,,3,,,58,0
408160,note_on,32,0,4,,,,,,,,,3,,,57,47
408288,note_off,128,0,4,,,,,,,,,3,,,57,0
408320,note_on,32,0,4,,,,,,,,,3,,,55,47
408360,note_off,360,0,1,,,,,,,,,0,,,73,0
408448,note_off,128,0,4,,,,,,,,,3,,,55,0
408480,note_on,120,0,1,,,,,,,,,0,,,76,46
408480,note_on,32,0,4,,,,,,,,,3,,,53,46
408608,note_off,128,0,4,,,,,,,,,3,,,53,0
408640,note_on,32,0,4,,,,,,,,,3,,,52,46
408715,note_off,235,0,1,,,,,,,,,0,,,76,0
408768,note_off,128,0,4,,,,,,,,,3,,,52,0
408800,note_on,32,0,4,,,,,,,,,3,,,50,46
408920,set_tempo,920,1,0,,,,,,447761,,,,,,,
408928,note_off,128,0,4,,,,,,,,,3,,,50,0
408960,note_on,2520,0,3,,,,,,,,,2,,,46,46
408960,set_tempo,40,1,0,,,,,,441176,,,,,,,
408960,note_on,32,0,4,,,,,,,,,3,,,49,46
409088,note_off,128,0,3,,,,,,,,,2,,,46,0
409120,note_on,32,0,3,,,,,,,,,2,,,45,48
409248,note_off,128,0,3,,,,,,,,,2,,,45,0
409280,note_on,32,0,3,,,,,,,,,2,,,43,49
409320,note_off,360,0,4,,,,,,,,,3,,,49,0
409408,note_off,128,0,3,,,,,,,,,2,,,43,0
409440,note_on,120,0,4,,,,,,,,,3,,,52,50
409440,note_on,32,0,3,,,,,,,,,2,,,41,50
409568,note_off,128,0,3,,,,,,,,,2,,,41,0
409600,note_on,32,0,3,,,,,,,,,2,,,40,51
409685,note_off,245,0,4,,,,,,,,,3,,,52,0
409728,note_off,128,0,3,,,,,,,,,2,,,40,0
409760,note_on,32,0,3,,,,,,,,,2,,,38,52
409880,set_tempo,920,1,0,,,,,,447761,,,,,,,
409888,note_off,128,0,3,,,,,,,,,2,,,38,0
409920,note_on,32,0,3,,,,,,,,,2,,,37,55
410280,note_off,360,0,3,,,,,,,,,2,,,37,0
410400,note_on,120,0,3,,,,,,,,,2,,,40,51
410635,note_off,235,0,3,,,,,,,,,2,,,40,0
412320,note_on,0,0,2,,,,,,,,,1,,,57,95
412320,note_on,4555,0,2,,,,,,,,,1,,,69,95
412320,note_on,16320,0,5,,,,,,,,,4,,,33,95
412320,note_on,2635,0,4,,,,,,,,,3,,,45,95
412320,note_on,3605,0,1,,,,,,,,,0,,,81,95
412680,note_off,360,0,1,,,,,,,,,0,,,81,0
412680,note_off,360,0,4,,,,,,,,,3,,,45,0
412680,note_off,360,0,2,,,,,,,,,1,,,57,0
412680,note_off,0,0,2,,,,,,,,,1,,,69,0
412680,note_off,360,0,5,,,,,,,,,4,,,33,0
412800,set_tempo,2920,1,0,,,,,,1276595,,,,,,,
413520,set_tempo,720,1,0,,,,,,434782,,,,,,,
413640,note_on,960,0,4,,,,,,,,,3,,,45,74
413640,note_on,960,0,5,,,,,,,,,4,,,33,74
413640,note_on,960,0,2,,,,,,,,,1,,,57,74
413640,note_on,960,0,1,,,,,,,,,0,,,69,74
413718,note_off,78,0,4,,,,,,,,,3,,,45,0
413718,note_off,78,0,1,,,,,,,,,0,,,69,0
413718,note_off,78,0,2,,,,,,,,,1,,,57,0
413718,note_off,78,0,5,,,,,,,,,4,,,33,0
413720,set_tempo,200,1,0,,,,,,441176,,,,,,,
413760,note_on,42,0,1,,,,,,,,,0,,,69,81
413760,note_on,42,0,4,,,,,,,,,3,,,45,81
413760,note_on,42,0,2,,,,,,,,,1,,,57,81
413760,note_on,42,0,5,,,,,,,,,4,,,33,81
413760,set_tempo,40,1,0,,,,,,434782,,,,,,,
414120,note_off,360,0,1,,,,,,,,,0,,,69,0
414120,note_off,360,0,4,,,,,,,,,3,,,45,0
414120,note_off,360,0,5,,,,,,,,,4,,,33,0
414120,note_off,360,0,2,,,,,,,,,1,,,57,0
414240,note_on,120,0,5,,,,,,,,,4,,,38,76
414240,note_on,120,0,4,,,,,,,,,3,,,50,76
414240,note_on,120,0,1,,,,,,,,,0,,,74,76
414240,note_on,120,0,2,,,,,,,,,1,,,62,76
414396,note_off,156,0,4,,,,,,,,,3,,,50,0
414396,note_off,156,0,2,,,,,,,,,1,,,62,0
414396,note_off,156,0,5,,,,,,,,,4,,,38,0
414396,note_off,156,0,1,,,,,,,,,0,,,74,0
414600,note_on,204,0,5,,,,,,,,,4,,,33,77
414600,note_on,204,0,1,,,,,,,,,0,,,69,77
414600,note_on,204,0,2,,,,,,,,,1,,,57,77
414600,note_on,204,0,4,,,,,,,,,3,,,45,77
414678,note_off,78,0,2,,,,,,,,,1,,,57,0
414678,note_off,78,0,4,,,,,,,,,3,,,45,0
414678,note_off,78,0,1,,,,,,,,,0,,,69,0
414678,note_off,78,0,5,,,,,,,,,4,,,33,0
414680,set_tempo,920,1,0,,,,,,441176,,,,,,,
414720,note_on,42,0,4,,,,,,,,,3,,,45,81
414720,note_on,42,0,1,,,,,,,,,0,,,69,81
414720,set_tempo,40,1,0,,,,,,434782,,,,,,,
414720,note_on,42,0,2,,,,,,,,,1,,,57,81
414720,note_on,42,0,5,,,,,,,,,4,,,33,81
415080,note_off,360,0,1,,,,,,,,,0,,,69,0
415080,note_off,360,0,4,,,,,,,,,3,,,45,0
415080,note_off,360,0,2,,,,,,,,,1,,,57,0
415080,note_off,360,0,5,,,,,,,,,4,,,33,0
415200,note_on,120,0,2,,,,,,,,,1,,,62,79
415200,note_on,120,0,1,,,,,,,,,0,,,74,79
415200,note_on,120,0,4,,,,,,,,,3,,,50,79
415200,note_on,120,0,5,,,,,,,,,4,,,38,79
415356,note_off,156,0,5,,,,,,,,,4,,,38,0
415356,note_off,156,0,1,,,,,,,,,0,,,74,0
415356,note_off,156,0,4,,,,,,,,,3,,,50,0
415356,note_off,156,0,2,,,,,,,,,1,,,62,0
415560,note_on,204,0,4,,,,,,,,,3,,,45,80
415560,note_on,204,0,5,,,,,,,,,4,,,33,80
415560,note_on,204,0,1,,,,,,,,,0,,,69,80
415560,note_on,204,0,2,,,,,,,,,1,,,57,80
415638,note_off,78,0,2,,,,,,,,,1,,,57,0
415638,note_off,78,0,4,,,,,,,,,3,,,45,0
415638,note_off,78,0,1,,,,,,,,,0,,,69,0
415638,note_off,78,0,5,,,,,,,,,4,,,33,0
415640,set_tempo,920,1,0,,,,,,441176,,,,,,,
415680,note_on,42,0,5,,,,,,,,,4,,,33,85
415680,note_on,42,0,1,,,,,,,,,0,,,69,85
415680,note_on,42,0,2,,,,,,,,,1,,,57,85
415680,set_tempo,40,1,0,,,,,,434782,,,,,,,
415680,note_on,42,0,4,,,,,,,,,3,,,45,85
416040,note_off,360,0,5,,,,,,,,,4,,,33,0
416040,note_off,360,0,2,,,,,,,,,1,,,57,0
416040,note_off,360,0,1,,,,,,,,,0,,,69,0
416040,note_off,360,0,4,,,,,,,,,3,,,45,0
416160,note_on,120,0,5,,,,,,,,,4,,,38,82
416160,note_on,120,0,1,,,,,,,,,0,,,74,82
416160,note_on,120,0,4,,,,,,,,,3,,,50,82
416160,note_on,120,0,2,,,,,,,,,1,,,62,82
416316,note_off,156,0,5,,,,,,,,,4,,,38,0
416316,note_off,156,0,2,,,,,,,,,1,,,62,0
416316,note_off,156,0,4,,,,,,,,,3,,,50,0
416316,note_off,156,0,1,,,,,,,,,0,,,74,0
416520,note_on,204,0,2,,,,,,,,,1,,,66,83
416520,note_on,204,0,1,,,,,,,,,0,,,78,83
416520,note_on,204,0,5,,,,,,,,,4,,,42,83
416520,note_on,204,0,4,,,,,,,,,3,,,54,83
416580,set_tempo,900,1,0,,,,,,441176,,,,,,,
416598,note_off,78,0,4,,,,,,,,,3,,,54,0
416598,note_off,78,0,5,,,,,,,,,4,,,42,0
416598,note_off,78,0,1,,,,,,,,,0,,,78,0
416598,note_off,78,0,2,,,,,,,,,1,,,66,0
416640,note_on,42,0,1,,,,,,,,,0,,,81,87
416640,note_on,42,0,4,,,,,,,,,3,,,57,87
416640,note_on,42,0,5,,,,,,,,,4,,,45,87
416640,note_on,42,0,2,,,,,,,,,1,,,69,87
417120,set_tempo,540,1,0,,,,,,472440,,,,,,,
417600,note_off,960,0,4,,,,,,,,,3,,,57,0
417600,note_on,0,0,4,,,,,,,,,3,,,40,53
417600,note_on,0,0,4,,,,,,,,,3,,,43,53
417600,note_off,960,0,1,,,,,,,,,0,,,81,0
417600,note_off,960,0,2,,,,,,,,,1,,,69,0
417600,set_tempo,480,1,0,,,,,,447761,,,,,,,
417600,note_off,960,0,5,,,,,,,,,4,,,45,0
417600,note_on,0,0,5,,,,,,,,,4,,,33,53
417600,note_on,0,0,1,,,,,,,,,0,,,55,53
417640,note_on,0,0,1,,,,,,,,,0,,,57,53
417640,note_off,40,0,1,,,,,,,,,0,,,55,0
417660,set_tempo,60,1,0,,,,,,441176,,,,,,,
417680,note_off,40,0,1,,,,,,,,,0,,,57,0
417680,note_on,0,0,1,,,,,,,,,0,,,55,53
417720,note_off,40,0,1,,,,,,,,,0,,,55,0
417720,note_on,0,0,1,,,,,,,,,0,,,57,53
417760,note_on,0,0,1,,,,,,,,,0,,,55,53
417760,note_off,40,0,1,,,,,,,,,0,,,57,0
417800,note_on,0,0,1,,,,,,,,,0,,,57,53
417800,note_off,40,0,1,,,,,,,,,0,,,55,0
417840,note_off,40,0,1,,,,,,,,,0,,,57,0
417840,note_on,0,0,1,,,,,,,,,0,,,55,52
417880,note_on,0,0,1,,,,,,,,,0,,,57,52
417880,note_off,40,0,1,,,,,,,,,0,,,55,0
417920,note_on,0,0,1,,,,,,,,,0,,,55,52
417920,note_off,40,0,1,,,,,,,,,0,,,57,0
417960,note_on,0,0,1,,,,,,,,,0,,,54,52
417960,note_off,40,0,1,,,,,,,,,0,,,55,0
418020,note_on,0,0,1,,,,,,,,,0,,,55,52
418020,note_off,60,0,1,,,,,,,,,0,,,54,0
418040,set_tempo,380,1,0,,,,,,447761,,,,,,,
418080,note_on,0,0,1,,,,,,,,,0,,,52,51
418080,note_on,0,0,4,,,,,,,,,3,,,43,51
418080,set_tempo,40,1,0,,,,,,441176,,,,,,,
418080,note_on,0,0,4,,,,,,,,,3,,,40,51
418080,note_off,0,0,4,,,,,,,,,3,,,40,0
418080,note_on,0,0,5,,,,,,,,,4,,,33,51
418080,note_off,480,0,5,,,,,,,,,4,,,33,0
418080,note_off,480,0,4,,,,,,,,,3,,,43,0
418080,note_off,60,0,1,,,,,,,,,0,,,55,0
418236,note_off,156,0,1,,,,,,,,,0,,,52,0
418320,note_on,84,0,1,,,,,,,,,0,,,49,51
418476,note_off,156,0,1,,,,,,,,,0,,,49,0
418560,note_off,480,0,5,,,,,,,,,4,,,33,0
418560,note_on,0,0,5,,,,,,,,,4,,,38,50
418560,note_on,84,0,1,,,,,,,,,0,,,50,50
418560,note_off,0,0,4,,,,,,,,,3,,,40,0
418560,note_on,0,0,4,,,,,,,,,3,,,42,50
418560,note_off,480,0,4,,,,,,,,,3,,,43,0
418800,note_off,240,0,1,,,,,,,,,0,,,50,0
418800,note_on,0,0,1,,,,,,,,,0,,,54,48
418956,note_off,156,0,1,,,,,,,,,0,,,54,0
418980,set_tempo,900,1,0,,,,,,447761,,,,,,,
419040,note_on,84,0,1,,,,,,,,,0,,,45,46
419400,set_tempo,420,1,0,,,,,,447761,,,,,,,
419520,note_off,960,0,5,,,,,,,,,4,,,38,0
419520,note_on,0,0,5,,,,,,,,,4,,,64,51
419520,note_on,0,0,1,,,,,,,,,0,,,86,51
419520,set_tempo,120,1,0,,,,,,447761,,,,,,,
419520,note_off,960,0,4,,,,,,,,,3,,,42,0
419520,note_on,0,0,4,,,,,,,,,3,,,71,51
419520,note_on,0,0,4,,,,,,,,,3,,,74,51
419520,note_off,480,0,1,,,,,,,,,0,,,45,0
419560,note_on,0,0,1,,,,,,,,,0,,,88,51
419560,note_off,40,0,1,,,,,,,,,0,,,86,0
419580,set_tempo,60,1,0,,,,,,441176,,,,,,,
419600,note_off,40,0,1,,,,,,,,,0,,,88,0
419600,note_on,0,0,1,,,,,,,,,0,,,86,51
419640,note_off,40,0,1,,,,,,,,,0,,,86,0
419640,note_on,0,0,1,,,,,,,,,0,,,88,51
419680,note_off,40,0,1,,,,,,,,,0,,,88,0
419680,note_on,0,0,1,,,,,,,,,0,,,86,50
419720,note_off,40,0,1,,,,,,,,,0,,,86,0
419720,note_on,0,0,1,,,,,,,,,0,,,88,50
419760,note_off,40,0,1,,,,,,,,,0,,,88,0
419760,note_on,0,0,1,,,,,,,,,0,,,86,50
419800,note_off,40,0,1,,,,,,,,,0,,,86,0
419800,note_on,0,0,1,,,,,,,,,0,,,88,50
419840,note_off,40,0,1,,,,,,,,,0,,,88,0
419840,note_on,0,0,1,,,,,,,,,0,,,86,50
419880,note_off,40,0,1,,,,,,,,,0,,,86,0
419880,note_on,0,0,1,,,,,,,,,0,,,85,50
419940,note_off,60,0,1,,,,,,,,,0,,,85,0
419940,note_on,0,0,1,,,,,,,,,0,,,86,50
419960,set_tempo,380,1,0,,,,,,447761,,,,,,,
420000,note_off,0,0,4,,,,,,,,,3,,,71,0
420000,note_on,0,0,5,,,,,,,,,4,,,64,50
420000,note_off,480,0,5,,,,,,,,,4,,,64,0
420000,note_on,0,0,1,,,,,,,,,0,,,83,50
420000,note_off,60,0,1,,,,,,,,,0,,,86,0
420000,note_off,480,0,4,,,,,,,,,3,,,74,0
420000,note_on,0,0,4,,,,,,,,,3,,,71,50
420000,note_on,0,0,4,,,,,,,,,3,,,74,50
420156,note_off,156,0,1,,,,,,,,,0,,,83,0
420240,note_on,84,0,1,,,,,,,,,0,,,80,48
420396,note_off,156,0,1,,,,,,,,,0,,,80,0
420420,set_tempo,460,1,0,,,,,,454545,,,,,,,
420480,note_off,480,0,5,,,,,,,,,4,,,64,0
420480,note_off,0,0,4,,,,,,,,,3,,,71,0
420480,note_on,0,0,4,,,,,,,,,3,,,73,46
420480,note_on,0,0,5,,,,,,,,,4,,,69,46
420480,note_on,84,0,1,,,,,,,,,0,,,81,46
420480,note_off,480,0,4,,,,,,,,,3,,,74,0
421200,set_tempo,780,1,0,,,,,,472440,,,,,,,
421440,note_on,0,0,5,,,,,,,,,4,,,33,47
421440,note_off,960,0,5,,,,,,,,,4,,,69,0
421440,set_tempo,240,1,0,,,,,,447761,,,,,,,
421440,note_off,960,0,4,,,,,,,,,3,,,73,0
421440,note_on,0,0,4,,,,,,,,,3,,,43,47
421440,note_on,0,0,4,,,,,,,,,3,,,40,47
421440,note_off,960,0,1,,,,,,,,,0,,,81,0
421440,note_on,0,0,1,,,,,,,,,0,,,55,47
421480,note_off,40,0,1,,,,,,,,,0,,,55,0
421480,note_on,0,0,1,,,,,,,,,0,,,57,47
421500,set_tempo,60,1,0,,,,,,441176,,,,,,,
421520,note_on,0,0,1,,,,,,,,,0,,,55,47
421520,note_off,40,0,1,,,,,,,,,0,,,57,0
421560,note_on,0,0,1,,,,,,,,,0,,,57,47
421560,note_off,40,0,1,,,,,,,,,0,,,55,0
421600,note_on,0,0,1,,,,,,,,,0,,,55,47
421600,note_off,40,0,1,,,,,,,,,0,,,57,0
421640,note_off,40,0,1,,,,,,,,,0,,,55,0
421640,note_on,0,0,1,,,,,,,,,0,,,57,46
421680,note_on,0,0,1,,,,,,,,,0,,,55,46
421680,note_off,40,0,1,,,,,,,,,0,,,57,0
421720,note_on,0,0,1,,,,,,,,,0,,,57,46
421720,note_off,40,0,1,,,,,,,,,0,,,55,0
421760,note_on,0,0,1,,,,,,,,,0,,,55,46
421760,note_off,40,0,1,,,,,,,,,0,,,57,0
421800,note_off,40,0,1,,,,,,,,,0,,,55,0
421800,note_on,0,0,1,,,,,,,,,0,,,54,46
421860,note_on,0,0,1,,,,,,,,,0,,,55,46
421860,note_off,60,0,1,,,,,,,,,0,,,54,0
421880,set_tempo,380,1,0,,,,,,447761,,,,,,,
421920,note_off,480,0,5,,,,,,,,,4,,,33,0
421920,note_off,60,0,1,,,,,,,,,0,,,55,0
421920,note_on,0,0,1,,,,,,,,,0,,,52,45
421920,note_on,0,0,5,,,,,,,,,4,,,33,45
421920,note_on,0,0,4,,,,,,,,,3,,,43,45
421920,note_on,0,0,4,,,,,,,,,3,,,40,45
421920,set_tempo,40,1,0,,,,,,441176,,,,,,,
421920,note_off,480,0,4,,,,,,,,,3,,,40,0
421920,note_off,0,0,4,,,,,,,,,3,,,43,0
422076,note_off,156,0,1,,,,,,,,,0,,,52,0
422160,note_on,84,0,1,,,,,,,,,0,,,49,45
422316,note_off,156,0,1,,,,,,,,,0,,,49,0
422400,note_on,0,0,5,,,,,,,,,4,,,38,44
422400,note_off,480,0,5,,,,,,,,,4,,,33,0
422400,note_off,480,0,4,,,,,,,,,3,,,40,0
422400,note_off,0,0,4,,,,,,,,,3,,,43,0
422400,note_on,84,0,1,,,,,,,,,0,,,50,44
422400,note_on,0,0,4,,,,,,,,,3,,,42,44
422640,note_on,0,0,1,,,,,,,,,0,,,54,42
422640,note_off,240,0,1,,,,,,,,,0,,,50,0
422796,note_off,156,0,1,,,,,,,,,0,,,54,0
422820,set_tempo,900,1,0,,,,,,447761,,,,,,,
422880,note_on,84,0,1,,,,,,,,,0,,,45,40
423360,note_off,960,0,5,,,,,,,,,4,,,38,0
423360,set_tempo,540,1,0,,,,,,447761,,,,,,,
423360,note_off,480,0,1,,,,,,,,,0,,,45,0
423360,note_on,0,0,1,,,,,,,,,0,,,79,45
423360,note_on,0,0,4,,,,,,,,,3,,,67,45
423360,note_off,960,0,4,,,,,,,,,3,,,42,0
423360,note_on,0,0,4,,,,,,,,,3,,,64,45
423360,note_on,0,0,5,,,,,,,,,4,,,57,45
423400,note_on,0,0,1,,,,,,,,,0,,,81,45
423400,note_off,40,0,1,,,,,,,,,0,,,79,0
423420,set_tempo,60,1,0,,,,,,441176,,,,,,,
423440,note_off,40,0,1,,,,,,,,,0,,,81,0
423440,note_on,0,0,1,,,,,,,,,0,,,79,45
423480,note_on,0,0,1,,,,,,,,,0,,,81,45
423480,note_off,40,0,1,,,,,,,,,0,,,79,0
423520,note_on,0,0,1,,,,,,,,,0,,,79,45
423520,note_off,40,0,1,,,,,,,,,0,,,81,0
423560,note_on,0,0,1,,,,,,,,,0,,,81,45
423560,note_off,40,0,1,,,,,,,,,0,,,79,0
423600,note_on,0,0,1,,,,,,,,,0,,,79,45
423600,note_off,40,0,1,,,,,,,,,0,,,81,0
423640,note_off,40,0,1,,,,,,,,,0,,,79,0
423640,note_on,0,0,1,,,,,,,,,0,,,81,45
423680,note_off,40,0,1,,,,,,,,,0,,,81,0
423680,note_on,0,0,1,,,,,,,,,0,,,79,45
423720,note_off,40,0,1,,,,,,,,,0,,,79,0
423720,note_on,0,0,1,,,,,,,,,0,,,78,45
423780,note_off,60,0,1,,,,,,,,,0,,,78,0
423780,set_tempo,360,1,0,,,,,,447761,,,,,,,
423780,note_on,0,0,1,,,,,,,,,0,,,79,44
423840,note_on,0,0,4,,,,,,,,,3,,,64,44
423840,note_on,0,0,4,,,,,,,,,3,,,67,44
423840,note_off,0,0,4,,,,,,,,,3,,,64,0
423840,note_on,0,0,5,,,,,,,,,4,,,57,44
423840,note_on,0,0,1,,,,,,,,,0,,,76,44
423840,note_off,60,0,1,,,,,,,,,0,,,79,0
423840,note_off,480,0,5,,,,,,,,,4,,,57,0
423840,note_off,480,0,4,,,,,,,,,3,,,67,0
424080,note_on,0,0,1,,,,,,,,,0,,,73,44
424080,note_off,240,0,1,,,,,,,,,0,,,76,0
424210,set_tempo,430,1,0,,,,,,454545,,,,,,,
424320,note_on,0,0,5,,,,,,,,,4,,,62,43
424320,note_off,480,0,5,,,,,,,,,4,,,57,0
424320,note_on,0,0,4,,,,,,,,,3,,,66,43
424320,note_off,240,0,1,,,,,,,,,0,,,73,0
424320,note_on,0,0,1,,,,,,,,,0,,,74,43
424320,note_off,480,0,4,,,,,,,,,3,,,64,0
424320,note_off,0,0,4,,,,,,,,,3,,,67,0
424480,note_on,0,0,1,,,,,,,,,0,,,69,43
424480,note_off,160,0,1,,,,,,,,,0,,,74,0
424584,note_off,104,0,1,,,,,,,,,0,,,69,0
424640,note_on,56,0,1,,,,,,,,,0,,,78,42
424744,note_off,104,0,1,,,,,,,,,0,,,78,0
424800,note_off,480,0,4,,,,,,,,,3,,,66,0
424800,note_off,480,0,5,,,,,,,,,4,,,62,0
424800,note_on,56,0,1,,,,,,,,,0,,,78,47
424960,note_off,160,0,1,,,,,,,,,0,,,78,0
424960,note_on,0,0,1,,,,,,,,,0,,,74,53
425040,set_tempo,830,1,0,,,,,,461538,,,,,,,
425064,note_off,104,0,1,,,,,,,,,0,,,74,0
425120,note_on,56,0,1,,,,,,,,,0,,,81,59
425120,note_on,7520,0,2,,,,,,,,,1,,,69,59
425160,note_on,360,0,5,,,,,,,,,4,,,33,60
425160,note_on,360,0,4,,,,,,,,,3,,,45,60
425167,set_tempo,127,1,0,,,,,,472440,,,,,,,
425224,note_off,104,0,1,,,,,,,,,0,,,81,0
425224,note_off,104,0,2,,,,,,,,,1,,,69,0
425238,note_off,78,0,5,,,,,,,,,4,,,33,0
425238,note_off,78,0,4,,,,,,,,,3,,,45,0
425280,set_tempo,113,1,0,,,,,,441176,,,,,,,
425280,note_on,42,0,5,,,,,,,,,4,,,33,64
425280,note_on,42,0,4,,,,,,,,,3,,,45,64
425280,note_on,56,0,1,,,,,,,,,0,,,81,64
425280,note_on,56,0,2,,,,,,,,,1,,,69,64
425440,note_off,160,0,2,,,,,,,,,1,,,69,0
425440,note_on,0,0,2,,,,,,,,,1,,,74,64
425440,note_off,160,0,1,,,,,,,,,0,,,81,0
425440,note_on,0,0,1,,,,,,,,,0,,,78,64
425544,note_off,104,0,2,,,,,,,,,1,,,74,0
425544,note_off,104,0,1,,,,,,,,,0,,,78,0
425600,note_on,56,0,2,,,,,,,,,1,,,69,64
425600,note_on,56,0,1,,,,,,,,,0,,,81,64
425640,note_off,360,0,5,,,,,,,,,4,,,33,0
425640,note_off,360,0,4,,,,,,,,,3,,,45,0
425704,note_off,104,0,1,,,,,,,,,0,,,81,0
425704,note_off,104,0,2,,,,,,,,,1,,,69,0
425760,note_on,56,0,1,,,,,,,,,0,,,81,65
425760,note_on,120,0,4,,,,,,,,,3,,,50,65
425760,note_on,120,0,5,,,,,,,,,4,,,38,65
425760,note_on,56,0,2,,,,,,,,,1,,,69,65
425920,note_on,0,0,1,,,,,,,,,0,,,78,65
425920,note_on,0,0,2,,,,,,,,,1,,,74,65
425920,note_off,160,0,2,,,,,,,,,1,,,69,0
425920,note_off,160,0,1,,,,,,,,,0,,,81,0
425994,note_off,234,0,5,,,,,,,,,4,,,38,0
425994,note_off,234,0,4,,,,,,,,,3,,,50,0
426024,note_off,104,0,2,,,,,,,,,1,,,74,0
426024,note_off,104,0,1,,,,,,,,,0,,,78,0
426080,note_on,56,0,1,,,,,,,,,0,,,81,65
426080,note_on,56,0,2,,,,,,,,,1,,,69,65
426120,note_on,126,0,5,,,,,,,,,4,,,33,65
426120,note_on,126,0,4,,,,,,,,,3,,,45,65
426184,note_off,104,0,2,,,,,,,,,1,,,69,0
426184,note_off,104,0,1,,,,,,,,,0,,,81,0
426198,note_off,78,0,5,,,,,,,,,4,,,33,0
426198,note_off,78,0,4,,,,,,,,,3,,,45,0
426200,set_tempo,920,1,0,,,,,,447761,,,,,,,
426240,note_on,56,0,2,,,,,,,,,1,,,69,65
426240,set_tempo,40,1,0,,,,,,441176,,,,,,,
426240,note_on,42,0,4,,,,,,,,,3,,,45,65
426240,note_on,42,0,5,,,,,,,,,4,,,33,65
426240,note_on,56,0,1,,,,,,,,,0,,,81,65
426400,note_off,160,0,1,,,,,,,,,0,,,81,0
426400,note_on,0,0,1,,,,,,,,,0,,,79,66
426400,note_off,160,0,2,,,,,,,,,1,,,69,0
426400,note_on,0,0,2,,,,,,,,,1,,,73,66
426504,note_off,104,0,2,,,,,,,,,1,,,73,0
426504,note_off,104,0,1,,,,,,,,,0,,,79,0
426560,note_on,56,0,2,,,,,,,,,1,,,69,66
426560,note_on,56,0,1,,,,,,,,,0,,,81,66
426600,note_off,360,0,5,,,,,,,,,4,,,33,0
426600,note_off,360,0,4,,,,,,,,,3,,,45,0
426664,note_off,104,0,1,,,,,,,,,0,,,81,0
426664,note_off,104,0,2,,,,,,,,,1,,,69,0
426720,note_on,56,0,2,,,,,,,,,1,,,69,66
426720,note_on,56,0,1,,,,,,,,,0,,,81,66
426720,note_on,120,0,5,,,,,,,,,4,,,40,66
426720,note_on,120,0,4,,,,,,,,,3,,,52,66
426880,note_off,160,0,1,,,,,,,,,0,,,81,0
426880,note_on,0,0,1,,,,,,,,,0,,,79,66
426880,note_on,0,0,2,,,,,,,,,1,,,73,66
426880,note_off,160,0,2,,,,,,,,,1,,,69,0
426954,note_off,234,0,5,,,,,,,,,4,,,40,0
426954,note_off,234,0,4,,,,,,,,,3,,,52,0
426984,note_off,104,0,2,,,,,,,,,1,,,73,0
426984,note_off,104,0,1,,,,,,,,,0,,,79,0
427040,note_on,56,0,2,,,,,,,,,1,,,69,67
427040,note_on,56,0,1,,,,,,,,,0,,,81,67
427080,note_on,126,0,4,,,,,,,,,3,,,45,67
427080,note_on,126,0,5,,,,,,,,,4,,,33,67
427144,note_off,104,0,1,,,,,,,,,0,,,81,0
427144,note_off,104,0,2,,,,,,,,,1,,,69,0
427158,note_off,78,0,5,,,,,,,,,4,,,33,0
427158,note_off,78,0,4,,,,,,,,,3,,,45,0
427160,set_tempo,920,1,0,,,,,,447761,,,,,,,
427200,note_on,42,0,4,,,,,,,,,3,,,45,67
427200,set_tempo,40,1,0,,,,,,441176,,,,,,,
427200,note_on,42,0,5,,,,,,,,,4,,,33,67
427200,note_on,56,0,2,,,,,,,,,1,,,69,67
427200,note_on,56,0,1,,,,,,,,,0,,,81,67
427360,note_on,0,0,1,,,,,,,,,0,,,76,67
427360,note_off,160,0,1,,,,,,,,,0,,,81,0
427360,note_off,160,0,2,,,,,,,,,1,,,69,0
427360,note_on,0,0,2,,,,,,,,,1,,,73,67
427464,note_off,104,0,1,,,,,,,,,0,,,76,0
427464,note_off,104,0,2,,,,,,,,,1,,,73,0
427520,note_on,56,0,1,,,,,,,,,0,,,81,68
427520,note_on,56,0,2,,,,,,,,,1,,,69,68
427560,note_off,360,0,4,,,,,,,,,3,,,45,0
427560,note_off,360,0,5,,,,,,,,,4,,,33,0
427624,note_off,104,0,1,,,,,,,,,0,,,81,0
427624,note_off,104,0,2,,,,,,,,,1,,,69,0
427680,note_on,56,0,1,,,,,,,,,0,,,81,68
427680,note_on,120,0,5,,,,,,,,,4,,,43,68
427680,note_on,120,0,4,,,,,,,,,3,,,55,68
427680,note_on,56,0,2,,,,,,,,,1,,,69,68
427840,note_on,0,0,1,,,,,,,,,0,,,76,68
427840,note_off,160,0,1,,,,,,,,,0,,,81,0
427840,note_on,0,0,2,,,,,,,,,1,,,73,68
427840,note_off,160,0,2,,,,,,,,,1,,,69,0
427914,note_off,234,0,4,,,,,,,,,3,,,55,0
427914,note_off,234,0,5,,,,,,,,,4,,,43,0
427944,note_off,104,0,2,,,,,,,,,1,,,73,0
427944,note_off,104,0,1,,,,,,,,,0,,,76,0
428000,note_on,56,0,2,,,,,,,,,1,,,69,68
428000,note_on,56,0,1,,,,,,,,,0,,,81,68
428040,note_on,126,0,4,,,,,,,,,3,,,45,68
428040,note_on,126,0,5,,,,,,,,,4,,,33,68
428104,note_off,104,0,2,,,,,,,,,1,,,69,0
428104,note_off,104,0,1,,,,,,,,,0,,,81,0
428118,note_off,78,0,5,,,,,,,,,4,,,33,0
428118,note_off,78,0,4,,,,,,,,,3,,,45,0
428120,set_tempo,920,1,0,,,,,,447761,,,,,,,
428160,note_on,56,0,1,,,,,,,,,0,,,81,69
428160,set_tempo,40,1,0,,,,,,441176,,,,,,,
428160,note_on,42,0,5,,,,,,,,,4,,,33,69
428160,note_on,56,0,2,,,,,,,,,1,,,69,69
428160,note_on,42,0,4,,,,,,,,,3,,,45,69
428320,note_on,0,0,1,,,,,,,,,0,,,78,69
428320,note_on,0,0,2,,,,,,,,,1,,,74,69
428320,note_off,160,0,2,,,,,,,,,1,,,69,0
428320,note_off,160,0,1,,,,,,,,,0,,,81,0
428424,note_off,104,0,1,,,,,,,,,0,,,78,0
428424,note_off,104,0,2,,,,,,,,,1,,,74,0
428480,note_on,56,0,1,,,,,,,,,0,,,81,69
428480,note_on,56,0,2,,,,,,,,,1,,,69,69
428520,note_off,360,0,5,,,,,,,,,4,,,33,0
428520,note_off,360,0,4,,,,,,,,,3,,,45,0
428584,note_off,104,0,2,,,,,,,,,1,,,69,0
428584,note_off,104,0,1,,,,,,,,,0,,,81,0
428640,note_on,120,0,5,,,,,,,,,4,,,42,69
428640,note_on,56,0,2,,,,,,,,,1,,,69,69
428640,note_on,56,0,1,,,,,,,,,0,,,81,69
428640,note_on,120,0,4,,,,,,,,,3,,,54,69
428800,note_on,0,0,2,,,,,,,,,1,,,74,70
428800,note_off,160,0,2,,,,,,,,,1,,,69,0
428800,note_off,160,0,1,,,,,,,,,0,,,81,0
428800,note_on,0,0,1,,,,,,,,,0,,,78,70
428874,note_off,234,0,5,,,,,,,,,4,,,42,0
428874,note_off,234,0,4,,,,,,,,,3,,,54,0
428904,note_off,104,0,2,,,,,,,,,1,,,74,0
428904,note_off,104,0,1,,,,,,,,,0,,,78,0
428960,note_on,56,0,1,,,,,,,,,0,,,81,70
428960,note_on,56,0,2,,,,,,,,,1,,,69,70
429000,set_tempo,840,1,0,,,,,,447761,,,,,,,
429000,note_on,126,0,4,,,,,,,,,3,,,45,70
429000,note_on,126,0,5,,,,,,,,,4,,,33,70
429064,note_off,104,0,1,,,,,,,,,0,,,81,0
429064,note_off,104,0,2,,,,,,,,,1,,,69,0
429078,note_off,78,0,4,,,,,,,,,3,,,45,0
429078,note_off,78,0,5,,,,,,,,,4,,,33,0
429120,note_on,56,0,1,,,,,,,,,0,,,81,70
429120,note_on,42,0,4,,,,,,,,,3,,,45,70
429120,note_on,42,0,5,,,,,,,,,4,,,33,70
429120,note_on,56,0,2,,,,,,,,,1,,,69,70
429120,set_tempo,120,1,0,,,,,,441176,,,,,,,
429280,note_off,160,0,2,,,,,,,,,1,,,69,0
429280,note_on,0,0,2,,,,,,,,,1,,,74,70
429280,note_off,160,0,1,,,,,,,,,0,,,81,0
429280,note_on,0,0,1,,,,,,,,,0,,,78,70
429384,note_off,104,0,1,,,,,,,,,0,,,78,0
429384,note_off,104,0,2,,,,,,,,,1,,,74,0
429440,note_on,56,0,1,,,,,,,,,0,,,81,71
429440,note_on,56,0,2,,,,,,,,,1,,,69,71
429480,note_off,360,0,5,,,,,,,,,4,,,33,0
429480,note_off,360,0,4,,,,,,,,,3,,,45,0
429544,note_off,104,0,2,,,,,,,,,1,,,69,0
429544,note_off,104,0,1,,,,,,,,,0,,,81,0
429600,note_on,120,0,4,,,,,,,,,3,,,50,71
429600,note_on,120,0,5,,,,,,,,,4,,,38,71
429600,note_on,56,0,2,,,,,,,,,1,,,69,71
429600,note_on,56,0,1,,,,,,,,,0,,,81,71
429760,note_off,160,0,2,,,,,,,,,1,,,69,0
429760,note_off,160,0,1,,,,,,,,,0,,,81,0
429760,note_on,0,0,1,,,,,,,,,0,,,78,71
429760,note_on,0,0,2,,,,,,,,,1,,,74,71
429834,note_off,234,0,4,,,,,,,,,3,,,50,0
429834,note_off,234,0,5,,,,,,,,,4,,,38,0
429864,note_off,104,0,2,,,,,,,,,1,,,74,0
429864,note_off,104,0,1,,,,,,,,,0,,,78,0
429920,note_on,56,0,2,,,,,,,,,1,,,69,71
429920,note_on,56,0,1,,,,,,,,,0,,,81,71
429960,note_on,126,0,4,,,,,,,,,3,,,45,71
429960,note_on,126,0,5,,,,,,,,,4,,,33,71
430024,note_off,104,0,1,,,,,,,,,0,,,81,0
430024,note_off,104,0,2,,,,,,,,,1,,,69,0
430038,note_off,78,0,5,,,,,,,,,4,,,33,0
430038,note_off,78,0,4,,,,,,,,,3,,,45,0
430040,set_tempo,920,1,0,,,,,,447761,,,,,,,
430080,note_on,56,0,1,,,,,,,,,0,,,81,72
430080,set_tempo,40,1,0,,,,,,441176,,,,,,,
430080,note_on,42,0,4,,,,,,,,,3,,,45,72
430080,note_on,42,0,5,,,,,,,,,4,,,33,72
430080,note_on,56,0,2,,,,,,,,,1,,,69,72
430240,note_off,160,0,1,,,,,,,,,0,,,81,0
430240,note_on,0,0,1,,,,,,,,,0,,,79,72
430240,note_on,0,0,2,,,,,,,,,1,,,73,72
430240,note_off,160,0,2,,,,,,,,,1,,,69,0
430344,note_off,104,0,2,,,,,,,,,1,,,73,0
430344,note_off,104,0,1,,,,,,,,,0,,,79,0
430400,note_on,56,0,2,,,,,,,,,1,,,69,72
430400,note_on,56,0,1,,,,,,,,,0,,,81,72
430440,note_off,360,0,5,,,,,,,,,4,,,33,0
430440,note_off,360,0,4,,,,,,,,,3,,,45,0
430504,note_off,104,0,1,,,,,,,,,0,,,81,0
430504,note_off,104,0,2,,,,,,,,,1,,,69,0
430560,note_on,120,0,4,,,,,,,,,3,,,52,72
430560,note_on,120,0,5,,,,,,,,,4,,,40,72
430560,note_on,56,0,1,,,,,,,,,0,,,81,72
430560,note_on,56,0,2,,,,,,,,,1,,,69,72
430720,note_on,0,0,1,,,,,,,,,0,,,79,73
430720,note_off,160,0,1,,,,,,,,,0,,,81,0
430720,note_off,160,0,2,,,,,,,,,1,,,69,0
430720,note_on,0,0,2,,,,,,,,,1,,,73,73
430794,note_off,234,0,4,,,,,,,,,3,,,52,0
430794,note_off,234,0,5,,,,,,,,,4,,,40,0
430824,note_off,104,0,2,,,,,,,,,1,,,73,0
430824,note_off,104,0,1,,,,,,,,,0,,,79,0
430880,note_on,56,0,2,,,,,,,,,1,,,69,73
430880,note_on,56,0,1,,,,,,,,,0,,,81,73
430920,note_on,126,0,4,,,,,,,,,3,,,45,73
430920,note_on,126,0,5,,,,,,,,,4,,,33,73
430984,note_off,104,0,2,,,,,,,,,1,,,69,0
430984,note_off,104,0,1,,,,,,,,,0,,,81,0
430998,note_off,78,0,5,,,,,,,,,4,,,33,0
430998,note_off,78,0,4,,,,,,,,,3,,,45,0
431000,set_tempo,920,1,0,,,,,,447761,,,,,,,
431040,note_on,56,0,1,,,,,,,,,0,,,81,73
431040,note_on,42,0,5,,,,,,,,,4,,,33,73
431040,note_on,56,0,2,,,,,,,,,1,,,69,73
431040,set_tempo,40,1,0,,,,,,441176,,,,,,,
431040,note_on,42,0,4,,,,,,,,,3,,,45,73
431200,note_off,160,0,1,,,,,,,,,0,,,81,0
431200,note_on,0,0,1,,,,,,,,,0,,,76,73
431200,note_off,160,0,2,,,,,,,,,1,,,69,0
431200,note_on,0,0,2,,,,,,,,,1,,,73,73
431304,note_off,104,0,2,,,,,,,,,1,,,73,0
431304,note_off,104,0,1,,,,,,,,,0,,,76,0
431360,note_on,56,0,1,,,,,,,,,0,,,81,74
431360,note_on,56,0,2,,,,,,,,,1,,,69,74
431400,note_off,360,0,4,,,,,,,,,3,,,45,0
431400,note_off,360,0,5,,,,,,,,,4,,,33,0
431464,note_off,104,0,1,,,,,,,,,0,,,81,0
431464,note_off,104,0,2,,,,,,,,,1,,,69,0
431520,note_on,56,0,2,,,,,,,,,1,,,69,74
431520,note_on,56,0,1,,,,,,,,,0,,,81,74
431520,note_on,120,0,4,,,,,,,,,3,,,55,74
431520,note_on,120,0,5,,,,,,,,,4,,,43,74
431680,note_on,0,0,2,,,,,,,,,1,,,73,74
431680,note_off,160,0,2,,,,,,,,,1,,,69,0
431680,note_on,0,0,1,,,,,,,,,0,,,76,74
431680,note_off,160,0,1,,,,,,,,,0,,,81,0
431754,note_off,234,0,5,,,,,,,,,4,,,43,0
431754,note_off,234,0,4,,,,,,,,,3,,,55,0
431784,note_off,104,0,2,,,,,,,,,1,,,73,0
431784,note_off,104,0,1,,,,,,,,,0,,,76,0
431840,note_on,56,0,2,,,,,,,,,1,,,69,74
431840,note_on,56,0,1,,,,,,,,,0,,,81,74
431880,note_on,126,0,4,,,,,,,,,3,,,45,75
431880,note_on,126,0,5,,,,,,,,,4,,,33,75
431944,note_off,104,0,1,,,,,,,,,0,,,81,0
431944,note_off,104,0,2,,,,,,,,,1,,,69,0
431958,note_off,78,0,5,,,,,,,,,4,,,33,0
431958,note_off,78,0,4,,,,,,,,,3,,,45,0
431960,set_tempo,920,1,0,,,,,,447761,,,,,,,
432000,note_on,56,0,2,,,,,,,,,1,,,69,75
432000,set_tempo,40,1,0,,,,,,441176,,,,,,,
432000,note_on,56,0,1,,,,,,,,,0,,,81,75
432000,note_on,42,0,5,,,,,,,,,4,,,42,75
432160,note_on,0,0,5,,,,,,,,,4,,,38,75
432160,note_off,160,0,5,,,,,,,,,4,,,42,0
432264,note_off,104,0,5,,,,,,,,,4,,,38,0
432320,note_on,56,0,5,,,,,,,,,4,,,45,75
432360,note_off,360,0,2,,,,,,,,,1,,,69,0
432360,note_off,360,0,1,,,,,,,,,0,,,81,0
432424,note_off,104,0,5,,,,,,,,,4,,,45,0
432480,note_on,56,0,5,,,,,,,,,4,,,45,76
432640,note_on,0,0,5,,,,,,,,,4,,,42,76
432640,note_off,160,0,5,,,,,,,,,4,,,45,0
432720,set_tempo,720,1,0,,,,,,447761,,,,,,,
432744,note_off,104,0,5,,,,,,,,,4,,,42,0
432800,note_on,56,0,5,,,,,,,,,4,,,50,76
432840,note_on,480,0,2,,,,,,,,,1,,,74,76
432840,set_tempo,120,1,0,,,,,,454545,,,,,,,
432840,note_on,480,0,1,,,,,,,,,0,,,86,76
432904,note_off,104,0,5,,,,,,,,,4,,,50,0
432918,note_off,78,0,1,,,,,,,,,0,,,86,0
432918,note_off,78,0,2,,,,,,,,,1,,,74,0
432960,note_on,42,0,2,,,,,,,,,1,,,74,76
432960,note_on,42,0,1,,,,,,,,,0,,,86,76
432960,note_on,1002,0,4,,,,,,,,,3,,,62,76
432960,note_on,56,0,5,,,,,,,,,4,,,38,76
432960,set_tempo,120,1,0,,,,,,441176,,,,,,,
433120,note_on,0,0,4,,,,,,,,,3,,,54,77
433120,note_off,160,0,4,,,,,,,,,3,,,62,0
433120,note_on,0,0,4,,,,,,,,,3,,,60,77
433224,note_off,104,0,4,,,,,,,,,3,,,60,0
433224,note_off,0,0,4,,,,,,,,,3,,,54,0
433280,note_on,56,0,4,,,,,,,,,3,,,62,77
433320,note_off,360,0,5,,,,,,,,,4,,,38,0
433320,note_off,360,0,1,,,,,,,,,0,,,86,0
433320,note_off,360,0,2,,,,,,,,,1,,,74,0
433384,note_off,104,0,4,,,,,,,,,3,,,62,0
433440,note_on,120,0,1,,,,,,,,,0,,,81,77
433440,note_on,120,0,2,,,,,,,,,1,,,69,77
433440,note_on,120,0,5,,,,,,,,,4,,,50,77
433440,note_on,56,0,4,,,,,,,,,3,,,62,77
433600,note_off,160,0,4,,,,,,,,,3,,,62,0
433600,note_on,0,0,4,,,,,,,,,3,,,54,77
433600,note_on,0,0,4,,,,,,,,,3,,,60,77
433674,note_off,234,0,2,,,,,,,,,1,,,69,0
433674,note_off,234,0,1,,,,,,,,,0,,,81,0
433704,note_off,104,0,4,,,,,,,,,3,,,60,0
433704,note_off,0,0,4,,,,,,,,,3,,,54,0
433760,note_on,56,0,4,,,,,,,,,3,,,62,78
433800,note_off,360,0,5,,,,,,,,,4,,,50,0
433800,note_on,126,0,1,,,,,,,,,0,,,86,78
433800,note_on,126,0,2,,,,,,,,,1,,,74,78
433864,note_off,104,0,4,,,,,,,,,3,,,62,0
433878,note_off,78,0,1,,,,,,,,,0,,,86,0
433878,note_off,78,0,2,,,,,,,,,1,,,74,0
433880,set_tempo,920,1,0,,,,,,447761,,,,,,,
433920,note_on,42,0,2,,,,,,,,,1,,,74,78
433920,note_on,56,0,4,,,,,,,,,3,,,62,78
433920,note_on,42,0,1,,,,,,,,,0,,,86,78
433920,set_tempo,40,1,0,,,,,,441176,,,,,,,
433920,note_on,120,0,5,,,,,,,,,4,,,38,78
434080,note_off,160,0,4,,,,,,,,,3,,,62,0
434080,note_on,0,0,4,,,,,,,,,3,,,59,78
434080,note_on,0,0,4,,,,,,,,,3,,,55,78
434184,note_off,104,0,4,,,,,,,,,3,,,55,0
434184,note_off,0,0,4,,,,,,,,,3,,,59,0
434240,note_on,56,0,4,,,,,,,,,3,,,62,78
434280,note_off,360,0,2,,,,,,,,,1,,,74,0
434280,note_off,360,0,1,,,,,,,,,0,,,86,0
434280,note_off,360,0,5,,,,,,,,,4,,,38,0
434344,note_off,104,0,4,,,,,,,,,3,,,62,0
434400,note_on,56,0,4,,,,,,,,,3,,,62,79
434400,note_on,120,0,2,,,,,,,,,1,,,71,79
434400,note_on,120,0,1,,,,,,,,,0,,,83,79
434400,note_on,120,0,5,,,,,,,,,4,,,50,79
434560,note_off,160,0,4,,,,,,,,,3,,,62,0
434560,note_on,0,0,4,,,,,,,,,3,,,59,79
434560,note_on,0,0,4,,,,,,,,,3,,,55,79
434634,note_off,234,0,2,,,,,,,,,1,,,71,0
434634,note_off,234,0,1,,,,,,,,,0,,,83,0
434664,note_off,104,0,4,,,,,,,,,3,,,55,0
434664,note_off,0,0,4,,,,,,,,,3,,,59,0
434720,note_on,56,0,4,,,,,,,,,3,,,62,79
434760,note_on,126,0,1,,,,,,,,,0,,,88,79
434760,note_off,360,0,5,,,,,,,,,4,,,50,0
434760,note_on,126,0,2,,,,,,,,,1,,,76,79
434824,note_off,104,0,4,,,,,,,,,3,,,62,0
434838,note_off,78,0,1,,,,,,,,,0,,,88,0
434838,note_off,78,0,2,,,,,,,,,1,,,76,0
434840,set_tempo,920,1,0,,,,,,447761,,,,,,,
434880,note_on,42,0,1,,,,,,,,,0,,,86,79
434880,set_tempo,40,1,0,,,,,,441176,,,,,,,
434880,note_on,42,0,2,,,,,,,,,1,,,74,79
434880,note_on,120,0,5,,,,,,,,,4,,,38,79
434880,note_on,56,0,4,,,,,,,,,3,,,64,79
435008,note_off,128,0,2,,,,,,,,,1,,,74,0
435008,note_off,128,0,1,,,,,,,,,0,,,86,0
435040,note_off,160,0,4,,,,,,,,,3,,,64,0
435040,note_on,0,0,4,,,,,,,,,3,,,55,80
435040,note_on,0,0,4,,,,,,,,,3,,,57,80
435040,note_on,32,0,1,,,,,,,,,0,,,85,80
435040,note_on,32,0,2,,,,,,,,,1,,,73,80
435144,note_off,104,0,4,,,,,,,,,3,,,57,0
435144,note_off,0,0,4,,,,,,,,,3,,,55,0
435168,note_off,128,0,2,,,,,,,,,1,,,73,0
435168,note_off,128,0,1,,,,,,,,,0,,,85,0
435200,note_on,32,0,2,,,,,,,,,1,,,71,80
435200,note_on,32,0,1,,,,,,,,,0,,,83,80
435200,note_on,56,0,4,,,,,,,,,3,,,64,80
435240,note_off,360,0,5,,,,,,,,,4,,,38,0
435304,note_off,104,0,4,,,,,,,,,3,,,64,0
435328,note_off,128,0,2,,,,,,,,,1,,,71,0
435328,note_off,128,0,1,,,,,,,,,0,,,83,0
435360,note_on,32,0,2,,,,,,,,,1,,,69,80
435360,note_on,120,0,5,,,,,,,,,4,,,50,80
435360,note_on,56,0,4,,,,,,,,,3,,,64,80
435360,note_on,32,0,1,,,,,,,,,0,,,81,80
435488,note_off,128,0,2,,,,,,,,,1,,,69,0
435488,note_off,128,0,1,,,,,,,,,0,,,81,0
435520,note_on,32,0,1,,,,,,,,,0,,,83,80
435520,note_on,0,0,4,,,,,,,,,3,,,55,80
435520,note_on,0,0,4,,,,,,,,,3,,,57,80
435520,note_off,160,0,4,,,,,,,,,3,,,64,0
435520,note_on,32,0,2,,,,,,,,,1,,,71,80
435624,note_off,0,0,4,,,,,,,,,3,,,57,0
435624,note_off,104,0,4,,,,,,,,,3,,,55,0
435648,note_off,128,0,1,,,,,,,,,0,,,83,0
435648,note_off,128,0,2,,,,,,,,,1,,,71,0
435680,note_on,56,0,4,,,,,,,,,3,,,64,81
435680,note_on,32,0,1,,,,,,,,,0,,,85,81
435680,note_on,32,0,2,,,,,,,,,1,,,73,81
435720,note_off,360,0,5,,,,,,,,,4,,,50,0
435784,note_off,104,0,4,,,,,,,,,3,,,64,0
435800,set_tempo,920,1,0,,,,,,447761,,,,,,,
435808,note_off,128,0,1,,,,,,,,,0,,,85,0
435808,note_off,128,0,2,,,,,,,,,1,,,73,0
435840,note_on,120,0,5,,,,,,,,,4,,,38,81
435840,set_tempo,40,1,0,,,,,,441176,,,,,,,
435840,note_on,32,0,1,,,,,,,,,0,,,86,81
435840,note_on,56,0,4,,,,,,,,,3,,,62,81
435840,note_on,32,0,2,,,,,,,,,1,,,74,81
436000,note_on,0,0,4,,,,,,,,,3,,,54,81
436000,note_on,0,0,4,,,,,,,,,3,,,57,81
436000,note_off,160,0,4,,,,,,,,,3,,,62,0
436104,note_off,104,0,4,,,,,,,,,3,,,54,0
436104,note_off,0,0,4,,,,,,,,,3,,,57,0
436160,note_on,56,0,4,,,,,,,,,3,,,62,81
436200,note_off,360,0,5,,,,,,,,,4,,,38,0
436200,note_off,360,0,2,,,,,,,,,1,,,74,0
436200,note_off,360,0,1,,,,,,,,,0,,,86,0
436264,note_off,104,0,4,,,,,,,,,3,,,62,0
436320,note_on,56,0,4,,,,,,,,,3,,,62,82
436320,note_on,120,0,2,,,,,,,,,1,,,69,82
436320,note_on,120,0,1,,,,,,,,,0,,,81,82
436320,note_on,120,0,5,,,,,,,,,4,,,50,82
436480,note_on,0,0,4,,,,,,,,,3,,,54,82
436480,note_off,160,0,4,,,,,,,,,3,,,62,0
436480,note_on,0,0,4,,,,,,,,,3,,,57,82
436554,note_off,234,0,2,,,,,,,,,1,,,69,0
436554,note_off,234,0,1,,,,,,,,,0,,,81,0
436584,note_off,104,0,4,,,,,,,,,3,,,57,0
436584,note_off,0,0,4,,,,,,,,,3,,,54,0
436640,note_on,56,0,4,,,,,,,,,3,,,62,82
436680,note_on,126,0,2,,,,,,,,,1,,,74,82
436680,set_tempo,840,1,0,,,,,,447761,,,,,,,
436680,note_on,126,0,1,,,,,,,,,0,,,86,82
436680,note_off,360,0,5,,,,,,,,,4,,,50,0
436744,note_off,104,0,4,,,,,,,,,3,,,62,0
436758,note_off,78,0,1,,,,,,,,,0,,,86,0
436758,note_off,78,0,2,,,,,,,,,1,,,74,0
436800,set_tempo,120,1,0,,,,,,441176,,,,,,,
436800,note_on,120,0,5,,,,,,,,,4,,,38,82
436800,note_on,56,0,4,,,,,,,,,3,,,62,82
436800,note_on,42,0,2,,,,,,,,,1,,,74,82
436800,note_on,42,0,1,,,,,,,,,0,,,86,82
436960,note_off,160,0,4,,,,,,,,,3,,,62,0
436960,note_on,0,0,4,,,,,,,,,3,,,54,83
436960,note_on,0,0,4,,,,,,,,,3,,,60,83
437034,note_off,234,0,2,,,,,,,,,1,,,74,0
437034,note_off,234,0,1,,,,,,,,,0,,,86,0
437064,note_off,0,0,4,,,,,,,,,3,,,54,0
437064,note_off,104,0,4,,,,,,,,,3,,,60,0
437120,note_on,56,0,4,,,,,,,,,3,,,62,83
437160,note_off,360,0,5,,,,,,,,,4,,,38,0
437224,note_off,104,0,4,,,,,,,,,3,,,62,0
437280,note_on,120,0,5,,,,,,,,,4,,,50,83
437280,note_on,246,0,2,,,,,,,,,1,,,69,83
437280,note_on,246,0,1,,,,,,,,,0,,,81,83
437280,note_on,56,0,4,,,,,,,,,3,,,62,83
437440,note_on,0,0,4,,,,,,,,,3,,,60,84
437440,note_off,160,0,4,,,,,,,,,3,,,62,0
437440,note_on,0,0,4,,,,,,,,,3,,,54,84
437514,note_off,234,0,1,,,,,,,,,0,,,81,0
437514,note_off,234,0,2,,,,,,,,,1,,,69,0
437544,note_off,104,0,4,,,,,,,,,3,,,60,0
437544,note_off,0,0,4,,,,,,,,,3,,,54,0
437600,note_on,56,0,4,,,,,,,,,3,,,62,84
437640,note_on,126,0,1,,,,,,,,,0,,,86,84
437640,note_off,360,0,5,,,,,,,,,4,,,50,0
437640,note_on,126,0,2,,,,,,,,,1,,,74,84
437704,note_off,104,0,4,,,,,,,,,3,,,62,0
437718,note_off,78,0,1,,,,,,,,,0,,,86,0
437718,note_off,78,0,2,,,,,,,,,1,,,74,0
437720,set_tempo,920,1,0,,,,,,447761,,,,,,,
437760,note_on,42,0,2,,,,,,,,,1,,,74,84
437760,set_tempo,40,1,0,,,,,,441176,,,,,,,
437760,note_on,56,0,4,,,,,,,,,3,,,62,84
437760,note_on,120,0,5,,,,,,,,,4,,,38,84
437760,note_on,42,0,1,,,,,,,,,0,,,86,84
437920,note_off,160,0,4,,,,,,,,,3,,,62,0
437920,note_on,0,0,4,,,,,,,,,3,,,59,84
437920,note_on,0,0,4,,,,,,,,,3,,,55,84
437994,note_off,234,0,2,,,,,,,,,1,,,74,0
437994,note_off,234,0,1,,,,,,,,,0,,,86,0
438024,note_off,0,0,4,,,,,,,,,3,,,59,0
438024,note_off,104,0,4,,,,,,,,,3,,,55,0
438080,note_on,56,0,4,,,,,,,,,3,,,62,85
438120,note_off,360,0,5,,,,,,,,,4,,,38,0
438184,note_off,104,0,4,,,,,,,,,3,,,62,0
438240,note_on,56,0,4,,,,,,,,,3,,,62,85
438240,note_on,120,0,5,,,,,,,,,4,,,50,85
438240,note_on,246,0,1,,,,,,,,,0,,,83,85
438240,note_on,246,0,2,,,,,,,,,1,,,71,85
438400,note_on,0,0,4,,,,,,,,,3,,,59,85
438400,note_off,160,0,4,,,,,,,,,3,,,62,0
438400,note_on,0,0,4,,,,,,,,,3,,,55,85
438474,note_off,234,0,2,,,,,,,,,1,,,71,0
438474,note_off,234,0,1,,,,,,,,,0,,,83,0
438504,note_off,0,0,4,,,,,,,,,3,,,59,0
438504,note_off,104,0,4,,,,,,,,,3,,,55,0
438560,note_on,56,0,4,,,,,,,,,3,,,62,85
438600,note_off,360,0,5,,,,,,,,,4,,,50,0
438600,note_on,126,0,1,,,,,,,,,0,,,88,85
438600,note_on,126,0,2,,,,,,,,,1,,,76,85
438664,note_off,104,0,4,,,,,,,,,3,,,62,0
438678,note_off,78,0,2,,,,,,,,,1,,,76,0
438678,note_off,78,0,1,,,,,,,,,0,,,88,0
438680,set_tempo,920,1,0,,,,,,447761,,,,,,,
438720,note_on,42,0,2,,,,,,,,,1,,,74,86
438720,note_on,120,0,5,,,,,,,,,4,,,38,86
438720,set_tempo,40,1,0,,,,,,441176,,,,,,,
438720,note_on,56,0,4,,,,,,,,,3,,,64,86
438720,note_on,42,0,1,,,,,,,,,0,,,86,86
438848,note_off,128,0,1,,,,,,,,,0,,,86,0
438848,note_off,128,0,2,,,,,,,,,1,,,74,0
438880,note_on,0,0,4,,,,,,,,,3,,,57,86
438880,note_on,0,0,4,,,,,,,,,3,,,55,86
438880,note_on,32,0,2,,,,,,,,,1,,,73,86
438880,note_on,32,0,1,,,,,,,,,0,,,85,86
438880,note_off,160,0,4,,,,,,,,,3,,,64,0
438984,note_off,0,0,4,,,,,,,,,3,,,55,0
438984,note_off,104,0,4,,,,,,,,,3,,,57,0
439008,note_off,128,0,2,,,,,,,,,1,,,73,0
439008,note_off,128,0,1,,,,,,,,,0,,,85,0
439040,note_on,32,0,1,,,,,,,,,0,,,83,86
439040,note_on,32,0,2,,,,,,,,,1,,,71,86
439040,note_on,56,0,4,,,,,,,,,3,,,64,86
439080,note_off,360,0,5,,,,,,,,,4,,,38,0
439144,note_off,104,0,4,,,,,,,,,3,,,64,0
439168,note_off,128,0,1,,,,,,,,,0,,,83,0
439168,note_off,128,0,2,,,,,,,,,1,,,71,0
439200,note_on,32,0,1,,,,,,,,,0,,,81,86
439200,note_on,32,0,2,,,,,,,,,1,,,69,86
439200,note_on,56,0,4,,,,,,,,,3,,,64,86
439200,note_on,120,0,5,,,,,,,,,4,,,50,86
439328,note_off,128,0,2,,,,,,,,,1,,,69,0
439328,note_off,128,0,1,,,,,,,,,0,,,81,0
439360,note_on,32,0,2,,,,,,,,,1,,,71,87
439360,note_on,0,0,4,,,,,,,,,3,,,55,87
439360,note_on,0,0,4,,,,,,,,,3,,,57,87
439360,note_off,160,0,4,,,,,,,,,3,,,64,0
439360,note_on,32,0,1,,,,,,,,,0,,,83,87
439464,note_off,0,0,4,,,,,,,,,3,,,57,0
439464,note_off,104,0,4,,,,,,,,,3,,,55,0
439488,note_off,128,0,2,,,,,,,,,1,,,71,0
439488,note_off,128,0,1,,,,,,,,,0,,,83,0
439520,note_on,32,0,2,,,,,,,,,1,,,73,87
439520,note_on,56,0,4,,,,,,,,,3,,,64,87
439520,note_on,32,0,1,,,,,,,,,0,,,85,87
439560,note_off,360,0,5,,,,,,,,,4,,,50,0
439624,note_off,104,0,4,,,,,,,,,3,,,64,0
439640,set_tempo,920,1,0,,,,,,447761,,,,,,,
439648,note_off,128,0,1,,,,,,,,,0,,,85,0
439648,note_off,128,0,2,,,,,,,,,1,,,73,0
439680,note_on,32,0,1,,,,,,,,,0,,,86,87
439680,set_tempo,40,1,0,,,,,,441176,,,,,,,
439680,note_on,120,0,5,,,,,,,,,4,,,38,87
439680,note_on,56,0,4,,,,,,,,,3,,,54,87
439680,note_on,32,0,2,,,,,,,,,1,,,74,87
439680,note_on,0,0,4,,,,,,,,,3,,,62,87
439680,note_on,0,0,4,,,,,,,,,3,,,57,87
440040,note_off,360,0,5,,,,,,,,,4,,,38,0
440040,note_off,360,0,2,,,,,,,,,1,,,74,0
440040,note_off,0,0,4,,,,,,,,,3,,,57,0
440040,note_off,0,0,4,,,,,,,,,3,,,54,0
440040,note_off,360,0,1,,,,,,,,,0,,,86,0
440040,note_off,360,0,4,,,,,,,,,3,,,62,0
440520,note_on,480,0,4,,,,,,,,,3,,,45,89
440520,note_on,0,0,4,,,,,,,,,3,,,33,89
440598,note_off,0,0,4,,,,,,,,,3,,,45,0
440598,note_off,78,0,4,,,,,,,,,3,,,33,0
440600,set_tempo,920,1,0,,,,,,447761,,,,,,,
440640,note_on,600,0,5,,,,,,,,,4,,,33,92
440640,note_on,42,0,4,,,,,,,,,3,,,45,92
440640,set_tempo,40,1,0,,,,,,441176,,,,,,,
441000,note_off,360,0,5,,,,,,,,,4,,,33,0
441000,note_off,360,0,4,,,,,,,,,3,,,45,0
441600,note_on,0,0,2,,,,,,,,,1,,,66,60
441600,note_on,0,0,2,,,,,,,,,1,,,74,60
441600,note_on,1560,0,2,,,,,,,,,1,,,69,60
441600,note_on,0,0,2,,,,,,,,,1,,,78,60
441600,note_on,0,0,2,,,,,,,,,1,,,62,60
441600,note_on,1560,0,1,,,,,,,,,0,,,81,60
441960,note_off,0,0,2,,,,,,,,,1,,,69,0
441960,note_off,0,0,2,,,,,,,,,1,,,62,0
441960,note_off,0,0,2,,,,,,,,,1,,,66,0
441960,note_off,360,0,2,,,,,,,,,1,,,78,0
441960,note_off,360,0,1,,,,,,,,,0,,,81,0
441960,note_off,0,0,2,,,,,,,,,1,,,74,0
442440,note_on,1440,0,5,,,,,,,,,4,,,33,79
442440,note_on,1440,0,4,,,,,,,,,3,,,45,79
442518,note_off,78,0,5,,,,,,,,,4,,,33,0
442518,note_off,78,0,4,,,,,,,,,3,,,45,0
442520,set_tempo,1880,1,0,,,,,,447761,,,,,,,
442560,note_on,42,0,5,,,,,,,,,4,,,33,82
442560,note_on,42,0,4,,,,,,,,,3,,,45,82
442920,note_off,360,0,4,,,,,,,,,3,,,45,0
442920,note_off,360,0,5,,,,,,,,,4,,,33,0
443520,note_on,0,0,2,,,,,,,,,1,,,62,47
443520,note_on,0,0,2,,,,,,,,,1,,,66,47
443520,note_on,1560,0,2,,,,,,,,,1,,,74,47
443520,note_on,0,0,2,,,,,,,,,1,,,69,47
443520,note_on,0,0,2,,,,,,,,,1,,,78,47
443520,note_on,1560,0,1,,,,,,,,,0,,,81,47
443880,note_off,360,0,2,,,,,,,,,1,,,69,0
443880,note_off,0,0,2,,,,,,,,,1,,,62,0
443880,note_off,0,0,2,,,,,,,,,1,,,78,0
443880,note_off,0,0,2,,,,,,,,,1,,,74,0
443880,note_off,360,0,1,,,,,,,,,0,,,81,0
443880,note_off,0,0,2,,,,,,,,,1,,,66,0
444000,set_tempo,1480,1,0,,,,,,441176,,,,,,,
444360,note_on,1440,0,4,,,,,,,,,3,,,45,82
444360,note_on,1440,0,5,,,,,,,,,4,,,33,82
444438,note_off,78,0,4,,,,,,,,,3,,,45,0
444438,note_off,78,0,5,,,,,,,,,4,,,33,0
444440,set_tempo,440,1,0,,,,,,447761,,,,,,,
444480,note_on,42,0,5,,,,,,,,,4,,,33,87
444480,note_on,42,0,4,,,,,,,,,3,,,45,87
444480,set_tempo,40,1,0,,,,,,441176,,,,,,,
444840,note_off,360,0,5,,,,,,,,,4,,,33,0
444840,note_off,360,0,4,,,,,,,,,3,,,45,0
444960,note_on,120,0,5,,,,,,,,,4,,,38,87
444960,note_on,120,0,4,,,,,,,,,3,,,50,87
445116,note_off,156,0,5,,,,,,,,,4,,,38,0
445116,note_off,156,0,4,,,,,,,,,3,,,50,0
445320,note_on,204,0,4,,,,,,,,,3,,,45,88
445320,note_on,204,0,5,,,,,,,,,4,,,33,88
445398,note_off,78,0,5,,,,,,,,,4,,,33,0
445398,note_off,78,0,4,,,,,,,,,3,,,45,0
445400,set_tempo,920,1,0,,,,,,447761,,,,,,,
445440,note_on,0,0,2,,,,,,,,,1,,,74,94
445440,note_on,42,0,4,,,,,,,,,3,,,45,94
445440,note_on,0,0,2,,,,,,,,,1,,,69,94
445440,note_on,0,0,2,,,,,,,,,1,,,62,94
445440,note_on,0,0,2,,,,,,,,,1,,,66,94
445440,note_on,1560,0,1,,,,,,,,,0,,,81,94
445440,note_on,1560,0,2,,,,,,,,,1,,,78,94
445440,set_tempo,40,1,0,,,,,,441176,,,,,,,
445440,note_on,42,0,5,,,,,,,,,4,,,33,94
445674,note_off,234,0,2,,,,,,,,,1,,,62,0
445674,note_off,0,0,2,,,,,,,,,1,,,74,0
445674,note_off,0,0,2,,,,,,,,,1,,,69,0
445674,note_off,0,0,2,,,,,,,,,1,,,66,0
445674,note_off,234,0,1,,,,,,,,,0,,,81,0
445674,note_off,0,0,2,,,,,,,,,1,,,78,0
445800,note_off,360,0,5,,,,,,,,,4,,,33,0
445800,note_off,360,0,4,,,,,,,,,3,,,45,0
445920,note_on,246,0,1,,,,,,,,,0,,,81,96
445920,note_on,246,0,2,,,,,,,,,1,,,78,96
445920,note_on,0,0,2,,,,,,,,,1,,,69,96
445920,note_on,0,0,2,,,,,,,,,1,,,62,96
445920,note_on,120,0,4,,,,,,,,,3,,,50,96
445920,note_on,0,0,2,,,,,,,,,1,,,66,96
445920,note_on,120,0,5,,,,,,,,,4,,,38,96
445920,note_on,0,0,2,,,,,,,,,1,,,74,96
446076,note_off,156,0,4,,,,,,,,,3,,,50,0
446076,note_off,156,0,5,,,,,,,,,4,,,38,0
446154,note_off,234,0,2,,,,,,,,,1,,,66,0
446154,note_off,0,0,2,,,,,,,,,1,,,74,0
446154,note_off,0,0,2,,,,,,,,,1,,,62,0
446154,note_off,0,0,2,,,,,,,,,1,,,69,0
446154,note_off,0,0,2,,,,,,,,,1,,,78,0
446154,note_off,234,0,1,,,,,,,,,0,,,81,0
446280,note_on,204,0,4,,,,,,,,,3,,,45,99
446280,set_tempo,840,1,0,,,,,,447761,,,,,,,
446280,note_on,126,0,1,,,,,,,,,0,,,81,99
446280,note_on,0,0,2,,,,,,,,,1,,,69,99
446280,note_on,0,0,2,,,,,,,,,1,,,67,99
446280,note_on,0,0,2,,,,,,,,,1,,,64,99
446280,note_on,0,0,2,,,,,,,,,1,,,76,99
446280,note_on,0,0,2,,,,,,,,,1,,,73,99
446280,note_on,204,0,5,,,,,,,,,4,,,33,99
446280,note_on,126,0,2,,,,,,,,,1,,,57,99
446358,note_off,78,0,5,,,,,,,,,4,,,33,0
446358,note_off,78,0,4,,,,,,,,,3,,,45,0
446358,note_off,0,0,2,,,,,,,,,1,,,76,0
446358,note_off,0,0,2,,,,,,,,,1,,,67,0
446358,note_off,78,0,2,,,,,,,,,1,,,69,0
446358,note_off,0,0,2,,,,,,,,,1,,,57,0
446358,note_off,0,0,2,,,,,,,,,1,,,73,0
446358,note_off,0,0,2,,,,,,,,,1,,,64,0
446358,note_off,78,0,1,,,,,,,,,0,,,81,0
446400,note_on,42,0,4,,,,,,,,,3,,,45,104
446400,note_on,42,0,5,,,,,,,,,4,,,33,104
446400,note_on,0,0,2,,,,,,,,,1,,,67,104
446400,note_on,0,0,2,,,,,,,,,1,,,73,104
446400,note_on,42,0,1,,,,,,,,,0,,,81,104
446400,note_on,42,0,2,,,,,,,,,1,,,64,104
446400,note_on,0,0,2,,,,,,,,,1,,,69,104
446400,note_on,0,0,2,,,,,,,,,1,,,61,104
446400,note_on,0,0,2,,,,,,,,,1,,,76,104
446400,set_tempo,120,1,0,,,,,,461538,,,,,,,
446400,note_on,0,0,2,,,,,,,,,1,,,57,104
447360,note_off,960,0,5,,,,,,,,,4,,,33,0
447360,note_on,0,0,5,,,,,,,,,4,,,38,88
447360,note_on,0,0,4,,,,,,,,,3,,,50,88
447360,note_off,960,0,4,,,,,,,,,3,,,45,0
447360,note_on,0,0,2,,,,,,,,,1,,,57,88
447360,note_off,0,0,2,,,,,,,,,1,,,67,0
447360,note_on,0,0,2,,,,,,,,,1,,,66,88
447360,note_off,0,0,2,,,,,,,,,1,,,64,0
447360,note_off,0,0,2,,,,,,,,,1,,,69,0
447360,note_off,0,0,2,,,,,,,,,1,,,61,0
447360,note_on,0,0,1,,,,,,,,,0,,,74,88
447360,note_off,960,0,1,,,,,,,,,0,,,81,0
447360,note_off,0,0,2,,,,,,,,,1,,,76,0
447360,note_on,0,0,2,,,,,,,,,1,,,69,88
447360,note_on,0,0,2,,,,,,,,,1,,,62,88
447360,note_off,0,0,2,,,,,,,,,1,,,73,0
447360,note_off,960,0,2,,,,,,,,,1,,,57,0
447720,note_off,360,0,2,,,,,,,,,1,,,62,0
447720,note_off,0,0,2,,,,,,,,,1,,,69,0
447720,note_off,360,0,5,,,,,,,,,4,,,38,0
447720,note_off,360,0,1,,,,,,,,,0,,,74,0
447720,note_off,360,0,4,,,,,,,,,3,,,50,0
447720,note_off,0,0,2,,,,,,,,,1,,,57,0
447720,note_off,0,0,2,,,,,,,,,1,,,66,0
449760,control_change,2040,0,4,,,,,,,64,0,3,,,,
449760,control_change,2040,0,5,,,,,,,64,0,4,,,,
449760,control_change,39125,0,3,,,,,,,64,0,2,,,,
449760,note_on,0,0,5,,,,,,,,,4,,,45,45
449760,control_change,2040,0,2,,,,,,,64,0,1,,,,
449760,set_tempo,3360,1,0,,,,,,454545,,,,,,,
449760,control_change,0,0,4,,,,,,,64,0,3,,,,
449760,control_change,2040,0,1,,,,,,,64,0,0,,,,
449840,note_off,80,0,5,,,,,,,,,4,,,45,0
449840,note_on,0,0,5,,,,,,,,,4,,,47,45
449920,note_off,80,0,5,,,,,,,,,4,,,47,0
449920,note_on,0,0,5,,,,,,,,,4,,,49,46
450000,note_off,80,0,5,,,,,,,,,4,,,49,0
450000,note_on,0,0,5,,,,,,,,,4,,,50,47
450120,note_off,120,0,5,,,,,,,,,4,,,50,0
450120,note_on,0,0,5,,,,,,,,,4,,,52,48
450180,set_tempo,420,1,0,,,,,,461538,,,,,,,
450240,note_on,480,0,4,,,,,,,,,3,,,50,52
450240,note_on,0,0,5,,,,,,,,,4,,,54,52
450240,set_tempo,60,1,0,,,,,,454545,,,,,,,
450240,note_off,120,0,5,,,,,,,,,4,,,52,0
451200,note_off,960,0,4,,,,,,,,,3,,,50,0
451200,note_off,960,0,5,,,,,,,,,4,,,54,0
451200,note_on,0,0,5,,,,,,,,,4,,,49,50
451200,note_on,0,0,4,,,,,,,,,3,,,46,50
451680,note_off,480,0,5,,,,,,,,,4,,,49,0
451680,note_off,480,0,4,,,,,,,,,3,,,46,0
451680,note_on,0,0,5,,,,,,,,,4,,,50,49
451680,note_on,0,0,4,,,,,,,,,3,,,47,49
452047,set_tempo,1807,1,0,,,,,,461538,,,,,,,
452160,note_on,2400,0,1,,,,,,,,,0,,,77,48
452160,note_on,0,0,4,,,,,,,,,3,,,47,48
452160,note_on,0,0,4,,,,,,,,,3,,,44,48
452160,note_off,480,0,4,,,,,,,,,3,,,47,0
452160,note_off,480,0,5,,,,,,,,,4,,,50,0
452160,note_on,0,0,5,,,,,,,,,4,,,62,48
452160,set_tempo,113,1,0,,,,,,454545,,,,,,,
453120,note_on,0,0,4,,,,,,,,,3,,,46,46
453120,note_off,0,0,4,,,,,,,,,3,,,44,0
453120,note_off,960,0,4,,,,,,,,,3,,,47,0
453120,note_on,0,0,5,,,,,,,,,4,,,61,46
453120,note_off,960,0,5,,,,,,,,,4,,,62,0
453120,note_on,0,0,1,,,,,,,,,0,,,76,46
453120,note_off,960,0,1,,,,,,,,,0,,,77,0
453120,note_on,0,0,5,,,,,,,,,4,,,43,46
453847,set_tempo,1687,1,0,,,,,,461538,,,,,,,
454080,note_off,0,0,5,,,,,,,,,4,,,43,0
454080,note_on,0,0,5,,,,,,,,,4,,,42,46
454080,note_on,0,0,5,,,,,,,,,4,,,62,46
454080,set_tempo,233,1,0,,,,,,454545,,,,,,,
454080,note_on,0,0,1,,,,,,,,,0,,,74,46
454080,note_off,960,0,5,,,,,,,,,4,,,61,0
454080,note_off,960,0,4,,,,,,,,,3,,,46,0
454080,note_off,960,0,1,,,,,,,,,0,,,76,0
454080,note_on,0,0,4,,,,,,,,,3,,,45,46
454320,note_off,240,0,1,,,,,,,,,0,,,74,0
454320,note_on,0,0,1,,,,,,,,,0,,,81,48
454320,note_on,4560,0,2,,,,,,,,,1,,,69,48
454560,note_off,480,0,5,,,,,,,,,4,,,62,0
454560,note_off,0,0,5,,,,,,,,,4,,,42,0
454560,note_on,0,0,5,,,,,,,,,4,,,41,50
454560,note_on,0,0,5,,,,,,,,,4,,,59,50
454800,note_off,480,0,1,,,,,,,,,0,,,81,0
454800,note_on,0,0,2,,,,,,,,,1,,,69,51
454800,note_off,480,0,2,,,,,,,,,1,,,69,0
454800,note_on,0,0,1,,,,,,,,,0,,,81,51
455040,note_off,0,0,5,,,,,,,,,4,,,41,0
455040,note_on,0,0,5,,,,,,,,,4,,,61,53
455040,note_on,0,0,4,,,,,,,,,3,,,45,53
455040,note_on,0,0,5,,,,,,,,,4,,,40,53
455040,note_off,480,0,5,,,,,,,,,4,,,59,0
455040,note_off,960,0,4,,,,,,,,,3,,,45,0
455280,note_on,0,0,1,,,,,,,,,0,,,81,54
455280,note_off,480,0,2,,,,,,,,,1,,,69,0
455280,note_on,0,0,2,,,,,,,,,1,,,69,54
455280,note_off,480,0,1,,,,,,,,,0,,,81,0
455520,note_off,0,0,5,,,,,,,,,4,,,40,0
455520,note_on,0,0,5,,,,,,,,,4,,,39,56
455520,note_off,480,0,4,,,,,,,,,3,,,45,0
455520,note_on,0,0,5,,,,,,,,,4,,,66,56
455520,note_off,480,0,5,,,,,,,,,4,,,61,0
455520,note_on,0,0,4,,,,,,,,,3,,,45,56
455760,note_on,0,0,2,,,,,,,,,1,,,71,58
455760,note_off,480,0,1,,,,,,,,,0,,,81,0
455760,note_on,0,0,1,,,,,,,,,0,,,83,58
455760,note_off,480,0,2,,,,,,,,,1,,,69,0
455940,set_tempo,1860,1,0,,,,,,461538,,,,,,,
456000,note_off,480,0,5,,,,,,,,,4,,,66,0
456000,note_off,0,0,5,,,,,,,,,4,,,39,0
456000,note_on,0,0,5,,,,,,,,,4,,,40,65
456000,note_off,240,0,1,,,,,,,,,0,,,83,0
456000,note_on,0,0,1,,,,,,,,,0,,,85,65
456000,note_on,0,0,4,,,,,,,,,3,,,45,65
456000,note_on,0,0,4,,,,,,,,,3,,,64,65
456000,note_off,480,0,4,,,,,,,,,3,,,45,0
456000,note_off,240,0,2,,,,,,,,,1,,,71,0
456000,note_on,0,0,2,,,,,,,,,1,,,73,65
456240,note_off,240,0,1,,,,,,,,,0,,,85,0
456240,note_on,0,0,1,,,,,,,,,0,,,76,64
456240,note_off,240,0,2,,,,,,,,,1,,,73,0
456240,note_off,240,0,4,,,,,,,,,3,,,45,0
456240,note_off,0,0,4,,,,,,,,,3,,,64,0
456240,note_on,0,0,4,,,,,,,,,3,,,49,64
456240,note_on,0,0,2,,,,,,,,,1,,,69,64
456396,note_off,156,0,4,,,,,,,,,3,,,49,0
456480,note_off,240,0,2,,,,,,,,,1,,,69,0
456480,note_on,0,0,2,,,,,,,,,1,,,68,56
456480,note_off,240,0,1,,,,,,,,,0,,,76,0
456480,note_on,0,0,1,,,,,,,,,0,,,74,56
456480,note_off,480,0,5,,,,,,,,,4,,,40,0
456480,note_on,84,0,4,,,,,,,,,3,,,45,56
456480,note_on,0,0,4,,,,,,,,,3,,,52,56
456636,note_off,156,0,4,,,,,,,,,3,,,52,0
456636,note_off,0,0,4,,,,,,,,,3,,,45,0
456720,note_off,240,0,2,,,,,,,,,1,,,68,0
456720,note_on,0,0,4,,,,,,,,,3,,,45,49
456720,note_on,84,0,4,,,,,,,,,3,,,52,49
456720,note_on,0,0,2,,,,,,,,,1,,,62,49
456720,note_off,240,0,1,,,,,,,,,0,,,74,0
456720,note_on,0,0,1,,,,,,,,,0,,,71,49
456876,note_off,0,0,4,,,,,,,,,3,,,52,0
456876,note_off,156,0,4,,,,,,,,,3,,,45,0
456907,set_tempo,967,1,0,,,,,,472440,,,,,,,
456960,note_on,0,0,1,,,,,,,,,0,,,69,45
456960,note_on,0,0,2,,,,,,,,,1,,,61,45
456960,note_off,240,0,2,,,,,,,,,1,,,62,0
456960,note_on,480,0,5,,,,,,,,,4,,,33,45
456960,note_on,84,0,4,,,,,,,,,3,,,45,45
456960,note_off,240,0,1,,,,,,,,,0,,,71,0
457320,note_off,360,0,1,,,,,,,,,0,,,69,0
457320,note_off,360,0,2,,,,,,,,,1,,,61,0
457320,note_off,360,0,4,,,,,,,,,3,,,45,0
457320,note_off,360,0,5,,,,,,,,,4,,,33,0
457440,note_on,120,0,1,,,,,,,,,0,,,69,44
457440,set_tempo,533,1,0,,,,,,454545,,,,,,,
457520,note_on,0,0,1,,,,,,,,,0,,,71,45
457520,note_off,80,0,1,,,,,,,,,0,,,69,0
457600,note_off,80,0,1,,,,,,,,,0,,,71,0
457600,note_on,0,0,1,,,,,,,,,0,,,73,46
457680,note_on,0,0,1,,,,,,,,,0,,,74,47
457680,note_off,80,0,1,,,,,,,,,0,,,73,0
457800,note_off,120,0,1,,,,,,,,,0,,,74,0
457800,note_on,0,0,1,,,,,,,,,0,,,76,48
457860,set_tempo,420,1,0,,,,,,461538,,,,,,,
457920,note_on,600,0,2,,,,,,,,,1,,,69,51
457920,note_on,8160,0,3,,,,,,,,,2,,,62,51
457920,note_on,0,0,3,,,,,,,,,2,,,57,51
457920,note_on,0,0,4,,,,,,,,,3,,,50,51
457920,note_on,600,0,4,,,,,,,,,3,,,38,51
457920,note_on,0,0,3,,,,,,,,,2,,,54,51
457920,note_off,120,0,1,,,,,,,,,0,,,76,0
457920,note_on,0,0,1,,,,,,,,,0,,,78,51
457920,set_tempo,60,1,0,,,,,,454545,,,,,,,
458880,note_on,0,0,3,,,,,,,,,2,,,52,50
458880,note_on,0,0,3,,,,,,,,,2,,,55,50
458880,note_off,0,0,3,,,,,,,,,2,,,62,0
458880,note_off,0,0,3,,,,,,,,,2,,,54,0
458880,note_off,960,0,3,,,,,,,,,2,,,57,0
458880,note_on,0,0,3,,,,,,,,,2,,,61,50
458880,note_off,960,0,1,,,,,,,,,0,,,78,0
458880,note_on,0,0,2,,,,,,,,,1,,,67,50
458880,note_off,960,0,2,,,,,,,,,1,,,69,0
458880,note_on,0,0,4,,,,,,,,,3,,,46,50
458880,note_on,0,0,4,,,,,,,,,3,,,34,50
458880,note_off,0,0,4,,,,,,,,,3,,,38,0
458880,note_on,0,0,1,,,,,,,,,0,,,73,50
458880,note_off,960,0,4,,,,,,,,,3,,,50,0
459360,note_off,480,0,2,,,,,,,,,1,,,67,0
459360,note_on,0,0,4,,,,,,,,,3,,,35,49
459360,note_off,0,0,4,,,,,,,,,3,,,34,0
459360,note_off,480,0,4,,,,,,,,,3,,,46,0
459360,note_on,0,0,2,,,,,,,,,1,,,66,49
459360,note_on,0,0,4,,,,,,,,,3,,,47,49
459360,note_on,0,0,3,,,,,,,,,2,,,50,49
459360,note_on,0,0,3,,,,,,,,,2,,,54,49
459360,note_on,0,0,3,,,,,,,,,2,,,62,49
459360,note_off,0,0,3,,,,,,,,,2,,,61,0
459360,note_off,0,0,3,,,,,,,,,2,,,52,0
459360,note_on,0,0,1,,,,,,,,,0,,,74,49
459360,note_off,480,0,1,,,,,,,,,0,,,73,0
459360,note_off,480,0,3,,,,,,,,,2,,,55,0
459735,set_tempo,1815,1,0,,,,,,461538,,,,,,,
459840,note_off,480,0,3,,,,,,,,,2,,,50,0
459840,note_off,0,0,3,,,,,,,,,2,,,54,0
459840,set_tempo,105,1,0,,,,,,454545,,,,,,,
459840,note_on,0,0,4,,,,,,,,,3,,,32,48
459840,note_on,0,0,3,,,,,,,,,2,,,59,48
459840,note_on,0,0,3,,,,,,,,,2,,,50,48
459840,note_on,0,0,3,,,,,,,,,2,,,53,48
459840,note_off,0,0,3,,,,,,,,,2,,,62,0
459840,note_on,0,0,2,,,,,,,,,1,,,65,48
459840,note_on,0,0,2,,,,,,,,,1,,,62,48
459840,note_off,480,0,2,,,,,,,,,1,,,66,0
459840,note_off,480,0,1,,,,,,,,,0,,,74,0
459840,note_on,0,0,1,,,,,,,,,0,,,71,48
459840,note_on,0,0,4,,,,,,,,,3,,,44,48
459840,note_off,0,0,4,,,,,,,,,3,,,47,0
459840,note_off,480,0,4,,,,,,,,,3,,,35,0
460800,note_off,0,0,3,,,,,,,,,2,,,53,0
460800,note_on,0,0,3,,,,,,,,,2,,,59,51
460800,note_on,0,0,4,,,,,,,,,3,,,32,51
460800,note_off,960,0,3,,,,,,,,,2,,,50,0
460800,note_off,0,0,3,,,,,,,,,2,,,59,0
460800,note_off,0,0,4,,,,,,,,,3,,,44,0
460800,note_on,0,0,3,,,,,,,,,2,,,53,51
460800,note_off,960,0,4,,,,,,,,,3,,,32,0
460800,note_on,0,0,2,,,,,,,,,1,,,65,51
460800,note_on,0,0,2,,,,,,,,,1,,,62,51
460800,note_off,0,0,2,,,,,,,,,1,,,62,0
460800,note_off,960,0,2,,,,,,,,,1,,,65,0
460800,note_off,960,0,1,,,,,,,,,0,,,71,0
460800,note_on,0,0,1,,,,,,,,,0,,,71,51
460800,note_on,0,0,4,,,,,,,,,3,,,44,51
460800,note_on,0,0,3,,,,,,,,,2,,,50,51
461527,set_tempo,1687,1,0,,,,,,461538,,,,,,,
461720,note_on,920,0,1,,,,,,,,,0,,,73,55
461760,note_off,0,0,3,,,,,,,,,2,,,53,0
461760,note_on,0,0,2,,,,,,,,,1,,,62,55
461760,note_off,0,0,2,,,,,,,,,1,,,62,0
461760,note_off,960,0,2,,,,,,,,,1,,,65,0
461760,note_off,40,0,1,,,,,,,,,0,,,73,0
461760,note_off,0,0,1,,,,,,,,,0,,,71,0
461760,note_on,0,0,1,,,,,,,,,0,,,71,55
461760,note_off,960,0,3,,,,,,,,,2,,,50,0
461760,set_tempo,233,1,0,,,,,,454545,,,,,,,
461760,note_on,0,0,3,,,,,,,,,2,,,59,55
461760,note_off,0,0,3,,,,,,,,,2,,,59,0
461760,note_on,0,0,3,,,,,,,,,2,,,54,55
461760,note_on,0,0,3,,,,,,,,,2,,,50,55
461760,note_on,0,0,2,,,,,,,,,1,,,66,55
461760,note_off,960,0,4,,,,,,,,,3,,,32,0
461760,note_off,0,0,4,,,,,,,,,3,,,44,0
461760,note_on,0,0,4,,,,,,,,,3,,,42,55
461760,note_on,0,0,4,,,,,,,,,3,,,30,55
462120,note_off,360,0,1,,,,,,,,,0,,,71,0
462120,note_on,0,0,1,,,,,,,,,0,,,70,59
462240,note_off,120,0,1,,,,,,,,,0,,,70,0
462240,note_on,0,0,1,,,,,,,,,0,,,71,60
462600,note_on,0,0,1,,,,,,,,,0,,,73,64
462600,note_off,360,0,1,,,,,,,,,0,,,71,0
462720,note_on,0,0,1,,,,,,,,,0,,,74,65
462720,note_on,0,0,2,,,,,,,,,1,,,71,65
462720,note_off,0,0,2,,,,,,,,,1,,,62,0
462720,note_off,960,0,2,,,,,,,,,1,,,66,0
462720,note_off,960,0,3,,,,,,,,,2,,,54,0
462720,note_on,0,0,3,,,,,,,,,2,,,59,65
462720,note_on,0,0,3,,,,,,,,,2,,,54,65
462720,note_on,0,0,3,,,,,,,,,2,,,66,65
462720,note_on,0,0,3,,,,,,,,,2,,,62,65
462720,note_off,0,0,3,,,,,,,,,2,,,50,0
462720,note_off,960,0,4,,,,,,,,,3,,,30,0
462720,note_off,0,0,4,,,,,,,,,3,,,42,0
462720,note_on,0,0,4,,,,,,,,,3,,,42,65
462720,note_on,0,0,4,,,,,,,,,3,,,30,65
462720,note_off,120,0,1,,,,,,,,,0,,,73,0
462720,note_off,0,0,3,,,,,,,,,2,,,59,0
463200,note_off,480,0,1,,,,,,,,,0,,,74,0
463200,note_off,480,0,2,,,,,,,,,1,,,71,0
463200,note_on,0,0,1,,,,,,,,,0,,,73,63
463200,note_on,0,0,2,,,,,,,,,1,,,70,63
463200,note_off,0,0,3,,,,,,,,,2,,,66,0
463200,note_off,480,0,4,,,,,,,,,3,,,30,0
463200,note_off,0,0,4,,,,,,,,,3,,,42,0
463200,note_on,0,0,3,,,,,,,,,2,,,58,63
463200,note_on,0,0,3,,,,,,,,,2,,,64,63
463200,note_on,0,0,3,,,,,,,,,2,,,61,63
463200,note_off,0,0,3,,,,,,,,,2,,,62,0
463200,note_off,0,0,3,,,,,,,,,2,,,54,0
463200,note_off,480,0,3,,,,,,,,,2,,,59,0
463200,note_on,0,0,4,,,,,,,,,3,,,42,63
463200,note_on,0,0,3,,,,,,,,,2,,,52,63
463200,note_on,0,0,4,,,,,,,,,3,,,30,63
463560,set_tempo,1800,1,0,,,,,,461538,,,,,,,
463680,note_off,480,0,3,,,,,,,,,2,,,52,0
463680,note_off,480,0,1,,,,,,,,,0,,,73,0
463680,note_off,480,0,4,,,,,,,,,3,,,30,0
463680,note_on,0,0,3,,,,,,,,,2,,,50,60
463680,note_on,0,0,4,,,,,,,,,3,,,47,60
463680,note_on,0,0,4,,,,,,,,,3,,,35,60
463680,note_on,0,0,3,,,,,,,,,2,,,59,60
463680,note_off,0,0,3,,,,,,,,,2,,,61,0
463680,note_off,0,0,3,,,,,,,,,2,,,64,0
463680,note_off,0,0,3,,,,,,,,,2,,,58,0
463680,note_off,0,0,4,,,,,,,,,3,,,42,0
463680,note_on,0,0,1,,,,,,,,,0,,,71,60
463680,note_on,0,0,3,,,,,,,,,2,,,54,60
463680,note_off,480,0,2,,,,,,,,,1,,,70,0
463680,note_on,0,0,2,,,,,,,,,1,,,66,60
463680,note_on,0,0,2,,,,,,,,,1,,,62,60
463680,set_tempo,120,1,0,,,,,,500000,,,,,,,
464160,note_on,0,0,3,,,,,,,,,2,,,52,72
464160,note_off,480,0,3,,,,,,,,,2,,,54,0
464160,note_off,480,0,2,,,,,,,,,1,,,62,0
464160,note_off,0,0,2,,,,,,,,,1,,,66,0
464160,note_on,0,0,2,,,,,,,,,1,,,61,72
464160,note_on,0,0,2,,,,,,,,,1,,,67,72
464160,note_on,0,0,2,,,,,,,,,1,,,64,72
464160,note_on,0,0,4,,,,,,,,,3,,,33,72
464160,note_on,0,0,4,,,,,,,,,3,,,45,72
464160,note_off,0,0,4,,,,,,,,,3,,,47,0
464160,note_off,480,0,4,,,,,,,,,3,,,35,0
464160,note_on,0,0,3,,,,,,,,,2,,,55,72
464160,note_off,480,0,1,,,,,,,,,0,,,71,0
464160,note_on,0,0,1,,,,,,,,,0,,,73,72
464160,note_off,0,0,3,,,,,,,,,2,,,59,0
464160,note_off,0,0,3,,,,,,,,,2,,,50,0
464620,set_tempo,940,1,0,,,,,,461538,,,,,,,
464760,note_on,0,0,1,,,,,,,,,0,,,71,66
464760,note_off,600,0,1,,,,,,,,,0,,,73,0
464880,note_on,0,0,1,,,,,,,,,0,,,69,65
464880,note_off,120,0,1,,,,,,,,,0,,,71,0
465000,note_on,0,0,1,,,,,,,,,0,,,71,65
465000,note_off,120,0,1,,,,,,,,,0,,,69,0
465120,note_off,0,0,3,,,,,,,,,2,,,52,0
465120,note_off,0,0,2,,,,,,,,,1,,,61,0
465120,note_on,0,0,2,,,,,,,,,1,,,67,64
465120,note_on,0,0,2,,,,,,,,,1,,,64,64
465120,note_on,0,0,2,,,,,,,,,1,,,61,64
465120,note_off,0,0,4,,,,,,,,,3,,,45,0
465120,note_off,960,0,4,,,,,,,,,3,,,33,0
465120,note_off,0,0,2,,,,,,,,,1,,,67,0
465120,note_on,0,0,4,,,,,,,,,3,,,45,64
465120,note_off,960,0,3,,,,,,,,,2,,,55,0
465120,note_off,960,0,2,,,,,,,,,1,,,64,0
465120,note_on,0,0,4,,,,,,,,,3,,,33,64
465120,note_on,0,0,3,,,,,,,,,2,,,55,64
465120,note_on,0,0,3,,,,,,,,,2,,,52,64
465120,note_on,0,0,1,,,,,,,,,0,,,73,64
465120,note_off,120,0,1,,,,,,,,,0,,,71,0
465240,note_on,0,0,1,,,,,,,,,0,,,74,64
465240,note_off,120,0,1,,,,,,,,,0,,,73,0
465360,note_on,0,0,1,,,,,,,,,0,,,76,63
465360,note_off,120,0,1,,,,,,,,,0,,,74,0
465480,note_on,0,0,1,,,,,,,,,0,,,78,63
465480,note_off,120,0,1,,,,,,,,,0,,,76,0
465540,set_tempo,920,1,0,,,,,,465116,,,,,,,
465600,note_on,0,0,2,,,,,,,,,1,,,64,63
465600,set_tempo,60,1,0,,,,,,461538,,,,,,,
465600,note_on,0,0,2,,,,,,,,,1,,,67,63
465600,note_on,0,0,3,,,,,,,,,2,,,55,63
465600,note_off,0,0,3,,,,,,,,,2,,,55,0
465600,note_off,480,0,3,,,,,,,,,2,,,52,0
465600,note_on,0,0,3,,,,,,,,,2,,,52,63
465600,note_on,0,0,2,,,,,,,,,1,,,61,63
465600,note_on,0,0,4,,,,,,,,,3,,,45,63
465600,note_off,0,0,4,,,,,,,,,3,,,45,0
465600,note_off,480,0,4,,,,,,,,,3,,,33,0
465600,note_off,0,0,2,,,,,,,,,1,,,64,0
465600,note_off,0,0,2,,,,,,,,,1,,,67,0
465600,note_on,0,0,1,,,,,,,,,0,,,79,63
465600,note_off,120,0,1,,,,,,,,,0,,,78,0
465600,note_off,480,0,2,,,,,,,,,1,,,61,0
465600,note_on,0,0,4,,,,,,,,,3,,,33,63
465720,note_on,0,0,1,,,,,,,,,0,,,78,62
465720,note_off,120,0,1,,,,,,,,,0,,,79,0
465840,note_off,120,0,1,,,,,,,,,0,,,78,0
465840,note_on,0,0,1,,,,,,,,,0,,,81,62
465960,note_on,0,0,1,,,,,,,,,0,,,79,61
465960,note_off,120,0,1,,,,,,,,,0,,,81,0
466080,note_off,0,0,3,,,,,,,,,2,,,55,0
466080,note_on,0,0,3,,,,,,,,,2,,,55,61
466080,note_on,0,0,3,,,,,,,,,2,,,57,61
466080,note_off,480,0,3,,,,,,,,,2,,,52,0
466080,note_off,0,0,2,,,,,,,,,1,,,67,0
466080,note_on,0,0,2,,,,,,,,,1,,,67,61
466080,note_off,0,0,2,,,,,,,,,1,,,61,0
466080,note_off,480,0,2,,,,,,,,,1,,,64,0
466080,note_on,0,0,4,,,,,,,,,3,,,33,61
466080,note_on,0,0,1,,,,,,,,,0,,,83,61
466080,note_off,120,0,1,,,,,,,,,0,,,79,0
466080,note_on,0,0,4,,,,,,,,,3,,,45,61
466080,note_off,0,0,4,,,,,,,,,3,,,45,0
466080,note_off,480,0,4,,,,,,,,,3,,,33,0
466080,note_on,0,0,2,,,,,,,,,1,,,64,61
466080,note_on,0,0,3,,,,,,,,,2,,,52,61
466200,note_on,0,0,1,,,,,,,,,0,,,81,60
466200,note_off,120,0,1,,,,,,,,,0,,,83,0
466320,note_on,0,0,1,,,,,,,,,0,,,79,60
466320,note_off,120,0,1,,,,,,,,,0,,,81,0
466440,note_off,120,0,1,,,,,,,,,0,,,79,0
466440,note_on,0,0,1,,,,,,,,,0,,,78,59
466560,note_off,480,0,3,,,,,,,,,2,,,52,0
466560,note_off,0,0,3,,,,,,,,,2,,,55,0
466560,note_off,0,0,3,,,,,,,,,2,,,57,0
466560,note_on,0,0,3,,,,,,,,,2,,,55,59
466560,note_on,0,0,3,,,,,,,,,2,,,57,59
466560,note_on,0,0,3,,,,,,,,,2,,,52,59
466560,note_off,0,0,4,,,,,,,,,3,,,45,0
466560,note_on,0,0,4,,,,,,,,,3,,,45,59
466560,note_off,480,0,2,,,,,,,,,1,,,64,0
466560,note_off,0,0,2,,,,,,,,,1,,,67,0
466560,note_on,0,0,2,,,,,,,,,1,,,67,59
466560,note_on,0,0,2,,,,,,,,,1,,,64,59
466560,note_on,0,0,1,,,,,,,,,0,,,76,59
466560,note_off,120,0,1,,,,,,,,,0,,,78,0
466560,note_off,480,0,4,,,,,,,,,3,,,33,0
466560,note_on,0,0,4,,,,,,,,,3,,,33,59
466680,note_off,120,0,1,,,,,,,,,0,,,76,0
466680,note_on,0,0,1,,,,,,,,,0,,,74,59
466800,note_on,0,0,1,,,,,,,,,0,,,73,58
466800,note_off,120,0,1,,,,,,,,,0,,,74,0
466920,note_on,0,0,1,,,,,,,,,0,,,71,58
466920,note_off,120,0,1,,,,,,,,,0,,,73,0
467040,note_off,480,0,4,,,,,,,,,3,,,33,0
467040,note_off,0,0,4,,,,,,,,,3,,,45,0
467040,note_on,0,0,4,,,,,,,,,3,,,45,57
467040,note_on,0,0,4,,,,,,,,,3,,,33,57
467040,note_on,0,0,2,,,,,,,,,1,,,64,57
467040,note_on,0,0,2,,,,,,,,,1,,,67,57
467040,note_off,0,0,2,,,,,,,,,1,,,67,0
467040,note_off,480,0,2,,,,,,,,,1,,,64,0
467040,note_on,0,0,3,,,,,,,,,2,,,52,57
467040,note_on,0,0,3,,,,,,,,,2,,,57,57
467040,note_off,0,0,3,,,,,,,,,2,,,55,0
467040,note_off,480,0,3,,,,,,,,,2,,,52,0
467040,note_on,0,0,1,,,,,,,,,0,,,69,57
467040,note_off,120,0,1,,,,,,,,,0,,,71,0
467040,note_on,0,0,3,,,,,,,,,2,,,55,57
467040,note_off,0,0,3,,,,,,,,,2,,,57,0
467160,note_on,0,0,1,,,,,,,,,0,,,71,57
467160,note_off,120,0,1,,,,,,,,,0,,,69,0
467280,note_on,0,0,1,,,,,,,,,0,,,72,56
467280,note_off,120,0,1,,,,,,,,,0,,,71,0
467400,note_on,0,0,1,,,,,,,,,0,,,73,56
467400,note_off,120,0,1,,,,,,,,,0,,,72,0
467400,set_tempo,1800,1,0,,,,,,465116,,,,,,,
467520,note_off,0,0,4,,,,,,,,,3,,,45,0
467520,note_on,0,0,4,,,,,,,,,3,,,38,55
467520,note_off,120,0,1,,,,,,,,,0,,,73,0
467520,set_tempo,120,1,0,,,,,,472440,,,,,,,
467520,note_on,0,0,1,,,,,,,,,0,,,74,55
467520,note_off,480,0,4,,,,,,,,,3,,,33,0
467520,note_on,0,0,3,,,,,,,,,2,,,54,55
467520,note_off,0,0,2,,,,,,,,,1,,,67,0
467520,note_on,0,0,3,,,,,,,,,2,,,57,55
467520,note_on,0,0,3,,,,,,,,,2,,,50,55
467520,note_off,0,0,3,,,,,,,,,2,,,57,0
467520,note_off,0,0,3,,,,,,,,,2,,,52,0
467520,note_off,480,0,3,,,,,,,,,2,,,55,0
467520,note_on,0,0,2,,,,,,,,,1,,,62,55
467520,note_off,480,0,2,,,,,,,,,1,,,64,0
467520,note_on,0,0,2,,,,,,,,,1,,,66,55
468000,note_off,480,0,1,,,,,,,,,0,,,74,0
468000,note_off,480,0,2,,,,,,,,,1,,,66,0
468000,note_on,0,0,2,,,,,,,,,1,,,81,51
468000,note_on,0,0,2,,,,,,,,,1,,,66,51
468000,note_off,480,0,4,,,,,,,,,3,,,38,0
468000,note_on,0,0,4,,,,,,,,,3,,,38,51
468000,note_off,0,0,2,,,,,,,,,1,,,62,0
468000,note_on,0,0,2,,,,,,,,,1,,,78,51
468000,note_on,0,0,2,,,,,,,,,1,,,69,51
468000,note_on,0,0,1,,,,,,,,,0,,,86,51
468000,note_on,0,0,3,,,,,,,,,2,,,50,51
468000,note_on,0,0,3,,,,,,,,,2,,,45,51
468000,note_on,0,0,3,,,,,,,,,2,,,54,51
468000,note_off,0,0,3,,,,,,,,,2,,,50,0
468000,note_off,0,0,3,,,,,,,,,2,,,57,0
468000,note_off,480,0,3,,,,,,,,,2,,,54,0
468120,set_tempo,600,1,0,,,,,,480000,,,,,,,
468480,note_on,0,0,3,,,,,,,,,2,,,54,46
468480,note_on,0,0,3,,,,,,,,,2,,,50,46
468480,note_off,0,0,3,,,,,,,,,2,,,45,0
468480,note_off,480,0,3,,,,,,,,,2,,,50,0
468480,note_on,0,0,3,,,,,,,,,2,,,46,46
468480,note_off,0,0,3,,,,,,,,,2,,,54,0
468480,note_on,0,0,2,,,,,,,,,1,,,66,46
468480,note_on,0,0,2,,,,,,,,,1,,,78,46
468480,note_on,0,0,4,,,,,,,,,3,,,38,46
468480,note_on,0,0,2,,,,,,,,,1,,,74,46
468480,note_on,0,0,1,,,,,,,,,0,,,86,46
468480,note_off,0,0,2,,,,,,,,,1,,,81,0
468480,set_tempo,360,1,0,,,,,,540540,,,,,,,
468480,note_off,480,0,1,,,,,,,,,0,,,86,0
468480,note_off,0,0,2,,,,,,,,,1,,,66,0
468480,note_off,480,0,2,,,,,,,,,1,,,78,0
468480,note_on,0,0,2,,,,,,,,,1,,,62,46
468480,note_off,480,0,4,,,,,,,,,3,,,38,0
468480,note_off,0,0,2,,,,,,,,,1,,,69,0
468840,note_off,0,0,3,,,,,,,,,2,,,46,0
468840,note_off,360,0,2,,,,,,,,,1,,,74,0
468840,note_off,0,0,2,,,,,,,,,1,,,78,0
468840,note_off,0,0,2,,,,,,,,,1,,,66,0
468840,note_off,0,0,2,,,,,,,,,1,,,62,0
468840,note_off,360,0,1,,,,,,,,,0,,,86,0
468840,note_off,360,0,3,,,,,,,,,2,,,50,0
468840,note_off,360,0,4,,,,,,,,,3,,,38,0
468840,note_off,0,0,3,,,,,,,,,2,,,54,0
468960,note_on,0,0,5,,,,,,,,,4,,,45,45
468960,control_change,11640,0,5,,,,,,,64,0,4,,,,
468960,set_tempo,480,1,0,,,,,,454545,,,,,,,
468960,control_change,120,0,2,,,,,,,64,0,1,,,,
468960,control_change,120,0,1,,,,,,,64,0,0,,,,
468960,control_change,120,0,3,,,,,,,64,0,2,,,,
468960,control_change,120,0,4,,,,,,,64,0,3,,,,
468960,control_change,0,0,4,,,,,,,64,0,3,,,,
469040,note_off,80,0,5,,,,,,,,,4,,,45,0
469040,note_on,0,0,5,,,,,,,,,4,,,47,45
469120,note_off,80,0,5,,,,,,,,,4,,,47,0
469120,note_on,0,0,5,,,,,,,,,4,,,49,46
469200,note_off,80,0,5,,,,,,,,,4,,,49,0
469200,note_on,0,0,5,,,,,,,,,4,,,50,47
469320,note_off,120,0,5,,,,,,,,,4,,,50,0
469320,note_on,0,0,5,,,,,,,,,4,,,52,48
469380,set_tempo,420,1,0,,,,,,461538,,,,,,,
469440,note_off,120,0,5,,,,,,,,,4,,,52,0
469440,note_on,0,0,5,,,,,,,,,4,,,54,52
469440,set_tempo,60,1,0,,,,,,454545,,,,,,,
469440,note_on,480,0,4,,,,,,,,,3,,,50,52
470400,note_on,0,0,5,,,,,,,,,4,,,49,50
470400,note_off,960,0,4,,,,,,,,,3,,,50,0
470400,note_on,0,0,4,,,,,,,,,3,,,46,50
470400,note_off,960,0,5,,,,,,,,,4,,,54,0
470880,note_on,0,0,4,,,,,,,,,3,,,47,49
470880,note_off,480,0,4,,,,,,,,,3,,,46,0
470880,note_on,0,0,5,,,,,,,,,4,,,50,49
470880,note_off,480,0,5,,,,,,,,,4,,,49,0
471247,set_tempo,1807,1,0,,,,,,461538,,,,,,,
471360,note_on,0,0,5,,,,,,,,,4,,,62,48
471360,set_tempo,113,1,0,,,,,,454545,,,,,,,
471360,note_off,480,0,4,,,,,,,,,3,,,47,0
471360,note_on,0,0,4,,,,,,,,,3,,,47,48
471360,note_on,2400,0,1,,,,,,,,,0,,,77,48
471360,note_off,480,0,5,,,,,,,,,4,,,50,0
471360,note_on,0,0,4,,,,,,,,,3,,,44,48
472320,note_off,960,0,4,,,,,,,,,3,,,44,0
472320,note_off,0,0,4,,,,,,,,,3,,,47,0
472320,note_off,960,0,1,,,,,,,,,0,,,77,0
472320,note_on,0,0,5,,,,,,,,,4,,,43,46
472320,note_on,0,0,5,,,,,,,,,4,,,61,46
472320,note_off,960,0,5,,,,,,,,,4,,,62,0
472320,note_on,0,0,1,,,,,,,,,0,,,76,46
472320,note_on,0,0,4,,,,,,,,,3,,,46,46
473047,set_tempo,1687,1,0,,,,,,461538,,,,,,,
473280,note_on,0,0,5,,,,,,,,,4,,,42,46
473280,note_on,0,0,5,,,,,,,,,4,,,62,46
473280,note_off,960,0,5,,,,,,,,,4,,,43,0
473280,note_off,0,0,5,,,,,,,,,4,,,61,0
473280,set_tempo,233,1,0,,,,,,454545,,,,,,,
473280,note_on,0,0,4,,,,,,,,,3,,,45,46
473280,note_off,960,0,4,,,,,,,,,3,,,46,0
473280,note_on,0,0,1,,,,,,,,,0,,,74,46
473280,note_off,960,0,1,,,,,,,,,0,,,76,0
473520,note_on,4560,0,2,,,,,,,,,1,,,69,48
473520,note_on,0,0,1,,,,,,,,,0,,,81,48
473520,note_off,240,0,1,,,,,,,,,0,,,74,0
473760,note_off,480,0,5,,,,,,,,,4,,,42,0
473760,note_off,0,0,5,,,,,,,,,4,,,62,0
473760,note_on,0,0,5,,,,,,,,,4,,,59,50
473760,note_on,0,0,5,,,,,,,,,4,,,41,50
474000,note_off,480,0,2,,,,,,,,,1,,,69,0
474000,note_off,480,0,1,,,,,,,,,0,,,81,0
474000,note_on,0,0,1,,,,,,,,,0,,,81,51
474000,note_on,0,0,2,,,,,,,,,1,,,69,51
474240,note_on,0,0,5,,,,,,,,,4,,,61,53
474240,note_on,0,0,5,,,,,,,,,4,,,40,53
474240,note_off,0,0,5,,,,,,,,,4,,,59,0
474240,note_off,960,0,4,,,,,,,,,3,,,45,0
474240,note_off,480,0,5,,,,,,,,,4,,,41,0
474240,note_on,0,0,4,,,,,,,,,3,,,45,53
474480,note_on,0,0,1,,,,,,,,,0,,,81,54
474480,note_on,0,0,2,,,,,,,,,1,,,69,54
474480,note_off,480,0,2,,,,,,,,,1,,,69,0
474480,note_off,480,0,1,,,,,,,,,0,,,81,0
474720,note_off,480,0,4,,,,,,,,,3,,,45,0
474720,note_on,0,0,4,,,,,,,,,3,,,45,56
474720,note_on,0,0,5,,,,,,,,,4,,,66,56
474720,note_off,0,0,5,,,,,,,,,4,,,61,0
474720,note_off,480,0,5,,,,,,,,,4,,,40,0
474720,note_on,0,0,5,,,,,,,,,4,,,39,56
474960,note_off,480,0,1,,,,,,,,,0,,,81,0
474960,note_on,0,0,1,,,,,,,,,0,,,83,58
474960,note_off,480,0,2,,,,,,,,,1,,,69,0
474960,note_on,0,0,2,,,,,,,,,1,,,71,58
475140,set_tempo,1860,1,0,,,,,,461538,,,,,,,
475200,note_off,240,0,1,,,,,,,,,0,,,83,0
475200,note_on,0,0,2,,,,,,,,,1,,,73,65
475200,note_off,480,0,5,,,,,,,,,4,,,39,0
475200,note_on,0,0,1,,,,,,,,,0,,,85,65
475200,note_on,0,0,4,,,,,,,,,3,,,64,65
475200,note_on,0,0,4,,,,,,,,,3,,,45,65
475200,note_on,0,0,5,,,,,,,,,4,,,40,65
475200,note_off,0,0,5,,,,,,,,,4,,,66,0
475200,note_off,240,0,2,,,,,,,,,1,,,71,0
475200,note_off,480,0,4,,,,,,,,,3,,,45,0
475440,note_on,0,0,4,,,,,,,,,3,,,49,64
475440,note_off,0,0,4,,,,,,,,,3,,,45,0
475440,note_on,0,0,2,,,,,,,,,1,,,69,64
475440,note_off,240,0,2,,,,,,,,,1,,,73,0
475440,note_on,0,0,1,,,,,,,,,0,,,76,64
475440,note_off,240,0,1,,,,,,,,,0,,,85,0
475440,note_off,240,0,4,,,,,,,,,3,,,64,0
475596,note_off,156,0,4,,,,,,,,,3,,,49,0
475680,note_on,84,0,4,,,,,,,,,3,,,52,56
475680,note_on,0,0,4,,,,,,,,,3,,,45,56
475680,note_off,240,0,1,,,,,,,,,0,,,76,0
475680,note_on,0,0,2,,,,,,,,,1,,,68,56
475680,note_off,240,0,2,,,,,,,,,1,,,69,0
475680,note_on,0,0,1,,,,,,,,,0,,,74,56
475680,note_off,480,0,5,,,,,,,,,4,,,40,0
475836,note_off,0,0,4,,,,,,,,,3,,,52,0
475836,note_off,156,0,4,,,,,,,,,3,,,45,0
475920,note_on,84,0,4,,,,,,,,,3,,,45,49
475920,note_on,0,0,4,,,,,,,,,3,,,52,49
475920,note_off,240,0,1,,,,,,,,,0,,,74,0
475920,note_on,0,0,1,,,,,,,,,0,,,71,49
475920,note_off,240,0,2,,,,,,,,,1,,,68,0
475920,note_on,0,0,2,,,,,,,,,1,,,62,49
476076,note_off,0,0,4,,,,,,,,,3,,,45,0
476076,note_off,156,0,4,,,,,,,,,3,,,52,0
476107,set_tempo,967,1,0,,,,,,472440,,,,,,,
476160,note_off,240,0,1,,,,,,,,,0,,,71,0
476160,note_on,0,0,1,,,,,,,,,0,,,69,45
476160,note_on,84,0,4,,,,,,,,,3,,,45,45
476160,note_on,480,0,5,,,,,,,,,4,,,33,45
476160,note_off,240,0,2,,,,,,,,,1,,,62,0
476160,note_on,0,0,2,,,,,,,,,1,,,61,45
476520,note_off,360,0,1,,,,,,,,,0,,,69,0
476520,note_off,360,0,4,,,,,,,,,3,,,45,0
476520,note_off,360,0,5,,,,,,,,,4,,,33,0
476520,note_off,360,0,2,,,,,,,,,1,,,61,0
476640,note_on,120,0,1,,,,,,,,,0,,,69,44
476640,set_tempo,533,1,0,,,,,,454545,,,,,,,
476720,note_off,80,0,1,,,,,,,,,0,,,69,0
476720,note_on,0,0,1,,,,,,,,,0,,,71,45
476800,note_off,80,0,1,,,,,,,,,0,,,71,0
476800,note_on,0,0,1,,,,,,,,,0,,,73,46
476880,note_off,80,0,1,,,,,,,,,0,,,73,0
476880,note_on,0,0,1,,,,,,,,,0,,,74,47
477000,note_on,0,0,1,,,,,,,,,0,,,76,48
477000,note_off,120,0,1,,,,,,,,,0,,,74,0
477060,set_tempo,420,1,0,,,,,,461538,,,,,,,
477120,note_on,0,0,3,,,,,,,,,2,,,62,51
477120,note_on,0,0,3,,,,,,,,,2,,,54,51
477120,note_on,8160,0,3,,,,,,,,,2,,,57,51
477120,note_on,600,0,4,,,,,,,,,3,,,50,51
477120,set_tempo,60,1,0,,,,,,454545,,,,,,,
477120,note_on,600,0,2,,,,,,,,,1,,,69,51
477120,note_on,0,0,4,,,,,,,,,3,,,38,51
477120,note_off,120,0,1,,,,,,,,,0,,,76,0
477120,note_on,0,0,1,,,,,,,,,0,,,78,51
478080,note_off,960,0,4,,,,,,,,,3,,,38,0
478080,note_off,0,0,4,,,,,,,,,3,,,50,0
478080,note_on,0,0,4,,,,,,,,,3,,,46,50
478080,note_on,0,0,3,,,,,,,,,2,,,55,50
478080,note_on,0,0,3,,,,,,,,,2,,,52,50
478080,note_on,0,0,3,,,,,,,,,2,,,61,50
478080,note_on,0,0,4,,,,,,,,,3,,,34,50
478080,note_off,0,0,3,,,,,,,,,2,,,57,0
478080,note_off,0,0,3,,,,,,,,,2,,,54,0
478080,note_off,960,0,3,,,,,,,,,2,,,62,0
478080,note_off,960,0,2,,,,,,,,,1,,,69,0
478080,note_on,0,0,2,,,,,,,,,1,,,67,50
478080,note_off,960,0,1,,,,,,,,,0,,,78,0
478080,note_on,0,0,1,,,,,,,,,0,,,73,50
478560,note_on,0,0,4,,,,,,,,,3,,,35,49
478560,note_on,0,0,4,,,,,,,,,3,,,47,49
478560,note_off,0,0,4,,,,,,,,,3,,,46,0
478560,note_on,0,0,1,,,,,,,,,0,,,74,49
478560,note_off,480,0,1,,,,,,,,,0,,,73,0
478560,note_off,480,0,3,,,,,,,,,2,,,61,0
478560,note_off,480,0,4,,,,,,,,,3,,,34,0
478560,note_on,0,0,3,,,,,,,,,2,,,62,49
478560,note_on,0,0,3,,,,,,,,,2,,,54,49
478560,note_on,0,0,2,,,,,,,,,1,,,66,49
478560,note_off,480,0,2,,,,,,,,,1,,,67,0
478560,note_on,0,0,3,,,,,,,,,2,,,50,49
478560,note_off,0,0,3,,,,,,,,,2,,,55,0
478560,note_off,0,0,3,,,,,,,,,2,,,52,0
478935,set_tempo,1815,1,0,,,,,,461538,,,,,,,
479040,note_on,0,0,3,,,,,,,,,2,,,53,48
479040,note_on,0,0,3,,,,,,,,,2,,,50,48
479040,note_off,480,0,2,,,,,,,,,1,,,66,0
479040,note_on,0,0,2,,,,,,,,,1,,,65,48
479040,note_on,0,0,2,,,,,,,,,1,,,62,48
479040,note_on,0,0,3,,,,,,,,,2,,,59,48
479040,note_off,0,0,3,,,,,,,,,2,,,50,0
479040,note_off,480,0,3,,,,,,,,,2,,,62,0
479040,note_off,480,0,1,,,,,,,,,0,,,74,0
479040,note_on,0,0,1,,,,,,,,,0,,,71,48
479040,set_tempo,105,1,0,,,,,,454545,,,,,,,
479040,note_on,0,0,4,,,,,,,,,3,,,44,48
479040,note_on,0,0,4,,,,,,,,,3,,,32,48
479040,note_off,0,0,4,,,,,,,,,3,,,35,0
479040,note_off,480,0,4,,,,,,,,,3,,,47,0
479040,note_off,0,0,3,,,,,,,,,2,,,54,0
480000,note_off,960,0,1,,,,,,,,,0,,,71,0
480000,note_on,0,0,1,,,,,,,,,0,,,71,51
480000,note_off,960,0,2,,,,,,,,,1,,,62,0
480000,note_off,0,0,2,,,,,,,,,1,,,65,0
480000,note_on,0,0,4,,,,,,,,,3,,,32,51
480000,note_on,0,0,4,,,,,,,,,3,,,44,51
480000,note_on,0,0,3,,,,,,,,,2,,,59,51
480000,note_on,0,0,3,,,,,,,,,2,,,53,51
480000,note_off,0,0,3,,,,,,,,,2,,,50,0
480000,note_off,0,0,3,,,,,,,,,2,,,59,0
480000,note_off,960,0,3,,,,,,,,,2,,,53,0
480000,note_on,0,0,3,,,,,,,,,2,,,50,51
480000,note_off,0,0,4,,,,,,,,,3,,,32,0
480000,note_on,0,0,2,,,,,,,,,1,,,65,51
480000,note_off,960,0,4,,,,,,,,,3,,,44,0
480000,note_on,0,0,2,,,,,,,,,1,,,62,51
480727,set_tempo,1687,1,0,,,,,,461538,,,,,,,
480920,note_on,920,0,1,,,,,,,,,0,,,73,55
480960,set_tempo,233,1,0,,,,,,454545,,,,,,,
480960,note_off,0,0,2,,,,,,,,,1,,,65,0
480960,note_off,960,0,3,,,,,,,,,2,,,59,0
480960,note_off,0,0,3,,,,,,,,,2,,,53,0
480960,note_off,0,0,3,,,,,,,,,2,,,50,0
480960,note_on,0,0,3,,,,,,,,,2,,,54,55
480960,note_on,0,0,3,,,,,,,,,2,,,50,55
480960,note_on,0,0,3,,,,,,,,,2,,,59,55
480960,note_off,960,0,2,,,,,,,,,1,,,62,0
480960,note_on,0,0,2,,,,,,,,,1,,,62,55
480960,note_off,0,0,1,,,,,,,,,0,,,71,0
480960,note_off,40,0,1,,,,,,,,,0,,,73,0
480960,note_off,960,0,4,,,,,,,,,3,,,44,0
480960,note_on,0,0,1,,,,,,,,,0,,,71,55
480960,note_on,0,0,4,,,,,,,,,3,,,30,55
480960,note_on,0,0,4,,,,,,,,,3,,,42,55
480960,note_off,0,0,4,,,,,,,,,3,,,32,0
480960,note_on,0,0,2,,,,,,,,,1,,,66,55
481320,note_off,360,0,1,,,,,,,,,0,,,71,0
481320,note_on,0,0,1,,,,,,,,,0,,,70,59
481440,note_on,0,0,1,,,,,,,,,0,,,71,60
481440,note_off,120,0,1,,,,,,,,,0,,,70,0
481800,note_on,0,0,1,,,,,,,,,0,,,73,64
481800,note_off,360,0,1,,,,,,,,,0,,,71,0
481920,note_on,0,0,1,,,,,,,,,0,,,74,65
481920,note_off,120,0,1,,,,,,,,,0,,,73,0
481920,note_on,0,0,2,,,,,,,,,1,,,71,65
481920,note_off,960,0,4,,,,,,,,,3,,,42,0
481920,note_off,960,0,2,,,,,,,,,1,,,62,0
481920,note_off,0,0,2,,,,,,,,,1,,,66,0
481920,note_off,0,0,3,,,,,,,,,2,,,50,0
481920,note_on,0,0,4,,,,,,,,,3,,,30,65
481920,note_off,960,0,3,,,,,,,,,2,,,59,0
481920,note_off,0,0,3,,,,,,,,,2,,,54,0
481920,note_on,0,0,4,,,,,,,,,3,,,42,65
481920,note_off,0,0,4,,,,,,,,,3,,,30,0
481920,note_on,0,0,3,,,,,,,,,2,,,54,65
481920,note_on,0,0,3,,,,,,,,,2,,,59,65
481920,note_on,0,0,3,,,,,,,,,2,,,66,65
481920,note_on,0,0,3,,,,,,,,,2,,,62,65
482400,note_off,480,0,4,,,,,,,,,3,,,42,0
482400,note_on,0,0,4,,,,,,,,,3,,,42,63
482400,note_on,0,0,4,,,,,,,,,3,,,30,63
482400,note_on,0,0,2,,,,,,,,,1,,,70,63
482400,note_off,480,0,2,,,,,,,,,1,,,71,0
482400,note_on,0,0,3,,,,,,,,,2,,,61,63
482400,note_on,0,0,3,,,,,,,,,2,,,64,63
482400,note_on,0,0,3,,,,,,,,,2,,,58,63
482400,note_off,0,0,4,,,,,,,,,3,,,30,0
482400,note_off,0,0,3,,,,,,,,,2,,,59,0
482400,note_on,0,0,3,,,,,,,,,2,,,52,63
482400,note_off,480,0,1,,,,,,,,,0,,,74,0
482400,note_off,480,0,3,,,,,,,,,2,,,62,0
482400,note_on,0,0,1,,,,,,,,,0,,,73,63
482400,note_off,0,0,3,,,,,,,,,2,,,66,0
482400,note_off,0,0,3,,,,,,,,,2,,,54,0
482760,set_tempo,1800,1,0,,,,,,461538,,,,,,,
482880,note_on,0,0,3,,,,,,,,,2,,,59,60
482880,note_on,0,0,3,,,,,,,,,2,,,50,60
482880,note_on,0,0,3,,,,,,,,,2,,,54,60
482880,note_off,0,0,3,,,,,,,,,2,,,52,0
482880,note_off,0,0,3,,,,,,,,,2,,,58,0
482880,note_off,0,0,3,,,,,,,,,2,,,64,0
482880,note_on,0,0,1,,,,,,,,,0,,,71,60
482880,set_tempo,120,1,0,,,,,,500000,,,,,,,
482880,note_off,480,0,4,,,,,,,,,3,,,42,0
482880,note_on,0,0,4,,,,,,,,,3,,,35,60
482880,note_on,0,0,4,,,,,,,,,3,,,47,60
482880,note_off,480,0,1,,,,,,,,,0,,,73,0
482880,note_on,0,0,2,,,,,,,,,1,,,62,60
482880,note_off,480,0,2,,,,,,,,,1,,,70,0
482880,note_off,480,0,3,,,,,,,,,2,,,61,0
482880,note_off,0,0,4,,,,,,,,,3,,,30,0
482880,note_on,0,0,2,,,,,,,,,1,,,66,60
483360,note_off,480,0,3,,,,,,,,,2,,,59,0
483360,note_off,0,0,3,,,,,,,,,2,,,50,0
483360,note_off,0,0,3,,,,,,,,,2,,,54,0
483360,note_on,0,0,3,,,,,,,,,2,,,55,72
483360,note_on,0,0,2,,,,,,,,,1,,,61,72
483360,note_on,0,0,2,,,,,,,,,1,,,67,72
483360,note_on,0,0,3,,,,,,,,,2,,,52,72
483360,note_on,0,0,1,,,,,,,,,0,,,73,72
483360,note_off,0,0,2,,,,,,,,,1,,,62,0
483360,note_off,0,0,4,,,,,,,,,3,,,35,0
483360,note_on,0,0,4,,,,,,,,,3,,,33,72
483360,note_on,0,0,4,,,,,,,,,3,,,45,72
483360,note_off,480,0,2,,,,,,,,,1,,,66,0
483360,note_off,480,0,1,,,,,,,,,0,,,71,0
483360,note_on,0,0,2,,,,,,,,,1,,,64,72
483360,note_off,480,0,4,,,,,,,,,3,,,47,0
483820,set_tempo,940,1,0,,,,,,461538,,,,,,,
483960,note_on,0,0,1,,,,,,,,,0,,,71,66
483960,note_off,600,0,1,,,,,,,,,0,,,73,0
484080,note_off,120,0,1,,,,,,,,,0,,,71,0
484080,note_on,0,0,1,,,,,,,,,0,,,69,65
484200,note_off,120,0,1,,,,,,,,,0,,,69,0
484200,note_on,0,0,1,,,,,,,,,0,,,71,65
484320,note_on,0,0,3,,,,,,,,,2,,,55,64
484320,note_off,120,0,1,,,,,,,,,0,,,71,0
484320,note_on,0,0,1,,,,,,,,,0,,,73,64
484320,note_off,960,0,3,,,,,,,,,2,,,52,0
484320,note_on,0,0,4,,,,,,,,,3,,,45,64
484320,note_on,0,0,4,,,,,,,,,3,,,33,64
484320,note_on,0,0,3,,,,,,,,,2,,,52,64
484320,note_off,0,0,4,,,,,,,,,3,,,33,0
484320,note_off,960,0,4,,,,,,,,,3,,,45,0
484320,note_off,960,0,2,,,,,,,,,1,,,61,0
484320,note_off,0,0,2,,,,,,,,,1,,,67,0
484320,note_off,0,0,3,,,,,,,,,2,,,55,0
484320,note_on,0,0,2,,,,,,,,,1,,,61,64
484320,note_on,0,0,2,,,,,,,,,1,,,64,64
484320,note_off,0,0,2,,,,,,,,,1,,,64,0
484320,note_on,0,0,2,,,,,,,,,1,,,67,64
484440,note_off,120,0,1,,,,,,,,,0,,,73,0
484440,note_on,0,0,1,,,,,,,,,0,,,74,64
484560,note_off,120,0,1,,,,,,,,,0,,,74,0
484560,note_on,0,0,1,,,,,,,,,0,,,76,63
484680,note_off,120,0,1,,,,,,,,,0,,,76,0
484680,note_on,0,0,1,,,,,,,,,0,,,78,63
484740,set_tempo,920,1,0,,,,,,465116,,,,,,,
484800,note_on,0,0,3,,,,,,,,,2,,,55,63
484800,note_on,0,0,3,,,,,,,,,2,,,52,63
484800,note_off,0,0,3,,,,,,,,,2,,,52,0
484800,note_off,120,0,1,,,,,,,,,0,,,78,0
484800,note_on,0,0,1,,,,,,,,,0,,,79,63
484800,note_on,0,0,2,,,,,,,,,1,,,67,63
484800,note_on,0,0,4,,,,,,,,,3,,,45,63
484800,note_on,0,0,4,,,,,,,,,3,,,33,63
484800,note_on,0,0,2,,,,,,,,,1,,,61,63
484800,note_off,480,0,4,,,,,,,,,3,,,45,0
484800,note_off,0,0,4,,,,,,,,,3,,,33,0
484800,note_off,0,0,2,,,,,,,,,1,,,64,0
484800,note_off,480,0,3,,,,,,,,,2,,,55,0
484800,note_on,0,0,2,,,,,,,,,1,,,64,63
484800,note_off,0,0,2,,,,,,,,,1,,,61,0
484800,note_off,480,0,2,,,,,,,,,1,,,67,0
484800,set_tempo,60,1,0,,,,,,461538,,,,,,,
484920,note_on,0,0,1,,,,,,,,,0,,,78,62
484920,note_off,120,0,1,,,,,,,,,0,,,79,0
485040,note_off,120,0,1,,,,,,,,,0,,,78,0
485040,note_on,0,0,1,,,,,,,,,0,,,81,62
485160,note_off,120,0,1,,,,,,,,,0,,,81,0
485160,note_on,0,0,1,,,,,,,,,0,,,79,61
485280,note_on,0,0,3,,,,,,,,,2,,,55,61
485280,note_on,0,0,3,,,,,,,,,2,,,52,61
485280,note_off,0,0,3,,,,,,,,,2,,,52,0
485280,note_on,0,0,3,,,,,,,,,2,,,57,61
485280,note_on,0,0,4,,,,,,,,,3,,,45,61
485280,note_off,480,0,2,,,,,,,,,1,,,67,0
485280,note_off,480,0,4,,,,,,,,,3,,,45,0
485280,note_off,0,0,2,,,,,,,,,1,,,64,0
485280,note_on,0,0,2,,,,,,,,,1,,,64,61
485280,note_on,0,0,2,,,,,,,,,1,,,67,61
485280,note_off,0,0,4,,,,,,,,,3,,,33,0
485280,note_on,0,0,4,,,,,,,,,3,,,33,61
485280,note_off,0,0,2,,,,,,,,,1,,,61,0
485280,note_off,480,0,3,,,,,,,,,2,,,55,0
485280,note_off,120,0,1,,,,,,,,,0,,,79,0
485280,note_on,0,0,1,,,,,,,,,0,,,83,61
485400,note_off,120,0,1,,,,,,,,,0,,,83,0
485400,note_on,0,0,1,,,,,,,,,0,,,81,60
485520,note_off,120,0,1,,,,,,,,,0,,,81,0
485520,note_on,0,0,1,,,,,,,,,0,,,79,60
485640,note_off,120,0,1,,,,,,,,,0,,,79,0
485640,note_on,0,0,1,,,,,,,,,0,,,78,59
485760,note_off,120,0,1,,,,,,,,,0,,,78,0
485760,note_on,0,0,1,,,,,,,,,0,,,76,59
485760,note_off,0,0,4,,,,,,,,,3,,,33,0
485760,note_on,0,0,4,,,,,,,,,3,,,33,59
485760,note_on,0,0,3,,,,,,,,,2,,,55,59
485760,note_on,0,0,3,,,,,,,,,2,,,57,59
485760,note_off,480,0,4,,,,,,,,,3,,,45,0
485760,note_off,0,0,3,,,,,,,,,2,,,52,0
485760,note_off,480,0,2,,,,,,,,,1,,,67,0
485760,note_off,0,0,2,,,,,,,,,1,,,64,0
485760,note_on,0,0,3,,,,,,,,,2,,,52,59
485760,note_on,0,0,2,,,,,,,,,1,,,64,59
485760,note_on,0,0,4,,,,,,,,,3,,,45,59
485760,note_on,0,0,2,,,,,,,,,1,,,67,59
485760,note_off,480,0,3,,,,,,,,,2,,,57,0
485760,note_off,0,0,3,,,,,,,,,2,,,55,0
485880,note_on,0,0,1,,,,,,,,,0,,,74,59
485880,note_off,120,0,1,,,,,,,,,0,,,76,0
486000,note_on,0,0,1,,,,,,,,,0,,,73,58
486000,note_off,120,0,1,,,,,,,,,0,,,74,0
486120,note_off,120,0,1,,,,,,,,,0,,,73,0
486120,note_on,0,0,1,,,,,,,,,0,,,71,58
486240,note_off,480,0,4,,,,,,,,,3,,,45,0
486240,note_on,0,0,2,,,,,,,,,1,,,64,57
486240,note_on,0,0,2,,,,,,,,,1,,,67,57
486240,note_on,0,0,4,,,,,,,,,3,,,33,57
486240,note_on,0,0,4,,,,,,,,,3,,,45,57
486240,note_on,0,0,1,,,,,,,,,0,,,69,57
486240,note_off,0,0,2,,,,,,,,,1,,,64,0
486240,note_off,120,0,1,,,,,,,,,0,,,71,0
486240,note_off,480,0,2,,,,,,,,,1,,,67,0
486240,note_off,0,0,4,,,,,,,,,3,,,33,0
486240,note_off,480,0,3,,,,,,,,,2,,,55,0
486240,note_off,0,0,3,,,,,,,,,2,,,57,0
486240,note_off,0,0,3,,,,,,,,,2,,,52,0
486240,note_on,0,0,3,,,,,,,,,2,,,55,57
486240,note_on,0,0,3,,,,,,,,,2,,,52,57
486240,note_on,0,0,3,,,,,,,,,2,,,57,57
486360,note_off,120,0,1,,,,,,,,,0,,,69,0
486360,note_on,0,0,1,,,,,,,,,0,,,71,57
486480,note_on,0,0,1,,,,,,,,,0,,,72,56
486480,note_off,120,0,1,,,,,,,,,0,,,71,0
486600,set_tempo,1800,1,0,,,,,,465116,,,,,,,
486600,note_off,120,0,1,,,,,,,,,0,,,72,0
486600,note_on,0,0,1,,,,,,,,,0,,,73,56
486720,note_off,480,0,2,,,,,,,,,1,,,67,0
486720,note_off,480,0,4,,,,,,,,,3,,,45,0
486720,note_off,480,0,3,,,,,,,,,2,,,57,0
486720,note_off,0,0,3,,,,,,,,,2,,,52,0
486720,note_off,0,0,3,,,,,,,,,2,,,55,0
486720,note_on,0,0,3,,,,,,,,,2,,,54,55
486720,note_on,0,0,1,,,,,,,,,0,,,74,55
486720,note_off,120,0,1,,,,,,,,,0,,,73,0
486720,note_off,0,0,4,,,,,,,,,3,,,33,0
486720,note_on,0,0,3,,,,,,,,,2,,,57,55
486720,note_off,0,0,2,,,,,,,,,1,,,64,0
486720,set_tempo,120,1,0,,,,,,472440,,,,,,,
486720,note_on,0,0,2,,,,,,,,,1,,,66,55
486720,note_on,0,0,2,,,,,,,,,1,,,62,55
486720,note_on,0,0,3,,,,,,,,,2,,,50,55
486720,note_on,0,0,4,,,,,,,,,3,,,38,55
487200,note_off,480,0,3,,,,,,,,,2,,,50,0
487200,note_off,0,0,3,,,,,,,,,2,,,57,0
487200,note_off,0,0,3,,,,,,,,,2,,,54,0
487200,note_on,0,0,4,,,,,,,,,3,,,38,51
487200,note_on,0,0,3,,,,,,,,,2,,,54,51
487200,note_off,0,0,2,,,,,,,,,1,,,66,0
487200,note_off,480,0,2,,,,,,,,,1,,,62,0
487200,note_on,0,0,1,,,,,,,,,0,,,86,51
487200,note_off,480,0,1,,,,,,,,,0,,,74,0
487200,note_on,0,0,3,,,,,,,,,2,,,45,51
487200,note_on,0,0,2,,,,,,,,,1,,,66,51
487200,note_on,0,0,2,,,,,,,,,1,,,81,51
487200,note_on,0,0,2,,,,,,,,,1,,,69,51
487200,note_on,0,0,2,,,,,,,,,1,,,78,51
487200,note_off,480,0,4,,,,,,,,,3,,,38,0
487200,note_on,0,0,3,,,,,,,,,2,,,50,51
487320,set_tempo,600,1,0,,,,,,480000,,,,,,,
487680,note_on,0,0,1,,,,,,,,,0,,,86,46
487680,note_off,480,0,1,,,,,,,,,0,,,86,0
487680,note_off,480,0,4,,,,,,,,,3,,,38,0
487680,note_on,0,0,2,,,,,,,,,1,,,78,46
487680,note_on,0,0,2,,,,,,,,,1,,,66,46
487680,note_off,0,0,2,,,,,,,,,1,,,69,0
487680,note_off,0,0,2,,,,,,,,,1,,,81,0
487680,note_on,0,0,2,,,,,,,,,1,,,62,46
487680,note_off,480,0,2,,,,,,,,,1,,,66,0
487680,note_off,480,0,3,,,,,,,,,2,,,54,0
487680,note_off,0,0,2,,,,,,,,,1,,,78,0
487680,note_off,0,0,3,,,,,,,,,2,,,45,0
487680,note_on,0,0,3,,,,,,,,,2,,,50,46
487680,note_on,0,0,3,,,,,,,,,2,,,45,46
487680,note_on,0,0,4,,,,,,,,,3,,,38,46
487680,note_on,0,0,3,,,,,,,,,2,,,54,46
487680,note_off,0,0,3,,,,,,,,,2,,,50,0
487680,note_on,0,0,2,,,,,,,,,1,,,74,46
488160,set_tempo,840,1,0,,,,,,821917,,,,,,,
488160,note_off,0,0,3,,,,,,,,,2,,,50,0
488160,note_off,0,0,3,,,,,,,,,2,,,45,0
488160,note_off,0,0,3,,,,,,,,,2,,,54,0
488160,note_off,0,0,2,,,,,,,,,1,,,78,0
488160,control_change,480,0,1,,,,,,,64,0,0,,,,
488160,note_off,0,0,1,,,,,,,,,0,,,86,0
488160,control_change,480,0,2,,,,,,,64,0,1,,,,
488160,note_off,0,0,2,,,,,,,,,1,,,62,0
488160,note_off,0,0,4,,,,,,,,,3,,,38,0
488160,control_change,11640,0,5,,,,,,,64,0,4,,,,
488160,control_change,480,0,4,,,,,,,64,0,3,,,,
488160,note_off,0,0,2,,,,,,,,,1,,,66,0
488160,note_off,0,0,2,,,,,,,,,1,,,74,0
488160,control_change,480,0,3,,,,,,,64,0,2,,,,
488400,set_tempo,240,1,0,,,,,,434782,,,,,,,
488400,note_on,240,0,4,,,,,,,,,3,,,50,87
488464,note_off,64,0,4,,,,,,,,,3,,,50,0
488480,note_on,16,0,4,,,,,,,,,3,,,50,89
488544,note_off,64,0,4,,,,,,,,,3,,,50,0
488560,note_on,16,0,4,,,,,,,,,3,,,50,92
488624,note_off,64,0,4,,,,,,,,,3,,,50,0
488640,note_on,16,0,4,,,,,,,,,3,,,50,94
488640,note_on,0,0,4,,,,,,,,,3,,,38,94
488640,note_on,480,0,5,,,,,,,,,4,,,26,94
489000,note_off,360,0,4,,,,,,,,,3,,,38,0
489000,note_off,0,0,4,,,,,,,,,3,,,50,0
489000,note_off,360,0,5,,,,,,,,,4,,,26,0
489360,note_on,360,0,4,,,,,,,,,3,,,54,94
489424,note_off,64,0,4,,,,,,,,,3,,,54,0
489440,note_on,16,0,4,,,,,,,,,3,,,54,96
489504,note_off,64,0,4,,,,,,,,,3,,,54,0
489520,note_on,16,0,4,,,,,,,,,3,,,54,97
489584,note_off,64,0,4,,,,,,,,,3,,,54,0
489600,note_on,600,0,5,,,,,,,,,4,,,30,99
489600,note_on,0,0,4,,,,,,,,,3,,,42,99
489600,note_on,16,0,4,,,,,,,,,3,,,54,99
489960,note_off,0,0,4,,,,,,,,,3,,,54,0
489960,note_off,360,0,4,,,,,,,,,3,,,42,0
489960,note_off,360,0,5,,,,,,,,,4,,,30,0
490320,note_on,360,0,4,,,,,,,,,3,,,57,99
490384,note_off,64,0,4,,,,,,,,,3,,,57,0
490400,note_on,16,0,4,,,,,,,,,3,,,57,100
490464,note_off,64,0,4,,,,,,,,,3,,,57,0
490480,note_on,16,0,4,,,,,,,,,3,,,57,102
490544,note_off,64,0,4,,,,,,,,,3,,,57,0
490560,note_on,600,0,5,,,,,,,,,4,,,33,104
490560,note_on,16,0,4,,,,,,,,,3,,,57,104
490560,set_tempo,2160,1,0,,,,,,441176,,,,,,,
490560,note_on,0,0,4,,,,,,,,,3,,,45,104
490752,note_off,192,0,5,,,,,,,,,4,,,33,0
490752,note_off,192,0,4,,,,,,,,,3,,,45,0
490752,note_off,0,0,4,,,,,,,,,3,,,57,0
490800,note_on,48,0,4,,,,,,,,,3,,,57,95
490800,note_on,0,0,4,,,,,,,,,3,,,45,95
490860,set_tempo,300,1,0,,,,,,434782,,,,,,,
490992,note_off,192,0,4,,,,,,,,,3,,,45,0
490992,note_off,0,0,4,,,,,,,,,3,,,57,0
491040,note_on,0,0,4,,,,,,,,,3,,,57,89
491040,note_on,48,0,4,,,,,,,,,3,,,45,89
491232,note_off,192,0,4,,,,,,,,,3,,,57,0
491232,note_off,0,0,4,,,,,,,,,3,,,45,0
491280,note_on,48,0,4,,,,,,,,,3,,,57,85
491280,note_on,0,0,4,,,,,,,,,3,,,45,85
491472,note_off,0,0,4,,,,,,,,,3,,,57,0
491472,note_off,192,0,4,,,,,,,,,3,,,45,0
491520,note_on,48,0,4,,,,,,,,,3,,,45,81
491520,note_on,0,0,4,,,,,,,,,3,,,57,81
491712,note_off,192,0,4,,,,,,,,,3,,,57,0
491712,note_off,0,0,4,,,,,,,,,3,,,45,0
491760,note_on,0,0,4,,,,,,,,,3,,,57,76
491760,note_on,48,0,4,,,,,,,,,3,,,45,76
491952,note_off,192,0,4,,,,,,,,,3,,,57,0
491952,note_off,0,0,4,,,,,,,,,3,,,45,0
492000,note_on,48,0,4,,,,,,,,,3,,,45,74
492000,note_on,0,0,4,,,,,,,,,3,,,57,74
492192,note_off,0,0,4,,,,,,,,,3,,,45,0
492192,note_off,192,0,4,,,,,,,,,3,,,57,0
492240,note_on,0,0,4,,,,,,,,,3,,,57,71
492240,note_on,48,0,4,,,,,,,,,3,,,45,71
492420,set_tempo,1560,1,0,,,,,,441176,,,,,,,
492432,note_off,192,0,4,,,,,,,,,3,,,57,0
492432,note_off,0,0,4,,,,,,,,,3,,,45,0
492480,note_on,48,0,4,,,,,,,,,3,,,45,69
492480,note_on,0,0,4,,,,,,,,,3,,,57,69
492480,note_on,4320,0,3,,,,,,,,,2,,,55,69
492480,note_on,0,0,3,,,,,,,,,2,,,52,69
492480,set_tempo,60,1,0,,,,,,434782,,,,,,,
492672,note_off,0,0,3,,,,,,,,,2,,,55,0
492672,note_off,192,0,3,,,,,,,,,2,,,52,0
492672,note_off,192,0,4,,,,,,,,,3,,,57,0
492672,note_off,0,0,4,,,,,,,,,3,,,45,0
492720,note_on,48,0,4,,,,,,,,,3,,,57,72
492720,note_on,0,0,4,,,,,,,,,3,,,45,72
492720,note_on,48,0,3,,,,,,,,,2,,,52,72
492720,note_on,4560,0,1,,,,,,,,,0,,,69,72
492720,note_on,0,0,3,,,,,,,,,2,,,55,72
492840,note_off,120,0,1,,,,,,,,,0,,,69,0
492840,note_on,0,0,1,,,,,,,,,0,,,73,73
492912,note_off,192,0,4,,,,,,,,,3,,,45,0
492912,note_off,192,0,3,,,,,,,,,2,,,55,0
492912,note_off,0,0,3,,,,,,,,,2,,,52,0
492912,note_off,0,0,4,,,,,,,,,3,,,57,0
492960,note_on,48,0,3,,,,,,,,,2,,,52,75
492960,note_off,120,0,1,,,,,,,,,0,,,73,0
492960,note_on,48,0,4,,,,,,,,,3,,,45,75
492960,note_on,0,0,3,,,,,,,,,2,,,55,75
492960,note_on,0,0,4,,,,,,,,,3,,,57,75
492960,note_on,0,0,1,,,,,,,,,0,,,76,75
493080,note_off,120,0,1,,,,,,,,,0,,,76,0
493080,note_on,0,0,1,,,,,,,,,0,,,73,76
493152,note_off,192,0,4,,,,,,,,,3,,,57,0
493152,note_off,0,0,4,,,,,,,,,3,,,45,0
493152,note_off,192,0,3,,,,,,,,,2,,,55,0
493152,note_off,0,0,3,,,,,,,,,2,,,52,0
493200,note_on,48,0,4,,,,,,,,,3,,,45,77
493200,note_on,0,0,4,,,,,,,,,3,,,57,77
493200,note_on,0,0,2,,,,,,,,,1,,,64,77
493200,note_on,5040,0,2,,,,,,,,,1,,,61,77
493200,note_off,120,0,1,,,,,,,,,0,,,73,0
493200,note_on,0,0,1,,,,,,,,,0,,,81,77
493200,note_on,0,0,3,,,,,,,,,2,,,55,77
493200,note_on,48,0,3,,,,,,,,,2,,,52,77
493200,note_on,0,0,2,,,,,,,,,1,,,67,77
493392,note_off,192,0,2,,,,,,,,,1,,,67,0
493392,note_off,0,0,2,,,,,,,,,1,,,64,0
493392,note_off,0,0,2,,,,,,,,,1,,,61,0
493392,note_off,0,0,4,,,,,,,,,3,,,45,0
493392,note_off,192,0,4,,,,,,,,,3,,,57,0
493392,note_off,0,0,3,,,,,,,,,2,,,52,0
493392,note_off,192,0,1,,,,,,,,,0,,,81,0
493392,note_off,192,0,3,,,,,,,,,2,,,55,0
493440,note_on,0,0,3,,,,,,,,,2,,,50,79
493440,note_on,0,0,4,,,,,,,,,3,,,57,79
493440,note_on,48,0,3,,,,,,,,,2,,,54,79
493440,note_on,48,0,4,,,,,,,,,3,,,45,79
493632,note_off,192,0,4,,,,,,,,,3,,,57,0
493632,note_off,0,0,4,,,,,,,,,3,,,45,0
493632,note_off,0,0,3,,,,,,,,,2,,,54,0
493632,note_off,192,0,3,,,,,,,,,2,,,50,0
493680,note_on,48,0,4,,,,,,,,,3,,,45,82
493680,note_on,0,0,4,,,,,,,,,3,,,57,82
493680,note_on,0,0,3,,,,,,,,,2,,,50,82
493680,note_on,288,0,1,,,,,,,,,0,,,69,82
493680,note_on,48,0,3,,,,,,,,,2,,,54,82
493800,note_on,0,0,1,,,,,,,,,0,,,74,83
493800,note_off,120,0,1,,,,,,,,,0,,,69,0
493872,note_off,0,0,3,,,,,,,,,2,,,54,0
493872,note_off,192,0,3,,,,,,,,,2,,,50,0
493872,note_off,192,0,4,,,,,,,,,3,,,57,0
493872,note_off,0,0,4,,,,,,,,,3,,,45,0
493920,note_off,120,0,1,,,,,,,,,0,,,74,0
493920,note_on,0,0,1,,,,,,,,,0,,,78,84
493920,note_on,0,0,3,,,,,,,,,2,,,50,84
493920,note_on,48,0,3,,,,,,,,,2,,,54,84
493920,note_on,48,0,4,,,,,,,,,3,,,45,84
493920,note_on,0,0,4,,,,,,,,,3,,,57,84
494040,note_off,120,0,1,,,,,,,,,0,,,78,0
494040,note_on,0,0,1,,,,,,,,,0,,,74,85
494112,note_off,192,0,3,,,,,,,,,2,,,50,0
494112,note_off,0,0,4,,,,,,,,,3,,,45,0
494112,note_off,192,0,4,,,,,,,,,3,,,57,0
494112,note_off,0,0,3,,,,,,,,,2,,,54,0
494160,note_on,0,0,2,,,,,,,,,1,,,66,86
494160,note_on,768,0,2,,,,,,,,,1,,,62,86
494160,note_on,48,0,3,,,,,,,,,2,,,50,86
494160,note_off,120,0,1,,,,,,,,,0,,,74,0
494160,note_on,0,0,1,,,,,,,,,0,,,81,86
494160,note_on,0,0,3,,,,,,,,,2,,,54,86
494160,note_on,0,0,4,,,,,,,,,3,,,57,86
494160,note_on,48,0,4,,,,,,,,,3,,,45,86
494352,note_off,192,0,3,,,,,,,,,2,,,54,0
494352,note_off,0,0,3,,,,,,,,,2,,,50,0
494352,note_off,192,0,2,,,,,,,,,1,,,66,0
494352,note_off,0,0,2,,,,,,,,,1,,,62,0
494352,note_off,192,0,4,,,,,,,,,3,,,57,0
494352,note_off,192,0,1,,,,,,,,,0,,,81,0
494352,note_off,0,0,4,,,,,,,,,3,,,45,0
494400,note_on,48,0,3,,,,,,,,,2,,,52,89
494400,note_on,0,0,3,,,,,,,,,2,,,55,89
494400,note_on,48,0,4,,,,,,,,,3,,,57,89
494400,note_on,0,0,4,,,,,,,,,3,,,45,89
494592,note_off,192,0,3,,,,,,,,,2,,,55,0
494592,note_off,0,0,4,,,,,,,,,3,,,57,0
494592,note_off,192,0,4,,,,,,,,,3,,,45,0
494592,note_off,0,0,3,,,,,,,,,2,,,52,0
494640,note_on,0,0,3,,,,,,,,,2,,,55,91
494640,note_on,288,0,1,,,,,,,,,0,,,76,91
494640,note_on,48,0,3,,,,,,,,,2,,,52,91
494640,note_on,0,0,4,,,,,,,,,3,,,45,91
494640,note_on,288,0,2,,,,,,,,,1,,,64,91
494640,note_on,48,0,4,,,,,,,,,3,,,57,91
494760,note_on,0,0,1,,,,,,,,,0,,,79,92
494760,note_off,120,0,1,,,,,,,,,0,,,76,0
494760,note_off,120,0,2,,,,,,,,,1,,,64,0
494760,note_on,0,0,2,,,,,,,,,1,,,67,92
494832,note_off,192,0,3,,,,,,,,,2,,,55,0
494832,note_off,0,0,3,,,,,,,,,2,,,52,0
494832,note_off,192,0,4,,,,,,,,,3,,,45,0
494832,note_off,0,0,4,,,,,,,,,3,,,57,0
494880,note_on,48,0,4,,,,,,,,,3,,,57,93
494880,note_on,48,0,3,,,,,,,,,2,,,52,93
494880,note_on,0,0,3,,,,,,,,,2,,,55,93
494880,note_on,0,0,1,,,,,,,,,0,,,85,93
494880,note_off,120,0,1,,,,,,,,,0,,,79,0
494880,note_on,0,0,4,,,,,,,,,3,,,45,93
494880,note_on,0,0,2,,,,,,,,,1,,,73,93
494880,note_off,120,0,2,,,,,,,,,1,,,67,0
495000,note_on,0,0,2,,,,,,,,,1,,,67,94
495000,note_off,120,0,1,,,,,,,,,0,,,85,0
495000,note_off,120,0,2,,,,,,,,,1,,,73,0
495000,note_on,0,0,1,,,,,,,,,0,,,79,94
495072,note_off,192,0,4,,,,,,,,,3,,,45,0
495072,note_off,0,0,4,,,,,,,,,3,,,57,0
495072,note_off,0,0,3,,,,,,,,,2,,,52,0
495072,note_off,192,0,3,,,,,,,,,2,,,55,0
495120,note_on,0,0,1,,,,,,,,,0,,,88,96
495120,note_on,0,0,4,,,,,,,,,3,,,57,96
495120,note_on,48,0,4,,,,,,,,,3,,,45,96
495120,note_on,0,0,3,,,,,,,,,2,,,55,96
495120,note_on,48,0,3,,,,,,,,,2,,,52,96
495120,note_on,0,0,2,,,,,,,,,1,,,76,96
495120,note_off,120,0,1,,,,,,,,,0,,,79,0
495120,note_off,120,0,2,,,,,,,,,1,,,67,0
495240,note_off,120,0,1,,,,,,,,,0,,,88,0
495240,note_on,0,0,1,,,,,,,,,0,,,85,97
495240,set_tempo,2760,1,0,,,,,,441176,,,,,,,
495240,note_off,120,0,2,,,,,,,,,1,,,76,0
495240,note_on,0,0,2,,,,,,,,,1,,,73,97
495312,note_off,0,0,4,,,,,,,,,3,,,45,0
495312,note_off,192,0,4,,,,,,,,,3,,,57,0
495312,note_off,0,0,3,,,,,,,,,2,,,52,0
495312,note_off,192,0,3,,,,,,,,,2,,,55,0
495360,note_off,120,0,1,,,,,,,,,0,,,85,0
495360,note_on,48,0,3,,,,,,,,,2,,,54,99
495360,note_on,48,0,4,,,,,,,,,3,,,38,99
495360,note_on,0,0,1,,,,,,,,,0,,,86,99
495360,note_on,0,0,3,,,,,,,,,2,,,57,99
495360,note_on,0,0,2,,,,,,,,,1,,,74,99
495360,note_off,120,0,2,,,,,,,,,1,,,73,0
495360,note_on,0,0,4,,,,,,,,,3,,,50,99
495720,note_off,360,0,3,,,,,,,,,2,,,57,0
495720,note_off,0,0,3,,,,,,,,,2,,,54,0
495720,note_off,360,0,4,,,,,,,,,3,,,50,0
495720,note_off,0,0,4,,,,,,,,,3,,,38,0
495720,note_off,360,0,1,,,,,,,,,0,,,86,0
495720,note_off,360,0,2,,,,,,,,,1,,,74,0
495840,control_change,120,0,4,,,,,,,64,0,3,,,,
495840,control_change,120,0,2,,,,,,,64,0,1,,,,
495840,set_tempo,600,1,0,,,,,,821917,,,,,,,
495840,control_change,5088,0,5,,,,,,,64,0,4,,,,
495840,control_change,120,0,3,,,,,,,64,0,2,,,,
495840,control_change,120,0,1,,,,,,,64,0,0,,,,
496080,set_tempo,240,1,0,,,,,,434782,,,,,,,
496080,note_on,240,0,4,,,,,,,,,3,,,50,87
496144,note_off,64,0,4,,,,,,,,,3,,,50,0
496160,note_on,16,0,4,,,,,,,,,3,,,50,89
496224,note_off,64,0,4,,,,,,,,,3,,,50,0
496240,note_on,16,0,4,,,,,,,,,3,,,50,92
496304,note_off,64,0,4,,,,,,,,,3,,,50,0
496320,note_on,480,0,5,,,,,,,,,4,,,26,94
496320,note_on,0,0,4,,,,,,,,,3,,,50,94
496320,note_on,16,0,4,,,,,,,,,3,,,38,94
496680,note_off,0,0,4,,,,,,,,,3,,,38,0
496680,note_off,360,0,4,,,,,,,,,3,,,50,0
496680,note_off,360,0,5,,,,,,,,,4,,,26,0
497040,note_on,360,0,4,,,,,,,,,3,,,54,94
497104,note_off,64,0,4,,,,,,,,,3,,,54,0
497120,note_on,16,0,4,,,,,,,,,3,,,54,96
497184,note_off,64,0,4,,,,,,,,,3,,,54,0
497200,note_on,16,0,4,,,,,,,,,3,,,54,97
497264,note_off,64,0,4,,,,,,,,,3,,,54,0
497280,note_on,16,0,4,,,,,,,,,3,,,42,99
497280,note_on,0,0,4,,,,,,,,,3,,,54,99
497280,note_on,600,0,5,,,,,,,,,4,,,30,99
497640,note_off,360,0,4,,,,,,,,,3,,,54,0
497640,note_off,0,0,4,,,,,,,,,3,,,42,0
497640,note_off,360,0,5,,,,,,,,,4,,,30,0
498000,note_on,360,0,4,,,,,,,,,3,,,57,99
498064,note_off,64,0,4,,,,,,,,,3,,,57,0
498080,note_on,16,0,4,,,,,,,,,3,,,57,100
498144,note_off,64,0,4,,,,,,,,,3,,,57,0
498160,note_on,16,0,4,,,,,,,,,3,,,57,102
498224,note_off,64,0,4,,,,,,,,,3,,,57,0
498240,note_on,16,0,4,,,,,,,,,3,,,45,104
498240,set_tempo,2160,1,0,,,,,,441176,,,,,,,
498240,note_on,600,0,5,,,,,,,,,4,,,33,104
498240,note_on,0,0,4,,,,,,,,,3,,,57,104
498432,note_off,0,0,4,,,,,,,,,3,,,45,0
498432,note_off,192,0,5,,,,,,,,,4,,,33,0
498432,note_off,192,0,4,,,,,,,,,3,,,57,0
498480,note_on,48,0,4,,,,,,,,,3,,,45,95
498480,note_on,0,0,4,,,,,,,,,3,,,57,95
498540,set_tempo,300,1,0,,,,,,434782,,,,,,,
498672,note_off,0,0,4,,,,,,,,,3,,,45,0
498672,note_off,192,0,4,,,,,,,,,3,,,57,0
498720,note_on,48,0,4,,,,,,,,,3,,,57,89
498720,note_on,0,0,4,,,,,,,,,3,,,45,89
498912,note_off,0,0,4,,,,,,,,,3,,,57,0
498912,note_off,192,0,4,,,,,,,,,3,,,45,0
498960,note_on,48,0,4,,,,,,,,,3,,,45,85
498960,note_on,0,0,4,,,,,,,,,3,,,57,85
499152,note_off,192,0,4,,,,,,,,,3,,,57,0
499152,note_off,0,0,4,,,,,,,,,3,,,45,0
499200,note_on,48,0,4,,,,,,,,,3,,,57,81
499200,note_on,0,0,4,,,,,,,,,3,,,45,81
499392,note_off,192,0,4,,,,,,,,,3,,,45,0
499392,note_off,0,0,4,,,,,,,,,3,,,57,0
499440,note_on,48,0,4,,,,,,,,,3,,,57,76
499440,note_on,0,0,4,,,,,,,,,3,,,45,76
499632,note_off,192,0,4,,,,,,,,,3,,,45,0
499632,note_off,0,0,4,,,,,,,,,3,,,57,0
499680,note_on,48,0,4,,,,,,,,,3,,,57,74
499680,note_on,0,0,4,,,,,,,,,3,,,45,74
499872,note_off,192,0,4,,,,,,,,,3,,,45,0
499872,note_off,0,0,4,,,,,,,,,3,,,57,0
499920,note_on,48,0,4,,,,,,,,,3,,,57,71
499920,note_on,0,0,4,,,,,,,,,3,,,45,71
500100,set_tempo,1560,1,0,,,,,,441176,,,,,,,
500112,note_off,192,0,4,,,,,,,,,3,,,45,0
500112,note_off,0,0,4,,,,,,,,,3,,,57,0
500160,note_on,48,0,4,,,,,,,,,3,,,57,69
500160,note_on,0,0,3,,,,,,,,,2,,,55,69
500160,note_on,4320,0,3,,,,,,,,,2,,,52,69
500160,set_tempo,60,1,0,,,,,,434782,,,,,,,
500160,note_on,0,0,4,,,,,,,,,3,,,45,69
500352,note_off,192,0,4,,,,,,,,,3,,,45,0
500352,note_off,0,0,4,,,,,,,,,3,,,57,0
500352,note_off,0,0,3,,,,,,,,,2,,,52,0
500352,note_off,192,0,3,,,,,,,,,2,,,55,0
500400,note_on,0,0,3,,,,,,,,,2,,,52,72
500400,note_on,48,0,4,,,,,,,,,3,,,45,72
500400,note_on,0,0,4,,,,,,,,,3,,,57,72
500400,note_on,48,0,3,,,,,,,,,2,,,55,72
500400,note_on,4560,0,1,,,,,,,,,0,,,69,72
500520,note_off,120,0,1,,,,,,,,,0,,,69,0
500520,note_on,0,0,1,,,,,,,,,0,,,73,73
500592,note_off,0,0,3,,,,,,,,,2,,,55,0
500592,note_off,192,0,4,,,,,,,,,3,,,57,0
500592,note_off,0,0,4,,,,,,,,,3,,,45,0
500592,note_off,192,0,3,,,,,,,,,2,,,52,0
500640,note_on,48,0,4,,,,,,,,,3,,,57,75
500640,note_on,0,0,4,,,,,,,,,3,,,45,75
500640,note_on,0,0,3,,,,,,,,,2,,,52,75
500640,note_on,48,0,3,,,,,,,,,2,,,55,75
500640,note_on,0,0,1,,,,,,,,,0,,,76,75
500640,note_off,120,0,1,,,,,,,,,0,,,73,0
500760,note_on,0,0,1,,,,,,,,,0,,,73,76
500760,note_off,120,0,1,,,,,,,,,0,,,76,0
500832,note_off,192,0,4,,,,,,,,,3,,,45,0
500832,note_off,0,0,4,,,,,,,,,3,,,57,0
500832,note_off,0,0,3,,,,,,,,,2,,,55,0
500832,note_off,192,0,3,,,,,,,,,2,,,52,0
500880,note_on,0,0,2,,,,,,,,,1,,,61,77
500880,note_on,5040,0,2,,,,,,,,,1,,,67,77
500880,note_off,120,0,1,,,,,,,,,0,,,73,0
500880,note_on,48,0,3,,,,,,,,,2,,,55,77
500880,note_on,0,0,3,,,,,,,,,2,,,52,77
500880,note_on,0,0,4,,,,,,,,,3,,,45,77
500880,note_on,48,0,4,,,,,,,,,3,,,57,77
500880,note_on,0,0,2,,,,,,,,,1,,,64,77
500880,note_on,0,0,1,,,,,,,,,0,,,81,77
501072,note_off,192,0,2,,,,,,,,,1,,,61,0
501072,note_off,0,0,2,,,,,,,,,1,,,64,0
501072,note_off,0,0,2,,,,,,,,,1,,,67,0
501072,note_off,192,0,3,,,,,,,,,2,,,52,0
501072,note_off,0,0,3,,,,,,,,,2,,,55,0
501072,note_off,192,0,1,,,,,,,,,0,,,81,0
501072,note_off,0,0,4,,,,,,,,,3,,,57,0
501072,note_off,192,0,4,,,,,,,,,3,,,45,0
501120,note_on,0,0,4,,,,,,,,,3,,,45,79
501120,note_on,48,0,4,,,,,,,,,3,,,57,79
501120,note_on,48,0,3,,,,,,,,,2,,,50,79
501120,note_on,0,0,3,,,,,,,,,2,,,54,79
501312,note_off,0,0,4,,,,,,,,,3,,,57,0
501312,note_off,192,0,4,,,,,,,,,3,,,45,0
501312,note_off,0,0,3,,,,,,,,,2,,,50,0
501312,note_off,192,0,3,,,,,,,,,2,,,54,0
501360,note_on,48,0,3,,,,,,,,,2,,,50,82
501360,note_on,288,0,1,,,,,,,,,0,,,69,82
501360,note_on,0,0,4,,,,,,,,,3,,,45,82
501360,note_on,48,0,4,,,,,,,,,3,,,57,82
501360,note_on,0,0,3,,,,,,,,,2,,,54,82
501480,note_off,120,0,1,,,,,,,,,0,,,69,0
501480,note_on,0,0,1,,,,,,,,,0,,,74,83
501552,note_off,192,0,4,,,,,,,,,3,,,45,0
501552,note_off,192,0,3,,,,,,,,,2,,,54,0
501552,note_off,0,0,4,,,,,,,,,3,,,57,0
501552,note_off,0,0,3,,,,,,,,,2,,,50,0
501600,note_on,48,0,3,,,,,,,,,2,,,50,84
501600,note_on,0,0,1,,,,,,,,,0,,,78,84
501600,note_off,120,0,1,,,,,,,,,0,,,74,0
501600,note_on,48,0,4,,,,,,,,,3,,,57,84
501600,note_on,0,0,4,,,,,,,,,3,,,45,84
501600,note_on,0,0,3,,,,,,,,,2,,,54,84
501720,note_off,120,0,1,,,,,,,,,0,,,78,0
501720,note_on,0,0,1,,,,,,,,,0,,,74,85
501792,note_off,192,0,3,,,,,,,,,2,,,54,0
501792,note_off,0,0,3,,,,,,,,,2,,,50,0
501792,note_off,192,0,4,,,,,,,,,3,,,45,0
501792,note_off,0,0,4,,,,,,,,,3,,,57,0
501840,note_on,0,0,2,,,,,,,,,1,,,62,86
501840,note_on,48,0,3,,,,,,,,,2,,,54,86
501840,note_on,0,0,3,,,,,,,,,2,,,50,86
501840,note_on,48,0,4,,,,,,,,,3,,,57,86
501840,note_on,0,0,4,,,,,,,,,3,,,45,86
501840,note_on,0,0,1,,,,,,,,,0,,,81,86
501840,note_off,120,0,1,,,,,,,,,0,,,74,0
501840,note_on,768,0,2,,,,,,,,,1,,,66,86
502032,note_off,0,0,2,,,,,,,,,1,,,66,0
502032,note_off,192,0,2,,,,,,,,,1,,,62,0
502032,note_off,192,0,1,,,,,,,,,0,,,81,0
502032,note_off,192,0,3,,,,,,,,,2,,,50,0
502032,note_off,0,0,3,,,,,,,,,2,,,54,0
502032,note_off,0,0,4,,,,,,,,,3,,,57,0
502032,note_off,192,0,4,,,,,,,,,3,,,45,0
502080,note_on,48,0,4,,,,,,,,,3,,,45,89
502080,note_on,0,0,4,,,,,,,,,3,,,57,89
502080,note_on,0,0,3,,,,,,,,,2,,,52,89
502080,note_on,48,0,3,,,,,,,,,2,,,55,89
502272,note_off,192,0,3,,,,,,,,,2,,,52,0
502272,note_off,192,0,4,,,,,,,,,3,,,57,0
502272,note_off,0,0,3,,,,,,,,,2,,,55,0
502272,note_off,0,0,4,,,,,,,,,3,,,45,0
502320,note_on,48,0,3,,,,,,,,,2,,,55,91
502320,note_on,0,0,3,,,,,,,,,2,,,52,91
502320,note_on,288,0,1,,,,,,,,,0,,,76,91
502320,note_on,0,0,4,,,,,,,,,3,,,57,91
502320,note_on,48,0,4,,,,,,,,,3,,,45,91
502320,note_on,288,0,2,,,,,,,,,1,,,64,91
502440,note_on,0,0,1,,,,,,,,,0,,,79,92
502440,note_off,120,0,2,,,,,,,,,1,,,64,0
502440,note_on,0,0,2,,,,,,,,,1,,,67,92
502440,note_off,120,0,1,,,,,,,,,0,,,76,0
502512,note_off,192,0,3,,,,,,,,,2,,,52,0
502512,note_off,0,0,3,,,,,,,,,2,,,55,0
502512,note_off,192,0,4,,,,,,,,,3,,,57,0
502512,note_off,0,0,4,,,,,,,,,3,,,45,0
502560,note_on,48,0,4,,,,,,,,,3,,,45,93
502560,note_on,0,0,3,,,,,,,,,2,,,52,93
502560,note_on,48,0,3,,,,,,,,,2,,,55,93
502560,note_off,120,0,2,,,,,,,,,1,,,67,0
502560,note_on,0,0,2,,,,,,,,,1,,,73,93
502560,note_on,0,0,4,,,,,,,,,3,,,57,93
502560,note_on,0,0,1,,,,,,,,,0,,,85,93
502560,note_off,120,0,1,,,,,,,,,0,,,79,0
502680,note_off,120,0,2,,,,,,,,,1,,,73,0
502680,note_on,0,0,2,,,,,,,,,1,,,67,94
502680,note_off,120,0,1,,,,,,,,,0,,,85,0
502680,note_on,0,0,1,,,,,,,,,0,,,79,94
502752,note_off,0,0,3,,,,,,,,,2,,,55,0
502752,note_off,0,0,4,,,,,,,,,3,,,45,0
502752,note_off,192,0,3,,,,,,,,,2,,,52,0
502752,note_off,192,0,4,,,,,,,,,3,,,57,0
502800,note_off,120,0,2,,,,,,,,,1,,,67,0
502800,note_on,0,0,3,,,,,,,,,2,,,52,96
502800,note_on,48,0,3,,,,,,,,,2,,,55,96
502800,note_on,0,0,2,,,,,,,,,1,,,76,96
502800,note_on,0,0,1,,,,,,,,,0,,,88,96
502800,note_off,120,0,1,,,,,,,,,0,,,79,0
502800,note_on,0,0,4,,,,,,,,,3,,,45,96
502800,note_on,48,0,4,,,,,,,,,3,,,57,96
502920,note_on,0,0,2,,,,,,,,,1,,,73,97
502920,note_off,120,0,2,,,,,,,,,1,,,76,0
502920,note_off,120,0,1,,,,,,,,,0,,,88,0
502920,set_tempo,2760,1,0,,,,,,441176,,,,,,,
502920,note_on,0,0,1,,,,,,,,,0,,,85,97
502992,note_off,0,0,3,,,,,,,,,2,,,55,0
502992,note_off,0,0,4,,,,,,,,,3,,,57,0
502992,note_off,192,0,3,,,,,,,,,2,,,52,0
502992,note_off,192,0,4,,,,,,,,,3,,,45,0
503040,note_on,48,0,3,,,,,,,,,2,,,57,99
503040,note_on,0,0,2,,,,,,,,,1,,,74,99
503040,note_off,120,0,1,,,,,,,,,0,,,85,0
503040,note_on,48,0,4,,,,,,,,,3,,,50,99
503040,note_on,0,0,3,,,,,,,,,2,,,54,99
503040,note_off,120,0,2,,,,,,,,,1,,,73,0
503040,note_on,0,0,1,,,,,,,,,0,,,86,99
503040,note_on,0,0,4,,,,,,,,,3,,,38,99
503400,note_off,0,0,3,,,,,,,,,2,,,57,0
503400,note_off,360,0,1,,,,,,,,,0,,,86,0
503400,note_off,360,0,2,,,,,,,,,1,,,74,0
503400,note_off,360,0,4,,,,,,,,,3,,,38,0
503400,note_off,0,0,4,,,,,,,,,3,,,50,0
503400,note_off,360,0,3,,,,,,,,,2,,,54,0
503520,control_change,120,0,1,,,,,,,64,0,0,,,,
503520,control_change,5088,0,5,,,,,,,64,0,4,,,,
503520,control_change,120,0,3,,,,,,,64,0,2,,,,
503520,control_change,120,0,2,,,,,,,64,0,1,,,,
503520,control_change,120,0,4,,,,,,,64,0,3,,,,
503520,set_tempo,600,1,0,,,,,,600000,,,,,,,
503752,set_tempo,232,1,0,,,,,,441176,,,,,,,
503760,note_on,240,0,4,,,,,,,,,3,,,54,83
503824,note_off,64,0,4,,,,,,,,,3,,,54,0
503840,note_on,16,0,4,,,,,,,,,3,,,54,85
503904,note_off,64,0,4,,,,,,,,,3,,,54,0
503920,note_on,16,0,4,,,,,,,,,3,,,54,87
503984,note_off,64,0,4,,,,,,,,,3,,,54,0
504000,note_on,480,0,5,,,,,,,,,4,,,30,89
504000,note_on,16,0,4,,,,,,,,,3,,,42,89
504000,note_on,0,0,4,,,,,,,,,3,,,54,89
504360,note_off,360,0,5,,,,,,,,,4,,,30,0
504360,note_off,360,0,4,,,,,,,,,3,,,54,0
504360,note_off,0,0,4,,,,,,,,,3,,,42,0
504720,note_on,360,0,4,,,,,,,,,3,,,57,88
504784,note_off,64,0,4,,,,,,,,,3,,,57,0
504800,note_on,16,0,4,,,,,,,,,3,,,57,90
504864,note_off,64,0,4,,,,,,,,,3,,,57,0
504880,note_on,16,0,4,,,,,,,,,3,,,57,92
504944,note_off,64,0,4,,,,,,,,,3,,,57,0
504960,note_on,16,0,4,,,,,,,,,3,,,45,94
504960,note_on,0,0,4,,,,,,,,,3,,,57,94
504960,note_on,600,0,5,,,,,,,,,4,,,33,94
505320,note_off,360,0,4,,,,,,,,,3,,,57,0
505320,note_off,0,0,4,,,,,,,,,3,,,45,0
505320,note_off,360,0,5,,,,,,,,,4,,,33,0
505680,note_on,360,0,4,,,,,,,,,3,,,61,95
505744,note_off,64,0,4,,,,,,,,,3,,,61,0
505760,note_on,16,0,4,,,,,,,,,3,,,61,97
505824,note_off,64,0,4,,,,,,,,,3,,,61,0
505840,note_on,16,0,4,,,,,,,,,3,,,61,99
505904,note_off,64,0,4,,,,,,,,,3,,,61,0
505920,set_tempo,2168,1,0,,,,,,441176,,,,,,,
505920,note_on,16,0,4,,,,,,,,,3,,,49,101
505920,note_on,600,0,5,,,,,,,,,4,,,37,101
505920,note_on,0,0,4,,,,,,,,,3,,,61,101
506112,note_off,192,0,4,,,,,,,,,3,,,61,0
506112,note_off,192,0,5,,,,,,,,,4,,,37,0
506112,note_off,0,0,4,,,,,,,,,3,,,49,0
506160,note_on,48,0,4,,,,,,,,,3,,,61,73
506160,note_on,0,0,4,,,,,,,,,3,,,49,73
506220,set_tempo,300,1,0,,,,,,434782,,,,,,,
506352,note_off,192,0,4,,,,,,,,,3,,,49,0
506352,note_off,0,0,4,,,,,,,,,3,,,61,0
506400,note_on,0,0,4,,,,,,,,,3,,,49,64
506400,note_on,48,0,4,,,,,,,,,3,,,61,64
506592,note_off,0,0,4,,,,,,,,,3,,,61,0
506592,note_off,192,0,4,,,,,,,,,3,,,49,0
506640,note_on,0,0,4,,,,,,,,,3,,,61,55
506640,note_on,48,0,4,,,,,,,,,3,,,49,55
506832,note_off,192,0,4,,,,,,,,,3,,,61,0
506832,note_off,0,0,4,,,,,,,,,3,,,49,0
506880,note_on,0,0,4,,,,,,,,,3,,,61,51
506880,note_on,48,0,4,,,,,,,,,3,,,49,51
507072,note_off,192,0,4,,,,,,,,,3,,,61,0
507072,note_off,0,0,4,,,,,,,,,3,,,49,0
507120,note_on,0,0,4,,,,,,,,,3,,,61,48
507120,note_on,48,0,4,,,,,,,,,3,,,49,48
507312,note_off,192,0,4,,,,,,,,,3,,,61,0
507312,note_off,0,0,4,,,,,,,,,3,,,49,0
507360,note_on,48,0,4,,,,,,,,,3,,,61,46
507360,note_on,0,0,4,,,,,,,,,3,,,49,46
507552,note_off,192,0,4,,,,,,,,,3,,,49,0
507552,note_off,0,0,4,,,,,,,,,3,,,61,0
507600,note_on,0,0,4,,,,,,,,,3,,,61,44
507600,note_on,48,0,4,,,,,,,,,3,,,49,44
507780,set_tempo,1560,1,0,,,,,,441176,,,,,,,
507792,note_off,0,0,4,,,,,,,,,3,,,49,0
507792,note_off,192,0,4,,,,,,,,,3,,,61,0
507840,note_on,4320,0,3,,,,,,,,,2,,,59,44
507840,note_on,0,0,4,,,,,,,,,3,,,49,44
507840,note_on,48,0,4,,,,,,,,,3,,,61,44
507840,note_on,0,0,3,,,,,,,,,2,,,56,44
507937,set_tempo,157,1,0,,,,,,434782,,,,,,,
508032,note_off,0,0,3,,,,,,,,,2,,,59,0
508032,note_off,192,0,3,,,,,,,,,2,,,56,0
508032,note_off,0,0,4,,,,,,,,,3,,,61,0
508032,note_off,192,0,4,,,,,,,,,3,,,49,0
508080,note_on,0,0,3,,,,,,,,,2,,,56,45
508080,note_on,0,0,4,,,,,,,,,3,,,49,45
508080,note_on,48,0,4,,,,,,,,,3,,,61,45
508080,note_on,4560,0,1,,,,,,,,,0,,,73,45
508080,note_on,48,0,3,,,,,,,,,2,,,59,45
508200,note_on,0,0,1,,,,,,,,,0,,,77,45
508200,note_off,120,0,1,,,,,,,,,0,,,73,0
508272,note_off,192,0,3,,,,,,,,,2,,,56,0
508272,note_off,0,0,4,,,,,,,,,3,,,61,0
508272,note_off,192,0,4,,,,,,,,,3,,,49,0
508272,note_off,0,0,3,,,,,,,,,2,,,59,0
508320,note_on,0,0,4,,,,,,,,,3,,,61,46
508320,note_on,48,0,4,,,,,,,,,3,,,49,46
508320,note_off,120,0,1,,,,,,,,,0,,,77,0
508320,note_on,48,0,3,,,,,,,,,2,,,59,46
508320,note_on,0,0,3,,,,,,,,,2,,,56,46
508320,note_on,0,0,1,,,,,,,,,0,,,80,46
508440,note_on,0,0,1,,,,,,,,,0,,,77,46
508440,note_off,120,0,1,,,,,,,,,0,,,80,0
508512,note_off,192,0,3,,,,,,,,,2,,,56,0
508512,note_off,192,0,4,,,,,,,,,3,,,61,0
508512,note_off,0,0,4,,,,,,,,,3,,,49,0
508512,note_off,0,0,3,,,,,,,,,2,,,59,0
508560,note_off,120,0,1,,,,,,,,,0,,,77,0
508560,note_on,48,0,4,,,,,,,,,3,,,61,47
508560,note_on,0,0,4,,,,,,,,,3,,,49,47
508560,note_on,5040,0,2,,,,,,,,,1,,,73,47
508560,note_on,0,0,1,,,,,,,,,0,,,85,47
508560,note_on,48,0,3,,,,,,,,,2,,,59,47
508560,note_on,0,0,3,,,,,,,,,2,,,56,47
508752,note_off,192,0,1,,,,,,,,,0,,,85,0
508752,note_off,192,0,4,,,,,,,,,3,,,49,0
508752,note_off,0,0,4,,,,,,,,,3,,,61,0
508752,note_off,192,0,2,,,,,,,,,1,,,73,0
508752,note_off,0,0,3,,,,,,,,,2,,,59,0
508752,note_off,192,0,3,,,,,,,,,2,,,56,0
508800,note_on,0,0,3,,,,,,,,,2,,,54,48
508800,note_on,0,0,4,,,,,,,,,3,,,49,48
508800,note_on,48,0,4,,,,,,,,,3,,,61,48
508800,note_on,48,0,3,,,,,,,,,2,,,57,48
508992,note_off,192,0,3,,,,,,,,,2,,,54,0
508992,note_off,0,0,3,,,,,,,,,2,,,57,0
508992,note_off,0,0,4,,,,,,,,,3,,,61,0
508992,note_off,192,0,4,,,,,,,,,3,,,49,0
509040,note_on,48,0,4,,,,,,,,,3,,,61,49
509040,note_on,288,0,1,,,,,,,,,0,,,73,49
509040,note_on,0,0,4,,,,,,,,,3,,,49,49
509040,note_on,48,0,3,,,,,,,,,2,,,57,49
509040,note_on,0,0,3,,,,,,,,,2,,,54,49
509160,note_off,120,0,1,,,,,,,,,0,,,73,0
509160,note_on,0,0,1,,,,,,,,,0,,,78,49
509232,note_off,0,0,4,,,,,,,,,3,,,61,0
509232,note_off,192,0,4,,,,,,,,,3,,,49,0
509232,note_off,192,0,3,,,,,,,,,2,,,54,0
509232,note_off,0,0,3,,,,,,,,,2,,,57,0
509280,note_on,48,0,4,,,,,,,,,3,,,49,50
509280,note_on,0,0,4,,,,,,,,,3,,,61,50
509280,note_on,48,0,3,,,,,,,,,2,,,57,50
509280,note_on,0,0,3,,,,,,,,,2,,,54,50
509280,note_off,120,0,1,,,,,,,,,0,,,78,0
509280,note_on,0,0,1,,,,,,,,,0,,,81,50
509400,note_on,0,0,1,,,,,,,,,0,,,78,50
509400,note_off,120,0,1,,,,,,,,,0,,,81,0
509472,note_off,192,0,3,,,,,,,,,2,,,54,0
509472,note_off,0,0,3,,,,,,,,,2,,,57,0
509472,note_off,0,0,4,,,,,,,,,3,,,49,0
509472,note_off,192,0,4,,,,,,,,,3,,,61,0
509520,note_on,0,0,1,,,,,,,,,0,,,85,51
509520,note_off,120,0,1,,,,,,,,,0,,,78,0
509520,note_on,48,0,4,,,,,,,,,3,,,61,51
509520,note_on,768,0,2,,,,,,,,,1,,,73,51
509520,note_on,48,0,3,,,,,,,,,2,,,57,51
509520,note_on,0,0,3,,,,,,,,,2,,,54,51
509520,note_on,0,0,4,,,,,,,,,3,,,49,51
509712,note_off,192,0,4,,,,,,,,,3,,,49,0
509712,note_off,192,0,2,,,,,,,,,1,,,73,0
509712,note_off,192,0,1,,,,,,,,,0,,,85,0
509712,note_off,192,0,3,,,,,,,,,2,,,54,0
509712,note_off,0,0,3,,,,,,,,,2,,,57,0
509712,note_off,0,0,4,,,,,,,,,3,,,61,0
509760,note_on,0,0,3,,,,,,,,,2,,,56,52
509760,note_on,48,0,3,,,,,,,,,2,,,59,52
509760,note_on,0,0,4,,,,,,,,,3,,,61,52
509760,note_on,48,0,4,,,,,,,,,3,,,49,52
509952,note_off,0,0,4,,,,,,,,,3,,,49,0
509952,note_off,192,0,4,,,,,,,,,3,,,61,0
509952,note_off,0,0,3,,,,,,,,,2,,,59,0
509952,note_off,192,0,3,,,,,,,,,2,,,56,0
510000,note_on,0,0,4,,,,,,,,,3,,,49,53
510000,note_on,48,0,4,,,,,,,,,3,,,61,53
510000,note_on,288,0,1,,,,,,,,,0,,,73,53
510000,note_on,0,0,3,,,,,,,,,2,,,56,53
510000,note_on,48,0,3,,,,,,,,,2,,,59,53
510120,note_off,120,0,1,,,,,,,,,0,,,73,0
510120,note_on,0,0,1,,,,,,,,,0,,,77,53
510192,note_off,0,0,3,,,,,,,,,2,,,59,0
510192,note_off,0,0,4,,,,,,,,,3,,,61,0
510192,note_off,192,0,4,,,,,,,,,3,,,49,0
510192,note_off,192,0,3,,,,,,,,,2,,,56,0
510240,note_off,120,0,1,,,,,,,,,0,,,77,0
510240,note_on,0,0,1,,,,,,,,,0,,,80,53
510240,note_on,48,0,3,,,,,,,,,2,,,59,53
510240,note_on,0,0,3,,,,,,,,,2,,,56,53
510240,note_on,48,0,4,,,,,,,,,3,,,49,53
510240,note_on,0,0,4,,,,,,,,,3,,,61,53
510360,note_off,120,0,1,,,,,,,,,0,,,80,0
510360,note_on,0,0,1,,,,,,,,,0,,,77,54
510432,note_off,192,0,4,,,,,,,,,3,,,61,0
510432,note_off,0,0,4,,,,,,,,,3,,,49,0
510432,note_off,0,0,3,,,,,,,,,2,,,59,0
510432,note_off,192,0,3,,,,,,,,,2,,,56,0
510480,note_on,0,0,4,,,,,,,,,3,,,49,54
510480,note_off,120,0,1,,,,,,,,,0,,,77,0
510480,note_on,0,0,1,,,,,,,,,0,,,85,54
510480,note_on,0,0,3,,,,,,,,,2,,,59,54
510480,note_on,48,0,4,,,,,,,,,3,,,61,54
510480,note_on,768,0,2,,,,,,,,,1,,,73,54
510480,note_on,48,0,3,,,,,,,,,2,,,56,54
510672,note_off,0,0,3,,,,,,,,,2,,,56,0
510672,note_off,192,0,3,,,,,,,,,2,,,59,0
510672,note_off,192,0,4,,,,,,,,,3,,,49,0
510672,note_off,192,0,2,,,,,,,,,1,,,73,0
510672,note_off,192,0,1,,,,,,,,,0,,,85,0
510672,note_off,0,0,4,,,,,,,,,3,,,61,0
510720,note_on,48,0,4,,,,,,,,,3,,,54,55
510720,note_on,0,0,4,,,,,,,,,3,,,42,55
510720,note_on,48,0,3,,,,,,,,,2,,,61,55
510720,note_on,0,0,3,,,,,,,,,2,,,57,55
510720,note_on,0,0,3,,,,,,,,,2,,,54,55
510912,note_off,192,0,4,,,,,,,,,3,,,42,0
510912,note_off,0,0,4,,,,,,,,,3,,,54,0
510912,note_off,192,0,3,,,,,,,,,2,,,54,0
510912,note_off,0,0,3,,,,,,,,,2,,,57,0
510912,note_off,0,0,3,,,,,,,,,2,,,61,0
510960,note_on,48,0,3,,,,,,,,,2,,,59,56
510960,note_on,288,0,1,,,,,,,,,0,,,81,56
510960,note_on,0,0,3,,,,,,,,,2,,,57,56
510960,note_on,0,0,4,,,,,,,,,3,,,54,56
510960,note_on,288,0,2,,,,,,,,,1,,,69,56
510960,note_on,48,0,4,,,,,,,,,3,,,42,56
511080,note_off,120,0,2,,,,,,,,,1,,,69,0
511080,note_on,0,0,2,,,,,,,,,1,,,68,58
511080,note_off,120,0,1,,,,,,,,,0,,,81,0
511080,note_on,0,0,1,,,,,,,,,0,,,80,58
511152,note_off,0,0,4,,,,,,,,,3,,,42,0
511152,note_off,192,0,4,,,,,,,,,3,,,54,0
511152,note_off,192,0,3,,,,,,,,,2,,,57,0
511152,note_off,0,0,3,,,,,,,,,2,,,59,0
511200,note_on,48,0,4,,,,,,,,,3,,,42,60
511200,note_on,0,0,4,,,,,,,,,3,,,54,60
511200,note_off,120,0,1,,,,,,,,,0,,,80,0
511200,note_on,48,0,3,,,,,,,,,2,,,57,60
511200,note_on,0,0,3,,,,,,,,,2,,,59,60
511200,note_off,120,0,2,,,,,,,,,1,,,68,0
511200,note_on,0,0,2,,,,,,,,,1,,,69,60
511200,note_on,0,0,1,,,,,,,,,0,,,81,60
511320,note_off,120,0,1,,,,,,,,,0,,,81,0
511320,note_on,0,0,1,,,,,,,,,0,,,83,62
511320,note_off,120,0,2,,,,,,,,,1,,,69,0
511320,note_on,0,0,2,,,,,,,,,1,,,71,62
511392,note_off,192,0,3,,,,,,,,,2,,,59,0
511392,note_off,0,0,3,,,,,,,,,2,,,57,0
511392,note_off,0,0,4,,,,,,,,,3,,,42,0
511392,note_off,192,0,4,,,,,,,,,3,,,54,0
511440,note_on,0,0,4,,,,,,,,,3,,,54,66
511440,note_on,48,0,4,,,,,,,,,3,,,42,66
511440,note_off,120,0,1,,,,,,,,,0,,,83,0
511440,note_off,120,0,2,,,,,,,,,1,,,71,0
511440,note_on,0,0,1,,,,,,,,,0,,,85,66
511440,note_on,0,0,3,,,,,,,,,2,,,57,66
511440,note_on,48,0,3,,,,,,,,,2,,,59,66
511440,note_on,0,0,2,,,,,,,,,1,,,73,66
511560,note_off,120,0,2,,,,,,,,,1,,,73,0
511560,note_on,0,0,2,,,,,,,,,1,,,75,70
511560,note_off,120,0,1,,,,,,,,,0,,,85,0
511560,note_on,0,0,1,,,,,,,,,0,,,87,70
511632,note_off,0,0,4,,,,,,,,,3,,,42,0
511632,note_off,0,0,3,,,,,,,,,2,,,59,0
511632,note_off,192,0,3,,,,,,,,,2,,,57,0
511632,note_off,192,0,4,,,,,,,,,3,,,54,0
511635,set_tempo,3698,1,0,,,,,,441176,,,,,,,
511680,note_off,120,0,1,,,,,,,,,0,,,87,0
511680,note_on,0,0,1,,,,,,,,,0,,,88,77
511680,note_on,0,0,4,,,,,,,,,3,,,52,77
511680,note_on,48,0,4,,,,,,,,,3,,,40,77
511680,note_on,0,0,2,,,,,,,,,1,,,76,77
511680,note_off,120,0,2,,,,,,,,,1,,,75,0
511680,note_on,48,0,3,,,,,,,,,2,,,56,77
511680,note_on,0,0,3,,,,,,,,,2,,,59,77
511792,set_tempo,157,1,0,,,,,,434782,,,,,,,
511872,note_off,192,0,2,,,,,,,,,1,,,76,0
511872,note_off,192,0,3,,,,,,,,,2,,,59,0
511872,note_off,0,0,3,,,,,,,,,2,,,56,0
511872,note_off,0,0,4,,,,,,,,,3,,,40,0
511872,note_off,192,0,4,,,,,,,,,3,,,52,0
511872,note_off,192,0,1,,,,,,,,,0,,,88,0
511920,note_on,48,0,4,,,,,,,,,3,,,40,51
511920,note_on,0,0,3,,,,,,,,,2,,,59,51
511920,note_on,0,0,4,,,,,,,,,3,,,52,51
511920,note_on,0,0,3,,,,,,,,,2,,,62,51
511920,note_on,48,0,3,,,,,,,,,2,,,56,51
511920,note_on,48,0,1,,,,,,,,,0,,,76,51
512040,note_off,120,0,1,,,,,,,,,0,,,76,0
512040,note_on,0,0,1,,,,,,,,,0,,,80,51
512112,note_off,192,0,4,,,,,,,,,3,,,52,0
512112,note_off,0,0,4,,,,,,,,,3,,,40,0
512112,note_off,192,0,3,,,,,,,,,2,,,59,0
512112,note_off,0,0,3,,,,,,,,,2,,,62,0
512112,note_off,0,0,3,,,,,,,,,2,,,56,0
512160,note_on,0,0,1,,,,,,,,,0,,,83,52
512160,note_off,120,0,1,,,,,,,,,0,,,80,0
512160,note_on,48,0,3,,,,,,,,,2,,,62,52
512160,note_on,48,0,4,,,,,,,,,3,,,40,52
512160,note_on,0,0,3,,,,,,,,,2,,,56,52
512160,note_on,0,0,3,,,,,,,,,2,,,59,52
512160,note_on,0,0,4,,,,,,,,,3,,,52,52
512280,note_on,0,0,1,,,,,,,,,0,,,80,52
512280,note_off,120,0,1,,,,,,,,,0,,,83,0
512352,note_off,0,0,3,,,,,,,,,2,,,56,0
512352,note_off,192,0,3,,,,,,,,,2,,,59,0
512352,note_off,0,0,4,,,,,,,,,3,,,40,0
512352,note_off,192,0,4,,,,,,,,,3,,,52,0
512352,note_off,0,0,3,,,,,,,,,2,,,62,0
512400,note_on,48,0,3,,,,,,,,,2,,,56,53
512400,note_on,0,0,3,,,,,,,,,2,,,59,53
512400,note_on,0,0,3,,,,,,,,,2,,,62,53
512400,note_on,528,0,2,,,,,,,,,1,,,74,53
512400,note_off,120,0,1,,,,,,,,,0,,,80,0
512400,note_on,0,0,1,,,,,,,,,0,,,88,53
512400,note_on,0,0,2,,,,,,,,,1,,,68,53
512400,note_on,48,0,4,,,,,,,,,3,,,40,53
512400,note_on,0,0,4,,,,,,,,,3,,,52,53
512592,note_off,192,0,3,,,,,,,,,2,,,62,0
512592,note_off,0,0,3,,,,,,,,,2,,,59,0
512592,note_off,0,0,3,,,,,,,,,2,,,56,0
512592,note_off,192,0,2,,,,,,,,,1,,,68,0
512592,note_off,0,0,4,,,,,,,,,3,,,40,0
512592,note_off,192,0,4,,,,,,,,,3,,,52,0
512592,note_off,0,0,2,,,,,,,,,1,,,74,0
512592,note_off,192,0,1,,,,,,,,,0,,,88,0
512640,note_on,48,0,3,,,,,,,,,2,,,61,54
512640,note_on,0,0,4,,,,,,,,,3,,,52,54
512640,note_on,48,0,4,,,,,,,,,3,,,40,54
512640,note_on,0,0,3,,,,,,,,,2,,,57,54
512832,note_off,0,0,3,,,,,,,,,2,,,61,0
512832,note_off,192,0,3,,,,,,,,,2,,,57,0
512832,note_off,192,0,4,,,,,,,,,3,,,52,0
512832,note_off,0,0,4,,,,,,,,,3,,,40,0
512880,note_on,0,0,3,,,,,,,,,2,,,57,56
512880,note_on,48,0,3,,,,,,,,,2,,,61,56
512880,note_on,288,0,1,,,,,,,,,0,,,76,56
512880,note_on,0,0,4,,,,,,,,,3,,,40,56
512880,note_on,48,0,4,,,,,,,,,3,,,52,56
513000,note_on,0,0,1,,,,,,,,,0,,,81,56
513000,note_off,120,0,1,,,,,,,,,0,,,76,0
513072,note_off,0,0,4,,,,,,,,,3,,,52,0
513072,note_off,192,0,4,,,,,,,,,3,,,40,0
513072,note_off,192,0,3,,,,,,,,,2,,,57,0
513072,note_off,0,0,3,,,,,,,,,2,,,61,0
513120,note_on,48,0,4,,,,,,,,,3,,,52,57
513120,note_on,0,0,3,,,,,,,,,2,,,57,57
513120,note_on,48,0,3,,,,,,,,,2,,,61,57
513120,note_on,0,0,1,,,,,,,,,0,,,85,57
513120,note_off,120,0,1,,,,,,,,,0,,,81,0
513120,note_on,0,0,4,,,,,,,,,3,,,40,57
513240,note_on,0,0,1,,,,,,,,,0,,,81,58
513240,note_off,120,0,1,,,,,,,,,0,,,85,0
513312,note_off,0,0,4,,,,,,,,,3,,,52,0
513312,note_off,192,0,4,,,,,,,,,3,,,40,0
513312,note_off,192,0,3,,,,,,,,,2,,,57,0
513312,note_off,0,0,3,,,,,,,,,2,,,61,0
513360,note_on,768,0,2,,,,,,,,,1,,,69,58
513360,note_on,48,0,3,,,,,,,,,2,,,61,58
513360,note_on,0,0,4,,,,,,,,,3,,,40,58
513360,note_on,0,0,2,,,,,,,,,1,,,73,58
513360,note_on,0,0,3,,,,,,,,,2,,,57,58
513360,note_on,48,0,4,,,,,,,,,3,,,52,58
513360,note_on,0,0,1,,,,,,,,,0,,,88,58
513360,note_off,120,0,1,,,,,,,,,0,,,81,0
513552,note_off,0,0,2,,,,,,,,,1,,,69,0
513552,note_off,192,0,4,,,,,,,,,3,,,40,0
513552,note_off,0,0,4,,,,,,,,,3,,,52,0
513552,note_off,192,0,3,,,,,,,,,2,,,57,0
513552,note_off,0,0,3,,,,,,,,,2,,,61,0
513552,note_off,192,0,1,,,,,,,,,0,,,88,0
513552,note_off,192,0,2,,,,,,,,,1,,,73,0
513600,note_on,48,0,4,,,,,,,,,3,,,52,61
513600,note_on,0,0,4,,,,,,,,,3,,,40,61
513600,note_on,0,0,3,,,,,,,,,2,,,62,61
513600,note_on,48,0,3,,,,,,,,,2,,,56,61
513792,note_off,192,0,4,,,,,,,,,3,,,40,0
513792,note_off,192,0,3,,,,,,,,,2,,,62,0
513792,note_off,0,0,4,,,,,,,,,3,,,52,0
513792,note_off,0,0,3,,,,,,,,,2,,,56,0
513840,note_on,48,0,4,,,,,,,,,3,,,40,64
513840,note_on,0,0,4,,,,,,,,,3,,,52,64
513840,note_on,288,0,1,,,,,,,,,0,,,80,64
513840,note_on,0,0,2,,,,,,,,,1,,,68,67
513840,note_on,0,0,3,,,,,,,,,2,,,56,64
513840,note_on,288,0,2,,,,,,,,,1,,,74,67
513840,note_on,0,0,3,,,,,,,,,2,,,59,64
513840,note_on,48,0,3,,,,,,,,,2,,,50,64
513960,note_on,0,0,1,,,,,,,,,0,,,86,65
513960,note_off,120,0,1,,,,,,,,,0,,,80,0
514032,note_off,192,0,4,,,,,,,,,3,,,52,0
514032,note_off,192,0,3,,,,,,,,,2,,,56,0
514032,note_off,192,0,2,,,,,,,,,1,,,68,0
514032,note_off,0,0,2,,,,,,,,,1,,,74,0
514032,note_off,0,0,3,,,,,,,,,2,,,59,0
514032,note_off,0,0,3,,,,,,,,,2,,,50,0
514032,note_off,0,0,4,,,,,,,,,3,,,40,0
514080,note_off,120,0,1,,,,,,,,,0,,,86,0
514080,note_on,0,0,3,,,,,,,,,2,,,56,67
514080,note_on,0,0,4,,,,,,,,,3,,,52,67
514080,note_on,0,0,3,,,,,,,,,2,,,59,67
514080,note_on,48,0,3,,,,,,,,,2,,,50,67
514080,note_on,48,0,4,,,,,,,,,3,,,40,67
514272,note_off,192,0,3,,,,,,,,,2,,,56,0
514272,note_off,0,0,3,,,,,,,,,2,,,59,0
514272,note_off,0,0,3,,,,,,,,,2,,,50,0
514272,note_off,192,0,4,,,,,,,,,3,,,52,0
514272,note_off,0,0,4,,,,,,,,,3,,,40,0
514320,note_on,0,0,4,,,,,,,,,3,,,52,69
514320,note_on,48,0,3,,,,,,,,,2,,,50,69
514320,note_on,0,0,3,,,,,,,,,2,,,59,69
514320,note_on,0,0,3,,,,,,,,,2,,,56,69
514320,note_on,0,0,2,,,,,,,,,1,,,68,69
514320,note_on,240,0,1,,,,,,,,,0,,,80,69
514320,note_on,288,0,2,,,,,,,,,1,,,74,69
514320,note_on,48,0,4,,,,,,,,,3,,,40,69
514440,note_off,120,0,1,,,,,,,,,0,,,80,0
514440,note_on,0,0,1,,,,,,,,,0,,,86,71
514512,note_off,192,0,3,,,,,,,,,2,,,59,0
514512,note_off,0,0,2,,,,,,,,,1,,,74,0
514512,note_off,192,0,2,,,,,,,,,1,,,68,0
514512,note_off,0,0,4,,,,,,,,,3,,,40,0
514512,note_off,192,0,4,,,,,,,,,3,,,52,0
514512,note_off,0,0,3,,,,,,,,,2,,,50,0
514512,note_off,0,0,3,,,,,,,,,2,,,56,0
514560,note_on,48,0,4,,,,,,,,,3,,,40,72
514560,note_on,0,0,4,,,,,,,,,3,,,52,72
514560,note_on,0,0,3,,,,,,,,,2,,,56,72
514560,note_on,0,0,3,,,,,,,,,2,,,59,72
514560,note_off,120,0,1,,,,,,,,,0,,,86,0
514560,note_on,48,0,3,,,,,,,,,2,,,50,72
514752,note_off,0,0,4,,,,,,,,,3,,,40,0
514752,note_off,0,0,3,,,,,,,,,2,,,50,0
514752,note_off,192,0,3,,,,,,,,,2,,,59,0
514752,note_off,0,0,3,,,,,,,,,2,,,56,0
514752,note_off,192,0,4,,,,,,,,,3,,,52,0
514800,note_on,48,0,4,,,,,,,,,3,,,40,75
514800,note_on,0,0,4,,,,,,,,,3,,,52,75
514800,note_on,240,0,1,,,,,,,,,0,,,80,75
514800,note_on,48,0,3,,,,,,,,,2,,,50,75
514800,note_on,0,0,3,,,,,,,,,2,,,56,75
514800,note_on,0,0,3,,,,,,,,,2,,,59,75
514800,note_on,0,0,2,,,,,,,,,1,,,68,75
514800,note_on,288,0,2,,,,,,,,,1,,,71,75
514920,note_on,0,0,1,,,,,,,,,0,,,83,76
514920,note_off,120,0,1,,,,,,,,,0,,,80,0
514992,note_off,0,0,2,,,,,,,,,1,,,71,0
514992,note_off,192,0,2,,,,,,,,,1,,,68,0
514992,note_off,0,0,3,,,,,,,,,2,,,56,0
514992,note_off,0,0,3,,,,,,,,,2,,,50,0
514992,note_off,192,0,3,,,,,,,,,2,,,59,0
514992,note_off,0,0,4,,,,,,,,,3,,,40,0
514992,note_off,192,0,4,,,,,,,,,3,,,52,0
515040,note_on,0,0,3,,,,,,,,,2,,,59,78
515040,note_on,0,0,4,,,,,,,,,3,,,52,78
515040,note_on,48,0,4,,,,,,,,,3,,,40,78
515040,note_off,120,0,1,,,,,,,,,0,,,83,0
515040,note_on,48,0,3,,,,,,,,,2,,,50,78
515040,note_on,0,0,3,,,,,,,,,2,,,56,78
515232,note_off,192,0,3,,,,,,,,,2,,,59,0
515232,note_off,0,0,3,,,,,,,,,2,,,56,0
515232,note_off,0,0,3,,,,,,,,,2,,,50,0
515232,note_off,0,0,4,,,,,,,,,3,,,40,0
515232,note_off,192,0,4,,,,,,,,,3,,,52,0
515280,note_on,240,0,1,,,,,,,,,0,,,80,81
515280,note_on,0,0,4,,,,,,,,,3,,,40,81
515280,note_on,48,0,3,,,,,,,,,2,,,50,81
515280,note_on,288,0,2,,,,,,,,,1,,,71,81
515280,note_on,0,0,3,,,,,,,,,2,,,56,81
515280,note_on,0,0,3,,,,,,,,,2,,,59,81
515280,note_on,0,0,2,,,,,,,,,1,,,68,81
515280,note_on,48,0,4,,,,,,,,,3,,,52,81
515400,note_on,0,0,1,,,,,,,,,0,,,83,82
515400,note_off,120,0,1,,,,,,,,,0,,,80,0
515460,set_tempo,3668,1,0,,,,,,441176,,,,,,,
515472,note_off,0,0,2,,,,,,,,,1,,,71,0
515472,note_off,192,0,3,,,,,,,,,2,,,56,0
515472,note_off,0,0,3,,,,,,,,,2,,,59,0
515472,note_off,0,0,3,,,,,,,,,2,,,50,0
515472,note_off,0,0,4,,,,,,,,,3,,,52,0
515472,note_off,192,0,2,,,,,,,,,1,,,68,0
515472,note_off,192,0,4,,,,,,,,,3,,,40,0
515520,set_tempo,60,1,0,,,,,,434782,,,,,,,
515520,note_on,48,0,2,,,,,,,,,1,,,69,82
515520,note_off,120,0,1,,,,,,,,,0,,,83,0
515520,note_on,0,0,3,,,,,,,,,2,,,49,82
515520,note_on,0,0,3,,,,,,,,,2,,,57,82
515520,note_on,48,0,3,,,,,,,,,2,,,52,82
515520,note_on,0,0,1,,,,,,,,,0,,,81,82
515520,note_on,9408,0,5,,,,,,,,,4,,,45,82
515520,note_on,0,0,5,,,,,,,,,4,,,33,82
515640,note_on,0,0,1,,,,,,,,,0,,,88,82
515640,note_off,120,0,1,,,,,,,,,0,,,81,0
515760,note_off,120,0,1,,,,,,,,,0,,,88,0
515760,note_on,0,0,1,,,,,,,,,0,,,86,83
515880,note_off,360,0,5,,,,,,,,,4,,,33,0
515880,note_off,0,0,5,,,,,,,,,4,,,45,0
515880,note_off,120,0,1,,,,,,,,,0,,,86,0
515880,note_on,0,0,1,,,,,,,,,0,,,85,83
515880,note_off,0,0,3,,,,,,,,,2,,,49,0
515880,note_off,360,0,3,,,,,,,,,2,,,57,0
515880,note_off,0,0,3,,,,,,,,,2,,,52,0
516000,note_off,120,0,1,,,,,,,,,0,,,85,0
516000,note_on,0,0,1,,,,,,,,,0,,,83,84
516000,note_off,480,0,2,,,,,,,,,1,,,69,0
516120,note_off,120,0,1,,,,,,,,,0,,,83,0
516120,note_on,0,0,1,,,,,,,,,0,,,81,84
516240,note_on,360,0,5,,,,,,,,,4,,,45,84
516240,note_off,120,0,1,,,,,,,,,0,,,81,0
516240,note_on,0,0,1,,,,,,,,,0,,,80,84
516304,note_off,64,0,5,,,,,,,,,4,,,45,0
516320,note_on,16,0,5,,,,,,,,,4,,,45,85
516360,note_on,0,0,1,,,,,,,,,0,,,78,85
516360,note_off,120,0,1,,,,,,,,,0,,,80,0
516384,note_off,64,0,5,,,,,,,,,4,,,45,0
516400,note_on,16,0,5,,,,,,,,,4,,,45,85
516464,note_off,64,0,5,,,,,,,,,4,,,45,0
516480,note_on,0,0,1,,,,,,,,,0,,,76,85
516480,note_off,120,0,1,,,,,,,,,0,,,78,0
516480,note_on,0,0,5,,,,,,,,,4,,,33,85
516480,note_on,16,0,5,,,,,,,,,4,,,45,85
516600,note_off,120,0,1,,,,,,,,,0,,,76,0
516600,note_on,0,0,1,,,,,,,,,0,,,81,86
516720,note_off,120,0,1,,,,,,,,,0,,,81,0
516720,note_on,0,0,1,,,,,,,,,0,,,80,86
516840,note_off,0,0,5,,,,,,,,,4,,,45,0
516840,note_off,120,0,1,,,,,,,,,0,,,80,0
516840,note_on,0,0,1,,,,,,,,,0,,,78,87
516840,note_off,360,0,5,,,,,,,,,4,,,33,0
516960,note_off,120,0,1,,,,,,,,,0,,,78,0
516960,note_on,0,0,1,,,,,,,,,0,,,76,87
517080,note_off,120,0,1,,,,,,,,,0,,,76,0
517080,note_on,0,0,1,,,,,,,,,0,,,74,88
517200,note_off,120,0,1,,,,,,,,,0,,,74,0
517200,note_on,0,0,1,,,,,,,,,0,,,73,88
517200,note_on,360,0,5,,,,,,,,,4,,,45,88
517264,note_off,64,0,5,,,,,,,,,4,,,45,0
517280,note_on,16,0,5,,,,,,,,,4,,,45,88
517320,note_on,0,0,1,,,,,,,,,0,,,71,89
517320,note_off,120,0,1,,,,,,,,,0,,,73,0
517344,note_off,64,0,5,,,,,,,,,4,,,45,0
517360,note_on,16,0,5,,,,,,,,,4,,,45,89
517424,note_off,64,0,5,,,,,,,,,4,,,45,0
517440,note_on,16,0,5,,,,,,,,,4,,,45,89
517440,note_on,0,0,5,,,,,,,,,4,,,37,89
517440,note_on,0,0,1,,,,,,,,,0,,,69,89
517440,note_off,120,0,1,,,,,,,,,0,,,71,0
517560,note_on,0,0,1,,,,,,,,,0,,,76,90
517560,note_off,120,0,1,,,,,,,,,0,,,69,0
517680,note_off,120,0,1,,,,,,,,,0,,,76,0
517680,note_on,0,0,1,,,,,,,,,0,,,74,90
517800,note_off,360,0,5,,,,,,,,,4,,,37,0
517800,note_off,0,0,5,,,,,,,,,4,,,45,0
517800,note_off,120,0,1,,,,,,,,,0,,,74,0
517800,note_on,0,0,1,,,,,,,,,0,,,73,90
517920,note_off,120,0,1,,,,,,,,,0,,,73,0
517920,note_on,0,0,1,,,,,,,,,0,,,71,91
518040,note_on,0,0,1,,,,,,,,,0,,,69,91
518040,note_off,120,0,1,,,,,,,,,0,,,71,0
518160,note_on,0,0,1,,,,,,,,,0,,,68,92
518160,note_on,360,0,5,,,,,,,,,4,,,49,92
518160,note_off,120,0,1,,,,,,,,,0,,,69,0
518224,note_off,64,0,5,,,,,,,,,4,,,49,0
518240,note_on,16,0,5,,,,,,,,,4,,,49,92
518280,note_off,120,0,1,,,,,,,,,0,,,68,0
518280,note_on,0,0,1,,,,,,,,,0,,,66,92
518304,note_off,64,0,5,,,,,,,,,4,,,49,0
518320,note_on,16,0,5,,,,,,,,,4,,,49,92
518384,note_off,64,0,5,,,,,,,,,4,,,49,0
518400,note_off,120,0,1,,,,,,,,,0,,,66,0
518400,note_on,0,0,1,,,,,,,,,0,,,64,91
518400,note_on,16,0,5,,,,,,,,,4,,,40,91
518400,note_on,0,0,5,,,,,,,,,4,,,52,91
518520,note_on,0,0,1,,,,,,,,,0,,,69,89
518520,note_off,120,0,1,,,,,,,,,0,,,64,0
518592,note_off,0,0,5,,,,,,,,,4,,,40,0
518592,note_off,192,0,5,,,,,,,,,4,,,52,0
518640,note_on,0,0,1,,,,,,,,,0,,,68,88
518640,note_on,48,0,5,,,,,,,,,4,,,52,88
518640,note_on,0,0,5,,,,,,,,,4,,,40,88
518640,note_off,120,0,1,,,,,,,,,0,,,69,0
518760,note_on,0,0,1,,,,,,,,,0,,,66,86
518760,note_off,120,0,1,,,,,,,,,0,,,68,0
518832,note_off,0,0,5,,,,,,,,,4,,,52,0
518832,note_off,192,0,5,,,,,,,,,4,,,40,0
518880,note_on,48,0,5,,,,,,,,,4,,,40,84
518880,note_on,0,0,1,,,,,,,,,0,,,64,84
518880,note_off,120,0,1,,,,,,,,,0,,,66,0
518880,note_on,0,0,5,,,,,,,,,4,,,52,84
519000,note_on,0,0,1,,,,,,,,,0,,,62,84
519000,note_off,120,0,1,,,,,,,,,0,,,64,0
519072,note_off,0,0,5,,,,,,,,,4,,,40,0
519072,note_off,192,0,5,,,,,,,,,4,,,52,0
519120,note_on,0,0,5,,,,,,,,,4,,,40,83
519120,note_on,48,0,5,,,,,,,,,4,,,52,83
519120,note_on,0,0,1,,,,,,,,,0,,,61,83
519120,note_off,120,0,1,,,,,,,,,0,,,62,0
519240,note_on,0,0,1,,,,,,,,,0,,,59,82
519240,note_off,120,0,1,,,,,,,,,0,,,61,0
519312,note_off,192,0,5,,,,,,,,,4,,,40,0
519312,note_off,0,0,5,,,,,,,,,4,,,52,0
519360,note_off,120,0,1,,,,,,,,,0,,,59,0
519360,note_on,0,0,1,,,,,,,,,0,,,57,80
519360,note_on,48,0,5,,,,,,,,,4,,,45,80
519480,note_off,120,0,5,,,,,,,,,4,,,45,0
519480,note_on,4008,0,4,,,,,,,,,3,,,52,79
519600,note_off,120,0,4,,,,,,,,,3,,,52,0
519600,note_on,0,0,4,,,,,,,,,3,,,50,77
519720,note_off,360,0,1,,,,,,,,,0,,,57,0
519720,note_off,120,0,4,,,,,,,,,3,,,50,0
519720,note_on,0,0,4,,,,,,,,,3,,,49,76
519840,note_on,0,0,4,,,,,,,,,3,,,47,75
519840,note_off,120,0,4,,,,,,,,,3,,,49,0
519960,note_on,0,0,4,,,,,,,,,3,,,45,74
519960,note_off,120,0,4,,,,,,,,,3,,,47,0
520080,note_on,360,0,1,,,,,,,,,0,,,81,73
520080,note_on,0,0,4,,,,,,,,,3,,,44,73
520080,note_off,120,0,4,,,,,,,,,3,,,45,0
520080,note_on,4080,0,2,,,,,,,,,1,,,69,73
520200,note_off,120,0,4,,,,,,,,,3,,,44,0
520200,note_on,0,0,4,,,,,,,,,3,,,42,73
520272,note_off,192,0,1,,,,,,,,,0,,,81,0
520272,note_off,192,0,2,,,,,,,,,1,,,69,0
520320,note_on,48,0,2,,,,,,,,,1,,,69,72
520320,note_off,120,0,4,,,,,,,,,3,,,42,0
520320,note_on,0,0,4,,,,,,,,,3,,,40,72
520320,note_on,48,0,1,,,,,,,,,0,,,81,72
520440,note_off,120,0,4,,,,,,,,,3,,,40,0
520440,note_on,0,0,4,,,,,,,,,3,,,57,73
520440,note_on,0,0,4,,,,,,,,,3,,,45,73
520512,note_off,192,0,2,,,,,,,,,1,,,69,0
520512,note_off,192,0,1,,,,,,,,,0,,,81,0
520560,note_on,0,0,4,,,,,,,,,3,,,56,75
520560,note_off,0,0,4,,,,,,,,,3,,,57,0
520560,note_on,48,0,2,,,,,,,,,1,,,69,75
520560,note_on,48,0,1,,,,,,,,,0,,,81,75
520560,note_off,120,0,4,,,,,,,,,3,,,45,0
520560,note_on,0,0,4,,,,,,,,,3,,,44,75
520680,note_off,120,0,4,,,,,,,,,3,,,56,0
520680,note_off,0,0,4,,,,,,,,,3,,,44,0
520680,note_on,0,0,4,,,,,,,,,3,,,42,76
520680,note_on,0,0,4,,,,,,,,,3,,,54,76
520752,note_off,192,0,2,,,,,,,,,1,,,69,0
520752,note_off,192,0,1,,,,,,,,,0,,,81,0
520800,note_on,48,0,2,,,,,,,,,1,,,69,78
520800,note_on,48,0,1,,,,,,,,,0,,,81,78
520800,note_on,0,0,4,,,,,,,,,3,,,40,78
520800,note_off,0,0,4,,,,,,,,,3,,,42,0
520800,note_off,120,0,4,,,,,,,,,3,,,54,0
520800,note_on,0,0,4,,,,,,,,,3,,,52,78
520920,note_off,0,0,4,,,,,,,,,3,,,40,0
520920,note_on,0,0,4,,,,,,,,,3,,,38,81
520920,note_on,0,0,4,,,,,,,,,3,,,50,81
520920,note_off,120,0,4,,,,,,,,,3,,,52,0
520992,note_off,192,0,2,,,,,,,,,1,,,69,0
520992,note_off,192,0,1,,,,,,,,,0,,,81,0
521040,note_off,0,0,4,,,,,,,,,3,,,38,0
521040,note_on,0,0,4,,,,,,,,,3,,,37,84
521040,note_on,48,0,1,,,,,,,,,0,,,81,84
521040,note_on,0,0,4,,,,,,,,,3,,,49,84
521040,note_on,48,0,2,,,,,,,,,1,,,69,84
521040,note_off,120,0,4,,,,,,,,,3,,,50,0
521160,note_on,0,0,4,,,,,,,,,3,,,47,87
521160,note_on,0,0,4,,,,,,,,,3,,,35,87
521160,note_off,0,0,4,,,,,,,,,3,,,49,0
521160,note_off,120,0,4,,,,,,,,,3,,,37,0
521220,set_tempo,5700,1,0,,,,,,441176,,,,,,,
521232,note_off,192,0,1,,,,,,,,,0,,,81,0
521232,note_off,192,0,2,,,,,,,,,1,,,69,0
521280,note_on,48,0,2,,,,,,,,,1,,,69,97
521280,note_off,0,0,4,,,,,,,,,3,,,35,0
521280,note_on,0,0,4,,,,,,,,,3,,,33,97
521280,note_off,120,0,4,,,,,,,,,3,,,47,0
521280,note_on,48,0,1,,,,,,,,,0,,,81,97
521280,note_on,0,0,4,,,,,,,,,3,,,45,97
521347,set_tempo,127,1,0,,,,,,434782,,,,,,,
521360,note_on,0,0,1,,,,,,,,,0,,,83,95
521360,note_off,80,0,1,,,,,,,,,0,,,81,0
521360,note_off,80,0,4,,,,,,,,,3,,,45,0
521360,note_off,80,0,2,,,,,,,,,1,,,69,0
521360,note_on,0,0,2,,,,,,,,,1,,,71,95
521360,note_off,0,0,4,,,,,,,,,3,,,33,0
521360,note_on,0,0,4,,,,,,,,,3,,,47,95
521360,note_on,0,0,4,,,,,,,,,3,,,35,95
521440,note_off,0,0,4,,,,,,,,,3,,,47,0
521440,note_on,0,0,4,,,,,,,,,3,,,33,93
521440,note_off,80,0,1,,,,,,,,,0,,,83,0
521440,note_off,80,0,4,,,,,,,,,3,,,35,0
521440,note_on,0,0,1,,,,,,,,,0,,,81,93
521440,note_on,0,0,4,,,,,,,,,3,,,45,93
521440,note_off,80,0,2,,,,,,,,,1,,,71,0
521440,note_on,0,0,2,,,,,,,,,1,,,69,93
521520,note_on,0,0,1,,,,,,,,,0,,,83,91
521520,note_off,80,0,4,,,,,,,,,3,,,45,0
521520,note_off,0,0,4,,,,,,,,,3,,,33,0
521520,note_on,0,0,4,,,,,,,,,3,,,35,91
521520,note_on,0,0,4,,,,,,,,,3,,,47,91
521520,note_off,80,0,2,,,,,,,,,1,,,69,0
521520,note_off,80,0,1,,,,,,,,,0,,,81,0
521520,note_on,0,0,2,,,,,,,,,1,,,71,91
521600,note_off,80,0,2,,,,,,,,,1,,,71,0
521600,note_off,80,0,1,,,,,,,,,0,,,83,0
521600,note_off,80,0,4,,,,,,,,,3,,,47,0
521600,note_on,0,0,2,,,,,,,,,1,,,69,89
521600,note_on,0,0,1,,,,,,,,,0,,,81,89
521600,note_on,0,0,4,,,,,,,,,3,,,33,89
521600,note_on,0,0,4,,,,,,,,,3,,,45,89
521600,note_off,0,0,4,,,,,,,,,3,,,35,0
521680,note_on,0,0,2,,,,,,,,,1,,,71,88
521680,note_off,80,0,2,,,,,,,,,1,,,69,0
521680,note_on,0,0,4,,,,,,,,,3,,,35,88
521680,note_off,80,0,4,,,,,,,,,3,,,45,0
521680,note_off,0,0,4,,,,,,,,,3,,,33,0
521680,note_on,0,0,4,,,,,,,,,3,,,47,88
521680,note_off,80,0,1,,,,,,,,,0,,,81,0
521680,note_on,0,0,1,,,,,,,,,0,,,83,88
521760,note_off,0,0,4,,,,,,,,,3,,,35,0
521760,note_on,0,0,2,,,,,,,,,1,,,69,87
521760,note_off,80,0,2,,,,,,,,,1,,,71,0
521760,note_off,80,0,1,,,,,,,,,0,,,83,0
521760,note_on,0,0,1,,,,,,,,,0,,,81,87
521760,note_off,80,0,4,,,,,,,,,3,,,47,0
521760,note_on,0,0,4,,,,,,,,,3,,,45,87
521760,note_on,0,0,4,,,,,,,,,3,,,33,87
521840,note_on,0,0,2,,,,,,,,,1,,,71,85
521840,note_off,80,0,1,,,,,,,,,0,,,81,0
521840,note_on,0,0,4,,,,,,,,,3,,,47,85
521840,note_on,0,0,4,,,,,,,,,3,,,35,85
521840,note_off,0,0,4,,,,,,,,,3,,,33,0
521840,note_off,80,0,4,,,,,,,,,3,,,45,0
521840,note_off,80,0,2,,,,,,,,,1,,,69,0
521840,note_on,0,0,1,,,,,,,,,0,,,83,85
521920,note_off,80,0,1,,,,,,,,,0,,,83,0
521920,note_on,0,0,1,,,,,,,,,0,,,81,84
521920,note_off,80,0,2,,,,,,,,,1,,,71,0
521920,note_on,0,0,4,,,,,,,,,3,,,45,84
521920,note_off,80,0,4,,,,,,,,,3,,,47,0
521920,note_off,0,0,4,,,,,,,,,3,,,35,0
521920,note_on,0,0,4,,,,,,,,,3,,,33,84
521920,note_on,0,0,2,,,,,,,,,1,,,69,84
522000,note_on,0,0,1,,,,,,,,,0,,,83,83
522000,note_off,80,0,1,,,,,,,,,0,,,81,0
522000,note_off,80,0,4,,,,,,,,,3,,,45,0
522000,note_off,0,0,4,,,,,,,,,3,,,33,0
522000,note_off,80,0,2,,,,,,,,,1,,,69,0
522000,note_on,0,0,4,,,,,,,,,3,,,47,83
522000,note_on,0,0,2,,,,,,,,,1,,,71,83
522000,note_on,0,0,4,,,,,,,,,3,,,35,83
522080,note_on,0,0,4,,,,,,,,,3,,,45,82
522080,note_on,0,0,4,,,,,,,,,3,,,33,82
522080,note_off,80,0,4,,,,,,,,,3,,,47,0
522080,note_on,0,0,2,,,,,,,,,1,,,69,82
522080,note_off,80,0,2,,,,,,,,,1,,,71,0
522080,note_off,80,0,1,,,,,,,,,0,,,83,0
522080,note_on,0,0,1,,,,,,,,,0,,,81,82
522080,note_off,0,0,4,,,,,,,,,3,,,35,0
522160,note_off,80,0,1,,,,,,,,,0,,,81,0
522160,note_on,0,0,1,,,,,,,,,0,,,83,81
522160,note_off,0,0,4,,,,,,,,,3,,,33,0
522160,note_off,80,0,2,,,,,,,,,1,,,69,0
522160,note_on,0,0,4,,,,,,,,,3,,,35,81
522160,note_off,80,0,4,,,,,,,,,3,,,45,0
522160,note_on,0,0,4,,,,,,,,,3,,,47,81
522160,note_on,0,0,2,,,,,,,,,1,,,71,81
522240,note_on,0,0,4,,,,,,,,,3,,,33,80
522240,note_on,0,0,4,,,,,,,,,3,,,45,80
522240,note_off,0,0,4,,,,,,,,,3,,,47,0
522240,note_off,80,0,4,,,,,,,,,3,,,35,0
522240,note_off,80,0,1,,,,,,,,,0,,,83,0
522240,note_on,0,0,1,,,,,,,,,0,,,81,80
522240,note_on,0,0,2,,,,,,,,,1,,,69,80
522240,note_off,80,0,2,,,,,,,,,1,,,71,0
522320,note_off,80,0,1,,,,,,,,,0,,,81,0
522320,note_on,0,0,4,,,,,,,,,3,,,47,81
522320,note_on,0,0,1,,,,,,,,,0,,,83,81
522320,note_on,0,0,2,,,,,,,,,1,,,71,81
522320,note_off,80,0,4,,,,,,,,,3,,,33,0
522320,note_off,0,0,4,,,,,,,,,3,,,45,0
522320,note_on,0,0,4,,,,,,,,,3,,,35,81
522320,note_off,80,0,2,,,,,,,,,1,,,69,0
522400,note_off,80,0,1,,,,,,,,,0,,,83,0
522400,note_on,0,0,1,,,,,,,,,0,,,81,80
522400,note_off,80,0,4,,,,,,,,,3,,,47,0
522400,note_on,0,0,4,,,,,,,,,3,,,45,80
522400,note_on,0,0,4,,,,,,,,,3,,,33,80
522400,note_off,0,0,4,,,,,,,,,3,,,35,0
522400,note_off,80,0,2,,,,,,,,,1,,,71,0
522400,note_on,0,0,2,,,,,,,,,1,,,69,80
522480,note_off,80,0,4,,,,,,,,,3,,,33,0
522480,note_off,0,0,4,,,,,,,,,3,,,45,0
522480,note_on,0,0,4,,,,,,,,,3,,,47,79
522480,note_on,0,0,4,,,,,,,,,3,,,35,79
522480,note_on,0,0,1,,,,,,,,,0,,,83,79
522480,note_off,80,0,1,,,,,,,,,0,,,81,0
522480,note_on,0,0,2,,,,,,,,,1,,,71,79
522480,note_off,80,0,2,,,,,,,,,1,,,69,0
522560,note_off,80,0,1,,,,,,,,,0,,,83,0
522560,note_off,0,0,4,,,,,,,,,3,,,47,0
522560,note_off,80,0,4,,,,,,,,,3,,,35,0
522560,note_on,0,0,4,,,,,,,,,3,,,33,78
522560,note_on,0,0,4,,,,,,,,,3,,,45,78
522560,note_on,0,0,1,,,,,,,,,0,,,81,78
522560,note_off,80,0,2,,,,,,,,,1,,,71,0
522560,note_on,0,0,2,,,,,,,,,1,,,69,78
522640,note_on,0,0,2,,,,,,,,,1,,,71,77
522640,note_off,80,0,1,,,,,,,,,0,,,81,0
522640,note_on,0,0,1,,,,,,,,,0,,,83,77
522640,note_off,80,0,2,,,,,,,,,1,,,69,0
522640,note_off,80,0,4,,,,,,,,,3,,,33,0
522640,note_off,0,0,4,,,,,,,,,3,,,45,0
522640,note_on,0,0,4,,,,,,,,,3,,,35,77
522640,note_on,0,0,4,,,,,,,,,3,,,47,77
522720,note_off,0,0,4,,,,,,,,,3,,,47,0
522720,note_on,0,0,4,,,,,,,,,3,,,45,76
522720,note_on,0,0,4,,,,,,,,,3,,,33,76
522720,note_off,80,0,1,,,,,,,,,0,,,83,0
522720,note_on,0,0,1,,,,,,,,,0,,,81,76
522720,note_off,80,0,4,,,,,,,,,3,,,35,0
522720,note_off,80,0,2,,,,,,,,,1,,,71,0
522720,note_on,0,0,2,,,,,,,,,1,,,69,76
522800,note_off,80,0,1,,,,,,,,,0,,,81,0
522800,note_on,0,0,1,,,,,,,,,0,,,83,76
522800,note_on,0,0,2,,,,,,,,,1,,,71,76
522800,note_on,0,0,4,,,,,,,,,3,,,35,76
522800,note_off,80,0,2,,,,,,,,,1,,,69,0
522800,note_on,0,0,4,,,,,,,,,3,,,47,76
522800,note_off,0,0,4,,,,,,,,,3,,,45,0
522800,note_off,80,0,4,,,,,,,,,3,,,33,0
522880,note_off,80,0,2,,,,,,,,,1,,,71,0
522880,note_on,0,0,2,,,,,,,,,1,,,69,75
522880,note_on,0,0,4,,,,,,,,,3,,,45,75
522880,note_on,0,0,1,,,,,,,,,0,,,81,75
522880,note_off,80,0,1,,,,,,,,,0,,,83,0
522880,note_off,0,0,4,,,,,,,,,3,,,47,0
522880,note_off,80,0,4,,,,,,,,,3,,,35,0
522880,note_on,0,0,4,,,,,,,,,3,,,33,75
522960,note_on,0,0,4,,,,,,,,,3,,,35,75
522960,note_on,0,0,4,,,,,,,,,3,,,47,75
522960,note_off,0,0,4,,,,,,,,,3,,,45,0
522960,note_off,80,0,2,,,,,,,,,1,,,69,0
522960,note_off,80,0,1,,,,,,,,,0,,,81,0
522960,note_on,0,0,1,,,,,,,,,0,,,83,75
522960,note_on,0,0,2,,,,,,,,,1,,,71,75
522960,note_off,80,0,4,,,,,,,,,3,,,33,0
523040,note_off,80,0,2,,,,,,,,,1,,,71,0
523040,note_on,0,0,2,,,,,,,,,1,,,69,75
523040,note_on,0,0,4,,,,,,,,,3,,,45,75
523040,note_off,0,0,4,,,,,,,,,3,,,47,0
523040,note_off,80,0,4,,,,,,,,,3,,,35,0
523040,note_off,80,0,1,,,,,,,,,0,,,83,0
523040,note_on,0,0,1,,,,,,,,,0,,,81,75
523040,note_on,0,0,4,,,,,,,,,3,,,33,75
523120,note_off,80,0,4,,,,,,,,,3,,,33,0
523120,note_off,0,0,4,,,,,,,,,3,,,45,0
523120,note_on,0,0,4,,,,,,,,,3,,,35,74
523120,note_on,0,0,4,,,,,,,,,3,,,47,74
523120,note_on,0,0,2,,,,,,,,,1,,,71,74
523120,note_off,80,0,2,,,,,,,,,1,,,69,0
523120,note_on,0,0,1,,,,,,,,,0,,,83,74
523120,note_off,80,0,1,,,,,,,,,0,,,81,0
523200,note_off,80,0,2,,,,,,,,,1,,,71,0
523200,note_off,80,0,1,,,,,,,,,0,,,83,0
523200,note_on,0,0,4,,,,,,,,,3,,,33,75
523200,note_on,0,0,4,,,,,,,,,3,,,45,75
523200,note_off,0,0,4,,,,,,,,,3,,,35,0
523200,note_off,80,0,4,,,,,,,,,3,,,47,0
523200,note_on,0,0,1,,,,,,,,,0,,,81,75
523200,note_on,0,0,2,,,,,,,,,1,,,69,75
523280,note_off,80,0,1,,,,,,,,,0,,,81,0
523280,note_on,0,0,1,,,,,,,,,0,,,83,74
523280,note_off,80,0,2,,,,,,,,,1,,,69,0
523280,note_off,80,0,4,,,,,,,,,3,,,33,0
523280,note_off,0,0,4,,,,,,,,,3,,,45,0
523280,note_on,0,0,4,,,,,,,,,3,,,35,74
523280,note_on,0,0,4,,,,,,,,,3,,,47,74
523280,note_on,0,0,2,,,,,,,,,1,,,71,74
523360,note_off,80,0,2,,,,,,,,,1,,,71,0
523360,note_on,0,0,1,,,,,,,,,0,,,81,72
523360,note_off,80,0,1,,,,,,,,,0,,,83,0
523360,note_off,80,0,4,,,,,,,,,3,,,47,0
523360,note_off,0,0,4,,,,,,,,,3,,,35,0
523360,note_on,0,0,4,,,,,,,,,3,,,33,72
523360,note_on,0,0,4,,,,,,,,,3,,,45,72
523360,note_on,0,0,2,,,,,,,,,1,,,69,72
523380,set_tempo,2033,1,0,,,,,,441176,,,,,,,
523440,note_off,80,0,4,,,,,,,,,3,,,33,0
523440,note_on,0,0,4,,,,,,,,,3,,,32,71
523440,note_on,0,0,4,,,,,,,,,3,,,44,71
523440,note_on,0,0,2,,,,,,,,,1,,,68,71
523440,note_off,80,0,2,,,,,,,,,1,,,69,0
523440,note_off,0,0,4,,,,,,,,,3,,,45,0
523440,note_off,80,0,1,,,,,,,,,0,,,81,0
523440,note_on,0,0,1,,,,,,,,,0,,,80,71
523440,set_tempo,60,1,0,,,,,,434782,,,,,,,
523560,note_off,0,0,4,,,,,,,,,3,,,32,0
523560,note_on,0,0,4,,,,,,,,,3,,,45,69
523560,note_on,0,0,4,,,,,,,,,3,,,33,69
523560,note_on,0,0,2,,,,,,,,,1,,,69,69
523560,note_off,120,0,4,,,,,,,,,3,,,44,0
523560,note_on,0,0,1,,,,,,,,,0,,,81,69
523560,note_off,120,0,1,,,,,,,,,0,,,80,0
523560,set_tempo,120,1,0,,,,,,845070,,,,,,,
523560,note_off,120,0,2,,,,,,,,,1,,,68,0
523680,set_tempo,120,1,0,,,,,,659340,,,,,,,
523680,note_off,120,0,2,,,,,,,,,1,,,69,0
523680,note_off,0,0,4,,,,,,,,,3,,,33,0
523680,note_off,120,0,1,,,,,,,,,0,,,81,0
523680,note_off,120,0,4,,,,,,,,,3,,,45,0
524640,control_change,960,0,2,,,,,,,64,0,1,,,,
524640,control_change,960,0,4,,,,,,,64,0,3,,,,
524640,control_change,960,0,1,,,,,,,64,0,0,,,,
524640,set_tempo,960,1,0,,,,,,434782,,,,,,,
524640,control_change,8760,0,3,,,,,,,64,0,2,,,,
524640,control_change,5160,0,5,,,,,,,64,0,4,,,,
525000,note_on,360,0,1,,,,,,,,,0,,,69,72
525000,note_on,360,0,4,,,,,,,,,3,,,45,72
525000,note_on,360,0,5,,,,,,,,,4,,,33,72
525000,note_on,360,0,2,,,,,,,,,1,,,57,72
525078,note_off,78,0,4,,,,,,,,,3,,,45,0
525078,note_off,78,0,1,,,,,,,,,0,,,69,0
525078,note_off,78,0,5,,,,,,,,,4,,,33,0
525078,note_off,78,0,2,,,,,,,,,1,,,57,0
525080,set_tempo,440,1,0,,,,,,441176,,,,,,,
525120,note_on,42,0,5,,,,,,,,,4,,,33,80
525120,set_tempo,40,1,0,,,,,,434782,,,,,,,
525120,note_on,42,0,1,,,,,,,,,0,,,69,80
525120,note_on,42,0,2,,,,,,,,,1,,,57,80
525120,note_on,42,0,4,,,,,,,,,3,,,45,80
525480,note_off,360,0,1,,,,,,,,,0,,,69,0
525480,note_off,360,0,5,,,,,,,,,4,,,33,0
525480,note_off,360,0,2,,,,,,,,,1,,,57,0
525480,note_off,360,0,4,,,,,,,,,3,,,45,0
525600,note_on,120,0,1,,,,,,,,,0,,,74,74
525600,note_on,120,0,5,,,,,,,,,4,,,38,74
525600,note_on,120,0,4,,,,,,,,,3,,,50,74
525600,note_on,120,0,2,,,,,,,,,1,,,62,74
525756,note_off,156,0,1,,,,,,,,,0,,,74,0
525756,note_off,156,0,4,,,,,,,,,3,,,50,0
525756,note_off,156,0,2,,,,,,,,,1,,,62,0
525756,note_off,156,0,5,,,,,,,,,4,,,38,0
525960,note_on,204,0,1,,,,,,,,,0,,,69,75
525960,note_on,204,0,4,,,,,,,,,3,,,45,75
525960,note_on,204,0,2,,,,,,,,,1,,,57,75
525960,note_on,204,0,5,,,,,,,,,4,,,33,75
526038,note_off,78,0,4,,,,,,,,,3,,,45,0
526038,note_off,78,0,2,,,,,,,,,1,,,57,0
526038,note_off,78,0,1,,,,,,,,,0,,,69,0
526038,note_off,78,0,5,,,,,,,,,4,,,33,0
526040,set_tempo,920,1,0,,,,,,441176,,,,,,,
526080,set_tempo,40,1,0,,,,,,434782,,,,,,,
526080,note_on,42,0,2,,,,,,,,,1,,,57,82
526080,note_on,42,0,5,,,,,,,,,4,,,33,82
526080,note_on,42,0,4,,,,,,,,,3,,,45,82
526080,note_on,42,0,1,,,,,,,,,0,,,69,82
526440,note_off,360,0,2,,,,,,,,,1,,,57,0
526440,note_off,360,0,1,,,,,,,,,0,,,69,0
526440,note_off,360,0,5,,,,,,,,,4,,,33,0
526440,note_off,360,0,4,,,,,,,,,3,,,45,0
526560,note_on,120,0,2,,,,,,,,,1,,,62,77
526560,note_on,120,0,4,,,,,,,,,3,,,50,77
526560,note_on,120,0,1,,,,,,,,,0,,,74,77
526560,note_on,120,0,5,,,,,,,,,4,,,38,77
526716,note_off,156,0,5,,,,,,,,,4,,,38,0
526716,note_off,156,0,4,,,,,,,,,3,,,50,0
526716,note_off,156,0,2,,,,,,,,,1,,,62,0
526716,note_off,156,0,1,,,,,,,,,0,,,74,0
526920,note_on,204,0,2,,,,,,,,,1,,,57,78
526920,note_on,204,0,1,,,,,,,,,0,,,69,78
526920,note_on,204,0,4,,,,,,,,,3,,,45,78
526920,note_on,204,0,5,,,,,,,,,4,,,33,78
526998,note_off,78,0,5,,,,,,,,,4,,,33,0
526998,note_off,78,0,4,,,,,,,,,3,,,45,0
526998,note_off,78,0,2,,,,,,,,,1,,,57,0
526998,note_off,78,0,1,,,,,,,,,0,,,69,0
527000,set_tempo,920,1,0,,,,,,441176,,,,,,,
527040,set_tempo,40,1,0,,,,,,434782,,,,,,,
527040,note_on,42,0,4,,,,,,,,,3,,,45,85
527040,note_on,42,0,2,,,,,,,,,1,,,57,85
527040,note_on,42,0,5,,,,,,,,,4,,,33,85
527040,note_on,42,0,1,,,,,,,,,0,,,69,85
527400,note_off,360,0,4,,,,,,,,,3,,,45,0
527400,note_off,360,0,1,,,,,,,,,0,,,69,0
527400,note_off,360,0,5,,,,,,,,,4,,,33,0
527400,note_off,360,0,2,,,,,,,,,1,,,57,0
527520,note_on,120,0,4,,,,,,,,,3,,,50,80
527520,note_on,120,0,2,,,,,,,,,1,,,62,80
527520,note_on,120,0,1,,,,,,,,,0,,,74,80
527520,note_on,120,0,5,,,,,,,,,4,,,38,80
527676,note_off,156,0,2,,,,,,,,,1,,,62,0
527676,note_off,156,0,4,,,,,,,,,3,,,50,0
527676,note_off,156,0,1,,,,,,,,,0,,,74,0
527676,note_off,156,0,5,,,,,,,,,4,,,38,0
527880,note_on,204,0,2,,,,,,,,,1,,,66,81
527880,note_on,204,0,1,,,,,,,,,0,,,78,81
527880,note_on,204,0,4,,,,,,,,,3,,,54,81
527880,note_on,204,0,5,,,,,,,,,4,,,42,81
527940,set_tempo,900,1,0,,,,,,441176,,,,,,,
527958,note_off,78,0,5,,,,,,,,,4,,,42,0
527958,note_off,78,0,1,,,,,,,,,0,,,78,0
527958,note_off,78,0,2,,,,,,,,,1,,,66,0
527958,note_off,78,0,4,,,,,,,,,3,,,54,0
528000,note_on,42,0,4,,,,,,,,,3,,,57,87
528000,note_on,42,0,1,,,,,,,,,0,,,81,87
528000,note_on,42,0,2,,,,,,,,,1,,,69,87
528000,note_on,42,0,5,,,,,,,,,4,,,45,87
528480,set_tempo,540,1,0,,,,,,472440,,,,,,,
528840,note_off,840,0,5,,,,,,,,,4,,,45,0
528840,note_off,840,0,2,,,,,,,,,1,,,69,0
528840,note_off,840,0,4,,,,,,,,,3,,,57,0
528840,note_off,840,0,1,,,,,,,,,0,,,81,0
528960,note_on,120,0,4,,,,,,,,,3,,,64,59
528960,note_on,0,0,4,,,,,,,,,3,,,67,59
528960,note_on,120,0,5,,,,,,,,,4,,,57,59
528960,note_on,120,0,1,,,,,,,,,0,,,79,59
528960,set_tempo,480,1,0,,,,,,447761,,,,,,,
529000,note_off,40,0,1,,,,,,,,,0,,,79,0
529000,note_on,0,0,1,,,,,,,,,0,,,81,59
529020,set_tempo,60,1,0,,,,,,441176,,,,,,,
529040,note_off,40,0,1,,,,,,,,,0,,,81,0
529040,note_on,0,0,1,,,,,,,,,0,,,79,59
529080,note_off,40,0,1,,,,,,,,,0,,,79,0
529080,note_on,0,0,1,,,,,,,,,0,,,81,58
529120,note_off,40,0,1,,,,,,,,,0,,,81,0
529120,note_on,0,0,1,,,,,,,,,0,,,79,58
529160,note_off,40,0,1,,,,,,,,,0,,,79,0
529160,note_on,0,0,1,,,,,,,,,0,,,81,58
529200,note_on,0,0,1,,,,,,,,,0,,,79,58
529200,note_off,40,0,1,,,,,,,,,0,,,81,0
529240,note_on,0,0,1,,,,,,,,,0,,,81,58
529240,note_off,40,0,1,,,,,,,,,0,,,79,0
529280,note_on,0,0,1,,,,,,,,,0,,,79,58
529280,note_off,40,0,1,,,,,,,,,0,,,81,0
529320,note_on,0,0,1,,,,,,,,,0,,,78,58
529320,note_off,40,0,1,,,,,,,,,0,,,79,0
529380,note_off,60,0,1,,,,,,,,,0,,,78,0
529380,note_on,0,0,1,,,,,,,,,0,,,79,57
529400,set_tempo,380,1,0,,,,,,447761,,,,,,,
529440,note_off,60,0,1,,,,,,,,,0,,,79,0
529440,note_on,0,0,5,,,,,,,,,4,,,57,57
529440,set_tempo,40,1,0,,,,,,441176,,,,,,,
529440,note_on,0,0,1,,,,,,,,,0,,,76,57
529440,note_on,0,0,4,,,,,,,,,3,,,67,57
529440,note_on,0,0,4,,,,,,,,,3,,,64,57
529440,note_off,0,0,4,,,,,,,,,3,,,64,0
529440,note_off,480,0,4,,,,,,,,,3,,,67,0
529440,note_off,480,0,5,,,,,,,,,4,,,57,0
529596,note_off,156,0,1,,,,,,,,,0,,,76,0
529680,note_on,84,0,1,,,,,,,,,0,,,73,56
529836,note_off,156,0,1,,,,,,,,,0,,,73,0
529920,note_on,0,0,5,,,,,,,,,4,,,62,57
529920,note_on,84,0,1,,,,,,,,,0,,,74,57
529920,note_off,480,0,5,,,,,,,,,4,,,57,0
529920,note_off,480,0,4,,,,,,,,,3,,,67,0
529920,note_off,0,0,4,,,,,,,,,3,,,64,0
529920,note_on,0,0,4,,,,,,,,,3,,,66,57
530160,note_off,240,0,1,,,,,,,,,0,,,74,0
530160,note_on,0,0,1,,,,,,,,,0,,,78,54
530316,note_off,156,0,1,,,,,,,,,0,,,78,0
530340,set_tempo,900,1,0,,,,,,447761,,,,,,,
530400,note_on,84,0,1,,,,,,,,,0,,,69,51
530760,note_off,360,0,1,,,,,,,,,0,,,69,0
530760,set_tempo,420,1,0,,,,,,447761,,,,,,,
530760,note_off,840,0,5,,,,,,,,,4,,,62,0
530760,note_off,840,0,4,,,,,,,,,3,,,66,0
530880,note_on,120,0,4,,,,,,,,,3,,,47,51
530880,note_on,0,0,4,,,,,,,,,3,,,50,51
530880,note_on,120,0,5,,,,,,,,,4,,,40,51
530880,set_tempo,120,1,0,,,,,,447761,,,,,,,
530880,note_on,120,0,1,,,,,,,,,0,,,62,51
530920,note_on,0,0,1,,,,,,,,,0,,,64,50
530920,note_off,40,0,1,,,,,,,,,0,,,62,0
530940,set_tempo,60,1,0,,,,,,441176,,,,,,,
530960,note_off,40,0,1,,,,,,,,,0,,,64,0
530960,note_on,0,0,1,,,,,,,,,0,,,62,50
531000,note_on,0,0,1,,,,,,,,,0,,,64,50
531000,note_off,40,0,1,,,,,,,,,0,,,62,0
531040,note_on,0,0,1,,,,,,,,,0,,,62,50
531040,note_off,40,0,1,,,,,,,,,0,,,64,0
531080,note_on,0,0,1,,,,,,,,,0,,,64,49
531080,note_off,40,0,1,,,,,,,,,0,,,62,0
531120,note_on,0,0,1,,,,,,,,,0,,,62,49
531120,note_off,40,0,1,,,,,,,,,0,,,64,0
531160,note_off,40,0,1,,,,,,,,,0,,,62,0
531160,note_on,0,0,1,,,,,,,,,0,,,64,49
531200,note_on,0,0,1,,,,,,,,,0,,,62,48
531200,note_off,40,0,1,,,,,,,,,0,,,64,0
531240,note_off,40,0,1,,,,,,,,,0,,,62,0
531240,note_on,0,0,1,,,,,,,,,0,,,61,48
531300,note_off,60,0,1,,,,,,,,,0,,,61,0
531300,note_on,0,0,1,,,,,,,,,0,,,62,48
531320,set_tempo,380,1,0,,,,,,447761,,,,,,,
531360,note_on,0,0,1,,,,,,,,,0,,,59,49
531360,note_on,0,0,4,,,,,,,,,3,,,50,49
531360,note_off,480,0,5,,,,,,,,,4,,,40,0
531360,note_on,0,0,5,,,,,,,,,4,,,40,49
531360,note_on,0,0,4,,,,,,,,,3,,,47,49
531360,note_off,0,0,4,,,,,,,,,3,,,47,0
531360,note_off,480,0,4,,,,,,,,,3,,,50,0
531360,note_off,60,0,1,,,,,,,,,0,,,62,0
531516,note_off,156,0,1,,,,,,,,,0,,,59,0
531600,note_on,84,0,1,,,,,,,,,0,,,56,46
531756,note_off,156,0,1,,,,,,,,,0,,,56,0
531780,set_tempo,460,1,0,,,,,,454545,,,,,,,
531840,note_off,480,0,4,,,,,,,,,3,,,50,0
531840,note_on,0,0,4,,,,,,,,,3,,,49,44
531840,note_off,0,0,4,,,,,,,,,3,,,47,0
531840,note_off,480,0,5,,,,,,,,,4,,,40,0
531840,note_on,0,0,5,,,,,,,,,4,,,45,44
531840,note_on,84,0,1,,,,,,,,,0,,,57,44
532362,note_off,522,0,5,,,,,,,,,4,,,45,0
532362,note_off,522,0,1,,,,,,,,,0,,,57,0
532362,note_off,522,0,4,,,,,,,,,3,,,49,0
532560,set_tempo,780,1,0,,,,,,472440,,,,,,,
532800,set_tempo,240,1,0,,,,,,447761,,,,,,,
532800,note_on,438,0,1,,,,,,,,,0,,,79,54
532800,note_on,438,0,5,,,,,,,,,4,,,57,54
532800,note_on,0,0,4,,,,,,,,,3,,,64,54
532800,note_on,438,0,4,,,,,,,,,3,,,67,54
532840,note_on,0,0,1,,,,,,,,,0,,,81,54
532840,note_off,40,0,1,,,,,,,,,0,,,79,0
532860,set_tempo,60,1,0,,,,,,441176,,,,,,,
532880,note_on,0,0,1,,,,,,,,,0,,,79,54
532880,note_off,40,0,1,,,,,,,,,0,,,81,0
532920,note_off,40,0,1,,,,,,,,,0,,,79,0
532920,note_on,0,0,1,,,,,,,,,0,,,81,54
532960,note_on,0,0,1,,,,,,,,,0,,,79,54
532960,note_off,40,0,1,,,,,,,,,0,,,81,0
533000,note_off,40,0,1,,,,,,,,,0,,,79,0
533000,note_on,0,0,1,,,,,,,,,0,,,81,54
533040,note_off,40,0,1,,,,,,,,,0,,,81,0
533040,note_on,0,0,1,,,,,,,,,0,,,79,53
533080,note_off,40,0,1,,,,,,,,,0,,,79,0
533080,note_on,0,0,1,,,,,,,,,0,,,81,53
533120,note_off,40,0,1,,,,,,,,,0,,,81,0
533120,note_on,0,0,1,,,,,,,,,0,,,79,53
533160,note_off,40,0,1,,,,,,,,,0,,,79,0
533160,note_on,0,0,1,,,,,,,,,0,,,78,53
533220,note_off,60,0,1,,,,,,,,,0,,,78,0
533220,note_on,0,0,1,,,,,,,,,0,,,79,53
533240,set_tempo,380,1,0,,,,,,447761,,,,,,,
533280,note_off,480,0,4,,,,,,,,,3,,,64,0
533280,note_off,0,0,4,,,,,,,,,3,,,67,0
533280,note_on,0,0,4,,,,,,,,,3,,,67,53
533280,note_on,0,0,4,,,,,,,,,3,,,64,53
533280,note_off,480,0,5,,,,,,,,,4,,,57,0
533280,note_on,0,0,5,,,,,,,,,4,,,57,53
533280,note_off,60,0,1,,,,,,,,,0,,,79,0
533280,set_tempo,40,1,0,,,,,,441176,,,,,,,
533280,note_on,0,0,1,,,,,,,,,0,,,76,53
533436,note_off,156,0,1,,,,,,,,,0,,,76,0
533520,note_on,84,0,1,,,,,,,,,0,,,73,52
533676,note_off,156,0,1,,,,,,,,,0,,,73,0
533760,note_off,0,0,4,,,,,,,,,3,,,67,0
533760,note_on,0,0,5,,,,,,,,,4,,,62,53
533760,note_off,480,0,5,,,,,,,,,4,,,57,0
533760,note_on,84,0,1,,,,,,,,,0,,,74,53
533760,note_off,480,0,4,,,,,,,,,3,,,64,0
533760,note_on,0,0,4,,,,,,,,,3,,,66,53
534000,note_off,240,0,1,,,,,,,,,0,,,74,0
534000,note_on,0,0,1,,,,,,,,,0,,,78,50
534156,note_off,156,0,1,,,,,,,,,0,,,78,0
534180,set_tempo,900,1,0,,,,,,447761,,,,,,,
534240,note_on,84,0,1,,,,,,,,,0,,,69,47
534595,note_off,835,0,5,,,,,,,,,4,,,62,0
534600,note_off,840,0,4,,,,,,,,,3,,,66,0
534600,note_off,360,0,1,,,,,,,,,0,,,69,0
534720,note_on,125,0,5,,,,,,,,,4,,,33,47
534720,set_tempo,540,1,0,,,,,,447761,,,,,,,
534720,note_on,120,0,4,,,,,,,,,3,,,40,47
534720,note_on,0,0,4,,,,,,,,,3,,,43,47
534720,note_on,120,0,1,,,,,,,,,0,,,55,47
534760,note_off,40,0,1,,,,,,,,,0,,,55,0
534760,note_on,0,0,1,,,,,,,,,0,,,57,47
534780,set_tempo,60,1,0,,,,,,441176,,,,,,,
534800,note_off,40,0,1,,,,,,,,,0,,,57,0
534800,note_on,0,0,1,,,,,,,,,0,,,55,47
534840,note_off,40,0,1,,,,,,,,,0,,,55,0
534840,note_on,0,0,1,,,,,,,,,0,,,57,46
534880,note_off,40,0,1,,,,,,,,,0,,,57,0
534880,note_on,0,0,1,,,,,,,,,0,,,55,46
534920,note_off,40,0,1,,,,,,,,,0,,,55,0
534920,note_on,0,0,1,,,,,,,,,0,,,57,46
534960,note_off,40,0,1,,,,,,,,,0,,,57,0
534960,note_on,0,0,1,,,,,,,,,0,,,55,46
535000,note_off,40,0,1,,,,,,,,,0,,,55,0
535000,note_on,0,0,1,,,,,,,,,0,,,57,45
535040,note_off,40,0,1,,,,,,,,,0,,,57,0
535040,note_on,0,0,1,,,,,,,,,0,,,55,45
535080,note_off,40,0,1,,,,,,,,,0,,,55,0
535080,note_on,0,0,1,,,,,,,,,0,,,54,45
535140,note_off,60,0,1,,,,,,,,,0,,,54,0
535140,set_tempo,360,1,0,,,,,,447761,,,,,,,
535140,note_on,0,0,1,,,,,,,,,0,,,55,44
535200,note_on,0,0,5,,,,,,,,,4,,,33,44
535200,note_on,0,0,1,,,,,,,,,0,,,52,44
535200,note_on,0,0,4,,,,,,,,,3,,,40,44
535200,note_on,0,0,4,,,,,,,,,3,,,43,44
535200,note_off,0,0,4,,,,,,,,,3,,,40,0
535200,note_off,480,0,4,,,,,,,,,3,,,43,0
535200,note_off,60,0,1,,,,,,,,,0,,,55,0
535200,note_off,480,0,5,,,,,,,,,4,,,33,0
535440,note_off,240,0,1,,,,,,,,,0,,,52,0
535440,note_on,0,0,1,,,,,,,,,0,,,49,45
535570,set_tempo,430,1,0,,,,,,454545,,,,,,,
535680,note_off,240,0,1,,,,,,,,,0,,,49,0
535680,note_on,0,0,4,,,,,,,,,3,,,42,42
535680,note_on,0,0,5,,,,,,,,,4,,,38,42
535680,note_off,480,0,5,,,,,,,,,4,,,33,0
535680,note_off,480,0,4,,,,,,,,,3,,,40,0
535680,note_off,0,0,4,,,,,,,,,3,,,43,0
535680,note_on,0,0,1,,,,,,,,,0,,,50,42
536160,set_tempo,590,1,0,,,,,,500000,,,,,,,
536160,note_off,480,0,1,,,,,,,,,0,,,50,0
536160,note_off,480,0,5,,,,,,,,,4,,,38,0
536160,note_off,480,0,4,,,,,,,,,3,,,42,0
536520,set_tempo,360,1,0,,,,,,434782,,,,,,,
536520,note_on,360,0,4,,,,,,,,,3,,,41,64
536520,note_on,0,0,4,,,,,,,,,3,,,29,64
536520,note_on,0,0,4,,,,,,,,,3,,,53,64
536598,note_off,78,0,4,,,,,,,,,3,,,53,0
536598,note_off,0,0,4,,,,,,,,,3,,,29,0
536598,note_off,0,0,4,,,,,,,,,3,,,41,0
536600,set_tempo,80,1,0,,,,,,441176,,,,,,,
536640,note_on,0,0,4,,,,,,,,,3,,,29,64
536640,set_tempo,40,1,0,,,,,,434782,,,,,,,
536640,note_on,42,0,4,,,,,,,,,3,,,53,64
536640,note_on,0,0,4,,,,,,,,,3,,,41,64
537000,note_off,0,0,4,,,,,,,,,3,,,29,0
537000,note_off,0,0,4,,,,,,,,,3,,,53,0
537000,note_off,360,0,4,,,,,,,,,3,,,41,0
537120,note_on,120,0,4,,,,,,,,,3,,,58,65
537120,note_on,0,0,4,,,,,,,,,3,,,34,65
537120,note_on,0,0,4,,,,,,,,,3,,,46,65
537276,note_off,156,0,4,,,,,,,,,3,,,46,0
537276,note_off,0,0,4,,,,,,,,,3,,,34,0
537276,note_off,0,0,4,,,,,,,,,3,,,58,0
537480,note_on,204,0,4,,,,,,,,,3,,,41,65
537480,note_on,0,0,4,,,,,,,,,3,,,29,65
537480,note_on,0,0,4,,,,,,,,,3,,,53,65
537558,note_off,78,0,4,,,,,,,,,3,,,53,0
537558,note_off,0,0,4,,,,,,,,,3,,,41,0
537558,note_off,0,0,4,,,,,,,,,3,,,29,0
537560,set_tempo,920,1,0,,,,,,441176,,,,,,,
537600,note_on,0,0,4,,,,,,,,,3,,,53,65
537600,note_on,0,0,4,,,,,,,,,3,,,29,65
537600,note_on,42,0,4,,,,,,,,,3,,,41,65
537600,set_tempo,40,1,0,,,,,,434782,,,,,,,
537960,note_off,0,0,4,,,,,,,,,3,,,41,0
537960,note_off,0,0,4,,,,,,,,,3,,,29,0
537960,note_off,360,0,4,,,,,,,,,3,,,53,0
538080,note_on,0,0,4,,,,,,,,,3,,,58,66
538080,note_on,0,0,4,,,,,,,,,3,,,34,66
538080,note_on,120,0,4,,,,,,,,,3,,,46,66
538236,note_off,0,0,4,,,,,,,,,3,,,46,0
538236,note_off,0,0,4,,,,,,,,,3,,,34,0
538236,note_off,156,0,4,,,,,,,,,3,,,58,0
538440,note_on,0,0,4,,,,,,,,,3,,,29,66
538440,note_on,0,0,4,,,,,,,,,3,,,41,66
538440,note_on,204,0,4,,,,,,,,,3,,,53,66
538518,note_off,0,0,4,,,,,,,,,3,,,53,0
538518,note_off,78,0,4,,,,,,,,,3,,,29,0
538518,note_off,0,0,4,,,,,,,,,3,,,41,0
538520,set_tempo,920,1,0,,,,,,441176,,,,,,,
538560,set_tempo,40,1,0,,,,,,434782,,,,,,,
538560,note_on,42,0,4,,,,,,,,,3,,,41,66
538560,note_on,0,0,4,,,,,,,,,3,,,53,66
538560,note_on,0,0,4,,,,,,,,,3,,,29,66
538920,note_off,0,0,4,,,,,,,,,3,,,41,0
538920,note_off,0,0,4,,,,,,,,,3,,,29,0
538920,note_off,360,0,4,,,,,,,,,3,,,53,0
539040,note_on,0,0,4,,,,,,,,,3,,,48,67
539040,note_on,120,0,4,,,,,,,,,3,,,36,67
539040,note_on,0,0,4,,,,,,,,,3,,,60,67
539196,note_off,156,0,4,,,,,,,,,3,,,60,0
539196,note_off,0,0,4,,,,,,,,,3,,,48,0
539196,note_off,0,0,4,,,,,,,,,3,,,36,0
539400,note_on,0,0,4,,,,,,,,,3,,,41,67
539400,note_on,204,0,4,,,,,,,,,3,,,53,67
539400,note_on,0,0,4,,,,,,,,,3,,,29,67
539478,note_off,78,0,4,,,,,,,,,3,,,41,0
539478,note_off,0,0,4,,,,,,,,,3,,,53,0
539478,note_off,0,0,4,,,,,,,,,3,,,29,0
539480,set_tempo,920,1,0,,,,,,441176,,,,,,,
539520,note_on,42,0,4,,,,,,,,,3,,,53,68
539520,note_on,0,0,4,,,,,,,,,3,,,29,68
539520,note_on,0,0,4,,,,,,,,,3,,,41,68
539520,set_tempo,40,1,0,,,,,,434782,,,,,,,
539880,note_off,360,0,4,,,,,,,,,3,,,41,0
539880,note_off,0,0,4,,,,,,,,,3,,,29,0
539880,note_off,0,0,4,,,,,,,,,3,,,53,0
540000,note_on,0,0,4,,,,,,,,,3,,,48,68
540000,note_on,120,0,4,,,,,,,,,3,,,36,68
540000,note_on,0,0,4,,,,,,,,,3,,,60,68
540156,note_off,0,0,4,,,,,,,,,3,,,36,0
540156,note_off,156,0,4,,,,,,,,,3,,,60,0
540156,note_off,0,0,4,,,,,,,,,3,,,48,0
540360,note_on,204,0,4,,,,,,,,,3,,,29,69
540360,note_on,0,0,4,,,,,,,,,3,,,41,69
540360,note_on,0,0,4,,,,,,,,,3,,,53,69
540360,set_tempo,840,1,0,,,,,,441176,,,,,,,
540360,note_on,4200,0,1,,,,,,,,,0,,,77,69
540360,note_on,11520,0,2,,,,,,,,,1,,,65,69
540438,note_off,78,0,1,,,,,,,,,0,,,77,0
540438,note_off,78,0,2,,,,,,,,,1,,,65,0
540438,note_off,0,0,4,,,,,,,,,3,,,29,0
540438,note_off,0,0,4,,,,,,,,,3,,,41,0
540438,note_off,78,0,4,,,,,,,,,3,,,53,0
540480,note_on,0,0,4,,,,,,,,,3,,,53,69
540480,note_on,0,0,4,,,,,,,,,3,,,29,69
540480,note_on,42,0,1,,,,,,,,,0,,,77,69
540480,set_tempo,120,1,0,,,,,,434782,,,,,,,
540480,note_on,42,0,4,,,,,,,,,3,,,41,69
540480,note_on,42,0,2,,,,,,,,,1,,,65,69
540640,note_on,0,0,2,,,,,,,,,1,,,70,69
540640,note_off,160,0,1,,,,,,,,,0,,,77,0
540640,note_off,160,0,2,,,,,,,,,1,,,65,0
540640,note_on,0,0,1,,,,,,,,,0,,,74,69
540744,note_off,104,0,1,,,,,,,,,0,,,74,0
540744,note_off,104,0,2,,,,,,,,,1,,,70,0
540800,note_on,56,0,2,,,,,,,,,1,,,65,69
540800,note_on,56,0,1,,,,,,,,,0,,,77,69
540840,note_off,360,0,4,,,,,,,,,3,,,53,0
540840,note_off,0,0,4,,,,,,,,,3,,,29,0
540840,note_off,0,0,4,,,,,,,,,3,,,41,0
540904,note_off,104,0,1,,,,,,,,,0,,,77,0
540904,note_off,104,0,2,,,,,,,,,1,,,65,0
540960,note_on,56,0,1,,,,,,,,,0,,,77,69
540960,note_on,120,0,4,,,,,,,,,3,,,46,69
540960,note_on,56,0,2,,,,,,,,,1,,,65,69
540960,note_on,0,0,4,,,,,,,,,3,,,58,69
540960,note_on,0,0,4,,,,,,,,,3,,,34,69
541116,note_off,156,0,4,,,,,,,,,3,,,58,0
541116,note_off,0,0,4,,,,,,,,,3,,,34,0
541116,note_off,0,0,4,,,,,,,,,3,,,46,0
541120,note_on,0,0,2,,,,,,,,,1,,,70,70
541120,note_on,0,0,1,,,,,,,,,0,,,74,70
541120,note_off,160,0,1,,,,,,,,,0,,,77,0
541120,note_off,160,0,2,,,,,,,,,1,,,65,0
541224,note_off,104,0,2,,,,,,,,,1,,,70,0
541224,note_off,104,0,1,,,,,,,,,0,,,74,0
541280,note_on,56,0,2,,,,,,,,,1,,,65,70
541280,note_on,56,0,1,,,,,,,,,0,,,77,70
541320,note_on,0,0,4,,,,,,,,,3,,,41,70
541320,note_on,0,0,4,,,,,,,,,3,,,29,70
541320,note_on,204,0,4,,,,,,,,,3,,,53,70
541384,note_off,104,0,1,,,,,,,,,0,,,77,0
541384,note_off,104,0,2,,,,,,,,,1,,,65,0
541398,note_off,0,0,4,,,,,,,,,3,,,29,0
541398,note_off,78,0,4,,,,,,,,,3,,,41,0
541398,note_off,0,0,4,,,,,,,,,3,,,53,0
541400,set_tempo,920,1,0,,,,,,441176,,,,,,,
541440,note_on,42,0,4,,,,,,,,,3,,,53,70
541440,note_on,56,0,1,,,,,,,,,0,,,77,70
541440,note_on,0,0,4,,,,,,,,,3,,,29,70
541440,note_on,0,0,4,,,,,,,,,3,,,41,70
541440,note_on,56,0,2,,,,,,,,,1,,,65,70
541440,set_tempo,40,1,0,,,,,,434782,,,,,,,
541600,note_on,0,0,1,,,,,,,,,0,,,74,70
541600,note_off,160,0,1,,,,,,,,,0,,,77,0
541600,note_off,160,0,2,,,,,,,,,1,,,65,0
541600,note_on,0,0,2,,,,,,,,,1,,,70,70
541704,note_off,104,0,1,,,,,,,,,0,,,74,0
541704,note_off,104,0,2,,,,,,,,,1,,,70,0
541760,note_on,56,0,2,,,,,,,,,1,,,65,70
541760,note_on,56,0,1,,,,,,,,,0,,,77,70
541800,note_off,0,0,4,,,,,,,,,3,,,53,0
541800,note_off,360,0,4,,,,,,,,,3,,,41,0
541800,note_off,0,0,4,,,,,,,,,3,,,29,0
541864,note_off,104,0,1,,,,,,,,,0,,,77,0
541864,note_off,104,0,2,,,,,,,,,1,,,65,0
541920,note_on,0,0,4,,,,,,,,,3,,,46,71
541920,note_on,0,0,4,,,,,,,,,3,,,34,71
541920,note_on,120,0,4,,,,,,,,,3,,,58,71
541920,note_on,56,0,1,,,,,,,,,0,,,77,71
541920,note_on,56,0,2,,,,,,,,,1,,,65,71
542076,note_off,0,0,4,,,,,,,,,3,,,58,0
542076,note_off,0,0,4,,,,,,,,,3,,,34,0
542076,note_off,156,0,4,,,,,,,,,3,,,46,0
542080,note_off,160,0,2,,,,,,,,,1,,,65,0
542080,note_on,0,0,1,,,,,,,,,0,,,74,71
542080,note_off,160,0,1,,,,,,,,,0,,,77,0
542080,note_on,0,0,2,,,,,,,,,1,,,70,71
542184,note_off,104,0,2,,,,,,,,,1,,,70,0
542184,note_off,104,0,1,,,,,,,,,0,,,74,0
542240,note_on,56,0,2,,,,,,,,,1,,,65,71
542240,note_on,56,0,1,,,,,,,,,0,,,77,71
542280,note_on,0,0,4,,,,,,,,,3,,,53,71
542280,note_on,204,0,4,,,,,,,,,3,,,29,71
542280,note_on,0,0,4,,,,,,,,,3,,,41,71
542344,note_off,104,0,2,,,,,,,,,1,,,65,0
542344,note_off,104,0,1,,,,,,,,,0,,,77,0
542358,note_off,78,0,4,,,,,,,,,3,,,53,0
542358,note_off,0,0,4,,,,,,,,,3,,,41,0
542358,note_off,0,0,4,,,,,,,,,3,,,29,0
542360,set_tempo,920,1,0,,,,,,441176,,,,,,,
542400,note_on,0,0,4,,,,,,,,,3,,,29,71
542400,note_on,56,0,1,,,,,,,,,0,,,77,71
542400,set_tempo,40,1,0,,,,,,434782,,,,,,,
542400,note_on,56,0,2,,,,,,,,,1,,,65,71
542400,note_on,0,0,4,,,,,,,,,3,,,41,71
542400,note_on,42,0,4,,,,,,,,,3,,,53,71
542560,note_off,160,0,1,,,,,,,,,0,,,77,0
542560,note_off,160,0,2,,,,,,,,,1,,,65,0
542560,note_on,0,0,2,,,,,,,,,1,,,69,71
542560,note_on,0,0,1,,,,,,,,,0,,,75,71
542664,note_off,104,0,1,,,,,,,,,0,,,75,0
542664,note_off,104,0,2,,,,,,,,,1,,,69,0
542720,note_on,56,0,2,,,,,,,,,1,,,65,72
542720,note_on,56,0,1,,,,,,,,,0,,,77,72
542760,note_off,360,0,4,,,,,,,,,3,,,41,0
542760,note_off,0,0,4,,,,,,,,,3,,,29,0
542760,note_off,0,0,4,,,,,,,,,3,,,53,0
542824,note_off,104,0,2,,,,,,,,,1,,,65,0
542824,note_off,104,0,1,,,,,,,,,0,,,77,0
542880,note_on,56,0,1,,,,,,,,,0,,,77,72
542880,note_on,120,0,4,,,,,,,,,3,,,60,72
542880,note_on,0,0,4,,,,,,,,,3,,,48,72
542880,note_on,0,0,4,,,,,,,,,3,,,36,72
542880,note_on,56,0,2,,,,,,,,,1,,,65,72
543036,note_off,156,0,4,,,,,,,,,3,,,36,0
543036,note_off,0,0,4,,,,,,,,,3,,,48,0
543036,note_off,0,0,4,,,,,,,,,3,,,60,0
543040,note_on,0,0,1,,,,,,,,,0,,,75,72
543040,note_on,0,0,2,,,,,,,,,1,,,69,72
543040,note_off,160,0,1,,,,,,,,,0,,,77,0
543040,note_off,160,0,2,,,,,,,,,1,,,65,0
543144,note_off,104,0,2,,,,,,,,,1,,,69,0
543144,note_off,104,0,1,,,,,,,,,0,,,75,0
543200,note_on,56,0,2,,,,,,,,,1,,,65,72
543200,note_on,56,0,1,,,,,,,,,0,,,77,72
543240,note_on,0,0,4,,,,,,,,,3,,,29,72
543240,note_on,204,0,4,,,,,,,,,3,,,41,72
543240,note_on,0,0,4,,,,,,,,,3,,,53,72
543304,note_off,104,0,2,,,,,,,,,1,,,65,0
543304,note_off,104,0,1,,,,,,,,,0,,,77,0
543318,note_off,0,0,4,,,,,,,,,3,,,29,0
543318,note_off,78,0,4,,,,,,,,,3,,,53,0
543318,note_off,0,0,4,,,,,,,,,3,,,41,0
543320,set_tempo,920,1,0,,,,,,441176,,,,,,,
543360,note_on,56,0,2,,,,,,,,,1,,,65,72
543360,set_tempo,40,1,0,,,,,,434782,,,,,,,
543360,note_on,42,0,4,,,,,,,,,3,,,41,72
543360,note_on,0,0,4,,,,,,,,,3,,,29,72
543360,note_on,0,0,4,,,,,,,,,3,,,53,72
543360,note_on,56,0,1,,,,,,,,,0,,,77,72
543520,note_on,0,0,2,,,,,,,,,1,,,69,73
543520,note_on,0,0,1,,,,,,,,,0,,,75,73
543520,note_off,160,0,1,,,,,,,,,0,,,77,0
543520,note_off,160,0,2,,,,,,,,,1,,,65,0
543624,note_off,104,0,2,,,,,,,,,1,,,69,0
543624,note_off,104,0,1,,,,,,,,,0,,,75,0
543680,note_on,56,0,2,,,,,,,,,1,,,65,73
543680,note_on,56,0,1,,,,,,,,,0,,,77,73
543720,note_off,360,0,4,,,,,,,,,3,,,53,0
543720,note_off,0,0,4,,,,,,,,,3,,,29,0
543720,note_off,0,0,4,,,,,,,,,3,,,41,0
543784,note_off,104,0,2,,,,,,,,,1,,,65,0
543784,note_off,104,0,1,,,,,,,,,0,,,77,0
543840,note_on,56,0,1,,,,,,,,,0,,,77,73
543840,note_on,56,0,2,,,,,,,,,1,,,65,73
543840,note_on,0,0,4,,,,,,,,,3,,,48,73
543840,note_on,120,0,4,,,,,,,,,3,,,60,73
543840,note_on,0,0,4,,,,,,,,,3,,,36,73
543996,note_off,156,0,4,,,,,,,,,3,,,36,0
543996,note_off,0,0,4,,,,,,,,,3,,,48,0
543996,note_off,0,0,4,,,,,,,,,3,,,60,0
544000,note_off,160,0,1,,,,,,,,,0,,,77,0
544000,note_on,0,0,2,,,,,,,,,1,,,69,73
544000,note_off,160,0,2,,,,,,,,,1,,,65,0
544000,note_on,0,0,1,,,,,,,,,0,,,75,73
544104,note_off,104,0,2,,,,,,,,,1,,,69,0
544104,note_off,104,0,1,,,,,,,,,0,,,75,0
544160,note_on,56,0,1,,,,,,,,,0,,,77,73
544160,note_on,56,0,2,,,,,,,,,1,,,65,73
544200,note_on,0,0,4,,,,,,,,,3,,,29,73
544200,note_on,204,0,4,,,,,,,,,3,,,53,73
544200,note_on,0,0,4,,,,,,,,,3,,,41,73
544200,set_tempo,840,1,0,,,,,,441176,,,,,,,
544264,note_off,104,0,2,,,,,,,,,1,,,65,0
544264,note_off,104,0,1,,,,,,,,,0,,,77,0
544278,note_off,0,0,4,,,,,,,,,3,,,53,0
544278,note_off,0,0,4,,,,,,,,,3,,,41,0
544278,note_off,78,0,4,,,,,,,,,3,,,29,0
544320,set_tempo,120,1,0,,,,,,434782,,,,,,,
544320,note_on,19680,0,3,,,,,,,,,2,,,53,74
544320,note_on,42,0,4,,,,,,,,,3,,,46,74
544320,note_on,56,0,1,,,,,,,,,0,,,77,74
544320,note_on,56,0,2,,,,,,,,,1,,,65,74
544320,note_on,0,0,4,,,,,,,,,3,,,34,74
544480,note_on,0,0,3,,,,,,,,,2,,,58,74
544480,note_off,160,0,3,,,,,,,,,2,,,53,0
544608,note_off,288,0,1,,,,,,,,,0,,,77,0
544640,note_on,0,0,3,,,,,,,,,2,,,53,74
544640,note_off,160,0,3,,,,,,,,,2,,,58,0
544680,note_on,72,0,1,,,,,,,,,0,,,82,74
544776,note_off,96,0,1,,,,,,,,,0,,,82,0
544800,note_on,0,0,2,,,,,,,,,1,,,70,74
544800,note_off,0,0,4,,,,,,,,,3,,,46,0
544800,note_on,0,0,2,,,,,,,,,1,,,62,74
544800,note_on,0,0,2,,,,,,,,,1,,,65,74
544800,note_off,160,0,3,,,,,,,,,2,,,53,0
544800,note_on,0,0,3,,,,,,,,,2,,,50,74
544800,note_off,480,0,4,,,,,,,,,3,,,34,0
544800,note_off,480,0,2,,,,,,,,,1,,,65,0
544800,set_tempo,480,1,0,,,,,,447761,,,,,,,
544800,note_on,24,0,1,,,,,,,,,0,,,82,74
544840,note_on,0,0,1,,,,,,,,,0,,,84,74
544840,note_off,40,0,1,,,,,,,,,0,,,82,0
544860,set_tempo,60,1,0,,,,,,441176,,,,,,,
544880,note_off,40,0,1,,,,,,,,,0,,,84,0
544880,note_on,0,0,1,,,,,,,,,0,,,82,74
544920,note_on,0,0,1,,,,,,,,,0,,,84,74
544920,note_off,40,0,1,,,,,,,,,0,,,82,0
544960,note_off,40,0,1,,,,,,,,,0,,,84,0
544960,note_on,0,0,1,,,,,,,,,0,,,82,74
544960,note_off,160,0,3,,,,,,,,,2,,,50,0
544960,note_on,0,0,3,,,,,,,,,2,,,46,74
545000,note_off,40,0,1,,,,,,,,,0,,,82,0
545000,note_on,0,0,1,,,,,,,,,0,,,84,74
545040,note_on,0,0,1,,,,,,,,,0,,,82,74
545040,note_off,40,0,1,,,,,,,,,0,,,84,0
545080,note_on,0,0,1,,,,,,,,,0,,,84,75
545080,note_off,40,0,1,,,,,,,,,0,,,82,0
545120,note_on,0,0,3,,,,,,,,,2,,,58,75
545120,note_off,40,0,1,,,,,,,,,0,,,84,0
545120,note_on,0,0,1,,,,,,,,,0,,,82,75
545120,note_off,160,0,3,,,,,,,,,2,,,46,0
545160,note_off,40,0,1,,,,,,,,,0,,,82,0
545160,note_on,0,0,1,,,,,,,,,0,,,81,75
545220,note_on,0,0,1,,,,,,,,,0,,,82,75
545220,note_off,60,0,1,,,,,,,,,0,,,81,0
545240,set_tempo,380,1,0,,,,,,441176,,,,,,,
545280,note_on,480,0,4,,,,,,,,,3,,,34,75
545280,note_on,0,0,4,,,,,,,,,3,,,46,75
545280,note_off,480,0,2,,,,,,,,,1,,,62,0
545280,note_off,160,0,3,,,,,,,,,2,,,58,0
545280,note_off,60,0,1,,,,,,,,,0,,,82,0
545280,note_on,0,0,1,,,,,,,,,0,,,77,75
545280,note_off,0,0,2,,,,,,,,,1,,,65,0
545280,note_off,0,0,2,,,,,,,,,1,,,70,0
545280,set_tempo,40,1,0,,,,,,434782,,,,,,,
545440,note_on,160,0,3,,,,,,,,,2,,,58,75
545568,note_off,288,0,1,,,,,,,,,0,,,77,0
545600,note_off,160,0,3,,,,,,,,,2,,,58,0
545600,note_on,0,0,3,,,,,,,,,2,,,53,75
545640,note_on,72,0,1,,,,,,,,,0,,,82,75
545736,note_off,96,0,1,,,,,,,,,0,,,82,0
545760,note_on,480,0,2,,,,,,,,,1,,,65,75
545760,note_off,480,0,4,,,,,,,,,3,,,46,0
545760,note_on,0,0,2,,,,,,,,,1,,,70,75
545760,note_on,0,0,3,,,,,,,,,2,,,50,75
545760,note_off,160,0,3,,,,,,,,,2,,,53,0
545760,note_on,0,0,2,,,,,,,,,1,,,62,75
545760,note_off,0,0,4,,,,,,,,,3,,,34,0
545760,note_on,24,0,1,,,,,,,,,0,,,82,75
545760,set_tempo,480,1,0,,,,,,447761,,,,,,,
545800,note_on,0,0,1,,,,,,,,,0,,,84,75
545800,note_off,40,0,1,,,,,,,,,0,,,82,0
545820,set_tempo,60,1,0,,,,,,441176,,,,,,,
545840,note_on,0,0,1,,,,,,,,,0,,,82,75
545840,note_off,40,0,1,,,,,,,,,0,,,84,0
545880,note_off,40,0,1,,,,,,,,,0,,,82,0
545880,note_on,0,0,1,,,,,,,,,0,,,84,76
545920,note_on,0,0,1,,,,,,,,,0,,,82,76
545920,note_off,40,0,1,,,,,,,,,0,,,84,0
545920,note_off,160,0,3,,,,,,,,,2,,,50,0
545920,note_on,0,0,3,,,,,,,,,2,,,46,76
545960,note_on,0,0,1,,,,,,,,,0,,,84,76
545960,note_off,40,0,1,,,,,,,,,0,,,82,0
546000,note_on,0,0,1,,,,,,,,,0,,,82,76
546000,note_off,40,0,1,,,,,,,,,0,,,84,0
546040,note_on,0,0,1,,,,,,,,,0,,,84,76
546040,note_off,40,0,1,,,,,,,,,0,,,82,0
546080,note_off,160,0,3,,,,,,,,,2,,,46,0
546080,note_on,0,0,3,,,,,,,,,2,,,58,76
546080,note_off,40,0,1,,,,,,,,,0,,,84,0
546080,note_on,0,0,1,,,,,,,,,0,,,82,76
546120,note_on,0,0,1,,,,,,,,,0,,,81,76
546120,note_off,40,0,1,,,,,,,,,0,,,82,0
546180,note_off,60,0,1,,,,,,,,,0,,,81,0
546180,note_on,0,0,1,,,,,,,,,0,,,82,76
546200,set_tempo,380,1,0,,,,,,441176,,,,,,,
546240,set_tempo,40,1,0,,,,,,434782,,,,,,,
546240,note_off,0,0,2,,,,,,,,,1,,,65,0
546240,note_off,0,0,2,,,,,,,,,1,,,62,0
546240,note_off,480,0,2,,,,,,,,,1,,,70,0
546240,note_off,160,0,3,,,,,,,,,2,,,58,0
546240,note_off,60,0,1,,,,,,,,,0,,,82,0
546240,note_on,480,0,4,,,,,,,,,3,,,39,76
546240,note_on,0,0,1,,,,,,,,,0,,,79,76
546400,note_on,160,0,3,,,,,,,,,2,,,58,76
546528,note_off,288,0,1,,,,,,,,,0,,,79,0
546560,note_on,0,0,3,,,,,,,,,2,,,55,76
546560,note_off,160,0,3,,,,,,,,,2,,,58,0
546600,note_on,72,0,1,,,,,,,,,0,,,82,76
546600,note_on,360,0,2,,,,,,,,,1,,,79,76
546680,set_tempo,440,1,0,,,,,,441176,,,,,,,
546696,note_off,96,0,2,,,,,,,,,1,,,79,0
546696,note_off,96,0,1,,,,,,,,,0,,,82,0
546720,note_off,480,0,4,,,,,,,,,3,,,39,0
546720,note_off,160,0,3,,,,,,,,,2,,,55,0
546720,note_on,0,0,3,,,,,,,,,2,,,51,77
546720,note_on,0,0,2,,,,,,,,,1,,,63,77
546720,set_tempo,40,1,0,,,,,,434782,,,,,,,
546720,note_on,24,0,2,,,,,,,,,1,,,67,77
546720,note_on,0,0,2,,,,,,,,,1,,,70,77
546720,note_on,24,0,1,,,,,,,,,0,,,82,87
546720,note_on,0,0,2,,,,,,,,,1,,,79,88
546880,note_off,160,0,3,,,,,,,,,2,,,51,0
546880,note_on,0,0,3,,,,,,,,,2,,,46,77
547040,note_off,160,0,3,,,,,,,,,2,,,46,0
547040,note_on,0,0,3,,,,,,,,,2,,,58,77
547160,set_tempo,440,1,0,,,,,,441176,,,,,,,
547200,note_on,0,0,2,,,,,,,,,1,,,63,77
547200,note_on,480,0,4,,,,,,,,,3,,,39,77
547200,note_on,0,0,2,,,,,,,,,1,,,70,77
547200,note_on,0,0,2,,,,,,,,,1,,,67,77
547200,note_off,0,0,2,,,,,,,,,1,,,67,0
547200,note_off,0,0,2,,,,,,,,,1,,,70,0
547200,set_tempo,40,1,0,,,,,,434782,,,,,,,
547200,note_off,160,0,3,,,,,,,,,2,,,58,0
547200,note_off,480,0,2,,,,,,,,,1,,,63,0
547360,note_on,160,0,3,,,,,,,,,2,,,58,77
547520,note_on,0,0,3,,,,,,,,,2,,,55,78
547520,note_off,160,0,3,,,,,,,,,2,,,58,0
547680,note_on,0,0,3,,,,,,,,,2,,,51,78
547680,note_off,160,0,3,,,,,,,,,2,,,55,0
547680,note_off,480,0,2,,,,,,,,,1,,,63,0
547680,note_off,0,0,2,,,,,,,,,1,,,70,0
547680,note_off,0,0,2,,,,,,,,,1,,,67,0
547680,note_off,0,0,2,,,,,,,,,1,,,79,0
547680,note_on,0,0,2,,,,,,,,,1,,,67,78
547680,note_on,0,0,2,,,,,,,,,1,,,63,78
547680,note_on,0,0,2,,,,,,,,,1,,,70,78
547680,note_on,0,0,2,,,,,,,,,1,,,80,78
547680,note_off,480,0,4,,,,,,,,,3,,,39,0
547680,note_off,960,0,1,,,,,,,,,0,,,82,0
547680,note_on,0,0,1,,,,,,,,,0,,,84,78
547800,note_off,120,0,1,,,,,,,,,0,,,84,0
547800,note_on,0,0,1,,,,,,,,,0,,,82,78
547800,note_on,0,0,2,,,,,,,,,1,,,79,78
547800,note_off,120,0,2,,,,,,,,,1,,,80,0
547840,note_off,160,0,3,,,,,,,,,2,,,51,0
547840,note_on,0,0,3,,,,,,,,,2,,,46,78
547920,note_on,0,0,1,,,,,,,,,0,,,81,78
547920,note_on,0,0,2,,,,,,,,,1,,,77,78
547920,note_off,120,0,1,,,,,,,,,0,,,82,0
547920,note_off,120,0,2,,,,,,,,,1,,,79,0
548000,note_on,0,0,3,,,,,,,,,2,,,58,78
548000,note_off,160,0,3,,,,,,,,,2,,,46,0
548040,note_on,0,0,2,,,,,,,,,1,,,75,78
548040,note_off,120,0,2,,,,,,,,,1,,,77,0
548040,note_on,0,0,1,,,,,,,,,0,,,79,78
548040,note_off,120,0,1,,,,,,,,,0,,,81,0
548122,set_tempo,922,1,0,,,,,,441176,,,,,,,
548160,note_on,0,0,1,,,,,,,,,0,,,77,78
548160,note_off,0,0,2,,,,,,,,,1,,,70,0
548160,note_on,480,0,4,,,,,,,,,3,,,41,78
548160,note_off,120,0,2,,,,,,,,,1,,,75,0
548160,note_off,120,0,1,,,,,,,,,0,,,79,0
548160,note_off,0,0,2,,,,,,,,,1,,,63,0
548160,set_tempo,38,1,0,,,,,,434782,,,,,,,
548160,note_on,0,0,2,,,,,,,,,1,,,62,78
548160,note_on,0,0,2,,,,,,,,,1,,,65,78
548160,note_on,0,0,2,,,,,,,,,1,,,74,78
548160,note_off,160,0,3,,,,,,,,,2,,,58,0
548160,note_off,0,0,2,,,,,,,,,1,,,67,0
548320,note_on,160,0,3,,,,,,,,,2,,,53,78
548480,note_on,0,0,3,,,,,,,,,2,,,50,79
548480,note_off,160,0,3,,,,,,,,,2,,,53,0
548520,note_off,360,0,1,,,,,,,,,0,,,77,0
548520,note_off,0,0,2,,,,,,,,,1,,,62,0
548520,note_off,0,0,2,,,,,,,,,1,,,65,0
548520,note_off,360,0,2,,,,,,,,,1,,,74,0
548640,note_on,120,0,2,,,,,,,,,1,,,62,79
548640,note_on,0,0,3,,,,,,,,,2,,,46,79
548640,note_off,480,0,4,,,,,,,,,3,,,41,0
548640,note_on,0,0,3,,,,,,,,,2,,,58,79
548640,note_on,120,0,1,,,,,,,,,0,,,74,79
548640,note_on,0,0,2,,,,,,,,,1,,,70,79
548640,note_off,160,0,3,,,,,,,,,2,,,50,0
548800,note_off,160,0,3,,,,,,,,,2,,,46,0
548800,note_on,0,0,3,,,,,,,,,2,,,41,79
548928,note_off,288,0,1,,,,,,,,,0,,,74,0
548928,note_off,288,0,2,,,,,,,,,1,,,70,0
548928,note_off,0,0,2,,,,,,,,,1,,,62,0
548928,note_off,128,0,3,,,,,,,,,2,,,58,0
548960,note_off,32,0,3,,,,,,,,,2,,,41,0
548960,note_on,0,0,3,,,,,,,,,2,,,53,79
549000,note_on,0,0,2,,,,,,,,,1,,,70,81
549000,note_on,72,0,1,,,,,,,,,0,,,74,81
549000,note_on,40,0,3,,,,,,,,,2,,,58,81
549000,note_on,72,0,2,,,,,,,,,1,,,62,81
549080,set_tempo,920,1,0,,,,,,441176,,,,,,,
549096,note_off,96,0,1,,,,,,,,,0,,,74,0
549096,note_off,96,0,3,,,,,,,,,2,,,58,0
549096,note_off,96,0,2,,,,,,,,,1,,,70,0
549096,note_off,0,0,2,,,,,,,,,1,,,62,0
549120,note_on,480,0,4,,,,,,,,,3,,,29,80
549120,note_on,0,0,2,,,,,,,,,1,,,60,80
549120,note_on,24,0,2,,,,,,,,,1,,,63,80
549120,note_off,24,0,3,,,,,,,,,2,,,53,0
549120,set_tempo,40,1,0,,,,,,434782,,,,,,,
549120,note_on,0,0,2,,,,,,,,,1,,,72,80
549120,note_on,24,0,1,,,,,,,,,0,,,75,80
549280,note_on,160,0,3,,,,,,,,,2,,,53,79
549440,note_on,0,0,3,,,,,,,,,2,,,48,78
549440,note_off,160,0,3,,,,,,,,,2,,,53,0
549480,note_off,0,0,2,,,,,,,,,1,,,60,0
549480,note_off,0,0,2,,,,,,,,,1,,,63,0
549480,note_off,360,0,2,,,,,,,,,1,,,72,0
549480,note_off,360,0,1,,,,,,,,,0,,,75,0
549600,note_on,0,0,3,,,,,,,,,2,,,57,77
549600,note_on,0,0,3,,,,,,,,,2,,,45,77
549600,note_on,120,0,1,,,,,,,,,0,,,72,77
549600,note_on,120,0,2,,,,,,,,,1,,,60,77
549600,note_off,160,0,3,,,,,,,,,2,,,48,0
549600,note_off,480,0,4,,,,,,,,,3,,,29,0
549600,note_on,0,0,2,,,,,,,,,1,,,69,77
549760,note_off,160,0,3,,,,,,,,,2,,,45,0
549760,note_on,0,0,3,,,,,,,,,2,,,41,76
549888,note_off,288,0,2,,,,,,,,,1,,,69,0
549888,note_off,0,0,2,,,,,,,,,1,,,60,0
549888,note_off,288,0,1,,,,,,,,,0,,,72,0
549888,note_off,128,0,3,,,,,,,,,2,,,57,0
549920,note_off,32,0,3,,,,,,,,,2,,,41,0
549920,note_on,0,0,3,,,,,,,,,2,,,53,75
549960,note_on,72,0,2,,,,,,,,,1,,,65,74
549960,note_on,72,0,1,,,,,,,,,0,,,77,74
549967,set_tempo,847,1,0,,,,,,441176,,,,,,,
550056,note_off,96,0,2,,,,,,,,,1,,,65,0
550056,note_off,96,0,1,,,,,,,,,0,,,77,0
550080,note_on,480,0,4,,,,,,,,,3,,,34,74
550080,set_tempo,113,1,0,,,,,,434782,,,,,,,
550080,note_off,160,0,3,,,,,,,,,2,,,53,0
550080,note_on,24,0,2,,,,,,,,,1,,,65,74
550080,note_on,24,0,1,,,,,,,,,0,,,77,74
550240,note_off,160,0,1,,,,,,,,,0,,,77,0
550240,note_on,0,0,1,,,,,,,,,0,,,74,74
550240,note_off,160,0,2,,,,,,,,,1,,,65,0
550240,note_on,0,0,2,,,,,,,,,1,,,70,74
550240,note_on,160,0,3,,,,,,,,,2,,,50,74
550240,note_on,0,0,3,,,,,,,,,2,,,46,74
550344,note_off,104,0,2,,,,,,,,,1,,,70,0
550344,note_off,104,0,1,,,,,,,,,0,,,74,0
550400,note_off,0,0,3,,,,,,,,,2,,,50,0
550400,note_off,160,0,3,,,,,,,,,2,,,46,0
550400,note_on,56,0,1,,,,,,,,,0,,,82,75
550400,note_on,0,0,3,,,,,,,,,2,,,53,75
550400,note_on,56,0,2,,,,,,,,,1,,,65,75
550440,note_off,360,0,4,,,,,,,,,3,,,34,0
550504,note_off,104,0,2,,,,,,,,,1,,,65,0
550504,note_off,104,0,1,,,,,,,,,0,,,82,0
550560,note_on,120,0,4,,,,,,,,,3,,,46,75
550560,note_off,160,0,3,,,,,,,,,2,,,53,0
550560,note_on,56,0,2,,,,,,,,,1,,,65,75
550560,note_on,56,0,1,,,,,,,,,0,,,82,75
550720,note_off,160,0,2,,,,,,,,,1,,,65,0
550720,note_on,0,0,2,,,,,,,,,1,,,70,75
550720,note_on,160,0,3,,,,,,,,,2,,,50,75
550720,note_on,0,0,3,,,,,,,,,2,,,53,75
550720,note_off,160,0,1,,,,,,,,,0,,,82,0
550720,note_on,0,0,1,,,,,,,,,0,,,77,75
550824,note_off,104,0,1,,,,,,,,,0,,,77,0
550824,note_off,104,0,2,,,,,,,,,1,,,70,0
550880,note_on,56,0,1,,,,,,,,,0,,,77,76
550880,note_off,160,0,3,,,,,,,,,2,,,53,0
550880,note_on,56,0,2,,,,,,,,,1,,,65,76
550880,note_off,0,0,3,,,,,,,,,2,,,50,0
550880,note_on,0,0,3,,,,,,,,,2,,,58,76
550920,note_off,360,0,4,,,,,,,,,3,,,46,0
550984,note_off,104,0,1,,,,,,,,,0,,,77,0
550984,note_off,104,0,2,,,,,,,,,1,,,65,0
551000,set_tempo,920,1,0,,,,,,441176,,,,,,,
551040,set_tempo,40,1,0,,,,,,434782,,,,,,,
551040,note_on,56,0,2,,,,,,,,,1,,,65,76
551040,note_off,160,0,3,,,,,,,,,2,,,58,0
551040,note_on,120,0,4,,,,,,,,,3,,,34,76
551040,note_on,56,0,1,,,,,,,,,0,,,77,76
551200,note_on,0,0,3,,,,,,,,,2,,,46,76
551200,note_on,0,0,1,,,,,,,,,0,,,74,76
551200,note_off,160,0,1,,,,,,,,,0,,,77,0
551200,note_off,160,0,2,,,,,,,,,1,,,65,0
551200,note_on,0,0,2,,,,,,,,,1,,,70,76
551200,note_on,160,0,3,,,,,,,,,2,,,50,76
551304,note_off,104,0,2,,,,,,,,,1,,,70,0
551304,note_off,104,0,1,,,,,,,,,0,,,74,0
551360,note_on,56,0,1,,,,,,,,,0,,,82,77
551360,note_on,56,0,2,,,,,,,,,1,,,65,77
551360,note_off,160,0,3,,,,,,,,,2,,,46,0
551360,note_off,0,0,3,,,,,,,,,2,,,50,0
551360,note_on,0,0,3,,,,,,,,,2,,,53,77
551400,note_off,360,0,4,,,,,,,,,3,,,34,0
551464,note_off,104,0,1,,,,,,,,,0,,,82,0
551464,note_off,104,0,2,,,,,,,,,1,,,65,0
551520,note_on,56,0,1,,,,,,,,,0,,,82,77
551520,note_off,160,0,3,,,,,,,,,2,,,53,0
551520,note_on,120,0,4,,,,,,,,,3,,,46,77
551520,note_on,56,0,2,,,,,,,,,1,,,65,77
551680,note_on,0,0,3,,,,,,,,,2,,,50,78
551680,note_off,160,0,1,,,,,,,,,0,,,82,0
551680,note_on,0,0,1,,,,,,,,,0,,,77,78
551680,note_on,0,0,2,,,,,,,,,1,,,70,78
551680,note_off,160,0,2,,,,,,,,,1,,,65,0
551680,note_on,160,0,3,,,,,,,,,2,,,53,78
551784,note_off,104,0,2,,,,,,,,,1,,,70,0
551784,note_off,104,0,1,,,,,,,,,0,,,77,0
551840,note_off,160,0,3,,,,,,,,,2,,,50,0
551840,note_on,56,0,2,,,,,,,,,1,,,67,78
551840,note_on,56,0,1,,,,,,,,,0,,,79,78
551840,note_off,0,0,3,,,,,,,,,2,,,53,0
551840,note_on,0,0,3,,,,,,,,,2,,,58,78
551880,note_off,360,0,4,,,,,,,,,3,,,46,0
551944,note_off,104,0,1,,,,,,,,,0,,,79,0
551944,note_off,104,0,2,,,,,,,,,1,,,67,0
551960,set_tempo,920,1,0,,,,,,441176,,,,,,,
552000,set_tempo,40,1,0,,,,,,434782,,,,,,,
552000,note_on,120,0,4,,,,,,,,,3,,,39,78
552000,note_on,56,0,1,,,,,,,,,0,,,79,78
552000,note_on,56,0,2,,,,,,,,,1,,,67,78
552000,note_off,160,0,3,,,,,,,,,2,,,58,0
552160,note_on,0,0,1,,,,,,,,,0,,,75,79
552160,note_on,0,0,2,,,,,,,,,1,,,63,79
552160,note_off,160,0,2,,,,,,,,,1,,,67,0
552160,note_off,160,0,1,,,,,,,,,0,,,79,0
552160,note_on,160,0,3,,,,,,,,,2,,,51,79
552160,note_on,0,0,3,,,,,,,,,2,,,46,79
552264,note_off,104,0,2,,,,,,,,,1,,,63,0
552264,note_off,104,0,1,,,,,,,,,0,,,75,0
552320,note_on,0,0,2,,,,,,,,,1,,,67,79
552320,note_off,0,0,3,,,,,,,,,2,,,51,0
552320,note_on,0,0,3,,,,,,,,,2,,,55,79
552320,note_on,56,0,1,,,,,,,,,0,,,82,79
552320,note_on,56,0,2,,,,,,,,,1,,,70,79
552320,note_off,160,0,3,,,,,,,,,2,,,46,0
552360,note_off,360,0,4,,,,,,,,,3,,,39,0
552424,note_off,104,0,2,,,,,,,,,1,,,67,0
552424,note_off,0,0,2,,,,,,,,,1,,,70,0
552424,note_off,104,0,1,,,,,,,,,0,,,82,0
552440,set_tempo,440,1,0,,,,,,441176,,,,,,,
552480,note_on,56,0,2,,,,,,,,,1,,,67,89
552480,note_off,160,0,3,,,,,,,,,2,,,55,0
552480,note_on,56,0,1,,,,,,,,,0,,,82,89
552480,set_tempo,40,1,0,,,,,,434782,,,,,,,
552480,note_on,0,0,2,,,,,,,,,1,,,70,89
552480,note_on,120,0,4,,,,,,,,,3,,,51,79
552640,note_on,160,0,3,,,,,,,,,2,,,55,80
552800,note_off,160,0,3,,,,,,,,,2,,,55,0
552800,note_on,0,0,3,,,,,,,,,2,,,58,80
552840,note_off,360,0,4,,,,,,,,,3,,,51,0
552920,set_tempo,440,1,0,,,,,,441176,,,,,,,
552960,note_on,120,0,4,,,,,,,,,3,,,51,81
552960,set_tempo,40,1,0,,,,,,434782,,,,,,,
552960,note_off,160,0,3,,,,,,,,,2,,,58,0
553120,note_on,160,0,3,,,,,,,,,2,,,55,81
553200,note_off,720,0,1,,,,,,,,,0,,,82,0
553200,note_off,0,0,2,,,,,,,,,1,,,67,0
553200,note_on,0,0,2,,,,,,,,,1,,,69,81
553200,note_off,720,0,2,,,,,,,,,1,,,70,0
553200,note_on,0,0,1,,,,,,,,,0,,,81,81
553280,note_off,160,0,3,,,,,,,,,2,,,55,0
553280,note_on,0,0,3,,,,,,,,,2,,,58,81
553320,note_off,120,0,1,,,,,,,,,0,,,81,0
553320,note_off,360,0,4,,,,,,,,,3,,,51,0
553320,note_on,0,0,2,,,,,,,,,1,,,70,81
553320,note_on,0,0,1,,,,,,,,,0,,,82,81
553320,note_off,120,0,2,,,,,,,,,1,,,69,0
553440,note_off,120,0,1,,,,,,,,,0,,,82,0
553440,note_on,0,0,1,,,,,,,,,0,,,84,82
553440,note_off,160,0,3,,,,,,,,,2,,,58,0
553440,note_on,0,0,2,,,,,,,,,1,,,72,82
553440,note_on,120,0,4,,,,,,,,,3,,,39,82
553440,note_off,120,0,2,,,,,,,,,1,,,70,0
553560,note_off,120,0,2,,,,,,,,,1,,,72,0
553560,note_on,0,0,2,,,,,,,,,1,,,70,82
553560,note_on,0,0,1,,,,,,,,,0,,,82,82
553560,note_off,120,0,1,,,,,,,,,0,,,84,0
553600,note_on,160,0,3,,,,,,,,,2,,,51,82
553600,note_on,0,0,3,,,,,,,,,2,,,55,82
553680,note_off,120,0,2,,,,,,,,,1,,,70,0
553680,note_on,0,0,2,,,,,,,,,1,,,69,82
553680,note_on,0,0,1,,,,,,,,,0,,,81,82
553680,note_off,120,0,1,,,,,,,,,0,,,82,0
553760,note_off,160,0,3,,,,,,,,,2,,,55,0
553760,note_off,0,0,3,,,,,,,,,2,,,51,0
553760,note_on,0,0,3,,,,,,,,,2,,,58,82
553800,note_off,360,0,4,,,,,,,,,3,,,39,0
553800,note_on,0,0,2,,,,,,,,,1,,,67,82
553800,note_off,120,0,1,,,,,,,,,0,,,81,0
553800,note_on,0,0,1,,,,,,,,,0,,,79,82
553800,note_off,120,0,2,,,,,,,,,1,,,69,0
553880,set_tempo,920,1,0,,,,,,441176,,,,,,,
553920,note_on,120,0,4,,,,,,,,,3,,,41,83
553920,note_on,0,0,2,,,,,,,,,1,,,65,83
553920,note_off,120,0,2,,,,,,,,,1,,,67,0
553920,note_off,120,0,1,,,,,,,,,0,,,79,0
553920,note_on,0,0,1,,,,,,,,,0,,,77,83
553920,note_off,160,0,3,,,,,,,,,2,,,58,0
553920,set_tempo,40,1,0,,,,,,434782,,,,,,,
554080,note_on,160,0,3,,,,,,,,,2,,,50,83
554080,note_on,0,0,3,,,,,,,,,2,,,53,83
554240,note_off,160,0,3,,,,,,,,,2,,,53,0
554240,note_off,0,0,3,,,,,,,,,2,,,50,0
554240,note_on,0,0,3,,,,,,,,,2,,,58,84
554280,note_off,360,0,1,,,,,,,,,0,,,77,0
554280,note_off,360,0,4,,,,,,,,,3,,,41,0
554280,note_off,360,0,2,,,,,,,,,1,,,65,0
554400,note_on,120,0,4,,,,,,,,,3,,,41,84
554400,note_on,120,0,1,,,,,,,,,0,,,86,84
554400,note_on,18240,0,5,,,,,,,,,4,,,29,84
554400,note_off,160,0,3,,,,,,,,,2,,,58,0
554400,note_on,0,0,2,,,,,,,,,1,,,82,84
554400,note_on,0,0,2,,,,,,,,,1,,,74,84
554400,note_on,120,0,2,,,,,,,,,1,,,70,84
554560,note_on,160,0,3,,,,,,,,,2,,,50,84
554560,note_on,0,0,3,,,,,,,,,2,,,46,84
554688,note_off,288,0,2,,,,,,,,,1,,,82,0
554688,note_off,0,0,2,,,,,,,,,1,,,74,0
554688,note_off,0,0,2,,,,,,,,,1,,,70,0
554688,note_off,288,0,1,,,,,,,,,0,,,86,0
554720,note_off,0,0,3,,,,,,,,,2,,,50,0
554720,note_off,160,0,3,,,,,,,,,2,,,46,0
554720,note_on,0,0,3,,,,,,,,,2,,,53,85
554760,note_on,0,0,2,,,,,,,,,1,,,82,85
554760,note_on,0,0,2,,,,,,,,,1,,,74,85
554760,note_on,72,0,2,,,,,,,,,1,,,70,85
554760,note_off,360,0,4,,,,,,,,,3,,,41,0
554760,note_off,360,0,5,,,,,,,,,4,,,29,0
554760,note_on,72,0,1,,,,,,,,,0,,,86,85
554840,set_tempo,920,1,0,,,,,,441176,,,,,,,
554856,note_off,0,0,2,,,,,,,,,1,,,70,0
554856,note_off,96,0,2,,,,,,,,,1,,,82,0
554856,note_off,96,0,1,,,,,,,,,0,,,86,0
554856,note_off,0,0,2,,,,,,,,,1,,,74,0
554880,note_on,24,0,2,,,,,,,,,1,,,72,85
554880,note_on,0,0,2,,,,,,,,,1,,,84,85
554880,note_on,0,0,2,,,,,,,,,1,,,75,85
554880,set_tempo,40,1,0,,,,,,434782,,,,,,,
554880,note_on,120,0,5,,,,,,,,,4,,,29,85
554880,note_on,24,0,1,,,,,,,,,0,,,87,85
554880,note_on,120,0,4,,,,,,,,,3,,,41,85
554880,note_off,160,0,3,,,,,,,,,2,,,53,0
555040,note_on,160,0,3,,,,,,,,,2,,,48,84
555040,note_on,0,0,3,,,,,,,,,2,,,45,84
555168,note_off,288,0,2,,,,,,,,,1,,,84,0
555168,note_off,0,0,2,,,,,,,,,1,,,75,0
555168,note_off,0,0,2,,,,,,,,,1,,,72,0
555168,note_off,288,0,1,,,,,,,,,0,,,87,0
555200,note_on,0,0,3,,,,,,,,,2,,,53,83
555200,note_off,0,0,3,,,,,,,,,2,,,48,0
555200,note_off,160,0,3,,,,,,,,,2,,,45,0
555240,note_on,72,0,1,,,,,,,,,0,,,87,83
555240,note_on,0,0,2,,,,,,,,,1,,,84,83
555240,note_off,360,0,5,,,,,,,,,4,,,29,0
555240,note_on,72,0,2,,,,,,,,,1,,,72,83
555240,note_on,0,0,2,,,,,,,,,1,,,75,83
555240,note_off,360,0,4,,,,,,,,,3,,,41,0
555336,note_off,96,0,2,,,,,,,,,1,,,84,0
555336,note_off,0,0,2,,,,,,,,,1,,,72,0
555336,note_off,96,0,1,,,,,,,,,0,,,87,0
555336,note_off,0,0,2,,,,,,,,,1,,,75,0
555360,note_on,0,0,2,,,,,,,,,1,,,81,82
555360,note_on,120,0,5,,,,,,,,,4,,,29,82
555360,note_off,160,0,3,,,,,,,,,2,,,53,0
555360,note_on,0,0,2,,,,,,,,,1,,,69,82
555360,note_on,24,0,2,,,,,,,,,1,,,72,82
555360,note_on,120,0,4,,,,,,,,,3,,,41,82
555360,note_on,24,0,1,,,,,,,,,0,,,84,82
555520,note_on,160,0,3,,,,,,,,,2,,,51,81
555648,note_off,288,0,1,,,,,,,,,0,,,84,0
555648,note_off,0,0,2,,,,,,,,,1,,,72,0
555648,note_off,288,0,2,,,,,,,,,1,,,81,0
555648,note_off,0,0,2,,,,,,,,,1,,,69,0
555680,note_off,160,0,3,,,,,,,,,2,,,51,0
555680,note_on,0,0,3,,,,,,,,,2,,,53,80
555720,note_on,72,0,2,,,,,,,,,1,,,72,80
555720,note_on,0,0,2,,,,,,,,,1,,,81,80
555720,note_on,72,0,1,,,,,,,,,0,,,84,80
555720,note_on,0,0,2,,,,,,,,,1,,,69,80
555720,note_off,360,0,4,,,,,,,,,3,,,41,0
555720,note_off,360,0,5,,,,,,,,,4,,,29,0
555727,set_tempo,847,1,0,,,,,,441176,,,,,,,
555816,note_off,96,0,1,,,,,,,,,0,,,84,0
555816,note_off,0,0,2,,,,,,,,,1,,,72,0
555816,note_off,96,0,2,,,,,,,,,1,,,81,0
555816,note_off,0,0,2,,,,,,,,,1,,,69,0
555840,note_on,120,0,5,,,,,,,,,4,,,34,80
555840,note_on,24,0,2,,,,,,,,,1,,,70,80
555840,note_on,24,0,1,,,,,,,,,0,,,82,80
555840,note_off,160,0,3,,,,,,,,,2,,,53,0
555840,note_on,0,0,3,,,,,,,,,2,,,50,80
555840,note_on,120,0,4,,,,,,,,,3,,,46,80
555840,set_tempo,113,1,0,,,,,,434782,,,,,,,
555944,note_off,104,0,3,,,,,,,,,2,,,50,0
556000,note_on,56,0,3,,,,,,,,,2,,,53,80
556104,note_off,104,0,3,,,,,,,,,2,,,53,0
556160,note_on,56,0,3,,,,,,,,,2,,,58,81
556200,note_off,360,0,2,,,,,,,,,1,,,70,0
556200,note_off,360,0,1,,,,,,,,,0,,,82,0
556200,note_off,360,0,5,,,,,,,,,4,,,34,0
556200,note_off,360,0,4,,,,,,,,,3,,,46,0
556264,note_off,104,0,3,,,,,,,,,2,,,58,0
556320,note_on,120,0,2,,,,,,,,,1,,,75,81
556320,note_on,120,0,1,,,,,,,,,0,,,84,81
556320,note_on,120,0,5,,,,,,,,,4,,,39,81
556320,note_on,56,0,3,,,,,,,,,2,,,51,81
556424,note_off,104,0,3,,,,,,,,,2,,,51,0
556480,note_on,0,0,1,,,,,,,,,0,,,86,82
556480,note_off,160,0,1,,,,,,,,,0,,,84,0
556480,note_on,0,0,2,,,,,,,,,1,,,77,82
556480,note_off,160,0,2,,,,,,,,,1,,,75,0
556480,note_on,56,0,3,,,,,,,,,2,,,55,82
556554,note_off,234,0,5,,,,,,,,,4,,,39,0
556584,note_off,104,0,3,,,,,,,,,2,,,55,0
556640,note_on,0,0,1,,,,,,,,,0,,,87,82
556640,note_on,56,0,3,,,,,,,,,2,,,60,82
556640,note_on,0,0,2,,,,,,,,,1,,,79,82
556640,note_off,160,0,2,,,,,,,,,1,,,77,0
556640,note_off,160,0,1,,,,,,,,,0,,,86,0
556680,note_on,126,0,5,,,,,,,,,4,,,39,83
556744,note_off,104,0,3,,,,,,,,,2,,,60,0
556758,note_off,78,0,5,,,,,,,,,4,,,39,0
556800,note_on,56,0,3,,,,,,,,,2,,,50,83
556800,note_on,0,0,1,,,,,,,,,0,,,86,83
556800,note_off,160,0,1,,,,,,,,,0,,,87,0
556800,note_on,0,0,2,,,,,,,,,1,,,77,83
556800,note_off,160,0,2,,,,,,,,,1,,,79,0
556800,note_on,42,0,5,,,,,,,,,4,,,41,83
556904,note_off,104,0,3,,,,,,,,,2,,,50,0
556960,note_on,56,0,3,,,,,,,,,2,,,53,83
556960,note_off,160,0,2,,,,,,,,,1,,,77,0
556960,note_on,0,0,2,,,,,,,,,1,,,75,83
556960,note_on,0,0,1,,,,,,,,,0,,,84,83
556960,note_off,160,0,1,,,,,,,,,0,,,86,0
557064,note_off,104,0,3,,,,,,,,,2,,,53,0
557120,note_on,56,0,3,,,,,,,,,2,,,58,84
557120,note_on,0,0,1,,,,,,,,,0,,,82,84
557120,note_off,160,0,2,,,,,,,,,1,,,75,0
557120,note_on,0,0,2,,,,,,,,,1,,,74,84
557120,note_off,160,0,1,,,,,,,,,0,,,84,0
557160,note_off,360,0,5,,,,,,,,,4,,,41,0
557224,note_off,104,0,3,,,,,,,,,2,,,58,0
557280,note_off,160,0,1,,,,,,,,,0,,,82,0
557280,note_on,0,0,1,,,,,,,,,0,,,81,84
557280,note_on,0,0,2,,,,,,,,,1,,,72,84
557280,note_on,120,0,5,,,,,,,,,4,,,29,84
557280,note_on,56,0,3,,,,,,,,,2,,,48,84
557280,note_off,160,0,2,,,,,,,,,1,,,74,0
557384,note_off,104,0,3,,,,,,,,,2,,,48,0
557440,note_off,160,0,2,,,,,,,,,1,,,72,0
557440,note_on,0,0,2,,,,,,,,,1,,,74,85
557440,note_on,56,0,3,,,,,,,,,2,,,53,85
557440,note_off,160,0,1,,,,,,,,,0,,,81,0
557440,note_on,0,0,1,,,,,,,,,0,,,82,85
557514,note_off,234,0,5,,,,,,,,,4,,,29,0
557544,note_off,104,0,3,,,,,,,,,2,,,53,0
557600,note_off,160,0,2,,,,,,,,,1,,,74,0
557600,note_on,0,0,2,,,,,,,,,1,,,75,85
557600,note_on,56,0,3,,,,,,,,,2,,,57,85
557600,note_off,160,0,1,,,,,,,,,0,,,82,0
557600,note_on,0,0,1,,,,,,,,,0,,,84,85
557640,note_on,126,0,5,,,,,,,,,4,,,29,85
557704,note_off,104,0,3,,,,,,,,,2,,,57,0
557718,note_off,78,0,5,,,,,,,,,4,,,29,0
557720,set_tempo,1880,1,0,,,,,,441176,,,,,,,
557760,set_tempo,40,1,0,,,,,,434782,,,,,,,
557760,note_on,0,0,2,,,,,,,,,1,,,74,86
557760,note_off,160,0,2,,,,,,,,,1,,,75,0
557760,note_off,160,0,1,,,,,,,,,0,,,84,0
557760,note_on,0,0,1,,,,,,,,,0,,,82,86
557760,note_on,56,0,3,,,,,,,,,2,,,50,86
557760,note_on,42,0,5,,,,,,,,,4,,,34,86
557864,note_off,104,0,3,,,,,,,,,2,,,50,0
557920,note_on,0,0,1,,,,,,,,,0,,,81,86
557920,note_on,0,0,2,,,,,,,,,1,,,72,86
557920,note_off,160,0,2,,,,,,,,,1,,,74,0
557920,note_off,160,0,1,,,,,,,,,0,,,82,0
557920,note_on,56,0,3,,,,,,,,,2,,,53,86
558024,note_off,104,0,3,,,,,,,,,2,,,53,0
558080,note_on,0,0,2,,,,,,,,,1,,,74,87
558080,note_off,160,0,2,,,,,,,,,1,,,72,0
558080,note_off,160,0,1,,,,,,,,,0,,,81,0
558080,note_on,0,0,1,,,,,,,,,0,,,82,87
558080,note_on,56,0,3,,,,,,,,,2,,,58,87
558120,note_off,360,0,5,,,,,,,,,4,,,34,0
558184,note_off,104,0,3,,,,,,,,,2,,,58,0
558240,note_on,120,0,5,,,,,,,,,4,,,39,87
558240,note_off,160,0,2,,,,,,,,,1,,,74,0
558240,note_off,160,0,1,,,,,,,,,0,,,82,0
558240,note_on,0,0,1,,,,,,,,,0,,,84,87
558240,note_on,56,0,3,,,,,,,,,2,,,51,87
558240,note_on,0,0,2,,,,,,,,,1,,,75,87
558344,note_off,104,0,3,,,,,,,,,2,,,51,0
558400,note_off,160,0,1,,,,,,,,,0,,,84,0
558400,note_on,0,0,1,,,,,,,,,0,,,86,88
558400,note_on,0,0,2,,,,,,,,,1,,,77,88
558400,note_on,56,0,3,,,,,,,,,2,,,55,88
558400,note_off,160,0,2,,,,,,,,,1,,,75,0
558474,note_off,234,0,5,,,,,,,,,4,,,39,0
558504,note_off,104,0,3,,,,,,,,,2,,,55,0
558560,note_on,0,0,2,,,,,,,,,1,,,79,88
558560,note_on,56,0,3,,,,,,,,,2,,,60,88
558560,note_off,160,0,1,,,,,,,,,0,,,86,0
558560,note_on,0,0,1,,,,,,,,,0,,,87,88
558560,note_off,160,0,2,,,,,,,,,1,,,77,0
558600,note_on,126,0,5,,,,,,,,,4,,,39,88
558664,note_off,104,0,3,,,,,,,,,2,,,60,0
558678,note_off,78,0,5,,,,,,,,,4,,,39,0
558720,note_on,0,0,1,,,,,,,,,0,,,86,89
558720,note_on,56,0,3,,,,,,,,,2,,,50,89
558720,note_off,160,0,1,,,,,,,,,0,,,87,0
558720,note_off,160,0,2,,,,,,,,,1,,,79,0
558720,note_on,0,0,2,,,,,,,,,1,,,77,89
558720,note_on,42,0,5,,,,,,,,,4,,,41,89
558824,note_off,104,0,3,,,,,,,,,2,,,50,0
558880,note_on,0,0,2,,,,,,,,,1,,,75,89
558880,note_off,160,0,1,,,,,,,,,0,,,86,0
558880,note_on,56,0,3,,,,,,,,,2,,,53,89
558880,note_on,0,0,1,,,,,,,,,0,,,84,89
558880,note_off,160,0,2,,,,,,,,,1,,,77,0
558984,note_off,104,0,3,,,,,,,,,2,,,53,0
559040,note_off,160,0,2,,,,,,,,,1,,,75,0
559040,note_on,56,0,3,,,,,,,,,2,,,58,90
559040,note_on,0,0,2,,,,,,,,,1,,,74,90
559040,note_on,0,0,1,,,,,,,,,0,,,82,90
559040,note_off,160,0,1,,,,,,,,,0,,,84,0
559080,note_off,360,0,5,,,,,,,,,4,,,41,0
559144,note_off,104,0,3,,,,,,,,,2,,,58,0
559200,note_on,56,0,3,,,,,,,,,2,,,48,90
559200,note_on,120,0,5,,,,,,,,,4,,,29,90
559200,note_on,0,0,2,,,,,,,,,1,,,72,90
559200,note_off,160,0,1,,,,,,,,,0,,,82,0
559200,note_off,160,0,2,,,,,,,,,1,,,74,0
559200,note_on,0,0,1,,,,,,,,,0,,,81,90
559304,note_off,104,0,3,,,,,,,,,2,,,48,0
559360,note_on,56,0,3,,,,,,,,,2,,,53,91
559360,note_off,160,0,1,,,,,,,,,0,,,81,0
559360,note_on,0,0,2,,,,,,,,,1,,,74,91
559360,note_off,160,0,2,,,,,,,,,1,,,72,0
559360,note_on,0,0,1,,,,,,,,,0,,,82,91
559434,note_off,234,0,5,,,,,,,,,4,,,29,0
559464,note_off,104,0,3,,,,,,,,,2,,,53,0
559520,note_off,160,0,1,,,,,,,,,0,,,82,0
559520,note_on,0,0,1,,,,,,,,,0,,,84,91
559520,note_off,160,0,2,,,,,,,,,1,,,74,0
559520,note_on,56,0,3,,,,,,,,,2,,,57,91
559520,note_on,0,0,2,,,,,,,,,1,,,75,91
559560,note_on,126,0,5,,,,,,,,,4,,,29,91
559560,set_tempo,1800,1,0,,,,,,441176,,,,,,,
559624,note_off,104,0,3,,,,,,,,,2,,,57,0
559638,note_off,78,0,5,,,,,,,,,4,,,29,0
559680,note_off,160,0,2,,,,,,,,,1,,,75,0
559680,note_off,160,0,1,,,,,,,,,0,,,84,0
559680,note_on,3480,0,4,,,,,,,,,3,,,58,90
559680,note_on,42,0,5,,,,,,,,,4,,,34,90
559680,note_on,0,0,4,,,,,,,,,3,,,50,90
559680,note_on,0,0,4,,,,,,,,,3,,,53,90
559680,note_on,0,0,1,,,,,,,,,0,,,82,90
559680,set_tempo,120,1,0,,,,,,434782,,,,,,,
559840,note_on,0,0,1,,,,,,,,,0,,,86,90
559840,note_off,160,0,1,,,,,,,,,0,,,82,0
560000,note_on,0,0,1,,,,,,,,,0,,,82,91
560000,note_off,160,0,1,,,,,,,,,0,,,86,0
560160,note_off,160,0,1,,,,,,,,,0,,,82,0
560160,note_off,480,0,4,,,,,,,,,3,,,50,0
560160,note_off,0,0,4,,,,,,,,,3,,,53,0
560160,note_off,0,0,4,,,,,,,,,3,,,58,0
560160,note_off,480,0,5,,,,,,,,,4,,,34,0
560160,note_on,0,0,1,,,,,,,,,0,,,77,91
560320,note_off,160,0,1,,,,,,,,,0,,,77,0
560320,note_on,0,0,1,,,,,,,,,0,,,74,92
560480,note_off,160,0,1,,,,,,,,,0,,,74,0
560480,note_on,0,0,1,,,,,,,,,0,,,77,92
560520,set_tempo,840,1,0,,,,,,441176,,,,,,,
560640,set_tempo,120,1,0,,,,,,434782,,,,,,,
560640,note_on,480,0,5,,,,,,,,,4,,,34,92
560640,note_on,0,0,4,,,,,,,,,3,,,53,92
560640,note_on,0,0,4,,,,,,,,,3,,,50,92
560640,note_on,480,0,4,,,,,,,,,3,,,58,92
560640,note_off,160,0,1,,,,,,,,,0,,,77,0
560640,note_on,0,0,1,,,,,,,,,0,,,82,92
560640,note_on,0,0,4,,,,,,,,,3,,,46,92
560800,note_off,160,0,1,,,,,,,,,0,,,82,0
560800,note_on,0,0,1,,,,,,,,,0,,,86,93
560960,note_off,160,0,1,,,,,,,,,0,,,86,0
560960,note_on,0,0,1,,,,,,,,,0,,,82,93
561120,note_off,480,0,5,,,,,,,,,4,,,34,0
561120,note_off,0,0,4,,,,,,,,,3,,,53,0
561120,note_off,0,0,4,,,,,,,,,3,,,50,0
561120,note_off,0,0,4,,,,,,,,,3,,,58,0
561120,note_off,160,0,1,,,,,,,,,0,,,82,0
561120,note_on,0,0,1,,,,,,,,,0,,,77,94
561120,note_off,480,0,4,,,,,,,,,3,,,46,0
561280,note_off,160,0,1,,,,,,,,,0,,,77,0
561280,note_on,0,0,1,,,,,,,,,0,,,74,94
561440,note_off,160,0,1,,,,,,,,,0,,,74,0
561440,note_on,0,0,1,,,,,,,,,0,,,77,95
561480,set_tempo,840,1,0,,,,,,441176,,,,,,,
561600,note_on,480,0,4,,,,,,,,,3,,,34,95
561600,note_on,0,0,4,,,,,,,,,3,,,58,95
561600,note_on,0,0,4,,,,,,,,,3,,,46,95
561600,note_on,0,0,4,,,,,,,,,3,,,50,95
561600,note_on,0,0,4,,,,,,,,,3,,,53,95
561600,note_on,0,0,2,,,,,,,,,1,,,62,95
561600,note_on,0,0,2,,,,,,,,,1,,,70,95
561600,note_off,160,0,1,,,,,,,,,0,,,77,0
561600,note_on,1920,0,2,,,,,,,,,1,,,65,95
561600,set_tempo,120,1,0,,,,,,625000,,,,,,,
561600,note_on,0,0,1,,,,,,,,,0,,,82,95
562080,note_off,480,0,2,,,,,,,,,1,,,70,0
562080,note_off,0,0,2,,,,,,,,,1,,,62,0
562080,note_off,0,0,2,,,,,,,,,1,,,65,0
562080,note_off,480,0,4,,,,,,,,,3,,,53,0
562080,note_off,0,0,4,,,,,,,,,3,,,50,0
562080,note_off,0,0,4,,,,,,,,,3,,,46,0
562080,note_off,0,0,4,,,,,,,,,3,,,58,0
562080,note_off,0,0,4,,,,,,,,,3,,,34,0
562080,note_off,480,0,1,,,,,,,,,0,,,82,0
562560,note_on,480,0,4,,,,,,,,,3,,,58,49
562560,set_tempo,960,1,0,,,,,,441176,,,,,,,
562688,note_off,128,0,4,,,,,,,,,3,,,58,0
562720,note_on,32,0,4,,,,,,,,,3,,,57,48
562848,note_off,128,0,4,,,,,,,,,3,,,57,0
562880,note_on,32,0,4,,,,,,,,,3,,,55,48
563008,note_off,128,0,4,,,,,,,,,3,,,55,0
563040,note_on,32,0,4,,,,,,,,,3,,,53,48
563168,note_off,128,0,4,,,,,,,,,3,,,53,0
563200,note_on,32,0,4,,,,,,,,,3,,,52,47
563328,note_off,128,0,4,,,,,,,,,3,,,52,0
563360,note_on,32,0,4,,,,,,,,,3,,,50,47
563480,set_tempo,920,1,0,,,,,,447761,,,,,,,
563488,note_off,128,0,4,,,,,,,,,3,,,50,0
563520,note_on,3896,0,3,,,,,,,,,2,,,45,46
563520,note_on,32,0,4,,,,,,,,,3,,,49,46
563520,note_on,0,0,3,,,,,,,,,2,,,33,46
563520,set_tempo,40,1,0,,,,,,441176,,,,,,,
563880,note_off,0,0,3,,,,,,,,,2,,,45,0
563880,note_off,360,0,4,,,,,,,,,3,,,49,0
563880,note_off,360,0,3,,,,,,,,,2,,,33,0
564000,note_on,120,0,4,,,,,,,,,3,,,52,45
564288,note_off,288,0,4,,,,,,,,,3,,,52,0
564360,note_on,72,0,4,,,,,,,,,3,,,52,44
564440,set_tempo,920,1,0,,,,,,447761,,,,,,,
564456,note_off,96,0,4,,,,,,,,,3,,,52,0
564480,set_tempo,40,1,0,,,,,,441176,,,,,,,
564480,note_on,24,0,4,,,,,,,,,3,,,45,44
564480,note_on,600,0,3,,,,,,,,,2,,,33,44
564840,note_off,360,0,4,,,,,,,,,3,,,45,0
564840,note_off,360,0,3,,,,,,,,,2,,,33,0
564960,note_on,120,0,4,,,,,,,,,3,,,52,43
565248,note_off,288,0,4,,,,,,,,,3,,,52,0
565320,note_on,72,0,4,,,,,,,,,3,,,52,42
565400,set_tempo,920,1,0,,,,,,447761,,,,,,,
565416,note_off,96,0,4,,,,,,,,,3,,,52,0
565440,note_on,24,0,4,,,,,,,,,3,,,49,41
565440,note_on,600,0,3,,,,,,,,,2,,,45,41
565440,note_on,0,0,3,,,,,,,,,2,,,33,41
565440,set_tempo,40,1,0,,,,,,441176,,,,,,,
565800,note_off,360,0,4,,,,,,,,,3,,,49,0
565800,note_off,0,0,3,,,,,,,,,2,,,45,0
565800,note_off,360,0,3,,,,,,,,,2,,,33,0
565920,note_on,120,0,4,,,,,,,,,3,,,52,39
566160,note_off,240,0,4,,,,,,,,,3,,,52,0
566360,set_tempo,920,1,0,,,,,,447761,,,,,,,
566390,set_tempo,30,1,0,,,,,,441176,,,,,,,
566400,set_tempo,10,1,0,,,,,,441176,,,,,,,
566400,note_on,4320,0,1,,,,,,,,,0,,,82,51
566528,note_off,128,0,1,,,,,,,,,0,,,82,0
566560,note_on,32,0,1,,,,,,,,,0,,,81,51
566688,note_off,128,0,1,,,,,,,,,0,,,81,0
566720,note_on,32,0,1,,,,,,,,,0,,,79,50
566848,note_off,128,0,1,,,,,,,,,0,,,79,0
566880,note_on,32,0,1,,,,,,,,,0,,,77,50
567008,note_off,128,0,1,,,,,,,,,0,,,77,0
567040,note_on,32,0,1,,,,,,,,,0,,,76,49
567168,note_off,128,0,1,,,,,,,,,0,,,76,0
567200,note_on,32,0,1,,,,,,,,,0,,,74,49
567320,set_tempo,920,1,0,,,,,,447761,,,,,,,
567328,note_off,128,0,1,,,,,,,,,0,,,74,0
567360,note_on,32,0,1,,,,,,,,,0,,,73,49
567360,note_on,0,0,3,,,,,,,,,2,,,67,49
567360,note_on,1560,0,3,,,,,,,,,2,,,64,49
567360,set_tempo,40,1,0,,,,,,441176,,,,,,,
567360,note_on,1200,0,4,,,,,,,,,3,,,57,49
567720,note_off,0,0,3,,,,,,,,,2,,,64,0
567720,note_off,360,0,3,,,,,,,,,2,,,67,0
567720,note_off,360,0,1,,,,,,,,,0,,,73,0
567720,note_off,360,0,4,,,,,,,,,3,,,57,0
567840,note_on,120,0,1,,,,,,,,,0,,,76,47
567840,note_on,120,0,4,,,,,,,,,3,,,55,47
568128,note_off,288,0,4,,,,,,,,,3,,,55,0
568128,note_off,288,0,1,,,,,,,,,0,,,76,0
568200,note_on,72,0,4,,,,,,,,,3,,,55,46
568200,note_on,72,0,1,,,,,,,,,0,,,76,46
568280,set_tempo,920,1,0,,,,,,447761,,,,,,,
568296,note_off,96,0,1,,,,,,,,,0,,,76,0
568296,note_off,96,0,4,,,,,,,,,3,,,55,0
568320,note_on,24,0,4,,,,,,,,,3,,,52,46
568320,note_on,24,0,1,,,,,,,,,0,,,69,46
568320,note_on,0,0,3,,,,,,,,,2,,,57,46
568320,note_on,0,0,3,,,,,,,,,2,,,67,46
568320,note_on,600,0,3,,,,,,,,,2,,,64,46
568320,set_tempo,40,1,0,,,,,,441176,,,,,,,
568680,note_off,360,0,4,,,,,,,,,3,,,52,0
568680,note_off,0,0,3,,,,,,,,,2,,,64,0
568680,note_off,360,0,1,,,,,,,,,0,,,69,0
568680,note_off,0,0,3,,,,,,,,,2,,,67,0
568680,note_off,360,0,3,,,,,,,,,2,,,57,0
568800,note_on,120,0,1,,,,,,,,,0,,,76,45
568800,note_on,120,0,4,,,,,,,,,3,,,49,45
569088,note_off,288,0,1,,,,,,,,,0,,,76,0
569088,note_off,288,0,4,,,,,,,,,3,,,49,0
569160,note_on,72,0,4,,,,,,,,,3,,,49,44
569160,note_on,72,0,1,,,,,,,,,0,,,76,44
569240,set_tempo,920,1,0,,,,,,447761,,,,,,,
569256,note_off,96,0,1,,,,,,,,,0,,,76,0
569256,note_off,96,0,4,,,,,,,,,3,,,49,0
569280,note_on,24,0,4,,,,,,,,,3,,,45,43
569280,note_on,24,0,1,,,,,,,,,0,,,73,43
569280,set_tempo,40,1,0,,,,,,441176,,,,,,,
569280,note_on,600,0,3,,,,,,,,,2,,,67,43
569280,note_on,0,0,3,,,,,,,,,2,,,64,43
569280,note_on,0,0,3,,,,,,,,,2,,,57,43
569640,note_off,360,0,4,,,,,,,,,3,,,45,0
569640,note_off,0,0,3,,,,,,,,,2,,,64,0
569640,note_off,360,0,1,,,,,,,,,0,,,73,0
569640,note_off,360,0,3,,,,,,,,,2,,,57,0
569640,note_off,0,0,3,,,,,,,,,2,,,67,0
569760,note_on,120,0,4,,,,,,,,,3,,,55,41
569760,note_on,120,0,1,,,,,,,,,0,,,76,41
570000,note_off,240,0,4,,,,,,,,,3,,,55,0
570000,note_off,240,0,1,,,,,,,,,0,,,76,0
570120,note_on,120,0,4,,,,,,,,,3,,,55,51
570200,set_tempo,920,1,0,,,,,,447761,,,,,,,
570216,note_off,96,0,4,,,,,,,,,3,,,55,0
570240,note_on,24,0,4,,,,,,,,,3,,,58,51
570240,set_tempo,40,1,0,,,,,,441176,,,,,,,
570368,note_off,128,0,4,,,,,,,,,3,,,58,0
570400,note_on,32,0,4,,,,,,,,,3,,,57,51
570528,note_off,128,0,4,,,,,,,,,3,,,57,0
570560,note_on,32,0,4,,,,,,,,,3,,,55,51
570688,note_off,128,0,4,,,,,,,,,3,,,55,0
570720,note_on,32,0,4,,,,,,,,,3,,,53,50
570848,note_off,128,0,4,,,,,,,,,3,,,53,0
570880,note_on,32,0,4,,,,,,,,,3,,,52,50
571008,note_off,128,0,4,,,,,,,,,3,,,52,0
571040,note_on,32,0,4,,,,,,,,,3,,,50,50
571160,set_tempo,920,1,0,,,,,,447761,,,,,,,
571168,note_off,128,0,4,,,,,,,,,3,,,50,0
571200,note_on,32,0,4,,,,,,,,,3,,,49,50
571200,note_on,1560,0,3,,,,,,,,,2,,,33,50
571200,set_tempo,40,1,0,,,,,,441176,,,,,,,
571200,note_on,9120,0,2,,,,,,,,,1,,,70,50
571200,note_on,0,0,3,,,,,,,,,2,,,45,50
571328,note_off,128,0,2,,,,,,,,,1,,,70,0
571360,note_on,32,0,2,,,,,,,,,1,,,69,50
571488,note_off,128,0,2,,,,,,,,,1,,,69,0
571520,note_on,32,0,2,,,,,,,,,1,,,67,49
571560,note_off,360,0,3,,,,,,,,,2,,,45,0
571560,note_off,0,0,3,,,,,,,,,2,,,33,0
571560,note_off,360,0,4,,,,,,,,,3,,,49,0
571648,note_off,128,0,2,,,,,,,,,1,,,67,0
571680,note_on,120,0,4,,,,,,,,,3,,,52,49
571680,note_on,32,0,2,,,,,,,,,1,,,65,49
571808,note_off,128,0,2,,,,,,,,,1,,,65,0
571840,note_on,32,0,2,,,,,,,,,1,,,64,49
571920,note_off,240,0,4,,,,,,,,,3,,,52,0
571968,note_off,128,0,2,,,,,,,,,1,,,64,0
572000,note_on,32,0,2,,,,,,,,,1,,,62,49
572120,set_tempo,920,1,0,,,,,,447761,,,,,,,
572128,note_off,128,0,2,,,,,,,,,1,,,62,0
572160,set_tempo,40,1,0,,,,,,441176,,,,,,,
572160,note_on,2160,0,1,,,,,,,,,0,,,82,48
572160,note_on,32,0,2,,,,,,,,,1,,,61,48
572288,note_off,128,0,1,,,,,,,,,0,,,82,0
572320,note_on,32,0,1,,,,,,,,,0,,,81,48
572448,note_off,128,0,1,,,,,,,,,0,,,81,0
572480,note_on,32,0,1,,,,,,,,,0,,,79,48
572520,note_off,360,0,2,,,,,,,,,1,,,61,0
572608,note_off,128,0,1,,,,,,,,,0,,,79,0
572640,note_on,720,0,4,,,,,,,,,3,,,55,48
572640,note_on,32,0,1,,,,,,,,,0,,,77,48
572640,note_on,120,0,2,,,,,,,,,1,,,64,48
572768,note_off,128,0,1,,,,,,,,,0,,,77,0
572800,note_on,32,0,1,,,,,,,,,0,,,76,48
572885,note_off,245,0,2,,,,,,,,,1,,,64,0
572928,note_off,288,0,4,,,,,,,,,3,,,55,0
572928,note_off,128,0,1,,,,,,,,,0,,,76,0
572960,note_on,32,0,1,,,,,,,,,0,,,74,47
573000,note_on,72,0,4,,,,,,,,,3,,,55,47
573080,set_tempo,920,1,0,,,,,,447761,,,,,,,
573088,note_off,128,0,1,,,,,,,,,0,,,74,0
573096,note_off,96,0,4,,,,,,,,,3,,,55,0
573120,note_on,32,0,1,,,,,,,,,0,,,73,47
573120,note_on,24,0,4,,,,,,,,,3,,,58,47
573120,set_tempo,40,1,0,,,,,,441176,,,,,,,
573248,note_off,128,0,4,,,,,,,,,3,,,58,0
573280,note_on,32,0,4,,,,,,,,,3,,,57,47
573408,note_off,128,0,4,,,,,,,,,3,,,57,0
573440,note_on,32,0,4,,,,,,,,,3,,,55,47
573480,note_off,360,0,1,,,,,,,,,0,,,73,0
573568,note_off,128,0,4,,,,,,,,,3,,,55,0
573600,note_on,120,0,1,,,,,,,,,0,,,76,46
573600,note_on,32,0,4,,,,,,,,,3,,,53,46
573728,note_off,128,0,4,,,,,,,,,3,,,53,0
573760,note_on,32,0,4,,,,,,,,,3,,,52,46
573835,note_off,235,0,1,,,,,,,,,0,,,76,0
573888,note_off,128,0,4,,,,,,,,,3,,,52,0
573920,note_on,32,0,4,,,,,,,,,3,,,50,46
574040,set_tempo,920,1,0,,,,,,447761,,,,,,,
574048,note_off,128,0,4,,,,,,,,,3,,,50,0
574080,note_on,2520,0,3,,,,,,,,,2,,,46,46
574080,note_on,32,0,4,,,,,,,,,3,,,49,46
574080,set_tempo,40,1,0,,,,,,441176,,,,,,,
574208,note_off,128,0,3,,,,,,,,,2,,,46,0
574240,note_on,32,0,3,,,,,,,,,2,,,45,48
574368,note_off,128,0,3,,,,,,,,,2,,,45,0
574400,note_on,32,0,3,,,,,,,,,2,,,43,49
574440,note_off,360,0,4,,,,,,,,,3,,,49,0
574528,note_off,128,0,3,,,,,,,,,2,,,43,0
574560,note_on,32,0,3,,,,,,,,,2,,,41,50
574560,note_on,120,0,4,,,,,,,,,3,,,52,50
574688,note_off,128,0,3,,,,,,,,,2,,,41,0
574720,note_on,32,0,3,,,,,,,,,2,,,40,51
574805,note_off,245,0,4,,,,,,,,,3,,,52,0
574848,note_off,128,0,3,,,,,,,,,2,,,40,0
574880,note_on,32,0,3,,,,,,,,,2,,,38,52
575000,set_tempo,920,1,0,,,,,,447761,,,,,,,
575008,note_off,128,0,3,,,,,,,,,2,,,38,0
575040,note_on,32,0,3,,,,,,,,,2,,,37,55
575400,note_off,360,0,3,,,,,,,,,2,,,37,0
575520,note_on,120,0,3,,,,,,,,,2,,,40,51
575755,note_off,235,0,3,,,,,,,,,2,,,40,0
575755,end_of_track,0,1,3,,,,,,,,,,,,,
577440,note_on,16320,0,5,,,,,,,,,4,,,33,95
577440,note_on,2635,0,4,,,,,,,,,3,,,45,95
577440,note_on,3605,0,1,,,,,,,,,0,,,81,95
577440,note_on,0,0,2,,,,,,,,,1,,,69,95
577440,note_on,4555,0,2,,,,,,,,,1,,,57,95
577800,note_off,360,0,5,,,,,,,,,4,,,33,0
577800,note_off,360,0,1,,,,,,,,,0,,,81,0
577800,note_off,0,0,2,,,,,,,,,1,,,57,0
577800,note_off,360,0,2,,,,,,,,,1,,,69,0
577800,note_off,360,0,4,,,,,,,,,3,,,45,0
577920,set_tempo,2920,1,0,,,,,,1363636,,,,,,,
578640,set_tempo,720,1,0,,,,,,434782,,,,,,,
578760,note_on,960,0,2,,,,,,,,,1,,,57,74
578760,note_on,960,0,1,,,,,,,,,0,,,69,74
578760,note_on,960,0,4,,,,,,,,,3,,,45,74
578760,note_on,960,0,5,,,,,,,,,4,,,33,74
578838,note_off,78,0,5,,,,,,,,,4,,,33,0
578838,note_off,78,0,2,,,,,,,,,1,,,57,0
578838,note_off,78,0,1,,,,,,,,,0,,,69,0
578838,note_off,78,0,4,,,,,,,,,3,,,45,0
578840,set_tempo,200,1,0,,,,,,441176,,,,,,,
578880,note_on,42,0,5,,,,,,,,,4,,,33,81
578880,set_tempo,40,1,0,,,,,,434782,,,,,,,
578880,note_on,42,0,1,,,,,,,,,0,,,69,81
578880,note_on,42,0,4,,,,,,,,,3,,,45,81
578880,note_on,42,0,2,,,,,,,,,1,,,57,81
579240,note_off,360,0,2,,,,,,,,,1,,,57,0
579240,note_off,360,0,5,,,,,,,,,4,,,33,0
579240,note_off,360,0,4,,,,,,,,,3,,,45,0
579240,note_off,360,0,1,,,,,,,,,0,,,69,0
579360,note_on,120,0,2,,,,,,,,,1,,,62,76
579360,note_on,120,0,1,,,,,,,,,0,,,74,76
579360,note_on,120,0,5,,,,,,,,,4,,,38,76
579360,note_on,120,0,4,,,,,,,,,3,,,50,76
579516,note_off,156,0,1,,,,,,,,,0,,,74,0
579516,note_off,156,0,2,,,,,,,,,1,,,62,0
579516,note_off,156,0,5,,,,,,,,,4,,,38,0
579516,note_off,156,0,4,,,,,,,,,3,,,50,0
579720,note_on,204,0,4,,,,,,,,,3,,,45,77
579720,note_on,204,0,2,,,,,,,,,1,,,57,77
579720,note_on,204,0,1,,,,,,,,,0,,,69,77
579720,note_on,204,0,5,,,,,,,,,4,,,33,77
579798,note_off,78,0,4,,,,,,,,,3,,,45,0
579798,note_off,78,0,1,,,,,,,,,0,,,69,0
579798,note_off,78,0,5,,,,,,,,,4,,,33,0
579798,note_off,78,0,2,,,,,,,,,1,,,57,0
579800,set_tempo,920,1,0,,,,,,441176,,,,,,,
579840,note_on,42,0,5,,,,,,,,,4,,,33,81
579840,set_tempo,40,1,0,,,,,,434782,,,,,,,
579840,note_on,42,0,4,,,,,,,,,3,,,45,81
579840,note_on,42,0,2,,,,,,,,,1,,,57,81
579840,note_on,42,0,1,,,,,,,,,0,,,69,81
580200,note_off,360,0,2,,,,,,,,,1,,,57,0
580200,note_off,360,0,5,,,,,,,,,4,,,33,0
580200,note_off,360,0,4,,,,,,,,,3,,,45,0
580200,note_off,360,0,1,,,,,,,,,0,,,69,0
580320,note_on,120,0,5,,,,,,,,,4,,,38,79
580320,note_on,120,0,1,,,,,,,,,0,,,74,79
580320,note_on,120,0,2,,,,,,,,,1,,,62,79
580320,note_on,120,0,4,,,,,,,,,3,,,50,79
580476,note_off,156,0,1,,,,,,,,,0,,,74,0
580476,note_off,156,0,2,,,,,,,,,1,,,62,0
580476,note_off,156,0,4,,,,,,,,,3,,,50,0
580476,note_off,156,0,5,,,,,,,,,4,,,38,0
580680,note_on,204,0,1,,,,,,,,,0,,,69,80
580680,note_on,204,0,4,,,,,,,,,3,,,45,80
580680,note_on,204,0,2,,,,,,,,,1,,,57,80
580680,note_on,204,0,5,,,,,,,,,4,,,33,80
580758,note_off,78,0,2,,,,,,,,,1,,,57,0
580758,note_off,78,0,1,,,,,,,,,0,,,69,0
580758,note_off,78,0,4,,,,,,,,,3,,,45,0
580758,note_off,78,0,5,,,,,,,,,4,,,33,0
580760,set_tempo,920,1,0,,,,,,441176,,,,,,,
580800,set_tempo,40,1,0,,,,,,434782,,,,,,,
580800,note_on,42,0,5,,,,,,,,,4,,,33,85
580800,note_on,42,0,1,,,,,,,,,0,,,69,85
580800,note_on,42,0,4,,,,,,,,,3,,,45,85
580800,note_on,42,0,2,,,,,,,,,1,,,57,85
581160,note_off,360,0,5,,,,,,,,,4,,,33,0
581160,note_off,360,0,1,,,,,,,,,0,,,69,0
581160,note_off,360,0,4,,,,,,,,,3,,,45,0
581160,note_off,360,0,2,,,,,,,,,1,,,57,0
581280,note_on,120,0,2,,,,,,,,,1,,,62,82
581280,note_on,120,0,1,,,,,,,,,0,,,74,82
581280,note_on,120,0,5,,,,,,,,,4,,,38,82
581280,note_on,120,0,4,,,,,,,,,3,,,50,82
581436,note_off,156,0,5,,,,,,,,,4,,,38,0
581436,note_off,156,0,1,,,,,,,,,0,,,74,0
581436,note_off,156,0,4,,,,,,,,,3,,,50,0
581436,note_off,156,0,2,,,,,,,,,1,,,62,0
581640,note_on,204,0,4,,,,,,,,,3,,,54,83
581640,note_on,204,0,5,,,,,,,,,4,,,42,83
581640,note_on,204,0,1,,,,,,,,,0,,,78,83
581640,note_on,204,0,2,,,,,,,,,1,,,66,83
581700,set_tempo,900,1,0,,,,,,441176,,,,,,,
581718,note_off,78,0,4,,,,,,,,,3,,,54,0
581718,note_off,78,0,1,,,,,,,,,0,,,78,0
581718,note_off,78,0,2,,,,,,,,,1,,,66,0
581718,note_off,78,0,5,,,,,,,,,4,,,42,0
581760,note_on,42,0,4,,,,,,,,,3,,,57,87
581760,note_on,42,0,1,,,,,,,,,0,,,81,87
581760,note_on,42,0,2,,,,,,,,,1,,,69,87
581760,note_on,42,0,5,,,,,,,,,4,,,45,87
582240,set_tempo,540,1,0,,,,,,472440,,,,,,,
582720,note_on,0,0,4,,,,,,,,,3,,,40,53
582720,note_on,0,0,1,,,,,,,,,0,,,55,53
582720,note_off,960,0,1,,,,,,,,,0,,,81,0
582720,note_on,0,0,4,,,,,,,,,3,,,43,53
582720,note_on,0,0,5,,,,,,,,,4,,,33,53
582720,note_off,960,0,5,,,,,,,,,4,,,45,0
582720,set_tempo,480,1,0,,,,,,447761,,,,,,,
582720,note_off,960,0,2,,,,,,,,,1,,,69,0
582720,note_off,960,0,4,,,,,,,,,3,,,57,0
582760,note_on,0,0,1,,,,,,,,,0,,,57,53
582760,note_off,40,0,1,,,,,,,,,0,,,55,0
582780,set_tempo,60,1,0,,,,,,441176,,,,,,,
582800,note_off,40,0,1,,,,,,,,,0,,,57,0
582800,note_on,0,0,1,,,,,,,,,0,,,55,53
582840,note_on,0,0,1,,,,,,,,,0,,,57,53
582840,note_off,40,0,1,,,,,,,,,0,,,55,0
582880,note_on,0,0,1,,,,,,,,,0,,,55,53
582880,note_off,40,0,1,,,,,,,,,0,,,57,0
582920,note_on,0,0,1,,,,,,,,,0,,,57,53
582920,note_off,40,0,1,,,,,,,,,0,,,55,0
582960,note_on,0,0,1,,,,,,,,,0,,,55,52
582960,note_off,40,0,1,,,,,,,,,0,,,57,0
583000,note_off,40,0,1,,,,,,,,,0,,,55,0
583000,note_on,0,0,1,,,,,,,,,0,,,57,52
583040,note_off,40,0,1,,,,,,,,,0,,,57,0
583040,note_on,0,0,1,,,,,,,,,0,,,55,52
583080,note_off,40,0,1,,,,,,,,,0,,,55,0
583080,note_on,0,0,1,,,,,,,,,0,,,54,52
583140,note_off,60,0,1,,,,,,,,,0,,,54,0
583140,note_on,0,0,1,,,,,,,,,0,,,55,52
583160,set_tempo,380,1,0,,,,,,447761,,,,,,,
583200,note_on,0,0,1,,,,,,,,,0,,,52,51
583200,note_off,480,0,4,,,,,,,,,3,,,40,0
583200,note_off,0,0,4,,,,,,,,,3,,,43,0
583200,note_on,0,0,4,,,,,,,,,3,,,43,51
583200,note_off,60,0,1,,,,,,,,,0,,,55,0
583200,note_off,480,0,5,,,,,,,,,4,,,33,0
583200,set_tempo,40,1,0,,,,,,441176,,,,,,,
583200,note_on,0,0,4,,,,,,,,,3,,,40,51
583200,note_on,0,0,5,,,,,,,,,4,,,33,51
583356,note_off,156,0,1,,,,,,,,,0,,,52,0
583440,note_on,84,0,1,,,,,,,,,0,,,49,51
583596,note_off,156,0,1,,,,,,,,,0,,,49,0
583680,note_on,0,0,5,,,,,,,,,4,,,38,50
583680,note_off,480,0,5,,,,,,,,,4,,,33,0
583680,note_on,84,0,1,,,,,,,,,0,,,50,50
583680,note_off,480,0,4,,,,,,,,,3,,,40,0
583680,note_off,0,0,4,,,,,,,,,3,,,43,0
583680,note_on,0,0,4,,,,,,,,,3,,,42,50
583920,note_on,0,0,1,,,,,,,,,0,,,54,48
583920,note_off,240,0,1,,,,,,,,,0,,,50,0
584076,note_off,156,0,1,,,,,,,,,0,,,54,0
584100,set_tempo,900,1,0,,,,,,447761,,,,,,,
584160,note_on,84,0,1,,,,,,,,,0,,,45,46
584520,set_tempo,420,1,0,,,,,,447761,,,,,,,
584640,note_on,0,0,4,,,,,,,,,3,,,74,51
584640,note_off,960,0,4,,,,,,,,,3,,,42,0
584640,set_tempo,120,1,0,,,,,,447761,,,,,,,
584640,note_off,480,0,1,,,,,,,,,0,,,45,0
584640,note_on,0,0,1,,,,,,,,,0,,,86,51
584640,note_on,0,0,5,,,,,,,,,4,,,64,51
584640,note_off,960,0,5,,,,,,,,,4,,,38,0
584640,note_on,0,0,4,,,,,,,,,3,,,71,51
584680,note_off,40,0,1,,,,,,,,,0,,,86,0
584680,note_on,0,0,1,,,,,,,,,0,,,88,51
584700,set_tempo,60,1,0,,,,,,441176,,,,,,,
584720,note_off,40,0,1,,,,,,,,,0,,,88,0
584720,note_on,0,0,1,,,,,,,,,0,,,86,51
584760,note_off,40,0,1,,,,,,,,,0,,,86,0
584760,note_on,0,0,1,,,,,,,,,0,,,88,51
584800,note_off,40,0,1,,,,,,,,,0,,,88,0
584800,note_on,0,0,1,,,,,,,,,0,,,86,50
584840,note_off,40,0,1,,,,,,,,,0,,,86,0
584840,note_on,0,0,1,,,,,,,,,0,,,88,50
584880,note_on,0,0,1,,,,,,,,,0,,,86,50
584880,note_off,40,0,1,,,,,,,,,0,,,88,0
584920,note_on,0,0,1,,,,,,,,,0,,,88,50
584920,note_off,40,0,1,,,,,,,,,0,,,86,0
584960,note_off,40,0,1,,,,,,,,,0,,,88,0
584960,note_on,0,0,1,,,,,,,,,0,,,86,50
585000,note_off,40,0,1,,,,,,,,,0,,,86,0
585000,note_on,0,0,1,,,,,,,,,0,,,85,50
585060,note_off,60,0,1,,,,,,,,,0,,,85,0
585060,note_on,0,0,1,,,,,,,,,0,,,86,50
585080,set_tempo,380,1,0,,,,,,447761,,,,,,,
585120,note_on,0,0,4,,,,,,,,,3,,,71,50
585120,note_off,480,0,5,,,,,,,,,4,,,64,0
585120,note_on,0,0,5,,,,,,,,,4,,,64,50
585120,note_off,480,0,4,,,,,,,,,3,,,71,0
585120,note_on,0,0,4,,,,,,,,,3,,,74,50
585120,note_on,0,0,1,,,,,,,,,0,,,83,50
585120,note_off,60,0,1,,,,,,,,,0,,,86,0
585120,note_off,0,0,4,,,,,,,,,3,,,74,0
585276,note_off,156,0,1,,,,,,,,,0,,,83,0
585360,note_on,84,0,1,,,,,,,,,0,,,80,48
585516,note_off,156,0,1,,,,,,,,,0,,,80,0
585540,set_tempo,460,1,0,,,,,,454545,,,,,,,
585600,note_off,480,0,5,,,,,,,,,4,,,64,0
585600,note_on,84,0,1,,,,,,,,,0,,,81,46
585600,note_on,0,0,5,,,,,,,,,4,,,69,46
585600,note_on,0,0,4,,,,,,,,,3,,,73,46
585600,note_off,0,0,4,,,,,,,,,3,,,74,0
585600,note_off,480,0,4,,,,,,,,,3,,,71,0
586320,set_tempo,780,1,0,,,,,,472440,,,,,,,
586560,note_off,960,0,5,,,,,,,,,4,,,69,0
586560,note_on,0,0,4,,,,,,,,,3,,,43,47
586560,note_on,0,0,4,,,,,,,,,3,,,40,47
586560,set_tempo,240,1,0,,,,,,447761,,,,,,,
586560,note_off,960,0,1,,,,,,,,,0,,,81,0
586560,note_on,0,0,1,,,,,,,,,0,,,55,47
586560,note_on,0,0,5,,,,,,,,,4,,,33,47
586560,note_off,960,0,4,,,,,,,,,3,,,73,0
586600,note_on,0,0,1,,,,,,,,,0,,,57,47
586600,note_off,40,0,1,,,,,,,,,0,,,55,0
586620,set_tempo,60,1,0,,,,,,441176,,,,,,,
586640,note_on,0,0,1,,,,,,,,,0,,,55,47
586640,note_off,40,0,1,,,,,,,,,0,,,57,0
586680,note_on,0,0,1,,,,,,,,,0,,,57,47
586680,note_off,40,0,1,,,,,,,,,0,,,55,0
586720,note_on,0,0,1,,,,,,,,,0,,,55,47
586720,note_off,40,0,1,,,,,,,,,0,,,57,0
586760,note_on,0,0,1,,,,,,,,,0,,,57,46
586760,note_off,40,0,1,,,,,,,,,0,,,55,0
586800,note_off,40,0,1,,,,,,,,,0,,,57,0
586800,note_on,0,0,1,,,,,,,,,0,,,55,46
586840,note_off,40,0,1,,,,,,,,,0,,,55,0
586840,note_on,0,0,1,,,,,,,,,0,,,57,46
586880,note_off,40,0,1,,,,,,,,,0,,,57,0
586880,note_on,0,0,1,,,,,,,,,0,,,55,46
586920,note_off,40,0,1,,,,,,,,,0,,,55,0
586920,note_on,0,0,1,,,,,,,,,0,,,54,46
586980,note_off,60,0,1,,,,,,,,,0,,,54,0
586980,note_on,0,0,1,,,,,,,,,0,,,55,46
587000,set_tempo,380,1,0,,,,,,447761,,,,,,,
587040,set_tempo,40,1,0,,,,,,441176,,,,,,,
587040,note_on,0,0,5,,,,,,,,,4,,,33,45
587040,note_off,480,0,5,,,,,,,,,4,,,33,0
587040,note_on,0,0,1,,,,,,,,,0,,,52,45
587040,note_off,60,0,1,,,,,,,,,0,,,55,0
587040,note_on,0,0,4,,,,,,,,,3,,,43,45
587040,note_off,0,0,4,,,,,,,,,3,,,40,0
587040,note_off,480,0,4,,,,,,,,,3,,,43,0
587040,note_on,0,0,4,,,,,,,,,3,,,40,45
587196,note_off,156,0,1,,,,,,,,,0,,,52,0
587280,note_on,84,0,1,,,,,,,,,0,,,49,45
587436,note_off,156,0,1,,,,,,,,,0,,,49,0
587520,note_on,0,0,4,,,,,,,,,3,,,42,44
587520,note_off,0,0,4,,,,,,,,,3,,,40,0
587520,note_off,480,0,4,,,,,,,,,3,,,43,0
587520,note_off,480,0,5,,,,,,,,,4,,,33,0
587520,note_on,0,0,5,,,,,,,,,4,,,38,44
587520,note_on,84,0,1,,,,,,,,,0,,,50,44
587760,note_on,0,0,1,,,,,,,,,0,,,54,42
587760,note_off,240,0,1,,,,,,,,,0,,,50,0
587916,note_off,156,0,1,,,,,,,,,0,,,54,0
587940,set_tempo,900,1,0,,,,,,447761,,,,,,,
588000,note_on,84,0,1,,,,,,,,,0,,,45,40
588480,note_on,0,0,5,,,,,,,,,4,,,57,45
588480,note_on,0,0,1,,,,,,,,,0,,,79,45
588480,note_off,480,0,1,,,,,,,,,0,,,45,0
588480,note_off,960,0,4,,,,,,,,,3,,,42,0
588480,note_on,0,0,4,,,,,,,,,3,,,67,45
588480,note_on,0,0,4,,,,,,,,,3,,,64,45
588480,note_off,960,0,5,,,,,,,,,4,,,38,0
588480,set_tempo,540,1,0,,,,,,447761,,,,,,,
588520,note_off,40,0,1,,,,,,,,,0,,,79,0
588520,note_on,0,0,1,,,,,,,,,0,,,81,45
588540,set_tempo,60,1,0,,,,,,441176,,,,,,,
588560,note_off,40,0,1,,,,,,,,,0,,,81,0
588560,note_on,0,0,1,,,,,,,,,0,,,79,45
588600,note_off,40,0,1,,,,,,,,,0,,,79,0
588600,note_on,0,0,1,,,,,,,,,0,,,81,45
588640,note_off,40,0,1,,,,,,,,,0,,,81,0
588640,note_on,0,0,1,,,,,,,,,0,,,79,45
588680,note_off,40,0,1,,,,,,,,,0,,,79,0
588680,note_on,0,0,1,,,,,,,,,0,,,81,45
588720,note_off,40,0,1,,,,,,,,,0,,,81,0
588720,note_on,0,0,1,,,,,,,,,0,,,79,45
588760,note_off,40,0,1,,,,,,,,,0,,,79,0
588760,note_on,0,0,1,,,,,,,,,0,,,81,45
588800,note_off,40,0,1,,,,,,,,,0,,,81,0
588800,note_on,0,0,1,,,,,,,,,0,,,79,45
588840,note_off,40,0,1,,,,,,,,,0,,,79,0
588840,note_on,0,0,1,,,,,,,,,0,,,78,45
588900,note_on,0,0,1,,,,,,,,,0,,,79,44
588900,note_off,60,0,1,,,,,,,,,0,,,78,0
588900,set_tempo,360,1,0,,,,,,447761,,,,,,,
588960,note_on,0,0,5,,,,,,,,,4,,,57,44
588960,note_off,0,0,4,,,,,,,,,3,,,67,0
588960,note_on,0,0,4,,,,,,,,,3,,,64,44
588960,note_off,60,0,1,,,,,,,,,0,,,79,0
588960,note_on,0,0,4,,,,,,,,,3,,,67,44
588960,note_off,480,0,5,,,,,,,,,4,,,57,0
588960,note_off,480,0,4,,,,,,,,,3,,,64,0
588960,note_on,0,0,1,,,,,,,,,0,,,76,44
589200,note_on,0,0,1,,,,,,,,,0,,,73,44
589200,note_off,240,0,1,,,,,,,,,0,,,76,0
589330,set_tempo,430,1,0,,,,,,454545,,,,,,,
589440,note_off,0,0,4,,,,,,,,,3,,,64,0
589440,note_on,0,0,5,,,,,,,,,4,,,62,43
589440,note_off,480,0,5,,,,,,,,,4,,,57,0
589440,note_off,240,0,1,,,,,,,,,0,,,73,0
589440,note_on,0,0,4,,,,,,,,,3,,,66,43
589440,note_off,480,0,4,,,,,,,,,3,,,67,0
589440,note_on,0,0,1,,,,,,,,,0,,,74,43
589600,note_on,0,0,1,,,,,,,,,0,,,69,43
589600,note_off,160,0,1,,,,,,,,,0,,,74,0
589704,note_off,104,0,1,,,,,,,,,0,,,69,0
589760,note_on,56,0,1,,,,,,,,,0,,,78,42
589864,note_off,104,0,1,,,,,,,,,0,,,78,0
589920,note_on,56,0,1,,,,,,,,,0,,,78,47
589920,note_off,480,0,4,,,,,,,,,3,,,66,0
589920,note_off,480,0,5,,,,,,,,,4,,,62,0
590080,note_on,0,0,1,,,,,,,,,0,,,74,53
590080,note_off,160,0,1,,,,,,,,,0,,,78,0
590160,set_tempo,830,1,0,,,,,,461538,,,,,,,
590184,note_off,104,0,1,,,,,,,,,0,,,74,0
590240,note_on,7520,0,2,,,,,,,,,1,,,69,59
590240,note_on,56,0,1,,,,,,,,,0,,,81,59
590280,note_on,360,0,5,,,,,,,,,4,,,33,60
590280,note_on,360,0,4,,,,,,,,,3,,,45,60
590287,set_tempo,127,1,0,,,,,,472440,,,,,,,
590344,note_off,104,0,2,,,,,,,,,1,,,69,0
590344,note_off,104,0,1,,,,,,,,,0,,,81,0
590358,note_off,78,0,4,,,,,,,,,3,,,45,0
590358,note_off,78,0,5,,,,,,,,,4,,,33,0
590400,note_on,42,0,5,,,,,,,,,4,,,33,64
590400,note_on,56,0,2,,,,,,,,,1,,,69,64
590400,note_on,42,0,4,,,,,,,,,3,,,45,64
590400,note_on,56,0,1,,,,,,,,,0,,,81,64
590400,set_tempo,113,1,0,,,,,,441176,,,,,,,
590560,note_off,160,0,2,,,,,,,,,1,,,69,0
590560,note_on,0,0,2,,,,,,,,,1,,,74,64
590560,note_off,160,0,1,,,,,,,,,0,,,81,0
590560,note_on,0,0,1,,,,,,,,,0,,,78,64
590664,note_off,104,0,2,,,,,,,,,1,,,74,0
590664,note_off,104,0,1,,,,,,,,,0,,,78,0
590720,note_on,56,0,1,,,,,,,,,0,,,81,64
590720,note_on,56,0,2,,,,,,,,,1,,,69,64
590760,note_off,360,0,5,,,,,,,,,4,,,33,0
590760,note_off,360,0,4,,,,,,,,,3,,,45,0
590824,note_off,104,0,2,,,,,,,,,1,,,69,0
590824,note_off,104,0,1,,,,,,,,,0,,,81,0
590880,note_on,56,0,2,,,,,,,,,1,,,69,65
590880,note_on,120,0,4,,,,,,,,,3,,,50,65
590880,note_on,120,0,5,,,,,,,,,4,,,38,65
590880,note_on,56,0,1,,,,,,,,,0,,,81,65
591040,note_on,0,0,2,,,,,,,,,1,,,74,65
591040,note_off,160,0,2,,,,,,,,,1,,,69,0
591040,note_on,0,0,1,,,,,,,,,0,,,78,65
591040,note_off,160,0,1,,,,,,,,,0,,,81,0
591114,note_off,234,0,5,,,,,,,,,4,,,38,0
591114,note_off,234,0,4,,,,,,,,,3,,,50,0
591144,note_off,104,0,1,,,,,,,,,0,,,78,0
591144,note_off,104,0,2,,,,,,,,,1,,,74,0
591200,note_on,56,0,1,,,,,,,,,0,,,81,65
591200,note_on,56,0,2,,,,,,,,,1,,,69,65
591240,note_on,126,0,4,,,,,,,,,3,,,45,65
591240,note_on,126,0,5,,,,,,,,,4,,,33,65
591304,note_off,104,0,1,,,,,,,,,0,,,81,0
591304,note_off,104,0,2,,,,,,,,,1,,,69,0
591318,note_off,78,0,4,,,,,,,,,3,,,45,0
591318,note_off,78,0,5,,,,,,,,,4,,,33,0
591320,set_tempo,920,1,0,,,,,,447761,,,,,,,
591360,note_on,56,0,1,,,,,,,,,0,,,81,65
591360,note_on,42,0,4,,,,,,,,,3,,,45,65
591360,note_on,56,0,2,,,,,,,,,1,,,69,65
591360,note_on,42,0,5,,,,,,,,,4,,,33,65
591360,set_tempo,40,1,0,,,,,,441176,,,,,,,
591520,note_off,160,0,1,,,,,,,,,0,,,81,0
591520,note_on,0,0,1,,,,,,,,,0,,,79,66
591520,note_on,0,0,2,,,,,,,,,1,,,73,66
591520,note_off,160,0,2,,,,,,,,,1,,,69,0
591624,note_off,104,0,2,,,,,,,,,1,,,73,0
591624,note_off,104,0,1,,,,,,,,,0,,,79,0
591680,note_on,56,0,2,,,,,,,,,1,,,69,66
591680,note_on,56,0,1,,,,,,,,,0,,,81,66
591720,note_off,360,0,5,,,,,,,,,4,,,33,0
591720,note_off,360,0,4,,,,,,,,,3,,,45,0
591784,note_off,104,0,1,,,,,,,,,0,,,81,0
591784,note_off,104,0,2,,,,,,,,,1,,,69,0
591840,note_on,56,0,1,,,,,,,,,0,,,81,66
591840,note_on,120,0,5,,,,,,,,,4,,,40,66
591840,note_on,56,0,2,,,,,,,,,1,,,69,66
591840,note_on,120,0,4,,,,,,,,,3,,,52,66
592000,note_off,160,0,1,,,,,,,,,0,,,81,0
592000,note_on,0,0,2,,,,,,,,,1,,,73,66
592000,note_off,160,0,2,,,,,,,,,1,,,69,0
592000,note_on,0,0,1,,,,,,,,,0,,,79,66
592074,note_off,234,0,4,,,,,,,,,3,,,52,0
592074,note_off,234,0,5,,,,,,,,,4,,,40,0
592104,note_off,104,0,2,,,,,,,,,1,,,73,0
592104,note_off,104,0,1,,,,,,,,,0,,,79,0
592160,note_on,56,0,1,,,,,,,,,0,,,81,67
592160,note_on,56,0,2,,,,,,,,,1,,,69,67
592200,note_on,126,0,5,,,,,,,,,4,,,33,67
592200,note_on,126,0,4,,,,,,,,,3,,,45,67
592264,note_off,104,0,1,,,,,,,,,0,,,81,0
592264,note_off,104,0,2,,,,,,,,,1,,,69,0
592278,note_off,78,0,4,,,,,,,,,3,,,45,0
592278,note_off,78,0,5,,,,,,,,,4,,,33,0
592280,set_tempo,920,1,0,,,,,,447761,,,,,,,
592320,set_tempo,40,1,0,,,,,,441176,,,,,,,
592320,note_on,42,0,4,,,,,,,,,3,,,45,67
592320,note_on,42,0,5,,,,,,,,,4,,,33,67
592320,note_on,56,0,1,,,,,,,,,0,,,81,67
592320,note_on,56,0,2,,,,,,,,,1,,,69,67
592480,note_off,160,0,1,,,,,,,,,0,,,81,0
592480,note_on,0,0,1,,,,,,,,,0,,,76,67
592480,note_off,160,0,2,,,,,,,,,1,,,69,0
592480,note_on,0,0,2,,,,,,,,,1,,,73,67
592584,note_off,104,0,2,,,,,,,,,1,,,73,0
592584,note_off,104,0,1,,,,,,,,,0,,,76,0
592640,note_on,56,0,2,,,,,,,,,1,,,69,68
592640,note_on,56,0,1,,,,,,,,,0,,,81,68
592680,note_off,360,0,5,,,,,,,,,4,,,33,0
592680,note_off,360,0,4,,,,,,,,,3,,,45,0
592744,note_off,104,0,2,,,,,,,,,1,,,69,0
592744,note_off,104,0,1,,,,,,,,,0,,,81,0
592800,note_on,120,0,5,,,,,,,,,4,,,43,68
592800,note_on,56,0,2,,,,,,,,,1,,,69,68
592800,note_on,120,0,4,,,,,,,,,3,,,55,68
592800,note_on,56,0,1,,,,,,,,,0,,,81,68
592960,note_off,160,0,2,,,,,,,,,1,,,69,0
592960,note_on,0,0,2,,,,,,,,,1,,,73,68
592960,note_off,160,0,1,,,,,,,,,0,,,81,0
592960,note_on,0,0,1,,,,,,,,,0,,,76,68
593034,note_off,234,0,4,,,,,,,,,3,,,55,0
593034,note_off,234,0,5,,,,,,,,,4,,,43,0
593064,note_off,104,0,2,,,,,,,,,1,,,73,0
593064,note_off,104,0,1,,,,,,,,,0,,,76,0
593120,note_on,56,0,1,,,,,,,,,0,,,81,68
593120,note_on,56,0,2,,,,,,,,,1,,,69,68
593160,note_on,126,0,4,,,,,,,,,3,,,45,68
593160,note_on,126,0,5,,,,,,,,,4,,,33,68
593224,note_off,104,0,2,,,,,,,,,1,,,69,0
593224,note_off,104,0,1,,,,,,,,,0,,,81,0
593238,note_off,78,0,4,,,,,,,,,3,,,45,0
593238,note_off,78,0,5,,,,,,,,,4,,,33,0
593240,set_tempo,920,1,0,,,,,,447761,,,,,,,
593280,note_on,42,0,5,,,,,,,,,4,,,33,69
593280,note_on,56,0,1,,,,,,,,,0,,,81,69
593280,set_tempo,40,1,0,,,,,,441176,,,,,,,
593280,note_on,56,0,2,,,,,,,,,1,,,69,69
593280,note_on,42,0,4,,,,,,,,,3,,,45,69
593440,note_on,0,0,1,,,,,,,,,0,,,78,69
593440,note_off,160,0,2,,,,,,,,,1,,,69,0
593440,note_on,0,0,2,,,,,,,,,1,,,74,69
593440,note_off,160,0,1,,,,,,,,,0,,,81,0
593544,note_off,104,0,1,,,,,,,,,0,,,78,0
593544,note_off,104,0,2,,,,,,,,,1,,,74,0
593600,note_on,56,0,1,,,,,,,,,0,,,81,69
593600,note_on,56,0,2,,,,,,,,,1,,,69,69
593640,note_off,360,0,5,,,,,,,,,4,,,33,0
593640,note_off,360,0,4,,,,,,,,,3,,,45,0
593704,note_off,104,0,1,,,,,,,,,0,,,81,0
593704,note_off,104,0,2,,,,,,,,,1,,,69,0
593760,note_on,120,0,4,,,,,,,,,3,,,54,69
593760,note_on,56,0,1,,,,,,,,,0,,,81,69
593760,note_on,56,0,2,,,,,,,,,1,,,69,69
593760,note_on,120,0,5,,,,,,,,,4,,,42,69
593920,note_on,0,0,2,,,,,,,,,1,,,74,70
593920,note_on,0,0,1,,,,,,,,,0,,,78,70
593920,note_off,160,0,1,,,,,,,,,0,,,81,0
593920,note_off,160,0,2,,,,,,,,,1,,,69,0
593994,note_off,234,0,4,,,,,,,,,3,,,54,0
593994,note_off,234,0,5,,,,,,,,,4,,,42,0
594024,note_off,104,0,2,,,,,,,,,1,,,74,0
594024,note_off,104,0,1,,,,,,,,,0,,,78,0
594080,note_on,56,0,1,,,,,,,,,0,,,81,70
594080,note_on,56,0,2,,,,,,,,,1,,,69,70
594120,set_tempo,840,1,0,,,,,,447761,,,,,,,
594120,note_on,126,0,5,,,,,,,,,4,,,33,70
594120,note_on,126,0,4,,,,,,,,,3,,,45,70
594184,note_off,104,0,1,,,,,,,,,0,,,81,0
594184,note_off,104,0,2,,,,,,,,,1,,,69,0
594198,note_off,78,0,5,,,,,,,,,4,,,33,0
594198,note_off,78,0,4,,,,,,,,,3,,,45,0
594240,note_on,56,0,1,,,,,,,,,0,,,81,70
594240,set_tempo,120,1,0,,,,,,441176,,,,,,,
594240,note_on,56,0,2,,,,,,,,,1,,,69,70
594240,note_on,42,0,5,,,,,,,,,4,,,33,70
594240,note_on,42,0,4,,,,,,,,,3,,,45,70
594400,note_on,0,0,1,,,,,,,,,0,,,78,70
594400,note_off,160,0,2,,,,,,,,,1,,,69,0
594400,note_on,0,0,2,,,,,,,,,1,,,74,70
594400,note_off,160,0,1,,,,,,,,,0,,,81,0
594504,note_off,104,0,1,,,,,,,,,0,,,78,0
594504,note_off,104,0,2,,,,,,,,,1,,,74,0
594560,note_on,56,0,1,,,,,,,,,0,,,81,71
594560,note_on,56,0,2,,,,,,,,,1,,,69,71
594600,note_off,360,0,4,,,,,,,,,3,,,45,0
594600,note_off,360,0,5,,,,,,,,,4,,,33,0
594664,note_off,104,0,1,,,,,,,,,0,,,81,0
594664,note_off,104,0,2,,,,,,,,,1,,,69,0
594720,note_on,56,0,2,,,,,,,,,1,,,69,71
594720,note_on,120,0,4,,,,,,,,,3,,,50,71
594720,note_on,56,0,1,,,,,,,,,0,,,81,71
594720,note_on,120,0,5,,,,,,,,,4,,,38,71
594880,note_off,160,0,1,,,,,,,,,0,,,81,0
594880,note_on,0,0,1,,,,,,,,,0,,,78,71
594880,note_off,160,0,2,,,,,,,,,1,,,69,0
594880,note_on,0,0,2,,,,,,,,,1,,,74,71
594954,note_off,234,0,5,,,,,,,,,4,,,38,0
594954,note_off,234,0,4,,,,,,,,,3,,,50,0
594984,note_off,104,0,1,,,,,,,,,0,,,78,0
594984,note_off,104,0,2,,,,,,,,,1,,,74,0
595040,note_on,56,0,2,,,,,,,,,1,,,69,71
595040,note_on,56,0,1,,,,,,,,,0,,,81,71
595080,note_on,126,0,5,,,,,,,,,4,,,33,71
595080,note_on,126,0,4,,,,,,,,,3,,,45,71
595144,note_off,104,0,2,,,,,,,,,1,,,69,0
595144,note_off,104,0,1,,,,,,,,,0,,,81,0
595158,note_off,78,0,5,,,,,,,,,4,,,33,0
595158,note_off,78,0,4,,,,,,,,,3,,,45,0
595160,set_tempo,920,1,0,,,,,,447761,,,,,,,
595200,set_tempo,40,1,0,,,,,,441176,,,,,,,
595200,note_on,56,0,1,,,,,,,,,0,,,81,72
595200,note_on,42,0,5,,,,,,,,,4,,,33,72
595200,note_on,42,0,4,,,,,,,,,3,,,45,72
595200,note_on,56,0,2,,,,,,,,,1,,,69,72
595360,note_off,160,0,1,,,,,,,,,0,,,81,0
595360,note_off,160,0,2,,,,,,,,,1,,,69,0
595360,note_on,0,0,1,,,,,,,,,0,,,79,72
595360,note_on,0,0,2,,,,,,,,,1,,,73,72
595464,note_off,104,0,1,,,,,,,,,0,,,79,0
595464,note_off,104,0,2,,,,,,,,,1,,,73,0
595520,note_on,56,0,1,,,,,,,,,0,,,81,72
595520,note_on,56,0,2,,,,,,,,,1,,,69,72
595560,note_off,360,0,4,,,,,,,,,3,,,45,0
595560,note_off,360,0,5,,,,,,,,,4,,,33,0
595624,note_off,104,0,1,,,,,,,,,0,,,81,0
595624,note_off,104,0,2,,,,,,,,,1,,,69,0
595680,note_on,56,0,2,,,,,,,,,1,,,69,72
595680,note_on,56,0,1,,,,,,,,,0,,,81,72
595680,note_on,120,0,4,,,,,,,,,3,,,52,72
595680,note_on,120,0,5,,,,,,,,,4,,,40,72
595840,note_on,0,0,2,,,,,,,,,1,,,73,73
595840,note_off,160,0,1,,,,,,,,,0,,,81,0
595840,note_on,0,0,1,,,,,,,,,0,,,79,73
595840,note_off,160,0,2,,,,,,,,,1,,,69,0
595914,note_off,234,0,5,,,,,,,,,4,,,40,0
595914,note_off,234,0,4,,,,,,,,,3,,,52,0
595944,note_off,104,0,1,,,,,,,,,0,,,79,0
595944,note_off,104,0,2,,,,,,,,,1,,,73,0
596000,note_on,56,0,2,,,,,,,,,1,,,69,73
596000,note_on,56,0,1,,,,,,,,,0,,,81,73
596040,note_on,126,0,4,,,,,,,,,3,,,45,73
596040,note_on,126,0,5,,,,,,,,,4,,,33,73
596104,note_off,104,0,1,,,,,,,,,0,,,81,0
596104,note_off,104,0,2,,,,,,,,,1,,,69,0
596118,note_off,78,0,4,,,,,,,,,3,,,45,0
596118,note_off,78,0,5,,,,,,,,,4,,,33,0
596120,set_tempo,920,1,0,,,,,,447761,,,,,,,
596160,note_on,56,0,2,,,,,,,,,1,,,69,73
596160,note_on,42,0,4,,,,,,,,,3,,,45,73
596160,set_tempo,40,1,0,,,,,,441176,,,,,,,
596160,note_on,56,0,1,,,,,,,,,0,,,81,73
596160,note_on,42,0,5,,,,,,,,,4,,,33,73
596320,note_on,0,0,1,,,,,,,,,0,,,76,73
596320,note_off,160,0,1,,,,,,,,,0,,,81,0
596320,note_off,160,0,2,,,,,,,,,1,,,69,0
596320,note_on,0,0,2,,,,,,,,,1,,,73,73
596424,note_off,104,0,2,,,,,,,,,1,,,73,0
596424,note_off,104,0,1,,,,,,,,,0,,,76,0
596480,note_on,56,0,2,,,,,,,,,1,,,69,74
596480,note_on,56,0,1,,,,,,,,,0,,,81,74
596520,note_off,360,0,4,,,,,,,,,3,,,45,0
596520,note_off,360,0,5,,,,,,,,,4,,,33,0
596584,note_off,104,0,1,,,,,,,,,0,,,81,0
596584,note_off,104,0,2,,,,,,,,,1,,,69,0
596640,note_on,56,0,2,,,,,,,,,1,,,69,74
596640,note_on,120,0,4,,,,,,,,,3,,,55,74
596640,note_on,56,0,1,,,,,,,,,0,,,81,74
596640,note_on,120,0,5,,,,,,,,,4,,,43,74
596800,note_off,160,0,1,,,,,,,,,0,,,81,0
596800,note_on,0,0,1,,,,,,,,,0,,,76,74
596800,note_on,0,0,2,,,,,,,,,1,,,73,74
596800,note_off,160,0,2,,,,,,,,,1,,,69,0
596874,note_off,234,0,5,,,,,,,,,4,,,43,0
596874,note_off,234,0,4,,,,,,,,,3,,,55,0
596904,note_off,104,0,1,,,,,,,,,0,,,76,0
596904,note_off,104,0,2,,,,,,,,,1,,,73,0
596960,note_on,56,0,1,,,,,,,,,0,,,81,74
596960,note_on,56,0,2,,,,,,,,,1,,,69,74
597000,note_on,126,0,4,,,,,,,,,3,,,45,75
597000,note_on,126,0,5,,,,,,,,,4,,,33,75
597064,note_off,104,0,1,,,,,,,,,0,,,81,0
597064,note_off,104,0,2,,,,,,,,,1,,,69,0
597078,note_off,78,0,4,,,,,,,,,3,,,45,0
597078,note_off,78,0,5,,,,,,,,,4,,,33,0
597080,set_tempo,920,1,0,,,,,,447761,,,,,,,
597120,note_on,56,0,2,,,,,,,,,1,,,69,75
597120,note_on,42,0,5,,,,,,,,,4,,,42,75
597120,note_on,56,0,1,,,,,,,,,0,,,81,75
597120,set_tempo,40,1,0,,,,,,441176,,,,,,,
597280,note_off,160,0,5,,,,,,,,,4,,,42,0
597280,note_on,0,0,5,,,,,,,,,4,,,38,75
597384,note_off,104,0,5,,,,,,,,,4,,,38,0
597440,note_on,56,0,5,,,,,,,,,4,,,45,75
597480,note_off,360,0,1,,,,,,,,,0,,,81,0
597480,note_off,360,0,2,,,,,,,,,1,,,69,0
597544,note_off,104,0,5,,,,,,,,,4,,,45,0
597600,note_on,56,0,5,,,,,,,,,4,,,45,76
597760,note_on,0,0,5,,,,,,,,,4,,,42,76
597760,note_off,160,0,5,,,,,,,,,4,,,45,0
597840,set_tempo,720,1,0,,,,,,447761,,,,,,,
597864,note_off,104,0,5,,,,,,,,,4,,,42,0
597920,note_on,56,0,5,,,,,,,,,4,,,50,76
597960,set_tempo,120,1,0,,,,,,454545,,,,,,,
597960,note_on,480,0,1,,,,,,,,,0,,,86,76
597960,note_on,480,0,2,,,,,,,,,1,,,74,76
598024,note_off,104,0,5,,,,,,,,,4,,,50,0
598038,note_off,78,0,2,,,,,,,,,1,,,74,0
598038,note_off,78,0,1,,,,,,,,,0,,,86,0
598080,note_on,56,0,5,,,,,,,,,4,,,38,76
598080,note_on,1002,0,4,,,,,,,,,3,,,62,76
598080,note_on,42,0,1,,,,,,,,,0,,,86,76
598080,set_tempo,120,1,0,,,,,,441176,,,,,,,
598080,note_on,42,0,2,,,,,,,,,1,,,74,76
598240,note_off,160,0,4,,,,,,,,,3,,,62,0
598240,note_on,0,0,4,,,,,,,,,3,,,60,77
598240,note_on,0,0,4,,,,,,,,,3,,,54,77
598344,note_off,0,0,4,,,,,,,,,3,,,60,0
598344,note_off,104,0,4,,,,,,,,,3,,,54,0
598400,note_on,56,0,4,,,,,,,,,3,,,62,77
598440,note_off,360,0,5,,,,,,,,,4,,,38,0
598440,note_off,360,0,1,,,,,,,,,0,,,86,0
598440,note_off,360,0,2,,,,,,,,,1,,,74,0
598504,note_off,104,0,4,,,,,,,,,3,,,62,0
598560,note_on,120,0,5,,,,,,,,,4,,,50,77
598560,note_on,56,0,4,,,,,,,,,3,,,62,77
598560,note_on,120,0,1,,,,,,,,,0,,,81,77
598560,note_on,120,0,2,,,,,,,,,1,,,69,77
598720,note_on,0,0,4,,,,,,,,,3,,,54,77
598720,note_on,0,0,4,,,,,,,,,3,,,60,77
598720,note_off,160,0,4,,,,,,,,,3,,,62,0
598794,note_off,234,0,2,,,,,,,,,1,,,69,0
598794,note_off,234,0,1,,,,,,,,,0,,,81,0
598824,note_off,0,0,4,,,,,,,,,3,,,60,0
598824,note_off,104,0,4,,,,,,,,,3,,,54,0
598880,note_on,56,0,4,,,,,,,,,3,,,62,78
598920,note_on,126,0,2,,,,,,,,,1,,,74,78
598920,note_on,126,0,1,,,,,,,,,0,,,86,78
598920,note_off,360,0,5,,,,,,,,,4,,,50,0
598984,note_off,104,0,4,,,,,,,,,3,,,62,0
598998,note_off,78,0,2,,,,,,,,,1,,,74,0
598998,note_off,78,0,1,,,,,,,,,0,,,86,0
599000,set_tempo,920,1,0,,,,,,447761,,,,,,,
599040,note_on,42,0,2,,,,,,,,,1,,,74,78
599040,note_on,42,0,1,,,,,,,,,0,,,86,78
599040,set_tempo,40,1,0,,,,,,441176,,,,,,,
599040,note_on,120,0,5,,,,,,,,,4,,,38,78
599040,note_on,56,0,4,,,,,,,,,3,,,62,78
599200,note_off,160,0,4,,,,,,,,,3,,,62,0
599200,note_on,0,0,4,,,,,,,,,3,,,55,78
599200,note_on,0,0,4,,,,,,,,,3,,,59,78
599304,note_off,0,0,4,,,,,,,,,3,,,55,0
599304,note_off,104,0,4,,,,,,,,,3,,,59,0
599360,note_on,56,0,4,,,,,,,,,3,,,62,78
599400,note_off,360,0,5,,,,,,,,,4,,,38,0
599400,note_off,360,0,1,,,,,,,,,0,,,86,0
599400,note_off,360,0,2,,,,,,,,,1,,,74,0
599464,note_off,104,0,4,,,,,,,,,3,,,62,0
599520,note_on,120,0,5,,,,,,,,,4,,,50,79
599520,note_on,120,0,1,,,,,,,,,0,,,83,79
599520,note_on,56,0,4,,,,,,,,,3,,,62,79
599520,note_on,120,0,2,,,,,,,,,1,,,71,79
599680,note_on,0,0,4,,,,,,,,,3,,,59,79
599680,note_on,0,0,4,,,,,,,,,3,,,55,79
599680,note_off,160,0,4,,,,,,,,,3,,,62,0
599754,note_off,234,0,2,,,,,,,,,1,,,71,0
599754,note_off,234,0,1,,,,,,,,,0,,,83,0
599784,note_off,0,0,4,,,,,,,,,3,,,55,0
599784,note_off,104,0,4,,,,,,,,,3,,,59,0
599840,note_on,56,0,4,,,,,,,,,3,,,62,79
599880,note_on,126,0,1,,,,,,,,,0,,,88,79
599880,note_off,360,0,5,,,,,,,,,4,,,50,0
599880,note_on,126,0,2,,,,,,,,,1,,,76,79
599944,note_off,104,0,4,,,,,,,,,3,,,62,0
599958,note_off,78,0,2,,,,,,,,,1,,,76,0
599958,note_off,78,0,1,,,,,,,,,0,,,88,0
599960,set_tempo,920,1,0,,,,,,447761,,,,,,,
600000,note_on,42,0,1,,,,,,,,,0,,,86,79
600000,set_tempo,40,1,0,,,,,,441176,,,,,,,
600000,note_on,120,0,5,,,,,,,,,4,,,38,79
600000,note_on,56,0,4,,,,,,,,,3,,,64,79
600000,note_on,42,0,2,,,,,,,,,1,,,74,79
600128,note_off,128,0,1,,,,,,,,,0,,,86,0
600128,note_off,128,0,2,,,,,,,,,1,,,74,0
600160,note_on,32,0,1,,,,,,,,,0,,,85,80
600160,note_on,0,0,4,,,,,,,,,3,,,57,80
600160,note_on,32,0,2,,,,,,,,,1,,,73,80
600160,note_on,0,0,4,,,,,,,,,3,,,55,80
600160,note_off,160,0,4,,,,,,,,,3,,,64,0
600264,note_off,104,0,4,,,,,,,,,3,,,55,0
600264,note_off,0,0,4,,,,,,,,,3,,,57,0
600288,note_off,128,0,1,,,,,,,,,0,,,85,0
600288,note_off,128,0,2,,,,,,,,,1,,,73,0
600320,note_on,32,0,2,,,,,,,,,1,,,71,80
600320,note_on,56,0,4,,,,,,,,,3,,,64,80
600320,note_on,32,0,1,,,,,,,,,0,,,83,80
600360,note_off,360,0,5,,,,,,,,,4,,,38,0
600424,note_off,104,0,4,,,,,,,,,3,,,64,0
600448,note_off,128,0,2,,,,,,,,,1,,,71,0
600448,note_off,128,0,1,,,,,,,,,0,,,83,0
600480,note_on,120,0,5,,,,,,,,,4,,,50,80
600480,note_on,56,0,4,,,,,,,,,3,,,64,80
600480,note_on,32,0,2,,,,,,,,,1,,,69,80
600480,note_on,32,0,1,,,,,,,,,0,,,81,80
600608,note_off,128,0,2,,,,,,,,,1,,,69,0
600608,note_off,128,0,1,,,,,,,,,0,,,81,0
600640,note_on,32,0,1,,,,,,,,,0,,,83,80
600640,note_off,160,0,4,,,,,,,,,3,,,64,0
600640,note_on,0,0,4,,,,,,,,,3,,,55,80
600640,note_on,0,0,4,,,,,,,,,3,,,57,80
600640,note_on,32,0,2,,,,,,,,,1,,,71,80
600744,note_off,104,0,4,,,,,,,,,3,,,57,0
600744,note_off,0,0,4,,,,,,,,,3,,,55,0
600768,note_off,128,0,2,,,,,,,,,1,,,71,0
600768,note_off,128,0,1,,,,,,,,,0,,,83,0
600800,note_on,56,0,4,,,,,,,,,3,,,64,81
600800,note_on,32,0,1,,,,,,,,,0,,,85,81
600800,note_on,32,0,2,,,,,,,,,1,,,73,81
600840,note_off,360,0,5,,,,,,,,,4,,,50,0
600904,note_off,104,0,4,,,,,,,,,3,,,64,0
600920,set_tempo,920,1,0,,,,,,447761,,,,,,,
600928,note_off,128,0,2,,,,,,,,,1,,,73,0
600928,note_off,128,0,1,,,,,,,,,0,,,85,0
600960,note_on,32,0,2,,,,,,,,,1,,,74,81
600960,note_on,56,0,4,,,,,,,,,3,,,62,81
600960,note_on,120,0,5,,,,,,,,,4,,,38,81
600960,note_on,32,0,1,,,,,,,,,0,,,86,81
600960,set_tempo,40,1,0,,,,,,441176,,,,,,,
601120,note_on,0,0,4,,,,,,,,,3,,,54,81
601120,note_off,160,0,4,,,,,,,,,3,,,62,0
601120,note_on,0,0,4,,,,,,,,,3,,,57,81
601224,note_off,104,0,4,,,,,,,,,3,,,57,0
601224,note_off,0,0,4,,,,,,,,,3,,,54,0
601280,note_on,56,0,4,,,,,,,,,3,,,62,81
601320,note_off,360,0,1,,,,,,,,,0,,,86,0
601320,note_off,360,0,5,,,,,,,,,4,,,38,0
601320,note_off,360,0,2,,,,,,,,,1,,,74,0
601384,note_off,104,0,4,,,,,,,,,3,,,62,0
601440,note_on,56,0,4,,,,,,,,,3,,,62,82
601440,note_on,120,0,1,,,,,,,,,0,,,81,82
601440,note_on,120,0,5,,,,,,,,,4,,,50,82
601440,note_on,120,0,2,,,,,,,,,1,,,69,82
601600,note_on,0,0,4,,,,,,,,,3,,,57,82
601600,note_off,160,0,4,,,,,,,,,3,,,62,0
601600,note_on,0,0,4,,,,,,,,,3,,,54,82
601674,note_off,234,0,2,,,,,,,,,1,,,69,0
601674,note_off,234,0,1,,,,,,,,,0,,,81,0
601704,note_off,104,0,4,,,,,,,,,3,,,54,0
601704,note_off,0,0,4,,,,,,,,,3,,,57,0
601760,note_on,56,0,4,,,,,,,,,3,,,62,82
601800,note_off,360,0,5,,,,,,,,,4,,,50,0
601800,set_tempo,840,1,0,,,,,,447761,,,,,,,
601800,note_on,126,0,2,,,,,,,,,1,,,74,82
601800,note_on,126,0,1,,,,,,,,,0,,,86,82
601864,note_off,104,0,4,,,,,,,,,3,,,62,0
601878,note_off,78,0,2,,,,,,,,,1,,,74,0
601878,note_off,78,0,1,,,,,,,,,0,,,86,0
601920,note_on,42,0,1,,,,,,,,,0,,,86,82
601920,set_tempo,120,1,0,,,,,,441176,,,,,,,
601920,note_on,56,0,4,,,,,,,,,3,,,62,82
601920,note_on,120,0,5,,,,,,,,,4,,,38,82
601920,note_on,42,0,2,,,,,,,,,1,,,74,82
602080,note_off,160,0,4,,,,,,,,,3,,,62,0
602080,note_on,0,0,4,,,,,,,,,3,,,60,83
602080,note_on,0,0,4,,,,,,,,,3,,,54,83
602154,note_off,234,0,1,,,,,,,,,0,,,86,0
602154,note_off,234,0,2,,,,,,,,,1,,,74,0
602184,note_off,0,0,4,,,,,,,,,3,,,60,0
602184,note_off,104,0,4,,,,,,,,,3,,,54,0
602240,note_on,56,0,4,,,,,,,,,3,,,62,83
602280,note_off,360,0,5,,,,,,,,,4,,,38,0
602344,note_off,104,0,4,,,,,,,,,3,,,62,0
602400,note_on,56,0,4,,,,,,,,,3,,,62,83
602400,note_on,246,0,1,,,,,,,,,0,,,81,83
602400,note_on,120,0,5,,,,,,,,,4,,,50,83
602400,note_on,246,0,2,,,,,,,,,1,,,69,83
602560,note_off,160,0,4,,,,,,,,,3,,,62,0
602560,note_on,0,0,4,,,,,,,,,3,,,60,84
602560,note_on,0,0,4,,,,,,,,,3,,,54,84
602634,note_off,234,0,1,,,,,,,,,0,,,81,0
602634,note_off,234,0,2,,,,,,,,,1,,,69,0
602664,note_off,104,0,4,,,,,,,,,3,,,54,0
602664,note_off,0,0,4,,,,,,,,,3,,,60,0
602720,note_on,56,0,4,,,,,,,,,3,,,62,84
602760,note_on,126,0,2,,,,,,,,,1,,,74,84
602760,note_off,360,0,5,,,,,,,,,4,,,50,0
602760,note_on,126,0,1,,,,,,,,,0,,,86,84
602824,note_off,104,0,4,,,,,,,,,3,,,62,0
602838,note_off,78,0,2,,,,,,,,,1,,,74,0
602838,note_off,78,0,1,,,,,,,,,0,,,86,0
602840,set_tempo,920,1,0,,,,,,447761,,,,,,,
602880,note_on,42,0,1,,,,,,,,,0,,,86,84
602880,set_tempo,40,1,0,,,,,,441176,,,,,,,
602880,note_on,56,0,4,,,,,,,,,3,,,62,84
602880,note_on,120,0,5,,,,,,,,,4,,,38,84
602880,note_on,42,0,2,,,,,,,,,1,,,74,84
603040,note_on,0,0,4,,,,,,,,,3,,,59,84
603040,note_off,160,0,4,,,,,,,,,3,,,62,0
603040,note_on,0,0,4,,,,,,,,,3,,,55,84
603114,note_off,234,0,1,,,,,,,,,0,,,86,0
603114,note_off,234,0,2,,,,,,,,,1,,,74,0
603144,note_off,0,0,4,,,,,,,,,3,,,55,0
603144,note_off,104,0,4,,,,,,,,,3,,,59,0
603200,note_on,56,0,4,,,,,,,,,3,,,62,85
603240,note_off,360,0,5,,,,,,,,,4,,,38,0
603304,note_off,104,0,4,,,,,,,,,3,,,62,0
603360,note_on,246,0,1,,,,,,,,,0,,,83,85
603360,note_on,246,0,2,,,,,,,,,1,,,71,85
603360,note_on,120,0,5,,,,,,,,,4,,,50,85
603360,note_on,56,0,4,,,,,,,,,3,,,62,85
603520,note_on,0,0,4,,,,,,,,,3,,,55,85
603520,note_on,0,0,4,,,,,,,,,3,,,59,85
603520,note_off,160,0,4,,,,,,,,,3,,,62,0
603594,note_off,234,0,1,,,,,,,,,0,,,83,0
603594,note_off,234,0,2,,,,,,,,,1,,,71,0
603624,note_off,104,0,4,,,,,,,,,3,,,59,0
603624,note_off,0,0,4,,,,,,,,,3,,,55,0
603680,note_on,56,0,4,,,,,,,,,3,,,62,85
603720,note_off,360,0,5,,,,,,,,,4,,,50,0
603720,note_on,126,0,1,,,,,,,,,0,,,88,85
603720,note_on,126,0,2,,,,,,,,,1,,,76,85
603784,note_off,104,0,4,,,,,,,,,3,,,62,0
603798,note_off,78,0,1,,,,,,,,,0,,,88,0
603798,note_off,78,0,2,,,,,,,,,1,,,76,0
603800,set_tempo,920,1,0,,,,,,447761,,,,,,,
603840,note_on,56,0,4,,,,,,,,,3,,,64,86
603840,note_on,42,0,2,,,,,,,,,1,,,74,86
603840,note_on,42,0,1,,,,,,,,,0,,,86,86
603840,set_tempo,40,1,0,,,,,,441176,,,,,,,
603840,note_on,120,0,5,,,,,,,,,4,,,38,86
603968,note_off,128,0,2,,,,,,,,,1,,,74,0
603968,note_off,128,0,1,,,,,,,,,0,,,86,0
604000,note_on,0,0,4,,,,,,,,,3,,,57,86
604000,note_on,0,0,4,,,,,,,,,3,,,55,86
604000,note_off,160,0,4,,,,,,,,,3,,,64,0
604000,note_on,32,0,1,,,,,,,,,0,,,85,86
604000,note_on,32,0,2,,,,,,,,,1,,,73,86
604104,note_off,104,0,4,,,,,,,,,3,,,55,0
604104,note_off,0,0,4,,,,,,,,,3,,,57,0
604128,note_off,128,0,1,,,,,,,,,0,,,85,0
604128,note_off,128,0,2,,,,,,,,,1,,,73,0
604160,note_on,56,0,4,,,,,,,,,3,,,64,86
604160,note_on,32,0,1,,,,,,,,,0,,,83,86
604160,note_on,32,0,2,,,,,,,,,1,,,71,86
604200,note_off,360,0,5,,,,,,,,,4,,,38,0
604264,note_off,104,0,4,,,,,,,,,3,,,64,0
604288,note_off,128,0,2,,,,,,,,,1,,,71,0
604288,note_off,128,0,1,,,,,,,,,0,,,83,0
604320,note_on,120,0,5,,,,,,,,,4,,,50,86
604320,note_on,32,0,1,,,,,,,,,0,,,81,86
604320,note_on,56,0,4,,,,,,,,,3,,,64,86
604320,note_on,32,0,2,,,,,,,,,1,,,69,86
604448,note_off,128,0,1,,,,,,,,,0,,,81,0
604448,note_off,128,0,2,,,,,,,,,1,,,69,0
604480,note_off,160,0,4,,,,,,,,,3,,,64,0
604480,note_on,0,0,4,,,,,,,,,3,,,55,87
604480,note_on,0,0,4,,,,,,,,,3,,,57,87
604480,note_on,32,0,1,,,,,,,,,0,,,83,87
604480,note_on,32,0,2,,,,,,,,,1,,,71,87
604584,note_off,104,0,4,,,,,,,,,3,,,57,0
604584,note_off,0,0,4,,,,,,,,,3,,,55,0
604608,note_off,128,0,2,,,,,,,,,1,,,71,0
604608,note_off,128,0,1,,,,,,,,,0,,,83,0
604640,note_on,32,0,1,,,,,,,,,0,,,85,87
604640,note_on,32,0,2,,,,,,,,,1,,,73,87
604640,note_on,56,0,4,,,,,,,,,3,,,64,87
604680,note_off,360,0,5,,,,,,,,,4,,,50,0
604744,note_off,104,0,4,,,,,,,,,3,,,64,0
604760,set_tempo,920,1,0,,,,,,447761,,,,,,,
604768,note_off,128,0,2,,,,,,,,,1,,,73,0
604768,note_off,128,0,1,,,,,,,,,0,,,85,0
604800,note_on,32,0,2,,,,,,,,,1,,,74,87
604800,note_on,32,0,1,,,,,,,,,0,,,86,87
604800,note_on,120,0,5,,,,,,,,,4,,,38,87
604800,note_on,0,0,4,,,,,,,,,3,,,54,87
604800,note_on,0,0,4,,,,,,,,,3,,,57,87
604800,note_on,56,0,4,,,,,,,,,3,,,62,87
604800,set_tempo,40,1,0,,,,,,441176,,,,,,,
605160,note_off,360,0,2,,,,,,,,,1,,,74,0
605160,note_off,360,0,1,,,,,,,,,0,,,86,0
605160,note_off,360,0,4,,,,,,,,,3,,,54,0
605160,note_off,0,0,4,,,,,,,,,3,,,57,0
605160,note_off,0,0,4,,,,,,,,,3,,,62,0
605160,note_off,360,0,5,,,,,,,,,4,,,38,0
605640,note_on,480,0,4,,,,,,,,,3,,,33,89
605640,note_on,0,0,4,,,,,,,,,3,,,45,89
605718,note_off,78,0,4,,,,,,,,,3,,,45,0
605718,note_off,0,0,4,,,,,,,,,3,,,33,0
605720,set_tempo,920,1,0,,,,,,447761,,,,,,,
605760,set_tempo,40,1,0,,,,,,441176,,,,,,,
605760,note_on,600,0,5,,,,,,,,,4,,,33,92
605760,note_on,42,0,4,,,,,,,,,3,,,45,92
606120,note_off,360,0,5,,,,,,,,,4,,,33,0
606120,note_off,360,0,4,,,,,,,,,3,,,45,0
606720,note_on,1560,0,1,,,,,,,,,0,,,81,60
606720,note_on,0,0,2,,,,,,,,,1,,,69,60
606720,note_on,0,0,2,,,,,,,,,1,,,74,60
606720,note_on,0,0,2,,,,,,,,,1,,,62,60
606720,note_on,0,0,2,,,,,,,,,1,,,66,60
606720,note_on,1560,0,2,,,,,,,,,1,,,78,60
607080,note_off,0,0,2,,,,,,,,,1,,,66,0
607080,note_off,0,0,2,,,,,,,,,1,,,62,0
607080,note_off,360,0,2,,,,,,,,,1,,,69,0
607080,note_off,360,0,1,,,,,,,,,0,,,81,0
607080,note_off,0,0,2,,,,,,,,,1,,,78,0
607080,note_off,0,0,2,,,,,,,,,1,,,74,0
607560,note_on,1440,0,5,,,,,,,,,4,,,33,79
607560,note_on,1440,0,4,,,,,,,,,3,,,45,79
607638,note_off,78,0,4,,,,,,,,,3,,,45,0
607638,note_off,78,0,5,,,,,,,,,4,,,33,0
607640,set_tempo,1880,1,0,,,,,,447761,,,,,,,
607680,note_on,42,0,5,,,,,,,,,4,,,33,82
607680,note_on,42,0,4,,,,,,,,,3,,,45,82
608040,note_off,360,0,5,,,,,,,,,4,,,33,0
608040,note_off,360,0,4,,,,,,,,,3,,,45,0
608640,note_on,0,0,2,,,,,,,,,1,,,74,47
608640,note_on,0,0,2,,,,,,,,,1,,,78,47
608640,note_on,0,0,2,,,,,,,,,1,,,62,47
608640,note_on,1560,0,2,,,,,,,,,1,,,69,47
608640,note_on,0,0,2,,,,,,,,,1,,,66,47
608640,note_on,1560,0,1,,,,,,,,,0,,,81,47
609000,note_off,360,0,2,,,,,,,,,1,,,74,0
609000,note_off,0,0,2,,,,,,,,,1,,,78,0
609000,note_off,360,0,1,,,,,,,,,0,,,81,0
609000,note_off,0,0,2,,,,,,,,,1,,,66,0
609000,note_off,0,0,2,,,,,,,,,1,,,62,0
609000,note_off,0,0,2,,,,,,,,,1,,,69,0
609120,set_tempo,1480,1,0,,,,,,441176,,,,,,,
609480,note_on,1440,0,4,,,,,,,,,3,,,45,82
609480,note_on,1440,0,5,,,,,,,,,4,,,33,82
609558,note_off,78,0,4,,,,,,,,,3,,,45,0
609558,note_off,78,0,5,,,,,,,,,4,,,33,0
609560,set_tempo,440,1,0,,,,,,447761,,,,,,,
609600,note_on,42,0,5,,,,,,,,,4,,,33,87
609600,note_on,42,0,4,,,,,,,,,3,,,45,87
609600,set_tempo,40,1,0,,,,,,441176,,,,,,,
609960,note_off,360,0,4,,,,,,,,,3,,,45,0
609960,note_off,360,0,5,,,,,,,,,4,,,33,0
610080,note_on,120,0,4,,,,,,,,,3,,,50,87
610080,note_on,120,0,5,,,,,,,,,4,,,38,87
610236,note_off,156,0,5,,,,,,,,,4,,,38,0
610236,note_off,156,0,4,,,,,,,,,3,,,50,0
610440,note_on,204,0,4,,,,,,,,,3,,,45,88
610440,note_on,204,0,5,,,,,,,,,4,,,33,88
610518,note_off,78,0,5,,,,,,,,,4,,,33,0
610518,note_off,78,0,4,,,,,,,,,3,,,45,0
610520,set_tempo,920,1,0,,,,,,447761,,,,,,,
610560,set_tempo,40,1,0,,,,,,441176,,,,,,,
610560,note_on,42,0,4,,,,,,,,,3,,,45,94
610560,note_on,42,0,5,,,,,,,,,4,,,33,94
610560,note_on,1560,0,2,,,,,,,,,1,,,62,94
610560,note_on,0,0,2,,,,,,,,,1,,,66,94
610560,note_on,0,0,2,,,,,,,,,1,,,69,94
610560,note_on,0,0,2,,,,,,,,,1,,,74,94
610560,note_on,0,0,2,,,,,,,,,1,,,78,94
610560,note_on,1560,0,1,,,,,,,,,0,,,81,94
610794,note_off,234,0,2,,,,,,,,,1,,,78,0
610794,note_off,234,0,1,,,,,,,,,0,,,81,0
610794,note_off,0,0,2,,,,,,,,,1,,,74,0
610794,note_off,0,0,2,,,,,,,,,1,,,69,0
610794,note_off,0,0,2,,,,,,,,,1,,,62,0
610794,note_off,0,0,2,,,,,,,,,1,,,66,0
610920,note_off,360,0,4,,,,,,,,,3,,,45,0
610920,note_off,360,0,5,,,,,,,,,4,,,33,0
611040,note_on,246,0,2,,,,,,,,,1,,,66,96
611040,note_on,0,0,2,,,,,,,,,1,,,62,96
611040,note_on,120,0,5,,,,,,,,,4,,,38,96
611040,note_on,0,0,2,,,,,,,,,1,,,74,96
611040,note_on,246,0,1,,,,,,,,,0,,,81,96
611040,note_on,120,0,4,,,,,,,,,3,,,50,96
611040,note_on,0,0,2,,,,,,,,,1,,,78,96
611040,note_on,0,0,2,,,,,,,,,1,,,69,96
611196,note_off,156,0,5,,,,,,,,,4,,,38,0
611196,note_off,156,0,4,,,,,,,,,3,,,50,0
611274,note_off,234,0,1,,,,,,,,,0,,,81,0
611274,note_off,0,0,2,,,,,,,,,1,,,74,0
611274,note_off,0,0,2,,,,,,,,,1,,,62,0
611274,note_off,0,0,2,,,,,,,,,1,,,69,0
611274,note_off,234,0,2,,,,,,,,,1,,,78,0
611274,note_off,0,0,2,,,,,,,,,1,,,66,0
611400,note_on,126,0,1,,,,,,,,,0,,,81,99
611400,note_on,0,0,2,,,,,,,,,1,,,67,99
611400,note_on,204,0,5,,,,,,,,,4,,,33,99
611400,note_on,126,0,2,,,,,,,,,1,,,69,99
611400,note_on,204,0,4,,,,,,,,,3,,,45,99
611400,note_on,0,0,2,,,,,,,,,1,,,64,99
611400,set_tempo,840,1,0,,,,,,461538,,,,,,,
611400,note_on,0,0,2,,,,,,,,,1,,,76,99
611400,note_on,0,0,2,,,,,,,,,1,,,73,99
611400,note_on,0,0,2,,,,,,,,,1,,,57,99
611478,note_off,78,0,1,,,,,,,,,0,,,81,0
611478,note_off,78,0,5,,,,,,,,,4,,,33,0
611478,note_off,78,0,2,,,,,,,,,1,,,57,0
611478,note_off,0,0,2,,,,,,,,,1,,,73,0
611478,note_off,0,0,2,,,,,,,,,1,,,76,0
611478,note_off,78,0,4,,,,,,,,,3,,,45,0
611478,note_off,0,0,2,,,,,,,,,1,,,64,0
611478,note_off,0,0,2,,,,,,,,,1,,,67,0
611478,note_off,0,0,2,,,,,,,,,1,,,69,0
611520,note_on,42,0,2,,,,,,,,,1,,,57,104
611520,set_tempo,120,1,0,,,,,,517241,,,,,,,
611520,end_of_track,0,1,0,,,,,,,,,,,,,
611520,note_on,42,0,1,,,,,,,,,0,,,81,104
611520,note_on,42,0,4,,,,,,,,,3,,,45,104
611520,note_on,0,0,2,,,,,,,,,1,,,73,104
611520,note_on,0,0,2,,,,,,,,,1,,,76,104
611520,note_on,42,0,5,,,,,,,,,4,,,33,104
611520,note_on,0,0,2,,,,,,,,,1,,,61,104
611520,note_on,0,0,2,,,,,,,,,1,,,69,104
611520,note_on,0,0,2,,,,,,,,,1,,,64,104
611520,note_on,0,0,2,,,,,,,,,1,,,67,104
612480,note_off,960,0,4,,,,,,,,,3,,,45,0
612480,note_off,960,0,5,,,,,,,,,4,,,33,0
612480,note_off,960,0,1,,,,,,,,,0,,,81,0
612480,note_on,0,0,1,,,,,,,,,0,,,74,88
612480,note_on,0,0,5,,,,,,,,,4,,,38,88
612480,note_on,0,0,2,,,,,,,,,1,,,66,88
612480,note_on,0,0,2,,,,,,,,,1,,,69,88
612480,note_on,0,0,2,,,,,,,,,1,,,62,88
612480,note_off,0,0,2,,,,,,,,,1,,,57,0
612480,note_off,0,0,2,,,,,,,,,1,,,67,0
612480,note_off,0,0,2,,,,,,,,,1,,,73,0
612480,note_off,0,0,2,,,,,,,,,1,,,76,0
612480,note_off,0,0,2,,,,,,,,,1,,,61,0
612480,note_off,0,0,2,,,,,,,,,1,,,69,0
612480,note_off,960,0,2,,,,,,,,,1,,,64,0
612480,note_on,0,0,4,,,,,,,,,3,,,50,88
612480,note_on,0,0,2,,,,,,,,,1,,,57,88
612840,note_off,360,0,4,,,,,,,,,3,,,50,0
612840,note_off,360,0,5,,,,,,,,,4,,,38,0
612840,note_off,360,0,2,,,,,,,,,1,,,66,0
612840,note_off,0,0,2,,,,,,,,,1,,,57,0
612840,note_off,0,0,2,,,,,,,,,1,,,69,0
612840,note_off,0,0,2,,,,,,,,,1,,,62,0
612840,end_of_track,0,1,2,,,,,,,,,,,,,
612840,end_of_track,0,1,1,,,,,,,,,,,,,
612840,note_off,360,0,1,,,,,,,,,0,,,74,0
612840,end_of_track,0,1,4,,,,,,,,,,,,,
612840,end_of_track,0,1,5,,,,,,,,,,,,,
