tick,type,numerator,denominator,clocks_per_click,notated_32nd_notes_per_beat,time,meta,track,tempo,program,channel,control,value,note,velocity
0,time_signature,3,4,24,8,0,1,0,,,,,,,
0,set_tempo,,,,,0,1,0,240000,,,,,,
0,program_change,,,,,0,0,0,,0,2,,,,
0,control_change,,,,,0,0,0,,,2,7,127,,
0,note_on,,,,,0,0,0,,,2,,,36,100
0,note_on,,,,,0,0,0,,,2,,,48,100
144,note_off,,,,,144,0,0,,,2,,,48,64
144,note_off,,,,,0,0,0,,,2,,,36,64
144,note_on,,,,,0,0,0,,,2,,,39,100
144,note_on,,,,,0,0,0,,,2,,,51,100
288,note_off,,,,,144,0,0,,,2,,,51,64
288,note_off,,,,,0,0,0,,,2,,,39,64
288,note_on,,,,,0,0,0,,,2,,,43,100
288,note_on,,,,,0,0,0,,,2,,,55,100
432,note_off,,,,,144,0,0,,,2,,,55,64
432,note_off,,,,,0,0,0,,,2,,,43,64
432,note_on,,,,,0,0,0,,,2,,,60,100
432,note_on,,,,,0,0,0,,,2,,,48,100
576,note_off,,,,,144,0,0,,,2,,,48,64
576,note_off,,,,,0,0,0,,,2,,,60,64
576,note_on,,,,,0,0,0,,,2,,,63,100
576,note_on,,,,,0,0,0,,,2,,,51,100
720,note_off,,,,,144,0,0,,,2,,,51,64
720,note_off,,,,,0,0,0,,,2,,,63,64
720,note_on,,,,,0,0,0,,,2,,,55,100
720,note_on,,,,,0,0,0,,,2,,,67,100
864,note_off,,,,,144,0,0,,,2,,,67,64
864,note_off,,,,,0,0,0,,,2,,,55,64
864,note_on,,,,,0,0,0,,,2,,,60,100
864,note_on,,,,,0,0,0,,,2,,,79,100
1008,note_off,,,,,144,0,0,,,2,,,79,64
1008,note_off,,,,,0,0,0,,,2,,,60,64
1008,note_on,,,,,0,0,0,,,2,,,63,100
1008,note_on,,,,,0,0,0,,,2,,,75,100
1152,note_off,,,,,144,0,0,,,2,,,75,64
1152,note_off,,,,,0,0,0,,,2,,,63,64
1152,note_on,,,,,0,0,0,,,2,,,67,100
1152,note_on,,,,,0,0,0,,,2,,,72,100
1296,note_off,,,,,144,0,0,,,2,,,72,64
1296,note_off,,,,,0,0,0,,,2,,,67,64
1296,note_on,,,,,0,0,0,,,2,,,79,100
1296,note_on,,,,,0,0,0,,,2,,,59,100
1440,note_off,,,,,144,0,0,,,2,,,59,64
1440,note_off,,,,,0,0,0,,,2,,,79,64
1440,note_on,,,,,0,0,0,,,2,,,62,100
1440,note_on,,,,,0,0,0,,,2,,,74,100
1584,note_off,,,,,144,0,0,,,2,,,74,64
1584,note_off,,,,,0,0,0,,,2,,,62,64
1584,note_on,,,,,0,0,0,,,2,,,67,100
1584,note_on,,,,,0,0,0,,,2,,,71,100
1728,note_off,,,,,144,0,0,,,2,,,71,64
1728,note_off,,,,,0,0,0,,,2,,,67,64
1728,note_on,,,,,0,0,0,,,2,,,47,100
1728,note_on,,,,,0,0,0,,,2,,,67,100
1872,note_off,,,,,144,0,0,,,2,,,67,64
1872,note_off,,,,,0,0,0,,,2,,,47,64
1872,note_on,,,,,0,0,0,,,2,,,50,100
1872,note_on,,,,,0,0,0,,,2,,,62,100
2016,note_off,,,,,144,0,0,,,2,,,62,64
2016,note_off,,,,,0,0,0,,,2,,,50,64
2016,note_on,,,,,0,0,0,,,2,,,59,100
2016,note_on,,,,,0,0,0,,,2,,,55,100
2160,note_off,,,,,144,0,0,,,2,,,55,64
2160,note_off,,,,,0,0,0,,,2,,,59,64
2160,note_on,,,,,0,0,0,,,2,,,46,100
2160,note_on,,,,,0,0,0,,,2,,,67,100
2304,note_off,,,,,144,0,0,,,2,,,67,64
2304,note_off,,,,,0,0,0,,,2,,,46,64
2304,note_on,,,,,0,0,0,,,2,,,50,100
2304,note_on,,,,,0,0,0,,,2,,,62,100
2448,note_off,,,,,144,0,0,,,2,,,62,64
2448,note_off,,,,,0,0,0,,,2,,,50,64
2448,note_on,,,,,0,0,0,,,2,,,55,100
2448,note_on,,,,,0,0,0,,,2,,,58,100
2592,note_off,,,,,144,0,0,,,2,,,58,64
2592,note_off,,,,,0,0,0,,,2,,,55,64
2592,note_on,,,,,0,0,0,,,2,,,58,100
2592,note_on,,,,,0,0,0,,,2,,,79,100
2736,note_off,,,,,144,0,0,,,2,,,79,64
2736,note_off,,,,,0,0,0,,,2,,,58,64
2736,note_on,,,,,0,0,0,,,2,,,74,100
2736,note_on,,,,,0,0,0,,,2,,,62,100
2880,note_off,,,,,144,0,0,,,2,,,62,64
2880,note_off,,,,,0,0,0,,,2,,,74,64
2880,note_on,,,,,0,0,0,,,2,,,67,100
2880,note_on,,,,,0,0,0,,,2,,,70,100
3024,note_off,,,,,144,0,0,,,2,,,70,64
3024,note_off,,,,,0,0,0,,,2,,,67,64
3024,note_on,,,,,0,0,0,,,2,,,57,100
3024,note_on,,,,,0,0,0,,,2,,,77,100
3168,note_off,,,,,144,0,0,,,2,,,77,64
3168,note_off,,,,,0,0,0,,,2,,,57,64
3168,note_on,,,,,0,0,0,,,2,,,60,100
3168,note_on,,,,,0,0,0,,,2,,,72,100
3312,note_off,,,,,144,0,0,,,2,,,72,64
3312,note_off,,,,,0,0,0,,,2,,,60,64
3312,note_on,,,,,0,0,0,,,2,,,65,100
3312,note_on,,,,,0,0,0,,,2,,,69,100
3456,note_off,,,,,144,0,0,,,2,,,69,64
3456,note_off,,,,,0,0,0,,,2,,,65,64
3456,note_on,,,,,0,0,0,,,2,,,65,100
3456,note_on,,,,,0,0,0,,,2,,,45,100
3600,note_off,,,,,144,0,0,,,2,,,45,64
3600,note_off,,,,,0,0,0,,,2,,,65,64
3600,note_on,,,,,0,0,0,,,2,,,48,100
3600,note_on,,,,,0,0,0,,,2,,,60,100
3744,note_off,,,,,144,0,0,,,2,,,60,64
3744,note_off,,,,,0,0,0,,,2,,,48,64
3744,note_on,,,,,0,0,0,,,2,,,53,100
3744,note_on,,,,,0,0,0,,,2,,,57,100
3888,note_off,,,,,144,0,0,,,2,,,57,64
3888,note_off,,,,,0,0,0,,,2,,,53,64
3888,note_on,,,,,0,0,0,,,2,,,44,100
3888,note_on,,,,,0,0,0,,,2,,,65,100
4032,note_off,,,,,144,0,0,,,2,,,65,64
4032,note_off,,,,,0,0,0,,,2,,,44,64
4032,note_on,,,,,0,0,0,,,2,,,48,100
4032,note_on,,,,,0,0,0,,,2,,,60,100
4176,note_off,,,,,144,0,0,,,2,,,60,64
4176,note_off,,,,,0,0,0,,,2,,,48,64
4176,note_on,,,,,0,0,0,,,2,,,56,100
4176,note_on,,,,,0,0,0,,,2,,,53,100
4320,note_off,,,,,144,0,0,,,2,,,53,64
4320,note_off,,,,,0,0,0,,,2,,,56,64
4320,note_on,,,,,0,0,0,,,2,,,56,100
4320,note_on,,,,,0,0,0,,,2,,,77,100
4464,note_off,,,,,144,0,0,,,2,,,77,64
4464,note_off,,,,,0,0,0,,,2,,,56,64
4464,note_on,,,,,0,0,0,,,2,,,60,100
4464,note_on,,,,,0,0,0,,,2,,,72,100
4608,note_off,,,,,144,0,0,,,2,,,72,64
4608,note_off,,,,,0,0,0,,,2,,,60,64
4608,note_on,,,,,0,0,0,,,2,,,65,100
4608,note_on,,,,,0,0,0,,,2,,,68,100
4752,note_off,,,,,144,0,0,,,2,,,68,64
4752,note_off,,,,,0,0,0,,,2,,,65,64
4752,note_on,,,,,0,0,0,,,2,,,55,100
4752,note_on,,,,,0,0,0,,,2,,,75,100
4896,note_off,,,,,144,0,0,,,2,,,75,64
4896,note_off,,,,,0,0,0,,,2,,,55,64
4896,note_on,,,,,0,0,0,,,2,,,72,100
4896,note_on,,,,,0,0,0,,,2,,,60,100
5040,note_off,,,,,144,0,0,,,2,,,60,64
5040,note_off,,,,,0,0,0,,,2,,,72,64
5040,note_on,,,,,0,0,0,,,2,,,63,100
5040,note_on,,,,,0,0,0,,,2,,,67,100
5184,note_off,,,,,144,0,0,,,2,,,67,64
5184,note_off,,,,,0,0,0,,,2,,,63,64
5184,note_on,,,,,0,0,0,,,2,,,36,100
5184,note_on,,,,,0,0,0,,,2,,,48,100
5184,note_on,,,,,0,0,0,,,2,,,62,100
5184,note_on,,,,,0,0,0,,,2,,,75,100
5328,note_off,,,,,144,0,0,,,2,,,75,64
5328,note_off,,,,,0,0,0,,,2,,,62,64
5328,note_off,,,,,0,0,0,,,2,,,48,64
5328,note_off,,,,,0,0,0,,,2,,,36,64
5328,note_on,,,,,0,0,0,,,2,,,43,100
5328,note_on,,,,,0,0,0,,,2,,,69,100
5472,note_off,,,,,144,0,0,,,2,,,69,64
5472,note_off,,,,,0,0,0,,,2,,,43,64
5472,note_on,,,,,0,0,0,,,2,,,45,100
5472,note_on,,,,,0,0,0,,,2,,,67,100
5616,note_off,,,,,144,0,0,,,2,,,67,64
5616,note_off,,,,,0,0,0,,,2,,,45,64
5616,note_on,,,,,0,0,0,,,2,,,74,100
5616,note_on,,,,,0,0,0,,,2,,,62,100
5616,note_on,,,,,0,0,0,,,2,,,50,100
5616,note_on,,,,,0,0,0,,,2,,,38,100
5760,note_off,,,,,144,0,0,,,2,,,38,64
5760,note_off,,,,,0,0,0,,,2,,,50,64
5760,note_off,,,,,0,0,0,,,2,,,62,64
5760,note_off,,,,,0,0,0,,,2,,,74,64
5760,note_on,,,,,0,0,0,,,2,,,43,100
5760,note_on,,,,,0,0,0,,,2,,,70,100
5904,note_off,,,,,144,0,0,,,2,,,70,64
5904,note_off,,,,,0,0,0,,,2,,,43,64
5904,note_on,,,,,0,0,0,,,2,,,46,100
5904,note_on,,,,,0,0,0,,,2,,,67,100
6048,note_off,,,,,144,0,0,,,2,,,67,64
6048,note_off,,,,,0,0,0,,,2,,,46,64
6048,note_on,,,,,0,0,0,,,2,,,38,100
6048,note_on,,,,,0,0,0,,,2,,,50,100
6048,note_on,,,,,0,0,0,,,2,,,62,100
6048,note_on,,,,,0,0,0,,,2,,,74,100
6192,note_off,,,,,144,0,0,,,2,,,74,64
6192,note_off,,,,,0,0,0,,,2,,,62,64
6192,note_off,,,,,0,0,0,,,2,,,50,64
6192,note_off,,,,,0,0,0,,,2,,,38,64
6192,note_on,,,,,0,0,0,,,2,,,42,100
6192,note_on,,,,,0,0,0,,,2,,,69,100
6336,note_off,,,,,144,0,0,,,2,,,69,64
6336,note_off,,,,,0,0,0,,,2,,,42,64
6336,note_on,,,,,0,0,0,,,2,,,66,100
6336,note_on,,,,,0,0,0,,,2,,,45,100
6480,note_off,,,,,144,0,0,,,2,,,45,64
6480,note_off,,,,,0,0,0,,,2,,,66,64
6480,note_on,,,,,0,0,0,,,2,,,31,100
6480,note_on,,,,,0,0,0,,,2,,,43,100
6480,note_on,,,,,0,0,0,,,2,,,67,100
6624,note_off,,,,,144,0,0,,,2,,,67,64
6624,note_off,,,,,0,0,0,,,2,,,43,64
6624,note_off,,,,,0,0,0,,,2,,,31,64
6624,note_on,,,,,0,0,0,,,2,,,39,100
6768,note_off,,,,,144,0,0,,,2,,,39,64
6768,note_on,,,,,0,0,0,,,2,,,38,100
6912,note_off,,,,,144,0,0,,,2,,,38,64
6912,note_on,,,,,0,0,0,,,2,,,36,100
6912,note_on,,,,,0,0,0,,,2,,,48,100
7056,note_off,,,,,144,0,0,,,2,,,48,64
7056,note_off,,,,,0,0,0,,,2,,,36,64
7056,note_on,,,,,0,0,0,,,2,,,51,100
7056,note_on,,,,,0,0,0,,,2,,,39,100
7200,note_off,,,,,144,0,0,,,2,,,39,64
7200,note_off,,,,,0,0,0,,,2,,,51,64
7200,note_on,,,,,0,0,0,,,2,,,43,100
7200,note_on,,,,,0,0,0,,,2,,,55,100
7344,note_off,,,,,144,0,0,,,2,,,55,64
7344,note_off,,,,,0,0,0,,,2,,,43,64
7344,note_on,,,,,0,0,0,,,2,,,60,100
7344,note_on,,,,,0,0,0,,,2,,,48,100
7488,note_off,,,,,144,0,0,,,2,,,48,64
7488,note_off,,,,,0,0,0,,,2,,,60,64
7488,note_on,,,,,0,0,0,,,2,,,51,100
7488,note_on,,,,,0,0,0,,,2,,,63,100
7632,note_off,,,,,144,0,0,,,2,,,63,64
7632,note_off,,,,,0,0,0,,,2,,,51,64
7632,note_on,,,,,0,0,0,,,2,,,55,100
7632,note_on,,,,,0,0,0,,,2,,,67,100
7776,note_off,,,,,144,0,0,,,2,,,67,64
7776,note_off,,,,,0,0,0,,,2,,,55,64
7776,note_on,,,,,0,0,0,,,2,,,79,100
7776,note_on,,,,,0,0,0,,,2,,,60,100
7920,note_off,,,,,144,0,0,,,2,,,60,64
7920,note_off,,,,,0,0,0,,,2,,,79,64
7920,note_on,,,,,0,0,0,,,2,,,63,100
7920,note_on,,,,,0,0,0,,,2,,,75,100
8064,note_off,,,,,144,0,0,,,2,,,75,64
8064,note_off,,,,,0,0,0,,,2,,,63,64
8064,note_on,,,,,0,0,0,,,2,,,67,100
8064,note_on,,,,,0,0,0,,,2,,,72,100
8208,note_off,,,,,144,0,0,,,2,,,72,64
8208,note_off,,,,,0,0,0,,,2,,,67,64
8208,note_on,,,,,0,0,0,,,2,,,59,100
8208,note_on,,,,,0,0,0,,,2,,,79,100
8352,note_off,,,,,144,0,0,,,2,,,79,64
8352,note_off,,,,,0,0,0,,,2,,,59,64
8352,note_on,,,,,0,0,0,,,2,,,62,100
8352,note_on,,,,,0,0,0,,,2,,,74,100
8496,note_off,,,,,144,0,0,,,2,,,74,64
8496,note_off,,,,,0,0,0,,,2,,,62,64
8496,note_on,,,,,0,0,0,,,2,,,71,100
8496,note_on,,,,,0,0,0,,,2,,,67,100
8640,note_off,,,,,144,0,0,,,2,,,67,64
8640,note_off,,,,,0,0,0,,,2,,,71,64
8640,note_on,,,,,0,0,0,,,2,,,47,100
8640,note_on,,,,,0,0,0,,,2,,,67,100
8784,note_off,,,,,144,0,0,,,2,,,67,64
8784,note_off,,,,,0,0,0,,,2,,,47,64
8784,note_on,,,,,0,0,0,,,2,,,50,100
8784,note_on,,,,,0,0,0,,,2,,,62,100
8928,note_off,,,,,144,0,0,,,2,,,62,64
8928,note_off,,,,,0,0,0,,,2,,,50,64
8928,note_on,,,,,0,0,0,,,2,,,55,100
8928,note_on,,,,,0,0,0,,,2,,,59,100
9072,note_off,,,,,144,0,0,,,2,,,59,64
9072,note_off,,,,,0,0,0,,,2,,,55,64
9072,note_on,,,,,0,0,0,,,2,,,46,100
9072,note_on,,,,,0,0,0,,,2,,,67,100
9216,note_off,,,,,144,0,0,,,2,,,67,64
9216,note_off,,,,,0,0,0,,,2,,,46,64
9216,note_on,,,,,0,0,0,,,2,,,62,100
9216,note_on,,,,,0,0,0,,,2,,,50,100
9360,note_off,,,,,144,0,0,,,2,,,50,64
9360,note_off,,,,,0,0,0,,,2,,,62,64
9360,note_on,,,,,0,0,0,,,2,,,55,100
9360,note_on,,,,,0,0,0,,,2,,,58,100
9504,note_off,,,,,144,0,0,,,2,,,58,64
9504,note_off,,,,,0,0,0,,,2,,,55,64
9504,note_on,,,,,0,0,0,,,2,,,58,100
9504,note_on,,,,,0,0,0,,,2,,,79,100
9648,note_off,,,,,144,0,0,,,2,,,79,64
9648,note_off,,,,,0,0,0,,,2,,,58,64
9648,note_on,,,,,0,0,0,,,2,,,62,100
9648,note_on,,,,,0,0,0,,,2,,,74,100
9792,note_off,,,,,144,0,0,,,2,,,74,64
9792,note_off,,,,,0,0,0,,,2,,,62,64
9792,note_on,,,,,0,0,0,,,2,,,67,100
9792,note_on,,,,,0,0,0,,,2,,,70,100
9936,note_off,,,,,144,0,0,,,2,,,70,64
9936,note_off,,,,,0,0,0,,,2,,,67,64
9936,note_on,,,,,0,0,0,,,2,,,77,100
9936,note_on,,,,,0,0,0,,,2,,,57,100
10080,note_off,,,,,144,0,0,,,2,,,57,64
10080,note_off,,,,,0,0,0,,,2,,,77,64
10080,note_on,,,,,0,0,0,,,2,,,60,100
10080,note_on,,,,,0,0,0,,,2,,,72,100
10224,note_off,,,,,144,0,0,,,2,,,72,64
10224,note_off,,,,,0,0,0,,,2,,,60,64
10224,note_on,,,,,0,0,0,,,2,,,65,100
10224,note_on,,,,,0,0,0,,,2,,,69,100
10368,note_off,,,,,144,0,0,,,2,,,69,64
10368,note_off,,,,,0,0,0,,,2,,,65,64
10368,note_on,,,,,0,0,0,,,2,,,45,100
10368,note_on,,,,,0,0,0,,,2,,,65,100
10512,note_off,,,,,144,0,0,,,2,,,65,64
10512,note_off,,,,,0,0,0,,,2,,,45,64
10512,note_on,,,,,0,0,0,,,2,,,48,100
10512,note_on,,,,,0,0,0,,,2,,,60,100
10656,note_off,,,,,144,0,0,,,2,,,60,64
10656,note_off,,,,,0,0,0,,,2,,,48,64
10656,note_on,,,,,0,0,0,,,2,,,57,100
10656,note_on,,,,,0,0,0,,,2,,,53,100
10800,note_off,,,,,144,0,0,,,2,,,53,64
10800,note_off,,,,,0,0,0,,,2,,,57,64
10800,note_on,,,,,0,0,0,,,2,,,44,100
10800,note_on,,,,,0,0,0,,,2,,,65,100
10944,note_off,,,,,144,0,0,,,2,,,65,64
10944,note_off,,,,,0,0,0,,,2,,,44,64
10944,note_on,,,,,0,0,0,,,2,,,48,100
10944,note_on,,,,,0,0,0,,,2,,,60,100
11088,note_off,,,,,144,0,0,,,2,,,60,64
11088,note_off,,,,,0,0,0,,,2,,,48,64
11088,note_on,,,,,0,0,0,,,2,,,53,100
11088,note_on,,,,,0,0,0,,,2,,,56,100
11232,note_off,,,,,144,0,0,,,2,,,56,64
11232,note_off,,,,,0,0,0,,,2,,,53,64
11232,note_on,,,,,0,0,0,,,2,,,56,100
11232,note_on,,,,,0,0,0,,,2,,,77,100
11376,note_off,,,,,144,0,0,,,2,,,77,64
11376,note_off,,,,,0,0,0,,,2,,,56,64
11376,note_on,,,,,0,0,0,,,2,,,72,100
11376,note_on,,,,,0,0,0,,,2,,,60,100
11520,note_off,,,,,144,0,0,,,2,,,60,64
11520,note_off,,,,,0,0,0,,,2,,,72,64
11520,note_on,,,,,0,0,0,,,2,,,65,100
11520,note_on,,,,,0,0,0,,,2,,,68,100
11664,note_off,,,,,144,0,0,,,2,,,68,64
11664,note_off,,,,,0,0,0,,,2,,,65,64
11664,note_on,,,,,0,0,0,,,2,,,55,100
11664,note_on,,,,,0,0,0,,,2,,,75,100
11808,note_off,,,,,144,0,0,,,2,,,75,64
11808,note_off,,,,,0,0,0,,,2,,,55,64
11808,note_on,,,,,0,0,0,,,2,,,60,100
11808,note_on,,,,,0,0,0,,,2,,,72,100
11952,note_off,,,,,144,0,0,,,2,,,72,64
11952,note_off,,,,,0,0,0,,,2,,,60,64
11952,note_on,,,,,0,0,0,,,2,,,63,100
11952,note_on,,,,,0,0,0,,,2,,,67,100
12096,note_off,,,,,144,0,0,,,2,,,67,64
12096,note_off,,,,,0,0,0,,,2,,,63,64
12096,note_on,,,,,0,0,0,,,2,,,75,100
12096,note_on,,,,,0,0,0,,,2,,,62,100
12096,note_on,,,,,0,0,0,,,2,,,48,100
12096,note_on,,,,,0,0,0,,,2,,,36,100
12240,note_off,,,,,144,0,0,,,2,,,36,64
12240,note_off,,,,,0,0,0,,,2,,,48,64
12240,note_off,,,,,0,0,0,,,2,,,62,64
12240,note_off,,,,,0,0,0,,,2,,,75,64
12240,note_on,,,,,0,0,0,,,2,,,43,100
12240,note_on,,,,,0,0,0,,,2,,,69,100
12384,note_off,,,,,144,0,0,,,2,,,69,64
12384,note_off,,,,,0,0,0,,,2,,,43,64
12384,note_on,,,,,0,0,0,,,2,,,45,100
12384,note_on,,,,,0,0,0,,,2,,,67,100
12528,note_off,,,,,144,0,0,,,2,,,67,64
12528,note_off,,,,,0,0,0,,,2,,,45,64
12528,note_on,,,,,0,0,0,,,2,,,38,100
12528,note_on,,,,,0,0,0,,,2,,,50,100
12528,note_on,,,,,0,0,0,,,2,,,62,100
12528,note_on,,,,,0,0,0,,,2,,,74,100
12672,note_off,,,,,144,0,0,,,2,,,74,64
12672,note_off,,,,,0,0,0,,,2,,,62,64
12672,note_off,,,,,0,0,0,,,2,,,50,64
12672,note_off,,,,,0,0,0,,,2,,,38,64
12672,note_on,,,,,0,0,0,,,2,,,43,100
12672,note_on,,,,,0,0,0,,,2,,,70,100
12816,note_off,,,,,144,0,0,,,2,,,70,64
12816,note_off,,,,,0,0,0,,,2,,,43,64
12816,note_on,,,,,0,0,0,,,2,,,67,100
12816,note_on,,,,,0,0,0,,,2,,,46,100
12960,note_off,,,,,144,0,0,,,2,,,46,64
12960,note_off,,,,,0,0,0,,,2,,,67,64
12960,note_on,,,,,0,0,0,,,2,,,38,100
12960,note_on,,,,,0,0,0,,,2,,,50,100
12960,note_on,,,,,0,0,0,,,2,,,62,100
12960,note_on,,,,,0,0,0,,,2,,,74,100
13104,note_off,,,,,144,0,0,,,2,,,74,64
13104,note_off,,,,,0,0,0,,,2,,,62,64
13104,note_off,,,,,0,0,0,,,2,,,50,64
13104,note_off,,,,,0,0,0,,,2,,,38,64
13104,note_on,,,,,0,0,0,,,2,,,42,100
13104,note_on,,,,,0,0,0,,,2,,,69,100
13248,note_off,,,,,144,0,0,,,2,,,69,64
13248,note_off,,,,,0,0,0,,,2,,,42,64
13248,note_on,,,,,0,0,0,,,2,,,45,100
13248,note_on,,,,,0,0,0,,,2,,,66,100
13392,note_off,,,,,144,0,0,,,2,,,66,64
13392,note_off,,,,,0,0,0,,,2,,,45,64
13392,note_on,,,,,0,0,0,,,2,,,31,100
13392,note_on,,,,,0,0,0,,,2,,,43,100
13392,note_on,,,,,0,0,0,,,2,,,67,100
13536,note_off,,,,,144,0,0,,,2,,,67,64
13536,note_off,,,,,0,0,0,,,2,,,43,64
13536,note_off,,,,,0,0,0,,,2,,,31,64
13536,note_on,,,,,0,0,0,,,2,,,41,100
13680,note_off,,,,,144,0,0,,,2,,,41,64
13680,note_on,,,,,0,0,0,,,2,,,40,100
13824,note_off,,,,,144,0,0,,,2,,,40,64
13824,note_on,,,,,0,0,0,,,2,,,37,100
13824,note_on,,,,,0,0,0,,,2,,,58,100
13968,note_off,,,,,144,0,0,,,2,,,58,64
13968,note_off,,,,,0,0,0,,,2,,,37,64
13968,note_on,,,,,0,0,0,,,2,,,41,100
13968,note_on,,,,,0,0,0,,,2,,,53,100
14112,note_off,,,,,144,0,0,,,2,,,53,64
14112,note_off,,,,,0,0,0,,,2,,,41,64
14112,note_on,,,,,0,0,0,,,2,,,46,100
14112,note_on,,,,,0,0,0,,,2,,,49,100
14256,note_off,,,,,144,0,0,,,2,,,49,64
14256,note_off,,,,,0,0,0,,,2,,,46,64
14256,note_on,,,,,0,0,0,,,2,,,58,100
14256,note_on,,,,,0,0,0,,,2,,,36,100
14400,note_off,,,,,144,0,0,,,2,,,36,64
14400,note_off,,,,,0,0,0,,,2,,,58,64
14400,note_on,,,,,0,0,0,,,2,,,52,100
14400,note_on,,,,,0,0,0,,,2,,,40,100
14544,note_off,,,,,144,0,0,,,2,,,40,64
14544,note_off,,,,,0,0,0,,,2,,,52,64
14544,note_on,,,,,0,0,0,,,2,,,46,100
14544,note_on,,,,,0,0,0,,,2,,,48,100
14688,note_off,,,,,144,0,0,,,2,,,48,64
14688,note_off,,,,,0,0,0,,,2,,,46,64
14688,note_on,,,,,0,0,0,,,2,,,40,100
14688,note_on,,,,,0,0,0,,,2,,,70,100
14832,note_off,,,,,144,0,0,,,2,,,70,64
14832,note_off,,,,,0,0,0,,,2,,,40,64
14832,note_on,,,,,0,0,0,,,2,,,43,100
14832,note_on,,,,,0,0,0,,,2,,,67,100
14976,note_off,,,,,144,0,0,,,2,,,67,64
14976,note_off,,,,,0,0,0,,,2,,,43,64
14976,note_on,,,,,0,0,0,,,2,,,60,100
14976,note_on,,,,,0,0,0,,,2,,,48,100
15120,note_off,,,,,144,0,0,,,2,,,48,64
15120,note_off,,,,,0,0,0,,,2,,,60,64
15120,note_on,,,,,0,0,0,,,2,,,41,100
15120,note_on,,,,,0,0,0,,,2,,,68,100
15264,note_off,,,,,144,0,0,,,2,,,68,64
15264,note_off,,,,,0,0,0,,,2,,,41,64
15264,note_on,,,,,0,0,0,,,2,,,44,100
15264,note_on,,,,,0,0,0,,,2,,,65,100
15408,note_off,,,,,144,0,0,,,2,,,65,64
15408,note_off,,,,,0,0,0,,,2,,,44,64
15408,note_on,,,,,0,0,0,,,2,,,48,100
15408,note_on,,,,,0,0,0,,,2,,,60,100
15552,note_off,,,,,144,0,0,,,2,,,60,64
15552,note_off,,,,,0,0,0,,,2,,,48,64
15552,note_on,,,,,0,0,0,,,2,,,36,100
15552,note_on,,,,,0,0,0,,,2,,,56,100
15696,note_off,,,,,144,0,0,,,2,,,56,64
15696,note_off,,,,,0,0,0,,,2,,,36,64
15696,note_on,,,,,0,0,0,,,2,,,51,100
15696,note_on,,,,,0,0,0,,,2,,,39,100
15840,note_off,,,,,144,0,0,,,2,,,39,64
15840,note_off,,,,,0,0,0,,,2,,,51,64
15840,note_on,,,,,0,0,0,,,2,,,44,100
15840,note_on,,,,,0,0,0,,,2,,,48,100
15984,note_off,,,,,144,0,0,,,2,,,48,64
15984,note_off,,,,,0,0,0,,,2,,,44,64
15984,note_on,,,,,0,0,0,,,2,,,35,100
15984,note_on,,,,,0,0,0,,,2,,,55,100
16128,note_off,,,,,144,0,0,,,2,,,55,64
16128,note_off,,,,,0,0,0,,,2,,,35,64
16128,note_on,,,,,0,0,0,,,2,,,38,100
16128,note_on,,,,,0,0,0,,,2,,,50,100
16272,note_off,,,,,144,0,0,,,2,,,50,64
16272,note_off,,,,,0,0,0,,,2,,,38,64
16272,note_on,,,,,0,0,0,,,2,,,47,100
16272,note_on,,,,,0,0,0,,,2,,,43,100
16416,note_off,,,,,144,0,0,,,2,,,43,64
16416,note_off,,,,,0,0,0,,,2,,,47,64
16416,note_on,,,,,0,0,0,,,2,,,47,100
16416,note_on,,,,,0,0,0,,,2,,,77,100
16560,note_off,,,,,144,0,0,,,2,,,77,64
16560,note_off,,,,,0,0,0,,,2,,,47,64
16560,note_on,,,,,0,0,0,,,2,,,74,100
16560,note_on,,,,,0,0,0,,,2,,,50,100
16704,note_off,,,,,144,0,0,,,2,,,50,64
16704,note_off,,,,,0,0,0,,,2,,,74,64
16704,note_on,,,,,0,0,0,,,2,,,67,100
16704,note_on,,,,,0,0,0,,,2,,,55,100
16848,note_off,,,,,144,0,0,,,2,,,55,64
16848,note_off,,,,,0,0,0,,,2,,,67,64
16848,note_on,,,,,0,0,0,,,2,,,75,100
16848,note_on,,,,,0,0,0,,,2,,,48,100
16992,note_off,,,,,144,0,0,,,2,,,48,64
16992,note_off,,,,,0,0,0,,,2,,,75,64
16992,note_on,,,,,0,0,0,,,2,,,72,100
16992,note_on,,,,,0,0,0,,,2,,,51,100
17136,note_off,,,,,144,0,0,,,2,,,51,64
17136,note_off,,,,,0,0,0,,,2,,,72,64
17136,note_on,,,,,0,0,0,,,2,,,55,100
17136,note_on,,,,,0,0,0,,,2,,,67,100
17280,note_off,,,,,144,0,0,,,2,,,67,64
17280,note_off,,,,,0,0,0,,,2,,,55,64
17280,note_on,,,,,0,0,0,,,2,,,36,100
17280,note_on,,,,,0,0,0,,,2,,,48,100
17424,note_off,,,,,144,0,0,,,2,,,48,64
17424,note_off,,,,,0,0,0,,,2,,,36,64
17424,note_on,,,,,0,0,0,,,2,,,39,100
17424,note_on,,,,,0,0,0,,,2,,,51,100
17568,note_off,,,,,144,0,0,,,2,,,51,64
17568,note_off,,,,,0,0,0,,,2,,,39,64
17568,note_on,,,,,0,0,0,,,2,,,55,100
17568,note_on,,,,,0,0,0,,,2,,,43,100
17712,note_off,,,,,144,0,0,,,2,,,43,64
17712,note_off,,,,,0,0,0,,,2,,,55,64
17712,note_on,,,,,0,0,0,,,2,,,48,100
17712,note_on,,,,,0,0,0,,,2,,,60,100
17856,note_off,,,,,144,0,0,,,2,,,60,64
17856,note_off,,,,,0,0,0,,,2,,,48,64
17856,note_on,,,,,0,0,0,,,2,,,63,100
17856,note_on,,,,,0,0,0,,,2,,,51,100
18000,note_off,,,,,144,0,0,,,2,,,51,64
18000,note_off,,,,,0,0,0,,,2,,,63,64
18000,note_on,,,,,0,0,0,,,2,,,55,100
18000,note_on,,,,,0,0,0,,,2,,,67,100
18144,note_off,,,,,144,0,0,,,2,,,67,64
18144,note_off,,,,,0,0,0,,,2,,,55,64
18144,note_on,,,,,0,0,0,,,2,,,60,100
18144,note_on,,,,,0,0,0,,,2,,,80,100
18288,note_off,,,,,144,0,0,,,2,,,80,64
18288,note_off,,,,,0,0,0,,,2,,,60,64
18288,note_on,,,,,0,0,0,,,2,,,63,100
18288,note_on,,,,,0,0,0,,,2,,,75,100
18432,note_off,,,,,144,0,0,,,2,,,75,64
18432,note_off,,,,,0,0,0,,,2,,,63,64
18432,note_on,,,,,0,0,0,,,2,,,68,100
18432,note_on,,,,,0,0,0,,,2,,,72,100
18576,note_off,,,,,144,0,0,,,2,,,72,64
18576,note_off,,,,,0,0,0,,,2,,,68,64
18576,note_on,,,,,0,0,0,,,2,,,80,100
18576,note_on,,,,,0,0,0,,,2,,,59,100
18720,note_off,,,,,144,0,0,,,2,,,59,64
18720,note_off,,,,,0,0,0,,,2,,,80,64
18720,note_on,,,,,0,0,0,,,2,,,62,100
18720,note_on,,,,,0,0,0,,,2,,,74,100
18864,note_off,,,,,144,0,0,,,2,,,74,64
18864,note_off,,,,,0,0,0,,,2,,,62,64
18864,note_on,,,,,0,0,0,,,2,,,68,100
18864,note_on,,,,,0,0,0,,,2,,,71,100
19008,note_off,,,,,144,0,0,,,2,,,71,64
19008,note_off,,,,,0,0,0,,,2,,,68,64
19008,note_on,,,,,0,0,0,,,2,,,47,100
19008,note_on,,,,,0,0,0,,,2,,,68,100
19152,note_off,,,,,144,0,0,,,2,,,68,64
19152,note_off,,,,,0,0,0,,,2,,,47,64
19152,note_on,,,,,0,0,0,,,2,,,50,100
19152,note_on,,,,,0,0,0,,,2,,,62,100
19296,note_off,,,,,144,0,0,,,2,,,62,64
19296,note_off,,,,,0,0,0,,,2,,,50,64
19296,note_on,,,,,0,0,0,,,2,,,59,100
19296,note_on,,,,,0,0,0,,,2,,,56,100
19440,note_off,,,,,144,0,0,,,2,,,56,64
19440,note_off,,,,,0,0,0,,,2,,,59,64
19440,note_on,,,,,0,0,0,,,2,,,46,100
19440,note_on,,,,,0,0,0,,,2,,,67,100
19584,note_off,,,,,144,0,0,,,2,,,67,64
19584,note_off,,,,,0,0,0,,,2,,,46,64
19584,note_on,,,,,0,0,0,,,2,,,50,100
19584,note_on,,,,,0,0,0,,,2,,,62,100
19728,note_off,,,,,144,0,0,,,2,,,62,64
19728,note_off,,,,,0,0,0,,,2,,,50,64
19728,note_on,,,,,0,0,0,,,2,,,55,100
19728,note_on,,,,,0,0,0,,,2,,,58,100
19872,note_off,,,,,144,0,0,,,2,,,58,64
19872,note_off,,,,,0,0,0,,,2,,,55,64
19872,note_on,,,,,0,0,0,,,2,,,79,100
19872,note_on,,,,,0,0,0,,,2,,,58,100
20016,note_off,,,,,144,0,0,,,2,,,58,64
20016,note_off,,,,,0,0,0,,,2,,,79,64
20016,note_on,,,,,0,0,0,,,2,,,62,100
20016,note_on,,,,,0,0,0,,,2,,,74,100
20160,note_off,,,,,144,0,0,,,2,,,74,64
20160,note_off,,,,,0,0,0,,,2,,,62,64
20160,note_on,,,,,0,0,0,,,2,,,70,100
20160,note_on,,,,,0,0,0,,,2,,,67,100
20304,note_off,,,,,144,0,0,,,2,,,67,64
20304,note_off,,,,,0,0,0,,,2,,,70,64
20304,note_on,,,,,0,0,0,,,2,,,57,100
20304,note_on,,,,,0,0,0,,,2,,,79,100
20448,note_off,,,,,144,0,0,,,2,,,79,64
20448,note_off,,,,,0,0,0,,,2,,,57,64
20448,note_on,,,,,0,0,0,,,2,,,60,100
20448,note_on,,,,,0,0,0,,,2,,,72,100
20592,note_off,,,,,144,0,0,,,2,,,72,64
20592,note_off,,,,,0,0,0,,,2,,,60,64
20592,note_on,,,,,0,0,0,,,2,,,67,100
20592,note_on,,,,,0,0,0,,,2,,,69,100
20736,note_off,,,,,144,0,0,,,2,,,69,64
20736,note_off,,,,,0,0,0,,,2,,,67,64
20736,note_on,,,,,0,0,0,,,2,,,67,100
20736,note_on,,,,,0,0,0,,,2,,,45,100
20880,note_off,,,,,144,0,0,,,2,,,45,64
20880,note_off,,,,,0,0,0,,,2,,,67,64
20880,note_on,,,,,0,0,0,,,2,,,48,100
20880,note_on,,,,,0,0,0,,,2,,,60,100
21024,note_off,,,,,144,0,0,,,2,,,60,64
21024,note_off,,,,,0,0,0,,,2,,,48,64
21024,note_on,,,,,0,0,0,,,2,,,55,100
21024,note_on,,,,,0,0,0,,,2,,,57,100
21168,note_off,,,,,144,0,0,,,2,,,57,64
21168,note_off,,,,,0,0,0,,,2,,,55,64
21168,note_on,,,,,0,0,0,,,2,,,65,100
21168,note_on,,,,,0,0,0,,,2,,,44,100
21312,note_off,,,,,144,0,0,,,2,,,44,64
21312,note_off,,,,,0,0,0,,,2,,,65,64
21312,note_on,,,,,0,0,0,,,2,,,60,100
21312,note_on,,,,,0,0,0,,,2,,,48,100
21456,note_off,,,,,144,0,0,,,2,,,48,64
21456,note_off,,,,,0,0,0,,,2,,,60,64
21456,note_on,,,,,0,0,0,,,2,,,53,100
21456,note_on,,,,,0,0,0,,,2,,,56,100
21600,note_off,,,,,144,0,0,,,2,,,56,64
21600,note_off,,,,,0,0,0,,,2,,,53,64
21600,note_on,,,,,0,0,0,,,2,,,77,100
21600,note_on,,,,,0,0,0,,,2,,,56,100
21744,note_off,,,,,144,0,0,,,2,,,56,64
21744,note_off,,,,,0,0,0,,,2,,,77,64
21744,note_on,,,,,0,0,0,,,2,,,72,100
21744,note_on,,,,,0,0,0,,,2,,,60,100
21888,note_off,,,,,144,0,0,,,2,,,60,64
21888,note_off,,,,,0,0,0,,,2,,,72,64
21888,note_on,,,,,0,0,0,,,2,,,68,100
21888,note_on,,,,,0,0,0,,,2,,,65,100
22032,note_off,,,,,144,0,0,,,2,,,65,64
22032,note_off,,,,,0,0,0,,,2,,,68,64
22032,note_on,,,,,0,0,0,,,2,,,55,100
22032,note_on,,,,,0,0,0,,,2,,,75,100
22176,note_off,,,,,144,0,0,,,2,,,75,64
22176,note_off,,,,,0,0,0,,,2,,,55,64
22176,note_on,,,,,0,0,0,,,2,,,72,100
22176,note_on,,,,,0,0,0,,,2,,,60,100
22320,note_off,,,,,144,0,0,,,2,,,60,64
22320,note_off,,,,,0,0,0,,,2,,,72,64
22320,note_on,,,,,0,0,0,,,2,,,63,100
22320,note_on,,,,,0,0,0,,,2,,,67,100
22464,note_off,,,,,144,0,0,,,2,,,67,64
22464,note_off,,,,,0,0,0,,,2,,,63,64
22464,note_on,,,,,0,0,0,,,2,,,42,100
22464,note_on,,,,,0,0,0,,,2,,,54,100
22464,note_on,,,,,0,0,0,,,2,,,60,100
22464,note_on,,,,,0,0,0,,,2,,,72,100
22608,note_off,,,,,144,0,0,,,2,,,72,64
22608,note_off,,,,,0,0,0,,,2,,,60,64
22608,note_off,,,,,0,0,0,,,2,,,54,64
22608,note_off,,,,,0,0,0,,,2,,,42,64
22608,note_on,,,,,0,0,0,,,2,,,48,100
22608,note_on,,,,,0,0,0,,,2,,,69,100
22752,note_off,,,,,144,0,0,,,2,,,69,64
22752,note_off,,,,,0,0,0,,,2,,,48,64
22752,note_on,,,,,0,0,0,,,2,,,51,100
22752,note_on,,,,,0,0,0,,,2,,,63,100
22896,note_off,,,,,144,0,0,,,2,,,63,64
22896,note_off,,,,,0,0,0,,,2,,,51,64
22896,note_on,,,,,0,0,0,,,2,,,72,100
22896,note_on,,,,,0,0,0,,,2,,,60,100
22896,note_on,,,,,0,0,0,,,2,,,43,100
22896,note_on,,,,,0,0,0,,,2,,,55,100
23040,note_off,,,,,144,0,0,,,2,,,55,64
23040,note_off,,,,,0,0,0,,,2,,,43,64
23040,note_off,,,,,0,0,0,,,2,,,60,64
23040,note_off,,,,,0,0,0,,,2,,,72,64
23040,note_on,,,,,0,0,0,,,2,,,48,100
23040,note_on,,,,,0,0,0,,,2,,,67,100
23184,note_off,,,,,144,0,0,,,2,,,67,64
23184,note_off,,,,,0,0,0,,,2,,,48,64
23184,note_on,,,,,0,0,0,,,2,,,51,100
23184,note_on,,,,,0,0,0,,,2,,,63,100
23328,note_off,,,,,144,0,0,,,2,,,63,64
23328,note_off,,,,,0,0,0,,,2,,,51,64
23328,note_on,,,,,0,0,0,,,2,,,43,100
23328,note_on,,,,,0,0,0,,,2,,,55,100
23328,note_on,,,,,0,0,0,,,2,,,59,100
23328,note_on,,,,,0,0,0,,,2,,,71,100
23472,note_off,,,,,144,0,0,,,2,,,71,64
23472,note_off,,,,,0,0,0,,,2,,,59,64
23472,note_off,,,,,0,0,0,,,2,,,55,64
23472,note_off,,,,,0,0,0,,,2,,,43,64
23472,note_on,,,,,0,0,0,,,2,,,47,100
23472,note_on,,,,,0,0,0,,,2,,,67,100
23616,note_off,,,,,144,0,0,,,2,,,67,64
23616,note_off,,,,,0,0,0,,,2,,,47,64
23616,note_on,,,,,0,0,0,,,2,,,62,100
23616,note_on,,,,,0,0,0,,,2,,,50,100
23760,note_off,,,,,144,0,0,,,2,,,50,64
23760,note_off,,,,,0,0,0,,,2,,,62,64
23760,note_on,,,,,0,0,0,,,2,,,36,100
23760,note_on,,,,,0,0,0,,,2,,,48,100
23760,note_on,,,,,0,0,0,,,2,,,72,100
23760,note_on,,,,,0,0,0,,,2,,,60,100
23760,note_on,,,,,0,0,0,,,2,,,63,100
23904,note_off,,,,,144,0,0,,,2,,,63,64
23904,note_off,,,,,0,0,0,,,2,,,60,64
23904,note_off,,,,,0,0,0,,,2,,,72,64
23904,note_off,,,,,0,0,0,,,2,,,48,64
23904,note_off,,,,,0,0,0,,,2,,,36,64
23904,note_on,,,,,0,0,0,,,2,,,35,100
24048,note_off,,,,,144,0,0,,,2,,,35,64
24048,note_on,,,,,0,0,0,,,2,,,36,100
24192,note_off,,,,,144,0,0,,,2,,,36,64
24192,note_on,,,,,0,0,0,,,2,,,37,100
24192,note_on,,,,,0,0,0,,,2,,,58,100
24336,note_off,,,,,144,0,0,,,2,,,58,64
24336,note_off,,,,,0,0,0,,,2,,,37,64
24336,note_on,,,,,0,0,0,,,2,,,41,100
24336,note_on,,,,,0,0,0,,,2,,,53,100
24480,note_off,,,,,144,0,0,,,2,,,53,64
24480,note_off,,,,,0,0,0,,,2,,,41,64
24480,note_on,,,,,0,0,0,,,2,,,46,100
24480,note_on,,,,,0,0,0,,,2,,,49,100
24624,note_off,,,,,144,0,0,,,2,,,49,64
24624,note_off,,,,,0,0,0,,,2,,,46,64
24624,note_on,,,,,0,0,0,,,2,,,36,100
24624,note_on,,,,,0,0,0,,,2,,,58,100
24768,note_off,,,,,144,0,0,,,2,,,58,64
24768,note_off,,,,,0,0,0,,,2,,,36,64
24768,note_on,,,,,0,0,0,,,2,,,52,100
24768,note_on,,,,,0,0,0,,,2,,,40,100
24912,note_off,,,,,144,0,0,,,2,,,40,64
24912,note_off,,,,,0,0,0,,,2,,,52,64
24912,note_on,,,,,0,0,0,,,2,,,46,100
24912,note_on,,,,,0,0,0,,,2,,,48,100
25056,note_off,,,,,144,0,0,,,2,,,48,64
25056,note_off,,,,,0,0,0,,,2,,,46,64
25056,note_on,,,,,0,0,0,,,2,,,70,100
25056,note_on,,,,,0,0,0,,,2,,,40,100
25200,note_off,,,,,144,0,0,,,2,,,40,64
25200,note_off,,,,,0,0,0,,,2,,,70,64
25200,note_on,,,,,0,0,0,,,2,,,43,100
25200,note_on,,,,,0,0,0,,,2,,,67,100
25344,note_off,,,,,144,0,0,,,2,,,67,64
25344,note_off,,,,,0,0,0,,,2,,,43,64
25344,note_on,,,,,0,0,0,,,2,,,48,100
25344,note_on,,,,,0,0,0,,,2,,,60,100
25488,note_off,,,,,144,0,0,,,2,,,60,64
25488,note_off,,,,,0,0,0,,,2,,,48,64
25488,note_on,,,,,0,0,0,,,2,,,41,100
25488,note_on,,,,,0,0,0,,,2,,,68,100
25632,note_off,,,,,144,0,0,,,2,,,68,64
25632,note_off,,,,,0,0,0,,,2,,,41,64
25632,note_on,,,,,0,0,0,,,2,,,44,100
25632,note_on,,,,,0,0,0,,,2,,,65,100
25776,note_off,,,,,144,0,0,,,2,,,65,64
25776,note_off,,,,,0,0,0,,,2,,,44,64
25776,note_on,,,,,0,0,0,,,2,,,60,100
25776,note_on,,,,,0,0,0,,,2,,,48,100
25920,note_off,,,,,144,0,0,,,2,,,48,64
25920,note_off,,,,,0,0,0,,,2,,,60,64
25920,note_on,,,,,0,0,0,,,2,,,36,100
25920,note_on,,,,,0,0,0,,,2,,,56,100
26064,note_off,,,,,144,0,0,,,2,,,56,64
26064,note_off,,,,,0,0,0,,,2,,,36,64
26064,note_on,,,,,0,0,0,,,2,,,39,100
26064,note_on,,,,,0,0,0,,,2,,,51,100
26208,note_off,,,,,144,0,0,,,2,,,51,64
26208,note_off,,,,,0,0,0,,,2,,,39,64
26208,note_on,,,,,0,0,0,,,2,,,44,100
26208,note_on,,,,,0,0,0,,,2,,,48,100
26352,note_off,,,,,144,0,0,,,2,,,48,64
26352,note_off,,,,,0,0,0,,,2,,,44,64
26352,note_on,,,,,0,0,0,,,2,,,35,100
26352,note_on,,,,,0,0,0,,,2,,,55,100
26496,note_off,,,,,144,0,0,,,2,,,55,64
26496,note_off,,,,,0,0,0,,,2,,,35,64
26496,note_on,,,,,0,0,0,,,2,,,50,100
26496,note_on,,,,,0,0,0,,,2,,,38,100
26640,note_off,,,,,144,0,0,,,2,,,38,64
26640,note_off,,,,,0,0,0,,,2,,,50,64
26640,note_on,,,,,0,0,0,,,2,,,47,100
26640,note_on,,,,,0,0,0,,,2,,,43,100
26784,note_off,,,,,144,0,0,,,2,,,43,64
26784,note_off,,,,,0,0,0,,,2,,,47,64
26784,note_on,,,,,0,0,0,,,2,,,77,100
26784,note_on,,,,,0,0,0,,,2,,,47,100
26928,note_off,,,,,144,0,0,,,2,,,47,64
26928,note_off,,,,,0,0,0,,,2,,,77,64
26928,note_on,,,,,0,0,0,,,2,,,74,100
26928,note_on,,,,,0,0,0,,,2,,,50,100
27072,note_off,,,,,144,0,0,,,2,,,50,64
27072,note_off,,,,,0,0,0,,,2,,,74,64
27072,note_on,,,,,0,0,0,,,2,,,67,100
27072,note_on,,,,,0,0,0,,,2,,,55,100
27216,note_off,,,,,144,0,0,,,2,,,55,64
27216,note_off,,,,,0,0,0,,,2,,,67,64
27216,note_on,,,,,0,0,0,,,2,,,48,100
27216,note_on,,,,,0,0,0,,,2,,,75,100
27360,note_off,,,,,144,0,0,,,2,,,75,64
27360,note_off,,,,,0,0,0,,,2,,,48,64
27360,note_on,,,,,0,0,0,,,2,,,72,100
27360,note_on,,,,,0,0,0,,,2,,,51,100
27504,note_off,,,,,144,0,0,,,2,,,51,64
27504,note_off,,,,,0,0,0,,,2,,,72,64
27504,note_on,,,,,0,0,0,,,2,,,67,100
27504,note_on,,,,,0,0,0,,,2,,,55,100
27648,note_off,,,,,144,0,0,,,2,,,55,64
27648,note_off,,,,,0,0,0,,,2,,,67,64
27648,note_on,,,,,0,0,0,,,2,,,36,100
27648,note_on,,,,,0,0,0,,,2,,,48,100
27792,note_off,,,,,144,0,0,,,2,,,48,64
27792,note_off,,,,,0,0,0,,,2,,,36,64
27792,note_on,,,,,0,0,0,,,2,,,39,100
27792,note_on,,,,,0,0,0,,,2,,,51,100
27936,note_off,,,,,144,0,0,,,2,,,51,64
27936,note_off,,,,,0,0,0,,,2,,,39,64
27936,note_on,,,,,0,0,0,,,2,,,43,100
27936,note_on,,,,,0,0,0,,,2,,,55,100
28080,note_off,,,,,144,0,0,,,2,,,55,64
28080,note_off,,,,,0,0,0,,,2,,,43,64
28080,note_on,,,,,0,0,0,,,2,,,48,100
28080,note_on,,,,,0,0,0,,,2,,,60,100
28224,note_off,,,,,144,0,0,,,2,,,60,64
28224,note_off,,,,,0,0,0,,,2,,,48,64
28224,note_on,,,,,0,0,0,,,2,,,51,100
28224,note_on,,,,,0,0,0,,,2,,,63,100
28368,note_off,,,,,144,0,0,,,2,,,63,64
28368,note_off,,,,,0,0,0,,,2,,,51,64
28368,note_on,,,,,0,0,0,,,2,,,55,100
28368,note_on,,,,,0,0,0,,,2,,,67,100
28512,note_off,,,,,144,0,0,,,2,,,67,64
28512,note_off,,,,,0,0,0,,,2,,,55,64
28512,note_on,,,,,0,0,0,,,2,,,60,100
28512,note_on,,,,,0,0,0,,,2,,,80,100
28656,note_off,,,,,144,0,0,,,2,,,80,64
28656,note_off,,,,,0,0,0,,,2,,,60,64
28656,note_on,,,,,0,0,0,,,2,,,75,100
28656,note_on,,,,,0,0,0,,,2,,,63,100
28800,note_off,,,,,144,0,0,,,2,,,63,64
28800,note_off,,,,,0,0,0,,,2,,,75,64
28800,note_on,,,,,0,0,0,,,2,,,68,100
28800,note_on,,,,,0,0,0,,,2,,,72,100
28944,note_off,,,,,144,0,0,,,2,,,72,64
28944,note_off,,,,,0,0,0,,,2,,,68,64
28944,note_on,,,,,0,0,0,,,2,,,59,100
28944,note_on,,,,,0,0,0,,,2,,,80,100
29088,note_off,,,,,144,0,0,,,2,,,80,64
29088,note_off,,,,,0,0,0,,,2,,,59,64
29088,note_on,,,,,0,0,0,,,2,,,62,100
29088,note_on,,,,,0,0,0,,,2,,,74,100
29232,note_off,,,,,144,0,0,,,2,,,74,64
29232,note_off,,,,,0,0,0,,,2,,,62,64
29232,note_on,,,,,0,0,0,,,2,,,68,100
29232,note_on,,,,,0,0,0,,,2,,,71,100
29376,note_off,,,,,144,0,0,,,2,,,71,64
29376,note_off,,,,,0,0,0,,,2,,,68,64
29376,note_on,,,,,0,0,0,,,2,,,68,100
29376,note_on,,,,,0,0,0,,,2,,,47,100
29520,note_off,,,,,144,0,0,,,2,,,47,64
29520,note_off,,,,,0,0,0,,,2,,,68,64
29520,note_on,,,,,0,0,0,,,2,,,50,100
29520,note_on,,,,,0,0,0,,,2,,,62,100
29664,note_off,,,,,144,0,0,,,2,,,62,64
29664,note_off,,,,,0,0,0,,,2,,,50,64
29664,note_on,,,,,0,0,0,,,2,,,56,100
29664,note_on,,,,,0,0,0,,,2,,,59,100
29808,note_off,,,,,144,0,0,,,2,,,59,64
29808,note_off,,,,,0,0,0,,,2,,,56,64
29808,note_on,,,,,0,0,0,,,2,,,46,100
29808,note_on,,,,,0,0,0,,,2,,,67,100
29952,note_off,,,,,144,0,0,,,2,,,67,64
29952,note_off,,,,,0,0,0,,,2,,,46,64
29952,note_on,,,,,0,0,0,,,2,,,50,100
29952,note_on,,,,,0,0,0,,,2,,,62,100
30096,note_off,,,,,144,0,0,,,2,,,62,64
30096,note_off,,,,,0,0,0,,,2,,,50,64
30096,note_on,,,,,0,0,0,,,2,,,58,100
30096,note_on,,,,,0,0,0,,,2,,,55,100
30240,note_off,,,,,144,0,0,,,2,,,55,64
30240,note_off,,,,,0,0,0,,,2,,,58,64
30240,note_on,,,,,0,0,0,,,2,,,79,100
30240,note_on,,,,,0,0,0,,,2,,,58,100
30384,note_off,,,,,144,0,0,,,2,,,58,64
30384,note_off,,,,,0,0,0,,,2,,,79,64
30384,note_on,,,,,0,0,0,,,2,,,74,100
30384,note_on,,,,,0,0,0,,,2,,,62,100
30528,note_off,,,,,144,0,0,,,2,,,62,64
30528,note_off,,,,,0,0,0,,,2,,,74,64
30528,note_on,,,,,0,0,0,,,2,,,70,100
30528,note_on,,,,,0,0,0,,,2,,,67,100
30672,note_off,,,,,144,0,0,,,2,,,67,64
30672,note_off,,,,,0,0,0,,,2,,,70,64
30672,note_on,,,,,0,0,0,,,2,,,57,100
30672,note_on,,,,,0,0,0,,,2,,,79,100
30816,note_off,,,,,144,0,0,,,2,,,79,64
30816,note_off,,,,,0,0,0,,,2,,,57,64
30816,note_on,,,,,0,0,0,,,2,,,72,100
30816,note_on,,,,,0,0,0,,,2,,,60,100
30960,note_off,,,,,144,0,0,,,2,,,60,64
30960,note_off,,,,,0,0,0,,,2,,,72,64
30960,note_on,,,,,0,0,0,,,2,,,67,100
30960,note_on,,,,,0,0,0,,,2,,,69,100
31104,note_off,,,,,144,0,0,,,2,,,69,64
31104,note_off,,,,,0,0,0,,,2,,,67,64
31104,note_on,,,,,0,0,0,,,2,,,45,100
31104,note_on,,,,,0,0,0,,,2,,,67,100
31248,note_off,,,,,144,0,0,,,2,,,67,64
31248,note_off,,,,,0,0,0,,,2,,,45,64
31248,note_on,,,,,0,0,0,,,2,,,48,100
31248,note_on,,,,,0,0,0,,,2,,,60,100
31392,note_off,,,,,144,0,0,,,2,,,60,64
31392,note_off,,,,,0,0,0,,,2,,,48,64
31392,note_on,,,,,0,0,0,,,2,,,55,100
31392,note_on,,,,,0,0,0,,,2,,,57,100
31536,note_off,,,,,144,0,0,,,2,,,57,64
31536,note_off,,,,,0,0,0,,,2,,,55,64
31536,note_on,,,,,0,0,0,,,2,,,44,100
31536,note_on,,,,,0,0,0,,,2,,,65,100
31680,note_off,,,,,144,0,0,,,2,,,65,64
31680,note_off,,,,,0,0,0,,,2,,,44,64
31680,note_on,,,,,0,0,0,,,2,,,60,100
31680,note_on,,,,,0,0,0,,,2,,,48,100
31824,note_off,,,,,144,0,0,,,2,,,48,64
31824,note_off,,,,,0,0,0,,,2,,,60,64
31824,note_on,,,,,0,0,0,,,2,,,56,100
31824,note_on,,,,,0,0,0,,,2,,,53,100
31968,note_off,,,,,144,0,0,,,2,,,53,64
31968,note_off,,,,,0,0,0,,,2,,,56,64
31968,note_on,,,,,0,0,0,,,2,,,77,100
31968,note_on,,,,,0,0,0,,,2,,,56,100
32112,note_off,,,,,144,0,0,,,2,,,56,64
32112,note_off,,,,,0,0,0,,,2,,,77,64
32112,note_on,,,,,0,0,0,,,2,,,72,100
32112,note_on,,,,,0,0,0,,,2,,,60,100
32256,note_off,,,,,144,0,0,,,2,,,60,64
32256,note_off,,,,,0,0,0,,,2,,,72,64
32256,note_on,,,,,0,0,0,,,2,,,65,100
32256,note_on,,,,,0,0,0,,,2,,,68,100
32400,note_off,,,,,144,0,0,,,2,,,68,64
32400,note_off,,,,,0,0,0,,,2,,,65,64
32400,note_on,,,,,0,0,0,,,2,,,55,100
32400,note_on,,,,,0,0,0,,,2,,,75,100
32544,note_off,,,,,144,0,0,,,2,,,75,64
32544,note_off,,,,,0,0,0,,,2,,,55,64
32544,note_on,,,,,0,0,0,,,2,,,60,100
32544,note_on,,,,,0,0,0,,,2,,,72,100
32688,note_off,,,,,144,0,0,,,2,,,72,64
32688,note_off,,,,,0,0,0,,,2,,,60,64
32688,note_on,,,,,0,0,0,,,2,,,63,100
32688,note_on,,,,,0,0,0,,,2,,,67,100
32832,note_off,,,,,144,0,0,,,2,,,67,64
32832,note_off,,,,,0,0,0,,,2,,,63,64
32832,note_on,,,,,0,0,0,,,2,,,42,100
32832,note_on,,,,,0,0,0,,,2,,,54,100
32832,note_on,,,,,0,0,0,,,2,,,60,100
32832,note_on,,,,,0,0,0,,,2,,,72,100
32976,note_off,,,,,144,0,0,,,2,,,72,64
32976,note_off,,,,,0,0,0,,,2,,,60,64
32976,note_off,,,,,0,0,0,,,2,,,54,64
32976,note_off,,,,,0,0,0,,,2,,,42,64
32976,note_on,,,,,0,0,0,,,2,,,69,100
32976,note_on,,,,,0,0,0,,,2,,,48,100
33120,note_off,,,,,144,0,0,,,2,,,48,64
33120,note_off,,,,,0,0,0,,,2,,,69,64
33120,note_on,,,,,0,0,0,,,2,,,51,100
33120,note_on,,,,,0,0,0,,,2,,,63,100
33264,note_off,,,,,144,0,0,,,2,,,63,64
33264,note_off,,,,,0,0,0,,,2,,,51,64
33264,note_on,,,,,0,0,0,,,2,,,55,100
33264,note_on,,,,,0,0,0,,,2,,,43,100
33264,note_on,,,,,0,0,0,,,2,,,60,100
33264,note_on,,,,,0,0,0,,,2,,,72,100
33408,note_off,,,,,144,0,0,,,2,,,72,64
33408,note_off,,,,,0,0,0,,,2,,,60,64
33408,note_off,,,,,0,0,0,,,2,,,43,64
33408,note_off,,,,,0,0,0,,,2,,,55,64
33408,note_on,,,,,0,0,0,,,2,,,48,100
33408,note_on,,,,,0,0,0,,,2,,,67,100
33552,note_off,,,,,144,0,0,,,2,,,67,64
33552,note_off,,,,,0,0,0,,,2,,,48,64
33552,note_on,,,,,0,0,0,,,2,,,51,100
33552,note_on,,,,,0,0,0,,,2,,,63,100
33696,note_off,,,,,144,0,0,,,2,,,63,64
33696,note_off,,,,,0,0,0,,,2,,,51,64
33696,note_on,,,,,0,0,0,,,2,,,71,100
33696,note_on,,,,,0,0,0,,,2,,,59,100
33696,note_on,,,,,0,0,0,,,2,,,55,100
33696,note_on,,,,,0,0,0,,,2,,,43,100
33840,note_off,,,,,144,0,0,,,2,,,43,64
33840,note_off,,,,,0,0,0,,,2,,,55,64
33840,note_off,,,,,0,0,0,,,2,,,59,64
33840,note_off,,,,,0,0,0,,,2,,,71,64
33840,note_on,,,,,0,0,0,,,2,,,47,100
33840,note_on,,,,,0,0,0,,,2,,,67,100
33984,note_off,,,,,144,0,0,,,2,,,67,64
33984,note_off,,,,,0,0,0,,,2,,,47,64
33984,note_on,,,,,0,0,0,,,2,,,50,100
33984,note_on,,,,,0,0,0,,,2,,,62,100
34128,note_off,,,,,144,0,0,,,2,,,62,64
34128,note_off,,,,,0,0,0,,,2,,,50,64
34128,note_on,,,,,0,0,0,,,2,,,36,100
34128,note_on,,,,,0,0,0,,,2,,,48,100
34128,note_on,,,,,0,0,0,,,2,,,72,100
34128,note_on,,,,,0,0,0,,,2,,,60,100
34272,note_off,,,,,144,0,0,,,2,,,60,64
34272,note_off,,,,,0,0,0,,,2,,,72,64
34272,note_off,,,,,0,0,0,,,2,,,48,64
34272,note_off,,,,,0,0,0,,,2,,,36,64
34272,note_on,,,,,0,0,0,,,2,,,67,100
34272,note_on,,,,,0,0,0,,,2,,,39,100
34416,note_off,,,,,144,0,0,,,2,,,39,64
34416,note_off,,,,,0,0,0,,,2,,,67,64
34416,note_on,,,,,0,0,0,,,2,,,43,100
34416,note_on,,,,,0,0,0,,,2,,,63,100
34560,note_off,,,,,144,0,0,,,2,,,63,64
34560,note_off,,,,,0,0,0,,,2,,,43,64
34560,note_on,,,,,0,0,0,,,2,,,48,100
34560,note_on,,,,,0,0,0,,,2,,,60,100
34704,note_off,,,,,144,0,0,,,2,,,60,64
34704,note_off,,,,,0,0,0,,,2,,,48,64
34848,note_on,,,,,144,0,0,,,2,,,51,100
34848,note_on,,,,,0,0,0,,,2,,,48,100
34848,note_on,,,,,0,0,0,,,2,,,44,100
34992,note_off,,,,,144,0,0,,,2,,,44,64
34992,note_off,,,,,0,0,0,,,2,,,48,64
34992,note_off,,,,,0,0,0,,,2,,,51,64
35020,note_on,,,,,28,0,0,,,2,,,44,100
35020,note_on,,,,,0,0,0,,,2,,,48,100
35020,note_on,,,,,0,0,0,,,2,,,51,100
35164,note_off,,,,,144,0,0,,,2,,,51,64
35164,note_off,,,,,0,0,0,,,2,,,48,64
35164,note_off,,,,,0,0,0,,,2,,,44,64
35308,note_on,,,,,144,0,0,,,2,,,44,100
35308,note_on,,,,,0,0,0,,,2,,,48,100
35308,note_on,,,,,0,0,0,,,2,,,51,100
35452,note_off,,,,,144,0,0,,,2,,,51,64
35452,note_off,,,,,0,0,0,,,2,,,48,64
35452,note_off,,,,,0,0,0,,,2,,,44,64
35452,note_on,,,,,0,0,0,,,2,,,44,100
35452,note_on,,,,,0,0,0,,,2,,,48,100
35452,note_on,,,,,0,0,0,,,2,,,51,100
35596,note_off,,,,,144,0,0,,,2,,,51,64
35596,note_off,,,,,0,0,0,,,2,,,48,64
35596,note_off,,,,,0,0,0,,,2,,,44,64
35740,note_on,,,,,144,0,0,,,2,,,44,100
35740,note_on,,,,,0,0,0,,,2,,,48,100
35740,note_on,,,,,0,0,0,,,2,,,51,100
35884,note_off,,,,,144,0,0,,,2,,,51,64
35884,note_off,,,,,0,0,0,,,2,,,48,64
35884,note_off,,,,,0,0,0,,,2,,,44,64
35884,note_on,,,,,0,0,0,,,2,,,44,100
35884,note_on,,,,,0,0,0,,,2,,,48,100
35884,note_on,,,,,0,0,0,,,2,,,51,100
36028,note_off,,,,,144,0,0,,,2,,,51,64
36028,note_off,,,,,0,0,0,,,2,,,48,64
36028,note_off,,,,,0,0,0,,,2,,,44,64
36028,note_on,,,,,0,0,0,,,2,,,56,100
36172,note_off,,,,,144,0,0,,,2,,,56,64
36172,note_on,,,,,0,0,0,,,2,,,44,100
36172,note_on,,,,,0,0,0,,,2,,,48,100
36172,note_on,,,,,0,0,0,,,2,,,51,100
36316,note_off,,,,,144,0,0,,,2,,,51,64
36316,note_off,,,,,0,0,0,,,2,,,48,64
36316,note_off,,,,,0,0,0,,,2,,,44,64
36316,note_on,,,,,0,0,0,,,2,,,51,100
36316,note_on,,,,,0,0,0,,,2,,,48,100
36316,note_on,,,,,0,0,0,,,2,,,44,100
36460,note_off,,,,,144,0,0,,,2,,,44,64
36460,note_off,,,,,0,0,0,,,2,,,48,64
36460,note_off,,,,,0,0,0,,,2,,,51,64
36460,note_on,,,,,0,0,0,,,2,,,60,100
36604,note_off,,,,,144,0,0,,,2,,,60,64
36604,note_on,,,,,0,0,0,,,2,,,51,100
36604,note_on,,,,,0,0,0,,,2,,,48,100
36604,note_on,,,,,0,0,0,,,2,,,44,100
36748,note_off,,,,,144,0,0,,,2,,,44,64
36748,note_off,,,,,0,0,0,,,2,,,48,64
36748,note_off,,,,,0,0,0,,,2,,,51,64
36748,note_on,,,,,0,0,0,,,2,,,51,100
36748,note_on,,,,,0,0,0,,,2,,,48,100
36748,note_on,,,,,0,0,0,,,2,,,44,100
36892,note_off,,,,,144,0,0,,,2,,,44,64
36892,note_off,,,,,0,0,0,,,2,,,48,64
36892,note_off,,,,,0,0,0,,,2,,,51,64
36892,note_on,,,,,0,0,0,,,2,,,63,100
37036,note_off,,,,,144,0,0,,,2,,,63,64
37036,note_on,,,,,0,0,0,,,2,,,44,100
37036,note_on,,,,,0,0,0,,,2,,,48,100
37036,note_on,,,,,0,0,0,,,2,,,51,100
37180,note_off,,,,,144,0,0,,,2,,,51,64
37180,note_off,,,,,0,0,0,,,2,,,48,64
37180,note_off,,,,,0,0,0,,,2,,,44,64
37180,note_on,,,,,0,0,0,,,2,,,51,100
37180,note_on,,,,,0,0,0,,,2,,,48,100
37180,note_on,,,,,0,0,0,,,2,,,44,100
37324,note_off,,,,,144,0,0,,,2,,,44,64
37324,note_off,,,,,0,0,0,,,2,,,48,64
37324,note_off,,,,,0,0,0,,,2,,,51,64
37324,note_on,,,,,0,0,0,,,2,,,68,100
37468,note_off,,,,,144,0,0,,,2,,,68,64
37468,note_on,,,,,0,0,0,,,2,,,44,100
37468,note_on,,,,,0,0,0,,,2,,,48,100
37468,note_on,,,,,0,0,0,,,2,,,51,100
37612,note_off,,,,,144,0,0,,,2,,,51,64
37612,note_off,,,,,0,0,0,,,2,,,48,64
37612,note_off,,,,,0,0,0,,,2,,,44,64
37612,note_on,,,,,0,0,0,,,2,,,51,100
37612,note_on,,,,,0,0,0,,,2,,,48,100
37612,note_on,,,,,0,0,0,,,2,,,44,100
37756,note_off,,,,,144,0,0,,,2,,,44,64
37756,note_off,,,,,0,0,0,,,2,,,48,64
37756,note_off,,,,,0,0,0,,,2,,,51,64
37756,note_on,,,,,0,0,0,,,2,,,72,100
37900,note_off,,,,,144,0,0,,,2,,,72,64
37900,note_on,,,,,0,0,0,,,2,,,44,100
37900,note_on,,,,,0,0,0,,,2,,,48,100
37900,note_on,,,,,0,0,0,,,2,,,51,100
38044,note_off,,,,,144,0,0,,,2,,,51,64
38044,note_off,,,,,0,0,0,,,2,,,48,64
38044,note_off,,,,,0,0,0,,,2,,,44,64
38044,note_on,,,,,0,0,0,,,2,,,44,100
38044,note_on,,,,,0,0,0,,,2,,,48,100
38044,note_on,,,,,0,0,0,,,2,,,51,100
38188,note_off,,,,,144,0,0,,,2,,,51,64
38188,note_off,,,,,0,0,0,,,2,,,48,64
38188,note_off,,,,,0,0,0,,,2,,,44,64
38188,note_on,,,,,0,0,0,,,2,,,75,100
38332,note_off,,,,,144,0,0,,,2,,,75,64
38332,note_on,,,,,0,0,0,,,2,,,44,100
38332,note_on,,,,,0,0,0,,,2,,,48,100
38332,note_on,,,,,0,0,0,,,2,,,51,100
38476,note_off,,,,,144,0,0,,,2,,,51,64
38476,note_off,,,,,0,0,0,,,2,,,48,64
38476,note_off,,,,,0,0,0,,,2,,,44,64
38476,note_on,,,,,0,0,0,,,2,,,78,100
38476,note_on,,,,,0,0,0,,,2,,,54,100
38476,note_on,,,,,0,0,0,,,2,,,51,100
38476,note_on,,,,,0,0,0,,,2,,,48,100
38476,note_on,,,,,0,0,0,,,2,,,45,100
38548,note_off,,,,,72,0,0,,,2,,,78,64
38548,note_on,,,,,0,0,0,,,2,,,79,100
38620,note_off,,,,,72,0,0,,,2,,,79,64
38620,note_off,,,,,0,0,0,,,2,,,45,64
38620,note_off,,,,,0,0,0,,,2,,,48,64
38620,note_off,,,,,0,0,0,,,2,,,51,64
38620,note_off,,,,,0,0,0,,,2,,,54,64
38620,note_on,,,,,0,0,0,,,2,,,78,100
38692,note_off,,,,,72,0,0,,,2,,,78,64
38692,note_on,,,,,0,0,0,,,2,,,79,100
38764,note_off,,,,,72,0,0,,,2,,,79,64
38764,note_on,,,,,0,0,0,,,2,,,54,100
38764,note_on,,,,,0,0,0,,,2,,,51,100
38764,note_on,,,,,0,0,0,,,2,,,48,100
38764,note_on,,,,,0,0,0,,,2,,,45,100
38764,note_on,,,,,0,0,0,,,2,,,78,100
38836,note_off,,,,,72,0,0,,,2,,,78,64
38836,note_on,,,,,0,0,0,,,2,,,79,100
38908,note_off,,,,,72,0,0,,,2,,,79,64
38908,note_off,,,,,0,0,0,,,2,,,45,64
38908,note_off,,,,,0,0,0,,,2,,,48,64
38908,note_off,,,,,0,0,0,,,2,,,51,64
38908,note_off,,,,,0,0,0,,,2,,,54,64
38908,note_on,,,,,0,0,0,,,2,,,78,100
38908,note_on,,,,,0,0,0,,,2,,,54,100
38908,note_on,,,,,0,0,0,,,2,,,51,100
38908,note_on,,,,,0,0,0,,,2,,,48,100
38908,note_on,,,,,0,0,0,,,2,,,45,100
38980,note_off,,,,,72,0,0,,,2,,,78,64
38980,note_on,,,,,0,0,0,,,2,,,79,100
39052,note_off,,,,,72,0,0,,,2,,,79,64
39052,note_off,,,,,0,0,0,,,2,,,45,64
39052,note_off,,,,,0,0,0,,,2,,,48,64
39052,note_off,,,,,0,0,0,,,2,,,51,64
39052,note_off,,,,,0,0,0,,,2,,,54,64
39052,note_on,,,,,0,0,0,,,2,,,78,100
39124,note_off,,,,,72,0,0,,,2,,,78,64
39124,note_on,,,,,0,0,0,,,2,,,79,100
39196,note_off,,,,,72,0,0,,,2,,,79,64
39196,note_on,,,,,0,0,0,,,2,,,78,100
39196,note_on,,,,,0,0,0,,,2,,,45,100
39196,note_on,,,,,0,0,0,,,2,,,48,100
39196,note_on,,,,,0,0,0,,,2,,,51,100
39196,note_on,,,,,0,0,0,,,2,,,54,100
39268,note_off,,,,,72,0,0,,,2,,,78,64
39268,note_on,,,,,0,0,0,,,2,,,79,100
39340,note_off,,,,,72,0,0,,,2,,,79,64
39340,note_off,,,,,0,0,0,,,2,,,54,64
39340,note_off,,,,,0,0,0,,,2,,,51,64
39340,note_off,,,,,0,0,0,,,2,,,48,64
39340,note_off,,,,,0,0,0,,,2,,,45,64
39340,note_on,,,,,0,0,0,,,2,,,79,100
39340,note_on,,,,,0,0,0,,,2,,,55,100
39340,note_on,,,,,0,0,0,,,2,,,51,100
39340,note_on,,,,,0,0,0,,,2,,,46,100
39484,note_off,,,,,144,0,0,,,2,,,46,64
39484,note_off,,,,,0,0,0,,,2,,,51,64
39484,note_off,,,,,0,0,0,,,2,,,55,64
39484,note_off,,,,,0,0,0,,,2,,,79,64
39484,note_on,,,,,0,0,0,,,2,,,75,100
39628,note_off,,,,,144,0,0,,,2,,,75,64
39628,note_on,,,,,0,0,0,,,2,,,70,100
39628,note_on,,,,,0,0,0,,,2,,,55,100
39628,note_on,,,,,0,0,0,,,2,,,51,100
39628,note_on,,,,,0,0,0,,,2,,,46,100
39772,note_off,,,,,144,0,0,,,2,,,46,64
39772,note_off,,,,,0,0,0,,,2,,,51,64
39772,note_off,,,,,0,0,0,,,2,,,55,64
39772,note_off,,,,,0,0,0,,,2,,,70,64
39772,note_on,,,,,0,0,0,,,2,,,70,100
39772,note_on,,,,,0,0,0,,,2,,,56,100
39772,note_on,,,,,0,0,0,,,2,,,50,100
39772,note_on,,,,,0,0,0,,,2,,,46,100
39916,note_off,,,,,144,0,0,,,2,,,46,64
39916,note_off,,,,,0,0,0,,,2,,,50,64
39916,note_off,,,,,0,0,0,,,2,,,56,64
39916,note_off,,,,,0,0,0,,,2,,,70,64
39916,note_on,,,,,0,0,0,,,2,,,68,100
40060,note_off,,,,,144,0,0,,,2,,,68,64
40060,note_on,,,,,0,0,0,,,2,,,65,100
40060,note_on,,,,,0,0,0,,,2,,,56,100
40060,note_on,,,,,0,0,0,,,2,,,50,100
40060,note_on,,,,,0,0,0,,,2,,,46,100
40204,note_off,,,,,144,0,0,,,2,,,46,64
40204,note_off,,,,,0,0,0,,,2,,,50,64
40204,note_off,,,,,0,0,0,,,2,,,56,64
40204,note_off,,,,,0,0,0,,,2,,,65,64
40204,note_on,,,,,0,0,0,,,2,,,55,100
40204,note_on,,,,,0,0,0,,,2,,,51,100
40204,note_on,,,,,0,0,0,,,2,,,39,100
40204,note_on,,,,,0,0,0,,,2,,,63,100
40348,note_off,,,,,144,0,0,,,2,,,63,64
40348,note_off,,,,,0,0,0,,,2,,,39,64
40348,note_off,,,,,0,0,0,,,2,,,51,64
40348,note_off,,,,,0,0,0,,,2,,,55,64
40348,note_on,,,,,0,0,0,,,2,,,58,100
40492,note_off,,,,,144,0,0,,,2,,,58,64
40492,note_on,,,,,0,0,0,,,2,,,55,100
40636,note_off,,,,,144,0,0,,,2,,,55,64
40636,note_on,,,,,0,0,0,,,2,,,51,100
40780,note_off,,,,,144,0,0,,,2,,,51,64
40780,note_on,,,,,0,0,0,,,2,,,49,100
40924,note_off,,,,,144,0,0,,,2,,,49,64
40924,note_on,,,,,0,0,0,,,2,,,51,100
40924,note_on,,,,,0,0,0,,,2,,,46,100
41044,note_on,,,,,120,0,0,,,2,,,44,100
41044,note_on,,,,,0,0,0,,,2,,,48,100
41044,note_on,,,,,0,0,0,,,2,,,51,100
41068,note_off,,,,,24,0,0,,,2,,,51,64
41068,note_off,,,,,0,0,0,,,2,,,46,64
41188,note_off,,,,,120,0,0,,,2,,,48,64
41188,note_off,,,,,0,0,0,,,2,,,44,64
41188,note_off,,,,,0,0,0,,,2,,,51,64
41332,note_on,,,,,144,0,0,,,2,,,44,100
41332,note_on,,,,,0,0,0,,,2,,,48,100
41332,note_on,,,,,0,0,0,,,2,,,51,100
41476,note_off,,,,,144,0,0,,,2,,,51,64
41476,note_off,,,,,0,0,0,,,2,,,48,64
41476,note_off,,,,,0,0,0,,,2,,,44,64
41476,note_on,,,,,0,0,0,,,2,,,44,100
41476,note_on,,,,,0,0,0,,,2,,,48,100
41476,note_on,,,,,0,0,0,,,2,,,51,100
41620,note_off,,,,,144,0,0,,,2,,,51,64
41620,note_off,,,,,0,0,0,,,2,,,48,64
41620,note_off,,,,,0,0,0,,,2,,,44,64
41764,note_on,,,,,144,0,0,,,2,,,44,100
41764,note_on,,,,,0,0,0,,,2,,,48,100
41764,note_on,,,,,0,0,0,,,2,,,51,100
41908,note_off,,,,,144,0,0,,,2,,,51,64
41908,note_off,,,,,0,0,0,,,2,,,48,64
41908,note_off,,,,,0,0,0,,,2,,,44,64
41908,note_on,,,,,0,0,0,,,2,,,51,100
41908,note_on,,,,,0,0,0,,,2,,,48,100
41908,note_on,,,,,0,0,0,,,2,,,44,100
42052,note_off,,,,,144,0,0,,,2,,,44,64
42052,note_off,,,,,0,0,0,,,2,,,48,64
42052,note_off,,,,,0,0,0,,,2,,,51,64
42052,note_on,,,,,0,0,0,,,2,,,56,100
42196,note_off,,,,,144,0,0,,,2,,,56,64
42196,note_on,,,,,0,0,0,,,2,,,44,100
42196,note_on,,,,,0,0,0,,,2,,,48,100
42196,note_on,,,,,0,0,0,,,2,,,51,100
42340,note_off,,,,,144,0,0,,,2,,,51,64
42340,note_off,,,,,0,0,0,,,2,,,48,64
42340,note_off,,,,,0,0,0,,,2,,,44,64
42340,note_on,,,,,0,0,0,,,2,,,44,100
42340,note_on,,,,,0,0,0,,,2,,,48,100
42340,note_on,,,,,0,0,0,,,2,,,51,100
42484,note_off,,,,,144,0,0,,,2,,,51,64
42484,note_off,,,,,0,0,0,,,2,,,48,64
42484,note_off,,,,,0,0,0,,,2,,,44,64
42484,note_on,,,,,0,0,0,,,2,,,60,100
42628,note_off,,,,,144,0,0,,,2,,,60,64
42628,note_on,,,,,0,0,0,,,2,,,44,100
42628,note_on,,,,,0,0,0,,,2,,,48,100
42628,note_on,,,,,0,0,0,,,2,,,51,100
42772,note_off,,,,,144,0,0,,,2,,,51,64
42772,note_off,,,,,0,0,0,,,2,,,48,64
42772,note_off,,,,,0,0,0,,,2,,,44,64
42772,note_on,,,,,0,0,0,,,2,,,51,100
42772,note_on,,,,,0,0,0,,,2,,,48,100
42772,note_on,,,,,0,0,0,,,2,,,44,100
42916,note_off,,,,,144,0,0,,,2,,,44,64
42916,note_off,,,,,0,0,0,,,2,,,48,64
42916,note_off,,,,,0,0,0,,,2,,,51,64
42916,note_on,,,,,0,0,0,,,2,,,63,100
43060,note_off,,,,,144,0,0,,,2,,,63,64
43060,note_on,,,,,0,0,0,,,2,,,51,100
43060,note_on,,,,,0,0,0,,,2,,,48,100
43060,note_on,,,,,0,0,0,,,2,,,44,100
43204,note_off,,,,,144,0,0,,,2,,,44,64
43204,note_off,,,,,0,0,0,,,2,,,48,64
43204,note_off,,,,,0,0,0,,,2,,,51,64
43204,note_on,,,,,0,0,0,,,2,,,51,100
43204,note_on,,,,,0,0,0,,,2,,,48,100
43204,note_on,,,,,0,0,0,,,2,,,44,100
43348,note_off,,,,,144,0,0,,,2,,,44,64
43348,note_off,,,,,0,0,0,,,2,,,48,64
43348,note_off,,,,,0,0,0,,,2,,,51,64
43348,note_on,,,,,0,0,0,,,2,,,68,100
43492,note_off,,,,,144,0,0,,,2,,,68,64
43492,note_on,,,,,0,0,0,,,2,,,44,100
43492,note_on,,,,,0,0,0,,,2,,,48,100
43492,note_on,,,,,0,0,0,,,2,,,51,100
43636,note_off,,,,,144,0,0,,,2,,,51,64
43636,note_off,,,,,0,0,0,,,2,,,48,64
43636,note_off,,,,,0,0,0,,,2,,,44,64
43636,note_on,,,,,0,0,0,,,2,,,51,100
43636,note_on,,,,,0,0,0,,,2,,,48,100
43636,note_on,,,,,0,0,0,,,2,,,44,100
43780,note_off,,,,,144,0,0,,,2,,,44,64
43780,note_off,,,,,0,0,0,,,2,,,48,64
43780,note_off,,,,,0,0,0,,,2,,,51,64
43780,note_on,,,,,0,0,0,,,2,,,72,100
43924,note_off,,,,,144,0,0,,,2,,,72,64
43924,note_on,,,,,0,0,0,,,2,,,44,100
43924,note_on,,,,,0,0,0,,,2,,,48,100
43924,note_on,,,,,0,0,0,,,2,,,51,100
44068,note_off,,,,,144,0,0,,,2,,,51,64
44068,note_off,,,,,0,0,0,,,2,,,48,64
44068,note_off,,,,,0,0,0,,,2,,,44,64
44068,note_on,,,,,0,0,0,,,2,,,51,100
44068,note_on,,,,,0,0,0,,,2,,,48,100
44068,note_on,,,,,0,0,0,,,2,,,44,100
44212,note_off,,,,,144,0,0,,,2,,,44,64
44212,note_off,,,,,0,0,0,,,2,,,48,64
44212,note_off,,,,,0,0,0,,,2,,,51,64
44212,note_on,,,,,0,0,0,,,2,,,75,100
44356,note_off,,,,,144,0,0,,,2,,,75,64
44356,note_on,,,,,0,0,0,,,2,,,44,100
44356,note_on,,,,,0,0,0,,,2,,,48,100
44356,note_on,,,,,0,0,0,,,2,,,51,100
44500,note_off,,,,,144,0,0,,,2,,,51,64
44500,note_off,,,,,0,0,0,,,2,,,48,64
44500,note_off,,,,,0,0,0,,,2,,,44,64
44500,note_on,,,,,0,0,0,,,2,,,45,100
44500,note_on,,,,,0,0,0,,,2,,,48,100
44500,note_on,,,,,0,0,0,,,2,,,51,100
44500,note_on,,,,,0,0,0,,,2,,,54,100
44500,note_on,,,,,0,0,0,,,2,,,78,100
44572,note_off,,,,,72,0,0,,,2,,,78,64
44572,note_on,,,,,0,0,0,,,2,,,79,100
44644,note_off,,,,,72,0,0,,,2,,,79,64
44644,note_off,,,,,0,0,0,,,2,,,54,64
44644,note_off,,,,,0,0,0,,,2,,,51,64
44644,note_off,,,,,0,0,0,,,2,,,48,64
44644,note_off,,,,,0,0,0,,,2,,,45,64
44644,note_on,,,,,0,0,0,,,2,,,78,100
44716,note_off,,,,,72,0,0,,,2,,,78,64
44716,note_on,,,,,0,0,0,,,2,,,79,100
44788,note_off,,,,,72,0,0,,,2,,,79,64
44788,note_on,,,,,0,0,0,,,2,,,78,100
44788,note_on,,,,,0,0,0,,,2,,,45,100
44788,note_on,,,,,0,0,0,,,2,,,48,100
44788,note_on,,,,,0,0,0,,,2,,,51,100
44788,note_on,,,,,0,0,0,,,2,,,54,100
44860,note_off,,,,,72,0,0,,,2,,,78,64
44860,note_on,,,,,0,0,0,,,2,,,79,100
44932,note_off,,,,,72,0,0,,,2,,,79,64
44932,note_off,,,,,0,0,0,,,2,,,54,64
44932,note_off,,,,,0,0,0,,,2,,,51,64
44932,note_off,,,,,0,0,0,,,2,,,48,64
44932,note_off,,,,,0,0,0,,,2,,,45,64
44932,note_on,,,,,0,0,0,,,2,,,78,100
44932,note_on,,,,,0,0,0,,,2,,,54,100
44932,note_on,,,,,0,0,0,,,2,,,51,100
44932,note_on,,,,,0,0,0,,,2,,,48,100
44932,note_on,,,,,0,0,0,,,2,,,45,100
45004,note_off,,,,,72,0,0,,,2,,,78,64
45004,note_on,,,,,0,0,0,,,2,,,79,100
45076,note_off,,,,,72,0,0,,,2,,,79,64
45076,note_off,,,,,0,0,0,,,2,,,45,64
45076,note_off,,,,,0,0,0,,,2,,,48,64
45076,note_off,,,,,0,0,0,,,2,,,51,64
45076,note_off,,,,,0,0,0,,,2,,,54,64
45076,note_on,,,,,0,0,0,,,2,,,78,100
45148,note_off,,,,,72,0,0,,,2,,,78,64
45148,note_on,,,,,0,0,0,,,2,,,79,100
45220,note_off,,,,,72,0,0,,,2,,,79,64
45220,note_on,,,,,0,0,0,,,2,,,54,100
45220,note_on,,,,,0,0,0,,,2,,,51,100
45220,note_on,,,,,0,0,0,,,2,,,48,100
45220,note_on,,,,,0,0,0,,,2,,,45,100
45220,note_on,,,,,0,0,0,,,2,,,78,100
45292,note_off,,,,,72,0,0,,,2,,,78,64
45292,note_on,,,,,0,0,0,,,2,,,79,100
45364,note_off,,,,,72,0,0,,,2,,,79,64
45364,note_off,,,,,0,0,0,,,2,,,45,64
45364,note_off,,,,,0,0,0,,,2,,,48,64
45364,note_off,,,,,0,0,0,,,2,,,51,64
45364,note_off,,,,,0,0,0,,,2,,,54,64
45364,note_on,,,,,0,0,0,,,2,,,79,100
45364,note_on,,,,,0,0,0,,,2,,,55,100
45364,note_on,,,,,0,0,0,,,2,,,51,100
45364,note_on,,,,,0,0,0,,,2,,,46,100
45508,note_off,,,,,144,0,0,,,2,,,46,64
45508,note_off,,,,,0,0,0,,,2,,,51,64
45508,note_off,,,,,0,0,0,,,2,,,55,64
45508,note_off,,,,,0,0,0,,,2,,,79,64
45508,note_on,,,,,0,0,0,,,2,,,75,100
45652,note_off,,,,,144,0,0,,,2,,,75,64
45652,note_on,,,,,0,0,0,,,2,,,70,100
45652,note_on,,,,,0,0,0,,,2,,,55,100
45652,note_on,,,,,0,0,0,,,2,,,51,100
45652,note_on,,,,,0,0,0,,,2,,,46,100
45796,note_off,,,,,144,0,0,,,2,,,46,64
45796,note_off,,,,,0,0,0,,,2,,,51,64
45796,note_off,,,,,0,0,0,,,2,,,55,64
45796,note_off,,,,,0,0,0,,,2,,,70,64
45796,note_on,,,,,0,0,0,,,2,,,70,100
45796,note_on,,,,,0,0,0,,,2,,,56,100
45796,note_on,,,,,0,0,0,,,2,,,50,100
45796,note_on,,,,,0,0,0,,,2,,,46,100
45940,note_off,,,,,144,0,0,,,2,,,46,64
45940,note_off,,,,,0,0,0,,,2,,,50,64
45940,note_off,,,,,0,0,0,,,2,,,56,64
45940,note_off,,,,,0,0,0,,,2,,,70,64
45940,note_on,,,,,0,0,0,,,2,,,68,100
46084,note_off,,,,,144,0,0,,,2,,,68,64
46084,note_on,,,,,0,0,0,,,2,,,65,100
46084,note_on,,,,,0,0,0,,,2,,,56,100
46084,note_on,,,,,0,0,0,,,2,,,50,100
46084,note_on,,,,,0,0,0,,,2,,,46,100
46228,note_off,,,,,144,0,0,,,2,,,46,64
46228,note_off,,,,,0,0,0,,,2,,,50,64
46228,note_off,,,,,0,0,0,,,2,,,56,64
46228,note_off,,,,,0,0,0,,,2,,,65,64
46228,note_on,,,,,0,0,0,,,2,,,63,100
46228,note_on,,,,,0,0,0,,,2,,,39,100
46228,note_on,,,,,0,0,0,,,2,,,51,100
46228,note_on,,,,,0,0,0,,,2,,,55,100
46372,note_off,,,,,144,0,0,,,2,,,55,64
46372,note_off,,,,,0,0,0,,,2,,,51,64
46372,note_off,,,,,0,0,0,,,2,,,39,64
46372,note_off,,,,,0,0,0,,,2,,,63,64
46372,note_on,,,,,0,0,0,,,2,,,58,100
46516,note_off,,,,,144,0,0,,,2,,,58,64
46516,note_on,,,,,0,0,0,,,2,,,55,100
46660,note_off,,,,,144,0,0,,,2,,,55,64
46660,note_on,,,,,0,0,0,,,2,,,51,100
46804,note_off,,,,,144,0,0,,,2,,,51,64
46944,note_on,,,,,140,0,0,,,2,,,61,100
46944,note_on,,,,,0,0,0,,,2,,,58,100
46944,note_on,,,,,0,0,0,,,2,,,51,100
47088,note_off,,,,,144,0,0,,,2,,,51,64
47088,note_off,,,,,0,0,0,,,2,,,58,64
47088,note_off,,,,,0,0,0,,,2,,,61,64
47088,note_on,,,,,0,0,0,,,2,,,61,100
47088,note_on,,,,,0,0,0,,,2,,,58,100
47088,note_on,,,,,0,0,0,,,2,,,51,100
47232,note_off,,,,,144,0,0,,,2,,,51,64
47232,note_off,,,,,0,0,0,,,2,,,58,64
47232,note_off,,,,,0,0,0,,,2,,,61,64
47376,note_on,,,,,144,0,0,,,2,,,51,100
47376,note_on,,,,,0,0,0,,,2,,,58,100
47376,note_on,,,,,0,0,0,,,2,,,61,100
47520,note_off,,,,,144,0,0,,,2,,,61,64
47520,note_off,,,,,0,0,0,,,2,,,58,64
47520,note_off,,,,,0,0,0,,,2,,,51,64
47520,note_on,,,,,0,0,0,,,2,,,61,100
47520,note_on,,,,,0,0,0,,,2,,,58,100
47520,note_on,,,,,0,0,0,,,2,,,51,100
47664,note_off,,,,,144,0,0,,,2,,,51,64
47664,note_off,,,,,0,0,0,,,2,,,58,64
47664,note_off,,,,,0,0,0,,,2,,,61,64
47808,note_on,,,,,144,0,0,,,2,,,61,100
47808,note_on,,,,,0,0,0,,,2,,,58,100
47808,note_on,,,,,0,0,0,,,2,,,51,100
47952,note_off,,,,,144,0,0,,,2,,,51,64
47952,note_off,,,,,0,0,0,,,2,,,58,64
47952,note_off,,,,,0,0,0,,,2,,,61,64
47952,note_on,,,,,0,0,0,,,2,,,61,100
47952,note_on,,,,,0,0,0,,,2,,,58,100
47952,note_on,,,,,0,0,0,,,2,,,51,100
48096,note_off,,,,,144,0,0,,,2,,,51,64
48096,note_off,,,,,0,0,0,,,2,,,58,64
48096,note_off,,,,,0,0,0,,,2,,,61,64
48096,note_on,,,,,0,0,0,,,2,,,77,100
48240,note_off,,,,,144,0,0,,,2,,,77,64
48240,note_on,,,,,0,0,0,,,2,,,75,100
48240,note_on,,,,,0,0,0,,,2,,,61,100
48240,note_on,,,,,0,0,0,,,2,,,58,100
48240,note_on,,,,,0,0,0,,,2,,,51,100
48384,note_off,,,,,144,0,0,,,2,,,51,64
48384,note_off,,,,,0,0,0,,,2,,,58,64
48384,note_off,,,,,0,0,0,,,2,,,61,64
48384,note_off,,,,,0,0,0,,,2,,,75,64
48384,note_on,,,,,0,0,0,,,2,,,61,100
48384,note_on,,,,,0,0,0,,,2,,,58,100
48384,note_on,,,,,0,0,0,,,2,,,51,100
48528,note_off,,,,,144,0,0,,,2,,,51,64
48528,note_off,,,,,0,0,0,,,2,,,58,64
48528,note_off,,,,,0,0,0,,,2,,,61,64
48528,note_on,,,,,0,0,0,,,2,,,73,100
48672,note_off,,,,,144,0,0,,,2,,,73,64
48672,note_on,,,,,0,0,0,,,2,,,72,100
48672,note_on,,,,,0,0,0,,,2,,,61,100
48672,note_on,,,,,0,0,0,,,2,,,58,100
48672,note_on,,,,,0,0,0,,,2,,,51,100
48816,note_off,,,,,144,0,0,,,2,,,51,64
48816,note_off,,,,,0,0,0,,,2,,,58,64
48816,note_off,,,,,0,0,0,,,2,,,61,64
48816,note_off,,,,,0,0,0,,,2,,,72,64
48816,note_on,,,,,0,0,0,,,2,,,51,100
48816,note_on,,,,,0,0,0,,,2,,,58,100
48816,note_on,,,,,0,0,0,,,2,,,61,100
48960,note_off,,,,,144,0,0,,,2,,,61,64
48960,note_off,,,,,0,0,0,,,2,,,58,64
48960,note_off,,,,,0,0,0,,,2,,,51,64
48960,note_on,,,,,0,0,0,,,2,,,70,100
49104,note_off,,,,,144,0,0,,,2,,,70,64
49104,note_on,,,,,0,0,0,,,2,,,68,100
49104,note_on,,,,,0,0,0,,,2,,,61,100
49104,note_on,,,,,0,0,0,,,2,,,58,100
49104,note_on,,,,,0,0,0,,,2,,,51,100
49248,note_off,,,,,144,0,0,,,2,,,51,64
49248,note_off,,,,,0,0,0,,,2,,,58,64
49248,note_off,,,,,0,0,0,,,2,,,61,64
49248,note_off,,,,,0,0,0,,,2,,,68,64
49248,note_on,,,,,0,0,0,,,2,,,61,100
49248,note_on,,,,,0,0,0,,,2,,,58,100
49248,note_on,,,,,0,0,0,,,2,,,51,100
49392,note_off,,,,,144,0,0,,,2,,,51,64
49392,note_off,,,,,0,0,0,,,2,,,58,64
49392,note_off,,,,,0,0,0,,,2,,,61,64
49392,note_on,,,,,0,0,0,,,2,,,67,100
49536,note_off,,,,,144,0,0,,,2,,,67,64
49536,note_on,,,,,0,0,0,,,2,,,51,100
49536,note_on,,,,,0,0,0,,,2,,,58,100
49536,note_on,,,,,0,0,0,,,2,,,61,100
49536,note_on,,,,,0,0,0,,,2,,,68,100
49680,note_off,,,,,144,0,0,,,2,,,68,64
49680,note_off,,,,,0,0,0,,,2,,,61,64
49680,note_off,,,,,0,0,0,,,2,,,58,64
49680,note_off,,,,,0,0,0,,,2,,,51,64
49680,note_on,,,,,0,0,0,,,2,,,61,100
49680,note_on,,,,,0,0,0,,,2,,,58,100
49680,note_on,,,,,0,0,0,,,2,,,51,100
49824,note_off,,,,,144,0,0,,,2,,,51,64
49824,note_off,,,,,0,0,0,,,2,,,58,64
49824,note_off,,,,,0,0,0,,,2,,,61,64
49824,note_on,,,,,0,0,0,,,2,,,70,100
49968,note_off,,,,,144,0,0,,,2,,,70,64
49968,note_on,,,,,0,0,0,,,2,,,72,100
49968,note_on,,,,,0,0,0,,,2,,,61,100
49968,note_on,,,,,0,0,0,,,2,,,58,100
49968,note_on,,,,,0,0,0,,,2,,,51,100
50112,note_off,,,,,144,0,0,,,2,,,51,64
50112,note_off,,,,,0,0,0,,,2,,,58,64
50112,note_off,,,,,0,0,0,,,2,,,61,64
50112,note_off,,,,,0,0,0,,,2,,,72,64
50112,note_on,,,,,0,0,0,,,2,,,61,100
50112,note_on,,,,,0,0,0,,,2,,,58,100
50112,note_on,,,,,0,0,0,,,2,,,51,100
50256,note_off,,,,,144,0,0,,,2,,,51,64
50256,note_off,,,,,0,0,0,,,2,,,58,64
50256,note_off,,,,,0,0,0,,,2,,,61,64
50256,note_on,,,,,0,0,0,,,2,,,73,100
50400,note_off,,,,,144,0,0,,,2,,,73,64
50400,note_on,,,,,0,0,0,,,2,,,75,100
50400,note_on,,,,,0,0,0,,,2,,,61,100
50400,note_on,,,,,0,0,0,,,2,,,58,100
50400,note_on,,,,,0,0,0,,,2,,,51,100
50544,note_off,,,,,144,0,0,,,2,,,51,64
50544,note_off,,,,,0,0,0,,,2,,,58,64
50544,note_off,,,,,0,0,0,,,2,,,61,64
50544,note_off,,,,,0,0,0,,,2,,,75,64
50544,note_on,,,,,0,0,0,,,2,,,61,100
50544,note_on,,,,,0,0,0,,,2,,,58,100
50544,note_on,,,,,0,0,0,,,2,,,51,100
50688,note_off,,,,,144,0,0,,,2,,,51,64
50688,note_off,,,,,0,0,0,,,2,,,58,64
50688,note_off,,,,,0,0,0,,,2,,,61,64
50688,note_on,,,,,0,0,0,,,2,,,77,100
50832,note_off,,,,,144,0,0,,,2,,,77,64
50832,note_on,,,,,0,0,0,,,2,,,75,100
50832,note_on,,,,,0,0,0,,,2,,,61,100
50832,note_on,,,,,0,0,0,,,2,,,58,100
50832,note_on,,,,,0,0,0,,,2,,,51,100
50976,note_off,,,,,144,0,0,,,2,,,51,64
50976,note_off,,,,,0,0,0,,,2,,,58,64
50976,note_off,,,,,0,0,0,,,2,,,61,64
50976,note_off,,,,,0,0,0,,,2,,,75,64
50976,note_on,,,,,0,0,0,,,2,,,51,100
50976,note_on,,,,,0,0,0,,,2,,,58,100
50976,note_on,,,,,0,0,0,,,2,,,61,100
51120,note_off,,,,,144,0,0,,,2,,,61,64
51120,note_off,,,,,0,0,0,,,2,,,58,64
51120,note_off,,,,,0,0,0,,,2,,,51,64
51120,note_on,,,,,0,0,0,,,2,,,73,100
51264,note_off,,,,,144,0,0,,,2,,,73,64
51264,note_on,,,,,0,0,0,,,2,,,72,100
51264,note_on,,,,,0,0,0,,,2,,,61,100
51264,note_on,,,,,0,0,0,,,2,,,58,100
51264,note_on,,,,,0,0,0,,,2,,,51,100
51408,note_off,,,,,144,0,0,,,2,,,51,64
51408,note_off,,,,,0,0,0,,,2,,,58,64
51408,note_off,,,,,0,0,0,,,2,,,61,64
51408,note_off,,,,,0,0,0,,,2,,,72,64
51408,note_on,,,,,0,0,0,,,2,,,49,100
51408,note_on,,,,,0,0,0,,,2,,,46,100
51408,note_on,,,,,0,0,0,,,2,,,39,100
51552,note_off,,,,,144,0,0,,,2,,,39,64
51552,note_off,,,,,0,0,0,,,2,,,46,64
51552,note_off,,,,,0,0,0,,,2,,,49,64
51552,note_on,,,,,0,0,0,,,2,,,70,100
51696,note_off,,,,,144,0,0,,,2,,,70,64
51696,note_on,,,,,0,0,0,,,2,,,39,100
51696,note_on,,,,,0,0,0,,,2,,,46,100
51696,note_on,,,,,0,0,0,,,2,,,49,100
51696,note_on,,,,,0,0,0,,,2,,,68,100
51840,note_off,,,,,144,0,0,,,2,,,68,64
51840,note_off,,,,,0,0,0,,,2,,,49,64
51840,note_off,,,,,0,0,0,,,2,,,46,64
51840,note_off,,,,,0,0,0,,,2,,,39,64
51840,note_on,,,,,0,0,0,,,2,,,49,100
51840,note_on,,,,,0,0,0,,,2,,,46,100
51840,note_on,,,,,0,0,0,,,2,,,39,100
51984,note_off,,,,,144,0,0,,,2,,,39,64
51984,note_off,,,,,0,0,0,,,2,,,46,64
51984,note_off,,,,,0,0,0,,,2,,,49,64
51984,note_on,,,,,0,0,0,,,2,,,67,100
52128,note_off,,,,,144,0,0,,,2,,,67,64
52128,note_on,,,,,0,0,0,,,2,,,65,100
52128,note_on,,,,,0,0,0,,,2,,,49,100
52128,note_on,,,,,0,0,0,,,2,,,46,100
52128,note_on,,,,,0,0,0,,,2,,,39,100
52272,note_off,,,,,144,0,0,,,2,,,39,64
52272,note_off,,,,,0,0,0,,,2,,,46,64
52272,note_off,,,,,0,0,0,,,2,,,49,64
52272,note_off,,,,,0,0,0,,,2,,,65,64
52272,note_on,,,,,0,0,0,,,2,,,49,100
52272,note_on,,,,,0,0,0,,,2,,,46,100
52272,note_on,,,,,0,0,0,,,2,,,39,100
52416,note_off,,,,,144,0,0,,,2,,,39,64
52416,note_off,,,,,0,0,0,,,2,,,46,64
52416,note_off,,,,,0,0,0,,,2,,,49,64
52416,note_on,,,,,0,0,0,,,2,,,63,100
52560,note_off,,,,,144,0,0,,,2,,,63,64
52560,note_on,,,,,0,0,0,,,2,,,61,100
52560,note_on,,,,,0,0,0,,,2,,,49,100
52560,note_on,,,,,0,0,0,,,2,,,46,100
52560,note_on,,,,,0,0,0,,,2,,,39,100
52704,note_off,,,,,144,0,0,,,2,,,39,64
52704,note_off,,,,,0,0,0,,,2,,,46,64
52704,note_off,,,,,0,0,0,,,2,,,49,64
52704,note_off,,,,,0,0,0,,,2,,,61,64
52704,note_on,,,,,0,0,0,,,2,,,49,100
52704,note_on,,,,,0,0,0,,,2,,,46,100
52704,note_on,,,,,0,0,0,,,2,,,39,100
52848,note_off,,,,,144,0,0,,,2,,,39,64
52848,note_off,,,,,0,0,0,,,2,,,46,64
52848,note_off,,,,,0,0,0,,,2,,,49,64
52848,note_on,,,,,0,0,0,,,2,,,60,100
52992,note_off,,,,,144,0,0,,,2,,,60,64
52992,note_on,,,,,0,0,0,,,2,,,59,100
52992,note_on,,,,,0,0,0,,,2,,,49,100
52992,note_on,,,,,0,0,0,,,2,,,46,100
52992,note_on,,,,,0,0,0,,,2,,,39,100
53136,note_off,,,,,144,0,0,,,2,,,39,64
53136,note_off,,,,,0,0,0,,,2,,,46,64
53136,note_off,,,,,0,0,0,,,2,,,49,64
53136,note_off,,,,,0,0,0,,,2,,,59,64
53136,note_on,,,,,0,0,0,,,2,,,39,100
53136,note_on,,,,,0,0,0,,,2,,,46,100
53136,note_on,,,,,0,0,0,,,2,,,49,100
53280,note_off,,,,,144,0,0,,,2,,,49,64
53280,note_off,,,,,0,0,0,,,2,,,46,64
53280,note_off,,,,,0,0,0,,,2,,,39,64
53280,note_on,,,,,0,0,0,,,2,,,58,100
53424,note_off,,,,,144,0,0,,,2,,,58,64
53424,note_on,,,,,0,0,0,,,2,,,60,100
53424,note_on,,,,,0,0,0,,,2,,,49,100
53424,note_on,,,,,0,0,0,,,2,,,46,100
53424,note_on,,,,,0,0,0,,,2,,,39,100
53568,note_off,,,,,144,0,0,,,2,,,39,64
53568,note_off,,,,,0,0,0,,,2,,,46,64
53568,note_off,,,,,0,0,0,,,2,,,49,64
53568,note_off,,,,,0,0,0,,,2,,,60,64
53568,note_on,,,,,0,0,0,,,2,,,49,100
53568,note_on,,,,,0,0,0,,,2,,,46,100
53568,note_on,,,,,0,0,0,,,2,,,39,100
53712,note_off,,,,,144,0,0,,,2,,,39,64
53712,note_off,,,,,0,0,0,,,2,,,46,64
53712,note_off,,,,,0,0,0,,,2,,,49,64
53712,note_on,,,,,0,0,0,,,2,,,61,100
53856,note_off,,,,,144,0,0,,,2,,,61,64
53856,note_on,,,,,0,0,0,,,2,,,39,100
53856,note_on,,,,,0,0,0,,,2,,,46,100
53856,note_on,,,,,0,0,0,,,2,,,49,100
53856,note_on,,,,,0,0,0,,,2,,,55,100
54000,note_off,,,,,144,0,0,,,2,,,55,64
54000,note_off,,,,,0,0,0,,,2,,,49,64
54000,note_off,,,,,0,0,0,,,2,,,46,64
54000,note_off,,,,,0,0,0,,,2,,,39,64
54000,note_on,,,,,0,0,0,,,2,,,44,100
54000,note_on,,,,,0,0,0,,,2,,,51,100
54000,note_on,,,,,0,0,0,,,2,,,49,100
54000,note_on,,,,,0,0,0,,,2,,,55,100
54000,note_on,,,,,0,0,0,,,2,,,58,100
54288,note_off,,,,,288,0,0,,,2,,,58,64
54288,note_off,,,,,0,0,0,,,2,,,55,64
54288,note_off,,,,,0,0,0,,,2,,,49,64
54288,note_off,,,,,0,0,0,,,2,,,51,64
54288,note_off,,,,,0,0,0,,,2,,,44,64
54432,note_on,,,,,144,0,0,,,2,,,56,100
54432,note_on,,,,,0,0,0,,,2,,,51,100
54432,note_on,,,,,0,0,0,,,2,,,48,100
54432,note_on,,,,,0,0,0,,,2,,,44,100
54576,note_off,,,,,144,0,0,,,2,,,44,64
54576,note_off,,,,,0,0,0,,,2,,,48,64
54576,note_off,,,,,0,0,0,,,2,,,51,64
54576,note_off,,,,,0,0,0,,,2,,,56,64
54720,note_on,,,,,144,0,0,,,2,,,61,100
54720,note_on,,,,,0,0,0,,,2,,,58,100
54720,note_on,,,,,0,0,0,,,2,,,51,100
54864,note_off,,,,,144,0,0,,,2,,,51,64
54864,note_off,,,,,0,0,0,,,2,,,58,64
54864,note_off,,,,,0,0,0,,,2,,,61,64
54864,note_on,,,,,0,0,0,,,2,,,61,100
54864,note_on,,,,,0,0,0,,,2,,,58,100
54864,note_on,,,,,0,0,0,,,2,,,51,100
55008,note_off,,,,,144,0,0,,,2,,,51,64
55008,note_off,,,,,0,0,0,,,2,,,58,64
55008,note_off,,,,,0,0,0,,,2,,,61,64
55152,note_on,,,,,144,0,0,,,2,,,61,100
55152,note_on,,,,,0,0,0,,,2,,,58,100
55152,note_on,,,,,0,0,0,,,2,,,51,100
55296,note_off,,,,,144,0,0,,,2,,,51,64
55296,note_off,,,,,0,0,0,,,2,,,58,64
55296,note_off,,,,,0,0,0,,,2,,,61,64
55296,note_on,,,,,0,0,0,,,2,,,51,100
55296,note_on,,,,,0,0,0,,,2,,,58,100
55296,note_on,,,,,0,0,0,,,2,,,61,100
55440,note_off,,,,,144,0,0,,,2,,,61,64
55440,note_off,,,,,0,0,0,,,2,,,58,64
55440,note_off,,,,,0,0,0,,,2,,,51,64
55584,note_on,,,,,144,0,0,,,2,,,61,100
55584,note_on,,,,,0,0,0,,,2,,,58,100
55584,note_on,,,,,0,0,0,,,2,,,51,100
55728,note_off,,,,,144,0,0,,,2,,,51,64
55728,note_off,,,,,0,0,0,,,2,,,58,64
55728,note_off,,,,,0,0,0,,,2,,,61,64
55728,note_on,,,,,0,0,0,,,2,,,61,100
55728,note_on,,,,,0,0,0,,,2,,,58,100
55728,note_on,,,,,0,0,0,,,2,,,51,100
55872,note_off,,,,,144,0,0,,,2,,,51,64
55872,note_off,,,,,0,0,0,,,2,,,58,64
55872,note_off,,,,,0,0,0,,,2,,,61,64
55872,note_on,,,,,0,0,0,,,2,,,77,100
56016,note_off,,,,,144,0,0,,,2,,,77,64
56016,note_on,,,,,0,0,0,,,2,,,51,100
56016,note_on,,,,,0,0,0,,,2,,,58,100
56016,note_on,,,,,0,0,0,,,2,,,61,100
56016,note_on,,,,,0,0,0,,,2,,,75,100
56160,note_off,,,,,144,0,0,,,2,,,75,64
56160,note_off,,,,,0,0,0,,,2,,,61,64
56160,note_off,,,,,0,0,0,,,2,,,58,64
56160,note_off,,,,,0,0,0,,,2,,,51,64
56160,note_on,,,,,0,0,0,,,2,,,61,100
56160,note_on,,,,,0,0,0,,,2,,,58,100
56160,note_on,,,,,0,0,0,,,2,,,51,100
56304,note_off,,,,,144,0,0,,,2,,,51,64
56304,note_off,,,,,0,0,0,,,2,,,58,64
56304,note_off,,,,,0,0,0,,,2,,,61,64
56304,note_on,,,,,0,0,0,,,2,,,73,100
56448,note_off,,,,,144,0,0,,,2,,,73,64
56448,note_on,,,,,0,0,0,,,2,,,72,100
56448,note_on,,,,,0,0,0,,,2,,,61,100
56448,note_on,,,,,0,0,0,,,2,,,58,100
56448,note_on,,,,,0,0,0,,,2,,,51,100
56592,note_off,,,,,144,0,0,,,2,,,51,64
56592,note_off,,,,,0,0,0,,,2,,,58,64
56592,note_off,,,,,0,0,0,,,2,,,61,64
56592,note_off,,,,,0,0,0,,,2,,,72,64
56592,note_on,,,,,0,0,0,,,2,,,61,100
56592,note_on,,,,,0,0,0,,,2,,,58,100
56592,note_on,,,,,0,0,0,,,2,,,51,100
56736,note_off,,,,,144,0,0,,,2,,,51,64
56736,note_off,,,,,0,0,0,,,2,,,58,64
56736,note_off,,,,,0,0,0,,,2,,,61,64
56736,note_on,,,,,0,0,0,,,2,,,70,100
56880,note_off,,,,,144,0,0,,,2,,,70,64
56880,note_on,,,,,0,0,0,,,2,,,68,100
56880,note_on,,,,,0,0,0,,,2,,,61,100
56880,note_on,,,,,0,0,0,,,2,,,58,100
56880,note_on,,,,,0,0,0,,,2,,,51,100
57024,note_off,,,,,144,0,0,,,2,,,51,64
57024,note_off,,,,,0,0,0,,,2,,,58,64
57024,note_off,,,,,0,0,0,,,2,,,61,64
57024,note_off,,,,,0,0,0,,,2,,,68,64
57024,note_on,,,,,0,0,0,,,2,,,61,100
57024,note_on,,,,,0,0,0,,,2,,,58,100
57024,note_on,,,,,0,0,0,,,2,,,51,100
57168,note_off,,,,,144,0,0,,,2,,,51,64
57168,note_off,,,,,0,0,0,,,2,,,58,64
57168,note_off,,,,,0,0,0,,,2,,,61,64
57168,note_on,,,,,0,0,0,,,2,,,67,100
57312,note_off,,,,,144,0,0,,,2,,,67,64
57312,note_on,,,,,0,0,0,,,2,,,68,100
57312,note_on,,,,,0,0,0,,,2,,,61,100
57312,note_on,,,,,0,0,0,,,2,,,58,100
57312,note_on,,,,,0,0,0,,,2,,,51,100
57456,note_off,,,,,144,0,0,,,2,,,51,64
57456,note_off,,,,,0,0,0,,,2,,,58,64
57456,note_off,,,,,0,0,0,,,2,,,61,64
57456,note_off,,,,,0,0,0,,,2,,,68,64
57456,note_on,,,,,0,0,0,,,2,,,51,100
57456,note_on,,,,,0,0,0,,,2,,,58,100
57456,note_on,,,,,0,0,0,,,2,,,61,100
57600,note_off,,,,,144,0,0,,,2,,,61,64
57600,note_off,,,,,0,0,0,,,2,,,58,64
57600,note_off,,,,,0,0,0,,,2,,,51,64
57600,note_on,,,,,0,0,0,,,2,,,70,100
57744,note_off,,,,,144,0,0,,,2,,,70,64
57744,note_on,,,,,0,0,0,,,2,,,72,100
57744,note_on,,,,,0,0,0,,,2,,,61,100
57744,note_on,,,,,0,0,0,,,2,,,58,100
57744,note_on,,,,,0,0,0,,,2,,,51,100
57888,note_off,,,,,144,0,0,,,2,,,51,64
57888,note_off,,,,,0,0,0,,,2,,,58,64
57888,note_off,,,,,0,0,0,,,2,,,61,64
57888,note_off,,,,,0,0,0,,,2,,,72,64
57888,note_on,,,,,0,0,0,,,2,,,61,100
57888,note_on,,,,,0,0,0,,,2,,,58,100
57888,note_on,,,,,0,0,0,,,2,,,51,100
58032,note_off,,,,,144,0,0,,,2,,,51,64
58032,note_off,,,,,0,0,0,,,2,,,58,64
58032,note_off,,,,,0,0,0,,,2,,,61,64
58032,note_on,,,,,0,0,0,,,2,,,73,100
58176,note_off,,,,,144,0,0,,,2,,,73,64
58176,note_on,,,,,0,0,0,,,2,,,51,100
58176,note_on,,,,,0,0,0,,,2,,,58,100
58176,note_on,,,,,0,0,0,,,2,,,61,100
58176,note_on,,,,,0,0,0,,,2,,,75,100
58320,note_off,,,,,144,0,0,,,2,,,75,64
58320,note_off,,,,,0,0,0,,,2,,,61,64
58320,note_off,,,,,0,0,0,,,2,,,58,64
58320,note_off,,,,,0,0,0,,,2,,,51,64
58320,note_on,,,,,0,0,0,,,2,,,61,100
58320,note_on,,,,,0,0,0,,,2,,,58,100
58320,note_on,,,,,0,0,0,,,2,,,51,100
58464,note_off,,,,,144,0,0,,,2,,,51,64
58464,note_off,,,,,0,0,0,,,2,,,58,64
58464,note_off,,,,,0,0,0,,,2,,,61,64
58464,note_on,,,,,0,0,0,,,2,,,77,100
58608,note_off,,,,,144,0,0,,,2,,,77,64
58608,note_on,,,,,0,0,0,,,2,,,75,100
58608,note_on,,,,,0,0,0,,,2,,,61,100
58608,note_on,,,,,0,0,0,,,2,,,58,100
58608,note_on,,,,,0,0,0,,,2,,,51,100
58752,note_off,,,,,144,0,0,,,2,,,51,64
58752,note_off,,,,,0,0,0,,,2,,,58,64
58752,note_off,,,,,0,0,0,,,2,,,61,64
58752,note_off,,,,,0,0,0,,,2,,,75,64
58752,note_on,,,,,0,0,0,,,2,,,61,100
58752,note_on,,,,,0,0,0,,,2,,,58,100
58752,note_on,,,,,0,0,0,,,2,,,51,100
58896,note_off,,,,,144,0,0,,,2,,,51,64
58896,note_off,,,,,0,0,0,,,2,,,58,64
58896,note_off,,,,,0,0,0,,,2,,,61,64
58896,note_on,,,,,0,0,0,,,2,,,73,100
59040,note_off,,,,,144,0,0,,,2,,,73,64
59040,note_on,,,,,0,0,0,,,2,,,72,100
59040,note_on,,,,,0,0,0,,,2,,,61,100
59040,note_on,,,,,0,0,0,,,2,,,58,100
59040,note_on,,,,,0,0,0,,,2,,,51,100
59184,note_off,,,,,144,0,0,,,2,,,51,64
59184,note_off,,,,,0,0,0,,,2,,,58,64
59184,note_off,,,,,0,0,0,,,2,,,61,64
59184,note_off,,,,,0,0,0,,,2,,,72,64
59184,note_on,,,,,0,0,0,,,2,,,49,100
59184,note_on,,,,,0,0,0,,,2,,,46,100
59184,note_on,,,,,0,0,0,,,2,,,39,100
59328,note_off,,,,,144,0,0,,,2,,,39,64
59328,note_off,,,,,0,0,0,,,2,,,46,64
59328,note_off,,,,,0,0,0,,,2,,,49,64
59328,note_on,,,,,0,0,0,,,2,,,70,100
59472,note_off,,,,,144,0,0,,,2,,,70,64
59472,note_on,,,,,0,0,0,,,2,,,68,100
59472,note_on,,,,,0,0,0,,,2,,,49,100
59472,note_on,,,,,0,0,0,,,2,,,46,100
59472,note_on,,,,,0,0,0,,,2,,,39,100
59616,note_off,,,,,144,0,0,,,2,,,39,64
59616,note_off,,,,,0,0,0,,,2,,,46,64
59616,note_off,,,,,0,0,0,,,2,,,49,64
59616,note_off,,,,,0,0,0,,,2,,,68,64
59616,note_on,,,,,0,0,0,,,2,,,39,100
59616,note_on,,,,,0,0,0,,,2,,,46,100
59616,note_on,,,,,0,0,0,,,2,,,49,100
59760,note_off,,,,,144,0,0,,,2,,,49,64
59760,note_off,,,,,0,0,0,,,2,,,46,64
59760,note_off,,,,,0,0,0,,,2,,,39,64
59760,note_on,,,,,0,0,0,,,2,,,67,100
59904,note_off,,,,,144,0,0,,,2,,,67,64
59904,note_on,,,,,0,0,0,,,2,,,65,100
59904,note_on,,,,,0,0,0,,,2,,,49,100
59904,note_on,,,,,0,0,0,,,2,,,46,100
59904,note_on,,,,,0,0,0,,,2,,,39,100
60048,note_off,,,,,144,0,0,,,2,,,39,64
60048,note_off,,,,,0,0,0,,,2,,,46,64
60048,note_off,,,,,0,0,0,,,2,,,49,64
60048,note_off,,,,,0,0,0,,,2,,,65,64
60048,note_on,,,,,0,0,0,,,2,,,49,100
60048,note_on,,,,,0,0,0,,,2,,,46,100
60048,note_on,,,,,0,0,0,,,2,,,39,100
60192,note_off,,,,,144,0,0,,,2,,,39,64
60192,note_off,,,,,0,0,0,,,2,,,46,64
60192,note_off,,,,,0,0,0,,,2,,,49,64
60192,note_on,,,,,0,0,0,,,2,,,63,100
60336,note_off,,,,,144,0,0,,,2,,,63,64
60336,note_on,,,,,0,0,0,,,2,,,39,100
60336,note_on,,,,,0,0,0,,,2,,,46,100
60336,note_on,,,,,0,0,0,,,2,,,49,100
60336,note_on,,,,,0,0,0,,,2,,,61,100
60480,note_off,,,,,144,0,0,,,2,,,61,64
60480,note_off,,,,,0,0,0,,,2,,,49,64
60480,note_off,,,,,0,0,0,,,2,,,46,64
60480,note_off,,,,,0,0,0,,,2,,,39,64
60480,note_on,,,,,0,0,0,,,2,,,49,100
60480,note_on,,,,,0,0,0,,,2,,,46,100
60480,note_on,,,,,0,0,0,,,2,,,39,100
60624,note_off,,,,,144,0,0,,,2,,,39,64
60624,note_off,,,,,0,0,0,,,2,,,46,64
60624,note_off,,,,,0,0,0,,,2,,,49,64
60624,note_on,,,,,0,0,0,,,2,,,60,100
60768,note_off,,,,,144,0,0,,,2,,,60,64
60768,note_on,,,,,0,0,0,,,2,,,59,100
60768,note_on,,,,,0,0,0,,,2,,,49,100
60768,note_on,,,,,0,0,0,,,2,,,46,100
60768,note_on,,,,,0,0,0,,,2,,,39,100
60912,note_off,,,,,144,0,0,,,2,,,39,64
60912,note_off,,,,,0,0,0,,,2,,,46,64
60912,note_off,,,,,0,0,0,,,2,,,49,64
60912,note_off,,,,,0,0,0,,,2,,,59,64
60912,note_on,,,,,0,0,0,,,2,,,49,100
60912,note_on,,,,,0,0,0,,,2,,,46,100
60912,note_on,,,,,0,0,0,,,2,,,39,100
61056,note_off,,,,,144,0,0,,,2,,,39,64
61056,note_off,,,,,0,0,0,,,2,,,46,64
61056,note_off,,,,,0,0,0,,,2,,,49,64
61056,note_on,,,,,0,0,0,,,2,,,58,100
61200,note_off,,,,,144,0,0,,,2,,,58,64
61200,note_on,,,,,0,0,0,,,2,,,60,100
61200,note_on,,,,,0,0,0,,,2,,,49,100
61200,note_on,,,,,0,0,0,,,2,,,46,100
61200,note_on,,,,,0,0,0,,,2,,,39,100
61344,note_off,,,,,144,0,0,,,2,,,39,64
61344,note_off,,,,,0,0,0,,,2,,,46,64
61344,note_off,,,,,0,0,0,,,2,,,49,64
61344,note_off,,,,,0,0,0,,,2,,,60,64
61344,note_on,,,,,0,0,0,,,2,,,49,100
61344,note_on,,,,,0,0,0,,,2,,,46,100
61344,note_on,,,,,0,0,0,,,2,,,39,100
61488,note_off,,,,,144,0,0,,,2,,,39,64
61488,note_off,,,,,0,0,0,,,2,,,46,64
61488,note_off,,,,,0,0,0,,,2,,,49,64
61488,note_on,,,,,0,0,0,,,2,,,61,100
61632,note_off,,,,,144,0,0,,,2,,,61,64
61632,note_on,,,,,0,0,0,,,2,,,55,100
61632,note_on,,,,,0,0,0,,,2,,,49,100
61632,note_on,,,,,0,0,0,,,2,,,46,100
61632,note_on,,,,,0,0,0,,,2,,,39,100
61776,note_off,,,,,144,0,0,,,2,,,39,64
61776,note_off,,,,,0,0,0,,,2,,,46,64
61776,note_off,,,,,0,0,0,,,2,,,49,64
61776,note_off,,,,,0,0,0,,,2,,,55,64
61776,note_on,,,,,0,0,0,,,2,,,56,100
61776,note_on,,,,,0,0,0,,,2,,,48,100
61776,note_on,,,,,0,0,0,,,2,,,44,100
61920,note_off,,,,,144,0,0,,,2,,,44,64
61920,note_off,,,,,0,0,0,,,2,,,48,64
61920,note_off,,,,,0,0,0,,,2,,,56,64
61920,note_on,,,,,0,0,0,,,2,,,54,100
61920,note_on,,,,,0,0,0,,,2,,,42,100
62064,note_off,,,,,144,0,0,,,2,,,42,64
62064,note_off,,,,,0,0,0,,,2,,,54,64
62064,note_on,,,,,0,0,0,,,2,,,55,100
62064,note_on,,,,,0,0,0,,,2,,,43,100
62208,note_off,,,,,144,0,0,,,2,,,43,64
62208,note_off,,,,,0,0,0,,,2,,,55,64
62208,note_on,,,,,0,0,0,,,2,,,48,100
62208,note_on,,,,,0,0,0,,,2,,,36,100
62352,note_off,,,,,144,0,0,,,2,,,36,64
62352,note_off,,,,,0,0,0,,,2,,,48,64
62352,note_on,,,,,0,0,0,,,2,,,51,100
62352,note_on,,,,,0,0,0,,,2,,,39,100
62496,note_off,,,,,144,0,0,,,2,,,39,64
62496,note_off,,,,,0,0,0,,,2,,,51,64
62496,note_on,,,,,0,0,0,,,2,,,43,100
62496,note_on,,,,,0,0,0,,,2,,,55,100
62640,note_off,,,,,144,0,0,,,2,,,55,64
62640,note_off,,,,,0,0,0,,,2,,,43,64
62644,note_on,,,,,4,0,0,,,2,,,48,100
62644,note_on,,,,,0,0,0,,,2,,,60,100
62788,note_off,,,,,144,0,0,,,2,,,60,64
62788,note_off,,,,,0,0,0,,,2,,,48,64
62788,note_on,,,,,0,0,0,,,2,,,51,100
62788,note_on,,,,,0,0,0,,,2,,,63,100
62932,note_off,,,,,144,0,0,,,2,,,63,64
62932,note_off,,,,,0,0,0,,,2,,,51,64
62932,note_on,,,,,0,0,0,,,2,,,55,100
62932,note_on,,,,,0,0,0,,,2,,,67,100
63076,note_off,,,,,144,0,0,,,2,,,67,64
63076,note_off,,,,,0,0,0,,,2,,,55,64
63076,note_on,,,,,0,0,0,,,2,,,60,100
63076,note_on,,,,,0,0,0,,,2,,,79,100
63220,note_off,,,,,144,0,0,,,2,,,79,64
63220,note_off,,,,,0,0,0,,,2,,,60,64
63220,note_on,,,,,0,0,0,,,2,,,75,100
63220,note_on,,,,,0,0,0,,,2,,,63,100
63364,note_off,,,,,144,0,0,,,2,,,63,64
63364,note_off,,,,,0,0,0,,,2,,,75,64
63364,note_on,,,,,0,0,0,,,2,,,67,100
63364,note_on,,,,,0,0,0,,,2,,,72,100
63508,note_off,,,,,144,0,0,,,2,,,72,64
63508,note_off,,,,,0,0,0,,,2,,,67,64
63508,note_on,,,,,0,0,0,,,2,,,59,100
63508,note_on,,,,,0,0,0,,,2,,,79,100
63652,note_off,,,,,144,0,0,,,2,,,79,64
63652,note_off,,,,,0,0,0,,,2,,,59,64
63652,note_on,,,,,0,0,0,,,2,,,62,100
63652,note_on,,,,,0,0,0,,,2,,,74,100
63796,note_off,,,,,144,0,0,,,2,,,74,64
63796,note_off,,,,,0,0,0,,,2,,,62,64
63796,note_on,,,,,0,0,0,,,2,,,67,100
63796,note_on,,,,,0,0,0,,,2,,,71,100
63940,note_off,,,,,144,0,0,,,2,,,71,64
63940,note_off,,,,,0,0,0,,,2,,,67,64
63940,note_on,,,,,0,0,0,,,2,,,67,100
63940,note_on,,,,,0,0,0,,,2,,,47,100
64080,note_on,,,,,140,0,0,,,2,,,62,100
64084,note_off,,,,,4,0,0,,,2,,,47,64
64084,note_off,,,,,0,0,0,,,2,,,67,64
64084,note_on,,,,,0,0,0,,,2,,,50,100
64224,note_off,,,,,140,0,0,,,2,,,62,64
64228,note_off,,,,,4,0,0,,,2,,,50,64
64228,note_on,,,,,0,0,0,,,2,,,55,100
64228,note_on,,,,,0,0,0,,,2,,,59,100
64372,note_off,,,,,144,0,0,,,2,,,59,64
64372,note_off,,,,,0,0,0,,,2,,,55,64
64372,note_on,,,,,0,0,0,,,2,,,67,100
64372,note_on,,,,,0,0,0,,,2,,,46,100
64516,note_off,,,,,144,0,0,,,2,,,46,64
64516,note_off,,,,,0,0,0,,,2,,,67,64
64516,note_on,,,,,0,0,0,,,2,,,62,100
64516,note_on,,,,,0,0,0,,,2,,,50,100
64660,note_off,,,,,144,0,0,,,2,,,50,64
64660,note_off,,,,,0,0,0,,,2,,,62,64
64660,note_on,,,,,0,0,0,,,2,,,55,100
64660,note_on,,,,,0,0,0,,,2,,,58,100
64804,note_off,,,,,144,0,0,,,2,,,58,64
64804,note_off,,,,,0,0,0,,,2,,,55,64
64804,note_on,,,,,0,0,0,,,2,,,58,100
64804,note_on,,,,,0,0,0,,,2,,,79,100
64948,note_off,,,,,144,0,0,,,2,,,79,64
64948,note_off,,,,,0,0,0,,,2,,,58,64
64948,note_on,,,,,0,0,0,,,2,,,62,100
64948,note_on,,,,,0,0,0,,,2,,,74,100
65092,note_off,,,,,144,0,0,,,2,,,74,64
65092,note_off,,,,,0,0,0,,,2,,,62,64
65092,note_on,,,,,0,0,0,,,2,,,67,100
65092,note_on,,,,,0,0,0,,,2,,,70,100
65236,note_off,,,,,144,0,0,,,2,,,70,64
65236,note_off,,,,,0,0,0,,,2,,,67,64
65236,note_on,,,,,0,0,0,,,2,,,77,100
65236,note_on,,,,,0,0,0,,,2,,,57,100
65380,note_off,,,,,144,0,0,,,2,,,57,64
65380,note_off,,,,,0,0,0,,,2,,,77,64
65380,note_on,,,,,0,0,0,,,2,,,60,100
65380,note_on,,,,,0,0,0,,,2,,,72,100
65524,note_off,,,,,144,0,0,,,2,,,72,64
65524,note_off,,,,,0,0,0,,,2,,,60,64
65524,note_on,,,,,0,0,0,,,2,,,69,100
65524,note_on,,,,,0,0,0,,,2,,,65,100
65668,note_off,,,,,144,0,0,,,2,,,65,64
65668,note_off,,,,,0,0,0,,,2,,,69,64
65668,note_on,,,,,0,0,0,,,2,,,45,100
65668,note_on,,,,,0,0,0,,,2,,,65,100
65812,note_off,,,,,144,0,0,,,2,,,65,64
65812,note_off,,,,,0,0,0,,,2,,,45,64
65812,note_on,,,,,0,0,0,,,2,,,48,100
65812,note_on,,,,,0,0,0,,,2,,,60,100
65956,note_off,,,,,144,0,0,,,2,,,60,64
65956,note_off,,,,,0,0,0,,,2,,,48,64
65956,note_on,,,,,0,0,0,,,2,,,53,100
65956,note_on,,,,,0,0,0,,,2,,,57,100
66100,note_off,,,,,144,0,0,,,2,,,57,64
66100,note_off,,,,,0,0,0,,,2,,,53,64
66100,note_on,,,,,0,0,0,,,2,,,65,100
66100,note_on,,,,,0,0,0,,,2,,,44,100
66244,note_off,,,,,144,0,0,,,2,,,44,64
66244,note_off,,,,,0,0,0,,,2,,,65,64
66244,note_on,,,,,0,0,0,,,2,,,48,100
66244,note_on,,,,,0,0,0,,,2,,,60,100
66388,note_off,,,,,144,0,0,,,2,,,60,64
66388,note_off,,,,,0,0,0,,,2,,,48,64
66388,note_on,,,,,0,0,0,,,2,,,53,100
66388,note_on,,,,,0,0,0,,,2,,,56,100
66532,note_off,,,,,144,0,0,,,2,,,56,64
66532,note_off,,,,,0,0,0,,,2,,,53,64
66532,note_on,,,,,0,0,0,,,2,,,77,100
66532,note_on,,,,,0,0,0,,,2,,,56,100
66676,note_off,,,,,144,0,0,,,2,,,56,64
66676,note_off,,,,,0,0,0,,,2,,,77,64
66676,note_on,,,,,0,0,0,,,2,,,72,100
66676,note_on,,,,,0,0,0,,,2,,,60,100
66820,note_off,,,,,144,0,0,,,2,,,60,64
66820,note_off,,,,,0,0,0,,,2,,,72,64
66820,note_on,,,,,0,0,0,,,2,,,65,100
66820,note_on,,,,,0,0,0,,,2,,,68,100
66964,note_off,,,,,144,0,0,,,2,,,68,64
66964,note_off,,,,,0,0,0,,,2,,,65,64
66964,note_on,,,,,0,0,0,,,2,,,55,100
66964,note_on,,,,,0,0,0,,,2,,,75,100
67108,note_off,,,,,144,0,0,,,2,,,75,64
67108,note_off,,,,,0,0,0,,,2,,,55,64
67108,note_on,,,,,0,0,0,,,2,,,60,100
67108,note_on,,,,,0,0,0,,,2,,,72,100
67252,note_off,,,,,144,0,0,,,2,,,72,64
67252,note_off,,,,,0,0,0,,,2,,,60,64
67252,note_on,,,,,0,0,0,,,2,,,63,100
67252,note_on,,,,,0,0,0,,,2,,,67,100
67396,note_off,,,,,144,0,0,,,2,,,67,64
67396,note_off,,,,,0,0,0,,,2,,,63,64
67396,note_on,,,,,0,0,0,,,2,,,75,100
67396,note_on,,,,,0,0,0,,,2,,,63,100
67396,note_on,,,,,0,0,0,,,2,,,36,100
67396,note_on,,,,,0,0,0,,,2,,,48,100
67540,note_off,,,,,144,0,0,,,2,,,48,64
67540,note_off,,,,,0,0,0,,,2,,,36,64
67540,note_off,,,,,0,0,0,,,2,,,63,64
67540,note_off,,,,,0,0,0,,,2,,,75,64
67540,note_on,,,,,0,0,0,,,2,,,43,100
67540,note_on,,,,,0,0,0,,,2,,,69,100
67684,note_off,,,,,144,0,0,,,2,,,69,64
67684,note_off,,,,,0,0,0,,,2,,,43,64
67684,note_on,,,,,0,0,0,,,2,,,67,100
67684,note_on,,,,,0,0,0,,,2,,,45,100
67828,note_off,,,,,144,0,0,,,2,,,45,64
67828,note_off,,,,,0,0,0,,,2,,,67,64
67828,note_on,,,,,0,0,0,,,2,,,74,100
67828,note_on,,,,,0,0,0,,,2,,,62,100
67828,note_on,,,,,0,0,0,,,2,,,38,100
67828,note_on,,,,,0,0,0,,,2,,,50,100
67972,note_off,,,,,144,0,0,,,2,,,50,64
67972,note_off,,,,,0,0,0,,,2,,,38,64
67972,note_off,,,,,0,0,0,,,2,,,62,64
67972,note_off,,,,,0,0,0,,,2,,,74,64
67972,note_on,,,,,0,0,0,,,2,,,70,100
67972,note_on,,,,,0,0,0,,,2,,,43,100
68116,note_off,,,,,144,0,0,,,2,,,43,64
68116,note_off,,,,,0,0,0,,,2,,,70,64
68116,note_on,,,,,0,0,0,,,2,,,67,100
68116,note_on,,,,,0,0,0,,,2,,,46,100
68260,note_off,,,,,144,0,0,,,2,,,46,64
68260,note_off,,,,,0,0,0,,,2,,,67,64
68260,note_on,,,,,0,0,0,,,2,,,74,100
68260,note_on,,,,,0,0,0,,,2,,,62,100
68260,note_on,,,,,0,0,0,,,2,,,50,100
68260,note_on,,,,,0,0,0,,,2,,,38,100
68404,note_off,,,,,144,0,0,,,2,,,38,64
68404,note_off,,,,,0,0,0,,,2,,,50,64
68404,note_off,,,,,0,0,0,,,2,,,62,64
68404,note_off,,,,,0,0,0,,,2,,,74,64
68404,note_on,,,,,0,0,0,,,2,,,42,100
68404,note_on,,,,,0,0,0,,,2,,,69,100
68548,note_off,,,,,144,0,0,,,2,,,69,64
68548,note_off,,,,,0,0,0,,,2,,,42,64
68548,note_on,,,,,0,0,0,,,2,,,44,100
68548,note_on,,,,,0,0,0,,,2,,,66,100
68692,note_off,,,,,144,0,0,,,2,,,66,64
68692,note_off,,,,,0,0,0,,,2,,,44,64
68692,note_on,,,,,0,0,0,,,2,,,31,100
68692,note_on,,,,,0,0,0,,,2,,,43,100
68692,note_on,,,,,0,0,0,,,2,,,67,100
68836,note_off,,,,,144,0,0,,,2,,,67,64
68836,note_off,,,,,0,0,0,,,2,,,43,64
68836,note_off,,,,,0,0,0,,,2,,,31,64
68836,note_on,,,,,0,0,0,,,2,,,39,100
68980,note_off,,,,,144,0,0,,,2,,,39,64
68980,note_on,,,,,0,0,0,,,2,,,38,100
69124,note_off,,,,,144,0,0,,,2,,,38,64
69124,note_on,,,,,0,0,0,,,2,,,36,100
69196,note_on,,,,,72,0,0,,,2,,,48,100
69268,note_off,,,,,72,0,0,,,2,,,36,64
69268,note_on,,,,,0,0,0,,,2,,,39,100
69340,note_off,,,,,72,0,0,,,2,,,48,64
69340,note_on,,,,,0,0,0,,,2,,,51,100
69412,note_off,,,,,72,0,0,,,2,,,39,64
69412,note_on,,,,,0,0,0,,,2,,,43,100
69484,note_off,,,,,72,0,0,,,2,,,51,64
69484,note_on,,,,,0,0,0,,,2,,,55,100
69556,note_off,,,,,72,0,0,,,2,,,43,64
69556,note_on,,,,,0,0,0,,,2,,,48,100
69628,note_off,,,,,72,0,0,,,2,,,55,64
69628,note_on,,,,,0,0,0,,,2,,,60,100
69700,note_off,,,,,72,0,0,,,2,,,48,64
69700,note_on,,,,,0,0,0,,,2,,,51,100
69772,note_off,,,,,72,0,0,,,2,,,60,64
69772,note_on,,,,,0,0,0,,,2,,,63,100
69844,note_off,,,,,72,0,0,,,2,,,51,64
69844,note_on,,,,,0,0,0,,,2,,,55,100
69916,note_off,,,,,72,0,0,,,2,,,63,64
69916,note_on,,,,,0,0,0,,,2,,,67,100
69988,note_off,,,,,72,0,0,,,2,,,67,64
69988,note_off,,,,,0,0,0,,,2,,,55,64
69988,note_on,,,,,0,0,0,,,2,,,60,100
70060,note_on,,,,,72,0,0,,,2,,,79,100
70132,note_off,,,,,72,0,0,,,2,,,60,64
70132,note_on,,,,,0,0,0,,,2,,,63,100
70204,note_off,,,,,72,0,0,,,2,,,79,64
70204,note_on,,,,,0,0,0,,,2,,,75,100
70276,note_off,,,,,72,0,0,,,2,,,63,64
70276,note_on,,,,,0,0,0,,,2,,,67,100
70348,note_off,,,,,72,0,0,,,2,,,75,64
70348,note_on,,,,,0,0,0,,,2,,,72,100
70420,note_off,,,,,72,0,0,,,2,,,72,64
70420,note_off,,,,,0,0,0,,,2,,,67,64
70420,note_on,,,,,0,0,0,,,2,,,59,100
70492,note_on,,,,,72,0,0,,,2,,,79,100
70564,note_off,,,,,72,0,0,,,2,,,59,64
70564,note_on,,,,,0,0,0,,,2,,,62,100
70636,note_off,,,,,72,0,0,,,2,,,79,64
70636,note_on,,,,,0,0,0,,,2,,,74,100
70708,note_off,,,,,72,0,0,,,2,,,62,64
70708,note_on,,,,,0,0,0,,,2,,,67,100
70780,note_off,,,,,72,0,0,,,2,,,74,64
70780,note_on,,,,,0,0,0,,,2,,,71,100
70852,note_off,,,,,72,0,0,,,2,,,71,64
70852,note_off,,,,,0,0,0,,,2,,,67,64
70852,note_on,,,,,0,0,0,,,2,,,47,100
70924,note_on,,,,,72,0,0,,,2,,,67,100
70996,note_off,,,,,72,0,0,,,2,,,47,64
70996,note_on,,,,,0,0,0,,,2,,,50,100
71068,note_off,,,,,72,0,0,,,2,,,67,64
71068,note_on,,,,,0,0,0,,,2,,,62,100
71140,note_off,,,,,72,0,0,,,2,,,50,64
71140,note_on,,,,,0,0,0,,,2,,,55,100
71212,note_off,,,,,72,0,0,,,2,,,62,64
71212,note_on,,,,,0,0,0,,,2,,,59,100
71284,note_off,,,,,72,0,0,,,2,,,55,64
71284,note_off,,,,,0,0,0,,,2,,,59,64
71284,note_on,,,,,0,0,0,,,2,,,46,100
71356,note_on,,,,,72,0,0,,,2,,,67,100
71428,note_off,,,,,72,0,0,,,2,,,46,64
71428,note_on,,,,,0,0,0,,,2,,,50,100
71500,note_off,,,,,72,0,0,,,2,,,67,64
71500,note_on,,,,,0,0,0,,,2,,,62,100
71572,note_off,,,,,72,0,0,,,2,,,50,64
71572,note_on,,,,,0,0,0,,,2,,,55,100
71644,note_off,,,,,72,0,0,,,2,,,62,64
71644,note_on,,,,,0,0,0,,,2,,,58,100
71716,note_off,,,,,72,0,0,,,2,,,58,64
71716,note_off,,,,,0,0,0,,,2,,,55,64
71716,note_on,,,,,0,0,0,,,2,,,58,100
71788,note_on,,,,,72,0,0,,,2,,,79,100
71860,note_off,,,,,72,0,0,,,2,,,58,64
71860,note_on,,,,,0,0,0,,,2,,,62,100
71932,note_off,,,,,72,0,0,,,2,,,79,64
71932,note_on,,,,,0,0,0,,,2,,,74,100
72004,note_off,,,,,72,0,0,,,2,,,62,64
72004,note_on,,,,,0,0,0,,,2,,,67,100
72076,note_off,,,,,72,0,0,,,2,,,74,64
72076,note_on,,,,,0,0,0,,,2,,,70,100
72148,note_off,,,,,72,0,0,,,2,,,70,64
72148,note_off,,,,,0,0,0,,,2,,,67,64
72148,note_on,,,,,0,0,0,,,2,,,57,100
72220,note_on,,,,,72,0,0,,,2,,,77,100
72292,note_off,,,,,72,0,0,,,2,,,57,64
72292,note_on,,,,,0,0,0,,,2,,,60,100
72364,note_off,,,,,72,0,0,,,2,,,77,64
72364,note_on,,,,,0,0,0,,,2,,,72,100
72436,note_off,,,,,72,0,0,,,2,,,60,64
72436,note_on,,,,,0,0,0,,,2,,,65,100
72508,note_off,,,,,72,0,0,,,2,,,72,64
72508,note_on,,,,,0,0,0,,,2,,,69,100
72580,note_off,,,,,72,0,0,,,2,,,69,64
72580,note_off,,,,,0,0,0,,,2,,,65,64
72580,note_on,,,,,0,0,0,,,2,,,45,100
72652,note_on,,,,,72,0,0,,,2,,,65,100
72724,note_off,,,,,72,0,0,,,2,,,45,64
72724,note_on,,,,,0,0,0,,,2,,,48,100
72796,note_off,,,,,72,0,0,,,2,,,65,64
72796,note_on,,,,,0,0,0,,,2,,,60,100
72868,note_off,,,,,72,0,0,,,2,,,48,64
72868,note_on,,,,,0,0,0,,,2,,,53,100
72940,note_off,,,,,72,0,0,,,2,,,60,64
72940,note_on,,,,,0,0,0,,,2,,,57,100
73012,note_off,,,,,72,0,0,,,2,,,57,64
73012,note_off,,,,,0,0,0,,,2,,,53,64
73012,note_on,,,,,0,0,0,,,2,,,44,100
73084,note_on,,,,,72,0,0,,,2,,,65,100
73156,note_off,,,,,72,0,0,,,2,,,44,64
73156,note_on,,,,,0,0,0,,,2,,,48,100
73228,note_off,,,,,72,0,0,,,2,,,65,64
73228,note_on,,,,,0,0,0,,,2,,,60,100
73300,note_off,,,,,72,0,0,,,2,,,48,64
73300,note_on,,,,,0,0,0,,,2,,,53,100
73372,note_off,,,,,72,0,0,,,2,,,60,64
73372,note_on,,,,,0,0,0,,,2,,,56,100
73444,note_off,,,,,72,0,0,,,2,,,53,64
73444,note_off,,,,,0,0,0,,,2,,,56,64
73444,note_on,,,,,0,0,0,,,2,,,56,100
73516,note_on,,,,,72,0,0,,,2,,,77,100
73588,note_off,,,,,72,0,0,,,2,,,56,64
73588,note_on,,,,,0,0,0,,,2,,,60,100
73660,note_off,,,,,72,0,0,,,2,,,77,64
73660,note_on,,,,,0,0,0,,,2,,,72,100
73732,note_off,,,,,72,0,0,,,2,,,60,64
73732,note_on,,,,,0,0,0,,,2,,,65,100
73804,note_off,,,,,72,0,0,,,2,,,72,64
73804,note_on,,,,,0,0,0,,,2,,,68,100
73876,note_off,,,,,72,0,0,,,2,,,68,64
73876,note_off,,,,,0,0,0,,,2,,,65,64
73876,note_on,,,,,0,0,0,,,2,,,55,100
73948,note_on,,,,,72,0,0,,,2,,,75,100
74020,note_off,,,,,72,0,0,,,2,,,55,64
74020,note_on,,,,,0,0,0,,,2,,,60,100
74092,note_off,,,,,72,0,0,,,2,,,75,64
74092,note_on,,,,,0,0,0,,,2,,,72,100
74164,note_off,,,,,72,0,0,,,2,,,60,64
74164,note_on,,,,,0,0,0,,,2,,,63,100
74236,note_off,,,,,72,0,0,,,2,,,72,64
74236,note_on,,,,,0,0,0,,,2,,,67,100
74308,note_off,,,,,72,0,0,,,2,,,67,64
74308,note_off,,,,,0,0,0,,,2,,,63,64
74308,note_on,,,,,0,0,0,,,2,,,36,100
74308,note_on,,,,,0,0,0,,,2,,,48,100
74380,note_on,,,,,72,0,0,,,2,,,75,100
74380,note_on,,,,,0,0,0,,,2,,,63,100
74452,note_off,,,,,72,0,0,,,2,,,48,64
74452,note_off,,,,,0,0,0,,,2,,,36,64
74452,note_on,,,,,0,0,0,,,2,,,43,100
74524,note_off,,,,,72,0,0,,,2,,,63,64
74524,note_off,,,,,0,0,0,,,2,,,75,64
74524,note_on,,,,,0,0,0,,,2,,,69,100
74596,note_off,,,,,72,0,0,,,2,,,43,64
74596,note_on,,,,,0,0,0,,,2,,,45,100
74668,note_off,,,,,72,0,0,,,2,,,69,64
74668,note_on,,,,,0,0,0,,,2,,,67,100
74740,note_off,,,,,72,0,0,,,2,,,67,64
74740,note_off,,,,,0,0,0,,,2,,,45,64
74740,note_on,,,,,0,0,0,,,2,,,50,100
74740,note_on,,,,,0,0,0,,,2,,,38,100
74812,note_on,,,,,72,0,0,,,2,,,62,100
74812,note_on,,,,,0,0,0,,,2,,,74,100
74884,note_off,,,,,72,0,0,,,2,,,38,64
74884,note_off,,,,,0,0,0,,,2,,,50,64
74884,note_on,,,,,0,0,0,,,2,,,43,100
74956,note_off,,,,,72,0,0,,,2,,,74,64
74956,note_off,,,,,0,0,0,,,2,,,62,64
74956,note_on,,,,,0,0,0,,,2,,,70,100
75028,note_off,,,,,72,0,0,,,2,,,43,64
75028,note_on,,,,,0,0,0,,,2,,,46,100
75100,note_off,,,,,72,0,0,,,2,,,70,64
75100,note_on,,,,,0,0,0,,,2,,,67,100
75172,note_off,,,,,72,0,0,,,2,,,67,64
75172,note_off,,,,,0,0,0,,,2,,,46,64
75172,note_on,,,,,0,0,0,,,2,,,38,100
75172,note_on,,,,,0,0,0,,,2,,,50,100
75244,note_on,,,,,72,0,0,,,2,,,74,100
75244,note_on,,,,,0,0,0,,,2,,,62,100
75316,note_off,,,,,72,0,0,,,2,,,50,64
75316,note_off,,,,,0,0,0,,,2,,,38,64
75316,note_on,,,,,0,0,0,,,2,,,42,100
75388,note_off,,,,,72,0,0,,,2,,,62,64
75388,note_off,,,,,0,0,0,,,2,,,74,64
75388,note_on,,,,,0,0,0,,,2,,,69,100
75460,note_off,,,,,72,0,0,,,2,,,42,64
75460,note_on,,,,,0,0,0,,,2,,,45,100
75532,note_off,,,,,72,0,0,,,2,,,69,64
75532,note_on,,,,,0,0,0,,,2,,,66,100
75604,note_off,,,,,72,0,0,,,2,,,45,64
75604,note_off,,,,,0,0,0,,,2,,,66,64
75604,note_on,,,,,0,0,0,,,2,,,31,100
75604,note_on,,,,,0,0,0,,,2,,,43,100
75604,note_on,,,,,0,0,0,,,2,,,67,100
75748,note_off,,,,,144,0,0,,,2,,,67,64
75748,note_off,,,,,0,0,0,,,2,,,43,64
75748,note_off,,,,,0,0,0,,,2,,,31,64
75748,note_on,,,,,0,0,0,,,2,,,41,100
75892,note_off,,,,,144,0,0,,,2,,,41,64
75892,note_on,,,,,0,0,0,,,2,,,40,100
76036,note_off,,,,,144,0,0,,,2,,,40,64
76036,note_on,,,,,0,0,0,,,2,,,37,100
76108,note_on,,,,,72,0,0,,,2,,,58,100
76180,note_off,,,,,72,0,0,,,2,,,37,64
76180,note_on,,,,,0,0,0,,,2,,,41,100
76252,note_off,,,,,72,0,0,,,2,,,58,64
76252,note_on,,,,,0,0,0,,,2,,,53,100
76324,note_off,,,,,72,0,0,,,2,,,41,64
76324,note_on,,,,,0,0,0,,,2,,,46,100
76396,note_off,,,,,72,0,0,,,2,,,53,64
76396,note_on,,,,,0,0,0,,,2,,,49,100
76468,note_off,,,,,72,0,0,,,2,,,49,64
76468,note_off,,,,,0,0,0,,,2,,,46,64
76468,note_on,,,,,0,0,0,,,2,,,36,100
76540,note_on,,,,,72,0,0,,,2,,,58,100
76612,note_off,,,,,72,0,0,,,2,,,36,64
76612,note_on,,,,,0,0,0,,,2,,,40,100
76684,note_off,,,,,72,0,0,,,2,,,58,64
76684,note_on,,,,,0,0,0,,,2,,,52,100
76756,note_off,,,,,72,0,0,,,2,,,40,64
76756,note_on,,,,,0,0,0,,,2,,,46,100
76828,note_off,,,,,72,0,0,,,2,,,52,64
76828,note_on,,,,,0,0,0,,,2,,,48,100
76900,note_off,,,,,72,0,0,,,2,,,48,64
76900,note_off,,,,,0,0,0,,,2,,,46,64
76900,note_on,,,,,0,0,0,,,2,,,40,100
76972,note_on,,,,,72,0,0,,,2,,,70,100
77044,note_off,,,,,72,0,0,,,2,,,40,64
77044,note_on,,,,,0,0,0,,,2,,,43,100
77116,note_off,,,,,72,0,0,,,2,,,70,64
77116,note_on,,,,,0,0,0,,,2,,,67,100
77188,note_off,,,,,72,0,0,,,2,,,43,64
77188,note_on,,,,,0,0,0,,,2,,,48,100
77260,note_off,,,,,72,0,0,,,2,,,67,64
77260,note_on,,,,,0,0,0,,,2,,,60,100
77332,note_off,,,,,72,0,0,,,2,,,48,64
77332,note_on,,,,,0,0,0,,,2,,,41,100
77400,note_on,,,,,68,0,0,,,2,,,68,100
77404,note_off,,,,,4,0,0,,,2,,,60,64
77476,note_off,,,,,72,0,0,,,2,,,41,64
77476,note_on,,,,,0,0,0,,,2,,,44,100
77544,note_off,,,,,68,0,0,,,2,,,68,64
77544,note_on,,,,,0,0,0,,,2,,,65,100
77620,note_off,,,,,76,0,0,,,2,,,44,64
77620,note_on,,,,,0,0,0,,,2,,,48,100
77688,note_off,,,,,68,0,0,,,2,,,65,64
77692,note_on,,,,,4,0,0,,,2,,,60,100
77764,note_off,,,,,72,0,0,,,2,,,48,64
77764,note_off,,,,,0,0,0,,,2,,,60,64
77764,note_on,,,,,0,0,0,,,2,,,36,100
77836,note_on,,,,,72,0,0,,,2,,,56,100
77908,note_off,,,,,72,0,0,,,2,,,36,64
77908,note_on,,,,,0,0,0,,,2,,,39,100
77980,note_off,,,,,72,0,0,,,2,,,56,64
77980,note_on,,,,,0,0,0,,,2,,,51,100
78052,note_off,,,,,72,0,0,,,2,,,39,64
78052,note_on,,,,,0,0,0,,,2,,,44,100
78124,note_off,,,,,72,0,0,,,2,,,51,64
78124,note_on,,,,,0,0,0,,,2,,,48,100
78196,note_off,,,,,72,0,0,,,2,,,48,64
78196,note_off,,,,,0,0,0,,,2,,,44,64
78196,note_on,,,,,0,0,0,,,2,,,35,100
78268,note_on,,,,,72,0,0,,,2,,,55,100
78340,note_off,,,,,72,0,0,,,2,,,35,64
78340,note_on,,,,,0,0,0,,,2,,,38,100
78412,note_off,,,,,72,0,0,,,2,,,55,64
78412,note_on,,,,,0,0,0,,,2,,,50,100
78484,note_off,,,,,72,0,0,,,2,,,38,64
78484,note_on,,,,,0,0,0,,,2,,,43,100
78556,note_off,,,,,72,0,0,,,2,,,50,64
78556,note_on,,,,,0,0,0,,,2,,,47,100
78628,note_off,,,,,72,0,0,,,2,,,47,64
78628,note_off,,,,,0,0,0,,,2,,,43,64
78628,note_on,,,,,0,0,0,,,2,,,47,100
78700,note_on,,,,,72,0,0,,,2,,,77,100
78772,note_off,,,,,72,0,0,,,2,,,47,64
78772,note_on,,,,,0,0,0,,,2,,,50,100
78844,note_off,,,,,72,0,0,,,2,,,77,64
78844,note_on,,,,,0,0,0,,,2,,,74,100
78916,note_off,,,,,72,0,0,,,2,,,50,64
78916,note_on,,,,,0,0,0,,,2,,,55,100
78988,note_off,,,,,72,0,0,,,2,,,74,64
78988,note_on,,,,,0,0,0,,,2,,,67,100
79060,note_off,,,,,72,0,0,,,2,,,67,64
79060,note_off,,,,,0,0,0,,,2,,,55,64
79060,note_on,,,,,0,0,0,,,2,,,48,100
79132,note_on,,,,,72,0,0,,,2,,,75,100
79204,note_off,,,,,72,0,0,,,2,,,48,64
79204,note_on,,,,,0,0,0,,,2,,,51,100
79276,note_off,,,,,72,0,0,,,2,,,75,64
79276,note_on,,,,,0,0,0,,,2,,,72,100
79348,note_off,,,,,72,0,0,,,2,,,51,64
79348,note_on,,,,,0,0,0,,,2,,,55,100
79420,note_off,,,,,72,0,0,,,2,,,72,64
79420,note_on,,,,,0,0,0,,,2,,,67,100
79492,note_off,,,,,72,0,0,,,2,,,67,64
79492,note_off,,,,,0,0,0,,,2,,,55,64
79492,note_on,,,,,0,0,0,,,2,,,36,100
79564,note_on,,,,,72,0,0,,,2,,,48,100
79636,note_off,,,,,72,0,0,,,2,,,36,64
79636,note_on,,,,,0,0,0,,,2,,,39,100
79708,note_off,,,,,72,0,0,,,2,,,48,64
79708,note_on,,,,,0,0,0,,,2,,,51,100
79780,note_off,,,,,72,0,0,,,2,,,39,64
79780,note_on,,,,,0,0,0,,,2,,,43,100
79852,note_off,,,,,72,0,0,,,2,,,51,64
79852,note_on,,,,,0,0,0,,,2,,,55,100
79924,note_off,,,,,72,0,0,,,2,,,43,64
79924,note_off,,,,,0,0,0,,,2,,,55,64
79924,note_on,,,,,0,0,0,,,2,,,48,100
79996,note_on,,,,,72,0,0,,,2,,,60,100
80068,note_off,,,,,72,0,0,,,2,,,48,64
80068,note_on,,,,,0,0,0,,,2,,,51,100
80140,note_off,,,,,72,0,0,,,2,,,60,64
80140,note_on,,,,,0,0,0,,,2,,,63,100
80212,note_off,,,,,72,0,0,,,2,,,51,64
80212,note_on,,,,,0,0,0,,,2,,,55,100
80284,note_off,,,,,72,0,0,,,2,,,63,64
80284,note_on,,,,,0,0,0,,,2,,,67,100
80356,note_off,,,,,72,0,0,,,2,,,67,64
80356,note_off,,,,,0,0,0,,,2,,,55,64
80356,note_on,,,,,0,0,0,,,2,,,60,100
80428,note_on,,,,,72,0,0,,,2,,,80,100
80500,note_off,,,,,72,0,0,,,2,,,60,64
80500,note_on,,,,,0,0,0,,,2,,,63,100
80572,note_off,,,,,72,0,0,,,2,,,80,64
80572,note_on,,,,,0,0,0,,,2,,,75,100
80644,note_off,,,,,72,0,0,,,2,,,63,64
80644,note_on,,,,,0,0,0,,,2,,,68,100
80716,note_off,,,,,72,0,0,,,2,,,75,64
80716,note_on,,,,,0,0,0,,,2,,,72,100
80788,note_off,,,,,72,0,0,,,2,,,72,64
80788,note_off,,,,,0,0,0,,,2,,,68,64
80788,note_on,,,,,0,0,0,,,2,,,59,100
80860,note_on,,,,,72,0,0,,,2,,,80,100
80932,note_off,,,,,72,0,0,,,2,,,59,64
80932,note_on,,,,,0,0,0,,,2,,,62,100
81004,note_off,,,,,72,0,0,,,2,,,80,64
81004,note_on,,,,,0,0,0,,,2,,,74,100
81076,note_off,,,,,72,0,0,,,2,,,62,64
81076,note_on,,,,,0,0,0,,,2,,,68,100
81148,note_off,,,,,72,0,0,,,2,,,74,64
81148,note_on,,,,,0,0,0,,,2,,,71,100
81220,note_off,,,,,72,0,0,,,2,,,71,64
81220,note_off,,,,,0,0,0,,,2,,,68,64
81220,note_on,,,,,0,0,0,,,2,,,47,100
81292,note_on,,,,,72,0,0,,,2,,,68,100
81364,note_off,,,,,72,0,0,,,2,,,47,64
81364,note_on,,,,,0,0,0,,,2,,,50,100
81436,note_off,,,,,72,0,0,,,2,,,68,64
81436,note_on,,,,,0,0,0,,,2,,,62,100
81508,note_off,,,,,72,0,0,,,2,,,50,64
81508,note_on,,,,,0,0,0,,,2,,,56,100
81580,note_off,,,,,72,0,0,,,2,,,62,64
81580,note_on,,,,,0,0,0,,,2,,,59,100
81652,note_off,,,,,72,0,0,,,2,,,59,64
81652,note_off,,,,,0,0,0,,,2,,,56,64
81652,note_on,,,,,0,0,0,,,2,,,46,100
81724,note_on,,,,,72,0,0,,,2,,,67,100
81796,note_off,,,,,72,0,0,,,2,,,46,64
81796,note_on,,,,,0,0,0,,,2,,,50,100
81868,note_off,,,,,72,0,0,,,2,,,67,64
81868,note_on,,,,,0,0,0,,,2,,,62,100
81940,note_off,,,,,72,0,0,,,2,,,50,64
81940,note_on,,,,,0,0,0,,,2,,,55,100
82012,note_off,,,,,72,0,0,,,2,,,62,64
82012,note_on,,,,,0,0,0,,,2,,,58,100
82084,note_off,,,,,72,0,0,,,2,,,55,64
82084,note_off,,,,,0,0,0,,,2,,,58,64
82084,note_on,,,,,0,0,0,,,2,,,58,100
82156,note_on,,,,,72,0,0,,,2,,,79,100
82228,note_off,,,,,72,0,0,,,2,,,58,64
82228,note_on,,,,,0,0,0,,,2,,,62,100
82300,note_off,,,,,72,0,0,,,2,,,79,64
82300,note_on,,,,,0,0,0,,,2,,,74,100
82372,note_off,,,,,72,0,0,,,2,,,62,64
82372,note_on,,,,,0,0,0,,,2,,,67,100
82444,note_off,,,,,72,0,0,,,2,,,74,64
82444,note_on,,,,,0,0,0,,,2,,,70,100
82516,note_off,,,,,72,0,0,,,2,,,70,64
82516,note_off,,,,,0,0,0,,,2,,,67,64
82516,note_on,,,,,0,0,0,,,2,,,57,100
82588,note_on,,,,,72,0,0,,,2,,,79,100
82660,note_off,,,,,72,0,0,,,2,,,57,64
82660,note_on,,,,,0,0,0,,,2,,,60,100
82732,note_off,,,,,72,0,0,,,2,,,79,64
82732,note_on,,,,,0,0,0,,,2,,,72,100
82804,note_off,,,,,72,0,0,,,2,,,60,64
82804,note_on,,,,,0,0,0,,,2,,,67,100
82876,note_off,,,,,72,0,0,,,2,,,72,64
82876,note_on,,,,,0,0,0,,,2,,,69,100
82948,note_off,,,,,72,0,0,,,2,,,69,64
82948,note_off,,,,,0,0,0,,,2,,,67,64
82948,note_on,,,,,0,0,0,,,2,,,45,100
83020,note_on,,,,,72,0,0,,,2,,,67,100
83092,note_off,,,,,72,0,0,,,2,,,45,64
83092,note_on,,,,,0,0,0,,,2,,,48,100
83164,note_off,,,,,72,0,0,,,2,,,67,64
83164,note_on,,,,,0,0,0,,,2,,,60,100
83236,note_off,,,,,72,0,0,,,2,,,48,64
83236,note_on,,,,,0,0,0,,,2,,,55,100
83308,note_off,,,,,72,0,0,,,2,,,60,64
83308,note_on,,,,,0,0,0,,,2,,,57,100
83380,note_off,,,,,72,0,0,,,2,,,57,64
83380,note_off,,,,,0,0,0,,,2,,,55,64
83380,note_on,,,,,0,0,0,,,2,,,44,100
83452,note_on,,,,,72,0,0,,,2,,,65,100
83524,note_off,,,,,72,0,0,,,2,,,44,64
83524,note_on,,,,,0,0,0,,,2,,,48,100
83596,note_off,,,,,72,0,0,,,2,,,65,64
83596,note_on,,,,,0,0,0,,,2,,,60,100
83668,note_off,,,,,72,0,0,,,2,,,48,64
83668,note_on,,,,,0,0,0,,,2,,,53,100
83740,note_off,,,,,72,0,0,,,2,,,60,64
83740,note_on,,,,,0,0,0,,,2,,,56,100
83812,note_off,,,,,72,0,0,,,2,,,56,64
83812,note_off,,,,,0,0,0,,,2,,,53,64
83812,note_on,,,,,0,0,0,,,2,,,56,100
83884,note_on,,,,,72,0,0,,,2,,,77,100
83956,note_off,,,,,72,0,0,,,2,,,56,64
83956,note_on,,,,,0,0,0,,,2,,,60,100
84028,note_off,,,,,72,0,0,,,2,,,77,64
84028,note_on,,,,,0,0,0,,,2,,,72,100
84100,note_off,,,,,72,0,0,,,2,,,60,64
84100,note_on,,,,,0,0,0,,,2,,,65,100
84172,note_off,,,,,72,0,0,,,2,,,72,64
84172,note_on,,,,,0,0,0,,,2,,,68,100
84244,note_off,,,,,72,0,0,,,2,,,65,64
84244,note_off,,,,,0,0,0,,,2,,,68,64
84244,note_on,,,,,0,0,0,,,2,,,55,100
84316,note_on,,,,,72,0,0,,,2,,,75,100
84388,note_off,,,,,72,0,0,,,2,,,55,64
84388,note_on,,,,,0,0,0,,,2,,,60,100
84460,note_off,,,,,72,0,0,,,2,,,75,64
84460,note_on,,,,,0,0,0,,,2,,,72,100
84532,note_off,,,,,72,0,0,,,2,,,60,64
84532,note_on,,,,,0,0,0,,,2,,,63,100
84604,note_off,,,,,72,0,0,,,2,,,72,64
84604,note_on,,,,,0,0,0,,,2,,,67,100
84676,note_off,,,,,72,0,0,,,2,,,67,64
84676,note_off,,,,,0,0,0,,,2,,,63,64
84676,note_on,,,,,0,0,0,,,2,,,54,100
84676,note_on,,,,,0,0,0,,,2,,,42,100
84748,note_on,,,,,72,0,0,,,2,,,72,100
84748,note_on,,,,,0,0,0,,,2,,,60,100
84820,note_off,,,,,72,0,0,,,2,,,42,64
84820,note_off,,,,,0,0,0,,,2,,,54,64
84820,note_on,,,,,0,0,0,,,2,,,48,100
84892,note_off,,,,,72,0,0,,,2,,,60,64
84892,note_off,,,,,0,0,0,,,2,,,72,64
84892,note_on,,,,,0,0,0,,,2,,,69,100
84964,note_off,,,,,72,0,0,,,2,,,48,64
84964,note_on,,,,,0,0,0,,,2,,,51,100
85036,note_off,,,,,72,0,0,,,2,,,69,64
85036,note_on,,,,,0,0,0,,,2,,,63,100
85108,note_off,,,,,72,0,0,,,2,,,63,64
85108,note_off,,,,,0,0,0,,,2,,,51,64
85108,note_on,,,,,0,0,0,,,2,,,43,100
85108,note_on,,,,,0,0,0,,,2,,,55,100
85180,note_on,,,,,72,0,0,,,2,,,72,100
85180,note_on,,,,,0,0,0,,,2,,,60,100
85252,note_off,,,,,72,0,0,,,2,,,55,64
85252,note_off,,,,,0,0,0,,,2,,,43,64
85252,note_on,,,,,0,0,0,,,2,,,48,100
85324,note_off,,,,,72,0,0,,,2,,,60,64
85324,note_off,,,,,0,0,0,,,2,,,72,64
85324,note_on,,,,,0,0,0,,,2,,,67,100
85396,note_off,,,,,72,0,0,,,2,,,48,64
85396,note_on,,,,,0,0,0,,,2,,,51,100
85468,note_off,,,,,72,0,0,,,2,,,67,64
85468,note_on,,,,,0,0,0,,,2,,,63,100
85540,note_off,,,,,72,0,0,,,2,,,63,64
85540,note_off,,,,,0,0,0,,,2,,,51,64
85540,note_on,,,,,0,0,0,,,2,,,55,100
85540,note_on,,,,,0,0,0,,,2,,,43,100
85612,note_on,,,,,72,0,0,,,2,,,59,100
85612,note_on,,,,,0,0,0,,,2,,,71,100
85684,note_off,,,,,72,0,0,,,2,,,43,64
85684,note_off,,,,,0,0,0,,,2,,,55,64
85684,note_on,,,,,0,0,0,,,2,,,47,100
85756,note_off,,,,,72,0,0,,,2,,,71,64
85756,note_off,,,,,0,0,0,,,2,,,59,64
85756,note_on,,,,,0,0,0,,,2,,,67,100
85828,note_off,,,,,72,0,0,,,2,,,47,64
85828,note_on,,,,,0,0,0,,,2,,,50,100
85900,note_off,,,,,72,0,0,,,2,,,67,64
85900,note_on,,,,,0,0,0,,,2,,,62,100
85972,note_off,,,,,72,0,0,,,2,,,62,64
85972,note_off,,,,,0,0,0,,,2,,,50,64
85972,note_on,,,,,0,0,0,,,2,,,36,100
85972,note_on,,,,,0,0,0,,,2,,,48,100
86044,note_on,,,,,72,0,0,,,2,,,72,100
86044,note_on,,,,,0,0,0,,,2,,,60,100
86116,note_off,,,,,72,0,0,,,2,,,48,64
86116,note_off,,,,,0,0,0,,,2,,,36,64
86116,note_on,,,,,0,0,0,,,2,,,40,100
86188,note_off,,,,,72,0,0,,,2,,,60,64
86188,note_off,,,,,0,0,0,,,2,,,72,64
86188,note_on,,,,,0,0,0,,,2,,,67,100
86260,note_off,,,,,72,0,0,,,2,,,40,64
86260,note_on,,,,,0,0,0,,,2,,,43,100
86332,note_off,,,,,72,0,0,,,2,,,67,64
86332,note_on,,,,,0,0,0,,,2,,,62,100
86404,note_off,,,,,72,0,0,,,2,,,43,64
86404,note_off,,,,,0,0,0,,,2,,,62,64
86404,note_on,,,,,0,0,0,,,2,,,36,100
86404,note_on,,,,,0,0,0,,,2,,,48,100
86476,note_on,,,,,72,0,0,,,2,,,72,100
86476,note_on,,,,,0,0,0,,,2,,,60,100
86548,note_off,,,,,72,0,0,,,2,,,48,64
86548,note_off,,,,,0,0,0,,,2,,,36,64
86548,note_on,,,,,0,0,0,,,2,,,41,100
86620,note_off,,,,,72,0,0,,,2,,,60,64
86620,note_off,,,,,0,0,0,,,2,,,72,64
86620,note_on,,,,,0,0,0,,,2,,,68,100
86692,note_off,,,,,72,0,0,,,2,,,41,64
86692,note_on,,,,,0,0,0,,,2,,,44,100
86764,note_off,,,,,72,0,0,,,2,,,68,64
86764,note_on,,,,,0,0,0,,,2,,,65,100
86836,note_off,,,,,72,0,0,,,2,,,65,64
86836,note_off,,,,,0,0,0,,,2,,,44,64
86836,note_on,,,,,0,0,0,,,2,,,36,100
86836,note_on,,,,,0,0,0,,,2,,,48,100
86908,note_on,,,,,72,0,0,,,2,,,72,100
86908,note_on,,,,,0,0,0,,,2,,,60,100
86980,note_off,,,,,72,0,0,,,2,,,48,64
86980,note_off,,,,,0,0,0,,,2,,,36,64
86980,note_on,,,,,0,0,0,,,2,,,43,100
87052,note_off,,,,,72,0,0,,,2,,,60,64
87052,note_off,,,,,0,0,0,,,2,,,72,64
87052,note_on,,,,,0,0,0,,,2,,,70,100
87124,note_off,,,,,72,0,0,,,2,,,43,64
87124,note_on,,,,,0,0,0,,,2,,,46,100
87196,note_off,,,,,72,0,0,,,2,,,70,64
87196,note_on,,,,,0,0,0,,,2,,,67,100
87268,note_off,,,,,72,0,0,,,2,,,67,64
87268,note_off,,,,,0,0,0,,,2,,,46,64
87268,note_on,,,,,0,0,0,,,2,,,36,100
87268,note_on,,,,,0,0,0,,,2,,,48,100
87340,note_on,,,,,72,0,0,,,2,,,72,100
87340,note_on,,,,,0,0,0,,,2,,,60,100
87412,note_off,,,,,72,0,0,,,2,,,48,64
87412,note_off,,,,,0,0,0,,,2,,,36,64
87412,note_on,,,,,0,0,0,,,2,,,41,100
87484,note_off,,,,,72,0,0,,,2,,,60,64
87484,note_off,,,,,0,0,0,,,2,,,72,64
87484,note_on,,,,,0,0,0,,,2,,,68,100
87556,note_off,,,,,72,0,0,,,2,,,41,64
87556,note_on,,,,,0,0,0,,,2,,,44,100
87628,note_off,,,,,72,0,0,,,2,,,68,64
87628,note_on,,,,,0,0,0,,,2,,,65,100
87700,note_off,,,,,72,0,0,,,2,,,65,64
87700,note_off,,,,,0,0,0,,,2,,,44,64
87700,note_on,,,,,0,0,0,,,2,,,67,100
87700,note_on,,,,,0,0,0,,,2,,,55,100
87768,note_on,,,,,68,0,0,,,2,,,72,100
87772,note_on,,,,,4,0,0,,,2,,,84,100
87844,note_off,,,,,72,0,0,,,2,,,55,64
87844,note_off,,,,,0,0,0,,,2,,,67,64
87844,note_on,,,,,0,0,0,,,2,,,64,100
87844,note_on,,,,,0,0,0,,,2,,,52,100
87912,note_off,,,,,68,0,0,,,2,,,72,64
87916,note_off,,,,,4,0,0,,,2,,,84,64
87916,note_on,,,,,0,0,0,,,2,,,76,100
87988,note_off,,,,,72,0,0,,,2,,,52,64
87988,note_off,,,,,0,0,0,,,2,,,64,64
87988,note_on,,,,,0,0,0,,,2,,,60,100
87988,note_on,,,,,0,0,0,,,2,,,48,100
88060,note_off,,,,,72,0,0,,,2,,,76,64
88060,note_on,,,,,0,0,0,,,2,,,79,100
88132,note_off,,,,,72,0,0,,,2,,,79,64
88132,note_off,,,,,0,0,0,,,2,,,48,64
88132,note_off,,,,,0,0,0,,,2,,,60,64
88132,note_on,,,,,0,0,0,,,2,,,68,100
88132,note_on,,,,,0,0,0,,,2,,,56,100
88204,note_on,,,,,72,0,0,,,2,,,84,100
88204,note_on,,,,,0,0,0,,,2,,,72,100
88276,note_off,,,,,72,0,0,,,2,,,56,64
88276,note_off,,,,,0,0,0,,,2,,,68,64
88276,note_on,,,,,0,0,0,,,2,,,53,100
88276,note_on,,,,,0,0,0,,,2,,,65,100
88348,note_off,,,,,72,0,0,,,2,,,72,64
88348,note_off,,,,,0,0,0,,,2,,,84,64
88348,note_on,,,,,0,0,0,,,2,,,77,100
88420,note_off,,,,,72,0,0,,,2,,,65,64
88420,note_off,,,,,0,0,0,,,2,,,53,64
88420,note_on,,,,,0,0,0,,,2,,,48,100
88420,note_on,,,,,0,0,0,,,2,,,60,100
88492,note_off,,,,,72,0,0,,,2,,,77,64
88492,note_on,,,,,0,0,0,,,2,,,80,100
88564,note_off,,,,,72,0,0,,,2,,,60,64
88564,note_off,,,,,0,0,0,,,2,,,48,64
88564,note_off,,,,,0,0,0,,,2,,,80,64
88564,note_on,,,,,0,0,0,,,2,,,70,100
88564,note_on,,,,,0,0,0,,,2,,,58,100
88636,note_on,,,,,72,0,0,,,2,,,84,100
88636,note_on,,,,,0,0,0,,,2,,,72,100
88708,note_off,,,,,72,0,0,,,2,,,58,64
88708,note_off,,,,,0,0,0,,,2,,,70,64
88708,note_on,,,,,0,0,0,,,2,,,55,100
88708,note_on,,,,,0,0,0,,,2,,,67,100
88780,note_off,,,,,72,0,0,,,2,,,72,64
88780,note_off,,,,,0,0,0,,,2,,,84,64
88780,note_on,,,,,0,0,0,,,2,,,79,100
88852,note_off,,,,,72,0,0,,,2,,,67,64
88852,note_off,,,,,0,0,0,,,2,,,55,64
88852,note_on,,,,,0,0,0,,,2,,,60,100
88852,note_on,,,,,0,0,0,,,2,,,48,100
88924,note_off,,,,,72,0,0,,,2,,,79,64
88924,note_on,,,,,0,0,0,,,2,,,82,100
88996,note_off,,,,,72,0,0,,,2,,,82,64
88996,note_off,,,,,0,0,0,,,2,,,48,64
88996,note_off,,,,,0,0,0,,,2,,,60,64
88996,note_on,,,,,0,0,0,,,2,,,68,100
88996,note_on,,,,,0,0,0,,,2,,,56,100
89068,note_on,,,,,72,0,0,,,2,,,72,100
89068,note_on,,,,,0,0,0,,,2,,,84,100
89140,note_off,,,,,72,0,0,,,2,,,56,64
89140,note_off,,,,,0,0,0,,,2,,,68,64
89140,note_on,,,,,0,0,0,,,2,,,65,100
89140,note_on,,,,,0,0,0,,,2,,,53,100
89212,note_off,,,,,72,0,0,,,2,,,84,64
89212,note_off,,,,,0,0,0,,,2,,,72,64
89212,note_on,,,,,0,0,0,,,2,,,77,100
89284,note_off,,,,,72,0,0,,,2,,,53,64
89284,note_off,,,,,0,0,0,,,2,,,65,64
89284,note_on,,,,,0,0,0,,,2,,,60,100
89284,note_on,,,,,0,0,0,,,2,,,48,100
89356,note_off,,,,,72,0,0,,,2,,,77,64
89356,note_on,,,,,0,0,0,,,2,,,80,100
89428,note_off,,,,,72,0,0,,,2,,,80,64
89428,note_off,,,,,0,0,0,,,2,,,48,64
89428,note_off,,,,,0,0,0,,,2,,,60,64
89428,note_on,,,,,0,0,0,,,2,,,60,100
89428,note_on,,,,,0,0,0,,,2,,,48,100
89500,note_on,,,,,72,0,0,,,2,,,84,100
89500,note_on,,,,,0,0,0,,,2,,,72,100
89572,note_off,,,,,72,0,0,,,2,,,48,64
89572,note_off,,,,,0,0,0,,,2,,,60,64
89572,note_on,,,,,0,0,0,,,2,,,67,100
89644,note_off,,,,,72,0,0,,,2,,,72,64
89644,note_off,,,,,0,0,0,,,2,,,84,64
89644,note_on,,,,,0,0,0,,,2,,,79,100
89716,note_off,,,,,72,0,0,,,2,,,67,64
89716,note_on,,,,,0,0,0,,,2,,,64,100
89788,note_off,,,,,72,0,0,,,2,,,79,64
89788,note_on,,,,,0,0,0,,,2,,,76,100
89860,note_off,,,,,72,0,0,,,2,,,64,64
89860,note_on,,,,,0,0,0,,,2,,,60,100
89932,note_off,,,,,72,0,0,,,2,,,76,64
89932,note_on,,,,,0,0,0,,,2,,,72,100
90004,note_off,,,,,72,0,0,,,2,,,60,64
90004,note_on,,,,,0,0,0,,,2,,,55,100
90076,note_off,,,,,72,0,0,,,2,,,72,64
90076,note_on,,,,,0,0,0,,,2,,,67,100
90148,note_off,,,,,72,0,0,,,2,,,55,64
90148,note_on,,,,,0,0,0,,,2,,,52,100
90220,note_off,,,,,72,0,0,,,2,,,67,64
90220,note_on,,,,,0,0,0,,,2,,,64,100
90292,note_off,,,,,72,0,0,,,2,,,52,64
90292,note_on,,,,,0,0,0,,,2,,,48,100
90364,note_off,,,,,72,0,0,,,2,,,64,64
90364,note_on,,,,,0,0,0,,,2,,,60,100
90436,note_off,,,,,72,0,0,,,2,,,48,64
90436,note_on,,,,,0,0,0,,,2,,,43,100
90508,note_off,,,,,72,0,0,,,2,,,60,64
90508,note_on,,,,,0,0,0,,,2,,,55,100
90580,note_off,,,,,72,0,0,,,2,,,43,64
90580,note_on,,,,,0,0,0,,,2,,,40,100
90652,note_off,,,,,72,0,0,,,2,,,55,64
90652,note_on,,,,,0,0,0,,,2,,,52,100
90724,note_off,,,,,72,0,0,,,2,,,40,64
90724,note_on,,,,,0,0,0,,,2,,,36,100
90796,note_off,,,,,72,0,0,,,2,,,52,64
90796,note_on,,,,,0,0,0,,,2,,,48,100
90868,note_off,,,,,72,0,0,,,2,,,36,64
90868,note_on,,,,,0,0,0,,,2,,,43,100
90940,note_off,,,,,72,0,0,,,2,,,48,64
90940,note_on,,,,,0,0,0,,,2,,,55,100
91012,note_off,,,,,72,0,0,,,2,,,43,64
91012,note_on,,,,,0,0,0,,,2,,,40,100
91084,note_off,,,,,72,0,0,,,2,,,55,64
91084,note_on,,,,,0,0,0,,,2,,,52,100
91156,note_off,,,,,72,0,0,,,2,,,40,64
91156,note_on,,,,,0,0,0,,,2,,,36,100
91228,note_off,,,,,72,0,0,,,2,,,52,64
91300,note_on,,,,,72,0,0,,,2,,,48,100
91444,note_off,,,,,144,0,0,,,2,,,36,64
91588,note_off,,,,,144,0,0,,,2,,,48,64
91588,end_of_track,,,,,0,1,0,,,,,,,
