tick,type,time,meta,track,numerator,denominator,clocks_per_click,notated_32nd_notes_per_beat,key,tempo,control,value,channel,program,pitch,note,velocity
0,track_name,0,1,0,,,,,,,,,,,,,
0,control_change,0,0,3,,,,,,,93,28,2,,,,
0,control_change,0,0,3,,,,,,,64,0,2,,,,
0,pitchwheel,0,0,3,,,,,,,,,2,,0,,
0,control_change,0,0,3,,,,,,,7,107,2,,,,
0,program_change,0,0,3,,,,,,,,,2,0,,,
0,control_change,0,0,3,,,,,,,32,0,2,,,,
0,control_change,0,0,3,,,,,,,0,0,2,,,,
0,track_name,0,1,3,,,,,,,,,,,,,
0,control_change,0,0,2,,,,,,,10,65,1,,,,
0,control_change,0,0,2,,,,,,,91,91,1,,,,
0,control_change,0,0,2,,,,,,,93,28,1,,,,
0,control_change,0,0,2,,,,,,,64,0,1,,,,
0,control_change,0,0,2,,,,,,,1,0,1,,,,
0,pitchwheel,0,0,2,,,,,,,,,1,,0,,
0,control_change,0,0,3,,,,,,,91,91,2,,,,
0,control_change,0,0,2,,,,,,,7,107,1,,,,
0,control_change,0,0,2,,,,,,,32,0,1,,,,
0,control_change,0,0,2,,,,,,,0,0,1,,,,
0,track_name,0,1,2,,,,,,,,,,,,,
0,track_name,0,1,1,,,,,,,,,,,,,
0,control_change,0,0,1,,,,,,,0,0,0,,,,
0,control_change,0,0,1,,,,,,,32,0,0,,,,
0,control_change,0,0,1,,,,,,,7,117,0,,,,
0,control_change,0,0,1,,,,,,,1,0,0,,,,
0,control_change,0,0,1,,,,,,,64,0,0,,,,
0,control_change,0,0,1,,,,,,,93,28,0,,,,
0,control_change,0,0,1,,,,,,,91,91,0,,,,
0,control_change,0,0,1,,,,,,,10,73,0,,,,
0,program_change,0,0,1,,,,,,,,,0,0,,,
0,pitchwheel,0,0,1,,,,,,,,,0,,0,,
0,program_change,0,0,2,,,,,,,,,1,0,,,
0,control_change,0,0,3,,,,,,,10,55,2,,,,
0,control_change,0,0,3,,,,,,,1,0,2,,,,
0,marker,0,1,0,,,,,,,,,,,,,
0,set_tempo,0,1,0,,,,,,500000,,,,,,,
0,key_signature,0,1,0,,,,,C,,,,,,,,
0,time_signature,0,1,0,4,4,24,8,,,,,,,,,
1920,marker,0,1,0,,,,,,,,,,,,,
1920,set_tempo,1920,1,0,,,,,,967741,,,,,,,
1920,note_on,1920,0,1,,,,,,,,,0,,,67,59
1920,note_on,1920,0,2,,,,,,,,,1,,,63,61
2880,note_off,960,0,1,,,,,,,,,0,,,67,0
2880,note_on,0,0,1,,,,,,,,,0,,,65,56
2880,note_on,0,0,2,,,,,,,,,1,,,58,57
2880,note_off,960,0,2,,,,,,,,,1,,,63,0
3630,set_tempo,1710,1,0,,,,,,1000000,,,,,,,
3840,note_on,0,0,2,,,,,,,,,1,,,55,52
3840,note_on,0,0,3,,,,,,,,,2,,,36,47
3840,marker,210,1,0,,,,,,,,,,,,,
3840,note_on,3840,0,3,,,,,,,,,2,,,48,47
3840,note_on,0,0,1,,,,,,,,,0,,,63,58
3840,note_off,960,0,2,,,,,,,,,1,,,58,0
3840,note_off,960,0,1,,,,,,,,,0,,,65,0
5220,note_off,1380,0,1,,,,,,,,,0,,,63,0
5220,note_off,1380,0,2,,,,,,,,,1,,,55,0
5227,note_off,1387,0,3,,,,,,,,,2,,,36,0
5227,note_off,0,0,3,,,,,,,,,2,,,48,0
5280,note_on,53,0,3,,,,,,,,,2,,,51,46
5280,note_on,60,0,1,,,,,,,,,0,,,63,53
5280,set_tempo,1440,1,0,,,,,,952380,,,,,,,
5280,note_on,0,0,3,,,,,,,,,2,,,48,46
5640,note_on,0,0,1,,,,,,,,,0,,,68,55
5640,note_off,360,0,1,,,,,,,,,0,,,63,0
5760,note_on,0,0,3,,,,,,,,,2,,,46,49
5760,note_off,0,0,3,,,,,,,,,2,,,51,0
5760,note_on,0,0,3,,,,,,,,,2,,,52,49
5760,note_off,120,0,1,,,,,,,,,0,,,68,0
5760,set_tempo,480,1,0,,,,,,952380,,,,,,,
5760,marker,0,1,0,,,,,,,,,,,,,
5760,note_off,480,0,3,,,,,,,,,2,,,48,0
5760,note_on,0,0,1,,,,,,,,,0,,,67,55
6187,note_off,427,0,3,,,,,,,,,2,,,52,0
6187,note_off,0,0,3,,,,,,,,,2,,,46,0
6187,note_off,427,0,1,,,,,,,,,0,,,67,0
6240,note_on,0,0,3,,,,,,,,,2,,,52,52
6240,set_tempo,480,1,0,,,,,,923076,,,,,,,
6240,note_on,53,0,1,,,,,,,,,0,,,67,57
6240,note_on,53,0,3,,,,,,,,,2,,,46,52
6600,note_on,0,0,1,,,,,,,,,0,,,73,59
6600,note_off,360,0,1,,,,,,,,,0,,,67,0
6720,note_off,120,0,1,,,,,,,,,0,,,73,0
6720,note_on,0,0,1,,,,,,,,,0,,,72,59
6720,note_off,480,0,3,,,,,,,,,2,,,52,0
6720,note_off,0,0,3,,,,,,,,,2,,,46,0
6720,note_on,0,0,3,,,,,,,,,2,,,45,55
6720,note_on,0,0,3,,,,,,,,,2,,,53,55
6727,set_tempo,487,1,0,,,,,,923076,,,,,,,
7140,note_off,420,0,3,,,,,,,,,2,,,53,0
7147,note_off,7,0,3,,,,,,,,,2,,,45,0
7185,note_off,465,0,1,,,,,,,,,0,,,72,0
7190,set_tempo,463,1,0,,,,,,895522,,,,,,,
7200,note_on,15,0,1,,,,,,,,,0,,,72,58
7200,note_on,0,0,3,,,,,,,,,2,,,54,58
7200,note_on,53,0,3,,,,,,,,,2,,,44,58
7320,note_on,120,0,1,,,,,,,,,0,,,74,61
7325,note_off,5,0,1,,,,,,,,,0,,,72,0
7360,note_on,35,0,1,,,,,,,,,0,,,72,62
7370,note_off,10,0,1,,,,,,,,,0,,,74,0
7400,note_on,30,0,1,,,,,,,,,0,,,71,62
7410,note_off,10,0,1,,,,,,,,,0,,,72,0
7440,note_on,30,0,1,,,,,,,,,0,,,72,63
7455,note_off,15,0,1,,,,,,,,,0,,,71,0
7560,note_on,105,0,1,,,,,,,,,0,,,74,65
7565,note_off,5,0,1,,,,,,,,,0,,,72,0
7567,set_tempo,377,1,0,,,,,,923076,,,,,,,
7680,note_on,0,0,3,,,,,,,,,2,,,55,64
7680,marker,0,1,0,,,,,,,,,,,,,
7680,note_on,2460,0,2,,,,,,,,,1,,,63,62
7680,note_off,480,0,3,,,,,,,,,2,,,54,0
7680,note_off,0,0,3,,,,,,,,,2,,,44,0
7680,note_on,0,0,3,,,,,,,,,2,,,43,64
7680,set_tempo,113,1,0,,,,,,1000000,,,,,,,
7680,note_off,115,0,1,,,,,,,,,0,,,74,0
7680,note_on,0,0,1,,,,,,,,,0,,,75,68
8160,note_on,0,0,3,,,,,,,,,2,,,57,53
8160,note_off,480,0,3,,,,,,,,,2,,,55,0
8160,note_on,0,0,2,,,,,,,,,1,,,63,57
8160,note_off,480,0,2,,,,,,,,,1,,,63,0
8160,note_on,0,0,2,,,,,,,,,1,,,66,57
8400,note_off,720,0,1,,,,,,,,,0,,,75,0
8400,note_on,0,0,1,,,,,,,,,0,,,72,59
8640,note_off,480,0,3,,,,,,,,,2,,,57,0
8640,note_on,0,0,3,,,,,,,,,2,,,59,46
8640,note_on,0,0,1,,,,,,,,,0,,,71,57
8640,note_off,480,0,2,,,,,,,,,1,,,66,0
8640,note_off,0,0,2,,,,,,,,,1,,,63,0
8640,note_off,240,0,1,,,,,,,,,0,,,72,0
8640,note_on,0,0,2,,,,,,,,,1,,,67,49
8640,note_on,0,0,2,,,,,,,,,1,,,62,49
8640,set_tempo,960,1,0,,,,,,1111111,,,,,,,
9060,note_off,420,0,2,,,,,,,,,1,,,62,0
9060,note_off,420,0,1,,,,,,,,,0,,,71,0
9060,note_off,420,0,3,,,,,,,,,2,,,59,0
9067,note_off,7,0,3,,,,,,,,,2,,,43,0
9067,note_off,7,0,2,,,,,,,,,1,,,67,0
9120,note_on,60,0,1,,,,,,,,,0,,,79,59
9120,set_tempo,480,1,0,,,,,,967741,,,,,,,
9360,note_on,0,0,1,,,,,,,,,0,,,87,63
9360,note_off,240,0,1,,,,,,,,,0,,,79,0
9585,set_tempo,465,1,0,,,,,,1000000,,,,,,,
9600,note_on,533,0,3,,,,,,,,,2,,,55,60
9600,note_on,0,0,3,,,,,,,,,2,,,67,60
9600,note_off,240,0,1,,,,,,,,,0,,,87,0
9600,marker,0,1,0,,,,,,,,,,,,,
9600,set_tempo,15,1,0,,,,,,1000000,,,,,,,
9600,note_on,0,0,1,,,,,,,,,0,,,87,67
9600,note_on,533,0,2,,,,,,,,,1,,,75,60
10080,note_on,0,0,2,,,,,,,,,1,,,75,59
10080,note_on,0,0,3,,,,,,,,,2,,,69,57
10080,note_on,0,0,2,,,,,,,,,1,,,78,59
10080,note_off,480,0,2,,,,,,,,,1,,,75,0
10080,note_off,480,0,3,,,,,,,,,2,,,67,0
10320,note_off,720,0,1,,,,,,,,,0,,,87,0
10320,note_on,0,0,1,,,,,,,,,0,,,84,63
10460,set_tempo,860,1,0,,,,,,1034482,,,,,,,
10560,note_off,240,0,1,,,,,,,,,0,,,84,0
10560,note_on,0,0,1,,,,,,,,,0,,,83,61
10560,note_off,480,0,3,,,,,,,,,2,,,69,0
10560,note_on,0,0,2,,,,,,,,,1,,,79,54
10560,note_on,0,0,2,,,,,,,,,1,,,74,54
10560,note_off,0,0,2,,,,,,,,,1,,,78,0
10560,note_off,480,0,2,,,,,,,,,1,,,75,0
10560,note_on,0,0,3,,,,,,,,,2,,,71,50
10980,note_off,420,0,1,,,,,,,,,0,,,83,0
10987,note_off,0,0,2,,,,,,,,,1,,,74,0
10987,note_off,427,0,2,,,,,,,,,1,,,79,0
10987,note_off,0,0,3,,,,,,,,,2,,,55,0
10987,note_off,427,0,3,,,,,,,,,2,,,71,0
11040,set_tempo,580,1,0,,,,,,1071428,,,,,,,
11040,note_on,0,0,3,,,,,,,,,2,,,67,63
11040,note_on,53,0,3,,,,,,,,,2,,,70,63
11040,note_on,60,0,1,,,,,,,,,0,,,82,72
11040,note_on,0,0,2,,,,,,,,,1,,,79,61
11040,note_on,53,0,2,,,,,,,,,1,,,74,61
11460,note_off,420,0,1,,,,,,,,,0,,,82,0
11520,note_on,0,0,3,,,,,,,,,2,,,65,75
11520,note_on,0,0,2,,,,,,,,,1,,,74,71
11520,note_on,0,0,3,,,,,,,,,2,,,68,75
11520,marker,480,1,0,,,,,,,,,,,,,
11520,note_off,0,0,2,,,,,,,,,1,,,74,0
11520,note_on,0,0,3,,,,,,,,,2,,,70,75
11520,note_off,480,0,3,,,,,,,,,2,,,67,0
11520,note_off,0,0,3,,,,,,,,,2,,,70,0
11520,note_off,480,0,2,,,,,,,,,1,,,79,0
11520,note_on,60,0,1,,,,,,,,,0,,,82,80
12000,note_off,0,0,3,,,,,,,,,2,,,68,0
12000,note_off,480,0,3,,,,,,,,,2,,,65,0
12000,note_off,480,0,2,,,,,,,,,1,,,74,0
12000,note_on,0,0,3,,,,,,,,,2,,,63,63
12000,note_on,0,0,3,,,,,,,,,2,,,67,63
12000,note_on,0,0,2,,,,,,,,,1,,,75,60
12480,note_off,480,0,2,,,,,,,,,1,,,75,0
12480,note_on,0,0,2,,,,,,,,,1,,,77,54
12480,note_off,480,0,3,,,,,,,,,2,,,63,0
12480,note_off,0,0,3,,,,,,,,,2,,,67,0
12480,note_on,0,0,3,,,,,,,,,2,,,62,56
12480,note_on,0,0,3,,,,,,,,,2,,,65,56
12610,note_off,1090,0,1,,,,,,,,,0,,,82,0
12610,note_off,130,0,2,,,,,,,,,1,,,77,0
12640,note_on,30,0,1,,,,,,,,,0,,,70,67
12800,note_on,0,0,1,,,,,,,,,0,,,72,66
12800,note_off,160,0,1,,,,,,,,,0,,,70,0
12907,note_off,427,0,3,,,,,,,,,2,,,65,0
12907,note_off,0,0,3,,,,,,,,,2,,,70,0
12907,note_off,0,0,3,,,,,,,,,2,,,62,0
12907,note_off,107,0,1,,,,,,,,,0,,,72,0
12920,set_tempo,1400,1,0,,,,,,1132075,,,,,,,
12960,note_on,53,0,1,,,,,,,,,0,,,69,66
12960,note_on,0,0,3,,,,,,,,,2,,,62,49
12960,note_on,53,0,3,,,,,,,,,2,,,58,49
13080,set_tempo,160,1,0,,,,,,1224489,,,,,,,
13087,note_off,127,0,1,,,,,,,,,0,,,69,0
13120,note_on,33,0,1,,,,,,,,,0,,,70,65
13222,note_off,102,0,1,,,,,,,,,0,,,70,0
13280,note_on,58,0,1,,,,,,,,,0,,,68,65
13320,set_tempo,240,1,0,,,,,,1276595,,,,,,,
13400,set_tempo,80,1,0,,,,,,2727272,,,,,,,
13404,note_off,124,0,1,,,,,,,,,0,,,68,0
13440,note_off,0,0,3,,,,,,,,,2,,,58,0
13440,note_off,480,0,3,,,,,,,,,2,,,62,0
13440,note_on,36,0,1,,,,,,,,,0,,,67,64
13440,note_on,0,0,2,,,,,,,,,1,,,64,59
13440,note_on,830,0,2,,,,,,,,,1,,,61,59
13440,set_tempo,40,1,0,,,,,,967741,,,,,,,
13440,note_on,0,0,2,,,,,,,,,1,,,58,59
14400,note_on,960,0,3,,,,,,,,,2,,,34,50
14400,note_on,0,0,3,,,,,,,,,2,,,46,50
14400,note_off,960,0,2,,,,,,,,,1,,,58,0
14400,note_off,0,0,2,,,,,,,,,1,,,64,0
14400,note_on,0,0,1,,,,,,,,,0,,,65,58
14400,note_off,0,0,2,,,,,,,,,1,,,61,0
14400,note_on,0,0,2,,,,,,,,,1,,,62,56
14400,note_on,0,0,2,,,,,,,,,1,,,56,56
14400,note_off,960,0,1,,,,,,,,,0,,,67,0
14880,set_tempo,1440,1,0,,,,,,1000000,,,,,,,
15360,note_on,0,0,3,,,,,,,,,2,,,47,50
15360,note_on,0,0,3,,,,,,,,,2,,,35,50
15360,note_off,0,0,3,,,,,,,,,2,,,34,0
15360,note_off,960,0,3,,,,,,,,,2,,,46,0
15360,note_off,960,0,2,,,,,,,,,1,,,56,0
15360,note_off,0,0,2,,,,,,,,,1,,,62,0
15360,note_on,0,0,2,,,,,,,,,1,,,54,54
15360,note_on,0,0,2,,,,,,,,,1,,,51,54
15360,note_off,960,0,1,,,,,,,,,0,,,65,0
15360,note_on,0,0,1,,,,,,,,,0,,,63,59
16740,note_off,1380,0,1,,,,,,,,,0,,,63,0
16740,note_off,0,0,2,,,,,,,,,1,,,51,0
16740,note_off,1380,0,2,,,,,,,,,1,,,54,0
16740,note_off,1380,0,3,,,,,,,,,2,,,35,0
16747,note_off,7,0,3,,,,,,,,,2,,,47,0
16800,note_on,0,0,3,,,,,,,,,2,,,54,48
16800,note_on,60,0,2,,,,,,,,,1,,,63,52
16800,note_on,53,0,3,,,,,,,,,2,,,47,48
16800,set_tempo,1920,1,0,,,,,,952380,,,,,,,
16800,note_on,60,0,1,,,,,,,,,0,,,66,55
17160,note_off,360,0,1,,,,,,,,,0,,,66,0
17160,note_on,0,0,1,,,,,,,,,0,,,71,56
17280,note_off,120,0,1,,,,,,,,,0,,,71,0
17280,note_on,0,0,1,,,,,,,,,0,,,71,57
17280,set_tempo,480,1,0,,,,,,952380,,,,,,,
17280,note_off,480,0,2,,,,,,,,,1,,,63,0
17280,note_off,480,0,3,,,,,,,,,2,,,54,0
17280,note_off,0,0,3,,,,,,,,,2,,,47,0
17280,note_on,0,0,3,,,,,,,,,2,,,49,50
17280,note_on,0,0,3,,,,,,,,,2,,,54,50
17280,note_on,0,0,2,,,,,,,,,1,,,64,54
17700,note_off,420,0,3,,,,,,,,,2,,,54,0
17700,note_off,0,0,3,,,,,,,,,2,,,49,0
17707,note_off,427,0,2,,,,,,,,,1,,,64,0
17707,note_off,427,0,1,,,,,,,,,0,,,71,0
17740,set_tempo,460,1,0,,,,,,923076,,,,,,,
17760,note_on,53,0,1,,,,,,,,,0,,,70,59
17760,note_on,0,0,3,,,,,,,,,2,,,49,52
17760,note_on,53,0,2,,,,,,,,,1,,,64,56
17760,note_on,60,0,3,,,,,,,,,2,,,54,52
18120,note_off,360,0,1,,,,,,,,,0,,,70,0
18120,note_on,0,0,1,,,,,,,,,0,,,76,61
18227,set_tempo,487,1,0,,,,,,923076,,,,,,,
18240,note_off,480,0,3,,,,,,,,,2,,,49,0
18240,note_off,0,0,3,,,,,,,,,2,,,54,0
18240,note_on,0,0,3,,,,,,,,,2,,,47,55
18240,note_on,0,0,2,,,,,,,,,1,,,63,58
18240,note_off,480,0,2,,,,,,,,,1,,,64,0
18240,note_on,0,0,3,,,,,,,,,2,,,54,55
18240,note_off,120,0,1,,,,,,,,,0,,,76,0
18240,note_on,0,0,1,,,,,,,,,0,,,75,62
18667,note_off,427,0,1,,,,,,,,,0,,,75,0
18667,note_off,427,0,3,,,,,,,,,2,,,54,0
18667,note_off,0,0,3,,,,,,,,,2,,,47,0
18667,note_off,427,0,2,,,,,,,,,1,,,63,0
18690,set_tempo,463,1,0,,,,,,895522,,,,,,,
18720,note_on,0,0,3,,,,,,,,,2,,,54,57
18720,note_on,53,0,3,,,,,,,,,2,,,46,57
18720,note_on,53,0,1,,,,,,,,,0,,,75,57
18840,note_on,0,0,1,,,,,,,,,0,,,77,59
18840,note_off,120,0,1,,,,,,,,,0,,,75,0
18880,note_on,40,0,1,,,,,,,,,0,,,75,60
18890,note_off,10,0,1,,,,,,,,,0,,,77,0
18920,note_on,30,0,1,,,,,,,,,0,,,74,60
18930,note_off,10,0,1,,,,,,,,,0,,,75,0
18960,note_on,30,0,1,,,,,,,,,0,,,75,61
18980,note_off,20,0,1,,,,,,,,,0,,,74,0
19067,set_tempo,377,1,0,,,,,,923076,,,,,,,
19080,note_on,100,0,1,,,,,,,,,0,,,77,63
19085,note_off,5,0,1,,,,,,,,,0,,,75,0
19200,note_off,480,0,3,,,,,,,,,2,,,46,0
19200,note_on,0,0,3,,,,,,,,,2,,,45,57
19200,note_off,115,0,1,,,,,,,,,0,,,77,0
19200,set_tempo,133,1,0,,,,,,967741,,,,,,,
19200,note_on,533,0,2,,,,,,,,,1,,,72,63
19200,note_on,0,0,1,,,,,,,,,0,,,78,69
19680,note_on,0,0,2,,,,,,,,,1,,,72,59
19680,note_off,480,0,3,,,,,,,,,2,,,54,0
19680,note_off,480,0,2,,,,,,,,,1,,,72,0
19680,note_on,0,0,3,,,,,,,,,2,,,53,55
19920,note_off,720,0,1,,,,,,,,,0,,,78,0
19920,note_on,0,0,1,,,,,,,,,0,,,75,61
20120,set_tempo,920,1,0,,,,,,1000000,,,,,,,
20160,note_off,240,0,1,,,,,,,,,0,,,75,0
20160,note_on,0,0,2,,,,,,,,,1,,,70,55
20160,note_off,480,0,2,,,,,,,,,1,,,72,0
20160,note_off,0,0,3,,,,,,,,,2,,,45,0
20160,note_on,0,0,3,,,,,,,,,2,,,46,52
20160,note_on,0,0,3,,,,,,,,,2,,,53,52
20160,note_off,480,0,3,,,,,,,,,2,,,53,0
20160,note_on,0,0,1,,,,,,,,,0,,,74,57
20580,note_off,420,0,2,,,,,,,,,1,,,70,0
20587,note_off,427,0,3,,,,,,,,,2,,,53,0
20587,note_off,0,0,3,,,,,,,,,2,,,46,0
20587,note_off,427,0,1,,,,,,,,,0,,,74,0
20640,note_on,53,0,3,,,,,,,,,2,,,44,55
20640,set_tempo,520,1,0,,,,,,967741,,,,,,,
20640,note_on,53,0,1,,,,,,,,,0,,,73,57
20640,note_on,0,0,3,,,,,,,,,2,,,52,55
20640,note_on,60,0,2,,,,,,,,,1,,,70,58
20760,note_on,120,0,1,,,,,,,,,0,,,75,59
20765,note_off,5,0,1,,,,,,,,,0,,,73,0
20800,note_on,35,0,1,,,,,,,,,0,,,73,59
20820,note_off,20,0,1,,,,,,,,,0,,,75,0
20840,note_on,20,0,1,,,,,,,,,0,,,72,60
20855,note_off,15,0,1,,,,,,,,,0,,,73,0
20880,note_on,25,0,1,,,,,,,,,0,,,73,61
20895,note_off,15,0,1,,,,,,,,,0,,,72,0
21000,note_on,0,0,1,,,,,,,,,0,,,75,63
21000,note_off,105,0,1,,,,,,,,,0,,,73,0
21010,set_tempo,370,1,0,,,,,,1034482,,,,,,,
21120,note_on,0,0,3,,,,,,,,,2,,,43,61
21120,set_tempo,110,1,0,,,,,,1000000,,,,,,,
21120,note_off,480,0,3,,,,,,,,,2,,,52,0
21120,note_on,120,0,1,,,,,,,,,0,,,76,65
21120,note_off,0,0,3,,,,,,,,,2,,,44,0
21120,note_on,0,0,3,,,,,,,,,2,,,52,61
21135,note_off,15,0,1,,,,,,,,,0,,,75,0
21600,note_on,0,0,2,,,,,,,,,1,,,70,60
21600,note_off,960,0,2,,,,,,,,,1,,,70,0
21600,note_off,480,0,3,,,,,,,,,2,,,52,0
21600,note_on,0,0,3,,,,,,,,,2,,,51,57
21840,note_on,0,0,1,,,,,,,,,0,,,75,61
21840,note_off,705,0,1,,,,,,,,,0,,,76,0
21960,note_on,0,0,1,,,,,,,,,0,,,73,60
21960,note_off,120,0,1,,,,,,,,,0,,,75,0
22040,set_tempo,920,1,0,,,,,,1000000,,,,,,,
22080,note_off,0,0,3,,,,,,,,,2,,,43,0
22080,note_on,0,0,3,,,,,,,,,2,,,44,54
22080,note_off,120,0,1,,,,,,,,,0,,,73,0
22080,note_on,0,0,1,,,,,,,,,0,,,71,59
22080,note_on,0,0,3,,,,,,,,,2,,,51,54
22080,note_off,480,0,2,,,,,,,,,1,,,70,0
22080,note_off,480,0,3,,,,,,,,,2,,,51,0
22080,note_on,0,0,2,,,,,,,,,1,,,68,56
22500,note_off,420,0,3,,,,,,,,,2,,,44,0
22507,note_off,427,0,2,,,,,,,,,1,,,68,0
22507,note_off,427,0,1,,,,,,,,,0,,,71,0
22507,note_off,7,0,3,,,,,,,,,2,,,51,0
22560,set_tempo,520,1,0,,,,,,1111111,,,,,,,
22560,note_on,53,0,3,,,,,,,,,2,,,42,62
22560,note_on,0,0,2,,,,,,,,,1,,,70,68
22560,note_on,0,0,3,,,,,,,,,2,,,46,62
22560,note_on,0,0,3,,,,,,,,,2,,,54,62
22560,note_on,53,0,2,,,,,,,,,1,,,63,68
22560,note_on,53,0,1,,,,,,,,,0,,,75,72
22987,note_off,427,0,1,,,,,,,,,0,,,75,0
22995,note_off,435,0,2,,,,,,,,,1,,,70,0
23002,note_off,7,0,2,,,,,,,,,1,,,63,0
23002,note_off,0,0,3,,,,,,,,,2,,,42,0
23002,note_off,442,0,3,,,,,,,,,2,,,54,0
23002,note_off,0,0,3,,,,,,,,,2,,,46,0
23040,note_on,38,0,2,,,,,,,,,1,,,62,59
23040,note_on,53,0,1,,,,,,,,,0,,,74,69
23040,set_tempo,480,1,0,,,,,,1363636,,,,,,,
23040,note_on,0,0,3,,,,,,,,,2,,,46,52
23040,note_on,38,0,3,,,,,,,,,2,,,41,52
23040,note_on,0,0,2,,,,,,,,,1,,,68,59
23040,note_on,0,0,2,,,,,,,,,1,,,70,59
23040,note_on,0,0,3,,,,,,,,,2,,,53,52
23520,set_tempo,480,1,0,,,,,,1071428,,,,,,,
23550,note_off,510,0,2,,,,,,,,,1,,,70,0
23557,note_off,7,0,2,,,,,,,,,1,,,68,0
23557,note_off,0,0,2,,,,,,,,,1,,,62,0
23575,note_off,535,0,1,,,,,,,,,0,,,74,0
23582,note_off,542,0,3,,,,,,,,,2,,,53,0
23582,note_off,0,0,3,,,,,,,,,2,,,46,0
23590,note_off,8,0,3,,,,,,,,,2,,,41,0
24240,note_on,683,0,2,,,,,,,,,1,,,62,59
24240,note_on,0,0,2,,,,,,,,,1,,,68,59
24240,note_on,0,0,2,,,,,,,,,1,,,70,59
24240,note_on,650,0,3,,,,,,,,,2,,,53,56
24240,note_on,0,0,3,,,,,,,,,2,,,41,56
24240,note_on,0,0,3,,,,,,,,,2,,,46,56
24240,set_tempo,720,1,0,,,,,,1111111,,,,,,,
24240,note_on,665,0,1,,,,,,,,,0,,,74,59
24480,note_on,0,0,3,,,,,,,,,2,,,46,62
24480,note_on,0,0,3,,,,,,,,,2,,,39,62
24480,note_on,0,0,3,,,,,,,,,2,,,51,62
24480,note_off,0,0,3,,,,,,,,,2,,,53,0
24480,note_off,0,0,3,,,,,,,,,2,,,41,0
24480,note_off,240,0,3,,,,,,,,,2,,,46,0
24480,note_on,0,0,1,,,,,,,,,0,,,75,65
24480,note_off,240,0,1,,,,,,,,,0,,,74,0
24480,note_on,0,0,2,,,,,,,,,1,,,66,65
24480,note_off,240,0,2,,,,,,,,,1,,,70,0
24480,note_off,0,0,2,,,,,,,,,1,,,68,0
24480,note_off,0,0,2,,,,,,,,,1,,,62,0
24480,note_on,0,0,2,,,,,,,,,1,,,63,65
24480,note_on,0,0,2,,,,,,,,,1,,,70,65
24720,note_on,0,0,3,,,,,,,,,2,,,51,54
24720,note_on,0,0,3,,,,,,,,,2,,,39,54
24720,note_on,0,0,3,,,,,,,,,2,,,46,54
24720,note_off,240,0,2,,,,,,,,,1,,,70,0
24720,note_off,0,0,2,,,,,,,,,1,,,63,0
24720,note_off,0,0,3,,,,,,,,,2,,,39,0
24720,note_on,0,0,2,,,,,,,,,1,,,63,58
24720,note_off,0,0,3,,,,,,,,,2,,,51,0
24720,note_on,0,0,2,,,,,,,,,1,,,66,58
24720,note_off,240,0,3,,,,,,,,,2,,,46,0
24720,note_on,0,0,2,,,,,,,,,1,,,70,58
24720,note_off,240,0,1,,,,,,,,,0,,,75,0
24720,note_on,0,0,1,,,,,,,,,0,,,75,58
24720,note_off,0,0,2,,,,,,,,,1,,,66,0
24840,set_tempo,600,1,0,,,,,,1132075,,,,,,,
24960,note_on,0,0,1,,,,,,,,,0,,,77,51
24960,note_off,240,0,3,,,,,,,,,2,,,51,0
24960,note_off,0,0,3,,,,,,,,,2,,,39,0
24960,note_off,0,0,3,,,,,,,,,2,,,46,0
24960,note_off,240,0,1,,,,,,,,,0,,,75,0
24960,note_on,0,0,3,,,,,,,,,2,,,50,47
24960,note_on,0,0,3,,,,,,,,,2,,,46,47
24960,note_on,0,0,3,,,,,,,,,2,,,38,47
24960,note_off,0,0,2,,,,,,,,,1,,,66,0
24960,note_off,0,0,2,,,,,,,,,1,,,63,0
24960,note_on,0,0,2,,,,,,,,,1,,,65,51
24960,note_on,0,0,2,,,,,,,,,1,,,70,51
24960,note_off,240,0,2,,,,,,,,,1,,,70,0
25440,note_off,0,0,2,,,,,,,,,1,,,65,0
25440,note_off,480,0,1,,,,,,,,,0,,,77,0
25440,note_off,480,0,3,,,,,,,,,2,,,38,0
25440,note_off,0,0,3,,,,,,,,,2,,,50,0
25440,note_off,0,0,3,,,,,,,,,2,,,46,0
25440,note_off,480,0,2,,,,,,,,,1,,,70,0
26160,note_on,720,0,2,,,,,,,,,1,,,70,55
26160,note_on,720,0,3,,,,,,,,,2,,,68,54
26160,note_on,720,0,1,,,,,,,,,0,,,74,55
26160,note_on,0,0,3,,,,,,,,,2,,,65,54
26400,note_on,0,0,3,,,,,,,,,2,,,66,60
26400,note_off,0,0,3,,,,,,,,,2,,,68,0
26400,note_off,240,0,3,,,,,,,,,2,,,65,0
26400,note_on,0,0,3,,,,,,,,,2,,,63,60
26400,note_off,240,0,1,,,,,,,,,0,,,74,0
26400,note_off,240,0,2,,,,,,,,,1,,,70,0
26400,note_on,0,0,2,,,,,,,,,1,,,70,64
26400,note_on,0,0,1,,,,,,,,,0,,,75,60
26640,note_on,0,0,2,,,,,,,,,1,,,70,57
26640,note_off,240,0,2,,,,,,,,,1,,,70,0
26640,note_on,0,0,3,,,,,,,,,2,,,63,54
26640,note_on,0,0,3,,,,,,,,,2,,,66,54
26640,note_off,0,0,3,,,,,,,,,2,,,66,0
26640,note_off,240,0,3,,,,,,,,,2,,,63,0
26640,note_off,240,0,1,,,,,,,,,0,,,75,0
26640,note_on,0,0,1,,,,,,,,,0,,,75,54
26775,set_tempo,1935,1,0,,,,,,1176470,,,,,,,
26880,note_on,0,0,3,,,,,,,,,2,,,62,47
26880,note_on,0,0,3,,,,,,,,,2,,,65,47
26880,note_off,240,0,3,,,,,,,,,2,,,63,0
26880,note_off,0,0,3,,,,,,,,,2,,,66,0
26880,note_on,0,0,2,,,,,,,,,1,,,70,50
26880,note_off,240,0,2,,,,,,,,,1,,,70,0
26880,note_off,240,0,1,,,,,,,,,0,,,75,0
26880,note_on,0,0,1,,,,,,,,,0,,,77,47
27360,note_off,480,0,1,,,,,,,,,0,,,77,0
27360,note_off,0,0,3,,,,,,,,,2,,,62,0
27360,note_off,480,0,2,,,,,,,,,1,,,70,0
27360,note_off,480,0,3,,,,,,,,,2,,,65,0
28080,note_on,0,0,3,,,,,,,,,2,,,65,68
28080,note_on,720,0,2,,,,,,,,,1,,,70,66
28080,note_on,720,0,3,,,,,,,,,2,,,62,68
28080,note_on,720,0,1,,,,,,,,,0,,,77,68
28320,note_off,240,0,3,,,,,,,,,2,,,65,0
28320,note_off,240,0,1,,,,,,,,,0,,,77,0
28320,note_on,0,0,1,,,,,,,,,0,,,79,74
28320,note_off,0,0,3,,,,,,,,,2,,,62,0
28320,note_on,0,0,3,,,,,,,,,2,,,61,74
28320,note_on,0,0,3,,,,,,,,,2,,,63,74
28320,note_off,240,0,2,,,,,,,,,1,,,70,0
28320,note_on,0,0,2,,,,,,,,,1,,,70,72
28560,note_on,0,0,1,,,,,,,,,0,,,80,66
28560,note_off,240,0,3,,,,,,,,,2,,,61,0
28560,note_on,0,0,2,,,,,,,,,1,,,68,65
28560,note_off,0,0,3,,,,,,,,,2,,,63,0
28560,note_off,240,0,1,,,,,,,,,0,,,79,0
28560,note_on,0,0,3,,,,,,,,,2,,,63,67
28560,note_on,0,0,3,,,,,,,,,2,,,59,67
28560,note_off,240,0,2,,,,,,,,,1,,,70,0
28680,set_tempo,1905,1,0,,,,,,1224489,,,,,,,
28800,note_off,240,0,3,,,,,,,,,2,,,59,0
28800,note_off,0,0,3,,,,,,,,,2,,,63,0
28800,note_on,0,0,3,,,,,,,,,2,,,59,59
28800,note_on,0,0,3,,,,,,,,,2,,,63,59
28800,note_off,240,0,2,,,,,,,,,1,,,68,0
28800,note_on,0,0,2,,,,,,,,,1,,,68,57
28800,note_on,0,0,1,,,,,,,,,0,,,80,57
28800,note_off,240,0,1,,,,,,,,,0,,,80,0
29280,note_off,0,0,3,,,,,,,,,2,,,59,0
29280,note_off,480,0,1,,,,,,,,,0,,,80,0
29280,note_off,480,0,3,,,,,,,,,2,,,63,0
29280,note_off,480,0,2,,,,,,,,,1,,,68,0
29760,set_tempo,1080,1,0,,,,,,1333333,,,,,,,
30000,note_on,0,0,3,,,,,,,,,2,,,65,54
30000,note_on,720,0,3,,,,,,,,,2,,,62,54
30000,note_on,720,0,2,,,,,,,,,1,,,70,54
30000,note_on,720,0,1,,,,,,,,,0,,,77,55
30240,note_on,0,0,2,,,,,,,,,1,,,70,60
30240,note_off,240,0,1,,,,,,,,,0,,,77,0
30240,note_on,0,0,1,,,,,,,,,0,,,79,61
30240,note_on,0,0,3,,,,,,,,,2,,,63,60
30240,note_off,0,0,3,,,,,,,,,2,,,62,0
30240,note_off,240,0,3,,,,,,,,,2,,,65,0
30240,note_on,0,0,3,,,,,,,,,2,,,61,60
30240,note_off,240,0,2,,,,,,,,,1,,,70,0
30480,note_on,0,0,3,,,,,,,,,2,,,60,54
30480,note_off,240,0,1,,,,,,,,,0,,,79,0
30480,note_on,0,0,3,,,,,,,,,2,,,63,54
30480,note_off,0,0,3,,,,,,,,,2,,,61,0
30480,note_off,240,0,3,,,,,,,,,2,,,63,0
30480,note_on,0,0,2,,,,,,,,,1,,,68,53
30480,note_on,0,0,1,,,,,,,,,0,,,80,55
30480,note_off,240,0,2,,,,,,,,,1,,,70,0
30600,set_tempo,840,1,0,,,,,,1428571,,,,,,,
30720,note_off,240,0,1,,,,,,,,,0,,,80,0
30720,note_off,240,0,3,,,,,,,,,2,,,63,0
30720,note_off,0,0,3,,,,,,,,,2,,,60,0
30720,note_off,240,0,2,,,,,,,,,1,,,68,0
31185,marker,585,1,0,,,,,,,,,,,,,
31200,note_on,0,0,3,,,,,,,,,2,,,63,45
31200,note_on,480,0,3,,,,,,,,,2,,,60,45
31200,note_on,0,0,1,,,,,,,,,0,,,68,48
31200,note_on,480,0,1,,,,,,,,,0,,,80,48
31680,note_off,480,0,3,,,,,,,,,2,,,63,0
31680,note_off,0,0,3,,,,,,,,,2,,,60,0
31680,note_off,480,0,1,,,,,,,,,0,,,68,0
31680,note_off,0,0,1,,,,,,,,,0,,,80,0
32160,note_on,480,0,3,,,,,,,,,2,,,63,32
32160,set_tempo,975,1,0,,,,,,2727272,,,,,,,
32160,note_on,0,0,3,,,,,,,,,2,,,60,32
32160,note_on,0,0,1,,,,,,,,,0,,,68,36
32160,note_on,480,0,1,,,,,,,,,0,,,80,36
32640,note_on,0,0,2,,,,,,,,,1,,,68,88
32640,control_change,480,0,3,,,,,,,7,117,2,,,,
32640,note_off,0,0,3,,,,,,,,,2,,,60,0
32640,note_off,0,0,3,,,,,,,,,2,,,63,0
32640,note_on,0,0,3,,,,,,,,,2,,,60,88
32640,note_on,0,0,3,,,,,,,,,2,,,63,88
32640,control_change,1920,0,2,,,,,,,7,117,1,,,,
32640,note_off,0,0,1,,,,,,,,,0,,,68,0
32640,note_off,0,0,1,,,,,,,,,0,,,80,0
32640,set_tempo,480,1,0,,,,,,248962,,,,,,,
32640,control_change,480,0,1,,,,,,,7,127,0,,,,
32640,note_on,0,0,1,,,,,,,,,0,,,80,88
34080,note_on,0,0,3,,,,,,,,,2,,,62,77
34080,note_on,0,0,3,,,,,,,,,2,,,59,77
34080,note_off,0,0,3,,,,,,,,,2,,,60,0
34080,note_off,1440,0,3,,,,,,,,,2,,,63,0
34080,note_off,1440,0,1,,,,,,,,,0,,,80,0
34080,note_on,0,0,1,,,,,,,,,0,,,74,78
34080,note_on,0,0,2,,,,,,,,,1,,,67,78
34080,note_off,1440,0,2,,,,,,,,,1,,,68,0
34320,note_off,0,0,3,,,,,,,,,2,,,59,0
34320,note_off,240,0,1,,,,,,,,,0,,,74,0
34320,note_on,0,0,1,,,,,,,,,0,,,79,78
34320,note_on,0,0,3,,,,,,,,,2,,,61,77
34320,note_off,240,0,3,,,,,,,,,2,,,62,0
34320,note_on,0,0,3,,,,,,,,,2,,,58,77
34560,note_on,0,0,1,,,,,,,,,0,,,79,77
34560,note_on,0,0,2,,,,,,,,,1,,,67,77
34560,note_on,0,0,3,,,,,,,,,2,,,58,76
34560,note_on,0,0,3,,,,,,,,,2,,,61,76
34560,note_off,0,0,3,,,,,,,,,2,,,61,0
34560,note_off,240,0,3,,,,,,,,,2,,,58,0
34560,note_off,240,0,1,,,,,,,,,0,,,79,0
34560,note_off,480,0,2,,,,,,,,,1,,,67,0
34920,note_off,360,0,3,,,,,,,,,2,,,58,0
34920,note_off,0,0,3,,,,,,,,,2,,,61,0
35040,note_on,0,0,1,,,,,,,,,0,,,72,76
35040,note_on,0,0,2,,,,,,,,,1,,,65,76
35040,note_off,480,0,2,,,,,,,,,1,,,67,0
35040,note_on,120,0,3,,,,,,,,,2,,,57,74
35040,note_on,0,0,3,,,,,,,,,2,,,60,74
35040,note_off,480,0,1,,,,,,,,,0,,,79,0
35280,note_off,240,0,1,,,,,,,,,0,,,72,0
35280,note_off,0,0,3,,,,,,,,,2,,,57,0
35280,note_on,0,0,1,,,,,,,,,0,,,77,75
35280,note_off,240,0,3,,,,,,,,,2,,,60,0
35280,note_on,0,0,3,,,,,,,,,2,,,59,73
35280,note_on,0,0,3,,,,,,,,,2,,,56,73
35520,note_on,0,0,3,,,,,,,,,2,,,59,72
35520,note_off,0,0,3,,,,,,,,,2,,,59,0
35520,note_off,240,0,3,,,,,,,,,2,,,56,0
35520,note_off,240,0,1,,,,,,,,,0,,,77,0
35520,note_off,480,0,2,,,,,,,,,1,,,65,0
35520,note_on,0,0,2,,,,,,,,,1,,,65,74
35520,note_on,0,0,1,,,,,,,,,0,,,77,74
35520,note_on,0,0,3,,,,,,,,,2,,,56,72
35880,note_off,360,0,3,,,,,,,,,2,,,56,0
35880,note_off,0,0,3,,,,,,,,,2,,,59,0
36000,note_off,480,0,2,,,,,,,,,1,,,65,0
36000,note_on,0,0,2,,,,,,,,,1,,,63,73
36000,note_on,0,0,1,,,,,,,,,0,,,70,73
36000,note_off,480,0,1,,,,,,,,,0,,,77,0
36000,note_on,0,0,3,,,,,,,,,2,,,55,71
36000,note_on,120,0,3,,,,,,,,,2,,,58,71
36240,note_on,0,0,3,,,,,,,,,2,,,57,70
36240,set_tempo,3600,1,0,,,,,,251046,,,,,,,
36240,note_off,0,0,3,,,,,,,,,2,,,58,0
36240,note_off,240,0,3,,,,,,,,,2,,,55,0
36240,note_on,0,0,1,,,,,,,,,0,,,75,72
36240,note_off,240,0,1,,,,,,,,,0,,,70,0
36240,note_on,0,0,3,,,,,,,,,2,,,54,70
36480,note_off,0,0,3,,,,,,,,,2,,,57,0
36480,note_off,240,0,3,,,,,,,,,2,,,54,0
36480,note_off,240,0,1,,,,,,,,,0,,,75,0
36480,note_on,0,0,3,,,,,,,,,2,,,53,79
36480,note_on,0,0,1,,,,,,,,,0,,,75,80
36480,note_on,0,0,3,,,,,,,,,2,,,56,79
36480,note_on,0,0,2,,,,,,,,,1,,,70,80
36480,note_off,480,0,2,,,,,,,,,1,,,63,0
36480,note_on,0,0,2,,,,,,,,,1,,,68,80
36480,note_on,0,0,2,,,,,,,,,1,,,63,80
37440,note_on,0,0,1,,,,,,,,,0,,,74,67
37440,note_off,960,0,1,,,,,,,,,0,,,75,0
37440,note_off,960,0,2,,,,,,,,,1,,,63,0
37440,note_on,0,0,2,,,,,,,,,1,,,62,67
37920,note_on,0,0,3,,,,,,,,,2,,,51,68
37920,note_off,480,0,2,,,,,,,,,1,,,62,0
37920,note_off,0,0,2,,,,,,,,,1,,,70,0
37920,note_on,0,0,2,,,,,,,,,1,,,70,65
37920,note_on,0,0,2,,,,,,,,,1,,,63,65
37920,note_on,0,0,3,,,,,,,,,2,,,55,68
37920,note_off,0,0,3,,,,,,,,,2,,,56,0
37920,note_off,1440,0,3,,,,,,,,,2,,,53,0
37920,note_off,480,0,1,,,,,,,,,0,,,74,0
37920,note_on,0,0,1,,,,,,,,,0,,,75,65
37920,note_off,0,0,2,,,,,,,,,1,,,68,0
38400,note_off,480,0,3,,,,,,,,,2,,,51,0
38400,note_off,0,0,3,,,,,,,,,2,,,55,0
38400,note_on,0,0,1,,,,,,,,,0,,,77,63
38400,note_on,0,0,3,,,,,,,,,2,,,53,66
38400,note_off,480,0,1,,,,,,,,,0,,,75,0
38400,note_off,480,0,2,,,,,,,,,1,,,63,0
38400,note_off,0,0,2,,,,,,,,,1,,,70,0
38400,note_on,0,0,2,,,,,,,,,1,,,70,63
38400,note_on,0,0,2,,,,,,,,,1,,,65,63
38400,note_on,0,0,3,,,,,,,,,2,,,50,66
38880,note_off,0,0,2,,,,,,,,,1,,,70,0
38880,note_on,0,0,2,,,,,,,,,1,,,67,62
38880,note_on,0,0,2,,,,,,,,,1,,,70,62
38880,note_off,480,0,2,,,,,,,,,1,,,65,0
38880,note_off,480,0,1,,,,,,,,,0,,,77,0
38880,note_on,0,0,1,,,,,,,,,0,,,79,62
38880,note_on,0,0,3,,,,,,,,,2,,,48,64
38880,note_off,0,0,3,,,,,,,,,2,,,50,0
38880,note_off,480,0,3,,,,,,,,,2,,,53,0
38880,note_on,0,0,3,,,,,,,,,2,,,51,64
39360,note_on,0,0,1,,,,,,,,,0,,,80,60
39360,note_off,480,0,1,,,,,,,,,0,,,79,0
39360,note_off,480,0,2,,,,,,,,,1,,,70,0
39360,note_off,480,0,3,,,,,,,,,2,,,51,0
39360,note_off,0,0,3,,,,,,,,,2,,,48,0
39360,note_on,0,0,3,,,,,,,,,2,,,50,63
39360,note_on,0,0,3,,,,,,,,,2,,,46,63
39360,note_on,0,0,2,,,,,,,,,1,,,70,60
39360,note_on,0,0,2,,,,,,,,,1,,,68,60
39360,note_off,0,0,2,,,,,,,,,1,,,67,0
39840,note_off,0,0,2,,,,,,,,,1,,,68,0
39840,note_off,480,0,2,,,,,,,,,1,,,70,0
39840,set_tempo,3600,1,0,,,,,,253164,,,,,,,
39840,note_off,0,0,3,,,,,,,,,2,,,50,0
39840,note_on,0,0,3,,,,,,,,,2,,,50,61
39840,note_on,0,0,3,,,,,,,,,2,,,53,61
39840,note_on,0,0,3,,,,,,,,,2,,,46,61
39840,note_on,0,0,2,,,,,,,,,1,,,70,58
39840,note_off,480,0,3,,,,,,,,,2,,,46,0
39840,note_on,0,0,1,,,,,,,,,0,,,82,58
39840,note_off,480,0,1,,,,,,,,,0,,,80,0
40320,note_off,0,0,3,,,,,,,,,2,,,53,0
40320,note_on,0,0,3,,,,,,,,,2,,,39,52
40320,note_off,480,0,3,,,,,,,,,2,,,50,0
40320,note_off,480,0,2,,,,,,,,,1,,,70,0
40320,note_off,0,0,3,,,,,,,,,2,,,46,0
40320,note_on,0,0,2,,,,,,,,,1,,,67,66
40320,set_tempo,480,1,0,,,,,,248962,,,,,,,
40320,note_on,0,0,2,,,,,,,,,1,,,70,66
40320,note_off,480,0,1,,,,,,,,,0,,,82,0
40320,note_on,0,0,1,,,,,,,,,0,,,79,66
40560,note_on,240,0,3,,,,,,,,,2,,,46,53
40560,note_off,240,0,2,,,,,,,,,1,,,67,0
40560,note_off,0,0,2,,,,,,,,,1,,,70,0
40560,note_off,240,0,1,,,,,,,,,0,,,79,0
40728,note_off,168,0,3,,,,,,,,,2,,,39,0
40800,note_on,72,0,3,,,,,,,,,2,,,55,54
40968,note_off,168,0,3,,,,,,,,,2,,,46,0
41040,note_on,72,0,3,,,,,,,,,2,,,46,55
41208,note_off,168,0,3,,,,,,,,,2,,,55,0
41280,note_on,72,0,3,,,,,,,,,2,,,39,56
41280,note_on,720,0,2,,,,,,,,,1,,,70,80
41280,note_on,720,0,1,,,,,,,,,0,,,82,80
41448,note_off,168,0,3,,,,,,,,,2,,,46,0
41520,note_on,72,0,3,,,,,,,,,2,,,46,56
41520,note_off,240,0,1,,,,,,,,,0,,,82,0
41520,note_off,240,0,2,,,,,,,,,1,,,70,0
41688,note_off,168,0,3,,,,,,,,,2,,,39,0
41760,note_on,72,0,3,,,,,,,,,2,,,55,57
41928,note_off,168,0,3,,,,,,,,,2,,,46,0
42000,note_on,72,0,3,,,,,,,,,2,,,46,58
42120,set_tempo,1800,1,0,,,,,,251046,,,,,,,
42168,note_off,168,0,3,,,,,,,,,2,,,55,0
42240,set_tempo,120,1,0,,,,,,248962,,,,,,,
42240,note_on,720,0,2,,,,,,,,,1,,,82,95
42240,note_on,720,0,1,,,,,,,,,0,,,94,95
42240,note_on,0,0,3,,,,,,,,,2,,,41,59
42240,note_off,72,0,3,,,,,,,,,2,,,46,0
42480,note_on,240,0,3,,,,,,,,,2,,,46,60
42648,note_off,168,0,3,,,,,,,,,2,,,41,0
42720,note_on,72,0,3,,,,,,,,,2,,,56,61
42888,note_off,168,0,3,,,,,,,,,2,,,46,0
42960,note_on,72,0,3,,,,,,,,,2,,,46,62
43128,note_off,168,0,3,,,,,,,,,2,,,56,0
43200,note_on,72,0,3,,,,,,,,,2,,,41,62
43368,note_off,168,0,3,,,,,,,,,2,,,46,0
43440,note_on,72,0,3,,,,,,,,,2,,,46,63
43608,note_off,168,0,3,,,,,,,,,2,,,41,0
43680,note_on,0,0,1,,,,,,,,,0,,,82,95
43680,note_off,1440,0,1,,,,,,,,,0,,,94,0
43680,note_off,1440,0,2,,,,,,,,,1,,,82,0
43680,note_on,72,0,3,,,,,,,,,2,,,56,64
43680,note_on,0,0,2,,,,,,,,,1,,,70,95
43848,note_off,168,0,3,,,,,,,,,2,,,46,0
43920,note_on,72,0,3,,,,,,,,,2,,,46,65
44088,note_off,168,0,3,,,,,,,,,2,,,56,0
44160,note_off,72,0,3,,,,,,,,,2,,,46,0
44160,note_on,0,0,3,,,,,,,,,2,,,43,66
44400,note_on,240,0,3,,,,,,,,,2,,,46,67
44624,note_off,224,0,3,,,,,,,,,2,,,43,0
44640,note_on,16,0,3,,,,,,,,,2,,,58,66
44808,note_off,168,0,3,,,,,,,,,2,,,46,0
44880,note_on,72,0,3,,,,,,,,,2,,,46,65
45048,note_off,168,0,3,,,,,,,,,2,,,58,0
45120,note_on,72,0,3,,,,,,,,,2,,,43,64
45288,note_off,168,0,3,,,,,,,,,2,,,46,0
45360,note_on,72,0,3,,,,,,,,,2,,,46,63
45528,note_off,168,0,3,,,,,,,,,2,,,43,0
45600,note_on,72,0,3,,,,,,,,,2,,,58,61
45600,note_on,0,0,1,,,,,,,,,0,,,79,86
45600,note_off,1920,0,1,,,,,,,,,0,,,82,0
45600,note_off,1920,0,2,,,,,,,,,1,,,70,0
45600,note_on,0,0,2,,,,,,,,,1,,,67,86
45768,note_off,168,0,3,,,,,,,,,2,,,46,0
45840,note_on,72,0,3,,,,,,,,,2,,,46,60
46008,note_off,168,0,3,,,,,,,,,2,,,58,0
46080,note_off,72,0,3,,,,,,,,,2,,,46,0
46080,note_on,0,0,3,,,,,,,,,2,,,44,59
46080,note_off,480,0,2,,,,,,,,,1,,,67,0
46080,note_off,480,0,1,,,,,,,,,0,,,79,0
46080,note_on,0,0,1,,,,,,,,,0,,,77,84
46080,note_on,0,0,2,,,,,,,,,1,,,65,84
46320,note_on,240,0,3,,,,,,,,,2,,,46,58
46516,note_off,196,0,3,,,,,,,,,2,,,44,0
46560,note_on,0,0,2,,,,,,,,,1,,,62,82
46560,note_off,480,0,1,,,,,,,,,0,,,77,0
46560,note_on,0,0,1,,,,,,,,,0,,,74,82
46560,note_on,44,0,3,,,,,,,,,2,,,56,57
46560,note_off,480,0,2,,,,,,,,,1,,,65,0
46756,note_off,196,0,3,,,,,,,,,2,,,46,0
46800,note_on,44,0,3,,,,,,,,,2,,,46,56
46996,note_off,196,0,3,,,,,,,,,2,,,56,0
47040,note_on,44,0,3,,,,,,,,,2,,,34,55
47040,note_on,0,0,2,,,,,,,,,1,,,59,80
47040,note_on,0,0,1,,,,,,,,,0,,,71,80
47040,note_off,480,0,1,,,,,,,,,0,,,74,0
47040,note_off,480,0,2,,,,,,,,,1,,,62,0
47236,note_off,196,0,3,,,,,,,,,2,,,46,0
47280,note_on,44,0,3,,,,,,,,,2,,,46,53
47476,note_off,196,0,3,,,,,,,,,2,,,34,0
47520,note_on,44,0,3,,,,,,,,,2,,,53,52
47520,note_on,0,0,1,,,,,,,,,0,,,70,78
47520,note_off,480,0,2,,,,,,,,,1,,,59,0
47520,note_off,480,0,1,,,,,,,,,0,,,71,0
47520,note_on,0,0,2,,,,,,,,,1,,,58,78
47595,set_tempo,5355,1,0,,,,,,251046,,,,,,,
47716,note_off,196,0,3,,,,,,,,,2,,,46,0
47760,note_on,44,0,3,,,,,,,,,2,,,46,51
47956,note_off,196,0,3,,,,,,,,,2,,,53,0
48000,note_off,480,0,2,,,,,,,,,1,,,58,0
48000,note_on,0,0,2,,,,,,,,,1,,,58,76
48000,note_off,44,0,3,,,,,,,,,2,,,46,0
48000,note_on,0,0,3,,,,,,,,,2,,,39,50
48000,note_off,480,0,1,,,,,,,,,0,,,70,0
48000,note_on,0,0,1,,,,,,,,,0,,,70,76
48000,set_tempo,405,1,0,,,,,,248962,,,,,,,
48240,note_on,240,0,3,,,,,,,,,2,,,46,51
48240,note_off,240,0,2,,,,,,,,,1,,,58,0
48240,note_off,240,0,1,,,,,,,,,0,,,70,0
48436,note_off,196,0,3,,,,,,,,,2,,,39,0
48480,note_on,44,0,3,,,,,,,,,2,,,55,52
48648,note_off,168,0,3,,,,,,,,,2,,,46,0
48720,note_on,72,0,3,,,,,,,,,2,,,46,53
48888,note_off,168,0,3,,,,,,,,,2,,,55,0
48960,note_on,720,0,2,,,,,,,,,1,,,70,85
48960,note_on,72,0,3,,,,,,,,,2,,,39,53
48960,note_on,720,0,1,,,,,,,,,0,,,82,85
49128,note_off,168,0,3,,,,,,,,,2,,,46,0
49200,note_off,240,0,2,,,,,,,,,1,,,70,0
49200,note_on,72,0,3,,,,,,,,,2,,,46,54
49200,note_off,240,0,1,,,,,,,,,0,,,82,0
49368,note_off,168,0,3,,,,,,,,,2,,,39,0
49440,note_on,72,0,3,,,,,,,,,2,,,55,55
49608,note_off,168,0,3,,,,,,,,,2,,,46,0
49680,note_on,72,0,3,,,,,,,,,2,,,46,56
49800,set_tempo,1800,1,0,,,,,,251046,,,,,,,
49848,note_off,168,0,3,,,,,,,,,2,,,55,0
49920,note_on,720,0,2,,,,,,,,,1,,,82,94
49920,note_on,720,0,1,,,,,,,,,0,,,94,94
49920,set_tempo,120,1,0,,,,,,248962,,,,,,,
49920,note_on,0,0,3,,,,,,,,,2,,,41,57
49920,note_off,72,0,3,,,,,,,,,2,,,46,0
50160,note_on,240,0,3,,,,,,,,,2,,,46,58
50356,note_off,196,0,3,,,,,,,,,2,,,41,0
50400,note_on,44,0,3,,,,,,,,,2,,,56,59
50568,note_off,168,0,3,,,,,,,,,2,,,46,0
50640,note_on,72,0,3,,,,,,,,,2,,,46,60
50808,note_off,168,0,3,,,,,,,,,2,,,56,0
50880,note_on,72,0,3,,,,,,,,,2,,,41,61
51048,note_off,168,0,3,,,,,,,,,2,,,46,0
51120,note_on,72,0,3,,,,,,,,,2,,,46,62
51288,note_off,168,0,3,,,,,,,,,2,,,41,0
51360,note_off,1440,0,1,,,,,,,,,0,,,94,0
51360,note_on,0,0,2,,,,,,,,,1,,,70,95
51360,note_on,72,0,3,,,,,,,,,2,,,56,63
51360,note_off,1440,0,2,,,,,,,,,1,,,82,0
51360,note_on,0,0,1,,,,,,,,,0,,,82,95
51528,note_off,168,0,3,,,,,,,,,2,,,46,0
51600,note_on,72,0,3,,,,,,,,,2,,,46,64
51768,note_off,168,0,3,,,,,,,,,2,,,56,0
51840,note_on,72,0,3,,,,,,,,,2,,,43,64
51868,note_off,28,0,3,,,,,,,,,2,,,46,0
52080,note_on,212,0,3,,,,,,,,,2,,,51,65
52276,note_off,196,0,3,,,,,,,,,2,,,43,0
52320,note_on,44,0,3,,,,,,,,,2,,,58,65
52488,note_off,168,0,3,,,,,,,,,2,,,51,0
52560,note_on,72,0,3,,,,,,,,,2,,,51,64
52728,note_off,168,0,3,,,,,,,,,2,,,58,0
52800,note_on,72,0,3,,,,,,,,,2,,,43,63
52968,note_off,168,0,3,,,,,,,,,2,,,51,0
53040,note_on,72,0,3,,,,,,,,,2,,,51,62
53208,note_off,168,0,3,,,,,,,,,2,,,43,0
53280,note_on,0,0,2,,,,,,,,,1,,,67,90
53280,note_off,1920,0,1,,,,,,,,,0,,,82,0
53280,note_off,1920,0,2,,,,,,,,,1,,,70,0
53280,note_on,72,0,3,,,,,,,,,2,,,58,61
53280,note_on,0,0,1,,,,,,,,,0,,,79,90
53448,note_off,168,0,3,,,,,,,,,2,,,51,0
53520,note_on,72,0,3,,,,,,,,,2,,,51,61
53688,note_off,168,0,3,,,,,,,,,2,,,58,0
53760,note_on,0,0,2,,,,,,,,,1,,,64,87
53760,note_off,480,0,2,,,,,,,,,1,,,67,0
53760,note_on,0,0,1,,,,,,,,,0,,,76,87
53760,note_off,480,0,1,,,,,,,,,0,,,79,0
53760,note_on,0,0,3,,,,,,,,,2,,,44,60
53760,note_off,72,0,3,,,,,,,,,2,,,51,0
54000,note_on,240,0,3,,,,,,,,,2,,,51,59
54240,note_on,0,0,2,,,,,,,,,1,,,65,83
54240,note_off,480,0,1,,,,,,,,,0,,,76,0
54240,note_on,0,0,1,,,,,,,,,0,,,77,83
54240,note_on,240,0,3,,,,,,,,,2,,,60,58
54240,note_off,480,0,2,,,,,,,,,1,,,64,0
54252,note_off,12,0,3,,,,,,,,,2,,,44,0
54380,note_off,128,0,3,,,,,,,,,2,,,51,0
54480,note_on,100,0,3,,,,,,,,,2,,,51,58
54620,note_off,140,0,3,,,,,,,,,2,,,60,0
54720,note_off,480,0,2,,,,,,,,,1,,,65,0
54720,note_on,0,0,1,,,,,,,,,0,,,72,80
54720,note_on,100,0,3,,,,,,,,,2,,,45,57
54720,note_on,0,0,2,,,,,,,,,1,,,60,80
54720,note_off,480,0,1,,,,,,,,,0,,,77,0
54860,note_off,140,0,3,,,,,,,,,2,,,51,0
54960,note_on,100,0,3,,,,,,,,,2,,,53,56
55100,note_off,140,0,3,,,,,,,,,2,,,45,0
55200,note_off,480,0,1,,,,,,,,,0,,,72,0
55200,note_on,100,0,3,,,,,,,,,2,,,60,55
55200,note_off,480,0,2,,,,,,,,,1,,,60,0
55200,note_on,0,0,1,,,,,,,,,0,,,75,77
55200,note_on,0,0,2,,,,,,,,,1,,,63,77
55260,set_tempo,5340,1,0,,,,,,256410,,,,,,,
55340,note_off,140,0,3,,,,,,,,,2,,,53,0
55440,note_on,100,0,3,,,,,,,,,2,,,53,55
55580,note_off,140,0,3,,,,,,,,,2,,,60,0
55680,note_on,0,0,2,,,,,,,,,1,,,62,72
55680,note_on,0,0,1,,,,,,,,,0,,,74,72
55680,note_on,0,0,3,,,,,,,,,2,,,46,54
55680,note_on,0,0,3,,,,,,,,,2,,,58,54
55680,note_off,100,0,3,,,,,,,,,2,,,53,0
55680,set_tempo,420,1,0,,,,,,248962,,,,,,,
55680,note_off,480,0,2,,,,,,,,,1,,,63,0
55680,note_off,480,0,1,,,,,,,,,0,,,75,0
55920,note_off,240,0,1,,,,,,,,,0,,,74,0
55920,note_on,0,0,1,,,,,,,,,0,,,70,66
55920,note_off,240,0,2,,,,,,,,,1,,,62,0
56040,note_off,0,0,3,,,,,,,,,2,,,58,0
56040,note_off,360,0,3,,,,,,,,,2,,,46,0
56160,note_off,240,0,1,,,,,,,,,0,,,70,0
56160,note_on,0,0,1,,,,,,,,,0,,,69,66
56160,note_on,120,0,3,,,,,,,,,2,,,63,58
56400,note_off,240,0,1,,,,,,,,,0,,,69,0
56400,note_on,0,0,1,,,,,,,,,0,,,70,67
56400,note_on,0,0,3,,,,,,,,,2,,,62,59
56400,note_off,240,0,3,,,,,,,,,2,,,63,0
56640,note_on,0,0,3,,,,,,,,,2,,,60,60
56640,note_off,240,0,3,,,,,,,,,2,,,62,0
56640,note_on,0,0,1,,,,,,,,,0,,,72,67
56640,note_off,240,0,1,,,,,,,,,0,,,70,0
56640,note_on,720,0,2,,,,,,,,,1,,,69,67
56880,note_on,0,0,1,,,,,,,,,0,,,74,67
56880,note_off,240,0,2,,,,,,,,,1,,,69,0
56880,note_on,0,0,2,,,,,,,,,1,,,70,67
56880,note_off,240,0,3,,,,,,,,,2,,,60,0
56880,note_on,0,0,3,,,,,,,,,2,,,58,61
56880,note_off,240,0,1,,,,,,,,,0,,,72,0
57120,note_off,240,0,1,,,,,,,,,0,,,74,0
57120,note_on,0,0,1,,,,,,,,,0,,,75,68
57120,note_off,240,0,2,,,,,,,,,1,,,70,0
57120,note_on,0,0,2,,,,,,,,,1,,,72,68
57120,note_off,240,0,3,,,,,,,,,2,,,58,0
57120,note_on,0,0,3,,,,,,,,,2,,,57,61
57360,note_off,240,0,2,,,,,,,,,1,,,72,0
57360,note_on,0,0,2,,,,,,,,,1,,,74,68
57360,note_off,240,0,3,,,,,,,,,2,,,57,0
57360,note_on,0,0,3,,,,,,,,,2,,,56,62
57360,note_on,0,0,1,,,,,,,,,0,,,77,68
57360,note_off,240,0,1,,,,,,,,,0,,,75,0
57600,note_on,0,0,3,,,,,,,,,2,,,55,63
57600,note_on,0,0,2,,,,,,,,,1,,,75,69
57600,note_off,240,0,2,,,,,,,,,1,,,74,0
57600,note_on,0,0,1,,,,,,,,,0,,,79,69
57600,note_off,240,0,1,,,,,,,,,0,,,77,0
57600,note_off,240,0,3,,,,,,,,,2,,,56,0
57840,note_off,240,0,3,,,,,,,,,2,,,55,0
57840,note_on,0,0,3,,,,,,,,,2,,,53,64
58080,note_off,240,0,3,,,,,,,,,2,,,53,0
58080,note_on,0,0,3,,,,,,,,,2,,,51,65
58320,note_off,240,0,3,,,,,,,,,2,,,51,0
58320,note_on,0,0,3,,,,,,,,,2,,,50,65
58560,note_on,0,0,2,,,,,,,,,1,,,80,71
58560,note_off,240,0,3,,,,,,,,,2,,,50,0
58560,note_on,0,0,3,,,,,,,,,2,,,51,66
58560,note_off,960,0,2,,,,,,,,,1,,,75,0
58560,note_on,0,0,1,,,,,,,,,0,,,84,71
58560,note_off,960,0,1,,,,,,,,,0,,,79,0
58800,note_on,0,0,1,,,,,,,,,0,,,82,71
58800,note_off,240,0,1,,,,,,,,,0,,,84,0
58800,note_off,240,0,3,,,,,,,,,2,,,51,0
58800,note_on,0,0,2,,,,,,,,,1,,,79,71
58800,note_off,240,0,2,,,,,,,,,1,,,80,0
58800,note_on,0,0,3,,,,,,,,,2,,,53,67
59040,note_on,0,0,1,,,,,,,,,0,,,80,71
59040,note_on,0,0,2,,,,,,,,,1,,,77,71
59040,note_off,240,0,2,,,,,,,,,1,,,79,0
59040,note_on,0,0,3,,,,,,,,,2,,,55,68
59040,note_off,240,0,3,,,,,,,,,2,,,53,0
59040,note_off,240,0,1,,,,,,,,,0,,,82,0
59280,note_off,240,0,2,,,,,,,,,1,,,77,0
59280,note_on,0,0,3,,,,,,,,,2,,,56,68
59280,note_off,240,0,3,,,,,,,,,2,,,55,0
59280,note_on,0,0,2,,,,,,,,,1,,,75,72
59280,note_on,0,0,1,,,,,,,,,0,,,79,72
59280,note_off,240,0,1,,,,,,,,,0,,,80,0
59520,note_on,0,0,1,,,,,,,,,0,,,77,72
59520,note_off,240,0,1,,,,,,,,,0,,,79,0
59520,note_on,0,0,3,,,,,,,,,2,,,58,69
59520,note_off,240,0,3,,,,,,,,,2,,,56,0
59520,note_off,240,0,2,,,,,,,,,1,,,75,0
59520,note_on,0,0,2,,,,,,,,,1,,,74,72
60000,note_on,0,0,3,,,,,,,,,2,,,60,71
60000,note_off,480,0,1,,,,,,,,,0,,,77,0
60000,note_off,480,0,3,,,,,,,,,2,,,58,0
60000,note_off,480,0,2,,,,,,,,,1,,,74,0
60240,note_on,0,0,3,,,,,,,,,2,,,62,72
60240,note_off,240,0,3,,,,,,,,,2,,,60,0
60480,note_on,480,0,1,,,,,,,,,0,,,96,74
60480,note_on,0,0,3,,,,,,,,,2,,,63,72
60480,note_off,240,0,3,,,,,,,,,2,,,62,0
60480,note_on,480,0,2,,,,,,,,,1,,,92,74
60720,note_off,240,0,3,,,,,,,,,2,,,63,0
60720,note_on,0,0,3,,,,,,,,,2,,,65,73
60720,note_on,0,0,2,,,,,,,,,1,,,91,75
60720,note_off,240,0,2,,,,,,,,,1,,,92,0
60720,note_off,240,0,1,,,,,,,,,0,,,96,0
60720,note_on,0,0,1,,,,,,,,,0,,,94,75
60960,note_on,0,0,2,,,,,,,,,1,,,89,75
60960,note_off,240,0,2,,,,,,,,,1,,,91,0
60960,note_off,240,0,3,,,,,,,,,2,,,65,0
60960,note_off,240,0,1,,,,,,,,,0,,,94,0
60960,note_on,0,0,3,,,,,,,,,2,,,67,74
60960,note_on,0,0,1,,,,,,,,,0,,,92,75
61200,note_on,0,0,3,,,,,,,,,2,,,68,75
61200,note_off,240,0,3,,,,,,,,,2,,,67,0
61200,note_on,0,0,2,,,,,,,,,1,,,87,75
61200,note_off,240,0,2,,,,,,,,,1,,,89,0
61200,note_on,0,0,1,,,,,,,,,0,,,91,75
61200,note_off,240,0,1,,,,,,,,,0,,,92,0
61440,note_on,0,0,1,,,,,,,,,0,,,89,76
61440,note_off,240,0,1,,,,,,,,,0,,,91,0
61440,note_on,0,0,3,,,,,,,,,2,,,70,75
61440,note_on,0,0,2,,,,,,,,,1,,,84,76
61440,note_on,0,0,2,,,,,,,,,1,,,86,76
61440,note_off,240,0,2,,,,,,,,,1,,,87,0
61440,note_off,240,0,3,,,,,,,,,2,,,68,0
61800,set_tempo,6120,1,0,,,,,,251046,,,,,,,
61920,note_off,480,0,1,,,,,,,,,0,,,89,0
61920,note_on,0,0,1,,,,,,,,,0,,,84,77
61920,note_on,0,0,3,,,,,,,,,2,,,68,77
61920,note_off,480,0,3,,,,,,,,,2,,,70,0
61920,note_off,480,0,2,,,,,,,,,1,,,84,0
61920,note_off,0,0,2,,,,,,,,,1,,,86,0
61920,note_on,0,0,2,,,,,,,,,1,,,74,77
62160,note_off,240,0,3,,,,,,,,,2,,,68,0
62160,note_on,0,0,1,,,,,,,,,0,,,82,77
62160,note_off,240,0,2,,,,,,,,,1,,,74,0
62160,note_on,0,0,2,,,,,,,,,1,,,75,77
62160,note_off,240,0,1,,,,,,,,,0,,,84,0
62160,note_on,0,0,3,,,,,,,,,2,,,67,78
62400,note_off,240,0,2,,,,,,,,,1,,,75,0
62400,note_on,0,0,2,,,,,,,,,1,,,71,78
62400,note_off,240,0,1,,,,,,,,,0,,,82,0
62400,note_on,0,0,1,,,,,,,,,0,,,80,78
62400,note_on,0,0,3,,,,,,,,,2,,,65,79
62400,note_off,240,0,3,,,,,,,,,2,,,67,0
62640,note_on,0,0,3,,,,,,,,,2,,,63,79
62640,note_off,240,0,2,,,,,,,,,1,,,71,0
62640,note_on,0,0,2,,,,,,,,,1,,,72,78
62640,note_off,240,0,3,,,,,,,,,2,,,65,0
62640,note_on,0,0,1,,,,,,,,,0,,,79,78
62640,note_off,240,0,1,,,,,,,,,0,,,80,0
62795,note_off,155,0,1,,,,,,,,,0,,,79,0
62795,note_off,155,0,3,,,,,,,,,2,,,63,0
62795,note_off,155,0,2,,,,,,,,,1,,,72,0
62880,note_on,85,0,2,,,,,,,,,1,,,67,78
62880,note_on,85,0,1,,,,,,,,,0,,,77,78
62880,note_on,85,0,3,,,,,,,,,2,,,62,80
63035,note_off,155,0,2,,,,,,,,,1,,,67,0
63035,note_off,155,0,1,,,,,,,,,0,,,77,0
63035,note_off,155,0,3,,,,,,,,,2,,,62,0
63120,note_on,85,0,2,,,,,,,,,1,,,75,79
63120,note_on,85,0,1,,,,,,,,,0,,,78,79
63120,note_on,85,0,3,,,,,,,,,2,,,60,81
63275,note_off,155,0,2,,,,,,,,,1,,,75,0
63275,note_off,155,0,3,,,,,,,,,2,,,60,0
63275,note_off,155,0,1,,,,,,,,,0,,,78,0
63360,note_on,85,0,2,,,,,,,,,1,,,74,78
63360,note_on,85,0,1,,,,,,,,,0,,,79,78
63360,note_on,85,0,3,,,,,,,,,2,,,59,84
63515,note_off,155,0,3,,,,,,,,,2,,,59,0
63515,note_off,155,0,1,,,,,,,,,0,,,79,0
63515,note_off,155,0,2,,,,,,,,,1,,,74,0
63600,note_on,85,0,2,,,,,,,,,1,,,74,81
63600,note_on,0,0,2,,,,,,,,,1,,,78,81
63600,note_on,85,0,1,,,,,,,,,0,,,81,81
63600,note_on,85,0,3,,,,,,,,,2,,,57,86
63755,note_off,155,0,3,,,,,,,,,2,,,57,0
63755,note_off,155,0,2,,,,,,,,,1,,,78,0
63755,note_off,155,0,1,,,,,,,,,0,,,81,0
63755,note_off,0,0,2,,,,,,,,,1,,,74,0
63840,note_on,0,0,2,,,,,,,,,1,,,74,84
63840,note_on,85,0,2,,,,,,,,,1,,,79,84
63840,note_on,85,0,3,,,,,,,,,2,,,55,88
63840,note_on,85,0,1,,,,,,,,,0,,,83,85
63995,note_off,155,0,2,,,,,,,,,1,,,74,0
63995,note_off,155,0,3,,,,,,,,,2,,,55,0
63995,note_off,155,0,1,,,,,,,,,0,,,83,0
63995,note_off,0,0,2,,,,,,,,,1,,,79,0
64080,note_on,0,0,2,,,,,,,,,1,,,74,86
64080,note_on,85,0,2,,,,,,,,,1,,,79,86
64080,note_on,85,0,3,,,,,,,,,2,,,53,90
64080,note_on,85,0,1,,,,,,,,,0,,,83,88
64235,note_off,155,0,3,,,,,,,,,2,,,53,0
64235,note_off,155,0,2,,,,,,,,,1,,,74,0
64235,note_off,0,0,2,,,,,,,,,1,,,79,0
64235,note_off,155,0,1,,,,,,,,,0,,,83,0
64320,note_on,85,0,3,,,,,,,,,2,,,51,92
64320,note_on,85,0,2,,,,,,,,,1,,,75,89
64320,note_on,0,0,2,,,,,,,,,1,,,79,89
64320,note_on,85,0,1,,,,,,,,,0,,,84,92
64475,note_off,155,0,2,,,,,,,,,1,,,79,0
64475,note_off,0,0,2,,,,,,,,,1,,,75,0
64475,note_off,155,0,3,,,,,,,,,2,,,51,0
64475,note_off,155,0,1,,,,,,,,,0,,,84,0
64560,note_on,85,0,2,,,,,,,,,1,,,83,92
64560,note_on,85,0,3,,,,,,,,,2,,,50,95
64560,note_on,85,0,1,,,,,,,,,0,,,86,95
64560,note_on,0,0,2,,,,,,,,,1,,,77,92
64715,note_off,0,0,2,,,,,,,,,1,,,83,0
64715,note_off,155,0,2,,,,,,,,,1,,,77,0
64715,note_off,155,0,1,,,,,,,,,0,,,86,0
64715,note_off,155,0,3,,,,,,,,,2,,,50,0
64800,note_on,85,0,3,,,,,,,,,2,,,48,97
64800,note_on,0,0,2,,,,,,,,,1,,,79,95
64800,note_on,85,0,1,,,,,,,,,0,,,87,98
64800,note_on,85,0,2,,,,,,,,,1,,,84,95
64955,note_off,155,0,3,,,,,,,,,2,,,48,0
64955,note_off,155,0,2,,,,,,,,,1,,,79,0
64955,note_off,0,0,2,,,,,,,,,1,,,84,0
64955,note_off,155,0,1,,,,,,,,,0,,,87,0
65040,note_on,85,0,1,,,,,,,,,0,,,88,102
65040,note_on,85,0,3,,,,,,,,,2,,,48,99
65040,note_on,0,0,3,,,,,,,,,2,,,46,99
65040,note_on,85,0,2,,,,,,,,,1,,,84,97
65040,note_on,0,0,2,,,,,,,,,1,,,79,97
65175,set_tempo,3375,1,0,,,,,,256410,,,,,,,
65195,note_off,155,0,3,,,,,,,,,2,,,46,0
65195,note_off,0,0,3,,,,,,,,,2,,,48,0
65195,note_off,155,0,1,,,,,,,,,0,,,88,0
65195,note_off,155,0,2,,,,,,,,,1,,,79,0
65195,note_off,0,0,2,,,,,,,,,1,,,84,0
65280,note_on,85,0,3,,,,,,,,,2,,,46,101
65280,note_on,0,0,3,,,,,,,,,2,,,48,101
65280,note_on,85,0,1,,,,,,,,,0,,,88,105
65280,note_on,85,0,2,,,,,,,,,1,,,79,100
65280,note_on,0,0,2,,,,,,,,,1,,,84,100
65280,set_tempo,105,1,0,,,,,,271493,,,,,,,
65640,note_off,360,0,2,,,,,,,,,1,,,84,0
65640,note_off,0,0,2,,,,,,,,,1,,,79,0
65640,note_off,360,0,1,,,,,,,,,0,,,88,0
65640,note_off,360,0,3,,,,,,,,,2,,,48,0
65640,note_off,0,0,3,,,,,,,,,2,,,46,0
66240,note_on,600,0,1,,,,,,,,,0,,,89,104
66240,note_on,0,0,2,,,,,,,,,1,,,84,104
66240,note_on,600,0,2,,,,,,,,,1,,,77,104
66240,note_on,600,0,3,,,,,,,,,2,,,45,100
66240,note_on,0,0,3,,,,,,,,,2,,,48,100
66600,note_off,360,0,2,,,,,,,,,1,,,84,0
66600,note_off,0,0,2,,,,,,,,,1,,,77,0
66600,note_off,360,0,3,,,,,,,,,2,,,48,0
66600,note_off,0,0,3,,,,,,,,,2,,,45,0
66600,note_off,360,0,1,,,,,,,,,0,,,89,0
66720,set_tempo,1440,1,0,,,,,,408163,,,,,,,
67200,note_on,600,0,1,,,,,,,,,0,,,75,97
67200,note_on,600,0,2,,,,,,,,,1,,,70,96
67200,note_on,600,0,3,,,,,,,,,2,,,48,98
67200,note_on,0,0,3,,,,,,,,,2,,,42,98
67200,set_tempo,480,1,0,,,,,,248962,,,,,,,
68640,note_off,1440,0,3,,,,,,,,,2,,,42,0
68640,note_on,0,0,3,,,,,,,,,2,,,41,85
68640,note_off,1440,0,1,,,,,,,,,0,,,75,0
68640,note_on,0,0,1,,,,,,,,,0,,,77,87
68950,note_off,310,0,1,,,,,,,,,0,,,77,0
69025,note_off,385,0,3,,,,,,,,,2,,,41,0
69120,note_on,170,0,1,,,,,,,,,0,,,78,95
69120,note_on,95,0,3,,,,,,,,,2,,,39,81
69600,note_off,2400,0,2,,,,,,,,,1,,,70,0
69600,note_on,0,0,2,,,,,,,,,1,,,70,83
69840,note_off,240,0,2,,,,,,,,,1,,,70,0
69840,note_on,0,0,2,,,,,,,,,1,,,69,81
70080,note_off,240,0,2,,,,,,,,,1,,,69,0
70080,note_on,0,0,2,,,,,,,,,1,,,70,78
70320,note_off,240,0,2,,,,,,,,,1,,,70,0
70320,note_on,0,0,2,,,,,,,,,1,,,69,76
70370,note_off,1250,0,1,,,,,,,,,0,,,78,0
70560,note_off,240,0,2,,,,,,,,,1,,,69,0
70560,note_on,0,0,2,,,,,,,,,1,,,70,73
70770,set_tempo,3570,1,0,,,,,,253164,,,,,,,
70800,note_off,240,0,2,,,,,,,,,1,,,70,0
70800,note_on,0,0,2,,,,,,,,,1,,,69,70
71040,note_off,240,0,2,,,,,,,,,1,,,69,0
71040,note_on,0,0,2,,,,,,,,,1,,,70,87
71040,set_tempo,270,1,0,,,,,,248962,,,,,,,
71040,note_on,670,0,1,,,,,,,,,0,,,75,87
71040,note_on,0,0,3,,,,,,,,,2,,,42,89
71040,note_on,0,0,3,,,,,,,,,2,,,48,89
71040,note_off,0,0,3,,,,,,,,,2,,,48,0
71040,note_off,1920,0,3,,,,,,,,,2,,,39,0
72480,note_off,1440,0,3,,,,,,,,,2,,,42,0
72480,note_on,0,0,3,,,,,,,,,2,,,41,76
72480,note_off,1440,0,1,,,,,,,,,0,,,75,0
72480,note_on,0,0,1,,,,,,,,,0,,,77,78
72790,note_off,310,0,1,,,,,,,,,0,,,77,0
72865,note_off,385,0,3,,,,,,,,,2,,,41,0
72960,note_on,95,0,3,,,,,,,,,2,,,40,72
72960,note_on,170,0,1,,,,,,,,,0,,,79,84
73440,note_off,2400,0,2,,,,,,,,,1,,,70,0
73440,note_on,0,0,2,,,,,,,,,1,,,70,70
73680,note_off,240,0,2,,,,,,,,,1,,,70,0
73680,note_on,0,0,2,,,,,,,,,1,,,69,68
73920,note_off,240,0,2,,,,,,,,,1,,,69,0
73920,note_on,0,0,2,,,,,,,,,1,,,70,66
74160,note_off,240,0,2,,,,,,,,,1,,,70,0
74160,note_on,0,0,2,,,,,,,,,1,,,69,64
74400,note_off,240,0,2,,,,,,,,,1,,,69,0
74400,note_on,0,0,2,,,,,,,,,1,,,70,62
74640,note_off,240,0,2,,,,,,,,,1,,,70,0
74640,note_on,0,0,2,,,,,,,,,1,,,69,60
74820,set_tempo,3780,1,0,,,,,,253164,,,,,,,
74880,note_off,1920,0,1,,,,,,,,,0,,,79,0
74880,note_on,0,0,1,,,,,,,,,0,,,78,65
74880,set_tempo,60,1,0,,,,,,248962,,,,,,,
74880,note_off,1920,0,3,,,,,,,,,2,,,40,0
74880,note_off,240,0,2,,,,,,,,,1,,,69,0
74880,note_on,0,0,3,,,,,,,,,2,,,48,65
74880,note_off,0,0,3,,,,,,,,,2,,,48,0
74880,note_on,0,0,3,,,,,,,,,2,,,41,65
75240,note_off,0,0,3,,,,,,,,,2,,,41,0
75240,note_off,360,0,3,,,,,,,,,2,,,48,0
75247,note_off,367,0,1,,,,,,,,,0,,,78,0
75360,note_on,480,0,2,,,,,,,,,1,,,70,63
75600,note_off,240,0,2,,,,,,,,,1,,,70,0
75600,note_on,0,0,2,,,,,,,,,1,,,69,62
75840,note_off,240,0,2,,,,,,,,,1,,,69,0
75840,note_on,0,0,2,,,,,,,,,1,,,70,60
76080,note_off,240,0,2,,,,,,,,,1,,,70,0
76080,note_on,0,0,2,,,,,,,,,1,,,69,58
76320,note_off,240,0,2,,,,,,,,,1,,,69,0
76320,note_on,0,0,2,,,,,,,,,1,,,70,57
76560,note_off,240,0,2,,,,,,,,,1,,,70,0
76560,note_on,0,0,2,,,,,,,,,1,,,69,55
76800,note_on,1560,0,3,,,,,,,,,2,,,50,63
76800,note_on,1553,0,1,,,,,,,,,0,,,77,64
76800,note_on,0,0,3,,,,,,,,,2,,,41,63
76800,note_off,240,0,2,,,,,,,,,1,,,69,0
77160,note_off,360,0,3,,,,,,,,,2,,,41,0
77160,note_off,0,0,3,,,,,,,,,2,,,50,0
77160,note_off,360,0,1,,,,,,,,,0,,,77,0
77280,note_on,480,0,2,,,,,,,,,1,,,72,59
77520,note_on,0,0,2,,,,,,,,,1,,,71,57
77520,note_off,240,0,2,,,,,,,,,1,,,72,0
77760,note_on,0,0,2,,,,,,,,,1,,,72,56
77760,note_off,240,0,2,,,,,,,,,1,,,71,0
78000,note_off,240,0,2,,,,,,,,,1,,,72,0
78000,note_on,0,0,2,,,,,,,,,1,,,71,54
78240,note_off,240,0,2,,,,,,,,,1,,,71,0
78240,note_on,0,0,2,,,,,,,,,1,,,72,52
78480,note_off,240,0,2,,,,,,,,,1,,,72,0
78480,note_on,0,0,2,,,,,,,,,1,,,71,50
78600,set_tempo,3720,1,0,,,,,,251046,,,,,,,
78720,note_on,1560,0,1,,,,,,,,,0,,,77,63
78720,note_on,0,0,3,,,,,,,,,2,,,41,61
78720,note_on,1560,0,3,,,,,,,,,2,,,51,61
78720,note_off,240,0,2,,,,,,,,,1,,,71,0
78720,set_tempo,120,1,0,,,,,,248962,,,,,,,
79080,note_off,360,0,1,,,,,,,,,0,,,77,0
79080,note_off,0,0,3,,,,,,,,,2,,,51,0
79080,note_off,360,0,3,,,,,,,,,2,,,41,0
79200,note_on,480,0,2,,,,,,,,,1,,,74,58
79440,note_off,240,0,2,,,,,,,,,1,,,74,0
79440,note_on,0,0,2,,,,,,,,,1,,,72,56
79680,note_on,600,0,1,,,,,,,,,0,,,77,63
79680,note_on,0,0,3,,,,,,,,,2,,,50,59
79680,note_on,600,0,3,,,,,,,,,2,,,41,59
79680,note_off,240,0,2,,,,,,,,,1,,,72,0
80040,note_off,0,0,3,,,,,,,,,2,,,41,0
80040,note_off,360,0,3,,,,,,,,,2,,,50,0
80040,note_off,360,0,1,,,,,,,,,0,,,77,0
80160,note_on,480,0,2,,,,,,,,,1,,,72,58
80400,note_off,240,0,2,,,,,,,,,1,,,72,0
80400,note_on,0,0,2,,,,,,,,,1,,,70,56
80640,note_off,240,0,2,,,,,,,,,1,,,70,0
80640,note_on,0,0,3,,,,,,,,,2,,,48,58
80640,note_on,600,0,3,,,,,,,,,2,,,41,58
80640,note_on,600,0,1,,,,,,,,,0,,,77,62
81000,note_off,360,0,3,,,,,,,,,2,,,48,0
81000,note_off,0,0,3,,,,,,,,,2,,,41,0
81000,note_off,360,0,1,,,,,,,,,0,,,77,0
81120,note_on,480,0,2,,,,,,,,,1,,,70,58
81360,note_off,240,0,2,,,,,,,,,1,,,70,0
81360,note_on,0,0,2,,,,,,,,,1,,,69,56
81600,note_on,600,0,3,,,,,,,,,2,,,41,57
81600,note_on,600,0,1,,,,,,,,,0,,,77,62
81600,note_off,240,0,2,,,,,,,,,1,,,69,0
81600,note_on,0,0,3,,,,,,,,,2,,,50,57
81960,note_off,360,0,3,,,,,,,,,2,,,50,0
81960,note_off,0,0,3,,,,,,,,,2,,,41,0
81960,note_off,360,0,1,,,,,,,,,0,,,77,0
82080,note_on,480,0,2,,,,,,,,,1,,,72,57
82320,note_off,240,0,2,,,,,,,,,1,,,72,0
82320,note_on,0,0,2,,,,,,,,,1,,,70,53
82350,set_tempo,3630,1,0,,,,,,251046,,,,,,,
82560,note_on,600,0,3,,,,,,,,,2,,,48,56
82560,note_off,240,0,2,,,,,,,,,1,,,70,0
82560,note_on,0,0,3,,,,,,,,,2,,,41,56
82560,set_tempo,210,1,0,,,,,,248962,,,,,,,
82560,note_on,600,0,1,,,,,,,,,0,,,78,61
82920,note_off,0,0,3,,,,,,,,,2,,,48,0
82920,note_off,360,0,3,,,,,,,,,2,,,41,0
82920,note_off,360,0,1,,,,,,,,,0,,,78,0
83040,note_on,480,0,2,,,,,,,,,1,,,70,57
83280,note_on,0,0,2,,,,,,,,,1,,,69,55
83280,note_off,240,0,2,,,,,,,,,1,,,70,0
83520,note_on,0,0,2,,,,,,,,,1,,,70,53
83520,note_off,240,0,2,,,,,,,,,1,,,69,0
83760,note_off,240,0,2,,,,,,,,,1,,,70,0
83760,note_on,0,0,2,,,,,,,,,1,,,69,52
84000,note_off,240,0,2,,,,,,,,,1,,,69,0
84000,note_on,0,0,2,,,,,,,,,1,,,70,50
84240,note_on,0,0,2,,,,,,,,,1,,,69,49
84240,note_off,240,0,2,,,,,,,,,1,,,70,0
84480,note_on,1560,0,3,,,,,,,,,2,,,41,54
84480,note_on,0,0,3,,,,,,,,,2,,,50,54
84480,note_on,1560,0,1,,,,,,,,,0,,,77,60
84480,note_off,240,0,2,,,,,,,,,1,,,69,0
84840,note_off,360,0,3,,,,,,,,,2,,,50,0
84840,note_off,0,0,3,,,,,,,,,2,,,41,0
84840,note_off,360,0,1,,,,,,,,,0,,,77,0
84960,note_on,480,0,2,,,,,,,,,1,,,72,57
85200,note_off,240,0,2,,,,,,,,,1,,,72,0
85200,note_on,0,0,2,,,,,,,,,1,,,71,55
85440,note_off,240,0,2,,,,,,,,,1,,,71,0
85440,note_on,0,0,2,,,,,,,,,1,,,72,53
85680,note_on,0,0,2,,,,,,,,,1,,,71,52
85680,note_off,240,0,2,,,,,,,,,1,,,72,0
85920,note_off,240,0,2,,,,,,,,,1,,,71,0
85920,note_on,0,0,2,,,,,,,,,1,,,72,50
86160,note_off,240,0,2,,,,,,,,,1,,,72,0
86160,note_on,0,0,2,,,,,,,,,1,,,71,48
86280,set_tempo,3720,1,0,,,,,,251046,,,,,,,
86400,note_on,0,0,3,,,,,,,,,2,,,51,52
86400,note_on,1560,0,3,,,,,,,,,2,,,41,52
86400,note_on,1560,0,1,,,,,,,,,0,,,77,59
86400,set_tempo,120,1,0,,,,,,248962,,,,,,,
86400,note_off,240,0,2,,,,,,,,,1,,,71,0
86760,note_off,360,0,3,,,,,,,,,2,,,51,0
86760,note_off,360,0,1,,,,,,,,,0,,,77,0
86760,note_off,0,0,3,,,,,,,,,2,,,41,0
86880,note_on,480,0,2,,,,,,,,,1,,,74,53
87120,note_off,240,0,2,,,,,,,,,1,,,74,0
87120,note_on,0,0,2,,,,,,,,,1,,,72,50
87360,note_on,0,0,3,,,,,,,,,2,,,50,51
87360,note_off,240,0,2,,,,,,,,,1,,,72,0
87360,note_on,600,0,1,,,,,,,,,0,,,77,59
87360,note_on,600,0,3,,,,,,,,,2,,,41,51
87720,note_off,360,0,3,,,,,,,,,2,,,50,0
87720,note_off,0,0,3,,,,,,,,,2,,,41,0
87720,note_off,360,0,1,,,,,,,,,0,,,77,0
87840,note_on,480,0,2,,,,,,,,,1,,,72,53
88080,note_off,240,0,2,,,,,,,,,1,,,72,0
88080,note_on,0,0,2,,,,,,,,,1,,,71,52
88320,note_on,600,0,1,,,,,,,,,0,,,77,58
88320,note_off,240,0,2,,,,,,,,,1,,,71,0
88320,note_on,0,0,3,,,,,,,,,2,,,51,50
88320,note_on,600,0,3,,,,,,,,,2,,,41,50
88680,note_off,0,0,3,,,,,,,,,2,,,41,0
88680,note_off,360,0,3,,,,,,,,,2,,,51,0
88680,note_off,360,0,1,,,,,,,,,0,,,77,0
88800,note_on,480,0,2,,,,,,,,,1,,,74,54
89040,note_off,240,0,2,,,,,,,,,1,,,74,0
89040,note_on,0,0,2,,,,,,,,,1,,,72,53
89175,set_tempo,2775,1,0,,,,,,251046,,,,,,,
89280,note_off,240,0,2,,,,,,,,,1,,,72,0
89280,note_on,600,0,3,,,,,,,,,2,,,53,54
89280,note_on,600,0,1,,,,,,,,,0,,,77,58
89760,note_on,0,0,3,,,,,,,,,2,,,55,56
89760,note_off,480,0,3,,,,,,,,,2,,,53,0
89760,note_on,0,0,1,,,,,,,,,0,,,75,57
89760,note_off,480,0,1,,,,,,,,,0,,,77,0
89760,note_on,480,0,2,,,,,,,,,1,,,72,57
90000,note_on,0,0,3,,,,,,,,,2,,,57,57
90000,note_off,240,0,3,,,,,,,,,2,,,55,0
90240,note_on,0,0,3,,,,,,,,,2,,,58,58
90240,note_off,240,0,3,,,,,,,,,2,,,57,0
90240,note_on,480,0,2,,,,,,,,,1,,,65,57
90480,note_off,240,0,3,,,,,,,,,2,,,58,0
90480,note_on,0,0,3,,,,,,,,,2,,,60,59
90720,note_on,0,0,1,,,,,,,,,0,,,74,57
90720,note_off,960,0,1,,,,,,,,,0,,,75,0
90720,note_on,0,0,3,,,,,,,,,2,,,62,60
90720,note_on,0,0,2,,,,,,,,,1,,,70,57
90720,note_off,480,0,2,,,,,,,,,1,,,72,0
90720,note_off,240,0,3,,,,,,,,,2,,,60,0
90960,note_off,240,0,3,,,,,,,,,2,,,62,0
90960,note_on,0,0,3,,,,,,,,,2,,,63,61
91200,note_on,0,0,1,,,,,,,,,0,,,72,57
91200,note_on,0,0,3,,,,,,,,,2,,,65,64
91200,note_off,480,0,1,,,,,,,,,0,,,74,0
91200,note_on,0,0,2,,,,,,,,,1,,,69,57
91200,note_off,0,0,2,,,,,,,,,1,,,65,0
91200,note_off,480,0,2,,,,,,,,,1,,,70,0
91200,note_off,240,0,3,,,,,,,,,2,,,63,0
91440,set_tempo,2265,1,0,,,,,,253164,,,,,,,
91585,note_off,385,0,1,,,,,,,,,0,,,72,0
91585,note_off,385,0,2,,,,,,,,,1,,,69,0
91680,note_off,480,0,3,,,,,,,,,2,,,65,0
91680,note_on,95,0,1,,,,,,,,,0,,,87,68
91680,note_on,95,0,2,,,,,,,,,1,,,84,69
91680,note_on,0,0,3,,,,,,,,,2,,,67,67
91920,note_on,0,0,3,,,,,,,,,2,,,69,68
91920,note_off,240,0,3,,,,,,,,,2,,,67,0
92160,note_off,240,0,3,,,,,,,,,2,,,69,0
92160,note_on,0,0,3,,,,,,,,,2,,,70,70
92160,note_on,480,0,2,,,,,,,,,1,,,77,62
92400,note_off,240,0,3,,,,,,,,,2,,,70,0
92400,note_on,0,0,3,,,,,,,,,2,,,72,72
92640,note_off,960,0,1,,,,,,,,,0,,,87,0
92640,note_on,0,0,2,,,,,,,,,1,,,82,61
92640,note_off,480,0,2,,,,,,,,,1,,,84,0
92640,note_on,0,0,3,,,,,,,,,2,,,74,73
92640,note_on,0,0,1,,,,,,,,,0,,,86,61
92640,note_off,240,0,3,,,,,,,,,2,,,72,0
92880,note_on,0,0,3,,,,,,,,,2,,,75,75
92880,note_off,240,0,3,,,,,,,,,2,,,74,0
93120,note_on,0,0,1,,,,,,,,,0,,,84,60
93120,note_on,0,0,2,,,,,,,,,1,,,81,60
93120,note_off,0,0,2,,,,,,,,,1,,,77,0
93120,note_off,480,0,1,,,,,,,,,0,,,86,0
93120,note_off,240,0,3,,,,,,,,,2,,,75,0
93120,note_on,0,0,3,,,,,,,,,2,,,77,80
93120,note_off,480,0,2,,,,,,,,,1,,,82,0
93465,set_tempo,2025,1,0,,,,,,269058,,,,,,,
93505,note_off,385,0,2,,,,,,,,,1,,,81,0
93505,note_off,385,0,1,,,,,,,,,0,,,84,0
93505,note_off,385,0,3,,,,,,,,,2,,,77,0
93600,note_on,95,0,3,,,,,,,,,2,,,75,77
93600,note_on,95,0,2,,,,,,,,,1,,,80,78
93600,note_on,0,0,2,,,,,,,,,1,,,84,78
93600,note_on,95,0,1,,,,,,,,,0,,,91,80
94080,note_off,480,0,3,,,,,,,,,2,,,75,0
94080,note_on,0,0,2,,,,,,,,,1,,,82,73
94080,note_on,0,0,3,,,,,,,,,2,,,74,75
94080,note_off,480,0,2,,,,,,,,,1,,,84,0
94080,note_off,0,0,2,,,,,,,,,1,,,80,0
94080,note_on,0,0,2,,,,,,,,,1,,,77,73
94465,note_off,385,0,3,,,,,,,,,2,,,74,0
94560,note_off,960,0,1,,,,,,,,,0,,,91,0
94560,note_on,95,0,3,,,,,,,,,2,,,73,74
94560,note_on,0,0,1,,,,,,,,,0,,,89,75
94560,note_off,480,0,2,,,,,,,,,1,,,77,0
94560,note_off,0,0,2,,,,,,,,,1,,,82,0
94560,note_on,0,0,2,,,,,,,,,1,,,77,72
94560,note_on,0,0,2,,,,,,,,,1,,,82,72
94945,note_off,385,0,3,,,,,,,,,2,,,73,0
95040,note_on,95,0,3,,,,,,,,,2,,,72,72
95040,note_on,0,0,2,,,,,,,,,1,,,82,70
95040,note_off,480,0,2,,,,,,,,,1,,,82,0
95040,note_off,0,0,2,,,,,,,,,1,,,77,0
95040,note_on,0,0,2,,,,,,,,,1,,,79,70
95415,set_tempo,1950,1,0,,,,,,280373,,,,,,,
95425,note_off,385,0,3,,,,,,,,,2,,,72,0
95520,note_on,95,0,3,,,,,,,,,2,,,65,69
95520,note_off,960,0,1,,,,,,,,,0,,,89,0
95520,note_on,0,0,1,,,,,,,,,0,,,87,74
95520,note_on,0,0,2,,,,,,,,,1,,,81,68
95520,note_off,480,0,2,,,,,,,,,1,,,82,0
95520,note_off,0,0,2,,,,,,,,,1,,,79,0
95520,note_on,0,0,2,,,,,,,,,1,,,84,68
95905,note_off,385,0,3,,,,,,,,,2,,,65,0
96000,note_off,480,0,1,,,,,,,,,0,,,87,0
96000,set_tempo,585,1,0,,,,,,252100,,,,,,,
96000,note_on,0,0,1,,,,,,,,,0,,,86,73
96000,note_off,0,0,2,,,,,,,,,1,,,81,0
96000,note_on,95,0,3,,,,,,,,,2,,,58,69
96000,note_off,480,0,2,,,,,,,,,1,,,84,0
96240,note_on,240,0,2,,,,,,,,,1,,,77,75
96480,note_on,480,0,3,,,,,,,,,2,,,64,69
96480,note_on,0,0,3,,,,,,,,,2,,,61,69
96480,note_on,0,0,2,,,,,,,,,1,,,79,73
96480,note_off,240,0,2,,,,,,,,,1,,,77,0
96720,note_on,0,0,2,,,,,,,,,1,,,77,71
96720,note_off,240,0,2,,,,,,,,,1,,,79,0
96960,note_on,0,0,2,,,,,,,,,1,,,79,69
96960,note_off,240,0,2,,,,,,,,,1,,,77,0
97200,note_on,0,0,2,,,,,,,,,1,,,77,67
97200,note_off,240,0,2,,,,,,,,,1,,,79,0
97440,note_on,0,0,3,,,,,,,,,2,,,65,62
97440,note_on,0,0,2,,,,,,,,,1,,,79,65
97440,note_off,240,0,2,,,,,,,,,1,,,77,0
97440,note_off,960,0,3,,,,,,,,,2,,,61,0
97440,note_off,0,0,3,,,,,,,,,2,,,64,0
97440,note_on,0,0,3,,,,,,,,,2,,,62,62
97680,note_on,0,0,2,,,,,,,,,1,,,77,63
97680,note_off,240,0,2,,,,,,,,,1,,,79,0
97920,note_off,240,0,2,,,,,,,,,1,,,77,0
97920,note_off,480,0,3,,,,,,,,,2,,,65,0
97920,note_off,0,0,3,,,,,,,,,2,,,62,0
97920,note_off,0,0,3,,,,,,,,,2,,,58,0
97920,note_on,0,0,1,,,,,,,,,0,,,84,72
97920,note_off,1920,0,1,,,,,,,,,0,,,86,0
97920,note_on,0,0,3,,,,,,,,,2,,,58,68
98160,note_on,240,0,2,,,,,,,,,1,,,75,69
98400,note_off,240,0,2,,,,,,,,,1,,,75,0
98400,note_on,0,0,2,,,,,,,,,1,,,77,68
98400,note_on,480,0,3,,,,,,,,,2,,,69,68
98400,note_on,0,0,3,,,,,,,,,2,,,66,68
98640,note_off,240,0,2,,,,,,,,,1,,,77,0
98640,note_on,0,0,2,,,,,,,,,1,,,75,67
98880,note_off,240,0,2,,,,,,,,,1,,,75,0
98880,note_on,0,0,2,,,,,,,,,1,,,77,65
99120,note_on,0,0,2,,,,,,,,,1,,,75,64
99120,note_off,240,0,2,,,,,,,,,1,,,77,0
99360,note_on,0,0,3,,,,,,,,,2,,,65,62
99360,note_off,960,0,3,,,,,,,,,2,,,66,0
99360,note_off,240,0,2,,,,,,,,,1,,,75,0
99360,note_on,0,0,2,,,,,,,,,1,,,77,63
99585,set_tempo,3585,1,0,,,,,,253164,,,,,,,
99600,note_on,0,0,2,,,,,,,,,1,,,75,61
99600,note_off,240,0,2,,,,,,,,,1,,,77,0
99840,note_off,240,0,2,,,,,,,,,1,,,75,0
99840,note_on,0,0,2,,,,,,,,,1,,,74,60
99840,note_off,480,0,3,,,,,,,,,2,,,65,0
99840,note_off,0,0,3,,,,,,,,,2,,,69,0
99840,note_off,0,0,3,,,,,,,,,2,,,58,0
99840,note_on,0,0,3,,,,,,,,,2,,,58,67
99840,note_off,1920,0,1,,,,,,,,,0,,,84,0
99840,note_on,0,0,1,,,,,,,,,0,,,82,70
100080,note_off,240,0,2,,,,,,,,,1,,,74,0
100080,note_on,0,0,2,,,,,,,,,1,,,70,68
100320,note_on,0,0,2,,,,,,,,,1,,,72,68
100320,note_off,240,0,2,,,,,,,,,1,,,70,0
100320,note_on,0,0,3,,,,,,,,,2,,,62,66
100320,note_on,480,0,3,,,,,,,,,2,,,65,66
100560,note_on,0,0,2,,,,,,,,,1,,,70,68
100560,note_off,240,0,2,,,,,,,,,1,,,72,0
100800,note_on,0,0,1,,,,,,,,,0,,,79,69
100800,note_off,960,0,1,,,,,,,,,0,,,82,0
100800,note_off,240,0,2,,,,,,,,,1,,,70,0
100800,note_off,480,0,3,,,,,,,,,2,,,62,0
100800,note_on,0,0,3,,,,,,,,,2,,,63,66
100800,note_on,0,0,3,,,,,,,,,2,,,67,66
100800,note_off,0,0,3,,,,,,,,,2,,,65,0
101040,note_on,240,0,2,,,,,,,,,1,,,70,68
101280,note_off,480,0,1,,,,,,,,,0,,,79,0
101280,note_on,0,0,1,,,,,,,,,0,,,77,69
101280,note_on,0,0,3,,,,,,,,,2,,,62,66
101280,note_on,0,0,3,,,,,,,,,2,,,65,66
101280,note_off,480,0,3,,,,,,,,,2,,,63,0
101280,note_off,240,0,2,,,,,,,,,1,,,70,0
101280,note_off,0,0,3,,,,,,,,,2,,,67,0
101520,note_on,240,0,2,,,,,,,,,1,,,70,67
101640,set_tempo,2055,1,0,,,,,,254237,,,,,,,
101760,note_on,0,0,3,,,,,,,,,2,,,53,65
101760,note_on,0,0,3,,,,,,,,,2,,,62,65
101760,note_off,0,0,3,,,,,,,,,2,,,58,0
101760,note_off,0,0,3,,,,,,,,,2,,,65,0
101760,note_off,480,0,3,,,,,,,,,2,,,62,0
101760,note_on,0,0,1,,,,,,,,,0,,,77,69
101760,note_off,240,0,2,,,,,,,,,1,,,70,0
101760,note_on,0,0,2,,,,,,,,,1,,,70,67
101760,note_off,480,0,1,,,,,,,,,0,,,77,0
102000,note_on,0,0,2,,,,,,,,,1,,,65,67
102000,note_off,240,0,2,,,,,,,,,1,,,70,0
102240,note_on,0,0,3,,,,,,,,,2,,,60,65
102240,note_on,0,0,2,,,,,,,,,1,,,69,67
102240,note_on,0,0,1,,,,,,,,,0,,,75,68
102240,note_off,240,0,2,,,,,,,,,1,,,65,0
102240,note_off,480,0,3,,,,,,,,,2,,,62,0
102240,note_off,480,0,1,,,,,,,,,0,,,77,0
102240,note_on,0,0,3,,,,,,,,,2,,,63,65
102480,note_on,0,0,2,,,,,,,,,1,,,65,65
102480,note_off,240,0,2,,,,,,,,,1,,,69,0
102720,note_off,480,0,1,,,,,,,,,0,,,75,0
102720,note_on,0,0,1,,,,,,,,,0,,,74,68
102720,note_off,240,0,2,,,,,,,,,1,,,65,0
102720,note_on,0,0,3,,,,,,,,,2,,,58,65
102720,note_on,0,0,3,,,,,,,,,2,,,62,65
102720,note_off,0,0,3,,,,,,,,,2,,,60,0
102720,note_off,480,0,3,,,,,,,,,2,,,63,0
102720,note_on,0,0,2,,,,,,,,,1,,,70,65
102960,note_off,240,0,2,,,,,,,,,1,,,70,0
102960,note_on,0,0,2,,,,,,,,,1,,,65,65
103200,note_on,0,0,1,,,,,,,,,0,,,72,67
103200,note_off,480,0,1,,,,,,,,,0,,,74,0
103200,note_off,240,0,2,,,,,,,,,1,,,65,0
103200,note_on,0,0,3,,,,,,,,,2,,,57,64
103200,note_off,480,0,3,,,,,,,,,2,,,58,0
103200,note_on,0,0,3,,,,,,,,,2,,,60,64
103200,note_off,0,0,3,,,,,,,,,2,,,62,0
103440,note_on,240,0,2,,,,,,,,,1,,,65,65
103455,set_tempo,1815,1,0,,,,,,260869,,,,,,,
103680,note_off,240,0,2,,,,,,,,,1,,,65,0
103680,set_tempo,225,1,0,,,,,,252100,,,,,,,
103680,note_on,0,0,3,,,,,,,,,2,,,46,64
103680,note_off,0,0,3,,,,,,,,,2,,,53,0
103680,note_off,0,0,3,,,,,,,,,2,,,57,0
103680,note_off,480,0,3,,,,,,,,,2,,,60,0
103680,note_off,480,0,1,,,,,,,,,0,,,72,0
103680,note_on,0,0,1,,,,,,,,,0,,,74,67
103920,note_on,240,0,2,,,,,,,,,1,,,65,67
104160,note_on,0,0,2,,,,,,,,,1,,,67,66
104160,note_off,240,0,2,,,,,,,,,1,,,65,0
104160,note_on,480,0,3,,,,,,,,,2,,,52,66
104160,note_on,0,0,3,,,,,,,,,2,,,49,66
104400,note_off,240,0,2,,,,,,,,,1,,,67,0
104400,note_on,0,0,2,,,,,,,,,1,,,65,65
104640,note_off,240,0,2,,,,,,,,,1,,,65,0
104640,note_on,0,0,2,,,,,,,,,1,,,67,64
104880,note_on,0,0,2,,,,,,,,,1,,,65,62
104880,note_off,240,0,2,,,,,,,,,1,,,67,0
105120,note_off,0,0,3,,,,,,,,,2,,,52,0
105120,note_off,960,0,3,,,,,,,,,2,,,49,0
105120,note_on,0,0,3,,,,,,,,,2,,,50,60
105120,note_on,0,0,2,,,,,,,,,1,,,67,61
105120,note_on,0,0,3,,,,,,,,,2,,,53,60
105120,note_off,240,0,2,,,,,,,,,1,,,65,0
105360,note_off,240,0,2,,,,,,,,,1,,,67,0
105360,note_on,0,0,2,,,,,,,,,1,,,65,60
105600,note_off,1920,0,1,,,,,,,,,0,,,74,0
105600,note_on,0,0,1,,,,,,,,,0,,,72,65
105600,note_off,0,0,3,,,,,,,,,2,,,46,0
105600,note_on,0,0,3,,,,,,,,,2,,,46,63
105600,note_off,0,0,3,,,,,,,,,2,,,53,0
105600,note_off,480,0,3,,,,,,,,,2,,,50,0
105600,note_off,240,0,2,,,,,,,,,1,,,65,0
105840,note_on,240,0,2,,,,,,,,,1,,,63,65
106080,note_on,480,0,3,,,,,,,,,2,,,57,66
106080,note_on,0,0,3,,,,,,,,,2,,,54,66
106080,note_on,0,0,2,,,,,,,,,1,,,65,64
106080,note_off,240,0,2,,,,,,,,,1,,,63,0
106320,note_off,240,0,2,,,,,,,,,1,,,65,0
106320,note_on,0,0,2,,,,,,,,,1,,,63,63
106560,note_on,0,0,2,,,,,,,,,1,,,65,61
106560,note_off,240,0,2,,,,,,,,,1,,,63,0
106800,note_on,0,0,2,,,,,,,,,1,,,63,60
106800,note_off,240,0,2,,,,,,,,,1,,,65,0
107040,note_on,0,0,2,,,,,,,,,1,,,65,59
107040,note_off,240,0,2,,,,,,,,,1,,,63,0
107040,note_on,0,0,3,,,,,,,,,2,,,53,61
107040,note_off,960,0,3,,,,,,,,,2,,,54,0
107280,note_on,0,0,2,,,,,,,,,1,,,63,58
107280,note_off,240,0,2,,,,,,,,,1,,,65,0
107430,set_tempo,3750,1,0,,,,,,253164,,,,,,,
107520,note_on,0,0,1,,,,,,,,,0,,,70,64
107520,note_off,1920,0,1,,,,,,,,,0,,,72,0
107520,note_off,240,0,2,,,,,,,,,1,,,63,0
107520,note_on,0,0,2,,,,,,,,,1,,,62,63
107520,note_on,0,0,3,,,,,,,,,2,,,46,62
107520,note_off,480,0,3,,,,,,,,,2,,,53,0
107520,note_off,0,0,3,,,,,,,,,2,,,57,0
107520,note_off,0,0,3,,,,,,,,,2,,,46,0
107760,note_off,240,0,2,,,,,,,,,1,,,62,0
107760,note_on,0,0,2,,,,,,,,,1,,,58,63
108000,note_on,0,0,2,,,,,,,,,1,,,60,63
108000,note_on,480,0,3,,,,,,,,,2,,,53,61
108000,note_on,0,0,3,,,,,,,,,2,,,50,61
108000,note_off,240,0,2,,,,,,,,,1,,,58,0
108240,note_on,0,0,2,,,,,,,,,1,,,58,63
108240,note_off,240,0,2,,,,,,,,,1,,,60,0
108480,note_off,960,0,1,,,,,,,,,0,,,70,0
108480,note_on,0,0,1,,,,,,,,,0,,,67,63
108480,note_off,0,0,3,,,,,,,,,2,,,53,0
108480,note_off,240,0,2,,,,,,,,,1,,,58,0
108480,note_on,0,0,3,,,,,,,,,2,,,51,61
108480,note_on,0,0,3,,,,,,,,,2,,,55,61
108480,note_off,480,0,3,,,,,,,,,2,,,50,0
108720,note_on,240,0,2,,,,,,,,,1,,,58,62
108960,note_off,240,0,2,,,,,,,,,1,,,58,0
108960,note_on,0,0,3,,,,,,,,,2,,,50,61
108960,note_on,0,0,3,,,,,,,,,2,,,53,61
108960,note_off,0,0,3,,,,,,,,,2,,,55,0
108960,note_off,480,0,3,,,,,,,,,2,,,51,0
108960,note_on,0,0,1,,,,,,,,,0,,,65,63
108960,note_off,480,0,1,,,,,,,,,0,,,67,0
109200,note_on,240,0,2,,,,,,,,,1,,,58,62
109320,set_tempo,1890,1,0,,,,,,254237,,,,,,,
109440,note_on,0,0,2,,,,,,,,,1,,,58,62
109440,note_off,240,0,2,,,,,,,,,1,,,58,0
109440,note_on,0,0,3,,,,,,,,,2,,,41,60
109440,note_on,0,0,3,,,,,,,,,2,,,50,60
109440,note_off,0,0,3,,,,,,,,,2,,,46,0
109440,note_off,0,0,3,,,,,,,,,2,,,53,0
109440,note_off,480,0,3,,,,,,,,,2,,,50,0
109440,note_off,480,0,1,,,,,,,,,0,,,65,0
109440,note_on,0,0,1,,,,,,,,,0,,,65,62
109680,note_on,0,0,2,,,,,,,,,1,,,53,62
109680,note_off,240,0,2,,,,,,,,,1,,,58,0
109920,note_on,0,0,3,,,,,,,,,2,,,48,60
109920,note_on,0,0,3,,,,,,,,,2,,,51,60
109920,note_on,0,0,2,,,,,,,,,1,,,57,62
109920,note_off,240,0,2,,,,,,,,,1,,,53,0
109920,note_on,0,0,1,,,,,,,,,0,,,63,62
109920,note_off,480,0,3,,,,,,,,,2,,,50,0
109920,note_off,480,0,1,,,,,,,,,0,,,65,0
110160,note_on,0,0,2,,,,,,,,,1,,,53,62
110160,note_off,240,0,2,,,,,,,,,1,,,57,0
110400,note_on,0,0,2,,,,,,,,,1,,,58,61
110400,note_off,240,0,2,,,,,,,,,1,,,53,0
110400,note_on,0,0,3,,,,,,,,,2,,,50,60
110400,note_off,0,0,3,,,,,,,,,2,,,48,0
110400,note_off,480,0,3,,,,,,,,,2,,,51,0
110400,note_on,0,0,3,,,,,,,,,2,,,46,60
110400,note_off,480,0,1,,,,,,,,,0,,,63,0
110400,note_on,0,0,1,,,,,,,,,0,,,62,61
110640,note_on,0,0,2,,,,,,,,,1,,,53,61
110640,note_off,240,0,2,,,,,,,,,1,,,58,0
110760,set_tempo,1440,1,0,,,,,,258620,,,,,,,
110880,note_off,480,0,1,,,,,,,,,0,,,62,0
110880,note_off,240,0,2,,,,,,,,,1,,,53,0
110880,note_off,480,0,3,,,,,,,,,2,,,46,0
110880,note_on,0,0,3,,,,,,,,,2,,,48,60
110880,note_on,0,0,3,,,,,,,,,2,,,45,60
110880,note_off,0,0,3,,,,,,,,,2,,,50,0
110880,note_on,0,0,1,,,,,,,,,0,,,60,61
111120,note_on,240,0,2,,,,,,,,,1,,,51,61
111270,set_tempo,510,1,0,,,,,,265486,,,,,,,
111360,note_off,480,0,3,,,,,,,,,2,,,48,0
111360,set_tempo,90,1,0,,,,,,254237,,,,,,,
111360,note_on,0,0,3,,,,,,,,,2,,,46,59
111360,note_on,0,0,3,,,,,,,,,2,,,34,59
111360,note_on,0,0,1,,,,,,,,,0,,,58,60
111360,note_off,480,0,1,,,,,,,,,0,,,60,0
111360,note_off,240,0,2,,,,,,,,,1,,,51,0
111360,note_off,0,0,3,,,,,,,,,2,,,45,0
111360,note_off,0,0,3,,,,,,,,,2,,,41,0
111600,note_on,240,0,2,,,,,,,,,1,,,54,61
111840,note_on,240,0,2,,,,,,,,,1,,,50,61
112080,note_off,720,0,3,,,,,,,,,2,,,34,0
112080,note_off,0,0,3,,,,,,,,,2,,,46,0
112080,note_on,0,0,3,,,,,,,,,2,,,42,59
112320,note_off,240,0,3,,,,,,,,,2,,,42,0
112320,note_on,0,0,3,,,,,,,,,2,,,41,59
112560,note_off,0,0,2,,,,,,,,,1,,,54,0
112560,note_off,720,0,2,,,,,,,,,1,,,50,0
112560,note_on,0,0,1,,,,,,,,,0,,,53,59
112560,note_off,1200,0,1,,,,,,,,,0,,,58,0
112800,note_off,240,0,1,,,,,,,,,0,,,53,0
112800,note_off,480,0,3,,,,,,,,,2,,,41,0
112800,note_on,0,0,1,,,,,,,,,0,,,50,59
112800,note_on,0,0,3,,,,,,,,,2,,,34,58
113040,note_off,240,0,1,,,,,,,,,0,,,50,0
113040,note_on,0,0,1,,,,,,,,,0,,,58,59
113160,set_tempo,1800,1,0,,,,,,256410,,,,,,,
113280,note_off,480,0,3,,,,,,,,,2,,,34,0
113280,note_on,0,0,3,,,,,,,,,2,,,29,58
113280,note_on,720,0,2,,,,,,,,,1,,,53,60
113520,note_off,480,0,1,,,,,,,,,0,,,58,0
113520,note_on,0,0,1,,,,,,,,,0,,,58,59
113760,note_off,480,0,3,,,,,,,,,2,,,29,0
113760,note_on,0,0,3,,,,,,,,,2,,,51,58
113760,note_off,240,0,1,,,,,,,,,0,,,58,0
113760,note_on,0,0,1,,,,,,,,,0,,,57,58
114000,note_off,240,0,1,,,,,,,,,0,,,57,0
114000,note_off,240,0,3,,,,,,,,,2,,,51,0
114000,note_on,0,0,3,,,,,,,,,2,,,50,58
114000,note_on,0,0,1,,,,,,,,,0,,,58,58
114240,note_off,240,0,3,,,,,,,,,2,,,50,0
114240,note_on,0,0,3,,,,,,,,,2,,,48,58
114240,note_off,960,0,2,,,,,,,,,1,,,53,0
114240,note_on,0,0,1,,,,,,,,,0,,,60,58
114240,note_off,240,0,1,,,,,,,,,0,,,58,0
114480,note_on,0,0,3,,,,,,,,,2,,,46,58
114480,note_off,240,0,3,,,,,,,,,2,,,48,0
114480,note_on,0,0,1,,,,,,,,,0,,,62,58
114480,note_off,240,0,1,,,,,,,,,0,,,60,0
114720,note_off,240,0,3,,,,,,,,,2,,,46,0
114720,note_on,0,0,3,,,,,,,,,2,,,45,58
114720,note_on,0,0,1,,,,,,,,,0,,,63,58
114720,note_off,240,0,1,,,,,,,,,0,,,62,0
114720,note_on,0,0,3,,,,,,,,,2,,,41,58
114960,note_off,240,0,3,,,,,,,,,2,,,45,0
114960,note_off,0,0,3,,,,,,,,,2,,,41,0
114960,note_on,0,0,3,,,,,,,,,2,,,53,57
114960,note_on,0,0,1,,,,,,,,,0,,,60,57
114960,note_off,240,0,1,,,,,,,,,0,,,63,0
115140,set_tempo,1980,1,0,,,,,,258620,,,,,,,
115200,note_off,240,0,3,,,,,,,,,2,,,53,0
115200,set_tempo,60,1,0,,,,,,254237,,,,,,,
115200,note_off,240,0,1,,,,,,,,,0,,,60,0
115200,note_on,0,0,3,,,,,,,,,2,,,46,57
115200,note_on,0,0,1,,,,,,,,,0,,,70,57
115440,note_on,1200,0,2,,,,,,,,,1,,,66,59
115680,note_on,240,0,2,,,,,,,,,1,,,62,59
115920,note_off,720,0,3,,,,,,,,,2,,,46,0
115920,note_on,0,0,3,,,,,,,,,2,,,54,57
116160,note_off,240,0,3,,,,,,,,,2,,,54,0
116160,note_on,0,0,3,,,,,,,,,2,,,53,56
116400,note_on,0,0,1,,,,,,,,,0,,,65,56
116400,note_off,0,0,2,,,,,,,,,1,,,66,0
116400,note_off,720,0,2,,,,,,,,,1,,,62,0
116400,note_off,1200,0,1,,,,,,,,,0,,,70,0
116640,note_on,0,0,3,,,,,,,,,2,,,46,56
116640,note_off,480,0,3,,,,,,,,,2,,,53,0
116640,note_off,240,0,1,,,,,,,,,0,,,65,0
116640,note_on,0,0,1,,,,,,,,,0,,,62,56
116880,note_off,240,0,1,,,,,,,,,0,,,62,0
116880,note_on,0,0,1,,,,,,,,,0,,,70,56
117000,set_tempo,1800,1,0,,,,,,256410,,,,,,,
117120,note_on,720,0,2,,,,,,,,,1,,,65,58
117120,note_off,480,0,3,,,,,,,,,2,,,46,0
117120,note_on,0,0,3,,,,,,,,,2,,,41,55
117360,note_off,480,0,1,,,,,,,,,0,,,70,0
117360,note_on,0,0,1,,,,,,,,,0,,,70,55
117600,note_off,240,0,1,,,,,,,,,0,,,70,0
117600,note_on,0,0,1,,,,,,,,,0,,,69,55
117600,note_on,0,0,3,,,,,,,,,2,,,63,55
117600,note_off,480,0,3,,,,,,,,,2,,,41,0
117840,note_on,0,0,3,,,,,,,,,2,,,62,55
117840,note_off,240,0,3,,,,,,,,,2,,,63,0
117840,note_off,240,0,1,,,,,,,,,0,,,69,0
117840,note_on,0,0,1,,,,,,,,,0,,,70,55
118080,note_off,960,0,2,,,,,,,,,1,,,65,0
118080,note_off,240,0,3,,,,,,,,,2,,,62,0
118080,note_on,0,0,3,,,,,,,,,2,,,60,55
118080,note_off,240,0,1,,,,,,,,,0,,,70,0
118080,note_on,0,0,1,,,,,,,,,0,,,72,55
118320,note_off,240,0,3,,,,,,,,,2,,,60,0
118320,note_on,0,0,3,,,,,,,,,2,,,58,54
118320,note_on,0,0,1,,,,,,,,,0,,,74,55
118320,note_off,240,0,1,,,,,,,,,0,,,72,0
118560,note_on,0,0,3,,,,,,,,,2,,,53,54
118560,note_on,0,0,3,,,,,,,,,2,,,57,54
118560,note_off,240,0,3,,,,,,,,,2,,,58,0
118560,note_on,0,0,1,,,,,,,,,0,,,75,54
118560,note_off,240,0,1,,,,,,,,,0,,,74,0
118680,set_tempo,1680,1,0,,,,,,260869,,,,,,,
118800,note_on,0,0,1,,,,,,,,,0,,,72,54
118800,note_off,240,0,1,,,,,,,,,0,,,75,0
118800,note_on,0,0,3,,,,,,,,,2,,,60,54
118800,note_off,240,0,3,,,,,,,,,2,,,57,0
119000,set_tempo,320,1,0,,,,,,263157,,,,,,,
119040,note_off,240,0,1,,,,,,,,,0,,,72,0
119040,note_on,0,0,3,,,,,,,,,2,,,62,54
119040,note_on,0,0,3,,,,,,,,,2,,,58,54
119040,note_off,0,0,3,,,,,,,,,2,,,53,0
119040,note_off,240,0,3,,,,,,,,,2,,,60,0
119040,note_on,0,0,1,,,,,,,,,0,,,74,54
119040,set_tempo,40,1,0,,,,,,256410,,,,,,,
119280,note_off,240,0,1,,,,,,,,,0,,,74,0
119280,note_on,0,0,1,,,,,,,,,0,,,72,54
119520,note_off,240,0,1,,,,,,,,,0,,,72,0
119520,note_on,0,0,1,,,,,,,,,0,,,70,54
119760,note_off,720,0,3,,,,,,,,,2,,,62,0
119760,note_on,0,0,3,,,,,,,,,2,,,60,53
119760,note_off,0,0,3,,,,,,,,,2,,,58,0
120000,note_on,0,0,3,,,,,,,,,2,,,58,53
120000,note_off,240,0,3,,,,,,,,,2,,,60,0
120240,note_off,720,0,1,,,,,,,,,0,,,70,0
120240,note_on,0,0,1,,,,,,,,,0,,,67,53
120480,note_off,240,0,1,,,,,,,,,0,,,67,0
120480,note_on,0,0,1,,,,,,,,,0,,,65,53
120720,note_on,0,0,3,,,,,,,,,2,,,55,52
120720,note_off,720,0,3,,,,,,,,,2,,,58,0
120840,set_tempo,1800,1,0,,,,,,258620,,,,,,,
120960,note_off,240,0,3,,,,,,,,,2,,,55,0
120960,note_on,0,0,3,,,,,,,,,2,,,53,52
121200,note_on,0,0,1,,,,,,,,,0,,,63,52
121200,note_off,720,0,1,,,,,,,,,0,,,65,0
121440,note_off,240,0,1,,,,,,,,,0,,,63,0
121440,note_on,0,0,1,,,,,,,,,0,,,62,52
121680,note_off,720,0,3,,,,,,,,,2,,,53,0
121680,note_on,0,0,3,,,,,,,,,2,,,51,52
121920,note_off,240,0,3,,,,,,,,,2,,,51,0
121920,note_on,0,0,3,,,,,,,,,2,,,50,51
122160,note_on,0,0,1,,,,,,,,,0,,,60,51
122160,note_off,720,0,1,,,,,,,,,0,,,62,0
122400,note_off,240,0,1,,,,,,,,,0,,,60,0
122400,note_on,0,0,1,,,,,,,,,0,,,58,51
122640,note_off,720,0,3,,,,,,,,,2,,,50,0
122640,note_on,0,0,3,,,,,,,,,2,,,48,51
122820,set_tempo,1980,1,0,,,,,,260869,,,,,,,
122880,note_on,0,0,3,,,,,,,,,2,,,46,51
122880,note_off,240,0,3,,,,,,,,,2,,,48,0
123120,note_on,0,0,1,,,,,,,,,0,,,55,51
123120,note_off,720,0,1,,,,,,,,,0,,,58,0
123360,note_on,0,0,1,,,,,,,,,0,,,53,50
123360,note_off,240,0,1,,,,,,,,,0,,,55,0
123600,note_off,720,0,3,,,,,,,,,2,,,46,0
123600,note_on,0,0,3,,,,,,,,,2,,,43,50
123840,note_off,240,0,3,,,,,,,,,2,,,43,0
123840,note_on,0,0,3,,,,,,,,,2,,,41,50
124080,note_on,0,0,1,,,,,,,,,0,,,51,50
124080,note_off,720,0,1,,,,,,,,,0,,,53,0
124320,note_off,240,0,1,,,,,,,,,0,,,51,0
124320,note_on,0,0,1,,,,,,,,,0,,,50,50
124560,note_on,0,0,3,,,,,,,,,2,,,39,49
124560,note_off,720,0,3,,,,,,,,,2,,,41,0
124680,set_tempo,1860,1,0,,,,,,263157,,,,,,,
124800,note_off,240,0,3,,,,,,,,,2,,,39,0
124800,note_on,0,0,3,,,,,,,,,2,,,38,49
125040,note_on,0,0,1,,,,,,,,,0,,,48,49
125040,note_off,720,0,1,,,,,,,,,0,,,50,0
125280,note_off,240,0,1,,,,,,,,,0,,,48,0
125280,note_on,0,0,1,,,,,,,,,0,,,46,49
125520,note_off,720,0,3,,,,,,,,,2,,,38,0
125520,note_on,0,0,3,,,,,,,,,2,,,36,48
125760,note_off,240,0,3,,,,,,,,,2,,,36,0
125760,note_on,0,0,3,,,,,,,,,2,,,34,48
126000,note_on,0,0,1,,,,,,,,,0,,,48,48
126000,note_off,720,0,1,,,,,,,,,0,,,46,0
126120,set_tempo,1440,1,0,,,,,,319148,,,,,,,
126240,note_off,240,0,1,,,,,,,,,0,,,48,0
126240,note_on,0,0,1,,,,,,,,,0,,,46,48
126480,set_tempo,360,1,0,,,,,,394736,,,,,,,
126480,note_off,720,0,3,,,,,,,,,2,,,34,0
126480,note_on,0,0,3,,,,,,,,,2,,,68,48
126480,note_on,0,0,3,,,,,,,,,2,,,65,48
126720,note_on,0,0,3,,,,,,,,,2,,,65,47
126720,note_on,0,0,3,,,,,,,,,2,,,68,47
126720,note_off,0,0,3,,,,,,,,,2,,,65,0
126720,note_off,240,0,3,,,,,,,,,2,,,68,0
126720,set_tempo,240,1,0,,,,,,276497,,,,,,,
127200,note_off,960,0,1,,,,,,,,,0,,,46,0
128640,note_off,1920,0,3,,,,,,,,,2,,,68,0
128640,note_on,0,0,3,,,,,,,,,2,,,67,46
128640,note_on,0,0,3,,,,,,,,,2,,,63,46
128640,set_tempo,1920,1,0,,,,,,289855,,,,,,,
128640,note_off,0,0,3,,,,,,,,,2,,,65,0
130560,note_off,1920,0,3,,,,,,,,,2,,,63,0
130560,note_on,3360,0,1,,,,,,,,,0,,,77,48
130560,note_on,12480,0,2,,,,,,,,,1,,,70,56
130560,note_off,0,0,3,,,,,,,,,2,,,67,0
130560,set_tempo,1920,1,0,,,,,,277777,,,,,,,
130560,note_on,0,0,3,,,,,,,,,2,,,62,44
130560,note_on,0,0,3,,,,,,,,,2,,,65,44
132480,set_tempo,1920,1,0,,,,,,295566,,,,,,,
132480,note_on,0,0,3,,,,,,,,,2,,,60,46
132480,note_on,0,0,3,,,,,,,,,2,,,63,46
132480,note_off,1920,0,1,,,,,,,,,0,,,77,0
132480,note_on,0,0,1,,,,,,,,,0,,,80,46
132480,note_off,0,0,3,,,,,,,,,2,,,65,0
132480,note_off,1920,0,3,,,,,,,,,2,,,62,0
132480,note_on,0,0,2,,,,,,,,,1,,,68,54
132480,note_off,1920,0,2,,,,,,,,,1,,,70,0
134400,note_off,1920,0,2,,,,,,,,,1,,,68,0
134400,note_on,0,0,2,,,,,,,,,1,,,67,88
134400,note_off,1920,0,1,,,,,,,,,0,,,80,0
134400,note_on,0,0,1,,,,,,,,,0,,,79,88
134400,set_tempo,1920,1,0,,,,,,248962,,,,,,,
134400,note_off,1920,0,3,,,,,,,,,2,,,60,0
134400,note_off,0,0,3,,,,,,,,,2,,,63,0
134400,note_on,0,0,3,,,,,,,,,2,,,62,85
134400,note_on,0,0,3,,,,,,,,,2,,,59,85
135840,note_off,0,0,3,,,,,,,,,2,,,62,0
135840,note_on,0,0,1,,,,,,,,,0,,,74,82
135840,note_off,1440,0,1,,,,,,,,,0,,,79,0
135840,note_on,0,0,3,,,,,,,,,2,,,58,82
135840,note_on,0,0,3,,,,,,,,,2,,,62,82
135840,note_off,1440,0,3,,,,,,,,,2,,,59,0
135840,note_off,1440,0,2,,,,,,,,,1,,,67,0
136080,note_on,0,0,1,,,,,,,,,0,,,79,81
136080,note_off,240,0,1,,,,,,,,,0,,,74,0
136225,note_off,0,0,3,,,,,,,,,2,,,62,0
136225,note_off,385,0,3,,,,,,,,,2,,,58,0
136320,note_on,95,0,3,,,,,,,,,2,,,57,82
136320,note_on,480,0,2,,,,,,,,,1,,,67,81
136320,note_on,0,0,3,,,,,,,,,2,,,60,82
136320,note_off,240,0,1,,,,,,,,,0,,,79,0
136320,note_on,0,0,1,,,,,,,,,0,,,79,81
136680,note_off,360,0,2,,,,,,,,,1,,,67,0
136680,note_off,360,0,1,,,,,,,,,0,,,79,0
136705,note_off,385,0,3,,,,,,,,,2,,,60,0
136705,note_off,0,0,3,,,,,,,,,2,,,57,0
136800,note_on,120,0,1,,,,,,,,,0,,,72,80
137040,note_off,240,0,1,,,,,,,,,0,,,72,0
137040,note_on,0,0,1,,,,,,,,,0,,,77,79
137280,note_on,0,0,3,,,,,,,,,2,,,56,80
137280,note_on,600,0,2,,,,,,,,,1,,,65,79
137280,note_on,575,0,3,,,,,,,,,2,,,60,80
137280,note_off,240,0,1,,,,,,,,,0,,,77,0
137280,note_on,0,0,1,,,,,,,,,0,,,77,79
137640,note_off,360,0,2,,,,,,,,,1,,,65,0
137640,note_off,360,0,1,,,,,,,,,0,,,77,0
137665,note_off,385,0,3,,,,,,,,,2,,,56,0
137665,note_off,0,0,3,,,,,,,,,2,,,60,0
137760,note_on,120,0,1,,,,,,,,,0,,,72,78
138000,note_off,240,0,1,,,,,,,,,0,,,72,0
138000,note_on,0,0,1,,,,,,,,,0,,,75,77
138240,note_on,0,0,3,,,,,,,,,2,,,60,79
138240,note_on,575,0,3,,,,,,,,,2,,,55,79
138240,note_on,600,0,2,,,,,,,,,1,,,63,77
138240,note_on,0,0,1,,,,,,,,,0,,,75,77
138240,note_off,240,0,1,,,,,,,,,0,,,75,0
138600,note_off,360,0,2,,,,,,,,,1,,,63,0
138600,note_off,360,0,1,,,,,,,,,0,,,75,0
138625,note_off,0,0,3,,,,,,,,,2,,,55,0
138625,note_off,385,0,3,,,,,,,,,2,,,60,0
138720,note_on,120,0,1,,,,,,,,,0,,,69,76
138720,note_on,95,0,3,,,,,,,,,2,,,60,78
138720,note_on,0,0,3,,,,,,,,,2,,,54,78
138960,note_on,0,0,1,,,,,,,,,0,,,74,76
138960,note_off,240,0,1,,,,,,,,,0,,,69,0
139105,note_off,385,0,3,,,,,,,,,2,,,54,0
139105,note_off,0,0,3,,,,,,,,,2,,,60,0
139200,note_on,0,0,1,,,,,,,,,0,,,74,75
139200,note_on,0,0,3,,,,,,,,,2,,,53,77
139200,note_on,0,0,3,,,,,,,,,2,,,55,77
139200,note_on,0,0,2,,,,,,,,,1,,,62,75
139200,note_on,600,0,2,,,,,,,,,1,,,67,75
139200,note_off,240,0,1,,,,,,,,,0,,,74,0
139200,note_on,95,0,3,,,,,,,,,2,,,59,77
139560,note_off,360,0,1,,,,,,,,,0,,,74,0
139560,note_off,360,0,2,,,,,,,,,1,,,62,0
139560,note_off,0,0,2,,,,,,,,,1,,,67,0
139585,note_off,0,0,3,,,,,,,,,2,,,59,0
139585,note_off,0,0,3,,,,,,,,,2,,,55,0
139585,note_off,385,0,3,,,,,,,,,2,,,53,0
139680,note_on,120,0,2,,,,,,,,,1,,,72,74
139680,note_on,0,0,3,,,,,,,,,2,,,51,76
139680,note_on,0,0,3,,,,,,,,,2,,,60,76
139680,note_on,120,0,1,,,,,,,,,0,,,79,74
139680,note_on,95,0,3,,,,,,,,,2,,,55,76
139920,note_off,240,0,1,,,,,,,,,0,,,79,0
139920,note_on,0,0,1,,,,,,,,,0,,,84,74
140065,note_off,0,0,3,,,,,,,,,2,,,55,0
140065,note_off,0,0,3,,,,,,,,,2,,,60,0
140065,note_off,385,0,3,,,,,,,,,2,,,51,0
140070,set_tempo,5670,1,0,,,,,,256410,,,,,,,
140160,note_on,0,0,1,,,,,,,,,0,,,65,65
140160,note_off,240,0,1,,,,,,,,,0,,,84,0
140160,note_off,480,0,2,,,,,,,,,1,,,72,0
142080,note_on,0,0,1,,,,,,,,,0,,,63,65
142080,set_tempo,2010,1,0,,,,,,263157,,,,,,,
142080,note_off,1920,0,1,,,,,,,,,0,,,65,0
144000,note_on,0,0,1,,,,,,,,,0,,,75,64
144000,note_on,0,0,2,,,,,,,,,1,,,69,64
144000,note_on,3840,0,2,,,,,,,,,1,,,66,64
144000,set_tempo,1920,1,0,,,,,,251046,,,,,,,
144000,note_off,1920,0,1,,,,,,,,,0,,,63,0
144480,note_on,4415,0,3,,,,,,,,,2,,,48,55
144720,note_off,240,0,3,,,,,,,,,2,,,48,0
144720,note_on,0,0,3,,,,,,,,,2,,,54,55
144960,note_off,240,0,3,,,,,,,,,2,,,54,0
144960,note_on,0,0,3,,,,,,,,,2,,,54,55
145320,note_off,360,0,3,,,,,,,,,2,,,54,0
145440,note_on,120,0,3,,,,,,,,,2,,,45,54
145680,note_off,240,0,3,,,,,,,,,2,,,45,0
145680,note_on,0,0,3,,,,,,,,,2,,,51,54
145920,note_off,240,0,3,,,,,,,,,2,,,51,0
145920,note_on,0,0,3,,,,,,,,,2,,,51,54
146280,note_off,360,0,3,,,,,,,,,2,,,51,0
146400,note_on,120,0,3,,,,,,,,,2,,,41,53
146640,note_on,0,0,3,,,,,,,,,2,,,48,53
146640,note_off,240,0,3,,,,,,,,,2,,,41,0
146880,note_on,0,0,3,,,,,,,,,2,,,48,53
146880,note_off,240,0,3,,,,,,,,,2,,,48,0
147240,note_off,360,0,3,,,,,,,,,2,,,48,0
147360,note_on,0,0,2,,,,,,,,,1,,,70,63
147360,note_on,0,0,2,,,,,,,,,1,,,65,63
147360,note_off,3360,0,2,,,,,,,,,1,,,69,0
147360,note_off,3360,0,1,,,,,,,,,0,,,75,0
147360,note_on,0,0,1,,,,,,,,,0,,,73,63
147360,note_on,120,0,3,,,,,,,,,2,,,49,52
147360,note_off,0,0,2,,,,,,,,,1,,,66,0
147720,note_off,0,0,2,,,,,,,,,1,,,65,0
147720,note_off,360,0,1,,,,,,,,,0,,,73,0
147720,note_off,360,0,2,,,,,,,,,1,,,70,0
147720,note_off,360,0,3,,,,,,,,,2,,,49,0
147720,set_tempo,3720,1,0,,,,,,256410,,,,,,,
147840,note_on,120,0,1,,,,,,,,,0,,,73,63
149760,set_tempo,2040,1,0,,,,,,263157,,,,,,,
149760,note_off,1920,0,1,,,,,,,,,0,,,73,0
149760,note_on,0,0,1,,,,,,,,,0,,,72,63
151680,set_tempo,1920,1,0,,,,,,251046,,,,,,,
151680,note_on,3960,0,2,,,,,,,,,1,,,75,62
151680,note_on,0,0,2,,,,,,,,,1,,,78,62
151680,note_on,0,0,2,,,,,,,,,1,,,72,62
151680,note_off,1920,0,1,,,,,,,,,0,,,72,0
151680,note_on,0,0,1,,,,,,,,,0,,,81,62
152160,note_on,4440,0,3,,,,,,,,,2,,,62,53
152400,note_on,0,0,3,,,,,,,,,2,,,69,53
152400,note_off,240,0,3,,,,,,,,,2,,,62,0
152640,note_off,240,0,3,,,,,,,,,2,,,69,0
152640,note_on,0,0,3,,,,,,,,,2,,,69,53
153000,note_off,360,0,3,,,,,,,,,2,,,69,0
153120,note_on,120,0,3,,,,,,,,,2,,,54,52
153360,note_off,240,0,3,,,,,,,,,2,,,54,0
153360,note_on,0,0,3,,,,,,,,,2,,,60,52
153600,note_off,240,0,3,,,,,,,,,2,,,60,0
153600,note_on,0,0,3,,,,,,,,,2,,,60,52
153960,note_off,360,0,3,,,,,,,,,2,,,60,0
154080,note_on,120,0,3,,,,,,,,,2,,,50,51
154320,note_off,240,0,3,,,,,,,,,2,,,50,0
154320,note_on,0,0,3,,,,,,,,,2,,,57,51
154560,note_on,0,0,3,,,,,,,,,2,,,57,51
154560,note_off,240,0,3,,,,,,,,,2,,,57,0
154920,note_off,360,0,3,,,,,,,,,2,,,57,0
155040,note_on,120,0,3,,,,,,,,,2,,,38,50
155280,note_off,240,0,3,,,,,,,,,2,,,38,0
155280,note_on,0,0,3,,,,,,,,,2,,,50,50
155480,set_tempo,3800,1,0,,,,,,256410,,,,,,,
155520,note_off,0,0,2,,,,,,,,,1,,,75,0
155520,note_off,0,0,2,,,,,,,,,1,,,78,0
155520,note_off,3840,0,2,,,,,,,,,1,,,72,0
155520,note_on,0,0,1,,,,,,,,,0,,,72,61
155520,note_off,3840,0,1,,,,,,,,,0,,,81,0
155520,note_off,240,0,3,,,,,,,,,2,,,50,0
157440,set_tempo,1960,1,0,,,,,,263157,,,,,,,
157440,note_on,0,0,1,,,,,,,,,0,,,71,60
157440,note_off,1920,0,1,,,,,,,,,0,,,72,0
159360,note_off,1920,0,1,,,,,,,,,0,,,71,0
159360,note_on,0,0,1,,,,,,,,,0,,,81,60
159360,note_on,3840,0,2,,,,,,,,,1,,,78,60
159360,note_on,0,0,2,,,,,,,,,1,,,75,60
159360,note_on,0,0,2,,,,,,,,,1,,,71,60
159360,set_tempo,1920,1,0,,,,,,251046,,,,,,,
159840,note_on,4320,0,3,,,,,,,,,2,,,54,49
160080,note_on,0,0,3,,,,,,,,,2,,,63,49
160080,note_off,240,0,3,,,,,,,,,2,,,54,0
160320,note_off,240,0,3,,,,,,,,,2,,,63,0
160320,note_on,0,0,3,,,,,,,,,2,,,63,49
160680,note_off,360,0,3,,,,,,,,,2,,,63,0
160800,note_on,120,0,3,,,,,,,,,2,,,51,49
161040,note_on,0,0,3,,,,,,,,,2,,,59,49
161040,note_off,240,0,3,,,,,,,,,2,,,51,0
161280,note_on,0,0,3,,,,,,,,,2,,,59,49
161280,note_off,240,0,3,,,,,,,,,2,,,59,0
161640,note_off,360,0,3,,,,,,,,,2,,,59,0
161760,note_on,120,0,3,,,,,,,,,2,,,47,48
162000,note_off,240,0,3,,,,,,,,,2,,,47,0
162000,note_on,0,0,3,,,,,,,,,2,,,54,48
162240,note_off,240,0,3,,,,,,,,,2,,,54,0
162240,note_on,0,0,3,,,,,,,,,2,,,54,48
162600,note_off,360,0,3,,,,,,,,,2,,,54,0
162720,note_on,120,0,3,,,,,,,,,2,,,42,48
162960,note_on,0,0,3,,,,,,,,,2,,,51,48
162960,note_off,240,0,3,,,,,,,,,2,,,42,0
163065,set_tempo,3705,1,0,,,,,,256410,,,,,,,
163200,note_off,3840,0,1,,,,,,,,,0,,,81,0
163200,note_on,0,0,1,,,,,,,,,0,,,71,59
163200,note_off,0,0,2,,,,,,,,,1,,,71,0
163200,note_off,0,0,2,,,,,,,,,1,,,78,0
163200,note_off,3840,0,2,,,,,,,,,1,,,75,0
163200,note_off,240,0,3,,,,,,,,,2,,,51,0
165120,set_tempo,2055,1,0,,,,,,263157,,,,,,,
165120,note_on,0,0,1,,,,,,,,,0,,,70,58
165120,note_off,1920,0,1,,,,,,,,,0,,,71,0
167040,note_on,3840,0,2,,,,,,,,,1,,,77,57
167040,note_on,0,0,2,,,,,,,,,1,,,74,57
167040,note_on,0,0,2,,,,,,,,,1,,,70,57
167040,note_off,1920,0,1,,,,,,,,,0,,,70,0
167040,note_on,0,0,1,,,,,,,,,0,,,80,57
167040,set_tempo,1920,1,0,,,,,,253164,,,,,,,
167520,note_on,4320,0,3,,,,,,,,,2,,,56,54
167760,note_off,240,0,3,,,,,,,,,2,,,56,0
167760,note_on,0,0,3,,,,,,,,,2,,,65,54
168000,note_on,0,0,3,,,,,,,,,2,,,65,54
168000,note_off,240,0,3,,,,,,,,,2,,,65,0
168360,note_off,360,0,3,,,,,,,,,2,,,65,0
168480,note_on,120,0,3,,,,,,,,,2,,,53,54
168720,note_on,0,0,3,,,,,,,,,2,,,62,54
168720,note_off,240,0,3,,,,,,,,,2,,,53,0
168960,note_off,240,0,3,,,,,,,,,2,,,62,0
168960,note_on,0,0,3,,,,,,,,,2,,,62,54
169320,note_off,2280,0,1,,,,,,,,,0,,,80,0
169320,note_off,0,0,2,,,,,,,,,1,,,77,0
169320,note_off,2280,0,2,,,,,,,,,1,,,70,0
169320,note_off,360,0,3,,,,,,,,,2,,,62,0
169320,note_off,0,0,2,,,,,,,,,1,,,74,0
169440,note_on,120,0,1,,,,,,,,,0,,,82,63
169440,note_on,120,0,3,,,,,,,,,2,,,50,54
169440,note_on,0,0,3,,,,,,,,,2,,,53,54
169680,note_off,240,0,3,,,,,,,,,2,,,53,0
169680,note_off,0,0,3,,,,,,,,,2,,,50,0
169680,note_on,0,0,3,,,,,,,,,2,,,53,54
169680,note_on,0,0,3,,,,,,,,,2,,,56,54
169920,note_off,240,0,3,,,,,,,,,2,,,56,0
169920,note_off,0,0,3,,,,,,,,,2,,,53,0
169920,note_on,0,0,1,,,,,,,,,0,,,83,75
169920,note_off,480,0,1,,,,,,,,,0,,,82,0
169920,note_on,0,0,3,,,,,,,,,2,,,56,54
169920,note_on,0,0,3,,,,,,,,,2,,,53,54
170280,note_off,0,0,3,,,,,,,,,2,,,56,0
170280,note_off,360,0,3,,,,,,,,,2,,,53,0
170400,note_on,0,0,1,,,,,,,,,0,,,82,69
170400,note_on,0,0,3,,,,,,,,,2,,,50,55
170400,note_on,120,0,3,,,,,,,,,2,,,53,55
170400,note_off,480,0,1,,,,,,,,,0,,,83,0
170640,note_on,0,0,3,,,,,,,,,2,,,53,55
170640,note_on,0,0,3,,,,,,,,,2,,,56,55
170640,note_off,0,0,3,,,,,,,,,2,,,53,0
170640,note_off,240,0,3,,,,,,,,,2,,,50,0
170670,set_tempo,3630,1,0,,,,,,256410,,,,,,,
170880,set_tempo,210,1,0,,,,,,251046,,,,,,,
170880,note_on,0,0,2,,,,,,,,,1,,,74,62
170880,note_on,0,0,2,,,,,,,,,1,,,70,62
170880,note_on,0,0,1,,,,,,,,,0,,,80,64
170880,note_off,480,0,1,,,,,,,,,0,,,82,0
170880,note_off,240,0,3,,,,,,,,,2,,,53,0
170880,note_off,0,0,3,,,,,,,,,2,,,56,0
170880,note_on,1560,0,2,,,,,,,,,1,,,77,62
171360,note_on,480,0,3,,,,,,,,,2,,,56,55
171600,note_off,240,0,3,,,,,,,,,2,,,56,0
171600,note_on,0,0,3,,,,,,,,,2,,,65,55
171840,note_off,240,0,3,,,,,,,,,2,,,65,0
171840,note_on,0,0,3,,,,,,,,,2,,,65,55
172200,note_off,360,0,3,,,,,,,,,2,,,65,0
172320,note_on,120,0,3,,,,,,,,,2,,,53,55
172560,note_off,240,0,3,,,,,,,,,2,,,53,0
172560,note_on,0,0,3,,,,,,,,,2,,,62,55
172740,set_tempo,1860,1,0,,,,,,254237,,,,,,,
172800,note_on,0,0,3,,,,,,,,,2,,,62,55
172800,note_off,240,0,3,,,,,,,,,2,,,62,0
173160,note_off,2280,0,2,,,,,,,,,1,,,70,0
173160,note_off,0,0,2,,,,,,,,,1,,,77,0
173160,note_off,360,0,3,,,,,,,,,2,,,62,0
173160,note_off,0,0,2,,,,,,,,,1,,,74,0
173160,note_off,2280,0,1,,,,,,,,,0,,,80,0
173280,note_on,120,0,3,,,,,,,,,2,,,74,65
173280,note_on,120,0,2,,,,,,,,,1,,,77,77
173280,note_on,120,0,1,,,,,,,,,0,,,82,77
173760,note_off,480,0,3,,,,,,,,,2,,,74,0
173760,note_off,480,0,1,,,,,,,,,0,,,82,0
173760,note_on,0,0,1,,,,,,,,,0,,,83,81
173760,note_on,0,0,2,,,,,,,,,1,,,78,81
173760,note_off,480,0,2,,,,,,,,,1,,,77,0
173760,note_on,0,0,3,,,,,,,,,2,,,75,75
174000,set_tempo,1260,1,0,,,,,,256410,,,,,,,
174240,note_on,0,0,2,,,,,,,,,1,,,77,86
174240,note_off,480,0,2,,,,,,,,,1,,,78,0
174240,note_on,0,0,1,,,,,,,,,0,,,82,86
174240,note_off,480,0,3,,,,,,,,,2,,,75,0
174240,note_on,0,0,3,,,,,,,,,2,,,74,84
174240,note_off,480,0,1,,,,,,,,,0,,,83,0
174480,set_tempo,480,1,0,,,,,,319148,,,,,,,
174720,note_on,0,0,3,,,,,,,,,2,,,61,93
174720,set_tempo,240,1,0,,,,,,248962,,,,,,,
174720,note_on,0,0,2,,,,,,,,,1,,,82,93
174720,note_on,0,0,2,,,,,,,,,1,,,75,93
174720,note_on,0,0,2,,,,,,,,,1,,,79,93
174720,note_off,480,0,3,,,,,,,,,2,,,74,0
174720,note_on,0,0,3,,,,,,,,,2,,,67,93
174720,note_on,0,0,3,,,,,,,,,2,,,70,93
174720,note_on,0,0,1,,,,,,,,,0,,,87,93
174720,note_off,480,0,1,,,,,,,,,0,,,82,0
174720,note_off,480,0,2,,,,,,,,,1,,,77,0
176160,note_on,0,0,1,,,,,,,,,0,,,80,90
176160,note_off,1440,0,1,,,,,,,,,0,,,87,0
176160,note_on,0,0,3,,,,,,,,,2,,,68,87
176160,note_on,0,0,3,,,,,,,,,2,,,59,87
176160,note_on,0,0,3,,,,,,,,,2,,,65,87
176160,note_off,0,0,3,,,,,,,,,2,,,67,0
176160,note_off,0,0,3,,,,,,,,,2,,,70,0
176160,note_off,0,0,2,,,,,,,,,1,,,75,0
176160,note_off,1440,0,2,,,,,,,,,1,,,82,0
176160,note_off,1440,0,3,,,,,,,,,2,,,61,0
176160,note_off,0,0,2,,,,,,,,,1,,,79,0
176160,note_on,0,0,2,,,,,,,,,1,,,77,88
176400,note_off,240,0,1,,,,,,,,,0,,,80,0
176400,note_on,0,0,1,,,,,,,,,0,,,85,88
176545,note_off,385,0,3,,,,,,,,,2,,,68,0
176545,note_off,0,0,3,,,,,,,,,2,,,59,0
176545,note_off,0,0,3,,,,,,,,,2,,,65,0
176640,note_on,0,0,1,,,,,,,,,0,,,85,87
176640,note_off,480,0,2,,,,,,,,,1,,,77,0
176640,note_on,0,0,2,,,,,,,,,1,,,78,86
176640,note_on,0,0,3,,,,,,,,,2,,,66,85
176640,note_on,0,0,3,,,,,,,,,2,,,58,85
176640,note_on,95,0,3,,,,,,,,,2,,,61,85
176640,note_off,240,0,1,,,,,,,,,0,,,85,0
177000,note_off,360,0,2,,,,,,,,,1,,,78,0
177000,note_off,360,0,1,,,,,,,,,0,,,85,0
177025,note_off,385,0,3,,,,,,,,,2,,,66,0
177025,note_off,0,0,3,,,,,,,,,2,,,58,0
177025,note_off,0,0,3,,,,,,,,,2,,,61,0
177120,note_on,120,0,1,,,,,,,,,0,,,77,85
177120,note_on,120,0,2,,,,,,,,,1,,,71,83
177120,note_on,95,0,3,,,,,,,,,2,,,56,83
177120,note_on,0,0,3,,,,,,,,,2,,,61,83
177360,note_off,240,0,1,,,,,,,,,0,,,77,0
177360,note_on,0,0,1,,,,,,,,,0,,,83,83
177505,note_off,385,0,3,,,,,,,,,2,,,61,0
177505,note_off,0,0,3,,,,,,,,,2,,,56,0
177600,note_on,0,0,2,,,,,,,,,1,,,71,81
177600,note_on,0,0,2,,,,,,,,,1,,,80,81
177600,note_on,0,0,1,,,,,,,,,0,,,83,81
177600,note_off,480,0,2,,,,,,,,,1,,,71,0
177600,note_on,95,0,3,,,,,,,,,2,,,61,81
177600,note_off,240,0,1,,,,,,,,,0,,,83,0
177600,note_on,0,0,3,,,,,,,,,2,,,53,81
177985,note_off,385,0,3,,,,,,,,,2,,,53,0
177985,note_off,0,0,3,,,,,,,,,2,,,61,0
178080,note_on,95,0,3,,,,,,,,,2,,,61,79
178080,note_on,0,0,3,,,,,,,,,2,,,54,79
178080,note_off,480,0,2,,,,,,,,,1,,,80,0
178080,note_off,0,0,2,,,,,,,,,1,,,71,0
178080,note_on,0,0,2,,,,,,,,,1,,,70,79
178080,note_on,0,0,2,,,,,,,,,1,,,78,79
178080,note_on,0,0,1,,,,,,,,,0,,,82,78
178080,note_off,480,0,1,,,,,,,,,0,,,83,0
178440,set_tempo,3720,1,0,,,,,,251046,,,,,,,
178465,note_off,0,0,3,,,,,,,,,2,,,61,0
178465,note_off,385,0,3,,,,,,,,,2,,,54,0
178560,note_on,95,0,3,,,,,,,,,2,,,59,77
178560,note_on,0,0,3,,,,,,,,,2,,,63,77
178560,note_off,0,0,2,,,,,,,,,1,,,70,0
178560,note_off,480,0,2,,,,,,,,,1,,,78,0
178560,note_off,480,0,1,,,,,,,,,0,,,82,0
178560,note_on,0,0,1,,,,,,,,,0,,,80,75
178560,note_on,0,0,2,,,,,,,,,1,,,68,77
178945,note_off,0,0,3,,,,,,,,,2,,,59,0
178945,note_off,385,0,3,,,,,,,,,2,,,63,0
179040,note_off,480,0,2,,,,,,,,,1,,,68,0
179040,note_on,0,0,2,,,,,,,,,1,,,66,75
179040,note_on,0,0,1,,,,,,,,,0,,,78,72
179040,note_off,480,0,1,,,,,,,,,0,,,80,0
179040,note_on,0,0,3,,,,,,,,,2,,,58,75
179040,note_on,95,0,3,,,,,,,,,2,,,61,75
179425,note_off,0,0,3,,,,,,,,,2,,,61,0
179425,note_off,385,0,3,,,,,,,,,2,,,58,0
179520,note_off,480,0,1,,,,,,,,,0,,,78,0
179520,note_on,0,0,1,,,,,,,,,0,,,77,69
179520,note_off,480,0,2,,,,,,,,,1,,,66,0
179520,note_on,0,0,2,,,,,,,,,1,,,65,72
179520,note_on,95,0,3,,,,,,,,,2,,,59,73
179520,note_on,0,0,3,,,,,,,,,2,,,56,73
179905,note_off,385,0,3,,,,,,,,,2,,,56,0
179905,note_off,0,0,3,,,,,,,,,2,,,59,0
180000,note_on,0,0,3,,,,,,,,,2,,,58,71
180000,note_on,0,0,2,,,,,,,,,1,,,66,70
180000,note_off,480,0,1,,,,,,,,,0,,,77,0
180000,note_on,95,0,3,,,,,,,,,2,,,54,71
180000,note_off,480,0,2,,,,,,,,,1,,,65,0
180000,note_on,0,0,1,,,,,,,,,0,,,78,66
180255,set_tempo,1815,1,0,,,,,,254237,,,,,,,
180385,note_off,0,0,3,,,,,,,,,2,,,54,0
180385,note_off,385,0,3,,,,,,,,,2,,,58,0
180480,note_off,480,0,2,,,,,,,,,1,,,66,0
180480,note_on,0,0,2,,,,,,,,,1,,,71,63
180480,note_on,0,0,2,,,,,,,,,1,,,68,63
180480,set_tempo,225,1,0,,,,,,256410,,,,,,,
180480,note_on,0,0,1,,,,,,,,,0,,,80,63
180480,note_off,480,0,1,,,,,,,,,0,,,78,0
180960,note_on,575,0,3,,,,,,,,,2,,,41,59
181200,note_on,0,0,3,,,,,,,,,2,,,49,59
181200,note_off,240,0,3,,,,,,,,,2,,,41,0
181440,note_on,0,0,3,,,,,,,,,2,,,49,59
181440,note_off,240,0,3,,,,,,,,,2,,,49,0
181800,note_off,360,0,3,,,,,,,,,2,,,49,0
181920,note_on,120,0,3,,,,,,,,,2,,,53,58
182160,note_on,0,0,3,,,,,,,,,2,,,61,58
182160,note_off,240,0,3,,,,,,,,,2,,,53,0
182400,note_on,0,0,2,,,,,,,,,1,,,68,62
182400,note_on,0,0,2,,,,,,,,,1,,,71,62
182400,note_off,0,0,2,,,,,,,,,1,,,71,0
182400,note_off,1920,0,2,,,,,,,,,1,,,68,0
182400,note_off,240,0,3,,,,,,,,,2,,,61,0
182400,note_on,0,0,1,,,,,,,,,0,,,80,62
182400,note_off,1920,0,1,,,,,,,,,0,,,80,0
182880,note_on,480,0,3,,,,,,,,,2,,,41,58
183120,note_on,0,0,3,,,,,,,,,2,,,50,57
183120,note_off,240,0,3,,,,,,,,,2,,,41,0
183360,note_on,0,0,3,,,,,,,,,2,,,50,57
183360,note_off,240,0,3,,,,,,,,,2,,,50,0
183720,note_off,360,0,3,,,,,,,,,2,,,50,0
183840,note_on,120,0,3,,,,,,,,,2,,,53,57
184080,note_off,240,0,3,,,,,,,,,2,,,53,0
184080,note_on,0,0,3,,,,,,,,,2,,,62,57
184320,note_off,240,0,3,,,,,,,,,2,,,62,0
184320,note_on,0,0,2,,,,,,,,,1,,,67,61
184320,note_off,1920,0,2,,,,,,,,,1,,,68,0
184320,note_on,0,0,1,,,,,,,,,0,,,79,61
184320,note_off,0,0,2,,,,,,,,,1,,,71,0
184320,note_on,0,0,2,,,,,,,,,1,,,72,61
184320,note_off,1920,0,1,,,,,,,,,0,,,80,0
184800,note_on,480,0,3,,,,,,,,,2,,,39,56
185040,note_on,0,0,3,,,,,,,,,2,,,48,56
185040,note_off,240,0,3,,,,,,,,,2,,,39,0
185280,note_on,0,0,3,,,,,,,,,2,,,48,56
185280,note_off,240,0,3,,,,,,,,,2,,,48,0
185640,note_off,360,0,3,,,,,,,,,2,,,48,0
185760,note_on,120,0,3,,,,,,,,,2,,,51,55
186000,note_on,0,0,3,,,,,,,,,2,,,60,55
186000,note_off,240,0,3,,,,,,,,,2,,,51,0
186240,note_on,0,0,2,,,,,,,,,1,,,67,59
186240,note_off,240,0,3,,,,,,,,,2,,,60,0
186240,note_on,0,0,2,,,,,,,,,1,,,65,59
186240,note_off,0,0,2,,,,,,,,,1,,,67,0
186240,note_off,1920,0,1,,,,,,,,,0,,,79,0
186240,note_on,0,0,2,,,,,,,,,1,,,71,59
186240,note_on,0,0,1,,,,,,,,,0,,,77,59
186240,note_off,1920,0,2,,,,,,,,,1,,,72,0
186720,note_on,480,0,3,,,,,,,,,2,,,38,54
186960,note_off,240,0,3,,,,,,,,,2,,,38,0
186960,note_on,0,0,3,,,,,,,,,2,,,47,54
187200,note_on,0,0,3,,,,,,,,,2,,,47,54
187200,note_off,240,0,3,,,,,,,,,2,,,47,0
187560,note_off,360,0,3,,,,,,,,,2,,,47,0
187680,note_on,120,0,3,,,,,,,,,2,,,50,54
187920,note_on,0,0,3,,,,,,,,,2,,,59,53
187920,note_off,240,0,3,,,,,,,,,2,,,50,0
188100,set_tempo,7620,1,0,,,,,,258620,,,,,,,
188160,note_on,0,0,2,,,,,,,,,1,,,63,58
188160,note_off,0,0,2,,,,,,,,,1,,,71,0
188160,note_off,1920,0,2,,,,,,,,,1,,,65,0
188160,note_off,240,0,3,,,,,,,,,2,,,59,0
188160,note_off,1920,0,1,,,,,,,,,0,,,77,0
188160,note_on,0,0,1,,,,,,,,,0,,,75,58
188160,note_off,0,0,2,,,,,,,,,1,,,67,0
188160,note_on,0,0,2,,,,,,,,,1,,,72,58
188160,note_on,0,0,2,,,,,,,,,1,,,67,58
188640,note_on,480,0,3,,,,,,,,,2,,,36,53
188880,note_on,0,0,3,,,,,,,,,2,,,48,53
188880,note_off,240,0,3,,,,,,,,,2,,,36,0
189120,note_on,0,0,3,,,,,,,,,2,,,48,52
189120,note_off,240,0,3,,,,,,,,,2,,,48,0
189480,note_off,360,0,3,,,,,,,,,2,,,48,0
189600,note_on,120,0,3,,,,,,,,,2,,,48,52
189840,note_on,0,0,3,,,,,,,,,2,,,60,52
189840,note_off,240,0,3,,,,,,,,,2,,,48,0
190080,note_on,0,0,1,,,,,,,,,0,,,74,57
190080,note_off,240,0,3,,,,,,,,,2,,,60,0
190080,note_off,0,0,2,,,,,,,,,1,,,72,0
190080,note_off,1920,0,1,,,,,,,,,0,,,75,0
190080,note_off,1920,0,2,,,,,,,,,1,,,63,0
190080,note_off,0,0,2,,,,,,,,,1,,,67,0
190080,note_on,0,0,2,,,,,,,,,1,,,71,57
190080,note_on,0,0,2,,,,,,,,,1,,,68,57
190080,note_on,0,0,2,,,,,,,,,1,,,65,57
190560,note_on,480,0,3,,,,,,,,,2,,,36,51
190800,note_on,0,0,3,,,,,,,,,2,,,48,51
190800,note_off,240,0,3,,,,,,,,,2,,,36,0
191040,note_on,0,0,3,,,,,,,,,2,,,48,51
191040,note_off,240,0,3,,,,,,,,,2,,,48,0
191400,note_off,360,0,3,,,,,,,,,2,,,48,0
191520,note_on,120,0,3,,,,,,,,,2,,,48,50
191760,note_on,0,0,3,,,,,,,,,2,,,60,50
191760,note_off,240,0,3,,,,,,,,,2,,,48,0
192000,note_off,0,0,2,,,,,,,,,1,,,65,0
192000,note_off,0,0,2,,,,,,,,,1,,,68,0
192000,note_off,1920,0,2,,,,,,,,,1,,,71,0
192000,note_on,0,0,2,,,,,,,,,1,,,63,55
192000,note_on,0,0,1,,,,,,,,,0,,,72,55
192000,note_off,240,0,3,,,,,,,,,2,,,60,0
192000,note_on,0,0,2,,,,,,,,,1,,,67,55
192000,note_off,1920,0,1,,,,,,,,,0,,,74,0
192480,note_on,480,0,3,,,,,,,,,2,,,36,50
192720,note_off,240,0,3,,,,,,,,,2,,,36,0
192720,note_on,0,0,3,,,,,,,,,2,,,48,49
192960,note_off,240,0,3,,,,,,,,,2,,,48,0
192960,note_on,0,0,3,,,,,,,,,2,,,48,49
193320,note_off,360,0,3,,,,,,,,,2,,,48,0
193440,note_on,120,0,3,,,,,,,,,2,,,48,49
193680,note_off,240,0,3,,,,,,,,,2,,,48,0
193680,note_on,0,0,3,,,,,,,,,2,,,60,49
193920,note_on,0,0,2,,,,,,,,,1,,,65,54
193920,note_off,240,0,3,,,,,,,,,2,,,60,0
193920,note_on,0,0,1,,,,,,,,,0,,,68,54
193920,note_off,1920,0,1,,,,,,,,,0,,,72,0
193920,note_on,0,0,2,,,,,,,,,1,,,62,54
193920,note_off,0,0,2,,,,,,,,,1,,,63,0
193920,note_off,1920,0,2,,,,,,,,,1,,,67,0
194400,note_on,480,0,3,,,,,,,,,2,,,36,48
194640,note_off,240,0,3,,,,,,,,,2,,,36,0
194640,note_on,0,0,3,,,,,,,,,2,,,48,48
194880,note_on,0,0,3,,,,,,,,,2,,,48,48
194880,note_off,240,0,3,,,,,,,,,2,,,48,0
195240,note_off,360,0,3,,,,,,,,,2,,,48,0
195360,note_on,120,0,3,,,,,,,,,2,,,48,47
195600,note_off,240,0,3,,,,,,,,,2,,,48,0
195600,note_on,0,0,3,,,,,,,,,2,,,60,47
195720,set_tempo,7620,1,0,,,,,,260869,,,,,,,
195840,note_off,240,0,3,,,,,,,,,2,,,60,0
195840,note_off,1920,0,1,,,,,,,,,0,,,68,0
195840,note_on,0,0,1,,,,,,,,,0,,,67,52
195840,note_off,1920,0,2,,,,,,,,,1,,,65,0
195840,note_off,0,0,2,,,,,,,,,1,,,62,0
195840,note_on,0,0,2,,,,,,,,,1,,,60,52
195840,note_on,0,0,2,,,,,,,,,1,,,63,52
196320,note_on,480,0,3,,,,,,,,,2,,,36,46
196560,note_on,0,0,3,,,,,,,,,2,,,48,46
196560,note_off,240,0,3,,,,,,,,,2,,,36,0
196800,note_off,240,0,3,,,,,,,,,2,,,48,0
196800,note_on,0,0,3,,,,,,,,,2,,,48,46
197160,note_off,360,0,3,,,,,,,,,2,,,48,0
197280,note_on,120,0,3,,,,,,,,,2,,,48,46
197520,note_off,240,0,3,,,,,,,,,2,,,48,0
197520,note_on,0,0,3,,,,,,,,,2,,,60,45
197760,note_off,240,0,3,,,,,,,,,2,,,60,0
197760,note_off,1920,0,1,,,,,,,,,0,,,67,0
197760,note_off,1920,0,2,,,,,,,,,1,,,60,0
197760,note_off,0,0,2,,,,,,,,,1,,,63,0
197760,note_on,0,0,2,,,,,,,,,1,,,63,51
197760,note_on,0,0,2,,,,,,,,,1,,,60,51
197760,note_on,0,0,1,,,,,,,,,0,,,68,51
198240,note_on,480,0,3,,,,,,,,,2,,,36,45
198480,note_off,240,0,3,,,,,,,,,2,,,36,0
198480,note_on,0,0,3,,,,,,,,,2,,,48,45
198720,note_off,240,0,3,,,,,,,,,2,,,48,0
198720,note_on,0,0,3,,,,,,,,,2,,,48,44
199080,note_off,360,0,3,,,,,,,,,2,,,48,0
199200,note_on,120,0,3,,,,,,,,,2,,,48,44
199440,note_off,240,0,3,,,,,,,,,2,,,48,0
199440,note_on,0,0,3,,,,,,,,,2,,,60,44
199620,set_tempo,3900,1,0,,,,,,263157,,,,,,,
199680,note_off,1920,0,2,,,,,,,,,1,,,60,0
199680,note_off,0,0,2,,,,,,,,,1,,,63,0
199680,note_on,0,0,2,,,,,,,,,1,,,63,50
199680,note_off,240,0,3,,,,,,,,,2,,,60,0
199680,note_off,1920,0,1,,,,,,,,,0,,,68,0
199680,note_on,0,0,1,,,,,,,,,0,,,68,50
200160,note_on,480,0,3,,,,,,,,,2,,,48,43
200400,note_on,0,0,3,,,,,,,,,2,,,60,43
200400,note_off,240,0,3,,,,,,,,,2,,,48,0
200640,note_on,0,0,3,,,,,,,,,2,,,48,43
200640,note_off,240,0,3,,,,,,,,,2,,,60,0
200880,note_on,0,0,3,,,,,,,,,2,,,60,43
200880,note_off,240,0,3,,,,,,,,,2,,,48,0
201120,note_off,240,0,3,,,,,,,,,2,,,60,0
201600,note_off,1920,0,1,,,,,,,,,0,,,68,0
201600,note_on,0,0,2,,,,,,,,,1,,,62,48
201600,note_off,1920,0,2,,,,,,,,,1,,,63,0
201600,note_on,0,0,1,,,,,,,,,0,,,68,48
202080,note_on,960,0,3,,,,,,,,,2,,,47,42
202320,note_on,0,0,3,,,,,,,,,2,,,59,41
202320,note_off,240,0,3,,,,,,,,,2,,,47,0
202560,note_off,240,0,3,,,,,,,,,2,,,59,0
202560,note_on,0,0,3,,,,,,,,,2,,,47,41
202800,note_on,0,0,3,,,,,,,,,2,,,59,41
202800,note_off,240,0,3,,,,,,,,,2,,,47,0
203040,note_off,240,0,3,,,,,,,,,2,,,59,0
203400,set_tempo,3780,1,0,,,,,,265486,,,,,,,
203520,note_on,0,0,1,,,,,,,,,0,,,68,47
203520,note_on,0,0,2,,,,,,,,,1,,,63,47
203520,note_off,1920,0,2,,,,,,,,,1,,,62,0
203520,note_off,1920,0,1,,,,,,,,,0,,,68,0
204000,note_on,960,0,3,,,,,,,,,2,,,48,40
204240,note_off,240,0,3,,,,,,,,,2,,,48,0
204240,note_on,0,0,3,,,,,,,,,2,,,60,40
204480,note_off,240,0,3,,,,,,,,,2,,,60,0
204480,note_on,0,0,3,,,,,,,,,2,,,48,40
204720,note_on,0,0,3,,,,,,,,,2,,,60,39
204720,note_off,240,0,3,,,,,,,,,2,,,48,0
204960,note_off,240,0,3,,,,,,,,,2,,,60,0
205440,note_off,1920,0,2,,,,,,,,,1,,,63,0
205440,note_on,0,0,1,,,,,,,,,0,,,68,45
205440,note_off,1920,0,1,,,,,,,,,0,,,68,0
205440,note_on,0,0,2,,,,,,,,,1,,,63,45
205920,note_on,960,0,3,,,,,,,,,2,,,48,38
206160,note_off,240,0,3,,,,,,,,,2,,,48,0
206160,note_on,0,0,3,,,,,,,,,2,,,60,38
206400,note_off,240,0,3,,,,,,,,,2,,,60,0
206400,note_on,0,0,3,,,,,,,,,2,,,48,38
206640,note_off,240,0,3,,,,,,,,,2,,,48,0
206640,note_on,0,0,3,,,,,,,,,2,,,60,38
206880,note_off,240,0,3,,,,,,,,,2,,,60,0
207240,set_tempo,3840,1,0,,,,,,269058,,,,,,,
207360,set_tempo,120,1,0,,,,,,253164,,,,,,,
207360,note_off,1920,0,1,,,,,,,,,0,,,68,0
207360,note_off,1920,0,2,,,,,,,,,1,,,63,0
207360,note_on,0,0,2,,,,,,,,,1,,,63,44
207360,note_on,0,0,1,,,,,,,,,0,,,68,44
207840,note_on,960,0,3,,,,,,,,,2,,,48,45
208080,note_on,0,0,3,,,,,,,,,2,,,60,48
208080,note_off,240,0,3,,,,,,,,,2,,,48,0
208320,note_off,240,0,3,,,,,,,,,2,,,60,0
208320,note_on,0,0,3,,,,,,,,,2,,,48,50
208560,note_on,0,0,3,,,,,,,,,2,,,60,53
208560,note_off,240,0,3,,,,,,,,,2,,,48,0
208800,note_off,240,0,3,,,,,,,,,2,,,60,0
208800,note_on,0,0,3,,,,,,,,,2,,,48,55
208800,note_on,0,0,1,,,,,,,,,0,,,56,58
208800,note_off,1440,0,1,,,,,,,,,0,,,68,0
208800,note_off,1440,0,2,,,,,,,,,1,,,63,0
209040,note_off,240,0,3,,,,,,,,,2,,,48,0
209040,note_on,0,0,3,,,,,,,,,2,,,60,58
209040,note_off,240,0,1,,,,,,,,,0,,,56,0
209040,note_on,0,0,1,,,,,,,,,0,,,68,61
209280,note_on,0,0,3,,,,,,,,,2,,,48,62
209280,note_off,240,0,3,,,,,,,,,2,,,60,0
209280,note_off,240,0,1,,,,,,,,,0,,,68,0
209280,note_on,0,0,1,,,,,,,,,0,,,56,65
209520,note_off,240,0,3,,,,,,,,,2,,,48,0
209520,note_on,0,0,1,,,,,,,,,0,,,68,68
209520,note_off,240,0,1,,,,,,,,,0,,,56,0
209520,note_on,0,0,3,,,,,,,,,2,,,60,66
209760,note_on,0,0,1,,,,,,,,,0,,,68,71
209760,note_on,0,0,3,,,,,,,,,2,,,60,70
209760,note_off,240,0,3,,,,,,,,,2,,,60,0
209760,note_off,240,0,1,,,,,,,,,0,,,68,0
210000,note_off,240,0,1,,,,,,,,,0,,,68,0
210000,note_on,0,0,1,,,,,,,,,0,,,80,74
210000,note_off,240,0,3,,,,,,,,,2,,,60,0
210000,note_on,0,0,3,,,,,,,,,2,,,63,74
210240,note_on,0,0,3,,,,,,,,,2,,,60,78
210240,note_off,240,0,3,,,,,,,,,2,,,63,0
210240,note_off,240,0,1,,,,,,,,,0,,,80,0
210240,note_on,0,0,1,,,,,,,,,0,,,68,78
210480,note_off,240,0,3,,,,,,,,,2,,,60,0
210480,note_on,0,0,1,,,,,,,,,0,,,80,81
210480,note_off,240,0,1,,,,,,,,,0,,,68,0
210480,note_on,0,0,3,,,,,,,,,2,,,63,82
210720,note_on,0,0,1,,,,,,,,,0,,,68,84
210720,note_off,240,0,1,,,,,,,,,0,,,80,0
210720,note_on,0,0,3,,,,,,,,,2,,,60,86
210720,note_off,240,0,3,,,,,,,,,2,,,63,0
210840,set_tempo,3480,1,0,,,,,,258620,,,,,,,
210960,note_off,240,0,3,,,,,,,,,2,,,60,0
210960,note_on,0,0,3,,,,,,,,,2,,,63,90
210960,note_off,240,0,1,,,,,,,,,0,,,68,0
210960,note_on,0,0,1,,,,,,,,,0,,,80,88
210970,set_tempo,130,1,0,,,,,,379746,,,,,,,
211200,note_on,0,0,1,,,,,,,,,0,,,80,91
211200,note_off,240,0,1,,,,,,,,,0,,,80,0
211200,set_tempo,230,1,0,,,,,,248962,,,,,,,
211200,note_on,0,0,3,,,,,,,,,2,,,60,95
211200,note_on,0,0,3,,,,,,,,,2,,,63,95
211200,note_off,240,0,3,,,,,,,,,2,,,63,0
211200,note_on,2400,0,2,,,,,,,,,1,,,68,91
212640,note_off,1440,0,1,,,,,,,,,0,,,80,0
212640,note_on,0,0,1,,,,,,,,,0,,,74,82
212640,note_off,1440,0,2,,,,,,,,,1,,,68,0
212640,note_on,0,0,2,,,,,,,,,1,,,67,82
212640,note_on,0,0,3,,,,,,,,,2,,,59,85
212640,note_on,0,0,3,,,,,,,,,2,,,62,85
212640,note_off,0,0,3,,,,,,,,,2,,,63,0
212640,note_off,1440,0,3,,,,,,,,,2,,,60,0
212880,note_on,0,0,3,,,,,,,,,2,,,58,85
212880,note_on,0,0,3,,,,,,,,,2,,,61,85
212880,note_off,240,0,3,,,,,,,,,2,,,59,0
212880,note_off,240,0,1,,,,,,,,,0,,,74,0
212880,note_on,0,0,1,,,,,,,,,0,,,79,81
212880,note_off,0,0,3,,,,,,,,,2,,,62,0
213120,note_off,240,0,1,,,,,,,,,0,,,79,0
213120,note_on,0,0,1,,,,,,,,,0,,,79,80
213120,note_off,480,0,2,,,,,,,,,1,,,67,0
213120,note_on,0,0,3,,,,,,,,,2,,,61,84
213120,note_on,0,0,2,,,,,,,,,1,,,67,80
213120,note_on,0,0,3,,,,,,,,,2,,,58,84
213120,note_off,240,0,3,,,,,,,,,2,,,61,0
213120,note_off,0,0,3,,,,,,,,,2,,,58,0
213480,note_off,360,0,3,,,,,,,,,2,,,61,0
213480,note_off,0,0,3,,,,,,,,,2,,,58,0
213600,note_on,0,0,2,,,,,,,,,1,,,65,77
213600,note_off,480,0,2,,,,,,,,,1,,,67,0
213600,note_on,120,0,3,,,,,,,,,2,,,60,83
213600,note_off,480,0,1,,,,,,,,,0,,,79,0
213600,note_on,0,0,1,,,,,,,,,0,,,72,77
213600,note_on,0,0,3,,,,,,,,,2,,,57,83
213840,note_off,240,0,1,,,,,,,,,0,,,72,0
213840,note_on,0,0,3,,,,,,,,,2,,,59,82
213840,note_off,240,0,3,,,,,,,,,2,,,57,0
213840,note_off,0,0,3,,,,,,,,,2,,,60,0
213840,note_on,0,0,1,,,,,,,,,0,,,77,76
213840,note_on,0,0,3,,,,,,,,,2,,,56,82
214080,note_off,240,0,3,,,,,,,,,2,,,59,0
214080,note_off,0,0,3,,,,,,,,,2,,,56,0
214080,note_on,0,0,3,,,,,,,,,2,,,56,81
214080,note_on,0,0,3,,,,,,,,,2,,,59,81
214080,note_off,240,0,1,,,,,,,,,0,,,77,0
214080,note_on,0,0,1,,,,,,,,,0,,,77,75
214080,note_on,0,0,2,,,,,,,,,1,,,65,75
214080,note_off,480,0,2,,,,,,,,,1,,,65,0
214440,note_off,0,0,3,,,,,,,,,2,,,56,0
214440,note_off,360,0,3,,,,,,,,,2,,,59,0
214560,note_on,0,0,2,,,,,,,,,1,,,70,72
214560,note_off,480,0,1,,,,,,,,,0,,,77,0
214560,note_on,0,0,1,,,,,,,,,0,,,70,72
214560,note_on,0,0,2,,,,,,,,,1,,,63,72
214560,note_on,120,0,3,,,,,,,,,2,,,55,80
214560,note_on,0,0,3,,,,,,,,,2,,,58,80
214560,note_off,480,0,2,,,,,,,,,1,,,65,0
214785,set_tempo,3585,1,0,,,,,,251046,,,,,,,
214800,note_on,0,0,1,,,,,,,,,0,,,75,71
214800,note_off,240,0,1,,,,,,,,,0,,,70,0
214800,note_off,240,0,3,,,,,,,,,2,,,58,0
214800,note_on,0,0,3,,,,,,,,,2,,,54,79
214800,note_on,0,0,3,,,,,,,,,2,,,57,79
214800,note_off,240,0,2,,,,,,,,,1,,,70,0
214800,note_off,0,0,3,,,,,,,,,2,,,55,0
215040,note_off,240,0,2,,,,,,,,,1,,,63,0
215040,note_on,0,0,2,,,,,,,,,1,,,70,70
215040,note_on,0,0,2,,,,,,,,,1,,,63,70
215040,note_on,0,0,2,,,,,,,,,1,,,68,70
215040,note_on,0,0,3,,,,,,,,,2,,,56,79
215040,note_off,240,0,1,,,,,,,,,0,,,75,0
215040,set_tempo,255,1,0,,,,,,251046,,,,,,,
215040,note_off,240,0,3,,,,,,,,,2,,,57,0
215040,note_off,0,0,3,,,,,,,,,2,,,54,0
215040,note_on,0,0,3,,,,,,,,,2,,,53,79
215040,note_on,0,0,1,,,,,,,,,0,,,75,70
216000,note_on,0,0,1,,,,,,,,,0,,,74,67
216000,note_off,960,0,1,,,,,,,,,0,,,75,0
216000,note_off,960,0,2,,,,,,,,,1,,,63,0
216000,note_on,0,0,2,,,,,,,,,1,,,62,67
216480,note_off,480,0,2,,,,,,,,,1,,,62,0
216480,note_off,0,0,2,,,,,,,,,1,,,68,0
216480,note_on,0,0,2,,,,,,,,,1,,,63,67
216480,note_on,0,0,2,,,,,,,,,1,,,70,67
216480,note_off,0,0,2,,,,,,,,,1,,,70,0
216480,note_off,1440,0,3,,,,,,,,,2,,,56,0
216480,note_on,0,0,3,,,,,,,,,2,,,55,75
216480,note_on,0,0,3,,,,,,,,,2,,,51,75
216480,note_off,0,0,3,,,,,,,,,2,,,53,0
216480,note_off,480,0,1,,,,,,,,,0,,,74,0
216480,note_on,0,0,1,,,,,,,,,0,,,75,67
216960,note_on,0,0,3,,,,,,,,,2,,,53,73
216960,note_off,480,0,3,,,,,,,,,2,,,55,0
216960,note_on,0,0,1,,,,,,,,,0,,,77,67
216960,note_on,0,0,3,,,,,,,,,2,,,50,73
216960,note_off,480,0,2,,,,,,,,,1,,,70,0
216960,note_on,0,0,2,,,,,,,,,1,,,65,67
216960,note_off,480,0,1,,,,,,,,,0,,,75,0
216960,note_off,0,0,3,,,,,,,,,2,,,51,0
216960,note_on,0,0,2,,,,,,,,,1,,,70,67
216960,note_off,0,0,2,,,,,,,,,1,,,63,0
217440,note_on,0,0,3,,,,,,,,,2,,,48,72
217440,note_off,480,0,2,,,,,,,,,1,,,70,0
217440,note_off,0,0,2,,,,,,,,,1,,,65,0
217440,note_on,0,0,2,,,,,,,,,1,,,70,67
217440,note_off,480,0,1,,,,,,,,,0,,,77,0
217440,note_on,0,0,1,,,,,,,,,0,,,79,67
217440,note_off,480,0,3,,,,,,,,,2,,,50,0
217440,note_on,0,0,2,,,,,,,,,1,,,67,67
217440,note_off,0,0,3,,,,,,,,,2,,,53,0
217440,note_on,0,0,3,,,,,,,,,2,,,51,72
217920,note_on,0,0,1,,,,,,,,,0,,,80,67
217920,note_off,480,0,1,,,,,,,,,0,,,79,0
217920,note_off,0,0,3,,,,,,,,,2,,,51,0
217920,note_on,0,0,3,,,,,,,,,2,,,46,71
217920,note_on,0,0,3,,,,,,,,,2,,,50,71
217920,note_off,480,0,2,,,,,,,,,1,,,67,0
217920,note_off,0,0,2,,,,,,,,,1,,,70,0
217920,note_on,0,0,2,,,,,,,,,1,,,70,67
217920,note_on,0,0,2,,,,,,,,,1,,,68,67
217920,note_off,480,0,3,,,,,,,,,2,,,48,0
218400,note_on,0,0,3,,,,,,,,,2,,,53,68
218400,set_tempo,3360,1,0,,,,,,253164,,,,,,,
218400,note_on,0,0,3,,,,,,,,,2,,,46,68
218400,note_on,0,0,3,,,,,,,,,2,,,50,68
218400,note_on,0,0,2,,,,,,,,,1,,,70,67
218400,note_off,0,0,2,,,,,,,,,1,,,70,0
218400,note_off,480,0,2,,,,,,,,,1,,,68,0
218400,note_off,0,0,3,,,,,,,,,2,,,46,0
218400,note_off,480,0,1,,,,,,,,,0,,,80,0
218400,note_off,480,0,3,,,,,,,,,2,,,50,0
218400,note_on,0,0,1,,,,,,,,,0,,,82,67
218880,note_off,0,0,3,,,,,,,,,2,,,50,0
218880,note_off,0,0,3,,,,,,,,,2,,,53,0
218880,note_on,0,0,2,,,,,,,,,1,,,70,68
218880,note_off,480,0,1,,,,,,,,,0,,,82,0
218880,note_on,0,0,1,,,,,,,,,0,,,79,68
218880,set_tempo,480,1,0,,,,,,248962,,,,,,,
218880,note_off,480,0,3,,,,,,,,,2,,,46,0
218880,note_off,480,0,2,,,,,,,,,1,,,70,0
218880,note_on,0,0,2,,,,,,,,,1,,,67,68
218880,note_on,0,0,3,,,,,,,,,2,,,39,54
219120,note_off,0,0,2,,,,,,,,,1,,,67,0
219120,note_off,240,0,1,,,,,,,,,0,,,79,0
219120,note_on,240,0,3,,,,,,,,,2,,,46,55
219120,note_off,240,0,2,,,,,,,,,1,,,70,0
219354,note_off,234,0,3,,,,,,,,,2,,,39,0
219360,note_on,6,0,3,,,,,,,,,2,,,55,56
219516,note_off,156,0,3,,,,,,,,,2,,,46,0
219600,note_on,84,0,3,,,,,,,,,2,,,46,56
219756,note_off,156,0,3,,,,,,,,,2,,,55,0
219840,note_on,720,0,2,,,,,,,,,1,,,70,81
219840,note_on,720,0,1,,,,,,,,,0,,,82,81
219840,note_on,84,0,3,,,,,,,,,2,,,39,57
219996,note_off,156,0,3,,,,,,,,,2,,,46,0
220080,note_off,240,0,1,,,,,,,,,0,,,82,0
220080,note_on,84,0,3,,,,,,,,,2,,,46,58
220080,note_off,240,0,2,,,,,,,,,1,,,70,0
220314,note_off,234,0,3,,,,,,,,,2,,,39,0
220320,note_on,6,0,3,,,,,,,,,2,,,55,59
220476,note_off,156,0,3,,,,,,,,,2,,,46,0
220560,note_on,84,0,3,,,,,,,,,2,,,46,59
220680,set_tempo,1800,1,0,,,,,,251046,,,,,,,
220716,note_off,156,0,3,,,,,,,,,2,,,55,0
220800,note_on,84,0,3,,,,,,,,,2,,,41,60
220800,set_tempo,120,1,0,,,,,,248962,,,,,,,
220800,note_on,720,0,1,,,,,,,,,0,,,94,95
220800,note_on,720,0,2,,,,,,,,,1,,,82,95
220956,note_off,156,0,3,,,,,,,,,2,,,46,0
221040,note_on,84,0,3,,,,,,,,,2,,,46,61
221274,note_off,234,0,3,,,,,,,,,2,,,41,0
221280,note_on,6,0,3,,,,,,,,,2,,,56,62
221436,note_off,156,0,3,,,,,,,,,2,,,46,0
221520,note_on,84,0,3,,,,,,,,,2,,,46,63
221676,note_off,156,0,3,,,,,,,,,2,,,56,0
221760,note_on,84,0,3,,,,,,,,,2,,,41,63
221916,note_off,156,0,3,,,,,,,,,2,,,46,0
222000,note_on,84,0,3,,,,,,,,,2,,,46,64
222234,note_off,234,0,3,,,,,,,,,2,,,41,0
222240,note_off,1440,0,2,,,,,,,,,1,,,82,0
222240,note_on,0,0,2,,,,,,,,,1,,,70,95
222240,note_on,6,0,3,,,,,,,,,2,,,56,65
222240,note_on,0,0,1,,,,,,,,,0,,,82,95
222240,note_off,1440,0,1,,,,,,,,,0,,,94,0
222396,note_off,156,0,3,,,,,,,,,2,,,46,0
222480,note_on,84,0,3,,,,,,,,,2,,,46,66
222636,note_off,156,0,3,,,,,,,,,2,,,56,0
222720,note_on,0,0,3,,,,,,,,,2,,,43,66
222720,note_off,84,0,3,,,,,,,,,2,,,46,0
222960,note_on,240,0,3,,,,,,,,,2,,,46,67
223194,note_off,234,0,3,,,,,,,,,2,,,43,0
223200,note_on,6,0,3,,,,,,,,,2,,,58,66
223356,note_off,156,0,3,,,,,,,,,2,,,46,0
223440,note_on,84,0,3,,,,,,,,,2,,,46,65
223596,note_off,156,0,3,,,,,,,,,2,,,58,0
223680,note_on,84,0,3,,,,,,,,,2,,,43,64
223836,note_off,156,0,3,,,,,,,,,2,,,46,0
223920,note_on,84,0,3,,,,,,,,,2,,,46,63
224154,note_off,234,0,3,,,,,,,,,2,,,43,0
224160,note_off,1920,0,1,,,,,,,,,0,,,82,0
224160,note_on,6,0,3,,,,,,,,,2,,,58,62
224160,note_off,1920,0,2,,,,,,,,,1,,,70,0
224160,note_on,0,0,2,,,,,,,,,1,,,67,83
224160,note_on,0,0,1,,,,,,,,,0,,,79,83
224316,note_off,156,0,3,,,,,,,,,2,,,46,0
224400,note_on,84,0,3,,,,,,,,,2,,,46,61
224556,note_off,156,0,3,,,,,,,,,2,,,58,0
224640,note_on,0,0,1,,,,,,,,,0,,,77,80
224640,note_off,480,0,1,,,,,,,,,0,,,79,0
224640,note_on,84,0,3,,,,,,,,,2,,,44,60
224640,note_on,0,0,2,,,,,,,,,1,,,65,80
224640,note_off,480,0,2,,,,,,,,,1,,,67,0
224796,note_off,156,0,3,,,,,,,,,2,,,46,0
224880,note_on,84,0,3,,,,,,,,,2,,,46,59
225114,note_off,234,0,3,,,,,,,,,2,,,44,0
225120,note_off,480,0,1,,,,,,,,,0,,,77,0
225120,note_off,480,0,2,,,,,,,,,1,,,65,0
225120,note_on,0,0,2,,,,,,,,,1,,,62,78
225120,note_on,6,0,3,,,,,,,,,2,,,56,57
225120,note_on,0,0,1,,,,,,,,,0,,,74,78
225276,note_off,156,0,3,,,,,,,,,2,,,46,0
225360,note_on,84,0,3,,,,,,,,,2,,,46,56
225516,note_off,156,0,3,,,,,,,,,2,,,56,0
225600,note_off,480,0,1,,,,,,,,,0,,,74,0
225600,note_on,84,0,3,,,,,,,,,2,,,34,55
225600,note_off,480,0,2,,,,,,,,,1,,,62,0
225600,note_on,0,0,2,,,,,,,,,1,,,59,75
225600,note_on,0,0,1,,,,,,,,,0,,,71,75
225756,note_off,156,0,3,,,,,,,,,2,,,46,0
225840,note_on,84,0,3,,,,,,,,,2,,,46,54
226080,note_on,0,0,1,,,,,,,,,0,,,70,73
226080,note_on,0,0,2,,,,,,,,,1,,,58,73
226080,note_on,240,0,3,,,,,,,,,2,,,53,53
226080,note_off,480,0,2,,,,,,,,,1,,,59,0
226080,note_off,480,0,1,,,,,,,,,0,,,71,0
226110,set_tempo,5310,1,0,,,,,,253164,,,,,,,
226130,note_off,50,0,3,,,,,,,,,2,,,34,0
226236,note_off,106,0,3,,,,,,,,,2,,,46,0
226320,note_on,84,0,3,,,,,,,,,2,,,46,52
226476,note_off,156,0,3,,,,,,,,,2,,,53,0
226560,note_on,0,0,1,,,,,,,,,0,,,70,70
226560,set_tempo,450,1,0,,,,,,248962,,,,,,,
226560,note_on,0,0,3,,,,,,,,,2,,,39,50
226560,note_on,0,0,2,,,,,,,,,1,,,58,70
226560,note_off,480,0,2,,,,,,,,,1,,,58,0
226560,note_off,480,0,1,,,,,,,,,0,,,70,0
226560,note_off,84,0,3,,,,,,,,,2,,,46,0
226800,note_on,240,0,3,,,,,,,,,2,,,46,51
226800,note_off,240,0,2,,,,,,,,,1,,,58,0
226800,note_off,240,0,1,,,,,,,,,0,,,70,0
227034,note_off,234,0,3,,,,,,,,,2,,,39,0
227040,note_on,6,0,3,,,,,,,,,2,,,55,52
227235,note_off,195,0,3,,,,,,,,,2,,,46,0
227280,note_on,45,0,3,,,,,,,,,2,,,46,53
227475,note_off,195,0,3,,,,,,,,,2,,,55,0
227520,note_on,720,0,1,,,,,,,,,0,,,82,80
227520,note_on,720,0,2,,,,,,,,,1,,,70,80
227520,note_on,45,0,3,,,,,,,,,2,,,39,54
227715,note_off,195,0,3,,,,,,,,,2,,,46,0
227760,note_off,240,0,1,,,,,,,,,0,,,82,0
227760,note_off,240,0,2,,,,,,,,,1,,,70,0
227760,note_on,45,0,3,,,,,,,,,2,,,46,55
227994,note_off,234,0,3,,,,,,,,,2,,,39,0
228000,note_on,6,0,3,,,,,,,,,2,,,55,56
228195,note_off,195,0,3,,,,,,,,,2,,,46,0
228240,note_on,45,0,3,,,,,,,,,2,,,46,57
228390,set_tempo,1830,1,0,,,,,,251046,,,,,,,
228435,note_off,195,0,3,,,,,,,,,2,,,55,0
228480,note_on,720,0,2,,,,,,,,,1,,,82,95
228480,note_on,720,0,1,,,,,,,,,0,,,94,95
228480,note_on,45,0,3,,,,,,,,,2,,,41,57
228480,set_tempo,90,1,0,,,,,,248962,,,,,,,
228675,note_off,195,0,3,,,,,,,,,2,,,46,0
228720,note_on,45,0,3,,,,,,,,,2,,,46,58
228954,note_off,234,0,3,,,,,,,,,2,,,41,0
228960,note_on,6,0,3,,,,,,,,,2,,,56,59
229155,note_off,195,0,3,,,,,,,,,2,,,46,0
229200,note_on,45,0,3,,,,,,,,,2,,,46,60
229395,note_off,195,0,3,,,,,,,,,2,,,56,0
229440,note_on,45,0,3,,,,,,,,,2,,,41,61
229635,note_off,195,0,3,,,,,,,,,2,,,46,0
229680,note_on,45,0,3,,,,,,,,,2,,,46,62
229914,note_off,234,0,3,,,,,,,,,2,,,41,0
229920,note_on,0,0,2,,,,,,,,,1,,,70,95
229920,note_off,1440,0,2,,,,,,,,,1,,,82,0
229920,note_on,0,0,1,,,,,,,,,0,,,82,95
229920,note_on,6,0,3,,,,,,,,,2,,,56,63
229920,note_off,1440,0,1,,,,,,,,,0,,,94,0
230115,note_off,195,0,3,,,,,,,,,2,,,46,0
230160,note_on,45,0,3,,,,,,,,,2,,,46,64
230355,note_off,195,0,3,,,,,,,,,2,,,56,0
230400,note_off,45,0,3,,,,,,,,,2,,,46,0
230400,note_on,0,0,3,,,,,,,,,2,,,43,65
230640,note_on,240,0,3,,,,,,,,,2,,,51,65
230874,note_off,234,0,3,,,,,,,,,2,,,43,0
230880,note_on,6,0,3,,,,,,,,,2,,,58,64
231036,note_off,156,0,3,,,,,,,,,2,,,51,0
231120,note_on,84,0,3,,,,,,,,,2,,,51,63
231276,note_off,156,0,3,,,,,,,,,2,,,58,0
231360,note_on,84,0,3,,,,,,,,,2,,,43,62
231516,note_off,156,0,3,,,,,,,,,2,,,51,0
231600,note_on,84,0,3,,,,,,,,,2,,,51,62
231834,note_off,234,0,3,,,,,,,,,2,,,43,0
231840,note_off,1920,0,2,,,,,,,,,1,,,70,0
231840,note_on,0,0,2,,,,,,,,,1,,,67,86
231840,note_on,6,0,3,,,,,,,,,2,,,58,61
231840,note_on,0,0,1,,,,,,,,,0,,,79,86
231840,note_off,1920,0,1,,,,,,,,,0,,,82,0
231996,note_off,156,0,3,,,,,,,,,2,,,51,0
232080,note_on,84,0,3,,,,,,,,,2,,,51,60
232236,note_off,156,0,3,,,,,,,,,2,,,58,0
232320,note_on,0,0,2,,,,,,,,,1,,,64,84
232320,note_off,480,0,2,,,,,,,,,1,,,67,0
232320,note_off,480,0,1,,,,,,,,,0,,,79,0
232320,note_on,0,0,1,,,,,,,,,0,,,76,84
232320,note_on,84,0,3,,,,,,,,,2,,,44,59
232476,note_off,156,0,3,,,,,,,,,2,,,51,0
232560,note_on,84,0,3,,,,,,,,,2,,,51,58
232794,note_off,234,0,3,,,,,,,,,2,,,44,0
232800,note_off,480,0,2,,,,,,,,,1,,,64,0
232800,note_off,480,0,1,,,,,,,,,0,,,76,0
232800,note_on,0,0,1,,,,,,,,,0,,,77,83
232800,note_on,6,0,3,,,,,,,,,2,,,60,58
232800,note_on,0,0,2,,,,,,,,,1,,,65,83
232956,note_off,156,0,3,,,,,,,,,2,,,51,0
233040,note_on,84,0,3,,,,,,,,,2,,,51,57
233196,note_off,156,0,3,,,,,,,,,2,,,60,0
233280,note_on,0,0,1,,,,,,,,,0,,,72,81
233280,note_off,480,0,1,,,,,,,,,0,,,77,0
233280,note_off,480,0,2,,,,,,,,,1,,,65,0
233280,note_on,0,0,2,,,,,,,,,1,,,60,81
233280,note_on,84,0,3,,,,,,,,,2,,,45,56
233436,note_off,156,0,3,,,,,,,,,2,,,51,0
233520,note_on,84,0,3,,,,,,,,,2,,,53,55
233754,note_off,234,0,3,,,,,,,,,2,,,45,0
233760,note_on,0,0,1,,,,,,,,,0,,,75,79
233760,note_off,480,0,2,,,,,,,,,1,,,60,0
233760,note_on,0,0,2,,,,,,,,,1,,,63,79
233760,note_on,6,0,3,,,,,,,,,2,,,60,54
233760,note_off,480,0,1,,,,,,,,,0,,,72,0
233910,set_tempo,5430,1,0,,,,,,256410,,,,,,,
233916,note_off,156,0,3,,,,,,,,,2,,,53,0
234000,note_on,84,0,3,,,,,,,,,2,,,53,53
234156,note_off,156,0,3,,,,,,,,,2,,,60,0
234240,note_on,0,0,2,,,,,,,,,1,,,62,76
234240,note_on,0,0,3,,,,,,,,,2,,,46,53
234240,note_off,84,0,3,,,,,,,,,2,,,53,0
234240,set_tempo,330,1,0,,,,,,251046,,,,,,,
234240,note_on,0,0,1,,,,,,,,,0,,,74,76
234240,note_off,480,0,1,,,,,,,,,0,,,75,0
234240,note_on,0,0,3,,,,,,,,,2,,,58,53
234240,note_off,480,0,2,,,,,,,,,1,,,63,0
234480,note_off,240,0,2,,,,,,,,,1,,,62,0
234480,note_on,0,0,1,,,,,,,,,0,,,70,76
234480,note_off,240,0,1,,,,,,,,,0,,,74,0
234600,note_off,360,0,3,,,,,,,,,2,,,58,0
234600,note_off,0,0,3,,,,,,,,,2,,,46,0
234720,note_on,120,0,3,,,,,,,,,2,,,63,57
234720,note_on,0,0,1,,,,,,,,,0,,,69,76
234720,note_off,240,0,1,,,,,,,,,0,,,70,0
234960,note_off,240,0,3,,,,,,,,,2,,,63,0
234960,note_on,0,0,3,,,,,,,,,2,,,62,58
234960,note_on,0,0,1,,,,,,,,,0,,,70,77
234960,note_off,240,0,1,,,,,,,,,0,,,69,0
235200,note_on,0,0,1,,,,,,,,,0,,,72,77
235200,note_off,240,0,1,,,,,,,,,0,,,70,0
235200,note_on,720,0,2,,,,,,,,,1,,,69,77
235200,note_off,240,0,3,,,,,,,,,2,,,62,0
235200,note_on,0,0,3,,,,,,,,,2,,,60,59
235440,note_on,0,0,1,,,,,,,,,0,,,74,77
235440,note_off,240,0,1,,,,,,,,,0,,,72,0
235440,note_off,240,0,3,,,,,,,,,2,,,60,0
235440,note_on,0,0,2,,,,,,,,,1,,,70,77
235440,note_off,240,0,2,,,,,,,,,1,,,69,0
235440,note_on,0,0,3,,,,,,,,,2,,,58,60
235680,note_off,240,0,3,,,,,,,,,2,,,58,0
235680,note_on,0,0,3,,,,,,,,,2,,,57,61
235680,note_off,240,0,2,,,,,,,,,1,,,70,0
235680,note_off,240,0,1,,,,,,,,,0,,,74,0
235680,note_on,0,0,1,,,,,,,,,0,,,75,78
235680,note_on,0,0,2,,,,,,,,,1,,,72,78
235920,note_on,0,0,1,,,,,,,,,0,,,77,78
235920,note_off,240,0,1,,,,,,,,,0,,,75,0
235920,note_on,0,0,2,,,,,,,,,1,,,74,78
235920,note_off,240,0,2,,,,,,,,,1,,,72,0
235920,note_off,240,0,3,,,,,,,,,2,,,57,0
235920,note_on,0,0,3,,,,,,,,,2,,,56,62
236160,note_on,0,0,2,,,,,,,,,1,,,75,78
236160,note_on,0,0,1,,,,,,,,,0,,,79,78
236160,note_off,240,0,1,,,,,,,,,0,,,77,0
236160,note_off,240,0,3,,,,,,,,,2,,,56,0
236160,note_on,0,0,3,,,,,,,,,2,,,55,63
236160,note_off,240,0,2,,,,,,,,,1,,,74,0
236400,note_off,240,0,3,,,,,,,,,2,,,55,0
236400,note_on,0,0,3,,,,,,,,,2,,,53,64
236640,note_off,240,0,3,,,,,,,,,2,,,53,0
236640,note_on,0,0,3,,,,,,,,,2,,,51,65
236880,note_on,0,0,3,,,,,,,,,2,,,50,66
236880,note_off,240,0,3,,,,,,,,,2,,,51,0
237000,set_tempo,2760,1,0,,,,,,253164,,,,,,,
237120,note_off,240,0,3,,,,,,,,,2,,,50,0
237120,note_on,0,0,3,,,,,,,,,2,,,51,67
237120,note_on,0,0,2,,,,,,,,,1,,,80,80
237120,note_off,960,0,2,,,,,,,,,1,,,75,0
237120,note_off,960,0,1,,,,,,,,,0,,,79,0
237120,note_on,0,0,1,,,,,,,,,0,,,84,80
237120,set_tempo,120,1,0,,,,,,251046,,,,,,,
237360,note_off,240,0,2,,,,,,,,,1,,,80,0
237360,note_off,240,0,1,,,,,,,,,0,,,84,0
237360,note_on,0,0,1,,,,,,,,,0,,,82,80
237360,note_on,0,0,3,,,,,,,,,2,,,53,68
237360,note_off,240,0,3,,,,,,,,,2,,,51,0
237360,note_on,0,0,2,,,,,,,,,1,,,79,80
237600,note_off,240,0,1,,,,,,,,,0,,,82,0
237600,note_on,0,0,1,,,,,,,,,0,,,80,80
237600,note_on,0,0,2,,,,,,,,,1,,,77,80
237600,note_off,240,0,2,,,,,,,,,1,,,79,0
237600,note_off,240,0,3,,,,,,,,,2,,,53,0
237600,note_on,0,0,3,,,,,,,,,2,,,55,69
237840,note_on,0,0,2,,,,,,,,,1,,,75,81
237840,note_off,240,0,3,,,,,,,,,2,,,55,0
237840,note_on,0,0,3,,,,,,,,,2,,,56,70
237840,note_on,0,0,1,,,,,,,,,0,,,79,81
237840,note_off,240,0,1,,,,,,,,,0,,,80,0
237840,note_off,240,0,2,,,,,,,,,1,,,77,0
238080,note_off,240,0,3,,,,,,,,,2,,,56,0
238080,note_on,0,0,3,,,,,,,,,2,,,58,71
238080,note_off,240,0,1,,,,,,,,,0,,,79,0
238080,note_off,240,0,2,,,,,,,,,1,,,75,0
238080,note_on,0,0,1,,,,,,,,,0,,,77,81
238080,note_on,0,0,2,,,,,,,,,1,,,74,81
238520,set_tempo,1400,1,0,,,,,,253164,,,,,,,
238560,note_off,480,0,2,,,,,,,,,1,,,74,0
238560,note_off,480,0,3,,,,,,,,,2,,,58,0
238560,note_on,0,0,3,,,,,,,,,2,,,65,73
238560,note_on,0,0,2,,,,,,,,,1,,,71,81
238560,note_off,480,0,1,,,,,,,,,0,,,77,0
238560,note_on,0,0,1,,,,,,,,,0,,,80,81
238800,note_off,240,0,3,,,,,,,,,2,,,65,0
238800,note_on,0,0,3,,,,,,,,,2,,,63,74
238800,note_off,240,0,2,,,,,,,,,1,,,71,0
238800,note_on,0,0,2,,,,,,,,,1,,,72,82
238800,note_off,240,0,1,,,,,,,,,0,,,80,0
238800,note_on,0,0,1,,,,,,,,,0,,,79,82
239040,note_on,0,0,2,,,,,,,,,1,,,67,82
239040,note_off,240,0,2,,,,,,,,,1,,,72,0
239040,note_on,0,0,1,,,,,,,,,0,,,77,82
239040,note_off,240,0,3,,,,,,,,,2,,,63,0
239040,note_off,240,0,1,,,,,,,,,0,,,79,0
239040,note_on,0,0,3,,,,,,,,,2,,,62,75
239195,note_off,155,0,1,,,,,,,,,0,,,77,0
239195,note_off,155,0,2,,,,,,,,,1,,,67,0
239280,note_on,85,0,2,,,,,,,,,1,,,75,82
239280,note_off,240,0,3,,,,,,,,,2,,,62,0
239280,note_on,0,0,3,,,,,,,,,2,,,60,77
239280,note_on,85,0,1,,,,,,,,,0,,,78,82
239435,note_off,155,0,3,,,,,,,,,2,,,60,0
239435,note_off,155,0,1,,,,,,,,,0,,,78,0
239435,note_off,155,0,2,,,,,,,,,1,,,75,0
239520,note_on,85,0,1,,,,,,,,,0,,,79,83
239520,note_on,85,0,3,,,,,,,,,2,,,59,78
239520,note_on,85,0,2,,,,,,,,,1,,,74,83
239675,note_off,155,0,2,,,,,,,,,1,,,74,0
239675,note_off,155,0,3,,,,,,,,,2,,,59,0
239675,note_off,155,0,1,,,,,,,,,0,,,79,0
239760,note_on,0,0,2,,,,,,,,,1,,,78,82
239760,note_on,85,0,2,,,,,,,,,1,,,74,82
239760,note_on,85,0,3,,,,,,,,,2,,,57,79
239760,note_on,85,0,1,,,,,,,,,0,,,81,82
239915,note_off,0,0,2,,,,,,,,,1,,,74,0
239915,note_off,155,0,2,,,,,,,,,1,,,78,0
239915,note_off,155,0,1,,,,,,,,,0,,,81,0
239915,note_off,155,0,3,,,,,,,,,2,,,57,0
240000,note_on,85,0,1,,,,,,,,,0,,,83,84
240000,note_on,0,0,2,,,,,,,,,1,,,74,83
240000,note_on,85,0,2,,,,,,,,,1,,,79,83
240000,note_on,85,0,3,,,,,,,,,2,,,55,80
240155,note_off,155,0,1,,,,,,,,,0,,,83,0
240155,note_off,155,0,2,,,,,,,,,1,,,79,0
240155,note_off,155,0,3,,,,,,,,,2,,,55,0
240156,note_off,1,0,2,,,,,,,,,1,,,74,0
240240,note_on,0,0,2,,,,,,,,,1,,,74,85
240240,note_on,84,0,2,,,,,,,,,1,,,79,85
240240,note_on,85,0,3,,,,,,,,,2,,,53,82
240240,note_on,85,0,1,,,,,,,,,0,,,83,86
240395,note_off,155,0,3,,,,,,,,,2,,,53,0
240395,note_off,155,0,1,,,,,,,,,0,,,83,0
240395,note_off,155,0,2,,,,,,,,,1,,,74,0
240395,note_off,0,0,2,,,,,,,,,1,,,79,0
240480,note_on,85,0,3,,,,,,,,,2,,,51,84
240480,note_on,85,0,2,,,,,,,,,1,,,79,87
240480,note_on,0,0,2,,,,,,,,,1,,,75,87
240480,note_on,85,0,1,,,,,,,,,0,,,84,88
240635,note_off,155,0,2,,,,,,,,,1,,,75,0
240635,note_off,0,0,2,,,,,,,,,1,,,79,0
240635,note_off,155,0,1,,,,,,,,,0,,,84,0
240635,note_off,155,0,3,,,,,,,,,2,,,51,0
240720,note_on,0,0,2,,,,,,,,,1,,,77,89
240720,note_on,85,0,1,,,,,,,,,0,,,86,90
240720,note_on,85,0,3,,,,,,,,,2,,,50,87
240720,note_on,85,0,2,,,,,,,,,1,,,83,89
240875,note_off,155,0,1,,,,,,,,,0,,,86,0
240875,note_off,155,0,3,,,,,,,,,2,,,50,0
240875,note_off,155,0,2,,,,,,,,,1,,,77,0
240875,note_off,0,0,2,,,,,,,,,1,,,83,0
240960,note_on,0,0,1,,,,,,,,,0,,,84,92
240960,note_on,85,0,1,,,,,,,,,0,,,87,92
240960,note_on,85,0,3,,,,,,,,,2,,,48,89
240960,note_on,85,0,2,,,,,,,,,1,,,79,91
240960,note_on,0,0,2,,,,,,,,,1,,,84,91
241115,note_off,0,0,1,,,,,,,,,0,,,87,0
241115,note_off,155,0,3,,,,,,,,,2,,,48,0
241115,note_off,0,0,2,,,,,,,,,1,,,79,0
241115,note_off,155,0,1,,,,,,,,,0,,,84,0
241115,note_off,155,0,2,,,,,,,,,1,,,84,0
241200,note_on,85,0,2,,,,,,,,,1,,,84,92
241200,note_on,0,0,2,,,,,,,,,1,,,79,92
241200,note_on,85,0,3,,,,,,,,,2,,,46,91
241200,note_on,85,0,1,,,,,,,,,0,,,88,93
241355,note_off,155,0,3,,,,,,,,,2,,,46,0
241355,note_off,0,0,2,,,,,,,,,1,,,84,0
241355,note_off,155,0,1,,,,,,,,,0,,,88,0
241355,note_off,155,0,2,,,,,,,,,1,,,79,0
241440,note_on,85,0,2,,,,,,,,,1,,,77,94
241440,note_on,0,0,2,,,,,,,,,1,,,84,94
241440,note_on,85,0,3,,,,,,,,,2,,,45,94
241440,note_on,0,0,3,,,,,,,,,2,,,48,94
241440,note_on,85,0,1,,,,,,,,,0,,,89,95
241595,note_off,0,0,3,,,,,,,,,2,,,45,0
241595,note_off,155,0,3,,,,,,,,,2,,,48,0
241595,note_off,155,0,1,,,,,,,,,0,,,89,0
241595,note_off,155,0,2,,,,,,,,,1,,,84,0
241595,note_off,0,0,2,,,,,,,,,1,,,77,0
241680,note_on,85,0,3,,,,,,,,,2,,,48,96
241680,note_on,0,0,2,,,,,,,,,1,,,77,96
241680,note_on,0,0,3,,,,,,,,,2,,,45,96
241680,note_on,85,0,2,,,,,,,,,1,,,84,96
241680,note_on,85,0,1,,,,,,,,,0,,,89,97
241800,set_tempo,3280,1,0,,,,,,319148,,,,,,,
241835,note_off,155,0,2,,,,,,,,,1,,,77,0
241835,note_off,0,0,2,,,,,,,,,1,,,84,0
241835,note_off,0,0,3,,,,,,,,,2,,,48,0
241835,note_off,155,0,3,,,,,,,,,2,,,45,0
241835,note_off,155,0,1,,,,,,,,,0,,,89,0
241920,note_on,85,0,2,,,,,,,,,1,,,82,98
241920,note_on,85,0,1,,,,,,,,,0,,,86,99
241920,note_on,0,0,3,,,,,,,,,2,,,46,98
241920,set_tempo,120,1,0,,,,,,271493,,,,,,,
241920,note_on,85,0,3,,,,,,,,,2,,,44,98
241920,note_on,0,0,2,,,,,,,,,1,,,77,98
242280,note_off,360,0,3,,,,,,,,,2,,,46,0
242280,note_off,0,0,3,,,,,,,,,2,,,44,0
242280,note_off,360,0,2,,,,,,,,,1,,,82,0
242287,note_off,367,0,1,,,,,,,,,0,,,86,0
242287,note_off,7,0,2,,,,,,,,,1,,,77,0
242880,note_on,593,0,1,,,,,,,,,0,,,87,101
242880,note_on,600,0,3,,,,,,,,,2,,,46,102
242880,note_on,0,0,3,,,,,,,,,2,,,43,102
242880,note_on,0,0,2,,,,,,,,,1,,,75,99
242880,note_on,593,0,2,,,,,,,,,1,,,82,99
243240,note_off,360,0,1,,,,,,,,,0,,,87,0
243240,note_off,0,0,3,,,,,,,,,2,,,46,0
243240,note_off,0,0,2,,,,,,,,,1,,,82,0
243240,note_off,360,0,2,,,,,,,,,1,,,75,0
243240,note_off,360,0,3,,,,,,,,,2,,,43,0
243360,set_tempo,1440,1,0,,,,,,400000,,,,,,,
243840,note_on,0,0,3,,,,,,,,,2,,,53,95
243840,note_on,600,0,1,,,,,,,,,0,,,68,95
243840,note_on,600,0,3,,,,,,,,,2,,,47,95
243840,note_on,600,0,2,,,,,,,,,1,,,63,95
243840,set_tempo,480,1,0,,,,,,248962,,,,,,,
245280,note_on,0,0,1,,,,,,,,,0,,,70,79
245280,note_off,1440,0,1,,,,,,,,,0,,,68,0
245280,note_on,0,0,3,,,,,,,,,2,,,46,83
245280,note_off,1440,0,3,,,,,,,,,2,,,47,0
245590,note_off,310,0,1,,,,,,,,,0,,,70,0
245665,note_off,385,0,3,,,,,,,,,2,,,46,0
245760,note_on,170,0,1,,,,,,,,,0,,,71,95
245760,note_on,95,0,3,,,,,,,,,2,,,44,80
246240,note_on,0,0,2,,,,,,,,,1,,,63,79
246240,note_off,2400,0,2,,,,,,,,,1,,,63,0
246480,note_on,0,0,2,,,,,,,,,1,,,62,78
246480,note_off,240,0,2,,,,,,,,,1,,,63,0
246720,note_on,0,0,2,,,,,,,,,1,,,63,77
246720,note_off,240,0,2,,,,,,,,,1,,,62,0
246960,note_off,240,0,2,,,,,,,,,1,,,63,0
246960,note_on,0,0,2,,,,,,,,,1,,,62,76
247010,note_off,1250,0,1,,,,,,,,,0,,,71,0
247200,note_off,240,0,2,,,,,,,,,1,,,62,0
247200,note_on,0,0,2,,,,,,,,,1,,,63,75
247425,set_tempo,3585,1,0,,,,,,258620,,,,,,,
247440,note_on,0,0,2,,,,,,,,,1,,,62,74
247440,note_off,240,0,2,,,,,,,,,1,,,63,0
247680,note_on,0,0,3,,,,,,,,,2,,,47,86
247680,note_off,0,0,3,,,,,,,,,2,,,53,0
247680,note_on,0,0,3,,,,,,,,,2,,,53,86
247680,note_off,240,0,2,,,,,,,,,1,,,62,0
247680,set_tempo,255,1,0,,,,,,248962,,,,,,,
247680,note_off,1920,0,3,,,,,,,,,2,,,44,0
247680,note_on,670,0,1,,,,,,,,,0,,,68,88
247680,note_on,0,0,2,,,,,,,,,1,,,63,88
249120,note_on,0,0,3,,,,,,,,,2,,,46,77
249120,note_on,0,0,1,,,,,,,,,0,,,70,79
249120,note_off,1440,0,3,,,,,,,,,2,,,47,0
249120,note_off,1440,0,1,,,,,,,,,0,,,68,0
249430,note_off,310,0,1,,,,,,,,,0,,,70,0
249505,note_off,385,0,3,,,,,,,,,2,,,46,0
249600,note_on,95,0,3,,,,,,,,,2,,,45,74
249600,note_on,170,0,1,,,,,,,,,0,,,72,90
250080,note_off,2400,0,2,,,,,,,,,1,,,63,0
250080,note_on,0,0,2,,,,,,,,,1,,,63,75
250320,note_off,240,0,2,,,,,,,,,1,,,63,0
250320,note_on,0,0,2,,,,,,,,,1,,,62,73
250560,note_off,240,0,2,,,,,,,,,1,,,62,0
250560,note_on,0,0,2,,,,,,,,,1,,,63,72
250800,note_on,0,0,2,,,,,,,,,1,,,62,71
250800,note_off,240,0,2,,,,,,,,,1,,,63,0
251040,note_on,0,0,2,,,,,,,,,1,,,63,70
251040,note_off,240,0,2,,,,,,,,,1,,,62,0
251280,note_on,0,0,2,,,,,,,,,1,,,62,68
251280,note_off,240,0,2,,,,,,,,,1,,,63,0
251460,set_tempo,3780,1,0,,,,,,253164,,,,,,,
251520,set_tempo,60,1,0,,,,,,248962,,,,,,,
251520,note_off,1920,0,3,,,,,,,,,2,,,45,0
251520,note_on,0,0,3,,,,,,,,,2,,,53,67
251520,note_off,0,0,3,,,,,,,,,2,,,53,0
251520,note_on,0,0,1,,,,,,,,,0,,,71,71
251520,note_off,1920,0,1,,,,,,,,,0,,,72,0
251520,note_on,0,0,3,,,,,,,,,2,,,46,67
251520,note_off,240,0,2,,,,,,,,,1,,,62,0
251880,note_off,360,0,1,,,,,,,,,0,,,71,0
251880,note_off,0,0,3,,,,,,,,,2,,,53,0
251880,note_off,360,0,3,,,,,,,,,2,,,46,0
252000,note_on,480,0,2,,,,,,,,,1,,,63,65
252240,note_on,0,0,2,,,,,,,,,1,,,62,64
252240,note_off,240,0,2,,,,,,,,,1,,,63,0
252480,note_on,0,0,2,,,,,,,,,1,,,63,63
252480,note_off,240,0,2,,,,,,,,,1,,,62,0
252720,note_off,240,0,2,,,,,,,,,1,,,63,0
252720,note_on,0,0,2,,,,,,,,,1,,,62,61
252960,note_off,240,0,2,,,,,,,,,1,,,62,0
252960,note_on,0,0,2,,,,,,,,,1,,,63,60
253200,note_on,0,0,2,,,,,,,,,1,,,62,59
253200,note_off,240,0,2,,,,,,,,,1,,,63,0
253440,note_off,240,0,2,,,,,,,,,1,,,62,0
253440,note_on,0,0,3,,,,,,,,,2,,,55,65
253440,note_on,1560,0,1,,,,,,,,,0,,,70,69
253440,note_on,1560,0,3,,,,,,,,,2,,,46,65
253800,note_off,360,0,3,,,,,,,,,2,,,55,0
253800,note_off,360,0,1,,,,,,,,,0,,,70,0
253800,note_off,0,0,3,,,,,,,,,2,,,46,0
253920,note_on,480,0,2,,,,,,,,,1,,,65,65
254160,note_on,0,0,2,,,,,,,,,1,,,64,63
254160,note_off,240,0,2,,,,,,,,,1,,,65,0
254400,note_on,0,0,2,,,,,,,,,1,,,65,62
254400,note_off,240,0,2,,,,,,,,,1,,,64,0
254640,note_off,240,0,2,,,,,,,,,1,,,65,0
254640,note_on,0,0,2,,,,,,,,,1,,,64,60
254880,note_off,240,0,2,,,,,,,,,1,,,64,0
254880,note_on,0,0,2,,,,,,,,,1,,,65,59
255120,note_off,240,0,2,,,,,,,,,1,,,65,0
255120,note_on,0,0,2,,,,,,,,,1,,,64,57
255240,set_tempo,3720,1,0,,,,,,251046,,,,,,,
255360,set_tempo,120,1,0,,,,,,248962,,,,,,,
255360,note_off,240,0,2,,,,,,,,,1,,,64,0
255360,note_on,1560,0,1,,,,,,,,,0,,,70,67
255360,note_on,1560,0,3,,,,,,,,,2,,,46,63
255360,note_on,0,0,3,,,,,,,,,2,,,56,63
255720,note_off,360,0,1,,,,,,,,,0,,,70,0
255720,note_off,360,0,3,,,,,,,,,2,,,56,0
255720,note_off,0,0,3,,,,,,,,,2,,,46,0
255840,note_on,480,0,2,,,,,,,,,1,,,67,59
256080,note_off,240,0,2,,,,,,,,,1,,,67,0
256080,note_on,0,0,2,,,,,,,,,1,,,65,56
256320,note_on,0,0,3,,,,,,,,,2,,,46,62
256320,note_off,240,0,2,,,,,,,,,1,,,65,0
256320,note_on,600,0,1,,,,,,,,,0,,,70,67
256320,note_on,600,0,3,,,,,,,,,2,,,55,62
256680,note_off,360,0,1,,,,,,,,,0,,,70,0
256680,note_off,0,0,3,,,,,,,,,2,,,55,0
256680,note_off,360,0,3,,,,,,,,,2,,,46,0
256800,note_on,480,0,2,,,,,,,,,1,,,65,57
257040,note_off,240,0,2,,,,,,,,,1,,,65,0
257040,note_on,0,0,2,,,,,,,,,1,,,63,52
257280,note_on,0,0,3,,,,,,,,,2,,,46,61
257280,note_on,600,0,1,,,,,,,,,0,,,70,66
257280,note_off,240,0,2,,,,,,,,,1,,,63,0
257280,note_on,600,0,3,,,,,,,,,2,,,53,61
257640,note_off,360,0,3,,,,,,,,,2,,,46,0
257640,note_off,0,0,3,,,,,,,,,2,,,53,0
257640,note_off,360,0,1,,,,,,,,,0,,,70,0
257760,note_on,480,0,2,,,,,,,,,1,,,63,59
258000,note_on,0,0,2,,,,,,,,,1,,,62,55
258000,note_off,240,0,2,,,,,,,,,1,,,63,0
258240,note_on,600,0,3,,,,,,,,,2,,,55,60
258240,note_on,0,0,3,,,,,,,,,2,,,46,60
258240,note_on,600,0,1,,,,,,,,,0,,,70,65
258240,note_off,240,0,2,,,,,,,,,1,,,62,0
258600,note_off,360,0,1,,,,,,,,,0,,,70,0
258600,note_off,0,0,3,,,,,,,,,2,,,55,0
258600,note_off,360,0,3,,,,,,,,,2,,,46,0
258720,note_on,480,0,2,,,,,,,,,1,,,65,58
258960,note_off,240,0,2,,,,,,,,,1,,,65,0
258960,note_on,0,0,2,,,,,,,,,1,,,63,57
259080,set_tempo,3720,1,0,,,,,,253164,,,,,,,
259200,note_on,0,0,3,,,,,,,,,2,,,65,58
259200,note_on,600,0,1,,,,,,,,,0,,,83,69
259200,note_off,240,0,2,,,,,,,,,1,,,63,0
259200,set_tempo,120,1,0,,,,,,248962,,,,,,,
259200,note_on,600,0,3,,,,,,,,,2,,,58,58
259560,note_off,0,0,3,,,,,,,,,2,,,58,0
259560,note_off,360,0,1,,,,,,,,,0,,,83,0
259560,note_off,360,0,3,,,,,,,,,2,,,65,0
259680,note_on,480,0,2,,,,,,,,,1,,,75,63
259920,note_off,240,0,2,,,,,,,,,1,,,75,0
259920,note_on,0,0,2,,,,,,,,,1,,,74,62
260160,note_off,240,0,2,,,,,,,,,1,,,74,0
260160,note_on,0,0,2,,,,,,,,,1,,,75,61
260400,note_on,0,0,2,,,,,,,,,1,,,74,60
260400,note_off,240,0,2,,,,,,,,,1,,,75,0
260640,note_off,240,0,2,,,,,,,,,1,,,74,0
260640,note_on,0,0,2,,,,,,,,,1,,,75,58
260880,note_off,240,0,2,,,,,,,,,1,,,75,0
260880,note_on,0,0,2,,,,,,,,,1,,,74,57
261120,note_off,240,0,2,,,,,,,,,1,,,74,0
261120,note_on,1560,0,3,,,,,,,,,2,,,67,56
261120,note_on,0,0,3,,,,,,,,,2,,,58,56
261120,note_on,1560,0,1,,,,,,,,,0,,,82,66
261480,note_off,0,0,3,,,,,,,,,2,,,67,0
261480,note_off,360,0,1,,,,,,,,,0,,,82,0
261480,note_off,360,0,3,,,,,,,,,2,,,58,0
261600,note_on,480,0,2,,,,,,,,,1,,,77,61
261840,note_on,0,0,2,,,,,,,,,1,,,76,60
261840,note_off,240,0,2,,,,,,,,,1,,,77,0
262080,note_on,0,0,2,,,,,,,,,1,,,77,59
262080,note_off,240,0,2,,,,,,,,,1,,,76,0
262320,note_on,0,0,2,,,,,,,,,1,,,76,58
262320,note_off,240,0,2,,,,,,,,,1,,,77,0
262560,note_on,0,0,2,,,,,,,,,1,,,77,57
262560,note_off,240,0,2,,,,,,,,,1,,,76,0
262800,note_on,0,0,2,,,,,,,,,1,,,76,56
262800,note_off,240,0,2,,,,,,,,,1,,,77,0
262920,set_tempo,3720,1,0,,,,,,251046,,,,,,,
263040,note_on,0,0,3,,,,,,,,,2,,,58,54
263040,set_tempo,120,1,0,,,,,,248962,,,,,,,
263040,note_on,1560,0,1,,,,,,,,,0,,,82,63
263040,note_on,1560,0,3,,,,,,,,,2,,,68,54
263040,note_off,240,0,2,,,,,,,,,1,,,76,0
263400,note_off,0,0,3,,,,,,,,,2,,,68,0
263400,note_off,360,0,3,,,,,,,,,2,,,58,0
263400,note_off,360,0,1,,,,,,,,,0,,,82,0
263520,note_on,480,0,2,,,,,,,,,1,,,79,59
263760,note_on,0,0,2,,,,,,,,,1,,,77,56
263760,note_off,240,0,2,,,,,,,,,1,,,79,0
264000,note_on,600,0,1,,,,,,,,,0,,,82,62
264000,note_off,240,0,2,,,,,,,,,1,,,77,0
264000,note_on,600,0,3,,,,,,,,,2,,,67,53
264000,note_on,0,0,3,,,,,,,,,2,,,58,53
264360,note_off,360,0,1,,,,,,,,,0,,,82,0
264360,note_off,360,0,3,,,,,,,,,2,,,58,0
264360,note_off,0,0,3,,,,,,,,,2,,,67,0
264480,note_on,480,0,2,,,,,,,,,1,,,77,58
264720,note_on,0,0,2,,,,,,,,,1,,,76,55
264720,note_off,240,0,2,,,,,,,,,1,,,77,0
264960,note_on,600,0,3,,,,,,,,,2,,,56,52
264960,note_on,600,0,1,,,,,,,,,0,,,82,60
264960,note_off,240,0,2,,,,,,,,,1,,,76,0
264960,note_on,0,0,3,,,,,,,,,2,,,46,52
265320,note_off,0,0,3,,,,,,,,,2,,,56,0
265320,note_off,360,0,1,,,,,,,,,0,,,82,0
265320,note_off,360,0,3,,,,,,,,,2,,,46,0
265440,note_on,480,0,2,,,,,,,,,1,,,79,54
265680,note_off,240,0,2,,,,,,,,,1,,,79,0
265680,note_on,0,0,2,,,,,,,,,1,,,77,52
265815,set_tempo,2775,1,0,,,,,,251046,,,,,,,
265920,note_off,240,0,2,,,,,,,,,1,,,77,0
265920,note_on,600,0,1,,,,,,,,,0,,,82,59
265920,note_on,600,0,3,,,,,,,,,2,,,58,54
266400,note_on,0,0,3,,,,,,,,,2,,,60,56
266400,note_on,480,0,2,,,,,,,,,1,,,77,58
266400,note_off,480,0,1,,,,,,,,,0,,,82,0
266400,note_on,0,0,1,,,,,,,,,0,,,80,58
266400,note_off,480,0,3,,,,,,,,,2,,,58,0
266640,note_off,240,0,3,,,,,,,,,2,,,60,0
266640,note_on,0,0,3,,,,,,,,,2,,,62,57
266880,note_on,480,0,2,,,,,,,,,1,,,70,56
266880,note_on,0,0,3,,,,,,,,,2,,,63,58
266880,note_off,240,0,3,,,,,,,,,2,,,62,0
267120,note_on,0,0,3,,,,,,,,,2,,,65,60
267120,note_off,240,0,3,,,,,,,,,2,,,63,0
267360,note_off,240,0,3,,,,,,,,,2,,,65,0
267360,note_on,0,0,3,,,,,,,,,2,,,67,61
267360,note_off,960,0,1,,,,,,,,,0,,,80,0
267360,note_off,480,0,2,,,,,,,,,1,,,77,0
267360,note_on,0,0,2,,,,,,,,,1,,,75,56
267360,note_on,0,0,1,,,,,,,,,0,,,79,56
267600,note_on,0,0,3,,,,,,,,,2,,,68,62
267600,note_off,240,0,3,,,,,,,,,2,,,67,0
267840,note_off,480,0,1,,,,,,,,,0,,,79,0
267840,note_off,240,0,3,,,,,,,,,2,,,68,0
267840,note_on,0,0,3,,,,,,,,,2,,,70,63
267840,note_off,0,0,2,,,,,,,,,1,,,70,0
267840,note_on,0,0,1,,,,,,,,,0,,,77,63
267840,note_on,0,0,2,,,,,,,,,1,,,74,63
267840,note_off,480,0,2,,,,,,,,,1,,,75,0
268080,set_tempo,2265,1,0,,,,,,253164,,,,,,,
268225,note_off,385,0,2,,,,,,,,,1,,,74,0
268225,note_off,385,0,1,,,,,,,,,0,,,77,0
268320,note_on,95,0,1,,,,,,,,,0,,,92,62
268320,note_on,95,0,2,,,,,,,,,1,,,89,62
268320,note_on,0,0,3,,,,,,,,,2,,,72,65
268320,note_off,480,0,3,,,,,,,,,2,,,70,0
268560,note_off,240,0,3,,,,,,,,,2,,,72,0
268560,note_on,0,0,3,,,,,,,,,2,,,74,67
268800,note_on,480,0,2,,,,,,,,,1,,,82,61
268800,note_on,0,0,3,,,,,,,,,2,,,75,68
268800,note_off,240,0,3,,,,,,,,,2,,,74,0
269040,note_on,0,0,3,,,,,,,,,2,,,77,69
269040,note_off,240,0,3,,,,,,,,,2,,,75,0
269280,note_on,0,0,2,,,,,,,,,1,,,87,59
269280,note_on,0,0,3,,,,,,,,,2,,,79,70
269280,note_off,240,0,3,,,,,,,,,2,,,77,0
269280,note_off,480,0,2,,,,,,,,,1,,,89,0
269280,note_on,0,0,1,,,,,,,,,0,,,91,59
269280,note_off,960,0,1,,,,,,,,,0,,,92,0
269520,note_on,0,0,3,,,,,,,,,2,,,80,71
269520,note_off,240,0,3,,,,,,,,,2,,,79,0
269760,note_on,0,0,2,,,,,,,,,1,,,86,58
269760,note_off,0,0,2,,,,,,,,,1,,,82,0
269760,note_off,480,0,2,,,,,,,,,1,,,87,0
269760,note_on,0,0,3,,,,,,,,,2,,,82,72
269760,note_off,480,0,1,,,,,,,,,0,,,91,0
269760,note_off,240,0,3,,,,,,,,,2,,,80,0
269760,note_on,0,0,1,,,,,,,,,0,,,89,58
270105,set_tempo,2025,1,0,,,,,,266666,,,,,,,
270145,note_off,385,0,2,,,,,,,,,1,,,86,0
270145,note_off,385,0,1,,,,,,,,,0,,,89,0
270145,note_off,385,0,3,,,,,,,,,2,,,82,0
270240,note_on,95,0,3,,,,,,,,,2,,,80,75
270240,note_on,95,0,2,,,,,,,,,1,,,89,73
270240,note_on,0,0,2,,,,,,,,,1,,,85,73
270240,note_on,95,0,1,,,,,,,,,0,,,96,73
270720,note_on,0,0,3,,,,,,,,,2,,,79,75
270720,note_off,480,0,3,,,,,,,,,2,,,80,0
270720,note_on,0,0,2,,,,,,,,,1,,,87,72
270720,note_off,480,0,2,,,,,,,,,1,,,85,0
270720,note_off,0,0,2,,,,,,,,,1,,,89,0
270720,note_on,0,0,2,,,,,,,,,1,,,82,72
271105,note_off,385,0,3,,,,,,,,,2,,,79,0
271200,note_on,0,0,2,,,,,,,,,1,,,82,71
271200,note_off,960,0,1,,,,,,,,,0,,,96,0
271200,note_on,0,0,1,,,,,,,,,0,,,94,71
271200,note_on,95,0,3,,,,,,,,,2,,,78,75
271200,note_off,480,0,2,,,,,,,,,1,,,87,0
271200,note_off,0,0,2,,,,,,,,,1,,,82,0
271200,note_on,0,0,2,,,,,,,,,1,,,87,71
271585,note_off,385,0,3,,,,,,,,,2,,,78,0
271680,note_on,0,0,2,,,,,,,,,1,,,84,69
271680,note_on,0,0,2,,,,,,,,,1,,,87,69
271680,note_off,0,0,2,,,,,,,,,1,,,87,0
271680,note_off,480,0,2,,,,,,,,,1,,,82,0
271680,note_on,95,0,3,,,,,,,,,2,,,77,74
272065,note_off,385,0,3,,,,,,,,,2,,,77,0
272085,set_tempo,1980,1,0,,,,,,283018,,,,,,,
272160,note_on,0,0,1,,,,,,,,,0,,,92,68
272160,note_on,95,0,3,,,,,,,,,2,,,70,74
272160,note_off,480,0,2,,,,,,,,,1,,,84,0
272160,note_off,0,0,2,,,,,,,,,1,,,87,0
272160,note_on,0,0,2,,,,,,,,,1,,,89,68
272160,note_on,0,0,2,,,,,,,,,1,,,86,68
272160,note_off,960,0,1,,,,,,,,,0,,,94,0
272545,note_off,385,0,3,,,,,,,,,2,,,70,0
272640,note_on,0,0,2,,,,,,,,,1,,,79,68
272640,set_tempo,555,1,0,,,,,,252100,,,,,,,
272640,note_on,95,0,3,,,,,,,,,2,,,63,74
272640,note_off,480,0,2,,,,,,,,,1,,,86,0
272640,note_off,0,0,2,,,,,,,,,1,,,89,0
272640,note_on,0,0,1,,,,,,,,,0,,,91,68
272640,note_off,480,0,1,,,,,,,,,0,,,92,0
272880,note_on,240,0,2,,,,,,,,,1,,,82,68
273120,note_off,240,0,2,,,,,,,,,1,,,82,0
273120,note_on,0,0,2,,,,,,,,,1,,,84,68
273120,note_on,480,0,3,,,,,,,,,2,,,66,72
273120,note_on,0,0,3,,,,,,,,,2,,,69,72
273360,note_off,240,0,2,,,,,,,,,1,,,84,0
273360,note_on,0,0,2,,,,,,,,,1,,,82,68
273600,note_off,240,0,2,,,,,,,,,1,,,82,0
273600,note_on,0,0,2,,,,,,,,,1,,,84,68
273840,note_on,0,0,2,,,,,,,,,1,,,82,68
273840,note_off,240,0,2,,,,,,,,,1,,,84,0
274080,note_on,0,0,3,,,,,,,,,2,,,67,68
274080,note_off,0,0,3,,,,,,,,,2,,,66,0
274080,note_off,960,0,3,,,,,,,,,2,,,69,0
274080,note_off,240,0,2,,,,,,,,,1,,,82,0
274080,note_on,0,0,2,,,,,,,,,1,,,84,68
274080,note_on,0,0,3,,,,,,,,,2,,,70,68
274320,note_on,0,0,2,,,,,,,,,1,,,82,68
274320,note_off,240,0,2,,,,,,,,,1,,,84,0
274560,note_on,0,0,1,,,,,,,,,0,,,89,68
274560,note_off,0,0,3,,,,,,,,,2,,,67,0
274560,note_on,0,0,3,,,,,,,,,2,,,63,72
274560,note_off,240,0,2,,,,,,,,,1,,,82,0
274560,note_off,1920,0,1,,,,,,,,,0,,,91,0
274560,note_off,0,0,2,,,,,,,,,1,,,79,0
274560,note_on,0,0,2,,,,,,,,,1,,,77,68
274560,note_off,0,0,3,,,,,,,,,2,,,63,0
274560,note_off,480,0,3,,,,,,,,,2,,,70,0
274800,note_on,240,0,2,,,,,,,,,1,,,80,67
275040,note_on,0,0,3,,,,,,,,,2,,,74,72
275040,note_on,0,0,2,,,,,,,,,1,,,82,67
275040,note_off,240,0,2,,,,,,,,,1,,,80,0
275040,note_on,480,0,3,,,,,,,,,2,,,71,72
275280,note_off,240,0,2,,,,,,,,,1,,,82,0
275280,note_on,0,0,2,,,,,,,,,1,,,80,67
275520,note_on,0,0,2,,,,,,,,,1,,,82,67
275520,note_off,240,0,2,,,,,,,,,1,,,80,0
275760,note_on,0,0,2,,,,,,,,,1,,,80,67
275760,note_off,240,0,2,,,,,,,,,1,,,82,0
276000,note_on,0,0,3,,,,,,,,,2,,,70,67
276000,note_on,0,0,2,,,,,,,,,1,,,82,67
276000,note_off,240,0,2,,,,,,,,,1,,,80,0
276000,note_off,960,0,3,,,,,,,,,2,,,74,0
276240,note_off,240,0,2,,,,,,,,,1,,,82,0
276240,note_on,0,0,2,,,,,,,,,1,,,80,67
276360,set_tempo,3720,1,0,,,,,,253164,,,,,,,
276480,note_off,480,0,3,,,,,,,,,2,,,70,0
276480,note_off,0,0,3,,,,,,,,,2,,,71,0
276480,note_on,0,0,3,,,,,,,,,2,,,63,71
276480,note_on,0,0,2,,,,,,,,,1,,,79,67
276480,note_off,0,0,3,,,,,,,,,2,,,63,0
276480,note_off,240,0,2,,,,,,,,,1,,,80,0
276480,note_off,0,0,2,,,,,,,,,1,,,77,0
276480,note_off,1920,0,1,,,,,,,,,0,,,89,0
276480,note_on,0,0,1,,,,,,,,,0,,,87,67
276720,note_off,240,0,2,,,,,,,,,1,,,79,0
276720,note_on,0,0,2,,,,,,,,,1,,,75,67
276960,note_on,480,0,3,,,,,,,,,2,,,67,71
276960,note_on,0,0,2,,,,,,,,,1,,,77,66
276960,note_off,240,0,2,,,,,,,,,1,,,75,0
276960,note_on,0,0,3,,,,,,,,,2,,,70,71
277200,note_on,0,0,2,,,,,,,,,1,,,75,66
277200,note_off,240,0,2,,,,,,,,,1,,,77,0
277440,note_off,480,0,3,,,,,,,,,2,,,70,0
277440,note_off,0,0,3,,,,,,,,,2,,,67,0
277440,note_on,0,0,3,,,,,,,,,2,,,68,70
277440,note_on,0,0,3,,,,,,,,,2,,,72,70
277440,note_on,0,0,1,,,,,,,,,0,,,84,66
277440,note_off,960,0,1,,,,,,,,,0,,,87,0
277440,note_off,240,0,2,,,,,,,,,1,,,75,0
277680,note_on,240,0,2,,,,,,,,,1,,,75,66
277920,note_off,240,0,2,,,,,,,,,1,,,75,0
277920,note_off,0,0,3,,,,,,,,,2,,,68,0
277920,note_on,0,0,3,,,,,,,,,2,,,67,70
277920,note_off,480,0,3,,,,,,,,,2,,,72,0
277920,note_off,480,0,1,,,,,,,,,0,,,84,0
277920,note_on,0,0,1,,,,,,,,,0,,,82,66
277920,note_on,0,0,3,,,,,,,,,2,,,70,70
278160,note_on,240,0,2,,,,,,,,,1,,,75,66
278280,set_tempo,1920,1,0,,,,,,254237,,,,,,,
278400,note_off,240,0,2,,,,,,,,,1,,,75,0
278400,note_on,0,0,3,,,,,,,,,2,,,58,70
278400,note_on,0,0,1,,,,,,,,,0,,,82,66
278400,note_on,0,0,3,,,,,,,,,2,,,67,70
278400,note_off,480,0,3,,,,,,,,,2,,,70,0
278400,note_off,480,0,1,,,,,,,,,0,,,82,0
278400,note_off,0,0,3,,,,,,,,,2,,,63,0
278400,note_off,0,0,3,,,,,,,,,2,,,67,0
278640,note_on,240,0,2,,,,,,,,,1,,,70,66
278880,note_off,240,0,2,,,,,,,,,1,,,70,0
278880,note_on,0,0,2,,,,,,,,,1,,,74,66
278880,note_off,480,0,3,,,,,,,,,2,,,67,0
278880,note_on,0,0,3,,,,,,,,,2,,,65,69
278880,note_on,0,0,3,,,,,,,,,2,,,68,69
278880,note_on,0,0,1,,,,,,,,,0,,,80,66
278880,note_off,480,0,1,,,,,,,,,0,,,82,0
279120,note_off,240,0,2,,,,,,,,,1,,,74,0
279120,note_on,0,0,2,,,,,,,,,1,,,68,65
279360,note_on,0,0,3,,,,,,,,,2,,,63,69
279360,note_off,0,0,3,,,,,,,,,2,,,68,0
279360,note_on,0,0,3,,,,,,,,,2,,,67,69
279360,note_off,480,0,3,,,,,,,,,2,,,65,0
279360,note_off,480,0,1,,,,,,,,,0,,,80,0
279360,note_on,0,0,1,,,,,,,,,0,,,79,65
279360,note_on,0,0,2,,,,,,,,,1,,,75,65
279360,note_off,240,0,2,,,,,,,,,1,,,68,0
279600,note_on,0,0,2,,,,,,,,,1,,,70,65
279600,note_off,240,0,2,,,,,,,,,1,,,75,0
279840,note_off,240,0,2,,,,,,,,,1,,,70,0
279840,note_on,0,0,2,,,,,,,,,1,,,68,65
279840,note_on,0,0,3,,,,,,,,,2,,,65,69
279840,note_off,480,0,1,,,,,,,,,0,,,79,0
279840,note_on,0,0,1,,,,,,,,,0,,,77,65
279840,note_off,480,0,3,,,,,,,,,2,,,67,0
279840,note_off,0,0,3,,,,,,,,,2,,,63,0
279840,note_on,0,0,3,,,,,,,,,2,,,62,69
280080,note_off,240,0,2,,,,,,,,,1,,,68,0
280080,note_on,0,0,2,,,,,,,,,1,,,70,65
280080,set_tempo,1800,1,0,,,,,,260869,,,,,,,
280320,set_tempo,240,1,0,,,,,,252100,,,,,,,
280320,note_on,0,0,3,,,,,,,,,2,,,51,68
280320,note_off,0,0,3,,,,,,,,,2,,,58,0
280320,note_off,0,0,3,,,,,,,,,2,,,65,0
280320,note_off,480,0,3,,,,,,,,,2,,,62,0
280320,note_on,0,0,1,,,,,,,,,0,,,79,65
280320,note_off,480,0,1,,,,,,,,,0,,,77,0
280320,note_off,240,0,2,,,,,,,,,1,,,70,0
280320,note_on,0,0,2,,,,,,,,,1,,,67,65
280560,note_on,240,0,2,,,,,,,,,1,,,70,65
280800,note_off,240,0,2,,,,,,,,,1,,,70,0
280800,note_on,0,0,2,,,,,,,,,1,,,72,65
280800,note_on,0,0,3,,,,,,,,,2,,,54,65
280800,note_on,480,0,3,,,,,,,,,2,,,57,65
281040,note_off,240,0,2,,,,,,,,,1,,,72,0
281040,note_on,0,0,2,,,,,,,,,1,,,70,65
281280,note_on,0,0,2,,,,,,,,,1,,,72,65
281280,note_off,240,0,2,,,,,,,,,1,,,70,0
281520,note_on,0,0,2,,,,,,,,,1,,,70,64
281520,note_off,240,0,2,,,,,,,,,1,,,72,0
281760,note_on,0,0,2,,,,,,,,,1,,,72,64
281760,note_off,240,0,2,,,,,,,,,1,,,70,0
281760,note_off,960,0,3,,,,,,,,,2,,,54,0
281760,note_off,0,0,3,,,,,,,,,2,,,57,0
281760,note_on,0,0,3,,,,,,,,,2,,,55,60
281760,note_on,0,0,3,,,,,,,,,2,,,58,60
282000,note_on,0,0,2,,,,,,,,,1,,,70,64
282000,note_off,240,0,2,,,,,,,,,1,,,72,0
282240,note_off,0,0,3,,,,,,,,,2,,,55,0
282240,note_off,480,0,3,,,,,,,,,2,,,58,0
282240,note_off,1920,0,1,,,,,,,,,0,,,79,0
282240,note_on,0,0,1,,,,,,,,,0,,,77,64
282240,note_off,0,0,3,,,,,,,,,2,,,51,0
282240,note_on,0,0,2,,,,,,,,,1,,,65,64
282240,note_off,0,0,2,,,,,,,,,1,,,67,0
282240,note_on,0,0,3,,,,,,,,,2,,,51,67
282240,note_off,240,0,2,,,,,,,,,1,,,70,0
282480,note_on,240,0,2,,,,,,,,,1,,,68,64
282720,note_on,0,0,2,,,,,,,,,1,,,70,64
282720,note_on,0,0,3,,,,,,,,,2,,,59,68
282720,note_on,480,0,3,,,,,,,,,2,,,62,68
282720,note_off,240,0,2,,,,,,,,,1,,,68,0
282960,note_off,240,0,2,,,,,,,,,1,,,70,0
282960,note_on,0,0,2,,,,,,,,,1,,,68,64
283200,note_off,240,0,2,,,,,,,,,1,,,68,0
283200,note_on,0,0,2,,,,,,,,,1,,,70,64
283440,note_off,240,0,2,,,,,,,,,1,,,70,0
283440,note_on,0,0,2,,,,,,,,,1,,,68,64
283680,note_off,960,0,3,,,,,,,,,2,,,62,0
283680,note_on,0,0,2,,,,,,,,,1,,,70,63
283680,note_on,0,0,3,,,,,,,,,2,,,58,58
283680,note_off,240,0,2,,,,,,,,,1,,,68,0
283920,note_off,240,0,2,,,,,,,,,1,,,70,0
283920,note_on,0,0,2,,,,,,,,,1,,,68,63
284040,set_tempo,3720,1,0,,,,,,253164,,,,,,,
284160,note_off,0,0,3,,,,,,,,,2,,,51,0
284160,note_on,0,0,3,,,,,,,,,2,,,51,66
284160,note_on,0,0,3,,,,,,,,,2,,,58,66
284160,note_off,1920,0,1,,,,,,,,,0,,,77,0
284160,note_on,0,0,1,,,,,,,,,0,,,75,63
284160,note_off,480,0,3,,,,,,,,,2,,,58,0
284160,note_off,0,0,3,,,,,,,,,2,,,59,0
284160,note_on,0,0,3,,,,,,,,,2,,,55,66
284160,note_off,240,0,2,,,,,,,,,1,,,68,0
284160,note_on,0,0,2,,,,,,,,,1,,,67,63
284160,note_off,0,0,2,,,,,,,,,1,,,65,0
284400,note_on,0,0,2,,,,,,,,,1,,,63,63
284400,note_off,240,0,2,,,,,,,,,1,,,67,0
284640,note_off,240,0,2,,,,,,,,,1,,,63,0
284640,note_on,0,0,2,,,,,,,,,1,,,65,63
284880,note_on,0,0,2,,,,,,,,,1,,,63,63
284880,note_off,240,0,2,,,,,,,,,1,,,65,0
285120,note_off,240,0,2,,,,,,,,,1,,,63,0
285120,note_off,960,0,3,,,,,,,,,2,,,58,0
285120,note_off,0,0,3,,,,,,,,,2,,,55,0
285120,note_on,0,0,3,,,,,,,,,2,,,56,65
285120,note_off,960,0,1,,,,,,,,,0,,,75,0
285120,note_on,0,0,1,,,,,,,,,0,,,72,63
285120,note_on,0,0,3,,,,,,,,,2,,,44,65
285120,note_on,0,0,2,,,,,,,,,1,,,68,63
285120,note_on,0,0,2,,,,,,,,,1,,,60,63
285120,note_off,0,0,3,,,,,,,,,2,,,51,0
285120,note_on,0,0,3,,,,,,,,,2,,,51,65
285360,note_off,240,0,2,,,,,,,,,1,,,60,0
285360,note_on,0,0,2,,,,,,,,,1,,,63,63
285505,note_off,385,0,3,,,,,,,,,2,,,44,0
285505,note_off,0,0,3,,,,,,,,,2,,,51,0
285505,note_off,0,0,3,,,,,,,,,2,,,56,0
285600,note_on,0,0,1,,,,,,,,,0,,,70,63
285600,note_on,0,0,3,,,,,,,,,2,,,39,65
285600,note_on,95,0,3,,,,,,,,,2,,,51,65
285600,note_off,480,0,1,,,,,,,,,0,,,72,0
285600,note_off,240,0,2,,,,,,,,,1,,,63,0
285600,note_off,0,0,2,,,,,,,,,1,,,68,0
285600,note_on,0,0,2,,,,,,,,,1,,,58,63
285600,note_on,0,0,2,,,,,,,,,1,,,67,63
285840,note_off,240,0,2,,,,,,,,,1,,,58,0
285840,note_on,0,0,2,,,,,,,,,1,,,63,63
285960,set_tempo,1920,1,0,,,,,,254237,,,,,,,
285985,note_off,385,0,3,,,,,,,,,2,,,39,0
285985,note_off,0,0,3,,,,,,,,,2,,,51,0
286080,note_on,95,0,3,,,,,,,,,2,,,34,64
286080,note_off,480,0,1,,,,,,,,,0,,,70,0
286080,note_on,0,0,1,,,,,,,,,0,,,70,62
286080,note_on,0,0,2,,,,,,,,,1,,,67,62
286080,note_off,0,0,2,,,,,,,,,1,,,67,0
286080,note_off,240,0,2,,,,,,,,,1,,,63,0
286320,note_off,240,0,2,,,,,,,,,1,,,67,0
286320,note_on,0,0,2,,,,,,,,,1,,,58,62
286465,note_off,385,0,3,,,,,,,,,2,,,34,0
286560,note_off,480,0,1,,,,,,,,,0,,,70,0
286560,note_on,0,0,1,,,,,,,,,0,,,68,62
286560,note_on,95,0,3,,,,,,,,,2,,,46,64
286560,note_off,240,0,2,,,,,,,,,1,,,58,0
286560,note_on,0,0,2,,,,,,,,,1,,,65,62
286800,note_on,0,0,2,,,,,,,,,1,,,56,62
286800,note_off,240,0,2,,,,,,,,,1,,,65,0
286945,note_off,385,0,3,,,,,,,,,2,,,46,0
287040,note_on,0,0,1,,,,,,,,,0,,,67,62
287040,note_off,480,0,1,,,,,,,,,0,,,68,0
287040,note_on,0,0,2,,,,,,,,,1,,,63,62
287040,note_off,240,0,2,,,,,,,,,1,,,56,0
287040,note_on,95,0,3,,,,,,,,,2,,,34,64
287280,note_off,240,0,2,,,,,,,,,1,,,63,0
287280,note_on,0,0,2,,,,,,,,,1,,,55,62
287400,set_tempo,1440,1,0,,,,,,258620,,,,,,,
287425,note_off,385,0,3,,,,,,,,,2,,,34,0
287520,note_on,0,0,1,,,,,,,,,0,,,65,62
287520,note_off,480,0,1,,,,,,,,,0,,,67,0
287520,note_on,95,0,3,,,,,,,,,2,,,46,63
287520,note_off,240,0,2,,,,,,,,,1,,,55,0
287520,note_on,0,0,2,,,,,,,,,1,,,62,62
287730,set_tempo,330,1,0,,,,,,263157,,,,,,,
287760,note_off,240,0,2,,,,,,,,,1,,,62,0
287760,note_on,0,0,2,,,,,,,,,1,,,53,62
287905,note_off,385,0,3,,,,,,,,,2,,,46,0
288000,set_tempo,270,1,0,,,,,,254237,,,,,,,
288000,note_off,240,0,2,,,,,,,,,1,,,53,0
288000,note_off,480,0,1,,,,,,,,,0,,,65,0
288000,note_on,0,0,1,,,,,,,,,0,,,63,62
288000,note_on,95,0,3,,,,,,,,,2,,,39,63
288240,note_on,240,0,2,,,,,,,,,1,,,59,61
288480,note_on,240,0,2,,,,,,,,,1,,,55,61
288720,note_off,720,0,3,,,,,,,,,2,,,39,0
288720,note_on,0,0,3,,,,,,,,,2,,,47,62
288960,note_off,240,0,3,,,,,,,,,2,,,47,0
288960,note_on,0,0,3,,,,,,,,,2,,,46,62
289200,note_on,0,0,1,,,,,,,,,0,,,58,61
289200,note_off,1200,0,1,,,,,,,,,0,,,63,0
289200,note_off,720,0,2,,,,,,,,,1,,,55,0
289200,note_off,0,0,2,,,,,,,,,1,,,59,0
289440,note_off,480,0,3,,,,,,,,,2,,,46,0
289440,note_on,0,0,3,,,,,,,,,2,,,39,62
289440,note_on,0,0,1,,,,,,,,,0,,,55,61
289440,note_off,240,0,1,,,,,,,,,0,,,58,0
289680,note_on,0,0,1,,,,,,,,,0,,,63,61
289680,note_off,240,0,1,,,,,,,,,0,,,55,0
289800,set_tempo,1800,1,0,,,,,,256410,,,,,,,
289920,note_on,0,0,3,,,,,,,,,2,,,34,62
289920,note_on,720,0,2,,,,,,,,,1,,,58,61
289920,note_off,480,0,3,,,,,,,,,2,,,39,0
290160,note_on,0,0,1,,,,,,,,,0,,,63,61
290160,note_off,480,0,1,,,,,,,,,0,,,63,0
290400,note_off,480,0,3,,,,,,,,,2,,,34,0
290400,note_off,240,0,1,,,,,,,,,0,,,63,0
290400,note_on,0,0,1,,,,,,,,,0,,,62,60
290400,note_on,0,0,3,,,,,,,,,2,,,56,61
290640,note_off,240,0,1,,,,,,,,,0,,,62,0
290640,note_on,0,0,1,,,,,,,,,0,,,63,60
290640,note_off,240,0,3,,,,,,,,,2,,,56,0
290640,note_on,0,0,3,,,,,,,,,2,,,55,61
290880,note_off,960,0,2,,,,,,,,,1,,,58,0
290880,note_off,240,0,1,,,,,,,,,0,,,63,0
290880,note_on,0,0,1,,,,,,,,,0,,,65,60
290880,note_off,240,0,3,,,,,,,,,2,,,55,0
290880,note_on,0,0,3,,,,,,,,,2,,,53,61
291120,note_on,0,0,1,,,,,,,,,0,,,67,60
291120,note_off,240,0,1,,,,,,,,,0,,,65,0
291120,note_on,0,0,3,,,,,,,,,2,,,51,61
291120,note_off,240,0,3,,,,,,,,,2,,,53,0
291360,note_on,0,0,1,,,,,,,,,0,,,68,60
291360,note_off,240,0,3,,,,,,,,,2,,,51,0
291360,note_on,0,0,3,,,,,,,,,2,,,50,61
291360,note_on,0,0,3,,,,,,,,,2,,,46,61
291360,note_off,240,0,1,,,,,,,,,0,,,67,0
291600,note_off,240,0,3,,,,,,,,,2,,,50,0
291600,note_on,0,0,3,,,,,,,,,2,,,58,60
291600,note_on,0,0,1,,,,,,,,,0,,,65,60
291600,note_off,240,0,1,,,,,,,,,0,,,68,0
291780,set_tempo,1980,1,0,,,,,,258620,,,,,,,
291840,set_tempo,60,1,0,,,,,,254237,,,,,,,
291840,note_off,240,0,3,,,,,,,,,2,,,58,0
291840,note_off,0,0,3,,,,,,,,,2,,,46,0
291840,note_on,0,0,3,,,,,,,,,2,,,51,60
291840,note_on,0,0,1,,,,,,,,,0,,,75,60
291840,note_off,240,0,1,,,,,,,,,0,,,65,0
292080,note_on,1200,0,2,,,,,,,,,1,,,71,60
292320,note_on,240,0,2,,,,,,,,,1,,,67,60
292560,note_off,720,0,3,,,,,,,,,2,,,51,0
292560,note_on,0,0,3,,,,,,,,,2,,,59,60
292800,note_off,240,0,3,,,,,,,,,2,,,59,0
292800,note_on,0,0,3,,,,,,,,,2,,,58,60
293040,note_off,0,0,2,,,,,,,,,1,,,71,0
293040,note_off,720,0,2,,,,,,,,,1,,,67,0
293040,note_off,1200,0,1,,,,,,,,,0,,,75,0
293040,note_on,0,0,1,,,,,,,,,0,,,70,59
293280,note_on,0,0,1,,,,,,,,,0,,,67,59
293280,note_on,0,0,3,,,,,,,,,2,,,51,59
293280,note_off,480,0,3,,,,,,,,,2,,,58,0
293280,note_off,240,0,1,,,,,,,,,0,,,70,0
293520,note_off,240,0,1,,,,,,,,,0,,,67,0
293520,note_on,0,0,1,,,,,,,,,0,,,75,59
293640,set_tempo,1800,1,0,,,,,,256410,,,,,,,
293760,note_on,0,0,3,,,,,,,,,2,,,46,59
293760,note_off,480,0,3,,,,,,,,,2,,,51,0
293760,note_on,720,0,2,,,,,,,,,1,,,70,59
294000,note_off,480,0,1,,,,,,,,,0,,,75,0
294000,note_on,0,0,1,,,,,,,,,0,,,75,59
294240,note_off,480,0,3,,,,,,,,,2,,,46,0
294240,note_on,0,0,1,,,,,,,,,0,,,74,59
294240,note_off,240,0,1,,,,,,,,,0,,,75,0
294240,note_on,0,0,3,,,,,,,,,2,,,68,59
294480,note_off,240,0,3,,,,,,,,,2,,,68,0
294480,note_on,0,0,1,,,,,,,,,0,,,75,59
294480,note_off,240,0,1,,,,,,,,,0,,,74,0
294480,note_on,0,0,3,,,,,,,,,2,,,67,58
294720,note_off,960,0,2,,,,,,,,,1,,,70,0
294720,note_off,240,0,3,,,,,,,,,2,,,67,0
294720,note_on,0,0,1,,,,,,,,,0,,,77,59
294720,note_off,240,0,1,,,,,,,,,0,,,75,0
294720,note_on,0,0,3,,,,,,,,,2,,,65,58
294960,note_on,0,0,1,,,,,,,,,0,,,79,58
294960,note_off,240,0,1,,,,,,,,,0,,,77,0
294960,note_on,0,0,3,,,,,,,,,2,,,63,58
294960,note_off,240,0,3,,,,,,,,,2,,,65,0
295200,note_on,0,0,3,,,,,,,,,2,,,62,58
295200,note_on,0,0,3,,,,,,,,,2,,,58,58
295200,note_on,0,0,1,,,,,,,,,0,,,80,58
295200,note_off,240,0,1,,,,,,,,,0,,,79,0
295200,note_off,240,0,3,,,,,,,,,2,,,63,0
295440,note_off,240,0,3,,,,,,,,,2,,,62,0
295440,note_on,0,0,1,,,,,,,,,0,,,77,58
295440,note_off,240,0,1,,,,,,,,,0,,,80,0
295440,note_on,0,0,3,,,,,,,,,2,,,65,58
295640,set_tempo,2000,1,0,,,,,,260869,,,,,,,
295680,note_on,0,0,1,,,,,,,,,0,,,79,58
295680,note_on,0,0,3,,,,,,,,,2,,,67,61
295680,set_tempo,40,1,0,,,,,,256410,,,,,,,
295680,note_off,240,0,3,,,,,,,,,2,,,65,0
295680,note_off,0,0,3,,,,,,,,,2,,,58,0
295680,note_off,240,0,1,,,,,,,,,0,,,77,0
295680,note_on,0,0,3,,,,,,,,,2,,,63,61
295920,note_on,0,0,1,,,,,,,,,0,,,77,59
295920,note_off,240,0,1,,,,,,,,,0,,,79,0
296160,note_off,240,0,1,,,,,,,,,0,,,77,0
296160,note_on,0,0,1,,,,,,,,,0,,,75,59
296400,note_off,720,0,3,,,,,,,,,2,,,63,0
296400,note_off,0,0,3,,,,,,,,,2,,,67,0
296400,note_on,0,0,3,,,,,,,,,2,,,62,60
296400,note_on,0,0,3,,,,,,,,,2,,,65,60
296640,note_off,240,0,3,,,,,,,,,2,,,65,0
296640,note_off,0,0,3,,,,,,,,,2,,,62,0
296640,note_on,0,0,3,,,,,,,,,2,,,63,60
296880,note_on,0,0,1,,,,,,,,,0,,,72,58
296880,note_off,720,0,1,,,,,,,,,0,,,75,0
297120,note_on,0,0,1,,,,,,,,,0,,,70,58
297120,note_off,240,0,1,,,,,,,,,0,,,72,0
297360,note_off,720,0,3,,,,,,,,,2,,,63,0
297360,note_on,0,0,3,,,,,,,,,2,,,60,58
297480,set_tempo,1800,1,0,,,,,,258620,,,,,,,
297600,note_off,240,0,3,,,,,,,,,2,,,60,0
297600,note_on,0,0,3,,,,,,,,,2,,,58,58
297840,note_off,720,0,1,,,,,,,,,0,,,70,0
297840,note_on,0,0,1,,,,,,,,,0,,,68,57
298080,note_off,240,0,1,,,,,,,,,0,,,68,0
298080,note_on,0,0,1,,,,,,,,,0,,,67,57
298320,note_off,720,0,3,,,,,,,,,2,,,58,0
298320,note_on,0,0,3,,,,,,,,,2,,,56,57
298560,note_off,240,0,3,,,,,,,,,2,,,56,0
298560,note_on,0,0,3,,,,,,,,,2,,,55,56
298800,note_on,0,0,1,,,,,,,,,0,,,65,56
298800,note_off,720,0,1,,,,,,,,,0,,,67,0
299040,note_off,240,0,1,,,,,,,,,0,,,65,0
299040,note_on,0,0,1,,,,,,,,,0,,,63,56
299280,note_off,720,0,3,,,,,,,,,2,,,55,0
299280,note_on,0,0,3,,,,,,,,,2,,,53,55
299400,set_tempo,1920,1,0,,,,,,260869,,,,,,,
299520,note_off,240,0,3,,,,,,,,,2,,,53,0
299520,note_on,0,0,3,,,,,,,,,2,,,51,55
299760,note_off,720,0,1,,,,,,,,,0,,,63,0
299760,note_on,0,0,1,,,,,,,,,0,,,60,55
300000,note_off,240,0,1,,,,,,,,,0,,,60,0
300000,note_on,0,0,1,,,,,,,,,0,,,58,55
300240,note_off,720,0,3,,,,,,,,,2,,,51,0
300240,note_on,0,0,3,,,,,,,,,2,,,48,54
300480,note_on,0,0,3,,,,,,,,,2,,,46,53
300480,note_off,240,0,3,,,,,,,,,2,,,48,0
300720,note_off,720,0,1,,,,,,,,,0,,,58,0
300720,note_on,0,0,1,,,,,,,,,0,,,56,54
300960,note_off,240,0,1,,,,,,,,,0,,,56,0
300960,note_on,0,0,1,,,,,,,,,0,,,55,54
301200,note_off,720,0,3,,,,,,,,,2,,,46,0
301200,note_on,0,0,3,,,,,,,,,2,,,44,52
301320,set_tempo,1920,1,0,,,,,,263157,,,,,,,
301440,note_on,0,0,3,,,,,,,,,2,,,43,51
301440,note_off,240,0,3,,,,,,,,,2,,,44,0
301680,note_on,0,0,1,,,,,,,,,0,,,53,53
301680,note_off,720,0,1,,,,,,,,,0,,,55,0
301920,note_on,0,0,1,,,,,,,,,0,,,51,52
301920,note_off,240,0,1,,,,,,,,,0,,,53,0
302160,note_on,0,0,3,,,,,,,,,2,,,41,50
302160,note_off,720,0,3,,,,,,,,,2,,,43,0
302400,note_on,0,0,3,,,,,,,,,2,,,39,50
302400,note_off,240,0,3,,,,,,,,,2,,,41,0
302640,note_on,0,0,1,,,,,,,,,0,,,53,52
302640,note_off,720,0,1,,,,,,,,,0,,,51,0
302820,set_tempo,1500,1,0,,,,,,304568,,,,,,,
302880,note_on,0,0,1,,,,,,,,,0,,,51,51
302880,note_off,240,0,1,,,,,,,,,0,,,53,0
303120,note_on,0,0,3,,,,,,,,,2,,,73,49
303120,note_off,720,0,3,,,,,,,,,2,,,39,0
303120,note_on,0,0,3,,,,,,,,,2,,,70,49
303120,set_tempo,300,1,0,,,,,,377358,,,,,,,
303360,set_tempo,240,1,0,,,,,,276497,,,,,,,
303360,note_on,0,0,3,,,,,,,,,2,,,70,48
303360,note_on,0,0,3,,,,,,,,,2,,,73,48
303360,note_off,0,0,3,,,,,,,,,2,,,73,0
303360,note_off,240,0,3,,,,,,,,,2,,,70,0
303840,note_off,960,0,1,,,,,,,,,0,,,51,0
305280,note_on,0,0,3,,,,,,,,,2,,,72,45
305280,note_on,0,0,3,,,,,,,,,2,,,68,45
305280,note_off,0,0,3,,,,,,,,,2,,,73,0
305280,note_off,1920,0,3,,,,,,,,,2,,,70,0
305280,set_tempo,1920,1,0,,,,,,289855,,,,,,,
307200,note_off,1920,0,3,,,,,,,,,2,,,72,0
307200,note_off,0,0,3,,,,,,,,,2,,,68,0
307200,note_on,0,0,3,,,,,,,,,2,,,67,42
307200,note_on,12480,0,2,,,,,,,,,1,,,75,53
307200,note_on,3360,0,1,,,,,,,,,0,,,82,46
307200,note_on,0,0,3,,,,,,,,,2,,,70,42
307200,set_tempo,1920,1,0,,,,,,277777,,,,,,,
309120,set_tempo,1920,1,0,,,,,,292682,,,,,,,
309120,note_on,0,0,3,,,,,,,,,2,,,68,38
309120,note_off,1920,0,3,,,,,,,,,2,,,70,0
309120,note_off,1920,0,1,,,,,,,,,0,,,82,0
309120,note_on,0,0,1,,,,,,,,,0,,,85,44
309120,note_off,1920,0,2,,,,,,,,,1,,,75,0
309120,note_on,0,0,2,,,,,,,,,1,,,73,52
309120,note_on,0,0,3,,,,,,,,,2,,,65,38
309120,note_off,0,0,3,,,,,,,,,2,,,67,0
311040,note_off,1920,0,3,,,,,,,,,2,,,68,0
311040,note_on,0,0,3,,,,,,,,,2,,,64,85
311040,set_tempo,1920,1,0,,,,,,248962,,,,,,,
311040,note_on,0,0,3,,,,,,,,,2,,,67,85
311040,note_off,1920,0,2,,,,,,,,,1,,,73,0
311040,note_on,0,0,2,,,,,,,,,1,,,72,85
311040,note_off,1920,0,1,,,,,,,,,0,,,85,0
311040,note_off,0,0,3,,,,,,,,,2,,,65,0
311040,note_on,0,0,1,,,,,,,,,0,,,84,85
312480,note_on,0,0,1,,,,,,,,,0,,,77,78
312480,note_on,0,0,2,,,,,,,,,1,,,72,78
312480,note_off,1440,0,2,,,,,,,,,1,,,72,0
312480,note_off,1440,0,1,,,,,,,,,0,,,84,0
312480,note_off,1440,0,3,,,,,,,,,2,,,64,0
312480,note_off,0,0,3,,,,,,,,,2,,,67,0
312480,note_on,0,0,3,,,,,,,,,2,,,69,77
312480,note_on,0,0,3,,,,,,,,,2,,,63,77
312720,note_on,0,0,3,,,,,,,,,2,,,61,77
312720,note_off,240,0,1,,,,,,,,,0,,,77,0
312720,note_on,0,0,1,,,,,,,,,0,,,82,78
312720,note_on,0,0,2,,,,,,,,,1,,,73,78
312720,note_on,0,0,3,,,,,,,,,2,,,65,77
312720,note_off,240,0,3,,,,,,,,,2,,,63,0
312720,note_off,240,0,2,,,,,,,,,1,,,72,0
312720,note_off,0,0,3,,,,,,,,,2,,,69,0
312960,note_off,240,0,2,,,,,,,,,1,,,73,0
312960,note_on,0,0,2,,,,,,,,,1,,,73,78
312960,note_on,0,0,3,,,,,,,,,2,,,61,76
312960,note_on,0,0,3,,,,,,,,,2,,,65,76
312960,note_off,0,0,3,,,,,,,,,2,,,65,0
312960,note_off,240,0,3,,,,,,,,,2,,,61,0
312960,note_off,240,0,1,,,,,,,,,0,,,82,0
312960,note_on,0,0,1,,,,,,,,,0,,,82,78
313320,note_off,360,0,1,,,,,,,,,0,,,82,0
313320,note_off,0,0,3,,,,,,,,,2,,,65,0
313320,note_off,360,0,2,,,,,,,,,1,,,73,0
313320,note_off,360,0,3,,,,,,,,,2,,,61,0
313440,note_on,120,0,2,,,,,,,,,1,,,70,77
313440,note_on,120,0,1,,,,,,,,,0,,,75,77
313440,note_on,120,0,3,,,,,,,,,2,,,67,76
313440,note_on,0,0,3,,,,,,,,,2,,,61,76
313680,note_off,240,0,1,,,,,,,,,0,,,75,0
313680,note_off,240,0,3,,,,,,,,,2,,,61,0
313680,note_off,0,0,3,,,,,,,,,2,,,67,0
313680,note_on,0,0,2,,,,,,,,,1,,,72,77
313680,note_off,240,0,2,,,,,,,,,1,,,70,0
313680,note_on,0,0,3,,,,,,,,,2,,,60,75
313680,note_on,0,0,3,,,,,,,,,2,,,63,75
313680,note_on,0,0,1,,,,,,,,,0,,,80,77
313920,note_off,240,0,3,,,,,,,,,2,,,63,0
313920,note_off,240,0,1,,,,,,,,,0,,,80,0
313920,note_on,0,0,3,,,,,,,,,2,,,63,75
313920,note_off,240,0,2,,,,,,,,,1,,,72,0
313920,note_on,0,0,2,,,,,,,,,1,,,72,76
313920,note_on,0,0,1,,,,,,,,,0,,,80,76
313920,note_off,0,0,3,,,,,,,,,2,,,60,0
313920,note_on,0,0,3,,,,,,,,,2,,,60,75
314280,note_off,360,0,3,,,,,,,,,2,,,63,0
314280,note_off,0,0,3,,,,,,,,,2,,,60,0
314280,note_off,360,0,2,,,,,,,,,1,,,72,0
314280,note_off,360,0,1,,,,,,,,,0,,,80,0
314400,note_on,120,0,2,,,,,,,,,1,,,68,76
314400,note_on,0,0,3,,,,,,,,,2,,,65,74
314400,note_on,120,0,3,,,,,,,,,2,,,60,74
314400,note_on,120,0,1,,,,,,,,,0,,,73,76
314640,note_on,0,0,3,,,,,,,,,2,,,58,74
314640,note_on,0,0,3,,,,,,,,,2,,,61,74
314640,note_off,0,0,3,,,,,,,,,2,,,60,0
314640,note_off,240,0,3,,,,,,,,,2,,,65,0
314640,note_on,0,0,1,,,,,,,,,0,,,79,75
314640,note_off,240,0,1,,,,,,,,,0,,,73,0
314640,note_off,240,0,2,,,,,,,,,1,,,68,0
314640,note_on,0,0,2,,,,,,,,,1,,,70,75
314880,note_on,0,0,3,,,,,,,,,2,,,58,73
314880,note_off,240,0,1,,,,,,,,,0,,,79,0
314880,note_on,0,0,3,,,,,,,,,2,,,61,73
314880,note_on,0,0,2,,,,,,,,,1,,,70,75
314880,note_off,240,0,2,,,,,,,,,1,,,70,0
314880,note_off,240,0,3,,,,,,,,,2,,,58,0
314880,note_off,0,0,3,,,,,,,,,2,,,61,0
314880,note_on,0,0,1,,,,,,,,,0,,,79,75
315240,note_off,360,0,3,,,,,,,,,2,,,58,0
315240,note_off,0,0,3,,,,,,,,,2,,,61,0
315240,note_off,360,0,1,,,,,,,,,0,,,79,0
315240,note_off,360,0,2,,,,,,,,,1,,,70,0
315360,note_on,120,0,1,,,,,,,,,0,,,72,74
315360,note_on,120,0,2,,,,,,,,,1,,,67,74
315360,note_on,120,0,3,,,,,,,,,2,,,58,72
315360,note_on,0,0,3,,,,,,,,,2,,,64,72
315600,note_off,0,0,3,,,,,,,,,2,,,58,0
315600,note_on,0,0,2,,,,,,,,,1,,,68,74
315600,note_on,0,0,1,,,,,,,,,0,,,77,74
315600,note_off,240,0,1,,,,,,,,,0,,,72,0
315600,note_off,240,0,2,,,,,,,,,1,,,67,0
315600,note_on,0,0,3,,,,,,,,,2,,,60,72
315600,note_on,0,0,3,,,,,,,,,2,,,56,72
315600,note_off,240,0,3,,,,,,,,,2,,,64,0
315840,note_off,240,0,2,,,,,,,,,1,,,68,0
315840,note_on,0,0,2,,,,,,,,,1,,,68,73
315840,note_on,0,0,1,,,,,,,,,0,,,77,73
315840,note_off,240,0,3,,,,,,,,,2,,,60,0
315840,note_off,0,0,3,,,,,,,,,2,,,56,0
315840,note_on,0,0,3,,,,,,,,,2,,,56,72
315840,note_off,240,0,1,,,,,,,,,0,,,77,0
315840,note_on,0,0,3,,,,,,,,,2,,,60,72
316200,note_off,360,0,3,,,,,,,,,2,,,60,0
316200,note_off,0,0,3,,,,,,,,,2,,,56,0
316200,note_off,360,0,2,,,,,,,,,1,,,68,0
316200,note_off,360,0,1,,,,,,,,,0,,,77,0
316320,note_on,120,0,1,,,,,,,,,0,,,77,73
316320,note_on,120,0,3,,,,,,,,,2,,,59,71
316320,note_on,0,0,3,,,,,,,,,2,,,56,71
316320,note_on,120,0,2,,,,,,,,,1,,,65,73
316590,set_tempo,5550,1,0,,,,,,254237,,,,,,,
316800,note_off,480,0,3,,,,,,,,,2,,,56,0
316800,note_on,0,0,2,,,,,,,,,1,,,65,79
316800,set_tempo,210,1,0,,,,,,251046,,,,,,,
316800,note_on,0,0,1,,,,,,,,,0,,,77,79
316800,note_off,480,0,1,,,,,,,,,0,,,77,0
316800,note_off,480,0,2,,,,,,,,,1,,,65,0
316800,note_on,0,0,3,,,,,,,,,2,,,58,79
316800,note_off,0,0,3,,,,,,,,,2,,,59,0
316800,note_on,0,0,3,,,,,,,,,2,,,55,79
317760,note_off,960,0,1,,,,,,,,,0,,,77,0
317760,note_on,0,0,1,,,,,,,,,0,,,76,64
317760,note_off,960,0,2,,,,,,,,,1,,,65,0
317760,note_on,0,0,2,,,,,,,,,1,,,64,64
318240,note_off,1440,0,3,,,,,,,,,2,,,58,0
318240,note_off,480,0,2,,,,,,,,,1,,,64,0
318240,note_on,0,0,2,,,,,,,,,1,,,65,63
318240,note_on,0,0,1,,,,,,,,,0,,,77,63
318240,note_off,0,0,3,,,,,,,,,2,,,55,0
318240,note_on,0,0,3,,,,,,,,,2,,,53,63
318240,note_on,0,0,3,,,,,,,,,2,,,56,63
318240,note_off,480,0,1,,,,,,,,,0,,,76,0
318240,note_on,0,0,2,,,,,,,,,1,,,72,63
318720,note_on,0,0,3,,,,,,,,,2,,,55,63
318720,note_off,480,0,3,,,,,,,,,2,,,53,0
318720,note_on,0,0,1,,,,,,,,,0,,,79,63
318720,note_on,0,0,3,,,,,,,,,2,,,52,63
318720,note_off,480,0,2,,,,,,,,,1,,,72,0
318720,note_off,0,0,2,,,,,,,,,1,,,65,0
318720,note_on,0,0,2,,,,,,,,,1,,,67,63
318720,note_on,0,0,2,,,,,,,,,1,,,72,63
318720,note_off,480,0,1,,,,,,,,,0,,,77,0
318720,note_off,0,0,3,,,,,,,,,2,,,56,0
319200,note_off,480,0,2,,,,,,,,,1,,,72,0
319200,note_off,0,0,2,,,,,,,,,1,,,67,0
319200,note_on,0,0,2,,,,,,,,,1,,,68,63
319200,note_on,0,0,2,,,,,,,,,1,,,72,63
319200,note_on,0,0,3,,,,,,,,,2,,,53,63
319200,note_off,0,0,3,,,,,,,,,2,,,52,0
319200,note_on,0,0,1,,,,,,,,,0,,,80,63
319200,note_on,0,0,3,,,,,,,,,2,,,50,63
319200,note_off,480,0,1,,,,,,,,,0,,,79,0
319200,note_off,480,0,3,,,,,,,,,2,,,55,0
319680,note_off,0,0,2,,,,,,,,,1,,,68,0
319680,note_off,480,0,2,,,,,,,,,1,,,72,0
319680,note_on,0,0,3,,,,,,,,,2,,,48,63
319680,note_off,0,0,3,,,,,,,,,2,,,53,0
319680,note_on,0,0,1,,,,,,,,,0,,,82,63
319680,note_on,0,0,3,,,,,,,,,2,,,52,63
319680,note_off,480,0,1,,,,,,,,,0,,,80,0
319680,note_off,480,0,3,,,,,,,,,2,,,50,0
319680,note_on,0,0,2,,,,,,,,,1,,,70,63
320065,note_off,0,0,3,,,,,,,,,2,,,48,0
320065,note_off,385,0,3,,,,,,,,,2,,,52,0
320160,note_on,0,0,1,,,,,,,,,0,,,79,63
320160,note_off,480,0,1,,,,,,,,,0,,,82,0
320160,note_on,0,0,2,,,,,,,,,1,,,67,63
320160,note_on,0,0,2,,,,,,,,,1,,,76,63
320160,note_on,0,0,2,,,,,,,,,1,,,72,63
320160,note_on,0,0,3,,,,,,,,,2,,,52,63
320160,note_on,0,0,3,,,,,,,,,2,,,55,63
320160,note_on,95,0,3,,,,,,,,,2,,,48,63
320160,note_off,480,0,2,,,,,,,,,1,,,70,0
320160,note_on,0,0,3,,,,,,,,,2,,,58,63
320190,set_tempo,3390,1,0,,,,,,253164,,,,,,,
320545,note_off,0,0,3,,,,,,,,,2,,,48,0
320545,note_off,0,0,3,,,,,,,,,2,,,55,0
320545,note_off,0,0,3,,,,,,,,,2,,,52,0
320545,note_off,385,0,3,,,,,,,,,2,,,58,0
320640,note_on,95,0,3,,,,,,,,,2,,,41,52
320640,set_tempo,450,1,0,,,,,,248962,,,,,,,
320640,note_on,0,0,2,,,,,,,,,1,,,68,64
320640,note_off,480,0,2,,,,,,,,,1,,,72,0
320640,note_off,0,0,2,,,,,,,,,1,,,67,0
320640,note_off,0,0,2,,,,,,,,,1,,,76,0
320640,note_on,0,0,2,,,,,,,,,1,,,72,64
320640,note_off,480,0,1,,,,,,,,,0,,,79,0
320640,note_on,0,0,2,,,,,,,,,1,,,77,64
320640,note_on,0,0,1,,,,,,,,,0,,,80,64
320880,note_on,240,0,3,,,,,,,,,2,,,48,53
321000,note_off,0,0,2,,,,,,,,,1,,,68,0
321000,note_off,0,0,2,,,,,,,,,1,,,72,0
321000,note_off,360,0,2,,,,,,,,,1,,,77,0
321000,note_off,360,0,1,,,,,,,,,0,,,80,0
321120,note_on,0,0,3,,,,,,,,,2,,,56,54
321120,note_off,240,0,3,,,,,,,,,2,,,41,0
321315,note_off,195,0,3,,,,,,,,,2,,,48,0
321360,note_on,45,0,3,,,,,,,,,2,,,48,54
321555,note_off,195,0,3,,,,,,,,,2,,,56,0
321600,note_on,600,0,1,,,,,,,,,0,,,84,79
321600,note_on,600,0,2,,,,,,,,,1,,,72,79
321600,note_on,45,0,3,,,,,,,,,2,,,41,55
321795,note_off,195,0,3,,,,,,,,,2,,,48,0
321840,note_on,45,0,3,,,,,,,,,2,,,48,56
321960,note_off,360,0,1,,,,,,,,,0,,,84,0
321960,note_off,360,0,2,,,,,,,,,1,,,72,0
322035,note_off,195,0,3,,,,,,,,,2,,,41,0
322080,note_on,45,0,3,,,,,,,,,2,,,56,57
322275,note_off,195,0,3,,,,,,,,,2,,,48,0
322320,note_on,45,0,3,,,,,,,,,2,,,48,58
322440,set_tempo,1800,1,0,,,,,,251046,,,,,,,
322515,note_off,195,0,3,,,,,,,,,2,,,56,0
322560,note_on,45,0,3,,,,,,,,,2,,,43,59
322560,set_tempo,120,1,0,,,,,,248962,,,,,,,
322560,note_on,600,0,2,,,,,,,,,1,,,84,95
322560,note_on,600,0,1,,,,,,,,,0,,,96,95
322755,note_off,195,0,3,,,,,,,,,2,,,48,0
322800,note_on,45,0,3,,,,,,,,,2,,,48,59
322995,note_off,195,0,3,,,,,,,,,2,,,43,0
323040,note_on,45,0,3,,,,,,,,,2,,,58,60
323235,note_off,195,0,3,,,,,,,,,2,,,48,0
323280,note_on,45,0,3,,,,,,,,,2,,,48,61
323475,note_off,195,0,3,,,,,,,,,2,,,58,0
323520,note_on,45,0,3,,,,,,,,,2,,,43,62
323715,note_off,195,0,3,,,,,,,,,2,,,48,0
323760,note_on,45,0,3,,,,,,,,,2,,,48,63
323955,note_off,195,0,3,,,,,,,,,2,,,43,0
324000,note_on,0,0,1,,,,,,,,,0,,,84,95
324000,note_off,1440,0,1,,,,,,,,,0,,,96,0
324000,note_on,45,0,3,,,,,,,,,2,,,58,64
324000,note_on,0,0,2,,,,,,,,,1,,,72,95
324000,note_off,1440,0,2,,,,,,,,,1,,,84,0
324195,note_off,195,0,3,,,,,,,,,2,,,48,0
324240,note_on,45,0,3,,,,,,,,,2,,,48,64
324435,note_off,195,0,3,,,,,,,,,2,,,58,0
324480,note_on,45,0,3,,,,,,,,,2,,,44,61
324675,note_off,195,0,3,,,,,,,,,2,,,48,0
324720,note_on,45,0,3,,,,,,,,,2,,,48,61
324915,note_off,195,0,3,,,,,,,,,2,,,44,0
324960,note_on,45,0,3,,,,,,,,,2,,,60,60
325155,note_off,195,0,3,,,,,,,,,2,,,48,0
325200,note_on,45,0,3,,,,,,,,,2,,,48,60
325395,note_off,195,0,3,,,,,,,,,2,,,60,0
325440,note_on,45,0,3,,,,,,,,,2,,,44,59
325635,note_off,195,0,3,,,,,,,,,2,,,48,0
325680,note_on,45,0,3,,,,,,,,,2,,,48,59
325875,note_off,195,0,3,,,,,,,,,2,,,44,0
325920,note_on,45,0,3,,,,,,,,,2,,,60,58
325920,note_off,1920,0,2,,,,,,,,,1,,,72,0
325920,note_on,0,0,2,,,,,,,,,1,,,68,86
325920,note_off,1920,0,1,,,,,,,,,0,,,84,0
325920,note_on,0,0,1,,,,,,,,,0,,,80,86
326115,note_off,195,0,3,,,,,,,,,2,,,48,0
326160,note_on,45,0,3,,,,,,,,,2,,,48,57
326355,note_off,195,0,3,,,,,,,,,2,,,60,0
326400,note_on,0,0,1,,,,,,,,,0,,,79,85
326400,note_off,480,0,1,,,,,,,,,0,,,80,0
326400,note_on,45,0,3,,,,,,,,,2,,,46,57
326400,note_on,0,0,2,,,,,,,,,1,,,67,85
326400,note_off,480,0,2,,,,,,,,,1,,,68,0
326595,note_off,195,0,3,,,,,,,,,2,,,48,0
326640,note_on,45,0,3,,,,,,,,,2,,,48,56
326835,note_off,195,0,3,,,,,,,,,2,,,46,0
326880,note_on,0,0,2,,,,,,,,,1,,,64,83
326880,note_off,480,0,2,,,,,,,,,1,,,67,0
326880,note_on,45,0,3,,,,,,,,,2,,,58,56
326880,note_off,480,0,1,,,,,,,,,0,,,79,0
326880,note_on,0,0,1,,,,,,,,,0,,,76,83
327075,note_off,195,0,3,,,,,,,,,2,,,48,0
327120,note_on,45,0,3,,,,,,,,,2,,,48,55
327315,note_off,195,0,3,,,,,,,,,2,,,58,0
327360,note_off,480,0,2,,,,,,,,,1,,,64,0
327360,note_on,0,0,2,,,,,,,,,1,,,61,82
327360,note_on,0,0,1,,,,,,,,,0,,,73,82
327360,note_off,480,0,1,,,,,,,,,0,,,76,0
327360,note_on,45,0,3,,,,,,,,,2,,,36,55
327555,note_off,195,0,3,,,,,,,,,2,,,48,0
327600,note_on,45,0,3,,,,,,,,,2,,,48,54
327795,note_off,195,0,3,,,,,,,,,2,,,36,0
327840,note_off,480,0,2,,,,,,,,,1,,,61,0
327840,note_on,0,0,2,,,,,,,,,1,,,60,80
327840,note_on,45,0,3,,,,,,,,,2,,,55,54
327840,note_off,480,0,1,,,,,,,,,0,,,73,0
327840,note_on,0,0,1,,,,,,,,,0,,,72,80
327870,set_tempo,5310,1,0,,,,,,253164,,,,,,,
328035,note_off,195,0,3,,,,,,,,,2,,,48,0
328080,note_on,45,0,3,,,,,,,,,2,,,48,53
328275,note_off,195,0,3,,,,,,,,,2,,,55,0
328320,note_on,0,0,1,,,,,,,,,0,,,72,79
328320,set_tempo,450,1,0,,,,,,248962,,,,,,,
328320,note_on,45,0,3,,,,,,,,,2,,,41,52
328320,note_on,0,0,2,,,,,,,,,1,,,60,79
328320,note_off,480,0,2,,,,,,,,,1,,,60,0
328320,note_off,480,0,1,,,,,,,,,0,,,72,0
328515,note_off,195,0,3,,,,,,,,,2,,,48,0
328560,note_on,45,0,3,,,,,,,,,2,,,48,50
328705,note_off,385,0,1,,,,,,,,,0,,,72,0
328705,note_off,385,0,2,,,,,,,,,1,,,60,0
328755,note_off,195,0,3,,,,,,,,,2,,,41,0
328800,note_on,45,0,3,,,,,,,,,2,,,56,51
328995,note_off,195,0,3,,,,,,,,,2,,,48,0
329040,note_on,45,0,3,,,,,,,,,2,,,48,51
329235,note_off,195,0,3,,,,,,,,,2,,,56,0
329280,note_on,45,0,3,,,,,,,,,2,,,41,52
329280,note_on,575,0,2,,,,,,,,,1,,,72,86
329280,note_on,575,0,1,,,,,,,,,0,,,84,86
329475,note_off,195,0,3,,,,,,,,,2,,,48,0
329520,note_on,45,0,3,,,,,,,,,2,,,48,53
329665,note_off,385,0,2,,,,,,,,,1,,,72,0
329665,note_off,385,0,1,,,,,,,,,0,,,84,0
329715,note_off,195,0,3,,,,,,,,,2,,,41,0
329760,note_on,45,0,3,,,,,,,,,2,,,56,54
329955,note_off,195,0,3,,,,,,,,,2,,,48,0
330000,note_on,45,0,3,,,,,,,,,2,,,48,55
330120,set_tempo,1800,1,0,,,,,,251046,,,,,,,
330195,note_off,195,0,3,,,,,,,,,2,,,56,0
330240,set_tempo,120,1,0,,,,,,248962,,,,,,,
330240,note_on,575,0,2,,,,,,,,,1,,,84,94
330240,note_on,575,0,1,,,,,,,,,0,,,96,94
330240,note_on,45,0,3,,,,,,,,,2,,,43,56
330435,note_off,195,0,3,,,,,,,,,2,,,48,0
330480,note_on,45,0,3,,,,,,,,,2,,,48,56
330675,note_off,195,0,3,,,,,,,,,2,,,43,0
330720,note_on,45,0,3,,,,,,,,,2,,,58,57
330915,note_off,195,0,3,,,,,,,,,2,,,48,0
330960,note_on,45,0,3,,,,,,,,,2,,,48,58
331155,note_off,195,0,3,,,,,,,,,2,,,58,0
331200,note_on,45,0,3,,,,,,,,,2,,,43,59
331390,note_off,1150,0,1,,,,,,,,,0,,,96,0
331390,note_off,1150,0,2,,,,,,,,,1,,,84,0
331395,note_off,195,0,3,,,,,,,,,2,,,48,0
331440,note_on,45,0,3,,,,,,,,,2,,,48,60
331635,note_off,195,0,3,,,,,,,,,2,,,43,0
331680,note_on,45,0,3,,,,,,,,,2,,,58,61
331680,note_on,290,0,2,,,,,,,,,1,,,72,94
331680,note_on,290,0,1,,,,,,,,,0,,,84,94
331875,note_off,195,0,3,,,,,,,,,2,,,48,0
331920,note_on,45,0,3,,,,,,,,,2,,,48,62
332115,note_off,195,0,3,,,,,,,,,2,,,58,0
332160,note_on,45,0,3,,,,,,,,,2,,,44,62
332355,note_off,195,0,3,,,,,,,,,2,,,48,0
332400,note_on,45,0,3,,,,,,,,,2,,,48,63
332595,note_off,195,0,3,,,,,,,,,2,,,44,0
332640,note_on,45,0,3,,,,,,,,,2,,,60,62
332835,note_off,195,0,3,,,,,,,,,2,,,48,0
332880,note_on,45,0,3,,,,,,,,,2,,,48,62
333075,note_off,195,0,3,,,,,,,,,2,,,60,0
333120,note_on,45,0,3,,,,,,,,,2,,,41,61
333215,note_off,1535,0,2,,,,,,,,,1,,,72,0
333215,note_off,1535,0,1,,,,,,,,,0,,,84,0
333315,note_off,195,0,3,,,,,,,,,2,,,48,0
333360,note_on,45,0,3,,,,,,,,,2,,,48,60
333555,note_off,195,0,3,,,,,,,,,2,,,41,0
333600,note_on,385,0,2,,,,,,,,,1,,,68,88
333600,note_on,45,0,3,,,,,,,,,2,,,56,59
333600,note_on,385,0,1,,,,,,,,,0,,,80,88
333795,note_off,195,0,3,,,,,,,,,2,,,48,0
333840,note_on,45,0,3,,,,,,,,,2,,,48,59
334035,note_off,195,0,3,,,,,,,,,2,,,56,0
334080,note_on,45,0,3,,,,,,,,,2,,,38,58
334080,note_on,0,0,2,,,,,,,,,1,,,65,86
334080,note_on,0,0,1,,,,,,,,,0,,,77,86
334080,note_off,480,0,2,,,,,,,,,1,,,68,0
334080,note_off,480,0,1,,,,,,,,,0,,,80,0
334275,note_off,195,0,3,,,,,,,,,2,,,48,0
334320,note_on,45,0,3,,,,,,,,,2,,,46,57
334515,note_off,195,0,3,,,,,,,,,2,,,38,0
334560,note_off,480,0,2,,,,,,,,,1,,,65,0
334560,note_off,480,0,1,,,,,,,,,0,,,77,0
334560,note_on,0,0,1,,,,,,,,,0,,,74,85
334560,note_on,0,0,2,,,,,,,,,1,,,62,85
334560,note_on,45,0,3,,,,,,,,,2,,,53,56
334755,note_off,195,0,3,,,,,,,,,2,,,46,0
334800,note_on,45,0,3,,,,,,,,,2,,,46,56
334995,note_off,195,0,3,,,,,,,,,2,,,53,0
335040,note_on,45,0,3,,,,,,,,,2,,,38,55
335040,note_off,480,0,1,,,,,,,,,0,,,74,0
335040,note_on,0,0,1,,,,,,,,,0,,,71,83
335040,note_on,0,0,2,,,,,,,,,1,,,59,83
335040,note_off,480,0,2,,,,,,,,,1,,,62,0
335235,note_off,195,0,3,,,,,,,,,2,,,46,0
335280,note_on,45,0,3,,,,,,,,,2,,,46,54
335475,note_off,195,0,3,,,,,,,,,2,,,38,0
335520,note_on,45,0,3,,,,,,,,,2,,,53,53
335520,note_on,0,0,2,,,,,,,,,1,,,58,81
335520,note_on,0,0,1,,,,,,,,,0,,,70,81
335520,note_off,480,0,2,,,,,,,,,1,,,59,0
335520,note_off,480,0,1,,,,,,,,,0,,,71,0
335565,set_tempo,5325,1,0,,,,,,254237,,,,,,,
335715,note_off,195,0,3,,,,,,,,,2,,,46,0
335760,note_on,45,0,3,,,,,,,,,2,,,46,53
335955,note_off,195,0,3,,,,,,,,,2,,,53,0
336000,note_on,0,0,2,,,,,,,,,1,,,58,80
336000,note_off,480,0,2,,,,,,,,,1,,,58,0
336000,note_on,45,0,3,,,,,,,,,2,,,39,54
336000,set_tempo,435,1,0,,,,,,248962,,,,,,,
336000,note_off,480,0,1,,,,,,,,,0,,,70,0
336000,note_on,0,0,1,,,,,,,,,0,,,70,80
336195,note_off,195,0,3,,,,,,,,,2,,,46,0
336240,note_on,45,0,3,,,,,,,,,2,,,46,54
336360,note_off,360,0,2,,,,,,,,,1,,,58,0
336360,note_off,360,0,1,,,,,,,,,0,,,70,0
336435,note_off,195,0,3,,,,,,,,,2,,,39,0
336480,note_on,45,0,3,,,,,,,,,2,,,54,55
336675,note_off,195,0,3,,,,,,,,,2,,,46,0
336720,note_on,45,0,3,,,,,,,,,2,,,46,56
336915,note_off,195,0,3,,,,,,,,,2,,,54,0
336960,note_on,45,0,3,,,,,,,,,2,,,39,56
336960,note_on,600,0,2,,,,,,,,,1,,,70,87
336960,note_on,600,0,1,,,,,,,,,0,,,82,87
337155,note_off,195,0,3,,,,,,,,,2,,,46,0
337200,note_on,45,0,3,,,,,,,,,2,,,46,57
337320,note_off,360,0,2,,,,,,,,,1,,,70,0
337320,note_off,360,0,1,,,,,,,,,0,,,82,0
337395,note_off,195,0,3,,,,,,,,,2,,,39,0
337440,note_on,45,0,3,,,,,,,,,2,,,54,57
337635,note_off,195,0,3,,,,,,,,,2,,,46,0
337680,note_on,45,0,3,,,,,,,,,2,,,46,58
337800,set_tempo,1800,1,0,,,,,,251046,,,,,,,
337875,note_off,195,0,3,,,,,,,,,2,,,54,0
337920,note_on,600,0,1,,,,,,,,,0,,,94,95
337920,note_on,45,0,3,,,,,,,,,2,,,41,59
337920,note_on,600,0,2,,,,,,,,,1,,,82,95
337920,set_tempo,120,1,0,,,,,,248962,,,,,,,
338115,note_off,195,0,3,,,,,,,,,2,,,46,0
338160,note_on,45,0,3,,,,,,,,,2,,,46,59
338355,note_off,195,0,3,,,,,,,,,2,,,41,0
338400,note_on,45,0,3,,,,,,,,,2,,,56,60
338595,note_off,195,0,3,,,,,,,,,2,,,46,0
338640,note_on,45,0,3,,,,,,,,,2,,,46,60
338835,note_off,195,0,3,,,,,,,,,2,,,56,0
338880,note_on,45,0,3,,,,,,,,,2,,,41,61
339075,note_off,195,0,3,,,,,,,,,2,,,46,0
339120,note_on,45,0,3,,,,,,,,,2,,,46,61
339315,note_off,195,0,3,,,,,,,,,2,,,41,0
339360,note_on,45,0,3,,,,,,,,,2,,,56,62
339360,note_off,1440,0,2,,,,,,,,,1,,,82,0
339360,note_on,0,0,2,,,,,,,,,1,,,70,95
339360,note_off,1440,0,1,,,,,,,,,0,,,94,0
339360,note_on,0,0,1,,,,,,,,,0,,,82,95
339555,note_off,195,0,3,,,,,,,,,2,,,46,0
339600,note_on,45,0,3,,,,,,,,,2,,,46,63
339795,note_off,195,0,3,,,,,,,,,2,,,56,0
339840,note_on,45,0,3,,,,,,,,,2,,,42,65
340035,note_off,195,0,3,,,,,,,,,2,,,46,0
340080,note_on,45,0,3,,,,,,,,,2,,,46,64
340275,note_off,195,0,3,,,,,,,,,2,,,42,0
340320,note_on,45,0,3,,,,,,,,,2,,,58,64
340515,note_off,195,0,3,,,,,,,,,2,,,46,0
340560,note_on,45,0,3,,,,,,,,,2,,,46,63
340755,note_off,195,0,3,,,,,,,,,2,,,58,0
340800,note_on,45,0,3,,,,,,,,,2,,,42,62
340995,note_off,195,0,3,,,,,,,,,2,,,46,0
341040,note_on,45,0,3,,,,,,,,,2,,,46,62
341235,note_off,195,0,3,,,,,,,,,2,,,42,0
341280,note_off,1920,0,2,,,,,,,,,1,,,70,0
341280,note_on,0,0,2,,,,,,,,,1,,,66,87
341280,note_on,0,0,1,,,,,,,,,0,,,78,87
341280,note_off,1920,0,1,,,,,,,,,0,,,82,0
341280,note_on,45,0,3,,,,,,,,,2,,,58,61
341475,note_off,195,0,3,,,,,,,,,2,,,46,0
341520,note_on,45,0,3,,,,,,,,,2,,,46,60
341715,note_off,195,0,3,,,,,,,,,2,,,58,0
341760,note_on,0,0,1,,,,,,,,,0,,,77,85
341760,note_on,45,0,3,,,,,,,,,2,,,44,60
341760,note_on,0,0,2,,,,,,,,,1,,,65,85
341760,note_off,480,0,2,,,,,,,,,1,,,66,0
341760,note_off,480,0,1,,,,,,,,,0,,,78,0
341955,note_off,195,0,3,,,,,,,,,2,,,46,0
342000,note_on,45,0,3,,,,,,,,,2,,,46,59
342195,note_off,195,0,3,,,,,,,,,2,,,44,0
342240,note_on,45,0,3,,,,,,,,,2,,,56,58
342240,note_off,480,0,2,,,,,,,,,1,,,65,0
342240,note_on,0,0,2,,,,,,,,,1,,,62,83
342240,note_on,0,0,1,,,,,,,,,0,,,74,83
342240,note_off,480,0,1,,,,,,,,,0,,,77,0
342435,note_off,195,0,3,,,,,,,,,2,,,46,0
342480,note_on,45,0,3,,,,,,,,,2,,,46,58
342675,note_off,195,0,3,,,,,,,,,2,,,56,0
342720,note_on,0,0,1,,,,,,,,,0,,,71,82
342720,note_on,0,0,2,,,,,,,,,1,,,59,82
342720,note_on,45,0,3,,,,,,,,,2,,,38,57
342720,note_off,480,0,1,,,,,,,,,0,,,74,0
342720,note_off,480,0,2,,,,,,,,,1,,,62,0
342915,note_off,195,0,3,,,,,,,,,2,,,46,0
342960,note_on,45,0,3,,,,,,,,,2,,,46,56
343155,note_off,195,0,3,,,,,,,,,2,,,38,0
343200,note_on,0,0,2,,,,,,,,,1,,,58,80
343200,note_off,480,0,2,,,,,,,,,1,,,59,0
343200,note_off,480,0,1,,,,,,,,,0,,,71,0
343200,note_on,0,0,1,,,,,,,,,0,,,70,80
343200,note_on,45,0,3,,,,,,,,,2,,,53,56
343260,set_tempo,5340,1,0,,,,,,254237,,,,,,,
343395,note_off,195,0,3,,,,,,,,,2,,,46,0
343440,note_on,45,0,3,,,,,,,,,2,,,46,55
343635,note_off,195,0,3,,,,,,,,,2,,,53,0
343680,note_on,0,0,1,,,,,,,,,0,,,70,80
343680,note_on,0,0,2,,,,,,,,,1,,,58,80
343680,note_off,480,0,1,,,,,,,,,0,,,70,0
343680,note_off,480,0,2,,,,,,,,,1,,,58,0
343680,set_tempo,420,1,0,,,,,,248962,,,,,,,
343680,note_on,45,0,3,,,,,,,,,2,,,39,54
343875,note_off,195,0,3,,,,,,,,,2,,,46,0
343920,note_on,45,0,3,,,,,,,,,2,,,46,54
344040,note_off,360,0,1,,,,,,,,,0,,,70,0
344040,note_off,360,0,2,,,,,,,,,1,,,58,0
344115,note_off,195,0,3,,,,,,,,,2,,,39,0
344160,note_on,45,0,3,,,,,,,,,2,,,54,58
344355,note_off,195,0,3,,,,,,,,,2,,,46,0
344400,note_on,45,0,3,,,,,,,,,2,,,46,59
344595,note_off,195,0,3,,,,,,,,,2,,,54,0
344640,note_on,600,0,2,,,,,,,,,1,,,70,87
344640,note_on,45,0,3,,,,,,,,,2,,,41,60
344640,note_on,600,0,1,,,,,,,,,0,,,82,87
344835,note_off,195,0,3,,,,,,,,,2,,,46,0
344880,note_on,45,0,3,,,,,,,,,2,,,46,61
345000,note_off,360,0,2,,,,,,,,,1,,,70,0
345000,note_off,360,0,1,,,,,,,,,0,,,82,0
345075,note_off,195,0,3,,,,,,,,,2,,,41,0
345120,note_on,45,0,3,,,,,,,,,2,,,56,62
345315,note_off,195,0,3,,,,,,,,,2,,,46,0
345360,note_on,45,0,3,,,,,,,,,2,,,46,63
345555,note_off,195,0,3,,,,,,,,,2,,,56,0
345560,set_tempo,1880,1,0,,,,,,251046,,,,,,,
345600,note_on,600,0,2,,,,,,,,,1,,,82,96
345600,note_on,45,0,3,,,,,,,,,2,,,43,64
345600,note_on,600,0,1,,,,,,,,,0,,,94,96
345795,note_off,195,0,3,,,,,,,,,2,,,46,0
345840,note_on,45,0,3,,,,,,,,,2,,,51,65
345960,note_off,360,0,1,,,,,,,,,0,,,94,0
345960,note_off,360,0,2,,,,,,,,,1,,,82,0
346035,note_off,195,0,3,,,,,,,,,2,,,43,0
346080,note_on,45,0,3,,,,,,,,,2,,,58,66
346275,note_off,195,0,3,,,,,,,,,2,,,51,0
346320,note_on,45,0,3,,,,,,,,,2,,,51,67
346515,note_off,195,0,3,,,,,,,,,2,,,58,0
346560,note_on,600,0,2,,,,,,,,,1,,,83,96
346560,note_on,45,0,3,,,,,,,,,2,,,44,68
346560,note_on,600,0,1,,,,,,,,,0,,,95,96
346755,note_off,195,0,3,,,,,,,,,2,,,51,0
346800,note_on,45,0,3,,,,,,,,,2,,,51,69
346920,note_off,360,0,1,,,,,,,,,0,,,95,0
346920,note_off,360,0,2,,,,,,,,,1,,,83,0
346995,note_off,195,0,3,,,,,,,,,2,,,44,0
347040,set_tempo,1480,1,0,,,,,,331491,,,,,,,
347040,note_on,45,0,3,,,,,,,,,2,,,59,70
347235,note_off,195,0,3,,,,,,,,,2,,,51,0
347280,note_on,45,0,3,,,,,,,,,2,,,51,71
347400,set_tempo,360,1,0,,,,,,394736,,,,,,,
347475,note_off,195,0,3,,,,,,,,,2,,,59,0
347520,set_tempo,120,1,0,,,,,,260869,,,,,,,
347520,note_on,600,0,1,,,,,,,,,0,,,71,69
347555,note_off,80,0,3,,,,,,,,,2,,,51,0
349440,note_off,1920,0,1,,,,,,,,,0,,,71,0
349440,note_on,0,0,1,,,,,,,,,0,,,70,67
351320,set_tempo,3800,1,0,,,,,,263157,,,,,,,
351360,note_on,3805,0,3,,,,,,,,,2,,,59,56
351360,note_on,0,0,1,,,,,,,,,0,,,68,60
351360,set_tempo,40,1,0,,,,,,260869,,,,,,,
351360,note_off,1920,0,1,,,,,,,,,0,,,70,0
352800,note_off,1440,0,1,,,,,,,,,0,,,68,0
353280,note_off,1920,0,3,,,,,,,,,2,,,59,0
353280,note_on,0,0,3,,,,,,,,,2,,,58,54
355160,set_tempo,3800,1,0,,,,,,263157,,,,,,,
355200,note_on,2400,0,1,,,,,,,,,0,,,72,61
355200,note_on,0,0,3,,,,,,,,,2,,,57,52
355200,set_tempo,40,1,0,,,,,,260869,,,,,,,
355200,note_off,1920,0,3,,,,,,,,,2,,,58,0
356640,note_off,1440,0,3,,,,,,,,,2,,,57,0
357120,note_off,1920,0,1,,,,,,,,,0,,,72,0
357120,note_on,0,0,1,,,,,,,,,0,,,70,59
359000,set_tempo,3800,1,0,,,,,,263157,,,,,,,
359040,note_off,1920,0,1,,,,,,,,,0,,,70,0
359040,note_on,0,0,1,,,,,,,,,0,,,69,57
359040,set_tempo,40,1,0,,,,,,260869,,,,,,,
359040,note_on,2400,0,3,,,,,,,,,2,,,60,47
360480,note_off,1440,0,1,,,,,,,,,0,,,69,0
360960,note_off,1920,0,3,,,,,,,,,2,,,60,0
360960,note_on,0,0,3,,,,,,,,,2,,,58,45
362840,set_tempo,3800,1,0,,,,,,263157,,,,,,,
362880,note_off,1920,0,3,,,,,,,,,2,,,58,0
362880,note_on,0,0,3,,,,,,,,,2,,,56,43
362880,set_tempo,40,1,0,,,,,,260869,,,,,,,
362880,note_on,2400,0,1,,,,,,,,,0,,,77,53
364320,note_off,1440,0,3,,,,,,,,,2,,,56,0
364800,note_off,1920,0,1,,,,,,,,,0,,,77,0
364800,note_on,0,0,1,,,,,,,,,0,,,75,51
366680,set_tempo,3800,1,0,,,,,,263157,,,,,,,
366720,note_off,1920,0,1,,,,,,,,,0,,,75,0
366720,set_tempo,40,1,0,,,,,,260869,,,,,,,
366720,note_on,0,0,1,,,,,,,,,0,,,74,48
366720,note_on,2400,0,3,,,,,,,,,2,,,68,50
366720,note_on,0,0,3,,,,,,,,,2,,,65,50
368160,note_off,1440,0,1,,,,,,,,,0,,,74,0
368640,note_on,0,0,3,,,,,,,,,2,,,63,58
368640,note_off,0,0,3,,,,,,,,,2,,,68,0
368640,note_off,1920,0,3,,,,,,,,,2,,,65,0
368640,note_on,0,0,3,,,,,,,,,2,,,67,58
370440,set_tempo,3720,1,0,,,,,,263157,,,,,,,
370560,note_on,23640,0,2,,,,,,,,,1,,,70,57
370560,note_on,2400,0,1,,,,,,,,,0,,,82,59
370560,set_tempo,120,1,0,,,,,,260869,,,,,,,
370560,note_on,0,0,3,,,,,,,,,2,,,62,65
370560,note_on,0,0,3,,,,,,,,,2,,,65,65
370560,note_off,0,0,3,,,,,,,,,2,,,67,0
370560,note_off,1920,0,3,,,,,,,,,2,,,63,0
372480,note_off,1920,0,1,,,,,,,,,0,,,82,0
372480,note_on,0,0,3,,,,,,,,,2,,,63,73
372480,note_off,1920,0,2,,,,,,,,,1,,,70,0
372480,note_on,0,0,2,,,,,,,,,1,,,68,66
372480,note_off,1920,0,3,,,,,,,,,2,,,62,0
372480,note_off,0,0,3,,,,,,,,,2,,,65,0
372480,note_on,0,0,1,,,,,,,,,0,,,80,68
372480,note_on,0,0,3,,,,,,,,,2,,,60,73
374360,set_tempo,3800,1,0,,,,,,263157,,,,,,,
374400,note_off,1920,0,1,,,,,,,,,0,,,80,0
374400,note_on,0,0,1,,,,,,,,,0,,,79,79
374400,note_off,0,0,3,,,,,,,,,2,,,60,0
374400,note_off,1920,0,2,,,,,,,,,1,,,68,0
374400,note_on,0,0,3,,,,,,,,,2,,,59,79
374400,note_on,0,0,3,,,,,,,,,2,,,62,79
374400,note_on,0,0,2,,,,,,,,,1,,,67,75
374400,note_off,1920,0,3,,,,,,,,,2,,,63,0
376260,set_tempo,1900,1,0,,,,,,265486,,,,,,,
376320,note_on,0,0,3,,,,,,,,,2,,,58,70
376320,note_off,1920,0,3,,,,,,,,,2,,,62,0
376320,note_on,0,0,3,,,,,,,,,2,,,63,70
376320,note_off,0,0,3,,,,,,,,,2,,,59,0
377220,set_tempo,960,1,0,,,,,,271493,,,,,,,
377280,note_off,2880,0,1,,,,,,,,,0,,,79,0
377280,note_on,0,0,3,,,,,,,,,2,,,65,66
377280,note_on,0,0,2,,,,,,,,,1,,,68,70
377280,note_off,2880,0,2,,,,,,,,,1,,,67,0
377280,note_off,960,0,3,,,,,,,,,2,,,63,0
377280,note_on,0,0,1,,,,,,,,,0,,,80,70
377760,note_on,0,0,3,,,,,,,,,2,,,62,64
377760,note_on,0,0,2,,,,,,,,,1,,,65,66
377760,note_off,480,0,2,,,,,,,,,1,,,68,0
377760,note_off,480,0,1,,,,,,,,,0,,,80,0
377760,note_on,0,0,1,,,,,,,,,0,,,77,66
377760,note_off,480,0,3,,,,,,,,,2,,,65,0
377775,set_tempo,555,1,0,,,,,,324324,,,,,,,
378240,note_on,0,0,1,,,,,,,,,0,,,79,62
378240,set_tempo,465,1,0,,,,,,248962,,,,,,,
378240,note_off,480,0,2,,,,,,,,,1,,,65,0
378240,note_off,480,0,1,,,,,,,,,0,,,77,0
378240,note_off,0,0,3,,,,,,,,,2,,,58,0
378240,note_off,480,0,3,,,,,,,,,2,,,62,0
378240,note_on,0,0,2,,,,,,,,,1,,,75,62
378480,note_on,240,0,3,,,,,,,,,2,,,58,60
378720,note_on,0,0,3,,,,,,,,,2,,,60,61
378720,note_off,240,0,3,,,,,,,,,2,,,58,0
378960,note_on,0,0,3,,,,,,,,,2,,,58,61
378960,note_off,240,0,3,,,,,,,,,2,,,60,0
379200,note_off,240,0,3,,,,,,,,,2,,,58,0
379200,note_on,0,0,3,,,,,,,,,2,,,57,62
379440,note_on,0,0,3,,,,,,,,,2,,,58,62
379440,note_off,240,0,3,,,,,,,,,2,,,57,0
379680,note_on,0,0,3,,,,,,,,,2,,,55,63
379680,note_off,240,0,3,,,,,,,,,2,,,58,0
379920,note_on,0,0,3,,,,,,,,,2,,,51,64
379920,note_off,240,0,3,,,,,,,,,2,,,55,0
380160,note_off,240,0,3,,,,,,,,,2,,,51,0
380160,note_on,0,0,3,,,,,,,,,2,,,56,64
380160,note_off,1920,0,2,,,,,,,,,1,,,75,0
380160,note_on,0,0,1,,,,,,,,,0,,,77,63
380160,note_off,1920,0,1,,,,,,,,,0,,,79,0
380160,note_on,0,0,2,,,,,,,,,1,,,70,63
380400,note_off,240,0,3,,,,,,,,,2,,,56,0
380400,note_on,0,0,3,,,,,,,,,2,,,53,65
380640,note_off,240,0,3,,,,,,,,,2,,,53,0
380640,note_on,0,0,3,,,,,,,,,2,,,50,65
380880,note_off,240,0,3,,,,,,,,,2,,,50,0
380880,note_on,0,0,3,,,,,,,,,2,,,46,66
381120,note_off,240,0,3,,,,,,,,,2,,,46,0
381120,note_on,0,0,3,,,,,,,,,2,,,44,66
381360,note_on,0,0,3,,,,,,,,,2,,,41,67
381360,note_off,240,0,3,,,,,,,,,2,,,44,0
381600,note_on,0,0,3,,,,,,,,,2,,,38,67
381600,note_off,240,0,3,,,,,,,,,2,,,41,0
381840,note_on,0,0,3,,,,,,,,,2,,,34,68
381840,note_off,240,0,3,,,,,,,,,2,,,38,0
381960,set_tempo,3720,1,0,,,,,,251046,,,,,,,
382080,note_off,1920,0,2,,,,,,,,,1,,,70,0
382080,note_on,0,0,2,,,,,,,,,1,,,67,63
382080,note_off,240,0,3,,,,,,,,,2,,,34,0
382080,note_on,0,0,3,,,,,,,,,2,,,39,69
382080,note_off,1920,0,1,,,,,,,,,0,,,77,0
382080,note_on,0,0,1,,,,,,,,,0,,,75,63
382320,note_off,240,0,3,,,,,,,,,2,,,39,0
382320,note_on,0,0,3,,,,,,,,,2,,,41,68
382560,note_off,240,0,3,,,,,,,,,2,,,41,0
382560,note_on,0,0,3,,,,,,,,,2,,,43,68
382800,note_off,240,0,3,,,,,,,,,2,,,43,0
382800,note_on,0,0,3,,,,,,,,,2,,,44,67
383040,note_on,0,0,1,,,,,,,,,0,,,72,63
383040,note_off,960,0,1,,,,,,,,,0,,,75,0
383040,note_on,0,0,3,,,,,,,,,2,,,46,66
383040,note_off,240,0,3,,,,,,,,,2,,,44,0
383040,note_on,0,0,2,,,,,,,,,1,,,68,63
383040,note_off,960,0,2,,,,,,,,,1,,,67,0
383280,note_off,240,0,3,,,,,,,,,2,,,46,0
383280,note_on,0,0,3,,,,,,,,,2,,,48,65
383520,note_on,0,0,1,,,,,,,,,0,,,70,63
383520,note_on,0,0,2,,,,,,,,,1,,,67,63
383520,note_off,480,0,2,,,,,,,,,1,,,68,0
383520,note_off,480,0,1,,,,,,,,,0,,,72,0
383520,note_off,240,0,3,,,,,,,,,2,,,48,0
383520,note_on,0,0,3,,,,,,,,,2,,,50,65
383760,note_on,0,0,3,,,,,,,,,2,,,51,64
383760,note_off,240,0,3,,,,,,,,,2,,,50,0
383880,set_tempo,1920,1,0,,,,,,253164,,,,,,,
384000,note_off,480,0,2,,,,,,,,,1,,,67,0
384000,note_off,240,0,3,,,,,,,,,2,,,51,0
384000,note_on,0,0,3,,,,,,,,,2,,,46,63
384000,note_on,0,0,3,,,,,,,,,2,,,53,63
384000,note_on,0,0,2,,,,,,,,,1,,,67,63
384000,note_on,0,0,1,,,,,,,,,0,,,70,63
384000,note_off,480,0,1,,,,,,,,,0,,,70,0
384240,note_off,240,0,3,,,,,,,,,2,,,53,0
384240,note_on,0,0,3,,,,,,,,,2,,,55,62
384480,note_off,240,0,3,,,,,,,,,2,,,55,0
384480,note_on,0,0,2,,,,,,,,,1,,,65,63
384480,note_off,480,0,2,,,,,,,,,1,,,67,0
384480,note_off,480,0,1,,,,,,,,,0,,,70,0
384480,note_on,0,0,1,,,,,,,,,0,,,68,63
384480,note_on,0,0,3,,,,,,,,,2,,,56,61
384720,note_off,240,0,3,,,,,,,,,2,,,56,0
384720,note_on,0,0,3,,,,,,,,,2,,,57,61
384960,note_on,0,0,2,,,,,,,,,1,,,63,63
384960,note_off,480,0,2,,,,,,,,,1,,,65,0
384960,note_off,480,0,1,,,,,,,,,0,,,68,0
384960,note_on,0,0,1,,,,,,,,,0,,,67,63
384960,note_on,0,0,3,,,,,,,,,2,,,58,60
384960,note_off,240,0,3,,,,,,,,,2,,,57,0
385440,note_on,0,0,3,,,,,,,,,2,,,56,63
385440,note_off,480,0,2,,,,,,,,,1,,,63,0
385440,note_off,480,0,3,,,,,,,,,2,,,58,0
385440,note_on,0,0,2,,,,,,,,,1,,,58,63
385440,note_off,480,0,1,,,,,,,,,0,,,67,0
385440,note_on,0,0,1,,,,,,,,,0,,,65,63
385665,set_tempo,1785,1,0,,,,,,256410,,,,,,,
385920,set_tempo,255,1,0,,,,,,248962,,,,,,,
385920,note_off,480,0,3,,,,,,,,,2,,,56,0
385920,note_off,0,0,3,,,,,,,,,2,,,46,0
385920,note_off,480,0,1,,,,,,,,,0,,,65,0
385920,note_on,0,0,1,,,,,,,,,0,,,63,63
385920,note_off,480,0,2,,,,,,,,,1,,,58,0
385920,note_on,0,0,3,,,,,,,,,2,,,51,68
385920,note_on,0,0,3,,,,,,,,,2,,,55,68
386160,note_off,240,0,1,,,,,,,,,0,,,63,0
386160,note_on,0,0,1,,,,,,,,,0,,,58,63
386400,note_off,240,0,1,,,,,,,,,0,,,58,0
386400,note_on,0,0,1,,,,,,,,,0,,,60,63
386640,note_off,240,0,1,,,,,,,,,0,,,60,0
386640,note_on,0,0,1,,,,,,,,,0,,,58,63
386880,note_off,240,0,1,,,,,,,,,0,,,58,0
386880,note_on,0,0,1,,,,,,,,,0,,,57,63
387120,note_off,240,0,1,,,,,,,,,0,,,57,0
387120,note_on,0,0,1,,,,,,,,,0,,,58,63
387360,note_off,240,0,1,,,,,,,,,0,,,58,0
387360,note_on,0,0,1,,,,,,,,,0,,,67,63
387600,note_off,240,0,1,,,,,,,,,0,,,67,0
387600,note_on,0,0,1,,,,,,,,,0,,,63,63
387840,note_off,1920,0,3,,,,,,,,,2,,,55,0
387840,note_on,0,0,3,,,,,,,,,2,,,46,58
387840,note_on,0,0,3,,,,,,,,,2,,,53,58
387840,note_off,0,0,3,,,,,,,,,2,,,51,0
387840,note_off,240,0,1,,,,,,,,,0,,,63,0
387840,note_on,0,0,1,,,,,,,,,0,,,62,62
388080,note_on,0,0,1,,,,,,,,,0,,,63,64
388080,note_off,240,0,1,,,,,,,,,0,,,62,0
388320,note_on,0,0,1,,,,,,,,,0,,,65,66
388320,note_off,240,0,1,,,,,,,,,0,,,63,0
388560,note_off,240,0,1,,,,,,,,,0,,,65,0
388560,note_on,0,0,1,,,,,,,,,0,,,67,68
388800,note_off,240,0,1,,,,,,,,,0,,,67,0
388800,note_on,0,0,1,,,,,,,,,0,,,68,70
389040,note_on,0,0,1,,,,,,,,,0,,,69,69
389040,note_off,240,0,1,,,,,,,,,0,,,68,0
389205,note_off,0,0,3,,,,,,,,,2,,,53,0
389205,note_off,1365,0,3,,,,,,,,,2,,,46,0
389280,note_on,0,0,1,,,,,,,,,0,,,72,68
389280,note_off,240,0,1,,,,,,,,,0,,,69,0
389520,note_on,0,0,1,,,,,,,,,0,,,70,66
389520,note_off,240,0,1,,,,,,,,,0,,,72,0
389700,set_tempo,3780,1,0,,,,,,251046,,,,,,,
389760,note_on,0,0,3,,,,,,,,,2,,,67,64
389760,note_on,555,0,3,,,,,,,,,2,,,63,64
389760,set_tempo,60,1,0,,,,,,248962,,,,,,,
389760,note_on,0,0,1,,,,,,,,,0,,,69,65
389760,note_off,240,0,1,,,,,,,,,0,,,70,0
390000,note_off,240,0,1,,,,,,,,,0,,,69,0
390000,note_on,0,0,1,,,,,,,,,0,,,70,63
390240,note_on,0,0,1,,,,,,,,,0,,,72,63
390240,note_off,240,0,1,,,,,,,,,0,,,70,0
390480,note_on,0,0,1,,,,,,,,,0,,,70,63
390480,note_off,240,0,1,,,,,,,,,0,,,72,0
390720,note_on,0,0,1,,,,,,,,,0,,,69,63
390720,note_off,240,0,1,,,,,,,,,0,,,70,0
390960,note_on,0,0,1,,,,,,,,,0,,,70,63
390960,note_off,240,0,1,,,,,,,,,0,,,69,0
391200,note_on,0,0,1,,,,,,,,,0,,,79,63
391200,note_off,240,0,1,,,,,,,,,0,,,70,0
391440,note_off,240,0,1,,,,,,,,,0,,,79,0
391440,note_on,0,0,1,,,,,,,,,0,,,75,63
391680,note_off,1920,0,3,,,,,,,,,2,,,67,0
391680,note_off,0,0,3,,,,,,,,,2,,,63,0
391680,note_on,0,0,3,,,,,,,,,2,,,65,60
391680,note_on,0,0,3,,,,,,,,,2,,,58,60
391680,note_on,0,0,1,,,,,,,,,0,,,74,64
391680,note_off,240,0,1,,,,,,,,,0,,,75,0
391920,note_off,240,0,1,,,,,,,,,0,,,74,0
391920,note_on,0,0,1,,,,,,,,,0,,,75,65
392160,note_off,240,0,1,,,,,,,,,0,,,75,0
392160,note_on,0,0,1,,,,,,,,,0,,,77,67
392400,note_off,240,0,1,,,,,,,,,0,,,77,0
392400,note_on,0,0,1,,,,,,,,,0,,,79,68
392640,note_off,240,0,1,,,,,,,,,0,,,79,0
392640,note_on,0,0,1,,,,,,,,,0,,,80,73
392880,note_off,240,0,1,,,,,,,,,0,,,80,0
392880,note_on,0,0,1,,,,,,,,,0,,,81,71
393120,note_off,240,0,1,,,,,,,,,0,,,81,0
393120,note_on,0,0,1,,,,,,,,,0,,,84,69
393193,note_off,1513,0,3,,,,,,,,,2,,,65,0
393230,note_off,37,0,3,,,,,,,,,2,,,58,0
393360,note_off,240,0,1,,,,,,,,,0,,,84,0
393360,note_on,0,0,1,,,,,,,,,0,,,82,67
393540,set_tempo,3780,1,0,,,,,,251046,,,,,,,
393600,note_on,370,0,3,,,,,,,,,2,,,79,66
393600,set_tempo,60,1,0,,,,,,248962,,,,,,,
393600,note_on,0,0,1,,,,,,,,,0,,,81,62
393600,note_off,240,0,1,,,,,,,,,0,,,82,0
393600,note_on,0,0,3,,,,,,,,,2,,,75,66
393840,note_on,0,0,1,,,,,,,,,0,,,82,62
393840,note_off,240,0,1,,,,,,,,,0,,,81,0
394080,note_off,240,0,1,,,,,,,,,0,,,82,0
394080,note_on,0,0,1,,,,,,,,,0,,,84,63
394320,note_off,240,0,1,,,,,,,,,0,,,84,0
394320,note_on,0,0,1,,,,,,,,,0,,,82,63
394560,note_off,240,0,1,,,,,,,,,0,,,82,0
394560,note_on,0,0,1,,,,,,,,,0,,,81,64
394800,note_off,240,0,1,,,,,,,,,0,,,81,0
394800,note_on,0,0,1,,,,,,,,,0,,,82,65
395040,note_off,240,0,1,,,,,,,,,0,,,82,0
395040,note_on,0,0,1,,,,,,,,,0,,,91,64
395280,note_on,0,0,1,,,,,,,,,0,,,87,65
395280,note_off,240,0,1,,,,,,,,,0,,,91,0
395520,note_off,0,0,3,,,,,,,,,2,,,79,0
395520,note_on,0,0,3,,,,,,,,,2,,,70,61
395520,note_on,0,0,3,,,,,,,,,2,,,77,61
395520,note_off,1920,0,3,,,,,,,,,2,,,75,0
395520,note_on,0,0,1,,,,,,,,,0,,,86,66
395520,note_off,240,0,1,,,,,,,,,0,,,87,0
395760,note_on,0,0,1,,,,,,,,,0,,,87,68
395760,note_off,240,0,1,,,,,,,,,0,,,86,0
396000,note_on,0,0,1,,,,,,,,,0,,,89,70
396000,note_off,240,0,1,,,,,,,,,0,,,87,0
396240,note_on,0,0,1,,,,,,,,,0,,,91,73
396240,note_off,240,0,1,,,,,,,,,0,,,89,0
396272,note_off,752,0,3,,,,,,,,,2,,,70,0
396279,note_off,7,0,3,,,,,,,,,2,,,77,0
396480,note_on,0,0,1,,,,,,,,,0,,,92,73
396480,note_off,240,0,1,,,,,,,,,0,,,91,0
396480,note_on,201,0,3,,,,,,,,,2,,,68,71
396480,note_on,0,0,3,,,,,,,,,2,,,70,71
396480,note_on,0,0,3,,,,,,,,,2,,,77,71
396480,note_on,0,0,3,,,,,,,,,2,,,74,71
396720,note_on,0,0,1,,,,,,,,,0,,,93,73
396720,note_off,240,0,1,,,,,,,,,0,,,92,0
396960,note_off,240,0,1,,,,,,,,,0,,,93,0
396960,note_on,0,0,1,,,,,,,,,0,,,96,72
397200,note_off,240,0,1,,,,,,,,,0,,,96,0
397200,note_on,0,0,1,,,,,,,,,0,,,94,72
397380,set_tempo,3780,1,0,,,,,,251046,,,,,,,
397440,note_off,0,0,3,,,,,,,,,2,,,68,0
397440,note_off,960,0,3,,,,,,,,,2,,,74,0
397440,set_tempo,60,1,0,,,,,,251046,,,,,,,
397440,note_on,0,0,3,,,,,,,,,2,,,67,68
397440,note_on,0,0,1,,,,,,,,,0,,,93,72
397440,note_off,240,0,1,,,,,,,,,0,,,94,0
397440,note_on,0,0,3,,,,,,,,,2,,,70,68
397440,note_off,0,0,3,,,,,,,,,2,,,70,0
397440,note_off,0,0,3,,,,,,,,,2,,,77,0
397680,note_off,240,0,1,,,,,,,,,0,,,93,0
397680,note_on,0,0,1,,,,,,,,,0,,,94,73
397920,note_off,240,0,1,,,,,,,,,0,,,94,0
397920,note_on,0,0,1,,,,,,,,,0,,,92,74
398160,note_off,240,0,1,,,,,,,,,0,,,92,0
398160,note_on,0,0,1,,,,,,,,,0,,,91,74
398229,note_off,789,0,3,,,,,,,,,2,,,70,0
398229,note_off,0,0,3,,,,,,,,,2,,,67,0
398400,note_on,171,0,3,,,,,,,,,2,,,67,75
398400,note_on,0,0,3,,,,,,,,,2,,,63,75
398400,note_off,240,0,1,,,,,,,,,0,,,91,0
398400,note_on,0,0,1,,,,,,,,,0,,,89,75
398640,note_off,240,0,1,,,,,,,,,0,,,89,0
398640,note_on,0,0,1,,,,,,,,,0,,,87,76
398880,note_off,240,0,1,,,,,,,,,0,,,87,0
398880,note_on,0,0,1,,,,,,,,,0,,,86,77
399120,note_on,0,0,1,,,,,,,,,0,,,84,77
399120,note_off,240,0,1,,,,,,,,,0,,,86,0
399360,note_off,240,0,1,,,,,,,,,0,,,84,0
399360,note_on,0,0,1,,,,,,,,,0,,,82,78
399360,note_off,960,0,3,,,,,,,,,2,,,63,0
399360,note_off,0,0,3,,,,,,,,,2,,,67,0
399360,note_on,0,0,3,,,,,,,,,2,,,58,66
399360,note_on,0,0,3,,,,,,,,,2,,,65,66
399360,note_on,0,0,3,,,,,,,,,2,,,68,66
399600,note_on,0,0,1,,,,,,,,,0,,,80,79
399600,note_off,240,0,1,,,,,,,,,0,,,82,0
399840,note_on,0,0,1,,,,,,,,,0,,,79,80
399840,note_off,240,0,1,,,,,,,,,0,,,80,0
400080,note_off,240,0,1,,,,,,,,,0,,,79,0
400080,note_on,0,0,1,,,,,,,,,0,,,77,81
400112,note_off,752,0,3,,,,,,,,,2,,,58,0
400119,note_off,0,0,3,,,,,,,,,2,,,65,0
400119,note_off,7,0,3,,,,,,,,,2,,,68,0
400320,note_on,0,0,3,,,,,,,,,2,,,68,76
400320,note_off,240,0,1,,,,,,,,,0,,,77,0
400320,note_on,0,0,1,,,,,,,,,0,,,75,81
400320,note_on,0,0,3,,,,,,,,,2,,,58,76
400320,note_on,201,0,3,,,,,,,,,2,,,65,76
400560,note_off,240,0,1,,,,,,,,,0,,,75,0
400560,note_on,0,0,1,,,,,,,,,0,,,74,79
400800,note_off,240,0,1,,,,,,,,,0,,,74,0
400800,note_on,0,0,1,,,,,,,,,0,,,77,76
400920,set_tempo,3480,1,0,,,,,,263157,,,,,,,
401040,note_off,240,0,1,,,,,,,,,0,,,77,0
401040,note_on,0,0,1,,,,,,,,,0,,,80,73
401130,set_tempo,210,1,0,,,,,,254237,,,,,,,
401280,note_on,15360,0,2,,,,,,,,,1,,,75,67
401280,note_off,0,0,3,,,,,,,,,2,,,58,0
401280,note_off,960,0,3,,,,,,,,,2,,,68,0
401280,note_off,0,0,3,,,,,,,,,2,,,65,0
401280,set_tempo,150,1,0,,,,,,248962,,,,,,,
401280,note_on,0,0,1,,,,,,,,,0,,,79,70
401280,note_off,240,0,1,,,,,,,,,0,,,80,0
401520,note_on,240,0,3,,,,,,,,,2,,,58,61
401760,note_on,0,0,3,,,,,,,,,2,,,60,61
401760,note_off,240,0,3,,,,,,,,,2,,,58,0
402000,note_on,0,0,3,,,,,,,,,2,,,58,62
402000,note_off,240,0,3,,,,,,,,,2,,,60,0
402240,note_off,240,0,3,,,,,,,,,2,,,58,0
402240,note_on,0,0,3,,,,,,,,,2,,,57,62
402480,note_off,240,0,3,,,,,,,,,2,,,57,0
402480,note_on,0,0,3,,,,,,,,,2,,,58,63
402720,note_off,240,0,3,,,,,,,,,2,,,58,0
402720,note_on,0,0,3,,,,,,,,,2,,,55,63
402960,note_off,240,0,3,,,,,,,,,2,,,55,0
402960,note_on,0,0,3,,,,,,,,,2,,,51,64
403200,note_on,0,0,2,,,,,,,,,1,,,70,63
403200,note_off,1920,0,1,,,,,,,,,0,,,79,0
403200,note_on,0,0,1,,,,,,,,,0,,,77,63
403200,note_off,1920,0,2,,,,,,,,,1,,,75,0
403200,note_on,0,0,3,,,,,,,,,2,,,56,64
403200,note_off,240,0,3,,,,,,,,,2,,,51,0
403440,note_off,240,0,3,,,,,,,,,2,,,56,0
403440,note_on,0,0,3,,,,,,,,,2,,,53,65
403680,note_off,240,0,3,,,,,,,,,2,,,53,0
403680,note_on,0,0,3,,,,,,,,,2,,,50,65
403920,note_off,240,0,3,,,,,,,,,2,,,50,0
403920,note_on,0,0,3,,,,,,,,,2,,,46,66
404160,note_off,240,0,3,,,,,,,,,2,,,46,0
404160,note_on,0,0,3,,,,,,,,,2,,,44,66
404400,note_off,240,0,3,,,,,,,,,2,,,44,0
404400,note_on,0,0,3,,,,,,,,,2,,,41,67
404640,note_off,240,0,3,,,,,,,,,2,,,41,0
404640,note_on,0,0,3,,,,,,,,,2,,,38,68
404880,note_on,0,0,3,,,,,,,,,2,,,34,68
404880,note_off,240,0,3,,,,,,,,,2,,,38,0
405000,set_tempo,3720,1,0,,,,,,251046,,,,,,,
405120,note_off,1920,0,2,,,,,,,,,1,,,70,0
405120,note_on,0,0,2,,,,,,,,,1,,,67,63
405120,note_on,0,0,1,,,,,,,,,0,,,75,63
405120,note_off,1920,0,1,,,,,,,,,0,,,77,0
405120,note_off,240,0,3,,,,,,,,,2,,,34,0
405120,note_on,0,0,3,,,,,,,,,2,,,39,69
405360,note_on,0,0,3,,,,,,,,,2,,,41,69
405360,note_off,240,0,3,,,,,,,,,2,,,39,0
405600,note_on,0,0,3,,,,,,,,,2,,,43,68
405600,note_off,240,0,3,,,,,,,,,2,,,41,0
405840,note_off,240,0,3,,,,,,,,,2,,,43,0
405840,note_on,0,0,3,,,,,,,,,2,,,44,68
406080,note_off,960,0,2,,,,,,,,,1,,,67,0
406080,note_on,0,0,1,,,,,,,,,0,,,72,63
406080,note_off,960,0,1,,,,,,,,,0,,,75,0
406080,note_on,0,0,3,,,,,,,,,2,,,46,67
406080,note_off,240,0,3,,,,,,,,,2,,,44,0
406080,note_on,0,0,2,,,,,,,,,1,,,68,63
406320,note_off,240,0,3,,,,,,,,,2,,,46,0
406320,note_on,0,0,3,,,,,,,,,2,,,48,67
406560,note_on,0,0,1,,,,,,,,,0,,,70,63
406560,note_off,480,0,1,,,,,,,,,0,,,72,0
406560,note_off,480,0,2,,,,,,,,,1,,,68,0
406560,note_on,0,0,2,,,,,,,,,1,,,67,63
406560,note_off,240,0,3,,,,,,,,,2,,,48,0
406560,note_on,0,0,3,,,,,,,,,2,,,50,66
406800,note_off,240,0,3,,,,,,,,,2,,,50,0
406800,note_on,0,0,3,,,,,,,,,2,,,51,66
406920,set_tempo,1920,1,0,,,,,,253164,,,,,,,
407040,note_off,480,0,2,,,,,,,,,1,,,67,0
407040,note_on,0,0,3,,,,,,,,,2,,,53,65
407040,note_on,0,0,3,,,,,,,,,2,,,46,65
407040,note_off,240,0,3,,,,,,,,,2,,,51,0
407040,note_off,480,0,1,,,,,,,,,0,,,70,0
407040,note_on,0,0,1,,,,,,,,,0,,,70,63
407040,note_on,0,0,2,,,,,,,,,1,,,67,63
407280,note_off,240,0,3,,,,,,,,,2,,,53,0
407280,note_on,0,0,3,,,,,,,,,2,,,55,65
407520,note_off,240,0,3,,,,,,,,,2,,,55,0
407520,note_on,0,0,3,,,,,,,,,2,,,56,64
407520,note_on,0,0,1,,,,,,,,,0,,,68,63
407520,note_off,480,0,1,,,,,,,,,0,,,70,0
407520,note_off,480,0,2,,,,,,,,,1,,,67,0
407520,note_on,0,0,2,,,,,,,,,1,,,65,63
407760,note_off,240,0,3,,,,,,,,,2,,,56,0
407760,note_on,0,0,3,,,,,,,,,2,,,57,63
408000,note_off,480,0,2,,,,,,,,,1,,,65,0
408000,note_on,0,0,1,,,,,,,,,0,,,67,63
408000,note_off,480,0,1,,,,,,,,,0,,,68,0
408000,note_off,240,0,3,,,,,,,,,2,,,57,0
408000,note_on,0,0,3,,,,,,,,,2,,,58,63
408000,note_on,0,0,2,,,,,,,,,1,,,63,63
408480,note_on,0,0,1,,,,,,,,,0,,,65,63
408480,note_on,0,0,3,,,,,,,,,2,,,56,62
408480,note_off,480,0,3,,,,,,,,,2,,,58,0
408480,note_on,0,0,2,,,,,,,,,1,,,58,63
408480,note_off,480,0,2,,,,,,,,,1,,,63,0
408480,note_off,480,0,1,,,,,,,,,0,,,67,0
408855,set_tempo,1935,1,0,,,,,,258620,,,,,,,
408960,note_on,0,0,1,,,,,,,,,0,,,63,63
408960,note_off,480,0,1,,,,,,,,,0,,,65,0
408960,note_off,0,0,3,,,,,,,,,2,,,46,0
408960,note_on,0,0,3,,,,,,,,,2,,,51,69
408960,note_off,480,0,2,,,,,,,,,1,,,58,0
408960,note_on,0,0,3,,,,,,,,,2,,,55,69
408960,set_tempo,105,1,0,,,,,,248962,,,,,,,
408960,note_off,480,0,3,,,,,,,,,2,,,56,0
409200,note_off,240,0,1,,,,,,,,,0,,,63,0
409200,note_on,0,0,1,,,,,,,,,0,,,58,63
409440,note_off,240,0,1,,,,,,,,,0,,,58,0
409440,note_on,0,0,1,,,,,,,,,0,,,60,63
409680,note_on,0,0,1,,,,,,,,,0,,,58,63
409680,note_off,240,0,1,,,,,,,,,0,,,60,0
409920,note_on,0,0,1,,,,,,,,,0,,,57,63
409920,note_off,240,0,1,,,,,,,,,0,,,58,0
410160,note_on,0,0,1,,,,,,,,,0,,,58,63
410160,note_off,240,0,1,,,,,,,,,0,,,57,0
410400,note_off,240,0,1,,,,,,,,,0,,,58,0
410400,note_on,0,0,1,,,,,,,,,0,,,67,63
410640,note_off,240,0,1,,,,,,,,,0,,,67,0
410640,note_on,0,0,1,,,,,,,,,0,,,63,63
410880,note_off,240,0,1,,,,,,,,,0,,,63,0
410880,note_on,0,0,1,,,,,,,,,0,,,62,66
410880,note_on,0,0,3,,,,,,,,,2,,,46,58
410880,note_off,1920,0,3,,,,,,,,,2,,,55,0
410880,note_off,0,0,3,,,,,,,,,2,,,51,0
410880,note_on,0,0,3,,,,,,,,,2,,,53,58
411120,note_on,0,0,1,,,,,,,,,0,,,63,68
411120,note_off,240,0,1,,,,,,,,,0,,,62,0
411360,note_on,0,0,1,,,,,,,,,0,,,65,70
411360,note_off,240,0,1,,,,,,,,,0,,,63,0
411600,note_on,0,0,1,,,,,,,,,0,,,67,71
411600,note_off,240,0,1,,,,,,,,,0,,,65,0
411840,note_on,0,0,1,,,,,,,,,0,,,68,73
411840,note_off,240,0,1,,,,,,,,,0,,,67,0
412080,note_off,240,0,1,,,,,,,,,0,,,68,0
412080,note_on,0,0,1,,,,,,,,,0,,,69,69
412320,note_off,240,0,1,,,,,,,,,0,,,69,0
412320,note_on,0,0,1,,,,,,,,,0,,,72,67
412541,note_off,1661,0,3,,,,,,,,,2,,,46,0
412541,note_off,0,0,3,,,,,,,,,2,,,53,0
412560,note_on,0,0,1,,,,,,,,,0,,,70,66
412560,note_off,240,0,1,,,,,,,,,0,,,72,0
412800,note_on,259,0,3,,,,,,,,,2,,,63,70
412800,note_on,0,0,3,,,,,,,,,2,,,67,70
412800,note_on,0,0,1,,,,,,,,,0,,,69,64
412800,note_off,240,0,1,,,,,,,,,0,,,70,0
413040,note_on,0,0,1,,,,,,,,,0,,,70,63
413040,note_off,240,0,1,,,,,,,,,0,,,69,0
413280,note_on,0,0,1,,,,,,,,,0,,,72,63
413280,note_off,240,0,1,,,,,,,,,0,,,70,0
413520,note_off,240,0,1,,,,,,,,,0,,,72,0
413520,note_on,0,0,1,,,,,,,,,0,,,70,63
413760,note_on,0,0,1,,,,,,,,,0,,,69,63
413760,note_off,240,0,1,,,,,,,,,0,,,70,0
414000,note_off,240,0,1,,,,,,,,,0,,,69,0
414000,note_on,0,0,1,,,,,,,,,0,,,70,63
414240,note_off,240,0,1,,,,,,,,,0,,,70,0
414240,note_on,0,0,1,,,,,,,,,0,,,79,63
414480,note_on,0,0,1,,,,,,,,,0,,,75,63
414480,note_off,240,0,1,,,,,,,,,0,,,79,0
414720,note_off,0,0,3,,,,,,,,,2,,,63,0
414720,note_on,0,0,3,,,,,,,,,2,,,65,60
414720,note_on,0,0,3,,,,,,,,,2,,,58,60
414720,note_off,1920,0,3,,,,,,,,,2,,,67,0
414720,note_off,240,0,1,,,,,,,,,0,,,75,0
414720,note_on,0,0,1,,,,,,,,,0,,,74,66
414960,note_on,0,0,1,,,,,,,,,0,,,75,69
414960,note_off,240,0,1,,,,,,,,,0,,,74,0
415200,note_on,0,0,1,,,,,,,,,0,,,77,71
415200,note_off,240,0,1,,,,,,,,,0,,,75,0
415440,note_off,240,0,1,,,,,,,,,0,,,77,0
415440,note_on,0,0,1,,,,,,,,,0,,,79,73
415680,note_on,0,0,1,,,,,,,,,0,,,80,75
415680,note_off,240,0,1,,,,,,,,,0,,,79,0
415920,note_off,240,0,1,,,,,,,,,0,,,80,0
415920,note_on,0,0,1,,,,,,,,,0,,,81,73
416160,note_off,240,0,1,,,,,,,,,0,,,81,0
416160,note_on,0,0,1,,,,,,,,,0,,,84,71
416344,note_off,0,0,3,,,,,,,,,2,,,65,0
416344,note_off,1624,0,3,,,,,,,,,2,,,58,0
416400,note_on,0,0,1,,,,,,,,,0,,,82,68
416400,note_off,240,0,1,,,,,,,,,0,,,84,0
416580,set_tempo,7620,1,0,,,,,,251046,,,,,,,
416640,set_tempo,60,1,0,,,,,,248962,,,,,,,
416640,note_off,240,0,1,,,,,,,,,0,,,82,0
416640,note_on,0,0,1,,,,,,,,,0,,,81,66
416640,note_on,0,0,3,,,,,,,,,2,,,75,71
416640,note_on,296,0,3,,,,,,,,,2,,,79,71
416880,note_off,240,0,1,,,,,,,,,0,,,81,0
416880,note_on,0,0,1,,,,,,,,,0,,,82,63
417120,note_off,240,0,1,,,,,,,,,0,,,82,0
417120,note_on,0,0,1,,,,,,,,,0,,,84,63
417360,note_off,240,0,1,,,,,,,,,0,,,84,0
417360,note_on,0,0,1,,,,,,,,,0,,,82,63
417600,note_on,0,0,1,,,,,,,,,0,,,81,63
417600,note_off,240,0,1,,,,,,,,,0,,,82,0
417840,note_on,0,0,1,,,,,,,,,0,,,82,63
417840,note_off,240,0,1,,,,,,,,,0,,,81,0
418080,note_on,0,0,1,,,,,,,,,0,,,91,63
418080,note_off,240,0,1,,,,,,,,,0,,,82,0
418320,note_on,0,0,1,,,,,,,,,0,,,87,63
418320,note_off,240,0,1,,,,,,,,,0,,,91,0
418560,note_on,0,0,3,,,,,,,,,2,,,77,58
418560,note_on,0,0,1,,,,,,,,,0,,,86,66
418560,note_on,0,0,3,,,,,,,,,2,,,70,58
418560,note_off,0,0,3,,,,,,,,,2,,,79,0
418560,note_off,1920,0,3,,,,,,,,,2,,,75,0
418560,note_off,240,0,1,,,,,,,,,0,,,87,0
418800,note_on,0,0,1,,,,,,,,,0,,,87,67
418800,note_off,240,0,1,,,,,,,,,0,,,86,0
419040,note_on,0,0,1,,,,,,,,,0,,,89,69
419040,note_off,240,0,1,,,,,,,,,0,,,87,0
419280,note_off,240,0,1,,,,,,,,,0,,,89,0
419280,note_on,0,0,1,,,,,,,,,0,,,91,71
419319,note_off,0,0,3,,,,,,,,,2,,,70,0
419319,note_off,759,0,3,,,,,,,,,2,,,77,0
419520,note_on,0,0,3,,,,,,,,,2,,,70,71
419520,note_on,0,0,3,,,,,,,,,2,,,77,71
419520,note_on,201,0,3,,,,,,,,,2,,,68,71
419520,note_off,240,0,1,,,,,,,,,0,,,91,0
419520,note_on,0,0,1,,,,,,,,,0,,,92,74
419760,note_off,240,0,1,,,,,,,,,0,,,92,0
419760,note_on,0,0,1,,,,,,,,,0,,,93,72
420000,note_on,0,0,1,,,,,,,,,0,,,96,69
420000,note_off,240,0,1,,,,,,,,,0,,,93,0
420240,note_on,0,0,1,,,,,,,,,0,,,94,67
420240,note_off,240,0,1,,,,,,,,,0,,,96,0
420420,set_tempo,3780,1,0,,,,,,251046,,,,,,,
420480,note_off,0,0,3,,,,,,,,,2,,,77,0
420480,note_on,0,0,3,,,,,,,,,2,,,70,64
420480,note_on,0,0,1,,,,,,,,,0,,,94,64
420480,note_off,240,0,1,,,,,,,,,0,,,94,0
420480,note_off,960,0,3,,,,,,,,,2,,,70,0
420480,note_on,0,0,3,,,,,,,,,2,,,67,64
420480,note_off,0,0,3,,,,,,,,,2,,,68,0
420510,set_tempo,90,1,0,,,,,,248962,,,,,,,
420720,note_off,240,0,1,,,,,,,,,0,,,94,0
420720,note_on,0,0,1,,,,,,,,,0,,,70,62
420900,note_off,420,0,3,,,,,,,,,2,,,67,0
420907,note_off,7,0,3,,,,,,,,,2,,,70,0
420960,note_on,53,0,3,,,,,,,,,2,,,63,68
420960,note_on,0,0,3,,,,,,,,,2,,,67,68
420960,note_off,240,0,1,,,,,,,,,0,,,70,0
420960,note_on,0,0,1,,,,,,,,,0,,,72,64
421200,note_on,0,0,1,,,,,,,,,0,,,70,64
421200,note_off,240,0,1,,,,,,,,,0,,,72,0
421440,note_off,240,0,1,,,,,,,,,0,,,70,0
421440,note_on,0,0,1,,,,,,,,,0,,,69,65
421675,note_off,715,0,3,,,,,,,,,2,,,67,0
421680,note_off,240,0,1,,,,,,,,,0,,,69,0
421680,note_on,0,0,1,,,,,,,,,0,,,70,66
421682,note_off,7,0,3,,,,,,,,,2,,,63,0
421920,note_off,240,0,1,,,,,,,,,0,,,70,0
421920,note_on,0,0,1,,,,,,,,,0,,,79,67
421920,note_on,238,0,3,,,,,,,,,2,,,67,74
421920,note_on,0,0,3,,,,,,,,,2,,,63,74
422160,note_on,0,0,1,,,,,,,,,0,,,75,68
422160,note_off,240,0,1,,,,,,,,,0,,,79,0
422400,note_on,0,0,1,,,,,,,,,0,,,74,70
422400,note_off,0,0,3,,,,,,,,,2,,,67,0
422400,note_off,480,0,3,,,,,,,,,2,,,63,0
422400,note_on,0,0,3,,,,,,,,,2,,,58,73
422400,note_off,240,0,1,,,,,,,,,0,,,75,0
422400,note_on,0,0,3,,,,,,,,,2,,,65,73
422640,note_off,240,0,1,,,,,,,,,0,,,74,0
422640,note_on,0,0,1,,,,,,,,,0,,,75,72
422880,note_on,0,0,1,,,,,,,,,0,,,77,74
422880,note_off,240,0,1,,,,,,,,,0,,,75,0
423120,note_off,240,0,1,,,,,,,,,0,,,77,0
423120,note_on,0,0,1,,,,,,,,,0,,,79,77
423307,note_off,907,0,3,,,,,,,,,2,,,65,0
423307,note_off,0,0,3,,,,,,,,,2,,,58,0
423360,note_off,240,0,1,,,,,,,,,0,,,79,0
423360,note_on,0,0,1,,,,,,,,,0,,,80,79
423360,note_on,0,0,3,,,,,,,,,2,,,58,76
423360,note_on,53,0,3,,,,,,,,,2,,,65,76
423360,note_on,0,0,3,,,,,,,,,2,,,56,76
423600,note_off,240,0,1,,,,,,,,,0,,,80,0
423600,note_on,0,0,1,,,,,,,,,0,,,81,78
423840,note_off,240,0,1,,,,,,,,,0,,,81,0
423840,note_on,0,0,1,,,,,,,,,0,,,84,76
424080,note_off,240,0,1,,,,,,,,,0,,,84,0
424080,note_on,0,0,1,,,,,,,,,0,,,82,75
424260,set_tempo,3750,1,0,,,,,,251046,,,,,,,
424320,note_off,0,0,3,,,,,,,,,2,,,56,0
424320,note_off,0,0,3,,,,,,,,,2,,,65,0
424320,note_on,0,0,3,,,,,,,,,2,,,55,75
424320,note_on,0,0,3,,,,,,,,,2,,,58,75
424320,note_off,240,0,1,,,,,,,,,0,,,82,0
424320,note_on,0,0,1,,,,,,,,,0,,,82,75
424320,note_off,960,0,3,,,,,,,,,2,,,58,0
424560,note_off,240,0,1,,,,,,,,,0,,,82,0
424560,note_on,0,0,1,,,,,,,,,0,,,58,75
424747,note_off,427,0,3,,,,,,,,,2,,,58,0
424747,note_off,0,0,3,,,,,,,,,2,,,55,0
424800,note_off,240,0,1,,,,,,,,,0,,,58,0
424800,note_on,0,0,3,,,,,,,,,2,,,55,69
424800,note_on,53,0,3,,,,,,,,,2,,,51,69
424800,note_on,0,0,1,,,,,,,,,0,,,60,76
425040,note_off,240,0,1,,,,,,,,,0,,,60,0
425040,note_on,0,0,1,,,,,,,,,0,,,58,77
425280,note_on,0,0,1,,,,,,,,,0,,,57,78
425280,note_off,240,0,1,,,,,,,,,0,,,58,0
425520,note_off,240,0,1,,,,,,,,,0,,,57,0
425520,note_on,0,0,1,,,,,,,,,0,,,58,79
425700,note_off,0,0,3,,,,,,,,,2,,,51,0
425700,note_off,900,0,3,,,,,,,,,2,,,55,0
425760,note_on,0,0,1,,,,,,,,,0,,,67,79
425760,note_on,60,0,3,,,,,,,,,2,,,55,81
425760,note_off,240,0,1,,,,,,,,,0,,,58,0
425760,note_on,0,0,3,,,,,,,,,2,,,51,81
426000,note_off,240,0,1,,,,,,,,,0,,,67,0
426000,note_on,0,0,1,,,,,,,,,0,,,63,80
426180,set_tempo,1920,1,0,,,,,,253164,,,,,,,
426240,note_on,0,0,3,,,,,,,,,2,,,46,74
426240,note_on,0,0,3,,,,,,,,,2,,,56,74
426240,note_on,0,0,3,,,,,,,,,2,,,53,74
426240,note_off,0,0,3,,,,,,,,,2,,,55,0
426240,note_off,480,0,3,,,,,,,,,2,,,51,0
426240,note_off,240,0,1,,,,,,,,,0,,,63,0
426240,note_on,0,0,1,,,,,,,,,0,,,57,81
426480,note_on,0,0,1,,,,,,,,,0,,,58,80
426480,note_off,240,0,1,,,,,,,,,0,,,57,0
426720,note_off,240,0,1,,,,,,,,,0,,,58,0
426720,note_on,0,0,1,,,,,,,,,0,,,68,78
426960,note_on,0,0,1,,,,,,,,,0,,,65,76
426960,note_off,240,0,1,,,,,,,,,0,,,68,0
427052,note_off,0,0,3,,,,,,,,,2,,,53,0
427052,note_off,0,0,3,,,,,,,,,2,,,56,0
427052,note_off,812,0,3,,,,,,,,,2,,,46,0
427140,set_tempo,960,1,0,,,,,,260869,,,,,,,
427200,note_off,240,0,1,,,,,,,,,0,,,65,0
427200,note_on,0,0,3,,,,,,,,,2,,,46,79
427200,note_on,0,0,3,,,,,,,,,2,,,56,79
427200,note_on,148,0,3,,,,,,,,,2,,,53,79
427200,note_on,0,0,1,,,,,,,,,0,,,62,75
427440,note_off,240,0,1,,,,,,,,,0,,,62,0
427440,note_on,0,0,1,,,,,,,,,0,,,72,73
427570,set_tempo,430,1,0,,,,,,269058,,,,,,,
427680,note_off,240,0,1,,,,,,,,,0,,,72,0
427680,note_on,0,0,1,,,,,,,,,0,,,70,72
427920,set_tempo,350,1,0,,,,,,461538,,,,,,,
427920,note_off,240,0,1,,,,,,,,,0,,,70,0
427920,note_on,0,0,1,,,,,,,,,0,,,62,67
428160,set_tempo,240,1,0,,,,,,266666,,,,,,,
428160,note_off,960,0,3,,,,,,,,,2,,,46,0
428160,note_off,240,0,1,,,,,,,,,0,,,62,0
428160,note_off,0,0,3,,,,,,,,,2,,,53,0
428160,note_off,0,0,3,,,,,,,,,2,,,56,0
428160,note_on,0,0,1,,,,,,,,,0,,,63,62
430080,note_on,0,0,1,,,,,,,,,0,,,58,56
430080,note_off,1920,0,1,,,,,,,,,0,,,63,0
431960,set_tempo,3800,1,0,,,,,,269058,,,,,,,
432000,set_tempo,40,1,0,,,,,,266666,,,,,,,
432000,note_on,0,0,1,,,,,,,,,0,,,55,53
432000,note_off,1920,0,1,,,,,,,,,0,,,58,0
432000,note_on,3840,0,3,,,,,,,,,2,,,51,46
433440,note_off,1440,0,1,,,,,,,,,0,,,55,0
433920,note_off,1920,0,3,,,,,,,,,2,,,51,0
433920,note_on,0,0,3,,,,,,,,,2,,,46,45
435800,set_tempo,3800,1,0,,,,,,269058,,,,,,,
435840,note_on,26880,0,2,,,,,,,,,1,,,63,53
435840,note_on,0,0,3,,,,,,,,,2,,,43,41
435840,set_tempo,40,1,0,,,,,,266666,,,,,,,
435840,note_off,1920,0,3,,,,,,,,,2,,,46,0
435840,note_on,2400,0,1,,,,,,,,,0,,,67,53
436800,note_off,960,0,3,,,,,,,,,2,,,43,0
437760,note_off,1920,0,2,,,,,,,,,1,,,63,0
437760,note_on,0,0,2,,,,,,,,,1,,,58,51
437760,note_on,0,0,1,,,,,,,,,0,,,65,51
437760,note_off,1920,0,1,,,,,,,,,0,,,67,0
439620,set_tempo,3780,1,0,,,,,,269058,,,,,,,
439680,set_tempo,60,1,0,,,,,,266666,,,,,,,
439680,note_on,2880,0,3,,,,,,,,,2,,,51,42
439680,note_on,0,0,3,,,,,,,,,2,,,55,42
439680,note_on,0,0,2,,,,,,,,,1,,,55,50
439680,note_off,1920,0,2,,,,,,,,,1,,,58,0
439680,note_on,0,0,1,,,,,,,,,0,,,63,48
439680,note_off,1920,0,1,,,,,,,,,0,,,65,0
441120,note_off,1440,0,1,,,,,,,,,0,,,63,0
441120,note_off,1440,0,2,,,,,,,,,1,,,55,0
441600,note_on,0,0,3,,,,,,,,,2,,,53,41
441600,note_off,0,0,3,,,,,,,,,2,,,51,0
441600,note_off,1920,0,3,,,,,,,,,2,,,55,0
441600,note_on,0,0,3,,,,,,,,,2,,,46,41
443040,note_on,1920,0,2,,,,,,,,,1,,,63,48
443040,note_on,1920,0,1,,,,,,,,,0,,,67,48
443460,set_tempo,3780,1,0,,,,,,269058,,,,,,,
443520,note_off,480,0,1,,,,,,,,,0,,,67,0
443520,note_on,0,0,1,,,,,,,,,0,,,65,48
443520,note_on,0,0,3,,,,,,,,,2,,,51,38
443520,note_on,0,0,3,,,,,,,,,2,,,43,38
443520,note_off,0,0,3,,,,,,,,,2,,,53,0
443520,note_off,1920,0,3,,,,,,,,,2,,,46,0
443520,note_off,480,0,2,,,,,,,,,1,,,63,0
443520,note_on,0,0,2,,,,,,,,,1,,,58,48
444480,note_off,0,0,3,,,,,,,,,2,,,43,0
444480,note_off,960,0,3,,,,,,,,,2,,,51,0
444960,note_on,480,0,3,,,,,,,,,2,,,55,40
444960,note_on,0,0,3,,,,,,,,,2,,,51,40
445440,note_on,0,0,2,,,,,,,,,1,,,55,46
445440,note_on,0,0,1,,,,,,,,,0,,,63,46
445440,note_on,0,0,3,,,,,,,,,2,,,46,40
445440,note_off,0,0,3,,,,,,,,,2,,,55,0
445440,note_off,480,0,3,,,,,,,,,2,,,51,0
445440,note_off,1920,0,2,,,,,,,,,1,,,58,0
445440,note_off,1920,0,1,,,,,,,,,0,,,65,0
445440,note_on,0,0,3,,,,,,,,,2,,,53,40
445920,note_off,480,0,1,,,,,,,,,0,,,63,0
445920,note_off,480,0,2,,,,,,,,,1,,,55,0
446880,note_on,960,0,1,,,,,,,,,0,,,79,46
446880,note_on,960,0,2,,,,,,,,,1,,,75,46
447360,note_off,480,0,1,,,,,,,,,0,,,79,0
447360,note_off,480,0,2,,,,,,,,,1,,,75,0
447360,note_on,0,0,2,,,,,,,,,1,,,70,45
447360,note_off,1920,0,3,,,,,,,,,2,,,46,0
447360,note_off,0,0,3,,,,,,,,,2,,,53,0
447360,note_on,0,0,3,,,,,,,,,2,,,51,39
447360,note_on,0,0,3,,,,,,,,,2,,,43,39
447360,note_on,0,0,1,,,,,,,,,0,,,77,45
447840,note_off,480,0,3,,,,,,,,,2,,,43,0
447840,note_off,0,0,3,,,,,,,,,2,,,51,0
448800,note_on,960,0,3,,,,,,,,,2,,,63,38
448800,note_on,0,0,3,,,,,,,,,2,,,67,38
449280,note_off,480,0,3,,,,,,,,,2,,,67,0
449280,note_off,0,0,3,,,,,,,,,2,,,63,0
449280,note_on,0,0,3,,,,,,,,,2,,,65,38
449280,note_on,0,0,3,,,,,,,,,2,,,58,38
449280,note_off,1920,0,1,,,,,,,,,0,,,77,0
449280,note_on,0,0,1,,,,,,,,,0,,,75,44
449280,note_off,1920,0,2,,,,,,,,,1,,,70,0
449280,note_on,0,0,2,,,,,,,,,1,,,67,44
449760,note_off,480,0,2,,,,,,,,,1,,,67,0
449760,note_off,480,0,1,,,,,,,,,0,,,75,0
450720,note_on,960,0,2,,,,,,,,,1,,,91,43
450720,note_on,960,0,1,,,,,,,,,0,,,91,43
450720,note_on,0,0,2,,,,,,,,,1,,,87,43
451080,set_tempo,7620,1,0,,,,,,271493,,,,,,,
451200,note_off,480,0,2,,,,,,,,,1,,,87,0
451200,note_on,0,0,3,,,,,,,,,2,,,55,37
451200,note_off,0,0,3,,,,,,,,,2,,,65,0
451200,note_off,1920,0,3,,,,,,,,,2,,,58,0
451200,note_off,480,0,1,,,,,,,,,0,,,91,0
451200,note_off,0,0,2,,,,,,,,,1,,,91,0
451200,note_on,0,0,3,,,,,,,,,2,,,63,37
451680,note_off,0,0,3,,,,,,,,,2,,,55,0
451680,note_off,480,0,3,,,,,,,,,2,,,63,0
451680,note_on,480,0,2,,,,,,,,,1,,,87,42
451680,note_on,480,0,1,,,,,,,,,0,,,91,42
452160,note_off,480,0,1,,,,,,,,,0,,,91,0
452160,note_on,0,0,1,,,,,,,,,0,,,89,42
452160,note_off,480,0,2,,,,,,,,,1,,,87,0
452160,note_on,0,0,2,,,,,,,,,1,,,82,42
452640,note_on,0,0,1,,,,,,,,,0,,,87,42
452640,note_off,480,0,1,,,,,,,,,0,,,89,0
452640,note_on,0,0,2,,,,,,,,,1,,,79,42
452640,note_off,480,0,2,,,,,,,,,1,,,82,0
453120,note_off,480,0,1,,,,,,,,,0,,,87,0
453120,note_on,0,0,1,,,,,,,,,0,,,87,42
453120,note_on,0,0,2,,,,,,,,,1,,,79,42
453120,note_off,480,0,2,,,,,,,,,1,,,79,0
453600,note_on,0,0,3,,,,,,,,,2,,,58,36
453600,note_on,1920,0,3,,,,,,,,,2,,,55,36
453600,note_off,480,0,1,,,,,,,,,0,,,87,0
453600,note_off,480,0,2,,,,,,,,,1,,,79,0
454080,note_off,480,0,3,,,,,,,,,2,,,58,0
454080,note_off,0,0,3,,,,,,,,,2,,,55,0
454080,note_on,0,0,3,,,,,,,,,2,,,50,36
454080,note_on,0,0,3,,,,,,,,,2,,,56,36
454560,note_off,480,0,3,,,,,,,,,2,,,56,0
454560,note_off,0,0,3,,,,,,,,,2,,,50,0
454560,note_on,0,0,3,,,,,,,,,2,,,55,36
454560,note_on,0,0,3,,,,,,,,,2,,,46,36
455040,note_on,0,0,3,,,,,,,,,2,,,46,36
455040,note_off,480,0,3,,,,,,,,,2,,,46,0
455040,note_off,0,0,3,,,,,,,,,2,,,55,0
455040,note_on,0,0,3,,,,,,,,,2,,,55,36
455520,note_on,1920,0,1,,,,,,,,,0,,,67,40
455520,note_off,480,0,3,,,,,,,,,2,,,46,0
455520,note_off,0,0,3,,,,,,,,,2,,,55,0
455520,note_on,1920,0,2,,,,,,,,,1,,,63,40
456000,note_on,0,0,1,,,,,,,,,0,,,65,40
456000,note_on,0,0,2,,,,,,,,,1,,,58,40
456000,note_off,480,0,2,,,,,,,,,1,,,63,0
456000,note_off,480,0,1,,,,,,,,,0,,,67,0
456480,note_off,480,0,1,,,,,,,,,0,,,65,0
456480,note_on,0,0,1,,,,,,,,,0,,,63,39
456480,note_off,480,0,2,,,,,,,,,1,,,58,0
456480,note_on,0,0,2,,,,,,,,,1,,,55,39
456960,note_off,480,0,1,,,,,,,,,0,,,63,0
456960,note_on,0,0,1,,,,,,,,,0,,,63,39
456960,note_on,0,0,2,,,,,,,,,1,,,55,39
456960,note_off,480,0,2,,,,,,,,,1,,,55,0
457440,note_on,0,0,3,,,,,,,,,2,,,51,34
457440,note_on,1920,0,3,,,,,,,,,2,,,55,34
457440,note_off,480,0,1,,,,,,,,,0,,,63,0
457440,note_off,480,0,2,,,,,,,,,1,,,55,0
457920,note_on,0,0,3,,,,,,,,,2,,,46,34
457920,note_on,0,0,3,,,,,,,,,2,,,53,34
457920,note_off,0,0,3,,,,,,,,,2,,,55,0
457920,note_off,480,0,3,,,,,,,,,2,,,51,0
458400,note_on,0,0,3,,,,,,,,,2,,,51,34
458400,note_off,480,0,3,,,,,,,,,2,,,46,0
458400,note_off,0,0,3,,,,,,,,,2,,,53,0
458400,set_tempo,7320,1,0,,,,,,276497,,,,,,,
458400,note_on,0,0,3,,,,,,,,,2,,,43,34
458880,note_on,1440,0,2,,,,,,,,,1,,,53,38
458880,note_off,0,0,3,,,,,,,,,2,,,51,0
458880,note_on,1440,0,1,,,,,,,,,0,,,58,38
458880,set_tempo,480,1,0,,,,,,273972,,,,,,,
458880,note_off,480,0,3,,,,,,,,,2,,,43,0
459360,note_on,480,0,3,,,,,,,,,2,,,50,35
459360,note_on,0,0,3,,,,,,,,,2,,,46,35
459720,note_off,0,0,3,,,,,,,,,2,,,50,0
459720,note_off,360,0,3,,,,,,,,,2,,,46,0
459840,note_on,120,0,3,,,,,,,,,2,,,39,36
460200,note_off,360,0,3,,,,,,,,,2,,,39,0
460320,note_off,1440,0,2,,,,,,,,,1,,,53,0
460320,note_off,1440,0,1,,,,,,,,,0,,,58,0
460320,note_on,0,0,1,,,,,,,,,0,,,55,41
460320,note_on,0,0,2,,,,,,,,,1,,,51,41
460680,note_off,360,0,1,,,,,,,,,0,,,55,0
460680,note_off,360,0,2,,,,,,,,,1,,,51,0
460800,note_on,120,0,1,,,,,,,,,0,,,58,42
460800,note_on,120,0,2,,,,,,,,,1,,,53,42
461280,note_on,1080,0,3,,,,,,,,,2,,,50,40
461280,note_on,0,0,3,,,,,,,,,2,,,46,40
461640,note_off,0,0,3,,,,,,,,,2,,,50,0
461640,note_off,360,0,3,,,,,,,,,2,,,46,0
461760,note_on,120,0,3,,,,,,,,,2,,,39,41
462120,note_off,360,0,3,,,,,,,,,2,,,39,0
462240,note_off,1440,0,2,,,,,,,,,1,,,53,0
462240,note_on,0,0,2,,,,,,,,,1,,,51,44
462240,note_off,1440,0,1,,,,,,,,,0,,,58,0
462240,note_on,0,0,1,,,,,,,,,0,,,55,44
462600,note_off,360,0,2,,,,,,,,,1,,,51,0
462600,note_off,360,0,1,,,,,,,,,0,,,55,0
462720,note_on,120,0,2,,,,,,,,,1,,,53,45
462720,note_on,120,0,1,,,,,,,,,0,,,58,45
463200,note_on,0,0,3,,,,,,,,,2,,,50,45
463200,note_on,1080,0,3,,,,,,,,,2,,,46,45
463560,note_off,0,0,3,,,,,,,,,2,,,46,0
463560,note_off,360,0,3,,,,,,,,,2,,,50,0
463680,note_on,120,0,3,,,,,,,,,2,,,39,46
464040,note_off,360,0,3,,,,,,,,,2,,,39,0
464160,note_on,0,0,1,,,,,,,,,0,,,55,48
464160,note_off,1440,0,2,,,,,,,,,1,,,53,0
464160,note_on,0,0,2,,,,,,,,,1,,,51,48
464160,note_off,1440,0,1,,,,,,,,,0,,,58,0
464520,note_off,360,0,1,,,,,,,,,0,,,55,0
464520,note_off,360,0,2,,,,,,,,,1,,,51,0
464580,set_tempo,5700,1,0,,,,,,276497,,,,,,,
464640,note_on,120,0,2,,,,,,,,,1,,,50,49
464640,note_on,0,0,2,,,,,,,,,1,,,53,49
464640,note_on,120,0,1,,,,,,,,,0,,,58,49
465120,note_on,1080,0,3,,,,,,,,,2,,,46,61
465480,note_off,360,0,3,,,,,,,,,2,,,46,0
465600,note_on,120,0,3,,,,,,,,,2,,,39,70
465840,set_tempo,1260,1,0,,,,,,283018,,,,,,,
465960,note_off,360,0,3,,,,,,,,,2,,,39,0
466080,note_on,0,0,2,,,,,,,,,1,,,53,73
466080,note_off,0,0,2,,,,,,,,,1,,,50,0
466080,note_off,1440,0,2,,,,,,,,,1,,,53,0
466080,note_off,1440,0,1,,,,,,,,,0,,,58,0
466080,note_on,0,0,1,,,,,,,,,0,,,62,73
466080,set_tempo,240,1,0,,,,,,320855,,,,,,,
466080,note_on,120,0,3,,,,,,,,,2,,,46,81
466080,note_on,0,0,2,,,,,,,,,1,,,56,73
466440,note_off,360,0,3,,,,,,,,,2,,,46,0
466440,note_off,360,0,2,,,,,,,,,1,,,56,0
466440,note_off,360,0,1,,,,,,,,,0,,,62,0
466440,note_off,0,0,2,,,,,,,,,1,,,53,0
466560,set_tempo,480,1,0,,,,,,269058,,,,,,,
466560,note_on,120,0,2,,,,,,,,,1,,,55,70
466560,note_on,120,0,1,,,,,,,,,0,,,63,70
466560,note_on,120,0,3,,,,,,,,,2,,,39,68
467040,note_off,480,0,2,,,,,,,,,1,,,55,0
467040,note_off,480,0,1,,,,,,,,,0,,,63,0
468480,note_on,1440,0,2,,,,,,,,,1,,,39,55
468480,note_off,1920,0,3,,,,,,,,,2,,,39,0
468480,note_on,0,0,3,,,,,,,,,2,,,38,56
469920,set_tempo,3360,1,0,,,,,,271493,,,,,,,
470400,note_off,1920,0,3,,,,,,,,,2,,,38,0
470400,note_on,0,0,3,,,,,,,,,2,,,36,53
470400,note_off,1920,0,2,,,,,,,,,1,,,39,0
470400,set_tempo,480,1,0,,,,,,266666,,,,,,,
470400,note_on,0,0,2,,,,,,,,,1,,,39,54
470400,note_on,3360,0,1,,,,,,,,,0,,,63,44
470640,note_off,240,0,1,,,,,,,,,0,,,63,0
470640,note_on,0,0,1,,,,,,,,,0,,,65,45
470880,note_on,0,0,1,,,,,,,,,0,,,63,45
470880,note_off,240,0,1,,,,,,,,,0,,,65,0
471120,note_off,240,0,1,,,,,,,,,0,,,63,0
471120,note_on,0,0,1,,,,,,,,,0,,,62,46
471360,note_off,240,0,1,,,,,,,,,0,,,62,0
471360,note_on,0,0,1,,,,,,,,,0,,,63,46
471600,note_on,0,0,1,,,,,,,,,0,,,65,46
471600,note_off,240,0,1,,,,,,,,,0,,,63,0
471840,note_on,0,0,1,,,,,,,,,0,,,67,47
471840,note_off,240,0,1,,,,,,,,,0,,,65,0
472080,note_off,240,0,1,,,,,,,,,0,,,67,0
472080,note_on,0,0,1,,,,,,,,,0,,,68,47
472320,note_off,1920,0,2,,,,,,,,,1,,,39,0
472320,note_on,0,0,2,,,,,,,,,1,,,39,52
472320,note_off,240,0,1,,,,,,,,,0,,,68,0
472320,note_on,0,0,1,,,,,,,,,0,,,70,48
472320,note_off,1920,0,3,,,,,,,,,2,,,36,0
472320,note_on,0,0,3,,,,,,,,,2,,,34,50
472560,note_on,0,0,1,,,,,,,,,0,,,72,48
472560,note_off,240,0,1,,,,,,,,,0,,,70,0
472800,note_on,0,0,1,,,,,,,,,0,,,74,49
472800,note_off,240,0,1,,,,,,,,,0,,,72,0
473040,note_on,0,0,1,,,,,,,,,0,,,75,49
473040,note_off,240,0,1,,,,,,,,,0,,,74,0
473280,note_on,0,0,1,,,,,,,,,0,,,77,49
473280,note_off,240,0,1,,,,,,,,,0,,,75,0
473520,note_on,0,0,1,,,,,,,,,0,,,79,50
473520,note_off,240,0,1,,,,,,,,,0,,,77,0
473760,note_off,240,0,1,,,,,,,,,0,,,79,0
473760,note_on,0,0,1,,,,,,,,,0,,,80,50
474000,note_off,240,0,1,,,,,,,,,0,,,80,0
474000,note_on,0,0,1,,,,,,,,,0,,,82,51
474240,note_off,1920,0,2,,,,,,,,,1,,,39,0
474240,note_on,0,0,2,,,,,,,,,1,,,39,51
474240,note_off,1920,0,3,,,,,,,,,2,,,34,0
474240,note_off,240,0,1,,,,,,,,,0,,,82,0
474240,note_on,0,0,1,,,,,,,,,0,,,84,51
474240,note_on,0,0,3,,,,,,,,,2,,,32,48
474560,note_on,0,0,1,,,,,,,,,0,,,86,52
474560,note_off,320,0,1,,,,,,,,,0,,,84,0
474880,note_off,320,0,1,,,,,,,,,0,,,86,0
474880,note_on,0,0,1,,,,,,,,,0,,,87,52
475200,note_off,320,0,1,,,,,,,,,0,,,87,0
475200,note_on,0,0,1,,,,,,,,,0,,,89,53
475440,note_off,240,0,1,,,,,,,,,0,,,89,0
475440,note_on,0,0,1,,,,,,,,,0,,,91,53
475680,note_on,0,0,1,,,,,,,,,0,,,92,54
475680,note_off,240,0,1,,,,,,,,,0,,,91,0
475920,note_on,0,0,1,,,,,,,,,0,,,94,54
475920,note_off,240,0,1,,,,,,,,,0,,,92,0
476120,set_tempo,5720,1,0,,,,,,269058,,,,,,,
476160,note_on,0,0,3,,,,,,,,,2,,,31,45
476160,note_on,0,0,2,,,,,,,,,1,,,39,50
476160,note_on,0,0,1,,,,,,,,,0,,,96,55
476160,note_off,240,0,1,,,,,,,,,0,,,94,0
476160,note_off,1920,0,3,,,,,,,,,2,,,32,0
476160,note_off,1920,0,2,,,,,,,,,1,,,39,0
477120,note_on,0,0,1,,,,,,,,,0,,,94,49
477120,note_off,960,0,1,,,,,,,,,0,,,96,0
477600,note_off,480,0,1,,,,,,,,,0,,,94,0
477600,set_tempo,1480,1,0,,,,,,273972,,,,,,,
478080,note_off,1920,0,2,,,,,,,,,1,,,39,0
478080,note_on,0,0,2,,,,,,,,,1,,,39,48
478080,note_on,480,0,1,,,,,,,,,0,,,87,38
478080,set_tempo,480,1,0,,,,,,271493,,,,,,,
478080,note_on,0,0,3,,,,,,,,,2,,,32,42
478080,note_off,1920,0,3,,,,,,,,,2,,,31,0
478320,note_off,240,0,1,,,,,,,,,0,,,87,0
478320,note_on,0,0,1,,,,,,,,,0,,,89,39
478560,note_off,240,0,1,,,,,,,,,0,,,89,0
478560,note_on,0,0,1,,,,,,,,,0,,,87,40
478800,note_off,240,0,1,,,,,,,,,0,,,87,0
478800,note_on,0,0,1,,,,,,,,,0,,,86,41
479040,note_on,0,0,1,,,,,,,,,0,,,87,42
479040,note_off,240,0,1,,,,,,,,,0,,,86,0
479280,note_on,0,0,1,,,,,,,,,0,,,89,43
479280,note_off,240,0,1,,,,,,,,,0,,,87,0
479520,note_on,0,0,1,,,,,,,,,0,,,91,44
479520,note_off,240,0,1,,,,,,,,,0,,,89,0
479680,note_on,0,0,1,,,,,,,,,0,,,92,45
479680,note_off,160,0,1,,,,,,,,,0,,,91,0
479840,note_off,160,0,1,,,,,,,,,0,,,92,0
479840,note_on,0,0,1,,,,,,,,,0,,,94,45
479960,set_tempo,1880,1,0,,,,,,276497,,,,,,,
480000,note_on,0,0,3,,,,,,,,,2,,,31,39
480000,note_on,0,0,2,,,,,,,,,1,,,39,47
480000,note_off,1920,0,2,,,,,,,,,1,,,39,0
480000,note_off,1920,0,3,,,,,,,,,2,,,32,0
480000,note_off,160,0,1,,,,,,,,,0,,,94,0
480000,note_on,0,0,1,,,,,,,,,0,,,96,46
480960,note_on,0,0,1,,,,,,,,,0,,,94,40
480960,note_off,960,0,1,,,,,,,,,0,,,96,0
481440,set_tempo,1480,1,0,,,,,,277777,,,,,,,
481440,note_off,480,0,1,,,,,,,,,0,,,94,0
481920,note_off,1920,0,3,,,,,,,,,2,,,31,0
481920,note_on,480,0,1,,,,,,,,,0,,,87,31
481920,note_on,0,0,3,,,,,,,,,2,,,32,37
481920,set_tempo,480,1,0,,,,,,280373,,,,,,,
481920,note_off,1920,0,2,,,,,,,,,1,,,39,0
481920,note_on,0,0,2,,,,,,,,,1,,,39,45
482160,note_off,240,0,1,,,,,,,,,0,,,87,0
482160,note_on,0,0,1,,,,,,,,,0,,,89,32
482400,note_off,240,0,1,,,,,,,,,0,,,89,0
482400,note_on,0,0,1,,,,,,,,,0,,,87,33
482640,note_off,240,0,1,,,,,,,,,0,,,87,0
482640,note_on,0,0,1,,,,,,,,,0,,,86,34
482880,note_off,240,0,1,,,,,,,,,0,,,86,0
482880,note_on,0,0,1,,,,,,,,,0,,,87,35
483120,note_on,0,0,1,,,,,,,,,0,,,89,36
483120,note_off,240,0,1,,,,,,,,,0,,,87,0
483360,note_on,0,0,1,,,,,,,,,0,,,91,37
483360,note_off,240,0,1,,,,,,,,,0,,,89,0
483520,note_on,0,0,1,,,,,,,,,0,,,92,38
483520,note_off,160,0,1,,,,,,,,,0,,,91,0
483680,note_off,160,0,1,,,,,,,,,0,,,92,0
483680,note_on,0,0,1,,,,,,,,,0,,,94,39
483800,set_tempo,1880,1,0,,,,,,283018,,,,,,,
483840,note_on,0,0,1,,,,,,,,,0,,,84,39
483840,note_on,0,0,1,,,,,,,,,0,,,96,39
483840,note_off,160,0,1,,,,,,,,,0,,,94,0
483840,note_off,1920,0,2,,,,,,,,,1,,,39,0
483840,note_on,0,0,2,,,,,,,,,1,,,39,44
483840,note_on,0,0,3,,,,,,,,,2,,,31,34
483840,note_off,1920,0,3,,,,,,,,,2,,,32,0
484800,note_off,960,0,3,,,,,,,,,2,,,31,0
484800,note_off,960,0,2,,,,,,,,,1,,,39,0
485760,note_on,0,0,1,,,,,,,,,0,,,82,38
485760,note_on,0,0,1,,,,,,,,,0,,,94,38
485760,note_off,0,0,1,,,,,,,,,0,,,96,0
485760,note_off,1920,0,1,,,,,,,,,0,,,84,0
485760,set_tempo,1960,1,0,,,,,,301507,,,,,,,
486240,note_off,480,0,1,,,,,,,,,0,,,82,0
486240,note_off,0,0,1,,,,,,,,,0,,,94,0
487680,set_tempo,1920,1,0,,,,,,309278,,,,,,,
487680,note_on,2880,0,3,,,,,,,,,2,,,34,90
487680,note_on,0,0,3,,,,,,,,,2,,,41,90
487680,note_on,0,0,3,,,,,,,,,2,,,38,90
487680,note_on,0,0,3,,,,,,,,,2,,,46,90
487680,note_on,0,0,2,,,,,,,,,1,,,56,90
487680,note_on,0,0,2,,,,,,,,,1,,,58,90
487680,note_on,2880,0,2,,,,,,,,,1,,,53,90
487680,note_on,1440,0,1,,,,,,,,,0,,,62,90
488040,note_off,360,0,1,,,,,,,,,0,,,62,0
488040,note_off,0,0,2,,,,,,,,,1,,,58,0
488040,note_off,0,0,2,,,,,,,,,1,,,53,0
488040,note_off,360,0,2,,,,,,,,,1,,,56,0
488160,note_off,480,0,3,,,,,,,,,2,,,46,0
488160,note_off,0,0,3,,,,,,,,,2,,,34,0
488160,note_off,0,0,3,,,,,,,,,2,,,38,0
488160,note_off,0,0,3,,,,,,,,,2,,,41,0
489600,note_on,0,0,3,,,,,,,,,2,,,39,90
489600,note_on,0,0,3,,,,,,,,,2,,,51,90
489600,note_on,0,0,3,,,,,,,,,2,,,46,90
489600,note_on,1440,0,3,,,,,,,,,2,,,43,90
489600,note_on,0,0,2,,,,,,,,,1,,,58,90
489600,note_on,1560,0,2,,,,,,,,,1,,,55,90
489600,set_tempo,1920,1,0,,,,,,379746,,,,,,,
489600,note_on,1560,0,1,,,,,,,,,0,,,63,90
489960,note_off,360,0,1,,,,,,,,,0,,,63,0
489960,note_off,0,0,2,,,,,,,,,1,,,55,0
489960,note_off,360,0,2,,,,,,,,,1,,,58,0
490080,note_off,480,0,3,,,,,,,,,2,,,39,0
490080,note_off,0,0,3,,,,,,,,,2,,,46,0
490080,note_off,0,0,3,,,,,,,,,2,,,43,0
490080,note_off,0,0,3,,,,,,,,,2,,,51,0
491520,set_tempo,1920,1,0,,,,,,1176470,,,,,,,
493440,control_change,0,0,3,,,,,,,7,107,2,,,,
493440,set_tempo,1920,1,0,,,,,,1333333,,,,,,,
493440,marker,0,1,0,,,,,,,,,,,,,
493440,note_on,0,0,3,,,,,,,,,2,,,63,57
493440,control_change,3360,0,3,,,,,,,64,0,2,,,,
493440,control_change,3480,0,1,,,,,,,7,117,0,,,,
493440,control_change,3480,0,2,,,,,,,7,107,1,,,,
493440,note_on,0,0,3,,,,,,,,,2,,,48,57
493440,note_on,0,0,1,,,,,,,,,0,,,67,65
493500,control_change,60,0,3,,,,,,,64,127,2,,,,
493800,note_off,360,0,1,,,,,,,,,0,,,67,0
493800,note_on,0,0,1,,,,,,,,,0,,,66,59
493920,note_on,420,0,3,,,,,,,,,2,,,54,53
493920,note_on,0,0,1,,,,,,,,,0,,,69,57
493920,note_off,120,0,1,,,,,,,,,0,,,66,0
494400,note_off,480,0,3,,,,,,,,,2,,,54,0
494400,note_on,0,0,3,,,,,,,,,2,,,57,49
494880,note_off,480,0,3,,,,,,,,,2,,,57,0
494880,note_on,0,0,3,,,,,,,,,2,,,54,45
495300,set_tempo,1860,1,0,,,,,,1363636,,,,,,,
495360,set_tempo,60,1,0,,,,,,1333333,,,,,,,
495360,note_off,1440,0,1,,,,,,,,,0,,,69,0
495360,note_on,0,0,3,,,,,,,,,2,,,48,48
495360,note_on,0,0,3,,,,,,,,,2,,,63,48
495360,note_on,0,0,1,,,,,,,,,0,,,67,59
495360,note_off,0,0,3,,,,,,,,,2,,,63,0
495360,note_off,0,0,3,,,,,,,,,2,,,54,0
495360,control_change,480,0,3,,,,,,,64,0,2,,,,
495360,note_off,0,0,3,,,,,,,,,2,,,48,0
495420,control_change,60,0,3,,,,,,,64,127,2,,,,
495720,note_on,0,0,1,,,,,,,,,0,,,66,56
495720,note_off,360,0,1,,,,,,,,,0,,,67,0
495840,note_on,0,0,1,,,,,,,,,0,,,69,55
495840,note_off,120,0,1,,,,,,,,,0,,,66,0
495840,note_on,420,0,3,,,,,,,,,2,,,54,45
496320,note_on,0,0,3,,,,,,,,,2,,,57,41
496320,note_off,480,0,3,,,,,,,,,2,,,54,0
496800,note_on,0,0,3,,,,,,,,,2,,,54,37
496800,note_off,480,0,3,,,,,,,,,2,,,57,0
496800,note_off,960,0,1,,,,,,,,,0,,,69,0
496800,note_on,0,0,1,,,,,,,,,0,,,69,63
497160,note_off,360,0,1,,,,,,,,,0,,,69,0
497160,note_on,0,0,1,,,,,,,,,0,,,75,63
497220,set_tempo,1860,1,0,,,,,,1363636,,,,,,,
497280,set_tempo,60,1,0,,,,,,1333333,,,,,,,
497280,note_on,0,0,1,,,,,,,,,0,,,75,61
497280,note_off,120,0,1,,,,,,,,,0,,,75,0
497280,note_off,0,0,3,,,,,,,,,2,,,54,0
497280,note_off,0,0,3,,,,,,,,,2,,,48,0
497280,note_off,0,0,3,,,,,,,,,2,,,63,0
497280,control_change,480,0,3,,,,,,,64,0,2,,,,
497760,note_on,480,0,3,,,,,,,,,2,,,62,53
497760,note_on,0,0,3,,,,,,,,,2,,,47,53
497760,note_on,0,0,3,,,,,,,,,2,,,55,53
497760,note_on,0,0,1,,,,,,,,,0,,,74,63
497760,note_off,480,0,1,,,,,,,,,0,,,75,0
498120,note_off,360,0,1,,,,,,,,,0,,,74,0
498120,note_on,0,0,1,,,,,,,,,0,,,67,63
498180,set_tempo,900,1,0,,,,,,1363636,,,,,,,
498240,note_off,120,0,1,,,,,,,,,0,,,67,0
498240,note_on,0,0,1,,,,,,,,,0,,,67,61
498240,note_off,480,0,3,,,,,,,,,2,,,55,0
498240,note_off,0,0,3,,,,,,,,,2,,,47,0
498240,note_off,0,0,3,,,,,,,,,2,,,62,0
498240,set_tempo,60,1,0,,,,,,1333333,,,,,,,
498720,note_off,480,0,1,,,,,,,,,0,,,67,0
498720,note_on,0,0,1,,,,,,,,,0,,,66,63
498720,note_on,480,0,3,,,,,,,,,2,,,60,48
498720,note_on,0,0,3,,,,,,,,,2,,,50,48
498720,note_on,0,0,3,,,,,,,,,2,,,57,48
499080,note_on,0,0,1,,,,,,,,,0,,,69,63
499080,note_off,360,0,1,,,,,,,,,0,,,66,0
499140,set_tempo,900,1,0,,,,,,1363636,,,,,,,
499200,note_off,480,0,3,,,,,,,,,2,,,57,0
499200,note_on,0,0,1,,,,,,,,,0,,,69,62
499200,note_off,120,0,1,,,,,,,,,0,,,69,0
499200,note_off,0,0,3,,,,,,,,,2,,,50,0
499200,note_off,0,0,3,,,,,,,,,2,,,60,0
499440,note_on,0,0,1,,,,,,,,,0,,,71,60
499440,note_off,240,0,1,,,,,,,,,0,,,69,0
499680,note_on,480,0,3,,,,,,,,,2,,,43,40
499680,note_on,0,0,3,,,,,,,,,2,,,55,40
499680,note_on,0,0,3,,,,,,,,,2,,,59,40
499680,note_on,0,0,3,,,,,,,,,2,,,62,40
500040,note_off,360,0,3,,,,,,,,,2,,,62,0
500040,note_off,0,0,3,,,,,,,,,2,,,59,0
500040,note_off,0,0,3,,,,,,,,,2,,,55,0
500040,note_off,0,0,3,,,,,,,,,2,,,43,0
500160,note_on,0,0,3,,,,,,,,,2,,,43,38
500160,note_on,0,0,3,,,,,,,,,2,,,55,38
500160,note_on,120,0,3,,,,,,,,,2,,,59,38
500160,note_on,0,0,3,,,,,,,,,2,,,62,38
500400,set_tempo,1260,1,0,,,,,,1363636,,,,,,,
500460,note_on,1020,0,1,,,,,,,,,0,,,72,56
500467,note_off,7,0,1,,,,,,,,,0,,,71,0
500520,note_off,53,0,1,,,,,,,,,0,,,72,0
500520,note_off,0,0,3,,,,,,,,,2,,,59,0
500520,note_off,0,0,3,,,,,,,,,2,,,62,0
500520,note_off,0,0,3,,,,,,,,,2,,,43,0
500520,note_off,360,0,3,,,,,,,,,2,,,55,0
500520,note_on,0,0,1,,,,,,,,,0,,,71,58
500580,note_off,60,0,1,,,,,,,,,0,,,71,0
500580,note_on,0,0,1,,,,,,,,,0,,,69,60
500640,note_off,60,0,1,,,,,,,,,0,,,69,0
500640,note_on,0,0,1,,,,,,,,,0,,,71,64
500880,note_off,240,0,1,,,,,,,,,0,,,71,0
500880,note_on,0,0,1,,,,,,,,,0,,,72,66
501000,set_tempo,600,1,0,,,,,,1666666,,,,,,,
501120,note_on,0,0,3,,,,,,,,,2,,,53,59
501120,control_change,600,0,3,,,,,,,64,0,2,,,,
501120,note_on,0,0,3,,,,,,,,,2,,,68,59
501120,set_tempo,120,1,0,,,,,,1333333,,,,,,,
501120,note_off,240,0,1,,,,,,,,,0,,,72,0
501120,note_on,0,0,1,,,,,,,,,0,,,75,68
501180,control_change,60,0,3,,,,,,,64,127,2,,,,
501480,note_on,0,0,1,,,,,,,,,0,,,74,62
501480,note_off,360,0,1,,,,,,,,,0,,,75,0
501600,note_on,0,0,1,,,,,,,,,0,,,77,61
501600,note_off,120,0,1,,,,,,,,,0,,,74,0
501600,note_on,420,0,3,,,,,,,,,2,,,59,54
502080,note_on,0,0,3,,,,,,,,,2,,,62,50
502080,note_off,480,0,3,,,,,,,,,2,,,59,0
502560,note_off,480,0,3,,,,,,,,,2,,,62,0
502560,note_on,0,0,3,,,,,,,,,2,,,59,46
502905,note_off,1305,0,1,,,,,,,,,0,,,77,0
502920,note_off,360,0,3,,,,,,,,,2,,,53,0
502920,note_on,15,0,1,,,,,,,,,0,,,74,60
502927,note_off,7,0,3,,,,,,,,,2,,,59,0
502927,note_off,0,0,3,,,,,,,,,2,,,68,0
502980,note_on,0,0,1,,,,,,,,,0,,,77,62
502980,note_off,60,0,1,,,,,,,,,0,,,74,0
502980,set_tempo,1860,1,0,,,,,,1363636,,,,,,,
503040,note_on,0,0,3,,,,,,,,,2,,,53,55
503040,control_change,113,0,3,,,,,,,64,0,2,,,,
503040,note_on,0,0,1,,,,,,,,,0,,,75,64
503040,note_on,0,0,3,,,,,,,,,2,,,68,55
503040,set_tempo,60,1,0,,,,,,1333333,,,,,,,
503040,note_off,60,0,1,,,,,,,,,0,,,77,0
503100,control_change,60,0,3,,,,,,,64,127,2,,,,
503400,note_off,360,0,1,,,,,,,,,0,,,75,0
503400,note_on,0,0,1,,,,,,,,,0,,,74,58
503520,note_off,120,0,1,,,,,,,,,0,,,74,0
503520,note_on,0,0,1,,,,,,,,,0,,,77,57
503520,note_on,420,0,3,,,,,,,,,2,,,59,51
504000,note_on,0,0,3,,,,,,,,,2,,,62,46
504000,note_off,480,0,3,,,,,,,,,2,,,59,0
504480,note_on,0,0,3,,,,,,,,,2,,,59,42
504480,note_off,480,0,3,,,,,,,,,2,,,62,0
504480,note_off,960,0,1,,,,,,,,,0,,,77,0
504480,note_on,0,0,1,,,,,,,,,0,,,74,63
504840,note_off,360,0,1,,,,,,,,,0,,,74,0
504840,note_on,0,0,1,,,,,,,,,0,,,80,63
504900,set_tempo,1860,1,0,,,,,,1363636,,,,,,,
504960,control_change,480,0,3,,,,,,,64,0,2,,,,
504960,note_off,0,0,3,,,,,,,,,2,,,59,0
504960,note_off,0,0,3,,,,,,,,,2,,,68,0
504960,note_off,0,0,3,,,,,,,,,2,,,53,0
504960,set_tempo,60,1,0,,,,,,1333333,,,,,,,
504960,note_off,120,0,1,,,,,,,,,0,,,80,0
504960,note_on,0,0,1,,,,,,,,,0,,,80,62
505440,note_on,480,0,3,,,,,,,,,2,,,51,47
505440,note_on,0,0,3,,,,,,,,,2,,,60,47
505440,note_on,0,0,3,,,,,,,,,2,,,67,47
505440,note_on,0,0,1,,,,,,,,,0,,,79,64
505440,note_off,480,0,1,,,,,,,,,0,,,80,0
505800,note_on,0,0,1,,,,,,,,,0,,,72,61
505800,note_off,360,0,1,,,,,,,,,0,,,79,0
505860,set_tempo,900,1,0,,,,,,1363636,,,,,,,
505920,note_off,120,0,1,,,,,,,,,0,,,72,0
505920,note_on,0,0,1,,,,,,,,,0,,,72,58
505920,set_tempo,60,1,0,,,,,,1333333,,,,,,,
505920,note_off,480,0,3,,,,,,,,,2,,,67,0
505920,note_off,0,0,3,,,,,,,,,2,,,60,0
505920,note_off,0,0,3,,,,,,,,,2,,,51,0
506400,note_off,480,0,1,,,,,,,,,0,,,72,0
506400,note_on,0,0,1,,,,,,,,,0,,,71,60
506400,note_on,0,0,3,,,,,,,,,2,,,62,44
506400,note_on,0,0,3,,,,,,,,,2,,,65,44
506400,note_on,480,0,3,,,,,,,,,2,,,55,44
506760,note_off,360,0,1,,,,,,,,,0,,,71,0
506760,note_on,0,0,1,,,,,,,,,0,,,74,59
506820,set_tempo,900,1,0,,,,,,1363636,,,,,,,
506880,note_off,480,0,3,,,,,,,,,2,,,65,0
506880,note_off,0,0,3,,,,,,,,,2,,,62,0
506880,note_off,0,0,3,,,,,,,,,2,,,55,0
506880,note_on,0,0,1,,,,,,,,,0,,,74,58
506880,note_off,120,0,1,,,,,,,,,0,,,74,0
507120,note_on,0,0,1,,,,,,,,,0,,,75,56
507120,note_off,240,0,1,,,,,,,,,0,,,74,0
507360,note_on,0,0,3,,,,,,,,,2,,,60,43
507360,note_on,0,0,3,,,,,,,,,2,,,63,43
507360,note_on,480,0,3,,,,,,,,,2,,,48,43
507694,note_off,0,0,3,,,,,,,,,2,,,48,0
507694,note_off,0,0,3,,,,,,,,,2,,,60,0
507694,note_off,334,0,3,,,,,,,,,2,,,63,0
507840,note_on,0,0,3,,,,,,,,,2,,,48,44
507840,note_on,0,0,3,,,,,,,,,2,,,60,44
507840,note_on,146,0,3,,,,,,,,,2,,,63,44
508009,note_off,169,0,3,,,,,,,,,2,,,60,0
508009,note_off,0,0,3,,,,,,,,,2,,,48,0
508009,note_off,0,0,3,,,,,,,,,2,,,63,0
508020,set_tempo,1200,1,0,,,,,,1428571,,,,,,,
508057,note_off,937,0,1,,,,,,,,,0,,,75,0
508080,note_on,0,0,3,,,,,,,,,2,,,63,50
508080,set_tempo,60,1,0,,,,,,1333333,,,,,,,
508080,note_on,23,0,1,,,,,,,,,0,,,68,58
508080,note_on,71,0,3,,,,,,,,,2,,,60,50
508320,note_off,240,0,3,,,,,,,,,2,,,63,0
508320,note_off,0,0,3,,,,,,,,,2,,,60,0
508320,note_on,0,0,3,,,,,,,,,2,,,58,54
508320,note_on,0,0,3,,,,,,,,,2,,,61,54
508320,note_on,0,0,3,,,,,,,,,2,,,63,54
508320,note_off,240,0,1,,,,,,,,,0,,,68,0
508320,note_on,0,0,1,,,,,,,,,0,,,67,59
508560,note_off,240,0,1,,,,,,,,,0,,,67,0
508560,note_on,0,0,1,,,,,,,,,0,,,68,61
508560,note_on,0,0,3,,,,,,,,,2,,,56,57
508560,note_on,0,0,3,,,,,,,,,2,,,60,57
508560,note_on,0,0,3,,,,,,,,,2,,,63,57
508560,note_off,0,0,3,,,,,,,,,2,,,58,0
508560,note_off,0,0,3,,,,,,,,,2,,,61,0
508560,note_off,240,0,3,,,,,,,,,2,,,63,0
508740,set_tempo,660,1,0,,,,,,1363636,,,,,,,
508800,note_on,0,0,1,,,,,,,,,0,,,72,61
508800,note_off,240,0,1,,,,,,,,,0,,,68,0
508800,set_tempo,60,1,0,,,,,,1276595,,,,,,,
508800,note_off,240,0,3,,,,,,,,,2,,,56,0
508800,note_on,0,0,3,,,,,,,,,2,,,55,60
508800,note_on,0,0,3,,,,,,,,,2,,,58,60
508800,note_on,0,0,3,,,,,,,,,2,,,63,60
508800,note_off,0,0,3,,,,,,,,,2,,,63,0
508800,note_off,0,0,3,,,,,,,,,2,,,60,0
509040,note_on,0,0,1,,,,,,,,,0,,,70,59
509040,note_off,240,0,1,,,,,,,,,0,,,72,0
509100,note_on,0,0,1,,,,,,,,,0,,,72,60
509100,note_off,60,0,1,,,,,,,,,0,,,70,0
509160,note_on,0,0,1,,,,,,,,,0,,,70,62
509160,note_off,60,0,1,,,,,,,,,0,,,72,0
509220,note_on,0,0,1,,,,,,,,,0,,,69,63
509220,note_off,60,0,1,,,,,,,,,0,,,70,0
509280,note_on,0,0,1,,,,,,,,,0,,,70,64
509280,note_off,60,0,1,,,,,,,,,0,,,69,0
509280,note_on,0,0,3,,,,,,,,,2,,,64,60
509280,note_off,480,0,3,,,,,,,,,2,,,55,0
509280,note_off,0,0,3,,,,,,,,,2,,,58,0
509280,note_off,0,0,3,,,,,,,,,2,,,63,0
509280,note_on,0,0,3,,,,,,,,,2,,,58,60
509280,note_on,0,0,3,,,,,,,,,2,,,55,60
509640,note_off,360,0,1,,,,,,,,,0,,,70,0
509640,note_on,0,0,1,,,,,,,,,0,,,72,63
509700,set_tempo,900,1,0,,,,,,1333333,,,,,,,
509760,note_on,0,0,1,,,,,,,,,0,,,73,63
509760,set_tempo,60,1,0,,,,,,1276595,,,,,,,
509760,note_off,120,0,1,,,,,,,,,0,,,72,0
510000,note_on,0,0,3,,,,,,,,,2,,,53,59
510000,note_on,0,0,3,,,,,,,,,2,,,56,59
510000,note_off,0,0,3,,,,,,,,,2,,,58,0
510000,note_on,0,0,3,,,,,,,,,2,,,61,59
510000,note_off,0,0,3,,,,,,,,,2,,,64,0
510000,note_off,720,0,3,,,,,,,,,2,,,55,0
510240,note_on,0,0,3,,,,,,,,,2,,,60,61
510240,note_on,0,0,3,,,,,,,,,2,,,55,61
510240,set_tempo,480,1,0,,,,,,1333333,,,,,,,
510240,note_off,240,0,3,,,,,,,,,2,,,56,0
510240,note_off,0,0,3,,,,,,,,,2,,,53,0
510240,note_off,0,0,3,,,,,,,,,2,,,61,0
510240,note_on,0,0,3,,,,,,,,,2,,,52,61
510360,note_off,600,0,1,,,,,,,,,0,,,73,0
510360,note_on,0,0,1,,,,,,,,,0,,,72,66
510480,note_on,0,0,1,,,,,,,,,0,,,82,68
510480,note_off,240,0,3,,,,,,,,,2,,,60,0
510480,note_off,120,0,1,,,,,,,,,0,,,72,0
510480,note_off,0,0,3,,,,,,,,,2,,,55,0
510480,note_off,0,0,3,,,,,,,,,2,,,52,0
510480,note_on,0,0,3,,,,,,,,,2,,,60,63
510480,note_on,0,0,3,,,,,,,,,2,,,52,63
510480,note_on,0,0,3,,,,,,,,,2,,,55,63
510585,set_tempo,345,1,0,,,,,,1428571,,,,,,,
510600,note_off,120,0,1,,,,,,,,,0,,,82,0
510600,note_on,0,0,1,,,,,,,,,0,,,79,71
510720,note_on,0,0,3,,,,,,,,,2,,,60,65
510720,note_on,0,0,3,,,,,,,,,2,,,52,65
510720,note_on,0,0,3,,,,,,,,,2,,,55,65
510720,note_off,0,0,3,,,,,,,,,2,,,55,0
510720,note_off,0,0,3,,,,,,,,,2,,,60,0
510720,note_off,240,0,3,,,,,,,,,2,,,52,0
510720,note_off,120,0,1,,,,,,,,,0,,,79,0
510720,note_on,0,0,1,,,,,,,,,0,,,79,74
511080,set_tempo,495,1,0,,,,,,1578947,,,,,,,
511200,note_on,0,0,3,,,,,,,,,2,,,56,55
511200,note_off,0,0,3,,,,,,,,,2,,,55,0
511200,note_on,0,0,3,,,,,,,,,2,,,60,55
511200,note_off,480,0,3,,,,,,,,,2,,,60,0
511200,note_off,0,0,3,,,,,,,,,2,,,52,0
511200,note_on,0,0,3,,,,,,,,,2,,,53,55
511440,note_off,720,0,1,,,,,,,,,0,,,79,0
511440,note_on,0,0,1,,,,,,,,,0,,,82,62
511560,note_off,120,0,1,,,,,,,,,0,,,82,0
511560,note_on,0,0,1,,,,,,,,,0,,,80,61
511680,note_off,480,0,3,,,,,,,,,2,,,60,0
511680,note_off,0,0,3,,,,,,,,,2,,,56,0
511680,note_off,0,0,3,,,,,,,,,2,,,53,0
511710,note_off,150,0,1,,,,,,,,,0,,,80,0
512100,set_tempo,1020,1,0,,,,,,1500000,,,,,,,
512160,note_on,450,0,1,,,,,,,,,0,,,68,59
512160,set_tempo,60,1,0,,,,,,1363636,,,,,,,
512400,note_off,240,0,1,,,,,,,,,0,,,68,0
512400,note_on,0,0,1,,,,,,,,,0,,,67,59
512580,set_tempo,420,1,0,,,,,,1428571,,,,,,,
512640,set_tempo,60,1,0,,,,,,1333333,,,,,,,
512640,note_on,0,0,1,,,,,,,,,0,,,67,59
512640,note_off,240,0,1,,,,,,,,,0,,,67,0
512640,control_change,960,0,3,,,,,,,64,127,2,,,,
512640,note_on,0,0,3,,,,,,,,,2,,,51,59
512640,note_on,0,0,3,,,,,,,,,2,,,38,59
513000,note_off,360,0,1,,,,,,,,,0,,,67,0
513000,note_on,0,0,1,,,,,,,,,0,,,66,55
513120,note_on,0,0,1,,,,,,,,,0,,,69,54
513120,note_on,0,0,3,,,,,,,,,2,,,42,56
513120,note_off,480,0,3,,,,,,,,,2,,,51,0
513120,note_off,120,0,1,,,,,,,,,0,,,66,0
513600,note_on,0,0,3,,,,,,,,,2,,,45,53
513600,note_off,480,0,3,,,,,,,,,2,,,42,0
514020,set_tempo,1380,1,0,,,,,,1363636,,,,,,,
514080,set_tempo,60,1,0,,,,,,1333333,,,,,,,
514080,note_on,0,0,1,,,,,,,,,0,,,69,70
514080,note_off,960,0,1,,,,,,,,,0,,,69,0
514080,note_on,0,0,3,,,,,,,,,2,,,46,57
514080,control_change,480,0,3,,,,,,,64,0,2,,,,
514080,note_off,0,0,3,,,,,,,,,2,,,45,0
514080,note_off,0,0,3,,,,,,,,,2,,,38,0
514080,note_on,0,0,3,,,,,,,,,2,,,50,57
514080,note_on,0,0,3,,,,,,,,,2,,,58,57
514440,note_on,0,0,1,,,,,,,,,0,,,67,64
514440,note_off,360,0,1,,,,,,,,,0,,,69,0
514500,set_tempo,420,1,0,,,,,,1363636,,,,,,,
514560,note_on,0,0,3,,,,,,,,,2,,,57,60
514560,note_off,120,0,1,,,,,,,,,0,,,67,0
514560,set_tempo,60,1,0,,,,,,1333333,,,,,,,
514560,note_on,0,0,3,,,,,,,,,2,,,50,60
514560,note_off,0,0,3,,,,,,,,,2,,,50,0
514560,note_on,0,0,1,,,,,,,,,0,,,67,74
514560,note_off,480,0,3,,,,,,,,,2,,,46,0
514560,note_on,0,0,3,,,,,,,,,2,,,45,60
514560,note_off,0,0,3,,,,,,,,,2,,,58,0
514920,note_on,0,0,1,,,,,,,,,0,,,66,71
514920,note_off,360,0,1,,,,,,,,,0,,,67,0
514980,set_tempo,420,1,0,,,,,,1363636,,,,,,,
515040,note_off,480,0,3,,,,,,,,,2,,,50,0
515040,note_on,0,0,3,,,,,,,,,2,,,43,63
515040,note_on,0,0,3,,,,,,,,,2,,,55,63
515040,set_tempo,60,1,0,,,,,,1363636,,,,,,,
515040,note_on,0,0,3,,,,,,,,,2,,,50,63
515040,note_off,0,0,3,,,,,,,,,2,,,45,0
515040,note_off,0,0,3,,,,,,,,,2,,,57,0
515040,note_on,0,0,1,,,,,,,,,0,,,69,80
515040,note_off,120,0,1,,,,,,,,,0,,,66,0
515400,note_off,360,0,1,,,,,,,,,0,,,69,0
515400,note_on,0,0,1,,,,,,,,,0,,,67,76
515460,set_tempo,420,1,0,,,,,,1578947,,,,,,,
515520,note_off,0,0,3,,,,,,,,,2,,,55,0
515520,note_off,0,0,3,,,,,,,,,2,,,43,0
515520,note_on,0,0,3,,,,,,,,,2,,,42,68
515520,note_off,480,0,3,,,,,,,,,2,,,50,0
515520,note_on,0,0,3,,,,,,,,,2,,,54,68
515520,note_on,0,0,3,,,,,,,,,2,,,50,68
515520,set_tempo,60,1,0,,,,,,1666666,,,,,,,
515520,note_off,120,0,1,,,,,,,,,0,,,67,0
515520,note_on,0,0,1,,,,,,,,,0,,,70,85
515880,note_on,0,0,1,,,,,,,,,0,,,69,76
515880,note_off,360,0,1,,,,,,,,,0,,,70,0
515925,set_tempo,405,1,0,,,,,,1363636,,,,,,,
516000,note_on,0,0,1,,,,,,,,,0,,,66,73
516000,note_off,0,0,3,,,,,,,,,2,,,54,0
516000,note_off,0,0,3,,,,,,,,,2,,,42,0
516000,note_off,480,0,3,,,,,,,,,2,,,50,0
516000,note_off,120,0,1,,,,,,,,,0,,,69,0
516120,note_on,0,0,1,,,,,,,,,0,,,69,70
516120,note_off,120,0,1,,,,,,,,,0,,,66,0
516240,note_on,0,0,1,,,,,,,,,0,,,72,67
516240,note_off,120,0,1,,,,,,,,,0,,,69,0
516360,note_on,0,0,1,,,,,,,,,0,,,75,64
516360,note_off,120,0,1,,,,,,,,,0,,,72,0
516480,note_on,0,0,1,,,,,,,,,0,,,74,64
516480,note_off,120,0,1,,,,,,,,,0,,,75,0
516600,note_on,0,0,1,,,,,,,,,0,,,72,61
516600,note_off,120,0,1,,,,,,,,,0,,,74,0
516720,note_off,120,0,1,,,,,,,,,0,,,72,0
516720,note_on,0,0,1,,,,,,,,,0,,,70,61
516840,note_on,0,0,1,,,,,,,,,0,,,69,61
516840,note_off,120,0,1,,,,,,,,,0,,,70,0
516900,set_tempo,975,1,0,,,,,,1428571,,,,,,,
516960,note_on,0,0,1,,,,,,,,,0,,,72,62
516960,set_tempo,60,1,0,,,,,,1363636,,,,,,,
516960,note_off,120,0,1,,,,,,,,,0,,,69,0
517080,note_off,120,0,1,,,,,,,,,0,,,72,0
517080,note_on,0,0,1,,,,,,,,,0,,,78,62
517200,note_off,120,0,1,,,,,,,,,0,,,78,0
517200,note_on,0,0,1,,,,,,,,,0,,,81,62
517320,note_off,120,0,1,,,,,,,,,0,,,81,0
517320,note_on,0,0,1,,,,,,,,,0,,,84,63
517440,note_off,120,0,1,,,,,,,,,0,,,84,0
517440,note_on,0,0,1,,,,,,,,,0,,,82,63
517560,note_off,120,0,1,,,,,,,,,0,,,82,0
517560,note_on,0,0,1,,,,,,,,,0,,,81,63
517680,note_off,120,0,1,,,,,,,,,0,,,81,0
517680,note_on,0,0,1,,,,,,,,,0,,,79,64
517800,set_tempo,840,1,0,,,,,,1500000,,,,,,,
517800,note_off,120,0,1,,,,,,,,,0,,,79,0
517800,note_on,0,0,1,,,,,,,,,0,,,78,64
517920,set_tempo,120,1,0,,,,,,1363636,,,,,,,
517920,note_on,0,0,1,,,,,,,,,0,,,81,64
517920,note_off,120,0,1,,,,,,,,,0,,,78,0
518040,note_on,0,0,1,,,,,,,,,0,,,84,64
518040,note_off,120,0,1,,,,,,,,,0,,,81,0
518160,note_off,120,0,1,,,,,,,,,0,,,84,0
518160,note_on,0,0,1,,,,,,,,,0,,,86,65
518280,note_off,120,0,1,,,,,,,,,0,,,86,0
518280,note_on,0,0,1,,,,,,,,,0,,,87,65
518350,set_tempo,430,1,0,,,,,,1428571,,,,,,,
518400,note_off,120,0,1,,,,,,,,,0,,,87,0
518400,note_on,0,0,1,,,,,,,,,0,,,86,67
518520,note_on,0,0,1,,,,,,,,,0,,,84,66
518520,note_off,120,0,1,,,,,,,,,0,,,86,0
518640,note_on,0,0,1,,,,,,,,,0,,,82,65
518640,note_off,120,0,1,,,,,,,,,0,,,84,0
518760,note_on,0,0,1,,,,,,,,,0,,,81,64
518760,note_off,120,0,1,,,,,,,,,0,,,82,0
518820,set_tempo,470,1,0,,,,,,1500000,,,,,,,
518880,note_off,120,0,1,,,,,,,,,0,,,81,0
518880,note_on,0,0,1,,,,,,,,,0,,,84,63
519000,note_off,120,0,1,,,,,,,,,0,,,84,0
519000,note_on,0,0,1,,,,,,,,,0,,,81,62
519120,note_off,120,0,1,,,,,,,,,0,,,81,0
519120,note_on,0,0,1,,,,,,,,,0,,,79,62
519240,set_tempo,420,1,0,,,,,,1578947,,,,,,,
519240,note_off,120,0,1,,,,,,,,,0,,,79,0
519240,note_on,0,0,1,,,,,,,,,0,,,78,61
519360,note_on,0,0,1,,,,,,,,,0,,,84,60
519360,note_off,120,0,1,,,,,,,,,0,,,78,0
519480,note_off,120,0,1,,,,,,,,,0,,,84,0
519480,note_on,0,0,1,,,,,,,,,0,,,81,59
519600,note_off,120,0,1,,,,,,,,,0,,,81,0
519600,note_on,0,0,1,,,,,,,,,0,,,79,58
519720,set_tempo,480,1,0,,,,,,1666666,,,,,,,
519720,note_off,120,0,1,,,,,,,,,0,,,79,0
519720,note_on,0,0,1,,,,,,,,,0,,,78,57
519840,note_off,120,0,1,,,,,,,,,0,,,78,0
519840,note_on,0,0,1,,,,,,,,,0,,,81,56
519918,note_off,78,0,1,,,,,,,,,0,,,81,0
519960,note_on,42,0,1,,,,,,,,,0,,,78,59
520020,set_tempo,300,1,0,,,,,,1714285,,,,,,,
520038,note_off,78,0,1,,,,,,,,,0,,,78,0
520080,note_on,42,0,1,,,,,,,,,0,,,75,61
520140,set_tempo,120,1,0,,,,,,1764705,,,,,,,
520158,note_off,78,0,1,,,,,,,,,0,,,75,0
520200,note_on,42,0,1,,,,,,,,,0,,,74,62
520260,set_tempo,120,1,0,,,,,,2727272,,,,,,,
520278,note_off,78,0,1,,,,,,,,,0,,,74,0
520320,set_tempo,60,1,0,,,,,,1333333,,,,,,,
520320,note_on,42,0,1,,,,,,,,,0,,,74,67
520320,note_on,0,0,3,,,,,,,,,2,,,54,43
520320,note_on,4320,0,3,,,,,,,,,2,,,57,43
520440,note_on,120,0,3,,,,,,,,,2,,,62,43
520554,note_off,114,0,3,,,,,,,,,2,,,54,0
520554,note_off,0,0,3,,,,,,,,,2,,,57,0
520560,note_on,6,0,3,,,,,,,,,2,,,57,43
520560,note_on,0,0,3,,,,,,,,,2,,,54,43
520569,note_off,9,0,3,,,,,,,,,2,,,62,0
520680,note_on,111,0,3,,,,,,,,,2,,,62,43
520794,note_off,114,0,3,,,,,,,,,2,,,54,0
520794,note_off,0,0,3,,,,,,,,,2,,,57,0
520800,note_on,0,0,3,,,,,,,,,2,,,54,42
520800,note_off,480,0,1,,,,,,,,,0,,,74,0
520800,note_on,0,0,1,,,,,,,,,0,,,69,65
520800,note_on,6,0,3,,,,,,,,,2,,,57,42
520809,note_off,9,0,3,,,,,,,,,2,,,62,0
520920,note_on,111,0,3,,,,,,,,,2,,,62,42
521034,note_off,114,0,3,,,,,,,,,2,,,54,0
521034,note_off,0,0,3,,,,,,,,,2,,,57,0
521040,note_on,0,0,3,,,,,,,,,2,,,57,42
521040,note_on,6,0,3,,,,,,,,,2,,,54,42
521049,note_off,9,0,3,,,,,,,,,2,,,62,0
521160,note_on,111,0,3,,,,,,,,,2,,,62,42
521274,note_off,114,0,3,,,,,,,,,2,,,57,0
521274,note_off,0,0,3,,,,,,,,,2,,,54,0
521280,note_on,6,0,3,,,,,,,,,2,,,54,41
521280,note_on,0,0,3,,,,,,,,,2,,,57,41
521289,note_off,9,0,3,,,,,,,,,2,,,62,0
521400,note_on,111,0,3,,,,,,,,,2,,,62,41
521514,note_off,114,0,3,,,,,,,,,2,,,57,0
521514,note_off,0,0,3,,,,,,,,,2,,,54,0
521520,note_on,6,0,3,,,,,,,,,2,,,57,41
521520,note_on,0,0,3,,,,,,,,,2,,,54,41
521529,note_off,9,0,3,,,,,,,,,2,,,62,0
521640,note_on,111,0,3,,,,,,,,,2,,,62,41
521754,note_off,0,0,3,,,,,,,,,2,,,57,0
521754,note_off,114,0,3,,,,,,,,,2,,,54,0
521760,note_off,960,0,1,,,,,,,,,0,,,69,0
521760,note_on,0,0,1,,,,,,,,,0,,,71,62
521760,note_on,0,0,3,,,,,,,,,2,,,55,40
521760,note_on,6,0,3,,,,,,,,,2,,,59,40
521769,note_off,9,0,3,,,,,,,,,2,,,62,0
521880,note_on,111,0,3,,,,,,,,,2,,,62,40
521994,note_off,0,0,3,,,,,,,,,2,,,59,0
521994,note_off,114,0,3,,,,,,,,,2,,,55,0
522000,note_off,240,0,1,,,,,,,,,0,,,71,0
522000,note_on,0,0,1,,,,,,,,,0,,,67,61
522000,note_on,6,0,3,,,,,,,,,2,,,59,40
522000,note_on,0,0,3,,,,,,,,,2,,,55,40
522009,note_off,9,0,3,,,,,,,,,2,,,62,0
522120,note_on,111,0,3,,,,,,,,,2,,,62,40
522180,set_tempo,1860,1,0,,,,,,1363636,,,,,,,
522234,note_off,114,0,3,,,,,,,,,2,,,55,0
522234,note_off,0,0,3,,,,,,,,,2,,,59,0
522240,note_on,6,0,3,,,,,,,,,2,,,57,39
522240,note_off,240,0,1,,,,,,,,,0,,,67,0
522240,note_on,0,0,1,,,,,,,,,0,,,67,60
522240,note_on,0,0,3,,,,,,,,,2,,,60,39
522240,set_tempo,60,1,0,,,,,,1333333,,,,,,,
522249,note_off,9,0,3,,,,,,,,,2,,,62,0
522360,note_on,111,0,3,,,,,,,,,2,,,62,39
522474,note_off,0,0,3,,,,,,,,,2,,,57,0
522474,note_off,114,0,3,,,,,,,,,2,,,60,0
522480,note_off,240,0,1,,,,,,,,,0,,,67,0
522480,note_on,0,0,1,,,,,,,,,0,,,66,59
522480,note_on,6,0,3,,,,,,,,,2,,,57,39
522480,note_on,0,0,3,,,,,,,,,2,,,60,39
522489,note_off,9,0,3,,,,,,,,,2,,,62,0
522540,note_on,0,0,1,,,,,,,,,0,,,67,59
522540,note_off,60,0,1,,,,,,,,,0,,,66,0
522600,note_on,0,0,1,,,,,,,,,0,,,66,59
522600,note_off,60,0,1,,,,,,,,,0,,,67,0
522600,note_on,111,0,3,,,,,,,,,2,,,62,39
522660,note_on,0,0,1,,,,,,,,,0,,,64,58
522660,note_off,60,0,1,,,,,,,,,0,,,66,0
522714,note_off,0,0,3,,,,,,,,,2,,,57,0
522714,note_off,114,0,3,,,,,,,,,2,,,60,0
522720,note_off,60,0,1,,,,,,,,,0,,,64,0
522720,note_on,6,0,3,,,,,,,,,2,,,57,38
522720,note_on,0,0,3,,,,,,,,,2,,,60,38
522720,note_on,0,0,1,,,,,,,,,0,,,66,58
522729,note_off,9,0,3,,,,,,,,,2,,,62,0
522840,note_on,111,0,3,,,,,,,,,2,,,62,38
522954,note_off,114,0,3,,,,,,,,,2,,,60,0
522954,note_off,0,0,3,,,,,,,,,2,,,57,0
522960,note_off,240,0,1,,,,,,,,,0,,,66,0
522960,note_on,0,0,1,,,,,,,,,0,,,67,61
522960,note_on,6,0,3,,,,,,,,,2,,,57,38
522960,note_on,0,0,3,,,,,,,,,2,,,60,38
522969,note_off,9,0,3,,,,,,,,,2,,,62,0
523080,note_on,111,0,3,,,,,,,,,2,,,62,38
523194,note_off,114,0,3,,,,,,,,,2,,,60,0
523194,note_off,0,0,3,,,,,,,,,2,,,57,0
523200,note_on,6,0,3,,,,,,,,,2,,,57,38
523200,note_on,0,0,3,,,,,,,,,2,,,60,38
523200,note_on,0,0,1,,,,,,,,,0,,,69,65
523200,note_off,240,0,1,,,,,,,,,0,,,67,0
523209,note_off,9,0,3,,,,,,,,,2,,,62,0
523320,note_on,111,0,3,,,,,,,,,2,,,62,43
523392,note_off,192,0,1,,,,,,,,,0,,,69,0
523434,note_off,114,0,3,,,,,,,,,2,,,60,0
523434,note_off,0,0,3,,,,,,,,,2,,,57,0
523440,note_on,6,0,3,,,,,,,,,2,,,59,45
523440,note_on,0,0,3,,,,,,,,,2,,,55,45
523440,note_on,48,0,1,,,,,,,,,0,,,71,68
523449,note_off,9,0,3,,,,,,,,,2,,,62,0
523560,note_on,111,0,3,,,,,,,,,2,,,62,46
523632,note_off,192,0,1,,,,,,,,,0,,,71,0
523674,note_off,114,0,3,,,,,,,,,2,,,55,0
523674,note_off,0,0,3,,,,,,,,,2,,,59,0
523680,note_on,48,0,1,,,,,,,,,0,,,72,72
523680,note_on,0,0,3,,,,,,,,,2,,,54,48
523680,note_on,6,0,3,,,,,,,,,2,,,57,48
523689,note_off,9,0,3,,,,,,,,,2,,,62,0
523800,note_off,120,0,1,,,,,,,,,0,,,72,0
523800,note_on,0,0,1,,,,,,,,,0,,,73,73
523800,note_on,111,0,3,,,,,,,,,2,,,62,49
523896,note_off,96,0,1,,,,,,,,,0,,,73,0
523914,note_off,114,0,3,,,,,,,,,2,,,54,0
523914,note_off,0,0,3,,,,,,,,,2,,,57,0
523920,note_on,24,0,1,,,,,,,,,0,,,73,75
523920,note_on,0,0,3,,,,,,,,,2,,,54,50
523920,note_on,6,0,3,,,,,,,,,2,,,57,50
523929,note_off,9,0,3,,,,,,,,,2,,,62,0
524040,note_on,111,0,3,,,,,,,,,2,,,62,52
524040,note_on,0,0,1,,,,,,,,,0,,,74,77
524040,note_off,120,0,1,,,,,,,,,0,,,73,0
524100,set_tempo,1860,1,0,,,,,,1428571,,,,,,,
524136,note_off,96,0,1,,,,,,,,,0,,,74,0
524154,note_off,0,0,3,,,,,,,,,2,,,57,0
524154,note_off,114,0,3,,,,,,,,,2,,,54,0
524160,set_tempo,60,1,0,,,,,,1333333,,,,,,,
524160,note_on,6,0,3,,,,,,,,,2,,,57,51
524160,note_on,0,0,3,,,,,,,,,2,,,54,51
524160,note_on,24,0,1,,,,,,,,,0,,,73,82
524169,note_off,9,0,3,,,,,,,,,2,,,62,0
524280,note_on,0,0,1,,,,,,,,,0,,,74,77
524280,note_on,111,0,3,,,,,,,,,2,,,62,48
524280,note_off,120,0,1,,,,,,,,,0,,,73,0
524394,note_off,0,0,3,,,,,,,,,2,,,57,0
524394,note_off,114,0,3,,,,,,,,,2,,,54,0
524400,note_on,6,0,3,,,,,,,,,2,,,57,45
524400,note_on,0,0,1,,,,,,,,,0,,,76,72
524400,note_off,120,0,1,,,,,,,,,0,,,74,0
524400,note_on,0,0,3,,,,,,,,,2,,,54,45
524409,note_off,9,0,3,,,,,,,,,2,,,62,0
524520,note_on,0,0,1,,,,,,,,,0,,,74,68
524520,note_on,111,0,3,,,,,,,,,2,,,62,43
524520,note_off,120,0,1,,,,,,,,,0,,,76,0
524634,note_off,114,0,3,,,,,,,,,2,,,54,0
524634,note_off,0,0,3,,,,,,,,,2,,,57,0
524640,note_on,6,0,3,,,,,,,,,2,,,54,43
524640,note_off,120,0,1,,,,,,,,,0,,,74,0
524640,note_on,0,0,1,,,,,,,,,0,,,69,63
524640,note_on,0,0,3,,,,,,,,,2,,,57,43
524649,note_off,9,0,3,,,,,,,,,2,,,62,0
524760,note_on,111,0,3,,,,,,,,,2,,,62,43
524874,note_off,0,0,3,,,,,,,,,2,,,54,0
524874,note_off,114,0,3,,,,,,,,,2,,,57,0
524880,note_on,0,0,3,,,,,,,,,2,,,54,42
524880,note_on,6,0,3,,,,,,,,,2,,,57,42
524889,note_off,9,0,3,,,,,,,,,2,,,62,0
525000,note_on,111,0,3,,,,,,,,,2,,,62,42
525114,note_off,0,0,3,,,,,,,,,2,,,57,0
525114,note_off,114,0,3,,,,,,,,,2,,,54,0
525120,note_on,6,0,3,,,,,,,,,2,,,57,42
525120,note_off,480,0,1,,,,,,,,,0,,,69,0
525120,note_on,0,0,3,,,,,,,,,2,,,54,42
525129,note_off,9,0,3,,,,,,,,,2,,,62,0
525240,note_on,120,0,1,,,,,,,,,0,,,71,65
525240,note_on,111,0,3,,,,,,,,,2,,,62,41
525300,note_off,60,0,1,,,,,,,,,0,,,71,0
525300,note_on,0,0,1,,,,,,,,,0,,,69,64
525354,note_off,0,0,3,,,,,,,,,2,,,57,0
525354,note_off,114,0,3,,,,,,,,,2,,,54,0
525360,note_off,60,0,1,,,,,,,,,0,,,69,0
525360,note_on,6,0,3,,,,,,,,,2,,,57,41
525360,note_on,0,0,1,,,,,,,,,0,,,71,64
525360,note_on,0,0,3,,,,,,,,,2,,,54,41
525369,note_off,9,0,3,,,,,,,,,2,,,62,0
525420,note_off,60,0,1,,,,,,,,,0,,,71,0
525420,note_on,0,0,1,,,,,,,,,0,,,69,64
525468,note_off,48,0,1,,,,,,,,,0,,,69,0
525480,note_on,12,0,1,,,,,,,,,0,,,72,64
525480,note_on,111,0,3,,,,,,,,,2,,,62,41
525540,note_off,60,0,1,,,,,,,,,0,,,72,0
525540,note_on,0,0,1,,,,,,,,,0,,,71,63
525560,set_tempo,1400,1,0,,,,,,1363636,,,,,,,
525588,note_off,48,0,1,,,,,,,,,0,,,71,0
525594,note_off,114,0,3,,,,,,,,,2,,,54,0
525594,note_off,0,0,3,,,,,,,,,2,,,57,0
525600,note_on,6,0,3,,,,,,,,,2,,,55,41
525600,note_on,0,0,3,,,,,,,,,2,,,59,41
525600,note_on,12,0,1,,,,,,,,,0,,,72,63
525609,note_off,9,0,3,,,,,,,,,2,,,62,0
525660,note_on,0,0,1,,,,,,,,,0,,,71,63
525660,note_off,60,0,1,,,,,,,,,0,,,72,0
525708,note_off,48,0,1,,,,,,,,,0,,,71,0
525720,note_on,111,0,3,,,,,,,,,2,,,62,40
525720,note_on,12,0,1,,,,,,,,,0,,,74,63
525780,note_on,0,0,1,,,,,,,,,0,,,73,62
525780,note_off,60,0,1,,,,,,,,,0,,,74,0
525828,note_off,48,0,1,,,,,,,,,0,,,73,0
525834,note_off,114,0,3,,,,,,,,,2,,,59,0
525834,note_off,0,0,3,,,,,,,,,2,,,55,0
525840,note_on,6,0,3,,,,,,,,,2,,,55,40
525840,note_on,0,0,3,,,,,,,,,2,,,59,40
525840,note_on,12,0,1,,,,,,,,,0,,,74,62
525849,note_off,9,0,3,,,,,,,,,2,,,62,0
525870,note_on,30,0,1,,,,,,,,,0,,,73,62
525888,note_off,18,0,1,,,,,,,,,0,,,74,0
525900,note_on,12,0,1,,,,,,,,,0,,,76,62
525918,note_off,18,0,1,,,,,,,,,0,,,73,0
525930,note_on,12,0,1,,,,,,,,,0,,,74,62
525936,set_tempo,376,1,0,,,,,,1395348,,,,,,,
525948,note_off,18,0,1,,,,,,,,,0,,,76,0
525960,note_on,12,0,1,,,,,,,,,0,,,67,61
525960,note_on,111,0,3,,,,,,,,,2,,,62,40
525978,note_off,18,0,1,,,,,,,,,0,,,74,0
526020,set_tempo,84,1,0,,,,,,1500000,,,,,,,
526074,note_off,114,0,3,,,,,,,,,2,,,59,0
526074,note_off,0,0,3,,,,,,,,,2,,,55,0
526080,note_on,6,0,3,,,,,,,,,2,,,57,40
526080,note_on,0,0,3,,,,,,,,,2,,,60,40
526080,set_tempo,60,1,0,,,,,,1333333,,,,,,,
526080,note_off,102,0,1,,,,,,,,,0,,,67,0
526080,note_on,0,0,1,,,,,,,,,0,,,67,61
526089,note_off,9,0,3,,,,,,,,,2,,,62,0
526200,note_on,111,0,3,,,,,,,,,2,,,62,39
526314,note_off,0,0,3,,,,,,,,,2,,,57,0
526314,note_off,114,0,3,,,,,,,,,2,,,60,0
526320,note_on,0,0,3,,,,,,,,,2,,,60,39
526320,note_on,6,0,3,,,,,,,,,2,,,57,39
526329,note_off,9,0,3,,,,,,,,,2,,,62,0
526440,note_on,111,0,3,,,,,,,,,2,,,62,39
526554,note_off,0,0,3,,,,,,,,,2,,,57,0
526554,note_off,114,0,3,,,,,,,,,2,,,60,0
526560,note_on,0,0,3,,,,,,,,,2,,,60,39
526560,note_off,480,0,1,,,,,,,,,0,,,67,0
526560,note_on,6,0,3,,,,,,,,,2,,,57,39
526560,note_on,0,0,1,,,,,,,,,0,,,66,59
526569,note_off,9,0,3,,,,,,,,,2,,,62,0
526600,note_on,0,0,1,,,,,,,,,0,,,67,59
526600,note_off,40,0,1,,,,,,,,,0,,,66,0
526640,note_on,0,0,1,,,,,,,,,0,,,66,59
526640,note_off,40,0,1,,,,,,,,,0,,,67,0
526680,note_on,0,0,1,,,,,,,,,0,,,64,58
526680,note_off,40,0,1,,,,,,,,,0,,,66,0
526680,note_on,111,0,3,,,,,,,,,2,,,62,38
526740,note_on,0,0,1,,,,,,,,,0,,,66,56
526740,note_off,60,0,1,,,,,,,,,0,,,64,0
526794,note_off,0,0,3,,,,,,,,,2,,,57,0
526794,note_off,114,0,3,,,,,,,,,2,,,60,0
526800,note_on,0,0,3,,,,,,,,,2,,,60,38
526800,note_on,6,0,3,,,,,,,,,2,,,57,38
526800,note_on,0,0,1,,,,,,,,,0,,,67,57
526800,note_off,60,0,1,,,,,,,,,0,,,66,0
526809,note_off,9,0,3,,,,,,,,,2,,,62,0
526920,note_on,111,0,3,,,,,,,,,2,,,62,38
527034,note_off,114,0,3,,,,,,,,,2,,,60,0
527034,note_off,0,0,3,,,,,,,,,2,,,57,0
527040,note_on,0,0,1,,,,,,,,,0,,,69,61
527040,note_off,240,0,1,,,,,,,,,0,,,67,0
527040,note_on,6,0,3,,,,,,,,,2,,,60,38
527040,note_on,0,0,3,,,,,,,,,2,,,57,38
527049,note_off,9,0,3,,,,,,,,,2,,,62,0
527160,note_on,111,0,3,,,,,,,,,2,,,62,44
527274,note_off,114,0,3,,,,,,,,,2,,,57,0
527274,note_off,0,0,3,,,,,,,,,2,,,60,0
527280,note_off,240,0,1,,,,,,,,,0,,,69,0
527280,note_on,0,0,3,,,,,,,,,2,,,58,47
527280,note_on,0,0,1,,,,,,,,,0,,,70,66
527280,note_on,6,0,3,,,,,,,,,2,,,55,47
527289,note_off,9,0,3,,,,,,,,,2,,,62,0
527400,note_on,111,0,3,,,,,,,,,2,,,62,51
527514,note_off,0,0,3,,,,,,,,,2,,,55,0
527514,note_off,114,0,3,,,,,,,,,2,,,58,0
527520,note_on,0,0,3,,,,,,,,,2,,,57,54
527520,note_on,6,0,3,,,,,,,,,2,,,54,54
527520,note_on,0,0,1,,,,,,,,,0,,,72,71
527520,note_off,240,0,1,,,,,,,,,0,,,70,0
527529,note_off,9,0,3,,,,,,,,,2,,,62,0
527640,note_on,111,0,3,,,,,,,,,2,,,62,58
527640,note_on,0,0,1,,,,,,,,,0,,,73,75
527640,note_off,120,0,1,,,,,,,,,0,,,72,0
527736,note_off,96,0,1,,,,,,,,,0,,,73,0
527754,note_off,0,0,3,,,,,,,,,2,,,54,0
527754,note_off,114,0,3,,,,,,,,,2,,,57,0
527760,note_on,6,0,3,,,,,,,,,2,,,54,66
527760,note_on,0,0,3,,,,,,,,,2,,,57,66
527760,note_on,24,0,1,,,,,,,,,0,,,73,78
527769,note_off,9,0,3,,,,,,,,,2,,,62,0
527880,note_on,111,0,3,,,,,,,,,2,,,62,72
527880,note_on,0,0,1,,,,,,,,,0,,,74,83
527880,note_off,120,0,1,,,,,,,,,0,,,73,0
527940,set_tempo,1860,1,0,,,,,,1428571,,,,,,,
527976,note_off,96,0,1,,,,,,,,,0,,,74,0
527994,note_off,0,0,3,,,,,,,,,2,,,54,0
527994,note_off,114,0,3,,,,,,,,,2,,,57,0
528000,note_on,24,0,1,,,,,,,,,0,,,74,87
528000,note_on,6,0,3,,,,,,,,,2,,,58,86
528000,note_on,0,0,3,,,,,,,,,2,,,55,86
528000,set_tempo,60,1,0,,,,,,1304347,,,,,,,
528009,note_off,9,0,3,,,,,,,,,2,,,62,0
528078,note_off,0,0,3,,,,,,,,,2,,,58,0
528078,note_off,69,0,3,,,,,,,,,2,,,55,0
528120,note_on,42,0,3,,,,,,,,,2,,,62,81
528198,note_off,78,0,3,,,,,,,,,2,,,62,0
528240,note_on,42,0,3,,,,,,,,,2,,,66,77
528240,note_on,34800,0,2,,,,,,,,,1,,,74,80
528240,note_off,240,0,1,,,,,,,,,0,,,74,0
528240,note_on,0,0,1,,,,,,,,,0,,,82,80
528318,note_off,78,0,3,,,,,,,,,2,,,66,0
528360,note_on,42,0,3,,,,,,,,,2,,,67,72
528424,note_off,184,0,1,,,,,,,,,0,,,82,0
528438,note_off,78,0,3,,,,,,,,,2,,,67,0
528480,note_on,42,0,3,,,,,,,,,2,,,62,69
528480,note_off,240,0,2,,,,,,,,,1,,,74,0
528558,note_off,78,0,3,,,,,,,,,2,,,62,0
528600,note_on,42,0,3,,,,,,,,,2,,,58,65
528678,note_off,78,0,3,,,,,,,,,2,,,58,0
528720,note_on,240,0,2,,,,,,,,,1,,,74,72
528720,note_on,42,0,3,,,,,,,,,2,,,57,64
528720,note_on,296,0,1,,,,,,,,,0,,,82,72
528798,note_off,78,0,3,,,,,,,,,2,,,57,0
528840,note_on,42,0,3,,,,,,,,,2,,,55,63
528904,note_off,184,0,1,,,,,,,,,0,,,82,0
528918,note_off,78,0,3,,,,,,,,,2,,,55,0
528920,set_tempo,920,1,0,,,,,,1333333,,,,,,,
528960,note_on,42,0,3,,,,,,,,,2,,,54,61
528960,note_off,240,0,2,,,,,,,,,1,,,74,0
528960,note_on,0,0,3,,,,,,,,,2,,,50,61
529038,note_off,78,0,3,,,,,,,,,2,,,50,0
529038,note_off,0,0,3,,,,,,,,,2,,,54,0
529080,note_on,42,0,3,,,,,,,,,2,,,57,60
529158,note_off,78,0,3,,,,,,,,,2,,,57,0
529200,note_on,240,0,2,,,,,,,,,1,,,72,65
529200,note_on,42,0,3,,,,,,,,,2,,,60,58
529200,note_on,296,0,1,,,,,,,,,0,,,81,65
529278,note_off,78,0,3,,,,,,,,,2,,,60,0
529320,note_on,42,0,3,,,,,,,,,2,,,50,57
529384,note_off,184,0,1,,,,,,,,,0,,,81,0
529398,note_off,78,0,3,,,,,,,,,2,,,50,0
529440,note_off,240,0,2,,,,,,,,,1,,,72,0
529440,note_on,42,0,3,,,,,,,,,2,,,51,56
529518,note_off,78,0,3,,,,,,,,,2,,,51,0
529560,note_on,42,0,3,,,,,,,,,2,,,55,54
529638,note_off,78,0,3,,,,,,,,,2,,,55,0
529680,note_on,296,0,1,,,,,,,,,0,,,79,58
529680,note_on,240,0,2,,,,,,,,,1,,,70,58
529680,note_on,42,0,3,,,,,,,,,2,,,58,53
529740,set_tempo,820,1,0,,,,,,1363636,,,,,,,
529758,note_off,78,0,3,,,,,,,,,2,,,58,0
529800,note_on,42,0,3,,,,,,,,,2,,,51,52
529815,set_tempo,75,1,0,,,,,,1578947,,,,,,,
529864,note_off,184,0,1,,,,,,,,,0,,,79,0
529878,note_off,78,0,3,,,,,,,,,2,,,51,0
529920,note_on,0,0,3,,,,,,,,,2,,,55,87
529920,note_on,42,0,3,,,,,,,,,2,,,51,87
529920,set_tempo,105,1,0,,,,,,1304347,,,,,,,
529920,note_off,240,0,2,,,,,,,,,1,,,70,0
529998,note_off,78,0,3,,,,,,,,,2,,,55,0
529998,note_off,0,0,3,,,,,,,,,2,,,51,0
530040,note_on,42,0,3,,,,,,,,,2,,,58,83
530118,note_off,78,0,3,,,,,,,,,2,,,58,0
530160,note_on,42,0,3,,,,,,,,,2,,,62,79
530160,note_on,0,0,2,,,,,,,,,1,,,70,81
530160,note_on,240,0,2,,,,,,,,,1,,,67,81
530160,note_on,296,0,1,,,,,,,,,0,,,79,81
530238,note_off,78,0,3,,,,,,,,,2,,,62,0
530280,note_on,42,0,3,,,,,,,,,2,,,63,75
530344,note_off,184,0,1,,,,,,,,,0,,,79,0
530358,note_off,78,0,3,,,,,,,,,2,,,63,0
530400,note_off,0,0,2,,,,,,,,,1,,,67,0
530400,note_off,240,0,2,,,,,,,,,1,,,70,0
530400,note_on,42,0,3,,,,,,,,,2,,,58,72
530478,note_off,78,0,3,,,,,,,,,2,,,58,0
530520,note_on,42,0,3,,,,,,,,,2,,,55,65
530598,note_off,78,0,3,,,,,,,,,2,,,55,0
530640,note_on,296,0,1,,,,,,,,,0,,,79,72
530640,note_on,0,0,2,,,,,,,,,1,,,75,74
530640,note_on,240,0,2,,,,,,,,,1,,,67,74
530640,note_on,42,0,3,,,,,,,,,2,,,53,64
530718,note_off,78,0,3,,,,,,,,,2,,,53,0
530760,note_on,42,0,3,,,,,,,,,2,,,51,62
530824,note_off,184,0,1,,,,,,,,,0,,,79,0
530838,note_off,78,0,3,,,,,,,,,2,,,51,0
530850,set_tempo,930,1,0,,,,,,1333333,,,,,,,
530880,note_on,42,0,3,,,,,,,,,2,,,47,61
530880,note_on,0,0,3,,,,,,,,,2,,,43,61
530880,note_off,0,0,2,,,,,,,,,1,,,67,0
530880,note_off,240,0,2,,,,,,,,,1,,,75,0
530958,note_off,78,0,3,,,,,,,,,2,,,43,0
530958,note_off,0,0,3,,,,,,,,,2,,,47,0
531000,note_on,42,0,3,,,,,,,,,2,,,50,59
531078,note_off,78,0,3,,,,,,,,,2,,,50,0
531120,note_on,296,0,1,,,,,,,,,0,,,77,66
531120,note_on,42,0,3,,,,,,,,,2,,,55,58
531120,note_on,0,0,2,,,,,,,,,1,,,74,67
531120,note_on,240,0,2,,,,,,,,,1,,,67,67
531198,note_off,78,0,3,,,,,,,,,2,,,55,0
531240,note_on,42,0,3,,,,,,,,,2,,,47,56
531304,note_off,184,0,1,,,,,,,,,0,,,77,0
531318,note_off,78,0,3,,,,,,,,,2,,,47,0
531320,set_tempo,470,1,0,,,,,,1363636,,,,,,,
531360,note_on,42,0,3,,,,,,,,,2,,,48,55
531360,note_off,0,0,2,,,,,,,,,1,,,67,0
531360,note_off,240,0,2,,,,,,,,,1,,,74,0
531438,note_off,78,0,3,,,,,,,,,2,,,48,0
531480,note_on,42,0,3,,,,,,,,,2,,,51,53
531558,note_off,78,0,3,,,,,,,,,2,,,51,0
531600,note_on,240,0,2,,,,,,,,,1,,,67,60
531600,note_on,0,0,2,,,,,,,,,1,,,72,60
531600,note_on,296,0,1,,,,,,,,,0,,,75,60
531600,note_on,42,0,3,,,,,,,,,2,,,55,51
531660,set_tempo,340,1,0,,,,,,1764705,,,,,,,
531678,note_off,78,0,3,,,,,,,,,2,,,55,0
531720,note_on,42,0,3,,,,,,,,,2,,,48,50
531735,set_tempo,75,1,0,,,,,,2500000,,,,,,,
531784,note_off,184,0,1,,,,,,,,,0,,,75,0
531798,note_off,78,0,3,,,,,,,,,2,,,48,0
531840,note_on,56,0,1,,,,,,,,,0,,,77,62
531840,note_on,0,0,3,,,,,,,,,2,,,70,64
531840,note_on,0,0,3,,,,,,,,,2,,,61,64
531840,note_off,0,0,2,,,,,,,,,1,,,67,0
531840,note_off,240,0,2,,,,,,,,,1,,,72,0
531840,set_tempo,105,1,0,,,,,,1333333,,,,,,,
531840,control_change,42,0,3,,,,,,,64,0,2,,,,
531840,note_on,0,0,3,,,,,,,,,2,,,46,64
531840,note_on,0,0,3,,,,,,,,,2,,,73,64
531840,note_on,0,0,3,,,,,,,,,2,,,67,64
531900,control_change,60,0,3,,,,,,,64,127,2,,,,
532200,note_on,0,0,1,,,,,,,,,0,,,76,60
532200,note_off,360,0,1,,,,,,,,,0,,,77,0
532320,note_on,0,0,1,,,,,,,,,0,,,79,60
532320,note_off,120,0,1,,,,,,,,,0,,,76,0
532320,note_on,420,0,3,,,,,,,,,2,,,52,56
532800,note_on,0,0,3,,,,,,,,,2,,,55,51
532800,note_off,480,0,3,,,,,,,,,2,,,52,0
533280,note_on,0,0,3,,,,,,,,,2,,,52,45
533280,note_off,480,0,3,,,,,,,,,2,,,55,0
533700,set_tempo,1860,1,0,,,,,,1363636,,,,,,,
533760,set_tempo,60,1,0,,,,,,1333333,,,,,,,
533760,note_off,1440,0,1,,,,,,,,,0,,,79,0
533760,note_on,0,0,1,,,,,,,,,0,,,77,62
533760,note_off,0,0,3,,,,,,,,,2,,,52,0
533760,note_off,0,0,3,,,,,,,,,2,,,46,0
533760,control_change,480,0,3,,,,,,,64,0,2,,,,
533760,note_on,0,0,3,,,,,,,,,2,,,67,59
533760,note_on,0,0,3,,,,,,,,,2,,,61,59
533760,note_on,0,0,3,,,,,,,,,2,,,46,59
533760,note_on,0,0,3,,,,,,,,,2,,,73,59
533760,note_off,0,0,3,,,,,,,,,2,,,67,0
533760,note_off,0,0,3,,,,,,,,,2,,,70,0
533760,note_off,0,0,3,,,,,,,,,2,,,73,0
533760,note_on,0,0,3,,,,,,,,,2,,,70,59
533760,note_off,0,0,3,,,,,,,,,2,,,61,0
533820,control_change,60,0,3,,,,,,,64,127,2,,,,
534120,note_off,360,0,1,,,,,,,,,0,,,77,0
534120,note_on,0,0,1,,,,,,,,,0,,,76,61
534240,note_off,120,0,1,,,,,,,,,0,,,76,0
534240,note_on,0,0,1,,,,,,,,,0,,,79,61
534240,note_on,420,0,3,,,,,,,,,2,,,52,53
534720,note_off,480,0,3,,,,,,,,,2,,,52,0
534720,note_on,0,0,3,,,,,,,,,2,,,55,49
535200,note_on,0,0,3,,,,,,,,,2,,,52,46
535200,note_off,480,0,3,,,,,,,,,2,,,55,0
535200,note_off,0,0,3,,,,,,,,,2,,,73,0
535200,note_off,0,0,3,,,,,,,,,2,,,46,0
535200,note_off,0,0,3,,,,,,,,,2,,,67,0
535200,note_off,0,0,3,,,,,,,,,2,,,70,0
535200,note_on,0,0,3,,,,,,,,,2,,,73,46
535200,note_on,0,0,3,,,,,,,,,2,,,46,46
535200,note_on,0,0,1,,,,,,,,,0,,,79,63
535200,note_off,960,0,1,,,,,,,,,0,,,79,0
535560,note_off,360,0,1,,,,,,,,,0,,,79,0
535560,note_on,0,0,1,,,,,,,,,0,,,85,63
535620,set_tempo,1860,1,0,,,,,,1363636,,,,,,,
535680,note_on,0,0,1,,,,,,,,,0,,,85,63
535680,control_change,480,0,3,,,,,,,64,0,2,,,,
535680,note_off,0,0,3,,,,,,,,,2,,,73,0
535680,note_off,0,0,3,,,,,,,,,2,,,52,0
535680,note_off,0,0,3,,,,,,,,,2,,,46,0
535680,note_off,0,0,3,,,,,,,,,2,,,61,0
535680,note_off,120,0,1,,,,,,,,,0,,,85,0
535680,set_tempo,60,1,0,,,,,,1333333,,,,,,,
536160,note_on,480,0,3,,,,,,,,,2,,,44,47
536160,note_on,0,0,3,,,,,,,,,2,,,72,47
536160,note_on,0,0,3,,,,,,,,,2,,,53,47
536160,note_on,0,0,3,,,,,,,,,2,,,48,47
536160,note_off,480,0,1,,,,,,,,,0,,,85,0
536160,note_on,0,0,1,,,,,,,,,0,,,84,63
536520,note_on,0,0,1,,,,,,,,,0,,,77,60
536520,note_off,360,0,1,,,,,,,,,0,,,84,0
536574,note_off,0,0,3,,,,,,,,,2,,,44,0
536574,note_off,414,0,3,,,,,,,,,2,,,48,0
536574,note_off,0,0,3,,,,,,,,,2,,,53,0
536574,note_off,0,0,3,,,,,,,,,2,,,72,0
536580,set_tempo,900,1,0,,,,,,1363636,,,,,,,
536640,set_tempo,60,1,0,,,,,,1333333,,,,,,,
536640,note_off,120,0,1,,,,,,,,,0,,,77,0
536640,note_on,0,0,1,,,,,,,,,0,,,77,60
537120,note_on,0,0,3,,,,,,,,,2,,,64,44
537120,note_on,0,0,3,,,,,,,,,2,,,48,44
537120,note_off,480,0,1,,,,,,,,,0,,,77,0
537120,note_on,0,0,1,,,,,,,,,0,,,76,63
537120,note_on,0,0,3,,,,,,,,,2,,,55,44
537120,note_on,546,0,3,,,,,,,,,2,,,70,44
537480,note_off,360,0,1,,,,,,,,,0,,,76,0
537480,note_on,0,0,1,,,,,,,,,0,,,79,63
537534,note_off,0,0,3,,,,,,,,,2,,,64,0
537534,note_off,0,0,3,,,,,,,,,2,,,48,0
537534,note_off,414,0,3,,,,,,,,,2,,,55,0
537534,note_off,0,0,3,,,,,,,,,2,,,70,0
537540,set_tempo,900,1,0,,,,,,1363636,,,,,,,
537600,note_on,0,0,1,,,,,,,,,0,,,79,63
537600,note_off,120,0,1,,,,,,,,,0,,,79,0
537840,note_on,0,0,1,,,,,,,,,0,,,80,59
537840,note_off,240,0,1,,,,,,,,,0,,,79,0
538080,note_on,546,0,3,,,,,,,,,2,,,53,42
538080,note_on,0,0,3,,,,,,,,,2,,,65,42
538080,note_on,0,0,3,,,,,,,,,2,,,68,42
538411,note_off,0,0,3,,,,,,,,,2,,,53,0
538411,note_off,331,0,3,,,,,,,,,2,,,68,0
538411,note_off,0,0,3,,,,,,,,,2,,,65,0
538560,note_on,149,0,3,,,,,,,,,2,,,68,40
538560,note_on,0,0,3,,,,,,,,,2,,,53,40
538560,note_on,0,0,3,,,,,,,,,2,,,65,40
538740,set_tempo,1200,1,0,,,,,,1428571,,,,,,,
538752,note_off,192,0,3,,,,,,,,,2,,,65,0
538752,note_off,0,0,3,,,,,,,,,2,,,53,0
538752,note_off,0,0,3,,,,,,,,,2,,,68,0
538777,note_off,937,0,1,,,,,,,,,0,,,80,0
538800,note_on,23,0,1,,,,,,,,,0,,,73,56
538800,set_tempo,60,1,0,,,,,,1333333,,,,,,,
538800,note_on,48,0,3,,,,,,,,,2,,,65,51
538800,note_on,0,0,3,,,,,,,,,2,,,68,51
539040,note_on,0,0,3,,,,,,,,,2,,,68,54
539040,note_on,0,0,3,,,,,,,,,2,,,66,54
539040,note_on,0,0,3,,,,,,,,,2,,,63,54
539040,note_off,0,0,3,,,,,,,,,2,,,65,0
539040,note_off,240,0,3,,,,,,,,,2,,,68,0
539040,note_on,0,0,1,,,,,,,,,0,,,72,57
539040,note_off,240,0,1,,,,,,,,,0,,,73,0
539280,note_off,240,0,1,,,,,,,,,0,,,72,0
539280,note_off,240,0,3,,,,,,,,,2,,,68,0
539280,note_off,0,0,3,,,,,,,,,2,,,66,0
539280,note_off,0,0,3,,,,,,,,,2,,,63,0
539280,note_on,0,0,3,,,,,,,,,2,,,68,58
539280,note_on,0,0,3,,,,,,,,,2,,,61,58
539280,note_on,0,0,3,,,,,,,,,2,,,65,58
539280,note_on,0,0,1,,,,,,,,,0,,,73,58
539460,set_tempo,660,1,0,,,,,,1363636,,,,,,,
539520,note_on,0,0,3,,,,,,,,,2,,,68,56
539520,note_off,240,0,3,,,,,,,,,2,,,65,0
539520,note_on,0,0,3,,,,,,,,,2,,,63,56
539520,note_on,0,0,3,,,,,,,,,2,,,60,56
539520,set_tempo,60,1,0,,,,,,1276595,,,,,,,
539520,note_off,0,0,3,,,,,,,,,2,,,68,0
539520,note_off,0,0,3,,,,,,,,,2,,,61,0
539520,note_off,240,0,1,,,,,,,,,0,,,73,0
539520,note_on,0,0,1,,,,,,,,,0,,,77,58
539760,note_off,240,0,1,,,,,,,,,0,,,77,0
539760,note_on,0,0,1,,,,,,,,,0,,,75,55
539820,note_off,60,0,1,,,,,,,,,0,,,75,0
539820,note_on,0,0,1,,,,,,,,,0,,,77,57
539880,note_on,0,0,1,,,,,,,,,0,,,75,58
539880,note_off,60,0,1,,,,,,,,,0,,,77,0
539940,note_on,0,0,1,,,,,,,,,0,,,74,59
539940,note_off,60,0,1,,,,,,,,,0,,,75,0
540000,note_on,0,0,1,,,,,,,,,0,,,75,61
540000,note_on,0,0,3,,,,,,,,,2,,,69,58
540000,note_off,480,0,3,,,,,,,,,2,,,60,0
540000,note_off,0,0,3,,,,,,,,,2,,,63,0
540000,note_off,0,0,3,,,,,,,,,2,,,68,0
540000,note_on,0,0,3,,,,,,,,,2,,,60,58
540000,note_off,60,0,1,,,,,,,,,0,,,74,0
540000,note_on,0,0,3,,,,,,,,,2,,,63,58
540360,note_off,360,0,1,,,,,,,,,0,,,75,0
540360,note_on,0,0,1,,,,,,,,,0,,,77,61
540480,note_on,0,0,1,,,,,,,,,0,,,78,62
540480,note_off,120,0,1,,,,,,,,,0,,,77,0
540720,note_off,0,0,3,,,,,,,,,2,,,69,0
540720,note_on,0,0,3,,,,,,,,,2,,,58,60
540720,note_on,0,0,3,,,,,,,,,2,,,61,60
540720,note_off,720,0,3,,,,,,,,,2,,,60,0
540720,note_on,0,0,3,,,,,,,,,2,,,66,60
540720,note_off,0,0,3,,,,,,,,,2,,,63,0
540960,set_tempo,1440,1,0,,,,,,1333333,,,,,,,
540960,note_on,0,0,3,,,,,,,,,2,,,60,61
540960,note_on,0,0,3,,,,,,,,,2,,,65,61
540960,note_on,0,0,3,,,,,,,,,2,,,57,61
540960,note_off,0,0,3,,,,,,,,,2,,,66,0
540960,note_off,0,0,3,,,,,,,,,2,,,61,0
540960,note_off,240,0,3,,,,,,,,,2,,,58,0
541080,note_on,0,0,1,,,,,,,,,0,,,77,65
541080,note_off,600,0,1,,,,,,,,,0,,,78,0
541200,note_on,0,0,1,,,,,,,,,0,,,87,68
541200,note_off,120,0,1,,,,,,,,,0,,,77,0
541200,note_on,0,0,3,,,,,,,,,2,,,60,62
541200,note_on,0,0,3,,,,,,,,,2,,,57,62
541200,note_on,0,0,3,,,,,,,,,2,,,65,62
541200,note_off,0,0,3,,,,,,,,,2,,,65,0
541200,note_off,240,0,3,,,,,,,,,2,,,60,0
541200,note_off,0,0,3,,,,,,,,,2,,,57,0
541320,note_off,120,0,1,,,,,,,,,0,,,87,0
541320,note_on,0,0,1,,,,,,,,,0,,,84,71
541380,set_tempo,420,1,0,,,,,,1428571,,,,,,,
541440,note_on,0,0,1,,,,,,,,,0,,,84,74
541440,note_on,0,0,3,,,,,,,,,2,,,65,64
541440,note_off,120,0,1,,,,,,,,,0,,,84,0
541440,note_on,0,0,3,,,,,,,,,2,,,60,64
541440,note_off,0,0,3,,,,,,,,,2,,,65,0
541440,note_off,0,0,3,,,,,,,,,2,,,57,0
541440,note_off,240,0,3,,,,,,,,,2,,,60,0
541440,note_on,0,0,3,,,,,,,,,2,,,57,64
541860,set_tempo,480,1,0,,,,,,1578947,,,,,,,
541920,note_on,0,0,3,,,,,,,,,2,,,65,54
541920,note_off,480,0,3,,,,,,,,,2,,,65,0
541920,note_off,0,0,3,,,,,,,,,2,,,57,0
541920,note_off,0,0,3,,,,,,,,,2,,,60,0
541920,note_on,0,0,3,,,,,,,,,2,,,58,54
541920,note_on,0,0,3,,,,,,,,,2,,,61,54
542160,note_off,720,0,1,,,,,,,,,0,,,84,0
542160,note_on,0,0,1,,,,,,,,,0,,,87,59
542280,note_on,0,0,1,,,,,,,,,0,,,85,55
542280,note_off,120,0,1,,,,,,,,,0,,,87,0
542400,note_off,480,0,3,,,,,,,,,2,,,61,0
542400,note_off,0,0,3,,,,,,,,,2,,,65,0
542400,note_off,0,0,3,,,,,,,,,2,,,58,0
542437,note_off,157,0,1,,,,,,,,,0,,,85,0
542820,set_tempo,960,1,0,,,,,,1428571,,,,,,,
542880,note_on,443,0,1,,,,,,,,,0,,,66,59
543120,note_on,0,0,1,,,,,,,,,0,,,65,58
543120,note_off,240,0,1,,,,,,,,,0,,,66,0
543300,set_tempo,480,1,0,,,,,,1500000,,,,,,,
543360,note_on,0,0,3,,,,,,,,,2,,,36,58
543360,set_tempo,60,1,0,,,,,,1333333,,,,,,,
543360,note_on,0,0,1,,,,,,,,,0,,,65,56
543360,note_off,240,0,1,,,,,,,,,0,,,65,0
543360,control_change,960,0,3,,,,,,,64,127,2,,,,
543360,note_on,0,0,3,,,,,,,,,2,,,49,58
543720,note_on,0,0,1,,,,,,,,,0,,,64,55
543720,note_off,360,0,1,,,,,,,,,0,,,65,0
543780,set_tempo,420,1,0,,,,,,1363636,,,,,,,
543840,set_tempo,60,1,0,,,,,,1333333,,,,,,,
543840,note_on,0,0,1,,,,,,,,,0,,,67,54
543840,note_off,120,0,1,,,,,,,,,0,,,64,0
543840,note_off,480,0,3,,,,,,,,,2,,,49,0
543840,note_on,0,0,3,,,,,,,,,2,,,40,56
544320,note_off,480,0,3,,,,,,,,,2,,,40,0
544320,note_on,0,0,3,,,,,,,,,2,,,43,53
544740,set_tempo,900,1,0,,,,,,1363636,,,,,,,
544800,note_on,0,0,1,,,,,,,,,0,,,67,70
544800,note_off,960,0,1,,,,,,,,,0,,,67,0
544800,note_on,0,0,3,,,,,,,,,2,,,44,57
544800,note_on,0,0,3,,,,,,,,,2,,,36,57
544800,control_change,480,0,3,,,,,,,64,0,2,,,,
544800,note_off,0,0,3,,,,,,,,,2,,,43,0
544800,note_on,0,0,3,,,,,,,,,2,,,60,57
544800,note_off,0,0,3,,,,,,,,,2,,,36,0
544800,note_on,0,0,3,,,,,,,,,2,,,32,57
544800,set_tempo,60,1,0,,,,,,1333333,,,,,,,
544800,note_on,0,0,3,,,,,,,,,2,,,56,57
545160,note_on,0,0,1,,,,,,,,,0,,,65,65
545160,note_off,360,0,1,,,,,,,,,0,,,67,0
545220,set_tempo,420,1,0,,,,,,1363636,,,,,,,
545280,note_off,0,0,3,,,,,,,,,2,,,44,0
545280,note_off,0,0,3,,,,,,,,,2,,,36,0
545280,note_off,480,0,3,,,,,,,,,2,,,60,0
545280,note_off,0,0,3,,,,,,,,,2,,,32,0
545280,note_on,0,0,3,,,,,,,,,2,,,36,60
545280,note_on,0,0,3,,,,,,,,,2,,,31,60
545280,note_on,0,0,1,,,,,,,,,0,,,65,72
545280,note_off,0,0,3,,,,,,,,,2,,,56,0
545280,set_tempo,60,1,0,,,,,,1333333,,,,,,,
545280,note_on,0,0,3,,,,,,,,,2,,,43,60
545280,note_on,0,0,3,,,,,,,,,2,,,60,60
545280,note_on,0,0,3,,,,,,,,,2,,,58,60
545280,note_off,120,0,1,,,,,,,,,0,,,65,0
545640,note_on,0,0,1,,,,,,,,,0,,,64,69
545640,note_off,360,0,1,,,,,,,,,0,,,65,0
545700,set_tempo,420,1,0,,,,,,1363636,,,,,,,
545760,set_tempo,60,1,0,,,,,,1363636,,,,,,,
545760,note_off,120,0,1,,,,,,,,,0,,,64,0
545760,note_on,0,0,1,,,,,,,,,0,,,67,77
545760,note_off,0,0,3,,,,,,,,,2,,,43,0
545760,note_on,0,0,3,,,,,,,,,2,,,41,63
545760,note_on,0,0,3,,,,,,,,,2,,,36,63
545760,note_on,0,0,3,,,,,,,,,2,,,60,63
545760,note_on,0,0,3,,,,,,,,,2,,,29,63
545760,note_off,0,0,3,,,,,,,,,2,,,31,0
545760,note_off,0,0,3,,,,,,,,,2,,,36,0
545760,note_off,0,0,3,,,,,,,,,2,,,58,0
545760,note_on,0,0,3,,,,,,,,,2,,,56,63
545760,note_off,480,0,3,,,,,,,,,2,,,60,0
546120,note_off,360,0,1,,,,,,,,,0,,,67,0
546120,note_on,0,0,1,,,,,,,,,0,,,65,73
546180,set_tempo,420,1,0,,,,,,1578947,,,,,,,
546240,note_on,0,0,3,,,,,,,,,2,,,36,68
546240,note_off,480,0,3,,,,,,,,,2,,,60,0
546240,note_off,0,0,3,,,,,,,,,2,,,56,0
546240,note_off,0,0,3,,,,,,,,,2,,,36,0
546240,note_off,0,0,3,,,,,,,,,2,,,41,0
546240,note_off,0,0,3,,,,,,,,,2,,,29,0
546240,set_tempo,60,1,0,,,,,,1666666,,,,,,,
546240,note_on,0,0,3,,,,,,,,,2,,,28,68
546240,note_on,0,0,3,,,,,,,,,2,,,55,68
546240,note_on,0,0,3,,,,,,,,,2,,,60,68
546240,note_on,0,0,1,,,,,,,,,0,,,68,81
546240,note_off,120,0,1,,,,,,,,,0,,,65,0
546240,note_on,0,0,3,,,,,,,,,2,,,40,68
546600,note_off,360,0,1,,,,,,,,,0,,,68,0
546600,note_on,0,0,1,,,,,,,,,0,,,67,69
546600,set_tempo,360,1,0,,,,,,1363636,,,,,,,
546720,note_on,0,0,1,,,,,,,,,0,,,64,64
546720,note_off,480,0,3,,,,,,,,,2,,,60,0
546720,note_off,0,0,3,,,,,,,,,2,,,55,0
546720,note_off,0,0,3,,,,,,,,,2,,,28,0
546720,note_off,0,0,3,,,,,,,,,2,,,36,0
546720,note_off,0,0,3,,,,,,,,,2,,,40,0
546720,note_off,120,0,1,,,,,,,,,0,,,67,0
546840,note_on,0,0,1,,,,,,,,,0,,,67,63
546840,note_off,120,0,1,,,,,,,,,0,,,64,0
546960,note_off,120,0,1,,,,,,,,,0,,,67,0
546960,note_on,0,0,1,,,,,,,,,0,,,70,62
547080,note_on,0,0,1,,,,,,,,,0,,,73,61
547080,note_off,120,0,1,,,,,,,,,0,,,70,0
547200,note_off,120,0,1,,,,,,,,,0,,,73,0
547200,note_on,0,0,1,,,,,,,,,0,,,72,60
547320,note_off,120,0,1,,,,,,,,,0,,,72,0
547320,note_on,0,0,1,,,,,,,,,0,,,70,59
547440,note_off,120,0,1,,,,,,,,,0,,,70,0
547440,note_on,0,0,1,,,,,,,,,0,,,68,60
547560,note_on,0,0,1,,,,,,,,,0,,,67,60
547560,note_off,120,0,1,,,,,,,,,0,,,68,0
547620,set_tempo,1020,1,0,,,,,,1428571,,,,,,,
547680,set_tempo,60,1,0,,,,,,1363636,,,,,,,
547680,note_on,0,0,1,,,,,,,,,0,,,70,60
547680,note_off,120,0,1,,,,,,,,,0,,,67,0
547800,note_on,0,0,1,,,,,,,,,0,,,76,60
547800,note_off,120,0,1,,,,,,,,,0,,,70,0
547920,note_off,120,0,1,,,,,,,,,0,,,76,0
547920,note_on,0,0,1,,,,,,,,,0,,,79,60
548040,note_off,120,0,1,,,,,,,,,0,,,79,0
548040,note_on,0,0,1,,,,,,,,,0,,,82,61
548160,note_off,120,0,1,,,,,,,,,0,,,82,0
548160,note_on,0,0,1,,,,,,,,,0,,,80,61
548280,note_off,120,0,1,,,,,,,,,0,,,80,0
548280,note_on,0,0,1,,,,,,,,,0,,,79,61
548400,note_off,120,0,1,,,,,,,,,0,,,79,0
548400,note_on,0,0,1,,,,,,,,,0,,,77,61
548520,note_off,120,0,1,,,,,,,,,0,,,77,0
548520,note_on,0,0,1,,,,,,,,,0,,,76,61
548580,set_tempo,900,1,0,,,,,,1500000,,,,,,,
548640,set_tempo,60,1,0,,,,,,1363636,,,,,,,
548640,note_on,0,0,1,,,,,,,,,0,,,79,62
548640,note_off,120,0,1,,,,,,,,,0,,,76,0
548760,note_off,120,0,1,,,,,,,,,0,,,79,0
548760,note_on,0,0,1,,,,,,,,,0,,,82,62
548880,note_off,120,0,1,,,,,,,,,0,,,82,0
548880,note_on,0,0,1,,,,,,,,,0,,,84,62
549000,note_off,120,0,1,,,,,,,,,0,,,84,0
549000,note_on,0,0,1,,,,,,,,,0,,,85,62
549080,set_tempo,440,1,0,,,,,,1428571,,,,,,,
549120,note_off,120,0,1,,,,,,,,,0,,,85,0
549120,note_on,0,0,1,,,,,,,,,0,,,84,65
549240,note_on,0,0,1,,,,,,,,,0,,,82,65
549240,note_off,120,0,1,,,,,,,,,0,,,84,0
549360,note_on,0,0,1,,,,,,,,,0,,,80,64
549360,note_off,120,0,1,,,,,,,,,0,,,82,0
549480,note_on,0,0,1,,,,,,,,,0,,,79,63
549480,note_off,120,0,1,,,,,,,,,0,,,80,0
549540,set_tempo,460,1,0,,,,,,1500000,,,,,,,
549600,set_tempo,60,1,0,,,,,,1428571,,,,,,,
549600,note_off,120,0,1,,,,,,,,,0,,,79,0
549600,note_on,0,0,1,,,,,,,,,0,,,82,62
549720,note_off,120,0,1,,,,,,,,,0,,,82,0
549720,note_on,0,0,1,,,,,,,,,0,,,79,61
549840,note_on,0,0,1,,,,,,,,,0,,,77,61
549840,note_off,120,0,1,,,,,,,,,0,,,79,0
549960,note_on,0,0,1,,,,,,,,,0,,,76,60
549960,note_off,120,0,1,,,,,,,,,0,,,77,0
550040,set_tempo,440,1,0,,,,,,1500000,,,,,,,
550080,note_on,0,0,1,,,,,,,,,0,,,82,59
550080,note_off,120,0,1,,,,,,,,,0,,,76,0
550200,note_on,0,0,1,,,,,,,,,0,,,79,58
550200,note_off,120,0,1,,,,,,,,,0,,,82,0
550320,note_off,120,0,1,,,,,,,,,0,,,79,0
550320,note_on,0,0,1,,,,,,,,,0,,,77,57
550440,note_off,120,0,1,,,,,,,,,0,,,77,0
550440,note_on,0,0,1,,,,,,,,,0,,,76,57
550480,set_tempo,440,1,0,,,,,,1666666,,,,,,,
550560,note_on,18720,0,2,,,,,,,,,1,,,79,59
550560,note_on,0,0,1,,,,,,,,,0,,,91,56
550560,note_off,120,0,1,,,,,,,,,0,,,76,0
550638,note_off,78,0,1,,,,,,,,,0,,,91,0
550638,note_off,78,0,2,,,,,,,,,1,,,79,0
550680,note_on,42,0,2,,,,,,,,,1,,,76,61
550680,note_on,42,0,1,,,,,,,,,0,,,88,61
550740,set_tempo,260,1,0,,,,,,1714285,,,,,,,
550758,note_off,78,0,1,,,,,,,,,0,,,88,0
550758,note_off,78,0,2,,,,,,,,,1,,,76,0
550800,note_on,42,0,2,,,,,,,,,1,,,73,63
550800,note_on,42,0,1,,,,,,,,,0,,,85,63
550860,set_tempo,120,1,0,,,,,,1666666,,,,,,,
550878,note_off,78,0,1,,,,,,,,,0,,,85,0
550878,note_off,78,0,2,,,,,,,,,1,,,73,0
550920,note_on,42,0,1,,,,,,,,,0,,,84,66
550920,note_on,42,0,2,,,,,,,,,1,,,72,66
550980,set_tempo,120,1,0,,,,,,2727272,,,,,,,
550998,note_off,78,0,1,,,,,,,,,0,,,84,0
550998,note_off,78,0,2,,,,,,,,,1,,,72,0
551040,note_on,42,0,1,,,,,,,,,0,,,84,71
551040,note_on,0,0,3,,,,,,,,,2,,,52,41
551040,note_on,4320,0,3,,,,,,,,,2,,,55,41
551040,note_on,42,0,2,,,,,,,,,1,,,72,71
551040,set_tempo,60,1,0,,,,,,1333333,,,,,,,
551160,note_on,120,0,3,,,,,,,,,2,,,60,41
551270,note_off,110,0,3,,,,,,,,,2,,,52,0
551270,note_off,0,0,3,,,,,,,,,2,,,55,0
551280,note_on,0,0,3,,,,,,,,,2,,,52,41
551280,note_on,0,0,3,,,,,,,,,2,,,55,41
551280,note_off,10,0,3,,,,,,,,,2,,,60,0
551400,note_on,120,0,3,,,,,,,,,2,,,60,41
551510,note_off,110,0,3,,,,,,,,,2,,,52,0
551510,note_off,0,0,3,,,,,,,,,2,,,55,0
551520,note_on,0,0,3,,,,,,,,,2,,,55,41
551520,note_off,480,0,1,,,,,,,,,0,,,84,0
551520,note_on,0,0,1,,,,,,,,,0,,,79,69
551520,note_off,480,0,2,,,,,,,,,1,,,72,0
551520,note_off,10,0,3,,,,,,,,,2,,,60,0
551520,note_on,0,0,2,,,,,,,,,1,,,67,69
551520,note_on,0,0,3,,,,,,,,,2,,,52,41
551640,note_on,120,0,3,,,,,,,,,2,,,60,41
551750,note_off,0,0,3,,,,,,,,,2,,,55,0
551750,note_off,110,0,3,,,,,,,,,2,,,52,0
551760,note_on,0,0,3,,,,,,,,,2,,,52,40
551760,note_on,0,0,3,,,,,,,,,2,,,55,40
551760,note_off,10,0,3,,,,,,,,,2,,,60,0
551880,note_on,120,0,3,,,,,,,,,2,,,60,40
551990,note_off,110,0,3,,,,,,,,,2,,,52,0
551990,note_off,0,0,3,,,,,,,,,2,,,55,0
552000,note_on,0,0,3,,,,,,,,,2,,,55,40
552000,note_on,0,0,3,,,,,,,,,2,,,52,40
552000,note_off,10,0,3,,,,,,,,,2,,,60,0
552120,note_on,120,0,3,,,,,,,,,2,,,60,40
552230,note_off,0,0,3,,,,,,,,,2,,,55,0
552230,note_off,110,0,3,,,,,,,,,2,,,52,0
552240,note_on,0,0,3,,,,,,,,,2,,,55,40
552240,note_off,10,0,3,,,,,,,,,2,,,60,0
552240,note_on,0,0,3,,,,,,,,,2,,,52,40
552360,note_on,120,0,3,,,,,,,,,2,,,60,40
552470,note_off,110,0,3,,,,,,,,,2,,,52,0
552470,note_off,0,0,3,,,,,,,,,2,,,55,0
552480,note_off,960,0,2,,,,,,,,,1,,,67,0
552480,note_on,0,0,2,,,,,,,,,1,,,69,63
552480,note_on,0,0,1,,,,,,,,,0,,,81,63
552480,note_on,0,0,3,,,,,,,,,2,,,53,39
552480,note_on,0,0,3,,,,,,,,,2,,,57,39
552480,note_off,960,0,1,,,,,,,,,0,,,79,0
552480,note_off,10,0,3,,,,,,,,,2,,,60,0
552600,note_on,120,0,3,,,,,,,,,2,,,60,39
552710,note_off,110,0,3,,,,,,,,,2,,,57,0
552710,note_off,0,0,3,,,,,,,,,2,,,53,0
552720,note_off,240,0,1,,,,,,,,,0,,,81,0
552720,note_on,0,0,1,,,,,,,,,0,,,77,62
552720,note_on,0,0,3,,,,,,,,,2,,,53,39
552720,note_on,0,0,3,,,,,,,,,2,,,57,39
552720,note_off,10,0,3,,,,,,,,,2,,,60,0
552720,note_off,240,0,2,,,,,,,,,1,,,69,0
552720,note_on,0,0,2,,,,,,,,,1,,,65,62
552840,note_on,120,0,3,,,,,,,,,2,,,60,39
552900,set_tempo,1860,1,0,,,,,,1363636,,,,,,,
552950,note_off,110,0,3,,,,,,,,,2,,,53,0
552950,note_off,0,0,3,,,,,,,,,2,,,57,0
552960,note_on,0,0,2,,,,,,,,,1,,,65,61
552960,note_off,240,0,2,,,,,,,,,1,,,65,0
552960,note_off,240,0,1,,,,,,,,,0,,,77,0
552960,set_tempo,60,1,0,,,,,,1333333,,,,,,,
552960,note_on,0,0,1,,,,,,,,,0,,,77,61
552960,note_off,10,0,3,,,,,,,,,2,,,60,0
552960,note_on,0,0,3,,,,,,,,,2,,,55,39
552960,note_on,0,0,3,,,,,,,,,2,,,58,39
553080,note_on,120,0,3,,,,,,,,,2,,,60,39
553190,note_off,0,0,3,,,,,,,,,2,,,55,0
553190,note_off,110,0,3,,,,,,,,,2,,,58,0
553200,note_off,240,0,2,,,,,,,,,1,,,65,0
553200,note_off,240,0,1,,,,,,,,,0,,,77,0
553200,note_off,10,0,3,,,,,,,,,2,,,60,0
553200,note_on,0,0,3,,,,,,,,,2,,,55,38
553200,note_on,0,0,3,,,,,,,,,2,,,58,38
553200,note_on,0,0,1,,,,,,,,,0,,,76,60
553260,note_off,60,0,1,,,,,,,,,0,,,76,0
553260,note_on,0,0,1,,,,,,,,,0,,,77,59
553320,note_on,120,0,3,,,,,,,,,2,,,60,38
553320,note_off,60,0,1,,,,,,,,,0,,,77,0
553320,note_on,0,0,1,,,,,,,,,0,,,76,59
553380,note_off,60,0,1,,,,,,,,,0,,,76,0
553380,note_on,0,0,1,,,,,,,,,0,,,74,56
553430,note_off,110,0,3,,,,,,,,,2,,,58,0
553430,note_off,0,0,3,,,,,,,,,2,,,55,0
553440,note_off,60,0,1,,,,,,,,,0,,,74,0
553440,note_on,0,0,1,,,,,,,,,0,,,76,56
553440,note_on,240,0,2,,,,,,,,,1,,,64,56
553440,note_off,10,0,3,,,,,,,,,2,,,60,0
553440,note_on,0,0,3,,,,,,,,,2,,,58,38
553440,note_on,0,0,3,,,,,,,,,2,,,55,38
553560,note_on,120,0,3,,,,,,,,,2,,,60,38
553670,note_off,110,0,3,,,,,,,,,2,,,55,0
553670,note_off,0,0,3,,,,,,,,,2,,,58,0
553680,note_on,0,0,2,,,,,,,,,1,,,65,59
553680,note_off,240,0,2,,,,,,,,,1,,,64,0
553680,note_on,0,0,3,,,,,,,,,2,,,58,38
553680,note_off,10,0,3,,,,,,,,,2,,,60,0
553680,note_on,0,0,3,,,,,,,,,2,,,55,38
553680,note_off,240,0,1,,,,,,,,,0,,,76,0
553680,note_on,0,0,1,,,,,,,,,0,,,77,59
553800,note_on,120,0,3,,,,,,,,,2,,,60,38
553910,note_off,110,0,3,,,,,,,,,2,,,58,0
553910,note_off,0,0,3,,,,,,,,,2,,,55,0
553920,note_off,240,0,2,,,,,,,,,1,,,65,0
553920,note_on,0,0,2,,,,,,,,,1,,,67,62
553920,note_on,0,0,3,,,,,,,,,2,,,55,40
553920,note_on,0,0,3,,,,,,,,,2,,,58,40
553920,note_off,10,0,3,,,,,,,,,2,,,60,0
553920,note_off,240,0,1,,,,,,,,,0,,,77,0
553920,note_on,0,0,1,,,,,,,,,0,,,79,62
554040,note_on,120,0,3,,,,,,,,,2,,,60,41
554112,note_off,192,0,1,,,,,,,,,0,,,79,0
554112,note_off,192,0,2,,,,,,,,,1,,,67,0
554150,note_off,0,0,3,,,,,,,,,2,,,58,0
554150,note_off,110,0,3,,,,,,,,,2,,,55,0
554160,note_on,48,0,1,,,,,,,,,0,,,81,64
554160,note_on,48,0,2,,,,,,,,,1,,,69,64
554160,note_on,0,0,3,,,,,,,,,2,,,57,43
554160,note_off,10,0,3,,,,,,,,,2,,,60,0
554160,note_on,0,0,3,,,,,,,,,2,,,53,43
554280,note_on,120,0,3,,,,,,,,,2,,,60,44
554352,note_off,192,0,2,,,,,,,,,1,,,69,0
554352,note_off,192,0,1,,,,,,,,,0,,,81,0
554390,note_off,0,0,3,,,,,,,,,2,,,57,0
554390,note_off,110,0,3,,,,,,,,,2,,,53,0
554400,note_on,48,0,1,,,,,,,,,0,,,82,65
554400,note_on,0,0,3,,,,,,,,,2,,,52,46
554400,note_off,10,0,3,,,,,,,,,2,,,60,0
554400,note_on,0,0,3,,,,,,,,,2,,,55,46
554400,note_on,48,0,2,,,,,,,,,1,,,70,67
554520,note_off,120,0,2,,,,,,,,,1,,,70,0
554520,note_on,0,0,2,,,,,,,,,1,,,71,68
554520,note_on,0,0,1,,,,,,,,,0,,,83,68
554520,note_off,120,0,1,,,,,,,,,0,,,82,0
554520,note_on,120,0,3,,,,,,,,,2,,,60,47
554616,note_off,96,0,2,,,,,,,,,1,,,71,0
554616,note_off,96,0,1,,,,,,,,,0,,,83,0
554630,note_off,110,0,3,,,,,,,,,2,,,55,0
554630,note_off,0,0,3,,,,,,,,,2,,,52,0
554640,note_on,24,0,1,,,,,,,,,0,,,83,71
554640,note_off,10,0,3,,,,,,,,,2,,,60,0
554640,note_on,0,0,3,,,,,,,,,2,,,52,49
554640,note_on,0,0,3,,,,,,,,,2,,,55,49
554640,note_on,24,0,2,,,,,,,,,1,,,71,70
554760,note_on,0,0,1,,,,,,,,,0,,,84,74
554760,note_off,120,0,1,,,,,,,,,0,,,83,0
554760,note_off,120,0,2,,,,,,,,,1,,,71,0
554760,note_on,0,0,2,,,,,,,,,1,,,72,71
554760,note_on,120,0,3,,,,,,,,,2,,,60,50
554820,set_tempo,1860,1,0,,,,,,1428571,,,,,,,
554856,note_off,96,0,1,,,,,,,,,0,,,84,0
554856,note_off,96,0,2,,,,,,,,,1,,,72,0
554870,note_off,110,0,3,,,,,,,,,2,,,52,0
554870,note_off,0,0,3,,,,,,,,,2,,,55,0
554880,note_on,24,0,1,,,,,,,,,0,,,83,79
554880,set_tempo,60,1,0,,,,,,1333333,,,,,,,
554880,note_on,24,0,2,,,,,,,,,1,,,71,75
554880,note_off,10,0,3,,,,,,,,,2,,,60,0
554880,note_on,0,0,3,,,,,,,,,2,,,55,53
554880,note_on,0,0,3,,,,,,,,,2,,,52,53
554976,note_off,96,0,2,,,,,,,,,1,,,71,0
554976,note_off,96,0,1,,,,,,,,,0,,,83,0
555000,note_on,24,0,1,,,,,,,,,0,,,84,75
555000,note_on,120,0,3,,,,,,,,,2,,,60,50
555096,note_off,96,0,1,,,,,,,,,0,,,84,0
555110,note_off,0,0,3,,,,,,,,,2,,,55,0
555110,note_off,110,0,3,,,,,,,,,2,,,52,0
555120,note_on,0,0,3,,,,,,,,,2,,,52,47
555120,note_on,0,0,3,,,,,,,,,2,,,55,47
555120,note_off,10,0,3,,,,,,,,,2,,,60,0
555120,note_on,24,0,1,,,,,,,,,0,,,86,71
555216,note_off,96,0,1,,,,,,,,,0,,,86,0
555240,note_on,24,0,1,,,,,,,,,0,,,84,67
555240,note_on,120,0,3,,,,,,,,,2,,,60,45
555336,note_off,96,0,1,,,,,,,,,0,,,84,0
555350,note_off,0,0,3,,,,,,,,,2,,,55,0
555350,note_off,110,0,3,,,,,,,,,2,,,52,0
555360,note_on,24,0,1,,,,,,,,,0,,,79,64
555360,note_on,0,0,3,,,,,,,,,2,,,52,45
555360,note_on,0,0,3,,,,,,,,,2,,,55,45
555360,note_off,10,0,3,,,,,,,,,2,,,60,0
555480,note_on,120,0,3,,,,,,,,,2,,,60,44
555590,note_off,0,0,3,,,,,,,,,2,,,55,0
555590,note_off,110,0,3,,,,,,,,,2,,,52,0
555600,note_off,10,0,3,,,,,,,,,2,,,60,0
555600,note_on,0,0,3,,,,,,,,,2,,,55,44
555600,note_on,0,0,3,,,,,,,,,2,,,52,44
555720,note_on,120,0,3,,,,,,,,,2,,,60,44
555830,note_off,110,0,3,,,,,,,,,2,,,52,0
555830,note_off,0,0,3,,,,,,,,,2,,,55,0
555840,note_on,0,0,3,,,,,,,,,2,,,55,43
555840,note_on,0,0,3,,,,,,,,,2,,,52,43
555840,note_off,10,0,3,,,,,,,,,2,,,60,0
555960,note_on,600,0,1,,,,,,,,,0,,,81,64
555960,note_on,120,0,3,,,,,,,,,2,,,60,43
555967,note_off,7,0,1,,,,,,,,,0,,,79,0
556008,note_off,41,0,1,,,,,,,,,0,,,81,0
556020,note_on,12,0,1,,,,,,,,,0,,,79,64
556068,note_off,48,0,1,,,,,,,,,0,,,79,0
556070,note_off,110,0,3,,,,,,,,,2,,,52,0
556070,note_off,0,0,3,,,,,,,,,2,,,55,0
556080,note_on,0,0,3,,,,,,,,,2,,,52,42
556080,note_on,12,0,1,,,,,,,,,0,,,81,64
556080,note_on,0,0,3,,,,,,,,,2,,,55,42
556080,note_off,10,0,3,,,,,,,,,2,,,60,0
556128,note_off,48,0,1,,,,,,,,,0,,,81,0
556140,note_on,12,0,1,,,,,,,,,0,,,79,64
556188,note_off,48,0,1,,,,,,,,,0,,,79,0
556200,note_on,120,0,3,,,,,,,,,2,,,60,42
556200,note_on,12,0,1,,,,,,,,,0,,,82,63
556260,note_off,60,0,1,,,,,,,,,0,,,82,0
556260,note_on,0,0,1,,,,,,,,,0,,,81,63
556280,set_tempo,1400,1,0,,,,,,1363636,,,,,,,
556308,note_off,48,0,1,,,,,,,,,0,,,81,0
556310,note_off,0,0,3,,,,,,,,,2,,,55,0
556310,note_off,110,0,3,,,,,,,,,2,,,52,0
556320,note_on,0,0,3,,,,,,,,,2,,,53,42
556320,note_off,10,0,3,,,,,,,,,2,,,60,0
556320,note_on,0,0,3,,,,,,,,,2,,,57,42
556320,note_on,12,0,1,,,,,,,,,0,,,82,63
556380,note_off,60,0,1,,,,,,,,,0,,,82,0
556380,note_on,0,0,1,,,,,,,,,0,,,81,63
556428,note_off,48,0,1,,,,,,,,,0,,,81,0
556440,note_on,120,0,3,,,,,,,,,2,,,60,41
556440,note_on,12,0,1,,,,,,,,,0,,,84,63
556500,note_on,0,0,1,,,,,,,,,0,,,83,62
556500,note_off,60,0,1,,,,,,,,,0,,,84,0
556548,note_off,48,0,1,,,,,,,,,0,,,83,0
556550,note_off,0,0,3,,,,,,,,,2,,,53,0
556550,note_off,110,0,3,,,,,,,,,2,,,57,0
556560,note_on,12,0,1,,,,,,,,,0,,,84,62
556560,note_off,10,0,3,,,,,,,,,2,,,60,0
556560,note_on,0,0,3,,,,,,,,,2,,,53,41
556560,note_on,0,0,3,,,,,,,,,2,,,57,41
556590,note_on,30,0,1,,,,,,,,,0,,,83,62
556608,note_off,18,0,1,,,,,,,,,0,,,84,0
556620,note_on,12,0,1,,,,,,,,,0,,,86,62
556638,note_off,18,0,1,,,,,,,,,0,,,83,0
556650,set_tempo,370,1,0,,,,,,1395348,,,,,,,
556650,note_on,12,0,1,,,,,,,,,0,,,84,62
556668,note_off,18,0,1,,,,,,,,,0,,,86,0
556680,note_on,12,0,1,,,,,,,,,0,,,89,62
556680,note_on,120,0,3,,,,,,,,,2,,,60,41
556700,note_off,20,0,1,,,,,,,,,0,,,84,0
556730,note_off,30,0,1,,,,,,,,,0,,,89,0
556740,set_tempo,90,1,0,,,,,,1500000,,,,,,,
556740,note_on,10,0,1,,,,,,,,,0,,,77,62
556790,note_off,110,0,3,,,,,,,,,2,,,53,0
556790,note_off,0,0,3,,,,,,,,,2,,,57,0
556790,note_off,50,0,1,,,,,,,,,0,,,77,0
556800,note_on,1824,0,2,,,,,,,,,1,,,65,61
556800,set_tempo,60,1,0,,,,,,1333333,,,,,,,
556800,note_on,10,0,1,,,,,,,,,0,,,77,61
556800,note_on,0,0,3,,,,,,,,,2,,,55,40
556800,note_on,0,0,3,,,,,,,,,2,,,58,40
556800,note_off,10,0,3,,,,,,,,,2,,,60,0
556920,note_on,120,0,3,,,,,,,,,2,,,60,40
557030,note_off,0,0,3,,,,,,,,,2,,,58,0
557030,note_off,110,0,3,,,,,,,,,2,,,55,0
557040,note_off,240,0,1,,,,,,,,,0,,,77,0
557040,note_on,0,0,3,,,,,,,,,2,,,55,39
557040,note_on,0,0,3,,,,,,,,,2,,,58,39
557040,note_off,10,0,3,,,,,,,,,2,,,60,0
557040,note_on,0,0,1,,,,,,,,,0,,,76,61
557088,note_off,48,0,1,,,,,,,,,0,,,76,0
557100,note_on,12,0,1,,,,,,,,,0,,,77,60
557148,note_off,48,0,1,,,,,,,,,0,,,77,0
557160,note_on,120,0,3,,,,,,,,,2,,,60,39
557160,note_on,12,0,1,,,,,,,,,0,,,76,60
557208,note_off,48,0,1,,,,,,,,,0,,,76,0
557220,note_on,12,0,1,,,,,,,,,0,,,74,60
557268,note_off,48,0,1,,,,,,,,,0,,,74,0
557270,note_off,0,0,3,,,,,,,,,2,,,58,0
557270,note_off,110,0,3,,,,,,,,,2,,,55,0
557280,note_on,0,0,2,,,,,,,,,1,,,64,60
557280,note_off,480,0,2,,,,,,,,,1,,,65,0
557280,note_on,0,0,3,,,,,,,,,2,,,58,39
557280,note_on,0,0,3,,,,,,,,,2,,,55,39
557280,note_off,10,0,3,,,,,,,,,2,,,60,0
557280,note_on,12,0,1,,,,,,,,,0,,,76,60
557400,note_on,120,0,3,,,,,,,,,2,,,60,38
557510,note_off,110,0,3,,,,,,,,,2,,,55,0
557510,note_off,0,0,3,,,,,,,,,2,,,58,0
557520,note_off,10,0,3,,,,,,,,,2,,,60,0
557520,note_on,0,0,3,,,,,,,,,2,,,58,38
557520,note_on,0,0,1,,,,,,,,,0,,,77,62
557520,note_on,0,0,3,,,,,,,,,2,,,55,38
557520,note_off,240,0,1,,,,,,,,,0,,,76,0
557520,note_off,240,0,2,,,,,,,,,1,,,64,0
557520,note_on,0,0,2,,,,,,,,,1,,,65,62
557640,note_on,120,0,3,,,,,,,,,2,,,60,38
557750,note_off,110,0,3,,,,,,,,,2,,,55,0
557750,note_off,0,0,3,,,,,,,,,2,,,58,0
557760,note_on,0,0,3,,,,,,,,,2,,,58,44
557760,note_on,0,0,3,,,,,,,,,2,,,55,44
557760,note_off,10,0,3,,,,,,,,,2,,,60,0
557760,note_off,240,0,1,,,,,,,,,0,,,77,0
557760,note_off,240,0,2,,,,,,,,,1,,,65,0
557760,note_on,0,0,2,,,,,,,,,1,,,67,65
557760,note_on,0,0,1,,,,,,,,,0,,,79,65
557880,note_on,120,0,3,,,,,,,,,2,,,60,47
557952,note_off,192,0,2,,,,,,,,,1,,,67,0
557952,note_off,192,0,1,,,,,,,,,0,,,79,0
557990,note_off,0,0,3,,,,,,,,,2,,,58,0
557990,note_off,110,0,3,,,,,,,,,2,,,55,0
558000,note_on,0,0,3,,,,,,,,,2,,,53,50
558000,note_on,48,0,1,,,,,,,,,0,,,80,67
558000,note_on,0,0,3,,,,,,,,,2,,,56,50
558000,note_off,10,0,3,,,,,,,,,2,,,60,0
558000,note_on,48,0,2,,,,,,,,,1,,,68,67
558120,note_on,120,0,3,,,,,,,,,2,,,60,53
558192,note_off,192,0,1,,,,,,,,,0,,,80,0
558192,note_off,192,0,2,,,,,,,,,1,,,68,0
558230,note_off,0,0,3,,,,,,,,,2,,,56,0
558230,note_off,110,0,3,,,,,,,,,2,,,53,0
558240,note_on,0,0,3,,,,,,,,,2,,,52,56
558240,note_off,10,0,3,,,,,,,,,2,,,60,0
558240,note_on,48,0,1,,,,,,,,,0,,,82,71
558240,note_on,0,0,3,,,,,,,,,2,,,55,56
558240,note_on,48,0,2,,,,,,,,,1,,,70,71
558360,note_on,120,0,3,,,,,,,,,2,,,60,60
558360,note_off,120,0,2,,,,,,,,,1,,,70,0
558360,note_on,0,0,2,,,,,,,,,1,,,71,72
558360,note_on,0,0,1,,,,,,,,,0,,,83,72
558360,note_off,120,0,1,,,,,,,,,0,,,82,0
558456,note_off,96,0,2,,,,,,,,,1,,,71,0
558456,note_off,96,0,1,,,,,,,,,0,,,83,0
558470,note_off,0,0,3,,,,,,,,,2,,,55,0
558470,note_off,110,0,3,,,,,,,,,2,,,52,0
558480,note_on,0,0,3,,,,,,,,,2,,,52,63
558480,note_on,0,0,3,,,,,,,,,2,,,55,63
558480,note_off,10,0,3,,,,,,,,,2,,,60,0
558480,note_on,24,0,1,,,,,,,,,0,,,83,74
558480,note_on,24,0,2,,,,,,,,,1,,,71,74
558600,note_off,120,0,1,,,,,,,,,0,,,83,0
558600,note_on,0,0,1,,,,,,,,,0,,,84,80
558600,note_on,120,0,3,,,,,,,,,2,,,60,66
558600,note_on,0,0,2,,,,,,,,,1,,,72,76
558600,note_off,120,0,2,,,,,,,,,1,,,71,0
558660,set_tempo,1860,1,0,,,,,,1428571,,,,,,,
558696,note_off,96,0,1,,,,,,,,,0,,,84,0
558696,note_off,96,0,2,,,,,,,,,1,,,72,0
558710,note_off,0,0,3,,,,,,,,,2,,,55,0
558710,note_off,110,0,3,,,,,,,,,2,,,52,0
558720,note_off,10,0,3,,,,,,,,,2,,,60,0
558720,note_on,24,0,2,,,,,,,,,1,,,72,86
558720,note_on,24,0,1,,,,,,,,,0,,,84,90
558720,note_on,0,0,3,,,,,,,,,2,,,53,81
558720,note_on,0,0,3,,,,,,,,,2,,,56,81
558720,note_on,0,0,2,,,,,,,,,1,,,80,86
558770,set_tempo,110,1,0,,,,,,1304347,,,,,,,
558798,note_off,0,0,3,,,,,,,,,2,,,56,0
558798,note_off,78,0,3,,,,,,,,,2,,,53,0
558840,note_on,42,0,3,,,,,,,,,2,,,60,78
558912,note_off,192,0,1,,,,,,,,,0,,,84,0
558912,note_off,0,0,2,,,,,,,,,1,,,72,0
558912,note_off,192,0,2,,,,,,,,,1,,,80,0
558918,note_off,78,0,3,,,,,,,,,2,,,60,0
558960,note_on,48,0,2,,,,,,,,,1,,,80,81
558960,note_on,0,0,2,,,,,,,,,1,,,84,81
558960,note_on,42,0,3,,,,,,,,,2,,,64,75
558960,note_on,48,0,1,,,,,,,,,0,,,92,81
559038,note_off,78,0,3,,,,,,,,,2,,,64,0
559080,note_on,42,0,3,,,,,,,,,2,,,65,72
559152,note_off,192,0,1,,,,,,,,,0,,,92,0
559152,note_off,192,0,2,,,,,,,,,1,,,84,0
559152,note_off,0,0,2,,,,,,,,,1,,,80,0
559158,note_off,78,0,3,,,,,,,,,2,,,65,0
559200,note_on,42,0,3,,,,,,,,,2,,,60,69
559278,note_off,78,0,3,,,,,,,,,2,,,60,0
559320,note_on,42,0,3,,,,,,,,,2,,,56,67
559398,note_off,78,0,3,,,,,,,,,2,,,56,0
559440,note_on,42,0,3,,,,,,,,,2,,,55,66
559440,note_on,288,0,1,,,,,,,,,0,,,80,72
559440,note_on,288,0,2,,,,,,,,,1,,,72,72
559518,note_off,78,0,3,,,,,,,,,2,,,55,0
559560,note_on,42,0,3,,,,,,,,,2,,,53,65
559630,set_tempo,860,1,0,,,,,,1333333,,,,,,,
559632,note_off,192,0,1,,,,,,,,,0,,,80,0
559632,note_off,192,0,2,,,,,,,,,1,,,72,0
559638,note_off,78,0,3,,,,,,,,,2,,,53,0
559680,note_on,42,0,3,,,,,,,,,2,,,48,64
559680,note_on,0,0,3,,,,,,,,,2,,,52,64
559758,note_off,0,0,3,,,,,,,,,2,,,48,0
559758,note_off,78,0,3,,,,,,,,,2,,,52,0
559800,note_on,42,0,3,,,,,,,,,2,,,55,62
559878,note_off,78,0,3,,,,,,,,,2,,,55,0
559920,note_on,288,0,2,,,,,,,,,1,,,70,68
559920,note_on,42,0,3,,,,,,,,,2,,,58,61
559920,note_on,288,0,1,,,,,,,,,0,,,79,68
559998,note_off,78,0,3,,,,,,,,,2,,,58,0
560040,note_on,42,0,3,,,,,,,,,2,,,48,60
560112,note_off,192,0,1,,,,,,,,,0,,,79,0
560112,note_off,192,0,2,,,,,,,,,1,,,70,0
560118,note_off,78,0,3,,,,,,,,,2,,,48,0
560160,note_on,42,0,3,,,,,,,,,2,,,49,58
560238,note_off,78,0,3,,,,,,,,,2,,,49,0
560280,note_on,42,0,3,,,,,,,,,2,,,53,57
560358,note_off,78,0,3,,,,,,,,,2,,,53,0
560400,note_on,42,0,3,,,,,,,,,2,,,56,56
560400,note_on,288,0,1,,,,,,,,,0,,,77,64
560400,note_on,288,0,2,,,,,,,,,1,,,68,64
560460,set_tempo,830,1,0,,,,,,1333333,,,,,,,
560478,note_off,78,0,3,,,,,,,,,2,,,56,0
560520,note_on,42,0,3,,,,,,,,,2,,,49,54
560535,set_tempo,75,1,0,,,,,,1363636,,,,,,,
560592,note_off,192,0,2,,,,,,,,,1,,,68,0
560592,note_off,192,0,1,,,,,,,,,0,,,77,0
560598,note_off,78,0,3,,,,,,,,,2,,,49,0
560640,note_on,0,0,3,,,,,,,,,2,,,53,81
560640,note_on,42,0,3,,,,,,,,,2,,,49,81
560640,note_on,48,0,1,,,,,,,,,0,,,77,86
560640,note_on,48,0,2,,,,,,,,,1,,,68,86
560700,set_tempo,165,1,0,,,,,,1304347,,,,,,,
560718,note_off,0,0,3,,,,,,,,,2,,,49,0
560718,note_off,78,0,3,,,,,,,,,2,,,53,0
560760,note_on,42,0,3,,,,,,,,,2,,,56,77
560832,note_off,192,0,2,,,,,,,,,1,,,68,0
560832,note_off,192,0,1,,,,,,,,,0,,,77,0
560838,note_off,78,0,3,,,,,,,,,2,,,56,0
560880,note_on,42,0,3,,,,,,,,,2,,,60,73
560880,note_on,0,0,2,,,,,,,,,1,,,80,79
560880,note_on,48,0,2,,,,,,,,,1,,,77,79
560880,note_on,48,0,1,,,,,,,,,0,,,89,79
560958,note_off,78,0,3,,,,,,,,,2,,,60,0
561000,note_on,42,0,3,,,,,,,,,2,,,61,69
561072,note_off,0,0,2,,,,,,,,,1,,,77,0
561072,note_off,192,0,2,,,,,,,,,1,,,80,0
561072,note_off,192,0,1,,,,,,,,,0,,,89,0
561078,note_off,78,0,3,,,,,,,,,2,,,61,0
561120,note_on,42,0,3,,,,,,,,,2,,,56,65
561198,note_off,78,0,3,,,,,,,,,2,,,56,0
561240,note_on,42,0,3,,,,,,,,,2,,,53,64
561318,note_off,78,0,3,,,,,,,,,2,,,53,0
561360,note_on,288,0,2,,,,,,,,,1,,,65,70
561360,note_on,42,0,3,,,,,,,,,2,,,51,63
561360,note_on,288,0,1,,,,,,,,,0,,,77,71
561360,note_on,0,0,2,,,,,,,,,1,,,68,70
561438,note_off,78,0,3,,,,,,,,,2,,,51,0
561480,note_on,42,0,3,,,,,,,,,2,,,49,61
561540,set_tempo,840,1,0,,,,,,1333333,,,,,,,
561552,note_off,192,0,2,,,,,,,,,1,,,68,0
561552,note_off,0,0,2,,,,,,,,,1,,,65,0
561552,note_off,192,0,1,,,,,,,,,0,,,77,0
561558,note_off,78,0,3,,,,,,,,,2,,,49,0
561600,note_on,0,0,3,,,,,,,,,2,,,41,60
561600,note_on,42,0,3,,,,,,,,,2,,,45,60
561678,note_off,0,0,3,,,,,,,,,2,,,45,0
561678,note_off,78,0,3,,,,,,,,,2,,,41,0
561720,note_on,42,0,3,,,,,,,,,2,,,48,59
561798,note_off,78,0,3,,,,,,,,,2,,,48,0
561840,note_on,0,0,2,,,,,,,,,1,,,63,68
561840,note_on,288,0,2,,,,,,,,,1,,,72,68
561840,note_on,288,0,1,,,,,,,,,0,,,75,66
561840,note_on,42,0,3,,,,,,,,,2,,,53,58
561918,note_off,78,0,3,,,,,,,,,2,,,53,0
561960,note_on,42,0,3,,,,,,,,,2,,,45,57
562032,note_off,0,0,2,,,,,,,,,1,,,72,0
562032,note_off,192,0,2,,,,,,,,,1,,,63,0
562032,note_off,192,0,1,,,,,,,,,0,,,75,0
562038,note_off,78,0,3,,,,,,,,,2,,,45,0
562080,note_on,42,0,3,,,,,,,,,2,,,46,55
562158,note_off,78,0,3,,,,,,,,,2,,,46,0
562200,note_on,42,0,3,,,,,,,,,2,,,49,54
562278,note_off,78,0,3,,,,,,,,,2,,,49,0
562320,note_on,288,0,1,,,,,,,,,0,,,73,61
562320,note_on,288,0,2,,,,,,,,,1,,,70,65
562320,note_on,0,0,2,,,,,,,,,1,,,65,65
562320,note_on,42,0,3,,,,,,,,,2,,,53,53
562380,set_tempo,840,1,0,,,,,,1764705,,,,,,,
562398,note_off,78,0,3,,,,,,,,,2,,,53,0
562440,note_on,42,0,3,,,,,,,,,2,,,46,52
562455,set_tempo,75,1,0,,,,,,2500000,,,,,,,
562512,note_off,192,0,2,,,,,,,,,1,,,65,0
562512,note_off,192,0,1,,,,,,,,,0,,,73,0
562512,note_off,0,0,2,,,,,,,,,1,,,70,0
562518,note_off,78,0,3,,,,,,,,,2,,,46,0
562560,set_tempo,105,1,0,,,,,,1333333,,,,,,,
562560,control_change,42,0,3,,,,,,,64,127,2,,,,
562560,note_on,48,0,1,,,,,,,,,0,,,72,65
562560,note_on,0,0,3,,,,,,,,,2,,,43,61
562560,note_on,0,0,3,,,,,,,,,2,,,56,61
562560,note_on,0,0,3,,,,,,,,,2,,,68,61
562560,note_on,0,0,3,,,,,,,,,2,,,62,61
562560,note_on,0,0,3,,,,,,,,,2,,,65,61
562848,note_off,288,0,1,,,,,,,,,0,,,72,0
562920,note_on,72,0,1,,,,,,,,,0,,,71,64
563016,note_off,96,0,1,,,,,,,,,0,,,71,0
563040,note_on,24,0,1,,,,,,,,,0,,,74,64
563040,note_on,0,0,3,,,,,,,,,2,,,47,56
563040,note_off,480,0,3,,,,,,,,,2,,,56,0
563520,note_on,0,0,3,,,,,,,,,2,,,50,51
563520,note_off,480,0,3,,,,,,,,,2,,,47,0
564000,note_off,480,0,3,,,,,,,,,2,,,50,0
564000,note_on,0,0,3,,,,,,,,,2,,,47,46
564420,set_tempo,1860,1,0,,,,,,1428571,,,,,,,
564480,note_off,0,0,3,,,,,,,,,2,,,43,0
564480,set_tempo,60,1,0,,,,,,1363636,,,,,,,
564480,control_change,480,0,3,,,,,,,64,0,2,,,,
564480,note_off,0,0,3,,,,,,,,,2,,,47,0
564480,note_off,0,0,3,,,,,,,,,2,,,62,0
564480,note_on,0,0,1,,,,,,,,,0,,,72,60
564480,note_off,0,0,3,,,,,,,,,2,,,65,0
564480,note_off,1440,0,1,,,,,,,,,0,,,74,0
564480,note_off,0,0,3,,,,,,,,,2,,,68,0
564840,note_on,0,0,1,,,,,,,,,0,,,71,59
564840,note_off,360,0,1,,,,,,,,,0,,,72,0
564960,note_on,120,0,1,,,,,,,,,0,,,74,57
565000,note_off,40,0,1,,,,,,,,,0,,,71,0
565248,note_off,248,0,1,,,,,,,,,0,,,74,0
565440,note_on,192,0,1,,,,,,,,,0,,,74,58
565800,note_off,360,0,1,,,,,,,,,0,,,74,0
565800,note_on,0,0,1,,,,,,,,,0,,,72,57
565920,note_on,120,0,1,,,,,,,,,0,,,75,56
565980,note_off,60,0,1,,,,,,,,,0,,,72,0
566160,note_off,180,0,1,,,,,,,,,0,,,75,0
566280,set_tempo,1800,1,0,,,,,,1500000,,,,,,,
566340,note_on,1860,0,3,,,,,,,,,2,,,47,50
566400,set_tempo,120,1,0,,,,,,1363636,,,,,,,
566400,note_on,240,0,1,,,,,,,,,0,,,75,55
566400,control_change,60,0,3,,,,,,,64,127,2,,,,
566400,note_on,0,0,3,,,,,,,,,2,,,62,50
566400,note_on,0,0,3,,,,,,,,,2,,,68,50
566400,note_on,0,0,3,,,,,,,,,2,,,65,50
566760,note_on,0,0,1,,,,,,,,,0,,,74,54
566760,note_off,360,0,1,,,,,,,,,0,,,75,0
566880,note_on,0,0,3,,,,,,,,,2,,,53,46
566880,note_on,0,0,1,,,,,,,,,0,,,77,54
566880,note_off,120,0,1,,,,,,,,,0,,,74,0
566880,note_off,480,0,3,,,,,,,,,2,,,62,0
567360,note_on,0,0,3,,,,,,,,,2,,,56,41
567360,note_off,480,0,3,,,,,,,,,2,,,53,0
567840,note_off,480,0,3,,,,,,,,,2,,,56,0
567840,note_on,0,0,3,,,,,,,,,2,,,53,37
568260,set_tempo,1860,1,0,,,,,,1428571,,,,,,,
568320,note_on,0,0,1,,,,,,,,,0,,,75,50
568320,note_off,1440,0,1,,,,,,,,,0,,,77,0
568320,set_tempo,60,1,0,,,,,,1363636,,,,,,,
568320,control_change,480,0,3,,,,,,,64,0,2,,,,
568320,note_off,0,0,3,,,,,,,,,2,,,53,0
568320,note_off,0,0,3,,,,,,,,,2,,,65,0
568320,note_off,0,0,3,,,,,,,,,2,,,68,0
568320,note_off,0,0,3,,,,,,,,,2,,,47,0
568680,note_on,0,0,1,,,,,,,,,0,,,74,49
568680,note_off,360,0,1,,,,,,,,,0,,,75,0
568800,note_off,120,0,1,,,,,,,,,0,,,74,0
568800,note_on,0,0,1,,,,,,,,,0,,,77,49
569040,note_off,240,0,1,,,,,,,,,0,,,77,0
569280,note_on,240,0,1,,,,,,,,,0,,,77,48
569640,note_on,0,0,1,,,,,,,,,0,,,75,47
569640,note_off,360,0,1,,,,,,,,,0,,,77,0
569760,note_on,0,0,1,,,,,,,,,0,,,79,46
569760,set_tempo,1440,1,0,,,,,,1428571,,,,,,,
569760,note_off,120,0,1,,,,,,,,,0,,,75,0
569820,set_tempo,60,1,0,,,,,,1363636,,,,,,,
570000,note_off,240,0,1,,,,,,,,,0,,,79,0
570120,control_change,1800,0,3,,,,,,,64,127,2,,,,
570120,note_on,0,0,3,,,,,,,,,2,,,46,51
570180,set_tempo,360,1,0,,,,,,1428571,,,,,,,
570240,control_change,240,0,1,,,,,,,64,127,0,,,,
570240,note_on,0,0,1,,,,,,,,,0,,,74,45
570240,note_on,0,0,1,,,,,,,,,0,,,79,45
570240,note_on,0,0,1,,,,,,,,,0,,,68,45
570240,note_on,120,0,3,,,,,,,,,2,,,62,49
570240,set_tempo,60,1,0,,,,,,1363636,,,,,,,
570600,note_off,360,0,1,,,,,,,,,0,,,68,0
570600,note_off,0,0,1,,,,,,,,,0,,,79,0
570600,note_off,0,0,1,,,,,,,,,0,,,74,0
570600,note_on,0,0,1,,,,,,,,,0,,,77,44
570720,note_on,0,0,3,,,,,,,,,2,,,50,47
570720,note_off,480,0,3,,,,,,,,,2,,,62,0
570720,note_off,120,0,1,,,,,,,,,0,,,77,0
570720,note_on,0,0,1,,,,,,,,,0,,,80,44
571200,note_on,0,0,3,,,,,,,,,2,,,62,45
571200,note_off,480,0,3,,,,,,,,,2,,,50,0
571560,note_on,0,0,1,,,,,,,,,0,,,77,42
571560,note_off,840,0,1,,,,,,,,,0,,,80,0
571620,set_tempo,1380,1,0,,,,,,1428571,,,,,,,
571680,note_on,0,0,3,,,,,,,,,2,,,56,43
571680,note_off,480,0,3,,,,,,,,,2,,,62,0
571680,note_on,0,0,1,,,,,,,,,0,,,86,41
571680,note_off,120,0,1,,,,,,,,,0,,,77,0
572160,note_on,0,0,3,,,,,,,,,2,,,65,41
572160,note_off,480,0,3,,,,,,,,,2,,,56,0
572520,note_off,840,0,1,,,,,,,,,0,,,86,0
572520,note_on,0,0,1,,,,,,,,,0,,,80,39
572580,set_tempo,960,1,0,,,,,,1500000,,,,,,,
572640,note_off,480,0,3,,,,,,,,,2,,,65,0
572640,note_on,0,0,3,,,,,,,,,2,,,62,39
572640,note_off,120,0,1,,,,,,,,,0,,,80,0
572640,note_on,0,0,1,,,,,,,,,0,,,89,39
573120,note_off,480,0,3,,,,,,,,,2,,,62,0
573120,note_on,0,0,3,,,,,,,,,2,,,68,37
573480,note_on,0,0,1,,,,,,,,,0,,,86,37
573480,note_off,840,0,1,,,,,,,,,0,,,89,0
573540,set_tempo,960,1,0,,,,,,2400000,,,,,,,
573600,note_off,480,0,3,,,,,,,,,2,,,68,0
573600,note_off,0,0,3,,,,,,,,,2,,,46,0
573600,note_on,0,0,3,,,,,,,,,2,,,65,35
573600,set_tempo,60,1,0,,,,,,2727272,,,,,,,
573600,note_off,120,0,1,,,,,,,,,0,,,86,0
573600,note_on,0,0,1,,,,,,,,,0,,,92,36
574080,control_change,480,0,1,,,,,,,64,0,0,,,,
574080,control_change,0,0,1,,,,,,,7,127,0,,,,
574080,note_off,0,0,1,,,,,,,,,0,,,92,0
574080,note_on,0,0,1,,,,,,,,,0,,,92,95
574080,note_on,0,0,1,,,,,,,,,0,,,86,95
574080,control_change,11568,0,2,,,,,,,7,117,1,,,,
574080,note_on,0,0,1,,,,,,,,,0,,,80,95
574080,note_on,0,0,3,,,,,,,,,2,,,62,95
574080,note_on,0,0,3,,,,,,,,,2,,,65,95
574080,note_on,0,0,3,,,,,,,,,2,,,68,95
574080,note_off,0,0,3,,,,,,,,,2,,,65,0
574080,control_change,0,0,3,,,,,,,7,117,2,,,,
574080,control_change,480,0,3,,,,,,,64,0,2,,,,
574080,marker,0,1,0,,,,,,,,,,,,,
574080,set_tempo,0,1,0,,,,,,500000,,,,,,,
574080,time_signature,480,1,0,6,8,24,8,,,,,,,,,
574080,note_on,0,0,1,,,,,,,,,0,,,89,95
574080,note_on,0,0,3,,,,,,,,,2,,,58,95
574320,note_on,240,0,1,,,,,,,,,0,,,58,76
574320,set_tempo,240,1,0,,,,,,384615,,,,,,,
574320,note_on,240,0,3,,,,,,,,,2,,,46,80
574416,note_off,96,0,1,,,,,,,,,0,,,58,0
574416,note_off,96,0,3,,,,,,,,,2,,,46,0
574420,note_off,0,0,1,,,,,,,,,0,,,89,0
574420,note_off,0,0,1,,,,,,,,,0,,,86,0
574420,note_off,0,0,1,,,,,,,,,0,,,92,0
574420,note_off,4,0,1,,,,,,,,,0,,,80,0
574440,note_off,24,0,3,,,,,,,,,2,,,62,0
574440,note_on,20,0,1,,,,,,,,,0,,,57,77
574440,note_on,0,0,3,,,,,,,,,2,,,50,81
574440,note_off,0,0,3,,,,,,,,,2,,,58,0
574440,note_off,0,0,3,,,,,,,,,2,,,68,0
574440,note_off,0,0,3,,,,,,,,,2,,,65,0
574536,note_off,96,0,1,,,,,,,,,0,,,57,0
574536,note_off,96,0,3,,,,,,,,,2,,,50,0
574560,note_on,24,0,1,,,,,,,,,0,,,58,78
574560,note_on,24,0,3,,,,,,,,,2,,,46,81
574656,note_off,96,0,1,,,,,,,,,0,,,58,0
574656,note_off,96,0,3,,,,,,,,,2,,,46,0
574680,note_on,24,0,1,,,,,,,,,0,,,62,79
574680,note_on,24,0,3,,,,,,,,,2,,,50,82
574776,note_off,96,0,3,,,,,,,,,2,,,50,0
574776,note_off,96,0,1,,,,,,,,,0,,,62,0
574800,note_on,24,0,1,,,,,,,,,0,,,65,79
574800,note_on,24,0,3,,,,,,,,,2,,,50,83
574896,note_off,96,0,3,,,,,,,,,2,,,50,0
574896,note_off,96,0,1,,,,,,,,,0,,,65,0
574920,note_on,24,0,1,,,,,,,,,0,,,62,80
574920,note_on,24,0,3,,,,,,,,,2,,,53,83
575016,note_off,96,0,1,,,,,,,,,0,,,62,0
575016,note_off,96,0,3,,,,,,,,,2,,,53,0
575040,note_on,24,0,1,,,,,,,,,0,,,65,81
575040,note_on,24,0,3,,,,,,,,,2,,,50,84
575136,note_off,96,0,1,,,,,,,,,0,,,65,0
575136,note_off,96,0,3,,,,,,,,,2,,,50,0
575160,note_on,24,0,1,,,,,,,,,0,,,68,82
575160,note_on,24,0,3,,,,,,,,,2,,,53,85
575256,note_off,96,0,1,,,,,,,,,0,,,68,0
575256,note_off,96,0,3,,,,,,,,,2,,,53,0
575280,note_on,24,0,1,,,,,,,,,0,,,65,83
575280,note_on,24,0,3,,,,,,,,,2,,,50,85
575376,note_off,96,0,3,,,,,,,,,2,,,50,0
575376,note_off,96,0,1,,,,,,,,,0,,,65,0
575400,note_on,24,0,3,,,,,,,,,2,,,53,86
575400,note_on,24,0,1,,,,,,,,,0,,,62,84
575496,note_off,96,0,1,,,,,,,,,0,,,62,0
575496,note_off,96,0,3,,,,,,,,,2,,,53,0
575520,note_on,24,0,1,,,,,,,,,0,,,68,84
575520,note_on,24,0,3,,,,,,,,,2,,,53,87
575616,note_off,96,0,1,,,,,,,,,0,,,68,0
575616,note_off,96,0,3,,,,,,,,,2,,,53,0
575640,note_on,24,0,1,,,,,,,,,0,,,65,85
575640,note_on,24,0,3,,,,,,,,,2,,,56,87
575736,note_off,96,0,3,,,,,,,,,2,,,56,0
575736,note_off,96,0,1,,,,,,,,,0,,,65,0
575760,note_on,24,0,3,,,,,,,,,2,,,53,88
575760,note_on,24,0,1,,,,,,,,,0,,,68,86
575856,note_off,96,0,3,,,,,,,,,2,,,53,0
575856,note_off,96,0,1,,,,,,,,,0,,,68,0
575880,note_on,24,0,3,,,,,,,,,2,,,56,89
575880,note_on,24,0,1,,,,,,,,,0,,,70,87
575976,note_off,96,0,3,,,,,,,,,2,,,56,0
575976,note_off,96,0,1,,,,,,,,,0,,,70,0
576000,note_on,24,0,1,,,,,,,,,0,,,68,88
576000,note_on,24,0,3,,,,,,,,,2,,,53,90
576096,note_off,96,0,1,,,,,,,,,0,,,68,0
576096,note_off,96,0,3,,,,,,,,,2,,,53,0
576120,note_on,24,0,3,,,,,,,,,2,,,56,90
576120,note_on,24,0,1,,,,,,,,,0,,,65,88
576216,note_off,96,0,1,,,,,,,,,0,,,65,0
576216,note_off,96,0,3,,,,,,,,,2,,,56,0
576240,note_on,24,0,1,,,,,,,,,0,,,70,89
576240,note_on,24,0,3,,,,,,,,,2,,,58,91
576336,note_off,96,0,1,,,,,,,,,0,,,70,0
576336,note_off,96,0,3,,,,,,,,,2,,,58,0
576360,note_on,24,0,1,,,,,,,,,0,,,68,90
576360,note_on,24,0,3,,,,,,,,,2,,,62,92
576456,note_off,96,0,1,,,,,,,,,0,,,68,0
576456,note_off,96,0,3,,,,,,,,,2,,,62,0
576480,note_on,24,0,1,,,,,,,,,0,,,70,91
576480,note_on,24,0,3,,,,,,,,,2,,,58,92
576576,note_off,96,0,3,,,,,,,,,2,,,58,0
576576,note_off,96,0,1,,,,,,,,,0,,,70,0
576600,note_on,24,0,1,,,,,,,,,0,,,74,92
576600,note_on,24,0,3,,,,,,,,,2,,,62,93
576696,note_off,96,0,1,,,,,,,,,0,,,74,0
576696,note_off,96,0,3,,,,,,,,,2,,,62,0
576720,note_on,24,0,3,,,,,,,,,2,,,58,94
576720,note_on,24,0,1,,,,,,,,,0,,,70,93
576816,note_off,96,0,1,,,,,,,,,0,,,70,0
576816,note_off,96,0,3,,,,,,,,,2,,,58,0
576840,note_on,24,0,1,,,,,,,,,0,,,68,93
576840,note_on,24,0,3,,,,,,,,,2,,,62,94
576900,set_tempo,2580,1,0,,,,,,389610,,,,,,,
576936,note_off,96,0,1,,,,,,,,,0,,,68,0
576936,note_off,96,0,3,,,,,,,,,2,,,62,0
576960,set_tempo,60,1,0,,,,,,384615,,,,,,,
576960,note_on,24,0,1,,,,,,,,,0,,,77,94
576960,note_on,24,0,3,,,,,,,,,2,,,62,95
577056,note_off,96,0,1,,,,,,,,,0,,,77,0
577056,note_off,96,0,3,,,,,,,,,2,,,62,0
577080,note_on,24,0,1,,,,,,,,,0,,,74,95
577080,note_on,24,0,3,,,,,,,,,2,,,65,96
577176,note_off,96,0,1,,,,,,,,,0,,,74,0
577176,note_off,96,0,3,,,,,,,,,2,,,65,0
577200,note_on,24,0,1,,,,,,,,,0,,,77,96
577200,note_on,24,0,3,,,,,,,,,2,,,62,96
577296,note_off,96,0,1,,,,,,,,,0,,,77,0
577296,note_off,96,0,3,,,,,,,,,2,,,62,0
577320,note_on,24,0,1,,,,,,,,,0,,,80,97
577320,note_on,24,0,3,,,,,,,,,2,,,65,97
577416,note_off,96,0,3,,,,,,,,,2,,,65,0
577416,note_off,96,0,1,,,,,,,,,0,,,80,0
577440,note_on,24,0,3,,,,,,,,,2,,,62,98
577440,note_on,24,0,1,,,,,,,,,0,,,77,97
577536,note_off,96,0,3,,,,,,,,,2,,,62,0
577536,note_off,96,0,1,,,,,,,,,0,,,77,0
577560,note_on,24,0,1,,,,,,,,,0,,,74,98
577560,note_on,24,0,3,,,,,,,,,2,,,65,98
577656,note_off,96,0,1,,,,,,,,,0,,,74,0
577656,note_off,96,0,3,,,,,,,,,2,,,65,0
577680,note_on,24,0,1,,,,,,,,,0,,,80,99
577680,note_on,24,0,3,,,,,,,,,2,,,65,99
577776,note_off,96,0,1,,,,,,,,,0,,,80,0
577776,note_off,96,0,3,,,,,,,,,2,,,65,0
577800,note_on,24,0,3,,,,,,,,,2,,,68,100
577800,note_on,24,0,1,,,,,,,,,0,,,77,100
577896,note_off,96,0,1,,,,,,,,,0,,,77,0
577896,note_off,96,0,3,,,,,,,,,2,,,68,0
577920,note_on,24,0,3,,,,,,,,,2,,,65,101
577920,note_on,24,0,1,,,,,,,,,0,,,80,101
578016,note_off,96,0,3,,,,,,,,,2,,,65,0
578016,note_off,96,0,1,,,,,,,,,0,,,80,0
578040,note_on,24,0,3,,,,,,,,,2,,,68,101
578040,note_on,24,0,1,,,,,,,,,0,,,82,102
578136,note_off,96,0,1,,,,,,,,,0,,,82,0
578136,note_off,96,0,3,,,,,,,,,2,,,68,0
578160,note_on,24,0,1,,,,,,,,,0,,,80,102
578160,note_on,24,0,3,,,,,,,,,2,,,65,102
578256,note_off,96,0,1,,,,,,,,,0,,,80,0
578256,note_off,96,0,3,,,,,,,,,2,,,65,0
578280,note_on,24,0,1,,,,,,,,,0,,,77,103
578280,note_on,24,0,3,,,,,,,,,2,,,68,103
578376,note_off,96,0,1,,,,,,,,,0,,,77,0
578376,note_off,96,0,3,,,,,,,,,2,,,68,0
578400,note_on,24,0,1,,,,,,,,,0,,,82,104
578400,note_on,24,0,3,,,,,,,,,2,,,74,103
578496,note_off,96,0,1,,,,,,,,,0,,,82,0
578496,note_off,96,0,3,,,,,,,,,2,,,74,0
578520,note_on,24,0,1,,,,,,,,,0,,,80,105
578520,note_on,24,0,3,,,,,,,,,2,,,77,104
578616,note_off,96,0,3,,,,,,,,,2,,,77,0
578616,note_off,96,0,1,,,,,,,,,0,,,80,0
578640,note_on,24,0,1,,,,,,,,,0,,,82,106
578640,note_on,24,0,3,,,,,,,,,2,,,74,105
578736,note_off,96,0,1,,,,,,,,,0,,,82,0
578736,note_off,96,0,3,,,,,,,,,2,,,74,0
578760,note_on,24,0,1,,,,,,,,,0,,,86,106
578760,note_on,24,0,3,,,,,,,,,2,,,77,105
578856,note_off,96,0,3,,,,,,,,,2,,,77,0
578856,note_off,96,0,1,,,,,,,,,0,,,86,0
578880,note_on,24,0,1,,,,,,,,,0,,,82,107
578880,note_on,24,0,3,,,,,,,,,2,,,74,106
578976,note_off,96,0,3,,,,,,,,,2,,,74,0
578976,note_off,96,0,1,,,,,,,,,0,,,82,0
579000,note_on,24,0,1,,,,,,,,,0,,,80,108
579000,note_on,24,0,3,,,,,,,,,2,,,77,107
579096,note_off,96,0,1,,,,,,,,,0,,,80,0
579096,note_off,96,0,3,,,,,,,,,2,,,77,0
579120,note_on,24,0,3,,,,,,,,,2,,,77,107
579120,note_on,24,0,1,,,,,,,,,0,,,86,109
579216,note_off,96,0,1,,,,,,,,,0,,,86,0
579216,note_off,96,0,3,,,,,,,,,2,,,77,0
579240,note_on,24,0,3,,,,,,,,,2,,,80,108
579240,note_on,24,0,1,,,,,,,,,0,,,82,110
579336,note_off,96,0,1,,,,,,,,,0,,,82,0
579336,note_off,96,0,3,,,,,,,,,2,,,80,0
579360,note_on,24,0,1,,,,,,,,,0,,,86,111
579360,note_on,24,0,3,,,,,,,,,2,,,77,109
579456,note_off,96,0,1,,,,,,,,,0,,,86,0
579456,note_off,96,0,3,,,,,,,,,2,,,77,0
579480,note_on,24,0,1,,,,,,,,,0,,,89,111
579480,note_on,24,0,3,,,,,,,,,2,,,80,109
579576,note_off,96,0,1,,,,,,,,,0,,,89,0
579576,note_off,96,0,3,,,,,,,,,2,,,80,0
579600,note_on,24,0,3,,,,,,,,,2,,,77,110
579600,note_on,24,0,1,,,,,,,,,0,,,86,112
579696,note_off,96,0,3,,,,,,,,,2,,,77,0
579696,note_off,96,0,1,,,,,,,,,0,,,86,0
579720,note_on,24,0,3,,,,,,,,,2,,,80,111
579720,note_on,24,0,1,,,,,,,,,0,,,82,113
579780,set_tempo,2820,1,0,,,,,,389610,,,,,,,
579816,note_off,96,0,1,,,,,,,,,0,,,82,0
579816,note_off,96,0,3,,,,,,,,,2,,,80,0
579840,note_on,24,0,1,,,,,,,,,0,,,89,117
579840,set_tempo,60,1,0,,,,,,384615,,,,,,,
579936,note_off,96,0,1,,,,,,,,,0,,,89,0
579960,note_on,24,0,1,,,,,,,,,0,,,86,116
580056,note_off,96,0,1,,,,,,,,,0,,,86,0
580080,note_on,24,0,1,,,,,,,,,0,,,89,115
580176,note_off,96,0,1,,,,,,,,,0,,,89,0
580200,note_on,24,0,1,,,,,,,,,0,,,92,115
580296,note_off,96,0,1,,,,,,,,,0,,,92,0
580320,note_on,0,0,3,,,,,,,,,2,,,80,104
580320,note_on,504,0,3,,,,,,,,,2,,,77,104
580320,note_on,24,0,1,,,,,,,,,0,,,89,114
580416,note_off,96,0,1,,,,,,,,,0,,,89,0
580440,note_on,24,0,1,,,,,,,,,0,,,86,113
580500,set_tempo,660,1,0,,,,,,389610,,,,,,,
580536,note_off,96,0,1,,,,,,,,,0,,,86,0
580560,note_off,240,0,3,,,,,,,,,2,,,80,0
580560,note_off,0,0,3,,,,,,,,,2,,,77,0
580560,note_on,24,0,1,,,,,,,,,0,,,82,112
580560,note_on,0,0,3,,,,,,,,,2,,,74,102
580560,set_tempo,60,1,0,,,,,,384615,,,,,,,
580560,note_on,0,0,3,,,,,,,,,2,,,77,102
580656,note_off,96,0,1,,,,,,,,,0,,,82,0
580680,note_on,24,0,1,,,,,,,,,0,,,81,111
580776,note_off,96,0,1,,,,,,,,,0,,,81,0
580800,note_on,24,0,1,,,,,,,,,0,,,82,110
580896,note_off,96,0,1,,,,,,,,,0,,,82,0
580920,note_on,24,0,1,,,,,,,,,0,,,86,109
581016,note_off,96,0,1,,,,,,,,,0,,,86,0
581040,note_off,0,0,3,,,,,,,,,2,,,77,0
581040,note_off,480,0,3,,,,,,,,,2,,,74,0
581040,note_on,24,0,1,,,,,,,,,0,,,89,108
581136,note_off,96,0,1,,,,,,,,,0,,,89,0
581160,note_on,24,0,1,,,,,,,,,0,,,86,108
581256,note_off,96,0,1,,,,,,,,,0,,,86,0
581280,note_on,24,0,1,,,,,,,,,0,,,89,107
581376,note_off,96,0,1,,,,,,,,,0,,,89,0
581400,note_on,24,0,1,,,,,,,,,0,,,86,106
581496,note_off,96,0,1,,,,,,,,,0,,,86,0
581520,note_on,24,0,1,,,,,,,,,0,,,89,105
581616,note_off,96,0,1,,,,,,,,,0,,,89,0
581640,note_on,24,0,1,,,,,,,,,0,,,92,104
581736,note_off,96,0,1,,,,,,,,,0,,,92,0
581760,note_on,24,0,1,,,,,,,,,0,,,89,103
581760,note_on,0,0,3,,,,,,,,,2,,,80,95
581760,note_on,720,0,3,,,,,,,,,2,,,77,95
581856,note_off,96,0,1,,,,,,,,,0,,,89,0
581880,note_on,24,0,1,,,,,,,,,0,,,86,102
581940,set_tempo,1380,1,0,,,,,,389610,,,,,,,
581976,note_off,96,0,1,,,,,,,,,0,,,86,0
582000,note_on,24,0,1,,,,,,,,,0,,,82,101
582000,set_tempo,60,1,0,,,,,,384615,,,,,,,
582000,note_off,240,0,3,,,,,,,,,2,,,80,0
582000,note_off,0,0,3,,,,,,,,,2,,,77,0
582000,note_on,0,0,3,,,,,,,,,2,,,74,94
582000,note_on,0,0,3,,,,,,,,,2,,,77,94
582096,note_off,96,0,1,,,,,,,,,0,,,82,0
582120,note_on,24,0,1,,,,,,,,,0,,,81,100
582216,note_off,96,0,1,,,,,,,,,0,,,81,0
582240,note_on,24,0,1,,,,,,,,,0,,,82,100
582336,note_off,96,0,1,,,,,,,,,0,,,82,0
582360,note_on,24,0,1,,,,,,,,,0,,,86,99
582456,note_off,96,0,1,,,,,,,,,0,,,86,0
582480,note_off,480,0,3,,,,,,,,,2,,,77,0
582480,note_on,24,0,1,,,,,,,,,0,,,89,98
582480,note_off,0,0,3,,,,,,,,,2,,,74,0
582576,note_off,96,0,1,,,,,,,,,0,,,89,0
582600,note_on,24,0,1,,,,,,,,,0,,,86,97
582696,note_off,96,0,1,,,,,,,,,0,,,86,0
582720,note_on,24,0,1,,,,,,,,,0,,,77,96
582816,note_off,96,0,1,,,,,,,,,0,,,77,0
582840,note_on,24,0,1,,,,,,,,,0,,,74,95
582936,note_off,96,0,1,,,,,,,,,0,,,74,0
582960,note_on,24,0,1,,,,,,,,,0,,,77,94
583056,note_off,96,0,1,,,,,,,,,0,,,77,0
583080,note_on,24,0,1,,,,,,,,,0,,,80,93
583176,note_off,96,0,1,,,,,,,,,0,,,80,0
583200,note_on,0,0,3,,,,,,,,,2,,,65,86
583200,note_on,720,0,3,,,,,,,,,2,,,68,86
583200,note_on,24,0,1,,,,,,,,,0,,,77,93
583296,note_off,96,0,1,,,,,,,,,0,,,77,0
583320,note_on,24,0,1,,,,,,,,,0,,,74,92
583380,set_tempo,1380,1,0,,,,,,389610,,,,,,,
583416,note_off,96,0,1,,,,,,,,,0,,,74,0
583440,note_on,24,0,1,,,,,,,,,0,,,70,91
583440,note_on,0,0,3,,,,,,,,,2,,,62,85
583440,note_off,0,0,3,,,,,,,,,2,,,68,0
583440,set_tempo,60,1,0,,,,,,384615,,,,,,,
583440,note_on,0,0,3,,,,,,,,,2,,,65,85
583440,note_off,240,0,3,,,,,,,,,2,,,65,0
583536,note_off,96,0,1,,,,,,,,,0,,,70,0
583560,note_on,24,0,1,,,,,,,,,0,,,69,90
583656,note_off,96,0,1,,,,,,,,,0,,,69,0
583680,note_on,24,0,1,,,,,,,,,0,,,70,89
583776,note_off,96,0,1,,,,,,,,,0,,,70,0
583800,note_on,24,0,1,,,,,,,,,0,,,74,88
583896,note_off,96,0,1,,,,,,,,,0,,,74,0
583920,note_on,24,0,1,,,,,,,,,0,,,77,87
583920,note_off,480,0,3,,,,,,,,,2,,,62,0
583920,note_off,0,0,3,,,,,,,,,2,,,65,0
584016,note_off,96,0,1,,,,,,,,,0,,,77,0
584040,note_on,24,0,1,,,,,,,,,0,,,74,86
584136,note_off,96,0,1,,,,,,,,,0,,,74,0
584160,note_on,24,0,1,,,,,,,,,0,,,77,85
584256,note_off,96,0,1,,,,,,,,,0,,,77,0
584280,note_on,24,0,1,,,,,,,,,0,,,74,85
584376,note_off,96,0,1,,,,,,,,,0,,,74,0
584400,note_on,24,0,1,,,,,,,,,0,,,77,84
584496,note_off,96,0,1,,,,,,,,,0,,,77,0
584520,note_on,24,0,1,,,,,,,,,0,,,80,83
584616,note_off,96,0,1,,,,,,,,,0,,,80,0
584640,note_on,0,0,3,,,,,,,,,2,,,68,78
584640,note_on,720,0,3,,,,,,,,,2,,,65,78
584640,note_on,24,0,1,,,,,,,,,0,,,77,82
584736,note_off,96,0,1,,,,,,,,,0,,,77,0
584760,note_on,24,0,1,,,,,,,,,0,,,74,81
584820,set_tempo,1380,1,0,,,,,,389610,,,,,,,
584856,note_off,96,0,1,,,,,,,,,0,,,74,0
584880,set_tempo,60,1,0,,,,,,384615,,,,,,,
584880,note_off,240,0,3,,,,,,,,,2,,,68,0
584880,note_on,0,0,3,,,,,,,,,2,,,65,76
584880,note_on,0,0,3,,,,,,,,,2,,,62,76
584880,note_on,24,0,1,,,,,,,,,0,,,70,80
584880,note_off,0,0,3,,,,,,,,,2,,,65,0
584976,note_off,96,0,1,,,,,,,,,0,,,70,0
585000,note_on,24,0,1,,,,,,,,,0,,,69,79
585096,note_off,96,0,1,,,,,,,,,0,,,69,0
585120,note_on,24,0,1,,,,,,,,,0,,,70,78
585216,note_off,96,0,1,,,,,,,,,0,,,70,0
585240,note_on,24,0,1,,,,,,,,,0,,,74,78
585336,note_off,96,0,1,,,,,,,,,0,,,74,0
585360,note_on,24,0,1,,,,,,,,,0,,,77,77
585360,note_off,480,0,3,,,,,,,,,2,,,65,0
585360,note_off,0,0,3,,,,,,,,,2,,,62,0
585456,note_off,96,0,1,,,,,,,,,0,,,77,0
585480,note_on,24,0,1,,,,,,,,,0,,,74,76
585540,set_tempo,660,1,0,,,,,,408163,,,,,,,
585577,note_off,97,0,1,,,,,,,,,0,,,74,0
585600,note_on,0,0,1,,,,,,,,,0,,,68,95
585600,set_tempo,60,1,0,,,,,,465116,,,,,,,
585600,note_on,240,0,3,,,,,,,,,2,,,46,95
585600,note_on,0,0,1,,,,,,,,,0,,,80,95
585600,note_on,0,0,3,,,,,,,,,2,,,56,95
585600,note_on,0,0,3,,,,,,,,,2,,,53,95
585600,note_on,0,0,3,,,,,,,,,2,,,50,95
585600,note_on,23,0,1,,,,,,,,,0,,,74,79
585600,note_on,0,0,1,,,,,,,,,0,,,77,95
585825,note_off,225,0,3,,,,,,,,,2,,,50,0
585825,note_off,0,0,3,,,,,,,,,2,,,46,0
585832,note_off,7,0,3,,,,,,,,,2,,,56,0
585832,note_off,0,0,3,,,,,,,,,2,,,53,0
585840,note_on,0,0,1,,,,,,,,,0,,,58,90
585840,note_off,0,0,1,,,,,,,,,0,,,80,0
585840,note_off,0,0,1,,,,,,,,,0,,,68,0
585840,set_tempo,240,1,0,,,,,,389610,,,,,,,
585840,note_on,8,0,3,,,,,,,,,2,,,46,89
585840,note_off,240,0,1,,,,,,,,,0,,,77,0
585862,note_off,22,0,1,,,,,,,,,0,,,74,0
585960,note_on,0,0,1,,,,,,,,,0,,,57,89
585960,note_off,98,0,1,,,,,,,,,0,,,58,0
585996,note_off,156,0,3,,,,,,,,,2,,,46,0
586056,note_off,96,0,1,,,,,,,,,0,,,57,0
586080,note_on,84,0,3,,,,,,,,,2,,,46,86
586080,note_on,24,0,1,,,,,,,,,0,,,58,87
586200,note_off,120,0,1,,,,,,,,,0,,,58,0
586200,note_on,0,0,1,,,,,,,,,0,,,57,86
586236,note_off,156,0,3,,,,,,,,,2,,,46,0
586296,note_off,96,0,1,,,,,,,,,0,,,57,0
586320,note_on,24,0,1,,,,,,,,,0,,,60,84
586320,note_on,84,0,3,,,,,,,,,2,,,50,83
586440,note_off,120,0,1,,,,,,,,,0,,,60,0
586440,note_on,0,0,1,,,,,,,,,0,,,58,83
586476,note_off,156,0,3,,,,,,,,,2,,,50,0
586536,note_off,96,0,1,,,,,,,,,0,,,58,0
586560,note_on,24,0,1,,,,,,,,,0,,,63,82
586560,note_on,84,0,3,,,,,,,,,2,,,53,80
586680,note_off,120,0,1,,,,,,,,,0,,,63,0
586680,note_on,0,0,1,,,,,,,,,0,,,62,80
586716,note_off,156,0,3,,,,,,,,,2,,,53,0
586776,note_off,96,0,1,,,,,,,,,0,,,62,0
586800,note_on,24,0,1,,,,,,,,,0,,,67,79
586800,note_on,84,0,3,,,,,,,,,2,,,58,77
586920,note_on,0,0,1,,,,,,,,,0,,,65,77
586920,note_off,120,0,1,,,,,,,,,0,,,67,0
586956,note_off,156,0,3,,,,,,,,,2,,,58,0
587016,note_off,96,0,1,,,,,,,,,0,,,65,0
587040,note_on,84,0,3,,,,,,,,,2,,,62,74
587040,note_on,24,0,1,,,,,,,,,0,,,70,76
587160,note_on,0,0,1,,,,,,,,,0,,,69,74
587160,note_off,120,0,1,,,,,,,,,0,,,70,0
587196,note_off,156,0,3,,,,,,,,,2,,,62,0
587256,note_off,96,0,1,,,,,,,,,0,,,69,0
587280,note_on,24,0,1,,,,,,,,,0,,,72,73
587280,note_on,84,0,3,,,,,,,,,2,,,65,71
587400,note_on,0,0,1,,,,,,,,,0,,,70,72
587400,note_off,120,0,1,,,,,,,,,0,,,72,0
587436,note_off,156,0,3,,,,,,,,,2,,,65,0
587496,note_off,96,0,1,,,,,,,,,0,,,70,0
587520,note_on,24,0,1,,,,,,,,,0,,,75,70
587520,note_on,84,0,3,,,,,,,,,2,,,68,68
587520,note_on,0,0,3,,,,,,,,,2,,,70,68
587640,note_off,120,0,1,,,,,,,,,0,,,75,0
587640,note_on,0,0,1,,,,,,,,,0,,,74,69
587676,note_off,0,0,3,,,,,,,,,2,,,68,0
587676,note_off,156,0,3,,,,,,,,,2,,,70,0
587736,note_off,96,0,1,,,,,,,,,0,,,74,0
587760,note_on,0,0,3,,,,,,,,,2,,,68,65
587760,note_on,84,0,3,,,,,,,,,2,,,70,65
587760,note_on,24,0,1,,,,,,,,,0,,,79,67
587880,note_off,120,0,1,,,,,,,,,0,,,79,0
587880,note_on,0,0,1,,,,,,,,,0,,,77,66
587916,note_off,0,0,3,,,,,,,,,2,,,70,0
587916,note_off,156,0,3,,,,,,,,,2,,,68,0
587976,note_off,96,0,1,,,,,,,,,0,,,77,0
588000,note_on,0,0,3,,,,,,,,,2,,,70,62
588000,note_on,84,0,3,,,,,,,,,2,,,68,62
588000,note_on,24,0,1,,,,,,,,,0,,,82,64
588120,note_off,120,0,1,,,,,,,,,0,,,82,0
588120,note_on,0,0,1,,,,,,,,,0,,,81,63
588120,set_tempo,2280,1,0,,,,,,394736,,,,,,,
588156,note_off,0,0,3,,,,,,,,,2,,,68,0
588156,note_off,156,0,3,,,,,,,,,2,,,70,0
588216,note_off,96,0,1,,,,,,,,,0,,,81,0
588240,note_on,24,0,1,,,,,,,,,0,,,84,62
588240,note_on,0,0,3,,,,,,,,,2,,,68,59
588240,note_on,84,0,3,,,,,,,,,2,,,70,59
588240,set_tempo,120,1,0,,,,,,447761,,,,,,,
588360,note_on,0,0,1,,,,,,,,,0,,,82,60
588360,set_tempo,120,1,0,,,,,,722891,,,,,,,
588360,note_off,120,0,1,,,,,,,,,0,,,84,0
588396,note_off,0,0,3,,,,,,,,,2,,,70,0
588396,note_off,156,0,3,,,,,,,,,2,,,68,0
588456,note_off,96,0,1,,,,,,,,,0,,,82,0
588480,set_tempo,120,1,0,,,,,,402684,,,,,,,
588480,note_on,0,0,3,,,,,,,,,2,,,67,52
588480,note_on,84,0,3,,,,,,,,,2,,,63,52
588480,note_on,0,0,3,,,,,,,,,2,,,70,52
588480,note_on,24,0,1,,,,,,,,,0,,,82,60
588720,note_off,240,0,1,,,,,,,,,0,,,82,0
588720,note_on,0,0,1,,,,,,,,,0,,,79,60
588960,note_off,240,0,1,,,,,,,,,0,,,79,0
588960,note_on,0,0,1,,,,,,,,,0,,,75,61
588960,note_off,0,0,3,,,,,,,,,2,,,63,0
588960,note_off,0,0,3,,,,,,,,,2,,,70,0
588960,note_off,480,0,3,,,,,,,,,2,,,67,0
589200,note_on,0,0,1,,,,,,,,,0,,,74,62
589200,note_on,0,0,3,,,,,,,,,2,,,62,53
589200,note_on,240,0,3,,,,,,,,,2,,,70,53
589200,note_on,0,0,3,,,,,,,,,2,,,65,53
589200,note_on,0,0,3,,,,,,,,,2,,,68,53
589200,note_off,240,0,1,,,,,,,,,0,,,75,0
589440,note_on,0,0,1,,,,,,,,,0,,,77,62
589440,note_off,240,0,1,,,,,,,,,0,,,74,0
589680,note_off,240,0,1,,,,,,,,,0,,,77,0
589680,note_on,0,0,1,,,,,,,,,0,,,82,63
589680,note_off,0,0,3,,,,,,,,,2,,,62,0
589680,note_off,0,0,3,,,,,,,,,2,,,70,0
589680,note_off,0,0,3,,,,,,,,,2,,,65,0
589680,note_off,480,0,3,,,,,,,,,2,,,68,0
589920,note_on,240,0,3,,,,,,,,,2,,,70,55
589920,note_on,0,0,3,,,,,,,,,2,,,63,55
589920,note_on,0,0,3,,,,,,,,,2,,,67,55
589920,note_on,0,0,1,,,,,,,,,0,,,82,64
589920,note_off,240,0,1,,,,,,,,,0,,,82,0
590160,note_on,0,0,1,,,,,,,,,0,,,79,65
590160,note_off,240,0,1,,,,,,,,,0,,,82,0
590400,note_off,480,0,3,,,,,,,,,2,,,67,0
590400,note_off,0,0,3,,,,,,,,,2,,,63,0
590400,note_off,0,0,3,,,,,,,,,2,,,70,0
590400,note_off,240,0,1,,,,,,,,,0,,,79,0
590400,note_on,0,0,1,,,,,,,,,0,,,75,65
590640,note_off,240,0,1,,,,,,,,,0,,,75,0
590640,note_on,0,0,1,,,,,,,,,0,,,75,66
590880,note_off,240,0,1,,,,,,,,,0,,,75,0
590880,note_on,0,0,1,,,,,,,,,0,,,79,67
591120,note_on,720,0,3,,,,,,,,,2,,,70,57
591120,note_on,0,0,1,,,,,,,,,0,,,84,68
591120,note_on,0,0,3,,,,,,,,,2,,,67,57
591120,note_off,240,0,1,,,,,,,,,0,,,79,0
591120,note_on,0,0,3,,,,,,,,,2,,,72,57
591120,note_on,0,0,3,,,,,,,,,2,,,64,57
591300,set_tempo,2820,1,0,,,,,,408163,,,,,,,
591360,note_on,0,0,3,,,,,,,,,2,,,68,58
591360,note_off,0,0,3,,,,,,,,,2,,,67,0
591360,note_on,0,0,3,,,,,,,,,2,,,72,58
591360,note_on,0,0,3,,,,,,,,,2,,,65,58
591360,note_off,240,0,3,,,,,,,,,2,,,64,0
591360,note_off,0,0,3,,,,,,,,,2,,,70,0
591360,note_off,0,0,3,,,,,,,,,2,,,72,0
591360,note_on,0,0,1,,,,,,,,,0,,,84,68
591360,note_off,240,0,1,,,,,,,,,0,,,84,0
591360,set_tempo,60,1,0,,,,,,400000,,,,,,,
591600,note_on,0,0,1,,,,,,,,,0,,,80,69
591600,note_off,240,0,1,,,,,,,,,0,,,84,0
591840,note_off,240,0,1,,,,,,,,,0,,,80,0
591840,note_on,0,0,1,,,,,,,,,0,,,77,70
591840,note_off,480,0,3,,,,,,,,,2,,,65,0
591840,note_off,0,0,3,,,,,,,,,2,,,72,0
591840,note_off,0,0,3,,,,,,,,,2,,,68,0
592080,note_on,0,0,3,,,,,,,,,2,,,72,59
592080,note_on,0,0,3,,,,,,,,,2,,,67,59
592080,note_on,0,0,3,,,,,,,,,2,,,60,59
592080,note_on,0,0,1,,,,,,,,,0,,,76,70
592080,note_off,240,0,1,,,,,,,,,0,,,77,0
592080,note_on,240,0,3,,,,,,,,,2,,,70,59
592320,note_off,240,0,1,,,,,,,,,0,,,76,0
592320,note_on,0,0,1,,,,,,,,,0,,,79,71
592560,note_off,480,0,3,,,,,,,,,2,,,72,0
592560,note_off,0,0,3,,,,,,,,,2,,,60,0
592560,note_off,0,0,3,,,,,,,,,2,,,67,0
592560,note_off,0,0,3,,,,,,,,,2,,,70,0
592560,note_off,240,0,1,,,,,,,,,0,,,79,0
592560,note_on,0,0,1,,,,,,,,,0,,,84,72
592800,note_on,0,0,3,,,,,,,,,2,,,65,61
592800,note_on,0,0,3,,,,,,,,,2,,,72,61
592800,note_on,240,0,3,,,,,,,,,2,,,68,61
592800,note_off,240,0,1,,,,,,,,,0,,,84,0
592800,note_on,0,0,1,,,,,,,,,0,,,84,75
593040,note_on,0,0,1,,,,,,,,,0,,,80,74
593040,note_off,240,0,1,,,,,,,,,0,,,84,0
593280,note_off,0,0,3,,,,,,,,,2,,,72,0
593280,note_off,0,0,3,,,,,,,,,2,,,68,0
593280,note_off,480,0,3,,,,,,,,,2,,,65,0
593280,note_off,240,0,1,,,,,,,,,0,,,80,0
593280,note_on,0,0,1,,,,,,,,,0,,,77,73
593520,note_off,240,0,1,,,,,,,,,0,,,77,0
593520,note_on,0,0,1,,,,,,,,,0,,,74,72
593760,note_off,240,0,1,,,,,,,,,0,,,74,0
593760,note_on,0,0,1,,,,,,,,,0,,,77,71
594000,note_off,240,0,1,,,,,,,,,0,,,77,0
594000,note_on,0,0,1,,,,,,,,,0,,,82,71
594000,note_on,0,0,3,,,,,,,,,2,,,65,61
594000,note_on,0,0,3,,,,,,,,,2,,,68,61
594000,note_on,720,0,3,,,,,,,,,2,,,70,61
594000,note_on,0,0,3,,,,,,,,,2,,,62,61
594180,set_tempo,2820,1,0,,,,,,402684,,,,,,,
594240,note_off,240,0,3,,,,,,,,,2,,,65,0
594240,note_on,0,0,3,,,,,,,,,2,,,67,60
594240,note_on,0,0,3,,,,,,,,,2,,,63,60
594240,note_off,0,0,3,,,,,,,,,2,,,68,0
594240,note_off,0,0,3,,,,,,,,,2,,,70,0
594240,note_off,0,0,3,,,,,,,,,2,,,62,0
594240,note_on,0,0,3,,,,,,,,,2,,,70,60
594240,note_on,0,0,1,,,,,,,,,0,,,82,70
594240,note_off,240,0,1,,,,,,,,,0,,,82,0
594480,note_off,240,0,1,,,,,,,,,0,,,82,0
594480,note_on,0,0,1,,,,,,,,,0,,,79,69
594720,note_off,0,0,3,,,,,,,,,2,,,70,0
594720,note_off,0,0,3,,,,,,,,,2,,,63,0
594720,note_off,480,0,3,,,,,,,,,2,,,67,0
594720,note_off,240,0,1,,,,,,,,,0,,,79,0
594720,note_on,0,0,1,,,,,,,,,0,,,75,68
594960,note_on,0,0,3,,,,,,,,,2,,,65,58
594960,note_on,0,0,3,,,,,,,,,2,,,56,58
594960,note_on,240,0,3,,,,,,,,,2,,,60,58
594960,note_on,0,0,1,,,,,,,,,0,,,72,67
594960,note_off,240,0,1,,,,,,,,,0,,,75,0
595200,note_off,240,0,1,,,,,,,,,0,,,72,0
595200,note_on,0,0,1,,,,,,,,,0,,,77,66
595440,note_on,0,0,1,,,,,,,,,0,,,80,65
595440,note_off,480,0,3,,,,,,,,,2,,,65,0
595440,note_off,240,0,1,,,,,,,,,0,,,77,0
595440,note_off,0,0,3,,,,,,,,,2,,,60,0
595440,note_off,0,0,3,,,,,,,,,2,,,56,0
595680,note_on,0,0,1,,,,,,,,,0,,,70,64
595680,note_on,240,0,3,,,,,,,,,2,,,58,56
595680,note_on,0,0,3,,,,,,,,,2,,,63,56
595680,note_on,0,0,3,,,,,,,,,2,,,67,56
595680,note_off,240,0,1,,,,,,,,,0,,,80,0
595920,note_on,0,0,1,,,,,,,,,0,,,75,63
595920,note_off,240,0,1,,,,,,,,,0,,,70,0
596160,note_off,0,0,3,,,,,,,,,2,,,63,0
596160,note_on,0,0,1,,,,,,,,,0,,,79,62
596160,note_off,240,0,1,,,,,,,,,0,,,75,0
596160,note_off,480,0,3,,,,,,,,,2,,,67,0
596160,note_off,0,0,3,,,,,,,,,2,,,58,0
596400,note_on,240,0,3,,,,,,,,,2,,,62,54
596400,note_on,0,0,3,,,,,,,,,2,,,65,54
596400,note_on,0,0,1,,,,,,,,,0,,,70,61
596400,note_off,240,0,1,,,,,,,,,0,,,79,0
596400,note_on,0,0,3,,,,,,,,,2,,,58,54
596640,note_on,0,0,1,,,,,,,,,0,,,74,60
596640,note_off,240,0,1,,,,,,,,,0,,,70,0
596880,note_off,0,0,3,,,,,,,,,2,,,62,0
596880,note_off,0,0,3,,,,,,,,,2,,,58,0
596880,note_off,480,0,3,,,,,,,,,2,,,65,0
596880,note_on,0,0,1,,,,,,,,,0,,,77,59
596880,note_on,0,0,1,,,,,,,,,0,,,68,59
596880,note_off,240,0,1,,,,,,,,,0,,,74,0
596880,note_on,0,0,3,,,,,,,,,2,,,58,52
596985,set_tempo,2805,1,0,,,,,,419580,,,,,,,
597120,note_off,240,0,1,,,,,,,,,0,,,77,0
597120,note_off,240,0,3,,,,,,,,,2,,,58,0
597120,note_off,0,0,1,,,,,,,,,0,,,68,0
597120,note_on,0,0,1,,,,,,,,,0,,,75,59
597120,note_on,0,0,1,,,,,,,,,0,,,67,59
597120,set_tempo,135,1,0,,,,,,402684,,,,,,,
597120,note_on,0,0,3,,,,,,,,,2,,,58,52
597360,note_off,240,0,1,,,,,,,,,0,,,67,0
597360,note_off,0,0,1,,,,,,,,,0,,,75,0
597360,note_off,240,0,3,,,,,,,,,2,,,58,0
597360,note_on,0,0,3,,,,,,,,,2,,,55,50
597600,note_on,240,0,1,,,,,,,,,0,,,79,52
597600,note_off,240,0,3,,,,,,,,,2,,,55,0
597600,note_on,0,0,3,,,,,,,,,2,,,51,51
597840,note_off,240,0,3,,,,,,,,,2,,,51,0
597840,note_on,0,0,3,,,,,,,,,2,,,50,51
597840,note_off,240,0,1,,,,,,,,,0,,,79,0
597840,note_on,0,0,1,,,,,,,,,0,,,80,53
597960,note_off,120,0,1,,,,,,,,,0,,,80,0
597960,note_on,0,0,1,,,,,,,,,0,,,79,53
598080,note_on,0,0,3,,,,,,,,,2,,,53,52
598080,note_off,240,0,3,,,,,,,,,2,,,50,0
598080,note_off,120,0,1,,,,,,,,,0,,,79,0
598080,note_on,0,0,1,,,,,,,,,0,,,80,54
598200,note_off,120,0,1,,,,,,,,,0,,,80,0
598200,note_on,0,0,1,,,,,,,,,0,,,77,54
598320,note_off,240,0,3,,,,,,,,,2,,,53,0
598320,note_off,120,0,1,,,,,,,,,0,,,77,0
598320,note_on,0,0,1,,,,,,,,,0,,,82,54
598320,note_on,0,0,3,,,,,,,,,2,,,58,53
598440,note_on,0,0,1,,,,,,,,,0,,,80,54
598440,note_off,120,0,1,,,,,,,,,0,,,82,0
598560,note_off,120,0,1,,,,,,,,,0,,,80,0
598560,note_on,0,0,3,,,,,,,,,2,,,58,53
598560,note_off,240,0,3,,,,,,,,,2,,,58,0
598560,note_on,0,0,1,,,,,,,,,0,,,79,55
598740,note_off,180,0,1,,,,,,,,,0,,,79,0
598800,note_on,60,0,1,,,,,,,,,0,,,94,55
598800,note_on,0,0,3,,,,,,,,,2,,,55,54
598800,note_off,240,0,3,,,,,,,,,2,,,58,0
598980,note_off,180,0,1,,,,,,,,,0,,,94,0
599040,note_on,0,0,3,,,,,,,,,2,,,51,54
599040,note_off,240,0,3,,,,,,,,,2,,,55,0
599280,note_off,240,0,3,,,,,,,,,2,,,51,0
599280,note_on,0,0,3,,,,,,,,,2,,,51,55
599520,note_off,240,0,3,,,,,,,,,2,,,51,0
599520,note_on,0,0,3,,,,,,,,,2,,,55,56
599760,note_on,0,0,3,,,,,,,,,2,,,52,56
599760,note_on,780,0,1,,,,,,,,,0,,,67,57
599760,note_off,240,0,3,,,,,,,,,2,,,55,0
599760,note_on,0,0,3,,,,,,,,,2,,,60,56
599940,set_tempo,2820,1,0,,,,,,408163,,,,,,,
600000,set_tempo,60,1,0,,,,,,400000,,,,,,,
600000,note_on,0,0,3,,,,,,,,,2,,,60,57
600000,note_on,0,0,3,,,,,,,,,2,,,53,57
600000,note_off,0,0,3,,,,,,,,,2,,,60,0
600000,note_off,240,0,3,,,,,,,,,2,,,52,0
600000,note_off,240,0,1,,,,,,,,,0,,,67,0
600240,note_off,240,0,3,,,,,,,,,2,,,53,0
600240,note_on,0,0,3,,,,,,,,,2,,,56,58
600240,note_off,0,0,3,,,,,,,,,2,,,60,0
600480,note_on,480,0,1,,,,,,,,,0,,,68,59
600480,note_off,240,0,3,,,,,,,,,2,,,56,0
600480,note_on,0,0,3,,,,,,,,,2,,,53,58
600720,note_on,0,0,1,,,,,,,,,0,,,70,60
600720,note_off,240,0,3,,,,,,,,,2,,,53,0
600720,note_on,0,0,3,,,,,,,,,2,,,52,59
600720,note_off,240,0,1,,,,,,,,,0,,,68,0
600840,note_off,120,0,1,,,,,,,,,0,,,70,0
600840,note_on,0,0,1,,,,,,,,,0,,,68,60
600960,note_off,240,0,3,,,,,,,,,2,,,52,0
600960,note_on,0,0,1,,,,,,,,,0,,,70,60
600960,note_on,0,0,3,,,,,,,,,2,,,55,60
600960,note_off,120,0,1,,,,,,,,,0,,,68,0
601080,note_off,120,0,1,,,,,,,,,0,,,70,0
601080,note_on,0,0,1,,,,,,,,,0,,,67,60
601200,note_off,120,0,1,,,,,,,,,0,,,67,0
601200,note_on,0,0,1,,,,,,,,,0,,,72,61
601200,note_off,240,0,3,,,,,,,,,2,,,55,0
601200,note_on,0,0,3,,,,,,,,,2,,,60,60
601320,note_off,120,0,1,,,,,,,,,0,,,72,0
601320,note_on,0,0,1,,,,,,,,,0,,,70,61
601440,note_off,120,0,1,,,,,,,,,0,,,70,0
601440,note_on,0,0,1,,,,,,,,,0,,,68,61
601440,note_on,0,0,3,,,,,,,,,2,,,60,61
601440,note_off,240,0,3,,,,,,,,,2,,,60,0
601620,note_off,180,0,1,,,,,,,,,0,,,68,0
601680,note_on,60,0,1,,,,,,,,,0,,,84,62
601680,note_off,240,0,3,,,,,,,,,2,,,60,0
601680,note_on,0,0,3,,,,,,,,,2,,,56,62
601860,note_off,180,0,1,,,,,,,,,0,,,84,0
601920,note_on,0,0,3,,,,,,,,,2,,,53,62
601920,note_off,240,0,3,,,,,,,,,2,,,56,0
602160,note_off,240,0,3,,,,,,,,,2,,,53,0
602160,note_on,0,0,3,,,,,,,,,2,,,50,63
602400,note_off,240,0,3,,,,,,,,,2,,,50,0
602400,note_on,0,0,3,,,,,,,,,2,,,53,64
602640,note_off,240,0,3,,,,,,,,,2,,,53,0
602640,note_on,780,0,1,,,,,,,,,0,,,77,64
602640,note_on,0,0,3,,,,,,,,,2,,,58,64
602640,note_on,0,0,3,,,,,,,,,2,,,50,64
602820,set_tempo,2820,1,0,,,,,,402684,,,,,,,
602880,note_off,240,0,1,,,,,,,,,0,,,77,0
602880,note_off,240,0,3,,,,,,,,,2,,,58,0
602880,note_off,0,0,3,,,,,,,,,2,,,50,0
602880,note_on,0,0,3,,,,,,,,,2,,,51,65
602880,note_on,0,0,3,,,,,,,,,2,,,58,65
603120,note_on,0,0,3,,,,,,,,,2,,,55,66
603120,note_off,0,0,3,,,,,,,,,2,,,58,0
603120,note_off,240,0,3,,,,,,,,,2,,,51,0
603360,note_off,240,0,3,,,,,,,,,2,,,55,0
603360,note_on,0,0,3,,,,,,,,,2,,,51,66
603360,note_on,480,0,1,,,,,,,,,0,,,79,66
603600,note_off,240,0,3,,,,,,,,,2,,,51,0
603600,note_on,0,0,1,,,,,,,,,0,,,80,66
603600,note_off,240,0,1,,,,,,,,,0,,,79,0
603600,note_on,0,0,3,,,,,,,,,2,,,48,67
603600,note_on,0,0,3,,,,,,,,,2,,,44,67
603720,note_on,0,0,1,,,,,,,,,0,,,79,67
603720,note_off,120,0,1,,,,,,,,,0,,,80,0
603840,note_on,0,0,3,,,,,,,,,2,,,53,67
603840,note_off,240,0,3,,,,,,,,,2,,,44,0
603840,note_off,0,0,3,,,,,,,,,2,,,48,0
603840,note_on,0,0,1,,,,,,,,,0,,,80,67
603840,note_off,120,0,1,,,,,,,,,0,,,79,0
603960,note_on,0,0,1,,,,,,,,,0,,,77,67
603960,note_off,120,0,1,,,,,,,,,0,,,80,0
604080,note_off,240,0,3,,,,,,,,,2,,,53,0
604080,note_off,120,0,1,,,,,,,,,0,,,77,0
604080,note_on,0,0,3,,,,,,,,,2,,,56,68
604080,note_on,0,0,1,,,,,,,,,0,,,92,67
604260,note_off,180,0,1,,,,,,,,,0,,,92,0
604320,note_off,240,0,3,,,,,,,,,2,,,56,0
604320,note_on,0,0,3,,,,,,,,,2,,,46,69
604560,note_off,240,0,3,,,,,,,,,2,,,46,0
604560,note_on,0,0,3,,,,,,,,,2,,,51,69
604800,note_on,540,0,1,,,,,,,,,0,,,75,69
604800,note_on,0,0,3,,,,,,,,,2,,,55,70
604800,note_off,240,0,3,,,,,,,,,2,,,51,0
605040,note_on,0,0,1,,,,,,,,,0,,,77,70
605040,note_off,240,0,1,,,,,,,,,0,,,75,0
605040,note_off,240,0,3,,,,,,,,,2,,,55,0
605040,note_on,0,0,3,,,,,,,,,2,,,46,71
605160,note_off,120,0,1,,,,,,,,,0,,,77,0
605160,note_on,0,0,1,,,,,,,,,0,,,75,70
605280,note_off,240,0,3,,,,,,,,,2,,,46,0
605280,note_on,0,0,3,,,,,,,,,2,,,50,71
605280,note_on,0,0,1,,,,,,,,,0,,,77,70
605280,note_off,120,0,1,,,,,,,,,0,,,75,0
605400,note_on,0,0,1,,,,,,,,,0,,,74,71
605400,note_off,120,0,1,,,,,,,,,0,,,77,0
605520,note_off,120,0,1,,,,,,,,,0,,,74,0
605520,note_on,0,0,3,,,,,,,,,2,,,46,72
605520,note_off,240,0,3,,,,,,,,,2,,,50,0
605520,note_on,0,0,1,,,,,,,,,0,,,89,71
605520,note_on,0,0,3,,,,,,,,,2,,,58,72
605625,set_tempo,2805,1,0,,,,,,425531,,,,,,,
605700,note_off,180,0,1,,,,,,,,,0,,,89,0
605760,note_off,0,0,3,,,,,,,,,2,,,46,0
605760,note_off,240,0,3,,,,,,,,,2,,,58,0
605760,note_on,0,0,3,,,,,,,,,2,,,46,73
605760,set_tempo,135,1,0,,,,,,400000,,,,,,,
605760,note_on,60,0,1,,,,,,,,,0,,,67,71
605880,note_on,120,0,1,,,,,,,,,0,,,79,72
605978,note_off,98,0,1,,,,,,,,,0,,,67,0
606000,note_on,0,0,1,,,,,,,,,0,,,67,72
606000,note_on,0,0,3,,,,,,,,,2,,,43,73
606000,note_off,22,0,1,,,,,,,,,0,,,79,0
606000,note_off,240,0,3,,,,,,,,,2,,,46,0
606120,note_on,120,0,1,,,,,,,,,0,,,79,72
606218,note_off,98,0,1,,,,,,,,,0,,,67,0
606240,note_on,0,0,1,,,,,,,,,0,,,70,72
606240,note_off,22,0,1,,,,,,,,,0,,,79,0
606240,note_off,240,0,3,,,,,,,,,2,,,43,0
606240,note_on,0,0,3,,,,,,,,,2,,,39,74
606360,note_on,120,0,1,,,,,,,,,0,,,82,73
606458,note_off,98,0,1,,,,,,,,,0,,,70,0
606480,note_on,0,0,3,,,,,,,,,2,,,38,75
606480,note_off,22,0,1,,,,,,,,,0,,,82,0
606480,note_on,0,0,1,,,,,,,,,0,,,70,73
606480,note_off,240,0,3,,,,,,,,,2,,,39,0
606600,note_on,120,0,1,,,,,,,,,0,,,82,73
606698,note_off,98,0,1,,,,,,,,,0,,,70,0
606720,note_off,240,0,3,,,,,,,,,2,,,38,0
606720,note_on,0,0,3,,,,,,,,,2,,,41,75
606720,note_off,22,0,1,,,,,,,,,0,,,82,0
606720,note_on,0,0,1,,,,,,,,,0,,,70,74
606840,note_on,120,0,1,,,,,,,,,0,,,82,74
606938,note_off,98,0,1,,,,,,,,,0,,,70,0
606960,note_on,0,0,3,,,,,,,,,2,,,46,76
606960,note_off,240,0,3,,,,,,,,,2,,,41,0
606960,note_off,22,0,1,,,,,,,,,0,,,82,0
606960,note_on,0,0,1,,,,,,,,,0,,,68,74
607080,note_on,120,0,1,,,,,,,,,0,,,80,74
607140,set_tempo,1380,1,0,,,,,,402684,,,,,,,
607178,note_off,98,0,1,,,,,,,,,0,,,68,0
607200,note_on,0,0,3,,,,,,,,,2,,,46,77
607200,note_off,22,0,1,,,,,,,,,0,,,80,0
607200,note_on,0,0,1,,,,,,,,,0,,,67,75
607200,note_off,240,0,3,,,,,,,,,2,,,46,0
607200,set_tempo,60,1,0,,,,,,400000,,,,,,,
607320,note_on,120,0,1,,,,,,,,,0,,,79,75
607418,note_off,98,0,1,,,,,,,,,0,,,67,0
607440,note_off,22,0,1,,,,,,,,,0,,,79,0
607440,note_on,0,0,1,,,,,,,,,0,,,67,75
607440,note_on,0,0,3,,,,,,,,,2,,,43,77
607440,note_off,240,0,3,,,,,,,,,2,,,46,0
607560,note_on,120,0,1,,,,,,,,,0,,,79,76
607658,note_off,98,0,1,,,,,,,,,0,,,67,0
607680,note_off,22,0,1,,,,,,,,,0,,,79,0
607680,note_on,0,0,1,,,,,,,,,0,,,70,76
607680,note_off,240,0,3,,,,,,,,,2,,,43,0
607680,note_on,0,0,3,,,,,,,,,2,,,39,78
607800,note_on,120,0,1,,,,,,,,,0,,,82,76
607898,note_off,98,0,1,,,,,,,,,0,,,70,0
607920,note_on,0,0,1,,,,,,,,,0,,,70,76
607920,note_off,22,0,1,,,,,,,,,0,,,82,0
607920,note_on,0,0,3,,,,,,,,,2,,,39,78
607920,note_off,240,0,3,,,,,,,,,2,,,39,0
608040,note_on,120,0,1,,,,,,,,,0,,,82,77
608138,note_off,98,0,1,,,,,,,,,0,,,70,0
608160,note_on,0,0,3,,,,,,,,,2,,,43,79
608160,note_off,240,0,3,,,,,,,,,2,,,39,0
608160,note_off,22,0,1,,,,,,,,,0,,,82,0
608160,note_on,0,0,1,,,,,,,,,0,,,70,77
608280,note_on,120,0,1,,,,,,,,,0,,,82,77
608378,note_off,98,0,1,,,,,,,,,0,,,70,0
608400,note_off,240,0,3,,,,,,,,,2,,,43,0
608400,note_on,0,0,3,,,,,,,,,2,,,40,94
608400,note_on,0,0,3,,,,,,,,,2,,,48,94
608400,note_off,22,0,1,,,,,,,,,0,,,82,0
608400,note_on,0,0,1,,,,,,,,,0,,,67,92
608520,note_on,120,0,1,,,,,,,,,0,,,79,78
608580,set_tempo,1380,1,0,,,,,,402684,,,,,,,
608618,note_off,98,0,1,,,,,,,,,0,,,67,0
608640,note_off,240,0,3,,,,,,,,,2,,,48,0
608640,note_off,22,0,1,,,,,,,,,0,,,79,0
608640,note_off,0,0,3,,,,,,,,,2,,,40,0
608640,note_on,0,0,3,,,,,,,,,2,,,41,80
608640,note_on,0,0,3,,,,,,,,,2,,,48,80
608640,set_tempo,60,1,0,,,,,,400000,,,,,,,
608640,note_on,0,0,1,,,,,,,,,0,,,68,78
608760,note_on,120,0,1,,,,,,,,,0,,,80,78
608858,note_off,98,0,1,,,,,,,,,0,,,68,0
608880,note_off,0,0,3,,,,,,,,,2,,,48,0
608880,note_off,240,0,3,,,,,,,,,2,,,41,0
608880,note_off,22,0,1,,,,,,,,,0,,,80,0
608880,note_on,0,0,1,,,,,,,,,0,,,68,79
608880,note_on,0,0,3,,,,,,,,,2,,,44,81
609000,note_on,120,0,1,,,,,,,,,0,,,80,79
609098,note_off,98,0,1,,,,,,,,,0,,,68,0
609120,note_off,22,0,1,,,,,,,,,0,,,80,0
609120,note_on,0,0,1,,,,,,,,,0,,,72,79
609120,note_off,240,0,3,,,,,,,,,2,,,44,0
609120,note_on,0,0,3,,,,,,,,,2,,,41,82
609240,note_on,120,0,1,,,,,,,,,0,,,84,79
609338,note_off,98,0,1,,,,,,,,,0,,,72,0
609360,note_on,0,0,3,,,,,,,,,2,,,40,82
609360,note_on,0,0,1,,,,,,,,,0,,,72,80
609360,note_off,22,0,1,,,,,,,,,0,,,84,0
609360,note_off,240,0,3,,,,,,,,,2,,,41,0
609480,note_on,120,0,1,,,,,,,,,0,,,84,80
609578,note_off,98,0,1,,,,,,,,,0,,,72,0
609600,note_off,22,0,1,,,,,,,,,0,,,84,0
609600,note_on,0,0,3,,,,,,,,,2,,,43,83
609600,note_off,240,0,3,,,,,,,,,2,,,40,0
609600,note_on,0,0,1,,,,,,,,,0,,,72,80
609720,note_on,120,0,1,,,,,,,,,0,,,84,81
609818,note_off,98,0,1,,,,,,,,,0,,,72,0
609840,note_off,240,0,3,,,,,,,,,2,,,43,0
609840,note_on,0,0,3,,,,,,,,,2,,,48,84
609840,note_off,22,0,1,,,,,,,,,0,,,84,0
609840,note_on,0,0,1,,,,,,,,,0,,,70,81
609960,note_on,120,0,1,,,,,,,,,0,,,82,81
610020,set_tempo,1380,1,0,,,,,,402684,,,,,,,
610058,note_off,98,0,1,,,,,,,,,0,,,70,0
610080,note_off,240,0,3,,,,,,,,,2,,,48,0
610080,note_on,0,0,3,,,,,,,,,2,,,48,84
610080,set_tempo,60,1,0,,,,,,400000,,,,,,,
610080,note_off,22,0,1,,,,,,,,,0,,,82,0
610080,note_on,0,0,1,,,,,,,,,0,,,68,81
610200,note_on,120,0,1,,,,,,,,,0,,,80,82
610298,note_off,98,0,1,,,,,,,,,0,,,68,0
610320,note_off,240,0,3,,,,,,,,,2,,,48,0
610320,note_off,22,0,1,,,,,,,,,0,,,80,0
610320,note_on,0,0,1,,,,,,,,,0,,,68,82
610320,note_on,0,0,3,,,,,,,,,2,,,44,85
610440,note_on,120,0,1,,,,,,,,,0,,,80,82
610538,note_off,98,0,1,,,,,,,,,0,,,68,0
610560,note_off,240,0,3,,,,,,,,,2,,,44,0
610560,note_on,0,0,3,,,,,,,,,2,,,41,86
610560,note_on,0,0,1,,,,,,,,,0,,,72,83
610560,note_off,22,0,1,,,,,,,,,0,,,80,0
610680,note_on,120,0,1,,,,,,,,,0,,,84,83
610778,note_off,98,0,1,,,,,,,,,0,,,72,0
610800,note_off,240,0,3,,,,,,,,,2,,,41,0
610800,note_on,0,0,3,,,,,,,,,2,,,38,86
610800,note_on,0,0,1,,,,,,,,,0,,,72,83
610800,note_off,22,0,1,,,,,,,,,0,,,84,0
610920,note_on,120,0,1,,,,,,,,,0,,,84,83
611018,note_off,98,0,1,,,,,,,,,0,,,72,0
611040,note_on,0,0,1,,,,,,,,,0,,,70,84
611040,note_off,240,0,3,,,,,,,,,2,,,38,0
611040,note_on,0,0,3,,,,,,,,,2,,,41,87
611040,note_off,22,0,1,,,,,,,,,0,,,84,0
611160,note_on,120,0,1,,,,,,,,,0,,,82,84
611258,note_off,98,0,1,,,,,,,,,0,,,70,0
611280,note_off,22,0,1,,,,,,,,,0,,,82,0
611280,note_off,240,0,3,,,,,,,,,2,,,41,0
611280,note_on,0,0,3,,,,,,,,,2,,,46,108
611280,note_on,0,0,3,,,,,,,,,2,,,38,108
611280,note_on,0,0,1,,,,,,,,,0,,,68,100
611400,note_on,120,0,1,,,,,,,,,0,,,80,87
611460,set_tempo,1380,1,0,,,,,,402684,,,,,,,
611498,note_off,98,0,1,,,,,,,,,0,,,68,0
611520,note_on,0,0,3,,,,,,,,,2,,,46,110
611520,set_tempo,60,1,0,,,,,,400000,,,,,,,
611520,note_off,22,0,1,,,,,,,,,0,,,80,0
611520,note_on,0,0,1,,,,,,,,,0,,,67,102
611520,note_off,240,0,3,,,,,,,,,2,,,38,0
611520,note_off,0,0,3,,,,,,,,,2,,,46,0
611520,note_on,0,0,3,,,,,,,,,2,,,39,110
611640,note_on,120,0,1,,,,,,,,,0,,,79,86
611738,note_off,98,0,1,,,,,,,,,0,,,67,0
611760,note_off,240,0,3,,,,,,,,,2,,,39,0
611760,note_on,0,0,3,,,,,,,,,2,,,43,89
611760,note_off,0,0,3,,,,,,,,,2,,,46,0
611760,note_off,22,0,1,,,,,,,,,0,,,79,0
611760,note_on,0,0,1,,,,,,,,,0,,,70,85
611880,note_on,120,0,1,,,,,,,,,0,,,82,86
611978,note_off,98,0,1,,,,,,,,,0,,,70,0
612000,note_on,0,0,3,,,,,,,,,2,,,39,89
612000,note_off,240,0,3,,,,,,,,,2,,,43,0
612000,note_off,22,0,1,,,,,,,,,0,,,82,0
612000,note_on,0,0,1,,,,,,,,,0,,,75,86
612120,note_on,120,0,1,,,,,,,,,0,,,87,86
612180,set_tempo,660,1,0,,,,,,402684,,,,,,,
612218,note_off,98,0,1,,,,,,,,,0,,,75,0
612240,note_on,0,0,3,,,,,,,,,2,,,32,112
612240,note_on,0,0,3,,,,,,,,,2,,,36,112
612240,note_off,240,0,3,,,,,,,,,2,,,39,0
612240,set_tempo,60,1,0,,,,,,400000,,,,,,,
612240,note_off,22,0,1,,,,,,,,,0,,,87,0
612240,note_on,0,0,1,,,,,,,,,0,,,75,102
612360,note_on,120,0,1,,,,,,,,,0,,,87,87
612458,note_off,98,0,1,,,,,,,,,0,,,75,0
612480,note_on,0,0,3,,,,,,,,,2,,,41,91
612480,note_off,240,0,3,,,,,,,,,2,,,32,0
612480,note_off,22,0,1,,,,,,,,,0,,,87,0
612480,note_off,0,0,3,,,,,,,,,2,,,36,0
612480,note_on,0,0,1,,,,,,,,,0,,,72,87
612600,note_on,120,0,1,,,,,,,,,0,,,84,87
612698,note_off,98,0,1,,,,,,,,,0,,,72,0
612720,note_off,240,0,3,,,,,,,,,2,,,41,0
612720,note_on,0,0,3,,,,,,,,,2,,,44,91
612720,note_on,0,0,1,,,,,,,,,0,,,68,88
612720,note_off,22,0,1,,,,,,,,,0,,,84,0
612840,note_on,120,0,1,,,,,,,,,0,,,80,88
612900,set_tempo,660,1,0,,,,,,402684,,,,,,,
612938,note_off,98,0,1,,,,,,,,,0,,,68,0
612960,note_off,22,0,1,,,,,,,,,0,,,80,0
612960,note_on,0,0,3,,,,,,,,,2,,,34,116
612960,note_off,240,0,3,,,,,,,,,2,,,44,0
612960,set_tempo,60,1,0,,,,,,400000,,,,,,,
612960,note_on,0,0,1,,,,,,,,,0,,,75,108
613080,note_on,120,0,1,,,,,,,,,0,,,87,88
613178,note_off,98,0,1,,,,,,,,,0,,,75,0
613200,note_off,22,0,1,,,,,,,,,0,,,87,0
613200,note_off,240,0,3,,,,,,,,,2,,,34,0
613200,note_on,0,0,3,,,,,,,,,2,,,39,93
613200,note_on,0,0,1,,,,,,,,,0,,,70,89
613320,note_on,120,0,1,,,,,,,,,0,,,82,89
613418,note_off,98,0,1,,,,,,,,,0,,,70,0
613440,note_on,0,0,1,,,,,,,,,0,,,67,89
613440,note_off,22,0,1,,,,,,,,,0,,,82,0
613440,note_on,0,0,3,,,,,,,,,2,,,43,93
613440,note_off,240,0,3,,,,,,,,,2,,,39,0
613560,note_on,120,0,1,,,,,,,,,0,,,79,90
613620,set_tempo,660,1,0,,,,,,402684,,,,,,,
613658,note_off,98,0,1,,,,,,,,,0,,,67,0
613680,set_tempo,60,1,0,,,,,,400000,,,,,,,
613680,note_off,22,0,1,,,,,,,,,0,,,79,0
613680,note_on,0,0,1,,,,,,,,,0,,,70,106
613680,note_on,0,0,3,,,,,,,,,2,,,34,119
613680,note_off,240,0,3,,,,,,,,,2,,,43,0
613800,note_on,120,0,1,,,,,,,,,0,,,82,90
613898,note_off,98,0,1,,,,,,,,,0,,,70,0
613920,note_off,22,0,1,,,,,,,,,0,,,82,0
613920,note_on,0,0,1,,,,,,,,,0,,,68,90
613920,note_off,240,0,3,,,,,,,,,2,,,34,0
613920,note_on,0,0,3,,,,,,,,,2,,,41,95
614040,note_on,120,0,1,,,,,,,,,0,,,80,91
614138,note_off,98,0,1,,,,,,,,,0,,,68,0
614160,note_on,0,0,3,,,,,,,,,2,,,46,95
614160,set_tempo,480,1,0,,,,,,413793,,,,,,,
614160,note_on,0,0,1,,,,,,,,,0,,,65,91
614160,note_off,22,0,1,,,,,,,,,0,,,80,0
614160,note_off,240,0,3,,,,,,,,,2,,,41,0
614280,note_on,120,0,1,,,,,,,,,0,,,77,91
614340,set_tempo,180,1,0,,,,,,465116,,,,,,,
614378,note_off,98,0,1,,,,,,,,,0,,,65,0
614400,note_on,0,0,1,,,,,,,,,0,,,55,102
614400,note_on,0,0,3,,,,,,,,,2,,,39,120
614400,note_off,240,0,3,,,,,,,,,2,,,46,0
614400,set_tempo,60,1,0,,,,,,400000,,,,,,,
614400,note_off,22,0,1,,,,,,,,,0,,,77,0
614520,note_on,120,0,1,,,,,,,,,0,,,63,102
614618,note_off,98,0,1,,,,,,,,,0,,,55,0
614640,note_on,0,0,3,,,,,,,,,2,,,55,90
614640,note_on,240,0,3,,,,,,,,,2,,,51,90
614640,note_on,22,0,1,,,,,,,,,0,,,58,103
614738,note_off,98,0,1,,,,,,,,,0,,,63,0
614760,note_on,22,0,1,,,,,,,,,0,,,67,103
614858,note_off,98,0,1,,,,,,,,,0,,,58,0
614880,note_on,22,0,1,,,,,,,,,0,,,63,104
614880,note_off,240,0,3,,,,,,,,,2,,,55,0
614880,note_off,0,0,3,,,,,,,,,2,,,51,0
614880,note_on,0,0,3,,,,,,,,,2,,,51,90
614880,note_on,0,0,3,,,,,,,,,2,,,55,90
614880,note_on,0,0,3,,,,,,,,,2,,,58,90
614978,note_off,98,0,1,,,,,,,,,0,,,67,0
615000,note_on,22,0,1,,,,,,,,,0,,,70,104
615098,note_off,98,0,1,,,,,,,,,0,,,63,0
615120,note_on,0,0,3,,,,,,,,,2,,,55,91
615120,note_on,0,0,3,,,,,,,,,2,,,63,91
615120,note_on,0,0,3,,,,,,,,,2,,,58,91
615120,note_on,0,0,3,,,,,,,,,2,,,51,91
615120,note_off,0,0,3,,,,,,,,,2,,,58,0
615120,note_off,0,0,3,,,,,,,,,2,,,55,0
615120,note_off,240,0,3,,,,,,,,,2,,,51,0
615120,note_on,22,0,1,,,,,,,,,0,,,67,105
615218,note_off,98,0,1,,,,,,,,,0,,,70,0
615240,note_on,22,0,1,,,,,,,,,0,,,75,106
615338,note_off,98,0,1,,,,,,,,,0,,,67,0
615360,note_off,0,0,3,,,,,,,,,2,,,58,0
615360,note_off,0,0,3,,,,,,,,,2,,,51,0
615360,note_on,0,0,3,,,,,,,,,2,,,63,92
615360,note_on,0,0,3,,,,,,,,,2,,,58,92
615360,note_on,0,0,3,,,,,,,,,2,,,51,92
615360,note_on,0,0,3,,,,,,,,,2,,,55,92
615360,note_off,0,0,3,,,,,,,,,2,,,63,0
615360,note_off,240,0,3,,,,,,,,,2,,,55,0
615360,note_on,22,0,1,,,,,,,,,0,,,70,106
615458,note_off,98,0,1,,,,,,,,,0,,,75,0
615480,note_on,22,0,1,,,,,,,,,0,,,79,107
615578,note_off,98,0,1,,,,,,,,,0,,,70,0
615600,note_off,0,0,3,,,,,,,,,2,,,58,0
615600,note_off,0,0,3,,,,,,,,,2,,,51,0
615600,note_off,240,0,3,,,,,,,,,2,,,55,0
615600,note_on,0,0,3,,,,,,,,,2,,,58,93
615600,note_on,0,0,3,,,,,,,,,2,,,55,93
615600,note_on,0,0,3,,,,,,,,,2,,,63,93
615600,note_off,0,0,3,,,,,,,,,2,,,63,0
615600,note_on,0,0,3,,,,,,,,,2,,,51,93
615600,note_on,22,0,1,,,,,,,,,0,,,75,107
615698,note_off,98,0,1,,,,,,,,,0,,,79,0
615720,note_on,22,0,1,,,,,,,,,0,,,82,108
615818,note_off,98,0,1,,,,,,,,,0,,,75,0
615840,note_on,0,0,3,,,,,,,,,2,,,63,94
615840,note_on,0,0,3,,,,,,,,,2,,,51,94
615840,note_off,0,0,3,,,,,,,,,2,,,63,0
615840,note_off,0,0,3,,,,,,,,,2,,,51,0
615840,note_off,240,0,3,,,,,,,,,2,,,55,0
615840,note_on,0,0,3,,,,,,,,,2,,,58,94
615840,note_off,0,0,3,,,,,,,,,2,,,58,0
615840,note_on,22,0,1,,,,,,,,,0,,,79,108
615840,note_on,0,0,3,,,,,,,,,2,,,55,94
615938,note_off,98,0,1,,,,,,,,,0,,,82,0
615960,note_on,22,0,1,,,,,,,,,0,,,87,109
616058,note_off,98,0,1,,,,,,,,,0,,,79,0
616080,note_off,0,0,3,,,,,,,,,2,,,63,0
616080,note_off,0,0,3,,,,,,,,,2,,,51,0
616080,note_off,240,0,3,,,,,,,,,2,,,55,0
616080,note_on,0,0,3,,,,,,,,,2,,,51,94
616080,note_on,0,0,3,,,,,,,,,2,,,63,94
616080,note_on,0,0,3,,,,,,,,,2,,,58,94
616080,note_on,0,0,3,,,,,,,,,2,,,55,94
616080,note_off,0,0,3,,,,,,,,,2,,,58,0
616080,note_on,22,0,1,,,,,,,,,0,,,82,109
616178,note_off,98,0,1,,,,,,,,,0,,,87,0
616200,note_on,22,0,1,,,,,,,,,0,,,91,110
616298,note_off,98,0,1,,,,,,,,,0,,,82,0
616320,note_on,0,0,3,,,,,,,,,2,,,63,95
616320,note_on,0,0,3,,,,,,,,,2,,,58,95
616320,note_on,0,0,3,,,,,,,,,2,,,55,95
616320,note_on,0,0,3,,,,,,,,,2,,,51,95
616320,note_off,0,0,3,,,,,,,,,2,,,51,0
616320,note_on,22,0,1,,,,,,,,,0,,,87,111
616320,note_off,0,0,3,,,,,,,,,2,,,58,0
616320,note_off,240,0,3,,,,,,,,,2,,,55,0
616320,note_off,0,0,3,,,,,,,,,2,,,63,0
616418,note_off,98,0,1,,,,,,,,,0,,,91,0
616440,note_on,22,0,1,,,,,,,,,0,,,94,111
616538,note_off,98,0,1,,,,,,,,,0,,,87,0
616560,note_on,0,0,3,,,,,,,,,2,,,53,96
616560,note_on,22,0,1,,,,,,,,,0,,,93,112
616560,note_on,0,0,3,,,,,,,,,2,,,56,96
616560,control_change,240,0,3,,,,,,,64,0,2,,,,
616560,note_off,0,0,3,,,,,,,,,2,,,55,0
616560,note_off,0,0,3,,,,,,,,,2,,,58,0
616560,note_off,0,0,3,,,,,,,,,2,,,63,0
616560,note_off,0,0,3,,,,,,,,,2,,,51,0
616560,note_on,0,0,3,,,,,,,,,2,,,51,96
616560,note_on,0,0,3,,,,,,,,,2,,,58,96
616560,note_on,0,0,3,,,,,,,,,2,,,62,96
616570,note_off,10,0,1,,,,,,,,,0,,,94,0
616678,note_off,108,0,1,,,,,,,,,0,,,93,0
616680,note_on,2,0,1,,,,,,,,,0,,,94,112
616800,note_on,0,0,3,,,,,,,,,2,,,62,97
616800,note_on,0,0,3,,,,,,,,,2,,,51,97
616800,note_on,0,0,3,,,,,,,,,2,,,53,97
616800,note_on,0,0,3,,,,,,,,,2,,,58,97
616800,note_on,0,0,3,,,,,,,,,2,,,56,97
616800,note_off,0,0,3,,,,,,,,,2,,,56,0
616800,note_off,0,0,3,,,,,,,,,2,,,51,0
616800,note_off,0,0,3,,,,,,,,,2,,,53,0
616800,note_off,0,0,3,,,,,,,,,2,,,58,0
616800,note_off,240,0,3,,,,,,,,,2,,,62,0
616800,note_on,0,0,1,,,,,,,,,0,,,93,113
616800,note_off,120,0,1,,,,,,,,,0,,,94,0
616920,note_off,120,0,1,,,,,,,,,0,,,93,0
616920,note_on,0,0,1,,,,,,,,,0,,,94,113
617040,note_on,0,0,3,,,,,,,,,2,,,58,97
617040,note_off,0,0,3,,,,,,,,,2,,,56,0
617040,note_off,0,0,3,,,,,,,,,2,,,58,0
617040,note_off,0,0,3,,,,,,,,,2,,,53,0
617040,note_off,0,0,3,,,,,,,,,2,,,51,0
617040,note_off,240,0,3,,,,,,,,,2,,,62,0
617040,note_on,0,0,3,,,,,,,,,2,,,53,97
617040,note_on,0,0,3,,,,,,,,,2,,,51,97
617040,note_on,0,0,1,,,,,,,,,0,,,93,114
617040,note_on,0,0,3,,,,,,,,,2,,,56,97
617040,note_on,0,0,3,,,,,,,,,2,,,62,97
617040,note_off,120,0,1,,,,,,,,,0,,,94,0
617160,note_on,0,0,1,,,,,,,,,0,,,94,114
617160,note_off,120,0,1,,,,,,,,,0,,,93,0
617220,set_tempo,2820,1,0,,,,,,402684,,,,,,,
617280,note_off,0,0,3,,,,,,,,,2,,,51,0
617280,note_off,0,0,3,,,,,,,,,2,,,56,0
617280,note_off,240,0,3,,,,,,,,,2,,,62,0
617280,note_on,0,0,3,,,,,,,,,2,,,51,99
617280,note_on,0,0,3,,,,,,,,,2,,,58,99
617280,note_on,0,0,3,,,,,,,,,2,,,63,99
617280,note_on,0,0,3,,,,,,,,,2,,,55,99
617280,note_off,0,0,3,,,,,,,,,2,,,53,0
617280,note_off,0,0,3,,,,,,,,,2,,,58,0
617280,note_on,0,0,1,,,,,,,,,0,,,96,116
617280,set_tempo,60,1,0,,,,,,400000,,,,,,,
617280,note_off,120,0,1,,,,,,,,,0,,,94,0
617400,note_off,120,0,1,,,,,,,,,0,,,96,0
617400,note_on,0,0,1,,,,,,,,,0,,,94,115
617520,note_on,0,0,3,,,,,,,,,2,,,63,99
617520,note_on,0,0,3,,,,,,,,,2,,,58,99
617520,note_on,0,0,3,,,,,,,,,2,,,55,99
617520,note_on,0,0,3,,,,,,,,,2,,,51,99
617520,note_off,0,0,3,,,,,,,,,2,,,51,0
617520,note_off,0,0,3,,,,,,,,,2,,,63,0
617520,note_off,0,0,3,,,,,,,,,2,,,58,0
617520,note_on,0,0,1,,,,,,,,,0,,,92,114
617520,note_off,120,0,1,,,,,,,,,0,,,94,0
617520,note_off,240,0,3,,,,,,,,,2,,,55,0
617640,note_on,0,0,1,,,,,,,,,0,,,91,114
617640,note_off,120,0,1,,,,,,,,,0,,,92,0
617760,note_on,0,0,1,,,,,,,,,0,,,89,113
617760,note_on,0,0,3,,,,,,,,,2,,,55,98
617760,note_off,120,0,1,,,,,,,,,0,,,91,0
617760,note_off,240,0,3,,,,,,,,,2,,,63,0
617760,note_off,0,0,3,,,,,,,,,2,,,58,0
617760,note_off,0,0,3,,,,,,,,,2,,,51,0
617760,note_on,0,0,3,,,,,,,,,2,,,63,98
617760,note_on,0,0,3,,,,,,,,,2,,,51,98
617760,note_on,0,0,3,,,,,,,,,2,,,58,98
617760,note_off,0,0,3,,,,,,,,,2,,,55,0
617880,note_off,120,0,1,,,,,,,,,0,,,89,0
617880,note_on,0,0,1,,,,,,,,,0,,,87,113
618000,note_on,0,0,3,,,,,,,,,2,,,58,97
618000,note_on,0,0,3,,,,,,,,,2,,,55,97
618000,note_on,0,0,3,,,,,,,,,2,,,63,97
618000,note_on,0,0,3,,,,,,,,,2,,,51,97
618000,note_off,0,0,3,,,,,,,,,2,,,63,0
618000,note_off,0,0,3,,,,,,,,,2,,,51,0
618000,note_off,240,0,3,,,,,,,,,2,,,58,0
618000,note_on,0,0,1,,,,,,,,,0,,,86,112
618000,note_off,120,0,1,,,,,,,,,0,,,87,0
618000,note_off,0,0,3,,,,,,,,,2,,,55,0
618120,note_off,120,0,1,,,,,,,,,0,,,86,0
618120,note_on,0,0,1,,,,,,,,,0,,,84,111
618240,note_off,0,0,3,,,,,,,,,2,,,63,0
618240,note_off,120,0,1,,,,,,,,,0,,,84,0
618240,note_on,0,0,1,,,,,,,,,0,,,82,111
618240,note_off,0,0,3,,,,,,,,,2,,,55,0
618240,note_on,0,0,3,,,,,,,,,2,,,51,97
618240,note_on,0,0,3,,,,,,,,,2,,,55,97
618240,note_on,0,0,3,,,,,,,,,2,,,58,97
618240,note_on,0,0,3,,,,,,,,,2,,,63,97
618240,note_off,0,0,3,,,,,,,,,2,,,51,0
618240,note_off,240,0,3,,,,,,,,,2,,,58,0
618360,note_on,0,0,1,,,,,,,,,0,,,80,110
618360,note_off,120,0,1,,,,,,,,,0,,,82,0
618480,note_off,0,0,3,,,,,,,,,2,,,58,0
618480,note_on,0,0,1,,,,,,,,,0,,,79,110
618480,note_off,120,0,1,,,,,,,,,0,,,80,0
618480,note_off,240,0,3,,,,,,,,,2,,,55,0
618480,note_off,0,0,3,,,,,,,,,2,,,63,0
618480,note_on,0,0,3,,,,,,,,,2,,,63,96
618480,note_off,0,0,3,,,,,,,,,2,,,51,0
618480,note_on,0,0,3,,,,,,,,,2,,,51,96
618480,note_on,0,0,3,,,,,,,,,2,,,58,96
618480,note_on,0,0,3,,,,,,,,,2,,,55,96
618600,note_on,0,0,1,,,,,,,,,0,,,77,109
618600,note_off,120,0,1,,,,,,,,,0,,,79,0
618720,note_on,0,0,1,,,,,,,,,0,,,75,109
618720,note_off,120,0,1,,,,,,,,,0,,,77,0
618720,note_on,0,0,3,,,,,,,,,2,,,58,95
618720,note_on,0,0,3,,,,,,,,,2,,,55,95
618720,note_off,0,0,3,,,,,,,,,2,,,55,0
618720,note_off,0,0,3,,,,,,,,,2,,,63,0
618720,note_off,0,0,3,,,,,,,,,2,,,51,0
618720,note_on,0,0,3,,,,,,,,,2,,,63,95
618720,note_on,0,0,3,,,,,,,,,2,,,51,95
618720,note_off,240,0,3,,,,,,,,,2,,,58,0
618840,note_off,120,0,1,,,,,,,,,0,,,75,0
618840,note_on,0,0,1,,,,,,,,,0,,,74,108
618960,note_off,120,0,1,,,,,,,,,0,,,74,0
618960,note_on,0,0,1,,,,,,,,,0,,,72,107
618960,note_off,0,0,3,,,,,,,,,2,,,63,0
618960,note_off,240,0,3,,,,,,,,,2,,,55,0
618960,note_off,0,0,3,,,,,,,,,2,,,58,0
618960,note_off,0,0,3,,,,,,,,,2,,,51,0
618960,note_on,0,0,3,,,,,,,,,2,,,63,94
618960,note_on,0,0,3,,,,,,,,,2,,,58,94
618960,note_on,0,0,3,,,,,,,,,2,,,51,94
618960,note_on,0,0,3,,,,,,,,,2,,,55,94
619080,note_on,0,0,1,,,,,,,,,0,,,70,107
619080,note_off,120,0,1,,,,,,,,,0,,,72,0
619200,note_on,0,0,1,,,,,,,,,0,,,68,106
619200,note_off,240,0,3,,,,,,,,,2,,,55,0
619200,note_off,0,0,3,,,,,,,,,2,,,58,0
619200,note_off,0,0,3,,,,,,,,,2,,,63,0
619200,note_on,0,0,3,,,,,,,,,2,,,55,94
619200,note_on,0,0,3,,,,,,,,,2,,,58,94
619200,note_on,0,0,3,,,,,,,,,2,,,51,94
619200,note_off,120,0,1,,,,,,,,,0,,,70,0
619200,note_off,0,0,3,,,,,,,,,2,,,51,0
619200,note_on,0,0,3,,,,,,,,,2,,,63,94
619320,note_off,120,0,1,,,,,,,,,0,,,68,0
619320,note_on,0,0,1,,,,,,,,,0,,,67,106
619440,note_off,0,0,3,,,,,,,,,2,,,58,0
619440,note_off,240,0,3,,,,,,,,,2,,,51,0
619440,note_off,120,0,1,,,,,,,,,0,,,67,0
619440,note_off,0,0,3,,,,,,,,,2,,,55,0
619440,note_off,0,0,3,,,,,,,,,2,,,63,0
619440,note_on,0,0,3,,,,,,,,,2,,,51,93
619440,note_on,0,0,3,,,,,,,,,2,,,58,93
619440,note_on,0,0,3,,,,,,,,,2,,,53,93
619440,note_on,0,0,1,,,,,,,,,0,,,65,105
619440,note_on,0,0,3,,,,,,,,,2,,,56,93
619560,note_off,120,0,1,,,,,,,,,0,,,65,0
619560,note_on,0,0,1,,,,,,,,,0,,,62,105
619600,note_off,160,0,3,,,,,,,,,2,,,39,0
619680,note_off,80,0,3,,,,,,,,,2,,,56,0
619680,note_off,0,0,3,,,,,,,,,2,,,53,0
619680,note_off,0,0,3,,,,,,,,,2,,,58,0
619680,note_off,0,0,3,,,,,,,,,2,,,51,0
619680,note_on,0,0,3,,,,,,,,,2,,,51,92
619680,note_on,0,0,3,,,,,,,,,2,,,53,92
619680,note_on,0,0,3,,,,,,,,,2,,,58,92
619680,note_on,0,0,3,,,,,,,,,2,,,56,92
619680,note_off,120,0,1,,,,,,,,,0,,,62,0
619680,note_on,0,0,1,,,,,,,,,0,,,58,104
619800,note_off,120,0,1,,,,,,,,,0,,,58,0
619800,note_on,0,0,1,,,,,,,,,0,,,62,103
619920,note_on,0,0,1,,,,,,,,,0,,,68,103
619920,note_off,120,0,1,,,,,,,,,0,,,62,0
619920,note_off,0,0,3,,,,,,,,,2,,,53,0
619920,set_tempo,2640,1,0,,,,,,408163,,,,,,,
619920,note_off,240,0,3,,,,,,,,,2,,,56,0
619920,note_on,0,0,3,,,,,,,,,2,,,56,92
619920,note_on,0,0,3,,,,,,,,,2,,,53,92
619920,note_on,0,0,3,,,,,,,,,2,,,58,92
619920,note_on,0,0,3,,,,,,,,,2,,,51,92
619920,note_off,0,0,3,,,,,,,,,2,,,58,0
619920,note_off,0,0,3,,,,,,,,,2,,,51,0
620025,set_tempo,105,1,0,,,,,,413793,,,,,,,
620040,note_off,120,0,1,,,,,,,,,0,,,68,0
620040,note_on,0,0,1,,,,,,,,,0,,,62,102
620160,note_off,0,0,3,,,,,,,,,2,,,58,0
620160,note_off,0,0,3,,,,,,,,,2,,,51,0
620160,note_on,0,0,3,,,,,,,,,2,,,39,120
620160,note_off,0,0,3,,,,,,,,,2,,,53,0
620160,note_off,120,0,1,,,,,,,,,0,,,62,0
620160,note_on,0,0,1,,,,,,,,,0,,,55,102
620160,note_off,240,0,3,,,,,,,,,2,,,56,0
620190,set_tempo,165,1,0,,,,,,400000,,,,,,,
620280,note_on,120,0,1,,,,,,,,,0,,,63,102
620376,note_off,96,0,1,,,,,,,,,0,,,55,0
620400,note_on,24,0,1,,,,,,,,,0,,,58,103
620400,note_on,0,0,3,,,,,,,,,2,,,55,89
620400,note_on,240,0,3,,,,,,,,,2,,,51,89
620496,note_off,96,0,1,,,,,,,,,0,,,63,0
620520,note_on,24,0,1,,,,,,,,,0,,,67,103
620616,note_off,96,0,1,,,,,,,,,0,,,58,0
620640,note_on,0,0,3,,,,,,,,,2,,,55,90
620640,note_on,0,0,3,,,,,,,,,2,,,58,90
620640,note_off,0,0,3,,,,,,,,,2,,,51,0
620640,note_off,240,0,3,,,,,,,,,2,,,55,0
620640,note_on,0,0,3,,,,,,,,,2,,,51,90
620640,note_on,24,0,1,,,,,,,,,0,,,63,104
620736,note_off,96,0,1,,,,,,,,,0,,,67,0
620760,note_on,24,0,1,,,,,,,,,0,,,70,105
620856,note_off,96,0,1,,,,,,,,,0,,,63,0
620880,note_on,0,0,3,,,,,,,,,2,,,51,90
620880,note_off,240,0,3,,,,,,,,,2,,,55,0
620880,note_off,0,0,3,,,,,,,,,2,,,58,0
620880,note_on,24,0,1,,,,,,,,,0,,,67,105
620880,note_on,0,0,3,,,,,,,,,2,,,55,90
620880,note_on,0,0,3,,,,,,,,,2,,,58,90
620880,note_on,0,0,3,,,,,,,,,2,,,63,90
620880,note_off,0,0,3,,,,,,,,,2,,,51,0
620976,note_off,96,0,1,,,,,,,,,0,,,70,0
621000,note_on,24,0,1,,,,,,,,,0,,,75,106
621096,note_off,96,0,1,,,,,,,,,0,,,67,0
621120,note_off,240,0,3,,,,,,,,,2,,,51,0
621120,note_off,0,0,3,,,,,,,,,2,,,63,0
621120,note_on,0,0,3,,,,,,,,,2,,,51,91
621120,note_on,0,0,3,,,,,,,,,2,,,55,91
621120,note_on,0,0,3,,,,,,,,,2,,,63,91
621120,note_on,0,0,3,,,,,,,,,2,,,58,91
621120,note_off,0,0,3,,,,,,,,,2,,,55,0
621120,note_on,24,0,1,,,,,,,,,0,,,70,106
621120,note_off,0,0,3,,,,,,,,,2,,,58,0
621216,note_off,96,0,1,,,,,,,,,0,,,75,0
621240,note_on,24,0,1,,,,,,,,,0,,,79,107
621336,note_off,96,0,1,,,,,,,,,0,,,70,0
621360,note_off,240,0,3,,,,,,,,,2,,,51,0
621360,note_off,0,0,3,,,,,,,,,2,,,55,0
621360,note_off,0,0,3,,,,,,,,,2,,,63,0
621360,note_off,0,0,3,,,,,,,,,2,,,58,0
621360,note_on,0,0,3,,,,,,,,,2,,,51,92
621360,note_on,0,0,3,,,,,,,,,2,,,55,92
621360,note_on,0,0,3,,,,,,,,,2,,,58,92
621360,note_on,0,0,3,,,,,,,,,2,,,63,92
621360,note_on,24,0,1,,,,,,,,,0,,,75,107
621456,note_off,96,0,1,,,,,,,,,0,,,79,0
621480,note_on,24,0,1,,,,,,,,,0,,,82,108
621576,note_off,96,0,1,,,,,,,,,0,,,75,0
621600,note_off,0,0,3,,,,,,,,,2,,,55,0
621600,note_off,0,0,3,,,,,,,,,2,,,51,0
621600,note_on,0,0,3,,,,,,,,,2,,,51,93
621600,note_on,0,0,3,,,,,,,,,2,,,63,93
621600,note_on,0,0,3,,,,,,,,,2,,,58,93
621600,note_on,0,0,3,,,,,,,,,2,,,55,93
621600,note_on,24,0,1,,,,,,,,,0,,,79,108
621600,note_off,0,0,3,,,,,,,,,2,,,58,0
621600,note_off,240,0,3,,,,,,,,,2,,,63,0
621696,note_off,96,0,1,,,,,,,,,0,,,82,0
621720,note_on,24,0,1,,,,,,,,,0,,,87,109
621816,note_off,96,0,1,,,,,,,,,0,,,79,0
621840,note_off,0,0,3,,,,,,,,,2,,,63,0
621840,note_off,0,0,3,,,,,,,,,2,,,58,0
621840,note_off,0,0,3,,,,,,,,,2,,,51,0
621840,note_on,0,0,3,,,,,,,,,2,,,51,94
621840,note_on,0,0,3,,,,,,,,,2,,,63,94
621840,note_on,0,0,3,,,,,,,,,2,,,58,94
621840,note_on,0,0,3,,,,,,,,,2,,,55,94
621840,note_on,24,0,1,,,,,,,,,0,,,82,109
621840,note_off,240,0,3,,,,,,,,,2,,,55,0
621936,note_off,96,0,1,,,,,,,,,0,,,87,0
621960,note_on,24,0,1,,,,,,,,,0,,,91,110
622056,note_off,96,0,1,,,,,,,,,0,,,82,0
622080,note_on,24,0,1,,,,,,,,,0,,,87,111
622080,note_on,0,0,3,,,,,,,,,2,,,55,95
622080,note_on,0,0,3,,,,,,,,,2,,,58,95
622080,note_on,0,0,3,,,,,,,,,2,,,63,95
622080,note_off,0,0,3,,,,,,,,,2,,,51,0
622080,note_off,0,0,3,,,,,,,,,2,,,58,0
622080,note_on,0,0,3,,,,,,,,,2,,,51,95
622080,note_off,0,0,3,,,,,,,,,2,,,63,0
622080,note_off,240,0,3,,,,,,,,,2,,,55,0
622176,note_off,96,0,1,,,,,,,,,0,,,91,0
622200,note_on,24,0,1,,,,,,,,,0,,,94,111
622296,note_off,96,0,1,,,,,,,,,0,,,87,0
622320,note_on,0,0,3,,,,,,,,,2,,,51,96
622320,note_on,0,0,3,,,,,,,,,2,,,56,96
622320,note_off,0,0,3,,,,,,,,,2,,,63,0
622320,note_off,0,0,3,,,,,,,,,2,,,55,0
622320,note_off,0,0,3,,,,,,,,,2,,,58,0
622320,note_off,0,0,3,,,,,,,,,2,,,51,0
622320,control_change,240,0,3,,,,,,,64,0,2,,,,
622320,control_change,24,0,1,,,,,,,64,0,0,,,,
622320,note_on,0,0,3,,,,,,,,,2,,,53,96
622320,note_off,0,0,1,,,,,,,,,0,,,94,0
622320,note_on,0,0,3,,,,,,,,,2,,,62,96
622320,note_on,0,0,1,,,,,,,,,0,,,93,112
622320,note_on,0,0,3,,,,,,,,,2,,,58,96
622440,note_off,120,0,1,,,,,,,,,0,,,93,0
622440,note_on,0,0,1,,,,,,,,,0,,,94,112
622560,note_on,0,0,3,,,,,,,,,2,,,62,96
622560,note_on,0,0,3,,,,,,,,,2,,,56,96
622560,note_on,0,0,3,,,,,,,,,2,,,53,96
622560,note_on,0,0,3,,,,,,,,,2,,,51,96
622560,note_off,0,0,3,,,,,,,,,2,,,51,0
622560,note_off,0,0,3,,,,,,,,,2,,,53,0
622560,note_off,0,0,3,,,,,,,,,2,,,58,0
622560,note_on,0,0,3,,,,,,,,,2,,,58,96
622560,note_off,240,0,3,,,,,,,,,2,,,62,0
622560,note_on,0,0,1,,,,,,,,,0,,,93,113
622560,note_off,120,0,1,,,,,,,,,0,,,94,0
622560,note_off,0,0,3,,,,,,,,,2,,,56,0
622680,note_on,0,0,1,,,,,,,,,0,,,94,113
622680,note_off,120,0,1,,,,,,,,,0,,,93,0
622800,note_on,0,0,1,,,,,,,,,0,,,93,114
622800,note_off,120,0,1,,,,,,,,,0,,,94,0
622800,note_on,0,0,3,,,,,,,,,2,,,62,97
622800,note_off,0,0,3,,,,,,,,,2,,,53,0
622800,note_off,0,0,3,,,,,,,,,2,,,51,0
622800,note_off,0,0,3,,,,,,,,,2,,,58,0
622800,note_on,0,0,3,,,,,,,,,2,,,58,97
622800,note_on,0,0,3,,,,,,,,,2,,,51,97
622800,note_on,0,0,3,,,,,,,,,2,,,53,97
622800,note_on,0,0,3,,,,,,,,,2,,,56,97
622800,note_off,0,0,3,,,,,,,,,2,,,56,0
622800,note_off,240,0,3,,,,,,,,,2,,,62,0
622920,note_off,120,0,1,,,,,,,,,0,,,93,0
622920,note_on,0,0,1,,,,,,,,,0,,,94,114
622980,set_tempo,2790,1,0,,,,,,402684,,,,,,,
623040,note_off,240,0,3,,,,,,,,,2,,,62,0
623040,set_tempo,60,1,0,,,,,,400000,,,,,,,
623040,note_on,0,0,1,,,,,,,,,0,,,96,118
623040,note_on,0,0,3,,,,,,,,,2,,,55,99
623040,note_on,0,0,3,,,,,,,,,2,,,63,99
623040,note_on,0,0,3,,,,,,,,,2,,,58,99
623040,note_off,120,0,1,,,,,,,,,0,,,94,0
623040,note_off,0,0,3,,,,,,,,,2,,,58,0
623040,note_off,0,0,3,,,,,,,,,2,,,51,0
623040,note_off,0,0,3,,,,,,,,,2,,,56,0
623040,note_off,0,0,3,,,,,,,,,2,,,53,0
623040,note_on,0,0,3,,,,,,,,,2,,,51,99
623160,note_off,120,0,1,,,,,,,,,0,,,96,0
623160,note_on,0,0,1,,,,,,,,,0,,,94,117
623280,note_off,120,0,1,,,,,,,,,0,,,94,0
623280,note_on,0,0,1,,,,,,,,,0,,,92,116
623280,note_on,0,0,3,,,,,,,,,2,,,55,98
623280,note_on,0,0,3,,,,,,,,,2,,,63,98
623280,note_on,0,0,3,,,,,,,,,2,,,51,98
623280,note_off,0,0,3,,,,,,,,,2,,,58,0
623280,note_off,0,0,3,,,,,,,,,2,,,63,0
623280,note_off,240,0,3,,,,,,,,,2,,,55,0
623280,note_on,0,0,3,,,,,,,,,2,,,58,98
623280,note_off,0,0,3,,,,,,,,,2,,,51,0
623400,note_on,0,0,1,,,,,,,,,0,,,91,116
623400,note_off,120,0,1,,,,,,,,,0,,,92,0
623520,note_off,240,0,3,,,,,,,,,2,,,55,0
623520,note_on,0,0,3,,,,,,,,,2,,,58,97
623520,note_on,0,0,3,,,,,,,,,2,,,63,97
623520,note_off,0,0,3,,,,,,,,,2,,,51,0
623520,note_off,0,0,3,,,,,,,,,2,,,63,0
623520,note_off,0,0,3,,,,,,,,,2,,,58,0
623520,note_off,120,0,1,,,,,,,,,0,,,91,0
623520,note_on,0,0,3,,,,,,,,,2,,,55,97
623520,note_on,0,0,1,,,,,,,,,0,,,89,115
623520,note_on,0,0,3,,,,,,,,,2,,,51,97
623640,note_on,0,0,1,,,,,,,,,0,,,87,115
623640,note_off,120,0,1,,,,,,,,,0,,,89,0
623760,note_off,240,0,3,,,,,,,,,2,,,55,0
623760,note_off,0,0,3,,,,,,,,,2,,,63,0
623760,note_off,0,0,3,,,,,,,,,2,,,51,0
623760,note_on,0,0,3,,,,,,,,,2,,,63,96
623760,note_on,0,0,3,,,,,,,,,2,,,51,96
623760,note_on,0,0,3,,,,,,,,,2,,,58,96
623760,note_on,0,0,3,,,,,,,,,2,,,55,96
623760,note_on,0,0,1,,,,,,,,,0,,,86,114
623760,note_off,120,0,1,,,,,,,,,0,,,87,0
623760,note_off,0,0,3,,,,,,,,,2,,,58,0
623880,note_on,0,0,1,,,,,,,,,0,,,84,114
623880,note_off,120,0,1,,,,,,,,,0,,,86,0
624000,note_on,0,0,3,,,,,,,,,2,,,55,96
624000,note_off,120,0,1,,,,,,,,,0,,,84,0
624000,note_on,0,0,1,,,,,,,,,0,,,82,113
624000,note_off,240,0,3,,,,,,,,,2,,,55,0
624000,note_on,0,0,3,,,,,,,,,2,,,58,96
624000,note_on,0,0,3,,,,,,,,,2,,,63,96
624000,note_off,0,0,3,,,,,,,,,2,,,58,0
624000,note_off,0,0,3,,,,,,,,,2,,,51,0
624000,note_off,0,0,3,,,,,,,,,2,,,63,0
624000,note_on,0,0,3,,,,,,,,,2,,,51,96
624120,note_off,120,0,1,,,,,,,,,0,,,82,0
624120,note_on,0,0,1,,,,,,,,,0,,,80,113
624240,note_off,120,0,1,,,,,,,,,0,,,80,0
624240,note_on,0,0,1,,,,,,,,,0,,,79,112
624240,note_on,0,0,3,,,,,,,,,2,,,55,95
624240,note_on,0,0,3,,,,,,,,,2,,,58,95
624240,note_on,0,0,3,,,,,,,,,2,,,51,95
624240,note_on,0,0,3,,,,,,,,,2,,,63,95
624240,note_off,0,0,3,,,,,,,,,2,,,63,0
624240,note_off,0,0,3,,,,,,,,,2,,,58,0
624240,note_off,0,0,3,,,,,,,,,2,,,51,0
624240,note_off,240,0,3,,,,,,,,,2,,,55,0
624360,note_on,0,0,1,,,,,,,,,0,,,77,112
624360,note_off,120,0,1,,,,,,,,,0,,,79,0
624480,note_off,0,0,3,,,,,,,,,2,,,63,0
624480,note_off,240,0,3,,,,,,,,,2,,,55,0
624480,note_on,0,0,3,,,,,,,,,2,,,51,94
624480,note_on,0,0,3,,,,,,,,,2,,,58,94
624480,note_on,0,0,3,,,,,,,,,2,,,55,94
624480,note_off,0,0,3,,,,,,,,,2,,,51,0
624480,note_off,0,0,3,,,,,,,,,2,,,58,0
624480,note_on,0,0,1,,,,,,,,,0,,,75,111
624480,note_off,120,0,1,,,,,,,,,0,,,77,0
624560,note_off,80,0,1,,,,,,,,,0,,,75,0
624560,note_on,0,0,1,,,,,,,,,0,,,74,111
624640,note_off,80,0,1,,,,,,,,,0,,,74,0
624640,note_on,0,0,1,,,,,,,,,0,,,72,111
624720,note_off,80,0,1,,,,,,,,,0,,,72,0
624720,note_on,0,0,1,,,,,,,,,0,,,70,110
624720,note_on,0,0,3,,,,,,,,,2,,,55,93
624720,note_on,0,0,3,,,,,,,,,2,,,58,93
624720,note_off,240,0,3,,,,,,,,,2,,,55,0
624720,note_off,0,0,3,,,,,,,,,2,,,58,0
624720,note_off,0,0,3,,,,,,,,,2,,,51,0
624720,note_on,0,0,3,,,,,,,,,2,,,51,93
624800,note_on,0,0,1,,,,,,,,,0,,,68,110
624800,note_off,80,0,1,,,,,,,,,0,,,70,0
624880,note_on,0,0,1,,,,,,,,,0,,,67,110
624880,note_off,80,0,1,,,,,,,,,0,,,68,0
624960,note_on,0,0,3,,,,,,,,,2,,,58,92
624960,note_on,0,0,3,,,,,,,,,2,,,51,92
624960,note_off,0,0,3,,,,,,,,,2,,,58,0
624960,note_off,0,0,3,,,,,,,,,2,,,51,0
624960,note_on,0,0,3,,,,,,,,,2,,,55,92
624960,note_off,240,0,3,,,,,,,,,2,,,55,0
624960,note_on,0,0,1,,,,,,,,,0,,,65,109
624960,note_off,80,0,1,,,,,,,,,0,,,67,0
625040,note_on,0,0,1,,,,,,,,,0,,,63,109
625040,note_off,80,0,1,,,,,,,,,0,,,65,0
625120,note_on,0,0,1,,,,,,,,,0,,,62,109
625120,note_off,80,0,1,,,,,,,,,0,,,63,0
625200,note_on,0,0,1,,,,,,,,,0,,,60,108
625200,note_off,80,0,1,,,,,,,,,0,,,62,0
625200,note_off,0,0,3,,,,,,,,,2,,,58,0
625200,note_off,0,0,3,,,,,,,,,2,,,51,0
625200,note_on,0,0,3,,,,,,,,,2,,,51,91
625200,note_off,240,0,3,,,,,,,,,2,,,55,0
625200,note_on,0,0,3,,,,,,,,,2,,,53,91
625320,note_on,0,0,1,,,,,,,,,0,,,58,108
625320,note_off,120,0,1,,,,,,,,,0,,,60,0
625360,note_off,160,0,3,,,,,,,,,2,,,39,0
625440,note_on,0,0,1,,,,,,,,,0,,,57,107
625440,note_off,120,0,1,,,,,,,,,0,,,58,0
625440,note_on,0,0,3,,,,,,,,,2,,,51,90
625440,note_off,80,0,3,,,,,,,,,2,,,53,0
625440,note_off,0,0,3,,,,,,,,,2,,,51,0
625440,note_on,0,0,3,,,,,,,,,2,,,53,90
625440,note_on,0,0,3,,,,,,,,,2,,,41,90
625560,note_off,120,0,1,,,,,,,,,0,,,57,0
625560,note_on,0,0,1,,,,,,,,,0,,,60,107
625680,note_on,0,0,1,,,,,,,,,0,,,63,106
625680,note_off,120,0,1,,,,,,,,,0,,,60,0
625680,note_off,240,0,3,,,,,,,,,2,,,53,0
625680,note_off,0,0,3,,,,,,,,,2,,,51,0
625680,note_off,0,0,3,,,,,,,,,2,,,41,0
625680,note_on,0,0,3,,,,,,,,,2,,,51,89
625680,note_on,0,0,3,,,,,,,,,2,,,41,89
625680,note_on,0,0,3,,,,,,,,,2,,,53,89
625740,set_tempo,2700,1,0,,,,,,425531,,,,,,,
625800,note_off,120,0,1,,,,,,,,,0,,,63,0
625800,note_on,0,0,1,,,,,,,,,0,,,57,106
625860,set_tempo,120,1,0,,,,,,571428,,,,,,,
625920,control_change,240,0,3,,,,,,,64,0,2,,,,
625920,note_off,0,0,3,,,,,,,,,2,,,41,0
625920,note_off,0,0,3,,,,,,,,,2,,,53,0
625920,note_off,0,0,3,,,,,,,,,2,,,51,0
625920,note_on,0,0,3,,,,,,,,,2,,,34,120
625920,note_on,0,0,3,,,,,,,,,2,,,46,120
625920,set_tempo,60,1,0,,,,,,454545,,,,,,,
625920,note_on,0,0,1,,,,,,,,,0,,,58,118
625920,note_off,0,0,1,,,,,,,,,0,,,57,0
625920,control_change,0,0,1,,,,,,,64,0,0,,,,
625920,control_change,0,0,1,,,,,,,64,0,0,,,,
625920,control_change,120,0,1,,,,,,,64,0,0,,,,
625920,control_change,0,0,1,,,,,,,64,0,0,,,,
625980,control_change,0,0,1,,,,,,,64,127,0,,,,
625980,control_change,60,0,1,,,,,,,64,127,0,,,,
625980,control_change,0,0,1,,,,,,,64,127,0,,,,
625980,control_change,0,0,1,,,,,,,64,127,0,,,,
625980,control_change,60,0,3,,,,,,,64,127,2,,,,
626400,note_off,420,0,1,,,,,,,,,0,,,58,0
626400,note_off,0,0,3,,,,,,,,,2,,,34,0
626400,note_off,420,0,3,,,,,,,,,2,,,46,0
626640,note_on,240,0,1,,,,,,,,,0,,,70,115
626640,note_on,240,0,3,,,,,,,,,2,,,58,116
626640,set_tempo,720,1,0,,,,,,419580,,,,,,,
627120,note_off,480,0,1,,,,,,,,,0,,,70,0
627120,note_off,480,0,3,,,,,,,,,2,,,58,0
627360,note_on,240,0,1,,,,,,,,,0,,,73,113
627360,note_on,240,0,3,,,,,,,,,2,,,61,113
627840,note_off,480,0,1,,,,,,,,,0,,,73,0
627840,note_off,480,0,3,,,,,,,,,2,,,61,0
628080,note_on,240,0,3,,,,,,,,,2,,,66,110
628080,note_on,240,0,1,,,,,,,,,0,,,78,111
628560,note_off,480,0,3,,,,,,,,,2,,,66,0
628560,note_off,480,0,1,,,,,,,,,0,,,78,0
628800,note_on,240,0,3,,,,,,,,,2,,,61,108
628800,note_on,240,0,1,,,,,,,,,0,,,73,110
629280,note_off,480,0,1,,,,,,,,,0,,,73,0
629280,note_off,480,0,3,,,,,,,,,2,,,61,0
629520,note_on,240,0,3,,,,,,,,,2,,,58,105
629520,note_on,240,0,1,,,,,,,,,0,,,70,108
630000,note_off,480,0,1,,,,,,,,,0,,,70,0
630000,note_off,480,0,3,,,,,,,,,2,,,58,0
630240,note_on,240,0,3,,,,,,,,,2,,,54,102
630240,note_on,240,0,1,,,,,,,,,0,,,66,106
630720,note_off,480,0,3,,,,,,,,,2,,,54,0
630720,note_off,480,0,1,,,,,,,,,0,,,66,0
630960,note_on,240,0,3,,,,,,,,,2,,,49,99
630960,note_on,240,0,1,,,,,,,,,0,,,61,104
631185,set_tempo,4545,1,0,,,,,,447761,,,,,,,
631440,note_off,480,0,1,,,,,,,,,0,,,61,0
631440,note_off,480,0,3,,,,,,,,,2,,,49,0
631620,control_change,180,0,1,,,,,,,64,0,0,,,,
631620,control_change,180,0,3,,,,,,,64,0,2,,,,
631680,control_change,60,0,3,,,,,,,64,127,2,,,,
631680,note_on,0,0,1,,,,,,,,,0,,,57,118
631680,control_change,60,0,1,,,,,,,64,127,0,,,,
631680,note_on,0,0,3,,,,,,,,,2,,,45,120
631680,note_on,0,0,3,,,,,,,,,2,,,33,120
632160,note_off,0,0,3,,,,,,,,,2,,,45,0
632160,note_off,480,0,1,,,,,,,,,0,,,57,0
632160,note_off,480,0,3,,,,,,,,,2,,,33,0
632400,note_on,240,0,3,,,,,,,,,2,,,57,114
632400,set_tempo,1215,1,0,,,,,,419580,,,,,,,
632400,note_on,240,0,1,,,,,,,,,0,,,69,113
632880,note_off,480,0,1,,,,,,,,,0,,,69,0
632880,note_off,480,0,3,,,,,,,,,2,,,57,0
633120,note_on,240,0,1,,,,,,,,,0,,,72,111
633120,note_on,240,0,3,,,,,,,,,2,,,60,111
633600,note_off,480,0,3,,,,,,,,,2,,,60,0
633600,note_off,480,0,1,,,,,,,,,0,,,72,0
633840,note_on,240,0,3,,,,,,,,,2,,,65,108
633840,note_on,240,0,1,,,,,,,,,0,,,77,109
634320,note_off,480,0,1,,,,,,,,,0,,,77,0
634320,note_off,480,0,3,,,,,,,,,2,,,65,0
634560,note_on,240,0,3,,,,,,,,,2,,,60,105
634560,note_on,240,0,1,,,,,,,,,0,,,72,108
635040,note_off,480,0,1,,,,,,,,,0,,,72,0
635040,note_off,480,0,3,,,,,,,,,2,,,60,0
635280,note_on,240,0,1,,,,,,,,,0,,,69,106
635280,note_on,240,0,3,,,,,,,,,2,,,57,101
635760,note_off,480,0,1,,,,,,,,,0,,,69,0
635760,note_off,480,0,3,,,,,,,,,2,,,57,0
636000,note_on,240,0,1,,,,,,,,,0,,,65,104
636000,note_on,240,0,3,,,,,,,,,2,,,53,98
636480,note_off,480,0,1,,,,,,,,,0,,,65,0
636480,note_off,480,0,3,,,,,,,,,2,,,53,0
636720,note_on,240,0,1,,,,,,,,,0,,,60,102
636720,note_on,240,0,3,,,,,,,,,2,,,48,95
636975,set_tempo,4575,1,0,,,,,,447761,,,,,,,
637200,note_off,480,0,1,,,,,,,,,0,,,60,0
637200,note_off,480,0,3,,,,,,,,,2,,,48,0
637380,control_change,180,0,1,,,,,,,64,0,0,,,,
637380,control_change,180,0,3,,,,,,,64,0,2,,,,
637440,set_tempo,465,1,0,,,,,,400000,,,,,,,
637440,note_on,60,0,1,,,,,,,,,0,,,73,62
637440,note_on,60,0,3,,,,,,,,,2,,,66,40
637440,note_on,0,0,3,,,,,,,,,2,,,61,40
637440,note_on,0,0,3,,,,,,,,,2,,,58,40
637680,note_off,0,0,3,,,,,,,,,2,,,66,0
637680,note_off,240,0,3,,,,,,,,,2,,,58,0
637680,note_off,0,0,3,,,,,,,,,2,,,61,0
637680,note_on,0,0,3,,,,,,,,,2,,,58,41
637680,note_on,0,0,3,,,,,,,,,2,,,61,41
637680,note_off,240,0,1,,,,,,,,,0,,,73,0
637680,note_on,0,0,3,,,,,,,,,2,,,66,41
637860,note_on,180,0,1,,,,,,,,,0,,,84,65
637920,note_on,0,0,3,,,,,,,,,2,,,66,42
637920,note_on,0,0,3,,,,,,,,,2,,,58,42
637920,note_on,0,0,3,,,,,,,,,2,,,61,42
637920,note_off,240,0,3,,,,,,,,,2,,,61,0
637920,note_off,60,0,1,,,,,,,,,0,,,84,0
637920,note_off,0,0,3,,,,,,,,,2,,,58,0
637920,note_on,0,0,1,,,,,,,,,0,,,82,65
637920,note_off,0,0,3,,,,,,,,,2,,,66,0
638040,note_off,120,0,1,,,,,,,,,0,,,82,0
638040,note_on,0,0,1,,,,,,,,,0,,,81,66
638160,note_off,120,0,1,,,,,,,,,0,,,81,0
638160,note_on,0,0,1,,,,,,,,,0,,,82,66
638160,note_on,0,0,3,,,,,,,,,2,,,66,43
638160,note_on,0,0,3,,,,,,,,,2,,,58,43
638160,note_on,0,0,3,,,,,,,,,2,,,61,43
638160,note_off,0,0,3,,,,,,,,,2,,,58,0
638160,note_off,240,0,3,,,,,,,,,2,,,61,0
638160,note_off,0,0,3,,,,,,,,,2,,,66,0
638340,note_off,180,0,1,,,,,,,,,0,,,82,0
638400,note_off,240,0,3,,,,,,,,,2,,,61,0
638400,note_off,0,0,3,,,,,,,,,2,,,58,0
638400,note_off,0,0,3,,,,,,,,,2,,,66,0
638400,note_on,0,0,3,,,,,,,,,2,,,58,44
638400,note_on,0,0,3,,,,,,,,,2,,,61,44
638400,note_on,0,0,3,,,,,,,,,2,,,66,44
638580,note_on,240,0,1,,,,,,,,,0,,,87,69
638640,note_off,60,0,1,,,,,,,,,0,,,87,0
638640,note_on,0,0,1,,,,,,,,,0,,,85,69
638640,note_off,240,0,3,,,,,,,,,2,,,61,0
638640,note_off,0,0,3,,,,,,,,,2,,,58,0
638640,note_off,0,0,3,,,,,,,,,2,,,66,0
638640,note_on,0,0,3,,,,,,,,,2,,,58,44
638640,note_on,0,0,3,,,,,,,,,2,,,66,44
638640,note_on,0,0,3,,,,,,,,,2,,,61,44
638760,note_off,120,0,1,,,,,,,,,0,,,85,0
638760,note_on,0,0,1,,,,,,,,,0,,,84,69
638880,note_off,240,0,3,,,,,,,,,2,,,61,0
638880,note_off,0,0,3,,,,,,,,,2,,,66,0
638880,note_off,0,0,3,,,,,,,,,2,,,58,0
638880,note_on,0,0,3,,,,,,,,,2,,,66,45
638880,note_on,0,0,3,,,,,,,,,2,,,58,45
638880,note_on,0,0,3,,,,,,,,,2,,,61,45
638880,note_on,0,0,1,,,,,,,,,0,,,85,70
638880,note_off,120,0,1,,,,,,,,,0,,,84,0
639060,note_off,180,0,1,,,,,,,,,0,,,85,0
639120,note_off,0,0,3,,,,,,,,,2,,,66,0
639120,note_on,0,0,3,,,,,,,,,2,,,58,46
639120,note_on,0,0,3,,,,,,,,,2,,,66,46
639120,note_on,0,0,3,,,,,,,,,2,,,61,46
639120,note_off,0,0,3,,,,,,,,,2,,,58,0
639120,note_off,240,0,3,,,,,,,,,2,,,61,0
639300,note_on,240,0,1,,,,,,,,,0,,,92,72
639360,note_off,0,0,3,,,,,,,,,2,,,66,0
639360,note_off,60,0,1,,,,,,,,,0,,,92,0
639360,note_on,0,0,1,,,,,,,,,0,,,90,73
639360,note_off,240,0,3,,,,,,,,,2,,,61,0
639360,note_on,0,0,3,,,,,,,,,2,,,58,47
639360,note_on,0,0,3,,,,,,,,,2,,,66,47
639360,note_on,0,0,3,,,,,,,,,2,,,61,47
639360,note_off,0,0,3,,,,,,,,,2,,,58,0
639480,note_on,0,0,1,,,,,,,,,0,,,89,73
639480,note_off,120,0,1,,,,,,,,,0,,,90,0
639600,note_on,0,0,3,,,,,,,,,2,,,66,48
639600,note_off,240,0,3,,,,,,,,,2,,,66,0
639600,note_on,0,0,3,,,,,,,,,2,,,61,48
639600,note_off,0,0,3,,,,,,,,,2,,,58,0
639600,note_on,0,0,3,,,,,,,,,2,,,58,48
639600,note_off,0,0,3,,,,,,,,,2,,,61,0
639600,note_off,120,0,1,,,,,,,,,0,,,89,0
639600,note_on,0,0,1,,,,,,,,,0,,,90,73
639780,note_off,180,0,1,,,,,,,,,0,,,90,0
639840,note_on,0,0,3,,,,,,,,,2,,,61,49
639840,note_on,0,0,3,,,,,,,,,2,,,66,49
639840,note_off,0,0,3,,,,,,,,,2,,,66,0
639840,note_off,0,0,3,,,,,,,,,2,,,58,0
639840,note_off,240,0,3,,,,,,,,,2,,,61,0
639840,note_on,0,0,3,,,,,,,,,2,,,58,49
640020,note_on,240,0,1,,,,,,,,,0,,,87,72
640080,note_on,0,0,1,,,,,,,,,0,,,85,72
640080,note_off,60,0,1,,,,,,,,,0,,,87,0
640080,note_off,0,0,3,,,,,,,,,2,,,66,0
640080,note_on,0,0,3,,,,,,,,,2,,,61,50
640080,note_on,0,0,3,,,,,,,,,2,,,58,50
640080,note_off,240,0,3,,,,,,,,,2,,,61,0
640080,note_off,0,0,3,,,,,,,,,2,,,58,0
640080,note_on,0,0,3,,,,,,,,,2,,,66,50
640200,note_on,0,0,1,,,,,,,,,0,,,84,72
640200,note_off,120,0,1,,,,,,,,,0,,,85,0
640320,note_off,240,0,3,,,,,,,,,2,,,61,0
640320,note_off,0,0,3,,,,,,,,,2,,,58,0
640320,note_off,0,0,3,,,,,,,,,2,,,66,0
640320,note_on,0,0,3,,,,,,,,,2,,,58,51
640320,note_on,0,0,3,,,,,,,,,2,,,61,51
640320,note_on,0,0,3,,,,,,,,,2,,,66,51
640320,note_off,120,0,1,,,,,,,,,0,,,84,0
640320,note_on,0,0,1,,,,,,,,,0,,,85,71
640500,note_off,180,0,1,,,,,,,,,0,,,85,0
640560,note_off,240,0,3,,,,,,,,,2,,,61,0
640560,note_off,0,0,3,,,,,,,,,2,,,66,0
640560,note_off,0,0,3,,,,,,,,,2,,,58,0
640560,note_on,0,0,3,,,,,,,,,2,,,66,50
640560,note_on,0,0,3,,,,,,,,,2,,,58,50
640560,note_on,0,0,3,,,,,,,,,2,,,61,50
640740,note_on,240,0,1,,,,,,,,,0,,,84,70
640800,note_on,0,0,3,,,,,,,,,2,,,61,49
640800,note_on,0,0,3,,,,,,,,,2,,,66,49
640800,note_on,0,0,3,,,,,,,,,2,,,58,49
640800,note_off,0,0,3,,,,,,,,,2,,,66,0
640800,note_on,0,0,1,,,,,,,,,0,,,82,70
640800,note_off,240,0,3,,,,,,,,,2,,,61,0
640800,note_off,60,0,1,,,,,,,,,0,,,84,0
640800,note_off,0,0,3,,,,,,,,,2,,,58,0
640920,note_off,120,0,1,,,,,,,,,0,,,82,0
640920,note_on,0,0,1,,,,,,,,,0,,,81,70
641040,note_off,240,0,3,,,,,,,,,2,,,58,0
641040,note_off,0,0,3,,,,,,,,,2,,,61,0
641040,note_off,0,0,3,,,,,,,,,2,,,66,0
641040,note_on,0,0,3,,,,,,,,,2,,,58,48
641040,note_on,0,0,3,,,,,,,,,2,,,66,48
641040,note_on,0,0,3,,,,,,,,,2,,,61,48
641040,note_on,0,0,1,,,,,,,,,0,,,82,69
641040,note_off,120,0,1,,,,,,,,,0,,,81,0
641220,note_off,180,0,1,,,,,,,,,0,,,82,0
641280,note_on,0,0,3,,,,,,,,,2,,,61,48
641280,note_off,0,0,3,,,,,,,,,2,,,66,0
641280,note_on,0,0,3,,,,,,,,,2,,,66,48
641280,note_off,0,0,3,,,,,,,,,2,,,58,0
641280,note_off,240,0,3,,,,,,,,,2,,,61,0
641280,note_on,0,0,3,,,,,,,,,2,,,58,48
641460,note_on,240,0,1,,,,,,,,,0,,,80,68
641520,note_on,0,0,1,,,,,,,,,0,,,78,68
641520,note_off,60,0,1,,,,,,,,,0,,,80,0
641520,note_off,0,0,3,,,,,,,,,2,,,66,0
641520,note_on,0,0,3,,,,,,,,,2,,,58,47
641520,note_on,0,0,3,,,,,,,,,2,,,66,47
641520,note_off,0,0,3,,,,,,,,,2,,,58,0
641520,note_off,240,0,3,,,,,,,,,2,,,61,0
641520,note_on,0,0,3,,,,,,,,,2,,,61,47
641640,note_on,0,0,1,,,,,,,,,0,,,77,68
641640,note_off,120,0,1,,,,,,,,,0,,,78,0
641760,note_off,0,0,3,,,,,,,,,2,,,66,0
641760,note_on,0,0,1,,,,,,,,,0,,,78,67
641760,note_off,120,0,1,,,,,,,,,0,,,77,0
641760,note_off,240,0,3,,,,,,,,,2,,,61,0
641760,note_off,0,0,3,,,,,,,,,2,,,58,0
641760,note_on,0,0,3,,,,,,,,,2,,,61,46
641760,note_on,0,0,3,,,,,,,,,2,,,58,46
641760,note_on,0,0,3,,,,,,,,,2,,,66,46
641940,note_off,180,0,1,,,,,,,,,0,,,78,0
642000,note_off,0,0,3,,,,,,,,,2,,,58,0
642000,note_off,0,0,3,,,,,,,,,2,,,66,0
642000,note_on,0,0,3,,,,,,,,,2,,,66,45
642000,note_on,0,0,3,,,,,,,,,2,,,58,45
642000,note_on,0,0,3,,,,,,,,,2,,,61,45
642000,note_off,240,0,3,,,,,,,,,2,,,61,0
642180,note_on,240,0,1,,,,,,,,,0,,,75,66
642240,note_off,0,0,3,,,,,,,,,2,,,66,0
642240,note_off,0,0,3,,,,,,,,,2,,,58,0
642240,note_off,240,0,3,,,,,,,,,2,,,61,0
642240,note_off,60,0,1,,,,,,,,,0,,,75,0
642240,note_on,0,0,1,,,,,,,,,0,,,73,66
642240,note_on,0,0,3,,,,,,,,,2,,,66,44
642240,note_on,0,0,3,,,,,,,,,2,,,58,44
642240,note_on,0,0,3,,,,,,,,,2,,,61,44
642360,note_on,0,0,1,,,,,,,,,0,,,72,66
642360,note_off,120,0,1,,,,,,,,,0,,,73,0
642480,note_on,0,0,3,,,,,,,,,2,,,58,43
642480,note_off,240,0,3,,,,,,,,,2,,,58,0
642480,note_off,0,0,3,,,,,,,,,2,,,61,0
642480,note_off,0,0,3,,,,,,,,,2,,,66,0
642480,note_on,0,0,3,,,,,,,,,2,,,66,43
642480,note_on,0,0,3,,,,,,,,,2,,,61,43
642480,note_on,0,0,1,,,,,,,,,0,,,73,66
642480,note_off,120,0,1,,,,,,,,,0,,,72,0
642720,note_on,0,0,3,,,,,,,,,2,,,58,42
642720,note_on,0,0,3,,,,,,,,,2,,,66,42
642720,note_off,0,0,3,,,,,,,,,2,,,66,0
642720,note_off,0,0,3,,,,,,,,,2,,,58,0
642720,note_off,240,0,3,,,,,,,,,2,,,61,0
642720,note_on,0,0,3,,,,,,,,,2,,,61,42
642960,note_off,480,0,1,,,,,,,,,0,,,73,0
642960,note_off,240,0,3,,,,,,,,,2,,,61,0
642960,note_on,0,0,3,,,,,,,,,2,,,61,41
642960,note_on,0,0,3,,,,,,,,,2,,,64,41
642960,note_off,0,0,3,,,,,,,,,2,,,58,0
642960,note_on,0,0,3,,,,,,,,,2,,,58,41
642960,note_off,0,0,3,,,,,,,,,2,,,66,0
643140,set_tempo,5700,1,0,,,,,,413793,,,,,,,
643200,note_off,0,0,3,,,,,,,,,2,,,58,0
643200,note_on,0,0,3,,,,,,,,,2,,,60,40
643200,note_on,0,0,3,,,,,,,,,2,,,65,40
643200,note_off,0,0,3,,,,,,,,,2,,,61,0
643200,note_on,0,0,3,,,,,,,,,2,,,57,40
643200,set_tempo,60,1,0,,,,,,400000,,,,,,,
643200,note_on,240,0,1,,,,,,,,,0,,,72,64
643200,note_off,240,0,3,,,,,,,,,2,,,64,0
643440,note_off,240,0,1,,,,,,,,,0,,,72,0
643440,note_on,0,0,3,,,,,,,,,2,,,65,41
643440,note_on,0,0,3,,,,,,,,,2,,,60,41
643440,note_on,0,0,3,,,,,,,,,2,,,57,41
643440,note_off,0,0,3,,,,,,,,,2,,,57,0
643440,note_off,0,0,3,,,,,,,,,2,,,60,0
643440,note_off,240,0,3,,,,,,,,,2,,,65,0
643620,note_on,180,0,1,,,,,,,,,0,,,82,66
643680,note_off,60,0,1,,,,,,,,,0,,,82,0
643680,note_on,0,0,1,,,,,,,,,0,,,81,66
643680,note_on,0,0,3,,,,,,,,,2,,,57,42
643680,note_off,240,0,3,,,,,,,,,2,,,65,0
643680,note_off,0,0,3,,,,,,,,,2,,,60,0
643680,note_on,0,0,3,,,,,,,,,2,,,65,42
643680,note_on,0,0,3,,,,,,,,,2,,,60,42
643680,note_off,0,0,3,,,,,,,,,2,,,57,0
643800,note_on,0,0,1,,,,,,,,,0,,,79,67
643800,note_off,120,0,1,,,,,,,,,0,,,81,0
643920,note_on,0,0,3,,,,,,,,,2,,,65,43
643920,note_on,0,0,3,,,,,,,,,2,,,60,43
643920,note_on,0,0,3,,,,,,,,,2,,,57,43
643920,note_off,0,0,3,,,,,,,,,2,,,57,0
643920,note_off,0,0,3,,,,,,,,,2,,,60,0
643920,note_off,240,0,3,,,,,,,,,2,,,65,0
643920,note_on,0,0,1,,,,,,,,,0,,,81,67
643920,note_off,120,0,1,,,,,,,,,0,,,79,0
644100,note_off,180,0,1,,,,,,,,,0,,,81,0
644160,note_off,0,0,3,,,,,,,,,2,,,57,0
644160,note_off,240,0,3,,,,,,,,,2,,,65,0
644160,note_off,0,0,3,,,,,,,,,2,,,60,0
644160,note_on,0,0,3,,,,,,,,,2,,,57,44
644160,note_on,0,0,3,,,,,,,,,2,,,65,44
644160,note_on,0,0,3,,,,,,,,,2,,,60,44
644340,note_on,240,0,1,,,,,,,,,0,,,85,70
644400,note_off,0,0,3,,,,,,,,,2,,,57,0
644400,note_off,240,0,3,,,,,,,,,2,,,60,0
644400,note_off,0,0,3,,,,,,,,,2,,,65,0
644400,note_on,0,0,3,,,,,,,,,2,,,60,45
644400,note_on,0,0,3,,,,,,,,,2,,,65,45
644400,note_off,60,0,1,,,,,,,,,0,,,85,0
644400,note_on,0,0,1,,,,,,,,,0,,,84,70
644400,note_on,0,0,3,,,,,,,,,2,,,57,45
644520,note_off,120,0,1,,,,,,,,,0,,,84,0
644520,note_on,0,0,1,,,,,,,,,0,,,83,71
644640,note_off,120,0,1,,,,,,,,,0,,,83,0
644640,note_on,0,0,1,,,,,,,,,0,,,84,71
644640,note_on,0,0,3,,,,,,,,,2,,,65,46
644640,note_off,240,0,3,,,,,,,,,2,,,65,0
644640,note_off,0,0,3,,,,,,,,,2,,,60,0
644640,note_off,0,0,3,,,,,,,,,2,,,57,0
644640,note_on,0,0,3,,,,,,,,,2,,,57,46
644640,note_on,0,0,3,,,,,,,,,2,,,60,46
644820,note_off,180,0,1,,,,,,,,,0,,,84,0
644880,note_on,0,0,3,,,,,,,,,2,,,65,47
644880,note_off,240,0,3,,,,,,,,,2,,,65,0
644880,note_off,0,0,3,,,,,,,,,2,,,60,0
644880,note_off,0,0,3,,,,,,,,,2,,,57,0
644880,note_on,0,0,3,,,,,,,,,2,,,60,47
644880,note_on,0,0,3,,,,,,,,,2,,,57,47
645060,note_on,240,0,1,,,,,,,,,0,,,90,73
645120,note_on,0,0,1,,,,,,,,,0,,,89,74
645120,note_off,60,0,1,,,,,,,,,0,,,90,0
645120,note_off,0,0,3,,,,,,,,,2,,,57,0
645120,note_on,0,0,3,,,,,,,,,2,,,65,49
645120,note_off,0,0,3,,,,,,,,,2,,,60,0
645120,note_on,0,0,3,,,,,,,,,2,,,57,49
645120,note_on,0,0,3,,,,,,,,,2,,,60,49
645120,note_off,240,0,3,,,,,,,,,2,,,65,0
645240,note_on,0,0,1,,,,,,,,,0,,,88,74
645240,note_off,120,0,1,,,,,,,,,0,,,89,0
645360,note_off,120,0,1,,,,,,,,,0,,,88,0
645360,note_on,0,0,1,,,,,,,,,0,,,89,75
645360,note_on,0,0,3,,,,,,,,,2,,,65,50
645360,note_on,0,0,3,,,,,,,,,2,,,60,50
645360,note_off,0,0,3,,,,,,,,,2,,,57,0
645360,note_off,0,0,3,,,,,,,,,2,,,60,0
645360,note_on,0,0,3,,,,,,,,,2,,,57,50
645360,note_off,240,0,3,,,,,,,,,2,,,65,0
645540,note_off,180,0,1,,,,,,,,,0,,,89,0
645600,note_on,0,0,3,,,,,,,,,2,,,65,51
645600,note_off,240,0,3,,,,,,,,,2,,,65,0
645600,note_off,0,0,3,,,,,,,,,2,,,60,0
645600,note_off,0,0,3,,,,,,,,,2,,,57,0
645600,note_on,0,0,3,,,,,,,,,2,,,57,51
645600,note_on,0,0,3,,,,,,,,,2,,,60,51
645780,note_on,240,0,1,,,,,,,,,0,,,85,74
645840,note_on,0,0,1,,,,,,,,,0,,,84,74
645840,note_off,60,0,1,,,,,,,,,0,,,85,0
645840,note_off,240,0,3,,,,,,,,,2,,,65,0
645840,note_off,0,0,3,,,,,,,,,2,,,57,0
645840,note_on,0,0,3,,,,,,,,,2,,,57,52
645840,note_off,0,0,3,,,,,,,,,2,,,60,0
645840,note_on,0,0,3,,,,,,,,,2,,,60,52
645840,note_on,0,0,3,,,,,,,,,2,,,65,52
645960,note_off,120,0,1,,,,,,,,,0,,,84,0
645960,note_on,0,0,1,,,,,,,,,0,,,83,73
646080,note_on,0,0,3,,,,,,,,,2,,,57,54
646080,note_off,120,0,1,,,,,,,,,0,,,83,0
646080,note_on,0,0,1,,,,,,,,,0,,,84,73
646080,note_off,240,0,3,,,,,,,,,2,,,65,0
646080,note_off,0,0,3,,,,,,,,,2,,,57,0
646080,note_off,0,0,3,,,,,,,,,2,,,60,0
646080,note_on,0,0,3,,,,,,,,,2,,,65,54
646080,note_on,0,0,3,,,,,,,,,2,,,60,54
646260,note_off,180,0,1,,,,,,,,,0,,,84,0
646320,note_off,240,0,3,,,,,,,,,2,,,65,0
646320,note_off,0,0,3,,,,,,,,,2,,,60,0
646320,note_off,0,0,3,,,,,,,,,2,,,57,0
646320,note_on,0,0,3,,,,,,,,,2,,,57,53
646320,note_on,0,0,3,,,,,,,,,2,,,60,53
646320,note_on,0,0,3,,,,,,,,,2,,,65,53
646500,note_on,240,0,1,,,,,,,,,0,,,82,72
646560,note_off,240,0,3,,,,,,,,,2,,,65,0
646560,note_off,0,0,3,,,,,,,,,2,,,60,0
646560,note_off,60,0,1,,,,,,,,,0,,,82,0
646560,note_on,0,0,3,,,,,,,,,2,,,60,52
646560,note_on,0,0,3,,,,,,,,,2,,,57,52
646560,note_on,0,0,3,,,,,,,,,2,,,65,52
646560,note_on,0,0,1,,,,,,,,,0,,,81,72
646560,note_off,0,0,3,,,,,,,,,2,,,57,0
646680,note_off,120,0,1,,,,,,,,,0,,,81,0
646680,note_on,0,0,1,,,,,,,,,0,,,79,71
646800,note_on,0,0,3,,,,,,,,,2,,,60,50
646800,note_off,120,0,1,,,,,,,,,0,,,79,0
646800,note_off,240,0,3,,,,,,,,,2,,,65,0
646800,note_on,0,0,1,,,,,,,,,0,,,81,71
646800,note_on,0,0,3,,,,,,,,,2,,,65,50
646800,note_on,0,0,3,,,,,,,,,2,,,57,50
646800,note_off,0,0,3,,,,,,,,,2,,,60,0
646800,note_off,0,0,3,,,,,,,,,2,,,57,0
646980,note_off,180,0,1,,,,,,,,,0,,,81,0
647040,note_on,0,0,3,,,,,,,,,2,,,65,49
647040,note_on,0,0,3,,,,,,,,,2,,,60,49
647040,note_off,0,0,3,,,,,,,,,2,,,60,0
647040,note_off,0,0,3,,,,,,,,,2,,,57,0
647040,note_on,0,0,3,,,,,,,,,2,,,57,49
647040,note_off,240,0,3,,,,,,,,,2,,,65,0
647220,note_on,240,0,1,,,,,,,,,0,,,78,70
647280,note_off,0,0,3,,,,,,,,,2,,,60,0
647280,note_off,0,0,3,,,,,,,,,2,,,57,0
647280,note_on,0,0,3,,,,,,,,,2,,,60,48
647280,note_on,0,0,3,,,,,,,,,2,,,65,48
647280,note_on,0,0,3,,,,,,,,,2,,,57,48
647280,note_off,240,0,3,,,,,,,,,2,,,65,0
647280,note_off,60,0,1,,,,,,,,,0,,,78,0
647280,note_on,0,0,1,,,,,,,,,0,,,77,69
647400,note_off,120,0,1,,,,,,,,,0,,,77,0
647400,note_on,0,0,1,,,,,,,,,0,,,76,69
647520,note_off,120,0,1,,,,,,,,,0,,,76,0
647520,note_on,0,0,1,,,,,,,,,0,,,77,69
647520,note_off,240,0,3,,,,,,,,,2,,,65,0
647520,note_off,0,0,3,,,,,,,,,2,,,60,0
647520,note_on,0,0,3,,,,,,,,,2,,,65,46
647520,note_on,0,0,3,,,,,,,,,2,,,60,46
647520,note_on,0,0,3,,,,,,,,,2,,,57,46
647520,note_off,0,0,3,,,,,,,,,2,,,57,0
647700,note_off,180,0,1,,,,,,,,,0,,,77,0
647760,note_on,0,0,3,,,,,,,,,2,,,65,45
647760,note_on,0,0,3,,,,,,,,,2,,,60,45
647760,note_off,0,0,3,,,,,,,,,2,,,60,0
647760,note_on,0,0,3,,,,,,,,,2,,,57,45
647760,note_off,240,0,3,,,,,,,,,2,,,65,0
647760,note_off,0,0,3,,,,,,,,,2,,,57,0
647940,note_on,240,0,1,,,,,,,,,0,,,73,67
648000,note_on,0,0,3,,,,,,,,,2,,,57,44
648000,note_on,0,0,3,,,,,,,,,2,,,65,44
648000,note_on,0,0,3,,,,,,,,,2,,,60,44
648000,note_off,0,0,3,,,,,,,,,2,,,65,0
648000,note_off,0,0,3,,,,,,,,,2,,,60,0
648000,note_off,60,0,1,,,,,,,,,0,,,73,0
648000,note_on,0,0,1,,,,,,,,,0,,,72,67
648000,note_off,240,0,3,,,,,,,,,2,,,57,0
648120,note_off,120,0,1,,,,,,,,,0,,,72,0
648120,note_on,0,0,1,,,,,,,,,0,,,71,67
648240,note_on,0,0,3,,,,,,,,,2,,,60,42
648240,note_off,120,0,1,,,,,,,,,0,,,71,0
648240,note_off,240,0,3,,,,,,,,,2,,,57,0
648240,note_on,0,0,1,,,,,,,,,0,,,72,67
648240,note_off,0,0,3,,,,,,,,,2,,,60,0
648240,note_on,0,0,3,,,,,,,,,2,,,57,42
648240,note_on,0,0,3,,,,,,,,,2,,,65,42
648240,note_off,0,0,3,,,,,,,,,2,,,65,0
648420,note_off,180,0,1,,,,,,,,,0,,,72,0
648480,note_on,0,0,3,,,,,,,,,2,,,53,61
648480,note_off,0,0,3,,,,,,,,,2,,,57,0
648480,note_off,0,0,3,,,,,,,,,2,,,60,0
648480,note_off,240,0,3,,,,,,,,,2,,,65,0
648720,note_on,300,0,1,,,,,,,,,0,,,73,59
648720,note_on,0,0,3,,,,,,,,,2,,,51,58
648720,note_off,240,0,3,,,,,,,,,2,,,53,0
648900,set_tempo,5700,1,0,,,,,,413793,,,,,,,
648960,note_off,240,0,1,,,,,,,,,0,,,73,0
648960,note_on,0,0,1,,,,,,,,,0,,,74,60
648960,note_on,74880,0,2,,,,,,,,,1,,,65,52
648960,set_tempo,60,1,0,,,,,,400000,,,,,,,
648960,note_off,240,0,3,,,,,,,,,2,,,51,0
648960,note_on,0,0,3,,,,,,,,,2,,,50,55
648960,note_on,0,0,3,,,,,,,,,2,,,46,55
649080,note_on,0,0,2,,,,,,,,,1,,,67,52
649080,note_off,120,0,2,,,,,,,,,1,,,65,0
649200,note_on,0,0,2,,,,,,,,,1,,,65,53
649200,note_off,120,0,2,,,,,,,,,1,,,67,0
649320,note_off,120,0,2,,,,,,,,,1,,,65,0
649320,note_on,0,0,2,,,,,,,,,1,,,67,53
649440,note_on,0,0,2,,,,,,,,,1,,,65,54
649440,note_off,120,0,2,,,,,,,,,1,,,67,0
649440,note_on,0,0,3,,,,,,,,,2,,,55,51
649440,note_off,480,0,3,,,,,,,,,2,,,50,0
649560,note_on,0,0,2,,,,,,,,,1,,,67,54
649560,note_off,120,0,2,,,,,,,,,1,,,65,0
649680,note_on,0,0,3,,,,,,,,,2,,,53,52
649680,note_on,0,0,1,,,,,,,,,0,,,70,63
649680,note_off,720,0,1,,,,,,,,,0,,,74,0
649680,note_on,0,0,2,,,,,,,,,1,,,65,54
649680,note_off,120,0,2,,,,,,,,,1,,,67,0
649680,note_off,240,0,3,,,,,,,,,2,,,55,0
649800,note_off,120,0,2,,,,,,,,,1,,,65,0
649800,note_on,0,0,2,,,,,,,,,1,,,67,55
649920,note_on,0,0,2,,,,,,,,,1,,,65,55
649920,note_off,120,0,2,,,,,,,,,1,,,67,0
650040,note_off,120,0,2,,,,,,,,,1,,,65,0
650040,note_on,0,0,2,,,,,,,,,1,,,67,55
650160,note_off,480,0,3,,,,,,,,,2,,,53,0
650160,note_on,0,0,3,,,,,,,,,2,,,50,54
650160,note_off,120,0,2,,,,,,,,,1,,,67,0
650160,note_on,0,0,2,,,,,,,,,1,,,65,56
650280,note_on,0,0,2,,,,,,,,,1,,,67,56
650280,note_off,120,0,2,,,,,,,,,1,,,65,0
650400,note_on,0,0,3,,,,,,,,,2,,,48,55
650400,note_off,0,0,3,,,,,,,,,2,,,46,0
650400,note_off,240,0,3,,,,,,,,,2,,,50,0
650400,note_on,0,0,2,,,,,,,,,1,,,65,57
650400,note_on,0,0,1,,,,,,,,,0,,,69,65
650400,note_off,720,0,1,,,,,,,,,0,,,70,0
650400,note_off,120,0,2,,,,,,,,,1,,,67,0
650400,note_on,0,0,3,,,,,,,,,2,,,41,55
650520,note_on,0,0,2,,,,,,,,,1,,,67,57
650520,note_off,120,0,2,,,,,,,,,1,,,65,0
650640,note_on,0,0,2,,,,,,,,,1,,,65,57
650640,note_off,120,0,2,,,,,,,,,1,,,67,0
650760,note_on,0,0,2,,,,,,,,,1,,,67,58
650760,note_off,120,0,2,,,,,,,,,1,,,65,0
650880,note_off,120,0,2,,,,,,,,,1,,,67,0
650880,note_on,0,0,2,,,,,,,,,1,,,65,58
650880,note_on,0,0,3,,,,,,,,,2,,,55,57
650880,note_off,480,0,3,,,,,,,,,2,,,48,0
651000,note_off,120,0,2,,,,,,,,,1,,,65,0
651000,note_on,0,0,2,,,,,,,,,1,,,67,58
651120,note_off,120,0,2,,,,,,,,,1,,,67,0
651120,note_on,0,0,2,,,,,,,,,1,,,65,59
651120,note_on,0,0,1,,,,,,,,,0,,,75,68
651120,note_off,720,0,1,,,,,,,,,0,,,69,0
651120,note_on,0,0,3,,,,,,,,,2,,,53,58
651120,note_off,240,0,3,,,,,,,,,2,,,55,0
651240,note_on,0,0,2,,,,,,,,,1,,,67,59
651240,note_off,120,0,2,,,,,,,,,1,,,65,0
651360,note_on,0,0,2,,,,,,,,,1,,,65,60
651360,note_off,120,0,2,,,,,,,,,1,,,67,0
651480,note_off,120,0,2,,,,,,,,,1,,,65,0
651480,note_on,0,0,2,,,,,,,,,1,,,67,60
651600,note_on,0,0,3,,,,,,,,,2,,,48,60
651600,note_off,480,0,3,,,,,,,,,2,,,53,0
651600,note_off,120,0,2,,,,,,,,,1,,,67,0
651600,note_on,0,0,2,,,,,,,,,1,,,65,60
651720,note_off,120,0,2,,,,,,,,,1,,,65,0
651720,note_on,0,0,2,,,,,,,,,1,,,67,61
651780,set_tempo,2820,1,0,,,,,,402684,,,,,,,
651840,note_off,0,0,3,,,,,,,,,2,,,41,0
651840,note_off,240,0,3,,,,,,,,,2,,,48,0
651840,note_on,0,0,1,,,,,,,,,0,,,74,75
651840,note_off,720,0,1,,,,,,,,,0,,,75,0
651840,note_on,0,0,3,,,,,,,,,2,,,46,61
651840,note_off,120,0,2,,,,,,,,,1,,,67,0
651840,note_on,0,0,2,,,,,,,,,1,,,65,61
651840,note_on,0,0,3,,,,,,,,,2,,,50,61
651840,set_tempo,60,1,0,,,,,,400000,,,,,,,
651960,note_off,120,0,2,,,,,,,,,1,,,65,0
651960,note_on,0,0,2,,,,,,,,,1,,,67,61
652080,note_on,0,0,2,,,,,,,,,1,,,65,60
652080,note_off,120,0,2,,,,,,,,,1,,,67,0
652200,note_off,120,0,2,,,,,,,,,1,,,65,0
652200,note_on,0,0,2,,,,,,,,,1,,,67,60
652320,note_off,480,0,3,,,,,,,,,2,,,50,0
652320,note_off,120,0,2,,,,,,,,,1,,,67,0
652320,note_on,0,0,3,,,,,,,,,2,,,55,60
652320,note_on,0,0,2,,,,,,,,,1,,,65,59
652440,note_off,120,0,2,,,,,,,,,1,,,65,0
652440,note_on,0,0,2,,,,,,,,,1,,,67,59
652560,note_on,0,0,1,,,,,,,,,0,,,70,70
652560,note_off,720,0,1,,,,,,,,,0,,,74,0
652560,note_on,0,0,3,,,,,,,,,2,,,53,60
652560,note_off,120,0,2,,,,,,,,,1,,,67,0
652560,note_off,240,0,3,,,,,,,,,2,,,55,0
652560,note_on,0,0,2,,,,,,,,,1,,,65,58
652680,note_off,120,0,2,,,,,,,,,1,,,65,0
652680,note_on,0,0,2,,,,,,,,,1,,,67,58
652800,note_on,0,0,2,,,,,,,,,1,,,65,57
652800,note_off,120,0,2,,,,,,,,,1,,,67,0
652920,note_on,0,0,2,,,,,,,,,1,,,67,56
652920,note_off,120,0,2,,,,,,,,,1,,,65,0
653040,note_off,120,0,2,,,,,,,,,1,,,67,0
653040,note_on,0,0,2,,,,,,,,,1,,,65,56
653040,note_off,480,0,3,,,,,,,,,2,,,53,0
653040,note_on,0,0,3,,,,,,,,,2,,,50,59
653160,note_on,0,0,2,,,,,,,,,1,,,67,55
653160,note_off,120,0,2,,,,,,,,,1,,,65,0
653280,note_on,0,0,3,,,,,,,,,2,,,41,59
653280,note_on,0,0,2,,,,,,,,,1,,,65,55
653280,note_on,0,0,1,,,,,,,,,0,,,69,65
653280,note_off,720,0,1,,,,,,,,,0,,,70,0
653280,note_off,240,0,3,,,,,,,,,2,,,50,0
653280,note_off,0,0,3,,,,,,,,,2,,,46,0
653280,note_off,120,0,2,,,,,,,,,1,,,67,0
653280,note_on,0,0,3,,,,,,,,,2,,,48,59
653400,note_off,120,0,2,,,,,,,,,1,,,65,0
653400,note_on,0,0,2,,,,,,,,,1,,,67,54
653520,note_on,0,0,2,,,,,,,,,1,,,65,54
653520,note_off,120,0,2,,,,,,,,,1,,,67,0
653640,note_off,120,0,2,,,,,,,,,1,,,65,0
653640,note_on,0,0,2,,,,,,,,,1,,,67,53
653760,note_on,0,0,2,,,,,,,,,1,,,65,53
653760,note_on,0,0,3,,,,,,,,,2,,,55,58
653760,note_off,120,0,2,,,,,,,,,1,,,67,0
653760,note_off,480,0,3,,,,,,,,,2,,,48,0
653880,note_off,120,0,2,,,,,,,,,1,,,65,0
653880,note_on,0,0,2,,,,,,,,,1,,,67,52
654000,note_on,0,0,2,,,,,,,,,1,,,65,52
654000,note_off,720,0,1,,,,,,,,,0,,,69,0
654000,note_on,0,0,1,,,,,,,,,0,,,75,59
654000,note_off,120,0,2,,,,,,,,,1,,,67,0
654000,note_on,0,0,3,,,,,,,,,2,,,53,57
654000,note_off,240,0,3,,,,,,,,,2,,,55,0
654120,note_off,120,0,2,,,,,,,,,1,,,65,0
654120,note_on,0,0,2,,,,,,,,,1,,,67,51
654240,note_off,120,0,2,,,,,,,,,1,,,67,0
654240,note_on,0,0,2,,,,,,,,,1,,,65,51
654360,note_off,120,0,2,,,,,,,,,1,,,65,0
654360,note_on,0,0,2,,,,,,,,,1,,,67,50
654480,note_off,480,0,3,,,,,,,,,2,,,53,0
654480,note_off,120,0,2,,,,,,,,,1,,,67,0
654480,note_on,0,0,2,,,,,,,,,1,,,65,50
654480,note_on,0,0,3,,,,,,,,,2,,,48,56
654585,set_tempo,2745,1,0,,,,,,408163,,,,,,,
654600,note_off,120,0,2,,,,,,,,,1,,,65,0
654600,note_on,0,0,2,,,,,,,,,1,,,67,49
654720,note_off,120,0,2,,,,,,,,,1,,,67,0
654720,note_on,0,0,1,,,,,,,,,0,,,74,60
654720,note_off,240,0,3,,,,,,,,,2,,,48,0
654720,note_off,0,0,3,,,,,,,,,2,,,41,0
654720,note_on,0,0,3,,,,,,,,,2,,,46,48
654720,note_on,0,0,3,,,,,,,,,2,,,50,48
654720,note_off,720,0,1,,,,,,,,,0,,,75,0
654720,set_tempo,135,1,0,,,,,,400000,,,,,,,
654840,note_on,0,0,1,,,,,,,,,0,,,77,61
654840,note_off,120,0,1,,,,,,,,,0,,,74,0
654960,note_on,0,0,3,,,,,,,,,2,,,50,49
654960,note_off,120,0,1,,,,,,,,,0,,,77,0
654960,note_on,0,0,1,,,,,,,,,0,,,79,62
654960,note_off,0,0,3,,,,,,,,,2,,,46,0
654960,note_off,240,0,3,,,,,,,,,2,,,50,0
654960,note_on,0,0,3,,,,,,,,,2,,,53,49
654960,note_on,0,0,3,,,,,,,,,2,,,58,49
655040,note_off,80,0,1,,,,,,,,,0,,,79,0
655040,note_on,0,0,1,,,,,,,,,0,,,81,63
655120,note_off,80,0,1,,,,,,,,,0,,,81,0
655120,note_on,0,0,1,,,,,,,,,0,,,82,63
655200,note_off,0,0,3,,,,,,,,,2,,,58,0
655200,note_off,0,0,3,,,,,,,,,2,,,50,0
655200,note_off,240,0,3,,,,,,,,,2,,,53,0
655200,note_on,0,0,1,,,,,,,,,0,,,84,64
655200,note_off,80,0,1,,,,,,,,,0,,,82,0
655200,note_on,0,0,3,,,,,,,,,2,,,58,50
655200,note_on,0,0,3,,,,,,,,,2,,,53,50
655200,note_on,0,0,3,,,,,,,,,2,,,50,50
655280,note_on,0,0,1,,,,,,,,,0,,,86,64
655280,note_off,80,0,1,,,,,,,,,0,,,84,0
655360,note_off,80,0,1,,,,,,,,,0,,,86,0
655360,note_on,0,0,1,,,,,,,,,0,,,87,65
655440,note_on,0,0,3,,,,,,,,,2,,,53,51
655440,note_on,0,0,3,,,,,,,,,2,,,50,51
655440,note_off,0,0,3,,,,,,,,,2,,,58,0
655440,note_on,0,0,3,,,,,,,,,2,,,58,51
655440,note_off,240,0,3,,,,,,,,,2,,,50,0
655440,note_on,0,0,1,,,,,,,,,0,,,89,65
655440,note_off,80,0,1,,,,,,,,,0,,,87,0
655440,note_off,0,0,3,,,,,,,,,2,,,53,0
655560,note_off,120,0,1,,,,,,,,,0,,,89,0
655560,note_on,0,0,1,,,,,,,,,0,,,87,66
655680,note_off,0,0,3,,,,,,,,,2,,,50,0
655680,note_on,0,0,3,,,,,,,,,2,,,50,52
655680,note_on,0,0,3,,,,,,,,,2,,,53,52
655680,note_on,0,0,3,,,,,,,,,2,,,58,52
655680,note_off,0,0,3,,,,,,,,,2,,,58,0
655680,note_off,240,0,3,,,,,,,,,2,,,53,0
655680,note_on,0,0,1,,,,,,,,,0,,,86,67
655680,note_off,120,0,1,,,,,,,,,0,,,87,0
655800,note_on,0,0,1,,,,,,,,,0,,,84,68
655800,note_off,120,0,1,,,,,,,,,0,,,86,0
655920,note_off,120,0,1,,,,,,,,,0,,,84,0
655920,note_on,0,0,3,,,,,,,,,2,,,50,53
655920,note_off,240,0,3,,,,,,,,,2,,,50,0
655920,note_off,0,0,3,,,,,,,,,2,,,53,0
655920,note_off,0,0,3,,,,,,,,,2,,,58,0
655920,note_on,0,0,1,,,,,,,,,0,,,82,69
655920,note_on,0,0,3,,,,,,,,,2,,,53,53
655920,note_on,0,0,3,,,,,,,,,2,,,58,53
656040,note_off,120,0,1,,,,,,,,,0,,,82,0
656040,note_on,0,0,1,,,,,,,,,0,,,81,69
656160,note_off,120,0,1,,,,,,,,,0,,,81,0
656160,note_on,0,0,1,,,,,,,,,0,,,79,70
656160,note_off,0,0,3,,,,,,,,,2,,,50,0
656160,note_off,0,0,3,,,,,,,,,2,,,58,0
656160,note_off,240,0,3,,,,,,,,,2,,,53,0
656280,note_on,0,0,1,,,,,,,,,0,,,81,71
656280,note_off,120,0,1,,,,,,,,,0,,,79,0
656400,note_on,0,0,1,,,,,,,,,0,,,82,72
656400,note_off,120,0,1,,,,,,,,,0,,,81,0
656400,note_on,240,0,3,,,,,,,,,2,,,58,55
656400,note_on,0,0,3,,,,,,,,,2,,,55,55
656400,note_on,0,0,3,,,,,,,,,2,,,51,55
656520,note_off,120,0,1,,,,,,,,,0,,,82,0
656520,note_on,0,0,1,,,,,,,,,0,,,84,73
656640,note_off,120,0,1,,,,,,,,,0,,,84,0
656640,note_on,0,0,1,,,,,,,,,0,,,86,73
656640,note_on,0,0,3,,,,,,,,,2,,,55,56
656640,note_on,0,0,3,,,,,,,,,2,,,51,56
656640,note_on,0,0,3,,,,,,,,,2,,,58,56
656640,note_off,0,0,3,,,,,,,,,2,,,58,0
656640,note_off,0,0,3,,,,,,,,,2,,,51,0
656640,note_off,240,0,3,,,,,,,,,2,,,55,0
656720,note_on,0,0,1,,,,,,,,,0,,,87,74
656720,note_off,80,0,1,,,,,,,,,0,,,86,0
656800,note_on,0,0,1,,,,,,,,,0,,,89,74
656800,note_off,80,0,1,,,,,,,,,0,,,87,0
656880,note_off,240,0,3,,,,,,,,,2,,,55,0
656880,note_off,80,0,1,,,,,,,,,0,,,89,0
656880,note_off,0,0,3,,,,,,,,,2,,,51,0
656880,note_on,0,0,1,,,,,,,,,0,,,91,75
656880,note_off,0,0,3,,,,,,,,,2,,,58,0
656880,note_on,0,0,3,,,,,,,,,2,,,58,57
656880,note_on,0,0,3,,,,,,,,,2,,,51,57
656880,note_on,0,0,3,,,,,,,,,2,,,55,57
657000,note_off,120,0,1,,,,,,,,,0,,,91,0
657000,note_on,0,0,1,,,,,,,,,0,,,89,76
657120,note_off,120,0,1,,,,,,,,,0,,,89,0
657120,note_on,0,0,1,,,,,,,,,0,,,87,77
657120,note_off,240,0,3,,,,,,,,,2,,,55,0
657120,note_off,0,0,3,,,,,,,,,2,,,58,0
657120,note_on,0,0,3,,,,,,,,,2,,,55,58
657120,note_on,0,0,3,,,,,,,,,2,,,51,58
657120,note_off,0,0,3,,,,,,,,,2,,,51,0
657120,note_on,0,0,3,,,,,,,,,2,,,58,58
657200,note_off,80,0,1,,,,,,,,,0,,,87,0
657200,note_on,0,0,1,,,,,,,,,0,,,86,77
657280,note_off,80,0,1,,,,,,,,,0,,,86,0
657280,note_on,0,0,1,,,,,,,,,0,,,84,78
657360,note_off,0,0,3,,,,,,,,,2,,,51,0
657360,note_on,0,0,1,,,,,,,,,0,,,82,78
657360,note_off,0,0,3,,,,,,,,,2,,,58,0
657360,note_on,0,0,3,,,,,,,,,2,,,51,59
657360,note_on,0,0,3,,,,,,,,,2,,,60,59
657360,note_off,240,0,3,,,,,,,,,2,,,55,0
657360,note_off,80,0,1,,,,,,,,,0,,,84,0
657360,note_on,0,0,3,,,,,,,,,2,,,55,59
657440,note_off,80,0,1,,,,,,,,,0,,,82,0
657440,note_on,0,0,1,,,,,,,,,0,,,81,79
657520,note_off,80,0,1,,,,,,,,,0,,,81,0
657520,note_on,0,0,1,,,,,,,,,0,,,79,79
657540,set_tempo,2820,1,0,,,,,,402684,,,,,,,
657600,control_change,80,0,1,,,,,,,64,127,0,,,,
657600,note_off,0,0,3,,,,,,,,,2,,,60,0
657600,note_on,0,0,1,,,,,,,,,0,,,77,80
657600,set_tempo,60,1,0,,,,,,400000,,,,,,,
657600,note_off,0,0,1,,,,,,,,,0,,,79,0
657600,note_off,240,0,3,,,,,,,,,2,,,55,0
657600,note_off,0,0,3,,,,,,,,,2,,,51,0
657720,note_on,0,0,1,,,,,,,,,0,,,86,82
657720,note_off,120,0,1,,,,,,,,,0,,,77,0
657840,note_on,0,0,3,,,,,,,,,2,,,58,70
657840,note_on,0,0,1,,,,,,,,,0,,,82,84
657840,note_on,240,0,3,,,,,,,,,2,,,53,70
657840,note_off,120,0,1,,,,,,,,,0,,,86,0
657840,note_on,0,0,3,,,,,,,,,2,,,62,70
657960,note_off,120,0,1,,,,,,,,,0,,,82,0
657960,note_on,0,0,1,,,,,,,,,0,,,89,86
658080,note_on,0,0,3,,,,,,,,,2,,,62,76
658080,note_off,120,0,1,,,,,,,,,0,,,89,0
658080,note_on,0,0,1,,,,,,,,,0,,,86,88
658080,note_off,0,0,3,,,,,,,,,2,,,62,0
658080,note_off,240,0,3,,,,,,,,,2,,,58,0
658080,note_on,0,0,3,,,,,,,,,2,,,53,76
658080,note_off,0,0,3,,,,,,,,,2,,,53,0
658080,note_on,0,0,3,,,,,,,,,2,,,58,76
658200,note_on,0,0,1,,,,,,,,,0,,,94,90
658200,note_off,120,0,1,,,,,,,,,0,,,86,0
658320,note_on,0,0,1,,,,,,,,,0,,,89,90
658320,note_on,0,0,3,,,,,,,,,2,,,53,80
658320,note_on,0,0,3,,,,,,,,,2,,,62,80
658320,note_off,0,0,3,,,,,,,,,2,,,62,0
658320,note_off,0,0,3,,,,,,,,,2,,,53,0
658320,note_off,240,0,3,,,,,,,,,2,,,58,0
658320,note_on,0,0,3,,,,,,,,,2,,,58,80
658320,note_off,120,0,1,,,,,,,,,0,,,94,0
658400,note_off,80,0,1,,,,,,,,,0,,,89,0
658400,note_on,0,0,1,,,,,,,,,0,,,98,89
658480,note_on,0,0,1,,,,,,,,,0,,,94,87
658480,note_off,80,0,1,,,,,,,,,0,,,98,0
658560,note_off,0,0,3,,,,,,,,,2,,,62,0
658560,note_off,0,0,3,,,,,,,,,2,,,53,0
658560,note_on,0,0,3,,,,,,,,,2,,,53,77
658560,note_off,240,0,3,,,,,,,,,2,,,58,0
658560,note_on,0,0,1,,,,,,,,,0,,,101,86
658560,note_off,80,0,1,,,,,,,,,0,,,94,0
658560,note_on,0,0,3,,,,,,,,,2,,,62,77
658560,note_on,0,0,3,,,,,,,,,2,,,58,77
658640,note_on,0,0,1,,,,,,,,,0,,,98,84
658640,note_off,80,0,1,,,,,,,,,0,,,101,0
658720,note_on,0,0,1,,,,,,,,,0,,,94,83
658720,note_off,80,0,1,,,,,,,,,0,,,98,0
658800,note_off,240,0,3,,,,,,,,,2,,,58,0
658800,note_off,0,0,3,,,,,,,,,2,,,53,0
658800,note_off,0,0,3,,,,,,,,,2,,,62,0
658800,note_on,0,0,3,,,,,,,,,2,,,53,74
658800,note_on,0,0,3,,,,,,,,,2,,,58,74
658800,note_on,0,0,1,,,,,,,,,0,,,89,81
658800,note_off,80,0,1,,,,,,,,,0,,,94,0
658800,note_on,0,0,3,,,,,,,,,2,,,62,74
658880,note_off,80,0,1,,,,,,,,,0,,,89,0
658880,note_on,0,0,1,,,,,,,,,0,,,86,80
658960,note_off,80,0,1,,,,,,,,,0,,,86,0
658960,note_on,0,0,1,,,,,,,,,0,,,82,78
658980,set_tempo,1380,1,0,,,,,,402684,,,,,,,
659040,note_on,0,0,1,,,,,,,,,0,,,77,77
659040,note_on,0,0,3,,,,,,,,,2,,,58,70
659040,note_on,0,0,3,,,,,,,,,2,,,62,70
659040,note_off,80,0,1,,,,,,,,,0,,,82,0
659040,note_off,0,0,3,,,,,,,,,2,,,62,0
659040,note_off,0,0,3,,,,,,,,,2,,,53,0
659040,control_change,240,0,3,,,,,,,64,0,2,,,,
659040,note_on,0,0,3,,,,,,,,,2,,,53,70
659040,note_off,0,0,3,,,,,,,,,2,,,58,0
659280,note_on,0,0,3,,,,,,,,,2,,,58,67
659280,note_on,0,0,3,,,,,,,,,2,,,62,67
659280,note_off,0,0,3,,,,,,,,,2,,,53,0
659280,note_off,0,0,3,,,,,,,,,2,,,62,0
659280,note_off,240,0,3,,,,,,,,,2,,,58,0
659280,note_on,0,0,3,,,,,,,,,2,,,53,67
659360,note_off,320,0,1,,,,,,,,,0,,,77,0
659520,note_off,240,0,3,,,,,,,,,2,,,58,0
659520,note_off,0,0,3,,,,,,,,,2,,,53,0
659520,note_on,0,0,3,,,,,,,,,2,,,53,64
659520,note_on,0,0,3,,,,,,,,,2,,,62,64
659520,note_on,0,0,3,,,,,,,,,2,,,58,64
659520,note_off,0,0,3,,,,,,,,,2,,,62,0
659760,control_change,400,0,1,,,,,,,64,0,0,,,,
659760,note_on,0,0,1,,,,,,,,,0,,,84,69
659760,note_on,0,0,3,,,,,,,,,2,,,57,60
659760,note_on,0,0,3,,,,,,,,,2,,,53,60
659760,note_off,240,0,3,,,,,,,,,2,,,58,0
659760,note_off,0,0,3,,,,,,,,,2,,,62,0
659760,note_off,0,0,3,,,,,,,,,2,,,53,0
659760,note_on,0,0,3,,,,,,,,,2,,,63,60
659840,note_on,80,0,1,,,,,,,,,0,,,86,68
659902,note_off,62,0,1,,,,,,,,,0,,,84,0
659920,note_on,18,0,1,,,,,,,,,0,,,84,67
659985,note_off,65,0,1,,,,,,,,,0,,,86,0
660000,note_on,15,0,1,,,,,,,,,0,,,86,66
660000,note_off,0,0,3,,,,,,,,,2,,,63,0
660000,note_off,240,0,3,,,,,,,,,2,,,53,0
660000,note_off,0,0,3,,,,,,,,,2,,,57,0
660000,note_on,0,0,3,,,,,,,,,2,,,63,57
660000,note_on,0,0,3,,,,,,,,,2,,,53,57
660000,note_on,0,0,3,,,,,,,,,2,,,57,57
660075,note_off,75,0,1,,,,,,,,,0,,,84,0
660080,note_on,5,0,1,,,,,,,,,0,,,84,65
660135,note_off,55,0,1,,,,,,,,,0,,,86,0
660160,note_on,25,0,1,,,,,,,,,0,,,86,64
660217,note_off,57,0,1,,,,,,,,,0,,,84,0
660240,note_on,23,0,1,,,,,,,,,0,,,84,63
660240,note_off,0,0,3,,,,,,,,,2,,,53,0
660240,note_off,0,0,3,,,,,,,,,2,,,63,0
660240,note_off,240,0,3,,,,,,,,,2,,,57,0
660240,note_on,0,0,3,,,,,,,,,2,,,57,54
660240,note_on,0,0,3,,,,,,,,,2,,,53,54
660240,note_on,0,0,3,,,,,,,,,2,,,63,54
660300,note_off,60,0,1,,,,,,,,,0,,,86,0
660320,note_on,20,0,1,,,,,,,,,0,,,82,62
660375,note_off,55,0,1,,,,,,,,,0,,,84,0
660400,note_on,25,0,1,,,,,,,,,0,,,84,61
660420,set_tempo,1440,1,0,,,,,,419580,,,,,,,
660457,note_off,57,0,1,,,,,,,,,0,,,82,0
660480,set_tempo,60,1,0,,,,,,400000,,,,,,,
660480,note_on,0,0,3,,,,,,,,,2,,,62,52
660480,note_on,0,0,3,,,,,,,,,2,,,58,52
660480,note_on,0,0,1,,,,,,,,,0,,,86,60
660480,note_on,5760,0,2,,,,,,,,,1,,,77,50
660480,note_off,23,0,1,,,,,,,,,0,,,84,0
660480,note_off,0,0,3,,,,,,,,,2,,,63,0
660480,note_off,0,0,3,,,,,,,,,2,,,57,0
660480,note_off,240,0,3,,,,,,,,,2,,,53,0
660600,note_on,0,0,2,,,,,,,,,1,,,79,50
660600,note_off,120,0,2,,,,,,,,,1,,,77,0
660720,note_on,0,0,2,,,,,,,,,1,,,77,51
660720,note_off,120,0,2,,,,,,,,,1,,,79,0
660840,note_off,120,0,2,,,,,,,,,1,,,77,0
660840,note_on,0,0,2,,,,,,,,,1,,,79,51
660960,note_off,480,0,3,,,,,,,,,2,,,62,0
660960,note_on,0,0,3,,,,,,,,,2,,,67,53
660960,note_on,0,0,2,,,,,,,,,1,,,77,52
660960,note_off,120,0,2,,,,,,,,,1,,,79,0
661080,note_off,120,0,2,,,,,,,,,1,,,77,0
661080,note_on,0,0,2,,,,,,,,,1,,,79,52
661200,note_on,0,0,1,,,,,,,,,0,,,82,59
661200,note_off,720,0,1,,,,,,,,,0,,,86,0
661200,note_on,0,0,2,,,,,,,,,1,,,77,53
661200,note_off,120,0,2,,,,,,,,,1,,,79,0
661200,note_on,0,0,3,,,,,,,,,2,,,65,54
661200,note_off,240,0,3,,,,,,,,,2,,,67,0
661320,note_on,0,0,2,,,,,,,,,1,,,79,53
661320,note_off,120,0,2,,,,,,,,,1,,,77,0
661440,note_off,120,0,2,,,,,,,,,1,,,79,0
661440,note_on,0,0,2,,,,,,,,,1,,,77,53
661560,note_on,0,0,2,,,,,,,,,1,,,79,54
661560,note_off,120,0,2,,,,,,,,,1,,,77,0
661680,note_on,0,0,2,,,,,,,,,1,,,77,54
661680,note_off,120,0,2,,,,,,,,,1,,,79,0
661680,note_off,480,0,3,,,,,,,,,2,,,65,0
661680,note_on,0,0,3,,,,,,,,,2,,,62,56
661800,note_on,0,0,2,,,,,,,,,1,,,79,55
661800,note_off,120,0,2,,,,,,,,,1,,,77,0
661920,note_on,0,0,2,,,,,,,,,1,,,77,55
661920,note_off,240,0,3,,,,,,,,,2,,,62,0
661920,note_off,0,0,3,,,,,,,,,2,,,58,0
661920,note_on,0,0,3,,,,,,,,,2,,,60,57
661920,note_off,120,0,2,,,,,,,,,1,,,79,0
661920,note_on,0,0,3,,,,,,,,,2,,,53,57
661920,note_on,0,0,1,,,,,,,,,0,,,81,61
661920,note_off,720,0,1,,,,,,,,,0,,,82,0
662040,note_off,120,0,2,,,,,,,,,1,,,77,0
662040,note_on,0,0,2,,,,,,,,,1,,,79,56
662160,note_on,0,0,2,,,,,,,,,1,,,77,56
662160,note_off,120,0,2,,,,,,,,,1,,,79,0
662280,note_on,0,0,2,,,,,,,,,1,,,79,57
662280,note_off,120,0,2,,,,,,,,,1,,,77,0
662400,note_off,120,0,2,,,,,,,,,1,,,79,0
662400,note_on,0,0,2,,,,,,,,,1,,,77,57
662400,note_off,480,0,3,,,,,,,,,2,,,60,0
662400,note_on,0,0,3,,,,,,,,,2,,,67,59
662520,note_off,120,0,2,,,,,,,,,1,,,77,0
662520,note_on,0,0,2,,,,,,,,,1,,,79,57
662640,note_off,240,0,3,,,,,,,,,2,,,67,0
662640,note_off,720,0,1,,,,,,,,,0,,,81,0
662640,note_off,120,0,2,,,,,,,,,1,,,79,0
662640,note_on,0,0,2,,,,,,,,,1,,,77,58
662640,note_on,0,0,1,,,,,,,,,0,,,87,63
662640,note_on,0,0,3,,,,,,,,,2,,,65,60
662760,note_off,120,0,2,,,,,,,,,1,,,77,0
662760,note_on,0,0,2,,,,,,,,,1,,,79,58
662880,note_on,0,0,2,,,,,,,,,1,,,77,59
662880,note_off,120,0,2,,,,,,,,,1,,,79,0
663000,note_off,120,0,2,,,,,,,,,1,,,77,0
663000,note_on,0,0,2,,,,,,,,,1,,,79,59
663120,note_off,480,0,3,,,,,,,,,2,,,65,0
663120,note_on,0,0,3,,,,,,,,,2,,,60,62
663120,note_off,120,0,2,,,,,,,,,1,,,79,0
663120,note_on,0,0,2,,,,,,,,,1,,,77,60
663240,note_off,120,0,2,,,,,,,,,1,,,77,0
663240,note_on,0,0,2,,,,,,,,,1,,,79,60
663300,set_tempo,2820,1,0,,,,,,402684,,,,,,,
663360,note_off,120,0,2,,,,,,,,,1,,,79,0
663360,note_off,720,0,1,,,,,,,,,0,,,87,0
663360,set_tempo,60,1,0,,,,,,400000,,,,,,,
663360,note_on,0,0,1,,,,,,,,,0,,,86,65
663360,note_off,240,0,3,,,,,,,,,2,,,60,0
663360,note_off,0,0,3,,,,,,,,,2,,,53,0
663360,note_on,0,0,3,,,,,,,,,2,,,58,65
663360,note_on,0,0,3,,,,,,,,,2,,,62,65
663360,note_on,0,0,2,,,,,,,,,1,,,77,61
663480,note_on,0,0,2,,,,,,,,,1,,,79,60
663480,note_off,120,0,2,,,,,,,,,1,,,77,0
663600,note_on,0,0,2,,,,,,,,,1,,,77,60
663600,note_off,120,0,2,,,,,,,,,1,,,79,0
663720,note_off,120,0,2,,,,,,,,,1,,,77,0
663720,note_on,0,0,2,,,,,,,,,1,,,79,59
663840,note_off,480,0,3,,,,,,,,,2,,,62,0
663840,note_on,0,0,3,,,,,,,,,2,,,67,64
663840,note_off,120,0,2,,,,,,,,,1,,,79,0
663840,note_on,0,0,2,,,,,,,,,1,,,77,58
663960,note_off,120,0,2,,,,,,,,,1,,,77,0
663960,note_on,0,0,2,,,,,,,,,1,,,79,58
664080,note_off,120,0,2,,,,,,,,,1,,,79,0
664080,note_on,0,0,3,,,,,,,,,2,,,65,63
664080,note_off,240,0,3,,,,,,,,,2,,,67,0
664080,note_on,0,0,2,,,,,,,,,1,,,77,57
664080,note_off,720,0,1,,,,,,,,,0,,,86,0
664080,note_on,0,0,1,,,,,,,,,0,,,82,63
664200,note_off,120,0,2,,,,,,,,,1,,,77,0
664200,note_on,0,0,2,,,,,,,,,1,,,79,57
664320,note_on,0,0,2,,,,,,,,,1,,,77,56
664320,note_off,120,0,2,,,,,,,,,1,,,79,0
664440,note_on,0,0,2,,,,,,,,,1,,,79,55
664440,note_off,120,0,2,,,,,,,,,1,,,77,0
664560,note_off,480,0,3,,,,,,,,,2,,,65,0
664560,note_off,120,0,2,,,,,,,,,1,,,79,0
664560,note_on,0,0,2,,,,,,,,,1,,,77,55
664560,note_on,0,0,3,,,,,,,,,2,,,62,61
664680,note_on,0,0,2,,,,,,,,,1,,,79,54
664680,note_off,120,0,2,,,,,,,,,1,,,77,0
664800,note_on,0,0,2,,,,,,,,,1,,,77,54
664800,note_off,720,0,1,,,,,,,,,0,,,82,0
664800,note_off,120,0,2,,,,,,,,,1,,,79,0
664800,note_on,0,0,1,,,,,,,,,0,,,81,60
664800,note_off,240,0,3,,,,,,,,,2,,,62,0
664800,note_off,0,0,3,,,,,,,,,2,,,58,0
664800,note_on,0,0,3,,,,,,,,,2,,,53,60
664800,note_on,0,0,3,,,,,,,,,2,,,60,60
664920,note_on,0,0,2,,,,,,,,,1,,,79,53
664920,note_off,120,0,2,,,,,,,,,1,,,77,0
665040,note_off,120,0,2,,,,,,,,,1,,,79,0
665040,note_on,0,0,2,,,,,,,,,1,,,77,52
665160,note_off,120,0,2,,,,,,,,,1,,,77,0
665160,note_on,0,0,2,,,,,,,,,1,,,79,52
665280,note_on,0,0,3,,,,,,,,,2,,,67,59
665280,note_off,480,0,3,,,,,,,,,2,,,60,0
665280,note_off,120,0,2,,,,,,,,,1,,,79,0
665280,note_on,0,0,2,,,,,,,,,1,,,77,51
665400,note_on,0,0,2,,,,,,,,,1,,,79,50
665400,note_off,120,0,2,,,,,,,,,1,,,77,0
665520,note_on,0,0,3,,,,,,,,,2,,,65,58
665520,note_off,120,0,2,,,,,,,,,1,,,79,0
665520,note_on,0,0,2,,,,,,,,,1,,,77,50
665520,note_off,720,0,1,,,,,,,,,0,,,81,0
665520,note_on,0,0,1,,,,,,,,,0,,,87,58
665520,note_off,240,0,3,,,,,,,,,2,,,67,0
665640,note_off,120,0,2,,,,,,,,,1,,,77,0
665640,note_on,0,0,2,,,,,,,,,1,,,79,49
665760,note_on,0,0,2,,,,,,,,,1,,,77,49
665760,note_off,120,0,2,,,,,,,,,1,,,79,0
665880,note_off,120,0,2,,,,,,,,,1,,,77,0
665880,note_on,0,0,2,,,,,,,,,1,,,79,48
666000,note_off,120,0,2,,,,,,,,,1,,,79,0
666000,note_off,480,0,3,,,,,,,,,2,,,65,0
666000,note_on,0,0,3,,,,,,,,,2,,,60,56
666000,note_on,0,0,2,,,,,,,,,1,,,77,47
666120,note_off,120,0,2,,,,,,,,,1,,,77,0
666120,note_on,0,0,2,,,,,,,,,1,,,79,47
666150,set_tempo,2790,1,0,,,,,,413793,,,,,,,
666240,note_off,120,0,2,,,,,,,,,1,,,79,0
666240,note_off,0,0,3,,,,,,,,,2,,,53,0
666240,note_on,0,0,3,,,,,,,,,2,,,65,57
666240,note_on,0,0,3,,,,,,,,,2,,,62,57
666240,note_off,240,0,3,,,,,,,,,2,,,60,0
666240,note_off,720,0,1,,,,,,,,,0,,,87,0
666240,set_tempo,90,1,0,,,,,,400000,,,,,,,
666360,note_on,0,0,3,,,,,,,,,2,,,67,57
666360,note_off,120,0,3,,,,,,,,,2,,,65,0
666480,note_off,120,0,3,,,,,,,,,2,,,67,0
666480,note_on,0,0,1,,,,,,,,,0,,,86,55
666480,note_on,240,0,1,,,,,,,,,0,,,82,55
666480,note_on,0,0,3,,,,,,,,,2,,,69,58
666600,note_off,120,0,3,,,,,,,,,2,,,69,0
666600,note_on,0,0,3,,,,,,,,,2,,,70,59
666720,note_on,0,0,3,,,,,,,,,2,,,72,59
666720,note_off,0,0,3,,,,,,,,,2,,,62,0
666720,note_off,120,0,3,,,,,,,,,2,,,70,0
666720,note_off,240,0,1,,,,,,,,,0,,,86,0
666720,note_off,0,0,1,,,,,,,,,0,,,82,0
666720,note_on,0,0,1,,,,,,,,,0,,,82,56
666720,note_on,0,0,1,,,,,,,,,0,,,86,56
666800,note_on,0,0,3,,,,,,,,,2,,,74,60
666800,note_off,80,0,3,,,,,,,,,2,,,72,0
666880,note_off,80,0,3,,,,,,,,,2,,,74,0
666880,note_on,0,0,3,,,,,,,,,2,,,75,60
666960,note_off,240,0,1,,,,,,,,,0,,,86,0
666960,note_off,80,0,3,,,,,,,,,2,,,75,0
666960,note_on,0,0,3,,,,,,,,,2,,,77,61
666960,note_off,0,0,1,,,,,,,,,0,,,82,0
666960,note_on,0,0,1,,,,,,,,,0,,,82,57
666960,note_on,0,0,1,,,,,,,,,0,,,86,57
667080,note_on,0,0,3,,,,,,,,,2,,,75,61
667080,note_off,120,0,3,,,,,,,,,2,,,77,0
667200,note_off,240,0,1,,,,,,,,,0,,,86,0
667200,note_off,0,0,1,,,,,,,,,0,,,82,0
667200,note_on,0,0,1,,,,,,,,,0,,,82,58
667200,note_on,0,0,3,,,,,,,,,2,,,74,62
667200,note_off,120,0,3,,,,,,,,,2,,,75,0
667200,note_on,0,0,1,,,,,,,,,0,,,86,58
667320,note_on,0,0,3,,,,,,,,,2,,,72,63
667320,note_off,120,0,3,,,,,,,,,2,,,74,0
667440,note_off,120,0,3,,,,,,,,,2,,,72,0
667440,note_off,0,0,1,,,,,,,,,0,,,82,0
667440,note_on,0,0,3,,,,,,,,,2,,,70,64
667440,note_off,240,0,1,,,,,,,,,0,,,86,0
667440,note_on,0,0,1,,,,,,,,,0,,,86,59
667440,note_on,0,0,1,,,,,,,,,0,,,82,59
667560,note_off,120,0,3,,,,,,,,,2,,,70,0
667560,note_on,0,0,3,,,,,,,,,2,,,69,64
667680,note_on,0,0,3,,,,,,,,,2,,,63,65
667680,note_off,0,0,1,,,,,,,,,0,,,82,0
667680,note_off,240,0,1,,,,,,,,,0,,,86,0
667680,note_off,120,0,3,,,,,,,,,2,,,69,0
667680,note_on,0,0,3,,,,,,,,,2,,,67,65
667800,note_off,120,0,3,,,,,,,,,2,,,67,0
667800,note_on,0,0,3,,,,,,,,,2,,,69,66
667920,note_on,0,0,3,,,,,,,,,2,,,70,66
667920,note_off,120,0,3,,,,,,,,,2,,,69,0
667920,note_on,240,0,1,,,,,,,,,0,,,82,61
667920,note_on,0,0,1,,,,,,,,,0,,,84,61
668040,note_off,120,0,3,,,,,,,,,2,,,70,0
668040,note_on,0,0,3,,,,,,,,,2,,,72,67
668160,note_off,120,0,3,,,,,,,,,2,,,72,0
668160,note_on,0,0,3,,,,,,,,,2,,,74,68
668160,note_off,0,0,1,,,,,,,,,0,,,82,0
668160,note_on,0,0,1,,,,,,,,,0,,,82,62
668160,note_on,0,0,1,,,,,,,,,0,,,84,62
668160,note_off,240,0,1,,,,,,,,,0,,,84,0
668167,note_off,7,0,3,,,,,,,,,2,,,63,0
668240,note_off,73,0,3,,,,,,,,,2,,,74,0
668240,note_on,0,0,3,,,,,,,,,2,,,75,68
668320,note_off,80,0,3,,,,,,,,,2,,,75,0
668320,note_on,0,0,3,,,,,,,,,2,,,77,69
668400,note_off,240,0,1,,,,,,,,,0,,,84,0
668400,note_off,0,0,1,,,,,,,,,0,,,82,0
668400,note_on,0,0,1,,,,,,,,,0,,,82,63
668400,note_on,0,0,1,,,,,,,,,0,,,84,63
668400,note_on,0,0,3,,,,,,,,,2,,,79,69
668400,note_off,80,0,3,,,,,,,,,2,,,77,0
668520,note_off,120,0,3,,,,,,,,,2,,,79,0
668520,note_on,0,0,3,,,,,,,,,2,,,77,70
668640,note_off,240,0,1,,,,,,,,,0,,,84,0
668640,note_off,0,0,1,,,,,,,,,0,,,82,0
668640,note_on,0,0,1,,,,,,,,,0,,,82,64
668640,note_on,0,0,1,,,,,,,,,0,,,84,64
668640,note_off,120,0,3,,,,,,,,,2,,,77,0
668640,note_on,0,0,3,,,,,,,,,2,,,75,71
668720,note_off,80,0,3,,,,,,,,,2,,,75,0
668720,note_on,0,0,3,,,,,,,,,2,,,74,71
668800,note_on,0,0,3,,,,,,,,,2,,,72,72
668800,note_off,80,0,3,,,,,,,,,2,,,74,0
668880,note_off,240,0,1,,,,,,,,,0,,,84,0
668880,note_off,80,0,3,,,,,,,,,2,,,72,0
668880,note_on,0,0,3,,,,,,,,,2,,,70,72
668880,note_on,0,0,1,,,,,,,,,0,,,82,65
668880,note_on,0,0,1,,,,,,,,,0,,,84,65
668880,note_off,0,0,1,,,,,,,,,0,,,82,0
668960,note_on,0,0,3,,,,,,,,,2,,,69,73
668960,note_off,80,0,3,,,,,,,,,2,,,70,0
669040,note_on,0,0,3,,,,,,,,,2,,,67,73
669040,note_off,80,0,3,,,,,,,,,2,,,69,0
669060,set_tempo,2820,1,0,,,,,,402684,,,,,,,
669120,control_change,80,0,3,,,,,,,64,127,2,,,,
669120,note_on,0,0,3,,,,,,,,,2,,,65,74
669120,note_off,0,0,3,,,,,,,,,2,,,67,0
669120,note_off,0,0,1,,,,,,,,,0,,,84,0
669120,set_tempo,60,1,0,,,,,,400000,,,,,,,
669120,note_off,240,0,1,,,,,,,,,0,,,82,0
669240,note_on,0,0,3,,,,,,,,,2,,,53,76
669240,note_off,120,0,3,,,,,,,,,2,,,65,0
669360,note_on,240,0,1,,,,,,,,,0,,,82,72
669360,note_off,120,0,3,,,,,,,,,2,,,53,0
669360,note_on,0,0,3,,,,,,,,,2,,,58,78
669360,note_on,0,0,1,,,,,,,,,0,,,86,72
669480,note_off,120,0,3,,,,,,,,,2,,,58,0
669480,note_on,0,0,3,,,,,,,,,2,,,62,80
669600,note_off,120,0,3,,,,,,,,,2,,,62,0
669600,note_off,240,0,1,,,,,,,,,0,,,86,0
669600,note_off,0,0,1,,,,,,,,,0,,,82,0
669600,note_on,0,0,1,,,,,,,,,0,,,82,78
669600,note_on,0,0,1,,,,,,,,,0,,,86,78
669600,note_on,0,0,3,,,,,,,,,2,,,65,82
669720,note_off,120,0,3,,,,,,,,,2,,,65,0
669720,note_on,0,0,3,,,,,,,,,2,,,70,85
669840,note_on,0,0,3,,,,,,,,,2,,,74,87
669840,note_off,240,0,1,,,,,,,,,0,,,86,0
669840,note_off,0,0,1,,,,,,,,,0,,,82,0
669840,note_on,0,0,1,,,,,,,,,0,,,86,85
669840,note_on,0,0,1,,,,,,,,,0,,,82,85
669840,note_off,120,0,3,,,,,,,,,2,,,70,0
669960,note_off,120,0,3,,,,,,,,,2,,,74,0
669960,note_on,0,0,3,,,,,,,,,2,,,70,84
670080,note_off,240,0,1,,,,,,,,,0,,,82,0
670080,note_on,0,0,1,,,,,,,,,0,,,86,81
670080,note_on,0,0,1,,,,,,,,,0,,,82,81
670080,note_on,0,0,3,,,,,,,,,2,,,77,82
670080,note_off,120,0,3,,,,,,,,,2,,,70,0
670080,note_off,0,0,1,,,,,,,,,0,,,86,0
670200,note_off,120,0,3,,,,,,,,,2,,,77,0
670200,note_on,0,0,3,,,,,,,,,2,,,74,81
670320,note_on,0,0,3,,,,,,,,,2,,,70,80
670320,note_off,120,0,3,,,,,,,,,2,,,74,0
670320,note_off,240,0,1,,,,,,,,,0,,,82,0
670320,note_on,0,0,1,,,,,,,,,0,,,89,78
670320,note_on,0,0,1,,,,,,,,,0,,,86,78
670320,note_on,0,0,1,,,,,,,,,0,,,82,78
670320,note_off,0,0,1,,,,,,,,,0,,,86,0
670440,note_on,0,0,3,,,,,,,,,2,,,74,79
670440,note_off,120,0,3,,,,,,,,,2,,,70,0
670500,set_tempo,1380,1,0,,,,,,402684,,,,,,,
670560,note_on,0,0,3,,,,,,,,,2,,,65,77
670560,note_on,0,0,3,,,,,,,,,2,,,72,77
670560,note_off,0,0,3,,,,,,,,,2,,,74,0
670560,control_change,120,0,3,,,,,,,64,0,2,,,,
670560,note_off,0,0,1,,,,,,,,,0,,,82,0
670560,note_off,240,0,1,,,,,,,,,0,,,89,0
670560,note_off,0,0,1,,,,,,,,,0,,,86,0
670560,note_on,0,0,1,,,,,,,,,0,,,81,74
670560,note_on,0,0,1,,,,,,,,,0,,,87,74
670560,note_on,0,0,1,,,,,,,,,0,,,89,74
670640,note_on,80,0,3,,,,,,,,,2,,,74,76
670695,note_off,55,0,3,,,,,,,,,2,,,72,0
670720,note_on,25,0,3,,,,,,,,,2,,,72,76
670785,note_off,65,0,3,,,,,,,,,2,,,74,0
670800,note_on,15,0,3,,,,,,,,,2,,,74,75
670800,note_off,0,0,1,,,,,,,,,0,,,87,0
670800,note_off,0,0,1,,,,,,,,,0,,,81,0
670800,note_on,0,0,1,,,,,,,,,0,,,81,70
670800,note_on,0,0,1,,,,,,,,,0,,,89,70
670800,note_on,0,0,1,,,,,,,,,0,,,87,70
670800,note_off,240,0,1,,,,,,,,,0,,,89,0
670867,note_off,67,0,3,,,,,,,,,2,,,72,0
670880,note_on,13,0,3,,,,,,,,,2,,,72,74
670935,note_off,55,0,3,,,,,,,,,2,,,74,0
670960,note_on,25,0,3,,,,,,,,,2,,,74,73
671025,note_off,65,0,3,,,,,,,,,2,,,72,0
671040,note_off,240,0,1,,,,,,,,,0,,,87,0
671040,note_off,0,0,1,,,,,,,,,0,,,89,0
671040,note_off,0,0,1,,,,,,,,,0,,,81,0
671040,note_on,0,0,1,,,,,,,,,0,,,81,66
671040,note_on,0,0,1,,,,,,,,,0,,,87,66
671040,note_on,0,0,1,,,,,,,,,0,,,89,66
671040,note_on,15,0,3,,,,,,,,,2,,,72,72
671107,note_off,67,0,3,,,,,,,,,2,,,74,0
671120,note_on,13,0,3,,,,,,,,,2,,,74,71
671190,note_off,70,0,3,,,,,,,,,2,,,72,0
671200,note_on,10,0,3,,,,,,,,,2,,,72,71
671265,note_off,65,0,3,,,,,,,,,2,,,74,0
671280,note_off,0,0,1,,,,,,,,,0,,,89,0
671280,note_off,0,0,1,,,,,,,,,0,,,81,0
671280,note_on,0,0,1,,,,,,,,,0,,,81,62
671280,note_off,240,0,1,,,,,,,,,0,,,87,0
671280,note_on,0,0,1,,,,,,,,,0,,,89,62
671280,note_on,0,0,1,,,,,,,,,0,,,87,62
671280,note_on,15,0,3,,,,,,,,,2,,,74,70
671347,note_off,67,0,3,,,,,,,,,2,,,72,0
671360,note_on,13,0,3,,,,,,,,,2,,,72,69
671422,note_off,62,0,3,,,,,,,,,2,,,74,0
671440,note_on,18,0,3,,,,,,,,,2,,,74,68
671512,note_off,72,0,3,,,,,,,,,2,,,72,0
671520,note_on,8,0,3,,,,,,,,,2,,,72,67
671520,note_off,240,0,1,,,,,,,,,0,,,89,0
671520,note_off,0,0,1,,,,,,,,,0,,,87,0
671520,note_off,0,0,1,,,,,,,,,0,,,81,0
671520,note_on,0,0,1,,,,,,,,,0,,,81,58
671520,note_on,0,0,1,,,,,,,,,0,,,87,58
671520,note_on,0,0,1,,,,,,,,,0,,,89,58
671580,note_off,60,0,3,,,,,,,,,2,,,74,0
671600,note_on,20,0,3,,,,,,,,,2,,,74,66
671670,note_off,70,0,3,,,,,,,,,2,,,72,0
671680,note_on,10,0,3,,,,,,,,,2,,,72,66
671745,note_off,65,0,3,,,,,,,,,2,,,74,0
671760,note_on,15,0,3,,,,,,,,,2,,,70,65
671760,note_off,0,0,1,,,,,,,,,0,,,87,0
671760,note_off,0,0,1,,,,,,,,,0,,,81,0
671760,note_on,0,0,1,,,,,,,,,0,,,81,54
671760,note_on,0,0,1,,,,,,,,,0,,,87,54
671760,note_on,0,0,1,,,,,,,,,0,,,89,54
671760,note_off,240,0,1,,,,,,,,,0,,,89,0
671850,note_off,90,0,3,,,,,,,,,2,,,72,0
671865,set_tempo,1365,1,0,,,,,,419580,,,,,,,
671880,note_on,30,0,3,,,,,,,,,2,,,72,63
671970,note_off,90,0,3,,,,,,,,,2,,,70,0
671977,note_off,7,0,3,,,,,,,,,2,,,65,0
672000,note_off,0,0,1,,,,,,,,,0,,,81,0
672000,set_tempo,135,1,0,,,,,,400000,,,,,,,
672000,note_off,0,0,1,,,,,,,,,0,,,87,0
672000,note_off,240,0,1,,,,,,,,,0,,,89,0
672000,note_off,23,0,3,,,,,,,,,2,,,72,0
672000,note_on,0,0,3,,,,,,,,,2,,,65,62
672120,note_on,120,0,3,,,,,,,,,2,,,71,63
672240,note_on,0,0,3,,,,,,,,,2,,,72,63
672240,note_off,120,0,3,,,,,,,,,2,,,71,0
672247,note_off,7,0,3,,,,,,,,,2,,,65,0
672360,note_off,113,0,3,,,,,,,,,2,,,72,0
672360,note_on,0,0,3,,,,,,,,,2,,,74,63
672480,note_on,480,0,1,,,,,,,,,0,,,80,61
672480,note_off,120,0,3,,,,,,,,,2,,,74,0
672480,note_on,0,0,3,,,,,,,,,2,,,72,64
672480,note_on,0,0,1,,,,,,,,,0,,,92,61
672600,note_off,120,0,3,,,,,,,,,2,,,72,0
672600,note_on,0,0,3,,,,,,,,,2,,,71,64
672720,note_off,120,0,3,,,,,,,,,2,,,71,0
672720,note_on,0,0,3,,,,,,,,,2,,,63,64
672840,note_on,120,0,3,,,,,,,,,2,,,72,65
672960,note_off,120,0,3,,,,,,,,,2,,,72,0
672960,note_on,0,0,3,,,,,,,,,2,,,74,65
672975,note_off,15,0,3,,,,,,,,,2,,,63,0
673080,note_on,0,0,3,,,,,,,,,2,,,75,65
673080,note_off,105,0,3,,,,,,,,,2,,,74,0
673200,note_on,0,0,1,,,,,,,,,0,,,79,59
673200,note_off,120,0,3,,,,,,,,,2,,,75,0
673200,note_off,0,0,1,,,,,,,,,0,,,80,0
673200,note_on,0,0,1,,,,,,,,,0,,,91,59
673200,note_off,720,0,1,,,,,,,,,0,,,92,0
673200,note_on,0,0,3,,,,,,,,,2,,,74,66
673320,note_off,120,0,3,,,,,,,,,2,,,74,0
673320,note_on,0,0,3,,,,,,,,,2,,,72,66
673440,note_off,240,0,1,,,,,,,,,0,,,91,0
673440,note_off,0,0,1,,,,,,,,,0,,,79,0
673440,note_on,0,0,3,,,,,,,,,2,,,63,66
673440,note_off,120,0,3,,,,,,,,,2,,,72,0
673560,note_on,120,0,3,,,,,,,,,2,,,69,67
673680,note_off,120,0,3,,,,,,,,,2,,,69,0
673680,note_on,0,0,3,,,,,,,,,2,,,70,67
673702,note_off,22,0,3,,,,,,,,,2,,,63,0
673800,note_on,0,0,3,,,,,,,,,2,,,72,67
673800,note_off,98,0,3,,,,,,,,,2,,,70,0
673920,note_off,120,0,3,,,,,,,,,2,,,72,0
673920,note_on,0,0,3,,,,,,,,,2,,,70,68
673920,note_on,480,0,1,,,,,,,,,0,,,78,65
673920,note_on,0,0,1,,,,,,,,,0,,,90,65
674040,note_on,0,0,3,,,,,,,,,2,,,69,68
674040,note_off,120,0,3,,,,,,,,,2,,,70,0
674160,note_on,0,0,3,,,,,,,,,2,,,62,68
674160,note_off,120,0,3,,,,,,,,,2,,,69,0
674280,note_on,120,0,3,,,,,,,,,2,,,70,69
674400,note_off,120,0,3,,,,,,,,,2,,,70,0
674400,note_on,0,0,3,,,,,,,,,2,,,72,69
674422,note_off,22,0,3,,,,,,,,,2,,,62,0
674520,note_off,98,0,3,,,,,,,,,2,,,72,0
674520,note_on,0,0,3,,,,,,,,,2,,,74,69
674640,note_on,0,0,1,,,,,,,,,0,,,89,64
674640,note_off,720,0,1,,,,,,,,,0,,,90,0
674640,note_off,120,0,3,,,,,,,,,2,,,74,0
674640,note_on,0,0,3,,,,,,,,,2,,,72,70
674640,note_on,0,0,1,,,,,,,,,0,,,77,64
674640,note_off,0,0,1,,,,,,,,,0,,,78,0
674760,note_off,120,0,3,,,,,,,,,2,,,72,0
674760,note_on,0,0,3,,,,,,,,,2,,,70,70
674820,set_tempo,2820,1,0,,,,,,402684,,,,,,,
674880,note_on,0,0,3,,,,,,,,,2,,,53,70
674880,note_off,120,0,3,,,,,,,,,2,,,70,0
674880,set_tempo,60,1,0,,,,,,400000,,,,,,,
674880,note_off,240,0,1,,,,,,,,,0,,,77,0
674880,note_off,0,0,1,,,,,,,,,0,,,89,0
675000,note_on,120,0,3,,,,,,,,,2,,,59,71
675120,note_off,0,0,3,,,,,,,,,2,,,53,0
675120,note_on,0,0,3,,,,,,,,,2,,,60,71
675120,note_off,120,0,3,,,,,,,,,2,,,59,0
675240,note_off,120,0,3,,,,,,,,,2,,,60,0
675240,note_on,0,0,3,,,,,,,,,2,,,62,71
675360,note_on,0,0,3,,,,,,,,,2,,,60,72
675360,note_off,120,0,3,,,,,,,,,2,,,62,0
675360,note_on,480,0,1,,,,,,,,,0,,,68,69
675360,note_on,0,0,1,,,,,,,,,0,,,80,69
675480,note_on,0,0,3,,,,,,,,,2,,,59,72
675480,note_off,120,0,3,,,,,,,,,2,,,60,0
675600,note_on,0,0,3,,,,,,,,,2,,,51,72
675600,note_off,120,0,3,,,,,,,,,2,,,59,0
675720,note_on,120,0,3,,,,,,,,,2,,,60,73
675840,note_on,0,0,3,,,,,,,,,2,,,62,73
675840,note_off,120,0,3,,,,,,,,,2,,,60,0
675847,note_off,7,0,3,,,,,,,,,2,,,51,0
675960,note_on,0,0,3,,,,,,,,,2,,,63,73
675960,note_off,113,0,3,,,,,,,,,2,,,62,0
676080,note_off,720,0,1,,,,,,,,,0,,,80,0
676080,note_on,0,0,3,,,,,,,,,2,,,62,73
676080,note_off,120,0,3,,,,,,,,,2,,,63,0
676080,note_off,0,0,1,,,,,,,,,0,,,68,0
676080,note_on,0,0,1,,,,,,,,,0,,,67,67
676080,note_on,0,0,1,,,,,,,,,0,,,79,67
676200,note_on,0,0,3,,,,,,,,,2,,,60,74
676200,note_off,120,0,3,,,,,,,,,2,,,62,0
676320,note_off,0,0,1,,,,,,,,,0,,,67,0
676320,note_off,120,0,3,,,,,,,,,2,,,60,0
676320,note_on,0,0,3,,,,,,,,,2,,,51,74
676320,note_off,240,0,1,,,,,,,,,0,,,79,0
676440,note_on,120,0,3,,,,,,,,,2,,,57,74
676560,note_on,0,0,3,,,,,,,,,2,,,58,75
676560,note_off,120,0,3,,,,,,,,,2,,,57,0
676575,note_off,15,0,3,,,,,,,,,2,,,51,0
676680,note_off,105,0,3,,,,,,,,,2,,,58,0
676680,note_on,0,0,3,,,,,,,,,2,,,60,75
676800,note_on,0,0,1,,,,,,,,,0,,,78,73
676800,note_on,480,0,1,,,,,,,,,0,,,66,73
676800,note_off,120,0,3,,,,,,,,,2,,,60,0
676800,note_on,0,0,3,,,,,,,,,2,,,58,75
676920,note_on,0,0,3,,,,,,,,,2,,,57,76
676920,note_off,120,0,3,,,,,,,,,2,,,58,0
677040,note_on,0,0,3,,,,,,,,,2,,,50,76
677040,note_off,120,0,3,,,,,,,,,2,,,57,0
677160,note_on,120,0,3,,,,,,,,,2,,,58,76
677280,note_on,0,0,3,,,,,,,,,2,,,60,77
677280,note_off,120,0,3,,,,,,,,,2,,,58,0
677287,note_off,7,0,3,,,,,,,,,2,,,50,0
677400,note_on,0,0,3,,,,,,,,,2,,,62,77
677400,note_off,113,0,3,,,,,,,,,2,,,60,0
677520,note_on,0,0,1,,,,,,,,,0,,,65,71
677520,note_on,0,0,1,,,,,,,,,0,,,77,71
677520,note_off,0,0,1,,,,,,,,,0,,,66,0
677520,note_off,720,0,1,,,,,,,,,0,,,78,0
677520,note_off,120,0,3,,,,,,,,,2,,,62,0
677520,note_on,0,0,3,,,,,,,,,2,,,60,77
677640,note_off,120,0,3,,,,,,,,,2,,,60,0
677640,note_on,0,0,3,,,,,,,,,2,,,58,78
677700,set_tempo,2820,1,0,,,,,,408163,,,,,,,
677760,note_on,0,0,3,,,,,,,,,2,,,50,78
677760,note_off,120,0,3,,,,,,,,,2,,,58,0
677760,note_off,240,0,1,,,,,,,,,0,,,65,0
677760,note_off,0,0,1,,,,,,,,,0,,,77,0
677760,set_tempo,60,1,0,,,,,,400000,,,,,,,
677880,note_on,120,0,3,,,,,,,,,2,,,53,78
678000,note_off,0,0,3,,,,,,,,,2,,,50,0
678000,note_on,0,0,3,,,,,,,,,2,,,58,79
678000,note_off,120,0,3,,,,,,,,,2,,,53,0
678000,note_on,0,0,1,,,,,,,,,0,,,77,77
678000,note_on,0,0,1,,,,,,,,,0,,,70,77
678000,note_on,240,0,1,,,,,,,,,0,,,65,77
678120,note_on,0,0,3,,,,,,,,,2,,,62,79
678120,note_off,120,0,3,,,,,,,,,2,,,58,0
678192,note_off,192,0,1,,,,,,,,,0,,,77,0
678192,note_off,0,0,1,,,,,,,,,0,,,65,0
678192,note_off,0,0,1,,,,,,,,,0,,,70,0
678240,note_on,0,0,1,,,,,,,,,0,,,65,78
678240,note_on,0,0,3,,,,,,,,,2,,,58,79
678240,note_off,120,0,3,,,,,,,,,2,,,62,0
678240,note_on,48,0,1,,,,,,,,,0,,,70,78
678240,note_on,0,0,1,,,,,,,,,0,,,77,78
678360,note_off,120,0,3,,,,,,,,,2,,,58,0
678360,note_on,0,0,3,,,,,,,,,2,,,53,80
678432,note_off,0,0,1,,,,,,,,,0,,,70,0
678432,note_off,0,0,1,,,,,,,,,0,,,77,0
678432,note_off,192,0,1,,,,,,,,,0,,,65,0
678480,note_off,120,0,3,,,,,,,,,2,,,53,0
678480,note_on,0,0,3,,,,,,,,,2,,,43,80
678600,note_on,120,0,3,,,,,,,,,2,,,46,80
678720,note_on,0,0,3,,,,,,,,,2,,,50,81
678720,note_on,0,0,1,,,,,,,,,0,,,67,80
678720,note_on,0,0,1,,,,,,,,,0,,,70,80
678720,note_off,120,0,3,,,,,,,,,2,,,46,0
678720,note_on,288,0,1,,,,,,,,,0,,,75,80
678727,note_off,7,0,3,,,,,,,,,2,,,43,0
678840,note_on,0,0,3,,,,,,,,,2,,,55,81
678840,note_off,113,0,3,,,,,,,,,2,,,50,0
678912,note_off,0,0,1,,,,,,,,,0,,,67,0
678912,note_off,0,0,1,,,,,,,,,0,,,75,0
678912,note_off,192,0,1,,,,,,,,,0,,,70,0
678960,note_on,48,0,1,,,,,,,,,0,,,70,80
678960,note_off,120,0,3,,,,,,,,,2,,,55,0
678960,note_on,0,0,3,,,,,,,,,2,,,50,81
678960,note_on,0,0,1,,,,,,,,,0,,,74,80
678960,note_on,0,0,1,,,,,,,,,0,,,67,80
679080,note_on,0,0,3,,,,,,,,,2,,,46,82
679080,note_off,120,0,3,,,,,,,,,2,,,50,0
679152,note_off,0,0,1,,,,,,,,,0,,,70,0
679152,note_off,0,0,1,,,,,,,,,0,,,67,0
679152,note_off,192,0,1,,,,,,,,,0,,,74,0
679200,note_off,120,0,3,,,,,,,,,2,,,46,0
679200,note_on,0,0,3,,,,,,,,,2,,,39,82
679320,note_on,120,0,3,,,,,,,,,2,,,43,82
679440,note_off,120,0,3,,,,,,,,,2,,,43,0
679440,note_on,0,0,1,,,,,,,,,0,,,67,82
679440,note_off,0,0,3,,,,,,,,,2,,,39,0
679440,note_on,0,0,1,,,,,,,,,0,,,74,82
679440,note_on,0,0,3,,,,,,,,,2,,,48,83
679440,note_on,288,0,1,,,,,,,,,0,,,63,82
679560,note_off,120,0,3,,,,,,,,,2,,,48,0
679560,note_on,0,0,3,,,,,,,,,2,,,51,83
679632,note_off,0,0,1,,,,,,,,,0,,,63,0
679632,note_off,0,0,1,,,,,,,,,0,,,74,0
679632,note_off,192,0,1,,,,,,,,,0,,,67,0
679680,note_on,0,0,3,,,,,,,,,2,,,48,83
679680,note_off,120,0,3,,,,,,,,,2,,,51,0
679680,note_on,0,0,1,,,,,,,,,0,,,67,83
679680,note_on,48,0,1,,,,,,,,,0,,,63,83
679680,note_on,0,0,1,,,,,,,,,0,,,72,83
679800,note_on,0,0,3,,,,,,,,,2,,,43,84
679800,note_off,120,0,3,,,,,,,,,2,,,48,0
679872,note_off,0,0,1,,,,,,,,,0,,,63,0
679872,note_off,0,0,1,,,,,,,,,0,,,72,0
679872,note_off,192,0,1,,,,,,,,,0,,,67,0
679920,note_on,0,0,3,,,,,,,,,2,,,41,84
679920,note_off,120,0,3,,,,,,,,,2,,,43,0
680040,note_on,120,0,3,,,,,,,,,2,,,48,84
680160,note_on,0,0,1,,,,,,,,,0,,,60,85
680160,note_on,288,0,1,,,,,,,,,0,,,70,85
680160,note_on,0,0,1,,,,,,,,,0,,,63,85
680160,note_on,0,0,3,,,,,,,,,2,,,51,84
680160,note_off,120,0,3,,,,,,,,,2,,,48,0
680167,note_off,7,0,3,,,,,,,,,2,,,41,0
680280,note_off,113,0,3,,,,,,,,,2,,,51,0
680280,note_on,0,0,3,,,,,,,,,2,,,53,85
680352,note_off,0,0,1,,,,,,,,,0,,,70,0
680352,note_off,0,0,1,,,,,,,,,0,,,60,0
680352,note_off,192,0,1,,,,,,,,,0,,,63,0
680400,note_on,48,0,1,,,,,,,,,0,,,63,86
680400,note_on,0,0,1,,,,,,,,,0,,,69,86
680400,note_on,0,0,1,,,,,,,,,0,,,60,86
680400,note_off,120,0,3,,,,,,,,,2,,,53,0
680400,note_on,0,0,3,,,,,,,,,2,,,51,85
680520,note_off,120,0,3,,,,,,,,,2,,,51,0
680520,note_on,0,0,3,,,,,,,,,2,,,48,85
680580,set_tempo,2820,1,0,,,,,,402684,,,,,,,
680592,note_off,0,0,1,,,,,,,,,0,,,63,0
680592,note_off,0,0,1,,,,,,,,,0,,,60,0
680592,note_off,192,0,1,,,,,,,,,0,,,69,0
680640,set_tempo,60,1,0,,,,,,400000,,,,,,,
680640,note_off,120,0,3,,,,,,,,,2,,,48,0
680640,note_on,0,0,3,,,,,,,,,2,,,38,86
680760,note_on,120,0,3,,,,,,,,,2,,,41,86
680880,note_on,0,0,1,,,,,,,,,0,,,70,88
680880,note_on,0,0,1,,,,,,,,,0,,,65,88
680880,note_on,288,0,1,,,,,,,,,0,,,58,88
680880,note_on,0,0,3,,,,,,,,,2,,,46,86
680880,note_off,120,0,3,,,,,,,,,2,,,41,0
680887,note_off,7,0,3,,,,,,,,,2,,,38,0
681000,note_on,0,0,3,,,,,,,,,2,,,50,87
681000,note_off,113,0,3,,,,,,,,,2,,,46,0
681072,note_off,192,0,1,,,,,,,,,0,,,65,0
681072,note_off,0,0,1,,,,,,,,,0,,,70,0
681072,note_off,0,0,1,,,,,,,,,0,,,58,0
681120,note_on,0,0,1,,,,,,,,,0,,,65,89
681120,note_off,120,0,3,,,,,,,,,2,,,50,0
681120,note_on,0,0,1,,,,,,,,,0,,,62,89
681120,note_on,48,0,1,,,,,,,,,0,,,58,89
681120,note_on,0,0,3,,,,,,,,,2,,,46,87
681240,note_off,120,0,3,,,,,,,,,2,,,46,0
681240,note_on,0,0,3,,,,,,,,,2,,,41,87
681312,note_off,0,0,1,,,,,,,,,0,,,58,0
681312,note_off,0,0,1,,,,,,,,,0,,,62,0
681312,note_off,192,0,1,,,,,,,,,0,,,65,0
681360,note_off,120,0,3,,,,,,,,,2,,,41,0
681360,note_on,0,0,3,,,,,,,,,2,,,31,88
681480,note_on,120,0,3,,,,,,,,,2,,,34,88
681600,note_on,0,0,1,,,,,,,,,0,,,55,91
681600,note_on,288,0,1,,,,,,,,,0,,,63,91
681600,note_on,0,0,3,,,,,,,,,2,,,38,88
681600,note_off,120,0,3,,,,,,,,,2,,,34,0
681600,note_on,0,0,1,,,,,,,,,0,,,58,91
681607,note_off,7,0,3,,,,,,,,,2,,,31,0
681720,note_off,113,0,3,,,,,,,,,2,,,38,0
681720,note_on,0,0,3,,,,,,,,,2,,,43,89
681792,note_off,0,0,1,,,,,,,,,0,,,63,0
681792,note_off,192,0,1,,,,,,,,,0,,,55,0
681792,note_off,0,0,1,,,,,,,,,0,,,58,0
681840,note_on,48,0,1,,,,,,,,,0,,,58,91
681840,note_on,0,0,1,,,,,,,,,0,,,62,91
681840,note_on,0,0,3,,,,,,,,,2,,,38,89
681840,note_on,0,0,1,,,,,,,,,0,,,55,91
681840,note_off,120,0,3,,,,,,,,,2,,,43,0
681960,note_on,0,0,3,,,,,,,,,2,,,34,89
681960,note_off,120,0,3,,,,,,,,,2,,,38,0
682032,note_off,0,0,1,,,,,,,,,0,,,58,0
682032,note_off,0,0,1,,,,,,,,,0,,,62,0
682032,note_off,192,0,1,,,,,,,,,0,,,55,0
682080,note_off,120,0,3,,,,,,,,,2,,,34,0
682080,note_on,0,0,3,,,,,,,,,2,,,27,90
682200,note_on,120,0,3,,,,,,,,,2,,,31,90
682312,note_off,112,0,3,,,,,,,,,2,,,27,0
682320,note_on,0,0,1,,,,,,,,,0,,,51,93
682320,note_on,288,0,1,,,,,,,,,0,,,55,93
682320,note_on,0,0,1,,,,,,,,,0,,,62,93
682320,note_off,8,0,3,,,,,,,,,2,,,31,0
682320,note_on,0,0,3,,,,,,,,,2,,,36,90
682440,note_off,120,0,3,,,,,,,,,2,,,36,0
682440,note_on,0,0,3,,,,,,,,,2,,,39,91
682512,note_off,0,0,1,,,,,,,,,0,,,55,0
682512,note_off,0,0,1,,,,,,,,,0,,,62,0
682512,note_off,192,0,1,,,,,,,,,0,,,51,0
682560,note_on,0,0,1,,,,,,,,,0,,,60,94
682560,note_on,0,0,1,,,,,,,,,0,,,51,94
682560,note_on,48,0,1,,,,,,,,,0,,,55,94
682560,note_off,120,0,3,,,,,,,,,2,,,39,0
682560,note_on,0,0,3,,,,,,,,,2,,,36,91
682680,note_off,120,0,3,,,,,,,,,2,,,36,0
682680,note_on,0,0,3,,,,,,,,,2,,,31,91
682752,note_off,0,0,1,,,,,,,,,0,,,55,0
682752,note_off,0,0,1,,,,,,,,,0,,,60,0
682752,note_off,192,0,1,,,,,,,,,0,,,51,0
682800,note_off,120,0,3,,,,,,,,,2,,,31,0
682800,note_on,0,0,3,,,,,,,,,2,,,29,92
682920,note_on,120,0,3,,,,,,,,,2,,,36,92
683040,note_on,0,0,1,,,,,,,,,0,,,51,96
683040,note_on,288,0,1,,,,,,,,,0,,,58,96
683040,note_on,0,0,1,,,,,,,,,0,,,48,96
683040,note_on,0,0,3,,,,,,,,,2,,,39,92
683040,note_off,0,0,3,,,,,,,,,2,,,29,0
683040,note_off,120,0,3,,,,,,,,,2,,,36,0
683160,note_on,0,0,3,,,,,,,,,2,,,41,93
683160,note_off,120,0,3,,,,,,,,,2,,,39,0
683232,note_off,192,0,1,,,,,,,,,0,,,51,0
683232,note_off,0,0,1,,,,,,,,,0,,,48,0
683232,note_off,0,0,1,,,,,,,,,0,,,58,0
683280,set_tempo,2640,1,0,,,,,,419580,,,,,,,
683280,note_on,0,0,1,,,,,,,,,0,,,48,97
683280,note_on,0,0,3,,,,,,,,,2,,,29,93
683280,note_on,48,0,1,,,,,,,,,0,,,51,97
683280,note_off,120,0,3,,,,,,,,,2,,,41,0
683280,note_on,0,0,1,,,,,,,,,0,,,57,97
683385,set_tempo,105,1,0,,,,,,425531,,,,,,,
683400,note_on,120,0,3,,,,,,,,,2,,,41,93
683472,note_off,192,0,1,,,,,,,,,0,,,48,0
683472,note_off,0,0,1,,,,,,,,,0,,,57,0
683472,note_off,0,0,1,,,,,,,,,0,,,51,0
683520,note_on,48,0,1,,,,,,,,,0,,,58,96
683520,set_tempo,135,1,0,,,,,,400000,,,,,,,
683520,note_off,120,0,3,,,,,,,,,2,,,41,0
683520,note_on,0,0,3,,,,,,,,,2,,,34,109
683535,note_off,15,0,3,,,,,,,,,2,,,29,0
683640,note_off,120,0,1,,,,,,,,,0,,,58,0
683640,note_on,0,0,1,,,,,,,,,0,,,60,96
683760,note_off,225,0,3,,,,,,,,,2,,,34,0
683760,note_on,0,0,3,,,,,,,,,2,,,46,95
683760,note_on,0,0,1,,,,,,,,,0,,,62,96
683760,note_off,120,0,1,,,,,,,,,0,,,60,0
683880,note_off,120,0,1,,,,,,,,,0,,,62,0
683880,note_on,0,0,1,,,,,,,,,0,,,63,97
684000,note_on,0,0,3,,,,,,,,,2,,,46,95
684000,note_on,0,0,3,,,,,,,,,2,,,50,95
684000,note_off,240,0,3,,,,,,,,,2,,,46,0
684000,note_off,120,0,1,,,,,,,,,0,,,63,0
684000,note_on,0,0,1,,,,,,,,,0,,,65,97
684080,note_off,80,0,1,,,,,,,,,0,,,65,0
684080,note_on,0,0,1,,,,,,,,,0,,,67,97
684160,note_on,0,0,1,,,,,,,,,0,,,69,97
684160,note_off,80,0,1,,,,,,,,,0,,,67,0
684240,note_on,0,0,3,,,,,,,,,2,,,46,111
684240,note_on,0,0,3,,,,,,,,,2,,,53,111
684240,note_on,0,0,3,,,,,,,,,2,,,50,111
684240,note_off,80,0,1,,,,,,,,,0,,,69,0
684240,note_on,0,0,1,,,,,,,,,0,,,70,110
684240,note_off,240,0,3,,,,,,,,,2,,,46,0
684240,note_off,0,0,3,,,,,,,,,2,,,50,0
684320,note_on,0,0,1,,,,,,,,,0,,,72,98
684320,note_off,80,0,1,,,,,,,,,0,,,70,0
684400,note_off,80,0,1,,,,,,,,,0,,,72,0
684400,note_on,0,0,1,,,,,,,,,0,,,74,98
684480,note_off,80,0,1,,,,,,,,,0,,,74,0
684480,note_on,0,0,1,,,,,,,,,0,,,75,99
684560,note_off,80,0,1,,,,,,,,,0,,,75,0
684560,note_on,0,0,1,,,,,,,,,0,,,77,99
684640,note_off,80,0,1,,,,,,,,,0,,,77,0
684640,note_on,0,0,1,,,,,,,,,0,,,79,99
684720,note_on,0,0,3,,,,,,,,,2,,,41,95
684720,note_on,0,0,3,,,,,,,,,2,,,53,95
684720,note_off,80,0,1,,,,,,,,,0,,,79,0
684720,note_off,480,0,3,,,,,,,,,2,,,46,0
684720,note_on,0,0,3,,,,,,,,,2,,,48,95
684720,note_on,0,0,1,,,,,,,,,0,,,81,99
684720,note_off,0,0,3,,,,,,,,,2,,,50,0
684720,note_off,0,0,3,,,,,,,,,2,,,53,0
684840,note_off,120,0,1,,,,,,,,,0,,,81,0
684840,note_on,0,0,1,,,,,,,,,0,,,69,99
684960,note_off,0,0,3,,,,,,,,,2,,,48,0
684960,note_off,240,0,3,,,,,,,,,2,,,53,0
684960,note_on,0,0,3,,,,,,,,,2,,,53,95
684960,note_on,0,0,3,,,,,,,,,2,,,50,95
684960,set_tempo,1440,1,0,,,,,,400000,,,,,,,
684960,note_on,0,0,3,,,,,,,,,2,,,46,95
684960,note_off,120,0,1,,,,,,,,,0,,,69,0
684960,note_off,0,0,3,,,,,,,,,2,,,41,0
684960,note_on,0,0,1,,,,,,,,,0,,,70,99
685080,note_off,120,0,1,,,,,,,,,0,,,70,0
685080,note_on,0,0,1,,,,,,,,,0,,,72,99
685200,note_off,240,0,3,,,,,,,,,2,,,50,0
685200,note_off,0,0,3,,,,,,,,,2,,,53,0
685200,note_off,0,0,3,,,,,,,,,2,,,46,0
685200,note_on,0,0,3,,,,,,,,,2,,,46,95
685200,note_on,0,0,3,,,,,,,,,2,,,50,95
685200,note_on,0,0,1,,,,,,,,,0,,,74,100
685200,note_off,120,0,1,,,,,,,,,0,,,72,0
685200,note_on,0,0,3,,,,,,,,,2,,,53,95
685320,note_off,120,0,1,,,,,,,,,0,,,74,0
685320,note_on,0,0,1,,,,,,,,,0,,,75,100
685440,note_off,240,0,3,,,,,,,,,2,,,53,0
685440,note_off,0,0,3,,,,,,,,,2,,,50,0
685440,note_off,0,0,3,,,,,,,,,2,,,46,0
685440,note_on,0,0,3,,,,,,,,,2,,,50,95
685440,note_on,0,0,3,,,,,,,,,2,,,53,95
685440,note_off,120,0,1,,,,,,,,,0,,,75,0
685440,note_on,0,0,1,,,,,,,,,0,,,77,101
685440,note_on,0,0,3,,,,,,,,,2,,,46,95
685520,note_off,80,0,1,,,,,,,,,0,,,77,0
685520,note_on,0,0,1,,,,,,,,,0,,,79,101
685600,note_off,80,0,1,,,,,,,,,0,,,79,0
685600,note_on,0,0,1,,,,,,,,,0,,,81,101
685680,note_off,80,0,1,,,,,,,,,0,,,81,0
685680,note_on,0,0,1,,,,,,,,,0,,,82,116
685680,note_off,240,0,3,,,,,,,,,2,,,53,0
685680,note_off,0,0,3,,,,,,,,,2,,,46,0
685680,note_off,0,0,3,,,,,,,,,2,,,50,0
685680,note_on,0,0,3,,,,,,,,,2,,,50,111
685680,note_on,0,0,3,,,,,,,,,2,,,53,111
685680,note_on,0,0,3,,,,,,,,,2,,,46,111
685760,note_on,0,0,1,,,,,,,,,0,,,84,102
685760,note_off,80,0,1,,,,,,,,,0,,,82,0
685840,note_off,80,0,1,,,,,,,,,0,,,84,0
685840,note_on,0,0,1,,,,,,,,,0,,,86,102
685920,note_off,80,0,1,,,,,,,,,0,,,86,0
685920,note_on,0,0,1,,,,,,,,,0,,,87,102
686000,note_off,80,0,1,,,,,,,,,0,,,87,0
686000,note_on,0,0,1,,,,,,,,,0,,,89,102
686080,note_on,0,0,1,,,,,,,,,0,,,91,102
686080,note_off,80,0,1,,,,,,,,,0,,,89,0
686160,note_on,0,0,1,,,,,,,,,0,,,93,103
686160,note_off,80,0,1,,,,,,,,,0,,,91,0
686160,note_off,480,0,3,,,,,,,,,2,,,53,0
686160,note_off,0,0,3,,,,,,,,,2,,,50,0
686160,note_off,0,0,3,,,,,,,,,2,,,46,0
686160,note_on,0,0,3,,,,,,,,,2,,,41,95
686160,note_on,0,0,3,,,,,,,,,2,,,48,95
686160,note_on,0,0,3,,,,,,,,,2,,,53,95
686280,note_on,0,0,1,,,,,,,,,0,,,81,103
686280,note_off,120,0,1,,,,,,,,,0,,,93,0
686400,note_off,0,0,3,,,,,,,,,2,,,53,0
686400,note_off,0,0,3,,,,,,,,,2,,,41,0
686400,note_on,0,0,3,,,,,,,,,2,,,46,95
686400,note_on,0,0,3,,,,,,,,,2,,,50,95
686400,note_on,0,0,3,,,,,,,,,2,,,53,95
686400,note_off,120,0,1,,,,,,,,,0,,,81,0
686400,note_off,240,0,3,,,,,,,,,2,,,48,0
686400,note_on,0,0,1,,,,,,,,,0,,,70,104
686520,note_on,0,0,1,,,,,,,,,0,,,72,104
686520,note_off,120,0,1,,,,,,,,,0,,,70,0
686640,note_on,0,0,1,,,,,,,,,0,,,74,104
686640,note_off,120,0,1,,,,,,,,,0,,,72,0
686640,note_on,0,0,3,,,,,,,,,2,,,50,95
686640,note_on,0,0,3,,,,,,,,,2,,,53,95
686640,note_on,0,0,3,,,,,,,,,2,,,46,95
686640,note_off,0,0,3,,,,,,,,,2,,,46,0
686640,note_off,0,0,3,,,,,,,,,2,,,50,0
686640,note_off,240,0,3,,,,,,,,,2,,,53,0
686760,note_off,120,0,1,,,,,,,,,0,,,74,0
686760,note_on,0,0,1,,,,,,,,,0,,,75,105
686880,note_off,120,0,1,,,,,,,,,0,,,75,0
686880,note_on,0,0,3,,,,,,,,,2,,,53,95
686880,note_on,0,0,3,,,,,,,,,2,,,50,95
686880,note_on,0,0,3,,,,,,,,,2,,,46,95
686880,note_off,0,0,3,,,,,,,,,2,,,46,0
686880,note_off,0,0,3,,,,,,,,,2,,,53,0
686880,note_off,240,0,3,,,,,,,,,2,,,50,0
686880,note_on,0,0,1,,,,,,,,,0,,,77,105
686960,note_off,80,0,1,,,,,,,,,0,,,77,0
686960,note_on,0,0,1,,,,,,,,,0,,,79,106
687040,note_off,80,0,1,,,,,,,,,0,,,79,0
687040,note_on,0,0,1,,,,,,,,,0,,,81,106
687120,note_on,0,0,3,,,,,,,,,2,,,53,111
687120,note_off,0,0,3,,,,,,,,,2,,,50,0
687120,note_off,0,0,3,,,,,,,,,2,,,46,0
687120,note_on,0,0,3,,,,,,,,,2,,,50,111
687120,note_off,80,0,1,,,,,,,,,0,,,81,0
687120,note_on,0,0,1,,,,,,,,,0,,,82,125
687120,note_on,0,0,3,,,,,,,,,2,,,46,111
687120,note_off,240,0,3,,,,,,,,,2,,,53,0
687240,note_off,120,0,1,,,,,,,,,0,,,82,0
687240,note_on,0,0,1,,,,,,,,,0,,,84,106
687360,note_off,120,0,1,,,,,,,,,0,,,84,0
687360,note_on,0,0,1,,,,,,,,,0,,,86,107
687440,note_off,80,0,1,,,,,,,,,0,,,86,0
687440,note_on,0,0,1,,,,,,,,,0,,,87,107
687520,note_off,80,0,1,,,,,,,,,0,,,87,0
687520,note_on,0,0,1,,,,,,,,,0,,,89,107
687600,note_on,0,0,3,,,,,,,,,2,,,41,95
687600,note_on,0,0,1,,,,,,,,,0,,,91,108
687600,note_off,0,0,3,,,,,,,,,2,,,46,0
687600,note_on,0,0,3,,,,,,,,,2,,,53,95
687600,note_on,0,0,3,,,,,,,,,2,,,48,95
687600,note_off,0,0,3,,,,,,,,,2,,,53,0
687600,note_off,80,0,1,,,,,,,,,0,,,89,0
687600,note_off,480,0,3,,,,,,,,,2,,,50,0
687680,note_off,80,0,1,,,,,,,,,0,,,91,0
687680,note_on,0,0,1,,,,,,,,,0,,,93,108
687760,note_off,80,0,1,,,,,,,,,0,,,93,0
687760,note_on,0,0,1,,,,,,,,,0,,,81,108
687780,set_tempo,2820,1,0,,,,,,419580,,,,,,,
687840,note_on,0,0,1,,,,,,,,,0,,,82,124
687840,note_on,0,0,3,,,,,,,,,2,,,58,108
687840,note_on,0,0,3,,,,,,,,,2,,,53,108
687840,note_on,0,0,3,,,,,,,,,2,,,50,108
687840,note_on,0,0,3,,,,,,,,,2,,,46,108
687840,note_on,0,0,1,,,,,,,,,0,,,94,124
687840,note_off,80,0,1,,,,,,,,,0,,,81,0
687840,note_off,0,0,3,,,,,,,,,2,,,41,0
687840,note_off,0,0,3,,,,,,,,,2,,,53,0
687840,note_off,240,0,3,,,,,,,,,2,,,48,0
688200,note_off,360,0,3,,,,,,,,,2,,,58,0
688207,note_off,367,0,1,,,,,,,,,0,,,82,0
688207,note_off,7,0,3,,,,,,,,,2,,,53,0
688207,note_off,0,0,3,,,,,,,,,2,,,46,0
688207,note_off,0,0,3,,,,,,,,,2,,,50,0
688320,note_off,113,0,1,,,,,,,,,0,,,94,0
688560,note_on,0,0,3,,,,,,,,,2,,,50,105
688560,note_on,0,0,3,,,,,,,,,2,,,53,105
688560,note_on,0,0,3,,,,,,,,,2,,,58,105
688560,note_on,0,0,2,,,,,,,,,1,,,74,121
688560,note_on,22320,0,2,,,,,,,,,1,,,77,121
688560,note_on,240,0,1,,,,,,,,,0,,,82,121
688560,note_on,353,0,3,,,,,,,,,2,,,46,105
688920,note_off,360,0,3,,,,,,,,,2,,,46,0
688920,note_off,360,0,1,,,,,,,,,0,,,82,0
688927,note_off,0,0,3,,,,,,,,,2,,,53,0
688927,note_off,0,0,3,,,,,,,,,2,,,50,0
688927,note_off,0,0,2,,,,,,,,,1,,,77,0
688927,note_off,367,0,2,,,,,,,,,1,,,74,0
688927,note_off,7,0,3,,,,,,,,,2,,,58,0
689040,set_tempo,1260,1,0,,,,,,425531,,,,,,,
689280,note_on,0,0,3,,,,,,,,,2,,,58,101
689280,note_on,0,0,3,,,,,,,,,2,,,53,101
689280,note_on,0,0,3,,,,,,,,,2,,,50,101
689280,note_on,353,0,3,,,,,,,,,2,,,46,101
689280,note_on,360,0,1,,,,,,,,,0,,,70,120
689280,set_tempo,240,1,0,,,,,,500000,,,,,,,
689280,note_on,353,0,2,,,,,,,,,1,,,65,115
689280,note_on,0,0,2,,,,,,,,,1,,,62,115
689640,note_off,0,0,3,,,,,,,,,2,,,46,0
689640,note_off,360,0,3,,,,,,,,,2,,,53,0
689640,note_off,360,0,1,,,,,,,,,0,,,70,0
689647,note_off,7,0,3,,,,,,,,,2,,,50,0
689647,note_off,367,0,2,,,,,,,,,1,,,65,0
689655,note_off,8,0,2,,,,,,,,,1,,,62,0
689662,note_off,15,0,3,,,,,,,,,2,,,58,0
690480,set_tempo,1200,1,0,,,,,,400000,,,,,,,
690480,note_on,840,0,1,,,,,,,,,0,,,70,67
690672,note_off,192,0,1,,,,,,,,,0,,,70,0
690720,note_on,48,0,1,,,,,,,,,0,,,70,65
690960,note_on,1298,0,3,,,,,,,,,2,,,66,69
691080,note_off,360,0,1,,,,,,,,,0,,,70,0
691152,note_off,192,0,3,,,,,,,,,2,,,66,0
691200,note_on,48,0,3,,,,,,,,,2,,,63,67
691392,note_off,192,0,3,,,,,,,,,2,,,63,0
691440,note_on,360,0,1,,,,,,,,,0,,,58,60
691680,note_on,288,0,3,,,,,,,,,2,,,54,62
691800,note_off,360,0,1,,,,,,,,,0,,,58,0
691872,note_off,192,0,3,,,,,,,,,2,,,54,0
691920,note_on,48,0,3,,,,,,,,,2,,,51,59
692112,note_off,192,0,3,,,,,,,,,2,,,51,0
692160,note_on,360,0,1,,,,,,,,,0,,,46,54
692400,note_on,288,0,3,,,,,,,,,2,,,42,54
692520,note_off,360,0,1,,,,,,,,,0,,,46,0
692592,note_off,192,0,3,,,,,,,,,2,,,42,0
692640,note_on,48,0,3,,,,,,,,,2,,,39,52
692832,note_off,192,0,3,,,,,,,,,2,,,39,0
693030,set_tempo,2550,1,0,,,,,,540540,,,,,,,
693360,note_on,0,0,1,,,,,,,,,0,,,82,56
693360,note_on,840,0,1,,,,,,,,,0,,,70,56
693360,set_tempo,330,1,0,,,,,,400000,,,,,,,
693552,note_off,0,0,1,,,,,,,,,0,,,70,0
693552,note_off,192,0,1,,,,,,,,,0,,,82,0
693600,note_on,48,0,1,,,,,,,,,0,,,70,57
693600,note_on,0,0,1,,,,,,,,,0,,,82,57
693840,note_on,1008,0,3,,,,,,,,,2,,,63,54
693840,note_on,0,0,3,,,,,,,,,2,,,66,54
694032,note_off,192,0,3,,,,,,,,,2,,,66,0
694032,note_off,0,0,3,,,,,,,,,2,,,63,0
694080,note_on,0,0,3,,,,,,,,,2,,,63,56
694080,note_on,48,0,3,,,,,,,,,2,,,66,56
694272,note_off,0,0,3,,,,,,,,,2,,,66,0
694272,note_off,192,0,3,,,,,,,,,2,,,63,0
694320,note_off,0,0,1,,,,,,,,,0,,,70,0
694320,note_on,0,0,1,,,,,,,,,0,,,71,61
694320,note_on,0,0,1,,,,,,,,,0,,,83,61
694320,note_on,0,0,3,,,,,,,,,2,,,63,58
694320,note_on,48,0,3,,,,,,,,,2,,,66,58
694320,note_off,720,0,1,,,,,,,,,0,,,82,0
694512,note_off,192,0,3,,,,,,,,,2,,,63,0
694512,note_off,0,0,3,,,,,,,,,2,,,66,0
694560,note_on,48,0,3,,,,,,,,,2,,,66,59
694560,note_on,0,0,3,,,,,,,,,2,,,63,59
694752,note_off,192,0,3,,,,,,,,,2,,,63,0
694752,note_off,0,0,3,,,,,,,,,2,,,66,0
694800,note_on,48,0,3,,,,,,,,,2,,,66,61
694800,note_on,0,0,3,,,,,,,,,2,,,63,61
694992,note_off,192,0,3,,,,,,,,,2,,,63,0
694992,note_off,0,0,3,,,,,,,,,2,,,66,0
695040,note_off,720,0,1,,,,,,,,,0,,,83,0
695040,note_off,0,0,1,,,,,,,,,0,,,71,0
695040,note_on,0,0,1,,,,,,,,,0,,,72,64
695040,note_on,0,0,1,,,,,,,,,0,,,84,64
695040,note_on,0,0,3,,,,,,,,,2,,,68,62
695040,note_on,0,0,3,,,,,,,,,2,,,63,62
695040,note_on,48,0,3,,,,,,,,,2,,,66,62
695232,note_off,0,0,3,,,,,,,,,2,,,63,0
695232,note_off,192,0,3,,,,,,,,,2,,,68,0
695232,note_off,0,0,3,,,,,,,,,2,,,66,0
695280,note_on,48,0,3,,,,,,,,,2,,,68,64
695280,note_on,0,0,3,,,,,,,,,2,,,66,64
695280,note_on,0,0,3,,,,,,,,,2,,,63,64
695472,note_off,192,0,3,,,,,,,,,2,,,63,0
695472,note_off,0,0,3,,,,,,,,,2,,,66,0
695472,note_off,0,0,3,,,,,,,,,2,,,68,0
695520,note_on,0,0,3,,,,,,,,,2,,,68,66
695520,note_on,0,0,1,,,,,,,,,0,,,85,67
695520,note_on,480,0,1,,,,,,,,,0,,,73,67
695520,note_on,48,0,3,,,,,,,,,2,,,66,66
695520,note_on,0,0,3,,,,,,,,,2,,,63,66
695527,note_off,7,0,1,,,,,,,,,0,,,72,0
695535,note_off,8,0,1,,,,,,,,,0,,,84,0
695712,note_off,0,0,3,,,,,,,,,2,,,63,0
695712,note_off,192,0,3,,,,,,,,,2,,,68,0
695712,note_off,0,0,3,,,,,,,,,2,,,66,0
695760,note_on,0,0,3,,,,,,,,,2,,,61,62
695760,note_on,0,0,3,,,,,,,,,2,,,65,62
695760,note_on,48,0,3,,,,,,,,,2,,,68,62
695952,note_off,0,0,3,,,,,,,,,2,,,68,0
695952,note_off,192,0,3,,,,,,,,,2,,,61,0
695952,note_off,0,0,3,,,,,,,,,2,,,65,0
696000,note_off,0,0,1,,,,,,,,,0,,,73,0
696000,note_on,48,0,3,,,,,,,,,2,,,68,56
696000,note_on,0,0,3,,,,,,,,,2,,,65,56
696000,note_on,0,0,3,,,,,,,,,2,,,61,56
696000,note_off,465,0,1,,,,,,,,,0,,,85,0
696192,note_off,192,0,3,,,,,,,,,2,,,65,0
696192,note_off,0,0,3,,,,,,,,,2,,,61,0
696192,note_off,0,0,3,,,,,,,,,2,,,68,0
696240,note_on,240,0,1,,,,,,,,,0,,,73,65
696240,note_on,48,0,3,,,,,,,,,2,,,68,51
696240,note_on,0,0,3,,,,,,,,,2,,,61,51
696240,note_on,0,0,3,,,,,,,,,2,,,65,51
696420,set_tempo,3060,1,0,,,,,,408163,,,,,,,
696432,note_off,0,0,3,,,,,,,,,2,,,61,0
696432,note_off,192,0,3,,,,,,,,,2,,,65,0
696432,note_off,0,0,3,,,,,,,,,2,,,68,0
696432,note_off,192,0,1,,,,,,,,,0,,,73,0
696480,set_tempo,60,1,0,,,,,,400000,,,,,,,
696480,note_on,48,0,1,,,,,,,,,0,,,73,64
696720,note_on,288,0,3,,,,,,,,,2,,,70,65
696840,note_off,360,0,1,,,,,,,,,0,,,73,0
696912,note_off,192,0,3,,,,,,,,,2,,,70,0
696960,note_on,48,0,3,,,,,,,,,2,,,66,64
697152,note_off,192,0,3,,,,,,,,,2,,,66,0
697200,note_on,360,0,1,,,,,,,,,0,,,61,61
697440,note_on,288,0,3,,,,,,,,,2,,,58,60
697560,note_off,360,0,1,,,,,,,,,0,,,61,0
697632,note_off,192,0,3,,,,,,,,,2,,,58,0
697680,note_on,48,0,3,,,,,,,,,2,,,54,58
697872,note_off,192,0,3,,,,,,,,,2,,,54,0
697920,note_on,360,0,1,,,,,,,,,0,,,49,58
698160,note_on,288,0,3,,,,,,,,,2,,,46,55
698280,note_off,360,0,1,,,,,,,,,0,,,49,0
698352,note_off,192,0,3,,,,,,,,,2,,,46,0
698400,note_on,48,0,3,,,,,,,,,2,,,42,53
698592,note_off,192,0,3,,,,,,,,,2,,,42,0
698745,set_tempo,2265,1,0,,,,,,500000,,,,,,,
699120,note_on,0,0,1,,,,,,,,,0,,,85,56
699120,set_tempo,375,1,0,,,,,,400000,,,,,,,
699120,note_on,840,0,1,,,,,,,,,0,,,73,56
699312,note_off,192,0,1,,,,,,,,,0,,,85,0
699312,note_off,0,0,1,,,,,,,,,0,,,73,0
699360,note_on,48,0,1,,,,,,,,,0,,,73,56
699360,note_on,0,0,1,,,,,,,,,0,,,85,56
699600,note_on,0,0,3,,,,,,,,,2,,,70,48
699600,note_on,1008,0,3,,,,,,,,,2,,,66,48
699792,note_off,192,0,3,,,,,,,,,2,,,70,0
699792,note_off,0,0,3,,,,,,,,,2,,,66,0
699840,note_on,48,0,3,,,,,,,,,2,,,70,48
699840,note_on,0,0,3,,,,,,,,,2,,,66,48
700032,note_off,192,0,3,,,,,,,,,2,,,66,0
700032,note_off,0,0,3,,,,,,,,,2,,,70,0
700080,note_on,0,0,1,,,,,,,,,0,,,75,58
700080,note_on,0,0,1,,,,,,,,,0,,,87,58
700080,note_on,48,0,3,,,,,,,,,2,,,71,49
700080,note_on,0,0,3,,,,,,,,,2,,,66,49
700080,note_off,0,0,1,,,,,,,,,0,,,73,0
700080,note_off,720,0,1,,,,,,,,,0,,,85,0
700272,note_off,192,0,3,,,,,,,,,2,,,66,0
700272,note_off,0,0,3,,,,,,,,,2,,,71,0
700320,note_on,48,0,3,,,,,,,,,2,,,71,50
700320,note_on,0,0,3,,,,,,,,,2,,,66,50
700512,note_off,192,0,3,,,,,,,,,2,,,66,0
700512,note_off,0,0,3,,,,,,,,,2,,,71,0
700560,note_on,0,0,3,,,,,,,,,2,,,66,50
700560,note_on,48,0,3,,,,,,,,,2,,,71,50
700752,note_off,0,0,3,,,,,,,,,2,,,71,0
700752,note_off,192,0,3,,,,,,,,,2,,,66,0
700800,note_on,0,0,3,,,,,,,,,2,,,66,51
700800,note_on,48,0,3,,,,,,,,,2,,,72,51
700992,note_off,0,0,3,,,,,,,,,2,,,72,0
700992,note_off,192,0,3,,,,,,,,,2,,,66,0
701040,note_on,0,0,3,,,,,,,,,2,,,66,51
701040,note_on,48,0,3,,,,,,,,,2,,,72,51
701232,note_off,0,0,3,,,,,,,,,2,,,72,0
701232,note_off,192,0,3,,,,,,,,,2,,,66,0
701280,note_on,48,0,3,,,,,,,,,2,,,72,52
701280,note_on,0,0,3,,,,,,,,,2,,,66,52
701472,note_off,192,0,3,,,,,,,,,2,,,66,0
701472,note_off,0,0,3,,,,,,,,,2,,,72,0
701520,note_on,0,0,1,,,,,,,,,0,,,76,61
701520,note_off,0,0,1,,,,,,,,,0,,,75,0
701520,note_off,1440,0,1,,,,,,,,,0,,,87,0
701520,note_on,48,0,3,,,,,,,,,2,,,66,52
701520,note_on,0,0,3,,,,,,,,,2,,,73,52
701520,note_on,0,0,1,,,,,,,,,0,,,88,61
701712,note_off,0,0,3,,,,,,,,,2,,,66,0
701712,note_off,192,0,3,,,,,,,,,2,,,73,0
701760,note_on,48,0,3,,,,,,,,,2,,,73,53
701760,note_on,0,0,3,,,,,,,,,2,,,66,53
701952,note_off,192,0,3,,,,,,,,,2,,,66,0
701952,note_off,0,0,3,,,,,,,,,2,,,73,0
702000,note_on,48,0,3,,,,,,,,,2,,,66,54
702000,note_on,0,0,3,,,,,,,,,2,,,73,54
702192,note_off,192,0,3,,,,,,,,,2,,,73,0
702192,note_off,0,0,3,,,,,,,,,2,,,66,0
702240,note_on,0,0,3,,,,,,,,,2,,,73,54
702240,note_on,48,0,3,,,,,,,,,2,,,66,54
702432,note_off,192,0,3,,,,,,,,,2,,,73,0
702432,note_off,0,0,3,,,,,,,,,2,,,66,0
702480,note_on,48,0,3,,,,,,,,,2,,,66,55
702480,note_on,0,0,3,,,,,,,,,2,,,73,55
702672,note_off,192,0,3,,,,,,,,,2,,,73,0
702672,note_off,0,0,3,,,,,,,,,2,,,66,0
702720,note_on,48,0,3,,,,,,,,,2,,,66,55
702720,note_on,0,0,3,,,,,,,,,2,,,73,55
702912,note_off,192,0,3,,,,,,,,,2,,,73,0
702912,note_off,0,0,3,,,,,,,,,2,,,66,0
702960,note_off,1440,0,1,,,,,,,,,0,,,88,0
702960,note_off,0,0,1,,,,,,,,,0,,,76,0
702960,note_on,0,0,1,,,,,,,,,0,,,78,64
702960,note_on,0,0,1,,,,,,,,,0,,,90,64
702960,note_on,0,0,3,,,,,,,,,2,,,66,56
702960,note_on,48,0,3,,,,,,,,,2,,,75,56
703152,note_off,0,0,3,,,,,,,,,2,,,75,0
703152,note_off,192,0,3,,,,,,,,,2,,,66,0
703200,note_on,48,0,3,,,,,,,,,2,,,75,56
703200,note_on,0,0,3,,,,,,,,,2,,,66,56
703392,note_off,192,0,3,,,,,,,,,2,,,66,0
703392,note_off,0,0,3,,,,,,,,,2,,,75,0
703440,note_on,0,0,3,,,,,,,,,2,,,66,57
703440,note_on,48,0,3,,,,,,,,,2,,,75,57
703632,note_off,0,0,3,,,,,,,,,2,,,75,0
703632,note_off,192,0,3,,,,,,,,,2,,,66,0
703680,note_on,48,0,3,,,,,,,,,2,,,76,58
703680,note_off,720,0,1,,,,,,,,,0,,,90,0
703680,note_off,0,0,1,,,,,,,,,0,,,78,0
703680,note_on,0,0,1,,,,,,,,,0,,,79,66
703680,note_on,0,0,1,,,,,,,,,0,,,91,66
703680,note_on,0,0,3,,,,,,,,,2,,,66,58
703872,note_off,192,0,3,,,,,,,,,2,,,66,0
703872,note_off,0,0,3,,,,,,,,,2,,,76,0
703920,note_on,0,0,3,,,,,,,,,2,,,66,58
703920,note_on,48,0,3,,,,,,,,,2,,,76,58
704112,note_off,192,0,3,,,,,,,,,2,,,66,0
704112,note_off,0,0,3,,,,,,,,,2,,,76,0
704160,note_on,0,0,3,,,,,,,,,2,,,66,59
704160,note_on,48,0,3,,,,,,,,,2,,,76,59
704352,note_off,192,0,3,,,,,,,,,2,,,66,0
704352,note_off,0,0,3,,,,,,,,,2,,,76,0
704400,note_off,0,0,1,,,,,,,,,0,,,79,0
704400,note_off,720,0,1,,,,,,,,,0,,,91,0
704400,note_on,0,0,1,,,,,,,,,0,,,92,68
704400,note_on,0,0,1,,,,,,,,,0,,,80,68
704400,note_on,0,0,3,,,,,,,,,2,,,66,59
704400,note_on,48,0,3,,,,,,,,,2,,,76,59
704592,note_off,0,0,3,,,,,,,,,2,,,76,0
704592,note_off,192,0,3,,,,,,,,,2,,,66,0
704640,note_on,0,0,3,,,,,,,,,2,,,66,60
704640,note_on,48,0,3,,,,,,,,,2,,,76,60
704832,note_off,0,0,3,,,,,,,,,2,,,76,0
704832,note_off,192,0,3,,,,,,,,,2,,,66,0
704880,note_on,48,0,3,,,,,,,,,2,,,76,61
704880,note_on,0,0,3,,,,,,,,,2,,,66,61
705072,note_off,0,0,3,,,,,,,,,2,,,76,0
705072,note_off,192,0,3,,,,,,,,,2,,,66,0
705080,set_tempo,5960,1,0,,,,,,402684,,,,,,,
705120,note_on,0,0,3,,,,,,,,,2,,,66,61
705120,note_on,48,0,3,,,,,,,,,2,,,76,61
705312,note_off,0,0,3,,,,,,,,,2,,,76,0
705312,note_off,192,0,3,,,,,,,,,2,,,66,0
705360,note_on,48,0,3,,,,,,,,,2,,,76,60
705360,note_on,0,0,3,,,,,,,,,2,,,66,60
705552,note_off,192,0,3,,,,,,,,,2,,,66,0
705552,note_off,0,0,3,,,,,,,,,2,,,76,0
705600,note_on,0,0,3,,,,,,,,,2,,,66,58
705600,note_on,48,0,3,,,,,,,,,2,,,76,58
705792,note_off,192,0,3,,,,,,,,,2,,,66,0
705792,note_off,0,0,3,,,,,,,,,2,,,76,0
705840,note_off,0,0,1,,,,,,,,,0,,,80,0
705840,note_on,48,0,3,,,,,,,,,2,,,66,57
705840,note_on,0,0,3,,,,,,,,,2,,,75,57
705840,note_off,1440,0,1,,,,,,,,,0,,,92,0
705840,note_on,0,0,1,,,,,,,,,0,,,78,65
705840,note_on,0,0,1,,,,,,,,,0,,,90,65
706032,note_off,192,0,3,,,,,,,,,2,,,75,0
706032,note_off,0,0,3,,,,,,,,,2,,,66,0
706080,note_on,48,0,3,,,,,,,,,2,,,75,56
706080,note_on,0,0,3,,,,,,,,,2,,,66,56
706272,note_off,192,0,3,,,,,,,,,2,,,66,0
706272,note_off,0,0,3,,,,,,,,,2,,,75,0
706320,note_on,48,0,3,,,,,,,,,2,,,66,54
706320,note_on,0,0,3,,,,,,,,,2,,,75,54
706512,note_off,0,0,3,,,,,,,,,2,,,66,0
706512,note_off,192,0,3,,,,,,,,,2,,,75,0
706560,note_on,0,0,1,,,,,,,,,0,,,88,62
706560,note_on,0,0,1,,,,,,,,,0,,,76,62
706560,note_on,0,0,3,,,,,,,,,2,,,66,53
706560,note_on,48,0,3,,,,,,,,,2,,,73,53
706560,note_off,0,0,1,,,,,,,,,0,,,78,0
706560,note_off,720,0,1,,,,,,,,,0,,,90,0
706752,note_off,0,0,3,,,,,,,,,2,,,73,0
706752,note_off,192,0,3,,,,,,,,,2,,,66,0
706800,note_on,48,0,3,,,,,,,,,2,,,66,53
706800,note_on,0,0,3,,,,,,,,,2,,,73,53
706992,note_off,0,0,3,,,,,,,,,2,,,66,0
706992,note_off,192,0,3,,,,,,,,,2,,,73,0
707040,note_on,0,0,3,,,,,,,,,2,,,66,51
707040,note_on,48,0,3,,,,,,,,,2,,,73,51
707232,note_off,192,0,3,,,,,,,,,2,,,66,0
707232,note_off,0,0,3,,,,,,,,,2,,,73,0
707280,note_on,0,0,3,,,,,,,,,2,,,70,48
707280,note_on,48,0,3,,,,,,,,,2,,,64,48
707280,note_off,720,0,1,,,,,,,,,0,,,88,0
707280,note_off,0,0,1,,,,,,,,,0,,,76,0
707280,note_on,0,0,1,,,,,,,,,0,,,73,58
707280,note_on,0,0,1,,,,,,,,,0,,,85,58
707280,note_on,0,0,3,,,,,,,,,2,,,66,48
707472,note_off,0,0,3,,,,,,,,,2,,,64,0
707472,note_off,0,0,3,,,,,,,,,2,,,66,0
707472,note_off,192,0,3,,,,,,,,,2,,,70,0
707520,note_on,0,0,3,,,,,,,,,2,,,70,45
707520,note_on,48,0,3,,,,,,,,,2,,,64,45
707520,note_on,0,0,3,,,,,,,,,2,,,66,45
707712,note_off,0,0,3,,,,,,,,,2,,,64,0
707712,note_off,0,0,3,,,,,,,,,2,,,66,0
707712,note_off,192,0,3,,,,,,,,,2,,,70,0
707730,set_tempo,2650,1,0,,,,,,425531,,,,,,,
707760,note_on,48,0,3,,,,,,,,,2,,,64,42
707760,note_on,0,0,3,,,,,,,,,2,,,70,42
707760,note_on,0,0,3,,,,,,,,,2,,,66,42
707880,set_tempo,150,1,0,,,,,,500000,,,,,,,
707952,note_off,192,0,3,,,,,,,,,2,,,66,0
707952,note_off,0,0,3,,,,,,,,,2,,,70,0
707952,note_off,0,0,3,,,,,,,,,2,,,64,0
708000,set_tempo,120,1,0,,,,,,400000,,,,,,,
708000,note_on,18345,0,2,,,,,,,,,1,,,66,48
708000,note_on,0,0,1,,,,,,,,,0,,,87,54
708000,note_off,0,0,1,,,,,,,,,0,,,73,0
708000,note_off,720,0,1,,,,,,,,,0,,,85,0
708000,note_on,48,0,3,,,,,,,,,2,,,63,50
708000,note_on,0,0,1,,,,,,,,,0,,,75,54
708120,note_on,0,0,2,,,,,,,,,1,,,68,49
708120,note_off,120,0,2,,,,,,,,,1,,,66,0
708240,note_on,0,0,2,,,,,,,,,1,,,66,50
708240,note_off,120,0,2,,,,,,,,,1,,,68,0
708360,note_on,0,0,2,,,,,,,,,1,,,68,51
708360,note_off,120,0,2,,,,,,,,,1,,,66,0
708480,note_off,480,0,1,,,,,,,,,0,,,75,0
708480,note_on,0,0,2,,,,,,,,,1,,,66,51
708480,note_off,120,0,2,,,,,,,,,1,,,68,0
708480,note_on,0,0,1,,,,,,,,,0,,,80,56
708600,note_off,120,0,2,,,,,,,,,1,,,66,0
708600,note_on,0,0,2,,,,,,,,,1,,,68,52
708720,note_on,0,0,3,,,,,,,,,2,,,59,55
708720,note_on,0,0,2,,,,,,,,,1,,,66,53
708720,note_off,120,0,2,,,,,,,,,1,,,68,0
708720,note_off,720,0,3,,,,,,,,,2,,,63,0
708720,note_on,0,0,1,,,,,,,,,0,,,78,57
708720,note_off,240,0,1,,,,,,,,,0,,,80,0
708840,note_off,120,0,2,,,,,,,,,1,,,66,0
708840,note_on,0,0,2,,,,,,,,,1,,,68,53
708960,note_on,0,0,2,,,,,,,,,1,,,66,54
708960,note_off,120,0,2,,,,,,,,,1,,,68,0
709080,note_off,120,0,2,,,,,,,,,1,,,66,0
709080,note_on,0,0,2,,,,,,,,,1,,,68,55
709200,note_off,120,0,2,,,,,,,,,1,,,68,0
709200,note_on,0,0,1,,,,,,,,,0,,,75,59
709200,note_on,0,0,2,,,,,,,,,1,,,66,56
709200,note_off,480,0,1,,,,,,,,,0,,,78,0
709320,note_on,0,0,2,,,,,,,,,1,,,68,56
709320,note_off,120,0,2,,,,,,,,,1,,,66,0
709440,note_on,0,0,1,,,,,,,,,0,,,73,61
709440,note_off,0,0,1,,,,,,,,,0,,,87,0
709440,note_off,240,0,1,,,,,,,,,0,,,75,0
709440,note_on,0,0,2,,,,,,,,,1,,,66,57
709440,note_on,0,0,3,,,,,,,,,2,,,58,60
709440,note_off,720,0,3,,,,,,,,,2,,,59,0
709440,note_on,0,0,1,,,,,,,,,0,,,85,61
709440,note_off,120,0,2,,,,,,,,,1,,,68,0
709560,note_on,0,0,2,,,,,,,,,1,,,68,56
709560,note_off,120,0,2,,,,,,,,,1,,,66,0
709680,note_off,120,0,2,,,,,,,,,1,,,68,0
709680,note_on,0,0,2,,,,,,,,,1,,,66,55
709800,note_off,120,0,2,,,,,,,,,1,,,66,0
709800,note_on,0,0,2,,,,,,,,,1,,,68,55
709920,note_on,0,0,1,,,,,,,,,0,,,80,59
709920,note_off,120,0,2,,,,,,,,,1,,,68,0
709920,note_on,0,0,2,,,,,,,,,1,,,66,54
709920,note_off,480,0,1,,,,,,,,,0,,,73,0
710040,note_off,120,0,2,,,,,,,,,1,,,66,0
710040,note_on,0,0,2,,,,,,,,,1,,,68,53
710160,note_off,720,0,3,,,,,,,,,2,,,58,0
710160,note_on,0,0,1,,,,,,,,,0,,,78,58
710160,note_on,0,0,2,,,,,,,,,1,,,66,52
710160,note_off,240,0,1,,,,,,,,,0,,,80,0
710160,note_off,120,0,2,,,,,,,,,1,,,68,0
710160,note_on,0,0,3,,,,,,,,,2,,,64,56
710280,note_on,0,0,2,,,,,,,,,1,,,68,52
710280,note_off,120,0,2,,,,,,,,,1,,,66,0
710400,note_off,120,0,2,,,,,,,,,1,,,68,0
710400,note_on,0,0,2,,,,,,,,,1,,,66,51
710520,note_off,120,0,2,,,,,,,,,1,,,66,0
710520,note_on,0,0,2,,,,,,,,,1,,,68,50
710640,note_off,480,0,1,,,,,,,,,0,,,78,0
710640,note_on,0,0,1,,,,,,,,,0,,,73,55
710640,note_on,0,0,2,,,,,,,,,1,,,66,49
710640,note_off,120,0,2,,,,,,,,,1,,,68,0
710760,note_on,0,0,2,,,,,,,,,1,,,68,46
710760,note_off,120,0,2,,,,,,,,,1,,,66,0
710820,set_tempo,2820,1,0,,,,,,402684,,,,,,,
710880,note_on,0,0,2,,,,,,,,,1,,,78,47
710880,set_tempo,60,1,0,,,,,,400000,,,,,,,
710880,note_off,0,0,1,,,,,,,,,0,,,85,0
710880,note_off,240,0,1,,,,,,,,,0,,,73,0
710880,note_on,0,0,3,,,,,,,,,2,,,59,52
710880,note_on,0,0,3,,,,,,,,,2,,,63,52
710880,note_off,720,0,3,,,,,,,,,2,,,64,0
710880,note_off,120,0,2,,,,,,,,,1,,,68,0
710880,note_on,0,0,1,,,,,,,,,0,,,87,54
711000,note_on,0,0,2,,,,,,,,,1,,,80,47
711000,note_off,120,0,2,,,,,,,,,1,,,78,0
711120,note_on,0,0,2,,,,,,,,,1,,,78,48
711120,note_off,120,0,2,,,,,,,,,1,,,80,0
711240,note_on,0,0,2,,,,,,,,,1,,,80,49
711240,note_off,120,0,2,,,,,,,,,1,,,78,0
711360,note_off,120,0,2,,,,,,,,,1,,,80,0
711360,note_on,0,0,2,,,,,,,,,1,,,78,50
711360,note_off,480,0,3,,,,,,,,,2,,,63,0
711360,note_on,0,0,3,,,,,,,,,2,,,68,56
711480,note_off,120,0,2,,,,,,,,,1,,,78,0
711480,note_on,0,0,2,,,,,,,,,1,,,80,51
711600,note_off,240,0,3,,,,,,,,,2,,,68,0
711600,note_on,0,0,3,,,,,,,,,2,,,66,58
711600,note_on,0,0,2,,,,,,,,,1,,,78,51
711600,note_off,120,0,2,,,,,,,,,1,,,80,0
711600,note_off,720,0,1,,,,,,,,,0,,,87,0
711600,note_on,0,0,1,,,,,,,,,0,,,83,57
711720,note_off,120,0,2,,,,,,,,,1,,,78,0
711720,note_on,0,0,2,,,,,,,,,1,,,80,52
711840,note_off,120,0,2,,,,,,,,,1,,,80,0
711840,note_on,0,0,2,,,,,,,,,1,,,78,53
711960,note_off,120,0,2,,,,,,,,,1,,,78,0
711960,note_on,0,0,2,,,,,,,,,1,,,80,54
712080,note_off,120,0,2,,,,,,,,,1,,,80,0
712080,note_on,0,0,2,,,,,,,,,1,,,78,55
712080,note_on,0,0,3,,,,,,,,,2,,,63,61
712080,note_off,480,0,3,,,,,,,,,2,,,66,0
712200,note_off,120,0,2,,,,,,,,,1,,,78,0
712200,note_on,0,0,2,,,,,,,,,1,,,80,55
712320,note_off,720,0,1,,,,,,,,,0,,,83,0
712320,note_on,0,0,1,,,,,,,,,0,,,82,61
712320,note_on,0,0,3,,,,,,,,,2,,,54,65
712320,note_on,0,0,3,,,,,,,,,2,,,61,65
712320,note_off,240,0,3,,,,,,,,,2,,,63,0
712320,note_off,0,0,3,,,,,,,,,2,,,59,0
712320,note_off,120,0,2,,,,,,,,,1,,,80,0
712320,note_on,0,0,2,,,,,,,,,1,,,78,55
712440,note_off,120,0,2,,,,,,,,,1,,,78,0
712440,note_on,0,0,2,,,,,,,,,1,,,80,55
712560,note_off,120,0,2,,,,,,,,,1,,,80,0
712560,note_on,0,0,2,,,,,,,,,1,,,78,54
712680,note_off,120,0,2,,,,,,,,,1,,,78,0
712680,note_on,0,0,2,,,,,,,,,1,,,80,53
712800,note_off,120,0,2,,,,,,,,,1,,,80,0
712800,note_on,0,0,2,,,,,,,,,1,,,78,53
712800,note_off,480,0,3,,,,,,,,,2,,,61,0
712800,note_on,0,0,3,,,,,,,,,2,,,68,61
712920,note_on,0,0,2,,,,,,,,,1,,,80,52
712920,note_off,120,0,2,,,,,,,,,1,,,78,0
713040,note_on,0,0,3,,,,,,,,,2,,,52,59
713040,note_on,0,0,3,,,,,,,,,2,,,66,59
713040,note_on,0,0,1,,,,,,,,,0,,,90,57
713040,note_off,720,0,1,,,,,,,,,0,,,82,0
713040,note_on,0,0,2,,,,,,,,,1,,,78,51
713040,note_off,120,0,2,,,,,,,,,1,,,80,0
713040,note_off,0,0,3,,,,,,,,,2,,,54,0
713040,note_off,240,0,3,,,,,,,,,2,,,68,0
713160,note_on,0,0,2,,,,,,,,,1,,,80,51
713160,note_off,120,0,2,,,,,,,,,1,,,78,0
713280,note_off,120,0,2,,,,,,,,,1,,,80,0
713280,note_on,0,0,2,,,,,,,,,1,,,78,50
713400,note_on,0,0,2,,,,,,,,,1,,,80,49
713400,note_off,120,0,2,,,,,,,,,1,,,78,0
713520,note_on,0,0,2,,,,,,,,,1,,,78,49
713520,note_off,120,0,2,,,,,,,,,1,,,80,0
713520,note_on,0,0,3,,,,,,,,,2,,,61,55
713520,note_off,480,0,3,,,,,,,,,2,,,66,0
713640,note_off,120,0,2,,,,,,,,,1,,,78,0
713640,note_on,0,0,2,,,,,,,,,1,,,80,48
713700,set_tempo,2820,1,0,,,,,,402684,,,,,,,
713760,note_off,0,0,3,,,,,,,,,2,,,52,0
713760,note_off,120,0,2,,,,,,,,,1,,,80,0
713760,note_off,720,0,1,,,,,,,,,0,,,90,0
713760,set_tempo,60,1,0,,,,,,402684,,,,,,,
713760,note_on,0,0,1,,,,,,,,,0,,,90,53
713760,note_off,240,0,3,,,,,,,,,2,,,61,0
713760,note_on,0,0,1,,,,,,,,,0,,,78,53
713760,note_on,0,0,3,,,,,,,,,2,,,51,38
713880,note_on,120,0,3,,,,,,,,,2,,,59,38
713970,note_off,90,0,3,,,,,,,,,2,,,51,0
714000,note_on,0,0,3,,,,,,,,,2,,,51,38
714000,note_off,30,0,3,,,,,,,,,2,,,59,0
714120,note_on,120,0,3,,,,,,,,,2,,,59,39
714228,note_off,108,0,3,,,,,,,,,2,,,51,0
714240,note_on,0,0,3,,,,,,,,,2,,,51,39
714240,note_off,12,0,3,,,,,,,,,2,,,59,0
714360,note_on,120,0,3,,,,,,,,,2,,,59,39
714468,note_off,108,0,3,,,,,,,,,2,,,51,0
714480,note_off,720,0,1,,,,,,,,,0,,,90,0
714480,note_off,0,0,1,,,,,,,,,0,,,78,0
714480,note_on,0,0,1,,,,,,,,,0,,,66,44
714480,note_on,0,0,1,,,,,,,,,0,,,78,44
714480,note_off,12,0,3,,,,,,,,,2,,,59,0
714480,note_on,0,0,3,,,,,,,,,2,,,50,40
714600,note_on,120,0,3,,,,,,,,,2,,,60,40
714708,note_off,108,0,3,,,,,,,,,2,,,50,0
714720,note_on,0,0,3,,,,,,,,,2,,,50,40
714720,note_off,12,0,3,,,,,,,,,2,,,60,0
714840,note_on,120,0,3,,,,,,,,,2,,,60,40
714948,note_off,108,0,3,,,,,,,,,2,,,50,0
714960,note_on,0,0,3,,,,,,,,,2,,,50,41
714960,note_off,12,0,3,,,,,,,,,2,,,60,0
715080,note_on,120,0,3,,,,,,,,,2,,,60,41
715188,note_off,108,0,3,,,,,,,,,2,,,50,0
715200,note_on,0,0,3,,,,,,,,,2,,,48,41
715200,note_off,12,0,3,,,,,,,,,2,,,60,0
715200,note_on,0,0,1,,,,,,,,,0,,,78,42
715200,note_off,720,0,1,,,,,,,,,0,,,78,0
715200,note_off,0,0,1,,,,,,,,,0,,,66,0
715200,note_on,0,0,1,,,,,,,,,0,,,74,42
715200,note_on,0,0,1,,,,,,,,,0,,,66,42
715320,note_on,120,0,3,,,,,,,,,2,,,57,42
715428,note_off,108,0,3,,,,,,,,,2,,,48,0
715440,note_on,0,0,3,,,,,,,,,2,,,48,42
715440,note_off,12,0,3,,,,,,,,,2,,,57,0
715560,note_on,120,0,3,,,,,,,,,2,,,57,42
715668,note_off,108,0,3,,,,,,,,,2,,,48,0
715680,note_off,480,0,1,,,,,,,,,0,,,78,0
715680,note_off,0,0,1,,,,,,,,,0,,,66,0
715680,note_off,0,0,1,,,,,,,,,0,,,74,0
715680,note_off,12,0,3,,,,,,,,,2,,,57,0
715680,note_on,0,0,3,,,,,,,,,2,,,48,43
715800,note_on,120,0,3,,,,,,,,,2,,,57,43
715908,note_off,108,0,3,,,,,,,,,2,,,48,0
715920,note_on,0,0,3,,,,,,,,,2,,,47,43
715920,note_off,12,0,3,,,,,,,,,2,,,57,0
715920,note_on,0,0,1,,,,,,,,,0,,,79,48
715920,note_on,240,0,1,,,,,,,,,0,,,74,48
715920,note_on,0,0,1,,,,,,,,,0,,,67,48
716040,note_on,120,0,3,,,,,,,,,2,,,55,44
716148,note_off,108,0,3,,,,,,,,,2,,,47,0
716160,note_off,12,0,3,,,,,,,,,2,,,55,0
716160,note_on,0,0,3,,,,,,,,,2,,,47,44
716280,note_on,120,0,3,,,,,,,,,2,,,55,44
716388,note_off,108,0,3,,,,,,,,,2,,,47,0
716400,note_on,0,0,3,,,,,,,,,2,,,45,45
716400,note_off,12,0,3,,,,,,,,,2,,,55,0
716400,note_on,0,0,1,,,,,,,,,0,,,81,51
716400,note_off,480,0,1,,,,,,,,,0,,,67,0
716400,note_off,0,0,1,,,,,,,,,0,,,79,0
716400,note_off,0,0,1,,,,,,,,,0,,,74,0
716400,note_on,0,0,1,,,,,,,,,0,,,74,51
716400,note_on,0,0,1,,,,,,,,,0,,,69,51
716505,set_tempo,2745,1,0,,,,,,428571,,,,,,,
716520,note_on,120,0,3,,,,,,,,,2,,,54,45
716628,note_off,108,0,3,,,,,,,,,2,,,45,0
716640,note_on,0,0,3,,,,,,,,,2,,,55,45
716640,note_on,0,0,3,,,,,,,,,2,,,43,45
716640,note_off,12,0,3,,,,,,,,,2,,,54,0
716640,note_off,0,0,1,,,,,,,,,0,,,74,0
716640,note_off,240,0,1,,,,,,,,,0,,,69,0
716640,note_off,0,0,1,,,,,,,,,0,,,81,0
716640,note_on,0,0,1,,,,,,,,,0,,,71,45
716640,note_on,0,0,1,,,,,,,,,0,,,74,45
716640,set_tempo,135,1,0,,,,,,400000,,,,,,,
716640,note_on,0,0,1,,,,,,,,,0,,,83,45
716880,note_on,0,0,3,,,,,,,,,2,,,59,45
716880,note_on,0,0,3,,,,,,,,,2,,,55,45
716880,note_off,240,0,3,,,,,,,,,2,,,55,0
716880,note_off,0,0,3,,,,,,,,,2,,,43,0
717000,note_on,120,0,3,,,,,,,,,2,,,62,46
717099,note_off,99,0,3,,,,,,,,,2,,,55,0
717099,note_off,0,0,3,,,,,,,,,2,,,59,0
717120,note_on,0,0,3,,,,,,,,,2,,,55,47
717120,note_off,0,0,1,,,,,,,,,0,,,83,0
717120,note_off,0,0,1,,,,,,,,,0,,,74,0
717120,note_off,21,0,3,,,,,,,,,2,,,62,0
717120,note_on,0,0,1,,,,,,,,,0,,,76,47
717120,note_on,0,0,1,,,,,,,,,0,,,88,47
717120,note_on,0,0,3,,,,,,,,,2,,,59,47
717120,note_off,480,0,1,,,,,,,,,0,,,71,0
717240,note_on,120,0,3,,,,,,,,,2,,,62,47
717330,note_off,0,0,3,,,,,,,,,2,,,55,0
717330,note_off,90,0,3,,,,,,,,,2,,,59,0
717360,note_off,30,0,3,,,,,,,,,2,,,62,0
717360,note_on,0,0,3,,,,,,,,,2,,,59,48
717360,note_on,0,0,1,,,,,,,,,0,,,86,48
717360,note_on,0,0,1,,,,,,,,,0,,,74,48
717360,note_off,0,0,1,,,,,,,,,0,,,88,0
717360,note_off,240,0,1,,,,,,,,,0,,,76,0
717360,note_on,0,0,3,,,,,,,,,2,,,55,48
717480,note_on,120,0,3,,,,,,,,,2,,,62,48
717570,note_off,0,0,3,,,,,,,,,2,,,59,0
717570,note_off,90,0,3,,,,,,,,,2,,,55,0
717600,note_on,0,0,3,,,,,,,,,2,,,55,49
717600,note_off,30,0,3,,,,,,,,,2,,,62,0
717600,note_on,0,0,3,,,,,,,,,2,,,59,49
717720,note_on,120,0,3,,,,,,,,,2,,,62,50
717810,note_off,0,0,3,,,,,,,,,2,,,59,0
717810,note_off,90,0,3,,,,,,,,,2,,,55,0
717840,note_on,0,0,1,,,,,,,,,0,,,71,50
717840,note_on,0,0,1,,,,,,,,,0,,,83,50
717840,note_off,0,0,1,,,,,,,,,0,,,74,0
717840,note_on,0,0,3,,,,,,,,,2,,,59,50
717840,note_on,0,0,3,,,,,,,,,2,,,55,50
717840,note_off,30,0,3,,,,,,,,,2,,,62,0
717840,note_off,480,0,1,,,,,,,,,0,,,86,0
717960,note_on,120,0,3,,,,,,,,,2,,,62,51
718050,note_off,90,0,3,,,,,,,,,2,,,59,0
718050,note_off,0,0,3,,,,,,,,,2,,,55,0
718080,note_off,30,0,3,,,,,,,,,2,,,62,0
718080,note_on,0,0,3,,,,,,,,,2,,,54,51
718080,note_on,0,0,3,,,,,,,,,2,,,60,51
718080,note_on,0,0,1,,,,,,,,,0,,,81,53
718080,note_off,0,0,1,,,,,,,,,0,,,71,0
718080,note_off,240,0,1,,,,,,,,,0,,,83,0
718080,note_on,0,0,1,,,,,,,,,0,,,69,53
718200,note_on,120,0,3,,,,,,,,,2,,,62,51
718290,note_off,0,0,3,,,,,,,,,2,,,54,0
718290,note_off,90,0,3,,,,,,,,,2,,,60,0
718320,note_on,0,0,3,,,,,,,,,2,,,60,50
718320,note_on,0,0,3,,,,,,,,,2,,,54,50
718320,note_off,30,0,3,,,,,,,,,2,,,62,0
718440,note_on,120,0,3,,,,,,,,,2,,,62,49
718530,note_off,90,0,3,,,,,,,,,2,,,60,0
718530,note_off,0,0,3,,,,,,,,,2,,,54,0
718560,note_on,0,0,3,,,,,,,,,2,,,60,49
718560,note_off,0,0,1,,,,,,,,,0,,,69,0
718560,note_off,30,0,3,,,,,,,,,2,,,62,0
718560,note_on,0,0,1,,,,,,,,,0,,,76,50
718560,note_on,0,0,1,,,,,,,,,0,,,88,50
718560,note_off,480,0,1,,,,,,,,,0,,,81,0
718560,note_on,0,0,3,,,,,,,,,2,,,54,49
718680,note_on,120,0,3,,,,,,,,,2,,,62,48
718770,note_off,90,0,3,,,,,,,,,2,,,60,0
718770,note_off,0,0,3,,,,,,,,,2,,,54,0
718800,note_on,0,0,3,,,,,,,,,2,,,60,47
718800,note_off,30,0,3,,,,,,,,,2,,,62,0
718800,note_off,240,0,1,,,,,,,,,0,,,88,0
718800,note_off,0,0,1,,,,,,,,,0,,,76,0
718800,note_on,0,0,1,,,,,,,,,0,,,74,48
718800,note_on,0,0,1,,,,,,,,,0,,,86,48
718800,note_on,0,0,3,,,,,,,,,2,,,54,47
718920,note_on,120,0,3,,,,,,,,,2,,,62,47
719010,note_off,0,0,3,,,,,,,,,2,,,54,0
719010,note_off,90,0,3,,,,,,,,,2,,,60,0
719040,note_on,0,0,3,,,,,,,,,2,,,60,46
719040,note_on,0,0,3,,,,,,,,,2,,,54,46
719040,note_off,30,0,3,,,,,,,,,2,,,62,0
719160,note_on,120,0,3,,,,,,,,,2,,,62,45
719250,note_off,90,0,3,,,,,,,,,2,,,60,0
719250,note_off,0,0,3,,,,,,,,,2,,,54,0
719280,note_on,0,0,3,,,,,,,,,2,,,60,45
719280,note_off,30,0,3,,,,,,,,,2,,,62,0
719280,note_on,0,0,3,,,,,,,,,2,,,54,45
719280,note_on,0,0,1,,,,,,,,,0,,,69,45
719280,note_on,0,0,1,,,,,,,,,0,,,81,45
719280,note_off,0,0,1,,,,,,,,,0,,,74,0
719280,note_off,480,0,1,,,,,,,,,0,,,86,0
719400,note_on,120,0,3,,,,,,,,,2,,,62,44
719460,set_tempo,2820,1,0,,,,,,408163,,,,,,,
719490,note_off,90,0,3,,,,,,,,,2,,,60,0
719490,note_off,0,0,3,,,,,,,,,2,,,54,0
719520,note_on,5760,0,2,,,,,,,,,1,,,74,41
719520,set_tempo,60,1,0,,,,,,400000,,,,,,,
719520,note_off,0,0,1,,,,,,,,,0,,,81,0
719520,note_on,0,0,3,,,,,,,,,2,,,59,43
719520,note_on,0,0,3,,,,,,,,,2,,,55,43
719520,note_off,30,0,3,,,,,,,,,2,,,62,0
719520,note_on,0,0,1,,,,,,,,,0,,,83,44
719520,note_off,240,0,1,,,,,,,,,0,,,69,0
719640,note_off,120,0,2,,,,,,,,,1,,,74,0
719640,note_on,0,0,2,,,,,,,,,1,,,76,41
719760,note_off,120,0,2,,,,,,,,,1,,,76,0
719760,note_on,0,0,2,,,,,,,,,1,,,74,42
719880,note_off,120,0,2,,,,,,,,,1,,,74,0
719880,note_on,0,0,2,,,,,,,,,1,,,76,43
720000,note_off,480,0,3,,,,,,,,,2,,,59,0
720000,note_off,120,0,2,,,,,,,,,1,,,76,0
720000,note_on,0,0,3,,,,,,,,,2,,,64,51
720000,note_on,0,0,2,,,,,,,,,1,,,74,43
720120,note_on,0,0,2,,,,,,,,,1,,,76,44
720120,note_off,120,0,2,,,,,,,,,1,,,74,0
720240,note_off,120,0,2,,,,,,,,,1,,,76,0
720240,note_off,240,0,3,,,,,,,,,2,,,64,0
720240,note_off,720,0,1,,,,,,,,,0,,,83,0
720240,note_on,0,0,1,,,,,,,,,0,,,79,46
720240,note_on,0,0,3,,,,,,,,,2,,,62,53
720240,note_on,0,0,2,,,,,,,,,1,,,74,45
720360,note_off,120,0,2,,,,,,,,,1,,,74,0
720360,note_on,0,0,2,,,,,,,,,1,,,76,45
720480,note_off,120,0,2,,,,,,,,,1,,,76,0
720480,note_on,0,0,2,,,,,,,,,1,,,74,46
720600,note_on,0,0,2,,,,,,,,,1,,,76,47
720600,note_off,120,0,2,,,,,,,,,1,,,74,0
720720,note_off,480,0,3,,,,,,,,,2,,,62,0
720720,note_on,0,0,2,,,,,,,,,1,,,74,47
720720,note_on,0,0,3,,,,,,,,,2,,,59,56
720720,note_off,120,0,2,,,,,,,,,1,,,76,0
720840,note_off,120,0,2,,,,,,,,,1,,,74,0
720840,note_on,0,0,2,,,,,,,,,1,,,76,48
720960,note_off,120,0,2,,,,,,,,,1,,,76,0
720960,note_on,0,0,2,,,,,,,,,1,,,74,49
720960,note_off,0,0,3,,,,,,,,,2,,,55,0
720960,note_on,0,0,3,,,,,,,,,2,,,50,59
720960,note_off,720,0,1,,,,,,,,,0,,,79,0
720960,note_on,0,0,1,,,,,,,,,0,,,78,51
720960,note_on,0,0,3,,,,,,,,,2,,,57,59
720960,note_off,240,0,3,,,,,,,,,2,,,59,0
721080,note_on,0,0,2,,,,,,,,,1,,,76,49
721080,note_off,120,0,2,,,,,,,,,1,,,74,0
721200,note_off,120,0,2,,,,,,,,,1,,,76,0
721200,note_on,0,0,2,,,,,,,,,1,,,74,48
721320,note_on,0,0,2,,,,,,,,,1,,,76,47
721320,note_off,120,0,2,,,,,,,,,1,,,74,0
721440,note_off,120,0,2,,,,,,,,,1,,,76,0
721440,note_on,0,0,2,,,,,,,,,1,,,74,47
721440,note_off,480,0,3,,,,,,,,,2,,,57,0
721440,note_on,0,0,3,,,,,,,,,2,,,64,57
721560,note_off,120,0,2,,,,,,,,,1,,,74,0
721560,note_on,0,0,2,,,,,,,,,1,,,76,46
721680,note_off,240,0,3,,,,,,,,,2,,,64,0
721680,note_on,0,0,3,,,,,,,,,2,,,62,56
721680,note_on,0,0,1,,,,,,,,,0,,,84,48
721680,note_off,720,0,1,,,,,,,,,0,,,78,0
721680,note_off,120,0,2,,,,,,,,,1,,,76,0
721680,note_on,0,0,2,,,,,,,,,1,,,74,45
721800,note_off,120,0,2,,,,,,,,,1,,,74,0
721800,note_on,0,0,2,,,,,,,,,1,,,76,44
721920,note_off,120,0,2,,,,,,,,,1,,,76,0
721920,note_on,0,0,2,,,,,,,,,1,,,74,44
722040,note_on,0,0,2,,,,,,,,,1,,,76,43
722040,note_off,120,0,2,,,,,,,,,1,,,74,0
722160,note_off,480,0,3,,,,,,,,,2,,,62,0
722160,note_on,0,0,3,,,,,,,,,2,,,57,53
722160,note_off,120,0,2,,,,,,,,,1,,,76,0
722160,note_on,0,0,2,,,,,,,,,1,,,74,42
722280,note_on,0,0,2,,,,,,,,,1,,,76,42
722280,note_off,120,0,2,,,,,,,,,1,,,74,0
722340,set_tempo,2820,1,0,,,,,,408163,,,,,,,
722400,note_off,720,0,1,,,,,,,,,0,,,84,0
722400,set_tempo,60,1,0,,,,,,402684,,,,,,,
722400,note_on,0,0,2,,,,,,,,,1,,,74,49
722400,note_on,0,0,1,,,,,,,,,0,,,83,44
722400,note_off,120,0,2,,,,,,,,,1,,,76,0
722400,note_on,0,0,3,,,,,,,,,2,,,62,52
722400,note_off,240,0,3,,,,,,,,,2,,,57,0
722400,note_on,0,0,3,,,,,,,,,2,,,59,52
722400,note_off,0,0,3,,,,,,,,,2,,,50,0
722400,note_on,0,0,3,,,,,,,,,2,,,55,52
722640,note_off,240,0,1,,,,,,,,,0,,,83,0
722640,note_off,240,0,2,,,,,,,,,1,,,74,0
722640,note_on,0,0,2,,,,,,,,,1,,,71,57
722880,note_on,240,0,1,,,,,,,,,0,,,86,45
722880,note_off,0,0,3,,,,,,,,,2,,,55,0
722880,note_off,480,0,3,,,,,,,,,2,,,59,0
722880,note_off,0,0,3,,,,,,,,,2,,,62,0
722880,note_on,0,0,2,,,,,,,,,1,,,67,54
722880,note_off,240,0,2,,,,,,,,,1,,,71,0
723120,note_on,0,0,1,,,,,,,,,0,,,86,58
723120,note_off,240,0,1,,,,,,,,,0,,,86,0
723120,note_off,240,0,2,,,,,,,,,1,,,67,0
723120,note_on,0,0,2,,,,,,,,,1,,,66,51
723360,note_on,0,0,2,,,,,,,,,1,,,67,48
723360,note_off,240,0,2,,,,,,,,,1,,,66,0
723360,note_off,240,0,1,,,,,,,,,0,,,86,0
723360,note_on,0,0,1,,,,,,,,,0,,,83,63
723600,note_off,240,0,2,,,,,,,,,1,,,67,0
723600,note_on,720,0,3,,,,,,,,,2,,,62,53
723600,note_off,240,0,1,,,,,,,,,0,,,83,0
723600,note_on,0,0,1,,,,,,,,,0,,,79,61
723600,note_on,0,0,2,,,,,,,,,1,,,71,45
723840,note_off,240,0,1,,,,,,,,,0,,,79,0
723840,note_off,240,0,2,,,,,,,,,1,,,71,0
723840,note_off,240,0,3,,,,,,,,,2,,,62,0
723840,note_on,0,0,3,,,,,,,,,2,,,62,57
724080,note_on,0,0,3,,,,,,,,,2,,,59,55
724080,note_off,240,0,3,,,,,,,,,2,,,62,0
724080,note_on,240,0,1,,,,,,,,,0,,,71,57
724320,note_on,0,0,3,,,,,,,,,2,,,55,53
724320,note_off,240,0,3,,,,,,,,,2,,,59,0
724320,note_off,240,0,1,,,,,,,,,0,,,71,0
724320,note_on,0,0,1,,,,,,,,,0,,,74,53
724560,note_off,240,0,1,,,,,,,,,0,,,74,0
724560,note_on,0,0,3,,,,,,,,,2,,,53,51
724560,note_off,240,0,3,,,,,,,,,2,,,55,0
724560,note_on,0,0,1,,,,,,,,,0,,,79,51
724800,note_on,0,0,3,,,,,,,,,2,,,50,49
724800,note_off,240,0,1,,,,,,,,,0,,,79,0
724800,note_off,240,0,3,,,,,,,,,2,,,53,0
724800,note_on,0,0,1,,,,,,,,,0,,,83,49
725040,note_off,240,0,1,,,,,,,,,0,,,83,0
725040,note_on,0,0,1,,,,,,,,,0,,,86,48
725040,note_on,0,0,3,,,,,,,,,2,,,47,47
725040,note_off,240,0,3,,,,,,,,,2,,,50,0
725040,note_on,1200,0,2,,,,,,,,,1,,,79,61
725220,set_tempo,2820,1,0,,,,,,408163,,,,,,,
725280,set_tempo,60,1,0,,,,,,402684,,,,,,,
725280,note_on,0,0,3,,,,,,,,,2,,,48,45
725280,note_on,0,0,2,,,,,,,,,1,,,79,69
725280,note_off,240,0,2,,,,,,,,,1,,,79,0
725280,note_on,0,0,1,,,,,,,,,0,,,88,46
725280,note_off,240,0,1,,,,,,,,,0,,,86,0
725280,note_off,240,0,3,,,,,,,,,2,,,47,0
725520,note_on,0,0,2,,,,,,,,,1,,,76,66
725520,note_off,240,0,1,,,,,,,,,0,,,88,0
725520,note_off,240,0,2,,,,,,,,,1,,,79,0
725760,note_off,240,0,2,,,,,,,,,1,,,76,0
725760,note_on,0,0,2,,,,,,,,,1,,,72,64
725760,note_off,480,0,3,,,,,,,,,2,,,48,0
725760,note_on,0,0,3,,,,,,,,,2,,,67,61
726000,note_on,0,0,2,,,,,,,,,1,,,71,61
726000,note_off,240,0,2,,,,,,,,,1,,,72,0
726240,note_on,0,0,3,,,,,,,,,2,,,64,60
726240,note_on,0,0,2,,,,,,,,,1,,,72,58
726240,note_off,240,0,2,,,,,,,,,1,,,71,0
726240,note_off,480,0,3,,,,,,,,,2,,,67,0
726480,note_off,240,0,3,,,,,,,,,2,,,64,0
726480,note_on,0,0,3,,,,,,,,,2,,,55,59
726480,note_on,0,0,3,,,,,,,,,2,,,60,59
726480,note_off,240,0,2,,,,,,,,,1,,,72,0
726480,note_on,0,0,2,,,,,,,,,1,,,76,56
726720,note_on,0,0,3,,,,,,,,,2,,,55,58
726720,note_off,0,0,3,,,,,,,,,2,,,55,0
726720,note_off,240,0,3,,,,,,,,,2,,,60,0
726720,note_off,240,0,2,,,,,,,,,1,,,76,0
726960,note_off,240,0,3,,,,,,,,,2,,,55,0
726960,note_on,1440,0,1,,,,,,,,,0,,,79,58
726960,note_on,0,0,3,,,,,,,,,2,,,52,58
727200,note_on,0,0,1,,,,,,,,,0,,,84,60
727200,note_off,240,0,1,,,,,,,,,0,,,79,0
727200,note_off,240,0,3,,,,,,,,,2,,,52,0
727200,note_on,0,0,3,,,,,,,,,2,,,48,57
727440,note_off,240,0,3,,,,,,,,,2,,,48,0
727440,note_on,0,0,3,,,,,,,,,2,,,43,56
727440,note_on,0,0,1,,,,,,,,,0,,,88,62
727440,note_on,0,0,1,,,,,,,,,0,,,76,62
727440,note_off,240,0,1,,,,,,,,,0,,,84,0
727680,note_off,240,0,3,,,,,,,,,2,,,43,0
727680,note_on,0,0,3,,,,,,,,,2,,,36,55
727920,note_off,480,0,1,,,,,,,,,0,,,88,0
727920,note_off,240,0,3,,,,,,,,,2,,,36,0
727920,note_on,0,0,3,,,,,,,,,2,,,48,55
727920,note_on,0,0,1,,,,,,,,,0,,,87,68
727920,note_on,0,0,1,,,,,,,,,0,,,75,68
727920,note_off,0,0,1,,,,,,,,,0,,,76,0
728100,set_tempo,2820,1,0,,,,,,408163,,,,,,,
728160,note_off,0,0,1,,,,,,,,,0,,,75,0
728160,note_off,240,0,1,,,,,,,,,0,,,87,0
728160,note_on,0,0,1,,,,,,,,,0,,,87,71
728160,set_tempo,60,1,0,,,,,,408163,,,,,,,
728160,note_on,0,0,3,,,,,,,,,2,,,48,54
728160,note_off,240,0,3,,,,,,,,,2,,,48,0
728280,note_on,120,0,3,,,,,,,,,2,,,51,52
728400,note_on,0,0,1,,,,,,,,,0,,,84,68
728400,note_on,120,0,3,,,,,,,,,2,,,56,52
728400,note_off,240,0,1,,,,,,,,,0,,,87,0
728472,note_off,72,0,3,,,,,,,,,2,,,51,0
728520,note_on,48,0,3,,,,,,,,,2,,,51,52
728542,note_off,22,0,3,,,,,,,,,2,,,48,0
728592,note_off,50,0,3,,,,,,,,,2,,,56,0
728640,note_off,240,0,1,,,,,,,,,0,,,84,0
728640,note_on,0,0,1,,,,,,,,,0,,,80,66
728640,note_on,48,0,3,,,,,,,,,2,,,56,52
728712,note_off,72,0,3,,,,,,,,,2,,,51,0
728760,note_on,48,0,3,,,,,,,,,2,,,51,52
728832,note_off,72,0,3,,,,,,,,,2,,,56,0
728880,note_on,0,0,1,,,,,,,,,0,,,79,64
728880,note_on,48,0,3,,,,,,,,,2,,,49,53
728880,note_off,240,0,1,,,,,,,,,0,,,80,0
728898,note_off,18,0,3,,,,,,,,,2,,,51,0
729000,note_on,102,0,3,,,,,,,,,2,,,51,53
729120,note_on,0,0,1,,,,,,,,,0,,,82,62
729120,note_on,120,0,3,,,,,,,,,2,,,55,53
729120,note_off,240,0,1,,,,,,,,,0,,,79,0
729192,note_off,72,0,3,,,,,,,,,2,,,51,0
729240,note_on,48,0,3,,,,,,,,,2,,,58,53
729270,note_off,30,0,3,,,,,,,,,2,,,49,0
729312,note_off,42,0,3,,,,,,,,,2,,,55,0
729360,note_on,2640,0,2,,,,,,,,,1,,,75,73
729360,note_on,0,0,1,,,,,,,,,0,,,87,61
729360,note_off,240,0,1,,,,,,,,,0,,,82,0
729360,note_on,48,0,3,,,,,,,,,2,,,61,54
729432,note_off,72,0,3,,,,,,,,,2,,,58,0
729480,note_on,48,0,3,,,,,,,,,2,,,55,54
729540,set_tempo,1380,1,0,,,,,,413793,,,,,,,
729552,note_off,72,0,3,,,,,,,,,2,,,61,0
729600,note_off,240,0,1,,,,,,,,,0,,,87,0
729600,note_off,48,0,3,,,,,,,,,2,,,55,0
729600,note_on,0,0,3,,,,,,,,,2,,,56,54
729600,note_off,240,0,2,,,,,,,,,1,,,75,0
729600,note_on,0,0,2,,,,,,,,,1,,,75,79
729720,note_on,120,0,3,,,,,,,,,2,,,60,54
729840,note_on,120,0,3,,,,,,,,,2,,,63,54
729840,note_on,0,0,2,,,,,,,,,1,,,72,76
729840,note_off,240,0,2,,,,,,,,,1,,,75,0
729912,note_off,72,0,3,,,,,,,,,2,,,60,0
729960,note_on,48,0,3,,,,,,,,,2,,,60,55
730002,note_off,42,0,3,,,,,,,,,2,,,56,0
730032,note_off,30,0,3,,,,,,,,,2,,,63,0
730080,note_on,0,0,2,,,,,,,,,1,,,68,73
730080,note_off,240,0,2,,,,,,,,,1,,,72,0
730080,note_on,48,0,3,,,,,,,,,2,,,63,55
730152,note_off,72,0,3,,,,,,,,,2,,,60,0
730200,note_on,48,0,3,,,,,,,,,2,,,60,55
730272,note_off,72,0,3,,,,,,,,,2,,,63,0
730320,note_off,240,0,2,,,,,,,,,1,,,68,0
730320,note_off,48,0,3,,,,,,,,,2,,,60,0
730320,note_on,0,0,3,,,,,,,,,2,,,55,55
730320,note_on,0,0,2,,,,,,,,,1,,,75,70
730440,note_on,120,0,3,,,,,,,,,2,,,58,56
730560,note_off,240,0,2,,,,,,,,,1,,,75,0
730560,note_on,0,0,2,,,,,,,,,1,,,70,67
730560,note_on,120,0,3,,,,,,,,,2,,,63,56
730614,note_off,54,0,3,,,,,,,,,2,,,58,0
730680,note_on,66,0,3,,,,,,,,,2,,,58,56
730695,set_tempo,1155,1,0,,,,,,419580,,,,,,,
730700,note_off,20,0,3,,,,,,,,,2,,,55,0
730734,note_off,34,0,3,,,,,,,,,2,,,63,0
730800,note_on,1200,0,1,,,,,,,,,0,,,70,75
730800,note_off,240,0,2,,,,,,,,,1,,,70,0
730800,note_on,66,0,3,,,,,,,,,2,,,55,56
730800,note_on,0,0,1,,,,,,,,,0,,,82,75
730854,note_off,54,0,3,,,,,,,,,2,,,58,0
730920,note_on,66,0,3,,,,,,,,,2,,,58,56
730992,note_off,192,0,1,,,,,,,,,0,,,82,0
730992,note_off,0,0,1,,,,,,,,,0,,,70,0
731028,note_off,108,0,3,,,,,,,,,2,,,55,0
731040,set_tempo,345,1,0,,,,,,402684,,,,,,,
731040,note_on,0,0,1,,,,,,,,,0,,,82,81
731040,note_off,12,0,3,,,,,,,,,2,,,58,0
731040,note_on,0,0,3,,,,,,,,,2,,,51,57
731040,note_on,48,0,1,,,,,,,,,0,,,70,81
731160,note_on,120,0,3,,,,,,,,,2,,,55,57
731280,note_off,240,0,1,,,,,,,,,0,,,82,0
731280,note_off,0,0,1,,,,,,,,,0,,,70,0
731280,note_on,0,0,1,,,,,,,,,0,,,67,77
731280,note_on,0,0,1,,,,,,,,,0,,,79,77
731280,note_on,120,0,3,,,,,,,,,2,,,58,57
731370,note_off,90,0,3,,,,,,,,,2,,,55,0
731400,note_off,30,0,3,,,,,,,,,2,,,51,0
731400,note_on,0,0,3,,,,,,,,,2,,,55,57
731490,note_off,90,0,3,,,,,,,,,2,,,58,0
731520,note_on,30,0,3,,,,,,,,,2,,,58,58
731520,note_on,0,0,1,,,,,,,,,0,,,63,73
731520,note_on,0,0,1,,,,,,,,,0,,,75,73
731520,note_off,0,0,1,,,,,,,,,0,,,67,0
731520,note_off,240,0,1,,,,,,,,,0,,,79,0
731610,note_off,90,0,3,,,,,,,,,2,,,55,0
731640,note_on,30,0,3,,,,,,,,,2,,,55,58
731730,note_off,90,0,3,,,,,,,,,2,,,58,0
731760,note_off,30,0,3,,,,,,,,,2,,,55,0
731760,note_on,0,0,3,,,,,,,,,2,,,46,58
731760,note_on,0,0,1,,,,,,,,,0,,,62,70
731760,note_off,240,0,1,,,,,,,,,0,,,63,0
731760,note_on,0,0,1,,,,,,,,,0,,,74,70
731760,note_off,0,0,1,,,,,,,,,0,,,75,0
731880,note_on,120,0,3,,,,,,,,,2,,,56,58
732000,note_off,240,0,1,,,,,,,,,0,,,62,0
732000,note_off,0,0,1,,,,,,,,,0,,,74,0
732000,note_on,0,0,1,,,,,,,,,0,,,77,71
732000,note_on,0,0,1,,,,,,,,,0,,,65,71
732000,note_on,120,0,3,,,,,,,,,2,,,58,58
732072,note_off,72,0,3,,,,,,,,,2,,,56,0
732120,note_on,0,0,3,,,,,,,,,2,,,56,59
732120,note_off,48,0,3,,,,,,,,,2,,,46,0
732192,note_off,0,0,1,,,,,,,,,0,,,65,0
732192,note_off,192,0,1,,,,,,,,,0,,,77,0
732210,note_off,90,0,3,,,,,,,,,2,,,58,0
732240,note_on,0,0,1,,,,,,,,,0,,,82,72
732240,note_on,30,0,3,,,,,,,,,2,,,58,59
732240,note_on,48,0,1,,,,,,,,,0,,,70,72
732330,note_off,90,0,3,,,,,,,,,2,,,56,0
732360,note_on,30,0,3,,,,,,,,,2,,,56,59
732432,note_off,0,0,1,,,,,,,,,0,,,70,0
732432,note_off,192,0,1,,,,,,,,,0,,,82,0
732450,note_off,90,0,3,,,,,,,,,2,,,58,0
732480,note_on,0,0,3,,,,,,,,,2,,,51,59
732480,note_on,0,0,1,,,,,,,,,0,,,70,73
732480,note_off,30,0,3,,,,,,,,,2,,,56,0
732480,note_on,48,0,1,,,,,,,,,0,,,82,73
732600,note_on,120,0,3,,,,,,,,,2,,,55,60
732720,note_off,240,0,1,,,,,,,,,0,,,70,0
732720,note_on,0,0,1,,,,,,,,,0,,,67,74
732720,note_on,0,0,1,,,,,,,,,0,,,79,74
732720,note_off,0,0,1,,,,,,,,,0,,,82,0
732720,note_on,120,0,3,,,,,,,,,2,,,58,60
732801,note_off,81,0,3,,,,,,,,,2,,,55,0
732840,note_off,39,0,3,,,,,,,,,2,,,51,0
732840,note_on,0,0,3,,,,,,,,,2,,,55,60
732921,note_off,81,0,3,,,,,,,,,2,,,58,0
732960,note_on,39,0,3,,,,,,,,,2,,,58,60
732960,note_off,240,0,1,,,,,,,,,0,,,67,0
732960,note_off,0,0,1,,,,,,,,,0,,,79,0
732960,note_on,0,0,1,,,,,,,,,0,,,63,76
732960,note_on,0,0,1,,,,,,,,,0,,,75,76
733041,note_off,81,0,3,,,,,,,,,2,,,55,0
733080,note_on,39,0,3,,,,,,,,,2,,,55,60
733161,note_off,81,0,3,,,,,,,,,2,,,58,0
733200,note_on,0,0,1,,,,,,,,,0,,,63,77
733200,note_off,0,0,1,,,,,,,,,0,,,63,0
733200,note_on,0,0,1,,,,,,,,,0,,,75,77
733200,note_off,240,0,1,,,,,,,,,0,,,75,0
733200,note_on,39,0,3,,,,,,,,,2,,,58,61
733281,note_off,81,0,3,,,,,,,,,2,,,55,0
733320,note_on,39,0,3,,,,,,,,,2,,,55,61
733401,note_off,81,0,3,,,,,,,,,2,,,58,0
733440,note_on,39,0,3,,,,,,,,,2,,,58,61
733440,note_off,240,0,1,,,,,,,,,0,,,75,0
733440,note_on,0,0,1,,,,,,,,,0,,,67,78
733440,note_on,0,0,1,,,,,,,,,0,,,79,78
733440,note_off,0,0,1,,,,,,,,,0,,,63,0
733521,note_off,81,0,3,,,,,,,,,2,,,55,0
733560,note_on,39,0,3,,,,,,,,,2,,,55,61
733632,note_off,0,0,1,,,,,,,,,0,,,79,0
733632,note_off,192,0,1,,,,,,,,,0,,,67,0
733641,note_off,81,0,3,,,,,,,,,2,,,58,0
733680,note_on,39,0,3,,,,,,,,,2,,,52,62
733680,note_on,48,0,1,,,,,,,,,0,,,84,79
733680,note_on,0,0,1,,,,,,,,,0,,,72,79
733752,note_off,72,0,3,,,,,,,,,2,,,55,0
733800,note_on,48,0,3,,,,,,,,,2,,,55,62
733872,note_off,192,0,1,,,,,,,,,0,,,72,0
733872,note_off,0,0,1,,,,,,,,,0,,,84,0
733890,set_tempo,2850,1,0,,,,,,408163,,,,,,,
733912,note_off,112,0,3,,,,,,,,,2,,,52,0
733920,set_tempo,30,1,0,,,,,,400000,,,,,,,
733920,note_on,0,0,3,,,,,,,,,2,,,53,62
733920,note_on,48,0,1,,,,,,,,,0,,,84,82
733920,note_on,0,0,1,,,,,,,,,0,,,72,82
733920,note_off,8,0,3,,,,,,,,,2,,,55,0
734040,note_on,120,0,3,,,,,,,,,2,,,56,62
734160,note_off,240,0,1,,,,,,,,,0,,,72,0
734160,note_on,120,0,3,,,,,,,,,2,,,60,62
734160,note_off,0,0,1,,,,,,,,,0,,,84,0
734160,note_on,0,0,1,,,,,,,,,0,,,68,79
734160,note_on,0,0,1,,,,,,,,,0,,,80,79
734259,note_off,99,0,3,,,,,,,,,2,,,56,0
734265,note_off,6,0,3,,,,,,,,,2,,,53,0
734280,note_on,15,0,3,,,,,,,,,2,,,56,63
734379,note_off,99,0,3,,,,,,,,,2,,,60,0
734400,note_off,240,0,1,,,,,,,,,0,,,68,0
734400,note_on,21,0,3,,,,,,,,,2,,,60,63
734400,note_off,0,0,1,,,,,,,,,0,,,80,0
734400,note_on,0,0,1,,,,,,,,,0,,,77,80
734400,note_on,0,0,1,,,,,,,,,0,,,65,80
734499,note_off,99,0,3,,,,,,,,,2,,,56,0
734520,note_on,21,0,3,,,,,,,,,2,,,56,63
734619,note_off,99,0,3,,,,,,,,,2,,,60,0
734640,note_on,0,0,3,,,,,,,,,2,,,48,63
734640,note_off,240,0,1,,,,,,,,,0,,,77,0
734640,note_off,0,0,1,,,,,,,,,0,,,65,0
734640,note_on,0,0,1,,,,,,,,,0,,,64,81
734640,note_off,21,0,3,,,,,,,,,2,,,56,0
734640,note_on,0,0,1,,,,,,,,,0,,,76,81
734760,note_on,120,0,3,,,,,,,,,2,,,58,64
734880,note_off,240,0,1,,,,,,,,,0,,,76,0
734880,note_off,0,0,1,,,,,,,,,0,,,64,0
734880,note_on,0,0,1,,,,,,,,,0,,,67,83
734880,note_on,120,0,3,,,,,,,,,2,,,60,64
734880,note_on,0,0,1,,,,,,,,,0,,,79,83
734952,note_off,72,0,3,,,,,,,,,2,,,58,0
734992,note_off,40,0,3,,,,,,,,,2,,,48,0
735000,note_on,8,0,3,,,,,,,,,2,,,58,64
735072,note_off,0,0,1,,,,,,,,,0,,,79,0
735072,note_off,72,0,3,,,,,,,,,2,,,60,0
735072,note_off,192,0,1,,,,,,,,,0,,,67,0
735120,note_on,48,0,1,,,,,,,,,0,,,84,84
735120,note_on,0,0,1,,,,,,,,,0,,,72,84
735120,note_on,48,0,3,,,,,,,,,2,,,60,64
735192,note_off,72,0,3,,,,,,,,,2,,,58,0
735240,note_on,48,0,3,,,,,,,,,2,,,58,64
735312,note_off,192,0,1,,,,,,,,,0,,,72,0
735312,note_off,0,0,1,,,,,,,,,0,,,84,0
735312,note_off,72,0,3,,,,,,,,,2,,,60,0
735360,note_on,48,0,1,,,,,,,,,0,,,72,85
735360,note_off,48,0,3,,,,,,,,,2,,,58,0
735360,note_on,0,0,1,,,,,,,,,0,,,84,85
735360,note_on,0,0,3,,,,,,,,,2,,,53,65
735480,note_on,120,0,3,,,,,,,,,2,,,56,65
735600,note_off,0,0,1,,,,,,,,,0,,,72,0
735600,note_on,120,0,3,,,,,,,,,2,,,60,65
735600,note_on,0,0,1,,,,,,,,,0,,,80,86
735600,note_on,0,0,1,,,,,,,,,0,,,68,86
735600,note_off,240,0,1,,,,,,,,,0,,,84,0
735690,note_off,90,0,3,,,,,,,,,2,,,56,0
735720,note_off,30,0,3,,,,,,,,,2,,,53,0
735720,note_on,0,0,3,,,,,,,,,2,,,56,65
735810,note_off,90,0,3,,,,,,,,,2,,,60,0
735840,note_on,30,0,3,,,,,,,,,2,,,60,66
735840,note_off,240,0,1,,,,,,,,,0,,,80,0
735840,note_off,0,0,1,,,,,,,,,0,,,68,0
735840,note_on,0,0,1,,,,,,,,,0,,,77,87
735840,note_on,0,0,1,,,,,,,,,0,,,65,87
735930,note_off,90,0,3,,,,,,,,,2,,,56,0
735960,note_on,30,0,3,,,,,,,,,2,,,56,66
736050,note_off,90,0,3,,,,,,,,,2,,,60,0
736080,note_on,30,0,3,,,,,,,,,2,,,58,66
736080,note_off,240,0,1,,,,,,,,,0,,,65,0
736080,note_on,0,0,1,,,,,,,,,0,,,62,89
736080,note_off,0,0,1,,,,,,,,,0,,,77,0
736080,note_on,0,0,1,,,,,,,,,0,,,74,89
736170,note_off,90,0,3,,,,,,,,,2,,,56,0
736200,note_on,30,0,3,,,,,,,,,2,,,56,66
736281,note_off,81,0,3,,,,,,,,,2,,,58,0
736320,note_off,240,0,1,,,,,,,,,0,,,74,0
736320,note_off,0,0,1,,,,,,,,,0,,,62,0
736320,note_on,0,0,1,,,,,,,,,0,,,77,90
736320,note_on,0,0,1,,,,,,,,,0,,,65,90
736320,note_on,39,0,3,,,,,,,,,2,,,58,66
736401,note_off,81,0,3,,,,,,,,,2,,,56,0
736440,note_on,39,0,3,,,,,,,,,2,,,56,67
736512,note_off,0,0,1,,,,,,,,,0,,,77,0
736512,note_off,192,0,1,,,,,,,,,0,,,65,0
736521,note_off,81,0,3,,,,,,,,,2,,,58,0
736560,note_on,39,0,3,,,,,,,,,2,,,50,67
736560,note_on,0,0,1,,,,,,,,,0,,,70,91
736560,note_on,48,0,1,,,,,,,,,0,,,82,91
736641,note_off,81,0,3,,,,,,,,,2,,,56,0
736680,note_on,39,0,3,,,,,,,,,2,,,56,67
736752,note_off,192,0,1,,,,,,,,,0,,,70,0
736752,note_off,0,0,1,,,,,,,,,0,,,82,0
736770,set_tempo,2850,1,0,,,,,,402684,,,,,,,
736800,note_on,48,0,1,,,,,,,,,0,,,82,90
736800,note_on,0,0,1,,,,,,,,,0,,,70,90
736800,note_off,120,0,3,,,,,,,,,2,,,56,0
736800,note_off,0,0,3,,,,,,,,,2,,,50,0
736800,note_on,0,0,3,,,,,,,,,2,,,51,65
736800,set_tempo,30,1,0,,,,,,400000,,,,,,,
736920,note_on,120,0,3,,,,,,,,,2,,,55,65
737040,note_off,240,0,1,,,,,,,,,0,,,70,0
737040,note_off,0,0,1,,,,,,,,,0,,,82,0
737040,note_on,0,0,1,,,,,,,,,0,,,79,86
737040,note_on,0,0,1,,,,,,,,,0,,,67,86
737040,note_on,120,0,3,,,,,,,,,2,,,58,64
737130,note_off,90,0,3,,,,,,,,,2,,,55,0
737160,note_off,30,0,3,,,,,,,,,2,,,51,0
737160,note_on,0,0,3,,,,,,,,,2,,,55,64
737250,note_off,90,0,3,,,,,,,,,2,,,58,0
737280,note_on,30,0,3,,,,,,,,,2,,,58,64
737280,note_off,240,0,1,,,,,,,,,0,,,67,0
737280,note_off,0,0,1,,,,,,,,,0,,,79,0
737280,note_on,0,0,1,,,,,,,,,0,,,75,82
737280,note_on,0,0,1,,,,,,,,,0,,,63,82
737370,note_off,90,0,3,,,,,,,,,2,,,55,0
737400,note_on,30,0,3,,,,,,,,,2,,,55,63
737490,note_off,90,0,3,,,,,,,,,2,,,58,0
737520,note_off,240,0,1,,,,,,,,,0,,,63,0
737520,note_off,0,0,1,,,,,,,,,0,,,75,0
737520,note_on,0,0,1,,,,,,,,,0,,,72,78
737520,note_off,30,0,3,,,,,,,,,2,,,55,0
737520,note_on,0,0,3,,,,,,,,,2,,,44,63
737520,note_on,0,0,1,,,,,,,,,0,,,60,78
737640,note_on,120,0,3,,,,,,,,,2,,,53,62
737760,note_on,0,0,1,,,,,,,,,0,,,77,76
737760,note_on,0,0,1,,,,,,,,,0,,,65,76
737760,note_off,0,0,1,,,,,,,,,0,,,72,0
737760,note_off,240,0,1,,,,,,,,,0,,,60,0
737760,note_on,120,0,3,,,,,,,,,2,,,56,62
737850,note_off,90,0,3,,,,,,,,,2,,,53,0
737880,note_on,30,0,3,,,,,,,,,2,,,53,62
737940,note_off,60,0,3,,,,,,,,,2,,,44,0
737952,note_off,192,0,1,,,,,,,,,0,,,77,0
737952,note_off,0,0,1,,,,,,,,,0,,,65,0
737970,note_off,30,0,3,,,,,,,,,2,,,56,0
738000,note_on,30,0,3,,,,,,,,,2,,,56,61
738000,note_on,48,0,1,,,,,,,,,0,,,80,75
738000,note_on,0,0,1,,,,,,,,,0,,,68,75
738090,note_off,90,0,3,,,,,,,,,2,,,53,0
738120,note_on,30,0,3,,,,,,,,,2,,,53,61
738192,note_off,0,0,1,,,,,,,,,0,,,80,0
738192,note_off,192,0,1,,,,,,,,,0,,,68,0
738210,note_off,90,0,3,,,,,,,,,2,,,56,0
738230,set_tempo,1430,1,0,,,,,,402684,,,,,,,
738240,note_on,0,0,3,,,,,,,,,2,,,46,60
738240,note_off,30,0,3,,,,,,,,,2,,,53,0
738240,note_on,48,0,1,,,,,,,,,0,,,58,73
738240,note_on,0,0,1,,,,,,,,,0,,,70,73
738360,note_on,120,0,3,,,,,,,,,2,,,51,60
738480,note_on,120,0,3,,,,,,,,,2,,,55,59
738480,note_off,240,0,1,,,,,,,,,0,,,70,0
738480,note_off,0,0,1,,,,,,,,,0,,,58,0
738480,note_on,0,0,1,,,,,,,,,0,,,63,72
738480,note_on,0,0,1,,,,,,,,,0,,,75,72
738570,note_off,90,0,3,,,,,,,,,2,,,51,0
738600,note_on,30,0,3,,,,,,,,,2,,,51,59
738615,note_off,15,0,3,,,,,,,,,2,,,46,0
738672,note_off,192,0,1,,,,,,,,,0,,,75,0
738672,note_off,0,0,1,,,,,,,,,0,,,63,0
738690,note_off,75,0,3,,,,,,,,,2,,,55,0
738720,note_on,30,0,3,,,,,,,,,2,,,55,59
738720,note_on,48,0,1,,,,,,,,,0,,,79,70
738720,note_on,0,0,1,,,,,,,,,0,,,67,70
738810,note_off,90,0,3,,,,,,,,,2,,,51,0
738840,note_on,30,0,3,,,,,,,,,2,,,51,58
738912,note_off,0,0,1,,,,,,,,,0,,,79,0
738912,note_off,192,0,1,,,,,,,,,0,,,67,0
738930,note_off,90,0,3,,,,,,,,,2,,,55,0
738960,note_on,0,0,1,,,,,,,,,0,,,58,68
738960,note_on,30,0,3,,,,,,,,,2,,,46,58
738960,note_on,48,0,1,,,,,,,,,0,,,70,68
738987,note_off,27,0,3,,,,,,,,,2,,,51,0
739080,note_on,93,0,3,,,,,,,,,2,,,50,57
739200,note_off,240,0,1,,,,,,,,,0,,,58,0
739200,note_off,0,0,1,,,,,,,,,0,,,70,0
739200,note_on,0,0,1,,,,,,,,,0,,,62,67
739200,note_on,0,0,1,,,,,,,,,0,,,74,67
739200,note_on,120,0,3,,,,,,,,,2,,,53,57
739207,note_off,7,0,3,,,,,,,,,2,,,46,0
739392,note_off,0,0,1,,,,,,,,,0,,,62,0
739392,note_off,192,0,1,,,,,,,,,0,,,74,0
739410,note_off,203,0,3,,,,,,,,,2,,,53,0
739440,note_on,0,0,3,,,,,,,,,2,,,46,56
739440,note_on,0,0,3,,,,,,,,,2,,,58,56
739440,note_off,30,0,3,,,,,,,,,2,,,50,0
739440,note_on,48,0,1,,,,,,,,,0,,,68,65
739560,note_on,120,0,1,,,,,,,,,0,,,77,64
739596,note_off,0,0,3,,,,,,,,,2,,,46,0
739596,note_off,156,0,3,,,,,,,,,2,,,58,0
739660,set_tempo,1430,1,0,,,,,,419580,,,,,,,
739680,note_off,0,0,1,,,,,,,,,0,,,68,0
739680,note_on,0,0,3,,,,,,,,,2,,,58,58
739680,note_on,84,0,3,,,,,,,,,2,,,46,58
739680,note_off,120,0,1,,,,,,,,,0,,,77,0
739680,set_tempo,20,1,0,,,,,,402684,,,,,,,
739800,note_on,120,0,1,,,,,,,,,0,,,79,63
739836,note_off,0,0,3,,,,,,,,,2,,,46,0
739836,note_off,156,0,3,,,,,,,,,2,,,58,0
739920,note_on,84,0,3,,,,,,,,,2,,,43,60
739920,note_on,120,0,1,,,,,,,,,0,,,82,63
739920,note_on,0,0,3,,,,,,,,,2,,,55,60
739985,note_off,65,0,1,,,,,,,,,0,,,79,0
740040,note_on,55,0,1,,,,,,,,,0,,,87,64
740076,note_off,0,0,3,,,,,,,,,2,,,43,0
740076,note_off,156,0,3,,,,,,,,,2,,,55,0
740105,note_off,65,0,1,,,,,,,,,0,,,82,0
740160,note_on,0,0,3,,,,,,,,,2,,,51,61
740160,note_on,84,0,3,,,,,,,,,2,,,39,61
740160,note_on,55,0,1,,,,,,,,,0,,,91,64
740225,note_off,65,0,1,,,,,,,,,0,,,87,0
740280,note_on,55,0,1,,,,,,,,,0,,,79,65
740316,note_off,156,0,3,,,,,,,,,2,,,51,0
740316,note_off,0,0,3,,,,,,,,,2,,,39,0
740345,note_off,65,0,1,,,,,,,,,0,,,91,0
740400,note_on,84,0,3,,,,,,,,,2,,,38,62
740400,note_on,0,0,3,,,,,,,,,2,,,50,62
740465,note_off,120,0,1,,,,,,,,,0,,,79,0
740520,note_on,55,0,1,,,,,,,,,0,,,80,65
740556,note_off,156,0,3,,,,,,,,,2,,,50,0
740556,note_off,0,0,3,,,,,,,,,2,,,38,0
740640,note_on,120,0,1,,,,,,,,,0,,,82,66
740640,note_on,84,0,3,,,,,,,,,2,,,41,64
740640,note_on,0,0,3,,,,,,,,,2,,,53,64
740705,note_off,65,0,1,,,,,,,,,0,,,80,0
740760,note_on,55,0,1,,,,,,,,,0,,,89,66
740796,note_off,156,0,3,,,,,,,,,2,,,53,0
740796,note_off,0,0,3,,,,,,,,,2,,,41,0
740825,note_off,65,0,1,,,,,,,,,0,,,82,0
740880,note_on,55,0,1,,,,,,,,,0,,,92,67
740880,note_on,0,0,3,,,,,,,,,2,,,58,65
740880,note_on,84,0,3,,,,,,,,,2,,,46,65
740945,note_off,65,0,1,,,,,,,,,0,,,89,0
741000,note_on,55,0,1,,,,,,,,,0,,,80,67
741036,note_off,0,0,3,,,,,,,,,2,,,46,0
741036,note_off,156,0,3,,,,,,,,,2,,,58,0
741065,note_off,65,0,1,,,,,,,,,0,,,92,0
741120,note_on,0,0,3,,,,,,,,,2,,,46,67
741120,note_on,84,0,3,,,,,,,,,2,,,58,67
741135,note_off,70,0,1,,,,,,,,,0,,,80,0
741240,note_on,105,0,1,,,,,,,,,0,,,79,68
741276,note_off,156,0,3,,,,,,,,,2,,,46,0
741276,note_off,0,0,3,,,,,,,,,2,,,58,0
741360,note_on,84,0,3,,,,,,,,,2,,,43,68
741360,note_on,0,0,3,,,,,,,,,2,,,55,68
741360,note_on,120,0,1,,,,,,,,,0,,,82,68
741425,note_off,65,0,1,,,,,,,,,0,,,79,0
741480,note_on,55,0,1,,,,,,,,,0,,,87,69
741516,note_off,156,0,3,,,,,,,,,2,,,55,0
741516,note_off,0,0,3,,,,,,,,,2,,,43,0
741545,note_off,65,0,1,,,,,,,,,0,,,82,0
741600,note_on,84,0,3,,,,,,,,,2,,,39,69
741600,note_on,0,0,3,,,,,,,,,2,,,51,69
741600,note_on,55,0,1,,,,,,,,,0,,,91,69
741665,note_off,65,0,1,,,,,,,,,0,,,87,0
741720,note_on,55,0,1,,,,,,,,,0,,,79,70
741756,note_off,0,0,3,,,,,,,,,2,,,39,0
741756,note_off,156,0,3,,,,,,,,,2,,,51,0
741785,note_off,65,0,1,,,,,,,,,0,,,91,0
741840,note_on,0,0,3,,,,,,,,,2,,,51,71
741840,note_on,84,0,3,,,,,,,,,2,,,39,71
741905,note_off,120,0,1,,,,,,,,,0,,,79,0
741960,note_on,55,0,1,,,,,,,,,0,,,79,71
741996,note_off,156,0,3,,,,,,,,,2,,,51,0
741996,note_off,0,0,3,,,,,,,,,2,,,39,0
742080,note_on,120,0,1,,,,,,,,,0,,,82,71
742080,note_on,84,0,3,,,,,,,,,2,,,43,72
742080,note_on,0,0,3,,,,,,,,,2,,,55,72
742145,note_off,65,0,1,,,,,,,,,0,,,79,0
742200,note_on,55,0,1,,,,,,,,,0,,,87,71
742236,note_off,0,0,3,,,,,,,,,2,,,43,0
742236,note_off,156,0,3,,,,,,,,,2,,,55,0
742265,note_off,65,0,1,,,,,,,,,0,,,82,0
742320,note_on,55,0,1,,,,,,,,,0,,,91,72
742320,note_on,0,0,3,,,,,,,,,2,,,60,74
742320,note_on,84,0,3,,,,,,,,,2,,,48,74
742385,note_off,65,0,1,,,,,,,,,0,,,87,0
742440,note_on,55,0,1,,,,,,,,,0,,,88,72
742476,note_off,0,0,3,,,,,,,,,2,,,48,0
742476,note_off,156,0,3,,,,,,,,,2,,,60,0
742505,note_off,65,0,1,,,,,,,,,0,,,91,0
742550,set_tempo,2870,1,0,,,,,,402684,,,,,,,
742560,note_on,0,0,3,,,,,,,,,2,,,48,75
742560,set_tempo,10,1,0,,,,,,400000,,,,,,,
742560,note_on,84,0,3,,,,,,,,,2,,,60,75
742575,note_off,70,0,1,,,,,,,,,0,,,88,0
742680,note_on,105,0,1,,,,,,,,,0,,,80,73
742716,note_off,156,0,3,,,,,,,,,2,,,48,0
742716,note_off,0,0,3,,,,,,,,,2,,,60,0
742800,note_on,120,0,1,,,,,,,,,0,,,84,74
742800,note_on,84,0,3,,,,,,,,,2,,,44,76
742800,note_on,0,0,3,,,,,,,,,2,,,56,76
742865,note_off,65,0,1,,,,,,,,,0,,,80,0
742920,note_on,55,0,1,,,,,,,,,0,,,89,74
742956,note_off,156,0,3,,,,,,,,,2,,,56,0
742956,note_off,0,0,3,,,,,,,,,2,,,44,0
742985,note_off,65,0,1,,,,,,,,,0,,,84,0
743040,note_on,84,0,3,,,,,,,,,2,,,53,78
743040,note_on,0,0,3,,,,,,,,,2,,,41,78
743040,note_on,55,0,1,,,,,,,,,0,,,92,74
743105,note_off,65,0,1,,,,,,,,,0,,,89,0
743160,note_on,55,0,1,,,,,,,,,0,,,80,75
743196,note_off,156,0,3,,,,,,,,,2,,,41,0
743196,note_off,0,0,3,,,,,,,,,2,,,53,0
743225,note_off,65,0,1,,,,,,,,,0,,,92,0
743280,note_on,84,0,3,,,,,,,,,2,,,40,79
743280,note_on,0,0,3,,,,,,,,,2,,,52,79
743345,note_off,120,0,1,,,,,,,,,0,,,80,0
743400,note_on,55,0,1,,,,,,,,,0,,,82,76
743436,note_off,156,0,3,,,,,,,,,2,,,52,0
743436,note_off,0,0,3,,,,,,,,,2,,,40,0
743520,note_on,120,0,1,,,,,,,,,0,,,84,76
743520,note_on,0,0,3,,,,,,,,,2,,,43,80
743520,note_on,84,0,3,,,,,,,,,2,,,55,80
743585,note_off,65,0,1,,,,,,,,,0,,,82,0
743640,note_on,55,0,1,,,,,,,,,0,,,91,77
743676,note_off,156,0,3,,,,,,,,,2,,,43,0
743676,note_off,0,0,3,,,,,,,,,2,,,55,0
743705,note_off,65,0,1,,,,,,,,,0,,,84,0
743760,note_on,55,0,1,,,,,,,,,0,,,94,77
743760,note_on,84,0,3,,,,,,,,,2,,,60,82
743760,note_on,0,0,3,,,,,,,,,2,,,48,82
743825,note_off,65,0,1,,,,,,,,,0,,,91,0
743880,note_on,55,0,1,,,,,,,,,0,,,82,77
743916,note_off,156,0,3,,,,,,,,,2,,,48,0
743916,note_off,0,0,3,,,,,,,,,2,,,60,0
743945,note_off,65,0,1,,,,,,,,,0,,,94,0
744000,note_on,84,0,3,,,,,,,,,2,,,60,83
744000,note_on,0,0,3,,,,,,,,,2,,,48,83
744065,note_off,120,0,1,,,,,,,,,0,,,82,0
744120,note_on,55,0,1,,,,,,,,,0,,,80,78
744156,note_off,156,0,3,,,,,,,,,2,,,48,0
744156,note_off,0,0,3,,,,,,,,,2,,,60,0
744240,note_on,84,0,3,,,,,,,,,2,,,44,85
744240,note_on,0,0,3,,,,,,,,,2,,,56,85
744240,note_on,120,0,1,,,,,,,,,0,,,84,79
744305,note_off,65,0,1,,,,,,,,,0,,,80,0
744360,note_on,55,0,1,,,,,,,,,0,,,89,79
744396,note_off,0,0,3,,,,,,,,,2,,,44,0
744396,note_off,156,0,3,,,,,,,,,2,,,56,0
744425,note_off,65,0,1,,,,,,,,,0,,,84,0
744480,note_on,55,0,1,,,,,,,,,0,,,92,80
744480,note_on,0,0,3,,,,,,,,,2,,,53,86
744480,note_on,84,0,3,,,,,,,,,2,,,41,86
744545,note_off,65,0,1,,,,,,,,,0,,,89,0
744600,note_on,55,0,1,,,,,,,,,0,,,80,80
744636,note_off,156,0,3,,,,,,,,,2,,,53,0
744636,note_off,0,0,3,,,,,,,,,2,,,41,0
744665,note_off,65,0,1,,,,,,,,,0,,,92,0
744720,note_on,0,0,3,,,,,,,,,2,,,50,87
744720,note_on,84,0,3,,,,,,,,,2,,,38,87
744785,note_off,120,0,1,,,,,,,,,0,,,80,0
744840,note_on,55,0,1,,,,,,,,,0,,,80,81
744876,note_off,0,0,3,,,,,,,,,2,,,38,0
744876,note_off,156,0,3,,,,,,,,,2,,,50,0
744960,note_on,0,0,3,,,,,,,,,2,,,53,89
744960,note_on,84,0,3,,,,,,,,,2,,,41,89
744960,note_on,120,0,1,,,,,,,,,0,,,82,81
745025,note_off,65,0,1,,,,,,,,,0,,,80,0
745080,note_on,55,0,1,,,,,,,,,0,,,89,82
745116,note_off,156,0,3,,,,,,,,,2,,,53,0
745116,note_off,0,0,3,,,,,,,,,2,,,41,0
745145,note_off,65,0,1,,,,,,,,,0,,,82,0
745200,note_on,55,0,1,,,,,,,,,0,,,92,82
745200,note_on,84,0,3,,,,,,,,,2,,,46,90
745200,note_on,0,0,3,,,,,,,,,2,,,58,90
745265,note_off,65,0,1,,,,,,,,,0,,,89,0
745320,note_on,55,0,1,,,,,,,,,0,,,80,83
745356,note_off,156,0,3,,,,,,,,,2,,,58,0
745356,note_off,0,0,3,,,,,,,,,2,,,46,0
745385,note_off,65,0,1,,,,,,,,,0,,,92,0
745410,set_tempo,2850,1,0,,,,,,402684,,,,,,,
745440,set_tempo,30,1,0,,,,,,400000,,,,,,,
745440,note_on,0,0,3,,,,,,,,,2,,,58,92
745440,note_on,84,0,3,,,,,,,,,2,,,46,92
745455,note_off,70,0,1,,,,,,,,,0,,,80,0
745560,note_on,105,0,1,,,,,,,,,0,,,79,84
745596,note_off,0,0,3,,,,,,,,,2,,,46,0
745596,note_off,156,0,3,,,,,,,,,2,,,58,0
745680,note_on,84,0,3,,,,,,,,,2,,,43,93
745680,note_on,0,0,3,,,,,,,,,2,,,55,93
745680,note_on,120,0,1,,,,,,,,,0,,,82,84
745745,note_off,65,0,1,,,,,,,,,0,,,79,0
745800,note_on,55,0,1,,,,,,,,,0,,,87,84
745836,note_off,0,0,3,,,,,,,,,2,,,43,0
745836,note_off,156,0,3,,,,,,,,,2,,,55,0
745865,note_off,65,0,1,,,,,,,,,0,,,82,0
745920,note_on,84,0,3,,,,,,,,,2,,,39,94
745920,note_on,0,0,3,,,,,,,,,2,,,51,94
745920,note_on,55,0,1,,,,,,,,,0,,,91,85
745985,note_off,65,0,1,,,,,,,,,0,,,87,0
746040,note_on,55,0,1,,,,,,,,,0,,,79,85
746076,note_off,0,0,3,,,,,,,,,2,,,39,0
746076,note_off,156,0,3,,,,,,,,,2,,,51,0
746105,note_off,65,0,1,,,,,,,,,0,,,91,0
746160,note_on,84,0,3,,,,,,,,,2,,,36,96
746160,note_on,0,0,3,,,,,,,,,2,,,48,96
746225,note_off,120,0,1,,,,,,,,,0,,,79,0
746280,note_on,55,0,1,,,,,,,,,0,,,92,86
746316,note_off,0,0,3,,,,,,,,,2,,,36,0
746316,note_off,156,0,3,,,,,,,,,2,,,48,0
746400,note_on,120,0,1,,,,,,,,,0,,,89,87
746400,note_on,0,0,3,,,,,,,,,2,,,53,97
746400,note_on,84,0,3,,,,,,,,,2,,,41,97
746465,note_off,65,0,1,,,,,,,,,0,,,92,0
746520,note_on,55,0,1,,,,,,,,,0,,,84,87
746556,note_off,156,0,3,,,,,,,,,2,,,53,0
746556,note_off,0,0,3,,,,,,,,,2,,,41,0
746585,note_off,65,0,1,,,,,,,,,0,,,89,0
746640,note_on,55,0,1,,,,,,,,,0,,,80,87
746640,note_on,84,0,3,,,,,,,,,2,,,44,99
746640,note_on,0,0,3,,,,,,,,,2,,,56,99
746705,note_off,65,0,1,,,,,,,,,0,,,84,0
746760,note_on,55,0,1,,,,,,,,,0,,,92,88
746796,note_off,156,0,3,,,,,,,,,2,,,56,0
746796,note_off,0,0,3,,,,,,,,,2,,,44,0
746825,note_off,65,0,1,,,,,,,,,0,,,80,0
746850,set_tempo,1410,1,0,,,,,,402684,,,,,,,
746880,note_on,84,0,3,,,,,,,,,2,,,34,100
746880,note_on,0,0,3,,,,,,,,,2,,,46,100
746945,note_off,120,0,1,,,,,,,,,0,,,92,0
747000,note_on,55,0,1,,,,,,,,,0,,,94,89
747036,note_off,156,0,3,,,,,,,,,2,,,46,0
747036,note_off,0,0,3,,,,,,,,,2,,,34,0
747120,note_on,120,0,1,,,,,,,,,0,,,91,89
747120,note_on,84,0,3,,,,,,,,,2,,,39,101
747120,note_on,0,0,3,,,,,,,,,2,,,51,101
747185,note_off,65,0,1,,,,,,,,,0,,,94,0
747240,note_on,55,0,1,,,,,,,,,0,,,87,90
747276,note_off,0,0,3,,,,,,,,,2,,,39,0
747276,note_off,156,0,3,,,,,,,,,2,,,51,0
747305,note_off,65,0,1,,,,,,,,,0,,,91,0
747360,note_on,0,0,3,,,,,,,,,2,,,55,103
747360,note_on,84,0,3,,,,,,,,,2,,,43,103
747360,note_on,55,0,1,,,,,,,,,0,,,82,90
747425,note_off,65,0,1,,,,,,,,,0,,,87,0
747480,note_on,55,0,1,,,,,,,,,0,,,94,90
747516,note_off,0,0,3,,,,,,,,,2,,,43,0
747516,note_off,156,0,3,,,,,,,,,2,,,55,0
747545,note_off,65,0,1,,,,,,,,,0,,,82,0
747600,note_on,0,0,3,,,,,,,,,2,,,34,104
747600,note_on,84,0,3,,,,,,,,,2,,,46,104
747665,note_off,120,0,1,,,,,,,,,0,,,94,0
747720,note_on,55,0,1,,,,,,,,,0,,,94,91
747756,note_off,156,0,3,,,,,,,,,2,,,34,0
747756,note_off,0,0,3,,,,,,,,,2,,,46,0
747840,note_on,84,0,3,,,,,,,,,2,,,53,105
747840,note_on,120,0,1,,,,,,,,,0,,,89,92
747840,note_on,0,0,3,,,,,,,,,2,,,41,105
747905,note_off,65,0,1,,,,,,,,,0,,,94,0
747960,note_on,55,0,1,,,,,,,,,0,,,86,92
747996,note_off,156,0,3,,,,,,,,,2,,,41,0
747996,note_off,0,0,3,,,,,,,,,2,,,53,0
748025,note_off,65,0,1,,,,,,,,,0,,,89,0
748080,note_on,84,0,3,,,,,,,,,2,,,58,107
748080,note_on,55,0,1,,,,,,,,,0,,,82,93
748080,note_on,0,0,3,,,,,,,,,2,,,46,107
748140,set_tempo,1290,1,0,,,,,,419580,,,,,,,
748145,note_off,65,0,1,,,,,,,,,0,,,86,0
748200,note_on,55,0,1,,,,,,,,,0,,,94,93
748236,note_off,156,0,3,,,,,,,,,2,,,46,0
748236,note_off,0,0,3,,,,,,,,,2,,,58,0
748260,set_tempo,120,1,0,,,,,,413793,,,,,,,
748265,note_off,65,0,1,,,,,,,,,0,,,82,0
748320,note_on,0,0,1,,,,,,,,,0,,,55,102
748320,note_on,84,0,3,,,,,,,,,2,,,39,120
748320,set_tempo,60,1,0,,,,,,400000,,,,,,,
748320,note_off,55,0,1,,,,,,,,,0,,,94,0
748440,note_on,120,0,1,,,,,,,,,0,,,63,102
748560,note_on,240,0,3,,,,,,,,,2,,,51,93
748560,note_on,0,0,3,,,,,,,,,2,,,55,93
748560,note_on,120,0,1,,,,,,,,,0,,,58,103
748656,note_off,96,0,1,,,,,,,,,0,,,55,0
748664,note_off,8,0,1,,,,,,,,,0,,,63,0
748680,note_on,16,0,1,,,,,,,,,0,,,67,103
748784,note_off,104,0,1,,,,,,,,,0,,,58,0
748800,note_on,16,0,1,,,,,,,,,0,,,63,104
748800,note_off,240,0,3,,,,,,,,,2,,,55,0
748800,note_off,0,0,3,,,,,,,,,2,,,51,0
748800,note_on,0,0,3,,,,,,,,,2,,,55,94
748800,note_on,0,0,3,,,,,,,,,2,,,51,94
748800,note_on,0,0,3,,,,,,,,,2,,,58,94
748904,note_off,104,0,1,,,,,,,,,0,,,67,0
748920,note_on,16,0,1,,,,,,,,,0,,,70,104
749024,note_off,104,0,1,,,,,,,,,0,,,63,0
749040,note_on,16,0,1,,,,,,,,,0,,,67,105
749040,note_on,0,0,3,,,,,,,,,2,,,55,94
749040,note_on,0,0,3,,,,,,,,,2,,,63,94
749040,note_on,0,0,3,,,,,,,,,2,,,51,94
749040,note_off,0,0,3,,,,,,,,,2,,,58,0
749040,note_off,0,0,3,,,,,,,,,2,,,51,0
749040,note_off,240,0,3,,,,,,,,,2,,,55,0
749040,note_on,0,0,3,,,,,,,,,2,,,58,94
749144,note_off,104,0,1,,,,,,,,,0,,,70,0
749160,note_on,16,0,1,,,,,,,,,0,,,75,105
749264,note_off,104,0,1,,,,,,,,,0,,,67,0
749280,note_off,0,0,3,,,,,,,,,2,,,58,0
749280,note_off,0,0,3,,,,,,,,,2,,,51,0
749280,note_on,16,0,1,,,,,,,,,0,,,70,105
749280,note_off,0,0,3,,,,,,,,,2,,,63,0
749280,note_on,0,0,3,,,,,,,,,2,,,55,95
749280,note_on,0,0,3,,,,,,,,,2,,,58,95
749280,note_on,0,0,3,,,,,,,,,2,,,63,95
749280,note_on,0,0,3,,,,,,,,,2,,,51,95
749280,note_off,240,0,3,,,,,,,,,2,,,55,0
749384,note_off,104,0,1,,,,,,,,,0,,,75,0
749400,note_on,16,0,1,,,,,,,,,0,,,79,106
749504,note_off,104,0,1,,,,,,,,,0,,,70,0
749520,note_on,0,0,3,,,,,,,,,2,,,58,95
749520,note_on,0,0,3,,,,,,,,,2,,,55,95
749520,note_on,0,0,3,,,,,,,,,2,,,63,95
749520,note_on,0,0,3,,,,,,,,,2,,,51,95
749520,note_off,0,0,3,,,,,,,,,2,,,51,0
749520,note_off,0,0,3,,,,,,,,,2,,,63,0
749520,note_off,0,0,3,,,,,,,,,2,,,58,0
749520,note_on,16,0,1,,,,,,,,,0,,,75,106
749520,note_off,240,0,3,,,,,,,,,2,,,55,0
749624,note_off,104,0,1,,,,,,,,,0,,,79,0
749640,note_on,16,0,1,,,,,,,,,0,,,82,107
749744,note_off,104,0,1,,,,,,,,,0,,,75,0
749760,note_off,0,0,3,,,,,,,,,2,,,58,0
749760,note_on,0,0,3,,,,,,,,,2,,,55,96
749760,note_on,0,0,3,,,,,,,,,2,,,58,96
749760,note_on,0,0,3,,,,,,,,,2,,,63,96
749760,note_on,0,0,3,,,,,,,,,2,,,51,96
749760,note_off,0,0,3,,,,,,,,,2,,,51,0
749760,note_on,16,0,1,,,,,,,,,0,,,79,107
749760,note_off,0,0,3,,,,,,,,,2,,,63,0
749760,note_off,240,0,3,,,,,,,,,2,,,55,0
749864,note_off,104,0,1,,,,,,,,,0,,,82,0
749880,note_on,16,0,1,,,,,,,,,0,,,87,108
749984,note_off,104,0,1,,,,,,,,,0,,,79,0
750000,note_on,0,0,3,,,,,,,,,2,,,51,96
750000,note_on,0,0,3,,,,,,,,,2,,,58,96
750000,note_on,0,0,3,,,,,,,,,2,,,55,96
750000,note_on,0,0,3,,,,,,,,,2,,,63,96
750000,note_off,0,0,3,,,,,,,,,2,,,51,0
750000,note_off,0,0,3,,,,,,,,,2,,,58,0
750000,note_off,240,0,3,,,,,,,,,2,,,55,0
750000,note_on,16,0,1,,,,,,,,,0,,,82,108
750000,note_off,0,0,3,,,,,,,,,2,,,63,0
750104,note_off,104,0,1,,,,,,,,,0,,,87,0
750120,note_on,16,0,1,,,,,,,,,0,,,91,109
750224,note_off,104,0,1,,,,,,,,,0,,,82,0
750240,note_off,240,0,3,,,,,,,,,2,,,55,0
750240,note_off,0,0,3,,,,,,,,,2,,,58,0
750240,note_off,0,0,3,,,,,,,,,2,,,63,0
750240,note_off,0,0,3,,,,,,,,,2,,,51,0
750240,note_on,0,0,3,,,,,,,,,2,,,63,97
750240,note_on,0,0,3,,,,,,,,,2,,,51,97
750240,note_on,0,0,3,,,,,,,,,2,,,55,97
750240,note_on,0,0,3,,,,,,,,,2,,,58,97
750240,note_on,16,0,1,,,,,,,,,0,,,87,109
750344,note_off,104,0,1,,,,,,,,,0,,,91,0
750360,note_on,16,0,1,,,,,,,,,0,,,94,110
750464,note_off,104,0,1,,,,,,,,,0,,,87,0
750480,note_on,0,0,3,,,,,,,,,2,,,56,97
750480,note_off,0,0,3,,,,,,,,,2,,,58,0
750480,note_off,16,0,1,,,,,,,,,0,,,94,0
750480,note_on,0,0,1,,,,,,,,,0,,,93,110
750480,note_on,0,0,3,,,,,,,,,2,,,62,97
750480,note_on,0,0,3,,,,,,,,,2,,,58,97
750480,note_off,0,0,3,,,,,,,,,2,,,51,0
750480,note_off,0,0,3,,,,,,,,,2,,,63,0
750480,note_off,240,0,3,,,,,,,,,2,,,55,0
750480,note_on,0,0,3,,,,,,,,,2,,,51,97
750480,note_on,0,0,3,,,,,,,,,2,,,53,97
750600,note_off,120,0,1,,,,,,,,,0,,,93,0
750600,note_on,0,0,1,,,,,,,,,0,,,94,111
750720,note_on,0,0,3,,,,,,,,,2,,,62,98
750720,note_off,0,0,3,,,,,,,,,2,,,53,0
750720,note_off,0,0,3,,,,,,,,,2,,,56,0
750720,note_off,0,0,3,,,,,,,,,2,,,58,0
750720,note_off,0,0,3,,,,,,,,,2,,,51,0
750720,note_on,0,0,3,,,,,,,,,2,,,58,98
750720,note_on,0,0,3,,,,,,,,,2,,,51,98
750720,note_off,240,0,3,,,,,,,,,2,,,62,0
750720,note_on,0,0,3,,,,,,,,,2,,,56,98
750720,note_on,0,0,3,,,,,,,,,2,,,53,98
750720,note_on,0,0,1,,,,,,,,,0,,,93,111
750720,note_off,120,0,1,,,,,,,,,0,,,94,0
750840,note_on,0,0,1,,,,,,,,,0,,,94,112
750840,note_off,120,0,1,,,,,,,,,0,,,93,0
750960,note_on,0,0,3,,,,,,,,,2,,,53,98
750960,note_on,0,0,1,,,,,,,,,0,,,93,112
750960,note_off,120,0,1,,,,,,,,,0,,,94,0
750960,note_off,0,0,3,,,,,,,,,2,,,53,0
750960,note_off,240,0,3,,,,,,,,,2,,,56,0
750960,note_off,0,0,3,,,,,,,,,2,,,51,0
750960,note_off,0,0,3,,,,,,,,,2,,,58,0
750960,note_on,0,0,3,,,,,,,,,2,,,58,98
750960,note_on,0,0,3,,,,,,,,,2,,,62,98
750960,note_on,0,0,3,,,,,,,,,2,,,51,98
750960,note_on,0,0,3,,,,,,,,,2,,,56,98
750960,note_off,0,0,3,,,,,,,,,2,,,62,0
751080,note_on,0,0,1,,,,,,,,,0,,,94,113
751080,note_off,120,0,1,,,,,,,,,0,,,93,0
751140,set_tempo,2820,1,0,,,,,,402684,,,,,,,
751200,note_off,0,0,3,,,,,,,,,2,,,56,0
751200,note_on,0,0,3,,,,,,,,,2,,,63,100
751200,note_on,0,0,3,,,,,,,,,2,,,58,100
751200,note_off,240,0,3,,,,,,,,,2,,,53,0
751200,note_off,0,0,3,,,,,,,,,2,,,58,0
751200,note_off,0,0,3,,,,,,,,,2,,,62,0
751200,note_off,0,0,3,,,,,,,,,2,,,51,0
751200,note_on,0,0,3,,,,,,,,,2,,,55,100
751200,note_on,0,0,3,,,,,,,,,2,,,51,100
751200,set_tempo,60,1,0,,,,,,400000,,,,,,,
751200,note_off,120,0,1,,,,,,,,,0,,,94,0
751200,note_on,0,0,1,,,,,,,,,0,,,96,113
751320,note_off,120,0,1,,,,,,,,,0,,,96,0
751320,note_on,0,0,1,,,,,,,,,0,,,94,113
751440,note_on,0,0,3,,,,,,,,,2,,,55,100
751440,note_on,0,0,3,,,,,,,,,2,,,63,100
751440,note_on,0,0,3,,,,,,,,,2,,,51,100
751440,note_off,0,0,3,,,,,,,,,2,,,51,0
751440,note_off,0,0,3,,,,,,,,,2,,,58,0
751440,note_off,0,0,3,,,,,,,,,2,,,63,0
751440,note_off,240,0,3,,,,,,,,,2,,,55,0
751440,note_off,120,0,1,,,,,,,,,0,,,94,0
751440,note_on,0,0,1,,,,,,,,,0,,,92,113
751440,note_on,0,0,3,,,,,,,,,2,,,58,100
751560,note_on,0,0,1,,,,,,,,,0,,,91,112
751560,note_off,120,0,1,,,,,,,,,0,,,92,0
751680,note_on,0,0,3,,,,,,,,,2,,,51,100
751680,note_off,0,0,3,,,,,,,,,2,,,51,0
751680,note_off,0,0,3,,,,,,,,,2,,,63,0
751680,note_off,0,0,3,,,,,,,,,2,,,58,0
751680,note_off,240,0,3,,,,,,,,,2,,,55,0
751680,note_on,0,0,3,,,,,,,,,2,,,55,100
751680,note_on,0,0,3,,,,,,,,,2,,,58,100
751680,note_on,0,0,1,,,,,,,,,0,,,89,112
751680,note_on,0,0,3,,,,,,,,,2,,,63,100
751680,note_off,120,0,1,,,,,,,,,0,,,91,0
751800,note_on,0,0,1,,,,,,,,,0,,,87,112
751800,note_off,120,0,1,,,,,,,,,0,,,89,0
751920,note_on,0,0,3,,,,,,,,,2,,,55,99
751920,note_on,0,0,3,,,,,,,,,2,,,51,99
751920,note_off,240,0,3,,,,,,,,,2,,,55,0
751920,note_off,0,0,3,,,,,,,,,2,,,51,0
751920,note_on,0,0,3,,,,,,,,,2,,,58,99
751920,note_on,0,0,3,,,,,,,,,2,,,63,99
751920,note_off,0,0,3,,,,,,,,,2,,,58,0
751920,note_off,120,0,1,,,,,,,,,0,,,87,0
751920,note_on,0,0,1,,,,,,,,,0,,,86,112
751920,note_off,0,0,3,,,,,,,,,2,,,63,0
752040,note_off,120,0,1,,,,,,,,,0,,,86,0
752040,note_on,0,0,1,,,,,,,,,0,,,84,111
752160,note_on,0,0,3,,,,,,,,,2,,,55,99
752160,note_on,0,0,3,,,,,,,,,2,,,58,99
752160,note_on,0,0,3,,,,,,,,,2,,,63,99
752160,note_on,0,0,3,,,,,,,,,2,,,51,99
752160,note_off,0,0,3,,,,,,,,,2,,,51,0
752160,note_off,0,0,3,,,,,,,,,2,,,63,0
752160,note_off,0,0,3,,,,,,,,,2,,,58,0
752160,note_off,240,0,3,,,,,,,,,2,,,55,0
752160,note_off,120,0,1,,,,,,,,,0,,,84,0
752160,note_on,0,0,1,,,,,,,,,0,,,82,111
752280,note_off,120,0,1,,,,,,,,,0,,,82,0
752280,note_on,0,0,1,,,,,,,,,0,,,80,111
752400,note_off,0,0,3,,,,,,,,,2,,,58,0
752400,note_off,240,0,3,,,,,,,,,2,,,55,0
752400,note_off,120,0,1,,,,,,,,,0,,,80,0
752400,note_on,0,0,3,,,,,,,,,2,,,55,98
752400,note_on,0,0,3,,,,,,,,,2,,,58,98
752400,note_on,0,0,1,,,,,,,,,0,,,79,110
752400,note_on,0,0,3,,,,,,,,,2,,,63,98
752400,note_off,0,0,3,,,,,,,,,2,,,63,0
752400,note_on,0,0,3,,,,,,,,,2,,,51,98
752400,note_off,0,0,3,,,,,,,,,2,,,51,0
752520,note_on,0,0,1,,,,,,,,,0,,,77,110
752520,note_off,120,0,1,,,,,,,,,0,,,79,0
752640,note_on,0,0,1,,,,,,,,,0,,,75,110
752640,note_off,120,0,1,,,,,,,,,0,,,77,0
752640,note_on,0,0,3,,,,,,,,,2,,,55,98
752640,note_on,0,0,3,,,,,,,,,2,,,63,98
752640,note_on,0,0,3,,,,,,,,,2,,,51,98
752640,note_off,0,0,3,,,,,,,,,2,,,63,0
752640,note_off,0,0,3,,,,,,,,,2,,,51,0
752640,note_off,0,0,3,,,,,,,,,2,,,58,0
752640,note_off,240,0,3,,,,,,,,,2,,,55,0
752640,note_on,0,0,3,,,,,,,,,2,,,58,98
752760,note_off,120,0,1,,,,,,,,,0,,,75,0
752760,note_on,0,0,1,,,,,,,,,0,,,74,109
752880,note_on,0,0,3,,,,,,,,,2,,,51,97
752880,note_off,120,0,1,,,,,,,,,0,,,74,0
752880,note_on,0,0,3,,,,,,,,,2,,,55,97
752880,note_on,0,0,3,,,,,,,,,2,,,58,97
752880,note_on,0,0,3,,,,,,,,,2,,,63,97
752880,note_off,0,0,3,,,,,,,,,2,,,51,0
752880,note_on,0,0,1,,,,,,,,,0,,,72,109
752880,note_off,0,0,3,,,,,,,,,2,,,58,0
752880,note_off,240,0,3,,,,,,,,,2,,,55,0
752880,note_off,0,0,3,,,,,,,,,2,,,63,0
753000,note_on,0,0,1,,,,,,,,,0,,,70,109
753000,note_off,120,0,1,,,,,,,,,0,,,72,0
753120,note_off,120,0,1,,,,,,,,,0,,,70,0
753120,note_on,0,0,3,,,,,,,,,2,,,51,97
753120,note_on,0,0,3,,,,,,,,,2,,,63,97
753120,note_on,0,0,3,,,,,,,,,2,,,58,97
753120,note_on,0,0,3,,,,,,,,,2,,,55,97
753120,note_off,0,0,3,,,,,,,,,2,,,58,0
753120,note_off,0,0,3,,,,,,,,,2,,,51,0
753120,note_on,0,0,1,,,,,,,,,0,,,68,108
753120,note_off,240,0,3,,,,,,,,,2,,,55,0
753120,note_off,0,0,3,,,,,,,,,2,,,63,0
753240,note_on,0,0,1,,,,,,,,,0,,,67,108
753240,note_off,120,0,1,,,,,,,,,0,,,68,0
753360,note_off,0,0,3,,,,,,,,,2,,,63,0
753360,note_off,120,0,1,,,,,,,,,0,,,67,0
753360,note_on,0,0,3,,,,,,,,,2,,,51,96
753360,note_off,0,0,3,,,,,,,,,2,,,58,0
753360,note_off,240,0,3,,,,,,,,,2,,,55,0
753360,note_on,0,0,1,,,,,,,,,0,,,65,108
753360,note_off,0,0,3,,,,,,,,,2,,,51,0
753360,note_on,0,0,3,,,,,,,,,2,,,53,96
753360,note_on,0,0,3,,,,,,,,,2,,,58,96
753360,note_on,0,0,3,,,,,,,,,2,,,56,96
753480,note_off,120,0,1,,,,,,,,,0,,,65,0
753480,note_on,0,0,1,,,,,,,,,0,,,63,107
753600,note_on,0,0,1,,,,,,,,,0,,,62,107
753600,note_on,0,0,3,,,,,,,,,2,,,53,96
753600,note_off,240,0,3,,,,,,,,,2,,,56,0
753600,note_off,0,0,3,,,,,,,,,2,,,58,0
753600,note_off,0,0,3,,,,,,,,,2,,,53,0
753600,note_off,0,0,3,,,,,,,,,2,,,51,0
753600,note_on,0,0,3,,,,,,,,,2,,,51,96
753600,note_on,0,0,3,,,,,,,,,2,,,58,96
753600,note_on,0,0,3,,,,,,,,,2,,,56,96
753600,note_off,120,0,1,,,,,,,,,0,,,63,0
753660,note_off,60,0,3,,,,,,,,,2,,,39,0
753720,note_off,120,0,1,,,,,,,,,0,,,62,0
753720,note_on,0,0,1,,,,,,,,,0,,,65,107
753840,note_on,0,0,1,,,,,,,,,0,,,68,106
753840,set_tempo,2640,1,0,,,,,,408163,,,,,,,
753840,note_on,0,0,3,,,,,,,,,2,,,56,95
753840,note_off,120,0,1,,,,,,,,,0,,,65,0
753840,note_on,0,0,3,,,,,,,,,2,,,53,95
753840,note_off,0,0,3,,,,,,,,,2,,,53,0
753840,note_off,0,0,3,,,,,,,,,2,,,58,0
753840,note_off,0,0,3,,,,,,,,,2,,,51,0
753840,note_on,0,0,3,,,,,,,,,2,,,58,95
753840,note_on,0,0,3,,,,,,,,,2,,,51,95
753840,note_off,180,0,3,,,,,,,,,2,,,56,0
753930,set_tempo,90,1,0,,,,,,419580,,,,,,,
753960,note_off,120,0,1,,,,,,,,,0,,,68,0
753960,note_on,0,0,1,,,,,,,,,0,,,62,106
754080,note_on,0,0,1,,,,,,,,,0,,,55,108
754080,note_off,240,0,3,,,,,,,,,2,,,53,0
754080,set_tempo,150,1,0,,,,,,400000,,,,,,,
754080,note_off,0,0,3,,,,,,,,,2,,,56,0
754080,note_off,0,0,3,,,,,,,,,2,,,51,0
754080,note_off,0,0,3,,,,,,,,,2,,,58,0
754080,note_on,0,0,3,,,,,,,,,2,,,39,120
754080,note_off,120,0,1,,,,,,,,,0,,,62,0
754200,note_on,120,0,1,,,,,,,,,0,,,63,108
754320,note_on,120,0,1,,,,,,,,,0,,,58,108
754320,note_on,240,0,3,,,,,,,,,2,,,51,93
754320,note_on,0,0,3,,,,,,,,,2,,,55,93
754416,note_off,96,0,1,,,,,,,,,0,,,55,0
754424,note_off,8,0,1,,,,,,,,,0,,,63,0
754440,note_on,16,0,1,,,,,,,,,0,,,67,109
754544,note_off,104,0,1,,,,,,,,,0,,,58,0
754560,note_on,0,0,3,,,,,,,,,2,,,58,94
754560,note_on,0,0,3,,,,,,,,,2,,,51,94
754560,note_off,0,0,3,,,,,,,,,2,,,51,0
754560,note_off,240,0,3,,,,,,,,,2,,,55,0
754560,note_on,16,0,1,,,,,,,,,0,,,63,109
754560,note_on,0,0,3,,,,,,,,,2,,,55,94
754664,note_off,104,0,1,,,,,,,,,0,,,67,0
754680,note_on,16,0,1,,,,,,,,,0,,,70,110
754784,note_off,104,0,1,,,,,,,,,0,,,63,0
754800,note_off,0,0,3,,,,,,,,,2,,,55,0
754800,note_off,240,0,3,,,,,,,,,2,,,51,0
754800,note_off,0,0,3,,,,,,,,,2,,,58,0
754800,note_on,0,0,3,,,,,,,,,2,,,63,94
754800,note_on,0,0,3,,,,,,,,,2,,,58,94
754800,note_on,0,0,3,,,,,,,,,2,,,51,94
754800,note_on,0,0,3,,,,,,,,,2,,,55,94
754800,note_on,16,0,1,,,,,,,,,0,,,67,110
754904,note_off,104,0,1,,,,,,,,,0,,,70,0
754920,note_on,16,0,1,,,,,,,,,0,,,75,110
755024,note_off,104,0,1,,,,,,,,,0,,,67,0
755040,note_off,240,0,3,,,,,,,,,2,,,55,0
755040,note_off,0,0,3,,,,,,,,,2,,,51,0
755040,note_off,0,0,3,,,,,,,,,2,,,58,0
755040,note_off,0,0,3,,,,,,,,,2,,,63,0
755040,note_on,0,0,3,,,,,,,,,2,,,63,95
755040,note_on,0,0,3,,,,,,,,,2,,,58,95
755040,note_on,0,0,3,,,,,,,,,2,,,51,95
755040,note_on,16,0,1,,,,,,,,,0,,,70,111
755040,note_on,0,0,3,,,,,,,,,2,,,55,95
755144,note_off,104,0,1,,,,,,,,,0,,,75,0
755160,note_on,16,0,1,,,,,,,,,0,,,79,111
755264,note_off,104,0,1,,,,,,,,,0,,,70,0
755280,note_off,240,0,3,,,,,,,,,2,,,51,0
755280,note_off,0,0,3,,,,,,,,,2,,,55,0
755280,note_off,0,0,3,,,,,,,,,2,,,58,0
755280,note_off,0,0,3,,,,,,,,,2,,,63,0
755280,note_on,0,0,3,,,,,,,,,2,,,63,96
755280,note_on,0,0,3,,,,,,,,,2,,,55,96
755280,note_on,0,0,3,,,,,,,,,2,,,51,96
755280,note_on,16,0,1,,,,,,,,,0,,,75,112
755280,note_on,0,0,3,,,,,,,,,2,,,58,96
755384,note_off,104,0,1,,,,,,,,,0,,,79,0
755400,note_on,16,0,1,,,,,,,,,0,,,82,112
755504,note_off,104,0,1,,,,,,,,,0,,,75,0
755520,note_off,240,0,3,,,,,,,,,2,,,51,0
755520,note_off,0,0,3,,,,,,,,,2,,,55,0
755520,note_on,0,0,3,,,,,,,,,2,,,55,96
755520,note_on,0,0,3,,,,,,,,,2,,,58,96
755520,note_on,0,0,3,,,,,,,,,2,,,51,96
755520,note_on,0,0,3,,,,,,,,,2,,,63,96
755520,note_off,0,0,3,,,,,,,,,2,,,63,0
755520,note_off,0,0,3,,,,,,,,,2,,,58,0
755520,note_on,16,0,1,,,,,,,,,0,,,79,112
755624,note_off,104,0,1,,,,,,,,,0,,,82,0
755640,note_on,16,0,1,,,,,,,,,0,,,87,113
755744,note_off,104,0,1,,,,,,,,,0,,,79,0
755760,note_on,16,0,1,,,,,,,,,0,,,82,113
755760,note_off,240,0,3,,,,,,,,,2,,,55,0
755760,note_off,0,0,3,,,,,,,,,2,,,58,0
755760,note_off,0,0,3,,,,,,,,,2,,,51,0
755760,note_off,0,0,3,,,,,,,,,2,,,63,0
755760,note_on,0,0,3,,,,,,,,,2,,,51,97
755760,note_on,0,0,3,,,,,,,,,2,,,63,97
755760,note_on,0,0,3,,,,,,,,,2,,,58,97
755760,note_on,0,0,3,,,,,,,,,2,,,55,97
755864,note_off,104,0,1,,,,,,,,,0,,,87,0
755880,note_on,16,0,1,,,,,,,,,0,,,91,114
755984,note_off,104,0,1,,,,,,,,,0,,,82,0
756000,note_on,16,0,1,,,,,,,,,0,,,87,114
756000,note_off,240,0,3,,,,,,,,,2,,,55,0
756000,note_off,0,0,3,,,,,,,,,2,,,58,0
756000,note_on,0,0,3,,,,,,,,,2,,,55,98
756000,note_off,0,0,3,,,,,,,,,2,,,51,0
756000,note_on,0,0,3,,,,,,,,,2,,,58,98
756000,note_on,0,0,3,,,,,,,,,2,,,51,98
756000,note_off,0,0,3,,,,,,,,,2,,,63,0
756000,note_on,0,0,3,,,,,,,,,2,,,63,98
756104,note_off,104,0,1,,,,,,,,,0,,,91,0
756120,note_on,16,0,1,,,,,,,,,0,,,94,114
756224,note_off,104,0,1,,,,,,,,,0,,,87,0
756240,note_on,0,0,3,,,,,,,,,2,,,51,98
756240,note_on,0,0,1,,,,,,,,,0,,,93,115
756240,note_off,16,0,1,,,,,,,,,0,,,94,0
756240,note_off,0,0,3,,,,,,,,,2,,,63,0
756240,note_off,0,0,3,,,,,,,,,2,,,51,0
756240,note_off,0,0,3,,,,,,,,,2,,,58,0
756240,note_on,0,0,3,,,,,,,,,2,,,58,98
756240,note_off,240,0,3,,,,,,,,,2,,,55,0
756240,note_on,0,0,3,,,,,,,,,2,,,61,98
756240,note_on,0,0,3,,,,,,,,,2,,,55,98
756360,note_on,0,0,1,,,,,,,,,0,,,94,115
756360,note_off,120,0,1,,,,,,,,,0,,,93,0
756480,note_on,0,0,1,,,,,,,,,0,,,93,116
756480,note_off,120,0,1,,,,,,,,,0,,,94,0
756480,note_on,0,0,3,,,,,,,,,2,,,51,99
756480,note_on,0,0,3,,,,,,,,,2,,,61,99
756480,note_off,0,0,3,,,,,,,,,2,,,58,0
756480,note_off,0,0,3,,,,,,,,,2,,,61,0
756480,note_on,0,0,3,,,,,,,,,2,,,55,99
756480,note_on,0,0,3,,,,,,,,,2,,,58,99
756480,note_off,240,0,3,,,,,,,,,2,,,55,0
756480,note_off,0,0,3,,,,,,,,,2,,,51,0
756600,note_on,0,0,1,,,,,,,,,0,,,94,116
756600,note_off,120,0,1,,,,,,,,,0,,,93,0
756720,note_on,0,0,3,,,,,,,,,2,,,55,100
756720,note_on,0,0,3,,,,,,,,,2,,,58,100
756720,note_off,120,0,1,,,,,,,,,0,,,94,0
756720,note_on,0,0,3,,,,,,,,,2,,,61,100
756720,note_off,240,0,3,,,,,,,,,2,,,55,0
756720,note_off,0,0,3,,,,,,,,,2,,,58,0
756720,note_off,0,0,3,,,,,,,,,2,,,61,0
756720,note_off,0,0,3,,,,,,,,,2,,,51,0
756720,note_on,0,0,3,,,,,,,,,2,,,51,100
756720,note_on,0,0,1,,,,,,,,,0,,,93,116
756840,note_off,120,0,1,,,,,,,,,0,,,93,0
756840,note_on,0,0,1,,,,,,,,,0,,,94,117
756900,set_tempo,2820,1,0,,,,,,402684,,,,,,,
756960,note_off,0,0,3,,,,,,,,,2,,,51,0
756960,note_on,0,0,3,,,,,,,,,2,,,51,100
756960,note_on,0,0,3,,,,,,,,,2,,,61,100
756960,note_on,0,0,3,,,,,,,,,2,,,58,100
756960,note_on,0,0,3,,,,,,,,,2,,,55,100
756960,set_tempo,60,1,0,,,,,,400000,,,,,,,
756960,note_off,0,0,3,,,,,,,,,2,,,61,0
756960,note_off,240,0,3,,,,,,,,,2,,,55,0
756960,note_on,0,0,1,,,,,,,,,0,,,96,117
756960,note_off,120,0,1,,,,,,,,,0,,,94,0
756960,note_off,0,0,3,,,,,,,,,2,,,58,0
757080,note_on,0,0,1,,,,,,,,,0,,,94,117
757080,note_off,120,0,1,,,,,,,,,0,,,96,0
757200,note_on,0,0,3,,,,,,,,,2,,,61,100
757200,note_on,0,0,3,,,,,,,,,2,,,58,100
757200,note_on,0,0,3,,,,,,,,,2,,,55,100
757200,note_off,0,0,3,,,,,,,,,2,,,51,0
757200,note_off,0,0,3,,,,,,,,,2,,,61,0
757200,note_off,240,0,3,,,,,,,,,2,,,55,0
757200,note_on,0,0,3,,,,,,,,,2,,,51,100
757200,note_off,0,0,3,,,,,,,,,2,,,58,0
757200,note_off,120,0,1,,,,,,,,,0,,,94,0
757200,note_on,0,0,1,,,,,,,,,0,,,92,117
757320,note_off,120,0,1,,,,,,,,,0,,,92,0
757320,note_on,0,0,1,,,,,,,,,0,,,91,116
757440,note_on,0,0,3,,,,,,,,,2,,,61,100
757440,note_off,0,0,3,,,,,,,,,2,,,61,0
757440,note_off,0,0,3,,,,,,,,,2,,,58,0
757440,note_off,0,0,3,,,,,,,,,2,,,55,0
757440,note_on,0,0,3,,,,,,,,,2,,,51,100
757440,note_on,0,0,3,,,,,,,,,2,,,55,100
757440,note_on,0,0,1,,,,,,,,,0,,,89,116
757440,note_off,240,0,3,,,,,,,,,2,,,51,0
757440,note_off,120,0,1,,,,,,,,,0,,,91,0
757440,note_on,0,0,3,,,,,,,,,2,,,58,100
757560,note_off,120,0,1,,,,,,,,,0,,,89,0
757560,note_on,0,0,1,,,,,,,,,0,,,87,116
757680,note_off,120,0,1,,,,,,,,,0,,,87,0
757680,note_off,240,0,3,,,,,,,,,2,,,61,0
757680,note_off,0,0,3,,,,,,,,,2,,,55,0
757680,note_on,0,0,1,,,,,,,,,0,,,86,115
757680,note_off,0,0,3,,,,,,,,,2,,,51,0
757680,note_on,0,0,3,,,,,,,,,2,,,61,99
757680,note_on,0,0,3,,,,,,,,,2,,,51,99
757680,note_on,0,0,3,,,,,,,,,2,,,58,99
757680,note_on,0,0,3,,,,,,,,,2,,,55,99
757680,note_off,0,0,3,,,,,,,,,2,,,58,0
757800,note_on,0,0,1,,,,,,,,,0,,,84,115
757800,note_off,120,0,1,,,,,,,,,0,,,86,0
757920,note_off,240,0,3,,,,,,,,,2,,,55,0
757920,note_off,0,0,3,,,,,,,,,2,,,58,0
757920,note_off,0,0,3,,,,,,,,,2,,,51,0
757920,note_off,0,0,3,,,,,,,,,2,,,61,0
757920,note_on,0,0,3,,,,,,,,,2,,,61,99
757920,note_on,0,0,3,,,,,,,,,2,,,55,99
757920,note_on,0,0,3,,,,,,,,,2,,,58,99
757920,note_on,0,0,1,,,,,,,,,0,,,82,115
757920,note_on,0,0,3,,,,,,,,,2,,,51,99
757920,note_off,120,0,1,,,,,,,,,0,,,84,0
758040,note_on,0,0,1,,,,,,,,,0,,,80,114
758040,note_off,120,0,1,,,,,,,,,0,,,82,0
758160,note_on,0,0,3,,,,,,,,,2,,,55,98
758160,note_on,0,0,1,,,,,,,,,0,,,79,114
758160,note_off,120,0,1,,,,,,,,,0,,,80,0
758160,note_off,0,0,3,,,,,,,,,2,,,58,0
758160,note_on,0,0,3,,,,,,,,,2,,,61,98
758160,note_on,0,0,3,,,,,,,,,2,,,51,98
758160,note_off,0,0,3,,,,,,,,,2,,,51,0
758160,note_off,240,0,3,,,,,,,,,2,,,55,0
758160,note_on,0,0,3,,,,,,,,,2,,,58,98
758160,note_off,0,0,3,,,,,,,,,2,,,61,0
758280,note_off,120,0,1,,,,,,,,,0,,,79,0
758280,note_on,0,0,1,,,,,,,,,0,,,77,114
758400,note_on,0,0,3,,,,,,,,,2,,,55,98
758400,note_off,240,0,3,,,,,,,,,2,,,55,0
758400,note_off,0,0,3,,,,,,,,,2,,,58,0
758400,note_off,0,0,3,,,,,,,,,2,,,61,0
758400,note_off,0,0,3,,,,,,,,,2,,,51,0
758400,note_on,0,0,3,,,,,,,,,2,,,58,98
758400,note_on,0,0,3,,,,,,,,,2,,,61,98
758400,note_off,120,0,1,,,,,,,,,0,,,77,0
758400,note_on,0,0,1,,,,,,,,,0,,,75,113
758400,note_on,0,0,3,,,,,,,,,2,,,51,98
758520,note_off,120,0,1,,,,,,,,,0,,,75,0
758520,note_on,0,0,1,,,,,,,,,0,,,74,113
758640,note_off,0,0,3,,,,,,,,,2,,,55,0
758640,note_off,0,0,3,,,,,,,,,2,,,58,0
758640,note_off,0,0,3,,,,,,,,,2,,,61,0
758640,note_on,0,0,1,,,,,,,,,0,,,72,113
758640,note_on,0,0,3,,,,,,,,,2,,,61,97
758640,note_on,0,0,3,,,,,,,,,2,,,55,97
758640,note_on,0,0,3,,,,,,,,,2,,,58,97
758640,note_off,120,0,1,,,,,,,,,0,,,74,0
758640,note_off,240,0,3,,,,,,,,,2,,,51,0
758760,note_off,120,0,1,,,,,,,,,0,,,72,0
758760,note_on,0,0,1,,,,,,,,,0,,,70,112
758880,note_on,0,0,3,,,,,,,,,2,,,60,97
758880,note_on,0,0,3,,,,,,,,,2,,,56,97
758880,note_off,0,0,3,,,,,,,,,2,,,61,0
758880,note_off,0,0,3,,,,,,,,,2,,,55,0
758880,note_off,240,0,3,,,,,,,,,2,,,58,0
758880,note_on,0,0,3,,,,,,,,,2,,,51,97
758880,note_on,0,0,1,,,,,,,,,0,,,68,112
758880,note_off,120,0,1,,,,,,,,,0,,,70,0
759000,note_off,120,0,1,,,,,,,,,0,,,68,0
759000,note_on,0,0,1,,,,,,,,,0,,,67,112
759120,note_off,120,0,1,,,,,,,,,0,,,67,0
759120,note_off,240,0,3,,,,,,,,,2,,,56,0
759120,note_off,0,0,3,,,,,,,,,2,,,60,0
759120,note_off,0,0,3,,,,,,,,,2,,,51,0
759120,note_on,0,0,3,,,,,,,,,2,,,51,96
759120,note_on,0,0,3,,,,,,,,,2,,,56,96
759120,note_on,0,0,3,,,,,,,,,2,,,59,96
759120,note_on,0,0,3,,,,,,,,,2,,,53,96
759120,note_on,0,0,1,,,,,,,,,0,,,65,111
759240,note_off,120,0,1,,,,,,,,,0,,,65,0
759240,note_on,0,0,1,,,,,,,,,0,,,63,111
759360,note_on,0,0,3,,,,,,,,,2,,,59,96
759360,note_on,0,0,3,,,,,,,,,2,,,56,96
759360,note_on,0,0,3,,,,,,,,,2,,,53,96
759360,note_on,0,0,3,,,,,,,,,2,,,51,96
759360,note_off,0,0,3,,,,,,,,,2,,,59,0
759360,note_off,0,0,3,,,,,,,,,2,,,51,0
759360,note_off,0,0,3,,,,,,,,,2,,,56,0
759360,note_on,0,0,1,,,,,,,,,0,,,62,111
759360,note_off,120,0,1,,,,,,,,,0,,,63,0
759360,note_off,240,0,3,,,,,,,,,2,,,53,0
759420,note_off,60,0,3,,,,,,,,,2,,,39,0
759480,note_off,120,0,1,,,,,,,,,0,,,62,0
759480,note_on,0,0,1,,,,,,,,,0,,,65,110
759600,note_off,0,0,3,,,,,,,,,2,,,56,0
759600,note_on,0,0,3,,,,,,,,,2,,,51,96
759600,note_on,0,0,3,,,,,,,,,2,,,56,96
759600,note_off,120,0,1,,,,,,,,,0,,,65,0
759600,note_off,0,0,3,,,,,,,,,2,,,51,0
759600,note_off,0,0,3,,,,,,,,,2,,,53,0
759600,note_off,180,0,3,,,,,,,,,2,,,59,0
759600,note_on,0,0,1,,,,,,,,,0,,,68,110
759600,note_on,0,0,3,,,,,,,,,2,,,53,96
759600,note_on,0,0,3,,,,,,,,,2,,,58,96
759660,set_tempo,2700,1,0,,,,,,428571,,,,,,,
759720,note_off,120,0,1,,,,,,,,,0,,,68,0
759720,note_on,0,0,1,,,,,,,,,0,,,62,110
759780,set_tempo,120,1,0,,,,,,447761,,,,,,,
759840,control_change,120,0,1,,,,,,,64,0,0,,,,
759840,note_off,0,0,1,,,,,,,,,0,,,62,0
759840,note_on,0,0,1,,,,,,,,,0,,,63,120
759840,note_on,0,0,3,,,,,,,,,2,,,51,120
759840,note_on,0,0,3,,,,,,,,,2,,,39,120
759840,note_off,0,0,3,,,,,,,,,2,,,53,0
759840,note_off,0,0,3,,,,,,,,,2,,,58,0
759840,set_tempo,60,1,0,,,,,,454545,,,,,,,
759840,note_off,0,0,3,,,,,,,,,2,,,51,0
759840,note_off,0,0,3,,,,,,,,,2,,,56,0
759840,control_change,240,0,3,,,,,,,64,0,2,,,,
759900,control_change,60,0,1,,,,,,,64,127,0,,,,
759900,control_change,60,0,3,,,,,,,64,127,2,,,,
760320,set_tempo,480,1,0,,,,,,419580,,,,,,,
760560,note_off,660,0,3,,,,,,,,,2,,,51,0
760560,note_off,660,0,1,,,,,,,,,0,,,63,0
760560,note_on,0,0,3,,,,,,,,,2,,,63,113
760560,note_off,0,0,3,,,,,,,,,2,,,39,0
760560,note_on,0,0,1,,,,,,,,,0,,,75,112
761280,note_off,720,0,3,,,,,,,,,2,,,63,0
761280,note_on,0,0,3,,,,,,,,,2,,,66,112
761280,note_on,0,0,1,,,,,,,,,0,,,78,111
761280,note_off,720,0,1,,,,,,,,,0,,,75,0
762000,note_off,720,0,1,,,,,,,,,0,,,78,0
762000,note_on,0,0,1,,,,,,,,,0,,,83,110
762000,note_on,0,0,3,,,,,,,,,2,,,71,111
762000,note_off,720,0,3,,,,,,,,,2,,,66,0
762720,note_off,720,0,3,,,,,,,,,2,,,71,0
762720,note_off,720,0,1,,,,,,,,,0,,,83,0
762720,note_on,0,0,1,,,,,,,,,0,,,78,109
762720,note_on,0,0,3,,,,,,,,,2,,,66,110
763440,note_off,720,0,1,,,,,,,,,0,,,78,0
763440,note_off,720,0,3,,,,,,,,,2,,,66,0
763440,note_on,0,0,3,,,,,,,,,2,,,63,109
763440,note_on,0,0,1,,,,,,,,,0,,,75,107
764160,note_off,720,0,3,,,,,,,,,2,,,63,0
764160,note_on,0,0,3,,,,,,,,,2,,,59,108
764160,note_off,720,0,1,,,,,,,,,0,,,75,0
764160,note_on,0,0,1,,,,,,,,,0,,,71,106
764880,note_off,720,0,3,,,,,,,,,2,,,59,0
764880,note_on,0,0,3,,,,,,,,,2,,,54,107
764880,note_off,720,0,1,,,,,,,,,0,,,71,0
764880,note_on,0,0,1,,,,,,,,,0,,,66,105
765120,set_tempo,4800,1,0,,,,,,447761,,,,,,,
765540,control_change,660,0,1,,,,,,,64,0,0,,,,
765540,control_change,660,0,3,,,,,,,64,0,2,,,,
765600,control_change,60,0,1,,,,,,,64,127,0,,,,
765600,note_on,0,0,1,,,,,,,,,0,,,62,121
765600,control_change,60,0,3,,,,,,,64,127,2,,,,
765600,note_off,0,0,3,,,,,,,,,2,,,54,0
765600,note_on,0,0,3,,,,,,,,,2,,,38,120
765600,note_on,0,0,3,,,,,,,,,2,,,50,120
765600,note_off,0,0,1,,,,,,,,,0,,,66,0
766080,set_tempo,960,1,0,,,,,,419580,,,,,,,
766320,note_on,0,0,3,,,,,,,,,2,,,62,115
766320,note_off,0,0,3,,,,,,,,,2,,,38,0
766320,note_on,0,0,1,,,,,,,,,0,,,74,113
766320,note_off,720,0,1,,,,,,,,,0,,,62,0
766320,note_off,720,0,3,,,,,,,,,2,,,50,0
767040,note_on,0,0,3,,,,,,,,,2,,,65,113
767040,note_on,0,0,1,,,,,,,,,0,,,77,111
767040,note_off,720,0,1,,,,,,,,,0,,,74,0
767040,note_off,720,0,3,,,,,,,,,2,,,62,0
767760,note_off,720,0,3,,,,,,,,,2,,,65,0
767760,note_on,0,0,3,,,,,,,,,2,,,70,110
767760,note_off,720,0,1,,,,,,,,,0,,,77,0
767760,note_on,0,0,1,,,,,,,,,0,,,82,109
768480,note_off,720,0,1,,,,,,,,,0,,,82,0
768480,note_on,0,0,1,,,,,,,,,0,,,77,108
768480,note_off,720,0,3,,,,,,,,,2,,,70,0
768480,note_on,0,0,3,,,,,,,,,2,,,65,108
769200,note_on,0,0,3,,,,,,,,,2,,,62,105
769200,note_off,720,0,3,,,,,,,,,2,,,65,0
769200,note_on,0,0,1,,,,,,,,,0,,,74,106
769200,note_off,720,0,1,,,,,,,,,0,,,77,0
769920,note_on,0,0,1,,,,,,,,,0,,,70,104
769920,note_on,0,0,3,,,,,,,,,2,,,58,103
769920,note_off,720,0,1,,,,,,,,,0,,,74,0
769920,note_off,720,0,3,,,,,,,,,2,,,62,0
770640,note_off,720,0,3,,,,,,,,,2,,,58,0
770640,note_on,0,0,3,,,,,,,,,2,,,53,100
770640,note_off,720,0,1,,,,,,,,,0,,,70,0
770640,note_on,0,0,1,,,,,,,,,0,,,65,102
770895,set_tempo,4815,1,0,,,,,,447761,,,,,,,
771300,control_change,660,0,3,,,,,,,64,0,2,,,,
771300,control_change,660,0,1,,,,,,,64,0,0,,,,
771360,note_on,0,0,3,,,,,,,,,2,,,63,50
771360,note_on,0,0,3,,,,,,,,,2,,,66,50
771360,note_off,60,0,1,,,,,,,,,0,,,65,0
771360,note_on,0,0,1,,,,,,,,,0,,,78,64
771360,set_tempo,465,1,0,,,,,,400000,,,,,,,
771360,note_on,0,0,3,,,,,,,,,2,,,71,50
771360,note_off,60,0,3,,,,,,,,,2,,,53,0
771600,note_off,240,0,1,,,,,,,,,0,,,78,0
771600,note_on,0,0,3,,,,,,,,,2,,,71,51
771600,note_on,0,0,3,,,,,,,,,2,,,66,51
771600,note_on,0,0,3,,,,,,,,,2,,,63,51
771600,note_off,240,0,3,,,,,,,,,2,,,71,0
771600,note_off,0,0,3,,,,,,,,,2,,,63,0
771600,note_off,0,0,3,,,,,,,,,2,,,66,0
771780,note_on,180,0,1,,,,,,,,,0,,,89,65
771840,note_on,0,0,3,,,,,,,,,2,,,71,51
771840,note_on,0,0,3,,,,,,,,,2,,,66,51
771840,note_on,0,0,3,,,,,,,,,2,,,63,51
771840,note_off,0,0,3,,,,,,,,,2,,,63,0
771840,note_off,0,0,3,,,,,,,,,2,,,66,0
771840,note_off,240,0,3,,,,,,,,,2,,,71,0
771840,note_on,0,0,1,,,,,,,,,0,,,87,66
771840,note_off,60,0,1,,,,,,,,,0,,,89,0
771960,note_on,0,0,1,,,,,,,,,0,,,86,66
771960,note_off,120,0,1,,,,,,,,,0,,,87,0
772080,note_off,0,0,3,,,,,,,,,2,,,66,0
772080,note_on,0,0,3,,,,,,,,,2,,,71,52
772080,note_off,0,0,3,,,,,,,,,2,,,63,0
772080,note_off,240,0,3,,,,,,,,,2,,,71,0
772080,note_on,0,0,3,,,,,,,,,2,,,63,52
772080,note_on,0,0,1,,,,,,,,,0,,,87,66
772080,note_on,0,0,3,,,,,,,,,2,,,66,52
772080,note_off,120,0,1,,,,,,,,,0,,,86,0
772200,note_off,120,0,1,,,,,,,,,0,,,87,0
772320,note_on,0,0,3,,,,,,,,,2,,,71,52
772320,note_on,0,0,3,,,,,,,,,2,,,66,52
772320,note_on,0,0,3,,,,,,,,,2,,,63,52
772320,note_off,0,0,3,,,,,,,,,2,,,63,0
772320,note_off,0,0,3,,,,,,,,,2,,,66,0
772320,note_off,240,0,3,,,,,,,,,2,,,71,0
772500,note_on,300,0,1,,,,,,,,,0,,,92,68
772560,note_on,0,0,3,,,,,,,,,2,,,71,53
772560,note_off,0,0,3,,,,,,,,,2,,,66,0
772560,note_off,0,0,3,,,,,,,,,2,,,63,0
772560,note_on,0,0,3,,,,,,,,,2,,,66,53
772560,note_on,0,0,3,,,,,,,,,2,,,63,53
772560,note_on,0,0,1,,,,,,,,,0,,,90,68
772560,note_off,60,0,1,,,,,,,,,0,,,92,0
772560,note_off,240,0,3,,,,,,,,,2,,,71,0
772680,note_off,120,0,1,,,,,,,,,0,,,90,0
772680,note_on,0,0,1,,,,,,,,,0,,,89,68
772800,note_on,0,0,3,,,,,,,,,2,,,63,53
772800,note_on,0,0,3,,,,,,,,,2,,,71,53
772800,note_off,0,0,3,,,,,,,,,2,,,66,0
772800,note_off,0,0,3,,,,,,,,,2,,,63,0
772800,note_off,240,0,3,,,,,,,,,2,,,71,0
772800,note_off,120,0,1,,,,,,,,,0,,,89,0
772800,note_on,0,0,1,,,,,,,,,0,,,90,68
772800,note_on,0,0,3,,,,,,,,,2,,,66,53
772920,note_off,120,0,1,,,,,,,,,0,,,90,0
773040,note_off,240,0,3,,,,,,,,,2,,,71,0
773040,note_off,0,0,3,,,,,,,,,2,,,66,0
773040,note_on,0,0,3,,,,,,,,,2,,,63,54
773040,note_on,0,0,3,,,,,,,,,2,,,66,54
773040,note_on,0,0,3,,,,,,,,,2,,,71,54
773040,note_off,0,0,3,,,,,,,,,2,,,63,0
773220,note_on,300,0,1,,,,,,,,,0,,,96,70
773280,note_on,0,0,3,,,,,,,,,2,,,63,55
773280,note_off,0,0,3,,,,,,,,,2,,,66,0
773280,note_off,0,0,3,,,,,,,,,2,,,63,0
773280,note_on,0,0,1,,,,,,,,,0,,,95,70
773280,note_on,0,0,3,,,,,,,,,2,,,66,55
773280,note_on,0,0,3,,,,,,,,,2,,,71,55
773280,note_off,60,0,1,,,,,,,,,0,,,96,0
773280,note_off,240,0,3,,,,,,,,,2,,,71,0
773400,note_off,120,0,1,,,,,,,,,0,,,95,0
773400,note_on,0,0,1,,,,,,,,,0,,,94,70
773520,note_on,0,0,3,,,,,,,,,2,,,63,55
773520,note_on,0,0,3,,,,,,,,,2,,,66,55
773520,note_on,0,0,3,,,,,,,,,2,,,71,55
773520,note_on,0,0,1,,,,,,,,,0,,,95,70
773520,note_off,0,0,3,,,,,,,,,2,,,63,0
773520,note_off,120,0,1,,,,,,,,,0,,,94,0
773520,note_off,240,0,3,,,,,,,,,2,,,71,0
773520,note_off,0,0,3,,,,,,,,,2,,,66,0
773640,note_off,120,0,1,,,,,,,,,0,,,95,0
773760,note_on,0,0,3,,,,,,,,,2,,,71,56
773760,note_on,0,0,3,,,,,,,,,2,,,66,56
773760,note_on,0,0,3,,,,,,,,,2,,,63,56
773760,note_off,0,0,3,,,,,,,,,2,,,63,0
773760,note_off,0,0,3,,,,,,,,,2,,,66,0
773760,note_off,240,0,3,,,,,,,,,2,,,71,0
773940,note_on,300,0,1,,,,,,,,,0,,,92,73
774000,note_off,60,0,1,,,,,,,,,0,,,92,0
774000,note_on,0,0,3,,,,,,,,,2,,,66,56
774000,note_on,0,0,3,,,,,,,,,2,,,71,56
774000,note_on,0,0,3,,,,,,,,,2,,,63,56
774000,note_off,0,0,3,,,,,,,,,2,,,63,0
774000,note_off,0,0,3,,,,,,,,,2,,,66,0
774000,note_on,0,0,1,,,,,,,,,0,,,90,73
774000,note_off,240,0,3,,,,,,,,,2,,,71,0
774120,note_off,120,0,1,,,,,,,,,0,,,90,0
774120,note_on,0,0,1,,,,,,,,,0,,,89,72
774240,note_off,0,0,3,,,,,,,,,2,,,63,0
774240,note_on,0,0,1,,,,,,,,,0,,,90,72
774240,note_on,0,0,3,,,,,,,,,2,,,66,57
774240,note_on,0,0,3,,,,,,,,,2,,,63,57
774240,note_off,0,0,3,,,,,,,,,2,,,66,0
774240,note_off,240,0,3,,,,,,,,,2,,,71,0
774240,note_off,120,0,1,,,,,,,,,0,,,89,0
774240,note_on,0,0,3,,,,,,,,,2,,,71,57
774360,note_off,120,0,1,,,,,,,,,0,,,90,0
774480,note_off,0,0,3,,,,,,,,,2,,,66,0
774480,note_off,0,0,3,,,,,,,,,2,,,63,0
774480,note_on,0,0,3,,,,,,,,,2,,,63,57
774480,note_on,0,0,3,,,,,,,,,2,,,66,57
774480,note_on,0,0,3,,,,,,,,,2,,,71,57
774480,note_off,240,0,3,,,,,,,,,2,,,71,0
774660,note_on,300,0,1,,,,,,,,,0,,,89,71
774720,note_on,0,0,3,,,,,,,,,2,,,66,56
774720,note_on,0,0,3,,,,,,,,,2,,,71,56
774720,note_off,0,0,3,,,,,,,,,2,,,66,0
774720,note_off,240,0,3,,,,,,,,,2,,,71,0
774720,note_on,0,0,1,,,,,,,,,0,,,87,71
774720,note_off,60,0,1,,,,,,,,,0,,,89,0
774720,note_on,0,0,3,,,,,,,,,2,,,63,56
774720,note_off,0,0,3,,,,,,,,,2,,,63,0
774840,note_on,0,0,1,,,,,,,,,0,,,86,70
774840,note_off,120,0,1,,,,,,,,,0,,,87,0
774960,note_off,240,0,3,,,,,,,,,2,,,71,0
774960,note_off,0,0,3,,,,,,,,,2,,,66,0
774960,note_off,0,0,3,,,,,,,,,2,,,63,0
774960,note_on,0,0,3,,,,,,,,,2,,,66,55
774960,note_on,0,0,3,,,,,,,,,2,,,71,55
774960,note_on,0,0,1,,,,,,,,,0,,,87,70
774960,note_off,120,0,1,,,,,,,,,0,,,86,0
774960,note_on,0,0,3,,,,,,,,,2,,,63,55
775080,note_off,120,0,1,,,,,,,,,0,,,87,0
775200,note_off,0,0,3,,,,,,,,,2,,,63,0
775200,note_off,0,0,3,,,,,,,,,2,,,66,0
775200,note_on,0,0,3,,,,,,,,,2,,,63,55
775200,note_on,0,0,3,,,,,,,,,2,,,66,55
775200,note_on,0,0,3,,,,,,,,,2,,,71,55
775200,note_off,240,0,3,,,,,,,,,2,,,71,0
775380,note_on,300,0,1,,,,,,,,,0,,,85,69
775440,note_off,240,0,3,,,,,,,,,2,,,71,0
775440,note_off,0,0,3,,,,,,,,,2,,,63,0
775440,note_on,0,0,3,,,,,,,,,2,,,63,54
775440,note_on,0,0,3,,,,,,,,,2,,,66,54
775440,note_on,0,0,3,,,,,,,,,2,,,71,54
775440,note_off,0,0,3,,,,,,,,,2,,,66,0
775440,note_on,0,0,1,,,,,,,,,0,,,83,69
775440,note_off,60,0,1,,,,,,,,,0,,,85,0
775560,note_on,0,0,1,,,,,,,,,0,,,82,68
775560,note_off,120,0,1,,,,,,,,,0,,,83,0
775680,note_on,0,0,3,,,,,,,,,2,,,71,54
775680,note_on,0,0,1,,,,,,,,,0,,,83,68
775680,note_off,120,0,1,,,,,,,,,0,,,82,0
775680,note_off,240,0,3,,,,,,,,,2,,,71,0
775680,note_off,0,0,3,,,,,,,,,2,,,66,0
775680,note_off,0,0,3,,,,,,,,,2,,,63,0
775680,note_on,0,0,3,,,,,,,,,2,,,63,54
775680,note_on,0,0,3,,,,,,,,,2,,,66,54
775800,note_off,120,0,1,,,,,,,,,0,,,83,0
775920,note_off,240,0,3,,,,,,,,,2,,,71,0
775920,note_off,0,0,3,,,,,,,,,2,,,66,0
775920,note_on,0,0,3,,,,,,,,,2,,,71,53
775920,note_on,0,0,3,,,,,,,,,2,,,66,53
775920,note_on,0,0,3,,,,,,,,,2,,,63,53
775920,note_off,0,0,3,,,,,,,,,2,,,63,0
776100,note_on,300,0,1,,,,,,,,,0,,,80,67
776160,note_off,0,0,3,,,,,,,,,2,,,63,0
776160,note_on,0,0,3,,,,,,,,,2,,,66,52
776160,note_on,0,0,3,,,,,,,,,2,,,63,52
776160,note_on,0,0,3,,,,,,,,,2,,,71,52
776160,note_off,240,0,3,,,,,,,,,2,,,71,0
776160,note_on,0,0,1,,,,,,,,,0,,,78,67
776160,note_off,60,0,1,,,,,,,,,0,,,80,0
776160,note_off,0,0,3,,,,,,,,,2,,,66,0
776280,note_on,0,0,1,,,,,,,,,0,,,77,66
776280,note_off,120,0,1,,,,,,,,,0,,,78,0
776400,note_off,0,0,3,,,,,,,,,2,,,63,0
776400,note_on,0,0,3,,,,,,,,,2,,,63,52
776400,note_on,0,0,3,,,,,,,,,2,,,66,52
776400,note_off,0,0,3,,,,,,,,,2,,,66,0
776400,note_off,120,0,1,,,,,,,,,0,,,77,0
776400,note_on,0,0,3,,,,,,,,,2,,,71,52
776400,note_on,0,0,1,,,,,,,,,0,,,78,66
776400,note_off,240,0,3,,,,,,,,,2,,,71,0
776640,note_off,240,0,3,,,,,,,,,2,,,71,0
776640,note_on,0,0,3,,,,,,,,,2,,,66,51
776640,note_on,0,0,3,,,,,,,,,2,,,71,51
776640,note_on,0,0,3,,,,,,,,,2,,,63,51
776640,note_off,0,0,3,,,,,,,,,2,,,66,0
776640,note_off,0,0,3,,,,,,,,,2,,,63,0
776880,note_off,480,0,1,,,,,,,,,0,,,78,0
776880,note_off,240,0,3,,,,,,,,,2,,,63,0
776880,note_off,0,0,3,,,,,,,,,2,,,71,0
776880,note_off,0,0,3,,,,,,,,,2,,,66,0
776880,note_on,0,0,3,,,,,,,,,2,,,63,51
776880,note_on,0,0,3,,,,,,,,,2,,,66,51
776880,note_on,0,0,3,,,,,,,,,2,,,69,51
777060,set_tempo,5700,1,0,,,,,,408163,,,,,,,
777120,note_on,240,0,1,,,,,,,,,0,,,77,64
777120,note_off,240,0,3,,,,,,,,,2,,,69,0
777120,note_off,0,0,3,,,,,,,,,2,,,63,0
777120,note_on,0,0,3,,,,,,,,,2,,,62,50
777120,note_on,0,0,3,,,,,,,,,2,,,65,50
777120,set_tempo,60,1,0,,,,,,400000,,,,,,,
777120,note_off,0,0,3,,,,,,,,,2,,,66,0
777120,note_on,0,0,3,,,,,,,,,2,,,70,50
777360,note_on,0,0,3,,,,,,,,,2,,,70,50
777360,note_on,0,0,3,,,,,,,,,2,,,65,50
777360,note_off,240,0,3,,,,,,,,,2,,,65,0
777360,note_off,0,0,3,,,,,,,,,2,,,62,0
777360,note_on,0,0,3,,,,,,,,,2,,,62,50
777360,note_off,0,0,3,,,,,,,,,2,,,70,0
777360,note_off,240,0,1,,,,,,,,,0,,,77,0
777540,note_on,180,0,1,,,,,,,,,0,,,87,63
777600,note_on,0,0,3,,,,,,,,,2,,,70,51
777600,note_on,0,0,3,,,,,,,,,2,,,65,51
777600,note_on,0,0,1,,,,,,,,,0,,,86,63
777600,note_off,60,0,1,,,,,,,,,0,,,87,0
777600,note_off,240,0,3,,,,,,,,,2,,,62,0
777600,note_off,0,0,3,,,,,,,,,2,,,65,0
777600,note_off,0,0,3,,,,,,,,,2,,,70,0
777600,note_on,0,0,3,,,,,,,,,2,,,62,51
777720,note_on,0,0,1,,,,,,,,,0,,,84,64
777720,note_off,120,0,1,,,,,,,,,0,,,86,0
777840,note_on,0,0,1,,,,,,,,,0,,,86,64
777840,note_off,0,0,3,,,,,,,,,2,,,62,0
777840,note_off,240,0,3,,,,,,,,,2,,,65,0
777840,note_on,0,0,3,,,,,,,,,2,,,70,51
777840,note_on,0,0,3,,,,,,,,,2,,,62,51
777840,note_off,120,0,1,,,,,,,,,0,,,84,0
777840,note_off,0,0,3,,,,,,,,,2,,,70,0
777840,note_on,0,0,3,,,,,,,,,2,,,65,51
777960,note_off,120,0,1,,,,,,,,,0,,,86,0
778080,note_off,0,0,3,,,,,,,,,2,,,62,0
778080,note_off,0,0,3,,,,,,,,,2,,,70,0
778080,note_on,0,0,3,,,,,,,,,2,,,70,52
778080,note_on,0,0,3,,,,,,,,,2,,,62,52
778080,note_on,0,0,3,,,,,,,,,2,,,65,52
778080,note_off,240,0,3,,,,,,,,,2,,,65,0
778260,note_on,300,0,1,,,,,,,,,0,,,90,64
778320,note_on,0,0,3,,,,,,,,,2,,,62,53
778320,note_off,240,0,3,,,,,,,,,2,,,65,0
778320,note_off,0,0,3,,,,,,,,,2,,,62,0
778320,note_on,0,0,3,,,,,,,,,2,,,70,53
778320,note_off,60,0,1,,,,,,,,,0,,,90,0
778320,note_on,0,0,1,,,,,,,,,0,,,89,65
778320,note_off,0,0,3,,,,,,,,,2,,,70,0
778320,note_on,0,0,3,,,,,,,,,2,,,65,53
778440,note_off,120,0,1,,,,,,,,,0,,,89,0
778440,note_on,0,0,1,,,,,,,,,0,,,88,65
778560,note_on,0,0,3,,,,,,,,,2,,,65,53
778560,note_on,0,0,3,,,,,,,,,2,,,70,53
778560,note_off,0,0,3,,,,,,,,,2,,,70,0
778560,note_off,0,0,3,,,,,,,,,2,,,62,0
778560,note_on,0,0,3,,,,,,,,,2,,,62,53
778560,note_on,0,0,1,,,,,,,,,0,,,89,65
778560,note_off,120,0,1,,,,,,,,,0,,,88,0
778560,note_off,240,0,3,,,,,,,,,2,,,65,0
778680,note_off,120,0,1,,,,,,,,,0,,,89,0
778800,note_off,240,0,3,,,,,,,,,2,,,65,0
778800,note_off,0,0,3,,,,,,,,,2,,,62,0
778800,note_off,0,0,3,,,,,,,,,2,,,70,0
778800,note_on,0,0,3,,,,,,,,,2,,,70,54
778800,note_on,0,0,3,,,,,,,,,2,,,65,54
778800,note_on,0,0,3,,,,,,,,,2,,,62,54
778980,note_on,300,0,1,,,,,,,,,0,,,95,66
779040,note_off,60,0,1,,,,,,,,,0,,,95,0
779040,note_off,240,0,3,,,,,,,,,2,,,65,0
779040,note_off,0,0,3,,,,,,,,,2,,,62,0
779040,note_off,0,0,3,,,,,,,,,2,,,70,0
779040,note_on,0,0,3,,,,,,,,,2,,,70,54
779040,note_on,0,0,3,,,,,,,,,2,,,62,54
779040,note_on,0,0,1,,,,,,,,,0,,,94,66
779040,note_on,0,0,3,,,,,,,,,2,,,65,54
779160,note_off,120,0,1,,,,,,,,,0,,,94,0
779160,note_on,0,0,1,,,,,,,,,0,,,93,66
779280,note_on,0,0,3,,,,,,,,,2,,,65,55
779280,note_off,120,0,1,,,,,,,,,0,,,93,0
779280,note_on,0,0,3,,,,,,,,,2,,,70,55
779280,note_on,0,0,1,,,,,,,,,0,,,94,67
779280,note_off,0,0,3,,,,,,,,,2,,,62,0
779280,note_off,0,0,3,,,,,,,,,2,,,70,0
779280,note_on,0,0,3,,,,,,,,,2,,,62,55
779280,note_off,240,0,3,,,,,,,,,2,,,65,0
779400,note_off,120,0,1,,,,,,,,,0,,,94,0
779520,note_on,0,0,3,,,,,,,,,2,,,65,56
779520,note_on,0,0,3,,,,,,,,,2,,,62,56
779520,note_off,0,0,3,,,,,,,,,2,,,62,0
779520,note_off,0,0,3,,,,,,,,,2,,,70,0
779520,note_off,240,0,3,,,,,,,,,2,,,65,0
779520,note_on,0,0,3,,,,,,,,,2,,,70,56
779700,note_on,300,0,1,,,,,,,,,0,,,90,67
779760,note_on,0,0,3,,,,,,,,,2,,,62,56
779760,note_off,240,0,3,,,,,,,,,2,,,65,0
779760,note_off,0,0,3,,,,,,,,,2,,,62,0
779760,note_off,0,0,3,,,,,,,,,2,,,70,0
779760,note_on,0,0,3,,,,,,,,,2,,,70,56
779760,note_on,0,0,3,,,,,,,,,2,,,65,56
779760,note_off,60,0,1,,,,,,,,,0,,,90,0
779760,note_on,0,0,1,,,,,,,,,0,,,89,67
779880,note_on,0,0,1,,,,,,,,,0,,,88,67
779880,note_off,120,0,1,,,,,,,,,0,,,89,0
780000,note_off,120,0,1,,,,,,,,,0,,,88,0
780000,note_on,0,0,1,,,,,,,,,0,,,89,67
780000,note_on,0,0,3,,,,,,,,,2,,,65,59
780000,note_on,0,0,3,,,,,,,,,2,,,62,59
780000,note_on,0,0,3,,,,,,,,,2,,,70,59
780000,note_off,0,0,3,,,,,,,,,2,,,70,0
780000,note_off,240,0,3,,,,,,,,,2,,,62,0
780000,note_off,0,0,3,,,,,,,,,2,,,65,0
780120,note_off,120,0,1,,,,,,,,,0,,,89,0
780240,note_off,0,0,3,,,,,,,,,2,,,70,0
780240,note_off,0,0,3,,,,,,,,,2,,,62,0
780240,note_off,240,0,3,,,,,,,,,2,,,65,0
780240,note_on,0,0,3,,,,,,,,,2,,,65,59
780240,note_on,0,0,3,,,,,,,,,2,,,70,59
780240,note_on,0,0,3,,,,,,,,,2,,,62,59
780420,note_on,300,0,1,,,,,,,,,0,,,87,66
780480,note_off,240,0,3,,,,,,,,,2,,,65,0
780480,note_off,0,0,3,,,,,,,,,2,,,62,0
780480,note_off,0,0,3,,,,,,,,,2,,,70,0
780480,note_on,0,0,3,,,,,,,,,2,,,70,58
780480,note_on,0,0,3,,,,,,,,,2,,,65,58
780480,note_on,0,0,3,,,,,,,,,2,,,62,58
780480,note_off,60,0,1,,,,,,,,,0,,,87,0
780480,note_on,0,0,1,,,,,,,,,0,,,86,66
780600,note_on,0,0,1,,,,,,,,,0,,,84,66
780600,note_off,120,0,1,,,,,,,,,0,,,86,0
780720,note_on,0,0,1,,,,,,,,,0,,,86,66
780720,note_off,120,0,1,,,,,,,,,0,,,84,0
780720,note_off,240,0,3,,,,,,,,,2,,,65,0
780720,note_off,0,0,3,,,,,,,,,2,,,62,0
780720,note_off,0,0,3,,,,,,,,,2,,,70,0
780720,note_on,0,0,3,,,,,,,,,2,,,70,57
780720,note_on,0,0,3,,,,,,,,,2,,,62,57
780720,note_on,0,0,3,,,,,,,,,2,,,65,57
780840,note_off,120,0,1,,,,,,,,,0,,,86,0
780960,note_on,0,0,3,,,,,,,,,2,,,65,57
780960,note_on,0,0,3,,,,,,,,,2,,,62,57
780960,note_on,0,0,3,,,,,,,,,2,,,70,57
780960,note_off,0,0,3,,,,,,,,,2,,,62,0
780960,note_off,240,0,3,,,,,,,,,2,,,65,0
780960,note_off,0,0,3,,,,,,,,,2,,,70,0
781140,note_on,300,0,1,,,,,,,,,0,,,83,65
781200,note_off,240,0,3,,,,,,,,,2,,,65,0
781200,note_off,0,0,3,,,,,,,,,2,,,62,0
781200,note_off,0,0,3,,,,,,,,,2,,,70,0
781200,note_on,0,0,3,,,,,,,,,2,,,70,56
781200,note_on,0,0,3,,,,,,,,,2,,,62,56
781200,note_on,0,0,3,,,,,,,,,2,,,65,56
781200,note_off,60,0,1,,,,,,,,,0,,,83,0
781200,note_on,0,0,1,,,,,,,,,0,,,82,65
781320,note_on,0,0,1,,,,,,,,,0,,,81,65
781320,note_off,120,0,1,,,,,,,,,0,,,82,0
781440,note_on,0,0,1,,,,,,,,,0,,,82,65
781440,note_off,120,0,1,,,,,,,,,0,,,81,0
781440,note_on,0,0,3,,,,,,,,,2,,,65,56
781440,note_on,0,0,3,,,,,,,,,2,,,62,56
781440,note_on,0,0,3,,,,,,,,,2,,,70,56
781440,note_off,0,0,3,,,,,,,,,2,,,70,0
781440,note_off,0,0,3,,,,,,,,,2,,,62,0
781440,note_off,240,0,3,,,,,,,,,2,,,65,0
781560,note_off,120,0,1,,,,,,,,,0,,,82,0
781680,note_on,0,0,3,,,,,,,,,2,,,70,55
781680,note_on,0,0,3,,,,,,,,,2,,,62,55
781680,note_on,0,0,3,,,,,,,,,2,,,65,55
781680,note_off,0,0,3,,,,,,,,,2,,,65,0
781680,note_off,240,0,3,,,,,,,,,2,,,62,0
781680,note_off,0,0,3,,,,,,,,,2,,,70,0
781860,note_on,300,0,1,,,,,,,,,0,,,78,64
781920,note_on,0,0,3,,,,,,,,,2,,,65,55
781920,note_on,0,0,3,,,,,,,,,2,,,62,55
781920,note_on,0,0,3,,,,,,,,,2,,,70,55
781920,note_off,0,0,3,,,,,,,,,2,,,70,0
781920,note_on,0,0,1,,,,,,,,,0,,,77,64
781920,note_off,0,0,3,,,,,,,,,2,,,62,0
781920,note_off,240,0,3,,,,,,,,,2,,,65,0
781920,note_off,60,0,1,,,,,,,,,0,,,78,0
782040,note_on,0,0,1,,,,,,,,,0,,,76,64
782040,note_off,120,0,1,,,,,,,,,0,,,77,0
782160,note_on,0,0,1,,,,,,,,,0,,,77,64
782160,note_on,0,0,3,,,,,,,,,2,,,62,54
782160,note_on,0,0,3,,,,,,,,,2,,,65,54
782160,note_on,0,0,3,,,,,,,,,2,,,70,54
782160,note_off,0,0,3,,,,,,,,,2,,,70,0
782160,note_off,0,0,3,,,,,,,,,2,,,62,0
782160,note_off,240,0,3,,,,,,,,,2,,,65,0
782160,note_off,120,0,1,,,,,,,,,0,,,76,0
782280,note_off,120,0,1,,,,,,,,,0,,,77,0
782400,note_on,0,0,3,,,,,,,,,2,,,58,65
782400,note_off,0,0,3,,,,,,,,,2,,,65,0
782400,note_off,240,0,3,,,,,,,,,2,,,62,0
782400,note_off,0,0,3,,,,,,,,,2,,,70,0
782640,note_on,0,0,3,,,,,,,,,2,,,56,62
782640,note_on,360,0,1,,,,,,,,,0,,,78,52
782640,note_off,240,0,3,,,,,,,,,2,,,58,0
782820,set_tempo,5700,1,0,,,,,,419580,,,,,,,
782880,note_on,52080,0,2,,,,,,,,,1,,,70,49
782880,note_on,0,0,1,,,,,,,,,0,,,79,52
782880,note_on,0,0,3,,,,,,,,,2,,,55,59
782880,note_on,0,0,3,,,,,,,,,2,,,51,59
782880,note_off,240,0,3,,,,,,,,,2,,,56,0
782880,note_off,240,0,1,,,,,,,,,0,,,78,0
782880,set_tempo,60,1,0,,,,,,400000,,,,,,,
783000,note_off,120,0,2,,,,,,,,,1,,,70,0
783000,note_on,0,0,2,,,,,,,,,1,,,72,49
783120,note_on,0,0,2,,,,,,,,,1,,,70,50
783120,note_off,120,0,2,,,,,,,,,1,,,72,0
783240,note_on,0,0,2,,,,,,,,,1,,,72,50
783240,note_off,120,0,2,,,,,,,,,1,,,70,0
783360,note_off,480,0,3,,,,,,,,,2,,,55,0
783360,note_off,120,0,2,,,,,,,,,1,,,72,0
783360,note_on,0,0,3,,,,,,,,,2,,,60,53
783360,note_on,0,0,2,,,,,,,,,1,,,70,51
783480,note_on,0,0,2,,,,,,,,,1,,,72,51
783480,note_off,120,0,2,,,,,,,,,1,,,70,0
783600,note_off,120,0,2,,,,,,,,,1,,,72,0
783600,note_off,720,0,1,,,,,,,,,0,,,79,0
783600,note_on,0,0,1,,,,,,,,,0,,,75,55
783600,note_on,0,0,3,,,,,,,,,2,,,58,54
783600,note_off,240,0,3,,,,,,,,,2,,,60,0
783600,note_on,0,0,2,,,,,,,,,1,,,70,52
783720,note_on,0,0,2,,,,,,,,,1,,,72,52
783720,note_off,120,0,2,,,,,,,,,1,,,70,0
783840,note_on,0,0,2,,,,,,,,,1,,,70,53
783840,note_off,120,0,2,,,,,,,,,1,,,72,0
783960,note_on,0,0,2,,,,,,,,,1,,,72,53
783960,note_off,120,0,2,,,,,,,,,1,,,70,0
784080,note_off,480,0,3,,,,,,,,,2,,,58,0
784080,note_on,0,0,3,,,,,,,,,2,,,55,55
784080,note_on,0,0,2,,,,,,,,,1,,,70,54
784080,note_off,120,0,2,,,,,,,,,1,,,72,0
784200,note_off,120,0,2,,,,,,,,,1,,,70,0
784200,note_on,0,0,2,,,,,,,,,1,,,72,54
784320,note_on,0,0,2,,,,,,,,,1,,,70,55
784320,note_off,120,0,2,,,,,,,,,1,,,72,0
784320,note_off,720,0,1,,,,,,,,,0,,,75,0
784320,note_off,240,0,3,,,,,,,,,2,,,55,0
784320,note_off,0,0,3,,,,,,,,,2,,,51,0
784320,note_on,0,0,3,,,,,,,,,2,,,46,56
784320,note_on,0,0,3,,,,,,,,,2,,,53,56
784320,note_on,0,0,1,,,,,,,,,0,,,74,57
784440,note_on,0,0,2,,,,,,,,,1,,,72,56
784440,note_off,120,0,2,,,,,,,,,1,,,70,0
784560,note_on,0,0,2,,,,,,,,,1,,,70,56
784560,note_off,120,0,2,,,,,,,,,1,,,72,0
784680,note_on,0,0,2,,,,,,,,,1,,,72,57
784680,note_off,120,0,2,,,,,,,,,1,,,70,0
784800,note_on,0,0,3,,,,,,,,,2,,,60,58
784800,note_off,480,0,3,,,,,,,,,2,,,53,0
784800,note_off,120,0,2,,,,,,,,,1,,,72,0
784800,note_on,0,0,2,,,,,,,,,1,,,70,57
784920,note_off,120,0,2,,,,,,,,,1,,,70,0
784920,note_on,0,0,2,,,,,,,,,1,,,72,58
785040,note_on,0,0,2,,,,,,,,,1,,,70,58
785040,note_on,0,0,1,,,,,,,,,0,,,80,59
785040,note_off,720,0,1,,,,,,,,,0,,,74,0
785040,note_off,120,0,2,,,,,,,,,1,,,72,0
785040,note_off,240,0,3,,,,,,,,,2,,,60,0
785040,note_on,0,0,3,,,,,,,,,2,,,58,59
785160,note_on,0,0,2,,,,,,,,,1,,,72,59
785160,note_off,120,0,2,,,,,,,,,1,,,70,0
785280,note_on,0,0,2,,,,,,,,,1,,,70,59
785280,note_off,120,0,2,,,,,,,,,1,,,72,0
785400,note_on,0,0,2,,,,,,,,,1,,,72,60
785400,note_off,120,0,2,,,,,,,,,1,,,70,0
785520,note_on,0,0,2,,,,,,,,,1,,,70,60
785520,note_off,480,0,3,,,,,,,,,2,,,58,0
785520,note_on,0,0,3,,,,,,,,,2,,,53,60
785520,note_off,120,0,2,,,,,,,,,1,,,72,0
785640,note_off,120,0,2,,,,,,,,,1,,,70,0
785640,note_on,0,0,2,,,,,,,,,1,,,72,61
785700,set_tempo,2820,1,0,,,,,,402684,,,,,,,
785760,note_off,0,0,3,,,,,,,,,2,,,46,0
785760,note_on,0,0,1,,,,,,,,,0,,,79,59
785760,note_off,120,0,2,,,,,,,,,1,,,72,0
785760,note_on,0,0,3,,,,,,,,,2,,,51,59
785760,note_on,0,0,3,,,,,,,,,2,,,55,59
785760,note_on,0,0,2,,,,,,,,,1,,,70,61
785760,set_tempo,60,1,0,,,,,,400000,,,,,,,
785760,note_off,240,0,3,,,,,,,,,2,,,53,0
785760,note_off,720,0,1,,,,,,,,,0,,,80,0
785880,note_on,0,0,2,,,,,,,,,1,,,72,61
785880,note_off,120,0,2,,,,,,,,,1,,,70,0
786000,note_off,120,0,2,,,,,,,,,1,,,72,0
786000,note_on,0,0,2,,,,,,,,,1,,,70,61
786120,note_off,120,0,2,,,,,,,,,1,,,70,0
786120,note_on,0,0,2,,,,,,,,,1,,,72,60
786240,note_off,120,0,2,,,,,,,,,1,,,72,0
786240,note_off,480,0,3,,,,,,,,,2,,,55,0
786240,note_on,0,0,3,,,,,,,,,2,,,60,58
786240,note_on,0,0,2,,,,,,,,,1,,,70,60
786360,note_on,0,0,2,,,,,,,,,1,,,72,59
786360,note_off,120,0,2,,,,,,,,,1,,,70,0
786480,note_off,240,0,3,,,,,,,,,2,,,60,0
786480,note_on,0,0,1,,,,,,,,,0,,,75,57
786480,note_off,720,0,1,,,,,,,,,0,,,79,0
786480,note_off,120,0,2,,,,,,,,,1,,,72,0
786480,note_on,0,0,2,,,,,,,,,1,,,70,59
786480,note_on,0,0,3,,,,,,,,,2,,,58,57
786600,note_off,120,0,2,,,,,,,,,1,,,70,0
786600,note_on,0,0,2,,,,,,,,,1,,,72,58
786720,note_on,0,0,2,,,,,,,,,1,,,70,58
786720,note_off,120,0,2,,,,,,,,,1,,,72,0
786840,note_off,120,0,2,,,,,,,,,1,,,70,0
786840,note_on,0,0,2,,,,,,,,,1,,,72,57
786960,note_on,0,0,2,,,,,,,,,1,,,70,57
786960,note_on,0,0,3,,,,,,,,,2,,,55,56
786960,note_off,480,0,3,,,,,,,,,2,,,58,0
786960,note_off,120,0,2,,,,,,,,,1,,,72,0
787080,note_on,0,0,2,,,,,,,,,1,,,72,56
787080,note_off,120,0,2,,,,,,,,,1,,,70,0
787200,note_off,720,0,1,,,,,,,,,0,,,75,0
787200,note_on,0,0,1,,,,,,,,,0,,,74,55
787200,note_off,120,0,2,,,,,,,,,1,,,72,0
787200,note_on,0,0,3,,,,,,,,,2,,,53,56
787200,note_on,0,0,3,,,,,,,,,2,,,46,56
787200,note_off,0,0,3,,,,,,,,,2,,,51,0
787200,note_off,240,0,3,,,,,,,,,2,,,55,0
787200,note_on,0,0,2,,,,,,,,,1,,,70,56
787320,note_off,120,0,2,,,,,,,,,1,,,70,0
787320,note_on,0,0,2,,,,,,,,,1,,,72,55
787440,note_off,120,0,2,,,,,,,,,1,,,72,0
787440,note_on,0,0,2,,,,,,,,,1,,,70,55
787560,note_off,120,0,2,,,,,,,,,1,,,70,0
787560,note_on,0,0,2,,,,,,,,,1,,,72,54
787680,note_on,0,0,3,,,,,,,,,2,,,60,54
787680,note_off,480,0,3,,,,,,,,,2,,,53,0
787680,note_on,0,0,2,,,,,,,,,1,,,70,54
787680,note_off,120,0,2,,,,,,,,,1,,,72,0
787800,note_off,120,0,2,,,,,,,,,1,,,70,0
787800,note_on,0,0,2,,,,,,,,,1,,,72,53
787920,note_on,0,0,1,,,,,,,,,0,,,80,53
787920,note_off,720,0,1,,,,,,,,,0,,,74,0
787920,note_off,120,0,2,,,,,,,,,1,,,72,0
787920,note_on,0,0,2,,,,,,,,,1,,,70,53
787920,note_on,0,0,3,,,,,,,,,2,,,58,54
787920,note_off,240,0,3,,,,,,,,,2,,,60,0
788040,note_on,0,0,2,,,,,,,,,1,,,72,52
788040,note_off,120,0,2,,,,,,,,,1,,,70,0
788160,note_off,120,0,2,,,,,,,,,1,,,72,0
788160,note_on,0,0,2,,,,,,,,,1,,,70,52
788280,note_on,0,0,2,,,,,,,,,1,,,72,51
788280,note_off,120,0,2,,,,,,,,,1,,,70,0
788400,note_off,120,0,2,,,,,,,,,1,,,72,0
788400,note_on,0,0,2,,,,,,,,,1,,,70,51
788400,note_on,0,0,3,,,,,,,,,2,,,53,54
788400,note_off,480,0,3,,,,,,,,,2,,,58,0
788520,note_off,120,0,2,,,,,,,,,1,,,70,0
788520,note_on,0,0,2,,,,,,,,,1,,,72,51
788580,set_tempo,2820,1,0,,,,,,408163,,,,,,,
788640,note_off,240,0,3,,,,,,,,,2,,,53,0
788640,note_on,0,0,1,,,,,,,,,0,,,79,56
788640,note_off,0,0,3,,,,,,,,,2,,,46,0
788640,note_on,0,0,1,,,,,,,,,0,,,70,56
788640,note_on,0,0,3,,,,,,,,,2,,,58,55
788640,set_tempo,60,1,0,,,,,,400000,,,,,,,
788640,note_off,720,0,1,,,,,,,,,0,,,80,0
788640,note_off,120,0,2,,,,,,,,,1,,,72,0
788640,note_on,0,0,3,,,,,,,,,2,,,51,55
788760,note_on,0,0,1,,,,,,,,,0,,,72,57
788760,note_off,0,0,1,,,,,,,,,0,,,70,0
788760,note_off,120,0,1,,,,,,,,,0,,,79,0
788880,note_on,0,0,3,,,,,,,,,2,,,55,56
788880,note_off,0,0,3,,,,,,,,,2,,,51,0
788880,note_on,0,0,1,,,,,,,,,0,,,74,58
788880,note_off,120,0,1,,,,,,,,,0,,,72,0
788880,note_on,0,0,3,,,,,,,,,2,,,63,56
788880,note_on,0,0,3,,,,,,,,,2,,,58,56
788880,note_off,240,0,3,,,,,,,,,2,,,58,0
789000,note_off,120,0,1,,,,,,,,,0,,,74,0
789000,note_on,0,0,1,,,,,,,,,0,,,75,58
789120,note_off,240,0,3,,,,,,,,,2,,,58,0
789120,note_off,0,0,3,,,,,,,,,2,,,55,0
789120,note_off,0,0,3,,,,,,,,,2,,,63,0
789120,note_on,0,0,3,,,,,,,,,2,,,63,58
789120,note_on,0,0,3,,,,,,,,,2,,,58,58
789120,note_on,0,0,3,,,,,,,,,2,,,55,58
789120,note_off,120,0,1,,,,,,,,,0,,,75,0
789120,note_on,0,0,1,,,,,,,,,0,,,77,59
789200,note_off,80,0,1,,,,,,,,,0,,,77,0
789200,note_on,0,0,1,,,,,,,,,0,,,79,60
789280,note_on,0,0,1,,,,,,,,,0,,,80,60
789280,note_off,80,0,1,,,,,,,,,0,,,79,0
789360,note_off,240,0,3,,,,,,,,,2,,,55,0
789360,note_on,0,0,1,,,,,,,,,0,,,82,60
789360,note_off,80,0,1,,,,,,,,,0,,,80,0
789360,note_off,0,0,3,,,,,,,,,2,,,58,0
789360,note_off,0,0,3,,,,,,,,,2,,,63,0
789360,note_on,0,0,3,,,,,,,,,2,,,63,59
789360,note_on,0,0,3,,,,,,,,,2,,,58,59
789360,note_on,0,0,3,,,,,,,,,2,,,55,59
789480,note_on,0,0,1,,,,,,,,,0,,,80,61
789480,note_off,120,0,1,,,,,,,,,0,,,82,0
789600,note_on,0,0,3,,,,,,,,,2,,,55,60
789600,note_off,240,0,3,,,,,,,,,2,,,58,0
789600,note_off,0,0,3,,,,,,,,,2,,,55,0
789600,note_off,0,0,3,,,,,,,,,2,,,63,0
789600,note_on,0,0,1,,,,,,,,,0,,,79,62
789600,note_on,0,0,3,,,,,,,,,2,,,63,60
789600,note_on,0,0,3,,,,,,,,,2,,,58,60
789600,note_off,120,0,1,,,,,,,,,0,,,80,0
789680,note_off,80,0,1,,,,,,,,,0,,,79,0
789680,note_on,0,0,1,,,,,,,,,0,,,77,62
789760,note_off,80,0,1,,,,,,,,,0,,,77,0
789760,note_on,0,0,1,,,,,,,,,0,,,75,63
789840,note_on,0,0,3,,,,,,,,,2,,,55,62
789840,note_off,240,0,3,,,,,,,,,2,,,55,0
789840,note_off,80,0,1,,,,,,,,,0,,,75,0
789840,note_on,0,0,1,,,,,,,,,0,,,74,63
789840,note_off,0,0,3,,,,,,,,,2,,,63,0
789840,note_off,0,0,3,,,,,,,,,2,,,58,0
789840,note_on,0,0,3,,,,,,,,,2,,,59,62
789840,note_on,0,0,3,,,,,,,,,2,,,63,62
789920,note_off,80,0,1,,,,,,,,,0,,,74,0
789920,note_on,0,0,1,,,,,,,,,0,,,72,64
790000,note_on,0,0,1,,,,,,,,,0,,,71,64
790000,note_off,80,0,1,,,,,,,,,0,,,72,0
790020,set_tempo,1380,1,0,,,,,,402684,,,,,,,
790080,note_off,80,0,1,,,,,,,,,0,,,71,0
790080,note_off,0,0,3,,,,,,,,,2,,,63,0
790080,set_tempo,60,1,0,,,,,,400000,,,,,,,
790080,note_off,240,0,3,,,,,,,,,2,,,55,0
790080,note_off,0,0,3,,,,,,,,,2,,,59,0
790080,note_on,0,0,1,,,,,,,,,0,,,72,65
790200,note_on,0,0,1,,,,,,,,,0,,,75,65
790200,note_off,120,0,1,,,,,,,,,0,,,72,0
790320,note_on,0,0,3,,,,,,,,,2,,,63,64
790320,note_on,0,0,3,,,,,,,,,2,,,60,64
790320,note_on,0,0,1,,,,,,,,,0,,,77,66
790320,note_on,240,0,3,,,,,,,,,2,,,56,64
790320,note_off,120,0,1,,,,,,,,,0,,,75,0
790440,note_on,0,0,1,,,,,,,,,0,,,79,67
790440,note_off,120,0,1,,,,,,,,,0,,,77,0
790560,note_on,0,0,3,,,,,,,,,2,,,63,66
790560,note_on,0,0,1,,,,,,,,,0,,,80,67
790560,note_off,0,0,3,,,,,,,,,2,,,56,0
790560,note_on,0,0,3,,,,,,,,,2,,,56,66
790560,note_off,240,0,3,,,,,,,,,2,,,60,0
790560,note_on,0,0,3,,,,,,,,,2,,,60,66
790560,note_off,120,0,1,,,,,,,,,0,,,79,0
790560,note_off,0,0,3,,,,,,,,,2,,,63,0
790680,note_off,120,0,1,,,,,,,,,0,,,80,0
790680,note_on,0,0,1,,,,,,,,,0,,,82,68
790800,note_on,0,0,3,,,,,,,,,2,,,63,67
790800,note_on,0,0,3,,,,,,,,,2,,,56,67
790800,note_on,0,0,3,,,,,,,,,2,,,60,67
790800,note_off,0,0,3,,,,,,,,,2,,,56,0
790800,note_off,240,0,3,,,,,,,,,2,,,60,0
790800,note_off,120,0,1,,,,,,,,,0,,,82,0
790800,note_on,0,0,1,,,,,,,,,0,,,84,69
790800,note_off,0,0,3,,,,,,,,,2,,,63,0
790920,note_off,120,0,1,,,,,,,,,0,,,84,0
790920,note_on,0,0,1,,,,,,,,,0,,,82,69
791040,note_on,0,0,3,,,,,,,,,2,,,63,69
791040,note_on,0,0,3,,,,,,,,,2,,,56,69
791040,note_on,0,0,3,,,,,,,,,2,,,60,69
791040,note_off,0,0,3,,,,,,,,,2,,,63,0
791040,note_off,0,0,3,,,,,,,,,2,,,56,0
791040,note_off,240,0,3,,,,,,,,,2,,,60,0
791040,note_on,0,0,1,,,,,,,,,0,,,80,70
791040,note_off,120,0,1,,,,,,,,,0,,,82,0
791120,note_on,0,0,1,,,,,,,,,0,,,79,71
791120,note_off,80,0,1,,,,,,,,,0,,,80,0
791200,note_off,80,0,1,,,,,,,,,0,,,79,0
791200,note_on,0,0,1,,,,,,,,,0,,,77,71
791280,note_on,0,0,3,,,,,,,,,2,,,63,70
791280,note_on,0,0,1,,,,,,,,,0,,,75,71
791280,note_off,80,0,1,,,,,,,,,0,,,77,0
791280,note_off,240,0,3,,,,,,,,,2,,,60,0
791280,note_off,0,0,3,,,,,,,,,2,,,56,0
791280,note_off,0,0,3,,,,,,,,,2,,,63,0
791280,note_on,0,0,3,,,,,,,,,2,,,65,70
791280,note_on,0,0,3,,,,,,,,,2,,,57,70
791360,note_off,80,0,1,,,,,,,,,0,,,75,0
791360,note_on,0,0,1,,,,,,,,,0,,,74,73
791440,note_off,80,0,1,,,,,,,,,0,,,74,0
791440,note_on,0,0,1,,,,,,,,,0,,,72,74
791460,set_tempo,1380,1,0,,,,,,402684,,,,,,,
791520,set_tempo,60,1,0,,,,,,400000,,,,,,,
791520,note_off,0,0,3,,,,,,,,,2,,,63,0
791520,note_off,0,0,3,,,,,,,,,2,,,57,0
791520,note_on,0,0,1,,,,,,,,,0,,,70,76
791520,note_off,0,0,1,,,,,,,,,0,,,72,0
791520,note_off,240,0,3,,,,,,,,,2,,,65,0
791520,control_change,80,0,1,,,,,,,64,127,0,,,,
791640,note_off,120,0,1,,,,,,,,,0,,,70,0
791640,note_on,0,0,1,,,,,,,,,0,,,79,78
791760,note_on,0,0,3,,,,,,,,,2,,,67,79
791760,note_on,0,0,1,,,,,,,,,0,,,75,81
791760,note_on,240,0,3,,,,,,,,,2,,,58,79
791760,note_on,0,0,3,,,,,,,,,2,,,63,79
791760,note_off,120,0,1,,,,,,,,,0,,,79,0
791880,note_on,0,0,1,,,,,,,,,0,,,82,83
791880,note_off,120,0,1,,,,,,,,,0,,,75,0
792000,note_on,0,0,3,,,,,,,,,2,,,67,85
792000,note_off,240,0,3,,,,,,,,,2,,,63,0
792000,note_off,0,0,3,,,,,,,,,2,,,67,0
792000,note_off,0,0,3,,,,,,,,,2,,,58,0
792000,note_off,120,0,1,,,,,,,,,0,,,82,0
792000,note_on,0,0,3,,,,,,,,,2,,,63,85
792000,note_on,0,0,3,,,,,,,,,2,,,58,85
792000,note_on,0,0,1,,,,,,,,,0,,,79,86
792120,note_off,120,0,1,,,,,,,,,0,,,79,0
792120,note_on,0,0,1,,,,,,,,,0,,,87,88
792240,note_off,120,0,1,,,,,,,,,0,,,87,0
792240,note_on,0,0,1,,,,,,,,,0,,,82,90
792240,note_on,0,0,3,,,,,,,,,2,,,58,90
792240,note_off,0,0,3,,,,,,,,,2,,,58,0
792240,note_on,0,0,3,,,,,,,,,2,,,67,90
792240,note_on,0,0,3,,,,,,,,,2,,,63,90
792240,note_off,240,0,3,,,,,,,,,2,,,63,0
792240,note_off,0,0,3,,,,,,,,,2,,,67,0
792360,note_off,120,0,1,,,,,,,,,0,,,82,0
792360,note_on,0,0,1,,,,,,,,,0,,,91,88
792480,note_on,0,0,3,,,,,,,,,2,,,58,86
792480,note_off,240,0,3,,,,,,,,,2,,,67,0
792480,note_on,0,0,3,,,,,,,,,2,,,63,86
792480,note_on,0,0,3,,,,,,,,,2,,,67,86
792480,note_off,0,0,3,,,,,,,,,2,,,58,0
792480,note_off,0,0,3,,,,,,,,,2,,,63,0
792480,note_off,120,0,1,,,,,,,,,0,,,91,0
792480,note_on,0,0,1,,,,,,,,,0,,,87,86
792600,note_off,120,0,1,,,,,,,,,0,,,87,0
792600,note_on,0,0,1,,,,,,,,,0,,,94,85
792720,note_off,240,0,3,,,,,,,,,2,,,67,0
792720,note_off,0,0,3,,,,,,,,,2,,,63,0
792720,note_off,0,0,3,,,,,,,,,2,,,58,0
792720,note_on,0,0,1,,,,,,,,,0,,,91,83
792720,note_off,120,0,1,,,,,,,,,0,,,94,0
792720,note_on,0,0,3,,,,,,,,,2,,,58,82
792720,note_on,0,0,3,,,,,,,,,2,,,63,82
792720,note_on,0,0,3,,,,,,,,,2,,,67,82
792840,note_off,120,0,1,,,,,,,,,0,,,91,0
792840,note_on,0,0,1,,,,,,,,,0,,,87,82
792900,set_tempo,1380,1,0,,,,,,402684,,,,,,,
792960,note_off,240,0,3,,,,,,,,,2,,,67,0
792960,note_off,0,0,3,,,,,,,,,2,,,63,0
792960,note_on,0,0,3,,,,,,,,,2,,,67,79
792960,note_on,0,0,3,,,,,,,,,2,,,63,79
792960,note_on,0,0,3,,,,,,,,,2,,,58,79
792960,note_off,0,0,3,,,,,,,,,2,,,58,0
792960,note_on,0,0,1,,,,,,,,,0,,,82,80
792960,note_off,120,0,1,,,,,,,,,0,,,87,0
793200,note_off,240,0,3,,,,,,,,,2,,,63,0
793200,note_off,0,0,3,,,,,,,,,2,,,58,0
793200,note_on,0,0,3,,,,,,,,,2,,,63,75
793200,note_on,0,0,3,,,,,,,,,2,,,67,75
793200,note_off,0,0,3,,,,,,,,,2,,,67,0
793200,note_on,0,0,3,,,,,,,,,2,,,58,75
793440,note_off,240,0,3,,,,,,,,,2,,,67,0
793440,note_off,0,0,3,,,,,,,,,2,,,58,0
793440,note_off,0,0,3,,,,,,,,,2,,,63,0
793440,note_on,0,0,3,,,,,,,,,2,,,63,72
793440,note_on,0,0,3,,,,,,,,,2,,,67,72
793440,note_off,480,0,1,,,,,,,,,0,,,82,0
793440,note_on,0,0,3,,,,,,,,,2,,,58,72
793620,control_change,180,0,1,,,,,,,64,0,0,,,,
793680,note_on,60,0,1,,,,,,,,,0,,,89,70
793680,note_off,240,0,3,,,,,,,,,2,,,67,0
793680,note_off,0,0,3,,,,,,,,,2,,,58,0
793680,note_on,0,0,3,,,,,,,,,2,,,62,68
793680,note_on,0,0,3,,,,,,,,,2,,,58,68
793680,note_on,0,0,3,,,,,,,,,2,,,68,68
793680,note_off,0,0,3,,,,,,,,,2,,,63,0
793760,note_on,80,0,1,,,,,,,,,0,,,91,69
793822,note_off,62,0,1,,,,,,,,,0,,,89,0
793840,note_on,18,0,1,,,,,,,,,0,,,89,68
793897,note_off,57,0,1,,,,,,,,,0,,,91,0
793920,note_on,0,0,3,,,,,,,,,2,,,58,65
793920,note_on,0,0,3,,,,,,,,,2,,,62,65
793920,note_on,0,0,3,,,,,,,,,2,,,68,65
793920,note_on,23,0,1,,,,,,,,,0,,,91,67
793920,note_off,0,0,3,,,,,,,,,2,,,68,0
793920,note_off,240,0,3,,,,,,,,,2,,,62,0
793920,note_off,0,0,3,,,,,,,,,2,,,58,0
793987,note_off,67,0,1,,,,,,,,,0,,,89,0
794000,note_on,13,0,1,,,,,,,,,0,,,89,66
794055,note_off,55,0,1,,,,,,,,,0,,,91,0
794080,note_on,25,0,1,,,,,,,,,0,,,91,65
794152,note_off,72,0,1,,,,,,,,,0,,,89,0
794160,note_off,240,0,3,,,,,,,,,2,,,62,0
794160,note_off,0,0,3,,,,,,,,,2,,,68,0
794160,note_on,0,0,3,,,,,,,,,2,,,62,61
794160,note_on,0,0,3,,,,,,,,,2,,,58,61
794160,note_on,8,0,1,,,,,,,,,0,,,89,64
794160,note_off,0,0,3,,,,,,,,,2,,,58,0
794160,note_on,0,0,3,,,,,,,,,2,,,68,61
794227,note_off,67,0,1,,,,,,,,,0,,,91,0
794240,note_on,13,0,1,,,,,,,,,0,,,87,63
794295,note_off,55,0,1,,,,,,,,,0,,,89,0
794320,note_on,25,0,1,,,,,,,,,0,,,89,62
794340,set_tempo,1440,1,0,,,,,,419580,,,,,,,
794377,note_off,57,0,1,,,,,,,,,0,,,87,0
794400,set_tempo,60,1,0,,,,,,400000,,,,,,,
794400,note_off,23,0,1,,,,,,,,,0,,,89,0
794400,note_on,0,0,1,,,,,,,,,0,,,91,61
794400,note_on,5760,0,2,,,,,,,,,1,,,82,48
794400,note_off,240,0,3,,,,,,,,,2,,,62,0
794400,note_off,0,0,3,,,,,,,,,2,,,58,0
794400,note_off,0,0,3,,,,,,,,,2,,,68,0
794400,note_on,0,0,3,,,,,,,,,2,,,67,57
794400,note_on,0,0,3,,,,,,,,,2,,,63,57
794520,note_off,120,0,2,,,,,,,,,1,,,82,0
794520,note_on,0,0,2,,,,,,,,,1,,,84,49
794640,note_on,0,0,2,,,,,,,,,1,,,82,49
794640,note_off,120,0,2,,,,,,,,,1,,,84,0
794760,note_on,0,0,2,,,,,,,,,1,,,84,50
794760,note_off,120,0,2,,,,,,,,,1,,,82,0
794880,note_on,0,0,2,,,,,,,,,1,,,82,50
794880,note_off,120,0,2,,,,,,,,,1,,,84,0
794880,note_on,0,0,3,,,,,,,,,2,,,72,55
794880,note_off,480,0,3,,,,,,,,,2,,,67,0
795000,note_on,0,0,2,,,,,,,,,1,,,84,50
795000,note_off,120,0,2,,,,,,,,,1,,,82,0
795120,note_off,240,0,3,,,,,,,,,2,,,72,0
795120,note_off,720,0,1,,,,,,,,,0,,,91,0
795120,note_on,0,0,3,,,,,,,,,2,,,70,56
795120,note_on,0,0,1,,,,,,,,,0,,,87,53
795120,note_on,0,0,2,,,,,,,,,1,,,82,51
795120,note_off,120,0,2,,,,,,,,,1,,,84,0
795240,note_off,120,0,2,,,,,,,,,1,,,82,0
795240,note_on,0,0,2,,,,,,,,,1,,,84,51
795360,note_on,0,0,2,,,,,,,,,1,,,82,52
795360,note_off,120,0,2,,,,,,,,,1,,,84,0
795480,note_off,120,0,2,,,,,,,,,1,,,82,0
795480,note_on,0,0,2,,,,,,,,,1,,,84,52
795600,note_on,0,0,3,,,,,,,,,2,,,67,57
795600,note_off,120,0,2,,,,,,,,,1,,,84,0
795600,note_off,480,0,3,,,,,,,,,2,,,70,0
795600,note_on,0,0,2,,,,,,,,,1,,,82,53
795720,note_off,120,0,2,,,,,,,,,1,,,82,0
795720,note_on,0,0,2,,,,,,,,,1,,,84,53
795840,note_off,720,0,1,,,,,,,,,0,,,87,0
795840,note_on,0,0,3,,,,,,,,,2,,,65,58
795840,note_off,0,0,3,,,,,,,,,2,,,63,0
795840,note_off,240,0,3,,,,,,,,,2,,,67,0
795840,note_off,120,0,2,,,,,,,,,1,,,84,0
795840,note_on,0,0,2,,,,,,,,,1,,,82,54
795840,note_on,0,0,3,,,,,,,,,2,,,58,58
795840,note_on,0,0,1,,,,,,,,,0,,,86,56
795960,note_off,120,0,2,,,,,,,,,1,,,82,0
795960,note_on,0,0,2,,,,,,,,,1,,,84,54
796080,note_off,120,0,2,,,,,,,,,1,,,84,0
796080,note_on,0,0,2,,,,,,,,,1,,,82,55
796200,note_on,0,0,2,,,,,,,,,1,,,84,55
796200,note_off,120,0,2,,,,,,,,,1,,,82,0
796320,note_on,0,0,2,,,,,,,,,1,,,82,55
796320,note_on,0,0,3,,,,,,,,,2,,,72,60
796320,note_off,120,0,2,,,,,,,,,1,,,84,0
796320,note_off,480,0,3,,,,,,,,,2,,,65,0
796440,note_on,0,0,2,,,,,,,,,1,,,84,56
796440,note_off,120,0,2,,,,,,,,,1,,,82,0
796560,note_on,0,0,2,,,,,,,,,1,,,82,56
796560,note_off,120,0,2,,,,,,,,,1,,,84,0
796560,note_on,0,0,3,,,,,,,,,2,,,70,61
796560,note_on,0,0,1,,,,,,,,,0,,,92,58
796560,note_off,720,0,1,,,,,,,,,0,,,86,0
796560,note_off,240,0,3,,,,,,,,,2,,,72,0
796680,note_on,0,0,2,,,,,,,,,1,,,84,57
796680,note_off,120,0,2,,,,,,,,,1,,,82,0
796800,note_on,0,0,2,,,,,,,,,1,,,82,57
796800,note_off,120,0,2,,,,,,,,,1,,,84,0
796920,note_on,0,0,2,,,,,,,,,1,,,84,58
796920,note_off,120,0,2,,,,,,,,,1,,,82,0
797040,note_off,480,0,3,,,,,,,,,2,,,70,0
797040,note_on,0,0,3,,,,,,,,,2,,,65,62
797040,note_on,0,0,2,,,,,,,,,1,,,82,58
797040,note_off,120,0,2,,,,,,,,,1,,,84,0
797160,note_on,0,0,2,,,,,,,,,1,,,84,59
797160,note_off,120,0,2,,,,,,,,,1,,,82,0
797220,set_tempo,2820,1,0,,,,,,402684,,,,,,,
797280,note_on,0,0,2,,,,,,,,,1,,,82,59
797280,set_tempo,60,1,0,,,,,,400000,,,,,,,
797280,note_off,120,0,2,,,,,,,,,1,,,84,0
797280,note_off,720,0,1,,,,,,,,,0,,,92,0
797280,note_on,0,0,1,,,,,,,,,0,,,91,63
797280,note_off,240,0,3,,,,,,,,,2,,,65,0
797280,note_off,0,0,3,,,,,,,,,2,,,58,0
797280,note_on,0,0,3,,,,,,,,,2,,,67,63
797280,note_on,0,0,3,,,,,,,,,2,,,63,63
797400,note_off,120,0,2,,,,,,,,,1,,,82,0
797400,note_on,0,0,2,,,,,,,,,1,,,84,59
797520,note_off,120,0,2,,,,,,,,,1,,,84,0
797520,note_on,0,0,2,,,,,,,,,1,,,82,58
797640,note_on,0,0,2,,,,,,,,,1,,,84,58
797640,note_off,120,0,2,,,,,,,,,1,,,82,0
797760,note_on,0,0,2,,,,,,,,,1,,,82,58
797760,note_off,120,0,2,,,,,,,,,1,,,84,0
797760,note_off,480,0,3,,,,,,,,,2,,,67,0
797760,note_on,0,0,3,,,,,,,,,2,,,72,62
797880,note_on,0,0,2,,,,,,,,,1,,,84,57
797880,note_off,120,0,2,,,,,,,,,1,,,82,0
798000,note_off,120,0,2,,,,,,,,,1,,,84,0
798000,note_off,720,0,1,,,,,,,,,0,,,91,0
798000,note_on,0,0,1,,,,,,,,,0,,,87,60
798000,note_on,0,0,2,,,,,,,,,1,,,82,57
798000,note_off,240,0,3,,,,,,,,,2,,,72,0
798000,note_on,0,0,3,,,,,,,,,2,,,70,61
798120,note_on,0,0,2,,,,,,,,,1,,,84,56
798120,note_off,120,0,2,,,,,,,,,1,,,82,0
798240,note_off,120,0,2,,,,,,,,,1,,,84,0
798240,note_on,0,0,2,,,,,,,,,1,,,82,56
798360,note_off,120,0,2,,,,,,,,,1,,,82,0
798360,note_on,0,0,2,,,,,,,,,1,,,84,55
798480,note_off,480,0,3,,,,,,,,,2,,,70,0
798480,note_on,0,0,3,,,,,,,,,2,,,67,60
798480,note_off,120,0,2,,,,,,,,,1,,,84,0
798480,note_on,0,0,2,,,,,,,,,1,,,82,55
798600,note_off,120,0,2,,,,,,,,,1,,,82,0
798600,note_on,0,0,2,,,,,,,,,1,,,84,54
798720,note_off,720,0,1,,,,,,,,,0,,,87,0
798720,note_on,0,0,2,,,,,,,,,1,,,82,54
798720,note_off,240,0,3,,,,,,,,,2,,,67,0
798720,note_off,0,0,3,,,,,,,,,2,,,63,0
798720,note_off,120,0,2,,,,,,,,,1,,,84,0
798720,note_on,0,0,1,,,,,,,,,0,,,86,58
798720,note_on,0,0,3,,,,,,,,,2,,,65,60
798720,note_on,0,0,3,,,,,,,,,2,,,58,60
798840,note_on,0,0,2,,,,,,,,,1,,,84,54
798840,note_off,120,0,2,,,,,,,,,1,,,82,0
798960,note_on,0,0,2,,,,,,,,,1,,,82,53
798960,note_off,120,0,2,,,,,,,,,1,,,84,0
799080,note_off,120,0,2,,,,,,,,,1,,,82,0
799080,note_on,0,0,2,,,,,,,,,1,,,84,53
799200,note_off,120,0,2,,,,,,,,,1,,,84,0
799200,note_on,0,0,2,,,,,,,,,1,,,82,52
799200,note_on,0,0,3,,,,,,,,,2,,,72,58
799200,note_off,480,0,3,,,,,,,,,2,,,65,0
799320,note_off,120,0,2,,,,,,,,,1,,,82,0
799320,note_on,0,0,2,,,,,,,,,1,,,84,52
799440,note_on,0,0,3,,,,,,,,,2,,,70,58
799440,note_off,240,0,3,,,,,,,,,2,,,72,0
799440,note_on,0,0,1,,,,,,,,,0,,,92,55
799440,note_off,720,0,1,,,,,,,,,0,,,86,0
799440,note_on,0,0,2,,,,,,,,,1,,,82,51
799440,note_off,120,0,2,,,,,,,,,1,,,84,0
799560,note_on,0,0,2,,,,,,,,,1,,,84,51
799560,note_off,120,0,2,,,,,,,,,1,,,82,0
799680,note_off,120,0,2,,,,,,,,,1,,,84,0
799680,note_on,0,0,2,,,,,,,,,1,,,82,50
799800,note_off,120,0,2,,,,,,,,,1,,,82,0
799800,note_on,0,0,2,,,,,,,,,1,,,84,50
799920,note_off,120,0,2,,,,,,,,,1,,,84,0
799920,note_on,0,0,2,,,,,,,,,1,,,82,49
799920,note_off,480,0,3,,,,,,,,,2,,,70,0
799920,note_on,0,0,3,,,,,,,,,2,,,65,56
800040,note_off,120,0,2,,,,,,,,,1,,,82,0
800040,note_on,0,0,2,,,,,,,,,1,,,84,49
800100,set_tempo,2820,1,0,,,,,,413793,,,,,,,
800160,note_off,120,0,2,,,,,,,,,1,,,84,0
800160,set_tempo,60,1,0,,,,,,400000,,,,,,,
800160,note_off,240,0,3,,,,,,,,,2,,,65,0
800160,note_off,0,0,3,,,,,,,,,2,,,58,0
800160,note_on,0,0,3,,,,,,,,,2,,,63,60
800160,note_off,720,0,1,,,,,,,,,0,,,92,0
800280,note_on,0,0,3,,,,,,,,,2,,,67,60
800280,note_off,120,0,3,,,,,,,,,2,,,63,0
800400,note_on,0,0,1,,,,,,,,,0,,,91,62
800400,note_on,240,0,1,,,,,,,,,0,,,87,62
800400,note_off,120,0,3,,,,,,,,,2,,,67,0
800400,note_on,0,0,3,,,,,,,,,2,,,68,61
800520,note_off,120,0,3,,,,,,,,,2,,,68,0
800520,note_on,0,0,3,,,,,,,,,2,,,70,62
800592,note_off,0,0,1,,,,,,,,,0,,,87,0
800592,note_off,192,0,1,,,,,,,,,0,,,91,0
800640,note_on,0,0,1,,,,,,,,,0,,,91,63
800640,note_on,0,0,3,,,,,,,,,2,,,72,62
800640,note_on,48,0,1,,,,,,,,,0,,,87,63
800640,note_off,120,0,3,,,,,,,,,2,,,70,0
800760,note_off,120,0,3,,,,,,,,,2,,,72,0
800760,note_on,0,0,3,,,,,,,,,2,,,74,63
800832,note_off,0,0,1,,,,,,,,,0,,,87,0
800832,note_off,192,0,1,,,,,,,,,0,,,91,0
800880,note_on,0,0,3,,,,,,,,,2,,,75,63
800880,note_off,120,0,3,,,,,,,,,2,,,74,0
800880,note_on,48,0,1,,,,,,,,,0,,,87,64
800880,note_on,0,0,1,,,,,,,,,0,,,91,64
801000,note_off,120,0,3,,,,,,,,,2,,,75,0
801000,note_on,0,0,3,,,,,,,,,2,,,74,64
801072,note_off,0,0,1,,,,,,,,,0,,,87,0
801072,note_off,192,0,1,,,,,,,,,0,,,91,0
801120,note_off,120,0,3,,,,,,,,,2,,,74,0
801120,note_on,48,0,1,,,,,,,,,0,,,87,65
801120,note_on,0,0,1,,,,,,,,,0,,,91,65
801120,note_on,0,0,3,,,,,,,,,2,,,72,64
801240,note_on,0,0,3,,,,,,,,,2,,,70,65
801240,note_off,120,0,3,,,,,,,,,2,,,72,0
801312,note_off,192,0,1,,,,,,,,,0,,,91,0
801312,note_off,0,0,1,,,,,,,,,0,,,87,0
801360,note_on,0,0,3,,,,,,,,,2,,,68,66
801360,note_on,48,0,1,,,,,,,,,0,,,87,66
801360,note_off,120,0,3,,,,,,,,,2,,,70,0
801360,note_on,0,0,1,,,,,,,,,0,,,91,66
801480,note_off,120,0,3,,,,,,,,,2,,,68,0
801480,note_on,0,0,3,,,,,,,,,2,,,67,66
801540,set_tempo,1380,1,0,,,,,,402684,,,,,,,
801552,note_off,0,0,1,,,,,,,,,0,,,87,0
801552,note_off,192,0,1,,,,,,,,,0,,,91,0
801600,set_tempo,60,1,0,,,,,,400000,,,,,,,
801600,note_on,0,0,3,,,,,,,,,2,,,68,67
801600,note_off,120,0,3,,,,,,,,,2,,,67,0
801720,note_off,120,0,3,,,,,,,,,2,,,68,0
801720,note_on,0,0,3,,,,,,,,,2,,,72,67
801840,note_off,120,0,3,,,,,,,,,2,,,72,0
801840,note_on,0,0,3,,,,,,,,,2,,,74,68
801840,note_on,0,0,1,,,,,,,,,0,,,89,68
801840,note_on,288,0,1,,,,,,,,,0,,,87,68
801960,note_on,0,0,3,,,,,,,,,2,,,75,68
801960,note_off,120,0,3,,,,,,,,,2,,,74,0
802032,note_off,0,0,1,,,,,,,,,0,,,87,0
802032,note_off,192,0,1,,,,,,,,,0,,,89,0
802080,note_on,0,0,3,,,,,,,,,2,,,77,69
802080,note_on,48,0,1,,,,,,,,,0,,,87,69
802080,note_on,0,0,1,,,,,,,,,0,,,89,69
802080,note_off,120,0,3,,,,,,,,,2,,,75,0
802200,note_on,0,0,3,,,,,,,,,2,,,79,69
802200,note_off,120,0,3,,,,,,,,,2,,,77,0
802272,note_off,192,0,1,,,,,,,,,0,,,89,0
802272,note_off,0,0,1,,,,,,,,,0,,,87,0
802320,note_on,0,0,3,,,,,,,,,2,,,80,70
802320,note_off,120,0,3,,,,,,,,,2,,,79,0
802320,note_on,48,0,1,,,,,,,,,0,,,87,70
802320,note_on,0,0,1,,,,,,,,,0,,,89,70
802440,note_on,0,0,3,,,,,,,,,2,,,79,71
802440,note_off,120,0,3,,,,,,,,,2,,,80,0
802512,note_off,0,0,1,,,,,,,,,0,,,87,0
802512,note_off,192,0,1,,,,,,,,,0,,,89,0
802560,note_off,120,0,3,,,,,,,,,2,,,79,0
802560,note_on,0,0,3,,,,,,,,,2,,,77,71
802560,note_on,48,0,1,,,,,,,,,0,,,87,71
802560,note_on,0,0,1,,,,,,,,,0,,,89,71
802680,note_on,0,0,3,,,,,,,,,2,,,75,72
802680,note_off,120,0,3,,,,,,,,,2,,,77,0
802752,note_off,0,0,1,,,,,,,,,0,,,87,0
802752,note_off,192,0,1,,,,,,,,,0,,,89,0
802800,note_on,0,0,1,,,,,,,,,0,,,87,72
802800,note_on,0,0,3,,,,,,,,,2,,,74,72
802800,note_on,48,0,1,,,,,,,,,0,,,89,72
802800,note_off,120,0,3,,,,,,,,,2,,,75,0
802920,note_on,0,0,3,,,,,,,,,2,,,72,73
802920,note_off,120,0,3,,,,,,,,,2,,,74,0
802980,set_tempo,1380,1,0,,,,,,402684,,,,,,,
802992,note_off,192,0,1,,,,,,,,,0,,,87,0
802992,note_off,0,0,1,,,,,,,,,0,,,89,0
803040,set_tempo,60,1,0,,,,,,400000,,,,,,,
803040,note_on,0,0,3,,,,,,,,,2,,,70,74
803040,control_change,120,0,3,,,,,,,64,127,2,,,,
803040,note_off,0,0,3,,,,,,,,,2,,,72,0
803160,note_off,120,0,3,,,,,,,,,2,,,70,0
803160,note_on,0,0,3,,,,,,,,,2,,,58,76
803280,note_off,120,0,3,,,,,,,,,2,,,58,0
803280,note_on,0,0,1,,,,,,,,,0,,,91,75
803280,note_on,288,0,1,,,,,,,,,0,,,87,75
803280,note_on,0,0,3,,,,,,,,,2,,,63,77
803400,note_on,0,0,3,,,,,,,,,2,,,67,79
803400,note_off,120,0,3,,,,,,,,,2,,,63,0
803472,note_off,0,0,1,,,,,,,,,0,,,87,0
803472,note_off,192,0,1,,,,,,,,,0,,,91,0
803520,note_off,120,0,3,,,,,,,,,2,,,67,0
803520,note_on,0,0,1,,,,,,,,,0,,,91,80
803520,note_on,48,0,1,,,,,,,,,0,,,87,80
803520,note_on,0,0,3,,,,,,,,,2,,,70,81
803640,note_off,120,0,3,,,,,,,,,2,,,70,0
803640,note_on,0,0,3,,,,,,,,,2,,,75,83
803712,note_off,0,0,1,,,,,,,,,0,,,87,0
803712,note_off,192,0,1,,,,,,,,,0,,,91,0
803760,note_on,0,0,1,,,,,,,,,0,,,91,86
803760,note_off,120,0,3,,,,,,,,,2,,,75,0
803760,note_on,0,0,3,,,,,,,,,2,,,79,85
803760,note_on,48,0,1,,,,,,,,,0,,,87,86
803880,note_off,120,0,3,,,,,,,,,2,,,79,0
803880,note_on,0,0,3,,,,,,,,,2,,,75,83
803952,note_off,192,0,1,,,,,,,,,0,,,91,0
803952,note_off,0,0,1,,,,,,,,,0,,,87,0
804000,note_off,120,0,3,,,,,,,,,2,,,75,0
804000,note_on,0,0,3,,,,,,,,,2,,,82,82
804000,note_on,48,0,1,,,,,,,,,0,,,87,81
804000,note_on,0,0,1,,,,,,,,,0,,,91,81
804120,note_off,120,0,3,,,,,,,,,2,,,82,0
804120,note_on,0,0,3,,,,,,,,,2,,,79,80
804192,note_off,0,0,1,,,,,,,,,0,,,87,0
804192,note_off,192,0,1,,,,,,,,,0,,,91,0
804240,note_off,120,0,3,,,,,,,,,2,,,79,0
804240,note_on,0,0,3,,,,,,,,,2,,,75,79
804240,note_on,0,0,1,,,,,,,,,0,,,87,77
804240,note_on,48,0,1,,,,,,,,,0,,,91,77
804360,note_off,120,0,3,,,,,,,,,2,,,75,0
804360,note_on,0,0,3,,,,,,,,,2,,,70,77
804420,set_tempo,1380,1,0,,,,,,402684,,,,,,,
804432,note_off,0,0,1,,,,,,,,,0,,,91,0
804432,note_off,192,0,1,,,,,,,,,0,,,87,0
804480,note_on,0,0,1,,,,,,,,,0,,,86,73
804480,note_off,0,0,3,,,,,,,,,2,,,70,0
804480,note_on,48,0,1,,,,,,,,,0,,,89,73
804480,note_on,0,0,3,,,,,,,,,2,,,77,76
804480,note_on,0,0,3,,,,,,,,,2,,,70,76
804480,control_change,120,0,3,,,,,,,64,0,2,,,,
804560,note_on,80,0,3,,,,,,,,,2,,,79,75
804615,note_off,55,0,3,,,,,,,,,2,,,77,0
804640,note_on,25,0,3,,,,,,,,,2,,,77,74
804672,note_off,192,0,1,,,,,,,,,0,,,86,0
804672,note_off,0,0,1,,,,,,,,,0,,,89,0
804712,note_off,72,0,3,,,,,,,,,2,,,79,0
804720,note_on,8,0,3,,,,,,,,,2,,,79,73
804720,note_on,48,0,1,,,,,,,,,0,,,89,70
804720,note_on,0,0,1,,,,,,,,,0,,,86,70
804780,note_off,60,0,3,,,,,,,,,2,,,77,0
804800,note_on,20,0,3,,,,,,,,,2,,,77,72
804862,note_off,62,0,3,,,,,,,,,2,,,79,0
804880,note_on,18,0,3,,,,,,,,,2,,,79,71
804912,note_off,0,0,1,,,,,,,,,0,,,89,0
804912,note_off,192,0,1,,,,,,,,,0,,,86,0
804952,note_off,72,0,3,,,,,,,,,2,,,77,0
804960,note_on,48,0,1,,,,,,,,,0,,,86,66
804960,note_on,8,0,3,,,,,,,,,2,,,77,70
804960,note_on,0,0,1,,,,,,,,,0,,,89,66
805035,note_off,75,0,3,,,,,,,,,2,,,79,0
805040,note_on,5,0,3,,,,,,,,,2,,,79,69
805102,note_off,62,0,3,,,,,,,,,2,,,77,0
805120,note_on,18,0,3,,,,,,,,,2,,,77,68
805152,note_off,192,0,1,,,,,,,,,0,,,89,0
805152,note_off,0,0,1,,,,,,,,,0,,,86,0
805170,note_off,50,0,3,,,,,,,,,2,,,79,0
805200,note_on,48,0,1,,,,,,,,,0,,,86,62
805200,note_on,0,0,1,,,,,,,,,0,,,89,62
805200,note_on,30,0,3,,,,,,,,,2,,,79,67
805267,note_off,67,0,3,,,,,,,,,2,,,77,0
805280,note_on,13,0,3,,,,,,,,,2,,,77,66
805342,note_off,62,0,3,,,,,,,,,2,,,79,0
805360,note_on,18,0,3,,,,,,,,,2,,,79,65
805392,note_off,0,0,1,,,,,,,,,0,,,86,0
805392,note_off,192,0,1,,,,,,,,,0,,,89,0
805425,note_off,65,0,3,,,,,,,,,2,,,77,0
805440,note_on,15,0,3,,,,,,,,,2,,,77,64
805440,note_on,48,0,1,,,,,,,,,0,,,89,58
805440,note_on,0,0,1,,,,,,,,,0,,,86,58
805507,note_off,67,0,3,,,,,,,,,2,,,79,0
805520,note_on,13,0,3,,,,,,,,,2,,,79,63
805575,note_off,55,0,3,,,,,,,,,2,,,77,0
805600,note_on,25,0,3,,,,,,,,,2,,,77,62
805632,note_off,0,0,1,,,,,,,,,0,,,89,0
805632,note_off,192,0,1,,,,,,,,,0,,,86,0
805657,note_off,57,0,3,,,,,,,,,2,,,79,0
805680,note_on,48,0,1,,,,,,,,,0,,,86,55
805680,note_on,0,0,1,,,,,,,,,0,,,89,55
805680,note_on,23,0,3,,,,,,,,,2,,,75,61
805770,note_off,90,0,3,,,,,,,,,2,,,77,0
805800,note_on,30,0,3,,,,,,,,,2,,,77,59
805860,set_tempo,1440,1,0,,,,,,419580,,,,,,,
805872,note_off,192,0,1,,,,,,,,,0,,,89,0
805872,note_off,0,0,1,,,,,,,,,0,,,86,0
805882,note_off,82,0,3,,,,,,,,,2,,,75,0
805897,note_off,15,0,3,,,,,,,,,2,,,70,0
805920,set_tempo,60,1,0,,,,,,400000,,,,,,,
805920,note_off,23,0,3,,,,,,,,,2,,,77,0
805920,note_on,0,0,3,,,,,,,,,2,,,70,58
806040,note_on,0,0,3,,,,,,,,,2,,,76,56
806040,note_off,120,0,3,,,,,,,,,2,,,70,0
806160,note_on,0,0,3,,,,,,,,,2,,,77,56
806160,note_off,120,0,3,,,,,,,,,2,,,76,0
806280,note_off,120,0,3,,,,,,,,,2,,,77,0
806280,note_on,0,0,3,,,,,,,,,2,,,79,56
806400,note_on,528,0,1,,,,,,,,,0,,,85,54
806400,note_off,120,0,3,,,,,,,,,2,,,79,0
806400,note_on,0,0,3,,,,,,,,,2,,,77,57
806400,note_on,0,0,1,,,,,,,,,0,,,97,54
806520,note_off,120,0,3,,,,,,,,,2,,,77,0
806520,note_on,0,0,3,,,,,,,,,2,,,76,57
806640,note_off,120,0,3,,,,,,,,,2,,,76,0
806640,note_on,0,0,3,,,,,,,,,2,,,68,57
806760,note_off,120,0,3,,,,,,,,,2,,,68,0
806760,note_on,0,0,3,,,,,,,,,2,,,77,58
806880,note_on,0,0,3,,,,,,,,,2,,,79,58
806880,note_off,120,0,3,,,,,,,,,2,,,77,0
807000,note_off,120,0,3,,,,,,,,,2,,,79,0
807000,note_on,0,0,3,,,,,,,,,2,,,80,58
807120,note_off,120,0,3,,,,,,,,,2,,,80,0
807120,note_off,720,0,1,,,,,,,,,0,,,97,0
807120,note_on,0,0,3,,,,,,,,,2,,,79,59
807120,note_off,0,0,1,,,,,,,,,0,,,85,0
807120,note_on,0,0,1,,,,,,,,,0,,,84,56
807120,note_on,0,0,1,,,,,,,,,0,,,96,56
807240,note_off,120,0,3,,,,,,,,,2,,,79,0
807240,note_on,0,0,3,,,,,,,,,2,,,77,59
807360,note_off,240,0,1,,,,,,,,,0,,,96,0
807360,note_off,120,0,3,,,,,,,,,2,,,77,0
807360,note_off,0,0,1,,,,,,,,,0,,,84,0
807360,note_on,0,0,3,,,,,,,,,2,,,56,59
807480,note_on,0,0,3,,,,,,,,,2,,,62,60
807480,note_off,120,0,3,,,,,,,,,2,,,56,0
807600,note_on,0,0,3,,,,,,,,,2,,,63,60
807600,note_off,120,0,3,,,,,,,,,2,,,62,0
807720,note_on,0,0,3,,,,,,,,,2,,,65,60
807720,note_off,120,0,3,,,,,,,,,2,,,63,0
807840,note_off,120,0,3,,,,,,,,,2,,,65,0
807840,note_on,480,0,1,,,,,,,,,0,,,83,59
807840,note_on,0,0,3,,,,,,,,,2,,,63,61
807840,note_on,0,0,1,,,,,,,,,0,,,95,59
807960,note_on,0,0,3,,,,,,,,,2,,,62,61
807960,note_off,120,0,3,,,,,,,,,2,,,63,0
808080,note_on,0,0,3,,,,,,,,,2,,,55,61
808080,note_off,120,0,3,,,,,,,,,2,,,62,0
808200,note_on,0,0,3,,,,,,,,,2,,,63,62
808200,note_off,120,0,3,,,,,,,,,2,,,55,0
808320,note_off,120,0,3,,,,,,,,,2,,,63,0
808320,note_on,0,0,3,,,,,,,,,2,,,65,62
808440,note_off,120,0,3,,,,,,,,,2,,,65,0
808440,note_on,0,0,3,,,,,,,,,2,,,67,62
808560,note_off,120,0,3,,,,,,,,,2,,,67,0
808560,note_on,0,0,1,,,,,,,,,0,,,94,61
808560,note_on,0,0,1,,,,,,,,,0,,,82,61
808560,note_off,0,0,1,,,,,,,,,0,,,83,0
808560,note_off,720,0,1,,,,,,,,,0,,,95,0
808560,note_on,0,0,3,,,,,,,,,2,,,65,63
808680,note_off,120,0,3,,,,,,,,,2,,,65,0
808680,note_on,0,0,3,,,,,,,,,2,,,63,63
808740,set_tempo,2820,1,0,,,,,,402684,,,,,,,
808800,note_off,240,0,1,,,,,,,,,0,,,94,0
808800,note_off,120,0,3,,,,,,,,,2,,,63,0
808800,note_on,0,0,3,,,,,,,,,2,,,46,63
808800,note_off,0,0,1,,,,,,,,,0,,,82,0
808800,set_tempo,60,1,0,,,,,,400000,,,,,,,
808920,note_on,120,0,3,,,,,,,,,2,,,52,64
809032,note_off,112,0,3,,,,,,,,,2,,,46,0
809040,note_off,8,0,3,,,,,,,,,2,,,52,0
809040,note_on,0,0,3,,,,,,,,,2,,,53,64
809160,note_off,120,0,3,,,,,,,,,2,,,53,0
809160,note_on,0,0,3,,,,,,,,,2,,,55,64
809280,note_on,0,0,1,,,,,,,,,0,,,61,63
809280,note_on,480,0,1,,,,,,,,,0,,,73,63
809280,note_off,120,0,3,,,,,,,,,2,,,55,0
809280,note_on,0,0,3,,,,,,,,,2,,,53,65
809400,note_off,120,0,3,,,,,,,,,2,,,53,0
809400,note_on,0,0,3,,,,,,,,,2,,,52,65
809520,note_off,120,0,3,,,,,,,,,2,,,52,0
809520,note_on,0,0,3,,,,,,,,,2,,,44,66
809640,note_on,120,0,3,,,,,,,,,2,,,53,66
809760,note_off,120,0,3,,,,,,,,,2,,,53,0
809760,note_on,0,0,3,,,,,,,,,2,,,55,66
809767,note_off,7,0,3,,,,,,,,,2,,,44,0
809880,note_on,0,0,3,,,,,,,,,2,,,56,67
809880,note_off,113,0,3,,,,,,,,,2,,,55,0
810000,note_on,0,0,3,,,,,,,,,2,,,55,67
810000,note_on,0,0,1,,,,,,,,,0,,,72,65
810000,note_on,0,0,1,,,,,,,,,0,,,60,65
810000,note_off,0,0,1,,,,,,,,,0,,,73,0
810000,note_off,720,0,1,,,,,,,,,0,,,61,0
810000,note_off,120,0,3,,,,,,,,,2,,,56,0
810120,note_on,0,0,3,,,,,,,,,2,,,53,67
810120,note_off,120,0,3,,,,,,,,,2,,,55,0
810240,note_off,240,0,1,,,,,,,,,0,,,72,0
810240,note_off,0,0,1,,,,,,,,,0,,,60,0
810240,note_off,120,0,3,,,,,,,,,2,,,53,0
810240,note_on,0,0,3,,,,,,,,,2,,,32,68
810360,note_on,120,0,3,,,,,,,,,2,,,38,68
810480,note_off,120,0,3,,,,,,,,,2,,,38,0
810480,note_on,0,0,3,,,,,,,,,2,,,39,68
810487,note_off,7,0,3,,,,,,,,,2,,,32,0
810600,note_off,113,0,3,,,,,,,,,2,,,39,0
810600,note_on,0,0,3,,,,,,,,,2,,,41,69
810720,note_on,480,0,1,,,,,,,,,0,,,47,68
810720,note_off,120,0,3,,,,,,,,,2,,,41,0
810720,note_on,0,0,3,,,,,,,,,2,,,39,69
810720,note_on,0,0,1,,,,,,,,,0,,,59,68
810840,note_on,0,0,3,,,,,,,,,2,,,38,69
810840,note_off,120,0,3,,,,,,,,,2,,,39,0
810960,note_on,0,0,3,,,,,,,,,2,,,31,70
810960,note_off,120,0,3,,,,,,,,,2,,,38,0
811080,note_on,120,0,3,,,,,,,,,2,,,39,70
811200,note_on,0,0,3,,,,,,,,,2,,,41,70
811200,note_off,120,0,3,,,,,,,,,2,,,39,0
811222,note_off,22,0,3,,,,,,,,,2,,,31,0
811320,note_off,98,0,3,,,,,,,,,2,,,41,0
811320,note_on,0,0,3,,,,,,,,,2,,,43,71
811440,note_off,120,0,3,,,,,,,,,2,,,43,0
811440,note_on,0,0,3,,,,,,,,,2,,,41,71
811440,note_off,0,0,1,,,,,,,,,0,,,47,0
811440,note_on,0,0,1,,,,,,,,,0,,,46,70
811440,note_on,0,0,1,,,,,,,,,0,,,58,70
811440,note_off,720,0,1,,,,,,,,,0,,,59,0
811560,note_on,0,0,3,,,,,,,,,2,,,39,71
811560,note_off,120,0,3,,,,,,,,,2,,,41,0
811620,set_tempo,2820,1,0,,,,,,408163,,,,,,,
811680,set_tempo,60,1,0,,,,,,400000,,,,,,,
811680,note_off,120,0,3,,,,,,,,,2,,,39,0
811680,note_off,240,0,1,,,,,,,,,0,,,58,0
811680,note_on,0,0,3,,,,,,,,,2,,,31,72
811680,note_off,0,0,1,,,,,,,,,0,,,46,0
811800,note_on,120,0,3,,,,,,,,,2,,,34,72
811920,note_off,120,0,3,,,,,,,,,2,,,34,0
811920,note_on,0,0,1,,,,,,,,,0,,,70,71
811920,note_on,0,0,3,,,,,,,,,2,,,39,72
811920,note_on,240,0,1,,,,,,,,,0,,,58,71
811935,note_off,15,0,3,,,,,,,,,2,,,31,0
812040,note_on,0,0,3,,,,,,,,,2,,,43,73
812040,note_off,105,0,3,,,,,,,,,2,,,39,0
812112,note_off,192,0,1,,,,,,,,,0,,,70,0
812112,note_off,0,0,1,,,,,,,,,0,,,58,0
812160,note_on,0,0,3,,,,,,,,,2,,,39,73
812160,note_on,0,0,1,,,,,,,,,0,,,70,72
812160,note_on,48,0,1,,,,,,,,,0,,,58,72
812160,note_off,120,0,3,,,,,,,,,2,,,43,0
812280,note_off,120,0,3,,,,,,,,,2,,,39,0
812280,note_on,0,0,3,,,,,,,,,2,,,34,73
812352,note_off,0,0,1,,,,,,,,,0,,,58,0
812352,note_off,192,0,1,,,,,,,,,0,,,70,0
812400,note_on,120,0,3,,,,,,,,,2,,,36,74
812422,note_off,22,0,3,,,,,,,,,2,,,34,0
812520,note_on,98,0,3,,,,,,,,,2,,,39,74
812640,note_on,288,0,1,,,,,,,,,0,,,56,74
812640,note_on,0,0,1,,,,,,,,,0,,,68,74
812640,note_off,120,0,3,,,,,,,,,2,,,39,0
812640,note_on,0,0,3,,,,,,,,,2,,,43,74
812647,note_off,7,0,3,,,,,,,,,2,,,36,0
812760,note_off,113,0,3,,,,,,,,,2,,,43,0
812760,note_on,0,0,3,,,,,,,,,2,,,48,75
812832,note_off,0,0,1,,,,,,,,,0,,,56,0
812832,note_off,192,0,1,,,,,,,,,0,,,68,0
812880,note_on,0,0,1,,,,,,,,,0,,,67,75
812880,note_on,48,0,1,,,,,,,,,0,,,55,75
812880,note_on,0,0,3,,,,,,,,,2,,,43,75
812880,note_off,120,0,3,,,,,,,,,2,,,48,0
813000,note_on,0,0,3,,,,,,,,,2,,,39,75
813000,note_off,120,0,3,,,,,,,,,2,,,43,0
813072,note_off,192,0,1,,,,,,,,,0,,,67,0
813072,note_off,0,0,1,,,,,,,,,0,,,55,0
813120,note_on,0,0,3,,,,,,,,,2,,,32,76
813120,note_off,120,0,3,,,,,,,,,2,,,39,0
813240,note_on,120,0,3,,,,,,,,,2,,,36,76
813360,note_off,0,0,3,,,,,,,,,2,,,32,0
813360,note_on,0,0,3,,,,,,,,,2,,,41,76
813360,note_off,120,0,3,,,,,,,,,2,,,36,0
813360,note_on,0,0,1,,,,,,,,,0,,,67,76
813360,note_on,288,0,1,,,,,,,,,0,,,55,76
813480,note_off,120,0,3,,,,,,,,,2,,,41,0
813480,note_on,0,0,3,,,,,,,,,2,,,44,77
813552,note_off,0,0,1,,,,,,,,,0,,,55,0
813552,note_off,192,0,1,,,,,,,,,0,,,67,0
813600,note_off,120,0,3,,,,,,,,,2,,,44,0
813600,note_on,0,0,3,,,,,,,,,2,,,41,77
813600,note_on,48,0,1,,,,,,,,,0,,,53,77
813600,note_on,0,0,1,,,,,,,,,0,,,65,77
813720,note_off,120,0,3,,,,,,,,,2,,,41,0
813720,note_on,0,0,3,,,,,,,,,2,,,36,77
813792,note_off,0,0,1,,,,,,,,,0,,,53,0
813792,note_off,192,0,1,,,,,,,,,0,,,65,0
813840,note_off,120,0,3,,,,,,,,,2,,,36,0
813840,note_on,0,0,3,,,,,,,,,2,,,34,78
813960,note_on,120,0,3,,,,,,,,,2,,,41,78
814080,note_on,288,0,1,,,,,,,,,0,,,51,78
814080,note_off,120,0,3,,,,,,,,,2,,,41,0
814080,note_off,0,0,3,,,,,,,,,2,,,34,0
814080,note_on,0,0,3,,,,,,,,,2,,,44,78
814080,note_on,0,0,1,,,,,,,,,0,,,63,78
814200,note_off,120,0,3,,,,,,,,,2,,,44,0
814200,note_on,0,0,3,,,,,,,,,2,,,46,79
814272,note_off,0,0,1,,,,,,,,,0,,,51,0
814272,note_off,192,0,1,,,,,,,,,0,,,63,0
814320,note_on,0,0,3,,,,,,,,,2,,,44,79
814320,note_off,120,0,3,,,,,,,,,2,,,46,0
814320,note_on,48,0,1,,,,,,,,,0,,,50,79
814320,note_on,0,0,1,,,,,,,,,0,,,62,79
814440,note_on,0,0,3,,,,,,,,,2,,,41,79
814440,note_off,120,0,3,,,,,,,,,2,,,44,0
814500,set_tempo,2820,1,0,,,,,,402684,,,,,,,
814512,note_off,0,0,1,,,,,,,,,0,,,50,0
814512,note_off,192,0,1,,,,,,,,,0,,,62,0
814560,note_on,0,0,3,,,,,,,,,2,,,43,80
814560,note_off,120,0,3,,,,,,,,,2,,,41,0
814560,set_tempo,60,1,0,,,,,,400000,,,,,,,
814680,note_on,120,0,3,,,,,,,,,2,,,46,80
814800,note_on,0,0,3,,,,,,,,,2,,,51,80
814800,note_on,288,0,1,,,,,,,,,0,,,50,81
814800,note_on,0,0,1,,,,,,,,,0,,,62,81
814800,note_off,120,0,3,,,,,,,,,2,,,46,0
814807,note_off,7,0,3,,,,,,,,,2,,,43,0
814920,note_on,0,0,3,,,,,,,,,2,,,55,81
814920,note_off,113,0,3,,,,,,,,,2,,,51,0
814992,note_off,0,0,1,,,,,,,,,0,,,50,0
814992,note_off,192,0,1,,,,,,,,,0,,,62,0
815040,note_on,48,0,1,,,,,,,,,0,,,62,81
815040,note_on,0,0,1,,,,,,,,,0,,,50,81
815040,note_on,0,0,3,,,,,,,,,2,,,51,81
815040,note_off,120,0,3,,,,,,,,,2,,,55,0
815160,note_on,0,0,3,,,,,,,,,2,,,46,81
815160,note_off,120,0,3,,,,,,,,,2,,,51,0
815232,note_off,192,0,1,,,,,,,,,0,,,50,0
815232,note_off,0,0,1,,,,,,,,,0,,,62,0
815280,note_off,120,0,3,,,,,,,,,2,,,46,0
815280,note_on,0,0,3,,,,,,,,,2,,,48,82
815400,note_on,120,0,3,,,,,,,,,2,,,51,82
815512,note_off,112,0,3,,,,,,,,,2,,,48,0
815520,note_on,0,0,1,,,,,,,,,0,,,60,83
815520,note_on,288,0,1,,,,,,,,,0,,,48,83
815520,note_on,0,0,3,,,,,,,,,2,,,55,82
815520,note_off,8,0,3,,,,,,,,,2,,,51,0
815640,note_on,0,0,3,,,,,,,,,2,,,60,83
815640,note_off,120,0,3,,,,,,,,,2,,,55,0
815712,note_off,0,0,1,,,,,,,,,0,,,48,0
815712,note_off,192,0,1,,,,,,,,,0,,,60,0
815760,note_on,0,0,1,,,,,,,,,0,,,46,84
815760,note_on,0,0,3,,,,,,,,,2,,,55,83
815760,note_on,48,0,1,,,,,,,,,0,,,58,84
815760,note_off,120,0,3,,,,,,,,,2,,,60,0
815880,note_on,0,0,3,,,,,,,,,2,,,51,83
815880,note_off,120,0,3,,,,,,,,,2,,,55,0
815952,note_off,0,0,1,,,,,,,,,0,,,58,0
815952,note_off,192,0,1,,,,,,,,,0,,,46,0
816000,note_on,0,0,3,,,,,,,,,2,,,44,84
816000,note_off,120,0,3,,,,,,,,,2,,,51,0
816120,note_on,120,0,3,,,,,,,,,2,,,48,84
816240,note_off,0,0,3,,,,,,,,,2,,,44,0
816240,note_on,0,0,1,,,,,,,,,0,,,58,85
816240,note_on,0,0,3,,,,,,,,,2,,,53,84
816240,note_off,120,0,3,,,,,,,,,2,,,48,0
816240,note_on,288,0,1,,,,,,,,,0,,,46,85
816360,note_off,120,0,3,,,,,,,,,2,,,53,0
816360,note_on,0,0,3,,,,,,,,,2,,,56,85
816432,note_off,192,0,1,,,,,,,,,0,,,58,0
816432,note_off,0,0,1,,,,,,,,,0,,,46,0
816480,note_on,0,0,1,,,,,,,,,0,,,56,86
816480,note_on,48,0,1,,,,,,,,,0,,,44,86
816480,note_on,0,0,3,,,,,,,,,2,,,53,85
816480,note_off,120,0,3,,,,,,,,,2,,,56,0
816600,note_on,0,0,3,,,,,,,,,2,,,48,85
816600,note_off,120,0,3,,,,,,,,,2,,,53,0
816672,note_off,0,0,1,,,,,,,,,0,,,44,0
816672,note_off,192,0,1,,,,,,,,,0,,,56,0
816720,note_on,0,0,3,,,,,,,,,2,,,34,86
816720,note_off,120,0,3,,,,,,,,,2,,,48,0
816840,note_on,120,0,3,,,,,,,,,2,,,41,86
816952,note_off,112,0,3,,,,,,,,,2,,,34,0
816960,note_on,0,0,3,,,,,,,,,2,,,44,86
816960,note_off,8,0,3,,,,,,,,,2,,,41,0
816960,note_on,288,0,1,,,,,,,,,0,,,43,87
816960,note_on,0,0,1,,,,,,,,,0,,,55,87
817080,note_off,120,0,3,,,,,,,,,2,,,44,0
817080,note_on,0,0,3,,,,,,,,,2,,,46,87
817152,note_off,0,0,1,,,,,,,,,0,,,43,0
817152,note_off,192,0,1,,,,,,,,,0,,,55,0
817200,note_off,120,0,3,,,,,,,,,2,,,46,0
817200,note_on,0,0,3,,,,,,,,,2,,,44,87
817200,note_on,0,0,1,,,,,,,,,0,,,53,88
817200,set_tempo,2640,1,0,,,,,,402684,,,,,,,
817200,note_on,48,0,1,,,,,,,,,0,,,41,88
817320,note_off,120,0,3,,,,,,,,,2,,,44,0
817320,note_on,0,0,3,,,,,,,,,2,,,41,87
817380,set_tempo,180,1,0,,,,,,408163,,,,,,,
817392,note_off,0,0,1,,,,,,,,,0,,,41,0
817392,note_off,192,0,1,,,,,,,,,0,,,53,0
817440,note_off,120,0,3,,,,,,,,,2,,,41,0
817440,note_on,0,0,3,,,,,,,,,2,,,31,88
817440,set_tempo,60,1,0,,,,,,400000,,,,,,,
817560,note_on,120,0,3,,,,,,,,,2,,,34,88
817680,note_on,288,0,1,,,,,,,,,0,,,75,90
817680,note_on,0,0,1,,,,,,,,,0,,,63,90
817680,note_on,0,0,3,,,,,,,,,2,,,39,88
817680,note_off,120,0,3,,,,,,,,,2,,,34,0
817680,note_on,0,0,1,,,,,,,,,0,,,67,90
817687,note_off,7,0,3,,,,,,,,,2,,,31,0
817800,note_off,113,0,3,,,,,,,,,2,,,39,0
817800,note_on,0,0,3,,,,,,,,,2,,,43,89
817872,note_off,0,0,1,,,,,,,,,0,,,75,0
817872,note_off,0,0,1,,,,,,,,,0,,,63,0
817872,note_off,192,0,1,,,,,,,,,0,,,67,0
817920,note_on,0,0,1,,,,,,,,,0,,,67,91
817920,note_on,0,0,1,,,,,,,,,0,,,63,91
817920,note_on,0,0,3,,,,,,,,,2,,,39,89
817920,note_off,120,0,3,,,,,,,,,2,,,43,0
817920,note_on,48,0,1,,,,,,,,,0,,,70,91
818040,note_on,0,0,3,,,,,,,,,2,,,34,89
818040,note_off,120,0,3,,,,,,,,,2,,,39,0
818112,note_off,192,0,1,,,,,,,,,0,,,67,0
818112,note_off,0,0,1,,,,,,,,,0,,,70,0
818112,note_off,0,0,1,,,,,,,,,0,,,63,0
818160,note_off,120,0,3,,,,,,,,,2,,,34,0
818160,note_on,0,0,3,,,,,,,,,2,,,36,90
818280,note_on,120,0,3,,,,,,,,,2,,,39,90
818400,note_on,288,0,1,,,,,,,,,0,,,68,92
818400,note_on,0,0,1,,,,,,,,,0,,,63,92
818400,note_on,0,0,1,,,,,,,,,0,,,60,92
818400,note_on,0,0,3,,,,,,,,,2,,,43,90
818400,note_off,120,0,3,,,,,,,,,2,,,39,0
818415,note_off,15,0,3,,,,,,,,,2,,,36,0
818520,note_off,105,0,3,,,,,,,,,2,,,43,0
818520,note_on,0,0,3,,,,,,,,,2,,,48,91
818592,note_off,0,0,1,,,,,,,,,0,,,68,0
818592,note_off,0,0,1,,,,,,,,,0,,,63,0
818592,note_off,192,0,1,,,,,,,,,0,,,60,0
818640,note_on,0,0,1,,,,,,,,,0,,,60,93
818640,note_on,48,0,1,,,,,,,,,0,,,63,93
818640,note_off,120,0,3,,,,,,,,,2,,,48,0
818640,note_on,0,0,1,,,,,,,,,0,,,67,93
818640,note_on,0,0,3,,,,,,,,,2,,,43,91
818760,note_on,0,0,3,,,,,,,,,2,,,39,91
818760,note_off,120,0,3,,,,,,,,,2,,,43,0
818820,set_tempo,1380,1,0,,,,,,402684,,,,,,,
818832,note_off,192,0,1,,,,,,,,,0,,,60,0
818832,note_off,0,0,1,,,,,,,,,0,,,67,0
818832,note_off,0,0,1,,,,,,,,,0,,,63,0
818880,note_off,120,0,3,,,,,,,,,2,,,39,0
818880,note_on,0,0,3,,,,,,,,,2,,,32,92
819000,note_on,120,0,3,,,,,,,,,2,,,36,92
819120,note_off,120,0,3,,,,,,,,,2,,,36,0
819120,note_on,0,0,3,,,,,,,,,2,,,41,92
819120,note_on,288,0,1,,,,,,,,,0,,,56,94
819120,note_on,0,0,1,,,,,,,,,0,,,67,94
819120,note_on,0,0,1,,,,,,,,,0,,,60,94
819135,note_off,15,0,3,,,,,,,,,2,,,32,0
819240,note_off,105,0,3,,,,,,,,,2,,,41,0
819240,note_on,0,0,3,,,,,,,,,2,,,44,93
819312,note_off,192,0,1,,,,,,,,,0,,,60,0
819312,note_off,0,0,1,,,,,,,,,0,,,56,0
819312,note_off,0,0,1,,,,,,,,,0,,,67,0
819360,note_on,48,0,1,,,,,,,,,0,,,56,95
819360,note_on,0,0,1,,,,,,,,,0,,,65,95
819360,note_on,0,0,1,,,,,,,,,0,,,60,95
819360,note_on,0,0,3,,,,,,,,,2,,,41,93
819360,note_off,120,0,3,,,,,,,,,2,,,44,0
819480,note_on,0,0,3,,,,,,,,,2,,,36,93
819480,note_off,120,0,3,,,,,,,,,2,,,41,0
819552,note_off,192,0,1,,,,,,,,,0,,,60,0
819552,note_off,0,0,1,,,,,,,,,0,,,65,0
819552,note_off,0,0,1,,,,,,,,,0,,,56,0
819600,note_on,0,0,3,,,,,,,,,2,,,34,94
819600,note_off,120,0,3,,,,,,,,,2,,,36,0
819720,note_on,120,0,3,,,,,,,,,2,,,41,94
819825,note_off,105,0,3,,,,,,,,,2,,,34,0
819840,note_on,0,0,1,,,,,,,,,0,,,53,97
819840,note_on,0,0,3,,,,,,,,,2,,,44,94
819840,note_on,0,0,1,,,,,,,,,0,,,56,97
819840,note_off,15,0,3,,,,,,,,,2,,,41,0
819840,note_on,288,0,1,,,,,,,,,0,,,63,97
819960,note_off,120,0,3,,,,,,,,,2,,,44,0
819960,note_on,0,0,3,,,,,,,,,2,,,46,95
820032,note_off,0,0,1,,,,,,,,,0,,,53,0
820032,note_off,0,0,1,,,,,,,,,0,,,63,0
820032,note_off,192,0,1,,,,,,,,,0,,,56,0
820080,note_on,48,0,1,,,,,,,,,0,,,56,97
820080,note_on,0,0,3,,,,,,,,,2,,,34,95
820080,note_off,120,0,3,,,,,,,,,2,,,46,0
820080,note_on,0,0,1,,,,,,,,,0,,,53,97
820080,note_on,0,0,1,,,,,,,,,0,,,62,97
820080,set_tempo,1260,1,0,,,,,,413793,,,,,,,
820200,note_on,120,0,3,,,,,,,,,2,,,46,95
820260,set_tempo,180,1,0,,,,,,419580,,,,,,,
820272,note_off,0,0,1,,,,,,,,,0,,,56,0
820272,note_off,0,0,1,,,,,,,,,0,,,53,0
820272,note_off,192,0,1,,,,,,,,,0,,,62,0
820305,note_off,105,0,3,,,,,,,,,2,,,34,0
820320,note_on,0,0,3,,,,,,,,,2,,,39,114
820320,set_tempo,60,1,0,,,,,,400000,,,,,,,
820320,note_on,48,0,1,,,,,,,,,0,,,51,102
820320,note_off,15,0,3,,,,,,,,,2,,,46,0
820440,note_on,0,0,1,,,,,,,,,0,,,53,93
820440,note_off,120,0,1,,,,,,,,,0,,,51,0
820560,note_off,240,0,3,,,,,,,,,2,,,39,0
820560,note_off,120,0,1,,,,,,,,,0,,,53,0
820560,note_on,0,0,1,,,,,,,,,0,,,55,93
820560,note_on,0,0,3,,,,,,,,,2,,,51,95
820680,note_on,0,0,1,,,,,,,,,0,,,56,93
820680,note_off,120,0,1,,,,,,,,,0,,,55,0
820800,note_on,0,0,1,,,,,,,,,0,,,58,93
820800,note_off,240,0,3,,,,,,,,,2,,,51,0
820800,note_off,120,0,1,,,,,,,,,0,,,56,0
820800,note_on,0,0,3,,,,,,,,,2,,,51,95
820800,note_on,0,0,3,,,,,,,,,2,,,55,95
820880,note_on,0,0,1,,,,,,,,,0,,,60,93
820880,note_off,80,0,1,,,,,,,,,0,,,58,0
820960,note_off,80,0,1,,,,,,,,,0,,,60,0
820960,note_on,0,0,1,,,,,,,,,0,,,62,93
820980,set_tempo,660,1,0,,,,,,402684,,,,,,,
821040,note_on,0,0,1,,,,,,,,,0,,,63,103
821040,note_off,80,0,1,,,,,,,,,0,,,62,0
821040,note_on,0,0,3,,,,,,,,,2,,,51,118
821040,note_off,0,0,3,,,,,,,,,2,,,55,0
821040,note_on,0,0,3,,,,,,,,,2,,,58,118
821040,note_on,0,0,3,,,,,,,,,2,,,55,118
821040,set_tempo,60,1,0,,,,,,400000,,,,,,,
821040,note_off,240,0,3,,,,,,,,,2,,,51,0
821120,note_off,80,0,1,,,,,,,,,0,,,63,0
821120,note_on,0,0,1,,,,,,,,,0,,,65,94
821200,note_off,80,0,1,,,,,,,,,0,,,65,0
821200,note_on,0,0,1,,,,,,,,,0,,,67,94
821280,note_on,0,0,1,,,,,,,,,0,,,68,94
821280,note_off,80,0,1,,,,,,,,,0,,,67,0
821360,note_off,80,0,1,,,,,,,,,0,,,68,0
821360,note_on,0,0,1,,,,,,,,,0,,,70,94
821440,note_off,80,0,1,,,,,,,,,0,,,70,0
821440,note_on,0,0,1,,,,,,,,,0,,,72,94
821520,note_on,0,0,3,,,,,,,,,2,,,53,95
821520,note_off,80,0,1,,,,,,,,,0,,,72,0
821520,note_on,0,0,1,,,,,,,,,0,,,74,94
821520,note_off,0,0,3,,,,,,,,,2,,,55,0
821520,note_off,0,0,3,,,,,,,,,2,,,58,0
821520,note_on,0,0,3,,,,,,,,,2,,,46,95
821520,note_on,0,0,3,,,,,,,,,2,,,58,95
821520,note_off,480,0,3,,,,,,,,,2,,,51,0
821640,note_on,0,0,1,,,,,,,,,0,,,62,95
821640,note_off,120,0,1,,,,,,,,,0,,,74,0
821760,note_off,0,0,3,,,,,,,,,2,,,53,0
821760,note_on,0,0,1,,,,,,,,,0,,,63,95
821760,note_off,120,0,1,,,,,,,,,0,,,62,0
821760,note_on,0,0,3,,,,,,,,,2,,,51,95
821760,note_on,0,0,3,,,,,,,,,2,,,55,95
821760,note_off,0,0,3,,,,,,,,,2,,,46,0
821760,note_off,240,0,3,,,,,,,,,2,,,58,0
821760,note_on,0,0,3,,,,,,,,,2,,,58,95
821880,note_on,0,0,1,,,,,,,,,0,,,65,95
821880,note_off,120,0,1,,,,,,,,,0,,,63,0
822000,note_on,0,0,1,,,,,,,,,0,,,67,95
822000,note_off,120,0,1,,,,,,,,,0,,,65,0
822000,note_off,0,0,3,,,,,,,,,2,,,51,0
822000,note_off,0,0,3,,,,,,,,,2,,,58,0
822000,note_off,240,0,3,,,,,,,,,2,,,55,0
822000,note_on,0,0,3,,,,,,,,,2,,,58,95
822000,note_on,0,0,3,,,,,,,,,2,,,55,95
822000,note_on,0,0,3,,,,,,,,,2,,,51,95
822120,note_on,0,0,1,,,,,,,,,0,,,68,95
822120,note_off,120,0,1,,,,,,,,,0,,,67,0
822240,note_on,0,0,1,,,,,,,,,0,,,70,96
822240,note_off,120,0,1,,,,,,,,,0,,,68,0
822240,note_on,0,0,3,,,,,,,,,2,,,51,95
822240,note_off,0,0,3,,,,,,,,,2,,,58,0
822240,note_off,240,0,3,,,,,,,,,2,,,55,0
822240,note_on,0,0,3,,,,,,,,,2,,,55,95
822240,note_off,0,0,3,,,,,,,,,2,,,51,0
822240,note_on,0,0,3,,,,,,,,,2,,,58,95
822320,note_off,80,0,1,,,,,,,,,0,,,70,0
822320,note_on,0,0,1,,,,,,,,,0,,,72,96
822400,note_off,80,0,1,,,,,,,,,0,,,72,0
822400,note_on,0,0,1,,,,,,,,,0,,,74,96
822420,set_tempo,1380,1,0,,,,,,402684,,,,,,,
822480,set_tempo,60,1,0,,,,,,400000,,,,,,,
822480,note_off,80,0,1,,,,,,,,,0,,,74,0
822480,note_on,0,0,1,,,,,,,,,0,,,75,108
822480,note_on,0,0,3,,,,,,,,,2,,,55,118
822480,note_off,240,0,3,,,,,,,,,2,,,55,0
822480,note_off,0,0,3,,,,,,,,,2,,,58,0
822480,note_off,0,0,3,,,,,,,,,2,,,51,0
822480,note_on,0,0,3,,,,,,,,,2,,,58,118
822480,note_on,0,0,3,,,,,,,,,2,,,51,118
822560,note_off,80,0,1,,,,,,,,,0,,,75,0
822560,note_on,0,0,1,,,,,,,,,0,,,77,96
822640,note_off,80,0,1,,,,,,,,,0,,,77,0
822640,note_on,0,0,1,,,,,,,,,0,,,79,96
822720,note_off,80,0,1,,,,,,,,,0,,,79,0
822720,note_on,0,0,1,,,,,,,,,0,,,80,96
822800,note_on,0,0,1,,,,,,,,,0,,,82,96
822800,note_off,80,0,1,,,,,,,,,0,,,80,0
822880,note_on,0,0,1,,,,,,,,,0,,,84,96
822880,note_off,80,0,1,,,,,,,,,0,,,82,0
822960,note_on,0,0,1,,,,,,,,,0,,,86,97
822960,note_on,0,0,3,,,,,,,,,2,,,58,95
822960,note_on,0,0,3,,,,,,,,,2,,,53,95
822960,note_on,0,0,3,,,,,,,,,2,,,46,95
822960,note_off,0,0,3,,,,,,,,,2,,,58,0
822960,note_off,0,0,3,,,,,,,,,2,,,51,0
822960,note_off,480,0,3,,,,,,,,,2,,,55,0
822960,note_off,80,0,1,,,,,,,,,0,,,84,0
823080,note_on,0,0,1,,,,,,,,,0,,,74,97
823080,note_off,120,0,1,,,,,,,,,0,,,86,0
823200,note_on,0,0,1,,,,,,,,,0,,,75,97
823200,note_off,120,0,1,,,,,,,,,0,,,74,0
823200,note_off,240,0,3,,,,,,,,,2,,,53,0
823200,note_off,0,0,3,,,,,,,,,2,,,58,0
823200,note_off,0,0,3,,,,,,,,,2,,,46,0
823200,note_on,0,0,3,,,,,,,,,2,,,51,95
823200,note_on,0,0,3,,,,,,,,,2,,,58,95
823200,note_on,0,0,3,,,,,,,,,2,,,55,95
823320,note_off,120,0,1,,,,,,,,,0,,,75,0
823320,note_on,0,0,1,,,,,,,,,0,,,77,97
823440,note_on,0,0,3,,,,,,,,,2,,,55,95
823440,note_on,0,0,3,,,,,,,,,2,,,58,95
823440,note_off,0,0,3,,,,,,,,,2,,,58,0
823440,note_off,0,0,3,,,,,,,,,2,,,51,0
823440,note_on,0,0,1,,,,,,,,,0,,,79,97
823440,note_off,120,0,1,,,,,,,,,0,,,77,0
823440,note_on,0,0,3,,,,,,,,,2,,,51,95
823440,note_off,240,0,3,,,,,,,,,2,,,55,0
823560,note_off,120,0,1,,,,,,,,,0,,,79,0
823560,note_on,0,0,1,,,,,,,,,0,,,80,98
823680,note_off,120,0,1,,,,,,,,,0,,,80,0
823680,note_on,0,0,1,,,,,,,,,0,,,82,98
823680,note_off,0,0,3,,,,,,,,,2,,,58,0
823680,note_on,0,0,3,,,,,,,,,2,,,55,95
823680,note_on,0,0,3,,,,,,,,,2,,,58,95
823680,note_on,0,0,3,,,,,,,,,2,,,51,95
823680,note_off,0,0,3,,,,,,,,,2,,,51,0
823680,note_off,240,0,3,,,,,,,,,2,,,55,0
823760,note_on,0,0,1,,,,,,,,,0,,,84,98
823760,note_off,80,0,1,,,,,,,,,0,,,82,0
823840,note_off,80,0,1,,,,,,,,,0,,,84,0
823840,note_on,0,0,1,,,,,,,,,0,,,86,98
823860,set_tempo,1380,1,0,,,,,,402684,,,,,,,
823920,note_off,0,0,3,,,,,,,,,2,,,51,0
823920,note_on,0,0,3,,,,,,,,,2,,,51,118
823920,note_on,0,0,3,,,,,,,,,2,,,58,118
823920,note_off,80,0,1,,,,,,,,,0,,,86,0
823920,note_on,0,0,1,,,,,,,,,0,,,87,110
823920,note_on,0,0,3,,,,,,,,,2,,,55,118
823920,note_off,240,0,3,,,,,,,,,2,,,55,0
823920,set_tempo,60,1,0,,,,,,400000,,,,,,,
823920,note_off,0,0,3,,,,,,,,,2,,,58,0
824040,note_off,120,0,1,,,,,,,,,0,,,87,0
824040,note_on,0,0,1,,,,,,,,,0,,,89,98
824160,note_off,120,0,1,,,,,,,,,0,,,89,0
824160,note_on,0,0,1,,,,,,,,,0,,,91,99
824280,note_on,0,0,1,,,,,,,,,0,,,92,99
824280,note_off,120,0,1,,,,,,,,,0,,,91,0
824400,note_on,0,0,3,,,,,,,,,2,,,46,122
824400,note_on,0,0,3,,,,,,,,,2,,,53,122
824400,note_on,0,0,3,,,,,,,,,2,,,58,122
824400,note_off,0,0,3,,,,,,,,,2,,,55,0
824400,note_off,0,0,3,,,,,,,,,2,,,51,0
824400,note_off,480,0,3,,,,,,,,,2,,,58,0
824400,note_off,120,0,1,,,,,,,,,0,,,92,0
824400,note_on,0,0,1,,,,,,,,,0,,,94,99
824480,note_off,80,0,1,,,,,,,,,0,,,94,0
824480,note_on,0,0,1,,,,,,,,,0,,,96,99
824560,note_off,80,0,1,,,,,,,,,0,,,96,0
824560,note_on,0,0,1,,,,,,,,,0,,,98,99
824580,set_tempo,660,1,0,,,,,,419580,,,,,,,
824640,note_on,0,0,3,,,,,,,,,2,,,58,125
824640,note_off,0,0,3,,,,,,,,,2,,,46,0
824640,note_off,0,0,3,,,,,,,,,2,,,58,0
824640,note_off,240,0,3,,,,,,,,,2,,,53,0
824640,note_on,0,0,1,,,,,,,,,0,,,99,99
824640,note_on,0,0,3,,,,,,,,,2,,,51,125
824640,note_off,80,0,1,,,,,,,,,0,,,98,0
824640,note_on,0,0,3,,,,,,,,,2,,,55,125
825120,note_off,0,0,3,,,,,,,,,2,,,51,0
825120,note_off,480,0,3,,,,,,,,,2,,,55,0
825120,note_off,480,0,1,,,,,,,,,0,,,99,0
825120,note_off,0,0,3,,,,,,,,,2,,,58,0
825345,set_tempo,765,1,0,,,,,,447761,,,,,,,
825360,note_on,25200,0,2,,,,,,,,,1,,,67,108
825360,note_on,0,0,2,,,,,,,,,1,,,70,108
825360,note_on,0,0,3,,,,,,,,,2,,,51,120
825360,note_on,240,0,3,,,,,,,,,2,,,39,120
825360,note_on,240,0,1,,,,,,,,,0,,,75,108
825840,note_off,0,0,2,,,,,,,,,1,,,67,0
825840,note_off,0,0,3,,,,,,,,,2,,,39,0
825840,note_off,480,0,1,,,,,,,,,0,,,75,0
825840,note_off,480,0,3,,,,,,,,,2,,,51,0
825840,note_off,480,0,2,,,,,,,,,1,,,70,0
826080,note_on,240,0,3,,,,,,,,,2,,,39,116
826080,note_on,0,0,3,,,,,,,,,2,,,51,116
826080,note_on,0,0,2,,,,,,,,,1,,,51,104
826080,note_on,0,0,2,,,,,,,,,1,,,55,104
826080,note_on,240,0,1,,,,,,,,,0,,,63,104
826080,note_on,240,0,2,,,,,,,,,1,,,58,104
826560,note_off,480,0,1,,,,,,,,,0,,,63,0
826560,note_off,0,0,2,,,,,,,,,1,,,58,0
826560,note_off,0,0,2,,,,,,,,,1,,,55,0
826560,note_off,480,0,3,,,,,,,,,2,,,51,0
826560,note_off,0,0,3,,,,,,,,,2,,,39,0
826560,note_off,480,0,2,,,,,,,,,1,,,51,0
826560,set_tempo,1215,1,0,,,,,,500000,,,,,,,
826800,set_tempo,240,1,0,,,,,,550458,,,,,,,
826800,note_on,240,0,1,,,,,,,,,0,,,70,90
827250,set_tempo,450,1,0,,,,,,550458,,,,,,,
827280,note_on,0,0,1,,,,,,,,,0,,,70,69
827280,note_off,480,0,1,,,,,,,,,0,,,70,0
827472,note_off,192,0,1,,,,,,,,,0,,,70,0
827520,note_on,48,0,1,,,,,,,,,0,,,70,60
827520,note_on,0,0,3,,,,,,,,,2,,,55,42
827520,note_on,0,0,3,,,,,,,,,2,,,58,42
827520,set_tempo,270,1,0,,,,,,500000,,,,,,,
827520,note_on,960,0,3,,,,,,,,,2,,,51,42
827760,note_on,0,0,1,,,,,,,,,0,,,67,56
827760,note_off,240,0,1,,,,,,,,,0,,,70,0
827880,note_off,360,0,3,,,,,,,,,2,,,55,0
827880,note_off,0,0,3,,,,,,,,,2,,,58,0
827880,note_off,0,0,3,,,,,,,,,2,,,51,0
828000,note_off,240,0,1,,,,,,,,,0,,,67,0
828000,note_on,0,0,1,,,,,,,,,0,,,63,57
828240,note_off,240,0,1,,,,,,,,,0,,,63,0
828240,note_on,0,0,3,,,,,,,,,2,,,56,44
828240,note_on,0,0,3,,,,,,,,,2,,,58,44
828240,note_on,0,0,3,,,,,,,,,2,,,53,44
828240,note_on,360,0,3,,,,,,,,,2,,,46,44
828240,note_on,0,0,1,,,,,,,,,0,,,62,57
828480,note_off,240,0,1,,,,,,,,,0,,,62,0
828480,note_on,0,0,1,,,,,,,,,0,,,65,58
828600,note_off,360,0,3,,,,,,,,,2,,,56,0
828600,note_off,0,0,3,,,,,,,,,2,,,58,0
828600,note_off,0,0,3,,,,,,,,,2,,,53,0
828600,note_off,0,0,3,,,,,,,,,2,,,46,0
828720,note_on,0,0,1,,,,,,,,,0,,,70,58
828720,note_off,240,0,1,,,,,,,,,0,,,65,0
828920,set_tempo,1400,1,0,,,,,,508474,,,,,,,
828960,note_on,360,0,3,,,,,,,,,2,,,51,46
828960,note_off,240,0,1,,,,,,,,,0,,,70,0
828960,note_on,0,0,1,,,,,,,,,0,,,70,62
828960,note_on,0,0,3,,,,,,,,,2,,,55,46
828960,set_tempo,40,1,0,,,,,,500000,,,,,,,
828960,note_on,0,0,3,,,,,,,,,2,,,58,46
829200,note_off,240,0,1,,,,,,,,,0,,,70,0
829200,note_on,0,0,1,,,,,,,,,0,,,67,59
829320,note_off,360,0,3,,,,,,,,,2,,,55,0
829320,note_off,0,0,3,,,,,,,,,2,,,58,0
829320,note_off,0,0,3,,,,,,,,,2,,,51,0
829440,note_off,240,0,1,,,,,,,,,0,,,67,0
829440,note_on,0,0,1,,,,,,,,,0,,,63,59
829680,note_off,240,0,1,,,,,,,,,0,,,63,0
829680,note_on,0,0,3,,,,,,,,,2,,,60,47
829680,note_on,0,0,3,,,,,,,,,2,,,55,47
829680,note_on,360,0,3,,,,,,,,,2,,,48,47
829680,note_on,0,0,1,,,,,,,,,0,,,64,60
829836,note_off,156,0,3,,,,,,,,,2,,,60,0
829836,note_off,0,0,3,,,,,,,,,2,,,48,0
829836,note_off,0,0,3,,,,,,,,,2,,,55,0
829920,note_on,0,0,1,,,,,,,,,0,,,67,60
829920,note_off,240,0,1,,,,,,,,,0,,,64,0
830160,note_off,240,0,1,,,,,,,,,0,,,67,0
830160,note_on,324,0,3,,,,,,,,,2,,,52,49
830160,note_on,0,0,3,,,,,,,,,2,,,60,49
830160,note_on,0,0,3,,,,,,,,,2,,,58,49
830160,note_on,0,0,3,,,,,,,,,2,,,55,49
830160,note_on,0,0,1,,,,,,,,,0,,,72,61
830316,note_off,156,0,3,,,,,,,,,2,,,55,0
830316,note_off,0,0,3,,,,,,,,,2,,,58,0
830316,note_off,0,0,3,,,,,,,,,2,,,60,0
830316,note_off,0,0,3,,,,,,,,,2,,,52,0
830360,set_tempo,1400,1,0,,,,,,526315,,,,,,,
830400,note_on,0,0,3,,,,,,,,,2,,,60,49
830400,note_on,84,0,3,,,,,,,,,2,,,56,49
830400,note_on,0,0,3,,,,,,,,,2,,,53,49
830400,note_on,0,0,1,,,,,,,,,0,,,72,66
830400,note_off,240,0,1,,,,,,,,,0,,,72,0
830400,set_tempo,40,1,0,,,,,,500000,,,,,,,
830640,note_off,240,0,1,,,,,,,,,0,,,72,0
830640,note_on,0,0,1,,,,,,,,,0,,,68,62
830760,note_off,360,0,3,,,,,,,,,2,,,53,0
830760,note_off,0,0,3,,,,,,,,,2,,,60,0
830760,note_off,0,0,3,,,,,,,,,2,,,56,0
830880,note_on,0,0,1,,,,,,,,,0,,,65,62
830880,note_off,240,0,1,,,,,,,,,0,,,68,0
831120,note_off,240,0,1,,,,,,,,,0,,,65,0
831120,note_on,0,0,1,,,,,,,,,0,,,66,63
831120,note_on,360,0,3,,,,,,,,,2,,,57,51
831120,note_on,0,0,3,,,,,,,,,2,,,50,51
831120,note_on,0,0,3,,,,,,,,,2,,,62,51
831276,note_off,0,0,3,,,,,,,,,2,,,50,0
831276,note_off,156,0,3,,,,,,,,,2,,,62,0
831276,note_off,0,0,3,,,,,,,,,2,,,57,0
831360,note_off,240,0,1,,,,,,,,,0,,,66,0
831360,note_on,0,0,1,,,,,,,,,0,,,69,63
831600,note_on,324,0,3,,,,,,,,,2,,,54,52
831600,note_on,0,0,3,,,,,,,,,2,,,57,52
831600,note_on,0,0,1,,,,,,,,,0,,,74,64
831600,note_off,240,0,1,,,,,,,,,0,,,69,0
831600,note_on,0,0,3,,,,,,,,,2,,,62,52
831756,note_off,0,0,3,,,,,,,,,2,,,54,0
831756,note_off,156,0,3,,,,,,,,,2,,,62,0
831756,note_off,0,0,3,,,,,,,,,2,,,57,0
831800,set_tempo,1400,1,0,,,,,,526315,,,,,,,
831840,note_on,0,0,3,,,,,,,,,2,,,62,53
831840,note_on,0,0,3,,,,,,,,,2,,,55,53
831840,note_on,84,0,3,,,,,,,,,2,,,58,53
831840,note_off,240,0,1,,,,,,,,,0,,,74,0
831840,note_on,0,0,1,,,,,,,,,0,,,74,68
831840,set_tempo,40,1,0,,,,,,500000,,,,,,,
832080,note_off,240,0,1,,,,,,,,,0,,,74,0
832080,note_on,0,0,1,,,,,,,,,0,,,70,63
832200,note_off,360,0,3,,,,,,,,,2,,,62,0
832200,note_off,0,0,3,,,,,,,,,2,,,55,0
832200,note_off,0,0,3,,,,,,,,,2,,,58,0
832320,note_off,240,0,1,,,,,,,,,0,,,70,0
832320,note_on,0,0,1,,,,,,,,,0,,,67,61
832560,note_off,240,0,1,,,,,,,,,0,,,67,0
832560,note_on,0,0,1,,,,,,,,,0,,,68,59
832800,note_off,240,0,1,,,,,,,,,0,,,68,0
832800,note_on,0,0,1,,,,,,,,,0,,,70,57
832980,set_tempo,1140,1,0,,,,,,517241,,,,,,,
833040,note_on,0,0,1,,,,,,,,,0,,,74,55
833040,note_off,240,0,1,,,,,,,,,0,,,70,0
833240,set_tempo,260,1,0,,,,,,625000,,,,,,,
833280,note_on,0,0,3,,,,,,,,,2,,,63,57
833280,note_on,0,0,3,,,,,,,,,2,,,58,57
833280,note_on,0,0,3,,,,,,,,,2,,,55,57
833280,note_on,1080,0,3,,,,,,,,,2,,,51,57
833280,set_tempo,40,1,0,,,,,,517241,,,,,,,
833280,note_on,0,0,1,,,,,,,,,0,,,75,55
833280,note_off,240,0,1,,,,,,,,,0,,,74,0
833520,note_off,240,0,1,,,,,,,,,0,,,75,0
833520,note_on,0,0,1,,,,,,,,,0,,,70,51
833760,note_off,480,0,3,,,,,,,,,2,,,63,0
833760,note_off,0,0,3,,,,,,,,,2,,,51,0
833760,note_off,0,0,3,,,,,,,,,2,,,55,0
833760,note_off,0,0,3,,,,,,,,,2,,,58,0
833760,note_on,0,0,1,,,,,,,,,0,,,67,52
833760,note_off,240,0,1,,,,,,,,,0,,,70,0
834000,note_on,0,0,1,,,,,,,,,0,,,67,54
834000,note_off,240,0,1,,,,,,,,,0,,,67,0
834240,note_off,240,0,1,,,,,,,,,0,,,67,0
834240,note_on,0,0,1,,,,,,,,,0,,,70,55
834480,note_off,240,0,1,,,,,,,,,0,,,70,0
834480,note_on,0,0,1,,,,,,,,,0,,,75,56
834680,set_tempo,1400,1,0,,,,,,535714,,,,,,,
834720,note_on,960,0,3,,,,,,,,,2,,,63,46
834720,set_tempo,40,1,0,,,,,,517241,,,,,,,
834720,note_off,240,0,1,,,,,,,,,0,,,75,0
834720,note_on,0,0,1,,,,,,,,,0,,,79,58
834960,note_off,240,0,3,,,,,,,,,2,,,63,0
834960,note_on,0,0,3,,,,,,,,,2,,,58,47
834960,note_on,0,0,1,,,,,,,,,0,,,75,59
834960,note_off,240,0,1,,,,,,,,,0,,,79,0
835200,note_off,240,0,3,,,,,,,,,2,,,58,0
835200,note_off,240,0,1,,,,,,,,,0,,,75,0
835200,note_on,0,0,1,,,,,,,,,0,,,70,60
835200,note_on,0,0,3,,,,,,,,,2,,,55,49
835440,note_off,240,0,1,,,,,,,,,0,,,70,0
835440,note_on,0,0,3,,,,,,,,,2,,,55,50
835440,note_on,0,0,1,,,,,,,,,0,,,70,61
835440,note_off,240,0,3,,,,,,,,,2,,,55,0
835680,note_off,240,0,3,,,,,,,,,2,,,55,0
835680,note_on,0,0,3,,,,,,,,,2,,,58,51
835680,note_off,240,0,1,,,,,,,,,0,,,70,0
835680,note_on,0,0,1,,,,,,,,,0,,,75,63
835800,set_tempo,1080,1,0,,,,,,526315,,,,,,,
835920,note_off,240,0,1,,,,,,,,,0,,,75,0
835920,note_off,240,0,3,,,,,,,,,2,,,58,0
835920,note_on,0,0,3,,,,,,,,,2,,,63,52
835920,note_on,0,0,1,,,,,,,,,0,,,79,65
836120,set_tempo,320,1,0,,,,,,582524,,,,,,,
836160,note_on,0,0,1,,,,,,,,,0,,,79,69
836160,note_on,0,0,1,,,,,,,,,0,,,82,69
836160,note_off,240,0,1,,,,,,,,,0,,,79,0
836160,note_on,0,0,3,,,,,,,,,2,,,39,48
836160,note_off,240,0,3,,,,,,,,,2,,,63,0
836160,set_tempo,40,1,0,,,,,,517241,,,,,,,
836160,note_on,0,0,3,,,,,,,,,2,,,43,48
836400,note_on,0,0,1,,,,,,,,,0,,,79,67
836400,note_off,240,0,3,,,,,,,,,2,,,43,0
836400,note_on,0,0,3,,,,,,,,,2,,,46,49
836400,note_on,0,0,3,,,,,,,,,2,,,43,49
836400,note_off,240,0,1,,,,,,,,,0,,,79,0
836400,note_off,0,0,1,,,,,,,,,0,,,82,0
836400,note_off,0,0,3,,,,,,,,,2,,,39,0
836400,note_on,0,0,1,,,,,,,,,0,,,75,67
836640,note_on,0,0,3,,,,,,,,,2,,,51,50
836640,note_on,0,0,3,,,,,,,,,2,,,46,50
836640,note_off,0,0,3,,,,,,,,,2,,,43,0
836640,note_off,240,0,3,,,,,,,,,2,,,46,0
836640,note_off,0,0,1,,,,,,,,,0,,,75,0
836640,note_on,0,0,1,,,,,,,,,0,,,70,66
836640,note_on,0,0,1,,,,,,,,,0,,,75,66
836640,note_off,240,0,1,,,,,,,,,0,,,79,0
836880,note_on,0,0,1,,,,,,,,,0,,,75,64
836880,note_on,0,0,1,,,,,,,,,0,,,79,64
836880,note_off,0,0,1,,,,,,,,,0,,,70,0
836880,note_off,240,0,1,,,,,,,,,0,,,75,0
836880,note_on,0,0,3,,,,,,,,,2,,,43,51
836880,note_on,0,0,3,,,,,,,,,2,,,46,51
836880,note_off,0,0,3,,,,,,,,,2,,,46,0
836880,note_off,240,0,3,,,,,,,,,2,,,51,0
837120,note_off,240,0,1,,,,,,,,,0,,,75,0
837120,note_off,240,0,3,,,,,,,,,2,,,43,0
837120,note_on,0,0,3,,,,,,,,,2,,,51,53
837120,note_off,0,0,1,,,,,,,,,0,,,79,0
837120,note_off,0,0,3,,,,,,,,,2,,,46,0
837120,note_on,0,0,3,,,,,,,,,2,,,46,53
837120,note_on,0,0,1,,,,,,,,,0,,,75,62
837120,note_on,0,0,1,,,,,,,,,0,,,70,62
837360,note_on,0,0,3,,,,,,,,,2,,,55,54
837360,note_on,0,0,3,,,,,,,,,2,,,51,54
837360,note_off,0,0,3,,,,,,,,,2,,,46,0
837360,note_on,0,0,1,,,,,,,,,0,,,70,60
837360,note_off,240,0,3,,,,,,,,,2,,,51,0
837360,note_off,0,0,1,,,,,,,,,0,,,70,0
837360,note_off,240,0,1,,,,,,,,,0,,,75,0
837360,note_on,0,0,1,,,,,,,,,0,,,67,60
837570,set_tempo,1410,1,0,,,,,,535714,,,,,,,
837600,note_off,240,0,3,,,,,,,,,2,,,55,0
837600,note_on,0,0,3,,,,,,,,,2,,,46,58
837600,note_on,0,0,1,,,,,,,,,0,,,70,58
837600,note_on,0,0,1,,,,,,,,,0,,,75,58
837600,note_off,0,0,1,,,,,,,,,0,,,70,0
837600,note_off,240,0,1,,,,,,,,,0,,,67,0
837600,set_tempo,30,1,0,,,,,,517241,,,,,,,
837600,note_on,0,0,3,,,,,,,,,2,,,51,58
837600,note_off,0,0,3,,,,,,,,,2,,,51,0
837840,note_on,0,0,1,,,,,,,,,0,,,70,57
837840,note_off,240,0,1,,,,,,,,,0,,,75,0
837840,note_off,240,0,3,,,,,,,,,2,,,46,0
837840,note_off,0,0,3,,,,,,,,,2,,,51,0
837840,note_off,0,0,1,,,,,,,,,0,,,70,0
837840,note_on,0,0,1,,,,,,,,,0,,,67,57
837840,note_on,0,0,3,,,,,,,,,2,,,55,56
837840,note_on,0,0,3,,,,,,,,,2,,,51,56
838080,note_off,240,0,3,,,,,,,,,2,,,55,0
838080,note_off,0,0,1,,,,,,,,,0,,,67,0
838080,note_off,240,0,1,,,,,,,,,0,,,70,0
838080,note_on,0,0,1,,,,,,,,,0,,,67,55
838080,note_on,0,0,1,,,,,,,,,0,,,63,55
838080,note_off,0,0,3,,,,,,,,,2,,,51,0
838080,note_on,0,0,3,,,,,,,,,2,,,58,54
838080,note_on,0,0,3,,,,,,,,,2,,,55,54
838200,set_tempo,600,1,0,,,,,,560747,,,,,,,
838320,note_off,0,0,3,,,,,,,,,2,,,58,0
838320,note_off,0,0,1,,,,,,,,,0,,,63,0
838320,note_off,240,0,1,,,,,,,,,0,,,67,0
838320,note_off,240,0,3,,,,,,,,,2,,,55,0
838320,note_on,0,0,1,,,,,,,,,0,,,70,53
838440,set_tempo,240,1,0,,,,,,588235,,,,,,,
838560,note_on,240,0,3,,,,,,,,,2,,,46,50
838560,note_on,0,0,3,,,,,,,,,2,,,53,50
838560,note_on,0,0,1,,,,,,,,,0,,,60,51
838560,note_on,0,0,1,,,,,,,,,0,,,68,51
838560,note_off,240,0,1,,,,,,,,,0,,,70,0
838800,note_on,0,0,1,,,,,,,,,0,,,62,50
838800,note_on,0,0,1,,,,,,,,,0,,,65,50
838800,note_off,240,0,1,,,,,,,,,0,,,60,0
838800,note_off,0,0,1,,,,,,,,,0,,,68,0
838800,note_off,0,0,3,,,,,,,,,2,,,46,0
838800,note_on,0,0,3,,,,,,,,,2,,,46,48
838800,note_on,0,0,3,,,,,,,,,2,,,58,48
838800,note_off,240,0,3,,,,,,,,,2,,,53,0
838815,set_tempo,375,1,0,,,,,,895522,,,,,,,
838992,note_off,192,0,3,,,,,,,,,2,,,58,0
838992,note_off,192,0,1,,,,,,,,,0,,,62,0
838992,note_off,0,0,1,,,,,,,,,0,,,65,0
838992,note_off,0,0,3,,,,,,,,,2,,,46,0
839040,note_on,0,0,3,,,,,,,,,2,,,58,47
839040,note_on,48,0,1,,,,,,,,,0,,,75,50
839040,note_on,48,0,3,,,,,,,,,2,,,51,47
839040,set_tempo,225,1,0,,,,,,540540,,,,,,,
839040,note_on,0,0,3,,,,,,,,,2,,,55,47
839160,note_off,120,0,1,,,,,,,,,0,,,75,0
839160,note_on,0,0,1,,,,,,,,,0,,,74,51
839280,note_off,120,0,1,,,,,,,,,0,,,74,0
839280,note_on,0,0,1,,,,,,,,,0,,,75,51
839400,note_off,120,0,1,,,,,,,,,0,,,75,0
839400,note_on,0,0,1,,,,,,,,,0,,,70,52
839520,note_off,480,0,3,,,,,,,,,2,,,55,0
839520,note_off,0,0,3,,,,,,,,,2,,,58,0
839520,note_off,0,0,3,,,,,,,,,2,,,51,0
839520,note_off,120,0,1,,,,,,,,,0,,,70,0
839520,note_on,0,0,1,,,,,,,,,0,,,67,52
839640,set_tempo,600,1,0,,,,,,550458,,,,,,,
839700,note_off,180,0,1,,,,,,,,,0,,,67,0
839700,note_on,0,0,1,,,,,,,,,0,,,68,53
839760,note_on,0,0,1,,,,,,,,,0,,,67,53
839760,note_off,60,0,1,,,,,,,,,0,,,68,0
839880,note_off,120,0,1,,,,,,,,,0,,,67,0
839880,note_on,0,0,1,,,,,,,,,0,,,66,53
840000,note_off,120,0,1,,,,,,,,,0,,,66,0
840000,note_on,0,0,1,,,,,,,,,0,,,67,54
840120,note_off,120,0,1,,,,,,,,,0,,,67,0
840120,note_on,0,0,1,,,,,,,,,0,,,70,54
840240,note_off,120,0,1,,,,,,,,,0,,,70,0
840240,note_on,0,0,1,,,,,,,,,0,,,75,55
840420,note_off,180,0,1,,,,,,,,,0,,,75,0
840440,set_tempo,800,1,0,,,,,,560747,,,,,,,
840480,note_on,60,0,1,,,,,,,,,0,,,79,56
840480,set_tempo,40,1,0,,,,,,535714,,,,,,,
840480,note_on,960,0,3,,,,,,,,,2,,,63,46
840480,note_on,0,0,3,,,,,,,,,2,,,51,46
840600,note_on,0,0,1,,,,,,,,,0,,,78,56
840600,note_off,120,0,1,,,,,,,,,0,,,79,0
840600,note_off,120,0,3,,,,,,,,,2,,,63,0
840600,note_on,0,0,3,,,,,,,,,2,,,62,46
840720,note_on,0,0,1,,,,,,,,,0,,,79,57
840720,note_off,120,0,1,,,,,,,,,0,,,78,0
840720,note_off,120,0,3,,,,,,,,,2,,,62,0
840720,note_on,0,0,3,,,,,,,,,2,,,63,47
840840,note_on,0,0,1,,,,,,,,,0,,,75,57
840840,note_off,120,0,1,,,,,,,,,0,,,79,0
840840,note_off,120,0,3,,,,,,,,,2,,,63,0
840840,note_on,0,0,3,,,,,,,,,2,,,58,47
840960,note_on,0,0,1,,,,,,,,,0,,,70,58
840960,note_off,120,0,3,,,,,,,,,2,,,58,0
840960,note_off,120,0,1,,,,,,,,,0,,,75,0
840960,note_on,0,0,3,,,,,,,,,2,,,55,48
841080,set_tempo,600,1,0,,,,,,540540,,,,,,,
841087,note_off,127,0,3,,,,,,,,,2,,,55,0
841102,note_off,15,0,3,,,,,,,,,2,,,51,0
841140,note_off,180,0,1,,,,,,,,,0,,,70,0
841140,note_on,0,0,1,,,,,,,,,0,,,72,58
841140,note_on,38,0,3,,,,,,,,,2,,,56,48
841200,note_off,60,0,3,,,,,,,,,2,,,56,0
841200,note_on,0,0,3,,,,,,,,,2,,,55,49
841200,note_on,0,0,1,,,,,,,,,0,,,70,59
841200,note_off,60,0,1,,,,,,,,,0,,,72,0
841320,note_off,120,0,1,,,,,,,,,0,,,70,0
841320,note_on,0,0,1,,,,,,,,,0,,,69,59
841320,note_on,0,0,3,,,,,,,,,2,,,54,49
841320,note_off,120,0,3,,,,,,,,,2,,,55,0
841440,note_on,0,0,3,,,,,,,,,2,,,55,50
841440,note_off,120,0,3,,,,,,,,,2,,,54,0
841440,note_off,120,0,1,,,,,,,,,0,,,69,0
841440,note_on,0,0,1,,,,,,,,,0,,,70,60
841560,note_on,0,0,1,,,,,,,,,0,,,75,60
841560,note_on,0,0,3,,,,,,,,,2,,,58,50
841560,note_off,120,0,3,,,,,,,,,2,,,55,0
841560,note_off,120,0,1,,,,,,,,,0,,,70,0
841680,note_on,0,0,3,,,,,,,,,2,,,63,50
841680,note_off,120,0,3,,,,,,,,,2,,,58,0
841680,note_on,0,0,1,,,,,,,,,0,,,79,60
841680,note_off,120,0,1,,,,,,,,,0,,,75,0
841860,set_tempo,780,1,0,,,,,,612244,,,,,,,
841860,note_off,180,0,1,,,,,,,,,0,,,79,0
841920,note_on,60,0,1,,,,,,,,,0,,,82,61
841920,note_on,240,0,3,,,,,,,,,2,,,39,51
841920,note_on,0,0,1,,,,,,,,,0,,,79,61
841920,set_tempo,60,1,0,,,,,,550458,,,,,,,
842040,note_on,0,0,1,,,,,,,,,0,,,84,62
842040,note_on,0,0,1,,,,,,,,,0,,,80,62
842040,note_off,0,0,1,,,,,,,,,0,,,82,0
842040,note_off,120,0,1,,,,,,,,,0,,,79,0
842040,note_off,120,0,3,,,,,,,,,2,,,39,0
842040,note_off,0,0,3,,,,,,,,,2,,,63,0
842040,note_on,0,0,3,,,,,,,,,2,,,38,52
842160,note_off,0,0,1,,,,,,,,,0,,,80,0
842160,note_on,0,0,1,,,,,,,,,0,,,82,62
842160,note_on,0,0,1,,,,,,,,,0,,,79,62
842160,note_off,120,0,3,,,,,,,,,2,,,38,0
842160,note_on,0,0,3,,,,,,,,,2,,,39,52
842160,note_off,120,0,1,,,,,,,,,0,,,84,0
842280,note_off,120,0,3,,,,,,,,,2,,,39,0
842280,note_on,0,0,3,,,,,,,,,2,,,43,53
842280,note_off,0,0,1,,,,,,,,,0,,,79,0
842280,note_off,120,0,1,,,,,,,,,0,,,82,0
842280,note_on,0,0,1,,,,,,,,,0,,,75,63
842280,note_on,0,0,1,,,,,,,,,0,,,79,63
842400,note_on,0,0,3,,,,,,,,,2,,,46,53
842400,note_off,120,0,1,,,,,,,,,0,,,79,0
842400,note_off,0,0,1,,,,,,,,,0,,,75,0
842400,note_on,0,0,1,,,,,,,,,0,,,75,63
842400,note_on,0,0,1,,,,,,,,,0,,,67,63
842400,note_off,120,0,3,,,,,,,,,2,,,43,0
842520,set_tempo,600,1,0,,,,,,560747,,,,,,,
842580,note_off,180,0,3,,,,,,,,,2,,,46,0
842640,note_on,60,0,3,,,,,,,,,2,,,43,54
842640,note_off,0,0,1,,,,,,,,,0,,,75,0
842640,note_on,0,0,1,,,,,,,,,0,,,75,64
842640,note_off,240,0,1,,,,,,,,,0,,,67,0
842640,note_on,0,0,1,,,,,,,,,0,,,79,64
842760,note_off,120,0,1,,,,,,,,,0,,,79,0
842760,note_off,0,0,1,,,,,,,,,0,,,75,0
842760,note_on,0,0,3,,,,,,,,,2,,,41,55
842760,note_off,120,0,3,,,,,,,,,2,,,43,0
842760,note_on,0,0,1,,,,,,,,,0,,,80,65
842880,note_off,120,0,3,,,,,,,,,2,,,41,0
842880,note_on,0,0,3,,,,,,,,,2,,,43,55
842880,note_on,0,0,1,,,,,,,,,0,,,79,65
842880,note_on,0,0,1,,,,,,,,,0,,,75,65
842880,note_off,120,0,1,,,,,,,,,0,,,80,0
843000,note_on,0,0,3,,,,,,,,,2,,,46,56
843000,note_on,0,0,1,,,,,,,,,0,,,70,66
843000,note_off,120,0,3,,,,,,,,,2,,,43,0
843000,note_off,120,0,1,,,,,,,,,0,,,79,0
843000,note_off,0,0,1,,,,,,,,,0,,,75,0
843000,note_on,0,0,1,,,,,,,,,0,,,75,66
843120,note_off,120,0,3,,,,,,,,,2,,,46,0
843120,note_on,0,0,3,,,,,,,,,2,,,51,56
843120,note_off,120,0,1,,,,,,,,,0,,,75,0
843120,note_off,0,0,1,,,,,,,,,0,,,70,0
843120,note_on,0,0,1,,,,,,,,,0,,,67,66
843120,note_on,0,0,1,,,,,,,,,0,,,70,66
843300,set_tempo,780,1,0,,,,,,571428,,,,,,,
843300,note_off,180,0,3,,,,,,,,,2,,,51,0
843360,note_off,240,0,1,,,,,,,,,0,,,70,0
843360,note_off,0,0,1,,,,,,,,,0,,,67,0
843360,note_on,0,0,1,,,,,,,,,0,,,67,69
843360,note_on,0,0,1,,,,,,,,,0,,,75,69
843360,note_on,60,0,3,,,,,,,,,2,,,46,57
843480,note_off,0,0,1,,,,,,,,,0,,,67,0
843480,note_off,120,0,3,,,,,,,,,2,,,46,0
843480,note_on,0,0,3,,,,,,,,,2,,,45,56
843480,note_off,120,0,1,,,,,,,,,0,,,75,0
843480,note_on,0,0,1,,,,,,,,,0,,,77,67
843600,note_on,0,0,3,,,,,,,,,2,,,46,54
843600,note_on,0,0,1,,,,,,,,,0,,,75,65
843600,note_off,120,0,1,,,,,,,,,0,,,77,0
843600,note_on,0,0,1,,,,,,,,,0,,,67,65
843600,note_off,120,0,3,,,,,,,,,2,,,45,0
843720,note_off,120,0,1,,,,,,,,,0,,,75,0
843720,note_off,0,0,1,,,,,,,,,0,,,67,0
843720,note_on,0,0,1,,,,,,,,,0,,,67,63
843720,note_on,0,0,1,,,,,,,,,0,,,70,63
843720,note_off,120,0,3,,,,,,,,,2,,,46,0
843720,note_on,0,0,3,,,,,,,,,2,,,51,53
843840,note_off,0,0,1,,,,,,,,,0,,,67,0
843840,note_on,0,0,1,,,,,,,,,0,,,63,61
843840,note_off,120,0,1,,,,,,,,,0,,,70,0
843840,note_on,0,0,1,,,,,,,,,0,,,67,61
843840,note_on,0,0,3,,,,,,,,,2,,,55,51
843840,note_off,120,0,3,,,,,,,,,2,,,51,0
843960,set_tempo,660,1,0,,,,,,582524,,,,,,,
844020,note_off,180,0,3,,,,,,,,,2,,,55,0
844080,note_off,0,0,1,,,,,,,,,0,,,63,0
844080,note_off,240,0,1,,,,,,,,,0,,,67,0
844080,note_on,0,0,1,,,,,,,,,0,,,70,56
844215,set_tempo,255,1,0,,,,,,689655,,,,,,,
844320,note_on,0,0,1,,,,,,,,,0,,,60,52
844320,note_on,0,0,1,,,,,,,,,0,,,68,52
844320,note_on,300,0,3,,,,,,,,,2,,,46,45
844320,note_off,240,0,1,,,,,,,,,0,,,70,0
844320,note_on,0,0,3,,,,,,,,,2,,,53,45
844560,note_on,0,0,1,,,,,,,,,0,,,62,48
844560,note_on,0,0,3,,,,,,,,,2,,,58,43
844560,note_on,0,0,3,,,,,,,,,2,,,46,43
844560,note_off,0,0,3,,,,,,,,,2,,,46,0
844560,note_off,240,0,3,,,,,,,,,2,,,53,0
844560,note_off,240,0,1,,,,,,,,,0,,,68,0
844560,note_on,0,0,1,,,,,,,,,0,,,65,48
844560,note_off,0,0,1,,,,,,,,,0,,,60,0
844575,set_tempo,360,1,0,,,,,,1132075,,,,,,,
844752,note_off,0,0,3,,,,,,,,,2,,,46,0
844752,note_off,0,0,1,,,,,,,,,0,,,65,0
844752,note_off,192,0,1,,,,,,,,,0,,,62,0
844752,note_off,192,0,3,,,,,,,,,2,,,58,0
844800,note_on,0,0,3,,,,,,,,,2,,,43,40
844800,note_on,48,0,3,,,,,,,,,2,,,39,40
844800,set_tempo,225,1,0,,,,,,638297,,,,,,,
844920,note_on,0,0,1,,,,,,,,,0,,,79,48
844920,note_on,168,0,1,,,,,,,,,0,,,82,48
845040,note_off,240,0,3,,,,,,,,,2,,,43,0
845040,note_on,0,0,3,,,,,,,,,2,,,43,41
845040,note_on,0,0,3,,,,,,,,,2,,,46,41
845040,note_off,0,0,3,,,,,,,,,2,,,39,0
845160,note_on,0,0,1,,,,,,,,,0,,,79,51
845160,note_off,240,0,1,,,,,,,,,0,,,79,0
845160,note_off,0,0,1,,,,,,,,,0,,,82,0
845160,note_on,0,0,1,,,,,,,,,0,,,75,51
845280,note_off,240,0,3,,,,,,,,,2,,,43,0
845280,note_off,0,0,3,,,,,,,,,2,,,46,0
845280,note_on,0,0,3,,,,,,,,,2,,,46,44
845280,note_on,0,0,3,,,,,,,,,2,,,51,44
845400,note_on,0,0,1,,,,,,,,,0,,,70,53
845400,note_off,240,0,1,,,,,,,,,0,,,79,0
845400,note_off,0,0,1,,,,,,,,,0,,,75,0
845400,note_on,0,0,1,,,,,,,,,0,,,75,53
845520,note_off,240,0,3,,,,,,,,,2,,,51,0
845520,note_off,0,0,3,,,,,,,,,2,,,46,0
845520,note_on,0,0,3,,,,,,,,,2,,,43,46
845520,note_on,0,0,3,,,,,,,,,2,,,46,46
845640,note_off,0,0,1,,,,,,,,,0,,,70,0
845640,note_off,240,0,1,,,,,,,,,0,,,75,0
845640,note_on,0,0,1,,,,,,,,,0,,,79,55
845640,note_on,0,0,1,,,,,,,,,0,,,75,55
845760,note_on,0,0,3,,,,,,,,,2,,,46,48
845760,note_off,0,0,3,,,,,,,,,2,,,43,0
845760,note_off,240,0,3,,,,,,,,,2,,,46,0
845760,note_on,0,0,3,,,,,,,,,2,,,51,48
845880,note_off,240,0,1,,,,,,,,,0,,,75,0
845880,note_off,0,0,1,,,,,,,,,0,,,79,0
845880,note_on,0,0,1,,,,,,,,,0,,,70,57
845880,note_on,0,0,1,,,,,,,,,0,,,75,57
846000,note_off,240,0,3,,,,,,,,,2,,,46,0
846000,note_off,0,0,3,,,,,,,,,2,,,51,0
846000,note_on,0,0,3,,,,,,,,,2,,,51,50
846000,note_on,0,0,3,,,,,,,,,2,,,55,50
846120,set_tempo,1320,1,0,,,,,,652173,,,,,,,
846120,note_off,240,0,1,,,,,,,,,0,,,75,0
846120,note_off,0,0,1,,,,,,,,,0,,,70,0
846120,note_on,0,0,1,,,,,,,,,0,,,67,61
846120,note_on,0,0,1,,,,,,,,,0,,,70,61
846240,note_on,0,0,3,,,,,,,,,2,,,51,47
846240,note_off,240,0,3,,,,,,,,,2,,,55,0
846240,note_off,0,0,3,,,,,,,,,2,,,51,0
846240,note_on,0,0,3,,,,,,,,,2,,,46,47
846360,note_on,0,0,1,,,,,,,,,0,,,70,57
846360,note_off,240,0,1,,,,,,,,,0,,,67,0
846360,note_off,0,0,1,,,,,,,,,0,,,70,0
846360,note_on,0,0,1,,,,,,,,,0,,,75,57
846480,note_on,0,0,3,,,,,,,,,2,,,51,44
846480,note_off,0,0,3,,,,,,,,,2,,,46,0
846480,note_off,240,0,3,,,,,,,,,2,,,51,0
846480,note_on,0,0,3,,,,,,,,,2,,,55,44
846600,note_on,0,0,1,,,,,,,,,0,,,70,53
846600,note_on,0,0,1,,,,,,,,,0,,,67,53
846600,note_off,240,0,1,,,,,,,,,0,,,70,0
846600,note_off,0,0,1,,,,,,,,,0,,,75,0
846720,note_off,240,0,3,,,,,,,,,2,,,55,0
846720,note_off,0,0,3,,,,,,,,,2,,,51,0
846720,note_on,0,0,3,,,,,,,,,2,,,46,41
846720,note_on,0,0,3,,,,,,,,,2,,,58,41
846720,note_on,0,0,3,,,,,,,,,2,,,51,41
846840,note_on,0,0,1,,,,,,,,,0,,,67,49
846840,note_off,240,0,1,,,,,,,,,0,,,67,0
846840,note_off,0,0,1,,,,,,,,,0,,,70,0
846920,set_tempo,800,1,0,,,,,,659340,,,,,,,
846960,note_off,0,0,3,,,,,,,,,2,,,46,0
846960,note_on,0,0,3,,,,,,,,,2,,,46,38
846960,note_on,0,0,3,,,,,,,,,2,,,53,38
846960,note_off,0,0,3,,,,,,,,,2,,,58,0
846960,note_on,0,0,3,,,,,,,,,2,,,58,38
846960,note_off,240,0,3,,,,,,,,,2,,,51,0
847080,note_off,240,0,1,,,,,,,,,0,,,67,0
847080,note_on,0,0,1,,,,,,,,,0,,,70,46
847080,note_on,0,0,1,,,,,,,,,0,,,62,46
847140,set_tempo,220,1,0,,,,,,674157,,,,,,,
847152,note_off,192,0,3,,,,,,,,,2,,,53,0
847152,note_off,0,0,3,,,,,,,,,2,,,46,0
847152,note_off,0,0,3,,,,,,,,,2,,,58,0
847200,note_on,48,0,3,,,,,,,,,2,,,46,35
847200,note_on,0,0,3,,,,,,,,,2,,,58,35
847200,note_on,0,0,3,,,,,,,,,2,,,53,35
847320,note_off,0,0,1,,,,,,,,,0,,,62,0
847320,note_on,0,0,1,,,,,,,,,0,,,68,42
847320,note_on,0,0,1,,,,,,,,,0,,,62,42
847320,note_off,240,0,1,,,,,,,,,0,,,70,0
847380,set_tempo,240,1,0,,,,,,689655,,,,,,,
847392,note_off,192,0,3,,,,,,,,,2,,,53,0
847392,note_off,0,0,3,,,,,,,,,2,,,46,0
847392,note_off,0,0,3,,,,,,,,,2,,,58,0
847440,note_on,48,0,3,,,,,,,,,2,,,46,32
847440,note_on,0,0,3,,,,,,,,,2,,,58,32
847440,note_on,0,0,3,,,,,,,,,2,,,56,32
847440,set_tempo,60,1,0,,,,,,750000,,,,,,,
847560,control_change,240,0,1,,,,,,,64,127,0,,,,
847560,note_off,0,0,1,,,,,,,,,0,,,62,0
847560,note_off,0,0,1,,,,,,,,,0,,,68,0
847560,note_on,0,0,1,,,,,,,,,0,,,62,38
847560,note_on,0,0,1,,,,,,,,,0,,,65,38
847560,control_change,120,0,3,,,,,,,64,127,2,,,,
847605,set_tempo,165,1,0,,,,,,1500000,,,,,,,
847632,note_off,72,0,3,,,,,,,,,2,,,56,0
847632,note_off,0,0,3,,,,,,,,,2,,,58,0
847632,note_off,0,0,3,,,,,,,,,2,,,46,0
847680,note_off,120,0,1,,,,,,,,,0,,,65,0
847680,set_tempo,75,1,0,,,,,,625000,,,,,,,
847680,note_off,0,0,1,,,,,,,,,0,,,62,0
847800,control_change,120,0,1,,,,,,,64,0,0,,,,
847800,control_change,168,0,3,,,,,,,64,0,2,,,,
847920,control_change,120,0,3,,,,,,,64,0,2,,,,
848160,control_change,240,0,3,,,,,,,64,0,2,,,,
848160,note_on,0,0,3,,,,,,,,,2,,,70,88
848160,set_tempo,480,1,0,,,,,,335195,,,,,,,
848160,note_on,360,0,1,,,,,,,,,0,,,82,93
848280,note_on,120,0,1,,,,,,,,,0,,,94,93
848316,note_off,156,0,3,,,,,,,,,2,,,70,0
848380,note_off,100,0,1,,,,,,,,,0,,,82,0
848400,note_off,20,0,1,,,,,,,,,0,,,94,0
848400,note_on,0,0,1,,,,,,,,,0,,,79,92
848400,note_on,84,0,3,,,,,,,,,2,,,67,88
848520,note_on,120,0,1,,,,,,,,,0,,,91,92
848556,note_off,156,0,3,,,,,,,,,2,,,67,0
848620,note_off,100,0,1,,,,,,,,,0,,,79,0
848640,note_off,20,0,1,,,,,,,,,0,,,91,0
848640,note_on,0,0,1,,,,,,,,,0,,,75,91
848640,note_on,84,0,3,,,,,,,,,2,,,63,87
848760,note_on,120,0,1,,,,,,,,,0,,,87,90
848796,note_off,156,0,3,,,,,,,,,2,,,63,0
848860,note_off,100,0,1,,,,,,,,,0,,,75,0
848880,note_on,0,0,1,,,,,,,,,0,,,79,90
848880,note_on,84,0,3,,,,,,,,,2,,,67,86
848880,note_off,20,0,1,,,,,,,,,0,,,87,0
849000,note_on,120,0,1,,,,,,,,,0,,,91,89
849036,note_off,156,0,3,,,,,,,,,2,,,67,0
849100,note_off,100,0,1,,,,,,,,,0,,,79,0
849120,note_off,20,0,1,,,,,,,,,0,,,91,0
849120,note_on,0,0,1,,,,,,,,,0,,,75,89
849120,note_on,84,0,3,,,,,,,,,2,,,63,85
849240,note_on,120,0,1,,,,,,,,,0,,,87,88
849276,note_off,156,0,3,,,,,,,,,2,,,63,0
849340,note_off,100,0,1,,,,,,,,,0,,,75,0
849360,note_on,0,0,1,,,,,,,,,0,,,70,88
849360,note_on,84,0,3,,,,,,,,,2,,,58,84
849360,note_off,20,0,1,,,,,,,,,0,,,87,0
849480,note_on,120,0,1,,,,,,,,,0,,,82,87
849516,note_off,156,0,3,,,,,,,,,2,,,58,0
849580,note_off,100,0,1,,,,,,,,,0,,,70,0
849600,note_off,20,0,1,,,,,,,,,0,,,82,0
849600,note_on,0,0,1,,,,,,,,,0,,,75,86
849600,note_on,84,0,3,,,,,,,,,2,,,63,83
849720,note_on,120,0,1,,,,,,,,,0,,,87,86
849756,note_off,156,0,3,,,,,,,,,2,,,63,0
849820,note_off,100,0,1,,,,,,,,,0,,,75,0
849840,note_on,0,0,1,,,,,,,,,0,,,70,85
849840,note_off,20,0,1,,,,,,,,,0,,,87,0
849840,note_on,84,0,3,,,,,,,,,2,,,58,82
849960,note_on,120,0,1,,,,,,,,,0,,,82,85
849996,note_off,156,0,3,,,,,,,,,2,,,58,0
850060,note_off,100,0,1,,,,,,,,,0,,,70,0
850080,note_on,0,0,1,,,,,,,,,0,,,67,84
850080,note_off,20,0,1,,,,,,,,,0,,,82,0
850080,note_on,84,0,3,,,,,,,,,2,,,55,82
850200,note_on,120,0,1,,,,,,,,,0,,,79,84
850236,note_off,156,0,3,,,,,,,,,2,,,55,0
850300,note_off,100,0,1,,,,,,,,,0,,,67,0
850320,note_on,84,0,3,,,,,,,,,2,,,58,81
850320,note_off,20,0,1,,,,,,,,,0,,,79,0
850320,note_on,0,0,1,,,,,,,,,0,,,70,83
850440,note_on,120,0,1,,,,,,,,,0,,,82,82
850540,note_off,100,0,1,,,,,,,,,0,,,70,0
850560,note_on,0,0,1,,,,,,,,,0,,,68,82
850560,note_off,240,0,3,,,,,,,,,2,,,58,0
850560,note_on,0,0,3,,,,,,,,,2,,,56,80
850560,note_off,20,0,1,,,,,,,,,0,,,82,0
850680,note_on,120,0,1,,,,,,,,,0,,,80,81
850716,note_off,156,0,3,,,,,,,,,2,,,56,0
850780,note_off,100,0,1,,,,,,,,,0,,,68,0
850800,note_on,0,0,1,,,,,,,,,0,,,65,81
850800,note_on,0,0,3,,,,,,,,,2,,,53,80
850800,note_on,84,0,3,,,,,,,,,2,,,46,80
850800,note_off,20,0,1,,,,,,,,,0,,,80,0
850920,note_on,120,0,1,,,,,,,,,0,,,77,80
850956,note_off,156,0,3,,,,,,,,,2,,,53,0
850956,note_off,0,0,3,,,,,,,,,2,,,46,0
850980,set_tempo,2820,1,0,,,,,,352941,,,,,,,
851040,note_on,0,0,1,,,,,,,,,0,,,63,82
851040,note_off,0,0,1,,,,,,,,,0,,,65,0
851040,set_tempo,60,1,0,,,,,,337078,,,,,,,
851040,control_change,84,0,3,,,,,,,64,127,2,,,,
851040,note_on,0,0,3,,,,,,,,,2,,,39,82
851040,note_on,0,0,3,,,,,,,,,2,,,51,82
851040,note_off,120,0,1,,,,,,,,,0,,,77,0
851160,note_on,120,0,1,,,,,,,,,0,,,75,84
851280,note_on,0,0,3,,,,,,,,,2,,,63,84
851280,note_on,0,0,1,,,,,,,,,0,,,67,87
851280,note_off,0,0,1,,,,,,,,,0,,,63,0
851280,note_off,120,0,1,,,,,,,,,0,,,75,0
851280,note_off,240,0,3,,,,,,,,,2,,,51,0
851280,note_off,0,0,3,,,,,,,,,2,,,39,0
851280,note_on,0,0,3,,,,,,,,,2,,,51,84
851280,note_on,0,0,3,,,,,,,,,2,,,58,84
851280,note_on,0,0,3,,,,,,,,,2,,,55,84
851400,note_on,120,0,1,,,,,,,,,0,,,79,89
851520,note_on,0,0,1,,,,,,,,,0,,,67,91
851520,note_off,0,0,1,,,,,,,,,0,,,67,0
851520,note_off,120,0,1,,,,,,,,,0,,,79,0
851520,note_off,0,0,3,,,,,,,,,2,,,63,0
851520,note_off,240,0,3,,,,,,,,,2,,,55,0
851520,note_off,0,0,3,,,,,,,,,2,,,51,0
851520,note_on,0,0,3,,,,,,,,,2,,,51,86
851520,note_on,0,0,3,,,,,,,,,2,,,63,86
851520,note_on,0,0,3,,,,,,,,,2,,,58,86
851520,note_on,0,0,3,,,,,,,,,2,,,55,86
851520,note_off,0,0,3,,,,,,,,,2,,,58,0
851640,note_on,120,0,1,,,,,,,,,0,,,79,92
851760,note_off,0,0,1,,,,,,,,,0,,,67,0
851760,note_off,120,0,1,,,,,,,,,0,,,79,0
851760,note_on,0,0,3,,,,,,,,,2,,,58,89
851760,note_on,0,0,3,,,,,,,,,2,,,55,89
851760,note_off,0,0,3,,,,,,,,,2,,,51,0
851760,note_on,0,0,3,,,,,,,,,2,,,51,89
851760,note_off,0,0,3,,,,,,,,,2,,,63,0
851760,note_off,240,0,3,,,,,,,,,2,,,55,0
851760,note_on,0,0,3,,,,,,,,,2,,,63,89
851760,note_on,0,0,1,,,,,,,,,0,,,67,94
851760,note_off,0,0,3,,,,,,,,,2,,,58,0
851880,note_on,120,0,1,,,,,,,,,0,,,79,95
852000,note_off,0,0,3,,,,,,,,,2,,,55,0
852000,note_on,0,0,3,,,,,,,,,2,,,51,91
852000,note_off,0,0,3,,,,,,,,,2,,,51,0
852000,note_off,0,0,3,,,,,,,,,2,,,63,0
852000,note_on,0,0,3,,,,,,,,,2,,,63,91
852000,note_off,240,0,3,,,,,,,,,2,,,58,0
852000,note_off,120,0,1,,,,,,,,,0,,,79,0
852000,note_off,0,0,1,,,,,,,,,0,,,67,0
852000,note_on,0,0,1,,,,,,,,,0,,,70,97
852000,note_on,0,0,3,,,,,,,,,2,,,58,91
852000,note_on,0,0,3,,,,,,,,,2,,,55,91
852120,note_on,120,0,1,,,,,,,,,0,,,82,99
852240,note_off,240,0,3,,,,,,,,,2,,,63,0
852240,note_on,0,0,3,,,,,,,,,2,,,63,93
852240,note_off,0,0,3,,,,,,,,,2,,,55,0
852240,note_on,0,0,3,,,,,,,,,2,,,58,93
852240,note_on,0,0,3,,,,,,,,,2,,,51,93
852240,note_on,0,0,3,,,,,,,,,2,,,55,93
852240,note_off,120,0,1,,,,,,,,,0,,,82,0
852240,note_off,0,0,1,,,,,,,,,0,,,70,0
852240,note_on,0,0,1,,,,,,,,,0,,,70,100
852240,note_off,0,0,3,,,,,,,,,2,,,51,0
852240,note_off,0,0,3,,,,,,,,,2,,,58,0
852360,note_on,120,0,1,,,,,,,,,0,,,82,102
852480,note_on,0,0,1,,,,,,,,,0,,,70,104
852480,note_off,0,0,1,,,,,,,,,0,,,70,0
852480,note_off,240,0,3,,,,,,,,,2,,,63,0
852480,note_off,0,0,3,,,,,,,,,2,,,55,0
852480,note_off,0,0,3,,,,,,,,,2,,,58,0
852480,note_off,0,0,3,,,,,,,,,2,,,51,0
852480,note_on,0,0,3,,,,,,,,,2,,,51,95
852480,note_on,0,0,3,,,,,,,,,2,,,63,95
852480,note_on,0,0,3,,,,,,,,,2,,,58,95
852480,note_on,0,0,3,,,,,,,,,2,,,55,95
852480,note_off,120,0,1,,,,,,,,,0,,,82,0
852600,note_on,120,0,1,,,,,,,,,0,,,82,105
852720,note_off,0,0,3,,,,,,,,,2,,,63,0
852720,note_off,0,0,3,,,,,,,,,2,,,51,0
852720,note_on,0,0,3,,,,,,,,,2,,,51,97
852720,note_on,0,0,3,,,,,,,,,2,,,63,97
852720,note_on,0,0,3,,,,,,,,,2,,,58,97
852720,note_on,0,0,3,,,,,,,,,2,,,55,97
852720,note_off,0,0,3,,,,,,,,,2,,,58,0
852720,note_off,120,0,1,,,,,,,,,0,,,82,0
852720,note_on,0,0,1,,,,,,,,,0,,,75,107
852720,note_off,0,0,1,,,,,,,,,0,,,70,0
852720,note_off,240,0,3,,,,,,,,,2,,,55,0
852840,note_on,120,0,1,,,,,,,,,0,,,87,109
852960,note_on,0,0,1,,,,,,,,,0,,,75,110
852960,note_off,0,0,1,,,,,,,,,0,,,75,0
852960,note_off,120,0,1,,,,,,,,,0,,,87,0
852960,note_on,0,0,3,,,,,,,,,2,,,55,100
852960,note_off,0,0,3,,,,,,,,,2,,,58,0
852960,note_off,0,0,3,,,,,,,,,2,,,63,0
852960,note_off,0,0,3,,,,,,,,,2,,,51,0
852960,note_on,0,0,3,,,,,,,,,2,,,51,100
852960,note_on,0,0,3,,,,,,,,,2,,,63,100
852960,note_on,0,0,3,,,,,,,,,2,,,58,100
852960,note_off,240,0,3,,,,,,,,,2,,,55,0
853080,note_on,120,0,1,,,,,,,,,0,,,87,112
853200,note_off,120,0,1,,,,,,,,,0,,,87,0
853200,note_off,0,0,1,,,,,,,,,0,,,75,0
853200,note_on,0,0,3,,,,,,,,,2,,,55,102
853200,note_on,0,0,3,,,,,,,,,2,,,51,102
853200,note_off,240,0,3,,,,,,,,,2,,,55,0
853200,note_on,0,0,1,,,,,,,,,0,,,75,114
853200,note_off,0,0,3,,,,,,,,,2,,,58,0
853200,note_off,0,0,3,,,,,,,,,2,,,63,0
853200,note_off,0,0,3,,,,,,,,,2,,,51,0
853200,note_on,0,0,3,,,,,,,,,2,,,63,102
853200,note_on,0,0,3,,,,,,,,,2,,,58,102
853320,note_on,120,0,1,,,,,,,,,0,,,87,115
853440,note_off,0,0,1,,,,,,,,,0,,,75,0
853440,note_off,120,0,1,,,,,,,,,0,,,87,0
853440,note_on,0,0,1,,,,,,,,,0,,,79,117
853440,note_on,0,0,3,,,,,,,,,2,,,58,104
853440,note_on,0,0,3,,,,,,,,,2,,,63,104
853440,note_on,0,0,3,,,,,,,,,2,,,51,104
853440,note_off,0,0,3,,,,,,,,,2,,,51,0
853440,note_off,0,0,3,,,,,,,,,2,,,63,0
853440,note_off,0,0,3,,,,,,,,,2,,,58,0
853440,note_off,240,0,3,,,,,,,,,2,,,55,0
853440,note_on,0,0,3,,,,,,,,,2,,,55,104
853560,note_on,120,0,1,,,,,,,,,0,,,91,119
853680,note_off,0,0,3,,,,,,,,,2,,,58,0
853680,note_on,0,0,3,,,,,,,,,2,,,51,106
853680,note_on,0,0,3,,,,,,,,,2,,,55,106
853680,note_on,0,0,3,,,,,,,,,2,,,58,106
853680,note_on,0,0,3,,,,,,,,,2,,,63,106
853680,note_off,0,0,3,,,,,,,,,2,,,51,0
853680,note_off,240,0,3,,,,,,,,,2,,,55,0
853680,note_off,0,0,1,,,,,,,,,0,,,79,0
853680,note_on,0,0,1,,,,,,,,,0,,,82,120
853680,note_off,120,0,1,,,,,,,,,0,,,91,0
853680,note_off,0,0,3,,,,,,,,,2,,,63,0
853800,note_on,120,0,1,,,,,,,,,0,,,94,122
853860,set_tempo,2820,1,0,,,,,,408163,,,,,,,
853920,note_off,0,0,1,,,,,,,,,0,,,82,0
853920,note_on,0,0,1,,,,,,,,,0,,,87,125
853920,note_off,0,0,3,,,,,,,,,2,,,51,0
853920,note_on,0,0,1,,,,,,,,,0,,,99,125
853920,note_on,0,0,3,,,,,,,,,2,,,58,109
853920,note_on,0,0,3,,,,,,,,,2,,,55,109
853920,note_on,0,0,3,,,,,,,,,2,,,51,109
853920,note_off,240,0,3,,,,,,,,,2,,,55,0
853920,note_off,0,0,3,,,,,,,,,2,,,58,0
853920,note_off,0,0,3,,,,,,,,,2,,,63,0
853920,note_off,120,0,1,,,,,,,,,0,,,94,0
853920,note_on,0,0,3,,,,,,,,,2,,,63,109
854400,control_change,480,0,3,,,,,,,64,0,2,,,,
854400,note_off,0,0,3,,,,,,,,,2,,,55,0
854400,note_off,480,0,1,,,,,,,,,0,,,99,0
854400,note_off,0,0,1,,,,,,,,,0,,,87,0
854400,note_off,0,0,3,,,,,,,,,2,,,51,0
854400,note_off,0,0,3,,,,,,,,,2,,,58,0
854400,note_off,0,0,3,,,,,,,,,2,,,63,0
854640,note_on,0,0,3,,,,,,,,,2,,,58,110
854640,note_on,240,0,3,,,,,,,,,2,,,46,110
854640,set_tempo,780,1,0,,,,,,465116,,,,,,,
854640,note_on,28080,0,2,,,,,,,,,1,,,68,125
854640,note_on,0,0,2,,,,,,,,,1,,,65,125
854640,note_on,0,0,2,,,,,,,,,1,,,70,125
854640,note_on,240,0,1,,,,,,,,,0,,,74,125
855120,note_off,0,0,3,,,,,,,,,2,,,46,0
855120,note_off,480,0,2,,,,,,,,,1,,,70,0
855120,note_off,0,0,2,,,,,,,,,1,,,65,0
855120,note_off,0,0,2,,,,,,,,,1,,,68,0
855120,note_off,480,0,1,,,,,,,,,0,,,74,0
855120,note_off,480,0,3,,,,,,,,,2,,,58,0
855240,end_of_track,0,1,0,,,,,,,,,,,,,
855240,set_tempo,600,1,0,,,,,,413793,,,,,,,
855360,note_on,0,0,2,,,,,,,,,1,,,67,124
855360,note_on,240,0,2,,,,,,,,,1,,,70,124
855360,note_on,0,0,3,,,,,,,,,2,,,39,105
855360,note_on,240,0,1,,,,,,,,,0,,,75,127
855360,note_on,240,0,3,,,,,,,,,2,,,51,105
855840,note_off,480,0,3,,,,,,,,,2,,,39,0
855840,note_off,0,0,2,,,,,,,,,1,,,70,0
855840,note_off,480,0,1,,,,,,,,,0,,,75,0
855840,end_of_track,0,1,1,,,,,,,,,,,,,
855840,note_off,0,0,3,,,,,,,,,2,,,51,0
855840,note_off,480,0,2,,,,,,,,,1,,,67,0
855840,end_of_track,0,1,2,,,,,,,,,,,,,
855840,end_of_track,0,1,3,,,,,,,,,,,,,
