tick,type,time,meta,track,numerator,denominator,clocks_per_click,notated_32nd_notes_per_beat,key,tempo,control,value,channel,program,pitch,note,velocity
0,track_name,0,1,0,,,,,,,,,,,,,
0,control_change,0,0,1,,,,,,,10,73,0,,,,
0,control_change,0,0,1,,,,,,,91,91,0,,,,
0,control_change,0,0,1,,,,,,,93,28,0,,,,
0,control_change,0,0,1,,,,,,,64,0,0,,,,
0,control_change,0,0,1,,,,,,,1,0,0,,,,
0,control_change,0,0,1,,,,,,,7,127,0,,,,
0,control_change,0,0,1,,,,,,,32,0,0,,,,
0,control_change,0,0,1,,,,,,,0,0,0,,,,
0,track_name,0,1,1,,,,,,,,,,,,,
0,track_name,0,1,4,,,,,,,,,,,,,
0,control_change,0,0,4,,,,,,,0,0,3,,,,
0,control_change,0,0,4,,,,,,,32,0,3,,,,
0,program_change,0,0,4,,,,,,,,,3,0,,,
0,control_change,0,0,4,,,,,,,10,55,3,,,,
0,control_change,0,0,4,,,,,,,91,91,3,,,,
0,control_change,0,0,4,,,,,,,93,28,3,,,,
0,control_change,0,0,4,,,,,,,64,0,3,,,,
0,control_change,0,0,4,,,,,,,1,0,3,,,,
0,pitchwheel,0,0,4,,,,,,,,,3,,0,,
0,program_change,0,0,1,,,,,,,,,0,0,,,
0,control_change,0,0,4,,,,,,,7,122,3,,,,
0,pitchwheel,0,0,1,,,,,,,,,0,,0,,
0,control_change,0,0,3,,,,,,,7,112,2,,,,
0,control_change,0,0,2,,,,,,,32,0,1,,,,
0,program_change,0,0,2,,,,,,,,,1,0,,,
0,control_change,0,0,2,,,,,,,10,64,1,,,,
0,control_change,0,0,2,,,,,,,91,91,1,,,,
0,control_change,0,0,2,,,,,,,93,28,1,,,,
0,control_change,0,0,2,,,,,,,64,0,1,,,,
0,control_change,0,0,2,,,,,,,1,0,1,,,,
0,pitchwheel,0,0,2,,,,,,,,,1,,0,,
0,control_change,0,0,2,,,,,,,7,117,1,,,,
0,track_name,0,1,3,,,,,,,,,,,,,
0,control_change,0,0,3,,,,,,,0,0,2,,,,
0,control_change,0,0,3,,,,,,,32,0,2,,,,
0,program_change,0,0,3,,,,,,,,,2,0,,,
0,control_change,0,0,3,,,,,,,10,64,2,,,,
0,control_change,0,0,3,,,,,,,91,91,2,,,,
0,control_change,0,0,3,,,,,,,93,28,2,,,,
0,control_change,0,0,3,,,,,,,64,0,2,,,,
0,control_change,0,0,3,,,,,,,1,0,2,,,,
0,pitchwheel,0,0,3,,,,,,,,,2,,0,,
0,control_change,0,0,2,,,,,,,0,0,1,,,,
0,track_name,0,1,5,,,,,,,,,,,,,
0,track_name,0,1,2,,,,,,,,,,,,,
0,marker,0,1,0,,,,,,,,,,,,,
0,set_tempo,0,1,0,,,,,,600000,,,,,,,
0,key_signature,0,1,0,,,,,C,,,,,,,,
0,time_signature,0,1,0,2,4,24,8,,,,,,,,,
960,marker,0,1,0,,,,,,,,,,,,,
960,set_tempo,960,1,0,,,,,,419580,,,,,,,
1440,set_tempo,480,1,0,,,,,,434782,,,,,,,
1440,note_on,1440,0,1,,,,,,,,,0,,,68,53
1560,note_on,1560,0,2,,,,,,,,,1,,,71,43
1680,note_on,1680,0,4,,,,,,,,,3,,,52,49
1800,note_on,1800,0,3,,,,,,,,,2,,,59,47
1920,note_on,0,0,1,,,,,,,,,0,,,71,53
1920,marker,0,1,0,,,,,,,,,,,,,
1920,note_off,120,0,3,,,,,,,,,2,,,59,0
1920,note_off,480,0,1,,,,,,,,,0,,,68,0
1920,note_off,360,0,2,,,,,,,,,1,,,71,0
1920,set_tempo,480,1,0,,,,,,428571,,,,,,,
1920,note_off,240,0,4,,,,,,,,,3,,,52,0
2040,note_on,120,0,2,,,,,,,,,1,,,66,42
2160,note_on,240,0,4,,,,,,,,,3,,,63,48
2280,note_on,360,0,3,,,,,,,,,2,,,51,47
2400,note_off,360,0,2,,,,,,,,,1,,,66,0
2400,note_off,480,0,1,,,,,,,,,0,,,71,0
2400,note_on,0,0,1,,,,,,,,,0,,,64,52
2400,note_off,120,0,3,,,,,,,,,2,,,51,0
2400,note_off,240,0,4,,,,,,,,,3,,,63,0
2420,set_tempo,500,1,0,,,,,,425531,,,,,,,
2520,note_on,120,0,2,,,,,,,,,1,,,68,42
2640,note_on,240,0,4,,,,,,,,,3,,,49,47
2760,note_on,360,0,3,,,,,,,,,2,,,56,46
2880,note_off,360,0,2,,,,,,,,,1,,,68,0
2880,set_tempo,460,1,0,,,,,,422535,,,,,,,
2880,note_off,120,0,3,,,,,,,,,2,,,56,0
2880,note_off,480,0,1,,,,,,,,,0,,,64,0
2880,note_off,240,0,4,,,,,,,,,3,,,49,0
2880,note_on,0,0,1,,,,,,,,,0,,,68,52
2880,marker,0,1,0,,,,,,,,,,,,,
3000,note_on,120,0,2,,,,,,,,,1,,,63,41
3120,note_on,240,0,4,,,,,,,,,3,,,59,46
3240,note_on,360,0,3,,,,,,,,,2,,,47,45
3360,set_tempo,480,1,0,,,,,,419580,,,,,,,
3360,note_off,120,0,3,,,,,,,,,2,,,47,0
3360,note_off,360,0,2,,,,,,,,,1,,,63,0
3360,note_on,0,0,1,,,,,,,,,0,,,61,51
3360,note_off,480,0,1,,,,,,,,,0,,,68,0
3360,note_off,240,0,4,,,,,,,,,3,,,59,0
3480,note_on,120,0,2,,,,,,,,,1,,,64,40
3600,note_on,240,0,4,,,,,,,,,3,,,45,45
3720,note_on,360,0,3,,,,,,,,,2,,,52,44
3840,note_off,360,0,2,,,,,,,,,1,,,64,0
3840,note_off,480,0,1,,,,,,,,,0,,,61,0
3840,marker,480,1,0,,,,,,,,,,,,,
3840,note_off,120,0,3,,,,,,,,,2,,,52,0
3840,note_off,240,0,4,,,,,,,,,3,,,45,0
3840,note_on,0,0,1,,,,,,,,,0,,,64,50
3960,note_on,120,0,2,,,,,,,,,1,,,59,39
4080,note_on,240,0,4,,,,,,,,,3,,,56,44
4200,note_on,360,0,3,,,,,,,,,2,,,44,43
4320,note_off,240,0,4,,,,,,,,,3,,,56,0
4320,note_on,0,0,2,,,,,,,,,1,,,63,38
4320,note_on,360,0,2,,,,,,,,,1,,,57,38
4320,note_on,0,0,1,,,,,,,,,0,,,66,50
4320,note_off,480,0,1,,,,,,,,,0,,,64,0
4320,note_off,120,0,3,,,,,,,,,2,,,44,0
4327,note_off,7,0,2,,,,,,,,,1,,,59,0
4440,note_on,113,0,2,,,,,,,,,1,,,59,38
4560,note_on,240,0,4,,,,,,,,,3,,,35,43
4680,note_on,360,0,3,,,,,,,,,2,,,47,42
4800,note_off,360,0,2,,,,,,,,,1,,,59,0
4800,note_off,0,0,2,,,,,,,,,1,,,63,0
4800,note_off,0,0,2,,,,,,,,,1,,,57,0
4800,note_on,0,0,2,,,,,,,,,1,,,64,37
4800,note_on,0,0,2,,,,,,,,,1,,,56,37
4800,marker,960,1,0,,,,,,,,,,,,,
4800,note_off,240,0,4,,,,,,,,,3,,,35,0
4800,note_off,480,0,1,,,,,,,,,0,,,66,0
4800,note_on,0,0,1,,,,,,,,,0,,,68,49
4800,note_off,120,0,3,,,,,,,,,2,,,47,0
4920,note_on,120,0,2,,,,,,,,,1,,,59,37
5040,set_tempo,240,1,0,,,,,,425531,,,,,,,
5040,note_on,240,0,4,,,,,,,,,3,,,52,42
5160,note_on,360,0,3,,,,,,,,,2,,,40,42
5160,set_tempo,120,1,0,,,,,,480000,,,,,,,
5280,note_off,480,0,1,,,,,,,,,0,,,68,0
5280,note_off,360,0,2,,,,,,,,,1,,,64,0
5280,note_on,0,0,1,,,,,,,,,0,,,68,48
5280,note_off,120,0,3,,,,,,,,,2,,,40,0
5280,note_off,240,0,4,,,,,,,,,3,,,52,0
5280,set_tempo,120,1,0,,,,,,434782,,,,,,,
5400,note_on,0,0,2,,,,,,,,,1,,,71,36
5400,note_off,120,0,2,,,,,,,,,1,,,59,0
5520,note_on,240,0,4,,,,,,,,,3,,,52,44
5640,note_on,360,0,3,,,,,,,,,2,,,59,44
5760,note_off,120,0,3,,,,,,,,,2,,,59,0
5760,marker,0,1,0,,,,,,,,,,,,,
5760,note_off,240,0,4,,,,,,,,,3,,,52,0
5760,note_off,480,0,1,,,,,,,,,0,,,68,0
5760,set_tempo,480,1,0,,,,,,428571,,,,,,,
5760,note_off,360,0,2,,,,,,,,,1,,,71,0
5760,note_off,0,0,2,,,,,,,,,1,,,56,0
5760,note_on,0,0,1,,,,,,,,,0,,,71,51
5880,note_on,120,0,2,,,,,,,,,1,,,66,40
6000,note_on,240,0,4,,,,,,,,,3,,,63,48
6120,note_on,360,0,3,,,,,,,,,2,,,51,48
6232,note_off,352,0,2,,,,,,,,,1,,,66,0
6240,note_on,8,0,2,,,,,,,,,1,,,64,43
6240,note_off,120,0,3,,,,,,,,,2,,,51,0
6240,note_off,240,0,4,,,,,,,,,3,,,63,0
6240,note_off,480,0,1,,,,,,,,,0,,,71,0
6240,note_on,0,0,1,,,,,,,,,0,,,70,56
6260,set_tempo,500,1,0,,,,,,425531,,,,,,,
6360,note_on,120,0,2,,,,,,,,,1,,,76,44
6480,note_on,240,0,4,,,,,,,,,3,,,49,52
6600,note_on,360,0,3,,,,,,,,,2,,,54,51
6720,set_tempo,460,1,0,,,,,,422535,,,,,,,
6720,note_on,0,0,2,,,,,,,,,1,,,63,47
6720,note_off,0,0,2,,,,,,,,,1,,,64,0
6720,note_off,240,0,4,,,,,,,,,3,,,49,0
6720,note_off,480,0,1,,,,,,,,,0,,,70,0
6720,note_on,0,0,1,,,,,,,,,0,,,75,60
6720,note_off,360,0,2,,,,,,,,,1,,,76,0
6720,note_off,120,0,3,,,,,,,,,2,,,54,0
6840,note_on,120,0,2,,,,,,,,,1,,,71,48
6960,note_on,240,0,4,,,,,,,,,3,,,59,55
7080,set_tempo,360,1,0,,,,,,425531,,,,,,,
7080,note_on,360,0,3,,,,,,,,,2,,,47,55
7200,set_tempo,120,1,0,,,,,,419580,,,,,,,
7200,note_off,0,0,2,,,,,,,,,1,,,63,0
7200,note_off,360,0,2,,,,,,,,,1,,,71,0
7200,note_off,480,0,1,,,,,,,,,0,,,75,0
7200,note_on,0,0,1,,,,,,,,,0,,,71,64
7200,note_off,120,0,3,,,,,,,,,2,,,47,0
7200,note_off,240,0,4,,,,,,,,,3,,,59,0
7320,note_on,120,0,2,,,,,,,,,1,,,75,52
7440,note_on,240,0,4,,,,,,,,,3,,,54,59
7560,note_on,360,0,3,,,,,,,,,2,,,66,58
7672,note_off,472,0,1,,,,,,,,,0,,,71,0
7680,note_off,360,0,2,,,,,,,,,1,,,75,0
7680,note_on,8,0,1,,,,,,,,,0,,,76,68
7680,note_off,240,0,4,,,,,,,,,3,,,54,0
7680,note_off,120,0,3,,,,,,,,,2,,,66,0
7800,note_on,120,0,2,,,,,,,,,1,,,71,56
7920,note_on,240,0,4,,,,,,,,,3,,,68,62
8040,set_tempo,840,1,0,,,,,,425531,,,,,,,
8040,note_on,360,0,3,,,,,,,,,2,,,56,62
8152,note_off,352,0,2,,,,,,,,,1,,,71,0
8160,note_on,8,0,2,,,,,,,,,1,,,68,58
8160,note_off,480,0,1,,,,,,,,,0,,,76,0
8160,note_off,120,0,3,,,,,,,,,2,,,56,0
8160,note_off,240,0,4,,,,,,,,,3,,,68,0
8160,note_on,0,0,1,,,,,,,,,0,,,71,72
8280,note_on,120,0,2,,,,,,,,,1,,,80,59
8400,note_on,240,0,4,,,,,,,,,3,,,52,66
8520,note_on,360,0,3,,,,,,,,,2,,,64,65
8640,note_off,120,0,3,,,,,,,,,2,,,64,0
8640,note_off,240,0,4,,,,,,,,,3,,,52,0
8640,note_on,480,0,1,,,,,,,,,0,,,78,77
8640,note_off,360,0,2,,,,,,,,,1,,,80,0
8640,note_off,0,0,2,,,,,,,,,1,,,68,0
8647,note_off,7,0,1,,,,,,,,,0,,,71,0
8760,note_on,0,0,2,,,,,,,,,1,,,71,63
8760,note_on,120,0,2,,,,,,,,,1,,,75,63
8880,note_on,240,0,4,,,,,,,,,3,,,66,69
9000,set_tempo,960,1,0,,,,,,428571,,,,,,,
9000,note_on,360,0,3,,,,,,,,,2,,,54,69
9120,note_off,360,0,2,,,,,,,,,1,,,75,0
9120,note_on,0,0,2,,,,,,,,,1,,,70,66
9120,note_off,120,0,3,,,,,,,,,2,,,54,0
9120,note_on,0,0,1,,,,,,,,,0,,,73,81
9120,note_off,473,0,1,,,,,,,,,0,,,78,0
9120,note_off,240,0,4,,,,,,,,,3,,,66,0
9160,note_off,40,0,2,,,,,,,,,1,,,71,0
9240,note_on,80,0,2,,,,,,,,,1,,,82,67
9360,note_on,240,0,4,,,,,,,,,3,,,42,73
9480,set_tempo,480,1,0,,,,,,652173,,,,,,,
9480,note_on,360,0,3,,,,,,,,,2,,,54,72
9600,note_off,120,0,3,,,,,,,,,2,,,54,0
9600,note_on,0,0,1,,,,,,,,,0,,,69,76
9600,note_off,0,0,1,,,,,,,,,0,,,73,0
9600,time_signature,120,1,0,3,2,24,8,,,,,,,,,
9600,note_off,240,0,4,,,,,,,,,3,,,42,0
9600,control_change,480,0,1,,,,,,,64,127,0,,,,
9600,set_tempo,0,1,0,,,,,,526315,,,,,,,
9600,note_off,360,0,2,,,,,,,,,1,,,82,0
9600,note_off,0,0,2,,,,,,,,,1,,,70,0
9660,note_on,0,0,1,,,,,,,,,0,,,72,77
9660,note_off,60,0,1,,,,,,,,,0,,,69,0
9720,set_tempo,120,1,0,,,,,,535714,,,,,,,
9720,note_off,60,0,1,,,,,,,,,0,,,72,0
9720,note_on,0,0,1,,,,,,,,,0,,,75,79
9780,note_off,60,0,1,,,,,,,,,0,,,75,0
9780,note_on,0,0,1,,,,,,,,,0,,,78,81
9780,set_tempo,60,1,0,,,,,,550458,,,,,,,
9840,note_off,60,0,1,,,,,,,,,0,,,78,0
9840,note_on,0,0,1,,,,,,,,,0,,,81,86
9840,set_tempo,60,1,0,,,,,,1132075,,,,,,,
10080,set_tempo,240,1,0,,,,,,789473,,,,,,,
10080,note_on,480,0,4,,,,,,,,,3,,,63,73
10080,note_on,0,0,3,,,,,,,,,2,,,60,73
10080,note_on,0,0,3,,,,,,,,,2,,,54,73
10080,note_on,480,0,3,,,,,,,,,2,,,57,73
10272,note_off,0,0,3,,,,,,,,,2,,,54,0
10272,note_off,192,0,3,,,,,,,,,2,,,60,0
10272,note_off,192,0,4,,,,,,,,,3,,,63,0
10272,note_off,0,0,3,,,,,,,,,2,,,57,0
10320,note_on,48,0,4,,,,,,,,,3,,,64,68
10512,note_off,192,0,4,,,,,,,,,3,,,64,0
10560,note_on,48,0,4,,,,,,,,,3,,,66,64
10752,note_off,192,0,4,,,,,,,,,3,,,66,0
10780,set_tempo,700,1,0,,,,,,845070,,,,,,,
10800,note_on,48,0,4,,,,,,,,,3,,,68,59
10992,note_off,192,0,4,,,,,,,,,3,,,68,0
11040,note_on,768,0,3,,,,,,,,,2,,,63,54
11040,note_on,0,0,3,,,,,,,,,2,,,59,54
11040,note_on,0,0,1,,,,,,,,,0,,,80,59
11040,control_change,48,0,4,,,,,,,64,0,3,,,,
11040,note_on,0,0,4,,,,,,,,,3,,,69,54
11040,set_tempo,260,1,0,,,,,,789473,,,,,,,
11040,control_change,0,0,1,,,,,,,64,0,0,,,,
11040,control_change,1200,0,1,,,,,,,64,0,0,,,,
11062,note_off,22,0,1,,,,,,,,,0,,,81,0
11232,note_off,170,0,1,,,,,,,,,0,,,80,0
11280,note_on,48,0,1,,,,,,,,,0,,,78,55
11290,set_tempo,250,1,0,,,,,,821917,,,,,,,
11472,note_off,192,0,1,,,,,,,,,0,,,78,0
11472,note_off,432,0,3,,,,,,,,,2,,,59,0
11472,note_off,432,0,4,,,,,,,,,3,,,69,0
11472,note_off,0,0,3,,,,,,,,,2,,,63,0
11520,set_tempo,230,1,0,,,,,,810810,,,,,,,
11520,note_on,48,0,4,,,,,,,,,3,,,68,56
11520,note_on,48,0,1,,,,,,,,,0,,,76,54
11520,note_on,0,0,3,,,,,,,,,2,,,61,56
11520,note_on,48,0,3,,,,,,,,,2,,,64,56
11520,note_on,1920,0,2,,,,,,,,,1,,,73,54
11760,note_off,240,0,1,,,,,,,,,0,,,76,0
11760,note_on,0,0,3,,,,,,,,,2,,,66,61
11760,note_off,240,0,3,,,,,,,,,2,,,61,0
11760,note_off,240,0,4,,,,,,,,,3,,,68,0
11760,note_on,0,0,4,,,,,,,,,3,,,69,61
11760,note_on,0,0,2,,,,,,,,,1,,,72,58
11760,note_off,240,0,2,,,,,,,,,1,,,73,0
11760,note_on,0,0,1,,,,,,,,,0,,,75,58
11760,note_off,0,0,3,,,,,,,,,2,,,64,0
11880,set_tempo,360,1,0,,,,,,810810,,,,,,,
11952,note_off,192,0,4,,,,,,,,,3,,,69,0
11952,note_off,192,0,1,,,,,,,,,0,,,75,0
11952,note_off,192,0,3,,,,,,,,,2,,,66,0
11952,note_off,192,0,2,,,,,,,,,1,,,72,0
12000,set_tempo,120,1,0,,,,,,789473,,,,,,,
12000,note_on,48,0,3,,,,,,,,,2,,,64,65
12000,note_on,48,0,1,,,,,,,,,0,,,76,62
12000,note_on,48,0,2,,,,,,,,,1,,,73,62
12000,note_on,48,0,4,,,,,,,,,3,,,68,65
12165,set_tempo,165,1,0,,,,,,821917,,,,,,,
12192,note_off,192,0,2,,,,,,,,,1,,,73,0
12192,note_off,192,0,1,,,,,,,,,0,,,76,0
12192,note_off,192,0,4,,,,,,,,,3,,,68,0
12192,note_off,192,0,3,,,,,,,,,2,,,64,0
12240,note_on,48,0,3,,,,,,,,,2,,,63,72
12240,note_on,48,0,2,,,,,,,,,1,,,68,66
12240,note_on,0,0,2,,,,,,,,,1,,,72,66
12240,note_on,48,0,4,,,,,,,,,3,,,66,72
12240,note_on,48,0,1,,,,,,,,,0,,,78,66
12360,set_tempo,195,1,0,,,,,,895522,,,,,,,
12432,note_off,192,0,2,,,,,,,,,1,,,72,0
12432,note_off,0,0,2,,,,,,,,,1,,,68,0
12432,note_off,192,0,4,,,,,,,,,3,,,66,0
12432,note_off,192,0,3,,,,,,,,,2,,,63,0
12432,note_off,192,0,1,,,,,,,,,0,,,78,0
12480,set_tempo,120,1,0,,,,,,810810,,,,,,,
12480,note_on,48,0,1,,,,,,,,,0,,,79,78
12720,note_on,288,0,4,,,,,,,,,3,,,52,75
12792,note_off,312,0,1,,,,,,,,,0,,,79,0
12840,set_tempo,360,1,0,,,,,,845070,,,,,,,
12960,note_on,528,0,3,,,,,,,,,2,,,56,77
12960,note_on,0,0,3,,,,,,,,,2,,,52,77
12960,note_on,168,0,1,,,,,,,,,0,,,80,78
12960,set_tempo,120,1,0,,,,,,789473,,,,,,,
12960,note_on,0,0,2,,,,,,,,,1,,,73,78
12960,note_on,0,0,2,,,,,,,,,1,,,68,78
12960,note_off,240,0,4,,,,,,,,,3,,,52,0
12960,note_on,0,0,4,,,,,,,,,3,,,61,77
12960,note_on,528,0,2,,,,,,,,,1,,,76,78
12961,note_off,1,0,3,,,,,,,,,2,,,56,0
13152,note_off,192,0,4,,,,,,,,,3,,,61,0
13200,note_on,48,0,4,,,,,,,,,3,,,63,70
13320,note_off,359,0,3,,,,,,,,,2,,,52,0
13392,note_off,192,0,4,,,,,,,,,3,,,63,0
13440,note_on,48,0,4,,,,,,,,,3,,,64,63
13632,note_off,192,0,4,,,,,,,,,3,,,64,0
13674,note_off,0,0,2,,,,,,,,,1,,,73,0
13674,note_off,714,0,1,,,,,,,,,0,,,80,0
13674,note_off,714,0,2,,,,,,,,,1,,,68,0
13674,note_off,0,0,2,,,,,,,,,1,,,76,0
13680,set_tempo,720,1,0,,,,,,845070,,,,,,,
13680,note_on,48,0,4,,,,,,,,,3,,,66,57
13872,note_off,192,0,4,,,,,,,,,3,,,66,0
13920,set_tempo,240,1,0,,,,,,789473,,,,,,,
13920,note_on,600,0,3,,,,,,,,,2,,,58,50
13920,note_on,48,0,4,,,,,,,,,3,,,67,50
13920,note_on,246,0,1,,,,,,,,,0,,,78,59
13920,note_on,246,0,2,,,,,,,,,1,,,73,59
14112,note_off,192,0,2,,,,,,,,,1,,,73,0
14112,note_off,192,0,1,,,,,,,,,0,,,78,0
14160,note_on,48,0,1,,,,,,,,,0,,,76,54
14180,set_tempo,260,1,0,,,,,,821917,,,,,,,
14340,note_off,420,0,4,,,,,,,,,3,,,67,0
14340,note_off,420,0,3,,,,,,,,,2,,,58,0
14352,note_off,192,0,1,,,,,,,,,0,,,76,0
14400,note_on,288,0,2,,,,,,,,,1,,,66,53
14400,note_on,60,0,3,,,,,,,,,2,,,59,52
14400,note_on,60,0,4,,,,,,,,,3,,,63,52
14400,set_tempo,220,1,0,,,,,,789473,,,,,,,
14400,note_on,48,0,1,,,,,,,,,0,,,75,53
14640,note_off,240,0,4,,,,,,,,,3,,,63,0
14640,note_on,0,0,2,,,,,,,,,1,,,64,56
14640,note_off,240,0,1,,,,,,,,,0,,,75,0
14640,note_on,0,0,3,,,,,,,,,2,,,58,55
14640,note_off,240,0,3,,,,,,,,,2,,,59,0
14640,note_on,0,0,1,,,,,,,,,0,,,73,56
14640,note_on,0,0,4,,,,,,,,,3,,,61,55
14640,note_off,240,0,2,,,,,,,,,1,,,66,0
14640,note_on,0,0,2,,,,,,,,,1,,,66,56
14760,set_tempo,360,1,0,,,,,,810810,,,,,,,
14832,note_off,0,0,2,,,,,,,,,1,,,64,0
14832,note_off,192,0,4,,,,,,,,,3,,,61,0
14832,note_off,192,0,2,,,,,,,,,1,,,66,0
14832,note_off,192,0,3,,,,,,,,,2,,,58,0
14832,note_off,192,0,1,,,,,,,,,0,,,73,0
14880,note_on,0,0,2,,,,,,,,,1,,,66,59
14880,set_tempo,120,1,0,,,,,,789473,,,,,,,
14880,note_on,48,0,4,,,,,,,,,3,,,59,57
14880,note_on,48,0,2,,,,,,,,,1,,,63,59
14880,note_on,48,0,1,,,,,,,,,0,,,75,59
15060,set_tempo,180,1,0,,,,,,821917,,,,,,,
15072,note_off,192,0,4,,,,,,,,,3,,,59,0
15072,note_off,192,0,2,,,,,,,,,1,,,66,0
15072,note_off,0,0,2,,,,,,,,,1,,,63,0
15072,note_off,192,0,1,,,,,,,,,0,,,75,0
15120,note_on,288,0,3,,,,,,,,,2,,,56,60
15120,note_on,48,0,2,,,,,,,,,1,,,71,63
15120,note_on,0,0,2,,,,,,,,,1,,,64,63
15120,note_on,48,0,4,,,,,,,,,3,,,59,60
15120,note_on,48,0,1,,,,,,,,,0,,,76,63
15240,set_tempo,180,1,0,,,,,,895522,,,,,,,
15312,note_off,192,0,1,,,,,,,,,0,,,76,0
15312,note_off,192,0,2,,,,,,,,,1,,,64,0
15312,note_off,192,0,3,,,,,,,,,2,,,56,0
15312,note_off,0,0,2,,,,,,,,,1,,,71,0
15312,note_off,192,0,4,,,,,,,,,3,,,59,0
15360,note_on,48,0,3,,,,,,,,,2,,,59,63
15360,set_tempo,120,1,0,,,,,,789473,,,,,,,
15360,note_on,48,0,1,,,,,,,,,0,,,78,67
15360,note_on,48,0,4,,,,,,,,,3,,,51,63
15600,note_off,240,0,1,,,,,,,,,0,,,78,0
15600,note_on,0,0,1,,,,,,,,,0,,,71,65
15720,set_tempo,360,1,0,,,,,,810810,,,,,,,
15840,note_on,0,0,3,,,,,,,,,2,,,59,58
15840,note_off,480,0,3,,,,,,,,,2,,,59,0
15840,note_on,0,0,4,,,,,,,,,3,,,56,58
15840,note_off,480,0,4,,,,,,,,,3,,,51,0
15840,set_tempo,120,1,0,,,,,,789473,,,,,,,
15840,note_on,0,0,1,,,,,,,,,0,,,78,63
15840,note_off,240,0,1,,,,,,,,,0,,,71,0
16080,set_tempo,240,1,0,,,,,,845070,,,,,,,
16080,note_on,0,0,1,,,,,,,,,0,,,76,60
16080,note_off,240,0,1,,,,,,,,,0,,,78,0
16320,note_off,240,0,1,,,,,,,,,0,,,76,0
16320,note_off,480,0,3,,,,,,,,,2,,,59,0
16320,note_off,480,0,4,,,,,,,,,3,,,56,0
16320,set_tempo,240,1,0,,,,,,810810,,,,,,,
16320,note_on,0,0,1,,,,,,,,,0,,,75,58
16320,note_on,0,0,3,,,,,,,,,2,,,59,55
16320,note_on,0,0,4,,,,,,,,,3,,,54,55
16800,note_on,0,0,3,,,,,,,,,2,,,59,53
16800,note_on,0,0,3,,,,,,,,,2,,,63,53
16800,note_off,480,0,3,,,,,,,,,2,,,59,0
16800,note_on,0,0,4,,,,,,,,,3,,,54,53
16800,note_off,480,0,4,,,,,,,,,3,,,54,0
17160,set_tempo,840,1,0,,,,,,821917,,,,,,,
17280,note_on,0,0,3,,,,,,,,,2,,,61,57
17280,note_on,0,0,3,,,,,,,,,2,,,58,57
17280,note_off,0,0,3,,,,,,,,,2,,,63,0
17280,note_off,480,0,3,,,,,,,,,2,,,59,0
17280,note_on,0,0,4,,,,,,,,,3,,,54,57
17280,note_off,480,0,4,,,,,,,,,3,,,54,0
17280,note_off,960,0,1,,,,,,,,,0,,,75,0
17280,note_on,0,0,1,,,,,,,,,0,,,73,53
17380,set_tempo,220,1,0,,,,,,789473,,,,,,,
17400,note_off,120,0,1,,,,,,,,,0,,,73,0
17400,note_on,0,0,1,,,,,,,,,0,,,75,57
17520,note_off,120,0,1,,,,,,,,,0,,,75,0
17520,note_on,0,0,1,,,,,,,,,0,,,73,61
17600,note_off,80,0,1,,,,,,,,,0,,,73,0
17600,note_on,0,0,1,,,,,,,,,0,,,72,64
17680,note_off,80,0,1,,,,,,,,,0,,,72,0
17680,note_on,0,0,1,,,,,,,,,0,,,73,67
17760,note_off,80,0,1,,,,,,,,,0,,,73,0
17760,note_off,480,0,3,,,,,,,,,2,,,61,0
17760,note_off,0,0,3,,,,,,,,,2,,,58,0
17760,note_on,0,0,3,,,,,,,,,2,,,63,74
17760,note_on,0,0,3,,,,,,,,,2,,,57,74
17760,note_on,0,0,1,,,,,,,,,0,,,75,69
17760,note_on,0,0,3,,,,,,,,,2,,,59,74
17760,note_on,0,0,4,,,,,,,,,3,,,54,74
17760,note_off,480,0,4,,,,,,,,,3,,,54,0
17840,note_off,80,0,1,,,,,,,,,0,,,75,0
17840,note_on,0,0,1,,,,,,,,,0,,,76,72
17920,note_on,0,0,1,,,,,,,,,0,,,77,75
17920,note_off,80,0,1,,,,,,,,,0,,,76,0
18000,note_off,80,0,1,,,,,,,,,0,,,77,0
18000,note_on,0,0,1,,,,,,,,,0,,,78,78
18060,set_tempo,680,1,0,,,,,,810810,,,,,,,
18080,note_on,0,0,1,,,,,,,,,0,,,79,80
18080,note_off,80,0,1,,,,,,,,,0,,,78,0
18120,set_tempo,60,1,0,,,,,,821917,,,,,,,
18160,note_on,0,0,1,,,,,,,,,0,,,80,83
18160,note_off,80,0,1,,,,,,,,,0,,,79,0
18180,set_tempo,60,1,0,,,,,,895522,,,,,,,
18240,note_on,0,0,4,,,,,,,,,3,,,30,92
18240,note_on,0,0,4,,,,,,,,,3,,,42,92
18240,note_off,480,0,4,,,,,,,,,3,,,54,0
18240,note_off,0,0,3,,,,,,,,,2,,,63,0
18240,control_change,80,0,1,,,,,,,64,127,0,,,,
18240,note_off,0,0,3,,,,,,,,,2,,,57,0
18240,note_off,480,0,3,,,,,,,,,2,,,59,0
18240,set_tempo,60,1,0,,,,,,869565,,,,,,,
18240,note_on,0,0,1,,,,,,,,,0,,,81,86
18240,note_off,0,0,1,,,,,,,,,0,,,80,0
18350,set_tempo,110,1,0,,,,,,750000,,,,,,,
18360,note_on,0,0,1,,,,,,,,,0,,,93,95
18360,note_off,120,0,1,,,,,,,,,0,,,81,0
18480,note_on,0,0,1,,,,,,,,,0,,,87,89
18480,note_off,120,0,1,,,,,,,,,0,,,93,0
18600,note_on,0,0,1,,,,,,,,,0,,,84,87
18600,note_off,120,0,1,,,,,,,,,0,,,87,0
18720,note_off,120,0,1,,,,,,,,,0,,,84,0
18720,note_on,0,0,1,,,,,,,,,0,,,81,84
18840,note_on,0,0,1,,,,,,,,,0,,,75,81
18840,note_off,120,0,1,,,,,,,,,0,,,81,0
18960,note_on,0,0,1,,,,,,,,,0,,,72,78
18960,note_off,120,0,1,,,,,,,,,0,,,75,0
19080,note_on,0,0,1,,,,,,,,,0,,,69,75
19080,note_off,120,0,1,,,,,,,,,0,,,72,0
19200,note_off,120,0,1,,,,,,,,,0,,,69,0
19200,note_on,0,0,1,,,,,,,,,0,,,63,72
19320,note_on,0,0,1,,,,,,,,,0,,,60,70
19320,note_off,120,0,1,,,,,,,,,0,,,63,0
19440,note_on,0,0,1,,,,,,,,,0,,,57,67
19440,note_off,120,0,1,,,,,,,,,0,,,60,0
19560,note_on,0,0,1,,,,,,,,,0,,,51,64
19560,note_off,120,0,1,,,,,,,,,0,,,57,0
19680,note_off,120,0,1,,,,,,,,,0,,,51,0
19680,note_on,0,0,1,,,,,,,,,0,,,48,61
19760,note_off,80,0,1,,,,,,,,,0,,,48,0
19760,note_on,0,0,1,,,,,,,,,0,,,45,58
19840,note_off,80,0,1,,,,,,,,,0,,,45,0
19840,note_on,0,0,1,,,,,,,,,0,,,48,59
19920,note_on,0,0,1,,,,,,,,,0,,,51,60
19920,note_off,80,0,1,,,,,,,,,0,,,48,0
20000,note_off,80,0,1,,,,,,,,,0,,,51,0
20000,note_on,0,0,1,,,,,,,,,0,,,57,62
20080,note_off,80,0,1,,,,,,,,,0,,,57,0
20080,note_on,0,0,1,,,,,,,,,0,,,60,63
20160,note_off,80,0,1,,,,,,,,,0,,,60,0
20160,note_on,0,0,1,,,,,,,,,0,,,63,64
20220,note_on,0,0,1,,,,,,,,,0,,,69,65
20220,note_off,60,0,1,,,,,,,,,0,,,63,0
20280,note_on,0,0,1,,,,,,,,,0,,,72,66
20280,note_off,60,0,1,,,,,,,,,0,,,69,0
20340,note_on,0,0,1,,,,,,,,,0,,,75,67
20340,note_off,60,0,1,,,,,,,,,0,,,72,0
20400,note_off,60,0,1,,,,,,,,,0,,,75,0
20400,note_on,0,0,1,,,,,,,,,0,,,81,68
20460,note_off,60,0,1,,,,,,,,,0,,,81,0
20460,note_on,0,0,1,,,,,,,,,0,,,84,69
20520,note_off,60,0,1,,,,,,,,,0,,,84,0
20520,set_tempo,2170,1,0,,,,,,769230,,,,,,,
20520,note_on,0,0,1,,,,,,,,,0,,,87,70
20580,set_tempo,60,1,0,,,,,,810810,,,,,,,
20580,note_off,60,0,1,,,,,,,,,0,,,87,0
20580,note_on,0,0,1,,,,,,,,,0,,,93,72
20640,control_change,60,0,1,,,,,,,64,0,0,,,,
20640,note_on,0,0,1,,,,,,,,,0,,,92,78
20640,note_off,2400,0,4,,,,,,,,,3,,,30,0
20640,note_off,0,0,4,,,,,,,,,3,,,42,0
20640,note_on,0,0,4,,,,,,,,,3,,,41,79
20640,note_off,0,0,1,,,,,,,,,0,,,93,0
20640,note_on,0,0,4,,,,,,,,,3,,,29,79
20640,note_on,5328,0,2,,,,,,,,,1,,,80,78
20640,set_tempo,60,1,0,,,,,,769230,,,,,,,
20760,set_tempo,120,1,0,,,,,,789473,,,,,,,
20880,note_off,0,0,4,,,,,,,,,3,,,41,0
20880,note_on,0,0,4,,,,,,,,,3,,,27,88
20880,note_on,0,0,4,,,,,,,,,3,,,39,88
20880,note_off,240,0,4,,,,,,,,,3,,,29,0
20880,note_on,0,0,2,,,,,,,,,1,,,79,87
20880,note_off,240,0,2,,,,,,,,,1,,,80,0
20880,note_on,0,0,1,,,,,,,,,0,,,91,87
20880,note_off,240,0,1,,,,,,,,,0,,,92,0
20900,set_tempo,140,1,0,,,,,,845070,,,,,,,
21120,note_off,0,0,1,,,,,,,,,0,,,91,0
21120,control_change,240,0,1,,,,,,,64,127,0,,,,
21120,note_on,0,0,1,,,,,,,,,0,,,91,98
21120,note_on,0,0,4,,,,,,,,,3,,,27,98
21120,note_on,0,0,4,,,,,,,,,3,,,39,98
21120,note_off,0,0,4,,,,,,,,,3,,,27,0
21120,note_off,0,0,4,,,,,,,,,3,,,39,0
21120,note_off,240,0,2,,,,,,,,,1,,,79,0
21120,control_change,240,0,4,,,,,,,64,127,3,,,,
21190,set_tempo,290,1,0,,,,,,750000,,,,,,,
21200,note_on,0,0,1,,,,,,,,,0,,,87,94
21200,note_off,80,0,1,,,,,,,,,0,,,91,0
21280,note_on,0,0,1,,,,,,,,,0,,,82,92
21280,note_off,80,0,1,,,,,,,,,0,,,87,0
21360,note_on,0,0,1,,,,,,,,,0,,,79,91
21360,note_off,80,0,1,,,,,,,,,0,,,82,0
21440,note_off,80,0,1,,,,,,,,,0,,,79,0
21440,note_on,0,0,1,,,,,,,,,0,,,75,90
21520,note_off,80,0,1,,,,,,,,,0,,,75,0
21520,note_on,0,0,1,,,,,,,,,0,,,70,88
21600,note_on,0,0,1,,,,,,,,,0,,,67,87
21600,note_off,80,0,1,,,,,,,,,0,,,70,0
21680,note_on,0,0,1,,,,,,,,,0,,,63,86
21680,note_off,80,0,1,,,,,,,,,0,,,67,0
21760,note_on,0,0,1,,,,,,,,,0,,,58,84
21760,note_off,80,0,1,,,,,,,,,0,,,63,0
21840,note_on,0,0,1,,,,,,,,,0,,,55,83
21840,note_off,80,0,1,,,,,,,,,0,,,58,0
21920,note_on,0,0,1,,,,,,,,,0,,,51,82
21920,note_off,80,0,1,,,,,,,,,0,,,55,0
22000,note_off,80,0,1,,,,,,,,,0,,,51,0
22000,note_on,0,0,1,,,,,,,,,0,,,46,80
22080,note_off,80,0,1,,,,,,,,,0,,,46,0
22080,note_on,0,0,1,,,,,,,,,0,,,39,79
22140,note_off,60,0,1,,,,,,,,,0,,,39,0
22140,note_on,0,0,1,,,,,,,,,0,,,43,78
22200,note_off,60,0,1,,,,,,,,,0,,,43,0
22200,note_on,0,0,1,,,,,,,,,0,,,46,76
22260,note_off,60,0,1,,,,,,,,,0,,,46,0
22260,note_on,0,0,1,,,,,,,,,0,,,51,75
22320,note_off,60,0,1,,,,,,,,,0,,,51,0
22320,note_on,0,0,1,,,,,,,,,0,,,55,74
22380,note_off,60,0,1,,,,,,,,,0,,,55,0
22380,note_on,0,0,1,,,,,,,,,0,,,58,72
22440,note_off,60,0,1,,,,,,,,,0,,,58,0
22440,note_on,0,0,1,,,,,,,,,0,,,63,71
22500,note_off,60,0,1,,,,,,,,,0,,,63,0
22500,note_on,0,0,1,,,,,,,,,0,,,67,70
22560,note_off,60,0,1,,,,,,,,,0,,,67,0
22560,note_on,0,0,1,,,,,,,,,0,,,51,69
22620,note_off,60,0,1,,,,,,,,,0,,,51,0
22620,note_on,0,0,1,,,,,,,,,0,,,55,67
22680,note_on,0,0,1,,,,,,,,,0,,,58,66
22680,note_off,60,0,1,,,,,,,,,0,,,55,0
22740,note_off,60,0,1,,,,,,,,,0,,,58,0
22740,note_on,0,0,1,,,,,,,,,0,,,63,65
22800,note_on,0,0,1,,,,,,,,,0,,,67,64
22800,note_off,60,0,1,,,,,,,,,0,,,63,0
22860,note_off,60,0,1,,,,,,,,,0,,,67,0
22860,note_on,0,0,1,,,,,,,,,0,,,70,62
22920,note_off,60,0,1,,,,,,,,,0,,,70,0
22920,note_on,0,0,1,,,,,,,,,0,,,75,61
22980,note_on,0,0,1,,,,,,,,,0,,,79,60
22980,note_off,60,0,1,,,,,,,,,0,,,75,0
23040,note_off,0,0,4,,,,,,,,,3,,,39,0
23040,note_off,1920,0,4,,,,,,,,,3,,,27,0
23040,note_on,0,0,1,,,,,,,,,0,,,63,58
23040,note_off,60,0,1,,,,,,,,,0,,,79,0
23100,note_on,0,0,1,,,,,,,,,0,,,67,57
23100,note_off,60,0,1,,,,,,,,,0,,,63,0
23160,note_on,0,0,1,,,,,,,,,0,,,70,56
23160,note_off,60,0,1,,,,,,,,,0,,,67,0
23220,note_on,0,0,1,,,,,,,,,0,,,75,55
23220,note_off,60,0,1,,,,,,,,,0,,,70,0
23280,note_off,60,0,1,,,,,,,,,0,,,75,0
23280,note_on,0,0,1,,,,,,,,,0,,,79,53
23340,note_off,60,0,1,,,,,,,,,0,,,79,0
23340,note_on,0,0,1,,,,,,,,,0,,,82,52
23400,note_off,60,0,1,,,,,,,,,0,,,82,0
23400,set_tempo,2210,1,0,,,,,,769230,,,,,,,
23400,note_on,0,0,1,,,,,,,,,0,,,87,51
23460,set_tempo,60,1,0,,,,,,810810,,,,,,,
23460,note_on,0,0,1,,,,,,,,,0,,,91,50
23460,note_off,60,0,1,,,,,,,,,0,,,87,0
23520,note_on,0,0,3,,,,,,,,,2,,,45,45
23520,note_on,5280,0,3,,,,,,,,,2,,,51,45
23520,note_on,0,0,1,,,,,,,,,0,,,91,48
23520,note_on,2400,0,2,,,,,,,,,1,,,79,48
23520,control_change,480,0,4,,,,,,,64,0,3,,,,
23520,note_on,0,0,4,,,,,,,,,3,,,39,45
23520,control_change,60,0,1,,,,,,,64,0,0,,,,
23520,note_off,0,0,1,,,,,,,,,0,,,91,0
23530,set_tempo,70,1,0,,,,,,810810,,,,,,,
23760,note_off,240,0,3,,,,,,,,,2,,,45,0
23760,note_on,0,0,3,,,,,,,,,2,,,47,47
23760,note_on,0,0,2,,,,,,,,,1,,,78,49
23760,note_off,240,0,2,,,,,,,,,1,,,79,0
23760,note_on,0,0,1,,,,,,,,,0,,,90,49
23760,note_off,240,0,1,,,,,,,,,0,,,91,0
23770,set_tempo,240,1,0,,,,,,895522,,,,,,,
24000,note_on,0,0,1,,,,,,,,,0,,,90,53
24000,note_off,480,0,4,,,,,,,,,3,,,39,0
24000,note_on,0,0,4,,,,,,,,,3,,,39,53
24000,note_off,240,0,1,,,,,,,,,0,,,90,0
24000,note_on,0,0,2,,,,,,,,,1,,,78,53
24000,note_off,0,0,3,,,,,,,,,2,,,51,0
24000,note_off,240,0,3,,,,,,,,,2,,,47,0
24000,note_off,240,0,2,,,,,,,,,1,,,78,0
24000,note_on,0,0,3,,,,,,,,,2,,,47,53
24000,note_on,0,0,3,,,,,,,,,2,,,51,53
24060,set_tempo,290,1,0,,,,,,750000,,,,,,,
24120,note_off,120,0,2,,,,,,,,,1,,,78,0
24120,note_on,0,0,1,,,,,,,,,0,,,83,53
24120,note_off,120,0,1,,,,,,,,,0,,,90,0
24240,note_on,0,0,4,,,,,,,,,3,,,51,53
24240,note_off,240,0,4,,,,,,,,,3,,,39,0
24240,note_on,0,0,3,,,,,,,,,2,,,59,53
24240,note_off,0,0,3,,,,,,,,,2,,,51,0
24240,note_off,240,0,3,,,,,,,,,2,,,47,0
24240,note_on,0,0,1,,,,,,,,,0,,,82,52
24240,note_off,120,0,1,,,,,,,,,0,,,83,0
24360,note_off,120,0,1,,,,,,,,,0,,,82,0
24360,note_on,0,0,1,,,,,,,,,0,,,83,52
24480,note_off,240,0,3,,,,,,,,,2,,,59,0
24480,note_on,0,0,1,,,,,,,,,0,,,82,51
24480,note_off,120,0,1,,,,,,,,,0,,,83,0
24480,note_off,240,0,4,,,,,,,,,3,,,51,0
24600,note_on,0,0,1,,,,,,,,,0,,,83,50
24600,note_off,120,0,1,,,,,,,,,0,,,82,0
24720,note_on,0,0,1,,,,,,,,,0,,,90,50
24720,note_off,120,0,1,,,,,,,,,0,,,83,0
24720,note_on,240,0,3,,,,,,,,,2,,,59,51
24720,note_on,0,0,3,,,,,,,,,2,,,64,51
24720,note_on,240,0,4,,,,,,,,,3,,,56,51
24840,note_on,0,0,1,,,,,,,,,0,,,88,49
24840,note_off,120,0,1,,,,,,,,,0,,,90,0
24960,note_off,0,0,3,,,,,,,,,2,,,59,0
24960,note_off,240,0,3,,,,,,,,,2,,,64,0
24960,note_off,120,0,1,,,,,,,,,0,,,88,0
24960,note_on,0,0,1,,,,,,,,,0,,,87,49
24960,note_off,240,0,4,,,,,,,,,3,,,56,0
25080,note_off,120,0,1,,,,,,,,,0,,,87,0
25080,note_on,0,0,1,,,,,,,,,0,,,94,48
25200,note_on,240,0,3,,,,,,,,,2,,,63,49
25200,note_off,120,0,1,,,,,,,,,0,,,94,0
25200,note_on,0,0,1,,,,,,,,,0,,,95,47
25200,note_on,240,0,4,,,,,,,,,3,,,54,49
25200,note_on,0,0,3,,,,,,,,,2,,,59,49
25320,note_off,120,0,1,,,,,,,,,0,,,95,0
25320,note_on,0,0,1,,,,,,,,,0,,,94,47
25380,set_tempo,1320,1,0,,,,,,769230,,,,,,,
25440,note_off,120,0,1,,,,,,,,,0,,,94,0
25440,note_off,240,0,3,,,,,,,,,2,,,59,0
25440,note_off,0,0,3,,,,,,,,,2,,,63,0
25440,note_off,240,0,4,,,,,,,,,3,,,54,0
25440,note_on,0,0,3,,,,,,,,,2,,,87,48
25440,note_on,0,0,1,,,,,,,,,0,,,95,46
25490,set_tempo,110,1,0,,,,,,750000,,,,,,,
25520,note_off,80,0,3,,,,,,,,,2,,,87,0
25520,note_on,0,0,3,,,,,,,,,2,,,85,48
25520,note_on,0,0,1,,,,,,,,,0,,,94,46
25520,note_off,80,0,1,,,,,,,,,0,,,95,0
25600,note_off,80,0,1,,,,,,,,,0,,,94,0
25600,note_on,0,0,1,,,,,,,,,0,,,90,47
25600,note_off,80,0,3,,,,,,,,,2,,,85,0
25600,note_on,0,0,3,,,,,,,,,2,,,82,49
25680,note_on,0,0,1,,,,,,,,,0,,,94,47
25680,note_off,80,0,1,,,,,,,,,0,,,90,0
25680,note_off,80,0,3,,,,,,,,,2,,,82,0
25680,note_on,0,0,3,,,,,,,,,2,,,85,50
25760,note_off,80,0,3,,,,,,,,,2,,,85,0
25760,note_on,0,0,1,,,,,,,,,0,,,92,48
25760,note_off,80,0,1,,,,,,,,,0,,,94,0
25760,note_on,0,0,3,,,,,,,,,2,,,83,50
25840,note_off,80,0,1,,,,,,,,,0,,,92,0
25840,note_on,0,0,3,,,,,,,,,2,,,80,51
25840,note_on,0,0,1,,,,,,,,,0,,,88,48
25840,note_off,80,0,3,,,,,,,,,2,,,83,0
25920,note_on,0,0,3,,,,,,,,,2,,,83,51
25920,note_on,0,0,1,,,,,,,,,0,,,92,49
25920,note_off,80,0,1,,,,,,,,,0,,,88,0
25920,note_off,80,0,3,,,,,,,,,2,,,80,0
26000,note_off,80,0,1,,,,,,,,,0,,,92,0
26000,note_off,80,0,3,,,,,,,,,2,,,83,0
26000,note_on,0,0,1,,,,,,,,,0,,,90,49
26000,note_on,0,0,3,,,,,,,,,2,,,82,52
26080,note_off,80,0,3,,,,,,,,,2,,,82,0
26080,note_on,0,0,3,,,,,,,,,2,,,78,52
26080,note_on,0,0,1,,,,,,,,,0,,,87,49
26080,note_off,80,0,1,,,,,,,,,0,,,90,0
26160,note_off,80,0,3,,,,,,,,,2,,,78,0
26160,note_on,0,0,3,,,,,,,,,2,,,82,53
26160,note_off,80,0,1,,,,,,,,,0,,,87,0
26160,note_on,0,0,1,,,,,,,,,0,,,90,50
26240,note_on,0,0,1,,,,,,,,,0,,,88,50
26240,note_on,0,0,3,,,,,,,,,2,,,80,54
26240,note_off,80,0,1,,,,,,,,,0,,,90,0
26240,note_off,80,0,3,,,,,,,,,2,,,82,0
26320,note_on,0,0,1,,,,,,,,,0,,,85,51
26320,note_off,80,0,1,,,,,,,,,0,,,88,0
26320,note_on,0,0,3,,,,,,,,,2,,,76,54
26320,note_off,80,0,3,,,,,,,,,2,,,80,0
26400,note_off,80,0,3,,,,,,,,,2,,,76,0
26400,note_off,80,0,1,,,,,,,,,0,,,85,0
26400,note_on,0,0,1,,,,,,,,,0,,,88,51
26400,note_on,0,0,3,,,,,,,,,2,,,80,55
26480,note_off,80,0,1,,,,,,,,,0,,,88,0
26480,note_on,0,0,1,,,,,,,,,0,,,87,52
26480,note_on,0,0,3,,,,,,,,,2,,,78,55
26480,note_off,80,0,3,,,,,,,,,2,,,80,0
26560,note_on,0,0,3,,,,,,,,,2,,,75,56
26560,note_off,80,0,3,,,,,,,,,2,,,78,0
26560,note_off,80,0,1,,,,,,,,,0,,,87,0
26560,note_on,0,0,1,,,,,,,,,0,,,83,52
26640,note_on,0,0,1,,,,,,,,,0,,,87,53
26640,note_off,80,0,1,,,,,,,,,0,,,83,0
26640,note_off,80,0,3,,,,,,,,,2,,,75,0
26640,note_on,0,0,3,,,,,,,,,2,,,78,56
26720,note_off,80,0,1,,,,,,,,,0,,,87,0
26720,note_off,80,0,3,,,,,,,,,2,,,78,0
26720,note_on,0,0,3,,,,,,,,,2,,,76,57
26720,note_on,0,0,1,,,,,,,,,0,,,85,53
26800,note_on,0,0,1,,,,,,,,,0,,,82,53
26800,note_off,80,0,1,,,,,,,,,0,,,85,0
26800,note_off,80,0,3,,,,,,,,,2,,,76,0
26800,note_on,0,0,3,,,,,,,,,2,,,73,58
26880,note_on,0,0,3,,,,,,,,,2,,,75,66
26880,note_off,80,0,3,,,,,,,,,2,,,73,0
26880,note_on,1440,0,4,,,,,,,,,3,,,71,66
26880,note_off,80,0,1,,,,,,,,,0,,,82,0
26880,note_on,0,0,1,,,,,,,,,0,,,83,54
26960,note_off,80,0,1,,,,,,,,,0,,,83,0
26960,note_on,0,0,1,,,,,,,,,0,,,82,54
27040,note_on,0,0,1,,,,,,,,,0,,,80,55
27040,note_off,80,0,1,,,,,,,,,0,,,82,0
27120,note_off,80,0,1,,,,,,,,,0,,,80,0
27120,note_on,0,0,1,,,,,,,,,0,,,78,55
27120,note_off,240,0,4,,,,,,,,,3,,,71,0
27120,note_off,240,0,3,,,,,,,,,2,,,75,0
27120,note_on,0,0,4,,,,,,,,,3,,,54,68
27200,note_off,80,0,1,,,,,,,,,0,,,78,0
27200,note_on,0,0,1,,,,,,,,,0,,,76,56
27276,note_off,156,0,4,,,,,,,,,3,,,54,0
27280,note_off,80,0,1,,,,,,,,,0,,,76,0
27280,note_on,0,0,1,,,,,,,,,0,,,75,56
27360,note_off,80,0,1,,,,,,,,,0,,,75,0
27360,note_on,84,0,4,,,,,,,,,3,,,56,71
27360,note_on,0,0,1,,,,,,,,,0,,,73,57
27440,note_off,80,0,1,,,,,,,,,0,,,73,0
27440,note_on,0,0,1,,,,,,,,,0,,,71,57
27516,note_off,156,0,4,,,,,,,,,3,,,56,0
27520,note_off,80,0,1,,,,,,,,,0,,,71,0
27520,note_on,0,0,1,,,,,,,,,0,,,70,57
27600,note_off,80,0,1,,,,,,,,,0,,,70,0
27600,note_on,0,0,1,,,,,,,,,0,,,68,58
27600,note_on,84,0,4,,,,,,,,,3,,,58,73
27680,note_on,0,0,1,,,,,,,,,0,,,66,58
27680,note_off,80,0,1,,,,,,,,,0,,,68,0
27756,note_off,156,0,4,,,,,,,,,3,,,58,0
27760,note_off,80,0,1,,,,,,,,,0,,,66,0
27760,note_on,0,0,1,,,,,,,,,0,,,64,59
27840,note_on,0,0,1,,,,,,,,,0,,,63,59
27840,note_off,80,0,1,,,,,,,,,0,,,64,0
27840,note_on,84,0,4,,,,,,,,,3,,,59,76
27920,note_on,0,0,1,,,,,,,,,0,,,61,60
27920,note_off,80,0,1,,,,,,,,,0,,,63,0
28000,note_off,80,0,1,,,,,,,,,0,,,61,0
28000,note_on,0,0,1,,,,,,,,,0,,,59,60
28080,note_off,240,0,4,,,,,,,,,3,,,59,0
28080,note_off,80,0,1,,,,,,,,,0,,,59,0
28080,note_on,0,0,1,,,,,,,,,0,,,58,61
28160,note_on,0,0,1,,,,,,,,,0,,,56,61
28160,note_off,80,0,1,,,,,,,,,0,,,58,0
28200,set_tempo,2710,1,0,,,,,,789473,,,,,,,
28240,note_off,80,0,1,,,,,,,,,0,,,56,0
28240,note_on,0,0,1,,,,,,,,,0,,,54,62
28320,note_off,80,0,1,,,,,,,,,0,,,54,0
28320,note_on,0,0,1,,,,,,,,,0,,,52,62
28320,note_on,0,0,4,,,,,,,,,3,,,35,95
28320,control_change,240,0,4,,,,,,,64,127,3,,,,
28320,set_tempo,120,1,0,,,,,,769230,,,,,,,
28400,note_off,80,0,1,,,,,,,,,0,,,52,0
28400,note_on,0,0,1,,,,,,,,,0,,,51,62
28480,note_off,80,0,1,,,,,,,,,0,,,51,0
28480,note_on,0,0,1,,,,,,,,,0,,,49,63
28560,note_off,80,0,1,,,,,,,,,0,,,49,0
28560,note_on,0,0,1,,,,,,,,,0,,,47,63
28640,note_on,0,0,1,,,,,,,,,0,,,46,65
28640,note_off,80,0,1,,,,,,,,,0,,,47,0
28720,note_on,0,0,1,,,,,,,,,0,,,47,65
28720,note_off,80,0,1,,,,,,,,,0,,,46,0
28800,note_on,0,0,1,,,,,,,,,0,,,49,64
28800,note_off,80,0,1,,,,,,,,,0,,,47,0
28880,note_off,80,0,1,,,,,,,,,0,,,49,0
28880,note_on,0,0,1,,,,,,,,,0,,,51,63
28960,note_on,0,0,1,,,,,,,,,0,,,52,63
28960,note_off,80,0,1,,,,,,,,,0,,,51,0
29040,note_on,0,0,1,,,,,,,,,0,,,54,62
29040,note_off,80,0,1,,,,,,,,,0,,,52,0
29120,note_off,80,0,1,,,,,,,,,0,,,54,0
29120,note_on,0,0,1,,,,,,,,,0,,,56,62
29200,note_off,80,0,1,,,,,,,,,0,,,56,0
29200,note_on,0,0,1,,,,,,,,,0,,,58,61
29280,note_on,0,0,1,,,,,,,,,0,,,59,61
29280,note_off,80,0,1,,,,,,,,,0,,,58,0
29360,note_off,80,0,1,,,,,,,,,0,,,59,0
29360,note_on,0,0,1,,,,,,,,,0,,,61,60
29440,note_off,80,0,1,,,,,,,,,0,,,61,0
29440,note_on,0,0,1,,,,,,,,,0,,,63,60
29520,note_off,80,0,1,,,,,,,,,0,,,63,0
29520,note_on,0,0,1,,,,,,,,,0,,,64,59
29600,note_off,80,0,1,,,,,,,,,0,,,64,0
29600,note_on,0,0,1,,,,,,,,,0,,,66,59
29680,note_on,0,0,1,,,,,,,,,0,,,68,58
29680,note_off,80,0,1,,,,,,,,,0,,,66,0
29760,note_off,80,0,1,,,,,,,,,0,,,68,0
29760,note_on,0,0,1,,,,,,,,,0,,,70,58
29760,time_signature,1440,1,0,3,4,24,8,,,,,,,,,
29770,note_off,1450,0,4,,,,,,,,,3,,,35,0
29880,note_off,120,0,1,,,,,,,,,0,,,70,0
29880,note_on,0,0,1,,,,,,,,,0,,,71,57
30000,note_off,120,0,1,,,,,,,,,0,,,71,0
30000,note_on,0,0,1,,,,,,,,,0,,,73,56
30120,note_off,120,0,1,,,,,,,,,0,,,73,0
30120,note_on,0,0,1,,,,,,,,,0,,,75,55
30240,note_on,0,0,1,,,,,,,,,0,,,76,54
30240,note_off,120,0,1,,,,,,,,,0,,,75,0
30360,note_on,0,0,1,,,,,,,,,0,,,78,54
30360,note_off,120,0,1,,,,,,,,,0,,,76,0
30420,set_tempo,660,1,0,,,,,,789473,,,,,,,
30480,note_off,120,0,1,,,,,,,,,0,,,78,0
30480,note_on,0,0,1,,,,,,,,,0,,,80,53
30540,set_tempo,120,1,0,,,,,,1176470,,,,,,,
30600,note_on,0,0,1,,,,,,,,,0,,,82,52
30600,note_off,120,0,1,,,,,,,,,0,,,80,0
30720,note_on,0,0,4,,,,,,,,,3,,,63,50
30720,set_tempo,180,1,0,,,,,,419580,,,,,,,
30720,control_change,950,0,4,,,,,,,64,0,3,,,,
30720,note_off,120,0,1,,,,,,,,,0,,,82,0
30720,note_on,0,0,1,,,,,,,,,0,,,83,51
30840,note_on,3720,0,3,,,,,,,,,2,,,66,42
30960,note_on,0,0,1,,,,,,,,,0,,,71,50
30960,note_off,240,0,1,,,,,,,,,0,,,83,0
31080,note_on,6960,0,2,,,,,,,,,1,,,78,49
31200,time_signature,480,1,0,2,4,24,8,,,,,,,,,
31200,note_off,120,0,2,,,,,,,,,1,,,78,0
31200,note_off,360,0,3,,,,,,,,,2,,,66,0
31200,note_off,480,0,4,,,,,,,,,3,,,63,0
31200,note_on,0,0,4,,,,,,,,,3,,,66,51
31200,note_off,240,0,1,,,,,,,,,0,,,71,0
31320,note_on,120,0,3,,,,,,,,,2,,,61,43
31440,note_on,240,0,1,,,,,,,,,0,,,71,40
31560,note_on,360,0,2,,,,,,,,,1,,,70,40
31680,note_off,480,0,4,,,,,,,,,3,,,66,0
31680,note_off,240,0,1,,,,,,,,,0,,,71,0
31680,note_off,120,0,2,,,,,,,,,1,,,70,0
31680,note_off,360,0,3,,,,,,,,,2,,,61,0
31680,note_on,0,0,4,,,,,,,,,3,,,64,52
31800,note_on,120,0,3,,,,,,,,,2,,,68,44
31920,note_on,240,0,1,,,,,,,,,0,,,73,41
32040,note_on,360,0,2,,,,,,,,,1,,,80,41
32148,note_off,228,0,1,,,,,,,,,0,,,73,0
32160,note_off,480,0,4,,,,,,,,,3,,,64,0
32160,note_off,120,0,2,,,,,,,,,1,,,80,0
32160,note_on,0,0,4,,,,,,,,,3,,,68,53
32160,note_off,360,0,3,,,,,,,,,2,,,68,0
32280,note_on,120,0,3,,,,,,,,,2,,,63,45
32400,note_on,252,0,1,,,,,,,,,0,,,73,42
32520,set_tempo,1320,1,0,,,,,,425531,,,,,,,
32520,note_on,360,0,2,,,,,,,,,1,,,72,42
32640,note_off,240,0,1,,,,,,,,,0,,,73,0
32640,set_tempo,120,1,0,,,,,,419580,,,,,,,
32640,note_off,120,0,2,,,,,,,,,1,,,72,0
32640,note_off,480,0,4,,,,,,,,,3,,,68,0
32640,note_on,0,0,4,,,,,,,,,3,,,66,54
32640,note_off,360,0,3,,,,,,,,,2,,,63,0
32760,note_on,120,0,3,,,,,,,,,2,,,69,46
32880,note_on,240,0,2,,,,,,,,,1,,,71,42
32880,note_on,240,0,1,,,,,,,,,0,,,75,42
33000,note_on,120,0,2,,,,,,,,,1,,,84,43
33108,note_off,108,0,2,,,,,,,,,1,,,71,0
33108,note_off,228,0,1,,,,,,,,,0,,,75,0
33120,note_off,480,0,4,,,,,,,,,3,,,66,0
33120,note_off,360,0,3,,,,,,,,,2,,,69,0
33120,note_on,0,0,4,,,,,,,,,3,,,64,54
33120,note_off,12,0,2,,,,,,,,,1,,,84,0
33240,note_on,120,0,3,,,,,,,,,2,,,68,47
33360,note_on,240,0,2,,,,,,,,,1,,,73,43
33360,note_on,252,0,1,,,,,,,,,0,,,76,43
33480,note_on,120,0,2,,,,,,,,,1,,,85,44
33588,note_off,108,0,2,,,,,,,,,1,,,73,0
33588,note_off,228,0,1,,,,,,,,,0,,,76,0
33600,note_off,480,0,4,,,,,,,,,3,,,64,0
33600,note_on,0,0,4,,,,,,,,,3,,,66,55
33600,note_off,360,0,3,,,,,,,,,2,,,68,0
33600,note_on,0,0,4,,,,,,,,,3,,,63,55
33600,note_off,12,0,2,,,,,,,,,1,,,85,0
33720,note_on,120,0,3,,,,,,,,,2,,,68,48
33840,note_on,252,0,1,,,,,,,,,0,,,84,44
33960,note_on,360,0,2,,,,,,,,,1,,,87,45
34068,note_off,228,0,1,,,,,,,,,0,,,84,0
34080,note_on,0,0,4,,,,,,,,,3,,,61,56
34080,note_on,0,0,4,,,,,,,,,3,,,64,56
34080,note_off,0,0,4,,,,,,,,,3,,,66,0
34080,note_off,480,0,4,,,,,,,,,3,,,63,0
34080,note_off,360,0,3,,,,,,,,,2,,,68,0
34080,note_off,120,0,2,,,,,,,,,1,,,87,0
34200,note_on,120,0,3,,,,,,,,,2,,,68,49
34320,note_on,252,0,1,,,,,,,,,0,,,80,45
34440,note_on,360,0,2,,,,,,,,,1,,,88,46
34551,note_off,471,0,4,,,,,,,,,3,,,64,0
34560,note_off,360,0,3,,,,,,,,,2,,,68,0
34560,note_off,9,0,4,,,,,,,,,3,,,61,0
34560,note_on,0,0,4,,,,,,,,,3,,,60,57
34560,note_on,0,0,4,,,,,,,,,3,,,63,57
34560,note_off,120,0,2,,,,,,,,,1,,,88,0
34572,note_off,252,0,1,,,,,,,,,0,,,80,0
34680,note_on,120,0,3,,,,,,,,,2,,,68,50
34800,note_on,228,0,1,,,,,,,,,0,,,87,46
34800,note_on,240,0,2,,,,,,,,,1,,,78,46
34920,note_on,120,0,2,,,,,,,,,1,,,80,47
35022,note_off,462,0,4,,,,,,,,,3,,,63,0
35028,note_off,228,0,1,,,,,,,,,0,,,87,0
35028,note_off,108,0,2,,,,,,,,,1,,,78,0
35040,note_off,360,0,3,,,,,,,,,2,,,68,0
35040,note_off,12,0,2,,,,,,,,,1,,,80,0
35040,note_off,18,0,4,,,,,,,,,3,,,60,0
35040,note_on,0,0,4,,,,,,,,,3,,,64,58
35040,note_on,0,0,4,,,,,,,,,3,,,61,58
35160,note_on,120,0,3,,,,,,,,,2,,,68,51
35280,note_on,240,0,2,,,,,,,,,1,,,80,47
35280,note_on,252,0,1,,,,,,,,,0,,,83,47
35400,note_on,120,0,2,,,,,,,,,1,,,88,47
35502,note_off,462,0,4,,,,,,,,,3,,,64,0
35520,note_off,240,0,1,,,,,,,,,0,,,83,0
35520,note_on,0,0,4,,,,,,,,,3,,,57,59
35520,note_on,0,0,4,,,,,,,,,3,,,61,59
35520,note_off,18,0,4,,,,,,,,,3,,,61,0
35520,note_off,0,0,2,,,,,,,,,1,,,80,0
35520,note_off,120,0,2,,,,,,,,,1,,,88,0
35520,note_off,360,0,3,,,,,,,,,2,,,68,0
35640,note_on,120,0,3,,,,,,,,,2,,,68,52
35760,note_on,240,0,1,,,,,,,,,0,,,85,48
35760,note_on,240,0,2,,,,,,,,,1,,,78,48
35880,note_on,120,0,2,,,,,,,,,1,,,93,48
36000,note_on,0,0,4,,,,,,,,,3,,,56,58
36000,note_off,0,0,2,,,,,,,,,1,,,78,0
36000,note_off,120,0,2,,,,,,,,,1,,,93,0
36000,note_off,360,0,3,,,,,,,,,2,,,68,0
36000,note_off,240,0,1,,,,,,,,,0,,,85,0
36000,note_off,480,0,4,,,,,,,,,3,,,57,0
36000,note_off,0,0,4,,,,,,,,,3,,,61,0
36000,note_on,0,0,4,,,,,,,,,3,,,63,58
36120,note_on,120,0,3,,,,,,,,,2,,,68,53
36240,note_on,240,0,1,,,,,,,,,0,,,84,49
36240,note_on,240,0,2,,,,,,,,,1,,,80,49
36240,set_tempo,3600,1,0,,,,,,425531,,,,,,,
36360,note_on,120,0,2,,,,,,,,,1,,,92,49
36360,set_tempo,120,1,0,,,,,,517241,,,,,,,
36480,set_tempo,120,1,0,,,,,,419580,,,,,,,
36480,note_off,360,0,3,,,,,,,,,2,,,68,0
36480,note_on,0,0,1,,,,,,,,,0,,,75,40
36480,note_off,240,0,1,,,,,,,,,0,,,84,0
36480,note_off,480,0,4,,,,,,,,,3,,,56,0
36480,note_on,0,0,2,,,,,,,,,1,,,70,40
36480,note_off,0,0,2,,,,,,,,,1,,,80,0
36480,note_off,120,0,2,,,,,,,,,1,,,92,0
36480,note_off,0,0,4,,,,,,,,,3,,,63,0
36600,note_on,120,0,2,,,,,,,,,1,,,63,40
36720,note_on,240,0,4,,,,,,,,,3,,,55,36
36840,note_on,360,0,3,,,,,,,,,2,,,58,36
36948,note_off,348,0,2,,,,,,,,,1,,,70,0
36960,note_on,0,0,1,,,,,,,,,0,,,75,40
36960,note_off,480,0,1,,,,,,,,,0,,,75,0
36960,note_off,12,0,2,,,,,,,,,1,,,63,0
36960,note_on,0,0,2,,,,,,,,,1,,,71,40
36960,note_off,240,0,4,,,,,,,,,3,,,55,0
36960,note_off,120,0,3,,,,,,,,,2,,,58,0
37080,note_on,120,0,2,,,,,,,,,1,,,63,40
37200,note_on,240,0,4,,,,,,,,,3,,,56,36
37320,note_on,360,0,3,,,,,,,,,2,,,59,36
37428,note_off,348,0,2,,,,,,,,,1,,,71,0
37440,note_off,480,0,1,,,,,,,,,0,,,75,0
37440,note_off,12,0,2,,,,,,,,,1,,,63,0
37440,note_on,0,0,2,,,,,,,,,1,,,67,41
37440,note_off,120,0,3,,,,,,,,,2,,,59,0
37440,note_off,240,0,4,,,,,,,,,3,,,56,0
37440,note_on,0,0,1,,,,,,,,,0,,,73,41
37560,note_on,120,0,2,,,,,,,,,1,,,63,41
37680,note_on,240,0,4,,,,,,,,,3,,,46,37
37800,note_on,360,0,3,,,,,,,,,2,,,49,37
37908,note_off,348,0,2,,,,,,,,,1,,,67,0
37920,note_off,240,0,4,,,,,,,,,3,,,46,0
37920,note_on,0,0,2,,,,,,,,,1,,,68,42
37920,note_off,12,0,2,,,,,,,,,1,,,63,0
37920,note_off,120,0,3,,,,,,,,,2,,,49,0
37920,note_off,480,0,1,,,,,,,,,0,,,73,0
37920,note_on,0,0,1,,,,,,,,,0,,,71,42
38040,note_on,120,0,2,,,,,,,,,1,,,63,42
38160,note_on,240,0,4,,,,,,,,,3,,,47,38
38280,note_on,360,0,3,,,,,,,,,2,,,51,38
38388,note_off,348,0,2,,,,,,,,,1,,,68,0
38400,note_off,120,0,3,,,,,,,,,2,,,51,0
38400,note_off,240,0,4,,,,,,,,,3,,,47,0
38400,note_off,12,0,2,,,,,,,,,1,,,63,0
38400,note_off,480,0,1,,,,,,,,,0,,,71,0
38400,note_on,0,0,2,,,,,,,,,1,,,67,43
38400,note_on,0,0,2,,,,,,,,,1,,,64,43
38400,note_on,0,0,1,,,,,,,,,0,,,70,43
38520,note_on,120,0,2,,,,,,,,,1,,,61,43
38640,note_on,240,0,4,,,,,,,,,3,,,49,38
38760,note_on,360,0,3,,,,,,,,,2,,,52,38
38880,note_on,0,0,2,,,,,,,,,1,,,68,43
38880,note_off,120,0,3,,,,,,,,,2,,,52,0
38880,note_off,480,0,1,,,,,,,,,0,,,70,0
38880,note_on,0,0,1,,,,,,,,,0,,,71,43
38880,note_off,360,0,2,,,,,,,,,1,,,61,0
38880,note_off,0,0,2,,,,,,,,,1,,,67,0
38880,note_off,0,0,2,,,,,,,,,1,,,64,0
38880,note_on,0,0,2,,,,,,,,,1,,,65,43
38880,note_off,240,0,4,,,,,,,,,3,,,49,0
39000,note_on,120,0,2,,,,,,,,,1,,,59,43
39120,note_on,240,0,4,,,,,,,,,3,,,50,39
39240,note_on,360,0,3,,,,,,,,,2,,,53,39
39360,note_off,120,0,3,,,,,,,,,2,,,53,0
39360,note_off,0,0,2,,,,,,,,,1,,,65,0
39360,note_on,0,0,2,,,,,,,,,1,,,65,44
39360,note_on,0,0,1,,,,,,,,,0,,,68,44
39360,note_off,480,0,1,,,,,,,,,0,,,71,0
39360,note_on,0,0,2,,,,,,,,,1,,,59,44
39360,note_off,0,0,2,,,,,,,,,1,,,68,0
39360,note_off,360,0,2,,,,,,,,,1,,,59,0
39360,note_off,240,0,4,,,,,,,,,3,,,50,0
39480,note_on,0,0,2,,,,,,,,,1,,,56,44
39480,note_off,120,0,2,,,,,,,,,1,,,59,0
39600,note_on,240,0,4,,,,,,,,,3,,,38,39
39720,note_on,360,0,3,,,,,,,,,2,,,50,40
39840,note_off,0,0,2,,,,,,,,,1,,,65,0
39840,note_off,120,0,3,,,,,,,,,2,,,50,0
39840,note_on,0,0,2,,,,,,,,,1,,,63,45
39840,note_on,0,0,2,,,,,,,,,1,,,58,45
39840,note_off,360,0,2,,,,,,,,,1,,,56,0
39840,note_off,240,0,4,,,,,,,,,3,,,38,0
39840,note_off,480,0,1,,,,,,,,,0,,,68,0
39840,note_on,0,0,1,,,,,,,,,0,,,67,45
39960,note_on,120,0,2,,,,,,,,,1,,,55,45
40080,note_on,240,0,4,,,,,,,,,3,,,39,40
40200,note_on,360,0,3,,,,,,,,,2,,,51,40
40200,set_tempo,3720,1,0,,,,,,425531,,,,,,,
40296,note_off,336,0,2,,,,,,,,,1,,,58,0
40320,note_off,240,0,4,,,,,,,,,3,,,39,0
40320,note_off,120,0,3,,,,,,,,,2,,,51,0
40320,note_on,0,0,2,,,,,,,,,1,,,58,45
40320,note_off,0,0,2,,,,,,,,,1,,,63,0
40320,note_off,24,0,2,,,,,,,,,1,,,55,0
40320,note_on,0,0,2,,,,,,,,,1,,,63,45
40320,set_tempo,120,1,0,,,,,,419580,,,,,,,
40320,note_on,0,0,1,,,,,,,,,0,,,67,45
40320,note_off,480,0,1,,,,,,,,,0,,,67,0
40440,note_on,120,0,2,,,,,,,,,1,,,55,46
40560,note_on,240,0,4,,,,,,,,,3,,,39,41
40680,note_on,360,0,3,,,,,,,,,2,,,51,41
40776,note_off,336,0,2,,,,,,,,,1,,,58,0
40800,note_off,120,0,3,,,,,,,,,2,,,51,0
40800,note_off,240,0,4,,,,,,,,,3,,,39,0
40800,note_on,0,0,1,,,,,,,,,0,,,68,46
40800,note_off,480,0,1,,,,,,,,,0,,,67,0
40800,note_on,0,0,2,,,,,,,,,1,,,59,46
40800,note_off,0,0,2,,,,,,,,,1,,,63,0
40800,note_off,24,0,2,,,,,,,,,1,,,55,0
40800,note_on,0,0,2,,,,,,,,,1,,,63,46
40920,note_on,120,0,2,,,,,,,,,1,,,56,46
41040,note_on,240,0,4,,,,,,,,,3,,,44,41
41160,note_on,360,0,3,,,,,,,,,2,,,51,41
41256,note_off,336,0,2,,,,,,,,,1,,,59,0
41280,note_off,480,0,1,,,,,,,,,0,,,68,0
41280,note_on,0,0,1,,,,,,,,,0,,,70,47
41280,note_off,24,0,2,,,,,,,,,1,,,56,0
41280,note_off,120,0,3,,,,,,,,,2,,,51,0
41280,note_off,0,0,2,,,,,,,,,1,,,63,0
41280,note_on,0,0,2,,,,,,,,,1,,,63,47
41280,note_off,240,0,4,,,,,,,,,3,,,44,0
41280,note_on,0,0,2,,,,,,,,,1,,,67,47
41400,note_on,120,0,2,,,,,,,,,1,,,58,47
41520,note_on,240,0,4,,,,,,,,,3,,,39,42
41640,note_on,360,0,3,,,,,,,,,2,,,51,42
41748,note_off,348,0,2,,,,,,,,,1,,,63,0
41760,note_off,120,0,3,,,,,,,,,2,,,51,0
41760,note_off,12,0,2,,,,,,,,,1,,,58,0
41760,note_off,0,0,2,,,,,,,,,1,,,67,0
41760,note_on,0,0,2,,,,,,,,,1,,,63,48
41760,note_on,0,0,2,,,,,,,,,1,,,68,48
41760,note_on,0,0,1,,,,,,,,,0,,,71,48
41760,note_off,480,0,1,,,,,,,,,0,,,70,0
41760,note_off,240,0,4,,,,,,,,,3,,,39,0
41880,note_on,120,0,2,,,,,,,,,1,,,59,48
42000,note_on,240,0,4,,,,,,,,,3,,,32,43
42120,note_on,360,0,3,,,,,,,,,2,,,44,43
42228,note_off,348,0,2,,,,,,,,,1,,,63,0
42240,note_on,0,0,2,,,,,,,,,1,,,63,48
42240,note_on,0,0,2,,,,,,,,,1,,,67,48
42240,note_off,240,0,4,,,,,,,,,3,,,32,0
42240,note_off,480,0,1,,,,,,,,,0,,,71,0
42240,note_off,120,0,3,,,,,,,,,2,,,44,0
42240,note_on,0,0,1,,,,,,,,,0,,,70,48
42240,note_off,0,0,2,,,,,,,,,1,,,68,0
42240,note_off,12,0,2,,,,,,,,,1,,,59,0
42360,note_on,120,0,2,,,,,,,,,1,,,58,49
42480,note_on,240,0,4,,,,,,,,,3,,,39,43
42600,note_on,360,0,3,,,,,,,,,2,,,51,43
42708,note_off,348,0,2,,,,,,,,,1,,,63,0
42720,note_on,0,0,2,,,,,,,,,1,,,68,49
42720,note_off,0,0,2,,,,,,,,,1,,,67,0
42720,note_off,12,0,2,,,,,,,,,1,,,58,0
42720,note_off,240,0,4,,,,,,,,,3,,,39,0
42720,note_off,120,0,3,,,,,,,,,2,,,51,0
42720,note_on,0,0,2,,,,,,,,,1,,,63,49
42720,note_on,0,0,1,,,,,,,,,0,,,71,49
42720,note_off,480,0,1,,,,,,,,,0,,,70,0
42840,note_on,120,0,2,,,,,,,,,1,,,59,49
42960,note_on,240,0,4,,,,,,,,,3,,,44,44
43080,note_on,360,0,3,,,,,,,,,2,,,56,44
43188,note_off,348,0,2,,,,,,,,,1,,,63,0
43188,note_off,228,0,4,,,,,,,,,3,,,44,0
43200,note_off,480,0,1,,,,,,,,,0,,,71,0
43200,note_off,12,0,2,,,,,,,,,1,,,59,0
43200,note_on,0,0,2,,,,,,,,,1,,,66,50
43200,note_on,0,0,2,,,,,,,,,1,,,70,50
43200,note_off,120,0,3,,,,,,,,,2,,,56,0
43200,note_on,0,0,1,,,,,,,,,0,,,73,50
43224,note_off,24,0,2,,,,,,,,,1,,,68,0
43320,note_on,96,0,2,,,,,,,,,1,,,61,50
43440,note_on,252,0,4,,,,,,,,,3,,,42,44
43560,note_on,360,0,3,,,,,,,,,2,,,54,45
43668,note_off,348,0,2,,,,,,,,,1,,,66,0
43680,note_on,0,0,1,,,,,,,,,0,,,75,51
43680,note_off,240,0,4,,,,,,,,,3,,,42,0
43680,note_off,480,0,1,,,,,,,,,0,,,73,0
43680,note_off,12,0,2,,,,,,,,,1,,,61,0
43680,note_on,0,0,2,,,,,,,,,1,,,71,51
43680,note_off,120,0,3,,,,,,,,,2,,,54,0
43680,note_on,0,0,2,,,,,,,,,1,,,66,51
43680,note_off,0,0,2,,,,,,,,,1,,,70,0
43800,note_on,120,0,2,,,,,,,,,1,,,63,51
43920,note_on,240,0,4,,,,,,,,,3,,,35,45
44040,set_tempo,3720,1,0,,,,,,425531,,,,,,,
44040,note_on,360,0,3,,,,,,,,,2,,,47,45
44148,note_off,348,0,2,,,,,,,,,1,,,66,0
44160,set_tempo,120,1,0,,,,,,419580,,,,,,,
44160,note_on,0,0,1,,,,,,,,,0,,,73,51
44160,note_off,480,0,1,,,,,,,,,0,,,75,0
44160,note_off,240,0,4,,,,,,,,,3,,,35,0
44160,note_off,12,0,2,,,,,,,,,1,,,63,0
44160,note_off,120,0,3,,,,,,,,,2,,,47,0
44160,note_on,0,0,2,,,,,,,,,1,,,70,51
44160,note_on,0,0,2,,,,,,,,,1,,,66,51
44160,note_off,0,0,2,,,,,,,,,1,,,71,0
44280,note_on,120,0,2,,,,,,,,,1,,,61,52
44400,note_on,240,0,4,,,,,,,,,3,,,42,46
44520,note_on,360,0,3,,,,,,,,,2,,,54,46
44628,note_off,348,0,2,,,,,,,,,1,,,66,0
44640,note_off,240,0,4,,,,,,,,,3,,,42,0
44640,note_off,120,0,3,,,,,,,,,2,,,54,0
44640,note_on,0,0,2,,,,,,,,,1,,,66,52
44640,note_off,12,0,2,,,,,,,,,1,,,61,0
44640,note_on,0,0,1,,,,,,,,,0,,,75,52
44640,note_off,480,0,1,,,,,,,,,0,,,73,0
44640,note_off,0,0,2,,,,,,,,,1,,,70,0
44640,note_on,0,0,2,,,,,,,,,1,,,71,52
44760,note_on,120,0,2,,,,,,,,,1,,,63,52
44880,note_on,240,0,4,,,,,,,,,3,,,47,46
45000,note_on,360,0,3,,,,,,,,,2,,,59,47
45108,note_off,228,0,4,,,,,,,,,3,,,47,0
45108,note_off,348,0,2,,,,,,,,,1,,,66,0
45120,note_off,0,0,2,,,,,,,,,1,,,71,0
45120,note_off,120,0,3,,,,,,,,,2,,,59,0
45120,note_off,480,0,1,,,,,,,,,0,,,75,0
45120,note_on,0,0,1,,,,,,,,,0,,,77,53
45120,note_on,0,0,2,,,,,,,,,1,,,70,53
45120,note_on,0,0,2,,,,,,,,,1,,,74,53
45120,note_off,12,0,2,,,,,,,,,1,,,63,0
45240,note_on,120,0,2,,,,,,,,,1,,,65,53
45360,note_on,252,0,4,,,,,,,,,3,,,46,47
45480,note_on,360,0,3,,,,,,,,,2,,,58,47
45576,note_off,336,0,2,,,,,,,,,1,,,70,0
45600,note_on,0,0,1,,,,,,,,,0,,,78,54
45600,note_off,480,0,1,,,,,,,,,0,,,77,0
45600,note_off,24,0,2,,,,,,,,,1,,,65,0
45600,note_off,120,0,3,,,,,,,,,2,,,58,0
45600,note_off,0,0,2,,,,,,,,,1,,,74,0
45600,note_on,0,0,2,,,,,,,,,1,,,70,54
45600,note_on,0,0,2,,,,,,,,,1,,,75,54
45612,note_off,252,0,4,,,,,,,,,3,,,46,0
45720,note_on,120,0,2,,,,,,,,,1,,,66,54
45840,note_on,228,0,4,,,,,,,,,3,,,39,48
45960,note_on,360,0,3,,,,,,,,,2,,,51,48
46056,note_off,336,0,2,,,,,,,,,1,,,70,0
46080,note_on,0,0,2,,,,,,,,,1,,,74,54
46080,note_off,24,0,2,,,,,,,,,1,,,66,0
46080,note_off,0,0,2,,,,,,,,,1,,,75,0
46080,note_on,0,0,2,,,,,,,,,1,,,70,54
46080,note_off,480,0,1,,,,,,,,,0,,,78,0
46080,note_on,0,0,1,,,,,,,,,0,,,77,54
46080,note_off,120,0,3,,,,,,,,,2,,,51,0
46092,note_off,252,0,4,,,,,,,,,3,,,39,0
46200,note_on,120,0,2,,,,,,,,,1,,,65,55
46320,note_on,228,0,4,,,,,,,,,3,,,46,48
46440,note_on,360,0,3,,,,,,,,,2,,,58,48
46536,note_off,336,0,2,,,,,,,,,1,,,70,0
46560,note_off,120,0,3,,,,,,,,,2,,,58,0
46560,note_on,0,0,2,,,,,,,,,1,,,75,55
46560,note_on,0,0,2,,,,,,,,,1,,,70,55
46560,note_off,0,0,2,,,,,,,,,1,,,74,0
46560,note_off,24,0,2,,,,,,,,,1,,,65,0
46560,note_on,0,0,1,,,,,,,,,0,,,78,55
46560,note_off,480,0,1,,,,,,,,,0,,,77,0
46572,note_off,252,0,4,,,,,,,,,3,,,46,0
46680,note_on,120,0,2,,,,,,,,,1,,,66,55
46800,note_on,228,0,4,,,,,,,,,3,,,51,49
46920,note_on,360,0,3,,,,,,,,,2,,,63,49
47016,note_off,336,0,2,,,,,,,,,1,,,70,0
47028,note_off,228,0,4,,,,,,,,,3,,,51,0
47040,note_on,0,0,1,,,,,,,,,0,,,80,56
47040,note_off,24,0,2,,,,,,,,,1,,,66,0
47040,note_off,0,0,2,,,,,,,,,1,,,75,0
47040,note_on,0,0,2,,,,,,,,,1,,,73,56
47040,note_on,0,0,2,,,,,,,,,1,,,77,56
47040,note_off,480,0,1,,,,,,,,,0,,,78,0
47040,note_off,120,0,3,,,,,,,,,2,,,63,0
47160,note_on,120,0,2,,,,,,,,,1,,,68,56
47280,note_on,252,0,4,,,,,,,,,3,,,49,50
47400,note_on,360,0,3,,,,,,,,,2,,,61,50
47508,note_off,228,0,4,,,,,,,,,3,,,49,0
47508,note_off,348,0,2,,,,,,,,,1,,,73,0
47520,note_off,120,0,3,,,,,,,,,2,,,61,0
47520,note_on,0,0,2,,,,,,,,,1,,,78,57
47520,note_on,0,0,2,,,,,,,,,1,,,73,57
47520,note_off,12,0,2,,,,,,,,,1,,,68,0
47520,note_off,0,0,2,,,,,,,,,1,,,77,0
47520,note_off,480,0,1,,,,,,,,,0,,,80,0
47520,note_on,0,0,1,,,,,,,,,0,,,82,57
47640,note_on,120,0,2,,,,,,,,,1,,,70,57
47760,note_on,252,0,4,,,,,,,,,3,,,42,50
47880,note_on,360,0,3,,,,,,,,,2,,,54,50
47880,set_tempo,3720,1,0,,,,,,425531,,,,,,,
47988,note_off,348,0,2,,,,,,,,,1,,,73,0
48000,note_off,12,0,2,,,,,,,,,1,,,70,0
48000,note_off,0,0,2,,,,,,,,,1,,,78,0
48000,note_on,0,0,1,,,,,,,,,0,,,83,67
48000,note_on,0,0,2,,,,,,,,,1,,,78,67
48000,set_tempo,120,1,0,,,,,,419580,,,,,,,
48000,note_off,480,0,1,,,,,,,,,0,,,82,0
48000,note_on,0,0,2,,,,,,,,,1,,,75,67
48012,note_off,252,0,4,,,,,,,,,3,,,42,0
48082,note_off,202,0,3,,,,,,,,,2,,,54,0
48120,note_on,120,0,2,,,,,,,,,1,,,71,58
48240,note_on,228,0,4,,,,,,,,,3,,,66,51
48420,note_on,338,0,3,,,,,,,,,2,,,54,51
48468,note_off,348,0,2,,,,,,,,,1,,,75,0
48480,note_off,480,0,1,,,,,,,,,0,,,83,0
48480,note_off,12,0,2,,,,,,,,,1,,,71,0
48480,note_on,0,0,1,,,,,,,,,0,,,80,58
48480,note_on,0,0,2,,,,,,,,,1,,,71,58
48480,note_off,0,0,2,,,,,,,,,1,,,78,0
48480,note_off,240,0,4,,,,,,,,,3,,,66,0
48480,note_on,0,0,2,,,,,,,,,1,,,78,58
48540,note_off,120,0,3,,,,,,,,,2,,,54,0
48600,note_on,120,0,2,,,,,,,,,1,,,68,58
48720,note_on,240,0,4,,,,,,,,,3,,,42,51
48840,set_tempo,840,1,0,,,,,,425531,,,,,,,
48900,note_on,360,0,3,,,,,,,,,2,,,54,52
48948,note_off,348,0,2,,,,,,,,,1,,,71,0
48960,note_off,12,0,2,,,,,,,,,1,,,68,0
48960,note_off,0,0,2,,,,,,,,,1,,,78,0
48960,note_on,0,0,2,,,,,,,,,1,,,73,68
48960,note_on,0,0,2,,,,,,,,,1,,,78,68
48960,set_tempo,120,1,0,,,,,,419580,,,,,,,
48960,note_on,0,0,1,,,,,,,,,0,,,82,68
48960,note_off,480,0,1,,,,,,,,,0,,,80,0
48972,note_off,252,0,4,,,,,,,,,3,,,42,0
49020,note_off,120,0,3,,,,,,,,,2,,,54,0
49080,note_on,120,0,2,,,,,,,,,1,,,70,59
49200,note_on,228,0,4,,,,,,,,,3,,,66,52
49380,note_on,360,0,3,,,,,,,,,2,,,54,52
49440,note_on,0,0,1,,,,,,,,,0,,,83,60
49440,note_off,480,0,1,,,,,,,,,0,,,82,0
49440,note_off,240,0,4,,,,,,,,,3,,,66,0
49440,note_off,360,0,2,,,,,,,,,1,,,70,0
49440,note_off,0,0,2,,,,,,,,,1,,,78,0
49440,note_on,0,0,2,,,,,,,,,1,,,75,60
49440,note_on,0,0,2,,,,,,,,,1,,,78,60
49452,note_off,12,0,2,,,,,,,,,1,,,73,0
49500,note_off,120,0,3,,,,,,,,,2,,,54,0
49560,note_on,108,0,2,,,,,,,,,1,,,71,60
49680,note_on,240,0,4,,,,,,,,,3,,,42,53
49800,set_tempo,840,1,0,,,,,,425531,,,,,,,
49860,note_on,360,0,3,,,,,,,,,2,,,54,53
49908,note_off,348,0,2,,,,,,,,,1,,,75,0
49920,note_off,480,0,1,,,,,,,,,0,,,83,0
49920,note_on,0,0,1,,,,,,,,,0,,,85,71
49920,note_off,12,0,2,,,,,,,,,1,,,71,0
49920,set_tempo,120,1,0,,,,,,419580,,,,,,,
49920,note_on,0,0,2,,,,,,,,,1,,,78,71
49920,note_on,0,0,2,,,,,,,,,1,,,82,71
49920,note_off,0,0,2,,,,,,,,,1,,,78,0
49932,note_off,252,0,4,,,,,,,,,3,,,42,0
49980,note_off,120,0,3,,,,,,,,,2,,,54,0
50040,note_on,120,0,2,,,,,,,,,1,,,73,60
50160,note_on,228,0,4,,,,,,,,,3,,,66,53
50340,note_on,360,0,3,,,,,,,,,2,,,54,54
50376,note_off,336,0,2,,,,,,,,,1,,,78,0
50400,note_on,0,0,2,,,,,,,,,1,,,83,61
50400,note_on,0,0,2,,,,,,,,,1,,,78,61
50400,note_off,0,0,2,,,,,,,,,1,,,82,0
50400,note_off,24,0,2,,,,,,,,,1,,,73,0
50400,note_off,480,0,1,,,,,,,,,0,,,85,0
50400,note_on,0,0,1,,,,,,,,,0,,,87,61
50400,note_off,240,0,4,,,,,,,,,3,,,66,0
50460,note_off,120,0,3,,,,,,,,,2,,,54,0
50520,note_on,120,0,2,,,,,,,,,1,,,75,61
50640,note_on,240,0,4,,,,,,,,,3,,,35,54
50760,note_on,300,0,3,,,,,,,,,2,,,47,54
50760,set_tempo,840,1,0,,,,,,425531,,,,,,,
50856,note_off,336,0,2,,,,,,,,,1,,,78,0
50880,note_off,0,0,2,,,,,,,,,1,,,83,0
50880,note_on,0,0,2,,,,,,,,,1,,,83,72
50880,note_off,120,0,3,,,,,,,,,2,,,47,0
50880,note_on,0,0,2,,,,,,,,,1,,,80,72
50880,note_on,0,0,1,,,,,,,,,0,,,88,72
50880,note_off,480,0,1,,,,,,,,,0,,,87,0
50880,note_off,24,0,2,,,,,,,,,1,,,75,0
50880,set_tempo,120,1,0,,,,,,419580,,,,,,,
51000,note_on,120,0,2,,,,,,,,,1,,,76,62
51120,note_on,480,0,4,,,,,,,,,3,,,59,55
51240,note_on,360,0,3,,,,,,,,,2,,,47,55
51336,note_off,336,0,2,,,,,,,,,1,,,80,0
51360,note_off,120,0,3,,,,,,,,,2,,,47,0
51360,note_off,240,0,4,,,,,,,,,3,,,35,0
51360,note_off,480,0,1,,,,,,,,,0,,,88,0
51360,note_off,24,0,2,,,,,,,,,1,,,76,0
51360,note_on,0,0,1,,,,,,,,,0,,,85,63
51360,note_on,0,0,2,,,,,,,,,1,,,83,63
51360,note_on,0,0,2,,,,,,,,,1,,,76,63
51360,note_off,0,0,2,,,,,,,,,1,,,83,0
51372,note_off,12,0,4,,,,,,,,,3,,,59,0
51480,note_on,120,0,2,,,,,,,,,1,,,73,63
51600,note_on,228,0,4,,,,,,,,,3,,,35,55
51720,note_on,360,0,3,,,,,,,,,2,,,47,55
51720,set_tempo,840,1,0,,,,,,425531,,,,,,,
51840,note_off,360,0,2,,,,,,,,,1,,,73,0
51840,note_off,120,0,3,,,,,,,,,2,,,47,0
51840,note_off,0,0,2,,,,,,,,,1,,,76,0
51840,note_on,0,0,1,,,,,,,,,0,,,87,74
51840,note_on,0,0,2,,,,,,,,,1,,,78,74
51840,note_on,0,0,2,,,,,,,,,1,,,83,74
51840,note_off,480,0,1,,,,,,,,,0,,,85,0
51840,set_tempo,120,1,0,,,,,,419580,,,,,,,
51840,note_off,0,0,2,,,,,,,,,1,,,83,0
51960,note_on,120,0,2,,,,,,,,,1,,,75,63
52080,note_on,480,0,4,,,,,,,,,3,,,59,56
52200,note_on,360,0,3,,,,,,,,,2,,,47,56
52320,note_off,120,0,3,,,,,,,,,2,,,47,0
52320,note_off,240,0,4,,,,,,,,,3,,,35,0
52320,note_on,0,0,1,,,,,,,,,0,,,88,64
52320,note_off,480,0,1,,,,,,,,,0,,,87,0
52320,note_off,360,0,2,,,,,,,,,1,,,75,0
52320,note_off,0,0,2,,,,,,,,,1,,,83,0
52320,note_off,0,0,2,,,,,,,,,1,,,78,0
52320,note_on,0,0,2,,,,,,,,,1,,,80,64
52320,note_on,0,0,2,,,,,,,,,1,,,83,64
52332,note_off,12,0,4,,,,,,,,,3,,,59,0
52440,note_on,120,0,2,,,,,,,,,1,,,76,64
52560,note_on,228,0,4,,,,,,,,,3,,,35,57
52680,set_tempo,840,1,0,,,,,,425531,,,,,,,
52680,note_on,360,0,3,,,,,,,,,2,,,47,57
52800,note_off,360,0,2,,,,,,,,,1,,,76,0
52800,note_off,0,0,2,,,,,,,,,1,,,83,0
52800,note_off,0,0,2,,,,,,,,,1,,,80,0
52800,note_off,480,0,1,,,,,,,,,0,,,88,0
52800,note_on,0,0,1,,,,,,,,,0,,,90,75
52800,note_on,0,0,2,,,,,,,,,1,,,83,75
52800,note_off,120,0,3,,,,,,,,,2,,,47,0
52800,note_on,0,0,2,,,,,,,,,1,,,87,75
52800,set_tempo,120,1,0,,,,,,419580,,,,,,,
52920,note_on,120,0,2,,,,,,,,,1,,,78,65
53040,note_on,480,0,4,,,,,,,,,3,,,59,57
53160,note_on,360,0,3,,,,,,,,,2,,,47,57
53256,note_off,336,0,2,,,,,,,,,1,,,83,0
53280,note_off,120,0,3,,,,,,,,,2,,,47,0
53280,note_off,480,0,1,,,,,,,,,0,,,90,0
53280,note_on,0,0,1,,,,,,,,,0,,,87,65
53280,note_off,240,0,4,,,,,,,,,3,,,35,0
53280,note_on,0,0,2,,,,,,,,,1,,,78,65
53280,note_on,0,0,2,,,,,,,,,1,,,83,65
53280,note_off,0,0,2,,,,,,,,,1,,,87,0
53280,note_off,24,0,2,,,,,,,,,1,,,78,0
53292,note_off,12,0,4,,,,,,,,,3,,,59,0
53400,note_on,120,0,2,,,,,,,,,1,,,75,66
53520,note_on,228,0,4,,,,,,,,,3,,,45,58
53640,set_tempo,840,1,0,,,,,,425531,,,,,,,
53640,note_on,360,0,3,,,,,,,,,2,,,57,58
53760,note_off,0,0,2,,,,,,,,,1,,,78,0
53760,note_off,0,0,2,,,,,,,,,1,,,83,0
53760,note_off,360,0,2,,,,,,,,,1,,,75,0
53760,note_on,0,0,2,,,,,,,,,1,,,80,78
53760,note_off,240,0,4,,,,,,,,,3,,,45,0
53760,note_on,0,0,1,,,,,,,,,0,,,88,78
53760,note_on,0,0,2,,,,,,,,,1,,,83,78
53760,note_off,120,0,3,,,,,,,,,2,,,57,0
53760,set_tempo,120,1,0,,,,,,419580,,,,,,,
53760,note_off,480,0,1,,,,,,,,,0,,,87,0
53880,note_on,120,0,2,,,,,,,,,1,,,76,66
54000,note_on,240,0,4,,,,,,,,,3,,,56,58
54120,note_on,360,0,3,,,,,,,,,2,,,44,59
54240,note_off,0,0,2,,,,,,,,,1,,,80,0
54240,note_on,0,0,2,,,,,,,,,1,,,87,67
54240,note_off,120,0,3,,,,,,,,,2,,,44,0
54240,note_on,0,0,2,,,,,,,,,1,,,83,67
54240,note_on,0,0,1,,,,,,,,,0,,,90,67
54240,note_off,480,0,1,,,,,,,,,0,,,88,0
54240,note_off,360,0,2,,,,,,,,,1,,,76,0
54240,note_off,0,0,2,,,,,,,,,1,,,83,0
54252,note_off,252,0,4,,,,,,,,,3,,,56,0
54360,note_on,120,0,2,,,,,,,,,1,,,81,67
54480,note_on,228,0,4,,,,,,,,,3,,,42,59
54600,note_on,360,0,3,,,,,,,,,2,,,54,59
54600,set_tempo,840,1,0,,,,,,425531,,,,,,,
54696,note_off,336,0,2,,,,,,,,,1,,,83,0
54720,note_on,0,0,2,,,,,,,,,1,,,83,77
54720,note_off,120,0,3,,,,,,,,,2,,,54,0
54720,note_off,240,0,4,,,,,,,,,3,,,42,0
54720,set_tempo,120,1,0,,,,,,419580,,,,,,,
54720,note_on,0,0,2,,,,,,,,,1,,,88,77
54720,note_on,0,0,1,,,,,,,,,0,,,92,77
54720,note_off,480,0,1,,,,,,,,,0,,,90,0
54720,note_off,24,0,2,,,,,,,,,1,,,81,0
54720,note_off,0,0,2,,,,,,,,,1,,,87,0
54840,note_on,120,0,2,,,,,,,,,1,,,80,68
54960,note_on,240,0,4,,,,,,,,,3,,,52,60
55080,note_on,360,0,3,,,,,,,,,2,,,40,60
55176,note_off,336,0,2,,,,,,,,,1,,,83,0
55200,note_off,480,0,1,,,,,,,,,0,,,92,0
55200,note_on,0,0,2,,,,,,,,,1,,,90,68
55200,note_on,0,0,2,,,,,,,,,1,,,84,68
55200,note_off,120,0,3,,,,,,,,,2,,,40,0
55200,note_on,0,0,1,,,,,,,,,0,,,93,68
55200,note_off,24,0,2,,,,,,,,,1,,,80,0
55200,note_off,0,0,2,,,,,,,,,1,,,88,0
55200,note_off,240,0,4,,,,,,,,,3,,,52,0
55320,note_on,120,0,2,,,,,,,,,1,,,81,69
55440,note_on,240,0,4,,,,,,,,,3,,,39,60
55560,note_on,360,0,3,,,,,,,,,2,,,51,60
55560,set_tempo,840,1,0,,,,,,428571,,,,,,,
55656,note_off,336,0,2,,,,,,,,,1,,,84,0
55680,note_on,0,0,1,,,,,,,,,0,,,94,79
55680,note_off,480,0,1,,,,,,,,,0,,,93,0
55680,set_tempo,120,1,0,,,,,,419580,,,,,,,
55680,note_on,0,0,2,,,,,,,,,1,,,88,79
55680,note_off,24,0,2,,,,,,,,,1,,,81,0
55680,note_off,0,0,2,,,,,,,,,1,,,90,0
55680,note_off,120,0,3,,,,,,,,,2,,,51,0
55680,note_off,240,0,4,,,,,,,,,3,,,39,0
55680,note_on,0,0,2,,,,,,,,,1,,,91,79
55800,note_on,120,0,2,,,,,,,,,1,,,82,69
55920,note_on,240,0,4,,,,,,,,,3,,,49,61
56040,note_on,360,0,3,,,,,,,,,2,,,37,61
56136,note_off,336,0,2,,,,,,,,,1,,,88,0
56136,note_off,216,0,4,,,,,,,,,3,,,49,0
56160,note_off,480,0,1,,,,,,,,,0,,,94,0
56160,note_on,0,0,1,,,,,,,,,0,,,95,70
56160,note_off,24,0,2,,,,,,,,,1,,,82,0
56160,note_off,0,0,2,,,,,,,,,1,,,91,0
56160,note_on,0,0,2,,,,,,,,,1,,,87,70
56160,note_off,120,0,3,,,,,,,,,2,,,37,0
56280,note_on,120,0,2,,,,,,,,,1,,,83,70
56400,note_on,264,0,4,,,,,,,,,3,,,35,62
56520,note_on,360,0,3,,,,,,,,,2,,,47,62
56616,note_off,336,0,2,,,,,,,,,1,,,87,0
56640,note_off,24,0,2,,,,,,,,,1,,,83,0
56640,note_off,120,0,3,,,,,,,,,2,,,47,0
56640,note_on,0,0,2,,,,,,,,,1,,,92,71
56640,note_off,480,0,1,,,,,,,,,0,,,95,0
56640,note_on,0,0,1,,,,,,,,,0,,,95,71
56640,note_off,240,0,4,,,,,,,,,3,,,35,0
56760,note_on,120,0,2,,,,,,,,,1,,,83,71
56880,note_on,240,0,4,,,,,,,,,3,,,53,62
57000,note_on,360,0,3,,,,,,,,,2,,,41,62
57108,note_off,228,0,4,,,,,,,,,3,,,53,0
57108,note_off,348,0,2,,,,,,,,,1,,,92,0
57120,note_off,120,0,3,,,,,,,,,2,,,41,0
57120,note_off,480,0,1,,,,,,,,,0,,,95,0
57120,note_on,0,0,1,,,,,,,,,0,,,95,71
57120,note_on,0,0,2,,,,,,,,,1,,,93,71
57120,note_off,12,0,2,,,,,,,,,1,,,83,0
57240,note_on,120,0,2,,,,,,,,,1,,,83,72
57360,note_on,252,0,4,,,,,,,,,3,,,42,63
57480,note_on,360,0,3,,,,,,,,,2,,,54,63
57588,note_off,348,0,2,,,,,,,,,1,,,93,0
57600,note_off,12,0,2,,,,,,,,,1,,,83,0
57600,note_on,0,0,2,,,,,,,,,1,,,90,72
57600,note_off,120,0,3,,,,,,,,,2,,,54,0
57600,note_on,0,0,1,,,,,,,,,0,,,95,72
57600,note_off,480,0,1,,,,,,,,,0,,,95,0
57612,note_off,252,0,4,,,,,,,,,3,,,42,0
57720,note_on,120,0,2,,,,,,,,,1,,,83,72
57840,note_on,228,0,4,,,,,,,,,3,,,39,63
57960,note_on,360,0,3,,,,,,,,,2,,,51,64
58056,note_off,216,0,4,,,,,,,,,3,,,39,0
58068,note_off,348,0,2,,,,,,,,,1,,,90,0
58080,note_on,0,0,2,,,,,,,,,1,,,87,73
58080,note_off,480,0,1,,,,,,,,,0,,,95,0
58080,note_on,0,0,1,,,,,,,,,0,,,95,73
58080,note_off,120,0,3,,,,,,,,,2,,,51,0
58080,note_off,12,0,2,,,,,,,,,1,,,83,0
58200,note_on,120,0,2,,,,,,,,,1,,,83,73
58320,note_on,264,0,4,,,,,,,,,3,,,35,64
58440,note_on,360,0,3,,,,,,,,,2,,,47,64
58548,note_off,348,0,2,,,,,,,,,1,,,87,0
58560,note_off,120,0,3,,,,,,,,,2,,,47,0
58560,note_off,12,0,2,,,,,,,,,1,,,83,0
58560,note_on,0,0,2,,,,,,,,,1,,,92,74
58560,note_on,0,0,1,,,,,,,,,0,,,95,74
58560,note_off,480,0,1,,,,,,,,,0,,,95,0
58572,note_off,252,0,4,,,,,,,,,3,,,35,0
58680,note_on,120,0,2,,,,,,,,,1,,,83,74
58800,note_on,228,0,4,,,,,,,,,3,,,53,65
58920,note_on,360,0,3,,,,,,,,,2,,,41,65
59040,note_off,0,0,2,,,,,,,,,1,,,92,0
59040,note_on,0,0,2,,,,,,,,,1,,,93,74
59040,note_off,240,0,4,,,,,,,,,3,,,53,0
59040,note_off,360,0,2,,,,,,,,,1,,,83,0
59040,note_off,480,0,1,,,,,,,,,0,,,95,0
59040,note_off,120,0,3,,,,,,,,,2,,,41,0
59040,note_on,0,0,1,,,,,,,,,0,,,95,74
59160,note_on,120,0,2,,,,,,,,,1,,,83,75
59280,note_on,240,0,4,,,,,,,,,3,,,42,65
59400,note_on,360,0,3,,,,,,,,,2,,,54,66
59508,note_off,348,0,2,,,,,,,,,1,,,93,0
59508,note_off,228,0,4,,,,,,,,,3,,,42,0
59520,note_on,0,0,1,,,,,,,,,0,,,95,75
59520,note_off,480,0,1,,,,,,,,,0,,,95,0
59520,note_off,12,0,2,,,,,,,,,1,,,83,0
59520,note_off,120,0,3,,,,,,,,,2,,,54,0
59520,note_on,0,0,2,,,,,,,,,1,,,90,75
59640,note_on,120,0,2,,,,,,,,,1,,,83,75
59760,note_on,252,0,4,,,,,,,,,3,,,39,66
59880,note_on,360,0,3,,,,,,,,,2,,,51,66
59988,note_off,348,0,2,,,,,,,,,1,,,90,0
60000,note_off,120,0,3,,,,,,,,,2,,,51,0
60000,note_on,0,0,1,,,,,,,,,0,,,95,76
60000,note_off,480,0,1,,,,,,,,,0,,,95,0
60000,note_off,12,0,2,,,,,,,,,1,,,83,0
60000,note_on,0,0,2,,,,,,,,,1,,,87,76
60000,note_off,240,0,4,,,,,,,,,3,,,39,0
60120,note_on,120,0,2,,,,,,,,,1,,,83,76
60240,note_on,240,0,4,,,,,,,,,3,,,35,67
60360,note_on,360,0,3,,,,,,,,,2,,,47,67
60468,note_off,348,0,2,,,,,,,,,1,,,87,0
60480,note_off,120,0,3,,,,,,,,,2,,,47,0
60480,note_on,0,0,1,,,,,,,,,0,,,95,77
60480,note_off,12,0,2,,,,,,,,,1,,,83,0
60480,note_off,240,0,4,,,,,,,,,3,,,35,0
60480,note_on,0,0,2,,,,,,,,,1,,,92,77
60480,note_off,480,0,1,,,,,,,,,0,,,95,0
60600,note_on,120,0,2,,,,,,,,,1,,,83,77
60720,note_on,240,0,4,,,,,,,,,3,,,53,67
60840,note_on,360,0,3,,,,,,,,,2,,,41,67
60948,note_off,348,0,2,,,,,,,,,1,,,92,0
60960,note_off,120,0,3,,,,,,,,,2,,,41,0
60960,note_on,0,0,1,,,,,,,,,0,,,95,77
60960,note_off,240,0,4,,,,,,,,,3,,,53,0
60960,note_off,12,0,2,,,,,,,,,1,,,83,0
60960,note_on,0,0,2,,,,,,,,,1,,,93,77
60960,note_off,480,0,1,,,,,,,,,0,,,95,0
61080,note_on,120,0,2,,,,,,,,,1,,,83,77
61200,note_on,240,0,4,,,,,,,,,3,,,42,68
61320,note_on,360,0,3,,,,,,,,,2,,,54,68
61428,note_off,348,0,2,,,,,,,,,1,,,93,0
61440,note_on,0,0,2,,,,,,,,,1,,,88,78
61440,note_off,240,0,4,,,,,,,,,3,,,42,0
61440,note_on,0,0,1,,,,,,,,,0,,,95,78
61440,note_off,12,0,2,,,,,,,,,1,,,83,0
61440,note_off,120,0,3,,,,,,,,,2,,,54,0
61440,note_off,480,0,1,,,,,,,,,0,,,95,0
61560,note_on,120,0,2,,,,,,,,,1,,,83,78
61680,note_on,240,0,4,,,,,,,,,3,,,39,69
61800,note_on,360,0,3,,,,,,,,,2,,,51,71
61908,note_off,348,0,2,,,,,,,,,1,,,88,0
61920,note_off,120,0,3,,,,,,,,,2,,,51,0
61920,note_off,480,0,1,,,,,,,,,0,,,95,0
61920,note_on,0,0,1,,,,,,,,,0,,,95,81
61920,note_off,240,0,4,,,,,,,,,3,,,39,0
61920,note_off,12,0,2,,,,,,,,,1,,,83,0
61920,note_on,0,0,2,,,,,,,,,1,,,90,79
62040,note_on,120,0,2,,,,,,,,,1,,,83,79
62160,note_on,240,0,4,,,,,,,,,3,,,39,71
62160,set_tempo,6480,1,0,,,,,,425531,,,,,,,
62280,note_on,360,0,3,,,,,,,,,2,,,51,71
62280,set_tempo,120,1,0,,,,,,441176,,,,,,,
62388,note_off,348,0,2,,,,,,,,,1,,,90,0
62400,note_on,0,0,1,,,,,,,,,0,,,92,80
62400,note_off,240,0,4,,,,,,,,,3,,,39,0
62400,note_off,120,0,3,,,,,,,,,2,,,51,0
62400,note_off,480,0,1,,,,,,,,,0,,,95,0
62400,set_tempo,120,1,0,,,,,,419580,,,,,,,
62400,note_off,12,0,2,,,,,,,,,1,,,83,0
62520,note_on,120,0,2,,,,,,,,,1,,,95,78
62640,note_on,240,0,4,,,,,,,,,3,,,40,70
62760,note_on,360,0,3,,,,,,,,,2,,,52,70
62880,note_off,240,0,4,,,,,,,,,3,,,40,0
62880,note_off,480,0,1,,,,,,,,,0,,,92,0
62880,note_off,360,0,2,,,,,,,,,1,,,95,0
62880,note_on,0,0,1,,,,,,,,,0,,,95,80
63000,note_on,120,0,2,,,,,,,,,1,,,90,77
63120,note_on,240,0,4,,,,,,,,,3,,,39,70
63120,note_off,360,0,3,,,,,,,,,2,,,52,0
63240,note_on,120,0,3,,,,,,,,,2,,,51,70
63360,note_off,360,0,2,,,,,,,,,1,,,90,0
63360,note_on,0,0,1,,,,,,,,,0,,,88,79
63360,note_off,480,0,1,,,,,,,,,0,,,95,0
63360,note_off,240,0,4,,,,,,,,,3,,,39,0
63480,note_on,120,0,2,,,,,,,,,1,,,92,76
63600,note_off,360,0,3,,,,,,,,,2,,,51,0
63600,note_on,240,0,4,,,,,,,,,3,,,37,69
63720,note_on,120,0,3,,,,,,,,,2,,,49,69
63840,note_off,240,0,4,,,,,,,,,3,,,37,0
63840,note_off,480,0,1,,,,,,,,,0,,,88,0
63840,note_off,360,0,2,,,,,,,,,1,,,92,0
63840,note_on,0,0,1,,,,,,,,,0,,,92,78
63960,note_on,120,0,2,,,,,,,,,1,,,87,75
64080,note_off,360,0,3,,,,,,,,,2,,,49,0
64080,note_on,240,0,4,,,,,,,,,3,,,35,68
64200,note_on,120,0,3,,,,,,,,,2,,,47,68
64320,note_off,480,0,1,,,,,,,,,0,,,92,0
64320,note_off,240,0,4,,,,,,,,,3,,,35,0
64320,note_off,360,0,2,,,,,,,,,1,,,87,0
64320,note_on,0,0,1,,,,,,,,,0,,,85,77
64440,note_on,120,0,2,,,,,,,,,1,,,88,75
64560,note_on,240,0,4,,,,,,,,,3,,,33,68
64560,note_off,360,0,3,,,,,,,,,2,,,47,0
64680,note_on,120,0,3,,,,,,,,,2,,,45,68
64800,note_off,480,0,1,,,,,,,,,0,,,85,0
64800,note_off,360,0,2,,,,,,,,,1,,,88,0
64800,note_on,0,0,1,,,,,,,,,0,,,88,76
64824,note_off,264,0,4,,,,,,,,,3,,,33,0
64920,note_on,120,0,2,,,,,,,,,1,,,83,74
65040,note_on,216,0,4,,,,,,,,,3,,,32,67
65040,note_off,360,0,3,,,,,,,,,2,,,45,0
65160,note_on,120,0,3,,,,,,,,,2,,,44,67
65280,note_off,360,0,2,,,,,,,,,1,,,83,0
65280,note_on,0,0,2,,,,,,,,,1,,,83,73
65280,note_off,480,0,1,,,,,,,,,0,,,88,0
65280,note_on,0,0,1,,,,,,,,,0,,,87,75
65304,note_off,264,0,4,,,,,,,,,3,,,32,0
65400,note_off,120,0,2,,,,,,,,,1,,,83,0
65400,note_on,0,0,2,,,,,,,,,1,,,82,73
65520,note_off,360,0,3,,,,,,,,,2,,,44,0
65520,note_on,216,0,4,,,,,,,,,3,,,30,66
65640,note_on,120,0,3,,,,,,,,,2,,,42,66
65760,note_on,0,0,1,,,,,,,,,0,,,92,74
65760,note_on,0,0,2,,,,,,,,,1,,,88,72
65760,note_on,0,0,2,,,,,,,,,1,,,83,72
65760,note_off,360,0,2,,,,,,,,,1,,,82,0
65760,note_off,480,0,1,,,,,,,,,0,,,87,0
65784,note_off,264,0,4,,,,,,,,,3,,,30,0
65880,note_on,0,0,2,,,,,,,,,1,,,80,72
65880,note_off,120,0,2,,,,,,,,,1,,,83,0
66000,note_on,216,0,4,,,,,,,,,3,,,28,66
66000,note_off,360,0,3,,,,,,,,,2,,,42,0
66120,note_on,120,0,3,,,,,,,,,2,,,40,66
66120,set_tempo,3720,1,0,,,,,,428571,,,,,,,
66240,note_off,0,0,2,,,,,,,,,1,,,88,0
66240,note_off,360,0,2,,,,,,,,,1,,,80,0
66240,note_off,120,0,3,,,,,,,,,2,,,40,0
66240,note_on,0,0,3,,,,,,,,,2,,,56,57
66240,set_tempo,120,1,0,,,,,,419580,,,,,,,
66240,note_on,240,0,4,,,,,,,,,3,,,52,47
66240,note_off,480,0,1,,,,,,,,,0,,,92,0
66264,note_off,24,0,4,,,,,,,,,3,,,28,0
66360,note_on,120,0,3,,,,,,,,,2,,,59,47
66480,note_on,240,0,1,,,,,,,,,0,,,68,38
66600,note_on,360,0,2,,,,,,,,,1,,,71,39
66702,note_off,342,0,3,,,,,,,,,2,,,56,0
66708,note_off,228,0,1,,,,,,,,,0,,,68,0
66720,note_off,456,0,4,,,,,,,,,3,,,52,0
66720,note_on,0,0,3,,,,,,,,,2,,,59,56
66720,note_on,0,0,4,,,,,,,,,3,,,51,46
66720,note_off,120,0,2,,,,,,,,,1,,,71,0
66720,note_off,18,0,3,,,,,,,,,2,,,59,0
66840,note_on,120,0,3,,,,,,,,,2,,,54,47
66960,note_on,252,0,1,,,,,,,,,0,,,71,41
67080,note_on,360,0,2,,,,,,,,,1,,,78,42
67188,note_off,228,0,1,,,,,,,,,0,,,71,0
67191,note_off,351,0,3,,,,,,,,,2,,,59,0
67200,note_off,120,0,2,,,,,,,,,1,,,78,0
67200,note_on,0,0,3,,,,,,,,,2,,,58,59
67200,note_on,0,0,4,,,,,,,,,3,,,49,49
67200,note_off,480,0,4,,,,,,,,,3,,,51,0
67200,note_off,9,0,3,,,,,,,,,2,,,54,0
67320,note_on,120,0,3,,,,,,,,,2,,,64,49
67440,note_on,240,0,2,,,,,,,,,1,,,76,44
67440,note_on,252,0,1,,,,,,,,,0,,,78,44
67560,note_on,120,0,2,,,,,,,,,1,,,82,45
67668,note_off,228,0,1,,,,,,,,,0,,,78,0
67668,note_off,108,0,2,,,,,,,,,1,,,76,0
67680,note_off,12,0,2,,,,,,,,,1,,,82,0
67680,note_off,480,0,4,,,,,,,,,3,,,49,0
67680,note_off,360,0,3,,,,,,,,,2,,,64,0
67680,note_off,0,0,3,,,,,,,,,2,,,58,0
67680,note_on,0,0,3,,,,,,,,,2,,,63,61
67680,note_on,0,0,4,,,,,,,,,3,,,47,51
67800,note_on,120,0,3,,,,,,,,,2,,,59,52
67920,note_on,252,0,1,,,,,,,,,0,,,82,47
67980,set_tempo,1740,1,0,,,,,,425531,,,,,,,
68040,note_on,360,0,2,,,,,,,,,1,,,83,48
68040,set_tempo,60,1,0,,,,,,434782,,,,,,,
68160,note_off,480,0,4,,,,,,,,,3,,,47,0
68160,note_off,120,0,2,,,,,,,,,1,,,83,0
68160,set_tempo,120,1,0,,,,,,419580,,,,,,,
68160,note_off,360,0,3,,,,,,,,,2,,,63,0
68160,note_on,240,0,1,,,,,,,,,0,,,85,54
68172,note_off,12,0,1,,,,,,,,,0,,,82,0
68280,note_on,120,0,2,,,,,,,,,1,,,88,50
68400,note_off,240,0,3,,,,,,,,,2,,,59,0
68400,note_on,240,0,4,,,,,,,,,3,,,45,55
68520,note_on,120,0,3,,,,,,,,,2,,,57,56
68640,note_off,360,0,2,,,,,,,,,1,,,88,0
68640,note_off,468,0,1,,,,,,,,,0,,,85,0
68640,note_on,0,0,1,,,,,,,,,0,,,88,58
68664,note_off,264,0,4,,,,,,,,,3,,,45,0
68760,note_on,120,0,2,,,,,,,,,1,,,83,53
68880,note_on,216,0,4,,,,,,,,,3,,,44,59
68880,note_off,360,0,3,,,,,,,,,2,,,57,0
69000,note_on,120,0,3,,,,,,,,,2,,,56,60
69120,note_on,0,0,2,,,,,,,,,1,,,69,55
69120,note_off,480,0,1,,,,,,,,,0,,,88,0
69120,note_on,0,0,1,,,,,,,,,0,,,75,61
69120,note_off,360,0,2,,,,,,,,,1,,,83,0
69144,note_off,264,0,4,,,,,,,,,3,,,44,0
69240,note_on,120,0,2,,,,,,,,,1,,,81,56
69360,note_off,360,0,3,,,,,,,,,2,,,56,0
69360,note_on,216,0,4,,,,,,,,,3,,,42,62
69480,note_on,120,0,3,,,,,,,,,2,,,54,63
69600,note_on,0,0,2,,,,,,,,,1,,,71,58
69600,note_off,480,0,1,,,,,,,,,0,,,75,0
69600,note_on,0,0,1,,,,,,,,,0,,,80,65
69600,note_off,0,0,2,,,,,,,,,1,,,69,0
69600,note_on,0,0,2,,,,,,,,,1,,,68,58
69600,note_off,360,0,2,,,,,,,,,1,,,81,0
69624,note_off,264,0,4,,,,,,,,,3,,,42,0
69720,note_on,120,0,2,,,,,,,,,1,,,76,59
69840,note_off,360,0,3,,,,,,,,,2,,,54,0
69840,note_on,216,0,4,,,,,,,,,3,,,39,66
69960,note_on,120,0,3,,,,,,,,,2,,,51,66
70080,note_off,120,0,3,,,,,,,,,2,,,51,0
70080,note_off,480,0,1,,,,,,,,,0,,,80,0
70080,note_on,0,0,1,,,,,,,,,0,,,73,69
70080,note_on,0,0,2,,,,,,,,,1,,,69,61
70080,note_off,360,0,2,,,,,,,,,1,,,76,0
70080,note_off,0,0,2,,,,,,,,,1,,,71,0
70080,note_off,0,0,2,,,,,,,,,1,,,68,0
70080,note_on,0,0,2,,,,,,,,,1,,,64,61
70104,note_off,264,0,4,,,,,,,,,3,,,39,0
70200,note_on,120,0,2,,,,,,,,,1,,,76,62
70320,note_on,216,0,4,,,,,,,,,3,,,57,69
70440,note_on,360,0,3,,,,,,,,,2,,,45,70
70557,note_off,237,0,4,,,,,,,,,3,,,57,0
70560,note_off,360,0,2,,,,,,,,,1,,,76,0
70560,note_off,0,0,2,,,,,,,,,1,,,69,0
70560,note_off,0,0,2,,,,,,,,,1,,,64,0
70560,note_on,0,0,2,,,,,,,,,1,,,64,64
70560,note_off,480,0,1,,,,,,,,,0,,,73,0
70560,note_off,120,0,3,,,,,,,,,2,,,45,0
70560,note_on,0,0,1,,,,,,,,,0,,,68,72
70680,note_on,120,0,2,,,,,,,,,1,,,76,65
70800,note_on,243,0,4,,,,,,,,,3,,,47,72
70920,note_on,360,0,3,,,,,,,,,2,,,59,73
71028,note_off,228,0,4,,,,,,,,,3,,,47,0
71040,note_off,120,0,3,,,,,,,,,2,,,59,0
71040,note_on,0,0,2,,,,,,,,,1,,,63,67
71040,note_off,480,0,1,,,,,,,,,0,,,68,0
71040,note_on,0,0,1,,,,,,,,,0,,,66,76
71040,note_off,0,0,2,,,,,,,,,1,,,64,0
71040,note_off,360,0,2,,,,,,,,,1,,,76,0
71160,note_on,120,0,2,,,,,,,,,1,,,75,68
71280,note_on,252,0,4,,,,,,,,,3,,,47,76
71280,set_tempo,3120,1,0,,,,,,425531,,,,,,,
71400,note_on,360,0,3,,,,,,,,,2,,,35,77
71400,set_tempo,120,1,0,,,,,,454545,,,,,,,
71517,note_off,237,0,4,,,,,,,,,3,,,47,0
71520,time_signature,120,1,0,3,2,24,8,,,,,,,,,
71520,note_off,0,0,2,,,,,,,,,1,,,63,0
71520,note_on,0,0,1,,,,,,,,,0,,,74,67
71520,note_off,0,0,1,,,,,,,,,0,,,66,0
71520,control_change,480,0,1,,,,,,,64,127,0,,,,
71520,note_off,360,0,2,,,,,,,,,1,,,75,0
71520,note_off,120,0,3,,,,,,,,,2,,,35,0
71520,set_tempo,0,1,0,,,,,,540540,,,,,,,
71580,note_on,0,0,1,,,,,,,,,0,,,77,70
71580,note_off,60,0,1,,,,,,,,,0,,,74,0
71640,note_off,60,0,1,,,,,,,,,0,,,77,0
71640,note_on,0,0,1,,,,,,,,,0,,,80,72
71700,note_on,0,0,1,,,,,,,,,0,,,83,75
71700,note_off,60,0,1,,,,,,,,,0,,,80,0
71700,set_tempo,180,1,0,,,,,,550458,,,,,,,
71760,note_off,60,0,1,,,,,,,,,0,,,83,0
71760,note_on,0,0,1,,,,,,,,,0,,,86,83
71760,set_tempo,60,1,0,,,,,,952380,,,,,,,
72000,note_on,0,0,3,,,,,,,,,2,,,62,80
72000,note_on,480,0,3,,,,,,,,,2,,,65,80
72000,note_on,483,0,4,,,,,,,,,3,,,68,80
72000,set_tempo,240,1,0,,,,,,789473,,,,,,,
72000,note_on,0,0,3,,,,,,,,,2,,,59,80
72192,note_off,192,0,4,,,,,,,,,3,,,68,0
72192,note_off,0,0,3,,,,,,,,,2,,,65,0
72192,note_off,0,0,3,,,,,,,,,2,,,59,0
72192,note_off,192,0,3,,,,,,,,,2,,,62,0
72240,note_on,48,0,4,,,,,,,,,3,,,69,76
72432,note_off,192,0,4,,,,,,,,,3,,,69,0
72480,note_on,48,0,4,,,,,,,,,3,,,71,72
72672,note_off,192,0,4,,,,,,,,,3,,,71,0
72720,note_on,48,0,4,,,,,,,,,3,,,74,67
72730,set_tempo,730,1,0,,,,,,821917,,,,,,,
72912,note_off,192,0,4,,,,,,,,,3,,,74,0
72960,note_on,0,0,4,,,,,,,,,3,,,74,63
72960,control_change,48,0,4,,,,,,,64,0,3,,,,
72960,set_tempo,230,1,0,,,,,,789473,,,,,,,
72960,control_change,1200,0,1,,,,,,,64,0,0,,,,
72960,note_on,768,0,3,,,,,,,,,2,,,68,63
72960,note_on,0,0,3,,,,,,,,,2,,,64,63
72960,control_change,0,0,1,,,,,,,64,0,0,,,,
72960,note_on,0,0,1,,,,,,,,,0,,,85,59
72982,note_off,22,0,1,,,,,,,,,0,,,86,0
73152,note_off,170,0,1,,,,,,,,,0,,,85,0
73200,note_on,48,0,1,,,,,,,,,0,,,83,54
73210,set_tempo,250,1,0,,,,,,821917,,,,,,,
73392,note_off,192,0,1,,,,,,,,,0,,,83,0
73440,note_on,48,0,1,,,,,,,,,0,,,81,53
73440,note_on,0,0,3,,,,,,,,,2,,,66,60
73440,note_off,0,0,3,,,,,,,,,2,,,68,0
73440,note_off,480,0,3,,,,,,,,,2,,,64,0
73440,note_on,0,0,4,,,,,,,,,3,,,69,60
73440,note_on,1920,0,2,,,,,,,,,1,,,78,53
73440,note_on,0,0,2,,,,,,,,,1,,,73,53
73440,note_off,480,0,4,,,,,,,,,3,,,74,0
73440,set_tempo,230,1,0,,,,,,810810,,,,,,,
73680,note_off,240,0,1,,,,,,,,,0,,,81,0
73680,note_on,0,0,1,,,,,,,,,0,,,80,57
73680,note_off,240,0,2,,,,,,,,,1,,,73,0
73680,note_on,0,0,2,,,,,,,,,1,,,77,57
73680,note_on,0,0,4,,,,,,,,,3,,,71,65
73680,note_off,0,0,2,,,,,,,,,1,,,78,0
73680,note_off,240,0,4,,,,,,,,,3,,,69,0
73680,note_off,240,0,3,,,,,,,,,2,,,66,0
73680,note_on,0,0,3,,,,,,,,,2,,,68,65
73800,set_tempo,360,1,0,,,,,,810810,,,,,,,
73872,note_off,192,0,1,,,,,,,,,0,,,80,0
73872,note_off,192,0,2,,,,,,,,,1,,,77,0
73872,note_off,192,0,4,,,,,,,,,3,,,71,0
73872,note_off,192,0,3,,,,,,,,,2,,,68,0
73920,note_on,48,0,4,,,,,,,,,3,,,69,69
73920,note_on,48,0,3,,,,,,,,,2,,,66,69
73920,note_on,48,0,2,,,,,,,,,1,,,78,62
73920,note_on,0,0,2,,,,,,,,,1,,,73,62
73920,set_tempo,120,1,0,,,,,,789473,,,,,,,
73920,note_on,48,0,1,,,,,,,,,0,,,81,62
74050,set_tempo,130,1,0,,,,,,810810,,,,,,,
74112,note_off,192,0,1,,,,,,,,,0,,,81,0
74112,note_off,192,0,3,,,,,,,,,2,,,66,0
74112,note_off,192,0,2,,,,,,,,,1,,,73,0
74112,note_off,0,0,2,,,,,,,,,1,,,78,0
74112,note_off,192,0,4,,,,,,,,,3,,,69,0
74160,note_on,48,0,2,,,,,,,,,1,,,80,66
74160,note_on,48,0,1,,,,,,,,,0,,,83,66
74160,note_on,48,0,3,,,,,,,,,2,,,65,74
74160,note_on,0,0,3,,,,,,,,,2,,,61,74
74160,note_on,48,0,4,,,,,,,,,3,,,68,74
74160,note_on,0,0,2,,,,,,,,,1,,,73,66
74280,set_tempo,230,1,0,,,,,,869565,,,,,,,
74352,note_off,192,0,3,,,,,,,,,2,,,61,0
74352,note_off,0,0,2,,,,,,,,,1,,,80,0
74352,note_off,192,0,2,,,,,,,,,1,,,73,0
74352,note_off,192,0,4,,,,,,,,,3,,,68,0
74352,note_off,0,0,3,,,,,,,,,2,,,65,0
74352,note_off,192,0,1,,,,,,,,,0,,,83,0
74400,note_on,48,0,1,,,,,,,,,0,,,84,76
74400,set_tempo,120,1,0,,,,,,810810,,,,,,,
74712,note_off,312,0,1,,,,,,,,,0,,,84,0
74760,set_tempo,360,1,0,,,,,,821917,,,,,,,
74880,note_on,168,0,1,,,,,,,,,0,,,85,81
74880,set_tempo,120,1,0,,,,,,789473,,,,,,,
74880,note_on,528,0,3,,,,,,,,,2,,,61,80
74880,note_on,528,0,4,,,,,,,,,3,,,66,80
74880,note_on,0,0,3,,,,,,,,,2,,,57,80
75000,note_off,120,0,4,,,,,,,,,3,,,66,0
75000,note_on,0,0,4,,,,,,,,,3,,,65,74
75120,note_off,0,0,3,,,,,,,,,2,,,61,0
75120,note_off,240,0,3,,,,,,,,,2,,,57,0
75120,note_on,0,0,4,,,,,,,,,3,,,66,71
75120,note_off,120,0,4,,,,,,,,,3,,,65,0
75240,note_off,120,0,4,,,,,,,,,3,,,66,0
75240,note_on,0,0,4,,,,,,,,,3,,,68,69
75360,note_off,120,0,4,,,,,,,,,3,,,68,0
75360,note_on,0,0,4,,,,,,,,,3,,,69,67
75480,note_off,120,0,4,,,,,,,,,3,,,69,0
75480,note_on,0,0,4,,,,,,,,,3,,,68,64
75594,note_off,714,0,1,,,,,,,,,0,,,85,0
75600,set_tempo,720,1,0,,,,,,821917,,,,,,,
75600,note_on,0,0,4,,,,,,,,,3,,,69,62
75600,note_off,120,0,4,,,,,,,,,3,,,68,0
75720,note_on,0,0,4,,,,,,,,,3,,,71,59
75720,note_off,120,0,4,,,,,,,,,3,,,69,0
75840,set_tempo,240,1,0,,,,,,789473,,,,,,,
75840,note_on,0,0,3,,,,,,,,,2,,,66,57
75840,note_on,720,0,3,,,,,,,,,2,,,63,57
75840,note_on,0,0,4,,,,,,,,,3,,,72,57
75840,note_on,246,0,1,,,,,,,,,0,,,83,60
75840,note_on,1488,0,2,,,,,,,,,1,,,78,60
75840,note_off,120,0,4,,,,,,,,,3,,,71,0
76032,note_off,192,0,1,,,,,,,,,0,,,83,0
76080,note_on,48,0,1,,,,,,,,,0,,,81,54
76090,set_tempo,250,1,0,,,,,,821917,,,,,,,
76240,note_off,400,0,2,,,,,,,,,1,,,78,0
76272,note_off,192,0,1,,,,,,,,,0,,,81,0
76305,note_off,465,0,3,,,,,,,,,2,,,66,0
76320,note_on,48,0,1,,,,,,,,,0,,,80,54
76320,note_on,80,0,2,,,,,,,,,1,,,71,54
76320,set_tempo,230,1,0,,,,,,810810,,,,,,,
76320,note_off,15,0,3,,,,,,,,,2,,,63,0
76320,note_on,0,0,3,,,,,,,,,2,,,64,49
76320,note_on,0,0,4,,,,,,,,,3,,,68,49
76320,note_off,480,0,4,,,,,,,,,3,,,72,0
76560,note_off,240,0,4,,,,,,,,,3,,,68,0
76560,note_on,0,0,4,,,,,,,,,3,,,66,53
76560,note_off,240,0,2,,,,,,,,,1,,,71,0
76560,note_on,0,0,1,,,,,,,,,0,,,78,57
76560,note_on,0,0,2,,,,,,,,,1,,,71,57
76560,note_on,0,0,3,,,,,,,,,2,,,63,53
76560,note_off,240,0,3,,,,,,,,,2,,,64,0
76560,note_on,0,0,2,,,,,,,,,1,,,69,57
76560,note_off,240,0,1,,,,,,,,,0,,,80,0
76752,note_off,192,0,2,,,,,,,,,1,,,69,0
76752,note_off,0,0,2,,,,,,,,,1,,,71,0
76752,note_off,192,0,1,,,,,,,,,0,,,78,0
76752,note_off,192,0,3,,,,,,,,,2,,,63,0
76752,note_off,192,0,4,,,,,,,,,3,,,66,0
76800,note_on,48,0,4,,,,,,,,,3,,,64,57
76800,note_on,48,0,2,,,,,,,,,1,,,71,60
76800,note_on,0,0,2,,,,,,,,,1,,,68,60
76800,note_on,48,0,1,,,,,,,,,0,,,80,60
76920,set_tempo,600,1,0,,,,,,821917,,,,,,,
76992,note_off,192,0,2,,,,,,,,,1,,,68,0
76992,note_off,0,0,2,,,,,,,,,1,,,71,0
76992,note_off,192,0,4,,,,,,,,,3,,,64,0
76992,note_off,192,0,1,,,,,,,,,0,,,80,0
77040,note_on,288,0,3,,,,,,,,,2,,,61,61
77040,note_on,48,0,4,,,,,,,,,3,,,64,61
77040,note_on,48,0,1,,,,,,,,,0,,,81,62
77040,note_on,48,0,2,,,,,,,,,1,,,69,62
77040,note_on,0,0,2,,,,,,,,,1,,,76,62
77160,set_tempo,240,1,0,,,,,,869565,,,,,,,
77232,note_off,192,0,3,,,,,,,,,2,,,61,0
77232,note_off,192,0,1,,,,,,,,,0,,,81,0
77232,note_off,192,0,4,,,,,,,,,3,,,64,0
77232,note_off,0,0,2,,,,,,,,,1,,,69,0
77232,note_off,192,0,2,,,,,,,,,1,,,76,0
77280,set_tempo,120,1,0,,,,,,789473,,,,,,,
77280,note_on,48,0,3,,,,,,,,,2,,,64,60
77280,note_on,48,0,4,,,,,,,,,3,,,56,60
77280,note_on,48,0,1,,,,,,,,,0,,,83,65
77520,note_off,240,0,1,,,,,,,,,0,,,83,0
77520,note_on,0,0,1,,,,,,,,,0,,,76,63
77640,set_tempo,360,1,0,,,,,,810810,,,,,,,
77760,set_tempo,120,1,0,,,,,,789473,,,,,,,
77760,note_off,480,0,4,,,,,,,,,3,,,56,0
77760,note_on,0,0,3,,,,,,,,,2,,,69,55
77760,note_on,0,0,3,,,,,,,,,2,,,64,55
77760,note_off,240,0,1,,,,,,,,,0,,,76,0
77760,note_on,0,0,1,,,,,,,,,0,,,83,62
77760,note_on,0,0,4,,,,,,,,,3,,,61,55
77760,note_off,480,0,3,,,,,,,,,2,,,64,0
77990,set_tempo,230,1,0,,,,,,810810,,,,,,,
78000,note_on,0,0,1,,,,,,,,,0,,,81,60
78000,note_off,240,0,1,,,,,,,,,0,,,83,0
78240,note_off,480,0,4,,,,,,,,,3,,,61,0
78240,note_on,0,0,3,,,,,,,,,2,,,64,50
78240,note_on,0,0,3,,,,,,,,,2,,,68,50
78240,note_off,0,0,3,,,,,,,,,2,,,69,0
78240,note_off,480,0,3,,,,,,,,,2,,,64,0
78240,note_on,0,0,1,,,,,,,,,0,,,80,58
78240,note_on,0,0,4,,,,,,,,,3,,,59,50
78240,note_off,240,0,1,,,,,,,,,0,,,81,0
78720,note_on,0,0,4,,,,,,,,,3,,,59,46
78720,note_on,0,0,3,,,,,,,,,2,,,64,46
78720,note_on,0,0,3,,,,,,,,,2,,,70,46
78720,note_off,0,0,3,,,,,,,,,2,,,68,0
78720,note_off,480,0,4,,,,,,,,,3,,,59,0
78720,note_off,480,0,3,,,,,,,,,2,,,64,0
79140,set_tempo,1150,1,0,,,,,,821917,,,,,,,
79200,note_on,0,0,4,,,,,,,,,3,,,59,48
79200,note_on,0,0,3,,,,,,,,,2,,,63,48
79200,note_on,0,0,3,,,,,,,,,2,,,71,48
79200,note_off,960,0,1,,,,,,,,,0,,,80,0
79200,note_off,480,0,3,,,,,,,,,2,,,64,0
79200,note_off,0,0,3,,,,,,,,,2,,,70,0
79200,set_tempo,60,1,0,,,,,,810810,,,,,,,
79200,note_off,480,0,4,,,,,,,,,3,,,59,0
79200,note_on,0,0,1,,,,,,,,,0,,,78,55
79240,note_on,0,0,1,,,,,,,,,0,,,80,56
79240,note_off,40,0,1,,,,,,,,,0,,,78,0
79275,set_tempo,75,1,0,,,,,,789473,,,,,,,
79280,note_off,40,0,1,,,,,,,,,0,,,80,0
79280,note_on,0,0,1,,,,,,,,,0,,,78,58
79320,note_on,0,0,1,,,,,,,,,0,,,77,60
79320,note_off,40,0,1,,,,,,,,,0,,,78,0
79380,note_off,60,0,1,,,,,,,,,0,,,77,0
79380,note_on,0,0,1,,,,,,,,,0,,,78,62
79440,note_off,0,0,3,,,,,,,,,2,,,63,0
79440,note_off,60,0,1,,,,,,,,,0,,,78,0
79440,note_on,0,0,1,,,,,,,,,0,,,80,65
79440,note_on,0,0,4,,,,,,,,,3,,,59,57
79440,note_off,240,0,4,,,,,,,,,3,,,59,0
79440,note_off,240,0,3,,,,,,,,,2,,,71,0
79440,note_on,0,0,3,,,,,,,,,2,,,62,57
79440,note_on,0,0,3,,,,,,,,,2,,,65,57
79440,note_on,0,0,3,,,,,,,,,2,,,68,57
79500,note_on,0,0,1,,,,,,,,,0,,,81,67
79500,note_off,60,0,1,,,,,,,,,0,,,80,0
79560,note_on,0,0,1,,,,,,,,,0,,,83,69
79560,note_off,60,0,1,,,,,,,,,0,,,81,0
79620,set_tempo,345,1,0,,,,,,810810,,,,,,,
79620,note_on,0,0,1,,,,,,,,,0,,,85,72
79620,note_off,60,0,1,,,,,,,,,0,,,83,0
79680,note_off,60,0,1,,,,,,,,,0,,,85,0
79680,note_on,0,0,1,,,,,,,,,0,,,86,74
79680,note_on,0,0,4,,,,,,,,,3,,,32,72
79680,note_on,0,0,4,,,,,,,,,3,,,44,72
79680,note_on,0,0,2,,,,,,,,,1,,,83,74
79680,note_on,0,0,2,,,,,,,,,1,,,77,74
79680,note_on,2448,0,2,,,,,,,,,1,,,74,74
79680,note_off,0,0,3,,,,,,,,,2,,,68,0
79680,note_off,240,0,4,,,,,,,,,3,,,59,0
79680,note_off,240,0,3,,,,,,,,,2,,,62,0
79680,note_off,0,0,3,,,,,,,,,2,,,65,0
80040,set_tempo,420,1,0,,,,,,845070,,,,,,,
80160,control_change,480,0,3,,,,,,,64,127,2,,,,
80160,note_on,0,0,3,,,,,,,,,2,,,41,86
80160,note_on,0,0,2,,,,,,,,,1,,,74,80
80160,note_on,0,0,2,,,,,,,,,1,,,83,80
80160,note_on,0,0,2,,,,,,,,,1,,,77,80
80160,note_off,0,0,2,,,,,,,,,1,,,74,0
80160,note_off,0,0,2,,,,,,,,,1,,,77,0
80160,note_off,480,0,2,,,,,,,,,1,,,83,0
80160,control_change,480,0,4,,,,,,,64,127,3,,,,
80160,note_off,0,0,4,,,,,,,,,3,,,32,0
80160,control_change,480,0,1,,,,,,,64,127,0,,,,
80160,note_on,0,0,4,,,,,,,,,3,,,43,81
80160,note_on,0,0,1,,,,,,,,,0,,,86,80
80160,note_off,0,0,1,,,,,,,,,0,,,86,0
80160,note_on,0,0,3,,,,,,,,,2,,,38,86
80160,note_off,0,0,4,,,,,,,,,3,,,44,0
80160,note_on,0,0,4,,,,,,,,,3,,,31,81
80270,set_tempo,230,1,0,,,,,,750000,,,,,,,
80280,note_on,0,0,1,,,,,,,,,0,,,83,79
80280,note_off,0,0,2,,,,,,,,,1,,,77,0
80280,note_off,0,0,2,,,,,,,,,1,,,83,0
80280,note_off,120,0,2,,,,,,,,,1,,,74,0
80280,note_off,120,0,1,,,,,,,,,0,,,86,0
80400,note_on,0,0,1,,,,,,,,,0,,,79,78
80400,note_off,120,0,1,,,,,,,,,0,,,83,0
80520,note_on,0,0,1,,,,,,,,,0,,,77,77
80520,note_off,120,0,1,,,,,,,,,0,,,79,0
80640,note_on,0,0,1,,,,,,,,,0,,,74,75
80640,note_off,120,0,1,,,,,,,,,0,,,77,0
80760,note_off,120,0,1,,,,,,,,,0,,,74,0
80760,note_on,0,0,1,,,,,,,,,0,,,71,74
80880,note_off,120,0,1,,,,,,,,,0,,,71,0
80880,note_on,0,0,1,,,,,,,,,0,,,67,73
81000,note_off,120,0,1,,,,,,,,,0,,,67,0
81000,note_on,0,0,1,,,,,,,,,0,,,65,71
81120,note_off,120,0,1,,,,,,,,,0,,,65,0
81120,note_on,0,0,1,,,,,,,,,0,,,62,70
81200,note_off,80,0,1,,,,,,,,,0,,,62,0
81200,note_on,0,0,1,,,,,,,,,0,,,59,69
81240,note_off,0,0,3,,,,,,,,,2,,,38,0
81240,note_off,1080,0,3,,,,,,,,,2,,,41,0
81240,note_off,1080,0,4,,,,,,,,,3,,,31,0
81240,note_off,0,0,4,,,,,,,,,3,,,43,0
81280,note_off,80,0,1,,,,,,,,,0,,,59,0
81280,note_on,0,0,1,,,,,,,,,0,,,55,68
81360,note_off,80,0,1,,,,,,,,,0,,,55,0
81360,note_on,0,0,1,,,,,,,,,0,,,53,68
81440,note_off,80,0,1,,,,,,,,,0,,,53,0
81440,note_on,0,0,1,,,,,,,,,0,,,50,67
81520,note_off,80,0,1,,,,,,,,,0,,,50,0
81520,note_on,0,0,1,,,,,,,,,0,,,47,66
81600,note_on,0,0,1,,,,,,,,,0,,,43,67
81600,note_off,80,0,1,,,,,,,,,0,,,47,0
81660,note_off,60,0,1,,,,,,,,,0,,,43,0
81660,note_on,0,0,1,,,,,,,,,0,,,47,68
81720,note_off,60,0,1,,,,,,,,,0,,,47,0
81720,note_on,0,0,1,,,,,,,,,0,,,50,69
81780,note_off,60,0,1,,,,,,,,,0,,,50,0
81780,note_on,0,0,1,,,,,,,,,0,,,53,70
81840,note_off,60,0,1,,,,,,,,,0,,,53,0
81840,note_on,0,0,1,,,,,,,,,0,,,55,71
81900,note_off,60,0,1,,,,,,,,,0,,,55,0
81900,note_on,0,0,1,,,,,,,,,0,,,59,72
81960,note_off,60,0,1,,,,,,,,,0,,,59,0
81960,note_on,0,0,1,,,,,,,,,0,,,62,73
82020,note_off,60,0,1,,,,,,,,,0,,,62,0
82020,note_on,0,0,1,,,,,,,,,0,,,65,75
82080,note_off,60,0,1,,,,,,,,,0,,,65,0
82080,note_on,0,0,1,,,,,,,,,0,,,67,76
82140,note_off,60,0,1,,,,,,,,,0,,,67,0
82140,note_on,0,0,1,,,,,,,,,0,,,71,78
82200,note_on,60,0,1,,,,,,,,,0,,,74,80
82205,note_off,5,0,1,,,,,,,,,0,,,71,0
82260,note_off,55,0,1,,,,,,,,,0,,,74,0
82260,note_on,0,0,1,,,,,,,,,0,,,77,81
82320,note_on,0,0,1,,,,,,,,,0,,,74,82
82320,note_off,60,0,1,,,,,,,,,0,,,77,0
82380,note_off,60,0,1,,,,,,,,,0,,,74,0
82380,note_on,0,0,1,,,,,,,,,0,,,77,84
82440,note_on,0,0,1,,,,,,,,,0,,,79,82
82440,note_off,60,0,1,,,,,,,,,0,,,77,0
82440,set_tempo,2170,1,0,,,,,,769230,,,,,,,
82495,note_off,55,0,1,,,,,,,,,0,,,79,0
82500,set_tempo,60,1,0,,,,,,789473,,,,,,,
82500,note_on,5,0,1,,,,,,,,,0,,,83,82
82555,note_off,55,0,1,,,,,,,,,0,,,83,0
82560,note_on,2280,0,2,,,,,,,,,1,,,77,89
82560,note_on,0,0,2,,,,,,,,,1,,,74,89
82560,control_change,1320,0,3,,,,,,,64,0,2,,,,
82560,note_on,0,0,1,,,,,,,,,0,,,86,89
82560,control_change,1320,0,4,,,,,,,64,0,3,,,,
82560,control_change,5,0,1,,,,,,,64,0,0,,,,
82560,note_on,0,0,4,,,,,,,,,3,,,43,83
82560,note_on,0,0,4,,,,,,,,,3,,,31,83
82800,note_on,0,0,4,,,,,,,,,3,,,48,80
82800,note_off,0,0,4,,,,,,,,,3,,,43,0
82800,note_on,0,0,2,,,,,,,,,1,,,72,85
82800,note_off,240,0,4,,,,,,,,,3,,,31,0
82800,note_off,240,0,2,,,,,,,,,1,,,74,0
82800,note_off,0,0,2,,,,,,,,,1,,,77,0
82800,note_on,0,0,2,,,,,,,,,1,,,76,85
82800,note_off,240,0,1,,,,,,,,,0,,,86,0
82800,note_on,0,0,1,,,,,,,,,0,,,84,85
82800,note_on,0,0,4,,,,,,,,,3,,,36,80
82807,set_tempo,307,1,0,,,,,,810810,,,,,,,
83040,control_change,240,0,4,,,,,,,64,127,3,,,,
83040,note_on,0,0,1,,,,,,,,,0,,,84,91
83040,note_off,0,0,4,,,,,,,,,3,,,36,0
83040,control_change,240,0,1,,,,,,,64,127,0,,,,
83040,note_off,0,0,2,,,,,,,,,1,,,76,0
83040,note_on,0,0,4,,,,,,,,,3,,,36,87
83040,note_off,240,0,2,,,,,,,,,1,,,72,0
83040,note_on,0,0,3,,,,,,,,,2,,,40,99
83040,note_on,0,0,3,,,,,,,,,2,,,43,99
83040,control_change,480,0,3,,,,,,,64,127,2,,,,
83040,note_on,0,0,4,,,,,,,,,3,,,48,87
83040,note_off,0,0,4,,,,,,,,,3,,,48,0
83040,note_off,0,0,1,,,,,,,,,0,,,84,0
83120,note_off,80,0,1,,,,,,,,,0,,,84,0
83120,note_on,0,0,1,,,,,,,,,0,,,79,90
83150,set_tempo,343,1,0,,,,,,750000,,,,,,,
83200,note_on,0,0,1,,,,,,,,,0,,,76,90
83200,note_off,80,0,1,,,,,,,,,0,,,79,0
83280,note_on,0,0,1,,,,,,,,,0,,,72,89
83280,note_off,80,0,1,,,,,,,,,0,,,76,0
83360,note_on,0,0,1,,,,,,,,,0,,,67,88
83360,note_off,80,0,1,,,,,,,,,0,,,72,0
83440,note_off,80,0,1,,,,,,,,,0,,,67,0
83440,note_on,0,0,1,,,,,,,,,0,,,64,88
83520,note_off,0,0,4,,,,,,,,,3,,,48,0
83520,note_off,80,0,1,,,,,,,,,0,,,64,0
83520,note_on,0,0,1,,,,,,,,,0,,,60,87
83520,note_off,480,0,3,,,,,,,,,2,,,40,0
83520,note_off,0,0,3,,,,,,,,,2,,,43,0
83520,note_off,480,0,4,,,,,,,,,3,,,36,0
83600,note_on,0,0,1,,,,,,,,,0,,,55,86
83600,note_off,80,0,1,,,,,,,,,0,,,60,0
83680,note_on,0,0,1,,,,,,,,,0,,,52,86
83680,note_off,80,0,1,,,,,,,,,0,,,55,0
83760,note_off,80,0,1,,,,,,,,,0,,,52,0
83760,note_on,0,0,1,,,,,,,,,0,,,48,85
83840,note_on,0,0,1,,,,,,,,,0,,,43,84
83840,note_off,80,0,1,,,,,,,,,0,,,48,0
83920,note_on,0,0,1,,,,,,,,,0,,,40,84
83920,note_off,80,0,1,,,,,,,,,0,,,43,0
84000,note_off,80,0,1,,,,,,,,,0,,,40,0
84000,note_on,0,0,1,,,,,,,,,0,,,36,83
84040,note_on,0,0,1,,,,,,,,,0,,,40,83
84040,note_off,40,0,1,,,,,,,,,0,,,36,0
84080,note_off,40,0,1,,,,,,,,,0,,,40,0
84080,note_on,0,0,1,,,,,,,,,0,,,43,82
84120,note_off,40,0,1,,,,,,,,,0,,,43,0
84120,note_on,0,0,1,,,,,,,,,0,,,48,82
84160,note_off,40,0,1,,,,,,,,,0,,,48,0
84160,note_on,0,0,1,,,,,,,,,0,,,52,82
84200,note_off,40,0,1,,,,,,,,,0,,,52,0
84200,note_on,0,0,1,,,,,,,,,0,,,55,81
84240,note_on,0,0,1,,,,,,,,,0,,,60,81
84240,note_off,40,0,1,,,,,,,,,0,,,55,0
84280,note_off,40,0,1,,,,,,,,,0,,,60,0
84280,note_on,0,0,1,,,,,,,,,0,,,64,81
84320,note_on,0,0,1,,,,,,,,,0,,,67,80
84320,note_off,40,0,1,,,,,,,,,0,,,64,0
84360,note_on,0,0,1,,,,,,,,,0,,,72,80
84360,note_off,40,0,1,,,,,,,,,0,,,67,0
84360,set_tempo,1210,1,0,,,,,,769230,,,,,,,
84400,note_on,0,0,1,,,,,,,,,0,,,76,80
84400,note_off,40,0,1,,,,,,,,,0,,,72,0
84420,set_tempo,60,1,0,,,,,,789473,,,,,,,
84440,note_on,0,0,1,,,,,,,,,0,,,79,78
84440,note_off,40,0,1,,,,,,,,,0,,,76,0
84480,note_on,0,0,1,,,,,,,,,0,,,84,84
84480,note_off,0,0,1,,,,,,,,,0,,,79,0
84480,control_change,40,0,1,,,,,,,64,0,0,,,,
84480,note_on,0,0,4,,,,,,,,,3,,,31,80
84480,note_on,0,0,4,,,,,,,,,3,,,43,80
84480,control_change,960,0,3,,,,,,,64,0,2,,,,
84480,set_tempo,60,1,0,,,,,,750000,,,,,,,
84480,note_on,1440,0,2,,,,,,,,,1,,,72,84
84480,note_on,0,0,2,,,,,,,,,1,,,76,84
84480,control_change,960,0,4,,,,,,,64,0,3,,,,
84720,note_off,0,0,2,,,,,,,,,1,,,72,0
84720,note_on,0,0,4,,,,,,,,,3,,,44,83
84720,note_on,0,0,4,,,,,,,,,3,,,32,83
84720,note_off,240,0,2,,,,,,,,,1,,,76,0
84720,note_on,0,0,2,,,,,,,,,1,,,76,85
84720,note_on,0,0,2,,,,,,,,,1,,,71,85
84720,note_off,240,0,1,,,,,,,,,0,,,84,0
84720,note_on,0,0,1,,,,,,,,,0,,,83,85
84720,note_off,0,0,4,,,,,,,,,3,,,43,0
84720,note_off,240,0,4,,,,,,,,,3,,,31,0
84855,set_tempo,375,1,0,,,,,,789473,,,,,,,
84960,note_on,0,0,2,,,,,,,,,1,,,71,87
84960,note_on,480,0,3,,,,,,,,,2,,,40,86
84960,note_off,240,0,1,,,,,,,,,0,,,83,0
84960,note_on,0,0,1,,,,,,,,,0,,,83,87
84960,note_off,0,0,2,,,,,,,,,1,,,76,0
84960,note_off,240,0,2,,,,,,,,,1,,,71,0
84960,note_on,0,0,2,,,,,,,,,1,,,76,87
84960,note_on,0,0,4,,,,,,,,,3,,,32,86
84960,note_on,0,0,4,,,,,,,,,3,,,44,86
84960,note_off,240,0,4,,,,,,,,,3,,,32,0
84960,note_off,0,0,4,,,,,,,,,3,,,44,0
85320,set_tempo,465,1,0,,,,,,810810,,,,,,,
85440,note_on,0,0,4,,,,,,,,,3,,,44,97
85440,note_on,0,0,2,,,,,,,,,1,,,83,90
85440,note_on,0,0,2,,,,,,,,,1,,,88,90
85440,note_off,480,0,3,,,,,,,,,2,,,40,0
85440,note_on,0,0,3,,,,,,,,,2,,,40,97
85440,note_off,480,0,1,,,,,,,,,0,,,83,0
85440,note_on,0,0,1,,,,,,,,,0,,,95,90
85440,note_off,0,0,2,,,,,,,,,1,,,76,0
85440,note_off,480,0,4,,,,,,,,,3,,,32,0
85440,note_on,0,0,4,,,,,,,,,3,,,32,97
85440,note_off,0,0,4,,,,,,,,,3,,,44,0
85440,note_off,480,0,2,,,,,,,,,1,,,71,0
85800,set_tempo,480,1,0,,,,,,821917,,,,,,,
86040,note_off,0,0,2,,,,,,,,,1,,,83,0
86040,set_tempo,240,1,0,,,,,,750000,,,,,,,
86040,note_off,600,0,1,,,,,,,,,0,,,95,0
86040,note_on,0,0,1,,,,,,,,,0,,,88,59
86040,note_off,600,0,2,,,,,,,,,1,,,88,0
86160,note_off,720,0,4,,,,,,,,,3,,,32,0
86160,note_off,0,0,4,,,,,,,,,3,,,44,0
86160,note_on,0,0,4,,,,,,,,,3,,,44,57
86160,note_on,0,0,1,,,,,,,,,0,,,87,58
86160,note_off,120,0,1,,,,,,,,,0,,,88,0
86160,note_off,720,0,3,,,,,,,,,2,,,40,0
86160,note_on,0,0,3,,,,,,,,,2,,,47,57
86160,note_on,0,0,3,,,,,,,,,2,,,52,57
86280,note_on,0,0,1,,,,,,,,,0,,,88,57
86280,note_off,120,0,1,,,,,,,,,0,,,87,0
86400,note_off,0,0,3,,,,,,,,,2,,,52,0
86400,note_off,240,0,4,,,,,,,,,3,,,44,0
86400,note_off,240,0,3,,,,,,,,,2,,,47,0
86400,note_off,120,0,1,,,,,,,,,0,,,88,0
86400,note_on,0,0,1,,,,,,,,,0,,,87,56
86520,note_on,0,0,1,,,,,,,,,0,,,88,54
86520,note_off,120,0,1,,,,,,,,,0,,,87,0
86640,note_on,0,0,1,,,,,,,,,0,,,95,53
86640,note_off,120,0,1,,,,,,,,,0,,,88,0
86640,note_on,240,0,4,,,,,,,,,3,,,49,52
86640,note_on,240,0,3,,,,,,,,,2,,,52,52
86640,note_on,0,0,3,,,,,,,,,2,,,57,52
86760,note_off,120,0,1,,,,,,,,,0,,,95,0
86760,note_on,0,0,1,,,,,,,,,0,,,93,52
86880,note_off,240,0,3,,,,,,,,,2,,,57,0
86880,note_off,0,0,3,,,,,,,,,2,,,52,0
86880,note_on,0,0,1,,,,,,,,,0,,,92,51
86880,note_off,240,0,4,,,,,,,,,3,,,49,0
86880,note_off,120,0,1,,,,,,,,,0,,,93,0
87000,note_off,120,0,1,,,,,,,,,0,,,92,0
87000,note_on,0,0,1,,,,,,,,,0,,,87,50
87120,note_on,240,0,4,,,,,,,,,3,,,47,48
87120,note_off,120,0,1,,,,,,,,,0,,,87,0
87120,note_on,0,0,3,,,,,,,,,2,,,52,48
87120,note_on,240,0,3,,,,,,,,,2,,,56,48
87120,note_on,0,0,1,,,,,,,,,0,,,88,49
87240,set_tempo,1200,1,0,,,,,,769230,,,,,,,
87240,note_off,120,0,1,,,,,,,,,0,,,88,0
87240,note_on,0,0,1,,,,,,,,,0,,,87,48
87360,note_off,240,0,4,,,,,,,,,3,,,47,0
87360,note_on,0,0,1,,,,,,,,,0,,,88,46
87360,set_tempo,120,1,0,,,,,,750000,,,,,,,
87360,note_off,240,0,3,,,,,,,,,2,,,52,0
87360,note_off,0,0,3,,,,,,,,,2,,,56,0
87360,note_on,0,0,3,,,,,,,,,2,,,80,42
87360,note_off,120,0,1,,,,,,,,,0,,,87,0
87440,note_on,0,0,1,,,,,,,,,0,,,85,46
87440,note_off,80,0,1,,,,,,,,,0,,,88,0
87440,note_off,80,0,3,,,,,,,,,2,,,80,0
87440,note_on,0,0,3,,,,,,,,,2,,,76,42
87520,note_on,0,0,1,,,,,,,,,0,,,87,46
87520,note_off,80,0,1,,,,,,,,,0,,,85,0
87520,note_on,0,0,3,,,,,,,,,2,,,78,43
87520,note_off,80,0,3,,,,,,,,,2,,,76,0
87600,note_off,80,0,3,,,,,,,,,2,,,78,0
87600,note_on,0,0,1,,,,,,,,,0,,,83,47
87600,note_off,80,0,1,,,,,,,,,0,,,87,0
87600,note_on,0,0,3,,,,,,,,,2,,,75,43
87680,note_off,80,0,3,,,,,,,,,2,,,75,0
87680,note_on,0,0,3,,,,,,,,,2,,,76,43
87680,note_on,0,0,1,,,,,,,,,0,,,85,47
87680,note_off,80,0,1,,,,,,,,,0,,,83,0
87760,note_on,0,0,3,,,,,,,,,2,,,73,44
87760,note_off,80,0,1,,,,,,,,,0,,,85,0
87760,note_on,0,0,1,,,,,,,,,0,,,81,48
87760,note_off,80,0,3,,,,,,,,,2,,,76,0
87840,note_off,80,0,1,,,,,,,,,0,,,81,0
87840,note_on,0,0,1,,,,,,,,,0,,,83,48
87840,note_on,0,0,3,,,,,,,,,2,,,75,44
87840,note_off,80,0,3,,,,,,,,,2,,,73,0
87920,note_off,80,0,1,,,,,,,,,0,,,83,0
87920,note_on,0,0,1,,,,,,,,,0,,,80,48
87920,note_on,0,0,3,,,,,,,,,2,,,71,45
87920,note_off,80,0,3,,,,,,,,,2,,,75,0
88000,note_off,80,0,1,,,,,,,,,0,,,80,0
88000,note_on,0,0,1,,,,,,,,,0,,,81,49
88000,note_off,80,0,3,,,,,,,,,2,,,71,0
88000,note_on,0,0,3,,,,,,,,,2,,,73,45
88080,note_on,0,0,1,,,,,,,,,0,,,78,49
88080,note_off,80,0,1,,,,,,,,,0,,,81,0
88080,note_off,80,0,3,,,,,,,,,2,,,73,0
88080,note_on,0,0,3,,,,,,,,,2,,,69,45
88160,note_on,0,0,1,,,,,,,,,0,,,80,50
88160,note_off,80,0,1,,,,,,,,,0,,,78,0
88160,note_on,0,0,3,,,,,,,,,2,,,71,46
88160,note_off,80,0,3,,,,,,,,,2,,,69,0
88240,note_on,0,0,3,,,,,,,,,2,,,68,46
88240,note_on,0,0,1,,,,,,,,,0,,,76,50
88240,note_off,80,0,1,,,,,,,,,0,,,80,0
88240,note_off,80,0,3,,,,,,,,,2,,,71,0
88320,note_on,0,0,3,,,,,,,,,2,,,69,47
88320,note_off,80,0,3,,,,,,,,,2,,,68,0
88320,note_on,0,0,1,,,,,,,,,0,,,78,50
88320,note_off,80,0,1,,,,,,,,,0,,,76,0
88400,note_on,0,0,1,,,,,,,,,0,,,75,51
88400,note_off,80,0,3,,,,,,,,,2,,,69,0
88400,note_off,80,0,1,,,,,,,,,0,,,78,0
88400,note_on,0,0,3,,,,,,,,,2,,,66,47
88480,note_on,0,0,1,,,,,,,,,0,,,76,51
88480,note_off,80,0,1,,,,,,,,,0,,,75,0
88480,note_on,0,0,3,,,,,,,,,2,,,68,47
88480,note_off,80,0,3,,,,,,,,,2,,,66,0
88560,note_on,0,0,3,,,,,,,,,2,,,64,48
88560,note_off,80,0,1,,,,,,,,,0,,,76,0
88560,note_on,0,0,1,,,,,,,,,0,,,73,52
88560,note_off,80,0,3,,,,,,,,,2,,,68,0
88640,note_off,80,0,3,,,,,,,,,2,,,64,0
88640,note_on,0,0,3,,,,,,,,,2,,,66,48
88640,note_off,80,0,1,,,,,,,,,0,,,73,0
88640,note_on,0,0,1,,,,,,,,,0,,,75,52
88720,note_on,0,0,3,,,,,,,,,2,,,63,49
88720,note_off,80,0,1,,,,,,,,,0,,,75,0
88720,note_on,0,0,1,,,,,,,,,0,,,71,53
88720,note_off,80,0,3,,,,,,,,,2,,,66,0
88800,note_on,0,0,1,,,,,,,,,0,,,73,53
88800,note_off,80,0,3,,,,,,,,,2,,,63,0
88800,note_on,0,0,3,,,,,,,,,2,,,64,49
88800,note_off,80,0,1,,,,,,,,,0,,,71,0
88880,note_off,80,0,1,,,,,,,,,0,,,73,0
88880,note_on,0,0,1,,,,,,,,,0,,,69,53
88880,note_off,80,0,3,,,,,,,,,2,,,64,0
88880,note_on,0,0,3,,,,,,,,,2,,,61,49
88960,note_off,80,0,1,,,,,,,,,0,,,69,0
88960,note_on,0,0,1,,,,,,,,,0,,,71,54
88960,note_off,80,0,3,,,,,,,,,2,,,61,0
88960,note_on,0,0,3,,,,,,,,,2,,,63,50
89040,note_off,80,0,3,,,,,,,,,2,,,63,0
89040,note_on,0,0,3,,,,,,,,,2,,,59,50
89040,note_on,0,0,1,,,,,,,,,0,,,68,54
89040,note_off,80,0,1,,,,,,,,,0,,,71,0
89120,note_on,0,0,3,,,,,,,,,2,,,61,51
89120,note_off,80,0,1,,,,,,,,,0,,,68,0
89120,note_on,0,0,1,,,,,,,,,0,,,69,55
89120,note_off,80,0,3,,,,,,,,,2,,,59,0
89200,note_on,0,0,3,,,,,,,,,2,,,57,51
89200,note_on,0,0,1,,,,,,,,,0,,,66,55
89200,note_off,80,0,1,,,,,,,,,0,,,69,0
89200,note_off,80,0,3,,,,,,,,,2,,,61,0
89280,note_off,80,0,3,,,,,,,,,2,,,57,0
89280,note_off,80,0,1,,,,,,,,,0,,,66,0
89280,note_on,0,0,1,,,,,,,,,0,,,68,55
89280,note_on,0,0,3,,,,,,,,,2,,,59,51
89360,note_off,80,0,1,,,,,,,,,0,,,68,0
89360,note_off,80,0,3,,,,,,,,,2,,,59,0
89360,note_on,0,0,1,,,,,,,,,0,,,64,56
89360,note_on,0,0,3,,,,,,,,,2,,,56,52
89440,note_on,0,0,1,,,,,,,,,0,,,66,56
89440,note_off,80,0,3,,,,,,,,,2,,,56,0
89440,note_on,0,0,3,,,,,,,,,2,,,57,52
89440,note_off,80,0,1,,,,,,,,,0,,,64,0
89520,note_on,0,0,1,,,,,,,,,0,,,63,57
89520,note_off,80,0,3,,,,,,,,,2,,,57,0
89520,note_on,0,0,3,,,,,,,,,2,,,54,53
89520,note_off,80,0,1,,,,,,,,,0,,,66,0
89600,note_off,80,0,1,,,,,,,,,0,,,63,0
89600,note_on,0,0,1,,,,,,,,,0,,,64,57
89600,note_off,80,0,3,,,,,,,,,2,,,54,0
89600,note_on,0,0,3,,,,,,,,,2,,,56,53
89680,note_off,80,0,1,,,,,,,,,0,,,64,0
89680,note_on,0,0,1,,,,,,,,,0,,,61,57
89680,note_on,0,0,3,,,,,,,,,2,,,52,53
89680,note_off,80,0,3,,,,,,,,,2,,,56,0
89760,note_on,0,0,3,,,,,,,,,2,,,54,54
89760,note_on,0,0,1,,,,,,,,,0,,,63,58
89760,note_off,80,0,1,,,,,,,,,0,,,61,0
89760,note_off,80,0,3,,,,,,,,,2,,,52,0
89840,note_off,80,0,3,,,,,,,,,2,,,54,0
89840,note_on,0,0,1,,,,,,,,,0,,,59,58
89840,note_off,80,0,1,,,,,,,,,0,,,63,0
89840,note_on,0,0,3,,,,,,,,,2,,,51,54
89920,note_on,0,0,1,,,,,,,,,0,,,61,59
89920,note_off,80,0,1,,,,,,,,,0,,,59,0
89920,note_on,0,0,3,,,,,,,,,2,,,52,55
89920,note_off,80,0,3,,,,,,,,,2,,,51,0
90000,note_on,0,0,1,,,,,,,,,0,,,57,59
90000,note_on,0,0,3,,,,,,,,,2,,,49,55
90000,note_off,80,0,3,,,,,,,,,2,,,52,0
90000,note_off,80,0,1,,,,,,,,,0,,,61,0
90080,note_on,0,0,1,,,,,,,,,0,,,59,60
90080,note_off,80,0,1,,,,,,,,,0,,,57,0
90080,note_off,80,0,3,,,,,,,,,2,,,49,0
90080,note_on,0,0,3,,,,,,,,,2,,,51,55
90160,note_on,0,0,3,,,,,,,,,2,,,47,56
90160,note_off,80,0,3,,,,,,,,,2,,,51,0
90160,note_on,0,0,1,,,,,,,,,0,,,56,60
90160,note_off,80,0,1,,,,,,,,,0,,,59,0
90240,note_off,80,0,1,,,,,,,,,0,,,56,0
90240,note_on,0,0,3,,,,,,,,,2,,,49,56
90240,note_off,80,0,3,,,,,,,,,2,,,47,0
90240,note_on,0,0,1,,,,,,,,,0,,,57,60
90320,note_on,0,0,1,,,,,,,,,0,,,54,61
90320,note_off,80,0,1,,,,,,,,,0,,,57,0
90320,note_on,0,0,3,,,,,,,,,2,,,45,57
90320,note_off,80,0,3,,,,,,,,,2,,,49,0
90400,note_on,0,0,3,,,,,,,,,2,,,47,57
90400,note_off,80,0,3,,,,,,,,,2,,,45,0
90400,note_on,0,0,1,,,,,,,,,0,,,56,61
90400,note_off,80,0,1,,,,,,,,,0,,,54,0
90480,note_on,0,0,1,,,,,,,,,0,,,52,62
90480,note_off,80,0,1,,,,,,,,,0,,,56,0
90480,note_off,80,0,3,,,,,,,,,2,,,47,0
90480,note_on,0,0,3,,,,,,,,,2,,,44,57
90560,note_on,0,0,1,,,,,,,,,0,,,54,62
90560,note_off,80,0,3,,,,,,,,,2,,,44,0
90560,note_on,0,0,3,,,,,,,,,2,,,45,58
90560,note_off,80,0,1,,,,,,,,,0,,,52,0
90640,note_off,80,0,3,,,,,,,,,2,,,45,0
90640,note_off,80,0,1,,,,,,,,,0,,,54,0
90640,note_on,0,0,1,,,,,,,,,0,,,51,63
90640,note_on,0,0,3,,,,,,,,,2,,,42,61
90720,note_on,0,0,1,,,,,,,,,0,,,52,63
90720,note_off,80,0,1,,,,,,,,,0,,,51,0
90720,note_on,0,0,3,,,,,,,,,2,,,44,61
90720,note_off,80,0,3,,,,,,,,,2,,,42,0
90800,note_off,80,0,3,,,,,,,,,2,,,44,0
90800,note_on,0,0,3,,,,,,,,,2,,,40,61
90800,note_on,0,0,1,,,,,,,,,0,,,49,63
90800,note_off,80,0,1,,,,,,,,,0,,,52,0
90880,note_off,80,0,3,,,,,,,,,2,,,40,0
90880,note_on,0,0,3,,,,,,,,,2,,,42,61
90880,note_off,80,0,1,,,,,,,,,0,,,49,0
90880,note_on,0,0,1,,,,,,,,,0,,,51,63
90960,note_off,80,0,3,,,,,,,,,2,,,42,0
90960,note_on,0,0,3,,,,,,,,,2,,,39,61
90960,note_on,0,0,1,,,,,,,,,0,,,47,63
90960,note_off,80,0,1,,,,,,,,,0,,,51,0
91040,note_off,80,0,1,,,,,,,,,0,,,47,0
91040,note_off,80,0,3,,,,,,,,,2,,,39,0
91040,note_on,0,0,1,,,,,,,,,0,,,49,62
91040,note_on,0,0,3,,,,,,,,,2,,,40,60
91120,note_off,80,0,1,,,,,,,,,0,,,49,0
91120,note_on,0,0,1,,,,,,,,,0,,,46,62
91120,note_on,0,0,3,,,,,,,,,2,,,37,60
91120,note_off,80,0,3,,,,,,,,,2,,,40,0
91200,note_on,0,0,1,,,,,,,,,0,,,47,62
91200,note_on,0,0,3,,,,,,,,,2,,,35,60
91200,note_off,80,0,3,,,,,,,,,2,,,37,0
91200,note_off,80,0,1,,,,,,,,,0,,,46,0
91280,note_on,0,0,1,,,,,,,,,0,,,45,62
91280,note_off,80,0,1,,,,,,,,,0,,,47,0
91360,note_on,0,0,1,,,,,,,,,0,,,47,61
91360,note_off,80,0,1,,,,,,,,,0,,,45,0
91360,note_on,0,0,3,,,,,,,,,2,,,37,59
91360,note_off,160,0,3,,,,,,,,,2,,,35,0
91440,note_on,0,0,1,,,,,,,,,0,,,44,61
91440,note_off,80,0,1,,,,,,,,,0,,,47,0
91520,note_off,80,0,1,,,,,,,,,0,,,44,0
91520,note_on,0,0,3,,,,,,,,,2,,,39,59
91520,note_on,0,0,1,,,,,,,,,0,,,47,61
91520,note_off,160,0,3,,,,,,,,,2,,,37,0
91560,set_tempo,4200,1,0,,,,,,789473,,,,,,,
91600,note_on,0,0,1,,,,,,,,,0,,,42,61
91600,note_off,80,0,1,,,,,,,,,0,,,47,0
91620,set_tempo,60,1,0,,,,,,821917,,,,,,,
91680,control_change,80,0,1,,,,,,,64,127,0,,,,
91680,note_off,0,0,1,,,,,,,,,0,,,42,0
91680,note_on,0,0,1,,,,,,,,,0,,,40,61
91680,control_change,4320,0,4,,,,,,,64,127,3,,,,
91680,note_on,0,0,4,,,,,,,,,3,,,28,59
91680,note_off,160,0,3,,,,,,,,,2,,,39,0
91770,set_tempo,150,1,0,,,,,,769230,,,,,,,
91840,note_off,160,0,1,,,,,,,,,0,,,40,0
91840,note_on,0,0,1,,,,,,,,,0,,,47,60
92000,note_off,160,0,1,,,,,,,,,0,,,47,0
92000,note_on,0,0,1,,,,,,,,,0,,,44,60
92160,note_on,0,0,1,,,,,,,,,0,,,52,59
92160,note_off,160,0,1,,,,,,,,,0,,,44,0
92320,note_off,160,0,1,,,,,,,,,0,,,52,0
92320,note_on,0,0,1,,,,,,,,,0,,,47,59
92480,note_off,160,0,1,,,,,,,,,0,,,47,0
92480,note_on,0,0,1,,,,,,,,,0,,,56,58
92640,note_off,960,0,4,,,,,,,,,3,,,28,0
92640,note_off,160,0,1,,,,,,,,,0,,,56,0
92640,note_on,0,0,1,,,,,,,,,0,,,52,58
92800,note_off,160,0,1,,,,,,,,,0,,,52,0
92800,note_on,0,0,1,,,,,,,,,0,,,59,57
92960,note_on,0,0,1,,,,,,,,,0,,,56,57
92960,note_off,160,0,1,,,,,,,,,0,,,59,0
93120,note_on,0,0,1,,,,,,,,,0,,,64,56
93120,note_off,160,0,1,,,,,,,,,0,,,56,0
93280,note_on,0,0,1,,,,,,,,,0,,,59,56
93280,note_off,160,0,1,,,,,,,,,0,,,64,0
93440,note_off,160,0,1,,,,,,,,,0,,,59,0
93440,note_on,0,0,1,,,,,,,,,0,,,68,55
93600,note_off,160,0,1,,,,,,,,,0,,,68,0
93600,note_on,0,0,1,,,,,,,,,0,,,64,55
93760,note_off,160,0,1,,,,,,,,,0,,,64,0
93760,note_on,0,0,1,,,,,,,,,0,,,71,55
93920,note_on,0,0,1,,,,,,,,,0,,,68,54
93920,note_off,160,0,1,,,,,,,,,0,,,71,0
94080,note_off,160,0,1,,,,,,,,,0,,,68,0
94080,note_on,0,0,1,,,,,,,,,0,,,76,54
94240,note_off,160,0,1,,,,,,,,,0,,,76,0
94240,note_on,0,0,1,,,,,,,,,0,,,71,53
94400,note_off,160,0,1,,,,,,,,,0,,,71,0
94400,note_on,0,0,1,,,,,,,,,0,,,80,53
94440,set_tempo,2670,1,0,,,,,,789473,,,,,,,
94500,set_tempo,60,1,0,,,,,,845070,,,,,,,
94560,note_off,160,0,1,,,,,,,,,0,,,80,0
94560,note_on,0,0,1,,,,,,,,,0,,,76,52
94635,set_tempo,135,1,0,,,,,,769230,,,,,,,
94640,note_off,80,0,1,,,,,,,,,0,,,76,0
94640,note_on,0,0,1,,,,,,,,,0,,,83,52
94720,note_off,80,0,1,,,,,,,,,0,,,83,0
94720,note_on,0,0,1,,,,,,,,,0,,,80,52
94800,note_off,80,0,1,,,,,,,,,0,,,80,0
94800,note_on,0,0,1,,,,,,,,,0,,,88,52
94920,note_on,0,0,1,,,,,,,,,0,,,83,51
94920,note_off,120,0,1,,,,,,,,,0,,,88,0
94920,set_tempo,285,1,0,,,,,,789473,,,,,,,
95040,note_on,0,0,1,,,,,,,,,0,,,92,51
95040,set_tempo,120,1,0,,,,,,1071428,,,,,,,
95040,note_off,120,0,1,,,,,,,,,0,,,83,0
95520,set_tempo,480,1,0,,,,,,789473,,,,,,,
95520,note_on,0,0,1,,,,,,,,,0,,,88,49
95520,note_off,480,0,1,,,,,,,,,0,,,92,0
95880,set_tempo,360,1,0,,,,,,810810,,,,,,,
96000,note_off,480,0,1,,,,,,,,,0,,,88,0
96000,note_on,0,0,1,,,,,,,,,0,,,83,48
96360,set_tempo,480,1,0,,,,,,869565,,,,,,,
96480,note_off,480,0,1,,,,,,,,,0,,,83,0
96480,note_on,0,0,1,,,,,,,,,0,,,84,51
96480,set_tempo,120,1,0,,,,,,1132075,,,,,,,
96960,note_on,0,0,1,,,,,,,,,0,,,85,55
96960,set_tempo,480,1,0,,,,,,419580,,,,,,,
96960,control_change,480,0,1,,,,,,,64,0,0,,,,
96960,control_change,4320,0,4,,,,,,,64,0,3,,,,
96960,note_off,0,0,1,,,,,,,,,0,,,84,0
97080,note_on,5400,0,3,,,,,,,,,2,,,88,55
97200,note_on,240,0,4,,,,,,,,,3,,,69,51
97320,note_on,240,0,3,,,,,,,,,2,,,76,51
97437,note_off,237,0,4,,,,,,,,,3,,,69,0
97440,time_signature,480,1,0,2,4,24,8,,,,,,,,,
97440,note_on,0,0,1,,,,,,,,,0,,,88,54
97440,note_off,120,0,3,,,,,,,,,2,,,76,0
97440,note_off,0,0,3,,,,,,,,,2,,,88,0
97440,note_off,480,0,1,,,,,,,,,0,,,85,0
97560,note_on,120,0,3,,,,,,,,,2,,,83,54
97680,note_on,243,0,4,,,,,,,,,3,,,76,50
97800,note_on,240,0,3,,,,,,,,,2,,,68,50
97920,note_off,0,0,3,,,,,,,,,2,,,83,0
97920,note_off,120,0,3,,,,,,,,,2,,,68,0
97920,note_off,480,0,1,,,,,,,,,0,,,88,0
97920,note_on,0,0,1,,,,,,,,,0,,,81,53
97926,note_off,246,0,4,,,,,,,,,3,,,76,0
98040,note_on,120,0,3,,,,,,,,,2,,,83,52
98160,note_on,234,0,4,,,,,,,,,3,,,66,49
98280,note_on,240,0,3,,,,,,,,,2,,,75,49
98388,note_off,228,0,4,,,,,,,,,3,,,66,0
98400,note_off,480,0,1,,,,,,,,,0,,,81,0
98400,note_off,120,0,3,,,,,,,,,2,,,75,0
98400,note_off,0,0,3,,,,,,,,,2,,,83,0
98400,note_on,0,0,1,,,,,,,,,0,,,83,51
98520,note_on,120,0,3,,,,,,,,,2,,,80,51
98640,note_on,252,0,4,,,,,,,,,3,,,76,48
98760,set_tempo,1320,1,0,,,,,,425531,,,,,,,
98760,note_on,240,0,3,,,,,,,,,2,,,64,48
98880,note_off,480,0,1,,,,,,,,,0,,,83,0
98880,note_on,0,0,3,,,,,,,,,2,,,69,48
98880,set_tempo,120,1,0,,,,,,419580,,,,,,,
98880,note_off,0,0,3,,,,,,,,,2,,,80,0
98880,note_off,120,0,3,,,,,,,,,2,,,64,0
98880,note_on,240,0,4,,,,,,,,,3,,,73,48
98886,note_off,6,0,4,,,,,,,,,3,,,76,0
99000,note_on,120,0,3,,,,,,,,,2,,,76,48
99120,note_on,240,0,1,,,,,,,,,0,,,85,45
99240,note_on,240,0,3,,,,,,,,,2,,,88,45
99348,note_off,228,0,1,,,,,,,,,0,,,85,0
99360,note_on,0,0,4,,,,,,,,,3,,,76,47
99360,note_off,474,0,4,,,,,,,,,3,,,73,0
99360,note_off,0,0,3,,,,,,,,,2,,,69,0
99360,note_off,0,0,3,,,,,,,,,2,,,76,0
99360,note_off,120,0,3,,,,,,,,,2,,,88,0
99360,note_on,0,0,3,,,,,,,,,2,,,68,47
99480,note_on,120,0,3,,,,,,,,,2,,,71,47
99600,note_on,252,0,1,,,,,,,,,0,,,88,45
99720,note_on,240,0,3,,,,,,,,,2,,,83,45
99831,note_off,471,0,4,,,,,,,,,3,,,76,0
99837,note_off,237,0,1,,,,,,,,,0,,,88,0
99840,note_on,0,0,3,,,,,,,,,2,,,66,46
99840,note_on,9,0,4,,,,,,,,,3,,,69,46
99840,note_off,0,0,3,,,,,,,,,2,,,71,0
99840,note_off,120,0,3,,,,,,,,,2,,,83,0
99840,note_off,0,0,3,,,,,,,,,2,,,68,0
99960,note_on,120,0,3,,,,,,,,,2,,,71,46
100080,note_on,243,0,1,,,,,,,,,0,,,83,44
100200,note_on,0,0,3,,,,,,,,,2,,,87,44
100200,note_on,240,0,3,,,,,,,,,2,,,90,44
100320,note_on,0,0,4,,,,,,,,,3,,,71,45
100320,note_off,120,0,3,,,,,,,,,2,,,87,0
100320,note_off,0,0,3,,,,,,,,,2,,,90,0
100320,note_on,0,0,3,,,,,,,,,2,,,64,45
100320,note_off,480,0,4,,,,,,,,,3,,,69,0
100320,note_off,0,0,3,,,,,,,,,2,,,66,0
100320,note_off,0,0,3,,,,,,,,,2,,,71,0
100335,note_off,255,0,1,,,,,,,,,0,,,83,0
100440,note_on,120,0,3,,,,,,,,,2,,,68,45
100560,set_tempo,1680,1,0,,,,,,425531,,,,,,,
100560,note_on,225,0,1,,,,,,,,,0,,,92,44
100560,note_on,120,0,3,,,,,,,,,2,,,88,44
100680,note_on,120,0,3,,,,,,,,,2,,,83,44
100680,set_tempo,120,1,0,,,,,,434782,,,,,,,
100782,note_off,462,0,4,,,,,,,,,3,,,71,0
100788,note_off,228,0,1,,,,,,,,,0,,,92,0
100788,note_off,108,0,3,,,,,,,,,2,,,88,0
100800,note_on,12,0,1,,,,,,,,,0,,,78,49
100800,note_off,0,0,3,,,,,,,,,2,,,64,0
100800,set_tempo,120,1,0,,,,,,419580,,,,,,,
100800,note_off,0,0,3,,,,,,,,,2,,,68,0
100800,note_off,12,0,3,,,,,,,,,2,,,83,0
100920,note_on,120,0,3,,,,,,,,,2,,,83,50
101040,note_on,258,0,4,,,,,,,,,3,,,75,45
101160,note_on,240,0,3,,,,,,,,,2,,,71,46
101268,note_off,228,0,4,,,,,,,,,3,,,75,0
101280,note_off,0,0,3,,,,,,,,,2,,,83,0
101280,note_off,480,0,1,,,,,,,,,0,,,78,0
101280,note_on,0,0,1,,,,,,,,,0,,,80,51
101280,note_off,120,0,3,,,,,,,,,2,,,71,0
101400,note_on,120,0,3,,,,,,,,,2,,,83,52
101520,note_on,252,0,4,,,,,,,,,3,,,76,48
101640,note_on,240,0,3,,,,,,,,,2,,,71,49
101748,note_off,228,0,4,,,,,,,,,3,,,76,0
101760,note_on,0,0,1,,,,,,,,,0,,,81,53
101760,note_off,0,0,3,,,,,,,,,2,,,83,0
101760,note_off,480,0,1,,,,,,,,,0,,,80,0
101760,note_off,120,0,3,,,,,,,,,2,,,71,0
101880,note_on,120,0,3,,,,,,,,,2,,,83,54
102000,note_on,252,0,4,,,,,,,,,3,,,78,52
102120,note_on,240,0,3,,,,,,,,,2,,,71,53
102228,note_off,228,0,4,,,,,,,,,3,,,78,0
102240,note_on,0,0,1,,,,,,,,,0,,,83,55
102240,note_off,480,0,1,,,,,,,,,0,,,81,0
102240,note_off,0,0,3,,,,,,,,,2,,,83,0
102240,note_off,120,0,3,,,,,,,,,2,,,71,0
102360,note_on,120,0,3,,,,,,,,,2,,,88,55
102480,note_on,252,0,4,,,,,,,,,3,,,80,53
102600,set_tempo,1800,1,0,,,,,,425531,,,,,,,
102600,note_on,240,0,3,,,,,,,,,2,,,71,52
102708,note_off,228,0,4,,,,,,,,,3,,,80,0
102720,note_on,12,0,4,,,,,,,,,3,,,66,52
102720,note_on,0,0,3,,,,,,,,,2,,,63,52
102720,note_off,0,0,3,,,,,,,,,2,,,88,0
102720,note_off,120,0,3,,,,,,,,,2,,,71,0
102720,note_off,480,0,1,,,,,,,,,0,,,83,0
102720,set_tempo,120,1,0,,,,,,419580,,,,,,,
102840,note_on,120,0,3,,,,,,,,,2,,,71,52
102960,note_on,240,0,1,,,,,,,,,0,,,83,53
103080,note_on,240,0,3,,,,,,,,,2,,,78,52
103188,note_off,228,0,1,,,,,,,,,0,,,83,0
103200,note_off,0,0,3,,,,,,,,,2,,,63,0
103200,note_on,0,0,3,,,,,,,,,2,,,64,51
103200,note_off,120,0,3,,,,,,,,,2,,,78,0
103200,note_off,0,0,3,,,,,,,,,2,,,71,0
103200,note_on,0,0,4,,,,,,,,,3,,,68,51
103200,note_off,480,0,4,,,,,,,,,3,,,66,0
103320,note_on,120,0,3,,,,,,,,,2,,,71,51
103440,note_on,252,0,1,,,,,,,,,0,,,83,51
103560,note_on,240,0,3,,,,,,,,,2,,,80,51
103668,note_off,228,0,1,,,,,,,,,0,,,83,0
103671,note_off,471,0,4,,,,,,,,,3,,,68,0
103680,note_on,0,0,3,,,,,,,,,2,,,66,50
103680,note_off,0,0,3,,,,,,,,,2,,,64,0
103680,note_off,120,0,3,,,,,,,,,2,,,80,0
103680,note_off,0,0,3,,,,,,,,,2,,,71,0
103680,note_on,9,0,4,,,,,,,,,3,,,69,50
103800,note_on,120,0,3,,,,,,,,,2,,,71,50
103920,note_on,252,0,1,,,,,,,,,0,,,83,50
104040,note_on,240,0,3,,,,,,,,,2,,,81,49
104148,note_off,228,0,1,,,,,,,,,0,,,83,0
104160,note_on,0,0,4,,,,,,,,,3,,,71,49
104160,note_off,120,0,3,,,,,,,,,2,,,81,0
104160,note_off,0,0,3,,,,,,,,,2,,,71,0
104160,note_off,0,0,3,,,,,,,,,2,,,66,0
104160,note_on,0,0,3,,,,,,,,,2,,,68,49
104160,note_off,480,0,4,,,,,,,,,3,,,69,0
104280,note_on,120,0,3,,,,,,,,,2,,,76,49
104400,note_on,252,0,1,,,,,,,,,0,,,83,48
104520,note_on,240,0,3,,,,,,,,,2,,,80,48
104520,set_tempo,1800,1,0,,,,,,425531,,,,,,,
104628,note_off,228,0,1,,,,,,,,,0,,,83,0
104631,note_off,471,0,4,,,,,,,,,3,,,71,0
104640,note_on,0,0,3,,,,,,,,,2,,,71,49
104640,set_tempo,120,1,0,,,,,,419580,,,,,,,
104640,note_off,120,0,3,,,,,,,,,2,,,80,0
104640,note_on,12,0,1,,,,,,,,,0,,,78,49
104640,note_off,0,0,3,,,,,,,,,2,,,76,0
104640,note_off,0,0,3,,,,,,,,,2,,,68,0
104640,note_on,0,0,3,,,,,,,,,2,,,75,49
104760,note_on,120,0,3,,,,,,,,,2,,,83,50
104880,note_on,249,0,4,,,,,,,,,3,,,69,50
104880,note_on,120,0,3,,,,,,,,,2,,,66,50
105000,note_on,120,0,3,,,,,,,,,2,,,59,51
105111,note_off,471,0,1,,,,,,,,,0,,,78,0
105120,note_on,0,0,3,,,,,,,,,2,,,71,52
105120,note_off,0,0,3,,,,,,,,,2,,,83,0
105120,note_off,120,0,3,,,,,,,,,2,,,59,0
105120,note_off,0,0,3,,,,,,,,,2,,,71,0
105120,note_on,0,0,3,,,,,,,,,2,,,76,52
105120,note_off,0,0,3,,,,,,,,,2,,,75,0
105120,note_on,9,0,1,,,,,,,,,0,,,80,52
105126,note_off,246,0,4,,,,,,,,,3,,,69,0
105126,note_off,6,0,3,,,,,,,,,2,,,66,0
105240,note_on,114,0,3,,,,,,,,,2,,,83,53
105360,note_on,120,0,3,,,,,,,,,2,,,64,52
105360,note_on,234,0,4,,,,,,,,,3,,,68,52
105480,note_on,120,0,3,,,,,,,,,2,,,59,53
105591,note_off,471,0,1,,,,,,,,,0,,,80,0
105600,note_on,0,0,3,,,,,,,,,2,,,71,55
105600,note_on,0,0,3,,,,,,,,,2,,,78,55
105600,note_off,0,0,3,,,,,,,,,2,,,83,0
105600,note_off,120,0,3,,,,,,,,,2,,,59,0
105600,note_off,0,0,3,,,,,,,,,2,,,71,0
105600,note_off,0,0,3,,,,,,,,,2,,,76,0
105600,note_on,9,0,1,,,,,,,,,0,,,81,55
105606,note_off,246,0,4,,,,,,,,,3,,,68,0
105606,note_off,6,0,3,,,,,,,,,2,,,64,0
105720,note_on,114,0,3,,,,,,,,,2,,,83,56
105840,note_on,120,0,3,,,,,,,,,2,,,63,54
105840,note_on,234,0,4,,,,,,,,,3,,,66,54
105960,note_on,120,0,3,,,,,,,,,2,,,59,55
106071,note_off,471,0,1,,,,,,,,,0,,,81,0
106080,note_off,0,0,3,,,,,,,,,2,,,78,0
106080,note_off,0,0,3,,,,,,,,,2,,,71,0
106080,note_off,120,0,3,,,,,,,,,2,,,59,0
106080,note_off,0,0,3,,,,,,,,,2,,,83,0
106080,set_tempo,1440,1,0,,,,,,540540,,,,,,,
106086,note_off,6,0,3,,,,,,,,,2,,,63,0
106086,note_off,246,0,4,,,,,,,,,3,,,66,0
106560,note_on,20520,0,2,,,,,,,,,1,,,63,46
106560,note_on,0,0,2,,,,,,,,,1,,,59,46
106560,note_on,474,0,3,,,,,,,,,2,,,57,42
106560,note_on,0,0,3,,,,,,,,,2,,,54,42
106560,note_on,474,0,4,,,,,,,,,3,,,47,42
106560,set_tempo,480,1,0,,,,,,425531,,,,,,,
106560,note_on,489,0,1,,,,,,,,,0,,,66,46
107040,note_off,480,0,4,,,,,,,,,3,,,47,0
107040,note_off,480,0,2,,,,,,,,,1,,,59,0
107040,note_off,0,0,2,,,,,,,,,1,,,63,0
107040,note_off,480,0,3,,,,,,,,,2,,,54,0
107040,note_off,0,0,3,,,,,,,,,2,,,57,0
107040,note_off,480,0,1,,,,,,,,,0,,,66,0
107520,note_on,480,0,1,,,,,,,,,0,,,68,49
107520,note_on,480,0,4,,,,,,,,,3,,,47,46
107520,note_on,0,0,2,,,,,,,,,1,,,64,49
107520,note_on,480,0,2,,,,,,,,,1,,,59,49
107520,note_on,480,0,3,,,,,,,,,2,,,56,46
107520,note_on,0,0,3,,,,,,,,,2,,,52,46
108000,note_off,0,0,2,,,,,,,,,1,,,59,0
108000,note_off,480,0,2,,,,,,,,,1,,,64,0
108000,note_off,480,0,3,,,,,,,,,2,,,52,0
108000,note_off,480,0,4,,,,,,,,,3,,,47,0
108000,note_off,480,0,1,,,,,,,,,0,,,68,0
108000,note_off,0,0,3,,,,,,,,,2,,,56,0
108480,note_on,0,0,2,,,,,,,,,1,,,66,51
108480,note_on,480,0,4,,,,,,,,,3,,,48,49
108480,note_on,0,0,3,,,,,,,,,2,,,54,49
108480,note_on,0,0,2,,,,,,,,,1,,,63,51
108480,note_on,480,0,3,,,,,,,,,2,,,57,49
108480,note_on,480,0,2,,,,,,,,,1,,,60,51
108480,note_on,480,0,1,,,,,,,,,0,,,69,51
108480,note_on,0,0,3,,,,,,,,,2,,,51,49
108960,note_off,480,0,2,,,,,,,,,1,,,66,0
108960,note_off,0,0,2,,,,,,,,,1,,,63,0
108960,note_on,0,0,3,,,,,,,,,2,,,52,51
108960,note_on,0,0,3,,,,,,,,,2,,,56,51
108960,note_off,0,0,3,,,,,,,,,2,,,57,0
108960,note_off,480,0,4,,,,,,,,,3,,,48,0
108960,note_on,0,0,1,,,,,,,,,0,,,68,52
108960,note_off,480,0,1,,,,,,,,,0,,,69,0
108960,note_on,0,0,4,,,,,,,,,3,,,49,51
108960,note_off,0,0,2,,,,,,,,,1,,,60,0
108960,note_on,0,0,2,,,,,,,,,1,,,61,52
108960,note_on,0,0,2,,,,,,,,,1,,,64,52
108960,note_off,480,0,3,,,,,,,,,2,,,54,0
108960,note_off,0,0,3,,,,,,,,,2,,,51,0
109210,set_tempo,2650,1,0,,,,,,428571,,,,,,,
109440,note_off,480,0,2,,,,,,,,,1,,,64,0
109440,note_off,0,0,2,,,,,,,,,1,,,61,0
109440,note_on,0,0,2,,,,,,,,,1,,,61,54
109440,note_on,0,0,2,,,,,,,,,1,,,65,54
109440,note_on,0,0,3,,,,,,,,,2,,,49,53
109440,note_on,0,0,1,,,,,,,,,0,,,73,54
109440,note_on,0,0,4,,,,,,,,,3,,,45,53
109440,note_off,480,0,4,,,,,,,,,3,,,49,0
109440,note_off,480,0,1,,,,,,,,,0,,,68,0
109440,note_off,0,0,3,,,,,,,,,2,,,56,0
109440,note_on,0,0,3,,,,,,,,,2,,,53,53
109440,note_off,480,0,3,,,,,,,,,2,,,52,0
109680,set_tempo,470,1,0,,,,,,441176,,,,,,,
109920,note_off,480,0,3,,,,,,,,,2,,,49,0
109920,note_off,0,0,3,,,,,,,,,2,,,53,0
109920,note_on,0,0,3,,,,,,,,,2,,,49,55
109920,note_on,0,0,3,,,,,,,,,2,,,54,55
109920,note_off,480,0,4,,,,,,,,,3,,,45,0
109920,note_on,0,0,4,,,,,,,,,3,,,45,55
109920,set_tempo,240,1,0,,,,,,428571,,,,,,,
110170,set_tempo,250,1,0,,,,,,434782,,,,,,,
110400,note_on,0,0,3,,,,,,,,,2,,,53,55
110400,note_off,960,0,2,,,,,,,,,1,,,65,0
110400,note_off,0,0,2,,,,,,,,,1,,,61,0
110400,note_off,960,0,1,,,,,,,,,0,,,73,0
110400,note_on,0,0,2,,,,,,,,,1,,,68,57
110400,note_on,0,0,2,,,,,,,,,1,,,59,57
110400,note_on,0,0,2,,,,,,,,,1,,,65,57
110400,note_off,480,0,3,,,,,,,,,2,,,54,0
110400,note_off,0,0,3,,,,,,,,,2,,,49,0
110400,note_on,0,0,1,,,,,,,,,0,,,71,57
110400,note_on,0,0,3,,,,,,,,,2,,,56,55
110400,note_on,0,0,3,,,,,,,,,2,,,50,55
110400,note_on,0,0,2,,,,,,,,,1,,,62,57
110880,note_off,480,0,1,,,,,,,,,0,,,71,0
110880,note_on,0,0,1,,,,,,,,,0,,,69,56
110880,note_on,0,0,3,,,,,,,,,2,,,54,54
110880,note_off,0,0,3,,,,,,,,,2,,,56,0
110880,note_off,0,0,3,,,,,,,,,2,,,50,0
110880,note_off,480,0,3,,,,,,,,,2,,,53,0
110880,note_on,0,0,3,,,,,,,,,2,,,49,54
110880,note_off,0,0,2,,,,,,,,,1,,,68,0
110880,note_off,480,0,2,,,,,,,,,1,,,65,0
110880,note_off,0,0,2,,,,,,,,,1,,,59,0
110880,note_off,0,0,2,,,,,,,,,1,,,62,0
110880,note_on,0,0,2,,,,,,,,,1,,,61,56
110880,note_on,0,0,2,,,,,,,,,1,,,57,56
110880,note_on,0,0,2,,,,,,,,,1,,,66,56
111360,note_on,0,0,2,,,,,,,,,1,,,59,55
111360,note_on,0,0,2,,,,,,,,,1,,,56,55
111360,note_on,0,0,2,,,,,,,,,1,,,62,55
111360,note_on,0,0,2,,,,,,,,,1,,,65,55
111360,note_on,0,0,3,,,,,,,,,2,,,50,53
111360,note_on,0,0,3,,,,,,,,,2,,,47,53
111360,note_on,0,0,3,,,,,,,,,2,,,53,53
111360,note_off,0,0,3,,,,,,,,,2,,,54,0
111360,note_off,480,0,3,,,,,,,,,2,,,49,0
111360,note_off,480,0,2,,,,,,,,,1,,,66,0
111360,note_off,0,0,2,,,,,,,,,1,,,57,0
111360,note_off,0,0,2,,,,,,,,,1,,,61,0
111360,note_on,0,0,1,,,,,,,,,0,,,68,55
111360,note_off,480,0,1,,,,,,,,,0,,,69,0
111840,note_off,480,0,3,,,,,,,,,2,,,50,0
111840,note_off,0,0,3,,,,,,,,,2,,,47,0
111840,note_on,0,0,3,,,,,,,,,2,,,54,53
111840,note_off,0,0,2,,,,,,,,,1,,,56,0
111840,note_on,0,0,1,,,,,,,,,0,,,69,54
111840,note_on,0,0,3,,,,,,,,,2,,,49,53
111840,note_off,480,0,1,,,,,,,,,0,,,68,0
111840,note_off,480,0,2,,,,,,,,,1,,,59,0
111840,note_off,0,0,3,,,,,,,,,2,,,53,0
111840,note_on,0,0,2,,,,,,,,,1,,,61,54
111840,note_off,0,0,2,,,,,,,,,1,,,65,0
111840,note_off,0,0,2,,,,,,,,,1,,,62,0
111840,note_on,0,0,2,,,,,,,,,1,,,57,54
111840,note_on,0,0,2,,,,,,,,,1,,,66,54
112320,note_off,480,0,2,,,,,,,,,1,,,61,0
112320,note_on,0,0,3,,,,,,,,,2,,,46,52
112320,note_on,0,0,4,,,,,,,,,3,,,34,52
112320,note_off,0,0,3,,,,,,,,,2,,,54,0
112320,note_off,2400,0,4,,,,,,,,,3,,,45,0
112320,note_on,0,0,1,,,,,,,,,0,,,61,53
112320,note_off,480,0,1,,,,,,,,,0,,,69,0
112320,note_on,0,0,2,,,,,,,,,1,,,54,53
112320,note_off,0,0,2,,,,,,,,,1,,,57,0
112320,note_off,0,0,2,,,,,,,,,1,,,66,0
112320,note_off,480,0,3,,,,,,,,,2,,,49,0
112800,note_off,480,0,1,,,,,,,,,0,,,61,0
112800,note_off,480,0,4,,,,,,,,,3,,,34,0
112800,note_on,0,0,1,,,,,,,,,0,,,64,52
112800,note_off,480,0,3,,,,,,,,,2,,,46,0
112800,note_on,0,0,4,,,,,,,,,3,,,35,51
112800,note_on,0,0,2,,,,,,,,,1,,,59,52
112800,note_on,0,0,2,,,,,,,,,1,,,56,52
112800,note_on,0,0,2,,,,,,,,,1,,,52,52
112800,note_off,480,0,2,,,,,,,,,1,,,54,0
112800,note_on,0,0,3,,,,,,,,,2,,,47,51
113280,note_off,480,0,3,,,,,,,,,2,,,47,0
113280,note_off,480,0,4,,,,,,,,,3,,,35,0
113280,note_off,480,0,1,,,,,,,,,0,,,64,0
113280,note_on,0,0,4,,,,,,,,,3,,,36,51
113280,note_on,0,0,3,,,,,,,,,2,,,48,51
113280,note_on,0,0,1,,,,,,,,,0,,,63,52
113280,note_on,0,0,2,,,,,,,,,1,,,57,52
113280,note_on,0,0,2,,,,,,,,,1,,,54,52
113280,note_off,480,0,2,,,,,,,,,1,,,59,0
113280,note_off,0,0,2,,,,,,,,,1,,,52,0
113280,note_off,0,0,2,,,,,,,,,1,,,56,0
113760,note_on,0,0,2,,,,,,,,,1,,,59,51
113760,note_off,480,0,4,,,,,,,,,3,,,36,0
113760,note_on,0,0,4,,,,,,,,,3,,,35,50
113760,note_off,480,0,1,,,,,,,,,0,,,63,0
113760,note_on,0,0,1,,,,,,,,,0,,,64,51
113760,note_on,0,0,3,,,,,,,,,2,,,47,50
113760,note_off,480,0,3,,,,,,,,,2,,,48,0
113760,note_off,480,0,2,,,,,,,,,1,,,57,0
113760,note_off,0,0,2,,,,,,,,,1,,,54,0
113760,note_on,0,0,2,,,,,,,,,1,,,56,51
114240,note_off,480,0,4,,,,,,,,,3,,,35,0
114240,note_on,0,0,3,,,,,,,,,2,,,45,49
114240,note_off,480,0,3,,,,,,,,,2,,,47,0
114240,note_on,0,0,4,,,,,,,,,3,,,33,49
114240,note_off,480,0,2,,,,,,,,,1,,,59,0
114240,note_on,0,0,2,,,,,,,,,1,,,63,50
114240,note_on,0,0,1,,,,,,,,,0,,,66,50
114240,note_on,0,0,2,,,,,,,,,1,,,54,50
114240,note_on,0,0,2,,,,,,,,,1,,,60,50
114240,note_off,480,0,1,,,,,,,,,0,,,64,0
114240,note_off,0,0,2,,,,,,,,,1,,,56,0
114720,note_off,0,0,2,,,,,,,,,1,,,54,0
114720,note_on,0,0,3,,,,,,,,,2,,,44,48
114720,note_off,480,0,3,,,,,,,,,2,,,45,0
114720,note_on,0,0,2,,,,,,,,,1,,,64,49
114720,note_on,0,0,1,,,,,,,,,0,,,68,49
114720,note_on,0,0,4,,,,,,,,,3,,,32,48
114720,note_off,480,0,4,,,,,,,,,3,,,33,0
114720,note_off,480,0,2,,,,,,,,,1,,,60,0
114720,note_on,0,0,2,,,,,,,,,1,,,59,49
114720,note_off,480,0,1,,,,,,,,,0,,,66,0
114720,note_off,0,0,2,,,,,,,,,1,,,63,0
115070,set_tempo,4900,1,0,,,,,,454545,,,,,,,
115200,note_off,480,0,4,,,,,,,,,3,,,32,0
115200,note_on,0,0,4,,,,,,,,,3,,,30,48
115200,note_on,0,0,2,,,,,,,,,1,,,58,53
115200,note_on,0,0,3,,,,,,,,,2,,,42,48
115200,note_off,480,0,3,,,,,,,,,2,,,44,0
115200,note_on,0,0,2,,,,,,,,,1,,,64,53
115200,note_on,0,0,1,,,,,,,,,0,,,73,53
115200,note_off,480,0,1,,,,,,,,,0,,,68,0
115200,note_off,480,0,2,,,,,,,,,1,,,64,0
115200,note_off,0,0,2,,,,,,,,,1,,,59,0
115560,note_off,360,0,3,,,,,,,,,2,,,42,0
115560,note_on,0,0,3,,,,,,,,,2,,,44,47
115560,set_tempo,490,1,0,,,,,,461538,,,,,,,
115680,note_off,480,0,4,,,,,,,,,3,,,30,0
115680,note_on,0,0,4,,,,,,,,,3,,,35,47
115680,note_off,120,0,3,,,,,,,,,2,,,44,0
115680,note_off,480,0,2,,,,,,,,,1,,,64,0
115680,note_off,0,0,2,,,,,,,,,1,,,58,0
115680,note_on,0,0,3,,,,,,,,,2,,,45,47
115680,note_on,0,0,2,,,,,,,,,1,,,66,52
115680,note_on,0,0,2,,,,,,,,,1,,,63,52
115800,set_tempo,240,1,0,,,,,,526315,,,,,,,
116160,set_tempo,360,1,0,,,,,,571428,,,,,,,
116160,note_off,960,0,1,,,,,,,,,0,,,73,0
116160,note_on,0,0,1,,,,,,,,,0,,,71,50
116160,note_on,0,0,3,,,,,,,,,2,,,47,46
116160,note_off,480,0,3,,,,,,,,,2,,,45,0
116520,set_tempo,360,1,0,,,,,,845070,,,,,,,
116640,note_off,960,0,4,,,,,,,,,3,,,35,0
116640,set_tempo,120,1,0,,,,,,419580,,,,,,,
116640,note_off,480,0,1,,,,,,,,,0,,,71,0
116640,note_on,0,0,1,,,,,,,,,0,,,68,48
116640,note_off,480,0,3,,,,,,,,,2,,,47,0
116640,note_off,0,0,2,,,,,,,,,1,,,63,0
116640,note_off,960,0,2,,,,,,,,,1,,,66,0
116760,note_on,120,0,2,,,,,,,,,1,,,59,48
116880,note_on,240,0,4,,,,,,,,,3,,,40,47
117000,note_on,360,0,3,,,,,,,,,2,,,52,48
117120,note_off,360,0,2,,,,,,,,,1,,,59,0
117120,note_off,480,0,1,,,,,,,,,0,,,68,0
117120,note_on,0,0,1,,,,,,,,,0,,,57,50
117120,note_off,120,0,3,,,,,,,,,2,,,52,0
117240,note_on,120,0,2,,,,,,,,,1,,,69,50
117360,note_on,480,0,4,,,,,,,,,3,,,48,49
117480,note_on,360,0,3,,,,,,,,,2,,,40,49
117588,note_off,228,0,4,,,,,,,,,3,,,48,0
117600,note_off,360,0,2,,,,,,,,,1,,,69,0
117600,note_on,0,0,1,,,,,,,,,0,,,66,52
117600,note_off,480,0,1,,,,,,,,,0,,,57,0
117600,note_off,120,0,3,,,,,,,,,2,,,40,0
117600,note_off,12,0,4,,,,,,,,,3,,,40,0
117720,note_on,120,0,2,,,,,,,,,1,,,60,52
117720,note_on,0,0,2,,,,,,,,,1,,,57,52
117840,note_on,240,0,4,,,,,,,,,3,,,40,50
117840,note_on,240,0,3,,,,,,,,,2,,,51,51
118068,note_off,228,0,3,,,,,,,,,2,,,51,0
118080,note_off,480,0,1,,,,,,,,,0,,,66,0
118080,note_on,0,0,2,,,,,,,,,1,,,56,54
118080,note_off,0,0,2,,,,,,,,,1,,,60,0
118080,note_off,360,0,2,,,,,,,,,1,,,57,0
118080,note_on,0,0,1,,,,,,,,,0,,,59,54
118200,note_on,120,0,2,,,,,,,,,1,,,64,54
118320,note_on,480,0,4,,,,,,,,,3,,,52,52
118440,note_on,372,0,3,,,,,,,,,2,,,40,53
118548,note_off,228,0,4,,,,,,,,,3,,,52,0
118551,note_off,471,0,1,,,,,,,,,0,,,59,0
118560,note_on,9,0,1,,,,,,,,,0,,,63,55
118560,note_off,0,0,2,,,,,,,,,1,,,56,0
118560,note_off,120,0,3,,,,,,,,,2,,,40,0
118560,note_off,12,0,4,,,,,,,,,3,,,40,0
118560,note_off,360,0,2,,,,,,,,,1,,,64,0
118680,note_on,120,0,2,,,,,,,,,1,,,57,56
118680,note_on,0,0,2,,,,,,,,,1,,,54,56
118800,note_on,240,0,4,,,,,,,,,3,,,40,54
118920,note_on,360,0,3,,,,,,,,,2,,,48,55
119040,note_off,120,0,3,,,,,,,,,2,,,48,0
119040,note_off,0,0,2,,,,,,,,,1,,,57,0
119040,note_off,360,0,2,,,,,,,,,1,,,54,0
119040,note_on,0,0,2,,,,,,,,,1,,,52,57
119040,note_off,480,0,1,,,,,,,,,0,,,63,0
119040,note_on,0,0,1,,,,,,,,,0,,,56,57
119160,note_on,120,0,2,,,,,,,,,1,,,64,58
119280,note_on,480,0,4,,,,,,,,,3,,,47,56
119400,note_on,360,0,3,,,,,,,,,2,,,40,59
119508,note_off,228,0,4,,,,,,,,,3,,,47,0
119511,note_off,471,0,1,,,,,,,,,0,,,56,0
119520,note_off,120,0,3,,,,,,,,,2,,,40,0
119520,note_on,0,0,2,,,,,,,,,1,,,57,59
119520,note_on,9,0,1,,,,,,,,,0,,,60,59
119520,note_off,0,0,2,,,,,,,,,1,,,52,0
119520,note_off,360,0,2,,,,,,,,,1,,,64,0
119520,note_off,12,0,4,,,,,,,,,3,,,40,0
119640,note_on,120,0,2,,,,,,,,,1,,,52,59
119760,note_on,240,0,4,,,,,,,,,3,,,40,60
119880,note_on,360,0,3,,,,,,,,,2,,,48,59
119964,note_off,324,0,2,,,,,,,,,1,,,57,0
120000,note_on,0,0,1,,,,,,,,,0,,,59,57
120000,note_off,480,0,1,,,,,,,,,0,,,60,0
120000,note_on,0,0,2,,,,,,,,,1,,,57,57
120000,note_off,120,0,3,,,,,,,,,2,,,48,0
120000,note_off,36,0,2,,,,,,,,,1,,,52,0
120120,note_on,120,0,2,,,,,,,,,1,,,54,56
120240,note_on,480,0,4,,,,,,,,,3,,,51,57
120360,note_on,360,0,3,,,,,,,,,2,,,40,56
120471,note_off,351,0,2,,,,,,,,,1,,,57,0
120477,note_off,237,0,4,,,,,,,,,3,,,51,0
120480,note_off,9,0,2,,,,,,,,,1,,,54,0
120480,note_off,120,0,3,,,,,,,,,2,,,40,0
120480,note_off,480,0,1,,,,,,,,,0,,,59,0
120480,note_on,0,0,1,,,,,,,,,0,,,61,55
120480,note_off,3,0,4,,,,,,,,,3,,,40,0
120600,note_on,120,0,2,,,,,,,,,1,,,59,54
120720,note_on,240,0,4,,,,,,,,,3,,,40,54
120840,note_on,360,0,3,,,,,,,,,2,,,52,53
120960,note_off,120,0,3,,,,,,,,,2,,,52,0
120960,note_off,480,0,1,,,,,,,,,0,,,61,0
120960,note_off,360,0,2,,,,,,,,,1,,,59,0
120960,note_on,0,0,1,,,,,,,,,0,,,59,53
121200,note_on,480,0,4,,,,,,,,,3,,,52,51
121320,note_on,360,0,3,,,,,,,,,2,,,40,51
121428,note_off,228,0,4,,,,,,,,,3,,,52,0
121440,note_on,480,0,2,,,,,,,,,1,,,57,51
121440,note_on,0,0,1,,,,,,,,,0,,,60,51
121440,note_off,480,0,1,,,,,,,,,0,,,59,0
121440,note_off,12,0,4,,,,,,,,,3,,,40,0
121440,note_off,120,0,3,,,,,,,,,2,,,40,0
121560,note_on,120,0,2,,,,,,,,,1,,,54,50
121680,note_on,240,0,4,,,,,,,,,3,,,40,49
121800,note_on,360,0,3,,,,,,,,,2,,,51,48
121911,note_off,351,0,2,,,,,,,,,1,,,57,0
121920,note_off,480,0,1,,,,,,,,,0,,,60,0
121920,note_on,0,0,1,,,,,,,,,0,,,59,48
121920,note_off,9,0,2,,,,,,,,,1,,,54,0
121920,note_off,120,0,3,,,,,,,,,2,,,51,0
121920,note_on,0,0,2,,,,,,,,,1,,,57,48
122040,note_on,120,0,2,,,,,,,,,1,,,54,48
122160,note_on,480,0,4,,,,,,,,,3,,,51,46
122280,note_on,360,0,3,,,,,,,,,2,,,40,45
122382,note_off,342,0,2,,,,,,,,,1,,,57,0
122394,note_off,12,0,2,,,,,,,,,1,,,54,0
122397,note_off,237,0,4,,,,,,,,,3,,,51,0
122400,note_off,120,0,3,,,,,,,,,2,,,40,0
122400,note_off,480,0,1,,,,,,,,,0,,,59,0
122400,note_off,3,0,4,,,,,,,,,3,,,40,0
122400,note_on,0,0,1,,,,,,,,,0,,,61,46
122520,note_on,126,0,2,,,,,,,,,1,,,59,46
122640,note_on,240,0,4,,,,,,,,,3,,,40,45
122760,note_on,360,0,3,,,,,,,,,2,,,52,46
122880,note_on,0,0,1,,,,,,,,,0,,,59,47
122880,note_off,480,0,1,,,,,,,,,0,,,61,0
122880,note_off,360,0,2,,,,,,,,,1,,,59,0
122880,note_off,120,0,3,,,,,,,,,2,,,52,0
123120,note_on,480,0,4,,,,,,,,,3,,,51,48
123240,note_on,360,0,3,,,,,,,,,2,,,52,49
123357,note_off,237,0,4,,,,,,,,,3,,,51,0
123360,note_off,480,0,1,,,,,,,,,0,,,59,0
123360,note_on,0,0,1,,,,,,,,,0,,,69,47
123360,note_off,120,0,3,,,,,,,,,2,,,52,0
123360,note_off,3,0,4,,,,,,,,,3,,,40,0
123480,note_on,600,0,2,,,,,,,,,1,,,59,48
123600,note_on,240,0,4,,,,,,,,,3,,,51,51
123720,note_on,360,0,3,,,,,,,,,2,,,52,51
123840,note_off,480,0,1,,,,,,,,,0,,,69,0
123840,note_off,120,0,3,,,,,,,,,2,,,52,0
123840,note_off,360,0,2,,,,,,,,,1,,,59,0
123840,note_on,0,0,1,,,,,,,,,0,,,68,51
123855,note_off,255,0,4,,,,,,,,,3,,,51,0
123960,note_on,120,0,2,,,,,,,,,1,,,59,52
124080,note_on,225,0,4,,,,,,,,,3,,,63,53
124200,note_on,360,0,3,,,,,,,,,2,,,64,54
124317,note_off,237,0,4,,,,,,,,,3,,,63,0
124320,note_off,360,0,2,,,,,,,,,1,,,59,0
124320,note_off,480,0,1,,,,,,,,,0,,,68,0
124320,note_on,0,0,1,,,,,,,,,0,,,73,55
124320,note_off,120,0,3,,,,,,,,,2,,,64,0
124440,note_on,120,0,2,,,,,,,,,1,,,68,56
124560,note_on,243,0,4,,,,,,,,,3,,,52,56
124680,note_on,360,0,3,,,,,,,,,2,,,64,57
124800,note_on,0,0,1,,,,,,,,,0,,,71,59
124800,note_off,120,0,3,,,,,,,,,2,,,64,0
124800,note_off,360,0,2,,,,,,,,,1,,,68,0
124800,note_off,480,0,1,,,,,,,,,0,,,73,0
124806,note_off,246,0,4,,,,,,,,,3,,,52,0
124920,note_on,120,0,2,,,,,,,,,1,,,68,60
125040,note_on,234,0,4,,,,,,,,,3,,,63,59
125160,note_on,360,0,3,,,,,,,,,2,,,64,59
125280,note_off,480,0,1,,,,,,,,,0,,,71,0
125280,note_on,0,0,1,,,,,,,,,0,,,81,63
125280,note_off,120,0,3,,,,,,,,,2,,,64,0
125280,note_off,360,0,2,,,,,,,,,1,,,68,0
125286,note_off,246,0,4,,,,,,,,,3,,,63,0
125400,note_on,120,0,2,,,,,,,,,1,,,71,64
125520,note_on,234,0,4,,,,,,,,,3,,,63,62
125640,note_on,360,0,3,,,,,,,,,2,,,64,62
125760,note_off,360,0,2,,,,,,,,,1,,,71,0
125760,note_on,0,0,1,,,,,,,,,0,,,80,67
125760,note_off,480,0,1,,,,,,,,,0,,,81,0
125760,note_off,120,0,3,,,,,,,,,2,,,64,0
125766,note_off,246,0,4,,,,,,,,,3,,,63,0
125880,note_on,120,0,2,,,,,,,,,1,,,71,68
126000,note_on,234,0,4,,,,,,,,,3,,,75,64
126120,note_on,360,0,3,,,,,,,,,2,,,76,65
126240,note_off,360,0,2,,,,,,,,,1,,,71,0
126240,note_off,480,0,1,,,,,,,,,0,,,80,0
126240,note_on,0,0,1,,,,,,,,,0,,,85,71
126240,note_off,120,0,3,,,,,,,,,2,,,76,0
126246,note_off,246,0,4,,,,,,,,,3,,,75,0
126360,note_on,120,0,2,,,,,,,,,1,,,80,72
126480,note_on,234,0,4,,,,,,,,,3,,,64,67
126600,note_on,360,0,3,,,,,,,,,2,,,76,68
126720,note_on,0,0,1,,,,,,,,,0,,,83,75
126720,note_off,480,0,1,,,,,,,,,0,,,85,0
126720,note_off,360,0,2,,,,,,,,,1,,,80,0
126720,note_off,120,0,3,,,,,,,,,2,,,76,0
126726,note_off,246,0,4,,,,,,,,,3,,,64,0
126840,note_on,120,0,2,,,,,,,,,1,,,80,76
126960,note_on,234,0,4,,,,,,,,,3,,,75,70
127080,note_on,360,0,3,,,,,,,,,2,,,76,70
127200,note_off,120,0,3,,,,,,,,,2,,,76,0
127200,note_off,360,0,2,,,,,,,,,1,,,80,0
127200,note_off,480,0,1,,,,,,,,,0,,,83,0
127200,note_on,0,0,1,,,,,,,,,0,,,85,88
127206,note_off,246,0,4,,,,,,,,,3,,,75,0
127320,note_on,120,0,2,,,,,,,,,1,,,80,78
127440,note_on,234,0,4,,,,,,,,,3,,,87,68
127560,note_on,360,0,3,,,,,,,,,2,,,88,66
127668,note_off,228,0,4,,,,,,,,,3,,,87,0
127680,note_off,480,0,1,,,,,,,,,0,,,85,0
127680,note_off,360,0,2,,,,,,,,,1,,,80,0
127680,note_on,0,0,1,,,,,,,,,0,,,83,71
127680,note_off,120,0,3,,,,,,,,,2,,,88,0
127800,note_on,120,0,2,,,,,,,,,1,,,80,68
127920,set_tempo,11280,1,0,,,,,,425531,,,,,,,
127920,note_on,252,0,4,,,,,,,,,3,,,99,60
128030,set_tempo,110,1,0,,,,,,652173,,,,,,,
128040,note_on,360,0,3,,,,,,,,,2,,,100,58
128148,note_off,228,0,4,,,,,,,,,3,,,99,0
128160,note_off,480,0,1,,,,,,,,,0,,,83,0
128160,note_off,120,0,3,,,,,,,,,2,,,100,0
128160,set_tempo,130,1,0,,,,,,1111111,,,,,,,
128160,note_off,360,0,2,,,,,,,,,1,,,80,0
128640,note_on,492,0,4,,,,,,,,,3,,,40,47
128640,note_on,480,0,1,,,,,,,,,0,,,59,51
128640,note_on,480,0,2,,,,,,,,,1,,,52,51
128640,note_on,0,0,2,,,,,,,,,1,,,56,51
128640,note_on,480,0,3,,,,,,,,,2,,,47,47
128640,note_on,0,0,3,,,,,,,,,2,,,44,47
128640,set_tempo,480,1,0,,,,,,2222222,,,,,,,
129600,note_off,960,0,1,,,,,,,,,0,,,59,0
129600,note_off,960,0,3,,,,,,,,,2,,,44,0
129600,note_off,960,0,4,,,,,,,,,3,,,40,0
129600,note_off,0,0,3,,,,,,,,,2,,,47,0
129600,set_tempo,960,1,0,,,,,,500000,,,,,,,
129600,note_off,0,0,2,,,,,,,,,1,,,52,0
129600,note_off,960,0,2,,,,,,,,,1,,,56,0
131040,program_change,0,0,1,,,,,,,,,0,0,,,
131040,control_change,0,0,4,,,,,,,32,0,3,,,,
131040,pitchwheel,0,0,4,,,,,,,,,3,,0,,
131040,control_change,1440,0,4,,,,,,,7,122,3,,,,
131040,control_change,0,0,4,,,,,,,0,0,3,,,,
131040,control_change,0,0,4,,,,,,,1,0,3,,,,
131040,control_change,0,0,4,,,,,,,64,0,3,,,,
131040,control_change,0,0,4,,,,,,,93,28,3,,,,
131040,control_change,0,0,4,,,,,,,91,91,3,,,,
131040,time_signature,1440,1,0,6,8,24,8,,,,,,,,,
131040,marker,0,1,0,,,,,,,,,,,,,
131040,control_change,0,0,4,,,,,,,10,55,3,,,,
131040,pitchwheel,0,0,1,,,,,,,,,0,,0,,
131040,program_change,0,0,4,,,,,,,,,3,0,,,
131040,control_change,0,0,1,,,,,,,32,0,0,,,,
131040,control_change,0,0,1,,,,,,,7,127,0,,,,
131040,control_change,0,0,1,,,,,,,91,91,0,,,,
131040,control_change,1440,0,1,,,,,,,10,73,0,,,,
131040,program_change,0,0,2,,,,,,,,,1,0,,,
131040,control_change,0,0,2,,,,,,,32,0,1,,,,
131040,control_change,0,0,2,,,,,,,0,0,1,,,,
131040,control_change,0,0,2,,,,,,,10,64,1,,,,
131040,control_change,0,0,2,,,,,,,91,91,1,,,,
131040,control_change,0,0,2,,,,,,,93,28,1,,,,
131040,control_change,0,0,2,,,,,,,64,0,1,,,,
131040,control_change,0,0,2,,,,,,,1,0,1,,,,
131040,control_change,0,0,1,,,,,,,93,28,0,,,,
131040,pitchwheel,0,0,2,,,,,,,,,1,,0,,
131040,program_change,0,0,3,,,,,,,,,2,0,,,
131040,control_change,0,0,3,,,,,,,32,0,2,,,,
131040,control_change,0,0,1,,,,,,,0,0,0,,,,
131040,control_change,0,0,3,,,,,,,10,64,2,,,,
131040,control_change,0,0,3,,,,,,,91,91,2,,,,
131040,control_change,0,0,3,,,,,,,93,28,2,,,,
131040,control_change,0,0,3,,,,,,,64,0,2,,,,
131040,control_change,0,0,3,,,,,,,1,0,2,,,,
131040,pitchwheel,0,0,3,,,,,,,,,2,,0,,
131040,control_change,1440,0,3,,,,,,,7,112,2,,,,
131040,control_change,1440,0,2,,,,,,,7,117,1,,,,
131040,control_change,0,0,1,,,,,,,64,0,0,,,,
131040,control_change,0,0,3,,,,,,,0,0,2,,,,
131040,control_change,0,0,1,,,,,,,1,0,0,,,,
132480,note_on,1440,0,4,,,,,,,,,3,,,52,97
132480,note_on,1440,0,1,,,,,,,,,0,,,67,97
132480,set_tempo,1440,1,0,,,,,,258620,,,,,,,
132480,note_on,0,0,4,,,,,,,,,3,,,40,97
133440,note_off,960,0,1,,,,,,,,,0,,,67,0
133440,note_on,0,0,1,,,,,,,,,0,,,64,97
133680,note_off,240,0,1,,,,,,,,,0,,,64,0
133680,note_on,0,0,1,,,,,,,,,0,,,71,96
133860,set_tempo,1380,1,0,,,,,,260869,,,,,,,
133920,note_on,0,0,4,,,,,,,,,3,,,38,95
133920,note_on,0,0,4,,,,,,,,,3,,,50,95
133920,note_off,0,0,4,,,,,,,,,3,,,52,0
133920,note_off,1440,0,4,,,,,,,,,3,,,40,0
133920,set_tempo,60,1,0,,,,,,258620,,,,,,,
133920,note_off,240,0,1,,,,,,,,,0,,,71,0
133920,note_on,0,0,1,,,,,,,,,0,,,71,96
134880,note_on,0,0,1,,,,,,,,,0,,,67,95
134880,note_off,960,0,1,,,,,,,,,0,,,71,0
135120,note_on,0,0,1,,,,,,,,,0,,,76,95
135120,note_off,240,0,1,,,,,,,,,0,,,67,0
135240,set_tempo,1320,1,0,,,,,,260869,,,,,,,
135360,note_off,1440,0,4,,,,,,,,,3,,,38,0
135360,note_off,0,0,4,,,,,,,,,3,,,50,0
135360,note_on,0,0,4,,,,,,,,,3,,,36,94
135360,note_on,0,0,4,,,,,,,,,3,,,48,94
135360,note_on,0,0,1,,,,,,,,,0,,,76,95
135360,set_tempo,120,1,0,,,,,,258620,,,,,,,
135360,note_off,240,0,1,,,,,,,,,0,,,76,0
135840,note_off,480,0,1,,,,,,,,,0,,,76,0
135840,note_on,0,0,1,,,,,,,,,0,,,78,94
136080,note_on,5040,0,2,,,,,,,,,1,,,72,94
136080,note_on,0,0,1,,,,,,,,,0,,,79,94
136080,note_off,720,0,4,,,,,,,,,3,,,48,0
136080,note_off,0,0,4,,,,,,,,,3,,,36,0
136080,note_off,240,0,1,,,,,,,,,0,,,78,0
136080,note_on,0,0,4,,,,,,,,,3,,,45,93
136080,note_on,0,0,4,,,,,,,,,3,,,33,93
136560,note_off,480,0,1,,,,,,,,,0,,,79,0
136560,note_on,0,0,1,,,,,,,,,0,,,78,94
136575,set_tempo,1215,1,0,,,,,,260869,,,,,,,
136800,note_off,720,0,4,,,,,,,,,3,,,45,0
136800,note_off,0,0,4,,,,,,,,,3,,,33,0
136800,note_on,0,0,4,,,,,,,,,3,,,35,93
136800,note_on,0,0,4,,,,,,,,,3,,,47,93
136800,note_off,720,0,2,,,,,,,,,1,,,72,0
136800,note_on,0,0,2,,,,,,,,,1,,,66,93
136800,note_off,240,0,1,,,,,,,,,0,,,78,0
136800,note_on,0,0,1,,,,,,,,,0,,,76,93
137520,set_tempo,945,1,0,,,,,,263157,,,,,,,
137520,note_on,0,0,1,,,,,,,,,0,,,75,93
137520,note_off,720,0,1,,,,,,,,,0,,,76,0
138000,note_off,480,0,1,,,,,,,,,0,,,75,0
138240,note_on,0,0,4,,,,,,,,,3,,,45,101
138240,note_on,240,0,1,,,,,,,,,0,,,72,99
138240,note_on,0,0,4,,,,,,,,,3,,,33,101
138240,note_off,0,0,4,,,,,,,,,3,,,35,0
138240,note_off,1440,0,4,,,,,,,,,3,,,47,0
138240,set_tempo,720,1,0,,,,,,258620,,,,,,,
138240,note_off,1440,0,2,,,,,,,,,1,,,66,0
139200,note_on,0,0,1,,,,,,,,,0,,,69,97
139200,note_off,960,0,1,,,,,,,,,0,,,72,0
139440,note_on,0,0,1,,,,,,,,,0,,,76,97
139440,note_off,240,0,1,,,,,,,,,0,,,69,0
139620,set_tempo,1380,1,0,,,,,,260869,,,,,,,
139680,set_tempo,60,1,0,,,,,,258620,,,,,,,
139680,note_on,0,0,1,,,,,,,,,0,,,76,96
139680,note_off,1440,0,4,,,,,,,,,3,,,45,0
139680,note_off,0,0,4,,,,,,,,,3,,,33,0
139680,note_on,0,0,4,,,,,,,,,3,,,31,97
139680,note_on,0,0,4,,,,,,,,,3,,,43,97
139680,note_off,240,0,1,,,,,,,,,0,,,76,0
140640,note_on,0,0,1,,,,,,,,,0,,,71,95
140640,note_off,960,0,1,,,,,,,,,0,,,76,0
140880,note_on,0,0,1,,,,,,,,,0,,,83,97
140880,note_off,240,0,1,,,,,,,,,0,,,71,0
141060,set_tempo,1380,1,0,,,,,,260869,,,,,,,
141120,set_tempo,60,1,0,,,,,,258620,,,,,,,
141120,note_on,2880,0,2,,,,,,,,,1,,,76,94
141120,note_off,1440,0,4,,,,,,,,,3,,,43,0
141120,note_on,0,0,4,,,,,,,,,3,,,30,93
141120,note_off,0,0,4,,,,,,,,,3,,,31,0
141120,note_off,240,0,1,,,,,,,,,0,,,83,0
141120,note_on,0,0,1,,,,,,,,,0,,,83,96
141120,note_on,0,0,4,,,,,,,,,3,,,42,93
141360,note_on,0,0,1,,,,,,,,,0,,,84,95
141360,note_off,240,0,1,,,,,,,,,0,,,83,0
141600,note_on,0,0,1,,,,,,,,,0,,,81,93
141600,note_off,240,0,1,,,,,,,,,0,,,84,0
141840,note_on,0,0,2,,,,,,,,,1,,,75,92
141840,note_on,0,0,1,,,,,,,,,0,,,79,92
141840,note_off,720,0,4,,,,,,,,,3,,,42,0
141840,note_off,0,0,4,,,,,,,,,3,,,30,0
141840,note_off,240,0,1,,,,,,,,,0,,,81,0
141840,note_on,0,0,4,,,,,,,,,3,,,47,91
141840,note_on,0,0,4,,,,,,,,,3,,,35,91
141840,note_off,720,0,2,,,,,,,,,1,,,76,0
142080,note_off,240,0,1,,,,,,,,,0,,,79,0
142080,note_on,0,0,1,,,,,,,,,0,,,78,91
142320,note_off,240,0,1,,,,,,,,,0,,,78,0
142320,note_on,0,0,1,,,,,,,,,0,,,83,90
142470,set_tempo,1350,1,0,,,,,,260869,,,,,,,
142560,note_off,720,0,2,,,,,,,,,1,,,75,0
142560,note_off,0,0,4,,,,,,,,,3,,,47,0
142560,note_on,0,0,4,,,,,,,,,3,,,40,89
142560,note_off,240,0,1,,,,,,,,,0,,,83,0
142560,note_on,0,0,1,,,,,,,,,0,,,76,88
142560,note_off,720,0,4,,,,,,,,,3,,,35,0
142560,note_on,0,0,4,,,,,,,,,3,,,52,89
143040,note_off,480,0,4,,,,,,,,,3,,,52,0
143040,note_off,0,0,4,,,,,,,,,3,,,40,0
143040,note_off,480,0,1,,,,,,,,,0,,,76,0
143040,set_tempo,570,1,0,,,,,,263157,,,,,,,
144000,set_tempo,960,1,0,,,,,,258620,,,,,,,
144000,note_on,960,0,4,,,,,,,,,3,,,47,50
144000,note_on,960,0,1,,,,,,,,,0,,,69,53
144240,note_on,13200,0,3,,,,,,,,,2,,,54,50
144480,note_on,0,0,3,,,,,,,,,2,,,55,51
144480,note_off,240,0,3,,,,,,,,,2,,,54,0
144720,note_on,0,0,3,,,,,,,,,2,,,57,51
144720,note_off,240,0,3,,,,,,,,,2,,,55,0
144960,note_off,960,0,1,,,,,,,,,0,,,69,0
144960,note_on,0,0,1,,,,,,,,,0,,,67,53
145200,note_off,240,0,1,,,,,,,,,0,,,67,0
145200,note_on,0,0,1,,,,,,,,,0,,,66,53
145440,note_off,240,0,1,,,,,,,,,0,,,66,0
145440,note_on,0,0,1,,,,,,,,,0,,,71,57
145440,note_off,720,0,3,,,,,,,,,2,,,57,0
145440,note_on,0,0,4,,,,,,,,,3,,,47,52
145440,note_off,1440,0,4,,,,,,,,,3,,,47,0
145680,note_on,240,0,3,,,,,,,,,2,,,55,53
145920,note_off,240,0,3,,,,,,,,,2,,,55,0
145920,note_on,0,0,3,,,,,,,,,2,,,57,53
146160,note_on,0,0,3,,,,,,,,,2,,,59,54
146160,note_off,240,0,3,,,,,,,,,2,,,57,0
146400,note_off,960,0,1,,,,,,,,,0,,,71,0
146400,note_on,0,0,1,,,,,,,,,0,,,69,57
146640,note_off,240,0,1,,,,,,,,,0,,,69,0
146640,note_on,0,0,1,,,,,,,,,0,,,67,57
146880,note_on,0,0,4,,,,,,,,,3,,,47,55
146880,note_on,4320,0,2,,,,,,,,,1,,,66,58
146880,note_off,240,0,1,,,,,,,,,0,,,67,0
146880,note_on,0,0,1,,,,,,,,,0,,,72,58
146880,note_on,0,0,3,,,,,,,,,2,,,57,55
146880,note_off,720,0,3,,,,,,,,,2,,,59,0
146880,note_off,1440,0,4,,,,,,,,,3,,,47,0
147240,set_tempo,3240,1,0,,,,,,260869,,,,,,,
147360,note_off,480,0,1,,,,,,,,,0,,,72,0
147360,note_on,0,0,1,,,,,,,,,0,,,78,60
147360,set_tempo,120,1,0,,,,,,258620,,,,,,,
147600,note_on,0,0,2,,,,,,,,,1,,,67,60
147600,note_off,720,0,2,,,,,,,,,1,,,66,0
147600,note_on,0,0,3,,,,,,,,,2,,,58,56
147600,note_off,720,0,3,,,,,,,,,2,,,57,0
148080,note_on,0,0,1,,,,,,,,,0,,,76,61
148080,note_off,720,0,1,,,,,,,,,0,,,78,0
148320,note_on,0,0,3,,,,,,,,,2,,,59,60
148320,note_off,720,0,3,,,,,,,,,2,,,58,0
148320,note_off,720,0,2,,,,,,,,,1,,,67,0
148320,note_off,240,0,1,,,,,,,,,0,,,76,0
148320,note_on,0,0,1,,,,,,,,,0,,,75,63
148320,note_on,0,0,2,,,,,,,,,1,,,66,63
148800,note_off,480,0,1,,,,,,,,,0,,,75,0
148800,note_on,0,0,1,,,,,,,,,0,,,78,58
149040,note_off,720,0,2,,,,,,,,,1,,,66,0
149040,note_off,720,0,3,,,,,,,,,2,,,59,0
149040,note_on,0,0,2,,,,,,,,,1,,,67,56
149040,note_on,0,0,3,,,,,,,,,2,,,52,55
149040,note_on,0,0,1,,,,,,,,,0,,,79,56
149040,note_off,240,0,1,,,,,,,,,0,,,78,0
149520,note_on,480,0,1,,,,,,,,,0,,,76,51
149560,note_off,40,0,1,,,,,,,,,0,,,79,0
149640,set_tempo,2280,1,0,,,,,,260869,,,,,,,
149760,note_on,0,0,1,,,,,,,,,0,,,69,51
149760,note_off,200,0,1,,,,,,,,,0,,,76,0
149760,note_off,720,0,2,,,,,,,,,1,,,67,0
149760,note_on,0,0,4,,,,,,,,,3,,,47,46
149760,note_off,2880,0,4,,,,,,,,,3,,,47,0
149760,note_off,720,0,3,,,,,,,,,2,,,52,0
149760,set_tempo,120,1,0,,,,,,258620,,,,,,,
150000,note_on,240,0,3,,,,,,,,,2,,,54,46
150240,note_off,240,0,3,,,,,,,,,2,,,54,0
150240,note_on,0,0,3,,,,,,,,,2,,,55,47
150480,note_off,240,0,3,,,,,,,,,2,,,55,0
150480,note_on,0,0,3,,,,,,,,,2,,,57,48
150720,note_on,0,0,1,,,,,,,,,0,,,67,50
150720,note_off,960,0,1,,,,,,,,,0,,,69,0
150960,note_on,0,0,1,,,,,,,,,0,,,66,50
150960,note_off,240,0,1,,,,,,,,,0,,,67,0
151200,note_on,0,0,4,,,,,,,,,3,,,47,50
151200,note_off,1440,0,4,,,,,,,,,3,,,47,0
151200,note_off,240,0,1,,,,,,,,,0,,,66,0
151200,note_on,0,0,1,,,,,,,,,0,,,71,54
151200,note_off,720,0,3,,,,,,,,,2,,,57,0
151440,note_on,240,0,3,,,,,,,,,2,,,55,51
151680,note_off,240,0,3,,,,,,,,,2,,,55,0
151680,note_on,0,0,3,,,,,,,,,2,,,57,52
151920,note_off,240,0,3,,,,,,,,,2,,,57,0
151920,note_on,0,0,3,,,,,,,,,2,,,59,52
152160,note_on,0,0,1,,,,,,,,,0,,,69,53
152160,note_off,960,0,1,,,,,,,,,0,,,71,0
152400,note_off,240,0,1,,,,,,,,,0,,,69,0
152400,note_on,0,0,1,,,,,,,,,0,,,67,54
152640,note_off,240,0,1,,,,,,,,,0,,,67,0
152640,note_on,0,0,1,,,,,,,,,0,,,72,54
152640,note_on,0,0,4,,,,,,,,,3,,,47,55
152640,note_off,1440,0,4,,,,,,,,,3,,,47,0
152640,note_on,0,0,3,,,,,,,,,2,,,57,55
152640,note_on,2880,0,2,,,,,,,,,1,,,66,54
152640,note_off,720,0,3,,,,,,,,,2,,,59,0
153000,set_tempo,3240,1,0,,,,,,260869,,,,,,,
153120,note_off,480,0,1,,,,,,,,,0,,,72,0
153120,set_tempo,120,1,0,,,,,,258620,,,,,,,
153120,note_on,0,0,1,,,,,,,,,0,,,78,58
153360,note_off,720,0,3,,,,,,,,,2,,,57,0
153360,note_on,0,0,3,,,,,,,,,2,,,58,57
153360,note_on,0,0,2,,,,,,,,,1,,,67,56
153360,note_off,720,0,2,,,,,,,,,1,,,66,0
153840,note_off,720,0,1,,,,,,,,,0,,,78,0
153840,note_on,0,0,1,,,,,,,,,0,,,76,57
154080,note_off,720,0,2,,,,,,,,,1,,,67,0
154080,note_on,0,0,1,,,,,,,,,0,,,75,61
154080,note_off,720,0,3,,,,,,,,,2,,,58,0
154080,note_on,0,0,3,,,,,,,,,2,,,59,61
154080,note_on,0,0,2,,,,,,,,,1,,,66,61
154080,note_off,240,0,1,,,,,,,,,0,,,76,0
154560,note_off,480,0,1,,,,,,,,,0,,,75,0
154560,note_on,0,0,1,,,,,,,,,0,,,78,56
154800,note_on,0,0,3,,,,,,,,,2,,,52,55
154800,note_off,240,0,1,,,,,,,,,0,,,78,0
154800,note_on,0,0,1,,,,,,,,,0,,,76,53
154800,note_on,0,0,2,,,,,,,,,1,,,67,53
154800,note_off,720,0,3,,,,,,,,,2,,,59,0
154800,note_off,720,0,2,,,,,,,,,1,,,66,0
154920,set_tempo,1800,1,0,,,,,,260869,,,,,,,
155040,note_off,240,0,1,,,,,,,,,0,,,76,0
155040,note_off,240,0,2,,,,,,,,,1,,,67,0
155040,note_on,0,0,1,,,,,,,,,0,,,66,51
155040,set_tempo,120,1,0,,,,,,258620,,,,,,,
155280,note_on,0,0,1,,,,,,,,,0,,,67,49
155280,note_off,240,0,1,,,,,,,,,0,,,66,0
155520,note_off,720,0,3,,,,,,,,,2,,,52,0
155520,note_off,2880,0,4,,,,,,,,,3,,,47,0
155520,note_on,0,0,4,,,,,,,,,3,,,47,49
155520,note_off,240,0,1,,,,,,,,,0,,,67,0
155520,note_on,0,0,1,,,,,,,,,0,,,69,49
155760,note_on,720,0,2,,,,,,,,,1,,,66,46
155760,note_on,240,0,3,,,,,,,,,2,,,54,46
156000,note_off,240,0,3,,,,,,,,,2,,,54,0
156000,note_on,0,0,3,,,,,,,,,2,,,55,46
156000,note_on,0,0,2,,,,,,,,,1,,,64,47
156000,note_off,240,0,2,,,,,,,,,1,,,66,0
156240,note_on,0,0,2,,,,,,,,,1,,,63,47
156240,note_on,0,0,3,,,,,,,,,2,,,57,46
156240,note_off,240,0,3,,,,,,,,,2,,,55,0
156240,note_off,240,0,2,,,,,,,,,1,,,64,0
156480,note_on,0,0,1,,,,,,,,,0,,,67,48
156480,note_off,960,0,1,,,,,,,,,0,,,69,0
156720,note_off,480,0,2,,,,,,,,,1,,,63,0
156720,note_off,240,0,1,,,,,,,,,0,,,67,0
156720,note_on,0,0,1,,,,,,,,,0,,,66,48
156960,note_off,720,0,3,,,,,,,,,2,,,57,0
156960,note_on,0,0,1,,,,,,,,,0,,,71,52
156960,note_on,0,0,4,,,,,,,,,3,,,47,47
156960,note_off,240,0,1,,,,,,,,,0,,,66,0
156960,note_off,1440,0,4,,,,,,,,,3,,,47,0
157200,note_on,240,0,3,,,,,,,,,2,,,55,48
157200,note_on,480,0,2,,,,,,,,,1,,,67,50
157440,note_on,0,0,2,,,,,,,,,1,,,66,50
157440,note_off,240,0,3,,,,,,,,,2,,,55,0
157440,note_on,0,0,3,,,,,,,,,2,,,57,48
157440,note_off,240,0,2,,,,,,,,,1,,,67,0
157680,note_off,240,0,3,,,,,,,,,2,,,57,0
157680,note_on,0,0,3,,,,,,,,,2,,,59,48
157680,note_on,0,0,2,,,,,,,,,1,,,64,51
157680,note_off,240,0,2,,,,,,,,,1,,,66,0
157920,note_on,0,0,1,,,,,,,,,0,,,69,51
157920,note_off,960,0,1,,,,,,,,,0,,,71,0
158160,note_on,0,0,1,,,,,,,,,0,,,67,52
158160,note_off,240,0,1,,,,,,,,,0,,,69,0
158160,note_off,480,0,2,,,,,,,,,1,,,64,0
158400,note_off,720,0,3,,,,,,,,,2,,,59,0
158400,note_on,0,0,3,,,,,,,,,2,,,57,49
158400,note_off,1440,0,4,,,,,,,,,3,,,47,0
158400,note_on,0,0,1,,,,,,,,,0,,,72,55
158400,note_off,240,0,1,,,,,,,,,0,,,67,0
158400,note_on,0,0,4,,,,,,,,,3,,,47,49
158640,note_on,480,0,2,,,,,,,,,1,,,66,53
158775,set_tempo,3735,1,0,,,,,,260869,,,,,,,
158880,set_tempo,105,1,0,,,,,,258620,,,,,,,
158880,note_on,0,0,1,,,,,,,,,0,,,78,56
158880,note_off,480,0,1,,,,,,,,,0,,,72,0
159120,note_on,0,0,3,,,,,,,,,2,,,58,50
159120,note_off,720,0,3,,,,,,,,,2,,,57,0
159360,note_on,0,0,2,,,,,,,,,1,,,67,54
159360,note_off,720,0,2,,,,,,,,,1,,,66,0
159600,note_on,0,0,1,,,,,,,,,0,,,76,55
159600,note_off,720,0,1,,,,,,,,,0,,,78,0
159840,note_off,240,0,1,,,,,,,,,0,,,76,0
159840,note_on,0,0,1,,,,,,,,,0,,,75,59
159840,note_off,720,0,3,,,,,,,,,2,,,58,0
159840,note_on,0,0,3,,,,,,,,,2,,,59,55
160080,note_off,720,0,2,,,,,,,,,1,,,67,0
160080,note_on,0,0,2,,,,,,,,,1,,,66,57
160320,note_on,0,0,1,,,,,,,,,0,,,78,55
160320,note_off,480,0,1,,,,,,,,,0,,,75,0
160560,note_on,480,0,2,,,,,,,,,1,,,67,53
160560,note_off,720,0,3,,,,,,,,,2,,,59,0
160560,note_on,0,0,3,,,,,,,,,2,,,52,49
160567,note_off,7,0,2,,,,,,,,,1,,,66,0
160800,note_off,480,0,1,,,,,,,,,0,,,78,0
160800,note_on,0,0,1,,,,,,,,,0,,,79,51
161040,note_on,0,0,1,,,,,,,,,0,,,76,48
161040,note_off,240,0,1,,,,,,,,,0,,,79,0
161160,set_tempo,2280,1,0,,,,,,260869,,,,,,,
161280,note_off,240,0,1,,,,,,,,,0,,,76,0
161280,note_on,0,0,1,,,,,,,,,0,,,69,49
161280,note_on,0,0,4,,,,,,,,,3,,,47,42
161280,note_off,2880,0,4,,,,,,,,,3,,,47,0
161280,note_off,713,0,2,,,,,,,,,1,,,67,0
161280,note_off,720,0,3,,,,,,,,,2,,,52,0
161280,set_tempo,120,1,0,,,,,,258620,,,,,,,
161520,note_on,240,0,3,,,,,,,,,2,,,54,43
161520,note_on,240,0,2,,,,,,,,,1,,,66,46
161760,note_on,0,0,3,,,,,,,,,2,,,55,44
161760,note_off,240,0,2,,,,,,,,,1,,,66,0
161760,note_on,0,0,2,,,,,,,,,1,,,64,47
161760,note_off,240,0,3,,,,,,,,,2,,,54,0
162000,note_off,240,0,2,,,,,,,,,1,,,64,0
162000,note_off,240,0,3,,,,,,,,,2,,,55,0
162000,note_on,0,0,3,,,,,,,,,2,,,57,44
162000,note_on,0,0,2,,,,,,,,,1,,,63,47
162240,note_on,0,0,1,,,,,,,,,0,,,67,48
162240,note_off,960,0,1,,,,,,,,,0,,,69,0
162480,note_off,480,0,2,,,,,,,,,1,,,63,0
162480,note_on,0,0,1,,,,,,,,,0,,,66,48
162480,note_off,240,0,1,,,,,,,,,0,,,67,0
162720,note_on,0,0,1,,,,,,,,,0,,,71,52
162720,note_off,240,0,1,,,,,,,,,0,,,66,0
162720,note_on,0,0,4,,,,,,,,,3,,,47,46
162720,note_off,1440,0,4,,,,,,,,,3,,,47,0
162720,note_off,720,0,3,,,,,,,,,2,,,57,0
162960,note_on,480,0,2,,,,,,,,,1,,,67,49
162960,note_on,240,0,3,,,,,,,,,2,,,55,47
163200,note_off,240,0,3,,,,,,,,,2,,,55,0
163200,note_on,0,0,3,,,,,,,,,2,,,57,48
163200,note_on,0,0,2,,,,,,,,,1,,,66,50
163200,note_off,240,0,2,,,,,,,,,1,,,67,0
163440,note_off,240,0,3,,,,,,,,,2,,,57,0
163440,note_on,0,0,3,,,,,,,,,2,,,59,49
163440,note_on,0,0,2,,,,,,,,,1,,,64,50
163440,note_off,240,0,2,,,,,,,,,1,,,66,0
163680,note_on,0,0,1,,,,,,,,,0,,,69,51
163680,note_off,960,0,1,,,,,,,,,0,,,71,0
163920,note_off,480,0,2,,,,,,,,,1,,,64,0
163920,note_on,0,0,1,,,,,,,,,0,,,67,51
163920,note_off,240,0,1,,,,,,,,,0,,,69,0
164160,note_on,0,0,4,,,,,,,,,3,,,47,51
164160,note_on,0,0,1,,,,,,,,,0,,,72,52
164160,note_off,1440,0,4,,,,,,,,,3,,,47,0
164160,note_off,720,0,3,,,,,,,,,2,,,59,0
164160,note_on,0,0,3,,,,,,,,,2,,,57,51
164160,note_off,240,0,1,,,,,,,,,0,,,67,0
164400,note_on,480,0,2,,,,,,,,,1,,,66,52
164505,set_tempo,3225,1,0,,,,,,260869,,,,,,,
164640,note_on,0,0,1,,,,,,,,,0,,,78,57
164640,set_tempo,135,1,0,,,,,,258620,,,,,,,
164640,note_off,480,0,1,,,,,,,,,0,,,72,0
164880,note_on,0,0,3,,,,,,,,,2,,,58,53
164880,note_off,720,0,3,,,,,,,,,2,,,57,0
165120,note_off,720,0,2,,,,,,,,,1,,,66,0
165120,note_on,0,0,2,,,,,,,,,1,,,67,54
165360,note_off,720,0,1,,,,,,,,,0,,,78,0
165360,note_on,0,0,1,,,,,,,,,0,,,76,55
165600,note_on,0,0,3,,,,,,,,,2,,,59,55
165600,note_off,720,0,3,,,,,,,,,2,,,58,0
165600,note_on,0,0,1,,,,,,,,,0,,,75,58
165600,note_off,240,0,1,,,,,,,,,0,,,76,0
165840,note_on,0,0,2,,,,,,,,,1,,,66,56
165840,note_off,720,0,2,,,,,,,,,1,,,67,0
166080,note_on,0,0,1,,,,,,,,,0,,,78,54
166080,note_off,480,0,1,,,,,,,,,0,,,75,0
166320,note_on,240,0,1,,,,,,,,,0,,,76,52
166320,note_off,2160,0,4,,,,,,,,,3,,,47,0
166320,note_on,0,0,4,,,,,,,,,3,,,40,50
166320,note_on,480,0,2,,,,,,,,,1,,,67,52
166320,note_off,720,0,3,,,,,,,,,2,,,59,0
166320,note_on,0,0,3,,,,,,,,,2,,,52,50
166320,set_tempo,1680,1,0,,,,,,260869,,,,,,,
166327,note_off,7,0,1,,,,,,,,,0,,,78,0
166327,note_off,7,0,2,,,,,,,,,1,,,66,0
166800,note_off,473,0,2,,,,,,,,,1,,,67,0
166800,set_tempo,480,1,0,,,,,,312500,,,,,,,
166800,note_off,480,0,4,,,,,,,,,3,,,40,0
166800,note_off,480,0,3,,,,,,,,,2,,,52,0
166800,note_off,473,0,1,,,,,,,,,0,,,76,0
167040,set_tempo,240,1,0,,,,,,258620,,,,,,,
167040,note_on,240,0,1,,,,,,,,,0,,,55,53
167040,note_on,240,0,4,,,,,,,,,3,,,43,53
167520,note_off,480,0,1,,,,,,,,,0,,,55,0
167520,note_on,0,0,1,,,,,,,,,0,,,54,52
167520,note_off,480,0,4,,,,,,,,,3,,,43,0
167520,note_on,0,0,4,,,,,,,,,3,,,42,52
167760,note_off,240,0,4,,,,,,,,,3,,,42,0
167760,note_on,0,0,4,,,,,,,,,3,,,39,51
167760,note_off,240,0,1,,,,,,,,,0,,,54,0
167760,note_on,0,0,1,,,,,,,,,0,,,51,51
168240,note_off,480,0,1,,,,,,,,,0,,,51,0
168240,note_on,0,0,1,,,,,,,,,0,,,52,50
168240,note_off,480,0,4,,,,,,,,,3,,,39,0
168240,note_on,0,0,4,,,,,,,,,3,,,40,50
168480,note_off,240,0,1,,,,,,,,,0,,,52,0
168480,note_off,240,0,4,,,,,,,,,3,,,40,0
168480,note_on,0,0,4,,,,,,,,,3,,,35,49
168480,note_on,0,0,1,,,,,,,,,0,,,47,49
169200,note_on,0,0,1,,,,,,,,,0,,,47,47
169200,note_on,0,0,4,,,,,,,,,3,,,35,48
169200,note_off,720,0,4,,,,,,,,,3,,,35,0
169200,note_off,720,0,1,,,,,,,,,0,,,47,0
169680,note_on,0,0,4,,,,,,,,,3,,,35,46
169680,note_off,480,0,4,,,,,,,,,3,,,35,0
169680,note_on,0,0,1,,,,,,,,,0,,,47,46
169680,note_off,480,0,1,,,,,,,,,0,,,47,0
169890,set_tempo,2850,1,0,,,,,,260869,,,,,,,
169920,note_on,0,0,4,,,,,,,,,3,,,35,46
169920,note_off,240,0,4,,,,,,,,,3,,,35,0
169920,note_on,0,0,1,,,,,,,,,0,,,47,46
169920,note_off,240,0,1,,,,,,,,,0,,,47,0
170640,note_on,0,0,1,,,,,,,,,0,,,45,49
170640,note_off,720,0,1,,,,,,,,,0,,,47,0
170640,note_on,0,0,4,,,,,,,,,3,,,33,47
170640,note_off,720,0,4,,,,,,,,,3,,,35,0
171120,note_on,0,0,4,,,,,,,,,3,,,35,48
171120,note_off,480,0,4,,,,,,,,,3,,,33,0
171120,note_on,0,0,1,,,,,,,,,0,,,47,51
171120,note_off,480,0,1,,,,,,,,,0,,,45,0
171345,set_tempo,1455,1,0,,,,,,263157,,,,,,,
171360,note_on,0,0,4,,,,,,,,,3,,,36,51
171360,note_off,240,0,4,,,,,,,,,3,,,35,0
171360,note_on,0,0,1,,,,,,,,,0,,,48,52
171360,note_off,240,0,1,,,,,,,,,0,,,47,0
172080,note_on,0,0,4,,,,,,,,,3,,,35,47
172080,note_off,720,0,4,,,,,,,,,3,,,36,0
172080,note_on,0,0,1,,,,,,,,,0,,,47,46
172080,note_off,720,0,1,,,,,,,,,0,,,48,0
172320,set_tempo,975,1,0,,,,,,265486,,,,,,,
172800,note_on,0,0,1,,,,,,,,,0,,,79,51
172800,note_off,720,0,1,,,,,,,,,0,,,47,0
172800,note_on,0,0,4,,,,,,,,,3,,,40,42
172800,set_tempo,480,1,0,,,,,,258620,,,,,,,
172800,note_off,720,0,4,,,,,,,,,3,,,35,0
173280,note_off,480,0,4,,,,,,,,,3,,,40,0
173280,note_on,0,0,1,,,,,,,,,0,,,78,50
173280,note_off,480,0,1,,,,,,,,,0,,,79,0
173520,note_off,240,0,1,,,,,,,,,0,,,78,0
173520,note_on,0,0,1,,,,,,,,,0,,,75,49
174000,note_off,480,0,1,,,,,,,,,0,,,75,0
174000,note_on,0,0,1,,,,,,,,,0,,,76,48
174240,note_on,0,0,1,,,,,,,,,0,,,71,47
174240,note_off,240,0,1,,,,,,,,,0,,,76,0
174720,note_on,1440,0,4,,,,,,,,,3,,,66,49
174960,note_off,240,0,4,,,,,,,,,3,,,66,0
174960,note_on,0,0,4,,,,,,,,,3,,,64,48
174960,note_on,0,0,1,,,,,,,,,0,,,71,45
174960,note_off,720,0,1,,,,,,,,,0,,,71,0
174960,note_on,8160,0,2,,,,,,,,,1,,,67,45
175440,note_on,0,0,1,,,,,,,,,0,,,71,44
175440,note_off,480,0,1,,,,,,,,,0,,,71,0
175440,note_off,480,0,2,,,,,,,,,1,,,67,0
175440,note_on,0,0,4,,,,,,,,,3,,,63,47
175440,note_on,0,0,2,,,,,,,,,1,,,66,44
175440,note_off,480,0,4,,,,,,,,,3,,,64,0
175440,set_tempo,2640,1,0,,,,,,260869,,,,,,,
175680,note_off,240,0,4,,,,,,,,,3,,,63,0
175680,note_on,0,0,4,,,,,,,,,3,,,64,44
175680,note_off,240,0,2,,,,,,,,,1,,,66,0
175680,note_off,240,0,1,,,,,,,,,0,,,71,0
175680,note_on,0,0,1,,,,,,,,,0,,,71,45
175680,note_on,0,0,2,,,,,,,,,1,,,67,45
176160,note_off,480,0,4,,,,,,,,,3,,,64,0
176160,note_off,480,0,2,,,,,,,,,1,,,67,0
176160,note_on,0,0,2,,,,,,,,,1,,,66,48
176160,note_on,0,0,4,,,,,,,,,3,,,62,47
176400,note_off,720,0,1,,,,,,,,,0,,,71,0
176400,note_on,0,0,1,,,,,,,,,0,,,70,49
176400,note_on,0,0,2,,,,,,,,,1,,,64,49
176400,note_on,0,0,4,,,,,,,,,3,,,61,49
176400,note_off,240,0,2,,,,,,,,,1,,,66,0
176400,note_off,240,0,4,,,,,,,,,3,,,62,0
176880,note_on,0,0,4,,,,,,,,,3,,,59,53
176880,note_off,480,0,4,,,,,,,,,3,,,61,0
176880,note_off,480,0,2,,,,,,,,,1,,,64,0
176880,note_on,0,0,2,,,,,,,,,1,,,62,52
176880,note_off,480,0,1,,,,,,,,,0,,,70,0
176880,note_on,0,0,1,,,,,,,,,0,,,71,52
177015,set_tempo,1575,1,0,,,,,,263157,,,,,,,
177120,note_on,0,0,4,,,,,,,,,3,,,58,53
177120,note_off,240,0,4,,,,,,,,,3,,,59,0
177120,note_off,240,0,1,,,,,,,,,0,,,71,0
177120,note_on,0,0,1,,,,,,,,,0,,,73,55
177120,note_on,0,0,2,,,,,,,,,1,,,61,55
177120,note_off,240,0,2,,,,,,,,,1,,,62,0
177120,set_tempo,105,1,0,,,,,,263157,,,,,,,
177600,note_off,480,0,4,,,,,,,,,3,,,58,0
177600,note_on,0,0,4,,,,,,,,,3,,,55,49
177840,note_on,0,0,2,,,,,,,,,1,,,71,47
177840,note_off,720,0,2,,,,,,,,,1,,,61,0
177840,note_on,0,0,1,,,,,,,,,0,,,74,47
177840,note_off,720,0,1,,,,,,,,,0,,,73,0
177840,set_tempo,720,1,0,,,,,,265486,,,,,,,
177840,note_off,240,0,4,,,,,,,,,3,,,55,0
177840,note_on,0,0,4,,,,,,,,,3,,,54,47
178320,note_on,0,0,4,,,,,,,,,3,,,53,43
178320,set_tempo,480,1,0,,,,,,269058,,,,,,,
178320,note_off,480,0,4,,,,,,,,,3,,,54,0
178560,set_tempo,240,1,0,,,,,,258620,,,,,,,
178560,note_off,240,0,4,,,,,,,,,3,,,53,0
178560,note_on,0,0,4,,,,,,,,,3,,,54,43
178560,note_on,0,0,1,,,,,,,,,0,,,73,43
178560,note_off,720,0,1,,,,,,,,,0,,,74,0
178800,note_on,0,0,2,,,,,,,,,1,,,66,43
178800,note_off,960,0,2,,,,,,,,,1,,,71,0
179040,note_on,0,0,2,,,,,,,,,1,,,70,44
179040,note_off,240,0,2,,,,,,,,,1,,,66,0
179280,note_on,12480,0,3,,,,,,,,,2,,,58,45
179280,note_off,240,0,2,,,,,,,,,1,,,70,0
179280,note_on,0,0,2,,,,,,,,,1,,,66,44
179520,note_off,960,0,1,,,,,,,,,0,,,73,0
179520,note_on,0,0,1,,,,,,,,,0,,,74,45
179520,note_off,240,0,3,,,,,,,,,2,,,58,0
179520,note_on,0,0,3,,,,,,,,,2,,,59,46
179760,note_off,240,0,3,,,,,,,,,2,,,59,0
179760,note_on,0,0,3,,,,,,,,,2,,,61,46
179760,note_on,240,0,1,,,,,,,,,0,,,76,45
179782,note_off,22,0,1,,,,,,,,,0,,,74,0
180000,note_off,1440,0,4,,,,,,,,,3,,,54,0
180000,note_on,0,0,3,,,,,,,,,2,,,59,47
180000,note_on,0,0,1,,,,,,,,,0,,,74,46
180000,note_off,218,0,1,,,,,,,,,0,,,76,0
180000,note_off,240,0,3,,,,,,,,,2,,,61,0
180000,note_on,0,0,4,,,,,,,,,3,,,54,47
180240,note_on,0,0,2,,,,,,,,,1,,,66,47
180240,note_off,960,0,2,,,,,,,,,1,,,66,0
180480,note_on,0,0,2,,,,,,,,,1,,,71,47
180480,note_off,240,0,2,,,,,,,,,1,,,66,0
180720,note_on,0,0,2,,,,,,,,,1,,,66,48
180720,note_off,240,0,2,,,,,,,,,1,,,71,0
180960,note_on,0,0,3,,,,,,,,,2,,,61,49
180960,note_off,960,0,3,,,,,,,,,2,,,59,0
180960,note_off,960,0,1,,,,,,,,,0,,,74,0
180960,note_on,0,0,1,,,,,,,,,0,,,76,48
181200,note_on,0,0,1,,,,,,,,,0,,,78,49
181200,note_on,0,0,3,,,,,,,,,2,,,62,49
181200,note_off,240,0,3,,,,,,,,,2,,,61,0
181200,note_off,240,0,1,,,,,,,,,0,,,76,0
181440,note_off,240,0,3,,,,,,,,,2,,,62,0
181440,note_on,0,0,4,,,,,,,,,3,,,54,50
181440,note_off,240,0,1,,,,,,,,,0,,,78,0
181440,note_on,0,0,1,,,,,,,,,0,,,76,49
181440,note_off,1440,0,4,,,,,,,,,3,,,54,0
181680,note_on,240,0,3,,,,,,,,,2,,,61,51
181920,note_on,0,0,1,,,,,,,,,0,,,78,50
181920,note_off,480,0,1,,,,,,,,,0,,,76,0
181920,note_off,240,0,3,,,,,,,,,2,,,61,0
181920,note_on,0,0,3,,,,,,,,,2,,,62,51
182160,note_off,240,0,3,,,,,,,,,2,,,62,0
182160,note_on,0,0,2,,,,,,,,,1,,,70,51
182160,note_on,0,0,4,,,,,,,,,3,,,54,52
182160,note_off,720,0,4,,,,,,,,,3,,,54,0
182160,note_off,1440,0,2,,,,,,,,,1,,,66,0
182160,note_off,240,0,1,,,,,,,,,0,,,78,0
182160,note_on,0,0,1,,,,,,,,,0,,,79,51
182400,note_on,240,0,3,,,,,,,,,2,,,64,52
182640,note_on,0,0,3,,,,,,,,,2,,,62,53
182640,note_off,240,0,3,,,,,,,,,2,,,64,0
182640,note_on,0,0,1,,,,,,,,,0,,,78,52
182640,note_off,480,0,1,,,,,,,,,0,,,79,0
182640,note_off,480,0,2,,,,,,,,,1,,,70,0
182640,note_on,0,0,2,,,,,,,,,1,,,71,52
182880,note_on,0,0,1,,,,,,,,,0,,,76,52
182880,note_off,240,0,3,,,,,,,,,2,,,62,0
182880,note_off,720,0,4,,,,,,,,,3,,,54,0
182880,note_off,240,0,2,,,,,,,,,1,,,71,0
182880,note_on,0,0,2,,,,,,,,,1,,,73,52
182880,note_on,0,0,4,,,,,,,,,3,,,54,53
182880,note_off,240,0,1,,,,,,,,,0,,,78,0
183120,note_on,0,0,2,,,,,,,,,1,,,66,53
183120,note_on,240,0,3,,,,,,,,,2,,,61,54
183120,note_off,240,0,2,,,,,,,,,1,,,73,0
183360,note_off,480,0,1,,,,,,,,,0,,,76,0
183360,note_on,0,0,3,,,,,,,,,2,,,59,54
183360,note_off,240,0,3,,,,,,,,,2,,,61,0
183360,note_on,0,0,1,,,,,,,,,0,,,74,53
183600,note_off,240,0,3,,,,,,,,,2,,,59,0
183600,note_off,240,0,1,,,,,,,,,0,,,74,0
183600,note_on,0,0,1,,,,,,,,,0,,,73,54
183600,note_on,0,0,4,,,,,,,,,3,,,54,55
183600,note_off,720,0,4,,,,,,,,,3,,,54,0
183840,note_on,240,0,3,,,,,,,,,2,,,58,56
184080,note_off,480,0,1,,,,,,,,,0,,,73,0
184080,note_off,240,0,3,,,,,,,,,2,,,58,0
184080,note_on,0,0,3,,,,,,,,,2,,,59,56
184080,note_on,0,0,1,,,,,,,,,0,,,74,55
184200,set_tempo,5640,1,0,,,,,,260869,,,,,,,
184320,note_on,0,0,4,,,,,,,,,3,,,54,57
184320,note_off,720,0,4,,,,,,,,,3,,,54,0
184320,note_off,240,0,1,,,,,,,,,0,,,74,0
184320,note_on,0,0,1,,,,,,,,,0,,,73,56
184320,note_off,240,0,3,,,,,,,,,2,,,59,0
184320,set_tempo,120,1,0,,,,,,258620,,,,,,,
184327,note_off,1207,0,2,,,,,,,,,1,,,66,0
184560,note_on,240,0,3,,,,,,,,,2,,,58,57
184560,note_on,233,0,2,,,,,,,,,1,,,70,56
184800,note_on,0,0,3,,,,,,,,,2,,,61,58
184800,note_on,0,0,2,,,,,,,,,1,,,66,57
184800,note_off,240,0,2,,,,,,,,,1,,,70,0
184800,note_off,240,0,3,,,,,,,,,2,,,58,0
185040,note_on,0,0,1,,,,,,,,,0,,,73,57
185040,note_off,720,0,1,,,,,,,,,0,,,73,0
185040,note_off,240,0,3,,,,,,,,,2,,,61,0
185040,note_on,0,0,3,,,,,,,,,2,,,58,58
185280,note_off,240,0,3,,,,,,,,,2,,,58,0
185280,note_on,0,0,3,,,,,,,,,2,,,59,59
185280,note_off,240,0,1,,,,,,,,,0,,,73,0
185280,note_on,0,0,1,,,,,,,,,0,,,74,58
185520,note_off,240,0,1,,,,,,,,,0,,,74,0
185520,note_on,0,0,1,,,,,,,,,0,,,76,58
185520,note_on,0,0,3,,,,,,,,,2,,,61,59
185520,note_off,240,0,3,,,,,,,,,2,,,59,0
185760,note_off,240,0,1,,,,,,,,,0,,,76,0
185760,note_on,0,0,4,,,,,,,,,3,,,54,60
185760,note_on,0,0,1,,,,,,,,,0,,,74,59
185760,note_off,960,0,2,,,,,,,,,1,,,66,0
185760,note_off,240,0,3,,,,,,,,,2,,,61,0
185760,note_off,1440,0,4,,,,,,,,,3,,,54,0
186000,note_on,240,0,2,,,,,,,,,1,,,71,59
186000,note_on,240,0,3,,,,,,,,,2,,,59,61
186240,note_off,240,0,3,,,,,,,,,2,,,59,0
186240,note_on,0,0,3,,,,,,,,,2,,,62,61
186240,note_off,240,0,2,,,,,,,,,1,,,71,0
186240,note_on,0,0,2,,,,,,,,,1,,,66,60
186480,note_on,0,0,3,,,,,,,,,2,,,59,62
186480,note_off,720,0,1,,,,,,,,,0,,,74,0
186480,note_on,0,0,1,,,,,,,,,0,,,74,60
186480,note_off,240,0,3,,,,,,,,,2,,,62,0
186720,note_off,240,0,3,,,,,,,,,2,,,59,0
186720,note_on,0,0,3,,,,,,,,,2,,,61,62
186720,note_off,240,0,1,,,,,,,,,0,,,74,0
186720,note_on,0,0,1,,,,,,,,,0,,,76,61
186960,note_off,240,0,1,,,,,,,,,0,,,76,0
186960,note_on,0,0,1,,,,,,,,,0,,,78,62
186960,note_off,240,0,3,,,,,,,,,2,,,61,0
186960,note_on,0,0,3,,,,,,,,,2,,,62,63
187200,note_on,0,0,4,,,,,,,,,3,,,54,63
187200,note_off,240,0,3,,,,,,,,,2,,,62,0
187200,note_off,240,0,1,,,,,,,,,0,,,78,0
187200,note_on,0,0,1,,,,,,,,,0,,,76,62
187200,note_off,1440,0,4,,,,,,,,,3,,,54,0
187440,note_on,240,0,3,,,,,,,,,2,,,61,64
187680,note_off,1440,0,2,,,,,,,,,1,,,66,0
187680,note_on,0,0,1,,,,,,,,,0,,,78,63
187680,note_on,0,0,3,,,,,,,,,2,,,62,64
187680,note_off,240,0,3,,,,,,,,,2,,,61,0
187680,note_off,480,0,1,,,,,,,,,0,,,76,0
187680,note_on,0,0,2,,,,,,,,,1,,,66,63
187920,note_off,240,0,3,,,,,,,,,2,,,62,0
187920,note_off,720,0,4,,,,,,,,,3,,,54,0
187920,note_off,240,0,2,,,,,,,,,1,,,66,0
187920,note_on,0,0,4,,,,,,,,,3,,,54,65
187920,note_off,240,0,1,,,,,,,,,0,,,78,0
187920,note_on,0,0,2,,,,,,,,,1,,,67,64
187920,note_on,0,0,1,,,,,,,,,0,,,79,64
188160,note_on,240,0,3,,,,,,,,,2,,,64,66
188400,note_on,0,0,2,,,,,,,,,1,,,66,65
188400,note_on,0,0,3,,,,,,,,,2,,,62,66
188400,note_off,240,0,3,,,,,,,,,2,,,64,0
188400,note_off,480,0,2,,,,,,,,,1,,,67,0
188400,note_on,0,0,1,,,,,,,,,0,,,78,65
188400,note_off,480,0,1,,,,,,,,,0,,,79,0
188640,note_off,240,0,2,,,,,,,,,1,,,66,0
188640,note_off,240,0,1,,,,,,,,,0,,,78,0
188640,note_on,0,0,4,,,,,,,,,3,,,54,67
188640,note_off,240,0,3,,,,,,,,,2,,,62,0
188640,note_off,720,0,4,,,,,,,,,3,,,54,0
188640,note_on,0,0,1,,,,,,,,,0,,,79,66
188640,note_on,0,0,2,,,,,,,,,1,,,67,66
188880,note_on,240,0,3,,,,,,,,,2,,,64,68
189120,note_on,0,0,3,,,,,,,,,2,,,66,69
189120,note_on,0,0,1,,,,,,,,,0,,,82,67
189120,note_off,480,0,1,,,,,,,,,0,,,79,0
189120,note_off,240,0,3,,,,,,,,,2,,,64,0
189120,note_on,0,0,2,,,,,,,,,1,,,70,67
189120,note_off,480,0,2,,,,,,,,,1,,,67,0
189360,note_off,240,0,1,,,,,,,,,0,,,82,0
189360,note_off,720,0,4,,,,,,,,,3,,,54,0
189360,note_on,0,0,4,,,,,,,,,3,,,54,70
189360,note_on,0,0,2,,,,,,,,,1,,,71,68
189360,note_off,240,0,2,,,,,,,,,1,,,70,0
189360,note_on,0,0,1,,,,,,,,,0,,,83,68
189360,note_off,240,0,3,,,,,,,,,2,,,66,0
189600,note_on,240,0,3,,,,,,,,,2,,,67,71
189840,note_off,480,0,2,,,,,,,,,1,,,71,0
189840,note_off,240,0,3,,,,,,,,,2,,,67,0
189840,note_on,0,0,2,,,,,,,,,1,,,70,70
189840,note_off,480,0,1,,,,,,,,,0,,,83,0
189840,note_on,0,0,3,,,,,,,,,2,,,66,72
189840,note_on,0,0,1,,,,,,,,,0,,,82,70
190080,note_on,0,0,1,,,,,,,,,0,,,83,71
190080,note_off,240,0,1,,,,,,,,,0,,,82,0
190080,note_off,240,0,2,,,,,,,,,1,,,70,0
190080,note_on,0,0,4,,,,,,,,,3,,,54,73
190080,note_off,720,0,4,,,,,,,,,3,,,54,0
190080,note_off,240,0,3,,,,,,,,,2,,,66,0
190080,note_on,0,0,2,,,,,,,,,1,,,71,71
190320,note_on,240,0,3,,,,,,,,,2,,,67,74
190560,note_off,480,0,4,,,,,,,,,3,,,54,0
190560,note_off,480,0,2,,,,,,,,,1,,,71,0
190560,note_on,0,0,2,,,,,,,,,1,,,73,73
190560,note_on,0,0,3,,,,,,,,,2,,,70,74
190560,note_off,480,0,1,,,,,,,,,0,,,83,0
190560,note_on,0,0,1,,,,,,,,,0,,,85,73
190560,note_off,240,0,3,,,,,,,,,2,,,67,0
190800,note_off,240,0,3,,,,,,,,,2,,,70,0
190800,note_on,0,0,3,,,,,,,,,2,,,71,75
190800,note_off,240,0,1,,,,,,,,,0,,,85,0
190800,note_on,0,0,1,,,,,,,,,0,,,86,73
190800,note_off,240,0,2,,,,,,,,,1,,,73,0
190800,note_on,0,0,2,,,,,,,,,1,,,74,73
191040,note_off,240,0,3,,,,,,,,,2,,,71,0
191040,note_on,0,0,3,,,,,,,,,2,,,59,76
191280,note_on,0,0,2,,,,,,,,,1,,,73,75
191280,note_on,0,0,1,,,,,,,,,0,,,85,75
191280,note_off,480,0,1,,,,,,,,,0,,,86,0
191280,note_off,240,0,3,,,,,,,,,2,,,59,0
191280,note_on,0,0,3,,,,,,,,,2,,,70,77
191280,note_off,480,0,2,,,,,,,,,1,,,74,0
191520,note_on,0,0,1,,,,,,,,,0,,,86,76
191520,note_off,240,0,1,,,,,,,,,0,,,85,0
191520,note_off,240,0,3,,,,,,,,,2,,,70,0
191520,note_on,0,0,3,,,,,,,,,2,,,71,78
191520,note_off,240,0,2,,,,,,,,,1,,,73,0
191520,note_on,0,0,2,,,,,,,,,1,,,74,76
191760,note_off,240,0,3,,,,,,,,,2,,,71,0
191760,note_on,0,0,3,,,,,,,,,2,,,59,79
192000,note_on,0,0,3,,,,,,,,,2,,,70,80
192000,note_off,480,0,2,,,,,,,,,1,,,74,0
192000,note_off,480,0,1,,,,,,,,,0,,,86,0
192000,note_on,0,0,1,,,,,,,,,0,,,85,78
192000,note_off,240,0,3,,,,,,,,,2,,,59,0
192000,note_on,0,0,2,,,,,,,,,1,,,73,78
192240,note_off,240,0,2,,,,,,,,,1,,,73,0
192240,note_on,0,0,3,,,,,,,,,2,,,71,81
192240,note_off,240,0,1,,,,,,,,,0,,,85,0
192240,note_on,0,0,2,,,,,,,,,1,,,74,79
192240,note_on,0,0,1,,,,,,,,,0,,,86,79
192240,note_off,240,0,3,,,,,,,,,2,,,70,0
192720,note_off,480,0,1,,,,,,,,,0,,,86,0
192720,note_on,0,0,1,,,,,,,,,0,,,86,80
192720,note_off,480,0,2,,,,,,,,,1,,,74,0
192720,set_tempo,8400,1,0,,,,,,260869,,,,,,,
192720,note_on,2160,0,4,,,,,,,,,3,,,47,55
192720,note_off,480,0,3,,,,,,,,,2,,,71,0
192720,note_on,0,0,2,,,,,,,,,1,,,78,80
192960,note_on,0,0,2,,,,,,,,,1,,,76,81
192960,note_off,240,0,2,,,,,,,,,1,,,78,0
192960,note_on,0,0,4,,,,,,,,,3,,,49,55
192960,note_off,240,0,4,,,,,,,,,3,,,47,0
193065,set_tempo,345,1,0,,,,,,258620,,,,,,,
193200,note_on,480,0,3,,,,,,,,,2,,,53,54
193440,note_off,240,0,3,,,,,,,,,2,,,53,0
193440,note_on,0,0,1,,,,,,,,,0,,,74,55
193440,note_off,480,0,2,,,,,,,,,1,,,76,0
193440,note_off,720,0,1,,,,,,,,,0,,,86,0
193440,note_on,0,0,3,,,,,,,,,2,,,56,54
193680,note_on,0,0,4,,,,,,,,,3,,,49,54
193680,note_off,720,0,4,,,,,,,,,3,,,49,0
193680,note_off,240,0,3,,,,,,,,,2,,,56,0
193920,note_off,480,0,1,,,,,,,,,0,,,74,0
193920,note_on,0,0,1,,,,,,,,,0,,,73,54
193920,note_on,240,0,3,,,,,,,,,2,,,51,53
194160,note_off,240,0,3,,,,,,,,,2,,,51,0
194160,note_on,0,0,3,,,,,,,,,2,,,53,53
194160,note_off,240,0,1,,,,,,,,,0,,,73,0
194160,note_on,0,0,1,,,,,,,,,0,,,71,54
194400,note_on,0,0,4,,,,,,,,,3,,,49,53
194400,note_off,720,0,4,,,,,,,,,3,,,49,0
194400,note_on,0,0,1,,,,,,,,,0,,,71,54
194400,note_off,240,0,1,,,,,,,,,0,,,71,0
194400,note_off,240,0,3,,,,,,,,,2,,,53,0
194640,note_on,240,0,3,,,,,,,,,2,,,57,52
194880,note_off,480,0,1,,,,,,,,,0,,,71,0
194880,note_on,0,0,3,,,,,,,,,2,,,54,52
194880,note_off,240,0,3,,,,,,,,,2,,,57,0
194880,note_on,0,0,1,,,,,,,,,0,,,66,53
195120,note_off,720,0,4,,,,,,,,,3,,,49,0
195120,note_on,0,0,4,,,,,,,,,3,,,48,52
195120,note_off,240,0,3,,,,,,,,,2,,,54,0
195120,note_off,240,0,1,,,,,,,,,0,,,66,0
195120,note_on,0,0,1,,,,,,,,,0,,,69,53
195360,note_on,240,0,3,,,,,,,,,2,,,54,51
195600,note_off,480,0,1,,,,,,,,,0,,,69,0
195600,note_on,0,0,1,,,,,,,,,0,,,78,57
195600,note_off,240,0,3,,,,,,,,,2,,,54,0
195600,note_on,0,0,3,,,,,,,,,2,,,51,51
195780,set_tempo,2715,1,0,,,,,,260869,,,,,,,
195840,note_on,0,0,4,,,,,,,,,3,,,47,51
195840,note_off,720,0,4,,,,,,,,,3,,,48,0
195840,note_off,240,0,3,,,,,,,,,2,,,51,0
195840,set_tempo,60,1,0,,,,,,258620,,,,,,,
196080,note_on,240,0,3,,,,,,,,,2,,,51,50
196320,note_off,240,0,3,,,,,,,,,2,,,51,0
196320,note_on,0,0,3,,,,,,,,,2,,,54,50
196320,note_on,0,0,1,,,,,,,,,0,,,72,51
196320,note_off,720,0,1,,,,,,,,,0,,,78,0
196560,note_off,240,0,3,,,,,,,,,2,,,54,0
196560,note_off,720,0,4,,,,,,,,,3,,,47,0
196560,note_on,0,0,4,,,,,,,,,3,,,47,50
196560,note_off,240,0,1,,,,,,,,,0,,,72,0
196560,note_on,0,0,1,,,,,,,,,0,,,71,51
196800,note_on,240,0,3,,,,,,,,,2,,,49,49
197040,note_on,0,0,1,,,,,,,,,0,,,69,50
197040,note_off,240,0,3,,,,,,,,,2,,,49,0
197040,note_on,0,0,3,,,,,,,,,2,,,51,49
197040,note_off,480,0,1,,,,,,,,,0,,,71,0
197280,note_on,0,0,4,,,,,,,,,3,,,47,49
197280,note_on,0,0,1,,,,,,,,,0,,,69,50
197280,note_off,240,0,1,,,,,,,,,0,,,69,0
197280,note_off,720,0,4,,,,,,,,,3,,,47,0
197280,note_off,240,0,3,,,,,,,,,2,,,51,0
197520,note_on,240,0,3,,,,,,,,,2,,,55,48
197760,note_on,0,0,1,,,,,,,,,0,,,66,49
197760,note_on,0,0,3,,,,,,,,,2,,,52,48
197760,note_off,240,0,3,,,,,,,,,2,,,55,0
197760,note_off,480,0,1,,,,,,,,,0,,,69,0
198000,note_off,240,0,1,,,,,,,,,0,,,66,0
198000,note_on,0,0,1,,,,,,,,,0,,,67,49
198000,note_off,240,0,3,,,,,,,,,2,,,52,0
198000,note_off,720,0,4,,,,,,,,,3,,,47,0
198000,note_on,0,0,4,,,,,,,,,3,,,46,48
198240,note_on,240,0,3,,,,,,,,,2,,,52,48
198480,note_on,0,0,1,,,,,,,,,0,,,76,52
198480,note_off,480,0,1,,,,,,,,,0,,,67,0
198480,note_on,0,0,3,,,,,,,,,2,,,49,47
198480,note_off,240,0,3,,,,,,,,,2,,,52,0
198660,set_tempo,2820,1,0,,,,,,260869,,,,,,,
198720,note_on,0,0,4,,,,,,,,,3,,,45,47
198720,note_off,720,0,4,,,,,,,,,3,,,46,0
198720,set_tempo,60,1,0,,,,,,258620,,,,,,,
198720,note_off,240,0,3,,,,,,,,,2,,,49,0
198960,note_on,240,0,3,,,,,,,,,2,,,49,47
199200,note_on,0,0,1,,,,,,,,,0,,,70,47
199200,note_off,720,0,1,,,,,,,,,0,,,76,0
199200,note_off,240,0,3,,,,,,,,,2,,,49,0
199200,note_on,0,0,3,,,,,,,,,2,,,52,46
199440,note_off,720,0,4,,,,,,,,,3,,,45,0
199440,note_on,0,0,4,,,,,,,,,3,,,45,46
199440,note_off,240,0,3,,,,,,,,,2,,,52,0
199680,note_on,240,0,3,,,,,,,,,2,,,47,46
199680,note_off,480,0,1,,,,,,,,,0,,,70,0
199680,note_on,0,0,1,,,,,,,,,0,,,69,47
199920,note_on,0,0,3,,,,,,,,,2,,,49,45
199920,note_off,240,0,3,,,,,,,,,2,,,47,0
199920,note_off,240,0,1,,,,,,,,,0,,,69,0
199920,note_on,0,0,1,,,,,,,,,0,,,67,46
200160,note_off,240,0,3,,,,,,,,,2,,,49,0
200160,note_off,720,0,4,,,,,,,,,3,,,45,0
200160,note_on,0,0,4,,,,,,,,,3,,,45,45
200160,note_on,0,0,1,,,,,,,,,0,,,67,46
200160,note_off,240,0,1,,,,,,,,,0,,,67,0
200400,note_on,240,0,3,,,,,,,,,2,,,53,45
200640,note_off,480,0,1,,,,,,,,,0,,,67,0
200640,note_on,0,0,1,,,,,,,,,0,,,64,46
200640,note_off,240,0,3,,,,,,,,,2,,,53,0
200640,note_on,0,0,3,,,,,,,,,2,,,50,44
200880,note_off,240,0,3,,,,,,,,,2,,,50,0
200880,note_off,240,0,1,,,,,,,,,0,,,64,0
200880,note_on,0,0,1,,,,,,,,,0,,,65,45
200880,note_on,0,0,4,,,,,,,,,3,,,44,44
200880,note_off,720,0,4,,,,,,,,,3,,,45,0
201120,note_on,240,0,3,,,,,,,,,2,,,50,44
201360,note_off,480,0,1,,,,,,,,,0,,,65,0
201360,note_off,240,0,3,,,,,,,,,2,,,50,0
201360,note_on,0,0,3,,,,,,,,,2,,,47,43
201360,note_on,0,0,1,,,,,,,,,0,,,77,47
201540,set_tempo,2820,1,0,,,,,,260869,,,,,,,
201600,note_off,240,0,3,,,,,,,,,2,,,47,0
201600,set_tempo,60,1,0,,,,,,258620,,,,,,,
201600,note_off,720,0,4,,,,,,,,,3,,,44,0
201600,note_on,0,0,4,,,,,,,,,3,,,43,44
201840,note_on,240,0,3,,,,,,,,,2,,,45,45
202080,note_off,240,0,3,,,,,,,,,2,,,45,0
202080,note_on,0,0,3,,,,,,,,,2,,,47,46
202320,note_off,240,0,3,,,,,,,,,2,,,47,0
202320,note_on,0,0,3,,,,,,,,,2,,,48,46
202560,note_off,240,0,3,,,,,,,,,2,,,48,0
202560,note_on,0,0,3,,,,,,,,,2,,,50,47
202800,note_on,0,0,3,,,,,,,,,2,,,47,48
202800,note_off,240,0,3,,,,,,,,,2,,,50,0
203040,note_on,0,0,4,,,,,,,,,3,,,43,49
203040,note_off,1440,0,4,,,,,,,,,3,,,43,0
203040,note_off,240,0,3,,,,,,,,,2,,,47,0
203280,note_on,240,0,3,,,,,,,,,2,,,48,49
203520,note_off,240,0,3,,,,,,,,,2,,,48,0
203520,note_on,0,0,3,,,,,,,,,2,,,52,50
203520,note_on,2160,0,1,,,,,,,,,0,,,76,50
203527,note_off,7,0,1,,,,,,,,,0,,,77,0
203760,note_on,0,0,4,,,,,,,,,3,,,41,51
203760,note_off,240,0,3,,,,,,,,,2,,,52,0
203760,note_off,720,0,4,,,,,,,,,3,,,43,0
203760,note_off,233,0,1,,,,,,,,,0,,,76,0
203760,note_on,0,0,1,,,,,,,,,0,,,74,50
204000,note_on,240,0,3,,,,,,,,,2,,,43,52
204240,note_on,0,0,1,,,,,,,,,0,,,79,51
204240,note_on,0,0,3,,,,,,,,,2,,,47,52
204240,note_off,240,0,3,,,,,,,,,2,,,43,0
204240,note_off,480,0,1,,,,,,,,,0,,,74,0
204375,set_tempo,2775,1,0,,,,,,260869,,,,,,,
204480,note_off,240,0,1,,,,,,,,,0,,,79,0
204480,note_off,240,0,3,,,,,,,,,2,,,47,0
204480,note_off,720,0,4,,,,,,,,,3,,,41,0
204480,note_on,0,0,4,,,,,,,,,3,,,41,53
204720,note_on,240,0,3,,,,,,,,,2,,,43,39
204960,note_on,0,0,3,,,,,,,,,2,,,47,38
204960,note_off,240,0,3,,,,,,,,,2,,,43,0
205200,note_on,720,0,1,,,,,,,,,0,,,79,39
205200,note_on,0,0,3,,,,,,,,,2,,,50,38
205200,note_off,240,0,3,,,,,,,,,2,,,47,0
205440,note_on,0,0,3,,,,,,,,,2,,,47,38
205440,note_off,240,0,3,,,,,,,,,2,,,50,0
205680,note_on,0,0,3,,,,,,,,,2,,,43,37
205680,note_off,240,0,3,,,,,,,,,2,,,47,0
205680,note_off,480,0,1,,,,,,,,,0,,,79,0
205680,note_on,0,0,1,,,,,,,,,0,,,74,39
205920,note_off,240,0,1,,,,,,,,,0,,,74,0
205920,note_off,240,0,3,,,,,,,,,2,,,43,0
205920,note_on,0,0,4,,,,,,,,,3,,,40,37
205920,note_off,1440,0,4,,,,,,,,,3,,,41,0
205920,note_on,0,0,1,,,,,,,,,0,,,79,38
206160,note_off,240,0,1,,,,,,,,,0,,,79,0
206160,note_on,240,0,3,,,,,,,,,2,,,43,37
206400,note_off,240,0,3,,,,,,,,,2,,,43,0
206400,note_on,0,0,3,,,,,,,,,2,,,48,36
206640,note_on,480,0,1,,,,,,,,,0,,,79,38
206640,note_on,0,0,3,,,,,,,,,2,,,52,36
206640,note_off,240,0,3,,,,,,,,,2,,,48,0
206880,note_off,240,0,1,,,,,,,,,0,,,79,0
206880,note_on,0,0,3,,,,,,,,,2,,,48,36
206880,note_off,240,0,3,,,,,,,,,2,,,52,0
207120,note_on,0,0,3,,,,,,,,,2,,,43,35
207120,note_off,240,0,3,,,,,,,,,2,,,48,0
207255,set_tempo,2880,1,0,,,,,,263157,,,,,,,
207360,note_off,240,0,3,,,,,,,,,2,,,43,0
207360,note_off,1440,0,4,,,,,,,,,3,,,40,0
207360,note_on,0,0,4,,,,,,,,,3,,,41,35
207600,note_on,240,0,3,,,,,,,,,2,,,43,35
207840,note_on,0,0,3,,,,,,,,,2,,,47,34
207840,note_off,240,0,3,,,,,,,,,2,,,43,0
208080,note_off,240,0,3,,,,,,,,,2,,,47,0
208080,note_on,0,0,3,,,,,,,,,2,,,50,34
208080,note_on,1200,0,1,,,,,,,,,0,,,91,36
208320,note_off,240,0,3,,,,,,,,,2,,,50,0
208320,note_on,0,0,3,,,,,,,,,2,,,47,34
208560,note_off,480,0,1,,,,,,,,,0,,,91,0
208560,note_off,240,0,3,,,,,,,,,2,,,47,0
208560,note_on,0,0,3,,,,,,,,,2,,,43,33
208560,note_on,0,0,1,,,,,,,,,0,,,86,35
208800,note_on,0,0,1,,,,,,,,,0,,,91,35
208800,note_off,240,0,1,,,,,,,,,0,,,86,0
208800,note_off,1440,0,4,,,,,,,,,3,,,41,0
208800,note_on,0,0,4,,,,,,,,,3,,,40,33
208800,note_off,240,0,3,,,,,,,,,2,,,43,0
209040,note_on,240,0,3,,,,,,,,,2,,,43,33
209040,note_off,240,0,1,,,,,,,,,0,,,91,0
209280,note_on,0,0,3,,,,,,,,,2,,,48,33
209280,note_off,240,0,3,,,,,,,,,2,,,43,0
209520,note_off,240,0,3,,,,,,,,,2,,,48,0
209520,note_on,0,0,3,,,,,,,,,2,,,52,32
209520,note_on,480,0,1,,,,,,,,,0,,,91,34
209760,note_on,0,0,3,,,,,,,,,2,,,48,32
209760,note_off,240,0,3,,,,,,,,,2,,,52,0
209760,note_off,240,0,1,,,,,,,,,0,,,91,0
210000,note_off,240,0,3,,,,,,,,,2,,,48,0
210000,note_on,0,0,3,,,,,,,,,2,,,43,32
210120,set_tempo,2865,1,0,,,,,,265486,,,,,,,
210240,note_off,240,0,3,,,,,,,,,2,,,43,0
210240,note_on,0,0,3,,,,,,,,,2,,,59,37
210240,note_on,0,0,4,,,,,,,,,3,,,29,37
210240,note_on,0,0,4,,,,,,,,,3,,,41,37
210240,note_off,1440,0,4,,,,,,,,,3,,,40,0
210240,set_tempo,120,1,0,,,,,,258620,,,,,,,
210480,note_on,0,0,3,,,,,,,,,2,,,62,41
210480,note_off,240,0,3,,,,,,,,,2,,,59,0
210720,note_on,0,0,3,,,,,,,,,2,,,60,44
210720,note_off,240,0,3,,,,,,,,,2,,,62,0
210960,note_on,1200,0,1,,,,,,,,,0,,,67,55
210960,note_off,240,0,3,,,,,,,,,2,,,60,0
210960,note_on,0,0,3,,,,,,,,,2,,,59,48
211200,note_off,240,0,3,,,,,,,,,2,,,59,0
211200,note_on,0,0,3,,,,,,,,,2,,,58,52
211440,note_off,480,0,1,,,,,,,,,0,,,67,0
211440,note_on,0,0,1,,,,,,,,,0,,,64,63
211440,note_off,240,0,3,,,,,,,,,2,,,58,0
211440,note_on,0,0,3,,,,,,,,,2,,,59,55
211680,note_on,0,0,3,,,,,,,,,2,,,62,59
211680,note_off,240,0,1,,,,,,,,,0,,,64,0
211680,note_on,0,0,1,,,,,,,,,0,,,66,70
211680,note_off,240,0,3,,,,,,,,,2,,,59,0
211680,note_on,0,0,4,,,,,,,,,3,,,42,59
211680,note_on,0,0,4,,,,,,,,,3,,,30,59
211680,note_off,0,0,4,,,,,,,,,3,,,29,0
211680,note_off,1440,0,4,,,,,,,,,3,,,41,0
211920,note_on,0,0,3,,,,,,,,,2,,,59,63
211920,note_off,240,0,3,,,,,,,,,2,,,62,0
212160,note_off,480,0,1,,,,,,,,,0,,,66,0
212160,note_on,0,0,3,,,,,,,,,2,,,54,66
212160,note_off,240,0,3,,,,,,,,,2,,,59,0
212400,note_on,240,0,1,,,,,,,,,0,,,66,80
212400,note_off,240,0,3,,,,,,,,,2,,,54,0
212400,note_on,0,0,3,,,,,,,,,2,,,61,70
212640,note_off,240,0,3,,,,,,,,,2,,,61,0
212640,note_on,0,0,3,,,,,,,,,2,,,58,74
212880,note_on,0,0,3,,,,,,,,,2,,,54,77
212880,note_off,480,0,1,,,,,,,,,0,,,66,0
212880,note_off,240,0,3,,,,,,,,,2,,,58,0
213000,set_tempo,2760,1,0,,,,,,260869,,,,,,,
213120,note_off,240,0,3,,,,,,,,,2,,,54,0
213120,note_on,0,0,4,,,,,,,,,3,,,42,78
213120,note_off,0,0,4,,,,,,,,,3,,,42,0
213120,note_off,1440,0,4,,,,,,,,,3,,,30,0
213120,note_on,240,0,1,,,,,,,,,0,,,54,72
213120,set_tempo,120,1,0,,,,,,258620,,,,,,,
213360,note_on,0,0,1,,,,,,,,,0,,,56,72
213360,note_off,240,0,1,,,,,,,,,0,,,54,0
213600,note_off,480,0,4,,,,,,,,,3,,,42,0
213600,note_on,0,0,1,,,,,,,,,0,,,58,73
213600,note_off,240,0,1,,,,,,,,,0,,,56,0
213840,note_on,0,0,1,,,,,,,,,0,,,59,73
213840,note_on,0,0,4,,,,,,,,,3,,,42,79
213840,note_on,240,0,4,,,,,,,,,3,,,54,79
213840,note_off,240,0,1,,,,,,,,,0,,,58,0
214080,note_on,0,0,1,,,,,,,,,0,,,61,73
214080,note_off,240,0,1,,,,,,,,,0,,,59,0
214320,note_off,240,0,1,,,,,,,,,0,,,61,0
214320,note_on,0,0,1,,,,,,,,,0,,,62,74
214320,note_off,0,0,4,,,,,,,,,3,,,54,0
214320,note_off,480,0,4,,,,,,,,,3,,,42,0
214560,note_on,240,0,4,,,,,,,,,3,,,42,81
214560,note_off,240,0,1,,,,,,,,,0,,,62,0
214560,note_on,0,0,1,,,,,,,,,0,,,64,74
214560,note_on,0,0,4,,,,,,,,,3,,,54,81
214800,note_off,240,0,1,,,,,,,,,0,,,64,0
214800,note_on,0,0,1,,,,,,,,,0,,,66,75
215040,note_off,240,0,1,,,,,,,,,0,,,66,0
215040,note_on,0,0,1,,,,,,,,,0,,,68,75
215040,note_off,0,0,4,,,,,,,,,3,,,42,0
215040,note_off,480,0,4,,,,,,,,,3,,,54,0
215280,note_on,240,0,4,,,,,,,,,3,,,42,82
215280,note_on,0,0,1,,,,,,,,,0,,,70,75
215280,note_on,0,0,4,,,,,,,,,3,,,54,82
215280,note_off,240,0,1,,,,,,,,,0,,,68,0
215520,note_off,240,0,1,,,,,,,,,0,,,70,0
215520,note_on,0,0,1,,,,,,,,,0,,,71,76
215760,note_off,240,0,1,,,,,,,,,0,,,71,0
215760,note_on,0,0,1,,,,,,,,,0,,,73,76
215760,note_off,480,0,4,,,,,,,,,3,,,54,0
215760,note_off,0,0,4,,,,,,,,,3,,,42,0
215880,set_tempo,2760,1,0,,,,,,260869,,,,,,,
216000,note_on,0,0,1,,,,,,,,,0,,,74,77
216000,note_off,240,0,1,,,,,,,,,0,,,73,0
216000,set_tempo,120,1,0,,,,,,258620,,,,,,,
216000,note_on,240,0,4,,,,,,,,,3,,,38,84
216000,note_on,0,0,4,,,,,,,,,3,,,50,84
216240,note_on,0,0,1,,,,,,,,,0,,,76,77
216240,note_off,240,0,1,,,,,,,,,0,,,74,0
216480,note_off,240,0,1,,,,,,,,,0,,,76,0
216480,note_on,0,0,1,,,,,,,,,0,,,78,78
216720,note_on,0,0,1,,,,,,,,,0,,,80,78
216720,note_off,240,0,1,,,,,,,,,0,,,78,0
216720,note_off,0,0,4,,,,,,,,,3,,,38,0
216720,note_on,0,0,4,,,,,,,,,3,,,49,86
216720,note_on,0,0,4,,,,,,,,,3,,,37,86
216720,note_off,720,0,4,,,,,,,,,3,,,50,0
216960,note_off,240,0,1,,,,,,,,,0,,,80,0
216960,note_on,0,0,1,,,,,,,,,0,,,81,78
217200,note_off,240,0,1,,,,,,,,,0,,,81,0
217200,note_on,0,0,1,,,,,,,,,0,,,82,79
217440,note_on,0,0,1,,,,,,,,,0,,,83,81
217440,note_off,240,0,1,,,,,,,,,0,,,82,0
217440,note_off,720,0,4,,,,,,,,,3,,,49,0
217440,note_off,0,0,4,,,,,,,,,3,,,37,0
217440,note_on,0,0,4,,,,,,,,,3,,,35,90
217440,note_on,0,0,4,,,,,,,,,3,,,47,90
217680,note_on,0,0,1,,,,,,,,,0,,,82,80
217680,note_off,240,0,1,,,,,,,,,0,,,83,0
217920,note_on,0,0,1,,,,,,,,,0,,,83,80
217920,note_off,240,0,1,,,,,,,,,0,,,82,0
218160,note_on,0,0,1,,,,,,,,,0,,,85,79
218160,note_off,240,0,1,,,,,,,,,0,,,83,0
218160,note_off,0,0,4,,,,,,,,,3,,,35,0
218160,note_off,720,0,4,,,,,,,,,3,,,47,0
218160,note_on,0,0,4,,,,,,,,,3,,,33,85
218160,note_on,0,0,4,,,,,,,,,3,,,45,85
218400,note_on,0,0,1,,,,,,,,,0,,,86,79
218400,note_off,240,0,1,,,,,,,,,0,,,85,0
218640,note_off,240,0,1,,,,,,,,,0,,,86,0
218640,note_on,0,0,1,,,,,,,,,0,,,88,78
218640,note_on,0,0,4,,,,,,,,,3,,,43,83
218640,note_on,0,0,4,,,,,,,,,3,,,31,83
218640,note_off,0,0,4,,,,,,,,,3,,,33,0
218640,note_off,480,0,4,,,,,,,,,3,,,45,0
218760,set_tempo,2760,1,0,,,,,,260869,,,,,,,
218880,note_on,0,0,4,,,,,,,,,3,,,30,82
218880,note_off,240,0,4,,,,,,,,,3,,,43,0
218880,note_on,25440,0,2,,,,,,,,,1,,,78,76
218880,note_on,0,0,4,,,,,,,,,3,,,42,82
218880,note_on,0,0,1,,,,,,,,,0,,,90,76
218880,note_off,240,0,1,,,,,,,,,0,,,88,0
218880,set_tempo,120,1,0,,,,,,258620,,,,,,,
218880,note_off,0,0,4,,,,,,,,,3,,,31,0
219120,note_on,0,0,4,,,,,,,,,3,,,44,81
219120,note_off,240,0,4,,,,,,,,,3,,,42,0
219360,note_off,480,0,1,,,,,,,,,0,,,90,0
219360,note_off,480,0,2,,,,,,,,,1,,,78,0
219360,note_off,240,0,4,,,,,,,,,3,,,44,0
219360,note_off,0,0,4,,,,,,,,,3,,,30,0
219360,note_on,0,0,4,,,,,,,,,3,,,46,81
219600,note_on,240,0,2,,,,,,,,,1,,,78,78
219600,note_on,240,0,1,,,,,,,,,0,,,90,78
219600,note_off,240,0,4,,,,,,,,,3,,,46,0
219600,note_on,0,0,4,,,,,,,,,3,,,47,82
219840,note_off,240,0,4,,,,,,,,,3,,,47,0
219840,note_on,0,0,4,,,,,,,,,3,,,49,82
220080,note_off,480,0,2,,,,,,,,,1,,,78,0
220080,note_off,240,0,4,,,,,,,,,3,,,49,0
220080,note_on,0,0,4,,,,,,,,,3,,,50,83
220080,note_off,480,0,1,,,,,,,,,0,,,90,0
220320,note_on,0,0,4,,,,,,,,,3,,,52,83
220320,note_on,240,0,1,,,,,,,,,0,,,90,79
220320,note_on,240,0,2,,,,,,,,,1,,,78,79
220320,note_off,240,0,4,,,,,,,,,3,,,50,0
220560,note_off,240,0,4,,,,,,,,,3,,,52,0
220560,note_on,0,0,4,,,,,,,,,3,,,54,83
220800,note_off,480,0,2,,,,,,,,,1,,,78,0
220800,note_off,240,0,4,,,,,,,,,3,,,54,0
220800,note_on,0,0,4,,,,,,,,,3,,,56,84
220800,note_off,480,0,1,,,,,,,,,0,,,90,0
221040,note_off,240,0,4,,,,,,,,,3,,,56,0
221040,note_on,0,0,4,,,,,,,,,3,,,58,84
221040,note_on,240,0,1,,,,,,,,,0,,,90,81
221040,note_on,240,0,2,,,,,,,,,1,,,78,81
221280,note_on,0,0,4,,,,,,,,,3,,,59,84
221280,note_off,240,0,4,,,,,,,,,3,,,58,0
221520,note_off,480,0,2,,,,,,,,,1,,,78,0
221520,note_off,480,0,1,,,,,,,,,0,,,90,0
221520,note_off,240,0,4,,,,,,,,,3,,,59,0
221520,note_on,0,0,4,,,,,,,,,3,,,61,85
221640,set_tempo,2760,1,0,,,,,,260869,,,,,,,
221760,set_tempo,120,1,0,,,,,,258620,,,,,,,
221760,note_on,240,0,1,,,,,,,,,0,,,90,83
221760,note_on,240,0,2,,,,,,,,,1,,,78,83
221760,note_off,240,0,4,,,,,,,,,3,,,61,0
221760,note_on,0,0,4,,,,,,,,,3,,,62,85
222000,note_off,240,0,4,,,,,,,,,3,,,62,0
222000,note_on,0,0,4,,,,,,,,,3,,,64,86
222240,note_on,0,0,4,,,,,,,,,3,,,66,86
222240,note_off,240,0,4,,,,,,,,,3,,,64,0
222480,note_on,0,0,4,,,,,,,,,3,,,68,86
222480,note_on,0,0,1,,,,,,,,,0,,,85,68
222480,note_off,720,0,1,,,,,,,,,0,,,90,0
222480,note_off,240,0,4,,,,,,,,,3,,,66,0
222560,note_on,0,0,1,,,,,,,,,0,,,86,70
222560,note_off,80,0,1,,,,,,,,,0,,,85,0
222640,note_off,80,0,1,,,,,,,,,0,,,86,0
222640,note_on,0,0,1,,,,,,,,,0,,,85,72
222720,note_on,0,0,1,,,,,,,,,0,,,86,73
222720,note_off,80,0,1,,,,,,,,,0,,,85,0
222720,note_off,240,0,4,,,,,,,,,3,,,68,0
222720,note_on,0,0,4,,,,,,,,,3,,,69,87
222800,note_off,80,0,1,,,,,,,,,0,,,86,0
222800,note_on,0,0,1,,,,,,,,,0,,,85,75
222880,note_off,80,0,1,,,,,,,,,0,,,85,0
222880,note_on,0,0,1,,,,,,,,,0,,,86,77
222960,note_off,240,0,4,,,,,,,,,3,,,69,0
222960,note_on,0,0,4,,,,,,,,,3,,,70,87
222960,note_off,80,0,1,,,,,,,,,0,,,86,0
222960,note_on,0,0,1,,,,,,,,,0,,,85,79
223040,note_off,80,0,1,,,,,,,,,0,,,85,0
223040,note_on,0,0,1,,,,,,,,,0,,,83,81
223120,note_on,0,0,1,,,,,,,,,0,,,85,82
223120,note_off,80,0,1,,,,,,,,,0,,,83,0
223140,set_tempo,1380,1,0,,,,,,260869,,,,,,,
223180,note_off,1420,0,2,,,,,,,,,1,,,78,0
223200,note_on,0,0,4,,,,,,,,,3,,,71,87
223200,note_off,240,0,4,,,,,,,,,3,,,70,0
223200,note_on,0,0,1,,,,,,,,,0,,,83,87
223200,set_tempo,60,1,0,,,,,,258620,,,,,,,
223200,note_off,80,0,1,,,,,,,,,0,,,85,0
223440,note_on,0,0,4,,,,,,,,,3,,,70,87
223440,note_off,240,0,4,,,,,,,,,3,,,71,0
223680,note_off,240,0,4,,,,,,,,,3,,,70,0
223680,note_on,0,0,4,,,,,,,,,3,,,71,87
223920,note_off,720,0,1,,,,,,,,,0,,,83,0
223920,note_off,240,0,4,,,,,,,,,3,,,71,0
223920,note_on,0,0,4,,,,,,,,,3,,,73,86
223920,note_on,0,0,1,,,,,,,,,0,,,81,86
224160,note_off,240,0,4,,,,,,,,,3,,,73,0
224160,note_on,0,0,4,,,,,,,,,3,,,74,86
224400,note_on,0,0,1,,,,,,,,,0,,,79,85
224400,note_off,480,0,1,,,,,,,,,0,,,81,0
224400,note_off,240,0,4,,,,,,,,,3,,,74,0
224400,note_on,0,0,4,,,,,,,,,3,,,76,86
224520,set_tempo,1320,1,0,,,,,,260869,,,,,,,
224640,note_off,240,0,4,,,,,,,,,3,,,76,0
224640,note_on,0,0,4,,,,,,,,,3,,,66,85
224640,note_on,0,0,1,,,,,,,,,0,,,78,85
224640,note_off,240,0,1,,,,,,,,,0,,,79,0
224880,note_off,240,0,4,,,,,,,,,3,,,66,0
224880,note_off,240,0,1,,,,,,,,,0,,,78,0
225360,note_on,480,0,1,,,,,,,,,0,,,78,83
225360,note_on,480,0,4,,,,,,,,,3,,,42,84
225360,note_on,2180,0,2,,,,,,,,,1,,,66,83
225360,note_on,0,0,4,,,,,,,,,3,,,54,84
225600,note_off,240,0,2,,,,,,,,,1,,,66,0
225600,note_off,240,0,4,,,,,,,,,3,,,54,0
225600,note_off,0,0,4,,,,,,,,,3,,,42,0
225600,note_off,240,0,1,,,,,,,,,0,,,78,0
225840,set_tempo,1320,1,0,,,,,,269058,,,,,,,
226080,note_on,0,0,4,,,,,,,,,3,,,47,95
226080,note_on,480,0,4,,,,,,,,,3,,,35,95
226080,set_tempo,240,1,0,,,,,,258620,,,,,,,
226080,note_on,0,0,1,,,,,,,,,0,,,71,82
226080,note_on,480,0,1,,,,,,,,,0,,,83,82
226560,note_off,480,0,1,,,,,,,,,0,,,83,0
227040,note_off,480,0,1,,,,,,,,,0,,,71,0
227040,note_on,0,0,1,,,,,,,,,0,,,66,85
227280,note_off,240,0,1,,,,,,,,,0,,,66,0
227280,note_on,0,0,1,,,,,,,,,0,,,74,84
227520,note_off,1440,0,4,,,,,,,,,3,,,47,0
227520,note_off,0,0,4,,,,,,,,,3,,,35,0
227520,note_on,0,0,4,,,,,,,,,3,,,45,88
227520,note_on,0,0,4,,,,,,,,,3,,,33,88
227520,note_off,240,0,1,,,,,,,,,0,,,74,0
227520,note_on,0,0,1,,,,,,,,,0,,,74,84
227760,note_off,240,0,1,,,,,,,,,0,,,74,0
227760,note_on,0,0,1,,,,,,,,,0,,,71,83
228000,note_off,240,0,1,,,,,,,,,0,,,71,0
228000,note_on,0,0,1,,,,,,,,,0,,,78,82
228240,note_on,0,0,1,,,,,,,,,0,,,78,81
228240,note_off,240,0,1,,,,,,,,,0,,,78,0
228480,note_off,240,0,1,,,,,,,,,0,,,78,0
228480,note_on,0,0,1,,,,,,,,,0,,,74,80
228720,note_off,240,0,1,,,,,,,,,0,,,74,0
228720,note_on,0,0,1,,,,,,,,,0,,,83,79
228960,note_on,0,0,4,,,,,,,,,3,,,43,82
228960,note_off,0,0,4,,,,,,,,,3,,,33,0
228960,note_on,0,0,1,,,,,,,,,0,,,83,78
228960,note_off,1440,0,4,,,,,,,,,3,,,45,0
228960,note_off,240,0,1,,,,,,,,,0,,,83,0
228960,note_on,0,0,4,,,,,,,,,3,,,31,82
229200,note_off,240,0,1,,,,,,,,,0,,,83,0
229200,note_on,0,0,1,,,,,,,,,0,,,88,77
229440,note_off,240,0,1,,,,,,,,,0,,,88,0
229440,note_on,0,0,1,,,,,,,,,0,,,86,76
229680,note_off,0,0,4,,,,,,,,,3,,,43,0
229680,note_off,240,0,1,,,,,,,,,0,,,86,0
229680,note_off,720,0,4,,,,,,,,,3,,,31,0
229680,note_on,0,0,4,,,,,,,,,3,,,40,78
229680,note_on,0,0,1,,,,,,,,,0,,,85,75
229920,note_off,240,0,1,,,,,,,,,0,,,85,0
229920,note_on,0,0,1,,,,,,,,,0,,,86,74
230160,note_off,240,0,1,,,,,,,,,0,,,86,0
230160,note_on,0,0,1,,,,,,,,,0,,,83,73
230400,note_off,240,0,1,,,,,,,,,0,,,83,0
230400,note_on,0,0,4,,,,,,,,,3,,,42,77
230400,note_off,720,0,4,,,,,,,,,3,,,40,0
230400,note_on,0,0,1,,,,,,,,,0,,,82,72
230640,note_off,240,0,1,,,,,,,,,0,,,82,0
230640,note_on,0,0,1,,,,,,,,,0,,,79,71
230880,note_off,240,0,1,,,,,,,,,0,,,79,0
230880,note_on,0,0,1,,,,,,,,,0,,,78,70
231120,note_off,240,0,1,,,,,,,,,0,,,78,0
231120,note_on,0,0,1,,,,,,,,,0,,,76,69
231120,note_on,0,0,4,,,,,,,,,3,,,44,74
231120,note_off,720,0,4,,,,,,,,,3,,,42,0
231360,note_on,0,0,1,,,,,,,,,0,,,74,68
231360,note_off,240,0,1,,,,,,,,,0,,,76,0
231600,note_on,0,0,4,,,,,,,,,3,,,46,72
231600,note_off,480,0,4,,,,,,,,,3,,,44,0
231600,note_off,240,0,1,,,,,,,,,0,,,74,0
231600,note_on,0,0,1,,,,,,,,,0,,,73,68
231720,set_tempo,5640,1,0,,,,,,260869,,,,,,,
231840,note_off,240,0,1,,,,,,,,,0,,,73,0
231840,note_on,0,0,1,,,,,,,,,0,,,71,51
231840,note_off,240,0,4,,,,,,,,,3,,,46,0
231840,note_on,0,0,4,,,,,,,,,3,,,35,51
232080,note_on,18960,0,3,,,,,,,,,2,,,47,51
232320,note_on,0,0,4,,,,,,,,,3,,,35,51
232320,note_off,480,0,4,,,,,,,,,3,,,35,0
232560,note_on,0,0,3,,,,,,,,,2,,,47,51
232560,note_off,480,0,3,,,,,,,,,2,,,47,0
232800,note_off,480,0,4,,,,,,,,,3,,,35,0
232800,note_on,0,0,4,,,,,,,,,3,,,35,51
233040,note_on,0,0,3,,,,,,,,,2,,,47,51
233040,note_off,480,0,3,,,,,,,,,2,,,47,0
233280,note_off,480,0,4,,,,,,,,,3,,,35,0
233280,note_on,0,0,4,,,,,,,,,3,,,35,51
233280,note_off,1440,0,1,,,,,,,,,0,,,71,0
233280,note_on,0,0,1,,,,,,,,,0,,,69,51
233520,note_off,480,0,3,,,,,,,,,2,,,47,0
233520,note_on,0,0,3,,,,,,,,,2,,,47,51
233760,note_on,0,0,4,,,,,,,,,3,,,35,51
233760,note_off,480,0,4,,,,,,,,,3,,,35,0
234000,note_off,480,0,3,,,,,,,,,2,,,47,0
234000,note_on,0,0,3,,,,,,,,,2,,,47,51
234240,note_on,0,0,4,,,,,,,,,3,,,35,51
234240,note_off,480,0,4,,,,,,,,,3,,,35,0
234480,note_on,0,0,3,,,,,,,,,2,,,47,51
234480,note_off,480,0,3,,,,,,,,,2,,,47,0
234720,note_off,480,0,4,,,,,,,,,3,,,35,0
234720,note_on,0,0,4,,,,,,,,,3,,,35,51
234720,note_on,9120,0,2,,,,,,,,,1,,,67,51
234720,note_off,1440,0,1,,,,,,,,,0,,,69,0
234720,note_on,0,0,1,,,,,,,,,0,,,76,51
234960,note_on,0,0,3,,,,,,,,,2,,,47,51
234960,note_off,480,0,3,,,,,,,,,2,,,47,0
235200,note_on,0,0,4,,,,,,,,,3,,,35,50
235200,note_off,480,0,4,,,,,,,,,3,,,35,0
235440,note_off,480,0,3,,,,,,,,,2,,,47,0
235440,note_off,720,0,2,,,,,,,,,1,,,67,0
235440,note_on,0,0,2,,,,,,,,,1,,,64,50
235440,note_on,0,0,3,,,,,,,,,2,,,47,50
235680,note_off,480,0,4,,,,,,,,,3,,,35,0
235680,note_on,0,0,4,,,,,,,,,3,,,35,50
235920,note_off,480,0,3,,,,,,,,,2,,,47,0
235920,note_on,0,0,3,,,,,,,,,2,,,47,50
236160,note_on,0,0,4,,,,,,,,,3,,,35,50
236160,note_on,0,0,1,,,,,,,,,0,,,74,50
236160,note_on,0,0,2,,,,,,,,,1,,,66,50
236160,note_off,720,0,2,,,,,,,,,1,,,64,0
236160,note_off,1440,0,1,,,,,,,,,0,,,76,0
236160,note_off,480,0,4,,,,,,,,,3,,,35,0
236400,note_off,480,0,3,,,,,,,,,2,,,47,0
236400,note_on,0,0,3,,,,,,,,,2,,,47,50
236640,note_off,480,0,4,,,,,,,,,3,,,35,0
236640,note_on,0,0,4,,,,,,,,,3,,,35,50
236880,note_off,480,0,3,,,,,,,,,2,,,47,0
236880,note_on,0,0,3,,,,,,,,,2,,,47,50
237120,note_on,0,0,4,,,,,,,,,3,,,35,50
237120,note_off,480,0,4,,,,,,,,,3,,,35,0
237360,note_off,480,0,3,,,,,,,,,2,,,47,0
237360,note_on,0,0,3,,,,,,,,,2,,,47,50
237600,note_off,1440,0,2,,,,,,,,,1,,,66,0
237600,note_on,0,0,2,,,,,,,,,1,,,64,50
237600,note_off,480,0,4,,,,,,,,,3,,,35,0
237600,note_on,0,0,1,,,,,,,,,0,,,73,50
237600,note_off,1440,0,1,,,,,,,,,0,,,74,0
237600,note_on,0,0,4,,,,,,,,,3,,,35,50
237840,note_off,480,0,3,,,,,,,,,2,,,47,0
237840,note_on,0,0,3,,,,,,,,,2,,,47,50
238080,note_on,0,0,4,,,,,,,,,3,,,35,50
238080,note_off,480,0,4,,,,,,,,,3,,,35,0
238320,note_on,0,0,3,,,,,,,,,2,,,47,49
238320,note_off,480,0,3,,,,,,,,,2,,,47,0
238320,note_off,720,0,1,,,,,,,,,0,,,73,0
238320,note_on,0,0,1,,,,,,,,,0,,,70,49
238560,note_on,0,0,4,,,,,,,,,3,,,35,49
238560,note_off,480,0,4,,,,,,,,,3,,,35,0
238800,note_on,0,0,3,,,,,,,,,2,,,47,49
238800,note_off,480,0,3,,,,,,,,,2,,,47,0
239040,note_off,480,0,4,,,,,,,,,3,,,35,0
239040,note_on,0,0,4,,,,,,,,,3,,,35,49
239040,note_on,0,0,2,,,,,,,,,1,,,62,49
239040,note_off,1440,0,2,,,,,,,,,1,,,64,0
239040,note_off,720,0,1,,,,,,,,,0,,,70,0
239040,note_on,0,0,1,,,,,,,,,0,,,71,49
239280,note_on,0,0,3,,,,,,,,,2,,,47,49
239280,note_off,480,0,3,,,,,,,,,2,,,47,0
239520,note_off,480,0,4,,,,,,,,,3,,,35,0
239520,note_on,0,0,4,,,,,,,,,3,,,35,49
239760,note_off,480,0,3,,,,,,,,,2,,,47,0
239760,note_on,0,0,3,,,,,,,,,2,,,47,49
240000,note_on,0,0,4,,,,,,,,,3,,,35,49
240000,note_off,480,0,4,,,,,,,,,3,,,35,0
240240,note_off,480,0,3,,,,,,,,,2,,,47,0
240240,note_on,0,0,3,,,,,,,,,2,,,47,49
240480,note_on,0,0,1,,,,,,,,,0,,,69,49
240480,note_off,1440,0,1,,,,,,,,,0,,,71,0
240480,note_on,0,0,2,,,,,,,,,1,,,60,49
240480,note_on,0,0,4,,,,,,,,,3,,,35,49
240480,note_off,480,0,4,,,,,,,,,3,,,35,0
240480,note_off,1440,0,2,,,,,,,,,1,,,62,0
240720,note_on,0,0,3,,,,,,,,,2,,,47,49
240720,note_off,480,0,3,,,,,,,,,2,,,47,0
240960,note_off,480,0,4,,,,,,,,,3,,,35,0
240960,note_on,0,0,4,,,,,,,,,3,,,35,49
241200,note_off,480,0,3,,,,,,,,,2,,,47,0
241200,note_off,720,0,2,,,,,,,,,1,,,60,0
241200,note_on,0,0,2,,,,,,,,,1,,,57,49
241200,note_on,0,0,3,,,,,,,,,2,,,47,49
241440,note_off,480,0,4,,,,,,,,,3,,,35,0
241440,note_on,0,0,4,,,,,,,,,3,,,35,48
241680,note_on,0,0,3,,,,,,,,,2,,,47,48
241680,note_off,480,0,3,,,,,,,,,2,,,47,0
241920,note_off,720,0,2,,,,,,,,,1,,,57,0
241920,note_on,0,0,4,,,,,,,,,3,,,35,48
241920,note_off,1440,0,1,,,,,,,,,0,,,69,0
241920,note_off,480,0,4,,,,,,,,,3,,,35,0
241920,note_on,0,0,1,,,,,,,,,0,,,67,48
241920,note_on,0,0,2,,,,,,,,,1,,,59,48
242160,note_off,480,0,3,,,,,,,,,2,,,47,0
242160,note_on,0,0,3,,,,,,,,,2,,,47,48
242400,note_off,480,0,4,,,,,,,,,3,,,35,0
242400,note_on,0,0,4,,,,,,,,,3,,,35,48
242640,note_off,480,0,3,,,,,,,,,2,,,47,0
242640,note_on,0,0,3,,,,,,,,,2,,,47,48
242880,note_off,480,0,4,,,,,,,,,3,,,35,0
242880,note_on,0,0,4,,,,,,,,,3,,,35,48
243120,note_off,480,0,3,,,,,,,,,2,,,47,0
243120,note_on,0,0,3,,,,,,,,,2,,,47,48
243360,note_off,1440,0,2,,,,,,,,,1,,,59,0
243360,note_on,0,0,2,,,,,,,,,1,,,57,48
243360,note_on,0,0,1,,,,,,,,,0,,,66,48
243360,note_off,1440,0,1,,,,,,,,,0,,,67,0
243360,note_on,0,0,4,,,,,,,,,3,,,35,48
243360,note_off,480,0,4,,,,,,,,,3,,,35,0
243600,note_on,0,0,3,,,,,,,,,2,,,47,48
243600,note_off,480,0,3,,,,,,,,,2,,,47,0
243840,note_off,480,0,4,,,,,,,,,3,,,35,0
243840,note_on,0,0,4,,,,,,,,,3,,,35,48
244080,note_on,0,0,3,,,,,,,,,2,,,47,48
244080,note_off,480,0,3,,,,,,,,,2,,,47,0
244080,note_off,720,0,1,,,,,,,,,0,,,66,0
244080,note_on,0,0,1,,,,,,,,,0,,,63,48
244320,note_on,0,0,4,,,,,,,,,3,,,35,48
244320,note_off,480,0,4,,,,,,,,,3,,,35,0
244560,note_off,480,0,3,,,,,,,,,2,,,47,0
244560,note_on,0,0,3,,,,,,,,,2,,,47,48
244740,set_tempo,13020,1,0,,,,,,263157,,,,,,,
244740,control_change,420,0,4,,,,,,,64,0,3,,,,
244800,note_off,240,0,3,,,,,,,,,2,,,47,0
244800,note_on,0,0,1,,,,,,,,,0,,,64,47
244800,note_on,0,0,2,,,,,,,,,1,,,55,47
244800,set_tempo,60,1,0,,,,,,260869,,,,,,,
244800,note_on,0,0,4,,,,,,,,,3,,,36,47
244800,note_off,1440,0,2,,,,,,,,,1,,,57,0
244800,note_off,60,0,4,,,,,,,,,3,,,35,0
244800,note_off,720,0,1,,,,,,,,,0,,,63,0
245040,note_on,240,0,3,,,,,,,,,2,,,48,47
245280,note_off,480,0,4,,,,,,,,,3,,,36,0
245280,note_on,0,0,4,,,,,,,,,3,,,36,47
245520,note_on,0,0,3,,,,,,,,,2,,,48,47
245520,note_off,480,0,3,,,,,,,,,2,,,48,0
245760,note_on,0,0,4,,,,,,,,,3,,,36,47
245760,note_off,480,0,4,,,,,,,,,3,,,36,0
246000,note_off,480,0,3,,,,,,,,,2,,,48,0
246000,note_on,0,0,3,,,,,,,,,2,,,48,47
246240,note_on,0,0,2,,,,,,,,,1,,,53,47
246240,note_off,1440,0,1,,,,,,,,,0,,,64,0
246240,note_on,0,0,1,,,,,,,,,0,,,57,47
246240,note_off,1440,0,2,,,,,,,,,1,,,55,0
246240,note_off,480,0,4,,,,,,,,,3,,,36,0
246240,note_on,0,0,4,,,,,,,,,3,,,36,47
246480,note_off,480,0,3,,,,,,,,,2,,,48,0
246480,note_on,0,0,3,,,,,,,,,2,,,48,47
246720,note_off,480,0,4,,,,,,,,,3,,,36,0
246720,note_on,0,0,4,,,,,,,,,3,,,36,47
246960,note_on,0,0,3,,,,,,,,,2,,,48,47
246960,note_off,720,0,2,,,,,,,,,1,,,53,0
246960,note_on,0,0,2,,,,,,,,,1,,,50,47
246960,note_off,480,0,3,,,,,,,,,2,,,48,0
247200,note_off,480,0,4,,,,,,,,,3,,,36,0
247200,note_on,0,0,4,,,,,,,,,3,,,36,47
247440,note_off,480,0,3,,,,,,,,,2,,,48,0
247440,note_on,0,0,3,,,,,,,,,2,,,48,47
247680,note_off,480,0,4,,,,,,,,,3,,,36,0
247680,note_off,1440,0,1,,,,,,,,,0,,,57,0
247680,note_on,0,0,2,,,,,,,,,1,,,64,47
247680,note_off,720,0,2,,,,,,,,,1,,,50,0
247680,note_on,0,0,1,,,,,,,,,0,,,67,51
247680,note_on,0,0,4,,,,,,,,,3,,,36,47
247920,note_on,0,0,3,,,,,,,,,2,,,48,46
247920,note_off,480,0,3,,,,,,,,,2,,,48,0
248160,note_on,0,0,4,,,,,,,,,3,,,36,46
248160,note_off,480,0,4,,,,,,,,,3,,,36,0
248400,note_off,480,0,3,,,,,,,,,2,,,48,0
248400,note_on,0,0,3,,,,,,,,,2,,,48,46
248640,note_on,0,0,4,,,,,,,,,3,,,36,46
248640,note_off,480,0,4,,,,,,,,,3,,,36,0
248880,note_off,480,0,3,,,,,,,,,2,,,48,0
248880,note_on,0,0,3,,,,,,,,,2,,,48,46
249120,note_on,0,0,1,,,,,,,,,0,,,65,46
249120,note_on,0,0,4,,,,,,,,,3,,,36,46
249120,note_on,0,0,2,,,,,,,,,1,,,56,46
249120,note_off,1440,0,2,,,,,,,,,1,,,64,0
249120,note_off,1440,0,1,,,,,,,,,0,,,67,0
249120,note_off,480,0,4,,,,,,,,,3,,,36,0
249360,note_on,0,0,3,,,,,,,,,2,,,48,46
249360,note_off,480,0,3,,,,,,,,,2,,,48,0
249600,note_off,480,0,4,,,,,,,,,3,,,36,0
249600,note_on,0,0,4,,,,,,,,,3,,,36,46
249840,note_on,0,0,3,,,,,,,,,2,,,48,46
249840,note_on,0,0,1,,,,,,,,,0,,,62,46
249840,note_off,720,0,1,,,,,,,,,0,,,65,0
249840,note_off,480,0,3,,,,,,,,,2,,,48,0
250080,note_off,480,0,4,,,,,,,,,3,,,36,0
250080,note_on,0,0,4,,,,,,,,,3,,,36,46
250320,note_off,480,0,3,,,,,,,,,2,,,48,0
250320,note_on,0,0,3,,,,,,,,,2,,,48,46
250440,set_tempo,5640,1,0,,,,,,266666,,,,,,,
250500,note_on,0,0,4,,,,,,,,,3,,,48,51
250500,control_change,420,0,4,,,,,,,64,0,3,,,,
250560,note_off,60,0,4,,,,,,,,,3,,,36,0
250560,note_off,1440,0,2,,,,,,,,,1,,,56,0
250560,note_off,720,0,1,,,,,,,,,0,,,62,0
250560,note_on,0,0,2,,,,,,,,,1,,,55,46
250560,set_tempo,120,1,0,,,,,,260869,,,,,,,
250560,note_on,0,0,1,,,,,,,,,0,,,64,46
250560,note_off,240,0,3,,,,,,,,,2,,,48,0
251280,note_off,720,0,1,,,,,,,,,0,,,64,0
251280,note_on,0,0,1,,,,,,,,,0,,,72,48
251280,note_off,720,0,2,,,,,,,,,1,,,55,0
251280,note_on,0,0,2,,,,,,,,,1,,,64,45
252000,note_on,0,0,4,,,,,,,,,3,,,50,45
252000,note_off,720,0,2,,,,,,,,,1,,,64,0
252000,note_on,0,0,2,,,,,,,,,1,,,68,45
252000,note_off,1440,0,4,,,,,,,,,3,,,48,0
252720,note_off,720,0,2,,,,,,,,,1,,,68,0
252720,note_on,0,0,2,,,,,,,,,1,,,65,45
252720,note_on,0,0,1,,,,,,,,,0,,,71,45
252720,note_off,1440,0,1,,,,,,,,,0,,,72,0
253320,set_tempo,2760,1,0,,,,,,263157,,,,,,,
253440,note_on,0,0,4,,,,,,,,,3,,,52,45
253440,set_tempo,120,1,0,,,,,,260869,,,,,,,
253440,note_off,720,0,1,,,,,,,,,0,,,71,0
253440,note_off,720,0,2,,,,,,,,,1,,,65,0
253440,note_off,1440,0,4,,,,,,,,,3,,,50,0
253440,note_on,2880,0,3,,,,,,,,,2,,,55,45
254160,note_on,720,0,1,,,,,,,,,0,,,72,45
254880,note_off,1440,0,3,,,,,,,,,2,,,55,0
254880,note_on,0,0,4,,,,,,,,,3,,,54,44
254880,note_on,720,0,1,,,,,,,,,0,,,76,47
254880,note_on,0,0,3,,,,,,,,,2,,,57,44
254880,note_off,1440,0,4,,,,,,,,,3,,,52,0
255600,note_on,0,0,1,,,,,,,,,0,,,75,44
255600,note_on,2160,0,2,,,,,,,,,1,,,71,44
255600,note_off,720,0,1,,,,,,,,,0,,,76,0
255637,note_off,37,0,1,,,,,,,,,0,,,72,0
256200,set_tempo,2760,1,0,,,,,,263157,,,,,,,
256320,note_on,0,0,2,,,,,,,,,1,,,59,44
256320,note_off,683,0,1,,,,,,,,,0,,,75,0
256320,note_on,0,0,1,,,,,,,,,0,,,64,44
256320,set_tempo,120,1,0,,,,,,260869,,,,,,,
256320,note_off,720,0,2,,,,,,,,,1,,,71,0
256320,note_on,0,0,3,,,,,,,,,2,,,56,44
256320,note_off,1440,0,3,,,,,,,,,2,,,57,0
256320,note_off,1440,0,4,,,,,,,,,3,,,54,0
257040,note_on,720,0,4,,,,,,,,,3,,,47,44
257040,note_on,0,0,2,,,,,,,,,1,,,62,44
257040,note_off,720,0,2,,,,,,,,,1,,,59,0
257760,note_off,1440,0,1,,,,,,,,,0,,,64,0
257760,note_on,0,0,4,,,,,,,,,3,,,45,43
257760,note_on,0,0,1,,,,,,,,,0,,,65,43
257760,note_on,0,0,3,,,,,,,,,2,,,57,43
257760,note_off,1440,0,3,,,,,,,,,2,,,56,0
257760,note_off,720,0,4,,,,,,,,,3,,,47,0
258480,note_on,0,0,4,,,,,,,,,3,,,48,43
258480,note_off,1440,0,2,,,,,,,,,1,,,62,0
258480,note_off,720,0,4,,,,,,,,,3,,,45,0
258480,note_on,0,0,2,,,,,,,,,1,,,60,43
259200,note_off,720,0,2,,,,,,,,,1,,,60,0
259200,note_off,1440,0,1,,,,,,,,,0,,,65,0
259200,note_off,720,0,4,,,,,,,,,3,,,48,0
259200,note_off,1440,0,3,,,,,,,,,2,,,57,0
259200,note_on,0,0,1,,,,,,,,,0,,,74,43
259200,note_on,0,0,4,,,,,,,,,3,,,47,43
259920,note_on,720,0,2,,,,,,,,,1,,,65,43
259920,note_on,720,0,3,,,,,,,,,2,,,56,43
260640,note_on,0,0,4,,,,,,,,,3,,,48,43
260640,note_off,1440,0,4,,,,,,,,,3,,,47,0
260640,note_off,1440,0,1,,,,,,,,,0,,,74,0
260640,note_on,0,0,1,,,,,,,,,0,,,72,43
260640,note_on,0,0,3,,,,,,,,,2,,,57,43
260640,note_off,720,0,3,,,,,,,,,2,,,56,0
260640,note_on,0,0,2,,,,,,,,,1,,,64,43
260640,note_off,720,0,2,,,,,,,,,1,,,65,0
261360,note_on,0,0,3,,,,,,,,,2,,,52,42
261360,note_off,720,0,2,,,,,,,,,1,,,64,0
261360,note_on,0,0,2,,,,,,,,,1,,,69,42
261360,note_off,720,0,3,,,,,,,,,2,,,57,0
262080,note_on,0,0,2,,,,,,,,,1,,,65,42
262080,note_on,0,0,2,,,,,,,,,1,,,62,42
262080,note_off,1440,0,1,,,,,,,,,0,,,72,0
262080,note_on,0,0,1,,,,,,,,,0,,,71,42
262080,note_off,720,0,3,,,,,,,,,2,,,52,0
262080,note_on,0,0,4,,,,,,,,,3,,,50,42
262080,note_off,1440,0,4,,,,,,,,,3,,,48,0
262080,note_off,720,0,2,,,,,,,,,1,,,69,0
262800,note_on,0,0,4,,,,,,,,,3,,,53,42
262800,note_on,0,0,2,,,,,,,,,1,,,62,42
262800,note_on,0,0,2,,,,,,,,,1,,,59,42
262800,note_off,0,0,2,,,,,,,,,1,,,62,0
262800,note_off,720,0,2,,,,,,,,,1,,,65,0
262800,note_off,720,0,4,,,,,,,,,3,,,50,0
262800,note_off,720,0,1,,,,,,,,,0,,,71,0
262800,note_on,0,0,1,,,,,,,,,0,,,68,42
263520,note_on,0,0,2,,,,,,,,,1,,,60,42
263520,note_off,0,0,2,,,,,,,,,1,,,59,0
263520,note_off,720,0,2,,,,,,,,,1,,,62,0
263520,note_on,0,0,1,,,,,,,,,0,,,69,42
263520,note_off,720,0,1,,,,,,,,,0,,,68,0
263520,note_off,720,0,4,,,,,,,,,3,,,53,0
263520,note_on,0,0,4,,,,,,,,,3,,,51,42
264240,note_on,0,0,2,,,,,,,,,1,,,66,41
264240,note_off,720,0,2,,,,,,,,,1,,,60,0
264960,note_on,0,0,1,,,,,,,,,0,,,67,41
264960,note_off,1440,0,1,,,,,,,,,0,,,69,0
264960,note_on,720,0,2,,,,,,,,,1,,,59,41
264960,note_off,1440,0,4,,,,,,,,,3,,,51,0
264960,note_on,0,0,4,,,,,,,,,3,,,40,41
265680,note_on,0,0,2,,,,,,,,,1,,,64,41
265680,note_off,720,0,2,,,,,,,,,1,,,66,0
266400,note_on,0,0,1,,,,,,,,,0,,,66,41
266400,note_on,0,0,2,,,,,,,,,1,,,57,41
266400,note_off,720,0,2,,,,,,,,,1,,,59,0
266400,note_on,0,0,4,,,,,,,,,3,,,42,41
266400,note_off,1440,0,1,,,,,,,,,0,,,67,0
266400,note_off,1440,0,4,,,,,,,,,3,,,40,0
267120,note_off,720,0,2,,,,,,,,,1,,,64,0
267120,note_on,0,0,2,,,,,,,,,1,,,63,41
267840,note_off,1440,0,1,,,,,,,,,0,,,66,0
267840,note_off,1440,0,4,,,,,,,,,3,,,42,0
267840,note_on,0,0,4,,,,,,,,,3,,,43,41
267840,note_off,720,0,2,,,,,,,,,1,,,63,0
267840,note_on,0,0,2,,,,,,,,,1,,,59,41
267840,note_off,0,0,2,,,,,,,,,1,,,57,0
267840,note_on,0,0,1,,,,,,,,,0,,,64,41
268550,set_tempo,12230,1,0,,,,,,319148,,,,,,,
268560,note_off,720,0,2,,,,,,,,,1,,,59,0
268560,note_on,0,0,4,,,,,,,,,3,,,40,41
268560,note_on,0,0,2,,,,,,,,,1,,,59,40
268560,note_off,720,0,1,,,,,,,,,0,,,64,0
268560,note_on,0,0,1,,,,,,,,,0,,,67,40
268560,note_off,720,0,4,,,,,,,,,3,,,43,0
269280,note_off,720,0,4,,,,,,,,,3,,,40,0
269280,note_off,720,0,2,,,,,,,,,1,,,59,0
269280,note_on,0,0,2,,,,,,,,,1,,,58,39
269280,note_off,720,0,1,,,,,,,,,0,,,67,0
269280,note_on,0,0,1,,,,,,,,,0,,,66,39
269280,note_on,0,0,4,,,,,,,,,3,,,42,40
270720,set_tempo,2170,1,0,,,,,,500000,,,,,,,
271680,note_off,2400,0,1,,,,,,,,,0,,,66,0
271680,note_off,2400,0,2,,,,,,,,,1,,,58,0
271680,note_off,2400,0,4,,,,,,,,,3,,,42,0
272040,control_change,360,0,1,,,,,,,64,0,0,,,,
272040,control_change,360,0,4,,,,,,,64,0,3,,,,
272160,set_tempo,1440,1,0,,,,,,260869,,,,,,,
272160,note_on,120,0,1,,,,,,,,,0,,,76,36
272160,note_on,480,0,2,,,,,,,,,1,,,71,36
272160,note_on,120,0,4,,,,,,,,,3,,,67,37
273600,note_on,0,0,2,,,,,,,,,1,,,69,35
273600,note_on,0,0,2,,,,,,,,,1,,,75,35
273600,note_off,1440,0,1,,,,,,,,,0,,,76,0
273600,note_off,1440,0,2,,,,,,,,,1,,,71,0
273600,note_on,0,0,1,,,,,,,,,0,,,78,35
273600,note_on,0,0,4,,,,,,,,,3,,,66,35
273600,note_off,1440,0,4,,,,,,,,,3,,,67,0
275040,note_on,0,0,4,,,,,,,,,3,,,64,34
275040,note_off,1440,0,1,,,,,,,,,0,,,78,0
275040,note_on,0,0,2,,,,,,,,,1,,,71,33
275040,note_off,0,0,2,,,,,,,,,1,,,69,0
275040,note_off,1440,0,2,,,,,,,,,1,,,75,0
275040,note_off,1440,0,4,,,,,,,,,3,,,66,0
275040,note_on,0,0,1,,,,,,,,,0,,,79,33
275760,note_on,0,0,1,,,,,,,,,0,,,76,33
275760,note_off,720,0,1,,,,,,,,,0,,,79,0
275760,note_off,720,0,4,,,,,,,,,3,,,64,0
275760,note_on,0,0,4,,,,,,,,,3,,,67,33
275760,note_on,0,0,2,,,,,,,,,1,,,71,33
275760,note_off,720,0,2,,,,,,,,,1,,,71,0
276255,set_tempo,4095,1,0,,,,,,263157,,,,,,,
276480,note_on,0,0,4,,,,,,,,,3,,,66,32
276480,note_off,720,0,4,,,,,,,,,3,,,67,0
276480,note_on,0,0,1,,,,,,,,,0,,,78,32
276480,note_on,0,0,2,,,,,,,,,1,,,70,32
276480,note_off,720,0,2,,,,,,,,,1,,,71,0
276480,note_off,720,0,1,,,,,,,,,0,,,76,0
277920,note_on,0,0,4,,,,,,,,,3,,,67,31
277920,note_off,1440,0,2,,,,,,,,,1,,,70,0
277920,note_on,0,0,2,,,,,,,,,1,,,71,30
277920,note_on,0,0,1,,,,,,,,,0,,,76,30
277920,note_off,1440,0,1,,,,,,,,,0,,,78,0
277920,set_tempo,1665,1,0,,,,,,263157,,,,,,,
277920,note_off,1440,0,4,,,,,,,,,3,,,66,0
278640,note_on,0,0,4,,,,,,,,,3,,,64,30
278640,note_off,720,0,1,,,,,,,,,0,,,76,0
278640,note_on,0,0,1,,,,,,,,,0,,,79,30
278640,note_off,720,0,4,,,,,,,,,3,,,67,0
278640,set_tempo,720,1,0,,,,,,269058,,,,,,,
278640,note_off,720,0,2,,,,,,,,,1,,,71,0
278640,note_on,0,0,2,,,,,,,,,1,,,71,30
279360,note_on,0,0,2,,,,,,,,,1,,,73,29
279360,note_off,720,0,2,,,,,,,,,1,,,71,0
279360,set_tempo,720,1,0,,,,,,273972,,,,,,,
279360,note_on,0,0,2,,,,,,,,,1,,,70,29
279360,note_off,720,0,1,,,,,,,,,0,,,79,0
279360,note_on,0,0,4,,,,,,,,,3,,,66,29
279360,note_off,720,0,4,,,,,,,,,3,,,64,0
279360,note_on,0,0,1,,,,,,,,,0,,,78,29
279840,note_off,480,0,4,,,,,,,,,3,,,66,0
279840,note_off,480,0,1,,,,,,,,,0,,,78,0
279840,note_off,480,0,2,,,,,,,,,1,,,70,0
279840,note_off,0,0,2,,,,,,,,,1,,,73,0
280800,note_on,960,0,2,,,,,,,,,1,,,71,27
280800,note_on,960,0,1,,,,,,,,,0,,,78,27
280800,note_on,0,0,2,,,,,,,,,1,,,74,27
280800,note_on,960,0,4,,,,,,,,,3,,,66,28
280800,set_tempo,1440,1,0,,,,,,280373,,,,,,,
281280,note_off,480,0,1,,,,,,,,,0,,,78,0
281280,note_off,0,0,2,,,,,,,,,1,,,71,0
281280,note_off,480,0,4,,,,,,,,,3,,,66,0
281280,note_off,480,0,2,,,,,,,,,1,,,74,0
282165,set_tempo,1365,1,0,,,,,,500000,,,,,,,
282240,note_on,960,0,2,,,,,,,,,1,,,70,26
282240,note_on,0,0,2,,,,,,,,,1,,,73,26
282240,note_on,960,0,4,,,,,,,,,3,,,66,26
282240,note_on,960,0,1,,,,,,,,,0,,,78,26
282720,note_off,0,0,2,,,,,,,,,1,,,70,0
282720,note_off,480,0,2,,,,,,,,,1,,,73,0
282720,note_off,480,0,1,,,,,,,,,0,,,78,0
282720,note_off,480,0,4,,,,,,,,,3,,,66,0
285120,set_tempo,2955,1,0,,,,,,263157,,,,,,,
285120,note_on,0,0,4,,,,,,,,,3,,,52,97
285120,note_on,0,0,4,,,,,,,,,3,,,40,97
285120,note_on,0,0,1,,,,,,,,,0,,,67,95
285120,control_change,2400,0,1,,,,,,,64,0,0,,,,
285120,control_change,2400,0,4,,,,,,,64,0,3,,,,
286080,note_on,0,0,1,,,,,,,,,0,,,64,94
286080,note_off,960,0,1,,,,,,,,,0,,,67,0
286320,note_on,0,0,1,,,,,,,,,0,,,71,94
286320,note_off,240,0,1,,,,,,,,,0,,,64,0
286560,note_off,1440,0,4,,,,,,,,,3,,,52,0
286560,note_off,0,0,4,,,,,,,,,3,,,40,0
286560,note_on,0,0,4,,,,,,,,,3,,,38,95
286560,note_on,0,0,4,,,,,,,,,3,,,50,95
286560,note_off,240,0,1,,,,,,,,,0,,,71,0
286560,note_on,0,0,1,,,,,,,,,0,,,71,94
287520,note_off,960,0,1,,,,,,,,,0,,,71,0
287520,note_on,0,0,1,,,,,,,,,0,,,67,93
287760,note_off,240,0,1,,,,,,,,,0,,,67,0
287760,note_on,0,0,1,,,,,,,,,0,,,76,92
288000,note_on,0,0,1,,,,,,,,,0,,,76,92
288000,note_off,240,0,1,,,,,,,,,0,,,76,0
288000,note_off,1440,0,4,,,,,,,,,3,,,50,0
288000,note_on,0,0,4,,,,,,,,,3,,,48,93
288000,note_off,0,0,4,,,,,,,,,3,,,38,0
288000,note_on,0,0,4,,,,,,,,,3,,,36,93
288480,note_on,0,0,1,,,,,,,,,0,,,78,92
288480,note_off,480,0,1,,,,,,,,,0,,,76,0
288720,note_off,720,0,4,,,,,,,,,3,,,36,0
288720,note_off,0,0,4,,,,,,,,,3,,,48,0
288720,note_on,0,0,4,,,,,,,,,3,,,45,92
288720,note_on,0,0,4,,,,,,,,,3,,,33,92
288720,note_on,6000,0,2,,,,,,,,,1,,,72,92
288720,note_on,0,0,1,,,,,,,,,0,,,79,92
288720,note_off,240,0,1,,,,,,,,,0,,,78,0
289200,note_on,0,0,1,,,,,,,,,0,,,78,91
289200,note_off,480,0,1,,,,,,,,,0,,,79,0
289320,set_tempo,4200,1,0,,,,,,260869,,,,,,,
289440,note_off,720,0,2,,,,,,,,,1,,,72,0
289440,note_off,720,0,4,,,,,,,,,3,,,33,0
289440,note_off,240,0,1,,,,,,,,,0,,,78,0
289440,note_on,0,0,1,,,,,,,,,0,,,76,91
289440,note_on,0,0,4,,,,,,,,,3,,,35,91
289440,note_on,0,0,2,,,,,,,,,1,,,66,91
289440,note_on,0,0,4,,,,,,,,,3,,,47,91
289440,note_off,0,0,4,,,,,,,,,3,,,45,0
290160,note_off,720,0,1,,,,,,,,,0,,,76,0
290160,note_on,0,0,1,,,,,,,,,0,,,75,91
290640,note_off,480,0,1,,,,,,,,,0,,,75,0
290640,set_tempo,1320,1,0,,,,,,265486,,,,,,,
290880,note_on,0,0,4,,,,,,,,,3,,,45,99
290880,note_off,1440,0,4,,,,,,,,,3,,,35,0
290880,set_tempo,240,1,0,,,,,,258620,,,,,,,
290880,note_off,0,0,4,,,,,,,,,3,,,47,0
290880,note_on,240,0,1,,,,,,,,,0,,,72,97
290880,note_off,1440,0,2,,,,,,,,,1,,,66,0
290880,note_on,0,0,4,,,,,,,,,3,,,33,99
291840,note_on,0,0,1,,,,,,,,,0,,,69,96
291840,note_off,960,0,1,,,,,,,,,0,,,72,0
292080,note_off,240,0,1,,,,,,,,,0,,,69,0
292080,note_on,0,0,1,,,,,,,,,0,,,76,94
292320,note_off,1440,0,4,,,,,,,,,3,,,33,0
292320,note_off,0,0,4,,,,,,,,,3,,,45,0
292320,note_on,0,0,4,,,,,,,,,3,,,31,96
292320,note_on,0,0,4,,,,,,,,,3,,,43,96
292320,note_on,0,0,1,,,,,,,,,0,,,76,94
292320,note_off,240,0,1,,,,,,,,,0,,,76,0
293280,note_on,0,0,1,,,,,,,,,0,,,71,93
293280,note_off,960,0,1,,,,,,,,,0,,,76,0
293520,note_off,240,0,1,,,,,,,,,0,,,71,0
293520,note_on,0,0,1,,,,,,,,,0,,,83,92
293640,set_tempo,2760,1,0,,,,,,260869,,,,,,,
293760,note_on,0,0,1,,,,,,,,,0,,,83,91
293760,note_off,240,0,1,,,,,,,,,0,,,83,0
293760,note_off,1440,0,4,,,,,,,,,3,,,31,0
293760,note_off,0,0,4,,,,,,,,,3,,,43,0
293760,note_on,0,0,4,,,,,,,,,3,,,42,94
293760,note_on,0,0,4,,,,,,,,,3,,,30,94
293760,note_on,2880,0,2,,,,,,,,,1,,,76,92
294000,note_on,0,0,1,,,,,,,,,0,,,84,90
294000,note_off,240,0,1,,,,,,,,,0,,,83,0
294240,note_off,240,0,1,,,,,,,,,0,,,84,0
294240,note_on,0,0,1,,,,,,,,,0,,,81,89
294464,note_off,704,0,4,,,,,,,,,3,,,42,0
294480,note_off,16,0,4,,,,,,,,,3,,,30,0
294480,note_on,0,0,1,,,,,,,,,0,,,79,88
294480,note_on,0,0,2,,,,,,,,,1,,,75,91
294480,note_off,240,0,1,,,,,,,,,0,,,81,0
294480,note_on,0,0,4,,,,,,,,,3,,,47,92
294480,note_off,720,0,2,,,,,,,,,1,,,76,0
294480,note_on,0,0,4,,,,,,,,,3,,,35,92
294720,note_on,0,0,1,,,,,,,,,0,,,78,88
294720,note_off,240,0,1,,,,,,,,,0,,,79,0
294960,note_on,0,0,1,,,,,,,,,0,,,83,87
294960,note_off,240,0,1,,,,,,,,,0,,,78,0
295080,set_tempo,1440,1,0,,,,,,263157,,,,,,,
295200,note_on,0,0,1,,,,,,,,,0,,,76,86
295200,note_on,0,0,2,,,,,,,,,1,,,64,90
295200,note_off,720,0,2,,,,,,,,,1,,,75,0
295200,note_off,0,0,4,,,,,,,,,3,,,35,0
295200,note_off,720,0,4,,,,,,,,,3,,,47,0
295200,note_on,0,0,4,,,,,,,,,3,,,43,106
295200,note_off,240,0,1,,,,,,,,,0,,,83,0
295440,set_tempo,360,1,0,,,,,,258620,,,,,,,
295920,note_off,720,0,1,,,,,,,,,0,,,76,0
295920,note_on,0,0,2,,,,,,,,,1,,,76,102
295920,note_off,720,0,2,,,,,,,,,1,,,64,0
295920,note_on,0,0,1,,,,,,,,,0,,,88,102
296160,note_off,960,0,4,,,,,,,,,3,,,43,0
296160,note_on,0,0,4,,,,,,,,,3,,,40,106
296400,note_off,240,0,4,,,,,,,,,3,,,40,0
296400,note_on,0,0,4,,,,,,,,,3,,,47,101
296640,note_off,240,0,4,,,,,,,,,3,,,47,0
296640,note_on,0,0,4,,,,,,,,,3,,,47,101
297360,note_on,0,0,2,,,,,,,,,1,,,74,95
297360,note_on,0,0,1,,,,,,,,,0,,,86,95
297360,note_off,1440,0,2,,,,,,,,,1,,,76,0
297360,note_off,1440,0,1,,,,,,,,,0,,,88,0
297600,note_on,0,0,4,,,,,,,,,3,,,43,99
297600,note_off,960,0,4,,,,,,,,,3,,,47,0
297840,note_off,480,0,2,,,,,,,,,1,,,74,0
297840,note_off,240,0,4,,,,,,,,,3,,,43,0
297840,note_off,480,0,1,,,,,,,,,0,,,86,0
297840,note_on,0,0,4,,,,,,,,,3,,,52,98
298080,note_on,240,0,2,,,,,,,,,1,,,72,94
298080,note_off,240,0,4,,,,,,,,,3,,,52,0
298080,note_on,0,0,4,,,,,,,,,3,,,52,98
298080,note_on,240,0,1,,,,,,,,,0,,,84,94
298560,note_off,480,0,1,,,,,,,,,0,,,84,0
298560,note_on,0,0,4,,,,,,,,,3,,,54,97
298560,note_off,480,0,4,,,,,,,,,3,,,52,0
298560,note_off,480,0,2,,,,,,,,,1,,,72,0
298800,note_on,0,0,4,,,,,,,,,3,,,48,97
298800,note_on,0,0,4,,,,,,,,,3,,,55,97
298800,note_on,240,0,1,,,,,,,,,0,,,81,93
298800,note_off,240,0,4,,,,,,,,,3,,,54,0
298800,note_on,240,0,2,,,,,,,,,1,,,69,93
299280,note_off,480,0,2,,,,,,,,,1,,,69,0
299280,note_off,480,0,1,,,,,,,,,0,,,81,0
299280,note_off,480,0,4,,,,,,,,,3,,,55,0
299280,note_on,0,0,4,,,,,,,,,3,,,54,96
299400,set_tempo,3960,1,0,,,,,,260869,,,,,,,
299520,note_on,240,0,2,,,,,,,,,1,,,71,93
299520,note_on,0,0,4,,,,,,,,,3,,,52,95
299520,note_on,0,0,4,,,,,,,,,3,,,47,95
299520,note_on,240,0,1,,,,,,,,,0,,,83,93
299520,note_off,240,0,4,,,,,,,,,3,,,54,0
299520,note_off,0,0,4,,,,,,,,,3,,,48,0
300240,note_on,0,0,4,,,,,,,,,3,,,51,94
300240,note_off,720,0,4,,,,,,,,,3,,,52,0
300840,set_tempo,1440,1,0,,,,,,263157,,,,,,,
300960,note_on,0,0,2,,,,,,,,,1,,,69,92
300960,note_on,0,0,4,,,,,,,,,3,,,48,104
300960,note_off,1440,0,1,,,,,,,,,0,,,83,0
300960,note_on,0,0,1,,,,,,,,,0,,,81,92
300960,note_off,0,0,4,,,,,,,,,3,,,47,0
300960,note_off,720,0,4,,,,,,,,,3,,,51,0
300960,note_off,1440,0,2,,,,,,,,,1,,,71,0
301170,set_tempo,330,1,0,,,,,,258620,,,,,,,
301680,note_on,0,0,2,,,,,,,,,1,,,81,103
301680,note_off,720,0,2,,,,,,,,,1,,,69,0
301680,note_off,720,0,1,,,,,,,,,0,,,81,0
301680,note_on,0,0,1,,,,,,,,,0,,,93,103
301920,note_off,960,0,4,,,,,,,,,3,,,48,0
301920,note_on,0,0,4,,,,,,,,,3,,,45,99
302160,note_off,240,0,4,,,,,,,,,3,,,45,0
302160,note_on,0,0,4,,,,,,,,,3,,,52,99
302400,note_on,0,0,4,,,,,,,,,3,,,52,99
302400,note_off,240,0,4,,,,,,,,,3,,,52,0
303120,note_off,1440,0,1,,,,,,,,,0,,,93,0
303120,note_on,0,0,1,,,,,,,,,0,,,91,97
303120,note_on,0,0,2,,,,,,,,,1,,,79,97
303120,note_off,1440,0,2,,,,,,,,,1,,,81,0
303360,note_off,960,0,4,,,,,,,,,3,,,52,0
303360,note_on,0,0,4,,,,,,,,,3,,,47,101
303600,note_off,480,0,2,,,,,,,,,1,,,79,0
303600,note_off,480,0,1,,,,,,,,,0,,,91,0
303600,note_off,240,0,4,,,,,,,,,3,,,47,0
303600,note_on,0,0,4,,,,,,,,,3,,,59,100
303840,note_on,0,0,4,,,,,,,,,3,,,59,99
303840,note_on,240,0,1,,,,,,,,,0,,,90,96
303840,note_off,240,0,4,,,,,,,,,3,,,59,0
303840,note_on,240,0,2,,,,,,,,,1,,,78,96
304080,note_off,240,0,4,,,,,,,,,3,,,59,0
304080,note_on,0,0,4,,,,,,,,,3,,,60,98
304320,note_off,480,0,1,,,,,,,,,0,,,90,0
304320,note_off,480,0,2,,,,,,,,,1,,,78,0
304320,note_on,0,0,4,,,,,,,,,3,,,59,97
304320,note_off,240,0,4,,,,,,,,,3,,,60,0
304560,note_on,0,0,4,,,,,,,,,3,,,57,96
304560,note_on,0,0,4,,,,,,,,,3,,,47,96
304560,note_on,240,0,1,,,,,,,,,0,,,87,94
304560,note_on,240,0,2,,,,,,,,,1,,,75,94
304560,note_off,240,0,4,,,,,,,,,3,,,59,0
304800,note_off,240,0,4,,,,,,,,,3,,,57,0
304800,note_on,0,0,4,,,,,,,,,3,,,55,95
305040,note_off,480,0,1,,,,,,,,,0,,,87,0
305040,note_off,480,0,2,,,,,,,,,1,,,75,0
305040,note_on,0,0,4,,,,,,,,,3,,,54,94
305040,note_off,240,0,4,,,,,,,,,3,,,55,0
305040,note_off,0,0,4,,,,,,,,,3,,,47,0
305280,note_off,240,0,4,,,,,,,,,3,,,54,0
305280,note_on,0,0,4,,,,,,,,,3,,,55,93
305280,note_on,0,0,4,,,,,,,,,3,,,52,93
305280,note_on,240,0,1,,,,,,,,,0,,,88,93
305280,note_on,240,0,2,,,,,,,,,1,,,76,93
305520,note_off,240,0,4,,,,,,,,,3,,,55,0
305520,note_on,0,0,4,,,,,,,,,3,,,57,92
305760,note_off,240,0,4,,,,,,,,,3,,,57,0
305760,note_off,0,0,4,,,,,,,,,3,,,52,0
305760,note_on,0,0,4,,,,,,,,,3,,,55,91
305760,note_off,480,0,1,,,,,,,,,0,,,88,0
305760,note_off,480,0,2,,,,,,,,,1,,,76,0
306000,note_off,240,0,4,,,,,,,,,3,,,55,0
306000,note_on,0,0,4,,,,,,,,,3,,,43,90
306000,note_on,240,0,1,,,,,,,,,0,,,83,92
306000,note_on,240,0,2,,,,,,,,,1,,,71,92
306000,note_on,0,0,4,,,,,,,,,3,,,53,90
306240,note_off,240,0,4,,,,,,,,,3,,,53,0
306240,note_on,0,0,4,,,,,,,,,3,,,52,89
306480,note_off,480,0,2,,,,,,,,,1,,,71,0
306480,note_on,0,0,4,,,,,,,,,3,,,50,88
306480,note_off,480,0,1,,,,,,,,,0,,,83,0
306480,note_off,0,0,4,,,,,,,,,3,,,43,0
306480,note_off,240,0,4,,,,,,,,,3,,,52,0
306600,set_tempo,5430,1,0,,,,,,285714,,,,,,,
306720,note_off,240,0,4,,,,,,,,,3,,,50,0
306720,set_tempo,120,1,0,,,,,,258620,,,,,,,
306720,note_on,0,0,4,,,,,,,,,3,,,48,51
306720,note_on,240,0,1,,,,,,,,,0,,,76,51
307200,note_off,480,0,1,,,,,,,,,0,,,76,0
307200,note_on,0,0,1,,,,,,,,,0,,,74,53
307200,note_off,480,0,4,,,,,,,,,3,,,48,0
307440,note_on,0,0,1,,,,,,,,,0,,,71,52
307440,note_off,240,0,1,,,,,,,,,0,,,74,0
307920,note_on,0,0,1,,,,,,,,,0,,,72,52
307920,note_off,480,0,1,,,,,,,,,0,,,71,0
308160,note_on,0,0,1,,,,,,,,,0,,,67,52
308160,note_off,240,0,1,,,,,,,,,0,,,72,0
308640,note_on,480,0,1,,,,,,,,,0,,,65,51
308640,note_on,1440,0,4,,,,,,,,,3,,,62,50
308880,note_on,0,0,1,,,,,,,,,0,,,67,50
308880,note_on,2400,0,2,,,,,,,,,1,,,64,50
308880,note_off,240,0,4,,,,,,,,,3,,,62,0
308880,note_off,240,0,1,,,,,,,,,0,,,65,0
308880,note_on,0,0,4,,,,,,,,,3,,,60,50
308880,note_off,0,0,1,,,,,,,,,0,,,67,0
309360,note_off,480,0,1,,,,,,,,,0,,,67,0
309360,set_tempo,2640,1,0,,,,,,260869,,,,,,,
309360,note_on,0,0,1,,,,,,,,,0,,,67,51
309360,note_off,480,0,2,,,,,,,,,1,,,64,0
309360,note_on,0,0,2,,,,,,,,,1,,,62,51
309360,note_off,480,0,4,,,,,,,,,3,,,60,0
309360,note_on,0,0,4,,,,,,,,,3,,,59,51
309600,note_off,240,0,2,,,,,,,,,1,,,62,0
309600,note_on,0,0,2,,,,,,,,,1,,,64,52
309600,note_off,240,0,4,,,,,,,,,3,,,59,0
309600,note_on,0,0,4,,,,,,,,,3,,,60,51
309600,note_on,0,0,1,,,,,,,,,0,,,67,52
309600,note_off,240,0,1,,,,,,,,,0,,,67,0
310080,note_off,480,0,2,,,,,,,,,1,,,64,0
310080,note_off,480,0,4,,,,,,,,,3,,,60,0
310080,note_on,0,0,2,,,,,,,,,1,,,62,54
310080,note_on,0,0,4,,,,,,,,,3,,,59,53
310320,note_off,240,0,2,,,,,,,,,1,,,62,0
310320,note_on,0,0,2,,,,,,,,,1,,,60,55
310320,note_off,720,0,1,,,,,,,,,0,,,67,0
310320,note_on,0,0,1,,,,,,,,,0,,,66,55
310320,note_on,0,0,4,,,,,,,,,3,,,57,53
310320,note_off,240,0,4,,,,,,,,,3,,,59,0
310800,note_off,480,0,4,,,,,,,,,3,,,57,0
310800,note_on,0,0,4,,,,,,,,,3,,,55,54
310800,set_tempo,1440,1,0,,,,,,263157,,,,,,,
310800,note_on,48720,0,3,,,,,,,,,2,,,59,54
310800,note_off,480,0,1,,,,,,,,,0,,,66,0
310800,note_off,480,0,2,,,,,,,,,1,,,60,0
310800,note_on,0,0,2,,,,,,,,,1,,,62,56
310800,note_on,0,0,1,,,,,,,,,0,,,67,56
311040,note_off,240,0,4,,,,,,,,,3,,,55,0
311040,note_on,0,0,4,,,,,,,,,3,,,54,57
311040,note_off,240,0,2,,,,,,,,,1,,,62,0
311040,note_on,0,0,2,,,,,,,,,1,,,63,57
311040,note_on,0,0,1,,,,,,,,,0,,,69,57
311040,note_off,240,0,1,,,,,,,,,0,,,67,0
311040,set_tempo,240,1,0,,,,,,265486,,,,,,,
311040,note_off,240,0,3,,,,,,,,,2,,,59,0
311040,note_on,0,0,3,,,,,,,,,2,,,60,57
311760,set_tempo,720,1,0,,,,,,285714,,,,,,,
311760,note_on,0,0,4,,,,,,,,,3,,,55,51
311760,note_on,0,0,3,,,,,,,,,2,,,59,51
311760,note_off,720,0,3,,,,,,,,,2,,,60,0
311760,note_off,720,0,2,,,,,,,,,1,,,63,0
311760,note_on,0,0,2,,,,,,,,,1,,,62,51
311760,note_off,720,0,1,,,,,,,,,0,,,69,0
311760,note_on,0,0,1,,,,,,,,,0,,,67,51
311760,note_off,720,0,4,,,,,,,,,3,,,54,0
312480,set_tempo,720,1,0,,,,,,258620,,,,,,,
312480,note_on,0,0,1,,,,,,,,,0,,,52,47
312480,note_off,720,0,1,,,,,,,,,0,,,67,0
312480,note_off,720,0,4,,,,,,,,,3,,,55,0
312480,note_off,720,0,3,,,,,,,,,2,,,59,0
312480,note_on,0,0,4,,,,,,,,,3,,,40,47
312480,note_off,720,0,2,,,,,,,,,1,,,62,0
312960,note_on,0,0,4,,,,,,,,,3,,,38,46
312960,note_off,480,0,1,,,,,,,,,0,,,52,0
312960,note_on,0,0,1,,,,,,,,,0,,,50,47
312960,note_off,480,0,4,,,,,,,,,3,,,40,0
313200,note_on,0,0,4,,,,,,,,,3,,,35,46
313200,note_off,240,0,4,,,,,,,,,3,,,38,0
313200,note_off,240,0,1,,,,,,,,,0,,,50,0
313200,note_on,0,0,1,,,,,,,,,0,,,47,47
313680,note_on,0,0,1,,,,,,,,,0,,,48,46
313680,note_off,480,0,1,,,,,,,,,0,,,47,0
313680,note_on,0,0,4,,,,,,,,,3,,,36,46
313680,note_off,480,0,4,,,,,,,,,3,,,35,0
313920,note_off,240,0,1,,,,,,,,,0,,,48,0
313920,note_on,0,0,4,,,,,,,,,3,,,31,46
313920,note_off,240,0,4,,,,,,,,,3,,,36,0
313920,note_on,0,0,1,,,,,,,,,0,,,43,46
314640,note_on,0,0,4,,,,,,,,,3,,,31,45
314640,note_off,720,0,1,,,,,,,,,0,,,43,0
314640,note_on,2160,0,3,,,,,,,,,2,,,43,45
314640,note_off,720,0,4,,,,,,,,,3,,,31,0
315120,note_off,480,0,4,,,,,,,,,3,,,31,0
315120,note_on,0,0,3,,,,,,,,,2,,,43,45
315120,note_off,480,0,3,,,,,,,,,2,,,43,0
315120,note_on,0,0,4,,,,,,,,,3,,,31,45
315240,set_tempo,2760,1,0,,,,,,260869,,,,,,,
315360,note_on,720,0,1,,,,,,,,,0,,,64,45
315360,note_off,240,0,4,,,,,,,,,3,,,31,0
315360,note_on,0,0,4,,,,,,,,,3,,,31,44
315360,note_on,0,0,3,,,,,,,,,2,,,43,44
315360,note_off,240,0,3,,,,,,,,,2,,,43,0
315360,set_tempo,120,1,0,,,,,,258620,,,,,,,
315840,note_off,480,0,1,,,,,,,,,0,,,64,0
315840,note_on,0,0,1,,,,,,,,,0,,,62,44
316080,note_off,240,0,1,,,,,,,,,0,,,62,0
316080,note_on,0,0,1,,,,,,,,,0,,,59,44
316560,note_off,480,0,1,,,,,,,,,0,,,59,0
316560,note_on,0,0,1,,,,,,,,,0,,,61,43
316800,note_off,1440,0,4,,,,,,,,,3,,,31,0
316800,note_on,0,0,4,,,,,,,,,3,,,30,43
316800,note_on,0,0,1,,,,,,,,,0,,,58,43
316800,note_off,240,0,1,,,,,,,,,0,,,61,0
316800,note_off,1440,0,3,,,,,,,,,2,,,43,0
316800,note_on,0,0,3,,,,,,,,,2,,,42,43
317520,note_off,720,0,1,,,,,,,,,0,,,58,0
317520,note_on,0,0,1,,,,,,,,,0,,,58,42
318000,note_on,0,0,1,,,,,,,,,0,,,58,42
318000,note_off,480,0,1,,,,,,,,,0,,,58,0
318120,set_tempo,2760,1,0,,,,,,260869,,,,,,,
318240,note_off,1440,0,3,,,,,,,,,2,,,42,0
318240,note_on,0,0,4,,,,,,,,,3,,,53,42
318240,note_on,0,0,1,,,,,,,,,0,,,72,42
318240,note_off,240,0,1,,,,,,,,,0,,,58,0
318240,set_tempo,120,1,0,,,,,,258620,,,,,,,
318240,note_off,1440,0,4,,,,,,,,,3,,,30,0
318240,note_on,0,0,3,,,,,,,,,2,,,57,42
318720,note_off,480,0,1,,,,,,,,,0,,,72,0
318720,note_on,0,0,1,,,,,,,,,0,,,71,42
318960,note_on,0,0,1,,,,,,,,,0,,,68,42
318960,note_off,240,0,1,,,,,,,,,0,,,71,0
319440,note_off,480,0,1,,,,,,,,,0,,,68,0
319440,note_on,0,0,1,,,,,,,,,0,,,69,43
319680,note_off,240,0,1,,,,,,,,,0,,,69,0
319680,note_off,1440,0,4,,,,,,,,,3,,,53,0
319680,note_on,0,0,4,,,,,,,,,3,,,52,42
319680,note_on,0,0,3,,,,,,,,,2,,,57,42
319680,note_on,0,0,3,,,,,,,,,2,,,60,42
319680,note_off,1440,0,3,,,,,,,,,2,,,57,0
319680,note_on,0,0,1,,,,,,,,,0,,,69,43
320400,note_on,0,0,1,,,,,,,,,0,,,69,44
320400,note_off,720,0,1,,,,,,,,,0,,,69,0
320880,note_on,0,0,1,,,,,,,,,0,,,69,45
320880,note_off,480,0,1,,,,,,,,,0,,,69,0
321000,set_tempo,2760,1,0,,,,,,260869,,,,,,,
321120,note_on,8640,0,2,,,,,,,,,1,,,69,45
321120,note_on,0,0,3,,,,,,,,,2,,,59,45
321120,note_on,0,0,3,,,,,,,,,2,,,54,45
321120,note_off,240,0,1,,,,,,,,,0,,,69,0
321120,note_on,0,0,1,,,,,,,,,0,,,81,45
321120,note_off,0,0,3,,,,,,,,,2,,,60,0
321120,set_tempo,120,1,0,,,,,,258620,,,,,,,
321120,note_off,1440,0,3,,,,,,,,,2,,,57,0
321120,note_off,1440,0,4,,,,,,,,,3,,,52,0
321120,note_on,0,0,4,,,,,,,,,3,,,51,45
321600,note_off,480,0,1,,,,,,,,,0,,,81,0
321600,note_on,0,0,1,,,,,,,,,0,,,79,46
321840,note_on,0,0,1,,,,,,,,,0,,,76,46
321840,note_off,240,0,1,,,,,,,,,0,,,79,0
322320,note_off,480,0,1,,,,,,,,,0,,,76,0
322320,note_on,0,0,1,,,,,,,,,0,,,78,47
322560,note_off,1440,0,4,,,,,,,,,3,,,51,0
322560,note_on,0,0,4,,,,,,,,,3,,,48,47
322560,note_off,0,0,3,,,,,,,,,2,,,59,0
322560,note_on,0,0,3,,,,,,,,,2,,,52,47
322560,note_on,0,0,3,,,,,,,,,2,,,57,47
322560,note_on,0,0,1,,,,,,,,,0,,,78,48
322560,note_off,240,0,1,,,,,,,,,0,,,78,0
322560,note_off,1440,0,3,,,,,,,,,2,,,54,0
323280,note_on,0,0,1,,,,,,,,,0,,,78,49
323280,note_off,720,0,1,,,,,,,,,0,,,78,0
323760,note_on,0,0,1,,,,,,,,,0,,,78,49
323760,note_off,480,0,1,,,,,,,,,0,,,78,0
323880,set_tempo,2760,1,0,,,,,,260869,,,,,,,
324000,note_on,0,0,3,,,,,,,,,2,,,51,49
324000,note_on,0,0,3,,,,,,,,,2,,,54,49
324000,note_off,1440,0,3,,,,,,,,,2,,,52,0
324000,note_on,0,0,3,,,,,,,,,2,,,59,49
324000,note_off,0,0,3,,,,,,,,,2,,,57,0
324000,set_tempo,120,1,0,,,,,,258620,,,,,,,
324000,note_off,2880,0,2,,,,,,,,,1,,,69,0
324000,note_off,240,0,1,,,,,,,,,0,,,78,0
324000,note_on,0,0,4,,,,,,,,,3,,,47,49
324000,note_off,1440,0,4,,,,,,,,,3,,,48,0
324000,note_on,0,0,1,,,,,,,,,0,,,78,50
324240,note_on,240,0,2,,,,,,,,,1,,,71,50
324480,note_on,0,0,2,,,,,,,,,1,,,75,50
324480,note_off,240,0,2,,,,,,,,,1,,,71,0
324480,note_off,480,0,4,,,,,,,,,3,,,47,0
324480,note_off,480,0,3,,,,,,,,,2,,,51,0
324480,note_off,0,0,3,,,,,,,,,2,,,54,0
324480,note_off,0,0,3,,,,,,,,,2,,,59,0
324720,note_off,240,0,2,,,,,,,,,1,,,75,0
324720,note_on,240,0,4,,,,,,,,,3,,,59,51
324720,note_on,0,0,2,,,,,,,,,1,,,71,51
324720,note_on,240,0,3,,,,,,,,,2,,,63,51
324720,note_off,720,0,1,,,,,,,,,0,,,78,0
324960,note_on,240,0,1,,,,,,,,,0,,,79,51
324960,note_on,0,0,3,,,,,,,,,2,,,64,51
324960,note_off,240,0,3,,,,,,,,,2,,,63,0
325200,note_on,0,0,3,,,,,,,,,2,,,66,51
325200,note_on,0,0,1,,,,,,,,,0,,,81,51
325200,note_off,240,0,1,,,,,,,,,0,,,79,0
325200,note_off,240,0,3,,,,,,,,,2,,,64,0
325440,note_off,240,0,3,,,,,,,,,2,,,66,0
325440,note_on,0,0,3,,,,,,,,,2,,,64,52
325440,note_off,240,0,1,,,,,,,,,0,,,81,0
325440,note_on,0,0,1,,,,,,,,,0,,,79,52
325680,note_off,960,0,2,,,,,,,,,1,,,71,0
325680,note_on,0,0,2,,,,,,,,,1,,,71,52
325920,note_off,240,0,2,,,,,,,,,1,,,71,0
325920,note_on,0,0,2,,,,,,,,,1,,,76,52
326160,note_on,0,0,2,,,,,,,,,1,,,71,53
326160,note_off,240,0,2,,,,,,,,,1,,,76,0
326160,note_off,720,0,1,,,,,,,,,0,,,79,0
326400,note_on,0,0,3,,,,,,,,,2,,,66,53
326400,note_off,960,0,3,,,,,,,,,2,,,64,0
326400,note_on,240,0,1,,,,,,,,,0,,,81,53
326640,note_on,0,0,3,,,,,,,,,2,,,67,54
326640,note_off,240,0,3,,,,,,,,,2,,,66,0
326640,note_on,0,0,1,,,,,,,,,0,,,83,53
326640,note_off,240,0,1,,,,,,,,,0,,,81,0
326880,note_on,0,0,4,,,,,,,,,3,,,59,54
326880,note_off,240,0,3,,,,,,,,,2,,,67,0
326880,note_off,2160,0,4,,,,,,,,,3,,,59,0
326880,note_on,0,0,1,,,,,,,,,0,,,81,54
326880,note_off,240,0,1,,,,,,,,,0,,,83,0
327120,note_on,240,0,3,,,,,,,,,2,,,66,55
327360,note_on,0,0,1,,,,,,,,,0,,,83,54
327360,note_off,240,0,3,,,,,,,,,2,,,66,0
327360,note_on,0,0,3,,,,,,,,,2,,,67,55
327360,note_off,480,0,1,,,,,,,,,0,,,81,0
327600,note_off,240,0,1,,,,,,,,,0,,,83,0
327600,note_on,0,0,1,,,,,,,,,0,,,84,55
327600,note_on,0,0,2,,,,,,,,,1,,,75,55
327600,note_off,1440,0,2,,,,,,,,,1,,,71,0
327600,note_on,0,0,4,,,,,,,,,3,,,59,55
327600,note_off,720,0,4,,,,,,,,,3,,,59,0
327600,note_off,240,0,3,,,,,,,,,2,,,67,0
327840,note_on,240,0,3,,,,,,,,,2,,,69,56
328080,note_on,0,0,2,,,,,,,,,1,,,74,55
328080,note_off,480,0,2,,,,,,,,,1,,,75,0
328080,note_on,0,0,1,,,,,,,,,0,,,83,55
328080,note_on,0,0,3,,,,,,,,,2,,,67,56
328080,note_off,240,0,3,,,,,,,,,2,,,69,0
328080,note_off,480,0,1,,,,,,,,,0,,,84,0
328320,note_off,240,0,3,,,,,,,,,2,,,67,0
328320,note_on,0,0,2,,,,,,,,,1,,,78,56
328320,note_off,240,0,2,,,,,,,,,1,,,74,0
328320,note_off,240,0,1,,,,,,,,,0,,,83,0
328320,note_on,0,0,1,,,,,,,,,0,,,81,56
328320,note_off,720,0,4,,,,,,,,,3,,,59,0
328320,note_on,0,0,4,,,,,,,,,3,,,59,57
328560,note_on,240,0,3,,,,,,,,,2,,,66,57
328560,note_off,240,0,2,,,,,,,,,1,,,78,0
328560,note_on,0,0,2,,,,,,,,,1,,,71,56
328800,note_off,240,0,3,,,,,,,,,2,,,66,0
328800,note_on,0,0,3,,,,,,,,,2,,,64,57
328800,note_off,480,0,1,,,,,,,,,0,,,81,0
328800,note_on,0,0,1,,,,,,,,,0,,,79,57
329040,note_on,0,0,4,,,,,,,,,3,,,59,58
329040,note_on,0,0,1,,,,,,,,,0,,,78,57
329040,note_off,240,0,1,,,,,,,,,0,,,79,0
329040,note_off,240,0,3,,,,,,,,,2,,,64,0
329040,note_off,720,0,4,,,,,,,,,3,,,59,0
329280,note_on,240,0,3,,,,,,,,,2,,,63,58
329520,note_off,480,0,1,,,,,,,,,0,,,78,0
329520,note_on,0,0,1,,,,,,,,,0,,,79,58
329520,note_on,0,0,3,,,,,,,,,2,,,64,59
329520,note_off,240,0,3,,,,,,,,,2,,,63,0
329640,set_tempo,5640,1,0,,,,,,260869,,,,,,,
329760,note_off,720,0,4,,,,,,,,,3,,,59,0
329760,note_off,240,0,3,,,,,,,,,2,,,64,0
329760,set_tempo,120,1,0,,,,,,258620,,,,,,,
329760,note_off,1200,0,2,,,,,,,,,1,,,71,0
329760,note_off,240,0,1,,,,,,,,,0,,,79,0
329760,note_on,0,0,4,,,,,,,,,3,,,59,59
329760,note_on,0,0,1,,,,,,,,,0,,,78,58
330000,note_on,240,0,2,,,,,,,,,1,,,75,58
330000,note_on,240,0,3,,,,,,,,,2,,,63,59
330240,note_off,240,0,3,,,,,,,,,2,,,63,0
330240,note_on,0,0,3,,,,,,,,,2,,,66,60
330240,note_off,240,0,2,,,,,,,,,1,,,75,0
330240,note_on,0,0,2,,,,,,,,,1,,,71,59
330480,note_on,0,0,3,,,,,,,,,2,,,63,60
330480,note_off,240,0,3,,,,,,,,,2,,,66,0
330720,note_off,240,0,3,,,,,,,,,2,,,63,0
330720,note_on,0,0,1,,,,,,,,,0,,,79,59
330720,note_on,0,0,3,,,,,,,,,2,,,64,61
330720,note_off,960,0,1,,,,,,,,,0,,,78,0
330960,note_on,0,0,3,,,,,,,,,2,,,66,61
330960,note_off,240,0,3,,,,,,,,,2,,,64,0
330960,note_off,240,0,1,,,,,,,,,0,,,79,0
330960,note_on,0,0,1,,,,,,,,,0,,,81,60
331200,note_off,240,0,1,,,,,,,,,0,,,81,0
331200,note_off,1440,0,4,,,,,,,,,3,,,59,0
331200,note_off,960,0,2,,,,,,,,,1,,,71,0
331200,note_on,0,0,4,,,,,,,,,3,,,59,61
331200,note_off,240,0,3,,,,,,,,,2,,,66,0
331200,note_on,0,0,1,,,,,,,,,0,,,79,60
331440,note_on,240,0,3,,,,,,,,,2,,,64,62
331440,note_on,240,0,2,,,,,,,,,1,,,76,60
331680,note_off,240,0,2,,,,,,,,,1,,,76,0
331680,note_on,0,0,2,,,,,,,,,1,,,71,61
331680,note_on,0,0,3,,,,,,,,,2,,,67,62
331680,note_off,240,0,3,,,,,,,,,2,,,64,0
331920,note_on,0,0,3,,,,,,,,,2,,,64,63
331920,note_off,240,0,3,,,,,,,,,2,,,67,0
332160,note_on,0,0,3,,,,,,,,,2,,,66,63
332160,note_off,960,0,1,,,,,,,,,0,,,79,0
332160,note_off,240,0,3,,,,,,,,,2,,,64,0
332160,note_on,0,0,1,,,,,,,,,0,,,81,61
332400,note_off,240,0,3,,,,,,,,,2,,,66,0
332400,note_on,0,0,3,,,,,,,,,2,,,67,63
332400,note_on,0,0,1,,,,,,,,,0,,,83,62
332400,note_off,240,0,1,,,,,,,,,0,,,81,0
332640,note_on,0,0,4,,,,,,,,,3,,,59,64
332640,note_off,1440,0,4,,,,,,,,,3,,,59,0
332640,note_off,240,0,1,,,,,,,,,0,,,83,0
332640,note_on,0,0,1,,,,,,,,,0,,,81,62
332640,note_off,240,0,3,,,,,,,,,2,,,67,0
332880,note_on,240,0,3,,,,,,,,,2,,,66,64
333120,note_off,480,0,1,,,,,,,,,0,,,81,0
333120,note_on,0,0,1,,,,,,,,,0,,,83,63
333120,note_on,0,0,3,,,,,,,,,2,,,67,65
333120,note_off,240,0,3,,,,,,,,,2,,,66,0
333360,note_off,240,0,3,,,,,,,,,2,,,67,0
333360,note_off,1680,0,2,,,,,,,,,1,,,71,0
333360,note_off,240,0,1,,,,,,,,,0,,,83,0
333360,note_on,0,0,1,,,,,,,,,0,,,84,63
333360,note_on,0,0,4,,,,,,,,,3,,,59,65
333360,note_off,720,0,4,,,,,,,,,3,,,59,0
333360,note_on,0,0,2,,,,,,,,,1,,,75,63
333600,note_on,240,0,3,,,,,,,,,2,,,69,65
333840,note_on,0,0,1,,,,,,,,,0,,,83,64
333840,note_on,0,0,2,,,,,,,,,1,,,76,64
333840,note_off,480,0,2,,,,,,,,,1,,,75,0
333840,note_off,240,0,3,,,,,,,,,2,,,69,0
333840,note_on,0,0,3,,,,,,,,,2,,,67,66
333840,note_off,480,0,1,,,,,,,,,0,,,84,0
334080,note_on,0,0,2,,,,,,,,,1,,,78,64
334080,note_off,240,0,2,,,,,,,,,1,,,76,0
334080,note_on,0,0,4,,,,,,,,,3,,,59,66
334080,note_off,240,0,3,,,,,,,,,2,,,67,0
334080,note_on,0,0,1,,,,,,,,,0,,,81,64
334080,note_off,720,0,4,,,,,,,,,3,,,59,0
334080,note_off,240,0,1,,,,,,,,,0,,,83,0
334320,note_off,240,0,2,,,,,,,,,1,,,78,0
334320,note_on,240,0,3,,,,,,,,,2,,,66,67
334320,note_on,0,0,2,,,,,,,,,1,,,71,65
334560,note_off,240,0,3,,,,,,,,,2,,,66,0
334560,note_on,0,0,3,,,,,,,,,2,,,64,67
334560,note_off,480,0,1,,,,,,,,,0,,,81,0
334560,note_on,0,0,1,,,,,,,,,0,,,79,65
334800,note_off,240,0,3,,,,,,,,,2,,,64,0
334800,note_off,240,0,1,,,,,,,,,0,,,79,0
334800,note_on,0,0,1,,,,,,,,,0,,,78,66
334800,note_on,0,0,4,,,,,,,,,3,,,59,68
334800,note_off,720,0,4,,,,,,,,,3,,,59,0
335040,note_on,240,0,3,,,,,,,,,2,,,63,69
335280,note_off,240,0,3,,,,,,,,,2,,,63,0
335280,note_on,0,0,3,,,,,,,,,2,,,64,69
335280,note_on,0,0,1,,,,,,,,,0,,,79,67
335280,note_off,480,0,1,,,,,,,,,0,,,78,0
335400,set_tempo,5640,1,0,,,,,,260869,,,,,,,
335520,note_on,0,0,1,,,,,,,,,0,,,81,68
335520,note_off,240,0,1,,,,,,,,,0,,,79,0
335520,set_tempo,120,1,0,,,,,,258620,,,,,,,
335520,note_on,0,0,4,,,,,,,,,3,,,59,70
335520,note_off,240,0,3,,,,,,,,,2,,,64,0
335520,note_off,720,0,4,,,,,,,,,3,,,59,0
335760,note_on,240,0,3,,,,,,,,,2,,,66,70
336000,note_on,0,0,2,,,,,,,,,1,,,71,69
336000,note_on,0,0,3,,,,,,,,,2,,,67,71
336000,note_off,240,0,3,,,,,,,,,2,,,66,0
336000,note_off,480,0,1,,,,,,,,,0,,,81,0
336000,note_on,0,0,1,,,,,,,,,0,,,83,69
336000,note_off,1680,0,2,,,,,,,,,1,,,71,0
336240,note_off,720,0,4,,,,,,,,,3,,,59,0
336240,note_off,240,0,1,,,,,,,,,0,,,83,0
336240,note_on,0,0,1,,,,,,,,,0,,,84,70
336240,note_on,0,0,4,,,,,,,,,3,,,59,72
336240,note_off,240,0,3,,,,,,,,,2,,,67,0
336240,note_on,0,0,2,,,,,,,,,1,,,72,70
336240,note_off,240,0,2,,,,,,,,,1,,,71,0
336480,note_on,240,0,3,,,,,,,,,2,,,69,72
336720,note_on,0,0,2,,,,,,,,,1,,,71,71
336720,note_off,240,0,3,,,,,,,,,2,,,69,0
336720,note_off,480,0,2,,,,,,,,,1,,,72,0
336720,note_on,0,0,1,,,,,,,,,0,,,83,71
336720,note_off,480,0,1,,,,,,,,,0,,,84,0
336720,note_on,0,0,3,,,,,,,,,2,,,67,73
336960,note_off,240,0,3,,,,,,,,,2,,,67,0
336960,note_off,240,0,1,,,,,,,,,0,,,83,0
336960,note_on,0,0,1,,,,,,,,,0,,,84,72
336960,note_on,0,0,2,,,,,,,,,1,,,72,72
336960,note_off,240,0,2,,,,,,,,,1,,,71,0
336960,note_off,720,0,4,,,,,,,,,3,,,59,0
336960,note_on,0,0,4,,,,,,,,,3,,,59,74
337200,note_on,240,0,3,,,,,,,,,2,,,69,74
337440,note_on,0,0,2,,,,,,,,,1,,,75,73
337440,note_on,0,0,3,,,,,,,,,2,,,71,75
337440,note_off,480,0,1,,,,,,,,,0,,,84,0
337440,note_on,0,0,1,,,,,,,,,0,,,87,73
337440,note_off,240,0,3,,,,,,,,,2,,,69,0
337440,note_off,480,0,2,,,,,,,,,1,,,72,0
337680,note_off,240,0,3,,,,,,,,,2,,,71,0
337680,note_on,0,0,1,,,,,,,,,0,,,88,74
337680,note_on,0,0,4,,,,,,,,,3,,,59,75
337680,note_off,720,0,4,,,,,,,,,3,,,59,0
337680,note_off,240,0,1,,,,,,,,,0,,,87,0
337680,note_off,240,0,2,,,,,,,,,1,,,75,0
337680,note_on,0,0,2,,,,,,,,,1,,,76,74
337920,note_on,240,0,3,,,,,,,,,2,,,72,76
338160,note_off,240,0,3,,,,,,,,,2,,,72,0
338160,note_off,480,0,2,,,,,,,,,1,,,76,0
338160,note_on,0,0,2,,,,,,,,,1,,,75,75
338160,note_on,0,0,1,,,,,,,,,0,,,87,75
338160,note_on,0,0,3,,,,,,,,,2,,,71,77
338160,note_off,480,0,1,,,,,,,,,0,,,88,0
338400,note_off,240,0,2,,,,,,,,,1,,,75,0
338400,note_off,240,0,1,,,,,,,,,0,,,87,0
338400,note_on,0,0,1,,,,,,,,,0,,,88,75
338400,note_on,0,0,2,,,,,,,,,1,,,76,75
338400,note_off,240,0,3,,,,,,,,,2,,,71,0
338400,note_off,720,0,4,,,,,,,,,3,,,59,0
338400,note_on,0,0,4,,,,,,,,,3,,,59,77
338640,note_on,240,0,3,,,,,,,,,2,,,72,78
338880,note_on,0,0,3,,,,,,,,,2,,,75,78
338880,note_off,240,0,3,,,,,,,,,2,,,72,0
338880,note_on,0,0,2,,,,,,,,,1,,,78,77
338880,note_off,480,0,1,,,,,,,,,0,,,88,0
338880,note_on,0,0,1,,,,,,,,,0,,,90,77
338880,note_off,480,0,2,,,,,,,,,1,,,76,0
339120,note_off,240,0,3,,,,,,,,,2,,,75,0
339120,note_off,720,0,4,,,,,,,,,3,,,59,0
339120,note_on,0,0,2,,,,,,,,,1,,,79,77
339120,note_off,240,0,1,,,,,,,,,0,,,90,0
339120,note_on,0,0,1,,,,,,,,,0,,,91,77
339120,note_on,0,0,3,,,,,,,,,2,,,76,79
339120,note_off,240,0,2,,,,,,,,,1,,,78,0
339360,note_off,240,0,3,,,,,,,,,2,,,76,0
339360,note_on,0,0,3,,,,,,,,,2,,,64,80
339600,note_on,0,0,1,,,,,,,,,0,,,90,79
339600,note_on,0,0,3,,,,,,,,,2,,,76,80
339600,note_off,480,0,1,,,,,,,,,0,,,91,0
339600,note_off,480,0,2,,,,,,,,,1,,,79,0
339600,note_on,0,0,2,,,,,,,,,1,,,78,79
339600,note_off,240,0,3,,,,,,,,,2,,,64,0
339840,note_off,240,0,2,,,,,,,,,1,,,78,0
339840,note_on,0,0,1,,,,,,,,,0,,,91,79
339840,note_on,0,0,2,,,,,,,,,1,,,79,79
339840,note_off,240,0,1,,,,,,,,,0,,,90,0
339840,note_off,240,0,3,,,,,,,,,2,,,76,0
339840,note_on,0,0,3,,,,,,,,,2,,,76,81
340080,note_off,240,0,3,,,,,,,,,2,,,76,0
340080,note_on,0,0,3,,,,,,,,,2,,,64,82
340320,note_off,480,0,1,,,,,,,,,0,,,91,0
340320,note_on,0,0,1,,,,,,,,,0,,,90,81
340320,note_off,480,0,2,,,,,,,,,1,,,79,0
340320,note_on,0,0,2,,,,,,,,,1,,,78,81
340320,note_off,240,0,3,,,,,,,,,2,,,64,0
340320,note_on,0,0,3,,,,,,,,,2,,,75,82
340560,note_off,240,0,3,,,,,,,,,2,,,75,0
340560,note_off,240,0,2,,,,,,,,,1,,,78,0
340560,note_on,0,0,2,,,,,,,,,1,,,79,81
340560,note_on,0,0,1,,,,,,,,,0,,,91,81
340560,note_off,240,0,1,,,,,,,,,0,,,90,0
340560,note_on,0,0,3,,,,,,,,,2,,,76,83
340800,note_off,240,0,3,,,,,,,,,2,,,76,0
341040,note_on,1920,0,4,,,,,,,,,3,,,52,53
341040,note_on,0,0,2,,,,,,,,,1,,,83,83
341040,note_off,480,0,2,,,,,,,,,1,,,79,0
341040,note_off,480,0,1,,,,,,,,,0,,,91,0
341040,note_on,0,0,1,,,,,,,,,0,,,95,83
341160,set_tempo,5640,1,0,,,,,,260869,,,,,,,
341280,note_off,240,0,2,,,,,,,,,1,,,83,0
341280,note_on,0,0,1,,,,,,,,,0,,,94,83
341280,note_on,0,0,2,,,,,,,,,1,,,82,83
341280,note_off,240,0,4,,,,,,,,,3,,,52,0
341280,note_on,0,0,4,,,,,,,,,3,,,54,53
341280,note_off,240,0,1,,,,,,,,,0,,,95,0
341280,set_tempo,120,1,0,,,,,,258620,,,,,,,
341520,note_on,720,0,3,,,,,,,,,2,,,58,53
341760,note_on,480,0,1,,,,,,,,,0,,,79,53
341760,note_off,480,0,2,,,,,,,,,1,,,82,0
341760,note_off,240,0,3,,,,,,,,,2,,,58,0
341760,note_on,0,0,3,,,,,,,,,2,,,61,52
342000,note_off,720,0,4,,,,,,,,,3,,,54,0
342000,note_on,0,0,4,,,,,,,,,3,,,54,52
342000,note_off,240,0,3,,,,,,,,,2,,,61,0
342240,note_on,0,0,1,,,,,,,,,0,,,78,53
342240,note_on,240,0,3,,,,,,,,,2,,,56,52
342240,note_off,480,0,1,,,,,,,,,0,,,79,0
342480,note_off,240,0,1,,,,,,,,,0,,,78,0
342480,note_on,0,0,3,,,,,,,,,2,,,58,52
342480,note_on,0,0,1,,,,,,,,,0,,,76,52
342480,note_off,240,0,3,,,,,,,,,2,,,56,0
342720,note_off,240,0,1,,,,,,,,,0,,,76,0
342720,note_off,720,0,4,,,,,,,,,3,,,54,0
342720,note_on,0,0,4,,,,,,,,,3,,,54,51
342720,note_off,240,0,3,,,,,,,,,2,,,58,0
342720,note_on,0,0,1,,,,,,,,,0,,,76,52
342960,note_on,240,0,3,,,,,,,,,2,,,62,51
343200,note_off,480,0,1,,,,,,,,,0,,,76,0
343200,note_on,0,0,3,,,,,,,,,2,,,59,51
343200,note_off,240,0,3,,,,,,,,,2,,,62,0
343200,note_on,0,0,1,,,,,,,,,0,,,73,51
343440,note_off,720,0,4,,,,,,,,,3,,,54,0
343440,note_on,0,0,4,,,,,,,,,3,,,52,51
343440,note_on,0,0,1,,,,,,,,,0,,,74,51
343440,note_off,240,0,3,,,,,,,,,2,,,59,0
343440,note_off,240,0,1,,,,,,,,,0,,,73,0
343680,note_on,240,0,3,,,,,,,,,2,,,59,50
343920,note_on,0,0,3,,,,,,,,,2,,,56,50
343920,note_off,480,0,1,,,,,,,,,0,,,74,0
343920,note_off,0,0,1,,,,,,,,,0,,,94,0
343920,note_on,0,0,1,,,,,,,,,0,,,89,60
343920,note_off,240,0,3,,,,,,,,,2,,,59,0
343935,set_tempo,2655,1,0,,,,,,260869,,,,,,,
344160,note_off,240,0,3,,,,,,,,,2,,,56,0
344160,note_on,0,0,4,,,,,,,,,3,,,52,50
344160,note_off,720,0,4,,,,,,,,,3,,,52,0
344160,set_tempo,225,1,0,,,,,,258620,,,,,,,
344400,note_on,240,0,3,,,,,,,,,2,,,59,50
344640,note_on,0,0,3,,,,,,,,,2,,,56,49
344640,note_on,720,0,1,,,,,,,,,0,,,77,50
344640,note_off,240,0,3,,,,,,,,,2,,,59,0
344880,note_off,240,0,3,,,,,,,,,2,,,56,0
344880,note_off,720,0,4,,,,,,,,,3,,,52,0
344880,note_on,0,0,4,,,,,,,,,3,,,52,49
345120,note_on,0,0,1,,,,,,,,,0,,,76,49
345120,note_on,240,0,3,,,,,,,,,2,,,54,49
345120,note_off,480,0,1,,,,,,,,,0,,,77,0
345360,note_on,0,0,3,,,,,,,,,2,,,56,49
345360,note_off,240,0,3,,,,,,,,,2,,,54,0
345360,note_on,0,0,1,,,,,,,,,0,,,74,49
345360,note_off,240,0,1,,,,,,,,,0,,,76,0
345600,note_on,0,0,4,,,,,,,,,3,,,52,48
345600,note_off,240,0,3,,,,,,,,,2,,,56,0
345600,note_off,720,0,4,,,,,,,,,3,,,52,0
345600,note_off,240,0,1,,,,,,,,,0,,,74,0
345600,note_on,0,0,1,,,,,,,,,0,,,74,48
345840,note_on,240,0,3,,,,,,,,,2,,,60,48
346080,note_off,240,0,3,,,,,,,,,2,,,60,0
346080,note_on,0,0,3,,,,,,,,,2,,,57,48
346080,note_off,480,0,1,,,,,,,,,0,,,74,0
346080,note_on,0,0,1,,,,,,,,,0,,,71,48
346320,note_on,0,0,4,,,,,,,,,3,,,51,48
346320,note_off,720,0,4,,,,,,,,,3,,,52,0
346320,note_on,0,0,1,,,,,,,,,0,,,72,48
346320,note_off,240,0,1,,,,,,,,,0,,,71,0
346320,note_off,240,0,3,,,,,,,,,2,,,57,0
346560,note_on,240,0,3,,,,,,,,,2,,,57,47
346800,note_on,0,0,3,,,,,,,,,2,,,54,47
346800,note_off,240,0,3,,,,,,,,,2,,,57,0
346800,note_off,480,0,1,,,,,,,,,0,,,72,0
346800,note_on,0,0,1,,,,,,,,,0,,,87,55
346800,note_off,0,0,1,,,,,,,,,0,,,89,0
346980,set_tempo,2820,1,0,,,,,,260869,,,,,,,
347040,note_off,720,0,4,,,,,,,,,3,,,51,0
347040,set_tempo,60,1,0,,,,,,258620,,,,,,,
347040,note_on,0,0,4,,,,,,,,,3,,,50,47
347040,note_off,240,0,3,,,,,,,,,2,,,54,0
347280,note_on,240,0,3,,,,,,,,,2,,,54,46
347520,note_on,720,0,1,,,,,,,,,0,,,75,46
347520,note_on,0,0,3,,,,,,,,,2,,,57,46
347520,note_off,240,0,3,,,,,,,,,2,,,54,0
347760,note_off,720,0,4,,,,,,,,,3,,,50,0
347760,note_off,240,0,3,,,,,,,,,2,,,57,0
347760,note_on,0,0,4,,,,,,,,,3,,,50,46
348000,note_on,240,0,3,,,,,,,,,2,,,52,46
348000,note_off,480,0,1,,,,,,,,,0,,,75,0
348000,note_on,0,0,1,,,,,,,,,0,,,74,46
348240,note_on,0,0,1,,,,,,,,,0,,,72,45
348240,note_off,240,0,1,,,,,,,,,0,,,74,0
348240,note_off,240,0,3,,,,,,,,,2,,,52,0
348240,note_on,0,0,3,,,,,,,,,2,,,54,45
348480,note_off,720,0,4,,,,,,,,,3,,,50,0
348480,note_on,0,0,4,,,,,,,,,3,,,50,45
348480,note_on,0,0,1,,,,,,,,,0,,,72,45
348480,note_off,240,0,1,,,,,,,,,0,,,72,0
348480,note_off,240,0,3,,,,,,,,,2,,,54,0
348720,note_on,240,0,3,,,,,,,,,2,,,58,45
348960,note_on,0,0,3,,,,,,,,,2,,,55,45
348960,note_off,240,0,3,,,,,,,,,2,,,58,0
348960,note_off,480,0,1,,,,,,,,,0,,,72,0
348960,note_on,0,0,1,,,,,,,,,0,,,69,44
349200,note_on,0,0,4,,,,,,,,,3,,,49,44
349200,note_off,240,0,1,,,,,,,,,0,,,69,0
349200,note_on,0,0,1,,,,,,,,,0,,,70,44
349200,note_off,720,0,4,,,,,,,,,3,,,50,0
349200,note_off,240,0,3,,,,,,,,,2,,,55,0
349440,note_on,240,0,3,,,,,,,,,2,,,55,44
349680,note_off,240,0,3,,,,,,,,,2,,,55,0
349680,note_off,480,0,1,,,,,,,,,0,,,70,0
349680,note_on,0,0,1,,,,,,,,,0,,,82,54
349680,note_on,0,0,3,,,,,,,,,2,,,52,44
349695,note_off,15,0,1,,,,,,,,,0,,,87,0
349860,set_tempo,2820,1,0,,,,,,260869,,,,,,,
349920,note_off,720,0,4,,,,,,,,,3,,,49,0
349920,set_tempo,60,1,0,,,,,,258620,,,,,,,
349920,note_off,240,0,3,,,,,,,,,2,,,52,0
349920,note_on,0,0,4,,,,,,,,,3,,,48,44
350160,note_on,240,0,3,,,,,,,,,2,,,50,43
350400,note_off,240,0,3,,,,,,,,,2,,,50,0
350400,note_on,0,0,3,,,,,,,,,2,,,52,43
350640,note_on,0,0,3,,,,,,,,,2,,,53,43
350640,note_off,240,0,3,,,,,,,,,2,,,52,0
350880,note_off,240,0,3,,,,,,,,,2,,,53,0
350880,note_on,0,0,3,,,,,,,,,2,,,55,43
351120,note_off,240,0,3,,,,,,,,,2,,,55,0
351120,note_on,0,0,3,,,,,,,,,2,,,52,42
351360,note_on,0,0,4,,,,,,,,,3,,,48,42
351360,note_off,1440,0,4,,,,,,,,,3,,,48,0
351360,note_off,240,0,3,,,,,,,,,2,,,52,0
351600,note_on,240,0,3,,,,,,,,,2,,,53,42
351840,note_off,2145,0,1,,,,,,,,,0,,,82,0
351840,note_on,0,0,1,,,,,,,,,0,,,81,41
351840,note_on,0,0,3,,,,,,,,,2,,,57,42
351840,note_off,240,0,3,,,,,,,,,2,,,53,0
352080,note_off,240,0,1,,,,,,,,,0,,,81,0
352080,note_off,720,0,4,,,,,,,,,3,,,48,0
352080,note_on,0,0,4,,,,,,,,,3,,,46,41
352080,note_on,0,0,3,,,,,,,,,2,,,48,41
352080,note_on,0,0,1,,,,,,,,,0,,,79,41
352080,note_off,240,0,3,,,,,,,,,2,,,57,0
352320,note_on,0,0,3,,,,,,,,,2,,,52,41
352320,note_off,240,0,3,,,,,,,,,2,,,48,0
352320,note_off,240,0,1,,,,,,,,,0,,,79,0
352560,note_off,240,0,3,,,,,,,,,2,,,52,0
352560,note_on,0,0,3,,,,,,,,,2,,,55,41
352560,note_on,240,0,1,,,,,,,,,0,,,84,40
352680,set_tempo,2760,1,0,,,,,,260869,,,,,,,
352800,note_off,240,0,1,,,,,,,,,0,,,84,0
352800,note_off,240,0,3,,,,,,,,,2,,,55,0
352800,note_off,720,0,4,,,,,,,,,3,,,46,0
352800,note_on,0,0,4,,,,,,,,,3,,,46,41
353040,note_on,240,0,3,,,,,,,,,2,,,48,40
353280,note_on,0,0,3,,,,,,,,,2,,,52,40
353280,note_off,240,0,3,,,,,,,,,2,,,48,0
353520,note_on,0,0,3,,,,,,,,,2,,,55,40
353520,note_on,720,0,1,,,,,,,,,0,,,84,39
353520,note_off,240,0,3,,,,,,,,,2,,,52,0
353760,note_off,240,0,3,,,,,,,,,2,,,55,0
353760,note_on,0,0,3,,,,,,,,,2,,,52,40
354000,note_on,0,0,1,,,,,,,,,0,,,79,38
354000,note_off,480,0,1,,,,,,,,,0,,,84,0
354000,note_off,240,0,3,,,,,,,,,2,,,52,0
354000,note_on,0,0,3,,,,,,,,,2,,,48,39
354240,note_off,240,0,3,,,,,,,,,2,,,48,0
354240,note_on,0,0,1,,,,,,,,,0,,,84,38
354240,note_off,240,0,1,,,,,,,,,0,,,79,0
354240,note_on,0,0,4,,,,,,,,,3,,,46,39
354240,note_off,1440,0,4,,,,,,,,,3,,,46,0
354480,note_off,240,0,1,,,,,,,,,0,,,84,0
354480,note_on,240,0,3,,,,,,,,,2,,,48,39
354720,note_off,240,0,3,,,,,,,,,2,,,48,0
354720,note_on,0,0,3,,,,,,,,,2,,,53,39
354960,note_on,480,0,1,,,,,,,,,0,,,84,37
354960,note_off,240,0,3,,,,,,,,,2,,,53,0
354960,note_on,0,0,3,,,,,,,,,2,,,57,38
355200,note_off,240,0,1,,,,,,,,,0,,,84,0
355200,note_off,240,0,3,,,,,,,,,2,,,57,0
355200,note_on,0,0,3,,,,,,,,,2,,,53,38
355440,note_off,240,0,3,,,,,,,,,2,,,53,0
355440,note_on,0,0,3,,,,,,,,,2,,,48,38
355560,set_tempo,2880,1,0,,,,,,263157,,,,,,,
355680,note_on,0,0,4,,,,,,,,,3,,,46,38
355680,note_off,240,0,3,,,,,,,,,2,,,48,0
355680,note_off,1440,0,4,,,,,,,,,3,,,46,0
355920,note_on,240,0,3,,,,,,,,,2,,,48,37
356160,note_off,240,0,3,,,,,,,,,2,,,48,0
356160,note_on,0,0,3,,,,,,,,,2,,,52,37
356400,note_off,240,0,3,,,,,,,,,2,,,52,0
356400,note_on,0,0,3,,,,,,,,,2,,,55,37
356400,note_on,1200,0,1,,,,,,,,,0,,,72,35
356640,note_off,240,0,3,,,,,,,,,2,,,55,0
356640,note_on,0,0,3,,,,,,,,,2,,,52,37
356880,note_off,240,0,3,,,,,,,,,2,,,52,0
356880,note_on,0,0,3,,,,,,,,,2,,,48,36
356880,note_off,480,0,1,,,,,,,,,0,,,72,0
356880,note_on,0,0,1,,,,,,,,,0,,,67,35
357120,note_on,0,0,4,,,,,,,,,3,,,45,36
357120,note_off,240,0,3,,,,,,,,,2,,,48,0
357120,note_on,0,0,1,,,,,,,,,0,,,72,34
357120,note_off,240,0,1,,,,,,,,,0,,,67,0
357120,note_off,1440,0,4,,,,,,,,,3,,,46,0
357360,note_on,240,0,3,,,,,,,,,2,,,48,36
357360,note_off,240,0,1,,,,,,,,,0,,,72,0
357600,note_off,240,0,3,,,,,,,,,2,,,48,0
357600,note_on,0,0,3,,,,,,,,,2,,,53,36
357840,note_off,240,0,3,,,,,,,,,2,,,53,0
357840,note_on,480,0,1,,,,,,,,,0,,,72,33
357840,note_on,0,0,3,,,,,,,,,2,,,57,35
358080,note_off,240,0,3,,,,,,,,,2,,,57,0
358080,note_on,0,0,3,,,,,,,,,2,,,53,35
358080,note_off,240,0,1,,,,,,,,,0,,,72,0
358320,note_on,0,0,3,,,,,,,,,2,,,48,35
358320,note_off,240,0,3,,,,,,,,,2,,,53,0
358560,note_on,0,0,4,,,,,,,,,3,,,34,42
358560,note_off,240,0,3,,,,,,,,,2,,,48,0
358560,note_off,1440,0,4,,,,,,,,,3,,,45,0
358560,note_on,0,0,3,,,,,,,,,2,,,46,42
359280,note_on,1200,0,1,,,,,,,,,0,,,60,54
359760,note_off,480,0,1,,,,,,,,,0,,,60,0
359760,note_on,0,0,1,,,,,,,,,0,,,55,59
359880,set_tempo,4320,1,0,,,,,,265486,,,,,,,
360000,note_off,240,0,1,,,,,,,,,0,,,55,0
360000,note_on,0,0,1,,,,,,,,,0,,,59,64
360000,note_off,1440,0,4,,,,,,,,,3,,,34,0
360000,note_on,0,0,3,,,,,,,,,2,,,47,61
360000,set_tempo,120,1,0,,,,,,258620,,,,,,,
360000,note_on,0,0,4,,,,,,,,,3,,,35,61
360000,note_off,1440,0,3,,,,,,,,,2,,,46,0
360240,note_off,240,0,3,,,,,,,,,2,,,47,0
360240,note_on,0,0,3,,,,,,,,,2,,,45,64
360480,note_off,480,0,1,,,,,,,,,0,,,59,0
360480,note_off,240,0,3,,,,,,,,,2,,,45,0
360480,note_on,0,0,3,,,,,,,,,2,,,43,68
360720,note_on,240,0,1,,,,,,,,,0,,,59,74
360720,note_off,240,0,3,,,,,,,,,2,,,43,0
360720,note_on,0,0,3,,,,,,,,,2,,,42,72
360960,note_off,240,0,3,,,,,,,,,2,,,42,0
360960,note_on,0,0,3,,,,,,,,,2,,,40,76
361200,note_off,480,0,1,,,,,,,,,0,,,59,0
361200,note_off,240,0,3,,,,,,,,,2,,,40,0
361200,note_on,0,0,3,,,,,,,,,2,,,39,80
361320,set_tempo,1320,1,0,,,,,,260869,,,,,,,
361440,set_tempo,120,1,0,,,,,,258620,,,,,,,
361440,note_off,1440,0,4,,,,,,,,,3,,,35,0
361440,note_on,0,0,4,,,,,,,,,3,,,35,80
361440,note_on,240,0,1,,,,,,,,,0,,,59,70
361440,note_off,240,0,3,,,,,,,,,2,,,39,0
361440,note_on,0,0,3,,,,,,,,,2,,,47,80
361680,note_off,240,0,1,,,,,,,,,0,,,59,0
361680,note_on,0,0,1,,,,,,,,,0,,,61,71
361920,note_off,240,0,1,,,,,,,,,0,,,61,0
361920,note_on,0,0,1,,,,,,,,,0,,,63,71
361920,note_off,480,0,4,,,,,,,,,3,,,35,0
361920,note_off,480,0,3,,,,,,,,,2,,,47,0
362160,note_on,240,0,4,,,,,,,,,3,,,35,82
362160,note_on,240,0,3,,,,,,,,,2,,,47,82
362160,note_on,0,0,1,,,,,,,,,0,,,64,72
362160,note_off,240,0,1,,,,,,,,,0,,,63,0
362400,note_off,240,0,1,,,,,,,,,0,,,64,0
362400,note_on,0,0,1,,,,,,,,,0,,,66,72
362640,note_off,480,0,4,,,,,,,,,3,,,35,0
362640,note_off,240,0,1,,,,,,,,,0,,,66,0
362640,note_on,0,0,1,,,,,,,,,0,,,67,73
362640,note_off,480,0,3,,,,,,,,,2,,,47,0
362880,note_on,240,0,4,,,,,,,,,3,,,35,84
362880,note_on,240,0,3,,,,,,,,,2,,,47,84
362880,note_off,240,0,1,,,,,,,,,0,,,67,0
362880,note_on,0,0,1,,,,,,,,,0,,,69,74
363120,note_off,240,0,1,,,,,,,,,0,,,69,0
363120,note_on,0,0,1,,,,,,,,,0,,,71,75
363360,note_off,240,0,1,,,,,,,,,0,,,71,0
363360,note_off,480,0,4,,,,,,,,,3,,,35,0
363360,note_off,480,0,3,,,,,,,,,2,,,47,0
363360,note_on,0,0,1,,,,,,,,,0,,,73,75
363600,note_on,240,0,4,,,,,,,,,3,,,35,85
363600,note_on,240,0,3,,,,,,,,,2,,,47,85
363600,note_off,240,0,1,,,,,,,,,0,,,73,0
363600,note_on,0,0,1,,,,,,,,,0,,,75,76
363840,note_on,0,0,1,,,,,,,,,0,,,76,76
363840,note_off,240,0,1,,,,,,,,,0,,,75,0
364080,note_off,480,0,4,,,,,,,,,3,,,35,0
364080,note_on,0,0,1,,,,,,,,,0,,,78,77
364080,note_off,240,0,1,,,,,,,,,0,,,76,0
364080,note_off,480,0,3,,,,,,,,,2,,,47,0
364200,set_tempo,2760,1,0,,,,,,260869,,,,,,,
364320,note_on,240,0,3,,,,,,,,,2,,,43,87
364320,set_tempo,120,1,0,,,,,,258620,,,,,,,
364320,note_on,0,0,1,,,,,,,,,0,,,79,78
364320,note_off,240,0,1,,,,,,,,,0,,,78,0
364320,note_on,240,0,4,,,,,,,,,3,,,31,87
364560,note_on,0,0,1,,,,,,,,,0,,,81,78
364560,note_off,240,0,1,,,,,,,,,0,,,79,0
364800,note_off,240,0,1,,,,,,,,,0,,,81,0
364800,note_on,0,0,1,,,,,,,,,0,,,83,79
365040,note_on,0,0,4,,,,,,,,,3,,,30,89
365040,note_on,0,0,3,,,,,,,,,2,,,42,89
365040,note_off,720,0,3,,,,,,,,,2,,,43,0
365040,note_off,240,0,1,,,,,,,,,0,,,83,0
365040,note_on,0,0,1,,,,,,,,,0,,,85,80
365040,note_off,720,0,4,,,,,,,,,3,,,31,0
365280,note_off,240,0,1,,,,,,,,,0,,,85,0
365280,note_on,0,0,1,,,,,,,,,0,,,86,80
365520,note_on,0,0,1,,,,,,,,,0,,,87,81
365520,note_off,240,0,1,,,,,,,,,0,,,86,0
365760,note_off,720,0,3,,,,,,,,,2,,,42,0
365760,note_off,240,0,1,,,,,,,,,0,,,87,0
365760,note_on,0,0,3,,,,,,,,,2,,,40,91
365760,note_on,0,0,4,,,,,,,,,3,,,28,91
365760,note_off,720,0,4,,,,,,,,,3,,,30,0
365760,note_on,0,0,1,,,,,,,,,0,,,88,81
366000,note_on,0,0,1,,,,,,,,,0,,,87,80
366000,note_off,240,0,1,,,,,,,,,0,,,88,0
366240,note_off,240,0,1,,,,,,,,,0,,,87,0
366240,note_on,0,0,1,,,,,,,,,0,,,88,79
366480,note_off,240,0,1,,,,,,,,,0,,,88,0
366480,note_off,720,0,4,,,,,,,,,3,,,28,0
366480,note_on,0,0,4,,,,,,,,,3,,,38,87
366480,note_on,0,0,1,,,,,,,,,0,,,90,78
366480,note_off,720,0,3,,,,,,,,,2,,,40,0
366720,note_off,240,0,1,,,,,,,,,0,,,90,0
366720,note_on,0,0,1,,,,,,,,,0,,,91,77
366960,note_off,480,0,4,,,,,,,,,3,,,38,0
366960,note_on,0,0,4,,,,,,,,,3,,,36,84
366960,note_on,0,0,1,,,,,,,,,0,,,93,76
366960,note_off,240,0,1,,,,,,,,,0,,,91,0
367080,set_tempo,2760,1,0,,,,,,260869,,,,,,,
367200,note_off,240,0,4,,,,,,,,,3,,,36,0
367200,note_on,25440,0,2,,,,,,,,,1,,,83,74
367200,note_on,0,0,1,,,,,,,,,0,,,95,74
367200,set_tempo,120,1,0,,,,,,258620,,,,,,,
367200,note_off,240,0,1,,,,,,,,,0,,,93,0
367200,note_on,0,0,4,,,,,,,,,3,,,35,81
367440,note_off,240,0,4,,,,,,,,,3,,,35,0
367440,note_on,0,0,4,,,,,,,,,3,,,37,82
367680,note_off,240,0,4,,,,,,,,,3,,,37,0
367680,note_off,480,0,2,,,,,,,,,1,,,83,0
367680,note_on,0,0,4,,,,,,,,,3,,,39,82
367680,note_off,480,0,1,,,,,,,,,0,,,95,0
367920,note_on,240,0,2,,,,,,,,,1,,,83,76
367920,note_on,240,0,1,,,,,,,,,0,,,95,76
367920,note_off,240,0,4,,,,,,,,,3,,,39,0
367920,note_on,0,0,4,,,,,,,,,3,,,40,83
368160,note_off,240,0,4,,,,,,,,,3,,,40,0
368160,note_on,0,0,4,,,,,,,,,3,,,42,83
368400,note_off,240,0,4,,,,,,,,,3,,,42,0
368400,note_on,0,0,4,,,,,,,,,3,,,43,85
368400,note_off,480,0,1,,,,,,,,,0,,,95,0
368400,note_off,480,0,2,,,,,,,,,1,,,83,0
368640,note_on,240,0,2,,,,,,,,,1,,,83,79
368640,note_off,240,0,4,,,,,,,,,3,,,43,0
368640,note_on,0,0,4,,,,,,,,,3,,,45,86
368640,note_on,240,0,1,,,,,,,,,0,,,95,79
368880,note_off,240,0,4,,,,,,,,,3,,,45,0
368880,note_on,0,0,4,,,,,,,,,3,,,47,86
369120,note_off,480,0,2,,,,,,,,,1,,,83,0
369120,note_off,480,0,1,,,,,,,,,0,,,95,0
369120,note_on,0,0,4,,,,,,,,,3,,,49,87
369120,note_off,240,0,4,,,,,,,,,3,,,47,0
369360,note_on,240,0,1,,,,,,,,,0,,,95,81
369360,note_on,0,0,4,,,,,,,,,3,,,51,88
369360,note_off,240,0,4,,,,,,,,,3,,,49,0
369360,note_on,240,0,2,,,,,,,,,1,,,83,81
369600,note_off,240,0,4,,,,,,,,,3,,,51,0
369600,note_on,0,0,4,,,,,,,,,3,,,52,89
369840,note_off,240,0,4,,,,,,,,,3,,,52,0
369840,note_on,0,0,4,,,,,,,,,3,,,54,90
369840,note_off,480,0,2,,,,,,,,,1,,,83,0
369840,note_off,480,0,1,,,,,,,,,0,,,95,0
369960,set_tempo,2760,1,0,,,,,,260869,,,,,,,
370080,note_on,240,0,2,,,,,,,,,1,,,79,84
370080,set_tempo,120,1,0,,,,,,258620,,,,,,,
370080,note_off,240,0,4,,,,,,,,,3,,,54,0
370080,note_on,0,0,4,,,,,,,,,3,,,55,90
370080,note_on,240,0,1,,,,,,,,,0,,,91,84
370320,note_off,240,0,4,,,,,,,,,3,,,55,0
370320,note_on,0,0,4,,,,,,,,,3,,,57,91
370560,note_off,240,0,4,,,,,,,,,3,,,57,0
370560,note_on,0,0,4,,,,,,,,,3,,,59,92
370800,note_off,720,0,1,,,,,,,,,0,,,91,0
370800,note_on,0,0,4,,,,,,,,,3,,,61,93
370800,note_on,0,0,1,,,,,,,,,0,,,90,77
370800,note_off,240,0,4,,,,,,,,,3,,,59,0
370880,note_off,80,0,1,,,,,,,,,0,,,90,0
370880,note_on,0,0,1,,,,,,,,,0,,,91,78
370960,note_off,80,0,1,,,,,,,,,0,,,91,0
370960,note_on,0,0,1,,,,,,,,,0,,,90,79
371040,note_on,0,0,1,,,,,,,,,0,,,91,80
371040,note_off,80,0,1,,,,,,,,,0,,,90,0
371040,note_on,0,0,4,,,,,,,,,3,,,62,94
371040,note_off,240,0,4,,,,,,,,,3,,,61,0
371120,note_on,0,0,1,,,,,,,,,0,,,90,81
371120,note_off,80,0,1,,,,,,,,,0,,,91,0
371200,note_on,0,0,1,,,,,,,,,0,,,91,82
371200,note_off,80,0,1,,,,,,,,,0,,,90,0
371280,note_off,80,0,1,,,,,,,,,0,,,91,0
371280,note_on,0,0,1,,,,,,,,,0,,,90,83
371280,note_on,0,0,4,,,,,,,,,3,,,63,95
371280,note_off,240,0,4,,,,,,,,,3,,,62,0
371360,note_off,80,0,1,,,,,,,,,0,,,90,0
371360,note_on,0,0,1,,,,,,,,,0,,,88,84
371440,note_off,80,0,1,,,,,,,,,0,,,88,0
371440,note_on,0,0,1,,,,,,,,,0,,,90,85
371500,note_off,1420,0,2,,,,,,,,,1,,,79,0
371520,note_on,0,0,4,,,,,,,,,3,,,64,95
371520,note_off,240,0,4,,,,,,,,,3,,,63,0
371520,note_off,80,0,1,,,,,,,,,0,,,90,0
371520,note_on,0,0,1,,,,,,,,,0,,,88,89
371760,note_off,240,0,4,,,,,,,,,3,,,64,0
371760,note_on,0,0,4,,,,,,,,,3,,,63,93
372000,note_on,0,0,4,,,,,,,,,3,,,64,92
372000,note_off,240,0,4,,,,,,,,,3,,,63,0
372240,note_on,0,0,4,,,,,,,,,3,,,66,90
372240,note_off,240,0,4,,,,,,,,,3,,,64,0
372240,note_off,720,0,1,,,,,,,,,0,,,88,0
372240,note_on,0,0,1,,,,,,,,,0,,,86,85
372480,note_on,0,0,4,,,,,,,,,3,,,67,88
372480,note_off,240,0,4,,,,,,,,,3,,,66,0
372720,note_off,480,0,1,,,,,,,,,0,,,86,0
372720,note_on,0,0,4,,,,,,,,,3,,,69,86
372720,note_off,240,0,4,,,,,,,,,3,,,67,0
372720,note_on,0,0,1,,,,,,,,,0,,,84,82
372840,set_tempo,2760,1,0,,,,,,260869,,,,,,,
372960,note_on,6480,0,3,,,,,,,,,2,,,59,84
372960,note_on,0,0,4,,,,,,,,,3,,,47,84
372960,note_off,240,0,4,,,,,,,,,3,,,69,0
372960,note_on,1460,0,2,,,,,,,,,1,,,71,81
372960,note_off,240,0,1,,,,,,,,,0,,,84,0
372960,note_on,0,0,1,,,,,,,,,0,,,83,81
373152,note_off,192,0,4,,,,,,,,,3,,,47,0
373152,note_off,192,0,2,,,,,,,,,1,,,71,0
373152,note_off,192,0,3,,,,,,,,,2,,,59,0
373152,note_off,192,0,1,,,,,,,,,0,,,83,0
373680,note_on,528,0,3,,,,,,,,,2,,,59,79
373680,note_on,528,0,4,,,,,,,,,3,,,47,79
373680,note_on,528,0,1,,,,,,,,,0,,,83,77
373680,note_on,528,0,2,,,,,,,,,1,,,71,77
373872,note_off,192,0,1,,,,,,,,,0,,,83,0
373872,note_off,192,0,2,,,,,,,,,1,,,71,0
373872,note_off,192,0,3,,,,,,,,,2,,,59,0
373872,note_off,192,0,4,,,,,,,,,3,,,47,0
374175,set_tempo,1335,1,0,,,,,,263157,,,,,,,
374400,note_on,528,0,1,,,,,,,,,0,,,88,73
374400,note_on,528,0,4,,,,,,,,,3,,,52,75
374400,note_on,528,0,2,,,,,,,,,1,,,76,73
374400,note_on,528,0,3,,,,,,,,,2,,,64,75
374760,note_off,360,0,3,,,,,,,,,2,,,64,0
374760,note_off,360,0,1,,,,,,,,,0,,,88,0
374760,note_off,360,0,4,,,,,,,,,3,,,52,0
374760,note_off,360,0,2,,,,,,,,,1,,,76,0
375840,note_on,1080,0,4,,,,,,,,,3,,,47,66
375840,note_on,1080,0,1,,,,,,,,,0,,,66,65
375840,note_on,1080,0,2,,,,,,,,,1,,,63,65
375840,note_on,0,0,2,,,,,,,,,1,,,57,65
376032,note_off,192,0,2,,,,,,,,,1,,,57,0
376032,note_off,192,0,1,,,,,,,,,0,,,66,0
376032,note_off,192,0,4,,,,,,,,,3,,,47,0
376032,note_off,0,0,2,,,,,,,,,1,,,63,0
376560,note_on,528,0,2,,,,,,,,,1,,,63,61
376560,note_on,528,0,1,,,,,,,,,0,,,66,61
376560,note_on,528,0,4,,,,,,,,,3,,,47,61
376560,note_on,0,0,2,,,,,,,,,1,,,57,61
376752,note_off,192,0,1,,,,,,,,,0,,,66,0
376752,note_off,192,0,4,,,,,,,,,3,,,47,0
376752,note_off,0,0,2,,,,,,,,,1,,,63,0
376752,note_off,192,0,2,,,,,,,,,1,,,57,0
377055,set_tempo,2880,1,0,,,,,,265486,,,,,,,
377280,note_on,528,0,1,,,,,,,,,0,,,59,57
377280,note_on,528,0,2,,,,,,,,,1,,,55,57
377280,note_on,528,0,4,,,,,,,,,3,,,52,57
377640,note_off,360,0,1,,,,,,,,,0,,,59,0
377640,note_off,360,0,2,,,,,,,,,1,,,55,0
377640,note_off,360,0,4,,,,,,,,,3,,,52,0
378720,note_on,1080,0,4,,,,,,,,,3,,,47,48
378720,set_tempo,1665,1,0,,,,,,258620,,,,,,,
379440,note_off,720,0,4,,,,,,,,,3,,,47,0
379440,note_on,0,0,4,,,,,,,,,3,,,47,48
380160,note_off,720,0,4,,,,,,,,,3,,,47,0
380160,note_on,0,0,4,,,,,,,,,3,,,47,49
380160,note_on,2520,0,1,,,,,,,,,0,,,71,47
380880,note_on,0,0,4,,,,,,,,,3,,,47,47
380880,note_off,720,0,4,,,,,,,,,3,,,47,0
380880,note_off,720,0,1,,,,,,,,,0,,,71,0
380880,note_on,0,0,1,,,,,,,,,0,,,71,47
381600,note_off,720,0,4,,,,,,,,,3,,,47,0
381600,note_on,0,0,4,,,,,,,,,3,,,43,48
381600,note_on,0,0,1,,,,,,,,,0,,,76,49
381600,note_off,720,0,1,,,,,,,,,0,,,71,0
381600,note_on,3960,0,2,,,,,,,,,1,,,71,49
382320,note_on,0,0,1,,,,,,,,,0,,,76,56
382320,note_off,720,0,1,,,,,,,,,0,,,76,0
382320,note_off,720,0,2,,,,,,,,,1,,,71,0
382320,note_on,0,0,2,,,,,,,,,1,,,69,56
382320,note_off,720,0,4,,,,,,,,,3,,,43,0
382320,note_on,0,0,4,,,,,,,,,3,,,42,56
383040,note_on,0,0,1,,,,,,,,,0,,,79,62
383040,note_off,720,0,1,,,,,,,,,0,,,76,0
383040,note_on,0,0,2,,,,,,,,,1,,,76,62
383040,note_on,0,0,2,,,,,,,,,1,,,67,62
383040,note_off,720,0,2,,,,,,,,,1,,,69,0
383040,note_on,0,0,4,,,,,,,,,3,,,40,62
383040,note_off,720,0,4,,,,,,,,,3,,,42,0
383760,note_on,0,0,1,,,,,,,,,0,,,79,69
383760,note_off,720,0,4,,,,,,,,,3,,,40,0
383760,note_on,0,0,4,,,,,,,,,3,,,38,69
383760,note_on,0,0,2,,,,,,,,,1,,,67,69
383760,note_off,720,0,2,,,,,,,,,1,,,76,0
383760,note_off,720,0,1,,,,,,,,,0,,,79,0
383760,note_off,0,0,2,,,,,,,,,1,,,67,0
383760,note_on,0,0,2,,,,,,,,,1,,,76,69
384480,note_on,0,0,2,,,,,,,,,1,,,76,75
384480,note_off,720,0,1,,,,,,,,,0,,,79,0
384480,note_on,0,0,1,,,,,,,,,0,,,84,75
384480,note_off,0,0,2,,,,,,,,,1,,,67,0
384480,note_on,0,0,2,,,,,,,,,1,,,79,75
384480,note_off,720,0,4,,,,,,,,,3,,,38,0
384480,note_on,0,0,4,,,,,,,,,3,,,36,75
384480,note_off,720,0,2,,,,,,,,,1,,,76,0
385200,note_off,720,0,4,,,,,,,,,3,,,36,0
385200,note_on,0,0,4,,,,,,,,,3,,,35,82
385200,note_on,0,0,1,,,,,,,,,0,,,84,81
385200,note_off,720,0,1,,,,,,,,,0,,,84,0
385200,note_off,720,0,2,,,,,,,,,1,,,76,0
385200,note_off,0,0,2,,,,,,,,,1,,,79,0
385200,note_on,0,0,2,,,,,,,,,1,,,76,81
385200,note_on,0,0,2,,,,,,,,,1,,,79,81
385920,note_on,0,0,2,,,,,,,,,1,,,84,88
385920,note_on,0,0,1,,,,,,,,,0,,,88,88
385920,note_off,720,0,1,,,,,,,,,0,,,84,0
385920,note_off,720,0,2,,,,,,,,,1,,,76,0
385920,note_on,0,0,2,,,,,,,,,1,,,76,88
385920,note_on,0,0,4,,,,,,,,,3,,,33,89
385920,note_off,720,0,4,,,,,,,,,3,,,35,0
385920,note_off,0,0,2,,,,,,,,,1,,,79,0
386640,note_on,0,0,2,,,,,,,,,1,,,83,94
386640,note_off,720,0,2,,,,,,,,,1,,,84,0
386640,note_off,0,0,2,,,,,,,,,1,,,76,0
386640,note_on,0,0,1,,,,,,,,,0,,,88,94
386640,note_on,0,0,2,,,,,,,,,1,,,76,94
386640,note_off,720,0,4,,,,,,,,,3,,,33,0
386640,note_off,720,0,1,,,,,,,,,0,,,88,0
386640,note_on,0,0,4,,,,,,,,,3,,,31,96
387255,set_tempo,8535,1,0,,,,,,266666,,,,,,,
387360,note_off,720,0,1,,,,,,,,,0,,,88,0
387360,note_on,12600,0,3,,,,,,,,,2,,,42,102
387360,note_on,0,0,4,,,,,,,,,3,,,30,102
387360,note_off,720,0,4,,,,,,,,,3,,,31,0
387360,note_on,0,0,2,,,,,,,,,1,,,76,101
387360,note_on,0,0,1,,,,,,,,,0,,,88,101
387360,note_off,720,0,2,,,,,,,,,1,,,76,0
387360,note_off,0,0,2,,,,,,,,,1,,,83,0
387360,note_on,0,0,2,,,,,,,,,1,,,81,101
387720,note_off,0,0,2,,,,,,,,,1,,,76,0
387720,note_off,360,0,2,,,,,,,,,1,,,81,0
387720,note_off,360,0,4,,,,,,,,,3,,,30,0
387720,note_off,360,0,3,,,,,,,,,2,,,42,0
387720,note_off,360,0,1,,,,,,,,,0,,,88,0
388060,set_tempo,805,1,0,,,,,,288461,,,,,,,
388080,note_on,360,0,1,,,,,,,,,0,,,87,107
388080,note_on,360,0,4,,,,,,,,,3,,,35,109
388080,note_on,360,0,3,,,,,,,,,2,,,47,109
388080,note_on,360,0,2,,,,,,,,,1,,,75,107
388080,note_on,0,0,2,,,,,,,,,1,,,78,107
388440,note_off,360,0,4,,,,,,,,,3,,,35,0
388440,note_off,360,0,3,,,,,,,,,2,,,47,0
388440,note_off,360,0,1,,,,,,,,,0,,,87,0
388440,note_off,360,0,2,,,,,,,,,1,,,78,0
388440,note_off,0,0,2,,,,,,,,,1,,,75,0
388560,set_tempo,500,1,0,,,,,,500000,,,,,,,
388800,note_on,360,0,2,,,,,,,,,1,,,79,113
388800,note_on,0,0,2,,,,,,,,,1,,,76,113
388800,note_on,360,0,3,,,,,,,,,2,,,52,116
388800,note_on,360,0,4,,,,,,,,,3,,,40,116
388800,note_on,360,0,1,,,,,,,,,0,,,88,113
389280,note_off,480,0,2,,,,,,,,,1,,,76,0
389280,note_off,480,0,3,,,,,,,,,2,,,52,0
389280,note_off,480,0,4,,,,,,,,,3,,,40,0
389280,note_off,480,0,1,,,,,,,,,0,,,88,0
389280,set_tempo,720,1,0,,,,,,2727272,,,,,,,
389280,note_off,0,0,2,,,,,,,,,1,,,79,0
390240,control_change,0,0,3,,,,,,,32,0,2,,,,
390240,program_change,0,0,3,,,,,,,,,2,0,,,
390240,control_change,0,0,2,,,,,,,32,0,1,,,,
390240,control_change,0,0,3,,,,,,,10,64,2,,,,
390240,control_change,0,0,3,,,,,,,91,91,2,,,,
390240,control_change,0,0,3,,,,,,,93,28,2,,,,
390240,control_change,0,0,3,,,,,,,64,0,2,,,,
390240,control_change,0,0,3,,,,,,,1,0,2,,,,
390240,control_change,0,0,2,,,,,,,0,0,1,,,,
390240,program_change,0,0,2,,,,,,,,,1,0,,,
390240,control_change,0,0,3,,,,,,,0,0,2,,,,
390240,control_change,0,0,2,,,,,,,10,64,1,,,,
390240,pitchwheel,0,0,5,,,,,,,,,4,,0,,
390240,control_change,0,0,2,,,,,,,93,28,1,,,,
390240,control_change,0,0,2,,,,,,,64,0,1,,,,
390240,control_change,0,0,5,,,,,,,7,97,4,,,,
390240,control_change,0,0,5,,,,,,,1,0,4,,,,
390240,control_change,0,0,5,,,,,,,64,0,4,,,,
390240,control_change,0,0,5,,,,,,,93,28,4,,,,
390240,control_change,0,0,5,,,,,,,91,91,4,,,,
390240,control_change,0,0,5,,,,,,,10,64,4,,,,
390240,program_change,0,0,5,,,,,,,,,4,0,,,
390240,control_change,0,0,5,,,,,,,32,0,4,,,,
390240,control_change,390240,0,5,,,,,,,0,0,4,,,,
390240,control_change,0,0,2,,,,,,,1,0,1,,,,
390240,pitchwheel,0,0,2,,,,,,,,,1,,0,,
390240,control_change,960,0,2,,,,,,,7,117,1,,,,
390240,control_change,0,0,2,,,,,,,91,91,1,,,,
390240,pitchwheel,0,0,3,,,,,,,,,2,,0,,
390240,control_change,0,0,4,,,,,,,10,55,3,,,,
390240,control_change,0,0,1,,,,,,,7,127,0,,,,
390240,pitchwheel,0,0,1,,,,,,,,,0,,0,,
390240,program_change,0,0,4,,,,,,,,,3,0,,,
390240,control_change,0,0,4,,,,,,,32,0,3,,,,
390240,control_change,960,0,4,,,,,,,7,117,3,,,,
390240,pitchwheel,0,0,4,,,,,,,,,3,,0,,
390240,control_change,0,0,4,,,,,,,1,0,3,,,,
390240,control_change,0,0,4,,,,,,,64,0,3,,,,
390240,program_change,0,0,1,,,,,,,,,0,0,,,
390240,control_change,0,0,1,,,,,,,1,0,0,,,,
390240,control_change,0,0,1,,,,,,,64,0,0,,,,
390240,control_change,0,0,1,,,,,,,93,28,0,,,,
390240,control_change,0,0,1,,,,,,,32,0,0,,,,
390240,control_change,0,0,1,,,,,,,91,91,0,,,,
390240,control_change,960,0,3,,,,,,,7,112,2,,,,
390240,control_change,0,0,4,,,,,,,93,28,3,,,,
390240,control_change,0,0,4,,,,,,,91,91,3,,,,
390240,control_change,0,0,4,,,,,,,0,0,3,,,,
390240,set_tempo,960,1,0,,,,,,600000,,,,,,,
390240,marker,0,1,0,,,,,,,,,,,,,
390240,control_change,960,0,1,,,,,,,10,73,0,,,,
390240,control_change,0,0,1,,,,,,,0,0,0,,,,
391680,control_change,1440,0,1,,,,,,,64,0,0,,,,
391680,note_on,0,0,1,,,,,,,,,0,,,68,53
391680,note_on,0,0,3,,,,,,,,,2,,,59,53
391680,control_change,1440,0,3,,,,,,,64,0,2,,,,
391680,control_change,1440,0,2,,,,,,,64,0,1,,,,
391680,control_change,1440,0,4,,,,,,,64,0,3,,,,
391680,note_on,0,0,4,,,,,,,,,3,,,40,51
391680,set_tempo,1440,1,0,,,,,,1333333,,,,,,,
391800,set_tempo,120,1,0,,,,,,1276595,,,,,,,
392160,note_off,480,0,4,,,,,,,,,3,,,40,0
392160,note_off,480,0,1,,,,,,,,,0,,,68,0
392160,note_on,0,0,3,,,,,,,,,2,,,59,52
392160,note_off,480,0,3,,,,,,,,,2,,,59,0
392160,note_on,0,0,4,,,,,,,,,3,,,44,50
392160,note_on,0,0,1,,,,,,,,,0,,,64,50
392640,note_off,480,0,4,,,,,,,,,3,,,44,0
392640,note_off,480,0,3,,,,,,,,,2,,,59,0
392640,note_on,0,0,3,,,,,,,,,2,,,61,51
392640,note_on,0,0,4,,,,,,,,,3,,,45,49
392880,note_off,720,0,1,,,,,,,,,0,,,64,0
392880,note_on,0,0,1,,,,,,,,,0,,,66,48
392947,set_tempo,1147,1,0,,,,,,1333333,,,,,,,
393120,set_tempo,173,1,0,,,,,,1276595,,,,,,,
393120,note_off,480,0,4,,,,,,,,,3,,,45,0
393120,note_off,480,0,3,,,,,,,,,2,,,61,0
393120,note_on,0,0,3,,,,,,,,,2,,,54,50
393120,note_on,0,0,4,,,,,,,,,3,,,47,48
393120,note_on,0,0,1,,,,,,,,,0,,,63,52
393120,note_off,240,0,1,,,,,,,,,0,,,66,0
393600,note_on,0,0,3,,,,,,,,,2,,,54,46
393600,note_off,480,0,3,,,,,,,,,2,,,54,0
393600,note_on,0,0,1,,,,,,,,,0,,,59,49
393600,note_off,480,0,1,,,,,,,,,0,,,63,0
393600,note_on,0,0,4,,,,,,,,,3,,,49,47
393600,note_off,480,0,4,,,,,,,,,3,,,47,0
393600,note_on,0,0,3,,,,,,,,,2,,,57,46
393860,set_tempo,740,1,0,,,,,,1363636,,,,,,,
394080,note_on,0,0,4,,,,,,,,,3,,,51,44
394080,note_off,480,0,4,,,,,,,,,3,,,49,0
394220,set_tempo,360,1,0,,,,,,1428571,,,,,,,
394560,note_off,480,0,4,,,,,,,,,3,,,51,0
394560,note_on,0,0,4,,,,,,,,,3,,,52,45
394560,note_on,0,0,1,,,,,,,,,0,,,68,48
394560,note_off,960,0,1,,,,,,,,,0,,,59,0
394560,note_off,960,0,3,,,,,,,,,2,,,57,0
394560,note_off,0,0,3,,,,,,,,,2,,,54,0
394560,note_on,0,0,3,,,,,,,,,2,,,56,47
394560,note_on,0,0,3,,,,,,,,,2,,,59,47
394560,set_tempo,340,1,0,,,,,,1333333,,,,,,,
394680,set_tempo,120,1,0,,,,,,1276595,,,,,,,
395040,note_off,480,0,3,,,,,,,,,2,,,59,0
395040,note_off,0,0,3,,,,,,,,,2,,,56,0
395040,note_on,0,0,3,,,,,,,,,2,,,59,46
395040,note_on,0,0,4,,,,,,,,,3,,,56,44
395040,note_off,480,0,4,,,,,,,,,3,,,52,0
395040,note_off,480,0,1,,,,,,,,,0,,,68,0
395040,note_on,0,0,1,,,,,,,,,0,,,64,46
395520,note_on,0,0,4,,,,,,,,,3,,,58,43
395520,note_off,480,0,3,,,,,,,,,2,,,59,0
395520,note_on,0,0,3,,,,,,,,,2,,,61,45
395520,note_off,480,0,4,,,,,,,,,3,,,56,0
395760,note_on,0,0,1,,,,,,,,,0,,,66,44
395760,note_off,720,0,1,,,,,,,,,0,,,64,0
395820,set_tempo,1140,1,0,,,,,,1333333,,,,,,,
396000,note_on,0,0,3,,,,,,,,,2,,,63,44
396000,note_off,240,0,1,,,,,,,,,0,,,66,0
396000,note_on,0,0,1,,,,,,,,,0,,,66,44
396000,note_on,0,0,4,,,,,,,,,3,,,59,42
396000,note_off,480,0,4,,,,,,,,,3,,,58,0
396000,note_off,480,0,3,,,,,,,,,2,,,61,0
396480,note_on,0,0,3,,,,,,,,,2,,,61,46
396480,note_off,480,0,4,,,,,,,,,3,,,59,0
396480,note_on,0,0,3,,,,,,,,,2,,,64,46
396480,note_off,480,0,3,,,,,,,,,2,,,63,0
396480,note_on,0,0,4,,,,,,,,,3,,,54,44
396480,note_on,0,0,1,,,,,,,,,0,,,70,47
396480,note_off,480,0,1,,,,,,,,,0,,,66,0
396500,set_tempo,680,1,0,,,,,,1363636,,,,,,,
396907,set_tempo,407,1,0,,,,,,1428571,,,,,,,
396960,note_off,480,0,4,,,,,,,,,3,,,54,0
396960,note_off,0,0,3,,,,,,,,,2,,,61,0
396960,note_on,0,0,3,,,,,,,,,2,,,63,49
396960,note_off,480,0,3,,,,,,,,,2,,,64,0
396960,note_on,0,0,1,,,,,,,,,0,,,71,50
396960,note_off,480,0,1,,,,,,,,,0,,,70,0
396960,note_on,0,0,3,,,,,,,,,2,,,66,49
396960,note_on,0,0,4,,,,,,,,,3,,,47,45
397190,set_tempo,283,1,0,,,,,,1500000,,,,,,,
397200,note_off,240,0,4,,,,,,,,,3,,,47,0
397200,note_on,0,0,4,,,,,,,,,3,,,45,48
397320,set_tempo,130,1,0,,,,,,1578947,,,,,,,
397320,control_change,360,0,3,,,,,,,64,127,2,,,,
397320,note_off,0,0,3,,,,,,,,,2,,,66,0
397320,note_on,0,0,3,,,,,,,,,2,,,59,51
397320,control_change,360,0,1,,,,,,,64,127,0,,,,
397327,note_off,7,0,3,,,,,,,,,2,,,63,0
397327,note_off,7,0,1,,,,,,,,,0,,,71,0
397360,note_off,33,0,3,,,,,,,,,2,,,59,0
397360,note_on,0,0,3,,,,,,,,,2,,,64,51
397400,note_off,40,0,3,,,,,,,,,2,,,64,0
397400,note_on,0,0,3,,,,,,,,,2,,,68,53
397440,note_off,240,0,4,,,,,,,,,3,,,45,0
397440,note_on,0,0,4,,,,,,,,,3,,,44,51
397440,control_change,40,0,3,,,,,,,64,0,2,,,,
397440,note_off,0,0,3,,,,,,,,,2,,,68,0
397440,set_tempo,120,1,0,,,,,,1333333,,,,,,,
397440,control_change,113,0,1,,,,,,,64,0,0,,,,
397440,note_on,0,0,1,,,,,,,,,0,,,71,56
397690,set_tempo,250,1,0,,,,,,1276595,,,,,,,
397920,note_on,480,0,3,,,,,,,,,2,,,56,49
397920,note_on,0,0,1,,,,,,,,,0,,,64,52
397920,note_off,480,0,1,,,,,,,,,0,,,71,0
397920,note_on,0,0,3,,,,,,,,,2,,,59,49
398400,note_on,0,0,3,,,,,,,,,2,,,61,46
398400,note_off,0,0,3,,,,,,,,,2,,,56,0
398400,note_off,480,0,3,,,,,,,,,2,,,59,0
398400,note_off,960,0,4,,,,,,,,,3,,,44,0
398400,note_on,0,0,4,,,,,,,,,3,,,45,47
398632,set_tempo,942,1,0,,,,,,1333333,,,,,,,
398640,note_off,720,0,1,,,,,,,,,0,,,64,0
398640,note_on,0,0,1,,,,,,,,,0,,,68,45
398760,note_off,120,0,1,,,,,,,,,0,,,68,0
398760,note_on,0,0,1,,,,,,,,,0,,,66,47
398760,set_tempo,128,1,0,,,,,,1363636,,,,,,,
398880,note_on,0,0,4,,,,,,,,,3,,,47,46
398880,note_off,480,0,3,,,,,,,,,2,,,61,0
398880,note_off,120,0,1,,,,,,,,,0,,,66,0
398880,note_on,0,0,1,,,,,,,,,0,,,63,50
398880,note_off,480,0,4,,,,,,,,,3,,,45,0
398880,note_on,0,0,3,,,,,,,,,2,,,54,44
399000,set_tempo,240,1,0,,,,,,1276595,,,,,,,
399360,note_on,0,0,4,,,,,,,,,3,,,49,44
399360,note_off,480,0,3,,,,,,,,,2,,,54,0
399360,note_on,0,0,3,,,,,,,,,2,,,52,45
399360,note_off,480,0,4,,,,,,,,,3,,,47,0
399360,note_off,480,0,1,,,,,,,,,0,,,63,0
399360,note_on,0,0,1,,,,,,,,,0,,,59,48
399600,set_tempo,600,1,0,,,,,,1333333,,,,,,,
399675,note_off,315,0,1,,,,,,,,,0,,,59,0
399680,note_on,5,0,1,,,,,,,,,0,,,57,40
399720,note_on,0,0,1,,,,,,,,,0,,,59,41
399720,note_off,40,0,1,,,,,,,,,0,,,57,0
399738,set_tempo,138,1,0,,,,,,1363636,,,,,,,
399760,note_on,40,0,1,,,,,,,,,0,,,57,42
399765,note_off,5,0,1,,,,,,,,,0,,,59,0
399800,note_off,35,0,1,,,,,,,,,0,,,57,0
399800,set_tempo,62,1,0,,,,,,1428571,,,,,,,
399800,note_on,0,0,1,,,,,,,,,0,,,56,43
399840,note_on,0,0,1,,,,,,,,,0,,,57,46
399840,set_tempo,40,1,0,,,,,,1276595,,,,,,,
399840,note_on,0,0,3,,,,,,,,,2,,,54,42
399840,note_off,480,0,4,,,,,,,,,3,,,49,0
399840,note_on,0,0,4,,,,,,,,,3,,,51,43
399840,note_off,480,0,3,,,,,,,,,2,,,52,0
399840,note_off,40,0,1,,,,,,,,,0,,,56,0
400200,set_tempo,360,1,0,,,,,,1333333,,,,,,,
400320,note_off,480,0,3,,,,,,,,,2,,,54,0
400320,note_on,0,0,1,,,,,,,,,0,,,56,46
400320,note_on,0,0,4,,,,,,,,,3,,,52,42
400320,note_off,480,0,4,,,,,,,,,3,,,51,0
400320,note_off,480,0,1,,,,,,,,,0,,,57,0
400440,set_tempo,240,1,0,,,,,,1363636,,,,,,,
400800,note_off,480,0,1,,,,,,,,,0,,,56,0
400800,note_on,0,0,1,,,,,,,,,0,,,64,50
400800,note_on,480,0,3,,,,,,,,,2,,,49,47
400800,note_on,0,0,4,,,,,,,,,3,,,37,44
400800,note_off,480,0,4,,,,,,,,,3,,,52,0
400800,note_on,0,0,3,,,,,,,,,2,,,52,47
401212,set_tempo,772,1,0,,,,,,1428571,,,,,,,
401280,note_off,480,0,3,,,,,,,,,2,,,49,0
401280,note_on,0,0,4,,,,,,,,,3,,,36,47
401280,note_off,480,0,4,,,,,,,,,3,,,37,0
401280,note_on,0,0,3,,,,,,,,,2,,,48,50
401482,set_tempo,270,1,0,,,,,,1500000,,,,,,,
401520,note_off,720,0,1,,,,,,,,,0,,,64,0
401520,note_on,0,0,1,,,,,,,,,0,,,58,46
401760,note_on,0,0,4,,,,,,,,,3,,,36,49
401760,note_off,480,0,4,,,,,,,,,3,,,36,0
401760,note_off,0,0,3,,,,,,,,,2,,,52,0
401760,note_on,0,0,3,,,,,,,,,2,,,40,52
401760,note_on,0,0,1,,,,,,,,,0,,,58,49
401760,note_on,0,0,3,,,,,,,,,2,,,55,52
401760,set_tempo,278,1,0,,,,,,1538461,,,,,,,
401760,note_off,480,0,3,,,,,,,,,2,,,48,0
401760,note_off,240,0,1,,,,,,,,,0,,,58,0
402230,set_tempo,470,1,0,,,,,,1621621,,,,,,,
402240,note_on,0,0,3,,,,,,,,,2,,,43,47
402240,note_off,0,0,3,,,,,,,,,2,,,40,0
402240,note_off,480,0,3,,,,,,,,,2,,,55,0
402240,note_on,0,0,3,,,,,,,,,2,,,52,47
402480,set_tempo,250,1,0,,,,,,1666666,,,,,,,
402720,note_off,480,0,3,,,,,,,,,2,,,52,0
402720,note_off,0,0,3,,,,,,,,,2,,,43,0
402720,note_on,0,0,3,,,,,,,,,2,,,54,40
402720,note_on,0,0,3,,,,,,,,,2,,,47,40
402720,note_off,960,0,4,,,,,,,,,3,,,36,0
402720,set_tempo,240,1,0,,,,,,3157894,,,,,,,
402720,note_on,0,0,1,,,,,,,,,0,,,59,38
402720,note_off,960,0,1,,,,,,,,,0,,,58,0
402720,note_on,0,0,4,,,,,,,,,3,,,35,38
403140,note_off,0,0,3,,,,,,,,,2,,,54,0
403140,note_off,420,0,1,,,,,,,,,0,,,59,0
403140,note_off,420,0,4,,,,,,,,,3,,,35,0
403140,note_off,420,0,3,,,,,,,,,2,,,47,0
403200,set_tempo,480,1,0,,,,,,1333333,,,,,,,
403200,control_change,60,0,3,,,,,,,64,0,2,,,,
403200,control_change,0,0,2,,,,,,,7,107,1,,,,
403200,note_on,0,0,4,,,,,,,,,3,,,40,51
403200,control_change,0,0,4,,,,,,,7,107,3,,,,
403200,note_on,0,0,3,,,,,,,,,2,,,59,53
403200,control_change,11520,0,2,,,,,,,64,0,1,,,,
403200,note_on,0,0,1,,,,,,,,,0,,,68,53
403200,control_change,0,0,1,,,,,,,7,117,0,,,,
403200,control_change,60,0,1,,,,,,,64,0,0,,,,
403200,control_change,60,0,4,,,,,,,64,0,3,,,,
403200,control_change,0,0,3,,,,,,,7,102,2,,,,
403320,set_tempo,120,1,0,,,,,,1276595,,,,,,,
403680,note_on,0,0,1,,,,,,,,,0,,,64,50
403680,note_off,480,0,1,,,,,,,,,0,,,68,0
403680,note_on,0,0,3,,,,,,,,,2,,,59,52
403680,note_off,480,0,4,,,,,,,,,3,,,40,0
403680,note_on,0,0,4,,,,,,,,,3,,,44,50
403680,note_off,480,0,3,,,,,,,,,2,,,59,0
404160,note_on,0,0,3,,,,,,,,,2,,,61,51
404160,note_off,480,0,3,,,,,,,,,2,,,59,0
404160,note_on,0,0,4,,,,,,,,,3,,,45,49
404160,note_off,480,0,4,,,,,,,,,3,,,44,0
404400,note_off,720,0,1,,,,,,,,,0,,,64,0
404400,note_on,0,0,1,,,,,,,,,0,,,66,48
404467,set_tempo,1147,1,0,,,,,,1333333,,,,,,,
404640,set_tempo,173,1,0,,,,,,1276595,,,,,,,
404640,note_on,0,0,4,,,,,,,,,3,,,47,48
404640,note_off,480,0,4,,,,,,,,,3,,,45,0
404640,note_off,240,0,1,,,,,,,,,0,,,66,0
404640,note_on,0,0,1,,,,,,,,,0,,,63,52
404640,note_on,0,0,3,,,,,,,,,2,,,54,50
404640,note_off,480,0,3,,,,,,,,,2,,,61,0
405120,note_on,0,0,1,,,,,,,,,0,,,59,49
405120,note_on,0,0,3,,,,,,,,,2,,,54,46
405120,note_on,0,0,3,,,,,,,,,2,,,57,46
405120,note_off,480,0,3,,,,,,,,,2,,,54,0
405120,note_off,480,0,4,,,,,,,,,3,,,47,0
405120,note_on,0,0,4,,,,,,,,,3,,,49,47
405120,note_off,480,0,1,,,,,,,,,0,,,63,0
405380,set_tempo,740,1,0,,,,,,1363636,,,,,,,
405600,note_on,0,0,4,,,,,,,,,3,,,51,44
405600,note_off,480,0,4,,,,,,,,,3,,,49,0
405740,set_tempo,360,1,0,,,,,,1428571,,,,,,,
406080,note_on,0,0,1,,,,,,,,,0,,,68,48
406080,note_off,960,0,1,,,,,,,,,0,,,59,0
406080,note_on,0,0,4,,,,,,,,,3,,,52,45
406080,note_off,480,0,4,,,,,,,,,3,,,51,0
406080,note_on,0,0,3,,,,,,,,,2,,,56,47
406080,set_tempo,340,1,0,,,,,,1333333,,,,,,,
406080,note_off,0,0,3,,,,,,,,,2,,,57,0
406080,note_off,960,0,3,,,,,,,,,2,,,54,0
406080,note_on,0,0,3,,,,,,,,,2,,,59,47
406200,set_tempo,120,1,0,,,,,,1276595,,,,,,,
406560,note_on,0,0,3,,,,,,,,,2,,,59,46
406560,note_on,0,0,1,,,,,,,,,0,,,64,46
406560,note_off,480,0,4,,,,,,,,,3,,,52,0
406560,note_on,0,0,4,,,,,,,,,3,,,56,44
406560,note_off,480,0,3,,,,,,,,,2,,,56,0
406560,note_off,480,0,1,,,,,,,,,0,,,68,0
406560,note_off,0,0,3,,,,,,,,,2,,,59,0
407040,note_off,480,0,3,,,,,,,,,2,,,59,0
407040,note_on,0,0,4,,,,,,,,,3,,,58,43
407040,note_off,480,0,4,,,,,,,,,3,,,56,0
407040,note_on,0,0,3,,,,,,,,,2,,,61,45
407280,note_on,0,0,1,,,,,,,,,0,,,66,44
407280,note_off,720,0,1,,,,,,,,,0,,,64,0
407340,set_tempo,1140,1,0,,,,,,1333333,,,,,,,
407520,note_off,480,0,3,,,,,,,,,2,,,61,0
407520,note_on,0,0,3,,,,,,,,,2,,,63,44
407520,note_off,480,0,4,,,,,,,,,3,,,58,0
407520,note_on,0,0,1,,,,,,,,,0,,,66,44
407520,note_off,240,0,1,,,,,,,,,0,,,66,0
407520,note_on,0,0,4,,,,,,,,,3,,,59,42
408000,note_off,480,0,4,,,,,,,,,3,,,59,0
408000,note_on,0,0,1,,,,,,,,,0,,,70,47
408000,note_on,0,0,3,,,,,,,,,2,,,61,46
408000,note_on,0,0,3,,,,,,,,,2,,,64,46
408000,note_off,480,0,3,,,,,,,,,2,,,63,0
408000,note_on,0,0,4,,,,,,,,,3,,,54,44
408000,note_off,480,0,1,,,,,,,,,0,,,66,0
408020,set_tempo,680,1,0,,,,,,1363636,,,,,,,
408427,set_tempo,407,1,0,,,,,,1428571,,,,,,,
408480,note_off,480,0,1,,,,,,,,,0,,,70,0
408480,note_on,0,0,1,,,,,,,,,0,,,71,50
408480,note_on,0,0,3,,,,,,,,,2,,,63,49
408480,note_on,0,0,3,,,,,,,,,2,,,66,49
408480,note_off,0,0,3,,,,,,,,,2,,,64,0
408480,note_off,480,0,4,,,,,,,,,3,,,54,0
408480,note_on,0,0,4,,,,,,,,,3,,,47,45
408480,note_off,480,0,3,,,,,,,,,2,,,61,0
408710,set_tempo,283,1,0,,,,,,1500000,,,,,,,
408720,note_on,0,0,4,,,,,,,,,3,,,45,48
408720,note_off,240,0,4,,,,,,,,,3,,,47,0
408840,set_tempo,130,1,0,,,,,,1578947,,,,,,,
408840,note_off,0,0,3,,,,,,,,,2,,,66,0
408840,control_change,360,0,3,,,,,,,64,127,2,,,,
408840,note_on,0,0,3,,,,,,,,,2,,,59,51
408847,note_off,7,0,3,,,,,,,,,2,,,63,0
408847,note_off,367,0,1,,,,,,,,,0,,,71,0
408880,note_on,0,0,3,,,,,,,,,2,,,64,51
408880,note_off,33,0,3,,,,,,,,,2,,,59,0
408920,note_off,40,0,3,,,,,,,,,2,,,64,0
408920,note_on,0,0,3,,,,,,,,,2,,,68,53
408960,set_tempo,120,1,0,,,,,,1333333,,,,,,,
408960,note_on,0,0,1,,,,,,,,,0,,,71,56
408960,note_off,240,0,4,,,,,,,,,3,,,45,0
408960,note_on,0,0,4,,,,,,,,,3,,,44,51
408960,note_off,0,0,3,,,,,,,,,2,,,68,0
408960,control_change,40,0,3,,,,,,,64,0,2,,,,
408960,control_change,113,0,1,,,,,,,64,0,0,,,,
409210,set_tempo,250,1,0,,,,,,1276595,,,,,,,
409440,note_on,0,0,3,,,,,,,,,2,,,56,49
409440,note_on,480,0,3,,,,,,,,,2,,,59,49
409440,note_off,480,0,1,,,,,,,,,0,,,71,0
409440,note_on,0,0,1,,,,,,,,,0,,,64,52
409920,note_on,0,0,4,,,,,,,,,3,,,45,47
409920,note_off,480,0,3,,,,,,,,,2,,,56,0
409920,note_off,0,0,3,,,,,,,,,2,,,59,0
409920,note_on,0,0,3,,,,,,,,,2,,,61,46
409920,note_off,960,0,4,,,,,,,,,3,,,44,0
410152,set_tempo,942,1,0,,,,,,1333333,,,,,,,
410160,note_on,0,0,1,,,,,,,,,0,,,68,45
410160,note_off,720,0,1,,,,,,,,,0,,,64,0
410280,note_off,120,0,1,,,,,,,,,0,,,68,0
410280,note_on,0,0,1,,,,,,,,,0,,,66,47
410280,set_tempo,128,1,0,,,,,,1363636,,,,,,,
410400,note_off,480,0,3,,,,,,,,,2,,,61,0
410400,note_off,120,0,1,,,,,,,,,0,,,66,0
410400,note_on,0,0,1,,,,,,,,,0,,,63,50
410400,note_on,0,0,4,,,,,,,,,3,,,47,46
410400,note_off,480,0,4,,,,,,,,,3,,,45,0
410400,note_on,0,0,3,,,,,,,,,2,,,54,44
410520,set_tempo,240,1,0,,,,,,1276595,,,,,,,
410880,note_off,480,0,4,,,,,,,,,3,,,47,0
410880,note_off,480,0,3,,,,,,,,,2,,,54,0
410880,note_off,480,0,1,,,,,,,,,0,,,63,0
410880,note_on,0,0,1,,,,,,,,,0,,,59,48
410880,note_on,0,0,4,,,,,,,,,3,,,49,44
410880,note_on,0,0,3,,,,,,,,,2,,,52,45
411120,set_tempo,600,1,0,,,,,,1333333,,,,,,,
411195,note_off,315,0,1,,,,,,,,,0,,,59,0
411200,note_on,5,0,1,,,,,,,,,0,,,57,40
411240,note_on,0,0,1,,,,,,,,,0,,,59,41
411240,note_off,40,0,1,,,,,,,,,0,,,57,0
411258,set_tempo,138,1,0,,,,,,1363636,,,,,,,
411280,note_on,40,0,1,,,,,,,,,0,,,57,42
411285,note_off,5,0,1,,,,,,,,,0,,,59,0
411320,set_tempo,62,1,0,,,,,,1428571,,,,,,,
411320,note_on,0,0,1,,,,,,,,,0,,,56,43
411320,note_off,35,0,1,,,,,,,,,0,,,57,0
411360,note_on,0,0,4,,,,,,,,,3,,,51,43
411360,set_tempo,40,1,0,,,,,,1276595,,,,,,,
411360,note_on,0,0,1,,,,,,,,,0,,,57,46
411360,note_off,40,0,1,,,,,,,,,0,,,56,0
411360,note_off,480,0,3,,,,,,,,,2,,,52,0
411360,note_on,0,0,3,,,,,,,,,2,,,54,42
411360,note_off,480,0,4,,,,,,,,,3,,,49,0
411720,set_tempo,360,1,0,,,,,,1333333,,,,,,,
411840,note_on,0,0,4,,,,,,,,,3,,,52,42
411840,note_off,480,0,3,,,,,,,,,2,,,54,0
411840,note_off,480,0,4,,,,,,,,,3,,,51,0
411840,note_off,480,0,1,,,,,,,,,0,,,57,0
411840,note_on,0,0,1,,,,,,,,,0,,,56,46
411960,set_tempo,240,1,0,,,,,,1363636,,,,,,,
412320,note_on,0,0,4,,,,,,,,,3,,,37,44
412320,note_off,480,0,4,,,,,,,,,3,,,52,0
412320,note_on,480,0,3,,,,,,,,,2,,,52,47
412320,note_on,0,0,3,,,,,,,,,2,,,49,47
412320,note_on,0,0,1,,,,,,,,,0,,,64,50
412320,note_off,480,0,1,,,,,,,,,0,,,56,0
412732,set_tempo,772,1,0,,,,,,1428571,,,,,,,
412800,note_off,480,0,3,,,,,,,,,2,,,49,0
412800,note_on,0,0,4,,,,,,,,,3,,,36,47
412800,note_on,0,0,3,,,,,,,,,2,,,48,50
412800,note_off,480,0,4,,,,,,,,,3,,,37,0
413002,set_tempo,270,1,0,,,,,,1500000,,,,,,,
413040,note_off,720,0,1,,,,,,,,,0,,,64,0
413040,note_on,0,0,1,,,,,,,,,0,,,58,46
413280,set_tempo,278,1,0,,,,,,1538461,,,,,,,
413280,note_on,0,0,3,,,,,,,,,2,,,40,52
413280,note_on,0,0,3,,,,,,,,,2,,,55,52
413280,note_off,0,0,3,,,,,,,,,2,,,52,0
413280,note_off,480,0,3,,,,,,,,,2,,,48,0
413280,note_on,0,0,4,,,,,,,,,3,,,36,49
413280,note_off,480,0,4,,,,,,,,,3,,,36,0
413280,note_off,240,0,1,,,,,,,,,0,,,58,0
413280,note_on,0,0,1,,,,,,,,,0,,,58,49
413750,set_tempo,470,1,0,,,,,,1621621,,,,,,,
413760,note_on,0,0,3,,,,,,,,,2,,,43,47
413760,note_on,0,0,3,,,,,,,,,2,,,52,47
413760,note_off,0,0,3,,,,,,,,,2,,,55,0
413760,note_off,480,0,3,,,,,,,,,2,,,40,0
414000,set_tempo,250,1,0,,,,,,1666666,,,,,,,
414240,note_on,0,0,3,,,,,,,,,2,,,54,40
414240,note_off,0,0,3,,,,,,,,,2,,,52,0
414240,set_tempo,240,1,0,,,,,,3157894,,,,,,,
414240,note_off,960,0,4,,,,,,,,,3,,,36,0
414240,note_on,0,0,3,,,,,,,,,2,,,47,40
414240,note_on,0,0,4,,,,,,,,,3,,,35,38
414240,note_on,0,0,1,,,,,,,,,0,,,59,38
414240,note_off,480,0,3,,,,,,,,,2,,,43,0
414240,note_off,960,0,1,,,,,,,,,0,,,58,0
414660,note_off,420,0,3,,,,,,,,,2,,,54,0
414660,note_off,420,0,1,,,,,,,,,0,,,59,0
414660,note_off,420,0,4,,,,,,,,,3,,,35,0
414660,note_off,0,0,3,,,,,,,,,2,,,47,0
414720,note_on,0,0,1,,,,,,,,,0,,,71,53
414720,control_change,0,0,1,,,,,,,7,127,0,,,,
414720,control_change,60,0,1,,,,,,,64,0,0,,,,
414720,control_change,0,0,2,,,,,,,7,117,1,,,,
414720,control_change,11520,0,2,,,,,,,64,0,1,,,,
414720,set_tempo,480,1,0,,,,,,1333333,,,,,,,
414720,note_on,0,0,3,,,,,,,,,2,,,59,51
414720,control_change,60,0,4,,,,,,,64,0,3,,,,
414720,control_change,0,0,4,,,,,,,7,117,3,,,,
414720,control_change,60,0,3,,,,,,,64,0,2,,,,
414720,control_change,0,0,3,,,,,,,7,112,2,,,,
414840,set_tempo,120,1,0,,,,,,1276595,,,,,,,
415200,note_off,480,0,3,,,,,,,,,2,,,59,0
415200,note_on,0,0,3,,,,,,,,,2,,,59,53
415200,note_on,0,0,3,,,,,,,,,2,,,66,53
415200,note_off,480,0,1,,,,,,,,,0,,,71,0
415200,note_on,0,0,1,,,,,,,,,0,,,71,50
415200,note_on,480,0,4,,,,,,,,,3,,,51,50
415680,note_on,0,0,3,,,,,,,,,2,,,68,52
415680,note_on,0,0,3,,,,,,,,,2,,,59,52
415680,note_off,0,0,3,,,,,,,,,2,,,59,0
415680,note_off,480,0,3,,,,,,,,,2,,,66,0
415680,note_on,0,0,4,,,,,,,,,3,,,53,49
415680,note_off,480,0,4,,,,,,,,,3,,,51,0
415920,note_on,0,0,1,,,,,,,,,0,,,73,48
415920,note_off,720,0,1,,,,,,,,,0,,,71,0
416010,set_tempo,1170,1,0,,,,,,1333333,,,,,,,
416160,note_on,0,0,3,,,,,,,,,2,,,59,50
416160,note_on,0,0,1,,,,,,,,,0,,,71,51
416160,note_off,240,0,1,,,,,,,,,0,,,73,0
416160,note_off,480,0,3,,,,,,,,,2,,,68,0
416160,note_off,0,0,3,,,,,,,,,2,,,59,0
416160,note_off,480,0,4,,,,,,,,,3,,,53,0
416160,note_on,0,0,4,,,,,,,,,3,,,54,48
416270,set_tempo,260,1,0,,,,,,1276595,,,,,,,
416640,note_off,480,0,3,,,,,,,,,2,,,59,0
416640,note_on,0,0,3,,,,,,,,,2,,,64,49
416640,note_off,480,0,1,,,,,,,,,0,,,71,0
416640,note_on,0,0,1,,,,,,,,,0,,,69,49
416640,note_off,480,0,4,,,,,,,,,3,,,54,0
416640,note_on,0,0,4,,,,,,,,,3,,,49,47
416640,note_on,0,0,3,,,,,,,,,2,,,59,49
417120,note_off,0,0,3,,,,,,,,,2,,,59,0
417120,note_on,0,0,3,,,,,,,,,2,,,59,48
417120,note_off,480,0,3,,,,,,,,,2,,,64,0
417120,note_off,480,0,4,,,,,,,,,3,,,49,0
417120,note_on,0,0,3,,,,,,,,,2,,,66,48
417120,note_on,0,0,4,,,,,,,,,3,,,51,46
417360,note_on,0,0,1,,,,,,,,,0,,,71,46
417360,note_off,720,0,1,,,,,,,,,0,,,69,0
417427,set_tempo,1157,1,0,,,,,,1333333,,,,,,,
417600,note_off,480,0,4,,,,,,,,,3,,,51,0
417600,note_on,0,0,4,,,,,,,,,3,,,52,45
417600,note_on,0,0,3,,,,,,,,,2,,,59,47
417600,note_off,480,0,3,,,,,,,,,2,,,66,0
417600,note_on,0,0,1,,,,,,,,,0,,,69,45
417600,note_off,0,0,3,,,,,,,,,2,,,59,0
417600,note_off,240,0,1,,,,,,,,,0,,,71,0
417720,set_tempo,293,1,0,,,,,,1276595,,,,,,,
418080,note_off,480,0,4,,,,,,,,,3,,,52,0
418080,note_on,0,0,4,,,,,,,,,3,,,47,44
418080,note_off,480,0,3,,,,,,,,,2,,,59,0
418080,note_on,0,0,3,,,,,,,,,2,,,64,46
418080,note_off,480,0,1,,,,,,,,,0,,,69,0
418080,note_on,0,0,1,,,,,,,,,0,,,68,44
418080,note_on,0,0,3,,,,,,,,,2,,,59,46
418560,note_on,0,0,3,,,,,,,,,2,,,61,50
418560,note_off,480,0,4,,,,,,,,,3,,,47,0
418560,note_on,0,0,4,,,,,,,,,3,,,49,48
418560,note_off,0,0,3,,,,,,,,,2,,,59,0
418560,note_on,0,0,3,,,,,,,,,2,,,64,50
418560,note_off,480,0,3,,,,,,,,,2,,,64,0
418800,set_tempo,1080,1,0,,,,,,1333333,,,,,,,
418800,note_off,720,0,1,,,,,,,,,0,,,68,0
418800,note_on,0,0,1,,,,,,,,,0,,,76,51
419040,note_off,480,0,3,,,,,,,,,2,,,64,0
419040,note_on,0,0,3,,,,,,,,,2,,,63,53
419040,note_on,0,0,3,,,,,,,,,2,,,59,53
419040,note_on,0,0,1,,,,,,,,,0,,,68,53
419040,note_off,240,0,1,,,,,,,,,0,,,76,0
419040,set_tempo,240,1,0,,,,,,1333333,,,,,,,
419040,note_off,0,0,3,,,,,,,,,2,,,61,0
419040,note_on,0,0,4,,,,,,,,,3,,,51,52
419040,note_off,480,0,4,,,,,,,,,3,,,49,0
419520,note_off,480,0,3,,,,,,,,,2,,,63,0
419520,note_off,0,0,3,,,,,,,,,2,,,59,0
419520,note_on,0,0,3,,,,,,,,,2,,,58,50
419520,note_on,0,0,3,,,,,,,,,2,,,61,50
419520,note_off,480,0,4,,,,,,,,,3,,,51,0
419520,note_on,0,0,4,,,,,,,,,3,,,51,51
419520,note_off,480,0,1,,,,,,,,,0,,,68,0
419520,note_on,0,0,1,,,,,,,,,0,,,67,49
419950,set_tempo,910,1,0,,,,,,1363636,,,,,,,
420000,note_on,0,0,3,,,,,,,,,2,,,59,46
420000,note_on,0,0,3,,,,,,,,,2,,,56,46
420000,note_off,0,0,3,,,,,,,,,2,,,58,0
420000,note_off,480,0,3,,,,,,,,,2,,,61,0
420000,note_on,0,0,1,,,,,,,,,0,,,68,45
420000,note_off,480,0,1,,,,,,,,,0,,,67,0
420000,note_on,0,0,4,,,,,,,,,3,,,44,48
420000,note_off,480,0,4,,,,,,,,,3,,,51,0
420360,control_change,5640,0,2,,,,,,,64,127,1,,,,
420360,note_on,0,0,3,,,,,,,,,2,,,57,37
420360,control_change,360,0,3,,,,,,,64,127,2,,,,
420367,note_off,367,0,1,,,,,,,,,0,,,68,0
420367,note_off,7,0,3,,,,,,,,,2,,,59,0
420376,note_off,9,0,3,,,,,,,,,2,,,56,0
420400,note_on,0,0,3,,,,,,,,,2,,,61,40
420400,note_off,24,0,3,,,,,,,,,2,,,57,0
420408,note_off,408,0,4,,,,,,,,,3,,,44,0
420440,note_on,0,0,3,,,,,,,,,2,,,66,42
420440,note_off,40,0,3,,,,,,,,,2,,,61,0
420440,set_tempo,490,1,0,,,,,,1428571,,,,,,,
420480,control_change,120,0,2,,,,,,,64,0,1,,,,
420480,note_on,0,0,3,,,,,,,,,2,,,54,44
420480,note_off,0,0,3,,,,,,,,,2,,,66,0
420480,note_on,113,0,1,,,,,,,,,0,,,69,44
420480,control_change,40,0,3,,,,,,,64,0,2,,,,
420480,set_tempo,40,1,0,,,,,,1333333,,,,,,,
420480,note_on,72,0,4,,,,,,,,,3,,,42,44
420720,set_tempo,240,1,0,,,,,,1276595,,,,,,,
420960,note_off,480,0,1,,,,,,,,,0,,,69,0
420960,note_on,0,0,1,,,,,,,,,0,,,69,48
420960,note_off,480,0,3,,,,,,,,,2,,,54,0
420960,note_off,480,0,4,,,,,,,,,3,,,42,0
420960,note_on,0,0,4,,,,,,,,,3,,,54,48
420960,note_on,0,0,3,,,,,,,,,2,,,57,46
421440,note_off,480,0,4,,,,,,,,,3,,,54,0
421440,note_on,0,0,3,,,,,,,,,2,,,57,50
421440,note_on,0,0,3,,,,,,,,,2,,,54,50
421440,note_off,480,0,3,,,,,,,,,2,,,57,0
421440,note_on,0,0,4,,,,,,,,,3,,,52,51
421680,note_off,720,0,1,,,,,,,,,0,,,69,0
421680,note_on,0,0,1,,,,,,,,,0,,,73,54
421687,set_tempo,967,1,0,,,,,,1333333,,,,,,,
421920,note_off,240,0,1,,,,,,,,,0,,,73,0
421920,set_tempo,233,1,0,,,,,,1153846,,,,,,,
421920,control_change,480,0,4,,,,,,,64,127,3,,,,
421920,note_off,0,0,4,,,,,,,,,3,,,52,0
421920,note_on,0,0,4,,,,,,,,,3,,,51,54
421920,note_off,0,0,3,,,,,,,,,2,,,57,0
421920,control_change,480,0,3,,,,,,,64,127,2,,,,
421920,note_off,0,0,3,,,,,,,,,2,,,54,0
421960,note_on,40,0,3,,,,,,,,,2,,,54,48
422000,note_off,40,0,3,,,,,,,,,2,,,54,0
422000,note_on,0,0,3,,,,,,,,,2,,,57,49
422040,note_off,40,0,3,,,,,,,,,2,,,57,0
422040,note_on,0,0,3,,,,,,,,,2,,,59,50
422080,note_off,40,0,3,,,,,,,,,2,,,59,0
422080,note_on,0,0,3,,,,,,,,,2,,,63,52
422115,set_tempo,195,1,0,,,,,,1200000,,,,,,,
422120,note_off,40,0,3,,,,,,,,,2,,,63,0
422120,note_on,0,0,3,,,,,,,,,2,,,66,53
422160,note_on,0,0,3,,,,,,,,,2,,,69,54
422160,set_tempo,45,1,0,,,,,,1153846,,,,,,,
422160,note_off,40,0,3,,,,,,,,,2,,,66,0
422195,set_tempo,35,1,0,,,,,,2500000,,,,,,,
422200,note_off,40,0,3,,,,,,,,,2,,,69,0
422200,note_on,280,0,1,,,,,,,,,0,,,73,60
422407,note_off,487,0,4,,,,,,,,,3,,,51,0
422640,control_change,2160,0,2,,,,,,,64,0,1,,,,
422640,note_on,440,0,1,,,,,,,,,0,,,71,52
422647,note_off,7,0,1,,,,,,,,,0,,,73,0
422650,set_tempo,455,1,0,,,,,,1276595,,,,,,,
422880,note_off,233,0,1,,,,,,,,,0,,,71,0
422880,note_on,0,0,1,,,,,,,,,0,,,69,51
422880,note_on,680,0,3,,,,,,,,,2,,,66,49
423120,control_change,240,0,3,,,,,,,64,0,2,,,,
423120,note_on,0,0,3,,,,,,,,,2,,,64,46
423120,note_on,0,0,3,,,,,,,,,2,,,56,46
423120,note_on,0,0,3,,,,,,,,,2,,,59,46
423120,note_off,0,0,3,,,,,,,,,2,,,66,0
423120,control_change,713,0,4,,,,,,,64,0,3,,,,
423120,note_on,0,0,4,,,,,,,,,3,,,52,48
423120,note_on,0,0,1,,,,,,,,,0,,,68,50
423120,note_off,240,0,1,,,,,,,,,0,,,69,0
423120,set_tempo,470,1,0,,,,,,1333333,,,,,,,
423240,set_tempo,120,1,0,,,,,,1363636,,,,,,,
423360,note_on,0,0,3,,,,,,,,,2,,,64,44
423360,note_off,240,0,4,,,,,,,,,3,,,52,0
423360,note_off,240,0,1,,,,,,,,,0,,,68,0
423360,note_off,240,0,3,,,,,,,,,2,,,64,0
423360,note_off,0,0,3,,,,,,,,,2,,,56,0
423360,note_off,0,0,3,,,,,,,,,2,,,59,0
423360,note_on,0,0,1,,,,,,,,,0,,,68,48
423360,note_on,0,0,4,,,,,,,,,3,,,47,45
423490,set_tempo,250,1,0,,,,,,1333333,,,,,,,
423720,set_tempo,230,1,0,,,,,,1363636,,,,,,,
423720,note_off,360,0,1,,,,,,,,,0,,,68,0
423720,note_on,0,0,1,,,,,,,,,0,,,69,48
423840,note_off,120,0,1,,,,,,,,,0,,,69,0
423840,note_on,0,0,1,,,,,,,,,0,,,71,48
423840,note_on,0,0,3,,,,,,,,,2,,,56,41
423840,note_off,480,0,3,,,,,,,,,2,,,64,0
423840,note_on,0,0,3,,,,,,,,,2,,,64,41
424320,note_on,0,0,3,,,,,,,,,2,,,63,39
424320,note_on,0,0,3,,,,,,,,,2,,,54,39
424320,note_off,0,0,3,,,,,,,,,2,,,56,0
424320,note_off,480,0,3,,,,,,,,,2,,,64,0
424320,note_on,0,0,4,,,,,,,,,3,,,47,41
424320,note_off,960,0,4,,,,,,,,,3,,,47,0
424560,note_off,720,0,1,,,,,,,,,0,,,71,0
424560,note_on,0,0,1,,,,,,,,,0,,,69,43
424560,set_tempo,840,1,0,,,,,,1500000,,,,,,,
424800,note_off,0,0,3,,,,,,,,,2,,,54,0
424800,note_on,0,0,3,,,,,,,,,2,,,63,36
424800,note_off,480,0,4,,,,,,,,,3,,,47,0
424800,note_on,0,0,4,,,,,,,,,3,,,40,39
424800,note_on,0,0,3,,,,,,,,,2,,,66,36
424800,note_off,480,0,3,,,,,,,,,2,,,63,0
424800,note_on,0,0,3,,,,,,,,,2,,,59,36
424800,set_tempo,240,1,0,,,,,,1500000,,,,,,,
424800,note_on,0,0,1,,,,,,,,,0,,,69,42
424800,note_off,240,0,1,,,,,,,,,0,,,69,0
425270,set_tempo,470,1,0,,,,,,1935483,,,,,,,
425280,note_off,480,0,4,,,,,,,,,3,,,40,0
425280,note_on,0,0,4,,,,,,,,,3,,,47,36
425760,note_off,960,0,3,,,,,,,,,2,,,59,0
425760,set_tempo,490,1,0,,,,,,2500000,,,,,,,
425760,note_on,0,0,1,,,,,,,,,0,,,68,36
425760,control_change,960,0,1,,,,,,,64,127,0,,,,
425760,control_change,0,0,1,,,,,,,64,127,0,,,,
425760,note_off,0,0,3,,,,,,,,,2,,,66,0
425760,note_on,0,0,3,,,,,,,,,2,,,59,32
425760,note_on,0,0,4,,,,,,,,,3,,,52,34
425760,control_change,480,0,4,,,,,,,64,127,3,,,,
425760,note_on,0,0,3,,,,,,,,,2,,,64,32
425760,note_off,0,0,3,,,,,,,,,2,,,63,0
425760,note_off,0,0,1,,,,,,,,,0,,,69,0
425760,note_off,0,0,4,,,,,,,,,3,,,47,0
426180,note_off,420,0,4,,,,,,,,,3,,,52,0
426180,note_off,420,0,3,,,,,,,,,2,,,59,0
426185,note_off,425,0,1,,,,,,,,,0,,,68,0
426185,note_off,5,0,3,,,,,,,,,2,,,64,0
426240,set_tempo,480,1,0,,,,,,400000,,,,,,,
426960,control_change,0,0,1,,,,,,,64,0,0,,,,
426960,control_change,780,0,4,,,,,,,64,0,3,,,,
426960,control_change,775,0,1,,,,,,,64,0,0,,,,
427200,control_change,240,0,1,,,,,,,64,0,0,,,,
427200,control_change,0,0,1,,,,,,,64,0,0,,,,
427200,control_change,240,0,4,,,,,,,64,0,3,,,,
427550,marker,1310,1,0,,,,,,,,,,,,,
427560,set_tempo,10,1,0,,,,,,1016949,,,,,,,
427620,note_on,420,0,1,,,,,,,,,0,,,71,49
427680,control_change,0,0,1,,,,,,,64,0,0,,,,
427680,control_change,480,0,4,,,,,,,64,0,3,,,,
427680,control_change,1495,0,3,,,,,,,64,0,2,,,,
427680,note_on,0,0,4,,,,,,,,,3,,,40,49
427680,control_change,5040,0,2,,,,,,,64,0,1,,,,
427680,control_change,0,0,2,,,,,,,7,117,1,,,,
427680,note_on,0,0,1,,,,,,,,,0,,,83,53
427680,control_change,0,0,4,,,,,,,7,122,3,,,,
427680,control_change,60,0,1,,,,,,,7,127,0,,,,
427680,set_tempo,120,1,0,,,,,,882352,,,,,,,
427680,control_change,0,0,3,,,,,,,7,112,2,,,,
427800,set_tempo,120,1,0,,,,,,845070,,,,,,,
428160,note_on,0,0,3,,,,,,,,,2,,,47,39
428160,note_on,480,0,3,,,,,,,,,2,,,52,39
428160,note_on,0,0,3,,,,,,,,,2,,,59,39
428160,note_on,0,0,3,,,,,,,,,2,,,56,39
428182,note_off,502,0,1,,,,,,,,,0,,,71,0
428640,note_off,0,0,3,,,,,,,,,2,,,52,0
428640,note_off,0,0,3,,,,,,,,,2,,,56,0
428640,note_off,0,0,3,,,,,,,,,2,,,59,0
428640,note_off,480,0,3,,,,,,,,,2,,,47,0
428640,note_on,0,0,3,,,,,,,,,2,,,56,39
428640,note_on,0,0,3,,,,,,,,,2,,,47,39
428640,note_off,458,0,1,,,,,,,,,0,,,83,0
428640,note_on,0,0,3,,,,,,,,,2,,,59,39
428640,note_on,0,0,3,,,,,,,,,2,,,52,39
428640,note_on,0,0,1,,,,,,,,,0,,,76,49
429000,set_tempo,1200,1,0,,,,,,882352,,,,,,,
429000,note_off,360,0,1,,,,,,,,,0,,,76,0
429000,note_on,0,0,1,,,,,,,,,0,,,78,49
429120,note_off,480,0,3,,,,,,,,,2,,,52,0
429120,note_on,0,0,1,,,,,,,,,0,,,76,50
429120,note_off,1440,0,4,,,,,,,,,3,,,40,0
429120,note_off,0,0,3,,,,,,,,,2,,,56,0
429120,note_off,0,0,3,,,,,,,,,2,,,59,0
429120,note_on,0,0,4,,,,,,,,,3,,,42,47
429120,note_off,120,0,1,,,,,,,,,0,,,78,0
429120,set_tempo,120,1,0,,,,,,882352,,,,,,,
429120,note_off,0,0,3,,,,,,,,,2,,,47,0
429250,set_tempo,130,1,0,,,,,,845070,,,,,,,
429600,note_on,0,0,1,,,,,,,,,0,,,75,45
429600,note_on,0,0,3,,,,,,,,,2,,,47,38
429600,note_off,480,0,1,,,,,,,,,0,,,76,0
429600,note_on,0,0,3,,,,,,,,,2,,,59,38
429600,note_on,0,0,3,,,,,,,,,2,,,57,38
429600,note_on,480,0,3,,,,,,,,,2,,,54,38
430080,note_on,0,0,3,,,,,,,,,2,,,59,37
430080,note_on,0,0,3,,,,,,,,,2,,,47,37
430080,note_on,0,0,3,,,,,,,,,2,,,54,37
430080,note_off,0,0,3,,,,,,,,,2,,,57,0
430080,note_off,0,0,3,,,,,,,,,2,,,59,0
430080,note_off,480,0,3,,,,,,,,,2,,,47,0
430080,note_on,0,0,3,,,,,,,,,2,,,57,37
430080,note_off,0,0,3,,,,,,,,,2,,,54,0
430200,set_tempo,950,1,0,,,,,,909090,,,,,,,
430440,note_off,840,0,1,,,,,,,,,0,,,75,0
430440,note_on,0,0,1,,,,,,,,,0,,,71,44
430500,note_off,60,0,1,,,,,,,,,0,,,71,0
430500,note_on,0,0,1,,,,,,,,,0,,,71,46
430560,note_off,480,0,3,,,,,,,,,2,,,59,0
430560,note_on,60,0,1,,,,,,,,,0,,,83,52
430560,note_off,0,0,3,,,,,,,,,2,,,54,0
430560,note_off,1440,0,4,,,,,,,,,3,,,42,0
430560,note_on,0,0,4,,,,,,,,,3,,,44,46
430560,note_off,0,0,3,,,,,,,,,2,,,57,0
430560,set_tempo,360,1,0,,,,,,882352,,,,,,,
430560,note_off,0,0,3,,,,,,,,,2,,,47,0
430680,set_tempo,120,1,0,,,,,,845070,,,,,,,
431040,note_on,0,0,3,,,,,,,,,2,,,59,36
431040,note_on,0,0,3,,,,,,,,,2,,,52,36
431040,note_off,480,0,1,,,,,,,,,0,,,71,0
431040,note_on,480,0,3,,,,,,,,,2,,,47,36
431040,note_on,0,0,3,,,,,,,,,2,,,56,36
431280,note_on,0,0,1,,,,,,,,,0,,,75,44
431280,note_off,240,0,1,,,,,,,,,0,,,83,0
431470,set_tempo,790,1,0,,,,,,882352,,,,,,,
431520,note_on,0,0,3,,,,,,,,,2,,,47,36
431520,note_on,0,0,1,,,,,,,,,0,,,76,40
431520,note_on,0,0,3,,,,,,,,,2,,,52,36
431520,note_on,0,0,3,,,,,,,,,2,,,59,36
431520,note_on,0,0,3,,,,,,,,,2,,,56,36
431520,note_off,0,0,3,,,,,,,,,2,,,47,0
431520,note_off,0,0,3,,,,,,,,,2,,,52,0
431520,note_off,0,0,3,,,,,,,,,2,,,56,0
431520,note_off,480,0,3,,,,,,,,,2,,,59,0
431520,note_off,240,0,1,,,,,,,,,0,,,75,0
431560,note_on,0,0,1,,,,,,,,,0,,,78,41
431560,note_off,40,0,1,,,,,,,,,0,,,76,0
431580,set_tempo,110,1,0,,,,,,845070,,,,,,,
431600,note_on,0,0,1,,,,,,,,,0,,,76,41
431600,note_off,40,0,1,,,,,,,,,0,,,78,0
431640,note_off,40,0,1,,,,,,,,,0,,,76,0
431640,note_on,0,0,1,,,,,,,,,0,,,75,42
431700,note_off,60,0,1,,,,,,,,,0,,,75,0
431700,note_on,0,0,1,,,,,,,,,0,,,76,43
431760,note_off,60,0,1,,,,,,,,,0,,,76,0
431760,note_on,0,0,1,,,,,,,,,0,,,78,44
431880,set_tempo,300,1,0,,,,,,882352,,,,,,,
431880,note_off,120,0,1,,,,,,,,,0,,,78,0
431880,note_on,0,0,1,,,,,,,,,0,,,80,46
432000,note_off,0,0,3,,,,,,,,,2,,,52,0
432000,note_off,0,0,3,,,,,,,,,2,,,56,0
432000,note_on,0,0,1,,,,,,,,,0,,,80,48
432000,note_on,0,0,4,,,,,,,,,3,,,45,45
432000,note_off,1440,0,4,,,,,,,,,3,,,44,0
432000,note_off,0,0,3,,,,,,,,,2,,,47,0
432000,note_off,480,0,3,,,,,,,,,2,,,59,0
432000,note_off,120,0,1,,,,,,,,,0,,,80,0
432480,note_on,0,0,3,,,,,,,,,2,,,54,35
432480,note_on,480,0,3,,,,,,,,,2,,,51,35
432480,note_on,0,0,3,,,,,,,,,2,,,47,35
432480,note_on,0,0,3,,,,,,,,,2,,,59,35
432480,note_on,0,0,1,,,,,,,,,0,,,78,45
432480,note_off,480,0,1,,,,,,,,,0,,,80,0
432500,set_tempo,620,1,0,,,,,,909090,,,,,,,
432960,note_on,0,0,3,,,,,,,,,2,,,51,34
432960,note_off,480,0,3,,,,,,,,,2,,,59,0
432960,note_off,0,0,3,,,,,,,,,2,,,54,0
432960,note_off,0,0,3,,,,,,,,,2,,,51,0
432960,note_on,0,0,3,,,,,,,,,2,,,47,34
432960,note_on,0,0,3,,,,,,,,,2,,,54,34
432960,note_on,0,0,3,,,,,,,,,2,,,59,34
432960,note_off,0,0,3,,,,,,,,,2,,,47,0
433090,set_tempo,590,1,0,,,,,,952380,,,,,,,
433200,note_on,0,0,1,,,,,,,,,0,,,75,40
433200,note_off,720,0,1,,,,,,,,,0,,,78,0
433380,note_on,0,0,1,,,,,,,,,0,,,71,40
433380,note_off,180,0,1,,,,,,,,,0,,,75,0
433400,set_tempo,310,1,0,,,,,,952380,,,,,,,
433440,note_off,480,0,3,,,,,,,,,2,,,59,0
433440,note_on,0,0,4,,,,,,,,,3,,,44,44
433440,set_tempo,40,1,0,,,,,,882352,,,,,,,
433440,note_on,60,0,1,,,,,,,,,0,,,83,46
433440,note_off,0,0,3,,,,,,,,,2,,,54,0
433440,note_off,1440,0,4,,,,,,,,,3,,,45,0
433440,note_off,0,0,3,,,,,,,,,2,,,47,0
433440,note_off,0,0,3,,,,,,,,,2,,,51,0
433560,set_tempo,120,1,0,,,,,,845070,,,,,,,
433620,note_off,180,0,1,,,,,,,,,0,,,71,0
433920,note_on,0,0,3,,,,,,,,,2,,,59,34
433920,note_on,0,0,3,,,,,,,,,2,,,47,34
433920,note_on,0,0,3,,,,,,,,,2,,,52,34
433920,note_on,480,0,3,,,,,,,,,2,,,56,34
434160,note_on,0,0,1,,,,,,,,,0,,,80,42
434160,note_off,540,0,1,,,,,,,,,0,,,83,0
434352,note_off,192,0,1,,,,,,,,,0,,,80,0
434400,note_on,48,0,1,,,,,,,,,0,,,78,43
434400,note_off,0,0,3,,,,,,,,,2,,,52,0
434400,note_off,0,0,3,,,,,,,,,2,,,56,0
434400,note_on,0,0,3,,,,,,,,,2,,,56,35
434400,note_on,0,0,3,,,,,,,,,2,,,52,35
434400,note_on,0,0,3,,,,,,,,,2,,,47,35
434400,note_off,480,0,3,,,,,,,,,2,,,59,0
434400,note_off,0,0,3,,,,,,,,,2,,,47,0
434400,note_on,0,0,3,,,,,,,,,2,,,59,35
434688,note_off,288,0,1,,,,,,,,,0,,,78,0
434710,set_tempo,1150,1,0,,,,,,882352,,,,,,,
434760,note_on,72,0,1,,,,,,,,,0,,,76,44
434856,note_off,96,0,1,,,,,,,,,0,,,76,0
434880,note_off,0,0,3,,,,,,,,,2,,,52,0
434880,note_on,24,0,1,,,,,,,,,0,,,76,44
434880,note_off,1440,0,4,,,,,,,,,3,,,44,0
434880,note_on,0,0,4,,,,,,,,,3,,,42,48
434880,note_off,0,0,3,,,,,,,,,2,,,56,0
434880,note_off,480,0,3,,,,,,,,,2,,,59,0
434880,note_off,0,0,3,,,,,,,,,2,,,47,0
435000,set_tempo,290,1,0,,,,,,845070,,,,,,,
435120,note_off,240,0,1,,,,,,,,,0,,,76,0
435120,note_on,0,0,1,,,,,,,,,0,,,75,45
435360,note_on,480,0,3,,,,,,,,,2,,,57,38
435360,note_on,0,0,3,,,,,,,,,2,,,47,38
435360,note_on,0,0,3,,,,,,,,,2,,,54,38
435360,note_on,0,0,3,,,,,,,,,2,,,51,38
435600,note_off,480,0,1,,,,,,,,,0,,,75,0
435600,note_on,0,0,1,,,,,,,,,0,,,73,47
435792,note_off,192,0,1,,,,,,,,,0,,,73,0
435840,note_on,48,0,1,,,,,,,,,0,,,71,47
435840,note_off,960,0,4,,,,,,,,,3,,,42,0
435840,note_off,480,0,3,,,,,,,,,2,,,47,0
435840,note_on,0,0,4,,,,,,,,,3,,,39,51
435840,note_off,0,0,3,,,,,,,,,2,,,51,0
435840,note_off,0,0,3,,,,,,,,,2,,,54,0
435840,note_off,0,0,3,,,,,,,,,2,,,57,0
435840,note_on,0,0,3,,,,,,,,,2,,,47,40
436032,note_off,192,0,1,,,,,,,,,0,,,71,0
436080,note_on,48,0,1,,,,,,,,,0,,,69,48
436200,set_tempo,1200,1,0,,,,,,882352,,,,,,,
436272,note_off,192,0,1,,,,,,,,,0,,,69,0
436320,note_on,48,0,1,,,,,,,,,0,,,69,53
436320,note_off,480,0,4,,,,,,,,,3,,,39,0
436320,note_on,0,0,3,,,,,,,,,2,,,47,42
436320,note_off,480,0,3,,,,,,,,,2,,,47,0
436320,note_on,0,0,4,,,,,,,,,3,,,40,53
436440,set_tempo,240,1,0,,,,,,845070,,,,,,,
436560,note_on,0,0,1,,,,,,,,,0,,,68,50
436560,note_off,240,0,1,,,,,,,,,0,,,69,0
436800,note_off,480,0,3,,,,,,,,,2,,,47,0
436800,note_on,0,0,3,,,,,,,,,2,,,47,43
436800,note_on,0,0,1,,,,,,,,,0,,,66,49
436800,note_off,240,0,1,,,,,,,,,0,,,68,0
436800,note_on,0,0,4,,,,,,,,,3,,,39,47
436800,note_off,480,0,4,,,,,,,,,3,,,40,0
437040,note_off,240,0,4,,,,,,,,,3,,,39,0
437040,note_on,0,0,4,,,,,,,,,3,,,38,45
437040,note_on,0,0,1,,,,,,,,,0,,,71,48
437040,note_off,240,0,1,,,,,,,,,0,,,66,0
437280,note_on,0,0,4,,,,,,,,,3,,,37,44
437280,note_off,240,0,1,,,,,,,,,0,,,71,0
437280,note_on,0,0,1,,,,,,,,,0,,,70,46
437280,note_off,480,0,3,,,,,,,,,2,,,47,0
437280,note_off,240,0,4,,,,,,,,,3,,,38,0
437520,note_on,240,0,1,,,,,,,,,0,,,76,45
437520,note_on,240,0,4,,,,,,,,,3,,,30,42
437540,set_tempo,1100,1,0,,,,,,882352,,,,,,,
437760,note_off,240,0,1,,,,,,,,,0,,,76,0
437760,note_off,0,0,1,,,,,,,,,0,,,70,0
437760,note_on,0,0,1,,,,,,,,,0,,,78,44
437760,note_off,0,0,4,,,,,,,,,3,,,37,0
437760,note_off,240,0,4,,,,,,,,,3,,,30,0
437760,note_on,0,0,4,,,,,,,,,3,,,30,40
437760,note_on,10080,0,2,,,,,,,,,1,,,70,47
437760,note_on,480,0,3,,,,,,,,,2,,,37,40
438000,note_off,240,0,3,,,,,,,,,2,,,37,0
438000,note_on,0,0,3,,,,,,,,,2,,,43,43
438000,note_off,240,0,1,,,,,,,,,0,,,78,0
438000,note_on,0,0,1,,,,,,,,,0,,,76,42
438240,note_on,0,0,1,,,,,,,,,0,,,78,41
438240,note_off,240,0,3,,,,,,,,,2,,,43,0
438240,note_on,0,0,3,,,,,,,,,2,,,42,40
438240,note_off,240,0,1,,,,,,,,,0,,,76,0
438430,set_tempo,890,1,0,,,,,,909090,,,,,,,
438480,note_off,240,0,1,,,,,,,,,0,,,78,0
438480,note_on,0,0,1,,,,,,,,,0,,,79,40
438480,note_off,240,0,3,,,,,,,,,2,,,42,0
438480,note_on,0,0,3,,,,,,,,,2,,,40,38
438720,note_on,0,0,4,,,,,,,,,3,,,35,41
438720,note_off,960,0,4,,,,,,,,,3,,,30,0
438720,note_on,0,0,1,,,,,,,,,0,,,75,38
438720,note_on,0,0,3,,,,,,,,,2,,,42,35
438720,note_off,240,0,3,,,,,,,,,2,,,40,0
438720,note_off,960,0,2,,,,,,,,,1,,,70,0
438720,note_on,0,0,2,,,,,,,,,1,,,71,47
438720,note_off,240,0,1,,,,,,,,,0,,,79,0
438960,note_on,0,0,4,,,,,,,,,3,,,37,43
438960,note_off,240,0,4,,,,,,,,,3,,,35,0
438960,note_off,240,0,3,,,,,,,,,2,,,42,0
439008,note_off,288,0,2,,,,,,,,,1,,,71,0
439008,note_off,288,0,1,,,,,,,,,0,,,75,0
439040,set_tempo,610,1,0,,,,,,967741,,,,,,,
439080,note_on,72,0,1,,,,,,,,,0,,,71,49
439080,note_on,0,0,4,,,,,,,,,3,,,39,43
439080,note_off,120,0,4,,,,,,,,,3,,,37,0
439135,note_off,55,0,1,,,,,,,,,0,,,71,0
439140,note_on,5,0,1,,,,,,,,,0,,,71,52
439200,control_change,240,0,3,,,,,,,7,102,2,,,,
439200,control_change,0,0,3,,,,,,,64,0,2,,,,
439200,note_on,0,0,4,,,,,,,,,3,,,40,49
439200,note_off,0,0,4,,,,,,,,,3,,,39,0
439200,control_change,0,0,4,,,,,,,64,0,3,,,,
439200,control_change,120,0,4,,,,,,,7,107,3,,,,
439200,control_change,192,0,2,,,,,,,7,107,1,,,,
439200,set_tempo,160,1,0,,,,,,882352,,,,,,,
439200,control_change,0,0,2,,,,,,,64,0,1,,,,
439200,note_on,0,0,1,,,,,,,,,0,,,83,53
439200,control_change,60,0,1,,,,,,,64,0,0,,,,
439200,control_change,0,0,1,,,,,,,7,117,0,,,,
439320,set_tempo,120,1,0,,,,,,845070,,,,,,,
439680,note_on,0,0,3,,,,,,,,,2,,,52,39
439680,note_on,480,0,3,,,,,,,,,2,,,47,39
439680,note_on,0,0,3,,,,,,,,,2,,,56,39
439680,note_on,0,0,3,,,,,,,,,2,,,59,39
439695,note_off,495,0,1,,,,,,,,,0,,,71,0
440160,note_on,0,0,1,,,,,,,,,0,,,76,49
440160,note_off,0,0,3,,,,,,,,,2,,,59,0
440160,note_off,0,0,3,,,,,,,,,2,,,56,0
440160,note_off,480,0,3,,,,,,,,,2,,,52,0
440160,note_on,0,0,3,,,,,,,,,2,,,52,39
440160,note_on,0,0,3,,,,,,,,,2,,,59,39
440160,note_on,0,0,3,,,,,,,,,2,,,56,39
440160,note_on,0,0,3,,,,,,,,,2,,,47,39
440160,note_off,465,0,1,,,,,,,,,0,,,83,0
440160,note_off,0,0,3,,,,,,,,,2,,,47,0
440520,set_tempo,1200,1,0,,,,,,882352,,,,,,,
440520,note_on,0,0,1,,,,,,,,,0,,,78,49
440520,note_off,360,0,1,,,,,,,,,0,,,76,0
440640,note_off,480,0,3,,,,,,,,,2,,,47,0
440640,note_off,0,0,3,,,,,,,,,2,,,56,0
440640,note_off,0,0,3,,,,,,,,,2,,,59,0
440640,note_off,0,0,3,,,,,,,,,2,,,52,0
440640,note_off,120,0,1,,,,,,,,,0,,,78,0
440640,note_on,0,0,1,,,,,,,,,0,,,76,50
440640,set_tempo,120,1,0,,,,,,882352,,,,,,,
440640,note_on,0,0,4,,,,,,,,,3,,,42,47
440640,note_off,1440,0,4,,,,,,,,,3,,,40,0
440770,set_tempo,130,1,0,,,,,,845070,,,,,,,
441120,note_on,480,0,3,,,,,,,,,2,,,47,38
441120,note_off,480,0,1,,,,,,,,,0,,,76,0
441120,note_on,0,0,1,,,,,,,,,0,,,75,45
441120,note_on,0,0,3,,,,,,,,,2,,,59,38
441120,note_on,0,0,3,,,,,,,,,2,,,57,38
441120,note_on,0,0,3,,,,,,,,,2,,,54,38
441600,note_off,480,0,3,,,,,,,,,2,,,54,0
441600,note_on,0,0,3,,,,,,,,,2,,,57,37
441600,note_off,0,0,3,,,,,,,,,2,,,59,0
441600,note_off,0,0,3,,,,,,,,,2,,,47,0
441600,note_on,0,0,3,,,,,,,,,2,,,59,37
441600,note_on,0,0,3,,,,,,,,,2,,,47,37
441600,note_off,0,0,3,,,,,,,,,2,,,57,0
441600,note_on,0,0,3,,,,,,,,,2,,,54,37
441720,set_tempo,950,1,0,,,,,,909090,,,,,,,
441960,note_off,840,0,1,,,,,,,,,0,,,75,0
441960,note_on,0,0,1,,,,,,,,,0,,,71,44
442020,note_off,60,0,1,,,,,,,,,0,,,71,0
442020,note_on,0,0,1,,,,,,,,,0,,,71,46
442080,note_off,0,0,3,,,,,,,,,2,,,47,0
442080,note_on,0,0,4,,,,,,,,,3,,,44,44
442080,note_off,1440,0,4,,,,,,,,,3,,,42,0
442080,set_tempo,360,1,0,,,,,,882352,,,,,,,
442080,note_off,480,0,3,,,,,,,,,2,,,54,0
442080,note_on,60,0,1,,,,,,,,,0,,,83,52
442080,note_off,0,0,3,,,,,,,,,2,,,59,0
442080,note_off,0,0,3,,,,,,,,,2,,,57,0
442200,set_tempo,120,1,0,,,,,,845070,,,,,,,
442560,note_on,0,0,3,,,,,,,,,2,,,47,36
442560,note_on,0,0,3,,,,,,,,,2,,,56,36
442560,note_on,480,0,3,,,,,,,,,2,,,59,36
442560,note_on,0,0,3,,,,,,,,,2,,,52,36
442567,note_off,487,0,1,,,,,,,,,0,,,71,0
442800,note_off,233,0,1,,,,,,,,,0,,,83,0
442800,note_on,0,0,1,,,,,,,,,0,,,75,44
442990,set_tempo,790,1,0,,,,,,882352,,,,,,,
443040,note_on,0,0,1,,,,,,,,,0,,,76,40
443040,note_off,0,0,3,,,,,,,,,2,,,52,0
443040,note_off,480,0,3,,,,,,,,,2,,,47,0
443040,note_off,240,0,1,,,,,,,,,0,,,75,0
443040,note_on,0,0,3,,,,,,,,,2,,,52,36
443040,note_on,0,0,3,,,,,,,,,2,,,56,36
443040,note_on,0,0,3,,,,,,,,,2,,,59,36
443040,note_off,0,0,3,,,,,,,,,2,,,59,0
443040,note_off,0,0,3,,,,,,,,,2,,,56,0
443040,note_on,0,0,3,,,,,,,,,2,,,47,36
443080,note_on,0,0,1,,,,,,,,,0,,,78,41
443080,note_off,40,0,1,,,,,,,,,0,,,76,0
443100,set_tempo,110,1,0,,,,,,845070,,,,,,,
443120,note_off,40,0,1,,,,,,,,,0,,,78,0
443120,note_on,0,0,1,,,,,,,,,0,,,76,41
443160,note_off,40,0,1,,,,,,,,,0,,,76,0
443160,note_on,0,0,1,,,,,,,,,0,,,75,42
443220,note_off,60,0,1,,,,,,,,,0,,,75,0
443220,note_on,0,0,1,,,,,,,,,0,,,76,43
443280,note_on,0,0,1,,,,,,,,,0,,,78,44
443280,note_off,60,0,1,,,,,,,,,0,,,76,0
443400,note_off,120,0,1,,,,,,,,,0,,,78,0
443400,note_on,0,0,1,,,,,,,,,0,,,80,46
443400,set_tempo,300,1,0,,,,,,882352,,,,,,,
443520,note_off,1440,0,4,,,,,,,,,3,,,44,0
443520,note_on,0,0,4,,,,,,,,,3,,,45,45
443520,note_on,0,0,1,,,,,,,,,0,,,80,48
443520,note_off,0,0,3,,,,,,,,,2,,,59,0
443520,note_off,0,0,3,,,,,,,,,2,,,47,0
443520,note_off,480,0,3,,,,,,,,,2,,,56,0
443520,note_off,120,0,1,,,,,,,,,0,,,80,0
443520,note_off,0,0,3,,,,,,,,,2,,,52,0
444000,note_on,0,0,3,,,,,,,,,2,,,54,35
444000,note_on,0,0,3,,,,,,,,,2,,,47,35
444000,note_on,0,0,3,,,,,,,,,2,,,51,35
444000,note_on,0,0,1,,,,,,,,,0,,,78,45
444000,note_off,480,0,1,,,,,,,,,0,,,80,0
444000,note_on,480,0,3,,,,,,,,,2,,,59,35
444020,set_tempo,620,1,0,,,,,,909090,,,,,,,
444480,note_off,0,0,3,,,,,,,,,2,,,54,0
444480,note_on,0,0,3,,,,,,,,,2,,,47,34
444480,note_on,0,0,3,,,,,,,,,2,,,51,34
444480,note_on,0,0,3,,,,,,,,,2,,,54,34
444480,note_on,0,0,3,,,,,,,,,2,,,59,34
444480,note_off,0,0,3,,,,,,,,,2,,,47,0
444480,note_off,480,0,3,,,,,,,,,2,,,51,0
444480,note_off,0,0,3,,,,,,,,,2,,,59,0
444610,set_tempo,590,1,0,,,,,,952380,,,,,,,
444720,note_off,720,0,1,,,,,,,,,0,,,78,0
444720,note_on,0,0,1,,,,,,,,,0,,,75,40
444900,note_off,180,0,1,,,,,,,,,0,,,75,0
444900,note_on,0,0,1,,,,,,,,,0,,,71,40
444920,set_tempo,310,1,0,,,,,,952380,,,,,,,
444960,set_tempo,40,1,0,,,,,,882352,,,,,,,
444960,note_off,480,0,3,,,,,,,,,2,,,47,0
444960,note_off,0,0,3,,,,,,,,,2,,,51,0
444960,note_off,1440,0,4,,,,,,,,,3,,,45,0
444960,note_off,0,0,3,,,,,,,,,2,,,59,0
444960,note_on,0,0,4,,,,,,,,,3,,,44,44
444960,note_off,0,0,3,,,,,,,,,2,,,54,0
444960,note_on,0,0,1,,,,,,,,,0,,,83,46
444960,note_off,60,0,1,,,,,,,,,0,,,71,0
445080,set_tempo,120,1,0,,,,,,845070,,,,,,,
445440,note_on,0,0,3,,,,,,,,,2,,,52,35
445440,note_on,0,0,3,,,,,,,,,2,,,56,35
445440,note_on,480,0,3,,,,,,,,,2,,,59,35
445440,note_on,0,0,3,,,,,,,,,2,,,47,35
445680,note_off,720,0,1,,,,,,,,,0,,,83,0
445680,note_on,0,0,1,,,,,,,,,0,,,80,42
445872,note_off,192,0,1,,,,,,,,,0,,,80,0
445920,note_off,480,0,3,,,,,,,,,2,,,56,0
445920,note_off,0,0,3,,,,,,,,,2,,,52,0
445920,note_off,0,0,3,,,,,,,,,2,,,59,0
445920,note_on,0,0,3,,,,,,,,,2,,,47,37
445920,note_on,0,0,3,,,,,,,,,2,,,52,37
445920,note_on,0,0,3,,,,,,,,,2,,,56,37
445920,note_on,0,0,3,,,,,,,,,2,,,59,37
445920,note_off,0,0,3,,,,,,,,,2,,,47,0
445920,note_on,48,0,1,,,,,,,,,0,,,78,43
446208,note_off,288,0,1,,,,,,,,,0,,,78,0
446230,set_tempo,1150,1,0,,,,,,882352,,,,,,,
446280,note_on,72,0,1,,,,,,,,,0,,,76,44
446376,note_off,96,0,1,,,,,,,,,0,,,76,0
446400,note_off,0,0,3,,,,,,,,,2,,,52,0
446400,note_on,0,0,4,,,,,,,,,3,,,42,46
446400,note_off,480,0,3,,,,,,,,,2,,,47,0
446400,note_off,1440,0,4,,,,,,,,,3,,,44,0
446400,note_on,24,0,1,,,,,,,,,0,,,76,44
446400,note_off,0,0,3,,,,,,,,,2,,,59,0
446400,note_off,0,0,3,,,,,,,,,2,,,56,0
446520,set_tempo,290,1,0,,,,,,845070,,,,,,,
446640,note_off,240,0,1,,,,,,,,,0,,,76,0
446640,note_on,0,0,1,,,,,,,,,0,,,75,45
446880,note_on,0,0,3,,,,,,,,,2,,,51,41
446880,note_on,480,0,3,,,,,,,,,2,,,47,41
446880,note_on,0,0,3,,,,,,,,,2,,,54,41
446880,note_on,0,0,3,,,,,,,,,2,,,57,41
447120,note_off,480,0,1,,,,,,,,,0,,,75,0
447120,note_on,0,0,1,,,,,,,,,0,,,73,47
447312,note_off,192,0,1,,,,,,,,,0,,,73,0
447360,note_off,960,0,4,,,,,,,,,3,,,42,0
447360,note_on,48,0,1,,,,,,,,,0,,,71,47
447360,note_on,0,0,4,,,,,,,,,3,,,39,50
447360,note_on,0,0,3,,,,,,,,,2,,,47,43
447360,note_off,480,0,3,,,,,,,,,2,,,57,0
447360,note_off,0,0,3,,,,,,,,,2,,,54,0
447360,note_off,0,0,3,,,,,,,,,2,,,51,0
447360,note_off,0,0,3,,,,,,,,,2,,,47,0
447552,note_off,192,0,1,,,,,,,,,0,,,71,0
447600,note_on,48,0,1,,,,,,,,,0,,,69,48
447720,set_tempo,1200,1,0,,,,,,882352,,,,,,,
447792,note_off,192,0,1,,,,,,,,,0,,,69,0
447840,note_on,0,0,4,,,,,,,,,3,,,40,53
447840,note_off,480,0,4,,,,,,,,,3,,,39,0
447840,note_on,48,0,1,,,,,,,,,0,,,69,53
447840,note_off,480,0,3,,,,,,,,,2,,,47,0
447840,note_on,0,0,3,,,,,,,,,2,,,47,45
447960,set_tempo,240,1,0,,,,,,845070,,,,,,,
448080,note_on,0,0,1,,,,,,,,,0,,,68,50
448080,note_off,240,0,1,,,,,,,,,0,,,69,0
448320,note_off,480,0,3,,,,,,,,,2,,,47,0
448320,note_on,0,0,3,,,,,,,,,2,,,47,43
448320,note_off,480,0,4,,,,,,,,,3,,,40,0
448320,note_on,0,0,1,,,,,,,,,0,,,66,49
448320,note_on,0,0,4,,,,,,,,,3,,,39,47
448320,note_off,240,0,1,,,,,,,,,0,,,68,0
448560,note_off,240,0,1,,,,,,,,,0,,,66,0
448560,note_on,0,0,4,,,,,,,,,3,,,38,45
448560,note_off,240,0,4,,,,,,,,,3,,,39,0
448560,note_on,0,0,1,,,,,,,,,0,,,71,48
448800,note_on,0,0,4,,,,,,,,,3,,,37,44
448800,note_off,240,0,4,,,,,,,,,3,,,38,0
448800,note_off,240,0,1,,,,,,,,,0,,,71,0
448800,note_on,0,0,1,,,,,,,,,0,,,70,46
448800,note_off,480,0,3,,,,,,,,,2,,,47,0
449040,note_on,240,0,1,,,,,,,,,0,,,76,45
449040,note_on,240,0,4,,,,,,,,,3,,,30,42
449060,set_tempo,1100,1,0,,,,,,882352,,,,,,,
449280,note_on,10080,0,2,,,,,,,,,1,,,70,47
449280,note_off,240,0,1,,,,,,,,,0,,,76,0
449280,note_off,0,0,1,,,,,,,,,0,,,70,0
449280,note_off,0,0,4,,,,,,,,,3,,,37,0
449280,note_on,0,0,4,,,,,,,,,3,,,30,40
449280,note_on,0,0,1,,,,,,,,,0,,,78,44
449280,note_off,240,0,4,,,,,,,,,3,,,30,0
449280,note_on,480,0,3,,,,,,,,,2,,,37,40
449520,note_off,240,0,1,,,,,,,,,0,,,78,0
449520,note_on,0,0,1,,,,,,,,,0,,,76,42
449520,note_on,0,0,3,,,,,,,,,2,,,43,43
449520,note_off,240,0,3,,,,,,,,,2,,,37,0
449760,note_off,240,0,1,,,,,,,,,0,,,76,0
449760,note_on,0,0,1,,,,,,,,,0,,,78,41
449760,note_on,0,0,3,,,,,,,,,2,,,42,40
449760,note_off,240,0,3,,,,,,,,,2,,,43,0
449950,set_tempo,890,1,0,,,,,,909090,,,,,,,
450000,note_on,0,0,1,,,,,,,,,0,,,79,40
450000,note_off,240,0,1,,,,,,,,,0,,,78,0
450000,note_off,240,0,3,,,,,,,,,2,,,42,0
450000,note_on,0,0,3,,,,,,,,,2,,,40,38
450240,note_off,240,0,3,,,,,,,,,2,,,40,0
450240,note_off,960,0,2,,,,,,,,,1,,,70,0
450240,note_off,960,0,4,,,,,,,,,3,,,30,0
450240,note_on,0,0,4,,,,,,,,,3,,,35,41
450240,note_off,240,0,1,,,,,,,,,0,,,79,0
450240,note_on,0,0,1,,,,,,,,,0,,,75,38
450240,note_on,0,0,2,,,,,,,,,1,,,71,47
450240,note_on,0,0,3,,,,,,,,,2,,,42,35
450480,note_on,0,0,4,,,,,,,,,3,,,37,46
450480,note_on,0,0,3,,,,,,,,,2,,,40,38
450480,note_off,240,0,4,,,,,,,,,3,,,35,0
450480,note_off,240,0,3,,,,,,,,,2,,,42,0
450528,note_off,288,0,2,,,,,,,,,1,,,71,0
450528,note_off,288,0,1,,,,,,,,,0,,,75,0
450560,set_tempo,610,1,0,,,,,,967741,,,,,,,
450600,note_on,72,0,1,,,,,,,,,0,,,71,49
450655,note_off,55,0,1,,,,,,,,,0,,,71,0
450660,note_on,5,0,1,,,,,,,,,0,,,71,52
450720,note_on,0,0,1,,,,,,,,,0,,,83,58
450720,set_tempo,160,1,0,,,,,,882352,,,,,,,
450720,note_off,240,0,4,,,,,,,,,3,,,37,0
450720,note_on,0,0,4,,,,,,,,,3,,,39,51
450720,note_on,0,0,3,,,,,,,,,2,,,42,45
450720,note_off,240,0,3,,,,,,,,,2,,,40,0
450720,note_off,60,0,1,,,,,,,,,0,,,71,0
450840,set_tempo,120,1,0,,,,,,845070,,,,,,,
451200,note_on,0,0,3,,,,,,,,,2,,,51,43
451200,note_on,0,0,3,,,,,,,,,2,,,54,43
451200,note_on,0,0,3,,,,,,,,,2,,,59,43
451200,note_off,480,0,3,,,,,,,,,2,,,42,0
451440,note_off,720,0,1,,,,,,,,,0,,,83,0
451440,note_on,0,0,1,,,,,,,,,0,,,71,50
451680,note_off,480,0,3,,,,,,,,,2,,,59,0
451680,note_off,0,0,3,,,,,,,,,2,,,54,0
451680,note_off,0,0,3,,,,,,,,,2,,,51,0
451680,note_on,0,0,3,,,,,,,,,2,,,53,46
451680,note_on,0,0,3,,,,,,,,,2,,,61,46
451680,note_on,0,0,3,,,,,,,,,2,,,56,46
451680,note_off,240,0,1,,,,,,,,,0,,,71,0
451680,note_on,0,0,1,,,,,,,,,0,,,72,54
452040,note_off,360,0,1,,,,,,,,,0,,,72,0
452040,note_on,0,0,1,,,,,,,,,0,,,73,51
452040,set_tempo,1200,1,0,,,,,,882352,,,,,,,
452100,note_on,0,0,1,,,,,,,,,0,,,73,52
452100,note_off,60,0,1,,,,,,,,,0,,,73,0
452160,note_off,0,0,3,,,,,,,,,2,,,53,0
452160,note_off,0,0,3,,,,,,,,,2,,,61,0
452160,note_off,480,0,3,,,,,,,,,2,,,56,0
452160,note_off,1440,0,4,,,,,,,,,3,,,39,0
452160,note_on,0,0,4,,,,,,,,,3,,,42,47
452160,note_on,0,0,1,,,,,,,,,0,,,81,56
452160,note_off,60,0,1,,,,,,,,,0,,,73,0
452270,set_tempo,230,1,0,,,,,,845070,,,,,,,
452640,note_on,0,0,3,,,,,,,,,2,,,57,41
452640,note_on,480,0,3,,,,,,,,,2,,,54,41
452880,note_off,720,0,1,,,,,,,,,0,,,81,0
452880,note_on,0,0,1,,,,,,,,,0,,,69,46
453120,note_off,480,0,3,,,,,,,,,2,,,57,0
453120,note_off,0,0,3,,,,,,,,,2,,,54,0
453120,note_on,0,0,3,,,,,,,,,2,,,50,45
453120,note_on,0,0,3,,,,,,,,,2,,,54,45
453120,note_on,0,0,3,,,,,,,,,2,,,59,45
453120,note_off,240,0,1,,,,,,,,,0,,,69,0
453120,note_on,0,0,1,,,,,,,,,0,,,70,52
453480,set_tempo,1210,1,0,,,,,,882352,,,,,,,
453480,note_on,0,0,1,,,,,,,,,0,,,71,43
453480,note_off,360,0,1,,,,,,,,,0,,,70,0
453540,note_on,0,0,1,,,,,,,,,0,,,71,46
453540,note_off,60,0,1,,,,,,,,,0,,,71,0
453600,note_off,1440,0,4,,,,,,,,,3,,,42,0
453600,note_off,60,0,1,,,,,,,,,0,,,71,0
453600,note_off,0,0,3,,,,,,,,,2,,,50,0
453600,note_off,0,0,3,,,,,,,,,2,,,54,0
453600,note_on,0,0,1,,,,,,,,,0,,,80,52
453600,note_on,0,0,4,,,,,,,,,3,,,40,44
453600,note_off,480,0,3,,,,,,,,,2,,,59,0
453720,set_tempo,240,1,0,,,,,,845070,,,,,,,
454080,note_on,0,0,3,,,,,,,,,2,,,59,39
454080,note_on,480,0,3,,,,,,,,,2,,,52,39
454080,note_on,0,0,3,,,,,,,,,2,,,56,39
454320,note_off,720,0,1,,,,,,,,,0,,,80,0
454320,note_on,0,0,1,,,,,,,,,0,,,68,39
454560,note_on,0,0,1,,,,,,,,,0,,,69,42
454560,note_off,240,0,1,,,,,,,,,0,,,68,0
454560,note_on,4032,0,2,,,,,,,,,1,,,64,47
454560,note_on,0,0,3,,,,,,,,,2,,,61,42
454560,note_off,0,0,3,,,,,,,,,2,,,56,0
454560,note_off,960,0,4,,,,,,,,,3,,,40,0
454560,note_off,480,0,3,,,,,,,,,2,,,59,0
454560,note_off,0,0,3,,,,,,,,,2,,,52,0
454560,note_on,0,0,4,,,,,,,,,3,,,49,44
454790,set_tempo,1070,1,0,,,,,,882352,,,,,,,
454920,note_on,0,0,1,,,,,,,,,0,,,76,49
454920,note_off,360,0,1,,,,,,,,,0,,,69,0
454920,set_tempo,130,1,0,,,,,,895522,,,,,,,
455040,note_off,480,0,4,,,,,,,,,3,,,49,0
455040,note_on,0,0,1,,,,,,,,,0,,,76,49
455040,set_tempo,120,1,0,,,,,,895522,,,,,,,
455040,control_change,480,0,2,,,,,,,64,0,1,,,,
455040,note_off,120,0,1,,,,,,,,,0,,,76,0
455040,note_on,0,0,4,,,,,,,,,3,,,51,49
455275,note_off,235,0,2,,,,,,,,,1,,,64,0
455280,note_on,5,0,2,,,,,,,,,1,,,63,47
455280,note_off,720,0,3,,,,,,,,,2,,,61,0
455280,note_on,0,0,3,,,,,,,,,2,,,59,42
455280,note_off,240,0,1,,,,,,,,,0,,,76,0
455280,note_on,0,0,1,,,,,,,,,0,,,75,46
455520,note_on,0,0,4,,,,,,,,,3,,,51,44
455520,note_off,480,0,4,,,,,,,,,3,,,51,0
455760,note_off,480,0,2,,,,,,,,,1,,,63,0
455760,note_on,0,0,1,,,,,,,,,0,,,67,44
455760,note_on,0,0,3,,,,,,,,,2,,,58,42
455760,note_on,0,0,2,,,,,,,,,1,,,61,47
455760,note_off,480,0,1,,,,,,,,,0,,,75,0
455760,note_off,480,0,3,,,,,,,,,2,,,59,0
455940,set_tempo,900,1,0,,,,,,909090,,,,,,,
456000,note_on,0,0,1,,,,,,,,,0,,,68,45
456000,note_on,0,0,3,,,,,,,,,2,,,56,44
456000,note_on,0,0,4,,,,,,,,,3,,,44,44
456000,note_off,480,0,4,,,,,,,,,3,,,51,0
456000,note_off,240,0,3,,,,,,,,,2,,,58,0
456000,note_off,240,0,2,,,,,,,,,1,,,61,0
456000,note_on,0,0,2,,,,,,,,,1,,,59,47
456000,note_off,240,0,1,,,,,,,,,0,,,67,0
456240,note_on,0,0,3,,,,,,,,,2,,,54,45
456240,note_on,0,0,1,,,,,,,,,0,,,69,47
456240,note_off,240,0,1,,,,,,,,,0,,,68,0
456240,note_off,240,0,2,,,,,,,,,1,,,59,0
456240,note_on,0,0,2,,,,,,,,,1,,,57,47
456240,note_off,240,0,4,,,,,,,,,3,,,44,0
456240,note_on,0,0,4,,,,,,,,,3,,,42,46
456240,note_off,240,0,3,,,,,,,,,2,,,56,0
456250,set_tempo,310,1,0,,,,,,952380,,,,,,,
456360,set_tempo,110,1,0,,,,,,1000000,,,,,,,
456420,note_on,180,0,1,,,,,,,,,0,,,81,54
456425,note_off,185,0,2,,,,,,,,,1,,,57,0
456425,note_off,5,0,1,,,,,,,,,0,,,69,0
456480,note_off,240,0,3,,,,,,,,,2,,,54,0
456480,note_off,240,0,4,,,,,,,,,3,,,42,0
456480,set_tempo,120,1,0,,,,,,882352,,,,,,,
456480,note_on,0,0,1,,,,,,,,,0,,,93,61
456480,note_on,0,0,4,,,,,,,,,3,,,42,56
456480,note_off,55,0,1,,,,,,,,,0,,,81,0
456600,set_tempo,120,1,0,,,,,,845070,,,,,,,
456960,note_on,480,0,3,,,,,,,,,2,,,54,44
456960,note_on,0,0,3,,,,,,,,,2,,,57,44
457200,note_on,0,0,1,,,,,,,,,0,,,80,44
457200,note_off,720,0,1,,,,,,,,,0,,,93,0
457440,note_on,0,0,1,,,,,,,,,0,,,81,51
457440,note_off,0,0,3,,,,,,,,,2,,,54,0
457440,note_off,480,0,3,,,,,,,,,2,,,57,0
457440,note_on,0,0,3,,,,,,,,,2,,,57,46
457440,note_on,0,0,3,,,,,,,,,2,,,52,46
457440,note_on,0,0,3,,,,,,,,,2,,,49,46
457440,note_off,240,0,1,,,,,,,,,0,,,80,0
457800,note_off,360,0,1,,,,,,,,,0,,,81,0
457800,note_on,0,0,1,,,,,,,,,0,,,85,50
457800,set_tempo,1200,1,0,,,,,,882352,,,,,,,
457920,note_off,480,0,3,,,,,,,,,2,,,57,0
457920,note_off,0,0,3,,,,,,,,,2,,,49,0
457920,note_off,0,0,3,,,,,,,,,2,,,52,0
457920,note_off,120,0,1,,,,,,,,,0,,,85,0
457920,note_off,1440,0,4,,,,,,,,,3,,,42,0
457920,note_on,0,0,1,,,,,,,,,0,,,82,52
457920,note_on,0,0,4,,,,,,,,,3,,,39,47
458040,set_tempo,240,1,0,,,,,,845070,,,,,,,
458280,note_off,360,0,1,,,,,,,,,0,,,82,0
458280,note_on,0,0,1,,,,,,,,,0,,,85,55
458400,note_on,0,0,1,,,,,,,,,0,,,82,57
458400,note_off,120,0,1,,,,,,,,,0,,,85,0
458400,note_on,0,0,3,,,,,,,,,2,,,51,50
458400,note_on,480,0,3,,,,,,,,,2,,,54,50
458400,note_on,0,0,3,,,,,,,,,2,,,57,50
458400,note_on,0,0,3,,,,,,,,,2,,,59,50
458760,note_on,0,0,1,,,,,,,,,0,,,85,53
458760,note_off,360,0,1,,,,,,,,,0,,,82,0
458880,note_off,120,0,1,,,,,,,,,0,,,85,0
458880,note_off,480,0,3,,,,,,,,,2,,,51,0
458880,note_on,0,0,1,,,,,,,,,0,,,81,51
458880,note_off,0,0,3,,,,,,,,,2,,,57,0
458880,note_off,0,0,3,,,,,,,,,2,,,54,0
458880,note_on,0,0,3,,,,,,,,,2,,,52,48
458880,note_on,0,0,3,,,,,,,,,2,,,56,48
458880,note_on,0,0,3,,,,,,,,,2,,,59,48
458880,note_off,0,0,3,,,,,,,,,2,,,59,0
459120,set_tempo,1080,1,0,,,,,,882352,,,,,,,
459240,note_on,0,0,1,,,,,,,,,0,,,80,48
459240,note_off,360,0,1,,,,,,,,,0,,,81,0
459300,note_on,0,0,1,,,,,,,,,0,,,80,48
459300,note_off,60,0,1,,,,,,,,,0,,,80,0
459360,note_on,0,0,4,,,,,,,,,3,,,47,45
459360,note_off,1440,0,4,,,,,,,,,3,,,39,0
459360,note_on,0,0,1,,,,,,,,,0,,,92,55
459360,note_off,60,0,1,,,,,,,,,0,,,80,0
459360,set_tempo,240,1,0,,,,,,909090,,,,,,,
459360,note_off,480,0,3,,,,,,,,,2,,,59,0
459360,note_off,0,0,3,,,,,,,,,2,,,56,0
459360,note_off,0,0,3,,,,,,,,,2,,,52,0
459540,note_on,180,0,1,,,,,,,,,0,,,80,54
459600,set_tempo,240,1,0,,,,,,909090,,,,,,,
459600,note_off,60,0,1,,,,,,,,,0,,,80,0
459600,note_off,0,0,1,,,,,,,,,0,,,92,0
459600,note_on,0,0,1,,,,,,,,,0,,,88,53
459840,note_on,480,0,3,,,,,,,,,2,,,59,43
459840,note_on,0,0,3,,,,,,,,,2,,,64,43
459840,note_on,0,0,3,,,,,,,,,2,,,56,43
459960,note_on,0,0,1,,,,,,,,,0,,,87,50
459960,note_off,360,0,1,,,,,,,,,0,,,88,0
460080,note_on,0,0,1,,,,,,,,,0,,,85,49
460080,note_off,120,0,1,,,,,,,,,0,,,87,0
460312,set_tempo,712,1,0,,,,,,952380,,,,,,,
460320,note_off,0,0,3,,,,,,,,,2,,,56,0
460320,note_off,480,0,3,,,,,,,,,2,,,64,0
460320,note_on,0,0,3,,,,,,,,,2,,,57,41
460320,note_on,0,0,3,,,,,,,,,2,,,63,41
460320,note_on,0,0,3,,,,,,,,,2,,,59,41
460320,note_off,0,0,3,,,,,,,,,2,,,59,0
460320,note_on,0,0,3,,,,,,,,,2,,,54,41
460440,note_on,0,0,1,,,,,,,,,0,,,83,46
460440,note_off,360,0,1,,,,,,,,,0,,,85,0
460560,note_on,0,0,1,,,,,,,,,0,,,81,45
460560,note_off,120,0,1,,,,,,,,,0,,,83,0
460582,set_tempo,270,1,0,,,,,,967741,,,,,,,
460800,note_off,480,0,3,,,,,,,,,2,,,57,0
460800,note_off,1440,0,4,,,,,,,,,3,,,47,0
460800,note_on,0,0,4,,,,,,,,,3,,,40,39
460800,note_off,0,0,3,,,,,,,,,2,,,59,0
460800,note_off,0,0,3,,,,,,,,,2,,,63,0
460800,note_off,0,0,3,,,,,,,,,2,,,54,0
461040,note_off,480,0,1,,,,,,,,,0,,,81,0
461040,note_on,0,0,1,,,,,,,,,0,,,82,42
461160,set_tempo,578,1,0,,,,,,1000000,,,,,,,
461280,note_on,0,0,3,,,,,,,,,2,,,59,37
461280,note_on,0,0,3,,,,,,,,,2,,,57,37
461280,note_on,0,0,3,,,,,,,,,2,,,52,37
461280,note_on,0,0,3,,,,,,,,,2,,,63,37
461280,note_on,480,0,3,,,,,,,,,2,,,54,37
461400,note_off,360,0,1,,,,,,,,,0,,,82,0
461400,set_tempo,240,1,0,,,,,,1153846,,,,,,,
461400,note_on,0,0,1,,,,,,,,,0,,,83,39
461520,set_tempo,120,1,0,,,,,,1538461,,,,,,,
461520,note_on,0,0,1,,,,,,,,,0,,,78,38
461520,note_off,120,0,1,,,,,,,,,0,,,83,0
461760,note_on,0,0,1,,,,,,,,,0,,,80,36
461760,note_off,0,0,3,,,,,,,,,2,,,52,0
461760,note_off,0,0,3,,,,,,,,,2,,,63,0
461760,note_off,480,0,3,,,,,,,,,2,,,59,0
461760,note_off,0,0,3,,,,,,,,,2,,,54,0
461760,note_on,0,0,3,,,,,,,,,2,,,56,35
461760,note_on,0,0,3,,,,,,,,,2,,,52,35
461760,note_off,240,0,1,,,,,,,,,0,,,78,0
461760,note_on,0,0,3,,,,,,,,,2,,,64,35
461760,note_on,0,0,3,,,,,,,,,2,,,59,35
461760,note_off,0,0,3,,,,,,,,,2,,,57,0
462240,set_tempo,720,1,0,,,,,,508474,,,,,,,
462240,note_off,480,0,3,,,,,,,,,2,,,59,0
462240,note_off,0,0,3,,,,,,,,,2,,,64,0
462240,note_off,0,0,3,,,,,,,,,2,,,52,0
462240,note_off,480,0,1,,,,,,,,,0,,,80,0
462240,note_off,0,0,3,,,,,,,,,2,,,56,0
462240,note_off,1440,0,4,,,,,,,,,3,,,40,0
463680,set_tempo,1440,1,0,,,,,,1034482,,,,,,,
463680,marker,0,1,0,,,,,,,,,,,,,
463680,note_on,1440,0,4,,,,,,,,,3,,,40,51
463800,note_on,1560,0,1,,,,,,,,,0,,,59,51
463800,note_off,120,0,4,,,,,,,,,3,,,40,0
463920,note_on,0,0,1,,,,,,,,,0,,,68,51
463920,note_off,120,0,1,,,,,,,,,0,,,59,0
464040,note_off,120,0,1,,,,,,,,,0,,,68,0
464040,note_on,240,0,4,,,,,,,,,3,,,52,50
464160,note_off,120,0,4,,,,,,,,,3,,,52,0
464160,note_on,0,0,4,,,,,,,,,3,,,56,50
464280,note_off,120,0,4,,,,,,,,,3,,,56,0
464280,note_on,240,0,1,,,,,,,,,0,,,64,50
464400,note_on,0,0,1,,,,,,,,,0,,,59,49
464400,note_off,120,0,1,,,,,,,,,0,,,64,0
464520,note_off,120,0,1,,,,,,,,,0,,,59,0
464520,note_on,240,0,4,,,,,,,,,3,,,44,49
464640,note_on,0,0,4,,,,,,,,,3,,,45,48
464640,note_off,120,0,4,,,,,,,,,3,,,44,0
464760,note_off,120,0,4,,,,,,,,,3,,,45,0
464760,note_on,240,0,1,,,,,,,,,0,,,61,48
464880,note_off,120,0,1,,,,,,,,,0,,,61,0
464880,note_on,0,0,1,,,,,,,,,0,,,66,48
465000,note_off,120,0,1,,,,,,,,,0,,,66,0
465000,note_on,240,0,4,,,,,,,,,3,,,57,47
465120,note_off,120,0,4,,,,,,,,,3,,,57,0
465120,note_on,0,0,4,,,,,,,,,3,,,59,47
465240,note_on,240,0,1,,,,,,,,,0,,,63,46
465240,note_off,120,0,4,,,,,,,,,3,,,59,0
465360,note_off,120,0,1,,,,,,,,,0,,,63,0
465360,note_on,0,0,1,,,,,,,,,0,,,54,46
465480,note_off,120,0,1,,,,,,,,,0,,,54,0
465480,note_on,240,0,4,,,,,,,,,3,,,47,45
465600,note_off,120,0,4,,,,,,,,,3,,,47,0
465600,note_on,0,0,4,,,,,,,,,3,,,49,45
465720,note_off,120,0,4,,,,,,,,,3,,,49,0
465720,note_on,240,0,1,,,,,,,,,0,,,52,45
465840,note_off,120,0,1,,,,,,,,,0,,,52,0
465840,note_on,0,0,1,,,,,,,,,0,,,59,44
465960,note_off,120,0,1,,,,,,,,,0,,,59,0
465960,note_on,240,0,4,,,,,,,,,3,,,61,44
466080,note_on,0,0,4,,,,,,,,,3,,,63,43
466080,note_off,120,0,4,,,,,,,,,3,,,61,0
466200,note_on,240,0,1,,,,,,,,,0,,,59,43
466200,note_off,120,0,4,,,,,,,,,3,,,63,0
466320,note_off,120,0,1,,,,,,,,,0,,,59,0
466320,note_on,0,0,1,,,,,,,,,0,,,54,43
466440,set_tempo,2760,1,0,,,,,,1071428,,,,,,,
466440,note_off,120,0,1,,,,,,,,,0,,,54,0
466440,note_on,240,0,4,,,,,,,,,3,,,51,42
466560,note_off,120,0,4,,,,,,,,,3,,,51,0
466560,note_on,0,0,4,,,,,,,,,3,,,52,42
466560,set_tempo,120,1,0,,,,,,1034482,,,,,,,
466680,note_off,120,0,4,,,,,,,,,3,,,52,0
466680,note_on,240,0,1,,,,,,,,,0,,,68,43
466800,note_off,120,0,1,,,,,,,,,0,,,68,0
466800,note_on,0,0,1,,,,,,,,,0,,,80,43
466920,note_on,240,0,4,,,,,,,,,3,,,64,44
466920,note_off,120,0,1,,,,,,,,,0,,,80,0
467040,note_off,120,0,4,,,,,,,,,3,,,64,0
467040,note_on,0,0,4,,,,,,,,,3,,,68,44
467160,note_on,240,0,1,,,,,,,,,0,,,76,45
467160,note_off,120,0,4,,,,,,,,,3,,,68,0
467280,note_on,0,0,1,,,,,,,,,0,,,71,45
467280,note_off,120,0,1,,,,,,,,,0,,,76,0
467400,note_off,120,0,1,,,,,,,,,0,,,71,0
467400,note_on,240,0,4,,,,,,,,,3,,,56,46
467520,note_off,120,0,4,,,,,,,,,3,,,56,0
467520,note_on,0,0,4,,,,,,,,,3,,,58,46
467640,note_on,240,0,1,,,,,,,,,0,,,73,47
467640,note_off,120,0,4,,,,,,,,,3,,,58,0
467760,note_off,120,0,1,,,,,,,,,0,,,73,0
467760,note_on,0,0,1,,,,,,,,,0,,,78,48
467880,note_on,240,0,4,,,,,,,,,3,,,70,48
467880,note_off,120,0,1,,,,,,,,,0,,,78,0
468000,note_off,120,0,4,,,,,,,,,3,,,70,0
468000,note_on,0,0,4,,,,,,,,,3,,,71,49
468120,note_on,240,0,1,,,,,,,,,0,,,75,49
468120,note_off,120,0,4,,,,,,,,,3,,,71,0
468240,note_on,0,0,1,,,,,,,,,0,,,78,50
468240,note_off,120,0,1,,,,,,,,,0,,,75,0
468360,note_on,240,0,4,,,,,,,,,3,,,66,50
468360,note_off,120,0,1,,,,,,,,,0,,,78,0
468480,note_on,0,0,4,,,,,,,,,3,,,66,51
468480,note_off,120,0,4,,,,,,,,,3,,,66,0
468600,note_on,240,0,1,,,,,,,,,0,,,82,51
468600,note_off,120,0,4,,,,,,,,,3,,,66,0
468720,note_on,0,0,1,,,,,,,,,0,,,76,52
468720,note_off,120,0,1,,,,,,,,,0,,,82,0
468840,note_off,120,0,1,,,,,,,,,0,,,76,0
468840,note_on,240,0,4,,,,,,,,,3,,,73,52
468960,note_off,120,0,4,,,,,,,,,3,,,73,0
468960,note_on,0,0,4,,,,,,,,,3,,,71,53
469080,note_on,12655,0,2,,,,,,,,,1,,,75,54
469080,note_on,240,0,1,,,,,,,,,0,,,78,54
469080,note_off,120,0,4,,,,,,,,,3,,,71,0
469200,note_on,0,0,1,,,,,,,,,0,,,83,54
469200,note_off,120,0,2,,,,,,,,,1,,,75,0
469200,note_off,120,0,1,,,,,,,,,0,,,78,0
469252,set_tempo,2692,1,0,,,,,,1071428,,,,,,,
469320,set_tempo,68,1,0,,,,,,1111111,,,,,,,
469320,note_on,240,0,4,,,,,,,,,3,,,69,55
469320,note_off,120,0,1,,,,,,,,,0,,,83,0
469440,set_tempo,120,1,0,,,,,,1034482,,,,,,,
469440,note_on,0,0,4,,,,,,,,,3,,,68,55
469440,note_off,120,0,4,,,,,,,,,3,,,69,0
469560,note_off,120,0,4,,,,,,,,,3,,,68,0
469560,note_on,240,0,1,,,,,,,,,0,,,83,56
469680,note_off,120,0,1,,,,,,,,,0,,,83,0
469680,note_on,0,0,1,,,,,,,,,0,,,76,56
469800,note_on,240,0,4,,,,,,,,,3,,,80,57
469800,note_off,120,0,1,,,,,,,,,0,,,76,0
469920,note_off,120,0,4,,,,,,,,,3,,,80,0
469920,note_on,0,0,4,,,,,,,,,3,,,76,57
470040,note_on,240,0,1,,,,,,,,,0,,,80,58
470040,note_off,120,0,4,,,,,,,,,3,,,76,0
470160,note_off,120,0,1,,,,,,,,,0,,,80,0
470160,note_on,0,0,1,,,,,,,,,0,,,88,58
470280,note_on,240,0,4,,,,,,,,,3,,,71,59
470280,note_off,120,0,1,,,,,,,,,0,,,88,0
470400,note_on,0,0,4,,,,,,,,,3,,,73,59
470400,note_off,120,0,4,,,,,,,,,3,,,71,0
470520,note_off,120,0,4,,,,,,,,,3,,,73,0
470520,note_on,240,0,1,,,,,,,,,0,,,88,60
470640,note_on,0,0,1,,,,,,,,,0,,,90,59
470640,note_off,120,0,1,,,,,,,,,0,,,88,0
470760,note_off,120,0,1,,,,,,,,,0,,,90,0
470760,note_on,240,0,4,,,,,,,,,3,,,70,55
470880,note_off,120,0,4,,,,,,,,,3,,,70,0
470880,note_on,0,0,4,,,,,,,,,3,,,70,54
471000,note_off,120,0,4,,,,,,,,,3,,,70,0
471000,note_on,240,0,1,,,,,,,,,0,,,88,56
471120,note_off,120,0,1,,,,,,,,,0,,,88,0
471120,note_on,0,0,1,,,,,,,,,0,,,87,54
471240,note_on,240,0,4,,,,,,,,,3,,,71,52
471240,note_off,120,0,1,,,,,,,,,0,,,87,0
471360,note_on,0,0,4,,,,,,,,,3,,,73,51
471360,note_off,120,0,4,,,,,,,,,3,,,71,0
471480,note_on,240,0,1,,,,,,,,,0,,,87,51
471480,note_off,120,0,4,,,,,,,,,3,,,73,0
471600,note_off,120,0,1,,,,,,,,,0,,,87,0
471600,note_on,0,0,1,,,,,,,,,0,,,85,50
471720,note_on,240,0,4,,,,,,,,,3,,,76,48
471720,note_off,120,0,1,,,,,,,,,0,,,85,0
471840,note_off,120,0,4,,,,,,,,,3,,,76,0
471840,note_on,0,0,4,,,,,,,,,3,,,75,47
471960,note_on,240,0,1,,,,,,,,,0,,,83,47
471960,note_off,120,0,4,,,,,,,,,3,,,75,0
472080,note_off,120,0,1,,,,,,,,,0,,,83,0
472080,note_on,0,0,1,,,,,,,,,0,,,81,46
472200,note_off,120,0,1,,,,,,,,,0,,,81,0
472200,set_tempo,2760,1,0,,,,,,1071428,,,,,,,
472200,note_on,240,0,4,,,,,,,,,3,,,78,45
472320,note_off,120,0,4,,,,,,,,,3,,,78,0
472320,note_on,0,0,4,,,,,,,,,3,,,74,44
472320,set_tempo,120,1,0,,,,,,1034482,,,,,,,
472440,note_off,120,0,4,,,,,,,,,3,,,74,0
472440,note_on,240,0,1,,,,,,,,,0,,,81,47
472560,note_off,120,0,1,,,,,,,,,0,,,81,0
472560,note_on,0,0,1,,,,,,,,,0,,,80,48
472680,note_on,240,0,4,,,,,,,,,3,,,77,47
472680,note_off,120,0,1,,,,,,,,,0,,,80,0
472800,note_on,0,0,4,,,,,,,,,3,,,73,48
472800,note_off,120,0,4,,,,,,,,,3,,,77,0
472920,note_off,120,0,4,,,,,,,,,3,,,73,0
472920,note_on,240,0,1,,,,,,,,,0,,,80,51
473040,note_off,120,0,1,,,,,,,,,0,,,80,0
473040,note_on,0,0,1,,,,,,,,,0,,,81,52
473160,note_off,120,0,1,,,,,,,,,0,,,81,0
473160,note_on,240,0,4,,,,,,,,,3,,,76,51
473280,note_on,0,0,4,,,,,,,,,3,,,72,52
473280,note_off,120,0,4,,,,,,,,,3,,,76,0
473400,note_off,120,0,4,,,,,,,,,3,,,72,0
473400,note_on,240,0,1,,,,,,,,,0,,,82,55
473520,note_off,120,0,1,,,,,,,,,0,,,82,0
473520,note_on,0,0,1,,,,,,,,,0,,,88,56
473640,note_on,240,0,4,,,,,,,,,3,,,79,55
473640,note_off,120,0,1,,,,,,,,,0,,,88,0
473760,note_off,120,0,4,,,,,,,,,3,,,79,0
473760,note_on,0,0,4,,,,,,,,,3,,,72,51
473880,note_on,240,0,1,,,,,,,,,0,,,88,55
473880,note_off,120,0,4,,,,,,,,,3,,,72,0
473880,note_on,4680,0,2,,,,,,,,,1,,,82,55
474000,note_on,0,0,1,,,,,,,,,0,,,89,54
474000,note_on,0,0,2,,,,,,,,,1,,,81,54
474000,note_off,120,0,1,,,,,,,,,0,,,88,0
474000,note_off,120,0,2,,,,,,,,,1,,,82,0
474120,note_on,240,0,4,,,,,,,,,3,,,84,48
474120,note_off,120,0,1,,,,,,,,,0,,,89,0
474120,note_off,120,0,2,,,,,,,,,1,,,81,0
474240,note_on,0,0,4,,,,,,,,,3,,,72,46
474240,note_off,120,0,4,,,,,,,,,3,,,84,0
474360,note_on,240,0,1,,,,,,,,,0,,,91,50
474360,note_off,120,0,4,,,,,,,,,3,,,72,0
474360,note_on,240,0,2,,,,,,,,,1,,,83,50
474480,note_on,0,0,1,,,,,,,,,0,,,88,49
474480,note_off,120,0,1,,,,,,,,,0,,,91,0
474480,note_off,120,0,2,,,,,,,,,1,,,83,0
474480,note_on,0,0,2,,,,,,,,,1,,,83,49
474600,note_on,240,0,4,,,,,,,,,3,,,84,43
474600,note_off,120,0,1,,,,,,,,,0,,,88,0
474600,note_off,120,0,2,,,,,,,,,1,,,83,0
474720,set_tempo,2400,1,0,,,,,,1071428,,,,,,,
474720,note_off,120,0,4,,,,,,,,,3,,,84,0
474720,note_on,0,0,4,,,,,,,,,3,,,83,42
474840,note_off,120,0,4,,,,,,,,,3,,,83,0
474840,note_on,240,0,1,,,,,,,,,0,,,95,46
474840,set_tempo,120,1,0,,,,,,1111111,,,,,,,
474960,note_off,120,0,1,,,,,,,,,0,,,95,0
474960,note_on,0,0,1,,,,,,,,,0,,,83,45
475070,set_tempo,230,1,0,,,,,,2727272,,,,,,,
475080,note_on,240,0,4,,,,,,,,,3,,,71,38
475080,note_off,120,0,1,,,,,,,,,0,,,83,0
475200,note_off,120,0,4,,,,,,,,,3,,,71,0
475200,set_tempo,130,1,0,,,,,,1034482,,,,,,,
475200,note_on,120,0,1,,,,,,,,,0,,,68,49
475440,note_on,240,0,4,,,,,,,,,3,,,47,40
475440,note_on,13200,0,3,,,,,,,,,2,,,56,36
475440,note_on,0,0,3,,,,,,,,,2,,,52,36
475440,note_off,240,0,1,,,,,,,,,0,,,68,0
475440,note_on,0,0,1,,,,,,,,,0,,,64,46
475632,note_off,192,0,1,,,,,,,,,0,,,64,0
475680,note_on,48,0,1,,,,,,,,,0,,,64,42
475680,note_off,240,0,3,,,,,,,,,2,,,52,0
475680,note_off,0,0,3,,,,,,,,,2,,,56,0
475680,note_on,0,0,3,,,,,,,,,2,,,56,36
475680,note_on,0,0,3,,,,,,,,,2,,,52,36
475680,note_on,0,0,4,,,,,,,,,3,,,47,41
475680,note_off,240,0,4,,,,,,,,,3,,,47,0
475872,note_off,192,0,1,,,,,,,,,0,,,64,0
475920,note_off,0,0,3,,,,,,,,,2,,,56,0
475920,note_off,240,0,4,,,,,,,,,3,,,47,0
475920,note_on,0,0,4,,,,,,,,,3,,,47,41
475920,note_on,48,0,1,,,,,,,,,0,,,64,43
475920,note_on,0,0,3,,,,,,,,,2,,,56,37
475920,note_on,0,0,3,,,,,,,,,2,,,52,37
475920,note_off,240,0,3,,,,,,,,,2,,,52,0
476100,set_tempo,900,1,0,,,,,,1071428,,,,,,,
476112,note_off,192,0,1,,,,,,,,,0,,,64,0
476160,note_off,240,0,4,,,,,,,,,3,,,47,0
476160,note_off,0,0,3,,,,,,,,,2,,,52,0
476160,note_off,240,0,3,,,,,,,,,2,,,56,0
476160,note_on,0,0,3,,,,,,,,,2,,,56,37
476160,note_on,0,0,3,,,,,,,,,2,,,52,37
476160,note_on,0,0,4,,,,,,,,,3,,,47,42
476160,note_on,48,0,1,,,,,,,,,0,,,64,42
476200,note_on,40,0,1,,,,,,,,,0,,,66,42
476220,note_off,20,0,1,,,,,,,,,0,,,64,0
476220,set_tempo,120,1,0,,,,,,1034482,,,,,,,
476240,note_on,20,0,1,,,,,,,,,0,,,64,41
476260,note_off,20,0,1,,,,,,,,,0,,,66,0
476280,note_on,20,0,1,,,,,,,,,0,,,66,40
476300,note_off,20,0,1,,,,,,,,,0,,,64,0
476320,note_on,20,0,1,,,,,,,,,0,,,64,40
476340,note_off,20,0,1,,,,,,,,,0,,,66,0
476360,note_on,20,0,1,,,,,,,,,0,,,66,39
476380,note_off,20,0,1,,,,,,,,,0,,,64,0
476400,note_on,0,0,4,,,,,,,,,3,,,47,42
476400,note_on,0,0,3,,,,,,,,,2,,,56,38
476400,note_on,0,0,3,,,,,,,,,2,,,52,38
476400,note_off,0,0,3,,,,,,,,,2,,,56,0
476400,note_off,240,0,4,,,,,,,,,3,,,47,0
476400,note_off,240,0,3,,,,,,,,,2,,,52,0
476400,note_on,20,0,1,,,,,,,,,0,,,64,38
476420,note_off,20,0,1,,,,,,,,,0,,,66,0
476440,note_on,20,0,1,,,,,,,,,0,,,66,38
476460,note_off,20,0,1,,,,,,,,,0,,,64,0
476480,note_on,20,0,1,,,,,,,,,0,,,64,37
476500,note_off,20,0,1,,,,,,,,,0,,,66,0
476520,note_on,20,0,1,,,,,,,,,0,,,63,37
476520,set_tempo,300,1,0,,,,,,1071428,,,,,,,
476540,note_off,20,0,1,,,,,,,,,0,,,64,0
476580,note_on,40,0,1,,,,,,,,,0,,,64,36
476580,set_tempo,60,1,0,,,,,,1111111,,,,,,,
476595,note_off,15,0,1,,,,,,,,,0,,,63,0
476640,note_off,240,0,4,,,,,,,,,3,,,47,0
476640,note_on,0,0,4,,,,,,,,,3,,,47,43
476640,note_on,0,0,3,,,,,,,,,2,,,54,39
476640,note_on,0,0,3,,,,,,,,,2,,,57,39
476640,note_off,240,0,3,,,,,,,,,2,,,56,0
476640,note_off,45,0,1,,,,,,,,,0,,,64,0
476640,note_on,0,0,1,,,,,,,,,0,,,69,52
476640,note_off,0,0,3,,,,,,,,,2,,,52,0
476640,note_on,0,0,1,,,,,,,,,0,,,64,45
476640,set_tempo,60,1,0,,,,,,1034482,,,,,,,
476880,note_on,0,0,3,,,,,,,,,2,,,57,39
476880,note_off,240,0,1,,,,,,,,,0,,,69,0
476880,note_off,0,0,3,,,,,,,,,2,,,57,0
476880,note_on,0,0,4,,,,,,,,,3,,,47,44
476880,note_off,240,0,4,,,,,,,,,3,,,47,0
476880,note_off,240,0,3,,,,,,,,,2,,,54,0
476880,note_on,0,0,3,,,,,,,,,2,,,54,39
476880,note_on,0,0,1,,,,,,,,,0,,,66,49
477072,note_off,192,0,1,,,,,,,,,0,,,66,0
477120,note_on,0,0,4,,,,,,,,,3,,,47,44
477120,note_off,240,0,4,,,,,,,,,3,,,47,0
477120,note_on,48,0,1,,,,,,,,,0,,,66,47
477120,note_off,240,0,3,,,,,,,,,2,,,57,0
477120,note_off,0,0,3,,,,,,,,,2,,,54,0
477120,note_on,0,0,3,,,,,,,,,2,,,54,40
477120,note_on,0,0,3,,,,,,,,,2,,,57,40
477312,note_off,192,0,1,,,,,,,,,0,,,66,0
477360,note_on,0,0,3,,,,,,,,,2,,,57,40
477360,note_on,0,0,3,,,,,,,,,2,,,54,40
477360,note_off,0,0,3,,,,,,,,,2,,,57,0
477360,note_off,240,0,3,,,,,,,,,2,,,54,0
477360,note_off,240,0,4,,,,,,,,,3,,,47,0
477360,note_on,0,0,4,,,,,,,,,3,,,47,45
477360,note_on,48,0,1,,,,,,,,,0,,,66,44
477540,set_tempo,900,1,0,,,,,,1071428,,,,,,,
477552,note_off,192,0,1,,,,,,,,,0,,,66,0
477600,note_on,0,0,1,,,,,,,,,0,,,66,45
477600,note_off,48,0,1,,,,,,,,,0,,,64,0
477600,note_on,0,0,3,,,,,,,,,2,,,57,41
477600,note_on,0,0,4,,,,,,,,,3,,,47,45
477600,note_on,0,0,3,,,,,,,,,2,,,54,41
477600,note_off,240,0,3,,,,,,,,,2,,,57,0
477600,note_off,0,0,3,,,,,,,,,2,,,54,0
477600,note_on,0,0,1,,,,,,,,,0,,,63,47
477600,note_off,240,0,4,,,,,,,,,3,,,47,0
477640,note_on,40,0,1,,,,,,,,,0,,,68,44
477660,note_off,20,0,1,,,,,,,,,0,,,66,0
477660,set_tempo,120,1,0,,,,,,1034482,,,,,,,
477680,note_on,20,0,1,,,,,,,,,0,,,66,44
477700,note_off,20,0,1,,,,,,,,,0,,,68,0
477720,note_on,20,0,1,,,,,,,,,0,,,68,43
477740,note_off,20,0,1,,,,,,,,,0,,,66,0
477760,note_on,20,0,1,,,,,,,,,0,,,66,42
477780,note_off,20,0,1,,,,,,,,,0,,,68,0
477800,note_on,20,0,1,,,,,,,,,0,,,68,42
477820,note_off,20,0,1,,,,,,,,,0,,,66,0
477840,note_off,240,0,4,,,,,,,,,3,,,47,0
477840,note_on,0,0,4,,,,,,,,,3,,,47,46
477840,note_off,240,0,3,,,,,,,,,2,,,54,0
477840,note_off,0,0,3,,,,,,,,,2,,,57,0
477840,note_on,0,0,3,,,,,,,,,2,,,54,42
477840,note_on,0,0,3,,,,,,,,,2,,,57,42
477840,note_on,20,0,1,,,,,,,,,0,,,66,41
477860,note_off,20,0,1,,,,,,,,,0,,,68,0
477880,note_on,20,0,1,,,,,,,,,0,,,68,40
477900,note_off,20,0,1,,,,,,,,,0,,,66,0
477920,note_on,20,0,1,,,,,,,,,0,,,66,40
477940,note_off,20,0,1,,,,,,,,,0,,,68,0
477960,set_tempo,300,1,0,,,,,,1071428,,,,,,,
477960,note_on,20,0,1,,,,,,,,,0,,,65,39
477980,note_off,20,0,1,,,,,,,,,0,,,66,0
478020,set_tempo,60,1,0,,,,,,1111111,,,,,,,
478020,note_on,40,0,1,,,,,,,,,0,,,66,38
478035,note_off,15,0,1,,,,,,,,,0,,,65,0
478080,note_on,0,0,3,,,,,,,,,2,,,56,42
478080,note_on,0,0,3,,,,,,,,,2,,,59,42
478080,note_off,0,0,3,,,,,,,,,2,,,54,0
478080,note_on,0,0,4,,,,,,,,,3,,,47,46
478080,note_off,240,0,4,,,,,,,,,3,,,47,0
478080,set_tempo,60,1,0,,,,,,1034482,,,,,,,
478080,note_off,240,0,3,,,,,,,,,2,,,57,0
478080,note_off,45,0,1,,,,,,,,,0,,,66,0
478080,note_on,0,0,1,,,,,,,,,0,,,66,48
478080,note_on,0,0,1,,,,,,,,,0,,,71,51
478083,note_off,3,0,1,,,,,,,,,0,,,63,0
478320,note_on,0,0,1,,,,,,,,,0,,,68,50
478320,note_off,237,0,1,,,,,,,,,0,,,71,0
478320,note_on,0,0,3,,,,,,,,,2,,,56,43
478320,note_off,240,0,3,,,,,,,,,2,,,56,0
478320,note_off,0,0,3,,,,,,,,,2,,,59,0
478320,note_on,0,0,4,,,,,,,,,3,,,47,47
478320,note_off,240,0,4,,,,,,,,,3,,,47,0
478320,note_on,0,0,3,,,,,,,,,2,,,59,43
478512,note_off,192,0,1,,,,,,,,,0,,,68,0
478560,note_off,0,0,3,,,,,,,,,2,,,59,0
478560,note_off,240,0,4,,,,,,,,,3,,,47,0
478560,note_on,0,0,4,,,,,,,,,3,,,47,48
478560,note_off,240,0,3,,,,,,,,,2,,,56,0
478560,note_on,0,0,3,,,,,,,,,2,,,56,43
478560,note_on,48,0,1,,,,,,,,,0,,,68,48
478560,note_on,0,0,3,,,,,,,,,2,,,59,43
478752,note_off,192,0,1,,,,,,,,,0,,,68,0
478800,note_on,48,0,1,,,,,,,,,0,,,68,46
478800,note_off,240,0,3,,,,,,,,,2,,,59,0
478800,note_off,0,0,3,,,,,,,,,2,,,56,0
478800,note_on,0,0,3,,,,,,,,,2,,,59,44
478800,note_on,0,0,3,,,,,,,,,2,,,56,44
478800,note_off,240,0,4,,,,,,,,,3,,,47,0
478800,note_on,0,0,4,,,,,,,,,3,,,47,48
478980,set_tempo,900,1,0,,,,,,1071428,,,,,,,
478992,note_off,192,0,1,,,,,,,,,0,,,68,0
479040,note_off,240,0,4,,,,,,,,,3,,,47,0
479040,note_on,0,0,4,,,,,,,,,3,,,47,49
479040,note_on,0,0,3,,,,,,,,,2,,,59,44
479040,note_off,0,0,3,,,,,,,,,2,,,59,0
479040,note_on,0,0,1,,,,,,,,,0,,,64,51
479040,note_on,0,0,1,,,,,,,,,0,,,68,48
479040,note_off,48,0,1,,,,,,,,,0,,,66,0
479040,note_on,0,0,3,,,,,,,,,2,,,56,44
479040,note_off,240,0,3,,,,,,,,,2,,,56,0
479080,note_on,40,0,1,,,,,,,,,0,,,69,47
479095,note_off,15,0,1,,,,,,,,,0,,,68,0
479100,set_tempo,120,1,0,,,,,,1034482,,,,,,,
479120,note_on,25,0,1,,,,,,,,,0,,,68,46
479135,note_off,15,0,1,,,,,,,,,0,,,69,0
479160,note_on,25,0,1,,,,,,,,,0,,,69,46
479175,note_off,15,0,1,,,,,,,,,0,,,68,0
479200,note_on,25,0,1,,,,,,,,,0,,,68,45
479215,note_off,15,0,1,,,,,,,,,0,,,69,0
479240,note_on,25,0,1,,,,,,,,,0,,,69,45
479255,note_off,15,0,1,,,,,,,,,0,,,68,0
479280,note_on,25,0,1,,,,,,,,,0,,,68,44
479280,note_off,240,0,3,,,,,,,,,2,,,56,0
479280,note_off,0,0,3,,,,,,,,,2,,,59,0
479280,note_off,240,0,4,,,,,,,,,3,,,47,0
479280,note_on,0,0,3,,,,,,,,,2,,,56,45
479280,note_on,0,0,4,,,,,,,,,3,,,47,49
479280,note_on,0,0,3,,,,,,,,,2,,,59,45
479295,note_off,15,0,1,,,,,,,,,0,,,69,0
479320,note_on,25,0,1,,,,,,,,,0,,,69,43
479335,note_off,15,0,1,,,,,,,,,0,,,68,0
479360,note_on,25,0,1,,,,,,,,,0,,,68,43
479375,note_off,15,0,1,,,,,,,,,0,,,69,0
479400,set_tempo,300,1,0,,,,,,1071428,,,,,,,
479400,note_on,25,0,1,,,,,,,,,0,,,66,42
479415,note_off,15,0,1,,,,,,,,,0,,,68,0
479460,note_on,45,0,1,,,,,,,,,0,,,68,42
479460,set_tempo,60,1,0,,,,,,1111111,,,,,,,
479475,note_off,15,0,1,,,,,,,,,0,,,66,0
479520,note_off,240,0,3,,,,,,,,,2,,,56,0
479520,note_off,0,0,3,,,,,,,,,2,,,59,0
479520,note_on,0,0,3,,,,,,,,,2,,,61,46
479520,note_on,0,0,3,,,,,,,,,2,,,57,46
479520,set_tempo,60,1,0,,,,,,1034482,,,,,,,
479520,note_off,45,0,1,,,,,,,,,0,,,68,0
479520,note_off,0,0,1,,,,,,,,,0,,,64,0
479520,note_on,0,0,1,,,,,,,,,0,,,68,52
479520,note_on,0,0,1,,,,,,,,,0,,,73,55
479520,note_off,240,0,4,,,,,,,,,3,,,47,0
479520,note_on,0,0,4,,,,,,,,,3,,,47,50
479760,note_on,0,0,3,,,,,,,,,2,,,57,46
479760,note_on,0,0,3,,,,,,,,,2,,,61,46
479760,note_on,0,0,1,,,,,,,,,0,,,69,54
479760,note_off,240,0,1,,,,,,,,,0,,,73,0
479760,note_off,0,0,3,,,,,,,,,2,,,61,0
479760,note_off,240,0,3,,,,,,,,,2,,,57,0
479760,note_off,240,0,4,,,,,,,,,3,,,47,0
479760,note_on,0,0,4,,,,,,,,,3,,,47,50
479952,note_off,192,0,1,,,,,,,,,0,,,69,0
480000,note_on,0,0,3,,,,,,,,,2,,,61,47
480000,note_off,240,0,3,,,,,,,,,2,,,57,0
480000,note_off,240,0,4,,,,,,,,,3,,,47,0
480000,note_on,0,0,4,,,,,,,,,3,,,47,51
480000,note_off,0,0,3,,,,,,,,,2,,,61,0
480000,note_on,48,0,1,,,,,,,,,0,,,69,52
480000,note_on,0,0,3,,,,,,,,,2,,,57,47
480192,note_off,192,0,1,,,,,,,,,0,,,69,0
480240,note_off,240,0,3,,,,,,,,,2,,,61,0
480240,note_off,0,0,3,,,,,,,,,2,,,57,0
480240,note_on,0,0,3,,,,,,,,,2,,,61,47
480240,note_on,0,0,3,,,,,,,,,2,,,57,47
480240,note_on,48,0,1,,,,,,,,,0,,,69,50
480240,note_off,240,0,4,,,,,,,,,3,,,47,0
480240,note_on,0,0,4,,,,,,,,,3,,,47,51
480420,set_tempo,900,1,0,,,,,,1071428,,,,,,,
480432,note_off,192,0,1,,,,,,,,,0,,,69,0
480480,note_on,0,0,3,,,,,,,,,2,,,59,48
480480,note_off,240,0,4,,,,,,,,,3,,,47,0
480480,note_on,0,0,4,,,,,,,,,3,,,47,52
480480,note_off,240,0,3,,,,,,,,,2,,,57,0
480480,note_off,0,0,3,,,,,,,,,2,,,61,0
480480,note_on,0,0,3,,,,,,,,,2,,,63,48
480480,note_off,48,0,1,,,,,,,,,0,,,68,0
480480,note_on,0,0,1,,,,,,,,,0,,,69,51
480480,note_on,0,0,1,,,,,,,,,0,,,66,54
480520,note_on,40,0,1,,,,,,,,,0,,,71,50
480540,note_off,20,0,1,,,,,,,,,0,,,69,0
480540,set_tempo,120,1,0,,,,,,1034482,,,,,,,
480560,note_on,20,0,1,,,,,,,,,0,,,69,50
480580,note_off,20,0,1,,,,,,,,,0,,,71,0
480600,note_on,20,0,1,,,,,,,,,0,,,71,49
480620,note_off,20,0,1,,,,,,,,,0,,,69,0
480640,note_on,20,0,1,,,,,,,,,0,,,69,48
480660,note_off,20,0,1,,,,,,,,,0,,,71,0
480680,note_on,20,0,1,,,,,,,,,0,,,71,48
480700,note_off,20,0,1,,,,,,,,,0,,,69,0
480720,note_off,0,0,3,,,,,,,,,2,,,59,0
480720,note_off,240,0,4,,,,,,,,,3,,,47,0
480720,note_on,0,0,4,,,,,,,,,3,,,47,53
480720,note_off,240,0,3,,,,,,,,,2,,,63,0
480720,note_on,20,0,1,,,,,,,,,0,,,69,47
480720,note_on,0,0,3,,,,,,,,,2,,,59,49
480720,note_on,0,0,3,,,,,,,,,2,,,63,49
480740,note_off,20,0,1,,,,,,,,,0,,,71,0
480760,note_on,20,0,1,,,,,,,,,0,,,71,47
480780,note_off,20,0,1,,,,,,,,,0,,,69,0
480800,note_on,20,0,1,,,,,,,,,0,,,69,46
480820,note_off,20,0,1,,,,,,,,,0,,,71,0
480840,note_on,20,0,1,,,,,,,,,0,,,68,46
480840,set_tempo,300,1,0,,,,,,1071428,,,,,,,
480860,note_off,20,0,1,,,,,,,,,0,,,69,0
480900,note_on,40,0,1,,,,,,,,,0,,,69,55
480900,set_tempo,60,1,0,,,,,,1111111,,,,,,,
480920,note_off,20,0,1,,,,,,,,,0,,,68,0
480960,note_off,0,0,1,,,,,,,,,0,,,66,0
480960,note_on,0,0,4,,,,,,,,,3,,,47,53
480960,set_tempo,60,1,0,,,,,,1034482,,,,,,,
480960,note_off,0,0,3,,,,,,,,,2,,,59,0
480960,note_off,240,0,4,,,,,,,,,3,,,47,0
480960,note_off,40,0,1,,,,,,,,,0,,,69,0
480960,note_off,240,0,3,,,,,,,,,2,,,63,0
481080,note_on,120,0,1,,,,,,,,,0,,,80,55
481080,note_on,0,0,2,,,,,,,,,1,,,68,54
481080,note_on,6480,0,2,,,,,,,,,1,,,71,54
481200,note_on,0,0,3,,,,,,,,,2,,,64,50
481200,note_on,240,0,3,,,,,,,,,2,,,59,50
481200,note_off,0,0,2,,,,,,,,,1,,,71,0
481200,note_off,120,0,2,,,,,,,,,1,,,68,0
481200,note_on,0,0,3,,,,,,,,,2,,,56,50
481200,note_off,120,0,1,,,,,,,,,0,,,80,0
481320,note_off,120,0,3,,,,,,,,,2,,,64,0
481320,note_on,0,0,2,,,,,,,,,1,,,68,54
481320,note_off,0,0,3,,,,,,,,,2,,,59,0
481320,note_on,120,0,1,,,,,,,,,0,,,76,56
481320,note_on,120,0,2,,,,,,,,,1,,,71,54
481320,note_off,0,0,3,,,,,,,,,2,,,56,0
481440,note_off,0,0,2,,,,,,,,,1,,,71,0
481440,note_off,120,0,1,,,,,,,,,0,,,76,0
481440,note_off,120,0,2,,,,,,,,,1,,,68,0
481440,note_on,120,0,3,,,,,,,,,2,,,64,50
481440,note_on,0,0,3,,,,,,,,,2,,,59,50
481440,note_on,0,0,3,,,,,,,,,2,,,56,50
481560,note_off,120,0,3,,,,,,,,,2,,,56,0
481560,note_off,0,0,3,,,,,,,,,2,,,59,0
481560,note_off,0,0,3,,,,,,,,,2,,,64,0
481560,note_on,120,0,1,,,,,,,,,0,,,75,57
481560,note_on,120,0,2,,,,,,,,,1,,,71,55
481560,note_on,0,0,2,,,,,,,,,1,,,68,55
481680,note_off,120,0,1,,,,,,,,,0,,,75,0
481680,note_on,0,0,3,,,,,,,,,2,,,59,51
481680,note_off,0,0,2,,,,,,,,,1,,,71,0
481680,note_on,120,0,3,,,,,,,,,2,,,64,51
481680,note_on,0,0,3,,,,,,,,,2,,,56,51
481680,note_off,120,0,2,,,,,,,,,1,,,68,0
481800,note_on,120,0,1,,,,,,,,,0,,,76,57
481800,note_off,0,0,3,,,,,,,,,2,,,59,0
481800,note_on,0,0,2,,,,,,,,,1,,,68,55
481800,note_off,0,0,3,,,,,,,,,2,,,64,0
481800,note_off,120,0,3,,,,,,,,,2,,,56,0
481800,note_on,120,0,2,,,,,,,,,1,,,71,55
481920,note_off,0,0,2,,,,,,,,,1,,,71,0
481920,note_off,120,0,2,,,,,,,,,1,,,68,0
481920,note_on,0,0,3,,,,,,,,,2,,,56,52
481920,note_on,120,0,3,,,,,,,,,2,,,64,52
481920,note_on,0,0,3,,,,,,,,,2,,,59,52
481920,note_off,120,0,1,,,,,,,,,0,,,76,0
482040,note_on,120,0,2,,,,,,,,,1,,,71,55
482040,note_on,0,0,2,,,,,,,,,1,,,68,55
482040,note_off,120,0,3,,,,,,,,,2,,,56,0
482040,note_on,120,0,1,,,,,,,,,0,,,75,58
482040,note_off,0,0,3,,,,,,,,,2,,,64,0
482040,note_off,0,0,3,,,,,,,,,2,,,59,0
482160,note_off,120,0,2,,,,,,,,,1,,,68,0
482160,note_off,120,0,1,,,,,,,,,0,,,75,0
482160,note_off,0,0,2,,,,,,,,,1,,,71,0
482160,note_on,120,0,3,,,,,,,,,2,,,59,52
482160,note_on,0,0,3,,,,,,,,,2,,,56,52
482160,note_on,0,0,3,,,,,,,,,2,,,64,52
482280,note_off,0,0,3,,,,,,,,,2,,,59,0
482280,note_on,120,0,2,,,,,,,,,1,,,71,56
482280,note_on,0,0,2,,,,,,,,,1,,,68,56
482280,set_tempo,1320,1,0,,,,,,1071428,,,,,,,
482280,note_off,0,0,3,,,,,,,,,2,,,56,0
482280,note_off,120,0,3,,,,,,,,,2,,,64,0
482280,note_on,120,0,1,,,,,,,,,0,,,76,58
482400,note_off,120,0,2,,,,,,,,,1,,,68,0
482400,note_off,0,0,2,,,,,,,,,1,,,71,0
482400,note_off,120,0,1,,,,,,,,,0,,,76,0
482400,note_on,0,0,4,,,,,,,,,3,,,47,57
482400,note_off,1440,0,4,,,,,,,,,3,,,47,0
482400,set_tempo,120,1,0,,,,,,1034482,,,,,,,
482520,note_on,120,0,1,,,,,,,,,0,,,81,59
482520,note_on,0,0,2,,,,,,,,,1,,,78,56
482520,note_on,0,0,2,,,,,,,,,1,,,75,56
482520,note_on,120,0,2,,,,,,,,,1,,,69,56
482640,note_off,0,0,2,,,,,,,,,1,,,69,0
482640,note_off,120,0,1,,,,,,,,,0,,,81,0
482640,note_off,0,0,2,,,,,,,,,1,,,75,0
482640,note_on,360,0,3,,,,,,,,,2,,,59,53
482640,note_on,0,0,3,,,,,,,,,2,,,57,53
482640,note_on,0,0,3,,,,,,,,,2,,,63,53
482640,note_on,0,0,3,,,,,,,,,2,,,54,53
482640,note_off,120,0,2,,,,,,,,,1,,,78,0
482760,note_on,120,0,1,,,,,,,,,0,,,78,59
482760,note_off,0,0,3,,,,,,,,,2,,,57,0
482760,note_off,0,0,3,,,,,,,,,2,,,63,0
482760,note_off,120,0,3,,,,,,,,,2,,,54,0
482760,note_on,120,0,2,,,,,,,,,1,,,69,57
482760,note_on,0,0,2,,,,,,,,,1,,,75,57
482760,note_off,0,0,3,,,,,,,,,2,,,59,0
482880,note_off,120,0,2,,,,,,,,,1,,,75,0
482880,note_off,0,0,2,,,,,,,,,1,,,69,0
482880,note_on,0,0,3,,,,,,,,,2,,,54,54
482880,note_off,120,0,1,,,,,,,,,0,,,78,0
482880,note_on,120,0,3,,,,,,,,,2,,,57,54
482880,note_on,0,0,3,,,,,,,,,2,,,59,54
482880,note_on,0,0,3,,,,,,,,,2,,,63,54
483000,note_on,120,0,2,,,,,,,,,1,,,69,57
483000,note_on,120,0,1,,,,,,,,,0,,,77,60
483000,note_on,0,0,2,,,,,,,,,1,,,75,57
483000,note_off,120,0,3,,,,,,,,,2,,,54,0
483000,note_off,0,0,3,,,,,,,,,2,,,59,0
483000,note_off,0,0,3,,,,,,,,,2,,,63,0
483000,note_off,0,0,3,,,,,,,,,2,,,57,0
483120,note_on,120,0,3,,,,,,,,,2,,,54,55
483120,note_on,0,0,3,,,,,,,,,2,,,57,55
483120,note_on,0,0,3,,,,,,,,,2,,,63,55
483120,note_on,0,0,3,,,,,,,,,2,,,59,55
483120,note_off,0,0,2,,,,,,,,,1,,,69,0
483120,note_off,120,0,2,,,,,,,,,1,,,75,0
483120,note_off,120,0,1,,,,,,,,,0,,,77,0
483240,note_off,0,0,3,,,,,,,,,2,,,63,0
483240,note_on,0,0,2,,,,,,,,,1,,,75,58
483240,note_on,120,0,2,,,,,,,,,1,,,69,58
483240,note_off,0,0,3,,,,,,,,,2,,,57,0
483240,note_on,120,0,1,,,,,,,,,0,,,78,61
483240,note_off,0,0,3,,,,,,,,,2,,,54,0
483240,note_off,120,0,3,,,,,,,,,2,,,59,0
483360,note_off,120,0,1,,,,,,,,,0,,,78,0
483360,note_off,0,0,2,,,,,,,,,1,,,69,0
483360,note_off,120,0,2,,,,,,,,,1,,,75,0
483360,note_on,120,0,3,,,,,,,,,2,,,57,55
483360,note_on,0,0,3,,,,,,,,,2,,,59,55
483360,note_on,0,0,3,,,,,,,,,2,,,54,55
483360,note_on,0,0,3,,,,,,,,,2,,,63,55
483480,note_on,120,0,2,,,,,,,,,1,,,69,58
483480,note_off,0,0,3,,,,,,,,,2,,,57,0
483480,note_off,0,0,3,,,,,,,,,2,,,59,0
483480,note_off,120,0,3,,,,,,,,,2,,,63,0
483480,note_on,120,0,1,,,,,,,,,0,,,77,61
483480,note_off,0,0,3,,,,,,,,,2,,,54,0
483480,note_on,0,0,2,,,,,,,,,1,,,75,58
483600,note_off,120,0,2,,,,,,,,,1,,,75,0
483600,note_on,120,0,3,,,,,,,,,2,,,57,56
483600,note_on,0,0,3,,,,,,,,,2,,,59,56
483600,note_on,0,0,3,,,,,,,,,2,,,54,56
483600,note_on,0,0,3,,,,,,,,,2,,,63,56
483600,note_off,120,0,1,,,,,,,,,0,,,77,0
483600,note_off,0,0,2,,,,,,,,,1,,,69,0
483720,note_off,120,0,3,,,,,,,,,2,,,63,0
483720,note_off,0,0,3,,,,,,,,,2,,,54,0
483720,note_on,120,0,1,,,,,,,,,0,,,78,62
483720,note_on,0,0,2,,,,,,,,,1,,,75,58
483720,set_tempo,1320,1,0,,,,,,1071428,,,,,,,
483720,note_off,0,0,3,,,,,,,,,2,,,57,0
483720,note_on,120,0,2,,,,,,,,,1,,,69,58
483720,note_off,0,0,3,,,,,,,,,2,,,59,0
483840,note_off,1440,0,4,,,,,,,,,3,,,47,0
483840,note_on,0,0,4,,,,,,,,,3,,,47,60
483840,set_tempo,120,1,0,,,,,,1034482,,,,,,,
483840,note_off,120,0,2,,,,,,,,,1,,,75,0
483840,note_off,0,0,2,,,,,,,,,1,,,69,0
483840,note_off,120,0,1,,,,,,,,,0,,,78,0
483960,note_on,0,0,2,,,,,,,,,1,,,80,59
483960,note_on,120,0,1,,,,,,,,,0,,,83,62
483960,note_on,0,0,2,,,,,,,,,1,,,76,59
483960,note_on,120,0,2,,,,,,,,,1,,,71,59
484080,note_off,120,0,2,,,,,,,,,1,,,80,0
484080,note_on,0,0,3,,,,,,,,,2,,,56,57
484080,note_off,120,0,1,,,,,,,,,0,,,83,0
484080,note_on,0,0,3,,,,,,,,,2,,,64,57
484080,note_on,360,0,3,,,,,,,,,2,,,59,57
484080,note_off,0,0,2,,,,,,,,,1,,,71,0
484080,note_off,0,0,2,,,,,,,,,1,,,76,0
484200,note_on,120,0,2,,,,,,,,,1,,,71,59
484200,note_off,0,0,3,,,,,,,,,2,,,59,0
484200,note_off,0,0,3,,,,,,,,,2,,,64,0
484200,note_off,120,0,3,,,,,,,,,2,,,56,0
484200,note_on,0,0,2,,,,,,,,,1,,,76,59
484200,note_on,120,0,1,,,,,,,,,0,,,80,63
484320,note_off,120,0,1,,,,,,,,,0,,,80,0
484320,note_on,0,0,3,,,,,,,,,2,,,64,58
484320,note_on,120,0,3,,,,,,,,,2,,,56,58
484320,note_on,0,0,3,,,,,,,,,2,,,59,58
484320,note_off,0,0,2,,,,,,,,,1,,,71,0
484320,note_off,120,0,2,,,,,,,,,1,,,76,0
484440,note_on,120,0,1,,,,,,,,,0,,,80,63
484440,note_on,0,0,2,,,,,,,,,1,,,76,60
484440,note_on,120,0,2,,,,,,,,,1,,,71,60
484440,note_off,120,0,3,,,,,,,,,2,,,59,0
484440,note_off,0,0,3,,,,,,,,,2,,,56,0
484440,note_off,0,0,3,,,,,,,,,2,,,64,0
484560,note_on,0,0,3,,,,,,,,,2,,,64,58
484560,note_off,120,0,1,,,,,,,,,0,,,80,0
484560,note_off,120,0,2,,,,,,,,,1,,,76,0
484560,note_off,0,0,2,,,,,,,,,1,,,71,0
484560,note_on,0,0,3,,,,,,,,,2,,,59,58
484560,note_on,120,0,3,,,,,,,,,2,,,56,58
484680,note_on,120,0,2,,,,,,,,,1,,,71,60
484680,note_off,0,0,3,,,,,,,,,2,,,56,0
484680,note_off,120,0,3,,,,,,,,,2,,,59,0
484680,note_off,0,0,3,,,,,,,,,2,,,64,0
484680,note_on,120,0,1,,,,,,,,,0,,,83,64
484680,note_on,0,0,2,,,,,,,,,1,,,76,60
484740,set_tempo,900,1,0,,,,,,1071428,,,,,,,
484800,note_off,120,0,1,,,,,,,,,0,,,83,0
484800,note_off,120,0,2,,,,,,,,,1,,,76,0
484800,note_off,960,0,4,,,,,,,,,3,,,47,0
484800,note_on,0,0,4,,,,,,,,,3,,,49,62
484800,note_off,0,0,2,,,,,,,,,1,,,71,0
484860,set_tempo,120,1,0,,,,,,1034482,,,,,,,
484920,note_on,120,0,2,,,,,,,,,1,,,70,61
484920,note_on,120,0,1,,,,,,,,,0,,,82,64
484920,note_on,0,0,2,,,,,,,,,1,,,76,61
484920,note_on,0,0,2,,,,,,,,,1,,,79,61
485040,note_off,120,0,1,,,,,,,,,0,,,82,0
485040,note_on,0,0,3,,,,,,,,,2,,,64,59
485040,note_on,0,0,3,,,,,,,,,2,,,55,59
485040,note_off,120,0,2,,,,,,,,,1,,,79,0
485040,note_off,0,0,2,,,,,,,,,1,,,76,0
485040,note_off,0,0,2,,,,,,,,,1,,,70,0
485040,note_on,360,0,3,,,,,,,,,2,,,58,59
485160,note_on,120,0,1,,,,,,,,,0,,,88,65
485160,note_on,0,0,2,,,,,,,,,1,,,82,61
485160,note_off,0,0,3,,,,,,,,,2,,,64,0
485160,note_off,120,0,3,,,,,,,,,2,,,55,0
485160,note_on,120,0,2,,,,,,,,,1,,,76,61
485160,note_off,0,0,3,,,,,,,,,2,,,58,0
485175,set_tempo,315,1,0,,,,,,1111111,,,,,,,
485280,note_on,0,0,4,,,,,,,,,3,,,47,63
485280,note_off,480,0,4,,,,,,,,,3,,,49,0
485280,set_tempo,105,1,0,,,,,,1071428,,,,,,,
485280,note_off,120,0,2,,,,,,,,,1,,,82,0
485280,note_off,0,0,2,,,,,,,,,1,,,76,0
485280,note_off,120,0,1,,,,,,,,,0,,,88,0
485400,note_on,120,0,1,,,,,,,,,0,,,88,64
485400,note_on,120,0,2,,,,,,,,,1,,,76,60
485400,note_on,0,0,2,,,,,,,,,1,,,82,60
485520,note_on,0,0,3,,,,,,,,,2,,,56,53
485520,note_on,0,0,3,,,,,,,,,2,,,64,53
485520,note_on,360,0,3,,,,,,,,,2,,,59,53
485520,note_off,120,0,2,,,,,,,,,1,,,82,0
485520,note_off,0,0,2,,,,,,,,,1,,,76,0
485520,note_off,120,0,1,,,,,,,,,0,,,88,0
485640,note_on,120,0,2,,,,,,,,,1,,,78,56
485640,note_on,120,0,1,,,,,,,,,0,,,90,60
485640,note_off,120,0,3,,,,,,,,,2,,,56,0
485640,note_off,0,0,3,,,,,,,,,2,,,64,0
485640,note_off,0,0,3,,,,,,,,,2,,,59,0
485640,note_on,0,0,2,,,,,,,,,1,,,82,56
485760,note_off,120,0,2,,,,,,,,,1,,,82,0
485760,note_off,0,0,2,,,,,,,,,1,,,78,0
485760,note_on,120,0,3,,,,,,,,,2,,,64,49
485760,note_on,0,0,3,,,,,,,,,2,,,56,49
485760,note_off,120,0,1,,,,,,,,,0,,,90,0
485760,note_on,0,0,3,,,,,,,,,2,,,59,49
485880,note_off,0,0,3,,,,,,,,,2,,,59,0
485880,note_off,120,0,3,,,,,,,,,2,,,56,0
485880,note_on,120,0,1,,,,,,,,,0,,,91,55
485880,note_on,0,0,2,,,,,,,,,1,,,82,53
485880,note_on,120,0,2,,,,,,,,,1,,,79,53
485880,note_off,0,0,3,,,,,,,,,2,,,64,0
486000,note_off,120,0,1,,,,,,,,,0,,,91,0
486000,note_off,120,0,2,,,,,,,,,1,,,82,0
486000,note_off,0,0,2,,,,,,,,,1,,,79,0
486000,note_on,0,0,3,,,,,,,,,2,,,59,45
486000,note_on,120,0,3,,,,,,,,,2,,,64,45
486000,note_on,0,0,3,,,,,,,,,2,,,56,45
486120,note_on,120,0,1,,,,,,,,,0,,,88,50
486120,note_on,120,0,2,,,,,,,,,1,,,76,49
486120,note_on,0,0,2,,,,,,,,,1,,,82,49
486120,note_off,120,0,3,,,,,,,,,2,,,56,0
486120,note_off,0,0,3,,,,,,,,,2,,,59,0
486120,note_off,0,0,3,,,,,,,,,2,,,64,0
486240,note_off,120,0,2,,,,,,,,,1,,,82,0
486240,note_off,0,0,2,,,,,,,,,1,,,76,0
486240,note_on,120,0,3,,,,,,,,,2,,,55,41
486240,note_off,960,0,4,,,,,,,,,3,,,47,0
486240,note_off,120,0,1,,,,,,,,,0,,,88,0
486240,note_on,0,0,4,,,,,,,,,3,,,49,47
486300,set_tempo,1020,1,0,,,,,,1111111,,,,,,,
486360,note_off,120,0,3,,,,,,,,,2,,,55,0
486360,note_on,120,0,1,,,,,,,,,0,,,88,46
486360,note_on,120,0,2,,,,,,,,,1,,,76,45
486360,note_on,0,0,2,,,,,,,,,1,,,82,45
486480,note_on,120,0,3,,,,,,,,,2,,,59,37
486480,note_on,0,0,4,,,,,,,,,3,,,47,42
486480,note_off,240,0,4,,,,,,,,,3,,,49,0
486480,note_off,120,0,1,,,,,,,,,0,,,88,0
486480,note_off,120,0,2,,,,,,,,,1,,,82,0
486480,note_off,0,0,2,,,,,,,,,1,,,76,0
486495,set_tempo,195,1,0,,,,,,1132075,,,,,,,
486600,note_on,120,0,1,,,,,,,,,0,,,87,41
486600,note_off,120,0,3,,,,,,,,,2,,,59,0
486600,note_on,120,0,2,,,,,,,,,1,,,75,42
486600,note_on,0,0,2,,,,,,,,,1,,,83,42
486600,set_tempo,105,1,0,,,,,,1500000,,,,,,,
486720,note_off,120,0,1,,,,,,,,,0,,,87,0
486720,note_off,120,0,2,,,,,,,,,1,,,83,0
486720,set_tempo,120,1,0,,,,,,1034482,,,,,,,
486720,note_off,240,0,4,,,,,,,,,3,,,47,0
486720,note_on,0,0,4,,,,,,,,,3,,,63,35
486720,note_off,0,0,2,,,,,,,,,1,,,75,0
486840,note_on,120,0,1,,,,,,,,,0,,,78,35
486840,note_off,120,0,4,,,,,,,,,3,,,63,0
486960,note_off,120,0,1,,,,,,,,,0,,,78,0
486960,note_on,0,0,1,,,,,,,,,0,,,83,35
487080,note_on,240,0,4,,,,,,,,,3,,,75,35
487080,note_off,120,0,1,,,,,,,,,0,,,83,0
487200,note_on,0,0,4,,,,,,,,,3,,,63,35
487200,note_off,120,0,4,,,,,,,,,3,,,75,0
487320,note_off,120,0,4,,,,,,,,,3,,,63,0
487320,note_on,240,0,1,,,,,,,,,0,,,83,34
487440,note_off,120,0,1,,,,,,,,,0,,,83,0
487440,note_on,0,0,1,,,,,,,,,0,,,78,34
487560,note_on,240,0,4,,,,,,,,,3,,,75,34
487560,note_off,120,0,1,,,,,,,,,0,,,78,0
487680,note_on,0,0,4,,,,,,,,,3,,,65,34
487680,note_off,120,0,4,,,,,,,,,3,,,75,0
487800,note_on,240,0,1,,,,,,,,,0,,,83,33
487800,note_off,120,0,4,,,,,,,,,3,,,65,0
487920,note_off,120,0,1,,,,,,,,,0,,,83,0
487920,note_on,0,0,1,,,,,,,,,0,,,85,33
488040,note_off,120,0,1,,,,,,,,,0,,,85,0
488040,note_on,240,0,4,,,,,,,,,3,,,68,33
488100,set_tempo,1380,1,0,,,,,,1071428,,,,,,,
488160,set_tempo,60,1,0,,,,,,1034482,,,,,,,
488160,note_on,0,0,4,,,,,,,,,3,,,66,33
488160,note_off,120,0,4,,,,,,,,,3,,,68,0
488280,note_on,240,0,1,,,,,,,,,0,,,81,32
488280,note_off,120,0,4,,,,,,,,,3,,,66,0
488400,note_off,120,0,1,,,,,,,,,0,,,81,0
488400,note_on,0,0,1,,,,,,,,,0,,,85,32
488520,note_off,120,0,1,,,,,,,,,0,,,85,0
488520,note_on,240,0,4,,,,,,,,,3,,,73,32
488640,note_on,0,0,4,,,,,,,,,3,,,64,32
488640,note_off,120,0,4,,,,,,,,,3,,,73,0
488760,note_on,240,0,1,,,,,,,,,0,,,85,31
488760,note_off,120,0,4,,,,,,,,,3,,,64,0
488880,note_on,0,0,1,,,,,,,,,0,,,82,31
488880,note_off,120,0,1,,,,,,,,,0,,,85,0
489000,note_on,240,0,4,,,,,,,,,3,,,67,31
489000,note_off,120,0,1,,,,,,,,,0,,,82,0
489120,note_on,0,0,4,,,,,,,,,3,,,72,31
489120,note_off,120,0,4,,,,,,,,,3,,,67,0
489240,note_on,240,0,1,,,,,,,,,0,,,81,31
489240,note_off,120,0,4,,,,,,,,,3,,,72,0
489360,note_on,0,0,1,,,,,,,,,0,,,83,30
489360,note_off,120,0,1,,,,,,,,,0,,,81,0
489480,note_on,240,0,4,,,,,,,,,3,,,63,30
489480,note_off,120,0,1,,,,,,,,,0,,,83,0
489540,set_tempo,1380,1,0,,,,,,1071428,,,,,,,
489600,note_on,0,0,4,,,,,,,,,3,,,64,30
489600,note_off,120,0,4,,,,,,,,,3,,,63,0
489600,set_tempo,60,1,0,,,,,,1034482,,,,,,,
489720,note_on,240,0,1,,,,,,,,,0,,,80,32
489720,note_off,120,0,4,,,,,,,,,3,,,64,0
489840,note_on,0,0,1,,,,,,,,,0,,,83,32
489840,note_off,120,0,1,,,,,,,,,0,,,80,0
489960,note_on,240,0,4,,,,,,,,,3,,,76,31
489960,note_off,120,0,1,,,,,,,,,0,,,83,0
490080,note_on,0,0,4,,,,,,,,,3,,,75,32
490080,note_off,120,0,4,,,,,,,,,3,,,76,0
490200,note_on,240,0,1,,,,,,,,,0,,,92,33
490200,note_off,120,0,4,,,,,,,,,3,,,75,0
490320,note_on,0,0,1,,,,,,,,,0,,,83,34
490320,note_off,120,0,1,,,,,,,,,0,,,92,0
490440,note_on,240,0,4,,,,,,,,,3,,,63,33
490440,note_off,120,0,1,,,,,,,,,0,,,83,0
490560,note_on,0,0,4,,,,,,,,,3,,,62,34
490560,note_off,120,0,4,,,,,,,,,3,,,63,0
490680,note_off,120,0,4,,,,,,,,,3,,,62,0
490680,note_on,240,0,1,,,,,,,,,0,,,83,35
490800,note_off,120,0,1,,,,,,,,,0,,,83,0
490800,note_on,0,0,1,,,,,,,,,0,,,92,35
490920,note_on,240,0,4,,,,,,,,,3,,,74,35
490920,note_off,120,0,1,,,,,,,,,0,,,92,0
490980,set_tempo,1380,1,0,,,,,,1071428,,,,,,,
491040,note_off,120,0,4,,,,,,,,,3,,,74,0
491040,note_on,0,0,4,,,,,,,,,3,,,75,36
491040,set_tempo,60,1,0,,,,,,1034482,,,,,,,
491160,note_on,240,0,1,,,,,,,,,0,,,83,36
491160,note_off,120,0,4,,,,,,,,,3,,,75,0
491280,note_off,120,0,1,,,,,,,,,0,,,83,0
491280,note_on,0,0,1,,,,,,,,,0,,,87,36
491400,note_off,120,0,1,,,,,,,,,0,,,87,0
491400,note_on,240,0,4,,,,,,,,,3,,,63,37
491520,note_on,0,0,4,,,,,,,,,3,,,64,38
491520,note_off,120,0,4,,,,,,,,,3,,,63,0
491640,note_off,120,0,4,,,,,,,,,3,,,64,0
491640,note_on,240,0,1,,,,,,,,,0,,,80,37
491760,note_on,5040,0,2,,,,,,,,,1,,,70,37
491760,note_on,0,0,1,,,,,,,,,0,,,79,37
491760,note_off,120,0,1,,,,,,,,,0,,,80,0
491880,note_on,240,0,4,,,,,,,,,3,,,63,36
491880,note_off,120,0,2,,,,,,,,,1,,,70,0
491880,note_off,120,0,1,,,,,,,,,0,,,79,0
492000,note_off,120,0,4,,,,,,,,,3,,,63,0
492000,note_on,0,0,4,,,,,,,,,3,,,56,35
492120,note_on,240,0,2,,,,,,,,,1,,,70,33
492120,note_on,240,0,1,,,,,,,,,0,,,79,33
492120,note_off,120,0,4,,,,,,,,,3,,,56,0
492240,note_on,0,0,1,,,,,,,,,0,,,80,32
492240,note_on,0,0,2,,,,,,,,,1,,,71,32
492240,note_off,120,0,1,,,,,,,,,0,,,79,0
492240,set_tempo,1200,1,0,,,,,,1071428,,,,,,,
492240,note_off,120,0,2,,,,,,,,,1,,,70,0
492360,note_off,120,0,1,,,,,,,,,0,,,80,0
492360,note_off,120,0,2,,,,,,,,,1,,,71,0
492360,set_tempo,120,1,0,,,,,,1111111,,,,,,,
492360,note_on,240,0,4,,,,,,,,,3,,,54,32
492480,set_tempo,120,1,0,,,,,,1034482,,,,,,,
492480,note_on,0,0,4,,,,,,,,,3,,,66,30
492480,note_off,120,0,4,,,,,,,,,3,,,54,0
492600,note_on,240,0,1,,,,,,,,,0,,,80,32
492600,note_off,120,0,4,,,,,,,,,3,,,66,0
492720,note_off,120,0,1,,,,,,,,,0,,,80,0
492720,note_on,0,0,1,,,,,,,,,0,,,81,33
492840,note_on,240,0,4,,,,,,,,,3,,,77,32
492840,note_off,120,0,1,,,,,,,,,0,,,81,0
492960,note_off,120,0,4,,,,,,,,,3,,,77,0
492960,note_on,0,0,4,,,,,,,,,3,,,78,33
493080,note_on,240,0,1,,,,,,,,,0,,,93,35
493080,note_off,120,0,4,,,,,,,,,3,,,78,0
493200,note_on,0,0,1,,,,,,,,,0,,,81,36
493200,note_off,120,0,1,,,,,,,,,0,,,93,0
493320,note_off,120,0,1,,,,,,,,,0,,,81,0
493320,note_on,240,0,4,,,,,,,,,3,,,73,35
493440,note_off,120,0,4,,,,,,,,,3,,,73,0
493440,note_on,0,0,4,,,,,,,,,3,,,78,35
493560,note_off,120,0,4,,,,,,,,,3,,,78,0
493560,note_on,240,0,1,,,,,,,,,0,,,81,37
493680,note_off,120,0,1,,,,,,,,,0,,,81,0
493680,note_on,0,0,1,,,,,,,,,0,,,85,38
493800,note_on,240,0,4,,,,,,,,,3,,,73,38
493800,note_off,120,0,1,,,,,,,,,0,,,85,0
493860,set_tempo,1380,1,0,,,,,,1071428,,,,,,,
493920,note_off,120,0,4,,,,,,,,,3,,,73,0
493920,note_on,0,0,4,,,,,,,,,3,,,78,38
493920,set_tempo,60,1,0,,,,,,1034482,,,,,,,
494040,note_off,120,0,4,,,,,,,,,3,,,78,0
494040,note_on,240,0,1,,,,,,,,,0,,,82,40
494160,note_off,120,0,1,,,,,,,,,0,,,82,0
494160,note_on,0,0,1,,,,,,,,,0,,,83,41
494280,note_on,240,0,4,,,,,,,,,3,,,75,40
494280,note_off,120,0,1,,,,,,,,,0,,,83,0
494400,note_off,120,0,4,,,,,,,,,3,,,75,0
494400,note_on,0,0,4,,,,,,,,,3,,,81,41
494520,note_off,120,0,4,,,,,,,,,3,,,81,0
494520,note_on,240,0,1,,,,,,,,,0,,,95,42
494640,note_on,0,0,1,,,,,,,,,0,,,83,43
494640,note_off,120,0,1,,,,,,,,,0,,,95,0
494760,note_on,240,0,4,,,,,,,,,3,,,75,43
494760,note_off,120,0,1,,,,,,,,,0,,,83,0
494880,note_off,120,0,4,,,,,,,,,3,,,75,0
494880,note_on,0,0,4,,,,,,,,,3,,,83,43
495000,note_off,120,0,4,,,,,,,,,3,,,83,0
495000,note_on,240,0,1,,,,,,,,,0,,,93,42
495120,note_on,0,0,1,,,,,,,,,0,,,92,42
495120,note_off,120,0,1,,,,,,,,,0,,,93,0
495240,note_off,120,0,1,,,,,,,,,0,,,92,0
495240,note_on,240,0,4,,,,,,,,,3,,,76,42
495300,set_tempo,1380,1,0,,,,,,1071428,,,,,,,
495360,note_off,120,0,4,,,,,,,,,3,,,76,0
495360,set_tempo,60,1,0,,,,,,1034482,,,,,,,
495360,note_on,0,0,4,,,,,,,,,3,,,83,41
495480,note_on,240,0,1,,,,,,,,,0,,,88,41
495480,note_off,120,0,4,,,,,,,,,3,,,83,0
495480,note_on,3120,0,2,,,,,,,,,1,,,80,41
495600,note_off,120,0,2,,,,,,,,,1,,,80,0
495600,note_off,120,0,1,,,,,,,,,0,,,88,0
495600,note_on,0,0,1,,,,,,,,,0,,,92,41
495600,note_on,0,0,2,,,,,,,,,1,,,88,41
495720,note_on,240,0,4,,,,,,,,,3,,,71,39
495720,note_off,120,0,2,,,,,,,,,1,,,88,0
495720,note_off,120,0,1,,,,,,,,,0,,,92,0
495840,note_on,0,0,4,,,,,,,,,3,,,72,39
495840,note_off,120,0,4,,,,,,,,,3,,,71,0
495960,note_on,240,0,1,,,,,,,,,0,,,88,39
495960,note_on,240,0,2,,,,,,,,,1,,,80,39
495960,note_off,120,0,4,,,,,,,,,3,,,72,0
496080,note_off,120,0,1,,,,,,,,,0,,,88,0
496080,note_on,0,0,2,,,,,,,,,1,,,76,39
496080,note_off,120,0,2,,,,,,,,,1,,,80,0
496080,note_on,0,0,1,,,,,,,,,0,,,80,39
496200,note_on,240,0,4,,,,,,,,,3,,,73,37
496200,note_off,120,0,2,,,,,,,,,1,,,76,0
496200,note_off,120,0,1,,,,,,,,,0,,,80,0
496320,note_off,120,0,4,,,,,,,,,3,,,73,0
496320,note_on,0,0,4,,,,,,,,,3,,,73,36
496440,note_on,240,0,1,,,,,,,,,0,,,83,37
496440,note_on,240,0,2,,,,,,,,,1,,,80,37
496440,note_off,120,0,4,,,,,,,,,3,,,73,0
496560,note_off,120,0,2,,,,,,,,,1,,,80,0
496560,note_off,120,0,1,,,,,,,,,0,,,83,0
496560,note_on,0,0,1,,,,,,,,,0,,,81,37
496560,note_on,0,0,2,,,,,,,,,1,,,78,37
496680,note_off,120,0,1,,,,,,,,,0,,,81,0
496680,note_on,240,0,4,,,,,,,,,3,,,75,35
496680,note_off,120,0,2,,,,,,,,,1,,,78,0
496740,set_tempo,1380,1,0,,,,,,1071428,,,,,,,
496800,note_off,120,0,4,,,,,,,,,3,,,75,0
496800,note_on,0,0,4,,,,,,,,,3,,,76,34
496920,note_on,240,0,1,,,,,,,,,0,,,81,36
496920,note_on,240,0,2,,,,,,,,,1,,,78,36
496920,note_off,120,0,4,,,,,,,,,3,,,76,0
497040,note_on,0,0,1,,,,,,,,,0,,,90,35
497040,note_off,120,0,1,,,,,,,,,0,,,81,0
497040,note_on,0,0,2,,,,,,,,,1,,,81,35
497040,note_off,120,0,2,,,,,,,,,1,,,78,0
497160,note_off,120,0,2,,,,,,,,,1,,,81,0
497160,note_on,240,0,4,,,,,,,,,3,,,63,32
497160,note_off,120,0,1,,,,,,,,,0,,,90,0
497280,note_off,120,0,4,,,,,,,,,3,,,63,0
497280,note_on,0,0,4,,,,,,,,,3,,,64,32
497400,note_on,240,0,2,,,,,,,,,1,,,81,34
497400,note_off,120,0,4,,,,,,,,,3,,,64,0
497400,note_on,240,0,1,,,,,,,,,0,,,90,34
497520,note_off,120,0,1,,,,,,,,,0,,,90,0
497520,note_on,0,0,1,,,,,,,,,0,,,81,34
497520,note_on,0,0,2,,,,,,,,,1,,,78,34
497520,note_off,120,0,2,,,,,,,,,1,,,81,0
497640,note_off,120,0,2,,,,,,,,,1,,,78,0
497640,note_on,240,0,4,,,,,,,,,3,,,51,30
497640,note_off,120,0,1,,,,,,,,,0,,,81,0
497760,note_off,120,0,4,,,,,,,,,3,,,51,0
497760,note_on,0,0,4,,,,,,,,,3,,,52,29
497830,set_tempo,1090,1,0,,,,,,1132075,,,,,,,
497880,note_on,240,0,2,,,,,,,,,1,,,78,32
497880,note_off,120,0,4,,,,,,,,,3,,,52,0
497880,note_on,240,0,1,,,,,,,,,0,,,81,32
498000,note_on,0,0,2,,,,,,,,,1,,,71,32
498000,note_off,120,0,2,,,,,,,,,1,,,78,0
498000,note_on,0,0,1,,,,,,,,,0,,,80,32
498000,note_off,120,0,1,,,,,,,,,0,,,81,0
498110,set_tempo,280,1,0,,,,,,2727272,,,,,,,
498120,note_off,120,0,1,,,,,,,,,0,,,80,0
498120,note_off,120,0,2,,,,,,,,,1,,,71,0
498120,note_on,240,0,4,,,,,,,,,3,,,50,28
498240,note_on,0,0,4,,,,,,,,,3,,,62,46
498240,note_off,120,0,4,,,,,,,,,3,,,50,0
498240,note_on,120,0,1,,,,,,,,,0,,,74,47
498260,set_tempo,150,1,0,,,,,,1034482,,,,,,,
498480,note_on,0,0,1,,,,,,,,,0,,,62,45
498480,note_off,240,0,1,,,,,,,,,0,,,74,0
498480,note_off,240,0,4,,,,,,,,,3,,,62,0
498480,note_on,0,0,4,,,,,,,,,3,,,50,44
498672,note_off,192,0,1,,,,,,,,,0,,,62,0
498672,note_off,192,0,4,,,,,,,,,3,,,50,0
498720,note_on,48,0,4,,,,,,,,,3,,,50,43
498720,note_on,48,0,1,,,,,,,,,0,,,62,43
498912,note_off,192,0,1,,,,,,,,,0,,,62,0
498912,note_off,192,0,4,,,,,,,,,3,,,50,0
498960,note_on,48,0,4,,,,,,,,,3,,,50,42
498960,note_on,48,0,1,,,,,,,,,0,,,62,41
499140,set_tempo,880,1,0,,,,,,1071428,,,,,,,
499152,note_off,192,0,1,,,,,,,,,0,,,62,0
499152,note_off,192,0,4,,,,,,,,,3,,,50,0
499200,note_on,48,0,1,,,,,,,,,0,,,62,39
499200,note_on,48,0,4,,,,,,,,,3,,,50,41
499240,note_on,40,0,4,,,,,,,,,3,,,52,41
499240,note_on,40,0,1,,,,,,,,,0,,,64,39
499260,set_tempo,120,1,0,,,,,,1034482,,,,,,,
499260,note_off,20,0,1,,,,,,,,,0,,,62,0
499270,note_off,30,0,4,,,,,,,,,3,,,50,0
499280,note_on,10,0,4,,,,,,,,,3,,,50,41
499280,note_on,20,0,1,,,,,,,,,0,,,62,39
499300,note_off,20,0,1,,,,,,,,,0,,,64,0
499310,note_off,30,0,4,,,,,,,,,3,,,52,0
499320,note_on,10,0,4,,,,,,,,,3,,,52,41
499320,note_on,20,0,1,,,,,,,,,0,,,64,38
499340,note_off,20,0,1,,,,,,,,,0,,,62,0
499350,note_off,30,0,4,,,,,,,,,3,,,50,0
499360,note_on,10,0,4,,,,,,,,,3,,,50,41
499360,note_on,20,0,1,,,,,,,,,0,,,62,38
499380,note_off,20,0,1,,,,,,,,,0,,,64,0
499390,note_off,30,0,4,,,,,,,,,3,,,52,0
499400,note_on,10,0,4,,,,,,,,,3,,,52,41
499400,note_on,20,0,1,,,,,,,,,0,,,64,38
499420,note_off,20,0,1,,,,,,,,,0,,,62,0
499430,note_off,30,0,4,,,,,,,,,3,,,50,0
499440,note_on,10,0,4,,,,,,,,,3,,,50,40
499440,note_on,20,0,1,,,,,,,,,0,,,62,37
499460,note_off,20,0,1,,,,,,,,,0,,,64,0
499470,note_off,30,0,4,,,,,,,,,3,,,52,0
499480,note_on,10,0,4,,,,,,,,,3,,,52,40
499480,note_on,20,0,1,,,,,,,,,0,,,64,37
499500,note_off,20,0,1,,,,,,,,,0,,,62,0
499510,note_off,30,0,4,,,,,,,,,3,,,50,0
499520,note_on,20,0,1,,,,,,,,,0,,,62,37
499520,note_on,10,0,4,,,,,,,,,3,,,50,40
499540,note_off,20,0,1,,,,,,,,,0,,,64,0
499550,note_off,30,0,4,,,,,,,,,3,,,52,0
499560,note_on,20,0,1,,,,,,,,,0,,,61,36
499560,set_tempo,300,1,0,,,,,,1071428,,,,,,,
499560,note_on,10,0,4,,,,,,,,,3,,,49,40
499580,note_off,20,0,1,,,,,,,,,0,,,62,0
499590,note_off,30,0,4,,,,,,,,,3,,,50,0
499620,note_on,30,0,4,,,,,,,,,3,,,50,40
499620,set_tempo,60,1,0,,,,,,1111111,,,,,,,
499620,note_on,40,0,1,,,,,,,,,0,,,62,36
499640,note_off,20,0,1,,,,,,,,,0,,,61,0
499650,note_off,30,0,4,,,,,,,,,3,,,49,0
499680,note_on,0,0,4,,,,,,,,,3,,,49,45
499680,note_on,0,0,1,,,,,,,,,0,,,71,51
499680,note_on,13080,0,3,,,,,,,,,2,,,53,42
499680,note_on,0,0,3,,,,,,,,,2,,,56,42
499680,set_tempo,60,1,0,,,,,,1034482,,,,,,,
499680,note_off,30,0,4,,,,,,,,,3,,,50,0
499680,note_off,40,0,1,,,,,,,,,0,,,62,0
499680,note_on,0,0,1,,,,,,,,,0,,,62,48
499920,note_on,0,0,3,,,,,,,,,2,,,56,42
499920,note_off,0,0,3,,,,,,,,,2,,,53,0
499920,note_off,240,0,3,,,,,,,,,2,,,56,0
499920,note_off,240,0,4,,,,,,,,,3,,,49,0
499920,note_on,0,0,4,,,,,,,,,3,,,49,45
499920,note_on,0,0,3,,,,,,,,,2,,,53,42
499920,note_on,0,0,1,,,,,,,,,0,,,68,49
499920,note_off,240,0,1,,,,,,,,,0,,,71,0
500112,note_off,192,0,1,,,,,,,,,0,,,68,0
500160,note_off,48,0,1,,,,,,,,,0,,,62,0
500160,note_on,0,0,1,,,,,,,,,0,,,68,47
500160,note_on,0,0,1,,,,,,,,,0,,,61,50
500160,note_off,240,0,3,,,,,,,,,2,,,56,0
500160,note_off,240,0,4,,,,,,,,,3,,,49,0
500160,note_on,0,0,4,,,,,,,,,3,,,49,46
500160,note_on,0,0,3,,,,,,,,,2,,,53,43
500160,note_on,0,0,3,,,,,,,,,2,,,56,43
500160,note_off,0,0,3,,,,,,,,,2,,,53,0
500352,note_off,192,0,1,,,,,,,,,0,,,68,0
500400,note_off,240,0,4,,,,,,,,,3,,,49,0
500400,note_off,0,0,3,,,,,,,,,2,,,56,0
500400,note_on,0,0,4,,,,,,,,,3,,,49,46
500400,note_on,0,0,3,,,,,,,,,2,,,53,43
500400,note_on,48,0,1,,,,,,,,,0,,,68,45
500400,note_on,0,0,3,,,,,,,,,2,,,56,43
500400,note_off,240,0,3,,,,,,,,,2,,,53,0
500580,set_tempo,900,1,0,,,,,,1071428,,,,,,,
500592,note_off,192,0,1,,,,,,,,,0,,,68,0
500640,note_off,240,0,4,,,,,,,,,3,,,49,0
500640,note_off,0,0,3,,,,,,,,,2,,,53,0
500640,note_on,0,0,3,,,,,,,,,2,,,53,44
500640,note_on,0,0,3,,,,,,,,,2,,,56,44
500640,note_off,48,0,1,,,,,,,,,0,,,61,0
500640,note_off,240,0,3,,,,,,,,,2,,,56,0
500640,note_on,0,0,1,,,,,,,,,0,,,68,43
500640,note_on,0,0,1,,,,,,,,,0,,,59,51
500640,note_on,0,0,4,,,,,,,,,3,,,49,47
500680,note_on,40,0,1,,,,,,,,,0,,,69,43
500700,set_tempo,120,1,0,,,,,,1034482,,,,,,,
500700,note_off,20,0,1,,,,,,,,,0,,,68,0
500720,note_on,20,0,1,,,,,,,,,0,,,68,43
500740,note_off,20,0,1,,,,,,,,,0,,,69,0
500760,note_on,20,0,1,,,,,,,,,0,,,69,42
500780,note_off,20,0,1,,,,,,,,,0,,,68,0
500800,note_on,20,0,1,,,,,,,,,0,,,68,42
500820,note_off,20,0,1,,,,,,,,,0,,,69,0
500840,note_on,20,0,1,,,,,,,,,0,,,69,42
500860,note_off,20,0,1,,,,,,,,,0,,,68,0
500880,note_off,0,0,3,,,,,,,,,2,,,53,0
500880,note_on,0,0,4,,,,,,,,,3,,,49,47
500880,note_on,0,0,3,,,,,,,,,2,,,53,44
500880,note_on,20,0,1,,,,,,,,,0,,,68,41
500880,note_off,240,0,4,,,,,,,,,3,,,49,0
500880,note_on,0,0,3,,,,,,,,,2,,,56,44
500880,note_off,240,0,3,,,,,,,,,2,,,56,0
500900,note_off,20,0,1,,,,,,,,,0,,,69,0
500920,note_on,20,0,1,,,,,,,,,0,,,69,41
500940,note_off,20,0,1,,,,,,,,,0,,,68,0
500960,note_on,20,0,1,,,,,,,,,0,,,68,41
500980,note_off,20,0,1,,,,,,,,,0,,,69,0
501000,set_tempo,300,1,0,,,,,,1071428,,,,,,,
501000,note_on,20,0,1,,,,,,,,,0,,,66,40
501020,note_off,20,0,1,,,,,,,,,0,,,68,0
501060,note_on,40,0,1,,,,,,,,,0,,,68,40
501060,set_tempo,60,1,0,,,,,,1111111,,,,,,,
501080,note_off,20,0,1,,,,,,,,,0,,,66,0
501120,note_off,0,0,3,,,,,,,,,2,,,53,0
501120,note_on,0,0,1,,,,,,,,,0,,,68,53
501120,note_on,0,0,1,,,,,,,,,0,,,73,51
501120,note_off,0,0,1,,,,,,,,,0,,,59,0
501120,note_off,40,0,1,,,,,,,,,0,,,68,0
501120,note_on,0,0,4,,,,,,,,,3,,,49,48
501120,set_tempo,60,1,0,,,,,,1034482,,,,,,,
501120,note_off,240,0,3,,,,,,,,,2,,,56,0
501120,note_on,0,0,3,,,,,,,,,2,,,54,45
501120,note_off,240,0,4,,,,,,,,,3,,,49,0
501120,note_on,0,0,3,,,,,,,,,2,,,57,45
501360,note_off,240,0,3,,,,,,,,,2,,,57,0
501360,note_on,0,0,1,,,,,,,,,0,,,69,50
501360,note_off,240,0,4,,,,,,,,,3,,,49,0
501360,note_on,0,0,4,,,,,,,,,3,,,49,49
501360,note_off,240,0,1,,,,,,,,,0,,,73,0
501360,note_on,0,0,3,,,,,,,,,2,,,54,45
501360,note_on,0,0,3,,,,,,,,,2,,,57,45
501360,note_off,0,0,3,,,,,,,,,2,,,54,0
501552,note_off,192,0,1,,,,,,,,,0,,,69,0
501600,note_off,240,0,4,,,,,,,,,3,,,49,0
501600,note_off,48,0,1,,,,,,,,,0,,,68,0
501600,note_on,0,0,3,,,,,,,,,2,,,54,45
501600,note_on,0,0,3,,,,,,,,,2,,,57,45
501600,note_off,0,0,3,,,,,,,,,2,,,57,0
501600,note_on,0,0,1,,,,,,,,,0,,,66,54
501600,note_on,0,0,4,,,,,,,,,3,,,49,49
501600,note_on,0,0,1,,,,,,,,,0,,,69,48
501600,note_off,240,0,3,,,,,,,,,2,,,54,0
501792,note_off,192,0,1,,,,,,,,,0,,,69,0
501840,note_on,48,0,1,,,,,,,,,0,,,69,46
501840,note_off,0,0,3,,,,,,,,,2,,,57,0
501840,note_on,0,0,3,,,,,,,,,2,,,54,46
501840,note_on,0,0,3,,,,,,,,,2,,,57,46
501840,note_off,240,0,4,,,,,,,,,3,,,49,0
501840,note_off,240,0,3,,,,,,,,,2,,,54,0
501840,note_on,0,0,4,,,,,,,,,3,,,49,50
502020,set_tempo,900,1,0,,,,,,1071428,,,,,,,
502032,note_off,192,0,1,,,,,,,,,0,,,69,0
502080,note_off,240,0,4,,,,,,,,,3,,,49,0
502080,note_on,0,0,1,,,,,,,,,0,,,64,56
502080,note_on,0,0,1,,,,,,,,,0,,,69,45
502080,note_off,48,0,1,,,,,,,,,0,,,66,0
502080,note_off,240,0,3,,,,,,,,,2,,,57,0
502080,note_on,0,0,3,,,,,,,,,2,,,52,46
502080,note_on,0,0,3,,,,,,,,,2,,,57,46
502080,note_on,0,0,4,,,,,,,,,3,,,49,50
502080,note_off,0,0,3,,,,,,,,,2,,,54,0
502120,note_on,0,0,1,,,,,,,,,0,,,71,44
502120,note_off,40,0,1,,,,,,,,,0,,,69,0
502140,set_tempo,120,1,0,,,,,,1034482,,,,,,,
502160,note_off,40,0,1,,,,,,,,,0,,,71,0
502160,note_on,0,0,1,,,,,,,,,0,,,69,44
502200,note_on,0,0,1,,,,,,,,,0,,,71,44
502200,note_off,40,0,1,,,,,,,,,0,,,69,0
502240,note_off,40,0,1,,,,,,,,,0,,,71,0
502240,note_on,0,0,1,,,,,,,,,0,,,69,43
502280,note_off,40,0,1,,,,,,,,,0,,,69,0
502280,note_on,0,0,1,,,,,,,,,0,,,71,43
502320,note_off,240,0,4,,,,,,,,,3,,,49,0
502320,note_on,0,0,4,,,,,,,,,3,,,49,51
502320,note_off,40,0,1,,,,,,,,,0,,,71,0
502320,note_on,0,0,1,,,,,,,,,0,,,69,43
502320,note_on,0,0,3,,,,,,,,,2,,,57,47
502320,note_on,0,0,3,,,,,,,,,2,,,52,47
502320,note_off,240,0,3,,,,,,,,,2,,,57,0
502320,note_off,0,0,3,,,,,,,,,2,,,52,0
502360,note_on,0,0,1,,,,,,,,,0,,,71,43
502360,note_off,40,0,1,,,,,,,,,0,,,69,0
502400,note_on,0,0,1,,,,,,,,,0,,,69,42
502400,note_off,40,0,1,,,,,,,,,0,,,71,0
502440,set_tempo,300,1,0,,,,,,1071428,,,,,,,
502440,note_off,40,0,1,,,,,,,,,0,,,69,0
502440,note_on,0,0,1,,,,,,,,,0,,,68,42
502500,note_off,60,0,1,,,,,,,,,0,,,68,0
502500,note_on,0,0,1,,,,,,,,,0,,,69,42
502500,set_tempo,60,1,0,,,,,,1111111,,,,,,,
502560,note_off,60,0,1,,,,,,,,,0,,,69,0
502560,note_off,0,0,1,,,,,,,,,0,,,64,0
502560,note_on,0,0,1,,,,,,,,,0,,,80,51
502560,note_on,0,0,1,,,,,,,,,0,,,68,53
502560,set_tempo,60,1,0,,,,,,1034482,,,,,,,
502560,note_off,240,0,4,,,,,,,,,3,,,49,0
502560,note_on,0,0,3,,,,,,,,,2,,,52,49
502560,note_off,0,0,3,,,,,,,,,2,,,57,0
502560,note_off,240,0,3,,,,,,,,,2,,,52,0
502560,note_on,0,0,4,,,,,,,,,3,,,47,51
502560,note_on,0,0,3,,,,,,,,,2,,,56,49
502800,note_on,0,0,3,,,,,,,,,2,,,56,48
502800,note_off,240,0,3,,,,,,,,,2,,,56,0
502800,note_off,0,0,3,,,,,,,,,2,,,52,0
502800,note_on,0,0,3,,,,,,,,,2,,,52,48
502800,note_on,0,0,1,,,,,,,,,0,,,76,49
502800,note_on,0,0,1,,,,,,,,,0,,,68,51
502800,note_on,0,0,4,,,,,,,,,3,,,47,50
502800,note_off,240,0,4,,,,,,,,,3,,,47,0
502800,note_off,0,0,1,,,,,,,,,0,,,80,0
502800,note_off,240,0,1,,,,,,,,,0,,,68,0
502992,note_off,192,0,1,,,,,,,,,0,,,68,0
502992,note_off,0,0,1,,,,,,,,,0,,,76,0
503040,note_off,0,0,3,,,,,,,,,2,,,52,0
503040,note_on,0,0,3,,,,,,,,,2,,,52,47
503040,note_on,0,0,3,,,,,,,,,2,,,55,47
503040,note_off,240,0,4,,,,,,,,,3,,,47,0
503040,note_on,0,0,4,,,,,,,,,3,,,46,48
503040,note_on,48,0,1,,,,,,,,,0,,,76,47
503040,note_on,0,0,1,,,,,,,,,0,,,67,49
503040,note_off,240,0,3,,,,,,,,,2,,,56,0
503280,note_on,0,0,1,,,,,,,,,0,,,67,47
503280,note_off,240,0,4,,,,,,,,,3,,,46,0
503280,note_on,0,0,4,,,,,,,,,3,,,46,47
503280,note_off,0,0,1,,,,,,,,,0,,,76,0
503280,note_off,240,0,1,,,,,,,,,0,,,67,0
503280,note_on,0,0,3,,,,,,,,,2,,,55,45
503280,note_on,0,0,3,,,,,,,,,2,,,52,45
503280,note_off,0,0,3,,,,,,,,,2,,,52,0
503280,note_off,240,0,3,,,,,,,,,2,,,55,0
503280,note_on,0,0,1,,,,,,,,,0,,,75,45
503472,note_off,192,0,1,,,,,,,,,0,,,67,0
503472,note_off,0,0,1,,,,,,,,,0,,,75,0
503520,note_on,0,0,4,,,,,,,,,3,,,44,45
503520,note_off,240,0,4,,,,,,,,,3,,,46,0
503520,note_on,0,0,3,,,,,,,,,2,,,56,44
503520,note_off,0,0,3,,,,,,,,,2,,,52,0
503520,note_on,0,0,1,,,,,,,,,0,,,71,45
503520,note_off,240,0,3,,,,,,,,,2,,,55,0
503520,note_on,48,0,1,,,,,,,,,0,,,75,43
503520,note_on,0,0,3,,,,,,,,,2,,,51,44
503560,note_on,40,0,1,,,,,,,,,0,,,76,43
503585,note_off,25,0,1,,,,,,,,,0,,,75,0
503600,note_on,15,0,1,,,,,,,,,0,,,75,42
503625,note_off,25,0,1,,,,,,,,,0,,,76,0
503640,note_on,15,0,1,,,,,,,,,0,,,73,42
503665,note_off,25,0,1,,,,,,,,,0,,,75,0
503700,note_on,35,0,1,,,,,,,,,0,,,75,41
503700,set_tempo,1140,1,0,,,,,,1071428,,,,,,,
503712,note_off,12,0,1,,,,,,,,,0,,,71,0
503725,note_off,13,0,1,,,,,,,,,0,,,73,0
503760,note_on,0,0,4,,,,,,,,,3,,,44,44
503760,note_on,0,0,3,,,,,,,,,2,,,47,43
503760,note_on,0,0,3,,,,,,,,,2,,,52,43
503760,note_off,240,0,3,,,,,,,,,2,,,56,0
503760,note_on,0,0,1,,,,,,,,,0,,,71,43
503760,note_on,0,0,1,,,,,,,,,0,,,76,41
503760,note_off,35,0,1,,,,,,,,,0,,,75,0
503760,note_off,240,0,4,,,,,,,,,3,,,44,0
503760,note_off,0,0,3,,,,,,,,,2,,,51,0
503800,note_on,40,0,1,,,,,,,,,0,,,78,40
503815,note_off,15,0,1,,,,,,,,,0,,,76,0
503820,set_tempo,120,1,0,,,,,,1034482,,,,,,,
503840,note_on,25,0,1,,,,,,,,,0,,,76,40
503855,note_off,15,0,1,,,,,,,,,0,,,78,0
503880,note_on,25,0,1,,,,,,,,,0,,,75,40
503880,set_tempo,60,1,0,,,,,,1071428,,,,,,,
503895,note_off,15,0,1,,,,,,,,,0,,,76,0
503940,note_on,45,0,1,,,,,,,,,0,,,76,42
503940,set_tempo,60,1,0,,,,,,1132075,,,,,,,
503952,note_off,12,0,1,,,,,,,,,0,,,71,0
503955,note_off,3,0,1,,,,,,,,,0,,,75,0
504000,note_off,240,0,3,,,,,,,,,2,,,47,0
504000,note_off,45,0,1,,,,,,,,,0,,,76,0
504000,note_off,0,0,3,,,,,,,,,2,,,52,0
504000,note_off,240,0,4,,,,,,,,,3,,,44,0
504000,note_on,0,0,4,,,,,,,,,3,,,42,42
504000,note_on,0,0,3,,,,,,,,,2,,,54,40
504000,set_tempo,60,1,0,,,,,,1034482,,,,,,,
504120,note_on,120,0,1,,,,,,,,,0,,,76,42
504120,note_off,120,0,3,,,,,,,,,2,,,54,0
504120,note_on,6000,0,2,,,,,,,,,1,,,73,38
504120,note_on,0,0,2,,,,,,,,,1,,,69,38
504240,note_on,0,0,3,,,,,,,,,2,,,54,43
504240,note_on,0,0,3,,,,,,,,,2,,,57,41
504240,note_off,0,0,2,,,,,,,,,1,,,73,0
504240,note_on,120,0,3,,,,,,,,,2,,,61,41
504240,note_off,120,0,1,,,,,,,,,0,,,76,0
504240,note_off,120,0,2,,,,,,,,,1,,,69,0
504240,note_on,0,0,3,,,,,,,,,2,,,64,41
504360,note_on,120,0,2,,,,,,,,,1,,,69,39
504360,note_on,120,0,1,,,,,,,,,0,,,81,43
504360,note_off,120,0,3,,,,,,,,,2,,,54,0
504360,note_off,0,0,3,,,,,,,,,2,,,64,0
504360,note_off,0,0,3,,,,,,,,,2,,,57,0
504360,note_off,0,0,3,,,,,,,,,2,,,61,0
504480,note_on,120,0,3,,,,,,,,,2,,,61,41
504480,note_off,120,0,2,,,,,,,,,1,,,69,0
504480,note_on,0,0,3,,,,,,,,,2,,,54,44
504480,note_off,120,0,1,,,,,,,,,0,,,81,0
504480,note_on,0,0,3,,,,,,,,,2,,,57,41
504480,note_on,0,0,3,,,,,,,,,2,,,64,41
504600,note_off,0,0,3,,,,,,,,,2,,,61,0
504600,note_off,120,0,3,,,,,,,,,2,,,54,0
504600,note_on,120,0,1,,,,,,,,,0,,,80,45
504600,note_off,0,0,3,,,,,,,,,2,,,64,0
504600,note_off,0,0,3,,,,,,,,,2,,,57,0
504600,note_on,120,0,2,,,,,,,,,1,,,68,41
504720,note_on,120,0,3,,,,,,,,,2,,,57,42
504720,note_on,0,0,3,,,,,,,,,2,,,64,42
504720,note_on,0,0,3,,,,,,,,,2,,,61,42
504720,note_on,0,0,3,,,,,,,,,2,,,54,45
504720,note_off,120,0,1,,,,,,,,,0,,,80,0
504720,note_off,120,0,2,,,,,,,,,1,,,68,0
504840,note_on,120,0,2,,,,,,,,,1,,,69,42
504840,note_on,120,0,1,,,,,,,,,0,,,81,46
504840,note_off,0,0,3,,,,,,,,,2,,,61,0
504840,note_off,120,0,3,,,,,,,,,2,,,54,0
504840,note_off,0,0,3,,,,,,,,,2,,,57,0
504840,note_off,0,0,3,,,,,,,,,2,,,64,0
504960,note_off,120,0,2,,,,,,,,,1,,,69,0
504960,note_off,120,0,1,,,,,,,,,0,,,81,0
504960,note_on,120,0,3,,,,,,,,,2,,,57,43
504960,note_on,0,0,3,,,,,,,,,2,,,64,43
504960,note_on,0,0,3,,,,,,,,,2,,,61,43
504960,note_on,0,0,3,,,,,,,,,2,,,54,46
505080,note_on,120,0,2,,,,,,,,,1,,,72,44
505080,note_off,120,0,3,,,,,,,,,2,,,54,0
505080,note_off,0,0,3,,,,,,,,,2,,,61,0
505080,note_off,0,0,3,,,,,,,,,2,,,64,0
505080,note_off,0,0,3,,,,,,,,,2,,,57,0
505080,note_on,120,0,1,,,,,,,,,0,,,84,47
505200,note_off,120,0,2,,,,,,,,,1,,,72,0
505200,note_off,120,0,1,,,,,,,,,0,,,84,0
505200,note_on,0,0,3,,,,,,,,,2,,,61,44
505200,note_on,0,0,3,,,,,,,,,2,,,64,44
505200,note_on,120,0,3,,,,,,,,,2,,,57,44
505200,note_on,0,0,3,,,,,,,,,2,,,54,47
505320,note_on,120,0,1,,,,,,,,,0,,,85,48
505320,note_on,120,0,2,,,,,,,,,1,,,73,45
505320,note_off,0,0,3,,,,,,,,,2,,,57,0
505320,note_off,0,0,3,,,,,,,,,2,,,64,0
505320,note_off,0,0,3,,,,,,,,,2,,,61,0
505320,set_tempo,1320,1,0,,,,,,1071428,,,,,,,
505320,note_off,120,0,3,,,,,,,,,2,,,54,0
505416,note_off,1416,0,4,,,,,,,,,3,,,42,0
505440,note_off,120,0,2,,,,,,,,,1,,,73,0
505440,set_tempo,120,1,0,,,,,,1034482,,,,,,,
505440,note_on,24,0,4,,,,,,,,,3,,,42,48
505440,note_off,120,0,1,,,,,,,,,0,,,85,0
505560,note_on,120,0,2,,,,,,,,,1,,,73,47
505560,note_on,120,0,1,,,,,,,,,0,,,85,49
505680,note_off,120,0,1,,,,,,,,,0,,,85,0
505680,note_on,360,0,3,,,,,,,,,2,,,57,45
505680,note_on,0,0,3,,,,,,,,,2,,,59,45
505680,note_on,0,0,3,,,,,,,,,2,,,63,45
505680,note_on,0,0,3,,,,,,,,,2,,,54,48
505680,note_off,120,0,2,,,,,,,,,1,,,73,0
505800,note_on,120,0,1,,,,,,,,,0,,,83,51
505800,note_off,0,0,3,,,,,,,,,2,,,63,0
505800,note_on,120,0,2,,,,,,,,,1,,,71,48
505800,note_off,120,0,3,,,,,,,,,2,,,54,0
505800,note_off,0,0,3,,,,,,,,,2,,,59,0
505800,note_off,0,0,3,,,,,,,,,2,,,57,0
505920,note_off,120,0,1,,,,,,,,,0,,,83,0
505920,note_on,0,0,3,,,,,,,,,2,,,54,49
505920,note_on,0,0,3,,,,,,,,,2,,,57,46
505920,note_on,0,0,3,,,,,,,,,2,,,63,46
505920,note_on,120,0,3,,,,,,,,,2,,,59,46
505920,note_off,120,0,2,,,,,,,,,1,,,71,0
506040,note_on,120,0,2,,,,,,,,,1,,,73,50
506040,note_on,120,0,1,,,,,,,,,0,,,85,52
506040,note_off,0,0,3,,,,,,,,,2,,,63,0
506040,note_off,120,0,3,,,,,,,,,2,,,54,0
506040,note_off,0,0,3,,,,,,,,,2,,,59,0
506040,note_off,0,0,3,,,,,,,,,2,,,57,0
506160,note_off,120,0,2,,,,,,,,,1,,,73,0
506160,note_off,120,0,1,,,,,,,,,0,,,85,0
506160,note_on,120,0,3,,,,,,,,,2,,,57,47
506160,note_on,0,0,3,,,,,,,,,2,,,59,47
506160,note_on,0,0,3,,,,,,,,,2,,,63,47
506160,note_on,0,0,3,,,,,,,,,2,,,54,50
506280,note_on,120,0,1,,,,,,,,,0,,,83,53
506280,note_off,0,0,3,,,,,,,,,2,,,57,0
506280,note_on,120,0,2,,,,,,,,,1,,,71,51
506280,note_off,0,0,3,,,,,,,,,2,,,59,0
506280,note_off,0,0,3,,,,,,,,,2,,,63,0
506280,note_off,120,0,3,,,,,,,,,2,,,54,0
506400,note_on,120,0,3,,,,,,,,,2,,,57,48
506400,note_on,0,0,3,,,,,,,,,2,,,59,48
506400,note_on,0,0,3,,,,,,,,,2,,,63,48
506400,note_on,0,0,3,,,,,,,,,2,,,54,53
506400,note_off,120,0,1,,,,,,,,,0,,,83,0
506400,note_off,120,0,2,,,,,,,,,1,,,71,0
506520,note_on,120,0,1,,,,,,,,,0,,,81,54
506520,note_on,120,0,2,,,,,,,,,1,,,69,53
506520,note_off,0,0,3,,,,,,,,,2,,,59,0
506520,note_off,0,0,3,,,,,,,,,2,,,63,0
506520,note_off,120,0,3,,,,,,,,,2,,,54,0
506520,note_off,0,0,3,,,,,,,,,2,,,57,0
506640,note_off,120,0,1,,,,,,,,,0,,,81,0
506640,note_on,0,0,3,,,,,,,,,2,,,59,49
506640,note_off,120,0,2,,,,,,,,,1,,,69,0
506640,note_on,120,0,3,,,,,,,,,2,,,64,49
506640,note_on,0,0,3,,,,,,,,,2,,,56,53
506760,set_tempo,1320,1,0,,,,,,1071428,,,,,,,
506760,note_on,120,0,2,,,,,,,,,1,,,68,50
506760,note_off,120,0,3,,,,,,,,,2,,,56,0
506760,note_off,0,0,3,,,,,,,,,2,,,64,0
506760,note_on,120,0,1,,,,,,,,,0,,,80,53
506760,note_off,0,0,3,,,,,,,,,2,,,59,0
506856,note_off,1416,0,4,,,,,,,,,3,,,42,0
506880,note_off,120,0,2,,,,,,,,,1,,,68,0
506880,note_on,24,0,4,,,,,,,,,3,,,49,51
506880,set_tempo,120,1,0,,,,,,1034482,,,,,,,
506880,note_off,120,0,1,,,,,,,,,0,,,80,0
507000,note_on,120,0,2,,,,,,,,,1,,,78,49
507000,note_on,120,0,1,,,,,,,,,0,,,90,51
507120,note_off,120,0,2,,,,,,,,,1,,,78,0
507120,note_on,360,0,3,,,,,,,,,2,,,61,50
507120,note_on,0,0,3,,,,,,,,,2,,,64,50
507120,note_on,0,0,3,,,,,,,,,2,,,56,50
507120,note_off,120,0,1,,,,,,,,,0,,,90,0
507240,note_off,0,0,3,,,,,,,,,2,,,61,0
507240,note_on,120,0,2,,,,,,,,,1,,,76,48
507240,note_off,120,0,3,,,,,,,,,2,,,56,0
507240,note_off,0,0,3,,,,,,,,,2,,,64,0
507240,note_on,120,0,1,,,,,,,,,0,,,88,50
507336,note_off,456,0,4,,,,,,,,,3,,,49,0
507360,note_off,120,0,1,,,,,,,,,0,,,88,0
507360,note_on,24,0,4,,,,,,,,,3,,,47,49
507360,note_off,120,0,2,,,,,,,,,1,,,76,0
507480,note_on,120,0,2,,,,,,,,,1,,,80,46
507480,note_on,120,0,1,,,,,,,,,0,,,92,49
507600,note_off,120,0,1,,,,,,,,,0,,,92,0
507600,note_on,0,0,3,,,,,,,,,2,,,56,49
507600,note_on,0,0,3,,,,,,,,,2,,,64,49
507600,note_on,360,0,3,,,,,,,,,2,,,59,49
507600,note_off,120,0,2,,,,,,,,,1,,,80,0
507720,note_on,120,0,2,,,,,,,,,1,,,68,45
507720,set_tempo,840,1,0,,,,,,1071428,,,,,,,
507720,note_off,0,0,3,,,,,,,,,2,,,59,0
507720,note_off,0,0,3,,,,,,,,,2,,,64,0
507720,note_off,120,0,3,,,,,,,,,2,,,56,0
507720,note_on,120,0,1,,,,,,,,,0,,,80,47
507816,note_off,456,0,4,,,,,,,,,3,,,47,0
507840,note_off,120,0,1,,,,,,,,,0,,,80,0
507840,note_off,120,0,2,,,,,,,,,1,,,68,0
507840,note_on,24,0,4,,,,,,,,,3,,,47,46
507960,note_on,120,0,1,,,,,,,,,0,,,83,46
507960,note_on,120,0,2,,,,,,,,,1,,,74,43
507960,note_on,0,0,2,,,,,,,,,1,,,77,43
507960,note_on,0,0,2,,,,,,,,,1,,,80,43
508080,note_off,120,0,2,,,,,,,,,1,,,80,0
508080,note_on,0,0,3,,,,,,,,,2,,,63,47
508080,note_on,0,0,3,,,,,,,,,2,,,66,47
508080,note_off,0,0,2,,,,,,,,,1,,,74,0
508080,note_off,0,0,2,,,,,,,,,1,,,77,0
508080,note_off,120,0,1,,,,,,,,,0,,,83,0
508080,note_on,360,0,3,,,,,,,,,2,,,69,47
508080,note_on,240,0,4,,,,,,,,,3,,,60,45
508200,note_off,120,0,3,,,,,,,,,2,,,63,0
508200,note_off,0,0,3,,,,,,,,,2,,,66,0
508200,note_off,0,0,3,,,,,,,,,2,,,69,0
508200,note_on,0,0,2,,,,,,,,,1,,,78,42
508200,note_on,0,0,2,,,,,,,,,1,,,75,42
508200,note_on,120,0,2,,,,,,,,,1,,,72,42
508200,set_tempo,480,1,0,,,,,,1111111,,,,,,,
508200,note_on,120,0,1,,,,,,,,,0,,,81,42
508200,note_off,120,0,4,,,,,,,,,3,,,60,0
508296,note_off,96,0,4,,,,,,,,,3,,,47,0
508320,note_off,0,0,2,,,,,,,,,1,,,72,0
508320,note_off,0,0,2,,,,,,,,,1,,,75,0
508320,note_off,120,0,2,,,,,,,,,1,,,78,0
508320,note_on,24,0,4,,,,,,,,,3,,,59,46
508320,note_off,120,0,1,,,,,,,,,0,,,81,0
508320,note_on,120,0,3,,,,,,,,,2,,,69,46
508320,note_on,0,0,3,,,,,,,,,2,,,63,46
508320,note_on,0,0,3,,,,,,,,,2,,,66,46
508440,note_on,0,0,2,,,,,,,,,1,,,71,41
508440,note_on,120,0,1,,,,,,,,,0,,,81,45
508440,note_off,0,0,3,,,,,,,,,2,,,63,0
508440,note_off,0,0,3,,,,,,,,,2,,,69,0
508440,note_on,120,0,2,,,,,,,,,1,,,75,41
508440,note_off,120,0,4,,,,,,,,,3,,,59,0
508440,note_on,0,0,2,,,,,,,,,1,,,78,41
508440,note_off,120,0,3,,,,,,,,,2,,,66,0
508560,note_on,120,0,3,,,,,,,,,2,,,69,46
508560,note_on,0,0,3,,,,,,,,,2,,,66,46
508560,note_off,0,0,2,,,,,,,,,1,,,75,0
508560,note_off,0,0,2,,,,,,,,,1,,,71,0
508560,note_off,120,0,2,,,,,,,,,1,,,78,0
508560,note_on,0,0,3,,,,,,,,,2,,,63,46
508560,note_off,120,0,1,,,,,,,,,0,,,81,0
508560,note_on,120,0,4,,,,,,,,,3,,,60,46
508680,note_on,0,0,2,,,,,,,,,1,,,78,44
508680,note_off,120,0,3,,,,,,,,,2,,,63,0
508680,note_off,0,0,3,,,,,,,,,2,,,66,0
508680,note_off,0,0,3,,,,,,,,,2,,,69,0
508680,set_tempo,480,1,0,,,,,,1176470,,,,,,,
508680,note_on,120,0,1,,,,,,,,,0,,,81,48
508680,note_off,120,0,4,,,,,,,,,3,,,60,0
508680,note_on,0,0,2,,,,,,,,,1,,,72,44
508680,note_on,120,0,2,,,,,,,,,1,,,75,44
508800,note_on,0,0,3,,,,,,,,,2,,,66,49
508800,note_off,120,0,1,,,,,,,,,0,,,81,0
508800,note_on,0,0,3,,,,,,,,,2,,,63,49
508800,note_on,120,0,4,,,,,,,,,3,,,59,49
508800,note_off,120,0,2,,,,,,,,,1,,,78,0
508800,note_off,0,0,2,,,,,,,,,1,,,75,0
508800,note_off,0,0,2,,,,,,,,,1,,,72,0
508800,note_on,120,0,3,,,,,,,,,2,,,69,49
508920,note_off,120,0,3,,,,,,,,,2,,,63,0
508920,note_off,0,0,3,,,,,,,,,2,,,66,0
508920,note_off,0,0,3,,,,,,,,,2,,,69,0
508920,note_on,120,0,2,,,,,,,,,1,,,75,47
508920,note_on,0,0,2,,,,,,,,,1,,,71,47
508920,note_on,120,0,1,,,,,,,,,0,,,81,50
508920,note_off,120,0,4,,,,,,,,,3,,,59,0
508920,note_on,0,0,2,,,,,,,,,1,,,78,47
509040,note_off,120,0,1,,,,,,,,,0,,,81,0
509040,note_on,120,0,3,,,,,,,,,2,,,57,51
509040,note_on,120,0,4,,,,,,,,,3,,,48,51
509040,note_off,120,0,2,,,,,,,,,1,,,78,0
509040,note_off,0,0,2,,,,,,,,,1,,,71,0
509040,note_off,0,0,2,,,,,,,,,1,,,75,0
509040,note_on,0,0,3,,,,,,,,,2,,,54,51
509160,note_on,0,0,2,,,,,,,,,1,,,63,45
509160,note_off,120,0,3,,,,,,,,,2,,,54,0
509160,note_off,0,0,3,,,,,,,,,2,,,57,0
509160,note_on,120,0,1,,,,,,,,,0,,,69,45
509160,set_tempo,480,1,0,,,,,,1276595,,,,,,,
509160,note_on,120,0,2,,,,,,,,,1,,,66,45
509160,note_off,120,0,4,,,,,,,,,3,,,48,0
509280,note_off,120,0,1,,,,,,,,,0,,,69,0
509280,note_on,120,0,3,,,,,,,,,2,,,47,48
509280,note_on,120,0,4,,,,,,,,,3,,,35,48
509280,note_off,120,0,2,,,,,,,,,1,,,63,0
509280,note_off,0,0,2,,,,,,,,,1,,,66,0
509400,note_off,120,0,3,,,,,,,,,2,,,47,0
509400,note_off,120,0,4,,,,,,,,,3,,,35,0
509400,note_on,120,0,1,,,,,,,,,0,,,69,43
509400,note_on,120,0,2,,,,,,,,,1,,,66,43
509400,note_on,0,0,2,,,,,,,,,1,,,63,43
509400,set_tempo,240,1,0,,,,,,1500000,,,,,,,
509520,note_off,0,0,1,,,,,,,,,0,,,69,0
509520,set_tempo,120,1,0,,,,,,2727272,,,,,,,
509520,control_change,0,0,1,,,,,,,64,127,0,,,,
509520,control_change,0,0,1,,,,,,,64,127,0,,,,
509520,note_on,120,0,3,,,,,,,,,2,,,52,44
509520,note_on,120,0,4,,,,,,,,,3,,,40,44
509520,note_off,0,0,2,,,,,,,,,1,,,66,0
509520,note_off,120,0,2,,,,,,,,,1,,,63,0
509520,control_change,120,0,1,,,,,,,64,127,0,,,,
509640,note_on,0,0,2,,,,,,,,,1,,,59,40
509640,note_on,0,0,2,,,,,,,,,1,,,64,40
509640,control_change,120,0,2,,,,,,,64,127,1,,,,
509640,note_off,120,0,4,,,,,,,,,3,,,40,0
509640,note_on,120,0,1,,,,,,,,,0,,,68,40
509640,note_off,120,0,3,,,,,,,,,2,,,52,0
509760,note_off,120,0,1,,,,,,,,,0,,,68,0
509760,note_off,120,0,2,,,,,,,,,1,,,59,0
509760,set_tempo,240,1,0,,,,,,240000,,,,,,,
509760,note_off,0,0,2,,,,,,,,,1,,,64,0
510720,control_change,0,0,1,,,,,,,64,0,0,,,,
510720,control_change,960,0,1,,,,,,,64,0,0,,,,
510720,control_change,0,0,1,,,,,,,64,0,0,,,,
510720,control_change,960,0,2,,,,,,,64,0,1,,,,
511200,time_signature,1440,1,0,2,4,24,8,,,,,,,,,
511200,set_tempo,0,1,0,,,,,,372670,,,,,,,
511200,marker,0,1,0,,,,,,,,,,,,,
511200,note_on,480,0,1,,,,,,,,,0,,,64,72
511200,note_on,1560,0,4,,,,,,,,,3,,,56,68
511320,note_on,0,0,4,,,,,,,,,3,,,59,69
511320,note_off,120,0,4,,,,,,,,,3,,,56,0
511440,note_off,240,0,1,,,,,,,,,0,,,64,0
511440,note_off,120,0,4,,,,,,,,,3,,,59,0
511440,note_on,0,0,4,,,,,,,,,3,,,57,69
511560,note_on,0,0,4,,,,,,,,,3,,,56,70
511560,note_off,120,0,4,,,,,,,,,3,,,57,0
511680,note_on,240,0,1,,,,,,,,,0,,,68,74
511680,note_on,0,0,4,,,,,,,,,3,,,52,70
511680,note_off,120,0,4,,,,,,,,,3,,,56,0
511800,note_off,120,0,4,,,,,,,,,3,,,52,0
511800,note_on,0,0,4,,,,,,,,,3,,,56,71
511920,note_off,240,0,1,,,,,,,,,0,,,68,0
511920,note_off,120,0,4,,,,,,,,,3,,,56,0
511920,note_on,0,0,4,,,,,,,,,3,,,54,72
512040,note_off,120,0,4,,,,,,,,,3,,,54,0
512040,note_on,0,0,4,,,,,,,,,3,,,52,72
512160,note_on,240,0,1,,,,,,,,,0,,,71,77
512160,note_off,120,0,4,,,,,,,,,3,,,52,0
512160,note_on,0,0,4,,,,,,,,,3,,,51,73
512280,note_off,120,0,4,,,,,,,,,3,,,51,0
512280,note_on,0,0,4,,,,,,,,,3,,,54,74
512400,note_off,120,0,4,,,,,,,,,3,,,54,0
512400,note_off,240,0,1,,,,,,,,,0,,,71,0
512400,note_on,0,0,4,,,,,,,,,3,,,52,74
512520,note_off,120,0,4,,,,,,,,,3,,,52,0
512520,note_on,0,0,4,,,,,,,,,3,,,51,75
512640,note_on,0,0,4,,,,,,,,,3,,,47,75
512640,note_on,240,0,1,,,,,,,,,0,,,75,79
512640,note_off,120,0,4,,,,,,,,,3,,,51,0
512760,note_on,0,0,4,,,,,,,,,3,,,51,76
512760,note_off,120,0,4,,,,,,,,,3,,,47,0
512880,note_off,240,0,1,,,,,,,,,0,,,75,0
512880,note_off,120,0,4,,,,,,,,,3,,,51,0
512880,note_on,0,0,4,,,,,,,,,3,,,49,77
513000,note_off,120,0,4,,,,,,,,,3,,,49,0
513000,note_on,0,0,4,,,,,,,,,3,,,47,77
513120,note_on,0,0,4,,,,,,,,,3,,,44,78
513120,note_on,240,0,1,,,,,,,,,0,,,76,82
513120,note_off,120,0,4,,,,,,,,,3,,,47,0
513240,note_off,120,0,4,,,,,,,,,3,,,44,0
513240,note_on,0,0,4,,,,,,,,,3,,,47,79
513360,note_off,120,0,4,,,,,,,,,3,,,47,0
513360,note_on,0,0,4,,,,,,,,,3,,,45,79
513360,note_off,240,0,1,,,,,,,,,0,,,76,0
513480,note_off,120,0,4,,,,,,,,,3,,,45,0
513480,note_on,0,0,4,,,,,,,,,3,,,44,80
513600,note_on,240,0,1,,,,,,,,,0,,,80,84
513600,note_off,120,0,4,,,,,,,,,3,,,44,0
513600,note_on,0,0,4,,,,,,,,,3,,,40,80
513720,note_off,120,0,4,,,,,,,,,3,,,40,0
513720,note_on,0,0,4,,,,,,,,,3,,,44,81
513840,note_off,240,0,1,,,,,,,,,0,,,80,0
513840,note_off,120,0,4,,,,,,,,,3,,,44,0
513840,note_on,0,0,4,,,,,,,,,3,,,42,82
513960,note_off,120,0,4,,,,,,,,,3,,,42,0
513960,note_on,0,0,4,,,,,,,,,3,,,40,82
513960,set_tempo,2760,1,0,,,,,,377358,,,,,,,
514080,note_off,120,0,4,,,,,,,,,3,,,40,0
514080,note_on,0,0,4,,,,,,,,,3,,,37,90
514080,note_on,240,0,1,,,,,,,,,0,,,82,93
514200,note_off,120,0,4,,,,,,,,,3,,,37,0
514200,note_on,0,0,4,,,,,,,,,3,,,40,82
514236,note_off,156,0,1,,,,,,,,,0,,,82,0
514320,note_on,0,0,4,,,,,,,,,3,,,39,81
514320,note_on,84,0,1,,,,,,,,,0,,,82,87
514320,note_off,120,0,4,,,,,,,,,3,,,40,0
514440,note_off,120,0,4,,,,,,,,,3,,,39,0
514440,note_on,0,0,4,,,,,,,,,3,,,37,79
514476,note_off,156,0,1,,,,,,,,,0,,,82,0
514560,note_on,84,0,1,,,,,,,,,0,,,83,84
514560,note_off,120,0,4,,,,,,,,,3,,,37,0
514560,note_on,0,0,4,,,,,,,,,3,,,35,77
514680,note_off,120,0,4,,,,,,,,,3,,,35,0
514680,note_on,0,0,4,,,,,,,,,3,,,37,76
514716,note_off,156,0,1,,,,,,,,,0,,,83,0
514800,note_on,0,0,4,,,,,,,,,3,,,38,74
514800,set_tempo,840,1,0,,,,,,379746,,,,,,,
514800,note_off,120,0,4,,,,,,,,,3,,,37,0
514920,note_on,0,0,4,,,,,,,,,3,,,39,72
514920,set_tempo,120,1,0,,,,,,394736,,,,,,,
514920,note_off,120,0,4,,,,,,,,,3,,,38,0
515040,set_tempo,120,1,0,,,,,,372670,,,,,,,
515040,note_off,120,0,4,,,,,,,,,3,,,39,0
515040,note_on,324,0,1,,,,,,,,,0,,,80,74
515040,note_on,0,0,4,,,,,,,,,3,,,40,74
515160,note_on,0,0,1,,,,,,,,,0,,,83,74
515160,note_off,120,0,1,,,,,,,,,0,,,80,0
515280,note_off,240,0,4,,,,,,,,,3,,,40,0
515280,note_off,120,0,1,,,,,,,,,0,,,83,0
515280,note_on,0,0,1,,,,,,,,,0,,,81,75
515400,note_on,0,0,1,,,,,,,,,0,,,80,76
515400,note_off,120,0,1,,,,,,,,,0,,,81,0
515520,note_on,240,0,4,,,,,,,,,3,,,44,76
515520,note_off,120,0,1,,,,,,,,,0,,,80,0
515520,note_on,0,0,1,,,,,,,,,0,,,76,76
515640,note_off,120,0,1,,,,,,,,,0,,,76,0
515640,note_on,0,0,1,,,,,,,,,0,,,80,77
515760,note_on,0,0,1,,,,,,,,,0,,,78,77
515760,note_off,120,0,1,,,,,,,,,0,,,80,0
515760,note_off,240,0,4,,,,,,,,,3,,,44,0
515880,note_on,0,0,1,,,,,,,,,0,,,76,78
515880,note_off,120,0,1,,,,,,,,,0,,,78,0
516000,note_off,120,0,1,,,,,,,,,0,,,76,0
516000,note_on,240,0,4,,,,,,,,,3,,,47,79
516000,note_on,0,0,1,,,,,,,,,0,,,75,78
516120,note_off,120,0,1,,,,,,,,,0,,,75,0
516120,note_on,0,0,1,,,,,,,,,0,,,78,79
516240,note_off,240,0,4,,,,,,,,,3,,,47,0
516240,note_off,120,0,1,,,,,,,,,0,,,78,0
516240,note_on,0,0,1,,,,,,,,,0,,,76,79
516360,note_on,0,0,1,,,,,,,,,0,,,75,80
516360,note_off,120,0,1,,,,,,,,,0,,,76,0
516480,note_on,0,0,1,,,,,,,,,0,,,71,80
516480,note_off,120,0,1,,,,,,,,,0,,,75,0
516480,note_on,240,0,4,,,,,,,,,3,,,51,81
516600,note_off,120,0,1,,,,,,,,,0,,,71,0
516600,note_on,0,0,1,,,,,,,,,0,,,75,81
516720,note_off,240,0,4,,,,,,,,,3,,,51,0
516720,note_on,0,0,1,,,,,,,,,0,,,73,81
516720,note_off,120,0,1,,,,,,,,,0,,,75,0
516840,note_off,120,0,1,,,,,,,,,0,,,73,0
516840,note_on,0,0,1,,,,,,,,,0,,,71,82
516960,note_on,240,0,4,,,,,,,,,3,,,52,84
516960,note_off,120,0,1,,,,,,,,,0,,,71,0
516960,note_on,0,0,1,,,,,,,,,0,,,68,83
517080,note_off,120,0,1,,,,,,,,,0,,,68,0
517080,note_on,0,0,1,,,,,,,,,0,,,71,83
517200,note_off,120,0,1,,,,,,,,,0,,,71,0
517200,note_on,0,0,1,,,,,,,,,0,,,69,84
517200,note_off,240,0,4,,,,,,,,,3,,,52,0
517320,note_off,120,0,1,,,,,,,,,0,,,69,0
517320,note_on,0,0,1,,,,,,,,,0,,,68,84
517440,note_on,240,0,4,,,,,,,,,3,,,56,86
517440,note_off,120,0,1,,,,,,,,,0,,,68,0
517440,note_on,0,0,1,,,,,,,,,0,,,64,85
517560,note_off,120,0,1,,,,,,,,,0,,,64,0
517560,note_on,0,0,1,,,,,,,,,0,,,68,85
517680,note_off,240,0,4,,,,,,,,,3,,,56,0
517680,note_off,120,0,1,,,,,,,,,0,,,68,0
517680,note_on,0,0,1,,,,,,,,,0,,,66,86
517800,note_off,120,0,1,,,,,,,,,0,,,66,0
517800,set_tempo,2760,1,0,,,,,,377358,,,,,,,
517800,note_on,0,0,1,,,,,,,,,0,,,64,86
517920,note_off,120,0,1,,,,,,,,,0,,,64,0
517920,note_on,240,0,4,,,,,,,,,3,,,58,94
517920,note_on,0,0,1,,,,,,,,,0,,,67,95
518040,note_on,0,0,1,,,,,,,,,0,,,64,86
518040,note_off,120,0,1,,,,,,,,,0,,,67,0
518076,note_off,156,0,4,,,,,,,,,3,,,58,0
518160,note_off,120,0,1,,,,,,,,,0,,,64,0
518160,note_on,0,0,1,,,,,,,,,0,,,63,84
518160,note_on,84,0,4,,,,,,,,,3,,,58,89
518280,note_off,120,0,1,,,,,,,,,0,,,63,0
518280,note_on,0,0,1,,,,,,,,,0,,,64,82
518316,note_off,156,0,4,,,,,,,,,3,,,58,0
518400,note_off,120,0,1,,,,,,,,,0,,,64,0
518400,note_on,0,0,1,,,,,,,,,0,,,63,79
518400,note_on,84,0,4,,,,,,,,,3,,,59,85
518520,note_off,120,0,1,,,,,,,,,0,,,63,0
518520,note_on,0,0,1,,,,,,,,,0,,,64,77
518556,note_off,156,0,4,,,,,,,,,3,,,59,0
518640,note_on,0,0,1,,,,,,,,,0,,,71,74
518640,set_tempo,840,1,0,,,,,,379746,,,,,,,
518640,note_off,120,0,1,,,,,,,,,0,,,64,0
518760,note_off,120,0,1,,,,,,,,,0,,,71,0
518760,note_on,0,0,1,,,,,,,,,0,,,64,72
518760,set_tempo,120,1,0,,,,,,394736,,,,,,,
518880,set_tempo,120,1,0,,,,,,372670,,,,,,,
518880,note_on,0,0,1,,,,,,,,,0,,,64,58
518880,note_off,120,0,1,,,,,,,,,0,,,64,0
518880,note_on,324,0,4,,,,,,,,,3,,,56,45
519000,note_off,120,0,1,,,,,,,,,0,,,64,0
519000,note_off,120,0,4,,,,,,,,,3,,,56,0
519000,note_on,0,0,4,,,,,,,,,3,,,59,46
519120,note_on,120,0,1,,,,,,,,,0,,,66,59
519120,note_off,120,0,4,,,,,,,,,3,,,59,0
519120,note_on,0,0,4,,,,,,,,,3,,,57,47
519240,note_off,120,0,1,,,,,,,,,0,,,66,0
519240,note_on,0,0,4,,,,,,,,,3,,,56,48
519240,note_off,120,0,4,,,,,,,,,3,,,57,0
519360,note_on,0,0,4,,,,,,,,,3,,,54,49
519360,note_off,120,0,4,,,,,,,,,3,,,56,0
519360,note_on,120,0,1,,,,,,,,,0,,,68,61
519480,note_on,0,0,4,,,,,,,,,3,,,52,49
519480,note_off,120,0,4,,,,,,,,,3,,,54,0
519480,note_off,120,0,1,,,,,,,,,0,,,68,0
519600,note_on,0,0,4,,,,,,,,,3,,,51,50
519600,note_off,120,0,4,,,,,,,,,3,,,52,0
519600,note_on,120,0,1,,,,,,,,,0,,,69,63
519720,note_on,0,0,4,,,,,,,,,3,,,52,51
519720,note_off,120,0,4,,,,,,,,,3,,,51,0
519720,note_off,120,0,1,,,,,,,,,0,,,69,0
519840,note_on,120,0,1,,,,,,,,,0,,,71,64
519840,note_on,0,0,4,,,,,,,,,3,,,51,52
519840,note_off,120,0,4,,,,,,,,,3,,,52,0
519960,note_on,0,0,4,,,,,,,,,3,,,54,52
519960,note_off,120,0,1,,,,,,,,,0,,,71,0
519960,note_off,120,0,4,,,,,,,,,3,,,51,0
520080,note_on,0,0,4,,,,,,,,,3,,,52,53
520080,note_off,120,0,4,,,,,,,,,3,,,54,0
520080,note_on,120,0,1,,,,,,,,,0,,,73,66
520200,note_off,120,0,4,,,,,,,,,3,,,52,0
520200,note_on,0,0,4,,,,,,,,,3,,,51,54
520200,note_off,120,0,1,,,,,,,,,0,,,73,0
520320,note_on,120,0,1,,,,,,,,,0,,,74,67
520320,note_on,0,0,4,,,,,,,,,3,,,49,55
520320,note_off,120,0,4,,,,,,,,,3,,,51,0
520440,note_off,120,0,1,,,,,,,,,0,,,74,0
520440,note_off,120,0,4,,,,,,,,,3,,,49,0
520440,note_on,0,0,4,,,,,,,,,3,,,47,56
520560,note_on,120,0,1,,,,,,,,,0,,,75,69
520560,note_on,0,0,4,,,,,,,,,3,,,46,56
520560,note_off,120,0,4,,,,,,,,,3,,,47,0
520680,note_on,0,0,4,,,,,,,,,3,,,45,57
520680,note_off,120,0,4,,,,,,,,,3,,,46,0
520680,note_off,120,0,1,,,,,,,,,0,,,75,0
520800,note_on,0,0,4,,,,,,,,,3,,,44,58
520800,note_off,120,0,4,,,,,,,,,3,,,45,0
520800,note_on,120,0,1,,,,,,,,,0,,,76,70
520920,note_on,0,0,4,,,,,,,,,3,,,47,59
520920,note_off,120,0,4,,,,,,,,,3,,,44,0
520920,note_off,120,0,1,,,,,,,,,0,,,76,0
521040,note_on,0,0,4,,,,,,,,,3,,,45,59
521040,note_on,120,0,1,,,,,,,,,0,,,78,72
521040,note_off,120,0,4,,,,,,,,,3,,,47,0
521160,note_off,120,0,1,,,,,,,,,0,,,78,0
521160,note_on,0,0,4,,,,,,,,,3,,,44,60
521160,note_off,120,0,4,,,,,,,,,3,,,45,0
521280,note_on,120,0,1,,,,,,,,,0,,,79,74
521280,note_on,0,0,4,,,,,,,,,3,,,42,61
521280,note_off,120,0,4,,,,,,,,,3,,,44,0
521400,note_off,120,0,1,,,,,,,,,0,,,79,0
521400,note_off,120,0,4,,,,,,,,,3,,,42,0
521400,note_on,0,0,4,,,,,,,,,3,,,40,62
521520,note_off,120,0,4,,,,,,,,,3,,,40,0
521520,note_on,0,0,4,,,,,,,,,3,,,39,62
521520,note_on,120,0,1,,,,,,,,,0,,,80,75
521640,set_tempo,2760,1,0,,,,,,377358,,,,,,,
521640,note_off,120,0,1,,,,,,,,,0,,,80,0
521640,note_off,120,0,4,,,,,,,,,3,,,39,0
521640,note_on,0,0,4,,,,,,,,,3,,,40,63
521760,note_off,120,0,4,,,,,,,,,3,,,40,0
521760,note_on,0,0,4,,,,,,,,,3,,,39,77
521760,note_on,120,0,1,,,,,,,,,0,,,81,84
521880,note_off,120,0,4,,,,,,,,,3,,,39,0
521880,note_on,0,0,4,,,,,,,,,3,,,37,72
521880,note_off,120,0,1,,,,,,,,,0,,,81,0
522000,note_on,120,0,1,,,,,,,,,0,,,82,80
522000,note_on,0,0,4,,,,,,,,,3,,,42,70
522000,note_off,120,0,4,,,,,,,,,3,,,37,0
522120,note_off,120,0,1,,,,,,,,,0,,,82,0
522120,note_on,0,0,4,,,,,,,,,3,,,40,69
522120,note_off,120,0,4,,,,,,,,,3,,,42,0
522240,note_off,120,0,4,,,,,,,,,3,,,40,0
522240,note_on,120,0,1,,,,,,,,,0,,,83,77
522240,note_on,0,0,4,,,,,,,,,3,,,39,68
522360,note_off,120,0,4,,,,,,,,,3,,,39,0
522360,note_on,0,0,4,,,,,,,,,3,,,35,67
522360,note_off,120,0,1,,,,,,,,,0,,,83,0
522480,note_on,120,0,1,,,,,,,,,0,,,81,74
522480,note_off,120,0,4,,,,,,,,,3,,,35,0
522480,note_on,0,0,4,,,,,,,,,3,,,37,66
522600,note_off,120,0,4,,,,,,,,,3,,,37,0
522600,note_on,0,0,4,,,,,,,,,3,,,39,64
522600,set_tempo,960,1,0,,,,,,384615,,,,,,,
522600,note_off,120,0,1,,,,,,,,,0,,,81,0
522720,note_off,120,0,4,,,,,,,,,3,,,39,0
522720,note_on,0,0,4,,,,,,,,,3,,,40,56
522720,set_tempo,120,1,0,,,,,,372670,,,,,,,
522720,note_on,120,0,1,,,,,,,,,0,,,80,44
522840,note_off,120,0,4,,,,,,,,,3,,,40,0
522840,note_off,120,0,1,,,,,,,,,0,,,80,0
522840,note_on,0,0,1,,,,,,,,,0,,,83,45
522960,note_off,120,0,1,,,,,,,,,0,,,83,0
522960,note_on,0,0,1,,,,,,,,,0,,,81,46
522960,note_on,120,0,4,,,,,,,,,3,,,42,57
523080,note_off,120,0,1,,,,,,,,,0,,,81,0
523080,note_off,120,0,4,,,,,,,,,3,,,42,0
523080,note_on,0,0,1,,,,,,,,,0,,,80,47
523200,note_off,120,0,1,,,,,,,,,0,,,80,0
523200,note_on,0,0,1,,,,,,,,,0,,,78,48
523200,note_on,120,0,4,,,,,,,,,3,,,44,59
523320,note_off,120,0,1,,,,,,,,,0,,,78,0
523320,note_on,0,0,1,,,,,,,,,0,,,76,48
523320,note_off,120,0,4,,,,,,,,,3,,,44,0
523440,note_on,120,0,4,,,,,,,,,3,,,45,60
523440,note_off,120,0,1,,,,,,,,,0,,,76,0
523440,note_on,0,0,1,,,,,,,,,0,,,75,49
523560,note_off,120,0,1,,,,,,,,,0,,,75,0
523560,note_on,0,0,1,,,,,,,,,0,,,76,50
523560,note_off,120,0,4,,,,,,,,,3,,,45,0
523680,note_off,120,0,1,,,,,,,,,0,,,76,0
523680,note_on,120,0,4,,,,,,,,,3,,,47,61
523680,note_on,0,0,1,,,,,,,,,0,,,75,51
523800,note_off,120,0,1,,,,,,,,,0,,,75,0
523800,note_on,0,0,1,,,,,,,,,0,,,78,52
523800,note_off,120,0,4,,,,,,,,,3,,,47,0
523920,note_off,120,0,1,,,,,,,,,0,,,78,0
523920,note_on,0,0,1,,,,,,,,,0,,,76,52
523920,note_on,120,0,4,,,,,,,,,3,,,49,63
524040,note_off,120,0,1,,,,,,,,,0,,,76,0
524040,note_on,0,0,1,,,,,,,,,0,,,75,53
524040,note_off,120,0,4,,,,,,,,,3,,,49,0
524160,note_off,120,0,1,,,,,,,,,0,,,75,0
524160,note_on,0,0,1,,,,,,,,,0,,,73,54
524160,note_on,120,0,4,,,,,,,,,3,,,50,64
524280,note_off,120,0,4,,,,,,,,,3,,,50,0
524280,note_on,0,0,1,,,,,,,,,0,,,71,55
524280,note_off,120,0,1,,,,,,,,,0,,,73,0
524400,note_on,0,0,1,,,,,,,,,0,,,70,56
524400,note_off,120,0,1,,,,,,,,,0,,,71,0
524400,note_on,120,0,4,,,,,,,,,3,,,51,65
524520,note_on,0,0,1,,,,,,,,,0,,,69,56
524520,note_off,120,0,4,,,,,,,,,3,,,51,0
524520,note_off,120,0,1,,,,,,,,,0,,,70,0
524640,note_on,120,0,4,,,,,,,,,3,,,52,67
524640,note_off,120,0,1,,,,,,,,,0,,,69,0
524640,note_on,0,0,1,,,,,,,,,0,,,68,57
524760,note_off,120,0,4,,,,,,,,,3,,,52,0
524760,note_off,120,0,1,,,,,,,,,0,,,68,0
524760,note_on,0,0,1,,,,,,,,,0,,,71,58
524880,note_on,120,0,4,,,,,,,,,3,,,54,68
524880,note_off,120,0,1,,,,,,,,,0,,,71,0
524880,note_on,0,0,1,,,,,,,,,0,,,69,59
525000,note_on,0,0,1,,,,,,,,,0,,,68,60
525000,note_off,120,0,1,,,,,,,,,0,,,69,0
525000,note_off,120,0,4,,,,,,,,,3,,,54,0
525120,note_off,120,0,1,,,,,,,,,0,,,68,0
525120,note_on,0,0,1,,,,,,,,,0,,,66,61
525120,note_on,120,0,4,,,,,,,,,3,,,56,69
525240,note_off,120,0,1,,,,,,,,,0,,,66,0
525240,note_on,0,0,1,,,,,,,,,0,,,64,61
525240,note_off,120,0,4,,,,,,,,,3,,,56,0
525360,note_off,120,0,1,,,,,,,,,0,,,64,0
525360,note_on,0,0,1,,,,,,,,,0,,,63,62
525360,note_on,120,0,4,,,,,,,,,3,,,57,71
525480,note_off,120,0,1,,,,,,,,,0,,,63,0
525480,note_on,0,0,1,,,,,,,,,0,,,64,63
525480,note_off,120,0,4,,,,,,,,,3,,,57,0
525480,set_tempo,2760,1,0,,,,,,377358,,,,,,,
525600,note_on,120,0,4,,,,,,,,,3,,,58,83
525600,note_off,120,0,1,,,,,,,,,0,,,64,0
525600,note_on,0,0,1,,,,,,,,,0,,,67,80
525720,note_off,120,0,4,,,,,,,,,3,,,58,0
525720,note_off,120,0,1,,,,,,,,,0,,,67,0
525720,note_on,15000,0,2,,,,,,,,,1,,,64,70
525840,note_on,120,0,4,,,,,,,,,3,,,59,79
525840,note_on,120,0,1,,,,,,,,,0,,,67,68
525840,note_off,120,0,2,,,,,,,,,1,,,64,0
525960,note_off,120,0,1,,,,,,,,,0,,,67,0
525960,note_off,120,0,4,,,,,,,,,3,,,59,0
525960,note_on,120,0,2,,,,,,,,,1,,,64,66
526080,note_off,120,0,2,,,,,,,,,1,,,64,0
526080,note_on,120,0,1,,,,,,,,,0,,,70,64
526080,note_on,120,0,4,,,,,,,,,3,,,60,76
526200,note_on,120,0,2,,,,,,,,,1,,,64,62
526200,note_off,120,0,1,,,,,,,,,0,,,70,0
526200,note_off,120,0,4,,,,,,,,,3,,,60,0
526320,note_on,120,0,1,,,,,,,,,0,,,71,60
526320,note_on,120,0,4,,,,,,,,,3,,,59,72
526320,note_off,120,0,2,,,,,,,,,1,,,64,0
526440,note_on,120,0,2,,,,,,,,,1,,,63,58
526440,note_off,120,0,4,,,,,,,,,3,,,59,0
526440,set_tempo,960,1,0,,,,,,384615,,,,,,,
526440,note_off,120,0,1,,,,,,,,,0,,,71,0
526560,note_on,120,0,4,,,,,,,,,3,,,56,52
526560,set_tempo,120,1,0,,,,,,372670,,,,,,,
526560,note_on,120,0,1,,,,,,,,,0,,,71,60
526560,note_off,120,0,2,,,,,,,,,1,,,63,0
526680,note_on,0,0,4,,,,,,,,,3,,,59,52
526680,note_off,120,0,4,,,,,,,,,3,,,56,0
526680,note_off,120,0,1,,,,,,,,,0,,,71,0
526800,note_off,120,0,4,,,,,,,,,3,,,59,0
526800,note_on,0,0,4,,,,,,,,,3,,,57,52
526800,note_on,120,0,1,,,,,,,,,0,,,71,60
526920,note_off,120,0,1,,,,,,,,,0,,,71,0
526920,note_on,0,0,4,,,,,,,,,3,,,56,53
526920,note_off,120,0,4,,,,,,,,,3,,,57,0
527040,note_off,120,0,4,,,,,,,,,3,,,56,0
527040,note_on,0,0,4,,,,,,,,,3,,,54,53
527040,note_on,120,0,1,,,,,,,,,0,,,71,61
527160,note_on,0,0,4,,,,,,,,,3,,,53,53
527160,note_off,120,0,1,,,,,,,,,0,,,71,0
527160,note_off,120,0,4,,,,,,,,,3,,,54,0
527280,note_off,120,0,4,,,,,,,,,3,,,53,0
527280,note_on,0,0,4,,,,,,,,,3,,,51,53
527280,note_on,120,0,1,,,,,,,,,0,,,73,62
527400,note_off,120,0,4,,,,,,,,,3,,,51,0
527400,note_on,0,0,4,,,,,,,,,3,,,53,54
527400,note_off,120,0,1,,,,,,,,,0,,,73,0
527520,note_on,0,0,4,,,,,,,,,3,,,54,54
527520,note_on,120,0,1,,,,,,,,,0,,,71,62
527520,note_off,120,0,4,,,,,,,,,3,,,53,0
527640,note_off,120,0,1,,,,,,,,,0,,,71,0
527640,note_off,120,0,4,,,,,,,,,3,,,54,0
527640,note_on,0,0,4,,,,,,,,,3,,,57,54
527760,note_on,120,0,1,,,,,,,,,0,,,69,63
527760,note_off,120,0,4,,,,,,,,,3,,,57,0
527760,note_on,0,0,4,,,,,,,,,3,,,56,55
527880,note_off,120,0,4,,,,,,,,,3,,,56,0
527880,note_on,0,0,4,,,,,,,,,3,,,54,55
527880,note_off,120,0,1,,,,,,,,,0,,,69,0
528000,note_off,120,0,4,,,,,,,,,3,,,54,0
528000,note_on,120,0,1,,,,,,,,,0,,,69,64
528000,note_on,0,0,4,,,,,,,,,3,,,52,55
528120,note_off,120,0,4,,,,,,,,,3,,,52,0
528120,note_on,0,0,4,,,,,,,,,3,,,51,55
528120,note_off,120,0,1,,,,,,,,,0,,,69,0
528240,note_on,0,0,4,,,,,,,,,3,,,49,56
528240,note_on,120,0,1,,,,,,,,,0,,,71,64
528240,note_off,120,0,4,,,,,,,,,3,,,51,0
528360,note_off,120,0,1,,,,,,,,,0,,,71,0
528360,note_off,120,0,4,,,,,,,,,3,,,49,0
528360,note_on,0,0,4,,,,,,,,,3,,,51,56
528480,note_on,0,0,4,,,,,,,,,3,,,52,56
528480,note_off,120,0,4,,,,,,,,,3,,,51,0
528480,note_on,120,0,1,,,,,,,,,0,,,69,65
528600,note_off,120,0,4,,,,,,,,,3,,,52,0
528600,note_on,0,0,4,,,,,,,,,3,,,56,56
528600,note_off,120,0,1,,,,,,,,,0,,,69,0
528720,note_on,120,0,1,,,,,,,,,0,,,68,66
528720,note_off,120,0,4,,,,,,,,,3,,,56,0
528720,note_on,0,0,4,,,,,,,,,3,,,54,57
528840,note_on,0,0,4,,,,,,,,,3,,,52,57
528840,note_off,120,0,1,,,,,,,,,0,,,68,0
528840,note_off,120,0,4,,,,,,,,,3,,,54,0
528960,note_on,0,0,4,,,,,,,,,3,,,51,57
528960,note_off,120,0,4,,,,,,,,,3,,,52,0
528960,note_on,120,0,1,,,,,,,,,0,,,68,66
529080,note_on,0,0,4,,,,,,,,,3,,,49,58
529080,note_off,120,0,1,,,,,,,,,0,,,68,0
529080,note_off,120,0,4,,,,,,,,,3,,,51,0
529200,note_off,120,0,4,,,,,,,,,3,,,49,0
529200,note_on,0,0,4,,,,,,,,,3,,,48,58
529200,note_on,120,0,1,,,,,,,,,0,,,70,67
529320,note_off,120,0,4,,,,,,,,,3,,,48,0
529320,note_on,0,0,4,,,,,,,,,3,,,49,58
529320,note_off,120,0,1,,,,,,,,,0,,,70,0
529440,note_off,120,0,4,,,,,,,,,3,,,49,0
529440,note_on,120,0,1,,,,,,,,,0,,,68,67
529440,note_on,0,0,4,,,,,,,,,3,,,51,58
529560,note_on,0,0,4,,,,,,,,,3,,,49,59
529560,note_off,120,0,4,,,,,,,,,3,,,51,0
529560,note_off,120,0,1,,,,,,,,,0,,,68,0
529680,note_off,120,0,4,,,,,,,,,3,,,49,0
529680,note_on,120,0,1,,,,,,,,,0,,,67,69
529680,note_on,0,0,4,,,,,,,,,3,,,47,59
529800,note_off,120,0,1,,,,,,,,,0,,,67,0
529800,note_on,0,0,4,,,,,,,,,3,,,46,59
529800,note_off,120,0,4,,,,,,,,,3,,,47,0
529920,note_on,120,0,1,,,,,,,,,0,,,68,73
529920,note_on,0,0,4,,,,,,,,,3,,,44,62
529920,note_off,120,0,4,,,,,,,,,3,,,46,0
530040,note_on,0,0,4,,,,,,,,,3,,,42,66
530040,note_off,120,0,4,,,,,,,,,3,,,44,0
530040,note_off,120,0,1,,,,,,,,,0,,,68,0
530160,set_tempo,3600,1,0,,,,,,377358,,,,,,,
530160,note_off,120,0,4,,,,,,,,,3,,,42,0
530160,note_on,0,0,4,,,,,,,,,3,,,40,69
530160,note_on,120,0,1,,,,,,,,,0,,,71,78
530160,note_on,0,0,2,,,,,,,,,1,,,68,78
530160,note_on,3600,0,2,,,,,,,,,1,,,59,78
530280,set_tempo,120,1,0,,,,,,402684,,,,,,,
530280,note_off,120,0,4,,,,,,,,,3,,,40,0
530280,note_on,0,0,4,,,,,,,,,3,,,38,73
530400,note_off,120,0,4,,,,,,,,,3,,,38,0
530400,note_on,0,0,4,,,,,,,,,3,,,37,79
530520,note_off,360,0,2,,,,,,,,,1,,,68,0
530520,note_off,0,0,2,,,,,,,,,1,,,59,0
530520,note_off,120,0,4,,,,,,,,,3,,,37,0
530520,set_tempo,240,1,0,,,,,,372670,,,,,,,
530520,note_on,0,0,1,,,,,,,,,0,,,69,74
530520,note_off,360,0,1,,,,,,,,,0,,,71,0
530640,note_off,120,0,1,,,,,,,,,0,,,69,0
530640,note_on,120,0,4,,,,,,,,,3,,,45,77
530640,note_on,0,0,4,,,,,,,,,3,,,57,77
530640,note_on,0,0,1,,,,,,,,,0,,,73,73
530760,note_off,0,0,4,,,,,,,,,3,,,45,0
530760,note_on,0,0,1,,,,,,,,,0,,,71,72
530760,note_off,120,0,1,,,,,,,,,0,,,73,0
530760,note_off,120,0,4,,,,,,,,,3,,,57,0
530880,note_on,0,0,1,,,,,,,,,0,,,69,72
530880,note_off,120,0,1,,,,,,,,,0,,,71,0
530880,note_on,120,0,4,,,,,,,,,3,,,57,74
530880,note_on,0,0,4,,,,,,,,,3,,,45,74
531000,note_on,0,0,1,,,,,,,,,0,,,68,71
531000,note_off,120,0,4,,,,,,,,,3,,,45,0
531000,note_off,120,0,1,,,,,,,,,0,,,69,0
531000,note_off,0,0,4,,,,,,,,,3,,,57,0
531120,note_on,0,0,1,,,,,,,,,0,,,66,70
531120,note_on,0,0,4,,,,,,,,,3,,,59,72
531120,note_off,120,0,1,,,,,,,,,0,,,68,0
531120,note_on,120,0,4,,,,,,,,,3,,,47,72
531240,note_off,120,0,1,,,,,,,,,0,,,66,0
531240,note_on,0,0,1,,,,,,,,,0,,,64,70
531240,note_off,0,0,4,,,,,,,,,3,,,47,0
531240,note_off,120,0,4,,,,,,,,,3,,,59,0
531360,note_on,120,0,4,,,,,,,,,3,,,49,70
531360,note_off,120,0,1,,,,,,,,,0,,,64,0
531360,note_on,0,0,1,,,,,,,,,0,,,63,69
531360,note_on,0,0,4,,,,,,,,,3,,,61,70
531480,note_off,120,0,1,,,,,,,,,0,,,63,0
531480,note_on,0,0,1,,,,,,,,,0,,,59,68
531480,note_off,0,0,4,,,,,,,,,3,,,49,0
531480,note_off,120,0,4,,,,,,,,,3,,,61,0
531600,note_off,120,0,1,,,,,,,,,0,,,59,0
531600,note_on,120,0,4,,,,,,,,,3,,,47,68
531600,note_on,0,0,4,,,,,,,,,3,,,59,68
531600,note_on,0,0,1,,,,,,,,,0,,,61,67
531720,note_off,120,0,4,,,,,,,,,3,,,59,0
531720,note_on,0,0,1,,,,,,,,,0,,,63,67
531720,note_off,120,0,1,,,,,,,,,0,,,61,0
531720,note_off,0,0,4,,,,,,,,,3,,,47,0
531840,note_on,0,0,1,,,,,,,,,0,,,64,66
531840,note_off,120,0,1,,,,,,,,,0,,,63,0
531840,note_on,0,0,4,,,,,,,,,3,,,45,66
531840,note_on,120,0,4,,,,,,,,,3,,,57,66
531960,note_off,0,0,4,,,,,,,,,3,,,57,0
531960,note_off,120,0,1,,,,,,,,,0,,,64,0
531960,note_on,0,0,1,,,,,,,,,0,,,66,65
531960,note_off,120,0,4,,,,,,,,,3,,,45,0
532080,note_off,120,0,1,,,,,,,,,0,,,66,0
532080,note_on,0,0,1,,,,,,,,,0,,,68,64
532080,note_on,120,0,4,,,,,,,,,3,,,44,63
532080,note_on,0,0,4,,,,,,,,,3,,,56,63
532200,note_off,120,0,1,,,,,,,,,0,,,68,0
532200,note_on,0,0,1,,,,,,,,,0,,,69,64
532200,note_off,0,0,4,,,,,,,,,3,,,44,0
532200,note_off,120,0,4,,,,,,,,,3,,,56,0
532320,note_off,120,0,1,,,,,,,,,0,,,69,0
532320,note_on,120,0,4,,,,,,,,,3,,,44,61
532320,note_on,0,0,1,,,,,,,,,0,,,71,63
532320,note_on,0,0,4,,,,,,,,,3,,,56,61
532440,note_off,120,0,4,,,,,,,,,3,,,56,0
532440,note_off,120,0,1,,,,,,,,,0,,,71,0
532440,note_on,0,0,1,,,,,,,,,0,,,70,62
532440,note_off,0,0,4,,,,,,,,,3,,,44,0
532560,note_on,0,0,4,,,,,,,,,3,,,54,59
532560,note_on,120,0,4,,,,,,,,,3,,,42,59
532560,note_off,120,0,1,,,,,,,,,0,,,70,0
532560,note_on,0,0,1,,,,,,,,,0,,,71,62
532680,note_off,120,0,4,,,,,,,,,3,,,54,0
532680,note_off,0,0,4,,,,,,,,,3,,,42,0
532680,note_on,0,0,1,,,,,,,,,0,,,73,61
532680,note_off,120,0,1,,,,,,,,,0,,,71,0
532800,note_on,0,0,4,,,,,,,,,3,,,54,57
532800,note_on,120,0,4,,,,,,,,,3,,,42,57
532800,note_on,0,0,1,,,,,,,,,0,,,75,60
532800,note_off,120,0,1,,,,,,,,,0,,,73,0
532920,note_off,120,0,1,,,,,,,,,0,,,75,0
532920,note_off,120,0,4,,,,,,,,,3,,,54,0
532920,note_on,0,0,1,,,,,,,,,0,,,76,59
532920,note_off,0,0,4,,,,,,,,,3,,,42,0
533040,note_off,120,0,1,,,,,,,,,0,,,76,0
533040,note_on,0,0,1,,,,,,,,,0,,,78,59
533040,note_on,120,0,4,,,,,,,,,3,,,44,55
533040,note_on,0,0,4,,,,,,,,,3,,,56,55
533160,note_off,120,0,1,,,,,,,,,0,,,78,0
533160,note_on,0,0,1,,,,,,,,,0,,,76,58
533160,note_off,0,0,4,,,,,,,,,3,,,44,0
533160,note_off,120,0,4,,,,,,,,,3,,,56,0
533280,note_on,0,0,4,,,,,,,,,3,,,45,52
533280,note_off,120,0,1,,,,,,,,,0,,,76,0
533280,note_on,0,0,1,,,,,,,,,0,,,75,57
533280,note_on,120,0,4,,,,,,,,,3,,,57,52
533400,note_on,0,0,1,,,,,,,,,0,,,71,56
533400,note_off,0,0,4,,,,,,,,,3,,,57,0
533400,note_off,120,0,1,,,,,,,,,0,,,75,0
533400,note_off,120,0,4,,,,,,,,,3,,,45,0
533520,note_on,0,0,4,,,,,,,,,3,,,59,50
533520,note_off,120,0,1,,,,,,,,,0,,,71,0
533520,note_on,0,0,1,,,,,,,,,0,,,73,56
533520,note_on,120,0,4,,,,,,,,,3,,,47,50
533640,note_off,120,0,4,,,,,,,,,3,,,59,0
533640,note_on,0,0,1,,,,,,,,,0,,,75,55
533640,note_off,0,0,4,,,,,,,,,3,,,47,0
533640,note_off,120,0,1,,,,,,,,,0,,,73,0
533760,note_off,120,0,1,,,,,,,,,0,,,75,0
533760,note_on,0,0,1,,,,,,,,,0,,,76,54
533760,note_on,0,0,4,,,,,,,,,3,,,56,48
533760,note_on,120,0,4,,,,,,,,,3,,,44,48
533880,note_off,120,0,1,,,,,,,,,0,,,76,0
533880,note_on,0,0,1,,,,,,,,,0,,,75,53
533880,note_off,0,0,4,,,,,,,,,3,,,44,0
533880,note_off,120,0,4,,,,,,,,,3,,,56,0
534000,note_on,120,0,4,,,,,,,,,3,,,59,58
534000,note_on,0,0,1,,,,,,,,,0,,,76,53
534000,note_on,0,0,4,,,,,,,,,3,,,71,58
534000,note_off,120,0,1,,,,,,,,,0,,,75,0
534120,note_off,0,0,4,,,,,,,,,3,,,59,0
534120,note_off,120,0,4,,,,,,,,,3,,,71,0
534120,note_on,0,0,1,,,,,,,,,0,,,78,52
534120,set_tempo,3600,1,0,,,,,,377358,,,,,,,
534120,note_off,120,0,1,,,,,,,,,0,,,76,0
534240,note_on,0,0,4,,,,,,,,,3,,,71,58
534240,note_on,120,0,4,,,,,,,,,3,,,59,58
534240,note_on,0,0,1,,,,,,,,,0,,,80,50
534240,note_off,120,0,1,,,,,,,,,0,,,78,0
534240,set_tempo,120,1,0,,,,,,372670,,,,,,,
534360,note_off,0,0,4,,,,,,,,,3,,,59,0
534360,note_off,120,0,1,,,,,,,,,0,,,80,0
534360,note_on,0,0,1,,,,,,,,,0,,,83,50
534360,note_off,120,0,4,,,,,,,,,3,,,71,0
534480,note_on,0,0,4,,,,,,,,,3,,,71,59
534480,note_off,120,0,1,,,,,,,,,0,,,83,0
534480,note_on,0,0,1,,,,,,,,,0,,,81,51
534480,note_on,120,0,4,,,,,,,,,3,,,59,59
534600,note_off,120,0,1,,,,,,,,,0,,,81,0
534600,note_off,120,0,4,,,,,,,,,3,,,71,0
534600,note_off,0,0,4,,,,,,,,,3,,,59,0
534600,note_on,0,0,1,,,,,,,,,0,,,80,51
534720,note_off,120,0,1,,,,,,,,,0,,,80,0
534720,note_on,0,0,1,,,,,,,,,0,,,78,51
534720,note_on,0,0,4,,,,,,,,,3,,,71,60
534720,note_on,120,0,4,,,,,,,,,3,,,59,60
534840,note_off,0,0,4,,,,,,,,,3,,,59,0
534840,note_off,120,0,1,,,,,,,,,0,,,78,0
534840,note_on,0,0,1,,,,,,,,,0,,,77,52
534840,note_off,120,0,4,,,,,,,,,3,,,71,0
534960,note_on,120,0,4,,,,,,,,,3,,,73,60
534960,note_off,120,0,1,,,,,,,,,0,,,77,0
534960,note_on,0,0,1,,,,,,,,,0,,,75,52
534960,note_on,0,0,4,,,,,,,,,3,,,61,60
535080,note_on,0,0,1,,,,,,,,,0,,,77,53
535080,note_off,120,0,1,,,,,,,,,0,,,75,0
535080,note_off,120,0,4,,,,,,,,,3,,,61,0
535080,note_off,0,0,4,,,,,,,,,3,,,73,0
535200,note_on,120,0,4,,,,,,,,,3,,,59,61
535200,note_on,0,0,4,,,,,,,,,3,,,71,61
535200,note_off,120,0,1,,,,,,,,,0,,,77,0
535200,note_on,0,0,1,,,,,,,,,0,,,78,53
535320,note_off,120,0,1,,,,,,,,,0,,,78,0
535320,note_off,120,0,4,,,,,,,,,3,,,71,0
535320,note_off,0,0,4,,,,,,,,,3,,,59,0
535320,note_on,0,0,1,,,,,,,,,0,,,81,54
535440,note_on,0,0,4,,,,,,,,,3,,,69,61
535440,note_on,120,0,4,,,,,,,,,3,,,57,61
535440,note_off,120,0,1,,,,,,,,,0,,,81,0
535440,note_on,0,0,1,,,,,,,,,0,,,80,54
535560,note_off,0,0,4,,,,,,,,,3,,,57,0
535560,note_off,120,0,4,,,,,,,,,3,,,69,0
535560,note_off,120,0,1,,,,,,,,,0,,,80,0
535560,note_on,0,0,1,,,,,,,,,0,,,78,55
535680,note_off,120,0,1,,,,,,,,,0,,,78,0
535680,note_on,0,0,1,,,,,,,,,0,,,76,55
535680,note_on,120,0,4,,,,,,,,,3,,,57,62
535680,note_on,0,0,4,,,,,,,,,3,,,69,62
535800,note_off,120,0,4,,,,,,,,,3,,,69,0
535800,note_off,120,0,1,,,,,,,,,0,,,76,0
535800,note_on,0,0,1,,,,,,,,,0,,,75,55
535800,note_off,0,0,4,,,,,,,,,3,,,57,0
535920,note_on,120,0,4,,,,,,,,,3,,,59,63
535920,note_on,0,0,4,,,,,,,,,3,,,71,63
535920,note_off,120,0,1,,,,,,,,,0,,,75,0
535920,note_on,0,0,1,,,,,,,,,0,,,73,56
536040,note_off,120,0,1,,,,,,,,,0,,,73,0
536040,note_on,0,0,1,,,,,,,,,0,,,75,56
536040,note_off,120,0,4,,,,,,,,,3,,,71,0
536040,note_off,0,0,4,,,,,,,,,3,,,59,0
536160,note_on,120,0,4,,,,,,,,,3,,,57,63
536160,note_on,0,0,4,,,,,,,,,3,,,69,63
536160,note_on,0,0,1,,,,,,,,,0,,,76,57
536160,note_off,120,0,1,,,,,,,,,0,,,75,0
536280,note_on,0,0,1,,,,,,,,,0,,,80,57
536280,note_off,120,0,4,,,,,,,,,3,,,69,0
536280,note_off,0,0,4,,,,,,,,,3,,,57,0
536280,note_off,120,0,1,,,,,,,,,0,,,76,0
536400,note_on,0,0,1,,,,,,,,,0,,,78,58
536400,note_off,120,0,1,,,,,,,,,0,,,80,0
536400,note_on,120,0,4,,,,,,,,,3,,,56,64
536400,note_on,0,0,4,,,,,,,,,3,,,68,64
536520,note_off,120,0,1,,,,,,,,,0,,,78,0
536520,note_on,0,0,1,,,,,,,,,0,,,76,58
536520,note_off,0,0,4,,,,,,,,,3,,,56,0
536520,note_off,120,0,4,,,,,,,,,3,,,68,0
536640,note_on,0,0,4,,,,,,,,,3,,,68,64
536640,note_on,120,0,4,,,,,,,,,3,,,56,64
536640,note_off,120,0,1,,,,,,,,,0,,,76,0
536640,note_on,0,0,1,,,,,,,,,0,,,75,59
536760,note_off,120,0,1,,,,,,,,,0,,,75,0
536760,note_on,0,0,1,,,,,,,,,0,,,73,59
536760,note_off,120,0,4,,,,,,,,,3,,,68,0
536760,note_off,0,0,4,,,,,,,,,3,,,56,0
536880,note_on,0,0,1,,,,,,,,,0,,,72,59
536880,note_off,120,0,1,,,,,,,,,0,,,73,0
536880,note_on,0,0,4,,,,,,,,,3,,,69,65
536880,note_on,120,0,4,,,,,,,,,3,,,57,65
537000,note_off,0,0,4,,,,,,,,,3,,,57,0
537000,note_off,120,0,1,,,,,,,,,0,,,72,0
537000,note_on,0,0,1,,,,,,,,,0,,,73,60
537000,note_off,120,0,4,,,,,,,,,3,,,69,0
537120,note_on,120,0,4,,,,,,,,,3,,,56,65
537120,note_on,0,0,4,,,,,,,,,3,,,68,65
537120,note_off,120,0,1,,,,,,,,,0,,,73,0
537120,note_on,0,0,1,,,,,,,,,0,,,75,60
537240,note_off,120,0,1,,,,,,,,,0,,,75,0
537240,note_off,120,0,4,,,,,,,,,3,,,68,0
537240,note_off,0,0,4,,,,,,,,,3,,,56,0
537240,note_on,0,0,1,,,,,,,,,0,,,70,61
537360,note_on,0,0,4,,,,,,,,,3,,,67,70
537360,note_on,0,0,1,,,,,,,,,0,,,75,61
537360,note_on,120,0,4,,,,,,,,,3,,,55,70
537360,note_off,120,0,1,,,,,,,,,0,,,70,0
537480,note_off,120,0,1,,,,,,,,,0,,,75,0
537480,note_on,0,0,1,,,,,,,,,0,,,73,62
537480,note_off,120,0,4,,,,,,,,,3,,,67,0
537480,note_off,0,0,4,,,,,,,,,3,,,55,0
537600,note_on,0,0,1,,,,,,,,,0,,,71,62
537600,note_off,120,0,1,,,,,,,,,0,,,73,0
537600,note_on,0,0,4,,,,,,,,,3,,,68,73
537600,note_on,120,0,4,,,,,,,,,3,,,56,73
537720,note_off,120,0,1,,,,,,,,,0,,,71,0
537720,note_on,0,0,1,,,,,,,,,0,,,75,62
537720,note_off,120,0,4,,,,,,,,,3,,,68,0
537720,note_off,0,0,4,,,,,,,,,3,,,56,0
537780,set_tempo,3540,1,0,,,,,,377358,,,,,,,
537840,note_on,0,0,1,,,,,,,,,0,,,76,63
537840,note_off,120,0,1,,,,,,,,,0,,,75,0
537840,note_on,120,0,4,,,,,,,,,3,,,59,84
537960,note_on,0,0,1,,,,,,,,,0,,,74,63
537960,note_off,120,0,1,,,,,,,,,0,,,76,0
538080,note_on,0,0,1,,,,,,,,,0,,,73,75
538080,note_off,120,0,1,,,,,,,,,0,,,74,0
538180,set_tempo,400,1,0,,,,,,372670,,,,,,,
538200,note_off,360,0,4,,,,,,,,,3,,,59,0
538200,note_on,0,0,4,,,,,,,,,3,,,57,75
538200,note_off,120,0,1,,,,,,,,,0,,,73,0
538320,note_on,0,0,4,,,,,,,,,3,,,61,74
538320,note_on,120,0,1,,,,,,,,,0,,,69,74
538320,note_on,0,0,1,,,,,,,,,0,,,81,74
538320,note_off,120,0,4,,,,,,,,,3,,,57,0
538440,note_off,0,0,1,,,,,,,,,0,,,69,0
538440,note_off,120,0,1,,,,,,,,,0,,,81,0
538440,note_off,120,0,4,,,,,,,,,3,,,61,0
538440,note_on,0,0,4,,,,,,,,,3,,,59,73
538560,note_on,0,0,1,,,,,,,,,0,,,81,73
538560,note_on,120,0,1,,,,,,,,,0,,,69,73
538560,note_off,120,0,4,,,,,,,,,3,,,59,0
538560,note_on,0,0,4,,,,,,,,,3,,,57,72
538680,note_off,0,0,1,,,,,,,,,0,,,69,0
538680,note_off,120,0,1,,,,,,,,,0,,,81,0
538680,note_off,120,0,4,,,,,,,,,3,,,57,0
538680,note_on,0,0,4,,,,,,,,,3,,,56,71
538800,note_on,120,0,1,,,,,,,,,0,,,73,72
538800,note_off,120,0,4,,,,,,,,,3,,,56,0
538800,note_on,0,0,4,,,,,,,,,3,,,54,71
538800,note_on,0,0,1,,,,,,,,,0,,,85,72
538920,note_off,0,0,1,,,,,,,,,0,,,73,0
538920,note_on,0,0,4,,,,,,,,,3,,,52,70
538920,note_off,120,0,4,,,,,,,,,3,,,54,0
538920,note_off,120,0,1,,,,,,,,,0,,,85,0
539040,note_on,120,0,1,,,,,,,,,0,,,73,71
539040,note_on,0,0,4,,,,,,,,,3,,,51,69
539040,note_off,120,0,4,,,,,,,,,3,,,52,0
539040,note_on,0,0,1,,,,,,,,,0,,,85,71
539160,note_off,0,0,1,,,,,,,,,0,,,73,0
539160,note_off,120,0,4,,,,,,,,,3,,,51,0
539160,note_on,0,0,4,,,,,,,,,3,,,47,68
539160,note_off,120,0,1,,,,,,,,,0,,,85,0
539280,note_on,120,0,1,,,,,,,,,0,,,71,70
539280,note_off,120,0,4,,,,,,,,,3,,,47,0
539280,note_on,0,0,1,,,,,,,,,0,,,83,70
539280,note_on,0,0,4,,,,,,,,,3,,,49,68
539400,note_off,0,0,1,,,,,,,,,0,,,71,0
539400,note_off,120,0,1,,,,,,,,,0,,,83,0
539400,note_off,120,0,4,,,,,,,,,3,,,49,0
539400,note_on,0,0,4,,,,,,,,,3,,,51,67
539520,note_on,0,0,1,,,,,,,,,0,,,81,69
539520,note_on,120,0,1,,,,,,,,,0,,,69,69
539520,note_off,120,0,4,,,,,,,,,3,,,51,0
539520,note_on,0,0,4,,,,,,,,,3,,,52,66
539640,note_off,120,0,1,,,,,,,,,0,,,81,0
539640,note_off,0,0,1,,,,,,,,,0,,,69,0
539640,note_on,0,0,4,,,,,,,,,3,,,54,65
539640,note_off,120,0,4,,,,,,,,,3,,,52,0
539760,note_off,120,0,4,,,,,,,,,3,,,54,0
539760,note_on,0,0,4,,,,,,,,,3,,,56,65
539760,note_on,0,0,1,,,,,,,,,0,,,80,68
539760,note_on,120,0,1,,,,,,,,,0,,,68,68
539880,note_off,120,0,4,,,,,,,,,3,,,56,0
539880,note_off,0,0,1,,,,,,,,,0,,,68,0
539880,note_on,0,0,4,,,,,,,,,3,,,57,64
539880,note_off,120,0,1,,,,,,,,,0,,,80,0
540000,note_on,120,0,1,,,,,,,,,0,,,68,67
540000,note_on,0,0,1,,,,,,,,,0,,,80,67
540000,note_off,120,0,4,,,,,,,,,3,,,57,0
540000,note_on,0,0,4,,,,,,,,,3,,,59,63
540120,note_on,0,0,4,,,,,,,,,3,,,58,62
540120,note_off,120,0,1,,,,,,,,,0,,,80,0
540120,note_off,0,0,1,,,,,,,,,0,,,68,0
540120,note_off,120,0,4,,,,,,,,,3,,,59,0
540240,note_on,0,0,4,,,,,,,,,3,,,59,62
540240,note_off,120,0,4,,,,,,,,,3,,,58,0
540240,note_on,0,0,1,,,,,,,,,0,,,78,66
540240,note_on,120,0,1,,,,,,,,,0,,,66,66
540360,note_off,0,0,1,,,,,,,,,0,,,66,0
540360,note_off,120,0,1,,,,,,,,,0,,,78,0
540360,note_off,120,0,4,,,,,,,,,3,,,59,0
540360,note_on,0,0,4,,,,,,,,,3,,,61,61
540480,note_on,120,0,1,,,,,,,,,0,,,66,65
540480,note_on,0,0,1,,,,,,,,,0,,,78,65
540480,note_off,120,0,4,,,,,,,,,3,,,61,0
540480,note_on,0,0,4,,,,,,,,,3,,,63,60
540600,note_off,120,0,1,,,,,,,,,0,,,78,0
540600,note_on,0,0,4,,,,,,,,,3,,,64,59
540600,note_off,0,0,1,,,,,,,,,0,,,66,0
540600,note_off,120,0,4,,,,,,,,,3,,,63,0
540720,note_on,0,0,4,,,,,,,,,3,,,66,59
540720,note_off,120,0,4,,,,,,,,,3,,,64,0
540720,note_on,120,0,1,,,,,,,,,0,,,80,64
540720,note_on,0,0,1,,,,,,,,,0,,,68,64
540840,note_off,0,0,1,,,,,,,,,0,,,80,0
540840,note_off,120,0,1,,,,,,,,,0,,,68,0
540840,note_off,120,0,4,,,,,,,,,3,,,66,0
540840,note_on,0,0,4,,,,,,,,,3,,,64,58
540840,set_tempo,2660,1,0,,,,,,375000,,,,,,,
540844,set_tempo,4,1,0,,,,,,377358,,,,,,,
540960,note_on,0,0,4,,,,,,,,,3,,,63,57
540960,note_on,0,0,1,,,,,,,,,0,,,81,63
540960,note_off,120,0,4,,,,,,,,,3,,,64,0
540960,set_tempo,116,1,0,,,,,,384615,,,,,,,
540960,note_on,120,0,1,,,,,,,,,0,,,69,63
541080,note_on,0,0,4,,,,,,,,,3,,,59,56
541080,note_off,120,0,4,,,,,,,,,3,,,63,0
541080,set_tempo,120,1,0,,,,,,394736,,,,,,,
541080,note_off,120,0,1,,,,,,,,,0,,,81,0
541080,note_off,0,0,1,,,,,,,,,0,,,69,0
541200,note_on,0,0,4,,,,,,,,,3,,,61,56
541200,note_off,120,0,4,,,,,,,,,3,,,59,0
541200,note_on,120,0,1,,,,,,,,,0,,,71,62
541200,note_on,0,0,1,,,,,,,,,0,,,83,62
541207,set_tempo,127,1,0,,,,,,402684,,,,,,,
541320,set_tempo,113,1,0,,,,,,413793,,,,,,,
541320,note_off,120,0,1,,,,,,,,,0,,,83,0
541320,note_off,0,0,1,,,,,,,,,0,,,71,0
541320,note_on,0,0,4,,,,,,,,,3,,,63,55
541320,note_off,120,0,4,,,,,,,,,3,,,61,0
541440,note_off,120,0,4,,,,,,,,,3,,,63,0
541440,note_on,120,0,1,,,,,,,,,0,,,68,60
541440,note_on,0,0,1,,,,,,,,,0,,,80,60
541440,note_on,0,0,4,,,,,,,,,3,,,64,54
541440,set_tempo,120,1,0,,,,,,434782,,,,,,,
541560,note_off,120,0,1,,,,,,,,,0,,,80,0
541560,set_tempo,120,1,0,,,,,,500000,,,,,,,
541560,note_off,120,0,4,,,,,,,,,3,,,64,0
541560,note_off,0,0,1,,,,,,,,,0,,,68,0
541560,note_on,0,0,4,,,,,,,,,3,,,63,53
541680,note_on,0,0,4,,,,,,,,,3,,,64,53
541680,note_off,120,0,4,,,,,,,,,3,,,63,0
541680,set_tempo,120,1,0,,,,,,869565,,,,,,,
541680,note_on,120,0,1,,,,,,,,,0,,,71,58
541800,note_on,0,0,4,,,,,,,,,3,,,66,52
541800,note_off,120,0,4,,,,,,,,,3,,,64,0
541800,set_tempo,120,1,0,,,,,,1363636,,,,,,,
541920,marker,0,1,0,,,,,,,,,,,,,
541920,note_on,0,0,3,,,,,,,,,2,,,68,57
541920,control_change,32280,0,3,,,,,,,64,0,2,,,,
541920,time_signature,120,1,0,9,8,24,8,,,,,,,,,
541920,control_change,11400,0,2,,,,,,,64,0,1,,,,
541920,note_off,0,0,4,,,,,,,,,3,,,66,0
541920,control_change,120,0,4,,,,,,,64,0,3,,,,
541920,set_tempo,0,1,0,,,,,,705882,,,,,,,
541920,control_change,240,0,1,,,,,,,64,0,0,,,,
542040,note_on,120,0,1,,,,,,,,,0,,,75,53
542040,set_tempo,120,1,0,,,,,,508474,,,,,,,
542052,note_off,12,0,1,,,,,,,,,0,,,71,0
542152,set_tempo,112,1,0,,,,,,500000,,,,,,,
542160,note_off,108,0,1,,,,,,,,,0,,,75,0
542160,note_on,0,0,1,,,,,,,,,0,,,76,53
542280,note_off,120,0,1,,,,,,,,,0,,,76,0
542280,note_on,0,0,1,,,,,,,,,0,,,68,53
542400,note_on,0,0,1,,,,,,,,,0,,,69,53
542400,note_off,480,0,3,,,,,,,,,2,,,68,0
542400,note_off,120,0,1,,,,,,,,,0,,,68,0
542520,set_tempo,368,1,0,,,,,,508474,,,,,,,
542520,note_off,120,0,1,,,,,,,,,0,,,69,0
542520,note_on,0,0,1,,,,,,,,,0,,,71,53
542640,note_on,240,0,3,,,,,,,,,2,,,56,56
542640,note_off,120,0,1,,,,,,,,,0,,,71,0
542640,note_on,0,0,1,,,,,,,,,0,,,64,65
542750,set_tempo,230,1,0,,,,,,500000,,,,,,,
542760,note_off,120,0,3,,,,,,,,,2,,,56,0
542760,note_on,0,0,3,,,,,,,,,2,,,57,51
542880,note_off,120,0,3,,,,,,,,,2,,,57,0
542880,note_on,0,0,3,,,,,,,,,2,,,59,49
543000,note_on,0,0,3,,,,,,,,,2,,,52,48
543000,note_off,120,0,3,,,,,,,,,2,,,59,0
543120,note_off,120,0,3,,,,,,,,,2,,,52,0
543120,note_on,0,0,3,,,,,,,,,2,,,54,47
543240,set_tempo,490,1,0,,,,,,508474,,,,,,,
543240,note_off,120,0,3,,,,,,,,,2,,,54,0
543240,note_on,0,0,3,,,,,,,,,2,,,56,46
543360,note_on,120,0,3,,,,,,,,,2,,,47,44
543480,set_tempo,240,1,0,,,,,,500000,,,,,,,
543600,note_off,960,0,1,,,,,,,,,0,,,64,0
543600,note_on,0,0,1,,,,,,,,,0,,,68,61
543840,note_off,240,0,1,,,,,,,,,0,,,68,0
543840,note_off,480,0,3,,,,,,,,,2,,,47,0
543840,note_on,0,0,1,,,,,,,,,0,,,66,60
543960,set_tempo,480,1,0,,,,,,508474,,,,,,,
544080,note_off,240,0,1,,,,,,,,,0,,,66,0
544080,note_on,0,0,1,,,,,,,,,0,,,64,59
544080,note_off,240,0,3,,,,,,,,,2,,,56,0
544080,note_on,0,0,3,,,,,,,,,2,,,57,56
544200,note_on,0,0,3,,,,,,,,,2,,,59,53
544200,note_off,120,0,3,,,,,,,,,2,,,57,0
544210,set_tempo,250,1,0,,,,,,500000,,,,,,,
544320,note_on,0,0,3,,,,,,,,,2,,,61,53
544320,note_off,120,0,3,,,,,,,,,2,,,59,0
544440,note_off,120,0,3,,,,,,,,,2,,,61,0
544440,note_on,0,0,3,,,,,,,,,2,,,54,52
544560,note_off,120,0,3,,,,,,,,,2,,,54,0
544560,note_on,0,0,3,,,,,,,,,2,,,56,51
544680,note_on,0,0,3,,,,,,,,,2,,,57,51
544680,note_off,120,0,3,,,,,,,,,2,,,56,0
544680,set_tempo,470,1,0,,,,,,508474,,,,,,,
544800,note_on,0,0,3,,,,,,,,,2,,,52,50
544800,note_off,120,0,3,,,,,,,,,2,,,57,0
544800,note_off,720,0,1,,,,,,,,,0,,,64,0
544800,note_on,0,0,1,,,,,,,,,0,,,69,63
544800,note_on,2880,0,2,,,,,,,,,1,,,63,50
544800,note_on,2880,0,4,,,,,,,,,3,,,42,57
544920,note_off,120,0,4,,,,,,,,,3,,,42,0
544920,set_tempo,240,1,0,,,,,,500000,,,,,,,
544920,note_on,0,0,4,,,,,,,,,3,,,44,55
545040,note_on,0,0,4,,,,,,,,,3,,,45,54
545040,note_off,120,0,4,,,,,,,,,3,,,44,0
545160,note_on,0,0,4,,,,,,,,,3,,,39,52
545160,note_off,120,0,4,,,,,,,,,3,,,45,0
545280,note_off,480,0,3,,,,,,,,,2,,,52,0
545280,note_on,0,0,4,,,,,,,,,3,,,40,51
545280,note_off,120,0,4,,,,,,,,,3,,,39,0
545400,note_on,0,0,4,,,,,,,,,3,,,42,50
545400,note_off,120,0,4,,,,,,,,,3,,,40,0
545400,set_tempo,480,1,0,,,,,,508474,,,,,,,
545520,note_on,0,0,2,,,,,,,,,1,,,66,54
545520,note_off,120,0,4,,,,,,,,,3,,,42,0
545520,note_on,0,0,4,,,,,,,,,3,,,35,48
545520,note_off,720,0,2,,,,,,,,,1,,,63,0
545640,note_off,120,0,2,,,,,,,,,1,,,66,0
545640,note_on,0,0,2,,,,,,,,,1,,,68,51
545640,set_tempo,240,1,0,,,,,,500000,,,,,,,
545760,note_off,960,0,1,,,,,,,,,0,,,69,0
545760,note_on,0,0,1,,,,,,,,,0,,,73,60
545760,note_off,120,0,2,,,,,,,,,1,,,68,0
545760,note_on,0,0,2,,,,,,,,,1,,,69,50
545880,note_on,0,0,2,,,,,,,,,1,,,63,49
545880,note_off,120,0,2,,,,,,,,,1,,,69,0
546000,note_off,480,0,4,,,,,,,,,3,,,35,0
546000,note_off,120,0,2,,,,,,,,,1,,,63,0
546000,note_on,0,0,2,,,,,,,,,1,,,64,48
546000,note_off,240,0,1,,,,,,,,,0,,,73,0
546000,note_on,0,0,1,,,,,,,,,0,,,71,59
546120,note_off,120,0,2,,,,,,,,,1,,,64,0
546120,note_on,0,0,2,,,,,,,,,1,,,66,47
546120,set_tempo,480,1,0,,,,,,508474,,,,,,,
546240,note_on,240,0,4,,,,,,,,,3,,,59,55
546240,note_off,120,0,2,,,,,,,,,1,,,66,0
546240,note_on,0,0,1,,,,,,,,,0,,,69,58
546240,note_off,240,0,1,,,,,,,,,0,,,71,0
546240,note_on,0,0,2,,,,,,,,,1,,,64,46
546360,note_off,120,0,4,,,,,,,,,3,,,59,0
546360,set_tempo,240,1,0,,,,,,500000,,,,,,,
546360,note_on,0,0,4,,,,,,,,,3,,,63,51
546480,note_off,240,0,2,,,,,,,,,1,,,64,0
546480,note_on,0,0,4,,,,,,,,,3,,,64,50
546480,note_off,120,0,4,,,,,,,,,3,,,63,0
546600,note_off,120,0,4,,,,,,,,,3,,,64,0
546600,note_on,0,0,4,,,,,,,,,3,,,56,48
546720,note_on,0,0,1,,,,,,,,,0,,,68,56
546720,note_off,480,0,1,,,,,,,,,0,,,69,0
546720,note_off,120,0,4,,,,,,,,,3,,,56,0
546720,note_on,0,0,4,,,,,,,,,3,,,57,47
546840,set_tempo,480,1,0,,,,,,508474,,,,,,,
546840,note_on,0,0,4,,,,,,,,,3,,,59,46
546840,note_off,120,0,4,,,,,,,,,3,,,57,0
546960,note_on,0,0,4,,,,,,,,,3,,,47,45
546960,note_off,120,0,4,,,,,,,,,3,,,59,0
546960,note_on,480,0,2,,,,,,,,,1,,,68,52
546960,note_on,0,0,1,,,,,,,,,0,,,76,59
546960,note_off,240,0,1,,,,,,,,,0,,,68,0
547080,note_on,0,0,2,,,,,,,,,1,,,69,49
547080,set_tempo,240,1,0,,,,,,500000,,,,,,,
547080,note_off,120,0,2,,,,,,,,,1,,,68,0
547200,note_on,0,0,2,,,,,,,,,1,,,71,48
547200,note_off,120,0,2,,,,,,,,,1,,,69,0
547320,note_on,0,0,2,,,,,,,,,1,,,64,47
547320,note_off,120,0,2,,,,,,,,,1,,,71,0
547440,note_on,0,0,2,,,,,,,,,1,,,66,47
547440,note_off,120,0,2,,,,,,,,,1,,,64,0
547440,note_off,480,0,4,,,,,,,,,3,,,47,0
547560,set_tempo,480,1,0,,,,,,508474,,,,,,,
547560,note_on,0,0,2,,,,,,,,,1,,,68,46
547560,note_off,120,0,2,,,,,,,,,1,,,66,0
547680,note_on,240,0,4,,,,,,,,,3,,,56,53
547680,note_on,0,0,2,,,,,,,,,1,,,59,45
547680,note_off,120,0,2,,,,,,,,,1,,,68,0
547800,note_off,120,0,4,,,,,,,,,3,,,56,0
547800,note_on,0,0,4,,,,,,,,,3,,,57,51
547800,set_tempo,240,1,0,,,,,,500000,,,,,,,
547920,note_on,0,0,1,,,,,,,,,0,,,80,53
547920,note_off,960,0,1,,,,,,,,,0,,,76,0
547920,note_off,240,0,2,,,,,,,,,1,,,59,0
547920,note_off,120,0,4,,,,,,,,,3,,,57,0
547920,note_on,0,0,4,,,,,,,,,3,,,59,49
548040,note_on,0,0,4,,,,,,,,,3,,,52,48
548040,note_off,120,0,4,,,,,,,,,3,,,59,0
548160,note_on,0,0,1,,,,,,,,,0,,,78,52
548160,note_off,240,0,1,,,,,,,,,0,,,80,0
548160,note_off,120,0,4,,,,,,,,,3,,,52,0
548160,note_on,0,0,4,,,,,,,,,3,,,54,46
548280,note_on,0,0,4,,,,,,,,,3,,,56,44
548280,note_off,120,0,4,,,,,,,,,3,,,54,0
548280,set_tempo,480,1,0,,,,,,508474,,,,,,,
548400,note_off,120,0,4,,,,,,,,,3,,,56,0
548400,note_on,480,0,2,,,,,,,,,1,,,66,50
548400,note_off,240,0,1,,,,,,,,,0,,,78,0
548400,note_on,0,0,1,,,,,,,,,0,,,76,50
548400,note_on,0,0,4,,,,,,,,,3,,,47,43
548520,set_tempo,240,1,0,,,,,,500000,,,,,,,
548520,note_off,120,0,2,,,,,,,,,1,,,66,0
548520,note_on,0,0,2,,,,,,,,,1,,,68,45
548640,note_off,120,0,2,,,,,,,,,1,,,68,0
548640,note_on,0,0,2,,,,,,,,,1,,,69,45
548760,note_off,120,0,2,,,,,,,,,1,,,69,0
548760,note_on,0,0,2,,,,,,,,,1,,,66,44
548880,note_off,480,0,4,,,,,,,,,3,,,47,0
548880,note_off,120,0,2,,,,,,,,,1,,,66,0
548880,note_on,0,0,2,,,,,,,,,1,,,68,43
549000,set_tempo,480,1,0,,,,,,508474,,,,,,,
549000,note_off,120,0,2,,,,,,,,,1,,,68,0
549000,note_on,0,0,2,,,,,,,,,1,,,69,43
549120,note_off,120,0,2,,,,,,,,,1,,,69,0
549120,note_on,0,0,2,,,,,,,,,1,,,59,42
549120,note_on,0,0,2,,,,,,,,,1,,,75,42
549120,note_off,720,0,1,,,,,,,,,0,,,76,0
549120,note_on,0,0,1,,,,,,,,,0,,,81,55
549120,note_on,240,0,4,,,,,,,,,3,,,54,51
549240,note_off,120,0,4,,,,,,,,,3,,,54,0
549240,note_on,0,0,4,,,,,,,,,3,,,56,45
549240,set_tempo,240,1,0,,,,,,500000,,,,,,,
549360,note_off,120,0,4,,,,,,,,,3,,,56,0
549360,note_off,240,0,2,,,,,,,,,1,,,59,0
549360,note_on,0,0,4,,,,,,,,,3,,,57,45
549480,note_on,0,0,4,,,,,,,,,3,,,54,45
549480,note_off,120,0,4,,,,,,,,,3,,,57,0
549600,note_off,120,0,4,,,,,,,,,3,,,54,0
549600,note_on,0,0,4,,,,,,,,,3,,,56,45
549720,note_off,120,0,4,,,,,,,,,3,,,56,0
549720,note_on,0,0,4,,,,,,,,,3,,,57,45
549720,set_tempo,480,1,0,,,,,,508474,,,,,,,
549840,note_off,480,0,2,,,,,,,,,1,,,75,0
549840,note_on,0,0,4,,,,,,,,,3,,,47,49
549840,note_on,0,0,2,,,,,,,,,1,,,78,47
549840,note_off,120,0,4,,,,,,,,,3,,,57,0
549960,set_tempo,240,1,0,,,,,,500000,,,,,,,
549960,note_on,0,0,4,,,,,,,,,3,,,49,44
549960,note_off,120,0,4,,,,,,,,,3,,,47,0
550080,note_off,960,0,1,,,,,,,,,0,,,81,0
550080,note_on,0,0,1,,,,,,,,,0,,,85,52
550080,note_on,0,0,4,,,,,,,,,3,,,51,44
550080,note_off,120,0,4,,,,,,,,,3,,,49,0
550200,note_on,0,0,4,,,,,,,,,3,,,47,44
550200,note_off,120,0,4,,,,,,,,,3,,,51,0
550320,note_on,0,0,1,,,,,,,,,0,,,83,52
550320,note_on,0,0,4,,,,,,,,,3,,,49,44
550320,note_off,120,0,4,,,,,,,,,3,,,47,0
550320,note_off,240,0,1,,,,,,,,,0,,,85,0
550440,note_on,0,0,4,,,,,,,,,3,,,51,43
550440,note_off,120,0,4,,,,,,,,,3,,,49,0
550440,set_tempo,480,1,0,,,,,,508474,,,,,,,
550560,note_off,720,0,2,,,,,,,,,1,,,78,0
550560,note_off,240,0,1,,,,,,,,,0,,,83,0
550560,note_on,0,0,1,,,,,,,,,0,,,81,51
550560,note_on,0,0,2,,,,,,,,,1,,,78,44
550560,note_on,0,0,4,,,,,,,,,3,,,47,48
550560,note_off,120,0,4,,,,,,,,,3,,,51,0
550680,note_on,0,0,4,,,,,,,,,3,,,51,43
550680,note_off,120,0,4,,,,,,,,,3,,,47,0
550680,set_tempo,240,1,0,,,,,,500000,,,,,,,
550800,note_off,120,0,4,,,,,,,,,3,,,51,0
550800,note_on,0,0,4,,,,,,,,,3,,,52,43
550920,note_off,120,0,4,,,,,,,,,3,,,52,0
550920,note_on,0,0,4,,,,,,,,,3,,,44,43
551040,note_on,0,0,4,,,,,,,,,3,,,45,42
551040,note_off,480,0,1,,,,,,,,,0,,,81,0
551040,note_off,120,0,4,,,,,,,,,3,,,44,0
551040,note_on,0,0,1,,,,,,,,,0,,,80,50
551040,note_on,0,0,2,,,,,,,,,1,,,76,42
551040,note_off,480,0,2,,,,,,,,,1,,,78,0
551160,set_tempo,480,1,0,,,,,,508474,,,,,,,
551160,note_off,120,0,4,,,,,,,,,3,,,45,0
551160,note_on,0,0,4,,,,,,,,,3,,,47,42
551280,note_on,0,0,1,,,,,,,,,0,,,80,48
551280,note_off,120,0,4,,,,,,,,,3,,,47,0
551280,note_off,240,0,1,,,,,,,,,0,,,80,0
551280,note_on,0,0,4,,,,,,,,,3,,,40,57
551280,note_off,240,0,2,,,,,,,,,1,,,76,0
551400,set_tempo,240,1,0,,,,,,500000,,,,,,,
551400,note_off,120,0,1,,,,,,,,,0,,,80,0
551400,note_on,0,0,1,,,,,,,,,0,,,81,43
551520,note_on,0,0,1,,,,,,,,,0,,,83,44
551520,note_off,120,0,1,,,,,,,,,0,,,81,0
551640,note_on,0,0,1,,,,,,,,,0,,,76,44
551640,note_off,120,0,1,,,,,,,,,0,,,83,0
551760,note_off,120,0,1,,,,,,,,,0,,,76,0
551760,note_on,0,0,1,,,,,,,,,0,,,78,45
551880,note_off,120,0,1,,,,,,,,,0,,,78,0
551880,note_on,0,0,1,,,,,,,,,0,,,80,45
551880,set_tempo,480,1,0,,,,,,508474,,,,,,,
552000,note_off,120,0,1,,,,,,,,,0,,,80,0
552000,note_on,0,0,1,,,,,,,,,0,,,71,46
552000,note_on,720,0,2,,,,,,,,,1,,,68,51
552120,note_on,0,0,2,,,,,,,,,1,,,69,47
552120,note_off,120,0,2,,,,,,,,,1,,,68,0
552120,set_tempo,240,1,0,,,,,,500000,,,,,,,
552240,note_on,0,0,2,,,,,,,,,1,,,71,46
552240,note_off,240,0,1,,,,,,,,,0,,,71,0
552240,note_on,0,0,4,,,,,,,,,3,,,44,55
552240,note_off,960,0,4,,,,,,,,,3,,,40,0
552240,note_off,120,0,2,,,,,,,,,1,,,69,0
552360,note_on,0,0,2,,,,,,,,,1,,,64,45
552360,note_off,120,0,2,,,,,,,,,1,,,71,0
552480,note_off,120,0,2,,,,,,,,,1,,,64,0
552480,note_off,240,0,4,,,,,,,,,3,,,44,0
552480,note_on,0,0,4,,,,,,,,,3,,,42,54
552480,note_on,0,0,2,,,,,,,,,1,,,66,44
552600,set_tempo,480,1,0,,,,,,508474,,,,,,,
552600,note_off,120,0,2,,,,,,,,,1,,,66,0
552600,note_on,0,0,2,,,,,,,,,1,,,68,43
552720,note_on,0,0,2,,,,,,,,,1,,,59,42
552720,note_off,120,0,2,,,,,,,,,1,,,68,0
552720,note_off,240,0,4,,,,,,,,,3,,,42,0
552720,note_on,0,0,4,,,,,,,,,3,,,40,54
552720,note_on,480,0,1,,,,,,,,,0,,,69,54
552840,set_tempo,240,1,0,,,,,,500000,,,,,,,
552840,note_off,120,0,1,,,,,,,,,0,,,69,0
552840,note_on,0,0,1,,,,,,,,,0,,,71,49
552960,note_off,120,0,1,,,,,,,,,0,,,71,0
552960,note_on,0,0,1,,,,,,,,,0,,,73,50
553080,note_off,120,0,1,,,,,,,,,0,,,73,0
553080,note_on,0,0,1,,,,,,,,,0,,,66,50
553200,note_off,120,0,1,,,,,,,,,0,,,66,0
553200,note_off,480,0,4,,,,,,,,,3,,,40,0
553200,note_on,0,0,1,,,,,,,,,0,,,68,51
553200,note_off,480,0,2,,,,,,,,,1,,,59,0
553200,note_on,0,0,4,,,,,,,,,3,,,39,52
553320,note_off,120,0,1,,,,,,,,,0,,,68,0
553320,note_on,0,0,1,,,,,,,,,0,,,69,51
553440,note_off,240,0,4,,,,,,,,,3,,,39,0
553440,note_on,0,0,4,,,,,,,,,3,,,39,52
553440,note_off,120,0,1,,,,,,,,,0,,,69,0
553440,note_on,0,0,1,,,,,,,,,0,,,78,57
553440,note_on,8160,0,3,,,,,,,,,2,,,45,57
553560,note_off,120,0,1,,,,,,,,,0,,,78,0
553560,note_on,0,0,1,,,,,,,,,0,,,80,52
553560,set_tempo,720,1,0,,,,,,508474,,,,,,,
553680,note_off,120,0,1,,,,,,,,,0,,,80,0
553680,note_on,0,0,4,,,,,,,,,3,,,37,50
553680,note_off,240,0,4,,,,,,,,,3,,,39,0
553680,note_on,0,0,1,,,,,,,,,0,,,81,53
553800,note_off,120,0,1,,,,,,,,,0,,,81,0
553800,note_on,0,0,1,,,,,,,,,0,,,78,53
553800,set_tempo,240,1,0,,,,,,500000,,,,,,,
553920,note_on,0,0,4,,,,,,,,,3,,,35,51
553920,note_off,120,0,1,,,,,,,,,0,,,78,0
553920,note_on,0,0,1,,,,,,,,,0,,,80,54
553920,note_off,240,0,4,,,,,,,,,3,,,37,0
554040,set_tempo,240,1,0,,,,,,508474,,,,,,,
554040,note_off,120,0,1,,,,,,,,,0,,,80,0
554040,note_on,0,0,1,,,,,,,,,0,,,81,54
554160,note_on,0,0,4,,,,,,,,,3,,,33,52
554160,note_off,240,0,4,,,,,,,,,3,,,35,0
554160,note_on,0,0,1,,,,,,,,,0,,,83,60
554160,note_off,120,0,1,,,,,,,,,0,,,81,0
554280,note_on,0,0,1,,,,,,,,,0,,,85,55
554280,note_off,120,0,1,,,,,,,,,0,,,83,0
554280,set_tempo,240,1,0,,,,,,500000,,,,,,,
554400,note_off,960,0,3,,,,,,,,,2,,,45,0
554400,note_off,120,0,1,,,,,,,,,0,,,85,0
554400,note_on,0,0,1,,,,,,,,,0,,,87,56
554400,note_off,240,0,4,,,,,,,,,3,,,33,0
554400,note_on,0,0,4,,,,,,,,,3,,,37,53
554400,note_on,0,0,3,,,,,,,,,2,,,49,53
554520,note_off,120,0,1,,,,,,,,,0,,,87,0
554520,note_on,0,0,1,,,,,,,,,0,,,83,56
554640,note_off,240,0,3,,,,,,,,,2,,,49,0
554640,note_on,0,0,4,,,,,,,,,3,,,35,54
554640,note_off,240,0,4,,,,,,,,,3,,,37,0
554640,note_on,0,0,1,,,,,,,,,0,,,85,57
554640,note_on,0,0,3,,,,,,,,,2,,,47,52
554640,note_off,120,0,1,,,,,,,,,0,,,83,0
554760,note_off,120,0,1,,,,,,,,,0,,,85,0
554760,note_on,0,0,1,,,,,,,,,0,,,87,57
554760,set_tempo,480,1,0,,,,,,508474,,,,,,,
554880,note_off,240,0,3,,,,,,,,,2,,,47,0
554880,note_on,0,0,3,,,,,,,,,2,,,45,51
554880,note_on,0,0,4,,,,,,,,,3,,,33,57
554880,note_off,240,0,4,,,,,,,,,3,,,35,0
554880,note_on,0,0,1,,,,,,,,,0,,,88,62
554880,note_off,120,0,1,,,,,,,,,0,,,87,0
555000,set_tempo,240,1,0,,,,,,500000,,,,,,,
555000,note_off,120,0,1,,,,,,,,,0,,,88,0
555000,note_on,0,0,1,,,,,,,,,0,,,90,58
555120,note_off,120,0,1,,,,,,,,,0,,,90,0
555120,note_on,0,0,1,,,,,,,,,0,,,92,59
555240,note_off,120,0,1,,,,,,,,,0,,,92,0
555240,note_on,0,0,1,,,,,,,,,0,,,88,59
555360,note_off,480,0,4,,,,,,,,,3,,,33,0
555360,note_on,0,0,4,,,,,,,,,3,,,32,52
555360,note_off,120,0,1,,,,,,,,,0,,,88,0
555360,note_on,0,0,3,,,,,,,,,2,,,44,49
555360,note_off,480,0,3,,,,,,,,,2,,,45,0
555360,note_on,0,0,1,,,,,,,,,0,,,90,58
555480,note_on,0,0,1,,,,,,,,,0,,,92,58
555480,note_off,120,0,1,,,,,,,,,0,,,90,0
555480,set_tempo,480,1,0,,,,,,508474,,,,,,,
555600,note_off,120,0,1,,,,,,,,,0,,,92,0
555600,note_on,0,0,1,,,,,,,,,0,,,80,62
555600,note_off,240,0,3,,,,,,,,,2,,,44,0
555600,note_on,0,0,4,,,,,,,,,3,,,42,57
555600,note_on,0,0,3,,,,,,,,,2,,,54,55
555600,note_off,240,0,4,,,,,,,,,3,,,32,0
555720,set_tempo,240,1,0,,,,,,500000,,,,,,,
555720,note_off,120,0,1,,,,,,,,,0,,,80,0
555720,note_on,0,0,1,,,,,,,,,0,,,81,56
555840,note_off,120,0,1,,,,,,,,,0,,,81,0
555840,note_on,0,0,1,,,,,,,,,0,,,83,56
555960,note_off,120,0,1,,,,,,,,,0,,,83,0
555960,note_on,0,0,1,,,,,,,,,0,,,80,55
556080,note_off,480,0,3,,,,,,,,,2,,,54,0
556080,note_on,0,0,3,,,,,,,,,2,,,52,51
556080,note_off,120,0,1,,,,,,,,,0,,,80,0
556080,note_on,0,0,1,,,,,,,,,0,,,81,54
556080,note_off,480,0,4,,,,,,,,,3,,,42,0
556080,note_on,0,0,4,,,,,,,,,3,,,40,49
556200,note_off,120,0,1,,,,,,,,,0,,,81,0
556200,note_on,0,0,1,,,,,,,,,0,,,83,54
556200,set_tempo,480,1,0,,,,,,508474,,,,,,,
556320,note_off,240,0,3,,,,,,,,,2,,,52,0
556320,note_on,3120,0,2,,,,,,,,,1,,,71,55
556320,note_on,0,0,4,,,,,,,,,3,,,49,53
556320,note_off,240,0,4,,,,,,,,,3,,,40,0
556320,note_on,0,0,3,,,,,,,,,2,,,52,48
556320,note_off,120,0,1,,,,,,,,,0,,,83,0
556320,note_on,0,0,1,,,,,,,,,0,,,83,57
556440,note_off,120,0,3,,,,,,,,,2,,,52,0
556440,note_on,0,0,3,,,,,,,,,2,,,54,47
556560,note_off,120,0,3,,,,,,,,,2,,,54,0
556560,note_on,0,0,3,,,,,,,,,2,,,55,46
556680,note_off,120,0,3,,,,,,,,,2,,,55,0
556680,note_on,0,0,3,,,,,,,,,2,,,52,46
556740,set_tempo,540,1,0,,,,,,517241,,,,,,,
556800,note_off,120,0,3,,,,,,,,,2,,,52,0
556800,note_off,480,0,2,,,,,,,,,1,,,71,0
556800,note_on,0,0,2,,,,,,,,,1,,,70,50
556800,note_on,0,0,3,,,,,,,,,2,,,54,45
556800,note_on,0,0,1,,,,,,,,,0,,,82,50
556800,note_off,480,0,1,,,,,,,,,0,,,83,0
556800,note_on,0,0,4,,,,,,,,,3,,,48,49
556800,note_off,480,0,4,,,,,,,,,3,,,49,0
556920,note_on,0,0,3,,,,,,,,,2,,,55,45
556920,note_off,120,0,3,,,,,,,,,2,,,54,0
556920,set_tempo,180,1,0,,,,,,560747,,,,,,,
557040,note_on,0,0,1,,,,,,,,,0,,,82,54
557040,note_off,240,0,2,,,,,,,,,1,,,70,0
557040,note_on,0,0,4,,,,,,,,,3,,,48,47
557040,note_off,120,0,3,,,,,,,,,2,,,55,0
557040,note_off,240,0,4,,,,,,,,,3,,,48,0
557040,set_tempo,120,1,0,,,,,,508474,,,,,,,
557040,note_off,240,0,1,,,,,,,,,0,,,82,0
557160,note_on,0,0,1,,,,,,,,,0,,,79,48
557160,note_off,120,0,1,,,,,,,,,0,,,82,0
557160,note_on,120,0,3,,,,,,,,,2,,,52,44
557160,set_tempo,120,1,0,,,,,,500000,,,,,,,
557280,note_off,120,0,1,,,,,,,,,0,,,79,0
557280,note_on,0,0,3,,,,,,,,,2,,,55,43
557280,note_off,120,0,3,,,,,,,,,2,,,52,0
557280,note_on,0,0,1,,,,,,,,,0,,,76,48
557400,note_off,120,0,3,,,,,,,,,2,,,55,0
557400,note_on,0,0,3,,,,,,,,,2,,,58,43
557400,note_on,0,0,1,,,,,,,,,0,,,70,47
557400,note_off,120,0,1,,,,,,,,,0,,,76,0
557520,note_off,120,0,1,,,,,,,,,0,,,70,0
557520,note_on,0,0,1,,,,,,,,,0,,,76,46
557520,note_off,120,0,3,,,,,,,,,2,,,58,0
557520,note_on,0,0,3,,,,,,,,,2,,,55,42
557640,note_off,120,0,1,,,,,,,,,0,,,76,0
557640,note_off,120,0,3,,,,,,,,,2,,,55,0
557640,note_on,0,0,3,,,,,,,,,2,,,52,42
557640,note_on,0,0,1,,,,,,,,,0,,,79,46
557760,note_on,0,0,3,,,,,,,,,2,,,55,41
557760,note_off,120,0,1,,,,,,,,,0,,,79,0
557760,note_off,120,0,3,,,,,,,,,2,,,52,0
557760,note_on,0,0,1,,,,,,,,,0,,,82,45
557880,note_on,0,0,1,,,,,,,,,0,,,79,44
557880,note_off,120,0,3,,,,,,,,,2,,,55,0
557880,note_on,0,0,3,,,,,,,,,2,,,52,41
557880,note_off,120,0,1,,,,,,,,,0,,,82,0
558000,note_off,120,0,3,,,,,,,,,2,,,52,0
558000,note_on,0,0,3,,,,,,,,,2,,,53,40
558000,note_on,0,0,1,,,,,,,,,0,,,81,44
558000,note_off,120,0,1,,,,,,,,,0,,,79,0
558120,note_on,0,0,1,,,,,,,,,0,,,77,43
558120,note_off,120,0,1,,,,,,,,,0,,,81,0
558120,note_on,0,0,3,,,,,,,,,2,,,57,40
558120,note_off,120,0,3,,,,,,,,,2,,,53,0
558240,note_off,120,0,3,,,,,,,,,2,,,57,0
558240,note_off,120,0,1,,,,,,,,,0,,,77,0
558240,note_on,0,0,1,,,,,,,,,0,,,79,42
558240,note_on,0,0,3,,,,,,,,,2,,,58,39
558360,note_on,0,0,1,,,,,,,,,0,,,76,42
558360,set_tempo,1200,1,0,,,,,,508474,,,,,,,
558360,note_off,120,0,3,,,,,,,,,2,,,58,0
558360,note_off,120,0,1,,,,,,,,,0,,,79,0
558360,note_on,0,0,3,,,,,,,,,2,,,55,39
558460,note_off,1420,0,4,,,,,,,,,3,,,48,0
558480,note_on,20,0,4,,,,,,,,,3,,,48,38
558480,note_off,120,0,1,,,,,,,,,0,,,76,0
558480,note_on,0,0,1,,,,,,,,,0,,,82,41
558480,note_on,1440,0,2,,,,,,,,,1,,,76,41
558480,note_off,120,0,3,,,,,,,,,2,,,55,0
558675,set_tempo,315,1,0,,,,,,517241,,,,,,,
558720,note_on,0,0,1,,,,,,,,,0,,,83,40
558720,note_off,240,0,1,,,,,,,,,0,,,82,0
558720,note_on,0,0,4,,,,,,,,,3,,,47,37
558720,note_off,240,0,4,,,,,,,,,3,,,48,0
558720,note_off,240,0,2,,,,,,,,,1,,,76,0
558720,note_on,0,0,2,,,,,,,,,1,,,75,40
558876,note_off,156,0,1,,,,,,,,,0,,,83,0
558876,note_off,156,0,2,,,,,,,,,1,,,75,0
558960,note_on,84,0,1,,,,,,,,,0,,,71,38
558960,note_on,0,0,4,,,,,,,,,3,,,45,36
558960,note_off,240,0,4,,,,,,,,,3,,,47,0
558970,set_tempo,295,1,0,,,,,,625000,,,,,,,
559200,note_on,0,0,4,,,,,,,,,3,,,44,36
559200,note_off,0,0,4,,,,,,,,,3,,,45,0
559200,control_change,240,0,4,,,,,,,64,0,3,,,,
559200,set_tempo,230,1,0,,,,,,705882,,,,,,,
559200,control_change,720,0,3,,,,,,,64,0,2,,,,
559200,control_change,240,0,1,,,,,,,64,0,0,,,,
559200,control_change,324,0,2,,,,,,,64,0,1,,,,
559320,note_on,120,0,1,,,,,,,,,0,,,75,53
559320,set_tempo,120,1,0,,,,,,508474,,,,,,,
559335,note_off,15,0,1,,,,,,,,,0,,,71,0
559432,set_tempo,112,1,0,,,,,,500000,,,,,,,
559440,note_on,0,0,1,,,,,,,,,0,,,76,53
559440,note_off,105,0,1,,,,,,,,,0,,,75,0
559560,note_off,120,0,1,,,,,,,,,0,,,76,0
559560,note_on,0,0,1,,,,,,,,,0,,,68,53
559680,note_off,120,0,1,,,,,,,,,0,,,68,0
559680,note_on,0,0,1,,,,,,,,,0,,,69,53
559680,note_off,480,0,4,,,,,,,,,3,,,44,0
559800,note_off,120,0,1,,,,,,,,,0,,,69,0
559800,note_on,0,0,1,,,,,,,,,0,,,71,53
559800,set_tempo,368,1,0,,,,,,508474,,,,,,,
559920,note_off,120,0,1,,,,,,,,,0,,,71,0
559920,note_on,720,0,3,,,,,,,,,2,,,56,56
559920,note_on,0,0,1,,,,,,,,,0,,,64,65
560030,set_tempo,230,1,0,,,,,,500000,,,,,,,
560040,note_on,0,0,3,,,,,,,,,2,,,57,51
560040,note_off,120,0,3,,,,,,,,,2,,,56,0
560160,note_on,0,0,3,,,,,,,,,2,,,59,49
560160,note_off,120,0,3,,,,,,,,,2,,,57,0
560280,note_off,120,0,3,,,,,,,,,2,,,59,0
560280,note_on,0,0,3,,,,,,,,,2,,,52,48
560400,note_off,120,0,3,,,,,,,,,2,,,52,0
560400,note_on,0,0,3,,,,,,,,,2,,,54,47
560520,note_on,0,0,3,,,,,,,,,2,,,56,46
560520,set_tempo,490,1,0,,,,,,508474,,,,,,,
560520,note_off,120,0,3,,,,,,,,,2,,,54,0
560640,note_on,120,0,3,,,,,,,,,2,,,47,44
560760,set_tempo,240,1,0,,,,,,500000,,,,,,,
560880,note_on,0,0,1,,,,,,,,,0,,,68,61
560880,note_off,960,0,1,,,,,,,,,0,,,64,0
561120,note_off,480,0,3,,,,,,,,,2,,,47,0
561120,note_on,0,0,1,,,,,,,,,0,,,66,60
561120,note_off,240,0,1,,,,,,,,,0,,,68,0
561240,set_tempo,480,1,0,,,,,,508474,,,,,,,
561360,note_on,0,0,1,,,,,,,,,0,,,64,59
561360,note_on,0,0,3,,,,,,,,,2,,,57,56
561360,note_off,240,0,3,,,,,,,,,2,,,56,0
561360,note_off,240,0,1,,,,,,,,,0,,,66,0
561480,note_off,120,0,3,,,,,,,,,2,,,57,0
561480,note_on,0,0,3,,,,,,,,,2,,,59,53
561490,set_tempo,250,1,0,,,,,,500000,,,,,,,
561600,note_off,120,0,3,,,,,,,,,2,,,59,0
561600,note_on,0,0,3,,,,,,,,,2,,,61,53
561720,note_off,120,0,3,,,,,,,,,2,,,61,0
561720,note_on,0,0,3,,,,,,,,,2,,,54,52
561840,note_on,0,0,3,,,,,,,,,2,,,56,51
561840,note_off,120,0,3,,,,,,,,,2,,,54,0
561960,note_on,0,0,3,,,,,,,,,2,,,57,51
561960,note_off,120,0,3,,,,,,,,,2,,,56,0
561960,set_tempo,470,1,0,,,,,,508474,,,,,,,
562080,note_on,2400,0,4,,,,,,,,,3,,,42,57
562080,note_on,0,0,1,,,,,,,,,0,,,69,63
562080,note_on,2880,0,2,,,,,,,,,1,,,63,50
562080,note_off,720,0,1,,,,,,,,,0,,,64,0
562080,note_off,120,0,3,,,,,,,,,2,,,57,0
562080,note_on,0,0,3,,,,,,,,,2,,,52,50
562200,note_off,120,0,4,,,,,,,,,3,,,42,0
562200,set_tempo,240,1,0,,,,,,500000,,,,,,,
562200,note_on,0,0,4,,,,,,,,,3,,,44,55
562320,note_off,120,0,4,,,,,,,,,3,,,44,0
562320,note_on,0,0,4,,,,,,,,,3,,,45,54
562440,note_off,120,0,4,,,,,,,,,3,,,45,0
562440,note_on,0,0,4,,,,,,,,,3,,,39,52
562560,note_off,480,0,3,,,,,,,,,2,,,52,0
562560,note_off,120,0,4,,,,,,,,,3,,,39,0
562560,note_on,0,0,4,,,,,,,,,3,,,40,51
562680,set_tempo,480,1,0,,,,,,508474,,,,,,,
562680,note_off,120,0,4,,,,,,,,,3,,,40,0
562680,note_on,0,0,4,,,,,,,,,3,,,42,50
562800,note_on,0,0,2,,,,,,,,,1,,,66,54
562800,note_off,720,0,2,,,,,,,,,1,,,63,0
562800,note_on,0,0,4,,,,,,,,,3,,,35,48
562800,note_off,120,0,4,,,,,,,,,3,,,42,0
562920,set_tempo,240,1,0,,,,,,500000,,,,,,,
562920,note_off,120,0,2,,,,,,,,,1,,,66,0
562920,note_on,0,0,2,,,,,,,,,1,,,68,51
563040,note_on,0,0,1,,,,,,,,,0,,,73,60
563040,note_off,120,0,2,,,,,,,,,1,,,68,0
563040,note_on,0,0,2,,,,,,,,,1,,,69,50
563040,note_off,960,0,1,,,,,,,,,0,,,69,0
563160,note_off,120,0,2,,,,,,,,,1,,,69,0
563160,note_on,0,0,2,,,,,,,,,1,,,63,49
563280,note_on,0,0,1,,,,,,,,,0,,,71,59
563280,note_off,240,0,1,,,,,,,,,0,,,73,0
563280,note_off,120,0,2,,,,,,,,,1,,,63,0
563280,note_on,0,0,2,,,,,,,,,1,,,64,48
563280,note_off,480,0,4,,,,,,,,,3,,,35,0
563400,note_off,120,0,2,,,,,,,,,1,,,64,0
563400,note_on,0,0,2,,,,,,,,,1,,,66,47
563400,set_tempo,480,1,0,,,,,,508474,,,,,,,
563520,note_on,0,0,1,,,,,,,,,0,,,69,58
563520,note_off,240,0,1,,,,,,,,,0,,,71,0
563520,note_on,240,0,4,,,,,,,,,3,,,59,55
563520,note_off,120,0,2,,,,,,,,,1,,,66,0
563520,note_on,0,0,2,,,,,,,,,1,,,64,46
563640,set_tempo,240,1,0,,,,,,500000,,,,,,,
563640,note_on,0,0,4,,,,,,,,,3,,,63,51
563640,note_off,120,0,4,,,,,,,,,3,,,59,0
563760,note_off,120,0,4,,,,,,,,,3,,,63,0
563760,note_off,240,0,2,,,,,,,,,1,,,64,0
563760,note_on,0,0,4,,,,,,,,,3,,,64,50
563880,note_on,0,0,4,,,,,,,,,3,,,56,48
563880,note_off,120,0,4,,,,,,,,,3,,,64,0
564000,note_off,120,0,4,,,,,,,,,3,,,56,0
564000,note_on,0,0,4,,,,,,,,,3,,,57,47
564000,note_off,480,0,1,,,,,,,,,0,,,69,0
564000,note_on,0,0,1,,,,,,,,,0,,,68,56
564120,set_tempo,480,1,0,,,,,,508474,,,,,,,
564120,note_on,0,0,4,,,,,,,,,3,,,59,46
564120,note_off,120,0,4,,,,,,,,,3,,,57,0
564240,note_on,0,0,4,,,,,,,,,3,,,47,45
564240,note_on,480,0,2,,,,,,,,,1,,,68,52
564240,note_off,120,0,4,,,,,,,,,3,,,59,0
564240,note_on,0,0,1,,,,,,,,,0,,,76,59
564240,note_off,240,0,1,,,,,,,,,0,,,68,0
564360,note_off,120,0,2,,,,,,,,,1,,,68,0
564360,note_on,0,0,2,,,,,,,,,1,,,69,49
564360,set_tempo,240,1,0,,,,,,500000,,,,,,,
564480,note_off,120,0,2,,,,,,,,,1,,,69,0
564480,note_on,0,0,2,,,,,,,,,1,,,71,48
564600,note_off,120,0,2,,,,,,,,,1,,,71,0
564600,note_on,0,0,2,,,,,,,,,1,,,64,47
564720,note_off,120,0,2,,,,,,,,,1,,,64,0
564720,note_on,0,0,2,,,,,,,,,1,,,66,47
564720,note_off,480,0,4,,,,,,,,,3,,,47,0
564840,set_tempo,480,1,0,,,,,,508474,,,,,,,
564840,note_on,0,0,2,,,,,,,,,1,,,68,46
564840,note_off,120,0,2,,,,,,,,,1,,,66,0
564960,note_on,0,0,2,,,,,,,,,1,,,59,45
564960,note_off,120,0,2,,,,,,,,,1,,,68,0
564960,note_on,240,0,4,,,,,,,,,3,,,56,53
565080,note_on,0,0,4,,,,,,,,,3,,,57,51
565080,set_tempo,240,1,0,,,,,,500000,,,,,,,
565080,note_off,120,0,4,,,,,,,,,3,,,56,0
565200,note_on,0,0,1,,,,,,,,,0,,,80,53
565200,note_on,0,0,4,,,,,,,,,3,,,59,49
565200,note_off,120,0,4,,,,,,,,,3,,,57,0
565200,note_off,240,0,2,,,,,,,,,1,,,59,0
565200,note_off,960,0,1,,,,,,,,,0,,,76,0
565320,note_on,0,0,4,,,,,,,,,3,,,52,48
565320,note_off,120,0,4,,,,,,,,,3,,,59,0
565440,note_on,0,0,4,,,,,,,,,3,,,54,46
565440,note_on,0,0,1,,,,,,,,,0,,,78,52
565440,note_off,240,0,1,,,,,,,,,0,,,80,0
565440,note_off,120,0,4,,,,,,,,,3,,,52,0
565560,note_off,120,0,4,,,,,,,,,3,,,54,0
565560,note_on,0,0,4,,,,,,,,,3,,,56,44
565560,set_tempo,480,1,0,,,,,,508474,,,,,,,
565680,note_on,0,0,1,,,,,,,,,0,,,76,50
565680,note_on,0,0,4,,,,,,,,,3,,,47,43
565680,note_off,120,0,4,,,,,,,,,3,,,56,0
565680,note_on,480,0,2,,,,,,,,,1,,,66,50
565680,note_off,240,0,1,,,,,,,,,0,,,78,0
565800,note_on,0,0,2,,,,,,,,,1,,,68,45
565800,note_off,120,0,2,,,,,,,,,1,,,66,0
565800,set_tempo,240,1,0,,,,,,500000,,,,,,,
565920,note_on,0,0,2,,,,,,,,,1,,,69,45
565920,note_off,120,0,2,,,,,,,,,1,,,68,0
566040,note_off,120,0,2,,,,,,,,,1,,,69,0
566040,note_on,0,0,2,,,,,,,,,1,,,66,44
566160,note_off,480,0,4,,,,,,,,,3,,,47,0
566160,note_off,120,0,2,,,,,,,,,1,,,66,0
566160,note_on,0,0,2,,,,,,,,,1,,,68,43
566280,note_off,120,0,2,,,,,,,,,1,,,68,0
566280,note_on,0,0,2,,,,,,,,,1,,,69,43
566280,set_tempo,480,1,0,,,,,,508474,,,,,,,
566400,note_on,0,0,1,,,,,,,,,0,,,81,55
566400,note_off,120,0,2,,,,,,,,,1,,,69,0
566400,note_on,240,0,4,,,,,,,,,3,,,54,51
566400,note_on,0,0,2,,,,,,,,,1,,,75,42
566400,note_off,720,0,1,,,,,,,,,0,,,76,0
566400,note_on,0,0,2,,,,,,,,,1,,,59,42
566520,note_on,0,0,4,,,,,,,,,3,,,56,45
566520,note_off,120,0,4,,,,,,,,,3,,,54,0
566520,set_tempo,240,1,0,,,,,,500000,,,,,,,
566640,note_off,240,0,2,,,,,,,,,1,,,59,0
566640,note_on,0,0,4,,,,,,,,,3,,,57,45
566640,note_off,120,0,4,,,,,,,,,3,,,56,0
566760,note_on,0,0,4,,,,,,,,,3,,,54,45
566760,note_off,120,0,4,,,,,,,,,3,,,57,0
566880,note_on,0,0,4,,,,,,,,,3,,,56,45
566880,note_off,120,0,4,,,,,,,,,3,,,54,0
567000,set_tempo,480,1,0,,,,,,508474,,,,,,,
567000,note_on,0,0,4,,,,,,,,,3,,,57,45
567000,note_off,120,0,4,,,,,,,,,3,,,56,0
567120,note_on,0,0,4,,,,,,,,,3,,,47,49
567120,note_off,120,0,4,,,,,,,,,3,,,57,0
567120,note_off,480,0,2,,,,,,,,,1,,,75,0
567120,note_on,0,0,2,,,,,,,,,1,,,78,47
567240,set_tempo,240,1,0,,,,,,500000,,,,,,,
567240,note_on,0,0,4,,,,,,,,,3,,,49,44
567240,note_off,120,0,4,,,,,,,,,3,,,47,0
567360,note_on,0,0,4,,,,,,,,,3,,,51,44
567360,note_off,120,0,4,,,,,,,,,3,,,49,0
567360,note_off,960,0,1,,,,,,,,,0,,,81,0
567360,note_on,0,0,1,,,,,,,,,0,,,85,52
567480,note_on,0,0,4,,,,,,,,,3,,,47,44
567480,note_off,120,0,4,,,,,,,,,3,,,51,0
567600,note_on,0,0,4,,,,,,,,,3,,,49,44
567600,note_off,120,0,4,,,,,,,,,3,,,47,0
567600,note_on,0,0,1,,,,,,,,,0,,,83,52
567600,note_off,240,0,1,,,,,,,,,0,,,85,0
567720,note_on,0,0,4,,,,,,,,,3,,,51,43
567720,set_tempo,480,1,0,,,,,,508474,,,,,,,
567720,note_off,120,0,4,,,,,,,,,3,,,49,0
567840,note_on,0,0,4,,,,,,,,,3,,,47,48
567840,note_off,120,0,4,,,,,,,,,3,,,51,0
567840,note_on,0,0,2,,,,,,,,,1,,,78,44
567840,note_on,0,0,1,,,,,,,,,0,,,81,51
567840,note_off,240,0,1,,,,,,,,,0,,,83,0
567840,note_off,720,0,2,,,,,,,,,1,,,78,0
567960,set_tempo,240,1,0,,,,,,500000,,,,,,,
567960,note_off,120,0,4,,,,,,,,,3,,,47,0
567960,note_on,0,0,4,,,,,,,,,3,,,51,43
568080,note_off,120,0,4,,,,,,,,,3,,,51,0
568080,note_on,0,0,4,,,,,,,,,3,,,52,43
568200,note_off,120,0,4,,,,,,,,,3,,,52,0
568200,note_on,0,0,4,,,,,,,,,3,,,44,43
568320,note_on,0,0,2,,,,,,,,,1,,,76,42
568320,note_off,120,0,4,,,,,,,,,3,,,44,0
568320,note_off,480,0,2,,,,,,,,,1,,,78,0
568320,note_on,0,0,4,,,,,,,,,3,,,45,42
568320,note_off,480,0,1,,,,,,,,,0,,,81,0
568320,note_on,0,0,1,,,,,,,,,0,,,80,50
568440,note_on,0,0,4,,,,,,,,,3,,,47,42
568440,set_tempo,480,1,0,,,,,,508474,,,,,,,
568440,note_off,120,0,4,,,,,,,,,3,,,45,0
568560,note_off,240,0,1,,,,,,,,,0,,,80,0
568560,note_on,0,0,1,,,,,,,,,0,,,80,48
568560,note_off,120,0,4,,,,,,,,,3,,,47,0
568560,note_off,240,0,2,,,,,,,,,1,,,76,0
568560,note_on,0,0,4,,,,,,,,,3,,,40,57
568680,note_off,120,0,1,,,,,,,,,0,,,80,0
568680,note_on,0,0,1,,,,,,,,,0,,,81,43
568680,set_tempo,240,1,0,,,,,,500000,,,,,,,
568800,note_off,120,0,1,,,,,,,,,0,,,81,0
568800,note_on,0,0,1,,,,,,,,,0,,,83,44
568920,note_on,0,0,1,,,,,,,,,0,,,76,44
568920,note_off,120,0,1,,,,,,,,,0,,,83,0
569040,note_off,120,0,1,,,,,,,,,0,,,76,0
569040,note_on,0,0,1,,,,,,,,,0,,,78,45
569160,set_tempo,480,1,0,,,,,,508474,,,,,,,
569160,note_on,0,0,1,,,,,,,,,0,,,80,45
569160,note_off,120,0,1,,,,,,,,,0,,,78,0
569280,note_on,720,0,2,,,,,,,,,1,,,68,51
569280,note_off,120,0,1,,,,,,,,,0,,,80,0
569280,note_on,0,0,1,,,,,,,,,0,,,71,46
569400,set_tempo,240,1,0,,,,,,500000,,,,,,,
569400,note_on,0,0,2,,,,,,,,,1,,,69,47
569400,note_off,120,0,2,,,,,,,,,1,,,68,0
569520,note_on,0,0,2,,,,,,,,,1,,,71,46
569520,note_off,960,0,4,,,,,,,,,3,,,40,0
569520,note_off,240,0,1,,,,,,,,,0,,,71,0
569520,note_on,0,0,4,,,,,,,,,3,,,44,55
569520,note_off,120,0,2,,,,,,,,,1,,,69,0
569640,note_off,120,0,2,,,,,,,,,1,,,71,0
569640,note_on,0,0,2,,,,,,,,,1,,,64,45
569760,note_off,120,0,2,,,,,,,,,1,,,64,0
569760,note_on,0,0,4,,,,,,,,,3,,,42,54
569760,note_on,0,0,2,,,,,,,,,1,,,66,44
569760,note_off,240,0,4,,,,,,,,,3,,,44,0
569880,set_tempo,480,1,0,,,,,,508474,,,,,,,
569880,note_off,120,0,2,,,,,,,,,1,,,66,0
569880,note_on,0,0,2,,,,,,,,,1,,,68,43
570000,note_off,120,0,2,,,,,,,,,1,,,68,0
570000,note_off,240,0,4,,,,,,,,,3,,,42,0
570000,note_on,0,0,4,,,,,,,,,3,,,40,54
570000,note_on,0,0,2,,,,,,,,,1,,,59,42
570000,note_on,480,0,1,,,,,,,,,0,,,69,54
570120,set_tempo,240,1,0,,,,,,500000,,,,,,,
570120,note_on,0,0,1,,,,,,,,,0,,,71,49
570120,note_off,120,0,1,,,,,,,,,0,,,69,0
570240,note_on,0,0,1,,,,,,,,,0,,,73,50
570240,note_off,120,0,1,,,,,,,,,0,,,71,0
570360,note_on,0,0,1,,,,,,,,,0,,,66,50
570360,note_off,120,0,1,,,,,,,,,0,,,73,0
570480,note_off,480,0,2,,,,,,,,,1,,,59,0
570480,note_on,0,0,1,,,,,,,,,0,,,68,51
570480,note_off,120,0,1,,,,,,,,,0,,,66,0
570480,note_off,480,0,4,,,,,,,,,3,,,40,0
570480,note_on,0,0,4,,,,,,,,,3,,,39,52
570600,note_on,0,0,1,,,,,,,,,0,,,69,51
570600,note_off,120,0,1,,,,,,,,,0,,,68,0
570720,note_on,0,0,1,,,,,,,,,0,,,78,57
570720,note_off,120,0,1,,,,,,,,,0,,,69,0
570720,note_on,0,0,4,,,,,,,,,3,,,39,52
570720,note_off,240,0,4,,,,,,,,,3,,,39,0
570720,note_on,8160,0,3,,,,,,,,,2,,,45,57
570840,set_tempo,720,1,0,,,,,,508474,,,,,,,
570840,note_off,120,0,1,,,,,,,,,0,,,78,0
570840,note_on,0,0,1,,,,,,,,,0,,,80,52
570960,note_on,0,0,4,,,,,,,,,3,,,37,50
570960,note_off,240,0,4,,,,,,,,,3,,,39,0
570960,note_off,120,0,1,,,,,,,,,0,,,80,0
570960,note_on,0,0,1,,,,,,,,,0,,,81,53
571080,set_tempo,240,1,0,,,,,,500000,,,,,,,
571080,note_off,120,0,1,,,,,,,,,0,,,81,0
571080,note_on,0,0,1,,,,,,,,,0,,,78,53
571200,note_on,0,0,4,,,,,,,,,3,,,35,51
571200,note_off,240,0,4,,,,,,,,,3,,,37,0
571200,note_on,0,0,1,,,,,,,,,0,,,80,54
571200,note_off,120,0,1,,,,,,,,,0,,,78,0
571320,note_on,0,0,1,,,,,,,,,0,,,81,54
571320,note_off,120,0,1,,,,,,,,,0,,,80,0
571320,set_tempo,240,1,0,,,,,,508474,,,,,,,
571440,note_off,120,0,1,,,,,,,,,0,,,81,0
571440,note_on,0,0,4,,,,,,,,,3,,,33,52
571440,note_on,0,0,1,,,,,,,,,0,,,83,60
571440,note_off,240,0,4,,,,,,,,,3,,,35,0
571560,note_on,0,0,1,,,,,,,,,0,,,85,55
571560,set_tempo,240,1,0,,,,,,500000,,,,,,,
571560,note_off,120,0,1,,,,,,,,,0,,,83,0
571680,note_on,0,0,1,,,,,,,,,0,,,87,56
571680,note_on,0,0,3,,,,,,,,,2,,,49,53
571680,note_on,0,0,4,,,,,,,,,3,,,37,53
571680,note_off,240,0,4,,,,,,,,,3,,,33,0
571680,note_off,960,0,3,,,,,,,,,2,,,45,0
571680,note_off,120,0,1,,,,,,,,,0,,,85,0
571800,note_off,120,0,1,,,,,,,,,0,,,87,0
571800,note_on,0,0,1,,,,,,,,,0,,,83,56
571920,note_off,240,0,4,,,,,,,,,3,,,37,0
571920,note_on,0,0,4,,,,,,,,,3,,,35,54
571920,note_off,240,0,3,,,,,,,,,2,,,49,0
571920,note_on,0,0,1,,,,,,,,,0,,,85,57
571920,note_off,120,0,1,,,,,,,,,0,,,83,0
571920,note_on,0,0,3,,,,,,,,,2,,,47,52
572040,note_off,120,0,1,,,,,,,,,0,,,85,0
572040,set_tempo,480,1,0,,,,,,508474,,,,,,,
572040,note_on,0,0,1,,,,,,,,,0,,,87,57
572160,note_on,0,0,1,,,,,,,,,0,,,88,62
572160,note_off,240,0,4,,,,,,,,,3,,,35,0
572160,note_on,0,0,3,,,,,,,,,2,,,45,51
572160,note_off,240,0,3,,,,,,,,,2,,,47,0
572160,note_on,0,0,4,,,,,,,,,3,,,33,57
572160,note_off,120,0,1,,,,,,,,,0,,,87,0
572280,set_tempo,240,1,0,,,,,,500000,,,,,,,
572280,note_off,120,0,1,,,,,,,,,0,,,88,0
572280,note_on,0,0,1,,,,,,,,,0,,,90,58
572400,note_on,0,0,1,,,,,,,,,0,,,92,59
572400,note_off,120,0,1,,,,,,,,,0,,,90,0
572520,note_on,0,0,1,,,,,,,,,0,,,88,59
572520,note_off,120,0,1,,,,,,,,,0,,,92,0
572640,note_on,0,0,3,,,,,,,,,2,,,44,49
572640,note_off,480,0,3,,,,,,,,,2,,,45,0
572640,note_off,480,0,4,,,,,,,,,3,,,33,0
572640,note_on,0,0,4,,,,,,,,,3,,,32,52
572640,note_on,0,0,1,,,,,,,,,0,,,90,58
572640,note_off,120,0,1,,,,,,,,,0,,,88,0
572760,note_on,0,0,1,,,,,,,,,0,,,92,58
572760,note_off,120,0,1,,,,,,,,,0,,,90,0
572760,set_tempo,480,1,0,,,,,,508474,,,,,,,
572880,note_off,120,0,1,,,,,,,,,0,,,92,0
572880,note_off,240,0,4,,,,,,,,,3,,,32,0
572880,note_on,0,0,4,,,,,,,,,3,,,42,57
572880,note_off,240,0,3,,,,,,,,,2,,,44,0
572880,note_on,0,0,3,,,,,,,,,2,,,54,55
572880,note_on,0,0,1,,,,,,,,,0,,,80,62
573000,note_on,0,0,1,,,,,,,,,0,,,81,56
573000,note_off,120,0,1,,,,,,,,,0,,,80,0
573000,set_tempo,240,1,0,,,,,,500000,,,,,,,
573120,note_off,120,0,1,,,,,,,,,0,,,81,0
573120,note_on,0,0,1,,,,,,,,,0,,,83,56
573240,note_off,120,0,1,,,,,,,,,0,,,83,0
573240,note_on,0,0,1,,,,,,,,,0,,,80,55
573360,note_on,0,0,1,,,,,,,,,0,,,81,54
573360,note_on,0,0,3,,,,,,,,,2,,,52,51
573360,note_off,480,0,3,,,,,,,,,2,,,54,0
573360,note_off,480,0,4,,,,,,,,,3,,,42,0
573360,note_on,0,0,4,,,,,,,,,3,,,40,49
573360,note_off,120,0,1,,,,,,,,,0,,,80,0
573480,note_off,120,0,1,,,,,,,,,0,,,81,0
573480,note_on,0,0,1,,,,,,,,,0,,,83,54
573480,set_tempo,480,1,0,,,,,,508474,,,,,,,
573600,note_off,240,0,3,,,,,,,,,2,,,52,0
573600,note_on,0,0,1,,,,,,,,,0,,,83,57
573600,note_off,120,0,1,,,,,,,,,0,,,83,0
573600,note_on,0,0,3,,,,,,,,,2,,,52,48
573600,note_on,3120,0,2,,,,,,,,,1,,,71,55
573600,note_on,0,0,4,,,,,,,,,3,,,49,53
573600,note_off,240,0,4,,,,,,,,,3,,,40,0
573720,note_on,0,0,3,,,,,,,,,2,,,54,47
573720,note_off,120,0,3,,,,,,,,,2,,,52,0
573840,note_on,0,0,3,,,,,,,,,2,,,55,46
573840,note_off,120,0,3,,,,,,,,,2,,,54,0
573960,note_on,0,0,3,,,,,,,,,2,,,52,46
573960,note_off,120,0,3,,,,,,,,,2,,,55,0
574020,set_tempo,540,1,0,,,,,,517241,,,,,,,
574080,note_off,480,0,4,,,,,,,,,3,,,49,0
574080,note_on,0,0,3,,,,,,,,,2,,,54,45
574080,note_off,120,0,3,,,,,,,,,2,,,52,0
574080,note_on,0,0,1,,,,,,,,,0,,,82,50
574080,note_off,480,0,1,,,,,,,,,0,,,83,0
574080,note_off,480,0,2,,,,,,,,,1,,,71,0
574080,note_on,0,0,4,,,,,,,,,3,,,48,49
574080,note_on,0,0,2,,,,,,,,,1,,,70,50
574200,set_tempo,180,1,0,,,,,,560747,,,,,,,
574200,note_off,120,0,3,,,,,,,,,2,,,54,0
574200,note_on,0,0,3,,,,,,,,,2,,,55,45
574320,note_on,0,0,4,,,,,,,,,3,,,48,47
574320,set_tempo,120,1,0,,,,,,508474,,,,,,,
574320,note_on,0,0,1,,,,,,,,,0,,,82,54
574320,note_off,240,0,2,,,,,,,,,1,,,70,0
574320,note_off,120,0,3,,,,,,,,,2,,,55,0
574320,note_off,240,0,4,,,,,,,,,3,,,48,0
574320,note_off,240,0,1,,,,,,,,,0,,,82,0
574440,note_on,0,0,1,,,,,,,,,0,,,79,48
574440,note_off,120,0,1,,,,,,,,,0,,,82,0
574440,note_on,120,0,3,,,,,,,,,2,,,52,44
574440,set_tempo,120,1,0,,,,,,500000,,,,,,,
574560,note_on,0,0,3,,,,,,,,,2,,,55,43
574560,note_off,120,0,3,,,,,,,,,2,,,52,0
574560,note_on,0,0,1,,,,,,,,,0,,,76,48
574560,note_off,120,0,1,,,,,,,,,0,,,79,0
574680,note_off,120,0,3,,,,,,,,,2,,,55,0
574680,note_on,0,0,3,,,,,,,,,2,,,58,43
574680,note_on,0,0,1,,,,,,,,,0,,,70,47
574680,note_off,120,0,1,,,,,,,,,0,,,76,0
574800,note_on,0,0,3,,,,,,,,,2,,,55,42
574800,note_off,120,0,3,,,,,,,,,2,,,58,0
574800,note_on,0,0,1,,,,,,,,,0,,,76,46
574800,note_off,120,0,1,,,,,,,,,0,,,70,0
574920,note_on,0,0,1,,,,,,,,,0,,,79,46
574920,note_off,120,0,1,,,,,,,,,0,,,76,0
574920,note_off,120,0,3,,,,,,,,,2,,,55,0
574920,note_on,0,0,3,,,,,,,,,2,,,52,42
575040,note_off,120,0,1,,,,,,,,,0,,,79,0
575040,note_on,0,0,3,,,,,,,,,2,,,55,41
575040,note_off,120,0,3,,,,,,,,,2,,,52,0
575040,note_on,0,0,1,,,,,,,,,0,,,82,45
575160,note_on,0,0,1,,,,,,,,,0,,,79,44
575160,note_off,120,0,3,,,,,,,,,2,,,55,0
575160,note_off,120,0,1,,,,,,,,,0,,,82,0
575160,note_on,0,0,3,,,,,,,,,2,,,52,41
575280,note_on,0,0,3,,,,,,,,,2,,,53,40
575280,note_off,120,0,3,,,,,,,,,2,,,52,0
575280,note_off,120,0,1,,,,,,,,,0,,,79,0
575280,note_on,0,0,1,,,,,,,,,0,,,81,44
575400,note_off,120,0,1,,,,,,,,,0,,,81,0
575400,note_on,0,0,3,,,,,,,,,2,,,57,40
575400,note_on,0,0,1,,,,,,,,,0,,,77,43
575400,note_off,120,0,3,,,,,,,,,2,,,53,0
575520,note_on,0,0,1,,,,,,,,,0,,,79,42
575520,note_on,0,0,3,,,,,,,,,2,,,58,39
575520,note_off,120,0,1,,,,,,,,,0,,,77,0
575520,note_off,120,0,3,,,,,,,,,2,,,57,0
575640,note_off,120,0,3,,,,,,,,,2,,,58,0
575640,note_on,0,0,3,,,,,,,,,2,,,55,39
575640,set_tempo,1200,1,0,,,,,,508474,,,,,,,
575640,note_off,120,0,1,,,,,,,,,0,,,79,0
575640,note_on,0,0,1,,,,,,,,,0,,,76,42
575740,note_off,1420,0,4,,,,,,,,,3,,,48,0
575760,note_off,120,0,1,,,,,,,,,0,,,76,0
575760,note_on,0,0,1,,,,,,,,,0,,,82,41
575760,note_off,120,0,3,,,,,,,,,2,,,55,0
575760,note_on,1440,0,2,,,,,,,,,1,,,76,41
575760,note_on,20,0,4,,,,,,,,,3,,,48,38
575955,set_tempo,315,1,0,,,,,,517241,,,,,,,
576000,note_off,240,0,1,,,,,,,,,0,,,82,0
576000,note_off,240,0,4,,,,,,,,,3,,,48,0
576000,note_on,0,0,4,,,,,,,,,3,,,47,37
576000,note_off,240,0,2,,,,,,,,,1,,,76,0
576000,note_on,0,0,2,,,,,,,,,1,,,75,40
576000,note_on,0,0,1,,,,,,,,,0,,,83,40
576156,note_off,156,0,1,,,,,,,,,0,,,83,0
576156,note_off,156,0,4,,,,,,,,,3,,,47,0
576156,note_off,156,0,2,,,,,,,,,1,,,75,0
576240,note_on,84,0,1,,,,,,,,,0,,,74,38
576240,note_on,84,0,4,,,,,,,,,3,,,59,36
576250,set_tempo,295,1,0,,,,,,652173,,,,,,,
576396,note_off,156,0,4,,,,,,,,,3,,,59,0
576396,note_off,156,0,1,,,,,,,,,0,,,74,0
576480,note_on,0,0,4,,,,,,,,,3,,,49,37
576480,note_on,0,0,1,,,,,,,,,0,,,74,39
576480,control_change,324,0,2,,,,,,,64,0,1,,,,
576480,control_change,84,0,4,,,,,,,64,0,3,,,,
576480,control_change,84,0,1,,,,,,,64,0,0,,,,
576480,set_tempo,230,1,0,,,,,,517241,,,,,,,
576480,control_change,720,0,3,,,,,,,64,0,2,,,,
576540,control_change,60,0,1,,,,,,,64,127,0,,,,
576540,control_change,60,0,4,,,,,,,64,127,3,,,,
576540,control_change,60,0,3,,,,,,,64,127,2,,,,
576600,note_on,0,0,3,,,,,,,,,2,,,53,37
576600,note_off,60,0,4,,,,,,,,,3,,,49,0
576600,note_on,0,0,3,,,,,,,,,2,,,71,39
576600,note_on,60,0,3,,,,,,,,,2,,,65,39
576600,note_on,0,0,3,,,,,,,,,2,,,68,39
576600,note_off,60,0,1,,,,,,,,,0,,,74,0
576600,note_on,0,0,3,,,,,,,,,2,,,56,37
576600,note_on,0,0,3,,,,,,,,,2,,,59,37
576720,note_off,0,0,3,,,,,,,,,2,,,71,0
576720,note_on,120,0,4,,,,,,,,,3,,,49,37
576720,note_off,0,0,3,,,,,,,,,2,,,53,0
576720,note_off,0,0,3,,,,,,,,,2,,,65,0
576720,note_off,0,0,3,,,,,,,,,2,,,56,0
576720,note_on,120,0,1,,,,,,,,,0,,,74,39
576720,note_off,0,0,3,,,,,,,,,2,,,68,0
576720,note_off,120,0,3,,,,,,,,,2,,,59,0
576840,note_on,120,0,3,,,,,,,,,2,,,68,38
576840,note_on,0,0,3,,,,,,,,,2,,,65,38
576840,note_on,0,0,3,,,,,,,,,2,,,53,37
576840,note_on,0,0,3,,,,,,,,,2,,,56,37
576840,note_on,0,0,3,,,,,,,,,2,,,59,37
576840,note_off,120,0,4,,,,,,,,,3,,,49,0
576840,note_off,120,0,1,,,,,,,,,0,,,74,0
576840,note_on,0,0,3,,,,,,,,,2,,,71,38
576960,note_off,120,0,3,,,,,,,,,2,,,59,0
576960,note_on,120,0,4,,,,,,,,,3,,,49,36
576960,note_off,0,0,3,,,,,,,,,2,,,53,0
576960,note_off,0,0,3,,,,,,,,,2,,,71,0
576960,note_off,0,0,3,,,,,,,,,2,,,65,0
576960,note_off,0,0,3,,,,,,,,,2,,,68,0
576960,note_off,0,0,3,,,,,,,,,2,,,56,0
576960,note_on,120,0,1,,,,,,,,,0,,,74,38
577080,note_on,0,0,3,,,,,,,,,2,,,59,36
577080,note_on,120,0,3,,,,,,,,,2,,,68,38
577080,note_on,0,0,3,,,,,,,,,2,,,65,38
577080,note_on,0,0,3,,,,,,,,,2,,,71,38
577080,note_on,0,0,3,,,,,,,,,2,,,56,36
577080,note_on,0,0,3,,,,,,,,,2,,,53,36
577080,note_off,120,0,4,,,,,,,,,3,,,49,0
577080,note_off,120,0,1,,,,,,,,,0,,,74,0
577200,note_off,0,0,3,,,,,,,,,2,,,71,0
577200,note_off,0,0,3,,,,,,,,,2,,,65,0
577200,note_on,120,0,4,,,,,,,,,3,,,49,36
577200,note_on,120,0,1,,,,,,,,,0,,,84,49
577200,note_off,0,0,3,,,,,,,,,2,,,68,0
577200,note_off,0,0,3,,,,,,,,,2,,,53,0
577200,note_off,0,0,3,,,,,,,,,2,,,56,0
577200,note_off,120,0,3,,,,,,,,,2,,,59,0
577320,note_on,120,0,3,,,,,,,,,2,,,59,36
577320,note_off,120,0,4,,,,,,,,,3,,,49,0
577320,note_on,0,0,3,,,,,,,,,2,,,56,36
577320,note_off,120,0,1,,,,,,,,,0,,,84,0
577320,note_on,0,0,1,,,,,,,,,0,,,85,46
577320,note_on,0,0,3,,,,,,,,,2,,,53,36
577440,note_off,120,0,3,,,,,,,,,2,,,53,0
577440,note_off,120,0,1,,,,,,,,,0,,,85,0
577440,note_off,0,0,3,,,,,,,,,2,,,59,0
577440,note_on,120,0,4,,,,,,,,,3,,,49,36
577440,note_on,0,0,1,,,,,,,,,0,,,86,44
577440,note_off,0,0,3,,,,,,,,,2,,,56,0
577560,note_on,0,0,1,,,,,,,,,0,,,84,42
577560,note_off,120,0,1,,,,,,,,,0,,,86,0
577560,note_on,0,0,3,,,,,,,,,2,,,56,35
577560,note_off,120,0,4,,,,,,,,,3,,,49,0
577560,note_on,0,0,3,,,,,,,,,2,,,59,35
577560,note_on,120,0,3,,,,,,,,,2,,,53,35
577680,note_on,120,0,4,,,,,,,,,3,,,49,35
577680,note_off,0,0,3,,,,,,,,,2,,,53,0
577680,note_off,0,0,3,,,,,,,,,2,,,56,0
577680,note_off,120,0,3,,,,,,,,,2,,,59,0
577680,note_off,120,0,1,,,,,,,,,0,,,84,0
577680,note_on,0,0,1,,,,,,,,,0,,,85,41
577800,set_tempo,1320,1,0,,,,,,526315,,,,,,,
577800,note_on,120,0,3,,,,,,,,,2,,,53,35
577800,note_on,0,0,3,,,,,,,,,2,,,59,35
577800,note_off,120,0,4,,,,,,,,,3,,,49,0
577800,note_on,0,0,3,,,,,,,,,2,,,56,35
577920,note_off,0,0,3,,,,,,,,,2,,,53,0
577920,set_tempo,120,1,0,,,,,,517241,,,,,,,
577920,note_on,0,0,1,,,,,,,,,0,,,73,36
577920,note_off,0,0,1,,,,,,,,,0,,,85,0
577920,control_change,240,0,1,,,,,,,64,0,0,,,,
577920,control_change,120,0,3,,,,,,,64,0,2,,,,
577920,note_off,0,0,3,,,,,,,,,2,,,56,0
577920,control_change,120,0,4,,,,,,,64,0,3,,,,
577920,note_off,0,0,3,,,,,,,,,2,,,59,0
577920,note_on,0,0,4,,,,,,,,,3,,,49,35
577980,control_change,60,0,1,,,,,,,64,127,0,,,,
577980,control_change,60,0,3,,,,,,,64,127,2,,,,
577980,control_change,60,0,4,,,,,,,64,127,3,,,,
578040,note_on,0,0,3,,,,,,,,,2,,,54,34
578040,note_on,0,0,3,,,,,,,,,2,,,57,34
578040,note_on,0,0,3,,,,,,,,,2,,,66,36
578040,note_off,60,0,4,,,,,,,,,3,,,49,0
578040,note_off,60,0,1,,,,,,,,,0,,,73,0
578040,note_on,60,0,3,,,,,,,,,2,,,69,36
578160,note_on,120,0,4,,,,,,,,,3,,,49,34
578160,note_on,120,0,1,,,,,,,,,0,,,73,35
578160,note_off,120,0,3,,,,,,,,,2,,,54,0
578160,note_off,0,0,3,,,,,,,,,2,,,57,0
578160,note_off,0,0,3,,,,,,,,,2,,,66,0
578160,note_off,0,0,3,,,,,,,,,2,,,69,0
578280,note_on,120,0,3,,,,,,,,,2,,,66,35
578280,note_off,120,0,1,,,,,,,,,0,,,73,0
578280,note_on,0,0,3,,,,,,,,,2,,,57,34
578280,note_on,0,0,3,,,,,,,,,2,,,69,35
578280,note_off,120,0,4,,,,,,,,,3,,,49,0
578280,note_on,0,0,3,,,,,,,,,2,,,54,34
578400,note_on,120,0,1,,,,,,,,,0,,,73,35
578400,note_on,120,0,4,,,,,,,,,3,,,49,34
578400,note_off,120,0,3,,,,,,,,,2,,,54,0
578400,note_off,0,0,3,,,,,,,,,2,,,69,0
578400,note_off,0,0,3,,,,,,,,,2,,,57,0
578400,note_off,0,0,3,,,,,,,,,2,,,66,0
578520,note_off,120,0,1,,,,,,,,,0,,,73,0
578520,note_off,120,0,4,,,,,,,,,3,,,49,0
578520,set_tempo,600,1,0,,,,,,526315,,,,,,,
578520,note_on,120,0,3,,,,,,,,,2,,,66,35
578520,note_on,0,0,3,,,,,,,,,2,,,54,34
578520,note_on,0,0,3,,,,,,,,,2,,,57,34
578520,note_on,0,0,3,,,,,,,,,2,,,69,35
578640,note_off,0,0,3,,,,,,,,,2,,,69,0
578640,note_off,0,0,3,,,,,,,,,2,,,54,0
578640,note_on,0,0,1,,,,,,,,,0,,,73,34
578640,control_change,120,0,3,,,,,,,64,0,2,,,,
578640,control_change,120,0,1,,,,,,,64,0,0,,,,
578640,note_on,0,0,4,,,,,,,,,3,,,47,33
578640,control_change,120,0,4,,,,,,,64,0,3,,,,
578640,set_tempo,120,1,0,,,,,,517241,,,,,,,
578640,note_off,0,0,3,,,,,,,,,2,,,57,0
578640,note_off,0,0,3,,,,,,,,,2,,,66,0
578700,control_change,60,0,3,,,,,,,64,127,2,,,,
578700,control_change,60,0,4,,,,,,,64,127,3,,,,
578700,control_change,60,0,1,,,,,,,64,127,0,,,,
578760,note_on,0,0,3,,,,,,,,,2,,,69,34
578760,note_on,60,0,3,,,,,,,,,2,,,63,34
578760,note_off,60,0,1,,,,,,,,,0,,,73,0
578760,note_on,0,0,3,,,,,,,,,2,,,66,34
578760,note_on,0,0,3,,,,,,,,,2,,,57,33
578760,note_on,0,0,3,,,,,,,,,2,,,54,33
578760,note_off,60,0,4,,,,,,,,,3,,,47,0
578760,note_on,0,0,3,,,,,,,,,2,,,51,33
578880,note_off,0,0,3,,,,,,,,,2,,,63,0
578880,note_off,0,0,3,,,,,,,,,2,,,69,0
578880,note_on,120,0,1,,,,,,,,,0,,,73,34
578880,note_on,120,0,4,,,,,,,,,3,,,47,33
578880,note_off,0,0,3,,,,,,,,,2,,,66,0
578880,note_off,0,0,3,,,,,,,,,2,,,51,0
578880,note_off,0,0,3,,,,,,,,,2,,,54,0
578880,note_off,120,0,3,,,,,,,,,2,,,57,0
579000,note_on,0,0,3,,,,,,,,,2,,,51,33
579000,note_on,0,0,3,,,,,,,,,2,,,57,33
579000,note_on,0,0,3,,,,,,,,,2,,,66,34
579000,note_on,0,0,3,,,,,,,,,2,,,63,34
579000,note_on,120,0,3,,,,,,,,,2,,,69,34
579000,note_on,0,0,3,,,,,,,,,2,,,54,33
579000,note_off,120,0,1,,,,,,,,,0,,,73,0
579000,note_off,120,0,4,,,,,,,,,3,,,47,0
579120,note_off,0,0,3,,,,,,,,,2,,,66,0
579120,note_off,0,0,3,,,,,,,,,2,,,54,0
579120,note_off,0,0,3,,,,,,,,,2,,,57,0
579120,note_on,120,0,1,,,,,,,,,0,,,73,33
579120,note_off,0,0,3,,,,,,,,,2,,,69,0
579120,note_off,120,0,3,,,,,,,,,2,,,51,0
579120,note_off,0,0,3,,,,,,,,,2,,,63,0
579120,note_on,120,0,4,,,,,,,,,3,,,47,33
579240,note_off,120,0,4,,,,,,,,,3,,,47,0
579240,note_off,120,0,1,,,,,,,,,0,,,73,0
579240,note_on,0,0,3,,,,,,,,,2,,,69,33
579240,note_on,120,0,3,,,,,,,,,2,,,63,33
579240,note_on,0,0,3,,,,,,,,,2,,,66,33
579240,note_on,0,0,3,,,,,,,,,2,,,57,32
579240,note_on,0,0,3,,,,,,,,,2,,,54,32
579240,note_on,0,0,3,,,,,,,,,2,,,51,32
579360,note_off,0,0,3,,,,,,,,,2,,,63,0
579360,note_off,0,0,3,,,,,,,,,2,,,54,0
579360,note_off,0,0,3,,,,,,,,,2,,,69,0
579360,note_off,0,0,3,,,,,,,,,2,,,66,0
579360,note_on,120,0,4,,,,,,,,,3,,,47,32
579360,note_on,120,0,1,,,,,,,,,0,,,83,46
579360,note_off,120,0,3,,,,,,,,,2,,,51,0
579360,note_off,0,0,3,,,,,,,,,2,,,57,0
579480,note_on,120,0,3,,,,,,,,,2,,,51,32
579480,note_on,0,0,3,,,,,,,,,2,,,57,32
579480,note_off,120,0,4,,,,,,,,,3,,,47,0
579480,note_off,120,0,1,,,,,,,,,0,,,83,0
579480,note_on,0,0,3,,,,,,,,,2,,,54,32
579480,note_on,0,0,1,,,,,,,,,0,,,84,43
579600,note_on,120,0,4,,,,,,,,,3,,,47,32
579600,note_on,0,0,1,,,,,,,,,0,,,85,41
579600,note_off,120,0,3,,,,,,,,,2,,,54,0
579600,note_off,0,0,3,,,,,,,,,2,,,57,0
579600,note_off,0,0,3,,,,,,,,,2,,,51,0
579600,note_off,120,0,1,,,,,,,,,0,,,84,0
579720,note_on,0,0,1,,,,,,,,,0,,,84,39
579720,note_on,0,0,3,,,,,,,,,2,,,51,32
579720,note_on,120,0,3,,,,,,,,,2,,,57,32
579720,note_off,120,0,4,,,,,,,,,3,,,47,0
579720,note_on,0,0,3,,,,,,,,,2,,,54,32
579720,note_off,120,0,1,,,,,,,,,0,,,85,0
579840,note_off,0,0,3,,,,,,,,,2,,,57,0
579840,note_off,0,0,3,,,,,,,,,2,,,54,0
579840,note_off,120,0,3,,,,,,,,,2,,,51,0
579840,note_on,120,0,4,,,,,,,,,3,,,47,31
579840,note_off,120,0,1,,,,,,,,,0,,,84,0
579840,note_on,0,0,1,,,,,,,,,0,,,85,38
579960,note_on,0,0,3,,,,,,,,,2,,,51,31
579960,note_off,120,0,4,,,,,,,,,3,,,47,0
579960,note_on,120,0,3,,,,,,,,,2,,,54,31
579960,set_tempo,1320,1,0,,,,,,526315,,,,,,,
579960,note_on,0,0,3,,,,,,,,,2,,,57,31
580080,control_change,240,0,1,,,,,,,64,0,0,,,,
580080,set_tempo,120,1,0,,,,,,517241,,,,,,,
580080,control_change,120,0,3,,,,,,,64,0,2,,,,
580080,note_off,0,0,3,,,,,,,,,2,,,51,0
580080,note_off,0,0,3,,,,,,,,,2,,,57,0
580080,note_off,0,0,3,,,,,,,,,2,,,54,0
580080,note_on,0,0,4,,,,,,,,,3,,,47,31
580080,control_change,120,0,4,,,,,,,64,0,3,,,,
580080,note_on,0,0,1,,,,,,,,,0,,,71,31
580080,note_off,0,0,1,,,,,,,,,0,,,85,0
580140,control_change,60,0,4,,,,,,,64,127,3,,,,
580140,control_change,60,0,3,,,,,,,64,127,2,,,,
580140,control_change,60,0,1,,,,,,,64,127,0,,,,
580200,note_off,60,0,4,,,,,,,,,3,,,47,0
580200,note_on,0,0,3,,,,,,,,,2,,,56,31
580200,note_on,0,0,3,,,,,,,,,2,,,52,31
580200,note_on,0,0,3,,,,,,,,,2,,,68,31
580200,note_on,60,0,3,,,,,,,,,2,,,64,31
580200,note_off,60,0,1,,,,,,,,,0,,,71,0
580320,note_off,120,0,3,,,,,,,,,2,,,56,0
580320,note_off,0,0,3,,,,,,,,,2,,,64,0
580320,note_on,120,0,1,,,,,,,,,0,,,71,31
580320,note_on,120,0,4,,,,,,,,,3,,,47,31
580320,note_off,0,0,3,,,,,,,,,2,,,52,0
580320,note_off,0,0,3,,,,,,,,,2,,,68,0
580440,note_off,120,0,4,,,,,,,,,3,,,47,0
580440,note_on,120,0,3,,,,,,,,,2,,,64,30
580440,note_off,120,0,1,,,,,,,,,0,,,71,0
580440,note_on,0,0,3,,,,,,,,,2,,,52,30
580440,note_on,0,0,3,,,,,,,,,2,,,56,30
580440,note_on,0,0,3,,,,,,,,,2,,,68,30
580560,note_on,120,0,1,,,,,,,,,0,,,71,30
580560,note_off,0,0,3,,,,,,,,,2,,,52,0
580560,note_off,0,0,3,,,,,,,,,2,,,68,0
580560,note_on,120,0,4,,,,,,,,,3,,,47,30
580560,note_off,120,0,3,,,,,,,,,2,,,56,0
580560,note_off,0,0,3,,,,,,,,,2,,,64,0
580680,note_on,0,0,3,,,,,,,,,2,,,56,30
580680,note_on,0,0,3,,,,,,,,,2,,,52,30
580680,note_on,0,0,3,,,,,,,,,2,,,64,30
580680,note_on,120,0,3,,,,,,,,,2,,,68,30
580680,note_off,120,0,4,,,,,,,,,3,,,47,0
580680,set_tempo,600,1,0,,,,,,526315,,,,,,,
580680,note_off,120,0,1,,,,,,,,,0,,,71,0
580800,control_change,120,0,3,,,,,,,64,0,2,,,,
580800,note_off,0,0,3,,,,,,,,,2,,,56,0
580800,note_off,0,0,3,,,,,,,,,2,,,64,0
580800,note_off,0,0,3,,,,,,,,,2,,,52,0
580800,control_change,120,0,1,,,,,,,64,0,0,,,,
580800,note_on,0,0,1,,,,,,,,,0,,,76,31
580800,note_on,0,0,4,,,,,,,,,3,,,46,29
580800,control_change,120,0,4,,,,,,,64,0,3,,,,
580800,set_tempo,120,1,0,,,,,,517241,,,,,,,
580800,note_off,0,0,3,,,,,,,,,2,,,68,0
580860,control_change,60,0,3,,,,,,,64,127,2,,,,
580860,control_change,60,0,4,,,,,,,64,127,3,,,,
580860,control_change,60,0,1,,,,,,,64,127,0,,,,
580920,note_off,60,0,4,,,,,,,,,3,,,46,0
580920,note_on,0,0,3,,,,,,,,,2,,,73,32
580920,note_on,60,0,3,,,,,,,,,2,,,64,32
580920,note_on,0,0,3,,,,,,,,,2,,,67,32
580920,note_on,0,0,3,,,,,,,,,2,,,49,30
580920,note_on,0,0,3,,,,,,,,,2,,,55,30
580920,note_off,60,0,1,,,,,,,,,0,,,76,0
580920,note_on,0,0,3,,,,,,,,,2,,,52,30
581040,note_off,0,0,3,,,,,,,,,2,,,64,0
581040,note_off,0,0,3,,,,,,,,,2,,,67,0
581040,note_off,0,0,3,,,,,,,,,2,,,73,0
581040,note_off,0,0,3,,,,,,,,,2,,,52,0
581040,note_off,0,0,3,,,,,,,,,2,,,55,0
581040,note_off,120,0,3,,,,,,,,,2,,,49,0
581040,note_on,120,0,1,,,,,,,,,0,,,76,34
581040,note_on,120,0,4,,,,,,,,,3,,,46,32
581160,note_on,0,0,3,,,,,,,,,2,,,49,33
581160,note_on,0,0,3,,,,,,,,,2,,,55,33
581160,note_on,0,0,3,,,,,,,,,2,,,52,33
581160,note_on,0,0,3,,,,,,,,,2,,,73,35
581160,note_off,120,0,4,,,,,,,,,3,,,46,0
581160,note_on,0,0,3,,,,,,,,,2,,,67,35
581160,note_off,120,0,1,,,,,,,,,0,,,76,0
581160,note_on,120,0,3,,,,,,,,,2,,,64,35
581280,note_on,120,0,1,,,,,,,,,0,,,76,47
581280,note_off,0,0,3,,,,,,,,,2,,,52,0
581280,note_off,0,0,3,,,,,,,,,2,,,55,0
581280,note_off,120,0,3,,,,,,,,,2,,,49,0
581280,note_off,0,0,3,,,,,,,,,2,,,67,0
581280,note_on,120,0,4,,,,,,,,,3,,,46,45
581280,note_off,0,0,3,,,,,,,,,2,,,73,0
581280,note_off,0,0,3,,,,,,,,,2,,,64,0
581400,note_on,0,0,3,,,,,,,,,2,,,52,36
581400,note_on,0,0,3,,,,,,,,,2,,,73,38
581400,note_on,0,0,3,,,,,,,,,2,,,64,38
581400,note_on,120,0,3,,,,,,,,,2,,,67,38
581400,note_off,120,0,1,,,,,,,,,0,,,76,0
581400,note_on,0,0,3,,,,,,,,,2,,,55,36
581400,note_on,0,0,3,,,,,,,,,2,,,49,36
581400,note_off,120,0,4,,,,,,,,,3,,,46,0
581520,note_on,120,0,1,,,,,,,,,0,,,76,40
581520,note_on,120,0,4,,,,,,,,,3,,,46,38
581520,note_off,0,0,3,,,,,,,,,2,,,67,0
581520,note_off,120,0,3,,,,,,,,,2,,,49,0
581520,note_off,0,0,3,,,,,,,,,2,,,55,0
581520,note_off,0,0,3,,,,,,,,,2,,,52,0
581520,note_off,0,0,3,,,,,,,,,2,,,73,0
581520,note_off,0,0,3,,,,,,,,,2,,,64,0
581640,note_off,120,0,4,,,,,,,,,3,,,46,0
581640,note_on,0,0,3,,,,,,,,,2,,,67,41
581640,note_on,120,0,3,,,,,,,,,2,,,64,41
581640,note_on,0,0,3,,,,,,,,,2,,,55,39
581640,note_on,0,0,3,,,,,,,,,2,,,49,39
581640,note_off,120,0,1,,,,,,,,,0,,,76,0
581640,note_on,0,0,3,,,,,,,,,2,,,73,41
581640,note_on,0,0,3,,,,,,,,,2,,,52,39
581760,note_off,0,0,3,,,,,,,,,2,,,52,0
581760,note_off,0,0,3,,,,,,,,,2,,,73,0
581760,note_off,0,0,3,,,,,,,,,2,,,67,0
581760,note_off,0,0,3,,,,,,,,,2,,,64,0
581760,note_off,120,0,3,,,,,,,,,2,,,49,0
581760,note_off,0,0,3,,,,,,,,,2,,,55,0
581760,note_on,120,0,4,,,,,,,,,3,,,46,40
581760,note_on,120,0,1,,,,,,,,,0,,,76,43
581880,note_on,0,0,3,,,,,,,,,2,,,49,42
581880,note_off,120,0,1,,,,,,,,,0,,,76,0
581880,note_off,120,0,4,,,,,,,,,3,,,46,0
581880,note_on,120,0,3,,,,,,,,,2,,,64,44
581880,note_on,0,0,3,,,,,,,,,2,,,67,44
581880,note_on,0,0,3,,,,,,,,,2,,,73,44
581880,note_on,0,0,3,,,,,,,,,2,,,52,42
581880,note_on,0,0,3,,,,,,,,,2,,,55,42
582000,note_off,0,0,3,,,,,,,,,2,,,64,0
582000,note_off,0,0,3,,,,,,,,,2,,,67,0
582000,note_off,0,0,3,,,,,,,,,2,,,73,0
582000,note_off,0,0,3,,,,,,,,,2,,,52,0
582000,note_on,120,0,1,,,,,,,,,0,,,76,57
582000,note_off,120,0,3,,,,,,,,,2,,,49,0
582000,note_on,120,0,4,,,,,,,,,3,,,46,52
582000,note_off,0,0,3,,,,,,,,,2,,,55,0
582120,note_off,120,0,1,,,,,,,,,0,,,76,0
582120,note_off,120,0,4,,,,,,,,,3,,,46,0
582120,note_on,0,0,3,,,,,,,,,2,,,52,45
582120,note_on,120,0,3,,,,,,,,,2,,,64,47
582120,note_on,0,0,3,,,,,,,,,2,,,67,47
582120,note_on,0,0,3,,,,,,,,,2,,,49,45
582120,note_on,0,0,3,,,,,,,,,2,,,55,45
582120,note_on,0,0,3,,,,,,,,,2,,,73,47
582240,note_off,0,0,3,,,,,,,,,2,,,52,0
582240,note_off,0,0,3,,,,,,,,,2,,,55,0
582240,note_on,120,0,1,,,,,,,,,0,,,76,59
582240,note_on,120,0,4,,,,,,,,,3,,,46,56
582240,note_off,120,0,3,,,,,,,,,2,,,49,0
582240,note_off,0,0,3,,,,,,,,,2,,,67,0
582240,note_off,0,0,3,,,,,,,,,2,,,73,0
582240,note_off,0,0,3,,,,,,,,,2,,,64,0
582360,note_on,120,0,3,,,,,,,,,2,,,64,50
582360,note_on,0,0,3,,,,,,,,,2,,,67,50
582360,note_on,0,0,3,,,,,,,,,2,,,73,50
582360,note_on,0,0,3,,,,,,,,,2,,,52,48
582360,note_on,0,0,3,,,,,,,,,2,,,49,48
582360,note_off,120,0,4,,,,,,,,,3,,,46,0
582360,note_off,120,0,1,,,,,,,,,0,,,76,0
582360,note_on,0,0,3,,,,,,,,,2,,,55,48
582480,note_on,120,0,1,,,,,,,,,0,,,76,62
582480,note_on,120,0,4,,,,,,,,,3,,,46,59
582480,note_off,0,0,3,,,,,,,,,2,,,67,0
582480,note_off,0,0,3,,,,,,,,,2,,,64,0
582480,note_off,0,0,3,,,,,,,,,2,,,73,0
582480,note_off,0,0,3,,,,,,,,,2,,,52,0
582480,note_off,0,0,3,,,,,,,,,2,,,55,0
582480,note_off,120,0,3,,,,,,,,,2,,,49,0
582600,note_on,0,0,3,,,,,,,,,2,,,52,50
582600,note_on,0,0,3,,,,,,,,,2,,,55,50
582600,note_on,0,0,3,,,,,,,,,2,,,49,50
582600,note_off,120,0,1,,,,,,,,,0,,,76,0
582600,note_on,120,0,3,,,,,,,,,2,,,64,53
582600,note_off,120,0,4,,,,,,,,,3,,,46,0
582600,note_on,0,0,3,,,,,,,,,2,,,73,53
582600,note_on,0,0,3,,,,,,,,,2,,,67,53
582720,note_on,0,0,1,,,,,,,,,0,,,75,65
582720,control_change,120,0,1,,,,,,,64,0,0,,,,
582720,note_off,0,0,3,,,,,,,,,2,,,67,0
582720,control_change,120,0,4,,,,,,,64,0,3,,,,
582720,note_on,0,0,4,,,,,,,,,3,,,46,62
582720,control_change,120,0,3,,,,,,,64,0,2,,,,
582720,note_off,0,0,3,,,,,,,,,2,,,49,0
582720,note_off,0,0,3,,,,,,,,,2,,,55,0
582720,note_off,0,0,3,,,,,,,,,2,,,52,0
582720,note_off,0,0,3,,,,,,,,,2,,,73,0
582720,note_off,0,0,3,,,,,,,,,2,,,64,0
582780,control_change,60,0,4,,,,,,,64,127,3,,,,
582780,control_change,60,0,1,,,,,,,64,127,0,,,,
582780,control_change,60,0,3,,,,,,,64,127,2,,,,
582840,note_off,60,0,1,,,,,,,,,0,,,75,0
582840,set_tempo,2040,1,0,,,,,,526315,,,,,,,
582840,note_on,0,0,3,,,,,,,,,2,,,49,53
582840,note_on,0,0,3,,,,,,,,,2,,,54,53
582840,note_on,0,0,3,,,,,,,,,2,,,73,56
582840,note_on,0,0,3,,,,,,,,,2,,,51,53
582840,note_on,60,0,3,,,,,,,,,2,,,66,56
582840,note_off,60,0,4,,,,,,,,,3,,,46,0
582840,note_on,0,0,3,,,,,,,,,2,,,63,56
582960,control_change,120,0,4,,,,,,,64,0,3,,,,
582960,control_change,120,0,1,,,,,,,64,0,0,,,,
582960,note_on,0,0,1,,,,,,,,,0,,,75,69
582960,note_off,0,0,3,,,,,,,,,2,,,66,0
582960,note_off,0,0,3,,,,,,,,,2,,,63,0
582960,note_off,0,0,3,,,,,,,,,2,,,73,0
582960,note_off,0,0,3,,,,,,,,,2,,,51,0
582960,note_off,0,0,3,,,,,,,,,2,,,49,0
582960,set_tempo,120,1,0,,,,,,517241,,,,,,,
582960,note_on,0,0,4,,,,,,,,,3,,,44,65
582960,control_change,120,0,3,,,,,,,64,0,2,,,,
582960,note_off,0,0,3,,,,,,,,,2,,,54,0
583020,control_change,60,0,1,,,,,,,64,127,0,,,,
583020,control_change,60,0,4,,,,,,,64,127,3,,,,
583020,control_change,60,0,3,,,,,,,64,127,2,,,,
583080,note_off,60,0,1,,,,,,,,,0,,,75,0
583080,note_on,60,0,3,,,,,,,,,2,,,71,59
583080,note_on,0,0,3,,,,,,,,,2,,,68,59
583080,note_on,0,0,3,,,,,,,,,2,,,51,56
583080,note_on,0,0,3,,,,,,,,,2,,,56,56
583080,note_on,0,0,3,,,,,,,,,2,,,47,56
583080,note_on,0,0,3,,,,,,,,,2,,,63,59
583080,note_off,60,0,4,,,,,,,,,3,,,44,0
583200,note_off,0,0,3,,,,,,,,,2,,,68,0
583200,note_on,120,0,4,,,,,,,,,3,,,44,58
583200,note_on,120,0,1,,,,,,,,,0,,,75,61
583200,note_off,0,0,3,,,,,,,,,2,,,71,0
583200,note_off,0,0,3,,,,,,,,,2,,,63,0
583200,note_off,0,0,3,,,,,,,,,2,,,51,0
583200,note_off,0,0,3,,,,,,,,,2,,,56,0
583200,note_off,120,0,3,,,,,,,,,2,,,47,0
583320,note_off,120,0,4,,,,,,,,,3,,,44,0
583320,note_on,0,0,3,,,,,,,,,2,,,47,59
583320,note_on,0,0,3,,,,,,,,,2,,,56,59
583320,note_on,0,0,3,,,,,,,,,2,,,68,62
583320,note_on,0,0,3,,,,,,,,,2,,,51,59
583320,note_on,0,0,3,,,,,,,,,2,,,71,62
583320,note_on,120,0,3,,,,,,,,,2,,,63,62
583320,note_off,120,0,1,,,,,,,,,0,,,75,0
583440,note_on,120,0,1,,,,,,,,,0,,,75,64
583440,note_off,120,0,3,,,,,,,,,2,,,47,0
583440,note_off,0,0,3,,,,,,,,,2,,,51,0
583440,note_off,0,0,3,,,,,,,,,2,,,56,0
583440,note_off,0,0,3,,,,,,,,,2,,,68,0
583440,note_off,0,0,3,,,,,,,,,2,,,71,0
583440,note_off,0,0,3,,,,,,,,,2,,,63,0
583440,note_on,120,0,4,,,,,,,,,3,,,44,61
583560,note_off,120,0,1,,,,,,,,,0,,,75,0
583560,note_on,0,0,3,,,,,,,,,2,,,47,62
583560,note_on,0,0,3,,,,,,,,,2,,,51,62
583560,note_on,120,0,3,,,,,,,,,2,,,71,65
583560,note_on,0,0,3,,,,,,,,,2,,,68,65
583560,note_on,0,0,3,,,,,,,,,2,,,63,65
583560,note_on,0,0,3,,,,,,,,,2,,,56,62
583560,note_off,120,0,4,,,,,,,,,3,,,44,0
583680,note_on,0,0,1,,,,,,,,,0,,,75,77
583680,control_change,120,0,1,,,,,,,64,0,0,,,,
583680,note_on,0,0,4,,,,,,,,,3,,,44,73
583680,control_change,120,0,4,,,,,,,64,0,3,,,,
583680,note_off,0,0,3,,,,,,,,,2,,,47,0
583680,control_change,120,0,3,,,,,,,64,0,2,,,,
583680,note_off,0,0,3,,,,,,,,,2,,,71,0
583680,note_off,0,0,3,,,,,,,,,2,,,63,0
583680,note_off,0,0,3,,,,,,,,,2,,,68,0
583680,note_off,0,0,3,,,,,,,,,2,,,56,0
583680,note_off,0,0,3,,,,,,,,,2,,,51,0
583740,control_change,60,0,4,,,,,,,64,127,3,,,,
583740,control_change,60,0,1,,,,,,,64,127,0,,,,
583740,control_change,60,0,3,,,,,,,64,127,2,,,,
583800,note_on,0,0,3,,,,,,,,,2,,,67,68
583800,note_on,0,0,3,,,,,,,,,2,,,70,68
583800,note_on,0,0,3,,,,,,,,,2,,,49,65
583800,note_on,0,0,3,,,,,,,,,2,,,51,65
583800,note_off,60,0,1,,,,,,,,,0,,,75,0
583800,note_on,0,0,3,,,,,,,,,2,,,55,65
583800,note_on,60,0,3,,,,,,,,,2,,,63,68
583800,note_off,60,0,4,,,,,,,,,3,,,44,0
583920,note_off,0,0,3,,,,,,,,,2,,,67,0
583920,note_off,0,0,3,,,,,,,,,2,,,63,0
583920,note_on,120,0,4,,,,,,,,,3,,,44,66
583920,note_on,120,0,1,,,,,,,,,0,,,75,70
583920,note_off,0,0,3,,,,,,,,,2,,,51,0
583920,note_off,120,0,3,,,,,,,,,2,,,55,0
583920,note_off,0,0,3,,,,,,,,,2,,,70,0
583920,note_off,0,0,3,,,,,,,,,2,,,49,0
584040,note_on,120,0,3,,,,,,,,,2,,,67,71
584040,note_on,0,0,3,,,,,,,,,2,,,51,68
584040,note_on,0,0,3,,,,,,,,,2,,,49,68
584040,note_on,0,0,3,,,,,,,,,2,,,55,68
584040,note_on,0,0,3,,,,,,,,,2,,,70,71
584040,note_off,120,0,4,,,,,,,,,3,,,44,0
584040,note_on,0,0,3,,,,,,,,,2,,,63,71
584040,note_off,120,0,1,,,,,,,,,0,,,75,0
584160,note_on,120,0,4,,,,,,,,,3,,,44,69
584160,note_off,120,0,3,,,,,,,,,2,,,55,0
584160,note_off,0,0,3,,,,,,,,,2,,,51,0
584160,note_off,0,0,3,,,,,,,,,2,,,49,0
584160,note_off,0,0,3,,,,,,,,,2,,,63,0
584160,note_off,0,0,3,,,,,,,,,2,,,70,0
584160,note_off,0,0,3,,,,,,,,,2,,,67,0
584160,note_on,120,0,1,,,,,,,,,0,,,75,73
584280,note_off,120,0,1,,,,,,,,,0,,,75,0
584280,note_on,0,0,3,,,,,,,,,2,,,49,71
584280,note_on,0,0,3,,,,,,,,,2,,,51,71
584280,note_off,120,0,4,,,,,,,,,3,,,44,0
584280,note_on,120,0,3,,,,,,,,,2,,,67,74
584280,note_on,0,0,3,,,,,,,,,2,,,70,74
584280,note_on,0,0,3,,,,,,,,,2,,,55,71
584280,note_on,0,0,3,,,,,,,,,2,,,63,74
584400,control_change,120,0,3,,,,,,,64,0,2,,,,
584400,note_off,0,0,3,,,,,,,,,2,,,55,0
584400,note_off,0,0,3,,,,,,,,,2,,,51,0
584400,note_off,0,0,3,,,,,,,,,2,,,49,0
584400,note_off,0,0,3,,,,,,,,,2,,,63,0
584400,note_on,0,0,1,,,,,,,,,0,,,75,86
584400,note_off,0,0,3,,,,,,,,,2,,,67,0
584400,control_change,120,0,1,,,,,,,64,0,0,,,,
584400,note_off,0,0,3,,,,,,,,,2,,,70,0
584400,control_change,120,0,4,,,,,,,64,0,3,,,,
584400,note_on,0,0,4,,,,,,,,,3,,,44,82
584460,control_change,60,0,3,,,,,,,64,127,2,,,,
584460,control_change,60,0,4,,,,,,,64,127,3,,,,
584460,control_change,60,0,1,,,,,,,64,127,0,,,,
584520,note_on,60,0,3,,,,,,,,,2,,,71,77
584520,note_on,0,0,3,,,,,,,,,2,,,68,77
584520,note_on,0,0,3,,,,,,,,,2,,,63,77
584520,note_on,0,0,3,,,,,,,,,2,,,47,74
584520,note_off,60,0,4,,,,,,,,,3,,,44,0
584520,note_off,60,0,1,,,,,,,,,0,,,75,0
584520,note_on,0,0,3,,,,,,,,,2,,,51,74
584520,note_on,0,0,3,,,,,,,,,2,,,56,74
584640,note_off,0,0,3,,,,,,,,,2,,,68,0
584640,note_off,0,0,3,,,,,,,,,2,,,63,0
584640,note_off,120,0,3,,,,,,,,,2,,,56,0
584640,note_off,0,0,3,,,,,,,,,2,,,51,0
584640,note_off,0,0,3,,,,,,,,,2,,,71,0
584640,note_off,0,0,3,,,,,,,,,2,,,47,0
584640,control_change,120,0,4,,,,,,,64,0,3,,,,
584640,note_on,0,0,4,,,,,,,,,3,,,44,75
584640,note_on,120,0,1,,,,,,,,,0,,,75,79
584760,note_on,120,0,3,,,,,,,,,2,,,71,80
584760,note_off,120,0,1,,,,,,,,,0,,,75,0
584760,note_on,0,0,3,,,,,,,,,2,,,68,80
584760,note_off,120,0,4,,,,,,,,,3,,,44,0
584760,note_on,0,0,3,,,,,,,,,2,,,47,76
584760,note_on,0,0,3,,,,,,,,,2,,,51,76
584760,note_on,0,0,3,,,,,,,,,2,,,63,80
584760,note_on,0,0,3,,,,,,,,,2,,,56,76
584880,control_change,120,0,3,,,,,,,64,0,2,,,,
584880,note_off,0,0,3,,,,,,,,,2,,,56,0
584880,control_change,120,0,4,,,,,,,64,0,3,,,,
584880,note_off,0,0,3,,,,,,,,,2,,,47,0
584880,note_off,0,0,3,,,,,,,,,2,,,63,0
584880,note_off,0,0,3,,,,,,,,,2,,,68,0
584880,note_off,0,0,3,,,,,,,,,2,,,71,0
584880,set_tempo,1920,1,0,,,,,,526315,,,,,,,
584880,note_on,0,0,4,,,,,,,,,3,,,44,78
584880,control_change,120,0,1,,,,,,,64,0,0,,,,
584880,note_on,0,0,1,,,,,,,,,0,,,76,82
584880,note_off,0,0,3,,,,,,,,,2,,,51,0
585000,set_tempo,120,1,0,,,,,,540540,,,,,,,
585000,note_off,120,0,4,,,,,,,,,3,,,44,0
585000,note_on,0,0,3,,,,,,,,,2,,,51,79
585000,note_on,0,0,3,,,,,,,,,2,,,64,83
585000,note_on,0,0,3,,,,,,,,,2,,,47,79
585000,note_off,120,0,1,,,,,,,,,0,,,76,0
585000,note_on,0,0,3,,,,,,,,,2,,,68,83
585000,note_on,120,0,3,,,,,,,,,2,,,71,83
585000,note_on,0,0,3,,,,,,,,,2,,,56,79
585120,note_off,0,0,3,,,,,,,,,2,,,56,0
585120,note_off,0,0,3,,,,,,,,,2,,,47,0
585120,note_on,120,0,1,,,,,,,,,0,,,81,96
585120,note_off,120,0,3,,,,,,,,,2,,,51,0
585120,note_off,0,0,3,,,,,,,,,2,,,64,0
585120,set_tempo,120,1,0,,,,,,508474,,,,,,,
585120,note_on,120,0,4,,,,,,,,,3,,,42,81
585120,note_off,0,0,3,,,,,,,,,2,,,71,0
585120,note_off,0,0,3,,,,,,,,,2,,,68,0
585240,note_on,120,0,3,,,,,,,,,2,,,49,81
585240,note_on,0,0,3,,,,,,,,,2,,,52,81
585240,note_on,0,0,3,,,,,,,,,2,,,45,81
585240,set_tempo,120,1,0,,,,,,500000,,,,,,,
585240,note_off,120,0,4,,,,,,,,,3,,,42,0
585240,note_on,0,0,1,,,,,,,,,0,,,83,90
585240,note_off,120,0,1,,,,,,,,,0,,,81,0
585360,note_on,0,0,1,,,,,,,,,0,,,85,89
585360,note_off,120,0,1,,,,,,,,,0,,,83,0
585360,note_on,120,0,4,,,,,,,,,3,,,42,81
585360,note_off,120,0,3,,,,,,,,,2,,,45,0
585360,note_off,0,0,3,,,,,,,,,2,,,52,0
585360,note_off,0,0,3,,,,,,,,,2,,,49,0
585480,note_on,0,0,1,,,,,,,,,0,,,78,89
585480,note_off,120,0,1,,,,,,,,,0,,,85,0
585480,note_off,120,0,4,,,,,,,,,3,,,42,0
585480,note_on,120,0,3,,,,,,,,,2,,,52,80
585480,note_on,0,0,3,,,,,,,,,2,,,49,80
585480,note_on,0,0,3,,,,,,,,,2,,,45,80
585600,note_off,0,0,3,,,,,,,,,2,,,52,0
585600,note_off,0,0,3,,,,,,,,,2,,,49,0
585600,note_on,0,0,1,,,,,,,,,0,,,80,88
585600,note_off,120,0,1,,,,,,,,,0,,,78,0
585600,note_off,120,0,3,,,,,,,,,2,,,45,0
585600,note_on,120,0,4,,,,,,,,,3,,,42,80
585720,note_on,0,0,3,,,,,,,,,2,,,45,80
585720,note_on,0,0,3,,,,,,,,,2,,,49,80
585720,note_on,120,0,3,,,,,,,,,2,,,52,80
585720,set_tempo,480,1,0,,,,,,508474,,,,,,,
585720,note_off,120,0,4,,,,,,,,,3,,,42,0
585720,note_off,120,0,1,,,,,,,,,0,,,80,0
585720,note_on,0,0,1,,,,,,,,,0,,,81,87
585840,note_on,9360,0,2,,,,,,,,,1,,,69,88
585840,note_off,120,0,1,,,,,,,,,0,,,81,0
585840,note_on,0,0,1,,,,,,,,,0,,,73,86
585840,note_off,120,0,3,,,,,,,,,2,,,45,0
585840,note_off,0,0,3,,,,,,,,,2,,,49,0
585840,note_off,0,0,3,,,,,,,,,2,,,52,0
585840,note_on,120,0,4,,,,,,,,,3,,,42,80
585960,note_on,120,0,3,,,,,,,,,2,,,52,79
585960,note_on,0,0,2,,,,,,,,,1,,,71,83
585960,note_off,120,0,4,,,,,,,,,3,,,42,0
585960,note_on,0,0,3,,,,,,,,,2,,,49,79
585960,set_tempo,240,1,0,,,,,,500000,,,,,,,
585960,note_off,120,0,2,,,,,,,,,1,,,69,0
585960,note_on,0,0,3,,,,,,,,,2,,,45,79
586080,note_off,240,0,1,,,,,,,,,0,,,73,0
586080,note_off,0,0,3,,,,,,,,,2,,,52,0
586080,note_on,0,0,2,,,,,,,,,1,,,73,82
586080,note_on,120,0,4,,,,,,,,,3,,,42,79
586080,note_off,0,0,3,,,,,,,,,2,,,49,0
586080,note_off,120,0,2,,,,,,,,,1,,,71,0
586080,note_off,120,0,3,,,,,,,,,2,,,45,0
586200,note_on,0,0,3,,,,,,,,,2,,,49,79
586200,note_on,0,0,3,,,,,,,,,2,,,45,79
586200,note_off,120,0,4,,,,,,,,,3,,,42,0
586200,note_on,0,0,2,,,,,,,,,1,,,69,82
586200,note_off,120,0,2,,,,,,,,,1,,,73,0
586200,note_on,120,0,3,,,,,,,,,2,,,52,79
586320,note_on,120,0,4,,,,,,,,,3,,,42,78
586320,note_off,0,0,3,,,,,,,,,2,,,52,0
586320,note_off,120,0,2,,,,,,,,,1,,,69,0
586320,note_off,0,0,3,,,,,,,,,2,,,49,0
586320,note_off,120,0,3,,,,,,,,,2,,,45,0
586320,note_on,0,0,2,,,,,,,,,1,,,71,82
586440,note_on,0,0,2,,,,,,,,,1,,,73,81
586440,note_off,120,0,2,,,,,,,,,1,,,71,0
586440,note_on,0,0,3,,,,,,,,,2,,,49,78
586440,set_tempo,480,1,0,,,,,,508474,,,,,,,
586440,note_off,120,0,4,,,,,,,,,3,,,42,0
586440,note_on,0,0,3,,,,,,,,,2,,,45,78
586440,note_on,120,0,3,,,,,,,,,2,,,52,78
586560,note_off,120,0,2,,,,,,,,,1,,,73,0
586560,note_on,0,0,2,,,,,,,,,1,,,61,81
586560,note_on,120,0,4,,,,,,,,,3,,,52,78
586560,note_on,0,0,3,,,,,,,,,2,,,54,83
586560,note_off,0,0,3,,,,,,,,,2,,,52,0
586560,note_off,0,0,3,,,,,,,,,2,,,49,0
586560,note_off,120,0,3,,,,,,,,,2,,,45,0
586560,note_on,480,0,1,,,,,,,,,0,,,69,90
586680,note_on,0,0,1,,,,,,,,,0,,,71,84
586680,note_off,120,0,3,,,,,,,,,2,,,54,0
586680,note_off,120,0,1,,,,,,,,,0,,,69,0
586680,note_on,0,0,3,,,,,,,,,2,,,56,78
586680,set_tempo,240,1,0,,,,,,500000,,,,,,,
586800,note_off,120,0,3,,,,,,,,,2,,,56,0
586800,note_on,0,0,3,,,,,,,,,2,,,57,77
586800,note_on,0,0,1,,,,,,,,,0,,,73,83
586800,note_off,120,0,1,,,,,,,,,0,,,71,0
586920,note_on,0,0,3,,,,,,,,,2,,,54,77
586920,note_off,120,0,3,,,,,,,,,2,,,57,0
586920,note_on,0,0,1,,,,,,,,,0,,,69,81
586920,note_off,120,0,1,,,,,,,,,0,,,73,0
587040,note_on,0,0,1,,,,,,,,,0,,,71,80
587040,note_off,120,0,3,,,,,,,,,2,,,54,0
587040,note_off,120,0,1,,,,,,,,,0,,,69,0
587040,note_on,0,0,3,,,,,,,,,2,,,56,77
587160,note_on,0,0,3,,,,,,,,,2,,,57,76
587160,set_tempo,480,1,0,,,,,,508474,,,,,,,
587160,note_on,0,0,1,,,,,,,,,0,,,73,79
587160,note_off,120,0,1,,,,,,,,,0,,,71,0
587160,note_off,120,0,3,,,,,,,,,2,,,56,0
587280,note_on,0,0,2,,,,,,,,,1,,,66,84
587280,note_off,120,0,3,,,,,,,,,2,,,57,0
587280,note_off,720,0,2,,,,,,,,,1,,,61,0
587280,note_on,0,0,1,,,,,,,,,0,,,73,78
587280,note_off,120,0,1,,,,,,,,,0,,,73,0
587280,note_off,720,0,4,,,,,,,,,3,,,52,0
587280,note_on,0,0,4,,,,,,,,,3,,,51,81
587400,note_off,120,0,4,,,,,,,,,3,,,51,0
587400,note_on,0,0,4,,,,,,,,,3,,,52,76
587400,note_off,120,0,2,,,,,,,,,1,,,66,0
587400,note_on,0,0,2,,,,,,,,,1,,,68,78
587400,set_tempo,240,1,0,,,,,,500000,,,,,,,
587520,note_on,0,0,4,,,,,,,,,3,,,54,76
587520,note_off,120,0,4,,,,,,,,,3,,,52,0
587520,note_off,120,0,2,,,,,,,,,1,,,68,0
587520,note_on,0,0,2,,,,,,,,,1,,,69,78
587640,note_off,120,0,2,,,,,,,,,1,,,69,0
587640,note_on,0,0,4,,,,,,,,,3,,,51,75
587640,note_off,120,0,4,,,,,,,,,3,,,54,0
587640,note_on,0,0,2,,,,,,,,,1,,,66,78
587760,note_on,0,0,1,,,,,,,,,0,,,71,77
587760,note_on,0,0,4,,,,,,,,,3,,,52,75
587760,note_off,120,0,4,,,,,,,,,3,,,51,0
587760,note_on,0,0,2,,,,,,,,,1,,,68,77
587760,note_off,120,0,2,,,,,,,,,1,,,66,0
587760,note_off,480,0,1,,,,,,,,,0,,,73,0
587880,note_off,120,0,2,,,,,,,,,1,,,68,0
587880,note_on,0,0,4,,,,,,,,,3,,,54,75
587880,note_on,0,0,2,,,,,,,,,1,,,69,77
587880,set_tempo,480,1,0,,,,,,508474,,,,,,,
587880,note_off,120,0,4,,,,,,,,,3,,,52,0
588000,note_off,240,0,1,,,,,,,,,0,,,71,0
588000,note_off,120,0,2,,,,,,,,,1,,,69,0
588000,note_on,0,0,2,,,,,,,,,1,,,78,82
588000,note_on,0,0,2,,,,,,,,,1,,,71,77
588000,note_on,0,0,4,,,,,,,,,3,,,51,74
588000,note_off,120,0,4,,,,,,,,,3,,,54,0
588120,note_off,120,0,4,,,,,,,,,3,,,51,0
588120,note_on,0,0,4,,,,,,,,,3,,,49,74
588120,note_on,0,0,2,,,,,,,,,1,,,80,76
588120,note_off,120,0,2,,,,,,,,,1,,,78,0
588120,set_tempo,240,1,0,,,,,,500000,,,,,,,
588240,note_on,0,0,4,,,,,,,,,3,,,47,74
588240,note_on,0,0,2,,,,,,,,,1,,,81,76
588240,note_off,120,0,2,,,,,,,,,1,,,80,0
588240,note_off,120,0,4,,,,,,,,,3,,,49,0
588360,note_on,0,0,2,,,,,,,,,1,,,78,75
588360,note_off,120,0,2,,,,,,,,,1,,,81,0
588360,note_off,120,0,4,,,,,,,,,3,,,47,0
588360,note_on,0,0,4,,,,,,,,,3,,,45,74
588480,note_off,120,0,4,,,,,,,,,3,,,45,0
588480,note_on,0,0,4,,,,,,,,,3,,,44,73
588480,note_off,120,0,2,,,,,,,,,1,,,78,0
588480,note_on,0,0,2,,,,,,,,,1,,,80,75
588600,set_tempo,480,1,0,,,,,,508474,,,,,,,
588600,note_off,120,0,2,,,,,,,,,1,,,80,0
588600,note_on,0,0,2,,,,,,,,,1,,,81,75
588600,note_off,120,0,4,,,,,,,,,3,,,44,0
588600,note_on,0,0,4,,,,,,,,,3,,,42,73
588720,note_off,120,0,4,,,,,,,,,3,,,42,0
588720,note_on,0,0,2,,,,,,,,,1,,,80,74
588720,note_on,0,0,2,,,,,,,,,1,,,71,74
588720,note_off,0,0,2,,,,,,,,,1,,,71,0
588720,note_off,120,0,2,,,,,,,,,1,,,81,0
588720,note_on,0,0,4,,,,,,,,,3,,,52,73
588840,set_tempo,240,1,0,,,,,,500000,,,,,,,
588840,note_on,0,0,2,,,,,,,,,1,,,81,74
588840,note_off,120,0,4,,,,,,,,,3,,,52,0
588840,note_off,120,0,2,,,,,,,,,1,,,80,0
588840,note_on,0,0,4,,,,,,,,,3,,,51,72
588960,note_on,0,0,2,,,,,,,,,1,,,83,74
588960,note_off,120,0,2,,,,,,,,,1,,,81,0
588960,note_off,120,0,4,,,,,,,,,3,,,51,0
588960,note_off,0,0,2,,,,,,,,,1,,,71,0
588960,note_on,0,0,4,,,,,,,,,3,,,49,72
589080,note_off,120,0,2,,,,,,,,,1,,,83,0
589080,note_on,0,0,2,,,,,,,,,1,,,85,73
589080,note_off,120,0,4,,,,,,,,,3,,,49,0
589080,note_on,0,0,4,,,,,,,,,3,,,47,72
589200,note_off,120,0,4,,,,,,,,,3,,,47,0
589200,note_off,120,0,2,,,,,,,,,1,,,85,0
589200,note_on,0,0,2,,,,,,,,,1,,,87,73
589200,note_on,0,0,4,,,,,,,,,3,,,45,72
589320,note_on,0,0,4,,,,,,,,,3,,,44,71
589320,note_off,120,0,2,,,,,,,,,1,,,87,0
589320,note_on,0,0,2,,,,,,,,,1,,,88,73
589320,set_tempo,480,1,0,,,,,,508474,,,,,,,
589320,note_off,120,0,4,,,,,,,,,3,,,45,0
589440,note_on,0,0,2,,,,,,,,,1,,,88,72
589440,note_off,120,0,2,,,,,,,,,1,,,88,0
589440,note_on,0,0,4,,,,,,,,,3,,,47,71
589440,note_off,120,0,4,,,,,,,,,3,,,44,0
589560,note_on,0,0,2,,,,,,,,,1,,,87,72
589560,set_tempo,240,1,0,,,,,,500000,,,,,,,
589560,note_on,0,0,4,,,,,,,,,3,,,49,71
589560,note_off,120,0,4,,,,,,,,,3,,,47,0
589560,note_off,120,0,2,,,,,,,,,1,,,88,0
589680,note_off,120,0,2,,,,,,,,,1,,,87,0
589680,note_off,120,0,4,,,,,,,,,3,,,49,0
589680,note_on,0,0,2,,,,,,,,,1,,,85,71
589680,note_on,0,0,4,,,,,,,,,3,,,51,70
589800,note_off,120,0,4,,,,,,,,,3,,,51,0
589800,note_on,0,0,4,,,,,,,,,3,,,52,70
589800,note_on,0,0,2,,,,,,,,,1,,,83,71
589800,note_off,120,0,2,,,,,,,,,1,,,85,0
589920,note_off,120,0,4,,,,,,,,,3,,,52,0
589920,note_off,120,0,2,,,,,,,,,1,,,83,0
589920,note_on,0,0,2,,,,,,,,,1,,,81,71
589920,note_on,0,0,4,,,,,,,,,3,,,54,70
590040,set_tempo,480,1,0,,,,,,508474,,,,,,,
590040,note_off,120,0,2,,,,,,,,,1,,,81,0
590040,note_off,120,0,4,,,,,,,,,3,,,54,0
590040,note_on,0,0,2,,,,,,,,,1,,,80,70
590040,note_on,0,0,4,,,,,,,,,3,,,56,69
590160,note_on,2160,0,1,,,,,,,,,0,,,83,85
590160,note_on,0,0,2,,,,,,,,,1,,,80,70
590160,note_off,120,0,2,,,,,,,,,1,,,80,0
590160,note_on,0,0,4,,,,,,,,,3,,,47,79
590160,note_off,120,0,4,,,,,,,,,3,,,56,0
590160,note_on,2880,0,3,,,,,,,,,2,,,52,74
590280,set_tempo,240,1,0,,,,,,500000,,,,,,,
590280,note_off,120,0,3,,,,,,,,,2,,,52,0
590280,note_on,0,0,3,,,,,,,,,2,,,54,69
590280,note_off,120,0,2,,,,,,,,,1,,,80,0
590280,note_on,0,0,2,,,,,,,,,1,,,78,70
590400,note_on,0,0,3,,,,,,,,,2,,,56,69
590400,note_off,120,0,2,,,,,,,,,1,,,78,0
590400,note_off,120,0,3,,,,,,,,,2,,,54,0
590400,note_on,0,0,2,,,,,,,,,1,,,76,69
590520,note_off,120,0,2,,,,,,,,,1,,,76,0
590520,note_on,0,0,2,,,,,,,,,1,,,80,69
590520,note_off,120,0,3,,,,,,,,,2,,,56,0
590520,note_on,0,0,3,,,,,,,,,2,,,52,68
590640,note_off,120,0,2,,,,,,,,,1,,,80,0
590640,note_on,0,0,2,,,,,,,,,1,,,78,69
590640,note_off,120,0,3,,,,,,,,,2,,,52,0
590640,note_on,0,0,3,,,,,,,,,2,,,54,68
590760,note_off,120,0,3,,,,,,,,,2,,,54,0
590760,note_on,0,0,3,,,,,,,,,2,,,56,68
590760,note_off,120,0,2,,,,,,,,,1,,,78,0
590760,note_on,0,0,2,,,,,,,,,1,,,76,68
590760,set_tempo,480,1,0,,,,,,508474,,,,,,,
590880,note_off,120,0,3,,,,,,,,,2,,,56,0
590880,note_on,0,0,3,,,,,,,,,2,,,54,72
590880,note_off,720,0,1,,,,,,,,,0,,,83,0
590880,note_on,0,0,2,,,,,,,,,1,,,78,68
590880,note_on,0,0,1,,,,,,,,,0,,,81,78
590880,note_off,720,0,4,,,,,,,,,3,,,47,0
590880,note_on,0,0,4,,,,,,,,,3,,,47,77
590880,note_off,120,0,2,,,,,,,,,1,,,76,0
591000,note_off,120,0,2,,,,,,,,,1,,,78,0
591000,note_on,0,0,2,,,,,,,,,1,,,76,67
591000,set_tempo,240,1,0,,,,,,500000,,,,,,,
591000,note_off,120,0,3,,,,,,,,,2,,,54,0
591000,note_on,0,0,3,,,,,,,,,2,,,56,67
591120,note_off,120,0,2,,,,,,,,,1,,,76,0
591120,note_on,0,0,2,,,,,,,,,1,,,75,67
591120,note_off,120,0,3,,,,,,,,,2,,,56,0
591120,note_on,0,0,3,,,,,,,,,2,,,57,67
591240,note_on,0,0,3,,,,,,,,,2,,,54,67
591240,note_off,120,0,3,,,,,,,,,2,,,57,0
591240,note_off,120,0,2,,,,,,,,,1,,,75,0
591240,note_on,0,0,2,,,,,,,,,1,,,78,67
591360,note_on,0,0,2,,,,,,,,,1,,,76,66
591360,note_off,120,0,3,,,,,,,,,2,,,54,0
591360,note_on,0,0,3,,,,,,,,,2,,,56,66
591360,set_tempo,360,1,0,,,,,,508474,,,,,,,
591360,note_off,120,0,2,,,,,,,,,1,,,78,0
591480,note_on,0,0,2,,,,,,,,,1,,,75,66
591480,note_off,120,0,3,,,,,,,,,2,,,56,0
591480,note_on,0,0,3,,,,,,,,,2,,,57,66
591480,note_off,120,0,2,,,,,,,,,1,,,76,0
591480,set_tempo,120,1,0,,,,,,540540,,,,,,,
591600,note_off,0,0,4,,,,,,,,,3,,,47,0
591600,note_off,0,0,3,,,,,,,,,2,,,57,0
591600,control_change,120,0,3,,,,,,,64,0,2,,,,
591600,note_on,0,0,1,,,,,,,,,0,,,81,74
591600,note_off,0,0,1,,,,,,,,,0,,,81,0
591600,control_change,720,0,1,,,,,,,64,0,0,,,,
591600,note_off,120,0,2,,,,,,,,,1,,,75,0
591600,control_change,720,0,4,,,,,,,64,0,3,,,,
591600,set_tempo,120,1,0,,,,,,508474,,,,,,,
591600,note_on,0,0,4,,,,,,,,,3,,,35,66
591660,control_change,60,0,1,,,,,,,64,127,0,,,,
591660,control_change,60,0,4,,,,,,,64,127,3,,,,
591660,control_change,60,0,3,,,,,,,64,127,2,,,,
591720,note_off,60,0,4,,,,,,,,,3,,,35,0
591720,note_on,0,0,4,,,,,,,,,3,,,39,67
591720,note_on,0,0,1,,,,,,,,,0,,,78,68
591720,set_tempo,120,1,0,,,,,,500000,,,,,,,
591720,note_off,60,0,1,,,,,,,,,0,,,81,0
591840,note_on,0,0,1,,,,,,,,,0,,,75,69
591840,note_off,120,0,1,,,,,,,,,0,,,78,0
591840,note_on,0,0,4,,,,,,,,,3,,,42,68
591840,note_off,120,0,4,,,,,,,,,3,,,39,0
591960,note_off,120,0,4,,,,,,,,,3,,,42,0
591960,note_on,0,0,4,,,,,,,,,3,,,45,69
591960,note_off,120,0,1,,,,,,,,,0,,,75,0
591960,note_on,0,0,1,,,,,,,,,0,,,71,70
592080,note_off,120,0,4,,,,,,,,,3,,,45,0
592080,note_on,0,0,4,,,,,,,,,3,,,47,70
592080,note_on,0,0,1,,,,,,,,,0,,,69,71
592080,note_off,120,0,1,,,,,,,,,0,,,71,0
592200,note_off,120,0,4,,,,,,,,,3,,,47,0
592200,note_on,0,0,1,,,,,,,,,0,,,66,72
592200,note_on,0,0,4,,,,,,,,,3,,,51,71
592200,note_off,120,0,1,,,,,,,,,0,,,69,0
592320,note_off,120,0,4,,,,,,,,,3,,,51,0
592320,note_on,0,0,4,,,,,,,,,3,,,54,72
592320,note_on,0,0,1,,,,,,,,,0,,,63,73
592320,note_off,120,0,1,,,,,,,,,0,,,66,0
592440,note_off,120,0,1,,,,,,,,,0,,,63,0
592440,note_off,120,0,4,,,,,,,,,3,,,54,0
592440,note_on,0,0,1,,,,,,,,,0,,,59,74
592440,note_on,0,0,4,,,,,,,,,3,,,57,72
592560,note_on,0,0,4,,,,,,,,,3,,,54,73
592560,note_off,120,0,4,,,,,,,,,3,,,57,0
592560,note_off,120,0,1,,,,,,,,,0,,,59,0
592560,note_on,0,0,1,,,,,,,,,0,,,63,76
592680,note_off,120,0,4,,,,,,,,,3,,,54,0
592680,note_on,0,0,4,,,,,,,,,3,,,51,74
592680,note_off,120,0,1,,,,,,,,,0,,,63,0
592680,note_on,0,0,1,,,,,,,,,0,,,66,77
592800,note_on,0,0,1,,,,,,,,,0,,,69,78
592800,note_off,120,0,4,,,,,,,,,3,,,51,0
592800,note_on,0,0,4,,,,,,,,,3,,,47,75
592800,note_off,120,0,1,,,,,,,,,0,,,66,0
592920,note_on,0,0,4,,,,,,,,,3,,,45,76
592920,note_on,0,0,1,,,,,,,,,0,,,71,79
592920,note_off,120,0,1,,,,,,,,,0,,,69,0
592920,note_off,120,0,4,,,,,,,,,3,,,47,0
593040,note_off,120,0,1,,,,,,,,,0,,,71,0
593040,note_on,0,0,1,,,,,,,,,0,,,75,81
593040,note_on,0,0,4,,,,,,,,,3,,,42,77
593040,set_tempo,1320,1,0,,,,,,508474,,,,,,,
593040,note_off,120,0,4,,,,,,,,,3,,,45,0
593160,note_off,120,0,4,,,,,,,,,3,,,42,0
593160,note_on,0,0,4,,,,,,,,,3,,,35,73
593160,note_on,0,0,1,,,,,,,,,0,,,83,78
593160,set_tempo,120,1,0,,,,,,526315,,,,,,,
593160,note_off,120,0,1,,,,,,,,,0,,,75,0
593280,control_change,120,0,1,,,,,,,64,0,0,,,,
593280,note_off,0,0,1,,,,,,,,,0,,,83,0
593280,note_on,0,0,1,,,,,,,,,0,,,80,75
593280,control_change,1620,0,3,,,,,,,64,0,2,,,,
593280,control_change,120,0,4,,,,,,,64,0,3,,,,
593280,note_off,0,0,4,,,,,,,,,3,,,35,0
593280,note_on,0,0,4,,,,,,,,,3,,,40,69
593287,set_tempo,127,1,0,,,,,,821917,,,,,,,
593472,note_off,192,0,1,,,,,,,,,0,,,80,0
593472,note_off,192,0,4,,,,,,,,,3,,,40,0
593520,control_change,240,0,3,,,,,,,64,0,2,,,,
593520,note_on,0,0,4,,,,,,,,,3,,,49,37
593520,control_change,48,0,4,,,,,,,64,0,3,,,,
593520,control_change,1920,0,2,,,,,,,64,0,1,,,,
593520,control_change,48,0,1,,,,,,,64,0,0,,,,
593520,note_on,0,0,1,,,,,,,,,0,,,74,39
593530,set_tempo,243,1,0,,,,,,517241,,,,,,,
593580,control_change,60,0,4,,,,,,,64,127,3,,,,
593580,control_change,60,0,3,,,,,,,64,127,2,,,,
593580,control_change,60,0,1,,,,,,,64,127,0,,,,
593640,note_on,0,0,3,,,,,,,,,2,,,53,37
593640,note_on,0,0,3,,,,,,,,,2,,,71,39
593640,note_on,0,0,3,,,,,,,,,2,,,68,39
593640,note_on,60,0,3,,,,,,,,,2,,,65,39
593640,set_tempo,110,1,0,,,,,,526315,,,,,,,
593640,note_on,0,0,3,,,,,,,,,2,,,56,37
593640,note_on,0,0,3,,,,,,,,,2,,,59,37
593640,note_off,60,0,1,,,,,,,,,0,,,74,0
593640,note_off,60,0,4,,,,,,,,,3,,,49,0
593760,note_off,0,0,3,,,,,,,,,2,,,68,0
593760,note_off,0,0,3,,,,,,,,,2,,,71,0
593760,note_off,0,0,3,,,,,,,,,2,,,53,0
593760,note_off,0,0,3,,,,,,,,,2,,,56,0
593760,note_off,0,0,3,,,,,,,,,2,,,65,0
593760,control_change,120,0,4,,,,,,,64,0,3,,,,
593760,note_on,0,0,4,,,,,,,,,3,,,49,37
593760,note_on,0,0,1,,,,,,,,,0,,,74,39
593760,set_tempo,120,1,0,,,,,,517241,,,,,,,
593760,control_change,120,0,1,,,,,,,64,0,0,,,,
593760,control_change,240,0,2,,,,,,,64,0,1,,,,
593760,control_change,120,0,3,,,,,,,64,0,2,,,,
593760,note_off,0,0,3,,,,,,,,,2,,,59,0
593820,control_change,60,0,4,,,,,,,64,127,3,,,,
593820,control_change,60,0,1,,,,,,,64,127,0,,,,
593820,control_change,60,0,3,,,,,,,64,127,2,,,,
593880,note_off,60,0,4,,,,,,,,,3,,,49,0
593880,note_on,0,0,3,,,,,,,,,2,,,65,38
593880,note_on,0,0,3,,,,,,,,,2,,,71,38
593880,note_on,0,0,3,,,,,,,,,2,,,53,37
593880,note_on,0,0,3,,,,,,,,,2,,,59,37
593880,note_off,60,0,1,,,,,,,,,0,,,74,0
593880,note_on,60,0,3,,,,,,,,,2,,,68,38
593880,note_on,0,0,3,,,,,,,,,2,,,56,37
594000,note_on,120,0,4,,,,,,,,,3,,,49,37
594000,note_off,0,0,3,,,,,,,,,2,,,65,0
594000,note_off,0,0,3,,,,,,,,,2,,,56,0
594000,note_off,0,0,3,,,,,,,,,2,,,53,0
594000,note_off,0,0,3,,,,,,,,,2,,,71,0
594000,note_off,0,0,3,,,,,,,,,2,,,68,0
594000,note_on,120,0,1,,,,,,,,,0,,,74,39
594000,note_off,120,0,3,,,,,,,,,2,,,59,0
594120,note_on,120,0,3,,,,,,,,,2,,,59,37
594120,note_on,0,0,3,,,,,,,,,2,,,56,37
594120,note_on,0,0,3,,,,,,,,,2,,,53,37
594120,note_on,0,0,3,,,,,,,,,2,,,71,38
594120,note_on,0,0,3,,,,,,,,,2,,,65,38
594120,note_on,0,0,3,,,,,,,,,2,,,68,38
594120,note_off,120,0,4,,,,,,,,,3,,,49,0
594120,note_off,120,0,1,,,,,,,,,0,,,74,0
594240,note_on,120,0,4,,,,,,,,,3,,,49,36
594240,note_on,120,0,1,,,,,,,,,0,,,74,38
594240,note_off,0,0,3,,,,,,,,,2,,,59,0
594240,note_off,0,0,3,,,,,,,,,2,,,56,0
594240,note_off,0,0,3,,,,,,,,,2,,,53,0
594240,note_off,0,0,3,,,,,,,,,2,,,71,0
594240,note_off,0,0,3,,,,,,,,,2,,,65,0
594240,note_off,120,0,3,,,,,,,,,2,,,68,0
594360,note_on,0,0,3,,,,,,,,,2,,,53,36
594360,note_on,0,0,3,,,,,,,,,2,,,56,36
594360,note_on,0,0,3,,,,,,,,,2,,,71,38
594360,note_on,0,0,3,,,,,,,,,2,,,65,38
594360,note_on,0,0,3,,,,,,,,,2,,,68,38
594360,note_off,120,0,4,,,,,,,,,3,,,49,0
594360,note_off,120,0,1,,,,,,,,,0,,,74,0
594360,note_on,120,0,3,,,,,,,,,2,,,59,36
594480,note_on,120,0,4,,,,,,,,,3,,,49,36
594480,note_on,120,0,1,,,,,,,,,0,,,84,49
594480,note_off,120,0,3,,,,,,,,,2,,,68,0
594480,note_off,0,0,3,,,,,,,,,2,,,71,0
594480,note_off,0,0,3,,,,,,,,,2,,,56,0
594480,note_off,0,0,3,,,,,,,,,2,,,53,0
594480,note_off,0,0,3,,,,,,,,,2,,,59,0
594480,note_off,0,0,3,,,,,,,,,2,,,65,0
594600,note_on,120,0,3,,,,,,,,,2,,,53,36
594600,note_on,0,0,3,,,,,,,,,2,,,56,36
594600,note_off,120,0,4,,,,,,,,,3,,,49,0
594600,note_on,0,0,1,,,,,,,,,0,,,85,46
594600,note_off,120,0,1,,,,,,,,,0,,,84,0
594600,note_on,0,0,3,,,,,,,,,2,,,59,36
594720,note_on,120,0,4,,,,,,,,,3,,,49,36
594720,note_off,120,0,3,,,,,,,,,2,,,59,0
594720,note_off,0,0,3,,,,,,,,,2,,,53,0
594720,note_off,120,0,1,,,,,,,,,0,,,85,0
594720,note_on,0,0,1,,,,,,,,,0,,,86,44
594720,note_off,0,0,3,,,,,,,,,2,,,56,0
594840,note_on,0,0,3,,,,,,,,,2,,,56,35
594840,note_on,0,0,3,,,,,,,,,2,,,53,35
594840,note_off,120,0,4,,,,,,,,,3,,,49,0
594840,note_off,120,0,1,,,,,,,,,0,,,86,0
594840,note_on,0,0,1,,,,,,,,,0,,,84,42
594840,note_on,120,0,3,,,,,,,,,2,,,59,35
594960,note_off,120,0,1,,,,,,,,,0,,,84,0
594960,note_on,0,0,1,,,,,,,,,0,,,85,41
594960,note_off,120,0,3,,,,,,,,,2,,,53,0
594960,note_off,0,0,3,,,,,,,,,2,,,56,0
594960,note_off,0,0,3,,,,,,,,,2,,,59,0
594960,note_on,120,0,4,,,,,,,,,3,,,49,35
595080,note_on,0,0,3,,,,,,,,,2,,,59,35
595080,note_on,0,0,3,,,,,,,,,2,,,53,35
595080,note_on,120,0,3,,,,,,,,,2,,,56,35
595080,set_tempo,1320,1,0,,,,,,526315,,,,,,,
595080,note_off,120,0,4,,,,,,,,,3,,,49,0
595200,control_change,120,0,4,,,,,,,64,0,3,,,,
595200,note_on,0,0,4,,,,,,,,,3,,,49,35
595200,set_tempo,120,1,0,,,,,,517241,,,,,,,
595200,control_change,240,0,1,,,,,,,64,0,0,,,,
595200,note_off,0,0,1,,,,,,,,,0,,,85,0
595200,note_off,0,0,3,,,,,,,,,2,,,56,0
595200,note_off,0,0,3,,,,,,,,,2,,,59,0
595200,note_off,0,0,3,,,,,,,,,2,,,53,0
595200,control_change,120,0,3,,,,,,,64,0,2,,,,
595200,note_on,0,0,1,,,,,,,,,0,,,73,36
595260,control_change,60,0,3,,,,,,,64,127,2,,,,
595260,control_change,60,0,4,,,,,,,64,127,3,,,,
595260,control_change,60,0,1,,,,,,,64,127,0,,,,
595320,note_off,60,0,4,,,,,,,,,3,,,49,0
595320,note_off,60,0,1,,,,,,,,,0,,,73,0
595320,note_on,60,0,3,,,,,,,,,2,,,54,34
595320,note_on,0,0,3,,,,,,,,,2,,,57,34
595320,note_on,0,0,3,,,,,,,,,2,,,66,36
595320,note_on,0,0,3,,,,,,,,,2,,,69,36
595440,note_off,0,0,3,,,,,,,,,2,,,66,0
595440,note_on,120,0,1,,,,,,,,,0,,,73,35
595440,note_off,0,0,3,,,,,,,,,2,,,54,0
595440,note_off,0,0,3,,,,,,,,,2,,,57,0
595440,note_off,120,0,3,,,,,,,,,2,,,69,0
595440,note_on,120,0,4,,,,,,,,,3,,,49,34
595560,note_off,120,0,1,,,,,,,,,0,,,73,0
595560,note_on,0,0,3,,,,,,,,,2,,,66,35
595560,note_on,0,0,3,,,,,,,,,2,,,69,35
595560,note_on,0,0,3,,,,,,,,,2,,,57,34
595560,note_on,120,0,3,,,,,,,,,2,,,54,34
595560,note_off,120,0,4,,,,,,,,,3,,,49,0
595680,note_off,0,0,3,,,,,,,,,2,,,69,0
595680,note_off,120,0,3,,,,,,,,,2,,,66,0
595680,note_on,120,0,1,,,,,,,,,0,,,73,35
595680,note_off,0,0,3,,,,,,,,,2,,,57,0
595680,note_on,120,0,4,,,,,,,,,3,,,49,34
595680,note_off,0,0,3,,,,,,,,,2,,,54,0
595800,note_on,0,0,3,,,,,,,,,2,,,69,35
595800,set_tempo,600,1,0,,,,,,526315,,,,,,,
595800,note_on,0,0,3,,,,,,,,,2,,,57,34
595800,note_on,120,0,3,,,,,,,,,2,,,54,34
595800,note_off,120,0,1,,,,,,,,,0,,,73,0
595800,note_on,0,0,3,,,,,,,,,2,,,66,35
595800,note_off,120,0,4,,,,,,,,,3,,,49,0
595920,note_on,0,0,4,,,,,,,,,3,,,47,33
595920,control_change,120,0,4,,,,,,,64,0,3,,,,
595920,set_tempo,120,1,0,,,,,,517241,,,,,,,
595920,control_change,120,0,3,,,,,,,64,0,2,,,,
595920,note_off,0,0,3,,,,,,,,,2,,,66,0
595920,note_on,0,0,1,,,,,,,,,0,,,73,34
595920,note_off,0,0,3,,,,,,,,,2,,,54,0
595920,note_off,0,0,3,,,,,,,,,2,,,57,0
595920,note_off,0,0,3,,,,,,,,,2,,,69,0
595920,control_change,120,0,1,,,,,,,64,0,0,,,,
595980,control_change,60,0,1,,,,,,,64,127,0,,,,
595980,control_change,60,0,4,,,,,,,64,127,3,,,,
595980,control_change,60,0,3,,,,,,,64,127,2,,,,
596040,note_on,60,0,3,,,,,,,,,2,,,57,33
596040,note_on,0,0,3,,,,,,,,,2,,,54,33
596040,note_on,0,0,3,,,,,,,,,2,,,69,34
596040,note_on,0,0,3,,,,,,,,,2,,,63,34
596040,note_off,60,0,4,,,,,,,,,3,,,47,0
596040,note_off,60,0,1,,,,,,,,,0,,,73,0
596040,note_on,0,0,3,,,,,,,,,2,,,51,33
596040,note_on,0,0,3,,,,,,,,,2,,,66,34
596160,note_off,0,0,3,,,,,,,,,2,,,69,0
596160,note_off,120,0,3,,,,,,,,,2,,,63,0
596160,note_on,120,0,1,,,,,,,,,0,,,73,34
596160,note_off,0,0,3,,,,,,,,,2,,,51,0
596160,note_off,0,0,3,,,,,,,,,2,,,54,0
596160,note_off,0,0,3,,,,,,,,,2,,,57,0
596160,note_on,120,0,4,,,,,,,,,3,,,47,33
596160,note_off,0,0,3,,,,,,,,,2,,,66,0
596280,note_on,120,0,3,,,,,,,,,2,,,51,33
596280,note_on,0,0,3,,,,,,,,,2,,,54,33
596280,note_on,0,0,3,,,,,,,,,2,,,69,34
596280,note_on,0,0,3,,,,,,,,,2,,,66,34
596280,note_off,120,0,1,,,,,,,,,0,,,73,0
596280,note_off,120,0,4,,,,,,,,,3,,,47,0
596280,note_on,0,0,3,,,,,,,,,2,,,63,34
596280,note_on,0,0,3,,,,,,,,,2,,,57,33
596400,note_off,120,0,3,,,,,,,,,2,,,69,0
596400,note_off,0,0,3,,,,,,,,,2,,,63,0
596400,note_off,0,0,3,,,,,,,,,2,,,66,0
596400,note_off,0,0,3,,,,,,,,,2,,,57,0
596400,note_off,0,0,3,,,,,,,,,2,,,54,0
596400,note_off,0,0,3,,,,,,,,,2,,,51,0
596400,note_on,120,0,4,,,,,,,,,3,,,47,33
596400,note_on,120,0,1,,,,,,,,,0,,,73,33
596520,note_off,120,0,1,,,,,,,,,0,,,73,0
596520,note_on,120,0,3,,,,,,,,,2,,,51,32
596520,note_on,0,0,3,,,,,,,,,2,,,54,32
596520,note_on,0,0,3,,,,,,,,,2,,,57,32
596520,note_on,0,0,3,,,,,,,,,2,,,66,33
596520,note_off,120,0,4,,,,,,,,,3,,,47,0
596520,note_on,0,0,3,,,,,,,,,2,,,69,33
596520,note_on,0,0,3,,,,,,,,,2,,,63,33
596640,note_off,0,0,3,,,,,,,,,2,,,51,0
596640,note_off,0,0,3,,,,,,,,,2,,,66,0
596640,note_off,0,0,3,,,,,,,,,2,,,69,0
596640,note_off,120,0,3,,,,,,,,,2,,,63,0
596640,note_on,120,0,1,,,,,,,,,0,,,83,46
596640,note_off,0,0,3,,,,,,,,,2,,,54,0
596640,note_on,120,0,4,,,,,,,,,3,,,47,32
596640,note_off,0,0,3,,,,,,,,,2,,,57,0
596760,note_off,120,0,1,,,,,,,,,0,,,83,0
596760,note_on,0,0,1,,,,,,,,,0,,,84,43
596760,note_off,120,0,4,,,,,,,,,3,,,47,0
596760,note_on,0,0,3,,,,,,,,,2,,,57,32
596760,note_on,0,0,3,,,,,,,,,2,,,51,32
596760,note_on,120,0,3,,,,,,,,,2,,,54,32
596880,note_on,120,0,4,,,,,,,,,3,,,47,32
596880,note_off,0,0,3,,,,,,,,,2,,,57,0
596880,note_off,120,0,3,,,,,,,,,2,,,51,0
596880,note_off,120,0,1,,,,,,,,,0,,,84,0
596880,note_off,0,0,3,,,,,,,,,2,,,54,0
596880,note_on,0,0,1,,,,,,,,,0,,,85,41
597000,note_off,120,0,1,,,,,,,,,0,,,85,0
597000,note_on,0,0,1,,,,,,,,,0,,,84,39
597000,note_on,120,0,3,,,,,,,,,2,,,51,32
597000,note_on,0,0,3,,,,,,,,,2,,,54,32
597000,note_on,0,0,3,,,,,,,,,2,,,57,32
597000,note_off,120,0,4,,,,,,,,,3,,,47,0
597120,note_off,120,0,1,,,,,,,,,0,,,84,0
597120,note_on,0,0,1,,,,,,,,,0,,,85,38
597120,note_off,120,0,3,,,,,,,,,2,,,57,0
597120,note_off,0,0,3,,,,,,,,,2,,,54,0
597120,note_off,0,0,3,,,,,,,,,2,,,51,0
597120,note_on,120,0,4,,,,,,,,,3,,,47,31
597240,note_on,120,0,3,,,,,,,,,2,,,51,31
597240,note_on,0,0,3,,,,,,,,,2,,,57,31
597240,note_off,120,0,4,,,,,,,,,3,,,47,0
597240,note_on,0,0,3,,,,,,,,,2,,,54,31
597240,set_tempo,1320,1,0,,,,,,526315,,,,,,,
597360,control_change,240,0,1,,,,,,,64,0,0,,,,
597360,note_off,0,0,3,,,,,,,,,2,,,54,0
597360,note_off,0,0,3,,,,,,,,,2,,,57,0
597360,note_off,0,0,3,,,,,,,,,2,,,51,0
597360,set_tempo,120,1,0,,,,,,517241,,,,,,,
597360,control_change,120,0,3,,,,,,,64,0,2,,,,
597360,note_on,0,0,1,,,,,,,,,0,,,71,31
597360,control_change,120,0,4,,,,,,,64,0,3,,,,
597360,note_on,0,0,4,,,,,,,,,3,,,47,31
597360,note_off,0,0,1,,,,,,,,,0,,,85,0
597420,control_change,60,0,3,,,,,,,64,127,2,,,,
597420,control_change,60,0,1,,,,,,,64,127,0,,,,
597420,control_change,60,0,4,,,,,,,64,127,3,,,,
597480,note_on,0,0,3,,,,,,,,,2,,,68,31
597480,note_off,60,0,1,,,,,,,,,0,,,71,0
597480,note_on,0,0,3,,,,,,,,,2,,,64,31
597480,note_on,0,0,3,,,,,,,,,2,,,52,31
597480,note_on,60,0,3,,,,,,,,,2,,,56,31
597480,note_off,60,0,4,,,,,,,,,3,,,47,0
597600,note_on,120,0,1,,,,,,,,,0,,,71,31
597600,note_off,0,0,3,,,,,,,,,2,,,56,0
597600,note_off,0,0,3,,,,,,,,,2,,,52,0
597600,note_off,0,0,3,,,,,,,,,2,,,68,0
597600,note_off,120,0,3,,,,,,,,,2,,,64,0
597600,note_on,120,0,4,,,,,,,,,3,,,47,31
597720,note_off,120,0,1,,,,,,,,,0,,,71,0
597720,note_on,0,0,3,,,,,,,,,2,,,52,30
597720,note_on,0,0,3,,,,,,,,,2,,,68,30
597720,note_on,0,0,3,,,,,,,,,2,,,64,30
597720,note_on,120,0,3,,,,,,,,,2,,,56,30
597720,note_off,120,0,4,,,,,,,,,3,,,47,0
597840,note_off,0,0,3,,,,,,,,,2,,,68,0
597840,note_on,120,0,4,,,,,,,,,3,,,47,30
597840,note_off,0,0,3,,,,,,,,,2,,,52,0
597840,note_on,120,0,1,,,,,,,,,0,,,71,30
597840,note_off,0,0,3,,,,,,,,,2,,,56,0
597840,note_off,120,0,3,,,,,,,,,2,,,64,0
597960,note_on,120,0,3,,,,,,,,,2,,,56,30
597960,note_on,0,0,3,,,,,,,,,2,,,52,30
597960,note_on,0,0,3,,,,,,,,,2,,,64,30
597960,set_tempo,600,1,0,,,,,,526315,,,,,,,
597960,note_off,120,0,1,,,,,,,,,0,,,71,0
597960,note_off,120,0,4,,,,,,,,,3,,,47,0
597960,note_on,0,0,3,,,,,,,,,2,,,68,30
598080,set_tempo,120,1,0,,,,,,517241,,,,,,,
598080,note_off,0,0,3,,,,,,,,,2,,,64,0
598080,note_off,0,0,3,,,,,,,,,2,,,52,0
598080,note_off,0,0,3,,,,,,,,,2,,,56,0
598080,note_off,0,0,3,,,,,,,,,2,,,68,0
598080,control_change,120,0,3,,,,,,,64,0,2,,,,
598080,note_on,0,0,1,,,,,,,,,0,,,76,31
598080,note_on,0,0,4,,,,,,,,,3,,,46,29
598080,control_change,120,0,4,,,,,,,64,0,3,,,,
598080,control_change,120,0,1,,,,,,,64,0,0,,,,
598140,control_change,60,0,4,,,,,,,64,127,3,,,,
598140,control_change,60,0,1,,,,,,,64,127,0,,,,
598140,control_change,60,0,3,,,,,,,64,127,2,,,,
598200,note_on,0,0,3,,,,,,,,,2,,,67,32
598200,note_on,0,0,3,,,,,,,,,2,,,73,32
598200,note_on,0,0,3,,,,,,,,,2,,,52,30
598200,note_on,0,0,3,,,,,,,,,2,,,55,30
598200,note_on,60,0,3,,,,,,,,,2,,,49,30
598200,note_on,0,0,3,,,,,,,,,2,,,64,32
598200,note_off,60,0,1,,,,,,,,,0,,,76,0
598200,note_off,60,0,4,,,,,,,,,3,,,46,0
598320,note_off,0,0,3,,,,,,,,,2,,,73,0
598320,note_off,0,0,3,,,,,,,,,2,,,55,0
598320,note_off,0,0,3,,,,,,,,,2,,,49,0
598320,note_off,0,0,3,,,,,,,,,2,,,52,0
598320,note_off,0,0,3,,,,,,,,,2,,,67,0
598320,note_on,120,0,4,,,,,,,,,3,,,46,32
598320,note_on,120,0,1,,,,,,,,,0,,,76,34
598320,note_off,120,0,3,,,,,,,,,2,,,64,0
598440,note_off,120,0,4,,,,,,,,,3,,,46,0
598440,note_off,120,0,1,,,,,,,,,0,,,76,0
598440,note_on,120,0,3,,,,,,,,,2,,,49,33
598440,note_on,0,0,3,,,,,,,,,2,,,55,33
598440,note_on,0,0,3,,,,,,,,,2,,,52,33
598440,note_on,0,0,3,,,,,,,,,2,,,73,35
598440,note_on,0,0,3,,,,,,,,,2,,,67,35
598440,note_on,0,0,3,,,,,,,,,2,,,64,35
598560,note_off,0,0,3,,,,,,,,,2,,,55,0
598560,note_off,120,0,3,,,,,,,,,2,,,64,0
598560,note_off,0,0,3,,,,,,,,,2,,,67,0
598560,note_off,0,0,3,,,,,,,,,2,,,73,0
598560,note_off,0,0,3,,,,,,,,,2,,,52,0
598560,note_off,0,0,3,,,,,,,,,2,,,49,0
598560,note_on,120,0,1,,,,,,,,,0,,,76,47
598560,note_on,120,0,4,,,,,,,,,3,,,46,45
598680,note_on,0,0,3,,,,,,,,,2,,,67,38
598680,note_on,0,0,3,,,,,,,,,2,,,64,38
598680,note_on,0,0,3,,,,,,,,,2,,,73,38
598680,note_on,0,0,3,,,,,,,,,2,,,52,36
598680,note_on,0,0,3,,,,,,,,,2,,,55,36
598680,note_on,120,0,3,,,,,,,,,2,,,49,36
598680,note_off,120,0,1,,,,,,,,,0,,,76,0
598680,note_off,120,0,4,,,,,,,,,3,,,46,0
598800,note_on,120,0,4,,,,,,,,,3,,,46,38
598800,note_off,0,0,3,,,,,,,,,2,,,52,0
598800,note_on,120,0,1,,,,,,,,,0,,,76,40
598800,note_off,0,0,3,,,,,,,,,2,,,73,0
598800,note_off,0,0,3,,,,,,,,,2,,,64,0
598800,note_off,120,0,3,,,,,,,,,2,,,67,0
598800,note_off,0,0,3,,,,,,,,,2,,,55,0
598800,note_off,0,0,3,,,,,,,,,2,,,49,0
598920,note_on,0,0,3,,,,,,,,,2,,,52,39
598920,note_on,0,0,3,,,,,,,,,2,,,73,41
598920,note_on,0,0,3,,,,,,,,,2,,,67,41
598920,note_on,0,0,3,,,,,,,,,2,,,64,41
598920,note_off,120,0,4,,,,,,,,,3,,,46,0
598920,note_on,120,0,3,,,,,,,,,2,,,49,39
598920,note_off,120,0,1,,,,,,,,,0,,,76,0
598920,note_on,0,0,3,,,,,,,,,2,,,55,39
599040,note_on,120,0,4,,,,,,,,,3,,,46,40
599040,note_on,120,0,1,,,,,,,,,0,,,76,43
599040,note_off,0,0,3,,,,,,,,,2,,,55,0
599040,note_off,0,0,3,,,,,,,,,2,,,49,0
599040,note_off,0,0,3,,,,,,,,,2,,,52,0
599040,note_off,0,0,3,,,,,,,,,2,,,73,0
599040,note_off,0,0,3,,,,,,,,,2,,,67,0
599040,note_off,120,0,3,,,,,,,,,2,,,64,0
599160,note_on,0,0,3,,,,,,,,,2,,,64,44
599160,note_on,0,0,3,,,,,,,,,2,,,52,42
599160,note_on,0,0,3,,,,,,,,,2,,,55,42
599160,note_on,120,0,3,,,,,,,,,2,,,49,42
599160,note_off,120,0,1,,,,,,,,,0,,,76,0
599160,note_off,120,0,4,,,,,,,,,3,,,46,0
599160,note_on,0,0,3,,,,,,,,,2,,,73,44
599160,note_on,0,0,3,,,,,,,,,2,,,67,44
599280,note_on,120,0,1,,,,,,,,,0,,,76,57
599280,note_on,120,0,4,,,,,,,,,3,,,46,52
599280,note_off,0,0,3,,,,,,,,,2,,,52,0
599280,note_off,120,0,3,,,,,,,,,2,,,64,0
599280,note_off,0,0,3,,,,,,,,,2,,,67,0
599280,note_off,0,0,3,,,,,,,,,2,,,73,0
599280,note_off,0,0,3,,,,,,,,,2,,,55,0
599280,note_off,0,0,3,,,,,,,,,2,,,49,0
599400,note_on,0,0,3,,,,,,,,,2,,,64,47
599400,note_on,0,0,3,,,,,,,,,2,,,67,47
599400,note_on,0,0,3,,,,,,,,,2,,,73,47
599400,note_on,0,0,3,,,,,,,,,2,,,52,45
599400,note_on,0,0,3,,,,,,,,,2,,,55,45
599400,note_off,120,0,4,,,,,,,,,3,,,46,0
599400,note_off,120,0,1,,,,,,,,,0,,,76,0
599400,note_on,120,0,3,,,,,,,,,2,,,49,45
599520,note_off,0,0,3,,,,,,,,,2,,,55,0
599520,note_on,120,0,4,,,,,,,,,3,,,46,56
599520,note_off,0,0,3,,,,,,,,,2,,,52,0
599520,note_off,120,0,3,,,,,,,,,2,,,64,0
599520,note_off,0,0,3,,,,,,,,,2,,,73,0
599520,note_off,0,0,3,,,,,,,,,2,,,49,0
599520,note_on,120,0,1,,,,,,,,,0,,,76,59
599520,note_off,0,0,3,,,,,,,,,2,,,67,0
599640,note_on,0,0,3,,,,,,,,,2,,,64,50
599640,note_on,0,0,3,,,,,,,,,2,,,55,48
599640,note_off,120,0,1,,,,,,,,,0,,,76,0
599640,note_off,120,0,4,,,,,,,,,3,,,46,0
599640,note_on,120,0,3,,,,,,,,,2,,,49,48
599640,note_on,0,0,3,,,,,,,,,2,,,73,50
599640,note_on,0,0,3,,,,,,,,,2,,,67,50
599640,note_on,0,0,3,,,,,,,,,2,,,52,48
599760,note_off,120,0,3,,,,,,,,,2,,,64,0
599760,note_off,0,0,3,,,,,,,,,2,,,67,0
599760,note_off,0,0,3,,,,,,,,,2,,,73,0
599760,note_off,0,0,3,,,,,,,,,2,,,52,0
599760,note_off,0,0,3,,,,,,,,,2,,,55,0
599760,note_off,0,0,3,,,,,,,,,2,,,49,0
599760,note_on,120,0,1,,,,,,,,,0,,,76,62
599760,note_on,120,0,4,,,,,,,,,3,,,46,59
599880,note_off,120,0,1,,,,,,,,,0,,,76,0
599880,note_on,0,0,3,,,,,,,,,2,,,64,53
599880,note_on,0,0,3,,,,,,,,,2,,,67,53
599880,note_on,0,0,3,,,,,,,,,2,,,73,53
599880,note_on,0,0,3,,,,,,,,,2,,,52,50
599880,note_on,0,0,3,,,,,,,,,2,,,55,50
599880,note_on,120,0,3,,,,,,,,,2,,,49,50
599880,note_off,120,0,4,,,,,,,,,3,,,46,0
600000,control_change,120,0,1,,,,,,,64,0,0,,,,
600000,note_on,0,0,4,,,,,,,,,3,,,46,62
600000,control_change,120,0,4,,,,,,,64,0,3,,,,
600000,note_on,0,0,1,,,,,,,,,0,,,75,65
600000,note_off,0,0,3,,,,,,,,,2,,,55,0
600000,note_off,0,0,3,,,,,,,,,2,,,49,0
600000,note_off,0,0,3,,,,,,,,,2,,,52,0
600000,note_off,0,0,3,,,,,,,,,2,,,67,0
600000,note_off,0,0,3,,,,,,,,,2,,,64,0
600000,control_change,120,0,3,,,,,,,64,0,2,,,,
600000,note_off,0,0,3,,,,,,,,,2,,,73,0
600060,control_change,60,0,4,,,,,,,64,127,3,,,,
600060,control_change,60,0,1,,,,,,,64,127,0,,,,
600060,control_change,60,0,3,,,,,,,64,127,2,,,,
600120,note_off,60,0,4,,,,,,,,,3,,,46,0
600120,set_tempo,2040,1,0,,,,,,526315,,,,,,,
600120,note_off,60,0,1,,,,,,,,,0,,,75,0
600120,note_on,0,0,3,,,,,,,,,2,,,66,56
600120,note_on,0,0,3,,,,,,,,,2,,,54,53
600120,note_on,60,0,3,,,,,,,,,2,,,49,53
600120,note_on,0,0,3,,,,,,,,,2,,,51,53
600120,note_on,0,0,3,,,,,,,,,2,,,63,56
600120,note_on,0,0,3,,,,,,,,,2,,,73,56
600240,note_off,0,0,3,,,,,,,,,2,,,73,0
600240,note_off,0,0,3,,,,,,,,,2,,,54,0
600240,control_change,120,0,1,,,,,,,64,0,0,,,,
600240,note_on,0,0,4,,,,,,,,,3,,,44,65
600240,control_change,120,0,4,,,,,,,64,0,3,,,,
600240,note_off,0,0,3,,,,,,,,,2,,,66,0
600240,control_change,120,0,3,,,,,,,64,0,2,,,,
600240,note_off,0,0,3,,,,,,,,,2,,,63,0
600240,note_off,0,0,3,,,,,,,,,2,,,51,0
600240,note_off,0,0,3,,,,,,,,,2,,,49,0
600240,note_on,0,0,1,,,,,,,,,0,,,75,69
600240,set_tempo,120,1,0,,,,,,517241,,,,,,,
600300,control_change,60,0,3,,,,,,,64,127,2,,,,
600300,control_change,60,0,1,,,,,,,64,127,0,,,,
600300,control_change,60,0,4,,,,,,,64,127,3,,,,
600360,note_on,60,0,3,,,,,,,,,2,,,47,56
600360,note_on,0,0,3,,,,,,,,,2,,,63,59
600360,note_off,60,0,1,,,,,,,,,0,,,75,0
600360,note_on,0,0,3,,,,,,,,,2,,,68,59
600360,note_off,60,0,4,,,,,,,,,3,,,44,0
600360,note_on,0,0,3,,,,,,,,,2,,,51,56
600360,note_on,0,0,3,,,,,,,,,2,,,71,59
600360,note_on,0,0,3,,,,,,,,,2,,,56,56
600480,note_on,120,0,4,,,,,,,,,3,,,44,58
600480,note_off,0,0,3,,,,,,,,,2,,,47,0
600480,note_off,0,0,3,,,,,,,,,2,,,56,0
600480,note_off,0,0,3,,,,,,,,,2,,,51,0
600480,note_off,0,0,3,,,,,,,,,2,,,63,0
600480,note_on,120,0,1,,,,,,,,,0,,,75,61
600480,note_off,0,0,3,,,,,,,,,2,,,68,0
600480,note_off,120,0,3,,,,,,,,,2,,,71,0
600600,note_off,120,0,4,,,,,,,,,3,,,44,0
600600,note_off,120,0,1,,,,,,,,,0,,,75,0
600600,note_on,0,0,3,,,,,,,,,2,,,56,59
600600,note_on,120,0,3,,,,,,,,,2,,,47,59
600600,note_on,0,0,3,,,,,,,,,2,,,51,59
600600,note_on,0,0,3,,,,,,,,,2,,,68,62
600600,note_on,0,0,3,,,,,,,,,2,,,71,62
600600,note_on,0,0,3,,,,,,,,,2,,,63,62
600720,note_off,120,0,3,,,,,,,,,2,,,63,0
600720,note_off,0,0,3,,,,,,,,,2,,,71,0
600720,note_off,0,0,3,,,,,,,,,2,,,68,0
600720,note_off,0,0,3,,,,,,,,,2,,,56,0
600720,note_off,0,0,3,,,,,,,,,2,,,51,0
600720,note_off,0,0,3,,,,,,,,,2,,,47,0
600720,note_on,120,0,4,,,,,,,,,3,,,44,61
600720,note_on,120,0,1,,,,,,,,,0,,,75,64
600840,note_on,120,0,3,,,,,,,,,2,,,47,62
600840,note_on,0,0,3,,,,,,,,,2,,,51,62
600840,note_off,120,0,4,,,,,,,,,3,,,44,0
600840,note_on,0,0,3,,,,,,,,,2,,,56,62
600840,note_on,0,0,3,,,,,,,,,2,,,68,65
600840,note_on,0,0,3,,,,,,,,,2,,,63,65
600840,note_on,0,0,3,,,,,,,,,2,,,71,65
600840,note_off,120,0,1,,,,,,,,,0,,,75,0
600960,note_on,0,0,1,,,,,,,,,0,,,75,77
600960,control_change,120,0,1,,,,,,,64,0,0,,,,
600960,control_change,120,0,3,,,,,,,64,0,2,,,,
600960,note_on,0,0,4,,,,,,,,,3,,,44,73
600960,note_off,0,0,3,,,,,,,,,2,,,71,0
600960,note_off,0,0,3,,,,,,,,,2,,,63,0
600960,note_off,0,0,3,,,,,,,,,2,,,68,0
600960,note_off,0,0,3,,,,,,,,,2,,,56,0
600960,note_off,0,0,3,,,,,,,,,2,,,51,0
600960,note_off,0,0,3,,,,,,,,,2,,,47,0
600960,control_change,120,0,4,,,,,,,64,0,3,,,,
601020,control_change,60,0,1,,,,,,,64,127,0,,,,
601020,control_change,60,0,3,,,,,,,64,127,2,,,,
601020,control_change,60,0,4,,,,,,,64,127,3,,,,
601080,note_on,0,0,3,,,,,,,,,2,,,63,68
601080,note_on,0,0,3,,,,,,,,,2,,,67,68
601080,note_on,0,0,3,,,,,,,,,2,,,70,68
601080,note_on,0,0,3,,,,,,,,,2,,,49,65
601080,note_on,60,0,3,,,,,,,,,2,,,55,65
601080,note_off,60,0,1,,,,,,,,,0,,,75,0
601080,note_on,0,0,3,,,,,,,,,2,,,51,65
601080,note_off,60,0,4,,,,,,,,,3,,,44,0
601200,note_on,120,0,4,,,,,,,,,3,,,44,66
601200,note_off,0,0,3,,,,,,,,,2,,,55,0
601200,note_off,0,0,3,,,,,,,,,2,,,51,0
601200,note_off,0,0,3,,,,,,,,,2,,,49,0
601200,note_off,0,0,3,,,,,,,,,2,,,70,0
601200,note_off,0,0,3,,,,,,,,,2,,,67,0
601200,note_on,120,0,1,,,,,,,,,0,,,75,70
601200,note_off,120,0,3,,,,,,,,,2,,,63,0
601320,note_on,0,0,3,,,,,,,,,2,,,51,68
601320,note_on,120,0,3,,,,,,,,,2,,,55,68
601320,note_on,0,0,3,,,,,,,,,2,,,70,71
601320,note_on,0,0,3,,,,,,,,,2,,,49,68
601320,note_off,120,0,1,,,,,,,,,0,,,75,0
601320,note_on,0,0,3,,,,,,,,,2,,,67,71
601320,note_off,120,0,4,,,,,,,,,3,,,44,0
601320,note_on,0,0,3,,,,,,,,,2,,,63,71
601440,note_off,0,0,3,,,,,,,,,2,,,70,0
601440,note_off,120,0,3,,,,,,,,,2,,,67,0
601440,note_off,0,0,3,,,,,,,,,2,,,49,0
601440,note_off,0,0,3,,,,,,,,,2,,,63,0
601440,note_on,120,0,4,,,,,,,,,3,,,44,69
601440,note_on,120,0,1,,,,,,,,,0,,,75,73
601440,note_off,0,0,3,,,,,,,,,2,,,51,0
601440,note_off,0,0,3,,,,,,,,,2,,,55,0
601560,note_off,120,0,4,,,,,,,,,3,,,44,0
601560,note_off,120,0,1,,,,,,,,,0,,,75,0
601560,note_on,0,0,3,,,,,,,,,2,,,51,71
601560,note_on,120,0,3,,,,,,,,,2,,,55,71
601560,note_on,0,0,3,,,,,,,,,2,,,49,71
601560,note_on,0,0,3,,,,,,,,,2,,,63,74
601560,note_on,0,0,3,,,,,,,,,2,,,70,74
601560,note_on,0,0,3,,,,,,,,,2,,,67,74
601680,control_change,120,0,1,,,,,,,64,0,0,,,,
601680,note_on,0,0,1,,,,,,,,,0,,,75,86
601680,note_off,0,0,3,,,,,,,,,2,,,55,0
601680,note_off,0,0,3,,,,,,,,,2,,,51,0
601680,note_off,0,0,3,,,,,,,,,2,,,49,0
601680,note_on,0,0,4,,,,,,,,,3,,,44,82
601680,note_off,0,0,3,,,,,,,,,2,,,70,0
601680,note_off,0,0,3,,,,,,,,,2,,,67,0
601680,control_change,120,0,3,,,,,,,64,0,2,,,,
601680,control_change,120,0,4,,,,,,,64,0,3,,,,
601680,note_off,0,0,3,,,,,,,,,2,,,63,0
601740,control_change,60,0,3,,,,,,,64,127,2,,,,
601740,control_change,60,0,1,,,,,,,64,127,0,,,,
601740,control_change,60,0,4,,,,,,,64,127,3,,,,
601800,note_off,60,0,1,,,,,,,,,0,,,75,0
601800,note_off,60,0,4,,,,,,,,,3,,,44,0
601800,note_on,0,0,3,,,,,,,,,2,,,71,77
601800,note_on,0,0,3,,,,,,,,,2,,,68,77
601800,note_on,60,0,3,,,,,,,,,2,,,56,74
601800,note_on,0,0,3,,,,,,,,,2,,,51,74
601800,note_on,0,0,3,,,,,,,,,2,,,47,74
601800,note_on,0,0,3,,,,,,,,,2,,,63,77
601920,control_change,120,0,4,,,,,,,64,0,3,,,,
601920,note_on,0,0,4,,,,,,,,,3,,,44,75
601920,note_on,120,0,1,,,,,,,,,0,,,75,79
601920,note_off,120,0,3,,,,,,,,,2,,,71,0
601920,note_off,0,0,3,,,,,,,,,2,,,68,0
601920,note_off,0,0,3,,,,,,,,,2,,,56,0
601920,note_off,0,0,3,,,,,,,,,2,,,51,0
601920,note_off,0,0,3,,,,,,,,,2,,,47,0
601920,note_off,0,0,3,,,,,,,,,2,,,63,0
602040,note_on,0,0,3,,,,,,,,,2,,,63,80
602040,note_off,120,0,4,,,,,,,,,3,,,44,0
602040,note_on,0,0,3,,,,,,,,,2,,,47,76
602040,note_on,0,0,3,,,,,,,,,2,,,51,76
602040,note_on,120,0,3,,,,,,,,,2,,,56,76
602040,note_off,120,0,1,,,,,,,,,0,,,75,0
602040,note_on,0,0,3,,,,,,,,,2,,,68,80
602040,note_on,0,0,3,,,,,,,,,2,,,71,80
602160,note_off,0,0,3,,,,,,,,,2,,,56,0
602160,control_change,120,0,4,,,,,,,64,0,3,,,,
602160,note_on,0,0,1,,,,,,,,,0,,,76,82
602160,note_on,0,0,4,,,,,,,,,3,,,44,78
602160,note_off,0,0,3,,,,,,,,,2,,,51,0
602160,note_off,0,0,3,,,,,,,,,2,,,47,0
602160,note_off,0,0,3,,,,,,,,,2,,,63,0
602160,note_off,0,0,3,,,,,,,,,2,,,68,0
602160,note_off,0,0,3,,,,,,,,,2,,,71,0
602160,control_change,120,0,3,,,,,,,64,0,2,,,,
602160,control_change,120,0,1,,,,,,,64,0,0,,,,
602160,set_tempo,1920,1,0,,,,,,526315,,,,,,,
602280,note_off,120,0,1,,,,,,,,,0,,,76,0
602280,note_on,120,0,3,,,,,,,,,2,,,51,79
602280,note_off,120,0,4,,,,,,,,,3,,,44,0
602280,note_on,0,0,3,,,,,,,,,2,,,56,79
602280,note_on,0,0,3,,,,,,,,,2,,,64,83
602280,note_on,0,0,3,,,,,,,,,2,,,47,79
602280,note_on,0,0,3,,,,,,,,,2,,,68,83
602280,note_on,0,0,3,,,,,,,,,2,,,71,83
602280,set_tempo,120,1,0,,,,,,540540,,,,,,,
602400,note_off,0,0,3,,,,,,,,,2,,,51,0
602400,note_off,0,0,3,,,,,,,,,2,,,56,0
602400,note_off,0,0,3,,,,,,,,,2,,,47,0
602400,note_off,0,0,3,,,,,,,,,2,,,68,0
602400,set_tempo,120,1,0,,,,,,508474,,,,,,,
602400,note_off,120,0,3,,,,,,,,,2,,,71,0
602400,note_on,120,0,4,,,,,,,,,3,,,42,81
602400,note_off,0,0,3,,,,,,,,,2,,,64,0
602400,note_on,120,0,1,,,,,,,,,0,,,81,96
602520,note_off,120,0,4,,,,,,,,,3,,,42,0
602520,set_tempo,120,1,0,,,,,,500000,,,,,,,
602520,note_on,120,0,3,,,,,,,,,2,,,45,81
602520,note_on,0,0,3,,,,,,,,,2,,,52,81
602520,note_off,120,0,1,,,,,,,,,0,,,81,0
602520,note_on,0,0,3,,,,,,,,,2,,,49,81
602520,note_on,0,0,1,,,,,,,,,0,,,83,90
602640,note_on,120,0,4,,,,,,,,,3,,,42,81
602640,note_off,0,0,3,,,,,,,,,2,,,45,0
602640,note_off,0,0,3,,,,,,,,,2,,,52,0
602640,note_off,120,0,3,,,,,,,,,2,,,49,0
602640,note_off,120,0,1,,,,,,,,,0,,,83,0
602640,note_on,0,0,1,,,,,,,,,0,,,85,89
602760,note_off,120,0,1,,,,,,,,,0,,,85,0
602760,note_on,0,0,3,,,,,,,,,2,,,49,80
602760,note_on,120,0,3,,,,,,,,,2,,,45,80
602760,note_on,0,0,1,,,,,,,,,0,,,78,89
602760,note_on,0,0,3,,,,,,,,,2,,,52,80
602760,note_off,120,0,4,,,,,,,,,3,,,42,0
602880,note_off,0,0,3,,,,,,,,,2,,,49,0
602880,note_off,0,0,3,,,,,,,,,2,,,45,0
602880,note_off,120,0,3,,,,,,,,,2,,,52,0
602880,note_on,0,0,1,,,,,,,,,0,,,80,88
602880,note_off,120,0,1,,,,,,,,,0,,,78,0
602880,note_on,120,0,4,,,,,,,,,3,,,42,80
603000,note_off,120,0,4,,,,,,,,,3,,,42,0
603000,set_tempo,480,1,0,,,,,,508474,,,,,,,
603000,note_off,120,0,1,,,,,,,,,0,,,80,0
603000,note_on,0,0,1,,,,,,,,,0,,,81,87
603000,note_on,0,0,3,,,,,,,,,2,,,52,80
603000,note_on,0,0,3,,,,,,,,,2,,,49,80
603000,note_on,120,0,3,,,,,,,,,2,,,45,80
603120,note_off,120,0,3,,,,,,,,,2,,,52,0
603120,note_on,120,0,4,,,,,,,,,3,,,42,80
603120,note_off,0,0,3,,,,,,,,,2,,,45,0
603120,note_off,0,0,3,,,,,,,,,2,,,49,0
603120,note_on,9360,0,2,,,,,,,,,1,,,69,88
603120,note_on,0,0,1,,,,,,,,,0,,,73,86
603120,note_off,120,0,1,,,,,,,,,0,,,81,0
603240,note_off,120,0,4,,,,,,,,,3,,,42,0
603240,set_tempo,240,1,0,,,,,,500000,,,,,,,
603240,note_off,120,0,2,,,,,,,,,1,,,69,0
603240,note_on,120,0,3,,,,,,,,,2,,,45,79
603240,note_on,0,0,3,,,,,,,,,2,,,49,79
603240,note_on,0,0,3,,,,,,,,,2,,,52,79
603240,note_on,0,0,2,,,,,,,,,1,,,71,83
603360,note_off,120,0,2,,,,,,,,,1,,,71,0
603360,note_off,240,0,1,,,,,,,,,0,,,73,0
603360,note_on,0,0,2,,,,,,,,,1,,,73,82
603360,note_off,0,0,3,,,,,,,,,2,,,45,0
603360,note_off,120,0,3,,,,,,,,,2,,,52,0
603360,note_off,0,0,3,,,,,,,,,2,,,49,0
603360,note_on,120,0,4,,,,,,,,,3,,,42,79
603480,note_off,120,0,2,,,,,,,,,1,,,73,0
603480,note_on,0,0,2,,,,,,,,,1,,,69,82
603480,note_on,0,0,3,,,,,,,,,2,,,49,79
603480,note_on,0,0,3,,,,,,,,,2,,,52,79
603480,note_off,120,0,4,,,,,,,,,3,,,42,0
603480,note_on,120,0,3,,,,,,,,,2,,,45,79
603600,note_off,120,0,3,,,,,,,,,2,,,52,0
603600,note_off,0,0,3,,,,,,,,,2,,,49,0
603600,note_off,0,0,3,,,,,,,,,2,,,45,0
603600,note_on,0,0,2,,,,,,,,,1,,,71,82
603600,note_off,120,0,2,,,,,,,,,1,,,69,0
603600,note_on,120,0,4,,,,,,,,,3,,,42,78
603720,note_on,120,0,3,,,,,,,,,2,,,45,78
603720,note_on,0,0,3,,,,,,,,,2,,,49,78
603720,note_off,120,0,2,,,,,,,,,1,,,71,0
603720,note_on,0,0,3,,,,,,,,,2,,,52,78
603720,set_tempo,480,1,0,,,,,,508474,,,,,,,
603720,note_on,0,0,2,,,,,,,,,1,,,73,81
603720,note_off,120,0,4,,,,,,,,,3,,,42,0
603840,note_off,120,0,2,,,,,,,,,1,,,73,0
603840,note_off,0,0,3,,,,,,,,,2,,,49,0
603840,note_on,480,0,1,,,,,,,,,0,,,69,90
603840,note_off,120,0,3,,,,,,,,,2,,,52,0
603840,note_on,120,0,4,,,,,,,,,3,,,52,78
603840,note_on,0,0,2,,,,,,,,,1,,,61,81
603840,note_off,0,0,3,,,,,,,,,2,,,45,0
603840,note_on,0,0,3,,,,,,,,,2,,,54,83
603960,note_off,120,0,1,,,,,,,,,0,,,69,0
603960,note_on,0,0,1,,,,,,,,,0,,,71,84
603960,note_on,0,0,3,,,,,,,,,2,,,56,78
603960,set_tempo,240,1,0,,,,,,500000,,,,,,,
603960,note_off,120,0,3,,,,,,,,,2,,,54,0
604080,note_on,0,0,3,,,,,,,,,2,,,57,77
604080,note_off,120,0,1,,,,,,,,,0,,,71,0
604080,note_on,0,0,1,,,,,,,,,0,,,73,83
604080,note_off,120,0,3,,,,,,,,,2,,,56,0
604200,note_off,120,0,3,,,,,,,,,2,,,57,0
604200,note_on,0,0,3,,,,,,,,,2,,,54,77
604200,note_off,120,0,1,,,,,,,,,0,,,73,0
604200,note_on,0,0,1,,,,,,,,,0,,,69,81
604320,note_off,120,0,3,,,,,,,,,2,,,54,0
604320,note_on,0,0,3,,,,,,,,,2,,,56,77
604320,note_on,0,0,1,,,,,,,,,0,,,71,80
604320,note_off,120,0,1,,,,,,,,,0,,,69,0
604440,note_off,120,0,1,,,,,,,,,0,,,71,0
604440,set_tempo,480,1,0,,,,,,508474,,,,,,,
604440,note_on,0,0,3,,,,,,,,,2,,,57,76
604440,note_off,120,0,3,,,,,,,,,2,,,56,0
604440,note_on,0,0,1,,,,,,,,,0,,,73,79
604560,note_off,720,0,4,,,,,,,,,3,,,52,0
604560,note_off,120,0,1,,,,,,,,,0,,,73,0
604560,note_on,0,0,1,,,,,,,,,0,,,73,78
604560,note_on,0,0,2,,,,,,,,,1,,,66,84
604560,note_off,720,0,2,,,,,,,,,1,,,61,0
604560,note_off,120,0,3,,,,,,,,,2,,,57,0
604560,note_on,0,0,4,,,,,,,,,3,,,51,81
604680,note_on,0,0,2,,,,,,,,,1,,,68,78
604680,note_off,120,0,2,,,,,,,,,1,,,66,0
604680,set_tempo,240,1,0,,,,,,500000,,,,,,,
604680,note_on,0,0,4,,,,,,,,,3,,,52,76
604680,note_off,120,0,4,,,,,,,,,3,,,51,0
604800,note_on,0,0,4,,,,,,,,,3,,,54,76
604800,note_off,120,0,2,,,,,,,,,1,,,68,0
604800,note_on,0,0,2,,,,,,,,,1,,,69,78
604800,note_off,120,0,4,,,,,,,,,3,,,52,0
604920,note_off,120,0,2,,,,,,,,,1,,,69,0
604920,note_on,0,0,2,,,,,,,,,1,,,66,78
604920,note_off,120,0,4,,,,,,,,,3,,,54,0
604920,note_on,0,0,4,,,,,,,,,3,,,51,75
605040,note_off,480,0,1,,,,,,,,,0,,,73,0
605040,note_on,0,0,1,,,,,,,,,0,,,71,77
605040,note_off,120,0,2,,,,,,,,,1,,,66,0
605040,note_on,0,0,2,,,,,,,,,1,,,68,77
605040,note_on,0,0,4,,,,,,,,,3,,,52,75
605040,note_off,120,0,4,,,,,,,,,3,,,51,0
605160,note_off,120,0,2,,,,,,,,,1,,,68,0
605160,note_on,0,0,2,,,,,,,,,1,,,69,77
605160,note_on,0,0,4,,,,,,,,,3,,,54,75
605160,set_tempo,480,1,0,,,,,,508474,,,,,,,
605160,note_off,120,0,4,,,,,,,,,3,,,52,0
605280,note_on,0,0,2,,,,,,,,,1,,,78,82
605280,note_on,0,0,4,,,,,,,,,3,,,51,74
605280,note_on,0,0,2,,,,,,,,,1,,,71,77
605280,note_off,120,0,2,,,,,,,,,1,,,69,0
605280,note_off,240,0,1,,,,,,,,,0,,,71,0
605280,note_off,120,0,4,,,,,,,,,3,,,54,0
605400,set_tempo,240,1,0,,,,,,500000,,,,,,,
605400,note_on,0,0,2,,,,,,,,,1,,,80,76
605400,note_off,120,0,2,,,,,,,,,1,,,78,0
605400,note_off,120,0,4,,,,,,,,,3,,,51,0
605400,note_on,0,0,4,,,,,,,,,3,,,49,74
605520,note_on,0,0,4,,,,,,,,,3,,,47,74
605520,note_off,120,0,4,,,,,,,,,3,,,49,0
605520,note_off,120,0,2,,,,,,,,,1,,,80,0
605520,note_on,0,0,2,,,,,,,,,1,,,81,76
605640,note_on,0,0,4,,,,,,,,,3,,,45,74
605640,note_off,120,0,2,,,,,,,,,1,,,81,0
605640,note_on,0,0,2,,,,,,,,,1,,,78,75
605640,note_off,120,0,4,,,,,,,,,3,,,47,0
605760,note_off,120,0,2,,,,,,,,,1,,,78,0
605760,note_on,0,0,2,,,,,,,,,1,,,80,75
605760,note_on,0,0,4,,,,,,,,,3,,,44,73
605760,note_off,120,0,4,,,,,,,,,3,,,45,0
605880,note_off,120,0,4,,,,,,,,,3,,,44,0
605880,set_tempo,480,1,0,,,,,,508474,,,,,,,
605880,note_on,0,0,4,,,,,,,,,3,,,42,73
605880,note_off,120,0,2,,,,,,,,,1,,,80,0
605880,note_on,0,0,2,,,,,,,,,1,,,81,75
606000,note_on,0,0,2,,,,,,,,,1,,,71,74
606000,note_off,0,0,2,,,,,,,,,1,,,71,0
606000,note_off,120,0,2,,,,,,,,,1,,,81,0
606000,note_off,120,0,4,,,,,,,,,3,,,42,0
606000,note_on,0,0,4,,,,,,,,,3,,,52,73
606000,note_on,0,0,2,,,,,,,,,1,,,80,74
606120,note_off,120,0,4,,,,,,,,,3,,,52,0
606120,set_tempo,240,1,0,,,,,,500000,,,,,,,
606120,note_on,0,0,4,,,,,,,,,3,,,51,72
606120,note_off,120,0,2,,,,,,,,,1,,,80,0
606120,note_on,0,0,2,,,,,,,,,1,,,81,74
606240,note_off,120,0,4,,,,,,,,,3,,,51,0
606240,note_on,0,0,4,,,,,,,,,3,,,49,72
606240,note_on,0,0,2,,,,,,,,,1,,,83,74
606240,note_off,120,0,2,,,,,,,,,1,,,81,0
606240,note_off,0,0,2,,,,,,,,,1,,,71,0
606360,note_off,120,0,2,,,,,,,,,1,,,83,0
606360,note_off,120,0,4,,,,,,,,,3,,,49,0
606360,note_on,0,0,4,,,,,,,,,3,,,47,72
606360,note_on,0,0,2,,,,,,,,,1,,,85,73
606480,note_off,120,0,2,,,,,,,,,1,,,85,0
606480,note_off,120,0,4,,,,,,,,,3,,,47,0
606480,note_on,0,0,4,,,,,,,,,3,,,45,72
606480,note_on,0,0,2,,,,,,,,,1,,,87,73
606600,note_off,120,0,2,,,,,,,,,1,,,87,0
606600,note_on,0,0,2,,,,,,,,,1,,,88,73
606600,set_tempo,480,1,0,,,,,,508474,,,,,,,
606600,note_on,0,0,4,,,,,,,,,3,,,44,71
606600,note_off,120,0,4,,,,,,,,,3,,,45,0
606720,note_on,0,0,2,,,,,,,,,1,,,88,72
606720,note_off,120,0,2,,,,,,,,,1,,,88,0
606720,note_on,0,0,4,,,,,,,,,3,,,47,71
606720,note_off,120,0,4,,,,,,,,,3,,,44,0
606840,note_off,120,0,4,,,,,,,,,3,,,47,0
606840,note_off,120,0,2,,,,,,,,,1,,,88,0
606840,note_on,0,0,4,,,,,,,,,3,,,49,71
606840,set_tempo,240,1,0,,,,,,500000,,,,,,,
606840,note_on,0,0,2,,,,,,,,,1,,,87,72
606960,note_off,120,0,4,,,,,,,,,3,,,49,0
606960,note_off,120,0,2,,,,,,,,,1,,,87,0
606960,note_on,0,0,2,,,,,,,,,1,,,85,71
606960,note_on,0,0,4,,,,,,,,,3,,,51,70
607080,note_off,120,0,4,,,,,,,,,3,,,51,0
607080,note_on,0,0,4,,,,,,,,,3,,,52,70
607080,note_off,120,0,2,,,,,,,,,1,,,85,0
607080,note_on,0,0,2,,,,,,,,,1,,,83,71
607200,note_off,120,0,4,,,,,,,,,3,,,52,0
607200,note_on,0,0,4,,,,,,,,,3,,,54,70
607200,note_off,120,0,2,,,,,,,,,1,,,83,0
607200,note_on,0,0,2,,,,,,,,,1,,,81,71
607320,note_off,120,0,2,,,,,,,,,1,,,81,0
607320,set_tempo,480,1,0,,,,,,508474,,,,,,,
607320,note_on,0,0,4,,,,,,,,,3,,,56,69
607320,note_off,120,0,4,,,,,,,,,3,,,54,0
607320,note_on,0,0,2,,,,,,,,,1,,,80,70
607440,note_on,0,0,2,,,,,,,,,1,,,80,70
607440,note_on,0,0,4,,,,,,,,,3,,,47,79
607440,note_off,120,0,4,,,,,,,,,3,,,56,0
607440,note_on,2880,0,3,,,,,,,,,2,,,52,74
607440,note_on,2160,0,1,,,,,,,,,0,,,83,85
607440,note_off,120,0,2,,,,,,,,,1,,,80,0
607560,set_tempo,240,1,0,,,,,,500000,,,,,,,
607560,note_off,120,0,3,,,,,,,,,2,,,52,0
607560,note_on,0,0,3,,,,,,,,,2,,,54,69
607560,note_on,0,0,2,,,,,,,,,1,,,78,70
607560,note_off,120,0,2,,,,,,,,,1,,,80,0
607680,note_off,120,0,3,,,,,,,,,2,,,54,0
607680,note_on,0,0,2,,,,,,,,,1,,,76,69
607680,note_off,120,0,2,,,,,,,,,1,,,78,0
607680,note_on,0,0,3,,,,,,,,,2,,,56,69
607800,note_on,0,0,2,,,,,,,,,1,,,80,69
607800,note_off,120,0,2,,,,,,,,,1,,,76,0
607800,note_off,120,0,3,,,,,,,,,2,,,56,0
607800,note_on,0,0,3,,,,,,,,,2,,,52,68
607920,note_on,0,0,3,,,,,,,,,2,,,54,68
607920,note_on,0,0,2,,,,,,,,,1,,,78,69
607920,note_off,120,0,2,,,,,,,,,1,,,80,0
607920,note_off,120,0,3,,,,,,,,,2,,,52,0
608040,note_off,120,0,3,,,,,,,,,2,,,54,0
608040,note_on,0,0,3,,,,,,,,,2,,,56,68
608040,set_tempo,480,1,0,,,,,,508474,,,,,,,
608040,note_on,0,0,2,,,,,,,,,1,,,76,68
608040,note_off,120,0,2,,,,,,,,,1,,,78,0
608160,note_on,0,0,3,,,,,,,,,2,,,54,72
608160,note_on,0,0,4,,,,,,,,,3,,,47,77
608160,note_off,720,0,4,,,,,,,,,3,,,47,0
608160,note_on,0,0,1,,,,,,,,,0,,,81,78
608160,note_on,0,0,2,,,,,,,,,1,,,78,68
608160,note_off,120,0,2,,,,,,,,,1,,,76,0
608160,note_off,120,0,3,,,,,,,,,2,,,56,0
608160,note_off,720,0,1,,,,,,,,,0,,,83,0
608280,set_tempo,240,1,0,,,,,,500000,,,,,,,
608280,note_on,0,0,2,,,,,,,,,1,,,76,67
608280,note_off,120,0,2,,,,,,,,,1,,,78,0
608280,note_on,0,0,3,,,,,,,,,2,,,56,67
608280,note_off,120,0,3,,,,,,,,,2,,,54,0
608400,note_on,0,0,2,,,,,,,,,1,,,75,67
608400,note_off,120,0,2,,,,,,,,,1,,,76,0
608400,note_on,0,0,3,,,,,,,,,2,,,57,67
608400,note_off,120,0,3,,,,,,,,,2,,,56,0
608520,note_on,0,0,2,,,,,,,,,1,,,78,67
608520,note_off,120,0,2,,,,,,,,,1,,,75,0
608520,note_on,0,0,3,,,,,,,,,2,,,54,67
608520,note_off,120,0,3,,,,,,,,,2,,,57,0
608640,note_on,0,0,2,,,,,,,,,1,,,76,66
608640,note_off,120,0,2,,,,,,,,,1,,,78,0
608640,note_off,120,0,3,,,,,,,,,2,,,54,0
608640,note_on,0,0,3,,,,,,,,,2,,,56,66
608640,set_tempo,360,1,0,,,,,,508474,,,,,,,
608760,note_on,0,0,3,,,,,,,,,2,,,57,66
608760,set_tempo,120,1,0,,,,,,540540,,,,,,,
608760,note_off,120,0,2,,,,,,,,,1,,,76,0
608760,note_on,0,0,2,,,,,,,,,1,,,75,66
608760,note_off,120,0,3,,,,,,,,,2,,,56,0
608880,control_change,720,0,4,,,,,,,64,0,3,,,,
608880,control_change,720,0,1,,,,,,,64,0,0,,,,
608880,note_off,0,0,1,,,,,,,,,0,,,81,0
608880,note_off,0,0,4,,,,,,,,,3,,,47,0
608880,note_on,0,0,4,,,,,,,,,3,,,35,66
608880,set_tempo,120,1,0,,,,,,508474,,,,,,,
608880,note_on,0,0,1,,,,,,,,,0,,,81,74
608880,note_off,120,0,2,,,,,,,,,1,,,75,0
608880,note_off,0,0,3,,,,,,,,,2,,,57,0
608880,control_change,120,0,3,,,,,,,64,0,2,,,,
608940,control_change,60,0,1,,,,,,,64,127,0,,,,
608940,control_change,60,0,3,,,,,,,64,127,2,,,,
608940,control_change,60,0,4,,,,,,,64,127,3,,,,
609000,set_tempo,120,1,0,,,,,,500000,,,,,,,
609000,note_off,60,0,1,,,,,,,,,0,,,81,0
609000,note_off,60,0,4,,,,,,,,,3,,,35,0
609000,note_on,0,0,4,,,,,,,,,3,,,39,67
609000,note_on,0,0,1,,,,,,,,,0,,,78,68
609120,note_off,120,0,4,,,,,,,,,3,,,39,0
609120,note_on,0,0,4,,,,,,,,,3,,,42,68
609120,note_off,120,0,1,,,,,,,,,0,,,78,0
609120,note_on,0,0,1,,,,,,,,,0,,,75,69
609240,note_off,120,0,4,,,,,,,,,3,,,42,0
609240,note_on,0,0,4,,,,,,,,,3,,,45,69
609240,note_off,120,0,1,,,,,,,,,0,,,75,0
609240,note_on,0,0,1,,,,,,,,,0,,,71,70
609360,note_on,0,0,4,,,,,,,,,3,,,47,70
609360,note_off,120,0,4,,,,,,,,,3,,,45,0
609360,note_on,0,0,1,,,,,,,,,0,,,69,71
609360,note_off,120,0,1,,,,,,,,,0,,,71,0
609480,note_off,120,0,4,,,,,,,,,3,,,47,0
609480,note_on,0,0,4,,,,,,,,,3,,,51,71
609480,note_off,120,0,1,,,,,,,,,0,,,69,0
609480,note_on,0,0,1,,,,,,,,,0,,,66,72
609600,note_off,120,0,1,,,,,,,,,0,,,66,0
609600,note_on,0,0,1,,,,,,,,,0,,,63,73
609600,note_on,0,0,4,,,,,,,,,3,,,54,72
609600,note_off,120,0,4,,,,,,,,,3,,,51,0
609720,note_off,120,0,1,,,,,,,,,0,,,63,0
609720,note_on,0,0,1,,,,,,,,,0,,,59,74
609720,note_on,0,0,4,,,,,,,,,3,,,57,72
609720,note_off,120,0,4,,,,,,,,,3,,,54,0
609840,note_off,120,0,1,,,,,,,,,0,,,59,0
609840,note_on,0,0,4,,,,,,,,,3,,,54,73
609840,note_on,0,0,1,,,,,,,,,0,,,63,76
609840,note_off,120,0,4,,,,,,,,,3,,,57,0
609960,note_off,120,0,4,,,,,,,,,3,,,54,0
609960,note_on,0,0,4,,,,,,,,,3,,,51,74
609960,note_on,0,0,1,,,,,,,,,0,,,66,77
609960,note_off,120,0,1,,,,,,,,,0,,,63,0
610080,note_on,0,0,4,,,,,,,,,3,,,47,75
610080,note_off,120,0,4,,,,,,,,,3,,,51,0
610080,note_on,0,0,1,,,,,,,,,0,,,69,78
610080,note_off,120,0,1,,,,,,,,,0,,,66,0
610200,note_on,0,0,1,,,,,,,,,0,,,71,79
610200,note_on,0,0,4,,,,,,,,,3,,,45,76
610200,note_off,120,0,4,,,,,,,,,3,,,47,0
610200,set_tempo,1200,1,0,,,,,,508474,,,,,,,
610200,note_off,120,0,1,,,,,,,,,0,,,69,0
610320,note_off,120,0,4,,,,,,,,,3,,,45,0
610320,set_tempo,120,1,0,,,,,,560747,,,,,,,
610320,note_on,0,0,4,,,,,,,,,3,,,42,77
610320,note_off,120,0,1,,,,,,,,,0,,,71,0
610320,note_on,0,0,1,,,,,,,,,0,,,75,81
610440,note_on,0,0,4,,,,,,,,,3,,,35,73
610440,note_off,120,0,4,,,,,,,,,3,,,42,0
610440,note_on,0,0,1,,,,,,,,,0,,,83,78
610440,note_off,120,0,1,,,,,,,,,0,,,75,0
610440,set_tempo,120,1,0,,,,,,600000,,,,,,,
610560,note_off,0,0,4,,,,,,,,,3,,,35,0
610560,control_change,120,0,4,,,,,,,64,0,3,,,,
610560,note_on,0,0,4,,,,,,,,,3,,,40,69
610560,control_change,1620,0,3,,,,,,,64,0,2,,,,
610560,control_change,120,0,1,,,,,,,64,0,0,,,,
610560,note_off,0,0,1,,,,,,,,,0,,,83,0
610560,note_on,0,0,1,,,,,,,,,0,,,80,75
610695,set_tempo,255,1,0,,,,,,2500000,,,,,,,
610800,control_change,240,0,4,,,,,,,64,0,3,,,,
610800,note_off,0,0,4,,,,,,,,,3,,,40,0
610800,control_change,240,0,1,,,,,,,64,0,0,,,,
610800,note_off,0,0,1,,,,,,,,,0,,,80,0
611040,control_change,240,0,4,,,,,,,64,0,3,,,,
611040,marker,0,1,0,,,,,,,,,,,,,
611040,set_tempo,0,1,0,,,,,,298507,,,,,,,
611040,time_signature,345,1,0,4,4,24,8,,,,,,,,,
611040,control_change,0,0,1,,,,,,,64,0,0,,,,
611040,note_on,0,0,1,,,,,,,,,0,,,56,76
611040,control_change,240,0,1,,,,,,,64,0,0,,,,
611040,control_change,2160,0,2,,,,,,,64,0,1,,,,
611040,control_change,480,0,3,,,,,,,64,0,2,,,,
611520,note_on,480,0,4,,,,,,,,,3,,,40,66
611760,note_off,240,0,4,,,,,,,,,3,,,40,0
611940,set_tempo,900,1,0,,,,,,301507,,,,,,,
612000,note_on,960,0,2,,,,,,,,,1,,,52,76
612000,note_off,960,0,1,,,,,,,,,0,,,56,0
612000,note_on,240,0,4,,,,,,,,,3,,,44,74
612000,set_tempo,60,1,0,,,,,,298507,,,,,,,
612960,note_on,960,0,1,,,,,,,,,0,,,57,77
613440,note_off,1440,0,4,,,,,,,,,3,,,44,0
613440,note_off,1440,0,2,,,,,,,,,1,,,52,0
613440,note_on,0,0,2,,,,,,,,,1,,,54,77
613440,note_on,0,0,4,,,,,,,,,3,,,42,68
613680,note_off,240,0,2,,,,,,,,,1,,,54,0
613680,note_on,0,0,2,,,,,,,,,1,,,49,77
613680,note_off,240,0,4,,,,,,,,,3,,,42,0
613860,set_tempo,1860,1,0,,,,,,301507,,,,,,,
613920,set_tempo,60,1,0,,,,,,298507,,,,,,,
613920,note_on,0,0,2,,,,,,,,,1,,,54,78
613920,note_off,960,0,1,,,,,,,,,0,,,57,0
613920,note_on,0,0,2,,,,,,,,,1,,,51,78
613920,note_on,240,0,4,,,,,,,,,3,,,45,75
613920,note_off,240,0,2,,,,,,,,,1,,,49,0
614400,note_off,480,0,2,,,,,,,,,1,,,51,0
614400,note_on,0,0,2,,,,,,,,,1,,,47,78
614880,note_off,480,0,2,,,,,,,,,1,,,47,0
614880,note_on,960,0,1,,,,,,,,,0,,,59,78
615360,note_off,1440,0,4,,,,,,,,,3,,,45,0
615360,note_on,0,0,4,,,,,,,,,3,,,44,70
615360,note_on,0,0,2,,,,,,,,,1,,,56,78
615360,note_off,480,0,2,,,,,,,,,1,,,54,0
615600,note_off,240,0,4,,,,,,,,,3,,,44,0
615600,note_off,240,0,2,,,,,,,,,1,,,56,0
615600,note_on,0,0,2,,,,,,,,,1,,,51,79
615780,set_tempo,1860,1,0,,,,,,301507,,,,,,,
615840,note_off,960,0,1,,,,,,,,,0,,,59,0
615840,note_on,240,0,4,,,,,,,,,3,,,47,78
615840,set_tempo,60,1,0,,,,,,298507,,,,,,,
615840,note_off,240,0,2,,,,,,,,,1,,,51,0
615840,note_on,0,0,2,,,,,,,,,1,,,52,79
615840,note_on,0,0,2,,,,,,,,,1,,,56,79
616320,note_on,0,0,2,,,,,,,,,1,,,50,79
616320,note_off,480,0,2,,,,,,,,,1,,,52,0
616800,note_on,0,0,2,,,,,,,,,1,,,49,79
616800,note_on,960,0,1,,,,,,,,,0,,,61,79
616800,note_off,480,0,2,,,,,,,,,1,,,50,0
617280,note_on,0,0,4,,,,,,,,,3,,,45,77
617280,note_off,480,0,2,,,,,,,,,1,,,49,0
617280,note_off,0,0,2,,,,,,,,,1,,,56,0
617280,note_on,0,0,2,,,,,,,,,1,,,57,80
617280,note_off,1440,0,4,,,,,,,,,3,,,47,0
617520,note_off,240,0,2,,,,,,,,,1,,,57,0
617520,note_on,0,0,2,,,,,,,,,1,,,52,80
617700,set_tempo,1860,1,0,,,,,,301507,,,,,,,
617760,set_tempo,60,1,0,,,,,,298507,,,,,,,
617760,note_off,480,0,4,,,,,,,,,3,,,45,0
617760,note_on,0,0,2,,,,,,,,,1,,,54,80
617760,note_off,960,0,1,,,,,,,,,0,,,61,0
617760,note_off,240,0,2,,,,,,,,,1,,,52,0
617760,note_on,0,0,4,,,,,,,,,3,,,48,78
617760,note_on,0,0,1,,,,,,,,,0,,,57,80
618240,note_off,480,0,4,,,,,,,,,3,,,48,0
618240,note_off,480,0,2,,,,,,,,,1,,,54,0
618240,note_on,0,0,4,,,,,,,,,3,,,40,78
618240,note_on,0,0,2,,,,,,,,,1,,,48,80
618720,note_on,0,0,2,,,,,,,,,1,,,47,79
618720,note_off,480,0,2,,,,,,,,,1,,,48,0
619200,note_off,1440,0,1,,,,,,,,,0,,,57,0
619200,note_on,0,0,1,,,,,,,,,0,,,58,81
619200,note_off,960,0,4,,,,,,,,,3,,,40,0
619200,note_on,0,0,4,,,,,,,,,3,,,42,80
619440,note_on,0,0,4,,,,,,,,,3,,,37,80
619440,note_off,240,0,4,,,,,,,,,3,,,42,0
619620,set_tempo,1860,1,0,,,,,,301507,,,,,,,
619680,note_on,0,0,2,,,,,,,,,1,,,42,80
619680,note_on,0,0,4,,,,,,,,,3,,,39,80
619680,note_off,240,0,4,,,,,,,,,3,,,37,0
619680,note_off,960,0,2,,,,,,,,,1,,,47,0
619680,set_tempo,60,1,0,,,,,,298507,,,,,,,
619680,note_on,0,0,1,,,,,,,,,0,,,59,81
619680,note_off,480,0,1,,,,,,,,,0,,,58,0
620160,note_on,0,0,4,,,,,,,,,3,,,35,81
620160,note_off,480,0,1,,,,,,,,,0,,,59,0
620160,note_on,0,0,1,,,,,,,,,0,,,57,82
620160,note_off,480,0,4,,,,,,,,,3,,,39,0
620640,note_off,480,0,1,,,,,,,,,0,,,57,0
620640,note_on,0,0,1,,,,,,,,,0,,,56,82
621060,set_tempo,1380,1,0,,,,,,301507,,,,,,,
621120,note_off,960,0,4,,,,,,,,,3,,,35,0
621120,note_on,0,0,4,,,,,,,,,3,,,44,82
621120,note_off,1440,0,2,,,,,,,,,1,,,42,0
621120,note_on,0,0,1,,,,,,,,,0,,,59,82
621120,note_off,480,0,1,,,,,,,,,0,,,56,0
621120,note_on,0,0,2,,,,,,,,,1,,,52,82
621120,set_tempo,60,1,0,,,,,,298507,,,,,,,
621360,note_on,240,0,4,,,,,,,,,3,,,39,82
621600,note_off,0,0,4,,,,,,,,,3,,,44,0
621600,note_off,240,0,4,,,,,,,,,3,,,39,0
621600,note_on,0,0,1,,,,,,,,,0,,,59,83
621600,note_on,0,0,4,,,,,,,,,3,,,40,83
621600,note_off,480,0,1,,,,,,,,,0,,,59,0
621600,note_off,480,0,2,,,,,,,,,1,,,52,0
621600,note_on,0,0,2,,,,,,,,,1,,,56,83
622080,note_off,480,0,1,,,,,,,,,0,,,59,0
622080,note_on,0,0,1,,,,,,,,,0,,,64,83
622080,note_off,480,0,4,,,,,,,,,3,,,40,0
622080,note_on,0,0,4,,,,,,,,,3,,,35,83
622560,note_off,480,0,1,,,,,,,,,0,,,64,0
622560,note_on,0,0,1,,,,,,,,,0,,,64,85
622560,note_off,480,0,4,,,,,,,,,3,,,35,0
622560,note_on,0,0,4,,,,,,,,,3,,,36,87
623040,note_off,1440,0,2,,,,,,,,,1,,,56,0
623040,note_on,0,0,2,,,,,,,,,1,,,57,82
623040,note_off,480,0,4,,,,,,,,,3,,,36,0
623040,note_on,0,0,4,,,,,,,,,3,,,37,82
623520,note_off,480,0,2,,,,,,,,,1,,,57,0
623520,note_on,0,0,2,,,,,,,,,1,,,58,80
623520,note_on,12480,0,3,,,,,,,,,2,,,49,80
624000,note_on,0,0,4,,,,,,,,,3,,,36,79
624000,note_on,0,0,3,,,,,,,,,2,,,48,79
624000,note_off,480,0,2,,,,,,,,,1,,,58,0
624000,note_on,0,0,2,,,,,,,,,1,,,57,78
624000,note_off,960,0,4,,,,,,,,,3,,,37,0
624000,note_off,1440,0,1,,,,,,,,,0,,,64,0
624000,note_on,0,0,1,,,,,,,,,0,,,65,78
624000,note_off,480,0,3,,,,,,,,,2,,,49,0
624420,set_tempo,3300,1,0,,,,,,301507,,,,,,,
624480,note_off,480,0,3,,,,,,,,,2,,,48,0
624480,note_on,0,0,3,,,,,,,,,2,,,43,77
624480,note_off,480,0,2,,,,,,,,,1,,,57,0
624480,note_on,0,0,2,,,,,,,,,1,,,64,76
624480,note_off,480,0,1,,,,,,,,,0,,,65,0
624480,note_on,0,0,1,,,,,,,,,0,,,67,76
624960,note_off,480,0,2,,,,,,,,,1,,,64,0
624960,note_on,0,0,1,,,,,,,,,0,,,69,74
624960,note_off,480,0,1,,,,,,,,,0,,,67,0
624960,note_off,480,0,3,,,,,,,,,2,,,43,0
624960,note_on,0,0,3,,,,,,,,,2,,,41,75
624960,note_on,0,0,2,,,,,,,,,1,,,65,74
625440,note_off,480,0,2,,,,,,,,,1,,,65,0
625440,note_on,0,0,2,,,,,,,,,1,,,67,72
625440,note_on,0,0,3,,,,,,,,,2,,,40,73
625440,note_on,0,0,1,,,,,,,,,0,,,70,72
625440,note_off,480,0,1,,,,,,,,,0,,,69,0
625440,note_off,480,0,3,,,,,,,,,2,,,41,0
625800,set_tempo,1380,1,0,,,,,,304568,,,,,,,
625920,note_off,480,0,3,,,,,,,,,2,,,40,0
625920,note_on,0,0,3,,,,,,,,,2,,,42,69
625920,note_off,480,0,1,,,,,,,,,0,,,70,0
625920,note_off,1920,0,4,,,,,,,,,3,,,36,0
625920,note_on,0,0,4,,,,,,,,,3,,,35,69
625920,note_off,480,0,2,,,,,,,,,1,,,67,0
625920,note_on,0,0,1,,,,,,,,,0,,,71,70
625920,note_on,0,0,2,,,,,,,,,1,,,63,70
626010,set_tempo,210,1,0,,,,,,306122,,,,,,,
626400,set_tempo,390,1,0,,,,,,298507,,,,,,,
626400,note_off,480,0,1,,,,,,,,,0,,,71,0
626400,note_off,480,0,4,,,,,,,,,3,,,35,0
626400,note_on,0,0,1,,,,,,,,,0,,,56,72
626400,note_off,480,0,3,,,,,,,,,2,,,42,0
626400,note_off,480,0,2,,,,,,,,,1,,,63,0
626640,note_on,240,0,4,,,,,,,,,3,,,35,72
626796,note_off,156,0,4,,,,,,,,,3,,,35,0
626880,note_on,84,0,4,,,,,,,,,3,,,37,72
627036,note_off,156,0,4,,,,,,,,,3,,,37,0
627120,note_on,84,0,4,,,,,,,,,3,,,39,72
627276,note_off,156,0,4,,,,,,,,,3,,,39,0
627300,set_tempo,900,1,0,,,,,,301507,,,,,,,
627360,note_on,960,0,2,,,,,,,,,1,,,52,72
627360,note_off,960,0,1,,,,,,,,,0,,,56,0
627360,note_on,84,0,4,,,,,,,,,3,,,40,72
627360,set_tempo,60,1,0,,,,,,298507,,,,,,,
627516,note_off,156,0,4,,,,,,,,,3,,,40,0
627600,note_on,84,0,4,,,,,,,,,3,,,42,72
627756,note_off,156,0,4,,,,,,,,,3,,,42,0
627840,note_on,84,0,4,,,,,,,,,3,,,44,72
627996,note_off,156,0,4,,,,,,,,,3,,,44,0
628080,note_on,84,0,4,,,,,,,,,3,,,40,73
628236,note_off,156,0,4,,,,,,,,,3,,,40,0
628320,note_on,84,0,4,,,,,,,,,3,,,42,73
628320,note_on,960,0,1,,,,,,,,,0,,,57,73
628476,note_off,156,0,4,,,,,,,,,3,,,42,0
628560,note_on,84,0,4,,,,,,,,,3,,,35,73
628716,note_off,156,0,4,,,,,,,,,3,,,35,0
628800,note_on,0,0,2,,,,,,,,,1,,,54,73
628800,note_on,84,0,4,,,,,,,,,3,,,39,73
628800,note_off,1440,0,2,,,,,,,,,1,,,52,0
628956,note_off,156,0,4,,,,,,,,,3,,,39,0
629040,note_on,0,0,2,,,,,,,,,1,,,49,73
629040,note_off,240,0,2,,,,,,,,,1,,,54,0
629040,note_on,84,0,4,,,,,,,,,3,,,40,73
629196,note_off,156,0,4,,,,,,,,,3,,,40,0
629220,set_tempo,1860,1,0,,,,,,301507,,,,,,,
629280,note_on,84,0,4,,,,,,,,,3,,,42,73
629280,note_on,0,0,2,,,,,,,,,1,,,54,73
629280,note_on,0,0,2,,,,,,,,,1,,,51,73
629280,note_off,960,0,1,,,,,,,,,0,,,57,0
629280,note_off,240,0,2,,,,,,,,,1,,,49,0
629280,set_tempo,60,1,0,,,,,,298507,,,,,,,
629436,note_off,156,0,4,,,,,,,,,3,,,42,0
629520,note_on,84,0,4,,,,,,,,,3,,,44,74
629676,note_off,156,0,4,,,,,,,,,3,,,44,0
629760,note_on,0,0,2,,,,,,,,,1,,,47,73
629760,note_off,480,0,2,,,,,,,,,1,,,51,0
629760,note_on,84,0,4,,,,,,,,,3,,,45,74
629916,note_off,156,0,4,,,,,,,,,3,,,45,0
630000,note_on,84,0,4,,,,,,,,,3,,,42,74
630156,note_off,156,0,4,,,,,,,,,3,,,42,0
630240,note_on,0,0,2,,,,,,,,,1,,,56,74
630240,note_off,0,0,2,,,,,,,,,1,,,54,0
630240,note_off,480,0,2,,,,,,,,,1,,,47,0
630240,note_on,84,0,4,,,,,,,,,3,,,47,74
630396,note_off,156,0,4,,,,,,,,,3,,,47,0
630480,note_on,1200,0,1,,,,,,,,,0,,,71,70
630480,note_on,84,0,4,,,,,,,,,3,,,51,74
630636,note_off,156,0,4,,,,,,,,,3,,,51,0
630636,note_off,156,0,1,,,,,,,,,0,,,71,0
630720,note_on,84,0,4,,,,,,,,,3,,,52,74
630720,note_on,84,0,1,,,,,,,,,0,,,73,70
630876,note_off,156,0,4,,,,,,,,,3,,,52,0
630876,note_off,156,0,1,,,,,,,,,0,,,73,0
630960,note_on,84,0,4,,,,,,,,,3,,,54,74
630960,note_on,84,0,1,,,,,,,,,0,,,75,70
631116,note_off,156,0,4,,,,,,,,,3,,,54,0
631116,note_off,156,0,1,,,,,,,,,0,,,75,0
631140,set_tempo,1860,1,0,,,,,,301507,,,,,,,
631200,note_on,84,0,4,,,,,,,,,3,,,56,75
631200,note_off,960,0,2,,,,,,,,,1,,,56,0
631200,set_tempo,60,1,0,,,,,,298507,,,,,,,
631200,note_on,84,0,1,,,,,,,,,0,,,76,70
631200,note_on,0,0,2,,,,,,,,,1,,,64,81
631356,note_off,156,0,1,,,,,,,,,0,,,76,0
631440,note_on,84,0,1,,,,,,,,,0,,,78,70
631596,note_off,156,0,1,,,,,,,,,0,,,78,0
631680,note_on,84,0,1,,,,,,,,,0,,,80,70
631836,note_off,156,0,1,,,,,,,,,0,,,80,0
631920,note_on,84,0,1,,,,,,,,,0,,,76,70
632076,note_off,156,0,1,,,,,,,,,0,,,76,0
632160,note_on,84,0,1,,,,,,,,,0,,,81,70
632160,note_off,960,0,4,,,,,,,,,3,,,56,0
632160,note_on,0,0,4,,,,,,,,,3,,,54,75
632316,note_off,156,0,1,,,,,,,,,0,,,81,0
632400,note_on,84,0,1,,,,,,,,,0,,,73,70
632556,note_off,156,0,1,,,,,,,,,0,,,73,0
632640,note_on,0,0,2,,,,,,,,,1,,,66,78
632640,note_on,84,0,1,,,,,,,,,0,,,75,71
632640,note_off,1440,0,2,,,,,,,,,1,,,64,0
632796,note_off,156,0,1,,,,,,,,,0,,,75,0
632880,note_off,240,0,2,,,,,,,,,1,,,66,0
632880,note_on,0,0,2,,,,,,,,,1,,,61,77
632880,note_on,84,0,1,,,,,,,,,0,,,76,71
633036,note_off,156,0,1,,,,,,,,,0,,,76,0
633060,set_tempo,1860,1,0,,,,,,301507,,,,,,,
633120,note_off,240,0,2,,,,,,,,,1,,,61,0
633120,note_on,0,0,2,,,,,,,,,1,,,63,77
633120,note_on,0,0,4,,,,,,,,,3,,,57,76
633120,note_on,84,0,1,,,,,,,,,0,,,78,71
633120,note_off,960,0,4,,,,,,,,,3,,,54,0
633120,set_tempo,60,1,0,,,,,,298507,,,,,,,
633276,note_off,156,0,1,,,,,,,,,0,,,78,0
633360,note_on,84,0,1,,,,,,,,,0,,,80,71
633516,note_off,156,0,1,,,,,,,,,0,,,80,0
633600,note_on,84,0,1,,,,,,,,,0,,,81,71
633600,note_off,480,0,2,,,,,,,,,1,,,63,0
633600,note_on,0,0,2,,,,,,,,,1,,,59,76
633756,note_off,156,0,1,,,,,,,,,0,,,81,0
633840,note_on,84,0,1,,,,,,,,,0,,,78,71
633996,note_off,156,0,1,,,,,,,,,0,,,78,0
634080,note_on,0,0,4,,,,,,,,,3,,,55,76
634080,note_off,960,0,4,,,,,,,,,3,,,57,0
634080,note_on,84,0,1,,,,,,,,,0,,,83,71
634236,note_off,156,0,1,,,,,,,,,0,,,83,0
634320,note_on,84,0,1,,,,,,,,,0,,,75,71
634476,note_off,156,0,1,,,,,,,,,0,,,75,0
634560,note_on,0,0,2,,,,,,,,,1,,,68,81
634560,note_off,960,0,2,,,,,,,,,1,,,59,0
634560,note_on,84,0,1,,,,,,,,,0,,,76,72
634716,note_off,156,0,1,,,,,,,,,0,,,76,0
634800,note_on,84,0,1,,,,,,,,,0,,,78,72
634800,note_off,240,0,2,,,,,,,,,1,,,68,0
634800,note_on,0,0,2,,,,,,,,,1,,,63,80
634956,note_off,156,0,1,,,,,,,,,0,,,78,0
634980,set_tempo,1860,1,0,,,,,,301507,,,,,,,
635040,set_tempo,60,1,0,,,,,,298507,,,,,,,
635040,note_on,84,0,1,,,,,,,,,0,,,80,72
635040,note_on,0,0,4,,,,,,,,,3,,,59,77
635040,note_off,240,0,2,,,,,,,,,1,,,63,0
635040,note_on,0,0,2,,,,,,,,,1,,,64,79
635040,note_off,960,0,4,,,,,,,,,3,,,55,0
635196,note_off,156,0,1,,,,,,,,,0,,,80,0
635280,note_on,84,0,1,,,,,,,,,0,,,81,72
635436,note_off,156,0,1,,,,,,,,,0,,,81,0
635520,note_on,84,0,1,,,,,,,,,0,,,83,72
635520,note_on,0,0,2,,,,,,,,,1,,,62,77
635520,note_off,480,0,2,,,,,,,,,1,,,64,0
635676,note_off,156,0,1,,,,,,,,,0,,,83,0
635760,note_on,84,0,1,,,,,,,,,0,,,80,72
635916,note_off,156,0,1,,,,,,,,,0,,,80,0
636000,note_on,84,0,1,,,,,,,,,0,,,84,72
636000,note_on,0,0,2,,,,,,,,,1,,,60,76
636000,note_off,480,0,2,,,,,,,,,1,,,62,0
636000,note_off,960,0,4,,,,,,,,,3,,,59,0
636000,note_on,0,0,4,,,,,,,,,3,,,57,78
636156,note_off,156,0,1,,,,,,,,,0,,,84,0
636240,note_on,84,0,1,,,,,,,,,0,,,88,72
636396,note_off,156,0,1,,,,,,,,,0,,,88,0
636480,note_on,0,0,2,,,,,,,,,1,,,69,81
636480,note_on,84,0,1,,,,,,,,,0,,,90,72
636480,note_off,480,0,2,,,,,,,,,1,,,60,0
636636,note_off,156,0,1,,,,,,,,,0,,,90,0
636720,note_on,84,0,1,,,,,,,,,0,,,92,73
636720,note_off,240,0,2,,,,,,,,,1,,,69,0
636720,note_on,0,0,2,,,,,,,,,1,,,64,80
636876,note_off,156,0,1,,,,,,,,,0,,,92,0
636900,set_tempo,1860,1,0,,,,,,301507,,,,,,,
636960,set_tempo,60,1,0,,,,,,298507,,,,,,,
636960,note_off,960,0,4,,,,,,,,,3,,,57,0
636960,note_on,0,0,4,,,,,,,,,3,,,60,78
636960,note_off,240,0,2,,,,,,,,,1,,,64,0
636960,note_on,84,0,1,,,,,,,,,0,,,93,73
636960,note_on,0,0,2,,,,,,,,,1,,,65,79
637116,note_off,156,0,1,,,,,,,,,0,,,93,0
637200,note_on,84,0,1,,,,,,,,,0,,,95,73
637356,note_off,156,0,1,,,,,,,,,0,,,95,0
637440,note_on,84,0,1,,,,,,,,,0,,,96,73
637440,note_on,0,0,2,,,,,,,,,1,,,64,78
637440,note_off,480,0,2,,,,,,,,,1,,,65,0
637596,note_off,156,0,1,,,,,,,,,0,,,96,0
637680,note_on,84,0,1,,,,,,,,,0,,,93,73
637836,note_off,156,0,1,,,,,,,,,0,,,93,0
637920,note_on,0,0,2,,,,,,,,,1,,,62,76
637920,note_on,84,0,1,,,,,,,,,0,,,98,73
637920,note_off,480,0,2,,,,,,,,,1,,,64,0
638076,note_off,156,0,1,,,,,,,,,0,,,98,0
638160,note_on,84,0,1,,,,,,,,,0,,,90,73
638316,note_off,156,0,1,,,,,,,,,0,,,90,0
638400,note_off,1440,0,4,,,,,,,,,3,,,60,0
638400,note_off,480,0,2,,,,,,,,,1,,,62,0
638400,note_on,0,0,2,,,,,,,,,1,,,71,83
638400,note_on,84,0,1,,,,,,,,,0,,,91,73
638400,note_on,0,0,4,,,,,,,,,3,,,59,79
638556,note_off,156,0,1,,,,,,,,,0,,,91,0
638640,note_off,240,0,2,,,,,,,,,1,,,71,0
638640,note_on,0,0,2,,,,,,,,,1,,,66,82
638640,note_on,84,0,1,,,,,,,,,0,,,93,73
638796,note_off,156,0,1,,,,,,,,,0,,,93,0
638880,note_off,240,0,2,,,,,,,,,1,,,66,0
638880,note_on,0,0,2,,,,,,,,,1,,,67,81
638880,note_on,84,0,1,,,,,,,,,0,,,95,74
639036,note_off,156,0,1,,,,,,,,,0,,,95,0
639120,note_on,84,0,1,,,,,,,,,0,,,96,74
639276,note_off,156,0,1,,,,,,,,,0,,,96,0
639360,note_off,480,0,2,,,,,,,,,1,,,67,0
639360,note_on,0,0,2,,,,,,,,,1,,,65,79
639360,note_on,84,0,1,,,,,,,,,0,,,98,74
639360,note_off,960,0,4,,,,,,,,,3,,,59,0
639360,note_on,0,0,4,,,,,,,,,3,,,55,80
639516,note_off,156,0,1,,,,,,,,,0,,,98,0
639600,note_on,84,0,1,,,,,,,,,0,,,95,74
639756,note_off,156,0,1,,,,,,,,,0,,,95,0
639840,note_off,480,0,4,,,,,,,,,3,,,55,0
639840,note_on,84,0,1,,,,,,,,,0,,,88,74
639840,note_off,480,0,2,,,,,,,,,1,,,65,0
639840,note_on,0,0,4,,,,,,,,,3,,,60,80
639840,note_on,0,0,2,,,,,,,,,1,,,64,80
639996,note_off,156,0,1,,,,,,,,,0,,,88,0
640080,note_on,84,0,1,,,,,,,,,0,,,86,74
640080,note_off,240,0,2,,,,,,,,,1,,,64,0
640080,note_on,0,0,2,,,,,,,,,1,,,65,80
640236,note_off,156,0,1,,,,,,,,,0,,,86,0
640320,note_on,0,0,2,,,,,,,,,1,,,67,81
640320,note_on,84,0,1,,,,,,,,,0,,,88,74
640320,note_off,240,0,2,,,,,,,,,1,,,65,0
640476,note_off,156,0,1,,,,,,,,,0,,,88,0
640560,note_off,240,0,2,,,,,,,,,1,,,67,0
640560,note_on,84,0,1,,,,,,,,,0,,,89,74
640560,note_on,0,0,2,,,,,,,,,1,,,65,81
640716,note_off,156,0,1,,,,,,,,,0,,,89,0
640800,note_off,240,0,2,,,,,,,,,1,,,65,0
640800,note_on,0,0,2,,,,,,,,,1,,,88,79
640800,note_on,84,0,1,,,,,,,,,0,,,91,74
640800,note_on,0,0,2,,,,,,,,,1,,,64,81
640956,note_off,156,0,1,,,,,,,,,0,,,91,0
641040,note_on,84,0,1,,,,,,,,,0,,,94,75
641196,note_off,156,0,1,,,,,,,,,0,,,94,0
641280,note_off,1440,0,4,,,,,,,,,3,,,60,0
641280,note_on,0,0,4,,,,,,,,,3,,,59,81
641280,note_on,0,0,2,,,,,,,,,1,,,66,81
641280,note_off,0,0,2,,,,,,,,,1,,,88,0
641280,note_on,84,0,1,,,,,,,,,0,,,95,75
641280,note_on,0,0,2,,,,,,,,,1,,,87,79
641280,note_off,480,0,2,,,,,,,,,1,,,64,0
641436,note_off,156,0,2,,,,,,,,,1,,,87,0
641436,note_off,156,0,1,,,,,,,,,0,,,95,0
641520,note_on,84,0,1,,,,,,,,,0,,,86,75
641676,note_off,156,0,1,,,,,,,,,0,,,86,0
641700,set_tempo,4740,1,0,,,,,,301507,,,,,,,
641760,note_on,84,0,1,,,,,,,,,0,,,86,75
641760,note_off,324,0,2,,,,,,,,,1,,,66,0
641760,note_off,480,0,4,,,,,,,,,3,,,59,0
641760,note_on,0,0,4,,,,,,,,,3,,,59,85
641760,set_tempo,60,1,0,,,,,,298507,,,,,,,
641916,note_off,156,0,1,,,,,,,,,0,,,86,0
642000,note_on,84,0,1,,,,,,,,,0,,,78,75
642156,note_off,156,0,1,,,,,,,,,0,,,78,0
642240,note_on,84,0,1,,,,,,,,,0,,,80,75
642396,note_off,156,0,1,,,,,,,,,0,,,80,0
642480,note_on,84,0,1,,,,,,,,,0,,,82,75
642636,note_off,156,0,1,,,,,,,,,0,,,82,0
642660,set_tempo,900,1,0,,,,,,301507,,,,,,,
642720,set_tempo,60,1,0,,,,,,298507,,,,,,,
642720,note_on,84,0,1,,,,,,,,,0,,,83,75
642720,note_on,0,0,4,,,,,,,,,3,,,50,81
642720,note_off,960,0,4,,,,,,,,,3,,,59,0
642876,note_off,156,0,1,,,,,,,,,0,,,83,0
642960,note_on,84,0,1,,,,,,,,,0,,,85,76
643116,note_off,156,0,1,,,,,,,,,0,,,85,0
643200,note_on,84,0,1,,,,,,,,,0,,,86,75
643356,note_off,156,0,1,,,,,,,,,0,,,86,0
643440,note_on,84,0,1,,,,,,,,,0,,,78,75
643596,note_off,156,0,1,,,,,,,,,0,,,78,0
643680,note_on,84,0,1,,,,,,,,,0,,,77,75
643836,note_off,156,0,1,,,,,,,,,0,,,77,0
643920,note_on,84,0,1,,,,,,,,,0,,,61,74
644076,note_off,156,0,1,,,,,,,,,0,,,61,0
644160,note_on,0,0,4,,,,,,,,,3,,,49,77
644160,note_on,84,0,1,,,,,,,,,0,,,63,74
644160,note_off,1440,0,4,,,,,,,,,3,,,50,0
644316,note_off,156,0,1,,,,,,,,,0,,,63,0
644400,note_off,240,0,4,,,,,,,,,3,,,49,0
644400,note_on,84,0,1,,,,,,,,,0,,,65,74
644400,note_on,0,0,4,,,,,,,,,3,,,47,77
644556,note_off,156,0,1,,,,,,,,,0,,,65,0
644640,note_on,84,0,1,,,,,,,,,0,,,66,73
644640,note_off,240,0,4,,,,,,,,,3,,,47,0
644640,note_on,0,0,4,,,,,,,,,3,,,45,76
644796,note_off,156,0,1,,,,,,,,,0,,,66,0
644880,note_on,84,0,1,,,,,,,,,0,,,68,73
645036,note_off,156,0,1,,,,,,,,,0,,,68,0
645120,note_on,84,0,1,,,,,,,,,0,,,69,73
645120,note_off,480,0,4,,,,,,,,,3,,,45,0
645120,note_on,0,0,4,,,,,,,,,3,,,42,76
645276,note_off,156,0,1,,,,,,,,,0,,,69,0
645360,note_on,84,0,1,,,,,,,,,0,,,61,73
645516,note_off,156,0,1,,,,,,,,,0,,,61,0
645600,note_on,3840,0,2,,,,,,,,,1,,,71,75
645600,note_on,84,0,1,,,,,,,,,0,,,60,72
645840,note_on,0,0,4,,,,,,,,,3,,,32,74
645840,note_off,720,0,4,,,,,,,,,3,,,42,0
646080,note_on,0,0,4,,,,,,,,,3,,,34,74
646080,note_off,480,0,1,,,,,,,,,0,,,60,0
646080,note_on,0,0,1,,,,,,,,,0,,,61,72
646080,note_off,240,0,4,,,,,,,,,3,,,32,0
646320,note_off,240,0,4,,,,,,,,,3,,,34,0
646320,note_on,0,0,4,,,,,,,,,3,,,36,74
646500,set_tempo,3780,1,0,,,,,,301507,,,,,,,
646560,note_off,240,0,4,,,,,,,,,3,,,36,0
646560,note_off,960,0,2,,,,,,,,,1,,,71,0
646560,note_on,0,0,2,,,,,,,,,1,,,56,73
646560,set_tempo,60,1,0,,,,,,298507,,,,,,,
646560,note_on,0,0,4,,,,,,,,,3,,,37,73
646800,note_off,240,0,4,,,,,,,,,3,,,37,0
646800,note_on,0,0,4,,,,,,,,,3,,,39,73
647040,note_off,960,0,1,,,,,,,,,0,,,61,0
647040,note_off,240,0,4,,,,,,,,,3,,,39,0
647040,note_on,0,0,4,,,,,,,,,3,,,40,72
647040,note_on,0,0,1,,,,,,,,,0,,,61,71
647280,note_off,240,0,1,,,,,,,,,0,,,61,0
647280,note_on,0,0,1,,,,,,,,,0,,,64,70
647280,note_off,240,0,4,,,,,,,,,3,,,40,0
647280,note_on,0,0,4,,,,,,,,,3,,,37,72
647520,note_off,240,0,1,,,,,,,,,0,,,64,0
647520,note_on,0,0,4,,,,,,,,,3,,,39,71
647520,note_off,240,0,4,,,,,,,,,3,,,37,0
647760,note_on,0,0,2,,,,,,,,,1,,,55,71
647760,note_off,1200,0,2,,,,,,,,,1,,,56,0
647760,note_on,240,0,1,,,,,,,,,0,,,63,70
648000,note_off,240,0,2,,,,,,,,,1,,,55,0
648000,note_on,0,0,2,,,,,,,,,1,,,51,71
648000,note_off,480,0,4,,,,,,,,,3,,,39,0
648000,note_on,0,0,1,,,,,,,,,0,,,65,69
648000,note_off,240,0,1,,,,,,,,,0,,,63,0
648240,note_on,0,0,2,,,,,,,,,1,,,49,70
648240,note_off,240,0,2,,,,,,,,,1,,,51,0
648240,note_on,0,0,1,,,,,,,,,0,,,67,69
648240,note_off,240,0,1,,,,,,,,,0,,,65,0
648480,note_off,240,0,2,,,,,,,,,1,,,49,0
648480,note_on,0,0,2,,,,,,,,,1,,,47,70
648480,note_off,240,0,1,,,,,,,,,0,,,67,0
648480,note_on,0,0,1,,,,,,,,,0,,,68,69
648720,note_off,240,0,1,,,,,,,,,0,,,68,0
648720,note_on,0,0,1,,,,,,,,,0,,,70,68
648960,note_off,480,0,2,,,,,,,,,1,,,47,0
648960,note_off,240,0,1,,,,,,,,,0,,,70,0
648960,note_on,0,0,1,,,,,,,,,0,,,71,68
648960,note_on,960,0,4,,,,,,,,,3,,,44,69
649200,note_on,0,0,1,,,,,,,,,0,,,68,68
649200,note_off,240,0,1,,,,,,,,,0,,,71,0
649440,note_on,480,0,2,,,,,,,,,1,,,54,70
649440,note_off,240,0,1,,,,,,,,,0,,,68,0
649440,note_on,0,0,1,,,,,,,,,0,,,81,75
649680,note_off,720,0,4,,,,,,,,,3,,,44,0
649680,note_on,0,0,4,,,,,,,,,3,,,42,70
649680,note_on,240,0,2,,,,,,,,,1,,,69,70
649920,note_off,240,0,4,,,,,,,,,3,,,42,0
649920,note_on,0,0,4,,,,,,,,,3,,,51,70
649920,note_off,240,0,2,,,,,,,,,1,,,69,0
649920,note_on,0,0,2,,,,,,,,,1,,,73,70
650160,note_on,0,0,4,,,,,,,,,3,,,53,71
650160,note_off,240,0,2,,,,,,,,,1,,,73,0
650160,note_on,0,0,2,,,,,,,,,1,,,71,71
650160,note_off,240,0,4,,,,,,,,,3,,,51,0
650340,set_tempo,3780,1,0,,,,,,301507,,,,,,,
650400,note_on,0,0,4,,,,,,,,,3,,,54,71
650400,note_on,0,0,2,,,,,,,,,1,,,57,71
650400,note_on,0,0,2,,,,,,,,,1,,,69,71
650400,note_off,240,0,4,,,,,,,,,3,,,53,0
650400,note_off,0,0,2,,,,,,,,,1,,,54,0
650400,note_off,240,0,2,,,,,,,,,1,,,71,0
650400,note_on,0,0,1,,,,,,,,,0,,,73,73
650400,note_off,960,0,1,,,,,,,,,0,,,81,0
650400,set_tempo,60,1,0,,,,,,298507,,,,,,,
650640,note_on,0,0,2,,,,,,,,,1,,,61,72
650640,note_on,0,0,4,,,,,,,,,3,,,49,71
650640,note_off,240,0,4,,,,,,,,,3,,,54,0
650640,note_off,240,0,2,,,,,,,,,1,,,69,0
650880,note_on,0,0,2,,,,,,,,,1,,,63,72
650880,note_off,240,0,4,,,,,,,,,3,,,49,0
650880,note_on,0,0,4,,,,,,,,,3,,,54,72
650880,note_off,240,0,2,,,,,,,,,1,,,61,0
651120,note_on,0,0,4,,,,,,,,,3,,,52,72
651120,note_off,240,0,4,,,,,,,,,3,,,54,0
651120,note_off,240,0,2,,,,,,,,,1,,,63,0
651120,note_on,0,0,2,,,,,,,,,1,,,64,73
651360,note_off,240,0,2,,,,,,,,,1,,,64,0
651360,note_on,0,0,2,,,,,,,,,1,,,66,73
651360,note_on,0,0,4,,,,,,,,,3,,,51,72
651360,note_off,240,0,4,,,,,,,,,3,,,52,0
651600,note_on,0,0,4,,,,,,,,,3,,,47,73
651600,note_off,240,0,4,,,,,,,,,3,,,51,0
651600,note_on,0,0,2,,,,,,,,,1,,,63,74
651600,note_off,240,0,2,,,,,,,,,1,,,66,0
651840,note_off,240,0,2,,,,,,,,,1,,,63,0
651840,note_off,240,0,4,,,,,,,,,3,,,47,0
651840,note_off,0,0,2,,,,,,,,,1,,,57,0
651840,note_on,0,0,2,,,,,,,,,1,,,64,74
651840,note_on,0,0,2,,,,,,,,,1,,,68,74
651840,note_on,0,0,4,,,,,,,,,3,,,49,73
651840,note_off,1440,0,1,,,,,,,,,0,,,73,0
651840,note_on,0,0,1,,,,,,,,,0,,,71,74
652080,note_off,240,0,4,,,,,,,,,3,,,49,0
652080,note_on,0,0,4,,,,,,,,,3,,,51,73
652080,note_on,0,0,2,,,,,,,,,1,,,66,75
652080,note_off,240,0,2,,,,,,,,,1,,,64,0
652320,note_on,0,0,2,,,,,,,,,1,,,66,75
652320,note_off,480,0,1,,,,,,,,,0,,,71,0
652320,note_off,240,0,2,,,,,,,,,1,,,66,0
652320,note_off,0,0,2,,,,,,,,,1,,,68,0
652320,note_off,240,0,4,,,,,,,,,3,,,51,0
652320,note_on,0,0,2,,,,,,,,,1,,,59,75
652320,note_on,0,0,4,,,,,,,,,3,,,52,73
652320,note_on,0,0,1,,,,,,,,,0,,,69,75
652560,note_on,0,0,2,,,,,,,,,1,,,63,76
652560,note_off,240,0,2,,,,,,,,,1,,,59,0
652560,note_on,0,0,4,,,,,,,,,3,,,47,74
652560,note_off,240,0,4,,,,,,,,,3,,,52,0
652800,note_on,0,0,2,,,,,,,,,1,,,64,76
652800,note_off,0,0,2,,,,,,,,,1,,,66,0
652800,note_off,240,0,2,,,,,,,,,1,,,63,0
652800,note_on,0,0,1,,,,,,,,,0,,,68,76
652800,note_off,480,0,1,,,,,,,,,0,,,69,0
652800,note_off,240,0,4,,,,,,,,,3,,,47,0
652800,note_on,0,0,4,,,,,,,,,3,,,49,74
653040,note_off,240,0,4,,,,,,,,,3,,,49,0
653040,note_on,240,0,2,,,,,,,,,1,,,61,77
653040,note_on,0,0,4,,,,,,,,,3,,,46,74
653280,note_off,240,0,4,,,,,,,,,3,,,46,0
653280,note_off,240,0,2,,,,,,,,,1,,,61,0
653280,note_on,0,0,2,,,,,,,,,1,,,59,77
653280,note_on,0,0,4,,,,,,,,,3,,,47,81
653436,note_off,636,0,1,,,,,,,,,0,,,68,0
653436,note_off,156,0,2,,,,,,,,,1,,,59,0
653436,note_off,0,0,2,,,,,,,,,1,,,64,0
653520,note_on,84,0,2,,,,,,,,,1,,,68,78
653520,note_on,84,0,1,,,,,,,,,0,,,76,78
653676,note_off,156,0,1,,,,,,,,,0,,,76,0
653676,note_off,156,0,2,,,,,,,,,1,,,68,0
653760,note_on,84,0,2,,,,,,,,,1,,,69,78
653760,note_on,84,0,1,,,,,,,,,0,,,78,78
653916,note_off,156,0,2,,,,,,,,,1,,,69,0
653916,note_off,156,0,1,,,,,,,,,0,,,78,0
654000,note_on,84,0,2,,,,,,,,,1,,,71,79
654000,note_on,84,0,1,,,,,,,,,0,,,80,79
654156,note_off,156,0,1,,,,,,,,,0,,,80,0
654156,note_off,156,0,2,,,,,,,,,1,,,71,0
654240,note_off,960,0,4,,,,,,,,,3,,,47,0
654240,note_on,84,0,1,,,,,,,,,0,,,81,79
654240,note_on,84,0,2,,,,,,,,,1,,,73,79
654240,note_on,0,0,4,,,,,,,,,3,,,35,79
654396,note_off,156,0,1,,,,,,,,,0,,,81,0
654396,note_off,156,0,2,,,,,,,,,1,,,73,0
654480,note_on,84,0,2,,,,,,,,,1,,,75,80
654480,note_on,84,0,1,,,,,,,,,0,,,83,80
654636,note_off,156,0,2,,,,,,,,,1,,,75,0
654636,note_off,156,0,1,,,,,,,,,0,,,83,0
654720,note_on,84,0,1,,,,,,,,,0,,,85,80
654720,note_on,0,0,4,,,,,,,,,3,,,33,78
654720,note_off,480,0,4,,,,,,,,,3,,,35,0
654720,note_on,84,0,2,,,,,,,,,1,,,76,80
654876,note_off,156,0,1,,,,,,,,,0,,,85,0
654876,note_off,156,0,2,,,,,,,,,1,,,76,0
654960,note_on,84,0,2,,,,,,,,,1,,,78,81
654960,note_on,84,0,1,,,,,,,,,0,,,87,81
655116,note_off,156,0,2,,,,,,,,,1,,,78,0
655116,note_off,156,0,1,,,,,,,,,0,,,87,0
655200,note_on,84,0,2,,,,,,,,,1,,,85,81
655200,note_on,84,0,1,,,,,,,,,0,,,88,81
655356,note_off,156,0,2,,,,,,,,,1,,,85,0
655356,note_off,156,0,1,,,,,,,,,0,,,88,0
655440,note_on,84,0,2,,,,,,,,,1,,,83,82
655440,note_on,84,0,1,,,,,,,,,0,,,87,82
655596,note_off,156,0,2,,,,,,,,,1,,,83,0
655596,note_off,156,0,1,,,,,,,,,0,,,87,0
655680,note_on,84,0,2,,,,,,,,,1,,,85,82
655680,note_on,84,0,1,,,,,,,,,0,,,88,82
655836,note_off,156,0,1,,,,,,,,,0,,,88,0
655836,note_off,156,0,2,,,,,,,,,1,,,85,0
655920,note_on,84,0,1,,,,,,,,,0,,,90,83
655920,note_on,84,0,2,,,,,,,,,1,,,87,83
656076,note_off,156,0,1,,,,,,,,,0,,,90,0
656076,note_off,156,0,2,,,,,,,,,1,,,87,0
656160,note_on,84,0,1,,,,,,,,,0,,,92,83
656160,note_on,84,0,2,,,,,,,,,1,,,88,83
656316,note_off,156,0,1,,,,,,,,,0,,,92,0
656316,note_off,156,0,2,,,,,,,,,1,,,88,0
656400,note_on,84,0,1,,,,,,,,,0,,,93,84
656400,note_on,84,0,2,,,,,,,,,1,,,90,84
656556,note_off,156,0,2,,,,,,,,,1,,,90,0
656556,note_off,156,0,1,,,,,,,,,0,,,93,0
656640,note_on,84,0,2,,,,,,,,,1,,,92,84
656640,note_off,1920,0,4,,,,,,,,,3,,,33,0
656640,note_on,0,0,4,,,,,,,,,3,,,52,83
656640,note_on,84,0,1,,,,,,,,,0,,,95,84
656796,note_off,156,0,2,,,,,,,,,1,,,92,0
656796,note_off,156,0,1,,,,,,,,,0,,,95,0
656880,note_on,84,0,1,,,,,,,,,0,,,83,85
657000,set_tempo,6600,1,0,,,,,,301507,,,,,,,
657036,note_off,156,0,1,,,,,,,,,0,,,83,0
657120,set_tempo,120,1,0,,,,,,298507,,,,,,,
657120,note_on,84,0,1,,,,,,,,,0,,,83,85
657600,note_off,960,0,4,,,,,,,,,3,,,52,0
657600,note_on,0,0,4,,,,,,,,,3,,,50,68
657840,note_off,240,0,4,,,,,,,,,3,,,50,0
657840,note_on,0,0,4,,,,,,,,,3,,,49,69
658020,set_tempo,900,1,0,,,,,,301507,,,,,,,
658080,set_tempo,60,1,0,,,,,,298507,,,,,,,
658080,note_off,240,0,4,,,,,,,,,3,,,49,0
658080,note_on,0,0,4,,,,,,,,,3,,,47,69
658080,note_off,960,0,1,,,,,,,,,0,,,83,0
658080,note_on,0,0,1,,,,,,,,,0,,,74,76
658320,note_off,240,0,4,,,,,,,,,3,,,47,0
658320,note_on,0,0,4,,,,,,,,,3,,,50,69
658512,note_off,192,0,4,,,,,,,,,3,,,50,0
658560,note_on,48,0,4,,,,,,,,,3,,,42,70
658752,note_off,192,0,4,,,,,,,,,3,,,42,0
658800,note_on,48,0,4,,,,,,,,,3,,,42,70
658992,note_off,192,0,4,,,,,,,,,3,,,42,0
659040,note_on,48,0,4,,,,,,,,,3,,,41,70
659040,note_on,2244,0,2,,,,,,,,,1,,,68,75
659280,note_on,0,0,4,,,,,,,,,3,,,49,71
659280,note_off,240,0,4,,,,,,,,,3,,,41,0
659472,note_off,192,0,4,,,,,,,,,3,,,49,0
659520,note_off,1440,0,1,,,,,,,,,0,,,74,0
659520,note_on,0,0,1,,,,,,,,,0,,,73,72
659520,note_on,48,0,4,,,,,,,,,3,,,41,71
659712,note_off,192,0,4,,,,,,,,,3,,,41,0
659760,note_on,48,0,4,,,,,,,,,3,,,41,71
659760,note_off,240,0,1,,,,,,,,,0,,,73,0
659760,note_on,0,0,1,,,,,,,,,0,,,71,71
659952,note_off,192,0,4,,,,,,,,,3,,,41,0
660000,note_on,48,0,4,,,,,,,,,3,,,42,72
660000,note_off,960,0,2,,,,,,,,,1,,,68,0
660000,note_on,0,0,2,,,,,,,,,1,,,61,68
660000,note_off,240,0,1,,,,,,,,,0,,,71,0
660000,note_on,0,0,1,,,,,,,,,0,,,69,70
660240,note_off,240,0,4,,,,,,,,,3,,,42,0
660240,note_on,0,0,4,,,,,,,,,3,,,54,72
660432,note_off,192,0,4,,,,,,,,,3,,,54,0
660480,note_off,480,0,1,,,,,,,,,0,,,69,0
660480,note_on,0,0,2,,,,,,,,,1,,,69,79
660480,note_off,480,0,2,,,,,,,,,1,,,61,0
660480,note_on,48,0,4,,,,,,,,,3,,,49,72
660672,note_off,192,0,4,,,,,,,,,3,,,49,0
660720,note_on,48,0,4,,,,,,,,,3,,,49,73
660912,note_off,192,0,4,,,,,,,,,3,,,49,0
660960,note_on,48,0,4,,,,,,,,,3,,,48,73
660960,note_on,480,0,1,,,,,,,,,0,,,75,79
661200,note_on,0,0,4,,,,,,,,,3,,,51,73
661200,note_off,240,0,4,,,,,,,,,3,,,48,0
661392,note_off,192,0,4,,,,,,,,,3,,,51,0
661440,note_off,960,0,2,,,,,,,,,1,,,69,0
661440,note_on,48,0,4,,,,,,,,,3,,,44,74
661440,note_on,0,0,2,,,,,,,,,1,,,68,75
661632,note_off,192,0,4,,,,,,,,,3,,,44,0
661680,note_on,48,0,4,,,,,,,,,3,,,44,74
661680,note_off,240,0,2,,,,,,,,,1,,,68,0
661680,note_on,0,0,2,,,,,,,,,1,,,66,74
661872,note_off,192,0,4,,,,,,,,,3,,,44,0
661920,note_on,0,0,1,,,,,,,,,0,,,68,72
661920,note_off,960,0,1,,,,,,,,,0,,,75,0
661920,note_off,240,0,2,,,,,,,,,1,,,66,0
661920,note_on,0,0,2,,,,,,,,,1,,,64,72
661920,note_on,48,0,4,,,,,,,,,3,,,49,74
662160,note_off,240,0,4,,,,,,,,,3,,,49,0
662160,note_on,0,0,4,,,,,,,,,3,,,52,75
662352,note_off,192,0,4,,,,,,,,,3,,,52,0
662400,note_on,48,0,4,,,,,,,,,3,,,44,75
662400,note_on,0,0,2,,,,,,,,,1,,,73,81
662400,note_off,480,0,1,,,,,,,,,0,,,68,0
662400,note_on,0,0,1,,,,,,,,,0,,,76,83
662400,note_off,480,0,2,,,,,,,,,1,,,64,0
662592,note_off,192,0,4,,,,,,,,,3,,,44,0
662640,note_on,48,0,4,,,,,,,,,3,,,44,75
662832,note_off,192,0,4,,,,,,,,,3,,,44,0
662880,note_on,480,0,2,,,,,,,,,1,,,70,79
662880,note_on,48,0,4,,,,,,,,,3,,,43,76
663120,note_off,240,0,4,,,,,,,,,3,,,43,0
663120,note_on,0,0,4,,,,,,,,,3,,,55,76
663312,note_off,192,0,4,,,,,,,,,3,,,55,0
663360,note_on,0,0,2,,,,,,,,,1,,,71,78
663360,note_off,480,0,2,,,,,,,,,1,,,73,0
663360,note_off,960,0,1,,,,,,,,,0,,,76,0
663360,note_on,48,0,4,,,,,,,,,3,,,51,76
663360,note_on,0,0,1,,,,,,,,,0,,,75,81
663552,note_off,192,0,4,,,,,,,,,3,,,51,0
663600,note_off,0,0,2,,,,,,,,,1,,,70,0
663600,note_on,0,0,1,,,,,,,,,0,,,73,80
663600,note_on,48,0,4,,,,,,,,,3,,,51,76
663600,note_off,240,0,2,,,,,,,,,1,,,71,0
663600,note_on,0,0,2,,,,,,,,,1,,,70,77
663600,note_off,240,0,1,,,,,,,,,0,,,75,0
663792,note_off,192,0,4,,,,,,,,,3,,,51,0
663840,note_off,240,0,1,,,,,,,,,0,,,73,0
663840,note_on,0,0,1,,,,,,,,,0,,,71,79
663840,note_off,240,0,2,,,,,,,,,1,,,70,0
663840,note_on,0,0,2,,,,,,,,,1,,,68,76
663840,note_on,48,0,4,,,,,,,,,3,,,44,77
663840,note_on,0,0,2,,,,,,,,,1,,,63,76
664080,note_off,240,0,1,,,,,,,,,0,,,71,0
664080,note_off,0,0,2,,,,,,,,,1,,,68,0
664080,note_on,0,0,4,,,,,,,,,3,,,56,77
664080,note_off,240,0,4,,,,,,,,,3,,,44,0
664080,note_off,240,0,2,,,,,,,,,1,,,63,0
664272,note_off,192,0,4,,,,,,,,,3,,,56,0
664320,note_on,48,0,4,,,,,,,,,3,,,44,77
664320,note_on,240,0,1,,,,,,,,,0,,,80,78
664320,note_on,0,0,2,,,,,,,,,1,,,75,79
664320,note_on,240,0,2,,,,,,,,,1,,,71,79
664512,note_off,192,0,4,,,,,,,,,3,,,44,0
664560,note_on,48,0,4,,,,,,,,,3,,,44,78
664560,note_off,240,0,1,,,,,,,,,0,,,80,0
664560,note_off,0,0,2,,,,,,,,,1,,,71,0
664560,note_off,240,0,2,,,,,,,,,1,,,75,0
664680,set_tempo,6600,1,0,,,,,,301507,,,,,,,
664800,note_on,240,0,1,,,,,,,,,0,,,81,80
664800,set_tempo,120,1,0,,,,,,298507,,,,,,,
664800,note_on,0,0,2,,,,,,,,,1,,,73,80
664800,note_on,240,0,2,,,,,,,,,1,,,76,80
665040,note_off,480,0,4,,,,,,,,,3,,,44,0
665280,note_on,240,0,4,,,,,,,,,3,,,42,79
665520,note_off,240,0,4,,,,,,,,,3,,,42,0
665520,note_on,0,0,4,,,,,,,,,3,,,40,79
665700,set_tempo,900,1,0,,,,,,301507,,,,,,,
665760,note_on,0,0,4,,,,,,,,,3,,,39,79
665760,note_off,960,0,1,,,,,,,,,0,,,81,0
665760,note_on,0,0,1,,,,,,,,,0,,,69,81
665760,note_off,240,0,4,,,,,,,,,3,,,40,0
665760,set_tempo,60,1,0,,,,,,298507,,,,,,,
665760,note_off,960,0,2,,,,,,,,,1,,,73,0
665760,note_off,0,0,2,,,,,,,,,1,,,76,0
665760,note_on,0,0,2,,,,,,,,,1,,,60,81
665760,note_on,0,0,2,,,,,,,,,1,,,66,81
666000,note_on,0,0,2,,,,,,,,,1,,,59,82
666000,note_off,240,0,2,,,,,,,,,1,,,60,0
666192,note_off,192,0,2,,,,,,,,,1,,,59,0
666240,note_off,480,0,4,,,,,,,,,3,,,39,0
666240,note_on,0,0,4,,,,,,,,,3,,,48,88
666240,note_on,48,0,2,,,,,,,,,1,,,63,82
666432,note_off,192,0,2,,,,,,,,,1,,,63,0
666480,note_on,48,0,2,,,,,,,,,1,,,63,82
666600,set_tempo,840,1,0,,,,,,301507,,,,,,,
666672,note_off,192,0,2,,,,,,,,,1,,,63,0
666720,note_on,0,0,2,,,,,,,,,1,,,80,83
666720,note_on,0,0,2,,,,,,,,,1,,,76,83
666720,note_off,48,0,2,,,,,,,,,1,,,66,0
666720,note_on,0,0,1,,,,,,,,,0,,,83,83
666720,set_tempo,120,1,0,,,,,,298507,,,,,,,
666720,note_off,960,0,1,,,,,,,,,0,,,69,0
667200,note_off,960,0,4,,,,,,,,,3,,,48,0
667200,note_on,0,0,4,,,,,,,,,3,,,47,82
667440,note_on,0,0,4,,,,,,,,,3,,,45,81
667440,note_off,240,0,4,,,,,,,,,3,,,47,0
667620,set_tempo,900,1,0,,,,,,301507,,,,,,,
667680,note_on,0,0,4,,,,,,,,,3,,,44,80
667680,note_off,240,0,4,,,,,,,,,3,,,45,0
667680,note_off,960,0,1,,,,,,,,,0,,,83,0
667680,note_off,0,0,2,,,,,,,,,1,,,76,0
667680,note_on,0,0,2,,,,,,,,,1,,,68,84
667680,note_on,0,0,2,,,,,,,,,1,,,71,84
667680,note_on,0,0,1,,,,,,,,,0,,,76,84
667680,note_off,960,0,2,,,,,,,,,1,,,80,0
667680,set_tempo,60,1,0,,,,,,298507,,,,,,,
667920,note_off,240,0,2,,,,,,,,,1,,,68,0
667920,note_on,0,0,2,,,,,,,,,1,,,64,84
667920,note_off,240,0,4,,,,,,,,,3,,,44,0
668112,note_off,192,0,2,,,,,,,,,1,,,64,0
668160,note_on,240,0,4,,,,,,,,,3,,,56,90
668160,note_on,48,0,2,,,,,,,,,1,,,64,83
668400,note_off,240,0,2,,,,,,,,,1,,,64,0
668400,note_on,0,0,2,,,,,,,,,1,,,64,83
668520,set_tempo,840,1,0,,,,,,301507,,,,,,,
668640,note_on,0,0,1,,,,,,,,,0,,,93,87
668640,note_on,0,0,2,,,,,,,,,1,,,81,87
668640,note_on,0,0,2,,,,,,,,,1,,,85,87
668640,note_off,240,0,2,,,,,,,,,1,,,71,0
668640,set_tempo,120,1,0,,,,,,298507,,,,,,,
668640,note_off,960,0,1,,,,,,,,,0,,,76,0
669120,note_on,0,0,4,,,,,,,,,3,,,54,82
669120,note_off,960,0,4,,,,,,,,,3,,,56,0
669120,note_on,0,0,2,,,,,,,,,1,,,63,83
669120,note_off,480,0,2,,,,,,,,,1,,,64,0
669360,note_off,240,0,2,,,,,,,,,1,,,63,0
669360,note_on,0,0,2,,,,,,,,,1,,,61,81
669360,note_on,0,0,4,,,,,,,,,3,,,52,81
669360,note_off,240,0,4,,,,,,,,,3,,,54,0
669600,note_on,0,0,1,,,,,,,,,0,,,85,82
669600,note_off,0,0,2,,,,,,,,,1,,,85,0
669600,note_off,0,0,2,,,,,,,,,1,,,81,0
669600,note_off,240,0,2,,,,,,,,,1,,,61,0
669600,note_off,960,0,1,,,,,,,,,0,,,93,0
669600,note_on,0,0,2,,,,,,,,,1,,,57,80
669600,note_on,0,0,4,,,,,,,,,3,,,49,80
669600,note_off,240,0,4,,,,,,,,,3,,,52,0
669600,note_on,0,0,2,,,,,,,,,1,,,81,82
669840,note_on,0,0,1,,,,,,,,,0,,,81,81
669840,note_on,0,0,2,,,,,,,,,1,,,78,81
669840,note_off,240,0,1,,,,,,,,,0,,,85,0
669840,note_off,240,0,2,,,,,,,,,1,,,81,0
670032,note_off,192,0,2,,,,,,,,,1,,,78,0
670032,note_off,192,0,1,,,,,,,,,0,,,81,0
670080,note_off,480,0,4,,,,,,,,,3,,,49,0
670080,note_on,0,0,4,,,,,,,,,3,,,47,78
670080,note_off,48,0,2,,,,,,,,,1,,,57,0
670080,note_on,0,0,2,,,,,,,,,1,,,81,79
670080,note_on,43680,0,3,,,,,,,,,2,,,51,78
670080,note_on,48,0,1,,,,,,,,,0,,,85,79
670272,note_off,192,0,1,,,,,,,,,0,,,85,0
670272,note_off,192,0,2,,,,,,,,,1,,,81,0
670320,note_on,48,0,2,,,,,,,,,1,,,81,78
670320,note_on,48,0,1,,,,,,,,,0,,,85,78
670512,note_off,192,0,1,,,,,,,,,0,,,85,0
670512,note_off,192,0,2,,,,,,,,,1,,,81,0
670560,note_on,0,0,3,,,,,,,,,2,,,52,75
670560,note_on,48,0,1,,,,,,,,,0,,,85,77
670560,note_on,0,0,4,,,,,,,,,3,,,49,75
670560,note_off,480,0,4,,,,,,,,,3,,,47,0
670560,note_off,480,0,3,,,,,,,,,2,,,51,0
670560,note_on,48,0,2,,,,,,,,,1,,,81,77
670800,note_on,0,0,4,,,,,,,,,3,,,47,74
670800,note_on,0,0,3,,,,,,,,,2,,,51,74
670800,note_off,240,0,3,,,,,,,,,2,,,52,0
670800,note_off,240,0,4,,,,,,,,,3,,,49,0
670992,note_off,192,0,3,,,,,,,,,2,,,51,0
670992,note_off,192,0,4,,,,,,,,,3,,,47,0
671040,note_off,480,0,2,,,,,,,,,1,,,81,0
671040,note_on,0,0,2,,,,,,,,,1,,,80,75
671040,note_on,0,0,1,,,,,,,,,0,,,83,75
671040,note_on,48,0,4,,,,,,,,,3,,,49,73
671040,note_on,48,0,3,,,,,,,,,2,,,52,73
671040,note_off,480,0,1,,,,,,,,,0,,,85,0
671232,note_off,192,0,3,,,,,,,,,2,,,52,0
671232,note_off,192,0,4,,,,,,,,,3,,,49,0
671280,note_on,48,0,4,,,,,,,,,3,,,51,72
671280,note_on,0,0,1,,,,,,,,,0,,,81,73
671280,note_on,0,0,2,,,,,,,,,1,,,78,73
671280,note_off,240,0,2,,,,,,,,,1,,,80,0
671280,note_on,48,0,3,,,,,,,,,2,,,54,72
671280,note_off,240,0,1,,,,,,,,,0,,,83,0
671472,note_off,192,0,4,,,,,,,,,3,,,51,0
671472,note_off,192,0,3,,,,,,,,,2,,,54,0
671520,note_on,0,0,1,,,,,,,,,0,,,80,72
671520,note_off,240,0,1,,,,,,,,,0,,,81,0
671520,note_on,48,0,4,,,,,,,,,3,,,52,70
671520,note_off,240,0,2,,,,,,,,,1,,,78,0
671520,note_on,0,0,2,,,,,,,,,1,,,71,72
671760,note_off,240,0,4,,,,,,,,,3,,,52,0
671760,note_on,0,0,4,,,,,,,,,3,,,47,69
671760,note_off,240,0,2,,,,,,,,,1,,,71,0
671760,note_off,240,0,1,,,,,,,,,0,,,80,0
672000,note_off,240,0,4,,,,,,,,,3,,,47,0
672000,note_on,240,0,1,,,,,,,,,0,,,82,70
672000,note_on,0,0,2,,,,,,,,,1,,,78,70
672000,note_on,0,0,4,,,,,,,,,3,,,40,68
672000,note_on,240,0,2,,,,,,,,,1,,,73,70
672225,set_tempo,3585,1,0,,,,,,301507,,,,,,,
672240,note_off,240,0,4,,,,,,,,,3,,,40,0
672240,note_off,0,0,2,,,,,,,,,1,,,73,0
672240,note_off,240,0,2,,,,,,,,,1,,,78,0
672240,note_on,0,0,4,,,,,,,,,3,,,52,74
672240,note_off,240,0,1,,,,,,,,,0,,,82,0
672480,set_tempo,255,1,0,,,,,,298507,,,,,,,
672480,note_on,240,0,1,,,,,,,,,0,,,83,70
672960,note_off,720,0,4,,,,,,,,,3,,,52,0
672960,note_on,0,0,4,,,,,,,,,3,,,50,54
673200,note_off,240,0,4,,,,,,,,,3,,,50,0
673200,note_on,0,0,4,,,,,,,,,3,,,49,51
673380,set_tempo,900,1,0,,,,,,301507,,,,,,,
673440,note_off,960,0,1,,,,,,,,,0,,,83,0
673440,note_off,240,0,4,,,,,,,,,3,,,49,0
673440,set_tempo,60,1,0,,,,,,298507,,,,,,,
673440,note_on,0,0,1,,,,,,,,,0,,,74,61
673440,note_on,0,0,4,,,,,,,,,3,,,47,48
673680,note_on,0,0,4,,,,,,,,,3,,,50,47
673680,note_off,240,0,4,,,,,,,,,3,,,47,0
673872,note_off,192,0,4,,,,,,,,,3,,,50,0
673920,note_on,48,0,4,,,,,,,,,3,,,42,46
674112,note_off,192,0,4,,,,,,,,,3,,,42,0
674160,note_on,48,0,4,,,,,,,,,3,,,42,45
674352,note_off,192,0,4,,,,,,,,,3,,,42,0
674400,note_on,2160,0,2,,,,,,,,,1,,,68,51
674400,note_on,48,0,4,,,,,,,,,3,,,41,44
674640,note_on,0,0,4,,,,,,,,,3,,,49,45
674640,note_off,240,0,4,,,,,,,,,3,,,41,0
674832,note_off,192,0,4,,,,,,,,,3,,,49,0
674880,note_on,48,0,4,,,,,,,,,3,,,41,45
674880,note_off,1440,0,1,,,,,,,,,0,,,74,0
674880,note_on,0,0,1,,,,,,,,,0,,,73,51
675072,note_off,192,0,4,,,,,,,,,3,,,41,0
675120,note_off,240,0,1,,,,,,,,,0,,,73,0
675120,note_on,48,0,4,,,,,,,,,3,,,41,46
675120,note_on,0,0,1,,,,,,,,,0,,,71,49
675312,note_off,192,0,4,,,,,,,,,3,,,41,0
675360,note_off,960,0,2,,,,,,,,,1,,,68,0
675360,note_off,240,0,1,,,,,,,,,0,,,71,0
675360,note_on,48,0,4,,,,,,,,,3,,,42,46
675360,note_on,0,0,2,,,,,,,,,1,,,61,46
675360,note_on,0,0,1,,,,,,,,,0,,,69,48
675600,note_on,0,0,4,,,,,,,,,3,,,54,46
675600,note_off,240,0,4,,,,,,,,,3,,,42,0
675792,note_off,192,0,4,,,,,,,,,3,,,54,0
675840,note_on,0,0,2,,,,,,,,,1,,,69,55
675840,note_on,48,0,4,,,,,,,,,3,,,49,47
675840,note_off,480,0,1,,,,,,,,,0,,,69,0
675840,note_off,480,0,2,,,,,,,,,1,,,61,0
676032,note_off,192,0,4,,,,,,,,,3,,,49,0
676080,note_on,48,0,4,,,,,,,,,3,,,49,47
676272,note_off,192,0,4,,,,,,,,,3,,,49,0
676320,note_on,480,0,1,,,,,,,,,0,,,75,54
676320,note_on,48,0,4,,,,,,,,,3,,,48,48
676560,note_on,0,0,4,,,,,,,,,3,,,51,48
676560,note_off,240,0,4,,,,,,,,,3,,,48,0
676752,note_off,192,0,4,,,,,,,,,3,,,51,0
676800,note_off,960,0,2,,,,,,,,,1,,,69,0
676800,note_on,0,0,2,,,,,,,,,1,,,68,50
676800,note_on,48,0,4,,,,,,,,,3,,,44,48
676992,note_off,192,0,4,,,,,,,,,3,,,44,0
677040,note_off,240,0,2,,,,,,,,,1,,,68,0
677040,note_on,0,0,2,,,,,,,,,1,,,66,49
677040,note_on,48,0,4,,,,,,,,,3,,,44,49
677232,note_off,192,0,4,,,,,,,,,3,,,44,0
677280,note_off,240,0,2,,,,,,,,,1,,,66,0
677280,note_on,0,0,2,,,,,,,,,1,,,64,48
677280,note_on,48,0,4,,,,,,,,,3,,,49,49
677280,note_on,0,0,1,,,,,,,,,0,,,68,52
677280,note_off,960,0,1,,,,,,,,,0,,,75,0
677520,note_off,240,0,4,,,,,,,,,3,,,49,0
677520,note_on,0,0,4,,,,,,,,,3,,,52,49
677712,note_off,192,0,4,,,,,,,,,3,,,52,0
677760,note_on,0,0,2,,,,,,,,,1,,,73,57
677760,note_on,0,0,1,,,,,,,,,0,,,76,59
677760,note_off,480,0,1,,,,,,,,,0,,,68,0
677760,note_off,480,0,2,,,,,,,,,1,,,64,0
677760,note_on,48,0,4,,,,,,,,,3,,,44,50
677952,note_off,192,0,4,,,,,,,,,3,,,44,0
678000,note_on,48,0,4,,,,,,,,,3,,,44,50
678192,note_off,192,0,4,,,,,,,,,3,,,44,0
678240,note_on,480,0,2,,,,,,,,,1,,,70,55
678240,note_on,48,0,4,,,,,,,,,3,,,43,51
678480,note_on,0,0,4,,,,,,,,,3,,,55,51
678480,note_off,240,0,4,,,,,,,,,3,,,43,0
678672,note_off,192,0,4,,,,,,,,,3,,,55,0
678720,note_off,480,0,2,,,,,,,,,1,,,73,0
678720,note_on,0,0,2,,,,,,,,,1,,,71,53
678720,note_on,48,0,4,,,,,,,,,3,,,51,51
678720,note_on,0,0,1,,,,,,,,,0,,,75,55
678720,note_off,960,0,1,,,,,,,,,0,,,76,0
678912,note_off,192,0,4,,,,,,,,,3,,,51,0
678960,note_on,0,0,2,,,,,,,,,1,,,70,52
678960,note_off,0,0,2,,,,,,,,,1,,,70,0
678960,note_off,240,0,1,,,,,,,,,0,,,75,0
678960,note_on,0,0,1,,,,,,,,,0,,,73,54
678960,note_on,48,0,4,,,,,,,,,3,,,51,52
678960,note_off,240,0,2,,,,,,,,,1,,,71,0
679152,note_off,192,0,4,,,,,,,,,3,,,51,0
679200,note_on,48,0,4,,,,,,,,,3,,,44,52
679200,note_off,240,0,2,,,,,,,,,1,,,70,0
679200,note_on,0,0,2,,,,,,,,,1,,,63,51
679200,note_off,240,0,1,,,,,,,,,0,,,73,0
679200,note_on,0,0,1,,,,,,,,,0,,,71,54
679200,note_on,0,0,2,,,,,,,,,1,,,68,51
679440,note_off,240,0,4,,,,,,,,,3,,,44,0
679440,note_on,0,0,4,,,,,,,,,3,,,56,52
679440,note_off,0,0,2,,,,,,,,,1,,,63,0
679440,note_off,240,0,2,,,,,,,,,1,,,68,0
679440,note_off,240,0,1,,,,,,,,,0,,,71,0
679632,note_off,192,0,4,,,,,,,,,3,,,56,0
679680,note_on,48,0,4,,,,,,,,,3,,,44,53
679680,note_on,0,0,2,,,,,,,,,1,,,71,55
679680,note_on,240,0,2,,,,,,,,,1,,,75,55
679680,note_on,240,0,1,,,,,,,,,0,,,80,52
679872,note_off,192,0,4,,,,,,,,,3,,,44,0
679920,note_off,240,0,2,,,,,,,,,1,,,71,0
679920,note_off,240,0,1,,,,,,,,,0,,,80,0
679920,note_on,48,0,4,,,,,,,,,3,,,44,53
679920,note_off,0,0,2,,,,,,,,,1,,,75,0
680040,set_tempo,6600,1,0,,,,,,301507,,,,,,,
680160,note_on,240,0,2,,,,,,,,,1,,,73,56
680160,note_on,240,0,1,,,,,,,,,0,,,81,56
680160,note_on,0,0,2,,,,,,,,,1,,,76,56
680160,set_tempo,120,1,0,,,,,,298507,,,,,,,
680400,note_off,480,0,4,,,,,,,,,3,,,44,0
680640,note_on,240,0,4,,,,,,,,,3,,,42,54
680880,note_off,240,0,4,,,,,,,,,3,,,42,0
680880,note_on,0,0,4,,,,,,,,,3,,,40,55
681060,set_tempo,900,1,0,,,,,,301507,,,,,,,
681120,note_on,0,0,1,,,,,,,,,0,,,69,57
681120,set_tempo,60,1,0,,,,,,298507,,,,,,,
681120,note_off,240,0,4,,,,,,,,,3,,,40,0
681120,note_on,0,0,4,,,,,,,,,3,,,39,55
681120,note_off,960,0,2,,,,,,,,,1,,,76,0
681120,note_on,0,0,2,,,,,,,,,1,,,60,57
681120,note_off,0,0,2,,,,,,,,,1,,,73,0
681120,note_on,0,0,2,,,,,,,,,1,,,66,57
681120,note_off,960,0,1,,,,,,,,,0,,,81,0
681360,note_on,0,0,2,,,,,,,,,1,,,59,58
681360,note_off,240,0,2,,,,,,,,,1,,,60,0
681552,note_off,192,0,2,,,,,,,,,1,,,59,0
681600,note_on,48,0,2,,,,,,,,,1,,,63,58
681600,note_off,480,0,4,,,,,,,,,3,,,39,0
681600,note_on,0,0,4,,,,,,,,,3,,,48,71
681792,note_off,192,0,2,,,,,,,,,1,,,63,0
681840,note_on,48,0,2,,,,,,,,,1,,,63,58
681960,set_tempo,840,1,0,,,,,,301507,,,,,,,
682032,note_off,192,0,2,,,,,,,,,1,,,63,0
682080,note_off,960,0,1,,,,,,,,,0,,,69,0
682080,note_on,0,0,1,,,,,,,,,0,,,83,59
682080,note_on,0,0,2,,,,,,,,,1,,,76,59
682080,note_on,0,0,2,,,,,,,,,1,,,80,59
682080,note_off,48,0,2,,,,,,,,,1,,,66,0
682080,set_tempo,120,1,0,,,,,,298507,,,,,,,
682560,note_on,0,0,4,,,,,,,,,3,,,47,63
682560,note_off,960,0,4,,,,,,,,,3,,,48,0
682800,note_on,0,0,4,,,,,,,,,3,,,45,61
682800,note_off,240,0,4,,,,,,,,,3,,,47,0
682980,set_tempo,900,1,0,,,,,,301507,,,,,,,
683040,note_off,960,0,1,,,,,,,,,0,,,83,0
683040,set_tempo,60,1,0,,,,,,298507,,,,,,,
683040,note_off,960,0,2,,,,,,,,,1,,,76,0
683040,note_on,0,0,2,,,,,,,,,1,,,71,60
683040,note_on,0,0,4,,,,,,,,,3,,,44,59
683040,note_off,240,0,4,,,,,,,,,3,,,45,0
683040,note_on,0,0,2,,,,,,,,,1,,,68,60
683040,note_off,0,0,2,,,,,,,,,1,,,80,0
683040,note_on,0,0,1,,,,,,,,,0,,,76,60
683280,note_on,0,0,2,,,,,,,,,1,,,64,60
683280,note_off,240,0,2,,,,,,,,,1,,,68,0
683280,note_off,240,0,4,,,,,,,,,3,,,44,0
683472,note_off,192,0,2,,,,,,,,,1,,,64,0
683520,note_on,240,0,4,,,,,,,,,3,,,56,74
683520,note_on,12048,0,3,,,,,,,,,2,,,64,59
683760,note_off,240,0,3,,,,,,,,,2,,,64,0
683760,note_on,0,0,3,,,,,,,,,2,,,64,59
683880,set_tempo,840,1,0,,,,,,301507,,,,,,,
684000,note_on,0,0,1,,,,,,,,,0,,,93,68
684000,note_off,960,0,1,,,,,,,,,0,,,76,0
684000,note_on,0,0,2,,,,,,,,,1,,,81,61
684000,note_on,0,0,2,,,,,,,,,1,,,85,61
684000,note_off,528,0,2,,,,,,,,,1,,,71,0
684000,set_tempo,120,1,0,,,,,,298507,,,,,,,
684480,note_on,0,0,4,,,,,,,,,3,,,54,56
684480,note_off,960,0,4,,,,,,,,,3,,,56,0
684480,note_on,0,0,3,,,,,,,,,2,,,63,56
684480,note_off,720,0,3,,,,,,,,,2,,,64,0
684720,note_on,0,0,3,,,,,,,,,2,,,61,55
684720,note_off,240,0,4,,,,,,,,,3,,,54,0
684720,note_on,0,0,4,,,,,,,,,3,,,52,55
684720,note_off,240,0,3,,,,,,,,,2,,,63,0
684960,note_on,0,0,4,,,,,,,,,3,,,49,54
684960,note_off,960,0,2,,,,,,,,,1,,,81,0
684960,note_off,240,0,4,,,,,,,,,3,,,52,0
684960,note_off,960,0,1,,,,,,,,,0,,,93,0
684960,note_on,0,0,3,,,,,,,,,2,,,57,54
684960,note_on,0,0,1,,,,,,,,,0,,,85,60
684960,note_off,240,0,3,,,,,,,,,2,,,61,0
684960,note_off,0,0,2,,,,,,,,,1,,,85,0
684960,note_on,0,0,2,,,,,,,,,1,,,81,56
685200,note_off,240,0,2,,,,,,,,,1,,,81,0
685200,note_on,0,0,2,,,,,,,,,1,,,78,55
685200,note_off,240,0,1,,,,,,,,,0,,,85,0
685200,note_on,0,0,1,,,,,,,,,0,,,81,58
685392,note_off,192,0,2,,,,,,,,,1,,,78,0
685392,note_off,192,0,1,,,,,,,,,0,,,81,0
685440,note_on,48,0,1,,,,,,,,,0,,,85,57
685440,note_off,480,0,4,,,,,,,,,3,,,49,0
685440,note_on,0,0,3,,,,,,,,,2,,,51,52
685440,note_on,0,0,4,,,,,,,,,3,,,47,52
685440,note_off,480,0,3,,,,,,,,,2,,,57,0
685440,note_on,48,0,2,,,,,,,,,1,,,81,54
685632,note_off,192,0,2,,,,,,,,,1,,,81,0
685632,note_off,192,0,1,,,,,,,,,0,,,85,0
685680,note_on,48,0,1,,,,,,,,,0,,,85,55
685680,note_on,48,0,2,,,,,,,,,1,,,81,53
685800,set_tempo,1800,1,0,,,,,,301507,,,,,,,
685872,note_off,192,0,2,,,,,,,,,1,,,81,0
685872,note_off,192,0,1,,,,,,,,,0,,,85,0
685920,note_on,48,0,2,,,,,,,,,1,,,81,52
685920,note_off,480,0,4,,,,,,,,,3,,,47,0
685920,note_off,480,0,3,,,,,,,,,2,,,51,0
685920,note_on,48,0,1,,,,,,,,,0,,,85,52
685920,note_on,0,0,3,,,,,,,,,2,,,52,50
685920,note_on,0,0,4,,,,,,,,,3,,,49,50
686160,note_off,240,0,4,,,,,,,,,3,,,49,0
686160,note_on,0,0,4,,,,,,,,,3,,,47,49
686160,note_off,240,0,3,,,,,,,,,2,,,52,0
686160,note_on,0,0,3,,,,,,,,,2,,,51,49
686352,note_off,192,0,3,,,,,,,,,2,,,51,0
686352,note_off,192,0,4,,,,,,,,,3,,,47,0
686370,set_tempo,570,1,0,,,,,,304568,,,,,,,
686400,note_on,0,0,1,,,,,,,,,0,,,83,50
686400,note_on,0,0,2,,,,,,,,,1,,,80,50
686400,note_off,480,0,2,,,,,,,,,1,,,81,0
686400,note_off,480,0,1,,,,,,,,,0,,,85,0
686400,note_on,48,0,4,,,,,,,,,3,,,49,48
686400,note_on,48,0,3,,,,,,,,,2,,,52,48
686565,set_tempo,195,1,0,,,,,,315789,,,,,,,
686592,note_off,192,0,3,,,,,,,,,2,,,52,0
686592,note_off,192,0,4,,,,,,,,,3,,,49,0
686640,note_on,48,0,4,,,,,,,,,3,,,51,47
686640,note_on,0,0,1,,,,,,,,,0,,,81,48
686640,note_off,240,0,2,,,,,,,,,1,,,80,0
686640,note_on,0,0,2,,,,,,,,,1,,,78,48
686640,note_off,240,0,1,,,,,,,,,0,,,83,0
686640,note_on,48,0,3,,,,,,,,,2,,,54,47
686832,note_off,192,0,4,,,,,,,,,3,,,51,0
686832,note_off,192,0,3,,,,,,,,,2,,,54,0
686880,note_off,240,0,1,,,,,,,,,0,,,81,0
686880,note_on,0,0,1,,,,,,,,,0,,,80,46
686880,note_off,240,0,2,,,,,,,,,1,,,78,0
686880,set_tempo,315,1,0,,,,,,320855,,,,,,,
686880,note_on,48,0,3,,,,,,,,,2,,,56,45
686880,note_on,0,0,2,,,,,,,,,1,,,76,46
686880,note_on,48,0,4,,,,,,,,,3,,,52,45
687120,note_off,240,0,3,,,,,,,,,2,,,56,0
687120,note_on,0,0,4,,,,,,,,,3,,,44,43
687120,note_on,0,0,1,,,,,,,,,0,,,71,44
687120,note_off,240,0,4,,,,,,,,,3,,,52,0
687120,note_off,240,0,2,,,,,,,,,1,,,76,0
687120,note_on,0,0,2,,,,,,,,,1,,,64,44
687120,note_off,240,0,1,,,,,,,,,0,,,80,0
687225,set_tempo,345,1,0,,,,,,465116,,,,,,,
687360,set_tempo,135,1,0,,,,,,517241,,,,,,,
687360,note_on,0,0,4,,,,,,,,,3,,,45,41
687360,note_off,240,0,4,,,,,,,,,3,,,44,0
687360,note_on,240,0,2,,,,,,,,,1,,,66,42
687600,control_change,480,0,3,,,,,,,64,127,2,,,,
687600,set_tempo,240,1,0,,,,,,1034482,,,,,,,
687600,note_off,0,0,4,,,,,,,,,3,,,45,0
687600,note_on,0,0,4,,,,,,,,,3,,,47,39
687600,control_change,240,0,4,,,,,,,64,127,3,,,,
687600,note_off,0,0,2,,,,,,,,,1,,,64,0
687600,note_off,0,0,1,,,,,,,,,0,,,71,0
687600,note_on,0,0,1,,,,,,,,,0,,,71,40
687600,note_on,0,0,2,,,,,,,,,1,,,66,40
687600,note_on,0,0,2,,,,,,,,,1,,,63,40
687600,note_off,0,0,2,,,,,,,,,1,,,66,0
687600,control_change,240,0,2,,,,,,,64,127,1,,,,
687600,control_change,480,0,1,,,,,,,64,127,0,,,,
687840,time_signature,240,1,0,3,4,24,8,,,,,,,,,
687840,note_off,0,0,2,,,,,,,,,1,,,63,0
687840,note_off,240,0,2,,,,,,,,,1,,,66,0
687840,note_off,240,0,4,,,,,,,,,3,,,47,0
687840,set_tempo,0,1,0,,,,,,540540,,,,,,,
687840,note_off,240,0,1,,,,,,,,,0,,,71,0
689280,note_on,0,0,4,,,,,,,,,3,,,40,36
689280,control_change,1440,0,1,,,,,,,64,0,0,,,,
689280,control_change,0,0,1,,,,,,,64,0,0,,,,
689280,control_change,0,0,5,,,,,,,7,97,4,,,,
689280,control_change,1440,0,4,,,,,,,64,0,3,,,,
689280,control_change,299040,0,5,,,,,,,64,0,4,,,,
689280,note_on,0,0,5,,,,,,,,,4,,,47,34
689280,marker,0,1,0,,,,,,,,,,,,,
689280,note_on,0,0,1,,,,,,,,,0,,,68,36
689280,note_on,0,0,3,,,,,,,,,2,,,71,34
689280,set_tempo,1440,1,0,,,,,,1276595,,,,,,,
689280,control_change,1680,0,3,,,,,,,64,0,2,,,,
689280,control_change,1440,0,2,,,,,,,64,0,1,,,,
689640,note_off,360,0,3,,,,,,,,,2,,,71,0
689640,note_off,360,0,5,,,,,,,,,4,,,47,0
689724,note_off,444,0,1,,,,,,,,,0,,,68,0
689724,note_off,444,0,4,,,,,,,,,3,,,40,0
689760,note_on,120,0,3,,,,,,,,,2,,,71,34
689760,note_on,120,0,5,,,,,,,,,4,,,47,34
689760,note_on,36,0,1,,,,,,,,,0,,,64,38
689760,note_on,36,0,4,,,,,,,,,3,,,44,38
690120,note_off,360,0,5,,,,,,,,,4,,,47,0
690120,note_off,360,0,3,,,,,,,,,2,,,71,0
690204,note_off,444,0,4,,,,,,,,,3,,,44,0
690204,note_off,444,0,1,,,,,,,,,0,,,64,0
690240,note_on,36,0,1,,,,,,,,,0,,,66,39
690240,note_on,120,0,3,,,,,,,,,2,,,71,35
690240,note_on,36,0,4,,,,,,,,,3,,,42,39
690240,note_on,120,0,5,,,,,,,,,4,,,47,35
690600,note_off,360,0,5,,,,,,,,,4,,,47,0
690600,note_off,360,0,3,,,,,,,,,2,,,71,0
690600,set_tempo,1320,1,0,,,,,,1333333,,,,,,,
690684,note_off,444,0,4,,,,,,,,,3,,,42,0
690684,note_off,444,0,1,,,,,,,,,0,,,66,0
690720,note_on,36,0,4,,,,,,,,,3,,,45,39
690720,note_on,120,0,3,,,,,,,,,2,,,71,35
690720,note_on,120,0,5,,,,,,,,,4,,,47,35
690720,note_on,36,0,1,,,,,,,,,0,,,63,39
690720,set_tempo,120,1,0,,,,,,1276595,,,,,,,
691080,note_off,360,0,3,,,,,,,,,2,,,71,0
691080,note_off,360,0,5,,,,,,,,,4,,,47,0
691164,note_off,444,0,1,,,,,,,,,0,,,63,0
691164,note_off,444,0,4,,,,,,,,,3,,,45,0
691200,note_on,36,0,1,,,,,,,,,0,,,59,40
691200,note_on,120,0,5,,,,,,,,,4,,,47,35
691200,note_on,36,0,4,,,,,,,,,3,,,42,40
691200,note_on,120,0,3,,,,,,,,,2,,,71,35
691560,note_off,360,0,4,,,,,,,,,3,,,42,0
691560,note_off,360,0,3,,,,,,,,,2,,,71,0
691560,note_off,360,0,5,,,,,,,,,4,,,47,0
691680,note_on,120,0,4,,,,,,,,,3,,,44,41
691680,note_on,120,0,5,,,,,,,,,4,,,47,36
691680,note_on,120,0,3,,,,,,,,,2,,,71,36
691920,set_tempo,1200,1,0,,,,,,1333333,,,,,,,
692040,note_off,360,0,3,,,,,,,,,2,,,71,0
692040,note_off,360,0,4,,,,,,,,,3,,,44,0
692040,note_off,360,0,5,,,,,,,,,4,,,47,0
692088,note_off,888,0,1,,,,,,,,,0,,,59,0
692160,note_on,120,0,5,,,,,,,,,4,,,47,36
692160,set_tempo,240,1,0,,,,,,1224489,,,,,,,
692160,note_on,72,0,1,,,,,,,,,0,,,68,41
692160,note_on,120,0,4,,,,,,,,,3,,,40,41
692160,note_on,120,0,3,,,,,,,,,2,,,71,36
692400,note_on,0,0,5,,,,,,,,,4,,,47,36
692400,note_off,240,0,3,,,,,,,,,2,,,71,0
692400,note_on,0,0,3,,,,,,,,,2,,,71,36
692400,note_off,240,0,5,,,,,,,,,4,,,47,0
692640,note_off,240,0,5,,,,,,,,,4,,,47,0
692640,note_off,240,0,3,,,,,,,,,2,,,71,0
692640,note_on,0,0,5,,,,,,,,,4,,,47,37
692640,note_on,0,0,3,,,,,,,,,2,,,71,37
692640,note_on,0,0,1,,,,,,,,,0,,,64,42
692640,note_off,480,0,4,,,,,,,,,3,,,40,0
692640,note_on,0,0,4,,,,,,,,,3,,,44,42
692640,note_off,480,0,1,,,,,,,,,0,,,68,0
692880,note_off,240,0,5,,,,,,,,,4,,,47,0
692880,note_on,0,0,3,,,,,,,,,2,,,71,37
692880,note_on,0,0,5,,,,,,,,,4,,,47,37
692880,note_off,240,0,3,,,,,,,,,2,,,71,0
693120,note_off,480,0,4,,,,,,,,,3,,,44,0
693120,note_off,240,0,3,,,,,,,,,2,,,71,0
693120,note_off,480,0,1,,,,,,,,,0,,,64,0
693120,note_on,0,0,3,,,,,,,,,2,,,71,37
693120,note_off,240,0,5,,,,,,,,,4,,,47,0
693120,note_on,0,0,5,,,,,,,,,4,,,47,37
693120,note_on,0,0,1,,,,,,,,,0,,,66,43
693120,note_on,0,0,4,,,,,,,,,3,,,42,43
693360,note_on,0,0,4,,,,,,,,,3,,,40,43
693360,note_off,240,0,5,,,,,,,,,4,,,47,0
693360,note_on,0,0,5,,,,,,,,,4,,,47,37
693360,note_off,240,0,3,,,,,,,,,2,,,71,0
693360,note_off,240,0,4,,,,,,,,,3,,,42,0
693360,note_on,0,0,3,,,,,,,,,2,,,71,37
693480,set_tempo,1320,1,0,,,,,,1276595,,,,,,,
693600,note_off,240,0,3,,,,,,,,,2,,,71,0
693600,note_off,480,0,1,,,,,,,,,0,,,66,0
693600,note_on,0,0,1,,,,,,,,,0,,,66,44
693600,set_tempo,120,1,0,,,,,,1224489,,,,,,,
693600,note_on,0,0,5,,,,,,,,,4,,,47,37
693600,note_on,0,0,4,,,,,,,,,3,,,39,44
693600,note_off,240,0,4,,,,,,,,,3,,,40,0
693600,note_off,240,0,5,,,,,,,,,4,,,47,0
693600,note_on,0,0,3,,,,,,,,,2,,,71,37
693840,note_off,240,0,5,,,,,,,,,4,,,47,0
693840,note_on,0,0,5,,,,,,,,,4,,,47,38
693840,note_on,0,0,3,,,,,,,,,2,,,71,38
693840,note_off,240,0,3,,,,,,,,,2,,,71,0
694080,note_off,240,0,3,,,,,,,,,2,,,71,0
694080,note_off,480,0,4,,,,,,,,,3,,,39,0
694080,note_on,0,0,4,,,,,,,,,3,,,37,44
694080,note_off,240,0,5,,,,,,,,,4,,,47,0
694080,note_on,0,0,5,,,,,,,,,4,,,47,38
694080,note_on,0,0,1,,,,,,,,,0,,,70,44
694080,note_off,480,0,1,,,,,,,,,0,,,66,0
694080,note_on,0,0,3,,,,,,,,,2,,,71,38
694320,note_on,0,0,3,,,,,,,,,2,,,71,38
694320,note_off,240,0,5,,,,,,,,,4,,,47,0
694320,note_off,240,0,3,,,,,,,,,2,,,71,0
694320,note_on,0,0,5,,,,,,,,,4,,,47,38
694560,note_off,240,0,5,,,,,,,,,4,,,47,0
694560,note_off,480,0,1,,,,,,,,,0,,,70,0
694560,note_on,0,0,1,,,,,,,,,0,,,71,40
694560,note_on,0,0,5,,,,,,,,,4,,,47,38
694560,note_off,480,0,4,,,,,,,,,3,,,37,0
694560,note_on,0,0,4,,,,,,,,,3,,,35,45
694560,note_off,240,0,3,,,,,,,,,2,,,71,0
694680,set_tempo,1080,1,0,,,,,,1276595,,,,,,,
694800,set_tempo,120,1,0,,,,,,1428571,,,,,,,
694800,note_on,0,0,5,,,,,,,,,4,,,47,38
694800,note_off,240,0,4,,,,,,,,,3,,,35,0
694800,note_on,0,0,4,,,,,,,,,3,,,45,45
694800,note_on,5520,0,2,,,,,,,,,1,,,75,45
694800,note_on,0,0,2,,,,,,,,,1,,,78,45
694800,note_off,240,0,5,,,,,,,,,4,,,47,0
694800,note_off,240,0,1,,,,,,,,,0,,,71,0
694800,note_on,240,0,3,,,,,,,,,2,,,71,38
694800,note_on,0,0,1,,,,,,,,,0,,,83,45
695040,note_on,0,0,1,,,,,,,,,0,,,83,46
695040,note_off,240,0,1,,,,,,,,,0,,,83,0
695040,note_off,240,0,2,,,,,,,,,1,,,78,0
695040,note_off,240,0,3,,,,,,,,,2,,,71,0
695040,note_on,0,0,4,,,,,,,,,3,,,44,46
695040,note_off,240,0,4,,,,,,,,,3,,,45,0
695040,note_off,0,0,2,,,,,,,,,1,,,75,0
695040,note_off,240,0,5,,,,,,,,,4,,,47,0
695040,note_on,0,0,5,,,,,,,,,4,,,47,39
695040,set_tempo,240,1,0,,,,,,1176470,,,,,,,
695040,note_on,0,0,3,,,,,,,,,2,,,71,39
695200,note_off,160,0,5,,,,,,,,,4,,,47,0
695200,note_on,0,0,5,,,,,,,,,4,,,47,39
695200,note_on,0,0,3,,,,,,,,,2,,,71,39
695200,note_off,160,0,3,,,,,,,,,2,,,71,0
695360,note_on,0,0,5,,,,,,,,,4,,,47,39
695360,note_on,0,0,3,,,,,,,,,2,,,71,39
695360,note_off,160,0,3,,,,,,,,,2,,,71,0
695360,note_off,160,0,5,,,,,,,,,4,,,47,0
695520,note_on,0,0,3,,,,,,,,,2,,,71,39
695520,note_on,0,0,1,,,,,,,,,0,,,76,46
695520,note_on,0,0,5,,,,,,,,,4,,,47,39
695520,note_off,160,0,5,,,,,,,,,4,,,47,0
695520,note_off,160,0,3,,,,,,,,,2,,,71,0
695520,note_off,480,0,4,,,,,,,,,3,,,44,0
695520,note_on,0,0,4,,,,,,,,,3,,,44,46
695520,note_off,480,0,1,,,,,,,,,0,,,83,0
695680,note_on,0,0,5,,,,,,,,,4,,,46,39
695680,note_off,160,0,5,,,,,,,,,4,,,47,0
695680,note_on,0,0,3,,,,,,,,,2,,,70,39
695680,note_off,160,0,3,,,,,,,,,2,,,71,0
695840,note_off,160,0,3,,,,,,,,,2,,,70,0
695840,note_on,0,0,3,,,,,,,,,2,,,71,39
695840,note_off,160,0,5,,,,,,,,,4,,,46,0
695840,note_on,0,0,5,,,,,,,,,4,,,47,39
696000,note_off,160,0,3,,,,,,,,,2,,,71,0
696000,note_on,0,0,3,,,,,,,,,2,,,71,39
696000,note_off,160,0,5,,,,,,,,,4,,,47,0
696000,note_on,0,0,5,,,,,,,,,4,,,47,39
696000,note_off,480,0,1,,,,,,,,,0,,,76,0
696000,note_on,0,0,1,,,,,,,,,0,,,80,47
696000,note_off,480,0,4,,,,,,,,,3,,,44,0
696000,note_on,0,0,4,,,,,,,,,3,,,45,47
696160,note_off,160,0,5,,,,,,,,,4,,,47,0
696160,note_on,0,0,3,,,,,,,,,2,,,71,40
696160,note_off,160,0,3,,,,,,,,,2,,,71,0
696160,note_on,0,0,5,,,,,,,,,4,,,47,40
696320,note_on,0,0,3,,,,,,,,,2,,,71,40
696320,note_off,160,0,3,,,,,,,,,2,,,71,0
696320,note_on,320,0,1,,,,,,,,,0,,,78,47
696320,note_off,160,0,5,,,,,,,,,4,,,47,0
696320,note_on,0,0,5,,,,,,,,,4,,,47,40
696330,note_off,10,0,1,,,,,,,,,0,,,80,0
696360,set_tempo,1320,1,0,,,,,,1224489,,,,,,,
696480,note_on,0,0,3,,,,,,,,,2,,,71,40
696480,note_off,160,0,3,,,,,,,,,2,,,71,0
696480,note_on,0,0,4,,,,,,,,,3,,,42,48
696480,note_off,160,0,5,,,,,,,,,4,,,47,0
696480,note_on,0,0,5,,,,,,,,,4,,,47,40
696480,note_off,480,0,4,,,,,,,,,3,,,45,0
696480,note_on,0,0,1,,,,,,,,,0,,,75,48
696480,note_off,150,0,1,,,,,,,,,0,,,78,0
696560,note_off,80,0,3,,,,,,,,,2,,,71,0
696560,note_on,0,0,3,,,,,,,,,2,,,73,40
696560,note_on,0,0,5,,,,,,,,,4,,,49,40
696560,note_off,80,0,5,,,,,,,,,4,,,47,0
696585,set_tempo,225,1,0,,,,,,1176470,,,,,,,
696640,note_on,0,0,3,,,,,,,,,2,,,71,40
696640,note_off,80,0,5,,,,,,,,,4,,,49,0
696640,note_on,0,0,5,,,,,,,,,4,,,47,40
696640,note_off,80,0,3,,,,,,,,,2,,,73,0
696720,note_on,0,0,5,,,,,,,,,4,,,49,40
696720,note_off,80,0,3,,,,,,,,,2,,,71,0
696720,note_on,0,0,3,,,,,,,,,2,,,73,40
696720,note_off,80,0,5,,,,,,,,,4,,,47,0
696800,note_off,80,0,3,,,,,,,,,2,,,73,0
696800,note_on,0,0,5,,,,,,,,,4,,,47,40
696800,note_on,0,0,3,,,,,,,,,2,,,71,40
696800,note_off,80,0,5,,,,,,,,,4,,,49,0
696880,note_off,80,0,3,,,,,,,,,2,,,71,0
696880,note_on,0,0,3,,,,,,,,,2,,,73,40
696880,note_on,0,0,5,,,,,,,,,4,,,49,40
696880,note_off,80,0,5,,,,,,,,,4,,,47,0
696960,note_on,0,0,1,,,,,,,,,0,,,83,48
696960,note_off,480,0,1,,,,,,,,,0,,,75,0
696960,note_on,0,0,5,,,,,,,,,4,,,47,40
696960,note_off,80,0,3,,,,,,,,,2,,,73,0
696960,note_off,480,0,4,,,,,,,,,3,,,42,0
696960,note_on,0,0,4,,,,,,,,,3,,,39,48
696960,note_off,80,0,5,,,,,,,,,4,,,49,0
696960,note_on,0,0,3,,,,,,,,,2,,,71,40
697040,note_off,80,0,5,,,,,,,,,4,,,47,0
697040,note_on,0,0,5,,,,,,,,,4,,,49,40
697040,note_off,80,0,3,,,,,,,,,2,,,71,0
697040,note_on,0,0,3,,,,,,,,,2,,,73,40
697120,note_off,80,0,5,,,,,,,,,4,,,49,0
697120,note_on,0,0,5,,,,,,,,,4,,,47,40
697120,note_off,80,0,3,,,,,,,,,2,,,73,0
697120,note_on,0,0,3,,,,,,,,,2,,,71,40
697200,note_off,80,0,5,,,,,,,,,4,,,47,0
697200,note_on,0,0,5,,,,,,,,,4,,,49,40
697200,note_off,80,0,3,,,,,,,,,2,,,71,0
697200,note_on,0,0,3,,,,,,,,,2,,,73,40
697280,note_off,80,0,5,,,,,,,,,4,,,49,0
697280,note_on,0,0,5,,,,,,,,,4,,,47,41
697280,note_on,0,0,3,,,,,,,,,2,,,71,41
697280,note_off,80,0,3,,,,,,,,,2,,,73,0
697360,note_off,80,0,3,,,,,,,,,2,,,71,0
697360,note_on,0,0,3,,,,,,,,,2,,,73,41
697360,note_off,80,0,5,,,,,,,,,4,,,47,0
697360,note_on,0,0,5,,,,,,,,,4,,,49,41
697440,note_on,0,0,5,,,,,,,,,4,,,47,41
697440,note_on,0,0,1,,,,,,,,,0,,,81,49
697440,note_off,480,0,1,,,,,,,,,0,,,83,0
697440,note_off,80,0,5,,,,,,,,,4,,,49,0
697440,note_on,0,0,4,,,,,,,,,3,,,42,49
697440,note_on,0,0,3,,,,,,,,,2,,,71,41
697440,note_off,80,0,3,,,,,,,,,2,,,73,0
697440,note_off,480,0,4,,,,,,,,,3,,,39,0
697520,note_on,0,0,3,,,,,,,,,2,,,73,41
697520,note_off,80,0,3,,,,,,,,,2,,,71,0
697520,note_off,80,0,5,,,,,,,,,4,,,47,0
697520,note_on,0,0,5,,,,,,,,,4,,,49,41
697600,note_on,0,0,5,,,,,,,,,4,,,47,41
697600,note_on,0,0,3,,,,,,,,,2,,,71,41
697600,note_off,80,0,3,,,,,,,,,2,,,73,0
697600,note_off,80,0,5,,,,,,,,,4,,,49,0
697680,note_off,80,0,5,,,,,,,,,4,,,47,0
697680,note_on,0,0,5,,,,,,,,,4,,,49,41
697680,note_on,0,0,3,,,,,,,,,2,,,73,41
697680,note_off,80,0,3,,,,,,,,,2,,,71,0
697760,note_on,0,0,3,,,,,,,,,2,,,71,41
697760,note_off,80,0,3,,,,,,,,,2,,,73,0
697760,note_on,0,0,5,,,,,,,,,4,,,47,41
697760,note_off,80,0,5,,,,,,,,,4,,,49,0
697800,set_tempo,1215,1,0,,,,,,1224489,,,,,,,
697840,note_on,0,0,5,,,,,,,,,4,,,49,41
697840,note_off,80,0,5,,,,,,,,,4,,,47,0
697840,note_on,0,0,3,,,,,,,,,2,,,73,41
697840,note_off,80,0,3,,,,,,,,,2,,,71,0
697920,note_off,80,0,5,,,,,,,,,4,,,49,0
697920,note_off,480,0,4,,,,,,,,,3,,,42,0
697920,note_on,0,0,4,,,,,,,,,3,,,40,50
697920,note_off,480,0,1,,,,,,,,,0,,,81,0
697920,note_on,0,0,3,,,,,,,,,2,,,71,41
697920,note_off,80,0,3,,,,,,,,,2,,,73,0
697920,note_on,0,0,1,,,,,,,,,0,,,80,50
697920,note_on,0,0,5,,,,,,,,,4,,,47,41
698000,note_off,80,0,5,,,,,,,,,4,,,47,0
698000,note_on,0,0,5,,,,,,,,,4,,,54,41
698000,note_on,0,0,3,,,,,,,,,2,,,78,41
698000,note_off,80,0,3,,,,,,,,,2,,,71,0
698047,set_tempo,247,1,0,,,,,,1176470,,,,,,,
698080,note_on,0,0,5,,,,,,,,,4,,,52,41
698080,note_off,80,0,5,,,,,,,,,4,,,54,0
698080,note_on,0,0,3,,,,,,,,,2,,,76,41
698080,note_off,80,0,3,,,,,,,,,2,,,78,0
698160,note_on,0,0,5,,,,,,,,,4,,,54,41
698160,note_off,80,0,5,,,,,,,,,4,,,52,0
698160,note_off,80,0,3,,,,,,,,,2,,,76,0
698160,note_on,0,0,3,,,,,,,,,2,,,78,41
698240,note_on,0,0,5,,,,,,,,,4,,,52,41
698240,note_on,0,0,3,,,,,,,,,2,,,76,41
698240,note_off,80,0,3,,,,,,,,,2,,,78,0
698240,note_off,80,0,5,,,,,,,,,4,,,54,0
698320,note_on,0,0,3,,,,,,,,,2,,,78,41
698320,note_off,80,0,3,,,,,,,,,2,,,76,0
698320,note_off,80,0,5,,,,,,,,,4,,,52,0
698320,note_on,0,0,5,,,,,,,,,4,,,54,41
698385,note_off,465,0,4,,,,,,,,,3,,,40,0
698400,note_on,0,0,1,,,,,,,,,0,,,88,50
698400,note_on,15,0,4,,,,,,,,,3,,,49,50
698400,note_on,0,0,5,,,,,,,,,4,,,52,42
698400,note_off,80,0,5,,,,,,,,,4,,,54,0
698400,note_off,80,0,3,,,,,,,,,2,,,78,0
698400,note_on,0,0,3,,,,,,,,,2,,,76,42
698400,note_off,480,0,1,,,,,,,,,0,,,80,0
698480,note_off,80,0,5,,,,,,,,,4,,,52,0
698480,note_off,80,0,3,,,,,,,,,2,,,76,0
698480,note_on,0,0,3,,,,,,,,,2,,,78,42
698480,note_on,0,0,5,,,,,,,,,4,,,54,42
698560,note_on,0,0,3,,,,,,,,,2,,,76,42
698560,note_off,80,0,3,,,,,,,,,2,,,78,0
698560,note_on,0,0,5,,,,,,,,,4,,,52,42
698560,note_off,80,0,5,,,,,,,,,4,,,54,0
698640,note_on,0,0,5,,,,,,,,,4,,,54,42
698640,note_off,80,0,5,,,,,,,,,4,,,52,0
698640,note_off,80,0,3,,,,,,,,,2,,,76,0
698640,note_on,0,0,3,,,,,,,,,2,,,78,42
698720,note_off,80,0,5,,,,,,,,,4,,,54,0
698720,note_off,80,0,3,,,,,,,,,2,,,78,0
698720,note_on,0,0,3,,,,,,,,,2,,,76,42
698720,note_on,0,0,5,,,,,,,,,4,,,52,42
698800,note_on,0,0,3,,,,,,,,,2,,,78,42
698800,note_on,0,0,5,,,,,,,,,4,,,54,42
698800,note_off,80,0,5,,,,,,,,,4,,,52,0
698800,note_off,80,0,3,,,,,,,,,2,,,76,0
698880,note_off,80,0,3,,,,,,,,,2,,,78,0
698880,note_on,0,0,3,,,,,,,,,2,,,76,42
698880,note_on,0,0,5,,,,,,,,,4,,,52,42
698880,note_off,80,0,5,,,,,,,,,4,,,54,0
698960,note_off,80,0,5,,,,,,,,,4,,,52,0
698960,note_on,0,0,3,,,,,,,,,2,,,78,42
698960,note_off,80,0,3,,,,,,,,,2,,,76,0
698960,note_on,0,0,5,,,,,,,,,4,,,54,42
699040,note_on,0,0,3,,,,,,,,,2,,,76,42
699040,note_on,0,0,5,,,,,,,,,4,,,52,42
699040,note_off,80,0,5,,,,,,,,,4,,,54,0
699040,note_off,80,0,3,,,,,,,,,2,,,78,0
699120,note_on,0,0,3,,,,,,,,,2,,,78,42
699120,set_tempo,1073,1,0,,,,,,1224489,,,,,,,
699120,note_on,0,0,5,,,,,,,,,4,,,54,42
699120,note_off,80,0,5,,,,,,,,,4,,,52,0
699120,note_off,80,0,3,,,,,,,,,2,,,76,0
699187,note_off,787,0,1,,,,,,,,,0,,,88,0
699200,note_on,0,0,3,,,,,,,,,2,,,76,42
699200,note_on,800,0,4,,,,,,,,,3,,,48,51
699200,note_on,0,0,5,,,,,,,,,4,,,52,42
699200,note_off,80,0,5,,,,,,,,,4,,,54,0
699200,note_off,80,0,3,,,,,,,,,2,,,78,0
699200,note_on,13,0,1,,,,,,,,,0,,,88,51
699217,note_off,17,0,4,,,,,,,,,3,,,49,0
699280,note_off,80,0,5,,,,,,,,,4,,,52,0
699280,note_off,80,0,3,,,,,,,,,2,,,76,0
699280,note_on,0,0,3,,,,,,,,,2,,,78,42
699280,note_on,0,0,5,,,,,,,,,4,,,54,42
699360,note_on,0,0,3,,,,,,,,,2,,,76,42
699360,note_on,0,0,5,,,,,,,,,4,,,55,42
699360,note_off,80,0,5,,,,,,,,,4,,,54,0
699360,set_tempo,240,1,0,,,,,,1176470,,,,,,,
699360,note_off,143,0,4,,,,,,,,,3,,,48,0
699360,note_off,80,0,3,,,,,,,,,2,,,78,0
699360,note_on,0,0,4,,,,,,,,,3,,,48,52
699360,note_on,0,0,1,,,,,,,,,0,,,88,52
699360,note_off,160,0,1,,,,,,,,,0,,,88,0
699440,note_on,0,0,3,,,,,,,,,2,,,79,42
699440,note_off,80,0,3,,,,,,,,,2,,,76,0
699440,note_off,80,0,5,,,,,,,,,4,,,55,0
699440,note_on,0,0,5,,,,,,,,,4,,,52,42
699520,note_on,0,0,3,,,,,,,,,2,,,76,42
699520,note_on,0,0,5,,,,,,,,,4,,,55,42
699520,note_off,80,0,5,,,,,,,,,4,,,52,0
699520,note_off,80,0,3,,,,,,,,,2,,,79,0
699600,note_off,80,0,3,,,,,,,,,2,,,76,0
699600,note_on,0,0,3,,,,,,,,,2,,,79,43
699600,note_on,0,0,5,,,,,,,,,4,,,52,43
699600,note_off,80,0,5,,,,,,,,,4,,,55,0
699680,note_on,0,0,3,,,,,,,,,2,,,76,43
699680,note_on,0,0,5,,,,,,,,,4,,,55,43
699680,note_off,80,0,5,,,,,,,,,4,,,52,0
699680,note_off,80,0,3,,,,,,,,,2,,,79,0
699760,note_on,0,0,5,,,,,,,,,4,,,52,43
699760,note_off,80,0,5,,,,,,,,,4,,,55,0
699760,note_on,0,0,3,,,,,,,,,2,,,79,43
699760,note_off,80,0,3,,,,,,,,,2,,,76,0
699840,note_off,480,0,4,,,,,,,,,3,,,48,0
699840,note_on,0,0,3,,,,,,,,,2,,,76,43
699840,note_off,80,0,3,,,,,,,,,2,,,79,0
699840,note_on,0,0,1,,,,,,,,,0,,,82,52
699840,note_off,480,0,1,,,,,,,,,0,,,88,0
699840,note_off,80,0,5,,,,,,,,,4,,,52,0
699840,note_on,0,0,4,,,,,,,,,3,,,36,52
699840,note_on,0,0,5,,,,,,,,,4,,,43,43
699920,note_on,0,0,5,,,,,,,,,4,,,40,43
699920,note_off,80,0,5,,,,,,,,,4,,,43,0
699920,note_off,80,0,3,,,,,,,,,2,,,76,0
699920,note_on,0,0,3,,,,,,,,,2,,,79,43
700000,note_off,80,0,3,,,,,,,,,2,,,79,0
700000,note_on,0,0,3,,,,,,,,,2,,,76,43
700000,note_on,0,0,5,,,,,,,,,4,,,43,43
700000,note_off,80,0,5,,,,,,,,,4,,,40,0
700080,note_on,0,0,3,,,,,,,,,2,,,79,43
700080,note_off,80,0,5,,,,,,,,,4,,,43,0
700080,note_on,0,0,5,,,,,,,,,4,,,40,43
700080,note_off,80,0,3,,,,,,,,,2,,,76,0
700160,note_off,80,0,5,,,,,,,,,4,,,40,0
700160,note_on,0,0,5,,,,,,,,,4,,,43,43
700160,note_off,80,0,3,,,,,,,,,2,,,79,0
700160,note_on,0,0,3,,,,,,,,,2,,,76,43
700200,set_tempo,840,1,0,,,,,,1224489,,,,,,,
700240,note_on,0,0,5,,,,,,,,,4,,,40,43
700240,note_off,80,0,5,,,,,,,,,4,,,43,0
700240,note_off,80,0,3,,,,,,,,,2,,,76,0
700240,note_on,0,0,3,,,,,,,,,2,,,79,43
700320,note_off,80,0,5,,,,,,,,,4,,,40,0
700320,note_off,480,0,1,,,,,,,,,0,,,82,0
700320,note_on,0,0,4,,,,,,,,,3,,,35,43
700320,note_off,480,0,4,,,,,,,,,3,,,36,0
700320,note_off,80,0,3,,,,,,,,,2,,,79,0
700320,note_on,0,0,3,,,,,,,,,2,,,74,40
700320,note_on,0,0,1,,,,,,,,,0,,,83,53
700327,set_tempo,127,1,0,,,,,,1276595,,,,,,,
700380,note_on,60,0,3,,,,,,,,,2,,,73,40
700380,note_on,60,0,5,,,,,,,,,4,,,47,40
700402,set_tempo,75,1,0,,,,,,1224489,,,,,,,
700420,note_off,40,0,3,,,,,,,,,2,,,74,0
700440,note_on,20,0,3,,,,,,,,,2,,,71,40
700440,note_on,0,0,4,,,,,,,,,3,,,35,43
700440,note_off,120,0,4,,,,,,,,,3,,,35,0
700480,note_off,40,0,3,,,,,,,,,2,,,73,0
700480,note_off,100,0,5,,,,,,,,,4,,,47,0
700500,note_on,20,0,3,,,,,,,,,2,,,73,40
700500,note_on,20,0,5,,,,,,,,,4,,,47,40
700540,note_off,40,0,3,,,,,,,,,2,,,71,0
700560,note_on,20,0,3,,,,,,,,,2,,,71,40
700560,set_tempo,158,1,0,,,,,,1276595,,,,,,,
700560,note_on,0,0,4,,,,,,,,,3,,,35,43
700560,note_off,120,0,4,,,,,,,,,3,,,35,0
700600,note_off,100,0,5,,,,,,,,,4,,,47,0
700600,note_off,40,0,3,,,,,,,,,2,,,73,0
700620,note_on,20,0,5,,,,,,,,,4,,,47,40
700620,note_on,20,0,3,,,,,,,,,2,,,73,40
700640,note_off,320,0,1,,,,,,,,,0,,,83,0
700660,note_off,40,0,3,,,,,,,,,2,,,71,0
700680,note_on,20,0,3,,,,,,,,,2,,,71,40
700680,note_on,0,0,4,,,,,,,,,3,,,35,43
700680,note_off,120,0,4,,,,,,,,,3,,,35,0
700710,set_tempo,150,1,0,,,,,,1333333,,,,,,,
700720,note_off,100,0,5,,,,,,,,,4,,,47,0
700720,note_off,40,0,3,,,,,,,,,2,,,73,0
700740,note_on,20,0,3,,,,,,,,,2,,,73,40
700740,note_on,20,0,5,,,,,,,,,4,,,47,40
700770,set_tempo,60,1,0,,,,,,1428571,,,,,,,
700780,note_off,40,0,3,,,,,,,,,2,,,71,0
700800,note_on,20,0,3,,,,,,,,,2,,,71,40
700800,note_on,0,0,4,,,,,,,,,3,,,40,54
700800,set_tempo,30,1,0,,,,,,1132075,,,,,,,
700800,note_on,160,0,1,,,,,,,,,0,,,68,54
700800,note_off,120,0,4,,,,,,,,,3,,,35,0
700840,note_off,40,0,3,,,,,,,,,2,,,73,0
700860,note_on,120,0,5,,,,,,,,,4,,,49,40
700860,note_on,20,0,3,,,,,,,,,2,,,73,40
700900,note_off,40,0,5,,,,,,,,,4,,,47,0
700900,note_off,40,0,3,,,,,,,,,2,,,71,0
700920,note_on,20,0,3,,,,,,,,,2,,,71,40
700920,note_on,20,0,5,,,,,,,,,4,,,47,40
700960,note_off,40,0,5,,,,,,,,,4,,,49,0
700960,note_off,40,0,3,,,,,,,,,2,,,73,0
700980,note_on,20,0,5,,,,,,,,,4,,,49,40
700980,note_on,20,0,3,,,,,,,,,2,,,73,40
701020,note_off,40,0,5,,,,,,,,,4,,,47,0
701020,note_off,40,0,3,,,,,,,,,2,,,71,0
701040,note_on,20,0,5,,,,,,,,,4,,,47,40
701040,note_on,0,0,4,,,,,,,,,3,,,44,54
701040,note_off,240,0,4,,,,,,,,,3,,,40,0
701040,note_on,0,0,1,,,,,,,,,0,,,64,54
701040,note_off,240,0,1,,,,,,,,,0,,,68,0
701040,note_on,20,0,3,,,,,,,,,2,,,71,40
701080,note_off,40,0,3,,,,,,,,,2,,,73,0
701080,note_off,40,0,5,,,,,,,,,4,,,49,0
701100,note_on,20,0,3,,,,,,,,,2,,,73,40
701100,note_on,20,0,5,,,,,,,,,4,,,49,40
701140,note_off,40,0,3,,,,,,,,,2,,,71,0
701140,note_off,40,0,5,,,,,,,,,4,,,47,0
701160,note_on,20,0,5,,,,,,,,,4,,,47,40
701160,note_on,20,0,3,,,,,,,,,2,,,71,40
701200,note_off,40,0,3,,,,,,,,,2,,,73,0
701200,note_off,40,0,5,,,,,,,,,4,,,49,0
701220,note_on,20,0,5,,,,,,,,,4,,,49,40
701220,note_on,20,0,3,,,,,,,,,2,,,73,40
701232,note_off,192,0,4,,,,,,,,,3,,,44,0
701232,note_off,192,0,1,,,,,,,,,0,,,64,0
701260,note_off,40,0,5,,,,,,,,,4,,,47,0
701260,note_off,40,0,3,,,,,,,,,2,,,71,0
701280,note_on,48,0,4,,,,,,,,,3,,,44,54
701280,note_on,20,0,5,,,,,,,,,4,,,47,40
701280,note_on,48,0,1,,,,,,,,,0,,,64,54
701280,note_on,20,0,3,,,,,,,,,2,,,71,40
701320,note_off,40,0,3,,,,,,,,,2,,,73,0
701320,note_off,40,0,5,,,,,,,,,4,,,49,0
701340,note_on,20,0,3,,,,,,,,,2,,,73,40
701340,note_on,20,0,5,,,,,,,,,4,,,49,40
701380,note_off,40,0,3,,,,,,,,,2,,,71,0
701380,note_off,40,0,5,,,,,,,,,4,,,47,0
701400,note_on,20,0,3,,,,,,,,,2,,,71,40
701400,note_on,20,0,5,,,,,,,,,4,,,47,40
701440,note_off,40,0,3,,,,,,,,,2,,,73,0
701440,note_off,40,0,5,,,,,,,,,4,,,49,0
701460,note_on,20,0,3,,,,,,,,,2,,,73,41
701460,note_on,20,0,5,,,,,,,,,4,,,49,41
701500,note_off,40,0,5,,,,,,,,,4,,,47,0
701500,note_off,40,0,3,,,,,,,,,2,,,71,0
701520,note_on,20,0,5,,,,,,,,,4,,,47,41
701520,note_on,20,0,3,,,,,,,,,2,,,71,41
701520,note_on,0,0,4,,,,,,,,,3,,,40,55
701520,note_off,240,0,4,,,,,,,,,3,,,44,0
701520,note_off,240,0,1,,,,,,,,,0,,,64,0
701520,note_on,0,0,1,,,,,,,,,0,,,68,55
701560,note_off,40,0,3,,,,,,,,,2,,,73,0
701560,note_off,40,0,5,,,,,,,,,4,,,49,0
701580,note_on,20,0,3,,,,,,,,,2,,,73,41
701580,note_on,20,0,5,,,,,,,,,4,,,49,41
701620,note_off,40,0,5,,,,,,,,,4,,,47,0
701620,note_off,40,0,3,,,,,,,,,2,,,71,0
701640,note_on,20,0,5,,,,,,,,,4,,,47,41
701640,note_on,20,0,3,,,,,,,,,2,,,71,41
701680,note_off,40,0,5,,,,,,,,,4,,,49,0
701680,note_off,40,0,3,,,,,,,,,2,,,73,0
701700,note_on,20,0,5,,,,,,,,,4,,,49,41
701700,note_on,20,0,3,,,,,,,,,2,,,73,41
701712,note_off,192,0,4,,,,,,,,,3,,,40,0
701712,note_off,192,0,1,,,,,,,,,0,,,68,0
701740,note_off,40,0,5,,,,,,,,,4,,,47,0
701740,note_off,40,0,3,,,,,,,,,2,,,71,0
701760,note_on,20,0,5,,,,,,,,,4,,,47,41
701760,note_on,48,0,4,,,,,,,,,3,,,40,55
701760,note_on,48,0,1,,,,,,,,,0,,,68,55
701760,note_on,20,0,3,,,,,,,,,2,,,71,41
701800,note_off,40,0,5,,,,,,,,,4,,,49,0
701800,note_off,40,0,3,,,,,,,,,2,,,73,0
701820,note_on,20,0,5,,,,,,,,,4,,,49,41
701820,note_on,20,0,3,,,,,,,,,2,,,73,41
701860,note_off,40,0,5,,,,,,,,,4,,,47,0
701860,note_off,40,0,3,,,,,,,,,2,,,71,0
701880,note_on,20,0,5,,,,,,,,,4,,,47,41
701880,note_on,20,0,3,,,,,,,,,2,,,71,41
701920,note_off,40,0,5,,,,,,,,,4,,,49,0
701920,note_off,40,0,3,,,,,,,,,2,,,73,0
701940,note_on,20,0,5,,,,,,,,,4,,,49,41
701940,note_on,20,0,3,,,,,,,,,2,,,73,41
701980,note_off,40,0,3,,,,,,,,,2,,,71,0
701980,note_off,40,0,5,,,,,,,,,4,,,47,0
702000,note_off,240,0,4,,,,,,,,,3,,,40,0
702000,note_off,240,0,1,,,,,,,,,0,,,68,0
702000,note_on,0,0,1,,,,,,,,,0,,,66,55
702000,note_on,0,0,4,,,,,,,,,3,,,39,55
702000,note_on,20,0,3,,,,,,,,,2,,,71,41
702000,note_on,20,0,5,,,,,,,,,4,,,47,41
702040,note_off,40,0,3,,,,,,,,,2,,,73,0
702040,note_off,40,0,5,,,,,,,,,4,,,49,0
702060,note_on,20,0,3,,,,,,,,,2,,,73,41
702060,note_on,20,0,5,,,,,,,,,4,,,49,41
702100,note_off,40,0,3,,,,,,,,,2,,,71,0
702100,note_off,40,0,5,,,,,,,,,4,,,47,0
702120,note_on,20,0,5,,,,,,,,,4,,,47,41
702120,note_on,20,0,3,,,,,,,,,2,,,71,41
702160,note_off,40,0,3,,,,,,,,,2,,,73,0
702160,note_off,40,0,5,,,,,,,,,4,,,49,0
702180,note_on,20,0,3,,,,,,,,,2,,,73,41
702180,note_on,20,0,5,,,,,,,,,4,,,49,41
702190,set_tempo,1390,1,0,,,,,,1176470,,,,,,,
702192,note_off,192,0,4,,,,,,,,,3,,,39,0
702192,note_off,192,0,1,,,,,,,,,0,,,66,0
702220,note_off,40,0,3,,,,,,,,,2,,,71,0
702220,note_off,40,0,5,,,,,,,,,4,,,47,0
702240,note_on,48,0,1,,,,,,,,,0,,,66,56
702240,note_on,20,0,5,,,,,,,,,4,,,47,41
702240,set_tempo,50,1,0,,,,,,1132075,,,,,,,
702240,note_on,48,0,4,,,,,,,,,3,,,39,56
702240,note_on,20,0,3,,,,,,,,,2,,,71,41
702280,note_off,40,0,3,,,,,,,,,2,,,73,0
702280,note_off,40,0,5,,,,,,,,,4,,,49,0
702300,note_on,20,0,5,,,,,,,,,4,,,49,41
702300,note_on,20,0,3,,,,,,,,,2,,,73,41
702340,note_off,40,0,3,,,,,,,,,2,,,71,0
702340,note_off,40,0,5,,,,,,,,,4,,,47,0
702360,note_on,20,0,3,,,,,,,,,2,,,71,41
702360,note_on,20,0,5,,,,,,,,,4,,,47,41
702400,note_off,40,0,5,,,,,,,,,4,,,49,0
702400,note_off,40,0,3,,,,,,,,,2,,,73,0
702420,note_on,20,0,5,,,,,,,,,4,,,49,41
702420,note_on,20,0,3,,,,,,,,,2,,,73,41
702460,note_off,40,0,3,,,,,,,,,2,,,71,0
702460,note_off,40,0,5,,,,,,,,,4,,,47,0
702480,note_on,0,0,1,,,,,,,,,0,,,63,56
702480,note_on,20,0,3,,,,,,,,,2,,,71,41
702480,note_on,0,0,4,,,,,,,,,3,,,45,56
702480,note_off,240,0,4,,,,,,,,,3,,,39,0
702480,note_off,240,0,1,,,,,,,,,0,,,66,0
702480,note_on,20,0,5,,,,,,,,,4,,,47,41
702520,note_off,40,0,5,,,,,,,,,4,,,49,0
702520,note_off,40,0,3,,,,,,,,,2,,,73,0
702540,note_on,20,0,5,,,,,,,,,4,,,49,41
702540,note_on,20,0,3,,,,,,,,,2,,,73,41
702580,note_off,40,0,5,,,,,,,,,4,,,47,0
702580,note_off,40,0,3,,,,,,,,,2,,,71,0
702600,note_on,20,0,5,,,,,,,,,4,,,47,42
702600,note_on,20,0,3,,,,,,,,,2,,,71,42
702640,note_off,40,0,5,,,,,,,,,4,,,49,0
702640,note_off,40,0,3,,,,,,,,,2,,,73,0
702660,note_on,20,0,5,,,,,,,,,4,,,49,42
702660,note_on,20,0,3,,,,,,,,,2,,,73,42
702672,note_off,192,0,4,,,,,,,,,3,,,45,0
702672,note_off,192,0,1,,,,,,,,,0,,,63,0
702700,note_off,40,0,3,,,,,,,,,2,,,71,0
702700,note_off,40,0,5,,,,,,,,,4,,,47,0
702720,note_on,48,0,4,,,,,,,,,3,,,45,56
702720,note_on,20,0,3,,,,,,,,,2,,,71,42
702720,note_on,20,0,5,,,,,,,,,4,,,47,42
702720,note_on,48,0,1,,,,,,,,,0,,,63,56
702760,note_off,40,0,5,,,,,,,,,4,,,49,0
702760,note_off,40,0,3,,,,,,,,,2,,,73,0
702780,note_on,20,0,5,,,,,,,,,4,,,49,42
702780,note_on,20,0,3,,,,,,,,,2,,,73,42
702820,note_off,40,0,3,,,,,,,,,2,,,71,0
702820,note_off,40,0,5,,,,,,,,,4,,,47,0
702840,note_on,20,0,5,,,,,,,,,4,,,47,42
702840,note_on,20,0,3,,,,,,,,,2,,,71,42
702880,note_off,40,0,3,,,,,,,,,2,,,73,0
702880,note_off,40,0,5,,,,,,,,,4,,,49,0
702900,note_on,20,0,5,,,,,,,,,4,,,49,42
702900,note_on,20,0,3,,,,,,,,,2,,,73,42
702940,note_off,40,0,5,,,,,,,,,4,,,47,0
702940,note_off,40,0,3,,,,,,,,,2,,,71,0
702960,note_on,20,0,3,,,,,,,,,2,,,71,42
702960,note_off,240,0,4,,,,,,,,,3,,,45,0
702960,note_on,0,0,4,,,,,,,,,3,,,44,57
702960,note_on,0,0,1,,,,,,,,,0,,,64,57
702960,note_off,240,0,1,,,,,,,,,0,,,63,0
702960,note_on,20,0,5,,,,,,,,,4,,,47,42
703000,note_off,40,0,5,,,,,,,,,4,,,49,0
703000,note_off,40,0,3,,,,,,,,,2,,,73,0
703020,note_on,20,0,3,,,,,,,,,2,,,73,42
703020,note_on,20,0,5,,,,,,,,,4,,,49,42
703060,note_off,40,0,5,,,,,,,,,4,,,47,0
703060,note_off,40,0,3,,,,,,,,,2,,,71,0
703080,note_on,20,0,5,,,,,,,,,4,,,47,42
703080,note_on,20,0,3,,,,,,,,,2,,,71,42
703120,note_off,40,0,3,,,,,,,,,2,,,73,0
703120,note_off,40,0,5,,,,,,,,,4,,,49,0
703140,note_on,20,0,5,,,,,,,,,4,,,49,42
703140,note_on,20,0,3,,,,,,,,,2,,,73,42
703152,note_off,192,0,1,,,,,,,,,0,,,64,0
703152,note_off,192,0,4,,,,,,,,,3,,,44,0
703180,note_off,40,0,5,,,,,,,,,4,,,47,0
703180,note_off,40,0,3,,,,,,,,,2,,,71,0
703200,note_on,20,0,3,,,,,,,,,2,,,71,42
703200,note_on,48,0,4,,,,,,,,,3,,,44,57
703200,note_on,20,0,5,,,,,,,,,4,,,47,42
703200,note_on,48,0,1,,,,,,,,,0,,,64,57
703240,note_off,40,0,5,,,,,,,,,4,,,49,0
703240,note_off,40,0,3,,,,,,,,,2,,,73,0
703260,note_on,20,0,5,,,,,,,,,4,,,49,42
703260,note_on,20,0,3,,,,,,,,,2,,,73,42
703300,note_off,40,0,5,,,,,,,,,4,,,47,0
703300,note_off,40,0,3,,,,,,,,,2,,,71,0
703320,note_on,20,0,5,,,,,,,,,4,,,47,42
703320,note_on,20,0,3,,,,,,,,,2,,,71,42
703360,note_off,40,0,3,,,,,,,,,2,,,73,0
703360,note_off,40,0,5,,,,,,,,,4,,,49,0
703380,note_on,20,0,5,,,,,,,,,4,,,49,42
703380,note_on,20,0,3,,,,,,,,,2,,,73,42
703420,note_off,40,0,3,,,,,,,,,2,,,71,0
703420,note_off,40,0,5,,,,,,,,,4,,,47,0
703440,note_off,240,0,1,,,,,,,,,0,,,64,0
703440,note_on,20,0,3,,,,,,,,,2,,,71,42
703440,note_on,0,0,4,,,,,,,,,3,,,42,57
703440,note_on,20,0,5,,,,,,,,,4,,,47,42
703440,note_on,0,0,1,,,,,,,,,0,,,63,57
703440,note_off,240,0,4,,,,,,,,,3,,,44,0
703480,note_off,40,0,5,,,,,,,,,4,,,49,0
703480,note_off,40,0,3,,,,,,,,,2,,,73,0
703500,note_on,20,0,5,,,,,,,,,4,,,49,42
703500,note_on,20,0,3,,,,,,,,,2,,,73,42
703540,note_off,40,0,3,,,,,,,,,2,,,71,0
703540,note_off,40,0,5,,,,,,,,,4,,,47,0
703560,note_on,20,0,3,,,,,,,,,2,,,71,42
703560,note_on,20,0,5,,,,,,,,,4,,,47,42
703560,set_tempo,1320,1,0,,,,,,1176470,,,,,,,
703600,note_off,40,0,3,,,,,,,,,2,,,73,0
703600,note_off,40,0,5,,,,,,,,,4,,,49,0
703620,note_on,20,0,5,,,,,,,,,4,,,49,42
703620,note_on,20,0,3,,,,,,,,,2,,,73,42
703632,note_off,192,0,1,,,,,,,,,0,,,63,0
703632,note_off,192,0,4,,,,,,,,,3,,,42,0
703660,note_off,40,0,3,,,,,,,,,2,,,71,0
703660,note_off,40,0,5,,,,,,,,,4,,,47,0
703680,note_on,48,0,4,,,,,,,,,3,,,40,58
703680,note_on,20,0,3,,,,,,,,,2,,,71,42
703680,set_tempo,120,1,0,,,,,,1132075,,,,,,,
703680,note_on,48,0,1,,,,,,,,,0,,,68,58
703680,note_on,20,0,5,,,,,,,,,4,,,47,42
703720,note_off,40,0,3,,,,,,,,,2,,,73,0
703720,note_off,40,0,5,,,,,,,,,4,,,49,0
703740,note_on,20,0,3,,,,,,,,,2,,,73,43
703740,note_on,20,0,5,,,,,,,,,4,,,49,43
703780,note_off,40,0,5,,,,,,,,,4,,,47,0
703780,note_off,40,0,3,,,,,,,,,2,,,71,0
703800,note_on,20,0,3,,,,,,,,,2,,,71,43
703800,note_on,20,0,5,,,,,,,,,4,,,47,43
703840,note_off,40,0,3,,,,,,,,,2,,,73,0
703840,note_off,40,0,5,,,,,,,,,4,,,49,0
703860,note_on,20,0,5,,,,,,,,,4,,,49,43
703860,note_on,20,0,3,,,,,,,,,2,,,73,43
703900,note_off,40,0,3,,,,,,,,,2,,,71,0
703900,note_off,40,0,5,,,,,,,,,4,,,47,0
703920,note_on,0,0,1,,,,,,,,,0,,,64,58
703920,note_on,0,0,4,,,,,,,,,3,,,44,58
703920,note_off,240,0,4,,,,,,,,,3,,,40,0
703920,note_off,240,0,1,,,,,,,,,0,,,68,0
703920,note_on,20,0,3,,,,,,,,,2,,,71,43
703920,note_on,20,0,5,,,,,,,,,4,,,47,43
703960,note_off,40,0,3,,,,,,,,,2,,,73,0
703960,note_off,40,0,5,,,,,,,,,4,,,49,0
703980,note_on,20,0,3,,,,,,,,,2,,,73,43
703980,note_on,20,0,5,,,,,,,,,4,,,49,43
704020,note_off,40,0,3,,,,,,,,,2,,,71,0
704020,note_off,40,0,5,,,,,,,,,4,,,47,0
704040,note_on,20,0,3,,,,,,,,,2,,,71,43
704040,note_on,20,0,5,,,,,,,,,4,,,47,43
704080,note_off,40,0,3,,,,,,,,,2,,,73,0
704080,note_off,40,0,5,,,,,,,,,4,,,49,0
704100,note_on,20,0,3,,,,,,,,,2,,,73,43
704100,note_on,20,0,5,,,,,,,,,4,,,49,43
704112,note_off,192,0,4,,,,,,,,,3,,,44,0
704112,note_off,192,0,1,,,,,,,,,0,,,64,0
704140,note_off,40,0,3,,,,,,,,,2,,,71,0
704140,note_off,40,0,5,,,,,,,,,4,,,47,0
704160,note_on,20,0,3,,,,,,,,,2,,,71,43
704160,note_on,48,0,1,,,,,,,,,0,,,64,58
704160,note_on,48,0,4,,,,,,,,,3,,,44,58
704160,note_on,20,0,5,,,,,,,,,4,,,47,43
704200,note_off,40,0,5,,,,,,,,,4,,,49,0
704200,note_off,40,0,3,,,,,,,,,2,,,73,0
704220,note_on,20,0,3,,,,,,,,,2,,,73,43
704220,note_on,20,0,5,,,,,,,,,4,,,49,43
704260,note_off,40,0,3,,,,,,,,,2,,,71,0
704260,note_off,40,0,5,,,,,,,,,4,,,47,0
704280,note_on,20,0,5,,,,,,,,,4,,,47,43
704280,note_on,20,0,3,,,,,,,,,2,,,71,43
704320,note_off,40,0,3,,,,,,,,,2,,,73,0
704320,note_off,40,0,5,,,,,,,,,4,,,49,0
704340,note_on,20,0,5,,,,,,,,,4,,,49,43
704340,note_on,20,0,3,,,,,,,,,2,,,73,43
704380,note_off,40,0,3,,,,,,,,,2,,,71,0
704380,note_off,40,0,5,,,,,,,,,4,,,47,0
704400,note_off,240,0,1,,,,,,,,,0,,,64,0
704400,note_on,0,0,1,,,,,,,,,0,,,68,59
704400,note_on,20,0,5,,,,,,,,,4,,,47,43
704400,note_on,20,0,3,,,,,,,,,2,,,71,43
704400,note_on,0,0,4,,,,,,,,,3,,,40,59
704400,note_off,240,0,4,,,,,,,,,3,,,44,0
704440,note_off,40,0,3,,,,,,,,,2,,,73,0
704440,note_off,40,0,5,,,,,,,,,4,,,49,0
704460,note_on,20,0,5,,,,,,,,,4,,,49,43
704460,note_on,20,0,3,,,,,,,,,2,,,73,43
704500,note_off,40,0,3,,,,,,,,,2,,,71,0
704500,note_off,40,0,5,,,,,,,,,4,,,47,0
704520,note_on,20,0,5,,,,,,,,,4,,,47,43
704520,note_on,20,0,3,,,,,,,,,2,,,71,43
704560,note_off,40,0,5,,,,,,,,,4,,,49,0
704560,note_off,40,0,3,,,,,,,,,2,,,73,0
704580,note_on,20,0,3,,,,,,,,,2,,,73,43
704580,note_on,20,0,5,,,,,,,,,4,,,49,43
704592,note_off,192,0,1,,,,,,,,,0,,,68,0
704592,note_off,192,0,4,,,,,,,,,3,,,40,0
704620,note_off,40,0,5,,,,,,,,,4,,,47,0
704620,note_off,40,0,3,,,,,,,,,2,,,71,0
704640,note_on,48,0,4,,,,,,,,,3,,,40,59
704640,note_on,20,0,5,,,,,,,,,4,,,47,43
704640,note_on,48,0,1,,,,,,,,,0,,,68,59
704640,note_on,20,0,3,,,,,,,,,2,,,71,43
704680,note_off,40,0,5,,,,,,,,,4,,,49,0
704680,note_off,40,0,3,,,,,,,,,2,,,73,0
704700,note_on,20,0,3,,,,,,,,,2,,,73,43
704700,note_on,20,0,5,,,,,,,,,4,,,49,43
704740,note_off,40,0,5,,,,,,,,,4,,,47,0
704740,note_off,40,0,3,,,,,,,,,2,,,71,0
704760,note_on,20,0,3,,,,,,,,,2,,,71,43
704760,note_on,20,0,5,,,,,,,,,4,,,47,43
704800,note_off,40,0,3,,,,,,,,,2,,,73,0
704800,note_off,40,0,5,,,,,,,,,4,,,49,0
704820,note_on,20,0,5,,,,,,,,,4,,,49,43
704820,note_on,20,0,3,,,,,,,,,2,,,73,43
704860,note_off,40,0,3,,,,,,,,,2,,,71,0
704860,note_off,40,0,5,,,,,,,,,4,,,47,0
704880,note_on,20,0,5,,,,,,,,,4,,,47,44
704880,note_on,20,0,3,,,,,,,,,2,,,71,44
704880,note_on,0,0,1,,,,,,,,,0,,,66,59
704880,note_off,240,0,1,,,,,,,,,0,,,68,0
704880,note_on,0,0,4,,,,,,,,,3,,,39,59
704880,note_off,240,0,4,,,,,,,,,3,,,40,0
704920,note_off,40,0,3,,,,,,,,,2,,,73,0
704920,note_off,40,0,5,,,,,,,,,4,,,49,0
704940,note_on,20,0,5,,,,,,,,,4,,,49,44
704940,note_on,20,0,3,,,,,,,,,2,,,73,44
704980,note_off,40,0,5,,,,,,,,,4,,,47,0
704980,note_off,40,0,3,,,,,,,,,2,,,71,0
705000,note_on,20,0,5,,,,,,,,,4,,,47,44
705000,set_tempo,1320,1,0,,,,,,1176470,,,,,,,
705000,note_on,20,0,3,,,,,,,,,2,,,71,44
705040,note_off,40,0,5,,,,,,,,,4,,,49,0
705040,note_off,40,0,3,,,,,,,,,2,,,73,0
705060,note_on,20,0,5,,,,,,,,,4,,,49,44
705060,note_on,20,0,3,,,,,,,,,2,,,73,44
705072,note_off,192,0,1,,,,,,,,,0,,,66,0
705072,note_off,192,0,4,,,,,,,,,3,,,39,0
705100,note_off,40,0,3,,,,,,,,,2,,,71,0
705100,note_off,40,0,5,,,,,,,,,4,,,47,0
705120,note_on,20,0,3,,,,,,,,,2,,,71,44
705120,note_on,20,0,5,,,,,,,,,4,,,47,44
705120,note_on,48,0,1,,,,,,,,,0,,,66,60
705120,note_on,48,0,4,,,,,,,,,3,,,39,60
705120,set_tempo,120,1,0,,,,,,1132075,,,,,,,
705160,note_off,40,0,3,,,,,,,,,2,,,73,0
705160,note_off,40,0,5,,,,,,,,,4,,,49,0
705180,note_on,20,0,3,,,,,,,,,2,,,73,44
705180,note_on,20,0,5,,,,,,,,,4,,,49,44
705220,note_off,40,0,3,,,,,,,,,2,,,71,0
705220,note_off,40,0,5,,,,,,,,,4,,,47,0
705240,note_on,20,0,5,,,,,,,,,4,,,47,44
705240,note_on,20,0,3,,,,,,,,,2,,,71,44
705280,note_off,40,0,5,,,,,,,,,4,,,49,0
705280,note_off,40,0,3,,,,,,,,,2,,,73,0
705300,note_on,20,0,3,,,,,,,,,2,,,73,44
705300,note_on,20,0,5,,,,,,,,,4,,,49,44
705340,note_off,40,0,3,,,,,,,,,2,,,71,0
705340,note_off,40,0,5,,,,,,,,,4,,,47,0
705360,note_on,20,0,5,,,,,,,,,4,,,47,44
705360,note_off,240,0,1,,,,,,,,,0,,,66,0
705360,note_on,0,0,1,,,,,,,,,0,,,66,60
705360,note_off,240,0,4,,,,,,,,,3,,,39,0
705360,note_on,20,0,3,,,,,,,,,2,,,71,44
705360,note_on,0,0,4,,,,,,,,,3,,,39,60
705400,note_off,40,0,3,,,,,,,,,2,,,73,0
705400,note_off,40,0,5,,,,,,,,,4,,,49,0
705420,note_on,20,0,5,,,,,,,,,4,,,49,44
705420,note_on,20,0,3,,,,,,,,,2,,,73,44
705460,note_off,40,0,5,,,,,,,,,4,,,47,0
705460,note_off,40,0,3,,,,,,,,,2,,,71,0
705480,note_on,20,0,5,,,,,,,,,4,,,47,44
705480,note_on,20,0,3,,,,,,,,,2,,,71,44
705520,note_off,40,0,3,,,,,,,,,2,,,73,0
705520,note_off,40,0,5,,,,,,,,,4,,,49,0
705540,note_on,20,0,3,,,,,,,,,2,,,73,44
705540,note_on,20,0,5,,,,,,,,,4,,,49,44
705552,note_off,192,0,4,,,,,,,,,3,,,39,0
705552,note_off,192,0,1,,,,,,,,,0,,,66,0
705580,note_off,40,0,5,,,,,,,,,4,,,47,0
705580,note_off,40,0,3,,,,,,,,,2,,,71,0
705600,note_on,48,0,1,,,,,,,,,0,,,70,60
705600,note_on,48,0,4,,,,,,,,,3,,,37,60
705600,note_on,20,0,5,,,,,,,,,4,,,47,44
705600,note_on,20,0,3,,,,,,,,,2,,,71,44
705640,note_off,40,0,5,,,,,,,,,4,,,49,0
705640,note_off,40,0,3,,,,,,,,,2,,,73,0
705660,note_on,20,0,5,,,,,,,,,4,,,49,44
705660,note_on,20,0,3,,,,,,,,,2,,,73,44
705700,note_off,40,0,5,,,,,,,,,4,,,47,0
705700,note_off,40,0,3,,,,,,,,,2,,,71,0
705720,note_on,20,0,3,,,,,,,,,2,,,71,44
705720,note_on,20,0,5,,,,,,,,,4,,,47,44
705760,note_off,40,0,5,,,,,,,,,4,,,49,0
705760,note_off,40,0,3,,,,,,,,,2,,,73,0
705780,note_on,20,0,5,,,,,,,,,4,,,49,44
705780,note_on,20,0,3,,,,,,,,,2,,,73,44
705820,note_off,40,0,3,,,,,,,,,2,,,71,0
705820,note_off,40,0,5,,,,,,,,,4,,,47,0
705840,note_on,20,0,3,,,,,,,,,2,,,71,44
705840,note_on,0,0,1,,,,,,,,,0,,,70,61
705840,note_off,240,0,1,,,,,,,,,0,,,70,0
705840,note_off,240,0,4,,,,,,,,,3,,,37,0
705840,note_on,0,0,4,,,,,,,,,3,,,37,61
705840,note_on,20,0,5,,,,,,,,,4,,,47,44
705880,note_off,40,0,3,,,,,,,,,2,,,73,0
705880,note_off,40,0,5,,,,,,,,,4,,,49,0
705900,note_on,20,0,5,,,,,,,,,4,,,49,44
705900,note_on,20,0,3,,,,,,,,,2,,,73,44
705940,note_off,40,0,5,,,,,,,,,4,,,47,0
705940,note_off,40,0,3,,,,,,,,,2,,,71,0
705960,note_on,20,0,5,,,,,,,,,4,,,47,44
705960,note_on,20,0,3,,,,,,,,,2,,,71,44
705960,set_tempo,840,1,0,,,,,,1176470,,,,,,,
706000,note_off,40,0,5,,,,,,,,,4,,,49,0
706000,note_off,40,0,3,,,,,,,,,2,,,73,0
706020,note_on,20,0,5,,,,,,,,,4,,,49,45
706020,note_on,20,0,3,,,,,,,,,2,,,73,45
706032,note_off,192,0,1,,,,,,,,,0,,,70,0
706032,note_off,192,0,4,,,,,,,,,3,,,37,0
706060,note_off,40,0,5,,,,,,,,,4,,,47,0
706060,note_off,40,0,3,,,,,,,,,2,,,71,0
706080,note_on,48,0,4,,,,,,,,,3,,,35,61
706080,note_on,20,0,5,,,,,,,,,4,,,47,42
706080,note_on,20,0,3,,,,,,,,,2,,,71,42
706120,note_off,40,0,3,,,,,,,,,2,,,73,0
706120,note_on,0,0,5,,,,,,,,,4,,,49,42
706120,note_off,40,0,5,,,,,,,,,4,,,49,0
706120,note_on,0,0,3,,,,,,,,,2,,,73,42
706144,note_off,24,0,3,,,,,,,,,2,,,71,0
706144,note_off,24,0,5,,,,,,,,,4,,,47,0
706160,note_on,16,0,5,,,,,,,,,4,,,47,42
706160,note_on,16,0,3,,,,,,,,,2,,,71,42
706184,note_off,24,0,3,,,,,,,,,2,,,73,0
706184,note_off,24,0,5,,,,,,,,,4,,,49,0
706200,note_on,16,0,5,,,,,,,,,4,,,49,42
706200,note_on,16,0,3,,,,,,,,,2,,,73,42
706208,note_off,128,0,4,,,,,,,,,3,,,35,0
706224,note_off,24,0,5,,,,,,,,,4,,,47,0
706224,note_off,24,0,3,,,,,,,,,2,,,71,0
706240,note_on,16,0,3,,,,,,,,,2,,,71,42
706240,note_on,16,0,5,,,,,,,,,4,,,47,42
706240,note_on,32,0,4,,,,,,,,,3,,,45,61
706240,note_on,208,0,1,,,,,,,,,0,,,83,61
706264,note_off,24,0,5,,,,,,,,,4,,,49,0
706264,note_off,24,0,3,,,,,,,,,2,,,73,0
706280,note_on,16,0,5,,,,,,,,,4,,,49,42
706280,note_on,16,0,3,,,,,,,,,2,,,73,42
706304,note_off,24,0,3,,,,,,,,,2,,,71,0
706304,note_off,24,0,5,,,,,,,,,4,,,47,0
706320,note_on,16,0,5,,,,,,,,,4,,,47,42
706320,note_on,16,0,3,,,,,,,,,2,,,71,42
706344,note_off,24,0,5,,,,,,,,,4,,,49,0
706344,note_off,24,0,3,,,,,,,,,2,,,73,0
706360,note_on,16,0,3,,,,,,,,,2,,,73,42
706360,note_on,16,0,5,,,,,,,,,4,,,49,42
706368,note_off,128,0,1,,,,,,,,,0,,,83,0
706368,note_off,128,0,4,,,,,,,,,3,,,45,0
706384,note_off,24,0,5,,,,,,,,,4,,,47,0
706384,note_off,24,0,3,,,,,,,,,2,,,71,0
706400,note_on,32,0,1,,,,,,,,,0,,,83,61
706400,note_on,16,0,5,,,,,,,,,4,,,47,42
706400,note_on,16,0,3,,,,,,,,,2,,,71,42
706400,note_on,32,0,4,,,,,,,,,3,,,45,61
706424,note_off,24,0,3,,,,,,,,,2,,,73,0
706424,note_off,24,0,5,,,,,,,,,4,,,49,0
706440,note_on,16,0,3,,,,,,,,,2,,,73,42
706440,note_on,16,0,5,,,,,,,,,4,,,49,42
706464,note_off,24,0,3,,,,,,,,,2,,,71,0
706464,note_off,24,0,5,,,,,,,,,4,,,47,0
706480,note_on,16,0,5,,,,,,,,,4,,,47,42
706480,note_on,16,0,3,,,,,,,,,2,,,71,42
706500,set_tempo,540,1,0,,,,,,1276595,,,,,,,
706504,note_off,24,0,5,,,,,,,,,4,,,49,0
706504,note_off,24,0,3,,,,,,,,,2,,,73,0
706520,note_on,16,0,5,,,,,,,,,4,,,49,42
706520,note_on,16,0,3,,,,,,,,,2,,,73,42
706528,note_off,128,0,1,,,,,,,,,0,,,83,0
706528,note_off,128,0,4,,,,,,,,,3,,,45,0
706544,note_off,24,0,5,,,,,,,,,4,,,47,0
706544,note_off,24,0,3,,,,,,,,,2,,,71,0
706560,note_on,32,0,4,,,,,,,,,3,,,44,62
706560,note_on,16,0,5,,,,,,,,,4,,,47,42
706560,note_on,32,0,1,,,,,,,,,0,,,83,62
706560,set_tempo,60,1,0,,,,,,1111111,,,,,,,
706560,note_on,16,0,3,,,,,,,,,2,,,71,42
706584,note_off,24,0,3,,,,,,,,,2,,,73,0
706584,note_off,24,0,5,,,,,,,,,4,,,49,0
706600,note_on,16,0,3,,,,,,,,,2,,,73,42
706600,note_on,16,0,5,,,,,,,,,4,,,49,42
706624,note_off,24,0,3,,,,,,,,,2,,,71,0
706624,note_off,24,0,5,,,,,,,,,4,,,47,0
706640,note_on,16,0,3,,,,,,,,,2,,,71,42
706640,note_on,16,0,5,,,,,,,,,4,,,47,42
706664,note_off,24,0,3,,,,,,,,,2,,,73,0
706664,note_off,24,0,5,,,,,,,,,4,,,49,0
706680,note_on,16,0,3,,,,,,,,,2,,,73,42
706680,note_on,16,0,5,,,,,,,,,4,,,49,42
706704,note_off,24,0,3,,,,,,,,,2,,,71,0
706704,note_off,24,0,5,,,,,,,,,4,,,47,0
706720,note_on,16,0,5,,,,,,,,,4,,,47,42
706720,note_off,160,0,1,,,,,,,,,0,,,83,0
706720,note_on,0,0,1,,,,,,,,,0,,,82,62
706720,note_on,16,0,3,,,,,,,,,2,,,71,42
706720,note_off,160,0,4,,,,,,,,,3,,,44,0
706720,note_on,0,0,4,,,,,,,,,3,,,44,62
706744,note_off,24,0,5,,,,,,,,,4,,,49,0
706744,note_off,24,0,3,,,,,,,,,2,,,73,0
706760,note_on,16,0,3,,,,,,,,,2,,,73,42
706760,note_on,16,0,5,,,,,,,,,4,,,49,42
706784,note_off,24,0,3,,,,,,,,,2,,,71,0
706784,note_off,24,0,5,,,,,,,,,4,,,47,0
706800,note_on,16,0,5,,,,,,,,,4,,,47,42
706800,note_on,16,0,3,,,,,,,,,2,,,71,42
706824,note_off,24,0,5,,,,,,,,,4,,,49,0
706824,note_off,24,0,3,,,,,,,,,2,,,73,0
706840,note_on,16,0,5,,,,,,,,,4,,,49,42
706840,note_on,16,0,3,,,,,,,,,2,,,73,42
706848,note_off,128,0,4,,,,,,,,,3,,,44,0
706848,note_off,128,0,1,,,,,,,,,0,,,82,0
706864,note_off,24,0,3,,,,,,,,,2,,,71,0
706864,note_off,24,0,5,,,,,,,,,4,,,47,0
706880,note_on,16,0,3,,,,,,,,,2,,,71,42
706880,note_on,32,0,1,,,,,,,,,0,,,83,62
706880,note_on,32,0,4,,,,,,,,,3,,,44,62
706880,note_on,16,0,5,,,,,,,,,4,,,47,42
706904,note_off,24,0,3,,,,,,,,,2,,,73,0
706904,note_off,24,0,5,,,,,,,,,4,,,49,0
706920,note_on,16,0,5,,,,,,,,,4,,,49,42
706920,note_on,16,0,3,,,,,,,,,2,,,73,42
706944,note_off,24,0,3,,,,,,,,,2,,,71,0
706944,note_off,24,0,5,,,,,,,,,4,,,47,0
706960,note_on,16,0,5,,,,,,,,,4,,,47,42
706960,note_on,16,0,3,,,,,,,,,2,,,71,42
706984,note_off,24,0,3,,,,,,,,,2,,,73,0
706984,note_off,24,0,5,,,,,,,,,4,,,49,0
707000,note_on,16,0,5,,,,,,,,,4,,,49,42
707000,note_on,16,0,3,,,,,,,,,2,,,73,42
707008,note_off,128,0,4,,,,,,,,,3,,,44,0
707008,note_off,128,0,1,,,,,,,,,0,,,83,0
707024,note_off,24,0,5,,,,,,,,,4,,,47,0
707024,note_off,24,0,3,,,,,,,,,2,,,71,0
707040,note_on,16,0,3,,,,,,,,,2,,,71,43
707040,note_on,16,0,5,,,,,,,,,4,,,47,43
707040,note_on,32,0,4,,,,,,,,,3,,,44,62
707040,note_on,32,0,1,,,,,,,,,0,,,83,62
707064,note_off,24,0,3,,,,,,,,,2,,,73,0
707064,note_off,24,0,5,,,,,,,,,4,,,49,0
707080,note_on,16,0,5,,,,,,,,,4,,,49,43
707080,note_on,16,0,3,,,,,,,,,2,,,73,43
707104,note_off,24,0,5,,,,,,,,,4,,,47,0
707104,note_off,24,0,3,,,,,,,,,2,,,71,0
707120,note_on,16,0,5,,,,,,,,,4,,,47,43
707120,note_on,16,0,3,,,,,,,,,2,,,71,43
707144,note_off,24,0,5,,,,,,,,,4,,,49,0
707144,note_off,24,0,3,,,,,,,,,2,,,73,0
707160,note_on,16,0,3,,,,,,,,,2,,,73,43
707160,note_on,16,0,5,,,,,,,,,4,,,49,43
707184,note_off,24,0,3,,,,,,,,,2,,,71,0
707184,note_off,24,0,5,,,,,,,,,4,,,47,0
707200,note_on,16,0,3,,,,,,,,,2,,,71,43
707200,note_off,160,0,4,,,,,,,,,3,,,44,0
707200,note_off,160,0,1,,,,,,,,,0,,,83,0
707200,note_on,0,0,4,,,,,,,,,3,,,44,62
707200,note_on,16,0,5,,,,,,,,,4,,,47,43
707200,note_on,0,0,1,,,,,,,,,0,,,76,62
707224,note_off,24,0,5,,,,,,,,,4,,,49,0
707224,note_off,24,0,3,,,,,,,,,2,,,73,0
707240,note_on,16,0,5,,,,,,,,,4,,,49,43
707240,note_on,16,0,3,,,,,,,,,2,,,73,43
707264,note_off,24,0,3,,,,,,,,,2,,,71,0
707264,note_off,24,0,5,,,,,,,,,4,,,47,0
707280,note_on,16,0,5,,,,,,,,,4,,,47,43
707280,note_on,16,0,3,,,,,,,,,2,,,71,43
707304,note_off,24,0,3,,,,,,,,,2,,,73,0
707304,note_off,24,0,5,,,,,,,,,4,,,49,0
707320,note_on,16,0,3,,,,,,,,,2,,,73,43
707320,note_on,16,0,5,,,,,,,,,4,,,49,43
707328,note_off,128,0,4,,,,,,,,,3,,,44,0
707328,note_off,128,0,1,,,,,,,,,0,,,76,0
707344,note_off,24,0,3,,,,,,,,,2,,,71,0
707344,note_off,24,0,5,,,,,,,,,4,,,47,0
707360,note_on,16,0,5,,,,,,,,,4,,,47,43
707360,note_on,32,0,4,,,,,,,,,3,,,44,63
707360,note_on,32,0,1,,,,,,,,,0,,,76,63
707360,note_on,16,0,3,,,,,,,,,2,,,71,43
707384,note_off,24,0,3,,,,,,,,,2,,,73,0
707384,note_off,24,0,5,,,,,,,,,4,,,49,0
707400,note_on,16,0,3,,,,,,,,,2,,,73,43
707400,note_on,16,0,5,,,,,,,,,4,,,49,43
707424,note_off,24,0,5,,,,,,,,,4,,,47,0
707424,note_off,24,0,3,,,,,,,,,2,,,71,0
707440,note_on,16,0,5,,,,,,,,,4,,,47,43
707440,note_on,16,0,3,,,,,,,,,2,,,71,43
707464,note_off,24,0,5,,,,,,,,,4,,,49,0
707464,note_off,24,0,3,,,,,,,,,2,,,73,0
707480,note_on,16,0,5,,,,,,,,,4,,,49,43
707480,note_on,16,0,3,,,,,,,,,2,,,73,43
707488,note_off,128,0,1,,,,,,,,,0,,,76,0
707488,note_off,128,0,4,,,,,,,,,3,,,44,0
707504,note_off,24,0,5,,,,,,,,,4,,,47,0
707504,note_off,24,0,3,,,,,,,,,2,,,71,0
707520,note_on,16,0,5,,,,,,,,,4,,,47,43
707520,note_on,32,0,1,,,,,,,,,0,,,76,63
707520,note_on,32,0,4,,,,,,,,,3,,,44,63
707520,note_on,16,0,3,,,,,,,,,2,,,71,43
707544,note_off,24,0,3,,,,,,,,,2,,,73,0
707544,note_off,24,0,5,,,,,,,,,4,,,49,0
707560,note_on,16,0,3,,,,,,,,,2,,,73,43
707560,note_on,16,0,5,,,,,,,,,4,,,49,43
707584,note_off,24,0,3,,,,,,,,,2,,,71,0
707584,note_off,24,0,5,,,,,,,,,4,,,47,0
707600,note_on,16,0,3,,,,,,,,,2,,,71,43
707600,note_on,16,0,5,,,,,,,,,4,,,47,43
707624,note_off,24,0,5,,,,,,,,,4,,,49,0
707624,note_off,24,0,3,,,,,,,,,2,,,73,0
707640,note_on,16,0,5,,,,,,,,,4,,,49,43
707640,note_on,16,0,3,,,,,,,,,2,,,73,43
707664,note_off,24,0,3,,,,,,,,,2,,,71,0
707664,note_off,24,0,5,,,,,,,,,4,,,47,0
707680,note_off,160,0,4,,,,,,,,,3,,,44,0
707680,note_on,0,0,4,,,,,,,,,3,,,45,63
707680,note_on,0,0,1,,,,,,,,,0,,,80,63
707680,note_off,160,0,1,,,,,,,,,0,,,76,0
707680,note_on,16,0,3,,,,,,,,,2,,,71,43
707680,note_on,16,0,5,,,,,,,,,4,,,47,43
707704,note_off,24,0,3,,,,,,,,,2,,,73,0
707704,note_off,24,0,5,,,,,,,,,4,,,49,0
707720,note_on,16,0,3,,,,,,,,,2,,,73,43
707720,note_on,16,0,5,,,,,,,,,4,,,49,43
707744,note_off,24,0,3,,,,,,,,,2,,,71,0
707744,note_off,24,0,5,,,,,,,,,4,,,47,0
707760,note_on,16,0,5,,,,,,,,,4,,,47,43
707760,note_on,16,0,3,,,,,,,,,2,,,71,43
707784,note_off,24,0,3,,,,,,,,,2,,,73,0
707784,note_off,24,0,5,,,,,,,,,4,,,49,0
707800,note_on,16,0,3,,,,,,,,,2,,,73,43
707800,note_on,16,0,5,,,,,,,,,4,,,49,43
707808,note_off,128,0,4,,,,,,,,,3,,,45,0
707808,note_off,128,0,1,,,,,,,,,0,,,80,0
707824,note_off,24,0,5,,,,,,,,,4,,,47,0
707824,note_off,24,0,3,,,,,,,,,2,,,71,0
707840,note_on,16,0,3,,,,,,,,,2,,,71,43
707840,note_on,32,0,4,,,,,,,,,3,,,45,63
707840,note_on,32,0,1,,,,,,,,,0,,,78,63
707840,note_on,16,0,5,,,,,,,,,4,,,47,43
707864,note_off,24,0,5,,,,,,,,,4,,,49,0
707864,note_off,24,0,3,,,,,,,,,2,,,73,0
707880,note_on,16,0,5,,,,,,,,,4,,,49,43
707880,note_on,16,0,3,,,,,,,,,2,,,73,43
707904,note_off,24,0,3,,,,,,,,,2,,,71,0
707904,note_off,24,0,5,,,,,,,,,4,,,47,0
707920,note_on,16,0,3,,,,,,,,,2,,,71,43
707920,note_on,16,0,5,,,,,,,,,4,,,47,43
707940,set_tempo,1380,1,0,,,,,,1132075,,,,,,,
707944,note_off,24,0,3,,,,,,,,,2,,,73,0
707944,note_off,24,0,5,,,,,,,,,4,,,49,0
707960,note_on,16,0,5,,,,,,,,,4,,,49,43
707960,note_on,16,0,3,,,,,,,,,2,,,73,43
707968,note_off,128,0,1,,,,,,,,,0,,,78,0
707984,note_off,24,0,3,,,,,,,,,2,,,71,0
707984,note_off,24,0,5,,,,,,,,,4,,,47,0
708000,set_tempo,60,1,0,,,,,,1111111,,,,,,,
708000,note_on,32,0,1,,,,,,,,,0,,,78,64
708000,note_on,16,0,3,,,,,,,,,2,,,71,44
708000,note_on,16,0,5,,,,,,,,,4,,,47,44
708024,note_off,24,0,5,,,,,,,,,4,,,49,0
708024,note_off,24,0,3,,,,,,,,,2,,,73,0
708040,note_on,16,0,5,,,,,,,,,4,,,49,44
708040,note_on,16,0,3,,,,,,,,,2,,,73,44
708064,note_off,24,0,5,,,,,,,,,4,,,47,0
708064,note_off,24,0,3,,,,,,,,,2,,,71,0
708080,note_on,16,0,3,,,,,,,,,2,,,71,44
708080,note_on,16,0,5,,,,,,,,,4,,,47,44
708104,note_off,24,0,5,,,,,,,,,4,,,49,0
708104,note_off,24,0,3,,,,,,,,,2,,,73,0
708120,note_on,16,0,5,,,,,,,,,4,,,49,44
708120,note_on,16,0,3,,,,,,,,,2,,,73,44
708144,note_off,24,0,5,,,,,,,,,4,,,47,0
708144,note_off,24,0,3,,,,,,,,,2,,,71,0
708160,note_on,16,0,3,,,,,,,,,2,,,71,44
708160,note_on,16,0,5,,,,,,,,,4,,,47,44
708160,note_off,160,0,1,,,,,,,,,0,,,78,0
708160,note_off,320,0,4,,,,,,,,,3,,,45,0
708160,note_on,0,0,1,,,,,,,,,0,,,75,64
708160,note_on,0,0,4,,,,,,,,,3,,,42,64
708184,note_off,24,0,3,,,,,,,,,2,,,73,0
708184,note_off,24,0,5,,,,,,,,,4,,,49,0
708200,note_on,16,0,3,,,,,,,,,2,,,73,44
708200,note_on,16,0,5,,,,,,,,,4,,,49,44
708224,note_off,24,0,3,,,,,,,,,2,,,71,0
708224,note_off,24,0,5,,,,,,,,,4,,,47,0
708240,note_on,16,0,3,,,,,,,,,2,,,71,44
708240,note_on,16,0,5,,,,,,,,,4,,,47,44
708264,note_off,24,0,3,,,,,,,,,2,,,73,0
708264,note_off,24,0,5,,,,,,,,,4,,,49,0
708280,note_on,16,0,5,,,,,,,,,4,,,49,44
708280,note_on,16,0,3,,,,,,,,,2,,,73,44
708288,note_off,128,0,4,,,,,,,,,3,,,42,0
708288,note_off,128,0,1,,,,,,,,,0,,,75,0
708304,note_off,24,0,3,,,,,,,,,2,,,71,0
708304,note_off,24,0,5,,,,,,,,,4,,,47,0
708320,note_on,16,0,3,,,,,,,,,2,,,71,44
708320,note_on,32,0,1,,,,,,,,,0,,,75,64
708320,note_on,32,0,4,,,,,,,,,3,,,42,64
708320,note_on,16,0,5,,,,,,,,,4,,,47,44
708344,note_off,24,0,3,,,,,,,,,2,,,73,0
708344,note_off,24,0,5,,,,,,,,,4,,,49,0
708360,note_on,16,0,3,,,,,,,,,2,,,73,44
708360,note_on,16,0,5,,,,,,,,,4,,,49,44
708384,note_off,24,0,3,,,,,,,,,2,,,71,0
708384,note_off,24,0,5,,,,,,,,,4,,,47,0
708400,note_on,16,0,5,,,,,,,,,4,,,47,44
708400,note_on,16,0,3,,,,,,,,,2,,,71,44
708424,note_off,24,0,3,,,,,,,,,2,,,73,0
708424,note_off,24,0,5,,,,,,,,,4,,,49,0
708440,note_on,16,0,5,,,,,,,,,4,,,49,44
708440,note_on,16,0,3,,,,,,,,,2,,,73,44
708448,note_off,128,0,1,,,,,,,,,0,,,75,0
708448,note_off,128,0,4,,,,,,,,,3,,,42,0
708464,note_off,24,0,3,,,,,,,,,2,,,71,0
708464,note_off,24,0,5,,,,,,,,,4,,,47,0
708480,note_on,16,0,3,,,,,,,,,2,,,71,44
708480,note_on,32,0,4,,,,,,,,,3,,,42,64
708480,note_on,32,0,1,,,,,,,,,0,,,75,64
708480,note_on,16,0,5,,,,,,,,,4,,,47,44
708504,note_off,24,0,5,,,,,,,,,4,,,49,0
708504,note_off,24,0,3,,,,,,,,,2,,,73,0
708520,note_on,16,0,5,,,,,,,,,4,,,49,44
708520,note_on,16,0,3,,,,,,,,,2,,,73,44
708544,note_off,24,0,5,,,,,,,,,4,,,47,0
708544,note_off,24,0,3,,,,,,,,,2,,,71,0
708560,note_on,16,0,3,,,,,,,,,2,,,71,44
708560,note_on,16,0,5,,,,,,,,,4,,,47,44
708584,note_off,24,0,5,,,,,,,,,4,,,49,0
708584,note_off,24,0,3,,,,,,,,,2,,,73,0
708600,note_on,16,0,5,,,,,,,,,4,,,49,44
708600,note_on,16,0,3,,,,,,,,,2,,,73,44
708624,note_off,24,0,5,,,,,,,,,4,,,47,0
708624,note_off,24,0,3,,,,,,,,,2,,,71,0
708640,note_on,16,0,3,,,,,,,,,2,,,71,44
708640,note_on,16,0,5,,,,,,,,,4,,,47,44
708640,note_on,0,0,1,,,,,,,,,0,,,83,64
708640,note_off,160,0,1,,,,,,,,,0,,,75,0
708640,note_off,160,0,4,,,,,,,,,3,,,42,0
708640,note_on,0,0,4,,,,,,,,,3,,,39,64
708664,note_off,24,0,5,,,,,,,,,4,,,49,0
708664,note_off,24,0,3,,,,,,,,,2,,,73,0
708680,note_on,16,0,3,,,,,,,,,2,,,73,44
708680,note_on,16,0,5,,,,,,,,,4,,,49,44
708704,note_off,24,0,5,,,,,,,,,4,,,47,0
708704,note_off,24,0,3,,,,,,,,,2,,,71,0
708720,note_on,16,0,5,,,,,,,,,4,,,47,44
708720,note_on,16,0,3,,,,,,,,,2,,,71,44
708744,note_off,24,0,3,,,,,,,,,2,,,73,0
708744,note_off,24,0,5,,,,,,,,,4,,,49,0
708760,note_on,16,0,3,,,,,,,,,2,,,73,44
708760,note_on,16,0,5,,,,,,,,,4,,,49,44
708768,note_off,128,0,1,,,,,,,,,0,,,83,0
708768,note_off,128,0,4,,,,,,,,,3,,,39,0
708784,note_off,24,0,5,,,,,,,,,4,,,47,0
708784,note_off,24,0,3,,,,,,,,,2,,,71,0
708800,note_on,16,0,5,,,,,,,,,4,,,47,44
708800,note_on,32,0,1,,,,,,,,,0,,,83,65
708800,note_on,32,0,4,,,,,,,,,3,,,39,65
708800,note_on,16,0,3,,,,,,,,,2,,,71,44
708824,note_off,24,0,3,,,,,,,,,2,,,73,0
708824,note_off,24,0,5,,,,,,,,,4,,,49,0
708840,note_on,16,0,5,,,,,,,,,4,,,49,44
708840,note_on,16,0,3,,,,,,,,,2,,,73,44
708864,note_off,24,0,5,,,,,,,,,4,,,47,0
708864,note_off,24,0,3,,,,,,,,,2,,,71,0
708880,note_on,16,0,5,,,,,,,,,4,,,47,44
708880,note_on,16,0,3,,,,,,,,,2,,,71,44
708904,note_off,24,0,5,,,,,,,,,4,,,49,0
708904,note_off,24,0,3,,,,,,,,,2,,,73,0
708920,note_on,16,0,3,,,,,,,,,2,,,73,44
708920,note_on,16,0,5,,,,,,,,,4,,,49,44
708928,note_off,128,0,4,,,,,,,,,3,,,39,0
708928,note_off,128,0,1,,,,,,,,,0,,,83,0
708944,note_off,24,0,5,,,,,,,,,4,,,47,0
708944,note_off,24,0,3,,,,,,,,,2,,,71,0
708960,note_on,16,0,5,,,,,,,,,4,,,47,45
708960,note_on,32,0,4,,,,,,,,,3,,,39,65
708960,note_on,32,0,1,,,,,,,,,0,,,83,65
708960,note_on,16,0,3,,,,,,,,,2,,,71,45
708984,note_off,24,0,5,,,,,,,,,4,,,49,0
708984,note_off,24,0,3,,,,,,,,,2,,,73,0
709000,note_on,16,0,3,,,,,,,,,2,,,73,45
709000,note_on,16,0,5,,,,,,,,,4,,,49,45
709024,note_off,24,0,3,,,,,,,,,2,,,71,0
709024,note_off,24,0,5,,,,,,,,,4,,,47,0
709040,note_on,16,0,3,,,,,,,,,2,,,71,45
709040,note_on,16,0,5,,,,,,,,,4,,,47,45
709064,note_off,24,0,5,,,,,,,,,4,,,49,0
709064,note_off,24,0,3,,,,,,,,,2,,,73,0
709080,note_on,16,0,3,,,,,,,,,2,,,73,45
709080,note_on,16,0,5,,,,,,,,,4,,,49,45
709104,note_off,24,0,5,,,,,,,,,4,,,47,0
709104,note_off,24,0,3,,,,,,,,,2,,,71,0
709120,note_off,160,0,1,,,,,,,,,0,,,83,0
709120,note_on,16,0,3,,,,,,,,,2,,,71,45
709120,note_on,16,0,5,,,,,,,,,4,,,47,45
709120,note_on,0,0,4,,,,,,,,,3,,,37,65
709120,note_on,0,0,1,,,,,,,,,0,,,82,65
709120,note_off,160,0,4,,,,,,,,,3,,,39,0
709144,note_off,24,0,5,,,,,,,,,4,,,49,0
709144,note_off,24,0,3,,,,,,,,,2,,,73,0
709160,note_on,16,0,3,,,,,,,,,2,,,73,45
709160,note_on,16,0,5,,,,,,,,,4,,,49,45
709184,note_off,24,0,3,,,,,,,,,2,,,71,0
709184,note_off,24,0,5,,,,,,,,,4,,,47,0
709200,note_on,16,0,3,,,,,,,,,2,,,71,45
709200,note_on,16,0,5,,,,,,,,,4,,,47,45
709224,note_off,24,0,3,,,,,,,,,2,,,73,0
709224,note_off,24,0,5,,,,,,,,,4,,,49,0
709240,note_on,16,0,3,,,,,,,,,2,,,73,45
709240,note_on,16,0,5,,,,,,,,,4,,,49,45
709264,note_off,24,0,3,,,,,,,,,2,,,71,0
709264,note_off,24,0,5,,,,,,,,,4,,,47,0
709280,note_on,16,0,3,,,,,,,,,2,,,71,45
709280,note_on,16,0,5,,,,,,,,,4,,,47,45
709280,note_on,0,0,1,,,,,,,,,0,,,81,65
709280,note_on,0,0,4,,,,,,,,,3,,,39,65
709280,note_off,160,0,4,,,,,,,,,3,,,37,0
709280,note_off,160,0,1,,,,,,,,,0,,,82,0
709304,note_off,24,0,5,,,,,,,,,4,,,49,0
709304,note_off,24,0,3,,,,,,,,,2,,,73,0
709320,note_on,16,0,5,,,,,,,,,4,,,49,45
709320,note_on,16,0,3,,,,,,,,,2,,,73,45
709344,note_off,24,0,3,,,,,,,,,2,,,71,0
709344,note_off,24,0,5,,,,,,,,,4,,,47,0
709360,note_on,16,0,5,,,,,,,,,4,,,47,45
709360,note_on,16,0,3,,,,,,,,,2,,,71,45
709380,set_tempo,1380,1,0,,,,,,1132075,,,,,,,
709384,note_off,24,0,5,,,,,,,,,4,,,49,0
709384,note_off,24,0,3,,,,,,,,,2,,,73,0
709400,note_on,16,0,3,,,,,,,,,2,,,73,45
709400,note_on,16,0,5,,,,,,,,,4,,,49,45
709408,note_off,128,0,4,,,,,,,,,3,,,39,0
709408,note_off,128,0,1,,,,,,,,,0,,,81,0
709424,note_off,24,0,5,,,,,,,,,4,,,47,0
709424,note_off,24,0,3,,,,,,,,,2,,,71,0
709440,set_tempo,60,1,0,,,,,,1111111,,,,,,,
709440,note_on,32,0,4,,,,,,,,,3,,,39,66
709440,note_on,16,0,5,,,,,,,,,4,,,47,45
709440,note_on,32,0,1,,,,,,,,,0,,,81,66
709440,note_on,16,0,3,,,,,,,,,2,,,71,45
709464,note_off,24,0,3,,,,,,,,,2,,,73,0
709464,note_off,24,0,5,,,,,,,,,4,,,49,0
709480,note_on,16,0,3,,,,,,,,,2,,,73,45
709480,note_on,16,0,5,,,,,,,,,4,,,49,45
709504,note_off,24,0,3,,,,,,,,,2,,,71,0
709504,note_off,24,0,5,,,,,,,,,4,,,47,0
709520,note_on,16,0,3,,,,,,,,,2,,,71,45
709520,note_on,16,0,5,,,,,,,,,4,,,47,45
709544,note_off,24,0,3,,,,,,,,,2,,,73,0
709544,note_off,24,0,5,,,,,,,,,4,,,49,0
709560,note_on,16,0,3,,,,,,,,,2,,,73,45
709560,note_on,16,0,5,,,,,,,,,4,,,49,45
709584,note_off,24,0,3,,,,,,,,,2,,,71,0
709584,note_off,24,0,5,,,,,,,,,4,,,47,0
709600,note_on,16,0,3,,,,,,,,,2,,,71,45
709600,note_off,160,0,1,,,,,,,,,0,,,81,0
709600,note_on,0,0,1,,,,,,,,,0,,,80,66
709600,note_on,0,0,4,,,,,,,,,3,,,40,66
709600,note_off,160,0,4,,,,,,,,,3,,,39,0
709600,note_on,16,0,5,,,,,,,,,4,,,47,45
709624,note_off,24,0,5,,,,,,,,,4,,,49,0
709624,note_off,24,0,3,,,,,,,,,2,,,73,0
709640,note_on,16,0,3,,,,,,,,,2,,,73,45
709640,note_on,16,0,5,,,,,,,,,4,,,49,45
709664,note_off,24,0,3,,,,,,,,,2,,,71,0
709664,note_off,24,0,5,,,,,,,,,4,,,47,0
709680,note_on,16,0,5,,,,,,,,,4,,,47,45
709680,note_on,16,0,3,,,,,,,,,2,,,71,45
709704,note_off,24,0,5,,,,,,,,,4,,,49,0
709704,note_off,24,0,3,,,,,,,,,2,,,73,0
709720,note_on,16,0,3,,,,,,,,,2,,,73,45
709720,note_on,16,0,5,,,,,,,,,4,,,49,45
709728,note_off,128,0,4,,,,,,,,,3,,,40,0
709728,note_off,128,0,1,,,,,,,,,0,,,80,0
709744,note_off,24,0,5,,,,,,,,,4,,,47,0
709744,note_off,24,0,3,,,,,,,,,2,,,71,0
709760,note_on,16,0,5,,,,,,,,,4,,,47,45
709760,note_on,32,0,4,,,,,,,,,3,,,40,66
709760,note_on,16,0,3,,,,,,,,,2,,,71,45
709760,note_on,32,0,1,,,,,,,,,0,,,80,66
709784,note_off,24,0,5,,,,,,,,,4,,,49,0
709784,note_off,24,0,3,,,,,,,,,2,,,73,0
709800,note_on,16,0,5,,,,,,,,,4,,,49,45
709800,note_on,16,0,3,,,,,,,,,2,,,73,45
709824,note_off,24,0,5,,,,,,,,,4,,,47,0
709824,note_off,24,0,3,,,,,,,,,2,,,71,0
709840,note_on,16,0,3,,,,,,,,,2,,,71,45
709840,note_on,16,0,5,,,,,,,,,4,,,47,45
709860,set_tempo,420,1,0,,,,,,1132075,,,,,,,
709864,note_off,24,0,5,,,,,,,,,4,,,49,0
709864,note_off,24,0,3,,,,,,,,,2,,,73,0
709880,note_on,16,0,3,,,,,,,,,2,,,73,45
709880,note_on,16,0,5,,,,,,,,,4,,,49,45
709888,note_off,128,0,4,,,,,,,,,3,,,40,0
709888,note_off,128,0,1,,,,,,,,,0,,,80,0
709904,note_off,24,0,5,,,,,,,,,4,,,47,0
709904,note_off,24,0,3,,,,,,,,,2,,,71,0
709920,note_on,32,0,1,,,,,,,,,0,,,80,66
709920,set_tempo,60,1,0,,,,,,1111111,,,,,,,
709938,note_on,34,0,3,,,,,,,,,2,,,76,46
709938,note_on,34,0,5,,,,,,,,,4,,,52,46
709944,note_off,6,0,5,,,,,,,,,4,,,49,0
709944,note_off,6,0,3,,,,,,,,,2,,,73,0
709978,note_on,34,0,5,,,,,,,,,4,,,54,46
709978,note_on,34,0,3,,,,,,,,,2,,,78,46
710002,note_off,24,0,3,,,,,,,,,2,,,76,0
710002,note_off,24,0,5,,,,,,,,,4,,,52,0
710018,note_on,16,0,3,,,,,,,,,2,,,76,46
710018,note_on,16,0,5,,,,,,,,,4,,,52,46
710042,note_off,24,0,3,,,,,,,,,2,,,78,0
710042,note_off,24,0,5,,,,,,,,,4,,,54,0
710058,note_on,16,0,3,,,,,,,,,2,,,78,46
710058,note_on,16,0,5,,,,,,,,,4,,,54,46
710080,note_off,160,0,1,,,,,,,,,0,,,80,0
710080,note_on,192,0,4,,,,,,,,,3,,,49,66
710080,note_on,0,0,1,,,,,,,,,0,,,88,66
710082,note_off,24,0,5,,,,,,,,,4,,,52,0
710082,note_off,24,0,3,,,,,,,,,2,,,76,0
710098,note_on,16,0,3,,,,,,,,,2,,,76,46
710098,note_on,16,0,5,,,,,,,,,4,,,52,46
710122,note_off,24,0,3,,,,,,,,,2,,,78,0
710122,note_off,24,0,5,,,,,,,,,4,,,54,0
710138,note_on,16,0,5,,,,,,,,,4,,,54,46
710138,note_on,16,0,3,,,,,,,,,2,,,78,46
710162,note_off,24,0,5,,,,,,,,,4,,,52,0
710162,note_off,24,0,3,,,,,,,,,2,,,76,0
710178,note_on,16,0,3,,,,,,,,,2,,,76,46
710178,note_on,16,0,5,,,,,,,,,4,,,52,46
710202,note_off,24,0,5,,,,,,,,,4,,,54,0
710202,note_off,24,0,3,,,,,,,,,2,,,78,0
710208,note_off,128,0,1,,,,,,,,,0,,,88,0
710208,note_off,128,0,4,,,,,,,,,3,,,49,0
710218,note_on,16,0,3,,,,,,,,,2,,,78,46
710218,note_on,16,0,5,,,,,,,,,4,,,54,46
710240,note_on,32,0,1,,,,,,,,,0,,,88,67
710240,note_on,32,0,4,,,,,,,,,3,,,49,67
710242,note_off,24,0,3,,,,,,,,,2,,,76,0
710242,note_off,24,0,5,,,,,,,,,4,,,52,0
710258,note_on,16,0,5,,,,,,,,,4,,,52,46
710258,note_on,16,0,3,,,,,,,,,2,,,76,46
710282,note_off,24,0,5,,,,,,,,,4,,,54,0
710282,note_off,24,0,3,,,,,,,,,2,,,78,0
710298,note_on,16,0,5,,,,,,,,,4,,,54,46
710298,note_on,16,0,3,,,,,,,,,2,,,78,46
710322,note_off,24,0,3,,,,,,,,,2,,,76,0
710322,note_off,24,0,5,,,,,,,,,4,,,52,0
710338,note_on,16,0,5,,,,,,,,,4,,,52,46
710338,note_on,16,0,3,,,,,,,,,2,,,76,46
710340,set_tempo,420,1,0,,,,,,1132075,,,,,,,
710362,note_off,24,0,5,,,,,,,,,4,,,54,0
710362,note_off,24,0,3,,,,,,,,,2,,,78,0
710368,note_off,128,0,1,,,,,,,,,0,,,88,0
710368,note_off,128,0,4,,,,,,,,,3,,,49,0
710378,note_on,16,0,5,,,,,,,,,4,,,54,46
710378,note_on,16,0,3,,,,,,,,,2,,,78,46
710400,note_on,32,0,4,,,,,,,,,3,,,49,67
710400,note_on,32,0,1,,,,,,,,,0,,,88,67
710400,set_tempo,60,1,0,,,,,,1111111,,,,,,,
710402,note_off,24,0,5,,,,,,,,,4,,,52,0
710402,note_off,24,0,3,,,,,,,,,2,,,76,0
710418,note_on,16,0,5,,,,,,,,,4,,,52,46
710418,note_on,16,0,3,,,,,,,,,2,,,76,46
710442,note_off,24,0,5,,,,,,,,,4,,,54,0
710442,note_off,24,0,3,,,,,,,,,2,,,78,0
710458,note_on,16,0,3,,,,,,,,,2,,,78,46
710458,note_on,16,0,5,,,,,,,,,4,,,54,46
710482,note_off,24,0,3,,,,,,,,,2,,,76,0
710482,note_off,24,0,5,,,,,,,,,4,,,52,0
710498,note_on,16,0,5,,,,,,,,,4,,,52,46
710498,note_on,16,0,3,,,,,,,,,2,,,76,46
710522,note_off,24,0,5,,,,,,,,,4,,,54,0
710522,note_off,24,0,3,,,,,,,,,2,,,78,0
710538,note_on,16,0,5,,,,,,,,,4,,,54,46
710538,note_on,16,0,3,,,,,,,,,2,,,78,46
710560,note_on,0,0,4,,,,,,,,,3,,,48,67
710560,note_off,160,0,4,,,,,,,,,3,,,49,0
710560,note_off,160,0,1,,,,,,,,,0,,,88,0
710560,note_on,0,0,1,,,,,,,,,0,,,87,67
710562,note_off,24,0,3,,,,,,,,,2,,,76,0
710562,note_off,24,0,5,,,,,,,,,4,,,52,0
710578,note_on,16,0,5,,,,,,,,,4,,,52,46
710578,note_on,16,0,3,,,,,,,,,2,,,76,46
710602,note_off,24,0,5,,,,,,,,,4,,,54,0
710602,note_off,24,0,3,,,,,,,,,2,,,78,0
710618,note_on,16,0,5,,,,,,,,,4,,,54,46
710618,note_on,16,0,3,,,,,,,,,2,,,78,46
710642,note_off,24,0,5,,,,,,,,,4,,,52,0
710642,note_off,24,0,3,,,,,,,,,2,,,76,0
710658,note_on,16,0,5,,,,,,,,,4,,,52,46
710658,note_on,16,0,3,,,,,,,,,2,,,76,46
710682,note_off,24,0,5,,,,,,,,,4,,,54,0
710682,note_off,24,0,3,,,,,,,,,2,,,78,0
710698,note_on,16,0,5,,,,,,,,,4,,,54,46
710698,note_on,16,0,3,,,,,,,,,2,,,78,46
710720,note_off,160,0,4,,,,,,,,,3,,,48,0
710720,note_on,0,0,1,,,,,,,,,0,,,88,67
710720,note_on,0,0,4,,,,,,,,,3,,,49,67
710720,note_off,160,0,1,,,,,,,,,0,,,87,0
710722,note_off,24,0,3,,,,,,,,,2,,,76,0
710722,note_off,24,0,5,,,,,,,,,4,,,52,0
710738,note_on,16,0,5,,,,,,,,,4,,,52,46
710738,note_on,16,0,3,,,,,,,,,2,,,76,46
710762,note_off,24,0,5,,,,,,,,,4,,,54,0
710762,note_off,24,0,3,,,,,,,,,2,,,78,0
710778,note_on,16,0,3,,,,,,,,,2,,,78,46
710778,note_on,16,0,5,,,,,,,,,4,,,54,46
710802,note_off,24,0,3,,,,,,,,,2,,,76,0
710802,note_off,24,0,5,,,,,,,,,4,,,52,0
710818,note_on,16,0,3,,,,,,,,,2,,,76,46
710818,note_on,16,0,5,,,,,,,,,4,,,52,46
710820,set_tempo,420,1,0,,,,,,1132075,,,,,,,
710842,note_off,24,0,3,,,,,,,,,2,,,78,0
710842,note_off,24,0,5,,,,,,,,,4,,,54,0
710848,note_off,128,0,1,,,,,,,,,0,,,88,0
710848,note_off,128,0,4,,,,,,,,,3,,,49,0
710858,note_on,16,0,3,,,,,,,,,2,,,78,46
710858,note_on,16,0,5,,,,,,,,,4,,,54,46
710880,set_tempo,60,1,0,,,,,,1111111,,,,,,,
710880,note_on,32,0,1,,,,,,,,,0,,,88,68
710880,note_on,32,0,4,,,,,,,,,3,,,49,68
710882,note_off,24,0,3,,,,,,,,,2,,,76,0
710882,note_off,24,0,5,,,,,,,,,4,,,52,0
710898,note_on,16,0,3,,,,,,,,,2,,,76,47
710898,note_on,16,0,5,,,,,,,,,4,,,52,47
710922,note_off,24,0,3,,,,,,,,,2,,,78,0
710922,note_off,24,0,5,,,,,,,,,4,,,54,0
710938,note_on,16,0,5,,,,,,,,,4,,,54,47
710938,note_on,16,0,3,,,,,,,,,2,,,78,47
710962,note_off,24,0,3,,,,,,,,,2,,,76,0
710962,note_off,24,0,5,,,,,,,,,4,,,52,0
710978,note_on,16,0,5,,,,,,,,,4,,,52,47
710978,note_on,16,0,3,,,,,,,,,2,,,76,47
711002,note_off,24,0,5,,,,,,,,,4,,,54,0
711002,note_off,24,0,3,,,,,,,,,2,,,78,0
711018,note_on,16,0,3,,,,,,,,,2,,,78,47
711018,note_on,16,0,5,,,,,,,,,4,,,54,47
711040,note_on,0,0,4,,,,,,,,,3,,,48,68
711040,note_off,160,0,4,,,,,,,,,3,,,49,0
711040,note_off,160,0,1,,,,,,,,,0,,,88,0
711040,note_on,0,0,1,,,,,,,,,0,,,87,68
711042,note_off,24,0,5,,,,,,,,,4,,,52,0
711042,note_off,24,0,3,,,,,,,,,2,,,76,0
711058,note_on,16,0,5,,,,,,,,,4,,,52,47
711058,note_on,16,0,3,,,,,,,,,2,,,76,47
711082,note_off,24,0,5,,,,,,,,,4,,,54,0
711082,note_off,24,0,3,,,,,,,,,2,,,78,0
711098,note_on,16,0,5,,,,,,,,,4,,,54,47
711098,note_on,16,0,3,,,,,,,,,2,,,78,47
711122,note_off,24,0,3,,,,,,,,,2,,,76,0
711122,note_off,24,0,5,,,,,,,,,4,,,52,0
711138,note_on,16,0,3,,,,,,,,,2,,,76,47
711138,note_on,16,0,5,,,,,,,,,4,,,52,47
711162,note_off,24,0,3,,,,,,,,,2,,,78,0
711162,note_off,24,0,5,,,,,,,,,4,,,54,0
711178,note_on,16,0,3,,,,,,,,,2,,,78,47
711178,note_on,16,0,5,,,,,,,,,4,,,54,47
711200,note_off,160,0,4,,,,,,,,,3,,,48,0
711200,note_on,0,0,4,,,,,,,,,3,,,49,68
711200,note_on,0,0,1,,,,,,,,,0,,,88,68
711200,note_off,160,0,1,,,,,,,,,0,,,87,0
711202,note_off,24,0,3,,,,,,,,,2,,,76,0
711202,note_off,24,0,5,,,,,,,,,4,,,52,0
711218,note_on,16,0,5,,,,,,,,,4,,,52,47
711218,note_on,16,0,3,,,,,,,,,2,,,76,47
711242,note_off,24,0,3,,,,,,,,,2,,,78,0
711242,note_off,24,0,5,,,,,,,,,4,,,54,0
711258,note_on,16,0,3,,,,,,,,,2,,,78,47
711258,note_on,16,0,5,,,,,,,,,4,,,54,47
711282,note_off,24,0,5,,,,,,,,,4,,,52,0
711282,note_off,24,0,3,,,,,,,,,2,,,76,0
711298,note_on,16,0,3,,,,,,,,,2,,,76,47
711298,note_on,16,0,5,,,,,,,,,4,,,52,47
711322,note_off,24,0,3,,,,,,,,,2,,,78,0
711322,note_off,24,0,5,,,,,,,,,4,,,54,0
711328,note_off,128,0,1,,,,,,,,,0,,,88,0
711328,note_off,128,0,4,,,,,,,,,3,,,49,0
711338,note_on,16,0,3,,,,,,,,,2,,,78,47
711338,note_on,16,0,5,,,,,,,,,4,,,54,47
711360,note_on,32,0,1,,,,,,,,,0,,,88,68
711360,note_on,32,0,4,,,,,,,,,3,,,49,68
711362,note_off,24,0,3,,,,,,,,,2,,,76,0
711362,note_off,24,0,5,,,,,,,,,4,,,52,0
711378,note_on,16,0,3,,,,,,,,,2,,,76,47
711378,note_on,16,0,5,,,,,,,,,4,,,52,47
711402,note_off,24,0,3,,,,,,,,,2,,,78,0
711402,note_off,24,0,5,,,,,,,,,4,,,54,0
711418,note_on,16,0,3,,,,,,,,,2,,,78,47
711418,note_on,16,0,5,,,,,,,,,4,,,54,47
711442,note_off,24,0,3,,,,,,,,,2,,,76,0
711442,note_off,24,0,5,,,,,,,,,4,,,52,0
711458,note_on,16,0,5,,,,,,,,,4,,,52,47
711458,note_on,16,0,3,,,,,,,,,2,,,76,47
711482,note_off,24,0,5,,,,,,,,,4,,,54,0
711482,note_off,24,0,3,,,,,,,,,2,,,78,0
711498,note_on,16,0,5,,,,,,,,,4,,,54,47
711498,note_on,16,0,3,,,,,,,,,2,,,78,47
711520,note_on,0,0,4,,,,,,,,,3,,,48,68
711520,note_off,160,0,4,,,,,,,,,3,,,49,0
711520,note_off,160,0,1,,,,,,,,,0,,,88,0
711520,note_on,0,0,1,,,,,,,,,0,,,82,68
711522,note_off,24,0,5,,,,,,,,,4,,,52,0
711522,note_off,24,0,3,,,,,,,,,2,,,76,0
711538,note_on,16,0,3,,,,,,,,,2,,,76,47
711538,note_on,16,0,5,,,,,,,,,4,,,52,47
711562,note_off,24,0,3,,,,,,,,,2,,,78,0
711562,note_off,24,0,5,,,,,,,,,4,,,54,0
711578,note_on,16,0,3,,,,,,,,,2,,,78,47
711578,note_on,16,0,5,,,,,,,,,4,,,54,47
711602,note_off,24,0,3,,,,,,,,,2,,,76,0
711602,note_off,24,0,5,,,,,,,,,4,,,52,0
711618,note_on,16,0,3,,,,,,,,,2,,,76,47
711618,note_on,16,0,5,,,,,,,,,4,,,52,47
711642,note_off,24,0,3,,,,,,,,,2,,,78,0
711642,note_off,24,0,5,,,,,,,,,4,,,54,0
711658,note_on,16,0,3,,,,,,,,,2,,,78,47
711658,note_on,16,0,5,,,,,,,,,4,,,54,47
711680,note_on,0,0,4,,,,,,,,,3,,,48,69
711680,note_on,0,0,1,,,,,,,,,0,,,82,69
711680,note_off,160,0,1,,,,,,,,,0,,,82,0
711680,note_off,160,0,4,,,,,,,,,3,,,48,0
711682,note_off,24,0,3,,,,,,,,,2,,,76,0
711682,note_off,24,0,5,,,,,,,,,4,,,52,0
711698,note_on,16,0,5,,,,,,,,,4,,,52,47
711698,note_on,16,0,3,,,,,,,,,2,,,76,47
711722,note_off,24,0,3,,,,,,,,,2,,,78,0
711722,note_off,24,0,5,,,,,,,,,4,,,54,0
711738,note_on,16,0,5,,,,,,,,,4,,,54,47
711738,note_on,16,0,3,,,,,,,,,2,,,78,47
711750,set_tempo,870,1,0,,,,,,1132075,,,,,,,
711762,note_off,24,0,5,,,,,,,,,4,,,52,0
711762,note_off,24,0,3,,,,,,,,,2,,,76,0
711778,note_on,16,0,3,,,,,,,,,2,,,76,47
711778,note_on,16,0,5,,,,,,,,,4,,,52,47
711802,note_off,24,0,5,,,,,,,,,4,,,54,0
711802,note_off,24,0,3,,,,,,,,,2,,,78,0
711808,note_off,128,0,1,,,,,,,,,0,,,82,0
711808,note_off,128,0,4,,,,,,,,,3,,,48,0
711818,note_on,16,0,3,,,,,,,,,2,,,78,46
711818,note_on,16,0,5,,,,,,,,,4,,,54,46
711840,set_tempo,90,1,0,,,,,,1111111,,,,,,,
711840,note_on,32,0,1,,,,,,,,,0,,,82,70
711842,note_off,24,0,3,,,,,,,,,2,,,76,0
711842,note_off,24,0,5,,,,,,,,,4,,,52,0
711858,note_on,16,0,3,,,,,,,,,2,,,76,46
711858,note_on,16,0,5,,,,,,,,,4,,,35,46
711882,note_off,24,0,3,,,,,,,,,2,,,78,0
711882,note_off,24,0,5,,,,,,,,,4,,,54,0
711898,note_on,16,0,3,,,,,,,,,2,,,78,47
711898,note_on,16,0,5,,,,,,,,,4,,,37,47
711922,note_off,24,0,5,,,,,,,,,4,,,35,0
711922,note_off,24,0,3,,,,,,,,,2,,,76,0
711938,note_on,16,0,5,,,,,,,,,4,,,35,48
711938,note_on,16,0,3,,,,,,,,,2,,,76,48
711960,set_tempo,120,1,0,,,,,,1132075,,,,,,,
711962,note_off,24,0,3,,,,,,,,,2,,,78,0
711962,note_off,24,0,5,,,,,,,,,4,,,37,0
711978,note_on,16,0,3,,,,,,,,,2,,,75,49
711978,note_on,16,0,5,,,,,,,,,4,,,37,49
712000,note_on,16960,0,2,,,,,,,,,1,,,75,65
712000,note_off,160,0,1,,,,,,,,,0,,,82,0
712000,note_on,0,0,1,,,,,,,,,0,,,83,71
712002,note_off,24,0,3,,,,,,,,,2,,,76,0
712002,note_off,24,0,5,,,,,,,,,4,,,35,0
712018,note_on,16,0,5,,,,,,,,,4,,,35,50
712020,set_tempo,60,1,0,,,,,,1111111,,,,,,,
712038,note_on,36,0,3,,,,,,,,,2,,,76,50
712042,note_off,24,0,5,,,,,,,,,4,,,37,0
712058,note_on,16,0,5,,,,,,,,,4,,,37,51
712062,note_off,24,0,3,,,,,,,,,2,,,75,0
712082,note_off,24,0,5,,,,,,,,,4,,,35,0
712098,note_on,16,0,5,,,,,,,,,4,,,35,53
712122,note_off,24,0,5,,,,,,,,,4,,,37,0
712122,note_off,60,0,3,,,,,,,,,2,,,76,0
712128,note_off,128,0,2,,,,,,,,,1,,,75,0
712128,note_off,128,0,1,,,,,,,,,0,,,83,0
712138,note_on,16,0,5,,,,,,,,,4,,,37,53
712160,note_on,0,0,2,,,,,,,,,1,,,80,65
712160,note_on,0,0,2,,,,,,,,,1,,,77,65
712160,note_on,32,0,2,,,,,,,,,1,,,74,65
712160,note_on,32,0,1,,,,,,,,,0,,,86,73
712162,note_off,24,0,5,,,,,,,,,4,,,35,0
712170,set_tempo,150,1,0,,,,,,1500000,,,,,,,
712178,note_on,16,0,5,,,,,,,,,4,,,35,53
712202,note_off,24,0,5,,,,,,,,,4,,,37,0
712218,note_on,16,0,5,,,,,,,,,4,,,37,53
712242,note_off,24,0,5,,,,,,,,,4,,,35,0
712258,note_on,16,0,5,,,,,,,,,4,,,35,53
712282,note_off,24,0,5,,,,,,,,,4,,,37,0
712288,note_off,128,0,2,,,,,,,,,1,,,80,0
712288,note_off,0,0,2,,,,,,,,,1,,,77,0
712288,note_off,0,0,2,,,,,,,,,1,,,74,0
712288,note_off,128,0,1,,,,,,,,,0,,,86,0
712298,note_on,16,0,5,,,,,,,,,4,,,37,53
712320,note_on,32,0,2,,,,,,,,,1,,,74,65
712320,note_on,0,0,2,,,,,,,,,1,,,80,65
712320,note_on,0,0,2,,,,,,,,,1,,,77,65
712320,set_tempo,150,1,0,,,,,,1071428,,,,,,,
712320,note_on,32,0,1,,,,,,,,,0,,,86,73
712322,note_off,24,0,5,,,,,,,,,4,,,35,0
712338,note_on,16,0,5,,,,,,,,,4,,,35,53
712362,note_off,24,0,5,,,,,,,,,4,,,37,0
712378,note_on,16,0,5,,,,,,,,,4,,,37,53
712380,note_on,0,0,2,,,,,,,,,1,,,83,65
712380,note_off,0,0,2,,,,,,,,,1,,,80,0
712380,note_off,60,0,2,,,,,,,,,1,,,77,0
712380,note_off,0,0,2,,,,,,,,,1,,,74,0
712402,note_off,24,0,5,,,,,,,,,4,,,35,0
712418,note_on,16,0,5,,,,,,,,,4,,,35,53
712440,note_on,60,0,2,,,,,,,,,1,,,80,64
712442,note_off,24,0,5,,,,,,,,,4,,,37,0
712458,note_on,16,0,5,,,,,,,,,4,,,37,53
712482,note_off,24,0,5,,,,,,,,,4,,,35,0
712498,note_on,16,0,5,,,,,,,,,4,,,35,53
712499,note_off,59,0,2,,,,,,,,,1,,,83,0
712500,note_on,1,0,2,,,,,,,,,1,,,77,64
712522,note_off,24,0,5,,,,,,,,,4,,,37,0
712538,note_on,16,0,5,,,,,,,,,4,,,37,53
712559,note_off,59,0,2,,,,,,,,,1,,,80,0
712560,note_on,0,0,1,,,,,,,,,0,,,74,73
712560,note_off,240,0,1,,,,,,,,,0,,,86,0
712562,note_off,24,0,5,,,,,,,,,4,,,35,0
712578,note_on,16,0,5,,,,,,,,,4,,,35,53
712602,note_off,24,0,5,,,,,,,,,4,,,37,0
712618,note_on,16,0,5,,,,,,,,,4,,,37,53
712619,note_off,60,0,2,,,,,,,,,1,,,77,0
712620,note_on,1,0,2,,,,,,,,,1,,,77,64
712642,note_off,24,0,5,,,,,,,,,4,,,35,0
712658,note_on,16,0,5,,,,,,,,,4,,,35,53
712680,note_on,60,0,2,,,,,,,,,1,,,80,64
712682,note_off,24,0,5,,,,,,,,,4,,,37,0
712698,note_on,16,0,5,,,,,,,,,4,,,37,53
712722,note_off,24,0,5,,,,,,,,,4,,,35,0
712738,note_off,58,0,2,,,,,,,,,1,,,77,0
712738,note_on,16,0,5,,,,,,,,,4,,,35,53
712740,note_on,2,0,2,,,,,,,,,1,,,83,64
712762,note_off,24,0,5,,,,,,,,,4,,,37,0
712778,note_on,16,0,5,,,,,,,,,4,,,37,53
712798,note_off,58,0,2,,,,,,,,,1,,,80,0
712800,note_off,240,0,1,,,,,,,,,0,,,74,0
712800,note_on,0,0,1,,,,,,,,,0,,,80,73
712802,note_off,24,0,5,,,,,,,,,4,,,35,0
712818,note_on,16,0,5,,,,,,,,,4,,,35,53
712842,note_off,24,0,5,,,,,,,,,4,,,37,0
712857,note_off,59,0,2,,,,,,,,,1,,,83,0
712858,note_on,16,0,5,,,,,,,,,4,,,37,53
712860,note_on,3,0,2,,,,,,,,,1,,,77,64
712882,note_off,24,0,5,,,,,,,,,4,,,35,0
712898,note_on,16,0,5,,,,,,,,,4,,,35,53
712920,note_on,60,0,2,,,,,,,,,1,,,74,64
712922,note_off,24,0,5,,,,,,,,,4,,,37,0
712938,note_on,16,0,5,,,,,,,,,4,,,37,53
712962,note_off,24,0,5,,,,,,,,,4,,,35,0
712977,note_off,57,0,2,,,,,,,,,1,,,77,0
712978,note_on,16,0,5,,,,,,,,,4,,,35,53
712980,note_on,3,0,2,,,,,,,,,1,,,71,64
713002,note_off,24,0,5,,,,,,,,,4,,,37,0
713018,note_on,16,0,5,,,,,,,,,4,,,37,53
713036,note_off,56,0,2,,,,,,,,,1,,,74,0
713040,note_on,240,0,1,,,,,,,,,0,,,68,72
713042,note_off,24,0,5,,,,,,,,,4,,,35,0
713047,note_off,7,0,1,,,,,,,,,0,,,80,0
713058,note_on,16,0,5,,,,,,,,,4,,,35,53
713082,note_off,24,0,5,,,,,,,,,4,,,37,0
713096,note_off,60,0,2,,,,,,,,,1,,,71,0
713098,note_on,16,0,5,,,,,,,,,4,,,37,53
713100,note_on,4,0,2,,,,,,,,,1,,,71,64
713122,note_off,24,0,5,,,,,,,,,4,,,35,0
713138,note_on,16,0,5,,,,,,,,,4,,,35,53
713160,note_on,60,0,2,,,,,,,,,1,,,74,64
713162,note_off,24,0,5,,,,,,,,,4,,,37,0
713178,note_on,16,0,5,,,,,,,,,4,,,37,53
713202,note_off,24,0,5,,,,,,,,,4,,,35,0
713216,note_off,56,0,2,,,,,,,,,1,,,71,0
713218,note_on,16,0,5,,,,,,,,,4,,,35,53
713220,note_on,4,0,2,,,,,,,,,1,,,77,64
713242,note_off,24,0,5,,,,,,,,,4,,,37,0
713258,note_on,16,0,5,,,,,,,,,4,,,37,53
713275,note_off,55,0,2,,,,,,,,,1,,,74,0
713280,note_off,233,0,1,,,,,,,,,0,,,68,0
713280,note_on,0,0,1,,,,,,,,,0,,,74,72
713282,note_off,24,0,5,,,,,,,,,4,,,35,0
713298,note_on,16,0,5,,,,,,,,,4,,,35,53
713322,note_off,24,0,5,,,,,,,,,4,,,37,0
713335,note_off,60,0,2,,,,,,,,,1,,,77,0
713338,note_on,16,0,5,,,,,,,,,4,,,37,53
713340,note_on,5,0,2,,,,,,,,,1,,,71,63
713362,note_off,24,0,5,,,,,,,,,4,,,35,0
713378,note_on,16,0,5,,,,,,,,,4,,,35,53
713400,note_on,60,0,2,,,,,,,,,1,,,68,63
713402,note_off,24,0,5,,,,,,,,,4,,,37,0
713418,note_on,16,0,5,,,,,,,,,4,,,37,53
713442,note_off,24,0,5,,,,,,,,,4,,,35,0
713454,note_off,54,0,2,,,,,,,,,1,,,71,0
713458,note_on,16,0,5,,,,,,,,,4,,,35,53
713460,note_on,6,0,2,,,,,,,,,1,,,65,63
713482,note_off,24,0,5,,,,,,,,,4,,,37,0
713498,note_on,16,0,5,,,,,,,,,4,,,37,53
713514,note_off,54,0,2,,,,,,,,,1,,,68,0
713520,note_on,240,0,1,,,,,,,,,0,,,73,72
713522,note_off,24,0,5,,,,,,,,,4,,,35,0
713527,note_off,7,0,1,,,,,,,,,0,,,74,0
713538,note_on,16,0,5,,,,,,,,,4,,,35,53
713562,note_off,24,0,5,,,,,,,,,4,,,37,0
713574,note_off,60,0,2,,,,,,,,,1,,,65,0
713578,note_on,16,0,5,,,,,,,,,4,,,37,53
713580,note_on,6,0,2,,,,,,,,,1,,,71,63
713602,note_off,24,0,5,,,,,,,,,4,,,35,0
713618,note_on,16,0,5,,,,,,,,,4,,,35,53
713640,note_on,60,0,2,,,,,,,,,1,,,68,63
713642,note_off,24,0,5,,,,,,,,,4,,,37,0
713658,note_on,16,0,5,,,,,,,,,4,,,37,53
713682,note_off,24,0,5,,,,,,,,,4,,,35,0
713693,note_off,53,0,2,,,,,,,,,1,,,71,0
713698,note_on,16,0,5,,,,,,,,,4,,,35,53
713700,set_tempo,1380,1,0,,,,,,1111111,,,,,,,
713700,note_on,7,0,2,,,,,,,,,1,,,65,63
713722,note_off,24,0,5,,,,,,,,,4,,,37,0
713738,note_on,16,0,5,,,,,,,,,4,,,37,53
713753,note_off,53,0,2,,,,,,,,,1,,,68,0
713760,set_tempo,60,1,0,,,,,,1071428,,,,,,,
713760,note_on,0,0,1,,,,,,,,,0,,,85,71
713760,note_off,233,0,1,,,,,,,,,0,,,73,0
713813,note_off,60,0,2,,,,,,,,,1,,,65,0
713820,note_on,7,0,2,,,,,,,,,1,,,81,63
713824,note_off,86,0,5,,,,,,,,,4,,,35,0
713840,note_on,16,0,5,,,,,,,,,4,,,35,53
713870,note_off,30,0,5,,,,,,,,,4,,,37,0
713880,note_on,10,0,5,,,,,,,,,4,,,37,53
713880,note_on,60,0,2,,,,,,,,,1,,,78,63
713910,note_off,30,0,5,,,,,,,,,4,,,35,0
713920,note_on,10,0,5,,,,,,,,,4,,,35,53
713932,note_off,52,0,2,,,,,,,,,1,,,81,0
713940,note_on,8,0,2,,,,,,,,,1,,,73,63
713950,note_off,30,0,5,,,,,,,,,4,,,37,0
713960,note_on,10,0,5,,,,,,,,,4,,,37,53
713990,note_off,30,0,5,,,,,,,,,4,,,35,0
713992,note_off,52,0,2,,,,,,,,,1,,,78,0
714000,note_off,240,0,1,,,,,,,,,0,,,85,0
714000,note_on,10,0,5,,,,,,,,,4,,,35,53
714000,note_on,0,0,1,,,,,,,,,0,,,72,71
714030,note_off,30,0,5,,,,,,,,,4,,,37,0
714040,note_on,10,0,5,,,,,,,,,4,,,37,53
714051,note_off,59,0,2,,,,,,,,,1,,,73,0
714060,note_on,9,0,2,,,,,,,,,1,,,73,63
714070,note_off,30,0,5,,,,,,,,,4,,,35,0
714080,note_on,10,0,5,,,,,,,,,4,,,35,53
714110,note_off,30,0,5,,,,,,,,,4,,,37,0
714120,note_on,10,0,5,,,,,,,,,4,,,37,53
714120,note_on,60,0,2,,,,,,,,,1,,,78,63
714150,note_off,30,0,5,,,,,,,,,4,,,35,0
714160,note_on,10,0,5,,,,,,,,,4,,,35,53
714171,note_off,51,0,2,,,,,,,,,1,,,73,0
714180,note_on,9,0,2,,,,,,,,,1,,,81,62
714190,note_off,30,0,5,,,,,,,,,4,,,37,0
714200,note_on,10,0,5,,,,,,,,,4,,,37,53
714230,note_off,30,0,5,,,,,,,,,4,,,35,0
714231,note_off,51,0,2,,,,,,,,,1,,,78,0
714240,note_off,240,0,1,,,,,,,,,0,,,72,0
714240,note_on,0,0,1,,,,,,,,,0,,,78,71
714240,note_on,10,0,5,,,,,,,,,4,,,35,53
714270,note_off,30,0,5,,,,,,,,,4,,,37,0
714280,note_on,10,0,5,,,,,,,,,4,,,37,53
714290,note_off,59,0,2,,,,,,,,,1,,,81,0
714300,note_on,10,0,2,,,,,,,,,1,,,73,62
714310,note_off,30,0,5,,,,,,,,,4,,,35,0
714320,note_on,10,0,5,,,,,,,,,4,,,35,53
714350,note_off,30,0,5,,,,,,,,,4,,,37,0
714360,note_on,60,0,2,,,,,,,,,1,,,69,62
714360,note_on,10,0,5,,,,,,,,,4,,,37,53
714390,note_off,30,0,5,,,,,,,,,4,,,35,0
714400,note_on,10,0,5,,,,,,,,,4,,,35,53
714410,note_off,50,0,2,,,,,,,,,1,,,73,0
714420,note_on,10,0,2,,,,,,,,,1,,,66,62
714430,note_off,30,0,5,,,,,,,,,4,,,37,0
714440,note_on,10,0,5,,,,,,,,,4,,,37,53
714469,note_off,49,0,2,,,,,,,,,1,,,69,0
714470,note_off,30,0,5,,,,,,,,,4,,,35,0
714480,note_on,240,0,1,,,,,,,,,0,,,65,70
714480,note_on,10,0,5,,,,,,,,,4,,,35,53
714487,note_off,7,0,1,,,,,,,,,0,,,78,0
714510,note_off,30,0,5,,,,,,,,,4,,,37,0
714520,note_on,10,0,5,,,,,,,,,4,,,37,53
714529,note_off,60,0,2,,,,,,,,,1,,,66,0
714540,note_on,11,0,2,,,,,,,,,1,,,66,62
714550,note_off,30,0,5,,,,,,,,,4,,,35,0
714560,note_on,10,0,5,,,,,,,,,4,,,35,53
714590,note_off,30,0,5,,,,,,,,,4,,,37,0
714600,note_on,60,0,2,,,,,,,,,1,,,69,62
714600,note_on,10,0,5,,,,,,,,,4,,,37,53
714630,note_off,30,0,5,,,,,,,,,4,,,35,0
714640,note_on,10,0,5,,,,,,,,,4,,,35,53
714649,note_off,49,0,2,,,,,,,,,1,,,66,0
714660,note_on,11,0,2,,,,,,,,,1,,,73,62
714670,note_off,30,0,5,,,,,,,,,4,,,37,0
714680,note_on,10,0,5,,,,,,,,,4,,,37,53
714708,note_off,48,0,2,,,,,,,,,1,,,69,0
714710,note_off,30,0,5,,,,,,,,,4,,,35,0
714720,note_on,10,0,5,,,,,,,,,4,,,35,52
714720,note_on,0,0,1,,,,,,,,,0,,,72,70
714720,note_off,233,0,1,,,,,,,,,0,,,65,0
714750,note_off,30,0,5,,,,,,,,,4,,,37,0
714760,note_on,10,0,5,,,,,,,,,4,,,37,52
714768,note_off,60,0,2,,,,,,,,,1,,,73,0
714780,note_on,12,0,2,,,,,,,,,1,,,69,62
714790,note_off,30,0,5,,,,,,,,,4,,,35,0
714800,note_on,10,0,5,,,,,,,,,4,,,35,52
714830,note_off,30,0,5,,,,,,,,,4,,,37,0
714840,note_on,10,0,5,,,,,,,,,4,,,37,52
714840,note_on,60,0,2,,,,,,,,,1,,,66,62
714870,note_off,30,0,5,,,,,,,,,4,,,35,0
714880,note_on,10,0,5,,,,,,,,,4,,,35,52
714887,note_off,47,0,2,,,,,,,,,1,,,69,0
714900,note_on,13,0,2,,,,,,,,,1,,,64,62
714910,note_off,30,0,5,,,,,,,,,4,,,37,0
714920,note_on,10,0,5,,,,,,,,,4,,,37,52
714947,note_off,47,0,2,,,,,,,,,1,,,66,0
714950,note_off,30,0,5,,,,,,,,,4,,,35,0
714960,note_on,10,0,5,,,,,,,,,4,,,35,52
714960,note_on,240,0,1,,,,,,,,,0,,,71,70
714975,note_off,15,0,1,,,,,,,,,0,,,72,0
714990,note_off,30,0,5,,,,,,,,,4,,,37,0
715000,note_on,10,0,5,,,,,,,,,4,,,37,52
715007,note_off,60,0,2,,,,,,,,,1,,,64,0
715020,note_on,13,0,2,,,,,,,,,1,,,69,61
715030,note_off,30,0,5,,,,,,,,,4,,,35,0
715040,note_on,10,0,5,,,,,,,,,4,,,35,52
715070,note_off,30,0,5,,,,,,,,,4,,,37,0
715080,note_on,60,0,2,,,,,,,,,1,,,66,61
715080,note_on,10,0,5,,,,,,,,,4,,,37,52
715110,note_off,30,0,5,,,,,,,,,4,,,35,0
715120,note_on,10,0,5,,,,,,,,,4,,,35,52
715126,note_off,46,0,2,,,,,,,,,1,,,69,0
715140,note_on,14,0,2,,,,,,,,,1,,,63,61
715140,set_tempo,1380,1,0,,,,,,1111111,,,,,,,
715150,note_off,30,0,5,,,,,,,,,4,,,37,0
715160,note_on,10,0,5,,,,,,,,,4,,,37,52
715186,note_off,46,0,2,,,,,,,,,1,,,66,0
715190,note_off,30,0,5,,,,,,,,,4,,,35,0
715200,note_on,10,0,5,,,,,,,,,4,,,35,52
715200,note_off,225,0,1,,,,,,,,,0,,,71,0
715200,note_on,0,0,1,,,,,,,,,0,,,80,70
715200,set_tempo,60,1,0,,,,,,1071428,,,,,,,
715230,note_off,30,0,5,,,,,,,,,4,,,37,0
715240,note_on,10,0,5,,,,,,,,,4,,,37,52
715246,note_off,60,0,2,,,,,,,,,1,,,63,0
715260,note_on,14,0,2,,,,,,,,,1,,,76,61
715270,note_off,30,0,5,,,,,,,,,4,,,35,0
715280,note_on,10,0,5,,,,,,,,,4,,,35,52
715310,note_off,30,0,5,,,,,,,,,4,,,37,0
715320,note_on,10,0,5,,,,,,,,,4,,,37,52
715320,note_on,60,0,2,,,,,,,,,1,,,71,61
715350,note_off,30,0,5,,,,,,,,,4,,,35,0
715360,note_on,10,0,5,,,,,,,,,4,,,35,52
715365,note_off,45,0,2,,,,,,,,,1,,,76,0
715380,note_on,15,0,2,,,,,,,,,1,,,68,61
715390,note_off,30,0,5,,,,,,,,,4,,,37,0
715400,note_on,10,0,5,,,,,,,,,4,,,37,52
715425,note_off,45,0,2,,,,,,,,,1,,,71,0
715430,note_off,30,0,5,,,,,,,,,4,,,35,0
715440,note_on,10,0,5,,,,,,,,,4,,,35,52
715440,note_off,240,0,1,,,,,,,,,0,,,80,0
715440,note_on,0,0,1,,,,,,,,,0,,,67,69
715470,note_off,30,0,5,,,,,,,,,4,,,37,0
715480,note_on,10,0,5,,,,,,,,,4,,,37,52
715484,note_off,59,0,2,,,,,,,,,1,,,68,0
715500,note_on,16,0,2,,,,,,,,,1,,,68,61
715510,note_off,30,0,5,,,,,,,,,4,,,35,0
715520,note_on,10,0,5,,,,,,,,,4,,,35,52
715550,note_off,30,0,5,,,,,,,,,4,,,37,0
715560,note_on,60,0,2,,,,,,,,,1,,,71,61
715560,note_on,10,0,5,,,,,,,,,4,,,37,52
715590,note_off,30,0,5,,,,,,,,,4,,,35,0
715600,note_on,10,0,5,,,,,,,,,4,,,35,52
715604,note_off,44,0,2,,,,,,,,,1,,,68,0
715620,note_on,16,0,2,,,,,,,,,1,,,76,61
715630,note_off,30,0,5,,,,,,,,,4,,,37,0
715640,note_on,10,0,5,,,,,,,,,4,,,37,52
715664,note_off,44,0,2,,,,,,,,,1,,,71,0
715670,note_off,30,0,5,,,,,,,,,4,,,35,0
715680,note_on,10,0,5,,,,,,,,,4,,,35,52
715680,note_off,240,0,1,,,,,,,,,0,,,67,0
715680,note_on,0,0,1,,,,,,,,,0,,,71,69
715710,note_off,30,0,5,,,,,,,,,4,,,37,0
715720,note_on,10,0,5,,,,,,,,,4,,,37,52
715723,note_off,59,0,2,,,,,,,,,1,,,76,0
715740,note_on,17,0,2,,,,,,,,,1,,,68,61
715750,note_off,30,0,5,,,,,,,,,4,,,35,0
715760,note_on,10,0,5,,,,,,,,,4,,,35,52
715790,note_off,30,0,5,,,,,,,,,4,,,37,0
715800,note_on,60,0,2,,,,,,,,,1,,,64,61
715800,note_on,10,0,5,,,,,,,,,4,,,37,52
715830,note_off,30,0,5,,,,,,,,,4,,,35,0
715840,note_on,10,0,5,,,,,,,,,4,,,35,52
715843,note_off,43,0,2,,,,,,,,,1,,,68,0
715860,note_on,17,0,2,,,,,,,,,1,,,59,60
715870,note_off,30,0,5,,,,,,,,,4,,,37,0
715880,note_on,10,0,5,,,,,,,,,4,,,37,52
715902,note_off,42,0,2,,,,,,,,,1,,,64,0
715910,note_off,30,0,5,,,,,,,,,4,,,35,0
715920,note_on,0,0,1,,,,,,,,,0,,,58,69
715920,note_off,240,0,1,,,,,,,,,0,,,71,0
715920,note_on,10,0,5,,,,,,,,,4,,,35,52
715950,note_off,30,0,5,,,,,,,,,4,,,37,0
715960,note_on,10,0,5,,,,,,,,,4,,,37,52
715962,note_off,60,0,2,,,,,,,,,1,,,59,0
715980,note_on,18,0,2,,,,,,,,,1,,,59,60
715990,note_off,30,0,5,,,,,,,,,4,,,35,0
716000,note_on,10,0,5,,,,,,,,,4,,,35,52
716030,note_off,30,0,5,,,,,,,,,4,,,37,0
716040,note_on,60,0,2,,,,,,,,,1,,,64,60
716040,note_on,10,0,5,,,,,,,,,4,,,37,52
716070,note_off,30,0,5,,,,,,,,,4,,,35,0
716080,note_on,10,0,5,,,,,,,,,4,,,35,52
716081,note_off,41,0,2,,,,,,,,,1,,,59,0
716100,note_on,19,0,2,,,,,,,,,1,,,68,60
716110,note_off,30,0,5,,,,,,,,,4,,,37,0
716120,note_on,10,0,5,,,,,,,,,4,,,37,52
716141,note_off,41,0,2,,,,,,,,,1,,,64,0
716150,note_off,30,0,5,,,,,,,,,4,,,35,0
716160,note_off,240,0,1,,,,,,,,,0,,,58,0
716160,note_on,0,0,1,,,,,,,,,0,,,60,68
716160,note_on,10,0,5,,,,,,,,,4,,,35,52
716190,note_off,30,0,5,,,,,,,,,4,,,37,0
716200,note_on,10,0,5,,,,,,,,,4,,,37,52
716201,note_off,60,0,2,,,,,,,,,1,,,68,0
716220,note_on,19,0,2,,,,,,,,,1,,,61,60
716230,note_off,30,0,5,,,,,,,,,4,,,35,0
716240,note_on,10,0,5,,,,,,,,,4,,,35,52
716270,note_off,30,0,5,,,,,,,,,4,,,37,0
716280,note_on,60,0,2,,,,,,,,,1,,,64,60
716280,note_on,10,0,5,,,,,,,,,4,,,37,52
716310,note_off,30,0,5,,,,,,,,,4,,,35,0
716320,note_off,40,0,2,,,,,,,,,1,,,61,0
716320,note_on,10,0,5,,,,,,,,,4,,,35,52
716340,note_on,20,0,2,,,,,,,,,1,,,69,60
716350,note_off,30,0,5,,,,,,,,,4,,,37,0
716360,note_on,10,0,5,,,,,,,,,4,,,37,52
716380,note_off,40,0,2,,,,,,,,,1,,,64,0
716390,note_off,30,0,5,,,,,,,,,4,,,35,0
716400,note_on,10,0,5,,,,,,,,,4,,,35,52
716400,note_on,0,0,1,,,,,,,,,0,,,68,68
716400,note_off,240,0,1,,,,,,,,,0,,,60,0
716430,note_off,30,0,5,,,,,,,,,4,,,37,0
716440,note_on,10,0,5,,,,,,,,,4,,,37,52
716440,note_off,60,0,2,,,,,,,,,1,,,69,0
716460,note_on,20,0,2,,,,,,,,,1,,,69,60
716470,note_off,30,0,5,,,,,,,,,4,,,35,0
716480,note_on,10,0,5,,,,,,,,,4,,,35,52
716510,note_off,30,0,5,,,,,,,,,4,,,37,0
716520,note_on,60,0,2,,,,,,,,,1,,,73,60
716520,note_on,10,0,5,,,,,,,,,4,,,37,52
716550,note_off,30,0,5,,,,,,,,,4,,,35,0
716559,note_off,39,0,2,,,,,,,,,1,,,69,0
716560,note_on,10,0,5,,,,,,,,,4,,,35,52
716580,set_tempo,1380,1,0,,,,,,1111111,,,,,,,
716580,note_on,21,0,2,,,,,,,,,1,,,76,60
716590,note_off,30,0,5,,,,,,,,,4,,,37,0
716600,note_on,10,0,5,,,,,,,,,4,,,37,52
716619,note_off,39,0,2,,,,,,,,,1,,,73,0
716630,note_off,30,0,5,,,,,,,,,4,,,35,0
716640,set_tempo,60,1,0,,,,,,1071428,,,,,,,
716640,note_on,0,0,1,,,,,,,,,0,,,68,68
716640,note_off,240,0,1,,,,,,,,,0,,,68,0
716640,note_on,10,0,5,,,,,,,,,4,,,35,52
716670,note_off,30,0,5,,,,,,,,,4,,,37,0
716679,note_off,60,0,2,,,,,,,,,1,,,76,0
716680,note_on,10,0,5,,,,,,,,,4,,,37,52
716700,note_on,21,0,2,,,,,,,,,1,,,69,60
716710,note_off,30,0,5,,,,,,,,,4,,,35,0
716720,note_on,10,0,5,,,,,,,,,4,,,35,52
716750,note_off,30,0,5,,,,,,,,,4,,,37,0
716760,note_on,60,0,2,,,,,,,,,1,,,73,59
716760,note_on,10,0,5,,,,,,,,,4,,,37,52
716790,note_off,30,0,5,,,,,,,,,4,,,35,0
716798,note_off,38,0,2,,,,,,,,,1,,,69,0
716800,note_on,10,0,5,,,,,,,,,4,,,35,52
716820,note_on,22,0,2,,,,,,,,,1,,,76,59
716830,note_off,30,0,5,,,,,,,,,4,,,37,0
716840,note_on,10,0,5,,,,,,,,,4,,,37,52
716858,note_off,38,0,2,,,,,,,,,1,,,73,0
716870,note_off,30,0,5,,,,,,,,,4,,,35,0
716880,note_on,10,0,5,,,,,,,,,4,,,35,52
716880,note_on,0,0,1,,,,,,,,,0,,,67,67
716880,note_off,240,0,1,,,,,,,,,0,,,68,0
716910,note_off,30,0,5,,,,,,,,,4,,,37,0
716917,note_off,59,0,2,,,,,,,,,1,,,76,0
716920,note_on,10,0,5,,,,,,,,,4,,,37,52
716940,note_on,23,0,2,,,,,,,,,1,,,68,59
716950,note_off,30,0,5,,,,,,,,,4,,,35,0
716960,note_on,10,0,5,,,,,,,,,4,,,35,52
716990,note_off,30,0,5,,,,,,,,,4,,,37,0
717000,note_on,60,0,2,,,,,,,,,1,,,71,59
717000,note_on,10,0,5,,,,,,,,,4,,,37,52
717030,note_off,30,0,5,,,,,,,,,4,,,35,0
717037,note_off,37,0,2,,,,,,,,,1,,,68,0
717040,note_on,10,0,5,,,,,,,,,4,,,35,52
717060,note_on,23,0,2,,,,,,,,,1,,,76,59
717070,note_off,30,0,5,,,,,,,,,4,,,37,0
717080,note_on,10,0,5,,,,,,,,,4,,,37,52
717096,note_off,36,0,2,,,,,,,,,1,,,71,0
717110,note_off,30,0,5,,,,,,,,,4,,,35,0
717120,note_on,10,0,5,,,,,,,,,4,,,35,52
717120,note_off,240,0,1,,,,,,,,,0,,,67,0
717120,note_on,0,0,1,,,,,,,,,0,,,67,67
717150,note_off,30,0,5,,,,,,,,,4,,,37,0
717156,note_off,60,0,2,,,,,,,,,1,,,76,0
717160,note_on,10,0,5,,,,,,,,,4,,,37,52
717180,note_on,24,0,2,,,,,,,,,1,,,68,59
717190,note_off,30,0,5,,,,,,,,,4,,,35,0
717200,note_on,10,0,5,,,,,,,,,4,,,35,52
717230,note_off,30,0,5,,,,,,,,,4,,,37,0
717240,note_on,60,0,2,,,,,,,,,1,,,71,59
717240,note_on,10,0,5,,,,,,,,,4,,,37,52
717270,note_off,30,0,5,,,,,,,,,4,,,35,0
717276,note_off,36,0,2,,,,,,,,,1,,,68,0
717280,note_on,10,0,5,,,,,,,,,4,,,35,52
717300,note_on,24,0,2,,,,,,,,,1,,,76,59
717310,note_off,30,0,5,,,,,,,,,4,,,37,0
717320,note_on,10,0,5,,,,,,,,,4,,,37,52
717335,note_off,35,0,2,,,,,,,,,1,,,71,0
717350,note_off,30,0,5,,,,,,,,,4,,,35,0
717360,note_on,10,0,5,,,,,,,,,4,,,35,52
717360,note_off,240,0,1,,,,,,,,,0,,,67,0
717360,note_on,0,0,1,,,,,,,,,0,,,66,67
717390,note_off,30,0,5,,,,,,,,,4,,,37,0
717395,note_off,60,0,2,,,,,,,,,1,,,76,0
717400,note_on,10,0,5,,,,,,,,,4,,,37,52
717420,note_on,25,0,2,,,,,,,,,1,,,67,59
717430,note_off,30,0,5,,,,,,,,,4,,,35,0
717440,note_on,10,0,5,,,,,,,,,4,,,35,52
717470,note_off,30,0,5,,,,,,,,,4,,,37,0
717480,note_on,10,0,5,,,,,,,,,4,,,37,52
717480,note_on,60,0,2,,,,,,,,,1,,,70,59
717510,note_off,30,0,5,,,,,,,,,4,,,35,0
717514,note_off,34,0,2,,,,,,,,,1,,,67,0
717520,note_on,10,0,5,,,,,,,,,4,,,35,52
717540,note_on,26,0,2,,,,,,,,,1,,,76,59
717550,note_off,30,0,5,,,,,,,,,4,,,37,0
717560,note_on,10,0,5,,,,,,,,,4,,,37,52
717574,note_off,34,0,2,,,,,,,,,1,,,70,0
717590,note_off,30,0,5,,,,,,,,,4,,,35,0
717600,note_on,0,0,1,,,,,,,,,0,,,66,66
717600,note_off,240,0,1,,,,,,,,,0,,,66,0
717600,note_on,10,0,5,,,,,,,,,4,,,35,52
717630,note_off,30,0,5,,,,,,,,,4,,,37,0
717634,note_off,60,0,2,,,,,,,,,1,,,76,0
717640,note_on,10,0,5,,,,,,,,,4,,,37,51
717660,note_on,26,0,2,,,,,,,,,1,,,67,58
717670,note_off,30,0,5,,,,,,,,,4,,,35,0
717680,note_on,10,0,5,,,,,,,,,4,,,35,51
717710,note_off,30,0,5,,,,,,,,,4,,,37,0
717720,note_on,10,0,5,,,,,,,,,4,,,37,51
717720,note_on,60,0,2,,,,,,,,,1,,,70,58
717750,note_off,30,0,5,,,,,,,,,4,,,35,0
717753,note_off,33,0,2,,,,,,,,,1,,,67,0
717760,note_on,10,0,5,,,,,,,,,4,,,35,51
717780,note_on,27,0,2,,,,,,,,,1,,,76,58
717790,note_off,30,0,5,,,,,,,,,4,,,37,0
717800,note_on,10,0,5,,,,,,,,,4,,,37,51
717813,note_off,33,0,2,,,,,,,,,1,,,70,0
717830,note_off,30,0,5,,,,,,,,,4,,,35,0
717840,note_on,0,0,1,,,,,,,,,0,,,66,66
717840,note_off,240,0,1,,,,,,,,,0,,,66,0
717840,note_on,10,0,5,,,,,,,,,4,,,35,51
717870,note_off,30,0,5,,,,,,,,,4,,,37,0
717873,note_off,60,0,2,,,,,,,,,1,,,76,0
717880,note_on,10,0,5,,,,,,,,,4,,,37,51
717900,note_on,27,0,2,,,,,,,,,1,,,67,58
717910,note_off,30,0,5,,,,,,,,,4,,,35,0
717920,note_on,10,0,5,,,,,,,,,4,,,35,51
717950,note_off,30,0,5,,,,,,,,,4,,,37,0
717960,note_on,60,0,2,,,,,,,,,1,,,71,58
717960,note_on,10,0,5,,,,,,,,,4,,,37,51
717990,note_off,30,0,5,,,,,,,,,4,,,35,0
717992,note_off,32,0,2,,,,,,,,,1,,,67,0
718000,note_on,10,0,5,,,,,,,,,4,,,35,51
718020,note_on,28,0,2,,,,,,,,,1,,,76,58
718020,set_tempo,1380,1,0,,,,,,1111111,,,,,,,
718030,note_off,30,0,5,,,,,,,,,4,,,37,0
718040,note_on,10,0,5,,,,,,,,,4,,,37,51
718052,note_off,32,0,2,,,,,,,,,1,,,71,0
718070,note_off,30,0,5,,,,,,,,,4,,,35,0
718080,note_on,0,0,1,,,,,,,,,0,,,57,66
718080,note_off,240,0,1,,,,,,,,,0,,,66,0
718080,set_tempo,60,1,0,,,,,,1071428,,,,,,,
718080,note_on,10,0,5,,,,,,,,,4,,,35,51
718110,note_off,30,0,5,,,,,,,,,4,,,37,0
718111,note_off,59,0,2,,,,,,,,,1,,,76,0
718120,note_on,10,0,5,,,,,,,,,4,,,37,51
718140,note_on,29,0,2,,,,,,,,,1,,,66,58
718150,note_off,30,0,5,,,,,,,,,4,,,35,0
718160,note_on,10,0,5,,,,,,,,,4,,,35,51
718190,note_off,30,0,5,,,,,,,,,4,,,37,0
718200,note_on,60,0,2,,,,,,,,,1,,,63,58
718200,note_on,10,0,5,,,,,,,,,4,,,37,51
718230,note_off,30,0,5,,,,,,,,,4,,,35,0
718231,note_off,31,0,2,,,,,,,,,1,,,66,0
718240,note_on,10,0,5,,,,,,,,,4,,,35,51
718260,note_on,29,0,2,,,,,,,,,1,,,69,58
718270,note_off,30,0,5,,,,,,,,,4,,,37,0
718280,note_on,10,0,5,,,,,,,,,4,,,37,51
718310,note_off,30,0,5,,,,,,,,,4,,,35,0
718319,note_off,59,0,2,,,,,,,,,1,,,63,0
718320,note_on,10,0,5,,,,,,,,,4,,,35,51
718320,note_on,0,0,1,,,,,,,,,0,,,63,65
718320,note_off,240,0,1,,,,,,,,,0,,,57,0
718350,note_off,30,0,5,,,,,,,,,4,,,37,0
718360,note_on,10,0,5,,,,,,,,,4,,,37,51
718379,note_off,60,0,2,,,,,,,,,1,,,69,0
718380,note_on,1,0,2,,,,,,,,,1,,,69,58
718390,note_off,30,0,5,,,,,,,,,4,,,35,0
718400,note_on,10,0,5,,,,,,,,,4,,,35,51
718430,note_off,30,0,5,,,,,,,,,4,,,37,0
718440,note_on,60,0,2,,,,,,,,,1,,,66,57
718440,note_on,10,0,5,,,,,,,,,4,,,37,51
718470,note_off,30,0,5,,,,,,,,,4,,,35,0
718480,note_on,10,0,5,,,,,,,,,4,,,35,51
718498,note_off,58,0,2,,,,,,,,,1,,,69,0
718500,note_on,2,0,2,,,,,,,,,1,,,75,57
718510,note_off,30,0,5,,,,,,,,,4,,,37,0
718520,note_on,10,0,5,,,,,,,,,4,,,37,51
718550,note_off,30,0,5,,,,,,,,,4,,,35,0
718558,note_off,58,0,2,,,,,,,,,1,,,66,0
718560,note_on,10,0,5,,,,,,,,,4,,,35,51
718560,note_off,240,0,1,,,,,,,,,0,,,63,0
718560,note_on,0,0,1,,,,,,,,,0,,,66,65
718590,note_off,30,0,5,,,,,,,,,4,,,37,0
718600,note_on,10,0,5,,,,,,,,,4,,,37,51
718618,note_off,60,0,2,,,,,,,,,1,,,75,0
718620,note_on,2,0,2,,,,,,,,,1,,,75,57
718630,note_off,30,0,5,,,,,,,,,4,,,35,0
718640,note_on,10,0,5,,,,,,,,,4,,,35,51
718670,note_off,30,0,5,,,,,,,,,4,,,37,0
718680,note_on,60,0,2,,,,,,,,,1,,,69,57
718680,note_on,10,0,5,,,,,,,,,4,,,37,51
718710,note_off,30,0,5,,,,,,,,,4,,,35,0
718720,note_on,10,0,5,,,,,,,,,4,,,35,51
718737,note_off,57,0,2,,,,,,,,,1,,,75,0
718740,note_on,3,0,2,,,,,,,,,1,,,78,57
718750,note_off,30,0,5,,,,,,,,,4,,,37,0
718760,note_on,10,0,5,,,,,,,,,4,,,37,51
718790,note_off,30,0,5,,,,,,,,,4,,,35,0
718797,note_off,57,0,2,,,,,,,,,1,,,69,0
718800,note_off,240,0,1,,,,,,,,,0,,,66,0
718800,note_on,0,0,1,,,,,,,,,0,,,69,65
718800,note_on,10,0,5,,,,,,,,,4,,,35,51
718830,note_off,30,0,5,,,,,,,,,4,,,37,0
718840,note_on,10,0,5,,,,,,,,,4,,,37,51
718857,note_off,60,0,2,,,,,,,,,1,,,78,0
718860,note_on,3,0,2,,,,,,,,,1,,,78,57
718870,note_off,30,0,5,,,,,,,,,4,,,35,0
718880,note_on,10,0,5,,,,,,,,,4,,,35,51
718910,note_off,30,0,5,,,,,,,,,4,,,37,0
718920,note_on,60,0,2,,,,,,,,,1,,,75,57
718920,note_on,10,0,5,,,,,,,,,4,,,37,51
718950,note_off,30,0,5,,,,,,,,,4,,,35,0
718960,note_on,10,0,5,,,,,,,,,4,,,35,51
718976,note_off,56,0,2,,,,,,,,,1,,,78,0
718980,note_on,4,0,2,,,,,,,,,1,,,81,57
718990,note_off,30,0,5,,,,,,,,,4,,,37,0
719000,note_on,10,0,5,,,,,,,,,4,,,37,51
719030,note_off,30,0,5,,,,,,,,,4,,,35,0
719036,note_off,56,0,2,,,,,,,,,1,,,75,0
719040,note_off,240,0,1,,,,,,,,,0,,,69,0
719040,note_on,0,0,1,,,,,,,,,0,,,75,64
719040,note_on,10,0,5,,,,,,,,,4,,,35,51
719070,note_off,30,0,5,,,,,,,,,4,,,37,0
719080,note_on,10,0,5,,,,,,,,,4,,,37,51
719095,note_off,59,0,2,,,,,,,,,1,,,81,0
719100,note_on,5,0,2,,,,,,,,,1,,,81,57
719110,note_off,30,0,5,,,,,,,,,4,,,35,0
719120,note_on,10,0,5,,,,,,,,,4,,,35,51
719150,note_off,30,0,5,,,,,,,,,4,,,37,0
719160,note_on,60,0,2,,,,,,,,,1,,,78,57
719160,note_on,10,0,5,,,,,,,,,4,,,37,51
719190,note_off,30,0,5,,,,,,,,,4,,,35,0
719200,note_on,10,0,5,,,,,,,,,4,,,35,51
719215,note_off,55,0,2,,,,,,,,,1,,,81,0
719220,note_on,5,0,2,,,,,,,,,1,,,87,57
719230,note_off,30,0,5,,,,,,,,,4,,,37,0
719240,note_on,10,0,5,,,,,,,,,4,,,37,51
719270,note_off,30,0,5,,,,,,,,,4,,,35,0
719274,note_off,54,0,2,,,,,,,,,1,,,78,0
719280,note_on,0,0,1,,,,,,,,,0,,,78,64
719280,note_on,10,0,5,,,,,,,,,4,,,35,51
719280,note_off,240,0,1,,,,,,,,,0,,,75,0
719310,note_off,30,0,5,,,,,,,,,4,,,37,0
719320,note_on,10,0,5,,,,,,,,,4,,,37,51
719334,note_off,60,0,2,,,,,,,,,1,,,87,0
719340,note_on,6,0,2,,,,,,,,,1,,,87,56
719350,note_off,30,0,5,,,,,,,,,4,,,35,0
719360,note_on,10,0,5,,,,,,,,,4,,,35,51
719390,note_off,30,0,5,,,,,,,,,4,,,37,0
719400,note_on,60,0,2,,,,,,,,,1,,,81,56
719400,note_on,10,0,5,,,,,,,,,4,,,37,51
719430,note_off,30,0,5,,,,,,,,,4,,,35,0
719440,note_on,10,0,5,,,,,,,,,4,,,35,51
719453,note_off,53,0,2,,,,,,,,,1,,,87,0
719460,note_on,7,0,2,,,,,,,,,1,,,90,56
719460,set_tempo,1380,1,0,,,,,,1111111,,,,,,,
719470,note_off,30,0,5,,,,,,,,,4,,,37,0
719480,note_on,10,0,5,,,,,,,,,4,,,37,51
719510,note_off,30,0,5,,,,,,,,,4,,,35,0
719513,note_off,53,0,2,,,,,,,,,1,,,81,0
719520,set_tempo,60,1,0,,,,,,1071428,,,,,,,
719520,note_off,240,0,1,,,,,,,,,0,,,78,0
719520,note_on,10,0,5,,,,,,,,,4,,,35,51
719520,note_on,0,0,1,,,,,,,,,0,,,81,64
719550,note_off,30,0,5,,,,,,,,,4,,,37,0
719560,note_on,10,0,5,,,,,,,,,4,,,37,51
719573,note_off,60,0,2,,,,,,,,,1,,,90,0
719580,note_on,7,0,2,,,,,,,,,1,,,90,56
719590,note_off,30,0,5,,,,,,,,,4,,,35,0
719600,note_on,10,0,5,,,,,,,,,4,,,35,51
719630,note_off,30,0,5,,,,,,,,,4,,,37,0
719640,note_on,10,0,5,,,,,,,,,4,,,37,51
719640,note_on,60,0,2,,,,,,,,,1,,,87,56
719670,note_off,30,0,5,,,,,,,,,4,,,35,0
719680,note_on,10,0,5,,,,,,,,,4,,,35,51
719692,note_off,52,0,2,,,,,,,,,1,,,90,0
719700,note_on,8,0,2,,,,,,,,,1,,,93,56
719710,note_off,30,0,5,,,,,,,,,4,,,37,0
719720,note_on,10,0,5,,,,,,,,,4,,,37,51
719750,note_off,30,0,5,,,,,,,,,4,,,35,0
719752,note_off,52,0,2,,,,,,,,,1,,,87,0
719760,note_off,240,0,1,,,,,,,,,0,,,81,0
719760,note_on,10,0,5,,,,,,,,,4,,,35,51
719760,note_on,0,0,1,,,,,,,,,0,,,84,63
719790,note_off,30,0,5,,,,,,,,,4,,,37,0
719800,note_on,10,0,5,,,,,,,,,4,,,37,51
719812,note_off,60,0,2,,,,,,,,,1,,,93,0
719820,note_on,8,0,2,,,,,,,,,1,,,90,56
719830,note_off,30,0,5,,,,,,,,,4,,,35,0
719840,note_on,10,0,5,,,,,,,,,4,,,35,51
719870,note_off,30,0,5,,,,,,,,,4,,,37,0
719880,note_on,60,0,2,,,,,,,,,1,,,87,56
719880,note_on,10,0,5,,,,,,,,,4,,,37,51
719910,note_off,30,0,5,,,,,,,,,4,,,35,0
719920,note_on,10,0,5,,,,,,,,,4,,,35,51
719931,note_off,51,0,2,,,,,,,,,1,,,90,0
719940,note_on,9,0,2,,,,,,,,,1,,,93,56
719950,note_off,30,0,5,,,,,,,,,4,,,37,0
719960,note_on,10,0,5,,,,,,,,,4,,,37,51
719990,note_off,30,0,5,,,,,,,,,4,,,35,0
719991,note_off,51,0,2,,,,,,,,,1,,,87,0
720000,note_on,10,0,5,,,,,,,,,4,,,35,51
720000,note_off,240,0,1,,,,,,,,,0,,,84,0
720000,note_on,0,0,1,,,,,,,,,0,,,83,63
720030,note_off,30,0,5,,,,,,,,,4,,,37,0
720040,note_on,10,0,5,,,,,,,,,4,,,37,51
720050,note_off,59,0,2,,,,,,,,,1,,,93,0
720060,note_on,10,0,2,,,,,,,,,1,,,90,56
720070,note_off,30,0,5,,,,,,,,,4,,,35,0
720080,note_on,10,0,5,,,,,,,,,4,,,35,51
720110,note_off,30,0,5,,,,,,,,,4,,,37,0
720120,note_on,10,0,5,,,,,,,,,4,,,37,51
720120,note_on,60,0,2,,,,,,,,,1,,,87,56
720150,note_off,30,0,5,,,,,,,,,4,,,35,0
720160,note_on,10,0,5,,,,,,,,,4,,,35,51
720170,note_off,50,0,2,,,,,,,,,1,,,90,0
720180,note_on,10,0,2,,,,,,,,,1,,,93,55
720190,note_off,30,0,5,,,,,,,,,4,,,37,0
720200,note_on,10,0,5,,,,,,,,,4,,,37,51
720229,note_off,49,0,2,,,,,,,,,1,,,87,0
720230,note_off,30,0,5,,,,,,,,,4,,,35,0
720240,note_on,10,0,5,,,,,,,,,4,,,35,51
720240,note_off,240,0,1,,,,,,,,,0,,,83,0
720240,note_on,0,0,1,,,,,,,,,0,,,82,63
720270,note_off,30,0,5,,,,,,,,,4,,,37,0
720280,note_on,10,0,5,,,,,,,,,4,,,37,51
720289,note_off,60,0,2,,,,,,,,,1,,,93,0
720300,note_on,11,0,2,,,,,,,,,1,,,90,55
720310,note_off,30,0,5,,,,,,,,,4,,,35,0
720320,note_on,10,0,5,,,,,,,,,4,,,35,51
720350,note_off,30,0,5,,,,,,,,,4,,,37,0
720360,note_on,10,0,5,,,,,,,,,4,,,37,51
720360,note_on,60,0,2,,,,,,,,,1,,,87,55
720390,note_off,30,0,5,,,,,,,,,4,,,35,0
720400,note_on,10,0,5,,,,,,,,,4,,,35,51
720408,note_off,48,0,2,,,,,,,,,1,,,90,0
720420,note_on,12,0,2,,,,,,,,,1,,,93,55
720430,note_off,30,0,5,,,,,,,,,4,,,37,0
720440,note_on,10,0,5,,,,,,,,,4,,,37,51
720468,note_off,48,0,2,,,,,,,,,1,,,87,0
720470,note_off,30,0,5,,,,,,,,,4,,,35,0
720480,note_on,0,0,1,,,,,,,,,0,,,81,62
720480,note_off,240,0,1,,,,,,,,,0,,,82,0
720480,note_on,10,0,5,,,,,,,,,4,,,35,51
720510,note_off,30,0,5,,,,,,,,,4,,,37,0
720520,note_on,10,0,5,,,,,,,,,4,,,37,51
720528,note_off,60,0,2,,,,,,,,,1,,,93,0
720540,note_on,12,0,2,,,,,,,,,1,,,90,55
720550,note_off,30,0,5,,,,,,,,,4,,,35,0
720560,note_on,10,0,5,,,,,,,,,4,,,35,51
720590,note_off,30,0,5,,,,,,,,,4,,,37,0
720600,note_on,10,0,5,,,,,,,,,4,,,37,50
720600,note_on,60,0,2,,,,,,,,,1,,,87,55
720630,note_off,30,0,5,,,,,,,,,4,,,35,0
720640,note_on,10,0,5,,,,,,,,,4,,,35,50
720647,note_off,47,0,2,,,,,,,,,1,,,90,0
720660,note_on,13,0,2,,,,,,,,,1,,,93,55
720670,note_off,30,0,5,,,,,,,,,4,,,37,0
720680,note_on,10,0,5,,,,,,,,,4,,,37,50
720707,note_off,47,0,2,,,,,,,,,1,,,87,0
720710,note_off,30,0,5,,,,,,,,,4,,,35,0
720720,note_off,240,0,1,,,,,,,,,0,,,81,0
720720,note_on,0,0,1,,,,,,,,,0,,,80,62
720720,note_on,10,0,5,,,,,,,,,4,,,35,50
720750,note_off,30,0,5,,,,,,,,,4,,,37,0
720760,note_on,10,0,5,,,,,,,,,4,,,37,50
720767,note_off,60,0,2,,,,,,,,,1,,,93,0
720780,note_on,13,0,2,,,,,,,,,1,,,88,55
720790,note_off,30,0,5,,,,,,,,,4,,,35,0
720800,note_on,10,0,5,,,,,,,,,4,,,35,50
720830,note_off,30,0,5,,,,,,,,,4,,,37,0
720840,note_on,10,0,5,,,,,,,,,4,,,37,50
720840,note_on,60,0,2,,,,,,,,,1,,,83,55
720870,note_off,30,0,5,,,,,,,,,4,,,35,0
720880,note_on,10,0,5,,,,,,,,,4,,,35,50
720886,note_off,46,0,2,,,,,,,,,1,,,88,0
720900,note_on,14,0,2,,,,,,,,,1,,,92,55
720900,set_tempo,1380,1,0,,,,,,1111111,,,,,,,
720910,note_off,30,0,5,,,,,,,,,4,,,37,0
720920,note_on,10,0,5,,,,,,,,,4,,,37,50
720946,note_off,46,0,2,,,,,,,,,1,,,83,0
720950,note_off,30,0,5,,,,,,,,,4,,,35,0
720960,note_on,0,0,1,,,,,,,,,0,,,80,62
720960,note_off,240,0,1,,,,,,,,,0,,,80,0
720960,set_tempo,60,1,0,,,,,,1071428,,,,,,,
720960,note_on,10,0,5,,,,,,,,,4,,,35,50
720990,note_off,30,0,5,,,,,,,,,4,,,37,0
721000,note_on,10,0,5,,,,,,,,,4,,,37,50
721005,note_off,59,0,2,,,,,,,,,1,,,92,0
721020,note_on,15,0,2,,,,,,,,,1,,,88,54
721030,note_off,30,0,5,,,,,,,,,4,,,35,0
721040,note_on,10,0,5,,,,,,,,,4,,,35,50
721070,note_off,30,0,5,,,,,,,,,4,,,37,0
721080,note_on,10,0,5,,,,,,,,,4,,,37,50
721080,note_on,60,0,2,,,,,,,,,1,,,83,54
721110,note_off,30,0,5,,,,,,,,,4,,,35,0
721120,note_on,10,0,5,,,,,,,,,4,,,35,50
721125,note_off,45,0,2,,,,,,,,,1,,,88,0
721140,note_on,15,0,2,,,,,,,,,1,,,92,54
721150,note_off,30,0,5,,,,,,,,,4,,,37,0
721160,note_on,10,0,5,,,,,,,,,4,,,37,50
721184,note_off,44,0,2,,,,,,,,,1,,,83,0
721190,note_off,30,0,5,,,,,,,,,4,,,35,0
721200,note_on,0,0,1,,,,,,,,,0,,,83,61
721200,note_off,240,0,1,,,,,,,,,0,,,80,0
721200,note_on,10,0,5,,,,,,,,,4,,,35,50
721230,note_off,30,0,5,,,,,,,,,4,,,37,0
721240,note_on,10,0,5,,,,,,,,,4,,,37,50
721244,note_off,60,0,2,,,,,,,,,1,,,92,0
721260,note_on,16,0,2,,,,,,,,,1,,,92,54
721270,note_off,30,0,5,,,,,,,,,4,,,35,0
721280,note_on,10,0,5,,,,,,,,,4,,,35,50
721310,note_off,30,0,5,,,,,,,,,4,,,37,0
721320,note_on,60,0,2,,,,,,,,,1,,,88,54
721320,note_on,10,0,5,,,,,,,,,4,,,37,50
721350,note_off,30,0,5,,,,,,,,,4,,,35,0
721360,note_on,10,0,5,,,,,,,,,4,,,35,50
721364,note_off,44,0,2,,,,,,,,,1,,,92,0
721380,note_on,16,0,2,,,,,,,,,1,,,95,54
721390,note_off,30,0,5,,,,,,,,,4,,,37,0
721400,note_on,10,0,5,,,,,,,,,4,,,37,50
721423,note_off,43,0,2,,,,,,,,,1,,,88,0
721430,note_off,30,0,5,,,,,,,,,4,,,35,0
721440,note_off,240,0,1,,,,,,,,,0,,,83,0
721440,note_on,10,0,5,,,,,,,,,4,,,35,50
721440,note_on,0,0,1,,,,,,,,,0,,,82,61
721470,note_off,30,0,5,,,,,,,,,4,,,37,0
721480,note_on,10,0,5,,,,,,,,,4,,,37,50
721483,note_off,60,0,2,,,,,,,,,1,,,95,0
721500,note_on,17,0,2,,,,,,,,,1,,,91,54
721510,note_off,30,0,5,,,,,,,,,4,,,35,0
721520,note_on,10,0,5,,,,,,,,,4,,,35,50
721550,note_off,30,0,5,,,,,,,,,4,,,37,0
721560,note_on,60,0,2,,,,,,,,,1,,,88,54
721560,note_on,10,0,5,,,,,,,,,4,,,37,50
721590,note_off,30,0,5,,,,,,,,,4,,,35,0
721600,note_on,10,0,5,,,,,,,,,4,,,35,50
721602,note_off,42,0,2,,,,,,,,,1,,,91,0
721620,note_on,18,0,2,,,,,,,,,1,,,94,54
721630,note_off,30,0,5,,,,,,,,,4,,,37,0
721640,note_on,10,0,5,,,,,,,,,4,,,37,50
721662,note_off,42,0,2,,,,,,,,,1,,,88,0
721670,note_off,30,0,5,,,,,,,,,4,,,35,0
721680,note_on,10,0,5,,,,,,,,,4,,,35,50
721680,note_off,240,0,1,,,,,,,,,0,,,82,0
721680,note_on,0,0,1,,,,,,,,,0,,,81,61
721710,note_off,30,0,5,,,,,,,,,4,,,37,0
721720,note_on,10,0,5,,,,,,,,,4,,,37,50
721722,note_off,60,0,2,,,,,,,,,1,,,94,0
721740,note_on,18,0,2,,,,,,,,,1,,,90,54
721750,note_off,30,0,5,,,,,,,,,4,,,35,0
721760,note_on,10,0,5,,,,,,,,,4,,,35,50
721790,note_off,30,0,5,,,,,,,,,4,,,37,0
721800,note_on,60,0,2,,,,,,,,,1,,,87,54
721800,note_on,10,0,5,,,,,,,,,4,,,37,50
721830,note_off,30,0,5,,,,,,,,,4,,,35,0
721840,note_on,10,0,5,,,,,,,,,4,,,35,50
721841,note_off,41,0,2,,,,,,,,,1,,,90,0
721860,note_on,19,0,2,,,,,,,,,1,,,93,54
721870,note_off,30,0,5,,,,,,,,,4,,,37,0
721880,note_on,10,0,5,,,,,,,,,4,,,37,50
721901,note_off,41,0,2,,,,,,,,,1,,,87,0
721910,note_off,30,0,5,,,,,,,,,4,,,35,0
721920,note_on,10,0,5,,,,,,,,,4,,,35,50
721920,note_on,0,0,1,,,,,,,,,0,,,80,60
721920,note_off,240,0,1,,,,,,,,,0,,,81,0
721956,note_off,36,0,5,,,,,,,,,4,,,37,0
721960,note_on,4,0,5,,,,,,,,,4,,,37,50
721960,note_off,59,0,2,,,,,,,,,1,,,93,0
721980,note_on,20,0,2,,,,,,,,,1,,,89,53
721984,note_off,24,0,5,,,,,,,,,4,,,35,0
722000,note_on,16,0,5,,,,,,,,,4,,,35,50
722024,note_off,24,0,5,,,,,,,,,4,,,37,0
722040,note_on,60,0,2,,,,,,,,,1,,,86,53
722040,note_on,16,0,5,,,,,,,,,4,,,37,50
722064,note_off,24,0,5,,,,,,,,,4,,,35,0
722080,note_off,40,0,2,,,,,,,,,1,,,89,0
722080,note_on,16,0,5,,,,,,,,,4,,,35,50
722100,note_on,20,0,2,,,,,,,,,1,,,92,53
722104,note_off,24,0,5,,,,,,,,,4,,,37,0
722120,note_on,16,0,5,,,,,,,,,4,,,37,50
722140,note_off,40,0,2,,,,,,,,,1,,,86,0
722144,note_off,24,0,5,,,,,,,,,4,,,35,0
722160,note_off,240,0,1,,,,,,,,,0,,,80,0
722160,note_on,16,0,5,,,,,,,,,4,,,35,50
722160,note_on,0,0,1,,,,,,,,,0,,,81,60
722184,note_off,24,0,5,,,,,,,,,4,,,37,0
722199,note_off,59,0,2,,,,,,,,,1,,,92,0
722200,note_on,16,0,5,,,,,,,,,4,,,37,50
722220,note_on,21,0,2,,,,,,,,,1,,,90,53
722224,note_off,24,0,5,,,,,,,,,4,,,35,0
722240,note_on,16,0,5,,,,,,,,,4,,,35,50
722264,note_off,24,0,5,,,,,,,,,4,,,37,0
722280,note_on,16,0,5,,,,,,,,,4,,,37,50
722280,note_on,60,0,2,,,,,,,,,1,,,87,53
722304,note_off,24,0,5,,,,,,,,,4,,,35,0
722319,note_off,39,0,2,,,,,,,,,1,,,90,0
722320,note_on,16,0,5,,,,,,,,,4,,,35,50
722340,note_on,21,0,2,,,,,,,,,1,,,93,53
722340,set_tempo,1380,1,0,,,,,,1111111,,,,,,,
722344,note_off,24,0,5,,,,,,,,,4,,,37,0
722360,note_on,16,0,5,,,,,,,,,4,,,37,50
722378,note_off,38,0,2,,,,,,,,,1,,,87,0
722384,note_off,24,0,5,,,,,,,,,4,,,35,0
722400,note_on,16,0,5,,,,,,,,,4,,,35,50
722400,note_off,240,0,1,,,,,,,,,0,,,81,0
722400,note_on,0,0,1,,,,,,,,,0,,,81,60
722400,set_tempo,60,1,0,,,,,,1071428,,,,,,,
722424,note_off,24,0,5,,,,,,,,,4,,,37,0
722438,note_off,60,0,2,,,,,,,,,1,,,93,0
722440,note_on,16,0,5,,,,,,,,,4,,,37,50
722460,note_on,22,0,2,,,,,,,,,1,,,90,53
722464,note_off,24,0,5,,,,,,,,,4,,,35,0
722480,note_on,16,0,5,,,,,,,,,4,,,35,50
722504,note_off,24,0,5,,,,,,,,,4,,,37,0
722520,note_on,16,0,5,,,,,,,,,4,,,37,50
722520,note_on,60,0,2,,,,,,,,,1,,,87,53
722544,note_off,24,0,5,,,,,,,,,4,,,35,0
722557,note_off,37,0,2,,,,,,,,,1,,,90,0
722560,note_on,16,0,5,,,,,,,,,4,,,35,50
722580,note_on,23,0,2,,,,,,,,,1,,,93,53
722584,note_off,24,0,5,,,,,,,,,4,,,37,0
722600,note_on,16,0,5,,,,,,,,,4,,,37,50
722617,note_off,37,0,2,,,,,,,,,1,,,87,0
722624,note_off,24,0,5,,,,,,,,,4,,,35,0
722640,note_on,0,0,1,,,,,,,,,0,,,78,59
722640,note_off,240,0,1,,,,,,,,,0,,,81,0
722640,note_on,16,0,5,,,,,,,,,4,,,35,50
722664,note_off,24,0,5,,,,,,,,,4,,,37,0
722677,note_off,60,0,2,,,,,,,,,1,,,93,0
722680,note_on,16,0,5,,,,,,,,,4,,,37,50
722700,note_on,23,0,2,,,,,,,,,1,,,87,53
722704,note_off,24,0,5,,,,,,,,,4,,,35,0
722720,note_on,16,0,5,,,,,,,,,4,,,35,50
722744,note_off,24,0,5,,,,,,,,,4,,,37,0
722760,note_on,16,0,5,,,,,,,,,4,,,37,50
722760,note_on,60,0,2,,,,,,,,,1,,,81,52
722784,note_off,24,0,5,,,,,,,,,4,,,35,0
722796,note_off,36,0,2,,,,,,,,,1,,,87,0
722800,note_on,16,0,5,,,,,,,,,4,,,35,50
722820,note_on,24,0,2,,,,,,,,,1,,,93,52
722824,note_off,24,0,5,,,,,,,,,4,,,37,0
722840,note_on,16,0,5,,,,,,,,,4,,,37,50
722856,note_off,36,0,2,,,,,,,,,1,,,81,0
722864,note_off,24,0,5,,,,,,,,,4,,,35,0
722880,note_on,16,0,5,,,,,,,,,4,,,35,50
722880,note_on,0,0,1,,,,,,,,,0,,,75,59
722880,note_off,240,0,1,,,,,,,,,0,,,78,0
722904,note_off,24,0,5,,,,,,,,,4,,,37,0
722915,note_off,59,0,2,,,,,,,,,1,,,93,0
722920,note_on,16,0,5,,,,,,,,,4,,,37,50
722940,note_on,25,0,2,,,,,,,,,1,,,81,52
722944,note_off,24,0,5,,,,,,,,,4,,,35,0
722960,note_on,16,0,5,,,,,,,,,4,,,35,50
722984,note_off,24,0,5,,,,,,,,,4,,,37,0
723000,note_on,16,0,5,,,,,,,,,4,,,37,50
723000,note_on,60,0,2,,,,,,,,,1,,,78,52
723024,note_off,24,0,5,,,,,,,,,4,,,35,0
723035,note_off,35,0,2,,,,,,,,,1,,,81,0
723040,note_on,16,0,5,,,,,,,,,4,,,35,50
723060,note_on,25,0,2,,,,,,,,,1,,,87,52
723064,note_off,24,0,5,,,,,,,,,4,,,37,0
723080,note_on,16,0,5,,,,,,,,,4,,,37,51
723095,note_off,35,0,2,,,,,,,,,1,,,78,0
723104,note_off,24,0,5,,,,,,,,,4,,,35,0
723120,note_on,16,0,5,,,,,,,,,4,,,35,54
723120,note_on,0,0,1,,,,,,,,,0,,,69,59
723120,note_off,240,0,1,,,,,,,,,0,,,75,0
723144,note_off,24,0,5,,,,,,,,,4,,,37,0
723154,note_off,59,0,2,,,,,,,,,1,,,87,0
723160,note_on,16,0,5,,,,,,,,,4,,,37,57
723180,note_on,26,0,2,,,,,,,,,1,,,78,52
723184,note_off,24,0,5,,,,,,,,,4,,,35,0
723200,note_on,16,0,5,,,,,,,,,4,,,35,59
723224,note_off,24,0,5,,,,,,,,,4,,,37,0
723240,note_on,16,0,5,,,,,,,,,4,,,37,62
723240,note_on,60,0,2,,,,,,,,,1,,,75,52
723264,note_off,24,0,5,,,,,,,,,4,,,35,0
723274,note_off,34,0,2,,,,,,,,,1,,,78,0
723300,set_tempo,900,1,0,,,,,,1111111,,,,,,,
723300,note_on,26,0,2,,,,,,,,,1,,,81,52
723300,note_on,36,0,5,,,,,,,,,4,,,39,66
723327,note_off,27,0,5,,,,,,,,,4,,,37,0
723333,note_off,33,0,2,,,,,,,,,1,,,75,0
723360,note_off,0,0,1,,,,,,,,,0,,,69,0
723360,note_on,33,0,5,,,,,,,,,4,,,40,70
723360,note_on,27,0,2,,,,,,,,,1,,,80,52
723360,control_change,240,0,1,,,,,,,64,0,0,,,,
723384,note_off,24,0,5,,,,,,,,,4,,,39,0
723393,note_off,33,0,2,,,,,,,,,1,,,81,0
723420,note_on,11612,0,4,,,,,,,,,3,,,59,56
723420,note_on,60,0,1,,,,,,,,,0,,,71,58
723444,end_of_track,0,1,5,,,,,,,,,,,,,
723444,note_off,60,0,5,,,,,,,,,4,,,40,0
723453,note_off,60,0,2,,,,,,,,,1,,,80,0
723480,note_on,60,0,1,,,,,,,,,0,,,73,58
723480,note_on,60,0,4,,,,,,,,,3,,,61,56
723510,note_off,30,0,4,,,,,,,,,3,,,59,0
723512,note_off,32,0,1,,,,,,,,,0,,,71,0
723540,note_on,28,0,1,,,,,,,,,0,,,75,58
723540,note_on,30,0,4,,,,,,,,,3,,,63,56
723570,note_off,30,0,4,,,,,,,,,3,,,61,0
723572,note_off,32,0,1,,,,,,,,,0,,,73,0
723600,note_on,28,0,1,,,,,,,,,0,,,76,58
723600,note_on,30,0,4,,,,,,,,,3,,,64,56
723630,note_off,30,0,4,,,,,,,,,3,,,63,0
723632,note_off,32,0,1,,,,,,,,,0,,,75,0
723660,note_on,30,0,4,,,,,,,,,3,,,66,56
723660,note_on,28,0,1,,,,,,,,,0,,,78,58
723691,note_off,31,0,4,,,,,,,,,3,,,64,0
723691,note_off,31,0,1,,,,,,,,,0,,,76,0
723720,note_on,29,0,4,,,,,,,,,3,,,68,56
723720,set_tempo,420,1,0,,,,,,1132075,,,,,,,
723720,note_on,29,0,1,,,,,,,,,0,,,80,59
723751,note_off,31,0,4,,,,,,,,,3,,,66,0
723751,note_off,31,0,1,,,,,,,,,0,,,78,0
723780,set_tempo,60,1,0,,,,,,1276595,,,,,,,
723780,note_on,29,0,1,,,,,,,,,0,,,82,60
723780,note_on,29,0,4,,,,,,,,,3,,,70,56
723811,note_off,31,0,1,,,,,,,,,0,,,80,0
723812,note_off,32,0,4,,,,,,,,,3,,,68,0
723840,note_on,11718,0,3,,,,,,,,,2,,,83,50
723840,control_change,29,0,1,,,,,,,64,127,0,,,,
723840,note_on,28,0,4,,,,,,,,,3,,,71,56
723871,note_off,31,0,1,,,,,,,,,0,,,82,0
723872,note_off,32,0,4,,,,,,,,,3,,,70,0
723880,note_on,40,0,3,,,,,,,,,2,,,85,50
723898,note_off,18,0,3,,,,,,,,,2,,,83,0
723900,set_tempo,120,1,0,,,,,,1071428,,,,,,,
723920,note_on,22,0,3,,,,,,,,,2,,,83,50
723932,note_off,60,0,4,,,,,,,,,3,,,71,0
723938,note_off,18,0,3,,,,,,,,,2,,,85,0
723960,note_on,22,0,3,,,,,,,,,2,,,85,50
723960,note_on,28,0,4,,,,,,,,,3,,,74,57
723978,note_off,18,0,3,,,,,,,,,2,,,83,0
724000,note_on,22,0,3,,,,,,,,,2,,,83,50
724018,note_off,18,0,3,,,,,,,,,2,,,85,0
724020,note_on,60,0,4,,,,,,,,,3,,,73,57
724040,note_on,22,0,3,,,,,,,,,2,,,85,50
724053,note_off,33,0,4,,,,,,,,,3,,,74,0
724058,note_off,18,0,3,,,,,,,,,2,,,83,0
724080,note_on,22,0,3,,,,,,,,,2,,,83,50
724080,note_on,209,0,1,,,,,,,,,0,,,95,60
724080,note_on,27,0,4,,,,,,,,,3,,,71,57
724098,note_off,18,0,3,,,,,,,,,2,,,85,0
724113,note_off,33,0,4,,,,,,,,,3,,,73,0
724120,note_on,22,0,3,,,,,,,,,2,,,85,50
724138,note_off,18,0,3,,,,,,,,,2,,,83,0
724140,note_on,27,0,4,,,,,,,,,3,,,73,57
724160,note_on,22,0,3,,,,,,,,,2,,,83,50
724174,note_off,34,0,4,,,,,,,,,3,,,71,0
724178,note_off,18,0,3,,,,,,,,,2,,,85,0
724200,note_on,22,0,3,,,,,,,,,2,,,85,50
724200,note_on,26,0,4,,,,,,,,,3,,,71,57
724218,note_off,18,0,3,,,,,,,,,2,,,83,0
724234,note_off,34,0,4,,,,,,,,,3,,,73,0
724240,note_on,22,0,3,,,,,,,,,2,,,83,50
724258,note_off,18,0,3,,,,,,,,,2,,,85,0
724260,note_on,26,0,4,,,,,,,,,3,,,69,57
724280,note_on,22,0,3,,,,,,,,,2,,,85,50
724295,note_off,35,0,4,,,,,,,,,3,,,71,0
724298,note_off,18,0,3,,,,,,,,,2,,,83,0
724320,note_on,25,0,4,,,,,,,,,3,,,68,57
724320,note_off,240,0,1,,,,,,,,,0,,,95,0
724320,note_on,22,0,3,,,,,,,,,2,,,83,50
724338,note_off,18,0,3,,,,,,,,,2,,,85,0
724355,note_off,35,0,4,,,,,,,,,3,,,69,0
724360,note_on,22,0,3,,,,,,,,,2,,,85,50
724378,note_off,18,0,3,,,,,,,,,2,,,83,0
724380,note_on,25,0,4,,,,,,,,,3,,,69,57
724400,note_on,22,0,3,,,,,,,,,2,,,83,50
724415,note_off,35,0,4,,,,,,,,,3,,,68,0
724418,note_off,18,0,3,,,,,,,,,2,,,85,0
724440,note_on,25,0,4,,,,,,,,,3,,,68,57
724440,note_on,22,0,3,,,,,,,,,2,,,85,50
724458,note_off,18,0,3,,,,,,,,,2,,,83,0
724476,note_off,36,0,4,,,,,,,,,3,,,69,0
724480,note_on,22,0,3,,,,,,,,,2,,,83,50
724498,note_off,18,0,3,,,,,,,,,2,,,85,0
724500,note_on,24,0,4,,,,,,,,,3,,,66,57
724520,note_on,22,0,3,,,,,,,,,2,,,85,50
724536,note_off,36,0,4,,,,,,,,,3,,,68,0
724538,note_off,18,0,3,,,,,,,,,2,,,83,0
724560,note_on,240,0,1,,,,,,,,,0,,,95,60
724560,note_on,22,0,3,,,,,,,,,2,,,83,51
724560,note_on,24,0,4,,,,,,,,,3,,,65,57
724578,note_off,18,0,3,,,,,,,,,2,,,85,0
724596,note_off,36,0,4,,,,,,,,,3,,,66,0
724600,note_on,22,0,3,,,,,,,,,2,,,85,51
724618,note_off,18,0,3,,,,,,,,,2,,,83,0
724620,note_on,24,0,4,,,,,,,,,3,,,66,57
724640,note_on,22,0,3,,,,,,,,,2,,,83,51
724657,note_off,37,0,4,,,,,,,,,3,,,65,0
724658,note_off,18,0,3,,,,,,,,,2,,,85,0
724680,note_on,23,0,4,,,,,,,,,3,,,65,58
724680,note_on,22,0,3,,,,,,,,,2,,,85,51
724698,note_off,18,0,3,,,,,,,,,2,,,83,0
724717,note_off,37,0,4,,,,,,,,,3,,,66,0
724720,note_on,22,0,3,,,,,,,,,2,,,83,51
724738,note_off,18,0,3,,,,,,,,,2,,,85,0
724740,note_on,23,0,4,,,,,,,,,3,,,62,58
724760,note_on,22,0,3,,,,,,,,,2,,,85,51
724778,note_off,38,0,4,,,,,,,,,3,,,65,0
724778,note_off,18,0,3,,,,,,,,,2,,,83,0
724800,note_off,240,0,1,,,,,,,,,0,,,95,0
724800,note_on,22,0,3,,,,,,,,,2,,,83,51
724800,note_on,22,0,4,,,,,,,,,3,,,61,58
724818,note_off,18,0,3,,,,,,,,,2,,,85,0
724838,note_off,38,0,4,,,,,,,,,3,,,62,0
724840,note_on,22,0,3,,,,,,,,,2,,,85,51
724858,note_off,18,0,3,,,,,,,,,2,,,83,0
724860,note_on,22,0,4,,,,,,,,,3,,,62,58
724880,note_on,22,0,3,,,,,,,,,2,,,83,51
724898,note_off,38,0,4,,,,,,,,,3,,,61,0
724898,note_off,18,0,3,,,,,,,,,2,,,85,0
724920,note_on,22,0,3,,,,,,,,,2,,,85,51
724920,note_on,22,0,4,,,,,,,,,3,,,61,58
724938,note_off,18,0,3,,,,,,,,,2,,,83,0
724959,note_off,39,0,4,,,,,,,,,3,,,62,0
724960,note_on,22,0,3,,,,,,,,,2,,,83,51
724978,note_off,18,0,3,,,,,,,,,2,,,85,0
724980,note_on,21,0,4,,,,,,,,,3,,,59,58
725000,note_on,22,0,3,,,,,,,,,2,,,85,51
725018,note_off,18,0,3,,,,,,,,,2,,,83,0
725019,note_off,39,0,4,,,,,,,,,3,,,61,0
725040,note_on,21,0,4,,,,,,,,,3,,,57,58
725040,note_on,240,0,1,,,,,,,,,0,,,97,61
725040,note_on,22,0,3,,,,,,,,,2,,,83,51
725058,note_off,18,0,3,,,,,,,,,2,,,85,0
725080,note_off,40,0,4,,,,,,,,,3,,,59,0
725080,note_on,22,0,3,,,,,,,,,2,,,85,51
725098,note_off,18,0,3,,,,,,,,,2,,,83,0
725100,note_on,20,0,4,,,,,,,,,3,,,59,58
725120,note_on,22,0,3,,,,,,,,,2,,,83,51
725138,note_off,18,0,3,,,,,,,,,2,,,85,0
725140,note_off,40,0,4,,,,,,,,,3,,,57,0
725160,note_on,20,0,4,,,,,,,,,3,,,57,58
725160,note_on,22,0,3,,,,,,,,,2,,,85,51
725178,note_off,18,0,3,,,,,,,,,2,,,83,0
725200,note_off,40,0,4,,,,,,,,,3,,,59,0
725200,note_on,22,0,3,,,,,,,,,2,,,83,51
725218,note_off,18,0,3,,,,,,,,,2,,,85,0
725220,note_on,20,0,4,,,,,,,,,3,,,56,58
725220,set_tempo,1320,1,0,,,,,,1111111,,,,,,,
725240,note_on,22,0,3,,,,,,,,,2,,,85,51
725258,note_off,18,0,3,,,,,,,,,2,,,83,0
725261,note_off,41,0,4,,,,,,,,,3,,,57,0
725280,note_on,19,0,4,,,,,,,,,3,,,54,58
725280,note_off,240,0,1,,,,,,,,,0,,,97,0
725280,note_on,22,0,3,,,,,,,,,2,,,83,51
725298,note_off,18,0,3,,,,,,,,,2,,,85,0
725320,note_on,22,0,3,,,,,,,,,2,,,85,51
725321,note_off,41,0,4,,,,,,,,,3,,,56,0
725338,note_off,18,0,3,,,,,,,,,2,,,83,0
725340,set_tempo,120,1,0,,,,,,1071428,,,,,,,
725360,note_on,22,0,3,,,,,,,,,2,,,83,51
725378,note_off,18,0,3,,,,,,,,,2,,,85,0
725381,note_off,60,0,4,,,,,,,,,3,,,54,0
725400,note_on,19,0,4,,,,,,,,,3,,,73,58
725400,note_on,22,0,3,,,,,,,,,2,,,85,51
725418,note_off,18,0,3,,,,,,,,,2,,,83,0
725440,note_on,22,0,3,,,,,,,,,2,,,83,52
725458,note_off,18,0,3,,,,,,,,,2,,,85,0
725460,note_on,60,0,4,,,,,,,,,3,,,71,58
725480,note_on,22,0,3,,,,,,,,,2,,,85,52
725498,note_off,18,0,3,,,,,,,,,2,,,83,0
725502,note_off,42,0,4,,,,,,,,,3,,,73,0
725520,note_on,240,0,1,,,,,,,,,0,,,97,61
725520,note_on,18,0,4,,,,,,,,,3,,,69,59
725520,note_on,22,0,3,,,,,,,,,2,,,83,52
725538,note_off,18,0,3,,,,,,,,,2,,,85,0
725560,note_on,22,0,3,,,,,,,,,2,,,85,52
725563,note_off,43,0,4,,,,,,,,,3,,,71,0
725578,note_off,18,0,3,,,,,,,,,2,,,83,0
725580,note_on,17,0,4,,,,,,,,,3,,,71,59
725600,note_on,22,0,3,,,,,,,,,2,,,83,52
725618,note_off,18,0,3,,,,,,,,,2,,,85,0
725623,note_off,43,0,4,,,,,,,,,3,,,69,0
725640,note_on,17,0,4,,,,,,,,,3,,,69,59
725640,note_on,22,0,3,,,,,,,,,2,,,85,52
725658,note_off,18,0,3,,,,,,,,,2,,,83,0
725680,note_on,22,0,3,,,,,,,,,2,,,83,52
725683,note_off,43,0,4,,,,,,,,,3,,,71,0
725698,note_off,18,0,3,,,,,,,,,2,,,85,0
725700,note_on,17,0,4,,,,,,,,,3,,,68,59
725720,note_on,22,0,3,,,,,,,,,2,,,85,52
725738,note_off,18,0,3,,,,,,,,,2,,,83,0
725744,note_off,44,0,4,,,,,,,,,3,,,69,0
725760,note_on,22,0,3,,,,,,,,,2,,,83,52
725760,note_on,16,0,4,,,,,,,,,3,,,66,59
725760,note_off,240,0,1,,,,,,,,,0,,,97,0
725778,note_off,18,0,3,,,,,,,,,2,,,85,0
725800,note_on,22,0,3,,,,,,,,,2,,,85,52
725804,note_off,44,0,4,,,,,,,,,3,,,68,0
725818,note_off,18,0,3,,,,,,,,,2,,,83,0
725820,note_on,16,0,4,,,,,,,,,3,,,68,59
725840,note_on,22,0,3,,,,,,,,,2,,,83,52
725858,note_off,18,0,3,,,,,,,,,2,,,85,0
725864,note_off,44,0,4,,,,,,,,,3,,,66,0
725880,note_on,22,0,3,,,,,,,,,2,,,85,52
725880,note_on,16,0,4,,,,,,,,,3,,,66,59
725898,note_off,18,0,3,,,,,,,,,2,,,83,0
725920,note_on,22,0,3,,,,,,,,,2,,,83,52
725925,note_off,45,0,4,,,,,,,,,3,,,68,0
725938,note_off,18,0,3,,,,,,,,,2,,,85,0
725940,note_on,15,0,4,,,,,,,,,3,,,65,59
725960,note_on,22,0,3,,,,,,,,,2,,,85,52
725978,note_off,18,0,3,,,,,,,,,2,,,83,0
725985,note_off,45,0,4,,,,,,,,,3,,,66,0
726000,note_on,22,0,3,,,,,,,,,2,,,83,52
726000,note_on,15,0,4,,,,,,,,,3,,,66,59
726000,note_on,240,0,1,,,,,,,,,0,,,93,62
726018,note_off,18,0,3,,,,,,,,,2,,,85,0
726040,note_on,22,0,3,,,,,,,,,2,,,85,52
726046,note_off,46,0,4,,,,,,,,,3,,,65,0
726058,note_off,18,0,3,,,,,,,,,2,,,83,0
726060,note_on,14,0,4,,,,,,,,,3,,,64,59
726080,note_on,22,0,3,,,,,,,,,2,,,83,52
726098,note_off,18,0,3,,,,,,,,,2,,,85,0
726106,note_off,46,0,4,,,,,,,,,3,,,66,0
726120,note_on,14,0,4,,,,,,,,,3,,,63,59
726120,note_on,22,0,3,,,,,,,,,2,,,85,52
726138,note_off,18,0,3,,,,,,,,,2,,,83,0
726160,note_on,22,0,3,,,,,,,,,2,,,83,52
726166,note_off,46,0,4,,,,,,,,,3,,,64,0
726178,note_off,18,0,3,,,,,,,,,2,,,85,0
726180,note_on,14,0,4,,,,,,,,,3,,,61,59
726200,note_on,22,0,3,,,,,,,,,2,,,85,52
726218,note_off,18,0,3,,,,,,,,,2,,,83,0
726227,note_off,47,0,4,,,,,,,,,3,,,63,0
726240,note_on,13,0,4,,,,,,,,,3,,,59,59
726240,note_on,22,0,3,,,,,,,,,2,,,83,52
726240,note_off,240,0,1,,,,,,,,,0,,,93,0
726258,note_off,18,0,3,,,,,,,,,2,,,85,0
726280,note_on,22,0,3,,,,,,,,,2,,,85,52
726287,note_off,47,0,4,,,,,,,,,3,,,61,0
726298,note_off,18,0,3,,,,,,,,,2,,,83,0
726300,note_on,13,0,4,,,,,,,,,3,,,61,60
726320,note_on,22,0,3,,,,,,,,,2,,,83,53
726338,note_off,18,0,3,,,,,,,,,2,,,85,0
726347,note_off,47,0,4,,,,,,,,,3,,,59,0
726360,note_on,13,0,4,,,,,,,,,3,,,59,60
726360,note_on,22,0,3,,,,,,,,,2,,,85,53
726378,note_off,18,0,3,,,,,,,,,2,,,83,0
726400,note_on,22,0,3,,,,,,,,,2,,,83,53
726408,note_off,48,0,4,,,,,,,,,3,,,61,0
726418,note_off,18,0,3,,,,,,,,,2,,,85,0
726420,note_on,12,0,4,,,,,,,,,3,,,57,60
726440,note_on,22,0,3,,,,,,,,,2,,,85,53
726458,note_off,18,0,3,,,,,,,,,2,,,83,0
726468,note_off,48,0,4,,,,,,,,,3,,,59,0
726480,note_on,22,0,3,,,,,,,,,2,,,83,53
726480,note_on,240,0,1,,,,,,,,,0,,,95,62
726480,note_on,12,0,4,,,,,,,,,3,,,56,60
726498,note_off,18,0,3,,,,,,,,,2,,,85,0
726520,note_on,22,0,3,,,,,,,,,2,,,85,53
726529,note_off,49,0,4,,,,,,,,,3,,,57,0
726538,note_off,18,0,3,,,,,,,,,2,,,83,0
726540,note_on,11,0,4,,,,,,,,,3,,,57,60
726560,note_on,22,0,3,,,,,,,,,2,,,83,53
726578,note_off,18,0,3,,,,,,,,,2,,,85,0
726589,note_off,49,0,4,,,,,,,,,3,,,56,0
726600,note_on,22,0,3,,,,,,,,,2,,,85,53
726600,note_on,11,0,4,,,,,,,,,3,,,56,60
726618,note_off,18,0,3,,,,,,,,,2,,,83,0
726640,note_on,22,0,3,,,,,,,,,2,,,83,53
726649,note_off,49,0,4,,,,,,,,,3,,,57,0
726658,note_off,18,0,3,,,,,,,,,2,,,85,0
726660,set_tempo,1320,1,0,,,,,,1111111,,,,,,,
726660,note_on,11,0,4,,,,,,,,,3,,,54,60
726680,note_on,22,0,3,,,,,,,,,2,,,85,53
726698,note_off,18,0,3,,,,,,,,,2,,,83,0
726710,note_off,50,0,4,,,,,,,,,3,,,56,0
726720,note_on,10,0,4,,,,,,,,,3,,,52,60
726720,note_on,22,0,3,,,,,,,,,2,,,83,53
726720,note_off,240,0,1,,,,,,,,,0,,,95,0
726738,note_off,18,0,3,,,,,,,,,2,,,85,0
726760,note_on,22,0,3,,,,,,,,,2,,,85,53
726770,note_off,50,0,4,,,,,,,,,3,,,54,0
726772,set_tempo,112,1,0,,,,,,1071428,,,,,,,
726778,note_off,18,0,3,,,,,,,,,2,,,83,0
726800,note_on,22,0,3,,,,,,,,,2,,,83,53
726818,note_off,18,0,3,,,,,,,,,2,,,85,0
726830,note_off,60,0,4,,,,,,,,,3,,,52,0
726840,note_on,10,0,4,,,,,,,,,3,,,71,60
726840,note_on,22,0,3,,,,,,,,,2,,,85,53
726858,note_off,18,0,3,,,,,,,,,2,,,83,0
726880,note_on,22,0,3,,,,,,,,,2,,,83,53
726898,note_off,18,0,3,,,,,,,,,2,,,85,0
726900,note_on,60,0,4,,,,,,,,,3,,,69,60
726920,note_on,22,0,3,,,,,,,,,2,,,85,53
726938,note_off,18,0,3,,,,,,,,,2,,,83,0
726951,note_off,51,0,4,,,,,,,,,3,,,71,0
726960,note_on,9,0,4,,,,,,,,,3,,,68,60
726960,note_on,240,0,1,,,,,,,,,0,,,95,63
726960,note_on,22,0,3,,,,,,,,,2,,,83,53
726978,note_off,18,0,3,,,,,,,,,2,,,85,0
727000,note_on,22,0,3,,,,,,,,,2,,,85,53
727012,note_off,52,0,4,,,,,,,,,3,,,69,0
727018,note_off,18,0,3,,,,,,,,,2,,,83,0
727020,note_on,8,0,4,,,,,,,,,3,,,69,60
727040,note_on,22,0,3,,,,,,,,,2,,,83,53
727058,note_off,18,0,3,,,,,,,,,2,,,85,0
727072,note_off,52,0,4,,,,,,,,,3,,,68,0
727080,note_on,8,0,4,,,,,,,,,3,,,68,61
727080,note_on,22,0,3,,,,,,,,,2,,,85,53
727098,note_off,18,0,3,,,,,,,,,2,,,83,0
727120,note_on,22,0,3,,,,,,,,,2,,,83,53
727132,note_off,52,0,4,,,,,,,,,3,,,69,0
727138,note_off,18,0,3,,,,,,,,,2,,,85,0
727140,note_on,8,0,4,,,,,,,,,3,,,66,61
727160,note_on,22,0,3,,,,,,,,,2,,,85,54
727178,note_off,18,0,3,,,,,,,,,2,,,83,0
727193,note_off,53,0,4,,,,,,,,,3,,,68,0
727200,note_on,7,0,4,,,,,,,,,3,,,64,61
727200,note_off,240,0,1,,,,,,,,,0,,,95,0
727200,note_on,22,0,3,,,,,,,,,2,,,83,54
727218,note_off,18,0,3,,,,,,,,,2,,,85,0
727240,note_on,22,0,3,,,,,,,,,2,,,85,54
727253,note_off,53,0,4,,,,,,,,,3,,,66,0
727258,note_off,18,0,3,,,,,,,,,2,,,83,0
727260,note_on,7,0,4,,,,,,,,,3,,,66,61
727280,note_on,22,0,3,,,,,,,,,2,,,83,54
727298,note_off,18,0,3,,,,,,,,,2,,,85,0
727314,note_off,54,0,4,,,,,,,,,3,,,64,0
727320,note_on,22,0,3,,,,,,,,,2,,,85,54
727320,note_on,6,0,4,,,,,,,,,3,,,64,61
727338,note_off,18,0,3,,,,,,,,,2,,,83,0
727360,note_on,22,0,3,,,,,,,,,2,,,83,54
727374,note_off,54,0,4,,,,,,,,,3,,,66,0
727378,note_off,18,0,3,,,,,,,,,2,,,85,0
727380,note_on,6,0,4,,,,,,,,,3,,,63,61
727400,note_on,22,0,3,,,,,,,,,2,,,85,54
727418,note_off,18,0,3,,,,,,,,,2,,,83,0
727434,note_off,54,0,4,,,,,,,,,3,,,64,0
727440,note_on,6,0,4,,,,,,,,,3,,,64,61
727440,note_on,22,0,3,,,,,,,,,2,,,83,54
727440,note_on,240,0,1,,,,,,,,,0,,,92,63
727458,note_off,18,0,3,,,,,,,,,2,,,85,0
727480,note_on,22,0,3,,,,,,,,,2,,,85,54
727495,note_off,55,0,4,,,,,,,,,3,,,63,0
727498,note_off,18,0,3,,,,,,,,,2,,,83,0
727500,note_on,5,0,4,,,,,,,,,3,,,63,61
727520,note_on,22,0,3,,,,,,,,,2,,,83,54
727538,note_off,18,0,3,,,,,,,,,2,,,85,0
727555,note_off,55,0,4,,,,,,,,,3,,,64,0
727560,note_on,22,0,3,,,,,,,,,2,,,85,54
727560,note_on,5,0,4,,,,,,,,,3,,,61,61
727578,note_off,18,0,3,,,,,,,,,2,,,83,0
727600,note_on,22,0,3,,,,,,,,,2,,,83,54
727615,note_off,55,0,4,,,,,,,,,3,,,63,0
727618,note_off,18,0,3,,,,,,,,,2,,,85,0
727620,note_on,5,0,4,,,,,,,,,3,,,59,61
727640,note_on,22,0,3,,,,,,,,,2,,,85,54
727658,note_off,18,0,3,,,,,,,,,2,,,83,0
727676,note_off,56,0,4,,,,,,,,,3,,,61,0
727680,note_on,4,0,4,,,,,,,,,3,,,57,61
727680,note_off,240,0,1,,,,,,,,,0,,,92,0
727680,note_on,22,0,3,,,,,,,,,2,,,83,54
727698,note_off,18,0,3,,,,,,,,,2,,,85,0
727720,note_on,22,0,3,,,,,,,,,2,,,85,54
727736,note_off,56,0,4,,,,,,,,,3,,,59,0
727738,note_off,18,0,3,,,,,,,,,2,,,83,0
727740,note_on,4,0,4,,,,,,,,,3,,,59,61
727760,note_on,22,0,3,,,,,,,,,2,,,83,54
727778,note_off,18,0,3,,,,,,,,,2,,,85,0
727797,note_off,57,0,4,,,,,,,,,3,,,57,0
727800,note_on,22,0,3,,,,,,,,,2,,,85,54
727800,note_on,3,0,4,,,,,,,,,3,,,57,61
727818,note_off,18,0,3,,,,,,,,,2,,,83,0
727840,note_on,22,0,3,,,,,,,,,2,,,83,54
727857,note_off,57,0,4,,,,,,,,,3,,,59,0
727858,note_off,18,0,3,,,,,,,,,2,,,85,0
727860,note_on,3,0,4,,,,,,,,,3,,,56,62
727880,note_on,22,0,3,,,,,,,,,2,,,85,54
727898,note_off,18,0,3,,,,,,,,,2,,,83,0
727917,note_off,57,0,4,,,,,,,,,3,,,57,0
727920,note_on,3,0,4,,,,,,,,,3,,,54,62
727920,note_on,240,0,1,,,,,,,,,0,,,93,64
727920,note_on,22,0,3,,,,,,,,,2,,,83,54
727944,note_off,24,0,3,,,,,,,,,2,,,85,0
727960,note_on,16,0,3,,,,,,,,,2,,,85,54
727978,note_off,58,0,4,,,,,,,,,3,,,56,0
727980,note_on,2,0,4,,,,,,,,,3,,,52,62
727984,note_off,24,0,3,,,,,,,,,2,,,83,0
728000,note_on,16,0,3,,,,,,,,,2,,,83,54
728024,note_off,24,0,3,,,,,,,,,2,,,85,0
728038,note_off,58,0,4,,,,,,,,,3,,,54,0
728040,note_on,16,0,3,,,,,,,,,2,,,85,55
728040,note_on,2,0,4,,,,,,,,,3,,,51,62
728064,note_off,24,0,3,,,,,,,,,2,,,83,0
728080,note_on,16,0,3,,,,,,,,,2,,,83,55
728098,note_off,58,0,4,,,,,,,,,3,,,52,0
728100,note_on,2,0,4,,,,,,,,,3,,,49,62
728100,set_tempo,1328,1,0,,,,,,1111111,,,,,,,
728104,note_off,24,0,3,,,,,,,,,2,,,85,0
728120,note_on,16,0,3,,,,,,,,,2,,,85,55
728144,note_off,24,0,3,,,,,,,,,2,,,83,0
728159,note_off,59,0,4,,,,,,,,,3,,,51,0
728160,note_on,1,0,4,,,,,,,,,3,,,47,62
728160,note_off,240,0,1,,,,,,,,,0,,,93,0
728160,note_on,16,0,3,,,,,,,,,2,,,83,55
728184,note_off,24,0,3,,,,,,,,,2,,,85,0
728200,note_on,16,0,3,,,,,,,,,2,,,85,55
728219,note_off,59,0,4,,,,,,,,,3,,,49,0
728220,set_tempo,120,1,0,,,,,,1071428,,,,,,,
728220,note_on,4767,0,2,,,,,,,,,1,,,59,60
728224,note_off,24,0,3,,,,,,,,,2,,,83,0
728240,note_on,16,0,3,,,,,,,,,2,,,83,55
728264,note_off,24,0,3,,,,,,,,,2,,,85,0
728280,note_on,16,0,3,,,,,,,,,2,,,85,55
728280,note_on,0,0,2,,,,,,,,,1,,,56,60
728280,note_off,60,0,2,,,,,,,,,1,,,59,0
728304,note_off,24,0,3,,,,,,,,,2,,,83,0
728320,note_on,16,0,3,,,,,,,,,2,,,83,55
728340,note_off,60,0,2,,,,,,,,,1,,,56,0
728340,note_on,0,0,2,,,,,,,,,1,,,59,60
728344,note_off,24,0,3,,,,,,,,,2,,,85,0
728360,note_on,16,0,3,,,,,,,,,2,,,85,55
728384,note_off,24,0,3,,,,,,,,,2,,,83,0
728400,note_on,240,0,1,,,,,,,,,0,,,92,64
728400,note_off,60,0,2,,,,,,,,,1,,,59,0
728400,note_on,0,0,2,,,,,,,,,1,,,63,60
728400,note_on,16,0,3,,,,,,,,,2,,,83,55
728424,note_off,24,0,3,,,,,,,,,2,,,85,0
728440,note_on,16,0,3,,,,,,,,,2,,,85,55
728460,note_off,60,0,2,,,,,,,,,1,,,63,0
728460,note_on,0,0,2,,,,,,,,,1,,,59,60
728464,note_off,24,0,3,,,,,,,,,2,,,83,0
728480,note_on,16,0,3,,,,,,,,,2,,,83,55
728504,note_off,24,0,3,,,,,,,,,2,,,85,0
728520,note_on,16,0,3,,,,,,,,,2,,,85,55
728520,note_off,60,0,2,,,,,,,,,1,,,59,0
728520,note_on,0,0,2,,,,,,,,,1,,,56,60
728544,note_off,24,0,3,,,,,,,,,2,,,83,0
728560,note_on,16,0,3,,,,,,,,,2,,,83,55
728580,note_off,60,0,2,,,,,,,,,1,,,56,0
728580,note_on,0,0,2,,,,,,,,,1,,,59,60
728584,note_off,24,0,3,,,,,,,,,2,,,85,0
728600,note_on,16,0,3,,,,,,,,,2,,,85,55
728624,note_off,24,0,3,,,,,,,,,2,,,83,0
728640,note_on,16,0,3,,,,,,,,,2,,,83,55
728640,note_off,240,0,1,,,,,,,,,0,,,92,0
728640,note_off,60,0,2,,,,,,,,,1,,,59,0
728640,note_off,421,0,4,,,,,,,,,3,,,47,0
728640,note_on,0,0,4,,,,,,,,,3,,,51,63
728664,note_off,24,0,3,,,,,,,,,2,,,85,0
728680,note_on,16,0,3,,,,,,,,,2,,,85,55
728700,note_on,60,0,2,,,,,,,,,1,,,59,60
728704,note_off,24,0,3,,,,,,,,,2,,,83,0
728720,note_on,16,0,3,,,,,,,,,2,,,83,55
728744,note_off,24,0,3,,,,,,,,,2,,,85,0
728760,note_on,16,0,3,,,,,,,,,2,,,85,55
728760,note_on,0,0,2,,,,,,,,,1,,,55,60
728760,note_off,60,0,2,,,,,,,,,1,,,59,0
728784,note_off,24,0,3,,,,,,,,,2,,,83,0
728800,note_on,16,0,3,,,,,,,,,2,,,83,55
728820,note_off,60,0,2,,,,,,,,,1,,,55,0
728820,note_on,0,0,2,,,,,,,,,1,,,59,60
728824,note_off,24,0,3,,,,,,,,,2,,,85,0
728840,note_on,16,0,3,,,,,,,,,2,,,85,55
728864,note_off,24,0,3,,,,,,,,,2,,,83,0
728880,note_on,16,0,3,,,,,,,,,2,,,83,56
728880,note_on,240,0,1,,,,,,,,,0,,,91,65
728880,note_off,60,0,2,,,,,,,,,1,,,59,0
728880,note_on,0,0,2,,,,,,,,,1,,,63,60
728904,note_off,24,0,3,,,,,,,,,2,,,85,0
728920,note_on,16,0,3,,,,,,,,,2,,,85,56
728940,note_off,60,0,2,,,,,,,,,1,,,63,0
728940,note_on,0,0,2,,,,,,,,,1,,,59,60
728944,note_off,24,0,3,,,,,,,,,2,,,83,0
728960,note_on,16,0,3,,,,,,,,,2,,,83,56
728984,note_off,24,0,3,,,,,,,,,2,,,85,0
729000,note_on,0,0,2,,,,,,,,,1,,,55,60
729000,note_off,60,0,2,,,,,,,,,1,,,59,0
729000,note_on,16,0,3,,,,,,,,,2,,,85,56
729024,note_off,24,0,3,,,,,,,,,2,,,83,0
729040,note_on,16,0,3,,,,,,,,,2,,,83,56
729060,note_on,0,0,2,,,,,,,,,1,,,59,60
729060,note_off,60,0,2,,,,,,,,,1,,,55,0
729064,note_off,24,0,3,,,,,,,,,2,,,85,0
729080,note_on,16,0,3,,,,,,,,,2,,,85,56
729104,note_off,24,0,3,,,,,,,,,2,,,83,0
729120,note_off,480,0,4,,,,,,,,,3,,,51,0
729120,note_on,0,0,4,,,,,,,,,3,,,51,63
729120,note_off,240,0,1,,,,,,,,,0,,,91,0
729120,note_on,16,0,3,,,,,,,,,2,,,83,56
729120,note_off,60,0,2,,,,,,,,,1,,,59,0
729144,note_off,24,0,3,,,,,,,,,2,,,85,0
729160,note_on,16,0,3,,,,,,,,,2,,,85,56
729180,note_on,60,0,2,,,,,,,,,1,,,59,61
729184,note_off,24,0,3,,,,,,,,,2,,,83,0
729200,note_on,16,0,3,,,,,,,,,2,,,83,56
729224,note_off,24,0,3,,,,,,,,,2,,,85,0
729240,note_on,0,0,2,,,,,,,,,1,,,56,61
729240,note_off,60,0,2,,,,,,,,,1,,,59,0
729240,note_on,16,0,3,,,,,,,,,2,,,85,56
729264,note_off,24,0,3,,,,,,,,,2,,,83,0
729280,note_on,16,0,3,,,,,,,,,2,,,83,56
729300,note_on,0,0,2,,,,,,,,,1,,,59,61
729300,note_off,60,0,2,,,,,,,,,1,,,56,0
729304,note_off,24,0,3,,,,,,,,,2,,,85,0
729320,note_on,16,0,3,,,,,,,,,2,,,85,56
729344,note_off,24,0,3,,,,,,,,,2,,,83,0
729360,note_on,0,0,2,,,,,,,,,1,,,63,61
729360,note_on,16,0,3,,,,,,,,,2,,,83,56
729360,note_on,240,0,1,,,,,,,,,0,,,92,66
729360,note_off,60,0,2,,,,,,,,,1,,,59,0
729384,note_off,24,0,3,,,,,,,,,2,,,85,0
729400,note_on,16,0,3,,,,,,,,,2,,,85,56
729420,note_on,0,0,2,,,,,,,,,1,,,59,61
729420,note_off,60,0,2,,,,,,,,,1,,,63,0
729424,note_off,24,0,3,,,,,,,,,2,,,83,0
729440,note_on,16,0,3,,,,,,,,,2,,,83,56
729464,note_off,24,0,3,,,,,,,,,2,,,85,0
729480,note_on,16,0,3,,,,,,,,,2,,,85,56
729480,note_off,60,0,2,,,,,,,,,1,,,59,0
729480,note_on,0,0,2,,,,,,,,,1,,,56,61
729504,note_off,24,0,3,,,,,,,,,2,,,83,0
729520,note_on,16,0,3,,,,,,,,,2,,,83,56
729540,note_off,60,0,2,,,,,,,,,1,,,56,0
729540,set_tempo,1320,1,0,,,,,,1111111,,,,,,,
729540,note_on,0,0,2,,,,,,,,,1,,,59,61
729544,note_off,24,0,3,,,,,,,,,2,,,85,0
729560,note_on,16,0,3,,,,,,,,,2,,,85,56
729584,note_off,24,0,3,,,,,,,,,2,,,83,0
729600,note_on,16,0,3,,,,,,,,,2,,,83,56
729600,note_off,480,0,4,,,,,,,,,3,,,51,0
729600,note_off,240,0,1,,,,,,,,,0,,,92,0
729600,note_on,0,0,4,,,,,,,,,3,,,51,64
729600,note_off,60,0,2,,,,,,,,,1,,,59,0
729624,note_off,24,0,3,,,,,,,,,2,,,85,0
729640,note_on,16,0,3,,,,,,,,,2,,,85,56
729660,note_on,60,0,2,,,,,,,,,1,,,63,61
729660,set_tempo,120,1,0,,,,,,1071428,,,,,,,
729664,note_off,24,0,3,,,,,,,,,2,,,83,0
729680,note_on,16,0,3,,,,,,,,,2,,,83,56
729704,note_off,24,0,3,,,,,,,,,2,,,85,0
729720,note_off,60,0,2,,,,,,,,,1,,,63,0
729720,note_on,16,0,3,,,,,,,,,2,,,85,56
729720,note_on,0,0,2,,,,,,,,,1,,,59,61
729744,note_off,24,0,3,,,,,,,,,2,,,83,0
729760,note_on,16,0,3,,,,,,,,,2,,,83,57
729780,note_off,60,0,2,,,,,,,,,1,,,59,0
729780,note_on,0,0,2,,,,,,,,,1,,,63,61
729784,note_off,24,0,3,,,,,,,,,2,,,85,0
729800,note_on,16,0,3,,,,,,,,,2,,,85,57
729824,note_off,24,0,3,,,,,,,,,2,,,83,0
729840,note_on,16,0,3,,,,,,,,,2,,,83,57
729840,note_off,60,0,2,,,,,,,,,1,,,63,0
729840,note_on,0,0,4,,,,,,,,,3,,,54,64
729840,note_off,240,0,4,,,,,,,,,3,,,51,0
729840,note_on,240,0,1,,,,,,,,,0,,,93,66
729864,note_off,24,0,3,,,,,,,,,2,,,85,0
729880,note_on,16,0,3,,,,,,,,,2,,,85,57
729900,note_on,60,0,2,,,,,,,,,1,,,63,61
729904,note_off,24,0,3,,,,,,,,,2,,,83,0
729920,note_on,16,0,3,,,,,,,,,2,,,83,57
729944,note_off,24,0,3,,,,,,,,,2,,,85,0
729960,note_on,0,0,2,,,,,,,,,1,,,59,61
729960,note_off,60,0,2,,,,,,,,,1,,,63,0
729960,note_on,16,0,3,,,,,,,,,2,,,85,57
729984,note_off,24,0,3,,,,,,,,,2,,,83,0
730000,note_on,16,0,3,,,,,,,,,2,,,83,57
730020,note_on,0,0,2,,,,,,,,,1,,,63,61
730020,note_off,60,0,2,,,,,,,,,1,,,59,0
730024,note_off,24,0,3,,,,,,,,,2,,,85,0
730040,note_on,16,0,3,,,,,,,,,2,,,85,57
730064,note_off,24,0,3,,,,,,,,,2,,,83,0
730080,note_off,60,0,2,,,,,,,,,1,,,63,0
730080,note_off,240,0,4,,,,,,,,,3,,,54,0
730080,note_on,0,0,4,,,,,,,,,3,,,57,64
730080,note_on,16,0,3,,,,,,,,,2,,,83,57
730080,note_off,240,0,1,,,,,,,,,0,,,93,0
730104,note_off,24,0,3,,,,,,,,,2,,,85,0
730120,note_on,16,0,3,,,,,,,,,2,,,85,57
730140,note_on,60,0,2,,,,,,,,,1,,,63,61
730144,note_off,24,0,3,,,,,,,,,2,,,83,0
730160,note_on,16,0,3,,,,,,,,,2,,,83,57
730184,note_off,24,0,3,,,,,,,,,2,,,85,0
730200,note_off,60,0,2,,,,,,,,,1,,,63,0
730200,note_on,0,0,2,,,,,,,,,1,,,59,62
730200,note_on,16,0,3,,,,,,,,,2,,,85,57
730224,note_off,24,0,3,,,,,,,,,2,,,83,0
730240,note_on,16,0,3,,,,,,,,,2,,,83,57
730260,note_off,60,0,2,,,,,,,,,1,,,59,0
730260,note_on,0,0,2,,,,,,,,,1,,,63,62
730264,note_off,24,0,3,,,,,,,,,2,,,85,0
730280,note_on,16,0,3,,,,,,,,,2,,,85,57
730304,note_off,24,0,3,,,,,,,,,2,,,83,0
730320,note_on,240,0,1,,,,,,,,,0,,,93,67
730320,note_on,16,0,3,,,,,,,,,2,,,83,57
730320,note_on,0,0,4,,,,,,,,,3,,,59,65
730320,note_off,240,0,4,,,,,,,,,3,,,57,0
730320,note_off,60,0,2,,,,,,,,,1,,,63,0
730344,note_off,24,0,3,,,,,,,,,2,,,85,0
730360,note_on,16,0,3,,,,,,,,,2,,,85,57
730380,note_on,60,0,2,,,,,,,,,1,,,66,62
730384,note_off,24,0,3,,,,,,,,,2,,,83,0
730400,note_on,16,0,3,,,,,,,,,2,,,83,57
730424,note_off,24,0,3,,,,,,,,,2,,,85,0
730440,note_on,16,0,3,,,,,,,,,2,,,85,57
730440,note_on,0,0,2,,,,,,,,,1,,,63,62
730440,note_off,60,0,2,,,,,,,,,1,,,66,0
730464,note_off,24,0,3,,,,,,,,,2,,,83,0
730480,note_on,16,0,3,,,,,,,,,2,,,83,57
730500,note_off,60,0,2,,,,,,,,,1,,,63,0
730500,note_on,0,0,2,,,,,,,,,1,,,66,62
730504,note_off,24,0,3,,,,,,,,,2,,,85,0
730520,note_on,16,0,3,,,,,,,,,2,,,85,57
730544,note_off,24,0,3,,,,,,,,,2,,,83,0
730560,note_off,240,0,1,,,,,,,,,0,,,93,0
730560,note_off,60,0,2,,,,,,,,,1,,,66,0
730560,note_on,16,0,3,,,,,,,,,2,,,83,57
730560,note_off,240,0,4,,,,,,,,,3,,,59,0
730560,note_on,0,0,4,,,,,,,,,3,,,63,65
730584,note_off,24,0,3,,,,,,,,,2,,,85,0
730600,note_on,16,0,3,,,,,,,,,2,,,85,58
730620,note_on,60,0,2,,,,,,,,,1,,,69,62
730624,note_off,24,0,3,,,,,,,,,2,,,83,0
730640,note_on,16,0,3,,,,,,,,,2,,,83,58
730664,note_off,24,0,3,,,,,,,,,2,,,85,0
730680,note_on,16,0,3,,,,,,,,,2,,,85,58
730680,note_off,60,0,2,,,,,,,,,1,,,69,0
730680,note_on,0,0,2,,,,,,,,,1,,,66,62
730704,note_off,24,0,3,,,,,,,,,2,,,83,0
730720,note_on,16,0,3,,,,,,,,,2,,,83,58
730740,note_off,60,0,2,,,,,,,,,1,,,66,0
730740,note_on,0,0,2,,,,,,,,,1,,,69,62
730744,note_off,24,0,3,,,,,,,,,2,,,85,0
730760,note_on,16,0,3,,,,,,,,,2,,,85,58
730784,note_off,24,0,3,,,,,,,,,2,,,83,0
730800,note_off,240,0,4,,,,,,,,,3,,,63,0
730800,note_off,60,0,2,,,,,,,,,1,,,69,0
730800,note_on,240,0,1,,,,,,,,,0,,,97,67
730800,note_on,16,0,3,,,,,,,,,2,,,83,58
730800,note_on,0,0,4,,,,,,,,,3,,,64,65
730824,note_off,24,0,3,,,,,,,,,2,,,85,0
730840,note_on,16,0,3,,,,,,,,,2,,,85,58
730860,note_on,60,0,2,,,,,,,,,1,,,69,62
730864,note_off,24,0,3,,,,,,,,,2,,,83,0
730880,note_on,16,0,3,,,,,,,,,2,,,83,58
730904,note_off,24,0,3,,,,,,,,,2,,,85,0
730920,note_on,0,0,2,,,,,,,,,1,,,66,62
730920,note_off,60,0,2,,,,,,,,,1,,,69,0
730920,note_on,16,0,3,,,,,,,,,2,,,85,58
730944,note_off,24,0,3,,,,,,,,,2,,,83,0
730960,note_on,16,0,3,,,,,,,,,2,,,83,58
730980,note_on,0,0,2,,,,,,,,,1,,,69,62
730980,note_off,60,0,2,,,,,,,,,1,,,66,0
730980,set_tempo,1320,1,0,,,,,,1111111,,,,,,,
730984,note_off,24,0,3,,,,,,,,,2,,,85,0
731000,note_on,16,0,3,,,,,,,,,2,,,85,58
731024,note_off,24,0,3,,,,,,,,,2,,,83,0
731040,note_on,0,0,4,,,,,,,,,3,,,63,66
731040,note_off,240,0,1,,,,,,,,,0,,,97,0
731040,note_on,16,0,3,,,,,,,,,2,,,83,58
731040,note_off,60,0,2,,,,,,,,,1,,,69,0
731040,note_off,240,0,4,,,,,,,,,3,,,64,0
731064,note_off,24,0,3,,,,,,,,,2,,,85,0
731080,note_on,16,0,3,,,,,,,,,2,,,85,58
731100,set_tempo,120,1,0,,,,,,1071428,,,,,,,
731100,note_on,60,0,2,,,,,,,,,1,,,69,62
731104,note_off,24,0,3,,,,,,,,,2,,,83,0
731120,note_on,16,0,3,,,,,,,,,2,,,83,58
731144,note_off,24,0,3,,,,,,,,,2,,,85,0
731160,note_off,60,0,2,,,,,,,,,1,,,69,0
731160,note_on,16,0,3,,,,,,,,,2,,,85,58
731160,note_on,0,0,2,,,,,,,,,1,,,66,62
731184,note_off,24,0,3,,,,,,,,,2,,,83,0
731200,note_on,16,0,3,,,,,,,,,2,,,83,58
731220,note_off,60,0,2,,,,,,,,,1,,,66,0
731220,note_on,0,0,2,,,,,,,,,1,,,69,63
731224,note_off,24,0,3,,,,,,,,,2,,,85,0
731240,note_on,16,0,3,,,,,,,,,2,,,85,58
731264,note_off,24,0,3,,,,,,,,,2,,,83,0
731280,note_on,16,0,3,,,,,,,,,2,,,83,58
731280,note_off,240,0,4,,,,,,,,,3,,,63,0
731280,note_off,60,0,2,,,,,,,,,1,,,69,0
731280,note_on,0,0,4,,,,,,,,,3,,,63,66
731280,note_on,240,0,1,,,,,,,,,0,,,95,68
731304,note_off,24,0,3,,,,,,,,,2,,,85,0
731320,note_on,16,0,3,,,,,,,,,2,,,85,58
731340,note_on,60,0,2,,,,,,,,,1,,,71,63
731344,note_off,24,0,3,,,,,,,,,2,,,83,0
731360,note_on,16,0,3,,,,,,,,,2,,,83,58
731384,note_off,24,0,3,,,,,,,,,2,,,85,0
731400,note_on,16,0,3,,,,,,,,,2,,,85,58
731400,note_off,60,0,2,,,,,,,,,1,,,71,0
731400,note_on,0,0,2,,,,,,,,,1,,,66,63
731424,note_off,24,0,3,,,,,,,,,2,,,83,0
731440,note_on,16,0,3,,,,,,,,,2,,,83,58
731460,note_off,60,0,2,,,,,,,,,1,,,66,0
731460,note_on,0,0,2,,,,,,,,,1,,,71,63
731464,note_off,24,0,3,,,,,,,,,2,,,85,0
731480,note_on,16,0,3,,,,,,,,,2,,,85,59
731504,note_off,24,0,3,,,,,,,,,2,,,83,0
731520,note_on,0,0,4,,,,,,,,,3,,,64,66
731520,note_on,16,0,3,,,,,,,,,2,,,83,59
731520,note_off,240,0,4,,,,,,,,,3,,,63,0
731520,note_off,60,0,2,,,,,,,,,1,,,71,0
731520,note_off,240,0,1,,,,,,,,,0,,,95,0
731544,note_off,24,0,3,,,,,,,,,2,,,85,0
731560,note_on,16,0,3,,,,,,,,,2,,,85,59
731580,note_on,60,0,2,,,,,,,,,1,,,73,63
731584,note_off,24,0,3,,,,,,,,,2,,,83,0
731600,note_on,16,0,3,,,,,,,,,2,,,83,59
731624,note_off,24,0,3,,,,,,,,,2,,,85,0
731640,note_off,60,0,2,,,,,,,,,1,,,73,0
731640,note_on,0,0,2,,,,,,,,,1,,,68,63
731640,note_on,16,0,3,,,,,,,,,2,,,85,59
731664,note_off,24,0,3,,,,,,,,,2,,,83,0
731680,note_on,16,0,3,,,,,,,,,2,,,83,59
731700,note_on,0,0,2,,,,,,,,,1,,,73,63
731700,note_off,60,0,2,,,,,,,,,1,,,68,0
731704,note_off,24,0,3,,,,,,,,,2,,,85,0
731720,note_on,16,0,3,,,,,,,,,2,,,85,59
731744,note_off,24,0,3,,,,,,,,,2,,,83,0
731760,note_on,240,0,1,,,,,,,,,0,,,93,68
731760,note_off,60,0,2,,,,,,,,,1,,,73,0
731760,note_on,0,0,4,,,,,,,,,3,,,66,66
731760,note_off,240,0,4,,,,,,,,,3,,,64,0
731760,note_on,16,0,3,,,,,,,,,2,,,83,59
731784,note_off,24,0,3,,,,,,,,,2,,,85,0
731800,note_on,16,0,3,,,,,,,,,2,,,85,59
731820,note_on,60,0,2,,,,,,,,,1,,,75,63
731824,note_off,24,0,3,,,,,,,,,2,,,83,0
731840,note_on,16,0,3,,,,,,,,,2,,,83,59
731864,note_off,24,0,3,,,,,,,,,2,,,85,0
731880,note_on,0,0,2,,,,,,,,,1,,,69,63
731880,note_off,60,0,2,,,,,,,,,1,,,75,0
731880,note_on,16,0,3,,,,,,,,,2,,,85,59
731904,note_off,24,0,3,,,,,,,,,2,,,83,0
731920,note_on,16,0,3,,,,,,,,,2,,,83,59
731940,note_on,0,0,2,,,,,,,,,1,,,75,63
731940,note_off,60,0,2,,,,,,,,,1,,,69,0
731944,note_off,24,0,3,,,,,,,,,2,,,85,0
731960,note_on,16,0,3,,,,,,,,,2,,,85,59
731984,note_off,24,0,3,,,,,,,,,2,,,83,0
732000,note_off,240,0,1,,,,,,,,,0,,,93,0
732000,note_on,16,0,3,,,,,,,,,2,,,83,59
732000,note_off,240,0,4,,,,,,,,,3,,,66,0
732000,note_off,60,0,2,,,,,,,,,1,,,75,0
732000,note_on,0,0,4,,,,,,,,,3,,,68,67
732024,note_off,24,0,3,,,,,,,,,2,,,85,0
732040,note_on,16,0,3,,,,,,,,,2,,,85,59
732060,note_on,60,0,4,,,,,,,,,3,,,76,67
732064,note_off,24,0,3,,,,,,,,,2,,,83,0
732080,note_on,16,0,3,,,,,,,,,2,,,83,59
732104,note_off,24,0,3,,,,,,,,,2,,,85,0
732120,note_on,16,0,3,,,,,,,,,2,,,85,59
732120,note_on,60,0,4,,,,,,,,,3,,,75,67
732144,note_off,24,0,3,,,,,,,,,2,,,83,0
732160,note_on,16,0,3,,,,,,,,,2,,,83,59
732180,note_off,60,0,4,,,,,,,,,3,,,75,0
732180,note_off,0,0,4,,,,,,,,,3,,,76,0
732180,note_on,0,0,4,,,,,,,,,3,,,76,67
732184,note_off,24,0,3,,,,,,,,,2,,,85,0
732200,note_on,16,0,3,,,,,,,,,2,,,85,59
732224,note_off,24,0,3,,,,,,,,,2,,,83,0
732240,note_on,0,0,4,,,,,,,,,3,,,75,67
732240,note_on,16,0,3,,,,,,,,,2,,,83,59
732240,note_on,240,0,1,,,,,,,,,0,,,92,67
732240,note_off,60,0,4,,,,,,,,,3,,,68,0
732264,note_off,24,0,3,,,,,,,,,2,,,85,0
732280,note_on,16,0,3,,,,,,,,,2,,,85,59
732300,note_off,60,0,4,,,,,,,,,3,,,76,0
732300,note_on,0,0,4,,,,,,,,,3,,,76,67
732304,note_off,24,0,3,,,,,,,,,2,,,83,0
732320,note_on,16,0,3,,,,,,,,,2,,,83,60
732344,note_off,24,0,3,,,,,,,,,2,,,85,0
732360,note_off,60,0,4,,,,,,,,,3,,,75,0
732360,note_on,16,0,3,,,,,,,,,2,,,85,60
732360,note_on,0,0,4,,,,,,,,,3,,,73,67
732384,note_off,24,0,3,,,,,,,,,2,,,83,0
732400,note_on,16,0,3,,,,,,,,,2,,,83,60
732420,note_off,60,0,4,,,,,,,,,3,,,73,0
732420,note_off,0,0,4,,,,,,,,,3,,,76,0
732420,note_on,0,0,4,,,,,,,,,3,,,70,67
732420,set_tempo,1320,1,0,,,,,,1111111,,,,,,,
732424,note_off,24,0,3,,,,,,,,,2,,,85,0
732440,note_on,16,0,3,,,,,,,,,2,,,85,60
732464,note_off,24,0,3,,,,,,,,,2,,,83,0
732480,note_off,240,0,1,,,,,,,,,0,,,92,0
732480,note_off,60,0,4,,,,,,,,,3,,,70,0
732480,note_on,0,0,4,,,,,,,,,3,,,71,67
732480,note_on,16,0,3,,,,,,,,,2,,,83,60
732504,note_off,24,0,3,,,,,,,,,2,,,85,0
732520,note_on,16,0,3,,,,,,,,,2,,,85,59
732540,note_on,60,0,4,,,,,,,,,3,,,68,66
732540,set_tempo,120,1,0,,,,,,1071428,,,,,,,
732544,note_off,24,0,3,,,,,,,,,2,,,83,0
732560,note_on,16,0,3,,,,,,,,,2,,,83,59
732584,note_off,24,0,3,,,,,,,,,2,,,85,0
732600,note_off,60,0,4,,,,,,,,,3,,,71,0
732600,note_on,0,0,4,,,,,,,,,3,,,66,66
732600,note_on,16,0,3,,,,,,,,,2,,,85,59
732624,note_off,24,0,3,,,,,,,,,2,,,83,0
732640,note_on,16,0,3,,,,,,,,,2,,,83,59
732660,note_off,0,0,4,,,,,,,,,3,,,68,0
732660,note_off,60,0,4,,,,,,,,,3,,,66,0
732660,note_on,0,0,4,,,,,,,,,3,,,64,65
732664,note_off,24,0,3,,,,,,,,,2,,,85,0
732680,note_on,16,0,3,,,,,,,,,2,,,85,59
732704,note_off,24,0,3,,,,,,,,,2,,,83,0
732720,note_on,16,0,3,,,,,,,,,2,,,83,59
732720,note_on,60,0,4,,,,,,,,,3,,,63,65
732720,note_on,240,0,1,,,,,,,,,0,,,92,66
732744,note_off,24,0,3,,,,,,,,,2,,,85,0
732760,note_on,16,0,3,,,,,,,,,2,,,85,58
732780,note_off,60,0,4,,,,,,,,,3,,,64,0
732780,note_on,0,0,4,,,,,,,,,3,,,64,65
732784,note_off,24,0,3,,,,,,,,,2,,,83,0
732800,note_on,16,0,3,,,,,,,,,2,,,83,58
732824,note_off,24,0,3,,,,,,,,,2,,,85,0
732840,note_on,0,0,4,,,,,,,,,3,,,63,64
732840,note_on,16,0,3,,,,,,,,,2,,,85,58
732840,note_off,60,0,4,,,,,,,,,3,,,63,0
732864,note_off,24,0,3,,,,,,,,,2,,,83,0
732880,note_on,16,0,3,,,,,,,,,2,,,83,58
732900,note_on,0,0,4,,,,,,,,,3,,,61,64
732900,note_off,60,0,4,,,,,,,,,3,,,63,0
732900,note_off,0,0,4,,,,,,,,,3,,,64,0
732904,note_off,24,0,3,,,,,,,,,2,,,85,0
732920,note_on,16,0,3,,,,,,,,,2,,,85,58
732944,note_off,24,0,3,,,,,,,,,2,,,83,0
732960,note_off,240,0,1,,,,,,,,,0,,,92,0
732960,note_on,60,0,4,,,,,,,,,3,,,59,63
732960,note_on,16,0,3,,,,,,,,,2,,,83,58
732984,note_off,24,0,3,,,,,,,,,2,,,85,0
733000,note_on,16,0,3,,,,,,,,,2,,,85,58
733020,note_on,0,0,4,,,,,,,,,3,,,57,63
733020,note_off,60,0,4,,,,,,,,,3,,,61,0
733024,note_off,24,0,3,,,,,,,,,2,,,83,0
733040,note_on,16,0,3,,,,,,,,,2,,,83,57
733064,note_off,24,0,3,,,,,,,,,2,,,85,0
733080,note_on,0,0,4,,,,,,,,,3,,,56,62
733080,note_on,16,0,3,,,,,,,,,2,,,85,57
733080,note_off,60,0,4,,,,,,,,,3,,,59,0
733104,note_off,24,0,3,,,,,,,,,2,,,83,0
733120,note_on,16,0,3,,,,,,,,,2,,,83,57
733140,note_on,0,0,4,,,,,,,,,3,,,54,62
733140,note_off,60,0,4,,,,,,,,,3,,,56,0
733140,note_off,0,0,4,,,,,,,,,3,,,57,0
733144,note_off,24,0,3,,,,,,,,,2,,,85,0
733160,note_on,16,0,3,,,,,,,,,2,,,85,57
733184,note_off,24,0,3,,,,,,,,,2,,,83,0
733200,note_on,16,0,3,,,,,,,,,2,,,83,57
733200,note_on,60,0,4,,,,,,,,,3,,,52,61
733200,note_on,240,0,1,,,,,,,,,0,,,95,64
733224,note_off,24,0,3,,,,,,,,,2,,,85,0
733240,note_on,16,0,3,,,,,,,,,2,,,85,57
733260,note_on,0,0,4,,,,,,,,,3,,,51,61
733260,note_off,60,0,4,,,,,,,,,3,,,54,0
733264,note_off,24,0,3,,,,,,,,,2,,,83,0
733280,note_on,16,0,3,,,,,,,,,2,,,83,57
733304,note_off,24,0,3,,,,,,,,,2,,,85,0
733320,note_on,16,0,3,,,,,,,,,2,,,85,56
733320,note_on,0,0,4,,,,,,,,,3,,,49,60
733320,note_off,60,0,4,,,,,,,,,3,,,52,0
733344,note_off,24,0,3,,,,,,,,,2,,,83,0
733360,note_on,16,0,3,,,,,,,,,2,,,83,56
733380,note_off,60,0,4,,,,,,,,,3,,,49,0
733380,note_on,0,0,4,,,,,,,,,3,,,47,60
733380,note_off,0,0,4,,,,,,,,,3,,,51,0
733384,note_off,24,0,3,,,,,,,,,2,,,85,0
733400,note_on,16,0,3,,,,,,,,,2,,,85,56
733424,note_off,24,0,3,,,,,,,,,2,,,83,0
733440,note_on,16,0,3,,,,,,,,,2,,,83,56
733440,note_off,240,0,1,,,,,,,,,0,,,95,0
733440,note_on,60,0,4,,,,,,,,,3,,,45,59
733464,note_off,24,0,3,,,,,,,,,2,,,85,0
733480,note_on,16,0,3,,,,,,,,,2,,,85,56
733500,note_off,60,0,4,,,,,,,,,3,,,47,0
733500,note_on,0,0,4,,,,,,,,,3,,,44,59
733504,note_off,24,0,3,,,,,,,,,2,,,83,0
733520,note_on,16,0,3,,,,,,,,,2,,,83,56
733544,note_off,24,0,3,,,,,,,,,2,,,85,0
733560,note_on,0,0,4,,,,,,,,,3,,,42,58
733560,note_off,60,0,4,,,,,,,,,3,,,45,0
733560,note_on,16,0,3,,,,,,,,,2,,,85,55
733584,note_off,24,0,3,,,,,,,,,2,,,83,0
733600,note_on,16,0,3,,,,,,,,,2,,,83,55
733620,note_off,60,0,4,,,,,,,,,3,,,42,0
733620,note_off,0,0,4,,,,,,,,,3,,,44,0
733620,note_on,0,0,4,,,,,,,,,3,,,40,58
733624,note_off,24,0,3,,,,,,,,,2,,,85,0
733640,note_on,16,0,3,,,,,,,,,2,,,85,55
733664,note_off,24,0,3,,,,,,,,,2,,,83,0
733680,note_on,240,0,1,,,,,,,,,0,,,93,63
733680,note_on,60,0,4,,,,,,,,,3,,,39,57
733680,note_on,16,0,3,,,,,,,,,2,,,83,55
733704,note_off,24,0,3,,,,,,,,,2,,,85,0
733720,note_on,16,0,3,,,,,,,,,2,,,85,55
733740,note_on,0,0,4,,,,,,,,,3,,,35,57
733740,note_off,60,0,4,,,,,,,,,3,,,40,0
733744,note_off,24,0,3,,,,,,,,,2,,,83,0
733760,note_on,16,0,3,,,,,,,,,2,,,83,55
733784,note_off,24,0,3,,,,,,,,,2,,,85,0
733800,note_on,16,0,3,,,,,,,,,2,,,85,55
733800,note_off,60,0,4,,,,,,,,,3,,,39,0
733800,note_on,0,0,4,,,,,,,,,3,,,37,57
733824,note_off,24,0,3,,,,,,,,,2,,,83,0
733840,note_on,16,0,3,,,,,,,,,2,,,83,54
733860,note_off,60,0,4,,,,,,,,,3,,,37,0
733860,note_off,0,0,4,,,,,,,,,3,,,35,0
733860,note_on,0,0,4,,,,,,,,,3,,,39,56
733860,set_tempo,1320,1,0,,,,,,1111111,,,,,,,
733864,note_off,24,0,3,,,,,,,,,2,,,85,0
733880,note_on,16,0,3,,,,,,,,,2,,,85,54
733904,note_off,24,0,3,,,,,,,,,2,,,83,0
733920,note_off,240,0,1,,,,,,,,,0,,,93,0
733920,note_on,16,0,3,,,,,,,,,2,,,83,54
733920,note_off,60,0,4,,,,,,,,,3,,,39,0
733920,note_on,0,0,4,,,,,,,,,3,,,40,56
733944,note_off,24,0,3,,,,,,,,,2,,,85,0
733960,note_on,16,0,3,,,,,,,,,2,,,85,54
733980,note_on,1980,0,2,,,,,,,,,1,,,42,57
733980,set_tempo,120,1,0,,,,,,1071428,,,,,,,
733984,note_off,24,0,3,,,,,,,,,2,,,83,0
734000,note_on,16,0,3,,,,,,,,,2,,,83,54
734024,note_off,24,0,3,,,,,,,,,2,,,85,0
734040,note_on,0,0,2,,,,,,,,,1,,,45,57
734040,note_off,60,0,2,,,,,,,,,1,,,42,0
734040,note_on,16,0,3,,,,,,,,,2,,,85,54
734064,note_off,24,0,3,,,,,,,,,2,,,83,0
734080,note_on,16,0,3,,,,,,,,,2,,,83,54
734100,note_off,60,0,2,,,,,,,,,1,,,45,0
734100,note_on,0,0,2,,,,,,,,,1,,,47,56
734104,note_off,24,0,3,,,,,,,,,2,,,85,0
734120,note_on,16,0,3,,,,,,,,,2,,,85,53
734144,note_off,24,0,3,,,,,,,,,2,,,83,0
734160,note_on,0,0,2,,,,,,,,,1,,,42,56
734160,note_on,240,0,1,,,,,,,,,0,,,93,61
734160,note_off,60,0,2,,,,,,,,,1,,,47,0
734160,note_on,16,0,3,,,,,,,,,2,,,83,53
734184,note_off,24,0,3,,,,,,,,,2,,,85,0
734200,note_on,16,0,3,,,,,,,,,2,,,85,53
734220,note_on,0,0,2,,,,,,,,,1,,,45,56
734220,note_off,60,0,2,,,,,,,,,1,,,42,0
734224,note_off,24,0,3,,,,,,,,,2,,,83,0
734240,note_on,16,0,3,,,,,,,,,2,,,83,53
734264,note_off,24,0,3,,,,,,,,,2,,,85,0
734280,note_on,0,0,2,,,,,,,,,1,,,47,55
734280,note_off,60,0,2,,,,,,,,,1,,,45,0
734280,note_on,16,0,3,,,,,,,,,2,,,85,53
734304,note_off,24,0,3,,,,,,,,,2,,,83,0
734320,note_on,16,0,3,,,,,,,,,2,,,83,53
734340,note_on,0,0,2,,,,,,,,,1,,,51,55
734340,note_off,60,0,2,,,,,,,,,1,,,47,0
734344,note_off,24,0,3,,,,,,,,,2,,,85,0
734360,note_on,16,0,3,,,,,,,,,2,,,85,53
734376,note_off,456,0,4,,,,,,,,,3,,,40,0
734384,note_off,24,0,3,,,,,,,,,2,,,83,0
734400,note_off,60,0,2,,,,,,,,,1,,,51,0
734400,note_off,240,0,1,,,,,,,,,0,,,93,0
734400,note_on,24,0,4,,,,,,,,,3,,,40,54
734400,note_on,16,0,3,,,,,,,,,2,,,83,52
734424,note_off,24,0,3,,,,,,,,,2,,,85,0
734440,note_on,16,0,3,,,,,,,,,2,,,85,52
734460,note_on,60,0,2,,,,,,,,,1,,,42,54
734464,note_off,24,0,3,,,,,,,,,2,,,83,0
734480,note_on,16,0,3,,,,,,,,,2,,,83,52
734504,note_off,24,0,3,,,,,,,,,2,,,85,0
734520,note_on,16,0,3,,,,,,,,,2,,,85,52
734520,note_off,60,0,2,,,,,,,,,1,,,42,0
734520,note_on,0,0,2,,,,,,,,,1,,,45,54
734544,note_off,24,0,3,,,,,,,,,2,,,83,0
734560,note_on,16,0,3,,,,,,,,,2,,,83,52
734580,note_off,60,0,2,,,,,,,,,1,,,45,0
734580,note_on,0,0,2,,,,,,,,,1,,,47,54
734584,note_off,24,0,3,,,,,,,,,2,,,85,0
734600,note_on,16,0,3,,,,,,,,,2,,,85,52
734624,note_off,24,0,3,,,,,,,,,2,,,83,0
734640,note_off,60,0,2,,,,,,,,,1,,,47,0
734640,note_on,240,0,1,,,,,,,,,0,,,90,60
734640,note_on,16,0,3,,,,,,,,,2,,,83,51
734640,note_on,0,0,2,,,,,,,,,1,,,42,54
734664,note_off,24,0,3,,,,,,,,,2,,,85,0
734680,note_on,16,0,3,,,,,,,,,2,,,85,51
734700,note_on,0,0,2,,,,,,,,,1,,,45,53
734700,note_off,60,0,2,,,,,,,,,1,,,42,0
734704,note_off,24,0,3,,,,,,,,,2,,,83,0
734720,note_on,16,0,3,,,,,,,,,2,,,83,51
734744,note_off,24,0,3,,,,,,,,,2,,,85,0
734760,note_on,0,0,2,,,,,,,,,1,,,47,53
734760,note_off,60,0,2,,,,,,,,,1,,,45,0
734760,note_on,16,0,3,,,,,,,,,2,,,85,51
734784,note_off,24,0,3,,,,,,,,,2,,,83,0
734800,note_on,16,0,3,,,,,,,,,2,,,83,51
734820,note_off,60,0,2,,,,,,,,,1,,,47,0
734820,note_on,0,0,2,,,,,,,,,1,,,51,53
734824,note_off,24,0,3,,,,,,,,,2,,,85,0
734840,note_on,16,0,3,,,,,,,,,2,,,85,51
734847,note_off,447,0,4,,,,,,,,,3,,,40,0
734864,note_off,24,0,3,,,,,,,,,2,,,83,0
734880,note_off,60,0,2,,,,,,,,,1,,,51,0
734880,note_off,240,0,1,,,,,,,,,0,,,90,0
734880,note_on,33,0,4,,,,,,,,,3,,,40,51
734880,note_on,16,0,3,,,,,,,,,2,,,83,51
734904,note_off,24,0,3,,,,,,,,,2,,,85,0
734920,note_on,16,0,3,,,,,,,,,2,,,85,50
734940,note_on,60,0,2,,,,,,,,,1,,,42,52
734944,note_off,24,0,3,,,,,,,,,2,,,83,0
734960,note_on,16,0,3,,,,,,,,,2,,,83,50
734984,note_off,24,0,3,,,,,,,,,2,,,85,0
735000,note_off,60,0,2,,,,,,,,,1,,,42,0
735000,note_on,16,0,3,,,,,,,,,2,,,85,50
735000,note_on,0,0,2,,,,,,,,,1,,,45,52
735024,note_off,24,0,3,,,,,,,,,2,,,83,0
735040,note_on,16,0,3,,,,,,,,,2,,,83,50
735060,note_on,0,0,2,,,,,,,,,1,,,47,52
735060,note_off,60,0,2,,,,,,,,,1,,,45,0
735064,note_off,24,0,3,,,,,,,,,2,,,85,0
735080,note_on,16,0,3,,,,,,,,,2,,,85,50
735104,note_off,24,0,3,,,,,,,,,2,,,83,0
735120,note_on,16,0,3,,,,,,,,,2,,,83,50
735120,note_off,60,0,2,,,,,,,,,1,,,47,0
735120,note_on,0,0,2,,,,,,,,,1,,,42,51
735120,note_on,240,0,1,,,,,,,,,0,,,87,58
735144,note_off,24,0,3,,,,,,,,,2,,,85,0
735160,note_on,16,0,3,,,,,,,,,2,,,85,50
735180,note_on,0,0,2,,,,,,,,,1,,,45,51
735180,note_off,60,0,2,,,,,,,,,1,,,42,0
735184,note_off,24,0,3,,,,,,,,,2,,,83,0
735200,note_on,16,0,3,,,,,,,,,2,,,83,49
735224,note_off,24,0,3,,,,,,,,,2,,,85,0
735240,note_on,0,0,2,,,,,,,,,1,,,47,51
735240,note_on,16,0,3,,,,,,,,,2,,,85,49
735240,note_off,60,0,2,,,,,,,,,1,,,45,0
735264,note_off,24,0,3,,,,,,,,,2,,,83,0
735280,note_on,16,0,3,,,,,,,,,2,,,83,49
735300,set_tempo,1320,1,0,,,,,,1111111,,,,,,,
735300,note_off,60,0,2,,,,,,,,,1,,,47,0
735300,note_on,0,0,2,,,,,,,,,1,,,51,50
735304,note_off,24,0,3,,,,,,,,,2,,,85,0
735320,note_on,16,0,3,,,,,,,,,2,,,85,49
735327,note_off,447,0,4,,,,,,,,,3,,,40,0
735344,note_off,24,0,3,,,,,,,,,2,,,83,0
735360,note_on,16,0,3,,,,,,,,,2,,,83,49
735360,note_off,0,0,1,,,,,,,,,0,,,87,0
735360,control_change,240,0,1,,,,,,,64,0,0,,,,
735360,note_off,60,0,2,,,,,,,,,1,,,51,0
735360,note_on,33,0,4,,,,,,,,,3,,,40,49
735384,note_off,24,0,3,,,,,,,,,2,,,85,0
735400,note_on,16,0,3,,,,,,,,,2,,,85,49
735420,note_on,60,0,2,,,,,,,,,1,,,42,50
735424,note_off,24,0,3,,,,,,,,,2,,,83,0
735440,note_on,16,0,3,,,,,,,,,2,,,83,49
735464,note_off,24,0,3,,,,,,,,,2,,,85,0
735480,note_on,16,0,3,,,,,,,,,2,,,85,48
735480,note_on,0,0,2,,,,,,,,,1,,,45,50
735480,note_off,60,0,2,,,,,,,,,1,,,42,0
735504,note_off,24,0,3,,,,,,,,,2,,,83,0
735520,note_on,16,0,3,,,,,,,,,2,,,83,48
735540,note_on,0,0,2,,,,,,,,,1,,,47,49
735540,note_off,60,0,2,,,,,,,,,1,,,45,0
735544,note_off,24,0,3,,,,,,,,,2,,,85,0
735560,note_on,16,0,3,,,,,,,,,2,,,85,48
735584,note_off,24,0,3,,,,,,,,,2,,,83,0
735600,note_on,0,0,1,,,,,,,,,0,,,81,57
735600,note_on,16,0,3,,,,,,,,,2,,,83,48
735600,control_change,240,0,1,,,,,,,64,127,0,,,,
735600,note_off,60,0,2,,,,,,,,,1,,,47,0
735600,note_on,0,0,2,,,,,,,,,1,,,42,49
735624,note_off,24,0,3,,,,,,,,,2,,,85,0
735640,note_on,16,0,3,,,,,,,,,2,,,85,48
735660,note_on,0,0,2,,,,,,,,,1,,,45,49
735660,note_off,60,0,2,,,,,,,,,1,,,42,0
735664,note_off,24,0,3,,,,,,,,,2,,,83,0
735680,note_on,16,0,3,,,,,,,,,2,,,83,48
735704,note_off,24,0,3,,,,,,,,,2,,,85,0
735720,note_on,16,0,3,,,,,,,,,2,,,85,47
735720,note_off,60,0,2,,,,,,,,,1,,,45,0
735720,note_on,0,0,2,,,,,,,,,1,,,47,48
735744,note_off,24,0,3,,,,,,,,,2,,,83,0
735760,note_on,16,0,3,,,,,,,,,2,,,83,47
735780,note_off,60,0,2,,,,,,,,,1,,,47,0
735780,note_on,0,0,2,,,,,,,,,1,,,51,48
735784,note_off,24,0,3,,,,,,,,,2,,,85,0
735800,note_on,16,0,3,,,,,,,,,2,,,85,47
735807,note_off,447,0,4,,,,,,,,,3,,,40,0
735824,note_off,24,0,3,,,,,,,,,2,,,83,0
735840,note_on,16,0,3,,,,,,,,,2,,,83,47
735840,note_on,33,0,4,,,,,,,,,3,,,40,47
735840,note_off,240,0,1,,,,,,,,,0,,,81,0
735840,note_off,60,0,2,,,,,,,,,1,,,51,0
735864,note_off,24,0,3,,,,,,,,,2,,,85,0
735880,note_on,16,0,3,,,,,,,,,2,,,85,47
735900,note_on,60,0,2,,,,,,,,,1,,,42,47
735904,note_off,24,0,3,,,,,,,,,2,,,83,0
735920,note_on,16,0,3,,,,,,,,,2,,,83,47
735944,note_off,24,0,3,,,,,,,,,2,,,85,0
735960,note_on,16,0,3,,,,,,,,,2,,,85,47
735960,note_off,60,0,2,,,,,,,,,1,,,42,0
735960,note_on,0,0,2,,,,,,,,,1,,,45,47
735984,note_off,24,0,3,,,,,,,,,2,,,83,0
736000,note_on,16,0,3,,,,,,,,,2,,,83,46
736020,note_on,0,0,2,,,,,,,,,1,,,47,47
736020,note_off,60,0,2,,,,,,,,,1,,,45,0
736024,note_off,24,0,3,,,,,,,,,2,,,85,0
736040,note_on,16,0,3,,,,,,,,,2,,,85,46
736064,note_off,24,0,3,,,,,,,,,2,,,83,0
736080,note_on,240,0,1,,,,,,,,,0,,,78,55
736080,note_on,0,0,2,,,,,,,,,1,,,42,47
736080,note_off,60,0,2,,,,,,,,,1,,,47,0
736080,note_on,16,0,3,,,,,,,,,2,,,83,46
736104,note_off,24,0,3,,,,,,,,,2,,,85,0
736120,note_on,16,0,3,,,,,,,,,2,,,85,46
736140,note_on,0,0,2,,,,,,,,,1,,,45,46
736140,note_off,60,0,2,,,,,,,,,1,,,42,0
736144,note_off,24,0,3,,,,,,,,,2,,,83,0
736160,note_on,16,0,3,,,,,,,,,2,,,83,46
736184,note_off,24,0,3,,,,,,,,,2,,,85,0
736200,note_on,16,0,3,,,,,,,,,2,,,85,46
736200,note_on,0,0,2,,,,,,,,,1,,,47,46
736200,note_off,60,0,2,,,,,,,,,1,,,45,0
736224,note_off,24,0,3,,,,,,,,,2,,,83,0
736240,note_on,16,0,3,,,,,,,,,2,,,83,46
736260,note_on,0,0,2,,,,,,,,,1,,,51,46
736260,note_off,60,0,2,,,,,,,,,1,,,47,0
736264,note_off,24,0,3,,,,,,,,,2,,,85,0
736280,note_on,16,0,3,,,,,,,,,2,,,85,45
736287,note_off,447,0,4,,,,,,,,,3,,,40,0
736304,note_off,24,0,3,,,,,,,,,2,,,83,0
736320,note_off,240,0,1,,,,,,,,,0,,,78,0
736320,note_on,33,0,4,,,,,,,,,3,,,40,45
736320,note_off,60,0,2,,,,,,,,,1,,,51,0
736320,note_on,16,0,3,,,,,,,,,2,,,83,45
736344,note_off,24,0,3,,,,,,,,,2,,,85,0
736360,note_on,16,0,3,,,,,,,,,2,,,85,45
736380,note_on,60,0,2,,,,,,,,,1,,,42,45
736384,note_off,24,0,3,,,,,,,,,2,,,83,0
736400,note_on,16,0,3,,,,,,,,,2,,,83,45
736424,note_off,24,0,3,,,,,,,,,2,,,85,0
736440,note_off,60,0,2,,,,,,,,,1,,,42,0
736440,note_on,16,0,3,,,,,,,,,2,,,85,45
736440,note_on,0,0,2,,,,,,,,,1,,,45,45
736464,note_off,24,0,3,,,,,,,,,2,,,83,0
736480,note_on,16,0,3,,,,,,,,,2,,,83,45
736500,note_on,0,0,2,,,,,,,,,1,,,47,45
736500,note_off,60,0,2,,,,,,,,,1,,,45,0
736504,note_off,24,0,3,,,,,,,,,2,,,85,0
736520,note_on,16,0,3,,,,,,,,,2,,,85,45
736544,note_off,24,0,3,,,,,,,,,2,,,83,0
736560,note_on,0,0,2,,,,,,,,,1,,,42,44
736560,note_on,16,0,3,,,,,,,,,2,,,83,44
736560,note_off,60,0,2,,,,,,,,,1,,,47,0
736560,note_on,240,0,1,,,,,,,,,0,,,75,54
736584,note_off,24,0,3,,,,,,,,,2,,,85,0
736600,note_on,16,0,3,,,,,,,,,2,,,85,44
736620,note_off,60,0,2,,,,,,,,,1,,,42,0
736620,note_on,0,0,2,,,,,,,,,1,,,45,44
736624,note_off,24,0,3,,,,,,,,,2,,,83,0
736640,note_on,16,0,3,,,,,,,,,2,,,83,44
736664,note_off,24,0,3,,,,,,,,,2,,,85,0
736680,note_on,16,0,3,,,,,,,,,2,,,85,44
736680,note_on,0,0,2,,,,,,,,,1,,,47,44
736680,note_off,60,0,2,,,,,,,,,1,,,45,0
736704,note_off,24,0,3,,,,,,,,,2,,,83,0
736720,note_on,16,0,3,,,,,,,,,2,,,83,44
736740,note_on,0,0,2,,,,,,,,,1,,,51,43
736740,note_off,60,0,2,,,,,,,,,1,,,47,0
736740,set_tempo,1440,1,0,,,,,,1176470,,,,,,,
736744,note_off,24,0,3,,,,,,,,,2,,,85,0
736760,note_on,16,0,3,,,,,,,,,2,,,85,44
736767,note_off,447,0,4,,,,,,,,,3,,,40,0
736784,note_off,24,0,3,,,,,,,,,2,,,83,0
736800,note_on,16,0,3,,,,,,,,,2,,,71,43
736800,note_off,240,0,1,,,,,,,,,0,,,75,0
736800,note_off,60,0,2,,,,,,,,,1,,,51,0
736800,note_on,33,0,4,,,,,,,,,3,,,40,43
736824,note_off,24,0,3,,,,,,,,,2,,,85,0
736840,note_on,16,0,3,,,,,,,,,2,,,73,43
736860,note_on,60,0,2,,,,,,,,,1,,,42,43
736864,note_off,24,0,3,,,,,,,,,2,,,71,0
736880,note_on,16,0,3,,,,,,,,,2,,,71,43
736904,note_off,24,0,3,,,,,,,,,2,,,73,0
736920,note_on,0,0,2,,,,,,,,,1,,,45,42
736920,note_off,60,0,2,,,,,,,,,1,,,42,0
736920,note_on,16,0,3,,,,,,,,,2,,,73,43
736944,note_off,24,0,3,,,,,,,,,2,,,71,0
736960,note_on,16,0,3,,,,,,,,,2,,,71,43
736980,note_on,0,0,2,,,,,,,,,1,,,47,42
736980,note_off,60,0,2,,,,,,,,,1,,,45,0
736984,note_off,24,0,3,,,,,,,,,2,,,73,0
737000,note_on,16,0,3,,,,,,,,,2,,,73,43
737024,note_off,24,0,3,,,,,,,,,2,,,71,0
737040,note_on,16,0,3,,,,,,,,,2,,,71,43
737040,note_off,60,0,2,,,,,,,,,1,,,47,0
737040,note_on,240,0,1,,,,,,,,,0,,,81,52
737040,note_on,0,0,2,,,,,,,,,1,,,42,42
737064,note_off,24,0,3,,,,,,,,,2,,,73,0
737080,note_on,16,0,3,,,,,,,,,2,,,73,42
737100,note_on,0,0,2,,,,,,,,,1,,,45,42
737100,note_off,60,0,2,,,,,,,,,1,,,42,0
737104,note_off,24,0,3,,,,,,,,,2,,,71,0
737120,note_on,16,0,3,,,,,,,,,2,,,71,42
737144,note_off,24,0,3,,,,,,,,,2,,,73,0
737160,note_on,0,0,2,,,,,,,,,1,,,47,41
737160,note_off,60,0,2,,,,,,,,,1,,,45,0
737160,note_on,16,0,3,,,,,,,,,2,,,73,42
737184,note_off,24,0,3,,,,,,,,,2,,,71,0
737200,note_on,16,0,3,,,,,,,,,2,,,71,42
737220,note_on,0,0,2,,,,,,,,,1,,,51,41
737220,note_off,60,0,2,,,,,,,,,1,,,47,0
737224,note_off,24,0,3,,,,,,,,,2,,,73,0
737240,note_on,16,0,3,,,,,,,,,2,,,73,42
737247,note_off,447,0,4,,,,,,,,,3,,,40,0
737264,note_off,24,0,3,,,,,,,,,2,,,71,0
737280,note_off,60,0,2,,,,,,,,,1,,,51,0
737280,note_off,240,0,1,,,,,,,,,0,,,81,0
737280,note_on,33,0,4,,,,,,,,,3,,,40,41
737280,note_on,16,0,3,,,,,,,,,2,,,71,42
737304,note_off,24,0,3,,,,,,,,,2,,,73,0
737320,note_on,16,0,3,,,,,,,,,2,,,73,42
737340,note_on,60,0,2,,,,,,,,,1,,,42,40
737344,note_off,24,0,3,,,,,,,,,2,,,71,0
737360,note_on,16,0,3,,,,,,,,,2,,,71,41
737384,note_off,24,0,3,,,,,,,,,2,,,73,0
737400,note_on,0,0,2,,,,,,,,,1,,,45,40
737400,note_off,60,0,2,,,,,,,,,1,,,42,0
737400,note_on,16,0,3,,,,,,,,,2,,,73,41
737424,note_off,24,0,3,,,,,,,,,2,,,71,0
737440,note_on,16,0,3,,,,,,,,,2,,,71,41
737460,note_on,0,0,2,,,,,,,,,1,,,47,40
737460,note_off,60,0,2,,,,,,,,,1,,,45,0
737464,note_off,24,0,3,,,,,,,,,2,,,73,0
737480,note_on,16,0,3,,,,,,,,,2,,,73,41
737504,note_off,24,0,3,,,,,,,,,2,,,71,0
737520,note_on,240,0,1,,,,,,,,,0,,,78,51
737520,note_on,16,0,3,,,,,,,,,2,,,71,41
737520,note_off,60,0,2,,,,,,,,,1,,,47,0
737520,note_on,0,0,2,,,,,,,,,1,,,42,40
737544,note_off,24,0,3,,,,,,,,,2,,,73,0
737560,note_on,16,0,3,,,,,,,,,2,,,73,41
737580,note_off,60,0,2,,,,,,,,,1,,,42,0
737580,note_on,0,0,2,,,,,,,,,1,,,45,39
737584,note_off,24,0,3,,,,,,,,,2,,,71,0
737600,note_on,16,0,3,,,,,,,,,2,,,71,41
737624,note_off,24,0,3,,,,,,,,,2,,,73,0
737640,note_on,16,0,3,,,,,,,,,2,,,73,40
737640,note_off,60,0,2,,,,,,,,,1,,,45,0
737640,note_on,0,0,2,,,,,,,,,1,,,47,39
737664,note_off,24,0,3,,,,,,,,,2,,,71,0
737680,note_on,16,0,3,,,,,,,,,2,,,71,40
737700,note_on,0,0,2,,,,,,,,,1,,,51,39
737700,note_off,60,0,2,,,,,,,,,1,,,47,0
737704,note_off,24,0,3,,,,,,,,,2,,,73,0
737720,note_on,16,0,3,,,,,,,,,2,,,73,40
737727,note_off,447,0,4,,,,,,,,,3,,,40,0
737744,note_off,24,0,3,,,,,,,,,2,,,71,0
737760,note_off,60,0,2,,,,,,,,,1,,,51,0
737760,note_on,16,0,3,,,,,,,,,2,,,71,40
737760,note_off,240,0,1,,,,,,,,,0,,,78,0
737760,note_on,33,0,4,,,,,,,,,3,,,40,39
737784,note_off,24,0,3,,,,,,,,,2,,,73,0
737800,note_on,16,0,3,,,,,,,,,2,,,73,40
737820,note_on,60,0,2,,,,,,,,,1,,,42,38
737824,note_off,24,0,3,,,,,,,,,2,,,71,0
737840,note_on,16,0,3,,,,,,,,,2,,,71,40
737864,note_off,24,0,3,,,,,,,,,2,,,73,0
737880,note_on,16,0,3,,,,,,,,,2,,,73,39
737880,note_off,60,0,2,,,,,,,,,1,,,42,0
737880,note_on,0,0,2,,,,,,,,,1,,,45,38
737904,note_off,24,0,3,,,,,,,,,2,,,71,0
737920,note_on,16,0,3,,,,,,,,,2,,,71,39
737940,note_on,0,0,2,,,,,,,,,1,,,47,37
737940,note_off,60,0,2,,,,,,,,,1,,,45,0
737944,note_off,24,0,3,,,,,,,,,2,,,73,0
737960,note_on,16,0,3,,,,,,,,,2,,,73,39
737990,note_off,30,0,3,,,,,,,,,2,,,71,0
738000,note_on,10,0,3,,,,,,,,,2,,,71,39
738000,note_on,0,0,2,,,,,,,,,1,,,42,37
738000,note_off,60,0,2,,,,,,,,,1,,,47,0
738000,note_on,240,0,1,,,,,,,,,0,,,75,49
738030,note_off,30,0,3,,,,,,,,,2,,,73,0
738040,note_on,10,0,3,,,,,,,,,2,,,73,39
738060,note_on,0,0,2,,,,,,,,,1,,,45,37
738060,note_off,60,0,2,,,,,,,,,1,,,42,0
738070,note_off,30,0,3,,,,,,,,,2,,,71,0
738080,note_on,10,0,3,,,,,,,,,2,,,71,39
738110,note_off,30,0,3,,,,,,,,,2,,,73,0
738120,note_on,10,0,3,,,,,,,,,2,,,73,39
738120,note_on,0,0,2,,,,,,,,,1,,,47,37
738120,note_off,60,0,2,,,,,,,,,1,,,45,0
738150,note_off,30,0,3,,,,,,,,,2,,,71,0
738160,note_on,10,0,3,,,,,,,,,2,,,71,38
738180,note_on,0,0,2,,,,,,,,,1,,,51,36
738180,note_off,60,0,2,,,,,,,,,1,,,47,0
738180,set_tempo,1440,1,0,,,,,,1224489,,,,,,,
738190,note_off,30,0,3,,,,,,,,,2,,,73,0
738200,note_on,10,0,3,,,,,,,,,2,,,73,38
738207,note_off,447,0,4,,,,,,,,,3,,,40,0
738230,note_off,30,0,3,,,,,,,,,2,,,71,0
738240,note_on,10,0,3,,,,,,,,,2,,,71,38
738240,note_off,240,0,1,,,,,,,,,0,,,75,0
738240,note_on,33,0,4,,,,,,,,,3,,,40,37
738240,note_off,60,0,2,,,,,,,,,1,,,51,0
738270,note_off,30,0,3,,,,,,,,,2,,,73,0
738280,note_on,10,0,3,,,,,,,,,2,,,73,38
738300,note_on,60,0,2,,,,,,,,,1,,,42,36
738310,note_off,30,0,3,,,,,,,,,2,,,71,0
738320,note_on,10,0,3,,,,,,,,,2,,,71,38
738350,note_off,30,0,3,,,,,,,,,2,,,73,0
738360,note_on,10,0,3,,,,,,,,,2,,,73,38
738360,note_on,0,0,2,,,,,,,,,1,,,45,35
738360,note_off,60,0,2,,,,,,,,,1,,,42,0
738390,note_off,30,0,3,,,,,,,,,2,,,71,0
738400,note_on,10,0,3,,,,,,,,,2,,,71,38
738420,note_on,0,0,2,,,,,,,,,1,,,47,35
738420,note_off,60,0,2,,,,,,,,,1,,,45,0
738430,note_off,30,0,3,,,,,,,,,2,,,73,0
738440,note_on,10,0,3,,,,,,,,,2,,,73,37
738470,note_off,30,0,3,,,,,,,,,2,,,71,0
738480,note_off,60,0,2,,,,,,,,,1,,,47,0
738480,note_on,0,0,2,,,,,,,,,1,,,42,35
738480,note_on,10,0,3,,,,,,,,,2,,,71,37
738480,note_on,240,0,1,,,,,,,,,0,,,69,48
738510,note_off,30,0,3,,,,,,,,,2,,,73,0
738520,note_on,10,0,3,,,,,,,,,2,,,73,37
738540,note_off,60,0,2,,,,,,,,,1,,,42,0
738540,note_on,0,0,2,,,,,,,,,1,,,45,35
738550,note_off,30,0,3,,,,,,,,,2,,,71,0
738560,note_on,10,0,3,,,,,,,,,2,,,71,37
738590,note_off,30,0,3,,,,,,,,,2,,,73,0
738600,note_off,60,0,2,,,,,,,,,1,,,45,0
738600,note_on,0,0,2,,,,,,,,,1,,,47,34
738600,note_on,10,0,3,,,,,,,,,2,,,73,37
738630,note_off,30,0,3,,,,,,,,,2,,,71,0
738640,note_on,10,0,3,,,,,,,,,2,,,71,37
738660,note_off,60,0,2,,,,,,,,,1,,,47,0
738660,note_on,0,0,2,,,,,,,,,1,,,51,34
738670,note_off,30,0,3,,,,,,,,,2,,,73,0
738680,note_on,10,0,3,,,,,,,,,2,,,73,37
738687,note_off,447,0,4,,,,,,,,,3,,,40,0
738710,note_off,30,0,3,,,,,,,,,2,,,71,0
738720,note_off,240,0,1,,,,,,,,,0,,,69,0
738720,note_off,60,0,2,,,,,,,,,1,,,51,0
738720,note_on,33,0,4,,,,,,,,,3,,,40,35
738720,note_on,10,0,3,,,,,,,,,2,,,71,36
738750,note_off,30,0,3,,,,,,,,,2,,,73,0
738760,note_on,10,0,3,,,,,,,,,2,,,73,36
738780,note_on,60,0,2,,,,,,,,,1,,,42,33
738790,note_off,30,0,3,,,,,,,,,2,,,71,0
738800,note_on,10,0,3,,,,,,,,,2,,,71,36
738830,note_off,30,0,3,,,,,,,,,2,,,73,0
738840,note_on,0,0,2,,,,,,,,,1,,,45,33
738840,note_on,10,0,3,,,,,,,,,2,,,73,36
738840,note_off,60,0,2,,,,,,,,,1,,,42,0
738870,note_off,30,0,3,,,,,,,,,2,,,71,0
738880,note_on,10,0,3,,,,,,,,,2,,,71,36
738900,note_on,0,0,2,,,,,,,,,1,,,47,33
738900,note_off,60,0,2,,,,,,,,,1,,,45,0
738900,set_tempo,720,1,0,,,,,,1276595,,,,,,,
738910,note_off,30,0,3,,,,,,,,,2,,,73,0
738920,note_on,10,0,3,,,,,,,,,2,,,73,36
738950,note_off,30,0,3,,,,,,,,,2,,,71,0
738960,note_off,60,0,2,,,,,,,,,1,,,47,0
738960,note_on,240,0,1,,,,,,,,,0,,,66,46
738960,note_on,10,0,3,,,,,,,,,2,,,71,35
738960,note_on,0,0,2,,,,,,,,,1,,,42,33
738990,note_off,30,0,3,,,,,,,,,2,,,73,0
739000,note_on,10,0,3,,,,,,,,,2,,,73,35
739020,note_on,0,0,2,,,,,,,,,1,,,45,32
739020,note_off,60,0,2,,,,,,,,,1,,,42,0
739030,note_off,30,0,3,,,,,,,,,2,,,71,0
739040,note_on,10,0,3,,,,,,,,,2,,,71,35
739070,note_off,30,0,3,,,,,,,,,2,,,73,0
739080,note_on,0,0,2,,,,,,,,,1,,,47,32
739080,note_off,60,0,2,,,,,,,,,1,,,45,0
739080,note_on,10,0,3,,,,,,,,,2,,,73,35
739110,note_off,30,0,3,,,,,,,,,2,,,71,0
739120,note_on,10,0,3,,,,,,,,,2,,,71,35
739140,note_on,0,0,2,,,,,,,,,1,,,51,32
739140,note_off,60,0,2,,,,,,,,,1,,,47,0
739150,note_off,30,0,3,,,,,,,,,2,,,73,0
739160,note_on,10,0,3,,,,,,,,,2,,,73,35
739167,note_off,447,0,4,,,,,,,,,3,,,40,0
739190,note_off,30,0,3,,,,,,,,,2,,,71,0
739200,note_on,0,0,4,,,,,,,,,3,,,40,33
739200,note_off,60,0,2,,,,,,,,,1,,,51,0
739200,note_off,240,0,1,,,,,,,,,0,,,66,0
739200,control_change,33,0,4,,,,,,,64,127,3,,,,
739200,note_on,10,0,3,,,,,,,,,2,,,71,35
739230,note_off,30,0,3,,,,,,,,,2,,,73,0
739240,note_on,10,0,3,,,,,,,,,2,,,73,34
739260,note_on,60,0,2,,,,,,,,,1,,,42,31
739270,note_off,30,0,3,,,,,,,,,2,,,71,0
739280,note_on,10,0,3,,,,,,,,,2,,,71,34
739310,note_off,30,0,3,,,,,,,,,2,,,73,0
739320,note_on,10,0,3,,,,,,,,,2,,,73,34
739320,note_off,60,0,2,,,,,,,,,1,,,42,0
739320,note_on,0,0,2,,,,,,,,,1,,,45,31
739350,note_off,30,0,3,,,,,,,,,2,,,71,0
739360,note_on,10,0,3,,,,,,,,,2,,,71,34
739380,note_on,0,0,2,,,,,,,,,1,,,47,30
739380,set_tempo,480,1,0,,,,,,1333333,,,,,,,
739380,note_off,60,0,2,,,,,,,,,1,,,45,0
739390,note_off,30,0,3,,,,,,,,,2,,,73,0
739400,note_on,10,0,3,,,,,,,,,2,,,73,34
739430,note_off,30,0,3,,,,,,,,,2,,,71,0
739440,control_change,60,0,2,,,,,,,64,127,1,,,,
739440,note_on,240,0,1,,,,,,,,,0,,,63,45
739440,note_off,0,0,2,,,,,,,,,1,,,47,0
739440,note_on,0,0,2,,,,,,,,,1,,,42,30
739440,note_on,10,0,3,,,,,,,,,2,,,71,34
739470,note_off,30,0,3,,,,,,,,,2,,,73,0
739480,note_on,10,0,3,,,,,,,,,2,,,73,34
739500,note_on,0,0,2,,,,,,,,,1,,,45,30
739500,note_off,60,0,2,,,,,,,,,1,,,42,0
739510,note_off,30,0,3,,,,,,,,,2,,,71,0
739520,note_on,10,0,3,,,,,,,,,2,,,71,32
739530,set_tempo,150,1,0,,,,,,1500000,,,,,,,
739550,note_off,30,0,3,,,,,,,,,2,,,73,0
739560,note_off,60,0,2,,,,,,,,,1,,,45,0
739560,note_on,0,0,2,,,,,,,,,1,,,47,30
739560,control_change,10,0,3,,,,,,,64,127,2,,,,
739560,note_on,0,0,3,,,,,,,,,2,,,70,32
739590,note_off,30,0,3,,,,,,,,,2,,,71,0
739620,note_on,30,0,3,,,,,,,,,2,,,71,32
739620,note_on,0,0,2,,,,,,,,,1,,,51,29
739620,set_tempo,90,1,0,,,,,,2727272,,,,,,,
739620,note_off,60,0,2,,,,,,,,,1,,,47,0
739647,note_off,447,0,4,,,,,,,,,3,,,40,0
739653,note_off,33,0,3,,,,,,,,,2,,,70,0
739680,note_off,240,0,1,,,,,,,,,0,,,63,0
739680,note_off,60,0,2,,,,,,,,,1,,,51,0
739680,set_tempo,60,1,0,,,,,,283018,,,,,,,
739713,note_off,60,0,3,,,,,,,,,2,,,71,0
741120,control_change,1440,0,2,,,,,,,64,0,1,,,,
741120,set_tempo,1440,1,0,,,,,,1333333,,,,,,,
741120,end_of_track,0,1,2,,,,,,,,,,,,,
741120,control_change,1407,0,3,,,,,,,64,0,2,,,,
741120,note_on,0,0,3,,,,,,,,,2,,,59,53
741120,control_change,1473,0,4,,,,,,,64,0,3,,,,
741120,note_on,0,0,1,,,,,,,,,0,,,68,53
741120,control_change,1440,0,1,,,,,,,64,0,0,,,,
741120,note_on,0,0,4,,,,,,,,,3,,,40,51
741240,set_tempo,120,1,0,,,,,,1276595,,,,,,,
741600,note_on,0,0,4,,,,,,,,,3,,,44,50
741600,note_off,480,0,3,,,,,,,,,2,,,59,0
741600,note_on,0,0,3,,,,,,,,,2,,,59,52
741600,note_off,480,0,4,,,,,,,,,3,,,40,0
741600,note_on,0,0,1,,,,,,,,,0,,,64,50
741600,note_off,480,0,1,,,,,,,,,0,,,68,0
742080,note_on,0,0,4,,,,,,,,,3,,,45,49
742080,note_off,480,0,4,,,,,,,,,3,,,44,0
742080,note_off,480,0,3,,,,,,,,,2,,,59,0
742080,note_on,0,0,3,,,,,,,,,2,,,61,51
742320,note_off,720,0,1,,,,,,,,,0,,,64,0
742320,note_on,0,0,1,,,,,,,,,0,,,66,48
742387,set_tempo,1147,1,0,,,,,,1333333,,,,,,,
742560,note_off,480,0,3,,,,,,,,,2,,,61,0
742560,set_tempo,173,1,0,,,,,,1276595,,,,,,,
742560,note_off,240,0,1,,,,,,,,,0,,,66,0
742560,note_off,480,0,4,,,,,,,,,3,,,45,0
742560,note_on,0,0,1,,,,,,,,,0,,,63,52
742560,note_on,0,0,3,,,,,,,,,2,,,54,50
742560,note_on,0,0,4,,,,,,,,,3,,,47,48
743040,note_off,480,0,4,,,,,,,,,3,,,47,0
743040,note_on,0,0,4,,,,,,,,,3,,,49,47
743040,note_on,0,0,1,,,,,,,,,0,,,59,49
743040,note_off,480,0,1,,,,,,,,,0,,,63,0
743040,note_off,480,0,3,,,,,,,,,2,,,54,0
743040,note_on,0,0,3,,,,,,,,,2,,,54,46
743040,note_on,0,0,3,,,,,,,,,2,,,57,46
743430,set_tempo,870,1,0,,,,,,1363636,,,,,,,
743520,note_on,0,0,4,,,,,,,,,3,,,51,44
743520,note_off,480,0,4,,,,,,,,,3,,,49,0
743760,set_tempo,330,1,0,,,,,,1428571,,,,,,,
744000,note_on,0,0,3,,,,,,,,,2,,,59,47
744000,note_on,0,0,4,,,,,,,,,3,,,52,45
744000,note_off,480,0,4,,,,,,,,,3,,,51,0
744000,set_tempo,240,1,0,,,,,,1333333,,,,,,,
744000,note_off,960,0,3,,,,,,,,,2,,,57,0
744000,note_on,0,0,1,,,,,,,,,0,,,68,48
744000,note_off,960,0,1,,,,,,,,,0,,,59,0
744000,note_off,0,0,3,,,,,,,,,2,,,54,0
744000,note_on,0,0,3,,,,,,,,,2,,,56,47
744120,set_tempo,120,1,0,,,,,,1276595,,,,,,,
744480,note_on,0,0,1,,,,,,,,,0,,,64,46
744480,note_off,480,0,4,,,,,,,,,3,,,52,0
744480,note_on,0,0,3,,,,,,,,,2,,,59,46
744480,note_off,0,0,3,,,,,,,,,2,,,56,0
744480,note_off,480,0,3,,,,,,,,,2,,,59,0
744480,note_off,480,0,1,,,,,,,,,0,,,68,0
744480,note_on,0,0,4,,,,,,,,,3,,,56,44
744960,note_on,0,0,4,,,,,,,,,3,,,58,43
744960,note_off,480,0,4,,,,,,,,,3,,,56,0
744960,note_off,480,0,3,,,,,,,,,2,,,59,0
744960,note_on,0,0,3,,,,,,,,,2,,,61,45
745200,note_on,0,0,1,,,,,,,,,0,,,66,44
745200,note_off,720,0,1,,,,,,,,,0,,,64,0
745260,set_tempo,1140,1,0,,,,,,1333333,,,,,,,
745440,note_on,0,0,1,,,,,,,,,0,,,66,44
745440,note_off,240,0,1,,,,,,,,,0,,,66,0
745440,note_off,480,0,3,,,,,,,,,2,,,61,0
745440,note_on,0,0,3,,,,,,,,,2,,,63,44
745440,note_off,480,0,4,,,,,,,,,3,,,58,0
745440,note_on,0,0,4,,,,,,,,,3,,,59,42
745920,note_off,480,0,1,,,,,,,,,0,,,66,0
745920,note_on,0,0,3,,,,,,,,,2,,,61,46
745920,note_off,480,0,3,,,,,,,,,2,,,63,0
745920,note_off,480,0,4,,,,,,,,,3,,,59,0
745920,note_on,0,0,4,,,,,,,,,3,,,54,44
745920,note_on,0,0,3,,,,,,,,,2,,,64,46
745920,note_on,0,0,1,,,,,,,,,0,,,70,47
745940,set_tempo,680,1,0,,,,,,1363636,,,,,,,
746347,set_tempo,407,1,0,,,,,,1428571,,,,,,,
746400,note_on,0,0,1,,,,,,,,,0,,,71,50
746400,note_on,0,0,4,,,,,,,,,3,,,47,45
746400,note_off,480,0,4,,,,,,,,,3,,,54,0
746400,note_off,480,0,3,,,,,,,,,2,,,64,0
746400,note_off,0,0,3,,,,,,,,,2,,,61,0
746400,note_on,0,0,3,,,,,,,,,2,,,66,49
746400,note_on,0,0,3,,,,,,,,,2,,,63,49
746400,note_off,480,0,1,,,,,,,,,0,,,70,0
746640,note_on,0,0,4,,,,,,,,,3,,,33,46
746640,note_on,0,0,4,,,,,,,,,3,,,45,46
746640,note_off,240,0,4,,,,,,,,,3,,,47,0
746740,set_tempo,393,1,0,,,,,,1500000,,,,,,,
746865,note_off,465,0,1,,,,,,,,,0,,,71,0
746880,set_tempo,140,1,0,,,,,,1333333,,,,,,,
746880,note_on,0,0,4,,,,,,,,,3,,,32,49
746880,note_on,0,0,4,,,,,,,,,3,,,44,49
746880,note_off,0,0,4,,,,,,,,,3,,,45,0
746880,note_off,240,0,4,,,,,,,,,3,,,33,0
746880,note_on,15,0,1,,,,,,,,,0,,,71,56
746880,note_off,480,0,3,,,,,,,,,2,,,63,0
746880,note_off,0,0,3,,,,,,,,,2,,,66,0
746880,note_on,0,0,3,,,,,,,,,2,,,68,53
746880,note_on,0,0,3,,,,,,,,,2,,,59,51
746880,note_on,0,0,3,,,,,,,,,2,,,64,51
747000,set_tempo,120,1,0,,,,,,1276595,,,,,,,
747355,note_off,475,0,3,,,,,,,,,2,,,59,0
747360,note_on,0,0,3,,,,,,,,,2,,,59,49
747360,note_off,0,0,3,,,,,,,,,2,,,68,0
747360,note_off,5,0,3,,,,,,,,,2,,,64,0
747360,note_on,0,0,4,,,,,,,,,3,,,44,48
747360,note_off,480,0,4,,,,,,,,,3,,,44,0
747360,note_off,480,0,1,,,,,,,,,0,,,71,0
747360,note_on,0,0,1,,,,,,,,,0,,,64,52
747840,note_on,0,0,4,,,,,,,,,3,,,45,47
747840,note_on,0,0,4,,,,,,,,,3,,,33,47
747840,note_on,0,0,3,,,,,,,,,2,,,61,46
747840,note_off,480,0,3,,,,,,,,,2,,,59,0
747840,note_off,480,0,4,,,,,,,,,3,,,44,0
747840,note_off,0,0,4,,,,,,,,,3,,,32,0
748080,note_off,720,0,1,,,,,,,,,0,,,64,0
748080,note_on,0,0,1,,,,,,,,,0,,,68,45
748150,set_tempo,1150,1,0,,,,,,1333333,,,,,,,
748200,note_off,120,0,1,,,,,,,,,0,,,68,0
748200,note_on,0,0,1,,,,,,,,,0,,,66,47
748320,note_off,480,0,3,,,,,,,,,2,,,61,0
748320,note_on,0,0,3,,,,,,,,,2,,,54,44
748320,note_off,0,0,4,,,,,,,,,3,,,45,0
748320,note_on,0,0,4,,,,,,,,,3,,,47,45
748320,note_on,0,0,4,,,,,,,,,3,,,35,45
748320,note_off,480,0,4,,,,,,,,,3,,,33,0
748320,note_on,0,0,1,,,,,,,,,0,,,63,50
748320,note_off,120,0,1,,,,,,,,,0,,,66,0
748440,set_tempo,290,1,0,,,,,,1276595,,,,,,,
748800,note_off,480,0,4,,,,,,,,,3,,,35,0
748800,note_on,0,0,4,,,,,,,,,3,,,37,44
748800,note_off,0,0,4,,,,,,,,,3,,,47,0
748800,note_on,0,0,3,,,,,,,,,2,,,52,45
748800,note_off,480,0,3,,,,,,,,,2,,,54,0
748800,note_on,0,0,4,,,,,,,,,3,,,49,44
748800,note_off,480,0,1,,,,,,,,,0,,,63,0
748800,note_on,0,0,1,,,,,,,,,0,,,59,48
749040,set_tempo,600,1,0,,,,,,1333333,,,,,,,
749115,note_off,315,0,1,,,,,,,,,0,,,59,0
749120,note_on,5,0,1,,,,,,,,,0,,,57,40
749160,note_on,0,0,1,,,,,,,,,0,,,59,41
749160,note_off,40,0,1,,,,,,,,,0,,,57,0
749200,note_on,40,0,1,,,,,,,,,0,,,57,42
749205,note_off,5,0,1,,,,,,,,,0,,,59,0
749210,set_tempo,170,1,0,,,,,,1363636,,,,,,,
749240,note_on,0,0,1,,,,,,,,,0,,,56,43
749240,note_off,35,0,1,,,,,,,,,0,,,57,0
749280,set_tempo,70,1,0,,,,,,1276595,,,,,,,
749280,note_on,0,0,4,,,,,,,,,3,,,51,43
749280,note_off,480,0,4,,,,,,,,,3,,,37,0
749280,note_off,40,0,1,,,,,,,,,0,,,56,0
749280,note_off,480,0,3,,,,,,,,,2,,,52,0
749280,note_off,0,0,4,,,,,,,,,3,,,49,0
749280,note_on,0,0,1,,,,,,,,,0,,,57,46
749280,note_on,0,0,3,,,,,,,,,2,,,54,42
749280,note_on,0,0,4,,,,,,,,,3,,,39,43
749640,set_tempo,360,1,0,,,,,,1333333,,,,,,,
749760,note_off,480,0,3,,,,,,,,,2,,,54,0
749760,note_off,480,0,4,,,,,,,,,3,,,39,0
749760,note_on,0,0,4,,,,,,,,,3,,,40,42
749760,note_on,0,0,1,,,,,,,,,0,,,56,46
749760,note_off,480,0,1,,,,,,,,,0,,,57,0
749760,note_on,0,0,4,,,,,,,,,3,,,52,42
749760,note_off,0,0,4,,,,,,,,,3,,,51,0
749880,set_tempo,240,1,0,,,,,,1363636,,,,,,,
750240,note_on,480,0,3,,,,,,,,,2,,,52,47
750240,note_off,480,0,4,,,,,,,,,3,,,40,0
750240,note_on,0,0,1,,,,,,,,,0,,,64,50
750240,note_off,480,0,1,,,,,,,,,0,,,56,0
750240,note_off,0,0,4,,,,,,,,,3,,,52,0
750240,note_on,0,0,4,,,,,,,,,3,,,37,44
750240,note_on,0,0,4,,,,,,,,,3,,,49,44
750652,set_tempo,772,1,0,,,,,,1428571,,,,,,,
750720,note_off,480,0,3,,,,,,,,,2,,,52,0
750720,note_off,480,0,4,,,,,,,,,3,,,49,0
750720,note_off,0,0,4,,,,,,,,,3,,,37,0
750720,note_on,0,0,4,,,,,,,,,3,,,36,47
750720,note_on,0,0,4,,,,,,,,,3,,,48,47
750720,note_on,0,0,3,,,,,,,,,2,,,52,47
750922,set_tempo,270,1,0,,,,,,1500000,,,,,,,
750960,note_off,720,0,1,,,,,,,,,0,,,64,0
750960,note_on,0,0,1,,,,,,,,,0,,,58,46
751200,note_off,240,0,1,,,,,,,,,0,,,58,0
751200,note_on,0,0,1,,,,,,,,,0,,,58,49
751200,note_off,0,0,4,,,,,,,,,3,,,36,0
751200,note_off,480,0,3,,,,,,,,,2,,,52,0
751200,note_off,480,0,4,,,,,,,,,3,,,48,0
751200,set_tempo,278,1,0,,,,,,1538461,,,,,,,
751200,note_on,0,0,3,,,,,,,,,2,,,40,52
751200,note_on,0,0,4,,,,,,,,,3,,,36,49
751200,note_on,0,0,3,,,,,,,,,2,,,55,52
751670,set_tempo,470,1,0,,,,,,1621621,,,,,,,
751680,note_off,480,0,3,,,,,,,,,2,,,55,0
751680,note_on,0,0,3,,,,,,,,,2,,,52,47
751680,note_off,0,0,3,,,,,,,,,2,,,40,0
751680,note_on,0,0,3,,,,,,,,,2,,,43,47
751920,set_tempo,250,1,0,,,,,,1666666,,,,,,,
752160,note_on,0,0,3,,,,,,,,,2,,,54,40
752160,set_tempo,240,1,0,,,,,,3157894,,,,,,,
752160,note_off,960,0,4,,,,,,,,,3,,,36,0
752160,note_on,0,0,1,,,,,,,,,0,,,59,38
752160,note_off,960,0,1,,,,,,,,,0,,,58,0
752160,note_off,480,0,3,,,,,,,,,2,,,52,0
752160,note_off,0,0,3,,,,,,,,,2,,,43,0
752160,note_on,0,0,4,,,,,,,,,3,,,35,38
752160,note_on,0,0,3,,,,,,,,,2,,,47,40
752580,note_off,0,0,3,,,,,,,,,2,,,54,0
752580,note_off,420,0,4,,,,,,,,,3,,,35,0
752580,note_off,420,0,3,,,,,,,,,2,,,47,0
752580,note_off,420,0,1,,,,,,,,,0,,,59,0
752640,note_on,60,0,1,,,,,,,,,0,,,71,53
752640,set_tempo,480,1,0,,,,,,1333333,,,,,,,
752640,note_on,60,0,4,,,,,,,,,3,,,59,51
752760,set_tempo,120,1,0,,,,,,1276595,,,,,,,
753120,note_off,480,0,1,,,,,,,,,0,,,71,0
753120,note_on,0,0,4,,,,,,,,,3,,,51,50
753120,note_off,480,0,4,,,,,,,,,3,,,59,0
753120,note_on,0,0,3,,,,,,,,,2,,,66,53
753120,note_on,540,0,3,,,,,,,,,2,,,59,53
753120,note_on,0,0,1,,,,,,,,,0,,,71,50
753600,note_off,480,0,3,,,,,,,,,2,,,66,0
753600,note_off,0,0,3,,,,,,,,,2,,,59,0
753600,note_on,0,0,3,,,,,,,,,2,,,59,52
753600,note_off,480,0,4,,,,,,,,,3,,,51,0
753600,note_on,0,0,4,,,,,,,,,3,,,53,49
753600,note_on,0,0,3,,,,,,,,,2,,,68,52
753840,note_on,0,0,1,,,,,,,,,0,,,73,48
753840,note_off,720,0,1,,,,,,,,,0,,,71,0
753930,set_tempo,1170,1,0,,,,,,1333333,,,,,,,
754080,note_off,0,0,3,,,,,,,,,2,,,59,0
754080,note_off,480,0,3,,,,,,,,,2,,,68,0
754080,note_on,0,0,3,,,,,,,,,2,,,59,50
754080,note_on,0,0,4,,,,,,,,,3,,,54,48
754080,note_off,240,0,1,,,,,,,,,0,,,73,0
754080,note_off,480,0,4,,,,,,,,,3,,,53,0
754080,note_on,0,0,1,,,,,,,,,0,,,71,51
754190,set_tempo,260,1,0,,,,,,1276595,,,,,,,
754560,note_on,0,0,3,,,,,,,,,2,,,59,49
754560,note_off,480,0,3,,,,,,,,,2,,,59,0
754560,note_on,0,0,3,,,,,,,,,2,,,64,49
754560,note_on,0,0,1,,,,,,,,,0,,,69,49
754560,note_on,0,0,4,,,,,,,,,3,,,49,47
754560,note_off,480,0,4,,,,,,,,,3,,,54,0
754560,note_off,480,0,1,,,,,,,,,0,,,71,0
755040,note_on,0,0,4,,,,,,,,,3,,,51,46
755040,note_on,0,0,3,,,,,,,,,2,,,66,48
755040,note_on,0,0,3,,,,,,,,,2,,,59,48
755040,note_off,0,0,3,,,,,,,,,2,,,59,0
755040,note_off,480,0,3,,,,,,,,,2,,,64,0
755040,note_off,480,0,4,,,,,,,,,3,,,49,0
755280,note_off,720,0,1,,,,,,,,,0,,,69,0
755280,note_on,0,0,1,,,,,,,,,0,,,71,46
755347,set_tempo,1157,1,0,,,,,,1333333,,,,,,,
755520,note_on,0,0,1,,,,,,,,,0,,,69,45
755520,note_off,240,0,1,,,,,,,,,0,,,71,0
755520,note_off,0,0,3,,,,,,,,,2,,,59,0
755520,note_on,0,0,3,,,,,,,,,2,,,59,47
755520,note_on,0,0,4,,,,,,,,,3,,,52,45
755520,note_off,480,0,4,,,,,,,,,3,,,51,0
755520,note_off,480,0,3,,,,,,,,,2,,,66,0
755640,set_tempo,293,1,0,,,,,,1276595,,,,,,,
756000,note_off,480,0,3,,,,,,,,,2,,,59,0
756000,note_on,0,0,3,,,,,,,,,2,,,59,46
756000,note_on,0,0,4,,,,,,,,,3,,,47,44
756000,note_off,480,0,4,,,,,,,,,3,,,52,0
756000,note_off,480,0,1,,,,,,,,,0,,,69,0
756000,note_on,0,0,1,,,,,,,,,0,,,68,44
756000,note_on,0,0,3,,,,,,,,,2,,,64,46
756480,note_on,0,0,4,,,,,,,,,3,,,49,48
756480,note_off,480,0,4,,,,,,,,,3,,,47,0
756480,note_off,480,0,3,,,,,,,,,2,,,64,0
756480,note_on,0,0,3,,,,,,,,,2,,,64,50
756480,note_off,0,0,3,,,,,,,,,2,,,59,0
756480,note_on,0,0,3,,,,,,,,,2,,,61,50
756720,set_tempo,1080,1,0,,,,,,1333333,,,,,,,
756720,note_on,0,0,1,,,,,,,,,0,,,76,51
756720,note_off,720,0,1,,,,,,,,,0,,,68,0
756960,note_off,240,0,1,,,,,,,,,0,,,76,0
756960,note_on,0,0,3,,,,,,,,,2,,,63,53
756960,set_tempo,240,1,0,,,,,,1333333,,,,,,,
756960,note_off,480,0,3,,,,,,,,,2,,,64,0
756960,note_off,0,0,3,,,,,,,,,2,,,61,0
756960,note_off,480,0,4,,,,,,,,,3,,,49,0
756960,note_on,0,0,4,,,,,,,,,3,,,51,52
756960,note_on,0,0,1,,,,,,,,,0,,,68,53
756960,note_on,0,0,3,,,,,,,,,2,,,59,53
757440,note_off,480,0,4,,,,,,,,,3,,,51,0
757440,note_on,0,0,3,,,,,,,,,2,,,61,50
757440,note_on,0,0,3,,,,,,,,,2,,,58,50
757440,note_off,480,0,3,,,,,,,,,2,,,63,0
757440,note_on,0,0,4,,,,,,,,,3,,,51,51
757440,note_off,480,0,1,,,,,,,,,0,,,68,0
757440,note_off,0,0,3,,,,,,,,,2,,,59,0
757440,note_on,0,0,1,,,,,,,,,0,,,67,49
757870,set_tempo,910,1,0,,,,,,1363636,,,,,,,
757920,note_on,0,0,1,,,,,,,,,0,,,68,45
757920,note_off,480,0,1,,,,,,,,,0,,,67,0
757920,note_off,480,0,4,,,,,,,,,3,,,51,0
757920,note_on,0,0,4,,,,,,,,,3,,,44,48
757920,note_off,480,0,3,,,,,,,,,2,,,61,0
757920,note_off,0,0,3,,,,,,,,,2,,,58,0
757920,note_on,0,0,3,,,,,,,,,2,,,59,46
757920,note_on,0,0,3,,,,,,,,,2,,,56,46
758360,set_tempo,490,1,0,,,,,,1428571,,,,,,,
758395,note_off,475,0,4,,,,,,,,,3,,,44,0
758395,note_off,475,0,3,,,,,,,,,2,,,59,0
758400,note_on,0,0,3,,,,,,,,,2,,,54,44
758400,note_on,0,0,3,,,,,,,,,2,,,66,42
758400,note_on,480,0,1,,,,,,,,,0,,,69,44
758400,note_on,0,0,3,,,,,,,,,2,,,57,37
758400,note_on,5,0,4,,,,,,,,,3,,,42,44
758400,set_tempo,40,1,0,,,,,,1333333,,,,,,,
758400,note_off,5,0,3,,,,,,,,,2,,,56,0
758400,note_on,0,0,3,,,,,,,,,2,,,61,40
758407,note_off,7,0,1,,,,,,,,,0,,,68,0
758520,set_tempo,120,1,0,,,,,,1276595,,,,,,,
758870,note_off,470,0,3,,,,,,,,,2,,,57,0
758880,note_off,480,0,4,,,,,,,,,3,,,42,0
758880,note_on,0,0,1,,,,,,,,,0,,,69,48
758880,note_off,10,0,3,,,,,,,,,2,,,54,0
758880,note_on,0,0,4,,,,,,,,,3,,,54,48
758880,note_on,0,0,3,,,,,,,,,2,,,57,46
758880,note_off,473,0,1,,,,,,,,,0,,,69,0
758885,note_off,5,0,3,,,,,,,,,2,,,61,0
758890,note_off,5,0,3,,,,,,,,,2,,,66,0
759360,note_off,480,0,4,,,,,,,,,3,,,54,0
759360,note_on,0,0,3,,,,,,,,,2,,,57,50
759360,note_off,470,0,3,,,,,,,,,2,,,57,0
759360,note_on,0,0,3,,,,,,,,,2,,,54,50
759360,note_on,0,0,4,,,,,,,,,3,,,52,51
759600,note_off,720,0,1,,,,,,,,,0,,,69,0
759600,note_on,0,0,1,,,,,,,,,0,,,73,54
759675,set_tempo,1155,1,0,,,,,,1333333,,,,,,,
759840,note_off,240,0,1,,,,,,,,,0,,,73,0
759840,set_tempo,165,1,0,,,,,,1153846,,,,,,,
759840,control_change,480,0,3,,,,,,,64,127,2,,,,
759840,note_off,0,0,3,,,,,,,,,2,,,54,0
759840,control_change,480,0,4,,,,,,,64,127,3,,,,
759840,note_off,0,0,3,,,,,,,,,2,,,57,0
759840,note_off,0,0,4,,,,,,,,,3,,,52,0
759840,note_on,0,0,4,,,,,,,,,3,,,51,54
759880,note_on,40,0,3,,,,,,,,,2,,,54,48
759880,note_off,40,0,4,,,,,,,,,3,,,51,0
759920,note_on,0,0,3,,,,,,,,,2,,,57,49
759920,note_off,40,0,3,,,,,,,,,2,,,54,0
759960,note_on,0,0,3,,,,,,,,,2,,,59,50
759960,note_off,40,0,3,,,,,,,,,2,,,57,0
760000,note_on,0,0,3,,,,,,,,,2,,,63,52
760000,note_off,40,0,3,,,,,,,,,2,,,59,0
760035,set_tempo,195,1,0,,,,,,1200000,,,,,,,
760040,note_on,0,0,3,,,,,,,,,2,,,66,53
760040,note_off,40,0,3,,,,,,,,,2,,,63,0
760080,set_tempo,45,1,0,,,,,,1153846,,,,,,,
760080,note_on,0,0,3,,,,,,,,,2,,,69,54
760080,note_off,40,0,3,,,,,,,,,2,,,66,0
760115,set_tempo,35,1,0,,,,,,2500000,,,,,,,
760120,note_off,40,0,3,,,,,,,,,2,,,69,0
760120,note_on,280,0,1,,,,,,,,,0,,,73,66
760560,note_on,440,0,1,,,,,,,,,0,,,71,52
760570,set_tempo,455,1,0,,,,,,1333333,,,,,,,
760575,note_off,15,0,1,,,,,,,,,0,,,73,0
760800,control_change,680,0,3,,,,,,,64,0,2,,,,
760800,note_on,0,0,3,,,,,,,,,2,,,66,49
760800,note_off,225,0,1,,,,,,,,,0,,,71,0
760800,note_on,0,0,1,,,,,,,,,0,,,69,51
761040,note_off,240,0,1,,,,,,,,,0,,,69,0
761040,note_on,0,0,1,,,,,,,,,0,,,68,50
761040,control_change,1160,0,4,,,,,,,64,0,3,,,,
761040,note_on,0,0,4,,,,,,,,,3,,,52,48
761040,note_off,240,0,3,,,,,,,,,2,,,66,0
761040,note_on,0,0,3,,,,,,,,,2,,,59,46
761040,set_tempo,470,1,0,,,,,,1363636,,,,,,,
761040,note_on,0,0,3,,,,,,,,,2,,,64,46
761040,note_on,0,0,3,,,,,,,,,2,,,56,46
761100,set_tempo,60,1,0,,,,,,1428571,,,,,,,
761280,note_off,240,0,3,,,,,,,,,2,,,64,0
761280,note_on,0,0,4,,,,,,,,,3,,,47,45
761280,note_on,0,0,1,,,,,,,,,0,,,68,48
761280,note_off,0,0,3,,,,,,,,,2,,,56,0
761280,note_off,0,0,3,,,,,,,,,2,,,59,0
761280,note_on,0,0,3,,,,,,,,,2,,,64,44
761280,note_off,240,0,1,,,,,,,,,0,,,68,0
761280,note_off,240,0,4,,,,,,,,,3,,,52,0
761410,set_tempo,310,1,0,,,,,,1428571,,,,,,,
761640,note_off,360,0,1,,,,,,,,,0,,,68,0
761640,note_on,0,0,1,,,,,,,,,0,,,69,48
761640,set_tempo,230,1,0,,,,,,1500000,,,,,,,
761760,note_off,480,0,3,,,,,,,,,2,,,64,0
761760,note_on,0,0,3,,,,,,,,,2,,,56,41
761760,note_on,0,0,3,,,,,,,,,2,,,64,41
761760,note_off,120,0,1,,,,,,,,,0,,,69,0
761760,note_on,0,0,1,,,,,,,,,0,,,71,48
762240,note_on,0,0,3,,,,,,,,,2,,,54,39
762240,note_on,0,0,3,,,,,,,,,2,,,63,39
762240,note_off,0,0,3,,,,,,,,,2,,,56,0
762240,note_off,480,0,3,,,,,,,,,2,,,64,0
762240,note_on,0,0,4,,,,,,,,,3,,,47,41
762240,note_off,960,0,4,,,,,,,,,3,,,47,0
762480,note_on,0,0,1,,,,,,,,,0,,,69,43
762480,note_off,720,0,1,,,,,,,,,0,,,71,0
762480,set_tempo,840,1,0,,,,,,1666666,,,,,,,
762720,note_on,0,0,3,,,,,,,,,2,,,63,36
762720,note_off,240,0,1,,,,,,,,,0,,,69,0
762720,note_on,0,0,3,,,,,,,,,2,,,66,36
762720,note_on,0,0,1,,,,,,,,,0,,,69,42
762720,note_off,480,0,3,,,,,,,,,2,,,63,0
762720,note_on,0,0,4,,,,,,,,,3,,,40,39
762720,note_off,480,0,4,,,,,,,,,3,,,47,0
762720,note_off,0,0,3,,,,,,,,,2,,,54,0
762720,note_on,0,0,3,,,,,,,,,2,,,59,36
763190,set_tempo,710,1,0,,,,,,2400000,,,,,,,
763200,note_off,480,0,4,,,,,,,,,3,,,40,0
763200,note_on,0,0,4,,,,,,,,,3,,,47,36
763680,note_on,0,0,3,,,,,,,,,2,,,64,32
763680,note_off,480,0,4,,,,,,,,,3,,,47,0
763680,note_on,0,0,4,,,,,,,,,3,,,52,34
763680,note_on,0,0,3,,,,,,,,,2,,,59,32
763680,note_off,960,0,1,,,,,,,,,0,,,69,0
763680,note_on,0,0,1,,,,,,,,,0,,,68,36
763680,set_tempo,490,1,0,,,,,,2727272,,,,,,,
763680,note_off,960,0,3,,,,,,,,,2,,,59,0
763680,note_off,0,0,3,,,,,,,,,2,,,66,0
763680,note_off,0,0,3,,,,,,,,,2,,,63,0
763680,end_of_track,0,1,0,,,,,,,,,,,,,
764100,end_of_track,0,1,4,,,,,,,,,,,,,
764100,note_off,420,0,4,,,,,,,,,3,,,52,0
764100,note_off,420,0,3,,,,,,,,,2,,,59,0
764105,note_off,5,0,3,,,,,,,,,2,,,64,0
764105,note_off,425,0,1,,,,,,,,,0,,,68,0
764105,end_of_track,0,1,1,,,,,,,,,,,,,
764105,end_of_track,0,1,3,,,,,,,,,,,,,
