tick,type,time,meta,track,numerator,denominator,clocks_per_click,notated_32nd_notes_per_beat,key,tempo,control,value,channel,program,pitch,note,velocity
0,track_name,0,1,0,,,,,,,,,,,,,
0,track_name,0,1,1,,,,,,,,,,,,,
0,track_name,0,1,2,,,,,,,,,,,,,
0,control_change,0,0,2,,,,,,,0,0,1,,,,
0,program_change,0,0,2,,,,,,,,,1,0,,,
0,control_change,0,0,2,,,,,,,10,64,1,,,,
0,control_change,0,0,2,,,,,,,91,91,1,,,,
0,control_change,0,0,2,,,,,,,93,28,1,,,,
0,control_change,0,0,1,,,,,,,0,0,0,,,,
0,control_change,0,0,2,,,,,,,64,0,1,,,,
0,pitchwheel,0,0,2,,,,,,,,,1,,0,,
0,control_change,0,0,2,,,,,,,7,117,1,,,,
0,control_change,0,0,3,,,,,,,10,64,2,,,,
0,control_change,0,0,3,,,,,,,91,91,2,,,,
0,control_change,0,0,3,,,,,,,93,28,2,,,,
0,control_change,0,0,3,,,,,,,64,0,2,,,,
0,control_change,0,0,3,,,,,,,1,0,2,,,,
0,control_change,0,0,2,,,,,,,1,0,1,,,,
0,control_change,0,0,1,,,,,,,32,0,0,,,,
0,control_change,0,0,1,,,,,,,7,127,0,,,,
0,control_change,0,0,1,,,,,,,1,0,0,,,,
0,control_change,0,0,4,,,,,,,7,122,3,,,,
0,pitchwheel,0,0,4,,,,,,,,,3,,0,,
0,control_change,0,0,4,,,,,,,1,0,3,,,,
0,control_change,0,0,4,,,,,,,64,0,3,,,,
0,control_change,0,0,4,,,,,,,93,28,3,,,,
0,control_change,0,0,4,,,,,,,91,91,3,,,,
0,control_change,0,0,4,,,,,,,10,55,3,,,,
0,program_change,0,0,4,,,,,,,,,3,0,,,
0,control_change,0,0,4,,,,,,,32,0,3,,,,
0,control_change,0,0,4,,,,,,,0,0,3,,,,
0,track_name,0,1,4,,,,,,,,,,,,,
0,pitchwheel,0,0,1,,,,,,,,,0,,0,,
0,program_change,0,0,1,,,,,,,,,0,0,,,
0,control_change,0,0,1,,,,,,,10,73,0,,,,
0,control_change,0,0,1,,,,,,,91,91,0,,,,
0,control_change,0,0,1,,,,,,,93,28,0,,,,
0,control_change,0,0,1,,,,,,,64,0,0,,,,
0,pitchwheel,0,0,3,,,,,,,,,2,,0,,
0,control_change,0,0,3,,,,,,,7,112,2,,,,
0,control_change,0,0,2,,,,,,,32,0,1,,,,
0,control_change,0,0,3,,,,,,,32,0,2,,,,
0,control_change,0,0,3,,,,,,,0,0,2,,,,
0,track_name,0,1,3,,,,,,,,,,,,,
0,program_change,0,0,3,,,,,,,,,2,0,,,
0,marker,0,1,0,,,,,,,,,,,,,
0,set_tempo,0,1,0,,,,,,540540,,,,,,,
0,key_signature,0,1,0,,,,,C,,,,,,,,
0,time_signature,0,1,0,3,4,24,8,,,,,,,,,
960,set_tempo,960,1,0,,,,,,540540,,,,,,,
960,note_on,960,0,1,,,,,,,,,0,,,48,34
1320,note_off,360,0,1,,,,,,,,,0,,,48,0
1320,note_on,0,0,1,,,,,,,,,0,,,52,37
1440,note_on,1440,0,4,,,,,,,,,3,,,29,43
1440,note_on,1440,0,3,,,,,,,,,2,,,41,43
1440,note_off,120,0,1,,,,,,,,,0,,,52,0
1440,note_on,0,0,1,,,,,,,,,0,,,53,39
1440,marker,480,1,0,,,,,,,,,,,,,
1440,note_on,1440,0,2,,,,,,,,,1,,,45,43
1920,note_on,0,0,4,,,,,,,,,3,,,31,37
1920,note_off,480,0,4,,,,,,,,,3,,,29,0
1920,note_on,0,0,2,,,,,,,,,1,,,46,37
1920,note_off,480,0,2,,,,,,,,,1,,,45,0
2160,note_off,720,0,3,,,,,,,,,2,,,41,0
2160,note_off,720,0,1,,,,,,,,,0,,,53,0
2160,note_off,240,0,4,,,,,,,,,3,,,31,0
2160,note_off,240,0,2,,,,,,,,,1,,,46,0
2160,set_tempo,720,1,0,,,,,,550458,,,,,,,
2400,note_on,240,0,1,,,,,,,,,0,,,60,38
2400,set_tempo,240,1,0,,,,,,540540,,,,,,,
2760,note_on,0,0,1,,,,,,,,,0,,,64,42
2760,note_off,360,0,1,,,,,,,,,0,,,60,0
2880,marker,480,1,0,,,,,,,,,,,,,
2880,note_off,120,0,1,,,,,,,,,0,,,64,0
2880,note_on,720,0,4,,,,,,,,,3,,,45,45
2880,note_on,720,0,3,,,,,,,,,2,,,53,45
2880,note_on,720,0,2,,,,,,,,,1,,,60,45
3360,note_off,480,0,4,,,,,,,,,3,,,45,0
3360,note_off,480,0,2,,,,,,,,,1,,,60,0
3360,note_on,0,0,2,,,,,,,,,1,,,62,41
3360,note_on,0,0,4,,,,,,,,,3,,,46,41
3600,note_off,240,0,4,,,,,,,,,3,,,46,0
3600,set_tempo,720,1,0,,,,,,550458,,,,,,,
3600,note_off,240,0,2,,,,,,,,,1,,,62,0
3600,note_off,720,0,3,,,,,,,,,2,,,53,0
3840,set_tempo,240,1,0,,,,,,550458,,,,,,,
3840,note_on,960,0,1,,,,,,,,,0,,,72,48
4200,note_on,0,0,1,,,,,,,,,0,,,77,50
4200,note_off,360,0,1,,,,,,,,,0,,,72,0
4320,note_on,0,0,1,,,,,,,,,0,,,81,53
4320,note_on,720,0,2,,,,,,,,,1,,,65,53
4320,note_on,720,0,4,,,,,,,,,3,,,60,53
4320,note_off,120,0,1,,,,,,,,,0,,,77,0
4320,marker,480,1,0,,,,,,,,,,,,,
4680,note_off,360,0,2,,,,,,,,,1,,,65,0
4680,note_on,0,0,2,,,,,,,,,1,,,69,49
4740,set_tempo,420,1,0,,,,,,560747,,,,,,,
4800,note_on,0,0,2,,,,,,,,,1,,,72,51
4800,note_off,120,0,2,,,,,,,,,1,,,69,0
5160,note_off,360,0,2,,,,,,,,,1,,,72,0
5160,note_on,0,0,2,,,,,,,,,1,,,69,45
5160,note_on,0,0,1,,,,,,,,,0,,,77,45
5160,note_off,840,0,1,,,,,,,,,0,,,81,0
5280,note_off,120,0,1,,,,,,,,,0,,,77,0
5280,note_off,120,0,2,,,,,,,,,1,,,69,0
5280,note_on,0,0,1,,,,,,,,,0,,,79,43
5280,note_on,0,0,2,,,,,,,,,1,,,70,43
5280,note_on,0,0,4,,,,,,,,,3,,,60,43
5280,note_off,960,0,4,,,,,,,,,3,,,60,0
5640,note_on,0,0,2,,,,,,,,,1,,,67,40
5640,note_off,360,0,1,,,,,,,,,0,,,79,0
5640,note_off,360,0,2,,,,,,,,,1,,,70,0
5640,note_on,0,0,1,,,,,,,,,0,,,76,40
5730,set_tempo,990,1,0,,,,,,571428,,,,,,,
5760,note_on,0,0,1,,,,,,,,,0,,,77,38
5760,note_on,0,0,2,,,,,,,,,1,,,69,38
5760,note_off,480,0,4,,,,,,,,,3,,,60,0
5760,note_off,120,0,2,,,,,,,,,1,,,67,0
5760,note_on,0,0,4,,,,,,,,,3,,,65,38
5760,marker,30,1,0,,,,,,,,,,,,,
5760,note_off,120,0,1,,,,,,,,,0,,,76,0
6120,note_off,360,0,1,,,,,,,,,0,,,77,0
6120,note_off,360,0,4,,,,,,,,,3,,,65,0
6120,note_off,360,0,2,,,,,,,,,1,,,69,0
6230,set_tempo,470,1,0,,,,,,600000,,,,,,,
6720,note_on,600,0,1,,,,,,,,,0,,,48,34
6720,set_tempo,490,1,0,,,,,,540540,,,,,,,
7080,note_off,360,0,1,,,,,,,,,0,,,48,0
7080,note_on,0,0,1,,,,,,,,,0,,,52,37
7200,note_on,1080,0,4,,,,,,,,,3,,,29,39
7200,marker,480,1,0,,,,,,,,,,,,,
7200,note_on,3600,0,3,,,,,,,,,2,,,41,39
7200,note_on,1080,0,2,,,,,,,,,1,,,45,39
7200,note_off,120,0,1,,,,,,,,,0,,,52,0
7200,note_on,0,0,1,,,,,,,,,0,,,53,39
7680,note_off,480,0,4,,,,,,,,,3,,,29,0
7680,note_on,0,0,4,,,,,,,,,3,,,31,34
7680,note_off,480,0,2,,,,,,,,,1,,,45,0
7680,note_on,0,0,2,,,,,,,,,1,,,46,34
7920,note_off,240,0,2,,,,,,,,,1,,,46,0
7920,set_tempo,720,1,0,,,,,,550458,,,,,,,
7920,note_off,240,0,4,,,,,,,,,3,,,31,0
7920,note_off,720,0,1,,,,,,,,,0,,,53,0
7920,note_off,720,0,3,,,,,,,,,2,,,41,0
8160,set_tempo,240,1,0,,,,,,540540,,,,,,,
8160,note_on,240,0,1,,,,,,,,,0,,,60,38
8520,note_on,0,0,1,,,,,,,,,0,,,64,42
8520,note_off,360,0,1,,,,,,,,,0,,,60,0
8640,note_on,720,0,2,,,,,,,,,1,,,60,43
8640,note_on,720,0,3,,,,,,,,,2,,,53,43
8640,note_on,720,0,4,,,,,,,,,3,,,45,43
8640,note_off,120,0,1,,,,,,,,,0,,,64,0
8640,note_on,0,0,1,,,,,,,,,0,,,65,43
9120,note_on,0,0,2,,,,,,,,,1,,,62,36
9120,note_on,0,0,4,,,,,,,,,3,,,46,36
9120,note_off,480,0,4,,,,,,,,,3,,,45,0
9120,note_off,480,0,2,,,,,,,,,1,,,60,0
9360,note_off,720,0,3,,,,,,,,,2,,,53,0
9360,note_off,240,0,2,,,,,,,,,1,,,62,0
9360,note_off,720,0,1,,,,,,,,,0,,,65,0
9360,note_off,240,0,4,,,,,,,,,3,,,46,0
9360,set_tempo,1200,1,0,,,,,,550458,,,,,,,
9600,note_on,240,0,1,,,,,,,,,0,,,72,44
9600,set_tempo,240,1,0,,,,,,550458,,,,,,,
9960,note_on,0,0,1,,,,,,,,,0,,,77,45
9960,note_off,360,0,1,,,,,,,,,0,,,72,0
10080,note_on,720,0,2,,,,,,,,,1,,,65,48
10080,note_on,720,0,4,,,,,,,,,3,,,60,48
10080,note_off,120,0,1,,,,,,,,,0,,,77,0
10080,note_on,0,0,1,,,,,,,,,0,,,81,48
10440,note_off,360,0,2,,,,,,,,,1,,,65,0
10440,note_on,0,0,2,,,,,,,,,1,,,69,44
10500,set_tempo,900,1,0,,,,,,560747,,,,,,,
10560,note_on,0,0,2,,,,,,,,,1,,,72,47
10560,note_off,120,0,2,,,,,,,,,1,,,69,0
10920,note_on,0,0,2,,,,,,,,,1,,,69,40
10920,note_off,360,0,2,,,,,,,,,1,,,72,0
10920,note_on,0,0,1,,,,,,,,,0,,,77,40
10920,note_off,840,0,1,,,,,,,,,0,,,81,0
11040,note_off,120,0,2,,,,,,,,,1,,,69,0
11040,note_off,120,0,1,,,,,,,,,0,,,77,0
11040,note_on,0,0,4,,,,,,,,,3,,,60,39
11040,note_off,960,0,4,,,,,,,,,3,,,60,0
11040,note_on,0,0,1,,,,,,,,,0,,,79,39
11040,note_on,0,0,2,,,,,,,,,1,,,70,39
11400,note_off,360,0,1,,,,,,,,,0,,,79,0
11400,note_on,0,0,1,,,,,,,,,0,,,76,36
11400,note_on,0,0,2,,,,,,,,,1,,,67,36
11400,note_off,360,0,2,,,,,,,,,1,,,70,0
11497,set_tempo,997,1,0,,,,,,571428,,,,,,,
11520,note_on,0,0,2,,,,,,,,,1,,,69,35
11520,note_off,480,0,4,,,,,,,,,3,,,60,0
11520,note_on,0,0,4,,,,,,,,,3,,,65,35
11520,note_on,0,0,1,,,,,,,,,0,,,77,35
11520,note_off,120,0,1,,,,,,,,,0,,,76,0
11520,note_off,120,0,2,,,,,,,,,1,,,67,0
11880,note_off,360,0,2,,,,,,,,,1,,,69,0
11880,note_off,360,0,1,,,,,,,,,0,,,77,0
11880,note_off,360,0,4,,,,,,,,,3,,,65,0
11980,set_tempo,483,1,0,,,,,,600000,,,,,,,
12480,note_on,600,0,1,,,,,,,,,0,,,53,36
12480,set_tempo,500,1,0,,,,,,540540,,,,,,,
12840,note_off,360,0,1,,,,,,,,,0,,,53,0
12840,note_on,0,0,1,,,,,,,,,0,,,57,39
12960,note_on,1080,0,4,,,,,,,,,3,,,41,40
12960,note_off,120,0,1,,,,,,,,,0,,,57,0
12960,note_on,0,0,1,,,,,,,,,0,,,61,40
13380,set_tempo,900,1,0,,,,,,550458,,,,,,,
13440,note_on,0,0,1,,,,,,,,,0,,,62,43
13440,note_off,480,0,1,,,,,,,,,0,,,61,0
13440,note_on,4080,0,3,,,,,,,,,2,,,46,43
13920,note_on,960,0,4,,,,,,,,,3,,,43,45
13920,note_on,0,0,3,,,,,,,,,2,,,52,45
13920,note_off,480,0,3,,,,,,,,,2,,,46,0
13927,note_off,7,0,4,,,,,,,,,3,,,41,0
14280,note_on,0,0,1,,,,,,,,,0,,,59,47
14280,note_off,840,0,1,,,,,,,,,0,,,62,0
14340,set_tempo,960,1,0,,,,,,560747,,,,,,,
14400,note_on,0,0,3,,,,,,,,,2,,,45,45
14400,note_off,480,0,3,,,,,,,,,2,,,52,0
14400,note_on,0,0,4,,,,,,,,,3,,,41,45
14400,note_off,473,0,4,,,,,,,,,3,,,43,0
14400,note_on,120,0,1,,,,,,,,,0,,,60,45
14407,note_off,7,0,1,,,,,,,,,0,,,59,0
14760,note_on,353,0,1,,,,,,,,,0,,,57,41
14782,note_off,22,0,1,,,,,,,,,0,,,60,0
14880,note_on,480,0,3,,,,,,,,,2,,,48,40
14880,note_on,0,0,1,,,,,,,,,0,,,53,40
14880,note_off,98,0,1,,,,,,,,,0,,,57,0
15120,note_off,240,0,3,,,,,,,,,2,,,48,0
15120,note_off,720,0,4,,,,,,,,,3,,,41,0
15120,note_off,0,0,3,,,,,,,,,2,,,45,0
15120,note_off,240,0,1,,,,,,,,,0,,,53,0
15120,set_tempo,780,1,0,,,,,,571428,,,,,,,
15360,set_tempo,240,1,0,,,,,,540540,,,,,,,
15360,note_on,240,0,1,,,,,,,,,0,,,65,40
15720,note_on,0,0,1,,,,,,,,,0,,,69,44
15720,note_off,360,0,1,,,,,,,,,0,,,65,0
15840,note_on,720,0,4,,,,,,,,,3,,,53,46
15840,note_on,0,0,1,,,,,,,,,0,,,73,46
15840,note_off,120,0,1,,,,,,,,,0,,,69,0
16260,set_tempo,900,1,0,,,,,,550458,,,,,,,
16320,note_on,0,0,1,,,,,,,,,0,,,74,47
16320,note_off,480,0,1,,,,,,,,,0,,,73,0
16320,note_on,1200,0,3,,,,,,,,,2,,,58,47
16800,note_on,0,0,3,,,,,,,,,2,,,64,50
16800,note_on,960,0,4,,,,,,,,,3,,,55,50
16800,note_off,480,0,3,,,,,,,,,2,,,58,0
16807,note_off,7,0,4,,,,,,,,,3,,,53,0
17160,note_off,840,0,1,,,,,,,,,0,,,74,0
17160,note_on,0,0,1,,,,,,,,,0,,,71,52
17220,set_tempo,960,1,0,,,,,,560747,,,,,,,
17280,note_off,480,0,3,,,,,,,,,2,,,64,0
17280,note_on,0,0,3,,,,,,,,,2,,,57,50
17280,note_off,473,0,4,,,,,,,,,3,,,55,0
17280,note_on,0,0,4,,,,,,,,,3,,,53,50
17280,note_on,120,0,1,,,,,,,,,0,,,72,50
17287,note_off,7,0,1,,,,,,,,,0,,,71,0
17640,note_on,353,0,1,,,,,,,,,0,,,69,46
17662,note_off,22,0,1,,,,,,,,,0,,,72,0
17760,note_on,0,0,1,,,,,,,,,0,,,65,44
17760,note_off,98,0,1,,,,,,,,,0,,,69,0
17760,note_on,480,0,3,,,,,,,,,2,,,60,44
18000,note_off,0,0,3,,,,,,,,,2,,,57,0
18000,note_off,240,0,1,,,,,,,,,0,,,65,0
18000,set_tempo,780,1,0,,,,,,571428,,,,,,,
18000,note_off,240,0,3,,,,,,,,,2,,,60,0
18000,note_off,720,0,4,,,,,,,,,3,,,53,0
18240,set_tempo,240,1,0,,,,,,550458,,,,,,,
18240,note_on,240,0,1,,,,,,,,,0,,,77,46
18600,note_off,360,0,1,,,,,,,,,0,,,77,0
18600,note_on,0,0,1,,,,,,,,,0,,,81,49
18720,note_off,120,0,1,,,,,,,,,0,,,81,0
18720,note_on,0,0,1,,,,,,,,,0,,,85,51
19080,set_tempo,840,1,0,,,,,,560747,,,,,,,
19200,note_on,0,0,2,,,,,,,,,1,,,74,51
19200,note_on,0,0,1,,,,,,,,,0,,,86,51
19200,note_on,1200,0,4,,,,,,,,,3,,,65,51
19200,note_on,7320,0,2,,,,,,,,,1,,,70,51
19200,note_off,480,0,1,,,,,,,,,0,,,85,0
20025,note_off,825,0,4,,,,,,,,,3,,,65,0
20040,note_off,840,0,2,,,,,,,,,1,,,74,0
20040,note_on,0,0,2,,,,,,,,,1,,,74,53
20040,note_on,0,0,2,,,,,,,,,1,,,67,53
20040,note_on,0,0,1,,,,,,,,,0,,,83,53
20040,note_on,15,0,4,,,,,,,,,3,,,65,53
20040,note_off,840,0,1,,,,,,,,,0,,,86,0
20047,note_off,7,0,2,,,,,,,,,1,,,70,0
20160,note_off,120,0,1,,,,,,,,,0,,,83,0
20160,note_on,0,0,2,,,,,,,,,1,,,67,54
20160,note_off,120,0,4,,,,,,,,,3,,,65,0
20160,note_off,0,0,2,,,,,,,,,1,,,74,0
20160,note_on,0,0,1,,,,,,,,,0,,,84,54
20160,note_on,0,0,2,,,,,,,,,1,,,72,54
20160,note_on,0,0,4,,,,,,,,,3,,,64,54
20160,note_off,113,0,2,,,,,,,,,1,,,67,0
20160,set_tempo,1080,1,0,,,,,,550458,,,,,,,
20520,note_off,360,0,4,,,,,,,,,3,,,64,0
20520,note_off,360,0,1,,,,,,,,,0,,,84,0
20520,note_on,0,0,1,,,,,,,,,0,,,81,55
20520,note_on,0,0,2,,,,,,,,,1,,,72,55
20520,note_off,0,0,2,,,,,,,,,1,,,67,0
20520,note_off,360,0,2,,,,,,,,,1,,,72,0
20520,note_on,0,0,4,,,,,,,,,3,,,65,55
20520,note_on,0,0,2,,,,,,,,,1,,,69,55
20580,set_tempo,420,1,0,,,,,,560747,,,,,,,
20640,note_off,120,0,2,,,,,,,,,1,,,69,0
20640,note_off,0,0,2,,,,,,,,,1,,,72,0
20640,note_on,0,0,2,,,,,,,,,1,,,65,55
20640,note_on,0,0,2,,,,,,,,,1,,,70,55
20640,note_off,120,0,4,,,,,,,,,3,,,65,0
20640,note_on,0,0,4,,,,,,,,,3,,,62,55
20640,note_off,120,0,1,,,,,,,,,0,,,81,0
20640,note_on,0,0,1,,,,,,,,,0,,,82,55
21120,note_on,0,0,2,,,,,,,,,1,,,67,57
21120,note_off,480,0,2,,,,,,,,,1,,,65,0
21120,note_on,0,0,4,,,,,,,,,3,,,64,57
21120,note_off,480,0,4,,,,,,,,,3,,,62,0
21472,note_off,352,0,2,,,,,,,,,1,,,70,0
21480,note_on,0,0,1,,,,,,,,,0,,,79,58
21480,note_off,840,0,1,,,,,,,,,0,,,82,0
21480,note_off,360,0,4,,,,,,,,,3,,,64,0
21480,note_off,8,0,2,,,,,,,,,1,,,67,0
21480,note_on,0,0,2,,,,,,,,,1,,,65,58
21480,note_on,0,0,2,,,,,,,,,1,,,70,58
21480,note_on,0,0,4,,,,,,,,,3,,,62,58
21600,note_on,0,0,2,,,,,,,,,1,,,69,58
21600,note_off,120,0,2,,,,,,,,,1,,,70,0
21600,note_off,0,0,2,,,,,,,,,1,,,65,0
21600,note_on,0,0,2,,,,,,,,,1,,,64,58
21600,note_off,120,0,1,,,,,,,,,0,,,79,0
21600,note_on,0,0,1,,,,,,,,,0,,,81,58
21600,set_tempo,1020,1,0,,,,,,550458,,,,,,,
21600,note_on,0,0,4,,,,,,,,,3,,,61,58
21600,note_off,120,0,4,,,,,,,,,3,,,62,0
21960,note_off,0,0,2,,,,,,,,,1,,,64,0
21960,note_on,0,0,4,,,,,,,,,3,,,62,59
21960,note_off,360,0,4,,,,,,,,,3,,,61,0
21960,note_off,360,0,2,,,,,,,,,1,,,69,0
21960,note_on,0,0,1,,,,,,,,,0,,,77,59
21960,note_off,360,0,1,,,,,,,,,0,,,81,0
21960,note_on,0,0,2,,,,,,,,,1,,,69,59
21960,note_on,0,0,2,,,,,,,,,1,,,65,59
22020,set_tempo,420,1,0,,,,,,560747,,,,,,,
22080,note_off,120,0,2,,,,,,,,,1,,,65,0
22080,note_off,0,0,2,,,,,,,,,1,,,69,0
22080,note_on,0,0,2,,,,,,,,,1,,,62,63
22080,note_off,120,0,4,,,,,,,,,3,,,62,0
22080,note_on,0,0,4,,,,,,,,,3,,,58,63
22080,note_off,120,0,1,,,,,,,,,0,,,77,0
22080,note_on,0,0,1,,,,,,,,,0,,,79,63
22080,note_on,0,0,2,,,,,,,,,1,,,67,63
22560,note_off,0,0,2,,,,,,,,,1,,,62,0
22560,note_on,0,0,2,,,,,,,,,1,,,62,54
22560,note_on,0,0,2,,,,,,,,,1,,,70,54
22560,note_off,480,0,2,,,,,,,,,1,,,67,0
22920,note_off,360,0,2,,,,,,,,,1,,,62,0
22920,note_on,0,0,2,,,,,,,,,1,,,67,48
22920,note_on,840,0,1,,,,,,,,,0,,,74,48
22935,note_off,15,0,1,,,,,,,,,0,,,79,0
22980,set_tempo,960,1,0,,,,,,571428,,,,,,,
23040,note_off,105,0,1,,,,,,,,,0,,,74,0
23040,note_on,0,0,4,,,,,,,,,3,,,60,46
23040,note_on,0,0,1,,,,,,,,,0,,,76,46
23040,note_off,120,0,2,,,,,,,,,1,,,67,0
23040,note_off,0,0,2,,,,,,,,,1,,,70,0
23040,note_on,0,0,2,,,,,,,,,1,,,70,46
23040,note_on,0,0,2,,,,,,,,,1,,,67,46
23040,note_off,960,0,4,,,,,,,,,3,,,58,0
23160,note_on,0,0,1,,,,,,,,,0,,,77,44
23160,note_off,120,0,1,,,,,,,,,0,,,76,0
23200,note_off,40,0,1,,,,,,,,,0,,,77,0
23200,note_on,0,0,1,,,,,,,,,0,,,76,43
23240,note_on,0,0,1,,,,,,,,,0,,,74,42
23240,note_off,40,0,1,,,,,,,,,0,,,76,0
23280,note_off,40,0,1,,,,,,,,,0,,,74,0
23280,note_on,0,0,1,,,,,,,,,0,,,76,42
23400,note_off,120,0,1,,,,,,,,,0,,,76,0
23400,note_off,360,0,2,,,,,,,,,1,,,67,0
23400,note_on,0,0,2,,,,,,,,,1,,,64,39
23400,note_on,0,0,1,,,,,,,,,0,,,79,39
23520,note_on,0,0,2,,,,,,,,,1,,,65,37
23520,note_off,480,0,4,,,,,,,,,3,,,60,0
23520,note_on,0,0,4,,,,,,,,,3,,,53,37
23520,note_off,120,0,1,,,,,,,,,0,,,79,0
23520,note_on,0,0,1,,,,,,,,,0,,,77,37
23520,note_on,0,0,2,,,,,,,,,1,,,69,37
23520,note_off,0,0,2,,,,,,,,,1,,,70,0
23520,note_off,120,0,2,,,,,,,,,1,,,64,0
23530,set_tempo,550,1,0,,,,,,625000,,,,,,,
23760,note_off,240,0,2,,,,,,,,,1,,,69,0
23760,note_off,0,0,2,,,,,,,,,1,,,65,0
23760,note_off,240,0,1,,,,,,,,,0,,,77,0
23760,note_off,240,0,4,,,,,,,,,3,,,53,0
24000,set_tempo,470,1,0,,,,,,540540,,,,,,,
24000,note_on,240,0,1,,,,,,,,,0,,,53,36
24360,note_off,360,0,1,,,,,,,,,0,,,53,0
24360,note_on,0,0,1,,,,,,,,,0,,,57,36
24480,note_on,720,0,4,,,,,,,,,3,,,41,38
24480,note_on,0,0,1,,,,,,,,,0,,,61,38
24480,note_off,120,0,1,,,,,,,,,0,,,57,0
24900,set_tempo,900,1,0,,,,,,550458,,,,,,,
24960,note_on,0,0,1,,,,,,,,,0,,,62,37
24960,note_on,6960,0,3,,,,,,,,,2,,,46,37
24960,note_off,480,0,1,,,,,,,,,0,,,61,0
25440,note_on,960,0,4,,,,,,,,,3,,,43,38
25440,note_on,0,0,3,,,,,,,,,2,,,52,38
25440,note_off,480,0,3,,,,,,,,,2,,,46,0
25447,note_off,7,0,4,,,,,,,,,3,,,41,0
25800,note_off,840,0,1,,,,,,,,,0,,,62,0
25800,note_on,0,0,1,,,,,,,,,0,,,59,39
25860,set_tempo,960,1,0,,,,,,560747,,,,,,,
25920,note_on,0,0,3,,,,,,,,,2,,,45,37
25920,note_on,120,0,1,,,,,,,,,0,,,60,37
25920,note_off,473,0,4,,,,,,,,,3,,,43,0
25920,note_on,0,0,4,,,,,,,,,3,,,41,37
25920,note_off,480,0,3,,,,,,,,,2,,,52,0
25927,note_off,7,0,1,,,,,,,,,0,,,59,0
26280,note_on,353,0,1,,,,,,,,,0,,,57,35
26302,note_off,22,0,1,,,,,,,,,0,,,60,0
26400,note_on,0,0,1,,,,,,,,,0,,,53,34
26400,note_on,480,0,3,,,,,,,,,2,,,48,34
26400,note_off,98,0,1,,,,,,,,,0,,,57,0
26640,note_off,720,0,4,,,,,,,,,3,,,41,0
26640,set_tempo,780,1,0,,,,,,571428,,,,,,,
26640,note_off,240,0,1,,,,,,,,,0,,,53,0
26640,note_off,0,0,3,,,,,,,,,2,,,45,0
26640,note_off,240,0,3,,,,,,,,,2,,,48,0
26880,set_tempo,240,1,0,,,,,,540540,,,,,,,
26880,note_on,240,0,1,,,,,,,,,0,,,65,35
27000,note_on,0,0,1,,,,,,,,,0,,,67,35
27000,note_off,120,0,1,,,,,,,,,0,,,65,0
27040,note_off,40,0,1,,,,,,,,,0,,,67,0
27040,note_on,0,0,1,,,,,,,,,0,,,65,35
27080,note_on,0,0,1,,,,,,,,,0,,,64,36
27080,note_off,40,0,1,,,,,,,,,0,,,65,0
27120,note_on,0,0,1,,,,,,,,,0,,,65,37
27120,note_off,40,0,1,,,,,,,,,0,,,64,0
27240,note_on,0,0,1,,,,,,,,,0,,,69,38
27240,note_off,120,0,1,,,,,,,,,0,,,65,0
27360,note_on,0,0,1,,,,,,,,,0,,,73,41
27360,note_off,120,0,1,,,,,,,,,0,,,69,0
27360,note_on,720,0,4,,,,,,,,,3,,,53,41
27360,set_tempo,480,1,0,,,,,,540540,,,,,,,
27780,set_tempo,420,1,0,,,,,,550458,,,,,,,
27840,note_off,480,0,1,,,,,,,,,0,,,73,0
27840,note_on,1200,0,3,,,,,,,,,2,,,58,41
27840,note_on,0,0,1,,,,,,,,,0,,,74,41
28320,note_on,960,0,4,,,,,,,,,3,,,55,43
28320,note_off,480,0,3,,,,,,,,,2,,,58,0
28320,note_on,0,0,3,,,,,,,,,2,,,64,43
28327,note_off,7,0,4,,,,,,,,,3,,,53,0
28680,note_off,840,0,1,,,,,,,,,0,,,74,0
28680,note_on,0,0,1,,,,,,,,,0,,,71,45
28740,set_tempo,960,1,0,,,,,,560747,,,,,,,
28800,note_on,120,0,1,,,,,,,,,0,,,72,42
28800,note_off,473,0,4,,,,,,,,,3,,,55,0
28800,note_on,0,0,4,,,,,,,,,3,,,53,42
28800,note_on,0,0,3,,,,,,,,,2,,,57,42
28800,note_off,480,0,3,,,,,,,,,2,,,64,0
28807,note_off,7,0,1,,,,,,,,,0,,,71,0
29160,note_on,353,0,1,,,,,,,,,0,,,69,38
29182,note_off,22,0,1,,,,,,,,,0,,,72,0
29280,note_on,480,0,3,,,,,,,,,2,,,60,36
29280,note_off,98,0,1,,,,,,,,,0,,,69,0
29280,note_on,0,0,1,,,,,,,,,0,,,65,36
29520,note_off,240,0,1,,,,,,,,,0,,,65,0
29520,set_tempo,780,1,0,,,,,,571428,,,,,,,
29520,note_off,240,0,3,,,,,,,,,2,,,60,0
29520,note_off,720,0,4,,,,,,,,,3,,,53,0
29520,note_off,0,0,3,,,,,,,,,2,,,57,0
29760,note_on,240,0,1,,,,,,,,,0,,,77,36
29760,set_tempo,240,1,0,,,,,,550458,,,,,,,
29880,note_off,120,0,1,,,,,,,,,0,,,77,0
29880,note_on,0,0,1,,,,,,,,,0,,,79,37
29920,note_off,40,0,1,,,,,,,,,0,,,79,0
29920,note_on,0,0,1,,,,,,,,,0,,,77,38
29960,note_off,40,0,1,,,,,,,,,0,,,77,0
29960,note_on,0,0,1,,,,,,,,,0,,,76,38
30000,note_off,40,0,1,,,,,,,,,0,,,76,0
30000,note_on,0,0,1,,,,,,,,,0,,,77,39
30120,note_on,0,0,1,,,,,,,,,0,,,81,39
30120,note_off,120,0,1,,,,,,,,,0,,,77,0
30240,note_off,120,0,1,,,,,,,,,0,,,81,0
30240,note_on,0,0,1,,,,,,,,,0,,,85,40
30600,set_tempo,840,1,0,,,,,,560747,,,,,,,
30720,note_off,480,0,1,,,,,,,,,0,,,85,0
30720,note_on,0,0,1,,,,,,,,,0,,,86,41
30720,note_on,6960,0,2,,,,,,,,,1,,,74,41
30720,note_on,1200,0,4,,,,,,,,,3,,,65,41
30720,note_on,0,0,2,,,,,,,,,1,,,70,41
31545,note_off,825,0,4,,,,,,,,,3,,,65,0
31560,note_off,840,0,1,,,,,,,,,0,,,86,0
31560,note_on,0,0,1,,,,,,,,,0,,,83,45
31560,note_on,15,0,4,,,,,,,,,3,,,65,45
31560,note_off,840,0,2,,,,,,,,,1,,,74,0
31560,note_on,0,0,2,,,,,,,,,1,,,74,45
31560,note_on,0,0,2,,,,,,,,,1,,,67,45
31567,note_off,7,0,2,,,,,,,,,1,,,70,0
31680,note_off,113,0,2,,,,,,,,,1,,,67,0
31680,note_on,0,0,2,,,,,,,,,1,,,72,45
31680,note_off,120,0,4,,,,,,,,,3,,,65,0
31680,note_on,0,0,4,,,,,,,,,3,,,64,45
31680,note_on,0,0,2,,,,,,,,,1,,,67,45
31680,set_tempo,1080,1,0,,,,,,550458,,,,,,,
31680,note_off,0,0,2,,,,,,,,,1,,,74,0
31680,note_on,0,0,1,,,,,,,,,0,,,84,45
31680,note_off,120,0,1,,,,,,,,,0,,,83,0
32040,note_on,0,0,2,,,,,,,,,1,,,69,46
32040,note_on,0,0,1,,,,,,,,,0,,,81,46
32040,note_off,360,0,1,,,,,,,,,0,,,84,0
32040,note_on,0,0,4,,,,,,,,,3,,,65,46
32040,note_off,360,0,2,,,,,,,,,1,,,67,0
32040,note_off,0,0,2,,,,,,,,,1,,,72,0
32040,note_off,360,0,4,,,,,,,,,3,,,64,0
32040,note_on,0,0,2,,,,,,,,,1,,,72,46
32100,set_tempo,420,1,0,,,,,,560747,,,,,,,
32160,note_on,0,0,1,,,,,,,,,0,,,82,47
32160,note_off,120,0,4,,,,,,,,,3,,,65,0
32160,note_on,0,0,2,,,,,,,,,1,,,65,47
32160,note_on,0,0,2,,,,,,,,,1,,,70,47
32160,note_off,0,0,2,,,,,,,,,1,,,72,0
32160,note_off,120,0,1,,,,,,,,,0,,,81,0
32160,note_on,0,0,4,,,,,,,,,3,,,62,47
32160,note_off,120,0,2,,,,,,,,,1,,,69,0
32640,note_on,0,0,2,,,,,,,,,1,,,67,48
32640,note_off,480,0,2,,,,,,,,,1,,,65,0
32640,note_on,0,0,4,,,,,,,,,3,,,64,48
32640,note_off,480,0,4,,,,,,,,,3,,,62,0
32992,note_off,352,0,2,,,,,,,,,1,,,70,0
33000,note_on,0,0,2,,,,,,,,,1,,,65,50
33000,note_on,0,0,1,,,,,,,,,0,,,79,50
33000,note_off,8,0,2,,,,,,,,,1,,,67,0
33000,note_off,840,0,1,,,,,,,,,0,,,82,0
33000,note_on,0,0,2,,,,,,,,,1,,,70,50
33000,note_off,360,0,4,,,,,,,,,3,,,64,0
33000,note_on,0,0,4,,,,,,,,,3,,,62,50
33120,note_off,0,0,2,,,,,,,,,1,,,70,0
33120,note_off,120,0,2,,,,,,,,,1,,,65,0
33120,note_on,0,0,4,,,,,,,,,3,,,61,50
33120,note_on,0,0,2,,,,,,,,,1,,,64,50
33120,set_tempo,1020,1,0,,,,,,550458,,,,,,,
33120,note_off,120,0,1,,,,,,,,,0,,,79,0
33120,note_on,0,0,1,,,,,,,,,0,,,81,50
33120,note_on,0,0,2,,,,,,,,,1,,,69,50
33120,note_off,120,0,4,,,,,,,,,3,,,62,0
33480,note_off,360,0,1,,,,,,,,,0,,,81,0
33480,note_on,0,0,1,,,,,,,,,0,,,77,51
33480,note_on,0,0,2,,,,,,,,,1,,,62,51
33480,note_off,360,0,2,,,,,,,,,1,,,64,0
33480,note_off,0,0,2,,,,,,,,,1,,,69,0
33480,note_off,360,0,4,,,,,,,,,3,,,61,0
33480,note_on,0,0,2,,,,,,,,,1,,,65,51
33480,note_on,0,0,2,,,,,,,,,1,,,69,51
33540,set_tempo,420,1,0,,,,,,560747,,,,,,,
33600,note_on,0,0,1,,,,,,,,,0,,,79,55
33600,note_off,120,0,1,,,,,,,,,0,,,77,0
33600,note_on,0,0,2,,,,,,,,,1,,,62,55
33600,note_on,0,0,2,,,,,,,,,1,,,67,55
33600,note_off,0,0,2,,,,,,,,,1,,,62,0
33600,note_off,120,0,2,,,,,,,,,1,,,69,0
33600,note_on,120,0,4,,,,,,,,,3,,,58,55
33600,note_off,0,0,2,,,,,,,,,1,,,65,0
34080,note_on,0,0,2,,,,,,,,,1,,,70,49
34080,note_off,480,0,2,,,,,,,,,1,,,62,0
34080,note_off,0,0,2,,,,,,,,,1,,,67,0
34080,note_on,0,0,2,,,,,,,,,1,,,62,49
34440,note_off,360,0,2,,,,,,,,,1,,,62,0
34440,note_on,0,0,2,,,,,,,,,1,,,67,45
34440,note_on,840,0,1,,,,,,,,,0,,,74,45
34455,note_off,15,0,1,,,,,,,,,0,,,79,0
34500,set_tempo,960,1,0,,,,,,571428,,,,,,,
34560,note_off,120,0,2,,,,,,,,,1,,,67,0
34560,note_off,960,0,4,,,,,,,,,3,,,58,0
34560,note_on,0,0,4,,,,,,,,,3,,,60,44
34560,note_on,0,0,2,,,,,,,,,1,,,67,44
34560,note_off,105,0,1,,,,,,,,,0,,,74,0
34560,note_on,0,0,1,,,,,,,,,0,,,76,44
34560,note_off,0,0,2,,,,,,,,,1,,,70,0
34560,note_on,0,0,2,,,,,,,,,1,,,70,44
34680,note_off,120,0,1,,,,,,,,,0,,,76,0
34680,note_on,0,0,1,,,,,,,,,0,,,77,42
34720,note_off,40,0,1,,,,,,,,,0,,,77,0
34720,note_on,0,0,1,,,,,,,,,0,,,76,42
34760,note_off,40,0,1,,,,,,,,,0,,,76,0
34760,note_on,0,0,1,,,,,,,,,0,,,74,41
34800,note_off,40,0,1,,,,,,,,,0,,,74,0
34800,note_on,0,0,1,,,,,,,,,0,,,76,41
34920,note_on,0,0,2,,,,,,,,,1,,,64,39
34920,note_off,360,0,2,,,,,,,,,1,,,67,0
34920,note_off,120,0,1,,,,,,,,,0,,,76,0
34920,note_on,0,0,1,,,,,,,,,0,,,79,39
34980,set_tempo,480,1,0,,,,,,582524,,,,,,,
35040,note_off,120,0,2,,,,,,,,,1,,,64,0
35040,note_on,0,0,4,,,,,,,,,3,,,53,38
35040,note_off,480,0,4,,,,,,,,,3,,,60,0
35040,note_on,0,0,2,,,,,,,,,1,,,65,38
35040,note_off,120,0,1,,,,,,,,,0,,,79,0
35040,note_off,0,0,2,,,,,,,,,1,,,70,0
35040,note_on,0,0,1,,,,,,,,,0,,,77,38
35040,note_on,0,0,2,,,,,,,,,1,,,69,38
35280,note_off,240,0,2,,,,,,,,,1,,,65,0
35280,note_off,0,0,2,,,,,,,,,1,,,69,0
35280,note_off,240,0,4,,,,,,,,,3,,,53,0
35280,set_tempo,300,1,0,,,,,,1071428,,,,,,,
35280,note_off,240,0,1,,,,,,,,,0,,,77,0
35520,note_on,240,0,4,,,,,,,,,3,,,36,83
35520,set_tempo,240,1,0,,,,,,508474,,,,,,,
35520,note_on,6000,0,3,,,,,,,,,2,,,48,83
35624,note_off,104,0,4,,,,,,,,,3,,,36,0
35624,note_off,104,0,3,,,,,,,,,2,,,48,0
35680,note_on,56,0,4,,,,,,,,,3,,,48,81
35680,set_tempo,160,1,0,,,,,,500000,,,,,,,
35680,note_on,56,0,3,,,,,,,,,2,,,60,81
35784,note_off,104,0,3,,,,,,,,,2,,,60,0
35784,note_off,104,0,4,,,,,,,,,3,,,48,0
35840,note_on,56,0,3,,,,,,,,,2,,,59,80
35840,note_on,56,0,4,,,,,,,,,3,,,47,80
35944,note_off,104,0,4,,,,,,,,,3,,,47,0
35944,note_off,104,0,3,,,,,,,,,2,,,59,0
36000,note_on,56,0,4,,,,,,,,,3,,,48,79
36000,note_on,56,0,3,,,,,,,,,2,,,60,79
36104,note_off,104,0,3,,,,,,,,,2,,,60,0
36104,note_off,104,0,4,,,,,,,,,3,,,48,0
36160,note_on,56,0,4,,,,,,,,,3,,,46,78
36160,note_on,56,0,3,,,,,,,,,2,,,58,78
36264,note_off,104,0,3,,,,,,,,,2,,,58,0
36264,note_off,104,0,4,,,,,,,,,3,,,46,0
36320,note_on,56,0,3,,,,,,,,,2,,,57,77
36320,note_on,56,0,4,,,,,,,,,3,,,45,77
36424,note_off,104,0,3,,,,,,,,,2,,,57,0
36424,note_off,104,0,4,,,,,,,,,3,,,45,0
36480,note_on,56,0,3,,,,,,,,,2,,,55,76
36480,note_on,56,0,4,,,,,,,,,3,,,43,76
36584,note_off,104,0,3,,,,,,,,,2,,,55,0
36584,note_off,104,0,4,,,,,,,,,3,,,43,0
36640,note_on,56,0,4,,,,,,,,,3,,,45,75
36640,note_on,56,0,3,,,,,,,,,2,,,57,75
36744,note_off,104,0,4,,,,,,,,,3,,,45,0
36744,note_off,104,0,3,,,,,,,,,2,,,57,0
36800,note_on,56,0,4,,,,,,,,,3,,,46,73
36800,note_on,56,0,3,,,,,,,,,2,,,58,73
36904,note_off,104,0,3,,,,,,,,,2,,,58,0
36904,note_off,104,0,4,,,,,,,,,3,,,46,0
36960,note_on,56,0,4,,,,,,,,,3,,,45,72
36960,note_on,0,0,3,,,,,,,,,2,,,57,72
36960,note_on,56,0,3,,,,,,,,,2,,,60,72
36960,note_on,1680,0,2,,,,,,,,,1,,,60,80
36960,set_tempo,1280,1,0,,,,,,508474,,,,,,,
36960,note_on,1680,0,1,,,,,,,,,0,,,72,80
37064,note_off,0,0,3,,,,,,,,,2,,,60,0
37064,note_off,104,0,3,,,,,,,,,2,,,57,0
37064,note_off,104,0,1,,,,,,,,,0,,,72,0
37064,note_off,104,0,2,,,,,,,,,1,,,60,0
37064,note_off,104,0,4,,,,,,,,,3,,,45,0
37120,note_on,56,0,1,,,,,,,,,0,,,84,81
37120,note_on,56,0,2,,,,,,,,,1,,,72,81
37120,set_tempo,160,1,0,,,,,,500000,,,,,,,
37120,note_on,56,0,3,,,,,,,,,2,,,57,81
37120,note_on,56,0,4,,,,,,,,,3,,,45,81
37224,note_off,104,0,1,,,,,,,,,0,,,84,0
37224,note_off,104,0,3,,,,,,,,,2,,,57,0
37224,note_off,104,0,4,,,,,,,,,3,,,45,0
37224,note_off,104,0,2,,,,,,,,,1,,,72,0
37280,note_on,56,0,2,,,,,,,,,1,,,71,79
37280,note_on,56,0,1,,,,,,,,,0,,,83,79
37280,note_on,56,0,3,,,,,,,,,2,,,56,79
37280,note_on,56,0,4,,,,,,,,,3,,,44,79
37384,note_off,104,0,2,,,,,,,,,1,,,71,0
37384,note_off,104,0,4,,,,,,,,,3,,,44,0
37384,note_off,104,0,1,,,,,,,,,0,,,83,0
37384,note_off,104,0,3,,,,,,,,,2,,,56,0
37440,note_on,56,0,4,,,,,,,,,3,,,45,87
37440,note_on,56,0,2,,,,,,,,,1,,,72,87
37440,note_on,56,0,3,,,,,,,,,2,,,57,87
37440,note_on,56,0,1,,,,,,,,,0,,,84,87
37544,note_off,104,0,1,,,,,,,,,0,,,84,0
37544,note_off,104,0,4,,,,,,,,,3,,,45,0
37544,note_off,104,0,3,,,,,,,,,2,,,57,0
37544,note_off,104,0,2,,,,,,,,,1,,,72,0
37600,note_on,56,0,1,,,,,,,,,0,,,82,79
37600,note_on,56,0,4,,,,,,,,,3,,,46,79
37600,note_on,56,0,2,,,,,,,,,1,,,70,79
37600,note_on,56,0,3,,,,,,,,,2,,,58,79
37704,note_off,104,0,2,,,,,,,,,1,,,70,0
37704,note_off,104,0,1,,,,,,,,,0,,,82,0
37704,note_off,104,0,4,,,,,,,,,3,,,46,0
37704,note_off,104,0,3,,,,,,,,,2,,,58,0
37760,note_on,56,0,2,,,,,,,,,1,,,69,78
37760,note_on,56,0,1,,,,,,,,,0,,,81,78
37760,note_on,56,0,3,,,,,,,,,2,,,60,78
37760,note_on,56,0,4,,,,,,,,,3,,,48,78
37864,note_off,104,0,4,,,,,,,,,3,,,48,0
37864,note_off,104,0,1,,,,,,,,,0,,,81,0
37864,note_off,104,0,3,,,,,,,,,2,,,60,0
37864,note_off,104,0,2,,,,,,,,,1,,,69,0
37920,note_on,56,0,4,,,,,,,,,3,,,46,86
37920,note_on,56,0,1,,,,,,,,,0,,,79,86
37920,note_on,56,0,3,,,,,,,,,2,,,58,86
37920,note_on,56,0,2,,,,,,,,,1,,,67,86
38024,note_off,104,0,2,,,,,,,,,1,,,67,0
38024,note_off,104,0,4,,,,,,,,,3,,,46,0
38024,note_off,104,0,1,,,,,,,,,0,,,79,0
38024,note_off,104,0,3,,,,,,,,,2,,,58,0
38080,note_on,56,0,4,,,,,,,,,3,,,45,78
38080,note_on,56,0,1,,,,,,,,,0,,,81,78
38080,note_on,56,0,3,,,,,,,,,2,,,57,78
38080,note_on,56,0,2,,,,,,,,,1,,,69,78
38184,note_off,104,0,1,,,,,,,,,0,,,81,0
38184,note_off,104,0,3,,,,,,,,,2,,,57,0
38184,note_off,104,0,4,,,,,,,,,3,,,45,0
38184,note_off,104,0,2,,,,,,,,,1,,,69,0
38240,note_on,56,0,3,,,,,,,,,2,,,55,77
38240,note_on,56,0,1,,,,,,,,,0,,,82,77
38240,note_on,56,0,4,,,,,,,,,3,,,43,77
38240,note_on,56,0,2,,,,,,,,,1,,,70,77
38344,note_off,104,0,1,,,,,,,,,0,,,82,0
38344,note_off,104,0,4,,,,,,,,,3,,,43,0
38344,note_off,104,0,3,,,,,,,,,2,,,55,0
38344,note_off,104,0,2,,,,,,,,,1,,,70,0
38400,note_on,56,0,1,,,,,,,,,0,,,81,86
38400,note_on,56,0,2,,,,,,,,,1,,,69,86
38400,note_on,56,0,4,,,,,,,,,3,,,41,86
38400,note_on,56,0,3,,,,,,,,,2,,,53,86
38504,note_off,104,0,1,,,,,,,,,0,,,81,0
38504,note_off,104,0,4,,,,,,,,,3,,,41,0
38504,note_off,104,0,3,,,,,,,,,2,,,53,0
38504,note_off,104,0,2,,,,,,,,,1,,,69,0
38560,note_on,56,0,2,,,,,,,,,1,,,67,77
38560,note_on,56,0,3,,,,,,,,,2,,,55,77
38560,note_on,56,0,1,,,,,,,,,0,,,79,77
38560,note_on,56,0,4,,,,,,,,,3,,,43,77
38664,note_off,104,0,3,,,,,,,,,2,,,55,0
38664,note_off,104,0,2,,,,,,,,,1,,,67,0
38664,note_off,104,0,1,,,,,,,,,0,,,79,0
38664,note_off,104,0,4,,,,,,,,,3,,,43,0
38720,note_on,56,0,1,,,,,,,,,0,,,77,76
38720,note_on,56,0,2,,,,,,,,,1,,,65,76
38720,note_on,56,0,4,,,,,,,,,3,,,45,76
38720,note_on,56,0,3,,,,,,,,,2,,,57,76
38824,note_off,104,0,3,,,,,,,,,2,,,57,0
38824,note_off,104,0,4,,,,,,,,,3,,,45,0
38824,note_off,104,0,1,,,,,,,,,0,,,77,0
38824,note_off,104,0,2,,,,,,,,,1,,,65,0
38880,note_on,56,0,2,,,,,,,,,1,,,64,85
38880,note_on,56,0,1,,,,,,,,,0,,,76,85
38880,note_on,56,0,4,,,,,,,,,3,,,43,85
38880,note_on,56,0,3,,,,,,,,,2,,,55,85
38984,note_off,104,0,1,,,,,,,,,0,,,76,0
38984,note_off,104,0,2,,,,,,,,,1,,,64,0
38984,note_off,104,0,3,,,,,,,,,2,,,55,0
38984,note_off,104,0,4,,,,,,,,,3,,,43,0
39040,note_on,56,0,1,,,,,,,,,0,,,77,76
39040,note_on,56,0,2,,,,,,,,,1,,,65,76
39040,note_on,56,0,3,,,,,,,,,2,,,53,76
39040,note_on,56,0,4,,,,,,,,,3,,,41,76
39144,note_off,104,0,1,,,,,,,,,0,,,77,0
39144,note_off,104,0,4,,,,,,,,,3,,,41,0
39144,note_off,104,0,3,,,,,,,,,2,,,53,0
39144,note_off,104,0,2,,,,,,,,,1,,,65,0
39200,note_on,56,0,1,,,,,,,,,0,,,79,76
39200,note_on,56,0,4,,,,,,,,,3,,,40,76
39200,note_on,56,0,3,,,,,,,,,2,,,52,76
39200,note_on,56,0,2,,,,,,,,,1,,,67,76
39304,note_off,104,0,2,,,,,,,,,1,,,67,0
39304,note_off,104,0,4,,,,,,,,,3,,,40,0
39304,note_off,104,0,3,,,,,,,,,2,,,52,0
39304,note_off,104,0,1,,,,,,,,,0,,,79,0
39360,note_on,56,0,1,,,,,,,,,0,,,77,83
39360,note_on,56,0,3,,,,,,,,,2,,,50,83
39360,note_on,56,0,2,,,,,,,,,1,,,65,83
39360,note_on,56,0,4,,,,,,,,,3,,,38,83
39464,note_off,104,0,2,,,,,,,,,1,,,65,0
39464,note_off,104,0,4,,,,,,,,,3,,,38,0
39464,note_off,104,0,3,,,,,,,,,2,,,50,0
39464,note_off,104,0,1,,,,,,,,,0,,,77,0
39520,note_on,56,0,3,,,,,,,,,2,,,52,75
39520,note_on,56,0,2,,,,,,,,,1,,,64,75
39520,note_on,56,0,1,,,,,,,,,0,,,76,75
39520,note_on,56,0,4,,,,,,,,,3,,,40,75
39624,note_off,104,0,2,,,,,,,,,1,,,64,0
39624,note_off,104,0,4,,,,,,,,,3,,,40,0
39624,note_off,104,0,3,,,,,,,,,2,,,52,0
39624,note_off,104,0,1,,,,,,,,,0,,,76,0
39680,note_on,56,0,4,,,,,,,,,3,,,41,75
39680,note_on,56,0,2,,,,,,,,,1,,,62,75
39680,note_on,56,0,3,,,,,,,,,2,,,53,75
39680,note_on,56,0,1,,,,,,,,,0,,,74,75
39784,note_off,104,0,4,,,,,,,,,3,,,41,0
39784,note_off,104,0,2,,,,,,,,,1,,,62,0
39784,note_off,104,0,3,,,,,,,,,2,,,53,0
39784,note_off,104,0,1,,,,,,,,,0,,,74,0
39840,note_on,56,0,4,,,,,,,,,3,,,40,80
39840,note_on,56,0,2,,,,,,,,,1,,,61,80
39840,note_on,56,0,1,,,,,,,,,0,,,73,80
39840,note_on,56,0,3,,,,,,,,,2,,,52,80
39944,note_off,104,0,1,,,,,,,,,0,,,73,0
39944,note_off,104,0,2,,,,,,,,,1,,,61,0
39944,note_off,104,0,4,,,,,,,,,3,,,40,0
39944,note_off,104,0,3,,,,,,,,,2,,,52,0
40000,note_on,56,0,1,,,,,,,,,0,,,74,75
40000,note_on,56,0,2,,,,,,,,,1,,,62,75
40000,note_on,56,0,4,,,,,,,,,3,,,38,75
40000,note_on,56,0,3,,,,,,,,,2,,,50,75
40104,note_off,104,0,2,,,,,,,,,1,,,62,0
40104,note_off,104,0,4,,,,,,,,,3,,,38,0
40104,note_off,104,0,3,,,,,,,,,2,,,50,0
40104,note_off,104,0,1,,,,,,,,,0,,,74,0
40160,note_on,56,0,3,,,,,,,,,2,,,48,74
40160,note_on,56,0,2,,,,,,,,,1,,,64,74
40160,note_on,56,0,1,,,,,,,,,0,,,76,74
40160,note_on,56,0,4,,,,,,,,,3,,,36,74
40264,note_off,104,0,4,,,,,,,,,3,,,36,0
40264,note_off,104,0,1,,,,,,,,,0,,,76,0
40264,note_off,104,0,3,,,,,,,,,2,,,48,0
40264,note_off,104,0,2,,,,,,,,,1,,,64,0
40320,note_on,56,0,2,,,,,,,,,1,,,62,73
40320,note_on,56,0,4,,,,,,,,,3,,,34,73
40320,note_on,56,0,1,,,,,,,,,0,,,74,73
40320,note_on,56,0,3,,,,,,,,,2,,,46,73
40424,note_off,104,0,2,,,,,,,,,1,,,62,0
40424,note_off,104,0,3,,,,,,,,,2,,,46,0
40424,note_off,104,0,1,,,,,,,,,0,,,74,0
40424,note_off,104,0,4,,,,,,,,,3,,,34,0
40480,note_on,56,0,2,,,,,,,,,1,,,60,72
40480,note_on,56,0,1,,,,,,,,,0,,,72,72
40480,note_on,56,0,4,,,,,,,,,3,,,33,72
40480,note_on,56,0,3,,,,,,,,,2,,,45,72
40584,note_off,104,0,4,,,,,,,,,3,,,33,0
40584,note_off,104,0,2,,,,,,,,,1,,,60,0
40584,note_off,104,0,1,,,,,,,,,0,,,72,0
40584,note_off,104,0,3,,,,,,,,,2,,,45,0
40640,note_on,56,0,2,,,,,,,,,1,,,58,72
40640,note_on,56,0,4,,,,,,,,,3,,,34,72
40640,note_on,56,0,3,,,,,,,,,2,,,46,72
40640,note_on,56,0,1,,,,,,,,,0,,,70,72
40744,note_off,104,0,3,,,,,,,,,2,,,46,0
40744,note_off,104,0,1,,,,,,,,,0,,,70,0
40744,note_off,104,0,2,,,,,,,,,1,,,58,0
40744,note_off,104,0,4,,,,,,,,,3,,,34,0
40800,note_on,56,0,3,,,,,,,,,2,,,47,71
40800,note_on,56,0,1,,,,,,,,,0,,,69,71
40800,note_on,56,0,2,,,,,,,,,1,,,57,71
40800,note_on,56,0,4,,,,,,,,,3,,,35,71
40904,note_off,104,0,4,,,,,,,,,3,,,35,0
40904,note_off,104,0,2,,,,,,,,,1,,,57,0
40904,note_off,104,0,1,,,,,,,,,0,,,69,0
40904,note_off,104,0,3,,,,,,,,,2,,,47,0
40960,note_on,56,0,4,,,,,,,,,3,,,33,70
40960,note_on,56,0,2,,,,,,,,,1,,,55,70
40960,note_on,56,0,1,,,,,,,,,0,,,67,70
40960,note_on,56,0,3,,,,,,,,,2,,,45,70
41064,note_off,104,0,3,,,,,,,,,2,,,45,0
41064,note_off,104,0,1,,,,,,,,,0,,,67,0
41064,note_off,104,0,4,,,,,,,,,3,,,33,0
41064,note_off,104,0,2,,,,,,,,,1,,,55,0
41120,note_on,56,0,2,,,,,,,,,1,,,53,69
41120,note_on,56,0,1,,,,,,,,,0,,,65,69
41120,note_on,56,0,4,,,,,,,,,3,,,35,69
41120,note_on,56,0,3,,,,,,,,,2,,,47,69
41224,note_off,104,0,3,,,,,,,,,2,,,47,0
41224,note_off,104,0,1,,,,,,,,,0,,,65,0
41224,note_off,104,0,2,,,,,,,,,1,,,53,0
41224,note_off,104,0,4,,,,,,,,,3,,,35,0
41280,note_on,56,0,4,,,,,,,,,3,,,36,68
41280,set_tempo,4160,1,0,,,,,,508474,,,,,,,
41280,note_on,56,0,1,,,,,,,,,0,,,64,68
41280,note_on,56,0,3,,,,,,,,,2,,,48,68
41280,note_on,56,0,2,,,,,,,,,1,,,52,68
41384,note_off,104,0,2,,,,,,,,,1,,,52,0
41384,note_off,104,0,1,,,,,,,,,0,,,64,0
41384,note_off,104,0,3,,,,,,,,,2,,,48,0
41384,note_off,104,0,4,,,,,,,,,3,,,36,0
41440,note_on,56,0,1,,,,,,,,,0,,,72,79
41440,set_tempo,160,1,0,,,,,,500000,,,,,,,
41440,note_on,56,0,2,,,,,,,,,1,,,60,79
41544,note_off,104,0,2,,,,,,,,,1,,,60,0
41544,note_off,104,0,1,,,,,,,,,0,,,72,0
41600,note_on,56,0,1,,,,,,,,,0,,,71,78
41600,note_on,56,0,2,,,,,,,,,1,,,59,78
41704,note_off,104,0,2,,,,,,,,,1,,,59,0
41704,note_off,104,0,1,,,,,,,,,0,,,71,0
41760,note_on,56,0,1,,,,,,,,,0,,,72,77
41760,note_on,56,0,2,,,,,,,,,1,,,60,77
41864,note_off,104,0,2,,,,,,,,,1,,,60,0
41864,note_off,104,0,1,,,,,,,,,0,,,72,0
41920,note_on,56,0,1,,,,,,,,,0,,,70,76
41920,note_on,56,0,2,,,,,,,,,1,,,58,76
42024,note_off,104,0,2,,,,,,,,,1,,,58,0
42024,note_off,104,0,1,,,,,,,,,0,,,70,0
42080,note_on,56,0,1,,,,,,,,,0,,,69,75
42080,note_on,56,0,2,,,,,,,,,1,,,57,75
42184,note_off,104,0,1,,,,,,,,,0,,,69,0
42184,note_off,104,0,2,,,,,,,,,1,,,57,0
42240,note_on,56,0,1,,,,,,,,,0,,,67,73
42240,note_on,56,0,2,,,,,,,,,1,,,55,73
42344,note_off,104,0,1,,,,,,,,,0,,,67,0
42344,note_off,104,0,2,,,,,,,,,1,,,55,0
42400,note_on,56,0,1,,,,,,,,,0,,,69,72
42400,note_on,56,0,2,,,,,,,,,1,,,57,72
42504,note_off,104,0,1,,,,,,,,,0,,,69,0
42504,note_off,104,0,2,,,,,,,,,1,,,57,0
42560,note_on,56,0,2,,,,,,,,,1,,,58,71
42560,note_on,56,0,1,,,,,,,,,0,,,70,71
42664,note_off,104,0,2,,,,,,,,,1,,,58,0
42664,note_off,104,0,1,,,,,,,,,0,,,70,0
42720,note_on,56,0,2,,,,,,,,,1,,,69,70
42720,note_on,1336,0,4,,,,,,,,,3,,,48,79
42720,set_tempo,1280,1,0,,,,,,508474,,,,,,,
42720,note_on,56,0,1,,,,,,,,,0,,,69,70
42720,note_on,1336,0,3,,,,,,,,,2,,,57,79
42824,note_off,104,0,2,,,,,,,,,1,,,69,0
42824,note_off,104,0,4,,,,,,,,,3,,,48,0
42824,note_off,104,0,3,,,,,,,,,2,,,57,0
42824,note_off,104,0,1,,,,,,,,,0,,,69,0
42880,note_on,56,0,4,,,,,,,,,3,,,60,79
42880,note_on,56,0,1,,,,,,,,,0,,,81,79
42880,set_tempo,160,1,0,,,,,,500000,,,,,,,
42880,note_on,56,0,2,,,,,,,,,1,,,69,79
42984,note_off,104,0,2,,,,,,,,,1,,,69,0
42984,note_off,104,0,4,,,,,,,,,3,,,60,0
42984,note_off,104,0,1,,,,,,,,,0,,,81,0
43040,note_on,56,0,1,,,,,,,,,0,,,80,77
43040,note_on,216,0,3,,,,,,,,,2,,,60,77
43040,note_on,56,0,2,,,,,,,,,1,,,68,77
43040,note_on,56,0,4,,,,,,,,,3,,,59,77
43144,note_off,104,0,1,,,,,,,,,0,,,80,0
43144,note_off,104,0,3,,,,,,,,,2,,,60,0
43144,note_off,104,0,4,,,,,,,,,3,,,59,0
43144,note_off,104,0,2,,,,,,,,,1,,,68,0
43200,note_on,56,0,4,,,,,,,,,3,,,60,76
43200,note_on,56,0,2,,,,,,,,,1,,,69,76
43200,note_on,56,0,1,,,,,,,,,0,,,81,76
43304,note_off,104,0,2,,,,,,,,,1,,,69,0
43304,note_off,104,0,1,,,,,,,,,0,,,81,0
43304,note_off,104,0,4,,,,,,,,,3,,,60,0
43360,note_on,216,0,3,,,,,,,,,2,,,60,76
43360,note_on,56,0,4,,,,,,,,,3,,,58,76
43360,note_on,56,0,1,,,,,,,,,0,,,79,76
43360,note_on,56,0,2,,,,,,,,,1,,,67,76
43464,note_off,104,0,4,,,,,,,,,3,,,58,0
43464,note_off,104,0,1,,,,,,,,,0,,,79,0
43464,note_off,104,0,2,,,,,,,,,1,,,67,0
43464,note_off,104,0,3,,,,,,,,,2,,,60,0
43520,note_on,56,0,4,,,,,,,,,3,,,57,75
43520,note_on,56,0,1,,,,,,,,,0,,,77,75
43520,note_on,56,0,2,,,,,,,,,1,,,65,75
43520,note_on,56,0,3,,,,,,,,,2,,,60,75
43624,note_off,104,0,4,,,,,,,,,3,,,57,0
43624,note_off,104,0,1,,,,,,,,,0,,,77,0
43624,note_off,104,0,2,,,,,,,,,1,,,65,0
43624,note_off,104,0,3,,,,,,,,,2,,,60,0
43680,note_on,56,0,2,,,,,,,,,1,,,67,82
43680,note_on,56,0,3,,,,,,,,,2,,,60,82
43680,note_on,56,0,1,,,,,,,,,0,,,76,82
43680,note_on,56,0,4,,,,,,,,,3,,,58,82
43784,note_off,104,0,1,,,,,,,,,0,,,76,0
43784,note_off,104,0,4,,,,,,,,,3,,,58,0
43784,note_off,104,0,3,,,,,,,,,2,,,60,0
43784,note_off,104,0,2,,,,,,,,,1,,,67,0
43840,note_on,56,0,4,,,,,,,,,3,,,57,74
43840,note_on,56,0,2,,,,,,,,,1,,,69,74
43840,note_on,56,0,3,,,,,,,,,2,,,60,74
43840,note_on,56,0,1,,,,,,,,,0,,,77,74
43944,note_off,104,0,3,,,,,,,,,2,,,60,0
43944,note_off,104,0,1,,,,,,,,,0,,,77,0
43944,note_off,104,0,2,,,,,,,,,1,,,69,0
43944,note_off,104,0,4,,,,,,,,,3,,,57,0
44000,note_on,56,0,4,,,,,,,,,3,,,55,74
44000,note_on,56,0,1,,,,,,,,,0,,,79,74
44000,note_on,56,0,3,,,,,,,,,2,,,60,74
44000,note_on,56,0,2,,,,,,,,,1,,,70,74
44104,note_off,104,0,4,,,,,,,,,3,,,55,0
44104,note_off,104,0,2,,,,,,,,,1,,,70,0
44104,note_off,104,0,3,,,,,,,,,2,,,60,0
44104,note_off,104,0,1,,,,,,,,,0,,,79,0
44160,note_on,56,0,1,,,,,,,,,0,,,77,74
44160,note_on,56,0,4,,,,,,,,,3,,,57,74
44160,note_on,56,0,3,,,,,,,,,2,,,60,74
44160,note_on,56,0,2,,,,,,,,,1,,,69,74
44264,note_off,104,0,4,,,,,,,,,3,,,57,0
44264,note_off,104,0,2,,,,,,,,,1,,,69,0
44264,note_off,104,0,1,,,,,,,,,0,,,77,0
44264,note_off,104,0,3,,,,,,,,,2,,,60,0
44320,note_on,56,0,4,,,,,,,,,3,,,55,73
44320,note_on,56,0,2,,,,,,,,,1,,,70,73
44320,note_on,56,0,1,,,,,,,,,0,,,79,73
44320,note_on,56,0,3,,,,,,,,,2,,,60,73
44424,note_off,104,0,3,,,,,,,,,2,,,60,0
44424,note_off,104,0,1,,,,,,,,,0,,,79,0
44424,note_off,104,0,4,,,,,,,,,3,,,55,0
44424,note_off,104,0,2,,,,,,,,,1,,,70,0
44480,note_on,56,0,3,,,,,,,,,2,,,60,73
44480,note_on,56,0,2,,,,,,,,,1,,,72,73
44480,note_on,56,0,4,,,,,,,,,3,,,53,73
44480,note_on,56,0,1,,,,,,,,,0,,,81,73
44584,note_off,104,0,1,,,,,,,,,0,,,81,0
44584,note_off,104,0,3,,,,,,,,,2,,,60,0
44584,note_off,104,0,2,,,,,,,,,1,,,72,0
44584,note_off,104,0,4,,,,,,,,,3,,,53,0
44640,note_on,56,0,3,,,,,,,,,2,,,57,80
44640,note_on,56,0,2,,,,,,,,,1,,,64,80
44640,note_on,56,0,1,,,,,,,,,0,,,73,80
44640,note_on,56,0,4,,,,,,,,,3,,,55,80
44744,note_off,104,0,1,,,,,,,,,0,,,73,0
44744,note_off,104,0,2,,,,,,,,,1,,,64,0
44744,note_off,104,0,3,,,,,,,,,2,,,57,0
44744,note_off,104,0,4,,,,,,,,,3,,,55,0
44800,note_on,56,0,3,,,,,,,,,2,,,57,72
44800,note_on,56,0,4,,,,,,,,,3,,,53,72
44800,note_on,56,0,2,,,,,,,,,1,,,65,72
44800,note_on,56,0,1,,,,,,,,,0,,,74,72
44904,note_off,104,0,4,,,,,,,,,3,,,53,0
44904,note_off,104,0,3,,,,,,,,,2,,,57,0
44904,note_off,104,0,1,,,,,,,,,0,,,74,0
44904,note_off,104,0,2,,,,,,,,,1,,,65,0
44960,note_on,56,0,1,,,,,,,,,0,,,76,71
44960,note_on,56,0,2,,,,,,,,,1,,,67,71
44960,note_on,56,0,4,,,,,,,,,3,,,52,71
44960,note_on,56,0,3,,,,,,,,,2,,,57,71
45064,note_off,104,0,3,,,,,,,,,2,,,57,0
45064,note_off,104,0,1,,,,,,,,,0,,,76,0
45064,note_off,104,0,4,,,,,,,,,3,,,52,0
45064,note_off,104,0,2,,,,,,,,,1,,,67,0
45120,note_on,56,0,4,,,,,,,,,3,,,53,71
45120,note_on,56,0,1,,,,,,,,,0,,,74,71
45120,note_on,56,0,2,,,,,,,,,1,,,65,71
45120,note_on,56,0,3,,,,,,,,,2,,,57,71
45224,note_off,104,0,2,,,,,,,,,1,,,65,0
45224,note_off,104,0,1,,,,,,,,,0,,,74,0
45224,note_off,104,0,4,,,,,,,,,3,,,53,0
45224,note_off,104,0,3,,,,,,,,,2,,,57,0
45280,note_on,56,0,2,,,,,,,,,1,,,67,70
45280,note_on,56,0,4,,,,,,,,,3,,,52,70
45280,note_on,56,0,1,,,,,,,,,0,,,76,70
45280,note_on,56,0,3,,,,,,,,,2,,,57,70
45384,note_off,104,0,3,,,,,,,,,2,,,57,0
45384,note_off,104,0,2,,,,,,,,,1,,,67,0
45384,note_off,104,0,1,,,,,,,,,0,,,76,0
45384,note_off,104,0,4,,,,,,,,,3,,,52,0
45440,note_on,56,0,3,,,,,,,,,2,,,57,70
45440,note_on,56,0,2,,,,,,,,,1,,,69,70
45440,note_on,56,0,1,,,,,,,,,0,,,77,70
45440,note_on,56,0,4,,,,,,,,,3,,,50,70
45544,note_off,104,0,2,,,,,,,,,1,,,69,0
45544,note_off,104,0,1,,,,,,,,,0,,,77,0
45544,note_off,104,0,3,,,,,,,,,2,,,57,0
45544,note_off,104,0,4,,,,,,,,,3,,,50,0
45600,note_on,56,0,1,,,,,,,,,0,,,71,76
45600,note_on,56,0,4,,,,,,,,,3,,,53,76
45600,note_on,56,0,3,,,,,,,,,2,,,55,76
45600,note_on,56,0,2,,,,,,,,,1,,,62,76
45704,note_off,104,0,4,,,,,,,,,3,,,53,0
45704,note_off,104,0,1,,,,,,,,,0,,,71,0
45704,note_off,104,0,2,,,,,,,,,1,,,62,0
45704,note_off,104,0,3,,,,,,,,,2,,,55,0
45760,note_on,56,0,2,,,,,,,,,1,,,64,71
45760,note_on,56,0,4,,,,,,,,,3,,,52,71
45760,note_on,56,0,1,,,,,,,,,0,,,72,71
45760,note_on,56,0,3,,,,,,,,,2,,,55,71
45864,note_off,104,0,3,,,,,,,,,2,,,55,0
45864,note_off,104,0,4,,,,,,,,,3,,,52,0
45864,note_off,104,0,1,,,,,,,,,0,,,72,0
45864,note_off,104,0,2,,,,,,,,,1,,,64,0
45920,note_on,56,0,2,,,,,,,,,1,,,65,68
45920,note_on,56,0,1,,,,,,,,,0,,,74,68
45920,note_on,56,0,4,,,,,,,,,3,,,50,68
45920,note_on,56,0,3,,,,,,,,,2,,,55,68
46024,note_off,104,0,4,,,,,,,,,3,,,50,0
46024,note_off,104,0,1,,,,,,,,,0,,,74,0
46024,note_off,104,0,2,,,,,,,,,1,,,65,0
46024,note_off,104,0,3,,,,,,,,,2,,,55,0
46080,note_on,56,0,4,,,,,,,,,3,,,52,68
46080,note_on,56,0,2,,,,,,,,,1,,,64,68
46080,note_on,56,0,1,,,,,,,,,0,,,72,68
46080,note_on,56,0,3,,,,,,,,,2,,,55,68
46184,note_off,104,0,1,,,,,,,,,0,,,72,0
46184,note_off,104,0,4,,,,,,,,,3,,,52,0
46184,note_off,104,0,3,,,,,,,,,2,,,55,0
46184,note_off,104,0,2,,,,,,,,,1,,,64,0
46240,note_on,56,0,4,,,,,,,,,3,,,50,67
46240,note_on,56,0,1,,,,,,,,,0,,,74,67
46240,note_on,56,0,3,,,,,,,,,2,,,55,67
46240,note_on,56,0,2,,,,,,,,,1,,,65,67
46344,note_off,104,0,4,,,,,,,,,3,,,50,0
46344,note_off,104,0,1,,,,,,,,,0,,,74,0
46344,note_off,104,0,3,,,,,,,,,2,,,55,0
46344,note_off,104,0,2,,,,,,,,,1,,,65,0
46400,note_on,56,0,3,,,,,,,,,2,,,55,67
46400,note_on,56,0,4,,,,,,,,,3,,,48,67
46400,note_on,56,0,1,,,,,,,,,0,,,76,67
46400,note_on,56,0,2,,,,,,,,,1,,,67,67
46504,note_off,104,0,2,,,,,,,,,1,,,67,0
46504,note_off,104,0,4,,,,,,,,,3,,,48,0
46504,note_off,104,0,3,,,,,,,,,2,,,55,0
46504,note_off,104,0,1,,,,,,,,,0,,,76,0
46560,note_on,56,0,3,,,,,,,,,2,,,57,74
46560,note_on,56,0,2,,,,,,,,,1,,,64,74
46560,note_on,56,0,4,,,,,,,,,3,,,55,74
46560,note_on,56,0,1,,,,,,,,,0,,,73,74
46664,note_off,104,0,4,,,,,,,,,3,,,55,0
46664,note_off,104,0,1,,,,,,,,,0,,,73,0
46664,note_off,104,0,2,,,,,,,,,1,,,64,0
46664,note_off,104,0,3,,,,,,,,,2,,,57,0
46720,note_on,56,0,1,,,,,,,,,0,,,74,66
46720,note_on,56,0,4,,,,,,,,,3,,,53,66
46720,note_on,56,0,3,,,,,,,,,2,,,57,66
46720,note_on,56,0,2,,,,,,,,,1,,,65,66
46824,note_off,104,0,3,,,,,,,,,2,,,57,0
46824,note_off,104,0,4,,,,,,,,,3,,,53,0
46824,note_off,104,0,1,,,,,,,,,0,,,74,0
46824,note_off,104,0,2,,,,,,,,,1,,,65,0
46880,note_on,56,0,3,,,,,,,,,2,,,57,65
46880,note_on,56,0,1,,,,,,,,,0,,,76,65
46880,note_on,56,0,4,,,,,,,,,3,,,52,65
46880,note_on,56,0,2,,,,,,,,,1,,,67,65
46984,note_off,104,0,1,,,,,,,,,0,,,76,0
46984,note_off,104,0,4,,,,,,,,,3,,,52,0
46984,note_off,104,0,3,,,,,,,,,2,,,57,0
46984,note_off,104,0,2,,,,,,,,,1,,,67,0
47040,note_on,56,0,2,,,,,,,,,1,,,65,65
47040,note_on,56,0,3,,,,,,,,,2,,,57,65
47040,note_on,56,0,4,,,,,,,,,3,,,53,65
47040,note_on,56,0,1,,,,,,,,,0,,,74,65
47144,note_off,104,0,4,,,,,,,,,3,,,53,0
47144,note_off,104,0,2,,,,,,,,,1,,,65,0
47144,note_off,104,0,1,,,,,,,,,0,,,74,0
47144,note_off,104,0,3,,,,,,,,,2,,,57,0
47200,note_on,56,0,1,,,,,,,,,0,,,76,64
47200,note_on,56,0,3,,,,,,,,,2,,,57,64
47200,note_on,56,0,2,,,,,,,,,1,,,67,64
47200,note_on,56,0,4,,,,,,,,,3,,,52,64
47304,note_off,104,0,2,,,,,,,,,1,,,67,0
47304,note_off,104,0,3,,,,,,,,,2,,,57,0
47304,note_off,104,0,4,,,,,,,,,3,,,52,0
47304,note_off,104,0,1,,,,,,,,,0,,,76,0
47360,note_on,56,0,3,,,,,,,,,2,,,57,64
47360,note_on,56,0,2,,,,,,,,,1,,,69,64
47360,note_on,56,0,4,,,,,,,,,3,,,50,64
47360,note_on,56,0,1,,,,,,,,,0,,,77,64
47464,note_off,104,0,1,,,,,,,,,0,,,77,0
47464,note_off,104,0,2,,,,,,,,,1,,,69,0
47464,note_off,104,0,4,,,,,,,,,3,,,50,0
47464,note_off,104,0,3,,,,,,,,,2,,,57,0
47520,note_on,56,0,3,,,,,,,,,2,,,55,73
47520,note_on,56,0,1,,,,,,,,,0,,,71,73
47520,note_on,56,0,2,,,,,,,,,1,,,62,73
47520,note_on,56,0,4,,,,,,,,,3,,,53,73
47624,note_off,104,0,3,,,,,,,,,2,,,55,0
47624,note_off,104,0,4,,,,,,,,,3,,,53,0
47624,note_off,104,0,1,,,,,,,,,0,,,71,0
47624,note_off,104,0,2,,,,,,,,,1,,,62,0
47680,note_on,56,0,1,,,,,,,,,0,,,72,65
47680,note_on,56,0,2,,,,,,,,,1,,,64,65
47680,note_on,56,0,3,,,,,,,,,2,,,55,65
47680,note_on,56,0,4,,,,,,,,,3,,,52,65
47784,note_off,104,0,3,,,,,,,,,2,,,55,0
47784,note_off,104,0,4,,,,,,,,,3,,,52,0
47784,note_off,104,0,2,,,,,,,,,1,,,64,0
47784,note_off,104,0,1,,,,,,,,,0,,,72,0
47840,note_on,56,0,1,,,,,,,,,0,,,74,65
47840,note_on,56,0,2,,,,,,,,,1,,,65,65
47840,note_on,56,0,3,,,,,,,,,2,,,55,65
47840,note_on,56,0,4,,,,,,,,,3,,,50,65
47944,note_off,104,0,2,,,,,,,,,1,,,65,0
47944,note_off,104,0,3,,,,,,,,,2,,,55,0
47944,note_off,104,0,4,,,,,,,,,3,,,50,0
47944,note_off,104,0,1,,,,,,,,,0,,,74,0
48000,note_on,56,0,4,,,,,,,,,3,,,52,64
48000,note_on,56,0,3,,,,,,,,,2,,,55,64
48000,note_on,56,0,1,,,,,,,,,0,,,72,64
48000,note_on,56,0,2,,,,,,,,,1,,,64,64
48104,note_off,104,0,1,,,,,,,,,0,,,72,0
48104,note_off,104,0,3,,,,,,,,,2,,,55,0
48104,note_off,104,0,2,,,,,,,,,1,,,64,0
48104,note_off,104,0,4,,,,,,,,,3,,,52,0
48160,note_on,56,0,3,,,,,,,,,2,,,55,63
48160,note_on,56,0,4,,,,,,,,,3,,,50,63
48160,note_on,56,0,1,,,,,,,,,0,,,74,63
48160,note_on,56,0,2,,,,,,,,,1,,,65,63
48264,note_off,104,0,2,,,,,,,,,1,,,65,0
48264,note_off,104,0,3,,,,,,,,,2,,,55,0
48264,note_off,104,0,4,,,,,,,,,3,,,50,0
48264,note_off,104,0,1,,,,,,,,,0,,,74,0
48320,note_on,56,0,4,,,,,,,,,3,,,48,63
48320,note_on,56,0,2,,,,,,,,,1,,,67,63
48320,note_on,56,0,3,,,,,,,,,2,,,55,63
48320,note_on,56,0,1,,,,,,,,,0,,,76,63
48424,note_off,104,0,1,,,,,,,,,0,,,76,0
48424,note_off,104,0,4,,,,,,,,,3,,,48,0
48424,note_off,104,0,3,,,,,,,,,2,,,55,0
48424,note_off,104,0,2,,,,,,,,,1,,,67,0
48480,note_on,56,0,2,,,,,,,,,1,,,60,62
48480,note_on,56,0,1,,,,,,,,,0,,,72,62
48480,note_on,56,0,4,,,,,,,,,3,,,52,62
48584,note_off,104,0,2,,,,,,,,,1,,,60,0
48584,note_off,104,0,1,,,,,,,,,0,,,72,0
48584,note_off,104,0,4,,,,,,,,,3,,,52,0
48640,note_on,56,0,2,,,,,,,,,1,,,62,62
48640,note_on,56,0,1,,,,,,,,,0,,,74,62
48640,note_on,56,0,4,,,,,,,,,3,,,50,62
48744,note_off,104,0,2,,,,,,,,,1,,,62,0
48744,note_off,104,0,1,,,,,,,,,0,,,74,0
48744,note_off,104,0,4,,,,,,,,,3,,,50,0
48800,note_on,56,0,4,,,,,,,,,3,,,48,61
48800,note_on,56,0,1,,,,,,,,,0,,,76,61
48800,note_on,56,0,2,,,,,,,,,1,,,64,61
48840,set_tempo,5960,1,0,,,,,,508474,,,,,,,
48904,note_off,104,0,4,,,,,,,,,3,,,48,0
48904,note_off,104,0,2,,,,,,,,,1,,,64,0
48904,note_off,104,0,1,,,,,,,,,0,,,76,0
48960,note_on,56,0,2,,,,,,,,,1,,,65,61
48960,set_tempo,120,1,0,,,,,,500000,,,,,,,
48960,note_on,56,0,4,,,,,,,,,3,,,47,61
48960,note_on,56,0,1,,,,,,,,,0,,,77,61
49064,note_off,104,0,1,,,,,,,,,0,,,77,0
49064,note_off,104,0,2,,,,,,,,,1,,,65,0
49064,note_off,104,0,4,,,,,,,,,3,,,47,0
49120,note_on,56,0,2,,,,,,,,,1,,,67,60
49120,note_on,56,0,4,,,,,,,,,3,,,45,60
49120,note_on,56,0,1,,,,,,,,,0,,,79,60
49224,note_off,104,0,4,,,,,,,,,3,,,45,0
49224,note_off,104,0,1,,,,,,,,,0,,,79,0
49224,note_off,104,0,2,,,,,,,,,1,,,67,0
49280,note_on,56,0,4,,,,,,,,,3,,,43,60
49280,note_on,56,0,2,,,,,,,,,1,,,69,60
49280,note_on,56,0,1,,,,,,,,,0,,,81,60
49384,note_off,104,0,2,,,,,,,,,1,,,69,0
49384,note_off,104,0,4,,,,,,,,,3,,,43,0
49384,note_off,104,0,1,,,,,,,,,0,,,81,0
49440,note_on,56,0,2,,,,,,,,,1,,,71,59
49440,note_on,56,0,4,,,,,,,,,3,,,41,59
49440,note_on,56,0,1,,,,,,,,,0,,,83,59
49544,note_off,104,0,2,,,,,,,,,1,,,71,0
49544,note_off,104,0,4,,,,,,,,,3,,,41,0
49544,note_off,104,0,1,,,,,,,,,0,,,83,0
49600,note_on,56,0,4,,,,,,,,,3,,,40,59
49600,note_on,56,0,1,,,,,,,,,0,,,84,59
49600,note_on,56,0,2,,,,,,,,,1,,,72,59
49704,note_off,104,0,4,,,,,,,,,3,,,40,0
49704,note_off,104,0,1,,,,,,,,,0,,,84,0
49704,note_off,104,0,2,,,,,,,,,1,,,72,0
49760,note_on,56,0,1,,,,,,,,,0,,,86,58
49760,note_on,56,0,2,,,,,,,,,1,,,74,58
49760,note_on,56,0,4,,,,,,,,,3,,,38,58
49864,note_off,104,0,4,,,,,,,,,3,,,38,0
49864,note_off,104,0,2,,,,,,,,,1,,,74,0
49864,note_off,104,0,1,,,,,,,,,0,,,86,0
49920,note_on,56,0,2,,,,,,,,,1,,,76,69
49920,note_on,56,0,4,,,,,,,,,3,,,36,69
49920,note_on,56,0,1,,,,,,,,,0,,,88,69
49920,note_on,1496,0,3,,,,,,,,,2,,,43,69
50024,note_off,104,0,3,,,,,,,,,2,,,43,0
50024,note_off,104,0,2,,,,,,,,,1,,,76,0
50024,note_off,104,0,4,,,,,,,,,3,,,36,0
50024,note_off,104,0,1,,,,,,,,,0,,,88,0
50080,note_on,56,0,1,,,,,,,,,0,,,86,59
50080,note_on,56,0,4,,,,,,,,,3,,,38,59
50080,note_on,56,0,3,,,,,,,,,2,,,43,59
50080,note_on,56,0,2,,,,,,,,,1,,,74,59
50184,note_off,104,0,4,,,,,,,,,3,,,38,0
50184,note_off,104,0,3,,,,,,,,,2,,,43,0
50184,note_off,104,0,1,,,,,,,,,0,,,86,0
50184,note_off,104,0,2,,,,,,,,,1,,,74,0
50240,note_on,56,0,3,,,,,,,,,2,,,43,60
50240,note_on,56,0,4,,,,,,,,,3,,,40,60
50240,note_on,56,0,1,,,,,,,,,0,,,84,60
50240,note_on,56,0,2,,,,,,,,,1,,,72,60
50344,note_off,104,0,4,,,,,,,,,3,,,40,0
50344,note_off,104,0,1,,,,,,,,,0,,,84,0
50344,note_off,104,0,3,,,,,,,,,2,,,43,0
50344,note_off,104,0,2,,,,,,,,,1,,,72,0
50400,note_on,56,0,2,,,,,,,,,1,,,71,62
50400,note_on,56,0,1,,,,,,,,,0,,,83,62
50400,note_on,56,0,4,,,,,,,,,3,,,41,62
50400,note_on,56,0,3,,,,,,,,,2,,,43,62
50504,note_off,104,0,1,,,,,,,,,0,,,83,0
50504,note_off,104,0,4,,,,,,,,,3,,,41,0
50504,note_off,104,0,2,,,,,,,,,1,,,71,0
50504,note_off,104,0,3,,,,,,,,,2,,,43,0
50560,note_on,56,0,3,,,,,,,,,2,,,43,63
50560,note_on,56,0,1,,,,,,,,,0,,,84,63
50560,note_on,56,0,4,,,,,,,,,3,,,40,63
50560,note_on,56,0,2,,,,,,,,,1,,,72,63
50664,note_off,104,0,1,,,,,,,,,0,,,84,0
50664,note_off,104,0,4,,,,,,,,,3,,,40,0
50664,note_off,104,0,2,,,,,,,,,1,,,72,0
50664,note_off,104,0,3,,,,,,,,,2,,,43,0
50720,note_on,56,0,2,,,,,,,,,1,,,74,64
50720,note_on,56,0,1,,,,,,,,,0,,,86,64
50720,note_on,56,0,4,,,,,,,,,3,,,38,64
50720,note_on,56,0,3,,,,,,,,,2,,,43,64
50824,note_off,104,0,3,,,,,,,,,2,,,43,0
50824,note_off,104,0,2,,,,,,,,,1,,,74,0
50824,note_off,104,0,1,,,,,,,,,0,,,86,0
50824,note_off,104,0,4,,,,,,,,,3,,,38,0
50880,note_on,56,0,4,,,,,,,,,3,,,36,75
50880,note_on,56,0,1,,,,,,,,,0,,,88,75
50880,note_on,56,0,3,,,,,,,,,2,,,43,75
50880,note_on,56,0,2,,,,,,,,,1,,,76,75
50984,note_off,104,0,2,,,,,,,,,1,,,76,0
50984,note_off,104,0,3,,,,,,,,,2,,,43,0
50984,note_off,104,0,1,,,,,,,,,0,,,88,0
50984,note_off,104,0,4,,,,,,,,,3,,,36,0
51040,note_on,56,0,2,,,,,,,,,1,,,74,67
51040,note_on,56,0,1,,,,,,,,,0,,,86,67
51040,note_on,56,0,3,,,,,,,,,2,,,43,67
51040,note_on,56,0,4,,,,,,,,,3,,,38,67
51144,note_off,104,0,1,,,,,,,,,0,,,86,0
51144,note_off,104,0,3,,,,,,,,,2,,,43,0
51144,note_off,104,0,4,,,,,,,,,3,,,38,0
51144,note_off,104,0,2,,,,,,,,,1,,,74,0
51200,note_on,56,0,3,,,,,,,,,2,,,43,68
51200,note_on,56,0,4,,,,,,,,,3,,,40,68
51200,note_on,56,0,1,,,,,,,,,0,,,84,68
51200,note_on,56,0,2,,,,,,,,,1,,,72,68
51304,note_off,104,0,4,,,,,,,,,3,,,40,0
51304,note_off,104,0,1,,,,,,,,,0,,,84,0
51304,note_off,104,0,2,,,,,,,,,1,,,72,0
51304,note_off,104,0,3,,,,,,,,,2,,,43,0
51360,note_on,56,0,1,,,,,,,,,0,,,83,69
51360,note_on,56,0,4,,,,,,,,,3,,,41,69
51360,note_on,56,0,3,,,,,,,,,2,,,43,69
51360,note_on,56,0,2,,,,,,,,,1,,,71,69
51464,note_off,104,0,3,,,,,,,,,2,,,43,0
51464,note_off,104,0,2,,,,,,,,,1,,,71,0
51464,note_off,104,0,1,,,,,,,,,0,,,83,0
51464,note_off,104,0,4,,,,,,,,,3,,,41,0
51520,note_on,56,0,1,,,,,,,,,0,,,84,71
51520,note_on,56,0,4,,,,,,,,,3,,,40,71
51520,note_on,56,0,2,,,,,,,,,1,,,72,71
51520,note_on,56,0,3,,,,,,,,,2,,,43,71
51624,note_off,104,0,3,,,,,,,,,2,,,43,0
51624,note_off,104,0,2,,,,,,,,,1,,,72,0
51624,note_off,104,0,4,,,,,,,,,3,,,40,0
51624,note_off,104,0,1,,,,,,,,,0,,,84,0
51680,note_on,56,0,3,,,,,,,,,2,,,43,72
51680,note_on,56,0,4,,,,,,,,,3,,,38,72
51680,note_on,56,0,1,,,,,,,,,0,,,86,72
51680,note_on,56,0,2,,,,,,,,,1,,,74,72
51784,note_off,104,0,1,,,,,,,,,0,,,86,0
51784,note_off,104,0,3,,,,,,,,,2,,,43,0
51784,note_off,104,0,2,,,,,,,,,1,,,74,0
51784,note_off,104,0,4,,,,,,,,,3,,,38,0
51840,note_on,56,0,4,,,,,,,,,3,,,36,74
51840,note_on,56,0,1,,,,,,,,,0,,,88,74
51840,note_on,56,0,2,,,,,,,,,1,,,76,74
51944,note_off,104,0,2,,,,,,,,,1,,,76,0
51944,note_off,104,0,1,,,,,,,,,0,,,88,0
52000,note_on,56,0,2,,,,,,,,,1,,,74,76
52000,note_on,56,0,1,,,,,,,,,0,,,86,76
52000,note_on,160,0,4,,,,,,,,,3,,,38,76
52012,note_off,12,0,4,,,,,,,,,3,,,36,0
52104,note_off,104,0,2,,,,,,,,,1,,,74,0
52104,note_off,104,0,1,,,,,,,,,0,,,86,0
52160,note_on,0,0,4,,,,,,,,,3,,,40,79
52160,note_on,56,0,1,,,,,,,,,0,,,84,79
52160,note_off,148,0,4,,,,,,,,,3,,,38,0
52160,note_on,56,0,2,,,,,,,,,1,,,72,79
52264,note_off,104,0,1,,,,,,,,,0,,,84,0
52264,note_off,104,0,2,,,,,,,,,1,,,72,0
52320,note_on,56,0,2,,,,,,,,,1,,,76,82
52320,note_off,160,0,4,,,,,,,,,3,,,40,0
52320,note_on,56,0,1,,,,,,,,,0,,,88,82
52320,note_on,0,0,4,,,,,,,,,3,,,41,82
52424,note_off,104,0,1,,,,,,,,,0,,,88,0
52424,note_off,104,0,2,,,,,,,,,1,,,76,0
52480,note_on,56,0,1,,,,,,,,,0,,,86,84
52480,note_on,56,0,2,,,,,,,,,1,,,74,84
52480,note_on,0,0,4,,,,,,,,,3,,,42,84
52480,note_off,160,0,4,,,,,,,,,3,,,41,0
52584,note_off,104,0,2,,,,,,,,,1,,,74,0
52584,note_off,104,0,1,,,,,,,,,0,,,86,0
52640,note_on,56,0,2,,,,,,,,,1,,,72,87
52640,note_off,160,0,4,,,,,,,,,3,,,42,0
52640,note_on,0,0,4,,,,,,,,,3,,,43,87
52640,note_on,56,0,1,,,,,,,,,0,,,84,87
52744,note_off,104,0,1,,,,,,,,,0,,,84,0
52744,note_off,104,0,2,,,,,,,,,1,,,72,0
52800,note_on,56,0,1,,,,,,,,,0,,,88,90
52800,note_on,56,0,2,,,,,,,,,1,,,76,90
52800,note_off,160,0,4,,,,,,,,,3,,,43,0
52800,note_on,0,0,4,,,,,,,,,3,,,44,90
52904,note_off,104,0,2,,,,,,,,,1,,,76,0
52904,note_off,104,0,1,,,,,,,,,0,,,88,0
52960,note_on,56,0,2,,,,,,,,,1,,,74,92
52960,note_off,160,0,4,,,,,,,,,3,,,44,0
52960,note_on,0,0,4,,,,,,,,,3,,,45,92
52960,note_on,56,0,1,,,,,,,,,0,,,86,92
53064,note_off,104,0,1,,,,,,,,,0,,,86,0
53064,note_off,104,0,2,,,,,,,,,1,,,74,0
53120,note_on,56,0,1,,,,,,,,,0,,,84,95
53120,note_off,160,0,4,,,,,,,,,3,,,45,0
53120,note_on,0,0,4,,,,,,,,,3,,,41,95
53120,note_on,56,0,2,,,,,,,,,1,,,72,95
53224,note_off,104,0,2,,,,,,,,,1,,,72,0
53224,note_off,104,0,1,,,,,,,,,0,,,84,0
53280,note_on,56,0,2,,,,,,,,,1,,,71,94
53280,note_on,56,0,1,,,,,,,,,0,,,83,94
53280,note_off,160,0,4,,,,,,,,,3,,,41,0
53280,note_on,0,0,4,,,,,,,,,3,,,43,94
53384,note_off,104,0,2,,,,,,,,,1,,,71,0
53384,note_off,104,0,4,,,,,,,,,3,,,43,0
53384,note_off,104,0,1,,,,,,,,,0,,,83,0
53440,note_on,56,0,1,,,,,,,,,0,,,81,91
53440,note_on,56,0,2,,,,,,,,,1,,,69,91
53440,note_on,56,0,4,,,,,,,,,3,,,43,91
53544,note_off,104,0,4,,,,,,,,,3,,,43,0
53544,note_off,104,0,2,,,,,,,,,1,,,69,0
53544,note_off,104,0,1,,,,,,,,,0,,,81,0
53600,note_on,56,0,4,,,,,,,,,3,,,45,87
53600,note_on,56,0,1,,,,,,,,,0,,,79,87
53600,note_on,56,0,2,,,,,,,,,1,,,67,87
53704,note_off,104,0,4,,,,,,,,,3,,,45,0
53704,note_off,104,0,1,,,,,,,,,0,,,79,0
53704,note_off,104,0,2,,,,,,,,,1,,,67,0
53760,note_on,56,0,2,,,,,,,,,1,,,65,84
53760,note_on,56,0,4,,,,,,,,,3,,,47,84
53760,note_on,56,0,1,,,,,,,,,0,,,77,84
53864,note_off,104,0,2,,,,,,,,,1,,,65,0
53864,note_off,104,0,1,,,,,,,,,0,,,77,0
53864,note_off,104,0,4,,,,,,,,,3,,,47,0
53920,note_on,56,0,1,,,,,,,,,0,,,76,81
53920,note_on,56,0,2,,,,,,,,,1,,,64,81
53920,note_on,56,0,4,,,,,,,,,3,,,48,81
54024,note_off,104,0,4,,,,,,,,,3,,,48,0
54024,note_off,104,0,2,,,,,,,,,1,,,64,0
54024,note_off,104,0,1,,,,,,,,,0,,,76,0
54080,note_on,56,0,2,,,,,,,,,1,,,62,78
54080,note_on,56,0,4,,,,,,,,,3,,,50,78
54080,note_on,56,0,1,,,,,,,,,0,,,74,78
54184,note_off,104,0,4,,,,,,,,,3,,,50,0
54184,note_off,104,0,2,,,,,,,,,1,,,62,0
54184,note_off,104,0,1,,,,,,,,,0,,,74,0
54240,note_on,56,0,1,,,,,,,,,0,,,72,75
54240,note_on,56,0,2,,,,,,,,,1,,,60,75
54240,note_on,56,0,4,,,,,,,,,3,,,52,75
54344,note_off,104,0,2,,,,,,,,,1,,,60,0
54344,note_off,104,0,1,,,,,,,,,0,,,72,0
54344,note_off,104,0,4,,,,,,,,,3,,,52,0
54400,note_on,56,0,1,,,,,,,,,0,,,74,77
54400,note_on,56,0,4,,,,,,,,,3,,,53,77
54400,note_on,56,0,2,,,,,,,,,1,,,62,77
54504,note_off,104,0,4,,,,,,,,,3,,,53,0
54504,note_off,104,0,2,,,,,,,,,1,,,62,0
54504,note_off,104,0,1,,,,,,,,,0,,,74,0
54560,note_on,56,0,4,,,,,,,,,3,,,55,71
54560,note_on,56,0,2,,,,,,,,,1,,,59,71
54560,note_on,56,0,1,,,,,,,,,0,,,71,71
54664,note_off,104,0,4,,,,,,,,,3,,,55,0
54664,note_off,104,0,2,,,,,,,,,1,,,59,0
54664,note_off,104,0,1,,,,,,,,,0,,,71,0
54720,note_on,56,0,4,,,,,,,,,3,,,48,66
54720,note_on,56,0,2,,,,,,,,,1,,,60,66
54720,note_on,56,0,1,,,,,,,,,0,,,72,66
54824,note_off,104,0,1,,,,,,,,,0,,,72,0
54824,note_off,104,0,2,,,,,,,,,1,,,60,0
54824,note_off,104,0,4,,,,,,,,,3,,,48,0
54880,note_on,56,0,4,,,,,,,,,3,,,50,72
55040,note_on,0,0,4,,,,,,,,,3,,,47,68
55040,note_off,160,0,4,,,,,,,,,3,,,50,0
55180,set_tempo,6220,1,0,,,,,,535714,,,,,,,
55200,note_on,0,0,4,,,,,,,,,3,,,48,68
55200,note_off,160,0,4,,,,,,,,,3,,,47,0
55392,note_off,192,0,4,,,,,,,,,3,,,48,0
55680,note_on,3896,0,3,,,,,,,,,2,,,51,76
55680,set_tempo,500,1,0,,,,,,508474,,,,,,,
55680,note_on,288,0,4,,,,,,,,,3,,,39,76
55784,note_off,104,0,4,,,,,,,,,3,,,39,0
55784,note_off,104,0,3,,,,,,,,,2,,,51,0
55840,note_on,56,0,4,,,,,,,,,3,,,51,74
55840,note_on,56,0,3,,,,,,,,,2,,,63,74
55840,set_tempo,160,1,0,,,,,,500000,,,,,,,
55944,note_off,104,0,3,,,,,,,,,2,,,63,0
55944,note_off,104,0,4,,,,,,,,,3,,,51,0
56000,note_on,56,0,4,,,,,,,,,3,,,50,72
56000,note_on,56,0,3,,,,,,,,,2,,,62,72
56104,note_off,104,0,4,,,,,,,,,3,,,50,0
56104,note_off,104,0,3,,,,,,,,,2,,,62,0
56160,note_on,56,0,4,,,,,,,,,3,,,51,72
56160,note_on,56,0,3,,,,,,,,,2,,,63,72
56264,note_off,104,0,3,,,,,,,,,2,,,63,0
56264,note_off,104,0,4,,,,,,,,,3,,,51,0
56320,note_on,56,0,4,,,,,,,,,3,,,49,71
56320,note_on,56,0,3,,,,,,,,,2,,,61,71
56424,note_off,104,0,4,,,,,,,,,3,,,49,0
56424,note_off,104,0,3,,,,,,,,,2,,,61,0
56480,note_on,56,0,4,,,,,,,,,3,,,48,70
56480,note_on,56,0,3,,,,,,,,,2,,,60,70
56584,note_off,104,0,4,,,,,,,,,3,,,48,0
56584,note_off,104,0,3,,,,,,,,,2,,,60,0
56640,note_on,56,0,4,,,,,,,,,3,,,46,70
56640,note_on,56,0,3,,,,,,,,,2,,,58,70
56744,note_off,104,0,4,,,,,,,,,3,,,46,0
56744,note_off,104,0,3,,,,,,,,,2,,,58,0
56800,note_on,56,0,4,,,,,,,,,3,,,48,69
56800,note_on,56,0,3,,,,,,,,,2,,,60,69
56904,note_off,104,0,4,,,,,,,,,3,,,48,0
56904,note_off,104,0,3,,,,,,,,,2,,,60,0
56960,note_on,56,0,4,,,,,,,,,3,,,49,69
56960,note_on,56,0,3,,,,,,,,,2,,,61,69
57064,note_off,104,0,3,,,,,,,,,2,,,61,0
57064,note_off,104,0,4,,,,,,,,,3,,,49,0
57120,note_on,56,0,4,,,,,,,,,3,,,48,68
57120,note_on,2296,0,1,,,,,,,,,0,,,75,76
57120,set_tempo,1280,1,0,,,,,,508474,,,,,,,
57120,note_on,2296,0,2,,,,,,,,,1,,,63,76
57120,note_on,56,0,3,,,,,,,,,2,,,60,68
57224,note_off,104,0,4,,,,,,,,,3,,,48,0
57224,note_off,104,0,1,,,,,,,,,0,,,75,0
57224,note_off,104,0,2,,,,,,,,,1,,,63,0
57224,note_off,104,0,3,,,,,,,,,2,,,60,0
57280,note_on,56,0,2,,,,,,,,,1,,,75,75
57280,set_tempo,160,1,0,,,,,,500000,,,,,,,
57280,note_on,56,0,3,,,,,,,,,2,,,60,75
57280,note_on,56,0,1,,,,,,,,,0,,,87,75
57280,note_on,56,0,4,,,,,,,,,3,,,48,75
57384,note_off,104,0,1,,,,,,,,,0,,,87,0
57384,note_off,104,0,2,,,,,,,,,1,,,75,0
57384,note_off,104,0,3,,,,,,,,,2,,,60,0
57384,note_off,104,0,4,,,,,,,,,3,,,48,0
57440,note_on,56,0,2,,,,,,,,,1,,,74,73
57440,note_on,56,0,3,,,,,,,,,2,,,59,73
57440,note_on,56,0,4,,,,,,,,,3,,,47,73
57440,note_on,56,0,1,,,,,,,,,0,,,86,73
57544,note_off,104,0,4,,,,,,,,,3,,,47,0
57544,note_off,104,0,2,,,,,,,,,1,,,74,0
57544,note_off,104,0,1,,,,,,,,,0,,,86,0
57544,note_off,104,0,3,,,,,,,,,2,,,59,0
57600,note_on,56,0,3,,,,,,,,,2,,,60,73
57600,note_on,56,0,1,,,,,,,,,0,,,87,73
57600,note_on,56,0,4,,,,,,,,,3,,,48,73
57600,note_on,56,0,2,,,,,,,,,1,,,75,73
57704,note_off,104,0,2,,,,,,,,,1,,,75,0
57704,note_off,104,0,4,,,,,,,,,3,,,48,0
57704,note_off,104,0,1,,,,,,,,,0,,,87,0
57704,note_off,104,0,3,,,,,,,,,2,,,60,0
57760,note_on,56,0,4,,,,,,,,,3,,,49,73
57760,note_on,56,0,1,,,,,,,,,0,,,85,73
57760,note_on,56,0,2,,,,,,,,,1,,,73,73
57760,note_on,56,0,3,,,,,,,,,2,,,61,73
57864,note_off,104,0,1,,,,,,,,,0,,,85,0
57864,note_off,104,0,4,,,,,,,,,3,,,49,0
57864,note_off,104,0,3,,,,,,,,,2,,,61,0
57864,note_off,104,0,2,,,,,,,,,1,,,73,0
57920,note_on,56,0,1,,,,,,,,,0,,,84,72
57920,note_on,56,0,4,,,,,,,,,3,,,51,72
57920,note_on,56,0,3,,,,,,,,,2,,,63,72
57920,note_on,56,0,2,,,,,,,,,1,,,72,72
58024,note_off,104,0,4,,,,,,,,,3,,,51,0
58024,note_off,104,0,2,,,,,,,,,1,,,72,0
58024,note_off,104,0,3,,,,,,,,,2,,,63,0
58024,note_off,104,0,1,,,,,,,,,0,,,84,0
58080,note_on,56,0,2,,,,,,,,,1,,,70,72
58080,note_on,56,0,1,,,,,,,,,0,,,82,72
58080,note_on,56,0,3,,,,,,,,,2,,,61,72
58080,note_on,56,0,4,,,,,,,,,3,,,49,72
58184,note_off,104,0,4,,,,,,,,,3,,,49,0
58184,note_off,104,0,1,,,,,,,,,0,,,82,0
58184,note_off,104,0,2,,,,,,,,,1,,,70,0
58184,note_off,104,0,3,,,,,,,,,2,,,61,0
58240,note_on,56,0,4,,,,,,,,,3,,,48,72
58240,note_on,56,0,3,,,,,,,,,2,,,60,72
58240,note_on,56,0,1,,,,,,,,,0,,,84,72
58240,note_on,56,0,2,,,,,,,,,1,,,72,72
58344,note_off,104,0,4,,,,,,,,,3,,,48,0
58344,note_off,104,0,2,,,,,,,,,1,,,72,0
58344,note_off,104,0,3,,,,,,,,,2,,,60,0
58344,note_off,104,0,1,,,,,,,,,0,,,84,0
58400,note_on,56,0,2,,,,,,,,,1,,,73,71
58400,note_on,56,0,3,,,,,,,,,2,,,58,71
58400,note_on,56,0,1,,,,,,,,,0,,,85,71
58400,note_on,56,0,4,,,,,,,,,3,,,46,71
58504,note_off,104,0,4,,,,,,,,,3,,,46,0
58504,note_off,104,0,2,,,,,,,,,1,,,73,0
58504,note_off,104,0,1,,,,,,,,,0,,,85,0
58504,note_off,104,0,3,,,,,,,,,2,,,58,0
58560,note_on,56,0,3,,,,,,,,,2,,,56,71
58560,note_on,56,0,4,,,,,,,,,3,,,44,71
58560,note_on,56,0,2,,,,,,,,,1,,,72,71
58560,note_on,56,0,1,,,,,,,,,0,,,84,71
58664,note_off,104,0,3,,,,,,,,,2,,,56,0
58664,note_off,104,0,4,,,,,,,,,3,,,44,0
58664,note_off,104,0,2,,,,,,,,,1,,,72,0
58664,note_off,104,0,1,,,,,,,,,0,,,84,0
58720,note_on,56,0,4,,,,,,,,,3,,,46,71
58720,note_on,56,0,2,,,,,,,,,1,,,70,71
58720,note_on,56,0,3,,,,,,,,,2,,,58,71
58720,note_on,56,0,1,,,,,,,,,0,,,82,71
58824,note_off,104,0,1,,,,,,,,,0,,,82,0
58824,note_off,104,0,4,,,,,,,,,3,,,46,0
58824,note_off,104,0,3,,,,,,,,,2,,,58,0
58824,note_off,104,0,2,,,,,,,,,1,,,70,0
58880,note_on,56,0,1,,,,,,,,,0,,,80,70
58880,note_on,56,0,2,,,,,,,,,1,,,68,70
58880,note_on,56,0,4,,,,,,,,,3,,,48,70
58880,note_on,56,0,3,,,,,,,,,2,,,60,70
58984,note_off,104,0,2,,,,,,,,,1,,,68,0
58984,note_off,104,0,3,,,,,,,,,2,,,60,0
58984,note_off,104,0,4,,,,,,,,,3,,,48,0
58984,note_off,104,0,1,,,,,,,,,0,,,80,0
59040,note_on,56,0,4,,,,,,,,,3,,,46,71
59040,note_on,56,0,1,,,,,,,,,0,,,79,71
59040,note_on,56,0,2,,,,,,,,,1,,,67,71
59040,note_on,56,0,3,,,,,,,,,2,,,58,71
59144,note_off,104,0,1,,,,,,,,,0,,,79,0
59144,note_off,104,0,3,,,,,,,,,2,,,58,0
59144,note_off,104,0,2,,,,,,,,,1,,,67,0
59144,note_off,104,0,4,,,,,,,,,3,,,46,0
59200,note_on,56,0,2,,,,,,,,,1,,,68,71
59200,note_on,56,0,4,,,,,,,,,3,,,44,71
59200,note_on,56,0,1,,,,,,,,,0,,,80,71
59200,note_on,56,0,3,,,,,,,,,2,,,56,71
59304,note_off,104,0,4,,,,,,,,,3,,,44,0
59304,note_off,104,0,3,,,,,,,,,2,,,56,0
59304,note_off,104,0,1,,,,,,,,,0,,,80,0
59304,note_off,104,0,2,,,,,,,,,1,,,68,0
59360,note_on,56,0,4,,,,,,,,,3,,,43,70
59360,note_on,56,0,3,,,,,,,,,2,,,55,70
59360,note_on,56,0,1,,,,,,,,,0,,,82,70
59360,note_on,56,0,2,,,,,,,,,1,,,70,70
59464,note_off,104,0,2,,,,,,,,,1,,,70,0
59464,note_off,104,0,3,,,,,,,,,2,,,55,0
59464,note_off,104,0,4,,,,,,,,,3,,,43,0
59464,note_off,104,0,1,,,,,,,,,0,,,82,0
59520,note_on,56,0,1,,,,,,,,,0,,,80,70
59520,note_on,56,0,4,,,,,,,,,3,,,41,70
59520,note_on,56,0,2,,,,,,,,,1,,,68,70
59520,note_on,56,0,3,,,,,,,,,2,,,53,70
59624,note_off,104,0,2,,,,,,,,,1,,,68,0
59624,note_off,104,0,3,,,,,,,,,2,,,53,0
59624,note_off,104,0,4,,,,,,,,,3,,,41,0
59624,note_off,104,0,1,,,,,,,,,0,,,80,0
59680,note_on,56,0,4,,,,,,,,,3,,,43,69
59680,note_on,56,0,1,,,,,,,,,0,,,79,69
59680,note_on,56,0,2,,,,,,,,,1,,,67,69
59680,note_on,56,0,3,,,,,,,,,2,,,55,69
59784,note_off,104,0,1,,,,,,,,,0,,,79,0
59784,note_off,104,0,3,,,,,,,,,2,,,55,0
59784,note_off,104,0,4,,,,,,,,,3,,,43,0
59784,note_off,104,0,2,,,,,,,,,1,,,67,0
59840,note_on,56,0,4,,,,,,,,,3,,,44,69
59840,note_on,56,0,2,,,,,,,,,1,,,65,69
59840,note_on,56,0,3,,,,,,,,,2,,,56,69
59840,note_on,56,0,1,,,,,,,,,0,,,77,69
59944,note_off,104,0,2,,,,,,,,,1,,,65,0
59944,note_off,104,0,4,,,,,,,,,3,,,44,0
59944,note_off,104,0,1,,,,,,,,,0,,,77,0
59944,note_off,104,0,3,,,,,,,,,2,,,56,0
60000,note_on,56,0,1,,,,,,,,,0,,,75,68
60000,note_on,56,0,3,,,,,,,,,2,,,55,68
60000,note_on,56,0,2,,,,,,,,,1,,,63,68
60000,note_on,56,0,4,,,,,,,,,3,,,43,68
60104,note_off,104,0,4,,,,,,,,,3,,,43,0
60104,note_off,104,0,1,,,,,,,,,0,,,75,0
60104,note_off,104,0,3,,,,,,,,,2,,,55,0
60104,note_off,104,0,2,,,,,,,,,1,,,63,0
60160,note_on,56,0,1,,,,,,,,,0,,,77,68
60160,note_on,56,0,3,,,,,,,,,2,,,53,68
60160,note_on,56,0,4,,,,,,,,,3,,,41,68
60160,note_on,56,0,2,,,,,,,,,1,,,65,68
60264,note_off,104,0,4,,,,,,,,,3,,,41,0
60264,note_off,104,0,3,,,,,,,,,2,,,53,0
60264,note_off,104,0,1,,,,,,,,,0,,,77,0
60264,note_off,104,0,2,,,,,,,,,1,,,65,0
60320,note_on,56,0,1,,,,,,,,,0,,,79,67
60320,note_on,56,0,4,,,,,,,,,3,,,39,67
60320,note_on,56,0,2,,,,,,,,,1,,,67,67
60320,note_on,56,0,3,,,,,,,,,2,,,51,67
60424,note_off,104,0,4,,,,,,,,,3,,,39,0
60424,note_off,104,0,2,,,,,,,,,1,,,67,0
60424,note_off,104,0,3,,,,,,,,,2,,,51,0
60424,note_off,104,0,1,,,,,,,,,0,,,79,0
60480,note_on,56,0,4,,,,,,,,,3,,,37,67
60480,note_on,56,0,2,,,,,,,,,1,,,65,67
60480,note_on,56,0,1,,,,,,,,,0,,,77,67
60480,note_on,56,0,3,,,,,,,,,2,,,49,67
60584,note_off,104,0,4,,,,,,,,,3,,,37,0
60584,note_off,104,0,1,,,,,,,,,0,,,77,0
60584,note_off,104,0,2,,,,,,,,,1,,,65,0
60584,note_off,104,0,3,,,,,,,,,2,,,49,0
60640,note_on,56,0,4,,,,,,,,,3,,,36,66
60640,note_on,56,0,1,,,,,,,,,0,,,75,66
60640,note_on,56,0,3,,,,,,,,,2,,,48,66
60640,note_on,56,0,2,,,,,,,,,1,,,63,66
60744,note_off,104,0,4,,,,,,,,,3,,,36,0
60744,note_off,104,0,2,,,,,,,,,1,,,63,0
60744,note_off,104,0,3,,,,,,,,,2,,,48,0
60744,note_off,104,0,1,,,,,,,,,0,,,75,0
60800,note_on,56,0,1,,,,,,,,,0,,,73,66
60800,note_on,56,0,4,,,,,,,,,3,,,37,66
60800,note_on,56,0,3,,,,,,,,,2,,,49,66
60800,note_on,56,0,2,,,,,,,,,1,,,61,66
60904,note_off,104,0,1,,,,,,,,,0,,,73,0
60904,note_off,104,0,2,,,,,,,,,1,,,61,0
60904,note_off,104,0,4,,,,,,,,,3,,,37,0
60904,note_off,104,0,3,,,,,,,,,2,,,49,0
60960,note_on,56,0,2,,,,,,,,,1,,,60,65
60960,note_on,56,0,3,,,,,,,,,2,,,50,65
60960,note_on,56,0,4,,,,,,,,,3,,,38,65
60960,note_on,56,0,1,,,,,,,,,0,,,72,65
61064,note_off,104,0,4,,,,,,,,,3,,,38,0
61064,note_off,104,0,3,,,,,,,,,2,,,50,0
61064,note_off,104,0,1,,,,,,,,,0,,,72,0
61064,note_off,104,0,2,,,,,,,,,1,,,60,0
61120,note_on,56,0,3,,,,,,,,,2,,,48,65
61120,note_on,56,0,4,,,,,,,,,3,,,36,65
61120,note_on,56,0,1,,,,,,,,,0,,,70,65
61120,note_on,56,0,2,,,,,,,,,1,,,58,65
61224,note_off,104,0,1,,,,,,,,,0,,,70,0
61224,note_off,104,0,3,,,,,,,,,2,,,48,0
61224,note_off,104,0,4,,,,,,,,,3,,,36,0
61224,note_off,104,0,2,,,,,,,,,1,,,58,0
61280,note_on,56,0,2,,,,,,,,,1,,,56,64
61280,note_on,56,0,3,,,,,,,,,2,,,50,64
61280,note_on,56,0,1,,,,,,,,,0,,,68,64
61280,note_on,56,0,4,,,,,,,,,3,,,38,64
61384,note_off,104,0,1,,,,,,,,,0,,,68,0
61384,note_off,104,0,4,,,,,,,,,3,,,38,0
61384,note_off,104,0,3,,,,,,,,,2,,,50,0
61384,note_off,104,0,2,,,,,,,,,1,,,56,0
61440,set_tempo,4160,1,0,,,,,,508474,,,,,,,
61440,note_on,56,0,1,,,,,,,,,0,,,67,64
61440,note_on,56,0,3,,,,,,,,,2,,,51,64
61440,note_on,56,0,2,,,,,,,,,1,,,55,64
61440,note_on,56,0,4,,,,,,,,,3,,,39,64
61544,note_off,104,0,2,,,,,,,,,1,,,55,0
61544,note_off,104,0,1,,,,,,,,,0,,,67,0
61544,note_off,104,0,3,,,,,,,,,2,,,51,0
61544,note_off,104,0,4,,,,,,,,,3,,,39,0
61600,note_on,56,0,1,,,,,,,,,0,,,75,73
61600,note_on,56,0,2,,,,,,,,,1,,,63,73
61600,set_tempo,160,1,0,,,,,,500000,,,,,,,
61704,note_off,104,0,1,,,,,,,,,0,,,75,0
61704,note_off,104,0,2,,,,,,,,,1,,,63,0
61760,note_on,56,0,2,,,,,,,,,1,,,62,72
61760,note_on,56,0,1,,,,,,,,,0,,,74,72
61864,note_off,104,0,2,,,,,,,,,1,,,62,0
61864,note_off,104,0,1,,,,,,,,,0,,,74,0
61920,note_on,56,0,2,,,,,,,,,1,,,63,72
61920,note_on,56,0,1,,,,,,,,,0,,,75,72
62024,note_off,104,0,2,,,,,,,,,1,,,63,0
62024,note_off,104,0,1,,,,,,,,,0,,,75,0
62080,note_on,56,0,1,,,,,,,,,0,,,73,71
62080,note_on,56,0,2,,,,,,,,,1,,,61,71
62184,note_off,104,0,1,,,,,,,,,0,,,73,0
62184,note_off,104,0,2,,,,,,,,,1,,,61,0
62240,note_on,56,0,1,,,,,,,,,0,,,72,70
62240,note_on,56,0,2,,,,,,,,,1,,,60,70
62344,note_off,104,0,1,,,,,,,,,0,,,72,0
62344,note_off,104,0,2,,,,,,,,,1,,,60,0
62400,note_on,56,0,1,,,,,,,,,0,,,70,69
62400,note_on,56,0,2,,,,,,,,,1,,,58,69
62504,note_off,104,0,2,,,,,,,,,1,,,58,0
62504,note_off,104,0,1,,,,,,,,,0,,,70,0
62560,note_on,56,0,1,,,,,,,,,0,,,72,68
62560,note_on,56,0,2,,,,,,,,,1,,,60,68
62664,note_off,104,0,1,,,,,,,,,0,,,72,0
62664,note_off,104,0,2,,,,,,,,,1,,,60,0
62720,note_on,56,0,1,,,,,,,,,0,,,73,67
62720,note_on,56,0,2,,,,,,,,,1,,,61,67
62824,note_off,104,0,1,,,,,,,,,0,,,73,0
62824,note_off,104,0,2,,,,,,,,,1,,,61,0
62880,set_tempo,1280,1,0,,,,,,508474,,,,,,,
62880,note_on,1336,0,4,,,,,,,,,3,,,51,74
62880,note_on,56,0,2,,,,,,,,,1,,,60,66
62880,note_on,1336,0,3,,,,,,,,,2,,,60,74
62880,note_on,56,0,1,,,,,,,,,0,,,72,66
62984,note_off,104,0,1,,,,,,,,,0,,,72,0
62984,note_off,104,0,3,,,,,,,,,2,,,60,0
62984,note_off,104,0,4,,,,,,,,,3,,,51,0
62984,note_off,104,0,2,,,,,,,,,1,,,60,0
63040,note_on,56,0,1,,,,,,,,,0,,,84,75
63040,note_on,56,0,2,,,,,,,,,1,,,72,75
63040,note_on,56,0,4,,,,,,,,,3,,,63,75
63040,set_tempo,160,1,0,,,,,,500000,,,,,,,
63144,note_off,104,0,2,,,,,,,,,1,,,72,0
63144,note_off,104,0,1,,,,,,,,,0,,,84,0
63144,note_off,104,0,4,,,,,,,,,3,,,63,0
63200,note_on,216,0,3,,,,,,,,,2,,,63,74
63200,note_on,56,0,4,,,,,,,,,3,,,62,74
63200,note_on,56,0,2,,,,,,,,,1,,,71,74
63200,note_on,56,0,1,,,,,,,,,0,,,83,74
63304,note_off,104,0,4,,,,,,,,,3,,,62,0
63304,note_off,104,0,3,,,,,,,,,2,,,63,0
63304,note_off,104,0,1,,,,,,,,,0,,,83,0
63304,note_off,104,0,2,,,,,,,,,1,,,71,0
63360,note_on,56,0,4,,,,,,,,,3,,,63,73
63360,note_on,56,0,2,,,,,,,,,1,,,72,74
63360,note_on,56,0,1,,,,,,,,,0,,,84,74
63464,note_off,104,0,1,,,,,,,,,0,,,84,0
63464,note_off,104,0,2,,,,,,,,,1,,,72,0
63464,note_off,104,0,4,,,,,,,,,3,,,63,0
63520,note_on,216,0,3,,,,,,,,,2,,,63,73
63520,note_on,56,0,1,,,,,,,,,0,,,82,73
63520,note_on,56,0,2,,,,,,,,,1,,,70,73
63520,note_on,56,0,4,,,,,,,,,3,,,61,73
63624,note_off,104,0,2,,,,,,,,,1,,,70,0
63624,note_off,104,0,4,,,,,,,,,3,,,61,0
63624,note_off,104,0,1,,,,,,,,,0,,,82,0
63624,note_off,104,0,3,,,,,,,,,2,,,63,0
63680,note_on,56,0,2,,,,,,,,,1,,,68,72
63680,note_on,56,0,4,,,,,,,,,3,,,60,72
63680,note_on,56,0,1,,,,,,,,,0,,,80,72
63680,note_on,56,0,3,,,,,,,,,2,,,63,72
63784,note_off,104,0,3,,,,,,,,,2,,,63,0
63784,note_off,104,0,1,,,,,,,,,0,,,80,0
63784,note_off,104,0,4,,,,,,,,,3,,,60,0
63784,note_off,104,0,2,,,,,,,,,1,,,68,0
63840,note_on,56,0,3,,,,,,,,,2,,,63,77
63840,note_on,56,0,1,,,,,,,,,0,,,79,77
63840,note_on,56,0,4,,,,,,,,,3,,,61,77
63840,note_on,56,0,2,,,,,,,,,1,,,70,77
63944,note_off,104,0,1,,,,,,,,,0,,,79,0
63944,note_off,104,0,3,,,,,,,,,2,,,63,0
63944,note_off,104,0,2,,,,,,,,,1,,,70,0
63944,note_off,104,0,4,,,,,,,,,3,,,61,0
64000,note_on,56,0,3,,,,,,,,,2,,,63,72
64000,note_on,56,0,2,,,,,,,,,1,,,72,72
64000,note_on,56,0,1,,,,,,,,,0,,,80,72
64000,note_on,56,0,4,,,,,,,,,3,,,60,72
64104,note_off,104,0,4,,,,,,,,,3,,,60,0
64104,note_off,104,0,2,,,,,,,,,1,,,72,0
64104,note_off,104,0,3,,,,,,,,,2,,,63,0
64104,note_off,104,0,1,,,,,,,,,0,,,80,0
64160,note_on,56,0,2,,,,,,,,,1,,,73,71
64160,note_on,56,0,1,,,,,,,,,0,,,82,71
64160,note_on,56,0,4,,,,,,,,,3,,,58,71
64160,note_on,56,0,3,,,,,,,,,2,,,63,71
64264,note_off,104,0,4,,,,,,,,,3,,,58,0
64264,note_off,104,0,1,,,,,,,,,0,,,82,0
64264,note_off,104,0,2,,,,,,,,,1,,,73,0
64264,note_off,104,0,3,,,,,,,,,2,,,63,0
64320,note_on,56,0,4,,,,,,,,,3,,,60,71
64320,note_on,56,0,3,,,,,,,,,2,,,63,71
64320,note_on,56,0,2,,,,,,,,,1,,,72,71
64320,note_on,56,0,1,,,,,,,,,0,,,80,71
64424,note_off,104,0,2,,,,,,,,,1,,,72,0
64424,note_off,104,0,4,,,,,,,,,3,,,60,0
64424,note_off,104,0,3,,,,,,,,,2,,,63,0
64424,note_off,104,0,1,,,,,,,,,0,,,80,0
64480,note_on,56,0,1,,,,,,,,,0,,,82,71
64480,note_on,56,0,3,,,,,,,,,2,,,63,71
64480,note_on,56,0,4,,,,,,,,,3,,,58,71
64480,note_on,56,0,2,,,,,,,,,1,,,73,71
64584,note_off,104,0,4,,,,,,,,,3,,,58,0
64584,note_off,104,0,2,,,,,,,,,1,,,73,0
64584,note_off,104,0,1,,,,,,,,,0,,,82,0
64584,note_off,104,0,3,,,,,,,,,2,,,63,0
64640,note_on,56,0,2,,,,,,,,,1,,,75,70
64640,note_on,56,0,1,,,,,,,,,0,,,84,70
64640,note_on,56,0,3,,,,,,,,,2,,,63,70
64640,note_on,56,0,4,,,,,,,,,3,,,56,70
64744,note_off,104,0,2,,,,,,,,,1,,,75,0
64744,note_off,104,0,4,,,,,,,,,3,,,56,0
64744,note_off,104,0,1,,,,,,,,,0,,,84,0
64744,note_off,104,0,3,,,,,,,,,2,,,63,0
64800,note_on,56,0,4,,,,,,,,,3,,,58,76
64800,note_on,56,0,1,,,,,,,,,0,,,76,76
64800,note_on,56,0,3,,,,,,,,,2,,,60,76
64800,note_on,56,0,2,,,,,,,,,1,,,67,76
64904,note_off,104,0,4,,,,,,,,,3,,,58,0
64904,note_off,104,0,3,,,,,,,,,2,,,60,0
64904,note_off,104,0,1,,,,,,,,,0,,,76,0
64904,note_off,104,0,2,,,,,,,,,1,,,67,0
64960,note_on,56,0,2,,,,,,,,,1,,,68,70
64960,note_on,56,0,4,,,,,,,,,3,,,56,70
64960,note_on,56,0,1,,,,,,,,,0,,,77,70
64960,note_on,56,0,3,,,,,,,,,2,,,60,70
65064,note_off,104,0,2,,,,,,,,,1,,,68,0
65064,note_off,104,0,4,,,,,,,,,3,,,56,0
65064,note_off,104,0,1,,,,,,,,,0,,,77,0
65064,note_off,104,0,3,,,,,,,,,2,,,60,0
65120,note_on,56,0,2,,,,,,,,,1,,,70,69
65120,note_on,56,0,4,,,,,,,,,3,,,55,69
65120,note_on,56,0,1,,,,,,,,,0,,,79,69
65120,note_on,56,0,3,,,,,,,,,2,,,60,69
65224,note_off,104,0,4,,,,,,,,,3,,,55,0
65224,note_off,104,0,1,,,,,,,,,0,,,79,0
65224,note_off,104,0,2,,,,,,,,,1,,,70,0
65224,note_off,104,0,3,,,,,,,,,2,,,60,0
65280,note_on,56,0,4,,,,,,,,,3,,,56,69
65280,note_on,56,0,2,,,,,,,,,1,,,68,69
65280,note_on,56,0,3,,,,,,,,,2,,,60,69
65280,note_on,56,0,1,,,,,,,,,0,,,77,69
65384,note_off,104,0,3,,,,,,,,,2,,,60,0
65384,note_off,104,0,2,,,,,,,,,1,,,68,0
65384,note_off,104,0,1,,,,,,,,,0,,,77,0
65384,note_off,104,0,4,,,,,,,,,3,,,56,0
65440,note_on,56,0,2,,,,,,,,,1,,,70,69
65440,note_on,56,0,1,,,,,,,,,0,,,79,69
65440,note_on,56,0,4,,,,,,,,,3,,,55,69
65440,note_on,56,0,3,,,,,,,,,2,,,60,69
65544,note_off,104,0,1,,,,,,,,,0,,,79,0
65544,note_off,104,0,3,,,,,,,,,2,,,60,0
65544,note_off,104,0,4,,,,,,,,,3,,,55,0
65544,note_off,104,0,2,,,,,,,,,1,,,70,0
65600,note_on,56,0,1,,,,,,,,,0,,,80,69
65600,note_on,56,0,4,,,,,,,,,3,,,53,69
65600,note_on,56,0,3,,,,,,,,,2,,,60,69
65600,note_on,56,0,2,,,,,,,,,1,,,72,69
65704,note_off,104,0,3,,,,,,,,,2,,,60,0
65704,note_off,104,0,1,,,,,,,,,0,,,80,0
65704,note_off,104,0,4,,,,,,,,,3,,,53,0
65704,note_off,104,0,2,,,,,,,,,1,,,72,0
65760,note_on,56,0,1,,,,,,,,,0,,,72,68
65760,note_on,56,0,3,,,,,,,,,2,,,56,68
65760,note_on,56,0,4,,,,,,,,,3,,,54,68
65760,note_on,56,0,2,,,,,,,,,1,,,63,68
65864,note_off,104,0,4,,,,,,,,,3,,,54,0
65864,note_off,104,0,2,,,,,,,,,1,,,63,0
65864,note_off,104,0,3,,,,,,,,,2,,,56,0
65864,note_off,104,0,1,,,,,,,,,0,,,72,0
65920,note_on,56,0,1,,,,,,,,,0,,,73,74
65920,note_on,56,0,3,,,,,,,,,2,,,56,74
65920,note_on,56,0,4,,,,,,,,,3,,,53,74
65920,note_on,56,0,2,,,,,,,,,1,,,65,74
66024,note_off,104,0,3,,,,,,,,,2,,,56,0
66024,note_off,104,0,4,,,,,,,,,3,,,53,0
66024,note_off,104,0,2,,,,,,,,,1,,,65,0
66024,note_off,104,0,1,,,,,,,,,0,,,73,0
66080,note_on,56,0,4,,,,,,,,,3,,,51,68
66080,note_on,56,0,1,,,,,,,,,0,,,75,68
66080,note_on,56,0,3,,,,,,,,,2,,,56,68
66080,note_on,56,0,2,,,,,,,,,1,,,66,68
66184,note_off,104,0,1,,,,,,,,,0,,,75,0
66184,note_off,104,0,2,,,,,,,,,1,,,66,0
66184,note_off,104,0,3,,,,,,,,,2,,,56,0
66184,note_off,104,0,4,,,,,,,,,3,,,51,0
66240,note_on,56,0,3,,,,,,,,,2,,,56,67
66240,note_on,56,0,1,,,,,,,,,0,,,73,67
66240,note_on,56,0,2,,,,,,,,,1,,,65,67
66240,note_on,56,0,4,,,,,,,,,3,,,53,67
66344,note_off,104,0,3,,,,,,,,,2,,,56,0
66344,note_off,104,0,1,,,,,,,,,0,,,73,0
66344,note_off,104,0,4,,,,,,,,,3,,,53,0
66344,note_off,104,0,2,,,,,,,,,1,,,65,0
66400,note_on,56,0,2,,,,,,,,,1,,,66,67
66400,note_on,56,0,3,,,,,,,,,2,,,56,67
66400,note_on,56,0,4,,,,,,,,,3,,,51,67
66400,note_on,56,0,1,,,,,,,,,0,,,75,67
66504,note_off,104,0,4,,,,,,,,,3,,,51,0
66504,note_off,104,0,2,,,,,,,,,1,,,66,0
66504,note_off,104,0,3,,,,,,,,,2,,,56,0
66504,note_off,104,0,1,,,,,,,,,0,,,75,0
66560,note_on,56,0,2,,,,,,,,,1,,,68,67
66560,note_on,56,0,4,,,,,,,,,3,,,49,67
66560,note_on,56,0,1,,,,,,,,,0,,,77,67
66560,note_on,56,0,3,,,,,,,,,2,,,56,67
66664,note_off,104,0,1,,,,,,,,,0,,,77,0
66664,note_off,104,0,4,,,,,,,,,3,,,49,0
66664,note_off,104,0,2,,,,,,,,,1,,,68,0
66664,note_off,104,0,3,,,,,,,,,2,,,56,0
66720,note_on,56,0,4,,,,,,,,,3,,,51,72
66720,note_on,56,0,2,,,,,,,,,1,,,60,72
66720,note_on,56,0,1,,,,,,,,,0,,,69,72
66720,note_on,56,0,3,,,,,,,,,2,,,53,72
66824,note_off,104,0,4,,,,,,,,,3,,,51,0
66824,note_off,104,0,2,,,,,,,,,1,,,60,0
66824,note_off,104,0,1,,,,,,,,,0,,,69,0
66824,note_off,104,0,3,,,,,,,,,2,,,53,0
66880,note_on,56,0,3,,,,,,,,,2,,,53,66
66880,note_on,56,0,1,,,,,,,,,0,,,70,66
66880,note_on,56,0,2,,,,,,,,,1,,,61,66
66880,note_on,56,0,4,,,,,,,,,3,,,49,66
66984,note_off,104,0,1,,,,,,,,,0,,,70,0
66984,note_off,104,0,3,,,,,,,,,2,,,53,0
66984,note_off,104,0,2,,,,,,,,,1,,,61,0
66984,note_off,104,0,4,,,,,,,,,3,,,49,0
67040,note_on,56,0,4,,,,,,,,,3,,,48,66
67040,note_on,56,0,3,,,,,,,,,2,,,53,66
67040,note_on,56,0,1,,,,,,,,,0,,,72,66
67040,note_on,56,0,2,,,,,,,,,1,,,63,66
67144,note_off,104,0,2,,,,,,,,,1,,,63,0
67144,note_off,104,0,1,,,,,,,,,0,,,72,0
67144,note_off,104,0,3,,,,,,,,,2,,,53,0
67144,note_off,104,0,4,,,,,,,,,3,,,48,0
67200,note_on,56,0,1,,,,,,,,,0,,,70,66
67200,note_on,56,0,2,,,,,,,,,1,,,61,66
67200,note_on,56,0,3,,,,,,,,,2,,,53,66
67200,note_on,56,0,4,,,,,,,,,3,,,49,66
67304,note_off,104,0,4,,,,,,,,,3,,,49,0
67304,note_off,104,0,3,,,,,,,,,2,,,53,0
67304,note_off,104,0,1,,,,,,,,,0,,,70,0
67304,note_off,104,0,2,,,,,,,,,1,,,61,0
67360,note_on,56,0,3,,,,,,,,,2,,,53,65
67360,note_on,56,0,1,,,,,,,,,0,,,72,65
67360,note_on,56,0,2,,,,,,,,,1,,,63,65
67360,note_on,56,0,4,,,,,,,,,3,,,48,65
67464,note_off,104,0,3,,,,,,,,,2,,,53,0
67464,note_off,104,0,4,,,,,,,,,3,,,48,0
67464,note_off,104,0,1,,,,,,,,,0,,,72,0
67464,note_off,104,0,2,,,,,,,,,1,,,63,0
67520,note_on,56,0,1,,,,,,,,,0,,,73,65
67520,note_on,56,0,2,,,,,,,,,1,,,65,65
67520,note_on,56,0,4,,,,,,,,,3,,,46,65
67520,note_on,56,0,3,,,,,,,,,2,,,53,65
67624,note_off,104,0,2,,,,,,,,,1,,,65,0
67624,note_off,104,0,3,,,,,,,,,2,,,53,0
67624,note_off,104,0,4,,,,,,,,,3,,,46,0
67624,note_off,104,0,1,,,,,,,,,0,,,73,0
67680,note_on,56,0,3,,,,,,,,,2,,,51,72
67680,note_on,56,0,1,,,,,,,,,0,,,67,72
67680,note_on,56,0,2,,,,,,,,,1,,,58,72
67680,note_on,56,0,4,,,,,,,,,3,,,49,72
67784,note_off,104,0,2,,,,,,,,,1,,,58,0
67784,note_off,104,0,4,,,,,,,,,3,,,49,0
67784,note_off,104,0,1,,,,,,,,,0,,,67,0
67784,note_off,104,0,3,,,,,,,,,2,,,51,0
67840,note_on,56,0,2,,,,,,,,,1,,,60,64
67840,note_on,56,0,1,,,,,,,,,0,,,68,64
67840,note_on,56,0,3,,,,,,,,,2,,,51,64
67840,note_on,56,0,4,,,,,,,,,3,,,48,64
67944,note_off,104,0,3,,,,,,,,,2,,,51,0
67944,note_off,104,0,4,,,,,,,,,3,,,48,0
67944,note_off,104,0,1,,,,,,,,,0,,,68,0
67944,note_off,104,0,2,,,,,,,,,1,,,60,0
68000,note_on,56,0,2,,,,,,,,,1,,,61,64
68000,note_on,56,0,4,,,,,,,,,3,,,46,64
68000,note_on,56,0,1,,,,,,,,,0,,,70,64
68000,note_on,56,0,3,,,,,,,,,2,,,51,64
68104,note_off,104,0,3,,,,,,,,,2,,,51,0
68104,note_off,104,0,4,,,,,,,,,3,,,46,0
68104,note_off,104,0,2,,,,,,,,,1,,,61,0
68104,note_off,104,0,1,,,,,,,,,0,,,70,0
68160,note_on,56,0,3,,,,,,,,,2,,,51,64
68160,note_on,56,0,1,,,,,,,,,0,,,68,64
68160,note_on,56,0,2,,,,,,,,,1,,,60,64
68160,note_on,56,0,4,,,,,,,,,3,,,48,64
68264,note_off,104,0,2,,,,,,,,,1,,,60,0
68264,note_off,104,0,1,,,,,,,,,0,,,68,0
68264,note_off,104,0,4,,,,,,,,,3,,,48,0
68264,note_off,104,0,3,,,,,,,,,2,,,51,0
68320,note_on,56,0,1,,,,,,,,,0,,,70,63
68320,note_on,56,0,3,,,,,,,,,2,,,51,63
68320,note_on,56,0,4,,,,,,,,,3,,,46,63
68320,note_on,56,0,2,,,,,,,,,1,,,61,63
68424,note_off,104,0,3,,,,,,,,,2,,,51,0
68424,note_off,104,0,1,,,,,,,,,0,,,70,0
68424,note_off,104,0,2,,,,,,,,,1,,,61,0
68424,note_off,104,0,4,,,,,,,,,3,,,46,0
68480,note_on,56,0,1,,,,,,,,,0,,,72,63
68480,note_on,56,0,2,,,,,,,,,1,,,63,63
68480,note_on,56,0,4,,,,,,,,,3,,,44,63
68480,note_on,56,0,3,,,,,,,,,2,,,51,63
68584,note_off,104,0,1,,,,,,,,,0,,,72,0
68584,note_off,104,0,4,,,,,,,,,3,,,44,0
68584,note_off,104,0,3,,,,,,,,,2,,,51,0
68584,note_off,104,0,2,,,,,,,,,1,,,63,0
68640,note_on,56,0,3,,,,,,,,,2,,,53,72
68640,note_on,56,0,2,,,,,,,,,1,,,60,72
68640,note_on,56,0,4,,,,,,,,,3,,,51,72
68640,note_on,56,0,1,,,,,,,,,0,,,69,72
68744,note_off,104,0,3,,,,,,,,,2,,,53,0
68744,note_off,104,0,4,,,,,,,,,3,,,51,0
68744,note_off,104,0,1,,,,,,,,,0,,,69,0
68744,note_off,104,0,2,,,,,,,,,1,,,60,0
68800,note_on,56,0,1,,,,,,,,,0,,,70,64
68800,note_on,56,0,4,,,,,,,,,3,,,49,64
68800,note_on,56,0,2,,,,,,,,,1,,,61,64
68800,note_on,56,0,3,,,,,,,,,2,,,53,72
68904,note_off,104,0,2,,,,,,,,,1,,,61,0
68904,note_off,104,0,1,,,,,,,,,0,,,70,0
68904,note_off,104,0,4,,,,,,,,,3,,,49,0
68904,note_off,104,0,3,,,,,,,,,2,,,53,0
68960,note_on,56,0,4,,,,,,,,,3,,,48,62
68960,note_on,56,0,3,,,,,,,,,2,,,53,72
68960,note_on,56,0,2,,,,,,,,,1,,,63,62
68960,note_on,56,0,1,,,,,,,,,0,,,72,62
69064,note_off,104,0,2,,,,,,,,,1,,,63,0
69064,note_off,104,0,3,,,,,,,,,2,,,53,0
69064,note_off,104,0,1,,,,,,,,,0,,,72,0
69064,note_off,104,0,4,,,,,,,,,3,,,48,0
69120,note_on,56,0,1,,,,,,,,,0,,,70,62
69120,note_on,56,0,4,,,,,,,,,3,,,49,62
69120,note_on,56,0,3,,,,,,,,,2,,,53,62
69120,note_on,56,0,2,,,,,,,,,1,,,61,62
69224,note_off,104,0,4,,,,,,,,,3,,,49,0
69224,note_off,104,0,3,,,,,,,,,2,,,53,0
69224,note_off,104,0,1,,,,,,,,,0,,,70,0
69224,note_off,104,0,2,,,,,,,,,1,,,61,0
69280,note_on,56,0,2,,,,,,,,,1,,,63,62
69280,note_on,56,0,4,,,,,,,,,3,,,48,62
69280,note_on,56,0,3,,,,,,,,,2,,,53,62
69280,note_on,56,0,1,,,,,,,,,0,,,72,62
69384,note_off,104,0,1,,,,,,,,,0,,,72,0
69384,note_off,104,0,2,,,,,,,,,1,,,63,0
69384,note_off,104,0,3,,,,,,,,,2,,,53,0
69384,note_off,104,0,4,,,,,,,,,3,,,48,0
69440,note_on,56,0,1,,,,,,,,,0,,,73,61
69440,note_on,56,0,4,,,,,,,,,3,,,46,61
69440,note_on,56,0,2,,,,,,,,,1,,,65,61
69440,note_on,56,0,3,,,,,,,,,2,,,53,61
69544,note_off,104,0,3,,,,,,,,,2,,,53,0
69544,note_off,104,0,2,,,,,,,,,1,,,65,0
69544,note_off,104,0,1,,,,,,,,,0,,,73,0
69544,note_off,104,0,4,,,,,,,,,3,,,46,0
69600,note_on,56,0,2,,,,,,,,,1,,,58,70
69600,note_on,56,0,3,,,,,,,,,2,,,51,70
69600,note_on,56,0,4,,,,,,,,,3,,,49,70
69600,note_on,56,0,1,,,,,,,,,0,,,67,70
69704,note_off,104,0,4,,,,,,,,,3,,,49,0
69704,note_off,104,0,2,,,,,,,,,1,,,58,0
69704,note_off,104,0,1,,,,,,,,,0,,,67,0
69704,note_off,104,0,3,,,,,,,,,2,,,51,0
69760,note_on,56,0,4,,,,,,,,,3,,,48,61
69760,note_on,56,0,2,,,,,,,,,1,,,60,61
69760,note_on,56,0,3,,,,,,,,,2,,,51,61
69760,note_on,56,0,1,,,,,,,,,0,,,68,61
69864,note_off,104,0,4,,,,,,,,,3,,,48,0
69864,note_off,104,0,2,,,,,,,,,1,,,60,0
69864,note_off,104,0,3,,,,,,,,,2,,,51,0
69864,note_off,104,0,1,,,,,,,,,0,,,68,0
69920,note_on,56,0,3,,,,,,,,,2,,,51,60
69920,note_on,56,0,4,,,,,,,,,3,,,46,60
69920,note_on,56,0,2,,,,,,,,,1,,,61,60
69920,note_on,56,0,1,,,,,,,,,0,,,70,60
70024,note_off,104,0,1,,,,,,,,,0,,,70,0
70024,note_off,104,0,3,,,,,,,,,2,,,51,0
70024,note_off,104,0,2,,,,,,,,,1,,,61,0
70024,note_off,104,0,4,,,,,,,,,3,,,46,0
70080,note_on,56,0,3,,,,,,,,,2,,,51,60
70080,note_on,56,0,1,,,,,,,,,0,,,68,60
70080,note_on,56,0,2,,,,,,,,,1,,,60,60
70080,note_on,56,0,4,,,,,,,,,3,,,48,60
70184,note_off,104,0,3,,,,,,,,,2,,,51,0
70184,note_off,104,0,1,,,,,,,,,0,,,68,0
70184,note_off,104,0,2,,,,,,,,,1,,,60,0
70184,note_off,104,0,4,,,,,,,,,3,,,48,0
70240,note_on,56,0,2,,,,,,,,,1,,,61,60
70240,note_on,56,0,1,,,,,,,,,0,,,70,60
70240,note_on,56,0,4,,,,,,,,,3,,,46,60
70240,note_on,56,0,3,,,,,,,,,2,,,51,60
70344,note_off,104,0,4,,,,,,,,,3,,,46,0
70344,note_off,104,0,1,,,,,,,,,0,,,70,0
70344,note_off,104,0,2,,,,,,,,,1,,,61,0
70344,note_off,104,0,3,,,,,,,,,2,,,51,0
70400,note_on,56,0,1,,,,,,,,,0,,,72,60
70400,note_on,56,0,3,,,,,,,,,2,,,51,60
70400,note_on,56,0,2,,,,,,,,,1,,,63,60
70400,note_on,56,0,4,,,,,,,,,3,,,44,60
70504,note_off,104,0,1,,,,,,,,,0,,,72,0
70504,note_off,104,0,4,,,,,,,,,3,,,44,0
70504,note_off,104,0,3,,,,,,,,,2,,,51,0
70504,note_off,104,0,2,,,,,,,,,1,,,63,0
70560,note_on,56,0,4,,,,,,,,,3,,,49,67
70560,note_on,56,0,3,,,,,,,,,2,,,51,67
70560,note_on,56,0,1,,,,,,,,,0,,,67,67
70560,note_on,56,0,2,,,,,,,,,1,,,58,67
70664,note_off,104,0,1,,,,,,,,,0,,,67,0
70664,note_off,104,0,3,,,,,,,,,2,,,51,0
70664,note_off,104,0,4,,,,,,,,,3,,,49,0
70664,note_off,104,0,2,,,,,,,,,1,,,58,0
70720,note_on,56,0,1,,,,,,,,,0,,,68,59
70720,note_on,56,0,3,,,,,,,,,2,,,51,59
70720,note_on,56,0,2,,,,,,,,,1,,,60,59
70720,note_on,56,0,4,,,,,,,,,3,,,48,59
70824,note_off,104,0,1,,,,,,,,,0,,,68,0
70824,note_off,104,0,4,,,,,,,,,3,,,48,0
70824,note_off,104,0,3,,,,,,,,,2,,,51,0
70824,note_off,104,0,2,,,,,,,,,1,,,60,0
70880,note_on,56,0,2,,,,,,,,,1,,,61,59
70880,note_on,56,0,3,,,,,,,,,2,,,51,59
70880,note_on,56,0,4,,,,,,,,,3,,,46,59
70880,note_on,56,0,1,,,,,,,,,0,,,70,59
70984,note_off,104,0,4,,,,,,,,,3,,,46,0
70984,note_off,104,0,1,,,,,,,,,0,,,70,0
70984,note_off,104,0,3,,,,,,,,,2,,,51,0
70984,note_off,104,0,2,,,,,,,,,1,,,61,0
71040,note_on,56,0,4,,,,,,,,,3,,,48,59
71040,note_on,56,0,2,,,,,,,,,1,,,60,59
71040,note_on,56,0,3,,,,,,,,,2,,,51,59
71040,note_on,56,0,1,,,,,,,,,0,,,68,59
71144,note_off,104,0,4,,,,,,,,,3,,,48,0
71144,note_off,104,0,2,,,,,,,,,1,,,60,0
71144,note_off,104,0,3,,,,,,,,,2,,,51,0
71144,note_off,104,0,1,,,,,,,,,0,,,68,0
71200,note_on,56,0,1,,,,,,,,,0,,,70,59
71200,note_on,56,0,3,,,,,,,,,2,,,51,59
71200,note_on,56,0,4,,,,,,,,,3,,,46,59
71200,note_on,56,0,2,,,,,,,,,1,,,61,59
71304,note_off,104,0,1,,,,,,,,,0,,,70,0
71304,note_off,104,0,3,,,,,,,,,2,,,51,0
71304,note_off,104,0,2,,,,,,,,,1,,,61,0
71304,note_off,104,0,4,,,,,,,,,3,,,46,0
71360,note_on,56,0,3,,,,,,,,,2,,,51,58
71360,note_on,56,0,2,,,,,,,,,1,,,63,58
71360,note_on,56,0,4,,,,,,,,,3,,,44,58
71360,note_on,56,0,1,,,,,,,,,0,,,72,58
71464,note_off,104,0,4,,,,,,,,,3,,,44,0
71464,note_off,104,0,2,,,,,,,,,1,,,63,0
71464,note_off,104,0,3,,,,,,,,,2,,,51,0
71464,note_off,104,0,1,,,,,,,,,0,,,72,0
71520,note_on,56,0,3,,,,,,,,,2,,,51,58
71520,note_on,56,0,2,,,,,,,,,1,,,56,58
71520,note_on,56,0,1,,,,,,,,,0,,,68,58
71520,note_on,56,0,4,,,,,,,,,3,,,48,58
71624,note_off,104,0,2,,,,,,,,,1,,,56,0
71624,note_off,104,0,1,,,,,,,,,0,,,68,0
71624,note_off,104,0,4,,,,,,,,,3,,,48,0
71624,note_off,104,0,3,,,,,,,,,2,,,51,0
71680,note_on,56,0,2,,,,,,,,,1,,,58,58
71680,note_on,56,0,1,,,,,,,,,0,,,70,58
71680,note_on,56,0,4,,,,,,,,,3,,,46,58
71680,note_on,56,0,3,,,,,,,,,2,,,51,58
71784,note_off,104,0,2,,,,,,,,,1,,,58,0
71784,note_off,104,0,1,,,,,,,,,0,,,70,0
71784,note_off,104,0,4,,,,,,,,,3,,,46,0
71784,note_off,104,0,3,,,,,,,,,2,,,51,0
71840,note_on,56,0,1,,,,,,,,,0,,,72,57
71840,note_on,56,0,3,,,,,,,,,2,,,51,57
71840,note_on,56,0,2,,,,,,,,,1,,,60,57
71840,note_on,56,0,4,,,,,,,,,3,,,44,57
71880,set_tempo,8840,1,0,,,,,,508474,,,,,,,
71944,note_off,104,0,1,,,,,,,,,0,,,72,0
71944,note_off,104,0,4,,,,,,,,,3,,,44,0
71944,note_off,104,0,3,,,,,,,,,2,,,51,0
71944,note_off,104,0,2,,,,,,,,,1,,,60,0
72000,set_tempo,120,1,0,,,,,,500000,,,,,,,
72000,note_on,56,0,1,,,,,,,,,0,,,73,57
72000,note_on,56,0,4,,,,,,,,,3,,,43,57
72000,note_on,56,0,2,,,,,,,,,1,,,61,57
72104,note_off,104,0,1,,,,,,,,,0,,,73,0
72104,note_off,104,0,4,,,,,,,,,3,,,43,0
72104,note_off,104,0,2,,,,,,,,,1,,,61,0
72160,note_on,56,0,4,,,,,,,,,3,,,41,57
72160,note_on,56,0,1,,,,,,,,,0,,,75,57
72160,note_on,56,0,2,,,,,,,,,1,,,63,57
72264,note_off,104,0,2,,,,,,,,,1,,,63,0
72264,note_off,104,0,1,,,,,,,,,0,,,75,0
72264,note_off,104,0,4,,,,,,,,,3,,,41,0
72320,note_on,56,0,4,,,,,,,,,3,,,39,57
72320,note_on,56,0,1,,,,,,,,,0,,,77,57
72320,note_on,56,0,2,,,,,,,,,1,,,65,57
72424,note_off,104,0,2,,,,,,,,,1,,,65,0
72424,note_off,104,0,1,,,,,,,,,0,,,77,0
72424,note_off,104,0,4,,,,,,,,,3,,,39,0
72480,note_on,56,0,4,,,,,,,,,3,,,37,56
72480,note_on,536,0,3,,,,,,,,,2,,,39,63
72480,note_on,56,0,1,,,,,,,,,0,,,79,56
72480,note_on,56,0,2,,,,,,,,,1,,,67,56
72584,note_off,104,0,4,,,,,,,,,3,,,37,0
72584,note_off,104,0,2,,,,,,,,,1,,,67,0
72584,note_off,104,0,3,,,,,,,,,2,,,39,0
72584,note_off,104,0,1,,,,,,,,,0,,,79,0
72640,note_on,56,0,2,,,,,,,,,1,,,68,56
72640,note_on,56,0,1,,,,,,,,,0,,,80,56
72640,note_on,56,0,3,,,,,,,,,2,,,39,55
72640,note_on,56,0,4,,,,,,,,,3,,,36,56
72744,note_off,104,0,2,,,,,,,,,1,,,68,0
72744,note_off,104,0,3,,,,,,,,,2,,,39,0
72744,note_off,104,0,1,,,,,,,,,0,,,80,0
72744,note_off,104,0,4,,,,,,,,,3,,,36,0
72800,note_on,56,0,4,,,,,,,,,3,,,34,56
72800,note_on,56,0,1,,,,,,,,,0,,,82,56
72800,note_on,56,0,2,,,,,,,,,1,,,70,56
72800,note_on,56,0,3,,,,,,,,,2,,,39,56
72904,note_off,104,0,4,,,,,,,,,3,,,34,0
72904,note_off,104,0,1,,,,,,,,,0,,,82,0
72904,note_off,104,0,2,,,,,,,,,1,,,70,0
72904,note_off,104,0,3,,,,,,,,,2,,,39,0
72960,note_on,56,0,1,,,,,,,,,0,,,84,63
72960,note_on,56,0,4,,,,,,,,,3,,,32,63
72960,note_on,56,0,2,,,,,,,,,1,,,72,63
72960,note_on,56,0,3,,,,,,,,,2,,,39,57
73064,note_off,104,0,4,,,,,,,,,3,,,32,0
73064,note_off,104,0,1,,,,,,,,,0,,,84,0
73064,note_off,104,0,2,,,,,,,,,1,,,72,0
73064,note_off,104,0,3,,,,,,,,,2,,,39,0
73120,note_on,56,0,1,,,,,,,,,0,,,82,55
73120,note_on,56,0,4,,,,,,,,,3,,,34,55
73120,note_on,56,0,2,,,,,,,,,1,,,70,55
73120,note_on,56,0,3,,,,,,,,,2,,,39,58
73224,note_off,104,0,1,,,,,,,,,0,,,82,0
73224,note_off,104,0,3,,,,,,,,,2,,,39,0
73224,note_off,104,0,4,,,,,,,,,3,,,34,0
73224,note_off,104,0,2,,,,,,,,,1,,,70,0
73280,note_on,56,0,1,,,,,,,,,0,,,80,56
73280,note_on,56,0,3,,,,,,,,,2,,,39,58
73280,note_on,56,0,4,,,,,,,,,3,,,36,56
73280,note_on,56,0,2,,,,,,,,,1,,,68,56
73384,note_off,104,0,4,,,,,,,,,3,,,36,0
73384,note_off,104,0,1,,,,,,,,,0,,,80,0
73384,note_off,104,0,2,,,,,,,,,1,,,68,0
73384,note_off,104,0,3,,,,,,,,,2,,,39,0
73440,note_on,56,0,4,,,,,,,,,3,,,37,57
73440,note_on,56,0,2,,,,,,,,,1,,,67,57
73440,note_on,56,0,3,,,,,,,,,2,,,39,70
73440,note_on,56,0,1,,,,,,,,,0,,,79,57
73544,note_off,104,0,3,,,,,,,,,2,,,39,0
73544,note_off,104,0,1,,,,,,,,,0,,,79,0
73544,note_off,104,0,4,,,,,,,,,3,,,37,0
73544,note_off,104,0,2,,,,,,,,,1,,,67,0
73600,note_on,56,0,4,,,,,,,,,3,,,36,58
73600,note_on,56,0,1,,,,,,,,,0,,,80,58
73600,note_on,56,0,2,,,,,,,,,1,,,68,58
73600,note_on,56,0,3,,,,,,,,,2,,,39,60
73704,note_off,104,0,2,,,,,,,,,1,,,68,0
73704,note_off,104,0,4,,,,,,,,,3,,,36,0
73704,note_off,104,0,3,,,,,,,,,2,,,39,0
73704,note_off,104,0,1,,,,,,,,,0,,,80,0
73760,note_on,56,0,1,,,,,,,,,0,,,82,58
73760,note_on,56,0,3,,,,,,,,,2,,,39,61
73760,note_on,56,0,2,,,,,,,,,1,,,70,58
73760,note_on,56,0,4,,,,,,,,,3,,,34,58
73864,note_off,104,0,2,,,,,,,,,1,,,70,0
73864,note_off,104,0,1,,,,,,,,,0,,,82,0
73864,note_off,104,0,3,,,,,,,,,2,,,39,0
73864,note_off,104,0,4,,,,,,,,,3,,,34,0
73920,note_on,56,0,1,,,,,,,,,0,,,84,70
73920,note_on,56,0,4,,,,,,,,,3,,,32,70
73920,note_on,56,0,2,,,,,,,,,1,,,72,70
73920,note_on,56,0,3,,,,,,,,,2,,,39,62
74024,note_off,104,0,2,,,,,,,,,1,,,72,0
74024,note_off,104,0,1,,,,,,,,,0,,,84,0
74024,note_off,104,0,4,,,,,,,,,3,,,32,0
74024,note_off,104,0,3,,,,,,,,,2,,,39,0
74080,note_on,56,0,1,,,,,,,,,0,,,82,60
74080,note_on,56,0,2,,,,,,,,,1,,,70,60
74080,note_on,56,0,4,,,,,,,,,3,,,34,60
74080,note_on,56,0,3,,,,,,,,,2,,,39,63
74184,note_off,104,0,1,,,,,,,,,0,,,82,0
74184,note_off,104,0,3,,,,,,,,,2,,,39,0
74184,note_off,104,0,4,,,,,,,,,3,,,34,0
74184,note_off,104,0,2,,,,,,,,,1,,,70,0
74240,note_on,56,0,1,,,,,,,,,0,,,80,61
74240,note_on,56,0,4,,,,,,,,,3,,,36,61
74240,note_on,56,0,3,,,,,,,,,2,,,39,64
74240,note_on,56,0,2,,,,,,,,,1,,,68,61
74344,note_off,104,0,1,,,,,,,,,0,,,80,0
74344,note_off,104,0,3,,,,,,,,,2,,,39,0
74344,note_off,104,0,4,,,,,,,,,3,,,36,0
74344,note_off,104,0,2,,,,,,,,,1,,,68,0
74400,note_on,56,0,4,,,,,,,,,3,,,37,62
74400,note_on,56,0,1,,,,,,,,,0,,,79,62
74400,note_on,56,0,2,,,,,,,,,1,,,67,62
74504,note_off,104,0,1,,,,,,,,,0,,,79,0
74504,note_off,104,0,4,,,,,,,,,3,,,37,0
74504,note_off,104,0,2,,,,,,,,,1,,,67,0
74560,note_on,56,0,2,,,,,,,,,1,,,68,63
74560,note_on,56,0,1,,,,,,,,,0,,,80,63
74560,note_on,56,0,4,,,,,,,,,3,,,36,63
74664,note_off,104,0,1,,,,,,,,,0,,,80,0
74664,note_off,104,0,4,,,,,,,,,3,,,36,0
74664,note_off,104,0,2,,,,,,,,,1,,,68,0
74720,note_on,56,0,1,,,,,,,,,0,,,82,64
74720,note_on,56,0,4,,,,,,,,,3,,,34,64
74720,note_on,56,0,2,,,,,,,,,1,,,70,64
74824,note_off,104,0,1,,,,,,,,,0,,,82,0
74824,note_off,104,0,4,,,,,,,,,3,,,34,0
74824,note_off,104,0,2,,,,,,,,,1,,,70,0
74880,note_on,56,0,2,,,,,,,,,1,,,72,64
74880,note_on,56,0,1,,,,,,,,,0,,,84,64
74880,note_on,56,0,4,,,,,,,,,3,,,32,64
74984,note_off,104,0,2,,,,,,,,,1,,,72,0
74984,note_off,104,0,1,,,,,,,,,0,,,84,0
75040,note_on,0,0,4,,,,,,,,,3,,,34,67
75040,note_on,56,0,2,,,,,,,,,1,,,70,67
75040,note_off,160,0,4,,,,,,,,,3,,,32,0
75040,note_on,56,0,1,,,,,,,,,0,,,82,67
75144,note_off,104,0,1,,,,,,,,,0,,,82,0
75144,note_off,104,0,2,,,,,,,,,1,,,70,0
75200,note_on,0,0,4,,,,,,,,,3,,,36,70
75200,note_on,56,0,2,,,,,,,,,1,,,68,70
75200,note_on,56,0,1,,,,,,,,,0,,,80,70
75200,note_off,160,0,4,,,,,,,,,3,,,34,0
75304,note_off,104,0,2,,,,,,,,,1,,,68,0
75304,note_off,104,0,1,,,,,,,,,0,,,80,0
75360,note_off,160,0,4,,,,,,,,,3,,,36,0
75360,note_on,56,0,1,,,,,,,,,0,,,84,72
75360,note_on,56,0,2,,,,,,,,,1,,,72,72
75360,note_on,0,0,4,,,,,,,,,3,,,37,72
75464,note_off,104,0,1,,,,,,,,,0,,,84,0
75464,note_off,104,0,2,,,,,,,,,1,,,72,0
75520,note_on,56,0,1,,,,,,,,,0,,,82,75
75520,note_on,56,0,2,,,,,,,,,1,,,70,75
75520,note_on,0,0,4,,,,,,,,,3,,,38,75
75520,note_off,160,0,4,,,,,,,,,3,,,37,0
75624,note_off,104,0,2,,,,,,,,,1,,,70,0
75624,note_off,104,0,1,,,,,,,,,0,,,82,0
75680,note_on,56,0,2,,,,,,,,,1,,,68,78
75680,note_on,0,0,4,,,,,,,,,3,,,39,78
75680,note_off,160,0,4,,,,,,,,,3,,,38,0
75680,note_on,56,0,1,,,,,,,,,0,,,80,78
75784,note_off,104,0,1,,,,,,,,,0,,,80,0
75784,note_off,104,0,2,,,,,,,,,1,,,68,0
75840,note_on,0,0,4,,,,,,,,,3,,,40,80
75840,note_off,160,0,4,,,,,,,,,3,,,39,0
75840,note_on,56,0,2,,,,,,,,,1,,,72,80
75840,note_on,56,0,1,,,,,,,,,0,,,84,80
75944,note_off,104,0,1,,,,,,,,,0,,,84,0
75944,note_off,104,0,2,,,,,,,,,1,,,72,0
76000,note_on,56,0,1,,,,,,,,,0,,,82,83
76000,note_on,56,0,2,,,,,,,,,1,,,70,83
76000,note_off,160,0,4,,,,,,,,,3,,,40,0
76000,note_on,0,0,4,,,,,,,,,3,,,41,83
76104,note_off,104,0,1,,,,,,,,,0,,,82,0
76104,note_off,104,0,2,,,,,,,,,1,,,70,0
76160,note_off,160,0,4,,,,,,,,,3,,,41,0
76160,note_on,56,0,1,,,,,,,,,0,,,80,86
76160,note_on,56,0,2,,,,,,,,,1,,,68,86
76160,note_on,0,0,4,,,,,,,,,3,,,38,86
76264,note_off,104,0,2,,,,,,,,,1,,,68,0
76264,note_off,104,0,1,,,,,,,,,0,,,80,0
76320,note_on,56,0,1,,,,,,,,,0,,,79,85
76320,note_on,0,0,4,,,,,,,,,3,,,39,85
76320,note_off,160,0,4,,,,,,,,,3,,,38,0
76320,note_on,56,0,2,,,,,,,,,1,,,67,85
76424,note_off,104,0,4,,,,,,,,,3,,,39,0
76424,note_off,104,0,1,,,,,,,,,0,,,79,0
76424,note_off,104,0,2,,,,,,,,,1,,,67,0
76480,note_on,56,0,4,,,,,,,,,3,,,39,82
76480,note_on,56,0,1,,,,,,,,,0,,,77,82
76480,note_on,56,0,2,,,,,,,,,1,,,65,82
76584,note_off,104,0,1,,,,,,,,,0,,,77,0
76584,note_off,104,0,4,,,,,,,,,3,,,39,0
76584,note_off,104,0,2,,,,,,,,,1,,,65,0
76640,note_on,56,0,1,,,,,,,,,0,,,75,80
76640,note_on,56,0,4,,,,,,,,,3,,,41,80
76640,note_on,56,0,2,,,,,,,,,1,,,63,80
76744,note_off,104,0,4,,,,,,,,,3,,,41,0
76744,note_off,104,0,1,,,,,,,,,0,,,75,0
76744,note_off,104,0,2,,,,,,,,,1,,,63,0
76800,note_on,56,0,1,,,,,,,,,0,,,73,77
76800,note_on,56,0,2,,,,,,,,,1,,,61,77
76800,note_on,56,0,4,,,,,,,,,3,,,43,77
76904,note_off,104,0,1,,,,,,,,,0,,,73,0
76904,note_off,104,0,2,,,,,,,,,1,,,61,0
76904,note_off,104,0,4,,,,,,,,,3,,,43,0
76960,note_on,56,0,2,,,,,,,,,1,,,60,74
76960,note_on,56,0,1,,,,,,,,,0,,,72,74
76960,note_on,56,0,4,,,,,,,,,3,,,44,74
77064,note_off,104,0,1,,,,,,,,,0,,,72,0
77064,note_off,104,0,4,,,,,,,,,3,,,44,0
77064,note_off,104,0,2,,,,,,,,,1,,,60,0
77120,note_on,56,0,1,,,,,,,,,0,,,70,71
77120,note_on,56,0,4,,,,,,,,,3,,,46,71
77120,note_on,56,0,2,,,,,,,,,1,,,58,71
77224,note_off,104,0,4,,,,,,,,,3,,,46,0
77224,note_off,104,0,1,,,,,,,,,0,,,70,0
77224,note_off,104,0,2,,,,,,,,,1,,,58,0
77280,note_on,56,0,1,,,,,,,,,0,,,68,68
77280,note_on,56,0,4,,,,,,,,,3,,,48,68
77280,note_on,56,0,2,,,,,,,,,1,,,56,68
77384,note_off,104,0,2,,,,,,,,,1,,,56,0
77384,note_off,104,0,1,,,,,,,,,0,,,68,0
77384,note_off,104,0,4,,,,,,,,,3,,,48,0
77440,note_on,56,0,2,,,,,,,,,1,,,58,71
77440,note_on,56,0,1,,,,,,,,,0,,,70,71
77440,note_on,56,0,4,,,,,,,,,3,,,49,71
77544,note_off,104,0,4,,,,,,,,,3,,,49,0
77544,note_off,104,0,1,,,,,,,,,0,,,70,0
77544,note_off,104,0,2,,,,,,,,,1,,,58,0
77600,note_on,56,0,1,,,,,,,,,0,,,67,66
77600,note_on,56,0,4,,,,,,,,,3,,,51,66
77600,note_on,56,0,2,,,,,,,,,1,,,55,66
77704,note_off,104,0,4,,,,,,,,,3,,,51,0
77704,note_off,104,0,2,,,,,,,,,1,,,55,0
77704,note_off,104,0,1,,,,,,,,,0,,,67,0
77760,note_on,56,0,1,,,,,,,,,0,,,68,61
77760,note_on,56,0,2,,,,,,,,,1,,,56,61
77760,note_on,56,0,4,,,,,,,,,3,,,44,61
77864,note_off,104,0,1,,,,,,,,,0,,,68,0
77864,note_off,104,0,4,,,,,,,,,3,,,44,0
77864,note_off,104,0,2,,,,,,,,,1,,,56,0
77920,note_on,56,0,4,,,,,,,,,3,,,46,65
78080,note_off,160,0,4,,,,,,,,,3,,,46,0
78080,note_on,0,0,4,,,,,,,,,3,,,43,63
78240,note_off,160,0,4,,,,,,,,,3,,,43,0
78240,note_on,0,0,4,,,,,,,,,3,,,44,60
78240,set_tempo,6240,1,0,,,,,,526315,,,,,,,
78360,note_off,120,0,4,,,,,,,,,3,,,44,0
78400,note_on,536,0,1,,,,,,,,,0,,,77,58
78400,set_tempo,160,1,0,,,,,,500000,,,,,,,
78560,note_off,160,0,1,,,,,,,,,0,,,77,0
78560,note_on,0,0,1,,,,,,,,,0,,,79,58
78720,note_off,160,0,1,,,,,,,,,0,,,79,0
78720,note_on,0,0,1,,,,,,,,,0,,,80,69
78720,note_on,360,0,4,,,,,,,,,3,,,41,69
78824,note_off,104,0,4,,,,,,,,,3,,,41,0
78824,note_off,104,0,1,,,,,,,,,0,,,80,0
78880,note_on,56,0,4,,,,,,,,,3,,,43,64
78880,note_on,56,0,1,,,,,,,,,0,,,79,64
78984,note_off,104,0,4,,,,,,,,,3,,,43,0
78984,note_off,104,0,1,,,,,,,,,0,,,79,0
79040,note_on,56,0,4,,,,,,,,,3,,,44,63
79040,note_on,56,0,1,,,,,,,,,0,,,77,63
79144,note_off,104,0,4,,,,,,,,,3,,,44,0
79144,note_off,104,0,1,,,,,,,,,0,,,77,0
79200,note_on,56,0,1,,,,,,,,,0,,,75,61
79200,note_on,56,0,4,,,,,,,,,3,,,46,61
79304,note_off,104,0,4,,,,,,,,,3,,,46,0
79304,note_off,104,0,1,,,,,,,,,0,,,75,0
79360,note_on,56,0,1,,,,,,,,,0,,,73,60
79360,note_on,56,0,4,,,,,,,,,3,,,48,60
79464,note_off,104,0,1,,,,,,,,,0,,,73,0
79464,note_off,104,0,4,,,,,,,,,3,,,48,0
79520,note_on,56,0,1,,,,,,,,,0,,,72,59
79520,note_on,56,0,4,,,,,,,,,3,,,49,59
79624,note_off,104,0,4,,,,,,,,,3,,,49,0
79624,note_off,104,0,1,,,,,,,,,0,,,72,0
79680,note_on,56,0,1,,,,,,,,,0,,,70,57
79680,note_on,56,0,4,,,,,,,,,3,,,51,57
79784,note_off,104,0,1,,,,,,,,,0,,,70,0
79784,note_off,104,0,4,,,,,,,,,3,,,51,0
79840,note_on,56,0,1,,,,,,,,,0,,,68,56
79840,note_on,56,0,4,,,,,,,,,3,,,53,56
79944,note_off,104,0,1,,,,,,,,,0,,,68,0
79944,note_off,104,0,4,,,,,,,,,3,,,53,0
80000,note_on,56,0,4,,,,,,,,,3,,,55,55
80000,note_on,56,0,1,,,,,,,,,0,,,67,55
80104,note_off,104,0,1,,,,,,,,,0,,,67,0
80104,note_off,104,0,4,,,,,,,,,3,,,55,0
80160,note_on,56,0,1,,,,,,,,,0,,,65,54
80160,note_on,56,0,4,,,,,,,,,3,,,56,54
80264,note_off,104,0,1,,,,,,,,,0,,,65,0
80264,note_off,104,0,4,,,,,,,,,3,,,56,0
80320,note_on,56,0,4,,,,,,,,,3,,,58,56
80320,note_on,56,0,1,,,,,,,,,0,,,67,56
80424,note_off,104,0,1,,,,,,,,,0,,,67,0
80424,note_off,104,0,4,,,,,,,,,3,,,58,0
80480,note_on,56,0,4,,,,,,,,,3,,,60,55
80480,note_on,56,0,1,,,,,,,,,0,,,64,55
80584,note_off,104,0,4,,,,,,,,,3,,,60,0
80584,note_off,104,0,1,,,,,,,,,0,,,64,0
80640,note_on,56,0,4,,,,,,,,,3,,,53,52
80640,note_on,56,0,1,,,,,,,,,0,,,65,52
80744,note_off,104,0,4,,,,,,,,,3,,,53,0
80744,note_off,104,0,1,,,,,,,,,0,,,65,0
80800,note_on,56,0,4,,,,,,,,,3,,,43,55
80880,set_tempo,2480,1,0,,,,,,526315,,,,,,,
80960,note_off,160,0,4,,,,,,,,,3,,,43,0
80960,note_on,0,0,4,,,,,,,,,3,,,40,51
81120,set_tempo,240,1,0,,,,,,508474,,,,,,,
81120,note_on,0,0,4,,,,,,,,,3,,,41,47
81120,note_off,160,0,4,,,,,,,,,3,,,40,0
81240,note_off,120,0,4,,,,,,,,,3,,,41,0
81280,note_on,536,0,1,,,,,,,,,0,,,73,47
81440,note_on,0,0,1,,,,,,,,,0,,,75,51
81440,note_off,160,0,1,,,,,,,,,0,,,73,0
81600,note_off,160,0,1,,,,,,,,,0,,,75,0
81600,note_on,0,0,1,,,,,,,,,0,,,77,57
81600,note_on,360,0,4,,,,,,,,,3,,,37,57
81704,note_off,104,0,4,,,,,,,,,3,,,37,0
81704,note_off,104,0,1,,,,,,,,,0,,,77,0
81760,note_on,56,0,1,,,,,,,,,0,,,75,52
81760,note_on,56,0,4,,,,,,,,,3,,,39,52
81864,note_off,104,0,4,,,,,,,,,3,,,39,0
81864,note_off,104,0,1,,,,,,,,,0,,,75,0
81920,note_on,56,0,1,,,,,,,,,0,,,73,51
81920,note_on,56,0,4,,,,,,,,,3,,,41,51
82024,note_off,104,0,4,,,,,,,,,3,,,41,0
82024,note_off,104,0,1,,,,,,,,,0,,,73,0
82080,note_on,56,0,1,,,,,,,,,0,,,72,50
82080,note_on,56,0,4,,,,,,,,,3,,,42,50
82184,note_off,104,0,4,,,,,,,,,3,,,42,0
82184,note_off,104,0,1,,,,,,,,,0,,,72,0
82240,note_on,56,0,4,,,,,,,,,3,,,44,49
82240,note_on,56,0,1,,,,,,,,,0,,,70,49
82344,note_off,104,0,4,,,,,,,,,3,,,44,0
82344,note_off,104,0,1,,,,,,,,,0,,,70,0
82400,note_on,56,0,1,,,,,,,,,0,,,68,48
82400,note_on,56,0,4,,,,,,,,,3,,,46,48
82504,note_off,104,0,1,,,,,,,,,0,,,68,0
82504,note_off,104,0,4,,,,,,,,,3,,,46,0
82560,note_on,56,0,4,,,,,,,,,3,,,48,47
82560,note_on,56,0,1,,,,,,,,,0,,,66,47
82664,note_off,104,0,1,,,,,,,,,0,,,66,0
82664,note_off,104,0,4,,,,,,,,,3,,,48,0
82720,note_on,56,0,4,,,,,,,,,3,,,49,46
82720,note_on,56,0,1,,,,,,,,,0,,,65,46
82824,note_off,104,0,4,,,,,,,,,3,,,49,0
82824,note_off,104,0,1,,,,,,,,,0,,,65,0
82880,note_on,56,0,1,,,,,,,,,0,,,63,45
82880,note_on,56,0,4,,,,,,,,,3,,,51,45
82984,note_off,104,0,1,,,,,,,,,0,,,63,0
82984,note_off,104,0,4,,,,,,,,,3,,,51,0
83040,note_on,56,0,1,,,,,,,,,0,,,61,44
83040,note_on,56,0,4,,,,,,,,,3,,,53,44
83144,note_off,104,0,1,,,,,,,,,0,,,61,0
83144,note_off,104,0,4,,,,,,,,,3,,,53,0
83200,note_on,56,0,1,,,,,,,,,0,,,63,47
83200,note_on,56,0,4,,,,,,,,,3,,,54,47
83304,note_off,104,0,1,,,,,,,,,0,,,63,0
83304,note_off,104,0,4,,,,,,,,,3,,,54,0
83360,note_on,56,0,1,,,,,,,,,0,,,60,44
83360,note_on,56,0,4,,,,,,,,,3,,,56,44
83464,note_off,104,0,1,,,,,,,,,0,,,60,0
83464,note_off,104,0,4,,,,,,,,,3,,,56,0
83520,note_on,56,0,4,,,,,,,,,3,,,49,42
83520,note_on,56,0,1,,,,,,,,,0,,,61,42
83624,note_off,104,0,4,,,,,,,,,3,,,49,0
83624,note_off,104,0,1,,,,,,,,,0,,,61,0
83680,note_on,56,0,4,,,,,,,,,3,,,39,47
83840,note_off,160,0,4,,,,,,,,,3,,,39,0
83840,note_on,0,0,4,,,,,,,,,3,,,36,43
84000,note_off,160,0,4,,,,,,,,,3,,,36,0
84000,note_on,0,0,4,,,,,,,,,3,,,37,38
84000,set_tempo,2880,1,0,,,,,,517241,,,,,,,
84104,note_off,104,0,4,,,,,,,,,3,,,37,0
84960,note_on,1336,0,1,,,,,,,,,0,,,53,40
84960,note_on,0,0,1,,,,,,,,,0,,,65,40
85120,note_on,1016,0,4,,,,,,,,,3,,,39,45
85280,note_off,160,0,4,,,,,,,,,3,,,39,0
85280,note_on,0,0,4,,,,,,,,,3,,,36,42
85440,set_tempo,1440,1,0,,,,,,526315,,,,,,,
85440,note_off,160,0,4,,,,,,,,,3,,,36,0
85440,note_on,0,0,4,,,,,,,,,3,,,37,38
85440,note_off,0,0,1,,,,,,,,,0,,,53,0
85440,note_off,480,0,1,,,,,,,,,0,,,65,0
85544,note_off,104,0,4,,,,,,,,,3,,,37,0
86400,note_on,0,0,1,,,,,,,,,0,,,65,36
86400,note_on,0,0,1,,,,,,,,,0,,,70,36
86400,note_on,960,0,1,,,,,,,,,0,,,58,36
86560,note_on,1016,0,4,,,,,,,,,3,,,51,41
86720,note_on,0,0,4,,,,,,,,,3,,,48,39
86720,note_off,160,0,4,,,,,,,,,3,,,51,0
86880,note_off,0,0,1,,,,,,,,,0,,,58,0
86880,note_off,0,0,1,,,,,,,,,0,,,65,0
86880,note_off,160,0,4,,,,,,,,,3,,,48,0
86880,note_on,0,0,4,,,,,,,,,3,,,49,37
86880,set_tempo,1440,1,0,,,,,,535714,,,,,,,
86880,note_off,480,0,1,,,,,,,,,0,,,70,0
86984,note_off,104,0,4,,,,,,,,,3,,,49,0
87840,note_on,960,0,1,,,,,,,,,0,,,59,32
87840,note_on,0,0,1,,,,,,,,,0,,,65,32
87840,note_on,0,0,1,,,,,,,,,0,,,71,32
88000,note_on,1016,0,4,,,,,,,,,3,,,39,35
88160,note_on,0,0,4,,,,,,,,,3,,,36,33
88160,note_off,160,0,4,,,,,,,,,3,,,39,0
88320,set_tempo,1440,1,0,,,,,,550458,,,,,,,
88320,note_off,0,0,1,,,,,,,,,0,,,59,0
88320,note_off,0,0,1,,,,,,,,,0,,,71,0
88320,note_on,0,0,4,,,,,,,,,3,,,37,31
88320,note_off,160,0,4,,,,,,,,,3,,,36,0
88320,note_off,480,0,1,,,,,,,,,0,,,65,0
88424,note_off,104,0,4,,,,,,,,,3,,,37,0
89280,set_tempo,960,1,0,,,,,,540540,,,,,,,
89280,note_on,0,0,1,,,,,,,,,0,,,64,31
89280,note_on,960,0,1,,,,,,,,,0,,,60,31
89280,note_on,856,0,4,,,,,,,,,3,,,36,31
89280,note_on,0,0,1,,,,,,,,,0,,,72,31
89440,note_on,160,0,1,,,,,,,,,0,,,61,36
89600,note_on,0,0,1,,,,,,,,,0,,,59,33
89600,note_off,160,0,1,,,,,,,,,0,,,61,0
89760,note_on,0,0,1,,,,,,,,,0,,,60,30
89760,note_off,0,0,1,,,,,,,,,0,,,72,0
89760,note_off,160,0,1,,,,,,,,,0,,,59,0
89760,note_off,0,0,1,,,,,,,,,0,,,60,0
89760,note_off,480,0,4,,,,,,,,,3,,,36,0
89760,note_off,0,0,1,,,,,,,,,0,,,64,0
89864,note_off,104,0,1,,,,,,,,,0,,,60,0
89920,note_on,56,0,1,,,,,,,,,0,,,73,35
90080,note_off,160,0,1,,,,,,,,,0,,,73,0
90080,note_on,0,0,1,,,,,,,,,0,,,71,33
90240,note_off,160,0,1,,,,,,,,,0,,,71,0
90240,note_on,0,0,1,,,,,,,,,0,,,72,32
90344,note_off,104,0,1,,,,,,,,,0,,,72,0
90400,note_on,56,0,1,,,,,,,,,0,,,85,39
90560,note_off,160,0,1,,,,,,,,,0,,,85,0
90560,note_on,0,0,1,,,,,,,,,0,,,83,38
90720,note_on,0,0,1,,,,,,,,,0,,,84,36
90720,note_off,160,0,1,,,,,,,,,0,,,83,0
90824,note_off,104,0,1,,,,,,,,,0,,,84,0
90880,note_on,56,0,1,,,,,,,,,0,,,85,41
91040,note_on,0,0,1,,,,,,,,,0,,,83,40
91040,note_off,160,0,1,,,,,,,,,0,,,85,0
91200,note_off,160,0,1,,,,,,,,,0,,,83,0
91200,note_on,0,0,1,,,,,,,,,0,,,84,38
91304,note_off,104,0,1,,,,,,,,,0,,,84,0
91360,note_on,56,0,1,,,,,,,,,0,,,85,47
91520,note_off,160,0,1,,,,,,,,,0,,,85,0
91520,note_on,0,0,1,,,,,,,,,0,,,83,44
91560,set_tempo,2280,1,0,,,,,,550458,,,,,,,
91680,note_off,160,0,1,,,,,,,,,0,,,83,0
91680,note_on,0,0,1,,,,,,,,,0,,,84,43
91784,note_off,104,0,1,,,,,,,,,0,,,84,0
91840,set_tempo,280,1,0,,,,,,588235,,,,,,,
91840,note_on,56,0,1,,,,,,,,,0,,,85,47
92000,note_on,0,0,1,,,,,,,,,0,,,83,43
92000,note_off,160,0,1,,,,,,,,,0,,,85,0
92040,set_tempo,200,1,0,,,,,,612244,,,,,,,
92160,note_on,0,0,1,,,,,,,,,0,,,84,39
92160,note_off,160,0,1,,,,,,,,,0,,,83,0
92640,note_off,480,0,1,,,,,,,,,0,,,84,0
93120,set_tempo,1080,1,0,,,,,,600000,,,,,,,
93120,note_on,480,0,1,,,,,,,,,0,,,84,35
93280,note_off,160,0,1,,,,,,,,,0,,,84,0
93280,note_on,0,0,1,,,,,,,,,0,,,85,39
93440,note_off,160,0,1,,,,,,,,,0,,,85,0
93440,note_on,0,0,1,,,,,,,,,0,,,83,36
93540,set_tempo,420,1,0,,,,,,612244,,,,,,,
93600,note_off,160,0,1,,,,,,,,,0,,,83,0
93600,note_on,0,0,1,,,,,,,,,0,,,84,33
93600,set_tempo,60,1,0,,,,,,625000,,,,,,,
94080,note_off,480,0,1,,,,,,,,,0,,,84,0
94530,set_tempo,930,1,0,,,,,,674157,,,,,,,
94560,note_on,480,0,1,,,,,,,,,0,,,84,29
94720,note_on,0,0,1,,,,,,,,,0,,,85,33
94720,note_off,160,0,1,,,,,,,,,0,,,84,0
94720,set_tempo,190,1,0,,,,,,705882,,,,,,,
94880,set_tempo,160,1,0,,,,,,769230,,,,,,,
94880,note_off,160,0,1,,,,,,,,,0,,,85,0
94880,note_on,0,0,1,,,,,,,,,0,,,83,30
95040,note_off,160,0,1,,,,,,,,,0,,,83,0
95040,note_on,5280,0,4,,,,,,,,,3,,,36,28
95040,set_tempo,160,1,0,,,,,,705882,,,,,,,
95200,note_on,0,0,4,,,,,,,,,3,,,37,33
95200,note_off,160,0,4,,,,,,,,,3,,,36,0
95200,set_tempo,160,1,0,,,,,,612244,,,,,,,
95360,set_tempo,160,1,0,,,,,,550458,,,,,,,
95360,note_on,0,0,4,,,,,,,,,3,,,35,31
95360,note_off,160,0,4,,,,,,,,,3,,,37,0
95520,note_on,0,0,4,,,,,,,,,3,,,36,28
95520,set_tempo,160,1,0,,,,,,540540,,,,,,,
95520,note_off,160,0,4,,,,,,,,,3,,,35,0
95680,note_on,0,0,4,,,,,,,,,3,,,37,33
95680,note_off,160,0,4,,,,,,,,,3,,,36,0
95840,note_off,160,0,4,,,,,,,,,3,,,37,0
95840,note_on,0,0,4,,,,,,,,,3,,,35,32
96000,note_on,0,0,4,,,,,,,,,3,,,36,30
96000,note_off,160,0,4,,,,,,,,,3,,,35,0
96160,note_on,0,0,4,,,,,,,,,3,,,37,35
96160,note_off,160,0,4,,,,,,,,,3,,,36,0
96320,note_off,160,0,4,,,,,,,,,3,,,37,0
96320,note_on,0,0,4,,,,,,,,,3,,,35,32
96480,note_on,0,0,4,,,,,,,,,3,,,36,30
96480,note_off,160,0,4,,,,,,,,,3,,,35,0
96640,note_on,0,0,4,,,,,,,,,3,,,37,35
96640,note_off,160,0,4,,,,,,,,,3,,,36,0
96800,note_off,160,0,4,,,,,,,,,3,,,37,0
96800,note_on,0,0,4,,,,,,,,,3,,,35,33
96960,note_off,160,0,4,,,,,,,,,3,,,35,0
96960,note_on,0,0,4,,,,,,,,,3,,,36,32
97120,note_off,160,0,4,,,,,,,,,3,,,36,0
97120,note_on,0,0,4,,,,,,,,,3,,,37,35
97280,note_off,160,0,4,,,,,,,,,3,,,37,0
97280,note_on,0,0,4,,,,,,,,,3,,,35,34
97440,note_off,160,0,4,,,,,,,,,3,,,35,0
97440,note_on,0,0,4,,,,,,,,,3,,,36,32
97600,note_on,0,0,4,,,,,,,,,3,,,37,37
97600,note_off,160,0,4,,,,,,,,,3,,,36,0
97760,note_off,160,0,4,,,,,,,,,3,,,37,0
97760,note_on,0,0,4,,,,,,,,,3,,,35,36
97920,note_off,160,0,4,,,,,,,,,3,,,35,0
97920,note_on,0,0,4,,,,,,,,,3,,,36,34
98080,note_off,160,0,4,,,,,,,,,3,,,36,0
98080,note_on,0,0,4,,,,,,,,,3,,,37,38
98240,note_off,160,0,4,,,,,,,,,3,,,37,0
98240,note_on,0,0,4,,,,,,,,,3,,,35,35
98400,note_off,160,0,4,,,,,,,,,3,,,35,0
98400,note_on,0,0,4,,,,,,,,,3,,,36,32
98560,note_off,160,0,4,,,,,,,,,3,,,36,0
98560,note_on,0,0,4,,,,,,,,,3,,,37,39
98720,note_on,0,0,4,,,,,,,,,3,,,35,37
98720,note_off,160,0,4,,,,,,,,,3,,,37,0
98880,note_off,160,0,4,,,,,,,,,3,,,35,0
98880,note_on,0,0,4,,,,,,,,,3,,,36,34
99040,note_off,160,0,4,,,,,,,,,3,,,36,0
99040,note_on,0,0,4,,,,,,,,,3,,,37,39
99200,note_off,160,0,4,,,,,,,,,3,,,37,0
99200,note_on,0,0,4,,,,,,,,,3,,,33,37
99360,note_on,0,0,4,,,,,,,,,3,,,34,34
99360,note_off,160,0,4,,,,,,,,,3,,,33,0
99520,note_off,160,0,4,,,,,,,,,3,,,34,0
99520,note_on,0,0,4,,,,,,,,,3,,,36,41
99680,note_on,0,0,4,,,,,,,,,3,,,33,38
99680,note_off,160,0,4,,,,,,,,,3,,,36,0
99840,note_on,0,0,4,,,,,,,,,3,,,34,36
99840,note_off,160,0,4,,,,,,,,,3,,,33,0
99840,set_tempo,4320,1,0,,,,,,550458,,,,,,,
100000,note_on,0,0,4,,,,,,,,,3,,,38,45
100000,note_off,160,0,4,,,,,,,,,3,,,34,0
100160,note_on,0,0,4,,,,,,,,,3,,,36,43
100160,note_off,160,0,4,,,,,,,,,3,,,38,0
100200,set_tempo,360,1,0,,,,,,560747,,,,,,,
100320,note_off,160,0,4,,,,,,,,,3,,,36,0
100320,note_on,5280,0,1,,,,,,,,,0,,,48,38
100320,note_on,0,0,4,,,,,,,,,3,,,34,40
100480,note_off,160,0,4,,,,,,,,,3,,,34,0
100480,note_on,0,0,4,,,,,,,,,3,,,33,37
100640,note_off,160,0,4,,,,,,,,,3,,,33,0
100640,note_on,0,0,4,,,,,,,,,3,,,31,41
100680,note_off,360,0,1,,,,,,,,,0,,,48,0
100680,set_tempo,480,1,0,,,,,,582524,,,,,,,
100680,note_on,0,0,1,,,,,,,,,0,,,52,41
100800,note_off,120,0,1,,,,,,,,,0,,,52,0
100800,note_on,0,0,4,,,,,,,,,3,,,29,43
100800,note_on,26456,0,3,,,,,,,,,2,,,41,43
100800,note_on,22936,0,2,,,,,,,,,1,,,45,43
100800,note_off,160,0,4,,,,,,,,,3,,,31,0
100800,set_tempo,120,1,0,,,,,,540540,,,,,,,
100800,note_on,0,0,1,,,,,,,,,0,,,53,43
101280,note_off,480,0,4,,,,,,,,,3,,,29,0
101280,note_on,0,0,4,,,,,,,,,3,,,31,37
101280,note_off,480,0,2,,,,,,,,,1,,,45,0
101280,note_on,0,0,2,,,,,,,,,1,,,46,37
101520,note_off,240,0,4,,,,,,,,,3,,,31,0
101520,note_off,720,0,1,,,,,,,,,0,,,53,0
101520,note_off,240,0,2,,,,,,,,,1,,,46,0
101520,note_off,720,0,3,,,,,,,,,2,,,41,0
101520,set_tempo,720,1,0,,,,,,550458,,,,,,,
101760,note_on,240,0,1,,,,,,,,,0,,,60,40
101760,set_tempo,240,1,0,,,,,,540540,,,,,,,
102120,note_on,0,0,1,,,,,,,,,0,,,64,43
102120,note_off,360,0,1,,,,,,,,,0,,,60,0
102240,note_on,0,0,1,,,,,,,,,0,,,65,45
102240,note_on,720,0,4,,,,,,,,,3,,,45,45
102240,note_on,720,0,3,,,,,,,,,2,,,53,45
102240,note_on,720,0,2,,,,,,,,,1,,,60,45
102240,note_off,120,0,1,,,,,,,,,0,,,64,0
102720,note_off,480,0,2,,,,,,,,,1,,,60,0
102720,note_on,0,0,2,,,,,,,,,1,,,62,41
102720,note_on,0,0,4,,,,,,,,,3,,,46,41
102720,note_off,480,0,4,,,,,,,,,3,,,45,0
102960,note_off,720,0,3,,,,,,,,,2,,,53,0
102960,note_off,240,0,4,,,,,,,,,3,,,46,0
102960,note_off,240,0,2,,,,,,,,,1,,,62,0
102960,note_off,720,0,1,,,,,,,,,0,,,65,0
102960,set_tempo,1200,1,0,,,,,,550458,,,,,,,
103200,control_change,240,0,4,,,,,,,64,0,3,,,,
103200,control_change,240,0,2,,,,,,,64,0,1,,,,
103200,note_on,240,0,1,,,,,,,,,0,,,72,37
103200,control_change,240,0,3,,,,,,,64,0,2,,,,
103200,set_tempo,240,1,0,,,,,,540540,,,,,,,
103560,note_on,0,0,1,,,,,,,,,0,,,77,41
103560,note_off,360,0,1,,,,,,,,,0,,,72,0
103680,set_tempo,480,1,0,,,,,,540540,,,,,,,
103680,note_on,480,0,2,,,,,,,,,1,,,65,43
103680,note_on,480,0,4,,,,,,,,,3,,,60,43
103680,note_on,0,0,1,,,,,,,,,0,,,81,43
103680,note_off,120,0,1,,,,,,,,,0,,,77,0
104040,note_on,0,0,2,,,,,,,,,1,,,69,41
104040,note_off,360,0,2,,,,,,,,,1,,,65,0
104100,set_tempo,420,1,0,,,,,,550458,,,,,,,
104160,note_on,0,0,2,,,,,,,,,1,,,72,43
104160,note_off,120,0,2,,,,,,,,,1,,,69,0
104520,note_off,840,0,1,,,,,,,,,0,,,81,0
104520,note_on,0,0,2,,,,,,,,,1,,,69,40
104520,note_off,360,0,2,,,,,,,,,1,,,72,0
104520,note_on,0,0,1,,,,,,,,,0,,,77,40
104640,note_on,0,0,1,,,,,,,,,0,,,79,39
104640,note_off,120,0,1,,,,,,,,,0,,,77,0
104640,note_on,0,0,2,,,,,,,,,1,,,70,39
104640,note_off,120,0,2,,,,,,,,,1,,,69,0
104640,note_off,960,0,4,,,,,,,,,3,,,60,0
104640,note_on,0,0,4,,,,,,,,,3,,,60,39
105000,note_off,360,0,1,,,,,,,,,0,,,79,0
105000,note_off,360,0,2,,,,,,,,,1,,,70,0
105000,note_on,0,0,1,,,,,,,,,0,,,76,36
105000,note_on,0,0,2,,,,,,,,,1,,,67,36
105097,set_tempo,997,1,0,,,,,,560747,,,,,,,
105120,note_on,0,0,4,,,,,,,,,3,,,65,35
105120,note_off,480,0,4,,,,,,,,,3,,,60,0
105120,note_on,0,0,1,,,,,,,,,0,,,77,35
105120,note_off,120,0,1,,,,,,,,,0,,,76,0
105120,note_on,0,0,2,,,,,,,,,1,,,69,35
105120,note_off,120,0,2,,,,,,,,,1,,,67,0
105590,set_tempo,493,1,0,,,,,,571428,,,,,,,
105600,note_off,480,0,2,,,,,,,,,1,,,69,0
105600,note_off,480,0,4,,,,,,,,,3,,,65,0
105600,note_off,480,0,1,,,,,,,,,0,,,77,0
106020,set_tempo,430,1,0,,,,,,550458,,,,,,,
106040,note_on,440,0,1,,,,,,,,,0,,,50,36
106080,note_on,40,0,1,,,,,,,,,0,,,48,36
106080,set_tempo,60,1,0,,,,,,540540,,,,,,,
106100,note_off,20,0,1,,,,,,,,,0,,,50,0
106200,note_off,100,0,1,,,,,,,,,0,,,48,0
106200,note_on,0,0,1,,,,,,,,,0,,,47,36
106320,note_off,120,0,1,,,,,,,,,0,,,47,0
106320,note_on,0,0,1,,,,,,,,,0,,,48,37
106440,note_off,120,0,1,,,,,,,,,0,,,48,0
106440,note_on,0,0,1,,,,,,,,,0,,,52,37
106560,note_off,120,0,1,,,,,,,,,0,,,52,0
106560,note_on,960,0,4,,,,,,,,,3,,,29,40
106560,note_on,3360,0,3,,,,,,,,,2,,,41,40
106560,note_on,0,0,1,,,,,,,,,0,,,55,40
106800,note_off,240,0,1,,,,,,,,,0,,,55,0
106800,note_on,0,0,1,,,,,,,,,0,,,53,38
107040,note_off,480,0,4,,,,,,,,,3,,,29,0
107040,note_on,1440,0,2,,,,,,,,,1,,,45,36
107040,note_on,0,0,4,,,,,,,,,3,,,31,36
107280,note_on,0,0,2,,,,,,,,,1,,,46,34
107280,note_off,240,0,2,,,,,,,,,1,,,45,0
107280,note_off,240,0,4,,,,,,,,,3,,,31,0
107280,set_tempo,1200,1,0,,,,,,560747,,,,,,,
107280,note_off,720,0,3,,,,,,,,,2,,,41,0
107407,note_off,607,0,1,,,,,,,,,0,,,53,0
107407,note_off,127,0,2,,,,,,,,,1,,,46,0
107460,set_tempo,180,1,0,,,,,,550458,,,,,,,
107480,note_on,73,0,1,,,,,,,,,0,,,62,37
107520,note_on,40,0,1,,,,,,,,,0,,,60,38
107520,set_tempo,60,1,0,,,,,,540540,,,,,,,
107540,note_off,20,0,1,,,,,,,,,0,,,62,0
107640,note_on,0,0,1,,,,,,,,,0,,,59,39
107640,note_off,100,0,1,,,,,,,,,0,,,60,0
107760,note_on,0,0,1,,,,,,,,,0,,,60,41
107760,note_off,120,0,1,,,,,,,,,0,,,59,0
107880,note_on,0,0,1,,,,,,,,,0,,,64,43
107880,note_off,120,0,1,,,,,,,,,0,,,60,0
108000,note_on,720,0,3,,,,,,,,,2,,,53,46
108000,note_on,0,0,1,,,,,,,,,0,,,67,46
108000,note_off,120,0,1,,,,,,,,,0,,,64,0
108000,note_on,720,0,4,,,,,,,,,3,,,41,46
108240,note_on,0,0,1,,,,,,,,,0,,,65,44
108240,note_off,240,0,1,,,,,,,,,0,,,67,0
108480,note_on,0,0,4,,,,,,,,,3,,,43,42
108480,note_on,1073,0,2,,,,,,,,,1,,,61,42
108480,note_off,480,0,4,,,,,,,,,3,,,41,0
108720,note_off,240,0,2,,,,,,,,,1,,,61,0
108720,note_on,0,0,2,,,,,,,,,1,,,62,40
108720,note_off,720,0,3,,,,,,,,,2,,,53,0
108720,set_tempo,1200,1,0,,,,,,560747,,,,,,,
108720,note_off,240,0,4,,,,,,,,,3,,,43,0
108900,set_tempo,180,1,0,,,,,,550458,,,,,,,
108907,note_off,667,0,1,,,,,,,,,0,,,65,0
108907,note_off,187,0,2,,,,,,,,,1,,,62,0
108920,note_on,13,0,1,,,,,,,,,0,,,74,42
108960,set_tempo,60,1,0,,,,,,540540,,,,,,,
108960,note_on,40,0,1,,,,,,,,,0,,,72,42
108980,note_off,20,0,1,,,,,,,,,0,,,74,0
109080,note_off,100,0,1,,,,,,,,,0,,,72,0
109080,note_on,0,0,1,,,,,,,,,0,,,71,43
109200,note_off,120,0,1,,,,,,,,,0,,,71,0
109200,note_on,0,0,1,,,,,,,,,0,,,72,44
109320,note_off,120,0,1,,,,,,,,,0,,,72,0
109320,note_on,0,0,1,,,,,,,,,0,,,76,44
109320,set_tempo,360,1,0,,,,,,550458,,,,,,,
109380,set_tempo,60,1,0,,,,,,550458,,,,,,,
109400,note_on,493,0,2,,,,,,,,,1,,,67,45
109435,note_off,115,0,1,,,,,,,,,0,,,76,0
109440,set_tempo,60,1,0,,,,,,540540,,,,,,,
109440,note_on,5,0,1,,,,,,,,,0,,,81,45
109440,note_on,40,0,2,,,,,,,,,1,,,65,45
109440,note_on,720,0,4,,,,,,,,,3,,,60,45
109460,note_off,20,0,2,,,,,,,,,1,,,67,0
109560,note_on,0,0,2,,,,,,,,,1,,,64,46
109560,note_off,100,0,2,,,,,,,,,1,,,65,0
109680,note_off,120,0,2,,,,,,,,,1,,,64,0
109680,note_on,0,0,2,,,,,,,,,1,,,65,47
109800,note_off,120,0,2,,,,,,,,,1,,,65,0
109800,note_on,0,0,2,,,,,,,,,1,,,67,47
109860,set_tempo,420,1,0,,,,,,550458,,,,,,,
109920,note_off,120,0,2,,,,,,,,,1,,,67,0
109920,note_on,0,0,2,,,,,,,,,1,,,72,48
110040,note_on,600,0,1,,,,,,,,,0,,,80,47
110047,note_off,7,0,1,,,,,,,,,0,,,81,0
110160,note_on,0,0,1,,,,,,,,,0,,,81,46
110160,note_off,113,0,1,,,,,,,,,0,,,80,0
110280,note_off,120,0,1,,,,,,,,,0,,,81,0
110280,note_off,360,0,2,,,,,,,,,1,,,72,0
110280,note_on,0,0,2,,,,,,,,,1,,,69,44
110280,set_tempo,420,1,0,,,,,,560747,,,,,,,
110280,note_on,0,0,1,,,,,,,,,0,,,77,44
110340,note_on,60,0,1,,,,,,,,,0,,,81,44
110370,note_off,930,0,4,,,,,,,,,3,,,60,0
110385,note_off,105,0,2,,,,,,,,,1,,,69,0
110385,note_off,45,0,1,,,,,,,,,0,,,77,0
110400,note_on,15,0,2,,,,,,,,,1,,,70,43
110400,set_tempo,120,1,0,,,,,,550458,,,,,,,
110400,note_on,30,0,4,,,,,,,,,3,,,60,43
110400,note_on,15,0,1,,,,,,,,,0,,,79,43
110422,note_off,22,0,1,,,,,,,,,0,,,81,0
110520,note_on,0,0,1,,,,,,,,,0,,,78,42
110520,note_off,98,0,1,,,,,,,,,0,,,79,0
110640,note_off,120,0,1,,,,,,,,,0,,,78,0
110640,note_on,0,0,1,,,,,,,,,0,,,79,41
110760,note_on,0,0,2,,,,,,,,,1,,,67,39
110760,note_off,360,0,2,,,,,,,,,1,,,70,0
110760,note_off,120,0,1,,,,,,,,,0,,,79,0
110760,note_on,0,0,1,,,,,,,,,0,,,76,39
110820,set_tempo,420,1,0,,,,,,560747,,,,,,,
110880,note_off,480,0,4,,,,,,,,,3,,,60,0
110880,note_on,0,0,1,,,,,,,,,0,,,77,38
110880,note_off,120,0,1,,,,,,,,,0,,,76,0
110880,note_on,0,0,4,,,,,,,,,3,,,65,38
110880,note_off,120,0,2,,,,,,,,,1,,,67,0
110880,note_on,0,0,2,,,,,,,,,1,,,69,38
111360,note_off,480,0,4,,,,,,,,,3,,,65,0
111360,note_off,480,0,2,,,,,,,,,1,,,69,0
111360,set_tempo,540,1,0,,,,,,571428,,,,,,,
111360,note_off,480,0,1,,,,,,,,,0,,,77,0
111840,set_tempo,480,1,0,,,,,,540540,,,,,,,
111840,note_on,480,0,1,,,,,,,,,0,,,53,38
112200,note_on,0,0,1,,,,,,,,,0,,,57,42
112200,note_off,360,0,1,,,,,,,,,0,,,53,0
112320,note_off,120,0,1,,,,,,,,,0,,,57,0
112320,note_on,960,0,4,,,,,,,,,3,,,41,45
112320,note_on,0,0,1,,,,,,,,,0,,,61,45
112740,set_tempo,900,1,0,,,,,,550458,,,,,,,
112800,note_on,4080,0,3,,,,,,,,,2,,,46,44
112800,note_off,480,0,1,,,,,,,,,0,,,61,0
112800,note_on,0,0,1,,,,,,,,,0,,,62,44
113280,note_off,480,0,3,,,,,,,,,2,,,46,0
113280,note_on,960,0,4,,,,,,,,,3,,,43,46
113280,note_on,0,0,3,,,,,,,,,2,,,52,46
113287,note_off,7,0,4,,,,,,,,,3,,,41,0
113640,note_off,840,0,1,,,,,,,,,0,,,62,0
113640,note_on,0,0,1,,,,,,,,,0,,,59,47
113700,set_tempo,960,1,0,,,,,,560747,,,,,,,
113760,note_on,120,0,1,,,,,,,,,0,,,60,45
113760,note_off,473,0,4,,,,,,,,,3,,,43,0
113760,note_off,480,0,3,,,,,,,,,2,,,52,0
113760,note_on,0,0,3,,,,,,,,,2,,,45,45
113760,note_on,0,0,4,,,,,,,,,3,,,41,45
113767,note_off,7,0,1,,,,,,,,,0,,,59,0
114120,note_on,353,0,1,,,,,,,,,0,,,57,42
114142,note_off,22,0,1,,,,,,,,,0,,,60,0
114240,note_on,480,0,3,,,,,,,,,2,,,48,41
114240,note_on,0,0,1,,,,,,,,,0,,,53,41
114240,note_off,98,0,1,,,,,,,,,0,,,57,0
114480,note_off,720,0,4,,,,,,,,,3,,,41,0
114480,note_off,240,0,3,,,,,,,,,2,,,48,0
114480,note_off,0,0,3,,,,,,,,,2,,,45,0
114480,set_tempo,780,1,0,,,,,,571428,,,,,,,
114480,note_off,240,0,1,,,,,,,,,0,,,53,0
114720,note_on,240,0,1,,,,,,,,,0,,,65,40
114720,set_tempo,240,1,0,,,,,,540540,,,,,,,
115080,note_off,360,0,1,,,,,,,,,0,,,65,0
115080,note_on,0,0,1,,,,,,,,,0,,,69,43
115200,note_on,720,0,4,,,,,,,,,3,,,53,44
115200,note_off,120,0,1,,,,,,,,,0,,,69,0
115200,note_on,0,0,1,,,,,,,,,0,,,73,44
115620,set_tempo,900,1,0,,,,,,550458,,,,,,,
115680,note_on,1200,0,3,,,,,,,,,2,,,58,46
115680,note_off,480,0,1,,,,,,,,,0,,,73,0
115680,note_on,0,0,1,,,,,,,,,0,,,74,46
116160,note_on,0,0,3,,,,,,,,,2,,,64,48
116160,note_off,480,0,3,,,,,,,,,2,,,58,0
116160,note_on,960,0,4,,,,,,,,,3,,,55,48
116167,note_off,7,0,4,,,,,,,,,3,,,53,0
116520,note_off,840,0,1,,,,,,,,,0,,,74,0
116520,note_on,0,0,1,,,,,,,,,0,,,71,49
116580,set_tempo,960,1,0,,,,,,560747,,,,,,,
116640,note_on,0,0,3,,,,,,,,,2,,,57,47
116640,note_off,480,0,3,,,,,,,,,2,,,64,0
116640,note_on,120,0,1,,,,,,,,,0,,,72,47
116640,note_on,0,0,4,,,,,,,,,3,,,53,47
116640,note_off,473,0,4,,,,,,,,,3,,,55,0
116647,note_off,7,0,1,,,,,,,,,0,,,71,0
117000,note_on,353,0,1,,,,,,,,,0,,,69,43
117022,note_off,22,0,1,,,,,,,,,0,,,72,0
117120,note_on,480,0,3,,,,,,,,,2,,,60,42
117120,note_on,0,0,1,,,,,,,,,0,,,65,42
117120,note_off,98,0,1,,,,,,,,,0,,,69,0
117360,note_off,720,0,4,,,,,,,,,3,,,53,0
117360,note_off,0,0,3,,,,,,,,,2,,,57,0
117360,note_off,240,0,3,,,,,,,,,2,,,60,0
117360,note_off,240,0,1,,,,,,,,,0,,,65,0
117360,set_tempo,780,1,0,,,,,,571428,,,,,,,
117600,set_tempo,240,1,0,,,,,,550458,,,,,,,
117600,note_on,240,0,1,,,,,,,,,0,,,77,47
117960,note_off,360,0,1,,,,,,,,,0,,,77,0
117960,note_on,0,0,1,,,,,,,,,0,,,81,48
118080,note_off,120,0,1,,,,,,,,,0,,,81,0
118080,note_on,0,0,1,,,,,,,,,0,,,85,51
118440,set_tempo,840,1,0,,,,,,560747,,,,,,,
118560,note_off,480,0,1,,,,,,,,,0,,,85,0
118560,note_on,1200,0,4,,,,,,,,,3,,,65,49
118560,note_on,0,0,1,,,,,,,,,0,,,86,49
118560,note_on,7200,0,2,,,,,,,,,1,,,74,49
118560,note_on,0,0,2,,,,,,,,,1,,,70,49
119385,note_off,825,0,4,,,,,,,,,3,,,65,0
119400,note_off,840,0,2,,,,,,,,,1,,,74,0
119400,note_on,0,0,2,,,,,,,,,1,,,74,50
119400,note_on,0,0,2,,,,,,,,,1,,,67,50
119400,note_on,15,0,4,,,,,,,,,3,,,65,50
119400,note_off,840,0,1,,,,,,,,,0,,,86,0
119400,note_on,0,0,1,,,,,,,,,0,,,83,50
119407,note_off,7,0,2,,,,,,,,,1,,,70,0
119520,set_tempo,1080,1,0,,,,,,550458,,,,,,,
119520,note_off,120,0,1,,,,,,,,,0,,,83,0
119520,note_on,0,0,1,,,,,,,,,0,,,84,50
119520,note_off,120,0,4,,,,,,,,,3,,,65,0
119520,note_on,0,0,4,,,,,,,,,3,,,64,50
119520,note_off,0,0,2,,,,,,,,,1,,,74,0
119520,note_off,113,0,2,,,,,,,,,1,,,67,0
119520,note_on,0,0,2,,,,,,,,,1,,,67,50
119520,note_on,0,0,2,,,,,,,,,1,,,72,50
119880,note_off,360,0,1,,,,,,,,,0,,,84,0
119880,note_on,0,0,4,,,,,,,,,3,,,65,51
119880,note_off,360,0,4,,,,,,,,,3,,,64,0
119880,note_on,0,0,2,,,,,,,,,1,,,72,51
119880,note_on,0,0,2,,,,,,,,,1,,,69,51
119880,note_on,0,0,1,,,,,,,,,0,,,81,51
119880,note_off,0,0,2,,,,,,,,,1,,,72,0
119880,note_off,360,0,2,,,,,,,,,1,,,67,0
119940,set_tempo,420,1,0,,,,,,560747,,,,,,,
120000,note_on,0,0,4,,,,,,,,,3,,,62,51
120000,note_off,120,0,4,,,,,,,,,3,,,65,0
120000,note_off,0,0,2,,,,,,,,,1,,,69,0
120000,note_off,120,0,1,,,,,,,,,0,,,81,0
120000,note_off,120,0,2,,,,,,,,,1,,,72,0
120000,note_on,0,0,1,,,,,,,,,0,,,82,51
120000,note_on,0,0,2,,,,,,,,,1,,,70,51
120000,note_on,0,0,2,,,,,,,,,1,,,65,51
120480,note_off,480,0,4,,,,,,,,,3,,,62,0
120480,note_off,480,0,2,,,,,,,,,1,,,65,0
120480,note_on,0,0,4,,,,,,,,,3,,,64,51
120480,note_on,0,0,2,,,,,,,,,1,,,67,51
120832,note_off,352,0,2,,,,,,,,,1,,,70,0
120840,note_on,0,0,4,,,,,,,,,3,,,62,52
120840,note_on,0,0,2,,,,,,,,,1,,,65,52
120840,note_off,360,0,4,,,,,,,,,3,,,64,0
120840,note_off,840,0,1,,,,,,,,,0,,,82,0
120840,note_on,0,0,1,,,,,,,,,0,,,79,52
120840,note_off,8,0,2,,,,,,,,,1,,,67,0
120840,note_on,0,0,2,,,,,,,,,1,,,70,52
120960,note_off,120,0,1,,,,,,,,,0,,,79,0
120960,note_on,0,0,1,,,,,,,,,0,,,81,52
120960,note_on,0,0,4,,,,,,,,,3,,,61,52
120960,note_off,120,0,4,,,,,,,,,3,,,62,0
120960,note_off,120,0,2,,,,,,,,,1,,,65,0
120960,note_off,0,0,2,,,,,,,,,1,,,70,0
120960,note_on,0,0,2,,,,,,,,,1,,,69,52
120960,note_on,0,0,2,,,,,,,,,1,,,64,52
120960,set_tempo,1020,1,0,,,,,,550458,,,,,,,
121320,note_on,0,0,1,,,,,,,,,0,,,77,53
121320,note_off,360,0,1,,,,,,,,,0,,,81,0
121320,note_off,360,0,4,,,,,,,,,3,,,61,0
121320,note_off,0,0,2,,,,,,,,,1,,,69,0
121320,note_on,0,0,2,,,,,,,,,1,,,65,53
121320,note_on,0,0,2,,,,,,,,,1,,,69,53
121320,note_off,360,0,2,,,,,,,,,1,,,64,0
121320,note_on,0,0,2,,,,,,,,,1,,,62,53
121380,set_tempo,420,1,0,,,,,,560747,,,,,,,
121440,note_on,0,0,1,,,,,,,,,0,,,79,55
121440,note_off,120,0,1,,,,,,,,,0,,,77,0
121440,note_on,0,0,2,,,,,,,,,1,,,62,55
121440,note_off,0,0,2,,,,,,,,,1,,,65,0
121440,note_on,0,0,2,,,,,,,,,1,,,67,55
121440,note_off,0,0,2,,,,,,,,,1,,,62,0
121440,note_off,120,0,2,,,,,,,,,1,,,69,0
121440,note_on,120,0,4,,,,,,,,,3,,,58,55
121920,note_off,480,0,2,,,,,,,,,1,,,62,0
121920,note_off,0,0,2,,,,,,,,,1,,,67,0
121920,note_on,0,0,2,,,,,,,,,1,,,70,51
121920,note_on,0,0,2,,,,,,,,,1,,,62,51
122280,note_on,0,0,2,,,,,,,,,1,,,67,49
122280,note_off,360,0,2,,,,,,,,,1,,,62,0
122280,note_on,840,0,1,,,,,,,,,0,,,74,49
122295,note_off,15,0,1,,,,,,,,,0,,,79,0
122340,set_tempo,960,1,0,,,,,,571428,,,,,,,
122400,note_on,0,0,4,,,,,,,,,3,,,60,47
122400,note_on,0,0,1,,,,,,,,,0,,,76,47
122400,note_off,105,0,1,,,,,,,,,0,,,74,0
122400,note_off,960,0,4,,,,,,,,,3,,,58,0
122400,note_on,0,0,2,,,,,,,,,1,,,67,47
122400,note_off,0,0,2,,,,,,,,,1,,,70,0
122400,note_off,120,0,2,,,,,,,,,1,,,67,0
122400,note_on,0,0,2,,,,,,,,,1,,,70,47
122520,note_off,120,0,1,,,,,,,,,0,,,76,0
122520,note_on,0,0,1,,,,,,,,,0,,,77,45
122560,note_on,0,0,1,,,,,,,,,0,,,76,44
122560,note_off,40,0,1,,,,,,,,,0,,,77,0
122600,note_off,40,0,1,,,,,,,,,0,,,76,0
122600,note_on,0,0,1,,,,,,,,,0,,,74,43
122640,note_on,0,0,1,,,,,,,,,0,,,76,43
122640,note_off,40,0,1,,,,,,,,,0,,,74,0
122760,note_off,120,0,1,,,,,,,,,0,,,76,0
122760,note_on,0,0,1,,,,,,,,,0,,,79,41
122760,note_on,0,0,2,,,,,,,,,1,,,64,41
122760,note_off,360,0,2,,,,,,,,,1,,,67,0
122880,note_on,0,0,4,,,,,,,,,3,,,53,39
122880,note_off,480,0,4,,,,,,,,,3,,,60,0
122880,note_off,120,0,2,,,,,,,,,1,,,64,0
122880,note_off,120,0,1,,,,,,,,,0,,,79,0
122880,note_off,0,0,2,,,,,,,,,1,,,70,0
122880,note_on,0,0,2,,,,,,,,,1,,,69,39
122880,note_on,0,0,2,,,,,,,,,1,,,65,39
122880,note_on,0,0,1,,,,,,,,,0,,,77,39
122895,set_tempo,555,1,0,,,,,,600000,,,,,,,
123120,note_off,240,0,1,,,,,,,,,0,,,77,0
123120,note_off,240,0,4,,,,,,,,,3,,,53,0
123120,note_off,240,0,2,,,,,,,,,1,,,65,0
123120,note_off,0,0,2,,,,,,,,,1,,,69,0
123300,set_tempo,405,1,0,,,,,,550458,,,,,,,
123320,note_on,200,0,1,,,,,,,,,0,,,55,34
123360,set_tempo,60,1,0,,,,,,540540,,,,,,,
123360,note_on,40,0,1,,,,,,,,,0,,,53,34
123380,note_off,20,0,1,,,,,,,,,0,,,55,0
123480,note_off,100,0,1,,,,,,,,,0,,,53,0
123480,note_on,0,0,1,,,,,,,,,0,,,52,35
123600,note_on,0,0,1,,,,,,,,,0,,,53,36
123600,note_off,120,0,1,,,,,,,,,0,,,52,0
123720,note_off,120,0,1,,,,,,,,,0,,,53,0
123720,note_on,0,0,1,,,,,,,,,0,,,57,36
123840,note_off,120,0,1,,,,,,,,,0,,,57,0
123840,note_on,0,0,1,,,,,,,,,0,,,61,37
123840,note_on,720,0,4,,,,,,,,,3,,,41,37
124080,note_on,0,0,1,,,,,,,,,0,,,62,38
124080,note_off,240,0,1,,,,,,,,,0,,,61,0
124260,set_tempo,900,1,0,,,,,,550458,,,,,,,
124320,note_on,6960,0,3,,,,,,,,,2,,,46,39
124560,note_on,0,0,1,,,,,,,,,0,,,62,40
124560,note_off,480,0,1,,,,,,,,,0,,,62,0
124800,note_off,960,0,4,,,,,,,,,3,,,41,0
124800,note_off,480,0,3,,,,,,,,,2,,,46,0
124800,note_on,0,0,3,,,,,,,,,2,,,52,42
124800,note_on,0,0,4,,,,,,,,,3,,,43,42
124920,note_off,360,0,1,,,,,,,,,0,,,62,0
124920,note_on,0,0,1,,,,,,,,,0,,,61,42
125040,note_on,0,0,1,,,,,,,,,0,,,62,43
125040,note_off,120,0,1,,,,,,,,,0,,,61,0
125160,note_off,120,0,1,,,,,,,,,0,,,62,0
125160,note_on,0,0,1,,,,,,,,,0,,,59,43
125160,set_tempo,900,1,0,,,,,,560747,,,,,,,
125220,set_tempo,60,1,0,,,,,,560747,,,,,,,
125240,note_on,80,0,1,,,,,,,,,0,,,62,43
125280,note_off,480,0,4,,,,,,,,,3,,,43,0
125280,note_on,0,0,4,,,,,,,,,3,,,41,43
125280,note_off,40,0,1,,,,,,,,,0,,,59,0
125280,note_on,0,0,1,,,,,,,,,0,,,60,43
125280,note_on,0,0,3,,,,,,,,,2,,,45,43
125280,note_off,480,0,3,,,,,,,,,2,,,52,0
125300,note_off,20,0,1,,,,,,,,,0,,,62,0
125400,note_off,100,0,1,,,,,,,,,0,,,60,0
125400,note_on,0,0,1,,,,,,,,,0,,,59,41
125520,note_off,120,0,1,,,,,,,,,0,,,59,0
125520,note_on,0,0,1,,,,,,,,,0,,,60,40
125640,note_off,120,0,1,,,,,,,,,0,,,60,0
125640,note_on,0,0,1,,,,,,,,,0,,,57,39
125760,note_off,120,0,1,,,,,,,,,0,,,57,0
125760,note_on,0,0,1,,,,,,,,,0,,,53,38
125760,note_on,480,0,3,,,,,,,,,2,,,48,38
125880,note_off,120,0,1,,,,,,,,,0,,,53,0
125880,note_on,0,0,1,,,,,,,,,0,,,64,36
125995,note_off,235,0,3,,,,,,,,,2,,,45,0
126000,note_off,720,0,4,,,,,,,,,3,,,41,0
126000,note_off,120,0,1,,,,,,,,,0,,,64,0
126000,note_on,0,0,1,,,,,,,,,0,,,65,36
126000,note_off,5,0,3,,,,,,,,,2,,,48,0
126000,set_tempo,780,1,0,,,,,,571428,,,,,,,
126120,note_off,120,0,1,,,,,,,,,0,,,65,0
126120,note_on,0,0,1,,,,,,,,,0,,,64,37
126180,set_tempo,180,1,0,,,,,,571428,,,,,,,
126185,note_off,65,0,1,,,,,,,,,0,,,64,0
126200,note_on,15,0,1,,,,,,,,,0,,,69,37
126240,note_on,40,0,1,,,,,,,,,0,,,65,38
126240,set_tempo,60,1,0,,,,,,540540,,,,,,,
126260,note_off,20,0,1,,,,,,,,,0,,,69,0
126360,note_off,100,0,1,,,,,,,,,0,,,65,0
126360,note_on,0,0,1,,,,,,,,,0,,,64,38
126480,note_off,120,0,1,,,,,,,,,0,,,64,0
126480,note_on,0,0,1,,,,,,,,,0,,,65,39
126600,note_off,120,0,1,,,,,,,,,0,,,65,0
126600,note_on,0,0,1,,,,,,,,,0,,,69,40
126720,note_on,720,0,4,,,,,,,,,3,,,53,41
126720,note_on,0,0,1,,,,,,,,,0,,,73,41
126720,note_off,120,0,1,,,,,,,,,0,,,69,0
126840,note_off,120,0,1,,,,,,,,,0,,,73,0
126840,note_on,0,0,1,,,,,,,,,0,,,74,42
127080,note_off,240,0,1,,,,,,,,,0,,,74,0
127080,note_on,0,0,1,,,,,,,,,0,,,74,43
127140,set_tempo,900,1,0,,,,,,550458,,,,,,,
127200,note_on,1200,0,3,,,,,,,,,2,,,58,44
127320,note_on,0,0,1,,,,,,,,,0,,,74,45
127320,note_off,240,0,1,,,,,,,,,0,,,74,0
127560,note_off,240,0,1,,,,,,,,,0,,,74,0
127560,note_on,0,0,1,,,,,,,,,0,,,74,46
127680,note_on,0,0,4,,,,,,,,,3,,,55,47
127680,note_off,960,0,4,,,,,,,,,3,,,53,0
127680,note_off,480,0,3,,,,,,,,,2,,,58,0
127680,note_on,0,0,3,,,,,,,,,2,,,64,47
127800,note_on,0,0,1,,,,,,,,,0,,,73,48
127800,note_off,240,0,1,,,,,,,,,0,,,74,0
127920,note_on,0,0,1,,,,,,,,,0,,,74,49
127920,note_off,120,0,1,,,,,,,,,0,,,73,0
128040,note_on,0,0,1,,,,,,,,,0,,,71,49
128040,note_off,120,0,1,,,,,,,,,0,,,74,0
128040,set_tempo,900,1,0,,,,,,560747,,,,,,,
128100,set_tempo,60,1,0,,,,,,560747,,,,,,,
128120,note_on,80,0,1,,,,,,,,,0,,,74,47
128125,note_off,5,0,1,,,,,,,,,0,,,71,0
128160,note_off,480,0,3,,,,,,,,,2,,,64,0
128160,note_on,35,0,1,,,,,,,,,0,,,72,47
128160,note_on,0,0,3,,,,,,,,,2,,,57,47
128160,note_on,0,0,4,,,,,,,,,3,,,53,47
128160,note_off,480,0,4,,,,,,,,,3,,,55,0
128180,note_off,20,0,1,,,,,,,,,0,,,74,0
128280,note_off,100,0,1,,,,,,,,,0,,,72,0
128280,note_on,0,0,1,,,,,,,,,0,,,71,46
128400,note_off,120,0,1,,,,,,,,,0,,,71,0
128400,note_on,0,0,1,,,,,,,,,0,,,72,45
128520,note_off,120,0,1,,,,,,,,,0,,,72,0
128520,note_on,0,0,1,,,,,,,,,0,,,69,44
128640,note_on,0,0,1,,,,,,,,,0,,,65,43
128640,set_tempo,540,1,0,,,,,,571428,,,,,,,
128640,note_on,480,0,3,,,,,,,,,2,,,60,43
128640,note_off,120,0,1,,,,,,,,,0,,,69,0
128760,note_off,120,0,1,,,,,,,,,0,,,65,0
128760,note_on,0,0,1,,,,,,,,,0,,,76,40
128870,note_off,230,0,3,,,,,,,,,2,,,57,0
128880,set_tempo,240,1,0,,,,,,582524,,,,,,,
128880,note_off,10,0,3,,,,,,,,,2,,,60,0
128880,note_off,720,0,4,,,,,,,,,3,,,53,0
128880,note_off,120,0,1,,,,,,,,,0,,,76,0
128880,note_on,0,0,1,,,,,,,,,0,,,77,40
129000,note_on,0,0,1,,,,,,,,,0,,,76,41
129000,note_off,120,0,1,,,,,,,,,0,,,77,0
129000,set_tempo,120,1,0,,,,,,560747,,,,,,,
129080,note_on,80,0,1,,,,,,,,,0,,,79,41
129085,note_off,5,0,1,,,,,,,,,0,,,76,0
129120,note_on,35,0,1,,,,,,,,,0,,,77,41
129120,set_tempo,120,1,0,,,,,,550458,,,,,,,
129140,note_off,20,0,1,,,,,,,,,0,,,79,0
129240,note_on,0,0,1,,,,,,,,,0,,,76,41
129240,note_off,100,0,1,,,,,,,,,0,,,77,0
129360,note_on,0,0,1,,,,,,,,,0,,,77,42
129360,note_off,120,0,1,,,,,,,,,0,,,76,0
129480,note_off,120,0,1,,,,,,,,,0,,,77,0
129480,note_on,0,0,1,,,,,,,,,0,,,81,42
129600,note_on,0,0,1,,,,,,,,,0,,,85,43
129600,note_off,120,0,1,,,,,,,,,0,,,81,0
129720,note_on,0,0,1,,,,,,,,,0,,,86,43
129720,note_off,120,0,1,,,,,,,,,0,,,85,0
129960,note_off,240,0,1,,,,,,,,,0,,,86,0
129960,set_tempo,840,1,0,,,,,,560747,,,,,,,
129960,note_on,0,0,1,,,,,,,,,0,,,86,44
130080,note_on,0,0,2,,,,,,,,,1,,,70,45
130080,note_on,1200,0,4,,,,,,,,,3,,,65,45
130080,note_on,6960,0,2,,,,,,,,,1,,,74,45
130200,note_off,240,0,1,,,,,,,,,0,,,86,0
130200,note_on,0,0,1,,,,,,,,,0,,,86,45
130440,note_off,240,0,1,,,,,,,,,0,,,86,0
130440,note_on,0,0,1,,,,,,,,,0,,,86,46
130520,note_on,80,0,1,,,,,,,,,0,,,87,46
130525,note_off,5,0,1,,,,,,,,,0,,,86,0
130560,note_on,0,0,4,,,,,,,,,3,,,67,46
130560,note_off,480,0,4,,,,,,,,,3,,,65,0
130560,note_on,35,0,1,,,,,,,,,0,,,86,46
130580,note_off,20,0,1,,,,,,,,,0,,,87,0
130680,note_on,0,0,1,,,,,,,,,0,,,85,47
130680,note_off,100,0,1,,,,,,,,,0,,,86,0
130800,note_on,0,0,1,,,,,,,,,0,,,86,47
130800,note_off,120,0,1,,,,,,,,,0,,,85,0
130915,note_off,355,0,4,,,,,,,,,3,,,67,0
130920,set_tempo,960,1,0,,,,,,571428,,,,,,,
130920,note_off,120,0,1,,,,,,,,,0,,,86,0
130920,note_on,5,0,4,,,,,,,,,3,,,65,48
130920,note_on,0,0,2,,,,,,,,,1,,,67,48
130920,note_off,840,0,2,,,,,,,,,1,,,70,0
130920,note_on,0,0,1,,,,,,,,,0,,,83,48
130980,set_tempo,60,1,0,,,,,,560747,,,,,,,
131000,note_on,80,0,1,,,,,,,,,0,,,86,48
131010,note_off,10,0,1,,,,,,,,,0,,,83,0
131040,note_on,30,0,1,,,,,,,,,0,,,84,48
131040,note_on,0,0,2,,,,,,,,,1,,,67,48
131040,note_off,120,0,2,,,,,,,,,1,,,67,0
131040,note_off,0,0,2,,,,,,,,,1,,,74,0
131040,note_on,0,0,4,,,,,,,,,3,,,64,48
131040,note_off,120,0,4,,,,,,,,,3,,,65,0
131040,set_tempo,60,1,0,,,,,,550458,,,,,,,
131040,note_on,0,0,2,,,,,,,,,1,,,72,48
131060,note_off,20,0,1,,,,,,,,,0,,,86,0
131160,note_off,100,0,1,,,,,,,,,0,,,84,0
131160,note_on,0,0,1,,,,,,,,,0,,,83,49
131280,note_off,120,0,1,,,,,,,,,0,,,83,0
131280,note_on,0,0,1,,,,,,,,,0,,,84,49
131360,note_off,320,0,2,,,,,,,,,1,,,72,0
131400,note_off,120,0,1,,,,,,,,,0,,,84,0
131400,note_on,0,0,1,,,,,,,,,0,,,81,50
131400,note_off,40,0,2,,,,,,,,,1,,,67,0
131400,note_on,0,0,2,,,,,,,,,1,,,69,50
131400,note_off,360,0,4,,,,,,,,,3,,,64,0
131400,note_on,0,0,4,,,,,,,,,3,,,65,50
131460,set_tempo,420,1,0,,,,,,560747,,,,,,,
131520,note_on,0,0,1,,,,,,,,,0,,,82,50
131520,note_off,120,0,1,,,,,,,,,0,,,81,0
131520,note_off,120,0,4,,,,,,,,,3,,,65,0
131520,note_on,0,0,4,,,,,,,,,3,,,62,50
131520,note_on,0,0,2,,,,,,,,,1,,,65,50
131520,note_off,120,0,2,,,,,,,,,1,,,69,0
131520,note_on,0,0,2,,,,,,,,,1,,,70,50
131640,note_on,0,0,1,,,,,,,,,0,,,82,50
131640,note_off,120,0,1,,,,,,,,,0,,,82,0
131880,set_tempo,420,1,0,,,,,,571428,,,,,,,
131880,note_off,240,0,1,,,,,,,,,0,,,82,0
131880,note_on,0,0,1,,,,,,,,,0,,,82,51
131960,note_on,80,0,1,,,,,,,,,0,,,84,52
131975,note_off,15,0,1,,,,,,,,,0,,,82,0
132000,note_on,25,0,1,,,,,,,,,0,,,82,52
132000,note_off,480,0,2,,,,,,,,,1,,,65,0
132000,note_on,0,0,2,,,,,,,,,1,,,67,52
132000,note_on,0,0,4,,,,,,,,,3,,,64,52
132000,note_off,480,0,4,,,,,,,,,3,,,62,0
132000,set_tempo,120,1,0,,,,,,560747,,,,,,,
132020,note_off,20,0,1,,,,,,,,,0,,,84,0
132120,note_on,0,0,1,,,,,,,,,0,,,81,52
132120,note_off,100,0,1,,,,,,,,,0,,,82,0
132240,note_on,0,0,1,,,,,,,,,0,,,82,53
132240,note_off,120,0,1,,,,,,,,,0,,,81,0
132360,note_off,360,0,4,,,,,,,,,3,,,64,0
132360,note_on,0,0,2,,,,,,,,,1,,,65,53
132360,note_off,360,0,2,,,,,,,,,1,,,67,0
132360,note_on,0,0,4,,,,,,,,,3,,,62,53
132360,set_tempo,360,1,0,,,,,,571428,,,,,,,
132360,note_on,0,0,1,,,,,,,,,0,,,80,53
132360,note_off,120,0,1,,,,,,,,,0,,,82,0
132420,set_tempo,60,1,0,,,,,,560747,,,,,,,
132440,note_on,80,0,1,,,,,,,,,0,,,82,53
132455,note_off,15,0,1,,,,,,,,,0,,,80,0
132480,note_on,0,0,4,,,,,,,,,3,,,61,54
132480,note_off,120,0,4,,,,,,,,,3,,,62,0
132480,note_on,25,0,1,,,,,,,,,0,,,81,54
132480,set_tempo,60,1,0,,,,,,550458,,,,,,,
132480,note_on,0,0,2,,,,,,,,,1,,,64,54
132480,note_on,0,0,2,,,,,,,,,1,,,69,54
132480,note_off,0,0,2,,,,,,,,,1,,,70,0
132480,note_off,120,0,2,,,,,,,,,1,,,65,0
132500,note_off,20,0,1,,,,,,,,,0,,,82,0
132600,note_on,0,0,1,,,,,,,,,0,,,80,54
132600,note_off,100,0,1,,,,,,,,,0,,,81,0
132720,note_on,0,0,1,,,,,,,,,0,,,81,55
132720,note_off,120,0,1,,,,,,,,,0,,,80,0
132840,note_off,120,0,1,,,,,,,,,0,,,81,0
132840,note_on,0,0,1,,,,,,,,,0,,,77,55
132840,note_off,360,0,2,,,,,,,,,1,,,64,0
132840,note_on,0,0,2,,,,,,,,,1,,,65,55
132840,note_on,0,0,2,,,,,,,,,1,,,62,55
132840,note_off,360,0,4,,,,,,,,,3,,,61,0
132900,set_tempo,420,1,0,,,,,,560747,,,,,,,
132960,note_on,0,0,2,,,,,,,,,1,,,67,55
132960,note_on,0,0,2,,,,,,,,,1,,,62,55
132960,note_off,0,0,2,,,,,,,,,1,,,69,0
132960,note_off,0,0,2,,,,,,,,,1,,,65,0
132960,note_off,120,0,2,,,,,,,,,1,,,62,0
132960,note_on,0,0,1,,,,,,,,,0,,,79,55
132960,note_off,120,0,1,,,,,,,,,0,,,77,0
132960,note_on,120,0,4,,,,,,,,,3,,,58,55
133080,note_on,0,0,1,,,,,,,,,0,,,79,59
133080,note_off,120,0,1,,,,,,,,,0,,,79,0
133320,set_tempo,420,1,0,,,,,,571428,,,,,,,
133320,note_off,240,0,1,,,,,,,,,0,,,79,0
133320,note_on,0,0,1,,,,,,,,,0,,,79,56
133400,note_on,80,0,1,,,,,,,,,0,,,81,55
133420,note_off,20,0,1,,,,,,,,,0,,,79,0
133440,note_on,0,0,2,,,,,,,,,1,,,62,54
133440,note_off,0,0,2,,,,,,,,,1,,,62,0
133440,note_off,480,0,2,,,,,,,,,1,,,67,0
133440,set_tempo,120,1,0,,,,,,560747,,,,,,,
133440,note_on,20,0,1,,,,,,,,,0,,,79,54
133460,note_off,20,0,1,,,,,,,,,0,,,81,0
133560,note_on,0,0,1,,,,,,,,,0,,,78,53
133560,note_off,100,0,1,,,,,,,,,0,,,79,0
133680,note_on,0,0,1,,,,,,,,,0,,,79,51
133680,note_off,120,0,1,,,,,,,,,0,,,78,0
133800,set_tempo,360,1,0,,,,,,571428,,,,,,,
133800,note_on,0,0,1,,,,,,,,,0,,,74,50
133800,note_off,120,0,1,,,,,,,,,0,,,79,0
133800,note_off,360,0,2,,,,,,,,,1,,,62,0
133800,note_on,0,0,2,,,,,,,,,1,,,67,50
133860,set_tempo,60,1,0,,,,,,571428,,,,,,,
133880,note_on,80,0,1,,,,,,,,,0,,,77,49
133895,note_off,15,0,1,,,,,,,,,0,,,74,0
133920,note_on,25,0,1,,,,,,,,,0,,,76,48
133920,note_on,0,0,4,,,,,,,,,3,,,60,48
133920,note_off,960,0,4,,,,,,,,,3,,,58,0
133920,note_off,120,0,2,,,,,,,,,1,,,67,0
133920,note_on,0,0,2,,,,,,,,,1,,,67,48
133940,note_off,20,0,1,,,,,,,,,0,,,77,0
134040,note_on,0,0,1,,,,,,,,,0,,,74,46
134040,note_off,100,0,1,,,,,,,,,0,,,76,0
134160,note_off,120,0,1,,,,,,,,,0,,,74,0
134160,note_on,0,0,1,,,,,,,,,0,,,76,45
134280,note_off,120,0,1,,,,,,,,,0,,,76,0
134280,note_on,0,0,2,,,,,,,,,1,,,64,43
134280,note_on,0,0,1,,,,,,,,,0,,,79,43
134280,note_off,360,0,2,,,,,,,,,1,,,67,0
134400,note_on,0,0,1,,,,,,,,,0,,,77,42
134400,note_on,0,0,2,,,,,,,,,1,,,53,42
134400,note_off,480,0,4,,,,,,,,,3,,,60,0
134400,note_on,0,0,2,,,,,,,,,1,,,69,42
134400,note_off,120,0,1,,,,,,,,,0,,,79,0
134400,note_on,0,0,4,,,,,,,,,3,,,41,42
134400,note_off,120,0,2,,,,,,,,,1,,,64,0
134550,set_tempo,690,1,0,,,,,,1071428,,,,,,,
134640,note_off,240,0,1,,,,,,,,,0,,,77,0
134640,note_off,0,0,2,,,,,,,,,1,,,69,0
134640,note_off,240,0,2,,,,,,,,,1,,,53,0
134640,note_off,240,0,4,,,,,,,,,3,,,41,0
134880,set_tempo,330,1,0,,,,,,508474,,,,,,,
134880,note_on,6000,0,3,,,,,,,,,2,,,48,70
134880,note_on,240,0,4,,,,,,,,,3,,,36,70
134984,note_off,104,0,3,,,,,,,,,2,,,48,0
134984,note_off,104,0,4,,,,,,,,,3,,,36,0
135040,set_tempo,160,1,0,,,,,,500000,,,,,,,
135040,note_on,56,0,3,,,,,,,,,2,,,60,69
135040,note_on,56,0,4,,,,,,,,,3,,,48,69
135144,note_off,104,0,4,,,,,,,,,3,,,48,0
135144,note_off,104,0,3,,,,,,,,,2,,,60,0
135200,note_on,56,0,4,,,,,,,,,3,,,47,68
135200,note_on,56,0,3,,,,,,,,,2,,,59,68
135304,note_off,104,0,4,,,,,,,,,3,,,47,0
135304,note_off,104,0,3,,,,,,,,,2,,,59,0
135360,note_on,56,0,4,,,,,,,,,3,,,48,67
135360,note_on,56,0,3,,,,,,,,,2,,,60,67
135464,note_off,104,0,3,,,,,,,,,2,,,60,0
135464,note_off,104,0,4,,,,,,,,,3,,,48,0
135520,note_on,56,0,4,,,,,,,,,3,,,46,67
135520,note_on,56,0,3,,,,,,,,,2,,,58,67
135624,note_off,104,0,3,,,,,,,,,2,,,58,0
135624,note_off,104,0,4,,,,,,,,,3,,,46,0
135680,note_on,56,0,3,,,,,,,,,2,,,57,66
135680,note_on,56,0,4,,,,,,,,,3,,,45,66
135784,note_off,104,0,3,,,,,,,,,2,,,57,0
135784,note_off,104,0,4,,,,,,,,,3,,,45,0
135840,note_on,56,0,3,,,,,,,,,2,,,55,65
135840,note_on,56,0,4,,,,,,,,,3,,,43,65
135944,note_off,104,0,3,,,,,,,,,2,,,55,0
135944,note_off,104,0,4,,,,,,,,,3,,,43,0
136000,note_on,56,0,4,,,,,,,,,3,,,45,64
136000,note_on,56,0,3,,,,,,,,,2,,,57,64
136104,note_off,104,0,4,,,,,,,,,3,,,45,0
136104,note_off,104,0,3,,,,,,,,,2,,,57,0
136160,note_on,56,0,3,,,,,,,,,2,,,58,63
136160,note_on,56,0,4,,,,,,,,,3,,,46,63
136264,note_off,104,0,3,,,,,,,,,2,,,58,0
136264,note_off,104,0,4,,,,,,,,,3,,,46,0
136320,note_on,1680,0,2,,,,,,,,,1,,,60,70
136320,set_tempo,1280,1,0,,,,,,508474,,,,,,,
136320,note_on,56,0,3,,,,,,,,,2,,,60,62
136320,note_on,0,0,3,,,,,,,,,2,,,57,62
136320,note_on,1680,0,1,,,,,,,,,0,,,72,70
136320,note_on,56,0,4,,,,,,,,,3,,,45,62
136424,note_off,104,0,1,,,,,,,,,0,,,72,0
136424,note_off,104,0,4,,,,,,,,,3,,,45,0
136424,note_off,0,0,3,,,,,,,,,2,,,60,0
136424,note_off,104,0,2,,,,,,,,,1,,,60,0
136424,note_off,104,0,3,,,,,,,,,2,,,57,0
136480,note_on,56,0,4,,,,,,,,,3,,,45,70
136480,set_tempo,160,1,0,,,,,,500000,,,,,,,
136480,note_on,56,0,3,,,,,,,,,2,,,57,70
136480,note_on,56,0,2,,,,,,,,,1,,,72,70
136480,note_on,56,0,1,,,,,,,,,0,,,84,70
136584,note_off,104,0,1,,,,,,,,,0,,,84,0
136584,note_off,104,0,4,,,,,,,,,3,,,45,0
136584,note_off,104,0,2,,,,,,,,,1,,,72,0
136584,note_off,104,0,3,,,,,,,,,2,,,57,0
136640,note_on,56,0,1,,,,,,,,,0,,,83,66
136640,note_on,56,0,3,,,,,,,,,2,,,56,66
136640,note_on,56,0,2,,,,,,,,,1,,,71,66
136640,note_on,56,0,4,,,,,,,,,3,,,44,66
136744,note_off,104,0,4,,,,,,,,,3,,,44,0
136744,note_off,104,0,1,,,,,,,,,0,,,83,0
136744,note_off,104,0,2,,,,,,,,,1,,,71,0
136744,note_off,104,0,3,,,,,,,,,2,,,56,0
136800,note_on,56,0,2,,,,,,,,,1,,,72,70
136800,note_on,56,0,4,,,,,,,,,3,,,45,70
136800,note_on,56,0,1,,,,,,,,,0,,,84,70
136800,note_on,56,0,3,,,,,,,,,2,,,57,70
136904,note_off,104,0,3,,,,,,,,,2,,,57,0
136904,note_off,104,0,4,,,,,,,,,3,,,45,0
136904,note_off,104,0,2,,,,,,,,,1,,,72,0
136904,note_off,104,0,1,,,,,,,,,0,,,84,0
136960,note_on,56,0,2,,,,,,,,,1,,,70,65
136960,note_on,56,0,3,,,,,,,,,2,,,58,65
136960,note_on,56,0,4,,,,,,,,,3,,,46,65
136960,note_on,56,0,1,,,,,,,,,0,,,82,65
137064,note_off,104,0,4,,,,,,,,,3,,,46,0
137064,note_off,104,0,3,,,,,,,,,2,,,58,0
137064,note_off,104,0,2,,,,,,,,,1,,,70,0
137064,note_off,104,0,1,,,,,,,,,0,,,82,0
137120,note_on,56,0,3,,,,,,,,,2,,,60,65
137120,note_on,56,0,2,,,,,,,,,1,,,69,65
137120,note_on,56,0,1,,,,,,,,,0,,,81,65
137120,note_on,56,0,4,,,,,,,,,3,,,48,65
137224,note_off,104,0,2,,,,,,,,,1,,,69,0
137224,note_off,104,0,3,,,,,,,,,2,,,60,0
137224,note_off,104,0,1,,,,,,,,,0,,,81,0
137224,note_off,104,0,4,,,,,,,,,3,,,48,0
137280,note_on,56,0,2,,,,,,,,,1,,,67,72
137280,note_on,56,0,3,,,,,,,,,2,,,58,72
137280,note_on,56,0,4,,,,,,,,,3,,,46,72
137280,note_on,56,0,1,,,,,,,,,0,,,79,72
137384,note_off,104,0,1,,,,,,,,,0,,,79,0
137384,note_off,104,0,4,,,,,,,,,3,,,46,0
137384,note_off,104,0,3,,,,,,,,,2,,,58,0
137384,note_off,104,0,2,,,,,,,,,1,,,67,0
137440,note_on,56,0,3,,,,,,,,,2,,,57,65
137440,note_on,56,0,2,,,,,,,,,1,,,69,65
137440,note_on,56,0,4,,,,,,,,,3,,,45,65
137440,note_on,56,0,1,,,,,,,,,0,,,81,65
137544,note_off,104,0,1,,,,,,,,,0,,,81,0
137544,note_off,104,0,4,,,,,,,,,3,,,45,0
137544,note_off,104,0,2,,,,,,,,,1,,,69,0
137544,note_off,104,0,3,,,,,,,,,2,,,57,0
137600,note_on,56,0,3,,,,,,,,,2,,,55,65
137600,note_on,56,0,2,,,,,,,,,1,,,70,65
137600,note_on,56,0,1,,,,,,,,,0,,,82,65
137600,note_on,56,0,4,,,,,,,,,3,,,43,65
137704,note_off,104,0,1,,,,,,,,,0,,,82,0
137704,note_off,104,0,2,,,,,,,,,1,,,70,0
137704,note_off,104,0,3,,,,,,,,,2,,,55,0
137704,note_off,104,0,4,,,,,,,,,3,,,43,0
137760,note_on,56,0,1,,,,,,,,,0,,,81,71
137760,note_on,56,0,4,,,,,,,,,3,,,41,71
137760,note_on,56,0,2,,,,,,,,,1,,,69,71
137760,note_on,56,0,3,,,,,,,,,2,,,53,71
137864,note_off,104,0,1,,,,,,,,,0,,,81,0
137864,note_off,104,0,3,,,,,,,,,2,,,53,0
137864,note_off,104,0,2,,,,,,,,,1,,,69,0
137864,note_off,104,0,4,,,,,,,,,3,,,41,0
137920,note_on,56,0,2,,,,,,,,,1,,,67,64
137920,note_on,56,0,3,,,,,,,,,2,,,55,64
137920,note_on,56,0,4,,,,,,,,,3,,,43,64
137920,note_on,56,0,1,,,,,,,,,0,,,79,64
138024,note_off,104,0,3,,,,,,,,,2,,,55,0
138024,note_off,104,0,4,,,,,,,,,3,,,43,0
138024,note_off,104,0,1,,,,,,,,,0,,,79,0
138024,note_off,104,0,2,,,,,,,,,1,,,67,0
138080,note_on,56,0,4,,,,,,,,,3,,,45,64
138080,note_on,56,0,3,,,,,,,,,2,,,57,64
138080,note_on,56,0,1,,,,,,,,,0,,,77,64
138080,note_on,56,0,2,,,,,,,,,1,,,65,64
138184,note_off,104,0,4,,,,,,,,,3,,,45,0
138184,note_off,104,0,2,,,,,,,,,1,,,65,0
138184,note_off,104,0,1,,,,,,,,,0,,,77,0
138184,note_off,104,0,3,,,,,,,,,2,,,57,0
138240,note_on,56,0,2,,,,,,,,,1,,,64,71
138240,note_on,56,0,3,,,,,,,,,2,,,55,71
138240,note_on,56,0,1,,,,,,,,,0,,,76,71
138240,note_on,56,0,4,,,,,,,,,3,,,43,71
138344,note_off,104,0,1,,,,,,,,,0,,,76,0
138344,note_off,104,0,4,,,,,,,,,3,,,43,0
138344,note_off,104,0,2,,,,,,,,,1,,,64,0
138344,note_off,104,0,3,,,,,,,,,2,,,55,0
138400,note_on,56,0,3,,,,,,,,,2,,,53,64
138400,note_on,56,0,1,,,,,,,,,0,,,77,64
138400,note_on,56,0,4,,,,,,,,,3,,,41,64
138400,note_on,56,0,2,,,,,,,,,1,,,65,64
138504,note_off,104,0,3,,,,,,,,,2,,,53,0
138504,note_off,104,0,4,,,,,,,,,3,,,41,0
138504,note_off,104,0,2,,,,,,,,,1,,,65,0
138504,note_off,104,0,1,,,,,,,,,0,,,77,0
138560,note_on,56,0,3,,,,,,,,,2,,,52,64
138560,note_on,56,0,4,,,,,,,,,3,,,40,64
138560,note_on,56,0,1,,,,,,,,,0,,,79,64
138560,note_on,56,0,2,,,,,,,,,1,,,67,64
138664,note_off,104,0,2,,,,,,,,,1,,,67,0
138664,note_off,104,0,4,,,,,,,,,3,,,40,0
138664,note_off,104,0,3,,,,,,,,,2,,,52,0
138664,note_off,104,0,1,,,,,,,,,0,,,79,0
138720,note_on,56,0,4,,,,,,,,,3,,,38,71
138720,note_on,56,0,1,,,,,,,,,0,,,77,71
138720,note_on,56,0,2,,,,,,,,,1,,,65,71
138720,note_on,56,0,3,,,,,,,,,2,,,50,71
138824,note_off,104,0,3,,,,,,,,,2,,,50,0
138824,note_off,104,0,1,,,,,,,,,0,,,77,0
138824,note_off,104,0,4,,,,,,,,,3,,,38,0
138824,note_off,104,0,2,,,,,,,,,1,,,65,0
138880,note_on,56,0,2,,,,,,,,,1,,,64,63
138880,note_on,56,0,4,,,,,,,,,3,,,40,63
138880,note_on,56,0,3,,,,,,,,,2,,,52,63
138880,note_on,56,0,1,,,,,,,,,0,,,76,63
138984,note_off,104,0,1,,,,,,,,,0,,,76,0
138984,note_off,104,0,3,,,,,,,,,2,,,52,0
138984,note_off,104,0,2,,,,,,,,,1,,,64,0
138984,note_off,104,0,4,,,,,,,,,3,,,40,0
139040,note_on,56,0,3,,,,,,,,,2,,,53,63
139040,note_on,56,0,4,,,,,,,,,3,,,41,63
139040,note_on,56,0,2,,,,,,,,,1,,,62,63
139040,note_on,56,0,1,,,,,,,,,0,,,74,63
139144,note_off,104,0,3,,,,,,,,,2,,,53,0
139144,note_off,104,0,1,,,,,,,,,0,,,74,0
139144,note_off,104,0,4,,,,,,,,,3,,,41,0
139144,note_off,104,0,2,,,,,,,,,1,,,62,0
139200,note_on,56,0,1,,,,,,,,,0,,,73,71
139200,note_on,56,0,3,,,,,,,,,2,,,52,71
139200,note_on,56,0,2,,,,,,,,,1,,,61,71
139200,note_on,56,0,4,,,,,,,,,3,,,40,71
139304,note_off,104,0,4,,,,,,,,,3,,,40,0
139304,note_off,104,0,1,,,,,,,,,0,,,73,0
139304,note_off,104,0,2,,,,,,,,,1,,,61,0
139304,note_off,104,0,3,,,,,,,,,2,,,52,0
139360,note_on,56,0,3,,,,,,,,,2,,,50,63
139360,note_on,56,0,4,,,,,,,,,3,,,38,63
139360,note_on,56,0,2,,,,,,,,,1,,,62,63
139360,note_on,56,0,1,,,,,,,,,0,,,74,63
139464,note_off,104,0,1,,,,,,,,,0,,,74,0
139464,note_off,104,0,4,,,,,,,,,3,,,38,0
139464,note_off,104,0,2,,,,,,,,,1,,,62,0
139464,note_off,104,0,3,,,,,,,,,2,,,50,0
139520,note_on,56,0,2,,,,,,,,,1,,,64,63
139520,note_on,56,0,4,,,,,,,,,3,,,36,63
139520,note_on,56,0,3,,,,,,,,,2,,,48,63
139520,note_on,56,0,1,,,,,,,,,0,,,76,63
139624,note_off,104,0,2,,,,,,,,,1,,,64,0
139624,note_off,104,0,1,,,,,,,,,0,,,76,0
139624,note_off,104,0,4,,,,,,,,,3,,,36,0
139624,note_off,104,0,3,,,,,,,,,2,,,48,0
139680,note_on,56,0,3,,,,,,,,,2,,,46,63
139680,note_on,56,0,2,,,,,,,,,1,,,62,63
139680,note_on,56,0,1,,,,,,,,,0,,,74,63
139680,note_on,56,0,4,,,,,,,,,3,,,34,63
139784,note_off,104,0,3,,,,,,,,,2,,,46,0
139784,note_off,104,0,2,,,,,,,,,1,,,62,0
139784,note_off,104,0,1,,,,,,,,,0,,,74,0
139784,note_off,104,0,4,,,,,,,,,3,,,34,0
139840,note_on,56,0,3,,,,,,,,,2,,,45,62
139840,note_on,56,0,2,,,,,,,,,1,,,60,62
139840,note_on,56,0,4,,,,,,,,,3,,,33,62
139840,note_on,56,0,1,,,,,,,,,0,,,72,62
139944,note_off,104,0,4,,,,,,,,,3,,,33,0
139944,note_off,104,0,3,,,,,,,,,2,,,45,0
139944,note_off,104,0,1,,,,,,,,,0,,,72,0
139944,note_off,104,0,2,,,,,,,,,1,,,60,0
140000,note_on,56,0,2,,,,,,,,,1,,,58,62
140000,note_on,56,0,1,,,,,,,,,0,,,70,62
140000,note_on,56,0,3,,,,,,,,,2,,,46,62
140000,note_on,56,0,4,,,,,,,,,3,,,34,62
140104,note_off,104,0,2,,,,,,,,,1,,,58,0
140104,note_off,104,0,3,,,,,,,,,2,,,46,0
140104,note_off,104,0,4,,,,,,,,,3,,,34,0
140104,note_off,104,0,1,,,,,,,,,0,,,70,0
140160,note_on,56,0,1,,,,,,,,,0,,,69,62
140160,note_on,56,0,3,,,,,,,,,2,,,47,62
140160,note_on,56,0,2,,,,,,,,,1,,,57,62
140160,note_on,56,0,4,,,,,,,,,3,,,35,62
140264,note_off,104,0,1,,,,,,,,,0,,,69,0
140264,note_off,104,0,3,,,,,,,,,2,,,47,0
140264,note_off,104,0,4,,,,,,,,,3,,,35,0
140264,note_off,104,0,2,,,,,,,,,1,,,57,0
140320,note_on,56,0,1,,,,,,,,,0,,,67,62
140320,note_on,56,0,4,,,,,,,,,3,,,33,62
140320,note_on,56,0,3,,,,,,,,,2,,,45,62
140320,note_on,56,0,2,,,,,,,,,1,,,55,62
140424,note_off,104,0,4,,,,,,,,,3,,,33,0
140424,note_off,104,0,3,,,,,,,,,2,,,45,0
140424,note_off,104,0,2,,,,,,,,,1,,,55,0
140424,note_off,104,0,1,,,,,,,,,0,,,67,0
140480,note_on,56,0,2,,,,,,,,,1,,,53,62
140480,note_on,56,0,1,,,,,,,,,0,,,65,62
140480,note_on,56,0,4,,,,,,,,,3,,,35,62
140480,note_on,56,0,3,,,,,,,,,2,,,47,62
140584,note_off,104,0,1,,,,,,,,,0,,,65,0
140584,note_off,104,0,2,,,,,,,,,1,,,53,0
140584,note_off,104,0,4,,,,,,,,,3,,,35,0
140584,note_off,104,0,3,,,,,,,,,2,,,47,0
140640,note_on,56,0,4,,,,,,,,,3,,,36,62
140640,note_on,56,0,1,,,,,,,,,0,,,64,62
140640,note_on,56,0,3,,,,,,,,,2,,,48,62
140640,note_on,56,0,2,,,,,,,,,1,,,52,62
140744,note_off,104,0,4,,,,,,,,,3,,,36,0
140744,note_off,104,0,1,,,,,,,,,0,,,64,0
140744,note_off,104,0,3,,,,,,,,,2,,,48,0
140744,note_off,104,0,2,,,,,,,,,1,,,52,0
140800,note_on,56,0,1,,,,,,,,,0,,,65,61
140800,note_on,56,0,2,,,,,,,,,1,,,53,61
140904,note_off,104,0,2,,,,,,,,,1,,,53,0
140904,note_off,104,0,1,,,,,,,,,0,,,65,0
140960,note_on,56,0,1,,,,,,,,,0,,,62,61
140960,note_on,56,0,2,,,,,,,,,1,,,50,61
141064,note_off,104,0,2,,,,,,,,,1,,,50,0
141064,note_off,104,0,1,,,,,,,,,0,,,62,0
141120,note_on,56,0,1,,,,,,,,,0,,,60,61
141120,note_on,56,0,2,,,,,,,,,1,,,48,61
141224,note_off,104,0,1,,,,,,,,,0,,,60,0
141224,note_off,104,0,2,,,,,,,,,1,,,48,0
141280,note_on,56,0,2,,,,,,,,,1,,,50,61
141280,note_on,56,0,1,,,,,,,,,0,,,62,61
141384,note_off,104,0,1,,,,,,,,,0,,,62,0
141384,note_off,104,0,2,,,,,,,,,1,,,50,0
141440,note_on,56,0,1,,,,,,,,,0,,,64,61
141440,note_on,56,0,2,,,,,,,,,1,,,52,61
141544,note_off,104,0,2,,,,,,,,,1,,,52,0
141544,note_off,104,0,1,,,,,,,,,0,,,64,0
141600,note_on,56,0,2,,,,,,,,,1,,,53,68
141600,note_on,56,0,1,,,,,,,,,0,,,65,68
141704,note_off,104,0,2,,,,,,,,,1,,,53,0
141704,note_off,104,0,1,,,,,,,,,0,,,65,0
141760,note_on,56,0,1,,,,,,,,,0,,,67,60
141760,note_on,56,0,2,,,,,,,,,1,,,55,60
141864,note_off,104,0,2,,,,,,,,,1,,,55,0
141864,note_off,104,0,1,,,,,,,,,0,,,67,0
141920,note_on,56,0,2,,,,,,,,,1,,,52,60
141920,note_on,56,0,1,,,,,,,,,0,,,64,60
142024,note_off,104,0,1,,,,,,,,,0,,,64,0
142024,note_off,104,0,2,,,,,,,,,1,,,52,0
142080,note_on,56,0,2,,,,,,,,,1,,,50,60
142080,note_on,56,0,1,,,,,,,,,0,,,62,60
142184,note_off,104,0,1,,,,,,,,,0,,,62,0
142184,note_off,104,0,2,,,,,,,,,1,,,50,0
142240,note_on,56,0,2,,,,,,,,,1,,,52,60
142240,note_on,56,0,1,,,,,,,,,0,,,64,60
142344,note_off,104,0,2,,,,,,,,,1,,,52,0
142344,note_off,104,0,1,,,,,,,,,0,,,64,0
142400,note_on,56,0,2,,,,,,,,,1,,,53,60
142400,note_on,56,0,1,,,,,,,,,0,,,65,60
142504,note_off,104,0,1,,,,,,,,,0,,,65,0
142504,note_off,104,0,2,,,,,,,,,1,,,53,0
142560,note_on,1816,0,3,,,,,,,,,2,,,52,70
142560,note_on,56,0,2,,,,,,,,,1,,,52,70
142560,note_on,1816,0,4,,,,,,,,,3,,,40,70
142560,note_on,56,0,1,,,,,,,,,0,,,67,70
142664,note_off,104,0,2,,,,,,,,,1,,,52,0
142664,note_off,104,0,3,,,,,,,,,2,,,52,0
142664,note_off,104,0,4,,,,,,,,,3,,,40,0
142664,note_off,104,0,1,,,,,,,,,0,,,67,0
142720,note_on,56,0,2,,,,,,,,,1,,,53,60
142720,note_on,56,0,3,,,,,,,,,2,,,53,60
142720,note_on,56,0,4,,,,,,,,,3,,,41,60
142720,note_on,56,0,1,,,,,,,,,0,,,69,60
142824,note_off,104,0,1,,,,,,,,,0,,,69,0
142824,note_off,104,0,2,,,,,,,,,1,,,53,0
142824,note_off,104,0,3,,,,,,,,,2,,,53,0
142824,note_off,104,0,4,,,,,,,,,3,,,41,0
142880,note_on,56,0,1,,,,,,,,,0,,,65,59
142880,note_on,56,0,4,,,,,,,,,3,,,38,59
142880,note_on,56,0,3,,,,,,,,,2,,,50,59
142880,note_on,56,0,2,,,,,,,,,1,,,50,59
142984,note_off,104,0,1,,,,,,,,,0,,,65,0
142984,note_off,104,0,4,,,,,,,,,3,,,38,0
142984,note_off,104,0,3,,,,,,,,,2,,,50,0
142984,note_off,104,0,2,,,,,,,,,1,,,50,0
143040,note_on,56,0,4,,,,,,,,,3,,,36,59
143040,note_on,56,0,1,,,,,,,,,0,,,64,59
143040,note_on,56,0,3,,,,,,,,,2,,,48,59
143040,note_on,56,0,2,,,,,,,,,1,,,48,59
143144,note_off,104,0,2,,,,,,,,,1,,,48,0
143144,note_off,104,0,3,,,,,,,,,2,,,48,0
143144,note_off,104,0,4,,,,,,,,,3,,,36,0
143144,note_off,104,0,1,,,,,,,,,0,,,64,0
143200,note_on,56,0,2,,,,,,,,,1,,,50,59
143200,note_on,56,0,3,,,,,,,,,2,,,50,59
143200,note_on,56,0,1,,,,,,,,,0,,,65,59
143200,note_on,56,0,4,,,,,,,,,3,,,38,59
143304,note_off,104,0,2,,,,,,,,,1,,,50,0
143304,note_off,104,0,3,,,,,,,,,2,,,50,0
143304,note_off,104,0,4,,,,,,,,,3,,,38,0
143304,note_off,104,0,1,,,,,,,,,0,,,65,0
143360,note_on,56,0,4,,,,,,,,,3,,,40,59
143360,note_on,56,0,3,,,,,,,,,2,,,52,59
143360,note_on,56,0,1,,,,,,,,,0,,,67,59
143360,note_on,56,0,2,,,,,,,,,1,,,52,59
143464,note_off,104,0,1,,,,,,,,,0,,,67,0
143464,note_off,104,0,2,,,,,,,,,1,,,52,0
143464,note_off,104,0,4,,,,,,,,,3,,,40,0
143464,note_off,104,0,3,,,,,,,,,2,,,52,0
143520,note_on,56,0,3,,,,,,,,,2,,,53,59
143520,note_on,56,0,1,,,,,,,,,0,,,69,59
143520,note_on,56,0,2,,,,,,,,,1,,,53,59
143520,note_on,56,0,4,,,,,,,,,3,,,41,59
143624,note_off,104,0,3,,,,,,,,,2,,,53,0
143624,note_off,104,0,4,,,,,,,,,3,,,41,0
143624,note_off,104,0,2,,,,,,,,,1,,,53,0
143624,note_off,104,0,1,,,,,,,,,0,,,69,0
143680,note_on,56,0,3,,,,,,,,,2,,,55,66
143680,note_on,56,0,4,,,,,,,,,3,,,43,66
143680,note_on,56,0,2,,,,,,,,,1,,,55,66
143680,note_on,56,0,1,,,,,,,,,0,,,70,66
143784,note_off,104,0,3,,,,,,,,,2,,,55,0
143784,note_off,104,0,4,,,,,,,,,3,,,43,0
143784,note_off,104,0,2,,,,,,,,,1,,,55,0
143784,note_off,104,0,1,,,,,,,,,0,,,70,0
143840,note_on,56,0,4,,,,,,,,,3,,,40,58
143840,note_on,56,0,3,,,,,,,,,2,,,52,58
143840,note_on,56,0,1,,,,,,,,,0,,,67,58
143840,note_on,56,0,2,,,,,,,,,1,,,52,58
143944,note_off,104,0,3,,,,,,,,,2,,,52,0
143944,note_off,104,0,4,,,,,,,,,3,,,40,0
143944,note_off,104,0,2,,,,,,,,,1,,,52,0
143944,note_off,104,0,1,,,,,,,,,0,,,67,0
144000,note_on,56,0,2,,,,,,,,,1,,,50,58
144000,note_on,56,0,3,,,,,,,,,2,,,50,58
144000,note_on,56,0,1,,,,,,,,,0,,,65,58
144000,note_on,56,0,4,,,,,,,,,3,,,38,58
144104,note_off,104,0,1,,,,,,,,,0,,,65,0
144104,note_off,104,0,3,,,,,,,,,2,,,50,0
144104,note_off,104,0,4,,,,,,,,,3,,,38,0
144104,note_off,104,0,2,,,,,,,,,1,,,50,0
144160,note_on,56,0,1,,,,,,,,,0,,,67,58
144160,note_on,56,0,2,,,,,,,,,1,,,52,58
144160,note_on,56,0,4,,,,,,,,,3,,,40,58
144160,note_on,56,0,3,,,,,,,,,2,,,52,58
144264,note_off,104,0,3,,,,,,,,,2,,,52,0
144264,note_off,104,0,4,,,,,,,,,3,,,40,0
144264,note_off,104,0,2,,,,,,,,,1,,,52,0
144264,note_off,104,0,1,,,,,,,,,0,,,67,0
144320,note_on,56,0,3,,,,,,,,,2,,,53,58
144320,note_on,56,0,4,,,,,,,,,3,,,41,58
144320,note_on,56,0,1,,,,,,,,,0,,,69,58
144320,note_on,56,0,2,,,,,,,,,1,,,53,58
144424,note_off,104,0,4,,,,,,,,,3,,,41,0
144424,note_off,104,0,3,,,,,,,,,2,,,53,0
144424,note_off,104,0,2,,,,,,,,,1,,,53,0
144424,note_off,104,0,1,,,,,,,,,0,,,69,0
144480,note_on,56,0,2,,,,,,,,,1,,,55,58
144480,note_on,56,0,3,,,,,,,,,2,,,55,58
144480,note_on,56,0,4,,,,,,,,,3,,,43,58
144480,note_on,56,0,1,,,,,,,,,0,,,70,58
144584,note_off,104,0,2,,,,,,,,,1,,,55,0
144584,note_off,104,0,4,,,,,,,,,3,,,43,0
144584,note_off,104,0,3,,,,,,,,,2,,,55,0
144584,note_off,104,0,1,,,,,,,,,0,,,70,0
144640,note_on,56,0,2,,,,,,,,,1,,,57,58
144640,note_on,56,0,4,,,,,,,,,3,,,45,58
144640,note_on,56,0,3,,,,,,,,,2,,,57,58
144640,note_on,56,0,1,,,,,,,,,0,,,72,58
144744,note_off,104,0,4,,,,,,,,,3,,,45,0
144744,note_off,104,0,2,,,,,,,,,1,,,57,0
144744,note_off,104,0,3,,,,,,,,,2,,,57,0
144744,note_off,104,0,1,,,,,,,,,0,,,72,0
144800,note_on,56,0,1,,,,,,,,,0,,,74,57
144800,note_on,56,0,4,,,,,,,,,3,,,46,57
144800,note_on,56,0,2,,,,,,,,,1,,,58,57
144800,note_on,56,0,3,,,,,,,,,2,,,58,57
144904,note_off,104,0,1,,,,,,,,,0,,,74,0
144904,note_off,104,0,2,,,,,,,,,1,,,58,0
144904,note_off,104,0,3,,,,,,,,,2,,,58,0
144904,note_off,104,0,4,,,,,,,,,3,,,46,0
144960,note_on,56,0,2,,,,,,,,,1,,,60,57
144960,note_on,56,0,1,,,,,,,,,0,,,76,57
144960,note_on,56,0,3,,,,,,,,,2,,,60,57
144960,note_on,56,0,4,,,,,,,,,3,,,48,57
145064,note_off,104,0,4,,,,,,,,,3,,,48,0
145064,note_off,104,0,2,,,,,,,,,1,,,60,0
145064,note_off,104,0,1,,,,,,,,,0,,,76,0
145064,note_off,104,0,3,,,,,,,,,2,,,60,0
145120,note_on,56,0,4,,,,,,,,,3,,,50,57
145120,note_on,56,0,1,,,,,,,,,0,,,77,57
145120,note_on,56,0,3,,,,,,,,,2,,,62,57
145120,note_on,56,0,2,,,,,,,,,1,,,62,57
145224,note_off,104,0,4,,,,,,,,,3,,,50,0
145224,note_off,104,0,1,,,,,,,,,0,,,77,0
145224,note_off,104,0,3,,,,,,,,,2,,,62,0
145224,note_off,104,0,2,,,,,,,,,1,,,62,0
145280,note_on,56,0,3,,,,,,,,,2,,,64,57
145280,note_on,56,0,4,,,,,,,,,3,,,52,57
145280,note_on,56,0,1,,,,,,,,,0,,,79,57
145280,note_on,56,0,2,,,,,,,,,1,,,64,57
145384,note_off,104,0,1,,,,,,,,,0,,,79,0
145384,note_off,104,0,3,,,,,,,,,2,,,64,0
145384,note_off,104,0,4,,,,,,,,,3,,,52,0
145384,note_off,104,0,2,,,,,,,,,1,,,64,0
145440,note_on,0,0,2,,,,,,,,,1,,,69,57
145440,note_on,56,0,2,,,,,,,,,1,,,65,57
145440,note_on,56,0,4,,,,,,,,,3,,,53,57
145440,note_on,56,0,3,,,,,,,,,2,,,65,57
145440,note_on,56,0,1,,,,,,,,,0,,,81,57
145544,note_off,104,0,4,,,,,,,,,3,,,53,0
145544,note_off,104,0,1,,,,,,,,,0,,,81,0
145544,note_off,104,0,3,,,,,,,,,2,,,65,0
145544,note_off,0,0,2,,,,,,,,,1,,,65,0
145544,note_off,104,0,2,,,,,,,,,1,,,69,0
145600,note_on,0,0,2,,,,,,,,,1,,,70,57
145600,note_on,56,0,3,,,,,,,,,2,,,67,57
145600,note_on,56,0,4,,,,,,,,,3,,,55,57
145600,note_on,56,0,2,,,,,,,,,1,,,67,57
145600,note_on,56,0,1,,,,,,,,,0,,,82,57
145704,note_off,104,0,3,,,,,,,,,2,,,67,0
145704,note_off,0,0,2,,,,,,,,,1,,,67,0
145704,note_off,104,0,1,,,,,,,,,0,,,82,0
145704,note_off,104,0,4,,,,,,,,,3,,,55,0
145704,note_off,104,0,2,,,,,,,,,1,,,70,0
145760,note_on,56,0,2,,,,,,,,,1,,,70,57
145760,note_on,56,0,1,,,,,,,,,0,,,82,57
145760,note_on,56,0,4,,,,,,,,,3,,,64,57
145864,note_off,104,0,4,,,,,,,,,3,,,64,0
145864,note_off,104,0,2,,,,,,,,,1,,,70,0
145864,note_off,104,0,1,,,,,,,,,0,,,82,0
145920,note_on,56,0,2,,,,,,,,,1,,,70,56
145920,note_on,56,0,4,,,,,,,,,3,,,60,56
145920,note_on,56,0,1,,,,,,,,,0,,,82,56
146024,note_off,104,0,4,,,,,,,,,3,,,60,0
146024,note_off,104,0,2,,,,,,,,,1,,,70,0
146024,note_off,104,0,1,,,,,,,,,0,,,82,0
146080,note_on,56,0,4,,,,,,,,,3,,,55,57
146080,note_on,56,0,1,,,,,,,,,0,,,82,57
146080,note_on,56,0,2,,,,,,,,,1,,,70,57
146184,note_off,104,0,2,,,,,,,,,1,,,70,0
146184,note_off,104,0,1,,,,,,,,,0,,,82,0
146184,note_off,104,0,4,,,,,,,,,3,,,55,0
146240,note_on,56,0,2,,,,,,,,,1,,,70,57
146240,note_on,56,0,1,,,,,,,,,0,,,82,57
146240,note_on,56,0,4,,,,,,,,,3,,,52,57
146344,note_off,104,0,4,,,,,,,,,3,,,52,0
146344,note_off,104,0,1,,,,,,,,,0,,,82,0
146344,note_off,104,0,2,,,,,,,,,1,,,70,0
146400,note_on,56,0,4,,,,,,,,,3,,,48,56
146400,note_on,56,0,1,,,,,,,,,0,,,82,56
146400,note_on,56,0,2,,,,,,,,,1,,,70,56
146504,note_off,104,0,4,,,,,,,,,3,,,48,0
146504,note_off,104,0,2,,,,,,,,,1,,,70,0
146504,note_off,104,0,1,,,,,,,,,0,,,82,0
146560,note_on,56,0,1,,,,,,,,,0,,,82,55
146560,note_on,56,0,4,,,,,,,,,3,,,43,55
146560,note_on,56,0,2,,,,,,,,,1,,,70,55
146664,note_off,104,0,4,,,,,,,,,3,,,43,0
146664,note_off,104,0,2,,,,,,,,,1,,,70,0
146664,note_off,104,0,1,,,,,,,,,0,,,82,0
146720,note_on,56,0,2,,,,,,,,,1,,,70,54
146720,note_on,56,0,4,,,,,,,,,3,,,40,54
146720,note_on,56,0,1,,,,,,,,,0,,,82,54
146820,set_tempo,10340,1,0,,,,,,508474,,,,,,,
146824,note_off,104,0,1,,,,,,,,,0,,,82,0
146824,note_off,104,0,4,,,,,,,,,3,,,40,0
146824,note_off,104,0,2,,,,,,,,,1,,,70,0
146880,note_on,56,0,2,,,,,,,,,1,,,70,59
146880,note_on,56,0,4,,,,,,,,,3,,,36,59
146880,set_tempo,60,1,0,,,,,,500000,,,,,,,
146880,note_on,56,0,1,,,,,,,,,0,,,82,59
146880,note_on,0,0,2,,,,,,,,,1,,,76,59
146880,note_on,0,0,2,,,,,,,,,1,,,79,59
146984,note_off,104,0,2,,,,,,,,,1,,,76,0
146984,note_off,104,0,4,,,,,,,,,3,,,36,0
146984,note_off,104,0,1,,,,,,,,,0,,,82,0
146984,note_off,0,0,2,,,,,,,,,1,,,70,0
146984,note_off,0,0,2,,,,,,,,,1,,,79,0
147040,note_on,56,0,1,,,,,,,,,0,,,82,62
147040,note_on,56,0,4,,,,,,,,,3,,,40,62
147040,note_on,56,0,2,,,,,,,,,1,,,70,62
147040,note_on,0,0,2,,,,,,,,,1,,,76,62
147040,note_on,0,0,2,,,,,,,,,1,,,79,62
147144,note_off,0,0,2,,,,,,,,,1,,,79,0
147144,note_off,104,0,4,,,,,,,,,3,,,40,0
147144,note_off,0,0,2,,,,,,,,,1,,,70,0
147144,note_off,104,0,1,,,,,,,,,0,,,82,0
147144,note_off,104,0,2,,,,,,,,,1,,,76,0
147200,note_on,56,0,2,,,,,,,,,1,,,70,65
147200,note_on,56,0,1,,,,,,,,,0,,,82,65
147200,note_on,0,0,2,,,,,,,,,1,,,76,65
147200,note_on,0,0,2,,,,,,,,,1,,,79,65
147200,note_on,56,0,4,,,,,,,,,3,,,43,65
147304,note_off,104,0,4,,,,,,,,,3,,,43,0
147304,note_off,104,0,1,,,,,,,,,0,,,82,0
147304,note_off,104,0,2,,,,,,,,,1,,,76,0
147304,note_off,0,0,2,,,,,,,,,1,,,70,0
147304,note_off,0,0,2,,,,,,,,,1,,,79,0
147360,note_on,56,0,2,,,,,,,,,1,,,70,67
147360,note_on,0,0,2,,,,,,,,,1,,,79,67
147360,note_on,0,0,2,,,,,,,,,1,,,76,67
147360,note_on,56,0,4,,,,,,,,,3,,,48,67
147360,note_on,56,0,1,,,,,,,,,0,,,82,67
147464,note_off,0,0,2,,,,,,,,,1,,,70,0
147464,note_off,0,0,2,,,,,,,,,1,,,79,0
147464,note_off,104,0,2,,,,,,,,,1,,,76,0
147464,note_off,104,0,4,,,,,,,,,3,,,48,0
147464,note_off,104,0,1,,,,,,,,,0,,,82,0
147520,note_on,0,0,2,,,,,,,,,1,,,76,70
147520,note_on,0,0,2,,,,,,,,,1,,,79,70
147520,note_on,56,0,2,,,,,,,,,1,,,70,70
147520,note_on,56,0,4,,,,,,,,,3,,,43,70
147520,note_on,56,0,1,,,,,,,,,0,,,82,70
147624,note_off,104,0,1,,,,,,,,,0,,,82,0
147624,note_off,0,0,2,,,,,,,,,1,,,70,0
147624,note_off,104,0,2,,,,,,,,,1,,,76,0
147624,note_off,104,0,4,,,,,,,,,3,,,43,0
147624,note_off,0,0,2,,,,,,,,,1,,,79,0
147680,note_on,56,0,2,,,,,,,,,1,,,70,73
147680,note_on,0,0,2,,,,,,,,,1,,,76,73
147680,note_on,0,0,2,,,,,,,,,1,,,79,73
147680,note_on,56,0,4,,,,,,,,,3,,,40,73
147680,note_on,56,0,1,,,,,,,,,0,,,82,73
147784,note_off,104,0,2,,,,,,,,,1,,,76,0
147784,note_off,0,0,2,,,,,,,,,1,,,79,0
147784,note_off,0,0,2,,,,,,,,,1,,,70,0
147784,note_off,104,0,4,,,,,,,,,3,,,40,0
147784,note_off,104,0,1,,,,,,,,,0,,,82,0
147840,note_on,56,0,1,,,,,,,,,0,,,82,76
147840,note_on,56,0,2,,,,,,,,,1,,,70,76
147840,note_on,0,0,2,,,,,,,,,1,,,79,76
147840,note_on,56,0,4,,,,,,,,,3,,,36,76
147840,note_on,0,0,2,,,,,,,,,1,,,76,76
147944,note_off,0,0,2,,,,,,,,,1,,,70,0
147944,note_off,104,0,4,,,,,,,,,3,,,36,0
147944,note_off,104,0,2,,,,,,,,,1,,,76,0
147944,note_off,104,0,1,,,,,,,,,0,,,82,0
147944,note_off,0,0,2,,,,,,,,,1,,,79,0
148000,note_on,56,0,2,,,,,,,,,1,,,70,78
148000,note_on,56,0,4,,,,,,,,,3,,,40,78
148000,set_tempo,1120,1,0,,,,,,508474,,,,,,,
148000,note_on,56,0,1,,,,,,,,,0,,,82,78
148000,note_on,0,0,2,,,,,,,,,1,,,79,78
148000,note_on,0,0,2,,,,,,,,,1,,,76,78
148104,note_off,0,0,2,,,,,,,,,1,,,70,0
148104,note_off,104,0,4,,,,,,,,,3,,,40,0
148104,note_off,104,0,2,,,,,,,,,1,,,76,0
148104,note_off,104,0,1,,,,,,,,,0,,,82,0
148104,note_off,0,0,2,,,,,,,,,1,,,79,0
148160,note_on,56,0,1,,,,,,,,,0,,,82,81
148160,note_on,56,0,2,,,,,,,,,1,,,70,81
148160,note_on,0,0,2,,,,,,,,,1,,,79,81
148160,set_tempo,160,1,0,,,,,,526315,,,,,,,
148160,note_on,56,0,4,,,,,,,,,3,,,43,81
148160,note_on,0,0,2,,,,,,,,,1,,,76,81
148264,note_off,104,0,1,,,,,,,,,0,,,82,0
148264,note_off,104,0,4,,,,,,,,,3,,,43,0
148264,note_off,104,0,2,,,,,,,,,1,,,76,0
148264,note_off,0,0,2,,,,,,,,,1,,,70,0
148264,note_off,0,0,2,,,,,,,,,1,,,79,0
148320,note_on,0,0,2,,,,,,,,,1,,,76,88
148320,control_change,2616,0,3,,,,,,,64,127,2,,,,
148320,note_on,0,0,3,,,,,,,,,2,,,48,88
148320,control_change,56,0,2,,,,,,,64,127,1,,,,
148320,control_change,56,0,4,,,,,,,64,127,3,,,,
148320,note_on,0,0,4,,,,,,,,,3,,,36,88
148320,set_tempo,160,1,0,,,,,,1333333,,,,,,,
148320,note_on,0,0,1,,,,,,,,,0,,,82,88
148320,control_change,56,0,1,,,,,,,64,127,0,,,,
148320,note_on,0,0,2,,,,,,,,,1,,,70,88
148320,note_on,0,0,2,,,,,,,,,1,,,79,88
149760,note_off,0,0,2,,,,,,,,,1,,,70,0
149760,note_off,0,0,2,,,,,,,,,1,,,76,0
149760,control_change,1440,0,4,,,,,,,64,0,3,,,,
149760,control_change,1440,0,1,,,,,,,64,0,0,,,,
149760,note_off,0,0,1,,,,,,,,,0,,,82,0
149760,note_off,0,0,4,,,,,,,,,3,,,36,0
149760,note_off,0,0,3,,,,,,,,,2,,,48,0
149760,set_tempo,1440,1,0,,,,,,508474,,,,,,,
149760,control_change,1440,0,2,,,,,,,64,0,1,,,,
149760,note_on,0,0,4,,,,,,,,,3,,,34,63
149760,note_on,0,0,2,,,,,,,,,1,,,52,58
149760,note_on,0,0,2,,,,,,,,,1,,,48,58
149760,note_on,0,0,2,,,,,,,,,1,,,55,58
149760,note_off,0,0,2,,,,,,,,,1,,,79,0
149760,control_change,1440,0,3,,,,,,,64,0,2,,,,
149864,note_off,0,0,2,,,,,,,,,1,,,48,0
149864,note_off,104,0,2,,,,,,,,,1,,,52,0
149864,note_off,104,0,4,,,,,,,,,3,,,34,0
149864,note_off,0,0,2,,,,,,,,,1,,,55,0
149920,note_on,56,0,2,,,,,,,,,1,,,48,56
149920,note_on,56,0,4,,,,,,,,,3,,,40,61
149920,note_on,0,0,2,,,,,,,,,1,,,55,56
149920,note_on,0,0,2,,,,,,,,,1,,,52,56
150024,note_off,104,0,2,,,,,,,,,1,,,52,0
150024,note_off,0,0,2,,,,,,,,,1,,,55,0
150024,note_off,0,0,2,,,,,,,,,1,,,48,0
150024,note_off,104,0,4,,,,,,,,,3,,,40,0
150080,note_on,56,0,4,,,,,,,,,3,,,43,59
150080,note_on,0,0,2,,,,,,,,,1,,,48,54
150080,note_on,56,0,2,,,,,,,,,1,,,55,54
150080,note_on,0,0,2,,,,,,,,,1,,,52,54
150184,note_off,104,0,2,,,,,,,,,1,,,48,0
150184,note_off,0,0,2,,,,,,,,,1,,,52,0
150184,note_off,0,0,2,,,,,,,,,1,,,55,0
150184,note_off,104,0,4,,,,,,,,,3,,,43,0
150240,note_on,480,0,1,,,,,,,,,0,,,60,58
150240,note_on,56,0,4,,,,,,,,,3,,,46,58
150240,note_on,0,0,2,,,,,,,,,1,,,48,53
150240,note_on,0,0,2,,,,,,,,,1,,,52,53
150240,note_on,56,0,2,,,,,,,,,1,,,55,53
150344,note_off,0,0,2,,,,,,,,,1,,,52,0
150344,note_off,104,0,2,,,,,,,,,1,,,48,0
150344,note_off,104,0,1,,,,,,,,,0,,,60,0
150344,note_off,104,0,4,,,,,,,,,3,,,46,0
150344,note_off,0,0,2,,,,,,,,,1,,,55,0
150400,note_on,56,0,2,,,,,,,,,1,,,55,51
150400,note_on,0,0,2,,,,,,,,,1,,,48,51
150400,note_on,0,0,2,,,,,,,,,1,,,52,51
150400,note_on,56,0,1,,,,,,,,,0,,,60,56
150400,note_on,56,0,4,,,,,,,,,3,,,43,56
150504,note_off,104,0,4,,,,,,,,,3,,,43,0
150504,note_off,104,0,1,,,,,,,,,0,,,60,0
150504,note_off,104,0,2,,,,,,,,,1,,,52,0
150504,note_off,0,0,2,,,,,,,,,1,,,48,0
150504,note_off,0,0,2,,,,,,,,,1,,,55,0
150560,note_on,56,0,4,,,,,,,,,3,,,40,54
150560,note_on,0,0,2,,,,,,,,,1,,,52,50
150560,note_on,0,0,2,,,,,,,,,1,,,48,50
150560,note_on,56,0,2,,,,,,,,,1,,,55,50
150560,note_on,56,0,1,,,,,,,,,0,,,60,54
150664,note_off,104,0,4,,,,,,,,,3,,,40,0
150664,note_off,0,0,2,,,,,,,,,1,,,55,0
150664,note_off,0,0,2,,,,,,,,,1,,,48,0
150664,note_off,104,0,2,,,,,,,,,1,,,52,0
150664,note_off,104,0,1,,,,,,,,,0,,,60,0
150720,note_on,0,0,2,,,,,,,,,1,,,52,48
150720,note_on,56,0,1,,,,,,,,,0,,,60,53
150720,note_on,0,0,2,,,,,,,,,1,,,48,48
150720,note_on,56,0,4,,,,,,,,,3,,,34,53
150720,note_on,56,0,2,,,,,,,,,1,,,55,48
150824,note_off,104,0,4,,,,,,,,,3,,,34,0
150824,note_off,104,0,1,,,,,,,,,0,,,60,0
150880,note_on,56,0,1,,,,,,,,,0,,,60,51
150880,set_tempo,1120,1,0,,,,,,526315,,,,,,,
150880,note_on,56,0,4,,,,,,,,,3,,,40,51
150984,note_off,104,0,4,,,,,,,,,3,,,40,0
150984,note_off,104,0,1,,,,,,,,,0,,,60,0
151040,note_on,56,0,4,,,,,,,,,3,,,43,50
151040,note_on,56,0,1,,,,,,,,,0,,,60,50
151040,set_tempo,160,1,0,,,,,,582524,,,,,,,
151144,note_off,104,0,4,,,,,,,,,3,,,43,0
151144,note_off,104,0,1,,,,,,,,,0,,,60,0
151200,note_on,0,0,1,,,,,,,,,0,,,60,48
151200,control_change,1440,0,3,,,,,,,64,127,2,,,,
151200,control_change,480,0,2,,,,,,,64,127,1,,,,
151200,note_on,0,0,3,,,,,,,,,2,,,46,48
151200,control_change,56,0,4,,,,,,,64,127,3,,,,
151200,control_change,56,0,1,,,,,,,64,127,0,,,,
151200,set_tempo,160,1,0,,,,,,1428571,,,,,,,
151200,note_on,0,0,4,,,,,,,,,3,,,34,48
151680,note_off,480,0,2,,,,,,,,,1,,,48,0
151680,note_off,0,0,2,,,,,,,,,1,,,55,0
151680,note_off,0,0,2,,,,,,,,,1,,,52,0
152160,note_off,960,0,1,,,,,,,,,0,,,60,0
152160,note_off,960,0,3,,,,,,,,,2,,,46,0
152160,note_off,960,0,4,,,,,,,,,3,,,34,0
152640,set_tempo,1440,1,0,,,,,,540540,,,,,,,
153360,control_change,1680,0,2,,,,,,,64,0,1,,,,
153360,control_change,1200,0,1,,,,,,,64,0,0,,,,
153360,control_change,1200,0,4,,,,,,,64,0,3,,,,
153360,control_change,1200,0,3,,,,,,,64,0,2,,,,
153600,set_tempo,960,1,0,,,,,,540540,,,,,,,
153600,note_on,240,0,1,,,,,,,,,0,,,48,33
153960,note_on,0,0,1,,,,,,,,,0,,,52,37
153960,note_off,360,0,1,,,,,,,,,0,,,48,0
154080,note_off,120,0,1,,,,,,,,,0,,,52,0
154080,note_on,720,0,4,,,,,,,,,3,,,29,38
154080,note_on,720,0,2,,,,,,,,,1,,,48,38
154080,note_on,0,0,1,,,,,,,,,0,,,53,38
154080,note_on,720,0,3,,,,,,,,,2,,,41,38
154560,note_on,0,0,4,,,,,,,,,3,,,31,32
154560,note_off,480,0,4,,,,,,,,,3,,,29,0
154560,note_off,480,0,2,,,,,,,,,1,,,48,0
154560,note_on,0,0,2,,,,,,,,,1,,,50,32
154800,note_off,720,0,1,,,,,,,,,0,,,53,0
154800,note_off,720,0,3,,,,,,,,,2,,,41,0
154800,note_off,240,0,4,,,,,,,,,3,,,31,0
154800,set_tempo,1200,1,0,,,,,,550458,,,,,,,
154800,note_off,240,0,2,,,,,,,,,1,,,50,0
155040,set_tempo,240,1,0,,,,,,540540,,,,,,,
155040,note_on,240,0,1,,,,,,,,,0,,,60,34
155400,note_off,360,0,1,,,,,,,,,0,,,60,0
155400,note_on,0,0,1,,,,,,,,,0,,,64,38
155520,note_on,0,0,1,,,,,,,,,0,,,65,43
155520,note_off,120,0,1,,,,,,,,,0,,,64,0
155520,note_on,720,0,3,,,,,,,,,2,,,53,43
155520,note_on,720,0,4,,,,,,,,,3,,,48,43
155520,note_on,720,0,2,,,,,,,,,1,,,57,43
156000,note_on,0,0,2,,,,,,,,,1,,,58,35
156000,note_off,480,0,4,,,,,,,,,3,,,48,0
156000,note_on,0,0,4,,,,,,,,,3,,,49,35
156000,note_off,480,0,2,,,,,,,,,1,,,57,0
156240,note_off,720,0,3,,,,,,,,,2,,,53,0
156240,note_off,240,0,4,,,,,,,,,3,,,49,0
156240,set_tempo,1200,1,0,,,,,,550458,,,,,,,
156240,note_off,720,0,1,,,,,,,,,0,,,65,0
156240,note_off,240,0,2,,,,,,,,,1,,,58,0
156480,set_tempo,240,1,0,,,,,,550458,,,,,,,
156480,note_on,240,0,1,,,,,,,,,0,,,72,34
156840,note_off,360,0,1,,,,,,,,,0,,,72,0
156840,note_on,0,0,1,,,,,,,,,0,,,77,36
156960,set_tempo,480,1,0,,,,,,550458,,,,,,,
156960,note_off,120,0,1,,,,,,,,,0,,,77,0
156960,note_on,720,0,4,,,,,,,,,3,,,60,42
156960,note_on,0,0,1,,,,,,,,,0,,,81,42
156960,note_on,720,0,2,,,,,,,,,1,,,65,42
157320,note_off,360,0,2,,,,,,,,,1,,,65,0
157320,note_on,0,0,2,,,,,,,,,1,,,69,39
157380,set_tempo,420,1,0,,,,,,560747,,,,,,,
157440,note_off,120,0,2,,,,,,,,,1,,,69,0
157440,note_on,0,0,2,,,,,,,,,1,,,72,43
157800,note_off,360,0,2,,,,,,,,,1,,,72,0
157800,note_on,0,0,2,,,,,,,,,1,,,69,40
157800,note_on,0,0,1,,,,,,,,,0,,,77,40
157800,note_off,840,0,1,,,,,,,,,0,,,81,0
157920,note_on,0,0,1,,,,,,,,,0,,,79,39
157920,note_on,0,0,4,,,,,,,,,3,,,60,39
157920,note_off,960,0,4,,,,,,,,,3,,,60,0
157920,note_off,120,0,1,,,,,,,,,0,,,77,0
157920,note_on,0,0,2,,,,,,,,,1,,,70,39
157920,note_off,120,0,2,,,,,,,,,1,,,69,0
158280,note_on,0,0,2,,,,,,,,,1,,,67,36
158280,note_off,360,0,2,,,,,,,,,1,,,70,0
158280,note_on,0,0,1,,,,,,,,,0,,,76,36
158280,note_off,360,0,1,,,,,,,,,0,,,79,0
158340,set_tempo,960,1,0,,,,,,571428,,,,,,,
158400,note_on,0,0,4,,,,,,,,,3,,,65,35
158400,note_off,120,0,2,,,,,,,,,1,,,67,0
158400,note_on,0,0,1,,,,,,,,,0,,,77,35
158400,note_off,120,0,1,,,,,,,,,0,,,76,0
158400,note_on,0,0,2,,,,,,,,,1,,,69,35
158400,note_off,480,0,4,,,,,,,,,3,,,60,0
158870,set_tempo,530,1,0,,,,,,600000,,,,,,,
158880,note_off,480,0,2,,,,,,,,,1,,,69,0
158880,note_off,480,0,4,,,,,,,,,3,,,65,0
158880,note_off,480,0,1,,,,,,,,,0,,,77,0
159300,set_tempo,430,1,0,,,,,,550458,,,,,,,
159320,note_on,440,0,1,,,,,,,,,0,,,50,38
159360,note_on,40,0,1,,,,,,,,,0,,,48,39
159360,set_tempo,60,1,0,,,,,,540540,,,,,,,
159380,note_off,20,0,1,,,,,,,,,0,,,50,0
159480,note_off,100,0,1,,,,,,,,,0,,,48,0
159480,note_on,0,0,1,,,,,,,,,0,,,47,41
159600,note_off,120,0,1,,,,,,,,,0,,,47,0
159600,note_on,0,0,1,,,,,,,,,0,,,48,43
159720,note_off,120,0,1,,,,,,,,,0,,,48,0
159720,note_on,0,0,1,,,,,,,,,0,,,52,45
159840,note_off,120,0,1,,,,,,,,,0,,,52,0
159840,note_on,0,0,1,,,,,,,,,0,,,55,47
159840,note_on,3600,0,3,,,,,,,,,2,,,41,47
159840,note_on,960,0,4,,,,,,,,,3,,,33,47
159960,note_on,0,0,1,,,,,,,,,0,,,53,46
159960,note_off,120,0,1,,,,,,,,,0,,,55,0
160080,note_on,0,0,1,,,,,,,,,0,,,52,45
160080,note_off,120,0,1,,,,,,,,,0,,,53,0
160200,note_on,0,0,1,,,,,,,,,0,,,53,44
160200,note_off,120,0,1,,,,,,,,,0,,,52,0
160320,note_on,1440,0,2,,,,,,,,,1,,,49,43
160320,note_off,480,0,4,,,,,,,,,3,,,33,0
160320,note_on,0,0,4,,,,,,,,,3,,,34,43
160440,note_off,120,0,2,,,,,,,,,1,,,49,0
160440,note_on,0,0,2,,,,,,,,,1,,,50,42
160560,note_off,120,0,2,,,,,,,,,1,,,50,0
160560,note_on,0,0,2,,,,,,,,,1,,,49,41
160560,note_off,240,0,4,,,,,,,,,3,,,34,0
160560,set_tempo,1200,1,0,,,,,,550458,,,,,,,
160560,note_off,720,0,3,,,,,,,,,2,,,41,0
160680,note_off,120,0,2,,,,,,,,,1,,,49,0
160680,note_on,0,0,2,,,,,,,,,1,,,50,40
160680,set_tempo,120,1,0,,,,,,560747,,,,,,,
160740,set_tempo,60,1,0,,,,,,550458,,,,,,,
160750,note_off,550,0,1,,,,,,,,,0,,,53,0
160755,note_off,75,0,2,,,,,,,,,1,,,50,0
160760,note_on,10,0,1,,,,,,,,,0,,,62,40
160800,set_tempo,60,1,0,,,,,,540540,,,,,,,
160800,note_on,40,0,1,,,,,,,,,0,,,60,41
160820,note_off,20,0,1,,,,,,,,,0,,,62,0
160920,note_off,100,0,1,,,,,,,,,0,,,60,0
160920,note_on,0,0,1,,,,,,,,,0,,,59,43
161040,note_off,120,0,1,,,,,,,,,0,,,59,0
161040,note_on,0,0,1,,,,,,,,,0,,,60,45
161160,note_off,120,0,1,,,,,,,,,0,,,60,0
161160,note_on,0,0,1,,,,,,,,,0,,,64,47
161280,note_on,0,0,1,,,,,,,,,0,,,67,49
161280,note_on,0,0,1,,,,,,,,,0,,,57,49
161280,note_on,720,0,4,,,,,,,,,3,,,48,49
161280,note_on,720,0,3,,,,,,,,,2,,,53,49
161280,note_off,120,0,1,,,,,,,,,0,,,64,0
161400,note_on,0,0,1,,,,,,,,,0,,,65,49
161400,note_off,120,0,1,,,,,,,,,0,,,67,0
161520,note_on,0,0,1,,,,,,,,,0,,,64,48
161520,note_off,120,0,1,,,,,,,,,0,,,65,0
161640,note_off,120,0,1,,,,,,,,,0,,,64,0
161640,note_on,0,0,1,,,,,,,,,0,,,65,47
161760,note_on,0,0,4,,,,,,,,,3,,,49,46
161760,note_off,480,0,4,,,,,,,,,3,,,48,0
161760,note_on,1005,0,2,,,,,,,,,1,,,57,46
161770,note_off,130,0,1,,,,,,,,,0,,,57,0
161880,note_off,120,0,2,,,,,,,,,1,,,57,0
161880,note_on,0,0,2,,,,,,,,,1,,,58,46
162000,note_off,120,0,2,,,,,,,,,1,,,58,0
162000,note_on,0,0,2,,,,,,,,,1,,,57,45
162000,note_off,240,0,4,,,,,,,,,3,,,49,0
162000,note_off,720,0,3,,,,,,,,,2,,,53,0
162000,set_tempo,1200,1,0,,,,,,550458,,,,,,,
162120,note_on,0,0,2,,,,,,,,,1,,,58,44
162120,note_off,120,0,2,,,,,,,,,1,,,57,0
162120,set_tempo,120,1,0,,,,,,560747,,,,,,,
162180,set_tempo,60,1,0,,,,,,560747,,,,,,,
162200,note_on,430,0,1,,,,,,,,,0,,,74,44
162210,note_off,90,0,2,,,,,,,,,1,,,58,0
162210,note_off,10,0,1,,,,,,,,,0,,,65,0
162240,note_on,30,0,1,,,,,,,,,0,,,72,44
162240,set_tempo,60,1,0,,,,,,550458,,,,,,,
162260,note_off,20,0,1,,,,,,,,,0,,,74,0
162360,note_off,100,0,1,,,,,,,,,0,,,72,0
162360,note_on,0,0,1,,,,,,,,,0,,,71,45
162480,note_off,120,0,1,,,,,,,,,0,,,71,0
162480,note_on,0,0,1,,,,,,,,,0,,,72,46
162600,note_off,120,0,1,,,,,,,,,0,,,72,0
162600,note_on,0,0,1,,,,,,,,,0,,,77,47
162600,set_tempo,360,1,0,,,,,,560747,,,,,,,
162680,note_on,470,0,2,,,,,,,,,1,,,67,47
162715,note_off,115,0,1,,,,,,,,,0,,,77,0
162720,note_on,40,0,2,,,,,,,,,1,,,65,48
162720,set_tempo,120,1,0,,,,,,550458,,,,,,,
162720,note_on,720,0,4,,,,,,,,,3,,,60,48
162720,note_on,5,0,1,,,,,,,,,0,,,81,48
162740,note_off,20,0,2,,,,,,,,,1,,,67,0
162840,note_off,100,0,2,,,,,,,,,1,,,65,0
162840,note_on,0,0,2,,,,,,,,,1,,,64,49
162960,note_on,0,0,2,,,,,,,,,1,,,65,50
162960,note_off,120,0,2,,,,,,,,,1,,,64,0
163080,note_off,120,0,2,,,,,,,,,1,,,65,0
163080,note_on,0,0,2,,,,,,,,,1,,,69,50
163140,set_tempo,420,1,0,,,,,,560747,,,,,,,
163200,note_on,0,0,2,,,,,,,,,1,,,72,53
163200,note_off,120,0,2,,,,,,,,,1,,,69,0
163320,note_on,600,0,1,,,,,,,,,0,,,80,52
163320,note_off,120,0,2,,,,,,,,,1,,,72,0
163320,note_on,0,0,2,,,,,,,,,1,,,71,52
163325,note_off,5,0,1,,,,,,,,,0,,,81,0
163440,note_on,0,0,1,,,,,,,,,0,,,81,51
163440,note_off,115,0,1,,,,,,,,,0,,,80,0
163440,note_on,0,0,2,,,,,,,,,1,,,72,51
163440,note_off,120,0,2,,,,,,,,,1,,,71,0
163560,note_off,120,0,1,,,,,,,,,0,,,81,0
163560,note_on,0,0,1,,,,,,,,,0,,,77,49
163560,note_off,120,0,2,,,,,,,,,1,,,72,0
163560,note_on,0,0,2,,,,,,,,,1,,,69,49
163680,note_off,120,0,2,,,,,,,,,1,,,69,0
163680,note_on,0,0,2,,,,,,,,,1,,,70,48
163680,note_off,960,0,4,,,,,,,,,3,,,60,0
163680,note_on,0,0,4,,,,,,,,,3,,,60,48
163680,note_on,0,0,1,,,,,,,,,0,,,79,48
163680,note_off,120,0,1,,,,,,,,,0,,,77,0
163800,note_on,0,0,1,,,,,,,,,0,,,78,47
163800,note_off,120,0,1,,,,,,,,,0,,,79,0
163800,note_off,120,0,2,,,,,,,,,1,,,70,0
163800,note_on,0,0,2,,,,,,,,,1,,,69,47
163920,note_on,0,0,1,,,,,,,,,0,,,79,45
163920,note_off,120,0,1,,,,,,,,,0,,,78,0
163920,note_off,120,0,2,,,,,,,,,1,,,69,0
163920,note_on,0,0,2,,,,,,,,,1,,,70,45
164040,note_on,0,0,1,,,,,,,,,0,,,76,44
164040,note_off,120,0,1,,,,,,,,,0,,,79,0
164040,note_off,120,0,2,,,,,,,,,1,,,70,0
164040,note_on,0,0,2,,,,,,,,,1,,,67,44
164100,set_tempo,960,1,0,,,,,,571428,,,,,,,
164160,note_on,0,0,1,,,,,,,,,0,,,77,43
164160,note_on,0,0,2,,,,,,,,,1,,,65,43
164160,note_on,0,0,2,,,,,,,,,1,,,72,43
164160,note_off,120,0,1,,,,,,,,,0,,,76,0
164160,note_off,480,0,4,,,,,,,,,3,,,60,0
164160,note_off,120,0,2,,,,,,,,,1,,,67,0
164280,note_off,120,0,2,,,,,,,,,1,,,65,0
164280,note_on,0,0,2,,,,,,,,,1,,,60,41
164400,note_on,0,0,2,,,,,,,,,1,,,57,40
164400,note_off,0,0,2,,,,,,,,,1,,,72,0
164400,note_off,120,0,2,,,,,,,,,1,,,60,0
164520,note_off,120,0,2,,,,,,,,,1,,,57,0
164520,note_on,0,0,2,,,,,,,,,1,,,60,39
164625,set_tempo,525,1,0,,,,,,600000,,,,,,,
164640,note_on,0,0,2,,,,,,,,,1,,,53,37
164640,note_off,480,0,1,,,,,,,,,0,,,77,0
164640,note_off,120,0,2,,,,,,,,,1,,,60,0
164760,note_off,120,0,2,,,,,,,,,1,,,53,0
164760,note_on,0,0,2,,,,,,,,,1,,,48,36
164880,note_off,120,0,2,,,,,,,,,1,,,48,0
164880,note_on,0,0,2,,,,,,,,,1,,,45,34
165000,set_tempo,375,1,0,,,,,,582524,,,,,,,
165000,note_off,120,0,2,,,,,,,,,1,,,45,0
165000,note_on,0,0,2,,,,,,,,,1,,,48,34
165120,note_on,0,0,2,,,,,,,,,1,,,41,35
165120,note_on,480,0,1,,,,,,,,,0,,,53,35
165120,set_tempo,120,1,0,,,,,,540540,,,,,,,
165120,note_off,120,0,2,,,,,,,,,1,,,48,0
165240,note_on,0,0,1,,,,,,,,,0,,,55,35
165240,note_off,120,0,1,,,,,,,,,0,,,53,0
165280,note_on,0,0,1,,,,,,,,,0,,,53,36
165280,note_off,40,0,1,,,,,,,,,0,,,55,0
165320,note_off,40,0,1,,,,,,,,,0,,,53,0
165320,note_on,0,0,1,,,,,,,,,0,,,52,36
165360,note_off,240,0,2,,,,,,,,,1,,,41,0
165360,note_off,40,0,1,,,,,,,,,0,,,52,0
165360,note_on,0,0,1,,,,,,,,,0,,,53,36
165480,note_off,120,0,1,,,,,,,,,0,,,53,0
165480,note_on,0,0,1,,,,,,,,,0,,,57,36
165520,set_tempo,400,1,0,,,,,,550458,,,,,,,
165600,note_on,1440,0,4,,,,,,,,,3,,,41,39
165600,note_on,0,0,1,,,,,,,,,0,,,61,39
165600,set_tempo,80,1,0,,,,,,550458,,,,,,,
165600,note_off,120,0,1,,,,,,,,,0,,,57,0
166020,set_tempo,420,1,0,,,,,,550458,,,,,,,
166080,note_off,480,0,1,,,,,,,,,0,,,61,0
166080,note_on,0,0,1,,,,,,,,,0,,,62,39
166080,note_on,4080,0,3,,,,,,,,,2,,,46,39
166560,note_on,0,0,3,,,,,,,,,2,,,52,42
166560,note_off,480,0,3,,,,,,,,,2,,,46,0
166560,note_off,960,0,4,,,,,,,,,3,,,41,0
166560,note_on,0,0,4,,,,,,,,,3,,,43,42
166920,note_off,840,0,1,,,,,,,,,0,,,62,0
166920,note_on,0,0,1,,,,,,,,,0,,,59,43
166980,set_tempo,960,1,0,,,,,,560747,,,,,,,
167040,note_off,480,0,4,,,,,,,,,3,,,43,0
167040,note_on,0,0,1,,,,,,,,,0,,,60,41
167040,note_off,480,0,3,,,,,,,,,2,,,52,0
167040,note_off,120,0,1,,,,,,,,,0,,,59,0
167040,note_on,0,0,4,,,,,,,,,3,,,41,41
167040,note_on,0,0,3,,,,,,,,,2,,,45,41
167400,note_on,0,0,1,,,,,,,,,0,,,57,36
167400,note_off,360,0,1,,,,,,,,,0,,,60,0
167520,note_on,0,0,1,,,,,,,,,0,,,53,35
167520,note_off,120,0,1,,,,,,,,,0,,,57,0
167520,note_on,480,0,3,,,,,,,,,2,,,48,35
167755,note_off,715,0,4,,,,,,,,,3,,,41,0
167760,set_tempo,780,1,0,,,,,,571428,,,,,,,
167760,note_off,240,0,1,,,,,,,,,0,,,53,0
167760,note_off,0,0,3,,,,,,,,,2,,,45,0
167760,note_off,240,0,3,,,,,,,,,2,,,48,0
167940,set_tempo,180,1,0,,,,,,550458,,,,,,,
167960,note_on,200,0,1,,,,,,,,,0,,,67,36
168000,note_on,40,0,1,,,,,,,,,0,,,65,36
168000,set_tempo,60,1,0,,,,,,540540,,,,,,,
168020,note_off,20,0,1,,,,,,,,,0,,,67,0
168120,note_on,0,0,1,,,,,,,,,0,,,64,37
168120,note_off,100,0,1,,,,,,,,,0,,,65,0
168240,note_on,0,0,1,,,,,,,,,0,,,65,37
168240,note_off,120,0,1,,,,,,,,,0,,,64,0
168360,note_on,0,0,1,,,,,,,,,0,,,69,38
168360,note_off,120,0,1,,,,,,,,,0,,,65,0
168480,note_on,725,0,4,,,,,,,,,3,,,53,42
168480,note_off,120,0,1,,,,,,,,,0,,,69,0
168480,note_on,0,0,1,,,,,,,,,0,,,73,42
168720,note_off,240,0,1,,,,,,,,,0,,,73,0
168720,note_on,0,0,1,,,,,,,,,0,,,74,40
168900,set_tempo,900,1,0,,,,,,550458,,,,,,,
168960,note_on,1200,0,3,,,,,,,,,2,,,58,41
169190,note_off,470,0,1,,,,,,,,,0,,,74,0
169200,note_on,10,0,1,,,,,,,,,0,,,74,42
169440,note_off,960,0,4,,,,,,,,,3,,,53,0
169440,note_on,0,0,4,,,,,,,,,3,,,55,44
169440,note_off,480,0,3,,,,,,,,,2,,,58,0
169440,note_on,0,0,3,,,,,,,,,2,,,64,44
169560,note_off,360,0,1,,,,,,,,,0,,,74,0
169560,note_on,0,0,1,,,,,,,,,0,,,73,44
169680,note_off,120,0,1,,,,,,,,,0,,,73,0
169680,note_on,0,0,1,,,,,,,,,0,,,74,45
169800,set_tempo,900,1,0,,,,,,560747,,,,,,,
169800,note_off,120,0,1,,,,,,,,,0,,,74,0
169800,note_on,0,0,1,,,,,,,,,0,,,71,45
169880,note_on,80,0,1,,,,,,,,,0,,,74,45
169920,note_off,480,0,3,,,,,,,,,2,,,64,0
169920,note_on,0,0,4,,,,,,,,,3,,,53,44
169920,note_off,480,0,4,,,,,,,,,3,,,55,0
169920,note_off,40,0,1,,,,,,,,,0,,,71,0
169920,note_on,0,0,1,,,,,,,,,0,,,72,44
169920,note_on,0,0,3,,,,,,,,,2,,,57,44
169920,set_tempo,120,1,0,,,,,,560747,,,,,,,
169940,note_off,20,0,1,,,,,,,,,0,,,74,0
170040,note_off,100,0,1,,,,,,,,,0,,,72,0
170040,note_on,0,0,1,,,,,,,,,0,,,71,43
170160,note_off,120,0,1,,,,,,,,,0,,,71,0
170160,note_on,0,0,1,,,,,,,,,0,,,72,42
170280,note_off,120,0,1,,,,,,,,,0,,,72,0
170280,note_on,0,0,1,,,,,,,,,0,,,69,42
170400,note_on,480,0,3,,,,,,,,,2,,,60,41
170400,note_off,120,0,1,,,,,,,,,0,,,69,0
170400,note_on,0,0,1,,,,,,,,,0,,,65,41
170640,note_off,720,0,4,,,,,,,,,3,,,53,0
170640,note_off,0,0,3,,,,,,,,,2,,,57,0
170640,note_off,240,0,3,,,,,,,,,2,,,60,0
170640,note_off,240,0,1,,,,,,,,,0,,,65,0
170640,set_tempo,720,1,0,,,,,,571428,,,,,,,
170820,set_tempo,180,1,0,,,,,,560747,,,,,,,
170840,note_on,200,0,1,,,,,,,,,0,,,79,40
170880,note_on,40,0,1,,,,,,,,,0,,,77,40
170880,set_tempo,60,1,0,,,,,,550458,,,,,,,
170900,note_off,20,0,1,,,,,,,,,0,,,79,0
171000,note_off,100,0,1,,,,,,,,,0,,,77,0
171000,note_on,0,0,1,,,,,,,,,0,,,76,41
171120,note_off,120,0,1,,,,,,,,,0,,,76,0
171120,note_on,0,0,1,,,,,,,,,0,,,77,41
171240,note_on,0,0,1,,,,,,,,,0,,,81,41
171240,note_off,120,0,1,,,,,,,,,0,,,77,0
171360,note_off,120,0,1,,,,,,,,,0,,,81,0
171360,note_on,0,0,1,,,,,,,,,0,,,85,42
171480,note_off,120,0,1,,,,,,,,,0,,,85,0
171480,note_on,0,0,1,,,,,,,,,0,,,86,42
171558,note_off,78,0,1,,,,,,,,,0,,,86,0
171600,note_on,42,0,1,,,,,,,,,0,,,86,43
171678,note_off,78,0,1,,,,,,,,,0,,,86,0
171720,note_on,42,0,1,,,,,,,,,0,,,86,43
171720,set_tempo,840,1,0,,,,,,560747,,,,,,,
171798,note_off,78,0,1,,,,,,,,,0,,,86,0
171840,note_on,0,0,2,,,,,,,,,1,,,70,43
171840,note_on,6480,0,2,,,,,,,,,1,,,74,43
171840,note_on,1200,0,4,,,,,,,,,3,,,65,43
171840,note_on,42,0,1,,,,,,,,,0,,,86,43
171918,note_off,78,0,1,,,,,,,,,0,,,86,0
171960,note_on,42,0,1,,,,,,,,,0,,,86,44
172029,note_off,189,0,2,,,,,,,,,1,,,74,0
172038,note_off,78,0,1,,,,,,,,,0,,,86,0
172080,note_on,42,0,1,,,,,,,,,0,,,86,44
172200,note_on,0,0,1,,,,,,,,,0,,,85,45
172200,note_off,120,0,1,,,,,,,,,0,,,86,0
172280,note_on,80,0,1,,,,,,,,,0,,,88,45
172295,note_off,15,0,1,,,,,,,,,0,,,85,0
172320,note_on,25,0,1,,,,,,,,,0,,,86,45
172340,note_off,20,0,1,,,,,,,,,0,,,88,0
172440,note_on,0,0,1,,,,,,,,,0,,,84,46
172440,note_off,100,0,1,,,,,,,,,0,,,86,0
172560,note_off,120,0,1,,,,,,,,,0,,,84,0
172560,note_on,0,0,1,,,,,,,,,0,,,86,46
172665,note_off,825,0,4,,,,,,,,,3,,,65,0
172680,set_tempo,960,1,0,,,,,,571428,,,,,,,
172680,note_on,15,0,4,,,,,,,,,3,,,65,46
172680,note_on,651,0,2,,,,,,,,,1,,,67,46
172680,note_on,0,0,1,,,,,,,,,0,,,83,46
172680,note_off,120,0,1,,,,,,,,,0,,,86,0
172687,note_off,7,0,2,,,,,,,,,1,,,70,0
172740,set_tempo,60,1,0,,,,,,560747,,,,,,,
172760,note_on,80,0,1,,,,,,,,,0,,,86,47
172780,note_off,20,0,1,,,,,,,,,0,,,83,0
172800,note_on,0,0,2,,,,,,,,,1,,,67,47
172800,note_on,0,0,4,,,,,,,,,3,,,64,47
172800,note_on,20,0,1,,,,,,,,,0,,,84,47
172800,set_tempo,60,1,0,,,,,,550458,,,,,,,
172800,note_off,120,0,4,,,,,,,,,3,,,65,0
172800,note_on,0,0,2,,,,,,,,,1,,,72,47
172800,note_off,113,0,2,,,,,,,,,1,,,67,0
172820,note_off,20,0,1,,,,,,,,,0,,,86,0
172920,note_on,0,0,1,,,,,,,,,0,,,83,47
172920,note_off,100,0,1,,,,,,,,,0,,,84,0
173040,note_off,120,0,1,,,,,,,,,0,,,83,0
173040,note_on,0,0,1,,,,,,,,,0,,,84,48
173160,note_off,360,0,4,,,,,,,,,3,,,64,0
173160,note_on,0,0,2,,,,,,,,,1,,,69,48
173160,note_off,360,0,2,,,,,,,,,1,,,67,0
173160,note_on,0,0,4,,,,,,,,,3,,,65,48
173160,note_on,0,0,1,,,,,,,,,0,,,81,48
173160,note_off,120,0,1,,,,,,,,,0,,,84,0
173220,set_tempo,420,1,0,,,,,,560747,,,,,,,
173280,note_on,0,0,2,,,,,,,,,1,,,65,48
173280,note_off,0,0,2,,,,,,,,,1,,,72,0
173280,note_off,120,0,4,,,,,,,,,3,,,65,0
173280,note_off,120,0,1,,,,,,,,,0,,,81,0
173280,note_off,120,0,2,,,,,,,,,1,,,69,0
173280,note_on,0,0,1,,,,,,,,,0,,,82,48
173280,note_on,0,0,4,,,,,,,,,3,,,62,48
173280,note_on,0,0,2,,,,,,,,,1,,,70,48
173358,note_off,78,0,1,,,,,,,,,0,,,82,0
173400,note_on,42,0,1,,,,,,,,,0,,,82,49
173478,note_off,78,0,1,,,,,,,,,0,,,82,0
173520,note_on,42,0,1,,,,,,,,,0,,,82,49
173598,note_off,78,0,1,,,,,,,,,0,,,82,0
173640,set_tempo,420,1,0,,,,,,571428,,,,,,,
173640,note_on,42,0,1,,,,,,,,,0,,,82,50
173718,note_off,78,0,1,,,,,,,,,0,,,82,0
173720,note_on,2,0,1,,,,,,,,,0,,,84,50
173760,note_off,480,0,2,,,,,,,,,1,,,65,0
173760,note_off,480,0,4,,,,,,,,,3,,,62,0
173760,note_on,0,0,4,,,,,,,,,3,,,64,50
173760,note_on,0,0,2,,,,,,,,,1,,,67,50
173760,set_tempo,120,1,0,,,,,,560747,,,,,,,
173760,note_on,40,0,1,,,,,,,,,0,,,82,50
173780,note_off,20,0,1,,,,,,,,,0,,,84,0
173880,note_off,100,0,1,,,,,,,,,0,,,82,0
173880,note_on,0,0,1,,,,,,,,,0,,,81,51
174000,note_off,120,0,1,,,,,,,,,0,,,81,0
174000,note_on,0,0,1,,,,,,,,,0,,,82,51
174120,note_on,0,0,4,,,,,,,,,3,,,62,51
174120,note_off,360,0,4,,,,,,,,,3,,,64,0
174120,note_off,360,0,2,,,,,,,,,1,,,67,0
174120,note_on,0,0,2,,,,,,,,,1,,,65,51
174120,note_off,120,0,1,,,,,,,,,0,,,82,0
174120,note_on,0,0,1,,,,,,,,,0,,,80,51
174200,note_on,80,0,1,,,,,,,,,0,,,82,52
174215,note_off,15,0,1,,,,,,,,,0,,,80,0
174240,note_on,25,0,1,,,,,,,,,0,,,81,52
174240,note_off,120,0,4,,,,,,,,,3,,,62,0
174240,note_on,0,0,4,,,,,,,,,3,,,61,52
174240,set_tempo,480,1,0,,,,,,550458,,,,,,,
174240,note_on,0,0,2,,,,,,,,,1,,,69,52
174240,note_on,0,0,2,,,,,,,,,1,,,64,52
174240,note_off,120,0,2,,,,,,,,,1,,,65,0
174247,note_off,7,0,2,,,,,,,,,1,,,70,0
174260,note_off,20,0,1,,,,,,,,,0,,,82,0
174360,note_off,100,0,1,,,,,,,,,0,,,81,0
174360,note_on,0,0,1,,,,,,,,,0,,,80,52
174480,note_off,120,0,1,,,,,,,,,0,,,80,0
174480,note_on,0,0,1,,,,,,,,,0,,,81,53
174600,note_on,0,0,1,,,,,,,,,0,,,77,53
174600,note_off,360,0,4,,,,,,,,,3,,,61,0
174600,note_on,0,0,2,,,,,,,,,1,,,62,53
174600,note_on,0,0,2,,,,,,,,,1,,,65,53
174600,note_off,353,0,2,,,,,,,,,1,,,64,0
174600,note_off,120,0,1,,,,,,,,,0,,,81,0
174660,set_tempo,420,1,0,,,,,,560747,,,,,,,
174720,note_off,120,0,2,,,,,,,,,1,,,62,0
174720,note_off,0,0,2,,,,,,,,,1,,,65,0
174720,note_on,0,0,2,,,,,,,,,1,,,67,57
174720,note_off,120,0,1,,,,,,,,,0,,,77,0
174720,note_on,0,0,1,,,,,,,,,0,,,79,57
174720,note_on,120,0,4,,,,,,,,,3,,,58,57
174720,note_on,0,0,2,,,,,,,,,1,,,62,57
174727,note_off,7,0,2,,,,,,,,,1,,,69,0
174798,note_off,78,0,1,,,,,,,,,0,,,79,0
174840,note_on,42,0,1,,,,,,,,,0,,,79,56
174918,note_off,78,0,1,,,,,,,,,0,,,79,0
174960,note_on,42,0,1,,,,,,,,,0,,,79,54
175038,note_off,78,0,1,,,,,,,,,0,,,79,0
175080,set_tempo,420,1,0,,,,,,571428,,,,,,,
175080,note_on,42,0,1,,,,,,,,,0,,,79,53
175158,note_off,78,0,1,,,,,,,,,0,,,79,0
175160,note_on,2,0,1,,,,,,,,,0,,,81,52
175200,note_off,473,0,2,,,,,,,,,1,,,62,0
175200,note_off,0,0,2,,,,,,,,,1,,,67,0
175200,note_on,0,0,2,,,,,,,,,1,,,62,52
175200,note_on,40,0,1,,,,,,,,,0,,,79,52
175200,set_tempo,120,1,0,,,,,,560747,,,,,,,
175220,note_off,20,0,1,,,,,,,,,0,,,81,0
175320,note_off,100,0,1,,,,,,,,,0,,,79,0
175320,note_on,0,0,1,,,,,,,,,0,,,78,50
175440,note_off,120,0,1,,,,,,,,,0,,,78,0
175440,note_on,0,0,1,,,,,,,,,0,,,79,49
175560,note_off,120,0,1,,,,,,,,,0,,,79,0
175560,note_on,0,0,1,,,,,,,,,0,,,74,47
175560,set_tempo,360,1,0,,,,,,571428,,,,,,,
175560,note_on,0,0,2,,,,,,,,,1,,,67,47
175560,note_off,360,0,2,,,,,,,,,1,,,62,0
175620,set_tempo,60,1,0,,,,,,571428,,,,,,,
175640,note_on,80,0,1,,,,,,,,,0,,,77,46
175650,note_off,10,0,1,,,,,,,,,0,,,74,0
175680,note_off,120,0,2,,,,,,,,,1,,,67,0
175680,note_on,30,0,1,,,,,,,,,0,,,76,46
175680,note_off,960,0,4,,,,,,,,,3,,,58,0
175680,note_on,0,0,4,,,,,,,,,3,,,60,46
175680,note_on,0,0,2,,,,,,,,,1,,,67,46
175700,note_off,20,0,1,,,,,,,,,0,,,77,0
175800,note_on,0,0,1,,,,,,,,,0,,,75,45
175800,note_off,100,0,1,,,,,,,,,0,,,76,0
175920,note_off,120,0,1,,,,,,,,,0,,,75,0
175920,note_on,0,0,1,,,,,,,,,0,,,76,43
176040,note_off,120,0,1,,,,,,,,,0,,,76,0
176040,note_on,0,0,1,,,,,,,,,0,,,79,42
176040,note_on,0,0,2,,,,,,,,,1,,,64,42
176040,note_off,360,0,2,,,,,,,,,1,,,67,0
176160,set_tempo,540,1,0,,,,,,625000,,,,,,,
176160,note_off,120,0,2,,,,,,,,,1,,,64,0
176160,note_on,0,0,2,,,,,,,,,1,,,65,40
176160,note_on,0,0,4,,,,,,,,,3,,,53,40
176160,note_on,0,0,1,,,,,,,,,0,,,77,40
176160,note_off,120,0,1,,,,,,,,,0,,,79,0
176160,note_off,480,0,4,,,,,,,,,3,,,60,0
176400,note_off,240,0,1,,,,,,,,,0,,,77,0
176400,note_off,240,0,2,,,,,,,,,1,,,65,0
176400,note_off,240,0,4,,,,,,,,,3,,,53,0
176640,note_on,240,0,1,,,,,,,,,0,,,53,40
176640,set_tempo,480,1,0,,,,,,550458,,,,,,,
176700,note_on,0,0,1,,,,,,,,,0,,,55,40
176700,note_off,60,0,1,,,,,,,,,0,,,53,0
176760,note_off,60,0,1,,,,,,,,,0,,,55,0
176760,note_on,0,0,1,,,,,,,,,0,,,53,40
176820,note_off,60,0,1,,,,,,,,,0,,,53,0
176820,note_on,0,0,1,,,,,,,,,0,,,52,40
176880,note_off,60,0,1,,,,,,,,,0,,,52,0
176880,note_on,0,0,1,,,,,,,,,0,,,53,40
176920,note_off,40,0,1,,,,,,,,,0,,,53,0
176920,note_on,0,0,1,,,,,,,,,0,,,55,40
176960,note_on,0,0,1,,,,,,,,,0,,,57,40
176960,note_off,40,0,1,,,,,,,,,0,,,55,0
177000,note_on,0,0,1,,,,,,,,,0,,,58,40
177000,set_tempo,360,1,0,,,,,,560747,,,,,,,
177000,note_off,40,0,1,,,,,,,,,0,,,57,0
177060,set_tempo,60,1,0,,,,,,588235,,,,,,,
177060,note_off,60,0,1,,,,,,,,,0,,,58,0
177060,note_on,0,0,1,,,,,,,,,0,,,60,40
177120,set_tempo,60,1,0,,,,,,540540,,,,,,,
177120,note_off,60,0,1,,,,,,,,,0,,,60,0
177120,note_on,720,0,4,,,,,,,,,3,,,41,40
177120,note_on,0,0,1,,,,,,,,,0,,,61,40
177240,note_on,0,0,1,,,,,,,,,0,,,62,41
177240,note_off,120,0,1,,,,,,,,,0,,,61,0
177318,note_off,78,0,1,,,,,,,,,0,,,62,0
177360,note_on,42,0,1,,,,,,,,,0,,,62,41
177438,note_off,78,0,1,,,,,,,,,0,,,62,0
177480,note_on,42,0,1,,,,,,,,,0,,,62,41
177540,set_tempo,420,1,0,,,,,,550458,,,,,,,
177558,note_off,78,0,1,,,,,,,,,0,,,62,0
177600,note_on,6960,0,3,,,,,,,,,2,,,46,41
177600,note_on,42,0,1,,,,,,,,,0,,,62,41
177678,note_off,78,0,1,,,,,,,,,0,,,62,0
177720,note_on,42,0,1,,,,,,,,,0,,,62,41
177798,note_off,78,0,1,,,,,,,,,0,,,62,0
177840,note_on,42,0,1,,,,,,,,,0,,,62,42
177918,note_off,78,0,1,,,,,,,,,0,,,62,0
177960,set_tempo,420,1,0,,,,,,560747,,,,,,,
177960,note_on,42,0,1,,,,,,,,,0,,,62,42
178038,note_off,78,0,1,,,,,,,,,0,,,62,0
178040,note_on,2,0,1,,,,,,,,,0,,,64,42
178080,note_on,0,0,4,,,,,,,,,3,,,43,42
178080,note_on,40,0,1,,,,,,,,,0,,,62,42
178080,note_on,0,0,3,,,,,,,,,2,,,52,42
178080,note_off,480,0,3,,,,,,,,,2,,,46,0
178080,set_tempo,120,1,0,,,,,,550458,,,,,,,
178080,note_off,960,0,4,,,,,,,,,3,,,41,0
178100,note_off,20,0,1,,,,,,,,,0,,,64,0
178200,note_off,100,0,1,,,,,,,,,0,,,62,0
178200,note_on,0,0,1,,,,,,,,,0,,,61,42
178320,note_on,120,0,1,,,,,,,,,0,,,62,42
178325,note_off,5,0,1,,,,,,,,,0,,,61,0
178435,note_off,110,0,1,,,,,,,,,0,,,62,0
178440,note_on,5,0,1,,,,,,,,,0,,,59,43
178500,set_tempo,420,1,0,,,,,,560747,,,,,,,
178520,note_on,80,0,1,,,,,,,,,0,,,62,42
178530,note_off,10,0,1,,,,,,,,,0,,,59,0
178560,note_on,30,0,1,,,,,,,,,0,,,60,42
178560,note_on,0,0,4,,,,,,,,,3,,,41,42
178560,note_off,480,0,3,,,,,,,,,2,,,52,0
178560,note_on,0,0,3,,,,,,,,,2,,,45,42
178560,note_off,480,0,4,,,,,,,,,3,,,43,0
178580,note_off,20,0,1,,,,,,,,,0,,,62,0
178680,note_on,100,0,1,,,,,,,,,0,,,59,41
178685,note_off,5,0,1,,,,,,,,,0,,,60,0
178800,note_on,115,0,1,,,,,,,,,0,,,60,39
178805,note_off,5,0,1,,,,,,,,,0,,,59,0
178920,note_off,115,0,1,,,,,,,,,0,,,60,0
178920,note_on,0,0,1,,,,,,,,,0,,,57,38
178980,set_tempo,480,1,0,,,,,,571428,,,,,,,
178998,note_off,78,0,1,,,,,,,,,0,,,57,0
179040,note_on,480,0,3,,,,,,,,,2,,,48,38
179040,note_on,42,0,1,,,,,,,,,0,,,53,38
179100,set_tempo,120,1,0,,,,,,550458,,,,,,,
179120,note_on,0,0,1,,,,,,,,,0,,,55,38
179120,note_off,80,0,1,,,,,,,,,0,,,53,0
179200,note_off,80,0,1,,,,,,,,,0,,,55,0
179200,note_on,0,0,1,,,,,,,,,0,,,57,39
179280,note_off,80,0,1,,,,,,,,,0,,,57,0
179280,note_off,0,0,3,,,,,,,,,2,,,45,0
179280,note_off,240,0,3,,,,,,,,,2,,,48,0
179280,note_off,720,0,4,,,,,,,,,3,,,41,0
179280,note_on,0,0,1,,,,,,,,,0,,,58,39
179360,note_on,0,0,1,,,,,,,,,0,,,60,39
179360,note_off,80,0,1,,,,,,,,,0,,,58,0
179440,note_on,0,0,1,,,,,,,,,0,,,62,40
179440,note_off,80,0,1,,,,,,,,,0,,,60,0
179520,note_on,0,0,1,,,,,,,,,0,,,64,40
179520,note_off,80,0,1,,,,,,,,,0,,,62,0
179600,note_on,0,0,1,,,,,,,,,0,,,65,41
179600,note_off,80,0,1,,,,,,,,,0,,,64,0
179680,note_on,0,0,1,,,,,,,,,0,,,67,41
179680,note_off,80,0,1,,,,,,,,,0,,,65,0
179760,note_on,0,0,1,,,,,,,,,0,,,69,41
179760,note_off,80,0,1,,,,,,,,,0,,,67,0
179840,note_off,80,0,1,,,,,,,,,0,,,69,0
179840,note_on,0,0,1,,,,,,,,,0,,,70,42
179880,set_tempo,780,1,0,,,,,,560747,,,,,,,
179920,note_off,80,0,1,,,,,,,,,0,,,70,0
179920,note_on,0,0,1,,,,,,,,,0,,,72,42
179940,set_tempo,60,1,0,,,,,,582524,,,,,,,
180000,note_on,720,0,4,,,,,,,,,3,,,53,42
180000,set_tempo,60,1,0,,,,,,540540,,,,,,,
180000,note_on,0,0,1,,,,,,,,,0,,,73,42
180000,note_off,80,0,1,,,,,,,,,0,,,72,0
180080,note_off,80,0,1,,,,,,,,,0,,,73,0
180080,note_on,0,0,1,,,,,,,,,0,,,74,43
180160,note_off,80,0,1,,,,,,,,,0,,,74,0
180160,note_on,0,0,1,,,,,,,,,0,,,73,43
180240,note_on,0,0,1,,,,,,,,,0,,,74,44
180240,note_off,80,0,1,,,,,,,,,0,,,73,0
180320,note_off,80,0,1,,,,,,,,,0,,,74,0
180320,note_on,0,0,1,,,,,,,,,0,,,73,44
180400,note_off,80,0,1,,,,,,,,,0,,,73,0
180400,note_on,0,0,1,,,,,,,,,0,,,74,44
180420,set_tempo,420,1,0,,,,,,550458,,,,,,,
180480,note_on,0,0,1,,,,,,,,,0,,,73,45
180480,note_on,1200,0,3,,,,,,,,,2,,,58,45
180480,note_off,80,0,1,,,,,,,,,0,,,74,0
180560,note_on,0,0,1,,,,,,,,,0,,,74,45
180560,note_off,80,0,1,,,,,,,,,0,,,73,0
180640,note_off,80,0,1,,,,,,,,,0,,,74,0
180640,note_on,0,0,1,,,,,,,,,0,,,73,46
180720,note_off,80,0,1,,,,,,,,,0,,,73,0
180720,note_on,0,0,1,,,,,,,,,0,,,74,46
180780,note_off,60,0,1,,,,,,,,,0,,,74,0
180780,note_on,0,0,1,,,,,,,,,0,,,73,46
180840,note_on,0,0,1,,,,,,,,,0,,,74,47
180840,note_off,60,0,1,,,,,,,,,0,,,73,0
180900,note_off,60,0,1,,,,,,,,,0,,,74,0
180900,note_on,0,0,1,,,,,,,,,0,,,73,47
180960,note_on,0,0,4,,,,,,,,,3,,,55,47
180960,note_off,960,0,4,,,,,,,,,3,,,53,0
180960,note_off,60,0,1,,,,,,,,,0,,,73,0
180960,note_off,480,0,3,,,,,,,,,2,,,58,0
180960,note_on,0,0,1,,,,,,,,,0,,,74,47
180960,note_on,0,0,3,,,,,,,,,2,,,64,47
181040,note_off,80,0,1,,,,,,,,,0,,,74,0
181040,note_on,0,0,1,,,,,,,,,0,,,76,48
181120,note_on,0,0,1,,,,,,,,,0,,,74,48
181120,note_off,80,0,1,,,,,,,,,0,,,76,0
181200,note_on,0,0,1,,,,,,,,,0,,,72,48
181200,note_off,80,0,1,,,,,,,,,0,,,74,0
181280,note_on,0,0,1,,,,,,,,,0,,,74,49
181280,note_off,80,0,1,,,,,,,,,0,,,72,0
181360,note_off,80,0,1,,,,,,,,,0,,,74,0
181360,note_on,0,0,1,,,,,,,,,0,,,71,49
181380,set_tempo,960,1,0,,,,,,560747,,,,,,,
181440,note_off,80,0,1,,,,,,,,,0,,,71,0
181440,note_on,0,0,4,,,,,,,,,3,,,53,47
181440,note_on,0,0,3,,,,,,,,,2,,,57,47
181440,note_off,480,0,3,,,,,,,,,2,,,64,0
181440,note_off,480,0,4,,,,,,,,,3,,,55,0
181440,note_on,0,0,1,,,,,,,,,0,,,72,47
181520,note_on,0,0,1,,,,,,,,,0,,,74,46
181520,note_off,80,0,1,,,,,,,,,0,,,72,0
181600,note_off,80,0,1,,,,,,,,,0,,,74,0
181600,note_on,0,0,1,,,,,,,,,0,,,72,46
181680,note_off,80,0,1,,,,,,,,,0,,,72,0
181680,note_on,0,0,1,,,,,,,,,0,,,71,45
181760,note_off,80,0,1,,,,,,,,,0,,,71,0
181760,note_on,0,0,1,,,,,,,,,0,,,72,44
181840,note_on,0,0,1,,,,,,,,,0,,,69,43
181840,note_off,80,0,1,,,,,,,,,0,,,72,0
181920,set_tempo,540,1,0,,,,,,571428,,,,,,,
181920,note_off,80,0,1,,,,,,,,,0,,,69,0
181920,note_on,0,0,1,,,,,,,,,0,,,65,43
181920,note_on,480,0,3,,,,,,,,,2,,,60,43
181980,set_tempo,60,1,0,,,,,,560747,,,,,,,
182000,note_on,0,0,1,,,,,,,,,0,,,67,42
182000,note_off,80,0,1,,,,,,,,,0,,,65,0
182080,note_off,80,0,1,,,,,,,,,0,,,67,0
182080,note_on,0,0,1,,,,,,,,,0,,,69,42
182160,note_off,80,0,1,,,,,,,,,0,,,69,0
182160,note_on,0,0,1,,,,,,,,,0,,,70,42
182160,note_off,0,0,3,,,,,,,,,2,,,57,0
182160,note_off,240,0,3,,,,,,,,,2,,,60,0
182160,note_off,720,0,4,,,,,,,,,3,,,53,0
182240,note_on,0,0,1,,,,,,,,,0,,,72,43
182240,note_off,80,0,1,,,,,,,,,0,,,70,0
182320,note_on,0,0,1,,,,,,,,,0,,,74,43
182320,note_off,80,0,1,,,,,,,,,0,,,72,0
182400,note_off,80,0,1,,,,,,,,,0,,,74,0
182400,note_on,0,0,1,,,,,,,,,0,,,76,43
182480,note_off,80,0,1,,,,,,,,,0,,,76,0
182480,note_on,0,0,1,,,,,,,,,0,,,77,44
182560,note_off,80,0,1,,,,,,,,,0,,,77,0
182560,note_on,0,0,1,,,,,,,,,0,,,79,44
182640,note_off,80,0,1,,,,,,,,,0,,,79,0
182640,note_on,0,0,1,,,,,,,,,0,,,81,44
182720,note_off,80,0,1,,,,,,,,,0,,,81,0
182720,note_on,0,0,1,,,,,,,,,0,,,82,44
182760,set_tempo,780,1,0,,,,,,571428,,,,,,,
182800,note_off,80,0,1,,,,,,,,,0,,,82,0
182800,note_on,0,0,1,,,,,,,,,0,,,84,45
182820,set_tempo,60,1,0,,,,,,588235,,,,,,,
182880,note_off,80,0,1,,,,,,,,,0,,,84,0
182880,set_tempo,60,1,0,,,,,,550458,,,,,,,
182880,note_on,0,0,1,,,,,,,,,0,,,85,45
182960,note_off,80,0,1,,,,,,,,,0,,,85,0
182960,note_on,0,0,1,,,,,,,,,0,,,86,45
183040,note_off,80,0,1,,,,,,,,,0,,,86,0
183040,note_on,0,0,1,,,,,,,,,0,,,85,46
183120,note_off,80,0,1,,,,,,,,,0,,,85,0
183120,note_on,0,0,1,,,,,,,,,0,,,86,46
183200,note_off,80,0,1,,,,,,,,,0,,,86,0
183200,note_on,0,0,1,,,,,,,,,0,,,85,46
183240,set_tempo,360,1,0,,,,,,560747,,,,,,,
183280,note_off,80,0,1,,,,,,,,,0,,,85,0
183280,note_on,0,0,1,,,,,,,,,0,,,86,47
183360,note_off,80,0,1,,,,,,,,,0,,,86,0
183360,note_on,0,0,2,,,,,,,,,1,,,74,47
183360,note_on,6960,0,2,,,,,,,,,1,,,70,47
183360,note_on,1200,0,4,,,,,,,,,3,,,65,47
183360,note_on,0,0,1,,,,,,,,,0,,,85,47
183440,note_on,0,0,1,,,,,,,,,0,,,86,47
183440,note_off,80,0,1,,,,,,,,,0,,,85,0
183520,note_off,80,0,1,,,,,,,,,0,,,86,0
183520,note_on,0,0,1,,,,,,,,,0,,,85,47
183600,note_off,80,0,1,,,,,,,,,0,,,85,0
183600,note_on,0,0,1,,,,,,,,,0,,,86,48
183660,note_on,0,0,1,,,,,,,,,0,,,85,48
183660,note_off,60,0,1,,,,,,,,,0,,,86,0
183720,note_off,60,0,1,,,,,,,,,0,,,85,0
183720,note_on,0,0,1,,,,,,,,,0,,,86,48
183780,note_off,60,0,1,,,,,,,,,0,,,86,0
183780,note_on,0,0,1,,,,,,,,,0,,,85,48
183840,note_on,0,0,4,,,,,,,,,3,,,67,49
183840,note_off,480,0,4,,,,,,,,,3,,,65,0
183840,note_on,0,0,1,,,,,,,,,0,,,86,49
183840,note_off,60,0,1,,,,,,,,,0,,,85,0
183920,note_off,80,0,1,,,,,,,,,0,,,86,0
183920,note_on,0,0,1,,,,,,,,,0,,,88,49
184000,note_off,80,0,1,,,,,,,,,0,,,88,0
184000,note_on,0,0,1,,,,,,,,,0,,,86,49
184080,note_on,0,0,1,,,,,,,,,0,,,84,50
184080,note_off,80,0,1,,,,,,,,,0,,,86,0
184160,note_off,80,0,1,,,,,,,,,0,,,84,0
184160,note_on,0,0,1,,,,,,,,,0,,,86,50
184200,note_on,0,0,4,,,,,,,,,3,,,65,50
184200,note_off,360,0,4,,,,,,,,,3,,,67,0
184200,note_off,840,0,2,,,,,,,,,1,,,70,0
184200,note_on,0,0,2,,,,,,,,,1,,,67,50
184240,note_on,0,0,1,,,,,,,,,0,,,83,50
184240,note_off,80,0,1,,,,,,,,,0,,,86,0
184260,set_tempo,1020,1,0,,,,,,571428,,,,,,,
184320,note_off,0,0,2,,,,,,,,,1,,,74,0
184320,note_on,0,0,1,,,,,,,,,0,,,84,51
184320,set_tempo,60,1,0,,,,,,550458,,,,,,,
184320,note_off,120,0,2,,,,,,,,,1,,,67,0
184320,note_on,0,0,2,,,,,,,,,1,,,72,51
184320,note_off,80,0,1,,,,,,,,,0,,,83,0
184320,note_off,120,0,4,,,,,,,,,3,,,65,0
184320,note_on,0,0,4,,,,,,,,,3,,,64,51
184320,note_on,0,0,2,,,,,,,,,1,,,67,51
184400,note_off,80,0,1,,,,,,,,,0,,,84,0
184400,note_on,0,0,1,,,,,,,,,0,,,86,51
184480,note_on,0,0,1,,,,,,,,,0,,,84,51
184480,note_off,80,0,1,,,,,,,,,0,,,86,0
184560,note_off,80,0,1,,,,,,,,,0,,,84,0
184560,note_on,0,0,1,,,,,,,,,0,,,83,51
184640,note_on,0,0,1,,,,,,,,,0,,,84,52
184640,note_off,80,0,1,,,,,,,,,0,,,83,0
184680,note_off,360,0,4,,,,,,,,,3,,,64,0
184680,note_off,360,0,2,,,,,,,,,1,,,67,0
184680,note_on,0,0,2,,,,,,,,,1,,,69,52
184680,note_on,0,0,4,,,,,,,,,3,,,65,52
184720,note_on,0,0,1,,,,,,,,,0,,,81,52
184720,note_off,80,0,1,,,,,,,,,0,,,84,0
184740,set_tempo,420,1,0,,,,,,560747,,,,,,,
184800,note_off,0,0,2,,,,,,,,,1,,,72,0
184800,note_on,0,0,1,,,,,,,,,0,,,82,52
184800,note_on,0,0,2,,,,,,,,,1,,,70,52
184800,note_on,0,0,2,,,,,,,,,1,,,65,52
184800,note_off,120,0,2,,,,,,,,,1,,,69,0
184800,note_off,120,0,4,,,,,,,,,3,,,65,0
184800,note_on,0,0,4,,,,,,,,,3,,,62,52
184800,note_off,80,0,1,,,,,,,,,0,,,81,0
184880,note_off,80,0,1,,,,,,,,,0,,,82,0
184880,note_on,0,0,1,,,,,,,,,0,,,81,53
184960,note_off,80,0,1,,,,,,,,,0,,,81,0
184960,note_on,0,0,1,,,,,,,,,0,,,82,53
185040,note_off,80,0,1,,,,,,,,,0,,,82,0
185040,note_on,0,0,1,,,,,,,,,0,,,81,53
185120,note_on,0,0,1,,,,,,,,,0,,,82,54
185120,note_off,80,0,1,,,,,,,,,0,,,81,0
185200,note_off,80,0,1,,,,,,,,,0,,,82,0
185200,note_on,0,0,1,,,,,,,,,0,,,81,54
185280,note_on,0,0,2,,,,,,,,,1,,,67,54
185280,note_on,0,0,4,,,,,,,,,3,,,64,54
185280,note_off,480,0,2,,,,,,,,,1,,,65,0
185280,note_off,480,0,4,,,,,,,,,3,,,62,0
185280,note_off,80,0,1,,,,,,,,,0,,,81,0
185280,note_on,0,0,1,,,,,,,,,0,,,82,54
185360,note_off,80,0,1,,,,,,,,,0,,,82,0
185360,note_on,0,0,1,,,,,,,,,0,,,84,54
185440,note_off,80,0,1,,,,,,,,,0,,,84,0
185440,note_on,0,0,1,,,,,,,,,0,,,82,55
185520,note_off,80,0,1,,,,,,,,,0,,,82,0
185520,note_on,0,0,1,,,,,,,,,0,,,81,55
185600,note_on,0,0,1,,,,,,,,,0,,,82,55
185600,note_off,80,0,1,,,,,,,,,0,,,81,0
185640,note_off,360,0,4,,,,,,,,,3,,,64,0
185640,note_on,0,0,2,,,,,,,,,1,,,65,55
185640,note_off,360,0,2,,,,,,,,,1,,,67,0
185640,note_on,0,0,4,,,,,,,,,3,,,62,55
185680,note_off,80,0,1,,,,,,,,,0,,,82,0
185680,note_on,0,0,1,,,,,,,,,0,,,80,56
185700,set_tempo,960,1,0,,,,,,571428,,,,,,,
185760,note_on,0,0,2,,,,,,,,,1,,,69,56
185760,note_off,0,0,2,,,,,,,,,1,,,70,0
185760,note_on,0,0,2,,,,,,,,,1,,,64,56
185760,note_off,120,0,4,,,,,,,,,3,,,62,0
185760,note_off,120,0,2,,,,,,,,,1,,,65,0
185760,note_on,0,0,4,,,,,,,,,3,,,61,56
185760,set_tempo,60,1,0,,,,,,550458,,,,,,,
185760,note_on,0,0,1,,,,,,,,,0,,,81,56
185760,note_off,80,0,1,,,,,,,,,0,,,80,0
185840,note_on,0,0,1,,,,,,,,,0,,,82,56
185840,note_off,80,0,1,,,,,,,,,0,,,81,0
185920,note_on,0,0,1,,,,,,,,,0,,,81,57
185920,note_off,80,0,1,,,,,,,,,0,,,82,0
186000,note_on,0,0,1,,,,,,,,,0,,,80,57
186000,note_off,80,0,1,,,,,,,,,0,,,81,0
186080,note_on,0,0,1,,,,,,,,,0,,,81,57
186080,note_off,80,0,1,,,,,,,,,0,,,80,0
186120,note_off,360,0,4,,,,,,,,,3,,,61,0
186120,note_on,0,0,2,,,,,,,,,1,,,62,57
186120,note_on,0,0,2,,,,,,,,,1,,,65,57
186120,note_off,360,0,2,,,,,,,,,1,,,64,0
186160,note_off,80,0,1,,,,,,,,,0,,,81,0
186160,note_on,0,0,1,,,,,,,,,0,,,77,57
186180,set_tempo,420,1,0,,,,,,560747,,,,,,,
186240,note_on,120,0,4,,,,,,,,,3,,,58,58
186240,note_off,120,0,2,,,,,,,,,1,,,65,0
186240,note_off,0,0,2,,,,,,,,,1,,,62,0
186240,note_off,0,0,2,,,,,,,,,1,,,69,0
186240,note_on,0,0,2,,,,,,,,,1,,,62,58
186240,note_off,80,0,1,,,,,,,,,0,,,77,0
186240,note_on,0,0,1,,,,,,,,,0,,,79,58
186320,note_on,0,0,1,,,,,,,,,0,,,81,58
186320,note_off,80,0,1,,,,,,,,,0,,,79,0
186400,note_off,80,0,1,,,,,,,,,0,,,81,0
186400,note_on,0,0,1,,,,,,,,,0,,,79,58
186480,note_off,80,0,1,,,,,,,,,0,,,79,0
186480,note_on,0,0,1,,,,,,,,,0,,,78,59
186560,note_off,80,0,1,,,,,,,,,0,,,78,0
186560,note_on,0,0,1,,,,,,,,,0,,,79,59
186600,note_on,0,0,4,,,,,,,,,3,,,59,59
186600,note_on,0,0,2,,,,,,,,,1,,,62,59
186600,note_off,360,0,2,,,,,,,,,1,,,62,0
186600,note_off,360,0,4,,,,,,,,,3,,,58,0
186640,note_off,80,0,1,,,,,,,,,0,,,79,0
186640,note_on,0,0,1,,,,,,,,,0,,,74,59
186720,note_on,0,0,1,,,,,,,,,0,,,76,60
186720,note_off,80,0,1,,,,,,,,,0,,,74,0
186720,note_off,120,0,4,,,,,,,,,3,,,59,0
186720,note_on,0,0,2,,,,,,,,,1,,,60,60
186720,note_on,0,0,2,,,,,,,,,1,,,64,60
186720,note_off,120,0,2,,,,,,,,,1,,,62,0
186800,note_on,0,0,1,,,,,,,,,0,,,77,60
186800,note_off,80,0,1,,,,,,,,,0,,,76,0
186880,note_on,0,0,1,,,,,,,,,0,,,76,60
186880,note_off,80,0,1,,,,,,,,,0,,,77,0
186960,note_off,80,0,1,,,,,,,,,0,,,76,0
186960,note_on,0,0,1,,,,,,,,,0,,,74,60
187040,note_on,0,0,1,,,,,,,,,0,,,76,61
187040,note_off,80,0,1,,,,,,,,,0,,,74,0
187080,note_on,360,0,4,,,,,,,,,3,,,58,61
187080,note_off,360,0,2,,,,,,,,,1,,,60,0
187080,note_off,0,0,2,,,,,,,,,1,,,64,0
187080,note_on,0,0,2,,,,,,,,,1,,,67,61
187120,note_off,80,0,1,,,,,,,,,0,,,76,0
187120,note_on,0,0,1,,,,,,,,,0,,,79,61
187140,set_tempo,960,1,0,,,,,,571428,,,,,,,
187200,note_on,0,0,2,,,,,,,,,1,,,65,65
187200,note_off,120,0,2,,,,,,,,,1,,,67,0
187200,set_tempo,60,1,0,,,,,,550458,,,,,,,
187200,note_off,120,0,4,,,,,,,,,3,,,58,0
187200,note_off,80,0,1,,,,,,,,,0,,,79,0
187200,note_on,0,0,4,,,,,,,,,3,,,57,65
187200,note_on,0,0,1,,,,,,,,,0,,,77,65
187280,note_off,80,0,1,,,,,,,,,0,,,77,0
187280,note_on,0,0,1,,,,,,,,,0,,,79,65
187360,note_off,80,0,1,,,,,,,,,0,,,79,0
187360,note_on,0,0,1,,,,,,,,,0,,,77,65
187440,note_off,80,0,1,,,,,,,,,0,,,77,0
187440,note_on,0,0,1,,,,,,,,,0,,,76,64
187520,note_off,80,0,1,,,,,,,,,0,,,76,0
187520,note_on,0,0,1,,,,,,,,,0,,,77,64
187560,note_off,360,0,4,,,,,,,,,3,,,57,0
187560,note_on,0,0,2,,,,,,,,,1,,,60,64
187560,note_on,0,0,2,,,,,,,,,1,,,64,64
187560,note_off,360,0,2,,,,,,,,,1,,,65,0
187600,note_on,0,0,1,,,,,,,,,0,,,76,64
187600,note_off,80,0,1,,,,,,,,,0,,,77,0
187620,set_tempo,420,1,0,,,,,,560747,,,,,,,
187680,note_on,0,0,2,,,,,,,,,1,,,62,63
187680,note_off,0,0,2,,,,,,,,,1,,,64,0
187680,note_off,120,0,2,,,,,,,,,1,,,60,0
187680,note_on,120,0,4,,,,,,,,,3,,,58,63
187680,note_off,80,0,1,,,,,,,,,0,,,76,0
187680,note_on,0,0,1,,,,,,,,,0,,,74,63
187760,note_off,80,0,1,,,,,,,,,0,,,74,0
187760,note_on,0,0,1,,,,,,,,,0,,,76,63
187840,note_on,0,0,1,,,,,,,,,0,,,74,62
187840,note_off,80,0,1,,,,,,,,,0,,,76,0
187920,note_on,0,0,1,,,,,,,,,0,,,73,62
187920,note_off,80,0,1,,,,,,,,,0,,,74,0
188000,note_on,0,0,1,,,,,,,,,0,,,74,62
188000,note_off,80,0,1,,,,,,,,,0,,,73,0
188040,note_off,360,0,2,,,,,,,,,1,,,62,0
188040,note_on,0,0,2,,,,,,,,,1,,,65,62
188040,note_on,0,0,4,,,,,,,,,3,,,57,62
188040,note_off,360,0,4,,,,,,,,,3,,,58,0
188080,note_off,80,0,1,,,,,,,,,0,,,74,0
188080,note_on,0,0,1,,,,,,,,,0,,,77,61
188100,set_tempo,480,1,0,,,,,,571428,,,,,,,
188160,note_on,0,0,4,,,,,,,,,3,,,55,61
188160,note_on,0,0,1,,,,,,,,,0,,,76,61
188160,note_off,80,0,1,,,,,,,,,0,,,77,0
188160,note_off,120,0,2,,,,,,,,,1,,,65,0
188160,note_on,0,0,2,,,,,,,,,1,,,64,61
188160,set_tempo,60,1,0,,,,,,560747,,,,,,,
188160,note_off,120,0,4,,,,,,,,,3,,,57,0
188240,note_off,80,0,1,,,,,,,,,0,,,76,0
188240,note_on,0,0,1,,,,,,,,,0,,,77,61
188320,note_off,80,0,1,,,,,,,,,0,,,77,0
188320,note_on,0,0,1,,,,,,,,,0,,,76,60
188400,note_on,0,0,1,,,,,,,,,0,,,74,60
188400,note_off,80,0,1,,,,,,,,,0,,,76,0
188480,note_off,80,0,1,,,,,,,,,0,,,74,0
188480,note_on,0,0,1,,,,,,,,,0,,,76,60
188520,note_off,360,0,2,,,,,,,,,1,,,64,0
188520,note_on,0,0,2,,,,,,,,,1,,,62,59
188520,note_on,0,0,4,,,,,,,,,3,,,58,59
188520,note_off,360,0,4,,,,,,,,,3,,,55,0
188560,note_on,0,0,1,,,,,,,,,0,,,74,59
188560,note_off,80,0,1,,,,,,,,,0,,,76,0
188640,note_off,80,0,1,,,,,,,,,0,,,74,0
188640,note_off,120,0,4,,,,,,,,,3,,,58,0
188640,note_on,0,0,4,,,,,,,,,3,,,57,59
188640,note_off,120,0,2,,,,,,,,,1,,,62,0
188640,note_on,0,0,2,,,,,,,,,1,,,60,59
188640,note_on,0,0,1,,,,,,,,,0,,,72,59
188720,note_off,80,0,1,,,,,,,,,0,,,72,0
188720,note_on,0,0,1,,,,,,,,,0,,,74,58
188800,note_off,80,0,1,,,,,,,,,0,,,74,0
188800,note_on,0,0,1,,,,,,,,,0,,,72,58
188880,note_on,0,0,1,,,,,,,,,0,,,71,58
188880,note_off,80,0,1,,,,,,,,,0,,,72,0
188960,note_off,80,0,1,,,,,,,,,0,,,71,0
188960,note_on,0,0,1,,,,,,,,,0,,,72,57
189000,note_on,0,0,2,,,,,,,,,1,,,64,57
189000,note_off,360,0,2,,,,,,,,,1,,,60,0
189000,note_off,360,0,4,,,,,,,,,3,,,57,0
189000,note_on,0,0,4,,,,,,,,,3,,,55,57
189040,note_off,80,0,1,,,,,,,,,0,,,72,0
189040,note_on,0,0,1,,,,,,,,,0,,,76,57
189060,set_tempo,900,1,0,,,,,,571428,,,,,,,
189120,note_off,80,0,1,,,,,,,,,0,,,76,0
189120,set_tempo,60,1,0,,,,,,560747,,,,,,,
189120,note_on,0,0,4,,,,,,,,,3,,,54,57
189120,note_off,120,0,2,,,,,,,,,1,,,64,0
189120,note_on,0,0,1,,,,,,,,,0,,,74,57
189120,note_off,120,0,4,,,,,,,,,3,,,55,0
189120,note_on,0,0,2,,,,,,,,,1,,,62,57
189200,note_off,80,0,1,,,,,,,,,0,,,74,0
189200,note_on,0,0,1,,,,,,,,,0,,,76,56
189280,note_off,80,0,1,,,,,,,,,0,,,76,0
189280,note_on,0,0,1,,,,,,,,,0,,,74,56
189360,note_off,80,0,1,,,,,,,,,0,,,74,0
189360,note_on,0,0,1,,,,,,,,,0,,,72,55
189440,note_off,80,0,1,,,,,,,,,0,,,72,0
189440,note_on,0,0,1,,,,,,,,,0,,,74,55
189480,note_on,0,0,2,,,,,,,,,1,,,60,55
189480,note_off,360,0,4,,,,,,,,,3,,,54,0
189480,note_on,0,0,4,,,,,,,,,3,,,57,55
189480,note_off,360,0,2,,,,,,,,,1,,,62,0
189520,note_on,0,0,1,,,,,,,,,0,,,72,55
189520,note_off,80,0,1,,,,,,,,,0,,,74,0
189600,note_on,0,0,1,,,,,,,,,0,,,70,54
189600,note_off,80,0,1,,,,,,,,,0,,,72,0
189600,note_off,120,0,2,,,,,,,,,1,,,60,0
189600,note_on,0,0,2,,,,,,,,,1,,,55,54
189600,note_on,0,0,4,,,,,,,,,3,,,58,54
189600,note_off,120,0,4,,,,,,,,,3,,,57,0
189680,note_on,0,0,1,,,,,,,,,0,,,72,54
189680,note_off,80,0,1,,,,,,,,,0,,,70,0
189760,note_on,0,0,1,,,,,,,,,0,,,70,54
189760,note_off,80,0,1,,,,,,,,,0,,,72,0
189840,note_off,80,0,1,,,,,,,,,0,,,70,0
189840,note_on,0,0,1,,,,,,,,,0,,,69,53
189920,note_off,80,0,1,,,,,,,,,0,,,69,0
189920,note_on,0,0,1,,,,,,,,,0,,,70,53
189960,note_off,360,0,4,,,,,,,,,3,,,58,0
189960,note_on,0,0,4,,,,,,,,,3,,,53,53
189960,note_off,360,0,2,,,,,,,,,1,,,55,0
189960,note_on,0,0,2,,,,,,,,,1,,,62,53
190000,note_off,80,0,1,,,,,,,,,0,,,70,0
190000,note_on,0,0,1,,,,,,,,,0,,,74,53
190020,set_tempo,900,1,0,,,,,,571428,,,,,,,
190080,note_off,120,0,4,,,,,,,,,3,,,53,0
190080,note_on,0,0,4,,,,,,,,,3,,,52,52
190080,note_on,0,0,1,,,,,,,,,0,,,72,52
190080,note_off,120,0,2,,,,,,,,,1,,,62,0
190080,note_on,0,0,2,,,,,,,,,1,,,60,52
190080,note_off,80,0,1,,,,,,,,,0,,,74,0
190160,note_off,80,0,1,,,,,,,,,0,,,72,0
190160,note_on,0,0,1,,,,,,,,,0,,,74,52
190240,note_off,80,0,1,,,,,,,,,0,,,74,0
190240,note_on,0,0,1,,,,,,,,,0,,,72,51
190320,note_off,80,0,1,,,,,,,,,0,,,72,0
190320,note_on,0,0,1,,,,,,,,,0,,,70,51
190400,note_on,0,0,1,,,,,,,,,0,,,72,51
190400,note_off,80,0,1,,,,,,,,,0,,,70,0
190440,note_on,0,0,4,,,,,,,,,3,,,55,50
190440,note_off,360,0,4,,,,,,,,,3,,,52,0
190440,note_off,360,0,2,,,,,,,,,1,,,60,0
190440,note_on,0,0,2,,,,,,,,,1,,,58,50
190480,note_off,80,0,1,,,,,,,,,0,,,72,0
190480,note_on,0,0,1,,,,,,,,,0,,,70,50
190560,note_off,80,0,1,,,,,,,,,0,,,70,0
190560,note_on,0,0,2,,,,,,,,,1,,,57,50
190560,note_off,120,0,2,,,,,,,,,1,,,58,0
190560,note_on,0,0,1,,,,,,,,,0,,,69,50
190560,note_on,0,0,4,,,,,,,,,3,,,53,50
190560,note_off,120,0,4,,,,,,,,,3,,,55,0
190640,note_off,80,0,1,,,,,,,,,0,,,69,0
190640,note_on,0,0,1,,,,,,,,,0,,,70,50
190720,note_off,80,0,1,,,,,,,,,0,,,70,0
190720,note_on,0,0,1,,,,,,,,,0,,,72,49
190800,note_off,80,0,1,,,,,,,,,0,,,72,0
190800,note_on,0,0,1,,,,,,,,,0,,,70,49
190880,note_off,80,0,1,,,,,,,,,0,,,70,0
190880,note_on,0,0,1,,,,,,,,,0,,,69,48
190920,note_on,0,0,2,,,,,,,,,1,,,58,48
190920,note_off,360,0,2,,,,,,,,,1,,,57,0
190920,note_off,360,0,4,,,,,,,,,3,,,53,0
190920,note_on,0,0,4,,,,,,,,,3,,,55,48
190960,note_on,0,0,1,,,,,,,,,0,,,67,48
190960,note_off,80,0,1,,,,,,,,,0,,,69,0
190980,set_tempo,960,1,0,,,,,,582524,,,,,,,
191040,note_off,80,0,1,,,,,,,,,0,,,67,0
191040,note_on,0,0,1,,,,,,,,,0,,,65,48
191040,note_on,0,0,4,,,,,,,,,3,,,57,48
191040,note_off,120,0,4,,,,,,,,,3,,,55,0
191040,note_on,0,0,2,,,,,,,,,1,,,60,48
191040,note_off,120,0,2,,,,,,,,,1,,,58,0
191120,note_off,80,0,1,,,,,,,,,0,,,65,0
191120,note_on,0,0,1,,,,,,,,,0,,,67,47
191200,note_off,80,0,1,,,,,,,,,0,,,67,0
191200,note_on,0,0,1,,,,,,,,,0,,,69,47
191280,note_off,80,0,1,,,,,,,,,0,,,69,0
191280,note_on,0,0,1,,,,,,,,,0,,,67,47
191360,note_on,0,0,1,,,,,,,,,0,,,65,46
191360,note_off,80,0,1,,,,,,,,,0,,,67,0
191370,set_tempo,390,1,0,,,,,,588235,,,,,,,
191400,note_on,0,0,2,,,,,,,,,1,,,48,46
191400,note_off,360,0,4,,,,,,,,,3,,,57,0
191400,note_off,360,0,2,,,,,,,,,1,,,60,0
191400,note_on,0,0,4,,,,,,,,,3,,,45,46
191440,note_off,80,0,1,,,,,,,,,0,,,65,0
191440,note_on,0,0,1,,,,,,,,,0,,,64,46
191440,set_tempo,70,1,0,,,,,,612244,,,,,,,
191520,note_off,120,0,4,,,,,,,,,3,,,45,0
191520,note_on,0,0,1,,,,,,,,,0,,,64,49
191520,note_off,80,0,1,,,,,,,,,0,,,64,0
191520,note_off,120,0,2,,,,,,,,,1,,,48,0
191520,note_on,0,0,2,,,,,,,,,1,,,50,49
191520,note_on,0,0,4,,,,,,,,,3,,,46,49
191580,note_on,60,0,1,,,,,,,,,0,,,62,44
191583,note_off,3,0,1,,,,,,,,,0,,,64,0
191600,set_tempo,160,1,0,,,,,,588235,,,,,,,
191640,note_on,57,0,1,,,,,,,,,0,,,61,44
191647,note_off,7,0,1,,,,,,,,,0,,,62,0
191700,note_on,53,0,1,,,,,,,,,0,,,62,45
191703,note_off,3,0,1,,,,,,,,,0,,,61,0
191760,note_off,57,0,1,,,,,,,,,0,,,62,0
191760,note_on,0,0,1,,,,,,,,,0,,,69,45
191820,note_on,60,0,1,,,,,,,,,0,,,67,45
191823,note_off,3,0,1,,,,,,,,,0,,,69,0
191880,note_on,57,0,1,,,,,,,,,0,,,66,46
191887,note_off,7,0,1,,,,,,,,,0,,,67,0
191940,note_on,53,0,1,,,,,,,,,0,,,67,46
191943,note_off,3,0,1,,,,,,,,,0,,,66,0
192000,note_on,0,0,1,,,,,,,,,0,,,72,47
192000,note_off,480,0,4,,,,,,,,,3,,,46,0
192000,note_off,57,0,1,,,,,,,,,0,,,67,0
192000,note_off,480,0,2,,,,,,,,,1,,,50,0
192060,note_on,60,0,1,,,,,,,,,0,,,70,47
192067,note_off,7,0,1,,,,,,,,,0,,,72,0
192120,note_on,53,0,1,,,,,,,,,0,,,69,47
192131,note_off,11,0,1,,,,,,,,,0,,,70,0
192180,note_on,0,0,1,,,,,,,,,0,,,70,47
192180,note_off,49,0,1,,,,,,,,,0,,,69,0
192240,note_on,0,0,1,,,,,,,,,0,,,76,48
192240,note_off,60,0,1,,,,,,,,,0,,,70,0
192300,note_on,60,0,1,,,,,,,,,0,,,74,48
192318,note_off,18,0,1,,,,,,,,,0,,,76,0
192360,note_on,42,0,1,,,,,,,,,0,,,73,48
192371,note_off,11,0,1,,,,,,,,,0,,,74,0
192420,note_off,49,0,1,,,,,,,,,0,,,73,0
192420,note_on,0,0,1,,,,,,,,,0,,,74,49
192480,note_on,0,0,1,,,,,,,,,0,,,81,49
192480,note_off,60,0,1,,,,,,,,,0,,,74,0
192540,note_on,60,0,1,,,,,,,,,0,,,79,49
192547,note_off,7,0,1,,,,,,,,,0,,,81,0
192600,note_on,53,0,1,,,,,,,,,0,,,78,50
192607,note_off,7,0,1,,,,,,,,,0,,,79,0
192660,note_off,53,0,1,,,,,,,,,0,,,78,0
192660,note_on,0,0,1,,,,,,,,,0,,,79,50
192720,note_off,60,0,1,,,,,,,,,0,,,79,0
192720,note_on,0,0,1,,,,,,,,,0,,,84,51
192780,note_on,60,0,1,,,,,,,,,0,,,82,51
192787,note_off,7,0,1,,,,,,,,,0,,,84,0
192840,set_tempo,1240,1,0,,,,,,600000,,,,,,,
192840,note_on,53,0,1,,,,,,,,,0,,,81,51
192847,note_off,7,0,1,,,,,,,,,0,,,82,0
192900,set_tempo,60,1,0,,,,,,652173,,,,,,,
192900,note_on,53,0,1,,,,,,,,,0,,,82,51
192911,note_off,11,0,1,,,,,,,,,0,,,81,0
192960,set_tempo,60,1,0,,,,,,674157,,,,,,,
192960,note_on,0,0,1,,,,,,,,,0,,,85,49
192960,note_off,49,0,1,,,,,,,,,0,,,82,0
193020,note_on,0,0,1,,,,,,,,,0,,,86,49
193020,note_off,60,0,1,,,,,,,,,0,,,85,0
193020,set_tempo,60,1,0,,,,,,625000,,,,,,,
193080,note_off,60,0,1,,,,,,,,,0,,,86,0
193080,set_tempo,60,1,0,,,,,,612244,,,,,,,
193080,note_on,0,0,1,,,,,,,,,0,,,88,49
193140,note_on,0,0,1,,,,,,,,,0,,,86,48
193140,set_tempo,60,1,0,,,,,,600000,,,,,,,
193140,note_off,60,0,1,,,,,,,,,0,,,88,0
193200,note_on,0,0,1,,,,,,,,,0,,,88,48
193200,note_off,60,0,1,,,,,,,,,0,,,86,0
193200,note_on,0,0,2,,,,,,,,,1,,,67,48
193200,note_on,1200,0,2,,,,,,,,,1,,,62,48
193200,note_on,1200,0,4,,,,,,,,,3,,,58,48
193260,note_on,0,0,1,,,,,,,,,0,,,86,48
193260,note_off,60,0,1,,,,,,,,,0,,,88,0
193320,note_on,0,0,1,,,,,,,,,0,,,88,47
193320,note_off,60,0,1,,,,,,,,,0,,,86,0
193380,note_on,0,0,1,,,,,,,,,0,,,86,47
193380,note_off,60,0,1,,,,,,,,,0,,,88,0
193440,note_off,240,0,2,,,,,,,,,1,,,67,0
193440,note_on,0,0,1,,,,,,,,,0,,,88,47
193440,note_off,60,0,1,,,,,,,,,0,,,86,0
193440,note_off,0,0,2,,,,,,,,,1,,,62,0
193440,note_off,240,0,4,,,,,,,,,3,,,58,0
193500,note_on,0,0,1,,,,,,,,,0,,,86,46
193500,note_off,60,0,1,,,,,,,,,0,,,88,0
193560,note_off,60,0,1,,,,,,,,,0,,,86,0
193560,note_on,0,0,1,,,,,,,,,0,,,88,46
193620,note_off,60,0,1,,,,,,,,,0,,,88,0
193620,note_on,0,0,1,,,,,,,,,0,,,86,46
193680,note_off,60,0,1,,,,,,,,,0,,,86,0
193680,note_on,0,0,1,,,,,,,,,0,,,88,45
193740,note_on,0,0,1,,,,,,,,,0,,,86,45
193740,note_off,60,0,1,,,,,,,,,0,,,88,0
193800,note_on,0,0,1,,,,,,,,,0,,,88,45
193800,note_off,60,0,1,,,,,,,,,0,,,86,0
193860,note_on,0,0,1,,,,,,,,,0,,,86,44
193860,note_off,60,0,1,,,,,,,,,0,,,88,0
193920,note_off,60,0,1,,,,,,,,,0,,,86,0
193920,note_on,0,0,1,,,,,,,,,0,,,88,44
193980,note_off,60,0,1,,,,,,,,,0,,,88,0
193980,note_on,0,0,1,,,,,,,,,0,,,86,44
194040,note_on,0,0,1,,,,,,,,,0,,,88,43
194040,note_off,60,0,1,,,,,,,,,0,,,86,0
194100,note_on,0,0,1,,,,,,,,,0,,,86,43
194100,note_off,60,0,1,,,,,,,,,0,,,88,0
194160,note_on,0,0,1,,,,,,,,,0,,,88,43
194160,note_off,60,0,1,,,,,,,,,0,,,86,0
194220,note_on,0,0,1,,,,,,,,,0,,,86,42
194220,note_off,60,0,1,,,,,,,,,0,,,88,0
194280,note_on,0,0,1,,,,,,,,,0,,,85,42
194280,note_off,60,0,1,,,,,,,,,0,,,86,0
194280,set_tempo,1140,1,0,,,,,,612244,,,,,,,
194340,note_off,60,0,1,,,,,,,,,0,,,85,0
194340,set_tempo,60,1,0,,,,,,659340,,,,,,,
194340,note_on,0,0,1,,,,,,,,,0,,,86,42
194400,set_tempo,60,1,0,,,,,,674157,,,,,,,
194400,note_off,60,0,1,,,,,,,,,0,,,86,0
194400,note_on,0,0,1,,,,,,,,,0,,,62,41
194460,set_tempo,60,1,0,,,,,,638297,,,,,,,
194460,note_off,60,0,1,,,,,,,,,0,,,62,0
194460,note_on,0,0,1,,,,,,,,,0,,,64,41
194520,set_tempo,60,1,0,,,,,,625000,,,,,,,
194520,note_off,60,0,1,,,,,,,,,0,,,64,0
194520,note_on,0,0,1,,,,,,,,,0,,,65,41
194580,note_off,60,0,1,,,,,,,,,0,,,65,0
194580,note_on,0,0,1,,,,,,,,,0,,,64,40
194580,set_tempo,60,1,0,,,,,,612244,,,,,,,
194640,note_on,0,0,1,,,,,,,,,0,,,65,40
194640,note_on,0,0,2,,,,,,,,,1,,,58,40
194640,note_on,1200,0,2,,,,,,,,,1,,,55,40
194640,note_on,1200,0,4,,,,,,,,,3,,,48,40
194640,note_off,60,0,1,,,,,,,,,0,,,64,0
194700,note_on,0,0,1,,,,,,,,,0,,,64,40
194700,note_off,60,0,1,,,,,,,,,0,,,65,0
194760,note_off,60,0,1,,,,,,,,,0,,,64,0
194760,note_on,0,0,1,,,,,,,,,0,,,65,39
194820,note_off,60,0,1,,,,,,,,,0,,,65,0
194820,note_on,0,0,1,,,,,,,,,0,,,64,39
194880,note_off,240,0,2,,,,,,,,,1,,,58,0
194880,note_off,0,0,2,,,,,,,,,1,,,55,0
194880,note_off,240,0,4,,,,,,,,,3,,,48,0
194880,note_off,60,0,1,,,,,,,,,0,,,64,0
194880,note_on,0,0,1,,,,,,,,,0,,,65,39
194940,note_off,60,0,1,,,,,,,,,0,,,65,0
194940,note_on,0,0,1,,,,,,,,,0,,,64,38
195000,note_off,60,0,1,,,,,,,,,0,,,64,0
195000,note_on,0,0,1,,,,,,,,,0,,,65,38
195060,note_off,60,0,1,,,,,,,,,0,,,65,0
195060,note_on,0,0,1,,,,,,,,,0,,,64,38
195120,note_off,60,0,1,,,,,,,,,0,,,64,0
195120,note_on,0,0,1,,,,,,,,,0,,,65,38
195180,note_on,0,0,1,,,,,,,,,0,,,64,37
195180,note_off,60,0,1,,,,,,,,,0,,,65,0
195240,note_off,60,0,1,,,,,,,,,0,,,64,0
195240,note_on,0,0,1,,,,,,,,,0,,,65,37
195300,note_off,60,0,1,,,,,,,,,0,,,65,0
195300,note_on,0,0,1,,,,,,,,,0,,,64,37
195360,note_off,60,0,1,,,,,,,,,0,,,64,0
195360,note_on,0,0,1,,,,,,,,,0,,,65,36
195420,note_off,60,0,1,,,,,,,,,0,,,65,0
195420,note_on,0,0,1,,,,,,,,,0,,,64,36
195480,note_on,0,0,1,,,,,,,,,0,,,65,36
195480,note_off,60,0,1,,,,,,,,,0,,,64,0
195540,note_off,60,0,1,,,,,,,,,0,,,65,0
195540,note_on,0,0,1,,,,,,,,,0,,,64,35
195600,note_off,60,0,1,,,,,,,,,0,,,64,0
195600,note_on,0,0,1,,,,,,,,,0,,,65,35
195660,note_off,60,0,1,,,,,,,,,0,,,65,0
195660,note_on,0,0,1,,,,,,,,,0,,,64,35
195720,set_tempo,1140,1,0,,,,,,625000,,,,,,,
195720,note_on,0,0,1,,,,,,,,,0,,,65,34
195720,note_off,60,0,1,,,,,,,,,0,,,64,0
195780,set_tempo,60,1,0,,,,,,659340,,,,,,,
195780,note_off,60,0,1,,,,,,,,,0,,,65,0
195780,note_on,0,0,1,,,,,,,,,0,,,64,34
195840,note_off,60,0,1,,,,,,,,,0,,,64,0
195840,note_on,0,0,1,,,,,,,,,0,,,71,34
195840,set_tempo,60,1,0,,,,,,659340,,,,,,,
195900,set_tempo,60,1,0,,,,,,625000,,,,,,,
195900,note_off,60,0,1,,,,,,,,,0,,,71,0
195900,note_on,0,0,1,,,,,,,,,0,,,72,33
195960,note_off,60,0,1,,,,,,,,,0,,,72,0
195960,note_on,0,0,1,,,,,,,,,0,,,74,33
195960,set_tempo,60,1,0,,,,,,612244,,,,,,,
196020,note_off,60,0,1,,,,,,,,,0,,,74,0
196020,note_on,0,0,1,,,,,,,,,0,,,72,33
196080,note_off,60,0,1,,,,,,,,,0,,,72,0
196080,note_on,0,0,1,,,,,,,,,0,,,74,32
196140,note_off,60,0,1,,,,,,,,,0,,,74,0
196140,note_on,0,0,1,,,,,,,,,0,,,72,32
196200,note_off,60,0,1,,,,,,,,,0,,,72,0
196200,note_on,0,0,1,,,,,,,,,0,,,74,32
196260,set_tempo,300,1,0,,,,,,625000,,,,,,,
196260,note_on,0,0,1,,,,,,,,,0,,,72,31
196260,note_off,60,0,1,,,,,,,,,0,,,74,0
196320,note_off,60,0,1,,,,,,,,,0,,,72,0
196320,note_on,0,0,1,,,,,,,,,0,,,74,31
196380,note_on,0,0,1,,,,,,,,,0,,,72,31
196380,note_off,60,0,1,,,,,,,,,0,,,74,0
196440,note_off,60,0,1,,,,,,,,,0,,,72,0
196440,note_on,0,0,1,,,,,,,,,0,,,74,30
196500,note_off,60,0,1,,,,,,,,,0,,,74,0
196500,note_on,0,0,1,,,,,,,,,0,,,72,30
196560,note_off,60,0,1,,,,,,,,,0,,,72,0
196560,note_on,0,0,1,,,,,,,,,0,,,74,30
196620,note_off,60,0,1,,,,,,,,,0,,,74,0
196620,note_on,0,0,1,,,,,,,,,0,,,72,29
196680,note_off,60,0,1,,,,,,,,,0,,,72,0
196680,note_on,0,0,1,,,,,,,,,0,,,74,29
196740,note_on,0,0,1,,,,,,,,,0,,,72,29
196740,note_off,60,0,1,,,,,,,,,0,,,74,0
196800,note_off,60,0,1,,,,,,,,,0,,,72,0
196800,note_on,0,0,1,,,,,,,,,0,,,74,28
196860,note_off,60,0,1,,,,,,,,,0,,,74,0
196860,note_on,0,0,1,,,,,,,,,0,,,72,28
196920,note_on,0,0,1,,,,,,,,,0,,,74,28
196920,note_off,60,0,1,,,,,,,,,0,,,72,0
196980,note_on,0,0,1,,,,,,,,,0,,,72,27
196980,note_off,60,0,1,,,,,,,,,0,,,74,0
197040,note_on,0,0,1,,,,,,,,,0,,,74,27
197040,note_off,60,0,1,,,,,,,,,0,,,72,0
197100,set_tempo,840,1,0,,,,,,638297,,,,,,,
197100,note_off,60,0,1,,,,,,,,,0,,,74,0
197100,note_on,0,0,1,,,,,,,,,0,,,72,27
197160,set_tempo,60,1,0,,,,,,659340,,,,,,,
197160,note_off,60,0,1,,,,,,,,,0,,,72,0
197160,note_on,0,0,1,,,,,,,,,0,,,74,26
197220,set_tempo,60,1,0,,,,,,689655,,,,,,,
197220,note_off,60,0,1,,,,,,,,,0,,,74,0
197220,note_on,0,0,1,,,,,,,,,0,,,72,26
197280,set_tempo,60,1,0,,,,,,1071428,,,,,,,
197880,set_tempo,600,1,0,,,,,,1500000,,,,,,,
197880,note_on,660,0,1,,,,,,,,,0,,,70,31
197883,note_off,3,0,1,,,,,,,,,0,,,72,0
197940,note_off,57,0,1,,,,,,,,,0,,,70,0
197940,note_on,0,0,1,,,,,,,,,0,,,69,31
198000,note_off,60,0,1,,,,,,,,,0,,,69,0
198000,note_on,0,0,1,,,,,,,,,0,,,67,31
198060,note_off,60,0,1,,,,,,,,,0,,,67,0
198060,note_on,0,0,1,,,,,,,,,0,,,65,30
198120,note_off,60,0,1,,,,,,,,,0,,,65,0
198120,note_on,0,0,1,,,,,,,,,0,,,64,30
198120,set_tempo,240,1,0,,,,,,1578947,,,,,,,
198180,note_off,60,0,1,,,,,,,,,0,,,64,0
198180,note_on,0,0,1,,,,,,,,,0,,,62,30
198180,set_tempo,60,1,0,,,,,,2068965,,,,,,,
198240,note_off,60,0,1,,,,,,,,,0,,,62,0
198240,note_on,0,0,1,,,,,,,,,0,,,60,30
198240,set_tempo,60,1,0,,,,,,1276595,,,,,,,
198400,note_off,160,0,1,,,,,,,,,0,,,60,0
198400,note_on,0,0,1,,,,,,,,,0,,,59,29
198427,set_tempo,187,1,0,,,,,,1276595,,,,,,,
198560,note_off,160,0,1,,,,,,,,,0,,,59,0
198560,note_on,0,0,1,,,,,,,,,0,,,60,28
198720,note_off,160,0,1,,,,,,,,,0,,,60,0
198720,note_on,0,0,1,,,,,,,,,0,,,61,28
198798,note_off,78,0,1,,,,,,,,,0,,,61,0
198840,set_tempo,413,1,0,,,,,,1363636,,,,,,,
198840,note_on,42,0,1,,,,,,,,,0,,,62,27
198918,note_off,78,0,1,,,,,,,,,0,,,62,0
198960,note_on,42,0,1,,,,,,,,,0,,,63,27
198960,set_tempo,120,1,0,,,,,,1818181,,,,,,,
199038,note_off,78,0,1,,,,,,,,,0,,,63,0
199080,note_on,42,0,1,,,,,,,,,0,,,62,26
199200,set_tempo,240,1,0,,,,,,2727272,,,,,,,
199560,note_off,480,0,1,,,,,,,,,0,,,62,0
199680,set_tempo,480,1,0,,,,,,540540,,,,,,,
199680,note_on,120,0,1,,,,,,,,,0,,,60,39
200040,note_off,360,0,1,,,,,,,,,0,,,60,0
200040,note_on,0,0,1,,,,,,,,,0,,,65,42
200160,note_on,5280,0,4,,,,,,,,,3,,,29,43
200160,note_on,5280,0,2,,,,,,,,,1,,,60,45
200160,note_on,0,0,1,,,,,,,,,0,,,69,45
200160,note_off,120,0,1,,,,,,,,,0,,,65,0
200320,note_on,18160,0,3,,,,,,,,,2,,,41,43
200480,note_off,160,0,3,,,,,,,,,2,,,41,0
200480,note_on,0,0,3,,,,,,,,,2,,,41,42
200640,note_off,160,0,3,,,,,,,,,2,,,41,0
200640,note_on,0,0,3,,,,,,,,,2,,,41,42
200800,note_on,0,0,3,,,,,,,,,2,,,41,41
200800,note_off,160,0,3,,,,,,,,,2,,,41,0
200880,set_tempo,1200,1,0,,,,,,550458,,,,,,,
200960,note_on,0,0,3,,,,,,,,,2,,,41,41
200960,note_off,160,0,3,,,,,,,,,2,,,41,0
200960,note_on,800,0,1,,,,,,,,,0,,,65,41
201000,note_off,40,0,1,,,,,,,,,0,,,69,0
201080,note_off,80,0,1,,,,,,,,,0,,,65,0
201120,note_on,40,0,1,,,,,,,,,0,,,67,41
201120,set_tempo,240,1,0,,,,,,540540,,,,,,,
201120,note_off,960,0,2,,,,,,,,,1,,,60,0
201120,note_on,0,0,2,,,,,,,,,1,,,58,41
201120,note_on,0,0,3,,,,,,,,,2,,,41,41
201120,note_off,160,0,3,,,,,,,,,2,,,41,0
201280,note_on,0,0,3,,,,,,,,,2,,,41,40
201280,note_off,160,0,3,,,,,,,,,2,,,41,0
201440,note_on,0,0,3,,,,,,,,,2,,,41,40
201440,note_off,160,0,3,,,,,,,,,2,,,41,0
201480,note_off,360,0,1,,,,,,,,,0,,,67,0
201480,note_on,0,0,1,,,,,,,,,0,,,64,39
201600,note_off,160,0,3,,,,,,,,,2,,,41,0
201600,note_on,0,0,1,,,,,,,,,0,,,65,38
201600,note_off,120,0,1,,,,,,,,,0,,,64,0
201600,note_off,480,0,2,,,,,,,,,1,,,58,0
201600,note_on,0,0,2,,,,,,,,,1,,,57,38
201600,note_off,1440,0,4,,,,,,,,,3,,,29,0
201600,note_on,0,0,4,,,,,,,,,3,,,29,39
201760,note_on,160,0,3,,,,,,,,,2,,,41,39
201920,note_on,0,0,3,,,,,,,,,2,,,41,38
201920,note_off,160,0,3,,,,,,,,,2,,,41,0
202080,note_off,480,0,1,,,,,,,,,0,,,65,0
202080,note_off,160,0,3,,,,,,,,,2,,,41,0
202080,note_on,0,0,3,,,,,,,,,2,,,41,38
202080,note_on,0,0,1,,,,,,,,,0,,,60,36
202240,note_off,160,0,3,,,,,,,,,2,,,41,0
202240,note_on,0,0,3,,,,,,,,,2,,,41,38
202320,note_off,240,0,1,,,,,,,,,0,,,60,0
202320,set_tempo,1200,1,0,,,,,,550458,,,,,,,
202320,note_off,720,0,2,,,,,,,,,1,,,57,0
202400,note_off,160,0,3,,,,,,,,,2,,,41,0
202400,note_on,0,0,3,,,,,,,,,2,,,41,38
202560,note_off,160,0,3,,,,,,,,,2,,,41,0
202560,note_on,0,0,3,,,,,,,,,2,,,41,38
202560,note_on,240,0,1,,,,,,,,,0,,,65,40
202560,set_tempo,240,1,0,,,,,,550458,,,,,,,
202720,note_off,160,0,3,,,,,,,,,2,,,41,0
202720,note_on,0,0,3,,,,,,,,,2,,,41,39
202880,note_off,160,0,3,,,,,,,,,2,,,41,0
202880,note_on,0,0,3,,,,,,,,,2,,,41,40
202920,note_off,360,0,1,,,,,,,,,0,,,65,0
202920,note_on,0,0,1,,,,,,,,,0,,,69,42
203040,note_off,160,0,3,,,,,,,,,2,,,41,0
203040,note_off,120,0,1,,,,,,,,,0,,,69,0
203040,note_on,0,0,1,,,,,,,,,0,,,72,43
203040,note_on,0,0,4,,,,,,,,,3,,,29,40
203040,note_off,1440,0,4,,,,,,,,,3,,,29,0
203040,set_tempo,480,1,0,,,,,,550458,,,,,,,
203040,note_on,0,0,2,,,,,,,,,1,,,65,43
203040,note_on,720,0,2,,,,,,,,,1,,,69,43
203200,note_on,160,0,3,,,,,,,,,2,,,41,41
203360,note_on,0,0,3,,,,,,,,,2,,,41,42
203360,note_off,160,0,3,,,,,,,,,2,,,41,0
203460,set_tempo,420,1,0,,,,,,560747,,,,,,,
203520,note_on,0,0,3,,,,,,,,,2,,,41,43
203520,note_off,160,0,3,,,,,,,,,2,,,41,0
203680,note_on,0,0,3,,,,,,,,,2,,,41,44
203680,note_off,160,0,3,,,,,,,,,2,,,41,0
203840,note_on,0,0,3,,,,,,,,,2,,,41,44
203840,note_off,160,0,3,,,,,,,,,2,,,41,0
203880,note_off,840,0,2,,,,,,,,,1,,,65,0
203880,note_off,0,0,2,,,,,,,,,1,,,69,0
203880,note_on,0,0,2,,,,,,,,,1,,,65,47
203880,note_off,840,0,1,,,,,,,,,0,,,72,0
203880,note_on,0,0,1,,,,,,,,,0,,,74,47
203880,note_on,0,0,2,,,,,,,,,1,,,62,47
204000,note_off,0,0,2,,,,,,,,,1,,,65,0
204000,note_off,120,0,1,,,,,,,,,0,,,74,0
204000,note_on,0,0,1,,,,,,,,,0,,,70,45
204000,note_on,0,0,2,,,,,,,,,1,,,67,45
204000,note_off,120,0,2,,,,,,,,,1,,,62,0
204000,note_off,160,0,3,,,,,,,,,2,,,41,0
204000,note_on,0,0,3,,,,,,,,,2,,,41,45
204000,note_on,0,0,2,,,,,,,,,1,,,64,45
204160,note_on,0,0,3,,,,,,,,,2,,,41,44
204160,note_off,160,0,3,,,,,,,,,2,,,41,0
204320,note_on,0,0,3,,,,,,,,,2,,,41,44
204320,note_off,160,0,3,,,,,,,,,2,,,41,0
204360,note_off,360,0,1,,,,,,,,,0,,,70,0
204360,note_off,0,0,2,,,,,,,,,1,,,67,0
204360,note_on,0,0,2,,,,,,,,,1,,,64,43
204360,note_on,0,0,2,,,,,,,,,1,,,60,43
204360,note_off,360,0,2,,,,,,,,,1,,,64,0
204360,note_on,0,0,1,,,,,,,,,0,,,72,43
204420,set_tempo,960,1,0,,,,,,571428,,,,,,,
204480,note_on,0,0,1,,,,,,,,,0,,,69,43
204480,note_on,0,0,2,,,,,,,,,1,,,60,43
204480,note_off,120,0,2,,,,,,,,,1,,,60,0
204480,note_on,0,0,4,,,,,,,,,3,,,29,43
204480,note_off,1440,0,4,,,,,,,,,3,,,29,0
204480,note_off,160,0,3,,,,,,,,,2,,,41,0
204480,note_on,0,0,2,,,,,,,,,1,,,65,43
204480,note_off,120,0,1,,,,,,,,,0,,,72,0
204480,note_off,0,0,2,,,,,,,,,1,,,64,0
204640,note_on,160,0,3,,,,,,,,,2,,,41,42
204800,note_on,0,0,3,,,,,,,,,2,,,41,41
204800,note_off,160,0,3,,,,,,,,,2,,,41,0
204900,set_tempo,480,1,0,,,,,,582524,,,,,,,
204960,note_off,160,0,3,,,,,,,,,2,,,41,0
204960,note_on,0,0,3,,,,,,,,,2,,,41,40
204960,note_off,0,0,2,,,,,,,,,1,,,60,0
204960,note_off,480,0,1,,,,,,,,,0,,,69,0
204960,note_off,480,0,2,,,,,,,,,1,,,65,0
205120,note_off,160,0,3,,,,,,,,,2,,,41,0
205120,note_on,0,0,3,,,,,,,,,2,,,41,39
205260,set_tempo,360,1,0,,,,,,600000,,,,,,,
205280,note_on,0,0,3,,,,,,,,,2,,,41,38
205280,note_off,160,0,3,,,,,,,,,2,,,41,0
205380,set_tempo,120,1,0,,,,,,550458,,,,,,,
205400,note_on,440,0,1,,,,,,,,,0,,,62,43
205440,note_on,40,0,1,,,,,,,,,0,,,60,43
205440,note_off,160,0,3,,,,,,,,,2,,,41,0
205440,note_on,0,0,3,,,,,,,,,2,,,41,38
205440,set_tempo,60,1,0,,,,,,540540,,,,,,,
205460,note_off,20,0,1,,,,,,,,,0,,,62,0
205560,note_off,100,0,1,,,,,,,,,0,,,60,0
205560,note_on,0,0,1,,,,,,,,,0,,,59,45
205600,note_on,0,0,3,,,,,,,,,2,,,41,39
205600,note_off,160,0,3,,,,,,,,,2,,,41,0
205680,note_off,120,0,1,,,,,,,,,0,,,59,0
205680,note_on,0,0,1,,,,,,,,,0,,,60,47
205760,note_off,160,0,3,,,,,,,,,2,,,41,0
205760,note_on,0,0,3,,,,,,,,,2,,,41,41
205800,note_off,120,0,1,,,,,,,,,0,,,60,0
205800,note_on,0,0,1,,,,,,,,,0,,,65,48
205920,note_on,960,0,2,,,,,,,,,1,,,60,51
205920,note_off,1440,0,4,,,,,,,,,3,,,29,0
205920,note_off,160,0,3,,,,,,,,,2,,,41,0
205920,note_off,120,0,1,,,,,,,,,0,,,65,0
205920,note_on,0,0,1,,,,,,,,,0,,,69,51
205920,note_on,0,0,4,,,,,,,,,3,,,29,43
206040,note_off,120,0,1,,,,,,,,,0,,,69,0
206040,note_on,0,0,1,,,,,,,,,0,,,68,51
206080,note_on,160,0,3,,,,,,,,,2,,,41,43
206160,note_off,120,0,1,,,,,,,,,0,,,68,0
206160,note_on,0,0,1,,,,,,,,,0,,,69,50
206240,note_on,0,0,3,,,,,,,,,2,,,41,42
206240,note_off,160,0,3,,,,,,,,,2,,,41,0
206280,note_on,0,0,1,,,,,,,,,0,,,68,49
206280,note_off,120,0,1,,,,,,,,,0,,,69,0
206400,note_on,0,0,3,,,,,,,,,2,,,41,42
206400,note_off,160,0,3,,,,,,,,,2,,,41,0
206400,note_on,0,0,1,,,,,,,,,0,,,69,48
206400,note_off,120,0,1,,,,,,,,,0,,,68,0
206520,note_on,0,0,1,,,,,,,,,0,,,68,47
206520,note_off,120,0,1,,,,,,,,,0,,,69,0
206560,note_on,0,0,3,,,,,,,,,2,,,41,41
206560,note_off,160,0,3,,,,,,,,,2,,,41,0
206640,note_on,0,0,1,,,,,,,,,0,,,69,46
206640,note_off,120,0,1,,,,,,,,,0,,,68,0
206640,set_tempo,1200,1,0,,,,,,550458,,,,,,,
206720,note_on,0,0,3,,,,,,,,,2,,,41,41
206720,note_off,160,0,3,,,,,,,,,2,,,41,0
206760,note_off,120,0,1,,,,,,,,,0,,,69,0
206760,note_on,0,0,1,,,,,,,,,0,,,65,46
206840,note_on,80,0,1,,,,,,,,,0,,,69,45
206857,note_off,17,0,1,,,,,,,,,0,,,65,0
206880,note_on,23,0,1,,,,,,,,,0,,,67,45
206880,set_tempo,240,1,0,,,,,,540540,,,,,,,
206880,note_on,0,0,2,,,,,,,,,1,,,58,45
206880,note_off,960,0,2,,,,,,,,,1,,,60,0
206880,note_on,0,0,3,,,,,,,,,2,,,41,40
206880,note_off,160,0,3,,,,,,,,,2,,,41,0
206900,note_off,20,0,1,,,,,,,,,0,,,69,0
207000,note_on,0,0,1,,,,,,,,,0,,,66,44
207000,note_off,100,0,1,,,,,,,,,0,,,67,0
207040,note_off,160,0,3,,,,,,,,,2,,,41,0
207040,note_on,0,0,3,,,,,,,,,2,,,41,40
207120,note_on,0,0,1,,,,,,,,,0,,,67,43
207120,note_off,120,0,1,,,,,,,,,0,,,66,0
207200,note_off,160,0,3,,,,,,,,,2,,,41,0
207200,note_on,0,0,3,,,,,,,,,2,,,41,39
207240,note_off,120,0,1,,,,,,,,,0,,,67,0
207240,note_on,0,0,1,,,,,,,,,0,,,64,42
207320,note_on,80,0,1,,,,,,,,,0,,,67,42
207335,note_off,15,0,1,,,,,,,,,0,,,64,0
207360,note_off,160,0,3,,,,,,,,,2,,,41,0
207360,note_on,0,0,4,,,,,,,,,3,,,29,39
207360,note_off,1440,0,4,,,,,,,,,3,,,29,0
207360,note_on,0,0,2,,,,,,,,,1,,,57,42
207360,note_off,480,0,2,,,,,,,,,1,,,58,0
207360,note_on,25,0,1,,,,,,,,,0,,,65,42
207380,note_off,20,0,1,,,,,,,,,0,,,67,0
207480,note_on,0,0,1,,,,,,,,,0,,,64,41
207480,note_off,100,0,1,,,,,,,,,0,,,65,0
207520,note_on,160,0,3,,,,,,,,,2,,,41,38
207600,note_off,120,0,1,,,,,,,,,0,,,64,0
207600,note_on,0,0,1,,,,,,,,,0,,,65,40
207680,note_off,160,0,3,,,,,,,,,2,,,41,0
207680,note_on,0,0,3,,,,,,,,,2,,,41,38
207720,note_off,120,0,1,,,,,,,,,0,,,65,0
207720,note_on,0,0,1,,,,,,,,,0,,,69,39
207840,note_on,0,0,3,,,,,,,,,2,,,41,37
207840,note_off,120,0,1,,,,,,,,,0,,,69,0
207840,note_on,0,0,1,,,,,,,,,0,,,60,38
207840,note_off,160,0,3,,,,,,,,,2,,,41,0
208000,note_on,0,0,3,,,,,,,,,2,,,41,37
208000,note_off,160,0,3,,,,,,,,,2,,,41,0
208080,note_off,240,0,1,,,,,,,,,0,,,60,0
208080,note_off,720,0,2,,,,,,,,,1,,,57,0
208080,set_tempo,1200,1,0,,,,,,550458,,,,,,,
208160,note_off,160,0,3,,,,,,,,,2,,,41,0
208160,note_on,0,0,3,,,,,,,,,2,,,41,36
208280,note_on,200,0,1,,,,,,,,,0,,,67,40
208320,note_on,0,0,3,,,,,,,,,2,,,41,38
208320,note_off,160,0,3,,,,,,,,,2,,,41,0
208320,set_tempo,240,1,0,,,,,,540540,,,,,,,
208320,note_on,40,0,1,,,,,,,,,0,,,65,41
208340,note_off,20,0,1,,,,,,,,,0,,,67,0
208440,note_off,100,0,1,,,,,,,,,0,,,65,0
208440,note_on,0,0,1,,,,,,,,,0,,,64,41
208480,note_on,0,0,3,,,,,,,,,2,,,41,39
208480,note_off,160,0,3,,,,,,,,,2,,,41,0
208560,note_off,120,0,1,,,,,,,,,0,,,64,0
208560,note_on,0,0,1,,,,,,,,,0,,,65,42
208640,note_on,0,0,3,,,,,,,,,2,,,41,40
208640,note_off,160,0,3,,,,,,,,,2,,,41,0
208680,note_on,0,0,1,,,,,,,,,0,,,69,43
208680,note_off,120,0,1,,,,,,,,,0,,,65,0
208800,note_on,0,0,4,,,,,,,,,3,,,29,41
208800,note_off,160,0,3,,,,,,,,,2,,,41,0
208800,note_on,720,0,2,,,,,,,,,1,,,69,43
208800,note_on,0,0,2,,,,,,,,,1,,,65,43
208800,note_off,1440,0,4,,,,,,,,,3,,,29,0
208800,note_off,120,0,1,,,,,,,,,0,,,69,0
208800,note_on,0,0,1,,,,,,,,,0,,,72,43
208920,note_on,0,0,1,,,,,,,,,0,,,74,44
208920,note_off,120,0,1,,,,,,,,,0,,,72,0
208960,note_on,160,0,3,,,,,,,,,2,,,41,42
209040,note_off,0,0,2,,,,,,,,,1,,,69,0
209040,note_on,0,0,1,,,,,,,,,0,,,72,45
209040,note_off,120,0,1,,,,,,,,,0,,,74,0
209040,note_on,0,0,2,,,,,,,,,1,,,68,45
209040,note_on,0,0,2,,,,,,,,,1,,,64,45
209040,note_off,240,0,2,,,,,,,,,1,,,65,0
209120,note_on,0,0,3,,,,,,,,,2,,,41,43
209120,note_off,160,0,3,,,,,,,,,2,,,41,0
209160,note_off,120,0,1,,,,,,,,,0,,,72,0
209160,note_on,0,0,1,,,,,,,,,0,,,74,46
209220,set_tempo,900,1,0,,,,,,550458,,,,,,,
209280,note_on,0,0,3,,,,,,,,,2,,,41,43
209280,note_off,160,0,3,,,,,,,,,2,,,41,0
209280,note_on,0,0,2,,,,,,,,,1,,,65,46
209280,note_on,0,0,2,,,,,,,,,1,,,69,46
209280,note_on,0,0,1,,,,,,,,,0,,,72,46
209280,note_off,240,0,2,,,,,,,,,1,,,68,0
209280,note_off,0,0,2,,,,,,,,,1,,,64,0
209280,note_off,120,0,1,,,,,,,,,0,,,74,0
209400,note_off,120,0,1,,,,,,,,,0,,,72,0
209400,note_on,0,0,1,,,,,,,,,0,,,74,47
209440,note_on,0,0,3,,,,,,,,,2,,,41,44
209440,note_off,160,0,3,,,,,,,,,2,,,41,0
209520,note_off,240,0,2,,,,,,,,,1,,,69,0
209520,note_off,0,0,2,,,,,,,,,1,,,65,0
209520,note_on,0,0,2,,,,,,,,,1,,,62,48
209520,note_on,0,0,1,,,,,,,,,0,,,72,48
209520,note_off,120,0,1,,,,,,,,,0,,,74,0
209520,note_on,0,0,2,,,,,,,,,1,,,65,48
209600,note_off,160,0,3,,,,,,,,,2,,,41,0
209600,note_on,0,0,3,,,,,,,,,2,,,41,45
209640,note_on,0,0,1,,,,,,,,,0,,,74,49
209640,note_off,120,0,1,,,,,,,,,0,,,72,0
209760,note_off,160,0,3,,,,,,,,,2,,,41,0
209760,note_on,0,0,3,,,,,,,,,2,,,41,45
209760,note_off,0,0,2,,,,,,,,,1,,,65,0
209760,note_off,120,0,1,,,,,,,,,0,,,74,0
209760,note_off,240,0,2,,,,,,,,,1,,,62,0
209760,note_on,0,0,2,,,,,,,,,1,,,64,49
209760,note_on,0,0,2,,,,,,,,,1,,,67,49
209760,note_on,0,0,1,,,,,,,,,0,,,70,49
209880,note_off,120,0,1,,,,,,,,,0,,,70,0
209880,note_on,0,0,1,,,,,,,,,0,,,72,47
209920,note_on,0,0,3,,,,,,,,,2,,,41,44
209920,note_off,160,0,3,,,,,,,,,2,,,41,0
210000,note_off,240,0,2,,,,,,,,,1,,,67,0
210000,note_on,0,0,2,,,,,,,,,1,,,64,45
210000,note_on,0,0,2,,,,,,,,,1,,,60,45
210000,note_off,0,0,2,,,,,,,,,1,,,64,0
210000,note_on,0,0,1,,,,,,,,,0,,,70,45
210000,note_off,120,0,1,,,,,,,,,0,,,72,0
210080,note_off,160,0,3,,,,,,,,,2,,,41,0
210080,note_on,0,0,3,,,,,,,,,2,,,41,43
210120,note_on,0,0,1,,,,,,,,,0,,,72,43
210120,note_off,120,0,1,,,,,,,,,0,,,70,0
210180,set_tempo,960,1,0,,,,,,560747,,,,,,,
210240,note_on,0,0,2,,,,,,,,,1,,,60,42
210240,note_off,0,0,2,,,,,,,,,1,,,64,0
210240,note_off,240,0,2,,,,,,,,,1,,,60,0
210240,note_off,160,0,3,,,,,,,,,2,,,41,0
210240,note_on,0,0,1,,,,,,,,,0,,,69,42
210240,note_off,1440,0,4,,,,,,,,,3,,,29,0
210240,note_on,0,0,4,,,,,,,,,3,,,29,42
210240,note_on,0,0,2,,,,,,,,,1,,,65,42
210240,note_off,120,0,1,,,,,,,,,0,,,72,0
210400,note_on,160,0,3,,,,,,,,,2,,,41,41
210560,note_on,0,0,3,,,,,,,,,2,,,41,40
210560,note_off,160,0,3,,,,,,,,,2,,,41,0
210720,note_off,160,0,3,,,,,,,,,2,,,41,0
210720,note_on,0,0,4,,,,,,,,,3,,,33,38
210720,note_off,480,0,4,,,,,,,,,3,,,29,0
210720,note_on,0,0,3,,,,,,,,,2,,,41,38
210720,note_off,480,0,1,,,,,,,,,0,,,69,0
210720,note_off,480,0,2,,,,,,,,,1,,,65,0
210720,note_off,0,0,2,,,,,,,,,1,,,60,0
210880,note_off,160,0,3,,,,,,,,,2,,,41,0
210880,note_on,0,0,3,,,,,,,,,2,,,41,38
210960,set_tempo,780,1,0,,,,,,571428,,,,,,,
211040,note_on,0,0,3,,,,,,,,,2,,,41,39
211040,note_off,160,0,3,,,,,,,,,2,,,41,0
211200,note_off,160,0,3,,,,,,,,,2,,,41,0
211200,note_off,480,0,4,,,,,,,,,3,,,33,0
211200,note_on,480,0,1,,,,,,,,,0,,,60,43
211200,set_tempo,240,1,0,,,,,,540540,,,,,,,
211200,note_on,0,0,3,,,,,,,,,2,,,41,40
211200,note_on,0,0,4,,,,,,,,,3,,,36,40
211360,note_off,160,0,3,,,,,,,,,2,,,41,0
211360,note_on,0,0,3,,,,,,,,,2,,,41,40
211520,note_off,160,0,3,,,,,,,,,2,,,41,0
211520,note_on,0,0,3,,,,,,,,,2,,,41,41
211560,note_off,360,0,1,,,,,,,,,0,,,60,0
211560,note_on,0,0,1,,,,,,,,,0,,,65,44
211680,note_off,160,0,3,,,,,,,,,2,,,41,0
211680,note_on,0,0,4,,,,,,,,,3,,,29,42
211680,note_off,480,0,4,,,,,,,,,3,,,36,0
211680,note_on,0,0,1,,,,,,,,,0,,,69,45
211680,note_off,120,0,1,,,,,,,,,0,,,65,0
211840,note_on,160,0,3,,,,,,,,,2,,,41,43
212000,note_on,0,0,3,,,,,,,,,2,,,41,43
212000,note_off,160,0,3,,,,,,,,,2,,,41,0
212100,set_tempo,900,1,0,,,,,,550458,,,,,,,
212160,note_on,0,0,3,,,,,,,,,2,,,41,44
212160,note_off,160,0,3,,,,,,,,,2,,,41,0
212160,note_on,0,0,4,,,,,,,,,3,,,33,44
212160,note_off,480,0,4,,,,,,,,,3,,,29,0
212320,note_off,160,0,3,,,,,,,,,2,,,41,0
212320,note_on,0,0,3,,,,,,,,,2,,,41,45
212480,note_on,0,0,3,,,,,,,,,2,,,41,46
212480,note_off,160,0,3,,,,,,,,,2,,,41,0
212640,note_off,160,0,3,,,,,,,,,2,,,41,0
212640,note_on,0,0,3,,,,,,,,,2,,,41,46
212640,note_off,960,0,1,,,,,,,,,0,,,69,0
212640,set_tempo,540,1,0,,,,,,540540,,,,,,,
212640,note_on,0,0,1,,,,,,,,,0,,,65,49
212640,note_on,0,0,4,,,,,,,,,3,,,36,46
212640,note_on,1920,0,2,,,,,,,,,1,,,60,49
212640,note_off,480,0,4,,,,,,,,,3,,,33,0
212800,note_on,0,0,3,,,,,,,,,2,,,41,47
212800,note_off,160,0,3,,,,,,,,,2,,,41,0
212960,note_on,0,0,3,,,,,,,,,2,,,41,48
212960,note_off,160,0,3,,,,,,,,,2,,,41,0
213000,note_off,360,0,1,,,,,,,,,0,,,65,0
213000,note_on,0,0,1,,,,,,,,,0,,,69,51
213000,note_off,360,0,2,,,,,,,,,1,,,60,0
213000,note_on,0,0,2,,,,,,,,,1,,,65,51
213120,note_off,160,0,3,,,,,,,,,2,,,41,0
213120,note_off,120,0,2,,,,,,,,,1,,,65,0
213120,note_off,120,0,1,,,,,,,,,0,,,69,0
213120,note_off,480,0,4,,,,,,,,,3,,,36,0
213120,note_on,0,0,4,,,,,,,,,3,,,29,49
213120,note_on,0,0,2,,,,,,,,,1,,,69,52
213120,note_on,0,0,1,,,,,,,,,0,,,72,52
213280,note_on,160,0,3,,,,,,,,,2,,,41,49
213440,note_off,160,0,3,,,,,,,,,2,,,41,0
213440,note_on,0,0,3,,,,,,,,,2,,,41,50
213540,set_tempo,900,1,0,,,,,,550458,,,,,,,
213600,note_on,0,0,4,,,,,,,,,3,,,33,51
213600,note_off,160,0,3,,,,,,,,,2,,,41,0
213600,note_on,0,0,3,,,,,,,,,2,,,41,51
213600,note_off,480,0,4,,,,,,,,,3,,,29,0
213760,note_on,0,0,3,,,,,,,,,2,,,41,52
213760,note_off,160,0,3,,,,,,,,,2,,,41,0
213920,note_off,160,0,3,,,,,,,,,2,,,41,0
213920,note_on,0,0,3,,,,,,,,,2,,,41,52
214080,note_on,0,0,2,,,,,,,,,1,,,65,56
214080,note_off,960,0,1,,,,,,,,,0,,,72,0
214080,note_on,0,0,1,,,,,,,,,0,,,69,56
214080,note_on,0,0,2,,,,,,,,,1,,,60,56
214080,note_off,960,0,2,,,,,,,,,1,,,69,0
214080,note_off,480,0,4,,,,,,,,,3,,,33,0
214080,note_on,0,0,4,,,,,,,,,3,,,36,53
214080,note_on,0,0,3,,,,,,,,,2,,,41,53
214080,note_off,160,0,3,,,,,,,,,2,,,41,0
214080,set_tempo,540,1,0,,,,,,540540,,,,,,,
214240,note_off,160,0,3,,,,,,,,,2,,,41,0
214240,note_on,0,0,3,,,,,,,,,2,,,41,54
214400,note_off,160,0,3,,,,,,,,,2,,,41,0
214400,note_on,0,0,3,,,,,,,,,2,,,41,54
214440,note_on,0,0,2,,,,,,,,,1,,,69,58
214440,note_on,0,0,1,,,,,,,,,0,,,72,58
214440,note_on,0,0,2,,,,,,,,,1,,,65,58
214440,note_off,0,0,2,,,,,,,,,1,,,60,0
214440,note_off,360,0,2,,,,,,,,,1,,,65,0
214440,note_off,360,0,1,,,,,,,,,0,,,69,0
214560,note_off,120,0,1,,,,,,,,,0,,,72,0
214560,note_on,0,0,1,,,,,,,,,0,,,77,60
214560,note_off,120,0,2,,,,,,,,,1,,,69,0
214560,note_off,0,0,2,,,,,,,,,1,,,65,0
214560,note_on,0,0,2,,,,,,,,,1,,,69,60
214560,note_on,0,0,2,,,,,,,,,1,,,72,60
214560,note_on,0,0,4,,,,,,,,,3,,,41,55
214560,note_off,480,0,4,,,,,,,,,3,,,36,0
214560,note_off,160,0,3,,,,,,,,,2,,,41,0
214720,note_on,0,0,4,,,,,,,,,3,,,60,59
214720,note_off,160,0,4,,,,,,,,,3,,,41,0
214824,note_off,104,0,4,,,,,,,,,3,,,60,0
214880,note_on,56,0,4,,,,,,,,,3,,,57,62
214980,set_tempo,900,1,0,,,,,,550458,,,,,,,
214984,note_off,104,0,4,,,,,,,,,3,,,57,0
215040,note_on,56,0,4,,,,,,,,,3,,,53,65
215144,note_off,104,0,4,,,,,,,,,3,,,53,0
215200,note_on,56,0,4,,,,,,,,,3,,,48,68
215280,note_on,0,0,2,,,,,,,,,1,,,72,72
215280,note_on,0,0,2,,,,,,,,,1,,,77,72
215280,note_off,0,0,2,,,,,,,,,1,,,72,0
215280,note_off,720,0,2,,,,,,,,,1,,,69,0
215280,note_off,720,0,1,,,,,,,,,0,,,77,0
215280,note_on,0,0,1,,,,,,,,,0,,,81,72
215304,note_off,104,0,4,,,,,,,,,3,,,48,0
215360,note_on,56,0,4,,,,,,,,,3,,,45,72
215464,note_off,104,0,4,,,,,,,,,3,,,45,0
215520,note_on,0,0,1,,,,,,,,,0,,,84,76
215520,note_on,0,0,2,,,,,,,,,1,,,81,76
215520,note_off,0,0,2,,,,,,,,,1,,,77,0
215520,note_off,240,0,2,,,,,,,,,1,,,72,0
215520,note_off,240,0,1,,,,,,,,,0,,,81,0
215520,note_on,56,0,4,,,,,,,,,3,,,41,75
215520,note_on,0,0,2,,,,,,,,,1,,,77,76
215650,set_tempo,670,1,0,,,,,,560747,,,,,,,
215680,note_on,160,0,4,,,,,,,,,3,,,53,78
215760,set_tempo,110,1,0,,,,,,582524,,,,,,,
215760,note_on,0,0,2,,,,,,,,,1,,,84,79
215760,note_off,0,0,2,,,,,,,,,1,,,81,0
215760,note_on,0,0,1,,,,,,,,,0,,,89,79
215760,note_off,240,0,1,,,,,,,,,0,,,84,0
215760,note_off,240,0,2,,,,,,,,,1,,,77,0
215760,note_on,0,0,2,,,,,,,,,1,,,81,79
215840,note_on,0,0,4,,,,,,,,,3,,,53,82
215840,note_off,0,0,4,,,,,,,,,3,,,41,0
215840,note_off,160,0,4,,,,,,,,,3,,,53,0
216000,note_on,0,0,1,,,,,,,,,0,,,88,83
216000,note_off,240,0,1,,,,,,,,,0,,,89,0
216000,note_off,240,0,2,,,,,,,,,1,,,84,0
216000,note_off,0,0,2,,,,,,,,,1,,,81,0
216000,note_on,0,0,2,,,,,,,,,1,,,79,83
216000,note_on,0,0,2,,,,,,,,,1,,,85,83
216000,note_off,160,0,4,,,,,,,,,3,,,53,0
216000,note_on,0,0,4,,,,,,,,,3,,,41,85
216000,set_tempo,240,1,0,,,,,,545454,,,,,,,
216000,note_on,0,0,2,,,,,,,,,1,,,82,83
216004,set_tempo,4,1,0,,,,,,560747,,,,,,,
216160,note_on,0,0,3,,,,,,,,,2,,,55,77
216160,note_on,0,0,3,,,,,,,,,2,,,53,77
216160,note_on,0,0,3,,,,,,,,,2,,,61,77
216160,note_on,0,0,3,,,,,,,,,2,,,58,77
216160,note_on,1600,0,3,,,,,,,,,2,,,64,77
216160,note_on,0,0,2,,,,,,,,,1,,,85,73
216160,note_off,160,0,1,,,,,,,,,0,,,88,0
216160,note_on,0,0,2,,,,,,,,,1,,,79,73
216160,note_off,160,0,2,,,,,,,,,1,,,85,0
216160,note_off,0,0,2,,,,,,,,,1,,,79,0
216160,note_off,0,0,2,,,,,,,,,1,,,82,0
216160,note_on,0,0,2,,,,,,,,,1,,,82,73
216160,note_on,0,0,1,,,,,,,,,0,,,88,73
216160,set_tempo,156,1,0,,,,,,550458,,,,,,,
216320,note_on,0,0,2,,,,,,,,,1,,,82,75
216320,note_on,0,0,1,,,,,,,,,0,,,88,75
216320,note_on,0,0,3,,,,,,,,,2,,,58,78
216320,note_on,0,0,3,,,,,,,,,2,,,55,78
216320,note_on,0,0,3,,,,,,,,,2,,,53,78
216320,note_off,0,0,3,,,,,,,,,2,,,64,0
216320,note_off,0,0,3,,,,,,,,,2,,,58,0
216320,note_off,0,0,3,,,,,,,,,2,,,53,0
216320,note_off,0,0,3,,,,,,,,,2,,,61,0
216320,note_off,160,0,3,,,,,,,,,2,,,55,0
216320,note_off,160,0,2,,,,,,,,,1,,,82,0
216320,note_off,0,0,2,,,,,,,,,1,,,85,0
216320,note_off,0,0,2,,,,,,,,,1,,,79,0
216320,note_on,0,0,2,,,,,,,,,1,,,79,75
216320,note_on,0,0,2,,,,,,,,,1,,,85,75
216320,note_off,160,0,1,,,,,,,,,0,,,88,0
216320,note_on,0,0,3,,,,,,,,,2,,,61,78
216320,note_on,0,0,3,,,,,,,,,2,,,64,78
216480,note_on,0,0,1,,,,,,,,,0,,,88,77
216480,note_off,0,0,2,,,,,,,,,1,,,79,0
216480,note_off,0,0,2,,,,,,,,,1,,,85,0
216480,note_off,160,0,2,,,,,,,,,1,,,82,0
216480,note_on,0,0,2,,,,,,,,,1,,,82,77
216480,note_on,0,0,2,,,,,,,,,1,,,79,77
216480,note_on,0,0,3,,,,,,,,,2,,,64,80
216480,note_off,160,0,1,,,,,,,,,0,,,88,0
216480,note_on,0,0,3,,,,,,,,,2,,,61,80
216480,note_on,0,0,3,,,,,,,,,2,,,55,80
216480,note_on,0,0,3,,,,,,,,,2,,,53,80
216480,note_off,0,0,3,,,,,,,,,2,,,53,0
216480,note_off,0,0,3,,,,,,,,,2,,,55,0
216480,note_off,0,0,3,,,,,,,,,2,,,64,0
216480,note_off,0,0,3,,,,,,,,,2,,,58,0
216480,note_off,160,0,3,,,,,,,,,2,,,61,0
216480,note_on,0,0,3,,,,,,,,,2,,,58,80
216480,note_on,0,0,2,,,,,,,,,1,,,85,77
216640,note_on,0,0,2,,,,,,,,,1,,,82,79
216640,note_on,0,0,2,,,,,,,,,1,,,79,79
216640,note_on,0,0,2,,,,,,,,,1,,,85,79
216640,note_off,0,0,2,,,,,,,,,1,,,79,0
216640,note_off,0,0,2,,,,,,,,,1,,,85,0
216640,note_off,160,0,2,,,,,,,,,1,,,82,0
216640,note_on,0,0,1,,,,,,,,,0,,,88,79
216640,note_off,0,0,3,,,,,,,,,2,,,64,0
216640,note_on,0,0,3,,,,,,,,,2,,,64,82
216640,note_off,0,0,3,,,,,,,,,2,,,55,0
216640,note_off,0,0,3,,,,,,,,,2,,,53,0
216640,note_on,0,0,3,,,,,,,,,2,,,53,82
216640,note_on,0,0,3,,,,,,,,,2,,,55,82
216640,note_off,160,0,3,,,,,,,,,2,,,61,0
216640,note_off,0,0,3,,,,,,,,,2,,,58,0
216640,note_on,0,0,3,,,,,,,,,2,,,58,82
216640,note_off,160,0,1,,,,,,,,,0,,,88,0
216640,note_on,0,0,3,,,,,,,,,2,,,61,82
216800,note_on,0,0,3,,,,,,,,,2,,,58,84
216800,note_on,0,0,3,,,,,,,,,2,,,61,84
216800,note_on,0,0,3,,,,,,,,,2,,,64,84
216800,note_on,0,0,3,,,,,,,,,2,,,55,84
216800,note_off,0,0,3,,,,,,,,,2,,,53,0
216800,note_off,0,0,3,,,,,,,,,2,,,55,0
216800,note_off,0,0,3,,,,,,,,,2,,,64,0
216800,note_off,0,0,3,,,,,,,,,2,,,58,0
216800,note_on,0,0,3,,,,,,,,,2,,,53,84
216800,note_off,160,0,2,,,,,,,,,1,,,82,0
216800,note_off,0,0,2,,,,,,,,,1,,,79,0
216800,note_off,0,0,2,,,,,,,,,1,,,85,0
216800,note_on,0,0,2,,,,,,,,,1,,,85,81
216800,note_on,0,0,2,,,,,,,,,1,,,79,81
216800,note_on,0,0,2,,,,,,,,,1,,,82,81
216800,note_off,160,0,1,,,,,,,,,0,,,88,0
216800,note_on,0,0,1,,,,,,,,,0,,,88,81
216800,note_off,160,0,3,,,,,,,,,2,,,61,0
216960,note_on,0,0,3,,,,,,,,,2,,,58,85
216960,note_on,0,0,3,,,,,,,,,2,,,61,85
216960,note_on,0,0,3,,,,,,,,,2,,,55,85
216960,note_on,0,0,3,,,,,,,,,2,,,64,85
216960,note_off,0,0,3,,,,,,,,,2,,,61,0
216960,note_off,0,0,3,,,,,,,,,2,,,55,0
216960,note_off,0,0,3,,,,,,,,,2,,,53,0
216960,note_off,0,0,3,,,,,,,,,2,,,64,0
216960,note_off,160,0,3,,,,,,,,,2,,,58,0
216960,note_on,0,0,3,,,,,,,,,2,,,53,85
216960,note_off,160,0,1,,,,,,,,,0,,,88,0
216960,note_on,0,0,1,,,,,,,,,0,,,88,83
216960,note_off,160,0,2,,,,,,,,,1,,,82,0
216960,note_off,0,0,2,,,,,,,,,1,,,79,0
216960,note_off,0,0,2,,,,,,,,,1,,,85,0
216960,note_on,0,0,2,,,,,,,,,1,,,82,83
216960,note_on,0,0,2,,,,,,,,,1,,,79,83
216960,note_on,0,0,2,,,,,,,,,1,,,85,83
217120,note_on,0,0,3,,,,,,,,,2,,,61,87
217120,note_on,0,0,3,,,,,,,,,2,,,64,87
217120,note_off,160,0,3,,,,,,,,,2,,,58,0
217120,note_off,0,0,3,,,,,,,,,2,,,61,0
217120,note_off,0,0,3,,,,,,,,,2,,,55,0
217120,note_off,0,0,3,,,,,,,,,2,,,64,0
217120,note_off,0,0,3,,,,,,,,,2,,,53,0
217120,note_on,0,0,3,,,,,,,,,2,,,53,87
217120,note_on,0,0,3,,,,,,,,,2,,,55,87
217120,note_on,0,0,2,,,,,,,,,1,,,82,85
217120,note_on,0,0,2,,,,,,,,,1,,,79,85
217120,note_on,0,0,3,,,,,,,,,2,,,58,87
217120,note_off,0,0,2,,,,,,,,,1,,,85,0
217120,note_off,0,0,2,,,,,,,,,1,,,79,0
217120,note_off,160,0,1,,,,,,,,,0,,,88,0
217120,note_on,0,0,1,,,,,,,,,0,,,88,85
217120,note_off,160,0,2,,,,,,,,,1,,,82,0
217120,note_on,0,0,2,,,,,,,,,1,,,85,85
217280,note_on,0,0,3,,,,,,,,,2,,,61,89
217280,note_off,160,0,1,,,,,,,,,0,,,88,0
217280,note_on,0,0,1,,,,,,,,,0,,,88,87
217280,note_on,0,0,3,,,,,,,,,2,,,64,89
217280,note_on,0,0,3,,,,,,,,,2,,,58,89
217280,note_off,160,0,3,,,,,,,,,2,,,64,0
217280,note_off,0,0,3,,,,,,,,,2,,,61,0
217280,note_off,0,0,3,,,,,,,,,2,,,55,0
217280,note_off,0,0,3,,,,,,,,,2,,,53,0
217280,note_on,0,0,3,,,,,,,,,2,,,53,89
217280,note_on,0,0,3,,,,,,,,,2,,,55,89
217280,note_on,0,0,2,,,,,,,,,1,,,82,87
217280,note_on,0,0,2,,,,,,,,,1,,,79,87
217280,note_on,0,0,2,,,,,,,,,1,,,85,87
217280,note_off,0,0,2,,,,,,,,,1,,,85,0
217280,note_off,160,0,2,,,,,,,,,1,,,82,0
217280,note_off,0,0,3,,,,,,,,,2,,,58,0
217280,note_off,0,0,2,,,,,,,,,1,,,79,0
217420,set_tempo,1260,1,0,,,,,,555555,,,,,,,
217440,note_on,0,0,2,,,,,,,,,1,,,79,91
217440,note_on,0,0,3,,,,,,,,,2,,,64,90
217440,note_on,0,0,3,,,,,,,,,2,,,61,90
217440,note_on,0,0,3,,,,,,,,,2,,,55,90
217440,note_on,0,0,3,,,,,,,,,2,,,58,90
217440,note_on,0,0,3,,,,,,,,,2,,,53,90
217440,note_off,0,0,3,,,,,,,,,2,,,53,0
217440,note_off,0,0,3,,,,,,,,,2,,,55,0
217440,note_off,0,0,3,,,,,,,,,2,,,58,0
217440,note_off,160,0,3,,,,,,,,,2,,,61,0
217440,note_off,0,0,3,,,,,,,,,2,,,64,0
217440,note_off,160,0,1,,,,,,,,,0,,,88,0
217440,note_on,0,0,1,,,,,,,,,0,,,88,91
217440,note_off,160,0,2,,,,,,,,,1,,,82,0
217440,note_off,0,0,2,,,,,,,,,1,,,79,0
217440,note_off,0,0,2,,,,,,,,,1,,,85,0
217440,note_on,0,0,2,,,,,,,,,1,,,82,91
217440,note_on,0,0,2,,,,,,,,,1,,,85,91
217440,note_on,0,0,2,,,,,,,,,1,,,76,91
217680,note_on,0,0,3,,,,,,,,,2,,,53,86
217680,note_on,0,0,3,,,,,,,,,2,,,55,86
217680,note_on,0,0,3,,,,,,,,,2,,,64,86
217680,note_off,0,0,3,,,,,,,,,2,,,53,0
217680,note_off,0,0,2,,,,,,,,,1,,,82,0
217680,note_off,0,0,3,,,,,,,,,2,,,55,0
217680,note_off,0,0,3,,,,,,,,,2,,,61,0
217680,note_off,240,0,3,,,,,,,,,2,,,64,0
217680,note_on,0,0,3,,,,,,,,,2,,,61,86
217680,note_off,0,0,3,,,,,,,,,2,,,58,0
217680,note_on,0,0,3,,,,,,,,,2,,,58,86
217680,note_off,0,0,2,,,,,,,,,1,,,85,0
217680,note_off,0,0,2,,,,,,,,,1,,,76,0
217680,note_off,240,0,1,,,,,,,,,0,,,88,0
217680,note_on,0,0,1,,,,,,,,,0,,,88,87
217680,note_on,0,0,2,,,,,,,,,1,,,82,87
217680,note_on,0,0,2,,,,,,,,,1,,,85,87
217680,note_on,0,0,2,,,,,,,,,1,,,79,87
217680,note_on,0,0,2,,,,,,,,,1,,,76,87
217680,note_off,240,0,2,,,,,,,,,1,,,79,0
217920,note_off,240,0,1,,,,,,,,,0,,,88,0
217920,note_off,0,0,2,,,,,,,,,1,,,85,0
217920,note_off,240,0,3,,,,,,,,,2,,,58,0
217920,note_off,0,0,2,,,,,,,,,1,,,82,0
217920,note_on,0,0,2,,,,,,,,,1,,,82,83
217920,note_on,0,0,2,,,,,,,,,1,,,85,83
217920,note_on,0,0,2,,,,,,,,,1,,,76,83
217920,note_on,0,0,2,,,,,,,,,1,,,79,83
217920,note_off,0,0,2,,,,,,,,,1,,,79,0
217920,note_off,240,0,2,,,,,,,,,1,,,76,0
217920,note_on,0,0,1,,,,,,,,,0,,,88,83
217920,note_on,0,0,3,,,,,,,,,2,,,61,82
217920,note_off,0,0,3,,,,,,,,,2,,,61,0
217920,note_off,0,0,3,,,,,,,,,2,,,64,0
217920,note_off,0,0,3,,,,,,,,,2,,,55,0
217920,note_off,0,0,3,,,,,,,,,2,,,53,0
217920,note_on,0,0,3,,,,,,,,,2,,,53,82
217920,note_on,0,0,3,,,,,,,,,2,,,64,82
217920,note_on,0,0,3,,,,,,,,,2,,,58,82
217920,note_on,0,0,3,,,,,,,,,2,,,55,82
218040,set_tempo,620,1,0,,,,,,560747,,,,,,,
218160,note_on,0,0,3,,,,,,,,,2,,,55,78
218160,note_on,0,0,3,,,,,,,,,2,,,58,78
218160,note_on,0,0,3,,,,,,,,,2,,,64,78
218160,note_off,0,0,3,,,,,,,,,2,,,58,0
218160,note_off,240,0,3,,,,,,,,,2,,,55,0
218160,note_on,0,0,3,,,,,,,,,2,,,61,78
218160,note_off,0,0,2,,,,,,,,,1,,,85,0
218160,note_on,0,0,3,,,,,,,,,2,,,53,78
218160,note_off,0,0,2,,,,,,,,,1,,,76,0
218160,note_on,0,0,1,,,,,,,,,0,,,88,78
218160,note_off,240,0,1,,,,,,,,,0,,,88,0
218160,note_on,0,0,2,,,,,,,,,1,,,76,78
218160,note_on,0,0,2,,,,,,,,,1,,,79,78
218160,note_on,0,0,2,,,,,,,,,1,,,85,78
218160,note_off,0,0,2,,,,,,,,,1,,,82,0
218160,note_off,0,0,3,,,,,,,,,2,,,53,0
218160,note_off,0,0,3,,,,,,,,,2,,,64,0
218160,note_off,240,0,2,,,,,,,,,1,,,79,0
218160,note_on,0,0,2,,,,,,,,,1,,,82,78
218160,note_off,0,0,3,,,,,,,,,2,,,61,0
218400,note_off,240,0,3,,,,,,,,,2,,,64,0
218400,note_on,0,0,3,,,,,,,,,2,,,53,75
218400,note_on,0,0,3,,,,,,,,,2,,,61,75
218400,note_off,0,0,3,,,,,,,,,2,,,53,0
218400,note_off,0,0,3,,,,,,,,,2,,,61,0
218400,note_off,0,0,3,,,,,,,,,2,,,55,0
218400,note_on,0,0,3,,,,,,,,,2,,,55,75
218400,note_off,0,0,3,,,,,,,,,2,,,58,0
218400,note_off,240,0,2,,,,,,,,,1,,,76,0
218400,note_on,0,0,2,,,,,,,,,1,,,79,74
218400,note_on,0,0,1,,,,,,,,,0,,,88,74
218400,note_off,240,0,1,,,,,,,,,0,,,88,0
218400,note_on,0,0,3,,,,,,,,,2,,,58,75
218400,note_on,0,0,2,,,,,,,,,1,,,76,74
218400,note_on,0,0,2,,,,,,,,,1,,,85,74
218400,note_on,0,0,2,,,,,,,,,1,,,82,74
218400,note_off,0,0,2,,,,,,,,,1,,,82,0
218400,note_off,0,0,2,,,,,,,,,1,,,85,0
218400,note_off,0,0,2,,,,,,,,,1,,,79,0
218400,note_on,0,0,3,,,,,,,,,2,,,64,75
218496,set_tempo,456,1,0,,,,,,566037,,,,,,,
218640,note_off,0,0,3,,,,,,,,,2,,,61,0
218640,note_off,0,0,3,,,,,,,,,2,,,64,0
218640,note_on,0,0,2,,,,,,,,,1,,,82,70
218640,note_off,0,0,2,,,,,,,,,1,,,82,0
218640,note_off,0,0,2,,,,,,,,,1,,,85,0
218640,note_off,0,0,2,,,,,,,,,1,,,76,0
218640,note_off,240,0,2,,,,,,,,,1,,,79,0
218640,note_on,0,0,2,,,,,,,,,1,,,79,70
218640,note_off,240,0,3,,,,,,,,,2,,,58,0
218640,note_off,240,0,1,,,,,,,,,0,,,88,0
218640,note_on,0,0,2,,,,,,,,,1,,,85,70
218640,note_on,0,0,1,,,,,,,,,0,,,88,70
218640,note_on,0,0,3,,,,,,,,,2,,,64,71
218640,note_on,0,0,3,,,,,,,,,2,,,55,71
218640,note_on,0,0,3,,,,,,,,,2,,,58,71
218640,note_on,0,0,3,,,,,,,,,2,,,61,71
218640,note_on,0,0,3,,,,,,,,,2,,,53,71
218640,note_off,0,0,3,,,,,,,,,2,,,53,0
218640,note_off,0,0,3,,,,,,,,,2,,,55,0
218640,note_on,0,0,2,,,,,,,,,1,,,76,70
218880,note_off,0,0,2,,,,,,,,,1,,,85,0
218880,note_off,240,0,2,,,,,,,,,1,,,79,0
218880,note_off,0,0,2,,,,,,,,,1,,,76,0
218880,note_on,0,0,2,,,,,,,,,1,,,79,66
218880,note_on,0,0,2,,,,,,,,,1,,,85,66
218880,note_off,240,0,1,,,,,,,,,0,,,88,0
218880,note_on,0,0,1,,,,,,,,,0,,,88,66
218880,note_on,0,0,2,,,,,,,,,1,,,76,66
218880,note_off,0,0,2,,,,,,,,,1,,,82,0
218880,note_on,0,0,2,,,,,,,,,1,,,82,66
218880,note_off,0,0,3,,,,,,,,,2,,,53,0
218880,note_off,0,0,3,,,,,,,,,2,,,61,0
218880,note_off,0,0,3,,,,,,,,,2,,,58,0
218880,note_off,0,0,3,,,,,,,,,2,,,55,0
218880,note_off,240,0,3,,,,,,,,,2,,,64,0
218880,note_on,0,0,3,,,,,,,,,2,,,61,67
218880,note_on,0,0,3,,,,,,,,,2,,,58,67
218880,note_on,0,0,3,,,,,,,,,2,,,55,67
218880,note_on,0,0,3,,,,,,,,,2,,,64,67
218880,note_on,0,0,3,,,,,,,,,2,,,53,67
218884,set_tempo,388,1,0,,,,,,571428,,,,,,,
219120,note_off,240,0,3,,,,,,,,,2,,,55,0
219120,note_off,0,0,3,,,,,,,,,2,,,64,0
219120,note_off,0,0,3,,,,,,,,,2,,,53,0
219120,note_off,0,0,2,,,,,,,,,1,,,82,0
219120,note_off,0,0,2,,,,,,,,,1,,,76,0
219120,note_off,0,0,2,,,,,,,,,1,,,79,0
219120,note_off,240,0,2,,,,,,,,,1,,,85,0
219120,note_on,0,0,2,,,,,,,,,1,,,82,62
219120,note_off,0,0,3,,,,,,,,,2,,,61,0
219120,note_off,0,0,3,,,,,,,,,2,,,58,0
219120,note_on,0,0,3,,,,,,,,,2,,,55,63
219120,note_on,0,0,1,,,,,,,,,0,,,88,62
219120,note_on,0,0,2,,,,,,,,,1,,,85,62
219120,note_on,0,0,3,,,,,,,,,2,,,61,63
219120,note_on,0,0,3,,,,,,,,,2,,,58,63
219120,note_on,0,0,2,,,,,,,,,1,,,76,62
219120,note_on,0,0,3,,,,,,,,,2,,,64,63
219120,note_on,0,0,3,,,,,,,,,2,,,53,63
219120,note_off,240,0,1,,,,,,,,,0,,,88,0
219120,note_on,0,0,2,,,,,,,,,1,,,79,62
219220,set_tempo,336,1,0,,,,,,576923,,,,,,,
219360,note_on,0,0,1,,,,,,,,,0,,,88,58
219360,note_off,240,0,3,,,,,,,,,2,,,61,0
219360,note_off,0,0,3,,,,,,,,,2,,,58,0
219360,note_off,0,0,3,,,,,,,,,2,,,55,0
219360,note_off,0,0,3,,,,,,,,,2,,,64,0
219360,note_off,0,0,3,,,,,,,,,2,,,53,0
219360,note_off,240,0,1,,,,,,,,,0,,,88,0
219360,note_on,0,0,2,,,,,,,,,1,,,76,58
219360,note_off,0,0,2,,,,,,,,,1,,,85,0
219360,note_off,240,0,2,,,,,,,,,1,,,76,0
219360,note_on,0,0,3,,,,,,,,,2,,,58,59
219360,note_on,0,0,3,,,,,,,,,2,,,61,59
219360,note_on,0,0,3,,,,,,,,,2,,,64,59
219360,note_on,0,0,3,,,,,,,,,2,,,53,59
219360,note_on,0,0,3,,,,,,,,,2,,,55,59
219360,note_on,0,0,2,,,,,,,,,1,,,82,58
219360,note_on,0,0,2,,,,,,,,,1,,,79,58
219360,note_off,0,0,2,,,,,,,,,1,,,79,0
219360,note_off,0,0,2,,,,,,,,,1,,,82,0
219360,note_on,0,0,2,,,,,,,,,1,,,85,58
219528,set_tempo,308,1,0,,,,,,600000,,,,,,,
219600,note_off,0,0,3,,,,,,,,,2,,,61,0
219600,note_off,0,0,3,,,,,,,,,2,,,64,0
219600,note_off,0,0,3,,,,,,,,,2,,,55,0
219600,note_off,0,0,3,,,,,,,,,2,,,53,0
219600,note_on,0,0,3,,,,,,,,,2,,,53,55
219600,note_on,0,0,3,,,,,,,,,2,,,64,55
219600,note_on,0,0,3,,,,,,,,,2,,,58,55
219600,note_off,240,0,3,,,,,,,,,2,,,58,0
219600,note_on,0,0,3,,,,,,,,,2,,,55,55
219600,note_off,240,0,1,,,,,,,,,0,,,88,0
219600,note_on,0,0,2,,,,,,,,,1,,,85,53
219600,note_on,0,0,2,,,,,,,,,1,,,76,53
219600,note_on,0,0,2,,,,,,,,,1,,,79,53
219600,note_off,0,0,2,,,,,,,,,1,,,79,0
219600,note_off,0,0,2,,,,,,,,,1,,,82,0
219600,note_on,0,0,2,,,,,,,,,1,,,82,53
219600,note_off,240,0,2,,,,,,,,,1,,,76,0
219600,note_on,0,0,3,,,,,,,,,2,,,61,55
219600,note_on,0,0,1,,,,,,,,,0,,,88,53
219600,note_off,0,0,2,,,,,,,,,1,,,85,0
219812,set_tempo,284,1,0,,,,,,652173,,,,,,,
219840,note_off,0,0,3,,,,,,,,,2,,,53,0
219840,note_off,0,0,3,,,,,,,,,2,,,61,0
219840,note_off,0,0,3,,,,,,,,,2,,,58,0
219840,note_off,240,0,3,,,,,,,,,2,,,55,0
219840,note_on,0,0,3,,,,,,,,,2,,,53,52
219840,note_on,0,0,3,,,,,,,,,2,,,55,52
219840,note_on,0,0,3,,,,,,,,,2,,,58,52
219840,note_on,0,0,3,,,,,,,,,2,,,64,52
219840,note_on,0,0,3,,,,,,,,,2,,,61,52
219840,note_off,0,0,3,,,,,,,,,2,,,64,0
219840,note_on,0,0,2,,,,,,,,,1,,,85,49
219840,note_on,0,0,2,,,,,,,,,1,,,76,49
219840,note_off,0,0,2,,,,,,,,,1,,,79,0
219840,note_off,0,0,2,,,,,,,,,1,,,82,0
219840,note_off,0,0,2,,,,,,,,,1,,,76,0
219840,note_on,0,0,2,,,,,,,,,1,,,79,49
219840,note_on,0,0,1,,,,,,,,,0,,,88,49
219840,note_off,240,0,1,,,,,,,,,0,,,88,0
219840,note_off,240,0,2,,,,,,,,,1,,,85,0
219840,note_on,0,0,2,,,,,,,,,1,,,82,49
220076,set_tempo,264,1,0,,,,,,789473,,,,,,,
220080,note_off,240,0,2,,,,,,,,,1,,,79,0
220080,note_off,0,0,2,,,,,,,,,1,,,76,0
220080,note_off,0,0,2,,,,,,,,,1,,,85,0
220080,note_off,0,0,2,,,,,,,,,1,,,82,0
220080,note_on,0,0,2,,,,,,,,,1,,,79,45
220080,note_on,0,0,2,,,,,,,,,1,,,82,45
220080,note_on,0,0,2,,,,,,,,,1,,,76,45
220080,note_on,0,0,2,,,,,,,,,1,,,85,45
220080,note_on,0,0,3,,,,,,,,,2,,,64,48
220080,note_off,0,0,3,,,,,,,,,2,,,53,0
220080,note_off,0,0,3,,,,,,,,,2,,,58,0
220080,note_on,0,0,3,,,,,,,,,2,,,53,48
220080,note_on,0,0,3,,,,,,,,,2,,,58,48
220080,note_on,0,0,3,,,,,,,,,2,,,55,48
220080,note_off,0,0,3,,,,,,,,,2,,,64,0
220080,note_off,240,0,3,,,,,,,,,2,,,61,0
220080,note_on,0,0,3,,,,,,,,,2,,,61,48
220080,note_on,0,0,1,,,,,,,,,0,,,88,45
220080,note_off,240,0,1,,,,,,,,,0,,,88,0
220080,note_off,0,0,3,,,,,,,,,2,,,55,0
220272,note_off,4272,0,4,,,,,,,,,3,,,41,0
220320,note_off,0,0,3,,,,,,,,,2,,,58,0
220320,note_on,0,0,2,,,,,,,,,1,,,84,41
220320,note_on,0,0,3,,,,,,,,,2,,,57,44
220320,note_on,0,0,3,,,,,,,,,2,,,65,44
220320,note_on,0,0,3,,,,,,,,,2,,,60,44
220320,note_off,0,0,3,,,,,,,,,2,,,53,0
220320,note_off,240,0,3,,,,,,,,,2,,,61,0
220320,note_off,240,0,2,,,,,,,,,1,,,85,0
220320,note_on,0,0,1,,,,,,,,,0,,,89,41
220320,note_off,240,0,1,,,,,,,,,0,,,88,0
220320,note_on,48,0,4,,,,,,,,,3,,,53,44
220320,note_off,0,0,2,,,,,,,,,1,,,76,0
220320,note_off,0,0,2,,,,,,,,,1,,,82,0
220320,note_off,0,0,2,,,,,,,,,1,,,79,0
220320,note_on,0,0,2,,,,,,,,,1,,,81,41
220320,note_on,0,0,2,,,,,,,,,1,,,77,41
220320,note_off,0,0,3,,,,,,,,,2,,,55,0
220320,note_off,0,0,3,,,,,,,,,2,,,64,0
220800,note_off,0,0,2,,,,,,,,,1,,,77,0
220800,note_off,480,0,3,,,,,,,,,2,,,57,0
220800,note_off,480,0,2,,,,,,,,,1,,,84,0
220800,note_off,0,0,3,,,,,,,,,2,,,60,0
220800,note_off,0,0,2,,,,,,,,,1,,,81,0
220800,note_off,0,0,3,,,,,,,,,2,,,65,0
220800,note_off,480,0,1,,,,,,,,,0,,,89,0
220800,note_off,480,0,4,,,,,,,,,3,,,53,0
221280,note_on,480,0,3,,,,,,,,,2,,,55,38
221280,note_on,480,0,2,,,,,,,,,1,,,67,36
221280,note_on,0,0,2,,,,,,,,,1,,,60,36
221280,note_on,0,0,2,,,,,,,,,1,,,64,36
221280,note_on,480,0,4,,,,,,,,,3,,,48,38
221280,note_on,480,0,1,,,,,,,,,0,,,72,36
221535,set_tempo,1459,1,0,,,,,,810810,,,,,,,
221760,note_off,0,0,2,,,,,,,,,1,,,67,0
221760,note_on,0,0,2,,,,,,,,,1,,,60,30
221760,note_on,0,0,2,,,,,,,,,1,,,65,30
221760,note_off,480,0,2,,,,,,,,,1,,,64,0
221760,note_off,0,0,2,,,,,,,,,1,,,60,0
221760,note_off,480,0,1,,,,,,,,,0,,,72,0
221760,note_off,480,0,3,,,,,,,,,2,,,55,0
221760,note_on,0,0,3,,,,,,,,,2,,,57,32
221760,note_on,0,0,1,,,,,,,,,0,,,69,30
221760,note_off,480,0,4,,,,,,,,,3,,,48,0
221760,note_on,0,0,4,,,,,,,,,3,,,53,32
222240,note_off,480,0,3,,,,,,,,,2,,,57,0
222240,note_off,480,0,1,,,,,,,,,0,,,69,0
222240,note_off,480,0,4,,,,,,,,,3,,,53,0
222240,note_off,480,0,2,,,,,,,,,1,,,65,0
222240,note_off,0,0,2,,,,,,,,,1,,,60,0
222720,note_on,480,0,1,,,,,,,,,0,,,60,38
222720,note_on,480,0,2,,,,,,,,,1,,,52,38
222720,note_on,0,0,2,,,,,,,,,1,,,48,38
222720,note_on,0,0,2,,,,,,,,,1,,,55,38
222720,note_on,480,0,4,,,,,,,,,3,,,36,40
222750,set_tempo,1215,1,0,,,,,,845070,,,,,,,
223200,note_off,480,0,4,,,,,,,,,3,,,36,0
223200,note_on,0,0,1,,,,,,,,,0,,,60,42
223200,note_off,480,0,2,,,,,,,,,1,,,55,0
223200,note_off,0,0,2,,,,,,,,,1,,,48,0
223200,note_off,0,0,2,,,,,,,,,1,,,52,0
223200,note_on,0,0,2,,,,,,,,,1,,,48,42
223200,note_on,0,0,2,,,,,,,,,1,,,55,42
223200,note_on,0,0,2,,,,,,,,,1,,,52,42
223200,note_on,0,0,4,,,,,,,,,3,,,36,45
223200,note_off,480,0,1,,,,,,,,,0,,,60,0
224640,note_off,1440,0,1,,,,,,,,,0,,,60,0
224640,note_on,0,0,1,,,,,,,,,0,,,57,25
224640,note_on,2400,0,3,,,,,,,,,2,,,41,26
224640,note_off,1440,0,4,,,,,,,,,3,,,36,0
224640,note_on,0,0,4,,,,,,,,,3,,,29,26
224640,note_on,0,0,2,,,,,,,,,1,,,53,25
224640,note_on,0,0,2,,,,,,,,,1,,,48,25
224640,note_off,0,0,2,,,,,,,,,1,,,48,0
224640,note_off,0,0,2,,,,,,,,,1,,,55,0
224640,note_off,1440,0,2,,,,,,,,,1,,,52,0
225120,note_off,0,0,2,,,,,,,,,1,,,48,0
225120,note_off,480,0,3,,,,,,,,,2,,,41,0
225120,note_off,480,0,1,,,,,,,,,0,,,57,0
225120,note_off,480,0,4,,,,,,,,,3,,,29,0
225120,note_off,480,0,2,,,,,,,,,1,,,53,0
226080,set_tempo,3330,1,0,,,,,,1276595,,,,,,,
227520,control_change,2400,0,4,,,,,,,7,122,3,,,,
227520,pitchwheel,0,0,4,,,,,,,,,3,,0,,
227520,control_change,0,0,1,,,,,,,91,91,0,,,,
227520,pitchwheel,0,0,1,,,,,,,,,0,,0,,
227520,control_change,0,0,4,,,,,,,1,0,3,,,,
227520,control_change,0,0,1,,,,,,,32,0,0,,,,
227520,control_change,0,0,1,,,,,,,0,0,0,,,,
227520,control_change,0,0,1,,,,,,,7,127,0,,,,
227520,control_change,0,0,1,,,,,,,1,0,0,,,,
227520,control_change,2400,0,1,,,,,,,10,73,0,,,,
227520,control_change,0,0,4,,,,,,,64,0,3,,,,
227520,control_change,0,0,1,,,,,,,64,0,0,,,,
227520,control_change,0,0,4,,,,,,,91,91,3,,,,
227520,control_change,0,0,4,,,,,,,10,55,3,,,,
227520,control_change,0,0,4,,,,,,,0,0,3,,,,
227520,control_change,0,0,4,,,,,,,32,0,3,,,,
227520,program_change,0,0,4,,,,,,,,,3,0,,,
227520,time_signature,1440,1,0,2,4,24,8,,,,,,,,,
227520,marker,0,1,0,,,,,,,,,,,,,
227520,set_tempo,0,1,0,,,,,,600000,,,,,,,
227520,control_change,0,0,1,,,,,,,93,28,0,,,,
227520,program_change,0,0,1,,,,,,,,,0,0,,,
227520,control_change,0,0,4,,,,,,,93,28,3,,,,
228480,set_tempo,960,1,0,,,,,,540540,,,,,,,
228480,note_on,960,0,4,,,,,,,,,3,,,41,36
228600,note_on,120,0,4,,,,,,,,,3,,,45,36
228720,note_off,120,0,4,,,,,,,,,3,,,45,0
228720,note_on,0,0,4,,,,,,,,,3,,,48,37
228840,note_off,120,0,4,,,,,,,,,3,,,48,0
228840,note_on,0,0,4,,,,,,,,,3,,,53,38
228960,note_off,120,0,4,,,,,,,,,3,,,53,0
228960,note_on,0,0,4,,,,,,,,,3,,,43,38
228967,note_off,7,0,4,,,,,,,,,3,,,41,0
229080,note_on,113,0,4,,,,,,,,,3,,,52,39
229200,note_off,120,0,4,,,,,,,,,3,,,52,0
229200,note_on,0,0,4,,,,,,,,,3,,,45,39
229200,note_off,0,0,4,,,,,,,,,3,,,43,0
229320,note_on,120,0,4,,,,,,,,,3,,,53,40
229440,note_off,120,0,4,,,,,,,,,3,,,53,0
229440,note_off,0,0,4,,,,,,,,,3,,,45,0
229440,note_on,0,0,4,,,,,,,,,3,,,46,40
229560,note_on,120,0,4,,,,,,,,,3,,,55,41
229680,note_off,120,0,4,,,,,,,,,3,,,55,0
229680,note_off,0,0,4,,,,,,,,,3,,,46,0
229680,note_on,0,0,4,,,,,,,,,3,,,48,41
229800,note_on,120,0,4,,,,,,,,,3,,,57,42
229920,note_off,0,0,4,,,,,,,,,3,,,48,0
229920,note_off,120,0,4,,,,,,,,,3,,,57,0
229920,note_on,0,0,4,,,,,,,,,3,,,50,42
230040,note_on,120,0,4,,,,,,,,,3,,,58,43
230160,note_off,0,0,4,,,,,,,,,3,,,50,0
230160,note_on,0,0,4,,,,,,,,,3,,,52,44
230160,note_off,120,0,4,,,,,,,,,3,,,58,0
230280,set_tempo,1800,1,0,,,,,,550458,,,,,,,
230280,note_on,120,0,4,,,,,,,,,3,,,60,44
230400,set_tempo,120,1,0,,,,,,540540,,,,,,,
230400,control_change,120,0,4,,,,,,,64,127,3,,,,
230400,note_off,0,0,4,,,,,,,,,3,,,60,0
230400,note_off,0,0,4,,,,,,,,,3,,,52,0
230400,note_on,0,0,4,,,,,,,,,3,,,57,45
230520,note_on,3000,0,1,,,,,,,,,0,,,57,45
230520,note_off,120,0,4,,,,,,,,,3,,,57,0
230520,note_on,0,0,4,,,,,,,,,3,,,53,58
230640,note_on,0,0,1,,,,,,,,,0,,,60,46
230640,note_off,120,0,1,,,,,,,,,0,,,57,0
230760,note_off,120,0,1,,,,,,,,,0,,,60,0
230760,note_on,0,0,1,,,,,,,,,0,,,65,46
230880,note_off,120,0,1,,,,,,,,,0,,,65,0
230880,note_on,0,0,1,,,,,,,,,0,,,55,47
231000,note_on,120,0,1,,,,,,,,,0,,,64,47
231120,note_off,120,0,1,,,,,,,,,0,,,64,0
231120,note_off,0,0,1,,,,,,,,,0,,,55,0
231120,note_on,0,0,1,,,,,,,,,0,,,57,48
231240,note_on,120,0,1,,,,,,,,,0,,,65,49
231360,note_on,0,0,1,,,,,,,,,0,,,58,49
231360,note_off,0,0,1,,,,,,,,,0,,,57,0
231360,note_off,120,0,1,,,,,,,,,0,,,65,0
231480,note_on,120,0,1,,,,,,,,,0,,,67,50
231600,note_off,120,0,1,,,,,,,,,0,,,67,0
231600,note_off,0,0,1,,,,,,,,,0,,,58,0
231600,note_on,0,0,1,,,,,,,,,0,,,60,50
231720,note_on,120,0,1,,,,,,,,,0,,,69,51
231840,note_on,0,0,1,,,,,,,,,0,,,62,51
231840,note_off,0,0,1,,,,,,,,,0,,,60,0
231840,note_off,120,0,1,,,,,,,,,0,,,69,0
231960,note_on,120,0,1,,,,,,,,,0,,,70,52
232080,note_off,0,0,1,,,,,,,,,0,,,62,0
232080,note_off,120,0,1,,,,,,,,,0,,,70,0
232080,note_on,0,0,1,,,,,,,,,0,,,64,52
232200,note_on,120,0,1,,,,,,,,,0,,,72,53
232200,set_tempo,1800,1,0,,,,,,550458,,,,,,,
232320,control_change,1800,0,4,,,,,,,64,0,3,,,,
232320,note_on,0,0,1,,,,,,,,,0,,,69,53
232320,note_off,0,0,1,,,,,,,,,0,,,64,0
232320,note_off,0,0,1,,,,,,,,,0,,,72,0
232320,control_change,120,0,1,,,,,,,64,127,0,,,,
232320,set_tempo,120,1,0,,,,,,540540,,,,,,,
232327,note_off,7,0,4,,,,,,,,,3,,,53,0
232440,note_on,0,0,1,,,,,,,,,0,,,65,54
232440,note_on,113,0,4,,,,,,,,,3,,,57,54
232440,note_off,120,0,1,,,,,,,,,0,,,69,0
232560,note_off,120,0,1,,,,,,,,,0,,,65,0
232560,note_off,120,0,4,,,,,,,,,3,,,57,0
232560,note_on,0,0,4,,,,,,,,,3,,,60,55
232560,note_on,0,0,1,,,,,,,,,0,,,72,69
232680,note_on,0,0,4,,,,,,,,,3,,,65,55
232680,note_off,120,0,4,,,,,,,,,3,,,60,0
232800,note_on,0,0,4,,,,,,,,,3,,,55,56
232800,note_off,120,0,4,,,,,,,,,3,,,65,0
232920,note_on,120,0,4,,,,,,,,,3,,,64,56
233040,note_off,0,0,4,,,,,,,,,3,,,55,0
233040,note_off,120,0,4,,,,,,,,,3,,,64,0
233040,note_on,0,0,4,,,,,,,,,3,,,57,57
233160,note_on,120,0,4,,,,,,,,,3,,,65,57
233280,note_off,120,0,4,,,,,,,,,3,,,65,0
233280,note_off,0,0,4,,,,,,,,,3,,,57,0
233280,note_on,0,0,4,,,,,,,,,3,,,58,58
233400,note_on,120,0,4,,,,,,,,,3,,,67,58
233520,note_on,0,0,4,,,,,,,,,3,,,60,59
233520,note_off,120,0,4,,,,,,,,,3,,,67,0
233520,note_off,0,0,4,,,,,,,,,3,,,58,0
233640,note_on,120,0,4,,,,,,,,,3,,,69,60
233760,note_on,0,0,4,,,,,,,,,3,,,62,60
233760,note_off,120,0,4,,,,,,,,,3,,,69,0
233760,note_off,0,0,4,,,,,,,,,3,,,60,0
233880,note_on,120,0,4,,,,,,,,,3,,,70,61
234000,note_off,0,0,4,,,,,,,,,3,,,62,0
234000,note_off,120,0,4,,,,,,,,,3,,,70,0
234000,note_on,0,0,4,,,,,,,,,3,,,64,61
234120,set_tempo,1800,1,0,,,,,,550458,,,,,,,
234120,note_on,120,0,4,,,,,,,,,3,,,72,61
234240,control_change,1680,0,1,,,,,,,64,0,0,,,,
234240,note_off,0,0,4,,,,,,,,,3,,,64,0
234240,set_tempo,120,1,0,,,,,,540540,,,,,,,
234240,note_off,0,0,1,,,,,,,,,0,,,72,0
234240,note_on,0,0,4,,,,,,,,,3,,,69,62
234240,note_off,0,0,4,,,,,,,,,3,,,72,0
234240,control_change,120,0,4,,,,,,,64,127,3,,,,
234360,note_off,120,0,4,,,,,,,,,3,,,69,0
234360,note_on,0,0,4,,,,,,,,,3,,,65,77
234360,note_on,120,0,1,,,,,,,,,0,,,69,63
234480,note_off,120,0,1,,,,,,,,,0,,,69,0
234480,note_on,0,0,1,,,,,,,,,0,,,72,63
234600,note_off,120,0,1,,,,,,,,,0,,,72,0
234600,note_on,0,0,1,,,,,,,,,0,,,77,64
234720,note_off,120,0,1,,,,,,,,,0,,,77,0
234720,note_on,0,0,1,,,,,,,,,0,,,67,65
234840,note_on,120,0,1,,,,,,,,,0,,,76,65
234960,note_on,0,0,1,,,,,,,,,0,,,69,66
234960,note_off,0,0,1,,,,,,,,,0,,,67,0
234960,note_off,120,0,1,,,,,,,,,0,,,76,0
235080,note_on,120,0,1,,,,,,,,,0,,,77,66
235200,note_on,0,0,1,,,,,,,,,0,,,70,67
235200,note_off,0,0,1,,,,,,,,,0,,,69,0
235200,note_off,120,0,1,,,,,,,,,0,,,77,0
235320,note_on,120,0,1,,,,,,,,,0,,,79,67
235440,note_on,0,0,1,,,,,,,,,0,,,72,68
235440,note_off,0,0,1,,,,,,,,,0,,,70,0
235440,note_off,120,0,1,,,,,,,,,0,,,79,0
235560,note_on,120,0,1,,,,,,,,,0,,,81,68
235680,note_off,120,0,1,,,,,,,,,0,,,81,0
235680,note_off,0,0,1,,,,,,,,,0,,,72,0
235680,note_on,0,0,1,,,,,,,,,0,,,74,69
235800,note_on,120,0,1,,,,,,,,,0,,,82,69
235920,note_off,120,0,1,,,,,,,,,0,,,82,0
235920,note_off,0,0,1,,,,,,,,,0,,,74,0
235920,note_on,0,0,1,,,,,,,,,0,,,76,70
236040,note_on,120,0,1,,,,,,,,,0,,,84,71
236040,set_tempo,1800,1,0,,,,,,550458,,,,,,,
236160,note_on,0,0,4,,,,,,,,,3,,,65,71
236160,note_on,0,0,1,,,,,,,,,0,,,81,71
236160,note_off,0,0,1,,,,,,,,,0,,,76,0
236160,control_change,1800,0,4,,,,,,,64,0,3,,,,
236160,note_off,0,0,4,,,,,,,,,3,,,65,0
236160,set_tempo,120,1,0,,,,,,540540,,,,,,,
236160,note_off,120,0,1,,,,,,,,,0,,,84,0
236280,note_on,120,0,1,,,,,,,,,0,,,77,69
236280,note_on,120,0,4,,,,,,,,,3,,,69,69
236400,note_on,0,0,4,,,,,,,,,3,,,60,69
236400,note_off,0,0,4,,,,,,,,,3,,,65,0
236400,note_off,120,0,1,,,,,,,,,0,,,77,0
236400,note_off,0,0,1,,,,,,,,,0,,,81,0
236400,note_on,0,0,1,,,,,,,,,0,,,84,69
236400,note_off,120,0,4,,,,,,,,,3,,,69,0
236520,note_on,120,0,1,,,,,,,,,0,,,76,68
236520,note_on,120,0,4,,,,,,,,,3,,,67,68
236640,note_off,0,0,1,,,,,,,,,0,,,84,0
236640,note_off,120,0,4,,,,,,,,,3,,,67,0
236640,note_off,0,0,4,,,,,,,,,3,,,60,0
236640,note_on,0,0,1,,,,,,,,,0,,,77,68
236640,note_on,0,0,4,,,,,,,,,3,,,62,68
236640,note_off,120,0,1,,,,,,,,,0,,,76,0
236760,note_on,120,0,4,,,,,,,,,3,,,65,67
236760,note_on,120,0,1,,,,,,,,,0,,,74,67
236880,note_off,120,0,4,,,,,,,,,3,,,65,0
236880,note_off,0,0,4,,,,,,,,,3,,,62,0
236880,note_on,0,0,4,,,,,,,,,3,,,57,67
236880,note_on,0,0,1,,,,,,,,,0,,,81,67
236880,note_off,0,0,1,,,,,,,,,0,,,77,0
236880,note_off,120,0,1,,,,,,,,,0,,,74,0
237000,note_on,120,0,1,,,,,,,,,0,,,72,67
237000,note_on,120,0,4,,,,,,,,,3,,,64,67
237120,note_on,0,0,1,,,,,,,,,0,,,74,66
237120,note_off,0,0,1,,,,,,,,,0,,,81,0
237120,note_off,120,0,1,,,,,,,,,0,,,72,0
237120,note_off,120,0,4,,,,,,,,,3,,,64,0
237120,note_on,0,0,4,,,,,,,,,3,,,58,66
237120,note_off,0,0,4,,,,,,,,,3,,,57,0
237240,note_on,120,0,4,,,,,,,,,3,,,62,66
237240,note_on,120,0,1,,,,,,,,,0,,,70,66
237360,note_on,0,0,1,,,,,,,,,0,,,77,65
237360,note_off,120,0,4,,,,,,,,,3,,,62,0
237360,note_off,0,0,4,,,,,,,,,3,,,58,0
237360,note_on,0,0,4,,,,,,,,,3,,,53,65
237360,note_off,120,0,1,,,,,,,,,0,,,70,0
237360,note_off,0,0,1,,,,,,,,,0,,,74,0
237480,note_on,120,0,4,,,,,,,,,3,,,60,65
237480,note_on,120,0,1,,,,,,,,,0,,,69,65
237600,note_off,0,0,1,,,,,,,,,0,,,77,0
237600,note_off,120,0,1,,,,,,,,,0,,,69,0
237600,note_on,0,0,1,,,,,,,,,0,,,70,64
237600,note_on,0,0,4,,,,,,,,,3,,,55,64
237600,note_off,0,0,4,,,,,,,,,3,,,53,0
237600,note_off,120,0,4,,,,,,,,,3,,,60,0
237720,note_on,120,0,1,,,,,,,,,0,,,67,64
237720,note_on,120,0,4,,,,,,,,,3,,,58,64
237840,note_off,120,0,1,,,,,,,,,0,,,67,0
237840,note_on,0,0,4,,,,,,,,,3,,,50,64
237840,note_off,0,0,1,,,,,,,,,0,,,70,0
237840,note_on,0,0,1,,,,,,,,,0,,,74,64
237840,note_off,120,0,4,,,,,,,,,3,,,58,0
237840,note_off,0,0,4,,,,,,,,,3,,,55,0
237960,note_on,120,0,4,,,,,,,,,3,,,57,63
237960,note_on,120,0,1,,,,,,,,,0,,,65,63
238080,note_off,0,0,1,,,,,,,,,0,,,74,0
238080,note_on,0,0,1,,,,,,,,,0,,,67,63
238080,note_off,120,0,1,,,,,,,,,0,,,65,0
238080,note_on,0,0,4,,,,,,,,,3,,,46,63
238080,note_off,0,0,4,,,,,,,,,3,,,50,0
238080,note_off,120,0,4,,,,,,,,,3,,,57,0
238200,note_on,120,0,1,,,,,,,,,0,,,62,62
238200,note_on,120,0,4,,,,,,,,,3,,,55,62
238320,note_off,120,0,1,,,,,,,,,0,,,62,0
238320,note_off,0,0,1,,,,,,,,,0,,,67,0
238320,note_on,0,0,1,,,,,,,,,0,,,70,62
238320,note_on,0,0,4,,,,,,,,,3,,,46,62
238320,note_off,0,0,4,,,,,,,,,3,,,46,0
238320,note_off,120,0,4,,,,,,,,,3,,,55,0
238440,note_on,120,0,4,,,,,,,,,3,,,55,61
238440,note_on,120,0,1,,,,,,,,,0,,,62,61
238560,note_on,0,0,1,,,,,,,,,0,,,67,61
238560,note_off,0,0,1,,,,,,,,,0,,,70,0
238560,note_off,120,0,1,,,,,,,,,0,,,62,0
238560,note_on,0,0,4,,,,,,,,,3,,,46,61
238560,note_off,0,0,4,,,,,,,,,3,,,46,0
238560,note_off,120,0,4,,,,,,,,,3,,,55,0
238680,note_on,120,0,4,,,,,,,,,3,,,55,60
238680,note_on,120,0,1,,,,,,,,,0,,,62,60
238800,note_off,0,0,1,,,,,,,,,0,,,67,0
238800,note_off,0,0,4,,,,,,,,,3,,,46,0
238800,note_on,0,0,4,,,,,,,,,3,,,47,60
238800,note_on,0,0,1,,,,,,,,,0,,,65,60
238800,note_off,120,0,1,,,,,,,,,0,,,62,0
238800,note_off,120,0,4,,,,,,,,,3,,,55,0
238920,note_on,120,0,4,,,,,,,,,3,,,55,60
238920,note_on,120,0,1,,,,,,,,,0,,,62,60
239040,note_off,0,0,4,,,,,,,,,3,,,47,0
239040,note_off,120,0,1,,,,,,,,,0,,,62,0
239040,note_off,0,0,1,,,,,,,,,0,,,65,0
239040,note_on,0,0,1,,,,,,,,,0,,,64,59
239040,note_on,0,0,4,,,,,,,,,3,,,48,59
239040,note_off,120,0,4,,,,,,,,,3,,,55,0
239160,note_on,120,0,4,,,,,,,,,3,,,55,59
239160,note_on,120,0,1,,,,,,,,,0,,,60,59
239280,note_off,120,0,1,,,,,,,,,0,,,60,0
239280,note_off,0,0,1,,,,,,,,,0,,,64,0
239280,note_on,0,0,4,,,,,,,,,3,,,41,58
239280,note_off,0,0,4,,,,,,,,,3,,,48,0
239280,note_off,120,0,4,,,,,,,,,3,,,55,0
239280,note_on,0,0,1,,,,,,,,,0,,,57,58
239400,note_on,0,0,1,,,,,,,,,0,,,62,58
239400,note_on,120,0,4,,,,,,,,,3,,,53,58
239400,note_on,120,0,1,,,,,,,,,0,,,53,58
239520,note_off,120,0,4,,,,,,,,,3,,,53,0
239520,note_off,0,0,1,,,,,,,,,0,,,53,0
239520,note_on,0,0,1,,,,,,,,,0,,,55,57
239520,note_off,0,0,1,,,,,,,,,0,,,57,0
239520,note_off,0,0,4,,,,,,,,,3,,,41,0
239520,note_off,120,0,1,,,,,,,,,0,,,62,0
239520,note_on,0,0,4,,,,,,,,,3,,,43,57
239640,note_on,120,0,4,,,,,,,,,3,,,52,57
239640,note_on,120,0,1,,,,,,,,,0,,,60,57
239760,note_off,0,0,4,,,,,,,,,3,,,43,0
239760,note_on,0,0,4,,,,,,,,,3,,,43,56
239760,note_off,120,0,4,,,,,,,,,3,,,52,0
239760,note_on,0,0,1,,,,,,,,,0,,,53,56
239760,note_off,120,0,1,,,,,,,,,0,,,60,0
239760,note_off,0,0,1,,,,,,,,,0,,,55,0
239880,note_on,120,0,1,,,,,,,,,0,,,59,56
239880,note_on,120,0,4,,,,,,,,,3,,,50,56
239880,set_tempo,3720,1,0,,,,,,550458,,,,,,,
240000,note_off,0,0,4,,,,,,,,,3,,,43,0
240000,note_off,120,0,4,,,,,,,,,3,,,50,0
240000,note_on,0,0,4,,,,,,,,,3,,,36,56
240000,set_tempo,120,1,0,,,,,,540540,,,,,,,
240000,note_off,120,0,1,,,,,,,,,0,,,59,0
240000,note_off,0,0,1,,,,,,,,,0,,,53,0
240000,note_on,0,0,1,,,,,,,,,0,,,48,56
240120,note_on,0,0,1,,,,,,,,,0,,,52,56
240120,note_on,120,0,4,,,,,,,,,3,,,48,70
240120,note_off,120,0,1,,,,,,,,,0,,,48,0
240240,note_on,0,0,1,,,,,,,,,0,,,55,57
240240,note_off,120,0,1,,,,,,,,,0,,,52,0
240360,note_on,0,0,1,,,,,,,,,0,,,60,57
240360,note_off,120,0,1,,,,,,,,,0,,,55,0
240480,note_off,120,0,1,,,,,,,,,0,,,60,0
240480,note_on,0,0,1,,,,,,,,,0,,,51,58
240600,note_on,120,0,1,,,,,,,,,0,,,59,59
240720,note_on,0,0,1,,,,,,,,,0,,,52,59
240720,note_off,0,0,1,,,,,,,,,0,,,51,0
240720,note_off,120,0,1,,,,,,,,,0,,,59,0
240840,note_on,120,0,1,,,,,,,,,0,,,60,60
240840,set_tempo,840,1,0,,,,,,550458,,,,,,,
240960,note_off,0,0,4,,,,,,,,,3,,,36,0
240960,note_off,840,0,4,,,,,,,,,3,,,48,0
240960,note_on,0,0,4,,,,,,,,,3,,,36,60
240960,note_off,120,0,1,,,,,,,,,0,,,60,0
240960,note_on,0,0,1,,,,,,,,,0,,,52,60
240960,note_off,0,0,1,,,,,,,,,0,,,52,0
240960,set_tempo,120,1,0,,,,,,540540,,,,,,,
241080,note_on,120,0,4,,,,,,,,,3,,,48,74
241080,note_on,120,0,1,,,,,,,,,0,,,55,61
241200,note_off,120,0,1,,,,,,,,,0,,,55,0
241200,note_on,0,0,1,,,,,,,,,0,,,60,62
241320,note_off,120,0,1,,,,,,,,,0,,,60,0
241320,note_on,0,0,1,,,,,,,,,0,,,64,62
241440,note_off,120,0,1,,,,,,,,,0,,,64,0
241440,note_on,0,0,1,,,,,,,,,0,,,59,63
241447,note_off,7,0,1,,,,,,,,,0,,,52,0
241560,note_on,113,0,1,,,,,,,,,0,,,63,63
241680,note_off,120,0,1,,,,,,,,,0,,,63,0
241680,note_off,0,0,1,,,,,,,,,0,,,59,0
241680,note_on,0,0,1,,,,,,,,,0,,,60,64
241800,note_on,120,0,1,,,,,,,,,0,,,64,64
241800,set_tempo,840,1,0,,,,,,550458,,,,,,,
241912,note_off,832,0,4,,,,,,,,,3,,,48,0
241920,note_off,120,0,1,,,,,,,,,0,,,64,0
241920,note_off,0,0,1,,,,,,,,,0,,,60,0
241920,note_on,0,0,1,,,,,,,,,0,,,60,64
241920,note_on,0,0,4,,,,,,,,,3,,,36,64
241920,set_tempo,120,1,0,,,,,,540540,,,,,,,
241920,note_off,8,0,4,,,,,,,,,3,,,36,0
242040,note_on,120,0,1,,,,,,,,,0,,,64,65
242040,note_on,120,0,4,,,,,,,,,3,,,48,78
242160,note_on,0,0,1,,,,,,,,,0,,,67,66
242160,note_off,120,0,1,,,,,,,,,0,,,64,0
242280,set_tempo,360,1,0,,,,,,550458,,,,,,,
242280,note_on,0,0,1,,,,,,,,,0,,,72,67
242280,note_off,120,0,1,,,,,,,,,0,,,67,0
242400,note_on,0,0,4,,,,,,,,,3,,,36,69
242400,note_off,120,0,1,,,,,,,,,0,,,72,0
242400,note_off,360,0,4,,,,,,,,,3,,,36,0
242400,note_on,0,0,1,,,,,,,,,0,,,63,69
242400,set_tempo,120,1,0,,,,,,540540,,,,,,,
242407,note_off,7,0,1,,,,,,,,,0,,,60,0
242407,note_off,7,0,4,,,,,,,,,3,,,48,0
242520,note_on,113,0,1,,,,,,,,,0,,,71,70
242520,note_on,113,0,4,,,,,,,,,3,,,48,84
242640,note_on,0,0,1,,,,,,,,,0,,,64,71
242640,note_off,0,0,1,,,,,,,,,0,,,63,0
242640,note_off,120,0,1,,,,,,,,,0,,,71,0
242760,set_tempo,360,1,0,,,,,,550458,,,,,,,
242760,note_on,120,0,1,,,,,,,,,0,,,72,72
242880,note_off,0,0,1,,,,,,,,,0,,,64,0
242880,note_off,120,0,1,,,,,,,,,0,,,72,0
242880,note_on,0,0,1,,,,,,,,,0,,,71,72
242880,set_tempo,120,1,0,,,,,,540540,,,,,,,
242880,note_off,360,0,4,,,,,,,,,3,,,48,0
242880,note_off,0,0,4,,,,,,,,,3,,,36,0
242880,note_on,0,0,4,,,,,,,,,3,,,36,72
243000,note_on,120,0,1,,,,,,,,,0,,,75,74
243000,note_on,120,0,4,,,,,,,,,3,,,48,84
243120,note_on,0,0,1,,,,,,,,,0,,,72,77
243120,note_off,0,0,1,,,,,,,,,0,,,71,0
243120,note_off,120,0,1,,,,,,,,,0,,,75,0
243240,set_tempo,360,1,0,,,,,,550458,,,,,,,
243240,note_on,120,0,1,,,,,,,,,0,,,76,79
243360,note_off,120,0,1,,,,,,,,,0,,,76,0
243360,set_tempo,120,1,0,,,,,,540540,,,,,,,
243360,note_off,360,0,4,,,,,,,,,3,,,48,0
243360,note_off,0,0,4,,,,,,,,,3,,,36,0
243360,note_on,0,0,4,,,,,,,,,3,,,36,81
243360,note_off,0,0,1,,,,,,,,,0,,,72,0
243360,note_on,0,0,1,,,,,,,,,0,,,75,81
243480,note_on,120,0,4,,,,,,,,,3,,,48,94
243480,note_on,120,0,1,,,,,,,,,0,,,78,84
243600,note_on,0,0,1,,,,,,,,,0,,,76,86
243600,note_off,0,0,1,,,,,,,,,0,,,75,0
243600,note_off,120,0,1,,,,,,,,,0,,,78,0
243720,note_on,120,0,1,,,,,,,,,0,,,79,88
243720,set_tempo,360,1,0,,,,,,550458,,,,,,,
243840,note_off,360,0,4,,,,,,,,,3,,,48,0
243840,note_on,0,0,4,,,,,,,,,3,,,36,83
243840,note_off,120,0,1,,,,,,,,,0,,,79,0
243840,note_off,0,0,1,,,,,,,,,0,,,76,0
243840,note_on,0,0,1,,,,,,,,,0,,,84,83
243840,set_tempo,120,1,0,,,,,,540540,,,,,,,
243840,note_off,0,0,4,,,,,,,,,3,,,36,0
243960,note_on,0,0,1,,,,,,,,,0,,,72,67
243960,note_off,120,0,1,,,,,,,,,0,,,84,0
244080,note_on,0,0,1,,,,,,,,,0,,,74,68
244080,note_off,120,0,1,,,,,,,,,0,,,72,0
244200,note_off,120,0,1,,,,,,,,,0,,,74,0
244200,note_on,0,0,1,,,,,,,,,0,,,76,70
244320,note_off,120,0,1,,,,,,,,,0,,,76,0
244320,note_on,0,0,1,,,,,,,,,0,,,77,71
244440,note_on,600,0,4,,,,,,,,,3,,,48,73
244440,note_off,120,0,1,,,,,,,,,0,,,77,0
244440,note_on,0,0,1,,,,,,,,,0,,,79,73
244560,note_off,120,0,4,,,,,,,,,3,,,48,0
244560,note_on,0,0,4,,,,,,,,,3,,,47,74
244560,note_off,0,0,4,,,,,,,,,3,,,36,0
244560,note_off,120,0,1,,,,,,,,,0,,,79,0
244560,note_on,0,0,1,,,,,,,,,0,,,81,74
244680,note_on,0,0,4,,,,,,,,,3,,,45,76
244680,note_off,120,0,4,,,,,,,,,3,,,47,0
244680,note_on,0,0,1,,,,,,,,,0,,,83,76
244680,note_off,120,0,1,,,,,,,,,0,,,81,0
244800,note_on,0,0,1,,,,,,,,,0,,,84,79
244800,note_off,120,0,1,,,,,,,,,0,,,83,0
244800,note_on,0,0,4,,,,,,,,,3,,,43,79
244800,note_off,120,0,4,,,,,,,,,3,,,45,0
244920,note_off,120,0,4,,,,,,,,,3,,,43,0
244920,note_on,0,0,4,,,,,,,,,3,,,41,82
244920,note_off,120,0,1,,,,,,,,,0,,,84,0
244920,note_on,0,0,1,,,,,,,,,0,,,72,82
245040,note_on,0,0,1,,,,,,,,,0,,,74,84
245040,note_on,0,0,4,,,,,,,,,3,,,40,84
245040,note_off,120,0,4,,,,,,,,,3,,,41,0
245040,note_off,120,0,1,,,,,,,,,0,,,72,0
245160,note_off,120,0,1,,,,,,,,,0,,,74,0
245160,note_on,0,0,4,,,,,,,,,3,,,38,87
245160,note_off,120,0,4,,,,,,,,,3,,,40,0
245160,note_on,0,0,1,,,,,,,,,0,,,76,87
245280,note_on,0,0,4,,,,,,,,,3,,,36,90
245280,note_off,120,0,4,,,,,,,,,3,,,38,0
245280,note_on,0,0,1,,,,,,,,,0,,,77,90
245280,note_off,120,0,1,,,,,,,,,0,,,76,0
245400,note_on,0,0,4,,,,,,,,,3,,,48,93
245400,note_on,0,0,1,,,,,,,,,0,,,79,93
245400,note_off,120,0,1,,,,,,,,,0,,,77,0
245400,note_off,120,0,4,,,,,,,,,3,,,36,0
245520,note_on,0,0,4,,,,,,,,,3,,,47,96
245520,note_off,120,0,4,,,,,,,,,3,,,48,0
245520,note_off,120,0,1,,,,,,,,,0,,,79,0
245520,note_on,0,0,1,,,,,,,,,0,,,81,96
245640,note_on,0,0,1,,,,,,,,,0,,,83,98
245640,note_on,0,0,4,,,,,,,,,3,,,45,98
245640,note_off,120,0,1,,,,,,,,,0,,,81,0
245640,note_off,120,0,4,,,,,,,,,3,,,47,0
245760,note_off,120,0,4,,,,,,,,,3,,,45,0
245760,note_on,0,0,1,,,,,,,,,0,,,84,101
245760,note_off,120,0,1,,,,,,,,,0,,,83,0
245760,note_on,0,0,4,,,,,,,,,3,,,43,101
245880,note_off,120,0,4,,,,,,,,,3,,,43,0
245880,note_on,0,0,4,,,,,,,,,3,,,41,88
246000,note_off,240,0,1,,,,,,,,,0,,,84,0
246000,note_off,120,0,4,,,,,,,,,3,,,41,0
246000,note_on,0,0,4,,,,,,,,,3,,,40,78
246120,set_tempo,2280,1,0,,,,,,550458,,,,,,,
246120,note_off,120,0,4,,,,,,,,,3,,,40,0
246120,note_on,0,0,4,,,,,,,,,3,,,38,68
246240,note_off,120,0,4,,,,,,,,,3,,,38,0
246240,note_on,0,0,4,,,,,,,,,3,,,36,59
246240,note_on,0,0,1,,,,,,,,,0,,,55,59
246240,note_on,0,0,1,,,,,,,,,0,,,52,59
246240,set_tempo,120,1,0,,,,,,540540,,,,,,,
246240,note_on,240,0,1,,,,,,,,,0,,,60,59
246360,note_on,0,0,4,,,,,,,,,3,,,38,57
246360,note_off,120,0,4,,,,,,,,,3,,,36,0
246480,note_on,0,0,4,,,,,,,,,3,,,40,55
246480,note_off,120,0,4,,,,,,,,,3,,,38,0
246600,note_off,120,0,4,,,,,,,,,3,,,40,0
246600,note_on,0,0,4,,,,,,,,,3,,,41,53
246720,note_off,120,0,4,,,,,,,,,3,,,41,0
246720,note_off,0,0,1,,,,,,,,,0,,,60,0
246720,note_off,0,0,1,,,,,,,,,0,,,55,0
246720,note_off,480,0,1,,,,,,,,,0,,,52,0
246720,note_on,0,0,4,,,,,,,,,3,,,43,50
246840,note_on,0,0,4,,,,,,,,,3,,,45,48
246840,note_off,120,0,4,,,,,,,,,3,,,43,0
246960,note_off,120,0,4,,,,,,,,,3,,,45,0
246960,note_on,0,0,4,,,,,,,,,3,,,46,46
247080,set_tempo,840,1,0,,,,,,550458,,,,,,,
247080,note_off,120,0,4,,,,,,,,,3,,,46,0
247080,note_on,0,0,4,,,,,,,,,3,,,45,43
247200,note_off,120,0,4,,,,,,,,,3,,,45,0
247200,note_on,0,0,4,,,,,,,,,3,,,48,41
247320,note_on,0,0,4,,,,,,,,,3,,,46,39
247320,note_off,120,0,4,,,,,,,,,3,,,48,0
247440,note_off,120,0,4,,,,,,,,,3,,,46,0
247440,note_on,0,0,4,,,,,,,,,3,,,45,36
247440,set_tempo,360,1,0,,,,,,560747,,,,,,,
247560,set_tempo,120,1,0,,,,,,612244,,,,,,,
247560,note_off,120,0,4,,,,,,,,,3,,,45,0
247560,note_on,0,0,4,,,,,,,,,3,,,43,39
247680,set_tempo,120,1,0,,,,,,540540,,,,,,,
247680,control_change,22560,0,2,,,,,,,64,0,1,,,,
247680,control_change,22560,0,3,,,,,,,64,0,2,,,,
247680,control_change,960,0,1,,,,,,,64,0,0,,,,
247680,control_change,120,0,4,,,,,,,64,0,3,,,,
247680,note_off,0,0,4,,,,,,,,,3,,,43,0
247680,note_on,0,0,4,,,,,,,,,3,,,41,36
247800,note_on,120,0,4,,,,,,,,,3,,,45,36
247920,note_on,0,0,4,,,,,,,,,3,,,48,37
247920,note_off,120,0,4,,,,,,,,,3,,,45,0
248040,note_off,120,0,4,,,,,,,,,3,,,48,0
248040,note_on,0,0,4,,,,,,,,,3,,,53,38
248160,note_off,120,0,4,,,,,,,,,3,,,53,0
248160,note_on,0,0,4,,,,,,,,,3,,,43,38
248167,note_off,7,0,4,,,,,,,,,3,,,41,0
248280,note_on,113,0,4,,,,,,,,,3,,,52,39
248400,note_off,0,0,4,,,,,,,,,3,,,43,0
248400,note_on,0,0,4,,,,,,,,,3,,,45,39
248400,note_off,120,0,4,,,,,,,,,3,,,52,0
248520,note_on,120,0,4,,,,,,,,,3,,,53,40
248640,note_off,0,0,4,,,,,,,,,3,,,45,0
248640,note_off,120,0,4,,,,,,,,,3,,,53,0
248640,note_on,0,0,4,,,,,,,,,3,,,46,40
248760,note_on,120,0,4,,,,,,,,,3,,,55,41
248880,note_off,0,0,4,,,,,,,,,3,,,46,0
248880,note_on,0,0,4,,,,,,,,,3,,,48,41
248880,note_off,120,0,4,,,,,,,,,3,,,55,0
249000,note_on,120,0,4,,,,,,,,,3,,,57,42
249120,note_on,0,0,4,,,,,,,,,3,,,50,42
249120,note_off,0,0,4,,,,,,,,,3,,,48,0
249120,note_off,120,0,4,,,,,,,,,3,,,57,0
249240,note_on,120,0,4,,,,,,,,,3,,,58,43
249360,note_off,120,0,4,,,,,,,,,3,,,58,0
249360,note_off,0,0,4,,,,,,,,,3,,,50,0
249360,note_on,0,0,4,,,,,,,,,3,,,52,44
249480,set_tempo,1800,1,0,,,,,,550458,,,,,,,
249480,note_on,120,0,4,,,,,,,,,3,,,60,44
249600,note_on,0,0,4,,,,,,,,,3,,,57,45
249600,control_change,120,0,4,,,,,,,64,127,3,,,,
249600,note_off,0,0,4,,,,,,,,,3,,,60,0
249600,note_off,0,0,4,,,,,,,,,3,,,52,0
249600,set_tempo,120,1,0,,,,,,540540,,,,,,,
249720,note_on,2040,0,1,,,,,,,,,0,,,57,45
249720,note_on,0,0,4,,,,,,,,,3,,,53,58
249720,note_off,120,0,4,,,,,,,,,3,,,57,0
249840,note_on,0,0,1,,,,,,,,,0,,,60,46
249840,note_off,120,0,1,,,,,,,,,0,,,57,0
249960,note_on,0,0,1,,,,,,,,,0,,,65,46
249960,note_off,120,0,1,,,,,,,,,0,,,60,0
250080,note_on,0,0,1,,,,,,,,,0,,,55,47
250080,note_off,120,0,1,,,,,,,,,0,,,65,0
250200,note_on,120,0,1,,,,,,,,,0,,,64,47
250320,note_off,120,0,1,,,,,,,,,0,,,64,0
250320,note_off,0,0,1,,,,,,,,,0,,,55,0
250320,note_on,0,0,1,,,,,,,,,0,,,57,48
250440,note_on,120,0,1,,,,,,,,,0,,,65,49
250560,note_off,0,0,1,,,,,,,,,0,,,57,0
250560,note_off,120,0,1,,,,,,,,,0,,,65,0
250560,note_on,0,0,1,,,,,,,,,0,,,58,49
250680,note_on,120,0,1,,,,,,,,,0,,,67,50
250800,note_off,120,0,1,,,,,,,,,0,,,67,0
250800,note_off,0,0,1,,,,,,,,,0,,,58,0
250800,note_on,0,0,1,,,,,,,,,0,,,60,50
250920,note_on,120,0,1,,,,,,,,,0,,,69,51
251040,note_off,120,0,1,,,,,,,,,0,,,69,0
251040,note_off,0,0,1,,,,,,,,,0,,,60,0
251040,note_on,0,0,1,,,,,,,,,0,,,62,51
251160,note_on,120,0,1,,,,,,,,,0,,,70,52
251280,note_off,0,0,1,,,,,,,,,0,,,62,0
251280,note_on,0,0,1,,,,,,,,,0,,,64,52
251280,note_off,120,0,1,,,,,,,,,0,,,70,0
251400,set_tempo,1800,1,0,,,,,,550458,,,,,,,
251400,note_on,120,0,1,,,,,,,,,0,,,72,53
251520,control_change,120,0,1,,,,,,,64,127,0,,,,
251520,control_change,0,0,1,,,,,,,64,127,0,,,,
251520,note_off,0,0,1,,,,,,,,,0,,,72,0
251520,note_off,0,0,1,,,,,,,,,0,,,64,0
251520,note_on,0,0,1,,,,,,,,,0,,,69,53
251520,set_tempo,120,1,0,,,,,,540540,,,,,,,
251520,control_change,1800,0,4,,,,,,,64,0,3,,,,
251527,note_off,7,0,4,,,,,,,,,3,,,53,0
251640,note_on,0,0,1,,,,,,,,,0,,,65,54
251640,note_off,120,0,1,,,,,,,,,0,,,69,0
251640,note_on,113,0,4,,,,,,,,,3,,,57,54
251760,note_on,0,0,4,,,,,,,,,3,,,60,55
251760,note_off,120,0,4,,,,,,,,,3,,,57,0
251760,note_off,120,0,1,,,,,,,,,0,,,65,0
251760,note_on,0,0,1,,,,,,,,,0,,,72,69
251880,note_on,0,0,4,,,,,,,,,3,,,65,55
251880,note_off,120,0,4,,,,,,,,,3,,,60,0
252000,note_on,0,0,4,,,,,,,,,3,,,55,56
252000,note_off,120,0,4,,,,,,,,,3,,,65,0
252120,note_on,120,0,4,,,,,,,,,3,,,64,56
252240,note_off,120,0,4,,,,,,,,,3,,,64,0
252240,note_off,0,0,4,,,,,,,,,3,,,55,0
252240,note_on,0,0,4,,,,,,,,,3,,,57,57
252360,note_on,120,0,4,,,,,,,,,3,,,65,57
252480,note_off,0,0,4,,,,,,,,,3,,,57,0
252480,note_off,120,0,4,,,,,,,,,3,,,65,0
252480,note_on,0,0,4,,,,,,,,,3,,,58,58
252600,note_on,120,0,4,,,,,,,,,3,,,67,58
252720,note_on,0,0,4,,,,,,,,,3,,,60,59
252720,note_off,0,0,4,,,,,,,,,3,,,58,0
252720,note_off,120,0,4,,,,,,,,,3,,,67,0
252840,note_on,120,0,4,,,,,,,,,3,,,69,60
252960,note_on,0,0,4,,,,,,,,,3,,,62,60
252960,note_off,0,0,4,,,,,,,,,3,,,60,0
252960,note_off,120,0,4,,,,,,,,,3,,,69,0
253080,note_on,120,0,4,,,,,,,,,3,,,70,61
253200,note_off,120,0,4,,,,,,,,,3,,,70,0
253200,note_on,0,0,4,,,,,,,,,3,,,64,61
253200,note_off,0,0,4,,,,,,,,,3,,,62,0
253320,set_tempo,1800,1,0,,,,,,550458,,,,,,,
253320,note_on,120,0,4,,,,,,,,,3,,,72,61
253440,note_off,0,0,4,,,,,,,,,3,,,72,0
253440,note_on,0,0,4,,,,,,,,,3,,,69,62
253440,note_off,0,0,1,,,,,,,,,0,,,72,0
253440,control_change,0,0,1,,,,,,,64,0,0,,,,
253440,set_tempo,120,1,0,,,,,,540540,,,,,,,
253440,control_change,1680,0,1,,,,,,,64,0,0,,,,
253440,note_off,0,0,4,,,,,,,,,3,,,64,0
253440,control_change,120,0,4,,,,,,,64,127,3,,,,
253560,note_on,0,0,4,,,,,,,,,3,,,65,77
253560,note_off,120,0,4,,,,,,,,,3,,,69,0
253560,note_on,120,0,1,,,,,,,,,0,,,69,63
253680,note_on,0,0,1,,,,,,,,,0,,,72,63
253680,note_off,120,0,1,,,,,,,,,0,,,69,0
253800,note_on,0,0,1,,,,,,,,,0,,,77,64
253800,note_off,120,0,1,,,,,,,,,0,,,72,0
253920,note_on,0,0,1,,,,,,,,,0,,,67,65
253920,note_off,120,0,1,,,,,,,,,0,,,77,0
254040,note_on,120,0,1,,,,,,,,,0,,,76,65
254160,note_on,0,0,1,,,,,,,,,0,,,69,66
254160,note_off,0,0,1,,,,,,,,,0,,,67,0
254160,note_off,120,0,1,,,,,,,,,0,,,76,0
254280,note_on,120,0,1,,,,,,,,,0,,,77,66
254400,note_off,0,0,1,,,,,,,,,0,,,69,0
254400,note_off,120,0,1,,,,,,,,,0,,,77,0
254400,note_on,0,0,1,,,,,,,,,0,,,70,67
254520,note_on,120,0,1,,,,,,,,,0,,,79,67
254640,note_on,0,0,1,,,,,,,,,0,,,72,68
254640,note_off,0,0,1,,,,,,,,,0,,,70,0
254640,note_off,120,0,1,,,,,,,,,0,,,79,0
254760,note_on,120,0,1,,,,,,,,,0,,,81,68
254880,note_off,120,0,1,,,,,,,,,0,,,81,0
254880,note_off,0,0,1,,,,,,,,,0,,,72,0
254880,note_on,0,0,1,,,,,,,,,0,,,74,69
255000,note_on,120,0,1,,,,,,,,,0,,,82,69
255120,note_off,0,0,1,,,,,,,,,0,,,74,0
255120,note_on,0,0,1,,,,,,,,,0,,,76,70
255120,note_off,120,0,1,,,,,,,,,0,,,82,0
255240,set_tempo,1800,1,0,,,,,,550458,,,,,,,
255240,note_on,120,0,1,,,,,,,,,0,,,84,71
255360,note_off,120,0,1,,,,,,,,,0,,,84,0
255360,note_off,0,0,1,,,,,,,,,0,,,76,0
255360,note_off,0,0,4,,,,,,,,,3,,,65,0
255360,set_tempo,120,1,0,,,,,,540540,,,,,,,
255360,note_on,0,0,1,,,,,,,,,0,,,81,71
255360,note_on,0,0,4,,,,,,,,,3,,,65,71
255360,control_change,1800,0,4,,,,,,,64,0,3,,,,
255480,note_on,120,0,1,,,,,,,,,0,,,77,69
255480,note_on,120,0,4,,,,,,,,,3,,,69,69
255600,note_on,0,0,4,,,,,,,,,3,,,60,69
255600,note_off,0,0,4,,,,,,,,,3,,,65,0
255600,note_off,120,0,4,,,,,,,,,3,,,69,0
255600,note_off,120,0,1,,,,,,,,,0,,,77,0
255600,note_off,0,0,1,,,,,,,,,0,,,81,0
255600,note_on,0,0,1,,,,,,,,,0,,,84,69
255720,note_on,120,0,1,,,,,,,,,0,,,76,68
255720,note_on,120,0,4,,,,,,,,,3,,,67,68
255840,note_off,120,0,1,,,,,,,,,0,,,76,0
255840,note_off,0,0,1,,,,,,,,,0,,,84,0
255840,note_off,0,0,4,,,,,,,,,3,,,60,0
255840,note_off,120,0,4,,,,,,,,,3,,,67,0
255840,note_on,0,0,4,,,,,,,,,3,,,62,68
255840,note_on,0,0,1,,,,,,,,,0,,,77,68
255960,note_on,120,0,1,,,,,,,,,0,,,74,67
255960,note_on,120,0,4,,,,,,,,,3,,,65,67
256080,note_on,0,0,4,,,,,,,,,3,,,57,67
256080,note_on,0,0,1,,,,,,,,,0,,,81,67
256080,note_off,0,0,1,,,,,,,,,0,,,77,0
256080,note_off,0,0,4,,,,,,,,,3,,,62,0
256080,note_off,120,0,1,,,,,,,,,0,,,74,0
256080,note_off,120,0,4,,,,,,,,,3,,,65,0
256200,note_on,120,0,1,,,,,,,,,0,,,72,67
256200,note_on,120,0,4,,,,,,,,,3,,,64,67
256320,note_off,120,0,1,,,,,,,,,0,,,72,0
256320,note_on,0,0,1,,,,,,,,,0,,,74,66
256320,note_off,0,0,1,,,,,,,,,0,,,81,0
256320,note_on,0,0,4,,,,,,,,,3,,,58,66
256320,note_off,120,0,4,,,,,,,,,3,,,64,0
256320,note_off,0,0,4,,,,,,,,,3,,,57,0
256440,note_on,120,0,1,,,,,,,,,0,,,70,66
256440,note_on,120,0,4,,,,,,,,,3,,,62,66
256560,note_off,120,0,4,,,,,,,,,3,,,62,0
256560,note_off,0,0,4,,,,,,,,,3,,,58,0
256560,note_off,120,0,1,,,,,,,,,0,,,70,0
256560,note_off,0,0,1,,,,,,,,,0,,,74,0
256560,note_on,0,0,1,,,,,,,,,0,,,77,65
256560,note_on,0,0,4,,,,,,,,,3,,,53,65
256680,note_on,120,0,4,,,,,,,,,3,,,60,65
256680,note_on,120,0,1,,,,,,,,,0,,,69,65
256800,note_on,0,0,4,,,,,,,,,3,,,55,64
256800,note_off,0,0,4,,,,,,,,,3,,,53,0
256800,note_off,120,0,4,,,,,,,,,3,,,60,0
256800,note_off,120,0,1,,,,,,,,,0,,,69,0
256800,note_off,0,0,1,,,,,,,,,0,,,77,0
256800,note_on,0,0,1,,,,,,,,,0,,,70,64
256920,note_on,120,0,4,,,,,,,,,3,,,58,64
256920,note_on,120,0,1,,,,,,,,,0,,,67,64
257040,note_off,0,0,1,,,,,,,,,0,,,70,0
257040,note_on,0,0,1,,,,,,,,,0,,,74,64
257040,note_off,120,0,4,,,,,,,,,3,,,58,0
257040,note_off,0,0,4,,,,,,,,,3,,,55,0
257040,note_on,0,0,4,,,,,,,,,3,,,50,64
257040,note_off,120,0,1,,,,,,,,,0,,,67,0
257160,note_on,120,0,1,,,,,,,,,0,,,65,63
257160,note_on,120,0,4,,,,,,,,,3,,,57,63
257280,note_on,0,0,1,,,,,,,,,0,,,67,63
257280,note_off,0,0,1,,,,,,,,,0,,,74,0
257280,note_off,120,0,1,,,,,,,,,0,,,65,0
257280,note_on,0,0,4,,,,,,,,,3,,,46,63
257280,note_off,120,0,4,,,,,,,,,3,,,57,0
257280,note_off,0,0,4,,,,,,,,,3,,,50,0
257400,note_on,120,0,4,,,,,,,,,3,,,55,62
257400,note_on,120,0,1,,,,,,,,,0,,,62,62
257520,note_off,0,0,4,,,,,,,,,3,,,46,0
257520,note_off,120,0,4,,,,,,,,,3,,,55,0
257520,note_off,120,0,1,,,,,,,,,0,,,62,0
257520,note_off,0,0,1,,,,,,,,,0,,,67,0
257520,note_on,0,0,1,,,,,,,,,0,,,70,62
257520,note_on,0,0,4,,,,,,,,,3,,,46,62
257640,note_on,120,0,4,,,,,,,,,3,,,55,61
257640,note_on,120,0,1,,,,,,,,,0,,,62,61
257760,note_off,120,0,4,,,,,,,,,3,,,55,0
257760,note_on,0,0,1,,,,,,,,,0,,,67,61
257760,note_off,0,0,4,,,,,,,,,3,,,46,0
257760,note_on,0,0,4,,,,,,,,,3,,,46,61
257760,note_off,120,0,1,,,,,,,,,0,,,62,0
257760,note_off,0,0,1,,,,,,,,,0,,,70,0
257880,note_on,120,0,1,,,,,,,,,0,,,62,60
257880,note_on,120,0,4,,,,,,,,,3,,,55,60
258000,note_off,120,0,1,,,,,,,,,0,,,62,0
258000,note_off,0,0,4,,,,,,,,,3,,,46,0
258000,note_off,120,0,4,,,,,,,,,3,,,55,0
258000,note_on,0,0,4,,,,,,,,,3,,,47,60
258000,note_on,0,0,1,,,,,,,,,0,,,65,60
258000,note_off,0,0,1,,,,,,,,,0,,,67,0
258120,note_on,120,0,1,,,,,,,,,0,,,62,60
258120,note_on,120,0,4,,,,,,,,,3,,,55,60
258240,note_on,0,0,1,,,,,,,,,0,,,64,59
258240,note_off,0,0,1,,,,,,,,,0,,,65,0
258240,note_off,120,0,1,,,,,,,,,0,,,62,0
258240,note_off,120,0,4,,,,,,,,,3,,,55,0
258240,note_off,0,0,4,,,,,,,,,3,,,47,0
258240,note_on,0,0,4,,,,,,,,,3,,,48,59
258360,note_on,120,0,4,,,,,,,,,3,,,55,59
258360,note_on,120,0,1,,,,,,,,,0,,,60,59
258480,note_off,120,0,4,,,,,,,,,3,,,55,0
258480,note_off,120,0,1,,,,,,,,,0,,,60,0
258480,note_on,0,0,4,,,,,,,,,3,,,41,58
258480,note_on,0,0,1,,,,,,,,,0,,,57,58
258480,note_off,0,0,1,,,,,,,,,0,,,64,0
258480,note_off,0,0,4,,,,,,,,,3,,,48,0
258600,note_on,120,0,1,,,,,,,,,0,,,62,58
258600,note_on,0,0,1,,,,,,,,,0,,,53,58
258600,note_on,120,0,4,,,,,,,,,3,,,53,58
258720,note_off,120,0,4,,,,,,,,,3,,,53,0
258720,note_on,0,0,4,,,,,,,,,3,,,43,57
258720,note_off,0,0,4,,,,,,,,,3,,,41,0
258720,note_off,0,0,1,,,,,,,,,0,,,62,0
258720,note_off,0,0,1,,,,,,,,,0,,,57,0
258720,note_on,0,0,1,,,,,,,,,0,,,55,57
258720,note_off,120,0,1,,,,,,,,,0,,,53,0
258840,note_on,120,0,4,,,,,,,,,3,,,52,57
258840,note_on,120,0,1,,,,,,,,,0,,,60,57
258960,note_off,120,0,1,,,,,,,,,0,,,60,0
258960,note_off,0,0,1,,,,,,,,,0,,,55,0
258960,note_on,0,0,4,,,,,,,,,3,,,43,56
258960,note_on,0,0,1,,,,,,,,,0,,,53,56
258960,note_off,120,0,4,,,,,,,,,3,,,52,0
258960,note_off,0,0,4,,,,,,,,,3,,,43,0
259080,set_tempo,3720,1,0,,,,,,550458,,,,,,,
259080,note_on,120,0,1,,,,,,,,,0,,,59,56
259080,note_on,120,0,4,,,,,,,,,3,,,50,56
259200,note_off,0,0,4,,,,,,,,,3,,,43,0
259200,note_on,0,0,4,,,,,,,,,3,,,36,56
259200,note_off,0,0,1,,,,,,,,,0,,,53,0
259200,note_on,0,0,1,,,,,,,,,0,,,48,56
259200,note_off,120,0,1,,,,,,,,,0,,,59,0
259200,note_off,120,0,4,,,,,,,,,3,,,50,0
259200,set_tempo,120,1,0,,,,,,540540,,,,,,,
259320,note_on,120,0,4,,,,,,,,,3,,,48,70
259320,note_on,0,0,1,,,,,,,,,0,,,52,56
259320,note_off,120,0,1,,,,,,,,,0,,,48,0
259440,note_on,0,0,1,,,,,,,,,0,,,55,57
259440,note_off,120,0,1,,,,,,,,,0,,,52,0
259560,note_off,120,0,1,,,,,,,,,0,,,55,0
259560,note_on,0,0,1,,,,,,,,,0,,,60,57
259680,note_off,120,0,1,,,,,,,,,0,,,60,0
259680,note_on,0,0,1,,,,,,,,,0,,,51,58
259800,note_on,120,0,1,,,,,,,,,0,,,59,59
259920,note_off,120,0,1,,,,,,,,,0,,,59,0
259920,note_off,0,0,1,,,,,,,,,0,,,51,0
259920,note_on,0,0,1,,,,,,,,,0,,,52,59
260040,set_tempo,840,1,0,,,,,,550458,,,,,,,
260040,note_on,120,0,1,,,,,,,,,0,,,60,60
260160,note_off,120,0,1,,,,,,,,,0,,,60,0
260160,note_on,0,0,1,,,,,,,,,0,,,52,60
260160,note_off,0,0,1,,,,,,,,,0,,,52,0
260160,note_off,840,0,4,,,,,,,,,3,,,48,0
260160,note_off,0,0,4,,,,,,,,,3,,,36,0
260160,note_on,0,0,4,,,,,,,,,3,,,36,60
260160,set_tempo,120,1,0,,,,,,540540,,,,,,,
260280,note_on,120,0,4,,,,,,,,,3,,,48,74
260280,note_on,120,0,1,,,,,,,,,0,,,55,61
260400,note_off,120,0,1,,,,,,,,,0,,,55,0
260400,note_on,0,0,1,,,,,,,,,0,,,60,62
260520,note_on,0,0,1,,,,,,,,,0,,,64,62
260520,note_off,120,0,1,,,,,,,,,0,,,60,0
260640,note_on,0,0,1,,,,,,,,,0,,,59,63
260640,note_off,120,0,1,,,,,,,,,0,,,64,0
260647,note_off,7,0,1,,,,,,,,,0,,,52,0
260760,note_on,113,0,1,,,,,,,,,0,,,63,63
260880,note_on,0,0,1,,,,,,,,,0,,,60,64
260880,note_off,0,0,1,,,,,,,,,0,,,59,0
260880,note_off,120,0,1,,,,,,,,,0,,,63,0
261000,set_tempo,840,1,0,,,,,,550458,,,,,,,
261000,note_on,120,0,1,,,,,,,,,0,,,64,64
261112,note_off,832,0,4,,,,,,,,,3,,,48,0
261120,note_off,120,0,1,,,,,,,,,0,,,64,0
261120,note_off,0,0,1,,,,,,,,,0,,,60,0
261120,note_on,0,0,1,,,,,,,,,0,,,60,64
261120,note_off,8,0,4,,,,,,,,,3,,,36,0
261120,set_tempo,120,1,0,,,,,,540540,,,,,,,
261120,note_on,0,0,4,,,,,,,,,3,,,36,64
261240,note_on,120,0,4,,,,,,,,,3,,,48,78
261240,note_on,120,0,1,,,,,,,,,0,,,64,65
261360,note_off,120,0,1,,,,,,,,,0,,,64,0
261360,note_on,0,0,1,,,,,,,,,0,,,67,66
261480,note_on,0,0,1,,,,,,,,,0,,,72,67
261480,set_tempo,360,1,0,,,,,,550458,,,,,,,
261480,note_off,120,0,1,,,,,,,,,0,,,67,0
261600,note_off,360,0,4,,,,,,,,,3,,,36,0
261600,note_on,0,0,4,,,,,,,,,3,,,36,69
261600,set_tempo,120,1,0,,,,,,540540,,,,,,,
261600,note_on,0,0,1,,,,,,,,,0,,,63,69
261600,note_off,120,0,1,,,,,,,,,0,,,72,0
261607,note_off,7,0,4,,,,,,,,,3,,,48,0
261607,note_off,7,0,1,,,,,,,,,0,,,60,0
261720,note_on,113,0,1,,,,,,,,,0,,,71,70
261720,note_on,113,0,4,,,,,,,,,3,,,48,84
261840,note_off,0,0,1,,,,,,,,,0,,,63,0
261840,note_off,120,0,1,,,,,,,,,0,,,71,0
261840,note_on,0,0,1,,,,,,,,,0,,,64,71
261960,set_tempo,360,1,0,,,,,,550458,,,,,,,
261960,note_on,120,0,1,,,,,,,,,0,,,72,72
262080,set_tempo,120,1,0,,,,,,540540,,,,,,,
262080,note_off,0,0,4,,,,,,,,,3,,,36,0
262080,note_off,360,0,4,,,,,,,,,3,,,48,0
262080,note_on,0,0,4,,,,,,,,,3,,,36,72
262080,note_on,0,0,1,,,,,,,,,0,,,71,72
262080,note_off,0,0,1,,,,,,,,,0,,,64,0
262080,note_off,120,0,1,,,,,,,,,0,,,72,0
262200,note_on,120,0,1,,,,,,,,,0,,,75,74
262200,note_on,120,0,4,,,,,,,,,3,,,48,84
262320,note_on,0,0,1,,,,,,,,,0,,,72,77
262320,note_off,120,0,1,,,,,,,,,0,,,75,0
262320,note_off,0,0,1,,,,,,,,,0,,,71,0
262440,note_on,120,0,1,,,,,,,,,0,,,76,79
262440,set_tempo,360,1,0,,,,,,550458,,,,,,,
262560,note_off,360,0,4,,,,,,,,,3,,,48,0
262560,note_off,0,0,4,,,,,,,,,3,,,36,0
262560,note_off,120,0,1,,,,,,,,,0,,,76,0
262560,note_on,0,0,1,,,,,,,,,0,,,75,81
262560,note_off,0,0,1,,,,,,,,,0,,,72,0
262560,set_tempo,120,1,0,,,,,,540540,,,,,,,
262560,note_on,0,0,4,,,,,,,,,3,,,36,81
262680,note_on,120,0,4,,,,,,,,,3,,,48,94
262680,note_on,120,0,1,,,,,,,,,0,,,78,84
262800,note_off,120,0,1,,,,,,,,,0,,,78,0
262800,note_on,0,0,1,,,,,,,,,0,,,76,86
262800,note_off,0,0,1,,,,,,,,,0,,,75,0
262920,note_on,120,0,1,,,,,,,,,0,,,79,88
262920,set_tempo,360,1,0,,,,,,550458,,,,,,,
263040,note_off,0,0,1,,,,,,,,,0,,,76,0
263040,note_on,0,0,1,,,,,,,,,0,,,84,83
263040,note_off,120,0,1,,,,,,,,,0,,,79,0
263040,note_on,0,0,4,,,,,,,,,3,,,36,83
263040,note_off,0,0,4,,,,,,,,,3,,,36,0
263040,note_off,360,0,4,,,,,,,,,3,,,48,0
263040,set_tempo,120,1,0,,,,,,540540,,,,,,,
263160,note_on,0,0,1,,,,,,,,,0,,,72,67
263160,note_off,120,0,1,,,,,,,,,0,,,84,0
263280,note_on,0,0,1,,,,,,,,,0,,,74,68
263280,note_off,120,0,1,,,,,,,,,0,,,72,0
263400,note_off,120,0,1,,,,,,,,,0,,,74,0
263400,note_on,0,0,1,,,,,,,,,0,,,76,70
263520,note_on,0,0,1,,,,,,,,,0,,,77,71
263520,note_off,120,0,1,,,,,,,,,0,,,76,0
263640,note_off,120,0,1,,,,,,,,,0,,,77,0
263640,note_on,0,0,1,,,,,,,,,0,,,79,73
263640,note_on,600,0,4,,,,,,,,,3,,,48,73
263760,note_off,0,0,4,,,,,,,,,3,,,36,0
263760,note_on,0,0,1,,,,,,,,,0,,,81,74
263760,note_off,120,0,1,,,,,,,,,0,,,79,0
263760,note_off,120,0,4,,,,,,,,,3,,,48,0
263760,note_on,0,0,4,,,,,,,,,3,,,47,74
263880,note_on,0,0,1,,,,,,,,,0,,,83,76
263880,note_off,120,0,1,,,,,,,,,0,,,81,0
263880,note_on,0,0,4,,,,,,,,,3,,,45,76
263880,note_off,120,0,4,,,,,,,,,3,,,47,0
264000,note_on,0,0,1,,,,,,,,,0,,,84,79
264000,note_off,120,0,1,,,,,,,,,0,,,83,0
264000,note_on,0,0,4,,,,,,,,,3,,,43,79
264000,note_off,120,0,4,,,,,,,,,3,,,45,0
264120,note_on,0,0,4,,,,,,,,,3,,,41,82
264120,note_off,120,0,4,,,,,,,,,3,,,43,0
264120,note_on,0,0,1,,,,,,,,,0,,,72,82
264120,note_off,120,0,1,,,,,,,,,0,,,84,0
264240,note_on,0,0,4,,,,,,,,,3,,,40,84
264240,note_off,120,0,4,,,,,,,,,3,,,41,0
264240,note_on,0,0,1,,,,,,,,,0,,,74,84
264240,note_off,120,0,1,,,,,,,,,0,,,72,0
264360,note_on,0,0,1,,,,,,,,,0,,,76,87
264360,note_on,0,0,4,,,,,,,,,3,,,38,87
264360,note_off,120,0,4,,,,,,,,,3,,,40,0
264360,note_off,120,0,1,,,,,,,,,0,,,74,0
264480,note_off,120,0,1,,,,,,,,,0,,,76,0
264480,note_on,0,0,1,,,,,,,,,0,,,77,90
264480,note_on,0,0,4,,,,,,,,,3,,,36,90
264480,note_off,120,0,4,,,,,,,,,3,,,38,0
264600,note_off,120,0,4,,,,,,,,,3,,,36,0
264600,note_on,0,0,1,,,,,,,,,0,,,79,93
264600,note_off,120,0,1,,,,,,,,,0,,,77,0
264600,note_on,0,0,4,,,,,,,,,3,,,48,93
264720,note_on,0,0,1,,,,,,,,,0,,,81,96
264720,note_off,120,0,1,,,,,,,,,0,,,79,0
264720,note_off,120,0,4,,,,,,,,,3,,,48,0
264720,note_on,0,0,4,,,,,,,,,3,,,47,96
264840,note_on,0,0,1,,,,,,,,,0,,,83,98
264840,note_off,120,0,1,,,,,,,,,0,,,81,0
264840,note_on,0,0,4,,,,,,,,,3,,,45,98
264840,note_off,120,0,4,,,,,,,,,3,,,47,0
264960,note_on,0,0,4,,,,,,,,,3,,,43,101
264960,note_on,0,0,1,,,,,,,,,0,,,84,101
264960,note_off,120,0,1,,,,,,,,,0,,,83,0
264960,note_off,120,0,4,,,,,,,,,3,,,45,0
265080,note_off,120,0,4,,,,,,,,,3,,,43,0
265080,note_on,0,0,4,,,,,,,,,3,,,41,88
265200,note_off,240,0,1,,,,,,,,,0,,,84,0
265200,note_on,0,0,4,,,,,,,,,3,,,40,78
265200,note_off,120,0,4,,,,,,,,,3,,,41,0
265320,set_tempo,2280,1,0,,,,,,550458,,,,,,,
265320,note_on,0,0,4,,,,,,,,,3,,,38,68
265320,note_off,120,0,4,,,,,,,,,3,,,40,0
265440,note_off,120,0,4,,,,,,,,,3,,,38,0
265440,note_on,0,0,4,,,,,,,,,3,,,36,59
265440,note_on,0,0,1,,,,,,,,,0,,,60,59
265440,note_on,240,0,1,,,,,,,,,0,,,52,59
265440,note_on,0,0,1,,,,,,,,,0,,,55,59
265440,set_tempo,120,1,0,,,,,,540540,,,,,,,
265560,note_on,0,0,4,,,,,,,,,3,,,38,57
265560,note_off,120,0,4,,,,,,,,,3,,,36,0
265680,note_off,120,0,4,,,,,,,,,3,,,38,0
265680,note_on,0,0,4,,,,,,,,,3,,,40,55
265800,note_off,120,0,4,,,,,,,,,3,,,40,0
265800,note_on,0,0,4,,,,,,,,,3,,,41,53
265920,note_off,120,0,4,,,,,,,,,3,,,41,0
265920,note_off,480,0,1,,,,,,,,,0,,,60,0
265920,note_off,0,0,1,,,,,,,,,0,,,55,0
265920,note_off,0,0,1,,,,,,,,,0,,,52,0
265920,note_on,0,0,4,,,,,,,,,3,,,43,50
266040,note_off,120,0,4,,,,,,,,,3,,,43,0
266040,note_on,0,0,4,,,,,,,,,3,,,45,48
266160,note_off,120,0,4,,,,,,,,,3,,,45,0
266160,note_on,0,0,4,,,,,,,,,3,,,46,46
266280,note_off,120,0,4,,,,,,,,,3,,,46,0
266280,note_on,0,0,4,,,,,,,,,3,,,45,43
266400,note_off,120,0,4,,,,,,,,,3,,,45,0
266400,note_on,0,0,4,,,,,,,,,3,,,46,41
266460,note_on,60,0,4,,,,,,,,,3,,,48,40
266520,note_off,60,0,4,,,,,,,,,3,,,46,0
266520,note_on,0,0,4,,,,,,,,,3,,,46,39
266580,note_off,60,0,4,,,,,,,,,3,,,48,0
266640,set_tempo,1200,1,0,,,,,,550458,,,,,,,
266640,note_off,60,0,4,,,,,,,,,3,,,46,0
266640,note_on,0,0,4,,,,,,,,,3,,,45,36
266760,note_off,120,0,4,,,,,,,,,3,,,45,0
266760,note_on,0,0,4,,,,,,,,,3,,,46,39
266760,set_tempo,120,1,0,,,,,,582524,,,,,,,
266880,end_of_track,0,1,3,,,,,,,,,,,,,
266880,control_change,960,0,1,,,,,,,64,0,0,,,,
266880,control_change,19200,0,2,,,,,,,64,0,1,,,,
266880,set_tempo,120,1,0,,,,,,540540,,,,,,,
266880,control_change,19200,0,3,,,,,,,64,0,2,,,,
266880,control_change,120,0,4,,,,,,,64,0,3,,,,
266880,note_off,0,0,4,,,,,,,,,3,,,46,0
266880,note_on,0,0,4,,,,,,,,,3,,,45,38
267000,note_on,120,0,4,,,,,,,,,3,,,49,38
267120,note_on,0,0,4,,,,,,,,,3,,,52,39
267120,note_off,120,0,4,,,,,,,,,3,,,49,0
267240,note_off,120,0,4,,,,,,,,,3,,,52,0
267240,note_on,0,0,4,,,,,,,,,3,,,57,39
267360,note_on,0,0,4,,,,,,,,,3,,,47,39
267360,note_off,0,0,4,,,,,,,,,3,,,45,0
267360,note_off,120,0,4,,,,,,,,,3,,,57,0
267480,note_on,120,0,4,,,,,,,,,3,,,56,40
267600,note_off,120,0,4,,,,,,,,,3,,,56,0
267600,note_off,0,0,4,,,,,,,,,3,,,47,0
267600,note_on,0,0,4,,,,,,,,,3,,,48,40
267720,note_on,120,0,4,,,,,,,,,3,,,57,41
267840,note_off,120,0,4,,,,,,,,,3,,,57,0
267840,note_off,0,0,4,,,,,,,,,3,,,48,0
267840,note_on,0,0,4,,,,,,,,,3,,,50,41
267960,note_on,120,0,4,,,,,,,,,3,,,59,42
268080,note_on,0,0,4,,,,,,,,,3,,,52,42
268080,note_off,0,0,4,,,,,,,,,3,,,50,0
268080,note_off,120,0,4,,,,,,,,,3,,,59,0
268200,note_on,120,0,4,,,,,,,,,3,,,61,43
268320,note_off,120,0,4,,,,,,,,,3,,,61,0
268320,note_off,0,0,4,,,,,,,,,3,,,52,0
268320,note_on,0,0,4,,,,,,,,,3,,,54,43
268440,note_on,120,0,4,,,,,,,,,3,,,62,44
268560,note_on,0,0,4,,,,,,,,,3,,,56,44
268560,note_off,0,0,4,,,,,,,,,3,,,54,0
268560,note_off,120,0,4,,,,,,,,,3,,,62,0
268680,note_on,120,0,4,,,,,,,,,3,,,64,44
268680,set_tempo,1800,1,0,,,,,,550458,,,,,,,
268800,set_tempo,120,1,0,,,,,,540540,,,,,,,
268800,control_change,120,0,4,,,,,,,64,127,3,,,,
268800,note_off,0,0,4,,,,,,,,,3,,,64,0
268800,note_off,0,0,4,,,,,,,,,3,,,56,0
268800,note_on,0,0,4,,,,,,,,,3,,,61,45
268920,note_on,0,0,4,,,,,,,,,3,,,57,59
268920,note_off,120,0,4,,,,,,,,,3,,,61,0
268920,note_on,2040,0,1,,,,,,,,,0,,,61,45
269040,note_on,0,0,1,,,,,,,,,0,,,64,46
269040,note_off,120,0,1,,,,,,,,,0,,,61,0
269160,note_on,0,0,1,,,,,,,,,0,,,69,46
269160,note_off,120,0,1,,,,,,,,,0,,,64,0
269280,note_on,0,0,1,,,,,,,,,0,,,59,47
269280,note_off,120,0,1,,,,,,,,,0,,,69,0
269400,note_on,120,0,1,,,,,,,,,0,,,68,47
269520,note_on,0,0,1,,,,,,,,,0,,,61,48
269520,note_off,0,0,1,,,,,,,,,0,,,59,0
269520,note_off,120,0,1,,,,,,,,,0,,,68,0
269640,note_on,120,0,1,,,,,,,,,0,,,69,48
269760,note_off,0,0,1,,,,,,,,,0,,,61,0
269760,note_off,120,0,1,,,,,,,,,0,,,69,0
269760,note_on,0,0,1,,,,,,,,,0,,,62,49
269880,note_on,120,0,1,,,,,,,,,0,,,71,49
270000,note_off,120,0,1,,,,,,,,,0,,,71,0
270000,note_off,0,0,1,,,,,,,,,0,,,62,0
270000,note_on,0,0,1,,,,,,,,,0,,,64,49
270120,note_on,120,0,1,,,,,,,,,0,,,73,50
270240,note_on,0,0,1,,,,,,,,,0,,,66,50
270240,note_off,0,0,1,,,,,,,,,0,,,64,0
270240,note_off,120,0,1,,,,,,,,,0,,,73,0
270360,note_on,120,0,1,,,,,,,,,0,,,74,51
270480,note_on,0,0,1,,,,,,,,,0,,,68,51
270480,note_off,0,0,1,,,,,,,,,0,,,66,0
270480,note_off,120,0,1,,,,,,,,,0,,,74,0
270600,note_on,120,0,1,,,,,,,,,0,,,76,52
270600,set_tempo,1800,1,0,,,,,,550458,,,,,,,
270712,note_off,1792,0,4,,,,,,,,,3,,,57,0
270720,control_change,8,0,4,,,,,,,64,0,3,,,,
270720,note_on,0,0,4,,,,,,,,,3,,,57,52
270720,control_change,120,0,1,,,,,,,64,127,0,,,,
270720,note_off,0,0,1,,,,,,,,,0,,,76,0
270720,note_off,0,0,1,,,,,,,,,0,,,68,0
270720,note_on,0,0,1,,,,,,,,,0,,,73,52
270720,set_tempo,120,1,0,,,,,,540540,,,,,,,
270840,note_on,120,0,4,,,,,,,,,3,,,61,52
270840,note_off,120,0,1,,,,,,,,,0,,,73,0
270840,note_on,0,0,1,,,,,,,,,0,,,69,53
270960,note_off,120,0,1,,,,,,,,,0,,,69,0
270960,note_on,0,0,4,,,,,,,,,3,,,64,52
270960,note_off,120,0,4,,,,,,,,,3,,,61,0
270960,note_on,0,0,1,,,,,,,,,0,,,76,68
271080,note_off,120,0,4,,,,,,,,,3,,,64,0
271080,note_on,0,0,4,,,,,,,,,3,,,69,52
271200,note_off,120,0,4,,,,,,,,,3,,,69,0
271200,note_off,0,0,4,,,,,,,,,3,,,57,0
271200,note_on,0,0,4,,,,,,,,,3,,,59,54
271320,note_on,120,0,4,,,,,,,,,3,,,68,55
271440,note_off,0,0,4,,,,,,,,,3,,,59,0
271440,note_off,120,0,4,,,,,,,,,3,,,68,0
271440,note_on,0,0,4,,,,,,,,,3,,,61,55
271560,note_on,120,0,4,,,,,,,,,3,,,69,55
271680,note_off,120,0,4,,,,,,,,,3,,,69,0
271680,note_off,0,0,4,,,,,,,,,3,,,61,0
271680,note_on,0,0,4,,,,,,,,,3,,,62,56
271800,note_on,120,0,4,,,,,,,,,3,,,71,56
271920,note_off,120,0,4,,,,,,,,,3,,,71,0
271920,note_off,0,0,4,,,,,,,,,3,,,62,0
271920,note_on,0,0,4,,,,,,,,,3,,,64,57
272040,note_on,120,0,4,,,,,,,,,3,,,73,57
272160,note_off,120,0,4,,,,,,,,,3,,,73,0
272160,note_on,0,0,4,,,,,,,,,3,,,66,58
272160,note_off,0,0,4,,,,,,,,,3,,,64,0
272280,note_on,120,0,4,,,,,,,,,3,,,74,58
272400,note_off,120,0,4,,,,,,,,,3,,,74,0
272400,note_off,0,0,4,,,,,,,,,3,,,66,0
272400,note_on,0,0,4,,,,,,,,,3,,,68,59
272520,set_tempo,1800,1,0,,,,,,550458,,,,,,,
272520,note_on,120,0,4,,,,,,,,,3,,,76,59
272625,note_off,1665,0,1,,,,,,,,,0,,,76,0
272640,set_tempo,120,1,0,,,,,,540540,,,,,,,
272640,control_change,120,0,4,,,,,,,64,127,3,,,,
272640,note_off,0,0,4,,,,,,,,,3,,,76,0
272640,note_off,0,0,4,,,,,,,,,3,,,68,0
272640,note_on,0,0,4,,,,,,,,,3,,,73,60
272640,control_change,15,0,1,,,,,,,64,0,0,,,,
272760,note_on,120,0,1,,,,,,,,,0,,,73,60
272760,note_on,0,0,4,,,,,,,,,3,,,69,75
272760,note_off,120,0,4,,,,,,,,,3,,,73,0
272880,note_on,0,0,1,,,,,,,,,0,,,76,60
272880,note_off,120,0,1,,,,,,,,,0,,,73,0
273000,note_on,0,0,1,,,,,,,,,0,,,81,61
273000,note_off,120,0,1,,,,,,,,,0,,,76,0
273120,note_on,0,0,1,,,,,,,,,0,,,71,61
273120,note_off,120,0,1,,,,,,,,,0,,,81,0
273240,note_on,120,0,1,,,,,,,,,0,,,80,62
273360,note_off,120,0,1,,,,,,,,,0,,,80,0
273360,note_off,0,0,1,,,,,,,,,0,,,71,0
273360,note_on,0,0,1,,,,,,,,,0,,,73,62
273480,note_on,120,0,1,,,,,,,,,0,,,81,63
273600,control_change,840,0,4,,,,,,,64,0,3,,,,
273600,note_off,120,0,1,,,,,,,,,0,,,81,0
273600,note_off,0,0,1,,,,,,,,,0,,,73,0
273600,note_on,0,0,1,,,,,,,,,0,,,74,63
273720,note_on,120,0,1,,,,,,,,,0,,,83,64
273840,note_on,240,0,4,,,,,,,,,3,,,76,64
273840,note_off,120,0,1,,,,,,,,,0,,,83,0
273840,note_off,0,0,1,,,,,,,,,0,,,74,0
273840,note_on,0,0,1,,,,,,,,,0,,,76,64
273960,note_on,120,0,1,,,,,,,,,0,,,85,65
274080,note_off,240,0,4,,,,,,,,,3,,,76,0
274080,note_on,0,0,1,,,,,,,,,0,,,81,65
274080,note_off,0,0,1,,,,,,,,,0,,,76,0
274080,note_off,120,0,1,,,,,,,,,0,,,85,0
274080,note_on,0,0,4,,,,,,,,,3,,,77,65
274200,note_on,120,0,1,,,,,,,,,0,,,86,65
274290,note_off,90,0,1,,,,,,,,,0,,,81,0
274320,note_off,240,0,4,,,,,,,,,3,,,77,0
274320,note_on,0,0,4,,,,,,,,,3,,,73,66
274320,note_off,30,0,1,,,,,,,,,0,,,86,0
274320,note_on,0,0,1,,,,,,,,,0,,,81,66
274440,note_on,120,0,1,,,,,,,,,0,,,88,66
274440,set_tempo,1800,1,0,,,,,,550458,,,,,,,
274560,note_on,0,0,1,,,,,,,,,0,,,89,65
274560,note_off,120,0,1,,,,,,,,,0,,,88,0
274560,set_tempo,120,1,0,,,,,,540540,,,,,,,
274560,control_change,240,0,4,,,,,,,64,0,3,,,,
274560,note_off,0,0,4,,,,,,,,,3,,,73,0
274560,note_off,0,0,4,,,,,,,,,3,,,69,0
274560,note_on,0,0,4,,,,,,,,,3,,,74,65
274575,note_off,15,0,1,,,,,,,,,0,,,81,0
274680,note_on,105,0,1,,,,,,,,,0,,,81,65
274680,note_on,120,0,4,,,,,,,,,3,,,77,65
274800,note_off,0,0,4,,,,,,,,,3,,,74,0
274800,note_on,0,0,1,,,,,,,,,0,,,88,65
274800,note_off,0,0,1,,,,,,,,,0,,,89,0
274800,note_off,120,0,4,,,,,,,,,3,,,77,0
274800,note_off,120,0,1,,,,,,,,,0,,,81,0
274800,note_on,0,0,4,,,,,,,,,3,,,69,65
274920,note_on,120,0,1,,,,,,,,,0,,,84,64
274920,note_on,120,0,4,,,,,,,,,3,,,76,64
275040,note_on,0,0,4,,,,,,,,,3,,,70,64
275040,note_off,120,0,1,,,,,,,,,0,,,84,0
275040,note_off,0,0,1,,,,,,,,,0,,,88,0
275040,note_on,0,0,1,,,,,,,,,0,,,86,64
275040,note_off,120,0,4,,,,,,,,,3,,,76,0
275040,note_off,0,0,4,,,,,,,,,3,,,69,0
275160,note_on,120,0,4,,,,,,,,,3,,,74,64
275160,note_on,120,0,1,,,,,,,,,0,,,77,64
275280,note_off,120,0,4,,,,,,,,,3,,,74,0
275280,note_off,0,0,4,,,,,,,,,3,,,70,0
275280,note_off,120,0,1,,,,,,,,,0,,,77,0
275280,note_on,0,0,1,,,,,,,,,0,,,84,63
275280,note_on,0,0,4,,,,,,,,,3,,,65,63
275280,note_off,0,0,1,,,,,,,,,0,,,86,0
275400,note_on,120,0,1,,,,,,,,,0,,,81,63
275400,note_on,120,0,4,,,,,,,,,3,,,72,63
275520,note_on,0,0,1,,,,,,,,,0,,,82,63
275520,note_off,0,0,1,,,,,,,,,0,,,84,0
275520,note_off,120,0,1,,,,,,,,,0,,,81,0
275520,note_off,120,0,4,,,,,,,,,3,,,72,0
275520,note_off,0,0,4,,,,,,,,,3,,,65,0
275520,note_on,0,0,4,,,,,,,,,3,,,67,63
275640,note_on,120,0,1,,,,,,,,,0,,,74,62
275640,note_on,120,0,4,,,,,,,,,3,,,70,62
275760,note_off,120,0,4,,,,,,,,,3,,,70,0
275760,note_off,0,0,4,,,,,,,,,3,,,67,0
275760,note_on,0,0,4,,,,,,,,,3,,,62,62
275760,note_off,120,0,1,,,,,,,,,0,,,74,0
275760,note_off,0,0,1,,,,,,,,,0,,,82,0
275760,note_on,0,0,1,,,,,,,,,0,,,81,62
275880,note_on,120,0,4,,,,,,,,,3,,,69,62
275880,note_on,120,0,1,,,,,,,,,0,,,77,62
276000,note_on,0,0,1,,,,,,,,,0,,,79,61
276000,note_off,0,0,1,,,,,,,,,0,,,81,0
276000,note_off,120,0,4,,,,,,,,,3,,,69,0
276000,note_off,0,0,4,,,,,,,,,3,,,62,0
276000,note_on,0,0,4,,,,,,,,,3,,,63,61
276000,note_off,120,0,1,,,,,,,,,0,,,77,0
276120,note_on,120,0,1,,,,,,,,,0,,,70,61
276120,note_on,120,0,4,,,,,,,,,3,,,67,61
276240,note_on,0,0,4,,,,,,,,,3,,,62,61
276240,note_off,0,0,4,,,,,,,,,3,,,63,0
276240,note_off,120,0,1,,,,,,,,,0,,,70,0
276240,note_off,0,0,1,,,,,,,,,0,,,79,0
276240,note_on,0,0,1,,,,,,,,,0,,,82,61
276240,note_off,120,0,4,,,,,,,,,3,,,67,0
276360,note_on,120,0,1,,,,,,,,,0,,,77,60
276360,note_on,120,0,4,,,,,,,,,3,,,65,60
276480,note_off,0,0,1,,,,,,,,,0,,,82,0
276480,note_off,120,0,1,,,,,,,,,0,,,77,0
276480,note_off,120,0,4,,,,,,,,,3,,,65,0
276480,note_off,0,0,4,,,,,,,,,3,,,62,0
276480,note_on,0,0,4,,,,,,,,,3,,,61,60
276480,note_on,0,0,1,,,,,,,,,0,,,81,60
276600,note_on,120,0,4,,,,,,,,,3,,,64,60
276600,note_on,120,0,1,,,,,,,,,0,,,76,60
276720,note_off,0,0,1,,,,,,,,,0,,,81,0
276720,note_off,120,0,4,,,,,,,,,3,,,64,0
276720,note_on,0,0,4,,,,,,,,,3,,,57,60
276720,note_off,0,0,4,,,,,,,,,3,,,61,0
276720,note_off,120,0,1,,,,,,,,,0,,,76,0
276720,note_on,0,0,1,,,,,,,,,0,,,73,60
276840,note_on,120,0,1,,,,,,,,,0,,,79,59
276840,note_on,120,0,4,,,,,,,,,3,,,64,59
276960,note_off,120,0,4,,,,,,,,,3,,,64,0
276960,note_off,0,0,4,,,,,,,,,3,,,57,0
276960,note_on,0,0,4,,,,,,,,,3,,,58,59
276960,note_off,120,0,1,,,,,,,,,0,,,73,0
276960,note_on,0,0,1,,,,,,,,,0,,,77,59
276975,note_off,15,0,1,,,,,,,,,0,,,79,0
277080,note_on,120,0,4,,,,,,,,,3,,,62,59
277080,note_on,105,0,1,,,,,,,,,0,,,74,59
277200,note_off,120,0,1,,,,,,,,,0,,,74,0
277200,note_off,0,0,1,,,,,,,,,0,,,77,0
277200,note_off,120,0,4,,,,,,,,,3,,,62,0
277200,note_on,0,0,1,,,,,,,,,0,,,70,58
277200,note_on,0,0,4,,,,,,,,,3,,,55,58
277200,note_off,0,0,4,,,,,,,,,3,,,58,0
277320,note_on,120,0,4,,,,,,,,,3,,,67,58
277320,note_on,120,0,1,,,,,,,,,0,,,76,58
277440,note_off,120,0,1,,,,,,,,,0,,,76,0
277440,note_off,0,0,1,,,,,,,,,0,,,70,0
277440,note_on,0,0,1,,,,,,,,,0,,,69,58
277440,note_off,0,0,4,,,,,,,,,3,,,55,0
277440,note_on,0,0,4,,,,,,,,,3,,,57,58
277440,note_off,120,0,4,,,,,,,,,3,,,67,0
277560,note_on,120,0,1,,,,,,,,,0,,,74,57
277560,note_on,120,0,4,,,,,,,,,3,,,65,57
277680,note_off,120,0,1,,,,,,,,,0,,,74,0
277680,note_off,0,0,1,,,,,,,,,0,,,69,0
277680,note_on,0,0,1,,,,,,,,,0,,,68,57
277680,note_off,0,0,4,,,,,,,,,3,,,57,0
277680,note_on,0,0,4,,,,,,,,,3,,,57,57
277680,note_off,120,0,4,,,,,,,,,3,,,65,0
277800,note_on,120,0,4,,,,,,,,,3,,,65,57
277800,note_on,120,0,1,,,,,,,,,0,,,74,57
277920,note_on,0,0,4,,,,,,,,,3,,,57,56
277920,note_off,120,0,4,,,,,,,,,3,,,65,0
277920,note_off,120,0,1,,,,,,,,,0,,,74,0
277920,note_off,0,0,1,,,,,,,,,0,,,68,0
277920,note_on,0,0,1,,,,,,,,,0,,,67,56
277920,note_off,0,0,4,,,,,,,,,3,,,57,0
278040,note_on,120,0,4,,,,,,,,,3,,,64,56
278040,note_on,120,0,1,,,,,,,,,0,,,74,56
278160,note_off,0,0,4,,,,,,,,,3,,,57,0
278160,note_off,120,0,4,,,,,,,,,3,,,64,0
278160,note_on,0,0,4,,,,,,,,,3,,,57,56
278160,note_off,0,0,1,,,,,,,,,0,,,67,0
278160,note_on,0,0,1,,,,,,,,,0,,,73,56
278160,note_off,120,0,1,,,,,,,,,0,,,74,0
278280,note_on,120,0,1,,,,,,,,,0,,,79,55
278280,set_tempo,3720,1,0,,,,,,550458,,,,,,,
278280,note_on,120,0,4,,,,,,,,,3,,,64,55
278400,note_off,120,0,1,,,,,,,,,0,,,79,0
278400,note_off,0,0,1,,,,,,,,,0,,,73,0
278400,note_on,0,0,1,,,,,,,,,0,,,77,55
278400,set_tempo,120,1,0,,,,,,540540,,,,,,,
278400,note_off,120,0,4,,,,,,,,,3,,,64,0
278400,note_off,0,0,4,,,,,,,,,3,,,57,0
278400,note_on,0,0,4,,,,,,,,,3,,,62,55
278520,note_on,120,0,1,,,,,,,,,0,,,74,55
278520,note_on,120,0,4,,,,,,,,,3,,,65,55
278640,note_on,0,0,1,,,,,,,,,0,,,81,54
278640,note_off,0,0,1,,,,,,,,,0,,,77,0
278640,note_off,120,0,1,,,,,,,,,0,,,74,0
278640,note_off,0,0,4,,,,,,,,,3,,,62,0
278640,note_on,0,0,4,,,,,,,,,3,,,57,54
278640,note_off,120,0,4,,,,,,,,,3,,,65,0
278760,note_on,120,0,4,,,,,,,,,3,,,64,54
278760,note_on,120,0,1,,,,,,,,,0,,,72,54
278880,note_on,0,0,4,,,,,,,,,3,,,58,54
278880,note_off,0,0,4,,,,,,,,,3,,,57,0
278880,note_off,120,0,4,,,,,,,,,3,,,64,0
278880,note_on,0,0,1,,,,,,,,,0,,,74,54
278880,note_off,0,0,1,,,,,,,,,0,,,81,0
278880,note_off,120,0,1,,,,,,,,,0,,,72,0
279000,note_on,120,0,1,,,,,,,,,0,,,70,54
279000,note_on,120,0,4,,,,,,,,,3,,,62,54
279120,note_off,0,0,1,,,,,,,,,0,,,74,0
279120,note_on,0,0,1,,,,,,,,,0,,,77,53
279120,note_off,120,0,4,,,,,,,,,3,,,62,0
279120,note_off,120,0,1,,,,,,,,,0,,,70,0
279120,note_on,0,0,4,,,,,,,,,3,,,53,53
279120,note_off,0,0,4,,,,,,,,,3,,,58,0
279240,note_on,120,0,1,,,,,,,,,0,,,69,53
279240,note_on,120,0,4,,,,,,,,,3,,,60,53
279360,note_on,0,0,4,,,,,,,,,3,,,55,53
279360,note_off,0,0,4,,,,,,,,,3,,,53,0
279360,note_off,120,0,4,,,,,,,,,3,,,60,0
279360,note_on,0,0,1,,,,,,,,,0,,,70,53
279360,note_off,0,0,1,,,,,,,,,0,,,77,0
279360,note_off,120,0,1,,,,,,,,,0,,,69,0
279480,note_on,120,0,1,,,,,,,,,0,,,67,52
279480,note_on,120,0,4,,,,,,,,,3,,,58,52
279600,note_off,120,0,4,,,,,,,,,3,,,58,0
279600,note_off,0,0,4,,,,,,,,,3,,,55,0
279600,note_off,120,0,1,,,,,,,,,0,,,67,0
279600,note_off,0,0,1,,,,,,,,,0,,,70,0
279600,note_on,0,0,4,,,,,,,,,3,,,50,52
279600,note_on,0,0,1,,,,,,,,,0,,,74,52
279720,note_on,120,0,4,,,,,,,,,3,,,57,52
279720,note_on,120,0,1,,,,,,,,,0,,,65,52
279840,note_off,120,0,1,,,,,,,,,0,,,65,0
279840,note_off,0,0,4,,,,,,,,,3,,,50,0
279840,note_on,0,0,4,,,,,,,,,3,,,51,51
279840,note_off,120,0,4,,,,,,,,,3,,,57,0
279840,note_on,0,0,1,,,,,,,,,0,,,67,51
279840,note_off,0,0,1,,,,,,,,,0,,,74,0
279960,note_on,120,0,1,,,,,,,,,0,,,63,51
279960,note_on,120,0,4,,,,,,,,,3,,,55,51
280080,note_off,120,0,1,,,,,,,,,0,,,63,0
280080,note_off,0,0,4,,,,,,,,,3,,,51,0
280080,note_on,0,0,1,,,,,,,,,0,,,70,51
280080,note_off,120,0,4,,,,,,,,,3,,,55,0
280080,note_off,0,0,1,,,,,,,,,0,,,67,0
280080,note_on,0,0,4,,,,,,,,,3,,,50,51
280200,note_on,120,0,1,,,,,,,,,0,,,58,50
280200,note_on,120,0,4,,,,,,,,,3,,,53,50
280320,note_off,120,0,1,,,,,,,,,0,,,58,0
280320,note_off,0,0,1,,,,,,,,,0,,,70,0
280320,note_on,0,0,1,,,,,,,,,0,,,69,50
280320,note_off,120,0,4,,,,,,,,,3,,,53,0
280320,note_off,0,0,4,,,,,,,,,3,,,50,0
280320,note_on,0,0,4,,,,,,,,,3,,,49,50
280440,note_on,120,0,4,,,,,,,,,3,,,52,50
280440,note_on,120,0,1,,,,,,,,,0,,,64,50
280560,note_on,0,0,1,,,,,,,,,0,,,61,49
280560,note_on,0,0,4,,,,,,,,,3,,,45,49
280560,note_off,0,0,4,,,,,,,,,3,,,49,0
280560,note_off,120,0,4,,,,,,,,,3,,,52,0
280560,note_off,0,0,1,,,,,,,,,0,,,69,0
280560,note_off,120,0,1,,,,,,,,,0,,,64,0
280680,note_on,120,0,1,,,,,,,,,0,,,67,49
280680,note_on,120,0,4,,,,,,,,,3,,,52,49
280800,note_off,120,0,4,,,,,,,,,3,,,52,0
280800,note_off,0,0,1,,,,,,,,,0,,,61,0
280800,note_on,0,0,4,,,,,,,,,3,,,46,49
280800,note_off,0,0,4,,,,,,,,,3,,,45,0
280800,note_off,120,0,1,,,,,,,,,0,,,67,0
280800,note_on,0,0,1,,,,,,,,,0,,,65,49
280920,note_on,120,0,1,,,,,,,,,0,,,62,48
280920,note_on,120,0,4,,,,,,,,,3,,,50,48
281040,note_off,0,0,1,,,,,,,,,0,,,65,0
281040,note_off,120,0,1,,,,,,,,,0,,,62,0
281040,note_off,120,0,4,,,,,,,,,3,,,50,0
281040,note_off,0,0,4,,,,,,,,,3,,,46,0
281040,note_on,0,0,1,,,,,,,,,0,,,58,48
281040,note_on,0,0,4,,,,,,,,,3,,,43,48
281160,note_on,120,0,4,,,,,,,,,3,,,55,48
281160,note_on,0,0,1,,,,,,,,,0,,,55,48
281160,note_on,120,0,1,,,,,,,,,0,,,64,48
281280,note_off,0,0,1,,,,,,,,,0,,,58,0
281280,note_on,0,0,1,,,,,,,,,0,,,62,50
281280,note_on,0,0,4,,,,,,,,,3,,,45,50
281280,note_off,0,0,4,,,,,,,,,3,,,43,0
281280,note_off,120,0,4,,,,,,,,,3,,,55,0
281280,note_off,0,0,1,,,,,,,,,0,,,64,0
281280,note_off,120,0,1,,,,,,,,,0,,,55,0
281400,note_on,120,0,1,,,,,,,,,0,,,57,52
281400,note_on,120,0,4,,,,,,,,,3,,,53,52
281520,note_off,120,0,1,,,,,,,,,0,,,57,0
281520,note_off,0,0,1,,,,,,,,,0,,,62,0
281520,note_on,0,0,1,,,,,,,,,0,,,56,55
281520,note_off,120,0,4,,,,,,,,,3,,,53,0
281520,note_off,0,0,4,,,,,,,,,3,,,45,0
281520,note_on,0,0,4,,,,,,,,,3,,,45,55
281640,note_on,120,0,1,,,,,,,,,0,,,62,57
281640,note_on,120,0,4,,,,,,,,,3,,,53,57
281760,note_off,0,0,1,,,,,,,,,0,,,56,0
281760,note_on,0,0,1,,,,,,,,,0,,,55,60
281760,note_off,0,0,4,,,,,,,,,3,,,45,0
281760,note_on,0,0,4,,,,,,,,,3,,,45,60
281760,note_off,120,0,1,,,,,,,,,0,,,62,0
281760,note_off,120,0,4,,,,,,,,,3,,,53,0
281880,note_on,120,0,4,,,,,,,,,3,,,52,62
281880,note_on,120,0,1,,,,,,,,,0,,,62,62
282000,note_off,0,0,1,,,,,,,,,0,,,55,0
282000,note_on,0,0,1,,,,,,,,,0,,,55,65
282000,note_on,0,0,4,,,,,,,,,3,,,45,65
282000,note_off,0,0,4,,,,,,,,,3,,,45,0
282000,note_off,120,0,4,,,,,,,,,3,,,52,0
282000,note_off,120,0,1,,,,,,,,,0,,,62,0
282120,set_tempo,3720,1,0,,,,,,550458,,,,,,,
282120,note_on,120,0,1,,,,,,,,,0,,,61,67
282120,note_on,120,0,4,,,,,,,,,3,,,52,67
282240,set_tempo,120,1,0,,,,,,540540,,,,,,,
282240,note_on,0,0,1,,,,,,,,,0,,,48,70
282240,note_off,120,0,4,,,,,,,,,3,,,52,0
282240,note_on,0,0,4,,,,,,,,,3,,,32,70
282240,note_off,0,0,1,,,,,,,,,0,,,55,0
282240,note_off,0,0,4,,,,,,,,,3,,,45,0
282240,note_on,0,0,4,,,,,,,,,3,,,44,70
282240,note_off,120,0,1,,,,,,,,,0,,,61,0
282360,note_on,120,0,1,,,,,,,,,0,,,51,70
282480,note_off,120,0,1,,,,,,,,,0,,,51,0
282480,note_on,0,0,1,,,,,,,,,0,,,54,70
282600,note_off,120,0,1,,,,,,,,,0,,,54,0
282600,note_on,0,0,1,,,,,,,,,0,,,60,70
282720,note_on,0,0,1,,,,,,,,,0,,,59,70
282720,note_off,120,0,1,,,,,,,,,0,,,60,0
282840,note_on,0,0,1,,,,,,,,,0,,,60,70
282840,note_off,120,0,1,,,,,,,,,0,,,59,0
282960,note_off,120,0,1,,,,,,,,,0,,,60,0
282960,note_on,0,0,1,,,,,,,,,0,,,51,70
283080,note_off,120,0,1,,,,,,,,,0,,,51,0
283080,set_tempo,840,1,0,,,,,,550458,,,,,,,
283080,note_on,0,0,1,,,,,,,,,0,,,54,70
283200,note_on,0,0,4,,,,,,,,,3,,,43,71
283200,note_off,0,0,4,,,,,,,,,3,,,32,0
283200,note_off,960,0,4,,,,,,,,,3,,,44,0
283200,note_on,0,0,4,,,,,,,,,3,,,31,71
283200,note_off,120,0,1,,,,,,,,,0,,,54,0
283200,set_tempo,120,1,0,,,,,,540540,,,,,,,
283200,note_off,0,0,1,,,,,,,,,0,,,48,0
283200,note_on,0,0,1,,,,,,,,,0,,,51,71
283320,note_on,120,0,1,,,,,,,,,0,,,55,71
283440,note_off,120,0,1,,,,,,,,,0,,,55,0
283440,note_on,0,0,1,,,,,,,,,0,,,60,71
283560,note_off,120,0,1,,,,,,,,,0,,,60,0
283560,note_on,0,0,1,,,,,,,,,0,,,63,71
283680,note_off,120,0,1,,,,,,,,,0,,,63,0
283680,note_on,0,0,1,,,,,,,,,0,,,62,71
283800,note_on,0,0,1,,,,,,,,,0,,,63,71
283800,note_off,120,0,1,,,,,,,,,0,,,62,0
283920,note_off,120,0,1,,,,,,,,,0,,,63,0
283920,note_on,0,0,1,,,,,,,,,0,,,55,71
284040,note_on,0,0,1,,,,,,,,,0,,,63,71
284040,set_tempo,840,1,0,,,,,,550458,,,,,,,
284040,note_off,120,0,1,,,,,,,,,0,,,55,0
284160,note_off,0,0,4,,,,,,,,,3,,,43,0
284160,note_off,120,0,1,,,,,,,,,0,,,63,0
284160,note_off,0,0,1,,,,,,,,,0,,,51,0
284160,note_on,0,0,1,,,,,,,,,0,,,57,71
284160,set_tempo,120,1,0,,,,,,540540,,,,,,,
284160,note_on,0,0,4,,,,,,,,,3,,,30,71
284160,note_off,960,0,4,,,,,,,,,3,,,31,0
284160,note_on,0,0,4,,,,,,,,,3,,,42,71
284280,note_on,120,0,1,,,,,,,,,0,,,60,72
284400,note_on,0,0,1,,,,,,,,,0,,,63,72
284400,note_off,120,0,1,,,,,,,,,0,,,60,0
284520,note_off,120,0,1,,,,,,,,,0,,,63,0
284520,note_on,0,0,1,,,,,,,,,0,,,69,72
284640,note_off,120,0,1,,,,,,,,,0,,,69,0
284640,note_on,0,0,1,,,,,,,,,0,,,68,72
284760,note_off,120,0,1,,,,,,,,,0,,,68,0
284760,note_on,0,0,1,,,,,,,,,0,,,69,72
284880,note_off,120,0,1,,,,,,,,,0,,,69,0
284880,note_on,0,0,1,,,,,,,,,0,,,60,72
285000,note_off,120,0,1,,,,,,,,,0,,,60,0
285000,set_tempo,840,1,0,,,,,,550458,,,,,,,
285000,note_on,0,0,1,,,,,,,,,0,,,63,72
285120,note_on,0,0,1,,,,,,,,,0,,,60,72
285120,note_off,0,0,1,,,,,,,,,0,,,57,0
285120,note_off,960,0,4,,,,,,,,,3,,,30,0
285120,note_on,0,0,4,,,,,,,,,3,,,41,72
285120,note_on,0,0,4,,,,,,,,,3,,,29,72
285120,note_off,0,0,4,,,,,,,,,3,,,42,0
285120,note_off,120,0,1,,,,,,,,,0,,,63,0
285120,set_tempo,120,1,0,,,,,,540540,,,,,,,
285240,note_on,120,0,1,,,,,,,,,0,,,63,73
285360,note_off,120,0,1,,,,,,,,,0,,,63,0
285360,note_on,0,0,1,,,,,,,,,0,,,69,73
285480,note_off,120,0,1,,,,,,,,,0,,,69,0
285480,note_on,0,0,1,,,,,,,,,0,,,72,73
285600,note_off,120,0,1,,,,,,,,,0,,,72,0
285600,note_on,0,0,1,,,,,,,,,0,,,71,73
285720,note_on,0,0,1,,,,,,,,,0,,,72,73
285720,note_off,120,0,1,,,,,,,,,0,,,71,0
285840,note_off,120,0,1,,,,,,,,,0,,,72,0
285840,note_on,0,0,1,,,,,,,,,0,,,63,73
285960,note_off,120,0,1,,,,,,,,,0,,,63,0
285960,note_on,0,0,1,,,,,,,,,0,,,69,73
285960,set_tempo,840,1,0,,,,,,550458,,,,,,,
286080,set_tempo,120,1,0,,,,,,540540,,,,,,,
286080,note_on,0,0,4,,,,,,,,,3,,,40,73
286080,note_on,0,0,4,,,,,,,,,3,,,28,73
286080,note_off,0,0,4,,,,,,,,,3,,,29,0
286080,note_off,960,0,4,,,,,,,,,3,,,41,0
286080,note_off,120,0,1,,,,,,,,,0,,,69,0
286080,note_off,0,0,1,,,,,,,,,0,,,60,0
286080,note_on,0,0,1,,,,,,,,,0,,,64,73
286200,note_on,120,0,1,,,,,,,,,0,,,69,74
286320,note_off,120,0,1,,,,,,,,,0,,,69,0
286320,note_on,0,0,1,,,,,,,,,0,,,72,74
286440,note_on,0,0,1,,,,,,,,,0,,,76,74
286440,note_off,120,0,1,,,,,,,,,0,,,72,0
286560,note_on,0,0,1,,,,,,,,,0,,,75,74
286560,note_off,120,0,1,,,,,,,,,0,,,76,0
286680,note_on,0,0,1,,,,,,,,,0,,,76,74
286680,note_off,120,0,1,,,,,,,,,0,,,75,0
286800,note_on,0,0,1,,,,,,,,,0,,,69,74
286800,note_off,120,0,1,,,,,,,,,0,,,76,0
286920,set_tempo,840,1,0,,,,,,550458,,,,,,,
286920,note_on,0,0,1,,,,,,,,,0,,,72,74
286920,note_off,120,0,1,,,,,,,,,0,,,69,0
287040,note_off,120,0,1,,,,,,,,,0,,,72,0
287040,note_off,0,0,1,,,,,,,,,0,,,64,0
287040,note_on,0,0,1,,,,,,,,,0,,,66,74
287040,set_tempo,120,1,0,,,,,,540540,,,,,,,
287040,note_on,0,0,4,,,,,,,,,3,,,39,74
287040,note_on,0,0,4,,,,,,,,,3,,,27,74
287040,note_off,0,0,4,,,,,,,,,3,,,28,0
287040,note_off,960,0,4,,,,,,,,,3,,,40,0
287160,note_on,120,0,1,,,,,,,,,0,,,69,74
287280,note_off,120,0,1,,,,,,,,,0,,,69,0
287280,note_on,0,0,1,,,,,,,,,0,,,72,75
287400,note_on,0,0,1,,,,,,,,,0,,,78,75
287400,note_off,120,0,1,,,,,,,,,0,,,72,0
287520,note_on,0,0,1,,,,,,,,,0,,,77,75
287520,note_off,120,0,1,,,,,,,,,0,,,78,0
287640,note_on,0,0,1,,,,,,,,,0,,,78,75
287640,note_off,120,0,1,,,,,,,,,0,,,77,0
287760,note_on,0,0,1,,,,,,,,,0,,,69,75
287760,note_off,120,0,1,,,,,,,,,0,,,78,0
287880,set_tempo,840,1,0,,,,,,550458,,,,,,,
287880,note_on,0,0,1,,,,,,,,,0,,,72,75
287880,note_off,120,0,1,,,,,,,,,0,,,69,0
288000,note_on,0,0,4,,,,,,,,,3,,,38,75
288000,note_on,0,0,4,,,,,,,,,3,,,26,75
288000,note_off,960,0,4,,,,,,,,,3,,,39,0
288000,note_off,0,0,4,,,,,,,,,3,,,27,0
288000,note_on,0,0,1,,,,,,,,,0,,,69,75
288000,set_tempo,120,1,0,,,,,,540540,,,,,,,
288000,note_off,120,0,1,,,,,,,,,0,,,72,0
288007,note_off,7,0,1,,,,,,,,,0,,,66,0
288120,note_on,113,0,1,,,,,,,,,0,,,72,75
288240,note_off,120,0,1,,,,,,,,,0,,,72,0
288240,note_on,0,0,1,,,,,,,,,0,,,78,76
288360,note_off,120,0,1,,,,,,,,,0,,,78,0
288360,note_on,0,0,1,,,,,,,,,0,,,81,76
288480,note_off,120,0,1,,,,,,,,,0,,,81,0
288480,note_on,0,0,1,,,,,,,,,0,,,80,76
288600,note_off,120,0,1,,,,,,,,,0,,,80,0
288600,note_on,0,0,1,,,,,,,,,0,,,81,76
288720,note_off,120,0,1,,,,,,,,,0,,,81,0
288720,note_on,0,0,1,,,,,,,,,0,,,72,76
288840,set_tempo,840,1,0,,,,,,550458,,,,,,,
288840,note_off,120,0,1,,,,,,,,,0,,,72,0
288840,note_on,0,0,1,,,,,,,,,0,,,78,76
288960,set_tempo,120,1,0,,,,,,540540,,,,,,,
288960,note_off,120,0,1,,,,,,,,,0,,,78,0
288960,note_off,0,0,1,,,,,,,,,0,,,69,0
288960,note_on,0,0,1,,,,,,,,,0,,,72,76
288960,note_off,0,0,4,,,,,,,,,3,,,38,0
288960,note_off,960,0,4,,,,,,,,,3,,,26,0
288960,note_on,0,0,4,,,,,,,,,3,,,38,76
288960,note_on,0,0,4,,,,,,,,,3,,,50,76
289080,note_on,120,0,1,,,,,,,,,0,,,78,76
289200,note_off,120,0,1,,,,,,,,,0,,,78,0
289200,note_on,0,0,1,,,,,,,,,0,,,81,77
289320,note_off,120,0,1,,,,,,,,,0,,,81,0
289320,note_on,0,0,1,,,,,,,,,0,,,84,77
289440,note_off,120,0,1,,,,,,,,,0,,,84,0
289440,note_on,0,0,1,,,,,,,,,0,,,83,77
289560,note_off,120,0,1,,,,,,,,,0,,,83,0
289560,note_on,0,0,1,,,,,,,,,0,,,84,77
289680,note_on,0,0,1,,,,,,,,,0,,,78,77
289680,note_off,120,0,1,,,,,,,,,0,,,84,0
289680,set_tempo,720,1,0,,,,,,550458,,,,,,,
289800,set_tempo,120,1,0,,,,,,560747,,,,,,,
289800,note_off,120,0,1,,,,,,,,,0,,,78,0
289800,note_on,0,0,1,,,,,,,,,0,,,84,77
289920,set_tempo,120,1,0,,,,,,540540,,,,,,,
289920,note_off,120,0,1,,,,,,,,,0,,,84,0
289920,note_off,0,0,1,,,,,,,,,0,,,72,0
289920,note_on,0,0,1,,,,,,,,,0,,,79,77
289920,note_on,0,0,4,,,,,,,,,3,,,31,77
289920,note_on,0,0,1,,,,,,,,,0,,,83,77
289920,note_off,960,0,4,,,,,,,,,3,,,38,0
289920,note_off,0,0,4,,,,,,,,,3,,,50,0
289920,note_on,23040,0,2,,,,,,,,,1,,,71,77
289920,note_on,0,0,2,,,,,,,,,1,,,74,77
290040,note_on,120,0,4,,,,,,,,,3,,,35,77
290160,note_off,120,0,4,,,,,,,,,3,,,35,0
290160,note_on,0,0,4,,,,,,,,,3,,,38,77
290160,note_off,0,0,1,,,,,,,,,0,,,83,0
290160,note_off,240,0,1,,,,,,,,,0,,,79,0
290160,note_off,0,0,2,,,,,,,,,1,,,71,0
290160,note_off,240,0,2,,,,,,,,,1,,,74,0
290280,note_off,120,0,4,,,,,,,,,3,,,38,0
290280,note_on,0,0,4,,,,,,,,,3,,,43,78
290392,note_off,112,0,4,,,,,,,,,3,,,31,0
290400,note_on,0,0,4,,,,,,,,,3,,,33,78
290400,note_off,8,0,4,,,,,,,,,3,,,43,0
290400,note_on,240,0,2,,,,,,,,,1,,,62,78
290400,note_on,240,0,1,,,,,,,,,0,,,74,78
290520,note_on,120,0,4,,,,,,,,,3,,,42,78
290640,note_off,240,0,2,,,,,,,,,1,,,62,0
290640,note_on,0,0,4,,,,,,,,,3,,,35,78
290640,note_off,0,0,4,,,,,,,,,3,,,33,0
290640,note_on,0,0,2,,,,,,,,,1,,,62,78
290640,note_on,0,0,1,,,,,,,,,0,,,74,78
290640,note_off,240,0,1,,,,,,,,,0,,,74,0
290640,note_off,120,0,4,,,,,,,,,3,,,42,0
290760,note_on,120,0,4,,,,,,,,,3,,,43,78
290880,note_off,0,0,4,,,,,,,,,3,,,35,0
290880,note_on,0,0,4,,,,,,,,,3,,,36,78
290880,note_off,120,0,4,,,,,,,,,3,,,43,0
291000,note_on,120,0,4,,,,,,,,,3,,,45,78
291105,note_off,465,0,1,,,,,,,,,0,,,74,0
291105,note_off,465,0,2,,,,,,,,,1,,,62,0
291120,note_off,120,0,4,,,,,,,,,3,,,45,0
291120,note_off,0,0,4,,,,,,,,,3,,,36,0
291120,note_on,0,0,4,,,,,,,,,3,,,38,78
291120,note_on,15,0,2,,,,,,,,,1,,,62,78
291120,note_on,15,0,1,,,,,,,,,0,,,74,78
291240,note_on,120,0,4,,,,,,,,,3,,,47,79
291360,note_on,0,0,4,,,,,,,,,3,,,40,79
291360,note_off,0,0,4,,,,,,,,,3,,,38,0
291360,note_off,120,0,4,,,,,,,,,3,,,47,0
291480,note_on,120,0,4,,,,,,,,,3,,,48,79
291600,note_off,480,0,1,,,,,,,,,0,,,74,0
291600,note_on,0,0,4,,,,,,,,,3,,,42,79
291600,note_off,0,0,4,,,,,,,,,3,,,40,0
291600,note_off,480,0,2,,,,,,,,,1,,,62,0
291600,note_on,0,0,2,,,,,,,,,1,,,62,79
291600,note_off,120,0,4,,,,,,,,,3,,,48,0
291600,note_on,0,0,1,,,,,,,,,0,,,74,79
291720,set_tempo,1800,1,0,,,,,,550458,,,,,,,
291720,note_on,120,0,4,,,,,,,,,3,,,50,79
291840,note_off,0,0,4,,,,,,,,,3,,,42,0
291840,set_tempo,120,1,0,,,,,,540540,,,,,,,
291840,note_off,240,0,2,,,,,,,,,1,,,62,0
291840,note_on,0,0,1,,,,,,,,,0,,,55,64
291840,note_on,0,0,4,,,,,,,,,3,,,47,64
291840,note_off,240,0,1,,,,,,,,,0,,,74,0
291840,note_off,0,0,4,,,,,,,,,3,,,50,0
291840,control_change,120,0,4,,,,,,,64,127,3,,,,
291960,note_on,0,0,4,,,,,,,,,3,,,43,83
291960,note_off,120,0,4,,,,,,,,,3,,,47,0
291960,note_on,120,0,1,,,,,,,,,0,,,59,64
292080,note_on,0,0,1,,,,,,,,,0,,,62,64
292080,note_off,120,0,1,,,,,,,,,0,,,59,0
292200,note_on,0,0,1,,,,,,,,,0,,,67,65
292200,note_off,120,0,1,,,,,,,,,0,,,62,0
292320,note_off,120,0,1,,,,,,,,,0,,,67,0
292320,note_off,0,0,1,,,,,,,,,0,,,55,0
292320,control_change,360,0,4,,,,,,,64,0,3,,,,
292320,note_on,0,0,4,,,,,,,,,3,,,50,65
292320,note_on,0,0,1,,,,,,,,,0,,,57,65
292440,note_on,120,0,1,,,,,,,,,0,,,66,66
292560,note_on,0,0,4,,,,,,,,,3,,,50,66
292560,note_off,240,0,4,,,,,,,,,3,,,50,0
292560,note_off,120,0,1,,,,,,,,,0,,,66,0
292560,note_off,0,0,1,,,,,,,,,0,,,57,0
292560,note_on,0,0,1,,,,,,,,,0,,,59,66
292680,note_on,120,0,1,,,,,,,,,0,,,67,66
292800,note_on,0,0,1,,,,,,,,,0,,,60,67
292800,note_off,0,0,1,,,,,,,,,0,,,59,0
292800,note_off,120,0,1,,,,,,,,,0,,,67,0
292920,note_on,120,0,1,,,,,,,,,0,,,69,67
293032,note_off,472,0,4,,,,,,,,,3,,,50,0
293040,note_on,8,0,4,,,,,,,,,3,,,50,67
293040,note_off,120,0,1,,,,,,,,,0,,,69,0
293040,note_off,0,0,1,,,,,,,,,0,,,60,0
293040,note_on,0,0,1,,,,,,,,,0,,,62,67
293160,note_on,120,0,1,,,,,,,,,0,,,71,68
293280,note_on,0,0,1,,,,,,,,,0,,,64,68
293280,note_off,120,0,1,,,,,,,,,0,,,71,0
293280,note_off,0,0,1,,,,,,,,,0,,,62,0
293400,note_on,120,0,1,,,,,,,,,0,,,72,69
293520,note_on,0,0,1,,,,,,,,,0,,,66,69
293520,note_off,0,0,1,,,,,,,,,0,,,64,0
293520,note_off,480,0,4,,,,,,,,,3,,,50,0
293520,note_on,0,0,4,,,,,,,,,3,,,50,69
293520,note_off,120,0,1,,,,,,,,,0,,,72,0
293640,set_tempo,1800,1,0,,,,,,550458,,,,,,,
293640,note_on,120,0,1,,,,,,,,,0,,,74,69
293737,note_off,217,0,4,,,,,,,,,3,,,43,0
293760,note_on,0,0,1,,,,,,,,,0,,,71,81
293760,note_on,0,0,4,,,,,,,,,3,,,43,74
293760,note_off,23,0,4,,,,,,,,,3,,,50,0
293760,control_change,120,0,1,,,,,,,64,127,0,,,,
293760,set_tempo,120,1,0,,,,,,540540,,,,,,,
293760,note_off,0,0,1,,,,,,,,,0,,,74,0
293760,note_off,0,0,1,,,,,,,,,0,,,66,0
293880,note_on,120,0,4,,,,,,,,,3,,,47,81
293880,note_on,0,0,1,,,,,,,,,0,,,67,81
293880,note_off,120,0,1,,,,,,,,,0,,,71,0
294000,note_off,120,0,4,,,,,,,,,3,,,47,0
294000,note_off,120,0,1,,,,,,,,,0,,,67,0
294000,note_on,0,0,4,,,,,,,,,3,,,50,81
294000,note_on,0,0,1,,,,,,,,,0,,,74,95
294120,note_on,0,0,4,,,,,,,,,3,,,55,81
294120,note_off,120,0,4,,,,,,,,,3,,,50,0
294240,note_off,120,0,4,,,,,,,,,3,,,55,0
294240,note_off,0,0,4,,,,,,,,,3,,,43,0
294240,note_on,0,0,4,,,,,,,,,3,,,45,82
294360,note_on,120,0,4,,,,,,,,,3,,,54,82
294480,note_off,120,0,4,,,,,,,,,3,,,54,0
294480,note_on,0,0,4,,,,,,,,,3,,,47,82
294480,note_on,2640,0,2,,,,,,,,,1,,,74,82
294480,control_change,480,0,1,,,,,,,64,0,0,,,,
294480,note_off,0,0,1,,,,,,,,,0,,,74,0
294480,note_on,0,0,1,,,,,,,,,0,,,86,82
294480,note_off,0,0,4,,,,,,,,,3,,,45,0
294600,note_on,120,0,4,,,,,,,,,3,,,55,82
294720,note_off,0,0,4,,,,,,,,,3,,,47,0
294720,note_on,0,0,4,,,,,,,,,3,,,48,82
294720,note_off,120,0,4,,,,,,,,,3,,,55,0
294840,note_on,120,0,4,,,,,,,,,3,,,57,82
294945,note_off,465,0,2,,,,,,,,,1,,,74,0
294952,note_off,472,0,1,,,,,,,,,0,,,86,0
294960,note_off,120,0,4,,,,,,,,,3,,,57,0
294960,note_on,0,0,4,,,,,,,,,3,,,50,82
294960,note_off,0,0,4,,,,,,,,,3,,,48,0
294960,note_on,15,0,2,,,,,,,,,1,,,74,82
294960,note_on,8,0,1,,,,,,,,,0,,,86,82
295080,note_on,120,0,4,,,,,,,,,3,,,59,82
295200,note_on,0,0,4,,,,,,,,,3,,,52,83
295200,note_off,0,0,4,,,,,,,,,3,,,50,0
295200,note_off,120,0,4,,,,,,,,,3,,,59,0
295320,note_on,120,0,4,,,,,,,,,3,,,60,83
295440,note_on,0,0,2,,,,,,,,,1,,,74,83
295440,note_off,480,0,1,,,,,,,,,0,,,86,0
295440,note_off,0,0,4,,,,,,,,,3,,,52,0
295440,note_on,0,0,4,,,,,,,,,3,,,54,83
295440,note_on,0,0,1,,,,,,,,,0,,,86,83
295440,note_off,480,0,2,,,,,,,,,1,,,74,0
295440,note_off,120,0,4,,,,,,,,,3,,,60,0
295560,set_tempo,1800,1,0,,,,,,550458,,,,,,,
295560,note_on,120,0,4,,,,,,,,,3,,,62,83
295680,control_change,120,0,4,,,,,,,64,127,3,,,,
295680,note_off,0,0,4,,,,,,,,,3,,,62,0
295680,note_off,0,0,4,,,,,,,,,3,,,54,0
295680,note_on,0,0,4,,,,,,,,,3,,,59,83
295680,note_off,240,0,2,,,,,,,,,1,,,74,0
295680,set_tempo,120,1,0,,,,,,540540,,,,,,,
295680,note_on,0,0,1,,,,,,,,,0,,,67,83
295680,note_off,240,0,1,,,,,,,,,0,,,86,0
295800,note_on,120,0,1,,,,,,,,,0,,,71,68
295800,note_off,120,0,4,,,,,,,,,3,,,59,0
295800,note_on,0,0,4,,,,,,,,,3,,,55,68
295920,note_on,0,0,1,,,,,,,,,0,,,74,68
295920,note_off,120,0,1,,,,,,,,,0,,,71,0
296040,note_on,0,0,1,,,,,,,,,0,,,79,68
296040,note_off,120,0,1,,,,,,,,,0,,,74,0
296160,note_off,120,0,1,,,,,,,,,0,,,79,0
296160,note_on,0,0,1,,,,,,,,,0,,,68,68
296167,note_off,7,0,1,,,,,,,,,0,,,67,0
296280,note_on,113,0,1,,,,,,,,,0,,,77,69
296392,note_off,592,0,4,,,,,,,,,3,,,55,0
296400,note_off,0,0,1,,,,,,,,,0,,,68,0
296400,note_on,0,0,1,,,,,,,,,0,,,67,69
296400,note_on,0,0,4,,,,,,,,,3,,,55,69
296400,control_change,8,0,4,,,,,,,64,0,3,,,,
296400,note_off,120,0,1,,,,,,,,,0,,,77,0
296520,note_on,120,0,1,,,,,,,,,0,,,75,69
296640,note_off,120,0,1,,,,,,,,,0,,,75,0
296640,note_off,0,0,1,,,,,,,,,0,,,67,0
296640,note_on,0,0,1,,,,,,,,,0,,,65,70
296760,note_on,120,0,1,,,,,,,,,0,,,74,70
296865,note_off,465,0,4,,,,,,,,,3,,,55,0
296880,note_on,15,0,4,,,,,,,,,3,,,55,70
296880,note_on,0,0,1,,,,,,,,,0,,,63,70
296880,note_off,0,0,1,,,,,,,,,0,,,65,0
296880,note_off,120,0,1,,,,,,,,,0,,,74,0
297000,note_on,120,0,1,,,,,,,,,0,,,72,70
297120,note_off,120,0,1,,,,,,,,,0,,,72,0
297120,note_off,0,0,1,,,,,,,,,0,,,63,0
297120,note_on,0,0,1,,,,,,,,,0,,,62,71
297240,note_on,120,0,1,,,,,,,,,0,,,72,71
297360,note_off,120,0,1,,,,,,,,,0,,,72,0
297360,note_on,0,0,1,,,,,,,,,0,,,62,71
297360,note_off,0,0,1,,,,,,,,,0,,,62,0
297360,note_off,480,0,4,,,,,,,,,3,,,55,0
297360,note_on,0,0,4,,,,,,,,,3,,,55,71
297480,note_on,120,0,1,,,,,,,,,0,,,71,71
297480,set_tempo,1800,1,0,,,,,,550458,,,,,,,
297600,note_off,240,0,4,,,,,,,,,3,,,55,0
297600,note_on,0,0,4,,,,,,,,,3,,,36,81
297600,note_on,0,0,2,,,,,,,,,1,,,67,81
297600,set_tempo,120,1,0,,,,,,540540,,,,,,,
297600,note_on,0,0,2,,,,,,,,,1,,,63,81
297600,note_on,1920,0,2,,,,,,,,,1,,,60,81
297600,note_off,0,0,1,,,,,,,,,0,,,62,0
297600,note_off,120,0,1,,,,,,,,,0,,,71,0
297600,note_on,0,0,1,,,,,,,,,0,,,72,81
297720,note_on,120,0,4,,,,,,,,,3,,,39,81
297825,note_off,225,0,2,,,,,,,,,1,,,60,0
297840,note_off,120,0,4,,,,,,,,,3,,,39,0
297840,note_off,240,0,1,,,,,,,,,0,,,72,0
297840,note_on,0,0,4,,,,,,,,,3,,,43,81
297840,note_off,0,0,2,,,,,,,,,1,,,67,0
297840,note_off,15,0,2,,,,,,,,,1,,,63,0
297960,note_off,120,0,4,,,,,,,,,3,,,43,0
297960,note_on,0,0,4,,,,,,,,,3,,,48,81
298080,note_off,120,0,4,,,,,,,,,3,,,48,0
298080,note_off,0,0,4,,,,,,,,,3,,,36,0
298080,note_on,0,0,4,,,,,,,,,3,,,38,82
298080,note_on,240,0,1,,,,,,,,,0,,,67,81
298200,note_on,120,0,4,,,,,,,,,3,,,47,82
298320,note_off,240,0,1,,,,,,,,,0,,,67,0
298320,note_off,120,0,4,,,,,,,,,3,,,47,0
298320,note_on,0,0,1,,,,,,,,,0,,,67,82
298320,note_on,0,0,4,,,,,,,,,3,,,39,82
298320,note_off,0,0,4,,,,,,,,,3,,,38,0
298440,note_on,120,0,4,,,,,,,,,3,,,48,82
298560,note_off,120,0,4,,,,,,,,,3,,,48,0
298560,note_off,0,0,4,,,,,,,,,3,,,39,0
298560,note_on,0,0,4,,,,,,,,,3,,,41,82
298680,note_on,120,0,4,,,,,,,,,3,,,50,82
298785,note_off,465,0,1,,,,,,,,,0,,,67,0
298800,note_on,15,0,1,,,,,,,,,0,,,67,82
298800,note_off,0,0,4,,,,,,,,,3,,,41,0
298800,note_on,0,0,4,,,,,,,,,3,,,43,82
298800,note_off,120,0,4,,,,,,,,,3,,,50,0
298920,note_on,120,0,4,,,,,,,,,3,,,51,82
299040,note_off,120,0,4,,,,,,,,,3,,,51,0
299040,note_off,0,0,4,,,,,,,,,3,,,43,0
299040,note_on,0,0,4,,,,,,,,,3,,,45,83
299160,note_on,120,0,4,,,,,,,,,3,,,53,83
299280,note_off,480,0,1,,,,,,,,,0,,,67,0
299280,note_on,0,0,1,,,,,,,,,0,,,67,83
299280,note_on,0,0,4,,,,,,,,,3,,,47,83
299280,note_off,0,0,4,,,,,,,,,3,,,45,0
299280,note_off,120,0,4,,,,,,,,,3,,,53,0
299400,set_tempo,1800,1,0,,,,,,550458,,,,,,,
299400,note_on,120,0,4,,,,,,,,,3,,,55,83
299520,note_off,240,0,1,,,,,,,,,0,,,67,0
299520,control_change,120,0,4,,,,,,,64,127,3,,,,
299520,note_on,0,0,4,,,,,,,,,3,,,51,83
299520,note_off,0,0,4,,,,,,,,,3,,,55,0
299520,note_off,0,0,4,,,,,,,,,3,,,47,0
299520,set_tempo,120,1,0,,,,,,540540,,,,,,,
299520,note_on,0,0,1,,,,,,,,,0,,,60,83
299640,note_on,120,0,1,,,,,,,,,0,,,63,68
299640,note_on,0,0,4,,,,,,,,,3,,,48,78
299640,note_off,120,0,4,,,,,,,,,3,,,51,0
299760,note_off,120,0,1,,,,,,,,,0,,,63,0
299760,note_on,0,0,1,,,,,,,,,0,,,67,68
299880,note_off,120,0,1,,,,,,,,,0,,,67,0
299880,note_on,0,0,1,,,,,,,,,0,,,72,68
300000,note_off,120,0,1,,,,,,,,,0,,,72,0
300000,note_on,0,0,1,,,,,,,,,0,,,62,68
300007,note_off,7,0,1,,,,,,,,,0,,,60,0
300120,note_on,113,0,1,,,,,,,,,0,,,71,69
300240,note_off,120,0,1,,,,,,,,,0,,,71,0
300240,note_on,0,0,1,,,,,,,,,0,,,63,69
300240,note_off,0,0,1,,,,,,,,,0,,,62,0
300240,control_change,600,0,4,,,,,,,64,0,3,,,,
300240,note_on,0,0,4,,,,,,,,,3,,,55,69
300360,note_on,120,0,1,,,,,,,,,0,,,72,69
300480,note_on,0,0,1,,,,,,,,,0,,,65,70
300480,note_off,0,0,1,,,,,,,,,0,,,63,0
300480,note_off,120,0,1,,,,,,,,,0,,,72,0
300600,note_on,120,0,1,,,,,,,,,0,,,74,70
300705,note_off,465,0,4,,,,,,,,,3,,,55,0
300720,note_off,0,0,1,,,,,,,,,0,,,65,0
300720,note_on,0,0,1,,,,,,,,,0,,,67,70
300720,note_off,120,0,1,,,,,,,,,0,,,74,0
300720,note_on,15,0,4,,,,,,,,,3,,,55,70
300840,note_on,120,0,1,,,,,,,,,0,,,75,70
300960,note_on,0,0,1,,,,,,,,,0,,,69,71
300960,note_off,0,0,1,,,,,,,,,0,,,67,0
300960,note_off,120,0,1,,,,,,,,,0,,,75,0
301080,note_on,120,0,1,,,,,,,,,0,,,77,71
301200,note_on,0,0,4,,,,,,,,,3,,,55,71
301200,note_off,480,0,4,,,,,,,,,3,,,55,0
301200,note_off,0,0,1,,,,,,,,,0,,,69,0
301200,note_off,120,0,1,,,,,,,,,0,,,77,0
301200,note_on,0,0,1,,,,,,,,,0,,,71,71
301320,note_on,120,0,1,,,,,,,,,0,,,79,71
301320,set_tempo,1800,1,0,,,,,,550458,,,,,,,
301432,note_off,232,0,4,,,,,,,,,3,,,48,0
301440,control_change,120,0,1,,,,,,,64,127,0,,,,
301440,note_off,0,0,1,,,,,,,,,0,,,79,0
301440,note_off,0,0,1,,,,,,,,,0,,,71,0
301440,note_on,0,0,1,,,,,,,,,0,,,75,85
301440,set_tempo,120,1,0,,,,,,540540,,,,,,,
301440,control_change,8,0,4,,,,,,,64,0,3,,,,
301440,note_off,0,0,4,,,,,,,,,3,,,55,0
301440,note_on,0,0,4,,,,,,,,,3,,,48,85
301560,note_on,0,0,1,,,,,,,,,0,,,72,85
301560,note_off,120,0,1,,,,,,,,,0,,,75,0
301560,note_on,120,0,4,,,,,,,,,3,,,51,85
301680,note_on,0,0,4,,,,,,,,,3,,,57,85
301680,note_on,0,0,1,,,,,,,,,0,,,79,97
301680,note_off,120,0,1,,,,,,,,,0,,,72,0
301680,note_off,120,0,4,,,,,,,,,3,,,51,0
301800,note_off,120,0,4,,,,,,,,,3,,,57,0
301800,note_on,0,0,4,,,,,,,,,3,,,60,85
301920,note_off,0,0,4,,,,,,,,,3,,,48,0
301920,note_on,0,0,4,,,,,,,,,3,,,50,85
301920,note_off,120,0,4,,,,,,,,,3,,,60,0
302040,note_on,120,0,4,,,,,,,,,3,,,59,86
302160,control_change,480,0,1,,,,,,,64,0,0,,,,
302160,note_off,120,0,4,,,,,,,,,3,,,59,0
302160,note_off,0,0,4,,,,,,,,,3,,,50,0
302160,note_on,0,0,4,,,,,,,,,3,,,51,86
302160,note_off,0,0,1,,,,,,,,,0,,,79,0
302160,note_on,0,0,1,,,,,,,,,0,,,79,86
302280,note_on,120,0,4,,,,,,,,,3,,,60,86
302400,note_off,120,0,4,,,,,,,,,3,,,60,0
302400,note_off,0,0,4,,,,,,,,,3,,,51,0
302400,note_on,0,0,4,,,,,,,,,3,,,53,86
302520,note_on,120,0,4,,,,,,,,,3,,,62,86
302610,note_off,450,0,1,,,,,,,,,0,,,79,0
302640,note_off,120,0,4,,,,,,,,,3,,,62,0
302640,note_off,0,0,4,,,,,,,,,3,,,53,0
302640,note_on,0,0,4,,,,,,,,,3,,,55,86
302640,note_on,30,0,1,,,,,,,,,0,,,79,86
302760,note_on,120,0,4,,,,,,,,,3,,,63,86
302880,note_off,120,0,4,,,,,,,,,3,,,63,0
302880,note_on,0,0,4,,,,,,,,,3,,,57,86
302880,note_off,0,0,4,,,,,,,,,3,,,55,0
303000,note_on,120,0,4,,,,,,,,,3,,,65,86
303120,note_off,120,0,4,,,,,,,,,3,,,65,0
303120,note_off,0,0,4,,,,,,,,,3,,,57,0
303120,note_on,0,0,4,,,,,,,,,3,,,59,87
303120,note_off,480,0,1,,,,,,,,,0,,,79,0
303120,note_on,0,0,1,,,,,,,,,0,,,79,87
303240,note_on,120,0,4,,,,,,,,,3,,,67,87
303240,set_tempo,1800,1,0,,,,,,550458,,,,,,,
303360,note_on,0,0,4,,,,,,,,,3,,,64,74
303360,note_off,0,0,4,,,,,,,,,3,,,67,0
303360,control_change,120,0,4,,,,,,,64,127,3,,,,
303360,set_tempo,120,1,0,,,,,,540540,,,,,,,
303360,note_on,0,0,1,,,,,,,,,0,,,72,74
303360,note_off,240,0,1,,,,,,,,,0,,,79,0
303360,note_off,0,0,4,,,,,,,,,3,,,59,0
303480,note_off,120,0,4,,,,,,,,,3,,,64,0
303480,note_on,120,0,1,,,,,,,,,0,,,76,74
303480,note_on,0,0,4,,,,,,,,,3,,,60,89
303600,note_on,0,0,1,,,,,,,,,0,,,79,74
303600,note_off,120,0,1,,,,,,,,,0,,,76,0
303720,note_on,0,0,1,,,,,,,,,0,,,84,74
303720,note_off,120,0,1,,,,,,,,,0,,,79,0
303840,note_off,120,0,1,,,,,,,,,0,,,84,0
303840,note_on,0,0,1,,,,,,,,,0,,,73,75
303847,note_off,7,0,1,,,,,,,,,0,,,72,0
303960,note_on,113,0,1,,,,,,,,,0,,,82,75
304080,control_change,600,0,4,,,,,,,64,0,3,,,,
304080,note_off,120,0,1,,,,,,,,,0,,,82,0
304080,note_off,0,0,1,,,,,,,,,0,,,73,0
304080,note_on,0,0,1,,,,,,,,,0,,,72,75
304200,note_on,120,0,1,,,,,,,,,0,,,80,75
304320,note_off,120,0,1,,,,,,,,,0,,,80,0
304320,note_on,0,0,1,,,,,,,,,0,,,70,76
304320,note_off,0,0,1,,,,,,,,,0,,,72,0
304440,note_on,120,0,1,,,,,,,,,0,,,79,76
304552,note_off,472,0,4,,,,,,,,,3,,,60,0
304560,note_off,0,0,1,,,,,,,,,0,,,70,0
304560,note_on,0,0,1,,,,,,,,,0,,,68,76
304560,note_on,8,0,4,,,,,,,,,3,,,60,76
304560,note_off,120,0,1,,,,,,,,,0,,,79,0
304680,note_on,120,0,1,,,,,,,,,0,,,77,76
304800,note_off,120,0,1,,,,,,,,,0,,,77,0
304800,note_on,0,0,1,,,,,,,,,0,,,67,77
304800,note_off,0,0,1,,,,,,,,,0,,,68,0
304920,note_on,120,0,1,,,,,,,,,0,,,75,77
305040,note_off,0,0,1,,,,,,,,,0,,,67,0
305040,note_on,0,0,1,,,,,,,,,0,,,75,77
305040,set_tempo,1680,1,0,,,,,,550458,,,,,,,
305040,note_off,120,0,1,,,,,,,,,0,,,75,0
305040,note_on,0,0,4,,,,,,,,,3,,,60,77
305040,note_off,480,0,4,,,,,,,,,3,,,60,0
305160,note_on,120,0,1,,,,,,,,,0,,,79,77
305160,note_on,120,0,4,,,,,,,,,3,,,70,77
305160,set_tempo,120,1,0,,,,,,560747,,,,,,,
305280,set_tempo,120,1,0,,,,,,540540,,,,,,,
305280,note_off,120,0,4,,,,,,,,,3,,,70,0
305280,note_on,0,0,1,,,,,,,,,0,,,80,89
305280,note_off,0,0,4,,,,,,,,,3,,,60,0
305280,note_off,0,0,1,,,,,,,,,0,,,75,0
305280,note_off,120,0,1,,,,,,,,,0,,,79,0
305280,note_on,0,0,4,,,,,,,,,3,,,65,89
305400,note_on,120,0,4,,,,,,,,,3,,,68,89
305400,note_on,120,0,1,,,,,,,,,0,,,77,89
305520,note_off,120,0,1,,,,,,,,,0,,,77,0
305520,note_off,0,0,1,,,,,,,,,0,,,80,0
305520,note_off,0,0,4,,,,,,,,,3,,,65,0
305520,note_off,120,0,4,,,,,,,,,3,,,68,0
305520,note_on,0,0,4,,,,,,,,,3,,,60,89
305520,note_on,0,0,1,,,,,,,,,0,,,84,89
305640,note_on,120,0,4,,,,,,,,,3,,,67,89
305640,note_on,120,0,1,,,,,,,,,0,,,75,89
305760,note_off,0,0,4,,,,,,,,,3,,,60,0
305760,note_off,120,0,4,,,,,,,,,3,,,67,0
305760,note_on,0,0,1,,,,,,,,,0,,,77,89
305760,note_off,0,0,1,,,,,,,,,0,,,84,0
305760,note_off,120,0,1,,,,,,,,,0,,,75,0
305760,note_on,0,0,4,,,,,,,,,3,,,61,89
305880,note_on,120,0,4,,,,,,,,,3,,,65,89
305880,note_on,120,0,1,,,,,,,,,0,,,73,89
306000,note_off,120,0,4,,,,,,,,,3,,,65,0
306000,note_off,0,0,4,,,,,,,,,3,,,61,0
306000,note_on,0,0,4,,,,,,,,,3,,,56,89
306000,note_on,0,0,1,,,,,,,,,0,,,80,89
306000,note_off,0,0,1,,,,,,,,,0,,,77,0
306000,note_off,120,0,1,,,,,,,,,0,,,73,0
306120,note_on,120,0,4,,,,,,,,,3,,,63,90
306120,note_on,120,0,1,,,,,,,,,0,,,72,90
306240,note_on,0,0,1,,,,,,,,,0,,,73,90
306240,note_off,120,0,1,,,,,,,,,0,,,72,0
306240,note_off,120,0,4,,,,,,,,,3,,,63,0
306240,note_off,0,0,4,,,,,,,,,3,,,56,0
306240,note_on,0,0,4,,,,,,,,,3,,,58,90
306240,note_off,0,0,1,,,,,,,,,0,,,80,0
306360,note_on,120,0,1,,,,,,,,,0,,,70,90
306360,note_on,120,0,4,,,,,,,,,3,,,61,90
306480,note_off,120,0,4,,,,,,,,,3,,,61,0
306480,note_off,0,0,4,,,,,,,,,3,,,58,0
306480,note_on,0,0,4,,,,,,,,,3,,,53,90
306480,note_off,120,0,1,,,,,,,,,0,,,70,0
306480,note_off,0,0,1,,,,,,,,,0,,,73,0
306480,note_on,0,0,1,,,,,,,,,0,,,77,90
306600,note_on,120,0,4,,,,,,,,,3,,,60,90
306600,note_on,120,0,1,,,,,,,,,0,,,68,90
306720,note_on,0,0,4,,,,,,,,,3,,,54,90
306720,note_off,120,0,4,,,,,,,,,3,,,60,0
306720,note_off,120,0,1,,,,,,,,,0,,,68,0
306720,note_off,0,0,1,,,,,,,,,0,,,77,0
306720,note_on,0,0,1,,,,,,,,,0,,,70,90
306720,note_off,0,0,4,,,,,,,,,3,,,53,0
306840,note_on,120,0,4,,,,,,,,,3,,,58,90
306840,note_on,120,0,1,,,,,,,,,0,,,66,90
306960,note_on,0,0,4,,,,,,,,,3,,,49,90
306960,note_on,0,0,1,,,,,,,,,0,,,73,90
306960,note_off,120,0,1,,,,,,,,,0,,,66,0
306960,note_off,0,0,1,,,,,,,,,0,,,70,0
306960,note_off,120,0,4,,,,,,,,,3,,,58,0
306960,note_off,0,0,4,,,,,,,,,3,,,54,0
307080,note_on,120,0,1,,,,,,,,,0,,,65,91
307080,note_on,120,0,4,,,,,,,,,3,,,56,91
307200,note_on,0,0,1,,,,,,,,,0,,,66,91
307200,note_off,0,0,1,,,,,,,,,0,,,73,0
307200,note_off,120,0,4,,,,,,,,,3,,,56,0
307200,note_off,0,0,4,,,,,,,,,3,,,49,0
307200,note_off,120,0,1,,,,,,,,,0,,,65,0
307200,note_on,0,0,4,,,,,,,,,3,,,51,91
307320,note_on,120,0,4,,,,,,,,,3,,,54,91
307320,note_on,120,0,1,,,,,,,,,0,,,63,91
307440,note_off,120,0,1,,,,,,,,,0,,,63,0
307440,note_off,0,0,1,,,,,,,,,0,,,66,0
307440,note_off,0,0,4,,,,,,,,,3,,,51,0
307440,note_on,0,0,1,,,,,,,,,0,,,70,91
307440,note_off,120,0,4,,,,,,,,,3,,,54,0
307440,note_on,0,0,4,,,,,,,,,3,,,49,91
307560,note_on,120,0,4,,,,,,,,,3,,,53,91
307560,note_on,120,0,1,,,,,,,,,0,,,58,91
307680,note_off,120,0,4,,,,,,,,,3,,,53,0
307680,note_off,0,0,4,,,,,,,,,3,,,49,0
307680,note_on,0,0,4,,,,,,,,,3,,,48,91
307680,note_on,0,0,1,,,,,,,,,0,,,68,91
307680,note_off,0,0,1,,,,,,,,,0,,,70,0
307680,note_off,120,0,1,,,,,,,,,0,,,58,0
307800,note_on,120,0,1,,,,,,,,,0,,,63,91
307800,note_on,120,0,4,,,,,,,,,3,,,51,91
307920,note_on,0,0,4,,,,,,,,,3,,,44,91
307920,note_off,0,0,1,,,,,,,,,0,,,68,0
307920,note_on,0,0,1,,,,,,,,,0,,,60,91
307920,note_off,120,0,4,,,,,,,,,3,,,51,0
307920,note_off,0,0,4,,,,,,,,,3,,,48,0
307920,note_off,120,0,1,,,,,,,,,0,,,63,0
308040,note_on,120,0,1,,,,,,,,,0,,,66,92
308040,note_on,120,0,4,,,,,,,,,3,,,51,92
308160,note_off,0,0,1,,,,,,,,,0,,,60,0
308160,note_off,120,0,1,,,,,,,,,0,,,66,0
308160,note_on,0,0,1,,,,,,,,,0,,,65,92
308160,note_on,0,0,4,,,,,,,,,3,,,49,92
308160,note_off,0,0,4,,,,,,,,,3,,,44,0
308160,note_off,120,0,4,,,,,,,,,3,,,51,0
308280,note_on,120,0,4,,,,,,,,,3,,,53,92
308280,note_on,120,0,1,,,,,,,,,0,,,61,92
308400,note_on,0,0,4,,,,,,,,,3,,,42,92
308400,note_off,0,0,4,,,,,,,,,3,,,49,0
308400,note_off,120,0,4,,,,,,,,,3,,,53,0
308400,note_off,0,0,1,,,,,,,,,0,,,65,0
308400,note_on,0,0,1,,,,,,,,,0,,,58,92
308400,note_off,120,0,1,,,,,,,,,0,,,61,0
308520,note_on,120,0,4,,,,,,,,,3,,,54,92
308520,note_on,120,0,1,,,,,,,,,0,,,63,92
308640,note_off,120,0,1,,,,,,,,,0,,,63,0
308640,note_off,0,0,4,,,,,,,,,3,,,42,0
308640,note_off,120,0,4,,,,,,,,,3,,,54,0
308640,note_on,0,0,4,,,,,,,,,3,,,44,92
308640,note_on,0,0,1,,,,,,,,,0,,,61,92
308640,note_off,0,0,1,,,,,,,,,0,,,58,0
308760,note_on,120,0,1,,,,,,,,,0,,,56,92
308760,note_on,120,0,4,,,,,,,,,3,,,53,92
308880,note_off,0,0,1,,,,,,,,,0,,,61,0
308880,note_on,0,0,1,,,,,,,,,0,,,54,92
308880,note_on,0,0,4,,,,,,,,,3,,,44,92
308880,note_off,0,0,4,,,,,,,,,3,,,44,0
308880,note_off,120,0,4,,,,,,,,,3,,,53,0
308880,note_off,120,0,1,,,,,,,,,0,,,56,0
309000,note_on,120,0,1,,,,,,,,,0,,,60,92
309000,set_tempo,3720,1,0,,,,,,550458,,,,,,,
309000,note_on,120,0,4,,,,,,,,,3,,,51,92
309120,note_off,120,0,1,,,,,,,,,0,,,60,0
309120,note_off,0,0,1,,,,,,,,,0,,,54,0
309120,note_on,0,0,1,,,,,,,,,0,,,53,95
309120,set_tempo,120,1,0,,,,,,540540,,,,,,,
309120,note_off,120,0,4,,,,,,,,,3,,,51,0
309120,note_on,0,0,4,,,,,,,,,3,,,44,95
309120,note_off,0,0,4,,,,,,,,,3,,,44,0
309240,note_on,120,0,1,,,,,,,,,0,,,60,95
309240,note_on,120,0,4,,,,,,,,,3,,,50,95
309360,note_on,0,0,1,,,,,,,,,0,,,53,95
309360,note_off,0,0,4,,,,,,,,,3,,,44,0
309360,note_off,0,0,1,,,,,,,,,0,,,53,0
309360,note_off,120,0,1,,,,,,,,,0,,,60,0
309360,note_off,120,0,4,,,,,,,,,3,,,50,0
309360,note_on,0,0,4,,,,,,,,,3,,,44,95
309480,note_on,120,0,4,,,,,,,,,3,,,50,95
309480,note_on,120,0,1,,,,,,,,,0,,,59,95
309600,note_on,0,0,1,,,,,,,,,0,,,53,94
309600,note_off,0,0,1,,,,,,,,,0,,,53,0
309600,note_off,120,0,1,,,,,,,,,0,,,59,0
309600,note_on,0,0,4,,,,,,,,,3,,,44,94
309600,note_off,0,0,4,,,,,,,,,3,,,44,0
309600,note_off,120,0,4,,,,,,,,,3,,,50,0
309720,note_on,120,0,1,,,,,,,,,0,,,59,94
309720,note_on,120,0,4,,,,,,,,,3,,,50,94
309840,note_off,120,0,1,,,,,,,,,0,,,59,0
309840,note_on,0,0,4,,,,,,,,,3,,,44,94
309840,note_off,0,0,4,,,,,,,,,3,,,44,0
309840,note_off,0,0,1,,,,,,,,,0,,,53,0
309840,note_on,0,0,1,,,,,,,,,0,,,53,94
309840,note_off,120,0,4,,,,,,,,,3,,,50,0
309960,note_on,120,0,1,,,,,,,,,0,,,59,93
309960,note_on,120,0,4,,,,,,,,,3,,,50,93
310080,note_off,120,0,4,,,,,,,,,3,,,50,0
310080,note_on,0,0,4,,,,,,,,,3,,,43,71
310080,note_off,0,0,4,,,,,,,,,3,,,44,0
310080,note_off,0,0,1,,,,,,,,,0,,,53,0
310080,note_on,0,0,1,,,,,,,,,0,,,53,71
310080,note_off,120,0,1,,,,,,,,,0,,,59,0
310200,note_on,120,0,4,,,,,,,,,3,,,50,70
310200,note_on,120,0,1,,,,,,,,,0,,,59,70
310320,note_off,0,0,4,,,,,,,,,3,,,43,0
310320,note_off,120,0,4,,,,,,,,,3,,,50,0
310320,note_on,0,0,4,,,,,,,,,3,,,43,69
310320,note_off,0,0,1,,,,,,,,,0,,,53,0
310320,note_on,0,0,1,,,,,,,,,0,,,53,69
310320,note_off,120,0,1,,,,,,,,,0,,,59,0
310440,note_on,120,0,1,,,,,,,,,0,,,59,68
310440,note_on,120,0,4,,,,,,,,,3,,,50,68
310560,note_off,0,0,1,,,,,,,,,0,,,53,0
310560,note_on,0,0,1,,,,,,,,,0,,,53,67
310560,note_off,120,0,1,,,,,,,,,0,,,59,0
310560,note_off,120,0,4,,,,,,,,,3,,,50,0
310560,note_off,0,0,4,,,,,,,,,3,,,43,0
310560,note_on,0,0,4,,,,,,,,,3,,,43,67
310680,note_on,120,0,4,,,,,,,,,3,,,50,66
310680,note_on,120,0,1,,,,,,,,,0,,,59,66
310800,note_off,0,0,1,,,,,,,,,0,,,53,0
310800,note_off,120,0,1,,,,,,,,,0,,,59,0
310800,note_on,0,0,1,,,,,,,,,0,,,53,65
310800,note_off,120,0,4,,,,,,,,,3,,,50,0
310800,note_off,0,0,4,,,,,,,,,3,,,43,0
310800,note_on,0,0,4,,,,,,,,,3,,,43,65
310920,note_on,120,0,1,,,,,,,,,0,,,59,64
310920,note_on,120,0,4,,,,,,,,,3,,,50,64
311040,note_off,120,0,4,,,,,,,,,3,,,50,0
311040,note_off,0,0,4,,,,,,,,,3,,,43,0
311040,note_on,0,0,4,,,,,,,,,3,,,43,91
311040,note_on,0,0,1,,,,,,,,,0,,,53,91
311040,note_off,0,0,1,,,,,,,,,0,,,53,0
311040,note_off,120,0,1,,,,,,,,,0,,,59,0
311160,note_on,120,0,4,,,,,,,,,3,,,49,90
311160,note_on,120,0,1,,,,,,,,,0,,,58,90
311280,note_off,120,0,1,,,,,,,,,0,,,58,0
311280,note_off,0,0,1,,,,,,,,,0,,,53,0
311280,note_on,0,0,1,,,,,,,,,0,,,52,90
311280,note_off,120,0,4,,,,,,,,,3,,,49,0
311280,note_off,0,0,4,,,,,,,,,3,,,43,0
311280,note_on,0,0,4,,,,,,,,,3,,,43,90
311400,note_on,120,0,1,,,,,,,,,0,,,58,90
311400,note_on,120,0,4,,,,,,,,,3,,,48,90
311520,note_off,120,0,4,,,,,,,,,3,,,48,0
311520,note_on,0,0,1,,,,,,,,,0,,,52,90
311520,note_off,0,0,1,,,,,,,,,0,,,52,0
311520,note_off,120,0,1,,,,,,,,,0,,,58,0
311520,note_on,0,0,4,,,,,,,,,3,,,43,90
311520,note_off,0,0,4,,,,,,,,,3,,,43,0
311640,note_on,120,0,1,,,,,,,,,0,,,58,89
311640,note_on,120,0,4,,,,,,,,,3,,,48,89
311760,note_off,120,0,4,,,,,,,,,3,,,48,0
311760,note_on,0,0,4,,,,,,,,,3,,,43,89
311760,note_off,0,0,4,,,,,,,,,3,,,43,0
311760,note_on,0,0,1,,,,,,,,,0,,,52,89
311760,note_off,0,0,1,,,,,,,,,0,,,52,0
311760,note_off,120,0,1,,,,,,,,,0,,,58,0
311880,note_on,120,0,1,,,,,,,,,0,,,58,89
311880,note_on,120,0,4,,,,,,,,,3,,,48,89
312000,note_off,120,0,1,,,,,,,,,0,,,58,0
312000,note_off,0,0,1,,,,,,,,,0,,,52,0
312000,note_on,0,0,1,,,,,,,,,0,,,51,69
312000,note_off,120,0,4,,,,,,,,,3,,,48,0
312000,note_off,0,0,4,,,,,,,,,3,,,43,0
312000,note_on,0,0,4,,,,,,,,,3,,,42,69
312120,note_on,120,0,1,,,,,,,,,0,,,58,69
312120,note_on,120,0,4,,,,,,,,,3,,,48,69
312240,note_off,0,0,4,,,,,,,,,3,,,42,0
312240,note_on,0,0,1,,,,,,,,,0,,,51,69
312240,note_off,0,0,1,,,,,,,,,0,,,51,0
312240,note_off,120,0,1,,,,,,,,,0,,,58,0
312240,note_off,120,0,4,,,,,,,,,3,,,48,0
312240,note_on,0,0,4,,,,,,,,,3,,,42,69
312360,note_on,120,0,4,,,,,,,,,3,,,48,68
312360,note_on,120,0,1,,,,,,,,,0,,,58,68
312480,note_off,0,0,4,,,,,,,,,3,,,42,0
312480,note_off,120,0,1,,,,,,,,,0,,,58,0
312480,note_off,0,0,1,,,,,,,,,0,,,51,0
312480,note_on,0,0,1,,,,,,,,,0,,,51,68
312480,note_on,0,0,4,,,,,,,,,3,,,42,68
312480,note_off,120,0,4,,,,,,,,,3,,,48,0
312600,note_on,120,0,1,,,,,,,,,0,,,58,68
312600,note_on,120,0,4,,,,,,,,,3,,,48,68
312720,note_off,0,0,1,,,,,,,,,0,,,51,0
312720,note_on,0,0,4,,,,,,,,,3,,,42,67
312720,note_off,0,0,4,,,,,,,,,3,,,42,0
312720,note_on,0,0,1,,,,,,,,,0,,,51,67
312720,note_off,120,0,4,,,,,,,,,3,,,48,0
312720,note_off,120,0,1,,,,,,,,,0,,,58,0
312840,note_on,120,0,1,,,,,,,,,0,,,58,67
312840,note_on,120,0,4,,,,,,,,,3,,,48,67
312960,note_off,120,0,1,,,,,,,,,0,,,58,0
312960,note_off,0,0,4,,,,,,,,,3,,,42,0
312960,note_on,0,0,4,,,,,,,,,3,,,42,67
312960,note_off,0,0,1,,,,,,,,,0,,,51,0
312960,note_off,120,0,4,,,,,,,,,3,,,48,0
312960,note_on,0,0,1,,,,,,,,,0,,,51,67
313080,note_on,120,0,1,,,,,,,,,0,,,58,66
313080,note_on,120,0,4,,,,,,,,,3,,,48,66
313200,note_off,0,0,4,,,,,,,,,3,,,42,0
313200,note_off,120,0,4,,,,,,,,,3,,,48,0
313200,note_on,0,0,1,,,,,,,,,0,,,51,66
313200,note_off,0,0,1,,,,,,,,,0,,,51,0
313200,note_off,120,0,1,,,,,,,,,0,,,58,0
313200,note_on,0,0,4,,,,,,,,,3,,,41,66
313320,note_on,120,0,4,,,,,,,,,3,,,48,66
313320,note_on,120,0,1,,,,,,,,,0,,,57,66
313440,note_off,120,0,4,,,,,,,,,3,,,48,0
313440,note_off,0,0,4,,,,,,,,,3,,,41,0
313440,note_on,0,0,1,,,,,,,,,0,,,56,78
313440,note_off,120,0,1,,,,,,,,,0,,,57,0
313440,note_on,0,0,4,,,,,,,,,3,,,47,80
313440,note_off,0,0,1,,,,,,,,,0,,,51,0
313560,note_on,0,0,1,,,,,,,,,0,,,53,65
313560,note_on,120,0,1,,,,,,,,,0,,,63,65
313560,note_on,120,0,4,,,,,,,,,3,,,53,65
313680,note_off,0,0,1,,,,,,,,,0,,,63,0
313680,note_off,120,0,1,,,,,,,,,0,,,53,0
313680,note_off,0,0,1,,,,,,,,,0,,,56,0
313680,note_on,0,0,1,,,,,,,,,0,,,56,65
313680,note_off,0,0,4,,,,,,,,,3,,,47,0
313680,note_on,0,0,4,,,,,,,,,3,,,47,65
313680,note_off,120,0,4,,,,,,,,,3,,,53,0
313800,note_on,0,0,1,,,,,,,,,0,,,53,65
313800,note_on,120,0,1,,,,,,,,,0,,,63,65
313800,note_on,120,0,4,,,,,,,,,3,,,53,65
313920,note_on,0,0,4,,,,,,,,,3,,,47,64
313920,note_off,0,0,4,,,,,,,,,3,,,47,0
313920,note_on,0,0,1,,,,,,,,,0,,,56,64
313920,note_off,0,0,1,,,,,,,,,0,,,63,0
313920,note_off,120,0,1,,,,,,,,,0,,,53,0
313920,note_off,120,0,4,,,,,,,,,3,,,53,0
313920,note_off,0,0,1,,,,,,,,,0,,,56,0
314040,note_on,120,0,1,,,,,,,,,0,,,63,64
314040,note_on,0,0,1,,,,,,,,,0,,,53,64
314040,note_on,120,0,4,,,,,,,,,3,,,53,64
314160,note_on,0,0,1,,,,,,,,,0,,,56,64
314160,note_off,0,0,1,,,,,,,,,0,,,63,0
314160,note_off,120,0,1,,,,,,,,,0,,,53,0
314160,note_off,120,0,4,,,,,,,,,3,,,53,0
314160,note_off,0,0,4,,,,,,,,,3,,,47,0
314160,note_on,0,0,4,,,,,,,,,3,,,46,64
314160,note_off,0,0,1,,,,,,,,,0,,,56,0
314280,note_on,120,0,4,,,,,,,,,3,,,53,63
314280,note_on,0,0,1,,,,,,,,,0,,,53,63
314280,note_on,120,0,1,,,,,,,,,0,,,62,63
314400,note_off,120,0,4,,,,,,,,,3,,,53,0
314400,note_on,0,0,1,,,,,,,,,0,,,49,74
314400,note_off,0,0,1,,,,,,,,,0,,,56,0
314400,note_off,120,0,1,,,,,,,,,0,,,53,0
314400,note_off,0,0,4,,,,,,,,,3,,,46,0
314400,note_off,0,0,1,,,,,,,,,0,,,62,0
314400,note_on,0,0,4,,,,,,,,,3,,,40,78
314520,note_on,120,0,4,,,,,,,,,3,,,46,63
314520,note_on,120,0,1,,,,,,,,,0,,,56,63
314640,note_on,0,0,1,,,,,,,,,0,,,49,62
314640,note_off,120,0,4,,,,,,,,,3,,,46,0
314640,note_off,120,0,1,,,,,,,,,0,,,56,0
314640,note_off,0,0,4,,,,,,,,,3,,,40,0
314640,note_on,0,0,4,,,,,,,,,3,,,40,62
314640,note_off,0,0,1,,,,,,,,,0,,,49,0
314760,note_on,120,0,4,,,,,,,,,3,,,46,62
314760,note_on,120,0,1,,,,,,,,,0,,,56,62
314880,note_on,0,0,4,,,,,,,,,3,,,40,62
314880,note_off,120,0,4,,,,,,,,,3,,,46,0
314880,note_off,120,0,1,,,,,,,,,0,,,56,0
314880,note_off,0,0,1,,,,,,,,,0,,,49,0
314880,note_on,0,0,1,,,,,,,,,0,,,49,62
314880,note_off,0,0,4,,,,,,,,,3,,,40,0
315000,note_on,120,0,4,,,,,,,,,3,,,46,61
315000,note_on,120,0,1,,,,,,,,,0,,,56,61
315120,note_off,0,0,1,,,,,,,,,0,,,49,0
315120,note_on,0,0,1,,,,,,,,,0,,,49,61
315120,note_off,120,0,1,,,,,,,,,0,,,56,0
315120,note_off,120,0,4,,,,,,,,,3,,,46,0
315120,note_off,0,0,4,,,,,,,,,3,,,40,0
315120,note_on,0,0,4,,,,,,,,,3,,,39,61
315240,note_on,120,0,1,,,,,,,,,0,,,55,61
315240,note_on,120,0,4,,,,,,,,,3,,,46,61
315360,note_on,0,0,4,,,,,,,,,3,,,45,78
315360,note_on,0,0,1,,,,,,,,,0,,,54,74
315360,note_off,0,0,1,,,,,,,,,0,,,49,0
315360,note_off,120,0,1,,,,,,,,,0,,,55,0
315360,note_off,0,0,4,,,,,,,,,3,,,39,0
315360,note_off,120,0,4,,,,,,,,,3,,,46,0
315480,note_on,120,0,1,,,,,,,,,0,,,61,60
315480,note_on,0,0,1,,,,,,,,,0,,,51,60
315480,note_on,120,0,4,,,,,,,,,3,,,51,60
315600,note_off,120,0,4,,,,,,,,,3,,,51,0
315600,note_off,0,0,4,,,,,,,,,3,,,45,0
315600,note_on,0,0,4,,,,,,,,,3,,,45,60
315600,note_off,0,0,1,,,,,,,,,0,,,54,0
315600,note_on,0,0,1,,,,,,,,,0,,,54,60
315600,note_off,0,0,1,,,,,,,,,0,,,61,0
315600,note_off,120,0,1,,,,,,,,,0,,,51,0
315720,note_on,120,0,1,,,,,,,,,0,,,61,60
315720,note_on,0,0,1,,,,,,,,,0,,,51,60
315720,note_on,120,0,4,,,,,,,,,3,,,51,60
315840,note_off,120,0,4,,,,,,,,,3,,,51,0
315840,note_off,0,0,4,,,,,,,,,3,,,45,0
315840,note_on,0,0,4,,,,,,,,,3,,,45,59
315840,note_off,120,0,1,,,,,,,,,0,,,51,0
315840,note_off,0,0,1,,,,,,,,,0,,,54,0
315840,note_on,0,0,1,,,,,,,,,0,,,54,59
315840,note_off,0,0,1,,,,,,,,,0,,,61,0
315960,note_on,120,0,4,,,,,,,,,3,,,51,59
315960,note_on,120,0,1,,,,,,,,,0,,,61,59
315960,note_on,0,0,1,,,,,,,,,0,,,51,59
316080,note_off,0,0,4,,,,,,,,,3,,,45,0
316080,note_off,120,0,4,,,,,,,,,3,,,51,0
316080,note_on,0,0,4,,,,,,,,,3,,,44,59
316080,note_off,0,0,1,,,,,,,,,0,,,61,0
316080,note_off,120,0,1,,,,,,,,,0,,,51,0
316080,note_on,0,0,1,,,,,,,,,0,,,54,59
316080,note_off,0,0,1,,,,,,,,,0,,,54,0
316200,note_on,120,0,4,,,,,,,,,3,,,51,58
316200,note_on,0,0,1,,,,,,,,,0,,,51,58
316200,note_on,120,0,1,,,,,,,,,0,,,60,58
316320,note_on,0,0,4,,,,,,,,,3,,,32,76
316320,note_off,0,0,4,,,,,,,,,3,,,44,0
316320,note_off,0,0,1,,,,,,,,,0,,,54,0
316320,note_off,120,0,4,,,,,,,,,3,,,51,0
316320,note_off,0,0,1,,,,,,,,,0,,,60,0
316320,note_off,120,0,1,,,,,,,,,0,,,51,0
316320,note_on,0,0,1,,,,,,,,,0,,,48,72
316440,note_on,120,0,4,,,,,,,,,3,,,44,58
316440,note_on,120,0,1,,,,,,,,,0,,,54,58
316560,note_on,0,0,1,,,,,,,,,0,,,48,57
316560,note_off,0,0,1,,,,,,,,,0,,,48,0
316560,note_off,120,0,1,,,,,,,,,0,,,54,0
316560,note_off,120,0,4,,,,,,,,,3,,,44,0
316560,note_off,0,0,4,,,,,,,,,3,,,32,0
316560,note_on,0,0,4,,,,,,,,,3,,,32,57
316680,note_on,120,0,4,,,,,,,,,3,,,44,57
316680,note_on,120,0,1,,,,,,,,,0,,,54,57
316800,note_off,120,0,4,,,,,,,,,3,,,44,0
316800,note_off,120,0,1,,,,,,,,,0,,,54,0
316800,note_off,0,0,1,,,,,,,,,0,,,48,0
316800,note_on,0,0,1,,,,,,,,,0,,,48,57
316800,note_on,0,0,4,,,,,,,,,3,,,32,57
316800,note_off,0,0,4,,,,,,,,,3,,,32,0
316920,note_on,120,0,1,,,,,,,,,0,,,56,56
316920,note_on,120,0,4,,,,,,,,,3,,,44,56
317040,note_on,0,0,1,,,,,,,,,0,,,49,56
317040,note_off,120,0,1,,,,,,,,,0,,,56,0
317040,note_off,0,0,4,,,,,,,,,3,,,32,0
317040,note_on,0,0,4,,,,,,,,,3,,,33,56
317040,note_off,120,0,4,,,,,,,,,3,,,44,0
317040,note_off,0,0,1,,,,,,,,,0,,,48,0
317160,note_on,120,0,1,,,,,,,,,0,,,52,56
317160,note_on,120,0,4,,,,,,,,,3,,,45,56
317280,note_off,120,0,1,,,,,,,,,0,,,52,0
317280,note_off,120,0,4,,,,,,,,,3,,,45,0
317280,note_off,0,0,4,,,,,,,,,3,,,33,0
317280,note_on,0,0,4,,,,,,,,,3,,,31,81
317280,note_off,0,0,1,,,,,,,,,0,,,49,0
317280,note_on,0,0,1,,,,,,,,,0,,,52,81
317400,note_on,120,0,4,,,,,,,,,3,,,43,81
317400,note_on,120,0,1,,,,,,,,,0,,,61,81
317520,note_on,0,0,1,,,,,,,,,0,,,52,80
317520,note_off,0,0,1,,,,,,,,,0,,,52,0
317520,note_off,120,0,1,,,,,,,,,0,,,61,0
317520,note_off,0,0,4,,,,,,,,,3,,,31,0
317520,note_on,0,0,4,,,,,,,,,3,,,31,80
317520,note_off,120,0,4,,,,,,,,,3,,,43,0
317640,note_on,120,0,4,,,,,,,,,3,,,43,79
317640,note_on,120,0,1,,,,,,,,,0,,,61,79
317760,note_off,120,0,4,,,,,,,,,3,,,43,0
317760,note_on,0,0,4,,,,,,,,,3,,,31,79
317760,note_off,0,0,1,,,,,,,,,0,,,52,0
317760,note_off,120,0,1,,,,,,,,,0,,,61,0
317760,note_off,0,0,4,,,,,,,,,3,,,31,0
317760,note_on,0,0,1,,,,,,,,,0,,,52,79
317880,note_on,120,0,1,,,,,,,,,0,,,61,78
317880,note_on,120,0,4,,,,,,,,,3,,,43,78
318000,note_on,0,0,1,,,,,,,,,0,,,52,78
318000,note_off,0,0,1,,,,,,,,,0,,,52,0
318000,note_off,120,0,1,,,,,,,,,0,,,61,0
318000,note_off,0,0,4,,,,,,,,,3,,,31,0
318000,note_off,120,0,4,,,,,,,,,3,,,43,0
318000,note_on,0,0,4,,,,,,,,,3,,,31,78
318120,note_on,120,0,1,,,,,,,,,0,,,61,77
318120,note_on,120,0,4,,,,,,,,,3,,,43,77
318240,note_on,0,0,4,,,,,,,,,3,,,33,76
318240,note_off,0,0,4,,,,,,,,,3,,,31,0
318240,note_off,120,0,4,,,,,,,,,3,,,43,0
318240,note_on,0,0,1,,,,,,,,,0,,,49,76
318240,note_off,120,0,1,,,,,,,,,0,,,61,0
318240,note_off,0,0,1,,,,,,,,,0,,,52,0
318360,note_on,120,0,4,,,,,,,,,3,,,45,76
318360,note_on,120,0,1,,,,,,,,,0,,,55,76
318480,note_on,0,0,4,,,,,,,,,3,,,33,75
318480,note_off,0,0,1,,,,,,,,,0,,,49,0
318480,set_tempo,9360,1,0,,,,,,550458,,,,,,,
318480,note_off,120,0,1,,,,,,,,,0,,,55,0
318480,note_off,120,0,4,,,,,,,,,3,,,45,0
318480,note_off,0,0,4,,,,,,,,,3,,,33,0
318480,note_on,0,0,1,,,,,,,,,0,,,49,75
318600,note_on,120,0,1,,,,,,,,,0,,,55,74
318600,set_tempo,120,1,0,,,,,,571428,,,,,,,
318600,note_on,120,0,4,,,,,,,,,3,,,45,74
318720,note_on,0,0,1,,,,,,,,,0,,,56,74
318720,note_off,120,0,1,,,,,,,,,0,,,55,0
318720,note_on,0,0,4,,,,,,,,,3,,,44,49
318720,note_on,0,0,4,,,,,,,,,3,,,32,74
318720,note_off,0,0,4,,,,,,,,,3,,,33,0
318720,note_off,120,0,4,,,,,,,,,3,,,45,0
318720,set_tempo,120,1,0,,,,,,540540,,,,,,,
318720,note_off,0,0,1,,,,,,,,,0,,,49,0
318840,note_on,120,0,1,,,,,,,,,0,,,60,36
318960,note_off,120,0,1,,,,,,,,,0,,,60,0
318960,note_on,0,0,1,,,,,,,,,0,,,63,36
319080,note_on,0,0,1,,,,,,,,,0,,,68,36
319080,note_off,120,0,1,,,,,,,,,0,,,63,0
319200,note_off,120,0,1,,,,,,,,,0,,,68,0
319200,note_on,0,0,1,,,,,,,,,0,,,61,36
319200,note_on,480,0,4,,,,,,,,,3,,,57,36
319200,note_off,0,0,1,,,,,,,,,0,,,56,0
319320,note_on,120,0,1,,,,,,,,,0,,,67,36
319440,note_off,0,0,1,,,,,,,,,0,,,61,0
319440,note_off,120,0,1,,,,,,,,,0,,,67,0
319440,note_off,240,0,4,,,,,,,,,3,,,57,0
319440,note_on,0,0,4,,,,,,,,,3,,,56,36
319440,note_on,0,0,1,,,,,,,,,0,,,60,36
319560,note_on,120,0,1,,,,,,,,,0,,,68,36
319680,note_off,120,0,1,,,,,,,,,0,,,68,0
319680,note_off,240,0,4,,,,,,,,,3,,,56,0
319680,note_on,0,0,4,,,,,,,,,3,,,44,50
319680,note_on,0,0,1,,,,,,,,,0,,,56,36
319680,note_off,0,0,1,,,,,,,,,0,,,60,0
319680,note_off,0,0,4,,,,,,,,,3,,,44,0
319800,note_on,120,0,1,,,,,,,,,0,,,60,37
319920,note_off,120,0,1,,,,,,,,,0,,,60,0
319920,note_on,0,0,1,,,,,,,,,0,,,63,37
320040,note_off,120,0,1,,,,,,,,,0,,,63,0
320040,note_on,0,0,1,,,,,,,,,0,,,68,37
320160,note_on,480,0,4,,,,,,,,,3,,,57,37
320160,note_on,0,0,1,,,,,,,,,0,,,61,37
320160,note_off,120,0,1,,,,,,,,,0,,,68,0
320160,note_off,0,0,1,,,,,,,,,0,,,56,0
320280,note_on,120,0,1,,,,,,,,,0,,,67,37
320400,note_on,0,0,4,,,,,,,,,3,,,56,37
320400,note_off,240,0,4,,,,,,,,,3,,,57,0
320400,note_off,120,0,1,,,,,,,,,0,,,67,0
320400,note_on,0,0,1,,,,,,,,,0,,,60,37
320400,note_off,0,0,1,,,,,,,,,0,,,61,0
320520,note_on,120,0,1,,,,,,,,,0,,,68,37
320640,note_on,0,0,1,,,,,,,,,0,,,56,37
320640,note_off,120,0,1,,,,,,,,,0,,,68,0
320640,note_on,0,0,4,,,,,,,,,3,,,44,51
320640,note_off,240,0,4,,,,,,,,,3,,,56,0
320640,note_off,0,0,1,,,,,,,,,0,,,60,0
320640,note_off,0,0,4,,,,,,,,,3,,,44,0
320760,note_on,120,0,1,,,,,,,,,0,,,60,38
320880,note_off,120,0,1,,,,,,,,,0,,,60,0
320880,note_on,0,0,1,,,,,,,,,0,,,63,38
321000,note_off,120,0,1,,,,,,,,,0,,,63,0
321000,note_on,0,0,1,,,,,,,,,0,,,68,38
321120,note_on,0,0,1,,,,,,,,,0,,,61,38
321120,note_off,120,0,1,,,,,,,,,0,,,68,0
321120,note_on,480,0,4,,,,,,,,,3,,,57,38
321127,note_off,7,0,1,,,,,,,,,0,,,56,0
321240,note_on,113,0,1,,,,,,,,,0,,,67,38
321360,note_on,0,0,4,,,,,,,,,3,,,56,38
321360,note_off,240,0,4,,,,,,,,,3,,,57,0
321360,note_off,120,0,1,,,,,,,,,0,,,67,0
321360,note_off,0,0,1,,,,,,,,,0,,,61,0
321360,note_on,0,0,1,,,,,,,,,0,,,60,38
321480,note_on,120,0,1,,,,,,,,,0,,,68,38
321600,note_on,0,0,1,,,,,,,,,0,,,60,38
321600,note_off,0,0,1,,,,,,,,,0,,,60,0
321600,note_off,120,0,1,,,,,,,,,0,,,68,0
321600,note_off,240,0,4,,,,,,,,,3,,,56,0
321600,note_off,0,0,4,,,,,,,,,3,,,44,0
321600,note_on,0,0,4,,,,,,,,,3,,,57,39
321720,note_on,120,0,1,,,,,,,,,0,,,67,39
321840,note_on,0,0,1,,,,,,,,,0,,,60,39
321840,note_off,0,0,1,,,,,,,,,0,,,60,0
321840,note_off,240,0,4,,,,,,,,,3,,,57,0
321840,note_on,0,0,4,,,,,,,,,3,,,56,39
321840,note_off,120,0,1,,,,,,,,,0,,,67,0
321960,note_on,120,0,1,,,,,,,,,0,,,68,39
322080,note_on,0,0,4,,,,,,,,,3,,,60,39
322080,note_off,240,0,4,,,,,,,,,3,,,56,0
322080,note_on,0,0,1,,,,,,,,,0,,,62,39
322080,note_off,0,0,1,,,,,,,,,0,,,60,0
322080,note_off,120,0,1,,,,,,,,,0,,,68,0
322200,note_on,120,0,1,,,,,,,,,0,,,68,39
322320,note_on,0,0,4,,,,,,,,,3,,,63,40
322320,note_off,0,0,1,,,,,,,,,0,,,62,0
322320,note_off,120,0,1,,,,,,,,,0,,,68,0
322320,note_on,0,0,1,,,,,,,,,0,,,66,39
322320,note_off,240,0,4,,,,,,,,,3,,,60,0
322440,note_on,120,0,1,,,,,,,,,0,,,68,39
322440,set_tempo,3720,1,0,,,,,,550458,,,,,,,
322560,note_on,0,0,4,,,,,,,,,3,,,49,43
322560,note_off,240,0,4,,,,,,,,,3,,,63,0
322560,set_tempo,120,1,0,,,,,,540540,,,,,,,
322560,note_off,120,0,1,,,,,,,,,0,,,68,0
322560,note_off,0,0,1,,,,,,,,,0,,,66,0
322560,note_on,0,0,1,,,,,,,,,0,,,61,40
322567,note_off,7,0,4,,,,,,,,,3,,,32,0
322680,note_on,120,0,1,,,,,,,,,0,,,65,40
322800,note_off,120,0,1,,,,,,,,,0,,,65,0
322800,note_on,0,0,1,,,,,,,,,0,,,68,40
322920,note_off,120,0,1,,,,,,,,,0,,,68,0
322920,note_on,0,0,1,,,,,,,,,0,,,73,40
323040,note_on,473,0,4,,,,,,,,,3,,,63,41
323040,note_off,120,0,1,,,,,,,,,0,,,73,0
323040,note_on,0,0,1,,,,,,,,,0,,,66,40
323047,note_off,7,0,1,,,,,,,,,0,,,61,0
323160,note_on,113,0,1,,,,,,,,,0,,,72,40
323280,note_off,0,0,1,,,,,,,,,0,,,66,0
323280,note_on,0,0,1,,,,,,,,,0,,,65,40
323280,note_off,240,0,4,,,,,,,,,3,,,63,0
323280,note_off,120,0,1,,,,,,,,,0,,,72,0
323280,note_on,0,0,4,,,,,,,,,3,,,61,41
323400,note_on,120,0,1,,,,,,,,,0,,,73,40
323512,note_off,232,0,4,,,,,,,,,3,,,49,0
323520,note_on,0,0,1,,,,,,,,,0,,,61,41
323520,note_off,0,0,1,,,,,,,,,0,,,65,0
323520,note_on,0,0,4,,,,,,,,,3,,,49,44
323520,note_off,8,0,4,,,,,,,,,3,,,61,0
323520,note_off,120,0,1,,,,,,,,,0,,,73,0
323640,note_on,120,0,1,,,,,,,,,0,,,65,41
323760,note_off,120,0,1,,,,,,,,,0,,,65,0
323760,note_on,0,0,1,,,,,,,,,0,,,68,41
323880,note_off,120,0,1,,,,,,,,,0,,,68,0
323880,note_on,0,0,1,,,,,,,,,0,,,73,41
324000,note_on,480,0,4,,,,,,,,,3,,,63,42
324000,note_off,120,0,1,,,,,,,,,0,,,73,0
324000,note_on,0,0,1,,,,,,,,,0,,,66,41
324000,note_off,0,0,1,,,,,,,,,0,,,61,0
324120,note_on,120,0,1,,,,,,,,,0,,,72,41
324240,note_off,240,0,4,,,,,,,,,3,,,63,0
324240,note_on,0,0,4,,,,,,,,,3,,,61,42
324240,note_on,0,0,1,,,,,,,,,0,,,65,41
324240,note_off,120,0,1,,,,,,,,,0,,,72,0
324240,note_off,0,0,1,,,,,,,,,0,,,66,0
324360,note_on,120,0,1,,,,,,,,,0,,,73,41
324480,note_off,120,0,1,,,,,,,,,0,,,73,0
324480,note_off,0,0,1,,,,,,,,,0,,,65,0
324480,note_on,0,0,1,,,,,,,,,0,,,61,42
324480,note_off,240,0,4,,,,,,,,,3,,,61,0
324480,note_off,0,0,4,,,,,,,,,3,,,49,0
324480,note_on,0,0,4,,,,,,,,,3,,,49,45
324600,note_on,120,0,1,,,,,,,,,0,,,65,42
324720,note_off,120,0,1,,,,,,,,,0,,,65,0
324720,note_on,0,0,1,,,,,,,,,0,,,68,42
324840,note_off,120,0,1,,,,,,,,,0,,,68,0
324840,note_on,0,0,1,,,,,,,,,0,,,73,42
324960,note_on,480,0,4,,,,,,,,,3,,,63,43
324960,note_off,120,0,1,,,,,,,,,0,,,73,0
324960,note_off,0,0,1,,,,,,,,,0,,,61,0
324960,note_on,0,0,1,,,,,,,,,0,,,66,42
325080,note_on,120,0,1,,,,,,,,,0,,,72,42
325200,note_off,120,0,1,,,,,,,,,0,,,72,0
325200,note_on,0,0,4,,,,,,,,,3,,,61,43
325200,note_off,0,0,1,,,,,,,,,0,,,66,0
325200,note_on,0,0,1,,,,,,,,,0,,,65,42
325200,note_off,240,0,4,,,,,,,,,3,,,63,0
325320,note_on,120,0,1,,,,,,,,,0,,,73,43
325440,note_off,120,0,1,,,,,,,,,0,,,73,0
325440,note_off,0,0,1,,,,,,,,,0,,,65,0
325440,note_on,0,0,1,,,,,,,,,0,,,66,43
325440,note_on,0,0,4,,,,,,,,,3,,,63,43
325440,note_off,240,0,4,,,,,,,,,3,,,61,0
325560,note_on,120,0,1,,,,,,,,,0,,,72,43
325680,note_off,0,0,1,,,,,,,,,0,,,66,0
325680,note_off,120,0,1,,,,,,,,,0,,,72,0
325680,note_off,240,0,4,,,,,,,,,3,,,63,0
325680,note_on,0,0,4,,,,,,,,,3,,,61,44
325680,note_on,0,0,1,,,,,,,,,0,,,65,43
325800,note_on,120,0,1,,,,,,,,,0,,,73,43
325920,note_on,0,0,4,,,,,,,,,3,,,60,44
325920,note_off,240,0,4,,,,,,,,,3,,,61,0
325920,note_off,120,0,1,,,,,,,,,0,,,73,0
325920,note_off,0,0,1,,,,,,,,,0,,,65,0
325920,note_on,0,0,1,,,,,,,,,0,,,63,43
326040,note_on,120,0,1,,,,,,,,,0,,,68,43
326160,note_off,120,0,1,,,,,,,,,0,,,68,0
326160,note_off,0,0,1,,,,,,,,,0,,,63,0
326160,note_off,240,0,4,,,,,,,,,3,,,60,0
326160,note_on,0,0,4,,,,,,,,,3,,,58,44
326160,note_on,0,0,1,,,,,,,,,0,,,61,43
326280,set_tempo,3720,1,0,,,,,,550458,,,,,,,
326280,note_on,120,0,1,,,,,,,,,0,,,67,44
326400,note_off,120,0,1,,,,,,,,,0,,,67,0
326400,note_off,0,0,1,,,,,,,,,0,,,61,0
326400,note_on,0,0,1,,,,,,,,,0,,,56,44
326400,note_on,0,0,4,,,,,,,,,3,,,44,48
326400,note_off,0,0,4,,,,,,,,,3,,,49,0
326400,note_off,240,0,4,,,,,,,,,3,,,58,0
326400,set_tempo,120,1,0,,,,,,540540,,,,,,,
326520,note_on,120,0,1,,,,,,,,,0,,,60,44
326640,note_off,120,0,1,,,,,,,,,0,,,60,0
326640,note_on,0,0,1,,,,,,,,,0,,,63,44
326760,note_off,120,0,1,,,,,,,,,0,,,63,0
326760,note_on,0,0,1,,,,,,,,,0,,,68,44
326880,note_on,0,0,1,,,,,,,,,0,,,61,44
326880,note_on,480,0,4,,,,,,,,,3,,,57,45
326880,note_off,120,0,1,,,,,,,,,0,,,68,0
326880,note_off,0,0,1,,,,,,,,,0,,,56,0
327000,note_on,120,0,1,,,,,,,,,0,,,67,44
327120,note_off,120,0,1,,,,,,,,,0,,,67,0
327120,note_on,0,0,4,,,,,,,,,3,,,56,46
327120,note_on,0,0,1,,,,,,,,,0,,,60,45
327120,note_off,240,0,4,,,,,,,,,3,,,57,0
327120,note_off,0,0,1,,,,,,,,,0,,,61,0
327240,note_on,120,0,1,,,,,,,,,0,,,68,45
327345,note_off,225,0,4,,,,,,,,,3,,,44,0
327360,note_on,0,0,1,,,,,,,,,0,,,56,45
327360,note_off,0,0,1,,,,,,,,,0,,,60,0
327360,note_off,120,0,1,,,,,,,,,0,,,68,0
327360,note_on,0,0,4,,,,,,,,,3,,,44,49
327360,note_off,15,0,4,,,,,,,,,3,,,56,0
327480,note_on,120,0,1,,,,,,,,,0,,,60,45
327600,note_on,0,0,1,,,,,,,,,0,,,63,45
327600,note_off,120,0,1,,,,,,,,,0,,,60,0
327720,note_on,0,0,1,,,,,,,,,0,,,68,45
327720,note_off,120,0,1,,,,,,,,,0,,,63,0
327840,note_on,480,0,4,,,,,,,,,3,,,57,46
327840,note_off,0,0,1,,,,,,,,,0,,,56,0
327840,note_off,120,0,1,,,,,,,,,0,,,68,0
327840,note_on,0,0,1,,,,,,,,,0,,,61,45
327960,note_on,120,0,1,,,,,,,,,0,,,67,45
328080,note_off,0,0,1,,,,,,,,,0,,,61,0
328080,note_off,120,0,1,,,,,,,,,0,,,67,0
328080,note_off,240,0,4,,,,,,,,,3,,,57,0
328080,note_on,0,0,4,,,,,,,,,3,,,56,47
328080,note_on,0,0,1,,,,,,,,,0,,,60,46
328200,note_on,120,0,1,,,,,,,,,0,,,68,46
328312,note_off,232,0,4,,,,,,,,,3,,,44,0
328320,note_off,8,0,4,,,,,,,,,3,,,56,0
328320,note_on,0,0,4,,,,,,,,,3,,,44,50
328320,note_off,0,0,1,,,,,,,,,0,,,60,0
328320,note_off,120,0,1,,,,,,,,,0,,,68,0
328320,note_on,0,0,1,,,,,,,,,0,,,56,46
328440,note_on,120,0,1,,,,,,,,,0,,,60,46
328560,note_on,0,0,1,,,,,,,,,0,,,63,46
328560,note_off,120,0,1,,,,,,,,,0,,,60,0
328680,note_on,0,0,1,,,,,,,,,0,,,68,46
328680,note_off,120,0,1,,,,,,,,,0,,,63,0
328792,note_off,112,0,1,,,,,,,,,0,,,56,0
328800,note_on,0,0,1,,,,,,,,,0,,,61,46
328800,note_off,8,0,1,,,,,,,,,0,,,68,0
328800,note_on,480,0,4,,,,,,,,,3,,,57,48
328920,note_on,120,0,1,,,,,,,,,0,,,67,46
329040,note_off,240,0,4,,,,,,,,,3,,,57,0
329040,note_on,0,0,4,,,,,,,,,3,,,56,48
329040,note_off,120,0,1,,,,,,,,,0,,,67,0
329040,note_off,0,0,1,,,,,,,,,0,,,61,0
329040,note_on,0,0,1,,,,,,,,,0,,,60,47
329160,note_on,120,0,1,,,,,,,,,0,,,68,47
329280,note_on,0,0,4,,,,,,,,,3,,,57,48
329280,note_off,120,0,1,,,,,,,,,0,,,68,0
329280,note_off,0,0,1,,,,,,,,,0,,,60,0
329280,note_on,0,0,1,,,,,,,,,0,,,61,47
329280,note_off,240,0,4,,,,,,,,,3,,,56,0
329400,note_on,120,0,1,,,,,,,,,0,,,67,47
329520,note_on,0,0,4,,,,,,,,,3,,,56,48
329520,note_off,240,0,4,,,,,,,,,3,,,57,0
329520,note_off,0,0,1,,,,,,,,,0,,,61,0
329520,note_on,0,0,1,,,,,,,,,0,,,60,47
329520,note_off,120,0,1,,,,,,,,,0,,,67,0
329640,note_on,120,0,1,,,,,,,,,0,,,68,47
329760,note_on,0,0,1,,,,,,,,,0,,,63,47
329760,note_off,0,0,1,,,,,,,,,0,,,60,0
329760,note_off,240,0,4,,,,,,,,,3,,,56,0
329760,note_on,0,0,4,,,,,,,,,3,,,60,49
329760,note_off,120,0,1,,,,,,,,,0,,,68,0
329880,note_on,120,0,1,,,,,,,,,0,,,68,48
330000,note_on,0,0,1,,,,,,,,,0,,,66,48
330000,note_off,0,0,1,,,,,,,,,0,,,63,0
330000,note_off,120,0,1,,,,,,,,,0,,,68,0
330000,note_off,240,0,4,,,,,,,,,3,,,60,0
330000,note_on,0,0,4,,,,,,,,,3,,,63,49
330120,note_on,120,0,1,,,,,,,,,0,,,68,48
330240,note_on,0,0,1,,,,,,,,,0,,,66,48
330240,note_off,0,0,4,,,,,,,,,3,,,44,0
330240,note_on,0,0,4,,,,,,,,,3,,,62,49
330240,note_off,120,0,1,,,,,,,,,0,,,68,0
330240,note_off,0,0,1,,,,,,,,,0,,,66,0
330240,note_off,240,0,4,,,,,,,,,3,,,63,0
330360,note_on,120,0,1,,,,,,,,,0,,,72,48
330480,note_off,0,0,1,,,,,,,,,0,,,66,0
330480,note_on,0,0,1,,,,,,,,,0,,,65,48
330480,note_off,120,0,1,,,,,,,,,0,,,72,0
330480,note_on,0,0,4,,,,,,,,,3,,,61,50
330480,note_off,240,0,4,,,,,,,,,3,,,62,0
330600,note_on,120,0,1,,,,,,,,,0,,,73,48
330720,note_on,0,0,4,,,,,,,,,3,,,62,50
330720,note_off,240,0,4,,,,,,,,,3,,,61,0
330720,note_off,120,0,1,,,,,,,,,0,,,73,0
330720,note_off,0,0,1,,,,,,,,,0,,,65,0
330720,note_on,0,0,1,,,,,,,,,0,,,66,48
330840,note_on,120,0,1,,,,,,,,,0,,,72,49
330960,note_on,0,0,1,,,,,,,,,0,,,65,49
330960,note_off,0,0,1,,,,,,,,,0,,,66,0
330960,note_off,240,0,4,,,,,,,,,3,,,62,0
330960,note_on,0,0,4,,,,,,,,,3,,,61,50
330960,note_off,120,0,1,,,,,,,,,0,,,72,0
331080,note_on,120,0,1,,,,,,,,,0,,,73,49
331200,note_off,240,0,4,,,,,,,,,3,,,61,0
331200,note_on,0,0,4,,,,,,,,,3,,,62,51
331200,note_off,120,0,1,,,,,,,,,0,,,73,0
331200,note_on,0,0,1,,,,,,,,,0,,,66,49
331200,note_off,0,0,1,,,,,,,,,0,,,65,0
331320,note_on,120,0,1,,,,,,,,,0,,,72,49
331440,note_off,120,0,1,,,,,,,,,0,,,72,0
331440,note_off,240,0,4,,,,,,,,,3,,,62,0
331440,note_on,0,0,4,,,,,,,,,3,,,61,51
331440,note_off,0,0,1,,,,,,,,,0,,,66,0
331440,note_on,0,0,1,,,,,,,,,0,,,65,49
331560,note_on,120,0,1,,,,,,,,,0,,,73,49
331680,note_off,120,0,1,,,,,,,,,0,,,73,0
331680,note_on,0,0,4,,,,,,,,,3,,,65,51
331680,note_on,0,0,1,,,,,,,,,0,,,68,49
331680,note_off,0,0,1,,,,,,,,,0,,,65,0
331680,note_off,240,0,4,,,,,,,,,3,,,61,0
331800,note_on,120,0,1,,,,,,,,,0,,,73,50
331920,note_off,240,0,4,,,,,,,,,3,,,65,0
331920,note_on,0,0,4,,,,,,,,,3,,,68,51
331920,note_on,0,0,1,,,,,,,,,0,,,71,50
331920,note_off,0,0,1,,,,,,,,,0,,,68,0
331920,note_off,120,0,1,,,,,,,,,0,,,73,0
332040,note_on,120,0,1,,,,,,,,,0,,,73,50
332040,set_tempo,5640,1,0,,,,,,550458,,,,,,,
332160,note_on,0,0,4,,,,,,,,,3,,,67,52
332160,note_off,240,0,4,,,,,,,,,3,,,68,0
332160,set_tempo,120,1,0,,,,,,540540,,,,,,,
332160,note_on,0,0,1,,,,,,,,,0,,,71,50
332160,note_off,120,0,1,,,,,,,,,0,,,73,0
332160,note_off,0,0,1,,,,,,,,,0,,,71,0
332280,note_on,120,0,1,,,,,,,,,0,,,76,50
332400,note_on,0,0,1,,,,,,,,,0,,,70,50
332400,note_on,0,0,4,,,,,,,,,3,,,66,52
332400,note_off,240,0,4,,,,,,,,,3,,,67,0
332400,note_off,0,0,1,,,,,,,,,0,,,71,0
332400,note_off,120,0,1,,,,,,,,,0,,,76,0
332520,note_on,120,0,1,,,,,,,,,0,,,76,50
332640,note_on,0,0,1,,,,,,,,,0,,,73,51
332640,note_off,0,0,1,,,,,,,,,0,,,70,0
332640,note_off,120,0,1,,,,,,,,,0,,,76,0
332640,note_off,240,0,4,,,,,,,,,3,,,66,0
332640,note_on,0,0,4,,,,,,,,,3,,,70,52
332760,note_on,120,0,1,,,,,,,,,0,,,76,51
332796,note_off,156,0,4,,,,,,,,,3,,,70,0
332880,note_on,84,0,4,,,,,,,,,3,,,58,53
332880,note_off,0,0,1,,,,,,,,,0,,,73,0
332880,note_on,0,0,1,,,,,,,,,0,,,66,51
332880,note_off,120,0,1,,,,,,,,,0,,,76,0
333000,note_on,120,0,1,,,,,,,,,0,,,76,51
333036,note_off,156,0,4,,,,,,,,,3,,,58,0
333120,note_on,0,0,1,,,,,,,,,0,,,76,51
333120,note_off,0,0,1,,,,,,,,,0,,,66,0
333120,note_off,120,0,1,,,,,,,,,0,,,76,0
333120,note_on,84,0,4,,,,,,,,,3,,,72,53
333240,note_on,120,0,1,,,,,,,,,0,,,81,51
333360,note_off,240,0,4,,,,,,,,,3,,,72,0
333360,note_on,0,0,4,,,,,,,,,3,,,71,53
333360,note_on,0,0,1,,,,,,,,,0,,,75,51
333360,note_off,120,0,1,,,,,,,,,0,,,81,0
333360,note_off,0,0,1,,,,,,,,,0,,,76,0
333480,note_on,120,0,1,,,,,,,,,0,,,81,51
333600,note_on,0,0,1,,,,,,,,,0,,,78,52
333600,note_off,120,0,1,,,,,,,,,0,,,81,0
333600,note_on,0,0,4,,,,,,,,,3,,,75,53
333600,note_off,240,0,4,,,,,,,,,3,,,71,0
333600,note_off,0,0,1,,,,,,,,,0,,,75,0
333720,note_on,120,0,1,,,,,,,,,0,,,81,52
333756,note_off,156,0,4,,,,,,,,,3,,,75,0
333840,note_off,120,0,1,,,,,,,,,0,,,81,0
333840,note_on,84,0,4,,,,,,,,,3,,,63,54
333840,note_off,0,0,1,,,,,,,,,0,,,78,0
333840,note_on,0,0,1,,,,,,,,,0,,,71,52
333960,note_on,120,0,1,,,,,,,,,0,,,81,52
333996,note_off,156,0,4,,,,,,,,,3,,,63,0
334080,note_on,0,0,1,,,,,,,,,0,,,81,52
334080,note_off,0,0,1,,,,,,,,,0,,,71,0
334080,note_off,120,0,1,,,,,,,,,0,,,81,0
334080,note_on,84,0,4,,,,,,,,,3,,,77,54
334200,note_on,120,0,1,,,,,,,,,0,,,86,52
334320,note_off,0,0,1,,,,,,,,,0,,,81,0
334320,note_on,0,0,4,,,,,,,,,3,,,76,54
334320,note_off,120,0,1,,,,,,,,,0,,,86,0
334320,note_on,0,0,1,,,,,,,,,0,,,80,52
334320,note_off,240,0,4,,,,,,,,,3,,,77,0
334440,note_on,120,0,1,,,,,,,,,0,,,86,52
334560,note_off,120,0,1,,,,,,,,,0,,,86,0
334560,note_off,0,0,1,,,,,,,,,0,,,80,0
334560,note_on,0,0,1,,,,,,,,,0,,,83,53
334560,note_off,240,0,4,,,,,,,,,3,,,76,0
334560,note_on,0,0,4,,,,,,,,,3,,,80,55
334680,note_on,120,0,1,,,,,,,,,0,,,86,53
334716,note_off,156,0,4,,,,,,,,,3,,,80,0
334800,note_on,0,0,1,,,,,,,,,0,,,76,53
334800,note_off,120,0,1,,,,,,,,,0,,,86,0
334800,note_on,84,0,4,,,,,,,,,3,,,68,55
334800,note_off,0,0,1,,,,,,,,,0,,,83,0
334920,note_on,120,0,1,,,,,,,,,0,,,86,53
334956,note_off,156,0,4,,,,,,,,,3,,,68,0
335040,note_on,84,0,4,,,,,,,,,3,,,70,55
335040,note_off,120,0,1,,,,,,,,,0,,,86,0
335040,note_off,0,0,1,,,,,,,,,0,,,76,0
335040,note_on,0,0,1,,,,,,,,,0,,,74,53
335160,note_on,120,0,1,,,,,,,,,0,,,79,53
335280,note_on,0,0,1,,,,,,,,,0,,,73,53
335280,note_off,120,0,1,,,,,,,,,0,,,79,0
335280,note_off,240,0,4,,,,,,,,,3,,,70,0
335280,note_on,0,0,4,,,,,,,,,3,,,69,56
335280,note_off,0,0,1,,,,,,,,,0,,,74,0
335400,note_on,120,0,1,,,,,,,,,0,,,79,54
335520,note_off,240,0,4,,,,,,,,,3,,,69,0
335520,note_off,120,0,1,,,,,,,,,0,,,79,0
335520,note_off,0,0,1,,,,,,,,,0,,,73,0
335520,note_on,0,0,1,,,,,,,,,0,,,76,54
335520,note_on,0,0,4,,,,,,,,,3,,,73,56
335640,note_on,120,0,1,,,,,,,,,0,,,79,54
335676,note_off,156,0,4,,,,,,,,,3,,,73,0
335760,note_on,84,0,4,,,,,,,,,3,,,61,56
335760,note_off,120,0,1,,,,,,,,,0,,,79,0
335760,note_on,0,0,1,,,,,,,,,0,,,69,56
335760,note_off,0,0,1,,,,,,,,,0,,,76,0
335880,note_on,120,0,1,,,,,,,,,0,,,79,54
335916,note_off,156,0,4,,,,,,,,,3,,,61,0
336000,note_off,0,0,1,,,,,,,,,0,,,69,0
336000,note_on,0,0,1,,,,,,,,,0,,,79,54
336000,note_off,120,0,1,,,,,,,,,0,,,79,0
336000,note_on,84,0,4,,,,,,,,,3,,,75,56
336120,note_on,120,0,1,,,,,,,,,0,,,84,54
336240,note_off,240,0,4,,,,,,,,,3,,,75,0
336240,note_on,0,0,4,,,,,,,,,3,,,74,57
336240,note_off,120,0,1,,,,,,,,,0,,,84,0
336240,note_on,0,0,1,,,,,,,,,0,,,78,54
336247,note_off,7,0,1,,,,,,,,,0,,,79,0
336360,note_on,113,0,1,,,,,,,,,0,,,84,55
336480,note_off,120,0,1,,,,,,,,,0,,,84,0
336480,note_on,0,0,1,,,,,,,,,0,,,81,55
336480,note_off,240,0,4,,,,,,,,,3,,,74,0
336480,note_on,0,0,4,,,,,,,,,3,,,78,57
336480,note_off,0,0,1,,,,,,,,,0,,,78,0
336600,note_on,120,0,1,,,,,,,,,0,,,84,55
336636,note_off,156,0,4,,,,,,,,,3,,,78,0
336720,note_off,0,0,1,,,,,,,,,0,,,81,0
336720,note_on,0,0,1,,,,,,,,,0,,,74,55
336720,note_on,84,0,4,,,,,,,,,3,,,66,57
336720,note_off,120,0,1,,,,,,,,,0,,,84,0
336840,note_on,120,0,1,,,,,,,,,0,,,84,55
336876,note_off,156,0,4,,,,,,,,,3,,,66,0
336960,note_on,0,0,1,,,,,,,,,0,,,72,55
336960,note_off,0,0,1,,,,,,,,,0,,,74,0
336960,note_off,120,0,1,,,,,,,,,0,,,84,0
336960,note_on,84,0,4,,,,,,,,,3,,,68,58
337080,note_on,120,0,1,,,,,,,,,0,,,77,55
337200,note_on,0,0,4,,,,,,,,,3,,,67,58
337200,note_off,240,0,4,,,,,,,,,3,,,68,0
337200,note_off,120,0,1,,,,,,,,,0,,,77,0
337200,note_off,0,0,1,,,,,,,,,0,,,72,0
337200,note_on,0,0,1,,,,,,,,,0,,,71,56
337320,note_on,120,0,1,,,,,,,,,0,,,77,56
337440,note_off,120,0,1,,,,,,,,,0,,,77,0
337440,note_off,0,0,1,,,,,,,,,0,,,71,0
337440,note_on,0,0,1,,,,,,,,,0,,,74,56
337440,note_off,240,0,4,,,,,,,,,3,,,67,0
337440,note_on,0,0,4,,,,,,,,,3,,,71,58
337560,note_on,120,0,1,,,,,,,,,0,,,77,56
337596,note_off,156,0,4,,,,,,,,,3,,,71,0
337680,note_off,120,0,1,,,,,,,,,0,,,77,0
337680,note_off,0,0,1,,,,,,,,,0,,,74,0
337680,note_on,0,0,1,,,,,,,,,0,,,67,58
337680,note_on,84,0,4,,,,,,,,,3,,,59,58
337800,note_on,120,0,1,,,,,,,,,0,,,77,56
337836,note_off,156,0,4,,,,,,,,,3,,,59,0
337920,note_on,84,0,4,,,,,,,,,3,,,73,59
337920,note_off,0,0,1,,,,,,,,,0,,,67,0
337920,note_on,0,0,1,,,,,,,,,0,,,77,56
337920,note_off,120,0,1,,,,,,,,,0,,,77,0
338040,note_on,120,0,1,,,,,,,,,0,,,82,56
338160,note_off,120,0,1,,,,,,,,,0,,,82,0
338160,note_off,0,0,1,,,,,,,,,0,,,77,0
338160,note_off,240,0,4,,,,,,,,,3,,,73,0
338160,note_on,0,0,4,,,,,,,,,3,,,72,59
338160,note_on,0,0,1,,,,,,,,,0,,,76,57
338280,note_on,120,0,1,,,,,,,,,0,,,82,57
338400,note_on,0,0,4,,,,,,,,,3,,,76,59
338400,note_on,0,0,1,,,,,,,,,0,,,79,57
338400,note_off,0,0,1,,,,,,,,,0,,,76,0
338400,note_off,120,0,1,,,,,,,,,0,,,82,0
338400,note_off,240,0,4,,,,,,,,,3,,,72,0
338520,note_on,120,0,1,,,,,,,,,0,,,82,57
338640,note_off,240,0,4,,,,,,,,,3,,,76,0
338640,note_on,0,0,4,,,,,,,,,3,,,64,60
338640,note_on,0,0,1,,,,,,,,,0,,,73,57
338640,note_off,0,0,1,,,,,,,,,0,,,79,0
338640,note_off,120,0,1,,,,,,,,,0,,,82,0
338760,note_on,120,0,1,,,,,,,,,0,,,82,58
338880,note_off,240,0,4,,,,,,,,,3,,,64,0
338880,note_on,0,0,4,,,,,,,,,3,,,65,60
338880,note_off,120,0,1,,,,,,,,,0,,,82,0
338880,note_on,0,0,1,,,,,,,,,0,,,72,58
338880,note_off,0,0,1,,,,,,,,,0,,,73,0
339000,note_on,120,0,1,,,,,,,,,0,,,81,58
339120,note_off,120,0,1,,,,,,,,,0,,,81,0
339120,note_on,0,0,1,,,,,,,,,0,,,79,58
339120,note_off,0,0,1,,,,,,,,,0,,,72,0
339120,note_on,0,0,4,,,,,,,,,3,,,61,60
339120,note_off,240,0,4,,,,,,,,,3,,,65,0
339240,note_on,120,0,1,,,,,,,,,0,,,70,59
339360,note_off,240,0,4,,,,,,,,,3,,,61,0
339360,note_on,0,0,1,,,,,,,,,0,,,69,59
339360,note_off,0,0,1,,,,,,,,,0,,,79,0
339360,note_off,120,0,1,,,,,,,,,0,,,70,0
339360,note_on,0,0,4,,,,,,,,,3,,,62,61
339480,note_on,120,0,1,,,,,,,,,0,,,77,59
339600,note_off,0,0,1,,,,,,,,,0,,,69,0
339600,note_off,120,0,1,,,,,,,,,0,,,77,0
339600,note_on,0,0,1,,,,,,,,,0,,,76,60
339600,note_off,240,0,4,,,,,,,,,3,,,62,0
339600,note_on,0,0,4,,,,,,,,,3,,,57,61
339720,note_on,120,0,1,,,,,,,,,0,,,67,60
339840,note_off,120,0,1,,,,,,,,,0,,,67,0
339840,note_off,0,0,1,,,,,,,,,0,,,76,0
339840,note_on,0,0,4,,,,,,,,,3,,,58,61
339840,note_off,240,0,4,,,,,,,,,3,,,57,0
339840,note_on,0,0,1,,,,,,,,,0,,,65,60
339960,note_on,120,0,1,,,,,,,,,0,,,74,61
340080,note_off,240,0,4,,,,,,,,,3,,,58,0
340080,note_off,120,0,1,,,,,,,,,0,,,74,0
340080,note_on,0,0,4,,,,,,,,,3,,,54,61
340080,note_on,0,0,1,,,,,,,,,0,,,72,61
340080,note_off,0,0,1,,,,,,,,,0,,,65,0
340200,note_on,120,0,1,,,,,,,,,0,,,63,61
340320,note_off,120,0,1,,,,,,,,,0,,,63,0
340320,note_off,0,0,1,,,,,,,,,0,,,72,0
340320,note_on,0,0,1,,,,,,,,,0,,,62,61
340320,note_off,240,0,4,,,,,,,,,3,,,54,0
340320,note_on,0,0,4,,,,,,,,,3,,,55,62
340440,note_on,120,0,1,,,,,,,,,0,,,70,62
340560,note_off,240,0,4,,,,,,,,,3,,,55,0
340560,note_on,0,0,1,,,,,,,,,0,,,60,62
340560,note_on,0,0,4,,,,,,,,,3,,,45,62
340560,note_off,120,0,1,,,,,,,,,0,,,62,0
340680,note_on,0,0,1,,,,,,,,,0,,,69,62
340680,note_off,0,0,1,,,,,,,,,0,,,70,0
340680,note_off,120,0,1,,,,,,,,,0,,,60,0
340800,note_off,120,0,1,,,,,,,,,0,,,69,0
340800,note_on,0,0,1,,,,,,,,,0,,,62,63
340800,note_off,240,0,4,,,,,,,,,3,,,45,0
340800,note_on,0,0,4,,,,,,,,,3,,,46,62
340920,note_on,120,0,1,,,,,,,,,0,,,67,63
341040,note_on,0,0,1,,,,,,,,,0,,,55,63
341040,note_on,0,0,4,,,,,,,,,3,,,47,63
341040,note_off,240,0,4,,,,,,,,,3,,,46,0
341040,note_off,0,0,1,,,,,,,,,0,,,62,0
341040,note_off,120,0,1,,,,,,,,,0,,,67,0
341160,note_on,120,0,1,,,,,,,,,0,,,65,63
341280,note_on,0,0,1,,,,,,,,,0,,,55,64
341280,note_off,0,0,1,,,,,,,,,0,,,55,0
341280,note_off,120,0,1,,,,,,,,,0,,,65,0
341280,note_on,0,0,4,,,,,,,,,3,,,48,63
341280,note_off,240,0,4,,,,,,,,,3,,,47,0
341400,note_on,120,0,1,,,,,,,,,0,,,64,64
341520,note_off,120,0,1,,,,,,,,,0,,,64,0
341520,note_on,0,0,1,,,,,,,,,0,,,53,64
341520,note_off,240,0,4,,,,,,,,,3,,,48,0
341520,note_on,0,0,4,,,,,,,,,3,,,50,63
341520,note_off,0,0,1,,,,,,,,,0,,,55,0
341640,note_on,120,0,1,,,,,,,,,0,,,59,65
341640,set_tempo,9480,1,0,,,,,,560747,,,,,,,
341760,set_tempo,120,1,0,,,,,,540540,,,,,,,
341760,note_off,0,0,1,,,,,,,,,0,,,53,0
341760,note_on,0,0,1,,,,,,,,,0,,,60,65
341760,note_off,120,0,1,,,,,,,,,0,,,59,0
341760,note_off,240,0,4,,,,,,,,,3,,,50,0
341760,note_on,0,0,4,,,,,,,,,3,,,36,63
341760,note_on,0,0,4,,,,,,,,,3,,,52,63
341880,note_on,120,0,4,,,,,,,,,3,,,40,65
342000,note_off,120,0,4,,,,,,,,,3,,,40,0
342000,note_off,0,0,4,,,,,,,,,3,,,52,0
342000,note_off,240,0,1,,,,,,,,,0,,,60,0
342000,note_on,0,0,4,,,,,,,,,3,,,43,65
342120,note_on,0,0,4,,,,,,,,,3,,,48,65
342120,note_off,120,0,4,,,,,,,,,3,,,43,0
342202,note_off,82,0,4,,,,,,,,,3,,,36,0
342240,note_off,38,0,4,,,,,,,,,3,,,48,0
342240,note_on,0,0,4,,,,,,,,,3,,,38,65
342240,note_on,240,0,1,,,,,,,,,0,,,67,63
342360,note_on,120,0,4,,,,,,,,,3,,,47,65
342480,note_on,0,0,1,,,,,,,,,0,,,67,63
342480,note_off,0,0,4,,,,,,,,,3,,,38,0
342480,note_off,120,0,4,,,,,,,,,3,,,47,0
342480,note_on,0,0,4,,,,,,,,,3,,,40,66
342480,note_off,240,0,1,,,,,,,,,0,,,67,0
342600,note_on,120,0,4,,,,,,,,,3,,,48,66
342720,note_off,120,0,4,,,,,,,,,3,,,48,0
342720,note_off,0,0,4,,,,,,,,,3,,,40,0
342720,note_on,0,0,4,,,,,,,,,3,,,41,66
342840,note_on,120,0,4,,,,,,,,,3,,,50,66
342952,note_off,472,0,1,,,,,,,,,0,,,67,0
342960,note_off,0,0,4,,,,,,,,,3,,,41,0
342960,note_on,0,0,4,,,,,,,,,3,,,43,66
342960,note_on,8,0,1,,,,,,,,,0,,,67,65
342960,note_off,120,0,4,,,,,,,,,3,,,50,0
343080,note_on,120,0,4,,,,,,,,,3,,,52,67
343200,note_off,0,0,4,,,,,,,,,3,,,43,0
343200,note_on,0,0,4,,,,,,,,,3,,,45,67
343200,note_off,120,0,4,,,,,,,,,3,,,52,0
343320,note_on,120,0,4,,,,,,,,,3,,,53,67
343440,note_off,120,0,4,,,,,,,,,3,,,53,0
343440,note_on,0,0,1,,,,,,,,,0,,,67,66
343440,note_on,0,0,4,,,,,,,,,3,,,47,67
343440,note_off,0,0,4,,,,,,,,,3,,,45,0
343440,note_off,480,0,1,,,,,,,,,0,,,67,0
343560,set_tempo,1800,1,0,,,,,,550458,,,,,,,
343560,note_on,120,0,4,,,,,,,,,3,,,55,67
343680,note_off,0,0,4,,,,,,,,,3,,,47,0
343680,note_on,0,0,4,,,,,,,,,3,,,52,52
343680,note_off,240,0,1,,,,,,,,,0,,,67,0
343680,note_on,0,0,1,,,,,,,,,0,,,60,52
343680,control_change,120,0,4,,,,,,,64,127,3,,,,
343680,note_off,0,0,4,,,,,,,,,3,,,55,0
343680,set_tempo,120,1,0,,,,,,540540,,,,,,,
343800,note_on,120,0,1,,,,,,,,,0,,,64,52
343800,note_on,0,0,4,,,,,,,,,3,,,48,68
343800,note_off,120,0,4,,,,,,,,,3,,,52,0
343920,note_off,120,0,1,,,,,,,,,0,,,64,0
343920,note_on,0,0,1,,,,,,,,,0,,,67,53
344040,note_off,120,0,1,,,,,,,,,0,,,67,0
344040,note_on,0,0,1,,,,,,,,,0,,,72,53
344130,control_change,330,0,4,,,,,,,64,0,3,,,,
344160,note_on,0,0,1,,,,,,,,,0,,,62,54
344160,note_off,120,0,1,,,,,,,,,0,,,72,0
344160,note_on,30,0,4,,,,,,,,,3,,,55,54
344167,note_off,7,0,1,,,,,,,,,0,,,60,0
344280,note_on,113,0,1,,,,,,,,,0,,,71,54
344400,note_off,0,0,1,,,,,,,,,0,,,62,0
344400,note_on,0,0,1,,,,,,,,,0,,,64,55
344400,note_off,120,0,1,,,,,,,,,0,,,71,0
344400,note_on,0,0,4,,,,,,,,,3,,,55,55
344400,note_off,240,0,4,,,,,,,,,3,,,55,0
344520,note_on,120,0,1,,,,,,,,,0,,,72,55
344640,note_off,0,0,1,,,,,,,,,0,,,64,0
344640,note_off,120,0,1,,,,,,,,,0,,,72,0
344640,note_on,0,0,1,,,,,,,,,0,,,65,56
344760,note_on,120,0,1,,,,,,,,,0,,,74,56
344865,note_off,465,0,4,,,,,,,,,3,,,55,0
344880,note_off,120,0,1,,,,,,,,,0,,,74,0
344880,note_off,0,0,1,,,,,,,,,0,,,65,0
344880,note_on,0,0,1,,,,,,,,,0,,,67,57
344880,note_on,15,0,4,,,,,,,,,3,,,55,57
345000,note_on,120,0,1,,,,,,,,,0,,,76,57
345120,note_on,0,0,1,,,,,,,,,0,,,69,58
345120,note_off,0,0,1,,,,,,,,,0,,,67,0
345120,note_off,120,0,1,,,,,,,,,0,,,76,0
345240,note_on,120,0,1,,,,,,,,,0,,,77,58
345360,note_off,480,0,4,,,,,,,,,3,,,55,0
345360,note_on,0,0,4,,,,,,,,,3,,,55,59
345360,note_off,0,0,1,,,,,,,,,0,,,69,0
345360,note_off,120,0,1,,,,,,,,,0,,,77,0
345360,note_on,0,0,1,,,,,,,,,0,,,71,59
345480,set_tempo,1800,1,0,,,,,,550458,,,,,,,
345480,note_on,120,0,1,,,,,,,,,0,,,79,59
345592,note_off,232,0,4,,,,,,,,,3,,,48,0
345600,note_on,0,0,4,,,,,,,,,3,,,48,73
345600,note_off,8,0,4,,,,,,,,,3,,,55,0
345600,set_tempo,120,1,0,,,,,,540540,,,,,,,
345600,note_on,0,0,1,,,,,,,,,0,,,76,73
345600,note_off,0,0,1,,,,,,,,,0,,,71,0
345600,note_off,0,0,1,,,,,,,,,0,,,79,0
345600,control_change,120,0,1,,,,,,,64,127,0,,,,
345720,note_on,120,0,4,,,,,,,,,3,,,52,74
345720,note_off,120,0,1,,,,,,,,,0,,,76,0
345720,note_on,0,0,1,,,,,,,,,0,,,72,74
345840,note_on,0,0,1,,,,,,,,,0,,,79,82
345840,note_off,120,0,1,,,,,,,,,0,,,72,0
345840,note_on,0,0,4,,,,,,,,,3,,,55,74
345840,note_off,120,0,4,,,,,,,,,3,,,52,0
345960,note_on,0,0,4,,,,,,,,,3,,,60,74
345960,note_off,120,0,4,,,,,,,,,3,,,55,0
346080,note_on,0,0,4,,,,,,,,,3,,,50,75
346080,note_off,120,0,4,,,,,,,,,3,,,60,0
346084,note_off,4,0,4,,,,,,,,,3,,,48,0
346200,note_on,116,0,4,,,,,,,,,3,,,59,75
346320,note_off,0,0,1,,,,,,,,,0,,,79,0
346320,note_off,0,0,4,,,,,,,,,3,,,50,0
346320,note_on,0,0,4,,,,,,,,,3,,,52,76
346320,control_change,480,0,1,,,,,,,64,0,0,,,,
346320,note_off,120,0,4,,,,,,,,,3,,,59,0
346320,note_on,0,0,1,,,,,,,,,0,,,79,76
346440,note_on,120,0,4,,,,,,,,,3,,,60,76
346560,note_off,120,0,4,,,,,,,,,3,,,60,0
346560,note_off,0,0,4,,,,,,,,,3,,,52,0
346560,note_on,0,0,4,,,,,,,,,3,,,53,76
346680,note_on,120,0,4,,,,,,,,,3,,,62,77
346785,note_off,465,0,1,,,,,,,,,0,,,79,0
346800,note_on,15,0,1,,,,,,,,,0,,,79,77
346800,note_off,120,0,4,,,,,,,,,3,,,62,0
346800,note_off,0,0,4,,,,,,,,,3,,,53,0
346800,note_on,0,0,4,,,,,,,,,3,,,55,77
346920,note_on,120,0,4,,,,,,,,,3,,,64,78
347040,note_off,120,0,4,,,,,,,,,3,,,64,0
347040,note_off,0,0,4,,,,,,,,,3,,,55,0
347040,note_on,0,0,4,,,,,,,,,3,,,57,78
347160,note_on,120,0,4,,,,,,,,,3,,,65,78
347280,note_on,0,0,4,,,,,,,,,3,,,59,79
347280,note_on,0,0,1,,,,,,,,,0,,,79,79
347280,note_off,0,0,4,,,,,,,,,3,,,57,0
347280,note_off,120,0,4,,,,,,,,,3,,,65,0
347280,note_off,480,0,1,,,,,,,,,0,,,79,0
347400,note_on,120,0,4,,,,,,,,,3,,,67,79
347400,set_tempo,1800,1,0,,,,,,550458,,,,,,,
347520,note_on,0,0,4,,,,,,,,,3,,,60,72
347520,note_off,120,0,4,,,,,,,,,3,,,67,0
347520,note_off,0,0,4,,,,,,,,,3,,,59,0
347520,note_off,240,0,1,,,,,,,,,0,,,79,0
347520,note_on,0,0,4,,,,,,,,,3,,,64,72
347520,note_on,0,0,1,,,,,,,,,0,,,67,72
347520,set_tempo,120,1,0,,,,,,540540,,,,,,,
347640,note_on,120,0,1,,,,,,,,,0,,,76,59
347760,note_off,240,0,4,,,,,,,,,3,,,64,0
347760,note_off,0,0,4,,,,,,,,,3,,,60,0
347760,note_off,120,0,1,,,,,,,,,0,,,76,0
347760,note_on,0,0,1,,,,,,,,,0,,,69,59
347760,note_off,0,0,1,,,,,,,,,0,,,67,0
347880,note_on,120,0,1,,,,,,,,,0,,,77,59
348000,note_off,0,0,1,,,,,,,,,0,,,69,0
348000,note_on,0,0,1,,,,,,,,,0,,,65,58
348000,note_off,120,0,1,,,,,,,,,0,,,77,0
348120,note_on,120,0,1,,,,,,,,,0,,,74,58
348240,note_on,0,0,1,,,,,,,,,0,,,67,58
348240,note_off,0,0,1,,,,,,,,,0,,,65,0
348240,note_off,120,0,1,,,,,,,,,0,,,74,0
348360,note_on,120,0,1,,,,,,,,,0,,,76,57
348480,note_on,720,0,4,,,,,,,,,3,,,55,57
348480,note_on,0,0,1,,,,,,,,,0,,,64,57
348480,note_off,120,0,1,,,,,,,,,0,,,76,0
348480,note_off,0,0,1,,,,,,,,,0,,,67,0
348600,note_on,120,0,4,,,,,,,,,3,,,64,56
348600,note_on,120,0,1,,,,,,,,,0,,,72,56
348720,note_off,120,0,1,,,,,,,,,0,,,72,0
348720,note_off,0,0,1,,,,,,,,,0,,,64,0
348720,note_off,120,0,4,,,,,,,,,3,,,64,0
348720,note_off,0,0,4,,,,,,,,,3,,,55,0
348720,note_on,0,0,4,,,,,,,,,3,,,57,56
348840,note_on,120,0,4,,,,,,,,,3,,,65,56
348960,note_off,120,0,4,,,,,,,,,3,,,65,0
348960,note_off,0,0,4,,,,,,,,,3,,,57,0
348960,note_on,0,0,4,,,,,,,,,3,,,53,55
349080,note_on,120,0,4,,,,,,,,,3,,,62,55
349200,note_on,0,0,4,,,,,,,,,3,,,55,55
349200,note_off,0,0,4,,,,,,,,,3,,,53,0
349200,note_off,120,0,4,,,,,,,,,3,,,62,0
349320,note_on,120,0,4,,,,,,,,,3,,,64,54
349320,set_tempo,1800,1,0,,,,,,550458,,,,,,,
349440,set_tempo,120,1,0,,,,,,540540,,,,,,,
349440,note_off,120,0,4,,,,,,,,,3,,,64,0
349440,note_off,0,0,4,,,,,,,,,3,,,55,0
349440,note_on,0,0,4,,,,,,,,,3,,,52,54
349440,note_on,720,0,1,,,,,,,,,0,,,76,54
349560,note_on,120,0,1,,,,,,,,,0,,,79,54
349560,note_on,120,0,4,,,,,,,,,3,,,60,54
349680,note_off,120,0,1,,,,,,,,,0,,,79,0
349680,note_off,0,0,1,,,,,,,,,0,,,76,0
349680,note_on,0,0,1,,,,,,,,,0,,,77,53
349680,note_off,120,0,4,,,,,,,,,3,,,60,0
349680,note_off,0,0,4,,,,,,,,,3,,,52,0
349800,note_on,120,0,1,,,,,,,,,0,,,81,53
349920,note_off,120,0,1,,,,,,,,,0,,,81,0
349920,note_on,0,0,1,,,,,,,,,0,,,74,53
349920,note_off,0,0,1,,,,,,,,,0,,,77,0
350040,note_on,120,0,1,,,,,,,,,0,,,77,52
350160,note_on,0,0,1,,,,,,,,,0,,,76,52
350160,note_off,0,0,1,,,,,,,,,0,,,74,0
350160,note_off,120,0,1,,,,,,,,,0,,,77,0
350280,note_on,120,0,1,,,,,,,,,0,,,79,51
350400,note_on,0,0,1,,,,,,,,,0,,,72,51
350400,note_off,0,0,1,,,,,,,,,0,,,76,0
350400,note_off,120,0,1,,,,,,,,,0,,,79,0
350400,note_on,720,0,4,,,,,,,,,3,,,64,51
350520,note_on,120,0,1,,,,,,,,,0,,,76,51
350520,note_on,120,0,4,,,,,,,,,3,,,67,51
350640,note_off,0,0,1,,,,,,,,,0,,,72,0
350640,note_off,120,0,1,,,,,,,,,0,,,76,0
350640,note_off,120,0,4,,,,,,,,,3,,,67,0
350640,note_off,0,0,4,,,,,,,,,3,,,64,0
350640,note_on,0,0,4,,,,,,,,,3,,,65,50
350760,note_on,120,0,4,,,,,,,,,3,,,69,50
350880,note_off,120,0,4,,,,,,,,,3,,,69,0
350880,note_off,0,0,4,,,,,,,,,3,,,65,0
350880,note_on,0,0,4,,,,,,,,,3,,,62,50
351000,note_on,120,0,4,,,,,,,,,3,,,65,49
351120,note_off,120,0,4,,,,,,,,,3,,,65,0
351120,note_off,0,0,4,,,,,,,,,3,,,62,0
351120,note_on,0,0,4,,,,,,,,,3,,,64,49
351240,set_tempo,1800,1,0,,,,,,550458,,,,,,,
351240,note_on,120,0,4,,,,,,,,,3,,,67,49
351360,note_off,120,0,4,,,,,,,,,3,,,67,0
351360,set_tempo,120,1,0,,,,,,540540,,,,,,,
351360,note_off,0,0,4,,,,,,,,,3,,,64,0
351360,note_on,720,0,1,,,,,,,,,0,,,82,48
351360,note_on,0,0,4,,,,,,,,,3,,,60,48
351480,note_on,120,0,4,,,,,,,,,3,,,64,48
351480,note_on,120,0,1,,,,,,,,,0,,,79,48
351600,note_off,0,0,4,,,,,,,,,3,,,60,0
351600,note_off,120,0,4,,,,,,,,,3,,,64,0
351600,note_off,120,0,1,,,,,,,,,0,,,79,0
351600,note_off,0,0,1,,,,,,,,,0,,,82,0
351600,note_on,0,0,1,,,,,,,,,0,,,84,47
351720,note_on,120,0,1,,,,,,,,,0,,,81,47
351840,note_off,0,0,1,,,,,,,,,0,,,84,0
351840,note_on,0,0,1,,,,,,,,,0,,,81,47
351840,note_off,120,0,1,,,,,,,,,0,,,81,0
351960,note_on,120,0,1,,,,,,,,,0,,,77,46
352080,note_on,0,0,1,,,,,,,,,0,,,82,46
352080,note_off,120,0,1,,,,,,,,,0,,,77,0
352080,note_off,0,0,1,,,,,,,,,0,,,81,0
352200,note_on,120,0,1,,,,,,,,,0,,,79,46
352320,note_off,0,0,1,,,,,,,,,0,,,82,0
352320,note_on,0,0,1,,,,,,,,,0,,,79,45
352320,note_on,720,0,4,,,,,,,,,3,,,64,45
352320,note_off,120,0,1,,,,,,,,,0,,,79,0
352440,note_on,120,0,1,,,,,,,,,0,,,76,45
352440,note_on,120,0,4,,,,,,,,,3,,,67,45
352560,note_on,120,0,1,,,,,,,,,0,,,81,45
352560,note_on,0,0,4,,,,,,,,,3,,,65,45
352560,note_off,0,0,4,,,,,,,,,3,,,64,0
352560,note_off,120,0,4,,,,,,,,,3,,,67,0
352567,note_off,7,0,1,,,,,,,,,0,,,76,0
352567,note_off,0,0,1,,,,,,,,,0,,,79,0
352680,note_on,113,0,1,,,,,,,,,0,,,77,44
352680,note_on,120,0,4,,,,,,,,,3,,,69,44
352800,note_off,0,0,4,,,,,,,,,3,,,65,0
352800,note_on,0,0,1,,,,,,,,,0,,,77,44
352800,note_on,0,0,4,,,,,,,,,3,,,62,44
352800,note_off,120,0,4,,,,,,,,,3,,,69,0
352800,note_off,0,0,1,,,,,,,,,0,,,81,0
352800,note_off,120,0,1,,,,,,,,,0,,,77,0
352920,note_on,120,0,1,,,,,,,,,0,,,74,44
352920,note_on,120,0,4,,,,,,,,,3,,,65,44
353040,note_off,120,0,1,,,,,,,,,0,,,74,0
353040,note_off,120,0,4,,,,,,,,,3,,,65,0
353040,note_on,0,0,4,,,,,,,,,3,,,64,43
353040,note_off,0,0,4,,,,,,,,,3,,,62,0
353040,note_off,0,0,1,,,,,,,,,0,,,77,0
353040,note_on,0,0,1,,,,,,,,,0,,,79,43
353160,note_on,120,0,4,,,,,,,,,3,,,67,43
353160,note_on,120,0,1,,,,,,,,,0,,,76,43
353280,note_off,120,0,1,,,,,,,,,0,,,76,0
353280,note_off,120,0,4,,,,,,,,,3,,,67,0
353280,note_off,0,0,4,,,,,,,,,3,,,64,0
353280,note_on,0,0,4,,,,,,,,,3,,,60,42
353280,note_on,0,0,1,,,,,,,,,0,,,76,42
353280,note_off,0,0,1,,,,,,,,,0,,,79,0
353400,note_on,120,0,4,,,,,,,,,3,,,64,42
353400,note_on,120,0,1,,,,,,,,,0,,,72,42
353520,note_off,120,0,1,,,,,,,,,0,,,72,0
353520,note_off,0,0,1,,,,,,,,,0,,,76,0
353520,note_on,0,0,1,,,,,,,,,0,,,77,42
353520,note_on,0,0,4,,,,,,,,,3,,,62,42
353520,note_off,0,0,4,,,,,,,,,3,,,60,0
353520,note_off,120,0,4,,,,,,,,,3,,,64,0
353640,note_on,120,0,4,,,,,,,,,3,,,65,41
353640,note_on,120,0,1,,,,,,,,,0,,,74,41
353760,note_off,0,0,4,,,,,,,,,3,,,62,0
353760,note_on,0,0,1,,,,,,,,,0,,,74,41
353760,note_off,120,0,1,,,,,,,,,0,,,74,0
353760,note_off,120,0,4,,,,,,,,,3,,,65,0
353760,note_on,0,0,4,,,,,,,,,3,,,59,41
353767,note_off,7,0,1,,,,,,,,,0,,,77,0
353880,note_on,120,0,4,,,,,,,,,3,,,62,41
353880,note_on,113,0,1,,,,,,,,,0,,,71,41
354000,note_off,0,0,1,,,,,,,,,0,,,74,0
354000,note_off,120,0,1,,,,,,,,,0,,,71,0
354000,note_on,0,0,4,,,,,,,,,3,,,60,40
354000,note_off,0,0,4,,,,,,,,,3,,,59,0
354000,note_off,120,0,4,,,,,,,,,3,,,62,0
354000,note_on,0,0,1,,,,,,,,,0,,,76,40
354120,note_on,120,0,4,,,,,,,,,3,,,64,40
354120,note_on,120,0,1,,,,,,,,,0,,,72,40
354240,note_on,0,0,4,,,,,,,,,3,,,57,40
354240,note_off,0,0,4,,,,,,,,,3,,,60,0
354240,note_off,120,0,4,,,,,,,,,3,,,64,0
354240,note_off,120,0,1,,,,,,,,,0,,,72,0
354240,note_off,0,0,1,,,,,,,,,0,,,76,0
354240,note_on,0,0,1,,,,,,,,,0,,,72,40
354360,note_on,120,0,1,,,,,,,,,0,,,69,41
354360,note_on,120,0,4,,,,,,,,,3,,,60,41
354480,note_off,0,0,1,,,,,,,,,0,,,72,0
354480,note_on,0,0,1,,,,,,,,,0,,,74,42
354480,note_on,0,0,4,,,,,,,,,3,,,58,42
354480,note_off,0,0,4,,,,,,,,,3,,,57,0
354480,note_off,120,0,1,,,,,,,,,0,,,69,0
354480,note_off,120,0,4,,,,,,,,,3,,,60,0
354600,note_on,120,0,4,,,,,,,,,3,,,62,43
354600,note_on,120,0,1,,,,,,,,,0,,,70,43
354720,note_off,120,0,1,,,,,,,,,0,,,70,0
354720,note_on,0,0,1,,,,,,,,,0,,,70,45
354720,note_on,0,0,4,,,,,,,,,3,,,55,45
354720,note_off,0,0,4,,,,,,,,,3,,,58,0
354720,note_off,120,0,4,,,,,,,,,3,,,62,0
354720,note_off,0,0,1,,,,,,,,,0,,,74,0
354840,note_on,120,0,1,,,,,,,,,0,,,67,46
354840,note_on,120,0,4,,,,,,,,,3,,,58,46
354960,note_off,0,0,1,,,,,,,,,0,,,70,0
354960,note_on,0,0,1,,,,,,,,,0,,,72,47
354960,note_off,120,0,1,,,,,,,,,0,,,67,0
354960,note_off,120,0,4,,,,,,,,,3,,,58,0
354960,note_on,0,0,4,,,,,,,,,3,,,57,47
354960,note_off,0,0,4,,,,,,,,,3,,,55,0
355080,note_on,120,0,4,,,,,,,,,3,,,60,48
355080,note_on,120,0,1,,,,,,,,,0,,,69,48
355200,note_on,0,0,4,,,,,,,,,3,,,53,49
355200,note_off,0,0,4,,,,,,,,,3,,,57,0
355200,note_off,120,0,4,,,,,,,,,3,,,60,0
355200,note_off,0,0,1,,,,,,,,,0,,,72,0
355200,note_on,0,0,1,,,,,,,,,0,,,69,49
355200,note_off,120,0,1,,,,,,,,,0,,,69,0
355320,note_on,120,0,1,,,,,,,,,0,,,65,50
355320,note_on,120,0,4,,,,,,,,,3,,,57,50
355440,note_off,120,0,4,,,,,,,,,3,,,57,0
355440,note_off,120,0,1,,,,,,,,,0,,,65,0
355440,note_on,0,0,1,,,,,,,,,0,,,70,51
355440,note_off,0,0,4,,,,,,,,,3,,,53,0
355440,note_off,0,0,1,,,,,,,,,0,,,69,0
355440,note_on,0,0,4,,,,,,,,,3,,,55,51
355560,note_on,120,0,4,,,,,,,,,3,,,58,52
355560,note_on,120,0,1,,,,,,,,,0,,,67,52
355680,note_off,0,0,1,,,,,,,,,0,,,70,0
355680,note_on,0,0,1,,,,,,,,,0,,,72,54
355680,note_off,120,0,1,,,,,,,,,0,,,67,0
355680,note_on,0,0,4,,,,,,,,,3,,,57,54
355680,note_off,0,0,4,,,,,,,,,3,,,55,0
355680,note_off,120,0,4,,,,,,,,,3,,,58,0
355800,note_on,120,0,4,,,,,,,,,3,,,60,55
355800,note_on,120,0,1,,,,,,,,,0,,,69,55
355920,note_off,120,0,4,,,,,,,,,3,,,60,0
355920,note_off,0,0,4,,,,,,,,,3,,,57,0
355920,note_on,0,0,4,,,,,,,,,3,,,58,56
355920,note_on,0,0,1,,,,,,,,,0,,,74,56
355920,note_off,0,0,1,,,,,,,,,0,,,72,0
355920,note_off,120,0,1,,,,,,,,,0,,,69,0
356040,note_on,120,0,1,,,,,,,,,0,,,70,57
356040,note_on,120,0,4,,,,,,,,,3,,,62,57
356160,note_off,120,0,1,,,,,,,,,0,,,70,0
356160,note_on,0,0,1,,,,,,,,,0,,,72,59
356160,note_on,0,0,4,,,,,,,,,3,,,57,59
356160,note_off,0,0,4,,,,,,,,,3,,,58,0
356160,note_off,120,0,4,,,,,,,,,3,,,62,0
356160,note_off,0,0,1,,,,,,,,,0,,,74,0
356280,note_on,120,0,1,,,,,,,,,0,,,69,56
356280,note_on,120,0,4,,,,,,,,,3,,,60,56
356400,note_off,0,0,1,,,,,,,,,0,,,72,0
356400,note_off,120,0,1,,,,,,,,,0,,,69,0
356400,note_on,0,0,1,,,,,,,,,0,,,70,53
356400,note_on,0,0,4,,,,,,,,,3,,,55,53
356400,note_off,120,0,4,,,,,,,,,3,,,60,0
356400,note_off,0,0,4,,,,,,,,,3,,,57,0
356520,note_on,120,0,1,,,,,,,,,0,,,67,50
356520,note_on,120,0,4,,,,,,,,,3,,,58,50
356640,note_off,120,0,1,,,,,,,,,0,,,67,0
356640,note_off,0,0,1,,,,,,,,,0,,,70,0
356640,note_on,0,0,1,,,,,,,,,0,,,69,48
356640,note_off,120,0,4,,,,,,,,,3,,,58,0
356640,note_off,0,0,4,,,,,,,,,3,,,55,0
356640,note_on,0,0,4,,,,,,,,,3,,,53,48
356760,note_on,120,0,1,,,,,,,,,0,,,65,45
356760,note_on,120,0,4,,,,,,,,,3,,,57,45
356880,note_on,0,0,4,,,,,,,,,3,,,48,42
356880,note_off,0,0,4,,,,,,,,,3,,,53,0
356880,note_off,120,0,4,,,,,,,,,3,,,57,0
356880,note_off,0,0,1,,,,,,,,,0,,,69,0
356880,note_on,0,0,1,,,,,,,,,0,,,67,42
356880,note_off,120,0,1,,,,,,,,,0,,,65,0
357000,note_on,120,0,1,,,,,,,,,0,,,60,39
357000,note_on,120,0,4,,,,,,,,,3,,,55,39
357000,set_tempo,5640,1,0,,,,,,560747,,,,,,,
357120,note_off,120,0,1,,,,,,,,,0,,,60,0
357120,set_tempo,120,1,0,,,,,,540540,,,,,,,
357120,note_on,0,0,1,,,,,,,,,0,,,53,38
357120,note_off,0,0,1,,,,,,,,,0,,,67,0
357120,note_off,120,0,4,,,,,,,,,3,,,55,0
357120,note_off,0,0,4,,,,,,,,,3,,,48,0
357120,note_on,0,0,4,,,,,,,,,3,,,29,38
357240,note_on,120,0,1,,,,,,,,,0,,,57,38
357240,note_on,120,0,4,,,,,,,,,3,,,41,38
357360,note_on,0,0,1,,,,,,,,,0,,,60,39
357360,note_off,120,0,1,,,,,,,,,0,,,57,0
357360,note_on,0,0,4,,,,,,,,,3,,,29,39
357360,note_off,120,0,4,,,,,,,,,3,,,29,0
357480,note_off,120,0,1,,,,,,,,,0,,,60,0
357480,note_off,120,0,4,,,,,,,,,3,,,41,0
357480,note_on,0,0,1,,,,,,,,,0,,,65,40
357480,note_on,0,0,4,,,,,,,,,3,,,41,40
357600,note_on,0,0,1,,,,,,,,,0,,,55,40
357600,note_off,0,0,1,,,,,,,,,0,,,53,0
357600,note_off,120,0,1,,,,,,,,,0,,,65,0
357600,note_off,120,0,4,,,,,,,,,3,,,29,0
357600,note_on,0,0,4,,,,,,,,,3,,,29,40
357720,note_on,0,0,4,,,,,,,,,3,,,41,41
357720,note_off,120,0,4,,,,,,,,,3,,,41,0
357720,note_on,120,0,1,,,,,,,,,0,,,64,41
357840,note_off,0,0,1,,,,,,,,,0,,,55,0
357840,note_on,0,0,4,,,,,,,,,3,,,29,41
357840,note_off,120,0,1,,,,,,,,,0,,,64,0
357840,note_off,120,0,4,,,,,,,,,3,,,29,0
357840,note_on,0,0,1,,,,,,,,,0,,,57,41
357960,note_on,120,0,1,,,,,,,,,0,,,65,42
357960,note_off,120,0,4,,,,,,,,,3,,,41,0
357960,note_on,0,0,4,,,,,,,,,3,,,41,42
358080,note_on,0,0,4,,,,,,,,,3,,,29,43
358080,note_off,120,0,4,,,,,,,,,3,,,29,0
358080,note_off,120,0,1,,,,,,,,,0,,,65,0
358080,note_off,0,0,1,,,,,,,,,0,,,57,0
358080,note_on,0,0,1,,,,,,,,,0,,,58,43
358192,note_off,112,0,4,,,,,,,,,3,,,41,0
358200,note_on,8,0,4,,,,,,,,,3,,,41,43
358200,note_on,120,0,1,,,,,,,,,0,,,67,43
358320,note_on,0,0,4,,,,,,,,,3,,,29,44
358320,note_off,120,0,4,,,,,,,,,3,,,29,0
358320,note_off,0,0,1,,,,,,,,,0,,,58,0
358320,note_on,0,0,1,,,,,,,,,0,,,60,44
358320,note_off,120,0,1,,,,,,,,,0,,,67,0
358440,note_on,0,0,4,,,,,,,,,3,,,41,44
358440,note_off,120,0,4,,,,,,,,,3,,,41,0
358440,note_on,120,0,1,,,,,,,,,0,,,69,44
358560,note_on,0,0,4,,,,,,,,,3,,,29,45
358560,note_off,120,0,4,,,,,,,,,3,,,29,0
358560,note_off,120,0,1,,,,,,,,,0,,,69,0
358560,note_off,0,0,1,,,,,,,,,0,,,60,0
358560,note_on,0,0,1,,,,,,,,,0,,,62,45
358680,note_on,0,0,4,,,,,,,,,3,,,41,46
358680,note_off,120,0,4,,,,,,,,,3,,,41,0
358680,note_on,120,0,1,,,,,,,,,0,,,70,46
358800,note_off,0,0,1,,,,,,,,,0,,,62,0
358800,note_on,0,0,1,,,,,,,,,0,,,64,46
358800,note_off,120,0,4,,,,,,,,,3,,,29,0
358800,note_on,0,0,4,,,,,,,,,3,,,29,46
358800,note_off,120,0,1,,,,,,,,,0,,,70,0
358920,note_on,120,0,1,,,,,,,,,0,,,72,47
358920,note_off,120,0,4,,,,,,,,,3,,,41,0
358920,set_tempo,1800,1,0,,,,,,550458,,,,,,,
358920,note_on,0,0,4,,,,,,,,,3,,,41,47
359040,note_off,120,0,4,,,,,,,,,3,,,29,0
359040,set_tempo,120,1,0,,,,,,540540,,,,,,,
359040,note_on,0,0,1,,,,,,,,,0,,,65,47
359040,note_off,0,0,1,,,,,,,,,0,,,64,0
359040,note_off,120,0,1,,,,,,,,,0,,,72,0
359040,note_on,0,0,4,,,,,,,,,3,,,29,47
359152,note_off,112,0,4,,,,,,,,,3,,,41,0
359160,note_on,120,0,1,,,,,,,,,0,,,69,48
359160,note_on,8,0,4,,,,,,,,,3,,,41,48
359280,note_off,120,0,1,,,,,,,,,0,,,69,0
359280,note_on,0,0,1,,,,,,,,,0,,,72,49
359280,note_on,0,0,4,,,,,,,,,3,,,29,49
359280,note_off,120,0,4,,,,,,,,,3,,,29,0
359400,note_on,120,0,1,,,,,,,,,0,,,77,49
359400,note_off,120,0,4,,,,,,,,,3,,,41,0
359400,note_on,0,0,4,,,,,,,,,3,,,41,49
359407,note_off,7,0,1,,,,,,,,,0,,,72,0
359520,note_off,113,0,1,,,,,,,,,0,,,77,0
359520,note_off,120,0,4,,,,,,,,,3,,,29,0
359520,note_on,0,0,4,,,,,,,,,3,,,29,50
359520,note_on,0,0,1,,,,,,,,,0,,,67,50
359527,note_off,7,0,1,,,,,,,,,0,,,65,0
359640,note_on,113,0,1,,,,,,,,,0,,,76,51
359640,note_on,0,0,4,,,,,,,,,3,,,41,51
359640,note_off,120,0,4,,,,,,,,,3,,,41,0
359760,note_off,0,0,1,,,,,,,,,0,,,67,0
359760,note_on,0,0,1,,,,,,,,,0,,,69,51
359760,note_off,120,0,4,,,,,,,,,3,,,29,0
359760,note_off,120,0,1,,,,,,,,,0,,,76,0
359760,note_on,0,0,4,,,,,,,,,3,,,29,51
359880,note_off,120,0,4,,,,,,,,,3,,,41,0
359880,note_on,0,0,4,,,,,,,,,3,,,41,52
359880,note_on,120,0,1,,,,,,,,,0,,,77,52
360000,note_off,120,0,1,,,,,,,,,0,,,77,0
360000,note_off,0,0,1,,,,,,,,,0,,,69,0
360000,note_off,120,0,4,,,,,,,,,3,,,29,0
360000,note_on,0,0,4,,,,,,,,,3,,,29,52
360000,note_on,0,0,1,,,,,,,,,0,,,70,52
360105,note_off,105,0,4,,,,,,,,,3,,,41,0
360120,note_on,15,0,4,,,,,,,,,3,,,41,53
360120,note_on,120,0,1,,,,,,,,,0,,,79,53
360240,note_on,0,0,1,,,,,,,,,0,,,72,54
360240,note_off,120,0,1,,,,,,,,,0,,,79,0
360240,note_off,120,0,4,,,,,,,,,3,,,29,0
360240,note_on,0,0,4,,,,,,,,,3,,,29,54
360240,note_off,0,0,1,,,,,,,,,0,,,70,0
360360,note_on,120,0,1,,,,,,,,,0,,,81,54
360360,note_off,120,0,4,,,,,,,,,3,,,41,0
360360,note_on,0,0,4,,,,,,,,,3,,,41,54
360480,note_off,120,0,4,,,,,,,,,3,,,29,0
360480,note_off,120,0,1,,,,,,,,,0,,,81,0
360480,note_on,0,0,4,,,,,,,,,3,,,29,55
360480,note_on,0,0,1,,,,,,,,,0,,,74,55
360480,note_off,0,0,1,,,,,,,,,0,,,72,0
360600,note_on,120,0,1,,,,,,,,,0,,,82,55
360600,note_off,120,0,4,,,,,,,,,3,,,41,0
360600,note_on,0,0,4,,,,,,,,,3,,,41,55
360720,note_off,120,0,1,,,,,,,,,0,,,82,0
360720,note_off,0,0,1,,,,,,,,,0,,,74,0
360720,note_on,0,0,1,,,,,,,,,0,,,76,56
360720,note_on,0,0,4,,,,,,,,,3,,,29,56
360720,note_off,120,0,4,,,,,,,,,3,,,29,0
360840,note_on,0,0,4,,,,,,,,,3,,,41,57
360840,note_off,120,0,4,,,,,,,,,3,,,41,0
360840,set_tempo,1800,1,0,,,,,,550458,,,,,,,
360840,note_on,120,0,1,,,,,,,,,0,,,84,57
360960,note_off,0,0,4,,,,,,,,,3,,,29,0
360960,note_off,120,0,4,,,,,,,,,3,,,41,0
360960,note_on,0,0,1,,,,,,,,,0,,,81,57
360960,set_tempo,120,1,0,,,,,,540540,,,,,,,
360960,note_off,0,0,1,,,,,,,,,0,,,76,0
360960,note_off,120,0,1,,,,,,,,,0,,,84,0
360960,note_on,0,0,4,,,,,,,,,3,,,41,57
361080,note_on,120,0,4,,,,,,,,,3,,,45,58
361080,note_on,120,0,1,,,,,,,,,0,,,77,58
361087,note_off,7,0,1,,,,,,,,,0,,,81,0
361200,note_off,120,0,4,,,,,,,,,3,,,45,0
361200,note_off,113,0,1,,,,,,,,,0,,,77,0
361200,note_on,0,0,1,,,,,,,,,0,,,84,58
361200,note_on,0,0,4,,,,,,,,,3,,,48,58
361320,note_on,120,0,1,,,,,,,,,0,,,72,59
361320,note_on,0,0,4,,,,,,,,,3,,,53,59
361320,note_off,120,0,4,,,,,,,,,3,,,48,0
361432,note_off,112,0,4,,,,,,,,,3,,,41,0
361440,note_off,8,0,4,,,,,,,,,3,,,53,0
361440,note_on,0,0,4,,,,,,,,,3,,,43,60
361440,note_off,120,0,1,,,,,,,,,0,,,84,0
361440,note_on,0,0,1,,,,,,,,,0,,,84,60
361560,note_on,120,0,4,,,,,,,,,3,,,52,60
361560,note_off,120,0,1,,,,,,,,,0,,,72,0
361560,note_on,0,0,1,,,,,,,,,0,,,72,60
361680,note_on,0,0,4,,,,,,,,,3,,,45,61
361680,note_off,0,0,4,,,,,,,,,3,,,43,0
361680,note_off,120,0,4,,,,,,,,,3,,,52,0
361680,note_off,120,0,1,,,,,,,,,0,,,84,0
361680,note_on,0,0,1,,,,,,,,,0,,,84,61
361800,note_on,120,0,4,,,,,,,,,3,,,53,61
361800,note_on,0,0,1,,,,,,,,,0,,,72,61
361800,note_off,120,0,1,,,,,,,,,0,,,72,0
361920,note_off,120,0,4,,,,,,,,,3,,,53,0
361920,note_off,0,0,4,,,,,,,,,3,,,45,0
361920,note_on,0,0,4,,,,,,,,,3,,,46,62
361920,note_off,120,0,1,,,,,,,,,0,,,84,0
361920,note_on,0,0,1,,,,,,,,,0,,,84,62
362025,note_off,105,0,1,,,,,,,,,0,,,72,0
362040,note_on,120,0,4,,,,,,,,,3,,,55,63
362040,note_on,15,0,1,,,,,,,,,0,,,72,63
362160,note_off,120,0,4,,,,,,,,,3,,,55,0
362160,note_off,0,0,4,,,,,,,,,3,,,46,0
362160,note_on,0,0,4,,,,,,,,,3,,,48,63
362160,note_off,120,0,1,,,,,,,,,0,,,84,0
362160,note_on,0,0,1,,,,,,,,,0,,,84,63
362280,note_on,120,0,4,,,,,,,,,3,,,57,64
362280,note_on,0,0,1,,,,,,,,,0,,,72,64
362280,note_off,120,0,1,,,,,,,,,0,,,72,0
362400,note_on,0,0,4,,,,,,,,,3,,,50,64
362400,note_off,0,0,4,,,,,,,,,3,,,48,0
362400,note_off,120,0,4,,,,,,,,,3,,,57,0
362400,note_on,0,0,1,,,,,,,,,0,,,84,64
362400,note_off,120,0,1,,,,,,,,,0,,,84,0
362520,note_on,120,0,4,,,,,,,,,3,,,58,65
362520,note_off,120,0,1,,,,,,,,,0,,,72,0
362520,note_on,0,0,1,,,,,,,,,0,,,72,65
362640,note_off,0,0,4,,,,,,,,,3,,,50,0
362640,note_off,120,0,4,,,,,,,,,3,,,58,0
362640,note_off,120,0,1,,,,,,,,,0,,,84,0
362640,note_on,0,0,1,,,,,,,,,0,,,84,66
362640,note_on,0,0,4,,,,,,,,,3,,,52,66
362760,set_tempo,1800,1,0,,,,,,550458,,,,,,,
362760,note_on,0,0,1,,,,,,,,,0,,,72,66
362760,note_off,120,0,1,,,,,,,,,0,,,72,0
362760,note_on,120,0,4,,,,,,,,,3,,,60,66
362880,note_off,0,0,1,,,,,,,,,0,,,84,0
362880,set_tempo,120,1,0,,,,,,540540,,,,,,,
362880,note_on,0,0,1,,,,,,,,,0,,,69,67
362880,note_on,0,0,4,,,,,,,,,3,,,53,67
362880,note_off,120,0,1,,,,,,,,,0,,,72,0
362880,note_off,0,0,4,,,,,,,,,3,,,52,0
362880,note_off,120,0,4,,,,,,,,,3,,,60,0
363000,note_on,120,0,4,,,,,,,,,3,,,57,67
363000,note_on,120,0,1,,,,,,,,,0,,,72,67
363120,note_off,120,0,4,,,,,,,,,3,,,57,0
363120,note_on,0,0,1,,,,,,,,,0,,,77,68
363120,note_on,0,0,4,,,,,,,,,3,,,60,68
363120,note_off,120,0,1,,,,,,,,,0,,,72,0
363240,note_on,0,0,1,,,,,,,,,0,,,81,69
363240,note_on,0,0,4,,,,,,,,,3,,,65,69
363240,note_off,120,0,4,,,,,,,,,3,,,60,0
363240,note_off,120,0,1,,,,,,,,,0,,,77,0
363360,note_on,0,0,1,,,,,,,,,0,,,72,69
363360,note_off,0,0,1,,,,,,,,,0,,,69,0
363360,note_off,120,0,1,,,,,,,,,0,,,81,0
363360,note_off,120,0,4,,,,,,,,,3,,,65,0
363360,note_on,0,0,4,,,,,,,,,3,,,63,69
363360,note_off,0,0,4,,,,,,,,,3,,,53,0
363480,note_on,120,0,1,,,,,,,,,0,,,81,70
363480,note_on,120,0,4,,,,,,,,,3,,,65,70
363600,note_off,0,0,4,,,,,,,,,3,,,63,0
363600,note_on,0,0,4,,,,,,,,,3,,,62,70
363600,note_off,120,0,1,,,,,,,,,0,,,81,0
363600,note_off,0,0,1,,,,,,,,,0,,,72,0
363600,note_off,120,0,4,,,,,,,,,3,,,65,0
363600,note_on,0,0,1,,,,,,,,,0,,,74,70
363720,note_on,120,0,1,,,,,,,,,0,,,82,71
363720,note_on,120,0,4,,,,,,,,,3,,,65,71
363840,note_off,0,0,1,,,,,,,,,0,,,74,0
363840,note_off,120,0,4,,,,,,,,,3,,,65,0
363840,note_on,0,0,1,,,,,,,,,0,,,75,72
363840,note_on,0,0,4,,,,,,,,,3,,,60,72
363840,note_off,0,0,4,,,,,,,,,3,,,62,0
363840,note_off,120,0,1,,,,,,,,,0,,,82,0
363960,note_on,120,0,1,,,,,,,,,0,,,84,72
363960,note_on,120,0,4,,,,,,,,,3,,,65,72
364080,note_on,0,0,1,,,,,,,,,0,,,77,73
364080,note_off,0,0,1,,,,,,,,,0,,,75,0
364080,note_off,120,0,1,,,,,,,,,0,,,84,0
364080,note_off,0,0,4,,,,,,,,,3,,,60,0
364080,note_on,0,0,4,,,,,,,,,3,,,58,73
364080,note_off,120,0,4,,,,,,,,,3,,,65,0
364200,note_on,120,0,4,,,,,,,,,3,,,65,73
364200,note_on,120,0,1,,,,,,,,,0,,,86,73
364320,note_on,0,0,4,,,,,,,,,3,,,57,74
364320,note_on,0,0,1,,,,,,,,,0,,,84,74
364320,note_off,0,0,1,,,,,,,,,0,,,77,0
364320,note_off,0,0,4,,,,,,,,,3,,,58,0
364320,note_off,120,0,4,,,,,,,,,3,,,65,0
364320,note_off,120,0,1,,,,,,,,,0,,,86,0
364440,note_on,120,0,1,,,,,,,,,0,,,87,75
364440,note_on,120,0,4,,,,,,,,,3,,,65,75
364560,note_off,0,0,4,,,,,,,,,3,,,57,0
364560,note_on,0,0,4,,,,,,,,,3,,,53,75
364560,note_on,0,0,1,,,,,,,,,0,,,81,75
364560,note_off,0,0,1,,,,,,,,,0,,,84,0
364560,note_off,120,0,1,,,,,,,,,0,,,87,0
364560,note_off,120,0,4,,,,,,,,,3,,,65,0
364680,note_on,120,0,1,,,,,,,,,0,,,89,77
364680,set_tempo,1800,1,0,,,,,,550458,,,,,,,
364680,note_on,120,0,4,,,,,,,,,3,,,60,77
364800,note_off,0,0,4,,,,,,,,,3,,,53,0
364800,note_on,0,0,4,,,,,,,,,3,,,58,63
364800,note_off,120,0,1,,,,,,,,,0,,,89,0
364800,note_off,0,0,1,,,,,,,,,0,,,81,0
364800,note_on,0,0,1,,,,,,,,,0,,,86,63
364800,note_off,120,0,4,,,,,,,,,3,,,60,0
364800,set_tempo,120,1,0,,,,,,540540,,,,,,,
364920,note_on,120,0,1,,,,,,,,,0,,,82,64
364920,note_on,120,0,4,,,,,,,,,3,,,62,64
365040,note_off,120,0,4,,,,,,,,,3,,,62,0
365040,note_on,0,0,1,,,,,,,,,0,,,89,63
365040,note_off,0,0,1,,,,,,,,,0,,,86,0
365040,note_off,120,0,1,,,,,,,,,0,,,82,0
365040,note_off,0,0,4,,,,,,,,,3,,,58,0
365040,note_on,0,0,4,,,,,,,,,3,,,53,63
365160,note_on,120,0,4,,,,,,,,,3,,,60,62
365160,note_on,120,0,1,,,,,,,,,0,,,81,62
365280,note_off,120,0,1,,,,,,,,,0,,,81,0
365280,note_off,0,0,1,,,,,,,,,0,,,89,0
365280,note_on,0,0,1,,,,,,,,,0,,,82,61
365280,note_off,120,0,4,,,,,,,,,3,,,60,0
365280,note_off,0,0,4,,,,,,,,,3,,,53,0
365280,note_on,0,0,4,,,,,,,,,3,,,55,61
365400,note_on,120,0,4,,,,,,,,,3,,,58,60
365400,note_on,120,0,1,,,,,,,,,0,,,79,60
365520,note_on,0,0,4,,,,,,,,,3,,,50,59
365520,note_off,120,0,4,,,,,,,,,3,,,58,0
365520,note_off,0,0,1,,,,,,,,,0,,,82,0
365520,note_off,120,0,1,,,,,,,,,0,,,79,0
365520,note_on,0,0,1,,,,,,,,,0,,,86,59
365520,note_off,0,0,4,,,,,,,,,3,,,55,0
365640,note_on,120,0,4,,,,,,,,,3,,,57,58
365640,note_on,120,0,1,,,,,,,,,0,,,77,58
365760,note_off,120,0,4,,,,,,,,,3,,,57,0
365760,note_off,0,0,4,,,,,,,,,3,,,50,0
365760,note_on,0,0,4,,,,,,,,,3,,,51,57
365760,note_on,0,0,1,,,,,,,,,0,,,79,57
365760,note_off,0,0,1,,,,,,,,,0,,,86,0
365760,note_off,120,0,1,,,,,,,,,0,,,77,0
365880,note_on,120,0,4,,,,,,,,,3,,,55,55
365880,note_on,120,0,1,,,,,,,,,0,,,75,55
366000,note_off,0,0,4,,,,,,,,,3,,,51,0
366000,note_off,120,0,4,,,,,,,,,3,,,55,0
366000,note_off,120,0,1,,,,,,,,,0,,,75,0
366000,note_off,0,0,1,,,,,,,,,0,,,79,0
366000,note_on,0,0,1,,,,,,,,,0,,,82,54
366000,note_on,0,0,4,,,,,,,,,3,,,46,54
366120,note_on,120,0,4,,,,,,,,,3,,,53,53
366120,note_on,120,0,1,,,,,,,,,0,,,74,53
366240,note_off,120,0,1,,,,,,,,,0,,,74,0
366240,note_on,0,0,1,,,,,,,,,0,,,75,52
366240,note_off,0,0,1,,,,,,,,,0,,,82,0
366240,note_on,0,0,4,,,,,,,,,3,,,48,52
366240,note_off,0,0,4,,,,,,,,,3,,,46,0
366240,note_off,120,0,4,,,,,,,,,3,,,53,0
366360,note_on,120,0,1,,,,,,,,,0,,,72,51
366360,note_on,120,0,4,,,,,,,,,3,,,51,51
366480,note_on,0,0,4,,,,,,,,,3,,,43,50
366480,note_off,0,0,4,,,,,,,,,3,,,48,0
366480,note_off,120,0,4,,,,,,,,,3,,,51,0
366480,note_off,120,0,1,,,,,,,,,0,,,72,0
366480,note_off,0,0,1,,,,,,,,,0,,,75,0
366480,note_on,0,0,1,,,,,,,,,0,,,79,50
366600,note_on,120,0,1,,,,,,,,,0,,,70,49
366600,note_on,120,0,4,,,,,,,,,3,,,50,49
366720,note_off,120,0,1,,,,,,,,,0,,,70,0
366720,note_off,0,0,1,,,,,,,,,0,,,79,0
366720,note_on,0,0,1,,,,,,,,,0,,,77,48
366720,note_off,0,0,4,,,,,,,,,3,,,43,0
366720,note_off,120,0,4,,,,,,,,,3,,,50,0
366720,note_on,0,0,4,,,,,,,,,3,,,45,48
366840,note_on,120,0,4,,,,,,,,,3,,,48,49
366840,note_on,120,0,1,,,,,,,,,0,,,72,49
366960,note_off,120,0,4,,,,,,,,,3,,,48,0
366960,note_off,0,0,4,,,,,,,,,3,,,45,0
366960,note_on,0,0,1,,,,,,,,,0,,,69,50
366960,note_off,0,0,1,,,,,,,,,0,,,77,0
366960,note_off,120,0,1,,,,,,,,,0,,,72,0
366960,note_on,0,0,4,,,,,,,,,3,,,41,50
367080,note_on,120,0,1,,,,,,,,,0,,,75,51
367080,note_on,120,0,4,,,,,,,,,3,,,53,51
367200,note_off,120,0,4,,,,,,,,,3,,,53,0
367200,note_off,0,0,4,,,,,,,,,3,,,41,0
367200,note_on,0,0,4,,,,,,,,,3,,,43,52
367200,note_on,0,0,1,,,,,,,,,0,,,74,52
367200,note_off,120,0,1,,,,,,,,,0,,,75,0
367200,note_off,0,0,1,,,,,,,,,0,,,69,0
367320,note_on,120,0,1,,,,,,,,,0,,,70,53
367320,note_on,120,0,4,,,,,,,,,3,,,55,53
367440,note_off,120,0,4,,,,,,,,,3,,,55,0
367440,note_on,0,0,4,,,,,,,,,3,,,39,54
367440,note_on,0,0,1,,,,,,,,,0,,,67,54
367440,note_off,0,0,1,,,,,,,,,0,,,74,0
367440,note_off,120,0,1,,,,,,,,,0,,,70,0
367440,note_off,0,0,4,,,,,,,,,3,,,43,0
367560,note_on,120,0,1,,,,,,,,,0,,,72,55
367560,note_on,120,0,4,,,,,,,,,3,,,51,55
367680,note_off,120,0,1,,,,,,,,,0,,,72,0
367680,note_on,0,0,1,,,,,,,,,0,,,65,55
367680,note_on,0,0,1,,,,,,,,,0,,,62,55
367680,note_off,0,0,1,,,,,,,,,0,,,67,0
367680,note_off,120,0,4,,,,,,,,,3,,,51,0
367680,note_off,0,0,4,,,,,,,,,3,,,39,0
367680,note_on,0,0,4,,,,,,,,,3,,,41,55
367800,note_on,120,0,4,,,,,,,,,3,,,53,57
367800,note_on,120,0,1,,,,,,,,,0,,,72,57
367920,note_off,120,0,4,,,,,,,,,3,,,53,0
367920,note_on,0,0,1,,,,,,,,,0,,,65,59
367920,note_on,0,0,1,,,,,,,,,0,,,61,59
367920,note_off,0,0,4,,,,,,,,,3,,,41,0
367920,note_off,0,0,1,,,,,,,,,0,,,65,0
367920,note_off,120,0,1,,,,,,,,,0,,,72,0
367920,note_off,0,0,1,,,,,,,,,0,,,62,0
367920,note_on,0,0,4,,,,,,,,,3,,,41,59
368040,note_on,120,0,4,,,,,,,,,3,,,53,61
368040,note_on,120,0,1,,,,,,,,,0,,,70,61
368160,note_off,120,0,1,,,,,,,,,0,,,70,0
368160,note_off,0,0,1,,,,,,,,,0,,,61,0
368160,note_off,0,0,1,,,,,,,,,0,,,65,0
368160,note_on,0,0,4,,,,,,,,,3,,,41,63
368160,note_off,0,0,4,,,,,,,,,3,,,41,0
368160,note_off,120,0,4,,,,,,,,,3,,,53,0
368160,note_on,0,0,1,,,,,,,,,0,,,60,63
368160,note_on,0,0,1,,,,,,,,,0,,,63,63
368280,note_on,120,0,1,,,,,,,,,0,,,70,65
368280,note_on,120,0,4,,,,,,,,,3,,,53,65
368400,note_off,0,0,4,,,,,,,,,3,,,41,0
368400,note_on,0,0,4,,,,,,,,,3,,,41,67
368400,note_off,0,0,1,,,,,,,,,0,,,60,0
368400,note_off,120,0,1,,,,,,,,,0,,,70,0
368400,note_off,120,0,4,,,,,,,,,3,,,53,0
368400,note_on,0,0,1,,,,,,,,,0,,,63,67
368400,note_on,0,0,1,,,,,,,,,0,,,60,67
368400,note_off,0,0,1,,,,,,,,,0,,,63,0
368520,note_on,120,0,1,,,,,,,,,0,,,69,69
368520,note_on,120,0,4,,,,,,,,,3,,,53,69
368520,set_tempo,3720,1,0,,,,,,550458,,,,,,,
368640,note_off,120,0,4,,,,,,,,,3,,,53,0
368640,note_off,0,0,4,,,,,,,,,3,,,41,0
368640,note_on,0,0,4,,,,,,,,,3,,,58,53
368640,set_tempo,120,1,0,,,,,,540540,,,,,,,
368640,note_off,120,0,1,,,,,,,,,0,,,69,0
368640,note_off,0,0,1,,,,,,,,,0,,,63,0
368640,note_off,0,0,1,,,,,,,,,0,,,60,0
368640,note_on,0,0,1,,,,,,,,,0,,,73,53
368760,note_on,120,0,4,,,,,,,,,3,,,61,53
368760,note_on,120,0,1,,,,,,,,,0,,,70,53
368880,note_off,120,0,1,,,,,,,,,0,,,70,0
368880,note_off,0,0,1,,,,,,,,,0,,,73,0
368880,note_off,0,0,4,,,,,,,,,3,,,58,0
368880,note_on,0,0,4,,,,,,,,,3,,,53,52
368880,note_off,120,0,4,,,,,,,,,3,,,61,0
368880,note_on,0,0,1,,,,,,,,,0,,,77,52
369000,note_on,120,0,1,,,,,,,,,0,,,68,51
369000,note_on,120,0,4,,,,,,,,,3,,,60,51
369120,note_on,0,0,4,,,,,,,,,3,,,54,51
369120,note_off,120,0,4,,,,,,,,,3,,,60,0
369120,note_off,120,0,1,,,,,,,,,0,,,68,0
369120,note_off,0,0,1,,,,,,,,,0,,,77,0
369120,note_on,0,0,1,,,,,,,,,0,,,70,51
369120,note_off,0,0,4,,,,,,,,,3,,,53,0
369240,note_on,120,0,4,,,,,,,,,3,,,58,50
369240,note_on,120,0,1,,,,,,,,,0,,,66,50
369360,note_off,120,0,1,,,,,,,,,0,,,66,0
369360,note_off,0,0,1,,,,,,,,,0,,,70,0
369360,note_on,0,0,1,,,,,,,,,0,,,73,50
369360,note_off,0,0,4,,,,,,,,,3,,,54,0
369360,note_on,0,0,4,,,,,,,,,3,,,49,50
369360,note_off,120,0,4,,,,,,,,,3,,,58,0
369480,note_on,120,0,4,,,,,,,,,3,,,56,49
369480,note_on,120,0,1,,,,,,,,,0,,,65,49
369600,note_off,0,0,1,,,,,,,,,0,,,73,0
369600,note_off,120,0,1,,,,,,,,,0,,,65,0
369600,note_off,120,0,4,,,,,,,,,3,,,56,0
369600,note_off,0,0,4,,,,,,,,,3,,,49,0
369600,note_on,0,0,4,,,,,,,,,3,,,51,48
369600,note_on,0,0,1,,,,,,,,,0,,,66,48
369720,note_on,120,0,1,,,,,,,,,0,,,63,48
369720,note_on,120,0,4,,,,,,,,,3,,,54,48
369840,note_on,0,0,4,,,,,,,,,3,,,46,47
369840,note_off,120,0,4,,,,,,,,,3,,,54,0
369840,note_on,0,0,1,,,,,,,,,0,,,70,47
369840,note_off,0,0,1,,,,,,,,,0,,,66,0
369840,note_off,120,0,1,,,,,,,,,0,,,63,0
369840,note_off,0,0,4,,,,,,,,,3,,,51,0
369960,note_on,120,0,4,,,,,,,,,3,,,53,47
369960,note_on,120,0,1,,,,,,,,,0,,,61,47
370080,note_off,0,0,4,,,,,,,,,3,,,46,0
370080,note_on,0,0,4,,,,,,,,,3,,,48,46
370080,note_on,0,0,1,,,,,,,,,0,,,68,46
370080,note_off,0,0,1,,,,,,,,,0,,,70,0
370080,note_off,120,0,1,,,,,,,,,0,,,61,0
370080,note_off,120,0,4,,,,,,,,,3,,,53,0
370200,note_on,120,0,4,,,,,,,,,3,,,51,45
370200,note_on,120,0,1,,,,,,,,,0,,,63,45
370320,note_on,0,0,1,,,,,,,,,0,,,60,45
370320,note_off,120,0,1,,,,,,,,,0,,,63,0
370320,note_off,0,0,1,,,,,,,,,0,,,68,0
370320,note_off,120,0,4,,,,,,,,,3,,,51,0
370320,note_off,0,0,4,,,,,,,,,3,,,48,0
370320,note_on,0,0,4,,,,,,,,,3,,,44,45
370440,note_on,120,0,4,,,,,,,,,3,,,51,44
370440,note_on,120,0,1,,,,,,,,,0,,,66,44
370560,note_off,120,0,4,,,,,,,,,3,,,51,0
370560,note_off,0,0,4,,,,,,,,,3,,,44,0
370560,note_on,0,0,4,,,,,,,,,3,,,37,46
370560,note_off,0,0,1,,,,,,,,,0,,,60,0
370560,note_on,0,0,1,,,,,,,,,0,,,65,46
370560,note_off,120,0,1,,,,,,,,,0,,,66,0
370680,note_on,120,0,1,,,,,,,,,0,,,56,49
370680,note_on,120,0,4,,,,,,,,,3,,,49,49
370800,note_off,120,0,4,,,,,,,,,3,,,49,0
370800,note_on,0,0,1,,,,,,,,,0,,,54,52
370800,note_on,0,0,1,,,,,,,,,0,,,58,52
370800,note_off,120,0,1,,,,,,,,,0,,,56,0
370800,note_off,0,0,4,,,,,,,,,3,,,37,0
370800,note_off,0,0,1,,,,,,,,,0,,,65,0
370800,note_on,0,0,4,,,,,,,,,3,,,37,52
370920,note_on,120,0,4,,,,,,,,,3,,,49,55
370920,note_on,120,0,1,,,,,,,,,0,,,63,55
371040,note_off,120,0,1,,,,,,,,,0,,,63,0
371040,note_off,0,0,1,,,,,,,,,0,,,54,0
371040,note_off,0,0,1,,,,,,,,,0,,,58,0
371040,note_on,0,0,1,,,,,,,,,0,,,56,59
371040,note_on,0,0,1,,,,,,,,,0,,,53,59
371040,note_off,120,0,4,,,,,,,,,3,,,49,0
371040,note_off,0,0,4,,,,,,,,,3,,,37,0
371040,note_on,0,0,4,,,,,,,,,3,,,37,59
371160,note_on,120,0,4,,,,,,,,,3,,,49,62
371160,note_on,120,0,1,,,,,,,,,0,,,61,62
371280,note_off,120,0,4,,,,,,,,,3,,,49,0
371280,note_off,0,0,4,,,,,,,,,3,,,37,0
371280,note_on,0,0,4,,,,,,,,,3,,,37,65
371280,note_off,120,0,1,,,,,,,,,0,,,61,0
371280,note_off,0,0,1,,,,,,,,,0,,,53,0
371280,note_off,0,0,1,,,,,,,,,0,,,56,0
371280,note_on,0,0,1,,,,,,,,,0,,,54,65
371280,note_on,0,0,1,,,,,,,,,0,,,51,65
371280,set_tempo,2640,1,0,,,,,,550458,,,,,,,
371400,note_on,120,0,1,,,,,,,,,0,,,60,68
371400,set_tempo,120,1,0,,,,,,582524,,,,,,,
371400,note_on,120,0,4,,,,,,,,,3,,,49,68
371520,note_on,0,0,1,,,,,,,,,0,,,50,76
371520,note_off,0,0,1,,,,,,,,,0,,,54,0
371520,note_off,0,0,1,,,,,,,,,0,,,51,0
371520,note_off,120,0,1,,,,,,,,,0,,,60,0
371520,set_tempo,120,1,0,,,,,,540540,,,,,,,
371520,note_on,0,0,4,,,,,,,,,3,,,38,76
371520,note_off,0,0,4,,,,,,,,,3,,,37,0
371520,note_off,120,0,4,,,,,,,,,3,,,49,0
371640,note_on,0,0,1,,,,,,,,,0,,,59,76
371640,note_off,120,0,1,,,,,,,,,0,,,50,0
371760,note_off,120,0,1,,,,,,,,,0,,,59,0
371760,note_on,0,0,1,,,,,,,,,0,,,53,76
371880,note_on,120,0,1,,,,,,,,,0,,,55,77
371902,note_off,22,0,1,,,,,,,,,0,,,53,0
372000,note_off,98,0,1,,,,,,,,,0,,,55,0
372000,note_on,0,0,1,,,,,,,,,0,,,56,77
372120,note_off,120,0,1,,,,,,,,,0,,,56,0
372120,note_on,0,0,1,,,,,,,,,0,,,55,77
372240,note_off,120,0,1,,,,,,,,,0,,,55,0
372240,note_on,0,0,1,,,,,,,,,0,,,56,77
372360,note_off,120,0,1,,,,,,,,,0,,,56,0
372360,note_on,0,0,1,,,,,,,,,0,,,53,78
372360,set_tempo,840,1,0,,,,,,550458,,,,,,,
372480,set_tempo,120,1,0,,,,,,540540,,,,,,,
372480,note_on,0,0,4,,,,,,,,,3,,,37,78
372480,note_off,960,0,4,,,,,,,,,3,,,38,0
372480,note_off,120,0,1,,,,,,,,,0,,,53,0
372600,note_on,120,0,1,,,,,,,,,0,,,59,78
372720,note_on,0,0,1,,,,,,,,,0,,,53,79
372720,note_off,120,0,1,,,,,,,,,0,,,59,0
372840,note_on,0,0,1,,,,,,,,,0,,,55,79
372840,note_off,120,0,1,,,,,,,,,0,,,53,0
372960,note_off,120,0,1,,,,,,,,,0,,,55,0
372960,note_on,0,0,1,,,,,,,,,0,,,56,79
373080,note_off,120,0,1,,,,,,,,,0,,,56,0
373080,note_on,0,0,1,,,,,,,,,0,,,55,80
373200,note_off,120,0,1,,,,,,,,,0,,,55,0
373200,note_on,0,0,1,,,,,,,,,0,,,56,80
373320,note_on,0,0,1,,,,,,,,,0,,,53,80
373320,note_off,120,0,1,,,,,,,,,0,,,56,0
373320,set_tempo,840,1,0,,,,,,550458,,,,,,,
373440,set_tempo,120,1,0,,,,,,540540,,,,,,,
373440,note_on,0,0,4,,,,,,,,,3,,,36,81
373440,note_off,960,0,4,,,,,,,,,3,,,37,0
373440,note_off,120,0,1,,,,,,,,,0,,,53,0
373560,note_on,120,0,1,,,,,,,,,0,,,60,81
373680,note_off,120,0,1,,,,,,,,,0,,,60,0
373680,note_on,0,0,1,,,,,,,,,0,,,53,81
373800,note_on,0,0,1,,,,,,,,,0,,,55,82
373800,note_off,120,0,1,,,,,,,,,0,,,53,0
373920,note_off,120,0,1,,,,,,,,,0,,,55,0
373920,note_on,0,0,1,,,,,,,,,0,,,56,82
374040,note_on,0,0,1,,,,,,,,,0,,,55,82
374040,note_off,120,0,1,,,,,,,,,0,,,56,0
374160,note_on,0,0,1,,,,,,,,,0,,,56,83
374160,note_off,120,0,1,,,,,,,,,0,,,55,0
374280,note_off,120,0,1,,,,,,,,,0,,,56,0
374280,note_on,0,0,1,,,,,,,,,0,,,53,83
374280,set_tempo,840,1,0,,,,,,550458,,,,,,,
374400,note_on,0,0,4,,,,,,,,,3,,,35,83
374400,note_off,120,0,1,,,,,,,,,0,,,53,0
374400,note_off,960,0,4,,,,,,,,,3,,,36,0
374400,set_tempo,120,1,0,,,,,,540540,,,,,,,
374520,note_on,120,0,1,,,,,,,,,0,,,53,84
374640,note_on,0,0,1,,,,,,,,,0,,,56,84
374640,note_off,120,0,1,,,,,,,,,0,,,53,0
374760,note_off,120,0,1,,,,,,,,,0,,,56,0
374760,note_on,0,0,1,,,,,,,,,0,,,62,84
374880,note_off,120,0,1,,,,,,,,,0,,,62,0
374880,note_off,480,0,4,,,,,,,,,3,,,35,0
374880,note_on,0,0,4,,,,,,,,,3,,,35,84
375000,note_on,120,0,1,,,,,,,,,0,,,53,85
375120,note_off,120,0,1,,,,,,,,,0,,,53,0
375120,note_on,0,0,1,,,,,,,,,0,,,56,85
375240,note_off,120,0,1,,,,,,,,,0,,,56,0
375240,note_on,0,0,1,,,,,,,,,0,,,62,85
375240,set_tempo,840,1,0,,,,,,550458,,,,,,,
375360,set_tempo,120,1,0,,,,,,540540,,,,,,,
375360,note_off,480,0,4,,,,,,,,,3,,,35,0
375360,note_on,0,0,1,,,,,,,,,0,,,48,42
375360,note_off,120,0,1,,,,,,,,,0,,,62,0
375480,note_on,120,0,4,,,,,,,,,3,,,36,42
375480,note_on,120,0,1,,,,,,,,,0,,,52,42
375600,note_on,0,0,4,,,,,,,,,3,,,40,42
375600,note_off,120,0,4,,,,,,,,,3,,,36,0
375600,note_on,0,0,1,,,,,,,,,0,,,55,42
375600,note_off,120,0,1,,,,,,,,,0,,,52,0
375720,note_off,120,0,1,,,,,,,,,0,,,55,0
375720,note_on,0,0,1,,,,,,,,,0,,,60,43
375720,note_on,120,0,4,,,,,,,,,3,,,36,43
375840,note_on,0,0,4,,,,,,,,,3,,,41,43
375840,note_off,0,0,4,,,,,,,,,3,,,40,0
375840,note_off,120,0,1,,,,,,,,,0,,,60,0
375840,note_off,120,0,4,,,,,,,,,3,,,36,0
375840,note_off,0,0,1,,,,,,,,,0,,,48,0
375840,note_on,0,0,1,,,,,,,,,0,,,49,43
375960,note_on,120,0,4,,,,,,,,,3,,,36,44
375960,note_on,120,0,1,,,,,,,,,0,,,59,44
376080,note_on,0,0,1,,,,,,,,,0,,,48,44
376080,note_off,0,0,1,,,,,,,,,0,,,49,0
376080,note_off,120,0,1,,,,,,,,,0,,,59,0
376080,note_off,0,0,4,,,,,,,,,3,,,41,0
376080,note_on,0,0,4,,,,,,,,,3,,,40,44
376080,note_off,120,0,4,,,,,,,,,3,,,36,0
376200,note_on,120,0,1,,,,,,,,,0,,,60,44
376200,note_on,120,0,4,,,,,,,,,3,,,36,44
376320,note_off,0,0,1,,,,,,,,,0,,,48,0
376320,note_on,0,0,1,,,,,,,,,0,,,60,45
376320,note_off,0,0,4,,,,,,,,,3,,,40,0
376320,note_off,120,0,4,,,,,,,,,3,,,36,0
376320,note_off,120,0,1,,,,,,,,,0,,,60,0
376440,note_on,120,0,1,,,,,,,,,0,,,64,45
376440,note_on,120,0,4,,,,,,,,,3,,,48,45
376560,note_on,0,0,1,,,,,,,,,0,,,67,46
376560,note_off,120,0,1,,,,,,,,,0,,,64,0
376560,note_off,120,0,4,,,,,,,,,3,,,48,0
376560,note_on,0,0,4,,,,,,,,,3,,,52,46
376680,note_on,120,0,4,,,,,,,,,3,,,48,46
376680,note_on,0,0,1,,,,,,,,,0,,,72,46
376680,note_off,120,0,1,,,,,,,,,0,,,67,0
376800,note_off,0,0,4,,,,,,,,,3,,,52,0
376800,note_on,0,0,4,,,,,,,,,3,,,53,46
376800,note_on,0,0,1,,,,,,,,,0,,,61,46
376800,note_off,120,0,1,,,,,,,,,0,,,72,0
376800,note_off,120,0,4,,,,,,,,,3,,,48,0
376800,note_off,0,0,1,,,,,,,,,0,,,60,0
376920,note_on,120,0,1,,,,,,,,,0,,,71,47
376920,note_on,120,0,4,,,,,,,,,3,,,48,47
377040,note_off,120,0,4,,,,,,,,,3,,,48,0
377040,note_off,120,0,1,,,,,,,,,0,,,71,0
377040,note_off,0,0,4,,,,,,,,,3,,,53,0
377040,note_on,0,0,4,,,,,,,,,3,,,52,47
377040,note_off,0,0,1,,,,,,,,,0,,,61,0
377040,note_on,0,0,1,,,,,,,,,0,,,60,47
377160,note_on,120,0,1,,,,,,,,,0,,,72,48
377160,set_tempo,1800,1,0,,,,,,550458,,,,,,,
377160,note_on,120,0,4,,,,,,,,,3,,,48,48
377280,note_off,120,0,1,,,,,,,,,0,,,72,0
377280,set_tempo,120,1,0,,,,,,540540,,,,,,,
377280,note_off,0,0,1,,,,,,,,,0,,,60,0
377280,note_off,0,0,4,,,,,,,,,3,,,52,0
377280,note_off,120,0,4,,,,,,,,,3,,,48,0
377280,note_on,0,0,1,,,,,,,,,0,,,72,49
377400,note_on,120,0,4,,,,,,,,,3,,,67,50
377400,note_on,120,0,1,,,,,,,,,0,,,76,50
377520,note_on,0,0,4,,,,,,,,,3,,,64,52
377520,note_off,120,0,4,,,,,,,,,3,,,67,0
377520,note_off,120,0,1,,,,,,,,,0,,,76,0
377520,note_on,0,0,1,,,,,,,,,0,,,79,52
377640,note_off,120,0,1,,,,,,,,,0,,,79,0
377640,note_on,0,0,1,,,,,,,,,0,,,84,54
377640,note_on,120,0,4,,,,,,,,,3,,,67,54
377760,note_on,0,0,4,,,,,,,,,3,,,65,56
377760,note_off,120,0,1,,,,,,,,,0,,,84,0
377760,note_on,0,0,1,,,,,,,,,0,,,73,56
377760,note_off,120,0,4,,,,,,,,,3,,,67,0
377760,note_off,0,0,4,,,,,,,,,3,,,64,0
377767,note_off,7,0,1,,,,,,,,,0,,,72,0
377880,note_on,113,0,1,,,,,,,,,0,,,83,58
377880,note_on,120,0,4,,,,,,,,,3,,,67,58
378000,note_off,0,0,1,,,,,,,,,0,,,73,0
378000,note_off,120,0,4,,,,,,,,,3,,,67,0
378000,note_on,0,0,1,,,,,,,,,0,,,72,60
378000,note_off,0,0,4,,,,,,,,,3,,,65,0
378000,note_on,0,0,4,,,,,,,,,3,,,64,60
378000,note_off,120,0,1,,,,,,,,,0,,,83,0
378120,note_on,120,0,4,,,,,,,,,3,,,67,65
378120,note_on,120,0,1,,,,,,,,,0,,,84,65
378240,note_off,0,0,4,,,,,,,,,3,,,64,0
378240,note_off,120,0,4,,,,,,,,,3,,,67,0
378240,note_off,0,0,1,,,,,,,,,0,,,72,0
378240,note_on,0,0,1,,,,,,,,,0,,,73,63
378240,note_off,120,0,1,,,,,,,,,0,,,84,0
378240,note_on,0,0,4,,,,,,,,,3,,,65,63
378360,note_on,120,0,1,,,,,,,,,0,,,83,61
378360,note_on,120,0,4,,,,,,,,,3,,,67,61
378480,note_off,120,0,4,,,,,,,,,3,,,67,0
378480,note_off,0,0,4,,,,,,,,,3,,,65,0
378480,note_on,0,0,4,,,,,,,,,3,,,64,59
378480,note_off,120,0,1,,,,,,,,,0,,,83,0
378480,note_off,0,0,1,,,,,,,,,0,,,73,0
378480,note_on,0,0,1,,,,,,,,,0,,,72,59
378600,note_on,120,0,1,,,,,,,,,0,,,84,57
378600,note_on,120,0,4,,,,,,,,,3,,,67,57
378720,note_off,0,0,1,,,,,,,,,0,,,72,0
378720,note_off,120,0,4,,,,,,,,,3,,,67,0
378720,note_off,0,0,4,,,,,,,,,3,,,64,0
378720,note_on,0,0,4,,,,,,,,,3,,,63,55
378720,note_on,0,0,1,,,,,,,,,0,,,71,55
378720,note_off,120,0,1,,,,,,,,,0,,,84,0
378840,note_on,120,0,1,,,,,,,,,0,,,81,53
378840,note_on,120,0,4,,,,,,,,,3,,,65,53
378960,note_off,0,0,1,,,,,,,,,0,,,71,0
378960,note_on,0,0,4,,,,,,,,,3,,,62,51
378960,note_off,0,0,4,,,,,,,,,3,,,63,0
378960,note_off,120,0,4,,,,,,,,,3,,,65,0
378960,note_off,120,0,1,,,,,,,,,0,,,81,0
378960,note_on,0,0,1,,,,,,,,,0,,,70,51
379080,set_tempo,1800,1,0,,,,,,550458,,,,,,,
379080,note_on,120,0,4,,,,,,,,,3,,,65,48
379080,note_on,120,0,1,,,,,,,,,0,,,82,48
379200,note_on,0,0,1,,,,,,,,,0,,,46,48
379200,note_off,0,0,1,,,,,,,,,0,,,70,0
379200,note_off,0,0,4,,,,,,,,,3,,,62,0
379200,set_tempo,120,1,0,,,,,,540540,,,,,,,
379200,note_off,120,0,1,,,,,,,,,0,,,82,0
379200,note_off,120,0,4,,,,,,,,,3,,,65,0
379320,note_on,120,0,1,,,,,,,,,0,,,50,49
379320,note_on,120,0,4,,,,,,,,,3,,,34,49
379440,note_off,120,0,4,,,,,,,,,3,,,34,0
379440,note_on,0,0,4,,,,,,,,,3,,,38,49
379440,note_off,120,0,1,,,,,,,,,0,,,50,0
379440,note_on,0,0,1,,,,,,,,,0,,,53,49
379560,note_on,120,0,4,,,,,,,,,3,,,34,50
379560,note_on,0,0,1,,,,,,,,,0,,,58,50
379560,note_off,120,0,1,,,,,,,,,0,,,53,0
379680,note_off,120,0,4,,,,,,,,,3,,,34,0
379680,note_off,0,0,4,,,,,,,,,3,,,38,0
379680,note_on,0,0,4,,,,,,,,,3,,,39,50
379680,note_on,0,0,1,,,,,,,,,0,,,47,50
379680,note_off,0,0,1,,,,,,,,,0,,,46,0
379680,note_off,120,0,1,,,,,,,,,0,,,58,0
379800,note_on,120,0,4,,,,,,,,,3,,,34,51
379800,note_on,120,0,1,,,,,,,,,0,,,57,51
379920,note_on,0,0,1,,,,,,,,,0,,,46,51
379920,note_off,120,0,1,,,,,,,,,0,,,57,0
379920,note_on,0,0,4,,,,,,,,,3,,,38,51
379920,note_off,0,0,4,,,,,,,,,3,,,39,0
379920,note_off,120,0,4,,,,,,,,,3,,,34,0
379920,note_off,0,0,1,,,,,,,,,0,,,47,0
380040,note_on,120,0,4,,,,,,,,,3,,,34,52
380040,set_tempo,840,1,0,,,,,,550458,,,,,,,
380040,note_on,120,0,1,,,,,,,,,0,,,58,52
380160,note_off,120,0,4,,,,,,,,,3,,,34,0
380160,note_off,0,0,4,,,,,,,,,3,,,38,0
380160,note_on,0,0,1,,,,,,,,,0,,,58,52
380160,set_tempo,120,1,0,,,,,,540540,,,,,,,
380160,note_off,120,0,1,,,,,,,,,0,,,58,0
380160,note_off,0,0,1,,,,,,,,,0,,,46,0
380280,note_on,120,0,1,,,,,,,,,0,,,62,53
380280,note_on,120,0,4,,,,,,,,,3,,,46,53
380400,note_off,120,0,1,,,,,,,,,0,,,62,0
380400,note_on,0,0,1,,,,,,,,,0,,,65,53
380400,note_on,0,0,4,,,,,,,,,3,,,50,53
380400,note_off,120,0,4,,,,,,,,,3,,,46,0
380520,note_off,120,0,1,,,,,,,,,0,,,65,0
380520,note_on,0,0,1,,,,,,,,,0,,,70,54
380520,note_on,120,0,4,,,,,,,,,3,,,46,54
380640,note_off,0,0,4,,,,,,,,,3,,,50,0
380640,note_off,120,0,4,,,,,,,,,3,,,46,0
380640,note_on,0,0,1,,,,,,,,,0,,,59,55
380640,note_off,120,0,1,,,,,,,,,0,,,70,0
380640,note_on,0,0,4,,,,,,,,,3,,,51,55
380647,note_off,7,0,1,,,,,,,,,0,,,58,0
380760,note_on,120,0,4,,,,,,,,,3,,,46,55
380760,note_on,113,0,1,,,,,,,,,0,,,69,55
380880,note_off,120,0,4,,,,,,,,,3,,,46,0
380880,note_on,0,0,1,,,,,,,,,0,,,58,56
380880,note_off,0,0,4,,,,,,,,,3,,,51,0
380880,note_off,120,0,1,,,,,,,,,0,,,69,0
380880,note_off,0,0,1,,,,,,,,,0,,,59,0
380880,note_on,0,0,4,,,,,,,,,3,,,50,56
381000,note_on,120,0,1,,,,,,,,,0,,,70,58
381000,note_on,120,0,4,,,,,,,,,3,,,46,58
381000,set_tempo,840,1,0,,,,,,550458,,,,,,,
381120,note_off,120,0,1,,,,,,,,,0,,,70,0
381120,note_on,0,0,1,,,,,,,,,0,,,70,59
381120,set_tempo,120,1,0,,,,,,540540,,,,,,,
381120,note_off,120,0,4,,,,,,,,,3,,,46,0
381120,note_off,0,0,1,,,,,,,,,0,,,58,0
381120,note_off,0,0,4,,,,,,,,,3,,,50,0
381240,note_on,120,0,1,,,,,,,,,0,,,74,60
381240,note_on,120,0,4,,,,,,,,,3,,,65,60
381360,note_off,120,0,1,,,,,,,,,0,,,74,0
381360,note_on,0,0,1,,,,,,,,,0,,,77,62
381360,note_on,0,0,4,,,,,,,,,3,,,62,62
381360,note_off,120,0,4,,,,,,,,,3,,,65,0
381480,note_off,120,0,1,,,,,,,,,0,,,77,0
381480,note_on,0,0,1,,,,,,,,,0,,,82,63
381480,note_on,120,0,4,,,,,,,,,3,,,65,63
381600,note_on,0,0,1,,,,,,,,,0,,,71,65
381600,note_off,0,0,1,,,,,,,,,0,,,70,0
381600,note_off,120,0,1,,,,,,,,,0,,,82,0
381600,note_on,0,0,4,,,,,,,,,3,,,63,65
381600,note_off,0,0,4,,,,,,,,,3,,,62,0
381600,note_off,120,0,4,,,,,,,,,3,,,65,0
381720,note_on,120,0,1,,,,,,,,,0,,,81,66
381720,note_on,120,0,4,,,,,,,,,3,,,65,66
381840,note_on,0,0,1,,,,,,,,,0,,,70,67
381840,note_off,0,0,4,,,,,,,,,3,,,63,0
381840,note_off,120,0,1,,,,,,,,,0,,,81,0
381840,note_off,120,0,4,,,,,,,,,3,,,65,0
381840,note_on,0,0,4,,,,,,,,,3,,,62,67
381840,note_off,0,0,1,,,,,,,,,0,,,71,0
381960,note_on,120,0,4,,,,,,,,,3,,,65,69
381960,note_on,120,0,1,,,,,,,,,0,,,82,69
382080,note_off,120,0,1,,,,,,,,,0,,,82,0
382080,note_off,0,0,1,,,,,,,,,0,,,70,0
382080,note_on,0,0,1,,,,,,,,,0,,,71,71
382080,note_off,120,0,4,,,,,,,,,3,,,65,0
382080,note_off,0,0,4,,,,,,,,,3,,,62,0
382080,note_on,0,0,4,,,,,,,,,3,,,63,71
382200,note_on,120,0,1,,,,,,,,,0,,,81,70
382200,note_on,120,0,4,,,,,,,,,3,,,65,70
382320,note_off,120,0,1,,,,,,,,,0,,,81,0
382320,note_off,0,0,1,,,,,,,,,0,,,71,0
382320,note_on,0,0,1,,,,,,,,,0,,,70,68
382320,note_on,0,0,4,,,,,,,,,3,,,62,68
382320,note_off,120,0,4,,,,,,,,,3,,,65,0
382320,note_off,0,0,4,,,,,,,,,3,,,63,0
382440,note_on,120,0,1,,,,,,,,,0,,,82,67
382440,note_on,120,0,4,,,,,,,,,3,,,65,67
382560,note_on,0,0,4,,,,,,,,,3,,,61,65
382560,note_off,0,0,4,,,,,,,,,3,,,62,0
382560,note_on,0,0,1,,,,,,,,,0,,,69,65
382560,note_off,0,0,1,,,,,,,,,0,,,70,0
382560,note_off,120,0,1,,,,,,,,,0,,,82,0
382560,note_off,120,0,4,,,,,,,,,3,,,65,0
382680,note_on,120,0,1,,,,,,,,,0,,,79,63
382680,note_on,120,0,4,,,,,,,,,3,,,63,63
382800,note_off,0,0,4,,,,,,,,,3,,,61,0
382800,note_on,0,0,4,,,,,,,,,3,,,60,62
382800,note_off,120,0,4,,,,,,,,,3,,,63,0
382800,note_on,0,0,1,,,,,,,,,0,,,68,62
382800,note_off,0,0,1,,,,,,,,,0,,,69,0
382800,note_off,120,0,1,,,,,,,,,0,,,79,0
382920,note_on,120,0,4,,,,,,,,,3,,,63,60
382920,note_on,120,0,1,,,,,,,,,0,,,80,60
382920,set_tempo,1800,1,0,,,,,,550458,,,,,,,
383040,note_off,0,0,4,,,,,,,,,3,,,60,0
383040,set_tempo,120,1,0,,,,,,540540,,,,,,,
383040,note_on,0,0,1,,,,,,,,,0,,,44,58
383040,note_off,0,0,1,,,,,,,,,0,,,68,0
383040,note_off,120,0,1,,,,,,,,,0,,,80,0
383040,note_off,120,0,4,,,,,,,,,3,,,63,0
383160,note_on,120,0,4,,,,,,,,,3,,,32,59
383160,note_on,120,0,1,,,,,,,,,0,,,48,59
383280,note_off,120,0,4,,,,,,,,,3,,,32,0
383280,note_on,0,0,4,,,,,,,,,3,,,36,59
383280,note_on,0,0,1,,,,,,,,,0,,,51,59
383280,note_off,120,0,1,,,,,,,,,0,,,48,0
383400,note_off,120,0,1,,,,,,,,,0,,,51,0
383400,note_on,0,0,1,,,,,,,,,0,,,56,60
383400,note_on,120,0,4,,,,,,,,,3,,,32,60
383512,note_off,112,0,1,,,,,,,,,0,,,44,0
383520,note_off,8,0,1,,,,,,,,,0,,,56,0
383520,note_on,0,0,1,,,,,,,,,0,,,45,61
383520,note_off,120,0,4,,,,,,,,,3,,,32,0
383520,note_off,0,0,4,,,,,,,,,3,,,36,0
383520,note_on,0,0,4,,,,,,,,,3,,,37,61
383640,note_on,120,0,1,,,,,,,,,0,,,55,61
383640,note_on,120,0,4,,,,,,,,,3,,,32,61
383760,note_on,0,0,1,,,,,,,,,0,,,44,62
383760,note_off,0,0,1,,,,,,,,,0,,,45,0
383760,note_off,120,0,1,,,,,,,,,0,,,55,0
383760,note_on,0,0,4,,,,,,,,,3,,,36,62
383760,note_off,120,0,4,,,,,,,,,3,,,32,0
383760,note_off,0,0,4,,,,,,,,,3,,,37,0
383880,note_on,120,0,4,,,,,,,,,3,,,32,63
383880,set_tempo,840,1,0,,,,,,550458,,,,,,,
383880,note_on,120,0,1,,,,,,,,,0,,,56,63
384000,note_off,0,0,4,,,,,,,,,3,,,36,0
384000,note_off,120,0,1,,,,,,,,,0,,,56,0
384000,note_off,0,0,1,,,,,,,,,0,,,44,0
384000,note_on,0,0,1,,,,,,,,,0,,,56,63
384000,set_tempo,120,1,0,,,,,,540540,,,,,,,
384000,note_off,120,0,4,,,,,,,,,3,,,32,0
384120,note_on,120,0,4,,,,,,,,,3,,,44,64
384120,note_on,120,0,1,,,,,,,,,0,,,60,64
384240,note_off,120,0,4,,,,,,,,,3,,,44,0
384240,note_off,120,0,1,,,,,,,,,0,,,60,0
384240,note_on,0,0,1,,,,,,,,,0,,,63,65
384240,note_on,0,0,4,,,,,,,,,3,,,48,65
384360,note_off,120,0,1,,,,,,,,,0,,,63,0
384360,note_on,120,0,4,,,,,,,,,3,,,44,65
384360,note_on,0,0,1,,,,,,,,,0,,,68,65
384480,note_off,120,0,1,,,,,,,,,0,,,68,0
384480,note_on,0,0,1,,,,,,,,,0,,,57,66
384480,note_off,120,0,4,,,,,,,,,3,,,44,0
384480,note_off,0,0,4,,,,,,,,,3,,,48,0
384480,note_on,0,0,4,,,,,,,,,3,,,49,66
384487,note_off,7,0,1,,,,,,,,,0,,,56,0
384600,note_on,113,0,1,,,,,,,,,0,,,67,67
384600,note_on,120,0,4,,,,,,,,,3,,,44,67
384720,note_off,120,0,1,,,,,,,,,0,,,67,0
384720,note_off,0,0,1,,,,,,,,,0,,,57,0
384720,note_on,0,0,1,,,,,,,,,0,,,56,68
384720,note_off,120,0,4,,,,,,,,,3,,,44,0
384720,note_on,0,0,4,,,,,,,,,3,,,48,68
384720,note_off,0,0,4,,,,,,,,,3,,,49,0
384840,note_on,120,0,1,,,,,,,,,0,,,68,70
384840,set_tempo,840,1,0,,,,,,550458,,,,,,,
384840,note_on,120,0,4,,,,,,,,,3,,,44,70
384960,note_off,120,0,4,,,,,,,,,3,,,44,0
384960,note_off,0,0,4,,,,,,,,,3,,,48,0
384960,set_tempo,120,1,0,,,,,,540540,,,,,,,
384960,note_off,120,0,1,,,,,,,,,0,,,68,0
384960,note_off,0,0,1,,,,,,,,,0,,,56,0
384960,note_on,0,0,1,,,,,,,,,0,,,68,72
385080,note_on,120,0,4,,,,,,,,,3,,,63,73
385080,note_on,120,0,1,,,,,,,,,0,,,72,73
385200,note_on,0,0,4,,,,,,,,,3,,,60,74
385200,note_off,120,0,1,,,,,,,,,0,,,72,0
385200,note_off,120,0,4,,,,,,,,,3,,,63,0
385200,note_on,0,0,1,,,,,,,,,0,,,75,74
385320,note_off,120,0,1,,,,,,,,,0,,,75,0
385320,note_on,0,0,1,,,,,,,,,0,,,80,76
385320,note_on,120,0,4,,,,,,,,,3,,,63,76
385432,note_off,112,0,1,,,,,,,,,0,,,68,0
385440,note_off,8,0,1,,,,,,,,,0,,,80,0
385440,note_on,0,0,1,,,,,,,,,0,,,69,77
385440,note_off,0,0,4,,,,,,,,,3,,,60,0
385440,note_off,120,0,4,,,,,,,,,3,,,63,0
385440,note_on,0,0,4,,,,,,,,,3,,,61,77
385560,note_on,120,0,1,,,,,,,,,0,,,79,78
385560,note_on,120,0,4,,,,,,,,,3,,,63,78
385680,note_on,0,0,4,,,,,,,,,3,,,60,80
385680,note_off,0,0,4,,,,,,,,,3,,,61,0
385680,note_off,120,0,4,,,,,,,,,3,,,63,0
385680,note_on,0,0,1,,,,,,,,,0,,,68,80
385680,note_off,120,0,1,,,,,,,,,0,,,79,0
385680,note_off,0,0,1,,,,,,,,,0,,,69,0
385800,note_on,120,0,4,,,,,,,,,3,,,63,81
385800,note_on,120,0,1,,,,,,,,,0,,,80,81
385920,note_off,0,0,4,,,,,,,,,3,,,60,0
385920,note_off,120,0,4,,,,,,,,,3,,,63,0
385920,note_on,0,0,4,,,,,,,,,3,,,61,81
385920,note_off,0,0,1,,,,,,,,,0,,,68,0
385920,note_on,0,0,1,,,,,,,,,0,,,69,81
385920,note_off,120,0,1,,,,,,,,,0,,,80,0
386040,note_on,120,0,1,,,,,,,,,0,,,79,81
386040,note_on,120,0,4,,,,,,,,,3,,,63,81
386160,note_off,0,0,4,,,,,,,,,3,,,61,0
386160,note_off,120,0,1,,,,,,,,,0,,,79,0
386160,note_off,0,0,1,,,,,,,,,0,,,69,0
386160,note_off,120,0,4,,,,,,,,,3,,,63,0
386160,note_on,0,0,4,,,,,,,,,3,,,60,81
386160,note_on,0,0,1,,,,,,,,,0,,,68,81
386280,note_on,120,0,1,,,,,,,,,0,,,80,81
386280,note_on,120,0,4,,,,,,,,,3,,,63,81
386400,note_off,120,0,1,,,,,,,,,0,,,80,0
386400,note_off,120,0,4,,,,,,,,,3,,,63,0
386400,note_off,0,0,4,,,,,,,,,3,,,60,0
386400,note_on,0,0,4,,,,,,,,,3,,,61,81
386400,note_on,0,0,1,,,,,,,,,0,,,68,81
386400,note_off,0,0,1,,,,,,,,,0,,,68,0
386520,note_on,120,0,1,,,,,,,,,0,,,77,80
386520,note_on,120,0,4,,,,,,,,,3,,,63,80
386640,note_off,0,0,4,,,,,,,,,3,,,61,0
386640,note_off,120,0,1,,,,,,,,,0,,,77,0
386640,note_off,0,0,1,,,,,,,,,0,,,68,0
386640,note_on,0,0,1,,,,,,,,,0,,,68,80
386640,note_off,120,0,4,,,,,,,,,3,,,63,0
386640,note_on,0,0,4,,,,,,,,,3,,,61,80
386760,note_on,120,0,1,,,,,,,,,0,,,77,80
386760,note_on,120,0,4,,,,,,,,,3,,,63,80
386880,set_tempo,1920,1,0,,,,,,540540,,,,,,,
386880,note_off,120,0,4,,,,,,,,,3,,,63,0
386880,note_off,0,0,4,,,,,,,,,3,,,61,0
386880,note_off,120,0,1,,,,,,,,,0,,,77,0
386880,note_on,0,0,4,,,,,,,,,3,,,59,80
386880,note_off,0,0,1,,,,,,,,,0,,,68,0
386880,note_on,0,0,1,,,,,,,,,0,,,68,80
387000,note_on,120,0,1,,,,,,,,,0,,,77,79
387000,note_on,120,0,4,,,,,,,,,3,,,61,79
387120,note_off,0,0,4,,,,,,,,,3,,,59,0
387120,note_on,0,0,4,,,,,,,,,3,,,58,79
387120,note_off,120,0,1,,,,,,,,,0,,,77,0
387120,note_off,0,0,1,,,,,,,,,0,,,68,0
387120,note_on,0,0,1,,,,,,,,,0,,,66,79
387120,note_off,120,0,4,,,,,,,,,3,,,61,0
387240,note_on,120,0,4,,,,,,,,,3,,,61,79
387240,note_on,120,0,1,,,,,,,,,0,,,78,79
387360,note_off,0,0,4,,,,,,,,,3,,,58,0
387360,note_on,0,0,4,,,,,,,,,3,,,59,79
387360,note_off,120,0,4,,,,,,,,,3,,,61,0
387360,note_off,120,0,1,,,,,,,,,0,,,78,0
387360,note_off,0,0,1,,,,,,,,,0,,,66,0
387360,note_on,0,0,1,,,,,,,,,0,,,68,79
387480,note_on,120,0,4,,,,,,,,,3,,,61,78
387480,note_on,120,0,1,,,,,,,,,0,,,77,78
387600,note_on,0,0,1,,,,,,,,,0,,,66,78
387600,note_off,120,0,1,,,,,,,,,0,,,77,0
387600,note_on,0,0,4,,,,,,,,,3,,,58,78
387600,note_off,0,0,4,,,,,,,,,3,,,59,0
387600,note_off,120,0,4,,,,,,,,,3,,,61,0
387600,note_off,0,0,1,,,,,,,,,0,,,68,0
387720,note_on,120,0,4,,,,,,,,,3,,,61,78
387720,note_on,120,0,1,,,,,,,,,0,,,78,78
387840,note_off,0,0,4,,,,,,,,,3,,,58,0
387840,note_off,120,0,4,,,,,,,,,3,,,61,0
387840,note_off,120,0,1,,,,,,,,,0,,,78,0
387840,note_on,0,0,1,,,,,,,,,0,,,68,78
387840,note_off,0,0,1,,,,,,,,,0,,,66,0
387840,note_on,0,0,4,,,,,,,,,3,,,59,78
387960,note_on,120,0,4,,,,,,,,,3,,,61,78
387960,note_on,120,0,1,,,,,,,,,0,,,77,78
388080,note_off,120,0,4,,,,,,,,,3,,,61,0
388080,note_on,0,0,1,,,,,,,,,0,,,66,77
388080,note_off,0,0,4,,,,,,,,,3,,,59,0
388080,note_off,120,0,1,,,,,,,,,0,,,77,0
388080,note_on,0,0,4,,,,,,,,,3,,,58,77
388080,note_off,0,0,1,,,,,,,,,0,,,68,0
388200,note_on,120,0,1,,,,,,,,,0,,,78,77
388200,note_on,120,0,4,,,,,,,,,3,,,61,77
388320,note_off,120,0,1,,,,,,,,,0,,,78,0
388320,note_off,0,0,1,,,,,,,,,0,,,66,0
388320,note_off,120,0,4,,,,,,,,,3,,,61,0
388320,note_off,0,0,4,,,,,,,,,3,,,58,0
388320,note_on,0,0,4,,,,,,,,,3,,,58,89
388320,note_on,0,0,1,,,,,,,,,0,,,67,89
388440,note_on,120,0,1,,,,,,,,,0,,,75,77
388440,note_on,120,0,4,,,,,,,,,3,,,59,77
388560,note_off,120,0,4,,,,,,,,,3,,,59,0
388560,note_off,0,0,4,,,,,,,,,3,,,58,0
388560,note_on,0,0,4,,,,,,,,,3,,,58,76
388560,note_on,0,0,1,,,,,,,,,0,,,67,76
388560,note_off,0,0,1,,,,,,,,,0,,,67,0
388560,note_off,120,0,1,,,,,,,,,0,,,75,0
388680,note_on,120,0,4,,,,,,,,,3,,,59,76
388680,note_on,120,0,1,,,,,,,,,0,,,75,76
388800,note_off,120,0,1,,,,,,,,,0,,,75,0
388800,note_on,0,0,4,,,,,,,,,3,,,58,76
388800,note_off,0,0,4,,,,,,,,,3,,,58,0
388800,note_off,120,0,4,,,,,,,,,3,,,59,0
388800,note_on,0,0,1,,,,,,,,,0,,,66,76
388800,note_off,0,0,1,,,,,,,,,0,,,67,0
388920,note_on,120,0,1,,,,,,,,,0,,,75,76
388920,note_on,120,0,4,,,,,,,,,3,,,59,76
389040,note_off,0,0,1,,,,,,,,,0,,,66,0
389040,note_on,0,0,1,,,,,,,,,0,,,65,76
389040,note_off,120,0,4,,,,,,,,,3,,,59,0
389040,note_off,0,0,4,,,,,,,,,3,,,58,0
389040,note_on,0,0,4,,,,,,,,,3,,,56,76
389040,note_off,120,0,1,,,,,,,,,0,,,75,0
389160,note_on,120,0,1,,,,,,,,,0,,,77,75
389160,note_on,120,0,4,,,,,,,,,3,,,59,75
389280,note_off,0,0,1,,,,,,,,,0,,,65,0
389280,note_off,120,0,1,,,,,,,,,0,,,77,0
389280,note_on,0,0,1,,,,,,,,,0,,,65,75
389280,note_on,0,0,4,,,,,,,,,3,,,56,75
389280,note_off,0,0,4,,,,,,,,,3,,,56,0
389280,note_off,120,0,4,,,,,,,,,3,,,59,0
389400,note_on,120,0,4,,,,,,,,,3,,,58,75
389400,note_on,120,0,1,,,,,,,,,0,,,74,75
389520,note_on,0,0,4,,,,,,,,,3,,,54,85
389520,note_off,0,0,4,,,,,,,,,3,,,56,0
389520,note_off,120,0,4,,,,,,,,,3,,,58,0
389520,note_on,0,0,1,,,,,,,,,0,,,63,85
389520,note_off,0,0,1,,,,,,,,,0,,,65,0
389520,note_off,120,0,1,,,,,,,,,0,,,74,0
389640,note_on,120,0,4,,,,,,,,,3,,,58,74
389640,note_on,120,0,1,,,,,,,,,0,,,75,74
389760,note_on,0,0,4,,,,,,,,,3,,,54,74
389760,note_off,0,0,4,,,,,,,,,3,,,54,0
389760,note_off,120,0,4,,,,,,,,,3,,,58,0
389760,note_off,0,0,1,,,,,,,,,0,,,63,0
389760,note_on,0,0,1,,,,,,,,,0,,,63,74
389760,note_off,120,0,1,,,,,,,,,0,,,75,0
389880,note_on,120,0,1,,,,,,,,,0,,,72,74
389880,note_on,120,0,4,,,,,,,,,3,,,56,74
390000,note_on,0,0,1,,,,,,,,,0,,,61,84
390000,note_off,0,0,1,,,,,,,,,0,,,63,0
390000,note_off,120,0,1,,,,,,,,,0,,,72,0
390000,note_off,120,0,4,,,,,,,,,3,,,56,0
390000,note_off,0,0,4,,,,,,,,,3,,,54,0
390000,note_on,0,0,4,,,,,,,,,3,,,53,84
390120,note_on,120,0,1,,,,,,,,,0,,,73,73
390120,note_on,120,0,4,,,,,,,,,3,,,56,73
390240,note_on,0,0,4,,,,,,,,,3,,,53,73
390240,note_off,120,0,1,,,,,,,,,0,,,73,0
390240,note_off,120,0,4,,,,,,,,,3,,,56,0
390240,note_off,0,0,1,,,,,,,,,0,,,61,0
390240,note_on,0,0,1,,,,,,,,,0,,,61,73
390240,note_off,0,0,4,,,,,,,,,3,,,53,0
390360,note_on,120,0,4,,,,,,,,,3,,,54,73
390360,note_on,120,0,1,,,,,,,,,0,,,70,73
390480,note_off,120,0,1,,,,,,,,,0,,,70,0
390480,note_off,0,0,1,,,,,,,,,0,,,61,0
390480,note_on,0,0,1,,,,,,,,,0,,,59,81
390480,note_on,0,0,4,,,,,,,,,3,,,51,81
390480,note_off,0,0,4,,,,,,,,,3,,,53,0
390480,note_off,120,0,4,,,,,,,,,3,,,54,0
390600,note_on,120,0,1,,,,,,,,,0,,,71,73
390600,note_on,120,0,4,,,,,,,,,3,,,54,73
390720,note_on,0,0,1,,,,,,,,,0,,,60,74
390720,note_on,0,0,4,,,,,,,,,3,,,51,74
390720,note_off,0,0,4,,,,,,,,,3,,,51,0
390720,note_off,120,0,4,,,,,,,,,3,,,54,0
390720,note_off,0,0,1,,,,,,,,,0,,,59,0
390720,note_off,120,0,1,,,,,,,,,0,,,71,0
390840,note_on,120,0,1,,,,,,,,,0,,,69,77
390840,note_on,120,0,4,,,,,,,,,3,,,53,77
390960,note_on,0,0,4,,,,,,,,,3,,,49,87
390960,note_on,0,0,1,,,,,,,,,0,,,58,87
390960,note_off,0,0,1,,,,,,,,,0,,,60,0
390960,note_off,120,0,1,,,,,,,,,0,,,69,0
390960,note_off,0,0,4,,,,,,,,,3,,,51,0
390960,note_off,120,0,4,,,,,,,,,3,,,53,0
391080,note_on,120,0,4,,,,,,,,,3,,,53,80
391080,note_on,120,0,1,,,,,,,,,0,,,69,80
391200,note_on,0,0,4,,,,,,,,,3,,,49,82
391200,note_off,120,0,4,,,,,,,,,3,,,53,0
391200,note_off,120,0,1,,,,,,,,,0,,,69,0
391200,note_off,0,0,1,,,,,,,,,0,,,58,0
391200,note_off,0,0,4,,,,,,,,,3,,,49,0
391200,note_on,0,0,1,,,,,,,,,0,,,65,82
391320,note_on,120,0,4,,,,,,,,,3,,,53,83
391320,note_on,120,0,1,,,,,,,,,0,,,71,83
391440,note_off,120,0,1,,,,,,,,,0,,,71,0
391440,note_off,0,0,4,,,,,,,,,3,,,49,0
391440,note_on,0,0,4,,,,,,,,,3,,,49,85
391440,note_off,120,0,4,,,,,,,,,3,,,53,0
391440,note_on,0,0,1,,,,,,,,,0,,,65,85
391440,note_off,0,0,1,,,,,,,,,0,,,65,0
391560,note_on,120,0,1,,,,,,,,,0,,,71,86
391560,note_on,120,0,4,,,,,,,,,3,,,53,86
391680,note_on,0,0,1,,,,,,,,,0,,,65,88
391680,note_on,0,0,4,,,,,,,,,3,,,49,88
391680,note_off,0,0,1,,,,,,,,,0,,,65,0
391680,note_off,0,0,4,,,,,,,,,3,,,49,0
391680,note_off,120,0,4,,,,,,,,,3,,,53,0
391680,note_off,120,0,1,,,,,,,,,0,,,71,0
391800,note_on,120,0,1,,,,,,,,,0,,,71,89
391800,note_on,120,0,4,,,,,,,,,3,,,53,89
391920,note_off,0,0,4,,,,,,,,,3,,,49,0
391920,note_off,120,0,4,,,,,,,,,3,,,53,0
391920,note_off,120,0,1,,,,,,,,,0,,,71,0
391920,note_off,0,0,1,,,,,,,,,0,,,65,0
391920,note_on,0,0,1,,,,,,,,,0,,,65,91
391920,note_on,0,0,4,,,,,,,,,3,,,49,91
392040,note_on,120,0,1,,,,,,,,,0,,,71,92
392040,note_on,120,0,4,,,,,,,,,3,,,53,92
392160,note_off,0,0,1,,,,,,,,,0,,,65,0
392160,note_on,0,0,1,,,,,,,,,0,,,61,94
392160,note_off,120,0,1,,,,,,,,,0,,,71,0
392160,note_off,120,0,4,,,,,,,,,3,,,53,0
392160,note_on,0,0,4,,,,,,,,,3,,,37,94
392160,note_off,0,0,4,,,,,,,,,3,,,49,0
392280,note_on,120,0,1,,,,,,,,,0,,,65,95
392280,note_on,120,0,4,,,,,,,,,3,,,49,95
392400,note_off,0,0,1,,,,,,,,,0,,,61,0
392400,note_off,120,0,1,,,,,,,,,0,,,65,0
392400,set_tempo,5520,1,0,,,,,,550458,,,,,,,
392400,note_on,0,0,4,,,,,,,,,3,,,37,97
392400,note_off,0,0,4,,,,,,,,,3,,,37,0
392400,note_off,120,0,4,,,,,,,,,3,,,49,0
392400,note_on,0,0,1,,,,,,,,,0,,,61,97
392520,note_on,120,0,4,,,,,,,,,3,,,49,97
392520,note_on,120,0,1,,,,,,,,,0,,,65,98
392520,set_tempo,120,1,0,,,,,,588235,,,,,,,
392640,note_off,120,0,4,,,,,,,,,3,,,49,0
392640,set_tempo,120,1,0,,,,,,540540,,,,,,,
392640,note_on,0,0,4,,,,,,,,,3,,,36,95
392640,note_on,0,0,4,,,,,,,,,3,,,48,95
392640,note_off,120,0,1,,,,,,,,,0,,,65,0
392640,note_off,0,0,4,,,,,,,,,3,,,37,0
392640,note_off,0,0,1,,,,,,,,,0,,,61,0
392760,note_on,0,0,1,,,,,,,,,0,,,55,47
392760,note_on,120,0,1,,,,,,,,,0,,,58,47
392760,note_on,0,0,1,,,,,,,,,0,,,64,47
392880,note_on,240,0,4,,,,,,,,,3,,,61,61
392880,note_off,0,0,1,,,,,,,,,0,,,58,0
392880,note_off,0,0,1,,,,,,,,,0,,,55,0
392880,note_off,120,0,1,,,,,,,,,0,,,64,0
393000,note_on,0,0,1,,,,,,,,,0,,,64,47
393000,note_on,0,0,1,,,,,,,,,0,,,55,47
393000,note_on,120,0,1,,,,,,,,,0,,,58,47
393120,note_off,0,0,1,,,,,,,,,0,,,58,0
393120,note_off,120,0,1,,,,,,,,,0,,,64,0
393120,note_off,0,0,1,,,,,,,,,0,,,55,0
393120,note_on,0,0,4,,,,,,,,,3,,,59,67
393120,note_off,240,0,4,,,,,,,,,3,,,61,0
393240,note_on,0,0,1,,,,,,,,,0,,,64,46
393240,note_on,120,0,1,,,,,,,,,0,,,58,46
393240,note_on,0,0,1,,,,,,,,,0,,,55,46
393360,note_off,0,0,1,,,,,,,,,0,,,64,0
393360,note_off,0,0,1,,,,,,,,,0,,,58,0
393360,note_off,240,0,4,,,,,,,,,3,,,59,0
393360,note_on,0,0,4,,,,,,,,,3,,,60,62
393360,note_off,120,0,1,,,,,,,,,0,,,55,0
393480,note_on,120,0,1,,,,,,,,,0,,,58,46
393480,note_on,0,0,1,,,,,,,,,0,,,55,46
393480,note_on,0,0,1,,,,,,,,,0,,,64,46
393600,note_off,240,0,4,,,,,,,,,3,,,60,0
393600,note_off,120,0,1,,,,,,,,,0,,,64,0
393600,note_off,0,0,1,,,,,,,,,0,,,55,0
393600,note_off,0,0,1,,,,,,,,,0,,,58,0
393600,note_off,0,0,4,,,,,,,,,3,,,48,0
393600,note_on,0,0,4,,,,,,,,,3,,,48,68
393720,note_on,0,0,1,,,,,,,,,0,,,65,45
393720,note_on,120,0,1,,,,,,,,,0,,,56,45
393840,note_on,240,0,4,,,,,,,,,3,,,61,63
393840,note_off,120,0,1,,,,,,,,,0,,,65,0
393840,note_off,0,0,1,,,,,,,,,0,,,56,0
393960,note_on,0,0,1,,,,,,,,,0,,,65,45
393960,note_on,120,0,1,,,,,,,,,0,,,56,45
394080,note_off,120,0,1,,,,,,,,,0,,,65,0
394080,note_on,0,0,4,,,,,,,,,3,,,59,61
394080,note_off,240,0,4,,,,,,,,,3,,,61,0
394080,note_off,0,0,1,,,,,,,,,0,,,56,0
394200,note_on,0,0,1,,,,,,,,,0,,,65,45
394200,note_on,120,0,1,,,,,,,,,0,,,56,45
394320,note_off,120,0,1,,,,,,,,,0,,,65,0
394320,note_off,240,0,4,,,,,,,,,3,,,59,0
394320,note_off,0,0,1,,,,,,,,,0,,,56,0
394320,note_on,0,0,4,,,,,,,,,3,,,60,59
394440,note_on,0,0,1,,,,,,,,,0,,,65,44
394440,note_on,120,0,1,,,,,,,,,0,,,56,44
394560,note_off,0,0,1,,,,,,,,,0,,,56,0
394560,note_on,0,0,4,,,,,,,,,3,,,48,67
394560,note_off,0,0,4,,,,,,,,,3,,,48,0
394560,note_off,240,0,4,,,,,,,,,3,,,60,0
394560,note_off,120,0,1,,,,,,,,,0,,,65,0
394680,note_on,0,0,1,,,,,,,,,0,,,63,44
394680,note_on,0,0,1,,,,,,,,,0,,,67,44
394680,note_on,120,0,1,,,,,,,,,0,,,58,44
394800,note_off,0,0,1,,,,,,,,,0,,,58,0
394800,note_on,240,0,4,,,,,,,,,3,,,61,59
394800,note_off,120,0,1,,,,,,,,,0,,,67,0
394800,note_off,0,0,1,,,,,,,,,0,,,63,0
394920,note_on,0,0,1,,,,,,,,,0,,,67,43
394920,note_on,0,0,1,,,,,,,,,0,,,58,43
394920,note_on,120,0,1,,,,,,,,,0,,,63,43
395040,note_off,120,0,1,,,,,,,,,0,,,67,0
395040,note_off,0,0,1,,,,,,,,,0,,,63,0
395040,note_off,240,0,4,,,,,,,,,3,,,61,0
395040,note_on,0,0,4,,,,,,,,,3,,,59,59
395040,note_off,0,0,1,,,,,,,,,0,,,58,0
395160,note_on,0,0,1,,,,,,,,,0,,,67,43
395160,note_on,0,0,1,,,,,,,,,0,,,63,43
395160,note_on,120,0,1,,,,,,,,,0,,,58,43
395280,note_off,0,0,1,,,,,,,,,0,,,63,0
395280,note_off,120,0,1,,,,,,,,,0,,,67,0
395280,note_off,0,0,1,,,,,,,,,0,,,58,0
395280,note_on,0,0,4,,,,,,,,,3,,,60,56
395280,note_off,240,0,4,,,,,,,,,3,,,59,0
395400,note_on,120,0,1,,,,,,,,,0,,,58,42
395400,note_on,0,0,1,,,,,,,,,0,,,67,42
395400,note_on,0,0,1,,,,,,,,,0,,,63,42
395520,note_off,120,0,1,,,,,,,,,0,,,67,0
395520,note_off,0,0,1,,,,,,,,,0,,,63,0
395520,note_off,0,0,1,,,,,,,,,0,,,58,0
395520,note_off,0,0,4,,,,,,,,,3,,,48,0
395520,note_on,0,0,4,,,,,,,,,3,,,48,63
395520,note_off,240,0,4,,,,,,,,,3,,,60,0
395640,note_on,120,0,1,,,,,,,,,0,,,56,42
395640,note_on,0,0,1,,,,,,,,,0,,,65,42
395760,note_on,240,0,4,,,,,,,,,3,,,61,59
395760,note_off,120,0,1,,,,,,,,,0,,,65,0
395760,note_off,0,0,1,,,,,,,,,0,,,56,0
395880,note_on,0,0,1,,,,,,,,,0,,,65,41
395880,note_on,120,0,1,,,,,,,,,0,,,56,41
396000,note_off,0,0,1,,,,,,,,,0,,,56,0
396000,note_off,240,0,4,,,,,,,,,3,,,61,0
396000,note_on,0,0,4,,,,,,,,,3,,,59,57
396000,note_off,120,0,1,,,,,,,,,0,,,65,0
396120,note_on,0,0,1,,,,,,,,,0,,,65,41
396120,note_on,120,0,1,,,,,,,,,0,,,56,41
396240,note_off,240,0,4,,,,,,,,,3,,,59,0
396240,note_on,0,0,4,,,,,,,,,3,,,60,54
396240,note_off,0,0,1,,,,,,,,,0,,,56,0
396240,note_off,120,0,1,,,,,,,,,0,,,65,0
396360,set_tempo,3720,1,0,,,,,,550458,,,,,,,
396360,note_on,120,0,1,,,,,,,,,0,,,65,41
396360,note_on,0,0,1,,,,,,,,,0,,,56,41
396480,note_off,240,0,4,,,,,,,,,3,,,60,0
396480,set_tempo,120,1,0,,,,,,540540,,,,,,,
396480,note_off,0,0,4,,,,,,,,,3,,,48,0
396480,note_off,120,0,1,,,,,,,,,0,,,56,0
396480,note_off,0,0,1,,,,,,,,,0,,,65,0
396480,note_on,0,0,4,,,,,,,,,3,,,48,62
396600,note_on,120,0,1,,,,,,,,,0,,,58,40
396600,note_on,0,0,1,,,,,,,,,0,,,55,40
396600,note_on,0,0,1,,,,,,,,,0,,,64,40
396720,note_on,240,0,4,,,,,,,,,3,,,61,57
396720,note_off,120,0,1,,,,,,,,,0,,,64,0
396720,note_off,0,0,1,,,,,,,,,0,,,55,0
396720,note_off,0,0,1,,,,,,,,,0,,,58,0
396840,note_on,0,0,1,,,,,,,,,0,,,64,40
396840,note_on,120,0,1,,,,,,,,,0,,,58,40
396840,note_on,0,0,1,,,,,,,,,0,,,55,40
396960,note_off,240,0,4,,,,,,,,,3,,,61,0
396960,note_off,0,0,1,,,,,,,,,0,,,58,0
396960,note_off,0,0,1,,,,,,,,,0,,,64,0
396960,note_off,120,0,1,,,,,,,,,0,,,55,0
396960,note_on,0,0,4,,,,,,,,,3,,,59,55
397080,note_on,0,0,1,,,,,,,,,0,,,55,39
397080,note_on,120,0,1,,,,,,,,,0,,,64,39
397116,note_off,156,0,4,,,,,,,,,3,,,59,0
397200,note_off,0,0,1,,,,,,,,,0,,,64,0
397200,note_off,120,0,1,,,,,,,,,0,,,55,0
397200,note_on,84,0,4,,,,,,,,,3,,,61,52
397320,note_on,0,0,1,,,,,,,,,0,,,64,39
397320,note_on,120,0,1,,,,,,,,,0,,,55,39
397440,note_off,0,0,1,,,,,,,,,0,,,55,0
397440,note_off,240,0,4,,,,,,,,,3,,,61,0
397440,note_on,0,0,4,,,,,,,,,3,,,59,50
397440,note_off,120,0,1,,,,,,,,,0,,,64,0
397560,note_on,120,0,1,,,,,,,,,0,,,55,38
397560,note_on,0,0,1,,,,,,,,,0,,,64,38
397596,note_off,156,0,4,,,,,,,,,3,,,59,0
397680,note_on,84,0,4,,,,,,,,,3,,,61,47
397680,note_off,120,0,1,,,,,,,,,0,,,64,0
397680,note_off,0,0,1,,,,,,,,,0,,,55,0
397800,note_on,120,0,1,,,,,,,,,0,,,55,38
397800,note_on,0,0,1,,,,,,,,,0,,,64,38
397920,note_off,240,0,4,,,,,,,,,3,,,61,0
397920,note_off,0,0,1,,,,,,,,,0,,,55,0
397920,note_on,0,0,4,,,,,,,,,3,,,59,46
397920,note_off,120,0,1,,,,,,,,,0,,,64,0
398040,note_on,120,0,1,,,,,,,,,0,,,55,37
398040,note_on,0,0,1,,,,,,,,,0,,,64,37
398076,note_off,156,0,4,,,,,,,,,3,,,59,0
398160,note_off,0,0,1,,,,,,,,,0,,,55,0
398160,note_off,120,0,1,,,,,,,,,0,,,64,0
398160,note_on,84,0,4,,,,,,,,,3,,,61,46
398280,note_on,0,0,1,,,,,,,,,0,,,64,37
398280,note_on,120,0,1,,,,,,,,,0,,,55,37
398400,note_off,0,0,1,,,,,,,,,0,,,55,0
398400,note_off,120,0,1,,,,,,,,,0,,,64,0
398400,note_off,240,0,4,,,,,,,,,3,,,61,0
398400,note_on,0,0,4,,,,,,,,,3,,,59,45
398520,note_on,0,0,1,,,,,,,,,0,,,64,37
398520,note_on,120,0,1,,,,,,,,,0,,,55,37
398556,note_off,156,0,4,,,,,,,,,3,,,59,0
398640,note_on,84,0,4,,,,,,,,,3,,,60,44
398640,note_off,120,0,1,,,,,,,,,0,,,64,0
398640,note_off,0,0,1,,,,,,,,,0,,,55,0
398760,note_on,120,0,1,,,,,,,,,0,,,55,36
398760,note_on,0,0,1,,,,,,,,,0,,,64,36
398880,note_on,0,0,4,,,,,,,,,3,,,59,44
398880,note_off,120,0,1,,,,,,,,,0,,,64,0
398880,note_off,0,0,1,,,,,,,,,0,,,55,0
398880,note_off,240,0,4,,,,,,,,,3,,,60,0
399000,note_on,120,0,1,,,,,,,,,0,,,55,36
399000,note_on,0,0,1,,,,,,,,,0,,,64,36
399036,note_off,156,0,4,,,,,,,,,3,,,59,0
399120,note_off,120,0,1,,,,,,,,,0,,,64,0
399120,note_off,0,0,1,,,,,,,,,0,,,55,0
399120,note_on,84,0,4,,,,,,,,,3,,,60,43
399240,note_on,120,0,1,,,,,,,,,0,,,55,35
399240,note_on,0,0,1,,,,,,,,,0,,,64,35
399360,note_on,0,0,4,,,,,,,,,3,,,59,42
399360,note_off,120,0,1,,,,,,,,,0,,,64,0
399360,note_off,0,0,1,,,,,,,,,0,,,55,0
399360,note_off,240,0,4,,,,,,,,,3,,,60,0
399480,note_on,120,0,1,,,,,,,,,0,,,55,35
399480,note_on,0,0,1,,,,,,,,,0,,,64,35
399516,note_off,156,0,4,,,,,,,,,3,,,59,0
399600,note_off,0,0,1,,,,,,,,,0,,,55,0
399600,note_off,120,0,1,,,,,,,,,0,,,64,0
399600,note_on,84,0,4,,,,,,,,,3,,,60,42
399720,note_on,0,0,1,,,,,,,,,0,,,55,34
399720,note_on,120,0,1,,,,,,,,,0,,,64,34
399840,note_off,120,0,1,,,,,,,,,0,,,55,0
399840,note_on,0,0,4,,,,,,,,,3,,,59,41
399840,note_off,240,0,4,,,,,,,,,3,,,60,0
399840,note_off,0,0,1,,,,,,,,,0,,,64,0
399960,note_on,0,0,1,,,,,,,,,0,,,64,34
399960,note_on,120,0,1,,,,,,,,,0,,,55,34
399996,note_off,156,0,4,,,,,,,,,3,,,59,0
400080,note_on,84,0,4,,,,,,,,,3,,,60,40
400080,note_off,0,0,1,,,,,,,,,0,,,55,0
400080,note_off,120,0,1,,,,,,,,,0,,,64,0
400200,note_on,0,0,1,,,,,,,,,0,,,64,32
400200,note_on,120,0,1,,,,,,,,,0,,,55,32
400200,set_tempo,3720,1,0,,,,,,550458,,,,,,,
400320,note_on,0,0,1,,,,,,,,,0,,,55,34
400320,note_on,0,0,1,,,,,,,,,0,,,64,34
400320,note_off,120,0,1,,,,,,,,,0,,,64,0
400320,note_off,0,0,1,,,,,,,,,0,,,55,0
400320,note_off,240,0,4,,,,,,,,,3,,,60,0
400320,note_on,0,0,4,,,,,,,,,3,,,58,40
400320,set_tempo,120,1,0,,,,,,540540,,,,,,,
400400,note_on,80,0,4,,,,,,,,,3,,,60,40
400440,note_off,40,0,4,,,,,,,,,3,,,58,0
400480,note_on,40,0,4,,,,,,,,,3,,,58,41
400520,note_off,40,0,4,,,,,,,,,3,,,60,0
400560,note_on,0,0,1,,,,,,,,,0,,,64,35
400560,note_on,40,0,4,,,,,,,,,3,,,60,41
400560,note_off,0,0,1,,,,,,,,,0,,,55,0
400560,note_off,240,0,1,,,,,,,,,0,,,64,0
400560,note_on,0,0,1,,,,,,,,,0,,,55,35
400600,note_off,40,0,4,,,,,,,,,3,,,58,0
400640,note_on,40,0,4,,,,,,,,,3,,,58,41
400680,note_off,40,0,4,,,,,,,,,3,,,60,0
400720,note_on,40,0,4,,,,,,,,,3,,,60,42
400760,note_off,40,0,4,,,,,,,,,3,,,58,0
400800,note_on,40,0,4,,,,,,,,,3,,,58,42
400800,note_off,240,0,1,,,,,,,,,0,,,64,0
400800,note_off,0,0,1,,,,,,,,,0,,,55,0
400800,note_on,0,0,1,,,,,,,,,0,,,55,36
400800,note_on,0,0,1,,,,,,,,,0,,,64,36
400840,note_off,40,0,4,,,,,,,,,3,,,60,0
400880,note_on,40,0,4,,,,,,,,,3,,,60,42
400920,note_off,40,0,4,,,,,,,,,3,,,58,0
400960,note_on,40,0,4,,,,,,,,,3,,,58,43
401000,note_off,40,0,4,,,,,,,,,3,,,60,0
401040,note_on,40,0,4,,,,,,,,,3,,,60,43
401040,note_on,0,0,1,,,,,,,,,0,,,55,37
401040,note_off,240,0,1,,,,,,,,,0,,,64,0
401040,note_off,0,0,1,,,,,,,,,0,,,55,0
401040,note_on,0,0,1,,,,,,,,,0,,,64,37
401080,note_off,40,0,4,,,,,,,,,3,,,58,0
401120,note_on,40,0,4,,,,,,,,,3,,,58,43
401160,note_off,40,0,4,,,,,,,,,3,,,60,0
401200,note_on,40,0,4,,,,,,,,,3,,,60,44
401240,note_off,40,0,4,,,,,,,,,3,,,58,0
401280,note_on,0,0,1,,,,,,,,,0,,,64,39
401280,note_on,0,0,1,,,,,,,,,0,,,55,39
401280,note_off,0,0,1,,,,,,,,,0,,,55,0
401280,note_off,240,0,1,,,,,,,,,0,,,64,0
401280,note_on,40,0,4,,,,,,,,,3,,,58,44
401325,note_off,45,0,4,,,,,,,,,3,,,60,0
401360,note_on,35,0,4,,,,,,,,,3,,,60,44
401400,note_off,40,0,4,,,,,,,,,3,,,58,0
401440,note_on,40,0,4,,,,,,,,,3,,,58,45
401480,note_off,40,0,4,,,,,,,,,3,,,60,0
401520,note_on,40,0,4,,,,,,,,,3,,,60,45
401520,note_off,240,0,1,,,,,,,,,0,,,64,0
401520,note_on,0,0,1,,,,,,,,,0,,,64,40
401520,note_on,0,0,1,,,,,,,,,0,,,55,40
401520,note_off,0,0,1,,,,,,,,,0,,,55,0
401560,note_off,40,0,4,,,,,,,,,3,,,58,0
401600,note_on,40,0,4,,,,,,,,,3,,,58,45
401640,note_off,40,0,4,,,,,,,,,3,,,60,0
401680,note_on,40,0,4,,,,,,,,,3,,,60,46
401720,note_off,40,0,4,,,,,,,,,3,,,58,0
401760,note_on,0,0,1,,,,,,,,,0,,,64,41
401760,note_on,0,0,1,,,,,,,,,0,,,55,41
401760,note_off,240,0,1,,,,,,,,,0,,,64,0
401760,note_on,40,0,4,,,,,,,,,3,,,58,46
401760,note_off,0,0,1,,,,,,,,,0,,,55,0
401800,note_off,40,0,4,,,,,,,,,3,,,60,0
401840,note_on,40,0,4,,,,,,,,,3,,,60,46
401880,set_tempo,1560,1,0,,,,,,550458,,,,,,,
401880,note_off,40,0,4,,,,,,,,,3,,,58,0
401920,note_on,40,0,4,,,,,,,,,3,,,58,47
401960,note_off,40,0,4,,,,,,,,,3,,,60,0
402000,note_on,0,0,1,,,,,,,,,0,,,55,43
402000,note_on,40,0,4,,,,,,,,,3,,,57,47
402000,note_off,0,0,1,,,,,,,,,0,,,55,0
402000,set_tempo,120,1,0,,,,,,571428,,,,,,,
402000,note_off,240,0,1,,,,,,,,,0,,,64,0
402000,note_on,0,0,1,,,,,,,,,0,,,64,43
402040,note_off,40,0,4,,,,,,,,,3,,,58,0
402080,note_on,40,0,4,,,,,,,,,3,,,58,47
402120,set_tempo,120,1,0,,,,,,588235,,,,,,,
402120,note_off,40,0,4,,,,,,,,,3,,,57,0
402210,note_off,0,0,4,,,,,,,,,3,,,36,0
402210,note_off,90,0,4,,,,,,,,,3,,,48,0
402240,note_on,0,0,4,,,,,,,,,3,,,29,42
402240,note_off,30,0,4,,,,,,,,,3,,,58,0
402240,note_off,240,0,1,,,,,,,,,0,,,64,0
402240,note_off,0,0,1,,,,,,,,,0,,,55,0
402240,marker,120,1,0,,,,,,,,,,,,,
402240,note_on,0,0,1,,,,,,,,,0,,,53,42
402315,set_tempo,75,1,0,,,,,,428571,,,,,,,
402360,note_on,120,0,1,,,,,,,,,0,,,57,42
402360,note_on,120,0,4,,,,,,,,,3,,,41,42
402480,note_off,120,0,1,,,,,,,,,0,,,57,0
402480,note_on,0,0,1,,,,,,,,,0,,,60,42
402480,note_off,120,0,4,,,,,,,,,3,,,29,0
402480,note_on,0,0,4,,,,,,,,,3,,,29,42
402600,note_off,120,0,4,,,,,,,,,3,,,41,0
402600,note_off,120,0,1,,,,,,,,,0,,,60,0
402600,note_on,0,0,1,,,,,,,,,0,,,65,43
402600,note_on,0,0,4,,,,,,,,,3,,,41,43
402720,note_on,0,0,4,,,,,,,,,3,,,29,43
402720,note_off,120,0,4,,,,,,,,,3,,,29,0
402720,note_off,120,0,1,,,,,,,,,0,,,65,0
402720,note_on,0,0,1,,,,,,,,,0,,,55,43
402720,note_on,0,0,1,,,,,,,,,0,,,52,43
402727,note_off,7,0,1,,,,,,,,,0,,,53,0
402840,note_off,120,0,4,,,,,,,,,3,,,41,0
402840,note_on,0,0,4,,,,,,,,,3,,,41,44
402840,note_on,113,0,1,,,,,,,,,0,,,64,44
402960,note_off,120,0,1,,,,,,,,,0,,,64,0
402960,note_on,0,0,1,,,,,,,,,0,,,53,44
402960,note_off,0,0,1,,,,,,,,,0,,,52,0
402960,note_on,0,0,1,,,,,,,,,0,,,57,44
402960,note_on,0,0,4,,,,,,,,,3,,,29,44
402960,note_off,120,0,4,,,,,,,,,3,,,29,0
402960,note_off,0,0,1,,,,,,,,,0,,,55,0
403080,note_on,0,0,4,,,,,,,,,3,,,41,44
403080,note_on,120,0,1,,,,,,,,,0,,,65,44
403080,note_off,120,0,4,,,,,,,,,3,,,41,0
403200,note_on,0,0,4,,,,,,,,,3,,,29,45
403200,note_off,120,0,4,,,,,,,,,3,,,29,0
403200,note_off,120,0,1,,,,,,,,,0,,,65,0
403200,note_off,0,0,1,,,,,,,,,0,,,53,0
403200,note_off,0,0,1,,,,,,,,,0,,,57,0
403200,note_on,0,0,1,,,,,,,,,0,,,55,45
403200,note_on,0,0,1,,,,,,,,,0,,,58,45
403312,note_off,112,0,4,,,,,,,,,3,,,41,0
403320,note_on,120,0,1,,,,,,,,,0,,,67,45
403320,note_on,8,0,4,,,,,,,,,3,,,41,45
403440,note_off,0,0,1,,,,,,,,,0,,,58,0
403440,note_off,120,0,4,,,,,,,,,3,,,29,0
403440,note_on,0,0,4,,,,,,,,,3,,,29,45
403440,note_on,0,0,1,,,,,,,,,0,,,60,45
403440,note_on,0,0,1,,,,,,,,,0,,,57,45
403440,note_off,0,0,1,,,,,,,,,0,,,55,0
403440,note_off,120,0,1,,,,,,,,,0,,,67,0
403560,note_on,0,0,4,,,,,,,,,3,,,41,46
403560,note_off,120,0,4,,,,,,,,,3,,,41,0
403560,note_on,120,0,1,,,,,,,,,0,,,69,46
403680,note_on,0,0,4,,,,,,,,,3,,,29,46
403680,note_on,0,0,1,,,,,,,,,0,,,58,46
403680,note_off,0,0,1,,,,,,,,,0,,,57,0
403680,note_on,0,0,1,,,,,,,,,0,,,62,46
403680,note_off,120,0,1,,,,,,,,,0,,,69,0
403680,note_off,0,0,1,,,,,,,,,0,,,60,0
403680,note_off,120,0,4,,,,,,,,,3,,,29,0
403800,note_on,0,0,4,,,,,,,,,3,,,41,46
403800,note_off,120,0,4,,,,,,,,,3,,,41,0
403800,note_on,120,0,1,,,,,,,,,0,,,70,46
403920,note_on,0,0,1,,,,,,,,,0,,,64,47
403920,note_off,0,0,1,,,,,,,,,0,,,58,0
403920,note_off,0,0,1,,,,,,,,,0,,,62,0
403920,note_on,0,0,4,,,,,,,,,3,,,29,47
403920,note_off,120,0,4,,,,,,,,,3,,,29,0
403920,note_off,120,0,1,,,,,,,,,0,,,70,0
403920,note_on,0,0,1,,,,,,,,,0,,,60,47
404040,note_off,120,0,4,,,,,,,,,3,,,41,0
404040,note_on,120,0,1,,,,,,,,,0,,,72,47
404040,set_tempo,1725,1,0,,,,,,434782,,,,,,,
404040,note_on,0,0,4,,,,,,,,,3,,,41,47
404160,note_off,0,0,1,,,,,,,,,0,,,64,0
404160,note_off,0,0,1,,,,,,,,,0,,,60,0
404160,note_on,0,0,1,,,,,,,,,0,,,65,48
404160,note_off,120,0,1,,,,,,,,,0,,,72,0
404160,note_off,120,0,4,,,,,,,,,3,,,29,0
404160,note_on,0,0,4,,,,,,,,,3,,,29,48
404160,set_tempo,120,1,0,,,,,,428571,,,,,,,
404272,note_off,112,0,4,,,,,,,,,3,,,41,0
404280,note_on,120,0,1,,,,,,,,,0,,,69,48
404280,note_on,8,0,4,,,,,,,,,3,,,41,48
404400,note_on,0,0,4,,,,,,,,,3,,,29,48
404400,note_off,120,0,1,,,,,,,,,0,,,69,0
404400,note_on,0,0,1,,,,,,,,,0,,,72,48
404400,note_off,120,0,4,,,,,,,,,3,,,29,0
404520,note_off,120,0,4,,,,,,,,,3,,,41,0
404520,note_off,120,0,1,,,,,,,,,0,,,72,0
404520,note_on,0,0,1,,,,,,,,,0,,,77,49
404520,note_on,0,0,4,,,,,,,,,3,,,41,49
404640,note_on,0,0,4,,,,,,,,,3,,,29,49
404640,note_off,120,0,4,,,,,,,,,3,,,29,0
404640,note_off,120,0,1,,,,,,,,,0,,,77,0
404640,note_on,0,0,1,,,,,,,,,0,,,64,49
404640,note_on,0,0,1,,,,,,,,,0,,,67,49
404647,note_off,7,0,1,,,,,,,,,0,,,65,0
404760,note_off,120,0,4,,,,,,,,,3,,,41,0
404760,note_on,0,0,4,,,,,,,,,3,,,41,49
404760,note_on,113,0,1,,,,,,,,,0,,,76,49
404880,note_off,120,0,1,,,,,,,,,0,,,76,0
404880,note_off,120,0,4,,,,,,,,,3,,,29,0
404880,note_on,0,0,4,,,,,,,,,3,,,29,50
404880,note_on,0,0,1,,,,,,,,,0,,,65,50
404880,note_off,0,0,1,,,,,,,,,0,,,64,0
404880,note_off,0,0,1,,,,,,,,,0,,,67,0
404880,note_on,0,0,1,,,,,,,,,0,,,69,50
405000,note_on,0,0,4,,,,,,,,,3,,,41,50
405000,note_on,120,0,1,,,,,,,,,0,,,77,50
405000,note_off,120,0,4,,,,,,,,,3,,,41,0
405120,note_off,120,0,4,,,,,,,,,3,,,29,0
405120,note_on,0,0,4,,,,,,,,,3,,,29,50
405120,note_on,0,0,1,,,,,,,,,0,,,67,50
405120,note_on,0,0,1,,,,,,,,,0,,,70,50
405120,note_off,0,0,1,,,,,,,,,0,,,69,0
405120,note_off,0,0,1,,,,,,,,,0,,,65,0
405120,note_off,120,0,1,,,,,,,,,0,,,77,0
405225,note_off,105,0,4,,,,,,,,,3,,,41,0
405240,note_on,120,0,1,,,,,,,,,0,,,79,51
405240,note_on,15,0,4,,,,,,,,,3,,,41,51
405360,note_off,0,0,1,,,,,,,,,0,,,70,0
405360,note_off,0,0,1,,,,,,,,,0,,,67,0
405360,note_off,120,0,1,,,,,,,,,0,,,79,0
405360,note_on,0,0,1,,,,,,,,,0,,,69,51
405360,note_on,0,0,1,,,,,,,,,0,,,72,51
405360,note_on,0,0,4,,,,,,,,,3,,,29,51
405360,note_off,120,0,4,,,,,,,,,3,,,29,0
405480,note_on,0,0,4,,,,,,,,,3,,,41,52
405480,note_off,120,0,4,,,,,,,,,3,,,41,0
405480,note_on,120,0,1,,,,,,,,,0,,,81,52
405600,note_on,0,0,1,,,,,,,,,0,,,74,52
405600,note_on,0,0,1,,,,,,,,,0,,,70,52
405600,note_off,0,0,1,,,,,,,,,0,,,72,0
405600,note_off,120,0,4,,,,,,,,,3,,,29,0
405600,note_on,0,0,4,,,,,,,,,3,,,29,52
405600,note_off,120,0,1,,,,,,,,,0,,,81,0
405600,note_off,0,0,1,,,,,,,,,0,,,69,0
405720,note_off,120,0,4,,,,,,,,,3,,,41,0
405720,note_on,0,0,4,,,,,,,,,3,,,41,52
405720,note_on,120,0,1,,,,,,,,,0,,,82,52
405840,note_off,120,0,4,,,,,,,,,3,,,29,0
405840,note_off,120,0,1,,,,,,,,,0,,,82,0
405840,note_off,0,0,1,,,,,,,,,0,,,70,0
405840,note_off,0,0,1,,,,,,,,,0,,,74,0
405840,note_on,0,0,1,,,,,,,,,0,,,72,53
405840,note_on,0,0,1,,,,,,,,,0,,,76,53
405840,note_on,0,0,4,,,,,,,,,3,,,29,53
405960,note_off,120,0,4,,,,,,,,,3,,,41,0
405960,note_on,0,0,4,,,,,,,,,3,,,41,53
405960,set_tempo,1800,1,0,,,,,,434782,,,,,,,
405960,note_on,120,0,1,,,,,,,,,0,,,84,53
406080,note_off,120,0,1,,,,,,,,,0,,,84,0
406080,note_off,0,0,1,,,,,,,,,0,,,76,0
406080,note_off,120,0,4,,,,,,,,,3,,,29,0
406080,note_on,0,0,1,,,,,,,,,0,,,77,53
406080,note_on,0,0,4,,,,,,,,,3,,,29,53
406080,set_tempo,120,1,0,,,,,,428571,,,,,,,
406080,note_off,0,0,1,,,,,,,,,0,,,72,0
406185,note_off,105,0,4,,,,,,,,,3,,,41,0
406200,note_on,15,0,4,,,,,,,,,3,,,41,54
406200,note_on,120,0,1,,,,,,,,,0,,,81,54
406320,note_off,120,0,1,,,,,,,,,0,,,81,0
406320,note_on,0,0,1,,,,,,,,,0,,,84,54
406320,note_on,0,0,4,,,,,,,,,3,,,29,54
406320,note_off,120,0,4,,,,,,,,,3,,,29,0
406440,note_off,120,0,4,,,,,,,,,3,,,41,0
406440,note_on,0,0,4,,,,,,,,,3,,,41,54
406440,note_off,120,0,1,,,,,,,,,0,,,84,0
406440,note_on,0,0,1,,,,,,,,,0,,,89,54
406560,note_on,0,0,4,,,,,,,,,3,,,31,55
406560,note_off,0,0,4,,,,,,,,,3,,,29,0
406560,note_off,120,0,4,,,,,,,,,3,,,41,0
406560,note_off,0,0,1,,,,,,,,,0,,,77,0
406560,note_off,120,0,1,,,,,,,,,0,,,89,0
406560,note_on,0,0,1,,,,,,,,,0,,,76,55
406680,note_on,120,0,1,,,,,,,,,0,,,88,55
406680,note_on,120,0,4,,,,,,,,,3,,,43,55
406800,note_off,120,0,1,,,,,,,,,0,,,88,0
406800,note_off,0,0,1,,,,,,,,,0,,,76,0
406800,note_on,0,0,1,,,,,,,,,0,,,77,56
406800,note_off,120,0,4,,,,,,,,,3,,,43,0
406800,note_off,0,0,4,,,,,,,,,3,,,31,0
406800,note_on,0,0,4,,,,,,,,,3,,,33,56
406920,note_on,120,0,4,,,,,,,,,3,,,45,56
406920,note_on,120,0,1,,,,,,,,,0,,,89,56
407040,note_on,0,0,4,,,,,,,,,3,,,33,56
407040,note_off,120,0,4,,,,,,,,,3,,,45,0
407040,note_off,0,0,4,,,,,,,,,3,,,33,0
407040,note_off,120,0,1,,,,,,,,,0,,,89,0
407040,note_off,0,0,1,,,,,,,,,0,,,77,0
407040,note_on,0,0,1,,,,,,,,,0,,,73,56
407160,note_on,120,0,4,,,,,,,,,3,,,45,57
407160,note_on,120,0,1,,,,,,,,,0,,,85,57
407280,note_on,0,0,4,,,,,,,,,3,,,34,57
407280,note_off,0,0,4,,,,,,,,,3,,,33,0
407280,note_off,120,0,4,,,,,,,,,3,,,45,0
407280,note_on,0,0,1,,,,,,,,,0,,,74,57
407280,note_off,0,0,1,,,,,,,,,0,,,73,0
407280,note_off,120,0,1,,,,,,,,,0,,,85,0
407400,note_on,120,0,1,,,,,,,,,0,,,86,57
407400,note_on,120,0,4,,,,,,,,,3,,,46,57
407520,note_off,0,0,4,,,,,,,,,3,,,34,0
407520,note_on,0,0,1,,,,,,,,,0,,,69,58
407520,note_off,120,0,1,,,,,,,,,0,,,86,0
407520,note_off,120,0,4,,,,,,,,,3,,,46,0
407520,note_on,0,0,4,,,,,,,,,3,,,37,58
407520,note_off,0,0,1,,,,,,,,,0,,,74,0
407640,note_on,120,0,1,,,,,,,,,0,,,81,58
407640,note_on,120,0,4,,,,,,,,,3,,,49,58
407760,note_off,120,0,4,,,,,,,,,3,,,49,0
407760,note_off,0,0,4,,,,,,,,,3,,,37,0
407760,note_on,0,0,4,,,,,,,,,3,,,38,58
407760,note_on,0,0,1,,,,,,,,,0,,,70,58
407760,note_off,120,0,1,,,,,,,,,0,,,81,0
407760,note_off,0,0,1,,,,,,,,,0,,,69,0
407880,note_on,120,0,4,,,,,,,,,3,,,50,59
407880,note_on,120,0,1,,,,,,,,,0,,,82,59
408000,note_off,120,0,4,,,,,,,,,3,,,50,0
408000,note_off,0,0,4,,,,,,,,,3,,,38,0
408000,note_on,0,0,4,,,,,,,,,3,,,39,59
408000,note_on,0,0,1,,,,,,,,,0,,,66,59
408000,note_off,0,0,1,,,,,,,,,0,,,70,0
408000,note_off,120,0,1,,,,,,,,,0,,,82,0
408120,note_on,120,0,1,,,,,,,,,0,,,78,60
408120,note_on,120,0,4,,,,,,,,,3,,,51,60
408240,note_off,120,0,1,,,,,,,,,0,,,78,0
408240,note_on,0,0,1,,,,,,,,,0,,,67,60
408240,note_off,0,0,1,,,,,,,,,0,,,66,0
408240,note_on,0,0,4,,,,,,,,,3,,,40,60
408240,note_off,0,0,4,,,,,,,,,3,,,39,0
408240,note_off,120,0,4,,,,,,,,,3,,,51,0
408360,note_on,120,0,4,,,,,,,,,3,,,52,60
408360,note_on,120,0,1,,,,,,,,,0,,,79,60
408480,note_off,120,0,1,,,,,,,,,0,,,79,0
408480,note_off,0,0,1,,,,,,,,,0,,,67,0
408480,note_on,0,0,4,,,,,,,,,3,,,42,61
408480,note_off,0,0,4,,,,,,,,,3,,,40,0
408480,note_off,120,0,4,,,,,,,,,3,,,52,0
408480,note_on,0,0,1,,,,,,,,,0,,,63,61
408600,note_on,120,0,4,,,,,,,,,3,,,54,61
408600,note_on,120,0,1,,,,,,,,,0,,,75,61
408720,note_off,0,0,1,,,,,,,,,0,,,63,0
408720,note_off,120,0,1,,,,,,,,,0,,,75,0
408720,note_on,0,0,1,,,,,,,,,0,,,64,61
408720,note_off,120,0,4,,,,,,,,,3,,,54,0
408720,note_off,0,0,4,,,,,,,,,3,,,42,0
408720,note_on,0,0,4,,,,,,,,,3,,,43,61
408840,note_on,120,0,1,,,,,,,,,0,,,76,62
408840,note_on,120,0,4,,,,,,,,,3,,,55,62
408960,note_on,0,0,4,,,,,,,,,3,,,45,62
408960,note_off,0,0,1,,,,,,,,,0,,,64,0
408960,note_on,0,0,1,,,,,,,,,0,,,67,62
408960,note_on,0,0,1,,,,,,,,,0,,,64,62
408960,note_on,0,0,4,,,,,,,,,3,,,57,62
408960,note_off,0,0,4,,,,,,,,,3,,,43,0
408960,note_off,120,0,4,,,,,,,,,3,,,55,0
408960,note_off,120,0,1,,,,,,,,,0,,,76,0
409080,note_on,120,0,1,,,,,,,,,0,,,73,62
409200,note_on,0,0,1,,,,,,,,,0,,,65,63
409200,note_off,0,0,1,,,,,,,,,0,,,64,0
409200,note_off,0,0,1,,,,,,,,,0,,,67,0
409200,note_on,0,0,1,,,,,,,,,0,,,62,63
409200,note_on,0,0,4,,,,,,,,,3,,,58,63
409200,note_off,0,0,4,,,,,,,,,3,,,57,0
409200,note_off,240,0,4,,,,,,,,,3,,,45,0
409200,note_off,120,0,1,,,,,,,,,0,,,73,0
409200,note_on,0,0,4,,,,,,,,,3,,,46,63
409320,note_on,120,0,1,,,,,,,,,0,,,74,63
409440,note_off,0,0,4,,,,,,,,,3,,,58,0
409440,note_on,0,0,4,,,,,,,,,3,,,48,76
409440,note_off,0,0,1,,,,,,,,,0,,,62,0
409440,note_on,0,0,1,,,,,,,,,0,,,65,75
409440,note_on,0,0,1,,,,,,,,,0,,,69,75
409440,note_off,0,0,1,,,,,,,,,0,,,65,0
409440,note_off,120,0,1,,,,,,,,,0,,,74,0
409440,note_off,240,0,4,,,,,,,,,3,,,46,0
409440,note_on,0,0,4,,,,,,,,,3,,,60,76
409560,note_on,120,0,1,,,,,,,,,0,,,72,64
409680,note_on,0,0,1,,,,,,,,,0,,,58,64
409680,note_off,240,0,4,,,,,,,,,3,,,48,0
409680,note_off,120,0,1,,,,,,,,,0,,,72,0
409680,note_off,0,0,1,,,,,,,,,0,,,69,0
409680,note_off,0,0,1,,,,,,,,,0,,,65,0
409680,note_on,0,0,4,,,,,,,,,3,,,36,64
409680,note_on,0,0,1,,,,,,,,,0,,,55,64
409680,note_on,0,0,4,,,,,,,,,3,,,55,64
409680,note_off,0,0,4,,,,,,,,,3,,,60,0
409680,set_tempo,3600,1,0,,,,,,434782,,,,,,,
409800,note_on,120,0,1,,,,,,,,,0,,,64,65
409800,set_tempo,120,1,0,,,,,,447761,,,,,,,
409920,note_on,0,0,1,,,,,,,,,0,,,53,65
409920,note_off,0,0,1,,,,,,,,,0,,,55,0
409920,note_off,120,0,1,,,,,,,,,0,,,64,0
409920,note_off,0,0,1,,,,,,,,,0,,,58,0
409920,note_on,0,0,4,,,,,,,,,3,,,29,65
409920,note_off,240,0,4,,,,,,,,,3,,,36,0
409920,set_tempo,120,1,0,,,,,,428571,,,,,,,
409920,note_off,0,0,4,,,,,,,,,3,,,55,0
410040,note_on,120,0,1,,,,,,,,,0,,,57,65
410040,note_on,120,0,4,,,,,,,,,3,,,41,65
410160,note_on,0,0,1,,,,,,,,,0,,,60,66
410160,note_off,120,0,1,,,,,,,,,0,,,57,0
410160,note_off,120,0,4,,,,,,,,,3,,,29,0
410160,note_on,0,0,4,,,,,,,,,3,,,29,66
410280,note_on,0,0,1,,,,,,,,,0,,,65,66
410280,note_off,120,0,1,,,,,,,,,0,,,60,0
410280,note_off,120,0,4,,,,,,,,,3,,,41,0
410280,note_on,0,0,4,,,,,,,,,3,,,41,66
410400,note_on,0,0,1,,,,,,,,,0,,,55,66
410400,note_off,120,0,1,,,,,,,,,0,,,65,0
410400,note_off,120,0,4,,,,,,,,,3,,,29,0
410400,note_on,0,0,4,,,,,,,,,3,,,29,66
410400,note_on,0,0,1,,,,,,,,,0,,,52,66
410400,note_off,0,0,1,,,,,,,,,0,,,53,0
410520,note_on,0,0,4,,,,,,,,,3,,,41,67
410520,note_on,120,0,1,,,,,,,,,0,,,64,67
410520,note_off,120,0,4,,,,,,,,,3,,,41,0
410640,note_off,120,0,4,,,,,,,,,3,,,29,0
410640,note_off,0,0,1,,,,,,,,,0,,,52,0
410640,note_off,0,0,1,,,,,,,,,0,,,55,0
410640,note_on,0,0,1,,,,,,,,,0,,,53,67
410640,note_on,0,0,1,,,,,,,,,0,,,57,67
410640,note_on,0,0,4,,,,,,,,,3,,,29,67
410640,note_off,120,0,1,,,,,,,,,0,,,64,0
410760,note_on,120,0,1,,,,,,,,,0,,,65,68
410760,note_off,120,0,4,,,,,,,,,3,,,41,0
410760,note_on,0,0,4,,,,,,,,,3,,,41,68
410880,note_on,0,0,1,,,,,,,,,0,,,55,68
410880,note_off,0,0,1,,,,,,,,,0,,,53,0
410880,note_off,0,0,1,,,,,,,,,0,,,57,0
410880,note_off,120,0,1,,,,,,,,,0,,,65,0
410880,note_off,120,0,4,,,,,,,,,3,,,29,0
410880,note_on,0,0,4,,,,,,,,,3,,,29,68
410880,note_on,0,0,1,,,,,,,,,0,,,58,68
410985,note_off,105,0,4,,,,,,,,,3,,,41,0
411000,note_on,120,0,1,,,,,,,,,0,,,67,68
411000,note_on,15,0,4,,,,,,,,,3,,,41,68
411120,note_off,120,0,4,,,,,,,,,3,,,29,0
411120,note_on,0,0,4,,,,,,,,,3,,,29,69
411120,note_off,0,0,1,,,,,,,,,0,,,58,0
411120,note_off,120,0,1,,,,,,,,,0,,,67,0
411120,note_off,0,0,1,,,,,,,,,0,,,55,0
411120,note_on,0,0,1,,,,,,,,,0,,,57,69
411120,note_on,0,0,1,,,,,,,,,0,,,60,69
411240,note_on,120,0,1,,,,,,,,,0,,,69,69
411240,note_off,120,0,4,,,,,,,,,3,,,41,0
411240,note_on,0,0,4,,,,,,,,,3,,,41,69
411360,note_on,0,0,1,,,,,,,,,0,,,58,69
411360,note_on,0,0,1,,,,,,,,,0,,,62,69
411360,note_off,0,0,1,,,,,,,,,0,,,60,0
411360,note_off,0,0,1,,,,,,,,,0,,,57,0
411360,note_off,120,0,1,,,,,,,,,0,,,69,0
411360,note_off,120,0,4,,,,,,,,,3,,,29,0
411360,note_on,0,0,4,,,,,,,,,3,,,29,69
411480,note_on,120,0,1,,,,,,,,,0,,,70,70
411480,note_on,0,0,4,,,,,,,,,3,,,41,70
411480,note_off,120,0,4,,,,,,,,,3,,,41,0
411600,note_off,120,0,1,,,,,,,,,0,,,70,0
411600,note_on,0,0,4,,,,,,,,,3,,,29,70
411600,note_off,120,0,4,,,,,,,,,3,,,29,0
411600,note_on,0,0,1,,,,,,,,,0,,,64,70
411600,note_off,0,0,1,,,,,,,,,0,,,58,0
411600,note_off,0,0,1,,,,,,,,,0,,,62,0
411600,note_on,0,0,1,,,,,,,,,0,,,60,70
411720,set_tempo,1800,1,0,,,,,,434782,,,,,,,
411720,note_on,0,0,4,,,,,,,,,3,,,41,70
411720,note_off,120,0,4,,,,,,,,,3,,,41,0
411720,note_on,120,0,1,,,,,,,,,0,,,72,70
411840,note_on,0,0,4,,,,,,,,,3,,,29,71
411840,note_on,0,0,1,,,,,,,,,0,,,65,71
411840,note_off,120,0,4,,,,,,,,,3,,,29,0
411840,note_off,120,0,1,,,,,,,,,0,,,72,0
411840,note_off,0,0,1,,,,,,,,,0,,,64,0
411840,set_tempo,120,1,0,,,,,,428571,,,,,,,
411840,note_off,0,0,1,,,,,,,,,0,,,60,0
411945,note_off,105,0,4,,,,,,,,,3,,,41,0
411960,note_on,120,0,1,,,,,,,,,0,,,69,71
411960,note_on,15,0,4,,,,,,,,,3,,,41,71
412080,note_on,0,0,4,,,,,,,,,3,,,29,72
412080,note_on,0,0,1,,,,,,,,,0,,,72,72
412080,note_off,120,0,1,,,,,,,,,0,,,69,0
412080,note_off,120,0,4,,,,,,,,,3,,,29,0
412200,note_on,0,0,4,,,,,,,,,3,,,41,72
412200,note_off,120,0,4,,,,,,,,,3,,,41,0
412200,note_off,120,0,1,,,,,,,,,0,,,72,0
412200,note_on,0,0,1,,,,,,,,,0,,,77,72
412312,note_off,112,0,1,,,,,,,,,0,,,65,0
412320,note_on,0,0,4,,,,,,,,,3,,,29,72
412320,note_off,8,0,1,,,,,,,,,0,,,77,0
412320,note_on,0,0,1,,,,,,,,,0,,,67,72
412320,note_on,0,0,1,,,,,,,,,0,,,64,72
412320,note_off,120,0,4,,,,,,,,,3,,,29,0
412440,note_on,120,0,1,,,,,,,,,0,,,76,73
412440,note_off,120,0,4,,,,,,,,,3,,,41,0
412440,note_on,0,0,4,,,,,,,,,3,,,41,73
412560,note_on,0,0,1,,,,,,,,,0,,,69,73
412560,note_on,0,0,1,,,,,,,,,0,,,65,73
412560,note_off,0,0,1,,,,,,,,,0,,,67,0
412560,note_off,0,0,1,,,,,,,,,0,,,64,0
412560,note_off,120,0,1,,,,,,,,,0,,,76,0
412560,note_off,120,0,4,,,,,,,,,3,,,29,0
412560,note_on,0,0,4,,,,,,,,,3,,,29,73
412680,note_on,120,0,1,,,,,,,,,0,,,77,73
412680,note_off,120,0,4,,,,,,,,,3,,,41,0
412680,note_on,0,0,4,,,,,,,,,3,,,41,73
412800,note_on,0,0,1,,,,,,,,,0,,,70,74
412800,note_on,0,0,1,,,,,,,,,0,,,67,74
412800,note_off,0,0,1,,,,,,,,,0,,,65,0
412800,note_off,120,0,1,,,,,,,,,0,,,77,0
412800,note_off,120,0,4,,,,,,,,,3,,,29,0
412800,note_on,0,0,4,,,,,,,,,3,,,29,74
412800,note_off,0,0,1,,,,,,,,,0,,,69,0
412905,note_off,105,0,4,,,,,,,,,3,,,41,0
412920,note_on,120,0,1,,,,,,,,,0,,,79,74
412920,note_on,15,0,4,,,,,,,,,3,,,41,74
413040,note_off,0,0,1,,,,,,,,,0,,,67,0
413040,note_on,0,0,1,,,,,,,,,0,,,69,74
413040,note_on,0,0,1,,,,,,,,,0,,,72,74
413040,note_off,120,0,1,,,,,,,,,0,,,79,0
413040,note_off,0,0,1,,,,,,,,,0,,,70,0
413040,note_on,0,0,4,,,,,,,,,3,,,29,74
413040,note_off,120,0,4,,,,,,,,,3,,,29,0
413160,note_off,120,0,4,,,,,,,,,3,,,41,0
413160,note_on,120,0,1,,,,,,,,,0,,,81,75
413160,note_on,0,0,4,,,,,,,,,3,,,41,75
413280,note_on,0,0,1,,,,,,,,,0,,,70,75
413280,note_off,0,0,1,,,,,,,,,0,,,69,0
413280,note_off,0,0,1,,,,,,,,,0,,,72,0
413280,note_off,120,0,1,,,,,,,,,0,,,81,0
413280,note_off,120,0,4,,,,,,,,,3,,,29,0
413280,note_on,0,0,4,,,,,,,,,3,,,29,75
413280,note_on,0,0,1,,,,,,,,,0,,,74,75
413400,note_on,120,0,1,,,,,,,,,0,,,82,76
413400,note_on,0,0,4,,,,,,,,,3,,,41,76
413400,note_off,120,0,4,,,,,,,,,3,,,41,0
413520,note_off,120,0,1,,,,,,,,,0,,,82,0
413520,note_on,0,0,1,,,,,,,,,0,,,72,76
413520,note_on,0,0,1,,,,,,,,,0,,,76,76
413520,note_off,0,0,1,,,,,,,,,0,,,70,0
413520,note_off,0,0,1,,,,,,,,,0,,,74,0
413520,note_off,120,0,4,,,,,,,,,3,,,29,0
413520,note_on,0,0,4,,,,,,,,,3,,,29,76
413640,note_on,120,0,1,,,,,,,,,0,,,84,76
413640,note_on,0,0,4,,,,,,,,,3,,,41,76
413640,note_off,120,0,4,,,,,,,,,3,,,41,0
413640,set_tempo,1800,1,0,,,,,,434782,,,,,,,
413760,note_on,0,0,4,,,,,,,,,3,,,29,77
413760,note_off,120,0,4,,,,,,,,,3,,,29,0
413760,note_on,0,0,1,,,,,,,,,0,,,77,77
413760,note_off,0,0,1,,,,,,,,,0,,,76,0
413760,set_tempo,120,1,0,,,,,,428571,,,,,,,
413760,note_off,0,0,1,,,,,,,,,0,,,72,0
413760,note_off,120,0,1,,,,,,,,,0,,,84,0
413872,note_off,112,0,4,,,,,,,,,3,,,41,0
413880,note_on,120,0,1,,,,,,,,,0,,,81,77
413880,note_on,8,0,4,,,,,,,,,3,,,41,77
414000,note_on,0,0,1,,,,,,,,,0,,,84,77
414000,note_on,0,0,4,,,,,,,,,3,,,29,77
414000,note_off,120,0,1,,,,,,,,,0,,,81,0
414000,note_off,120,0,4,,,,,,,,,3,,,29,0
414120,note_on,0,0,4,,,,,,,,,3,,,41,78
414120,note_off,120,0,4,,,,,,,,,3,,,41,0
414120,note_on,0,0,1,,,,,,,,,0,,,89,78
414120,note_off,120,0,1,,,,,,,,,0,,,84,0
414240,note_off,120,0,1,,,,,,,,,0,,,89,0
414240,note_off,120,0,4,,,,,,,,,3,,,41,0
414240,note_on,0,0,4,,,,,,,,,3,,,31,78
414240,note_off,0,0,4,,,,,,,,,3,,,29,0
414240,note_off,0,0,1,,,,,,,,,0,,,77,0
414240,note_on,0,0,1,,,,,,,,,0,,,76,78
414360,note_on,120,0,4,,,,,,,,,3,,,43,78
414360,note_on,120,0,1,,,,,,,,,0,,,88,78
414480,note_off,0,0,1,,,,,,,,,0,,,76,0
414480,note_on,0,0,1,,,,,,,,,0,,,77,79
414480,note_off,120,0,1,,,,,,,,,0,,,88,0
414480,note_off,0,0,4,,,,,,,,,3,,,31,0
414480,note_on,0,0,4,,,,,,,,,3,,,33,79
414480,note_off,120,0,4,,,,,,,,,3,,,43,0
414600,note_on,120,0,1,,,,,,,,,0,,,89,79
414600,note_on,120,0,4,,,,,,,,,3,,,45,79
414720,note_off,120,0,4,,,,,,,,,3,,,45,0
414720,note_on,0,0,4,,,,,,,,,3,,,33,80
414720,note_off,0,0,4,,,,,,,,,3,,,33,0
414720,note_off,120,0,1,,,,,,,,,0,,,89,0
414720,note_off,0,0,1,,,,,,,,,0,,,77,0
414720,note_on,0,0,1,,,,,,,,,0,,,73,80
414840,note_on,120,0,4,,,,,,,,,3,,,45,80
414840,note_on,120,0,1,,,,,,,,,0,,,85,80
414960,note_on,0,0,4,,,,,,,,,3,,,34,80
414960,note_off,0,0,4,,,,,,,,,3,,,33,0
414960,note_off,120,0,1,,,,,,,,,0,,,85,0
414960,note_off,120,0,4,,,,,,,,,3,,,45,0
414960,note_on,0,0,1,,,,,,,,,0,,,74,80
414960,note_off,0,0,1,,,,,,,,,0,,,73,0
415080,note_on,120,0,1,,,,,,,,,0,,,86,81
415080,note_on,120,0,4,,,,,,,,,3,,,46,81
415200,note_off,120,0,1,,,,,,,,,0,,,86,0
415200,note_off,0,0,1,,,,,,,,,0,,,74,0
415200,note_on,0,0,1,,,,,,,,,0,,,69,81
415200,note_off,120,0,4,,,,,,,,,3,,,46,0
415200,note_off,0,0,4,,,,,,,,,3,,,34,0
415200,note_on,0,0,4,,,,,,,,,3,,,37,81
415320,note_on,120,0,4,,,,,,,,,3,,,49,81
415320,note_on,120,0,1,,,,,,,,,0,,,81,81
415440,note_off,0,0,4,,,,,,,,,3,,,37,0
415440,note_on,0,0,1,,,,,,,,,0,,,70,82
415440,note_off,0,0,1,,,,,,,,,0,,,69,0
415440,note_off,120,0,4,,,,,,,,,3,,,49,0
415440,note_off,120,0,1,,,,,,,,,0,,,81,0
415440,note_on,0,0,4,,,,,,,,,3,,,38,82
415560,note_on,120,0,1,,,,,,,,,0,,,82,82
415560,note_on,120,0,4,,,,,,,,,3,,,50,82
415680,note_off,120,0,4,,,,,,,,,3,,,50,0
415680,note_on,0,0,4,,,,,,,,,3,,,39,83
415680,note_off,120,0,1,,,,,,,,,0,,,82,0
415680,note_on,0,0,1,,,,,,,,,0,,,66,83
415680,note_off,0,0,1,,,,,,,,,0,,,70,0
415680,note_off,0,0,4,,,,,,,,,3,,,38,0
415800,note_on,120,0,4,,,,,,,,,3,,,51,83
415800,note_on,120,0,1,,,,,,,,,0,,,78,83
415920,note_off,120,0,1,,,,,,,,,0,,,78,0
415920,note_off,120,0,4,,,,,,,,,3,,,51,0
415920,note_on,0,0,4,,,,,,,,,3,,,40,83
415920,note_on,0,0,1,,,,,,,,,0,,,67,83
415920,note_off,0,0,1,,,,,,,,,0,,,66,0
415920,note_off,0,0,4,,,,,,,,,3,,,39,0
416040,note_on,120,0,4,,,,,,,,,3,,,52,84
416040,note_on,120,0,1,,,,,,,,,0,,,79,84
416160,note_off,0,0,4,,,,,,,,,3,,,40,0
416160,note_off,120,0,1,,,,,,,,,0,,,79,0
416160,note_off,0,0,1,,,,,,,,,0,,,67,0
416160,note_on,0,0,1,,,,,,,,,0,,,63,84
416160,note_off,120,0,4,,,,,,,,,3,,,52,0
416160,note_on,0,0,4,,,,,,,,,3,,,42,84
416280,note_on,120,0,4,,,,,,,,,3,,,54,84
416280,note_on,120,0,1,,,,,,,,,0,,,75,84
416400,note_off,120,0,4,,,,,,,,,3,,,54,0
416400,note_off,0,0,4,,,,,,,,,3,,,42,0
416400,note_on,0,0,4,,,,,,,,,3,,,43,85
416400,note_off,120,0,1,,,,,,,,,0,,,75,0
416400,note_off,0,0,1,,,,,,,,,0,,,63,0
416400,note_on,0,0,1,,,,,,,,,0,,,64,85
416520,note_on,120,0,4,,,,,,,,,3,,,55,85
416520,note_on,120,0,1,,,,,,,,,0,,,76,85
416640,note_on,0,0,1,,,,,,,,,0,,,67,85
416640,note_off,0,0,1,,,,,,,,,0,,,64,0
416640,note_on,0,0,1,,,,,,,,,0,,,64,85
416640,note_on,0,0,4,,,,,,,,,3,,,45,85
416640,note_off,0,0,4,,,,,,,,,3,,,43,0
416640,note_off,120,0,4,,,,,,,,,3,,,55,0
416640,note_off,120,0,1,,,,,,,,,0,,,76,0
416640,note_on,0,0,4,,,,,,,,,3,,,57,85
416760,note_on,120,0,1,,,,,,,,,0,,,73,86
416880,note_on,0,0,4,,,,,,,,,3,,,46,86
416880,note_on,0,0,4,,,,,,,,,3,,,58,86
416880,note_off,240,0,4,,,,,,,,,3,,,57,0
416880,note_off,0,0,1,,,,,,,,,0,,,64,0
416880,note_off,120,0,1,,,,,,,,,0,,,73,0
416880,note_off,0,0,1,,,,,,,,,0,,,67,0
416880,note_on,0,0,1,,,,,,,,,0,,,62,86
416880,note_on,0,0,1,,,,,,,,,0,,,65,86
416880,note_off,0,0,4,,,,,,,,,3,,,45,0
417000,note_on,120,0,1,,,,,,,,,0,,,74,87
417120,note_off,240,0,4,,,,,,,,,3,,,58,0
417120,note_off,0,0,4,,,,,,,,,3,,,46,0
417120,note_on,0,0,4,,,,,,,,,3,,,48,98
417120,note_on,0,0,1,,,,,,,,,0,,,65,98
417120,note_off,120,0,1,,,,,,,,,0,,,74,0
417120,note_off,0,0,1,,,,,,,,,0,,,62,0
417120,note_off,0,0,1,,,,,,,,,0,,,65,0
417120,note_on,0,0,1,,,,,,,,,0,,,69,98
417120,note_on,0,0,4,,,,,,,,,3,,,60,98
417240,note_on,120,0,1,,,,,,,,,0,,,72,87
417360,note_on,0,0,1,,,,,,,,,0,,,64,88
417360,note_off,0,0,4,,,,,,,,,3,,,48,0
417360,note_off,240,0,4,,,,,,,,,3,,,60,0
417360,note_off,0,0,1,,,,,,,,,0,,,69,0
417360,note_off,0,0,1,,,,,,,,,0,,,65,0
417360,note_off,120,0,1,,,,,,,,,0,,,72,0
417360,note_on,0,0,1,,,,,,,,,0,,,67,88
417360,note_on,0,0,4,,,,,,,,,3,,,48,88
417360,note_on,0,0,4,,,,,,,,,3,,,36,88
417480,note_on,120,0,1,,,,,,,,,0,,,72,88
417600,note_on,0,0,4,,,,,,,,,3,,,45,88
417600,note_on,0,0,1,,,,,,,,,0,,,67,88
417600,note_on,0,0,1,,,,,,,,,0,,,64,88
417600,note_off,0,0,1,,,,,,,,,0,,,67,0
417600,note_on,0,0,4,,,,,,,,,3,,,57,88
417600,note_off,120,0,1,,,,,,,,,0,,,72,0
417600,note_off,0,0,1,,,,,,,,,0,,,64,0
417600,note_off,240,0,4,,,,,,,,,3,,,36,0
417600,note_off,0,0,4,,,,,,,,,3,,,48,0
417720,note_on,120,0,1,,,,,,,,,0,,,73,89
417840,note_on,0,0,4,,,,,,,,,3,,,46,89
417840,note_on,0,0,4,,,,,,,,,3,,,58,89
417840,note_off,0,0,4,,,,,,,,,3,,,57,0
417840,note_off,240,0,4,,,,,,,,,3,,,45,0
417840,note_on,0,0,1,,,,,,,,,0,,,65,89
417840,note_on,0,0,1,,,,,,,,,0,,,62,89
417840,note_off,0,0,1,,,,,,,,,0,,,64,0
417840,note_off,0,0,1,,,,,,,,,0,,,67,0
417840,note_off,120,0,1,,,,,,,,,0,,,73,0
417960,note_on,120,0,1,,,,,,,,,0,,,74,89
418080,note_off,0,0,1,,,,,,,,,0,,,65,0
418080,note_off,0,0,1,,,,,,,,,0,,,62,0
418080,note_on,0,0,1,,,,,,,,,0,,,65,104
418080,note_on,0,0,4,,,,,,,,,3,,,48,104
418080,note_on,0,0,4,,,,,,,,,3,,,60,104
418080,note_off,0,0,4,,,,,,,,,3,,,58,0
418080,note_off,240,0,4,,,,,,,,,3,,,46,0
418080,note_off,120,0,1,,,,,,,,,0,,,74,0
418080,note_on,0,0,1,,,,,,,,,0,,,69,104
418200,note_on,120,0,1,,,,,,,,,0,,,72,90
418320,note_on,0,0,4,,,,,,,,,3,,,48,91
418320,note_off,0,0,4,,,,,,,,,3,,,60,0
418320,note_off,240,0,4,,,,,,,,,3,,,48,0
418320,note_on,0,0,4,,,,,,,,,3,,,36,91
418320,note_off,120,0,1,,,,,,,,,0,,,72,0
418320,note_off,0,0,1,,,,,,,,,0,,,69,0
418320,note_off,0,0,1,,,,,,,,,0,,,65,0
418320,note_on,0,0,1,,,,,,,,,0,,,64,91
418320,note_on,0,0,1,,,,,,,,,0,,,67,91
418440,note_on,120,0,1,,,,,,,,,0,,,72,91
418560,note_on,0,0,4,,,,,,,,,3,,,45,91
418560,note_on,0,0,1,,,,,,,,,0,,,67,91
418560,note_off,0,0,1,,,,,,,,,0,,,64,0
418560,note_off,0,0,1,,,,,,,,,0,,,67,0
418560,note_off,120,0,1,,,,,,,,,0,,,72,0
418560,note_on,0,0,1,,,,,,,,,0,,,64,91
418560,note_on,0,0,4,,,,,,,,,3,,,57,91
418560,note_off,240,0,4,,,,,,,,,3,,,36,0
418560,note_off,0,0,4,,,,,,,,,3,,,48,0
418680,note_on,120,0,1,,,,,,,,,0,,,73,92
418800,note_on,0,0,4,,,,,,,,,3,,,46,92
418800,note_on,0,0,1,,,,,,,,,0,,,65,92
418800,note_on,0,0,1,,,,,,,,,0,,,62,92
418800,note_off,240,0,4,,,,,,,,,3,,,45,0
418800,note_off,0,0,1,,,,,,,,,0,,,64,0
418800,note_off,120,0,1,,,,,,,,,0,,,73,0
418800,note_on,0,0,4,,,,,,,,,3,,,58,92
418800,note_off,0,0,1,,,,,,,,,0,,,67,0
418800,note_off,0,0,4,,,,,,,,,3,,,57,0
418920,note_on,120,0,1,,,,,,,,,0,,,74,92
419040,note_on,0,0,4,,,,,,,,,3,,,48,106
419040,note_on,0,0,4,,,,,,,,,3,,,60,106
419040,note_off,0,0,4,,,,,,,,,3,,,58,0
419040,note_off,240,0,4,,,,,,,,,3,,,46,0
419040,note_on,0,0,1,,,,,,,,,0,,,65,108
419040,note_on,0,0,1,,,,,,,,,0,,,69,108
419040,note_off,120,0,1,,,,,,,,,0,,,74,0
419040,note_off,0,0,1,,,,,,,,,0,,,65,0
419040,note_off,0,0,1,,,,,,,,,0,,,62,0
419160,note_on,120,0,1,,,,,,,,,0,,,72,93
419280,note_on,0,0,4,,,,,,,,,3,,,36,93
419280,note_on,0,0,4,,,,,,,,,3,,,48,93
419280,note_off,0,0,4,,,,,,,,,3,,,60,0
419280,note_off,240,0,4,,,,,,,,,3,,,48,0
419280,note_off,120,0,1,,,,,,,,,0,,,72,0
419280,note_off,0,0,1,,,,,,,,,0,,,69,0
419280,note_on,0,0,1,,,,,,,,,0,,,64,93
419280,note_on,0,0,1,,,,,,,,,0,,,67,93
419280,note_off,0,0,1,,,,,,,,,0,,,65,0
419400,set_tempo,5640,1,0,,,,,,434782,,,,,,,
419400,note_on,120,0,1,,,,,,,,,0,,,72,94
419520,note_on,0,0,1,,,,,,,,,0,,,65,94
419520,note_off,0,0,4,,,,,,,,,3,,,48,0
419520,note_off,0,0,1,,,,,,,,,0,,,67,0
419520,note_off,0,0,1,,,,,,,,,0,,,64,0
419520,note_off,120,0,1,,,,,,,,,0,,,72,0
419520,note_off,240,0,4,,,,,,,,,3,,,36,0
419520,note_on,0,0,1,,,,,,,,,0,,,69,94
419520,note_on,0,0,4,,,,,,,,,3,,,41,94
419520,set_tempo,120,1,0,,,,,,428571,,,,,,,
419640,note_on,120,0,4,,,,,,,,,3,,,45,95
419760,note_off,0,0,1,,,,,,,,,0,,,65,0
419760,note_off,240,0,1,,,,,,,,,0,,,69,0
419760,note_off,120,0,4,,,,,,,,,3,,,45,0
419760,note_on,0,0,4,,,,,,,,,3,,,48,95
419880,note_off,120,0,4,,,,,,,,,3,,,48,0
419880,note_on,0,0,4,,,,,,,,,3,,,53,95
420000,note_off,120,0,4,,,,,,,,,3,,,53,0
420000,note_on,240,0,1,,,,,,,,,0,,,72,96
420000,note_on,122160,0,2,,,,,,,,,1,,,60,96
420000,note_on,0,0,4,,,,,,,,,3,,,44,96
420000,note_off,0,0,4,,,,,,,,,3,,,41,0
420120,note_on,120,0,4,,,,,,,,,3,,,52,96
420240,note_on,0,0,2,,,,,,,,,1,,,60,108
420240,note_off,240,0,2,,,,,,,,,1,,,60,0
420240,note_on,0,0,1,,,,,,,,,0,,,72,108
420240,note_off,120,0,4,,,,,,,,,3,,,52,0
420240,note_off,240,0,1,,,,,,,,,0,,,72,0
420240,note_on,0,0,4,,,,,,,,,3,,,45,96
420240,note_off,0,0,4,,,,,,,,,3,,,44,0
420360,note_on,120,0,4,,,,,,,,,3,,,53,97
420480,note_off,120,0,4,,,,,,,,,3,,,53,0
420480,note_on,0,0,4,,,,,,,,,3,,,41,97
420480,note_off,0,0,4,,,,,,,,,3,,,45,0
420600,note_on,120,0,4,,,,,,,,,3,,,45,97
420720,note_off,120,0,4,,,,,,,,,3,,,45,0
420720,note_on,0,0,4,,,,,,,,,3,,,48,98
420840,note_off,120,0,4,,,,,,,,,3,,,48,0
420840,note_on,0,0,4,,,,,,,,,3,,,53,98
420960,note_off,720,0,1,,,,,,,,,0,,,72,0
420960,note_on,0,0,1,,,,,,,,,0,,,72,99
420960,note_on,0,0,4,,,,,,,,,3,,,44,99
420960,note_off,120,0,4,,,,,,,,,3,,,53,0
420960,note_off,720,0,2,,,,,,,,,1,,,60,0
420960,note_on,0,0,2,,,,,,,,,1,,,60,99
420960,note_off,0,0,4,,,,,,,,,3,,,41,0
421080,note_on,120,0,4,,,,,,,,,3,,,52,99
421200,note_on,0,0,2,,,,,,,,,1,,,60,110
421200,note_off,240,0,2,,,,,,,,,1,,,60,0
421200,note_on,0,0,1,,,,,,,,,0,,,72,110
421200,note_off,240,0,1,,,,,,,,,0,,,72,0
421200,note_on,0,0,4,,,,,,,,,3,,,45,99
421200,note_off,0,0,4,,,,,,,,,3,,,44,0
421200,note_off,120,0,4,,,,,,,,,3,,,52,0
421320,note_on,120,0,4,,,,,,,,,3,,,53,100
421440,note_off,0,0,4,,,,,,,,,3,,,45,0
421440,note_off,120,0,4,,,,,,,,,3,,,53,0
421440,note_on,0,0,4,,,,,,,,,3,,,41,100
421560,note_on,120,0,4,,,,,,,,,3,,,45,100
421680,note_off,480,0,2,,,,,,,,,1,,,60,0
421680,note_on,0,0,2,,,,,,,,,1,,,60,110
421680,note_off,120,0,4,,,,,,,,,3,,,45,0
421680,note_on,0,0,4,,,,,,,,,3,,,48,101
421680,note_off,480,0,1,,,,,,,,,0,,,72,0
421680,note_on,0,0,1,,,,,,,,,0,,,72,110
421800,note_on,0,0,4,,,,,,,,,3,,,53,101
421800,note_off,120,0,4,,,,,,,,,3,,,48,0
421920,note_off,0,0,4,,,,,,,,,3,,,41,0
421920,note_on,0,0,4,,,,,,,,,3,,,44,101
421920,note_off,120,0,4,,,,,,,,,3,,,53,0
422040,note_on,120,0,4,,,,,,,,,3,,,52,102
422160,note_on,0,0,1,,,,,,,,,0,,,72,113
422160,note_off,480,0,1,,,,,,,,,0,,,72,0
422160,note_off,120,0,4,,,,,,,,,3,,,52,0
422160,note_off,480,0,2,,,,,,,,,1,,,60,0
422160,note_off,0,0,4,,,,,,,,,3,,,44,0
422160,note_on,0,0,4,,,,,,,,,3,,,45,102
422160,note_on,0,0,2,,,,,,,,,1,,,60,113
422280,note_on,120,0,4,,,,,,,,,3,,,53,103
422400,note_on,0,0,4,,,,,,,,,3,,,44,103
422400,note_off,0,0,4,,,,,,,,,3,,,45,0
422400,note_off,120,0,4,,,,,,,,,3,,,53,0
422520,note_on,120,0,4,,,,,,,,,3,,,52,103
422640,note_off,480,0,2,,,,,,,,,1,,,60,0
422640,note_on,0,0,2,,,,,,,,,1,,,60,116
422640,note_on,0,0,1,,,,,,,,,0,,,72,116
422640,note_off,480,0,1,,,,,,,,,0,,,72,0
422640,note_off,120,0,4,,,,,,,,,3,,,52,0
422640,note_off,0,0,4,,,,,,,,,3,,,44,0
422640,note_on,0,0,4,,,,,,,,,3,,,45,104
422760,note_on,120,0,4,,,,,,,,,3,,,53,104
422880,note_off,120,0,4,,,,,,,,,3,,,53,0
422880,note_off,0,0,4,,,,,,,,,3,,,45,0
422880,note_on,0,0,4,,,,,,,,,3,,,44,104
423000,note_on,120,0,4,,,,,,,,,3,,,52,105
423120,note_off,480,0,1,,,,,,,,,0,,,72,0
423120,note_on,0,0,4,,,,,,,,,3,,,45,105
423120,note_off,120,0,4,,,,,,,,,3,,,52,0
423120,note_off,0,0,4,,,,,,,,,3,,,44,0
423120,note_on,0,0,1,,,,,,,,,0,,,72,119
423120,note_off,480,0,2,,,,,,,,,1,,,60,0
423120,note_on,0,0,2,,,,,,,,,1,,,60,119
423240,set_tempo,3720,1,0,,,,,,434782,,,,,,,
423240,note_on,120,0,4,,,,,,,,,3,,,53,105
423360,note_off,0,0,4,,,,,,,,,3,,,45,0
423360,note_off,120,0,4,,,,,,,,,3,,,53,0
423360,note_on,0,0,4,,,,,,,,,3,,,48,106
423360,note_on,0,0,4,,,,,,,,,3,,,41,106
423360,set_tempo,120,1,0,,,,,,428571,,,,,,,
423360,note_off,240,0,1,,,,,,,,,0,,,72,0
423360,note_off,240,0,2,,,,,,,,,1,,,60,0
423360,end_of_track,0,1,2,,,,,,,,,,,,,
423360,note_on,0,0,1,,,,,,,,,0,,,65,106
423480,note_on,120,0,1,,,,,,,,,0,,,69,106
423600,note_off,120,0,1,,,,,,,,,0,,,69,0
423600,note_on,0,0,1,,,,,,,,,0,,,72,107
423600,note_off,0,0,4,,,,,,,,,3,,,48,0
423600,note_off,240,0,4,,,,,,,,,3,,,41,0
423720,note_off,120,0,1,,,,,,,,,0,,,72,0
423720,note_on,0,0,1,,,,,,,,,0,,,77,107
423832,note_off,112,0,1,,,,,,,,,0,,,65,0
423840,note_on,240,0,4,,,,,,,,,3,,,48,107
423840,note_on,0,0,4,,,,,,,,,3,,,41,107
423840,note_on,0,0,1,,,,,,,,,0,,,68,107
423840,note_off,8,0,1,,,,,,,,,0,,,77,0
423960,note_on,120,0,1,,,,,,,,,0,,,76,108
424080,note_off,0,0,1,,,,,,,,,0,,,68,0
424080,note_off,120,0,1,,,,,,,,,0,,,76,0
424080,note_on,0,0,4,,,,,,,,,3,,,41,117
424080,note_on,0,0,4,,,,,,,,,3,,,48,117
424080,note_off,0,0,4,,,,,,,,,3,,,48,0
424080,note_off,240,0,4,,,,,,,,,3,,,41,0
424080,note_on,0,0,1,,,,,,,,,0,,,69,108
424200,note_on,120,0,1,,,,,,,,,0,,,77,108
424320,note_on,0,0,1,,,,,,,,,0,,,69,109
424320,note_off,0,0,1,,,,,,,,,0,,,69,0
424320,note_off,120,0,1,,,,,,,,,0,,,77,0
424440,note_on,120,0,1,,,,,,,,,0,,,72,109
424560,note_on,0,0,1,,,,,,,,,0,,,77,109
424560,note_off,120,0,1,,,,,,,,,0,,,72,0
424680,note_on,0,0,1,,,,,,,,,0,,,81,110
424680,note_off,120,0,1,,,,,,,,,0,,,77,0
424770,note_off,690,0,4,,,,,,,,,3,,,41,0
424785,note_off,15,0,4,,,,,,,,,3,,,48,0
424800,note_on,0,0,1,,,,,,,,,0,,,71,110
424800,note_off,0,0,1,,,,,,,,,0,,,69,0
424800,note_off,120,0,1,,,,,,,,,0,,,81,0
424800,note_on,0,0,4,,,,,,,,,3,,,41,110
424800,note_on,15,0,4,,,,,,,,,3,,,48,110
424920,note_on,120,0,1,,,,,,,,,0,,,80,111
425040,note_off,240,0,4,,,,,,,,,3,,,41,0
425040,note_on,0,0,1,,,,,,,,,0,,,72,111
425040,note_on,0,0,4,,,,,,,,,3,,,41,120
425040,note_on,0,0,4,,,,,,,,,3,,,48,120
425040,note_off,120,0,1,,,,,,,,,0,,,80,0
425040,note_off,0,0,1,,,,,,,,,0,,,71,0
425040,note_off,0,0,4,,,,,,,,,3,,,48,0
425160,note_on,120,0,1,,,,,,,,,0,,,81,111
425280,note_off,120,0,1,,,,,,,,,0,,,81,0
425280,note_off,0,0,1,,,,,,,,,0,,,72,0
425280,note_on,0,0,1,,,,,,,,,0,,,72,112
425400,note_on,120,0,1,,,,,,,,,0,,,77,112
425520,note_off,120,0,1,,,,,,,,,0,,,77,0
425520,note_on,0,0,1,,,,,,,,,0,,,81,112
425640,note_off,120,0,1,,,,,,,,,0,,,81,0
425640,note_on,0,0,1,,,,,,,,,0,,,84,113
425760,note_on,0,0,4,,,,,,,,,3,,,41,113
425760,note_off,720,0,4,,,,,,,,,3,,,48,0
425760,note_off,0,0,4,,,,,,,,,3,,,41,0
425760,note_on,0,0,4,,,,,,,,,3,,,48,113
425760,note_off,120,0,1,,,,,,,,,0,,,84,0
425760,note_off,0,0,1,,,,,,,,,0,,,72,0
425760,note_on,0,0,1,,,,,,,,,0,,,80,113
425880,note_on,120,0,1,,,,,,,,,0,,,83,113
426000,note_on,0,0,4,,,,,,,,,3,,,48,120
426000,note_off,120,0,1,,,,,,,,,0,,,83,0
426000,note_on,0,0,1,,,,,,,,,0,,,81,114
426000,note_on,0,0,4,,,,,,,,,3,,,41,120
426000,note_off,0,0,1,,,,,,,,,0,,,80,0
426000,note_off,0,0,4,,,,,,,,,3,,,48,0
426000,note_off,240,0,4,,,,,,,,,3,,,41,0
426120,note_on,120,0,1,,,,,,,,,0,,,84,114
426240,note_on,0,0,1,,,,,,,,,0,,,80,115
426240,note_off,120,0,1,,,,,,,,,0,,,84,0
426240,note_off,0,0,1,,,,,,,,,0,,,81,0
426360,note_on,120,0,1,,,,,,,,,0,,,83,115
426480,note_off,480,0,4,,,,,,,,,3,,,41,0
426480,note_off,0,0,4,,,,,,,,,3,,,48,0
426480,note_on,0,0,4,,,,,,,,,3,,,48,122
426480,note_on,0,0,4,,,,,,,,,3,,,41,122
426480,note_on,0,0,1,,,,,,,,,0,,,81,115
426480,note_off,0,0,1,,,,,,,,,0,,,80,0
426480,note_off,120,0,1,,,,,,,,,0,,,83,0
426600,note_on,120,0,1,,,,,,,,,0,,,84,116
426720,note_off,120,0,1,,,,,,,,,0,,,84,0
426720,note_off,0,0,1,,,,,,,,,0,,,81,0
426720,note_on,0,0,1,,,,,,,,,0,,,80,116
426840,note_on,120,0,1,,,,,,,,,0,,,83,116
426960,note_off,120,0,1,,,,,,,,,0,,,83,0
426960,note_off,480,0,4,,,,,,,,,3,,,41,0
426960,note_off,0,0,4,,,,,,,,,3,,,48,0
426960,note_on,0,0,4,,,,,,,,,3,,,41,125
426960,note_on,0,0,4,,,,,,,,,3,,,48,125
426960,note_off,0,0,1,,,,,,,,,0,,,80,0
426960,note_on,0,0,1,,,,,,,,,0,,,81,117
427080,set_tempo,3720,1,0,,,,,,441176,,,,,,,
427080,note_on,120,0,1,,,,,,,,,0,,,84,117
427200,set_tempo,120,1,0,,,,,,517241,,,,,,,
427200,note_on,0,0,1,,,,,,,,,0,,,81,117
427200,note_on,0,0,1,,,,,,,,,0,,,84,117
427200,end_of_track,0,1,0,,,,,,,,,,,,,
427200,note_off,0,0,1,,,,,,,,,0,,,81,0
427200,note_off,120,0,1,,,,,,,,,0,,,84,0
427440,note_off,0,0,1,,,,,,,,,0,,,81,0
427440,note_off,240,0,1,,,,,,,,,0,,,84,0
427440,note_off,480,0,4,,,,,,,,,3,,,48,0
427440,note_off,0,0,4,,,,,,,,,3,,,41,0
427680,note_on,0,0,4,,,,,,,,,3,,,29,119
427680,note_on,240,0,4,,,,,,,,,3,,,41,119
427680,note_on,0,0,1,,,,,,,,,0,,,53,119
427680,note_on,240,0,1,,,,,,,,,0,,,57,119
427920,note_off,240,0,4,,,,,,,,,3,,,29,0
427920,note_off,0,0,4,,,,,,,,,3,,,41,0
427920,note_off,0,0,1,,,,,,,,,0,,,57,0
427920,end_of_track,0,1,1,,,,,,,,,,,,,
427920,note_off,240,0,1,,,,,,,,,0,,,53,0
427920,end_of_track,0,1,4,,,,,,,,,,,,,
