tick,type,time,meta,track,numerator,denominator,clocks_per_click,notated_32nd_notes_per_beat,key,tempo,control,value,channel,program,pitch,note,velocity
0,track_name,0,1,0,,,,,,,,,,,,,
0,control_change,0,0,2,,,,,,,64,0,1,,,,
0,control_change,0,0,2,,,,,,,1,0,1,,,,
0,pitchwheel,0,0,2,,,,,,,,,1,,0,,
0,control_change,0,0,2,,,,,,,7,122,1,,,,
0,program_change,0,0,2,,,,,,,,,1,0,,,
0,control_change,0,0,2,,,,,,,32,0,1,,,,
0,control_change,0,0,2,,,,,,,0,0,1,,,,
0,track_name,0,1,2,,,,,,,,,,,,,
0,control_change,0,0,2,,,,,,,93,28,1,,,,
0,control_change,0,0,3,,,,,,,0,0,2,,,,
0,program_change,0,0,1,,,,,,,,,0,0,,,
0,control_change,0,0,1,,,,,,,10,73,0,,,,
0,control_change,0,0,1,,,,,,,91,91,0,,,,
0,control_change,0,0,1,,,,,,,93,28,0,,,,
0,control_change,0,0,1,,,,,,,64,0,0,,,,
0,control_change,0,0,1,,,,,,,1,0,0,,,,
0,control_change,0,0,1,,,,,,,7,127,0,,,,
0,control_change,0,0,1,,,,,,,32,0,0,,,,
0,pitchwheel,0,0,1,,,,,,,,,0,,0,,
0,control_change,0,0,2,,,,,,,91,91,1,,,,
0,control_change,0,0,2,,,,,,,10,64,1,,,,
0,control_change,0,0,4,,,,,,,7,122,3,,,,
0,control_change,0,0,3,,,,,,,32,0,2,,,,
0,program_change,0,0,3,,,,,,,,,2,0,,,
0,control_change,0,0,3,,,,,,,7,117,2,,,,
0,pitchwheel,0,0,3,,,,,,,,,2,,0,,
0,control_change,0,0,3,,,,,,,1,0,2,,,,
0,control_change,0,0,3,,,,,,,64,0,2,,,,
0,control_change,0,0,3,,,,,,,93,28,2,,,,
0,control_change,0,0,3,,,,,,,91,91,2,,,,
0,control_change,0,0,3,,,,,,,10,64,2,,,,
0,track_name,0,1,4,,,,,,,,,,,,,
0,control_change,0,0,4,,,,,,,0,0,3,,,,
0,control_change,0,0,4,,,,,,,32,0,3,,,,
0,program_change,0,0,4,,,,,,,,,3,0,,,
0,control_change,0,0,4,,,,,,,10,55,3,,,,
0,control_change,0,0,4,,,,,,,91,91,3,,,,
0,control_change,0,0,4,,,,,,,93,28,3,,,,
0,control_change,0,0,4,,,,,,,64,0,3,,,,
0,control_change,0,0,4,,,,,,,1,0,3,,,,
0,pitchwheel,0,0,4,,,,,,,,,3,,0,,
0,control_change,0,0,1,,,,,,,0,0,0,,,,
0,track_name,0,1,1,,,,,,,,,,,,,
0,track_name,0,1,3,,,,,,,,,,,,,
0,key_signature,0,1,0,,,,,C,,,,,,,,
0,marker,0,1,0,,,,,,,,,,,,,
0,set_tempo,0,1,0,,,,,,535714,,,,,,,
0,time_signature,0,1,0,3,4,24,8,,,,,,,,,
1440,note_on,0,0,3,,,,,,,,,2,,,56,49
1440,note_on,0,0,3,,,,,,,,,2,,,53,49
1440,note_on,0,0,3,,,,,,,,,2,,,63,47
1440,note_on,0,0,3,,,,,,,,,2,,,60,47
1440,note_on,1440,0,3,,,,,,,,,2,,,51,49
1440,set_tempo,1440,1,0,,,,,,416666,,,,,,,
1440,marker,0,1,0,,,,,,,,,,,,,
1440,note_on,1440,0,4,,,,,,,,,3,,,44,49
1440,control_change,1440,0,1,,,,,,,64,127,0,,,,
1440,note_on,0,0,1,,,,,,,,,0,,,72,47
1800,note_off,360,0,1,,,,,,,,,0,,,72,0
1800,note_on,0,0,1,,,,,,,,,0,,,65,45
1920,note_off,120,0,1,,,,,,,,,0,,,65,0
1920,note_on,0,0,1,,,,,,,,,0,,,65,44
2272,note_off,832,0,3,,,,,,,,,2,,,51,0
2280,control_change,360,0,1,,,,,,,64,0,0,,,,
2280,note_off,0,0,3,,,,,,,,,2,,,53,0
2280,note_off,0,0,3,,,,,,,,,2,,,63,0
2280,note_off,8,0,3,,,,,,,,,2,,,56,0
2287,note_off,7,0,3,,,,,,,,,2,,,60,0
2287,note_off,7,0,1,,,,,,,,,0,,,65,0
2287,note_off,847,0,4,,,,,,,,,3,,,44,0
2370,set_tempo,930,1,0,,,,,,428571,,,,,,,
2880,note_on,593,0,4,,,,,,,,,3,,,44,43
2880,set_tempo,510,1,0,,,,,,425531,,,,,,,
2880,marker,0,1,0,,,,,,,,,,,,,
2880,control_change,593,0,1,,,,,,,64,127,0,,,,
2880,note_on,593,0,3,,,,,,,,,2,,,63,45
2880,note_on,0,0,3,,,,,,,,,2,,,60,45
2880,note_on,0,0,3,,,,,,,,,2,,,53,43
2880,note_on,0,0,3,,,,,,,,,2,,,56,43
2880,note_on,0,0,3,,,,,,,,,2,,,51,43
2880,note_on,0,0,1,,,,,,,,,0,,,72,45
3240,note_on,0,0,1,,,,,,,,,0,,,65,41
3240,note_off,360,0,1,,,,,,,,,0,,,72,0
3360,note_off,120,0,1,,,,,,,,,0,,,65,0
3360,note_on,0,0,1,,,,,,,,,0,,,65,40
3720,control_change,360,0,1,,,,,,,64,0,0,,,,
3720,note_off,0,0,1,,,,,,,,,0,,,65,0
3720,note_off,840,0,4,,,,,,,,,3,,,44,0
3727,note_off,0,0,3,,,,,,,,,2,,,63,0
3727,note_off,0,0,3,,,,,,,,,2,,,60,0
3727,note_off,0,0,3,,,,,,,,,2,,,53,0
3727,note_off,0,0,3,,,,,,,,,2,,,56,0
3727,note_off,847,0,3,,,,,,,,,2,,,51,0
3840,set_tempo,960,1,0,,,,,,441176,,,,,,,
4320,note_on,600,0,1,,,,,,,,,0,,,65,44
4320,set_tempo,480,1,0,,,,,,441176,,,,,,,
4320,marker,0,1,0,,,,,,,,,,,,,
4320,note_on,600,0,4,,,,,,,,,3,,,32,40
4320,note_on,0,0,3,,,,,,,,,2,,,63,44
4320,note_on,593,0,3,,,,,,,,,2,,,60,44
4320,note_on,0,0,3,,,,,,,,,2,,,39,40
4608,note_off,0,0,3,,,,,,,,,2,,,60,0
4608,note_off,288,0,4,,,,,,,,,3,,,32,0
4608,note_off,288,0,3,,,,,,,,,2,,,39,0
4608,note_off,0,0,3,,,,,,,,,2,,,63,0
4608,note_off,288,0,1,,,,,,,,,0,,,65,0
4800,note_on,192,0,1,,,,,,,,,0,,,65,46
4800,note_on,192,0,4,,,,,,,,,3,,,32,42
4800,note_on,0,0,3,,,,,,,,,2,,,63,46
4800,note_on,0,0,3,,,,,,,,,2,,,39,42
4800,note_on,192,0,3,,,,,,,,,2,,,60,46
5055,set_tempo,735,1,0,,,,,,447761,,,,,,,
5088,note_off,0,0,3,,,,,,,,,2,,,60,0
5088,note_off,288,0,1,,,,,,,,,0,,,65,0
5088,note_off,0,0,3,,,,,,,,,2,,,63,0
5088,note_off,288,0,3,,,,,,,,,2,,,39,0
5088,note_off,288,0,4,,,,,,,,,3,,,32,0
5280,note_on,192,0,4,,,,,,,,,3,,,32,44
5280,note_on,192,0,1,,,,,,,,,0,,,65,48
5280,note_on,0,0,3,,,,,,,,,2,,,39,44
5280,note_on,0,0,3,,,,,,,,,2,,,63,48
5280,note_on,192,0,3,,,,,,,,,2,,,60,48
5310,set_tempo,255,1,0,,,,,,508474,,,,,,,
5568,note_off,288,0,1,,,,,,,,,0,,,65,0
5568,note_off,0,0,3,,,,,,,,,2,,,63,0
5568,note_off,0,0,3,,,,,,,,,2,,,60,0
5568,note_off,288,0,3,,,,,,,,,2,,,39,0
5568,note_off,288,0,4,,,,,,,,,3,,,32,0
5760,note_on,192,0,3,,,,,,,,,2,,,60,50
5760,note_on,0,0,3,,,,,,,,,2,,,63,50
5760,note_on,192,0,1,,,,,,,,,0,,,66,50
5760,note_on,192,0,4,,,,,,,,,3,,,33,47
5760,note_on,0,0,3,,,,,,,,,2,,,39,47
5760,set_tempo,450,1,0,,,,,,674157,,,,,,,
5760,marker,0,1,0,,,,,,,,,,,,,
7080,note_off,0,0,3,,,,,,,,,2,,,60,0
7080,note_off,1320,0,3,,,,,,,,,2,,,39,0
7080,note_off,1320,0,4,,,,,,,,,3,,,33,0
7087,note_off,1327,0,1,,,,,,,,,0,,,66,0
7087,note_off,7,0,3,,,,,,,,,2,,,63,0
7200,note_on,113,0,1,,,,,,,,,0,,,66,57
7200,set_tempo,1440,1,0,,,,,,447761,,,,,,,
7200,marker,0,1,0,,,,,,,,,,,,,
7200,note_on,113,0,3,,,,,,,,,2,,,63,57
7200,note_on,0,0,3,,,,,,,,,2,,,51,54
7200,note_on,120,0,4,,,,,,,,,3,,,45,54
7200,note_on,0,0,3,,,,,,,,,2,,,54,54
7488,note_off,288,0,1,,,,,,,,,0,,,66,0
7488,note_off,288,0,4,,,,,,,,,3,,,45,0
7488,note_off,0,0,3,,,,,,,,,2,,,63,0
7488,note_off,288,0,3,,,,,,,,,2,,,51,0
7488,note_off,0,0,3,,,,,,,,,2,,,54,0
7680,note_on,192,0,4,,,,,,,,,3,,,45,58
7680,note_on,192,0,1,,,,,,,,,0,,,66,59
7680,note_on,0,0,3,,,,,,,,,2,,,51,58
7680,note_on,0,0,3,,,,,,,,,2,,,54,58
7680,note_on,192,0,3,,,,,,,,,2,,,63,59
7875,set_tempo,675,1,0,,,,,,454545,,,,,,,
7968,note_off,288,0,4,,,,,,,,,3,,,45,0
7968,note_off,288,0,3,,,,,,,,,2,,,51,0
7968,note_off,0,0,3,,,,,,,,,2,,,54,0
7968,note_off,0,0,3,,,,,,,,,2,,,63,0
7968,note_off,288,0,1,,,,,,,,,0,,,66,0
8145,set_tempo,270,1,0,,,,,,560747,,,,,,,
8160,note_on,192,0,3,,,,,,,,,2,,,63,61
8160,note_on,0,0,3,,,,,,,,,2,,,54,61
8160,note_on,192,0,1,,,,,,,,,0,,,66,61
8160,note_on,0,0,3,,,,,,,,,2,,,51,61
8160,note_on,192,0,4,,,,,,,,,3,,,45,61
8448,note_off,0,0,3,,,,,,,,,2,,,54,0
8448,note_off,288,0,3,,,,,,,,,2,,,51,0
8448,note_off,0,0,3,,,,,,,,,2,,,63,0
8448,note_off,288,0,1,,,,,,,,,0,,,66,0
8448,note_off,288,0,4,,,,,,,,,3,,,45,0
8640,note_on,0,0,3,,,,,,,,,2,,,51,67
8640,note_on,0,0,3,,,,,,,,,2,,,55,67
8640,note_on,0,0,3,,,,,,,,,2,,,63,66
8640,note_on,192,0,3,,,,,,,,,2,,,58,66
8640,set_tempo,495,1,0,,,,,,582524,,,,,,,
8640,note_on,192,0,1,,,,,,,,,0,,,67,66
8640,note_on,192,0,4,,,,,,,,,3,,,46,68
11400,note_off,0,0,3,,,,,,,,,2,,,58,0
11400,note_off,0,0,3,,,,,,,,,2,,,55,0
11400,note_off,2760,0,3,,,,,,,,,2,,,51,0
11400,note_off,2760,0,1,,,,,,,,,0,,,67,0
11407,note_off,2767,0,4,,,,,,,,,3,,,46,0
11407,note_off,7,0,3,,,,,,,,,2,,,63,0
11520,note_on,0,0,3,,,,,,,,,2,,,56,51
11520,note_on,113,0,3,,,,,,,,,2,,,62,51
11520,note_on,120,0,1,,,,,,,,,0,,,67,51
11520,set_tempo,2880,1,0,,,,,,422535,,,,,,,
11520,note_on,0,0,3,,,,,,,,,2,,,46,51
11520,note_on,113,0,4,,,,,,,,,3,,,34,51
11760,note_on,0,0,1,,,,,,,,,0,,,65,50
11760,note_off,240,0,1,,,,,,,,,0,,,67,0
11940,note_off,420,0,3,,,,,,,,,2,,,46,0
11947,note_off,7,0,3,,,,,,,,,2,,,56,0
11947,note_off,0,0,3,,,,,,,,,2,,,62,0
11947,note_off,427,0,4,,,,,,,,,3,,,34,0
12000,note_on,0,0,1,,,,,,,,,0,,,65,50
12000,note_on,53,0,4,,,,,,,,,3,,,34,49
12000,note_on,53,0,3,,,,,,,,,2,,,62,50
12000,note_on,0,0,3,,,,,,,,,2,,,56,50
12000,note_on,0,0,3,,,,,,,,,2,,,46,49
12000,note_off,240,0,1,,,,,,,,,0,,,65,0
12120,note_on,0,0,1,,,,,,,,,0,,,67,49
12120,note_off,120,0,1,,,,,,,,,0,,,65,0
12240,note_off,120,0,1,,,,,,,,,0,,,67,0
12240,note_on,0,0,1,,,,,,,,,0,,,65,49
12360,note_off,120,0,1,,,,,,,,,0,,,65,0
12360,note_on,0,0,1,,,,,,,,,0,,,64,48
12412,note_off,412,0,3,,,,,,,,,2,,,56,0
12420,note_off,8,0,3,,,,,,,,,2,,,46,0
12427,note_off,7,0,3,,,,,,,,,2,,,62,0
12427,note_off,427,0,4,,,,,,,,,3,,,34,0
12480,note_on,0,0,3,,,,,,,,,2,,,56,48
12480,note_on,53,0,4,,,,,,,,,3,,,34,47
12480,note_on,53,0,3,,,,,,,,,2,,,62,48
12480,note_on,0,0,3,,,,,,,,,2,,,46,47
12480,note_on,0,0,1,,,,,,,,,0,,,65,48
12480,note_off,120,0,1,,,,,,,,,0,,,64,0
12636,note_off,156,0,1,,,,,,,,,0,,,65,0
12720,note_on,84,0,1,,,,,,,,,0,,,67,47
12840,set_tempo,1320,1,0,,,,,,428571,,,,,,,
12876,note_off,156,0,1,,,,,,,,,0,,,67,0
12900,note_off,420,0,3,,,,,,,,,2,,,62,0
12907,note_off,7,0,3,,,,,,,,,2,,,46,0
12907,note_off,427,0,4,,,,,,,,,3,,,34,0
12915,note_off,8,0,3,,,,,,,,,2,,,56,0
12960,set_tempo,120,1,0,,,,,,416666,,,,,,,
12960,note_on,45,0,3,,,,,,,,,2,,,55,48
12960,note_on,0,0,3,,,,,,,,,2,,,51,45
12960,note_on,53,0,4,,,,,,,,,3,,,39,45
12960,note_on,84,0,1,,,,,,,,,0,,,63,48
13080,note_off,120,0,1,,,,,,,,,0,,,63,0
13080,note_on,0,0,1,,,,,,,,,0,,,65,48
13200,note_off,120,0,1,,,,,,,,,0,,,65,0
13200,note_on,0,0,1,,,,,,,,,0,,,63,48
13320,note_on,0,0,1,,,,,,,,,0,,,62,49
13320,note_off,120,0,1,,,,,,,,,0,,,63,0
13440,note_off,120,0,1,,,,,,,,,0,,,62,0
13440,note_off,480,0,4,,,,,,,,,3,,,39,0
13440,note_off,0,0,3,,,,,,,,,2,,,55,0
13440,note_off,480,0,3,,,,,,,,,2,,,51,0
13440,note_on,0,0,1,,,,,,,,,0,,,63,49
13544,note_off,104,0,1,,,,,,,,,0,,,63,0
13600,note_on,56,0,1,,,,,,,,,0,,,65,49
13704,note_off,104,0,1,,,,,,,,,0,,,65,0
13760,note_on,56,0,1,,,,,,,,,0,,,67,50
13864,note_off,104,0,1,,,,,,,,,0,,,67,0
13920,note_on,56,0,1,,,,,,,,,0,,,68,50
14024,note_off,104,0,1,,,,,,,,,0,,,68,0
14080,note_on,56,0,1,,,,,,,,,0,,,70,51
14184,note_off,104,0,1,,,,,,,,,0,,,70,0
14240,note_on,56,0,1,,,,,,,,,0,,,72,51
14344,note_off,104,0,1,,,,,,,,,0,,,72,0
14400,note_on,56,0,1,,,,,,,,,0,,,74,51
14504,note_off,104,0,1,,,,,,,,,0,,,74,0
14560,note_on,56,0,1,,,,,,,,,0,,,75,52
14664,note_off,104,0,1,,,,,,,,,0,,,75,0
14720,note_on,56,0,1,,,,,,,,,0,,,77,52
14824,note_off,104,0,1,,,,,,,,,0,,,77,0
14880,note_on,56,0,1,,,,,,,,,0,,,78,53
14984,note_off,104,0,1,,,,,,,,,0,,,78,0
15040,note_on,56,0,1,,,,,,,,,0,,,79,53
15144,note_off,104,0,1,,,,,,,,,0,,,79,0
15200,note_on,56,0,1,,,,,,,,,0,,,80,54
15304,note_off,104,0,1,,,,,,,,,0,,,80,0
15360,set_tempo,2400,1,0,,,,,,422535,,,,,,,
15360,note_on,56,0,1,,,,,,,,,0,,,81,54
15464,note_off,104,0,1,,,,,,,,,0,,,81,0
15520,note_on,56,0,1,,,,,,,,,0,,,82,54
15520,set_tempo,160,1,0,,,,,,428571,,,,,,,
15624,note_off,104,0,1,,,,,,,,,0,,,82,0
15645,set_tempo,125,1,0,,,,,,480000,,,,,,,
15680,note_on,56,0,1,,,,,,,,,0,,,83,55
15784,note_off,104,0,1,,,,,,,,,0,,,83,0
15840,note_on,0,0,3,,,,,,,,,2,,,72,51
15840,note_on,2400,0,3,,,,,,,,,2,,,75,51
15840,note_on,0,0,1,,,,,,,,,0,,,84,56
15840,control_change,56,0,1,,,,,,,64,127,0,,,,
15840,note_on,2400,0,4,,,,,,,,,3,,,68,51
15840,set_tempo,195,1,0,,,,,,416666,,,,,,,
16200,note_on,0,0,1,,,,,,,,,0,,,77,54
16200,note_off,360,0,1,,,,,,,,,0,,,84,0
16320,note_off,120,0,1,,,,,,,,,0,,,77,0
16320,note_on,0,0,1,,,,,,,,,0,,,77,53
16680,control_change,360,0,1,,,,,,,64,0,0,,,,
16680,note_off,0,0,1,,,,,,,,,0,,,77,0
16680,note_off,840,0,3,,,,,,,,,2,,,72,0
16680,note_off,840,0,4,,,,,,,,,3,,,68,0
16687,note_off,7,0,3,,,,,,,,,2,,,75,0
16770,set_tempo,930,1,0,,,,,,428571,,,,,,,
17220,note_on,540,0,1,,,,,,,,,0,,,71,49
17280,note_on,593,0,3,,,,,,,,,2,,,63,47
17280,note_on,0,0,3,,,,,,,,,2,,,60,47
17280,note_on,600,0,4,,,,,,,,,3,,,56,47
17280,set_tempo,510,1,0,,,,,,425531,,,,,,,
17280,note_off,0,0,1,,,,,,,,,0,,,71,0
17280,note_on,0,0,1,,,,,,,,,0,,,72,48
17280,control_change,60,0,1,,,,,,,64,127,0,,,,
17640,note_off,360,0,1,,,,,,,,,0,,,72,0
17640,note_on,0,0,1,,,,,,,,,0,,,65,47
17760,note_off,120,0,1,,,,,,,,,0,,,65,0
17760,note_on,0,0,1,,,,,,,,,0,,,65,46
18112,note_off,832,0,4,,,,,,,,,3,,,56,0
18112,note_off,832,0,3,,,,,,,,,2,,,63,0
18120,control_change,360,0,1,,,,,,,64,0,0,,,,
18120,note_off,0,0,1,,,,,,,,,0,,,65,0
18127,note_off,15,0,3,,,,,,,,,2,,,60,0
18240,set_tempo,960,1,0,,,,,,441176,,,,,,,
18720,note_on,600,0,1,,,,,,,,,0,,,53,46
18720,note_on,608,0,4,,,,,,,,,3,,,32,42
18720,set_tempo,480,1,0,,,,,,441176,,,,,,,
18720,note_on,0,0,3,,,,,,,,,2,,,51,46
18720,note_on,593,0,3,,,,,,,,,2,,,48,46
18720,note_on,0,0,3,,,,,,,,,2,,,44,42
19008,note_off,288,0,3,,,,,,,,,2,,,44,0
19008,note_off,0,0,3,,,,,,,,,2,,,51,0
19008,note_off,0,0,3,,,,,,,,,2,,,48,0
19008,note_off,288,0,4,,,,,,,,,3,,,32,0
19008,note_off,288,0,1,,,,,,,,,0,,,53,0
19200,note_on,192,0,1,,,,,,,,,0,,,53,47
19200,note_on,192,0,4,,,,,,,,,3,,,32,44
19200,note_on,0,0,3,,,,,,,,,2,,,44,44
19200,note_on,0,0,3,,,,,,,,,2,,,51,47
19200,note_on,192,0,3,,,,,,,,,2,,,48,47
19455,set_tempo,735,1,0,,,,,,447761,,,,,,,
19488,note_off,288,0,4,,,,,,,,,3,,,32,0
19488,note_off,288,0,3,,,,,,,,,2,,,44,0
19488,note_off,288,0,1,,,,,,,,,0,,,53,0
19488,note_off,0,0,3,,,,,,,,,2,,,51,0
19488,note_off,0,0,3,,,,,,,,,2,,,48,0
19680,note_on,0,0,3,,,,,,,,,2,,,44,46
19680,note_on,0,0,3,,,,,,,,,2,,,51,48
19680,note_on,192,0,4,,,,,,,,,3,,,32,46
19680,note_on,192,0,1,,,,,,,,,0,,,53,48
19680,note_on,192,0,3,,,,,,,,,2,,,48,48
19710,set_tempo,255,1,0,,,,,,508474,,,,,,,
19968,note_off,288,0,3,,,,,,,,,2,,,44,0
19968,note_off,0,0,3,,,,,,,,,2,,,51,0
19968,note_off,0,0,3,,,,,,,,,2,,,48,0
19968,note_off,288,0,4,,,,,,,,,3,,,32,0
19968,note_off,288,0,1,,,,,,,,,0,,,53,0
20160,note_on,192,0,4,,,,,,,,,3,,,32,48
20160,set_tempo,450,1,0,,,,,,674157,,,,,,,
20160,note_on,0,0,3,,,,,,,,,2,,,51,50
20160,note_on,0,0,3,,,,,,,,,2,,,44,48
20160,note_on,192,0,1,,,,,,,,,0,,,54,50
20160,note_on,192,0,3,,,,,,,,,2,,,48,50
21480,note_off,0,0,3,,,,,,,,,2,,,48,0
21480,note_off,1320,0,1,,,,,,,,,0,,,54,0
21480,note_off,1320,0,3,,,,,,,,,2,,,51,0
21487,note_off,1327,0,4,,,,,,,,,3,,,32,0
21502,note_off,22,0,3,,,,,,,,,2,,,44,0
21600,note_on,98,0,3,,,,,,,,,2,,,75,59
21600,note_on,0,0,3,,,,,,,,,2,,,72,59
21600,note_on,120,0,1,,,,,,,,,0,,,78,59
21600,note_on,113,0,4,,,,,,,,,3,,,69,52
21600,set_tempo,1440,1,0,,,,,,447761,,,,,,,
21840,note_off,0,0,3,,,,,,,,,2,,,75,0
21840,note_off,240,0,3,,,,,,,,,2,,,72,0
21888,note_off,288,0,4,,,,,,,,,3,,,69,0
21888,note_off,288,0,1,,,,,,,,,0,,,78,0
22080,note_on,240,0,3,,,,,,,,,2,,,75,61
22080,note_on,192,0,1,,,,,,,,,0,,,78,61
22080,note_on,192,0,4,,,,,,,,,3,,,69,55
22080,note_on,0,0,3,,,,,,,,,2,,,72,61
22275,set_tempo,675,1,0,,,,,,454545,,,,,,,
22320,note_off,240,0,3,,,,,,,,,2,,,72,0
22320,note_off,0,0,3,,,,,,,,,2,,,75,0
22368,note_off,288,0,4,,,,,,,,,3,,,69,0
22368,note_off,288,0,1,,,,,,,,,0,,,78,0
22545,set_tempo,270,1,0,,,,,,550458,,,,,,,
22560,note_on,240,0,3,,,,,,,,,2,,,75,63
22560,note_on,0,0,3,,,,,,,,,2,,,72,63
22560,note_on,192,0,4,,,,,,,,,3,,,69,58
22560,note_on,192,0,1,,,,,,,,,0,,,78,63
22800,note_off,240,0,3,,,,,,,,,2,,,72,0
22800,note_off,0,0,3,,,,,,,,,2,,,75,0
22848,note_off,288,0,1,,,,,,,,,0,,,78,0
22848,note_off,288,0,4,,,,,,,,,3,,,69,0
23040,note_on,192,0,4,,,,,,,,,3,,,70,66
23040,note_on,240,0,3,,,,,,,,,2,,,75,68
23040,set_tempo,495,1,0,,,,,,582524,,,,,,,
23040,note_on,192,0,1,,,,,,,,,0,,,79,68
25800,note_off,2760,0,1,,,,,,,,,0,,,79,0
25807,note_off,2767,0,4,,,,,,,,,3,,,70,0
25920,set_tempo,2880,1,0,,,,,,422535,,,,,,,
25920,note_on,113,0,4,,,,,,,,,3,,,34,53
25920,note_on,120,0,1,,,,,,,,,0,,,67,57
25920,note_on,0,0,3,,,,,,,,,2,,,56,57
25920,note_off,2880,0,3,,,,,,,,,2,,,75,0
25920,note_on,0,0,3,,,,,,,,,2,,,62,57
25920,note_on,0,0,3,,,,,,,,,2,,,46,53
26160,note_on,0,0,1,,,,,,,,,0,,,65,56
26160,note_off,240,0,1,,,,,,,,,0,,,67,0
26355,note_off,0,0,3,,,,,,,,,2,,,62,0
26355,note_off,435,0,3,,,,,,,,,2,,,46,0
26355,note_off,435,0,4,,,,,,,,,3,,,34,0
26362,note_off,7,0,3,,,,,,,,,2,,,56,0
26400,note_on,38,0,3,,,,,,,,,2,,,56,55
26400,note_off,240,0,1,,,,,,,,,0,,,65,0
26400,note_on,45,0,4,,,,,,,,,3,,,34,53
26400,note_on,0,0,1,,,,,,,,,0,,,65,55
26400,note_on,0,0,3,,,,,,,,,2,,,46,53
26400,note_on,0,0,3,,,,,,,,,2,,,62,55
26520,note_off,120,0,1,,,,,,,,,0,,,65,0
26520,note_on,0,0,1,,,,,,,,,0,,,67,55
26640,note_off,120,0,1,,,,,,,,,0,,,67,0
26640,note_on,0,0,1,,,,,,,,,0,,,65,55
26760,note_off,120,0,1,,,,,,,,,0,,,65,0
26760,note_on,0,0,1,,,,,,,,,0,,,64,54
26820,note_off,420,0,3,,,,,,,,,2,,,56,0
26820,note_off,420,0,4,,,,,,,,,3,,,34,0
26827,note_off,7,0,3,,,,,,,,,2,,,46,0
26827,note_off,0,0,3,,,,,,,,,2,,,62,0
26880,note_off,120,0,1,,,,,,,,,0,,,64,0
26880,note_on,0,0,1,,,,,,,,,0,,,65,54
26880,note_on,53,0,3,,,,,,,,,2,,,56,54
26880,note_on,60,0,4,,,,,,,,,3,,,34,52
26880,note_on,0,0,3,,,,,,,,,2,,,62,54
26880,note_on,0,0,3,,,,,,,,,2,,,46,52
27120,note_off,240,0,1,,,,,,,,,0,,,65,0
27120,note_on,0,0,1,,,,,,,,,0,,,67,53
27240,set_tempo,1320,1,0,,,,,,428571,,,,,,,
27300,note_off,420,0,3,,,,,,,,,2,,,62,0
27300,note_off,420,0,4,,,,,,,,,3,,,34,0
27307,note_off,7,0,3,,,,,,,,,2,,,56,0
27322,note_off,15,0,3,,,,,,,,,2,,,46,0
27360,note_off,240,0,1,,,,,,,,,0,,,67,0
27360,note_on,0,0,1,,,,,,,,,0,,,63,52
27360,set_tempo,120,1,0,,,,,,416666,,,,,,,
27360,note_on,38,0,3,,,,,,,,,2,,,55,52
27360,note_on,0,0,3,,,,,,,,,2,,,51,51
27360,note_on,60,0,4,,,,,,,,,3,,,39,51
27600,note_off,240,0,3,,,,,,,,,2,,,51,0
27600,note_on,0,0,3,,,,,,,,,2,,,51,41
27840,note_off,480,0,1,,,,,,,,,0,,,63,0
27840,note_off,240,0,3,,,,,,,,,2,,,51,0
27840,note_on,0,0,3,,,,,,,,,2,,,51,41
27840,note_off,0,0,3,,,,,,,,,2,,,55,0
28080,note_on,0,0,3,,,,,,,,,2,,,51,41
28080,note_off,240,0,3,,,,,,,,,2,,,51,0
28320,note_on,0,0,3,,,,,,,,,2,,,51,41
28320,note_off,240,0,3,,,,,,,,,2,,,51,0
28545,set_tempo,1185,1,0,,,,,,422535,,,,,,,
28560,note_off,240,0,3,,,,,,,,,2,,,51,0
28560,note_on,0,0,3,,,,,,,,,2,,,51,41
28740,note_on,900,0,1,,,,,,,,,0,,,86,52
28800,set_tempo,255,1,0,,,,,,416666,,,,,,,
28800,note_on,0,0,1,,,,,,,,,0,,,87,52
28800,note_off,0,0,1,,,,,,,,,0,,,86,0
28800,note_off,1440,0,4,,,,,,,,,3,,,39,0
28800,note_on,0,0,4,,,,,,,,,3,,,63,57
28800,note_off,240,0,3,,,,,,,,,2,,,51,0
28800,note_on,0,0,3,,,,,,,,,2,,,51,40
28800,control_change,60,0,1,,,,,,,64,127,0,,,,
28800,note_on,0,0,4,,,,,,,,,3,,,60,57
29040,note_on,0,0,3,,,,,,,,,2,,,51,40
29040,note_off,240,0,3,,,,,,,,,2,,,51,0
29160,note_on,0,0,1,,,,,,,,,0,,,80,51
29160,note_off,360,0,1,,,,,,,,,0,,,87,0
29280,note_on,0,0,1,,,,,,,,,0,,,80,51
29280,note_on,0,0,3,,,,,,,,,2,,,51,40
29280,note_off,240,0,3,,,,,,,,,2,,,51,0
29280,note_off,120,0,1,,,,,,,,,0,,,80,0
29520,note_off,240,0,3,,,,,,,,,2,,,51,0
29520,note_on,0,0,3,,,,,,,,,2,,,51,40
29640,control_change,360,0,1,,,,,,,64,0,0,,,,
29640,note_off,0,0,1,,,,,,,,,0,,,80,0
29760,note_off,240,0,3,,,,,,,,,2,,,51,0
29760,note_on,0,0,3,,,,,,,,,2,,,51,40
29760,set_tempo,960,1,0,,,,,,422535,,,,,,,
30000,note_off,240,0,3,,,,,,,,,2,,,51,0
30000,note_on,0,0,3,,,,,,,,,2,,,51,39
30180,note_on,540,0,1,,,,,,,,,0,,,74,50
30240,note_off,1440,0,4,,,,,,,,,3,,,63,0
30240,control_change,60,0,1,,,,,,,64,127,0,,,,
30240,note_off,0,0,1,,,,,,,,,0,,,74,0
30240,note_on,0,0,3,,,,,,,,,2,,,51,39
30240,note_on,0,0,1,,,,,,,,,0,,,75,50
30240,set_tempo,480,1,0,,,,,,416666,,,,,,,
30240,note_on,0,0,4,,,,,,,,,3,,,58,54
30240,note_on,0,0,4,,,,,,,,,3,,,62,54
30240,note_off,0,0,4,,,,,,,,,3,,,60,0
30240,note_off,240,0,3,,,,,,,,,2,,,51,0
30480,note_on,0,0,3,,,,,,,,,2,,,51,39
30480,note_off,240,0,3,,,,,,,,,2,,,51,0
30600,note_on,0,0,1,,,,,,,,,0,,,67,50
30600,note_off,360,0,1,,,,,,,,,0,,,75,0
30720,note_on,0,0,1,,,,,,,,,0,,,67,50
30720,note_off,120,0,1,,,,,,,,,0,,,67,0
30720,note_on,0,0,3,,,,,,,,,2,,,51,39
30720,note_off,240,0,3,,,,,,,,,2,,,51,0
30960,note_off,240,0,3,,,,,,,,,2,,,51,0
30960,note_on,0,0,3,,,,,,,,,2,,,51,39
31080,control_change,360,0,1,,,,,,,64,0,0,,,,
31080,note_off,0,0,1,,,,,,,,,0,,,67,0
31185,set_tempo,945,1,0,,,,,,422535,,,,,,,
31200,note_on,0,0,3,,,,,,,,,2,,,51,38
31200,note_off,240,0,3,,,,,,,,,2,,,51,0
31440,note_on,0,0,3,,,,,,,,,2,,,51,38
31440,note_off,240,0,3,,,,,,,,,2,,,51,0
31680,note_off,1440,0,4,,,,,,,,,3,,,58,0
31680,note_off,0,0,4,,,,,,,,,3,,,62,0
31680,note_on,0,0,4,,,,,,,,,3,,,60,50
31680,note_on,0,0,4,,,,,,,,,3,,,56,50
31680,note_on,0,0,3,,,,,,,,,2,,,51,38
31680,control_change,31680,0,2,,,,,,,64,127,1,,,,
31680,note_off,240,0,3,,,,,,,,,2,,,51,0
31680,note_on,600,0,1,,,,,,,,,0,,,75,48
31680,set_tempo,495,1,0,,,,,,416666,,,,,,,
31800,note_on,120,0,2,,,,,,,,,1,,,65,43
31896,note_off,96,0,2,,,,,,,,,1,,,65,0
31920,note_off,240,0,3,,,,,,,,,2,,,51,0
31920,note_on,0,0,3,,,,,,,,,2,,,51,38
32040,control_change,144,0,2,,,,,,,64,0,1,,,,
32040,note_off,0,0,4,,,,,,,,,3,,,60,0
32040,note_off,360,0,4,,,,,,,,,3,,,56,0
32040,note_off,360,0,1,,,,,,,,,0,,,75,0
32160,note_on,120,0,4,,,,,,,,,3,,,56,50
32160,note_on,0,0,4,,,,,,,,,3,,,60,50
32160,note_on,120,0,1,,,,,,,,,0,,,75,48
32160,control_change,120,0,2,,,,,,,64,127,1,,,,
32160,note_off,240,0,3,,,,,,,,,2,,,51,0
32160,note_on,0,0,3,,,,,,,,,2,,,51,38
32280,note_on,120,0,2,,,,,,,,,1,,,65,43
32376,note_off,96,0,2,,,,,,,,,1,,,65,0
32400,note_off,240,0,3,,,,,,,,,2,,,51,0
32400,note_on,0,0,3,,,,,,,,,2,,,51,37
32520,control_change,144,0,2,,,,,,,64,0,1,,,,
32520,note_off,360,0,4,,,,,,,,,3,,,60,0
32520,note_off,0,0,4,,,,,,,,,3,,,56,0
32520,note_off,360,0,1,,,,,,,,,0,,,75,0
32640,note_off,240,0,3,,,,,,,,,2,,,51,0
32640,note_on,0,0,3,,,,,,,,,2,,,51,37
32640,note_on,0,0,4,,,,,,,,,3,,,59,49
32640,note_on,120,0,1,,,,,,,,,0,,,74,47
32640,note_on,120,0,4,,,,,,,,,3,,,56,49
32640,control_change,120,0,2,,,,,,,64,127,1,,,,
32760,note_on,120,0,2,,,,,,,,,1,,,65,42
32856,note_off,96,0,2,,,,,,,,,1,,,65,0
32880,note_off,240,0,3,,,,,,,,,2,,,51,0
32880,note_on,0,0,3,,,,,,,,,2,,,51,37
33000,note_off,0,0,4,,,,,,,,,3,,,56,0
33000,control_change,144,0,2,,,,,,,64,0,1,,,,
33000,set_tempo,1320,1,0,,,,,,422535,,,,,,,
33000,note_off,360,0,4,,,,,,,,,3,,,59,0
33000,note_off,360,0,1,,,,,,,,,0,,,74,0
33120,note_on,120,0,4,,,,,,,,,3,,,55,49
33120,note_on,0,0,4,,,,,,,,,3,,,58,49
33120,set_tempo,120,1,0,,,,,,416666,,,,,,,
33120,note_on,0,0,3,,,,,,,,,2,,,51,37
33120,note_off,240,0,3,,,,,,,,,2,,,51,0
33120,note_on,120,0,1,,,,,,,,,0,,,75,47
33120,control_change,120,0,2,,,,,,,64,127,1,,,,
33240,note_on,120,0,2,,,,,,,,,1,,,63,41
33336,note_off,96,0,2,,,,,,,,,1,,,63,0
33360,note_off,240,0,3,,,,,,,,,2,,,51,0
33360,note_on,0,0,3,,,,,,,,,2,,,51,37
33600,note_off,480,0,1,,,,,,,,,0,,,75,0
33600,note_off,0,0,4,,,,,,,,,3,,,55,0
33600,note_off,480,0,4,,,,,,,,,3,,,58,0
33600,control_change,264,0,2,,,,,,,64,0,1,,,,
33600,note_off,240,0,3,,,,,,,,,2,,,51,0
33600,note_on,0,0,3,,,,,,,,,2,,,51,36
33840,note_off,240,0,3,,,,,,,,,2,,,51,0
33840,note_on,0,0,3,,,,,,,,,2,,,51,36
34065,set_tempo,945,1,0,,,,,,422535,,,,,,,
34080,note_off,240,0,3,,,,,,,,,2,,,51,0
34080,note_on,0,0,3,,,,,,,,,2,,,51,36
34320,note_off,240,0,3,,,,,,,,,2,,,51,0
34320,note_on,0,0,3,,,,,,,,,2,,,51,36
34560,set_tempo,495,1,0,,,,,,416666,,,,,,,
34560,note_on,0,0,4,,,,,,,,,3,,,63,51
34560,note_on,960,0,4,,,,,,,,,3,,,60,51
34560,note_on,0,0,3,,,,,,,,,2,,,51,35
34560,note_off,240,0,3,,,,,,,,,2,,,51,0
34560,note_on,0,0,1,,,,,,,,,0,,,87,45
34560,control_change,960,0,1,,,,,,,64,127,0,,,,
34640,note_on,0,0,1,,,,,,,,,0,,,89,45
34640,note_off,80,0,1,,,,,,,,,0,,,87,0
34720,note_on,0,0,1,,,,,,,,,0,,,87,45
34720,note_off,80,0,1,,,,,,,,,0,,,89,0
34800,note_on,0,0,1,,,,,,,,,0,,,86,45
34800,note_off,80,0,1,,,,,,,,,0,,,87,0
34800,note_off,240,0,3,,,,,,,,,2,,,51,0
34800,note_on,0,0,3,,,,,,,,,2,,,51,35
34920,note_on,0,0,1,,,,,,,,,0,,,87,44
34920,note_off,120,0,1,,,,,,,,,0,,,86,0
35040,note_off,120,0,1,,,,,,,,,0,,,87,0
35040,note_on,0,0,1,,,,,,,,,0,,,80,44
35040,note_off,240,0,3,,,,,,,,,2,,,51,0
35040,note_on,0,0,3,,,,,,,,,2,,,51,35
35280,note_on,0,0,3,,,,,,,,,2,,,51,35
35280,note_off,240,0,3,,,,,,,,,2,,,51,0
35280,note_off,240,0,1,,,,,,,,,0,,,80,0
35400,control_change,120,0,1,,,,,,,64,0,0,,,,
35505,set_tempo,945,1,0,,,,,,422535,,,,,,,
35520,note_on,0,0,3,,,,,,,,,2,,,51,35
35520,note_off,240,0,3,,,,,,,,,2,,,51,0
35760,note_off,240,0,3,,,,,,,,,2,,,51,0
35760,note_on,0,0,3,,,,,,,,,2,,,51,34
36000,note_off,1440,0,4,,,,,,,,,3,,,63,0
36000,note_off,0,0,4,,,,,,,,,3,,,60,0
36000,note_on,0,0,3,,,,,,,,,2,,,51,34
36000,note_off,240,0,3,,,,,,,,,2,,,51,0
36000,set_tempo,495,1,0,,,,,,416666,,,,,,,
36000,note_on,0,0,4,,,,,,,,,3,,,62,49
36000,note_on,0,0,1,,,,,,,,,0,,,75,43
36000,note_on,0,0,4,,,,,,,,,3,,,58,49
36000,control_change,600,0,1,,,,,,,64,127,0,,,,
36080,note_off,80,0,1,,,,,,,,,0,,,75,0
36080,note_on,0,0,1,,,,,,,,,0,,,77,43
36160,note_off,80,0,1,,,,,,,,,0,,,77,0
36160,note_on,0,0,1,,,,,,,,,0,,,75,43
36240,note_off,80,0,1,,,,,,,,,0,,,75,0
36240,note_on,0,0,1,,,,,,,,,0,,,74,43
36240,note_on,0,0,3,,,,,,,,,2,,,51,34
36240,note_off,240,0,3,,,,,,,,,2,,,51,0
36360,note_on,0,0,1,,,,,,,,,0,,,75,43
36360,note_off,120,0,1,,,,,,,,,0,,,74,0
36480,note_off,120,0,1,,,,,,,,,0,,,75,0
36480,note_on,0,0,3,,,,,,,,,2,,,51,34
36480,note_off,240,0,3,,,,,,,,,2,,,51,0
36480,note_on,0,0,1,,,,,,,,,0,,,67,43
36720,note_off,240,0,3,,,,,,,,,2,,,51,0
36720,note_on,0,0,3,,,,,,,,,2,,,51,34
36720,note_off,240,0,1,,,,,,,,,0,,,67,0
36840,control_change,120,0,1,,,,,,,64,0,0,,,,
36930,set_tempo,930,1,0,,,,,,422535,,,,,,,
36960,note_off,240,0,3,,,,,,,,,2,,,51,0
36960,note_on,0,0,3,,,,,,,,,2,,,51,33
37200,note_off,240,0,3,,,,,,,,,2,,,51,0
37200,note_on,0,0,3,,,,,,,,,2,,,51,33
37440,note_on,0,0,4,,,,,,,,,3,,,56,44
37440,set_tempo,510,1,0,,,,,,416666,,,,,,,
37440,note_on,0,0,4,,,,,,,,,3,,,60,44
37440,note_on,600,0,1,,,,,,,,,0,,,75,41
37440,note_off,1440,0,4,,,,,,,,,3,,,58,0
37440,note_off,0,0,4,,,,,,,,,3,,,62,0
37440,control_change,3840,0,2,,,,,,,64,127,1,,,,
37440,note_on,0,0,3,,,,,,,,,2,,,51,33
37440,note_off,240,0,3,,,,,,,,,2,,,51,0
37560,note_on,120,0,2,,,,,,,,,1,,,65,36
37656,note_off,96,0,2,,,,,,,,,1,,,65,0
37680,note_off,240,0,3,,,,,,,,,2,,,51,0
37680,note_on,0,0,3,,,,,,,,,2,,,51,33
37800,note_off,0,0,4,,,,,,,,,3,,,56,0
37800,control_change,144,0,2,,,,,,,64,0,1,,,,
37800,note_off,360,0,1,,,,,,,,,0,,,75,0
37800,note_off,360,0,4,,,,,,,,,3,,,60,0
37920,note_on,120,0,1,,,,,,,,,0,,,75,41
37920,control_change,120,0,2,,,,,,,64,127,1,,,,
37920,note_on,0,0,3,,,,,,,,,2,,,51,33
37920,note_on,120,0,4,,,,,,,,,3,,,56,43
37920,note_on,0,0,4,,,,,,,,,3,,,60,43
37920,note_off,240,0,3,,,,,,,,,2,,,51,0
38040,note_on,120,0,2,,,,,,,,,1,,,65,36
38136,note_off,96,0,2,,,,,,,,,1,,,65,0
38160,note_on,0,0,3,,,,,,,,,2,,,51,32
38160,note_off,240,0,3,,,,,,,,,2,,,51,0
38280,control_change,144,0,2,,,,,,,64,0,1,,,,
38280,note_off,360,0,4,,,,,,,,,3,,,60,0
38280,note_off,0,0,4,,,,,,,,,3,,,56,0
38280,note_off,360,0,1,,,,,,,,,0,,,75,0
38400,control_change,120,0,2,,,,,,,64,127,1,,,,
38400,note_on,120,0,1,,,,,,,,,0,,,74,40
38400,note_on,0,0,4,,,,,,,,,3,,,59,43
38400,note_on,120,0,4,,,,,,,,,3,,,56,43
38400,note_off,240,0,3,,,,,,,,,2,,,51,0
38400,note_on,0,0,3,,,,,,,,,2,,,51,32
38520,note_on,120,0,2,,,,,,,,,1,,,65,35
38616,note_off,96,0,2,,,,,,,,,1,,,65,0
38640,note_off,240,0,3,,,,,,,,,2,,,51,0
38640,note_on,0,0,3,,,,,,,,,2,,,51,32
38760,note_off,360,0,4,,,,,,,,,3,,,59,0
38760,set_tempo,1320,1,0,,,,,,422535,,,,,,,
38760,note_off,360,0,1,,,,,,,,,0,,,74,0
38760,control_change,144,0,2,,,,,,,64,0,1,,,,
38760,note_off,0,0,4,,,,,,,,,3,,,56,0
38880,note_on,120,0,4,,,,,,,,,3,,,55,42
38880,note_on,0,0,4,,,,,,,,,3,,,58,42
38880,control_change,120,0,2,,,,,,,64,127,1,,,,
38880,set_tempo,120,1,0,,,,,,416666,,,,,,,
38880,note_on,0,0,3,,,,,,,,,2,,,51,32
38880,note_off,240,0,3,,,,,,,,,2,,,51,0
38880,note_on,120,0,1,,,,,,,,,0,,,63,40
39000,note_off,120,0,1,,,,,,,,,0,,,63,0
39000,note_on,0,0,1,,,,,,,,,0,,,65,40
39120,note_off,120,0,1,,,,,,,,,0,,,65,0
39120,note_on,0,0,1,,,,,,,,,0,,,63,40
39240,note_on,0,0,1,,,,,,,,,0,,,62,40
39240,note_off,0,0,4,,,,,,,,,3,,,55,0
39240,note_off,120,0,1,,,,,,,,,0,,,63,0
39240,note_off,360,0,4,,,,,,,,,3,,,58,0
39360,note_off,480,0,3,,,,,,,,,2,,,51,0
39360,control_change,480,0,2,,,,,,,64,0,1,,,,
39360,note_off,120,0,1,,,,,,,,,0,,,62,0
39360,note_on,0,0,1,,,,,,,,,0,,,63,41
39480,note_off,120,0,1,,,,,,,,,0,,,63,0
39480,note_on,0,0,1,,,,,,,,,0,,,65,41
39600,note_off,120,0,1,,,,,,,,,0,,,65,0
39600,note_on,0,0,1,,,,,,,,,0,,,67,41
39720,note_on,0,0,1,,,,,,,,,0,,,68,41
39720,note_off,120,0,1,,,,,,,,,0,,,67,0
39840,note_off,120,0,1,,,,,,,,,0,,,68,0
39840,note_on,0,0,1,,,,,,,,,0,,,70,42
39960,note_off,120,0,1,,,,,,,,,0,,,70,0
39960,set_tempo,1080,1,0,,,,,,422535,,,,,,,
40080,note_on,840,0,4,,,,,,,,,3,,,55,42
40080,note_on,120,0,1,,,,,,,,,0,,,67,42
40176,note_off,96,0,4,,,,,,,,,3,,,55,0
40176,note_off,96,0,1,,,,,,,,,0,,,67,0
40320,note_on,144,0,4,,,,,,,,,3,,,53,43
40320,note_on,144,0,1,,,,,,,,,0,,,65,43
40416,note_off,96,0,1,,,,,,,,,0,,,65,0
40416,note_off,96,0,4,,,,,,,,,3,,,53,0
40560,note_on,144,0,1,,,,,,,,,0,,,68,43
40560,note_on,144,0,4,,,,,,,,,3,,,56,44
40656,note_off,96,0,1,,,,,,,,,0,,,68,0
40656,note_off,96,0,4,,,,,,,,,3,,,56,0
40800,note_on,144,0,1,,,,,,,,,0,,,62,44
40800,note_on,144,0,4,,,,,,,,,3,,,50,44
40896,note_off,96,0,1,,,,,,,,,0,,,62,0
40896,note_off,96,0,4,,,,,,,,,3,,,50,0
41040,note_on,144,0,1,,,,,,,,,0,,,65,44
41040,note_on,144,0,4,,,,,,,,,3,,,53,45
41136,note_off,96,0,1,,,,,,,,,0,,,65,0
41136,note_off,96,0,4,,,,,,,,,3,,,53,0
41280,note_on,144,0,1,,,,,,,,,0,,,58,45
41280,note_on,144,0,4,,,,,,,,,3,,,46,45
41376,note_off,96,0,1,,,,,,,,,0,,,58,0
41376,note_off,96,0,4,,,,,,,,,3,,,46,0
41520,note_on,144,0,4,,,,,,,,,3,,,50,46
41520,note_on,144,0,1,,,,,,,,,0,,,62,45
41616,note_off,96,0,4,,,,,,,,,3,,,50,0
41616,note_off,96,0,1,,,,,,,,,0,,,62,0
41640,set_tempo,1680,1,0,,,,,,428571,,,,,,,
41760,note_on,144,0,4,,,,,,,,,3,,,51,47
41760,note_on,144,0,1,,,,,,,,,0,,,63,46
41760,set_tempo,120,1,0,,,,,,416666,,,,,,,
41880,note_on,0,0,1,,,,,,,,,0,,,65,46
41880,note_off,120,0,1,,,,,,,,,0,,,63,0
42000,note_on,0,0,1,,,,,,,,,0,,,63,46
42000,note_off,120,0,1,,,,,,,,,0,,,65,0
42120,note_on,0,0,1,,,,,,,,,0,,,62,46
42120,note_off,120,0,1,,,,,,,,,0,,,63,0
42240,note_off,480,0,4,,,,,,,,,3,,,51,0
42240,note_off,120,0,1,,,,,,,,,0,,,62,0
42240,note_on,0,0,1,,,,,,,,,0,,,63,47
42360,note_off,120,0,1,,,,,,,,,0,,,63,0
42360,note_on,0,0,1,,,,,,,,,0,,,65,47
42480,note_on,0,0,1,,,,,,,,,0,,,67,47
42480,note_off,120,0,1,,,,,,,,,0,,,65,0
42600,note_on,0,0,1,,,,,,,,,0,,,68,47
42600,note_off,120,0,1,,,,,,,,,0,,,67,0
42720,note_on,0,0,1,,,,,,,,,0,,,72,48
42720,note_off,120,0,1,,,,,,,,,0,,,68,0
42720,note_on,480,0,4,,,,,,,,,3,,,60,49
42840,note_off,120,0,4,,,,,,,,,3,,,60,0
42840,note_on,0,0,4,,,,,,,,,3,,,58,49
42840,note_off,120,0,1,,,,,,,,,0,,,72,0
42840,note_on,0,0,1,,,,,,,,,0,,,70,48
42960,note_off,120,0,1,,,,,,,,,0,,,70,0
42960,note_off,120,0,4,,,,,,,,,3,,,58,0
42960,note_on,0,0,4,,,,,,,,,3,,,56,50
42960,note_on,0,0,1,,,,,,,,,0,,,68,48
43080,note_off,120,0,1,,,,,,,,,0,,,68,0
43080,note_on,0,0,1,,,,,,,,,0,,,67,48
43080,note_on,0,0,4,,,,,,,,,3,,,55,50
43080,note_off,120,0,4,,,,,,,,,3,,,56,0
43200,note_on,0,0,4,,,,,,,,,3,,,53,50
43200,note_off,120,0,1,,,,,,,,,0,,,67,0
43200,note_on,0,0,1,,,,,,,,,0,,,65,49
43200,note_off,120,0,4,,,,,,,,,3,,,55,0
43296,note_off,96,0,4,,,,,,,,,3,,,53,0
43296,note_off,96,0,1,,,,,,,,,0,,,65,0
43440,note_on,144,0,4,,,,,,,,,3,,,56,51
43440,note_on,144,0,1,,,,,,,,,0,,,68,49
43536,note_off,96,0,4,,,,,,,,,3,,,56,0
43536,note_off,96,0,1,,,,,,,,,0,,,68,0
43680,note_on,144,0,4,,,,,,,,,3,,,50,51
43680,note_on,144,0,1,,,,,,,,,0,,,62,50
43776,note_off,96,0,1,,,,,,,,,0,,,62,0
43776,note_off,96,0,4,,,,,,,,,3,,,50,0
43920,note_on,144,0,4,,,,,,,,,3,,,53,52
43920,note_on,144,0,1,,,,,,,,,0,,,65,50
44016,note_off,96,0,4,,,,,,,,,3,,,53,0
44016,note_off,96,0,1,,,,,,,,,0,,,65,0
44160,note_on,144,0,4,,,,,,,,,3,,,46,53
44160,note_on,144,0,1,,,,,,,,,0,,,58,51
44256,note_off,96,0,1,,,,,,,,,0,,,58,0
44256,note_off,96,0,4,,,,,,,,,3,,,46,0
44400,note_on,144,0,1,,,,,,,,,0,,,62,51
44400,note_on,144,0,4,,,,,,,,,3,,,50,53
44496,note_off,96,0,1,,,,,,,,,0,,,62,0
44496,note_off,96,0,4,,,,,,,,,3,,,50,0
44640,note_on,144,0,1,,,,,,,,,0,,,63,52
44640,note_on,144,0,4,,,,,,,,,3,,,51,54
44736,note_off,96,0,1,,,,,,,,,0,,,63,0
44736,note_off,96,0,4,,,,,,,,,3,,,51,0
44880,note_on,144,0,4,,,,,,,,,3,,,55,54
44880,note_on,144,0,1,,,,,,,,,0,,,67,52
44976,note_off,96,0,4,,,,,,,,,3,,,55,0
44976,note_off,96,0,1,,,,,,,,,0,,,67,0
45120,note_on,144,0,4,,,,,,,,,3,,,48,55
45120,note_on,144,0,1,,,,,,,,,0,,,60,53
45216,note_off,96,0,4,,,,,,,,,3,,,48,0
45216,note_off,96,0,1,,,,,,,,,0,,,60,0
45360,note_on,144,0,4,,,,,,,,,3,,,51,56
45360,note_on,144,0,1,,,,,,,,,0,,,63,53
45456,note_off,96,0,4,,,,,,,,,3,,,51,0
45456,note_off,96,0,1,,,,,,,,,0,,,63,0
45600,note_on,144,0,1,,,,,,,,,0,,,57,54
45600,note_on,144,0,4,,,,,,,,,3,,,45,56
45696,note_off,96,0,1,,,,,,,,,0,,,57,0
45696,note_off,96,0,4,,,,,,,,,3,,,45,0
45840,note_on,144,0,4,,,,,,,,,3,,,48,57
45840,note_on,144,0,1,,,,,,,,,0,,,60,54
45936,note_off,96,0,4,,,,,,,,,3,,,48,0
45936,note_off,96,0,1,,,,,,,,,0,,,60,0
46080,note_on,144,0,4,,,,,,,,,3,,,41,57
46080,note_on,144,0,1,,,,,,,,,0,,,53,55
46176,note_off,96,0,1,,,,,,,,,0,,,53,0
46176,note_off,96,0,4,,,,,,,,,3,,,41,0
46320,note_on,144,0,1,,,,,,,,,0,,,57,55
46320,note_on,144,0,4,,,,,,,,,3,,,45,58
46416,note_off,96,0,4,,,,,,,,,3,,,45,0
46416,note_off,96,0,1,,,,,,,,,0,,,57,0
46560,note_on,144,0,4,,,,,,,,,3,,,48,59
46560,note_on,144,0,1,,,,,,,,,0,,,60,56
46656,note_off,96,0,4,,,,,,,,,3,,,48,0
46656,note_off,96,0,1,,,,,,,,,0,,,60,0
46800,note_on,144,0,4,,,,,,,,,3,,,51,59
46800,note_on,144,0,1,,,,,,,,,0,,,63,56
46896,note_off,96,0,4,,,,,,,,,3,,,51,0
46896,note_off,96,0,1,,,,,,,,,0,,,63,0
47040,note_on,144,0,4,,,,,,,,,3,,,53,60
47040,note_on,144,0,1,,,,,,,,,0,,,65,57
47136,note_off,96,0,4,,,,,,,,,3,,,53,0
47136,note_off,96,0,1,,,,,,,,,0,,,65,0
47280,note_on,144,0,1,,,,,,,,,0,,,57,57
47280,note_on,144,0,4,,,,,,,,,3,,,45,60
47376,note_off,96,0,4,,,,,,,,,3,,,45,0
47376,note_off,96,0,1,,,,,,,,,0,,,57,0
47520,note_on,144,0,1,,,,,,,,,0,,,58,58
47520,note_on,144,0,4,,,,,,,,,3,,,46,61
47616,note_off,96,0,1,,,,,,,,,0,,,58,0
47616,note_off,96,0,4,,,,,,,,,3,,,46,0
47760,note_on,144,0,4,,,,,,,,,3,,,50,62
47760,note_on,144,0,1,,,,,,,,,0,,,62,58
47856,note_off,96,0,4,,,,,,,,,3,,,50,0
47856,note_off,96,0,1,,,,,,,,,0,,,62,0
48000,note_on,144,0,1,,,,,,,,,0,,,65,59
48000,note_on,144,0,4,,,,,,,,,3,,,53,62
48096,note_off,96,0,1,,,,,,,,,0,,,65,0
48096,note_off,96,0,4,,,,,,,,,3,,,53,0
48240,note_on,144,0,1,,,,,,,,,0,,,69,59
48240,note_on,144,0,4,,,,,,,,,3,,,57,63
48336,note_off,96,0,1,,,,,,,,,0,,,69,0
48336,note_off,96,0,4,,,,,,,,,3,,,57,0
48480,note_on,144,0,4,,,,,,,,,3,,,58,58
48480,note_on,144,0,1,,,,,,,,,0,,,70,55
48576,note_off,96,0,4,,,,,,,,,3,,,58,0
48576,note_off,96,0,1,,,,,,,,,0,,,70,0
48720,note_on,144,0,4,,,,,,,,,3,,,57,64
48720,note_on,144,0,1,,,,,,,,,0,,,69,60
48840,set_tempo,7080,1,0,,,,,,422535,,,,,,,
48960,note_off,240,0,4,,,,,,,,,3,,,57,0
48960,note_on,0,0,4,,,,,,,,,3,,,58,59
48960,note_on,0,0,1,,,,,,,,,0,,,70,56
48960,note_off,240,0,1,,,,,,,,,0,,,69,0
49050,note_off,90,0,1,,,,,,,,,0,,,70,0
49057,note_off,97,0,4,,,,,,,,,3,,,58,0
49200,note_on,150,0,1,,,,,,,,,0,,,69,65
49200,note_on,143,0,4,,,,,,,,,3,,,57,67
49440,note_on,0,0,4,,,,,,,,,3,,,58,62
49440,note_off,240,0,1,,,,,,,,,0,,,69,0
49440,note_off,240,0,4,,,,,,,,,3,,,57,0
49440,note_on,0,0,1,,,,,,,,,0,,,70,60
49537,note_off,97,0,4,,,,,,,,,3,,,58,0
49537,note_off,97,0,1,,,,,,,,,0,,,70,0
49680,note_on,143,0,4,,,,,,,,,3,,,57,72
49680,note_on,143,0,1,,,,,,,,,0,,,69,69
49920,note_on,0,0,4,,,,,,,,,3,,,58,66
49920,note_off,240,0,4,,,,,,,,,3,,,57,0
49920,set_tempo,1080,1,0,,,,,,428571,,,,,,,
49920,note_off,240,0,1,,,,,,,,,0,,,69,0
49920,note_on,0,0,1,,,,,,,,,0,,,70,65
50010,note_off,90,0,1,,,,,,,,,0,,,70,0
50017,note_off,97,0,4,,,,,,,,,3,,,58,0
50040,set_tempo,120,1,0,,,,,,444444,,,,,,,
50160,note_on,143,0,4,,,,,,,,,3,,,58,77
50160,note_on,150,0,1,,,,,,,,,0,,,70,71
50240,set_tempo,200,1,0,,,,,,508474,,,,,,,
50400,control_change,240,0,1,,,,,,,64,127,0,,,,
50400,note_off,0,0,1,,,,,,,,,0,,,70,0
50400,note_on,0,0,1,,,,,,,,,0,,,71,69
50400,note_on,0,0,2,,,,,,,,,1,,,59,69
50400,note_off,240,0,4,,,,,,,,,3,,,58,0
50400,set_tempo,160,1,0,,,,,,416666,,,,,,,
50400,note_on,11040,0,3,,,,,,,,,2,,,56,74
50400,note_on,0,0,3,,,,,,,,,2,,,53,74
50400,note_on,0,0,3,,,,,,,,,2,,,51,74
50400,note_on,0,0,4,,,,,,,,,3,,,44,75
50400,note_on,11040,0,2,,,,,,,,,1,,,63,69
50760,note_off,360,0,1,,,,,,,,,0,,,71,0
50760,note_on,0,0,1,,,,,,,,,0,,,65,66
50880,note_off,120,0,1,,,,,,,,,0,,,65,0
50880,note_on,0,0,1,,,,,,,,,0,,,65,65
51240,note_off,0,0,1,,,,,,,,,0,,,65,0
51240,control_change,360,0,1,,,,,,,64,0,0,,,,
51240,note_off,840,0,3,,,,,,,,,2,,,51,0
51247,note_off,0,0,3,,,,,,,,,2,,,56,0
51247,note_off,847,0,4,,,,,,,,,3,,,44,0
51247,note_off,0,0,2,,,,,,,,,1,,,63,0
51247,note_off,847,0,2,,,,,,,,,1,,,59,0
51247,note_off,7,0,3,,,,,,,,,2,,,53,0
51330,set_tempo,930,1,0,,,,,,428571,,,,,,,
51840,note_on,593,0,3,,,,,,,,,2,,,56,55
51840,note_on,0,0,3,,,,,,,,,2,,,53,55
51840,note_on,0,0,3,,,,,,,,,2,,,51,55
51840,note_on,593,0,2,,,,,,,,,1,,,63,58
51840,set_tempo,510,1,0,,,,,,425531,,,,,,,
51840,note_on,593,0,4,,,,,,,,,3,,,44,59
51840,note_on,0,0,2,,,,,,,,,1,,,59,58
51840,note_on,0,0,1,,,,,,,,,0,,,71,58
51840,control_change,600,0,1,,,,,,,64,127,0,,,,
52200,note_on,0,0,1,,,,,,,,,0,,,65,55
52200,note_off,360,0,1,,,,,,,,,0,,,71,0
52320,note_off,120,0,1,,,,,,,,,0,,,65,0
52320,note_on,0,0,1,,,,,,,,,0,,,65,54
52680,note_off,840,0,3,,,,,,,,,2,,,51,0
52680,control_change,360,0,1,,,,,,,64,0,0,,,,
52680,note_off,0,0,1,,,,,,,,,0,,,65,0
52687,note_off,847,0,2,,,,,,,,,1,,,59,0
52687,note_off,7,0,3,,,,,,,,,2,,,53,0
52687,note_off,847,0,4,,,,,,,,,3,,,44,0
52687,note_off,0,0,3,,,,,,,,,2,,,56,0
52687,note_off,0,0,2,,,,,,,,,1,,,63,0
52800,set_tempo,960,1,0,,,,,,447761,,,,,,,
53280,note_on,593,0,2,,,,,,,,,1,,,63,46
53280,note_on,593,0,3,,,,,,,,,2,,,59,47
53280,note_on,600,0,1,,,,,,,,,0,,,65,46
53280,set_tempo,480,1,0,,,,,,441176,,,,,,,
53280,note_on,593,0,4,,,,,,,,,3,,,56,47
53568,note_off,288,0,3,,,,,,,,,2,,,59,0
53568,note_off,288,0,4,,,,,,,,,3,,,56,0
53568,note_off,288,0,1,,,,,,,,,0,,,65,0
53568,note_off,288,0,2,,,,,,,,,1,,,63,0
53760,note_on,192,0,4,,,,,,,,,3,,,56,49
53760,note_on,192,0,1,,,,,,,,,0,,,65,48
53760,note_on,192,0,2,,,,,,,,,1,,,63,48
53760,note_on,192,0,3,,,,,,,,,2,,,59,49
54015,set_tempo,735,1,0,,,,,,447761,,,,,,,
54048,note_off,288,0,2,,,,,,,,,1,,,63,0
54048,note_off,288,0,3,,,,,,,,,2,,,59,0
54048,note_off,288,0,4,,,,,,,,,3,,,56,0
54048,note_off,288,0,1,,,,,,,,,0,,,65,0
54240,note_on,192,0,3,,,,,,,,,2,,,59,52
54240,note_on,192,0,4,,,,,,,,,3,,,54,52
54240,note_on,192,0,2,,,,,,,,,1,,,63,51
54240,note_on,192,0,1,,,,,,,,,0,,,66,51
54270,set_tempo,255,1,0,,,,,,454545,,,,,,,
54528,note_off,288,0,1,,,,,,,,,0,,,66,0
54528,note_off,288,0,4,,,,,,,,,3,,,54,0
54528,note_off,288,0,2,,,,,,,,,1,,,63,0
54528,note_off,288,0,3,,,,,,,,,2,,,59,0
54720,note_on,192,0,3,,,,,,,,,2,,,59,55
54720,note_on,192,0,4,,,,,,,,,3,,,53,55
54720,note_on,192,0,1,,,,,,,,,0,,,68,53
54720,note_on,192,0,2,,,,,,,,,1,,,63,53
55560,note_off,840,0,4,,,,,,,,,3,,,53,0
55567,note_off,847,0,3,,,,,,,,,2,,,59,0
55680,set_tempo,1410,1,0,,,,,,472440,,,,,,,
55680,note_on,0,0,2,,,,,,,,,1,,,62,45
55680,note_off,960,0,2,,,,,,,,,1,,,63,0
56047,note_off,367,0,2,,,,,,,,,1,,,62,0
56047,note_off,1327,0,1,,,,,,,,,0,,,68,0
56160,note_on,593,0,3,,,,,,,,,2,,,71,52
56160,note_on,113,0,1,,,,,,,,,0,,,77,52
56160,note_on,600,0,4,,,,,,,,,3,,,68,52
56160,set_tempo,480,1,0,,,,,,441176,,,,,,,
56160,note_on,113,0,2,,,,,,,,,1,,,75,52
56448,note_off,288,0,3,,,,,,,,,2,,,71,0
56448,note_off,288,0,4,,,,,,,,,3,,,68,0
56448,note_off,288,0,2,,,,,,,,,1,,,75,0
56448,note_off,288,0,1,,,,,,,,,0,,,77,0
56640,note_on,192,0,4,,,,,,,,,3,,,68,54
56640,note_on,192,0,3,,,,,,,,,2,,,71,54
56640,note_on,192,0,2,,,,,,,,,1,,,75,54
56640,note_on,192,0,1,,,,,,,,,0,,,77,54
56895,set_tempo,735,1,0,,,,,,447761,,,,,,,
56928,note_off,288,0,4,,,,,,,,,3,,,68,0
56928,note_off,288,0,2,,,,,,,,,1,,,75,0
56928,note_off,288,0,3,,,,,,,,,2,,,71,0
56928,note_off,288,0,1,,,,,,,,,0,,,77,0
57120,note_on,192,0,3,,,,,,,,,2,,,71,56
57120,note_on,192,0,1,,,,,,,,,0,,,78,56
57120,note_on,192,0,4,,,,,,,,,3,,,66,56
57120,note_on,192,0,2,,,,,,,,,1,,,75,56
57150,set_tempo,255,1,0,,,,,,454545,,,,,,,
57408,note_off,288,0,1,,,,,,,,,0,,,78,0
57408,note_off,288,0,4,,,,,,,,,3,,,66,0
57408,note_off,288,0,2,,,,,,,,,1,,,75,0
57408,note_off,288,0,3,,,,,,,,,2,,,71,0
57600,note_on,192,0,2,,,,,,,,,1,,,75,58
57600,note_on,192,0,1,,,,,,,,,0,,,80,58
57600,note_on,192,0,3,,,,,,,,,2,,,71,59
57600,note_on,192,0,4,,,,,,,,,3,,,65,59
58447,note_off,847,0,3,,,,,,,,,2,,,71,0
58455,note_off,855,0,4,,,,,,,,,3,,,65,0
58560,set_tempo,1410,1,0,,,,,,487804,,,,,,,
58560,note_off,960,0,2,,,,,,,,,1,,,75,0
58560,note_on,0,0,2,,,,,,,,,1,,,74,42
58927,note_off,1327,0,1,,,,,,,,,0,,,80,0
58927,note_off,367,0,2,,,,,,,,,1,,,74,0
59040,note_on,585,0,4,,,,,,,,,3,,,58,44
59040,note_on,593,0,3,,,,,,,,,2,,,61,44
59040,note_on,113,0,1,,,,,,,,,0,,,67,44
59040,set_tempo,480,1,0,,,,,,441176,,,,,,,
59040,note_on,113,0,2,,,,,,,,,1,,,65,44
59328,note_off,288,0,1,,,,,,,,,0,,,67,0
59328,note_off,288,0,4,,,,,,,,,3,,,58,0
59328,note_off,288,0,3,,,,,,,,,2,,,61,0
59328,note_off,288,0,2,,,,,,,,,1,,,65,0
59520,note_on,192,0,4,,,,,,,,,3,,,58,46
59520,note_on,192,0,1,,,,,,,,,0,,,67,47
59520,note_on,192,0,3,,,,,,,,,2,,,61,46
59520,note_on,192,0,2,,,,,,,,,1,,,65,47
59775,set_tempo,735,1,0,,,,,,447761,,,,,,,
59808,note_off,288,0,4,,,,,,,,,3,,,58,0
59808,note_off,288,0,2,,,,,,,,,1,,,65,0
59808,note_off,288,0,1,,,,,,,,,0,,,67,0
59808,note_off,288,0,3,,,,,,,,,2,,,61,0
60000,note_on,192,0,2,,,,,,,,,1,,,65,49
60000,note_on,192,0,1,,,,,,,,,0,,,68,49
60000,note_on,192,0,4,,,,,,,,,3,,,56,48
60000,note_on,192,0,3,,,,,,,,,2,,,61,48
60030,set_tempo,255,1,0,,,,,,454545,,,,,,,
60288,note_off,288,0,2,,,,,,,,,1,,,65,0
60288,note_off,288,0,1,,,,,,,,,0,,,68,0
60288,note_off,288,0,4,,,,,,,,,3,,,56,0
60288,note_off,288,0,3,,,,,,,,,2,,,61,0
60480,note_on,192,0,1,,,,,,,,,0,,,70,53
60480,note_on,192,0,4,,,,,,,,,3,,,55,51
60480,note_on,192,0,3,,,,,,,,,2,,,61,51
60480,note_on,192,0,2,,,,,,,,,1,,,65,53
61320,note_off,840,0,4,,,,,,,,,3,,,55,0
61320,note_off,840,0,3,,,,,,,,,2,,,61,0
61440,note_off,960,0,2,,,,,,,,,1,,,65,0
61440,set_tempo,1410,1,0,,,,,,472440,,,,,,,
61440,note_on,0,0,2,,,,,,,,,1,,,64,44
61800,note_off,1320,0,1,,,,,,,,,0,,,70,0
61807,note_off,367,0,2,,,,,,,,,1,,,64,0
61920,note_on,113,0,2,,,,,,,,,1,,,77,49
61920,set_tempo,480,1,0,,,,,,441176,,,,,,,
61920,note_on,600,0,3,,,,,,,,,2,,,73,48
61920,note_on,120,0,1,,,,,,,,,0,,,79,49
61920,note_on,600,0,4,,,,,,,,,3,,,70,48
62208,note_off,288,0,3,,,,,,,,,2,,,73,0
62208,note_off,288,0,1,,,,,,,,,0,,,79,0
62208,note_off,288,0,2,,,,,,,,,1,,,77,0
62208,note_off,288,0,4,,,,,,,,,3,,,70,0
62400,note_on,192,0,2,,,,,,,,,1,,,77,51
62400,note_on,192,0,1,,,,,,,,,0,,,79,51
62400,note_on,192,0,4,,,,,,,,,3,,,70,51
62400,note_on,192,0,3,,,,,,,,,2,,,73,51
62655,set_tempo,735,1,0,,,,,,447761,,,,,,,
62688,note_off,288,0,2,,,,,,,,,1,,,77,0
62688,note_off,288,0,4,,,,,,,,,3,,,70,0
62688,note_off,288,0,1,,,,,,,,,0,,,79,0
62688,note_off,288,0,3,,,,,,,,,2,,,73,0
62880,note_on,192,0,4,,,,,,,,,3,,,68,54
62880,note_on,192,0,2,,,,,,,,,1,,,77,54
62880,note_on,192,0,3,,,,,,,,,2,,,73,54
62880,note_on,192,0,1,,,,,,,,,0,,,80,54
62910,set_tempo,255,1,0,,,,,,454545,,,,,,,
63168,note_off,288,0,1,,,,,,,,,0,,,80,0
63168,note_off,288,0,2,,,,,,,,,1,,,77,0
63168,note_off,288,0,3,,,,,,,,,2,,,73,0
63168,note_off,288,0,4,,,,,,,,,3,,,68,0
63360,note_on,192,0,1,,,,,,,,,0,,,82,56
63360,note_on,192,0,3,,,,,,,,,2,,,73,57
63360,note_on,192,0,4,,,,,,,,,3,,,67,57
63360,note_on,192,0,2,,,,,,,,,1,,,77,56
64200,note_off,840,0,3,,,,,,,,,2,,,73,0
64207,note_off,847,0,4,,,,,,,,,3,,,67,0
64320,set_tempo,1410,1,0,,,,,,487804,,,,,,,
64320,note_on,0,0,2,,,,,,,,,1,,,76,47
64320,note_off,960,0,2,,,,,,,,,1,,,77,0
64680,note_off,1320,0,1,,,,,,,,,0,,,82,0
64687,note_off,367,0,2,,,,,,,,,1,,,76,0
64800,set_tempo,480,1,0,,,,,,447761,,,,,,,
64800,note_on,120,0,1,,,,,,,,,0,,,85,54
65280,note_on,593,0,2,,,,,,,,,1,,,76,49
65280,note_on,1080,0,3,,,,,,,,,2,,,70,52
65280,note_on,1073,0,4,,,,,,,,,3,,,66,52
65280,note_off,480,0,1,,,,,,,,,0,,,85,0
65520,note_off,240,0,2,,,,,,,,,1,,,76,0
65520,note_off,240,0,4,,,,,,,,,3,,,66,0
65520,note_off,240,0,3,,,,,,,,,2,,,70,0
66015,set_tempo,1215,1,0,,,,,,461538,,,,,,,
66240,note_on,960,0,1,,,,,,,,,0,,,89,58
66720,note_off,480,0,1,,,,,,,,,0,,,89,0
66720,note_on,1200,0,2,,,,,,,,,1,,,77,71
66720,note_on,1200,0,4,,,,,,,,,3,,,65,80
66720,note_on,1200,0,3,,,,,,,,,2,,,69,80
66735,set_tempo,720,1,0,,,,,,447761,,,,,,,
66912,note_off,192,0,4,,,,,,,,,3,,,65,0
66960,note_off,240,0,3,,,,,,,,,2,,,69,0
66960,note_off,240,0,2,,,,,,,,,1,,,77,0
67200,note_on,288,0,4,,,,,,,,,3,,,53,87
67392,note_off,192,0,4,,,,,,,,,3,,,53,0
67680,note_on,288,0,4,,,,,,,,,3,,,41,86
67872,note_off,192,0,4,,,,,,,,,3,,,41,0
68160,note_on,288,0,4,,,,,,,,,3,,,29,84
68160,set_tempo,1425,1,0,,,,,,500000,,,,,,,
68400,note_off,240,0,4,,,,,,,,,3,,,29,0
68640,set_tempo,480,1,0,,,,,,600000,,,,,,,
68880,set_tempo,240,1,0,,,,,,422535,,,,,,,
68880,note_on,2160,0,1,,,,,,,,,0,,,77,44
69072,note_off,192,0,1,,,,,,,,,0,,,77,0
69120,note_on,720,0,4,,,,,,,,,3,,,50,40
69120,note_on,48,0,1,,,,,,,,,0,,,82,49
69120,control_change,2160,0,3,,,,,,,64,0,2,,,,
69120,set_tempo,240,1,0,,,,,,416666,,,,,,,
69180,control_change,60,0,3,,,,,,,64,127,2,,,,
69240,note_on,60,0,3,,,,,,,,,2,,,58,36
69360,note_on,0,0,3,,,,,,,,,2,,,53,36
69360,note_off,120,0,3,,,,,,,,,2,,,58,0
69480,note_off,120,0,3,,,,,,,,,2,,,53,0
69480,note_on,0,0,3,,,,,,,,,2,,,58,36
69560,note_off,440,0,4,,,,,,,,,3,,,50,0
69600,note_on,40,0,4,,,,,,,,,3,,,50,40
69600,note_off,0,0,3,,,,,,,,,2,,,58,0
69600,control_change,120,0,3,,,,,,,64,0,2,,,,
69660,control_change,60,0,3,,,,,,,64,127,2,,,,
69720,note_on,60,0,3,,,,,,,,,2,,,58,36
69840,note_on,0,0,3,,,,,,,,,2,,,53,36
69840,note_off,120,0,3,,,,,,,,,2,,,58,0
69840,note_off,720,0,1,,,,,,,,,0,,,82,0
69840,note_on,0,0,1,,,,,,,,,0,,,81,45
69960,note_on,0,0,3,,,,,,,,,2,,,58,36
69960,note_off,120,0,1,,,,,,,,,0,,,81,0
69960,note_on,0,0,1,,,,,,,,,0,,,82,45
69960,note_off,120,0,3,,,,,,,,,2,,,53,0
70040,note_off,440,0,4,,,,,,,,,3,,,50,0
70080,control_change,120,0,3,,,,,,,64,0,2,,,,
70080,note_on,40,0,4,,,,,,,,,3,,,50,41
70080,note_off,0,0,3,,,,,,,,,2,,,58,0
70080,note_off,120,0,1,,,,,,,,,0,,,82,0
70080,note_on,0,0,1,,,,,,,,,0,,,84,45
70140,control_change,60,0,3,,,,,,,64,127,2,,,,
70200,note_on,60,0,3,,,,,,,,,2,,,58,37
70236,note_off,156,0,1,,,,,,,,,0,,,84,0
70320,note_off,120,0,3,,,,,,,,,2,,,58,0
70320,note_on,0,0,3,,,,,,,,,2,,,53,37
70320,note_on,84,0,1,,,,,,,,,0,,,82,45
70440,note_off,120,0,3,,,,,,,,,2,,,53,0
70440,note_on,0,0,3,,,,,,,,,2,,,58,37
70476,note_off,156,0,1,,,,,,,,,0,,,82,0
70500,set_tempo,1380,1,0,,,,,,422535,,,,,,,
70520,note_off,440,0,4,,,,,,,,,3,,,50,0
70560,note_on,84,0,1,,,,,,,,,0,,,77,45
70560,set_tempo,60,1,0,,,,,,416666,,,,,,,
70560,note_on,40,0,4,,,,,,,,,3,,,50,41
70560,control_change,120,0,3,,,,,,,64,0,2,,,,
70560,note_off,0,0,3,,,,,,,,,2,,,58,0
70620,control_change,60,0,3,,,,,,,64,127,2,,,,
70680,note_on,60,0,3,,,,,,,,,2,,,58,37
70800,note_off,120,0,3,,,,,,,,,2,,,58,0
70800,note_on,0,0,3,,,,,,,,,2,,,53,37
70920,note_on,0,0,3,,,,,,,,,2,,,58,37
70920,note_off,120,0,3,,,,,,,,,2,,,53,0
71000,note_off,440,0,4,,,,,,,,,3,,,50,0
71040,note_on,40,0,4,,,,,,,,,3,,,50,42
71040,control_change,120,0,3,,,,,,,64,0,2,,,,
71040,note_off,0,0,3,,,,,,,,,2,,,58,0
71100,control_change,60,0,3,,,,,,,64,127,2,,,,
71160,note_on,60,0,3,,,,,,,,,2,,,58,37
71280,note_off,720,0,1,,,,,,,,,0,,,77,0
71280,note_off,120,0,3,,,,,,,,,2,,,58,0
71280,note_on,0,0,3,,,,,,,,,2,,,53,38
71280,note_on,0,0,1,,,,,,,,,0,,,79,46
71400,note_off,120,0,1,,,,,,,,,0,,,79,0
71400,note_on,0,0,1,,,,,,,,,0,,,77,46
71400,note_off,120,0,3,,,,,,,,,2,,,53,0
71400,note_on,0,0,3,,,,,,,,,2,,,58,38
71480,note_off,440,0,4,,,,,,,,,3,,,50,0
71520,note_off,120,0,1,,,,,,,,,0,,,77,0
71520,note_on,0,0,1,,,,,,,,,0,,,75,46
71520,note_on,40,0,4,,,,,,,,,3,,,50,42
71520,control_change,120,0,3,,,,,,,64,0,2,,,,
71520,note_off,0,0,3,,,,,,,,,2,,,58,0
71520,control_change,0,0,3,,,,,,,64,0,2,,,,
71580,control_change,0,0,3,,,,,,,64,127,2,,,,
71580,control_change,60,0,3,,,,,,,64,127,2,,,,
71640,note_on,60,0,3,,,,,,,,,2,,,58,38
71676,note_off,156,0,1,,,,,,,,,0,,,75,0
71760,note_on,84,0,1,,,,,,,,,0,,,74,46
71760,note_on,0,0,3,,,,,,,,,2,,,53,38
71760,note_off,120,0,3,,,,,,,,,2,,,58,0
71880,note_on,0,0,3,,,,,,,,,2,,,58,38
71880,note_off,120,0,3,,,,,,,,,2,,,53,0
71916,note_off,156,0,1,,,,,,,,,0,,,74,0
71940,set_tempo,1380,1,0,,,,,,422535,,,,,,,
71960,note_off,440,0,4,,,,,,,,,3,,,50,0
72000,note_off,0,0,3,,,,,,,,,2,,,58,0
72000,note_on,40,0,4,,,,,,,,,3,,,51,43
72000,control_change,120,0,3,,,,,,,64,0,2,,,,
72000,note_on,84,0,1,,,,,,,,,0,,,78,47
72000,set_tempo,60,1,0,,,,,,416666,,,,,,,
72060,control_change,60,0,3,,,,,,,64,127,2,,,,
72120,note_on,0,0,1,,,,,,,,,0,,,79,42
72120,note_on,60,0,3,,,,,,,,,2,,,58,38
72120,note_off,120,0,1,,,,,,,,,0,,,78,0
72216,note_off,96,0,1,,,,,,,,,0,,,79,0
72240,note_on,0,0,3,,,,,,,,,2,,,55,38
72240,note_off,120,0,3,,,,,,,,,2,,,58,0
72360,note_off,120,0,3,,,,,,,,,2,,,55,0
72360,note_on,0,0,3,,,,,,,,,2,,,58,38
72440,note_off,440,0,4,,,,,,,,,3,,,51,0
72480,control_change,120,0,3,,,,,,,64,0,2,,,,
72480,note_off,0,0,3,,,,,,,,,2,,,58,0
72480,note_on,264,0,1,,,,,,,,,0,,,78,47
72480,note_on,40,0,4,,,,,,,,,3,,,51,43
72540,control_change,60,0,3,,,,,,,64,127,2,,,,
72600,note_off,120,0,1,,,,,,,,,0,,,78,0
72600,note_on,0,0,1,,,,,,,,,0,,,79,42
72600,note_on,60,0,3,,,,,,,,,2,,,58,39
72696,note_off,96,0,1,,,,,,,,,0,,,79,0
72720,note_on,0,0,3,,,,,,,,,2,,,55,39
72720,note_off,120,0,3,,,,,,,,,2,,,58,0
72840,note_on,0,0,3,,,,,,,,,2,,,58,39
72840,note_off,120,0,3,,,,,,,,,2,,,55,0
72920,note_off,440,0,4,,,,,,,,,3,,,51,0
72960,note_on,40,0,4,,,,,,,,,3,,,51,44
72960,note_on,264,0,1,,,,,,,,,0,,,74,48
72960,control_change,120,0,3,,,,,,,64,0,2,,,,
72960,note_off,0,0,3,,,,,,,,,2,,,58,0
73020,control_change,60,0,3,,,,,,,64,127,2,,,,
73080,note_off,120,0,1,,,,,,,,,0,,,74,0
73080,note_on,0,0,1,,,,,,,,,0,,,75,43
73080,note_on,60,0,3,,,,,,,,,2,,,59,39
73176,note_off,96,0,1,,,,,,,,,0,,,75,0
73200,note_off,120,0,3,,,,,,,,,2,,,59,0
73200,note_on,0,0,3,,,,,,,,,2,,,55,39
73320,note_on,0,0,3,,,,,,,,,2,,,59,39
73320,note_off,120,0,3,,,,,,,,,2,,,55,0
73380,set_tempo,1380,1,0,,,,,,422535,,,,,,,
73400,note_off,440,0,4,,,,,,,,,3,,,51,0
73440,control_change,120,0,3,,,,,,,64,0,2,,,,
73440,set_tempo,60,1,0,,,,,,416666,,,,,,,
73440,note_off,0,0,3,,,,,,,,,2,,,59,0
73440,note_on,40,0,4,,,,,,,,,3,,,51,44
73440,note_on,264,0,1,,,,,,,,,0,,,71,48
73500,control_change,60,0,3,,,,,,,64,127,2,,,,
73560,note_on,0,0,1,,,,,,,,,0,,,72,43
73560,note_off,120,0,1,,,,,,,,,0,,,71,0
73560,note_on,60,0,3,,,,,,,,,2,,,60,40
73656,note_off,96,0,1,,,,,,,,,0,,,72,0
73680,note_on,0,0,3,,,,,,,,,2,,,55,40
73680,note_off,120,0,3,,,,,,,,,2,,,60,0
73800,note_on,0,0,3,,,,,,,,,2,,,60,40
73800,note_off,120,0,3,,,,,,,,,2,,,55,0
73880,note_off,440,0,4,,,,,,,,,3,,,51,0
73920,control_change,120,0,3,,,,,,,64,0,2,,,,
73920,note_on,40,0,4,,,,,,,,,3,,,51,45
73920,note_off,0,0,3,,,,,,,,,2,,,60,0
73980,control_change,60,0,3,,,,,,,64,127,2,,,,
74040,note_on,60,0,3,,,,,,,,,2,,,60,40
74160,note_off,120,0,3,,,,,,,,,2,,,60,0
74160,note_on,0,0,3,,,,,,,,,2,,,55,40
74280,note_off,120,0,3,,,,,,,,,2,,,55,0
74280,note_on,0,0,3,,,,,,,,,2,,,60,40
74360,note_off,440,0,4,,,,,,,,,3,,,51,0
74400,control_change,120,0,3,,,,,,,64,0,2,,,,
74400,note_off,0,0,3,,,,,,,,,2,,,60,0
74400,note_on,40,0,4,,,,,,,,,3,,,52,46
74400,control_change,0,0,3,,,,,,,64,0,2,,,,
74460,control_change,60,0,3,,,,,,,64,127,2,,,,
74460,control_change,0,0,3,,,,,,,64,127,2,,,,
74520,note_on,60,0,3,,,,,,,,,2,,,60,40
74640,note_on,984,0,1,,,,,,,,,0,,,84,49
74640,note_on,0,0,3,,,,,,,,,2,,,58,41
74640,set_tempo,1200,1,0,,,,,,422535,,,,,,,
74640,note_off,120,0,3,,,,,,,,,2,,,60,0
74760,set_tempo,120,1,0,,,,,,428571,,,,,,,
74760,note_on,0,0,3,,,,,,,,,2,,,60,41
74760,note_off,120,0,3,,,,,,,,,2,,,58,0
74832,note_off,192,0,1,,,,,,,,,0,,,84,0
74840,note_off,440,0,4,,,,,,,,,3,,,52,0
74880,note_off,0,0,3,,,,,,,,,2,,,60,0
74880,note_on,40,0,4,,,,,,,,,3,,,53,46
74880,note_on,48,0,1,,,,,,,,,0,,,87,52
74880,set_tempo,120,1,0,,,,,,416666,,,,,,,
74880,control_change,120,0,3,,,,,,,64,0,2,,,,
74940,control_change,60,0,3,,,,,,,64,127,2,,,,
75000,note_on,60,0,3,,,,,,,,,2,,,60,41
75120,note_on,0,0,3,,,,,,,,,2,,,57,41
75120,note_off,120,0,3,,,,,,,,,2,,,60,0
75240,note_on,0,0,3,,,,,,,,,2,,,60,41
75240,note_off,120,0,3,,,,,,,,,2,,,57,0
75304,note_off,424,0,4,,,,,,,,,3,,,53,0
75360,control_change,120,0,3,,,,,,,64,0,2,,,,
75360,note_on,56,0,4,,,,,,,,,3,,,53,47
75360,note_off,0,0,3,,,,,,,,,2,,,60,0
75420,control_change,60,0,3,,,,,,,64,127,2,,,,
75480,note_on,60,0,3,,,,,,,,,2,,,60,41
75600,note_off,120,0,3,,,,,,,,,2,,,60,0
75600,note_on,0,0,3,,,,,,,,,2,,,57,41
75600,note_on,0,0,1,,,,,,,,,0,,,89,50
75600,note_off,720,0,1,,,,,,,,,0,,,87,0
75720,note_on,0,0,1,,,,,,,,,0,,,87,50
75720,note_on,0,0,3,,,,,,,,,2,,,60,42
75720,note_off,120,0,3,,,,,,,,,2,,,57,0
75720,note_off,120,0,1,,,,,,,,,0,,,89,0
75784,note_off,424,0,4,,,,,,,,,3,,,53,0
75840,note_on,0,0,1,,,,,,,,,0,,,86,50
75840,note_off,0,0,3,,,,,,,,,2,,,60,0
75840,control_change,120,0,3,,,,,,,64,0,2,,,,
75840,note_on,56,0,4,,,,,,,,,3,,,53,47
75840,note_off,120,0,1,,,,,,,,,0,,,87,0
75900,control_change,60,0,3,,,,,,,64,127,2,,,,
75960,note_on,60,0,3,,,,,,,,,2,,,60,42
75996,note_off,156,0,1,,,,,,,,,0,,,86,0
76080,note_off,120,0,3,,,,,,,,,2,,,60,0
76080,note_on,84,0,1,,,,,,,,,0,,,84,50
76080,note_on,0,0,3,,,,,,,,,2,,,57,42
76200,note_off,120,0,3,,,,,,,,,2,,,57,0
76200,note_on,0,0,3,,,,,,,,,2,,,60,42
76236,note_off,156,0,1,,,,,,,,,0,,,84,0
76260,set_tempo,1380,1,0,,,,,,422535,,,,,,,
76264,note_off,424,0,4,,,,,,,,,3,,,53,0
76320,note_on,56,0,4,,,,,,,,,3,,,53,48
76320,note_on,84,0,1,,,,,,,,,0,,,82,51
76320,set_tempo,60,1,0,,,,,,416666,,,,,,,
76320,control_change,120,0,3,,,,,,,64,0,2,,,,
76320,note_off,0,0,3,,,,,,,,,2,,,60,0
76380,control_change,60,0,3,,,,,,,64,127,2,,,,
76440,note_on,60,0,3,,,,,,,,,2,,,63,42
76476,note_off,156,0,1,,,,,,,,,0,,,82,0
76560,note_on,84,0,1,,,,,,,,,0,,,81,51
76560,note_off,120,0,3,,,,,,,,,2,,,63,0
76560,note_on,0,0,3,,,,,,,,,2,,,60,42
76680,note_off,120,0,3,,,,,,,,,2,,,60,0
76680,note_on,0,0,3,,,,,,,,,2,,,63,42
76716,note_off,156,0,1,,,,,,,,,0,,,81,0
76744,note_off,424,0,4,,,,,,,,,3,,,53,0
76800,note_on,56,0,4,,,,,,,,,3,,,53,48
76800,note_off,0,0,3,,,,,,,,,2,,,63,0
76800,control_change,120,0,3,,,,,,,64,0,2,,,,
76800,note_on,84,0,1,,,,,,,,,0,,,79,51
76860,control_change,60,0,3,,,,,,,64,127,2,,,,
76920,note_on,60,0,3,,,,,,,,,2,,,63,43
76956,note_off,156,0,1,,,,,,,,,0,,,79,0
77040,note_on,84,0,1,,,,,,,,,0,,,77,51
77040,note_off,120,0,3,,,,,,,,,2,,,63,0
77040,note_on,0,0,3,,,,,,,,,2,,,57,43
77160,note_off,120,0,3,,,,,,,,,2,,,57,0
77160,note_on,0,0,3,,,,,,,,,2,,,63,43
77196,note_off,156,0,1,,,,,,,,,0,,,77,0
77224,note_off,424,0,4,,,,,,,,,3,,,53,0
77280,note_on,84,0,1,,,,,,,,,0,,,75,52
77280,note_on,56,0,4,,,,,,,,,3,,,54,49
77280,note_off,0,0,3,,,,,,,,,2,,,63,0
77280,control_change,0,0,3,,,,,,,64,0,2,,,,
77280,control_change,120,0,3,,,,,,,64,0,2,,,,
77340,control_change,0,0,3,,,,,,,64,127,2,,,,
77340,control_change,60,0,3,,,,,,,64,127,2,,,,
77400,note_on,60,0,3,,,,,,,,,2,,,63,43
77436,note_off,156,0,1,,,,,,,,,0,,,75,0
77520,note_off,120,0,3,,,,,,,,,2,,,63,0
77520,note_on,84,0,1,,,,,,,,,0,,,72,52
77520,note_on,0,0,3,,,,,,,,,2,,,57,43
77640,set_tempo,1320,1,0,,,,,,422535,,,,,,,
77640,note_off,120,0,3,,,,,,,,,2,,,57,0
77640,note_on,0,0,3,,,,,,,,,2,,,63,43
77676,note_off,156,0,1,,,,,,,,,0,,,72,0
77704,note_off,424,0,4,,,,,,,,,3,,,54,0
77760,note_on,56,0,4,,,,,,,,,3,,,55,49
77760,control_change,120,0,3,,,,,,,64,0,2,,,,
77760,note_off,0,0,3,,,,,,,,,2,,,63,0
77760,note_on,84,0,1,,,,,,,,,0,,,70,52
77820,control_change,60,0,3,,,,,,,64,127,2,,,,
77880,note_on,60,0,3,,,,,,,,,2,,,62,45
77916,note_off,156,0,1,,,,,,,,,0,,,70,0
78000,note_on,84,0,1,,,,,,,,,0,,,74,52
78000,note_off,120,0,3,,,,,,,,,2,,,62,0
78000,note_on,0,0,3,,,,,,,,,2,,,58,44
78120,note_on,0,0,3,,,,,,,,,2,,,62,44
78120,note_off,120,0,3,,,,,,,,,2,,,58,0
78156,note_off,156,0,1,,,,,,,,,0,,,74,0
78184,note_off,424,0,4,,,,,,,,,3,,,55,0
78240,note_off,0,0,3,,,,,,,,,2,,,62,0
78240,control_change,120,0,3,,,,,,,64,0,2,,,,
78240,note_on,84,0,1,,,,,,,,,0,,,67,52
78240,note_on,56,0,4,,,,,,,,,3,,,51,47
78300,control_change,60,0,3,,,,,,,64,127,2,,,,
78360,note_on,60,0,3,,,,,,,,,2,,,60,42
78396,note_off,156,0,1,,,,,,,,,0,,,67,0
78480,note_off,120,0,3,,,,,,,,,2,,,60,0
78480,note_on,0,0,3,,,,,,,,,2,,,55,42
78480,note_on,84,0,1,,,,,,,,,0,,,75,53
78600,note_off,120,0,3,,,,,,,,,2,,,55,0
78600,note_on,0,0,3,,,,,,,,,2,,,60,41
78636,note_off,156,0,1,,,,,,,,,0,,,75,0
78680,note_off,440,0,4,,,,,,,,,3,,,51,0
78720,note_on,84,0,1,,,,,,,,,0,,,69,53
78720,note_on,40,0,4,,,,,,,,,3,,,53,44
78720,note_off,0,0,3,,,,,,,,,2,,,60,0
78720,control_change,120,0,3,,,,,,,64,0,2,,,,
78780,control_change,60,0,3,,,,,,,64,127,2,,,,
78840,note_on,60,0,3,,,,,,,,,2,,,60,40
78876,note_off,156,0,1,,,,,,,,,0,,,69,0
78960,note_on,84,0,1,,,,,,,,,0,,,72,53
78960,set_tempo,1320,1,0,,,,,,428571,,,,,,,
78960,note_on,0,0,3,,,,,,,,,2,,,57,40
78960,note_off,120,0,3,,,,,,,,,2,,,60,0
79080,note_on,0,0,3,,,,,,,,,2,,,63,39
79080,set_tempo,120,1,0,,,,,,434782,,,,,,,
79080,note_off,120,0,3,,,,,,,,,2,,,57,0
79116,note_off,156,0,1,,,,,,,,,0,,,72,0
79160,note_off,440,0,4,,,,,,,,,3,,,53,0
79200,set_tempo,120,1,0,,,,,,434782,,,,,,,
79200,note_on,84,0,1,,,,,,,,,0,,,70,55
79200,note_off,0,0,3,,,,,,,,,2,,,63,0
79200,control_change,120,0,3,,,,,,,64,0,2,,,,
79200,note_on,40,0,4,,,,,,,,,3,,,46,42
79200,note_on,0,0,3,,,,,,,,,2,,,58,38
79310,set_tempo,110,1,0,,,,,,416666,,,,,,,
79320,note_off,120,0,1,,,,,,,,,0,,,70,0
79320,note_on,0,0,1,,,,,,,,,0,,,62,54
79440,note_off,120,0,1,,,,,,,,,0,,,62,0
79440,note_on,0,0,1,,,,,,,,,0,,,65,52
79560,note_on,0,0,1,,,,,,,,,0,,,63,50
79560,note_off,120,0,1,,,,,,,,,0,,,65,0
79680,note_off,120,0,1,,,,,,,,,0,,,63,0
79680,note_on,0,0,1,,,,,,,,,0,,,62,49
79680,note_off,480,0,3,,,,,,,,,2,,,58,0
79680,note_off,480,0,4,,,,,,,,,3,,,46,0
79800,note_off,120,0,1,,,,,,,,,0,,,62,0
79800,note_on,0,0,1,,,,,,,,,0,,,63,47
79920,note_off,120,0,1,,,,,,,,,0,,,63,0
79920,note_on,0,0,1,,,,,,,,,0,,,65,45
80000,note_off,80,0,1,,,,,,,,,0,,,65,0
80000,note_on,0,0,1,,,,,,,,,0,,,67,44
80076,set_tempo,766,1,0,,,,,,425531,,,,,,,
80080,note_off,80,0,1,,,,,,,,,0,,,67,0
80080,note_on,0,0,1,,,,,,,,,0,,,69,43
80160,set_tempo,84,1,0,,,,,,821917,,,,,,,
80160,note_off,80,0,1,,,,,,,,,0,,,69,0
80160,note_on,0,0,1,,,,,,,,,0,,,70,42
80200,note_on,0,0,1,,,,,,,,,0,,,69,41
80200,note_off,40,0,1,,,,,,,,,0,,,70,0
80240,note_off,40,0,1,,,,,,,,,0,,,69,0
80240,note_on,0,0,1,,,,,,,,,0,,,72,41
80280,note_off,40,0,1,,,,,,,,,0,,,72,0
80280,note_on,0,0,1,,,,,,,,,0,,,70,40
80320,note_on,0,0,1,,,,,,,,,0,,,74,40
80320,note_off,40,0,1,,,,,,,,,0,,,70,0
80360,note_on,0,0,1,,,,,,,,,0,,,72,39
80360,note_off,40,0,1,,,,,,,,,0,,,74,0
80400,note_on,0,0,1,,,,,,,,,0,,,70,39
80400,note_off,40,0,1,,,,,,,,,0,,,72,0
80440,note_off,40,0,1,,,,,,,,,0,,,70,0
80440,note_on,0,0,1,,,,,,,,,0,,,69,38
80480,set_tempo,320,1,0,,,,,,845070,,,,,,,
80480,note_off,40,0,1,,,,,,,,,0,,,69,0
80480,note_on,0,0,1,,,,,,,,,0,,,67,37
80520,set_tempo,40,1,0,,,,,,869565,,,,,,,
80520,note_off,40,0,1,,,,,,,,,0,,,67,0
80520,note_on,0,0,1,,,,,,,,,0,,,65,37
80560,note_on,0,0,1,,,,,,,,,0,,,67,36
80560,set_tempo,40,1,0,,,,,,1000000,,,,,,,
80560,note_off,40,0,1,,,,,,,,,0,,,65,0
80600,set_tempo,40,1,0,,,,,,1111111,,,,,,,
80600,note_off,40,0,1,,,,,,,,,0,,,67,0
80600,note_on,0,0,1,,,,,,,,,0,,,63,36
80640,note_on,0,0,1,,,,,,,,,0,,,62,38
80640,note_off,40,0,1,,,,,,,,,0,,,63,0
80640,set_tempo,40,1,0,,,,,,434782,,,,,,,
80754,set_tempo,114,1,0,,,,,,416666,,,,,,,
80760,note_off,120,0,1,,,,,,,,,0,,,62,0
80760,note_on,0,0,1,,,,,,,,,0,,,65,38
80880,note_off,120,0,1,,,,,,,,,0,,,65,0
80880,note_on,0,0,1,,,,,,,,,0,,,63,38
81000,note_off,120,0,1,,,,,,,,,0,,,63,0
81000,note_on,0,0,1,,,,,,,,,0,,,62,39
81120,note_off,120,0,1,,,,,,,,,0,,,62,0
81120,note_on,0,0,1,,,,,,,,,0,,,63,39
81240,note_on,0,0,1,,,,,,,,,0,,,65,39
81240,note_off,120,0,1,,,,,,,,,0,,,63,0
81360,note_off,120,0,1,,,,,,,,,0,,,65,0
81360,note_on,0,0,1,,,,,,,,,0,,,67,40
81480,note_off,120,0,1,,,,,,,,,0,,,67,0
81480,note_on,0,0,1,,,,,,,,,0,,,69,40
81600,note_off,120,0,1,,,,,,,,,0,,,69,0
81600,note_on,0,0,1,,,,,,,,,0,,,70,40
81720,note_off,120,0,1,,,,,,,,,0,,,70,0
81720,note_on,0,0,1,,,,,,,,,0,,,69,41
81840,note_off,120,0,1,,,,,,,,,0,,,69,0
81840,note_on,0,0,1,,,,,,,,,0,,,67,41
81960,note_off,120,0,1,,,,,,,,,0,,,67,0
81960,note_on,0,0,1,,,,,,,,,0,,,65,41
82080,note_on,0,0,1,,,,,,,,,0,,,67,42
82080,note_off,120,0,1,,,,,,,,,0,,,65,0
82200,note_off,120,0,1,,,,,,,,,0,,,67,0
82200,note_on,0,0,1,,,,,,,,,0,,,69,42
82320,note_off,120,0,1,,,,,,,,,0,,,69,0
82320,note_on,0,0,1,,,,,,,,,0,,,70,42
82440,note_off,120,0,1,,,,,,,,,0,,,70,0
82440,note_on,0,0,1,,,,,,,,,0,,,72,43
82560,note_off,120,0,1,,,,,,,,,0,,,72,0
82560,note_on,0,0,1,,,,,,,,,0,,,74,43
82680,note_off,120,0,1,,,,,,,,,0,,,74,0
82680,note_on,0,0,1,,,,,,,,,0,,,72,43
82800,note_off,120,0,1,,,,,,,,,0,,,72,0
82800,note_on,0,0,1,,,,,,,,,0,,,70,44
82920,note_off,120,0,1,,,,,,,,,0,,,70,0
82920,note_on,0,0,1,,,,,,,,,0,,,69,44
83040,note_off,120,0,1,,,,,,,,,0,,,69,0
83040,note_on,0,0,1,,,,,,,,,0,,,70,44
83160,note_off,120,0,1,,,,,,,,,0,,,70,0
83160,note_on,0,0,1,,,,,,,,,0,,,72,45
83280,note_off,120,0,1,,,,,,,,,0,,,72,0
83280,note_on,0,0,1,,,,,,,,,0,,,74,45
83400,note_on,0,0,1,,,,,,,,,0,,,75,45
83400,note_off,120,0,1,,,,,,,,,0,,,74,0
83520,note_on,0,0,1,,,,,,,,,0,,,77,46
83520,note_off,120,0,1,,,,,,,,,0,,,75,0
83640,note_off,120,0,1,,,,,,,,,0,,,77,0
83640,note_on,0,0,1,,,,,,,,,0,,,75,46
83760,note_off,120,0,1,,,,,,,,,0,,,75,0
83760,note_on,0,0,1,,,,,,,,,0,,,74,46
83880,note_off,120,0,1,,,,,,,,,0,,,74,0
83880,note_on,0,0,1,,,,,,,,,0,,,72,47
84000,note_off,120,0,1,,,,,,,,,0,,,72,0
84000,note_on,0,0,1,,,,,,,,,0,,,77,47
84160,note_off,160,0,1,,,,,,,,,0,,,77,0
84160,note_on,0,0,1,,,,,,,,,0,,,75,47
84320,note_off,160,0,1,,,,,,,,,0,,,75,0
84320,note_on,0,0,1,,,,,,,,,0,,,74,47
84360,set_tempo,3606,1,0,,,,,,422535,,,,,,,
84480,note_on,0,0,1,,,,,,,,,0,,,75,49
84480,note_off,160,0,1,,,,,,,,,0,,,74,0
84600,note_off,120,0,1,,,,,,,,,0,,,75,0
84600,note_on,0,0,1,,,,,,,,,0,,,77,50
84720,note_off,120,0,1,,,,,,,,,0,,,77,0
84720,set_tempo,360,1,0,,,,,,434782,,,,,,,
84720,note_on,0,0,1,,,,,,,,,0,,,79,51
84840,note_off,120,0,1,,,,,,,,,0,,,79,0
84840,note_on,0,0,1,,,,,,,,,0,,,81,53
84840,set_tempo,120,1,0,,,,,,472440,,,,,,,
84960,note_off,120,0,1,,,,,,,,,0,,,81,0
84960,note_on,0,0,1,,,,,,,,,0,,,82,54
84960,control_change,5280,0,3,,,,,,,64,0,2,,,,
84960,note_on,5280,0,4,,,,,,,,,3,,,50,42
84960,set_tempo,120,1,0,,,,,,416666,,,,,,,
85020,control_change,60,0,3,,,,,,,64,127,2,,,,
85080,note_on,60,0,3,,,,,,,,,2,,,58,38
85200,note_off,120,0,3,,,,,,,,,2,,,58,0
85200,note_on,0,0,3,,,,,,,,,2,,,53,38
85320,note_on,0,0,3,,,,,,,,,2,,,58,38
85320,note_off,120,0,3,,,,,,,,,2,,,53,0
85384,note_off,424,0,4,,,,,,,,,3,,,50,0
85440,note_off,0,0,3,,,,,,,,,2,,,58,0
85440,note_on,56,0,4,,,,,,,,,3,,,50,42
85440,control_change,120,0,3,,,,,,,64,0,2,,,,
85500,control_change,60,0,3,,,,,,,64,127,2,,,,
85560,note_on,60,0,3,,,,,,,,,2,,,58,38
85680,note_off,120,0,3,,,,,,,,,2,,,58,0
85680,note_off,720,0,1,,,,,,,,,0,,,82,0
85680,note_on,0,0,1,,,,,,,,,0,,,81,51
85680,note_on,0,0,3,,,,,,,,,2,,,53,39
85800,note_off,120,0,1,,,,,,,,,0,,,81,0
85800,note_on,0,0,1,,,,,,,,,0,,,82,46
85800,note_off,120,0,3,,,,,,,,,2,,,53,0
85800,note_on,0,0,3,,,,,,,,,2,,,58,39
85864,note_off,424,0,4,,,,,,,,,3,,,50,0
85878,note_off,78,0,1,,,,,,,,,0,,,82,0
85920,note_off,0,0,3,,,,,,,,,2,,,58,0
85920,note_on,56,0,4,,,,,,,,,3,,,50,43
85920,control_change,120,0,3,,,,,,,64,0,2,,,,
85920,note_on,42,0,1,,,,,,,,,0,,,81,51
85980,control_change,60,0,3,,,,,,,64,127,2,,,,
86040,note_on,60,0,3,,,,,,,,,2,,,58,39
86040,note_off,120,0,1,,,,,,,,,0,,,81,0
86040,note_on,0,0,1,,,,,,,,,0,,,82,47
86118,note_off,78,0,1,,,,,,,,,0,,,82,0
86160,note_off,120,0,3,,,,,,,,,2,,,58,0
86160,note_on,0,0,3,,,,,,,,,2,,,53,39
86160,note_on,42,0,1,,,,,,,,,0,,,84,52
86280,note_on,0,0,1,,,,,,,,,0,,,82,47
86280,note_off,120,0,1,,,,,,,,,0,,,84,0
86280,note_off,120,0,3,,,,,,,,,2,,,53,0
86280,note_on,0,0,3,,,,,,,,,2,,,58,39
86340,set_tempo,1380,1,0,,,,,,422535,,,,,,,
86344,note_off,424,0,4,,,,,,,,,3,,,50,0
86358,note_off,78,0,1,,,,,,,,,0,,,82,0
86400,set_tempo,60,1,0,,,,,,416666,,,,,,,
86400,note_off,0,0,3,,,,,,,,,2,,,58,0
86400,control_change,120,0,3,,,,,,,64,0,2,,,,
86400,note_on,42,0,1,,,,,,,,,0,,,77,52
86400,note_on,56,0,4,,,,,,,,,3,,,50,44
86460,control_change,60,0,3,,,,,,,64,127,2,,,,
86520,note_on,60,0,3,,,,,,,,,2,,,58,40
86640,note_off,120,0,3,,,,,,,,,2,,,58,0
86640,note_on,0,0,3,,,,,,,,,2,,,53,40
86760,note_off,120,0,3,,,,,,,,,2,,,53,0
86760,note_on,0,0,3,,,,,,,,,2,,,58,40
86824,note_off,424,0,4,,,,,,,,,3,,,50,0
86880,note_on,56,0,4,,,,,,,,,3,,,50,44
86880,control_change,120,0,3,,,,,,,64,0,2,,,,
86880,note_off,0,0,3,,,,,,,,,2,,,58,0
86940,control_change,60,0,3,,,,,,,64,127,2,,,,
87000,note_on,60,0,3,,,,,,,,,2,,,58,40
87120,note_off,720,0,1,,,,,,,,,0,,,77,0
87120,note_off,120,0,3,,,,,,,,,2,,,58,0
87120,note_on,0,0,3,,,,,,,,,2,,,53,41
87120,note_on,0,0,1,,,,,,,,,0,,,76,54
87240,note_on,0,0,3,,,,,,,,,2,,,58,41
87240,note_off,120,0,1,,,,,,,,,0,,,76,0
87240,note_on,0,0,1,,,,,,,,,0,,,77,49
87240,note_off,120,0,3,,,,,,,,,2,,,53,0
87304,note_off,424,0,4,,,,,,,,,3,,,50,0
87318,note_off,78,0,1,,,,,,,,,0,,,77,0
87360,note_off,0,0,3,,,,,,,,,2,,,58,0
87360,control_change,0,0,3,,,,,,,64,0,2,,,,
87360,control_change,120,0,3,,,,,,,64,0,2,,,,
87360,note_on,56,0,4,,,,,,,,,3,,,50,45
87360,note_on,42,0,1,,,,,,,,,0,,,79,54
87420,control_change,60,0,3,,,,,,,64,127,2,,,,
87420,control_change,0,0,3,,,,,,,64,127,2,,,,
87480,note_off,120,0,1,,,,,,,,,0,,,79,0
87480,note_on,0,0,1,,,,,,,,,0,,,77,49
87480,note_on,60,0,3,,,,,,,,,2,,,58,41
87558,note_off,78,0,1,,,,,,,,,0,,,77,0
87600,note_on,42,0,1,,,,,,,,,0,,,75,54
87600,note_on,0,0,3,,,,,,,,,2,,,53,41
87600,note_off,120,0,3,,,,,,,,,2,,,58,0
87720,note_on,0,0,3,,,,,,,,,2,,,58,41
87720,note_off,120,0,3,,,,,,,,,2,,,53,0
87720,note_on,0,0,1,,,,,,,,,0,,,74,50
87720,note_off,120,0,1,,,,,,,,,0,,,75,0
87780,set_tempo,1380,1,0,,,,,,422535,,,,,,,
87784,note_off,424,0,4,,,,,,,,,3,,,50,0
87798,note_off,78,0,1,,,,,,,,,0,,,74,0
87840,note_on,42,0,1,,,,,,,,,0,,,78,55
87840,note_off,0,0,3,,,,,,,,,2,,,58,0
87840,control_change,120,0,3,,,,,,,64,0,2,,,,
87840,note_on,56,0,4,,,,,,,,,3,,,51,46
87840,set_tempo,60,1,0,,,,,,416666,,,,,,,
87900,control_change,60,0,3,,,,,,,64,127,2,,,,
87960,note_off,120,0,1,,,,,,,,,0,,,78,0
87960,note_on,60,0,3,,,,,,,,,2,,,58,42
87960,note_on,0,0,1,,,,,,,,,0,,,79,50
88038,note_off,78,0,1,,,,,,,,,0,,,79,0
88080,note_on,42,0,1,,,,,,,,,0,,,78,55
88080,note_off,120,0,3,,,,,,,,,2,,,58,0
88080,note_on,0,0,3,,,,,,,,,2,,,55,42
88200,note_off,120,0,1,,,,,,,,,0,,,78,0
88200,note_on,0,0,1,,,,,,,,,0,,,79,49
88200,note_off,120,0,3,,,,,,,,,2,,,55,0
88200,note_on,0,0,3,,,,,,,,,2,,,58,42
88264,note_off,424,0,4,,,,,,,,,3,,,51,0
88278,note_off,78,0,1,,,,,,,,,0,,,79,0
88320,note_on,42,0,1,,,,,,,,,0,,,78,56
88320,control_change,120,0,3,,,,,,,64,0,2,,,,
88320,note_off,0,0,3,,,,,,,,,2,,,58,0
88320,note_on,56,0,4,,,,,,,,,3,,,51,46
88380,control_change,60,0,3,,,,,,,64,127,2,,,,
88440,note_on,60,0,3,,,,,,,,,2,,,58,42
88440,note_off,120,0,1,,,,,,,,,0,,,78,0
88440,note_on,0,0,1,,,,,,,,,0,,,79,49
88518,note_off,78,0,1,,,,,,,,,0,,,79,0
88560,note_on,42,0,1,,,,,,,,,0,,,78,56
88560,note_on,0,0,3,,,,,,,,,2,,,55,42
88560,note_off,120,0,3,,,,,,,,,2,,,58,0
88680,note_on,0,0,1,,,,,,,,,0,,,79,49
88680,note_off,120,0,1,,,,,,,,,0,,,78,0
88680,note_off,120,0,3,,,,,,,,,2,,,55,0
88680,note_on,0,0,3,,,,,,,,,2,,,58,43
88744,note_off,424,0,4,,,,,,,,,3,,,51,0
88758,note_off,78,0,1,,,,,,,,,0,,,79,0
88800,note_on,42,0,1,,,,,,,,,0,,,74,57
88800,note_on,56,0,4,,,,,,,,,3,,,51,47
88800,control_change,120,0,3,,,,,,,64,0,2,,,,
88800,note_off,0,0,3,,,,,,,,,2,,,58,0
88860,control_change,60,0,3,,,,,,,64,127,2,,,,
88920,note_off,120,0,1,,,,,,,,,0,,,74,0
88920,note_on,0,0,1,,,,,,,,,0,,,75,52
88920,note_on,60,0,3,,,,,,,,,2,,,59,43
88998,note_off,78,0,1,,,,,,,,,0,,,75,0
89040,note_on,0,0,3,,,,,,,,,2,,,55,43
89040,note_off,120,0,3,,,,,,,,,2,,,59,0
89040,note_on,42,0,1,,,,,,,,,0,,,74,57
89160,note_on,0,0,3,,,,,,,,,2,,,59,43
89160,note_off,120,0,3,,,,,,,,,2,,,55,0
89160,note_off,120,0,1,,,,,,,,,0,,,74,0
89160,note_on,0,0,1,,,,,,,,,0,,,75,52
89220,set_tempo,1380,1,0,,,,,,422535,,,,,,,
89224,note_off,424,0,4,,,,,,,,,3,,,51,0
89238,note_off,78,0,1,,,,,,,,,0,,,75,0
89280,set_tempo,60,1,0,,,,,,416666,,,,,,,
89280,note_on,42,0,1,,,,,,,,,0,,,71,58
89280,note_on,56,0,4,,,,,,,,,3,,,51,47
89280,note_off,0,0,3,,,,,,,,,2,,,59,0
89280,control_change,120,0,3,,,,,,,64,0,2,,,,
89340,control_change,60,0,3,,,,,,,64,127,2,,,,
89400,note_on,60,0,3,,,,,,,,,2,,,60,44
89400,note_off,120,0,1,,,,,,,,,0,,,71,0
89400,note_on,0,0,1,,,,,,,,,0,,,72,53
89478,note_off,78,0,1,,,,,,,,,0,,,72,0
89520,note_off,120,0,3,,,,,,,,,2,,,60,0
89520,note_on,0,0,3,,,,,,,,,2,,,55,44
89520,note_on,42,0,1,,,,,,,,,0,,,71,56
89640,note_off,120,0,3,,,,,,,,,2,,,55,0
89640,note_on,0,0,1,,,,,,,,,0,,,72,49
89640,note_off,120,0,1,,,,,,,,,0,,,71,0
89640,note_on,0,0,3,,,,,,,,,2,,,60,44
89704,note_off,424,0,4,,,,,,,,,3,,,51,0
89718,note_off,78,0,1,,,,,,,,,0,,,72,0
89760,note_on,56,0,4,,,,,,,,,3,,,51,48
89760,control_change,120,0,3,,,,,,,64,0,2,,,,
89760,note_off,0,0,3,,,,,,,,,2,,,60,0
89820,control_change,60,0,3,,,,,,,64,127,2,,,,
89880,note_on,60,0,3,,,,,,,,,2,,,60,44
90000,note_off,120,0,3,,,,,,,,,2,,,60,0
90000,note_on,0,0,3,,,,,,,,,2,,,55,44
90120,note_off,120,0,3,,,,,,,,,2,,,55,0
90120,note_on,0,0,3,,,,,,,,,2,,,60,45
90184,note_off,424,0,4,,,,,,,,,3,,,51,0
90240,note_off,0,0,3,,,,,,,,,2,,,60,0
90240,note_on,56,0,4,,,,,,,,,3,,,52,49
90240,control_change,120,0,3,,,,,,,64,0,2,,,,
90240,control_change,0,0,3,,,,,,,64,0,2,,,,
90300,control_change,60,0,3,,,,,,,64,127,2,,,,
90300,control_change,0,0,3,,,,,,,64,127,2,,,,
90360,note_on,60,0,3,,,,,,,,,2,,,60,45
90480,set_tempo,1200,1,0,,,,,,422535,,,,,,,
90480,note_on,762,0,1,,,,,,,,,0,,,84,60
90480,note_on,0,0,3,,,,,,,,,2,,,58,45
90480,note_off,120,0,3,,,,,,,,,2,,,60,0
90600,note_off,120,0,3,,,,,,,,,2,,,58,0
90600,note_on,0,0,3,,,,,,,,,2,,,60,45
90600,set_tempo,120,1,0,,,,,,428571,,,,,,,
90680,note_off,440,0,4,,,,,,,,,3,,,52,0
90720,note_off,240,0,1,,,,,,,,,0,,,84,0
90720,control_change,120,0,3,,,,,,,64,0,2,,,,
90720,note_off,0,0,3,,,,,,,,,2,,,60,0
90720,note_on,0,0,1,,,,,,,,,0,,,87,67
90720,note_on,40,0,4,,,,,,,,,3,,,53,49
90720,set_tempo,120,1,0,,,,,,416666,,,,,,,
90780,control_change,60,0,3,,,,,,,64,127,2,,,,
90840,note_on,60,0,3,,,,,,,,,2,,,60,46
90960,note_on,0,0,3,,,,,,,,,2,,,57,46
90960,note_off,120,0,3,,,,,,,,,2,,,60,0
91080,note_on,0,0,3,,,,,,,,,2,,,60,46
91080,note_off,120,0,3,,,,,,,,,2,,,57,0
91160,note_off,440,0,4,,,,,,,,,3,,,53,0
91200,note_on,40,0,4,,,,,,,,,3,,,53,50
91200,control_change,120,0,3,,,,,,,64,0,2,,,,
91200,note_off,0,0,3,,,,,,,,,2,,,60,0
91260,control_change,60,0,3,,,,,,,64,127,2,,,,
91320,note_on,60,0,3,,,,,,,,,2,,,60,46
91440,note_on,0,0,1,,,,,,,,,0,,,86,62
91440,note_off,720,0,1,,,,,,,,,0,,,87,0
91440,note_off,120,0,3,,,,,,,,,2,,,60,0
91440,note_on,0,0,3,,,,,,,,,2,,,57,46
91560,note_off,120,0,3,,,,,,,,,2,,,57,0
91560,note_on,0,0,3,,,,,,,,,2,,,60,46
91560,note_on,0,0,1,,,,,,,,,0,,,87,62
91560,note_off,120,0,1,,,,,,,,,0,,,86,0
91640,note_off,440,0,4,,,,,,,,,3,,,53,0
91680,note_off,0,0,3,,,,,,,,,2,,,60,0
91680,control_change,120,0,3,,,,,,,64,0,2,,,,
91680,note_on,40,0,4,,,,,,,,,3,,,53,51
91680,note_on,0,0,1,,,,,,,,,0,,,89,62
91680,note_off,120,0,1,,,,,,,,,0,,,87,0
91740,control_change,60,0,3,,,,,,,64,127,2,,,,
91800,note_on,0,0,1,,,,,,,,,0,,,87,62
91800,note_off,120,0,1,,,,,,,,,0,,,89,0
91800,note_on,60,0,3,,,,,,,,,2,,,60,47
91920,note_off,120,0,1,,,,,,,,,0,,,87,0
91920,note_on,0,0,1,,,,,,,,,0,,,86,62
91920,note_off,120,0,3,,,,,,,,,2,,,60,0
91920,note_on,0,0,3,,,,,,,,,2,,,57,47
92040,note_off,120,0,1,,,,,,,,,0,,,86,0
92040,note_on,0,0,1,,,,,,,,,0,,,84,63
92040,note_off,120,0,3,,,,,,,,,2,,,57,0
92040,note_on,0,0,3,,,,,,,,,2,,,60,47
92100,set_tempo,1380,1,0,,,,,,422535,,,,,,,
92120,note_off,440,0,4,,,,,,,,,3,,,53,0
92160,set_tempo,60,1,0,,,,,,416666,,,,,,,
92160,note_on,0,0,1,,,,,,,,,0,,,82,63
92160,note_off,120,0,1,,,,,,,,,0,,,84,0
92160,note_off,0,0,3,,,,,,,,,2,,,60,0
92160,note_on,40,0,4,,,,,,,,,3,,,53,51
92160,control_change,120,0,3,,,,,,,64,0,2,,,,
92220,control_change,60,0,3,,,,,,,64,127,2,,,,
92280,note_on,60,0,3,,,,,,,,,2,,,63,47
92280,note_on,0,0,1,,,,,,,,,0,,,81,63
92280,note_off,120,0,1,,,,,,,,,0,,,82,0
92400,note_on,0,0,1,,,,,,,,,0,,,86,63
92400,note_off,120,0,1,,,,,,,,,0,,,81,0
92400,note_off,120,0,3,,,,,,,,,2,,,63,0
92400,note_on,0,0,3,,,,,,,,,2,,,60,48
92520,note_on,0,0,1,,,,,,,,,0,,,84,64
92520,note_off,120,0,3,,,,,,,,,2,,,60,0
92520,note_on,0,0,3,,,,,,,,,2,,,63,48
92520,note_off,120,0,1,,,,,,,,,0,,,86,0
92600,note_off,440,0,4,,,,,,,,,3,,,53,0
92640,control_change,120,0,3,,,,,,,64,0,2,,,,
92640,note_on,40,0,4,,,,,,,,,3,,,53,52
92640,note_off,0,0,3,,,,,,,,,2,,,63,0
92640,note_off,120,0,1,,,,,,,,,0,,,84,0
92640,note_on,0,0,1,,,,,,,,,0,,,82,64
92700,control_change,60,0,3,,,,,,,64,127,2,,,,
92760,note_on,0,0,1,,,,,,,,,0,,,81,64
92760,note_on,60,0,3,,,,,,,,,2,,,63,48
92760,note_off,120,0,1,,,,,,,,,0,,,82,0
92880,note_on,0,0,3,,,,,,,,,2,,,57,48
92880,note_off,120,0,3,,,,,,,,,2,,,63,0
92880,note_off,120,0,1,,,,,,,,,0,,,81,0
92880,note_on,0,0,1,,,,,,,,,0,,,79,64
93000,note_on,0,0,3,,,,,,,,,2,,,63,48
93000,note_off,120,0,1,,,,,,,,,0,,,79,0
93000,note_on,0,0,1,,,,,,,,,0,,,77,64
93000,note_off,120,0,3,,,,,,,,,2,,,57,0
93080,note_off,440,0,4,,,,,,,,,3,,,53,0
93120,note_on,40,0,4,,,,,,,,,3,,,54,53
93120,note_off,120,0,1,,,,,,,,,0,,,77,0
93120,note_on,0,0,1,,,,,,,,,0,,,75,65
93120,note_off,0,0,3,,,,,,,,,2,,,63,0
93120,control_change,0,0,3,,,,,,,64,0,2,,,,
93120,control_change,120,0,3,,,,,,,64,0,2,,,,
93180,control_change,0,0,3,,,,,,,64,127,2,,,,
93180,control_change,60,0,3,,,,,,,64,127,2,,,,
93240,note_on,60,0,3,,,,,,,,,2,,,63,49
93240,note_off,120,0,1,,,,,,,,,0,,,75,0
93240,note_on,0,0,1,,,,,,,,,0,,,74,65
93360,note_off,120,0,1,,,,,,,,,0,,,74,0
93360,note_on,0,0,1,,,,,,,,,0,,,75,65
93360,note_off,120,0,3,,,,,,,,,2,,,63,0
93360,note_on,0,0,3,,,,,,,,,2,,,57,49
93480,note_off,120,0,1,,,,,,,,,0,,,75,0
93480,note_on,0,0,1,,,,,,,,,0,,,72,65
93480,note_off,120,0,3,,,,,,,,,2,,,57,0
93480,note_on,0,0,3,,,,,,,,,2,,,63,49
93480,set_tempo,1320,1,0,,,,,,422535,,,,,,,
93560,note_off,440,0,4,,,,,,,,,3,,,54,0
93600,control_change,120,0,3,,,,,,,64,0,2,,,,
93600,note_on,40,0,4,,,,,,,,,3,,,55,53
93600,note_off,0,0,3,,,,,,,,,2,,,63,0
93660,control_change,60,0,3,,,,,,,64,127,2,,,,
93720,note_on,60,0,3,,,,,,,,,2,,,62,49
93720,note_on,0,0,1,,,,,,,,,0,,,70,63
93720,note_off,240,0,1,,,,,,,,,0,,,72,0
93840,note_on,0,0,1,,,,,,,,,0,,,74,61
93840,note_off,120,0,1,,,,,,,,,0,,,70,0
93840,note_on,0,0,3,,,,,,,,,2,,,58,48
93840,note_off,120,0,3,,,,,,,,,2,,,62,0
93960,note_on,0,0,3,,,,,,,,,2,,,62,47
93960,note_off,120,0,3,,,,,,,,,2,,,58,0
94040,note_off,440,0,4,,,,,,,,,3,,,55,0
94080,control_change,120,0,3,,,,,,,64,0,2,,,,
94080,note_off,0,0,3,,,,,,,,,2,,,62,0
94080,note_on,40,0,4,,,,,,,,,3,,,51,50
94140,control_change,60,0,3,,,,,,,64,127,2,,,,
94200,note_on,60,0,3,,,,,,,,,2,,,60,46
94200,note_off,360,0,1,,,,,,,,,0,,,74,0
94200,note_on,0,0,1,,,,,,,,,0,,,67,57
94320,note_on,0,0,3,,,,,,,,,2,,,55,45
94320,note_on,0,0,1,,,,,,,,,0,,,75,56
94320,note_off,120,0,3,,,,,,,,,2,,,60,0
94320,note_off,120,0,1,,,,,,,,,0,,,67,0
94440,note_off,120,0,3,,,,,,,,,2,,,55,0
94440,note_on,0,0,3,,,,,,,,,2,,,60,44
94520,note_off,440,0,4,,,,,,,,,3,,,51,0
94560,note_on,40,0,4,,,,,,,,,3,,,53,47
94560,control_change,120,0,3,,,,,,,64,0,2,,,,
94560,note_off,0,0,3,,,,,,,,,2,,,60,0
94620,control_change,60,0,3,,,,,,,64,127,2,,,,
94680,note_on,0,0,1,,,,,,,,,0,,,69,52
94680,note_off,360,0,1,,,,,,,,,0,,,75,0
94680,note_on,60,0,3,,,,,,,,,2,,,60,43
94800,note_on,0,0,3,,,,,,,,,2,,,57,42
94800,note_off,120,0,1,,,,,,,,,0,,,69,0
94800,note_on,0,0,1,,,,,,,,,0,,,72,50
94800,note_off,120,0,3,,,,,,,,,2,,,60,0
94920,note_off,120,0,3,,,,,,,,,2,,,57,0
94920,set_tempo,1440,1,0,,,,,,428571,,,,,,,
94920,note_on,0,0,3,,,,,,,,,2,,,63,41
95016,note_off,456,0,4,,,,,,,,,3,,,53,0
95040,note_on,0,0,1,,,,,,,,,0,,,70,46
95040,control_change,120,0,3,,,,,,,64,0,2,,,,
95040,note_on,24,0,4,,,,,,,,,3,,,46,44
95040,note_off,0,0,3,,,,,,,,,2,,,63,0
95040,note_off,240,0,1,,,,,,,,,0,,,72,0
95160,note_on,120,0,1,,,,,,,,,0,,,50,47
95160,set_tempo,240,1,0,,,,,,416666,,,,,,,
95280,note_off,240,0,4,,,,,,,,,3,,,46,0
95280,note_on,0,0,1,,,,,,,,,0,,,51,47
95280,note_off,0,0,1,,,,,,,,,0,,,70,0
95280,note_off,120,0,1,,,,,,,,,0,,,50,0
95400,note_on,0,0,1,,,,,,,,,0,,,53,48
95400,note_off,120,0,1,,,,,,,,,0,,,51,0
95520,note_off,120,0,1,,,,,,,,,0,,,53,0
95520,note_on,0,0,1,,,,,,,,,0,,,55,49
95640,note_on,0,0,1,,,,,,,,,0,,,57,50
95640,note_off,120,0,1,,,,,,,,,0,,,55,0
95760,note_off,120,0,1,,,,,,,,,0,,,57,0
95760,note_on,0,0,1,,,,,,,,,0,,,58,51
95880,note_off,120,0,1,,,,,,,,,0,,,58,0
95880,note_on,0,0,1,,,,,,,,,0,,,60,52
96000,note_off,120,0,1,,,,,,,,,0,,,60,0
96000,note_on,0,0,1,,,,,,,,,0,,,62,53
96000,control_change,0,0,3,,,,,,,64,0,2,,,,
96000,control_change,960,0,3,,,,,,,64,0,2,,,,
96120,note_off,120,0,1,,,,,,,,,0,,,62,0
96120,note_on,0,0,1,,,,,,,,,0,,,63,54
96240,note_off,120,0,1,,,,,,,,,0,,,63,0
96240,note_on,0,0,1,,,,,,,,,0,,,65,55
96360,note_off,120,0,1,,,,,,,,,0,,,65,0
96360,note_on,0,0,1,,,,,,,,,0,,,67,56
96360,set_tempo,1200,1,0,,,,,,422535,,,,,,,
96480,note_off,120,0,1,,,,,,,,,0,,,67,0
96480,note_on,0,0,1,,,,,,,,,0,,,65,59
96590,set_tempo,230,1,0,,,,,,416666,,,,,,,
96720,note_on,1440,0,4,,,,,,,,,3,,,48,39
96720,note_on,0,0,4,,,,,,,,,3,,,45,39
96720,note_on,0,0,4,,,,,,,,,3,,,53,39
96912,note_off,0,0,4,,,,,,,,,3,,,53,0
96912,note_off,0,0,4,,,,,,,,,3,,,48,0
96912,note_off,192,0,4,,,,,,,,,3,,,45,0
96960,note_on,0,0,4,,,,,,,,,3,,,48,38
96960,note_on,0,0,4,,,,,,,,,3,,,45,38
96960,note_on,48,0,4,,,,,,,,,3,,,53,38
97152,note_off,0,0,4,,,,,,,,,3,,,45,0
97152,note_off,0,0,4,,,,,,,,,3,,,53,0
97152,note_off,192,0,4,,,,,,,,,3,,,48,0
97200,note_on,48,0,4,,,,,,,,,3,,,45,38
97200,note_on,0,0,4,,,,,,,,,3,,,53,38
97200,note_on,0,0,4,,,,,,,,,3,,,48,38
97392,note_off,0,0,4,,,,,,,,,3,,,45,0
97392,note_off,0,0,4,,,,,,,,,3,,,53,0
97392,note_off,192,0,4,,,,,,,,,3,,,48,0
97440,note_on,0,0,1,,,,,,,,,0,,,63,53
97440,note_off,960,0,1,,,,,,,,,0,,,65,0
97440,note_on,0,0,4,,,,,,,,,3,,,48,37
97440,note_on,48,0,4,,,,,,,,,3,,,45,37
97440,note_on,0,0,4,,,,,,,,,3,,,53,37
97520,note_off,80,0,1,,,,,,,,,0,,,63,0
97520,note_on,0,0,1,,,,,,,,,0,,,65,53
97600,note_on,0,0,1,,,,,,,,,0,,,63,52
97600,note_off,80,0,1,,,,,,,,,0,,,65,0
97632,note_off,192,0,4,,,,,,,,,3,,,48,0
97632,note_off,0,0,4,,,,,,,,,3,,,45,0
97632,note_off,0,0,4,,,,,,,,,3,,,53,0
97680,note_on,48,0,4,,,,,,,,,3,,,45,37
97680,note_on,0,0,4,,,,,,,,,3,,,48,37
97680,note_on,0,0,4,,,,,,,,,3,,,53,37
97680,note_off,80,0,1,,,,,,,,,0,,,63,0
97680,note_on,0,0,1,,,,,,,,,0,,,62,52
97800,set_tempo,1210,1,0,,,,,,422535,,,,,,,
97800,note_on,0,0,1,,,,,,,,,0,,,63,51
97800,note_off,120,0,1,,,,,,,,,0,,,62,0
97872,note_off,0,0,4,,,,,,,,,3,,,45,0
97872,note_off,192,0,4,,,,,,,,,3,,,48,0
97872,note_off,0,0,4,,,,,,,,,3,,,53,0
97920,note_off,120,0,1,,,,,,,,,0,,,63,0
97920,note_on,0,0,1,,,,,,,,,0,,,62,50
97920,note_on,48,0,4,,,,,,,,,3,,,58,36
98040,note_off,120,0,1,,,,,,,,,0,,,62,0
98040,note_on,0,0,1,,,,,,,,,0,,,62,51
98055,set_tempo,255,1,0,,,,,,416666,,,,,,,
98112,note_off,192,0,4,,,,,,,,,3,,,58,0
98160,note_on,0,0,1,,,,,,,,,0,,,63,51
98160,note_off,120,0,1,,,,,,,,,0,,,62,0
98280,note_off,120,0,1,,,,,,,,,0,,,63,0
98280,note_on,0,0,1,,,,,,,,,0,,,65,52
98400,note_off,120,0,1,,,,,,,,,0,,,65,0
98400,note_on,0,0,1,,,,,,,,,0,,,67,53
98520,note_off,120,0,1,,,,,,,,,0,,,67,0
98520,note_on,0,0,1,,,,,,,,,0,,,69,54
98640,note_off,120,0,1,,,,,,,,,0,,,69,0
98640,note_on,0,0,1,,,,,,,,,0,,,70,55
98760,note_off,120,0,1,,,,,,,,,0,,,70,0
98760,note_on,0,0,1,,,,,,,,,0,,,72,56
98880,note_off,120,0,1,,,,,,,,,0,,,72,0
98880,note_on,0,0,1,,,,,,,,,0,,,74,57
99000,note_off,120,0,1,,,,,,,,,0,,,74,0
99000,note_on,0,0,1,,,,,,,,,0,,,75,58
99120,note_off,120,0,1,,,,,,,,,0,,,75,0
99120,note_on,0,0,1,,,,,,,,,0,,,77,59
99240,set_tempo,1185,1,0,,,,,,422535,,,,,,,
99240,note_off,120,0,1,,,,,,,,,0,,,77,0
99240,note_on,0,0,1,,,,,,,,,0,,,79,60
99360,note_on,0,0,1,,,,,,,,,0,,,77,67
99360,note_off,120,0,1,,,,,,,,,0,,,79,0
99470,set_tempo,230,1,0,,,,,,416666,,,,,,,
99600,note_on,1488,0,4,,,,,,,,,3,,,60,47
99600,note_on,0,0,4,,,,,,,,,3,,,57,47
99600,note_on,0,0,4,,,,,,,,,3,,,65,47
99792,note_off,192,0,4,,,,,,,,,3,,,65,0
99792,note_off,0,0,4,,,,,,,,,3,,,57,0
99792,note_off,0,0,4,,,,,,,,,3,,,60,0
99840,note_on,0,0,4,,,,,,,,,3,,,60,47
99840,note_on,0,0,4,,,,,,,,,3,,,65,47
99840,note_on,48,0,4,,,,,,,,,3,,,57,47
100032,note_off,0,0,4,,,,,,,,,3,,,57,0
100032,note_off,0,0,4,,,,,,,,,3,,,65,0
100032,note_off,192,0,4,,,,,,,,,3,,,60,0
100080,note_on,0,0,4,,,,,,,,,3,,,60,46
100080,note_on,0,0,4,,,,,,,,,3,,,65,46
100080,note_on,48,0,4,,,,,,,,,3,,,57,46
100272,note_off,192,0,4,,,,,,,,,3,,,60,0
100272,note_off,0,0,4,,,,,,,,,3,,,65,0
100272,note_off,0,0,4,,,,,,,,,3,,,57,0
100320,note_on,0,0,4,,,,,,,,,3,,,60,45
100320,note_on,0,0,4,,,,,,,,,3,,,57,45
100320,note_on,48,0,4,,,,,,,,,3,,,65,45
100320,note_off,960,0,1,,,,,,,,,0,,,77,0
100320,note_on,0,0,1,,,,,,,,,0,,,75,60
100384,note_off,64,0,1,,,,,,,,,0,,,75,0
100400,note_on,16,0,1,,,,,,,,,0,,,77,59
100464,note_off,64,0,1,,,,,,,,,0,,,77,0
100480,note_on,16,0,1,,,,,,,,,0,,,75,58
100512,note_off,0,0,4,,,,,,,,,3,,,57,0
100512,note_off,192,0,4,,,,,,,,,3,,,60,0
100512,note_off,0,0,4,,,,,,,,,3,,,65,0
100544,note_off,64,0,1,,,,,,,,,0,,,75,0
100560,note_on,48,0,4,,,,,,,,,3,,,65,44
100560,note_on,0,0,4,,,,,,,,,3,,,60,44
100560,note_on,0,0,4,,,,,,,,,3,,,57,44
100560,note_on,16,0,1,,,,,,,,,0,,,74,57
100656,note_off,96,0,1,,,,,,,,,0,,,74,0
100680,set_tempo,1210,1,0,,,,,,422535,,,,,,,
100680,note_on,24,0,1,,,,,,,,,0,,,75,55
100752,note_off,0,0,4,,,,,,,,,3,,,65,0
100752,note_off,192,0,4,,,,,,,,,3,,,60,0
100752,note_off,0,0,4,,,,,,,,,3,,,57,0
100776,note_off,96,0,1,,,,,,,,,0,,,75,0
100800,note_on,24,0,1,,,,,,,,,0,,,74,54
100800,set_tempo,120,1,0,,,,,,416666,,,,,,,
101040,note_on,0,0,4,,,,,,,,,3,,,58,46
101040,note_on,288,0,4,,,,,,,,,3,,,62,46
101167,note_off,367,0,1,,,,,,,,,0,,,74,0
101232,note_off,0,0,4,,,,,,,,,3,,,62,0
101232,note_off,192,0,4,,,,,,,,,3,,,58,0
101280,note_on,113,0,1,,,,,,,,,0,,,72,59
101344,note_off,64,0,1,,,,,,,,,0,,,72,0
101360,note_on,16,0,1,,,,,,,,,0,,,74,58
101424,note_off,64,0,1,,,,,,,,,0,,,74,0
101440,note_on,16,0,1,,,,,,,,,0,,,72,57
101504,note_off,64,0,1,,,,,,,,,0,,,72,0
101520,note_on,0,0,4,,,,,,,,,3,,,57,48
101520,note_on,0,0,4,,,,,,,,,3,,,54,48
101520,note_on,16,0,1,,,,,,,,,0,,,71,56
101520,note_on,288,0,4,,,,,,,,,3,,,62,48
101616,note_off,96,0,1,,,,,,,,,0,,,71,0
101640,note_on,24,0,1,,,,,,,,,0,,,72,55
101712,note_off,0,0,4,,,,,,,,,3,,,62,0
101712,note_off,0,0,4,,,,,,,,,3,,,54,0
101712,note_off,192,0,4,,,,,,,,,3,,,57,0
101736,note_off,96,0,1,,,,,,,,,0,,,72,0
101760,note_on,24,0,1,,,,,,,,,0,,,70,53
102000,note_on,0,0,4,,,,,,,,,3,,,62,50
102000,note_on,0,0,4,,,,,,,,,3,,,58,50
102000,note_on,288,0,4,,,,,,,,,3,,,55,50
102120,note_off,360,0,1,,,,,,,,,0,,,70,0
102192,note_off,0,0,4,,,,,,,,,3,,,62,0
102192,note_off,0,0,4,,,,,,,,,3,,,55,0
102192,note_off,192,0,4,,,,,,,,,3,,,58,0
102240,note_on,120,0,1,,,,,,,,,0,,,69,61
102304,note_off,64,0,1,,,,,,,,,0,,,69,0
102320,note_on,16,0,1,,,,,,,,,0,,,70,60
102384,note_off,64,0,1,,,,,,,,,0,,,70,0
102400,note_on,16,0,1,,,,,,,,,0,,,69,60
102464,note_off,64,0,1,,,,,,,,,0,,,69,0
102480,note_on,0,0,4,,,,,,,,,3,,,50,52
102480,note_on,0,0,4,,,,,,,,,3,,,58,52
102480,note_on,288,0,4,,,,,,,,,3,,,53,52
102480,note_on,16,0,1,,,,,,,,,0,,,67,59
102576,note_off,96,0,1,,,,,,,,,0,,,67,0
102600,note_on,24,0,1,,,,,,,,,0,,,69,58
102672,note_off,0,0,4,,,,,,,,,3,,,53,0
102672,note_off,0,0,4,,,,,,,,,3,,,58,0
102672,note_off,192,0,4,,,,,,,,,3,,,50,0
102696,note_off,96,0,1,,,,,,,,,0,,,69,0
102720,note_on,24,0,1,,,,,,,,,0,,,67,57
102960,note_on,0,0,4,,,,,,,,,3,,,51,54
102960,note_on,0,0,4,,,,,,,,,3,,,55,54
102960,note_on,288,0,4,,,,,,,,,3,,,58,54
103087,note_off,367,0,1,,,,,,,,,0,,,67,0
103152,note_off,0,0,4,,,,,,,,,3,,,58,0
103152,note_off,0,0,4,,,,,,,,,3,,,55,0
103152,note_off,192,0,4,,,,,,,,,3,,,51,0
103200,note_on,113,0,1,,,,,,,,,0,,,65,65
103264,note_off,64,0,1,,,,,,,,,0,,,65,0
103280,note_on,16,0,1,,,,,,,,,0,,,67,64
103344,note_off,64,0,1,,,,,,,,,0,,,67,0
103360,note_on,16,0,1,,,,,,,,,0,,,65,63
103424,note_off,64,0,1,,,,,,,,,0,,,65,0
103440,note_on,16,0,1,,,,,,,,,0,,,64,63
103440,note_on,0,0,4,,,,,,,,,3,,,47,56
103440,note_on,288,0,4,,,,,,,,,3,,,55,56
103440,note_on,0,0,4,,,,,,,,,3,,,50,56
103536,note_off,96,0,1,,,,,,,,,0,,,64,0
103560,note_on,24,0,1,,,,,,,,,0,,,65,62
103632,note_off,192,0,4,,,,,,,,,3,,,50,0
103632,note_off,0,0,4,,,,,,,,,3,,,47,0
103632,note_off,0,0,4,,,,,,,,,3,,,55,0
103656,note_off,96,0,1,,,,,,,,,0,,,65,0
103680,note_on,24,0,1,,,,,,,,,0,,,64,60
103920,note_on,288,0,4,,,,,,,,,3,,,48,58
103920,note_on,0,0,4,,,,,,,,,3,,,55,58
103920,note_on,0,0,4,,,,,,,,,3,,,52,58
104040,note_off,360,0,1,,,,,,,,,0,,,64,0
104112,note_off,192,0,4,,,,,,,,,3,,,52,0
104112,note_off,0,0,4,,,,,,,,,3,,,48,0
104112,note_off,0,0,4,,,,,,,,,3,,,55,0
104160,note_on,120,0,1,,,,,,,,,0,,,63,65
104224,note_off,64,0,1,,,,,,,,,0,,,63,0
104240,note_on,16,0,1,,,,,,,,,0,,,65,64
104304,note_off,64,0,1,,,,,,,,,0,,,65,0
104320,note_on,16,0,1,,,,,,,,,0,,,63,63
104384,note_off,64,0,1,,,,,,,,,0,,,63,0
104400,note_on,288,0,4,,,,,,,,,3,,,45,60
104400,note_on,0,0,4,,,,,,,,,3,,,53,60
104400,note_on,0,0,4,,,,,,,,,3,,,48,60
104400,note_on,16,0,1,,,,,,,,,0,,,62,63
104496,note_off,96,0,1,,,,,,,,,0,,,62,0
104520,note_on,24,0,1,,,,,,,,,0,,,63,61
104592,note_off,0,0,4,,,,,,,,,3,,,48,0
104592,note_off,192,0,4,,,,,,,,,3,,,53,0
104592,note_off,0,0,4,,,,,,,,,3,,,45,0
104616,note_off,96,0,1,,,,,,,,,0,,,63,0
104640,note_on,24,0,1,,,,,,,,,0,,,62,60
104880,note_on,288,0,4,,,,,,,,,3,,,53,63
104880,note_on,0,0,4,,,,,,,,,3,,,46,63
104880,note_on,0,0,4,,,,,,,,,3,,,50,63
105007,note_off,367,0,1,,,,,,,,,0,,,62,0
105072,note_off,192,0,4,,,,,,,,,3,,,46,0
105072,note_off,0,0,4,,,,,,,,,3,,,50,0
105072,note_off,0,0,4,,,,,,,,,3,,,53,0
105120,note_on,113,0,1,,,,,,,,,0,,,63,67
105184,note_off,64,0,1,,,,,,,,,0,,,63,0
105200,note_on,16,0,1,,,,,,,,,0,,,65,66
105264,note_off,64,0,1,,,,,,,,,0,,,65,0
105280,note_on,16,0,1,,,,,,,,,0,,,63,66
105344,note_off,64,0,1,,,,,,,,,0,,,63,0
105360,note_on,16,0,1,,,,,,,,,0,,,62,65
105360,note_on,288,0,4,,,,,,,,,3,,,53,65
105360,note_on,0,0,4,,,,,,,,,3,,,48,65
105360,note_on,0,0,4,,,,,,,,,3,,,45,65
105456,note_off,96,0,1,,,,,,,,,0,,,62,0
105480,note_on,24,0,1,,,,,,,,,0,,,63,63
105552,note_off,0,0,4,,,,,,,,,3,,,48,0
105552,note_off,0,0,4,,,,,,,,,3,,,53,0
105552,note_off,192,0,4,,,,,,,,,3,,,45,0
105576,note_off,96,0,1,,,,,,,,,0,,,63,0
105600,note_on,24,0,1,,,,,,,,,0,,,62,62
105840,note_on,0,0,4,,,,,,,,,3,,,50,67
105840,note_on,0,0,4,,,,,,,,,3,,,46,67
105840,note_on,288,0,4,,,,,,,,,3,,,53,67
105952,note_off,352,0,1,,,,,,,,,0,,,62,0
106032,note_off,0,0,4,,,,,,,,,3,,,53,0
106032,note_off,0,0,4,,,,,,,,,3,,,46,0
106032,note_off,192,0,4,,,,,,,,,3,,,50,0
106080,note_on,128,0,1,,,,,,,,,0,,,63,71
106144,note_off,64,0,1,,,,,,,,,0,,,63,0
106160,note_on,16,0,1,,,,,,,,,0,,,65,69
106224,note_off,64,0,1,,,,,,,,,0,,,65,0
106240,note_on,16,0,1,,,,,,,,,0,,,63,68
106304,note_off,64,0,1,,,,,,,,,0,,,63,0
106320,note_on,0,0,4,,,,,,,,,3,,,45,69
106320,note_on,288,0,4,,,,,,,,,3,,,53,69
106320,note_on,0,0,4,,,,,,,,,3,,,48,69
106320,note_on,16,0,1,,,,,,,,,0,,,62,67
106416,note_off,96,0,1,,,,,,,,,0,,,62,0
106440,note_on,24,0,1,,,,,,,,,0,,,63,65
106440,set_tempo,5640,1,0,,,,,,422535,,,,,,,
106512,note_off,0,0,4,,,,,,,,,3,,,53,0
106512,note_off,0,0,4,,,,,,,,,3,,,48,0
106512,note_off,192,0,4,,,,,,,,,3,,,45,0
106536,note_off,96,0,1,,,,,,,,,0,,,63,0
106560,note_on,0,0,4,,,,,,,,,3,,,53,62
106560,note_on,0,0,4,,,,,,,,,3,,,50,62
106560,note_on,48,0,4,,,,,,,,,3,,,46,62
106560,note_on,0,0,1,,,,,,,,,0,,,62,59
106560,control_change,24,0,1,,,,,,,64,127,0,,,,
106560,set_tempo,120,1,0,,,,,,416666,,,,,,,
106560,control_change,39600,0,2,,,,,,,64,127,1,,,,
106680,note_on,120,0,2,,,,,,,,,1,,,58,50
106680,note_off,120,0,1,,,,,,,,,0,,,62,0
106752,note_off,192,0,4,,,,,,,,,3,,,53,0
106752,note_off,0,0,4,,,,,,,,,3,,,50,0
106752,note_off,0,0,4,,,,,,,,,3,,,46,0
106800,note_on,0,0,2,,,,,,,,,1,,,53,50
106800,note_off,120,0,2,,,,,,,,,1,,,58,0
106920,note_on,0,0,2,,,,,,,,,1,,,58,51
106920,note_off,120,0,2,,,,,,,,,1,,,53,0
107040,note_on,360,0,1,,,,,,,,,0,,,62,51
107040,note_off,120,0,2,,,,,,,,,1,,,58,0
107160,note_on,120,0,2,,,,,,,,,1,,,58,52
107160,note_off,120,0,1,,,,,,,,,0,,,62,0
107280,note_off,120,0,2,,,,,,,,,1,,,58,0
107280,note_on,120,0,1,,,,,,,,,0,,,65,52
107400,note_on,120,0,2,,,,,,,,,1,,,62,53
107400,note_off,120,0,1,,,,,,,,,0,,,65,0
107520,note_off,120,0,2,,,,,,,,,1,,,62,0
107520,note_on,120,0,1,,,,,,,,,0,,,70,54
107640,note_off,120,0,1,,,,,,,,,0,,,70,0
107640,note_on,120,0,2,,,,,,,,,1,,,65,54
107760,note_off,120,0,2,,,,,,,,,1,,,65,0
107760,note_on,120,0,1,,,,,,,,,0,,,74,55
107880,note_off,120,0,1,,,,,,,,,0,,,74,0
107880,note_on,120,0,2,,,,,,,,,1,,,70,55
108000,note_on,120,0,1,,,,,,,,,0,,,65,56
108000,note_off,120,0,2,,,,,,,,,1,,,70,0
108120,note_off,120,0,1,,,,,,,,,0,,,65,0
108120,note_on,120,0,2,,,,,,,,,1,,,62,56
108240,note_on,120,0,1,,,,,,,,,0,,,70,57
108240,note_off,120,0,2,,,,,,,,,1,,,62,0
108360,note_on,120,0,2,,,,,,,,,1,,,65,58
108360,note_off,120,0,1,,,,,,,,,0,,,70,0
108480,note_off,120,0,2,,,,,,,,,1,,,65,0
108480,note_on,120,0,1,,,,,,,,,0,,,74,58
108600,note_on,120,0,2,,,,,,,,,1,,,70,59
108600,note_off,120,0,1,,,,,,,,,0,,,74,0
108720,note_off,120,0,2,,,,,,,,,1,,,70,0
108720,note_on,120,0,1,,,,,,,,,0,,,77,59
108840,note_on,120,0,2,,,,,,,,,1,,,74,60
108840,note_off,120,0,1,,,,,,,,,0,,,77,0
108960,note_on,120,0,1,,,,,,,,,0,,,70,60
108960,note_off,120,0,2,,,,,,,,,1,,,74,0
109080,note_on,120,0,2,,,,,,,,,1,,,65,61
109080,note_off,120,0,1,,,,,,,,,0,,,70,0
109200,note_on,120,0,1,,,,,,,,,0,,,74,62
109200,note_off,120,0,2,,,,,,,,,1,,,65,0
109320,note_on,120,0,2,,,,,,,,,1,,,70,62
109320,note_off,120,0,1,,,,,,,,,0,,,74,0
109440,note_on,120,0,1,,,,,,,,,0,,,77,63
109440,note_off,120,0,2,,,,,,,,,1,,,70,0
109560,note_on,120,0,2,,,,,,,,,1,,,74,63
109560,note_off,120,0,1,,,,,,,,,0,,,77,0
109680,note_off,120,0,2,,,,,,,,,1,,,74,0
109680,note_on,120,0,1,,,,,,,,,0,,,82,64
109800,note_on,120,0,2,,,,,,,,,1,,,77,65
109800,note_off,120,0,1,,,,,,,,,0,,,82,0
109920,note_on,120,0,1,,,,,,,,,0,,,74,65
109920,note_off,120,0,2,,,,,,,,,1,,,77,0
110040,note_off,120,0,1,,,,,,,,,0,,,74,0
110040,note_on,120,0,2,,,,,,,,,1,,,70,66
110160,note_on,120,0,1,,,,,,,,,0,,,77,66
110160,note_off,120,0,2,,,,,,,,,1,,,70,0
110280,note_off,120,0,1,,,,,,,,,0,,,77,0
110280,note_on,120,0,2,,,,,,,,,1,,,74,67
110400,note_on,120,0,1,,,,,,,,,0,,,82,67
110400,note_off,120,0,2,,,,,,,,,1,,,74,0
110520,note_off,120,0,1,,,,,,,,,0,,,82,0
110520,note_on,120,0,2,,,,,,,,,1,,,77,68
110640,note_on,120,0,1,,,,,,,,,0,,,86,69
110640,note_off,120,0,2,,,,,,,,,1,,,77,0
110760,note_on,120,0,2,,,,,,,,,1,,,82,69
110760,note_off,120,0,1,,,,,,,,,0,,,86,0
110760,set_tempo,4200,1,0,,,,,,422535,,,,,,,
110880,note_off,120,0,2,,,,,,,,,1,,,82,0
110880,note_on,120,0,1,,,,,,,,,0,,,89,70
110976,note_off,96,0,1,,,,,,,,,0,,,89,0
111000,control_change,120,0,2,,,,,,,64,0,1,,,,
111000,control_change,24,0,1,,,,,,,64,0,0,,,,
111120,note_on,4368,0,4,,,,,,,,,3,,,65,61
111120,note_on,120,0,1,,,,,,,,,0,,,77,72
111216,note_off,96,0,4,,,,,,,,,3,,,65,0
111216,note_off,96,0,1,,,,,,,,,0,,,77,0
111360,note_on,144,0,4,,,,,,,,,3,,,70,62
111360,note_on,144,0,1,,,,,,,,,0,,,82,73
111456,note_off,96,0,1,,,,,,,,,0,,,82,0
111456,note_off,96,0,4,,,,,,,,,3,,,70,0
111600,note_on,144,0,1,,,,,,,,,0,,,86,74
111600,note_on,144,0,4,,,,,,,,,3,,,74,63
111696,note_off,96,0,1,,,,,,,,,0,,,86,0
111696,note_off,96,0,4,,,,,,,,,3,,,74,0
111840,note_on,144,0,1,,,,,,,,,0,,,89,75
111840,note_on,144,0,4,,,,,,,,,3,,,77,64
111936,note_off,96,0,4,,,,,,,,,3,,,77,0
111936,note_off,96,0,1,,,,,,,,,0,,,89,0
112080,note_on,144,0,1,,,,,,,,,0,,,65,76
112176,note_off,96,0,1,,,,,,,,,0,,,65,0
112320,note_on,144,0,1,,,,,,,,,0,,,70,78
112416,note_off,96,0,1,,,,,,,,,0,,,70,0
112560,note_on,144,0,1,,,,,,,,,0,,,74,79
112656,note_off,96,0,1,,,,,,,,,0,,,74,0
112800,note_on,144,0,1,,,,,,,,,0,,,77,80
112896,note_off,96,0,1,,,,,,,,,0,,,77,0
113040,note_on,1104,0,4,,,,,,,,,3,,,41,79
113040,note_on,144,0,1,,,,,,,,,0,,,53,81
113136,note_off,96,0,1,,,,,,,,,0,,,53,0
113136,note_off,96,0,4,,,,,,,,,3,,,41,0
113280,note_on,144,0,4,,,,,,,,,3,,,46,76
113280,note_on,144,0,1,,,,,,,,,0,,,58,76
113376,note_off,96,0,4,,,,,,,,,3,,,46,0
113376,note_off,96,0,1,,,,,,,,,0,,,58,0
113520,note_on,144,0,4,,,,,,,,,3,,,50,74
113520,note_on,144,0,1,,,,,,,,,0,,,62,71
113616,note_off,96,0,1,,,,,,,,,0,,,62,0
113616,note_off,96,0,4,,,,,,,,,3,,,50,0
113760,note_on,144,0,1,,,,,,,,,0,,,65,65
113760,note_on,144,0,4,,,,,,,,,3,,,53,71
113856,note_off,96,0,1,,,,,,,,,0,,,65,0
114000,note_on,144,0,1,,,,,,,,,0,,,70,60
114096,note_off,96,0,1,,,,,,,,,0,,,70,0
114240,note_on,144,0,1,,,,,,,,,0,,,74,55
114240,note_off,480,0,4,,,,,,,,,3,,,53,0
114336,note_off,96,0,1,,,,,,,,,0,,,74,0
114480,note_on,144,0,1,,,,,,,,,0,,,77,50
114576,note_off,96,0,1,,,,,,,,,0,,,77,0
114720,note_on,144,0,1,,,,,,,,,0,,,75,45
114816,note_off,96,0,1,,,,,,,,,0,,,75,0
114840,set_tempo,4080,1,0,,,,,,428571,,,,,,,
114960,note_on,144,0,1,,,,,,,,,0,,,74,40
115056,note_off,96,0,1,,,,,,,,,0,,,74,0
115080,set_tempo,240,1,0,,,,,,444444,,,,,,,
115200,note_on,144,0,1,,,,,,,,,0,,,72,37
115260,set_tempo,180,1,0,,,,,,416666,,,,,,,
115280,note_off,80,0,1,,,,,,,,,0,,,72,0
115280,note_on,0,0,1,,,,,,,,,0,,,74,37
115360,note_off,80,0,1,,,,,,,,,0,,,74,0
115360,note_on,0,0,1,,,,,,,,,0,,,72,38
115440,note_on,1200,0,4,,,,,,,,,3,,,53,37
115440,note_off,80,0,1,,,,,,,,,0,,,72,0
115440,note_on,0,0,1,,,,,,,,,0,,,74,38
115520,note_off,80,0,1,,,,,,,,,0,,,74,0
115520,note_on,0,0,1,,,,,,,,,0,,,72,39
115536,note_off,96,0,4,,,,,,,,,3,,,53,0
115600,note_off,80,0,1,,,,,,,,,0,,,72,0
115600,note_on,0,0,1,,,,,,,,,0,,,74,40
115680,note_on,144,0,4,,,,,,,,,3,,,57,39
115680,note_off,80,0,1,,,,,,,,,0,,,74,0
115680,note_on,0,0,1,,,,,,,,,0,,,72,40
115760,note_off,80,0,1,,,,,,,,,0,,,72,0
115760,note_on,0,0,1,,,,,,,,,0,,,74,41
115776,note_off,96,0,4,,,,,,,,,3,,,57,0
115840,note_off,80,0,1,,,,,,,,,0,,,74,0
115840,note_on,0,0,1,,,,,,,,,0,,,72,41
115920,note_on,0,0,1,,,,,,,,,0,,,74,42
115920,note_on,144,0,4,,,,,,,,,3,,,60,40
115920,note_off,80,0,1,,,,,,,,,0,,,72,0
116000,note_on,0,0,1,,,,,,,,,0,,,72,42
116000,note_off,80,0,1,,,,,,,,,0,,,74,0
116016,note_off,96,0,4,,,,,,,,,3,,,60,0
116080,note_off,80,0,1,,,,,,,,,0,,,72,0
116080,note_on,0,0,1,,,,,,,,,0,,,74,43
116160,note_off,80,0,1,,,,,,,,,0,,,74,0
116160,note_on,0,0,1,,,,,,,,,0,,,72,43
116160,note_on,144,0,4,,,,,,,,,3,,,63,42
116240,note_off,80,0,1,,,,,,,,,0,,,72,0
116240,note_on,0,0,1,,,,,,,,,0,,,74,44
116256,note_off,96,0,4,,,,,,,,,3,,,63,0
116320,note_off,80,0,1,,,,,,,,,0,,,74,0
116320,note_on,0,0,1,,,,,,,,,0,,,72,45
116400,note_on,144,0,4,,,,,,,,,3,,,41,44
116400,note_on,0,0,1,,,,,,,,,0,,,74,45
116400,note_off,80,0,1,,,,,,,,,0,,,72,0
116480,note_off,80,0,1,,,,,,,,,0,,,74,0
116480,note_on,0,0,1,,,,,,,,,0,,,72,46
116496,note_off,96,0,4,,,,,,,,,3,,,41,0
116560,note_off,80,0,1,,,,,,,,,0,,,72,0
116560,note_on,0,0,1,,,,,,,,,0,,,74,46
116640,note_on,144,0,4,,,,,,,,,3,,,45,46
116640,note_on,0,0,1,,,,,,,,,0,,,72,47
116640,note_off,80,0,1,,,,,,,,,0,,,74,0
116720,note_off,80,0,1,,,,,,,,,0,,,72,0
116720,note_on,0,0,1,,,,,,,,,0,,,74,47
116736,note_off,96,0,4,,,,,,,,,3,,,45,0
116800,note_on,0,0,1,,,,,,,,,0,,,72,48
116800,note_off,80,0,1,,,,,,,,,0,,,74,0
116880,note_on,0,0,1,,,,,,,,,0,,,74,49
116880,note_on,144,0,4,,,,,,,,,3,,,48,47
116880,note_off,80,0,1,,,,,,,,,0,,,72,0
116960,note_on,0,0,1,,,,,,,,,0,,,72,49
116960,note_off,80,0,1,,,,,,,,,0,,,74,0
116976,note_off,96,0,4,,,,,,,,,3,,,48,0
117040,note_off,80,0,1,,,,,,,,,0,,,72,0
117040,note_on,0,0,1,,,,,,,,,0,,,74,50
117120,note_on,144,0,4,,,,,,,,,3,,,51,49
117120,note_off,80,0,1,,,,,,,,,0,,,74,0
117120,note_on,0,0,1,,,,,,,,,0,,,72,50
117200,note_off,80,0,1,,,,,,,,,0,,,72,0
117200,note_on,0,0,1,,,,,,,,,0,,,74,51
117216,note_off,96,0,4,,,,,,,,,3,,,51,0
117280,note_off,80,0,1,,,,,,,,,0,,,74,0
117280,note_on,0,0,1,,,,,,,,,0,,,72,51
117360,note_off,80,0,1,,,,,,,,,0,,,72,0
117360,note_on,0,0,1,,,,,,,,,0,,,74,52
117360,note_on,144,0,4,,,,,,,,,3,,,42,51
117440,note_on,0,0,1,,,,,,,,,0,,,72,52
117440,note_off,80,0,1,,,,,,,,,0,,,74,0
117456,note_off,96,0,4,,,,,,,,,3,,,42,0
117520,note_off,80,0,1,,,,,,,,,0,,,72,0
117520,note_on,0,0,1,,,,,,,,,0,,,74,53
117600,note_on,144,0,4,,,,,,,,,3,,,45,53
117600,note_on,0,0,1,,,,,,,,,0,,,72,54
117600,note_off,80,0,1,,,,,,,,,0,,,74,0
117680,note_on,0,0,1,,,,,,,,,0,,,74,54
117680,note_off,80,0,1,,,,,,,,,0,,,72,0
117696,note_off,96,0,4,,,,,,,,,3,,,45,0
117760,note_on,0,0,1,,,,,,,,,0,,,72,55
117760,note_off,80,0,1,,,,,,,,,0,,,74,0
117840,note_on,0,0,1,,,,,,,,,0,,,74,55
117840,note_off,80,0,1,,,,,,,,,0,,,72,0
117840,note_on,144,0,4,,,,,,,,,3,,,48,54
117920,note_on,0,0,1,,,,,,,,,0,,,72,56
117920,note_off,80,0,1,,,,,,,,,0,,,74,0
117936,note_off,96,0,4,,,,,,,,,3,,,48,0
118000,note_on,0,0,1,,,,,,,,,0,,,74,56
118000,note_off,80,0,1,,,,,,,,,0,,,72,0
118080,note_on,0,0,1,,,,,,,,,0,,,72,57
118080,note_off,80,0,1,,,,,,,,,0,,,74,0
118080,note_on,144,0,4,,,,,,,,,3,,,51,56
118160,note_on,0,0,1,,,,,,,,,0,,,74,58
118160,note_off,80,0,1,,,,,,,,,0,,,72,0
118176,note_off,96,0,4,,,,,,,,,3,,,51,0
118240,note_off,80,0,1,,,,,,,,,0,,,74,0
118240,note_on,0,0,1,,,,,,,,,0,,,72,58
118320,note_on,0,0,1,,,,,,,,,0,,,74,59
118320,note_off,80,0,1,,,,,,,,,0,,,72,0
118320,note_on,144,0,4,,,,,,,,,3,,,41,58
118400,note_on,0,0,1,,,,,,,,,0,,,72,59
118400,note_off,80,0,1,,,,,,,,,0,,,74,0
118416,note_off,96,0,4,,,,,,,,,3,,,41,0
118480,note_off,80,0,1,,,,,,,,,0,,,72,0
118480,note_on,0,0,1,,,,,,,,,0,,,74,60
118560,note_on,144,0,4,,,,,,,,,3,,,45,59
118560,note_on,0,0,1,,,,,,,,,0,,,72,60
118560,note_off,80,0,1,,,,,,,,,0,,,74,0
118640,note_on,0,0,1,,,,,,,,,0,,,74,61
118640,note_off,80,0,1,,,,,,,,,0,,,72,0
118656,note_off,96,0,4,,,,,,,,,3,,,45,0
118720,note_on,0,0,1,,,,,,,,,0,,,72,61
118720,note_off,80,0,1,,,,,,,,,0,,,74,0
118800,note_on,144,0,4,,,,,,,,,3,,,48,61
118800,note_off,80,0,1,,,,,,,,,0,,,72,0
118800,note_on,0,0,1,,,,,,,,,0,,,74,62
118880,note_off,80,0,1,,,,,,,,,0,,,74,0
118880,note_on,0,0,1,,,,,,,,,0,,,72,63
118896,note_off,96,0,4,,,,,,,,,3,,,48,0
118960,note_on,0,0,1,,,,,,,,,0,,,74,63
118960,note_off,80,0,1,,,,,,,,,0,,,72,0
119040,note_on,0,0,1,,,,,,,,,0,,,72,64
119040,note_on,144,0,4,,,,,,,,,3,,,51,63
119040,note_off,80,0,1,,,,,,,,,0,,,74,0
119120,note_on,0,0,1,,,,,,,,,0,,,74,64
119120,note_off,80,0,1,,,,,,,,,0,,,72,0
119136,note_off,96,0,4,,,,,,,,,3,,,51,0
119200,note_on,0,0,1,,,,,,,,,0,,,72,65
119200,note_off,80,0,1,,,,,,,,,0,,,74,0
119280,note_on,0,0,1,,,,,,,,,0,,,74,65
119280,note_on,144,0,4,,,,,,,,,3,,,53,65
119280,note_off,80,0,1,,,,,,,,,0,,,72,0
119360,note_on,0,0,1,,,,,,,,,0,,,72,66
119360,note_off,80,0,1,,,,,,,,,0,,,74,0
119376,note_off,96,0,4,,,,,,,,,3,,,53,0
119440,note_on,0,0,1,,,,,,,,,0,,,74,67
119440,note_off,80,0,1,,,,,,,,,0,,,72,0
119520,note_on,144,0,4,,,,,,,,,3,,,57,66
119520,note_off,80,0,1,,,,,,,,,0,,,74,0
119520,note_on,0,0,1,,,,,,,,,0,,,72,67
119600,note_off,80,0,1,,,,,,,,,0,,,72,0
119600,note_on,0,0,1,,,,,,,,,0,,,74,68
119616,note_off,96,0,4,,,,,,,,,3,,,57,0
119680,note_on,0,0,1,,,,,,,,,0,,,72,68
119680,note_off,80,0,1,,,,,,,,,0,,,74,0
119760,note_on,144,0,4,,,,,,,,,3,,,60,68
119760,note_on,0,0,1,,,,,,,,,0,,,74,69
119760,note_off,80,0,1,,,,,,,,,0,,,72,0
119840,note_off,80,0,1,,,,,,,,,0,,,74,0
119840,note_on,0,0,1,,,,,,,,,0,,,72,69
119856,note_off,96,0,4,,,,,,,,,3,,,60,0
119920,note_off,80,0,1,,,,,,,,,0,,,72,0
119920,note_on,0,0,1,,,,,,,,,0,,,74,70
120000,note_on,144,0,4,,,,,,,,,3,,,63,70
120000,note_off,80,0,1,,,,,,,,,0,,,74,0
120000,note_on,0,0,1,,,,,,,,,0,,,72,71
120080,note_on,0,0,1,,,,,,,,,0,,,74,71
120080,note_off,80,0,1,,,,,,,,,0,,,72,0
120096,note_off,96,0,4,,,,,,,,,3,,,63,0
120160,note_off,80,0,1,,,,,,,,,0,,,74,0
120160,note_on,0,0,1,,,,,,,,,0,,,72,72
120240,note_off,80,0,1,,,,,,,,,0,,,72,0
120240,note_on,0,0,1,,,,,,,,,0,,,71,72
120240,note_on,144,0,4,,,,,,,,,3,,,53,72
120336,note_off,96,0,4,,,,,,,,,3,,,53,0
120360,note_off,120,0,1,,,,,,,,,0,,,71,0
120360,note_on,0,0,1,,,,,,,,,0,,,72,73
120360,set_tempo,5100,1,0,,,,,,422535,,,,,,,
120480,note_on,144,0,4,,,,,,,,,3,,,63,73
120480,note_on,0,0,1,,,,,,,,,0,,,77,74
120480,note_off,120,0,1,,,,,,,,,0,,,72,0
120576,note_off,96,0,4,,,,,,,,,3,,,63,0
120600,note_off,120,0,1,,,,,,,,,0,,,77,0
120720,note_on,144,0,4,,,,,,,,,3,,,53,75
120720,set_tempo,360,1,0,,,,,,465116,,,,,,,
120720,note_on,120,0,1,,,,,,,,,0,,,77,76
120816,note_off,96,0,4,,,,,,,,,3,,,53,0
120840,note_off,120,0,1,,,,,,,,,0,,,77,0
120960,note_on,120,0,1,,,,,,,,,0,,,70,77
120960,set_tempo,240,1,0,,,,,,444444,,,,,,,
120960,note_on,0,0,4,,,,,,,,,3,,,58,77
120960,note_on,144,0,4,,,,,,,,,3,,,62,77
121080,set_tempo,120,1,0,,,,,,422535,,,,,,,
121080,note_off,120,0,1,,,,,,,,,0,,,70,0
121200,set_tempo,120,1,0,,,,,,416666,,,,,,,
121200,note_on,120,0,1,,,,,,,,,0,,,70,44
121440,note_on,0,0,1,,,,,,,,,0,,,71,46
121440,note_off,240,0,1,,,,,,,,,0,,,70,0
121440,note_off,0,0,4,,,,,,,,,3,,,62,0
121440,note_off,480,0,4,,,,,,,,,3,,,58,0
121680,note_on,0,0,1,,,,,,,,,0,,,72,48
121680,note_off,240,0,1,,,,,,,,,0,,,71,0
121920,note_on,0,0,1,,,,,,,,,0,,,73,49
121920,note_off,240,0,1,,,,,,,,,0,,,72,0
122160,note_on,0,0,1,,,,,,,,,0,,,74,51
122160,note_off,240,0,1,,,,,,,,,0,,,73,0
122280,set_tempo,1080,1,0,,,,,,422535,,,,,,,
122400,note_on,26400,0,3,,,,,,,,,2,,,58,51
122400,note_on,0,0,1,,,,,,,,,0,,,75,53
122400,note_off,240,0,1,,,,,,,,,0,,,74,0
122400,note_on,960,0,4,,,,,,,,,3,,,55,51
122400,set_tempo,120,1,0,,,,,,416666,,,,,,,
123840,note_off,1440,0,4,,,,,,,,,3,,,55,0
123840,note_off,1440,0,3,,,,,,,,,2,,,58,0
123840,note_on,0,0,3,,,,,,,,,2,,,60,47
123840,note_on,0,0,1,,,,,,,,,0,,,67,47
123840,note_off,1440,0,1,,,,,,,,,0,,,75,0
123840,note_on,0,0,4,,,,,,,,,3,,,51,47
125160,set_tempo,2760,1,0,,,,,,422535,,,,,,,
125280,note_off,1440,0,1,,,,,,,,,0,,,67,0
125280,note_off,1440,0,3,,,,,,,,,2,,,60,0
125280,note_on,0,0,3,,,,,,,,,2,,,60,42
125280,note_on,0,0,1,,,,,,,,,0,,,70,40
125280,note_on,0,0,4,,,,,,,,,3,,,53,42
125280,note_off,1440,0,4,,,,,,,,,3,,,51,0
125280,note_on,14280,0,2,,,,,,,,,1,,,63,40
125280,set_tempo,120,1,0,,,,,,416666,,,,,,,
125520,note_off,240,0,1,,,,,,,,,0,,,70,0
125520,note_on,0,0,1,,,,,,,,,0,,,69,39
125640,note_off,360,0,4,,,,,,,,,3,,,53,0
125640,note_off,360,0,3,,,,,,,,,2,,,60,0
125640,note_off,360,0,2,,,,,,,,,1,,,63,0
125760,note_on,0,0,1,,,,,,,,,0,,,69,38
125760,note_on,120,0,2,,,,,,,,,1,,,63,38
125760,note_on,120,0,3,,,,,,,,,2,,,60,41
125760,note_on,120,0,4,,,,,,,,,3,,,53,41
125760,note_off,240,0,1,,,,,,,,,0,,,69,0
126000,note_off,240,0,1,,,,,,,,,0,,,69,0
126000,note_on,0,0,1,,,,,,,,,0,,,67,37
126120,note_off,360,0,2,,,,,,,,,1,,,63,0
126120,note_off,360,0,4,,,,,,,,,3,,,53,0
126120,note_off,360,0,3,,,,,,,,,2,,,60,0
126180,note_on,180,0,1,,,,,,,,,0,,,70,36
126240,note_off,60,0,1,,,,,,,,,0,,,70,0
126240,note_on,120,0,2,,,,,,,,,1,,,63,36
126240,note_on,0,0,1,,,,,,,,,0,,,69,36
126240,note_off,0,0,1,,,,,,,,,0,,,67,0
126240,note_on,120,0,4,,,,,,,,,3,,,53,39
126240,note_on,120,0,3,,,,,,,,,2,,,60,39
126480,note_on,0,0,1,,,,,,,,,0,,,72,35
126480,note_on,0,0,3,,,,,,,,,2,,,57,39
126480,note_off,240,0,3,,,,,,,,,2,,,60,0
126480,note_off,240,0,1,,,,,,,,,0,,,69,0
126600,set_tempo,1320,1,0,,,,,,422535,,,,,,,
126600,note_off,360,0,4,,,,,,,,,3,,,53,0
126600,note_off,360,0,2,,,,,,,,,1,,,63,0
126720,note_on,120,0,4,,,,,,,,,3,,,46,41
126720,note_off,240,0,3,,,,,,,,,2,,,57,0
126720,note_on,0,0,3,,,,,,,,,2,,,58,41
126720,note_on,0,0,1,,,,,,,,,0,,,70,36
126720,note_off,240,0,1,,,,,,,,,0,,,72,0
126720,note_on,120,0,2,,,,,,,,,1,,,62,36
126850,set_tempo,250,1,0,,,,,,416666,,,,,,,
126960,note_on,240,0,4,,,,,,,,,3,,,58,47
126960,note_off,240,0,3,,,,,,,,,2,,,58,0
126960,note_on,0,0,1,,,,,,,,,0,,,70,44
126960,note_off,240,0,1,,,,,,,,,0,,,70,0
127080,note_off,360,0,2,,,,,,,,,1,,,62,0
127080,note_off,120,0,4,,,,,,,,,3,,,46,0
127200,note_on,0,0,1,,,,,,,,,0,,,71,51
127200,note_on,0,0,4,,,,,,,,,3,,,59,52
127200,note_off,120,0,4,,,,,,,,,3,,,58,0
127200,note_off,240,0,1,,,,,,,,,0,,,70,0
127440,note_off,240,0,1,,,,,,,,,0,,,71,0
127440,note_on,0,0,4,,,,,,,,,3,,,60,57
127440,note_on,0,0,1,,,,,,,,,0,,,72,58
127440,note_off,240,0,4,,,,,,,,,3,,,59,0
127680,note_on,0,0,4,,,,,,,,,3,,,61,63
127680,note_off,240,0,4,,,,,,,,,3,,,60,0
127680,note_on,0,0,1,,,,,,,,,0,,,73,66
127680,note_off,240,0,1,,,,,,,,,0,,,72,0
127920,note_on,0,0,1,,,,,,,,,0,,,74,73
127920,note_off,240,0,4,,,,,,,,,3,,,61,0
127920,note_on,0,0,4,,,,,,,,,3,,,62,68
127920,note_off,240,0,1,,,,,,,,,0,,,73,0
128040,set_tempo,1190,1,0,,,,,,422535,,,,,,,
128160,note_on,0,0,1,,,,,,,,,0,,,75,81
128160,note_off,240,0,1,,,,,,,,,0,,,74,0
128160,note_off,240,0,4,,,,,,,,,3,,,62,0
128160,note_on,0,0,4,,,,,,,,,3,,,63,73
128160,set_tempo,120,1,0,,,,,,416666,,,,,,,
129600,set_tempo,1440,1,0,,,,,,428571,,,,,,,
129600,note_on,0,0,4,,,,,,,,,3,,,51,62
129600,note_off,1440,0,4,,,,,,,,,3,,,63,0
129600,note_on,2640,0,3,,,,,,,,,2,,,55,62
129600,note_off,1440,0,1,,,,,,,,,0,,,75,0
129600,note_on,2520,0,2,,,,,,,,,1,,,63,66
129600,note_on,0,0,1,,,,,,,,,0,,,67,66
130545,set_tempo,945,1,0,,,,,,444444,,,,,,,
130560,note_on,0,0,1,,,,,,,,,0,,,68,56
130560,note_off,960,0,1,,,,,,,,,0,,,67,0
130560,note_on,0,0,3,,,,,,,,,2,,,56,55
130560,note_off,960,0,3,,,,,,,,,2,,,55,0
130800,set_tempo,255,1,0,,,,,,495867,,,,,,,
130800,note_off,240,0,3,,,,,,,,,2,,,56,0
130800,note_off,240,0,1,,,,,,,,,0,,,68,0
130800,note_on,0,0,1,,,,,,,,,0,,,70,54
130800,note_on,0,0,3,,,,,,,,,2,,,58,54
131040,note_off,1440,0,4,,,,,,,,,3,,,51,0
131040,note_on,0,0,4,,,,,,,,,3,,,44,52
131040,note_off,240,0,3,,,,,,,,,2,,,58,0
131040,note_off,1440,0,2,,,,,,,,,1,,,63,0
131040,note_on,0,0,2,,,,,,,,,1,,,63,51
131040,note_on,0,0,2,,,,,,,,,1,,,60,51
131040,note_on,0,0,3,,,,,,,,,2,,,51,52
131040,note_on,0,0,3,,,,,,,,,2,,,56,52
131040,note_on,0,0,3,,,,,,,,,2,,,53,52
131040,set_tempo,240,1,0,,,,,,416666,,,,,,,
131040,control_change,240,0,1,,,,,,,64,127,0,,,,
131040,note_off,0,0,1,,,,,,,,,0,,,70,0
131040,note_on,0,0,1,,,,,,,,,0,,,72,51
131400,note_off,360,0,1,,,,,,,,,0,,,72,0
131400,note_on,0,0,1,,,,,,,,,0,,,65,51
131520,note_off,120,0,1,,,,,,,,,0,,,65,0
131520,note_on,0,0,1,,,,,,,,,0,,,65,50
131880,control_change,360,0,1,,,,,,,64,0,0,,,,
131880,note_off,0,0,1,,,,,,,,,0,,,65,0
131880,note_off,840,0,3,,,,,,,,,2,,,53,0
131880,note_off,0,0,3,,,,,,,,,2,,,56,0
131887,note_off,847,0,2,,,,,,,,,1,,,60,0
131887,note_off,0,0,2,,,,,,,,,1,,,63,0
131887,note_off,7,0,3,,,,,,,,,2,,,51,0
131887,note_off,847,0,4,,,,,,,,,3,,,44,0
131970,set_tempo,930,1,0,,,,,,428571,,,,,,,
132480,note_on,0,0,1,,,,,,,,,0,,,72,48
132480,note_on,593,0,2,,,,,,,,,1,,,63,48
132480,note_on,593,0,4,,,,,,,,,3,,,44,47
132480,note_on,0,0,2,,,,,,,,,1,,,60,48
132480,note_on,0,0,3,,,,,,,,,2,,,53,47
132480,note_on,0,0,3,,,,,,,,,2,,,56,47
132480,control_change,600,0,1,,,,,,,64,127,0,,,,
132480,note_on,593,0,3,,,,,,,,,2,,,51,47
132480,set_tempo,510,1,0,,,,,,425531,,,,,,,
132840,note_off,360,0,1,,,,,,,,,0,,,72,0
132840,note_on,0,0,1,,,,,,,,,0,,,65,47
132960,note_off,120,0,1,,,,,,,,,0,,,65,0
132960,note_on,0,0,1,,,,,,,,,0,,,65,46
133305,note_off,825,0,4,,,,,,,,,3,,,44,0
133320,note_off,0,0,2,,,,,,,,,1,,,63,0
133320,note_off,840,0,2,,,,,,,,,1,,,60,0
133320,note_off,840,0,3,,,,,,,,,2,,,53,0
133320,note_off,0,0,1,,,,,,,,,0,,,65,0
133320,control_change,360,0,1,,,,,,,64,0,0,,,,
133327,note_off,7,0,3,,,,,,,,,2,,,56,0
133327,note_off,0,0,3,,,,,,,,,2,,,51,0
133440,set_tempo,960,1,0,,,,,,441176,,,,,,,
133920,note_on,593,0,3,,,,,,,,,2,,,60,38
133920,note_on,0,0,3,,,,,,,,,2,,,63,38
133920,note_on,0,0,3,,,,,,,,,2,,,36,42
133920,note_on,0,0,3,,,,,,,,,2,,,44,42
133920,note_on,615,0,4,,,,,,,,,3,,,32,42
133920,set_tempo,480,1,0,,,,,,441176,,,,,,,
133920,note_on,0,0,3,,,,,,,,,2,,,53,38
133920,note_on,600,0,1,,,,,,,,,0,,,65,38
134208,note_off,288,0,4,,,,,,,,,3,,,32,0
134208,note_off,288,0,3,,,,,,,,,2,,,36,0
134208,note_off,0,0,3,,,,,,,,,2,,,44,0
134208,note_off,0,0,3,,,,,,,,,2,,,53,0
134208,note_off,0,0,3,,,,,,,,,2,,,63,0
134208,note_off,0,0,3,,,,,,,,,2,,,60,0
134208,note_off,288,0,1,,,,,,,,,0,,,65,0
134400,note_on,192,0,1,,,,,,,,,0,,,65,40
134400,note_on,192,0,3,,,,,,,,,2,,,53,40
134400,note_on,0,0,3,,,,,,,,,2,,,36,45
134400,note_on,0,0,3,,,,,,,,,2,,,60,40
134400,note_on,0,0,3,,,,,,,,,2,,,63,40
134400,note_on,0,0,3,,,,,,,,,2,,,44,45
134400,note_on,192,0,4,,,,,,,,,3,,,32,45
134655,set_tempo,735,1,0,,,,,,447761,,,,,,,
134688,note_off,288,0,3,,,,,,,,,2,,,44,0
134688,note_off,0,0,3,,,,,,,,,2,,,36,0
134688,note_off,0,0,3,,,,,,,,,2,,,63,0
134688,note_off,288,0,1,,,,,,,,,0,,,65,0
134688,note_off,0,0,3,,,,,,,,,2,,,60,0
134688,note_off,288,0,4,,,,,,,,,3,,,32,0
134688,note_off,0,0,3,,,,,,,,,2,,,53,0
134880,note_on,0,0,3,,,,,,,,,2,,,44,47
134880,note_on,0,0,3,,,,,,,,,2,,,36,47
134880,note_on,0,0,3,,,,,,,,,2,,,60,43
134880,note_on,0,0,3,,,,,,,,,2,,,63,43
134880,note_on,192,0,3,,,,,,,,,2,,,53,43
134880,note_on,192,0,4,,,,,,,,,3,,,32,47
134880,note_on,192,0,1,,,,,,,,,0,,,65,43
134910,set_tempo,255,1,0,,,,,,508474,,,,,,,
135168,note_off,288,0,1,,,,,,,,,0,,,65,0
135168,note_off,288,0,3,,,,,,,,,2,,,44,0
135168,note_off,0,0,3,,,,,,,,,2,,,36,0
135168,note_off,0,0,3,,,,,,,,,2,,,60,0
135168,note_off,0,0,3,,,,,,,,,2,,,63,0
135168,note_off,0,0,3,,,,,,,,,2,,,53,0
135168,note_off,288,0,4,,,,,,,,,3,,,32,0
135360,note_on,192,0,4,,,,,,,,,3,,,32,50
135360,note_on,0,0,3,,,,,,,,,2,,,36,50
135360,note_on,192,0,1,,,,,,,,,0,,,66,46
135360,note_on,0,0,3,,,,,,,,,2,,,44,50
135360,note_on,0,0,3,,,,,,,,,2,,,63,46
135360,note_on,0,0,3,,,,,,,,,2,,,60,46
135360,note_on,192,0,3,,,,,,,,,2,,,54,46
135360,set_tempo,450,1,0,,,,,,674157,,,,,,,
136680,note_off,0,0,3,,,,,,,,,2,,,60,0
136680,note_off,1320,0,3,,,,,,,,,2,,,63,0
136687,note_off,1327,0,1,,,,,,,,,0,,,66,0
136687,note_off,7,0,3,,,,,,,,,2,,,36,0
136687,note_off,0,0,3,,,,,,,,,2,,,44,0
136687,note_off,0,0,3,,,,,,,,,2,,,54,0
136687,note_off,1327,0,4,,,,,,,,,3,,,32,0
136800,note_on,0,0,3,,,,,,,,,2,,,44,57
136800,note_on,113,0,3,,,,,,,,,2,,,60,53
136800,note_on,0,0,3,,,,,,,,,2,,,36,57
136800,note_on,0,0,3,,,,,,,,,2,,,63,53
136800,note_on,113,0,1,,,,,,,,,0,,,65,53
136800,note_on,113,0,4,,,,,,,,,3,,,32,57
136800,set_tempo,1440,1,0,,,,,,447761,,,,,,,
136800,note_on,0,0,3,,,,,,,,,2,,,53,53
137088,note_off,0,0,3,,,,,,,,,2,,,53,0
137088,note_off,0,0,3,,,,,,,,,2,,,63,0
137088,note_off,0,0,3,,,,,,,,,2,,,44,0
137088,note_off,0,0,3,,,,,,,,,2,,,60,0
137088,note_off,288,0,3,,,,,,,,,2,,,36,0
137088,note_off,288,0,4,,,,,,,,,3,,,32,0
137088,note_off,288,0,1,,,,,,,,,0,,,65,0
137280,note_on,192,0,3,,,,,,,,,2,,,63,56
137280,note_on,0,0,3,,,,,,,,,2,,,53,56
137280,note_on,0,0,3,,,,,,,,,2,,,60,56
137280,note_on,0,0,3,,,,,,,,,2,,,36,60
137280,note_on,0,0,3,,,,,,,,,2,,,44,60
137280,note_on,192,0,1,,,,,,,,,0,,,65,56
137280,note_on,192,0,4,,,,,,,,,3,,,32,60
137475,set_tempo,675,1,0,,,,,,454545,,,,,,,
137568,note_off,288,0,3,,,,,,,,,2,,,44,0
137568,note_off,288,0,1,,,,,,,,,0,,,65,0
137568,note_off,0,0,3,,,,,,,,,2,,,36,0
137568,note_off,288,0,4,,,,,,,,,3,,,32,0
137568,note_off,0,0,3,,,,,,,,,2,,,60,0
137568,note_off,0,0,3,,,,,,,,,2,,,53,0
137568,note_off,0,0,3,,,,,,,,,2,,,63,0
137745,set_tempo,270,1,0,,,,,,560747,,,,,,,
137760,note_on,0,0,3,,,,,,,,,2,,,44,63
137760,note_on,0,0,3,,,,,,,,,2,,,36,63
137760,note_on,192,0,4,,,,,,,,,3,,,32,63
137760,note_on,0,0,3,,,,,,,,,2,,,60,58
137760,note_on,0,0,3,,,,,,,,,2,,,53,58
137760,note_on,192,0,3,,,,,,,,,2,,,63,58
137760,note_on,192,0,1,,,,,,,,,0,,,65,58
138048,note_off,288,0,1,,,,,,,,,0,,,65,0
138048,note_off,0,0,3,,,,,,,,,2,,,53,0
138048,note_off,0,0,3,,,,,,,,,2,,,60,0
138048,note_off,0,0,3,,,,,,,,,2,,,36,0
138048,note_off,288,0,3,,,,,,,,,2,,,44,0
138048,note_off,0,0,3,,,,,,,,,2,,,63,0
138048,note_off,288,0,4,,,,,,,,,3,,,32,0
138240,note_on,0,0,3,,,,,,,,,2,,,43,65
138240,note_on,0,0,3,,,,,,,,,2,,,60,61
138240,note_on,0,0,3,,,,,,,,,2,,,63,61
138240,set_tempo,495,1,0,,,,,,582524,,,,,,,
138240,note_on,192,0,1,,,,,,,,,0,,,67,61
138240,note_on,0,0,3,,,,,,,,,2,,,36,65
138240,note_on,192,0,4,,,,,,,,,3,,,31,65
138240,note_on,192,0,3,,,,,,,,,2,,,55,61
139552,note_off,1312,0,3,,,,,,,,,2,,,63,0
139560,note_off,8,0,3,,,,,,,,,2,,,55,0
139560,note_off,1320,0,1,,,,,,,,,0,,,67,0
139567,note_off,7,0,3,,,,,,,,,2,,,36,0
139567,note_off,0,0,3,,,,,,,,,2,,,60,0
139567,note_off,1327,0,4,,,,,,,,,3,,,31,0
139575,note_off,8,0,3,,,,,,,,,2,,,43,0
139680,note_on,105,0,3,,,,,,,,,2,,,60,68
139680,note_on,0,0,3,,,,,,,,,2,,,63,68
139680,note_on,0,0,3,,,,,,,,,2,,,55,68
139680,note_on,113,0,4,,,,,,,,,3,,,31,73
139680,note_on,0,0,3,,,,,,,,,2,,,43,73
139680,set_tempo,1440,1,0,,,,,,461538,,,,,,,
139680,note_on,0,0,3,,,,,,,,,2,,,36,73
139680,note_on,120,0,1,,,,,,,,,0,,,67,68
139968,note_off,288,0,3,,,,,,,,,2,,,43,0
139968,note_off,0,0,3,,,,,,,,,2,,,36,0
139968,note_off,0,0,3,,,,,,,,,2,,,55,0
139968,note_off,0,0,3,,,,,,,,,2,,,63,0
139968,note_off,0,0,3,,,,,,,,,2,,,60,0
139968,note_off,288,0,1,,,,,,,,,0,,,67,0
139968,note_off,288,0,4,,,,,,,,,3,,,31,0
140160,note_on,0,0,3,,,,,,,,,2,,,36,75
140160,note_on,192,0,1,,,,,,,,,0,,,67,71
140160,note_on,192,0,3,,,,,,,,,2,,,55,71
140160,note_on,0,0,3,,,,,,,,,2,,,60,71
140160,note_on,0,0,3,,,,,,,,,2,,,43,75
140160,note_on,0,0,3,,,,,,,,,2,,,63,71
140160,note_on,192,0,4,,,,,,,,,3,,,31,75
140355,set_tempo,675,1,0,,,,,,465116,,,,,,,
140448,note_off,0,0,3,,,,,,,,,2,,,63,0
140448,note_off,288,0,3,,,,,,,,,2,,,36,0
140448,note_off,0,0,3,,,,,,,,,2,,,60,0
140448,note_off,0,0,3,,,,,,,,,2,,,43,0
140448,note_off,0,0,3,,,,,,,,,2,,,55,0
140448,note_off,288,0,1,,,,,,,,,0,,,67,0
140448,note_off,288,0,4,,,,,,,,,3,,,31,0
140625,set_tempo,270,1,0,,,,,,571428,,,,,,,
140640,note_on,192,0,3,,,,,,,,,2,,,55,73
140640,note_on,0,0,3,,,,,,,,,2,,,63,73
140640,note_on,0,0,3,,,,,,,,,2,,,60,73
140640,note_on,192,0,4,,,,,,,,,3,,,31,78
140640,note_on,0,0,3,,,,,,,,,2,,,36,78
140640,note_on,192,0,1,,,,,,,,,0,,,67,73
140640,note_on,0,0,3,,,,,,,,,2,,,43,78
140928,note_off,288,0,3,,,,,,,,,2,,,36,0
140928,note_off,0,0,3,,,,,,,,,2,,,60,0
140928,note_off,0,0,3,,,,,,,,,2,,,63,0
140928,note_off,0,0,3,,,,,,,,,2,,,55,0
140928,note_off,0,0,3,,,,,,,,,2,,,43,0
140928,note_off,288,0,4,,,,,,,,,3,,,31,0
140928,note_off,288,0,1,,,,,,,,,0,,,67,0
141120,note_on,0,0,3,,,,,,,,,2,,,36,87
141120,note_on,0,0,3,,,,,,,,,2,,,57,81
141120,note_on,192,0,4,,,,,,,,,3,,,30,87
141120,note_on,192,0,1,,,,,,,,,0,,,69,81
141120,note_on,0,0,3,,,,,,,,,2,,,60,81
141120,note_on,192,0,3,,,,,,,,,2,,,63,81
141120,set_tempo,495,1,0,,,,,,500000,,,,,,,
141120,note_on,0,0,3,,,,,,,,,2,,,42,87
141600,set_tempo,480,1,0,,,,,,416666,,,,,,,
141600,note_off,480,0,4,,,,,,,,,3,,,30,0
141600,note_off,0,0,3,,,,,,,,,2,,,36,0
141600,note_off,0,0,3,,,,,,,,,2,,,57,0
141600,note_off,0,0,3,,,,,,,,,2,,,60,0
141600,note_off,0,0,3,,,,,,,,,2,,,63,0
141600,note_off,480,0,3,,,,,,,,,2,,,42,0
141600,note_on,0,0,1,,,,,,,,,0,,,87,91
141600,note_off,0,0,1,,,,,,,,,0,,,69,0
141600,control_change,480,0,1,,,,,,,64,127,0,,,,
141960,note_on,0,0,1,,,,,,,,,0,,,81,89
141960,note_off,360,0,1,,,,,,,,,0,,,87,0
142080,note_on,0,0,1,,,,,,,,,0,,,81,88
142080,note_off,120,0,1,,,,,,,,,0,,,81,0
142320,set_tempo,720,1,0,,,,,,422535,,,,,,,
142440,control_change,360,0,1,,,,,,,64,0,0,,,,
142440,control_change,840,0,4,,,,,,,64,0,3,,,,
142440,note_off,0,0,1,,,,,,,,,0,,,81,0
142560,note_on,120,0,4,,,,,,,,,3,,,53,79
142560,note_on,960,0,3,,,,,,,,,2,,,59,79
142560,control_change,120,0,1,,,,,,,64,0,0,,,,
143040,note_on,0,0,1,,,,,,,,,0,,,68,83
143040,control_change,480,0,1,,,,,,,64,127,0,,,,
143040,note_off,480,0,4,,,,,,,,,3,,,53,0
143040,note_off,480,0,3,,,,,,,,,2,,,59,0
143400,note_on,0,0,1,,,,,,,,,0,,,62,81
143400,note_off,360,0,1,,,,,,,,,0,,,68,0
143520,note_off,120,0,1,,,,,,,,,0,,,62,0
143520,note_on,0,0,1,,,,,,,,,0,,,62,80
143775,set_tempo,1455,1,0,,,,,,425531,,,,,,,
143880,control_change,840,0,4,,,,,,,64,0,3,,,,
143880,note_off,0,0,1,,,,,,,,,0,,,62,0
143880,control_change,360,0,1,,,,,,,64,0,0,,,,
144000,note_on,960,0,3,,,,,,,,,2,,,43,71
144000,note_on,120,0,4,,,,,,,,,3,,,39,71
144000,control_change,120,0,1,,,,,,,64,0,0,,,,
144480,note_off,480,0,4,,,,,,,,,3,,,39,0
144480,note_on,0,0,1,,,,,,,,,0,,,55,74
144480,control_change,480,0,1,,,,,,,64,127,0,,,,
144480,note_off,480,0,3,,,,,,,,,2,,,43,0
144840,note_off,360,0,1,,,,,,,,,0,,,55,0
144840,note_on,0,0,1,,,,,,,,,0,,,48,72
144960,note_off,120,0,1,,,,,,,,,0,,,48,0
144960,note_on,0,0,1,,,,,,,,,0,,,48,71
145215,set_tempo,1440,1,0,,,,,,428571,,,,,,,
145320,control_change,840,0,4,,,,,,,64,0,3,,,,
145320,control_change,360,0,1,,,,,,,64,0,0,,,,
145320,note_off,0,0,1,,,,,,,,,0,,,48,0
145440,note_on,120,0,4,,,,,,,,,3,,,41,70
145440,control_change,120,0,1,,,,,,,64,0,0,,,,
145800,note_off,360,0,4,,,,,,,,,3,,,41,0
145800,note_on,0,0,4,,,,,,,,,3,,,35,67
145920,note_off,120,0,4,,,,,,,,,3,,,35,0
145920,note_on,0,0,4,,,,,,,,,3,,,35,66
146280,note_off,360,0,4,,,,,,,,,3,,,35,0
146295,set_tempo,1080,1,0,,,,,,480000,,,,,,,
146400,note_on,0,0,1,,,,,,,,,0,,,50,79
146400,note_on,960,0,1,,,,,,,,,0,,,53,79
146400,set_tempo,105,1,0,,,,,,500000,,,,,,,
146400,note_on,0,0,1,,,,,,,,,0,,,55,79
146400,control_change,120,0,4,,,,,,,64,0,3,,,,
146688,note_off,0,0,1,,,,,,,,,0,,,50,0
146688,note_off,288,0,1,,,,,,,,,0,,,55,0
146688,note_off,0,0,1,,,,,,,,,0,,,53,0
146880,set_tempo,480,1,0,,,,,,416666,,,,,,,
146880,note_on,480,0,4,,,,,,,,,3,,,36,72
147120,note_on,2640,0,3,,,,,,,,,2,,,48,43
147360,note_on,0,0,3,,,,,,,,,2,,,48,43
147360,note_off,240,0,3,,,,,,,,,2,,,48,0
147600,note_on,0,0,3,,,,,,,,,2,,,48,43
147600,note_off,240,0,3,,,,,,,,,2,,,48,0
147840,note_off,240,0,3,,,,,,,,,2,,,48,0
147840,note_on,0,0,3,,,,,,,,,2,,,48,43
148065,set_tempo,1185,1,0,,,,,,422535,,,,,,,
148080,note_off,240,0,3,,,,,,,,,2,,,48,0
148080,note_on,0,0,3,,,,,,,,,2,,,48,43
148260,note_on,1572,0,1,,,,,,,,,0,,,83,60
148320,note_on,0,0,4,,,,,,,,,3,,,60,55
148320,note_on,0,0,4,,,,,,,,,3,,,57,59
148320,note_on,0,0,1,,,,,,,,,0,,,84,60
148320,set_tempo,255,1,0,,,,,,416666,,,,,,,
148320,note_off,0,0,1,,,,,,,,,0,,,83,0
148320,note_on,0,0,3,,,,,,,,,2,,,48,43
148320,note_off,1440,0,4,,,,,,,,,3,,,36,0
148320,note_off,240,0,3,,,,,,,,,2,,,48,0
148320,control_change,60,0,1,,,,,,,64,127,0,,,,
148560,note_off,240,0,3,,,,,,,,,2,,,48,0
148560,note_on,0,0,3,,,,,,,,,2,,,48,43
148680,note_on,0,0,1,,,,,,,,,0,,,77,60
148680,note_off,360,0,1,,,,,,,,,0,,,84,0
148800,note_off,240,0,3,,,,,,,,,2,,,48,0
148800,note_on,0,0,3,,,,,,,,,2,,,48,43
148800,note_off,120,0,1,,,,,,,,,0,,,77,0
148800,note_on,0,0,1,,,,,,,,,0,,,77,60
149040,note_off,240,0,3,,,,,,,,,2,,,48,0
149040,note_on,0,0,3,,,,,,,,,2,,,48,42
149160,note_off,0,0,1,,,,,,,,,0,,,77,0
149160,control_change,360,0,1,,,,,,,64,0,0,,,,
149280,note_off,240,0,3,,,,,,,,,2,,,48,0
149280,note_on,0,0,3,,,,,,,,,2,,,48,42
149520,note_off,240,0,3,,,,,,,,,2,,,48,0
149520,note_on,0,0,3,,,,,,,,,2,,,48,42
149520,set_tempo,1200,1,0,,,,,,422535,,,,,,,
149700,note_on,540,0,1,,,,,,,,,0,,,71,59
149760,note_off,0,0,1,,,,,,,,,0,,,71,0
149760,note_off,240,0,3,,,,,,,,,2,,,48,0
149760,note_on,0,0,3,,,,,,,,,2,,,48,42
149760,note_on,0,0,1,,,,,,,,,0,,,72,59
149760,note_off,1440,0,4,,,,,,,,,3,,,57,0
149760,note_off,0,0,4,,,,,,,,,3,,,60,0
149760,note_on,0,0,4,,,,,,,,,3,,,59,54
149760,note_on,0,0,4,,,,,,,,,3,,,55,58
149760,set_tempo,240,1,0,,,,,,416666,,,,,,,
149760,control_change,60,0,1,,,,,,,64,127,0,,,,
150000,note_on,0,0,3,,,,,,,,,2,,,48,42
150000,note_off,240,0,3,,,,,,,,,2,,,48,0
150120,note_off,360,0,1,,,,,,,,,0,,,72,0
150120,note_on,0,0,1,,,,,,,,,0,,,64,59
150240,note_on,0,0,3,,,,,,,,,2,,,48,42
150240,note_off,120,0,1,,,,,,,,,0,,,64,0
150240,note_on,0,0,1,,,,,,,,,0,,,64,59
150240,note_off,240,0,3,,,,,,,,,2,,,48,0
150480,note_off,240,0,3,,,,,,,,,2,,,48,0
150480,note_on,0,0,3,,,,,,,,,2,,,48,42
150600,control_change,360,0,1,,,,,,,64,0,0,,,,
150600,note_off,0,0,1,,,,,,,,,0,,,64,0
150720,note_on,0,0,3,,,,,,,,,2,,,48,42
150720,note_off,240,0,3,,,,,,,,,2,,,48,0
150720,control_change,120,0,1,,,,,,,64,0,0,,,,
150960,set_tempo,1200,1,0,,,,,,422535,,,,,,,
150960,note_off,240,0,3,,,,,,,,,2,,,48,0
150960,note_on,0,0,3,,,,,,,,,2,,,48,42
151200,note_on,0,0,4,,,,,,,,,3,,,57,52
151200,control_change,17880,0,2,,,,,,,64,127,1,,,,
151200,note_on,0,0,4,,,,,,,,,3,,,53,52
151200,note_off,0,0,4,,,,,,,,,3,,,59,0
151200,note_on,0,0,3,,,,,,,,,2,,,48,41
151200,note_off,240,0,3,,,,,,,,,2,,,48,0
151200,note_off,1440,0,4,,,,,,,,,3,,,55,0
151200,set_tempo,240,1,0,,,,,,416666,,,,,,,
151200,note_on,480,0,1,,,,,,,,,0,,,72,58
151320,note_on,120,0,2,,,,,,,,,1,,,62,48
151416,note_off,96,0,2,,,,,,,,,1,,,62,0
151440,note_off,240,0,3,,,,,,,,,2,,,48,0
151440,note_on,0,0,3,,,,,,,,,2,,,48,41
151560,note_off,360,0,1,,,,,,,,,0,,,72,0
151560,control_change,144,0,2,,,,,,,64,0,1,,,,
151560,note_off,0,0,4,,,,,,,,,3,,,57,0
151560,note_off,360,0,4,,,,,,,,,3,,,53,0
151680,note_on,120,0,4,,,,,,,,,3,,,56,52
151680,note_on,0,0,3,,,,,,,,,2,,,48,41
151680,note_off,240,0,3,,,,,,,,,2,,,48,0
151680,note_on,120,0,1,,,,,,,,,0,,,72,58
151680,control_change,120,0,2,,,,,,,64,127,1,,,,
151680,note_on,0,0,4,,,,,,,,,3,,,53,52
151800,note_on,120,0,2,,,,,,,,,1,,,62,48
151896,note_off,96,0,2,,,,,,,,,1,,,62,0
151920,note_off,240,0,3,,,,,,,,,2,,,48,0
151920,note_on,0,0,3,,,,,,,,,2,,,48,41
152040,control_change,144,0,2,,,,,,,64,0,1,,,,
152040,note_off,360,0,1,,,,,,,,,0,,,72,0
152040,note_off,0,0,4,,,,,,,,,3,,,56,0
152040,note_off,360,0,4,,,,,,,,,3,,,53,0
152160,note_off,240,0,3,,,,,,,,,2,,,48,0
152160,control_change,120,0,2,,,,,,,64,127,1,,,,
152160,note_on,0,0,4,,,,,,,,,3,,,53,51
152160,note_on,120,0,1,,,,,,,,,0,,,71,58
152160,note_on,120,0,4,,,,,,,,,3,,,55,51
152160,note_on,0,0,3,,,,,,,,,2,,,48,41
152280,note_on,120,0,2,,,,,,,,,1,,,62,48
152376,note_off,96,0,2,,,,,,,,,1,,,62,0
152400,note_on,0,0,3,,,,,,,,,2,,,48,41
152400,note_off,240,0,3,,,,,,,,,2,,,48,0
152520,set_tempo,1320,1,0,,,,,,422535,,,,,,,
152520,note_off,360,0,4,,,,,,,,,3,,,53,0
152520,note_off,0,0,4,,,,,,,,,3,,,55,0
152520,control_change,144,0,2,,,,,,,64,0,1,,,,
152520,note_off,360,0,1,,,,,,,,,0,,,71,0
152640,set_tempo,120,1,0,,,,,,416666,,,,,,,
152640,control_change,120,0,2,,,,,,,64,127,1,,,,
152640,note_on,120,0,1,,,,,,,,,0,,,72,57
152640,note_off,240,0,3,,,,,,,,,2,,,48,0
152640,note_on,120,0,4,,,,,,,,,3,,,55,51
152640,note_on,0,0,3,,,,,,,,,2,,,48,41
152640,note_on,0,0,4,,,,,,,,,3,,,52,51
152760,note_on,120,0,2,,,,,,,,,1,,,60,47
152856,note_off,96,0,2,,,,,,,,,1,,,60,0
152880,note_on,0,0,3,,,,,,,,,2,,,48,41
152880,note_off,240,0,3,,,,,,,,,2,,,48,0
153120,note_off,480,0,1,,,,,,,,,0,,,72,0
153120,note_off,0,0,4,,,,,,,,,3,,,55,0
153120,note_off,480,0,4,,,,,,,,,3,,,52,0
153120,control_change,264,0,2,,,,,,,64,0,1,,,,
153120,note_on,0,0,3,,,,,,,,,2,,,48,40
153120,note_off,240,0,3,,,,,,,,,2,,,48,0
153360,note_on,0,0,3,,,,,,,,,2,,,48,40
153360,note_off,240,0,3,,,,,,,,,2,,,48,0
153600,note_on,0,0,3,,,,,,,,,2,,,48,40
153600,note_off,240,0,3,,,,,,,,,2,,,48,0
153840,note_on,0,0,3,,,,,,,,,2,,,48,40
153840,note_off,240,0,3,,,,,,,,,2,,,48,0
153840,set_tempo,1200,1,0,,,,,,422535,,,,,,,
154080,note_off,240,0,3,,,,,,,,,2,,,48,0
154080,note_on,0,0,3,,,,,,,,,2,,,48,40
154080,set_tempo,240,1,0,,,,,,416666,,,,,,,
154080,note_on,0,0,4,,,,,,,,,3,,,57,55
154080,note_on,0,0,1,,,,,,,,,0,,,84,56
154080,note_on,960,0,4,,,,,,,,,3,,,60,49
154080,control_change,960,0,1,,,,,,,64,127,0,,,,
154160,note_on,0,0,1,,,,,,,,,0,,,86,56
154160,note_off,80,0,1,,,,,,,,,0,,,84,0
154240,note_off,80,0,1,,,,,,,,,0,,,86,0
154240,note_on,0,0,1,,,,,,,,,0,,,84,56
154320,note_on,0,0,3,,,,,,,,,2,,,48,40
154320,note_off,240,0,3,,,,,,,,,2,,,48,0
154320,note_on,0,0,1,,,,,,,,,0,,,83,56
154320,note_off,80,0,1,,,,,,,,,0,,,84,0
154440,note_on,0,0,1,,,,,,,,,0,,,84,56
154440,note_off,120,0,1,,,,,,,,,0,,,83,0
154560,note_on,0,0,1,,,,,,,,,0,,,77,56
154560,note_on,0,0,3,,,,,,,,,2,,,48,40
154560,note_off,240,0,3,,,,,,,,,2,,,48,0
154560,note_off,120,0,1,,,,,,,,,0,,,84,0
154800,note_on,0,0,3,,,,,,,,,2,,,48,40
154800,note_off,240,0,3,,,,,,,,,2,,,48,0
154800,note_off,240,0,1,,,,,,,,,0,,,77,0
154920,control_change,120,0,1,,,,,,,64,0,0,,,,
155040,note_on,0,0,3,,,,,,,,,2,,,48,40
155040,control_change,120,0,1,,,,,,,64,0,0,,,,
155040,note_off,240,0,3,,,,,,,,,2,,,48,0
155280,note_on,0,0,3,,,,,,,,,2,,,48,39
155280,set_tempo,1200,1,0,,,,,,422535,,,,,,,
155280,note_off,240,0,3,,,,,,,,,2,,,48,0
155520,note_on,0,0,4,,,,,,,,,3,,,59,47
155520,note_off,0,0,4,,,,,,,,,3,,,60,0
155520,note_off,1440,0,4,,,,,,,,,3,,,57,0
155520,note_off,240,0,3,,,,,,,,,2,,,48,0
155520,note_on,0,0,3,,,,,,,,,2,,,48,39
155520,set_tempo,240,1,0,,,,,,416666,,,,,,,
155520,control_change,480,0,1,,,,,,,64,127,0,,,,
155520,note_on,0,0,1,,,,,,,,,0,,,72,55
155520,note_on,0,0,4,,,,,,,,,3,,,55,50
155600,note_off,80,0,1,,,,,,,,,0,,,72,0
155600,note_on,0,0,1,,,,,,,,,0,,,74,55
155680,note_off,80,0,1,,,,,,,,,0,,,74,0
155680,note_on,0,0,1,,,,,,,,,0,,,72,55
155760,note_off,80,0,1,,,,,,,,,0,,,72,0
155760,note_on,0,0,3,,,,,,,,,2,,,48,39
155760,note_off,240,0,3,,,,,,,,,2,,,48,0
155760,note_on,0,0,1,,,,,,,,,0,,,71,55
155880,note_off,120,0,1,,,,,,,,,0,,,71,0
155880,note_on,0,0,1,,,,,,,,,0,,,72,55
156000,note_off,120,0,1,,,,,,,,,0,,,72,0
156000,note_on,0,0,1,,,,,,,,,0,,,64,55
156000,note_on,0,0,3,,,,,,,,,2,,,48,39
156000,note_off,240,0,3,,,,,,,,,2,,,48,0
156240,note_off,240,0,1,,,,,,,,,0,,,64,0
156240,note_on,0,0,3,,,,,,,,,2,,,48,39
156240,note_off,240,0,3,,,,,,,,,2,,,48,0
156360,control_change,120,0,1,,,,,,,64,0,0,,,,
156480,note_off,240,0,3,,,,,,,,,2,,,48,0
156480,note_on,0,0,3,,,,,,,,,2,,,48,39
156480,control_change,120,0,1,,,,,,,64,0,0,,,,
156720,set_tempo,1200,1,0,,,,,,422535,,,,,,,
156720,note_off,240,0,3,,,,,,,,,2,,,48,0
156720,note_on,0,0,3,,,,,,,,,2,,,48,39
156960,note_off,240,0,3,,,,,,,,,2,,,48,0
156960,note_on,480,0,1,,,,,,,,,0,,,72,54
156960,control_change,3840,0,2,,,,,,,64,127,1,,,,
156960,note_off,1440,0,4,,,,,,,,,3,,,55,0
156960,note_off,0,0,4,,,,,,,,,3,,,59,0
156960,note_on,0,0,4,,,,,,,,,3,,,57,46
156960,note_on,0,0,4,,,,,,,,,3,,,53,46
156960,set_tempo,240,1,0,,,,,,416666,,,,,,,
156960,note_on,0,0,3,,,,,,,,,2,,,48,39
157080,note_on,120,0,2,,,,,,,,,1,,,62,39
157176,note_off,96,0,2,,,,,,,,,1,,,62,0
157200,note_on,0,0,3,,,,,,,,,2,,,48,38
157200,note_off,240,0,3,,,,,,,,,2,,,48,0
157320,note_off,0,0,4,,,,,,,,,3,,,57,0
157320,note_off,360,0,4,,,,,,,,,3,,,53,0
157320,note_off,360,0,1,,,,,,,,,0,,,72,0
157320,control_change,144,0,2,,,,,,,64,0,1,,,,
157440,note_on,120,0,4,,,,,,,,,3,,,56,45
157440,control_change,120,0,2,,,,,,,64,127,1,,,,
157440,note_on,120,0,1,,,,,,,,,0,,,72,54
157440,note_off,240,0,3,,,,,,,,,2,,,48,0
157440,note_on,0,0,4,,,,,,,,,3,,,53,45
157440,note_on,0,0,3,,,,,,,,,2,,,48,38
157560,note_on,120,0,2,,,,,,,,,1,,,62,39
157656,note_off,96,0,2,,,,,,,,,1,,,62,0
157680,note_on,0,0,3,,,,,,,,,2,,,48,38
157680,note_off,240,0,3,,,,,,,,,2,,,48,0
157800,note_off,360,0,4,,,,,,,,,3,,,53,0
157800,note_off,0,0,4,,,,,,,,,3,,,56,0
157800,control_change,144,0,2,,,,,,,64,0,1,,,,
157800,note_off,360,0,1,,,,,,,,,0,,,72,0
157920,control_change,120,0,2,,,,,,,64,127,1,,,,
157920,note_on,120,0,4,,,,,,,,,3,,,55,45
157920,note_on,120,0,1,,,,,,,,,0,,,71,54
157920,note_off,240,0,3,,,,,,,,,2,,,48,0
157920,note_on,0,0,4,,,,,,,,,3,,,53,45
157920,note_on,0,0,3,,,,,,,,,2,,,48,38
158040,note_on,120,0,2,,,,,,,,,1,,,62,39
158136,note_off,96,0,2,,,,,,,,,1,,,62,0
158160,note_off,240,0,3,,,,,,,,,2,,,48,0
158160,note_on,0,0,3,,,,,,,,,2,,,48,38
158280,set_tempo,1320,1,0,,,,,,422535,,,,,,,
158280,note_off,0,0,4,,,,,,,,,3,,,55,0
158280,note_off,360,0,4,,,,,,,,,3,,,53,0
158280,control_change,144,0,2,,,,,,,64,0,1,,,,
158280,note_off,360,0,1,,,,,,,,,0,,,71,0
158400,note_on,0,0,2,,,,,,,,,1,,,60,47
158400,note_on,120,0,1,,,,,,,,,0,,,72,47
158400,note_on,0,0,4,,,,,,,,,3,,,52,44
158400,note_on,120,0,4,,,,,,,,,3,,,55,44
158400,control_change,120,0,2,,,,,,,64,127,1,,,,
158400,set_tempo,120,1,0,,,,,,416666,,,,,,,
158400,note_on,0,0,3,,,,,,,,,2,,,48,38
158400,note_off,240,0,3,,,,,,,,,2,,,48,0
158640,note_off,240,0,2,,,,,,,,,1,,,60,0
158640,note_on,240,0,3,,,,,,,,,2,,,52,38
158760,note_off,120,0,3,,,,,,,,,2,,,48,0
158880,note_on,0,0,3,,,,,,,,,2,,,52,38
158880,note_on,0,0,3,,,,,,,,,2,,,55,38
158880,control_change,240,0,2,,,,,,,64,0,1,,,,
158880,note_off,480,0,4,,,,,,,,,3,,,52,0
158880,note_off,0,0,4,,,,,,,,,3,,,55,0
158880,note_off,480,0,1,,,,,,,,,0,,,72,0
158880,note_off,120,0,3,,,,,,,,,2,,,52,0
159120,note_off,0,0,3,,,,,,,,,2,,,52,0
159120,note_on,0,0,3,,,,,,,,,2,,,52,38
159120,note_off,240,0,3,,,,,,,,,2,,,55,0
159120,note_on,0,0,3,,,,,,,,,2,,,55,38
159360,note_off,240,0,3,,,,,,,,,2,,,55,0
159360,note_off,0,0,3,,,,,,,,,2,,,52,0
159360,note_on,0,0,3,,,,,,,,,2,,,52,37
159360,note_on,0,0,3,,,,,,,,,2,,,55,37
159585,set_tempo,1185,1,0,,,,,,422535,,,,,,,
159600,note_off,240,0,3,,,,,,,,,2,,,55,0
159600,note_off,0,0,3,,,,,,,,,2,,,52,0
159600,note_on,0,0,3,,,,,,,,,2,,,55,37
159600,note_on,0,0,3,,,,,,,,,2,,,52,37
159840,note_on,0,0,4,,,,,,,,,3,,,47,51
159840,control_change,960,0,4,,,,,,,64,127,3,,,,
159840,note_on,0,0,3,,,,,,,,,2,,,53,37
159840,note_off,0,0,3,,,,,,,,,2,,,52,0
159840,note_off,240,0,3,,,,,,,,,2,,,55,0
159840,note_on,0,0,3,,,,,,,,,2,,,55,37
159840,set_tempo,255,1,0,,,,,,416666,,,,,,,
159960,note_off,120,0,4,,,,,,,,,3,,,47,0
159960,note_on,0,0,4,,,,,,,,,3,,,37,41
160056,note_off,96,0,4,,,,,,,,,3,,,37,0
160080,note_on,0,0,3,,,,,,,,,2,,,55,37
160080,note_on,0,0,3,,,,,,,,,2,,,53,37
160080,note_off,0,0,3,,,,,,,,,2,,,53,0
160080,note_off,240,0,3,,,,,,,,,2,,,55,0
160080,control_change,24,0,4,,,,,,,64,0,3,,,,
160320,note_off,240,0,3,,,,,,,,,2,,,55,0
160320,note_off,0,0,3,,,,,,,,,2,,,53,0
160320,note_on,0,0,3,,,,,,,,,2,,,53,37
160320,note_on,0,0,4,,,,,,,,,3,,,47,51
160320,note_on,0,0,3,,,,,,,,,2,,,55,37
160320,control_change,240,0,4,,,,,,,64,127,3,,,,
160440,note_off,120,0,4,,,,,,,,,3,,,47,0
160440,note_on,0,0,4,,,,,,,,,3,,,37,41
160536,note_off,96,0,4,,,,,,,,,3,,,37,0
160560,note_on,0,0,3,,,,,,,,,2,,,55,37
160560,control_change,24,0,4,,,,,,,64,0,3,,,,
160560,note_off,240,0,3,,,,,,,,,2,,,55,0
160560,note_off,0,0,3,,,,,,,,,2,,,53,0
160560,note_on,0,0,3,,,,,,,,,2,,,53,37
160800,note_on,0,0,3,,,,,,,,,2,,,53,37
160800,note_on,0,0,4,,,,,,,,,3,,,47,50
160800,control_change,240,0,4,,,,,,,64,127,3,,,,
160800,note_off,240,0,3,,,,,,,,,2,,,55,0
160800,note_off,0,0,3,,,,,,,,,2,,,53,0
160800,note_on,0,0,3,,,,,,,,,2,,,55,37
160920,note_on,0,0,4,,,,,,,,,3,,,37,40
160920,note_off,120,0,4,,,,,,,,,3,,,47,0
161016,note_off,96,0,4,,,,,,,,,3,,,37,0
161040,note_off,240,0,3,,,,,,,,,2,,,55,0
161040,set_tempo,1200,1,0,,,,,,422535,,,,,,,
161040,note_on,0,0,3,,,,,,,,,2,,,53,37
161040,note_on,0,0,3,,,,,,,,,2,,,55,37
161040,control_change,24,0,4,,,,,,,64,0,3,,,,
161040,note_off,0,0,3,,,,,,,,,2,,,53,0
161280,set_tempo,240,1,0,,,,,,416666,,,,,,,
161280,note_off,240,0,3,,,,,,,,,2,,,55,0
161280,note_off,0,0,3,,,,,,,,,2,,,53,0
161280,note_on,0,0,3,,,,,,,,,2,,,55,36
161280,note_on,0,0,3,,,,,,,,,2,,,52,36
161280,control_change,240,0,4,,,,,,,64,127,3,,,,
161280,note_on,0,0,4,,,,,,,,,3,,,48,50
161400,note_off,120,0,4,,,,,,,,,3,,,48,0
161400,note_on,0,0,4,,,,,,,,,3,,,36,40
161496,note_off,96,0,4,,,,,,,,,3,,,36,0
161520,note_on,0,0,3,,,,,,,,,2,,,55,36
161520,note_on,0,0,3,,,,,,,,,2,,,52,36
161520,note_off,0,0,3,,,,,,,,,2,,,55,0
161520,note_off,240,0,3,,,,,,,,,2,,,52,0
161520,control_change,24,0,4,,,,,,,64,0,3,,,,
161760,note_off,0,0,3,,,,,,,,,2,,,52,0
161760,note_on,0,0,3,,,,,,,,,2,,,55,36
161760,note_on,2880,0,1,,,,,,,,,0,,,67,59
161760,note_on,0,0,3,,,,,,,,,2,,,52,36
161760,note_off,240,0,3,,,,,,,,,2,,,55,0
162000,note_off,240,0,3,,,,,,,,,2,,,55,0
162000,note_off,0,0,3,,,,,,,,,2,,,52,0
162000,note_on,0,0,3,,,,,,,,,2,,,52,36
162000,note_on,0,0,3,,,,,,,,,2,,,55,36
162223,note_off,463,0,1,,,,,,,,,0,,,67,0
162240,note_on,0,0,3,,,,,,,,,2,,,55,36
162240,note_on,0,0,3,,,,,,,,,2,,,52,36
162240,note_on,17,0,1,,,,,,,,,0,,,72,56
162240,note_off,240,0,3,,,,,,,,,2,,,55,0
162240,note_off,0,0,3,,,,,,,,,2,,,52,0
162432,note_off,192,0,1,,,,,,,,,0,,,72,0
162480,set_tempo,1200,1,0,,,,,,422535,,,,,,,
162480,note_off,240,0,3,,,,,,,,,2,,,55,0
162480,note_off,0,0,3,,,,,,,,,2,,,52,0
162480,note_on,0,0,3,,,,,,,,,2,,,55,36
162480,note_on,0,0,3,,,,,,,,,2,,,52,36
162720,set_tempo,240,1,0,,,,,,416666,,,,,,,
162720,note_on,0,0,4,,,,,,,,,3,,,47,48
162720,control_change,1200,0,4,,,,,,,64,127,3,,,,
162720,note_on,0,0,3,,,,,,,,,2,,,55,36
162720,note_on,0,0,3,,,,,,,,,2,,,53,36
162720,note_off,0,0,3,,,,,,,,,2,,,52,0
162720,note_off,240,0,3,,,,,,,,,2,,,55,0
162840,note_off,120,0,4,,,,,,,,,3,,,47,0
162840,note_on,0,0,4,,,,,,,,,3,,,37,38
162936,note_off,96,0,4,,,,,,,,,3,,,37,0
162960,note_on,0,0,3,,,,,,,,,2,,,55,36
162960,note_off,0,0,3,,,,,,,,,2,,,53,0
162960,note_off,240,0,3,,,,,,,,,2,,,55,0
162960,note_on,0,0,3,,,,,,,,,2,,,53,36
162960,control_change,24,0,4,,,,,,,64,0,3,,,,
163200,note_on,0,0,3,,,,,,,,,2,,,53,35
163200,note_on,0,0,3,,,,,,,,,2,,,55,35
163200,note_on,0,0,4,,,,,,,,,3,,,47,48
163200,control_change,240,0,4,,,,,,,64,127,3,,,,
163200,note_off,0,0,3,,,,,,,,,2,,,55,0
163200,note_off,240,0,3,,,,,,,,,2,,,53,0
163320,note_on,0,0,4,,,,,,,,,3,,,37,38
163320,note_off,120,0,4,,,,,,,,,3,,,47,0
163416,note_off,96,0,4,,,,,,,,,3,,,37,0
163440,note_on,0,0,3,,,,,,,,,2,,,55,35
163440,note_on,0,0,3,,,,,,,,,2,,,53,35
163440,note_off,0,0,3,,,,,,,,,2,,,53,0
163440,note_off,240,0,3,,,,,,,,,2,,,55,0
163440,control_change,24,0,4,,,,,,,64,0,3,,,,
163680,note_on,0,0,4,,,,,,,,,3,,,47,47
163680,control_change,240,0,4,,,,,,,64,127,3,,,,
163680,note_off,240,0,3,,,,,,,,,2,,,55,0
163680,note_off,0,0,3,,,,,,,,,2,,,53,0
163680,note_on,0,0,3,,,,,,,,,2,,,53,35
163680,note_on,0,0,3,,,,,,,,,2,,,55,35
163800,note_off,120,0,4,,,,,,,,,3,,,47,0
163800,note_on,0,0,4,,,,,,,,,3,,,37,37
163896,note_off,96,0,4,,,,,,,,,3,,,37,0
163920,control_change,24,0,4,,,,,,,64,0,3,,,,
163920,note_off,240,0,3,,,,,,,,,2,,,55,0
163920,note_off,0,0,3,,,,,,,,,2,,,53,0
163920,note_on,0,0,3,,,,,,,,,2,,,53,35
163920,note_on,0,0,3,,,,,,,,,2,,,55,35
164040,set_tempo,1320,1,0,,,,,,422535,,,,,,,
164160,note_on,0,0,3,,,,,,,,,2,,,52,35
164160,note_on,0,0,3,,,,,,,,,2,,,55,35
164160,note_off,0,0,3,,,,,,,,,2,,,53,0
164160,note_on,0,0,4,,,,,,,,,3,,,48,46
164160,control_change,240,0,4,,,,,,,64,127,3,,,,
164160,note_off,240,0,3,,,,,,,,,2,,,55,0
164160,set_tempo,120,1,0,,,,,,416666,,,,,,,
164280,note_off,120,0,4,,,,,,,,,3,,,48,0
164280,note_on,0,0,4,,,,,,,,,3,,,36,36
164376,note_off,96,0,4,,,,,,,,,3,,,36,0
164400,note_off,240,0,3,,,,,,,,,2,,,52,0
164400,note_off,0,0,3,,,,,,,,,2,,,55,0
164400,note_on,0,0,3,,,,,,,,,2,,,52,35
164400,control_change,24,0,4,,,,,,,64,0,3,,,,
164400,note_on,0,0,3,,,,,,,,,2,,,55,35
164640,note_on,0,0,3,,,,,,,,,2,,,52,35
164640,note_on,0,0,3,,,,,,,,,2,,,55,35
164640,note_off,240,0,3,,,,,,,,,2,,,55,0
164640,note_off,0,0,3,,,,,,,,,2,,,52,0
164640,note_on,2208,0,1,,,,,,,,,0,,,67,57
164880,note_off,240,0,3,,,,,,,,,2,,,55,0
164880,note_off,0,0,3,,,,,,,,,2,,,52,0
164880,note_on,0,0,3,,,,,,,,,2,,,52,35
164880,note_on,0,0,3,,,,,,,,,2,,,55,35
165103,note_off,463,0,1,,,,,,,,,0,,,67,0
165120,note_on,17,0,1,,,,,,,,,0,,,76,52
165120,note_on,0,0,3,,,,,,,,,2,,,55,35
165120,note_on,0,0,3,,,,,,,,,2,,,52,35
165120,note_off,240,0,3,,,,,,,,,2,,,55,0
165120,note_off,0,0,3,,,,,,,,,2,,,52,0
165312,note_off,192,0,1,,,,,,,,,0,,,76,0
165360,set_tempo,1200,1,0,,,,,,422535,,,,,,,
165360,note_on,0,0,3,,,,,,,,,2,,,55,34
165360,note_on,0,0,3,,,,,,,,,2,,,52,34
165360,note_off,0,0,3,,,,,,,,,2,,,52,0
165360,note_off,240,0,3,,,,,,,,,2,,,55,0
165600,note_on,0,0,3,,,,,,,,,2,,,53,34
165600,control_change,1200,0,4,,,,,,,64,127,3,,,,
165600,note_on,0,0,4,,,,,,,,,3,,,47,45
165600,set_tempo,240,1,0,,,,,,416666,,,,,,,
165600,note_off,0,0,3,,,,,,,,,2,,,52,0
165600,note_off,240,0,3,,,,,,,,,2,,,55,0
165600,note_on,0,0,3,,,,,,,,,2,,,55,34
165720,note_off,120,0,4,,,,,,,,,3,,,47,0
165720,note_on,0,0,4,,,,,,,,,3,,,37,35
165816,note_off,96,0,4,,,,,,,,,3,,,37,0
165840,control_change,24,0,4,,,,,,,64,0,3,,,,
165840,note_off,240,0,3,,,,,,,,,2,,,55,0
165840,note_off,0,0,3,,,,,,,,,2,,,53,0
165840,note_on,0,0,3,,,,,,,,,2,,,55,34
165840,note_on,0,0,3,,,,,,,,,2,,,53,34
166080,note_on,0,0,4,,,,,,,,,3,,,47,44
166080,note_off,240,0,3,,,,,,,,,2,,,53,0
166080,note_off,0,0,3,,,,,,,,,2,,,55,0
166080,note_on,0,0,3,,,,,,,,,2,,,53,34
166080,note_on,0,0,3,,,,,,,,,2,,,55,34
166080,control_change,240,0,4,,,,,,,64,127,3,,,,
166200,note_on,0,0,4,,,,,,,,,3,,,37,34
166200,note_off,120,0,4,,,,,,,,,3,,,47,0
166296,note_off,96,0,4,,,,,,,,,3,,,37,0
166320,note_off,0,0,3,,,,,,,,,2,,,53,0
166320,control_change,24,0,4,,,,,,,64,0,3,,,,
166320,note_off,240,0,3,,,,,,,,,2,,,55,0
166320,note_on,0,0,3,,,,,,,,,2,,,53,34
166320,note_on,0,0,3,,,,,,,,,2,,,55,34
166560,note_off,240,0,3,,,,,,,,,2,,,55,0
166560,note_off,0,0,3,,,,,,,,,2,,,53,0
166560,note_on,0,0,3,,,,,,,,,2,,,55,34
166560,note_on,0,0,3,,,,,,,,,2,,,53,34
166560,note_on,0,0,4,,,,,,,,,3,,,47,44
166560,control_change,240,0,4,,,,,,,64,127,3,,,,
166680,note_on,0,0,4,,,,,,,,,3,,,37,34
166680,note_off,120,0,4,,,,,,,,,3,,,47,0
166776,note_off,96,0,4,,,,,,,,,3,,,37,0
166800,control_change,24,0,4,,,,,,,64,0,3,,,,
166800,note_off,0,0,3,,,,,,,,,2,,,55,0
166800,note_on,0,0,3,,,,,,,,,2,,,55,34
166800,note_on,0,0,3,,,,,,,,,2,,,53,34
166800,note_off,240,0,3,,,,,,,,,2,,,53,0
166800,set_tempo,1200,1,0,,,,,,428571,,,,,,,
167040,note_off,0,0,3,,,,,,,,,2,,,53,0
167040,note_off,240,0,3,,,,,,,,,2,,,55,0
167040,note_on,0,0,4,,,,,,,,,3,,,36,68
167040,set_tempo,240,1,0,,,,,,416666,,,,,,,
167040,control_change,240,0,4,,,,,,,64,127,3,,,,
167040,note_on,0,0,4,,,,,,,,,3,,,48,68
167160,note_on,1848,0,1,,,,,,,,,0,,,52,54
167280,note_off,120,0,1,,,,,,,,,0,,,52,0
167280,control_change,240,0,4,,,,,,,64,0,3,,,,
167280,note_on,0,0,1,,,,,,,,,0,,,60,56
167400,note_off,120,0,1,,,,,,,,,0,,,60,0
167400,note_on,0,0,1,,,,,,,,,0,,,55,58
167415,note_off,0,0,4,,,,,,,,,3,,,48,0
167415,note_off,135,0,4,,,,,,,,,3,,,36,0
167520,note_on,0,0,1,,,,,,,,,0,,,64,59
167520,note_off,120,0,1,,,,,,,,,0,,,55,0
167640,note_on,0,0,1,,,,,,,,,0,,,60,61
167640,note_off,120,0,1,,,,,,,,,0,,,64,0
167760,note_on,0,0,1,,,,,,,,,0,,,67,63
167760,note_off,120,0,1,,,,,,,,,0,,,60,0
167880,note_off,120,0,1,,,,,,,,,0,,,67,0
167880,note_on,0,0,1,,,,,,,,,0,,,64,64
168000,note_off,120,0,1,,,,,,,,,0,,,64,0
168000,note_on,0,0,1,,,,,,,,,0,,,72,66
168120,note_off,120,0,1,,,,,,,,,0,,,72,0
168120,note_on,0,0,1,,,,,,,,,0,,,67,68
168240,note_on,0,0,1,,,,,,,,,0,,,76,69
168240,note_off,120,0,1,,,,,,,,,0,,,67,0
168240,set_tempo,1200,1,0,,,,,,422535,,,,,,,
168360,note_on,0,0,1,,,,,,,,,0,,,72,71
168360,note_off,120,0,1,,,,,,,,,0,,,76,0
168480,note_off,120,0,1,,,,,,,,,0,,,72,0
168480,note_on,0,0,1,,,,,,,,,0,,,79,75
168600,set_tempo,360,1,0,,,,,,416666,,,,,,,
168720,note_on,1305,0,4,,,,,,,,,3,,,36,75
168816,note_off,96,0,4,,,,,,,,,3,,,36,0
168960,note_on,144,0,4,,,,,,,,,3,,,40,72
169056,note_off,96,0,4,,,,,,,,,3,,,40,0
169200,note_on,144,0,4,,,,,,,,,3,,,43,68
169296,note_off,96,0,4,,,,,,,,,3,,,43,0
169440,note_off,960,0,1,,,,,,,,,0,,,79,0
169440,note_on,0,0,1,,,,,,,,,0,,,70,64
169440,note_on,144,0,4,,,,,,,,,3,,,48,64
169520,note_off,80,0,1,,,,,,,,,0,,,70,0
169520,note_on,0,0,1,,,,,,,,,0,,,72,63
169536,note_off,96,0,4,,,,,,,,,3,,,48,0
169600,note_off,80,0,1,,,,,,,,,0,,,72,0
169600,note_on,0,0,1,,,,,,,,,0,,,70,63
169680,note_off,80,0,1,,,,,,,,,0,,,70,0
169680,note_on,0,0,1,,,,,,,,,0,,,69,62
169680,note_on,144,0,4,,,,,,,,,3,,,52,61
169776,note_off,96,0,4,,,,,,,,,3,,,52,0
169800,note_on,0,0,1,,,,,,,,,0,,,70,60
169800,note_off,120,0,1,,,,,,,,,0,,,69,0
169800,set_tempo,1200,1,0,,,,,,422535,,,,,,,
169920,note_on,0,0,1,,,,,,,,,0,,,69,59
169920,note_off,120,0,1,,,,,,,,,0,,,70,0
169920,note_on,144,0,4,,,,,,,,,3,,,53,57
170030,set_tempo,230,1,0,,,,,,416666,,,,,,,
170160,note_on,3120,0,3,,,,,,,,,2,,,57,37
170160,note_off,240,0,1,,,,,,,,,0,,,69,0
170160,note_on,0,0,3,,,,,,,,,2,,,60,37
170400,note_off,480,0,4,,,,,,,,,3,,,53,0
170400,note_on,0,0,3,,,,,,,,,2,,,57,37
170400,note_on,0,0,3,,,,,,,,,2,,,60,37
170400,note_off,0,0,3,,,,,,,,,2,,,57,0
170400,note_off,240,0,3,,,,,,,,,2,,,60,0
170640,note_on,0,0,3,,,,,,,,,2,,,60,37
170640,note_on,0,0,3,,,,,,,,,2,,,57,37
170640,note_off,0,0,3,,,,,,,,,2,,,57,0
170640,note_off,240,0,3,,,,,,,,,2,,,60,0
170880,note_off,0,0,3,,,,,,,,,2,,,57,0
170880,note_on,0,0,3,,,,,,,,,2,,,57,37
170880,note_off,240,0,3,,,,,,,,,2,,,60,0
170880,note_on,0,0,3,,,,,,,,,2,,,60,37
171120,note_off,240,0,3,,,,,,,,,2,,,60,0
171120,note_on,0,0,3,,,,,,,,,2,,,57,36
171120,note_on,0,0,3,,,,,,,,,2,,,60,36
171120,note_off,0,0,3,,,,,,,,,2,,,57,0
171240,set_tempo,1210,1,0,,,,,,422535,,,,,,,
171360,note_off,0,0,3,,,,,,,,,2,,,57,0
171360,control_change,960,0,4,,,,,,,64,127,3,,,,
171360,note_on,0,0,4,,,,,,,,,3,,,40,43
171360,set_tempo,120,1,0,,,,,,416666,,,,,,,
171360,note_on,0,0,3,,,,,,,,,2,,,60,36
171360,note_on,0,0,3,,,,,,,,,2,,,58,36
171360,note_off,240,0,3,,,,,,,,,2,,,60,0
171480,note_off,120,0,4,,,,,,,,,3,,,40,0
171480,note_on,0,0,4,,,,,,,,,3,,,30,42
171576,note_off,96,0,4,,,,,,,,,3,,,30,0
171600,note_off,240,0,3,,,,,,,,,2,,,60,0
171600,note_off,0,0,3,,,,,,,,,2,,,58,0
171600,note_on,0,0,3,,,,,,,,,2,,,58,36
171600,note_on,0,0,3,,,,,,,,,2,,,60,36
171720,control_change,144,0,4,,,,,,,64,0,3,,,,
171840,note_off,0,0,3,,,,,,,,,2,,,58,0
171840,note_on,0,0,3,,,,,,,,,2,,,58,36
171840,note_on,0,0,3,,,,,,,,,2,,,60,36
171840,note_on,0,0,4,,,,,,,,,3,,,40,47
171840,control_change,120,0,4,,,,,,,64,127,3,,,,
171840,note_off,240,0,3,,,,,,,,,2,,,60,0
171960,note_off,120,0,4,,,,,,,,,3,,,40,0
171960,note_on,0,0,4,,,,,,,,,3,,,30,37
172056,note_off,96,0,4,,,,,,,,,3,,,30,0
172080,note_off,240,0,3,,,,,,,,,2,,,60,0
172080,note_off,0,0,3,,,,,,,,,2,,,58,0
172080,note_on,0,0,3,,,,,,,,,2,,,58,35
172080,note_on,0,0,3,,,,,,,,,2,,,60,35
172200,control_change,144,0,4,,,,,,,64,0,3,,,,
172320,note_on,0,0,3,,,,,,,,,2,,,60,35
172320,note_on,0,0,4,,,,,,,,,3,,,40,46
172320,note_on,0,0,3,,,,,,,,,2,,,58,35
172320,note_off,240,0,3,,,,,,,,,2,,,60,0
172320,control_change,120,0,4,,,,,,,64,127,3,,,,
172320,note_off,0,0,3,,,,,,,,,2,,,58,0
172440,note_off,120,0,4,,,,,,,,,3,,,40,0
172440,note_on,0,0,4,,,,,,,,,3,,,30,37
172536,note_off,96,0,4,,,,,,,,,3,,,30,0
172560,note_on,0,0,3,,,,,,,,,2,,,58,35
172560,note_off,0,0,3,,,,,,,,,2,,,58,0
172560,note_off,240,0,3,,,,,,,,,2,,,60,0
172560,note_on,0,0,3,,,,,,,,,2,,,60,35
172680,control_change,144,0,4,,,,,,,64,0,3,,,,
172680,set_tempo,1320,1,0,,,,,,422535,,,,,,,
172800,note_on,0,0,4,,,,,,,,,3,,,41,46
172800,control_change,120,0,4,,,,,,,64,127,3,,,,
172800,set_tempo,120,1,0,,,,,,416666,,,,,,,
172800,note_on,0,0,3,,,,,,,,,2,,,60,35
172800,note_on,0,0,3,,,,,,,,,2,,,57,35
172800,note_off,0,0,3,,,,,,,,,2,,,58,0
172800,note_off,240,0,3,,,,,,,,,2,,,60,0
172920,note_on,0,0,4,,,,,,,,,3,,,29,37
172920,note_off,120,0,4,,,,,,,,,3,,,41,0
173016,note_off,96,0,4,,,,,,,,,3,,,29,0
173040,note_on,0,0,3,,,,,,,,,2,,,57,35
173040,note_on,0,0,3,,,,,,,,,2,,,60,35
173040,note_off,0,0,3,,,,,,,,,2,,,57,0
173040,note_off,240,0,3,,,,,,,,,2,,,60,0
173280,note_on,0,0,3,,,,,,,,,2,,,60,34
173280,control_change,264,0,4,,,,,,,64,0,3,,,,
173280,note_off,240,0,3,,,,,,,,,2,,,60,0
173280,note_off,0,0,3,,,,,,,,,2,,,57,0
173280,note_on,3120,0,1,,,,,,,,,0,,,72,63
173280,note_on,0,0,3,,,,,,,,,2,,,57,34
173520,note_on,0,0,3,,,,,,,,,2,,,60,34
173520,note_on,0,0,3,,,,,,,,,2,,,57,34
173520,note_off,0,0,3,,,,,,,,,2,,,57,0
173520,note_off,240,0,3,,,,,,,,,2,,,60,0
173760,note_on,0,0,3,,,,,,,,,2,,,60,34
173760,note_on,0,0,3,,,,,,,,,2,,,57,34
173760,note_off,0,0,3,,,,,,,,,2,,,57,0
173760,note_off,480,0,1,,,,,,,,,0,,,72,0
173760,note_off,240,0,3,,,,,,,,,2,,,60,0
173760,note_on,0,0,1,,,,,,,,,0,,,77,57
174000,note_off,240,0,3,,,,,,,,,2,,,60,0
174000,note_on,0,0,3,,,,,,,,,2,,,60,34
174000,note_off,240,0,1,,,,,,,,,0,,,77,0
174000,note_off,0,0,3,,,,,,,,,2,,,57,0
174000,note_on,0,0,3,,,,,,,,,2,,,57,34
174120,set_tempo,1320,1,0,,,,,,422535,,,,,,,
174240,note_on,0,0,3,,,,,,,,,2,,,58,33
174240,note_off,0,0,3,,,,,,,,,2,,,57,0
174240,note_off,240,0,3,,,,,,,,,2,,,60,0
174240,set_tempo,120,1,0,,,,,,416666,,,,,,,
174240,control_change,960,0,4,,,,,,,64,127,3,,,,
174240,note_on,0,0,4,,,,,,,,,3,,,40,43
174240,note_on,0,0,3,,,,,,,,,2,,,60,33
174360,note_off,120,0,4,,,,,,,,,3,,,40,0
174360,note_on,0,0,4,,,,,,,,,3,,,30,32
174456,note_off,96,0,4,,,,,,,,,3,,,30,0
174480,note_on,0,0,3,,,,,,,,,2,,,58,33
174480,note_on,0,0,3,,,,,,,,,2,,,60,33
174480,note_off,240,0,3,,,,,,,,,2,,,60,0
174480,note_off,0,0,3,,,,,,,,,2,,,58,0
174600,control_change,144,0,4,,,,,,,64,0,3,,,,
174720,note_off,240,0,3,,,,,,,,,2,,,60,0
174720,note_off,0,0,3,,,,,,,,,2,,,58,0
174720,note_on,0,0,3,,,,,,,,,2,,,58,33
174720,note_on,0,0,4,,,,,,,,,3,,,40,43
174720,control_change,120,0,4,,,,,,,64,127,3,,,,
174720,note_on,0,0,3,,,,,,,,,2,,,60,33
174840,note_on,0,0,4,,,,,,,,,3,,,30,32
174840,note_off,120,0,4,,,,,,,,,3,,,40,0
174936,note_off,96,0,4,,,,,,,,,3,,,30,0
174960,note_off,240,0,3,,,,,,,,,2,,,60,0
174960,note_on,0,0,3,,,,,,,,,2,,,58,33
174960,note_off,0,0,3,,,,,,,,,2,,,58,0
174960,note_on,0,0,3,,,,,,,,,2,,,60,33
175080,control_change,144,0,4,,,,,,,64,0,3,,,,
175200,note_on,0,0,3,,,,,,,,,2,,,58,33
175200,note_on,0,0,4,,,,,,,,,3,,,40,42
175200,control_change,120,0,4,,,,,,,64,127,3,,,,
175200,note_on,0,0,3,,,,,,,,,2,,,60,33
175200,note_off,0,0,3,,,,,,,,,2,,,58,0
175200,note_off,240,0,3,,,,,,,,,2,,,60,0
175320,note_on,0,0,4,,,,,,,,,3,,,30,32
175320,note_off,120,0,4,,,,,,,,,3,,,40,0
175416,note_off,96,0,4,,,,,,,,,3,,,30,0
175440,note_off,240,0,3,,,,,,,,,2,,,60,0
175440,note_off,0,0,3,,,,,,,,,2,,,58,0
175440,note_on,0,0,3,,,,,,,,,2,,,58,32
175440,note_on,0,0,3,,,,,,,,,2,,,60,32
175560,control_change,144,0,4,,,,,,,64,0,3,,,,
175560,set_tempo,1320,1,0,,,,,,422535,,,,,,,
175680,set_tempo,120,1,0,,,,,,416666,,,,,,,
175680,note_on,0,0,3,,,,,,,,,2,,,57,32
175680,note_off,0,0,3,,,,,,,,,2,,,58,0
175680,note_off,240,0,3,,,,,,,,,2,,,60,0
175680,note_on,0,0,3,,,,,,,,,2,,,60,32
175680,note_on,0,0,4,,,,,,,,,3,,,41,41
175680,control_change,120,0,4,,,,,,,64,127,3,,,,
175800,note_on,0,0,4,,,,,,,,,3,,,29,32
175800,note_off,120,0,4,,,,,,,,,3,,,41,0
175896,note_off,96,0,4,,,,,,,,,3,,,29,0
175920,note_on,0,0,3,,,,,,,,,2,,,60,32
175920,note_off,0,0,3,,,,,,,,,2,,,57,0
175920,note_off,240,0,3,,,,,,,,,2,,,60,0
175920,note_on,0,0,3,,,,,,,,,2,,,57,32
176160,note_on,2160,0,1,,,,,,,,,0,,,72,59
176160,control_change,264,0,4,,,,,,,64,0,3,,,,
176160,note_off,240,0,3,,,,,,,,,2,,,60,0
176160,note_off,0,0,3,,,,,,,,,2,,,57,0
176160,note_on,0,0,3,,,,,,,,,2,,,57,32
176160,note_on,0,0,3,,,,,,,,,2,,,60,32
176400,note_off,240,0,3,,,,,,,,,2,,,60,0
176400,note_off,0,0,3,,,,,,,,,2,,,57,0
176400,note_on,0,0,3,,,,,,,,,2,,,57,31
176400,note_on,0,0,3,,,,,,,,,2,,,60,31
176640,note_off,480,0,1,,,,,,,,,0,,,72,0
176640,note_on,0,0,3,,,,,,,,,2,,,60,31
176640,note_on,0,0,3,,,,,,,,,2,,,57,31
176640,note_off,0,0,3,,,,,,,,,2,,,57,0
176640,note_off,240,0,3,,,,,,,,,2,,,60,0
176640,note_on,0,0,1,,,,,,,,,0,,,81,55
176880,note_on,0,0,3,,,,,,,,,2,,,60,31
176880,note_off,240,0,1,,,,,,,,,0,,,81,0
176880,note_off,0,0,3,,,,,,,,,2,,,57,0
176880,note_on,0,0,3,,,,,,,,,2,,,57,31
176880,note_off,240,0,3,,,,,,,,,2,,,60,0
177000,set_tempo,1320,1,0,,,,,,422535,,,,,,,
177120,note_off,240,0,3,,,,,,,,,2,,,60,0
177120,note_off,0,0,3,,,,,,,,,2,,,57,0
177120,note_on,0,0,3,,,,,,,,,2,,,58,31
177120,note_on,0,0,3,,,,,,,,,2,,,60,31
177120,note_on,0,0,4,,,,,,,,,3,,,40,39
177120,control_change,960,0,4,,,,,,,64,127,3,,,,
177120,set_tempo,120,1,0,,,,,,416666,,,,,,,
177240,note_off,120,0,4,,,,,,,,,3,,,40,0
177240,note_on,0,0,4,,,,,,,,,3,,,30,29
177336,note_off,96,0,4,,,,,,,,,3,,,30,0
177360,note_on,0,0,3,,,,,,,,,2,,,60,31
177360,note_on,0,0,3,,,,,,,,,2,,,58,31
177360,note_off,0,0,3,,,,,,,,,2,,,58,0
177360,note_off,240,0,3,,,,,,,,,2,,,60,0
177480,control_change,144,0,4,,,,,,,64,0,3,,,,
177600,note_on,0,0,4,,,,,,,,,3,,,40,39
177600,note_off,240,0,3,,,,,,,,,2,,,60,0
177600,control_change,120,0,4,,,,,,,64,127,3,,,,
177600,note_on,0,0,3,,,,,,,,,2,,,60,30
177600,note_on,0,0,3,,,,,,,,,2,,,58,30
177600,note_off,0,0,3,,,,,,,,,2,,,58,0
177720,note_on,0,0,4,,,,,,,,,3,,,30,29
177720,note_off,120,0,4,,,,,,,,,3,,,40,0
177816,note_off,96,0,4,,,,,,,,,3,,,30,0
177840,note_off,240,0,3,,,,,,,,,2,,,60,0
177840,note_off,0,0,3,,,,,,,,,2,,,58,0
177840,note_on,0,0,3,,,,,,,,,2,,,60,30
177840,note_on,0,0,3,,,,,,,,,2,,,58,30
177960,control_change,144,0,4,,,,,,,64,0,3,,,,
178080,note_off,240,0,3,,,,,,,,,2,,,60,0
178080,note_off,0,0,3,,,,,,,,,2,,,58,0
178080,control_change,120,0,4,,,,,,,64,127,3,,,,
178080,note_on,0,0,3,,,,,,,,,2,,,58,30
178080,note_on,0,0,3,,,,,,,,,2,,,60,30
178080,note_on,0,0,4,,,,,,,,,3,,,40,38
178200,note_off,120,0,4,,,,,,,,,3,,,40,0
178200,note_on,0,0,4,,,,,,,,,3,,,30,29
178296,note_off,96,0,4,,,,,,,,,3,,,30,0
178320,note_on,0,0,3,,,,,,,,,2,,,60,30
178320,note_on,0,0,3,,,,,,,,,2,,,58,30
178320,note_off,0,0,3,,,,,,,,,2,,,58,0
178320,note_off,240,0,3,,,,,,,,,2,,,60,0
178440,set_tempo,1320,1,0,,,,,,434782,,,,,,,
178440,control_change,144,0,4,,,,,,,64,0,3,,,,
178560,set_tempo,120,1,0,,,,,,416666,,,,,,,
178560,note_off,0,0,3,,,,,,,,,2,,,58,0
178560,note_off,240,0,3,,,,,,,,,2,,,60,0
178560,control_change,120,0,4,,,,,,,64,127,3,,,,
178560,note_on,0,0,4,,,,,,,,,3,,,41,68
178680,note_off,120,0,4,,,,,,,,,3,,,41,0
178680,note_on,0,0,4,,,,,,,,,3,,,29,49
178680,note_on,19800,0,2,,,,,,,,,1,,,57,68
178776,note_off,96,0,4,,,,,,,,,3,,,29,0
178800,note_on,1920,0,1,,,,,,,,,0,,,65,69
178800,note_off,120,0,2,,,,,,,,,1,,,57,0
178920,note_off,120,0,1,,,,,,,,,0,,,65,0
178920,note_on,120,0,2,,,,,,,,,1,,,60,70
179040,note_on,120,0,1,,,,,,,,,0,,,69,70
179040,control_change,264,0,4,,,,,,,64,0,3,,,,
179040,note_off,120,0,2,,,,,,,,,1,,,60,0
179160,note_on,120,0,2,,,,,,,,,1,,,65,71
179160,note_off,120,0,1,,,,,,,,,0,,,69,0
179280,note_off,120,0,2,,,,,,,,,1,,,65,0
179280,note_on,120,0,1,,,,,,,,,0,,,72,71
179400,note_on,120,0,2,,,,,,,,,1,,,69,72
179400,note_off,120,0,1,,,,,,,,,0,,,72,0
179520,note_off,120,0,2,,,,,,,,,1,,,69,0
179520,note_on,120,0,1,,,,,,,,,0,,,77,73
179640,note_on,120,0,2,,,,,,,,,1,,,72,73
179640,note_off,120,0,1,,,,,,,,,0,,,77,0
179760,note_on,120,0,1,,,,,,,,,0,,,81,74
179760,note_off,120,0,2,,,,,,,,,1,,,72,0
179880,note_on,120,0,2,,,,,,,,,1,,,77,75
179880,note_off,120,0,1,,,,,,,,,0,,,81,0
179880,set_tempo,1320,1,0,,,,,,422535,,,,,,,
180000,note_off,120,0,2,,,,,,,,,1,,,77,0
180000,note_on,120,0,1,,,,,,,,,0,,,84,84
180000,set_tempo,120,1,0,,,,,,416666,,,,,,,
180240,note_on,1200,0,4,,,,,,,,,3,,,41,69
180336,note_off,96,0,4,,,,,,,,,3,,,41,0
180480,note_on,144,0,4,,,,,,,,,3,,,45,67
180576,note_off,96,0,4,,,,,,,,,3,,,45,0
180720,note_on,144,0,4,,,,,,,,,3,,,48,65
180816,note_off,96,0,4,,,,,,,,,3,,,48,0
180960,note_on,0,0,1,,,,,,,,,0,,,75,73
180960,note_off,960,0,1,,,,,,,,,0,,,84,0
180960,note_on,144,0,4,,,,,,,,,3,,,53,63
181040,note_on,0,0,1,,,,,,,,,0,,,77,72
181040,note_off,80,0,1,,,,,,,,,0,,,75,0
181056,note_off,96,0,4,,,,,,,,,3,,,53,0
181120,note_off,80,0,1,,,,,,,,,0,,,77,0
181120,note_on,0,0,1,,,,,,,,,0,,,75,71
181200,note_on,0,0,1,,,,,,,,,0,,,74,71
181200,note_off,80,0,1,,,,,,,,,0,,,75,0
181200,note_on,144,0,4,,,,,,,,,3,,,57,61
181296,note_off,96,0,4,,,,,,,,,3,,,57,0
181320,note_on,0,0,1,,,,,,,,,0,,,75,68
181320,note_off,120,0,1,,,,,,,,,0,,,74,0
181320,set_tempo,1320,1,0,,,,,,422535,,,,,,,
181440,note_on,144,0,4,,,,,,,,,3,,,58,59
181440,set_tempo,120,1,0,,,,,,416666,,,,,,,
181440,note_off,120,0,1,,,,,,,,,0,,,75,0
181440,note_on,0,0,1,,,,,,,,,0,,,73,70
181560,note_on,1560,0,2,,,,,,,,,1,,,65,71
181560,note_off,120,0,1,,,,,,,,,0,,,73,0
181680,note_off,120,0,2,,,,,,,,,1,,,65,0
181680,note_on,120,0,1,,,,,,,,,0,,,70,72
181800,note_on,120,0,2,,,,,,,,,1,,,65,73
181800,note_off,120,0,1,,,,,,,,,0,,,70,0
181920,note_off,120,0,2,,,,,,,,,1,,,65,0
181920,note_off,480,0,4,,,,,,,,,3,,,58,0
181920,note_on,120,0,1,,,,,,,,,0,,,73,73
182040,note_off,120,0,1,,,,,,,,,0,,,73,0
182040,note_on,120,0,2,,,,,,,,,1,,,70,74
182160,note_on,120,0,1,,,,,,,,,0,,,77,75
182160,note_off,120,0,2,,,,,,,,,1,,,70,0
182280,note_off,120,0,1,,,,,,,,,0,,,77,0
182280,note_on,120,0,2,,,,,,,,,1,,,73,76
182400,note_on,120,0,1,,,,,,,,,0,,,82,77
182400,note_off,120,0,2,,,,,,,,,1,,,73,0
182520,note_off,120,0,1,,,,,,,,,0,,,82,0
182520,note_on,120,0,2,,,,,,,,,1,,,77,77
182640,note_on,120,0,1,,,,,,,,,0,,,85,78
182640,note_off,120,0,2,,,,,,,,,1,,,77,0
182760,note_off,120,0,1,,,,,,,,,0,,,85,0
182760,note_on,120,0,2,,,,,,,,,1,,,82,79
182760,set_tempo,1320,1,0,,,,,,422535,,,,,,,
182880,note_on,120,0,1,,,,,,,,,0,,,89,86
182880,note_off,120,0,2,,,,,,,,,1,,,82,0
182880,set_tempo,120,1,0,,,,,,416666,,,,,,,
183120,note_on,1200,0,4,,,,,,,,,3,,,34,74
183216,note_off,96,0,4,,,,,,,,,3,,,34,0
183360,note_on,144,0,4,,,,,,,,,3,,,38,72
183456,note_off,96,0,4,,,,,,,,,3,,,38,0
183600,note_on,144,0,4,,,,,,,,,3,,,41,69
183696,note_off,96,0,4,,,,,,,,,3,,,41,0
183840,note_off,960,0,1,,,,,,,,,0,,,89,0
183840,note_on,0,0,1,,,,,,,,,0,,,80,77
183840,note_on,144,0,4,,,,,,,,,3,,,46,67
183920,note_off,80,0,1,,,,,,,,,0,,,80,0
183920,note_on,0,0,1,,,,,,,,,0,,,82,76
183936,note_off,96,0,4,,,,,,,,,3,,,46,0
184000,note_off,80,0,1,,,,,,,,,0,,,82,0
184000,note_on,0,0,1,,,,,,,,,0,,,80,76
184080,note_off,80,0,1,,,,,,,,,0,,,80,0
184080,note_on,0,0,1,,,,,,,,,0,,,79,75
184080,note_on,144,0,4,,,,,,,,,3,,,50,64
184176,note_off,96,0,4,,,,,,,,,3,,,50,0
184200,note_off,120,0,1,,,,,,,,,0,,,79,0
184200,note_on,0,0,1,,,,,,,,,0,,,80,74
184200,set_tempo,1320,1,0,,,,,,422535,,,,,,,
184320,note_off,120,0,1,,,,,,,,,0,,,80,0
184320,note_on,0,0,1,,,,,,,,,0,,,79,76
184320,note_on,144,0,4,,,,,,,,,3,,,51,62
184320,set_tempo,120,1,0,,,,,,416666,,,,,,,
184440,note_off,120,0,1,,,,,,,,,0,,,79,0
184440,note_on,1560,0,2,,,,,,,,,1,,,55,77
184560,note_on,120,0,1,,,,,,,,,0,,,63,77
184560,note_off,120,0,2,,,,,,,,,1,,,55,0
184680,note_on,120,0,2,,,,,,,,,1,,,58,78
184680,note_off,120,0,1,,,,,,,,,0,,,63,0
184800,note_on,120,0,1,,,,,,,,,0,,,67,78
184800,note_off,120,0,2,,,,,,,,,1,,,58,0
184800,note_off,480,0,4,,,,,,,,,3,,,51,0
184920,note_off,120,0,1,,,,,,,,,0,,,67,0
184920,note_on,120,0,2,,,,,,,,,1,,,63,79
185040,note_off,120,0,2,,,,,,,,,1,,,63,0
185040,note_on,120,0,1,,,,,,,,,0,,,70,80
185160,note_on,120,0,2,,,,,,,,,1,,,67,80
185160,note_off,120,0,1,,,,,,,,,0,,,70,0
185280,note_on,120,0,1,,,,,,,,,0,,,75,81
185280,note_off,120,0,2,,,,,,,,,1,,,67,0
185400,note_on,120,0,2,,,,,,,,,1,,,70,81
185400,note_off,120,0,1,,,,,,,,,0,,,75,0
185520,note_off,120,0,2,,,,,,,,,1,,,70,0
185520,note_on,120,0,1,,,,,,,,,0,,,79,82
185640,note_on,120,0,2,,,,,,,,,1,,,75,82
185640,note_off,120,0,1,,,,,,,,,0,,,79,0
185640,set_tempo,1320,1,0,,,,,,422535,,,,,,,
185760,note_off,120,0,2,,,,,,,,,1,,,75,0
185760,note_on,120,0,1,,,,,,,,,0,,,82,91
185760,set_tempo,120,1,0,,,,,,416666,,,,,,,
186000,note_on,1200,0,4,,,,,,,,,3,,,39,81
186096,note_off,96,0,4,,,,,,,,,3,,,39,0
186240,note_on,144,0,4,,,,,,,,,3,,,43,79
186336,note_off,96,0,4,,,,,,,,,3,,,43,0
186480,note_on,144,0,4,,,,,,,,,3,,,46,77
186576,note_off,96,0,4,,,,,,,,,3,,,46,0
186720,note_on,144,0,4,,,,,,,,,3,,,51,75
186720,note_on,0,0,1,,,,,,,,,0,,,73,83
186720,note_off,960,0,1,,,,,,,,,0,,,82,0
186800,note_off,80,0,1,,,,,,,,,0,,,73,0
186800,note_on,0,0,1,,,,,,,,,0,,,75,82
186816,note_off,96,0,4,,,,,,,,,3,,,51,0
186880,note_off,80,0,1,,,,,,,,,0,,,75,0
186880,note_on,0,0,1,,,,,,,,,0,,,73,81
186960,note_on,0,0,1,,,,,,,,,0,,,72,80
186960,note_off,80,0,1,,,,,,,,,0,,,73,0
186960,note_on,144,0,4,,,,,,,,,3,,,55,73
187056,note_off,96,0,4,,,,,,,,,3,,,55,0
187080,set_tempo,1320,1,0,,,,,,422535,,,,,,,
187080,note_off,120,0,1,,,,,,,,,0,,,72,0
187080,note_on,0,0,1,,,,,,,,,0,,,73,79
187200,set_tempo,120,1,0,,,,,,416666,,,,,,,
187200,note_off,120,0,1,,,,,,,,,0,,,73,0
187200,note_on,144,0,4,,,,,,,,,3,,,56,70
187200,note_on,0,0,1,,,,,,,,,0,,,72,78
187296,note_off,96,0,4,,,,,,,,,3,,,56,0
187440,note_on,144,0,4,,,,,,,,,3,,,44,77
187536,note_off,96,0,4,,,,,,,,,3,,,44,0
187560,note_off,360,0,1,,,,,,,,,0,,,72,0
187680,note_on,144,0,4,,,,,,,,,3,,,48,75
187776,note_off,96,0,4,,,,,,,,,3,,,48,0
187920,note_on,144,0,4,,,,,,,,,3,,,51,72
188016,note_off,96,0,4,,,,,,,,,3,,,51,0
188160,note_on,144,0,4,,,,,,,,,3,,,56,70
188160,note_on,600,0,1,,,,,,,,,0,,,72,79
188240,note_off,80,0,1,,,,,,,,,0,,,72,0
188240,note_on,0,0,1,,,,,,,,,0,,,73,78
188256,note_off,96,0,4,,,,,,,,,3,,,56,0
188320,note_on,0,0,1,,,,,,,,,0,,,72,77
188320,note_off,80,0,1,,,,,,,,,0,,,73,0
188400,note_on,0,0,1,,,,,,,,,0,,,71,77
188400,note_off,80,0,1,,,,,,,,,0,,,72,0
188400,note_on,144,0,4,,,,,,,,,3,,,60,68
188496,note_off,96,0,4,,,,,,,,,3,,,60,0
188520,set_tempo,1320,1,0,,,,,,422535,,,,,,,
188520,note_off,120,0,1,,,,,,,,,0,,,71,0
188520,note_on,0,0,1,,,,,,,,,0,,,72,75
188640,set_tempo,120,1,0,,,,,,416666,,,,,,,
188640,note_off,120,0,1,,,,,,,,,0,,,72,0
188640,note_on,0,0,1,,,,,,,,,0,,,84,74
188880,note_on,384,0,4,,,,,,,,,3,,,44,73
188976,note_off,96,0,4,,,,,,,,,3,,,44,0
189000,note_off,360,0,1,,,,,,,,,0,,,84,0
189120,note_on,144,0,4,,,,,,,,,3,,,48,70
189216,note_off,96,0,4,,,,,,,,,3,,,48,0
189360,note_on,144,0,4,,,,,,,,,3,,,52,68
189456,note_off,96,0,4,,,,,,,,,3,,,52,0
189600,note_on,144,0,4,,,,,,,,,3,,,56,66
189600,note_on,600,0,1,,,,,,,,,0,,,72,72
189680,note_off,80,0,1,,,,,,,,,0,,,72,0
189680,note_on,0,0,1,,,,,,,,,0,,,73,71
189696,note_off,96,0,4,,,,,,,,,3,,,56,0
189760,note_off,80,0,1,,,,,,,,,0,,,73,0
189760,note_on,0,0,1,,,,,,,,,0,,,72,70
189840,note_on,144,0,4,,,,,,,,,3,,,60,64
189840,note_on,0,0,1,,,,,,,,,0,,,71,69
189840,note_off,80,0,1,,,,,,,,,0,,,72,0
189936,note_off,96,0,4,,,,,,,,,3,,,60,0
189960,set_tempo,1320,1,0,,,,,,422535,,,,,,,
189960,note_on,0,0,1,,,,,,,,,0,,,72,68
189960,note_off,120,0,1,,,,,,,,,0,,,71,0
190080,note_off,120,0,1,,,,,,,,,0,,,72,0
190080,set_tempo,120,1,0,,,,,,416666,,,,,,,
190080,note_on,0,0,1,,,,,,,,,0,,,84,66
190320,note_on,384,0,4,,,,,,,,,3,,,44,67
190416,note_off,96,0,4,,,,,,,,,3,,,44,0
190440,note_off,360,0,1,,,,,,,,,0,,,84,0
190560,note_on,144,0,4,,,,,,,,,3,,,48,65
190656,note_off,96,0,4,,,,,,,,,3,,,48,0
190800,note_on,144,0,4,,,,,,,,,3,,,53,63
190896,note_off,96,0,4,,,,,,,,,3,,,53,0
191040,note_on,600,0,1,,,,,,,,,0,,,72,67
191040,note_on,144,0,4,,,,,,,,,3,,,56,61
191120,note_off,80,0,1,,,,,,,,,0,,,72,0
191120,note_on,0,0,1,,,,,,,,,0,,,73,66
191136,note_off,96,0,4,,,,,,,,,3,,,56,0
191200,note_on,0,0,1,,,,,,,,,0,,,72,65
191200,note_off,80,0,1,,,,,,,,,0,,,73,0
191280,note_on,144,0,4,,,,,,,,,3,,,60,59
191280,note_on,0,0,1,,,,,,,,,0,,,71,64
191280,note_off,80,0,1,,,,,,,,,0,,,72,0
191376,note_off,96,0,4,,,,,,,,,3,,,60,0
191400,note_on,0,0,1,,,,,,,,,0,,,72,63
191400,note_off,120,0,1,,,,,,,,,0,,,71,0
191400,set_tempo,1320,1,0,,,,,,422535,,,,,,,
191520,note_off,120,0,1,,,,,,,,,0,,,72,0
191520,set_tempo,120,1,0,,,,,,416666,,,,,,,
191520,note_on,0,0,1,,,,,,,,,0,,,84,62
191760,note_on,384,0,4,,,,,,,,,3,,,44,67
191856,note_off,96,0,4,,,,,,,,,3,,,44,0
191880,note_off,360,0,1,,,,,,,,,0,,,84,0
192000,note_on,144,0,4,,,,,,,,,3,,,48,63
192096,note_off,96,0,4,,,,,,,,,3,,,48,0
192240,note_on,144,0,4,,,,,,,,,3,,,53,60
192336,note_off,96,0,4,,,,,,,,,3,,,53,0
192480,note_on,144,0,4,,,,,,,,,3,,,56,57
192576,note_off,96,0,4,,,,,,,,,3,,,56,0
192720,control_change,840,0,1,,,,,,,64,127,0,,,,
192720,note_on,0,0,1,,,,,,,,,0,,,60,60
192960,note_off,240,0,1,,,,,,,,,0,,,60,0
192960,note_on,0,0,1,,,,,,,,,0,,,65,60
193200,note_on,0,0,1,,,,,,,,,0,,,68,59
193200,note_off,240,0,1,,,,,,,,,0,,,65,0
193440,note_off,240,0,1,,,,,,,,,0,,,68,0
193440,note_on,0,0,1,,,,,,,,,0,,,72,58
193680,note_on,1104,0,4,,,,,,,,,3,,,44,59
193680,note_off,240,0,1,,,,,,,,,0,,,72,0
193920,note_on,0,0,4,,,,,,,,,3,,,48,57
193920,note_off,240,0,4,,,,,,,,,3,,,44,0
194160,note_on,0,0,4,,,,,,,,,3,,,53,55
194160,note_off,240,0,4,,,,,,,,,3,,,48,0
194400,note_on,0,0,4,,,,,,,,,3,,,56,53
194400,note_off,240,0,4,,,,,,,,,3,,,53,0
194640,note_on,960,0,1,,,,,,,,,0,,,60,55
194640,note_off,240,0,4,,,,,,,,,3,,,56,0
194880,note_off,240,0,1,,,,,,,,,0,,,60,0
194880,note_on,0,0,1,,,,,,,,,0,,,65,54
195120,note_off,240,0,1,,,,,,,,,0,,,65,0
195120,note_on,0,0,1,,,,,,,,,0,,,68,54
195360,note_off,240,0,1,,,,,,,,,0,,,68,0
195360,note_on,0,0,1,,,,,,,,,0,,,72,53
195600,control_change,960,0,4,,,,,,,64,127,3,,,,
195600,note_off,240,0,1,,,,,,,,,0,,,72,0
195600,note_on,0,0,4,,,,,,,,,3,,,44,53
195840,note_off,240,0,4,,,,,,,,,3,,,44,0
195840,note_on,0,0,4,,,,,,,,,3,,,48,53
196080,note_on,0,0,4,,,,,,,,,3,,,53,52
196080,note_off,240,0,4,,,,,,,,,3,,,48,0
196320,note_off,240,0,4,,,,,,,,,3,,,53,0
196320,note_on,0,0,4,,,,,,,,,3,,,56,51
196560,note_on,0,0,4,,,,,,,,,3,,,44,51
196560,note_off,240,0,4,,,,,,,,,3,,,56,0
196560,note_on,960,0,1,,,,,,,,,0,,,60,50
196800,note_off,240,0,1,,,,,,,,,0,,,60,0
196800,note_on,0,0,1,,,,,,,,,0,,,65,49
196800,note_off,240,0,4,,,,,,,,,3,,,44,0
196800,note_on,0,0,4,,,,,,,,,3,,,48,50
197040,note_off,240,0,4,,,,,,,,,3,,,48,0
197040,note_on,0,0,4,,,,,,,,,3,,,53,49
197040,note_off,240,0,1,,,,,,,,,0,,,65,0
197040,note_on,0,0,1,,,,,,,,,0,,,68,49
197280,note_off,240,0,4,,,,,,,,,3,,,53,0
197280,note_off,240,0,1,,,,,,,,,0,,,68,0
197280,note_on,0,0,4,,,,,,,,,3,,,56,52
197280,note_on,0,0,1,,,,,,,,,0,,,72,48
197520,note_off,240,0,4,,,,,,,,,3,,,56,0
197520,note_on,0,0,4,,,,,,,,,3,,,44,54
197520,note_on,0,0,1,,,,,,,,,0,,,60,51
197520,note_off,240,0,1,,,,,,,,,0,,,72,0
197760,note_on,0,0,4,,,,,,,,,3,,,48,56
197760,note_off,240,0,1,,,,,,,,,0,,,60,0
197760,note_on,0,0,1,,,,,,,,,0,,,65,54
197760,note_off,240,0,4,,,,,,,,,3,,,44,0
198000,note_on,0,0,4,,,,,,,,,3,,,53,59
198000,note_off,240,0,4,,,,,,,,,3,,,48,0
198000,note_off,240,0,1,,,,,,,,,0,,,65,0
198000,note_on,0,0,1,,,,,,,,,0,,,68,57
198240,note_on,0,0,1,,,,,,,,,0,,,72,59
198240,note_on,0,0,4,,,,,,,,,3,,,56,61
198240,note_off,240,0,4,,,,,,,,,3,,,53,0
198240,note_off,240,0,1,,,,,,,,,0,,,68,0
198480,note_on,0,0,4,,,,,,,,,3,,,44,64
198480,note_off,240,0,1,,,,,,,,,0,,,72,0
198480,note_off,240,0,4,,,,,,,,,3,,,56,0
198480,note_on,0,0,1,,,,,,,,,0,,,60,62
198720,note_off,240,0,4,,,,,,,,,3,,,44,0
198720,note_off,240,0,1,,,,,,,,,0,,,60,0
198720,note_on,0,0,1,,,,,,,,,0,,,65,65
198720,note_on,0,0,4,,,,,,,,,3,,,48,66
198960,note_off,240,0,4,,,,,,,,,3,,,48,0
198960,note_on,0,0,4,,,,,,,,,3,,,53,68
198960,note_on,0,0,1,,,,,,,,,0,,,68,68
198960,note_off,240,0,1,,,,,,,,,0,,,65,0
199200,note_off,240,0,4,,,,,,,,,3,,,53,0
199200,note_on,0,0,1,,,,,,,,,0,,,72,71
199200,note_off,240,0,1,,,,,,,,,0,,,68,0
199200,note_on,0,0,4,,,,,,,,,3,,,56,71
199320,set_tempo,7800,1,0,,,,,,422535,,,,,,,
199440,note_on,0,0,1,,,,,,,,,0,,,60,77
199440,note_off,240,0,4,,,,,,,,,3,,,56,0
199440,note_on,0,0,4,,,,,,,,,3,,,44,75
199440,note_off,240,0,1,,,,,,,,,0,,,72,0
199560,set_tempo,240,1,0,,,,,,428571,,,,,,,
199680,note_off,240,0,1,,,,,,,,,0,,,60,0
199680,note_on,0,0,1,,,,,,,,,0,,,65,82
199680,note_on,0,0,4,,,,,,,,,3,,,48,78
199680,note_off,240,0,4,,,,,,,,,3,,,44,0
199740,set_tempo,180,1,0,,,,,,447761,,,,,,,
199920,note_on,0,0,4,,,,,,,,,3,,,53,82
199920,set_tempo,180,1,0,,,,,,526315,,,,,,,
199920,note_off,240,0,4,,,,,,,,,3,,,48,0
199920,note_on,0,0,1,,,,,,,,,0,,,68,87
199920,note_off,240,0,1,,,,,,,,,0,,,65,0
200160,note_on,0,0,1,,,,,,,,,0,,,72,95
200160,note_off,240,0,4,,,,,,,,,3,,,53,0
200160,note_on,0,0,4,,,,,,,,,3,,,56,93
200160,note_off,240,0,1,,,,,,,,,0,,,68,0
200230,set_tempo,310,1,0,,,,,,416666,,,,,,,
200400,note_off,240,0,4,,,,,,,,,3,,,56,0
200520,note_off,360,0,1,,,,,,,,,0,,,72,0
200520,note_on,0,0,1,,,,,,,,,0,,,65,88
200640,note_off,120,0,1,,,,,,,,,0,,,65,0
200640,note_on,0,0,1,,,,,,,,,0,,,65,86
201000,control_change,360,0,1,,,,,,,64,0,0,,,,
201000,note_off,0,0,1,,,,,,,,,0,,,65,0
201090,set_tempo,860,1,0,,,,,,428571,,,,,,,
201120,control_change,720,0,4,,,,,,,64,0,3,,,,
201600,control_change,480,0,4,,,,,,,64,127,3,,,,
201600,note_on,0,0,1,,,,,,,,,0,,,72,77
201600,note_on,0,0,4,,,,,,,,,3,,,60,84
201600,control_change,600,0,1,,,,,,,64,127,0,,,,
201710,set_tempo,620,1,0,,,,,,425531,,,,,,,
201960,note_off,360,0,1,,,,,,,,,0,,,72,0
201960,note_on,0,0,4,,,,,,,,,3,,,53,69
201960,note_off,360,0,4,,,,,,,,,3,,,60,0
201960,note_on,0,0,1,,,,,,,,,0,,,65,68
202080,note_off,120,0,4,,,,,,,,,3,,,53,0
202080,note_on,0,0,4,,,,,,,,,3,,,53,66
202080,note_off,120,0,1,,,,,,,,,0,,,65,0
202080,note_on,0,0,1,,,,,,,,,0,,,65,65
202440,control_change,360,0,4,,,,,,,64,0,3,,,,
202440,note_off,0,0,1,,,,,,,,,0,,,65,0
202440,control_change,360,0,1,,,,,,,64,0,0,,,,
202440,note_off,0,0,4,,,,,,,,,3,,,53,0
202560,set_tempo,850,1,0,,,,,,441176,,,,,,,
203040,note_on,17280,0,2,,,,,,,,,1,,,60,44
203040,note_on,0,0,2,,,,,,,,,1,,,63,44
203040,note_on,600,0,4,,,,,,,,,3,,,32,40
203040,note_on,600,0,1,,,,,,,,,0,,,65,44
203040,note_on,24480,0,3,,,,,,,,,2,,,39,40
203040,set_tempo,480,1,0,,,,,,441176,,,,,,,
203328,note_off,288,0,1,,,,,,,,,0,,,65,0
203328,note_off,0,0,2,,,,,,,,,1,,,60,0
203328,note_off,288,0,2,,,,,,,,,1,,,63,0
203328,note_off,288,0,3,,,,,,,,,2,,,39,0
203328,note_off,288,0,4,,,,,,,,,3,,,32,0
203520,note_on,192,0,4,,,,,,,,,3,,,32,42
203520,note_on,0,0,2,,,,,,,,,1,,,63,46
203520,note_on,192,0,2,,,,,,,,,1,,,60,46
203520,note_on,192,0,1,,,,,,,,,0,,,65,46
203520,note_on,192,0,3,,,,,,,,,2,,,39,42
203775,set_tempo,735,1,0,,,,,,447761,,,,,,,
203808,note_off,288,0,4,,,,,,,,,3,,,32,0
203808,note_off,288,0,3,,,,,,,,,2,,,39,0
203808,note_off,288,0,1,,,,,,,,,0,,,65,0
203808,note_off,288,0,2,,,,,,,,,1,,,63,0
203808,note_off,0,0,2,,,,,,,,,1,,,60,0
204000,note_on,192,0,3,,,,,,,,,2,,,39,44
204000,note_on,192,0,4,,,,,,,,,3,,,32,44
204000,note_on,192,0,1,,,,,,,,,0,,,65,48
204000,note_on,192,0,2,,,,,,,,,1,,,60,48
204000,note_on,0,0,2,,,,,,,,,1,,,63,48
204030,set_tempo,255,1,0,,,,,,508474,,,,,,,
204288,note_off,288,0,1,,,,,,,,,0,,,65,0
204288,note_off,288,0,4,,,,,,,,,3,,,32,0
204288,note_off,288,0,2,,,,,,,,,1,,,63,0
204288,note_off,0,0,2,,,,,,,,,1,,,60,0
204288,note_off,288,0,3,,,,,,,,,2,,,39,0
204480,note_on,192,0,2,,,,,,,,,1,,,60,50
204480,note_on,0,0,2,,,,,,,,,1,,,63,50
204480,note_on,192,0,3,,,,,,,,,2,,,39,47
204480,set_tempo,450,1,0,,,,,,625000,,,,,,,
204480,note_on,192,0,1,,,,,,,,,0,,,66,50
204480,note_on,192,0,4,,,,,,,,,3,,,33,47
205800,note_off,1320,0,2,,,,,,,,,1,,,60,0
205800,note_off,1320,0,4,,,,,,,,,3,,,33,0
205800,note_off,1320,0,3,,,,,,,,,2,,,39,0
205807,note_off,7,0,2,,,,,,,,,1,,,63,0
205807,note_off,1327,0,1,,,,,,,,,0,,,66,0
205920,set_tempo,1440,1,0,,,,,,447761,,,,,,,
205920,note_on,113,0,1,,,,,,,,,0,,,66,57
205920,note_on,120,0,3,,,,,,,,,2,,,54,54
205920,note_on,0,0,3,,,,,,,,,2,,,51,54
205920,note_on,0,0,2,,,,,,,,,1,,,63,57
205920,note_on,113,0,2,,,,,,,,,1,,,60,57
205920,note_on,120,0,4,,,,,,,,,3,,,45,54
206160,note_off,240,0,2,,,,,,,,,1,,,60,0
206208,note_off,288,0,3,,,,,,,,,2,,,51,0
206208,note_off,288,0,1,,,,,,,,,0,,,66,0
206208,note_off,48,0,2,,,,,,,,,1,,,63,0
206208,note_off,0,0,3,,,,,,,,,2,,,54,0
206208,note_off,288,0,4,,,,,,,,,3,,,45,0
206400,note_on,192,0,4,,,,,,,,,3,,,45,58
206400,note_on,0,0,2,,,,,,,,,1,,,63,59
206400,note_on,192,0,3,,,,,,,,,2,,,51,58
206400,note_on,0,0,3,,,,,,,,,2,,,54,58
206400,note_on,192,0,2,,,,,,,,,1,,,60,57
206400,note_on,192,0,1,,,,,,,,,0,,,66,59
206595,set_tempo,675,1,0,,,,,,454545,,,,,,,
206640,note_off,240,0,2,,,,,,,,,1,,,60,0
206688,note_off,288,0,4,,,,,,,,,3,,,45,0
206688,note_off,288,0,1,,,,,,,,,0,,,66,0
206688,note_off,0,0,3,,,,,,,,,2,,,51,0
206688,note_off,288,0,3,,,,,,,,,2,,,54,0
206688,note_off,48,0,2,,,,,,,,,1,,,63,0
206865,set_tempo,270,1,0,,,,,,560747,,,,,,,
206880,note_on,0,0,2,,,,,,,,,1,,,63,61
206880,note_on,0,0,3,,,,,,,,,2,,,54,61
206880,note_on,192,0,3,,,,,,,,,2,,,51,61
206880,note_on,192,0,2,,,,,,,,,1,,,60,57
206880,note_on,192,0,1,,,,,,,,,0,,,66,61
206880,note_on,192,0,4,,,,,,,,,3,,,45,61
207120,note_off,240,0,2,,,,,,,,,1,,,60,0
207168,note_off,288,0,1,,,,,,,,,0,,,66,0
207168,note_off,0,0,3,,,,,,,,,2,,,51,0
207168,note_off,288,0,3,,,,,,,,,2,,,54,0
207168,note_off,48,0,2,,,,,,,,,1,,,63,0
207168,note_off,288,0,4,,,,,,,,,3,,,45,0
207360,note_on,0,0,3,,,,,,,,,2,,,55,68
207360,note_on,192,0,3,,,,,,,,,2,,,51,68
207360,note_on,0,0,2,,,,,,,,,1,,,63,68
207360,note_on,192,0,2,,,,,,,,,1,,,58,68
207360,note_on,192,0,4,,,,,,,,,3,,,46,69
207360,set_tempo,495,1,0,,,,,,582524,,,,,,,
207360,note_on,192,0,1,,,,,,,,,0,,,67,69
210120,note_off,2760,0,3,,,,,,,,,2,,,55,0
210120,note_off,2760,0,2,,,,,,,,,1,,,58,0
210120,note_off,2760,0,1,,,,,,,,,0,,,67,0
210120,note_off,0,0,3,,,,,,,,,2,,,51,0
210127,note_off,7,0,2,,,,,,,,,1,,,63,0
210127,note_off,2767,0,4,,,,,,,,,3,,,46,0
210240,note_on,0,0,2,,,,,,,,,1,,,62,51
210240,note_on,120,0,1,,,,,,,,,0,,,67,51
210240,note_on,113,0,4,,,,,,,,,3,,,34,51
210240,note_on,113,0,2,,,,,,,,,1,,,56,51
210240,note_on,120,0,3,,,,,,,,,2,,,46,51
210240,set_tempo,2880,1,0,,,,,,422535,,,,,,,
210480,note_on,0,0,1,,,,,,,,,0,,,65,50
210480,note_off,240,0,1,,,,,,,,,0,,,67,0
210660,note_off,420,0,3,,,,,,,,,2,,,46,0
210667,note_off,427,0,4,,,,,,,,,3,,,34,0
210667,note_off,0,0,2,,,,,,,,,1,,,56,0
210667,note_off,427,0,2,,,,,,,,,1,,,62,0
210720,note_on,0,0,1,,,,,,,,,0,,,65,50
210720,note_off,240,0,1,,,,,,,,,0,,,65,0
210720,note_on,53,0,4,,,,,,,,,3,,,34,49
210720,note_on,53,0,2,,,,,,,,,1,,,56,50
210720,note_on,60,0,3,,,,,,,,,2,,,46,49
210720,note_on,0,0,2,,,,,,,,,1,,,62,50
210840,note_on,0,0,1,,,,,,,,,0,,,67,49
210840,note_off,120,0,1,,,,,,,,,0,,,65,0
210960,note_off,120,0,1,,,,,,,,,0,,,67,0
210960,note_on,0,0,1,,,,,,,,,0,,,65,49
211080,note_on,0,0,1,,,,,,,,,0,,,64,48
211080,note_off,120,0,1,,,,,,,,,0,,,65,0
211132,note_off,412,0,2,,,,,,,,,1,,,56,0
211140,note_off,420,0,3,,,,,,,,,2,,,46,0
211147,note_off,15,0,2,,,,,,,,,1,,,62,0
211147,note_off,427,0,4,,,,,,,,,3,,,34,0
211200,note_on,53,0,4,,,,,,,,,3,,,34,47
211200,note_on,53,0,2,,,,,,,,,1,,,56,48
211200,note_on,0,0,2,,,,,,,,,1,,,62,48
211200,note_on,60,0,3,,,,,,,,,2,,,46,47
211200,note_on,0,0,1,,,,,,,,,0,,,65,48
211200,note_off,120,0,1,,,,,,,,,0,,,64,0
211356,note_off,156,0,1,,,,,,,,,0,,,65,0
211440,note_on,84,0,1,,,,,,,,,0,,,67,47
211560,set_tempo,1320,1,0,,,,,,428571,,,,,,,
211596,note_off,156,0,1,,,,,,,,,0,,,67,0
211620,note_off,420,0,2,,,,,,,,,1,,,62,0
211627,note_off,427,0,3,,,,,,,,,2,,,46,0
211627,note_off,427,0,4,,,,,,,,,3,,,34,0
211635,note_off,15,0,2,,,,,,,,,1,,,56,0
211680,note_on,53,0,4,,,,,,,,,3,,,39,45
211680,note_on,45,0,2,,,,,,,,,1,,,55,48
211680,note_on,53,0,3,,,,,,,,,2,,,51,45
211680,set_tempo,120,1,0,,,,,,416666,,,,,,,
211680,note_on,84,0,1,,,,,,,,,0,,,63,48
211800,note_off,120,0,1,,,,,,,,,0,,,63,0
211800,note_on,0,0,1,,,,,,,,,0,,,65,48
211920,note_on,0,0,1,,,,,,,,,0,,,63,48
211920,note_off,120,0,1,,,,,,,,,0,,,65,0
212040,note_off,120,0,1,,,,,,,,,0,,,63,0
212040,note_on,0,0,1,,,,,,,,,0,,,62,49
212160,note_on,0,0,1,,,,,,,,,0,,,63,49
212160,note_off,120,0,1,,,,,,,,,0,,,62,0
212160,note_off,480,0,4,,,,,,,,,3,,,39,0
212160,note_off,480,0,3,,,,,,,,,2,,,51,0
212160,note_off,480,0,2,,,,,,,,,1,,,55,0
212264,note_off,104,0,1,,,,,,,,,0,,,63,0
212320,note_on,56,0,1,,,,,,,,,0,,,65,49
212424,note_off,104,0,1,,,,,,,,,0,,,65,0
212480,note_on,56,0,1,,,,,,,,,0,,,67,50
212584,note_off,104,0,1,,,,,,,,,0,,,67,0
212640,note_on,56,0,1,,,,,,,,,0,,,68,50
212744,note_off,104,0,1,,,,,,,,,0,,,68,0
212800,note_on,56,0,1,,,,,,,,,0,,,70,51
212904,note_off,104,0,1,,,,,,,,,0,,,70,0
212960,note_on,56,0,1,,,,,,,,,0,,,72,51
213064,note_off,104,0,1,,,,,,,,,0,,,72,0
213120,note_on,56,0,1,,,,,,,,,0,,,74,51
213224,note_off,104,0,1,,,,,,,,,0,,,74,0
213280,note_on,56,0,1,,,,,,,,,0,,,75,52
213384,note_off,104,0,1,,,,,,,,,0,,,75,0
213440,note_on,56,0,1,,,,,,,,,0,,,77,52
213544,note_off,104,0,1,,,,,,,,,0,,,77,0
213600,note_on,56,0,1,,,,,,,,,0,,,78,53
213704,note_off,104,0,1,,,,,,,,,0,,,78,0
213760,note_on,56,0,1,,,,,,,,,0,,,79,53
213864,note_off,104,0,1,,,,,,,,,0,,,79,0
213920,note_on,56,0,1,,,,,,,,,0,,,80,54
214024,note_off,104,0,1,,,,,,,,,0,,,80,0
214080,note_on,56,0,1,,,,,,,,,0,,,81,54
214080,set_tempo,2400,1,0,,,,,,422535,,,,,,,
214184,note_off,104,0,1,,,,,,,,,0,,,81,0
214240,note_on,56,0,1,,,,,,,,,0,,,82,54
214240,set_tempo,160,1,0,,,,,,428571,,,,,,,
214344,note_off,104,0,1,,,,,,,,,0,,,82,0
214365,set_tempo,125,1,0,,,,,,487804,,,,,,,
214400,note_on,56,0,1,,,,,,,,,0,,,83,55
214504,note_off,104,0,1,,,,,,,,,0,,,83,0
214560,note_on,0,0,1,,,,,,,,,0,,,84,56
214560,control_change,56,0,1,,,,,,,64,127,0,,,,
214560,note_on,0,0,3,,,,,,,,,2,,,72,51
214560,set_tempo,195,1,0,,,,,,416666,,,,,,,
214560,note_on,2400,0,3,,,,,,,,,2,,,75,51
214560,note_on,2400,0,4,,,,,,,,,3,,,68,51
214920,note_on,0,0,1,,,,,,,,,0,,,77,54
214920,note_off,360,0,1,,,,,,,,,0,,,84,0
215040,note_off,120,0,1,,,,,,,,,0,,,77,0
215040,note_on,0,0,1,,,,,,,,,0,,,77,53
215400,control_change,360,0,1,,,,,,,64,0,0,,,,
215400,note_off,840,0,3,,,,,,,,,2,,,72,0
215400,note_off,840,0,4,,,,,,,,,3,,,68,0
215407,note_off,7,0,3,,,,,,,,,2,,,75,0
215490,set_tempo,930,1,0,,,,,,428571,,,,,,,
215520,note_off,120,0,1,,,,,,,,,0,,,77,0
215940,note_on,420,0,1,,,,,,,,,0,,,71,49
216000,note_on,0,0,1,,,,,,,,,0,,,72,48
216000,note_on,0,0,3,,,,,,,,,2,,,60,47
216000,note_on,593,0,3,,,,,,,,,2,,,63,47
216000,control_change,60,0,1,,,,,,,64,127,0,,,,
216000,note_off,0,0,1,,,,,,,,,0,,,71,0
216000,set_tempo,510,1,0,,,,,,425531,,,,,,,
216000,note_on,600,0,4,,,,,,,,,3,,,56,47
216360,note_on,0,0,1,,,,,,,,,0,,,65,47
216360,note_off,360,0,1,,,,,,,,,0,,,72,0
216480,note_on,0,0,1,,,,,,,,,0,,,65,46
216480,note_off,120,0,1,,,,,,,,,0,,,65,0
216840,note_off,840,0,4,,,,,,,,,3,,,56,0
216840,control_change,360,0,1,,,,,,,64,0,0,,,,
216847,note_off,847,0,3,,,,,,,,,2,,,60,0
216847,note_off,0,0,3,,,,,,,,,2,,,63,0
216960,note_off,0,0,1,,,,,,,,,0,,,65,0
216960,control_change,120,0,1,,,,,,,64,0,0,,,,
216960,set_tempo,960,1,0,,,,,,447761,,,,,,,
217440,note_on,600,0,4,,,,,,,,,3,,,32,42
217440,note_on,0,0,3,,,,,,,,,2,,,48,46
217440,set_tempo,480,1,0,,,,,,441176,,,,,,,
217440,note_on,480,0,1,,,,,,,,,0,,,53,46
217440,note_on,593,0,3,,,,,,,,,2,,,51,46
217440,note_on,0,0,3,,,,,,,,,2,,,44,42
217728,note_off,288,0,3,,,,,,,,,2,,,44,0
217728,note_off,288,0,4,,,,,,,,,3,,,32,0
217728,note_off,0,0,3,,,,,,,,,2,,,51,0
217728,note_off,288,0,1,,,,,,,,,0,,,53,0
217728,note_off,0,0,3,,,,,,,,,2,,,48,0
217920,note_on,192,0,1,,,,,,,,,0,,,53,47
217920,note_on,0,0,3,,,,,,,,,2,,,44,44
217920,note_on,0,0,3,,,,,,,,,2,,,48,47
217920,note_on,192,0,3,,,,,,,,,2,,,51,47
217920,note_on,192,0,4,,,,,,,,,3,,,32,44
218175,set_tempo,735,1,0,,,,,,447761,,,,,,,
218208,note_off,0,0,3,,,,,,,,,2,,,51,0
218208,note_off,0,0,3,,,,,,,,,2,,,48,0
218208,note_off,288,0,1,,,,,,,,,0,,,53,0
218208,note_off,288,0,3,,,,,,,,,2,,,44,0
218208,note_off,288,0,4,,,,,,,,,3,,,32,0
218400,note_on,192,0,4,,,,,,,,,3,,,32,46
218400,note_on,0,0,3,,,,,,,,,2,,,44,46
218400,note_on,192,0,3,,,,,,,,,2,,,51,48
218400,note_on,0,0,3,,,,,,,,,2,,,48,48
218400,note_on,192,0,1,,,,,,,,,0,,,53,48
218430,set_tempo,255,1,0,,,,,,508474,,,,,,,
218688,note_off,288,0,4,,,,,,,,,3,,,32,0
218688,note_off,0,0,3,,,,,,,,,2,,,48,0
218688,note_off,288,0,3,,,,,,,,,2,,,44,0
218688,note_off,0,0,3,,,,,,,,,2,,,51,0
218688,note_off,288,0,1,,,,,,,,,0,,,53,0
218880,set_tempo,450,1,0,,,,,,674157,,,,,,,
218880,note_on,0,0,3,,,,,,,,,2,,,48,50
218880,note_on,0,0,3,,,,,,,,,2,,,45,48
218880,note_on,192,0,1,,,,,,,,,0,,,54,50
218880,note_on,192,0,3,,,,,,,,,2,,,51,50
218880,note_on,192,0,4,,,,,,,,,3,,,33,48
220200,note_off,1320,0,3,,,,,,,,,2,,,48,0
220200,note_off,0,0,3,,,,,,,,,2,,,51,0
220200,note_off,1320,0,1,,,,,,,,,0,,,54,0
220207,note_off,1327,0,4,,,,,,,,,3,,,33,0
220222,note_off,22,0,3,,,,,,,,,2,,,45,0
220320,note_on,8160,0,2,,,,,,,,,1,,,72,59
220320,note_on,0,0,2,,,,,,,,,1,,,75,59
220320,set_tempo,1440,1,0,,,,,,447761,,,,,,,
220320,note_on,113,0,4,,,,,,,,,3,,,69,52
220320,note_on,120,0,1,,,,,,,,,0,,,78,59
220608,note_off,288,0,1,,,,,,,,,0,,,78,0
220608,note_off,288,0,2,,,,,,,,,1,,,75,0
220608,note_off,0,0,2,,,,,,,,,1,,,72,0
220608,note_off,288,0,4,,,,,,,,,3,,,69,0
220800,note_on,192,0,1,,,,,,,,,0,,,78,61
220800,note_on,192,0,4,,,,,,,,,3,,,69,55
220800,note_on,192,0,2,,,,,,,,,1,,,72,61
220800,note_on,0,0,2,,,,,,,,,1,,,75,61
220995,set_tempo,675,1,0,,,,,,454545,,,,,,,
221088,note_off,288,0,4,,,,,,,,,3,,,69,0
221088,note_off,288,0,1,,,,,,,,,0,,,78,0
221088,note_off,288,0,2,,,,,,,,,1,,,75,0
221088,note_off,0,0,2,,,,,,,,,1,,,72,0
221265,set_tempo,270,1,0,,,,,,560747,,,,,,,
221280,note_on,192,0,1,,,,,,,,,0,,,78,63
221280,note_on,192,0,4,,,,,,,,,3,,,69,58
221280,note_on,192,0,2,,,,,,,,,1,,,72,63
221280,note_on,0,0,2,,,,,,,,,1,,,75,63
221568,note_off,288,0,2,,,,,,,,,1,,,75,0
221568,note_off,288,0,4,,,,,,,,,3,,,69,0
221568,note_off,288,0,1,,,,,,,,,0,,,78,0
221568,note_off,0,0,2,,,,,,,,,1,,,72,0
221760,note_on,192,0,1,,,,,,,,,0,,,79,68
221760,note_on,192,0,2,,,,,,,,,1,,,75,68
221760,set_tempo,495,1,0,,,,,,582524,,,,,,,
221760,note_on,192,0,4,,,,,,,,,3,,,70,63
224520,note_off,2760,0,1,,,,,,,,,0,,,79,0
224520,note_off,2760,0,2,,,,,,,,,1,,,75,0
224527,note_off,2767,0,4,,,,,,,,,3,,,70,0
224640,note_on,4418,0,3,,,,,,,,,2,,,62,57
224640,note_on,0,0,3,,,,,,,,,2,,,56,57
224640,note_on,120,0,1,,,,,,,,,0,,,67,57
224640,note_on,113,0,4,,,,,,,,,3,,,46,53
224640,note_on,0,0,4,,,,,,,,,3,,,34,53
224640,set_tempo,2880,1,0,,,,,,422535,,,,,,,
224880,note_on,0,0,1,,,,,,,,,0,,,65,56
224880,note_off,240,0,1,,,,,,,,,0,,,67,0
225075,note_off,435,0,4,,,,,,,,,3,,,34,0
225075,note_off,435,0,3,,,,,,,,,2,,,62,0
225075,note_off,0,0,4,,,,,,,,,3,,,46,0
225082,note_off,7,0,3,,,,,,,,,2,,,56,0
225120,note_on,38,0,3,,,,,,,,,2,,,62,55
225120,note_on,0,0,3,,,,,,,,,2,,,56,55
225120,note_on,0,0,4,,,,,,,,,3,,,34,53
225120,note_on,0,0,1,,,,,,,,,0,,,65,55
225120,note_off,240,0,1,,,,,,,,,0,,,65,0
225120,note_on,45,0,4,,,,,,,,,3,,,46,53
225240,note_on,0,0,1,,,,,,,,,0,,,67,55
225240,note_off,120,0,1,,,,,,,,,0,,,65,0
225360,note_off,120,0,1,,,,,,,,,0,,,67,0
225360,note_on,0,0,1,,,,,,,,,0,,,65,55
225480,note_off,120,0,1,,,,,,,,,0,,,65,0
225480,note_on,0,0,1,,,,,,,,,0,,,64,54
225540,note_off,420,0,3,,,,,,,,,2,,,56,0
225540,note_off,420,0,4,,,,,,,,,3,,,34,0
225547,note_off,7,0,3,,,,,,,,,2,,,62,0
225547,note_off,7,0,4,,,,,,,,,3,,,46,0
225600,note_on,53,0,3,,,,,,,,,2,,,62,54
225600,note_on,53,0,4,,,,,,,,,3,,,46,52
225600,note_off,120,0,1,,,,,,,,,0,,,64,0
225600,note_on,0,0,4,,,,,,,,,3,,,34,52
225600,note_on,0,0,3,,,,,,,,,2,,,56,54
225600,note_on,0,0,1,,,,,,,,,0,,,65,54
225756,note_off,156,0,1,,,,,,,,,0,,,65,0
225840,note_on,84,0,1,,,,,,,,,0,,,67,53
225960,set_tempo,1320,1,0,,,,,,428571,,,,,,,
225996,note_off,156,0,1,,,,,,,,,0,,,67,0
226020,note_off,420,0,3,,,,,,,,,2,,,62,0
226020,note_off,420,0,4,,,,,,,,,3,,,34,0
226027,note_off,7,0,3,,,,,,,,,2,,,56,0
226042,note_off,22,0,4,,,,,,,,,3,,,46,0
226080,note_on,0,0,3,,,,,,,,,2,,,51,51
226080,note_on,53,0,3,,,,,,,,,2,,,55,52
226080,note_on,84,0,1,,,,,,,,,0,,,63,52
226080,note_on,38,0,4,,,,,,,,,3,,,39,51
226080,set_tempo,120,1,0,,,,,,416666,,,,,,,
226320,note_on,0,0,3,,,,,,,,,2,,,51,45
226320,note_off,240,0,3,,,,,,,,,2,,,51,0
226560,note_off,0,0,3,,,,,,,,,2,,,55,0
226560,note_on,0,0,3,,,,,,,,,2,,,51,45
226560,note_off,240,0,3,,,,,,,,,2,,,51,0
226560,note_off,480,0,1,,,,,,,,,0,,,63,0
226800,note_off,240,0,3,,,,,,,,,2,,,51,0
226800,note_on,0,0,3,,,,,,,,,2,,,51,45
227040,note_off,240,0,3,,,,,,,,,2,,,51,0
227040,note_on,0,0,3,,,,,,,,,2,,,51,45
227265,set_tempo,1185,1,0,,,,,,422535,,,,,,,
227280,note_on,0,0,3,,,,,,,,,2,,,51,45
227280,note_off,240,0,3,,,,,,,,,2,,,51,0
227460,note_on,900,0,1,,,,,,,,,0,,,86,52
227520,note_on,0,0,1,,,,,,,,,0,,,87,52
227520,note_off,1440,0,4,,,,,,,,,3,,,39,0
227520,note_on,0,0,4,,,,,,,,,3,,,63,55
227520,note_on,0,0,4,,,,,,,,,3,,,60,55
227520,note_off,240,0,3,,,,,,,,,2,,,51,0
227520,control_change,60,0,1,,,,,,,64,127,0,,,,
227520,note_off,0,0,1,,,,,,,,,0,,,86,0
227520,set_tempo,255,1,0,,,,,,416666,,,,,,,
227520,note_on,0,0,3,,,,,,,,,2,,,51,44
227760,note_on,0,0,3,,,,,,,,,2,,,51,44
227760,note_off,240,0,3,,,,,,,,,2,,,51,0
227880,note_on,0,0,1,,,,,,,,,0,,,80,51
227880,note_off,360,0,1,,,,,,,,,0,,,87,0
228000,note_on,0,0,3,,,,,,,,,2,,,51,44
228000,note_off,240,0,3,,,,,,,,,2,,,51,0
228000,note_off,120,0,1,,,,,,,,,0,,,80,0
228000,note_on,0,0,1,,,,,,,,,0,,,80,51
228240,note_off,240,0,3,,,,,,,,,2,,,51,0
228240,note_on,0,0,3,,,,,,,,,2,,,51,44
228360,note_off,0,0,1,,,,,,,,,0,,,80,0
228360,control_change,360,0,1,,,,,,,64,0,0,,,,
228480,note_off,240,0,3,,,,,,,,,2,,,51,0
228480,note_on,0,0,3,,,,,,,,,2,,,51,44
228720,note_off,240,0,3,,,,,,,,,2,,,51,0
228720,note_on,0,0,3,,,,,,,,,2,,,51,43
228720,set_tempo,1200,1,0,,,,,,422535,,,,,,,
228900,note_on,540,0,1,,,,,,,,,0,,,74,50
228960,note_on,0,0,4,,,,,,,,,3,,,62,53
228960,note_off,0,0,4,,,,,,,,,3,,,63,0
228960,note_off,1440,0,4,,,,,,,,,3,,,60,0
228960,note_on,0,0,4,,,,,,,,,3,,,58,53
228960,control_change,60,0,1,,,,,,,64,127,0,,,,
228960,set_tempo,240,1,0,,,,,,416666,,,,,,,
228960,note_on,0,0,1,,,,,,,,,0,,,75,50
228960,note_off,240,0,3,,,,,,,,,2,,,51,0
228960,note_on,0,0,3,,,,,,,,,2,,,51,43
228960,note_off,0,0,1,,,,,,,,,0,,,74,0
229200,note_off,240,0,3,,,,,,,,,2,,,51,0
229200,note_on,0,0,3,,,,,,,,,2,,,51,43
229320,note_off,360,0,1,,,,,,,,,0,,,75,0
229320,note_on,0,0,1,,,,,,,,,0,,,67,50
229440,note_on,0,0,3,,,,,,,,,2,,,51,43
229440,note_off,240,0,3,,,,,,,,,2,,,51,0
229440,note_on,0,0,1,,,,,,,,,0,,,67,50
229440,note_off,120,0,1,,,,,,,,,0,,,67,0
229680,note_on,0,0,3,,,,,,,,,2,,,51,43
229680,note_off,240,0,3,,,,,,,,,2,,,51,0
229800,note_off,0,0,1,,,,,,,,,0,,,67,0
229800,control_change,360,0,1,,,,,,,64,0,0,,,,
229920,note_on,0,0,3,,,,,,,,,2,,,51,42
229920,note_off,240,0,3,,,,,,,,,2,,,51,0
230160,set_tempo,1200,1,0,,,,,,422535,,,,,,,
230160,note_on,0,0,3,,,,,,,,,2,,,51,42
230160,note_off,240,0,3,,,,,,,,,2,,,51,0
230400,note_on,600,0,1,,,,,,,,,0,,,75,48
230400,note_on,0,0,4,,,,,,,,,3,,,56,52
230400,note_on,0,0,4,,,,,,,,,3,,,60,48
230400,note_off,0,0,4,,,,,,,,,3,,,62,0
230400,note_off,1440,0,4,,,,,,,,,3,,,58,0
230400,note_on,0,0,3,,,,,,,,,2,,,51,42
230400,note_off,240,0,3,,,,,,,,,2,,,51,0
230400,set_tempo,240,1,0,,,,,,416666,,,,,,,
230400,control_change,5880,0,2,,,,,,,64,127,1,,,,
230520,note_on,120,0,2,,,,,,,,,1,,,65,43
230616,note_off,96,0,2,,,,,,,,,1,,,65,0
230640,note_off,240,0,3,,,,,,,,,2,,,51,0
230640,note_on,0,0,3,,,,,,,,,2,,,51,42
230760,note_off,360,0,1,,,,,,,,,0,,,75,0
230760,control_change,144,0,2,,,,,,,64,0,1,,,,
230760,note_off,360,0,4,,,,,,,,,3,,,56,0
230760,note_off,0,0,4,,,,,,,,,3,,,60,0
230880,control_change,120,0,2,,,,,,,64,127,1,,,,
230880,note_off,240,0,3,,,,,,,,,2,,,51,0
230880,note_on,0,0,3,,,,,,,,,2,,,51,42
230880,note_on,120,0,4,,,,,,,,,3,,,60,47
230880,note_on,0,0,4,,,,,,,,,3,,,56,51
230880,note_on,120,0,1,,,,,,,,,0,,,75,48
231000,note_on,120,0,2,,,,,,,,,1,,,65,43
231096,note_off,96,0,2,,,,,,,,,1,,,65,0
231120,note_off,240,0,3,,,,,,,,,2,,,51,0
231120,note_on,0,0,3,,,,,,,,,2,,,51,41
231240,note_off,360,0,4,,,,,,,,,3,,,56,0
231240,note_off,360,0,1,,,,,,,,,0,,,75,0
231240,control_change,144,0,2,,,,,,,64,0,1,,,,
231240,note_off,0,0,4,,,,,,,,,3,,,60,0
231360,note_off,240,0,3,,,,,,,,,2,,,51,0
231360,note_on,0,0,3,,,,,,,,,2,,,51,41
231360,control_change,120,0,2,,,,,,,64,127,1,,,,
231360,note_on,120,0,4,,,,,,,,,3,,,59,46
231360,note_on,120,0,1,,,,,,,,,0,,,74,47
231360,note_on,0,0,4,,,,,,,,,3,,,56,50
231480,note_on,120,0,2,,,,,,,,,1,,,65,42
231576,note_off,96,0,2,,,,,,,,,1,,,65,0
231600,note_off,240,0,3,,,,,,,,,2,,,51,0
231600,note_on,0,0,3,,,,,,,,,2,,,51,41
231720,note_off,360,0,4,,,,,,,,,3,,,56,0
231720,note_off,360,0,1,,,,,,,,,0,,,74,0
231720,note_off,0,0,4,,,,,,,,,3,,,59,0
231720,control_change,144,0,2,,,,,,,64,0,1,,,,
231720,set_tempo,1320,1,0,,,,,,422535,,,,,,,
231840,note_on,120,0,4,,,,,,,,,3,,,55,50
231840,note_on,0,0,4,,,,,,,,,3,,,58,45
231840,note_on,120,0,1,,,,,,,,,0,,,75,47
231840,set_tempo,120,1,0,,,,,,416666,,,,,,,
231840,control_change,120,0,2,,,,,,,64,127,1,,,,
231840,note_off,240,0,3,,,,,,,,,2,,,51,0
231840,note_on,0,0,3,,,,,,,,,2,,,51,41
231960,note_on,120,0,2,,,,,,,,,1,,,63,41
232056,note_off,96,0,2,,,,,,,,,1,,,63,0
232080,note_on,0,0,3,,,,,,,,,2,,,51,41
232080,note_off,240,0,3,,,,,,,,,2,,,51,0
232200,note_off,0,0,4,,,,,,,,,3,,,55,0
232200,note_off,360,0,1,,,,,,,,,0,,,75,0
232200,note_off,360,0,4,,,,,,,,,3,,,58,0
232320,note_off,240,0,3,,,,,,,,,2,,,51,0
232320,control_change,264,0,2,,,,,,,64,0,1,,,,
232320,note_on,0,0,3,,,,,,,,,2,,,51,40
232560,note_on,0,0,3,,,,,,,,,2,,,51,40
232560,note_off,240,0,3,,,,,,,,,2,,,51,0
232800,note_on,0,0,3,,,,,,,,,2,,,51,40
232800,note_off,240,0,3,,,,,,,,,2,,,51,0
233040,note_on,0,0,3,,,,,,,,,2,,,51,40
233040,set_tempo,1200,1,0,,,,,,422535,,,,,,,
233040,note_off,240,0,3,,,,,,,,,2,,,51,0
233280,control_change,1080,0,1,,,,,,,64,127,0,,,,
233280,set_tempo,240,1,0,,,,,,416666,,,,,,,
233280,note_on,1080,0,4,,,,,,,,,3,,,63,53
233280,note_off,240,0,3,,,,,,,,,2,,,51,0
233280,note_on,0,0,3,,,,,,,,,2,,,51,40
233280,note_on,0,0,4,,,,,,,,,3,,,60,53
233400,note_on,120,0,1,,,,,,,,,0,,,87,51
233520,note_off,240,0,3,,,,,,,,,2,,,51,0
233520,note_on,0,0,1,,,,,,,,,0,,,86,51
233520,note_off,120,0,1,,,,,,,,,0,,,87,0
233520,note_on,0,0,3,,,,,,,,,2,,,51,40
233640,note_off,120,0,1,,,,,,,,,0,,,86,0
233640,note_on,0,0,1,,,,,,,,,0,,,87,50
233760,note_on,0,0,1,,,,,,,,,0,,,86,50
233760,note_off,120,0,1,,,,,,,,,0,,,87,0
233760,note_off,240,0,3,,,,,,,,,2,,,51,0
233760,note_on,0,0,3,,,,,,,,,2,,,51,39
233880,note_on,0,0,1,,,,,,,,,0,,,87,49
233880,note_off,120,0,1,,,,,,,,,0,,,86,0
234000,note_on,0,0,3,,,,,,,,,2,,,51,39
234000,note_on,0,0,1,,,,,,,,,0,,,86,49
234000,note_off,120,0,1,,,,,,,,,0,,,87,0
234000,note_off,240,0,3,,,,,,,,,2,,,51,0
234120,note_on,0,0,1,,,,,,,,,0,,,87,49
234120,note_off,120,0,1,,,,,,,,,0,,,86,0
234240,note_off,240,0,3,,,,,,,,,2,,,51,0
234240,note_off,0,0,1,,,,,,,,,0,,,87,0
234240,note_on,0,0,1,,,,,,,,,0,,,80,48
234240,note_on,0,0,3,,,,,,,,,2,,,51,39
234240,control_change,120,0,1,,,,,,,64,0,0,,,,
234480,note_off,240,0,3,,,,,,,,,2,,,51,0
234480,set_tempo,1200,1,0,,,,,,422535,,,,,,,
234480,note_on,0,0,3,,,,,,,,,2,,,51,39
234480,note_off,240,0,1,,,,,,,,,0,,,80,0
234720,note_off,0,0,4,,,,,,,,,3,,,63,0
234720,note_off,1440,0,4,,,,,,,,,3,,,60,0
234720,note_off,240,0,3,,,,,,,,,2,,,51,0
234720,note_on,0,0,4,,,,,,,,,3,,,58,51
234720,set_tempo,240,1,0,,,,,,416666,,,,,,,
234720,note_on,0,0,3,,,,,,,,,2,,,51,39
234720,note_on,0,0,4,,,,,,,,,3,,,62,51
234720,control_change,240,0,1,,,,,,,64,127,0,,,,
234840,note_on,120,0,1,,,,,,,,,0,,,75,46
234960,note_off,120,0,1,,,,,,,,,0,,,75,0
234960,note_on,0,0,1,,,,,,,,,0,,,74,46
234960,note_on,0,0,3,,,,,,,,,2,,,51,38
234960,note_off,240,0,3,,,,,,,,,2,,,51,0
235080,note_off,120,0,1,,,,,,,,,0,,,74,0
235080,note_on,0,0,1,,,,,,,,,0,,,75,45
235200,note_off,120,0,1,,,,,,,,,0,,,75,0
235200,note_on,0,0,3,,,,,,,,,2,,,51,38
235200,note_off,240,0,3,,,,,,,,,2,,,51,0
235200,note_on,0,0,1,,,,,,,,,0,,,74,45
235320,note_on,0,0,1,,,,,,,,,0,,,75,44
235320,note_off,120,0,1,,,,,,,,,0,,,74,0
235440,note_off,240,0,3,,,,,,,,,2,,,51,0
235440,note_on,0,0,3,,,,,,,,,2,,,51,38
235440,note_on,0,0,1,,,,,,,,,0,,,74,44
235440,note_off,120,0,1,,,,,,,,,0,,,75,0
235560,note_on,0,0,1,,,,,,,,,0,,,75,43
235560,note_off,120,0,1,,,,,,,,,0,,,74,0
235680,note_on,0,0,1,,,,,,,,,0,,,67,43
235680,note_off,0,0,1,,,,,,,,,0,,,75,0
235680,control_change,120,0,1,,,,,,,64,0,0,,,,
235680,note_on,0,0,3,,,,,,,,,2,,,51,38
235680,note_off,240,0,3,,,,,,,,,2,,,51,0
235920,set_tempo,1200,1,0,,,,,,422535,,,,,,,
235920,note_on,0,0,3,,,,,,,,,2,,,51,38
235920,note_off,240,0,3,,,,,,,,,2,,,51,0
235920,note_off,240,0,1,,,,,,,,,0,,,67,0
236160,set_tempo,240,1,0,,,,,,416666,,,,,,,
236160,note_off,0,0,4,,,,,,,,,3,,,58,0
236160,note_off,240,0,3,,,,,,,,,2,,,51,0
236160,note_on,0,0,4,,,,,,,,,3,,,60,48
236160,note_off,1440,0,4,,,,,,,,,3,,,62,0
236160,note_on,0,0,4,,,,,,,,,3,,,56,48
236160,control_change,240,0,1,,,,,,,64,127,0,,,,
236160,note_on,0,0,3,,,,,,,,,2,,,51,37
236280,note_on,120,0,1,,,,,,,,,0,,,65,41
236400,note_on,0,0,1,,,,,,,,,0,,,74,41
236400,note_off,0,0,1,,,,,,,,,0,,,65,0
236400,control_change,120,0,1,,,,,,,64,0,0,,,,
236400,note_on,0,0,3,,,,,,,,,2,,,51,37
236400,note_off,240,0,3,,,,,,,,,2,,,51,0
236520,note_off,120,0,1,,,,,,,,,0,,,74,0
236520,note_off,0,0,4,,,,,,,,,3,,,60,0
236520,note_off,360,0,4,,,,,,,,,3,,,56,0
236520,note_on,0,0,1,,,,,,,,,0,,,75,36
236640,note_on,0,0,3,,,,,,,,,2,,,51,37
236640,note_off,240,0,3,,,,,,,,,2,,,51,0
236640,note_off,0,0,1,,,,,,,,,0,,,75,0
236640,note_on,0,0,4,,,,,,,,,3,,,56,47
236640,note_on,120,0,4,,,,,,,,,3,,,60,47
236640,control_change,120,0,1,,,,,,,64,127,0,,,,
236760,note_on,120,0,1,,,,,,,,,0,,,65,41
236880,note_on,0,0,3,,,,,,,,,2,,,51,37
236880,note_off,240,0,3,,,,,,,,,2,,,51,0
236880,control_change,120,0,1,,,,,,,64,0,0,,,,
236880,note_on,0,0,1,,,,,,,,,0,,,74,41
236880,note_off,0,0,1,,,,,,,,,0,,,65,0
237000,note_off,0,0,4,,,,,,,,,3,,,60,0
237000,note_off,360,0,4,,,,,,,,,3,,,56,0
237000,note_on,0,0,1,,,,,,,,,0,,,75,36
237000,note_off,120,0,1,,,,,,,,,0,,,74,0
237120,control_change,120,0,1,,,,,,,64,127,0,,,,
237120,note_off,0,0,1,,,,,,,,,0,,,75,0
237120,note_on,120,0,4,,,,,,,,,3,,,59,46
237120,note_off,240,0,3,,,,,,,,,2,,,51,0
237120,note_on,0,0,3,,,,,,,,,2,,,51,37
237120,note_on,0,0,4,,,,,,,,,3,,,56,46
237240,note_on,120,0,1,,,,,,,,,0,,,65,40
237360,control_change,120,0,1,,,,,,,64,0,0,,,,
237360,note_off,0,0,1,,,,,,,,,0,,,65,0
237360,note_on,0,0,1,,,,,,,,,0,,,73,40
237360,note_off,240,0,3,,,,,,,,,2,,,51,0
237360,note_on,0,0,3,,,,,,,,,2,,,51,36
237480,set_tempo,1320,1,0,,,,,,422535,,,,,,,
237480,note_on,0,0,1,,,,,,,,,0,,,74,35
237480,note_off,120,0,1,,,,,,,,,0,,,73,0
237480,note_off,360,0,4,,,,,,,,,3,,,56,0
237480,note_off,0,0,4,,,,,,,,,3,,,59,0
237600,note_on,120,0,4,,,,,,,,,3,,,55,45
237600,note_on,0,0,4,,,,,,,,,3,,,58,45
237600,note_off,240,0,3,,,,,,,,,2,,,51,0
237600,note_on,0,0,3,,,,,,,,,2,,,51,36
237600,set_tempo,120,1,0,,,,,,416666,,,,,,,
237600,note_on,0,0,1,,,,,,,,,0,,,75,35
237600,note_on,0,0,1,,,,,,,,,0,,,63,40
237600,note_off,120,0,1,,,,,,,,,0,,,74,0
237720,note_on,0,0,1,,,,,,,,,0,,,65,40
237720,note_off,0,0,1,,,,,,,,,0,,,75,0
237720,note_off,120,0,1,,,,,,,,,0,,,63,0
237840,note_off,120,0,1,,,,,,,,,0,,,65,0
237840,note_on,0,0,1,,,,,,,,,0,,,63,40
237960,note_off,120,0,1,,,,,,,,,0,,,63,0
237960,note_on,0,0,1,,,,,,,,,0,,,62,40
237960,note_off,360,0,4,,,,,,,,,3,,,58,0
238080,note_off,120,0,4,,,,,,,,,3,,,55,0
238080,note_off,480,0,3,,,,,,,,,2,,,51,0
238080,note_off,120,0,1,,,,,,,,,0,,,62,0
238080,note_on,0,0,1,,,,,,,,,0,,,63,41
238200,note_off,120,0,1,,,,,,,,,0,,,63,0
238200,note_on,0,0,1,,,,,,,,,0,,,65,41
238320,note_on,0,0,1,,,,,,,,,0,,,67,41
238320,note_off,120,0,1,,,,,,,,,0,,,65,0
238440,note_on,0,0,1,,,,,,,,,0,,,68,41
238440,note_off,120,0,1,,,,,,,,,0,,,67,0
238560,note_on,0,0,1,,,,,,,,,0,,,70,42
238560,note_off,120,0,1,,,,,,,,,0,,,68,0
238680,note_off,120,0,1,,,,,,,,,0,,,70,0
238800,note_on,120,0,1,,,,,,,,,0,,,67,42
238800,note_on,720,0,4,,,,,,,,,3,,,55,42
238896,note_off,96,0,1,,,,,,,,,0,,,67,0
238896,note_off,96,0,4,,,,,,,,,3,,,55,0
239040,note_on,144,0,1,,,,,,,,,0,,,65,43
239040,note_on,144,0,4,,,,,,,,,3,,,53,43
239136,note_off,96,0,1,,,,,,,,,0,,,65,0
239136,note_off,96,0,4,,,,,,,,,3,,,53,0
239280,note_on,144,0,4,,,,,,,,,3,,,56,44
239280,note_on,144,0,1,,,,,,,,,0,,,68,43
239376,note_off,96,0,4,,,,,,,,,3,,,56,0
239376,note_off,96,0,1,,,,,,,,,0,,,68,0
239520,note_on,144,0,4,,,,,,,,,3,,,50,44
239520,note_on,144,0,1,,,,,,,,,0,,,62,44
239616,note_off,96,0,4,,,,,,,,,3,,,50,0
239616,note_off,96,0,1,,,,,,,,,0,,,62,0
239760,note_on,144,0,4,,,,,,,,,3,,,53,45
239760,note_on,144,0,1,,,,,,,,,0,,,65,44
239856,note_off,96,0,4,,,,,,,,,3,,,53,0
239856,note_off,96,0,1,,,,,,,,,0,,,65,0
240000,note_on,144,0,4,,,,,,,,,3,,,46,45
240000,note_on,144,0,1,,,,,,,,,0,,,58,45
240096,note_off,96,0,4,,,,,,,,,3,,,46,0
240096,note_off,96,0,1,,,,,,,,,0,,,58,0
240240,note_on,144,0,4,,,,,,,,,3,,,50,46
240240,note_on,144,0,1,,,,,,,,,0,,,62,45
240336,note_off,96,0,4,,,,,,,,,3,,,50,0
240336,note_off,96,0,1,,,,,,,,,0,,,62,0
240360,set_tempo,2760,1,0,,,,,,422535,,,,,,,
240480,note_on,144,0,1,,,,,,,,,0,,,63,46
240480,note_on,144,0,4,,,,,,,,,3,,,51,47
240480,set_tempo,120,1,0,,,,,,416666,,,,,,,
240600,note_off,120,0,1,,,,,,,,,0,,,63,0
240600,note_on,0,0,1,,,,,,,,,0,,,65,46
240720,note_off,120,0,1,,,,,,,,,0,,,65,0
240720,note_on,0,0,1,,,,,,,,,0,,,63,46
240840,note_off,120,0,1,,,,,,,,,0,,,63,0
240840,note_on,0,0,1,,,,,,,,,0,,,62,46
240960,note_on,0,0,1,,,,,,,,,0,,,63,47
240960,note_off,120,0,1,,,,,,,,,0,,,62,0
240960,note_off,480,0,4,,,,,,,,,3,,,51,0
241080,note_on,0,0,1,,,,,,,,,0,,,65,47
241080,note_off,120,0,1,,,,,,,,,0,,,63,0
241200,note_off,120,0,1,,,,,,,,,0,,,65,0
241200,note_on,0,0,1,,,,,,,,,0,,,67,47
241320,note_off,120,0,1,,,,,,,,,0,,,67,0
241320,note_on,0,0,1,,,,,,,,,0,,,68,47
241440,note_off,120,0,1,,,,,,,,,0,,,68,0
241440,note_on,0,0,1,,,,,,,,,0,,,72,48
241440,note_on,480,0,4,,,,,,,,,3,,,60,49
241560,note_off,120,0,4,,,,,,,,,3,,,60,0
241560,note_on,0,0,1,,,,,,,,,0,,,70,48
241560,note_off,120,0,1,,,,,,,,,0,,,72,0
241560,note_on,0,0,4,,,,,,,,,3,,,58,49
241680,note_off,120,0,4,,,,,,,,,3,,,58,0
241680,note_on,0,0,4,,,,,,,,,3,,,56,50
241680,note_off,120,0,1,,,,,,,,,0,,,70,0
241680,note_on,0,0,1,,,,,,,,,0,,,68,48
241800,note_off,120,0,1,,,,,,,,,0,,,68,0
241800,note_on,0,0,4,,,,,,,,,3,,,55,50
241800,note_off,120,0,4,,,,,,,,,3,,,56,0
241800,note_on,0,0,1,,,,,,,,,0,,,67,48
241920,note_on,0,0,4,,,,,,,,,3,,,53,50
241920,note_off,120,0,1,,,,,,,,,0,,,67,0
241920,note_on,0,0,1,,,,,,,,,0,,,65,49
241920,note_off,120,0,4,,,,,,,,,3,,,55,0
242016,note_off,96,0,4,,,,,,,,,3,,,53,0
242016,note_off,96,0,1,,,,,,,,,0,,,65,0
242160,note_on,144,0,1,,,,,,,,,0,,,68,49
242160,note_on,144,0,4,,,,,,,,,3,,,56,51
242256,note_off,96,0,4,,,,,,,,,3,,,56,0
242256,note_off,96,0,1,,,,,,,,,0,,,68,0
242400,note_on,144,0,4,,,,,,,,,3,,,50,51
242400,note_on,144,0,1,,,,,,,,,0,,,62,50
242496,note_off,96,0,4,,,,,,,,,3,,,50,0
242496,note_off,96,0,1,,,,,,,,,0,,,62,0
242640,note_on,144,0,4,,,,,,,,,3,,,53,52
242640,note_on,144,0,1,,,,,,,,,0,,,65,50
242736,note_off,96,0,4,,,,,,,,,3,,,53,0
242736,note_off,96,0,1,,,,,,,,,0,,,65,0
242880,note_on,144,0,4,,,,,,,,,3,,,46,53
242880,note_on,144,0,1,,,,,,,,,0,,,58,51
242976,note_off,96,0,4,,,,,,,,,3,,,46,0
242976,note_off,96,0,1,,,,,,,,,0,,,58,0
243120,note_on,144,0,1,,,,,,,,,0,,,62,51
243120,note_on,144,0,4,,,,,,,,,3,,,50,53
243216,note_off,96,0,1,,,,,,,,,0,,,62,0
243216,note_off,96,0,4,,,,,,,,,3,,,50,0
243240,set_tempo,2760,1,0,,,,,,422535,,,,,,,
243360,set_tempo,120,1,0,,,,,,416666,,,,,,,
243360,note_on,144,0,4,,,,,,,,,3,,,51,54
243360,note_on,144,0,1,,,,,,,,,0,,,63,52
243456,note_off,96,0,1,,,,,,,,,0,,,63,0
243456,note_off,96,0,4,,,,,,,,,3,,,51,0
243600,note_on,144,0,1,,,,,,,,,0,,,67,52
243600,note_on,144,0,4,,,,,,,,,3,,,55,54
243696,note_off,96,0,4,,,,,,,,,3,,,55,0
243696,note_off,96,0,1,,,,,,,,,0,,,67,0
243840,note_on,144,0,1,,,,,,,,,0,,,60,53
243840,note_on,144,0,4,,,,,,,,,3,,,48,55
243936,note_off,96,0,4,,,,,,,,,3,,,48,0
243936,note_off,96,0,1,,,,,,,,,0,,,60,0
244080,note_on,144,0,4,,,,,,,,,3,,,51,56
244080,note_on,144,0,1,,,,,,,,,0,,,63,53
244176,note_off,96,0,4,,,,,,,,,3,,,51,0
244176,note_off,96,0,1,,,,,,,,,0,,,63,0
244320,note_on,144,0,4,,,,,,,,,3,,,45,56
244320,note_on,144,0,1,,,,,,,,,0,,,57,54
244416,note_off,96,0,1,,,,,,,,,0,,,57,0
244416,note_off,96,0,4,,,,,,,,,3,,,45,0
244560,note_on,144,0,4,,,,,,,,,3,,,48,57
244560,note_on,144,0,1,,,,,,,,,0,,,60,54
244656,note_off,96,0,4,,,,,,,,,3,,,48,0
244656,note_off,96,0,1,,,,,,,,,0,,,60,0
244800,note_on,144,0,1,,,,,,,,,0,,,53,55
244800,note_on,144,0,4,,,,,,,,,3,,,41,57
244896,note_off,96,0,1,,,,,,,,,0,,,53,0
244896,note_off,96,0,4,,,,,,,,,3,,,41,0
245040,note_on,144,0,4,,,,,,,,,3,,,45,58
245040,note_on,144,0,1,,,,,,,,,0,,,57,55
245136,note_off,96,0,4,,,,,,,,,3,,,45,0
245136,note_off,96,0,1,,,,,,,,,0,,,57,0
245280,note_on,144,0,4,,,,,,,,,3,,,48,59
245280,note_on,144,0,1,,,,,,,,,0,,,60,56
245376,note_off,96,0,4,,,,,,,,,3,,,48,0
245376,note_off,96,0,1,,,,,,,,,0,,,60,0
245520,note_on,144,0,4,,,,,,,,,3,,,51,59
245520,note_on,144,0,1,,,,,,,,,0,,,63,56
245616,note_off,96,0,4,,,,,,,,,3,,,51,0
245616,note_off,96,0,1,,,,,,,,,0,,,63,0
245760,note_on,144,0,1,,,,,,,,,0,,,65,57
245760,note_on,144,0,4,,,,,,,,,3,,,53,60
245856,note_off,96,0,1,,,,,,,,,0,,,65,0
245856,note_off,96,0,4,,,,,,,,,3,,,53,0
246000,note_on,144,0,1,,,,,,,,,0,,,57,59
246000,note_on,144,0,4,,,,,,,,,3,,,45,63
246096,note_off,96,0,1,,,,,,,,,0,,,57,0
246096,note_off,96,0,4,,,,,,,,,3,,,45,0
246240,note_on,144,0,4,,,,,,,,,3,,,46,65
246240,note_on,144,0,1,,,,,,,,,0,,,58,60
246336,note_off,96,0,4,,,,,,,,,3,,,46,0
246336,note_off,96,0,1,,,,,,,,,0,,,58,0
246480,note_on,144,0,4,,,,,,,,,3,,,50,67
246480,note_on,144,0,1,,,,,,,,,0,,,62,62
246576,note_off,96,0,1,,,,,,,,,0,,,62,0
246576,note_off,96,0,4,,,,,,,,,3,,,50,0
246720,note_on,144,0,1,,,,,,,,,0,,,65,63
246720,note_on,144,0,4,,,,,,,,,3,,,53,68
246816,note_off,96,0,1,,,,,,,,,0,,,65,0
246816,note_off,96,0,4,,,,,,,,,3,,,53,0
246960,note_on,144,0,4,,,,,,,,,3,,,57,70
246960,note_on,144,0,1,,,,,,,,,0,,,69,65
247056,note_off,96,0,4,,,,,,,,,3,,,57,0
247056,note_off,96,0,1,,,,,,,,,0,,,69,0
247200,note_on,144,0,1,,,,,,,,,0,,,70,67
247200,note_on,144,0,4,,,,,,,,,3,,,58,72
247296,note_off,96,0,1,,,,,,,,,0,,,70,0
247296,note_off,96,0,4,,,,,,,,,3,,,58,0
247440,note_on,144,0,4,,,,,,,,,3,,,62,74
247440,note_on,144,0,1,,,,,,,,,0,,,74,68
247515,note_off,75,0,4,,,,,,,,,3,,,62,0
247522,note_off,82,0,1,,,,,,,,,0,,,74,0
247680,note_on,158,0,1,,,,,,,,,0,,,77,71
247680,note_on,165,0,4,,,,,,,,,3,,,65,76
247776,note_off,96,0,1,,,,,,,,,0,,,77,0
247776,note_off,96,0,4,,,,,,,,,3,,,65,0
247920,note_on,144,0,1,,,,,,,,,0,,,81,75
247920,note_on,144,0,4,,,,,,,,,3,,,69,79
248016,note_off,96,0,1,,,,,,,,,0,,,81,0
248016,note_off,96,0,4,,,,,,,,,3,,,69,0
248040,set_tempo,4680,1,0,,,,,,422535,,,,,,,
248160,note_on,144,0,4,,,,,,,,,3,,,70,83
248160,set_tempo,120,1,0,,,,,,472440,,,,,,,
248160,note_on,144,0,1,,,,,,,,,0,,,82,78
248400,note_off,240,0,1,,,,,,,,,0,,,82,0
248400,note_off,240,0,4,,,,,,,,,3,,,70,0
248640,set_tempo,480,1,0,,,,,,428571,,,,,,,
248640,note_on,240,0,4,,,,,,,,,3,,,58,87
248880,note_off,240,0,4,,,,,,,,,3,,,58,0
249120,note_on,240,0,4,,,,,,,,,3,,,46,77
249360,note_off,240,0,4,,,,,,,,,3,,,46,0
249600,note_on,240,0,4,,,,,,,,,3,,,34,64
249840,note_off,240,0,4,,,,,,,,,3,,,34,0
250080,note_on,240,0,4,,,,,,,,,3,,,32,52
250080,set_tempo,1440,1,0,,,,,,447761,,,,,,,
250320,note_on,1920,0,1,,,,,,,,,0,,,82,44
250320,set_tempo,240,1,0,,,,,,422535,,,,,,,
250320,note_off,240,0,4,,,,,,,,,3,,,32,0
250560,control_change,12480,0,3,,,,,,,64,0,2,,,,
250560,set_tempo,240,1,0,,,,,,416666,,,,,,,
250560,note_on,240,0,4,,,,,,,,,3,,,31,46
250560,note_off,240,0,1,,,,,,,,,0,,,82,0
250560,note_on,0,0,1,,,,,,,,,0,,,87,49
250620,control_change,60,0,3,,,,,,,64,127,2,,,,
250680,note_on,60,0,3,,,,,,,,,2,,,63,42
250800,note_on,0,0,3,,,,,,,,,2,,,58,42
250800,note_off,120,0,3,,,,,,,,,2,,,63,0
250920,note_off,120,0,3,,,,,,,,,2,,,58,0
250920,note_on,0,0,3,,,,,,,,,2,,,63,42
251000,note_off,440,0,4,,,,,,,,,3,,,31,0
251040,note_off,0,0,3,,,,,,,,,2,,,63,0
251040,control_change,120,0,3,,,,,,,64,0,2,,,,
251040,note_on,40,0,4,,,,,,,,,3,,,55,46
251100,control_change,60,0,3,,,,,,,64,127,2,,,,
251160,note_on,60,0,3,,,,,,,,,2,,,63,42
251280,note_off,720,0,1,,,,,,,,,0,,,87,0
251280,note_on,0,0,1,,,,,,,,,0,,,86,45
251280,note_off,120,0,3,,,,,,,,,2,,,63,0
251280,note_on,0,0,3,,,,,,,,,2,,,58,42
251400,note_off,120,0,3,,,,,,,,,2,,,58,0
251400,note_on,0,0,3,,,,,,,,,2,,,63,42
251400,note_off,120,0,1,,,,,,,,,0,,,86,0
251400,note_on,0,0,1,,,,,,,,,0,,,87,45
251480,note_off,440,0,4,,,,,,,,,3,,,55,0
251520,note_on,40,0,4,,,,,,,,,3,,,55,46
251520,control_change,120,0,3,,,,,,,64,0,2,,,,
251520,note_off,0,0,3,,,,,,,,,2,,,63,0
251520,note_off,120,0,1,,,,,,,,,0,,,87,0
251520,note_on,0,0,1,,,,,,,,,0,,,89,45
251580,control_change,60,0,3,,,,,,,64,127,2,,,,
251640,note_on,60,0,3,,,,,,,,,2,,,63,42
251676,note_off,156,0,1,,,,,,,,,0,,,89,0
251760,note_on,84,0,1,,,,,,,,,0,,,87,45
251760,note_off,120,0,3,,,,,,,,,2,,,63,0
251760,note_on,0,0,3,,,,,,,,,2,,,58,42
251880,note_off,120,0,3,,,,,,,,,2,,,58,0
251880,note_on,0,0,3,,,,,,,,,2,,,63,42
251916,note_off,156,0,1,,,,,,,,,0,,,87,0
251960,note_off,440,0,4,,,,,,,,,3,,,55,0
252000,note_on,40,0,4,,,,,,,,,3,,,55,47
252000,note_off,0,0,3,,,,,,,,,2,,,63,0
252000,control_change,120,0,3,,,,,,,64,0,2,,,,
252000,note_on,84,0,1,,,,,,,,,0,,,82,45
252060,control_change,60,0,3,,,,,,,64,127,2,,,,
252120,note_on,60,0,3,,,,,,,,,2,,,63,43
252240,note_on,0,0,3,,,,,,,,,2,,,58,43
252240,note_off,120,0,3,,,,,,,,,2,,,63,0
252360,note_off,120,0,3,,,,,,,,,2,,,58,0
252360,note_on,0,0,3,,,,,,,,,2,,,63,43
252440,note_off,440,0,4,,,,,,,,,3,,,55,0
252480,control_change,120,0,3,,,,,,,64,0,2,,,,
252480,note_on,40,0,4,,,,,,,,,3,,,55,47
252480,note_off,0,0,3,,,,,,,,,2,,,63,0
252540,control_change,60,0,3,,,,,,,64,127,2,,,,
252600,note_on,60,0,3,,,,,,,,,2,,,63,43
252720,note_on,0,0,3,,,,,,,,,2,,,58,43
252720,note_off,120,0,3,,,,,,,,,2,,,63,0
252720,note_on,0,0,1,,,,,,,,,0,,,84,46
252720,note_off,720,0,1,,,,,,,,,0,,,82,0
252840,note_off,120,0,1,,,,,,,,,0,,,84,0
252840,note_off,120,0,3,,,,,,,,,2,,,58,0
252840,note_on,0,0,3,,,,,,,,,2,,,63,43
252840,note_on,0,0,1,,,,,,,,,0,,,82,46
252920,note_off,440,0,4,,,,,,,,,3,,,55,0
252960,note_off,120,0,1,,,,,,,,,0,,,82,0
252960,control_change,120,0,3,,,,,,,64,0,2,,,,
252960,note_off,0,0,3,,,,,,,,,2,,,63,0
252960,note_on,40,0,4,,,,,,,,,3,,,55,48
252960,note_on,0,0,1,,,,,,,,,0,,,80,46
252960,control_change,0,0,3,,,,,,,64,0,2,,,,
253020,control_change,0,0,3,,,,,,,64,127,2,,,,
253020,control_change,60,0,3,,,,,,,64,127,2,,,,
253080,note_on,60,0,3,,,,,,,,,2,,,63,43
253116,note_off,156,0,1,,,,,,,,,0,,,80,0
253200,note_on,84,0,1,,,,,,,,,0,,,79,46
253200,note_on,0,0,3,,,,,,,,,2,,,58,43
253200,note_off,120,0,3,,,,,,,,,2,,,63,0
253320,note_on,0,0,3,,,,,,,,,2,,,63,43
253320,note_off,120,0,3,,,,,,,,,2,,,58,0
253356,note_off,156,0,1,,,,,,,,,0,,,79,0
253400,note_off,440,0,4,,,,,,,,,3,,,55,0
253440,note_on,84,0,1,,,,,,,,,0,,,83,47
253440,control_change,120,0,3,,,,,,,64,0,2,,,,
253440,note_off,0,0,3,,,,,,,,,2,,,63,0
253440,note_on,40,0,4,,,,,,,,,3,,,56,48
253500,control_change,60,0,3,,,,,,,64,127,2,,,,
253560,note_on,60,0,3,,,,,,,,,2,,,63,44
253560,note_off,120,0,1,,,,,,,,,0,,,83,0
253560,note_on,0,0,1,,,,,,,,,0,,,84,42
253656,note_off,96,0,1,,,,,,,,,0,,,84,0
253680,note_off,120,0,3,,,,,,,,,2,,,63,0
253680,note_on,0,0,3,,,,,,,,,2,,,60,44
253800,note_off,120,0,3,,,,,,,,,2,,,60,0
253800,note_on,0,0,3,,,,,,,,,2,,,63,44
253880,note_off,440,0,4,,,,,,,,,3,,,56,0
253920,note_on,40,0,4,,,,,,,,,3,,,56,49
253920,control_change,120,0,3,,,,,,,64,0,2,,,,
253920,note_on,264,0,1,,,,,,,,,0,,,83,47
253920,note_off,0,0,3,,,,,,,,,2,,,63,0
253980,control_change,60,0,3,,,,,,,64,127,2,,,,
254040,note_on,60,0,3,,,,,,,,,2,,,63,44
254040,note_on,0,0,1,,,,,,,,,0,,,84,42
254040,note_off,120,0,1,,,,,,,,,0,,,83,0
254136,note_off,96,0,1,,,,,,,,,0,,,84,0
254160,note_off,120,0,3,,,,,,,,,2,,,63,0
254160,note_on,0,0,3,,,,,,,,,2,,,60,44
254280,note_off,120,0,3,,,,,,,,,2,,,60,0
254280,note_on,0,0,3,,,,,,,,,2,,,63,44
254360,note_off,440,0,4,,,,,,,,,3,,,56,0
254400,note_on,40,0,4,,,,,,,,,3,,,56,49
254400,control_change,120,0,3,,,,,,,64,0,2,,,,
254400,note_off,0,0,3,,,,,,,,,2,,,63,0
254400,note_on,264,0,1,,,,,,,,,0,,,79,48
254460,control_change,60,0,3,,,,,,,64,127,2,,,,
254520,note_on,0,0,1,,,,,,,,,0,,,80,43
254520,note_on,60,0,3,,,,,,,,,2,,,64,44
254520,note_off,120,0,1,,,,,,,,,0,,,79,0
254616,note_off,96,0,1,,,,,,,,,0,,,80,0
254640,note_on,0,0,3,,,,,,,,,2,,,60,44
254640,note_off,120,0,3,,,,,,,,,2,,,64,0
254760,note_on,0,0,3,,,,,,,,,2,,,64,44
254760,note_off,120,0,3,,,,,,,,,2,,,60,0
254840,note_off,440,0,4,,,,,,,,,3,,,56,0
254880,note_on,40,0,4,,,,,,,,,3,,,56,49
254880,note_off,0,0,3,,,,,,,,,2,,,64,0
254880,note_on,264,0,1,,,,,,,,,0,,,76,48
254880,control_change,120,0,3,,,,,,,64,0,2,,,,
254940,control_change,60,0,3,,,,,,,64,127,2,,,,
255000,note_off,120,0,1,,,,,,,,,0,,,76,0
255000,note_on,60,0,3,,,,,,,,,2,,,65,45
255000,note_on,0,0,1,,,,,,,,,0,,,77,43
255096,note_off,96,0,1,,,,,,,,,0,,,77,0
255120,note_off,120,0,3,,,,,,,,,2,,,65,0
255120,note_on,0,0,3,,,,,,,,,2,,,60,45
255240,note_off,120,0,3,,,,,,,,,2,,,60,0
255240,note_on,0,0,3,,,,,,,,,2,,,65,45
255320,note_off,440,0,4,,,,,,,,,3,,,56,0
255360,control_change,120,0,3,,,,,,,64,0,2,,,,
255360,note_on,40,0,4,,,,,,,,,3,,,56,50
255360,note_off,0,0,3,,,,,,,,,2,,,65,0
255420,control_change,60,0,3,,,,,,,64,127,2,,,,
255480,note_on,60,0,3,,,,,,,,,2,,,65,45
255600,note_off,120,0,3,,,,,,,,,2,,,65,0
255600,note_on,0,0,3,,,,,,,,,2,,,60,45
255720,note_off,120,0,3,,,,,,,,,2,,,60,0
255720,note_on,0,0,3,,,,,,,,,2,,,65,45
255800,note_off,440,0,4,,,,,,,,,3,,,56,0
255840,control_change,0,0,3,,,,,,,64,0,2,,,,
255840,note_on,40,0,4,,,,,,,,,3,,,57,50
255840,control_change,120,0,3,,,,,,,64,0,2,,,,
255840,note_off,0,0,3,,,,,,,,,2,,,65,0
255900,control_change,60,0,3,,,,,,,64,127,2,,,,
255900,control_change,0,0,3,,,,,,,64,127,2,,,,
255960,note_on,60,0,3,,,,,,,,,2,,,65,45
256080,note_on,984,0,1,,,,,,,,,0,,,77,49
256080,note_off,120,0,3,,,,,,,,,2,,,65,0
256080,note_on,0,0,3,,,,,,,,,2,,,63,45
256080,set_tempo,5520,1,0,,,,,,422535,,,,,,,
256200,note_off,120,0,3,,,,,,,,,2,,,63,0
256200,note_on,0,0,3,,,,,,,,,2,,,65,45
256200,set_tempo,120,1,0,,,,,,428571,,,,,,,
256280,note_off,440,0,4,,,,,,,,,3,,,57,0
256320,note_on,40,0,4,,,,,,,,,3,,,58,51
256320,note_off,0,0,3,,,,,,,,,2,,,65,0
256320,control_change,120,0,3,,,,,,,64,0,2,,,,
256320,set_tempo,120,1,0,,,,,,416666,,,,,,,
256320,note_off,240,0,1,,,,,,,,,0,,,77,0
256320,note_on,0,0,1,,,,,,,,,0,,,80,52
256380,control_change,60,0,3,,,,,,,64,127,2,,,,
256440,note_on,60,0,3,,,,,,,,,2,,,65,46
256560,note_on,0,0,3,,,,,,,,,2,,,62,46
256560,note_off,120,0,3,,,,,,,,,2,,,65,0
256680,note_on,0,0,3,,,,,,,,,2,,,65,46
256680,note_off,120,0,3,,,,,,,,,2,,,62,0
256744,note_off,424,0,4,,,,,,,,,3,,,58,0
256800,note_off,0,0,3,,,,,,,,,2,,,65,0
256800,note_on,56,0,4,,,,,,,,,3,,,53,51
256800,control_change,120,0,3,,,,,,,64,0,2,,,,
256860,control_change,60,0,3,,,,,,,64,127,2,,,,
256920,note_on,60,0,3,,,,,,,,,2,,,62,46
257040,note_off,120,0,3,,,,,,,,,2,,,62,0
257040,note_on,0,0,1,,,,,,,,,0,,,82,50
257040,note_off,720,0,1,,,,,,,,,0,,,80,0
257040,note_on,0,0,3,,,,,,,,,2,,,58,46
257160,note_on,0,0,1,,,,,,,,,0,,,80,50
257160,note_off,120,0,1,,,,,,,,,0,,,82,0
257160,note_off,120,0,3,,,,,,,,,2,,,58,0
257160,note_on,0,0,3,,,,,,,,,2,,,62,46
257224,note_off,424,0,4,,,,,,,,,3,,,53,0
257280,note_off,120,0,1,,,,,,,,,0,,,80,0
257280,control_change,120,0,3,,,,,,,64,0,2,,,,
257280,note_off,0,0,3,,,,,,,,,2,,,62,0
257280,note_on,0,0,1,,,,,,,,,0,,,79,50
257280,note_on,56,0,4,,,,,,,,,3,,,50,52
257340,control_change,60,0,3,,,,,,,64,127,2,,,,
257400,note_on,60,0,3,,,,,,,,,2,,,58,46
257436,note_off,156,0,1,,,,,,,,,0,,,79,0
257520,note_on,0,0,3,,,,,,,,,2,,,53,46
257520,note_off,120,0,3,,,,,,,,,2,,,58,0
257520,note_on,84,0,1,,,,,,,,,0,,,77,50
257640,note_on,0,0,3,,,,,,,,,2,,,58,46
257640,note_off,120,0,3,,,,,,,,,2,,,53,0
257676,note_off,156,0,1,,,,,,,,,0,,,77,0
257704,note_off,424,0,4,,,,,,,,,3,,,50,0
257760,note_on,84,0,1,,,,,,,,,0,,,75,51
257760,note_off,0,0,3,,,,,,,,,2,,,58,0
257760,note_on,56,0,4,,,,,,,,,3,,,46,52
257760,control_change,120,0,3,,,,,,,64,0,2,,,,
257820,control_change,60,0,3,,,,,,,64,127,2,,,,
257880,note_on,60,0,3,,,,,,,,,2,,,56,47
257916,note_off,156,0,1,,,,,,,,,0,,,75,0
258000,note_on,84,0,1,,,,,,,,,0,,,74,51
258000,note_on,0,0,3,,,,,,,,,2,,,53,47
258000,note_off,120,0,3,,,,,,,,,2,,,56,0
258120,note_off,120,0,3,,,,,,,,,2,,,53,0
258120,note_on,0,0,3,,,,,,,,,2,,,56,47
258156,note_off,156,0,1,,,,,,,,,0,,,74,0
258184,note_off,424,0,4,,,,,,,,,3,,,46,0
258240,control_change,120,0,3,,,,,,,64,0,2,,,,
258240,note_off,0,0,3,,,,,,,,,2,,,56,0
258240,note_on,84,0,1,,,,,,,,,0,,,72,51
258240,note_on,56,0,4,,,,,,,,,3,,,46,52
258300,control_change,60,0,3,,,,,,,64,127,2,,,,
258360,note_on,60,0,3,,,,,,,,,2,,,56,47
258396,note_off,156,0,1,,,,,,,,,0,,,72,0
258480,note_on,84,0,1,,,,,,,,,0,,,70,51
258480,note_off,120,0,3,,,,,,,,,2,,,56,0
258480,note_on,0,0,3,,,,,,,,,2,,,53,47
258600,note_off,120,0,3,,,,,,,,,2,,,53,0
258600,note_on,0,0,3,,,,,,,,,2,,,56,47
258636,note_off,156,0,1,,,,,,,,,0,,,70,0
258664,note_off,424,0,4,,,,,,,,,3,,,46,0
258720,control_change,0,0,3,,,,,,,64,0,2,,,,
258720,control_change,120,0,3,,,,,,,64,0,2,,,,
258720,note_on,56,0,4,,,,,,,,,3,,,47,53
258720,note_off,0,0,3,,,,,,,,,2,,,56,0
258720,note_on,84,0,1,,,,,,,,,0,,,68,52
258780,control_change,0,0,3,,,,,,,64,127,2,,,,
258780,control_change,60,0,3,,,,,,,64,127,2,,,,
258840,note_on,60,0,3,,,,,,,,,2,,,56,47
258876,note_off,156,0,1,,,,,,,,,0,,,68,0
258960,note_on,0,0,3,,,,,,,,,2,,,53,47
258960,note_on,84,0,1,,,,,,,,,0,,,65,52
258960,note_off,120,0,3,,,,,,,,,2,,,56,0
259080,note_off,120,0,3,,,,,,,,,2,,,53,0
259080,note_on,0,0,3,,,,,,,,,2,,,56,47
259080,set_tempo,2760,1,0,,,,,,422535,,,,,,,
259116,note_off,156,0,1,,,,,,,,,0,,,65,0
259144,note_off,424,0,4,,,,,,,,,3,,,47,0
259200,note_on,84,0,1,,,,,,,,,0,,,63,52
259200,control_change,120,0,3,,,,,,,64,0,2,,,,
259200,note_on,56,0,4,,,,,,,,,3,,,48,55
259200,note_off,0,0,3,,,,,,,,,2,,,56,0
259260,control_change,60,0,3,,,,,,,64,127,2,,,,
259320,note_on,60,0,3,,,,,,,,,2,,,55,49
259356,note_off,156,0,1,,,,,,,,,0,,,63,0
259440,note_off,120,0,3,,,,,,,,,2,,,55,0
259440,note_on,0,0,3,,,,,,,,,2,,,51,48
259440,note_on,84,0,1,,,,,,,,,0,,,67,52
259560,note_on,0,0,3,,,,,,,,,2,,,55,47
259560,note_off,120,0,3,,,,,,,,,2,,,51,0
259596,note_off,156,0,1,,,,,,,,,0,,,67,0
259624,note_off,424,0,4,,,,,,,,,3,,,48,0
259680,note_on,84,0,1,,,,,,,,,0,,,60,52
259680,note_off,0,0,3,,,,,,,,,2,,,55,0
259680,control_change,120,0,3,,,,,,,64,0,2,,,,
259680,note_on,56,0,4,,,,,,,,,3,,,44,53
259740,control_change,60,0,3,,,,,,,64,127,2,,,,
259800,note_on,60,0,3,,,,,,,,,2,,,53,46
259836,note_off,156,0,1,,,,,,,,,0,,,60,0
259920,note_on,84,0,1,,,,,,,,,0,,,68,53
259920,note_off,120,0,3,,,,,,,,,2,,,53,0
259920,note_on,0,0,3,,,,,,,,,2,,,48,45
260040,note_off,120,0,3,,,,,,,,,2,,,48,0
260040,note_on,0,0,3,,,,,,,,,2,,,53,45
260076,note_off,156,0,1,,,,,,,,,0,,,68,0
260120,note_off,440,0,4,,,,,,,,,3,,,44,0
260160,note_on,40,0,4,,,,,,,,,3,,,46,50
260160,control_change,120,0,3,,,,,,,64,0,2,,,,
260160,note_off,0,0,3,,,,,,,,,2,,,53,0
260160,note_on,84,0,1,,,,,,,,,0,,,62,53
260220,control_change,60,0,3,,,,,,,64,127,2,,,,
260280,note_on,60,0,3,,,,,,,,,2,,,53,43
260316,note_off,156,0,1,,,,,,,,,0,,,62,0
260400,note_off,120,0,3,,,,,,,,,2,,,53,0
260400,note_on,0,0,3,,,,,,,,,2,,,50,43
260400,note_on,84,0,1,,,,,,,,,0,,,65,53
260400,set_tempo,1320,1,0,,,,,,428571,,,,,,,
260520,note_on,0,0,3,,,,,,,,,2,,,56,42
260520,note_off,120,0,3,,,,,,,,,2,,,50,0
260520,set_tempo,120,1,0,,,,,,434782,,,,,,,
260556,note_off,156,0,1,,,,,,,,,0,,,65,0
260600,note_off,440,0,4,,,,,,,,,3,,,46,0
260640,note_on,40,0,4,,,,,,,,,3,,,39,47
260640,note_off,0,0,3,,,,,,,,,2,,,56,0
260640,set_tempo,120,1,0,,,,,,434782,,,,,,,
260640,note_on,0,0,3,,,,,,,,,2,,,51,41
260640,note_on,84,0,1,,,,,,,,,0,,,63,55
260640,control_change,120,0,3,,,,,,,64,0,2,,,,
260750,set_tempo,110,1,0,,,,,,416666,,,,,,,
260760,note_off,120,0,1,,,,,,,,,0,,,63,0
260760,note_on,0,0,1,,,,,,,,,0,,,55,54
260880,note_off,120,0,1,,,,,,,,,0,,,55,0
260880,note_on,0,0,1,,,,,,,,,0,,,58,52
261000,note_off,120,0,1,,,,,,,,,0,,,58,0
261000,note_on,0,0,1,,,,,,,,,0,,,56,50
261120,note_off,480,0,3,,,,,,,,,2,,,51,0
261120,note_on,0,0,1,,,,,,,,,0,,,55,49
261120,note_off,120,0,1,,,,,,,,,0,,,56,0
261120,note_off,480,0,4,,,,,,,,,3,,,39,0
261240,note_on,0,0,1,,,,,,,,,0,,,56,47
261240,note_off,120,0,1,,,,,,,,,0,,,55,0
261360,note_on,0,0,1,,,,,,,,,0,,,58,45
261360,note_off,120,0,1,,,,,,,,,0,,,56,0
261440,note_on,0,0,1,,,,,,,,,0,,,60,44
261440,note_off,80,0,1,,,,,,,,,0,,,58,0
261516,set_tempo,766,1,0,,,,,,425531,,,,,,,
261520,note_off,80,0,1,,,,,,,,,0,,,60,0
261520,note_on,0,0,1,,,,,,,,,0,,,62,43
261600,control_change,0,0,3,,,,,,,64,0,2,,,,
261600,control_change,480,0,3,,,,,,,64,0,2,,,,
261600,set_tempo,84,1,0,,,,,,821917,,,,,,,
261600,note_off,80,0,1,,,,,,,,,0,,,62,0
261600,note_on,0,0,1,,,,,,,,,0,,,63,42
261640,note_off,40,0,1,,,,,,,,,0,,,63,0
261640,note_on,0,0,1,,,,,,,,,0,,,62,41
261680,note_off,40,0,1,,,,,,,,,0,,,62,0
261680,note_on,0,0,1,,,,,,,,,0,,,65,41
261720,note_off,40,0,1,,,,,,,,,0,,,65,0
261720,note_on,0,0,1,,,,,,,,,0,,,63,40
261760,note_off,40,0,1,,,,,,,,,0,,,63,0
261760,note_on,0,0,1,,,,,,,,,0,,,67,40
261800,note_on,0,0,1,,,,,,,,,0,,,65,39
261800,note_off,40,0,1,,,,,,,,,0,,,67,0
261840,note_off,40,0,1,,,,,,,,,0,,,65,0
261840,note_on,0,0,1,,,,,,,,,0,,,63,39
261880,note_off,40,0,1,,,,,,,,,0,,,63,0
261880,note_on,0,0,1,,,,,,,,,0,,,62,38
261920,note_off,40,0,1,,,,,,,,,0,,,62,0
261920,note_on,0,0,1,,,,,,,,,0,,,60,37
261920,set_tempo,320,1,0,,,,,,845070,,,,,,,
261960,note_off,40,0,1,,,,,,,,,0,,,60,0
261960,note_on,0,0,1,,,,,,,,,0,,,58,37
261960,set_tempo,40,1,0,,,,,,869565,,,,,,,
262000,set_tempo,40,1,0,,,,,,1000000,,,,,,,
262000,note_on,0,0,1,,,,,,,,,0,,,60,36
262000,note_off,40,0,1,,,,,,,,,0,,,58,0
262040,note_off,40,0,1,,,,,,,,,0,,,60,0
262040,set_tempo,40,1,0,,,,,,1111111,,,,,,,
262040,note_on,0,0,1,,,,,,,,,0,,,56,36
262080,note_off,40,0,1,,,,,,,,,0,,,56,0
262080,note_on,0,0,1,,,,,,,,,0,,,55,38
262080,set_tempo,40,1,0,,,,,,434782,,,,,,,
262194,set_tempo,114,1,0,,,,,,416666,,,,,,,
262200,note_off,120,0,1,,,,,,,,,0,,,55,0
262200,note_on,0,0,1,,,,,,,,,0,,,58,38
262320,note_off,120,0,1,,,,,,,,,0,,,58,0
262320,note_on,0,0,1,,,,,,,,,0,,,56,38
262440,note_on,0,0,1,,,,,,,,,0,,,55,38
262440,note_off,120,0,1,,,,,,,,,0,,,56,0
262560,note_off,120,0,1,,,,,,,,,0,,,55,0
262560,note_on,0,0,1,,,,,,,,,0,,,56,39
262680,note_off,120,0,1,,,,,,,,,0,,,56,0
262680,note_on,0,0,1,,,,,,,,,0,,,58,39
262800,note_off,120,0,1,,,,,,,,,0,,,58,0
262800,note_on,0,0,1,,,,,,,,,0,,,60,39
262920,note_off,120,0,1,,,,,,,,,0,,,60,0
262920,note_on,0,0,1,,,,,,,,,0,,,62,40
263040,note_off,120,0,1,,,,,,,,,0,,,62,0
263040,note_on,0,0,1,,,,,,,,,0,,,63,40
263160,note_on,0,0,1,,,,,,,,,0,,,62,40
263160,note_off,120,0,1,,,,,,,,,0,,,63,0
263280,note_off,120,0,1,,,,,,,,,0,,,62,0
263280,note_on,0,0,1,,,,,,,,,0,,,60,40
263400,note_on,0,0,1,,,,,,,,,0,,,58,41
263400,note_off,120,0,1,,,,,,,,,0,,,60,0
263520,note_on,0,0,1,,,,,,,,,0,,,60,41
263520,note_off,120,0,1,,,,,,,,,0,,,58,0
263640,note_on,0,0,1,,,,,,,,,0,,,62,41
263640,note_off,120,0,1,,,,,,,,,0,,,60,0
263760,note_on,0,0,1,,,,,,,,,0,,,63,42
263760,note_off,120,0,1,,,,,,,,,0,,,62,0
263880,note_on,0,0,1,,,,,,,,,0,,,65,42
263880,note_off,120,0,1,,,,,,,,,0,,,63,0
264000,note_on,0,0,1,,,,,,,,,0,,,67,42
264000,note_off,120,0,1,,,,,,,,,0,,,65,0
264120,note_on,0,0,1,,,,,,,,,0,,,65,43
264120,note_off,120,0,1,,,,,,,,,0,,,67,0
264240,note_off,120,0,1,,,,,,,,,0,,,65,0
264240,note_on,0,0,1,,,,,,,,,0,,,63,43
264360,note_off,120,0,1,,,,,,,,,0,,,63,0
264360,note_on,0,0,1,,,,,,,,,0,,,62,43
264480,note_on,0,0,1,,,,,,,,,0,,,63,43
264480,note_off,120,0,1,,,,,,,,,0,,,62,0
264600,note_off,120,0,1,,,,,,,,,0,,,63,0
264600,note_on,0,0,1,,,,,,,,,0,,,65,44
264720,note_off,120,0,1,,,,,,,,,0,,,65,0
264720,note_on,0,0,1,,,,,,,,,0,,,67,44
264840,note_off,120,0,1,,,,,,,,,0,,,67,0
264840,note_on,0,0,1,,,,,,,,,0,,,68,44
264960,note_on,0,0,1,,,,,,,,,0,,,72,45
264960,note_off,120,0,1,,,,,,,,,0,,,68,0
265080,note_on,0,0,1,,,,,,,,,0,,,70,45
265080,note_off,120,0,1,,,,,,,,,0,,,72,0
265200,note_off,120,0,1,,,,,,,,,0,,,70,0
265200,note_on,0,0,1,,,,,,,,,0,,,68,45
265320,note_off,120,0,1,,,,,,,,,0,,,68,0
265320,note_on,0,0,1,,,,,,,,,0,,,67,45
265440,note_off,120,0,1,,,,,,,,,0,,,67,0
265440,note_on,0,0,1,,,,,,,,,0,,,68,46
265560,note_off,120,0,1,,,,,,,,,0,,,68,0
265560,note_on,0,0,1,,,,,,,,,0,,,70,46
265680,note_on,0,0,1,,,,,,,,,0,,,72,46
265680,note_off,120,0,1,,,,,,,,,0,,,70,0
265800,note_on,0,0,1,,,,,,,,,0,,,74,47
265800,note_off,120,0,1,,,,,,,,,0,,,72,0
265920,note_off,120,0,1,,,,,,,,,0,,,74,0
265920,note_on,0,0,1,,,,,,,,,0,,,75,47
266040,note_off,120,0,1,,,,,,,,,0,,,75,0
266040,note_on,0,0,1,,,,,,,,,0,,,74,47
266160,note_off,120,0,1,,,,,,,,,0,,,74,0
266160,note_on,0,0,1,,,,,,,,,0,,,72,48
266280,note_on,0,0,1,,,,,,,,,0,,,70,48
266280,note_off,120,0,1,,,,,,,,,0,,,72,0
266400,note_on,0,0,1,,,,,,,,,0,,,72,48
266400,note_off,120,0,1,,,,,,,,,0,,,70,0
266520,note_on,0,0,1,,,,,,,,,0,,,74,48
266520,note_off,120,0,1,,,,,,,,,0,,,72,0
266640,note_on,0,0,1,,,,,,,,,0,,,75,49
266640,note_off,120,0,1,,,,,,,,,0,,,74,0
266760,note_on,0,0,1,,,,,,,,,0,,,77,49
266760,note_off,120,0,1,,,,,,,,,0,,,75,0
266880,note_on,0,0,1,,,,,,,,,0,,,79,49
266880,note_off,120,0,1,,,,,,,,,0,,,77,0
267000,note_off,120,0,1,,,,,,,,,0,,,79,0
267000,note_on,0,0,1,,,,,,,,,0,,,77,50
267120,note_on,0,0,1,,,,,,,,,0,,,75,50
267120,note_off,120,0,1,,,,,,,,,0,,,77,0
267240,note_on,0,0,1,,,,,,,,,0,,,74,50
267240,note_off,120,0,1,,,,,,,,,0,,,75,0
267360,note_on,0,0,1,,,,,,,,,0,,,75,50
267360,note_off,120,0,1,,,,,,,,,0,,,74,0
267480,note_on,0,0,1,,,,,,,,,0,,,77,51
267480,note_off,120,0,1,,,,,,,,,0,,,75,0
267600,note_off,120,0,1,,,,,,,,,0,,,77,0
267600,note_on,0,0,1,,,,,,,,,0,,,79,51
267720,note_on,0,0,1,,,,,,,,,0,,,80,51
267720,note_off,120,0,1,,,,,,,,,0,,,79,0
267840,note_on,0,0,1,,,,,,,,,0,,,84,52
267840,note_off,120,0,1,,,,,,,,,0,,,80,0
267960,note_on,0,0,1,,,,,,,,,0,,,82,52
267960,note_off,120,0,1,,,,,,,,,0,,,84,0
268080,note_on,0,0,1,,,,,,,,,0,,,80,52
268080,note_off,120,0,1,,,,,,,,,0,,,82,0
268200,note_on,0,0,1,,,,,,,,,0,,,79,52
268200,note_off,120,0,1,,,,,,,,,0,,,80,0
268320,note_on,0,0,1,,,,,,,,,0,,,82,53
268320,note_off,120,0,1,,,,,,,,,0,,,79,0
268480,note_off,160,0,1,,,,,,,,,0,,,82,0
268480,note_on,0,0,1,,,,,,,,,0,,,80,53
268640,note_off,160,0,1,,,,,,,,,0,,,80,0
268640,note_on,0,0,1,,,,,,,,,0,,,79,54
268680,set_tempo,6486,1,0,,,,,,422535,,,,,,,
268800,note_off,160,0,1,,,,,,,,,0,,,79,0
268800,note_on,0,0,1,,,,,,,,,0,,,80,54
268920,note_off,120,0,1,,,,,,,,,0,,,80,0
268920,note_on,0,0,1,,,,,,,,,0,,,82,56
269040,set_tempo,360,1,0,,,,,,428571,,,,,,,
269040,note_off,120,0,1,,,,,,,,,0,,,82,0
269040,note_on,0,0,1,,,,,,,,,0,,,84,57
269160,note_on,0,0,1,,,,,,,,,0,,,86,59
269160,note_off,120,0,1,,,,,,,,,0,,,84,0
269160,set_tempo,120,1,0,,,,,,454545,,,,,,,
269280,control_change,0,0,3,,,,,,,64,0,2,,,,
269280,control_change,7680,0,3,,,,,,,64,0,2,,,,
269280,set_tempo,120,1,0,,,,,,416666,,,,,,,
269280,control_change,8160,0,4,,,,,,,64,0,3,,,,
269280,note_on,0,0,4,,,,,,,,,3,,,55,44
269280,control_change,36960,0,2,,,,,,,64,0,1,,,,
269280,control_change,120,0,1,,,,,,,64,0,0,,,,
269280,note_on,0,0,1,,,,,,,,,0,,,87,60
269280,note_off,0,0,1,,,,,,,,,0,,,86,0
269340,control_change,60,0,3,,,,,,,64,127,2,,,,
269400,note_on,60,0,3,,,,,,,,,2,,,63,42
269520,note_on,0,0,3,,,,,,,,,2,,,58,42
269520,note_off,120,0,3,,,,,,,,,2,,,63,0
269640,note_on,0,0,3,,,,,,,,,2,,,63,42
269640,note_off,120,0,3,,,,,,,,,2,,,58,0
269704,note_off,424,0,4,,,,,,,,,3,,,55,0
269760,note_off,0,0,3,,,,,,,,,2,,,63,0
269760,control_change,120,0,3,,,,,,,64,0,2,,,,
269760,note_on,56,0,4,,,,,,,,,3,,,55,44
269820,control_change,60,0,3,,,,,,,64,127,2,,,,
269880,note_on,60,0,3,,,,,,,,,2,,,63,42
270000,note_on,0,0,1,,,,,,,,,0,,,86,51
270000,note_off,720,0,1,,,,,,,,,0,,,87,0
270000,note_off,120,0,3,,,,,,,,,2,,,63,0
270000,note_on,0,0,3,,,,,,,,,2,,,58,42
270120,note_on,0,0,1,,,,,,,,,0,,,87,46
270120,note_off,120,0,3,,,,,,,,,2,,,58,0
270120,note_off,120,0,1,,,,,,,,,0,,,86,0
270120,note_on,0,0,3,,,,,,,,,2,,,63,42
270184,note_off,424,0,4,,,,,,,,,3,,,55,0
270198,note_off,78,0,1,,,,,,,,,0,,,87,0
270240,control_change,120,0,3,,,,,,,64,0,2,,,,
270240,note_off,0,0,3,,,,,,,,,2,,,63,0
270240,note_on,56,0,4,,,,,,,,,3,,,55,45
270240,note_on,42,0,1,,,,,,,,,0,,,86,51
270300,control_change,60,0,3,,,,,,,64,127,2,,,,
270360,note_off,120,0,1,,,,,,,,,0,,,86,0
270360,note_on,0,0,1,,,,,,,,,0,,,87,47
270360,note_on,60,0,3,,,,,,,,,2,,,63,43
270438,note_off,78,0,1,,,,,,,,,0,,,87,0
270480,note_on,42,0,1,,,,,,,,,0,,,89,52
270480,note_off,120,0,3,,,,,,,,,2,,,63,0
270480,note_on,0,0,3,,,,,,,,,2,,,58,43
270600,note_off,120,0,1,,,,,,,,,0,,,89,0
270600,note_on,0,0,1,,,,,,,,,0,,,87,47
270600,note_off,120,0,3,,,,,,,,,2,,,58,0
270600,note_on,0,0,3,,,,,,,,,2,,,63,43
270664,note_off,424,0,4,,,,,,,,,3,,,55,0
270678,note_off,78,0,1,,,,,,,,,0,,,87,0
270720,note_on,56,0,4,,,,,,,,,3,,,55,45
270720,note_on,42,0,1,,,,,,,,,0,,,82,52
270720,control_change,120,0,3,,,,,,,64,0,2,,,,
270720,note_off,0,0,3,,,,,,,,,2,,,63,0
270780,control_change,60,0,3,,,,,,,64,127,2,,,,
270840,note_on,60,0,3,,,,,,,,,2,,,63,43
270960,note_on,0,0,3,,,,,,,,,2,,,58,43
270960,note_off,120,0,3,,,,,,,,,2,,,63,0
271080,note_off,120,0,3,,,,,,,,,2,,,58,0
271080,note_on,0,0,3,,,,,,,,,2,,,63,43
271144,note_off,424,0,4,,,,,,,,,3,,,55,0
271200,note_on,56,0,4,,,,,,,,,3,,,55,46
271200,control_change,120,0,3,,,,,,,64,0,2,,,,
271200,note_off,0,0,3,,,,,,,,,2,,,63,0
271260,control_change,60,0,3,,,,,,,64,127,2,,,,
271320,note_on,60,0,3,,,,,,,,,2,,,63,43
271440,note_off,720,0,1,,,,,,,,,0,,,82,0
271440,note_on,0,0,1,,,,,,,,,0,,,81,54
271440,note_off,120,0,3,,,,,,,,,2,,,63,0
271440,note_on,0,0,3,,,,,,,,,2,,,58,44
271560,note_off,120,0,1,,,,,,,,,0,,,81,0
271560,note_on,0,0,1,,,,,,,,,0,,,82,46
271560,note_off,120,0,3,,,,,,,,,2,,,58,0
271560,note_on,0,0,3,,,,,,,,,2,,,63,44
271624,note_off,424,0,4,,,,,,,,,3,,,55,0
271638,note_off,78,0,1,,,,,,,,,0,,,82,0
271680,note_off,0,0,3,,,,,,,,,2,,,63,0
271680,control_change,0,0,3,,,,,,,64,0,2,,,,
271680,control_change,120,0,3,,,,,,,64,0,2,,,,
271680,note_on,42,0,1,,,,,,,,,0,,,84,54
271680,note_on,56,0,4,,,,,,,,,3,,,55,46
271740,control_change,0,0,3,,,,,,,64,127,2,,,,
271740,control_change,60,0,3,,,,,,,64,127,2,,,,
271800,note_on,0,0,1,,,,,,,,,0,,,82,49
271800,note_off,120,0,1,,,,,,,,,0,,,84,0
271800,note_on,60,0,3,,,,,,,,,2,,,63,44
271878,note_off,78,0,1,,,,,,,,,0,,,82,0
271920,note_off,120,0,3,,,,,,,,,2,,,63,0
271920,note_on,42,0,1,,,,,,,,,0,,,80,54
271920,note_on,0,0,3,,,,,,,,,2,,,58,44
272040,note_off,120,0,3,,,,,,,,,2,,,58,0
272040,note_on,0,0,3,,,,,,,,,2,,,63,44
272040,note_on,0,0,1,,,,,,,,,0,,,79,50
272040,note_off,120,0,1,,,,,,,,,0,,,80,0
272104,note_off,424,0,4,,,,,,,,,3,,,55,0
272118,note_off,78,0,1,,,,,,,,,0,,,79,0
272160,note_off,0,0,3,,,,,,,,,2,,,63,0
272160,control_change,120,0,3,,,,,,,64,0,2,,,,
272160,note_on,42,0,1,,,,,,,,,0,,,83,55
272160,note_on,56,0,4,,,,,,,,,3,,,56,47
272220,control_change,60,0,3,,,,,,,64,127,2,,,,
272280,note_on,0,0,1,,,,,,,,,0,,,84,50
272280,note_off,120,0,1,,,,,,,,,0,,,83,0
272280,note_on,60,0,3,,,,,,,,,2,,,63,44
272358,note_off,78,0,1,,,,,,,,,0,,,84,0
272400,note_on,42,0,1,,,,,,,,,0,,,83,55
272400,note_off,120,0,3,,,,,,,,,2,,,63,0
272400,note_on,0,0,3,,,,,,,,,2,,,60,44
272520,note_on,0,0,1,,,,,,,,,0,,,84,51
272520,note_on,0,0,3,,,,,,,,,2,,,63,45
272520,note_off,120,0,1,,,,,,,,,0,,,83,0
272520,note_off,120,0,3,,,,,,,,,2,,,60,0
272584,note_off,424,0,4,,,,,,,,,3,,,56,0
272598,note_off,78,0,1,,,,,,,,,0,,,84,0
272640,note_off,0,0,3,,,,,,,,,2,,,63,0
272640,note_on,42,0,1,,,,,,,,,0,,,83,56
272640,note_on,56,0,4,,,,,,,,,3,,,56,47
272640,control_change,120,0,3,,,,,,,64,0,2,,,,
272700,control_change,60,0,3,,,,,,,64,127,2,,,,
272760,note_on,0,0,1,,,,,,,,,0,,,84,51
272760,note_off,120,0,1,,,,,,,,,0,,,83,0
272760,note_on,60,0,3,,,,,,,,,2,,,63,45
272838,note_off,78,0,1,,,,,,,,,0,,,84,0
272880,note_on,42,0,1,,,,,,,,,0,,,83,56
272880,note_off,120,0,3,,,,,,,,,2,,,63,0
272880,note_on,0,0,3,,,,,,,,,2,,,60,45
273000,note_on,0,0,3,,,,,,,,,2,,,63,45
273000,note_off,120,0,1,,,,,,,,,0,,,83,0
273000,note_on,0,0,1,,,,,,,,,0,,,84,51
273000,note_off,120,0,3,,,,,,,,,2,,,60,0
273064,note_off,424,0,4,,,,,,,,,3,,,56,0
273078,note_off,78,0,1,,,,,,,,,0,,,84,0
273120,note_on,42,0,1,,,,,,,,,0,,,79,57
273120,note_on,56,0,4,,,,,,,,,3,,,56,48
273120,control_change,120,0,3,,,,,,,64,0,2,,,,
273120,note_off,0,0,3,,,,,,,,,2,,,63,0
273180,control_change,60,0,3,,,,,,,64,127,2,,,,
273240,note_on,60,0,3,,,,,,,,,2,,,64,45
273240,note_on,0,0,1,,,,,,,,,0,,,80,52
273240,note_off,120,0,1,,,,,,,,,0,,,79,0
273318,note_off,78,0,1,,,,,,,,,0,,,80,0
273360,note_on,42,0,1,,,,,,,,,0,,,79,57
273360,note_off,120,0,3,,,,,,,,,2,,,64,0
273360,note_on,0,0,3,,,,,,,,,2,,,60,45
273480,note_on,0,0,3,,,,,,,,,2,,,64,45
273480,note_on,0,0,1,,,,,,,,,0,,,80,52
273480,note_off,120,0,1,,,,,,,,,0,,,79,0
273480,note_off,120,0,3,,,,,,,,,2,,,60,0
273544,note_off,424,0,4,,,,,,,,,3,,,56,0
273558,note_off,78,0,1,,,,,,,,,0,,,80,0
273600,note_on,56,0,4,,,,,,,,,3,,,56,49
273600,note_on,42,0,1,,,,,,,,,0,,,76,58
273600,control_change,120,0,3,,,,,,,64,0,2,,,,
273600,note_off,0,0,3,,,,,,,,,2,,,64,0
273660,control_change,60,0,3,,,,,,,64,127,2,,,,
273720,note_off,120,0,1,,,,,,,,,0,,,76,0
273720,note_on,0,0,1,,,,,,,,,0,,,77,53
273720,note_on,60,0,3,,,,,,,,,2,,,65,46
273798,note_off,78,0,1,,,,,,,,,0,,,77,0
273840,note_on,42,0,1,,,,,,,,,0,,,76,54
273840,note_off,120,0,3,,,,,,,,,2,,,65,0
273840,note_on,0,0,3,,,,,,,,,2,,,60,46
273960,note_off,120,0,3,,,,,,,,,2,,,60,0
273960,note_on,0,0,3,,,,,,,,,2,,,65,46
273960,note_off,120,0,1,,,,,,,,,0,,,76,0
273960,note_on,0,0,1,,,,,,,,,0,,,77,46
274024,note_off,424,0,4,,,,,,,,,3,,,56,0
274038,note_off,78,0,1,,,,,,,,,0,,,77,0
274080,note_on,56,0,4,,,,,,,,,3,,,56,49
274080,control_change,120,0,3,,,,,,,64,0,2,,,,
274080,note_off,0,0,3,,,,,,,,,2,,,65,0
274140,control_change,60,0,3,,,,,,,64,127,2,,,,
274200,note_on,60,0,3,,,,,,,,,2,,,65,46
274320,note_on,0,0,3,,,,,,,,,2,,,60,46
274320,note_off,120,0,3,,,,,,,,,2,,,65,0
274440,note_off,120,0,3,,,,,,,,,2,,,60,0
274440,note_on,0,0,3,,,,,,,,,2,,,65,46
274504,note_off,424,0,4,,,,,,,,,3,,,56,0
274560,control_change,120,0,3,,,,,,,64,0,2,,,,
274560,control_change,0,0,3,,,,,,,64,0,2,,,,
274560,note_off,0,0,3,,,,,,,,,2,,,65,0
274560,note_on,56,0,4,,,,,,,,,3,,,57,50
274620,control_change,60,0,3,,,,,,,64,127,2,,,,
274620,control_change,0,0,3,,,,,,,64,127,2,,,,
274680,note_on,60,0,3,,,,,,,,,2,,,65,46
274800,note_on,762,0,1,,,,,,,,,0,,,77,60
274800,note_on,0,0,3,,,,,,,,,2,,,63,47
274800,note_off,120,0,3,,,,,,,,,2,,,65,0
274800,set_tempo,5520,1,0,,,,,,422535,,,,,,,
274920,set_tempo,120,1,0,,,,,,428571,,,,,,,
274920,note_on,0,0,3,,,,,,,,,2,,,65,47
274920,note_off,120,0,3,,,,,,,,,2,,,63,0
275000,note_off,440,0,4,,,,,,,,,3,,,57,0
275040,control_change,120,0,3,,,,,,,64,0,2,,,,
275040,set_tempo,120,1,0,,,,,,416666,,,,,,,
275040,note_on,40,0,4,,,,,,,,,3,,,58,50
275040,note_off,240,0,1,,,,,,,,,0,,,77,0
275040,note_on,0,0,1,,,,,,,,,0,,,80,67
275040,note_off,0,0,3,,,,,,,,,2,,,65,0
275100,control_change,60,0,3,,,,,,,64,127,2,,,,
275160,note_on,60,0,3,,,,,,,,,2,,,65,47
275280,note_on,0,0,3,,,,,,,,,2,,,62,47
275280,note_off,120,0,3,,,,,,,,,2,,,65,0
275400,note_off,120,0,3,,,,,,,,,2,,,62,0
275400,note_on,0,0,3,,,,,,,,,2,,,65,47
275480,note_off,440,0,4,,,,,,,,,3,,,58,0
275520,control_change,120,0,3,,,,,,,64,0,2,,,,
275520,note_on,40,0,4,,,,,,,,,3,,,53,51
275520,note_off,0,0,3,,,,,,,,,2,,,65,0
275580,control_change,60,0,3,,,,,,,64,127,2,,,,
275640,note_on,60,0,3,,,,,,,,,2,,,62,47
275760,note_on,0,0,1,,,,,,,,,0,,,79,64
275760,note_off,720,0,1,,,,,,,,,0,,,80,0
275760,note_off,120,0,3,,,,,,,,,2,,,62,0
275760,note_on,0,0,3,,,,,,,,,2,,,58,47
275880,note_on,0,0,1,,,,,,,,,0,,,80,64
275880,note_off,120,0,1,,,,,,,,,0,,,79,0
275880,note_on,0,0,3,,,,,,,,,2,,,62,48
275880,note_off,120,0,3,,,,,,,,,2,,,58,0
275960,note_off,440,0,4,,,,,,,,,3,,,53,0
276000,note_on,0,0,1,,,,,,,,,0,,,82,63
276000,note_off,120,0,1,,,,,,,,,0,,,80,0
276000,note_on,40,0,4,,,,,,,,,3,,,50,51
276000,note_off,0,0,3,,,,,,,,,2,,,62,0
276000,control_change,120,0,3,,,,,,,64,0,2,,,,
276060,control_change,60,0,3,,,,,,,64,127,2,,,,
276120,note_on,60,0,3,,,,,,,,,2,,,58,48
276120,note_on,0,0,1,,,,,,,,,0,,,80,63
276120,note_off,120,0,1,,,,,,,,,0,,,82,0
276240,note_off,120,0,3,,,,,,,,,2,,,58,0
276240,note_on,0,0,3,,,,,,,,,2,,,53,48
276240,note_on,0,0,1,,,,,,,,,0,,,79,62
276240,note_off,120,0,1,,,,,,,,,0,,,80,0
276360,note_off,120,0,3,,,,,,,,,2,,,53,0
276360,note_on,0,0,1,,,,,,,,,0,,,77,62
276360,note_off,120,0,1,,,,,,,,,0,,,79,0
276360,note_on,0,0,3,,,,,,,,,2,,,58,48
276440,note_off,440,0,4,,,,,,,,,3,,,50,0
276480,note_on,40,0,4,,,,,,,,,3,,,46,52
276480,control_change,120,0,3,,,,,,,64,0,2,,,,
276480,note_on,0,0,1,,,,,,,,,0,,,75,61
276480,note_off,0,0,3,,,,,,,,,2,,,58,0
276480,note_off,120,0,1,,,,,,,,,0,,,77,0
276540,control_change,60,0,3,,,,,,,64,127,2,,,,
276600,note_on,60,0,3,,,,,,,,,2,,,56,48
276600,note_on,0,0,1,,,,,,,,,0,,,74,61
276600,note_off,120,0,1,,,,,,,,,0,,,75,0
276720,note_off,120,0,3,,,,,,,,,2,,,56,0
276720,note_on,0,0,1,,,,,,,,,0,,,79,60
276720,note_off,120,0,1,,,,,,,,,0,,,74,0
276720,note_on,0,0,3,,,,,,,,,2,,,53,48
276840,note_off,120,0,3,,,,,,,,,2,,,53,0
276840,note_on,0,0,3,,,,,,,,,2,,,56,48
276840,note_on,0,0,1,,,,,,,,,0,,,77,60
276840,note_off,120,0,1,,,,,,,,,0,,,79,0
276920,note_off,440,0,4,,,,,,,,,3,,,46,0
276960,note_on,40,0,4,,,,,,,,,3,,,46,52
276960,note_on,0,0,1,,,,,,,,,0,,,75,59
276960,note_off,0,0,3,,,,,,,,,2,,,56,0
276960,control_change,120,0,3,,,,,,,64,0,2,,,,
276960,note_off,120,0,1,,,,,,,,,0,,,77,0
277020,control_change,60,0,3,,,,,,,64,127,2,,,,
277080,note_off,120,0,1,,,,,,,,,0,,,75,0
277080,note_on,0,0,1,,,,,,,,,0,,,74,59
277080,note_on,60,0,3,,,,,,,,,2,,,56,49
277200,note_on,0,0,1,,,,,,,,,0,,,72,58
277200,note_on,0,0,3,,,,,,,,,2,,,53,49
277200,note_off,120,0,3,,,,,,,,,2,,,56,0
277200,note_off,120,0,1,,,,,,,,,0,,,74,0
277320,note_off,120,0,1,,,,,,,,,0,,,72,0
277320,note_on,0,0,1,,,,,,,,,0,,,70,58
277320,note_off,120,0,3,,,,,,,,,2,,,53,0
277320,note_on,0,0,3,,,,,,,,,2,,,56,49
277400,note_off,440,0,4,,,,,,,,,3,,,46,0
277440,note_on,40,0,4,,,,,,,,,3,,,47,53
277440,note_off,120,0,1,,,,,,,,,0,,,70,0
277440,note_on,0,0,1,,,,,,,,,0,,,68,57
277440,control_change,120,0,3,,,,,,,64,0,2,,,,
277440,control_change,0,0,3,,,,,,,64,0,2,,,,
277440,note_off,0,0,3,,,,,,,,,2,,,56,0
277500,control_change,0,0,3,,,,,,,64,127,2,,,,
277500,control_change,60,0,3,,,,,,,64,127,2,,,,
277560,note_off,120,0,1,,,,,,,,,0,,,68,0
277560,note_on,0,0,1,,,,,,,,,0,,,67,57
277560,note_on,60,0,3,,,,,,,,,2,,,56,49
277680,note_on,0,0,1,,,,,,,,,0,,,68,56
277680,note_off,120,0,1,,,,,,,,,0,,,67,0
277680,note_on,0,0,3,,,,,,,,,2,,,53,49
277680,note_off,120,0,3,,,,,,,,,2,,,56,0
277800,note_on,0,0,3,,,,,,,,,2,,,56,49
277800,note_off,120,0,3,,,,,,,,,2,,,53,0
277800,set_tempo,2760,1,0,,,,,,422535,,,,,,,
277800,note_off,120,0,1,,,,,,,,,0,,,68,0
277800,note_on,0,0,1,,,,,,,,,0,,,65,56
277880,note_off,440,0,4,,,,,,,,,3,,,47,0
277920,control_change,120,0,3,,,,,,,64,0,2,,,,
277920,note_off,0,0,3,,,,,,,,,2,,,56,0
277920,note_on,40,0,4,,,,,,,,,3,,,48,53
277980,control_change,60,0,3,,,,,,,64,127,2,,,,
278040,note_off,240,0,1,,,,,,,,,0,,,65,0
278040,note_on,60,0,3,,,,,,,,,2,,,55,48
278040,note_on,0,0,1,,,,,,,,,0,,,63,54
278160,note_off,120,0,3,,,,,,,,,2,,,55,0
278160,note_on,0,0,3,,,,,,,,,2,,,51,48
278160,note_on,0,0,1,,,,,,,,,0,,,67,54
278160,note_off,120,0,1,,,,,,,,,0,,,63,0
278280,note_off,120,0,3,,,,,,,,,2,,,51,0
278280,note_on,0,0,3,,,,,,,,,2,,,55,47
278360,note_off,440,0,4,,,,,,,,,3,,,48,0
278400,note_off,0,0,3,,,,,,,,,2,,,55,0
278400,control_change,120,0,3,,,,,,,64,0,2,,,,
278400,note_on,40,0,4,,,,,,,,,3,,,44,50
278460,control_change,60,0,3,,,,,,,64,127,2,,,,
278520,note_on,60,0,3,,,,,,,,,2,,,53,46
278520,note_on,0,0,1,,,,,,,,,0,,,60,52
278520,note_off,360,0,1,,,,,,,,,0,,,67,0
278640,note_on,0,0,3,,,,,,,,,2,,,50,45
278640,note_off,120,0,3,,,,,,,,,2,,,53,0
278640,note_on,0,0,1,,,,,,,,,0,,,68,52
278640,note_off,120,0,1,,,,,,,,,0,,,60,0
278760,note_off,120,0,3,,,,,,,,,2,,,50,0
278760,note_on,0,0,3,,,,,,,,,2,,,53,44
278840,note_off,440,0,4,,,,,,,,,3,,,44,0
278880,note_off,0,0,3,,,,,,,,,2,,,53,0
278880,control_change,120,0,3,,,,,,,64,0,2,,,,
278880,note_on,40,0,4,,,,,,,,,3,,,46,47
278940,control_change,60,0,3,,,,,,,64,127,2,,,,
279000,note_on,60,0,3,,,,,,,,,2,,,53,43
279000,note_off,360,0,1,,,,,,,,,0,,,68,0
279000,note_on,0,0,1,,,,,,,,,0,,,62,50
279120,note_off,120,0,1,,,,,,,,,0,,,62,0
279120,note_off,120,0,3,,,,,,,,,2,,,53,0
279120,note_on,0,0,3,,,,,,,,,2,,,50,42
279120,note_on,0,0,1,,,,,,,,,0,,,65,50
279240,note_off,120,0,3,,,,,,,,,2,,,50,0
279240,note_on,0,0,3,,,,,,,,,2,,,58,41
279240,set_tempo,1440,1,0,,,,,,428571,,,,,,,
279336,note_off,456,0,4,,,,,,,,,3,,,46,0
279360,note_off,240,0,1,,,,,,,,,0,,,65,0
279360,note_on,0,0,1,,,,,,,,,0,,,63,46
279360,note_on,24,0,4,,,,,,,,,3,,,51,44
279360,control_change,120,0,3,,,,,,,64,0,2,,,,
279360,note_off,0,0,3,,,,,,,,,2,,,58,0
279480,note_on,120,0,1,,,,,,,,,0,,,55,47
279480,set_tempo,240,1,0,,,,,,416666,,,,,,,
279600,note_off,240,0,4,,,,,,,,,3,,,51,0
279600,note_off,120,0,1,,,,,,,,,0,,,55,0
279600,note_off,0,0,1,,,,,,,,,0,,,63,0
279600,note_on,0,0,1,,,,,,,,,0,,,56,47
279720,note_off,120,0,1,,,,,,,,,0,,,56,0
279720,note_on,0,0,1,,,,,,,,,0,,,58,48
279840,note_off,120,0,1,,,,,,,,,0,,,58,0
279840,note_on,0,0,1,,,,,,,,,0,,,60,49
279960,note_off,120,0,1,,,,,,,,,0,,,60,0
279960,note_on,0,0,1,,,,,,,,,0,,,62,50
280080,note_on,0,0,1,,,,,,,,,0,,,63,51
280080,note_off,120,0,1,,,,,,,,,0,,,62,0
280200,note_on,0,0,1,,,,,,,,,0,,,65,52
280200,note_off,120,0,1,,,,,,,,,0,,,63,0
280320,control_change,960,0,3,,,,,,,64,0,2,,,,
280320,control_change,0,0,3,,,,,,,64,0,2,,,,
280320,note_off,120,0,1,,,,,,,,,0,,,65,0
280320,note_on,0,0,1,,,,,,,,,0,,,67,53
280440,note_off,120,0,1,,,,,,,,,0,,,67,0
280440,note_on,0,0,1,,,,,,,,,0,,,68,54
280560,note_off,120,0,1,,,,,,,,,0,,,68,0
280560,note_on,0,0,1,,,,,,,,,0,,,70,55
280680,note_off,120,0,1,,,,,,,,,0,,,70,0
280680,note_on,0,0,1,,,,,,,,,0,,,72,56
280680,set_tempo,1200,1,0,,,,,,422535,,,,,,,
280800,note_off,120,0,1,,,,,,,,,0,,,72,0
280800,note_on,0,0,1,,,,,,,,,0,,,70,59
280910,set_tempo,230,1,0,,,,,,416666,,,,,,,
281040,note_on,1440,0,4,,,,,,,,,3,,,50,39
281040,note_on,0,0,4,,,,,,,,,3,,,53,39
281040,note_on,0,0,4,,,,,,,,,3,,,58,39
281232,note_off,192,0,4,,,,,,,,,3,,,53,0
281232,note_off,0,0,4,,,,,,,,,3,,,50,0
281232,note_off,0,0,4,,,,,,,,,3,,,58,0
281280,note_on,48,0,4,,,,,,,,,3,,,53,38
281280,note_on,0,0,4,,,,,,,,,3,,,50,38
281280,note_on,0,0,4,,,,,,,,,3,,,58,38
281472,note_off,192,0,4,,,,,,,,,3,,,58,0
281472,note_off,0,0,4,,,,,,,,,3,,,50,0
281472,note_off,0,0,4,,,,,,,,,3,,,53,0
281520,note_on,0,0,4,,,,,,,,,3,,,58,38
281520,note_on,0,0,4,,,,,,,,,3,,,50,38
281520,note_on,48,0,4,,,,,,,,,3,,,53,38
281712,note_off,0,0,4,,,,,,,,,3,,,58,0
281712,note_off,0,0,4,,,,,,,,,3,,,53,0
281712,note_off,192,0,4,,,,,,,,,3,,,50,0
281760,note_on,48,0,4,,,,,,,,,3,,,53,37
281760,note_on,0,0,4,,,,,,,,,3,,,58,37
281760,note_off,960,0,1,,,,,,,,,0,,,70,0
281760,note_on,0,0,1,,,,,,,,,0,,,68,53
281760,note_on,0,0,4,,,,,,,,,3,,,50,37
281840,note_on,80,0,1,,,,,,,,,0,,,70,53
281880,note_off,40,0,1,,,,,,,,,0,,,68,0
281920,note_on,40,0,1,,,,,,,,,0,,,68,52
281952,note_off,192,0,4,,,,,,,,,3,,,50,0
281952,note_off,0,0,4,,,,,,,,,3,,,58,0
281952,note_off,0,0,4,,,,,,,,,3,,,53,0
281960,note_off,40,0,1,,,,,,,,,0,,,70,0
282000,note_on,48,0,4,,,,,,,,,3,,,53,37
282000,note_on,40,0,1,,,,,,,,,0,,,67,52
282000,note_on,0,0,4,,,,,,,,,3,,,58,37
282000,note_on,0,0,4,,,,,,,,,3,,,50,37
282040,note_off,40,0,1,,,,,,,,,0,,,68,0
282120,note_off,80,0,1,,,,,,,,,0,,,67,0
282120,note_on,0,0,1,,,,,,,,,0,,,68,51
282120,set_tempo,1210,1,0,,,,,,422535,,,,,,,
282192,note_off,192,0,4,,,,,,,,,3,,,50,0
282192,note_off,0,0,4,,,,,,,,,3,,,58,0
282192,note_off,0,0,4,,,,,,,,,3,,,53,0
282240,note_off,120,0,1,,,,,,,,,0,,,68,0
282240,note_on,0,0,1,,,,,,,,,0,,,67,50
282240,note_on,48,0,4,,,,,,,,,3,,,63,36
282360,note_on,0,0,1,,,,,,,,,0,,,67,51
282360,note_off,120,0,1,,,,,,,,,0,,,67,0
282375,set_tempo,255,1,0,,,,,,416666,,,,,,,
282432,note_off,192,0,4,,,,,,,,,3,,,63,0
282480,note_off,120,0,1,,,,,,,,,0,,,67,0
282480,note_on,0,0,1,,,,,,,,,0,,,68,51
282600,note_off,120,0,1,,,,,,,,,0,,,68,0
282600,note_on,0,0,1,,,,,,,,,0,,,70,52
282720,note_on,0,0,1,,,,,,,,,0,,,72,53
282720,note_off,120,0,1,,,,,,,,,0,,,70,0
282840,note_off,120,0,1,,,,,,,,,0,,,72,0
282840,note_on,0,0,1,,,,,,,,,0,,,74,54
282960,note_on,0,0,1,,,,,,,,,0,,,75,55
282960,note_off,120,0,1,,,,,,,,,0,,,74,0
283080,note_off,120,0,1,,,,,,,,,0,,,75,0
283080,note_on,0,0,1,,,,,,,,,0,,,77,56
283200,note_off,120,0,1,,,,,,,,,0,,,77,0
283200,note_on,0,0,1,,,,,,,,,0,,,79,57
283320,note_off,120,0,1,,,,,,,,,0,,,79,0
283320,note_on,0,0,1,,,,,,,,,0,,,80,58
283440,note_off,120,0,1,,,,,,,,,0,,,80,0
283440,note_on,0,0,1,,,,,,,,,0,,,82,59
283560,note_off,120,0,1,,,,,,,,,0,,,82,0
283560,note_on,0,0,1,,,,,,,,,0,,,84,60
283560,set_tempo,1185,1,0,,,,,,422535,,,,,,,
283680,note_off,120,0,1,,,,,,,,,0,,,84,0
283680,note_on,0,0,1,,,,,,,,,0,,,82,61
283790,set_tempo,230,1,0,,,,,,416666,,,,,,,
283920,note_on,0,0,4,,,,,,,,,3,,,44,49
283920,note_on,1488,0,4,,,,,,,,,3,,,50,49
283920,note_on,0,0,4,,,,,,,,,3,,,41,49
284112,note_off,192,0,4,,,,,,,,,3,,,41,0
284112,note_off,0,0,4,,,,,,,,,3,,,44,0
284112,note_off,0,0,4,,,,,,,,,3,,,50,0
284160,note_on,0,0,4,,,,,,,,,3,,,41,48
284160,note_on,48,0,4,,,,,,,,,3,,,50,48
284160,note_on,0,0,4,,,,,,,,,3,,,44,48
284352,note_off,0,0,4,,,,,,,,,3,,,50,0
284352,note_off,192,0,4,,,,,,,,,3,,,41,0
284352,note_off,0,0,4,,,,,,,,,3,,,44,0
284400,note_on,48,0,4,,,,,,,,,3,,,50,47
284400,note_on,0,0,4,,,,,,,,,3,,,41,47
284400,note_on,0,0,4,,,,,,,,,3,,,44,47
284592,note_off,0,0,4,,,,,,,,,3,,,44,0
284592,note_off,0,0,4,,,,,,,,,3,,,50,0
284592,note_off,192,0,4,,,,,,,,,3,,,41,0
284640,note_on,0,0,1,,,,,,,,,0,,,80,59
284640,note_off,960,0,1,,,,,,,,,0,,,82,0
284640,note_on,0,0,4,,,,,,,,,3,,,41,46
284640,note_on,0,0,4,,,,,,,,,3,,,44,46
284640,note_on,48,0,4,,,,,,,,,3,,,50,46
284720,note_on,80,0,1,,,,,,,,,0,,,82,58
284760,note_off,40,0,1,,,,,,,,,0,,,80,0
284800,note_on,40,0,1,,,,,,,,,0,,,80,56
284832,note_off,0,0,4,,,,,,,,,3,,,50,0
284832,note_off,0,0,4,,,,,,,,,3,,,44,0
284832,note_off,192,0,4,,,,,,,,,3,,,41,0
284840,note_off,40,0,1,,,,,,,,,0,,,82,0
284880,note_on,40,0,1,,,,,,,,,0,,,79,55
284880,note_on,48,0,4,,,,,,,,,3,,,50,46
284880,note_on,0,0,4,,,,,,,,,3,,,44,46
284880,note_on,0,0,4,,,,,,,,,3,,,41,46
284895,note_off,15,0,1,,,,,,,,,0,,,80,0
285000,set_tempo,1210,1,0,,,,,,422535,,,,,,,
285000,note_on,0,0,1,,,,,,,,,0,,,80,53
285000,note_off,105,0,1,,,,,,,,,0,,,79,0
285072,note_off,0,0,4,,,,,,,,,3,,,50,0
285072,note_off,0,0,4,,,,,,,,,3,,,44,0
285072,note_off,192,0,4,,,,,,,,,3,,,41,0
285120,note_on,0,0,1,,,,,,,,,0,,,79,51
285120,note_off,120,0,1,,,,,,,,,0,,,80,0
285120,set_tempo,120,1,0,,,,,,416666,,,,,,,
285360,note_on,288,0,4,,,,,,,,,3,,,46,47
285360,note_on,0,0,4,,,,,,,,,3,,,43,47
285495,note_off,375,0,1,,,,,,,,,0,,,79,0
285552,note_off,0,0,4,,,,,,,,,3,,,46,0
285552,note_off,192,0,4,,,,,,,,,3,,,43,0
285600,note_on,105,0,1,,,,,,,,,0,,,77,53
285680,note_on,80,0,1,,,,,,,,,0,,,79,52
285720,note_off,40,0,1,,,,,,,,,0,,,77,0
285760,note_on,40,0,1,,,,,,,,,0,,,77,51
285800,note_off,40,0,1,,,,,,,,,0,,,79,0
285840,note_on,40,0,1,,,,,,,,,0,,,76,50
285840,note_on,0,0,4,,,,,,,,,3,,,46,48
285840,note_on,0,0,4,,,,,,,,,3,,,41,48
285840,note_on,288,0,4,,,,,,,,,3,,,38,48
285880,note_off,40,0,1,,,,,,,,,0,,,77,0
285960,note_on,0,0,1,,,,,,,,,0,,,77,48
285960,note_off,80,0,1,,,,,,,,,0,,,76,0
286032,note_off,192,0,4,,,,,,,,,3,,,46,0
286032,note_off,0,0,4,,,,,,,,,3,,,41,0
286032,note_off,0,0,4,,,,,,,,,3,,,38,0
286080,note_on,0,0,1,,,,,,,,,0,,,75,47
286080,note_off,120,0,1,,,,,,,,,0,,,77,0
286320,note_on,0,0,4,,,,,,,,,3,,,46,50
286320,note_on,288,0,4,,,,,,,,,3,,,39,50
286320,note_on,0,0,4,,,,,,,,,3,,,43,50
286447,note_off,367,0,1,,,,,,,,,0,,,75,0
286512,note_off,0,0,4,,,,,,,,,3,,,43,0
286512,note_off,0,0,4,,,,,,,,,3,,,39,0
286512,note_off,192,0,4,,,,,,,,,3,,,46,0
286560,note_on,113,0,1,,,,,,,,,0,,,73,57
286640,note_on,80,0,1,,,,,,,,,0,,,75,56
286680,note_off,40,0,1,,,,,,,,,0,,,73,0
286720,note_on,40,0,1,,,,,,,,,0,,,73,55
286760,note_off,40,0,1,,,,,,,,,0,,,75,0
286800,note_on,288,0,4,,,,,,,,,3,,,55,51
286800,note_on,0,0,4,,,,,,,,,3,,,63,51
286800,note_on,0,0,4,,,,,,,,,3,,,58,51
286800,note_on,40,0,1,,,,,,,,,0,,,72,54
286840,note_off,40,0,1,,,,,,,,,0,,,73,0
286920,note_off,80,0,1,,,,,,,,,0,,,72,0
286920,note_on,0,0,1,,,,,,,,,0,,,73,52
286992,note_off,0,0,4,,,,,,,,,3,,,55,0
286992,note_off,0,0,4,,,,,,,,,3,,,63,0
286992,note_off,192,0,4,,,,,,,,,3,,,58,0
287040,note_off,120,0,1,,,,,,,,,0,,,73,0
287040,note_on,0,0,1,,,,,,,,,0,,,72,50
287280,note_on,0,0,4,,,,,,,,,3,,,63,52
287280,note_on,288,0,4,,,,,,,,,3,,,56,52
287280,note_on,0,0,4,,,,,,,,,3,,,60,52
287407,note_off,367,0,1,,,,,,,,,0,,,72,0
287472,note_off,0,0,4,,,,,,,,,3,,,60,0
287472,note_off,0,0,4,,,,,,,,,3,,,56,0
287472,note_off,192,0,4,,,,,,,,,3,,,63,0
287520,note_on,113,0,1,,,,,,,,,0,,,70,59
287600,note_on,80,0,1,,,,,,,,,0,,,72,58
287640,note_off,40,0,1,,,,,,,,,0,,,70,0
287680,note_on,40,0,1,,,,,,,,,0,,,70,57
287720,note_off,40,0,1,,,,,,,,,0,,,72,0
287760,note_on,288,0,4,,,,,,,,,3,,,55,54
287760,note_on,0,0,4,,,,,,,,,3,,,52,54
287760,note_on,40,0,1,,,,,,,,,0,,,69,56
287760,note_on,0,0,4,,,,,,,,,3,,,60,54
287800,note_off,40,0,1,,,,,,,,,0,,,70,0
287880,note_off,80,0,1,,,,,,,,,0,,,69,0
287880,note_on,0,0,1,,,,,,,,,0,,,70,54
287952,note_off,192,0,4,,,,,,,,,3,,,60,0
287952,note_off,0,0,4,,,,,,,,,3,,,55,0
287952,note_off,0,0,4,,,,,,,,,3,,,52,0
288000,note_on,0,0,1,,,,,,,,,0,,,69,52
288000,note_off,120,0,1,,,,,,,,,0,,,70,0
288240,note_on,0,0,4,,,,,,,,,3,,,60,55
288240,note_on,0,0,4,,,,,,,,,3,,,53,55
288240,note_on,288,0,4,,,,,,,,,3,,,57,55
288360,note_off,360,0,1,,,,,,,,,0,,,69,0
288432,note_off,0,0,4,,,,,,,,,3,,,57,0
288432,note_off,0,0,4,,,,,,,,,3,,,60,0
288432,note_off,192,0,4,,,,,,,,,3,,,53,0
288480,note_on,120,0,1,,,,,,,,,0,,,68,61
288560,note_on,80,0,1,,,,,,,,,0,,,70,60
288600,note_off,40,0,1,,,,,,,,,0,,,68,0
288640,note_on,40,0,1,,,,,,,,,0,,,68,59
288680,note_off,40,0,1,,,,,,,,,0,,,70,0
288720,note_on,40,0,1,,,,,,,,,0,,,67,58
288720,note_on,288,0,4,,,,,,,,,3,,,58,57
288720,note_on,0,0,4,,,,,,,,,3,,,53,57
288720,note_on,0,0,4,,,,,,,,,3,,,50,57
288760,note_off,40,0,1,,,,,,,,,0,,,68,0
288840,note_on,0,0,1,,,,,,,,,0,,,68,57
288840,note_off,80,0,1,,,,,,,,,0,,,67,0
288912,note_off,0,0,4,,,,,,,,,3,,,58,0
288912,note_off,0,0,4,,,,,,,,,3,,,53,0
288912,note_off,192,0,4,,,,,,,,,3,,,50,0
288960,note_off,120,0,1,,,,,,,,,0,,,68,0
288960,note_on,0,0,1,,,,,,,,,0,,,67,56
289200,note_on,288,0,4,,,,,,,,,3,,,51,58
289200,note_on,0,0,4,,,,,,,,,3,,,55,58
289200,note_on,0,0,4,,,,,,,,,3,,,58,58
289327,note_off,367,0,1,,,,,,,,,0,,,67,0
289392,note_off,192,0,4,,,,,,,,,3,,,58,0
289392,note_off,0,0,4,,,,,,,,,3,,,51,0
289392,note_off,0,0,4,,,,,,,,,3,,,55,0
289440,note_on,113,0,1,,,,,,,,,0,,,65,61
289520,note_on,80,0,1,,,,,,,,,0,,,67,60
289560,note_off,40,0,1,,,,,,,,,0,,,65,0
289600,note_on,40,0,1,,,,,,,,,0,,,65,59
289640,note_off,40,0,1,,,,,,,,,0,,,67,0
289680,note_on,0,0,4,,,,,,,,,3,,,50,59
289680,note_on,0,0,4,,,,,,,,,3,,,55,59
289680,note_on,40,0,1,,,,,,,,,0,,,64,58
289680,note_on,288,0,4,,,,,,,,,3,,,47,59
289720,note_off,40,0,1,,,,,,,,,0,,,65,0
289800,note_on,0,0,1,,,,,,,,,0,,,65,56
289800,note_off,80,0,1,,,,,,,,,0,,,64,0
289872,note_off,192,0,4,,,,,,,,,3,,,50,0
289872,note_off,0,0,4,,,,,,,,,3,,,55,0
289872,note_off,0,0,4,,,,,,,,,3,,,47,0
289920,note_on,0,0,1,,,,,,,,,0,,,63,55
289920,note_off,120,0,1,,,,,,,,,0,,,65,0
290160,note_on,288,0,4,,,,,,,,,3,,,48,61
290160,note_on,0,0,4,,,,,,,,,3,,,55,61
290160,note_on,0,0,4,,,,,,,,,3,,,51,61
290287,note_off,367,0,1,,,,,,,,,0,,,63,0
290352,note_off,0,0,4,,,,,,,,,3,,,48,0
290352,note_off,192,0,4,,,,,,,,,3,,,51,0
290352,note_off,0,0,4,,,,,,,,,3,,,55,0
290400,note_on,113,0,1,,,,,,,,,0,,,61,65
290480,note_on,80,0,1,,,,,,,,,0,,,63,64
290520,note_off,40,0,1,,,,,,,,,0,,,61,0
290560,note_on,40,0,1,,,,,,,,,0,,,61,62
290600,note_off,40,0,1,,,,,,,,,0,,,63,0
290640,note_on,288,0,4,,,,,,,,,3,,,46,62
290640,note_on,40,0,1,,,,,,,,,0,,,60,61
290640,note_on,0,0,4,,,,,,,,,3,,,51,62
290640,note_on,0,0,4,,,,,,,,,3,,,43,62
290680,note_off,40,0,1,,,,,,,,,0,,,61,0
290760,note_on,0,0,1,,,,,,,,,0,,,61,59
290760,note_off,80,0,1,,,,,,,,,0,,,60,0
290832,note_off,192,0,4,,,,,,,,,3,,,51,0
290832,note_off,0,0,4,,,,,,,,,3,,,46,0
290832,note_off,0,0,4,,,,,,,,,3,,,43,0
290880,note_on,0,0,1,,,,,,,,,0,,,60,57
290880,note_off,120,0,1,,,,,,,,,0,,,61,0
291120,note_on,0,0,4,,,,,,,,,3,,,51,63
291120,note_on,0,0,4,,,,,,,,,3,,,44,63
291120,note_on,288,0,4,,,,,,,,,3,,,48,63
291240,note_off,360,0,1,,,,,,,,,0,,,60,0
291312,note_off,0,0,4,,,,,,,,,3,,,48,0
291312,note_off,0,0,4,,,,,,,,,3,,,44,0
291312,note_off,192,0,4,,,,,,,,,3,,,51,0
291360,note_on,120,0,1,,,,,,,,,0,,,58,66
291440,note_on,80,0,1,,,,,,,,,0,,,60,65
291480,note_off,40,0,1,,,,,,,,,0,,,58,0
291520,note_on,40,0,1,,,,,,,,,0,,,58,64
291560,note_off,40,0,1,,,,,,,,,0,,,60,0
291600,note_on,0,0,4,,,,,,,,,3,,,43,65
291600,note_on,288,0,4,,,,,,,,,3,,,40,65
291600,note_on,0,0,4,,,,,,,,,3,,,48,65
291600,note_on,40,0,1,,,,,,,,,0,,,57,63
291640,note_off,40,0,1,,,,,,,,,0,,,58,0
291720,note_on,0,0,1,,,,,,,,,0,,,58,61
291720,note_off,80,0,1,,,,,,,,,0,,,57,0
291792,note_off,192,0,4,,,,,,,,,3,,,48,0
291792,note_off,0,0,4,,,,,,,,,3,,,43,0
291792,note_off,0,0,4,,,,,,,,,3,,,40,0
291840,note_on,0,0,1,,,,,,,,,0,,,57,60
291840,note_off,120,0,1,,,,,,,,,0,,,58,0
292080,note_on,288,0,4,,,,,,,,,3,,,45,66
292080,note_on,0,0,4,,,,,,,,,3,,,41,66
292080,note_on,0,0,4,,,,,,,,,3,,,48,66
292200,note_off,360,0,1,,,,,,,,,0,,,57,0
292272,note_off,0,0,4,,,,,,,,,3,,,45,0
292272,note_off,192,0,4,,,,,,,,,3,,,48,0
292272,note_off,0,0,4,,,,,,,,,3,,,41,0
292320,note_on,120,0,1,,,,,,,,,0,,,56,71
292400,note_on,80,0,1,,,,,,,,,0,,,58,69
292440,note_off,40,0,1,,,,,,,,,0,,,56,0
292480,note_on,40,0,1,,,,,,,,,0,,,56,68
292520,note_off,40,0,1,,,,,,,,,0,,,58,0
292560,note_on,40,0,1,,,,,,,,,0,,,55,67
292560,note_on,0,0,4,,,,,,,,,3,,,41,67
292560,note_on,288,0,4,,,,,,,,,3,,,38,67
292560,note_on,0,0,4,,,,,,,,,3,,,46,67
292600,note_off,40,0,1,,,,,,,,,0,,,56,0
292680,note_off,80,0,1,,,,,,,,,0,,,55,0
292680,note_on,0,0,1,,,,,,,,,0,,,56,65
292752,note_off,0,0,4,,,,,,,,,3,,,38,0
292752,note_off,0,0,4,,,,,,,,,3,,,41,0
292752,note_off,192,0,4,,,,,,,,,3,,,46,0
292800,note_off,120,0,1,,,,,,,,,0,,,56,0
292800,note_on,0,0,1,,,,,,,,,0,,,55,63
293040,note_on,0,0,4,,,,,,,,,3,,,43,69
293040,note_on,288,0,4,,,,,,,,,3,,,39,69
293040,note_on,0,0,4,,,,,,,,,3,,,46,69
293167,note_off,367,0,1,,,,,,,,,0,,,55,0
293232,note_off,0,0,4,,,,,,,,,3,,,43,0
293232,note_off,192,0,4,,,,,,,,,3,,,46,0
293232,note_off,0,0,4,,,,,,,,,3,,,39,0
293280,note_on,113,0,1,,,,,,,,,0,,,68,51
293360,note_on,80,0,1,,,,,,,,,0,,,70,50
293400,note_off,40,0,1,,,,,,,,,0,,,68,0
293440,note_on,40,0,1,,,,,,,,,0,,,68,50
293480,note_off,40,0,1,,,,,,,,,0,,,70,0
293520,note_on,40,0,1,,,,,,,,,0,,,67,49
293520,note_on,288,0,4,,,,,,,,,3,,,38,48
293520,note_on,0,0,4,,,,,,,,,3,,,41,48
293520,note_on,0,0,4,,,,,,,,,3,,,46,48
293560,note_off,40,0,1,,,,,,,,,0,,,68,0
293640,note_on,0,0,1,,,,,,,,,0,,,68,47
293640,note_off,80,0,1,,,,,,,,,0,,,67,0
293712,note_off,192,0,4,,,,,,,,,3,,,46,0
293712,note_off,0,0,4,,,,,,,,,3,,,38,0
293712,note_off,0,0,4,,,,,,,,,3,,,41,0
293760,note_off,120,0,1,,,,,,,,,0,,,68,0
293760,note_on,0,0,1,,,,,,,,,0,,,67,46
294000,note_on,288,0,4,,,,,,,,,3,,,39,49
294000,note_on,0,0,4,,,,,,,,,3,,,43,49
294000,note_on,0,0,4,,,,,,,,,3,,,46,49
294127,note_off,367,0,1,,,,,,,,,0,,,67,0
294192,note_off,192,0,4,,,,,,,,,3,,,46,0
294192,note_off,0,0,4,,,,,,,,,3,,,43,0
294192,note_off,0,0,4,,,,,,,,,3,,,39,0
294240,note_on,113,0,1,,,,,,,,,0,,,56,73
294320,note_on,80,0,1,,,,,,,,,0,,,58,72
294360,note_off,40,0,1,,,,,,,,,0,,,56,0
294400,note_on,40,0,1,,,,,,,,,0,,,56,71
294440,note_off,40,0,1,,,,,,,,,0,,,58,0
294480,note_on,288,0,4,,,,,,,,,3,,,41,73
294480,note_on,0,0,4,,,,,,,,,3,,,38,73
294480,note_on,0,0,4,,,,,,,,,3,,,46,73
294480,note_on,40,0,1,,,,,,,,,0,,,55,70
294520,note_off,40,0,1,,,,,,,,,0,,,56,0
294600,note_off,80,0,1,,,,,,,,,0,,,55,0
294600,note_on,0,0,1,,,,,,,,,0,,,56,68
294672,note_off,0,0,4,,,,,,,,,3,,,38,0
294672,note_off,0,0,4,,,,,,,,,3,,,41,0
294672,note_off,192,0,4,,,,,,,,,3,,,46,0
294720,note_off,120,0,1,,,,,,,,,0,,,56,0
294720,note_on,0,0,1,,,,,,,,,0,,,55,67
294960,note_on,0,0,4,,,,,,,,,3,,,43,74
294960,note_on,0,0,4,,,,,,,,,3,,,46,74
294960,note_on,288,0,4,,,,,,,,,3,,,39,74
295072,note_off,352,0,1,,,,,,,,,0,,,55,0
295152,note_off,0,0,4,,,,,,,,,3,,,43,0
295152,note_off,192,0,4,,,,,,,,,3,,,46,0
295152,note_off,0,0,4,,,,,,,,,3,,,39,0
295200,note_on,128,0,1,,,,,,,,,0,,,68,59
295280,note_on,80,0,1,,,,,,,,,0,,,70,58
295320,note_off,40,0,1,,,,,,,,,0,,,68,0
295360,note_on,40,0,1,,,,,,,,,0,,,68,58
295400,note_off,40,0,1,,,,,,,,,0,,,70,0
295440,note_on,40,0,1,,,,,,,,,0,,,67,57
295440,note_on,288,0,4,,,,,,,,,3,,,46,50
295440,note_on,0,0,4,,,,,,,,,3,,,38,50
295440,note_on,0,0,4,,,,,,,,,3,,,41,50
295480,note_off,40,0,1,,,,,,,,,0,,,68,0
295560,note_off,80,0,1,,,,,,,,,0,,,67,0
295560,note_on,0,0,1,,,,,,,,,0,,,68,57
295632,note_off,0,0,4,,,,,,,,,3,,,46,0
295632,note_off,192,0,4,,,,,,,,,3,,,38,0
295632,note_off,0,0,4,,,,,,,,,3,,,41,0
295680,note_on,0,0,1,,,,,,,,,0,,,67,56
295680,note_off,120,0,1,,,,,,,,,0,,,68,0
295920,note_on,288,0,4,,,,,,,,,3,,,46,53
295920,note_on,0,0,4,,,,,,,,,3,,,43,53
295920,note_on,0,0,4,,,,,,,,,3,,,39,53
296032,note_off,352,0,1,,,,,,,,,0,,,67,0
296112,note_off,192,0,4,,,,,,,,,3,,,39,0
296112,note_off,0,0,4,,,,,,,,,3,,,43,0
296112,note_off,0,0,4,,,,,,,,,3,,,46,0
296160,note_on,128,0,1,,,,,,,,,0,,,56,78
296240,note_on,80,0,1,,,,,,,,,0,,,58,77
296280,note_off,40,0,1,,,,,,,,,0,,,56,0
296320,note_on,40,0,1,,,,,,,,,0,,,56,76
296360,note_off,40,0,1,,,,,,,,,0,,,58,0
296400,note_on,0,0,4,,,,,,,,,3,,,41,83
296400,note_on,40,0,1,,,,,,,,,0,,,55,74
296400,note_on,0,0,4,,,,,,,,,3,,,38,83
296400,note_on,288,0,4,,,,,,,,,3,,,46,83
296440,note_off,40,0,1,,,,,,,,,0,,,56,0
296520,note_off,80,0,1,,,,,,,,,0,,,55,0
296520,note_on,0,0,1,,,,,,,,,0,,,56,72
296530,set_tempo,11410,1,0,,,,,,422535,,,,,,,
296592,note_off,0,0,4,,,,,,,,,3,,,46,0
296592,note_off,192,0,4,,,,,,,,,3,,,41,0
296592,note_off,0,0,4,,,,,,,,,3,,,38,0
296640,control_change,120,0,1,,,,,,,64,127,0,,,,
296640,note_off,0,0,1,,,,,,,,,0,,,56,0
296640,note_on,0,0,1,,,,,,,,,0,,,55,48
296640,note_on,0,0,4,,,,,,,,,3,,,46,79
296640,note_on,0,0,4,,,,,,,,,3,,,43,79
296640,note_on,0,0,4,,,,,,,,,3,,,39,79
296640,control_change,0,0,2,,,,,,,64,0,1,,,,
296640,control_change,27360,0,2,,,,,,,64,127,1,,,,
296640,control_change,16320,0,3,,,,,,,64,0,2,,,,
296640,set_tempo,110,1,0,,,,,,416666,,,,,,,
296640,control_change,48,0,4,,,,,,,64,127,3,,,,
296760,note_on,120,0,2,,,,,,,,,1,,,51,48
296760,note_off,120,0,1,,,,,,,,,0,,,55,0
296832,note_off,192,0,4,,,,,,,,,3,,,39,0
296832,note_off,0,0,4,,,,,,,,,3,,,43,0
296832,note_off,0,0,4,,,,,,,,,3,,,46,0
296880,note_off,120,0,2,,,,,,,,,1,,,51,0
296880,note_on,120,0,1,,,,,,,,,0,,,46,49
297000,note_off,120,0,1,,,,,,,,,0,,,46,0
297000,note_on,120,0,2,,,,,,,,,1,,,51,50
297120,note_off,120,0,2,,,,,,,,,1,,,51,0
297120,note_on,120,0,1,,,,,,,,,0,,,55,50
297240,note_off,120,0,1,,,,,,,,,0,,,55,0
297240,note_on,120,0,2,,,,,,,,,1,,,51,51
297360,note_on,120,0,1,,,,,,,,,0,,,58,51
297360,note_off,120,0,2,,,,,,,,,1,,,51,0
297480,note_off,120,0,1,,,,,,,,,0,,,58,0
297480,note_on,120,0,2,,,,,,,,,1,,,55,52
297600,note_on,120,0,1,,,,,,,,,0,,,63,52
297600,note_off,120,0,2,,,,,,,,,1,,,55,0
297720,note_off,120,0,1,,,,,,,,,0,,,63,0
297720,note_on,120,0,2,,,,,,,,,1,,,58,53
297840,note_on,120,0,1,,,,,,,,,0,,,67,53
297840,note_off,120,0,2,,,,,,,,,1,,,58,0
297960,note_off,120,0,1,,,,,,,,,0,,,67,0
297960,note_on,120,0,2,,,,,,,,,1,,,63,54
298080,note_off,120,0,2,,,,,,,,,1,,,63,0
298080,note_on,120,0,1,,,,,,,,,0,,,58,55
298200,note_on,120,0,2,,,,,,,,,1,,,55,55
298200,note_off,120,0,1,,,,,,,,,0,,,58,0
298320,note_off,120,0,2,,,,,,,,,1,,,55,0
298320,note_on,120,0,1,,,,,,,,,0,,,63,56
298440,note_on,120,0,2,,,,,,,,,1,,,58,56
298440,note_off,120,0,1,,,,,,,,,0,,,63,0
298560,note_off,120,0,2,,,,,,,,,1,,,58,0
298560,note_on,120,0,1,,,,,,,,,0,,,67,57
298680,note_on,120,0,2,,,,,,,,,1,,,63,57
298680,note_off,120,0,1,,,,,,,,,0,,,67,0
298800,note_on,120,0,1,,,,,,,,,0,,,70,58
298800,note_off,120,0,2,,,,,,,,,1,,,63,0
298920,note_off,120,0,1,,,,,,,,,0,,,70,0
298920,note_on,120,0,2,,,,,,,,,1,,,67,58
299040,note_off,120,0,2,,,,,,,,,1,,,67,0
299040,note_on,120,0,1,,,,,,,,,0,,,63,59
299160,note_on,120,0,2,,,,,,,,,1,,,58,60
299160,note_off,120,0,1,,,,,,,,,0,,,63,0
299280,note_on,120,0,1,,,,,,,,,0,,,67,60
299280,note_off,120,0,2,,,,,,,,,1,,,58,0
299400,note_off,120,0,1,,,,,,,,,0,,,67,0
299400,note_on,120,0,2,,,,,,,,,1,,,63,61
299520,note_on,120,0,1,,,,,,,,,0,,,70,61
299520,note_off,120,0,2,,,,,,,,,1,,,63,0
299640,note_off,120,0,1,,,,,,,,,0,,,70,0
299640,note_on,120,0,2,,,,,,,,,1,,,67,62
299760,note_off,120,0,2,,,,,,,,,1,,,67,0
299760,note_on,120,0,1,,,,,,,,,0,,,75,62
299880,note_off,120,0,1,,,,,,,,,0,,,75,0
299880,note_on,120,0,2,,,,,,,,,1,,,70,63
300000,note_off,120,0,2,,,,,,,,,1,,,70,0
300000,note_on,120,0,1,,,,,,,,,0,,,67,63
300120,note_off,120,0,1,,,,,,,,,0,,,67,0
300120,note_on,120,0,2,,,,,,,,,1,,,63,64
300240,note_off,120,0,2,,,,,,,,,1,,,63,0
300240,note_on,120,0,1,,,,,,,,,0,,,70,65
300360,note_off,120,0,1,,,,,,,,,0,,,70,0
300360,note_on,120,0,2,,,,,,,,,1,,,67,65
300480,note_off,120,0,2,,,,,,,,,1,,,67,0
300480,note_on,120,0,1,,,,,,,,,0,,,75,66
300600,note_on,120,0,2,,,,,,,,,1,,,70,66
300600,note_off,120,0,1,,,,,,,,,0,,,75,0
300720,set_tempo,4080,1,0,,,,,,422535,,,,,,,
300720,note_off,120,0,2,,,,,,,,,1,,,70,0
300720,note_on,120,0,1,,,,,,,,,0,,,79,67
300840,set_tempo,120,1,0,,,,,,428571,,,,,,,
300840,note_on,120,0,2,,,,,,,,,1,,,75,67
300840,note_off,120,0,1,,,,,,,,,0,,,79,0
300960,note_off,120,0,2,,,,,,,,,1,,,75,0
300960,note_on,120,0,1,,,,,,,,,0,,,82,70
300960,set_tempo,120,1,0,,,,,,422535,,,,,,,
301056,note_off,96,0,1,,,,,,,,,0,,,82,0
301080,control_change,24,0,1,,,,,,,64,0,0,,,,
301080,control_change,4248,0,4,,,,,,,64,0,3,,,,
301080,control_change,120,0,2,,,,,,,64,0,1,,,,
301200,note_on,120,0,1,,,,,,,,,0,,,70,70
301200,note_on,120,0,4,,,,,,,,,3,,,58,63
301296,note_off,96,0,1,,,,,,,,,0,,,70,0
301296,note_off,96,0,4,,,,,,,,,3,,,58,0
301440,note_on,144,0,1,,,,,,,,,0,,,75,71
301440,note_on,144,0,4,,,,,,,,,3,,,63,64
301536,note_off,96,0,1,,,,,,,,,0,,,75,0
301536,note_off,96,0,4,,,,,,,,,3,,,63,0
301680,note_on,144,0,4,,,,,,,,,3,,,67,65
301680,note_on,144,0,1,,,,,,,,,0,,,79,72
301776,note_off,96,0,1,,,,,,,,,0,,,79,0
301776,note_off,96,0,4,,,,,,,,,3,,,67,0
301920,note_on,144,0,4,,,,,,,,,3,,,70,65
301920,note_on,144,0,1,,,,,,,,,0,,,82,73
302016,note_off,96,0,1,,,,,,,,,0,,,82,0
302016,note_off,96,0,4,,,,,,,,,3,,,70,0
302160,note_on,144,0,1,,,,,,,,,0,,,58,73
302256,note_off,96,0,1,,,,,,,,,0,,,58,0
302400,note_on,144,0,1,,,,,,,,,0,,,63,74
302496,note_off,96,0,1,,,,,,,,,0,,,63,0
302640,note_on,144,0,1,,,,,,,,,0,,,67,75
302736,note_off,96,0,1,,,,,,,,,0,,,67,0
302880,note_on,144,0,1,,,,,,,,,0,,,70,76
302976,note_off,96,0,1,,,,,,,,,0,,,70,0
303120,note_on,1104,0,4,,,,,,,,,3,,,34,70
303120,note_on,144,0,1,,,,,,,,,0,,,46,77
303216,note_off,96,0,1,,,,,,,,,0,,,46,0
303216,note_off,96,0,4,,,,,,,,,3,,,34,0
303360,note_on,144,0,1,,,,,,,,,0,,,51,77
303360,note_on,144,0,4,,,,,,,,,3,,,39,70
303456,note_off,96,0,1,,,,,,,,,0,,,51,0
303456,note_off,96,0,4,,,,,,,,,3,,,39,0
303600,note_on,144,0,1,,,,,,,,,0,,,55,78
303600,note_on,144,0,4,,,,,,,,,3,,,43,71
303696,note_off,96,0,1,,,,,,,,,0,,,55,0
303696,note_off,96,0,4,,,,,,,,,3,,,43,0
303840,note_on,144,0,4,,,,,,,,,3,,,46,72
303840,note_on,144,0,1,,,,,,,,,0,,,58,79
303936,note_off,96,0,4,,,,,,,,,3,,,46,0
303936,note_off,96,0,1,,,,,,,,,0,,,58,0
304080,note_on,144,0,1,,,,,,,,,0,,,63,80
304080,note_on,144,0,4,,,,,,,,,3,,,51,73
304176,note_off,96,0,4,,,,,,,,,3,,,51,0
304176,note_off,96,0,1,,,,,,,,,0,,,63,0
304320,note_on,144,0,1,,,,,,,,,0,,,67,80
304320,note_on,144,0,4,,,,,,,,,3,,,55,74
304416,note_off,96,0,4,,,,,,,,,3,,,55,0
304416,note_off,96,0,1,,,,,,,,,0,,,67,0
304560,note_on,144,0,4,,,,,,,,,3,,,58,75
304560,note_on,144,0,1,,,,,,,,,0,,,70,81
304656,note_off,96,0,1,,,,,,,,,0,,,70,0
304656,note_off,96,0,4,,,,,,,,,3,,,58,0
304800,note_on,144,0,1,,,,,,,,,0,,,75,82
304800,note_on,144,0,4,,,,,,,,,3,,,63,75
304896,note_off,96,0,1,,,,,,,,,0,,,75,0
304896,note_off,96,0,4,,,,,,,,,3,,,63,0
305040,note_on,144,0,1,,,,,,,,,0,,,79,83
305040,note_on,144,0,4,,,,,,,,,3,,,67,76
305136,note_off,96,0,4,,,,,,,,,3,,,67,0
305136,note_off,96,0,1,,,,,,,,,0,,,79,0
305280,note_on,144,0,4,,,,,,,,,3,,,70,77
305280,note_on,144,0,1,,,,,,,,,0,,,82,83
305376,note_off,96,0,1,,,,,,,,,0,,,82,0
305520,note_off,240,0,4,,,,,,,,,3,,,70,0
305520,note_on,144,0,1,,,,,,,,,0,,,81,81
305760,note_off,240,0,1,,,,,,,,,0,,,81,0
305760,note_on,0,0,1,,,,,,,,,0,,,84,71
305856,note_off,96,0,1,,,,,,,,,0,,,84,0
306000,note_on,144,0,1,,,,,,,,,0,,,82,60
306096,note_off,96,0,1,,,,,,,,,0,,,82,0
306240,note_on,144,0,1,,,,,,,,,0,,,80,49
306336,note_off,96,0,1,,,,,,,,,0,,,80,0
306360,set_tempo,5400,1,0,,,,,,428571,,,,,,,
306480,note_on,144,0,1,,,,,,,,,0,,,79,39
306576,note_off,96,0,1,,,,,,,,,0,,,79,0
306600,set_tempo,240,1,0,,,,,,444444,,,,,,,
306720,note_on,0,0,1,,,,,,,,,0,,,77,32
306720,control_change,144,0,1,,,,,,,64,0,0,,,,
306720,control_change,10080,0,3,,,,,,,64,0,2,,,,
306720,control_change,5640,0,2,,,,,,,64,0,1,,,,
306780,set_tempo,180,1,0,,,,,,416666,,,,,,,
306800,note_off,80,0,1,,,,,,,,,0,,,77,0
306800,note_on,0,0,1,,,,,,,,,0,,,79,33
306880,note_off,80,0,1,,,,,,,,,0,,,79,0
306880,note_on,0,0,1,,,,,,,,,0,,,77,34
306960,note_on,1440,0,4,,,,,,,,,3,,,58,46
306960,note_off,80,0,1,,,,,,,,,0,,,77,0
306960,note_on,0,0,1,,,,,,,,,0,,,79,34
307040,note_off,80,0,1,,,,,,,,,0,,,79,0
307040,note_on,0,0,1,,,,,,,,,0,,,77,35
307056,note_off,96,0,4,,,,,,,,,3,,,58,0
307120,note_off,80,0,1,,,,,,,,,0,,,77,0
307120,note_on,0,0,1,,,,,,,,,0,,,79,36
307200,note_on,144,0,4,,,,,,,,,3,,,62,48
307200,note_off,80,0,1,,,,,,,,,0,,,79,0
307200,note_on,0,0,1,,,,,,,,,0,,,77,36
307280,note_on,0,0,1,,,,,,,,,0,,,79,37
307280,note_off,80,0,1,,,,,,,,,0,,,77,0
307296,note_off,96,0,4,,,,,,,,,3,,,62,0
307360,note_on,0,0,1,,,,,,,,,0,,,77,37
307360,note_off,80,0,1,,,,,,,,,0,,,79,0
307440,note_off,80,0,1,,,,,,,,,0,,,77,0
307440,note_on,0,0,1,,,,,,,,,0,,,79,38
307440,note_on,144,0,4,,,,,,,,,3,,,65,49
307520,note_on,0,0,1,,,,,,,,,0,,,77,39
307520,note_off,80,0,1,,,,,,,,,0,,,79,0
307536,note_off,96,0,4,,,,,,,,,3,,,65,0
307600,note_off,80,0,1,,,,,,,,,0,,,77,0
307600,note_on,0,0,1,,,,,,,,,0,,,79,39
307680,note_on,144,0,4,,,,,,,,,3,,,68,50
307680,note_off,80,0,1,,,,,,,,,0,,,79,0
307680,note_on,0,0,1,,,,,,,,,0,,,77,40
307760,note_off,80,0,1,,,,,,,,,0,,,77,0
307760,note_on,0,0,1,,,,,,,,,0,,,79,41
307776,note_off,96,0,4,,,,,,,,,3,,,68,0
307840,note_off,80,0,1,,,,,,,,,0,,,79,0
307840,note_on,0,0,1,,,,,,,,,0,,,77,41
307920,note_off,80,0,1,,,,,,,,,0,,,77,0
307920,note_on,144,0,4,,,,,,,,,3,,,46,52
307920,note_on,0,0,1,,,,,,,,,0,,,79,42
308000,note_off,80,0,1,,,,,,,,,0,,,79,0
308000,note_on,0,0,1,,,,,,,,,0,,,77,43
308016,note_off,96,0,4,,,,,,,,,3,,,46,0
308080,note_on,0,0,1,,,,,,,,,0,,,79,43
308080,note_off,80,0,1,,,,,,,,,0,,,77,0
308160,note_off,80,0,1,,,,,,,,,0,,,79,0
308160,note_on,0,0,1,,,,,,,,,0,,,77,44
308160,note_on,144,0,4,,,,,,,,,3,,,50,53
308240,note_off,80,0,1,,,,,,,,,0,,,77,0
308240,note_on,0,0,1,,,,,,,,,0,,,79,45
308256,note_off,96,0,4,,,,,,,,,3,,,50,0
308320,note_off,80,0,1,,,,,,,,,0,,,79,0
308320,note_on,0,0,1,,,,,,,,,0,,,77,45
308400,note_off,80,0,1,,,,,,,,,0,,,77,0
308400,note_on,0,0,1,,,,,,,,,0,,,79,46
308400,note_on,144,0,4,,,,,,,,,3,,,53,54
308480,note_off,80,0,1,,,,,,,,,0,,,79,0
308480,note_on,0,0,1,,,,,,,,,0,,,77,47
308496,note_off,96,0,4,,,,,,,,,3,,,53,0
308560,note_on,0,0,1,,,,,,,,,0,,,79,47
308560,note_off,80,0,1,,,,,,,,,0,,,77,0
308640,note_off,80,0,1,,,,,,,,,0,,,79,0
308640,note_on,144,0,4,,,,,,,,,3,,,56,56
308640,note_on,0,0,1,,,,,,,,,0,,,77,48
308720,note_off,80,0,1,,,,,,,,,0,,,77,0
308720,note_on,0,0,1,,,,,,,,,0,,,79,48
308736,note_off,96,0,4,,,,,,,,,3,,,56,0
308800,note_off,80,0,1,,,,,,,,,0,,,79,0
308800,note_on,0,0,1,,,,,,,,,0,,,77,49
308880,note_on,144,0,4,,,,,,,,,3,,,47,57
308880,note_on,0,0,1,,,,,,,,,0,,,79,50
308880,note_off,80,0,1,,,,,,,,,0,,,77,0
308960,note_off,80,0,1,,,,,,,,,0,,,79,0
308960,note_on,0,0,1,,,,,,,,,0,,,77,50
308976,note_off,96,0,4,,,,,,,,,3,,,47,0
309040,note_off,80,0,1,,,,,,,,,0,,,77,0
309040,note_on,0,0,1,,,,,,,,,0,,,79,51
309120,note_off,80,0,1,,,,,,,,,0,,,79,0
309120,note_on,0,0,1,,,,,,,,,0,,,77,52
309120,note_on,144,0,4,,,,,,,,,3,,,50,58
309200,note_off,80,0,1,,,,,,,,,0,,,77,0
309200,note_on,0,0,1,,,,,,,,,0,,,79,52
309216,note_off,96,0,4,,,,,,,,,3,,,50,0
309280,note_off,80,0,1,,,,,,,,,0,,,79,0
309280,note_on,0,0,1,,,,,,,,,0,,,77,53
309360,note_on,144,0,4,,,,,,,,,3,,,53,60
309360,note_on,0,0,1,,,,,,,,,0,,,79,54
309360,note_off,80,0,1,,,,,,,,,0,,,77,0
309440,note_off,80,0,1,,,,,,,,,0,,,79,0
309440,note_on,0,0,1,,,,,,,,,0,,,77,54
309456,note_off,96,0,4,,,,,,,,,3,,,53,0
309520,note_off,80,0,1,,,,,,,,,0,,,77,0
309520,note_on,0,0,1,,,,,,,,,0,,,79,55
309600,note_off,80,0,1,,,,,,,,,0,,,79,0
309600,note_on,0,0,1,,,,,,,,,0,,,77,56
309600,note_on,144,0,4,,,,,,,,,3,,,56,61
309680,note_off,80,0,1,,,,,,,,,0,,,77,0
309680,note_on,0,0,1,,,,,,,,,0,,,79,56
309696,note_off,96,0,4,,,,,,,,,3,,,56,0
309760,note_off,80,0,1,,,,,,,,,0,,,79,0
309760,note_on,0,0,1,,,,,,,,,0,,,77,57
309840,note_on,144,0,4,,,,,,,,,3,,,46,62
309840,note_off,80,0,1,,,,,,,,,0,,,77,0
309840,note_on,0,0,1,,,,,,,,,0,,,79,58
309920,note_off,80,0,1,,,,,,,,,0,,,79,0
309920,note_on,0,0,1,,,,,,,,,0,,,77,58
309936,note_off,96,0,4,,,,,,,,,3,,,46,0
310000,note_off,80,0,1,,,,,,,,,0,,,77,0
310000,note_on,0,0,1,,,,,,,,,0,,,79,59
310080,note_on,144,0,4,,,,,,,,,3,,,50,64
310080,note_off,80,0,1,,,,,,,,,0,,,79,0
310080,note_on,0,0,1,,,,,,,,,0,,,77,59
310160,note_on,0,0,1,,,,,,,,,0,,,79,60
310160,note_off,80,0,1,,,,,,,,,0,,,77,0
310176,note_off,96,0,4,,,,,,,,,3,,,50,0
310240,note_on,0,0,1,,,,,,,,,0,,,77,61
310240,note_off,80,0,1,,,,,,,,,0,,,79,0
310320,note_on,0,0,1,,,,,,,,,0,,,79,61
310320,note_off,80,0,1,,,,,,,,,0,,,77,0
310320,note_on,144,0,4,,,,,,,,,3,,,53,65
310400,note_off,80,0,1,,,,,,,,,0,,,79,0
310400,note_on,0,0,1,,,,,,,,,0,,,77,62
310416,note_off,96,0,4,,,,,,,,,3,,,53,0
310480,note_on,0,0,1,,,,,,,,,0,,,79,63
310480,note_off,80,0,1,,,,,,,,,0,,,77,0
310560,note_on,0,0,1,,,,,,,,,0,,,77,63
310560,note_on,144,0,4,,,,,,,,,3,,,56,66
310560,note_off,80,0,1,,,,,,,,,0,,,79,0
310640,note_on,0,0,1,,,,,,,,,0,,,79,64
310640,note_off,80,0,1,,,,,,,,,0,,,77,0
310656,note_off,96,0,4,,,,,,,,,3,,,56,0
310720,note_off,80,0,1,,,,,,,,,0,,,79,0
310720,note_on,0,0,1,,,,,,,,,0,,,77,65
310800,note_on,144,0,4,,,,,,,,,3,,,58,68
310800,note_off,80,0,1,,,,,,,,,0,,,77,0
310800,note_on,0,0,1,,,,,,,,,0,,,79,65
310880,note_off,80,0,1,,,,,,,,,0,,,79,0
310880,note_on,0,0,1,,,,,,,,,0,,,77,66
310896,note_off,96,0,4,,,,,,,,,3,,,58,0
310960,note_off,80,0,1,,,,,,,,,0,,,77,0
310960,note_on,0,0,1,,,,,,,,,0,,,79,67
311040,note_off,80,0,1,,,,,,,,,0,,,79,0
311040,note_on,144,0,4,,,,,,,,,3,,,62,69
311040,note_on,0,0,1,,,,,,,,,0,,,77,67
311120,note_off,80,0,1,,,,,,,,,0,,,77,0
311120,note_on,0,0,1,,,,,,,,,0,,,79,68
311136,note_off,96,0,4,,,,,,,,,3,,,62,0
311200,note_off,80,0,1,,,,,,,,,0,,,79,0
311200,note_on,0,0,1,,,,,,,,,0,,,77,69
311280,note_off,80,0,1,,,,,,,,,0,,,77,0
311280,note_on,0,0,1,,,,,,,,,0,,,79,69
311280,note_on,144,0,4,,,,,,,,,3,,,65,71
311360,note_on,0,0,1,,,,,,,,,0,,,77,70
311360,note_off,80,0,1,,,,,,,,,0,,,79,0
311376,note_off,96,0,4,,,,,,,,,3,,,65,0
311440,note_on,0,0,1,,,,,,,,,0,,,79,70
311440,note_off,80,0,1,,,,,,,,,0,,,77,0
311520,note_off,80,0,1,,,,,,,,,0,,,79,0
311520,note_on,0,0,1,,,,,,,,,0,,,77,71
311520,note_on,144,0,4,,,,,,,,,3,,,68,72
311600,note_on,0,0,1,,,,,,,,,0,,,79,72
311600,note_off,80,0,1,,,,,,,,,0,,,77,0
311616,note_off,96,0,4,,,,,,,,,3,,,68,0
311680,note_off,80,0,1,,,,,,,,,0,,,79,0
311680,note_on,0,0,1,,,,,,,,,0,,,77,72
311760,note_on,144,0,4,,,,,,,,,3,,,58,73
311760,note_on,0,0,1,,,,,,,,,0,,,76,73
311760,note_off,80,0,1,,,,,,,,,0,,,77,0
311856,note_off,96,0,4,,,,,,,,,3,,,58,0
311880,note_on,0,0,1,,,,,,,,,0,,,77,74
311880,set_tempo,5100,1,0,,,,,,422535,,,,,,,
311880,note_off,120,0,1,,,,,,,,,0,,,76,0
312000,note_on,0,0,1,,,,,,,,,0,,,82,75
312000,note_on,144,0,4,,,,,,,,,3,,,68,75
312000,note_off,120,0,1,,,,,,,,,0,,,77,0
312096,note_off,96,0,4,,,,,,,,,3,,,68,0
312120,note_off,120,0,1,,,,,,,,,0,,,82,0
312240,note_on,120,0,1,,,,,,,,,0,,,82,77
312240,set_tempo,360,1,0,,,,,,461538,,,,,,,
312240,note_on,144,0,4,,,,,,,,,3,,,58,76
312336,note_off,96,0,4,,,,,,,,,3,,,58,0
312360,note_off,120,0,1,,,,,,,,,0,,,82,0
312480,note_on,0,0,4,,,,,,,,,3,,,67,77
312480,note_on,120,0,1,,,,,,,,,0,,,75,79
312480,note_on,144,0,4,,,,,,,,,3,,,63,77
312600,set_tempo,360,1,0,,,,,,422535,,,,,,,
312600,note_off,120,0,1,,,,,,,,,0,,,75,0
312720,set_tempo,120,1,0,,,,,,416666,,,,,,,
312720,note_on,120,0,1,,,,,,,,,0,,,75,44
312960,note_off,0,0,4,,,,,,,,,3,,,63,0
312960,note_off,480,0,4,,,,,,,,,3,,,67,0
312960,note_on,0,0,1,,,,,,,,,0,,,76,46
312960,note_off,240,0,1,,,,,,,,,0,,,75,0
313200,note_off,240,0,1,,,,,,,,,0,,,76,0
313200,note_on,0,0,1,,,,,,,,,0,,,77,48
313440,note_off,240,0,1,,,,,,,,,0,,,77,0
313440,note_on,0,0,1,,,,,,,,,0,,,78,49
313680,note_on,0,0,1,,,,,,,,,0,,,79,51
313680,note_off,240,0,1,,,,,,,,,0,,,78,0
313800,set_tempo,1080,1,0,,,,,,422535,,,,,,,
313920,note_on,0,0,1,,,,,,,,,0,,,80,57
313920,note_on,7200,0,3,,,,,,,,,2,,,63,51
313920,set_tempo,120,1,0,,,,,,416666,,,,,,,
313920,note_off,240,0,1,,,,,,,,,0,,,79,0
313920,note_on,960,0,4,,,,,,,,,3,,,60,51
315360,note_off,1440,0,1,,,,,,,,,0,,,80,0
315360,note_on,0,0,1,,,,,,,,,0,,,72,47
315360,note_on,8640,0,2,,,,,,,,,1,,,68,47
315360,note_off,1440,0,3,,,,,,,,,2,,,63,0
315360,note_on,0,0,3,,,,,,,,,2,,,65,47
315360,note_on,0,0,4,,,,,,,,,3,,,56,47
315360,note_off,1440,0,4,,,,,,,,,3,,,60,0
316680,set_tempo,2760,1,0,,,,,,422535,,,,,,,
316800,note_on,0,0,4,,,,,,,,,3,,,58,42
316800,note_off,1440,0,4,,,,,,,,,3,,,56,0
316800,note_on,0,0,2,,,,,,,,,1,,,68,40
316800,set_tempo,120,1,0,,,,,,416666,,,,,,,
316800,note_off,1440,0,3,,,,,,,,,2,,,65,0
316800,note_off,1440,0,2,,,,,,,,,1,,,68,0
316800,note_on,0,0,3,,,,,,,,,2,,,65,42
316800,note_off,1440,0,1,,,,,,,,,0,,,72,0
316800,note_on,0,0,1,,,,,,,,,0,,,75,40
317040,note_off,240,0,1,,,,,,,,,0,,,75,0
317040,note_on,0,0,1,,,,,,,,,0,,,74,39
317160,note_off,360,0,4,,,,,,,,,3,,,58,0
317160,note_off,360,0,3,,,,,,,,,2,,,65,0
317160,note_off,360,0,2,,,,,,,,,1,,,68,0
317280,note_off,240,0,1,,,,,,,,,0,,,74,0
317280,note_on,0,0,1,,,,,,,,,0,,,74,38
317280,note_on,120,0,2,,,,,,,,,1,,,68,38
317280,note_on,120,0,3,,,,,,,,,2,,,65,41
317280,note_on,120,0,4,,,,,,,,,3,,,58,41
317520,note_off,240,0,1,,,,,,,,,0,,,74,0
317520,note_on,0,0,1,,,,,,,,,0,,,72,37
317640,note_off,360,0,4,,,,,,,,,3,,,58,0
317640,note_off,360,0,2,,,,,,,,,1,,,68,0
317640,note_off,360,0,3,,,,,,,,,2,,,65,0
317700,note_on,180,0,1,,,,,,,,,0,,,75,36
317760,note_off,0,0,1,,,,,,,,,0,,,72,0
317760,note_on,120,0,3,,,,,,,,,2,,,65,39
317760,note_off,60,0,1,,,,,,,,,0,,,75,0
317760,note_on,120,0,4,,,,,,,,,3,,,58,39
317760,note_on,0,0,1,,,,,,,,,0,,,74,36
317760,note_on,120,0,2,,,,,,,,,1,,,68,36
318000,note_on,0,0,1,,,,,,,,,0,,,77,35
318000,note_on,0,0,3,,,,,,,,,2,,,62,39
318000,note_off,240,0,3,,,,,,,,,2,,,65,0
318000,note_off,240,0,1,,,,,,,,,0,,,74,0
318120,note_off,360,0,2,,,,,,,,,1,,,68,0
318120,set_tempo,1320,1,0,,,,,,422535,,,,,,,
318120,note_off,360,0,4,,,,,,,,,3,,,58,0
318240,note_on,0,0,1,,,,,,,,,0,,,75,36
318240,note_off,240,0,1,,,,,,,,,0,,,77,0
318240,note_on,0,0,3,,,,,,,,,2,,,63,41
318240,note_on,120,0,2,,,,,,,,,1,,,67,36
318240,note_off,240,0,3,,,,,,,,,2,,,62,0
318240,note_on,120,0,4,,,,,,,,,3,,,51,41
318370,set_tempo,250,1,0,,,,,,416666,,,,,,,
318480,note_on,0,0,1,,,,,,,,,0,,,63,44
318480,note_off,240,0,1,,,,,,,,,0,,,75,0
318480,note_off,240,0,3,,,,,,,,,2,,,63,0
318600,note_off,360,0,2,,,,,,,,,1,,,67,0
318600,note_off,360,0,4,,,,,,,,,3,,,51,0
318720,note_on,120,0,4,,,,,,,,,3,,,52,52
318720,note_off,240,0,1,,,,,,,,,0,,,63,0
318720,note_on,0,0,1,,,,,,,,,0,,,64,51
318960,note_off,240,0,4,,,,,,,,,3,,,52,0
318960,note_on,0,0,4,,,,,,,,,3,,,53,57
318960,note_off,240,0,1,,,,,,,,,0,,,64,0
318960,note_on,0,0,1,,,,,,,,,0,,,65,58
319200,note_off,240,0,4,,,,,,,,,3,,,53,0
319200,note_on,0,0,4,,,,,,,,,3,,,54,63
319200,note_on,0,0,1,,,,,,,,,0,,,66,66
319200,note_off,240,0,1,,,,,,,,,0,,,65,0
319440,note_on,0,0,1,,,,,,,,,0,,,67,73
319440,note_on,0,0,4,,,,,,,,,3,,,55,68
319440,note_off,240,0,4,,,,,,,,,3,,,54,0
319440,note_off,240,0,1,,,,,,,,,0,,,66,0
319560,set_tempo,1190,1,0,,,,,,422535,,,,,,,
319680,note_off,240,0,4,,,,,,,,,3,,,55,0
319680,note_on,0,0,4,,,,,,,,,3,,,56,73
319680,set_tempo,120,1,0,,,,,,416666,,,,,,,
319680,note_on,0,0,1,,,,,,,,,0,,,68,81
319680,note_off,240,0,1,,,,,,,,,0,,,67,0
321120,note_on,2520,0,2,,,,,,,,,1,,,56,66
321120,set_tempo,1440,1,0,,,,,,422535,,,,,,,
321120,note_on,2640,0,3,,,,,,,,,2,,,48,62
321120,note_on,0,0,4,,,,,,,,,3,,,44,62
321120,note_off,1440,0,4,,,,,,,,,3,,,56,0
321120,note_on,0,0,1,,,,,,,,,0,,,60,66
321120,note_off,1440,0,1,,,,,,,,,0,,,68,0
322065,set_tempo,945,1,0,,,,,,441176,,,,,,,
322080,note_off,960,0,1,,,,,,,,,0,,,60,0
322080,note_on,0,0,3,,,,,,,,,2,,,49,55
322080,note_on,0,0,1,,,,,,,,,0,,,61,56
322080,note_off,960,0,3,,,,,,,,,2,,,48,0
322320,note_on,0,0,1,,,,,,,,,0,,,63,54
322320,note_on,0,0,3,,,,,,,,,2,,,51,54
322320,note_off,240,0,1,,,,,,,,,0,,,61,0
322320,note_off,240,0,3,,,,,,,,,2,,,49,0
322320,set_tempo,255,1,0,,,,,,500000,,,,,,,
322560,note_on,0,0,2,,,,,,,,,1,,,56,64
322560,note_on,0,0,3,,,,,,,,,2,,,46,59
322560,note_on,0,0,2,,,,,,,,,1,,,53,64
322560,note_on,0,0,3,,,,,,,,,2,,,44,59
322560,set_tempo,240,1,0,,,,,,416666,,,,,,,
322560,note_off,1440,0,2,,,,,,,,,1,,,56,0
322560,note_on,0,0,3,,,,,,,,,2,,,49,59
322560,control_change,240,0,1,,,,,,,64,127,0,,,,
322560,note_off,240,0,3,,,,,,,,,2,,,51,0
322560,note_on,0,0,1,,,,,,,,,0,,,65,64
322560,note_on,0,0,4,,,,,,,,,3,,,37,59
322560,note_off,1440,0,4,,,,,,,,,3,,,44,0
322560,note_off,0,0,1,,,,,,,,,0,,,63,0
322920,note_on,0,0,1,,,,,,,,,0,,,58,58
322920,note_off,360,0,1,,,,,,,,,0,,,65,0
323040,note_on,0,0,1,,,,,,,,,0,,,58,56
323040,note_off,120,0,1,,,,,,,,,0,,,58,0
323400,note_off,0,0,1,,,,,,,,,0,,,58,0
323400,note_off,840,0,3,,,,,,,,,2,,,49,0
323400,note_off,840,0,4,,,,,,,,,3,,,37,0
323400,control_change,360,0,1,,,,,,,64,0,0,,,,
323407,note_off,847,0,2,,,,,,,,,1,,,53,0
323407,note_off,0,0,3,,,,,,,,,2,,,44,0
323407,note_off,0,0,2,,,,,,,,,1,,,56,0
323407,note_off,7,0,3,,,,,,,,,2,,,46,0
323490,set_tempo,930,1,0,,,,,,428571,,,,,,,
324000,note_on,593,0,2,,,,,,,,,1,,,56,52
324000,set_tempo,510,1,0,,,,,,425531,,,,,,,
324000,note_on,0,0,2,,,,,,,,,1,,,53,52
324000,note_on,600,0,4,,,,,,,,,3,,,37,51
324000,note_on,0,0,3,,,,,,,,,2,,,46,51
324000,note_on,0,0,3,,,,,,,,,2,,,49,51
324000,note_on,593,0,3,,,,,,,,,2,,,44,51
324000,control_change,600,0,1,,,,,,,64,127,0,,,,
324000,note_on,0,0,1,,,,,,,,,0,,,65,52
324360,note_off,360,0,1,,,,,,,,,0,,,65,0
324360,note_on,0,0,1,,,,,,,,,0,,,58,47
324480,note_off,120,0,1,,,,,,,,,0,,,58,0
324480,note_on,0,0,1,,,,,,,,,0,,,58,45
324840,note_off,0,0,3,,,,,,,,,2,,,44,0
324840,note_off,0,0,1,,,,,,,,,0,,,58,0
324840,control_change,360,0,1,,,,,,,64,0,0,,,,
324840,note_off,840,0,2,,,,,,,,,1,,,56,0
324840,note_off,840,0,4,,,,,,,,,3,,,37,0
324840,note_off,840,0,3,,,,,,,,,2,,,46,0
324847,note_off,7,0,2,,,,,,,,,1,,,53,0
324847,note_off,7,0,3,,,,,,,,,2,,,49,0
324960,set_tempo,960,1,0,,,,,,441176,,,,,,,
324960,control_change,120,0,1,,,,,,,64,0,0,,,,
325440,set_tempo,480,1,0,,,,,,441176,,,,,,,
325440,note_on,480,0,1,,,,,,,,,0,,,58,42
325440,note_on,593,0,3,,,,,,,,,2,,,56,42
325440,note_on,0,0,3,,,,,,,,,2,,,53,42
325440,note_on,0,0,3,,,,,,,,,2,,,49,40
325440,note_on,600,0,4,,,,,,,,,3,,,37,40
325728,note_off,288,0,4,,,,,,,,,3,,,37,0
325728,note_off,288,0,3,,,,,,,,,2,,,49,0
325728,note_off,0,0,3,,,,,,,,,2,,,53,0
325728,note_off,288,0,1,,,,,,,,,0,,,58,0
325728,note_off,0,0,3,,,,,,,,,2,,,56,0
325920,note_on,192,0,3,,,,,,,,,2,,,53,43
325920,note_on,192,0,4,,,,,,,,,3,,,37,41
325920,note_on,192,0,1,,,,,,,,,0,,,58,43
325920,note_on,0,0,3,,,,,,,,,2,,,56,43
325920,note_on,0,0,3,,,,,,,,,2,,,49,41
326175,set_tempo,735,1,0,,,,,,447761,,,,,,,
326208,note_off,288,0,3,,,,,,,,,2,,,49,0
326208,note_off,288,0,4,,,,,,,,,3,,,37,0
326208,note_off,0,0,3,,,,,,,,,2,,,53,0
326208,note_off,288,0,1,,,,,,,,,0,,,58,0
326208,note_off,0,0,3,,,,,,,,,2,,,56,0
326400,note_on,192,0,1,,,,,,,,,0,,,58,44
326400,note_on,192,0,4,,,,,,,,,3,,,37,41
326400,note_on,192,0,3,,,,,,,,,2,,,53,44
326400,note_on,0,0,3,,,,,,,,,2,,,56,44
326400,note_on,0,0,3,,,,,,,,,2,,,49,41
326430,set_tempo,255,1,0,,,,,,508474,,,,,,,
326688,note_off,288,0,1,,,,,,,,,0,,,58,0
326688,note_off,0,0,3,,,,,,,,,2,,,56,0
326688,note_off,288,0,3,,,,,,,,,2,,,49,0
326688,note_off,288,0,4,,,,,,,,,3,,,37,0
326688,note_off,0,0,3,,,,,,,,,2,,,53,0
326880,set_tempo,450,1,0,,,,,,674157,,,,,,,
326880,note_on,192,0,1,,,,,,,,,0,,,59,44
326880,note_on,192,0,3,,,,,,,,,2,,,56,44
326880,note_on,0,0,3,,,,,,,,,2,,,53,44
326880,note_on,0,0,3,,,,,,,,,2,,,49,42
326880,note_on,192,0,4,,,,,,,,,3,,,37,42
328200,note_off,1320,0,3,,,,,,,,,2,,,53,0
328200,note_off,0,0,3,,,,,,,,,2,,,56,0
328207,note_off,1327,0,1,,,,,,,,,0,,,59,0
328207,note_off,7,0,3,,,,,,,,,2,,,49,0
328207,note_off,1327,0,4,,,,,,,,,3,,,37,0
328320,note_on,0,0,2,,,,,,,,,1,,,68,47
328320,note_on,113,0,1,,,,,,,,,0,,,71,47
328320,set_tempo,1440,1,0,,,,,,447761,,,,,,,
328320,note_on,3473,0,2,,,,,,,,,1,,,65,47
328320,note_on,113,0,4,,,,,,,,,3,,,61,45
328608,note_off,288,0,1,,,,,,,,,0,,,71,0
328608,note_off,0,0,2,,,,,,,,,1,,,65,0
328608,note_off,288,0,4,,,,,,,,,3,,,61,0
328608,note_off,288,0,2,,,,,,,,,1,,,68,0
328800,note_on,192,0,2,,,,,,,,,1,,,68,48
328800,note_on,0,0,2,,,,,,,,,1,,,65,48
328800,note_on,192,0,1,,,,,,,,,0,,,71,48
328800,note_on,192,0,4,,,,,,,,,3,,,61,46
328995,set_tempo,675,1,0,,,,,,454545,,,,,,,
329088,note_off,288,0,2,,,,,,,,,1,,,65,0
329088,note_off,288,0,1,,,,,,,,,0,,,71,0
329088,note_off,0,0,2,,,,,,,,,1,,,68,0
329088,note_off,288,0,4,,,,,,,,,3,,,61,0
329265,set_tempo,270,1,0,,,,,,550458,,,,,,,
329280,note_on,0,0,2,,,,,,,,,1,,,65,49
329280,note_on,192,0,2,,,,,,,,,1,,,68,49
329280,note_on,192,0,4,,,,,,,,,3,,,61,46
329280,note_on,192,0,1,,,,,,,,,0,,,71,49
329568,note_off,288,0,2,,,,,,,,,1,,,65,0
329568,note_off,288,0,1,,,,,,,,,0,,,71,0
329568,note_off,288,0,4,,,,,,,,,3,,,61,0
329568,note_off,0,0,2,,,,,,,,,1,,,68,0
329760,set_tempo,495,1,0,,,,,,461538,,,,,,,
329760,note_on,192,0,1,,,,,,,,,0,,,72,50
329760,note_on,192,0,2,,,,,,,,,1,,,68,50
329760,note_on,0,0,2,,,,,,,,,1,,,66,50
329760,note_on,192,0,4,,,,,,,,,3,,,63,47
330600,note_off,840,0,2,,,,,,,,,1,,,66,0
330607,note_off,7,0,2,,,,,,,,,1,,,68,0
330607,note_off,847,0,1,,,,,,,,,0,,,72,0
330622,note_off,862,0,4,,,,,,,,,3,,,63,0
330720,note_on,98,0,4,,,,,,,,,3,,,39,53
330720,note_on,113,0,1,,,,,,,,,0,,,60,56
330720,set_tempo,960,1,0,,,,,,434782,,,,,,,
330720,note_on,0,0,2,,,,,,,,,1,,,54,56
330720,note_on,113,0,2,,,,,,,,,1,,,56,56
330720,note_on,2513,0,3,,,,,,,,,2,,,51,53
331200,note_on,0,0,1,,,,,,,,,0,,,61,51
331200,note_off,480,0,2,,,,,,,,,1,,,54,0
331200,note_off,480,0,4,,,,,,,,,3,,,39,0
331200,note_on,0,0,2,,,,,,,,,1,,,56,51
331200,note_off,480,0,3,,,,,,,,,2,,,51,0
331200,note_on,0,0,3,,,,,,,,,2,,,52,47
331200,note_on,0,0,4,,,,,,,,,3,,,40,47
331200,note_off,0,0,2,,,,,,,,,1,,,56,0
331200,note_off,480,0,1,,,,,,,,,0,,,60,0
331560,note_off,360,0,1,,,,,,,,,0,,,61,0
331560,note_off,360,0,2,,,,,,,,,1,,,56,0
331560,note_off,360,0,3,,,,,,,,,2,,,52,0
331560,note_off,360,0,4,,,,,,,,,3,,,40,0
332160,note_on,600,0,4,,,,,,,,,3,,,64,55
332160,note_on,600,0,1,,,,,,,,,0,,,73,57
332160,note_on,600,0,2,,,,,,,,,1,,,68,57
332640,note_off,480,0,2,,,,,,,,,1,,,68,0
332640,note_on,0,0,2,,,,,,,,,1,,,68,52
332640,note_on,0,0,2,,,,,,,,,1,,,71,52
332640,note_on,0,0,1,,,,,,,,,0,,,74,52
332640,note_on,0,0,4,,,,,,,,,3,,,65,50
332640,note_off,480,0,4,,,,,,,,,3,,,64,0
332640,note_off,480,0,1,,,,,,,,,0,,,73,0
333000,note_off,360,0,4,,,,,,,,,3,,,65,0
333000,note_off,360,0,2,,,,,,,,,1,,,71,0
333000,note_off,360,0,1,,,,,,,,,0,,,74,0
333000,note_off,0,0,2,,,,,,,,,1,,,68,0
333600,note_on,2040,0,3,,,,,,,,,2,,,53,57
333600,note_on,600,0,4,,,,,,,,,3,,,41,57
333600,note_on,600,0,2,,,,,,,,,1,,,59,62
333600,note_on,600,0,1,,,,,,,,,0,,,62,62
333600,note_on,0,0,2,,,,,,,,,1,,,56,62
334080,note_on,0,0,1,,,,,,,,,0,,,63,58
334080,note_on,0,0,2,,,,,,,,,1,,,58,58
334080,note_off,480,0,1,,,,,,,,,0,,,62,0
334080,note_off,480,0,2,,,,,,,,,1,,,56,0
334080,note_off,0,0,2,,,,,,,,,1,,,59,0
334080,note_off,480,0,4,,,,,,,,,3,,,41,0
334080,note_on,0,0,4,,,,,,,,,3,,,42,53
334080,note_off,480,0,3,,,,,,,,,2,,,53,0
334080,note_on,0,0,3,,,,,,,,,2,,,54,53
334440,note_off,360,0,4,,,,,,,,,3,,,42,0
334440,note_off,360,0,2,,,,,,,,,1,,,58,0
334440,note_off,360,0,1,,,,,,,,,0,,,63,0
334440,note_off,360,0,3,,,,,,,,,2,,,54,0
335040,note_on,600,0,4,,,,,,,,,3,,,66,61
335040,note_on,600,0,2,,,,,,,,,1,,,70,65
335040,note_on,600,0,1,,,,,,,,,0,,,75,65
335520,note_on,0,0,1,,,,,,,,,0,,,76,58
335520,note_off,480,0,1,,,,,,,,,0,,,75,0
335520,note_on,0,0,4,,,,,,,,,3,,,67,56
335520,note_on,0,0,2,,,,,,,,,1,,,73,58
335520,note_off,480,0,2,,,,,,,,,1,,,70,0
335520,note_off,480,0,4,,,,,,,,,3,,,66,0
335520,note_on,0,0,2,,,,,,,,,1,,,70,58
335880,note_off,0,0,2,,,,,,,,,1,,,73,0
335880,note_off,360,0,2,,,,,,,,,1,,,70,0
335880,note_off,360,0,4,,,,,,,,,3,,,67,0
335880,note_off,360,0,1,,,,,,,,,0,,,76,0
336480,note_on,600,0,2,,,,,,,,,1,,,61,62
336480,note_on,600,0,1,,,,,,,,,0,,,64,62
336480,note_on,0,0,2,,,,,,,,,1,,,58,62
336480,set_tempo,5760,1,0,,,,,,434782,,,,,,,
336480,note_on,2040,0,3,,,,,,,,,2,,,55,59
336480,note_on,600,0,4,,,,,,,,,3,,,43,59
336960,note_off,480,0,3,,,,,,,,,2,,,55,0
336960,note_off,480,0,1,,,,,,,,,0,,,64,0
336960,note_on,0,0,1,,,,,,,,,0,,,65,63
336960,note_off,0,0,2,,,,,,,,,1,,,61,0
336960,note_off,480,0,2,,,,,,,,,1,,,58,0
336960,note_on,0,0,4,,,,,,,,,3,,,44,60
336960,note_off,480,0,4,,,,,,,,,3,,,43,0
336960,note_on,0,0,2,,,,,,,,,1,,,60,63
336960,note_on,0,0,3,,,,,,,,,2,,,56,60
336960,set_tempo,480,1,0,,,,,,441176,,,,,,,
337248,note_off,288,0,2,,,,,,,,,1,,,60,0
337248,note_off,288,0,3,,,,,,,,,2,,,56,0
337248,note_off,288,0,1,,,,,,,,,0,,,65,0
337248,note_off,288,0,4,,,,,,,,,3,,,44,0
337440,note_on,192,0,1,,,,,,,,,0,,,65,64
337440,note_on,192,0,4,,,,,,,,,3,,,44,60
337440,note_on,192,0,2,,,,,,,,,1,,,60,64
337440,note_on,192,0,3,,,,,,,,,2,,,56,60
337695,set_tempo,735,1,0,,,,,,447761,,,,,,,
337728,note_off,288,0,4,,,,,,,,,3,,,44,0
337728,note_off,288,0,1,,,,,,,,,0,,,65,0
337728,note_off,288,0,3,,,,,,,,,2,,,56,0
337728,note_off,288,0,2,,,,,,,,,1,,,60,0
337920,note_on,192,0,2,,,,,,,,,1,,,60,65
337920,note_on,192,0,1,,,,,,,,,0,,,65,65
337920,note_on,192,0,4,,,,,,,,,3,,,44,61
337920,note_on,192,0,3,,,,,,,,,2,,,56,61
337950,set_tempo,255,1,0,,,,,,508474,,,,,,,
338208,note_off,288,0,1,,,,,,,,,0,,,65,0
338208,note_off,288,0,2,,,,,,,,,1,,,60,0
338208,note_off,288,0,3,,,,,,,,,2,,,56,0
338208,note_off,288,0,4,,,,,,,,,3,,,44,0
338400,note_on,192,0,4,,,,,,,,,3,,,45,62
338400,note_on,192,0,1,,,,,,,,,0,,,66,66
338400,set_tempo,450,1,0,,,,,,674157,,,,,,,
338400,note_on,192,0,2,,,,,,,,,1,,,63,66
338400,note_on,0,0,2,,,,,,,,,1,,,60,66
338400,note_on,192,0,3,,,,,,,,,2,,,57,62
339720,note_off,1320,0,2,,,,,,,,,1,,,60,0
339720,note_off,1320,0,1,,,,,,,,,0,,,66,0
339727,note_off,1327,0,4,,,,,,,,,3,,,45,0
339727,note_off,7,0,2,,,,,,,,,1,,,63,0
339727,note_off,1327,0,3,,,,,,,,,2,,,57,0
339840,note_on,120,0,1,,,,,,,,,0,,,78,68
339840,set_tempo,1440,1,0,,,,,,447761,,,,,,,
339840,note_on,113,0,2,,,,,,,,,1,,,72,68
339840,note_on,113,0,4,,,,,,,,,3,,,69,65
339840,note_on,0,0,2,,,,,,,,,1,,,75,68
340128,note_off,288,0,2,,,,,,,,,1,,,75,0
340128,note_off,288,0,4,,,,,,,,,3,,,69,0
340128,note_off,288,0,1,,,,,,,,,0,,,78,0
340128,note_off,0,0,2,,,,,,,,,1,,,72,0
340320,note_on,192,0,1,,,,,,,,,0,,,78,69
340320,note_on,0,0,2,,,,,,,,,1,,,75,69
340320,note_on,192,0,2,,,,,,,,,1,,,72,69
340320,note_on,192,0,4,,,,,,,,,3,,,69,65
340515,set_tempo,675,1,0,,,,,,454545,,,,,,,
340608,note_off,288,0,2,,,,,,,,,1,,,75,0
340608,note_off,288,0,4,,,,,,,,,3,,,69,0
340608,note_off,288,0,1,,,,,,,,,0,,,78,0
340608,note_off,0,0,2,,,,,,,,,1,,,72,0
340785,set_tempo,270,1,0,,,,,,560747,,,,,,,
340800,note_on,192,0,1,,,,,,,,,0,,,78,70
340800,note_on,192,0,2,,,,,,,,,1,,,72,70
340800,note_on,192,0,4,,,,,,,,,3,,,69,66
340800,note_on,0,0,2,,,,,,,,,1,,,75,70
341088,note_off,0,0,2,,,,,,,,,1,,,72,0
341088,note_off,288,0,1,,,,,,,,,0,,,78,0
341088,note_off,288,0,4,,,,,,,,,3,,,69,0
341088,note_off,288,0,2,,,,,,,,,1,,,75,0
341280,control_change,1553,0,3,,,,,,,64,127,2,,,,
341280,control_change,192,0,1,,,,,,,64,127,0,,,,
341280,control_change,0,0,3,,,,,,,64,127,2,,,,
341280,note_on,0,0,1,,,,,,,,,0,,,79,75
341280,note_on,0,0,4,,,,,,,,,3,,,70,71
341280,control_change,192,0,2,,,,,,,64,127,1,,,,
341280,control_change,0,0,2,,,,,,,64,127,1,,,,
341280,note_on,0,0,2,,,,,,,,,1,,,75,75
341280,control_change,0,0,1,,,,,,,64,127,0,,,,
341280,control_change,192,0,4,,,,,,,64,127,3,,,,
341280,control_change,0,0,4,,,,,,,64,127,3,,,,
341280,set_tempo,495,1,0,,,,,,582524,,,,,,,
342127,note_off,847,0,1,,,,,,,,,0,,,79,0
342127,note_off,847,0,2,,,,,,,,,1,,,75,0
342142,note_off,862,0,4,,,,,,,,,3,,,70,0
344040,control_change,1913,0,1,,,,,,,64,0,0,,,,
344040,control_change,0,0,1,,,,,,,64,0,0,,,,
344040,control_change,1898,0,4,,,,,,,64,0,3,,,,
344040,control_change,0,0,4,,,,,,,64,0,3,,,,
344040,control_change,1913,0,2,,,,,,,64,0,1,,,,
344040,control_change,0,0,3,,,,,,,64,0,2,,,,
344040,control_change,0,0,2,,,,,,,64,0,1,,,,
344040,control_change,2760,0,3,,,,,,,64,0,2,,,,
344160,note_on,120,0,4,,,,,,,,,3,,,34,51
344160,note_on,120,0,3,,,,,,,,,2,,,46,51
344160,note_on,120,0,1,,,,,,,,,0,,,67,55
344160,note_on,0,0,2,,,,,,,,,1,,,62,51
344160,note_on,120,0,2,,,,,,,,,1,,,56,51
344160,set_tempo,2880,1,0,,,,,,422535,,,,,,,
344400,note_off,240,0,1,,,,,,,,,0,,,67,0
344400,note_on,0,0,1,,,,,,,,,0,,,65,53
344580,note_off,420,0,3,,,,,,,,,2,,,46,0
344587,note_off,427,0,4,,,,,,,,,3,,,34,0
344587,note_off,427,0,2,,,,,,,,,1,,,62,0
344587,note_off,0,0,2,,,,,,,,,1,,,56,0
344640,note_on,53,0,4,,,,,,,,,3,,,34,49
344640,note_on,60,0,3,,,,,,,,,2,,,46,49
344640,note_on,53,0,2,,,,,,,,,1,,,56,50
344640,note_on,0,0,2,,,,,,,,,1,,,62,50
344640,note_off,240,0,1,,,,,,,,,0,,,65,0
344640,note_on,0,0,1,,,,,,,,,0,,,65,52
344760,note_on,0,0,1,,,,,,,,,0,,,67,51
344760,note_off,120,0,1,,,,,,,,,0,,,65,0
344880,note_off,120,0,1,,,,,,,,,0,,,67,0
344880,note_on,0,0,1,,,,,,,,,0,,,65,50
345000,note_off,120,0,1,,,,,,,,,0,,,65,0
345000,note_on,0,0,1,,,,,,,,,0,,,64,50
345052,note_off,412,0,2,,,,,,,,,1,,,56,0
345060,note_off,420,0,3,,,,,,,,,2,,,46,0
345067,note_off,427,0,4,,,,,,,,,3,,,34,0
345067,note_off,15,0,2,,,,,,,,,1,,,62,0
345120,note_on,53,0,4,,,,,,,,,3,,,34,47
345120,note_on,0,0,1,,,,,,,,,0,,,65,49
345120,note_on,60,0,3,,,,,,,,,2,,,46,47
345120,note_off,120,0,1,,,,,,,,,0,,,64,0
345120,note_on,0,0,2,,,,,,,,,1,,,62,48
345120,note_on,53,0,2,,,,,,,,,1,,,56,48
345276,note_off,156,0,1,,,,,,,,,0,,,65,0
345360,note_on,84,0,1,,,,,,,,,0,,,67,47
345480,set_tempo,1320,1,0,,,,,,428571,,,,,,,
345516,note_off,156,0,1,,,,,,,,,0,,,67,0
345540,note_off,420,0,2,,,,,,,,,1,,,62,0
345547,note_off,427,0,4,,,,,,,,,3,,,34,0
345547,note_off,427,0,3,,,,,,,,,2,,,46,0
345555,note_off,15,0,2,,,,,,,,,1,,,56,0
345600,note_on,53,0,4,,,,,,,,,3,,,39,45
345600,note_on,53,0,3,,,,,,,,,2,,,51,45
345600,note_on,45,0,2,,,,,,,,,1,,,55,48
345600,set_tempo,120,1,0,,,,,,416666,,,,,,,
345600,note_on,84,0,1,,,,,,,,,0,,,63,44
345720,note_off,120,0,1,,,,,,,,,0,,,63,0
345720,note_on,0,0,1,,,,,,,,,0,,,65,45
345840,note_on,0,0,1,,,,,,,,,0,,,63,45
345840,note_off,120,0,1,,,,,,,,,0,,,65,0
345960,note_on,0,0,1,,,,,,,,,0,,,62,46
345960,note_off,120,0,1,,,,,,,,,0,,,63,0
346080,note_off,480,0,3,,,,,,,,,2,,,51,0
346080,note_off,480,0,4,,,,,,,,,3,,,39,0
346080,note_off,480,0,2,,,,,,,,,1,,,55,0
346080,note_off,120,0,1,,,,,,,,,0,,,62,0
346080,note_on,0,0,1,,,,,,,,,0,,,63,46
346200,note_off,120,0,1,,,,,,,,,0,,,63,0
346200,note_on,0,0,1,,,,,,,,,0,,,64,47
346320,note_off,120,0,1,,,,,,,,,0,,,64,0
346320,note_on,0,0,1,,,,,,,,,0,,,65,48
346440,note_on,0,0,1,,,,,,,,,0,,,66,48
346440,note_off,120,0,1,,,,,,,,,0,,,65,0
346560,note_on,0,0,1,,,,,,,,,0,,,67,49
346560,note_off,120,0,1,,,,,,,,,0,,,66,0
346680,note_on,0,0,1,,,,,,,,,0,,,68,49
346680,note_off,120,0,1,,,,,,,,,0,,,67,0
346800,note_on,0,0,1,,,,,,,,,0,,,69,50
346800,note_off,120,0,1,,,,,,,,,0,,,68,0
346920,note_off,120,0,1,,,,,,,,,0,,,69,0
346920,note_on,0,0,1,,,,,,,,,0,,,70,51
347040,note_off,120,0,1,,,,,,,,,0,,,70,0
347040,note_on,0,0,1,,,,,,,,,0,,,71,51
347160,note_off,120,0,1,,,,,,,,,0,,,71,0
347160,note_on,0,0,1,,,,,,,,,0,,,72,52
347280,note_on,0,0,1,,,,,,,,,0,,,73,53
347280,note_off,120,0,1,,,,,,,,,0,,,72,0
347400,note_off,120,0,1,,,,,,,,,0,,,73,0
347400,note_on,0,0,1,,,,,,,,,0,,,74,53
347520,note_off,120,0,1,,,,,,,,,0,,,74,0
347520,note_on,0,0,1,,,,,,,,,0,,,75,54
347640,note_on,0,0,1,,,,,,,,,0,,,76,54
347640,note_off,120,0,1,,,,,,,,,0,,,75,0
347760,note_on,0,0,1,,,,,,,,,0,,,77,55
347760,note_off,120,0,1,,,,,,,,,0,,,76,0
347880,note_on,0,0,1,,,,,,,,,0,,,78,56
347880,note_off,120,0,1,,,,,,,,,0,,,77,0
348000,note_off,120,0,1,,,,,,,,,0,,,78,0
348000,set_tempo,2400,1,0,,,,,,422535,,,,,,,
348000,note_on,0,0,1,,,,,,,,,0,,,79,56
348120,note_on,0,0,1,,,,,,,,,0,,,80,57
348120,note_off,120,0,1,,,,,,,,,0,,,79,0
348160,set_tempo,160,1,0,,,,,,428571,,,,,,,
348240,note_on,0,0,1,,,,,,,,,0,,,81,57
348240,note_off,120,0,1,,,,,,,,,0,,,80,0
348315,set_tempo,155,1,0,,,,,,487804,,,,,,,
348320,note_on,80,0,1,,,,,,,,,0,,,82,58
348360,note_off,40,0,1,,,,,,,,,0,,,81,0
348400,note_on,40,0,1,,,,,,,,,0,,,83,58
348440,note_off,40,0,1,,,,,,,,,0,,,82,0
348480,note_on,0,0,1,,,,,,,,,0,,,84,64
348480,note_on,0,0,3,,,,,,,,,2,,,72,51
348480,note_on,2400,0,3,,,,,,,,,2,,,75,51
348480,note_on,2400,0,4,,,,,,,,,3,,,68,51
348480,control_change,40,0,1,,,,,,,64,127,0,,,,
348520,note_off,40,0,1,,,,,,,,,0,,,83,0
348540,set_tempo,225,1,0,,,,,,416666,,,,,,,
348840,note_on,0,0,1,,,,,,,,,0,,,77,61
348840,note_off,320,0,1,,,,,,,,,0,,,84,0
348960,note_off,120,0,1,,,,,,,,,0,,,77,0
348960,note_on,0,0,1,,,,,,,,,0,,,77,60
349320,control_change,360,0,1,,,,,,,64,0,0,,,,
349320,note_off,840,0,4,,,,,,,,,3,,,68,0
349320,note_off,840,0,3,,,,,,,,,2,,,72,0
349327,note_off,7,0,3,,,,,,,,,2,,,75,0
349327,note_off,7,0,1,,,,,,,,,0,,,77,0
349410,set_tempo,870,1,0,,,,,,428571,,,,,,,
349860,note_on,533,0,1,,,,,,,,,0,,,71,54
349920,note_on,593,0,3,,,,,,,,,2,,,63,46
349920,set_tempo,510,1,0,,,,,,425531,,,,,,,
349920,note_on,600,0,4,,,,,,,,,3,,,56,46
349920,note_off,0,0,1,,,,,,,,,0,,,71,0
349920,control_change,60,0,1,,,,,,,64,127,0,,,,
349920,note_on,0,0,1,,,,,,,,,0,,,72,54
349920,note_on,0,0,3,,,,,,,,,2,,,60,46
350280,note_on,0,0,1,,,,,,,,,0,,,65,51
350280,note_off,360,0,1,,,,,,,,,0,,,72,0
350400,note_on,0,0,1,,,,,,,,,0,,,65,51
350400,note_off,120,0,1,,,,,,,,,0,,,65,0
350760,note_off,840,0,4,,,,,,,,,3,,,56,0
350760,note_off,840,0,3,,,,,,,,,2,,,60,0
350760,control_change,360,0,1,,,,,,,64,0,0,,,,
350767,note_off,7,0,1,,,,,,,,,0,,,65,0
350775,note_off,15,0,3,,,,,,,,,2,,,63,0
350880,set_tempo,960,1,0,,,,,,441176,,,,,,,
351360,note_on,0,0,3,,,,,,,,,2,,,44,42
351360,note_on,585,0,3,,,,,,,,,2,,,51,44
351360,set_tempo,480,1,0,,,,,,441176,,,,,,,
351360,note_on,0,0,3,,,,,,,,,2,,,48,44
351360,note_on,600,0,4,,,,,,,,,3,,,32,42
351360,note_on,593,0,1,,,,,,,,,0,,,53,44
351648,note_off,288,0,4,,,,,,,,,3,,,32,0
351648,note_off,0,0,3,,,,,,,,,2,,,51,0
351648,note_off,0,0,3,,,,,,,,,2,,,48,0
351648,note_off,288,0,3,,,,,,,,,2,,,44,0
351648,note_off,288,0,1,,,,,,,,,0,,,53,0
351840,note_on,192,0,4,,,,,,,,,3,,,32,44
351840,note_on,0,0,3,,,,,,,,,2,,,44,44
351840,note_on,0,0,3,,,,,,,,,2,,,48,46
351840,note_on,192,0,3,,,,,,,,,2,,,51,46
351840,note_on,192,0,1,,,,,,,,,0,,,53,46
352095,set_tempo,735,1,0,,,,,,447761,,,,,,,
352128,note_off,288,0,1,,,,,,,,,0,,,53,0
352128,note_off,288,0,4,,,,,,,,,3,,,32,0
352128,note_off,0,0,3,,,,,,,,,2,,,51,0
352128,note_off,0,0,3,,,,,,,,,2,,,48,0
352128,note_off,288,0,3,,,,,,,,,2,,,44,0
352320,note_on,192,0,1,,,,,,,,,0,,,53,48
352320,note_on,192,0,3,,,,,,,,,2,,,51,48
352320,note_on,0,0,3,,,,,,,,,2,,,44,46
352320,note_on,0,0,3,,,,,,,,,2,,,48,48
352320,note_on,192,0,4,,,,,,,,,3,,,32,46
352350,set_tempo,255,1,0,,,,,,508474,,,,,,,
352608,note_off,288,0,4,,,,,,,,,3,,,32,0
352608,note_off,0,0,3,,,,,,,,,2,,,48,0
352608,note_off,0,0,3,,,,,,,,,2,,,51,0
352608,note_off,288,0,3,,,,,,,,,2,,,44,0
352608,note_off,288,0,1,,,,,,,,,0,,,53,0
352800,note_on,192,0,4,,,,,,,,,3,,,32,49
352800,set_tempo,450,1,0,,,,,,674157,,,,,,,
352800,note_on,192,0,1,,,,,,,,,0,,,54,50
352800,note_on,0,0,3,,,,,,,,,2,,,44,49
352800,note_on,0,0,3,,,,,,,,,2,,,48,50
352800,note_on,192,0,3,,,,,,,,,2,,,51,50
354120,note_off,1320,0,3,,,,,,,,,2,,,48,0
354120,note_off,1320,0,1,,,,,,,,,0,,,54,0
354120,note_off,0,0,3,,,,,,,,,2,,,51,0
354127,note_off,1327,0,4,,,,,,,,,3,,,32,0
354142,note_off,22,0,3,,,,,,,,,2,,,44,0
354240,note_on,0,0,4,,,,,,,,,3,,,69,55
354240,note_on,113,0,4,,,,,,,,,3,,,72,55
354240,note_on,0,0,2,,,,,,,,,1,,,75,55
354240,note_on,8160,0,2,,,,,,,,,1,,,72,55
354240,note_on,120,0,1,,,,,,,,,0,,,78,55
354240,set_tempo,1440,1,0,,,,,,447761,,,,,,,
354480,note_off,240,0,4,,,,,,,,,3,,,72,0
354528,note_off,0,0,2,,,,,,,,,1,,,72,0
354528,note_off,288,0,2,,,,,,,,,1,,,75,0
354528,note_off,48,0,4,,,,,,,,,3,,,69,0
354528,note_off,288,0,1,,,,,,,,,0,,,78,0
354720,note_on,192,0,2,,,,,,,,,1,,,72,57
354720,note_on,192,0,1,,,,,,,,,0,,,78,57
354720,note_on,0,0,4,,,,,,,,,3,,,69,58
354720,note_on,192,0,4,,,,,,,,,3,,,72,58
354720,note_on,0,0,2,,,,,,,,,1,,,75,57
354915,set_tempo,675,1,0,,,,,,454545,,,,,,,
354960,note_off,240,0,4,,,,,,,,,3,,,72,0
355008,note_off,48,0,4,,,,,,,,,3,,,69,0
355008,note_off,288,0,1,,,,,,,,,0,,,78,0
355008,note_off,288,0,2,,,,,,,,,1,,,75,0
355008,note_off,0,0,2,,,,,,,,,1,,,72,0
355185,set_tempo,270,1,0,,,,,,550458,,,,,,,
355200,note_on,192,0,1,,,,,,,,,0,,,78,59
355200,note_on,192,0,2,,,,,,,,,1,,,72,59
355200,note_on,0,0,4,,,,,,,,,3,,,69,60
355200,note_on,192,0,4,,,,,,,,,3,,,72,60
355200,note_on,0,0,2,,,,,,,,,1,,,75,59
355440,note_off,240,0,4,,,,,,,,,3,,,72,0
355488,note_off,0,0,2,,,,,,,,,1,,,72,0
355488,note_off,48,0,4,,,,,,,,,3,,,69,0
355488,note_off,288,0,1,,,,,,,,,0,,,78,0
355488,note_off,288,0,2,,,,,,,,,1,,,75,0
355680,note_on,192,0,2,,,,,,,,,1,,,75,63
355680,note_on,192,0,4,,,,,,,,,3,,,70,65
355680,set_tempo,495,1,0,,,,,,560747,,,,,,,
355680,note_on,192,0,1,,,,,,,,,0,,,79,63
356160,note_off,480,0,1,,,,,,,,,0,,,79,0
356160,note_off,480,0,4,,,,,,,,,3,,,70,0
356160,note_off,480,0,2,,,,,,,,,1,,,75,0
356625,set_tempo,945,1,0,,,,,,425531,,,,,,,
356640,note_on,0,0,4,,,,,,,,,3,,,72,59
356640,note_on,480,0,4,,,,,,,,,3,,,69,59
356640,note_on,480,0,2,,,,,,,,,1,,,75,59
356640,note_on,480,0,1,,,,,,,,,0,,,78,59
357120,set_tempo,495,1,0,,,,,,416666,,,,,,,
357120,note_off,480,0,4,,,,,,,,,3,,,72,0
357120,note_on,0,0,1,,,,,,,,,0,,,79,56
357120,note_on,0,0,4,,,,,,,,,3,,,70,56
357120,note_off,0,0,4,,,,,,,,,3,,,69,0
357120,note_off,480,0,1,,,,,,,,,0,,,78,0
357480,note_off,360,0,1,,,,,,,,,0,,,79,0
357480,note_off,840,0,2,,,,,,,,,1,,,75,0
357480,note_off,360,0,4,,,,,,,,,3,,,70,0
358080,note_on,0,0,4,,,,,,,,,3,,,69,49
358080,note_on,600,0,1,,,,,,,,,0,,,78,52
358080,note_on,600,0,4,,,,,,,,,3,,,72,49
358080,note_on,600,0,2,,,,,,,,,1,,,75,52
358080,set_tempo,960,1,0,,,,,,419580,,,,,,,
358560,note_on,0,0,4,,,,,,,,,3,,,70,46
358560,note_off,480,0,4,,,,,,,,,3,,,69,0
358560,set_tempo,480,1,0,,,,,,416666,,,,,,,
358560,note_off,480,0,1,,,,,,,,,0,,,78,0
358560,note_on,0,0,1,,,,,,,,,0,,,79,49
358560,note_off,0,0,4,,,,,,,,,3,,,72,0
358920,note_off,360,0,4,,,,,,,,,3,,,70,0
358920,note_off,840,0,2,,,,,,,,,1,,,75,0
359160,note_off,600,0,1,,,,,,,,,0,,,79,0
359160,note_on,0,0,1,,,,,,,,,0,,,80,46
359280,note_off,120,0,1,,,,,,,,,0,,,80,0
359280,note_on,0,0,1,,,,,,,,,0,,,82,47
359400,note_off,120,0,1,,,,,,,,,0,,,82,0
359400,note_on,0,0,1,,,,,,,,,0,,,79,48
359520,note_off,120,0,1,,,,,,,,,0,,,79,0
359520,note_on,0,0,1,,,,,,,,,0,,,76,48
359640,note_off,120,0,1,,,,,,,,,0,,,76,0
359640,note_on,0,0,1,,,,,,,,,0,,,77,49
359760,note_off,120,0,1,,,,,,,,,0,,,77,0
359760,note_on,0,0,1,,,,,,,,,0,,,79,50
359880,note_off,120,0,1,,,,,,,,,0,,,79,0
359880,note_on,0,0,1,,,,,,,,,0,,,75,51
359880,set_tempo,1320,1,0,,,,,,419580,,,,,,,
360000,set_tempo,120,1,0,,,,,,416666,,,,,,,
360000,note_on,1080,0,4,,,,,,,,,3,,,58,57
360000,note_on,0,0,4,,,,,,,,,3,,,65,57
360000,note_on,0,0,4,,,,,,,,,3,,,68,57
360000,note_off,120,0,1,,,,,,,,,0,,,75,0
360000,note_on,0,0,1,,,,,,,,,0,,,73,51
360120,note_off,120,0,1,,,,,,,,,0,,,73,0
360120,note_on,0,0,1,,,,,,,,,0,,,74,52
360240,note_off,120,0,1,,,,,,,,,0,,,74,0
360240,note_on,0,0,1,,,,,,,,,0,,,75,53
360360,note_off,0,0,4,,,,,,,,,3,,,65,0
360360,note_off,360,0,4,,,,,,,,,3,,,68,0
360360,note_off,0,0,4,,,,,,,,,3,,,58,0
360360,note_on,0,0,1,,,,,,,,,0,,,72,54
360360,note_off,120,0,1,,,,,,,,,0,,,75,0
360480,note_on,0,0,1,,,,,,,,,0,,,69,54
360480,note_off,120,0,1,,,,,,,,,0,,,72,0
360600,note_off,120,0,1,,,,,,,,,0,,,69,0
360600,note_on,0,0,1,,,,,,,,,0,,,70,55
360720,note_off,120,0,1,,,,,,,,,0,,,70,0
360720,note_on,0,0,1,,,,,,,,,0,,,72,56
360840,note_on,0,0,1,,,,,,,,,0,,,68,57
360840,note_off,120,0,1,,,,,,,,,0,,,72,0
360960,note_on,0,0,4,,,,,,,,,3,,,50,64
360960,note_on,0,0,4,,,,,,,,,3,,,56,64
360960,note_on,0,0,1,,,,,,,,,0,,,66,58
360960,note_off,120,0,1,,,,,,,,,0,,,68,0
360960,note_on,600,0,4,,,,,,,,,3,,,46,64
361080,note_on,0,0,1,,,,,,,,,0,,,67,58
361080,note_off,120,0,1,,,,,,,,,0,,,66,0
361200,note_on,0,0,1,,,,,,,,,0,,,68,59
361200,note_off,120,0,1,,,,,,,,,0,,,67,0
361320,note_on,0,0,1,,,,,,,,,0,,,65,60
361320,note_off,120,0,1,,,,,,,,,0,,,68,0
361320,note_off,360,0,4,,,,,,,,,3,,,56,0
361320,set_tempo,1320,1,0,,,,,,428571,,,,,,,
361320,note_off,0,0,4,,,,,,,,,3,,,50,0
361320,note_off,0,0,4,,,,,,,,,3,,,46,0
361440,note_on,0,0,1,,,,,,,,,0,,,63,48
361440,set_tempo,120,1,0,,,,,,416666,,,,,,,
361440,note_on,120,0,4,,,,,,,,,3,,,51,47
361440,note_on,0,0,1,,,,,,,,,0,,,55,48
361440,note_off,120,0,1,,,,,,,,,0,,,65,0
361560,note_off,120,0,4,,,,,,,,,3,,,51,0
361560,note_on,0,0,4,,,,,,,,,3,,,53,47
361680,note_off,120,0,4,,,,,,,,,3,,,53,0
361680,note_on,0,0,4,,,,,,,,,3,,,51,48
361800,note_on,0,0,4,,,,,,,,,3,,,50,48
361800,note_off,120,0,4,,,,,,,,,3,,,51,0
361920,note_on,0,0,4,,,,,,,,,3,,,51,48
361920,note_off,480,0,1,,,,,,,,,0,,,63,0
361920,note_off,0,0,1,,,,,,,,,0,,,55,0
361920,note_off,120,0,4,,,,,,,,,3,,,50,0
362040,note_off,120,0,4,,,,,,,,,3,,,51,0
362040,note_on,0,0,4,,,,,,,,,3,,,53,49
362160,note_on,0,0,4,,,,,,,,,3,,,55,49
362160,note_off,120,0,4,,,,,,,,,3,,,53,0
362280,note_off,120,0,4,,,,,,,,,3,,,55,0
362280,note_on,0,0,4,,,,,,,,,3,,,56,50
362400,note_on,0,0,4,,,,,,,,,3,,,58,50
362400,note_off,120,0,4,,,,,,,,,3,,,56,0
362520,note_off,120,0,4,,,,,,,,,3,,,58,0
362640,note_on,120,0,4,,,,,,,,,3,,,55,51
362760,note_off,120,0,4,,,,,,,,,3,,,55,0
362880,note_on,120,0,4,,,,,,,,,3,,,53,52
362880,note_on,960,0,1,,,,,,,,,0,,,70,53
363000,note_off,120,0,4,,,,,,,,,3,,,53,0
363000,note_on,0,0,1,,,,,,,,,0,,,72,54
363000,note_off,120,0,1,,,,,,,,,0,,,70,0
363120,note_off,120,0,1,,,,,,,,,0,,,72,0
363120,note_on,0,0,1,,,,,,,,,0,,,70,54
363120,note_on,120,0,4,,,,,,,,,3,,,56,53
363240,note_off,120,0,4,,,,,,,,,3,,,56,0
363240,note_off,120,0,1,,,,,,,,,0,,,70,0
363240,note_on,0,0,1,,,,,,,,,0,,,69,55
363360,note_on,0,0,1,,,,,,,,,0,,,70,55
363360,note_off,120,0,1,,,,,,,,,0,,,69,0
363360,note_on,120,0,4,,,,,,,,,3,,,50,54
363480,note_off,120,0,4,,,,,,,,,3,,,50,0
363480,note_off,120,0,1,,,,,,,,,0,,,70,0
363480,note_on,0,0,1,,,,,,,,,0,,,72,56
363600,note_on,120,0,4,,,,,,,,,3,,,53,55
363600,note_off,120,0,1,,,,,,,,,0,,,72,0
363600,note_on,0,0,1,,,,,,,,,0,,,74,56
363720,note_off,120,0,1,,,,,,,,,0,,,74,0
363720,note_off,120,0,4,,,,,,,,,3,,,53,0
363720,note_on,0,0,1,,,,,,,,,0,,,75,57
363840,note_on,120,0,4,,,,,,,,,3,,,46,55
363840,note_off,120,0,1,,,,,,,,,0,,,75,0
363840,note_on,0,0,1,,,,,,,,,0,,,77,57
363960,note_off,120,0,4,,,,,,,,,3,,,46,0
363960,note_off,120,0,1,,,,,,,,,0,,,77,0
364080,note_on,120,0,4,,,,,,,,,3,,,50,56
364080,note_on,120,0,1,,,,,,,,,0,,,68,58
364200,note_off,120,0,1,,,,,,,,,0,,,68,0
364200,set_tempo,2760,1,0,,,,,,422535,,,,,,,
364200,note_off,120,0,4,,,,,,,,,3,,,50,0
364320,note_on,120,0,1,,,,,,,,,0,,,67,59
364320,set_tempo,120,1,0,,,,,,416666,,,,,,,
364320,note_on,120,0,4,,,,,,,,,3,,,51,57
364440,note_off,120,0,4,,,,,,,,,3,,,51,0
364440,note_on,0,0,4,,,,,,,,,3,,,53,58
364560,note_off,120,0,4,,,,,,,,,3,,,53,0
364560,note_on,0,0,4,,,,,,,,,3,,,51,58
364680,note_off,120,0,4,,,,,,,,,3,,,51,0
364680,note_on,0,0,4,,,,,,,,,3,,,50,58
364800,note_off,120,0,4,,,,,,,,,3,,,50,0
364800,note_off,480,0,1,,,,,,,,,0,,,67,0
364800,note_on,0,0,4,,,,,,,,,3,,,51,59
364920,note_off,120,0,4,,,,,,,,,3,,,51,0
364920,note_on,0,0,4,,,,,,,,,3,,,53,59
365040,note_off,120,0,4,,,,,,,,,3,,,53,0
365040,note_on,0,0,4,,,,,,,,,3,,,55,60
365160,note_on,0,0,4,,,,,,,,,3,,,56,60
365160,note_off,120,0,4,,,,,,,,,3,,,55,0
365280,note_on,0,0,4,,,,,,,,,3,,,58,61
365280,note_off,120,0,4,,,,,,,,,3,,,56,0
365400,note_off,120,0,4,,,,,,,,,3,,,58,0
365520,note_on,120,0,4,,,,,,,,,3,,,55,61
365640,note_off,120,0,4,,,,,,,,,3,,,55,0
365760,note_on,960,0,1,,,,,,,,,0,,,82,65
365760,note_on,120,0,4,,,,,,,,,3,,,53,62
365880,note_off,120,0,4,,,,,,,,,3,,,53,0
365880,note_off,120,0,1,,,,,,,,,0,,,82,0
365880,note_on,0,0,1,,,,,,,,,0,,,84,65
366000,note_off,120,0,1,,,,,,,,,0,,,84,0
366000,note_on,0,0,1,,,,,,,,,0,,,82,66
366000,note_on,120,0,4,,,,,,,,,3,,,56,63
366120,note_off,120,0,1,,,,,,,,,0,,,82,0
366120,note_on,0,0,1,,,,,,,,,0,,,81,66
366120,note_off,120,0,4,,,,,,,,,3,,,56,0
366240,note_off,120,0,1,,,,,,,,,0,,,81,0
366240,note_on,0,0,1,,,,,,,,,0,,,82,67
366240,note_on,120,0,4,,,,,,,,,3,,,50,64
366360,note_off,120,0,4,,,,,,,,,3,,,50,0
366360,note_off,120,0,1,,,,,,,,,0,,,82,0
366360,note_on,0,0,1,,,,,,,,,0,,,84,67
366480,note_off,120,0,1,,,,,,,,,0,,,84,0
366480,note_on,0,0,1,,,,,,,,,0,,,86,68
366480,note_on,120,0,4,,,,,,,,,3,,,53,65
366600,note_off,120,0,4,,,,,,,,,3,,,53,0
366600,note_on,0,0,1,,,,,,,,,0,,,87,68
366600,note_off,120,0,1,,,,,,,,,0,,,86,0
366720,note_on,120,0,4,,,,,,,,,3,,,46,66
366720,note_on,0,0,1,,,,,,,,,0,,,89,69
366720,note_off,120,0,1,,,,,,,,,0,,,87,0
366840,note_off,120,0,4,,,,,,,,,3,,,46,0
366840,note_on,0,0,1,,,,,,,,,0,,,86,69
366840,note_off,120,0,1,,,,,,,,,0,,,89,0
366960,note_on,120,0,4,,,,,,,,,3,,,50,67
366960,note_off,120,0,1,,,,,,,,,0,,,86,0
366960,note_on,0,0,1,,,,,,,,,0,,,82,70
367080,note_off,120,0,4,,,,,,,,,3,,,50,0
367080,note_on,0,0,1,,,,,,,,,0,,,80,70
367080,set_tempo,2760,1,0,,,,,,422535,,,,,,,
367080,note_off,120,0,1,,,,,,,,,0,,,82,0
367200,note_on,0,0,1,,,,,,,,,0,,,79,64
367200,note_off,120,0,1,,,,,,,,,0,,,80,0
367200,note_on,120,0,4,,,,,,,,,3,,,51,62
367320,note_off,120,0,4,,,,,,,,,3,,,51,0
367440,note_on,120,0,4,,,,,,,,,3,,,46,64
367440,set_tempo,360,1,0,,,,,,416666,,,,,,,
367560,note_off,120,0,4,,,,,,,,,3,,,46,0
367680,note_off,480,0,1,,,,,,,,,0,,,79,0
367680,note_on,120,0,4,,,,,,,,,3,,,43,66
367800,note_off,120,0,4,,,,,,,,,3,,,43,0
367920,note_on,240,0,1,,,,,,,,,0,,,63,61
367920,note_on,120,0,4,,,,,,,,,3,,,51,68
368040,note_off,120,0,4,,,,,,,,,3,,,51,0
368040,note_off,120,0,1,,,,,,,,,0,,,63,0
368160,note_on,120,0,4,,,,,,,,,3,,,46,70
368160,note_on,120,0,1,,,,,,,,,0,,,58,63
368280,note_off,120,0,4,,,,,,,,,3,,,46,0
368280,note_off,120,0,1,,,,,,,,,0,,,58,0
368400,note_on,120,0,4,,,,,,,,,3,,,55,71
368400,note_on,120,0,1,,,,,,,,,0,,,67,65
368520,note_off,120,0,4,,,,,,,,,3,,,55,0
368520,note_off,120,0,1,,,,,,,,,0,,,67,0
368640,note_on,120,0,4,,,,,,,,,3,,,51,73
368640,note_on,120,0,1,,,,,,,,,0,,,63,68
368760,note_off,120,0,4,,,,,,,,,3,,,51,0
368760,note_off,120,0,1,,,,,,,,,0,,,63,0
368880,note_on,120,0,4,,,,,,,,,3,,,58,75
368880,note_on,120,0,1,,,,,,,,,0,,,70,70
369000,note_off,120,0,4,,,,,,,,,3,,,58,0
369000,note_off,120,0,1,,,,,,,,,0,,,70,0
369120,note_on,120,0,1,,,,,,,,,0,,,67,72
369120,note_on,120,0,4,,,,,,,,,3,,,55,77
369240,note_off,120,0,1,,,,,,,,,0,,,67,0
369240,note_off,120,0,4,,,,,,,,,3,,,55,0
369360,note_on,120,0,1,,,,,,,,,0,,,75,75
369360,note_on,120,0,4,,,,,,,,,3,,,63,79
369480,note_off,120,0,1,,,,,,,,,0,,,75,0
369480,note_off,120,0,4,,,,,,,,,3,,,63,0
369600,note_on,120,0,1,,,,,,,,,0,,,70,77
369600,note_on,120,0,4,,,,,,,,,3,,,58,81
369720,note_off,120,0,4,,,,,,,,,3,,,58,0
369720,note_off,120,0,1,,,,,,,,,0,,,70,0
369840,note_on,120,0,4,,,,,,,,,3,,,67,82
369840,note_on,120,0,1,,,,,,,,,0,,,79,79
369960,note_off,120,0,4,,,,,,,,,3,,,67,0
369960,note_off,120,0,1,,,,,,,,,0,,,79,0
370080,note_on,120,0,4,,,,,,,,,3,,,63,84
370080,note_on,120,0,1,,,,,,,,,0,,,75,81
370200,note_off,120,0,4,,,,,,,,,3,,,63,0
370200,note_off,120,0,1,,,,,,,,,0,,,75,0
370320,note_on,120,0,1,,,,,,,,,0,,,82,84
370320,note_on,120,0,4,,,,,,,,,3,,,70,86
370440,note_off,120,0,4,,,,,,,,,3,,,70,0
370440,note_off,120,0,1,,,,,,,,,0,,,82,0
370560,note_on,120,0,1,,,,,,,,,0,,,79,86
370560,note_on,120,0,4,,,,,,,,,3,,,67,88
370680,note_off,120,0,1,,,,,,,,,0,,,79,0
370680,note_off,120,0,4,,,,,,,,,3,,,67,0
370750,set_tempo,3310,1,0,,,,,,434782,,,,,,,
370800,note_on,120,0,4,,,,,,,,,3,,,75,90
370800,note_on,120,0,1,,,,,,,,,0,,,87,88
370920,note_off,120,0,4,,,,,,,,,3,,,75,0
370920,note_off,120,0,1,,,,,,,,,0,,,87,0
371040,set_tempo,290,1,0,,,,,,487804,,,,,,,
371040,note_on,0,0,4,,,,,,,,,3,,,58,92
371040,note_on,0,0,1,,,,,,,,,0,,,74,91
371040,note_on,0,0,1,,,,,,,,,0,,,68,91
371040,note_on,120,0,1,,,,,,,,,0,,,65,91
371040,note_on,120,0,4,,,,,,,,,3,,,46,92
371280,note_off,0,0,4,,,,,,,,,3,,,46,0
371280,note_off,240,0,4,,,,,,,,,3,,,58,0
371280,note_off,0,0,1,,,,,,,,,0,,,65,0
371280,note_off,0,0,1,,,,,,,,,0,,,68,0
371280,note_off,240,0,1,,,,,,,,,0,,,74,0
371520,note_on,0,0,4,,,,,,,,,3,,,51,95
371520,note_on,240,0,4,,,,,,,,,3,,,39,95
371520,note_on,240,0,1,,,,,,,,,0,,,63,96
371520,note_on,0,0,1,,,,,,,,,0,,,67,96
371520,note_on,0,0,1,,,,,,,,,0,,,75,96
371760,note_off,0,0,1,,,,,,,,,0,,,67,0
371760,note_off,0,0,4,,,,,,,,,3,,,39,0
371760,note_off,240,0,4,,,,,,,,,3,,,51,0
371760,note_off,240,0,1,,,,,,,,,0,,,75,0
371760,note_off,0,0,1,,,,,,,,,0,,,63,0
372960,control_change,14040,0,2,,,,,,,7,117,1,,,,
372960,control_change,0,0,2,,,,,,,64,0,1,,,,
372960,control_change,0,0,2,,,,,,,32,0,1,,,,
372960,program_change,0,0,2,,,,,,,,,1,0,,,
372960,control_change,0,0,2,,,,,,,91,91,1,,,,
372960,control_change,0,0,2,,,,,,,10,64,1,,,,
372960,control_change,1200,0,4,,,,,,,7,122,3,,,,
372960,control_change,0,0,2,,,,,,,0,0,1,,,,
372960,control_change,0,0,2,,,,,,,93,28,1,,,,
372960,pitchwheel,0,0,4,,,,,,,,,3,,0,,
372960,control_change,0,0,1,,,,,,,64,0,0,,,,
372960,pitchwheel,0,0,1,,,,,,,,,0,,0,,
372960,time_signature,1920,1,0,4,4,24,8,,,,,,,,,
372960,set_tempo,0,1,0,,,,,,301507,,,,,,,
372960,marker,0,1,0,,,,,,,,,,,,,
372960,program_change,0,0,4,,,,,,,,,3,0,,,
372960,control_change,0,0,4,,,,,,,32,0,3,,,,
372960,control_change,0,0,4,,,,,,,0,0,3,,,,
372960,control_change,0,0,4,,,,,,,10,55,3,,,,
372960,control_change,0,0,4,,,,,,,91,91,3,,,,
372960,program_change,0,0,1,,,,,,,,,0,0,,,
372960,control_change,0,0,4,,,,,,,93,28,3,,,,
372960,control_change,0,0,4,,,,,,,1,0,3,,,,
372960,control_change,1200,0,1,,,,,,,10,73,0,,,,
372960,control_change,0,0,1,,,,,,,91,91,0,,,,
372960,control_change,0,0,1,,,,,,,93,28,0,,,,
372960,pitchwheel,0,0,2,,,,,,,,,1,,0,,
372960,control_change,0,0,1,,,,,,,1,0,0,,,,
372960,control_change,0,0,1,,,,,,,7,127,0,,,,
372960,control_change,0,0,1,,,,,,,0,0,0,,,,
372960,control_change,0,0,1,,,,,,,32,0,0,,,,
372960,control_change,0,0,4,,,,,,,64,0,3,,,,
372960,control_change,0,0,2,,,,,,,1,0,1,,,,
374880,note_on,1920,0,2,,,,,,,,,1,,,56,52
374880,note_on,0,0,2,,,,,,,,,1,,,51,52
374880,set_tempo,1920,1,0,,,,,,306122,,,,,,,
374880,note_on,1920,0,1,,,,,,,,,0,,,60,52
375120,note_on,2160,0,4,,,,,,,,,3,,,32,44
375276,note_off,156,0,4,,,,,,,,,3,,,32,0
375360,note_on,84,0,4,,,,,,,,,3,,,36,44
375516,note_off,156,0,4,,,,,,,,,3,,,36,0
375600,note_on,84,0,4,,,,,,,,,3,,,39,45
375756,note_off,156,0,4,,,,,,,,,3,,,39,0
375840,note_on,84,0,4,,,,,,,,,3,,,44,46
375996,note_off,156,0,4,,,,,,,,,3,,,44,0
376080,note_on,84,0,4,,,,,,,,,3,,,32,46
376236,note_off,156,0,4,,,,,,,,,3,,,32,0
376320,note_on,84,0,4,,,,,,,,,3,,,34,55
376320,note_on,0,0,1,,,,,,,,,0,,,61,65
376320,note_off,1440,0,1,,,,,,,,,0,,,60,0
376320,note_on,0,0,2,,,,,,,,,1,,,55,65
376320,note_on,0,0,2,,,,,,,,,1,,,51,65
376320,note_off,0,0,2,,,,,,,,,1,,,56,0
376320,note_off,1440,0,2,,,,,,,,,1,,,51,0
376476,note_off,156,0,4,,,,,,,,,3,,,34,0
376560,note_on,84,0,4,,,,,,,,,3,,,46,51
376680,note_off,360,0,2,,,,,,,,,1,,,55,0
376680,set_tempo,1800,1,0,,,,,,312500,,,,,,,
376680,note_off,0,0,2,,,,,,,,,1,,,51,0
376687,note_off,367,0,1,,,,,,,,,0,,,61,0
376716,note_off,156,0,4,,,,,,,,,3,,,46,0
376800,note_on,0,0,2,,,,,,,,,1,,,56,61
376800,note_on,120,0,2,,,,,,,,,1,,,51,61
376800,note_on,113,0,1,,,,,,,,,0,,,63,61
376800,set_tempo,120,1,0,,,,,,306122,,,,,,,
377040,note_on,324,0,4,,,,,,,,,3,,,36,49
377196,note_off,156,0,4,,,,,,,,,3,,,36,0
377280,note_on,84,0,4,,,,,,,,,3,,,39,49
377436,note_off,156,0,4,,,,,,,,,3,,,39,0
377520,note_on,84,0,4,,,,,,,,,3,,,44,50
377676,note_off,156,0,4,,,,,,,,,3,,,44,0
377760,note_on,84,0,4,,,,,,,,,3,,,48,50
377916,note_off,156,0,4,,,,,,,,,3,,,48,0
378000,note_on,84,0,4,,,,,,,,,3,,,36,51
378156,note_off,156,0,4,,,,,,,,,3,,,36,0
378240,note_off,1440,0,1,,,,,,,,,0,,,63,0
378240,note_on,84,0,4,,,,,,,,,3,,,37,61
378240,note_on,0,0,2,,,,,,,,,1,,,53,81
378240,note_off,0,0,2,,,,,,,,,1,,,51,0
378240,note_off,1440,0,2,,,,,,,,,1,,,56,0
378240,note_on,0,0,1,,,,,,,,,0,,,65,81
378396,note_off,156,0,4,,,,,,,,,3,,,37,0
378480,note_on,84,0,4,,,,,,,,,3,,,49,58
378600,set_tempo,1800,1,0,,,,,,312500,,,,,,,
378607,note_off,367,0,1,,,,,,,,,0,,,65,0
378636,note_off,156,0,4,,,,,,,,,3,,,49,0
378720,note_on,113,0,1,,,,,,,,,0,,,61,77
378720,note_on,84,0,4,,,,,,,,,3,,,34,59
378720,set_tempo,120,1,0,,,,,,306122,,,,,,,
378876,note_off,156,0,4,,,,,,,,,3,,,34,0
378960,note_on,84,0,4,,,,,,,,,3,,,46,56
379116,note_off,156,0,4,,,,,,,,,3,,,46,0
379124,note_off,884,0,2,,,,,,,,,1,,,53,0
379200,note_off,480,0,1,,,,,,,,,0,,,61,0
379200,note_on,0,0,1,,,,,,,,,0,,,63,69
379200,note_on,76,0,2,,,,,,,,,1,,,58,65
379200,note_on,84,0,4,,,,,,,,,3,,,31,54
379356,note_off,156,0,2,,,,,,,,,1,,,58,0
379356,note_off,156,0,1,,,,,,,,,0,,,63,0
379356,note_off,156,0,4,,,,,,,,,3,,,31,0
379440,note_on,84,0,4,,,,,,,,,3,,,43,53
379596,note_off,156,0,4,,,,,,,,,3,,,43,0
379680,note_on,324,0,2,,,,,,,,,1,,,51,61
379680,note_on,324,0,1,,,,,,,,,0,,,60,60
379680,note_on,84,0,4,,,,,,,,,3,,,32,52
379836,note_off,156,0,1,,,,,,,,,0,,,60,0
379836,note_off,156,0,4,,,,,,,,,3,,,32,0
379836,note_off,156,0,2,,,,,,,,,1,,,51,0
379920,note_on,84,0,4,,,,,,,,,3,,,44,52
380076,note_off,156,0,4,,,,,,,,,3,,,44,0
380160,note_on,84,0,4,,,,,,,,,3,,,36,51
380160,note_on,0,0,2,,,,,,,,,1,,,56,56
380160,note_on,324,0,2,,,,,,,,,1,,,51,56
380316,note_off,156,0,4,,,,,,,,,3,,,36,0
380316,note_off,0,0,2,,,,,,,,,1,,,51,0
380316,note_off,156,0,2,,,,,,,,,1,,,56,0
380400,note_on,84,0,4,,,,,,,,,3,,,48,50
380520,set_tempo,1800,1,0,,,,,,312500,,,,,,,
380556,note_off,156,0,4,,,,,,,,,3,,,48,0
380640,note_on,84,0,4,,,,,,,,,3,,,39,50
380640,note_on,804,0,1,,,,,,,,,0,,,58,60
380640,note_on,324,0,2,,,,,,,,,1,,,55,60
380640,set_tempo,120,1,0,,,,,,306122,,,,,,,
380796,note_off,156,0,4,,,,,,,,,3,,,39,0
380880,note_on,84,0,4,,,,,,,,,3,,,51,61
381036,note_off,156,0,4,,,,,,,,,3,,,51,0
381120,note_on,84,0,4,,,,,,,,,3,,,51,59
381276,note_off,156,0,4,,,,,,,,,3,,,51,0
381360,note_on,84,0,4,,,,,,,,,3,,,51,57
381516,note_off,156,0,4,,,,,,,,,3,,,51,0
381600,note_on,84,0,4,,,,,,,,,3,,,51,55
381756,note_off,156,0,4,,,,,,,,,3,,,51,0
381840,note_on,84,0,4,,,,,,,,,3,,,49,53
381840,note_on,0,0,1,,,,,,,,,0,,,55,52
381840,note_off,1200,0,1,,,,,,,,,0,,,58,0
381840,note_off,1200,0,2,,,,,,,,,1,,,55,0
381840,note_on,0,0,2,,,,,,,,,1,,,51,52
381996,note_off,156,0,1,,,,,,,,,0,,,55,0
381996,note_off,156,0,2,,,,,,,,,1,,,51,0
381996,note_off,156,0,4,,,,,,,,,3,,,49,0
382080,note_on,84,0,2,,,,,,,,,1,,,53,51
382080,note_on,84,0,4,,,,,,,,,3,,,48,51
382080,note_on,84,0,1,,,,,,,,,0,,,56,51
382236,note_off,156,0,4,,,,,,,,,3,,,48,0
382236,note_off,156,0,1,,,,,,,,,0,,,56,0
382237,note_off,157,0,2,,,,,,,,,1,,,53,0
382320,note_on,83,0,2,,,,,,,,,1,,,55,51
382320,note_on,84,0,4,,,,,,,,,3,,,46,49
382320,note_on,84,0,1,,,,,,,,,0,,,58,51
382440,set_tempo,1800,1,0,,,,,,309278,,,,,,,
382476,note_off,156,0,1,,,,,,,,,0,,,58,0
382476,note_off,156,0,2,,,,,,,,,1,,,55,0
382476,note_off,156,0,4,,,,,,,,,3,,,46,0
382560,note_on,84,0,1,,,,,,,,,0,,,60,58
382560,note_on,0,0,2,,,,,,,,,1,,,56,58
382560,note_on,84,0,2,,,,,,,,,1,,,51,58
382560,note_on,84,0,4,,,,,,,,,3,,,44,46
382560,set_tempo,120,1,0,,,,,,306122,,,,,,,
382716,note_off,156,0,4,,,,,,,,,3,,,44,0
382800,note_on,84,0,4,,,,,,,,,3,,,32,47
382956,note_off,156,0,4,,,,,,,,,3,,,32,0
383040,note_on,84,0,4,,,,,,,,,3,,,36,48
383196,note_off,156,0,4,,,,,,,,,3,,,36,0
383280,note_on,84,0,4,,,,,,,,,3,,,39,49
383436,note_off,156,0,4,,,,,,,,,3,,,39,0
383520,note_on,84,0,4,,,,,,,,,3,,,44,49
383676,note_off,156,0,4,,,,,,,,,3,,,44,0
383760,note_on,84,0,4,,,,,,,,,3,,,32,50
383916,note_off,156,0,4,,,,,,,,,3,,,32,0
384000,note_on,84,0,4,,,,,,,,,3,,,34,59
384000,note_off,1440,0,1,,,,,,,,,0,,,60,0
384000,note_on,0,0,1,,,,,,,,,0,,,61,70
384000,note_off,1440,0,2,,,,,,,,,1,,,56,0
384000,note_off,0,0,2,,,,,,,,,1,,,51,0
384000,note_on,0,0,2,,,,,,,,,1,,,55,70
384000,note_on,0,0,2,,,,,,,,,1,,,51,70
384156,note_off,156,0,4,,,,,,,,,3,,,34,0
384240,note_on,84,0,4,,,,,,,,,3,,,46,56
384345,note_off,345,0,2,,,,,,,,,1,,,51,0
384360,note_off,360,0,1,,,,,,,,,0,,,61,0
384360,set_tempo,1800,1,0,,,,,,312500,,,,,,,
384360,note_off,15,0,2,,,,,,,,,1,,,55,0
384396,note_off,156,0,4,,,,,,,,,3,,,46,0
384480,set_tempo,120,1,0,,,,,,306122,,,,,,,
384480,note_on,0,0,2,,,,,,,,,1,,,56,67
384480,note_on,120,0,1,,,,,,,,,0,,,63,67
384480,note_on,120,0,2,,,,,,,,,1,,,51,67
384720,note_on,324,0,4,,,,,,,,,3,,,36,54
384876,note_off,156,0,4,,,,,,,,,3,,,36,0
384960,note_on,84,0,4,,,,,,,,,3,,,39,55
385116,note_off,156,0,4,,,,,,,,,3,,,39,0
385200,note_on,84,0,4,,,,,,,,,3,,,44,56
385356,note_off,156,0,4,,,,,,,,,3,,,44,0
385440,note_on,84,0,4,,,,,,,,,3,,,48,57
385596,note_off,156,0,4,,,,,,,,,3,,,48,0
385680,note_on,84,0,4,,,,,,,,,3,,,36,58
385836,note_off,156,0,4,,,,,,,,,3,,,36,0
385920,note_off,0,0,2,,,,,,,,,1,,,51,0
385920,note_on,0,0,1,,,,,,,,,0,,,65,82
385920,note_off,1440,0,1,,,,,,,,,0,,,63,0
385920,note_off,1440,0,2,,,,,,,,,1,,,56,0
385920,note_on,0,0,2,,,,,,,,,1,,,53,82
385920,note_on,84,0,4,,,,,,,,,3,,,37,69
386076,note_off,156,0,4,,,,,,,,,3,,,37,0
386160,note_on,84,0,4,,,,,,,,,3,,,49,66
386280,note_off,360,0,1,,,,,,,,,0,,,65,0
386280,set_tempo,1800,1,0,,,,,,312500,,,,,,,
386316,note_off,156,0,4,,,,,,,,,3,,,49,0
386400,note_on,84,0,4,,,,,,,,,3,,,34,64
386400,note_on,120,0,1,,,,,,,,,0,,,61,77
386400,set_tempo,120,1,0,,,,,,306122,,,,,,,
386556,note_off,156,0,4,,,,,,,,,3,,,34,0
386640,note_on,84,0,4,,,,,,,,,3,,,46,60
386796,note_off,156,0,4,,,,,,,,,3,,,46,0
386880,note_on,84,0,4,,,,,,,,,3,,,31,60
386880,note_on,0,0,1,,,,,,,,,0,,,63,69
386880,note_off,960,0,2,,,,,,,,,1,,,53,0
386880,note_off,480,0,1,,,,,,,,,0,,,61,0
386880,note_on,0,0,2,,,,,,,,,1,,,58,68
387036,note_off,156,0,2,,,,,,,,,1,,,58,0
387036,note_off,156,0,4,,,,,,,,,3,,,31,0
387036,note_off,156,0,1,,,,,,,,,0,,,63,0
387120,note_on,84,0,4,,,,,,,,,3,,,43,59
387276,note_off,156,0,4,,,,,,,,,3,,,43,0
387360,note_on,324,0,2,,,,,,,,,1,,,51,65
387360,note_on,84,0,4,,,,,,,,,3,,,32,58
387360,note_on,324,0,1,,,,,,,,,0,,,60,65
387516,note_off,156,0,2,,,,,,,,,1,,,51,0
387516,note_off,156,0,4,,,,,,,,,3,,,32,0
387516,note_off,156,0,1,,,,,,,,,0,,,60,0
387600,note_on,84,0,4,,,,,,,,,3,,,44,57
387756,note_off,156,0,4,,,,,,,,,3,,,44,0
387840,note_on,84,0,4,,,,,,,,,3,,,36,56
387840,note_on,324,0,2,,,,,,,,,1,,,51,61
387840,note_on,0,0,2,,,,,,,,,1,,,56,61
387996,note_off,156,0,4,,,,,,,,,3,,,36,0
387996,note_off,156,0,2,,,,,,,,,1,,,56,0
387996,note_off,0,0,2,,,,,,,,,1,,,51,0
388080,note_on,84,0,4,,,,,,,,,3,,,48,55
388215,set_tempo,1815,1,0,,,,,,309278,,,,,,,
388236,note_off,156,0,4,,,,,,,,,3,,,48,0
388320,note_on,324,0,2,,,,,,,,,1,,,49,61
388320,note_on,0,0,2,,,,,,,,,1,,,51,61
388320,note_on,804,0,1,,,,,,,,,0,,,58,61
388320,note_on,84,0,4,,,,,,,,,3,,,39,54
388476,note_off,156,0,4,,,,,,,,,3,,,39,0
388560,note_on,84,0,4,,,,,,,,,3,,,39,57
388716,note_off,156,0,4,,,,,,,,,3,,,39,0
388800,note_on,84,0,4,,,,,,,,,3,,,43,54
388956,note_off,156,0,4,,,,,,,,,3,,,43,0
389040,note_on,84,0,4,,,,,,,,,3,,,39,51
389055,set_tempo,840,1,0,,,,,,312500,,,,,,,
389196,note_off,156,0,4,,,,,,,,,3,,,39,0
389280,set_tempo,225,1,0,,,,,,315789,,,,,,,
389280,note_off,0,0,2,,,,,,,,,1,,,49,0
389280,note_on,0,0,4,,,,,,,,,3,,,32,48
389280,note_off,960,0,2,,,,,,,,,1,,,51,0
389280,note_on,960,0,1,,,,,,,,,0,,,56,52
389280,note_on,0,0,2,,,,,,,,,1,,,51,52
389280,note_on,0,0,2,,,,,,,,,1,,,48,52
389280,note_on,84,0,4,,,,,,,,,3,,,44,48
389295,note_off,15,0,1,,,,,,,,,0,,,58,0
389520,note_off,0,0,4,,,,,,,,,3,,,44,0
389520,note_off,225,0,1,,,,,,,,,0,,,56,0
389520,note_off,0,0,2,,,,,,,,,1,,,48,0
389520,note_off,240,0,2,,,,,,,,,1,,,51,0
389520,note_off,240,0,4,,,,,,,,,3,,,32,0
389760,note_on,240,0,4,,,,,,,,,3,,,56,48
389760,note_on,35618,0,3,,,,,,,,,2,,,68,48
389760,note_on,240,0,1,,,,,,,,,0,,,80,48
389760,note_on,240,0,2,,,,,,,,,1,,,72,48
389775,set_tempo,495,1,0,,,,,,312500,,,,,,,
390000,note_off,240,0,1,,,,,,,,,0,,,80,0
390000,note_off,240,0,2,,,,,,,,,1,,,72,0
390000,note_off,240,0,4,,,,,,,,,3,,,56,0
390000,note_off,240,0,3,,,,,,,,,2,,,68,0
390240,set_tempo,465,1,0,,,,,,309278,,,,,,,
390240,note_on,240,0,2,,,,,,,,,1,,,73,51
390240,note_on,240,0,4,,,,,,,,,3,,,63,53
390240,note_on,240,0,3,,,,,,,,,2,,,67,53
390240,note_on,240,0,1,,,,,,,,,0,,,82,51
391200,note_off,960,0,1,,,,,,,,,0,,,82,0
391200,note_on,0,0,1,,,,,,,,,0,,,80,44
391200,note_on,0,0,2,,,,,,,,,1,,,72,44
391200,note_off,960,0,2,,,,,,,,,1,,,73,0
391200,note_off,960,0,3,,,,,,,,,2,,,67,0
391200,note_on,0,0,3,,,,,,,,,2,,,68,42
391200,note_off,960,0,4,,,,,,,,,3,,,63,0
391200,note_on,0,0,4,,,,,,,,,3,,,56,46
391440,note_off,240,0,4,,,,,,,,,3,,,56,0
391440,note_off,240,0,3,,,,,,,,,2,,,68,0
391440,set_tempo,1200,1,0,,,,,,335195,,,,,,,
391440,note_off,240,0,1,,,,,,,,,0,,,80,0
391440,note_off,240,0,2,,,,,,,,,1,,,72,0
391680,note_on,240,0,1,,,,,,,,,0,,,72,41
391680,note_on,240,0,4,,,,,,,,,3,,,60,41
391680,set_tempo,240,1,0,,,,,,309278,,,,,,,
391920,note_off,240,0,4,,,,,,,,,3,,,60,0
391920,set_tempo,240,1,0,,,,,,312500,,,,,,,
391920,note_off,240,0,1,,,,,,,,,0,,,72,0
392160,set_tempo,240,1,0,,,,,,309278,,,,,,,
392160,note_on,240,0,1,,,,,,,,,0,,,70,49
392160,note_on,240,0,4,,,,,,,,,3,,,58,48
392985,set_tempo,825,1,0,,,,,,312500,,,,,,,
393000,note_on,840,0,4,,,,,,,,,3,,,56,41
393000,note_on,0,0,1,,,,,,,,,0,,,68,41
393000,note_off,840,0,1,,,,,,,,,0,,,70,0
393015,note_off,15,0,4,,,,,,,,,3,,,58,0
393120,note_off,105,0,4,,,,,,,,,3,,,56,0
393120,note_off,120,0,1,,,,,,,,,0,,,68,0
393120,note_on,0,0,4,,,,,,,,,3,,,55,41
393120,note_on,0,0,1,,,,,,,,,0,,,67,41
393240,note_off,120,0,4,,,,,,,,,3,,,55,0
393240,note_off,120,0,1,,,,,,,,,0,,,67,0
393600,note_on,360,0,1,,,,,,,,,0,,,65,39
393600,note_on,360,0,4,,,,,,,,,3,,,53,38
393720,note_off,120,0,1,,,,,,,,,0,,,65,0
393720,note_off,120,0,4,,,,,,,,,3,,,53,0
393960,set_tempo,975,1,0,,,,,,315789,,,,,,,
394080,note_on,360,0,1,,,,,,,,,0,,,64,37
394080,note_on,360,0,4,,,,,,,,,3,,,52,36
394440,note_off,360,0,1,,,,,,,,,0,,,64,0
394440,note_off,360,0,4,,,,,,,,,3,,,52,0
395520,note_on,1080,0,1,,,,,,,,,0,,,65,35
395520,note_on,1080,0,4,,,,,,,,,3,,,53,34
395600,note_off,80,0,1,,,,,,,,,0,,,65,0
395600,note_on,0,0,4,,,,,,,,,3,,,55,35
395600,note_off,80,0,4,,,,,,,,,3,,,53,0
395600,note_on,0,0,1,,,,,,,,,0,,,67,36
395680,note_off,80,0,4,,,,,,,,,3,,,55,0
395680,note_off,80,0,1,,,,,,,,,0,,,67,0
395680,note_on,0,0,1,,,,,,,,,0,,,65,37
395680,note_on,0,0,4,,,,,,,,,3,,,53,35
395760,note_on,0,0,4,,,,,,,,,3,,,52,36
395760,note_off,80,0,4,,,,,,,,,3,,,53,0
395760,note_off,80,0,1,,,,,,,,,0,,,65,0
395760,note_on,0,0,1,,,,,,,,,0,,,64,37
395880,note_off,120,0,1,,,,,,,,,0,,,64,0
395880,note_on,0,0,1,,,,,,,,,0,,,65,39
395880,note_on,0,0,4,,,,,,,,,3,,,53,37
395880,note_off,120,0,4,,,,,,,,,3,,,52,0
395910,set_tempo,1950,1,0,,,,,,315789,,,,,,,
396000,note_on,0,0,1,,,,,,,,,0,,,67,42
396000,set_tempo,90,1,0,,,,,,309278,,,,,,,
396000,note_off,120,0,1,,,,,,,,,0,,,65,0
396000,note_off,120,0,4,,,,,,,,,3,,,53,0
396000,note_on,0,0,4,,,,,,,,,3,,,55,40
396840,set_tempo,840,1,0,,,,,,312500,,,,,,,
396840,note_on,0,0,1,,,,,,,,,0,,,65,36
396840,note_off,840,0,1,,,,,,,,,0,,,67,0
396840,note_on,0,0,4,,,,,,,,,3,,,53,36
396840,note_off,840,0,4,,,,,,,,,3,,,55,0
396960,note_off,120,0,1,,,,,,,,,0,,,65,0
396960,note_on,0,0,1,,,,,,,,,0,,,64,35
396960,note_on,0,0,4,,,,,,,,,3,,,52,36
396960,note_off,120,0,4,,,,,,,,,3,,,53,0
397080,note_off,120,0,4,,,,,,,,,3,,,52,0
397080,note_off,120,0,1,,,,,,,,,0,,,64,0
397440,note_on,360,0,4,,,,,,,,,3,,,50,34
397440,note_on,360,0,1,,,,,,,,,0,,,62,33
397560,note_off,120,0,4,,,,,,,,,3,,,50,0
397560,note_off,120,0,1,,,,,,,,,0,,,62,0
397860,set_tempo,1020,1,0,,,,,,315789,,,,,,,
397920,note_on,360,0,1,,,,,,,,,0,,,60,31
397920,note_on,360,0,4,,,,,,,,,3,,,48,32
398280,note_off,360,0,1,,,,,,,,,0,,,60,0
398280,note_off,360,0,4,,,,,,,,,3,,,48,0
399600,set_tempo,1740,1,0,,,,,,319148,,,,,,,
399720,note_on,1440,0,1,,,,,,,,,0,,,61,34
399720,note_on,1440,0,4,,,,,,,,,3,,,49,35
399816,note_off,96,0,1,,,,,,,,,0,,,61,0
399816,note_off,96,0,4,,,,,,,,,3,,,49,0
399840,note_on,24,0,1,,,,,,,,,0,,,61,34
399840,note_on,24,0,4,,,,,,,,,3,,,49,36
400320,note_off,480,0,4,,,,,,,,,3,,,49,0
400320,note_off,480,0,1,,,,,,,,,0,,,61,0
400320,set_tempo,720,1,0,,,,,,327868,,,,,,,
400680,note_on,360,0,1,,,,,,,,,0,,,61,41
400680,note_on,360,0,4,,,,,,,,,3,,,49,42
400776,note_off,96,0,4,,,,,,,,,3,,,49,0
400776,note_off,96,0,1,,,,,,,,,0,,,61,0
400800,note_on,24,0,1,,,,,,,,,0,,,61,42
400800,note_on,24,0,4,,,,,,,,,3,,,49,43
401280,set_tempo,960,1,0,,,,,,400000,,,,,,,
401280,note_off,480,0,4,,,,,,,,,3,,,49,0
401280,note_off,480,0,1,,,,,,,,,0,,,61,0
401640,note_on,360,0,4,,,,,,,,,3,,,49,49
401640,note_on,360,0,1,,,,,,,,,0,,,61,48
401736,note_off,96,0,4,,,,,,,,,3,,,49,0
401736,note_off,96,0,1,,,,,,,,,0,,,61,0
401760,note_on,24,0,4,,,,,,,,,3,,,49,50
401760,note_on,24,0,1,,,,,,,,,0,,,61,49
402682,note_off,922,0,1,,,,,,,,,0,,,61,0
402750,note_off,990,0,4,,,,,,,,,3,,,49,0
403200,set_tempo,1920,1,0,,,,,,312500,,,,,,,
403560,note_on,810,0,4,,,,,,,,,3,,,49,75
403560,note_on,878,0,1,,,,,,,,,0,,,61,74
403656,note_off,96,0,4,,,,,,,,,3,,,49,0
403656,note_off,96,0,1,,,,,,,,,0,,,61,0
403680,note_on,24,0,4,,,,,,,,,3,,,48,81
403680,note_on,24,0,1,,,,,,,,,0,,,60,83
404640,note_off,960,0,4,,,,,,,,,3,,,48,0
404640,note_on,0,0,1,,,,,,,,,0,,,58,78
404640,note_off,960,0,1,,,,,,,,,0,,,60,0
404640,note_on,0,0,4,,,,,,,,,3,,,46,79
404760,note_off,120,0,4,,,,,,,,,3,,,46,0
404760,note_off,120,0,1,,,,,,,,,0,,,58,0
405120,note_on,360,0,1,,,,,,,,,0,,,55,76
405120,note_on,360,0,4,,,,,,,,,3,,,43,77
405240,note_off,120,0,1,,,,,,,,,0,,,55,0
405240,note_off,120,0,4,,,,,,,,,3,,,43,0
405480,set_tempo,2280,1,0,,,,,,315789,,,,,,,
405600,control_change,360,0,4,,,,,,,64,127,3,,,,
405600,set_tempo,120,1,0,,,,,,331491,,,,,,,
405600,control_change,360,0,1,,,,,,,64,127,0,,,,
405600,note_on,0,0,1,,,,,,,,,0,,,51,81
405600,note_on,0,0,4,,,,,,,,,3,,,39,84
407040,note_off,1440,0,1,,,,,,,,,0,,,51,0
407040,note_off,1440,0,4,,,,,,,,,3,,,39,0
408720,control_change,1680,0,1,,,,,,,64,0,0,,,,
408720,control_change,1680,0,4,,,,,,,64,0,3,,,,
408720,set_tempo,3120,1,0,,,,,,309278,,,,,,,
408840,note_on,120,0,1,,,,,,,,,0,,,51,45
408960,note_on,0,0,1,,,,,,,,,0,,,53,47
408960,note_off,120,0,1,,,,,,,,,0,,,51,0
409080,note_on,0,0,1,,,,,,,,,0,,,55,49
409080,note_off,120,0,1,,,,,,,,,0,,,53,0
409200,note_on,0,0,1,,,,,,,,,0,,,56,50
409200,note_off,120,0,1,,,,,,,,,0,,,55,0
409320,note_on,0,0,1,,,,,,,,,0,,,58,52
409320,note_off,120,0,1,,,,,,,,,0,,,56,0
409320,set_tempo,600,1,0,,,,,,312500,,,,,,,
409440,note_on,0,0,1,,,,,,,,,0,,,60,58
409440,note_off,120,0,1,,,,,,,,,0,,,58,0
409440,set_tempo,120,1,0,,,,,,306122,,,,,,,
409680,note_on,960,0,4,,,,,,,,,3,,,32,44
409836,note_off,156,0,4,,,,,,,,,3,,,32,0
409920,note_on,84,0,4,,,,,,,,,3,,,36,44
410076,note_off,156,0,4,,,,,,,,,3,,,36,0
410160,note_on,84,0,4,,,,,,,,,3,,,39,45
410316,note_off,156,0,4,,,,,,,,,3,,,39,0
410400,note_on,84,0,4,,,,,,,,,3,,,44,46
410556,note_off,156,0,4,,,,,,,,,3,,,44,0
410640,note_on,84,0,4,,,,,,,,,3,,,32,46
410796,note_off,156,0,4,,,,,,,,,3,,,32,0
410880,note_on,0,0,1,,,,,,,,,0,,,61,67
410880,note_on,84,0,4,,,,,,,,,3,,,34,55
410880,note_off,1440,0,1,,,,,,,,,0,,,60,0
410880,note_on,19440,0,2,,,,,,,,,1,,,51,67
410880,note_on,0,0,2,,,,,,,,,1,,,55,67
411036,note_off,156,0,4,,,,,,,,,3,,,34,0
411120,note_on,84,0,4,,,,,,,,,3,,,46,51
411240,set_tempo,1800,1,0,,,,,,312500,,,,,,,
411240,note_off,360,0,2,,,,,,,,,1,,,51,0
411247,note_off,7,0,2,,,,,,,,,1,,,55,0
411247,note_off,367,0,1,,,,,,,,,0,,,61,0
411276,note_off,156,0,4,,,,,,,,,3,,,46,0
411360,note_on,113,0,2,,,,,,,,,1,,,56,58
411360,note_on,0,0,2,,,,,,,,,1,,,51,58
411360,set_tempo,120,1,0,,,,,,306122,,,,,,,
411360,note_on,113,0,1,,,,,,,,,0,,,63,58
411600,note_on,324,0,4,,,,,,,,,3,,,36,49
411756,note_off,156,0,4,,,,,,,,,3,,,36,0
411840,note_on,84,0,4,,,,,,,,,3,,,39,49
411996,note_off,156,0,4,,,,,,,,,3,,,39,0
412080,note_on,84,0,4,,,,,,,,,3,,,44,50
412236,note_off,156,0,4,,,,,,,,,3,,,44,0
412320,note_on,84,0,4,,,,,,,,,3,,,48,50
412476,note_off,156,0,4,,,,,,,,,3,,,48,0
412560,note_on,84,0,4,,,,,,,,,3,,,36,51
412716,note_off,156,0,4,,,,,,,,,3,,,36,0
412800,note_on,0,0,1,,,,,,,,,0,,,65,75
412800,note_on,84,0,4,,,,,,,,,3,,,37,61
412800,note_off,1440,0,2,,,,,,,,,1,,,51,0
412800,note_off,0,0,2,,,,,,,,,1,,,56,0
412800,note_on,0,0,2,,,,,,,,,1,,,53,75
412800,note_off,1440,0,1,,,,,,,,,0,,,63,0
412956,note_off,156,0,4,,,,,,,,,3,,,37,0
413040,note_on,84,0,4,,,,,,,,,3,,,49,58
413160,set_tempo,1800,1,0,,,,,,312500,,,,,,,
413167,note_off,367,0,1,,,,,,,,,0,,,65,0
413196,note_off,156,0,4,,,,,,,,,3,,,49,0
413280,set_tempo,120,1,0,,,,,,306122,,,,,,,
413280,note_on,113,0,1,,,,,,,,,0,,,61,72
413280,note_on,84,0,4,,,,,,,,,3,,,34,59
413436,note_off,156,0,4,,,,,,,,,3,,,34,0
413520,note_on,84,0,4,,,,,,,,,3,,,46,56
413676,note_off,156,0,4,,,,,,,,,3,,,46,0
413760,note_on,0,0,2,,,,,,,,,1,,,58,62
413760,note_off,480,0,1,,,,,,,,,0,,,61,0
413760,note_on,0,0,1,,,,,,,,,0,,,63,66
413760,note_off,960,0,2,,,,,,,,,1,,,53,0
413760,note_on,84,0,4,,,,,,,,,3,,,31,54
413916,note_off,156,0,2,,,,,,,,,1,,,58,0
413916,note_off,156,0,1,,,,,,,,,0,,,63,0
413916,note_off,156,0,4,,,,,,,,,3,,,31,0
414000,note_on,84,0,4,,,,,,,,,3,,,43,53
414156,note_off,156,0,4,,,,,,,,,3,,,43,0
414240,note_on,324,0,1,,,,,,,,,0,,,60,61
414240,note_on,84,0,4,,,,,,,,,3,,,32,52
414240,note_on,324,0,2,,,,,,,,,1,,,51,58
414396,note_off,156,0,4,,,,,,,,,3,,,32,0
414396,note_off,156,0,2,,,,,,,,,1,,,51,0
414396,note_off,156,0,1,,,,,,,,,0,,,60,0
414480,note_on,84,0,4,,,,,,,,,3,,,44,52
414636,note_off,156,0,4,,,,,,,,,3,,,44,0
414720,note_on,324,0,1,,,,,,,,,0,,,56,54
414720,note_on,84,0,4,,,,,,,,,3,,,36,51
414720,note_on,324,0,2,,,,,,,,,1,,,51,54
414876,note_off,156,0,2,,,,,,,,,1,,,51,0
414876,note_off,156,0,4,,,,,,,,,3,,,36,0
414876,note_off,156,0,1,,,,,,,,,0,,,56,0
414960,note_on,84,0,4,,,,,,,,,3,,,48,50
415080,set_tempo,1800,1,0,,,,,,309278,,,,,,,
415116,note_off,156,0,4,,,,,,,,,3,,,48,0
415200,note_on,84,0,4,,,,,,,,,3,,,39,50
415200,note_on,324,0,2,,,,,,,,,1,,,55,60
415200,set_tempo,120,1,0,,,,,,306122,,,,,,,
415200,note_on,324,0,1,,,,,,,,,0,,,58,60
415356,note_off,156,0,4,,,,,,,,,3,,,39,0
415440,note_on,84,0,4,,,,,,,,,3,,,51,59
415596,note_off,156,0,4,,,,,,,,,3,,,51,0
415680,note_on,84,0,4,,,,,,,,,3,,,51,57
415836,note_off,156,0,4,,,,,,,,,3,,,51,0
415920,note_on,84,0,4,,,,,,,,,3,,,51,56
416076,note_off,156,0,4,,,,,,,,,3,,,51,0
416160,note_on,84,0,4,,,,,,,,,3,,,51,54
416316,note_off,156,0,4,,,,,,,,,3,,,51,0
416400,note_on,0,0,2,,,,,,,,,1,,,51,52
416400,note_off,1200,0,2,,,,,,,,,1,,,55,0
416400,note_on,84,0,4,,,,,,,,,3,,,49,52
416400,note_on,0,0,1,,,,,,,,,0,,,55,52
416400,note_off,1200,0,1,,,,,,,,,0,,,58,0
416556,note_off,156,0,4,,,,,,,,,3,,,49,0
416556,note_off,156,0,2,,,,,,,,,1,,,51,0
416556,note_off,156,0,1,,,,,,,,,0,,,55,0
416640,note_on,84,0,1,,,,,,,,,0,,,56,51
416640,note_on,84,0,2,,,,,,,,,1,,,53,51
416640,note_on,84,0,4,,,,,,,,,3,,,48,51
416796,note_off,156,0,1,,,,,,,,,0,,,56,0
416796,note_off,156,0,2,,,,,,,,,1,,,53,0
416796,note_off,156,0,4,,,,,,,,,3,,,48,0
416880,note_on,84,0,1,,,,,,,,,0,,,58,51
416880,note_on,84,0,2,,,,,,,,,1,,,55,51
416880,note_on,84,0,4,,,,,,,,,3,,,46,49
417000,set_tempo,1800,1,0,,,,,,309278,,,,,,,
417036,note_off,156,0,4,,,,,,,,,3,,,46,0
417036,note_off,156,0,1,,,,,,,,,0,,,58,0
417036,note_off,156,0,2,,,,,,,,,1,,,55,0
417120,note_on,84,0,4,,,,,,,,,3,,,44,46
417120,note_on,84,0,1,,,,,,,,,0,,,60,58
417120,note_on,84,0,2,,,,,,,,,1,,,51,58
417120,set_tempo,120,1,0,,,,,,306122,,,,,,,
417120,note_on,0,0,2,,,,,,,,,1,,,56,58
417276,note_off,156,0,4,,,,,,,,,3,,,44,0
417360,note_on,84,0,4,,,,,,,,,3,,,32,47
417516,note_off,156,0,4,,,,,,,,,3,,,32,0
417600,note_on,84,0,4,,,,,,,,,3,,,36,48
417756,note_off,156,0,4,,,,,,,,,3,,,36,0
417840,note_on,84,0,4,,,,,,,,,3,,,39,49
417996,note_off,156,0,4,,,,,,,,,3,,,39,0
418080,note_on,84,0,4,,,,,,,,,3,,,44,49
418236,note_off,156,0,4,,,,,,,,,3,,,44,0
418320,note_on,84,0,4,,,,,,,,,3,,,32,50
418440,note_off,0,0,2,,,,,,,,,1,,,51,0
418440,note_off,1320,0,2,,,,,,,,,1,,,56,0
418447,note_off,1327,0,1,,,,,,,,,0,,,60,0
418476,note_off,156,0,4,,,,,,,,,3,,,32,0
418560,note_on,0,0,2,,,,,,,,,1,,,51,70
418560,note_on,120,0,2,,,,,,,,,1,,,55,70
418560,note_on,113,0,1,,,,,,,,,0,,,61,70
418560,note_on,84,0,4,,,,,,,,,3,,,34,59
418716,note_off,156,0,4,,,,,,,,,3,,,34,0
418800,note_on,84,0,4,,,,,,,,,3,,,46,56
418800,set_tempo,1680,1,0,,,,,,312500,,,,,,,
418956,note_off,156,0,4,,,,,,,,,3,,,46,0
419040,note_on,0,0,1,,,,,,,,,0,,,63,62
419040,note_off,480,0,1,,,,,,,,,0,,,61,0
419040,set_tempo,240,1,0,,,,,,306122,,,,,,,
419040,note_off,0,0,2,,,,,,,,,1,,,55,0
419040,note_on,0,0,2,,,,,,,,,1,,,56,62
419040,note_on,0,0,2,,,,,,,,,1,,,51,62
419040,note_off,480,0,2,,,,,,,,,1,,,51,0
419280,note_on,324,0,4,,,,,,,,,3,,,36,54
419436,note_off,156,0,4,,,,,,,,,3,,,36,0
419520,note_on,84,0,4,,,,,,,,,3,,,39,55
419676,note_off,156,0,4,,,,,,,,,3,,,39,0
419760,note_on,84,0,4,,,,,,,,,3,,,44,56
419916,note_off,156,0,4,,,,,,,,,3,,,44,0
420000,note_on,84,0,4,,,,,,,,,3,,,48,57
420156,note_off,156,0,4,,,,,,,,,3,,,48,0
420240,note_on,84,0,4,,,,,,,,,3,,,36,58
420396,note_off,156,0,4,,,,,,,,,3,,,36,0
420480,note_on,0,0,1,,,,,,,,,0,,,65,78
420480,note_off,1440,0,1,,,,,,,,,0,,,63,0
420480,note_on,0,0,2,,,,,,,,,1,,,53,78
420480,note_off,0,0,2,,,,,,,,,1,,,56,0
420480,note_off,1440,0,2,,,,,,,,,1,,,51,0
420480,note_on,84,0,4,,,,,,,,,3,,,37,69
420636,note_off,156,0,4,,,,,,,,,3,,,37,0
420720,note_on,84,0,4,,,,,,,,,3,,,49,66
420840,set_tempo,1800,1,0,,,,,,312500,,,,,,,
420847,note_off,367,0,1,,,,,,,,,0,,,65,0
420876,note_off,156,0,4,,,,,,,,,3,,,49,0
420960,note_on,84,0,4,,,,,,,,,3,,,34,64
420960,set_tempo,120,1,0,,,,,,306122,,,,,,,
420960,note_on,113,0,1,,,,,,,,,0,,,61,73
421116,note_off,156,0,4,,,,,,,,,3,,,34,0
421200,note_on,84,0,4,,,,,,,,,3,,,46,60
421200,note_off,720,0,2,,,,,,,,,1,,,53,0
421356,note_off,156,0,4,,,,,,,,,3,,,46,0
421440,note_on,0,0,1,,,,,,,,,0,,,63,69
421440,note_off,480,0,1,,,,,,,,,0,,,61,0
421440,note_on,84,0,4,,,,,,,,,3,,,31,60
421440,note_on,240,0,2,,,,,,,,,1,,,58,66
421596,note_off,156,0,1,,,,,,,,,0,,,63,0
421596,note_off,156,0,4,,,,,,,,,3,,,31,0
421596,note_off,156,0,2,,,,,,,,,1,,,58,0
421680,note_on,84,0,4,,,,,,,,,3,,,43,59
421836,note_off,156,0,4,,,,,,,,,3,,,43,0
421920,note_on,84,0,4,,,,,,,,,3,,,32,58
421920,note_on,324,0,2,,,,,,,,,1,,,51,63
421920,note_on,324,0,1,,,,,,,,,0,,,60,65
422076,note_off,156,0,2,,,,,,,,,1,,,51,0
422076,note_off,156,0,1,,,,,,,,,0,,,60,0
422076,note_off,156,0,4,,,,,,,,,3,,,32,0
422160,note_on,84,0,4,,,,,,,,,3,,,44,57
422316,note_off,156,0,4,,,,,,,,,3,,,44,0
422400,note_on,324,0,1,,,,,,,,,0,,,56,61
422400,note_on,324,0,2,,,,,,,,,1,,,51,60
422400,note_on,84,0,4,,,,,,,,,3,,,36,56
422556,note_off,156,0,1,,,,,,,,,0,,,56,0
422556,note_off,156,0,2,,,,,,,,,1,,,51,0
422556,note_off,156,0,4,,,,,,,,,3,,,36,0
422640,note_on,84,0,4,,,,,,,,,3,,,48,55
422760,set_tempo,1800,1,0,,,,,,309278,,,,,,,
422796,note_off,156,0,4,,,,,,,,,3,,,48,0
422880,note_on,324,0,1,,,,,,,,,0,,,58,61
422880,note_on,0,0,2,,,,,,,,,1,,,49,61
422880,note_on,324,0,2,,,,,,,,,1,,,51,61
422880,note_on,84,0,4,,,,,,,,,3,,,39,54
423036,note_off,156,0,4,,,,,,,,,3,,,39,0
423120,note_on,84,0,4,,,,,,,,,3,,,39,57
423276,note_off,156,0,4,,,,,,,,,3,,,39,0
423360,note_on,84,0,4,,,,,,,,,3,,,43,54
423516,note_off,156,0,4,,,,,,,,,3,,,43,0
423600,note_on,84,0,4,,,,,,,,,3,,,39,51
423705,set_tempo,945,1,0,,,,,,315789,,,,,,,
423756,note_off,156,0,4,,,,,,,,,3,,,39,0
423840,note_off,960,0,2,,,,,,,,,1,,,49,0
423840,note_off,0,0,2,,,,,,,,,1,,,51,0
423840,note_on,0,0,2,,,,,,,,,1,,,51,52
423840,note_on,0,0,2,,,,,,,,,1,,,48,52
423840,note_on,84,0,4,,,,,,,,,3,,,32,48
423840,note_on,0,0,4,,,,,,,,,3,,,44,48
423840,note_on,960,0,1,,,,,,,,,0,,,56,52
423847,note_off,7,0,1,,,,,,,,,0,,,58,0
424080,note_off,0,0,2,,,,,,,,,1,,,51,0
424080,note_off,0,0,4,,,,,,,,,3,,,32,0
424080,note_off,240,0,4,,,,,,,,,3,,,44,0
424080,note_off,233,0,1,,,,,,,,,0,,,56,0
424080,note_off,240,0,2,,,,,,,,,1,,,48,0
424320,set_tempo,615,1,0,,,,,,312500,,,,,,,
424320,note_on,32880,0,3,,,,,,,,,2,,,68,48
424320,note_on,240,0,4,,,,,,,,,3,,,56,48
424320,note_on,240,0,1,,,,,,,,,0,,,80,48
424320,note_on,240,0,2,,,,,,,,,1,,,72,48
424560,note_off,240,0,4,,,,,,,,,3,,,56,0
424560,note_off,240,0,2,,,,,,,,,1,,,72,0
424560,note_off,240,0,1,,,,,,,,,0,,,80,0
424560,note_off,240,0,3,,,,,,,,,2,,,68,0
424800,note_on,240,0,1,,,,,,,,,0,,,82,51
424800,note_on,240,0,2,,,,,,,,,1,,,73,51
424800,note_on,240,0,4,,,,,,,,,3,,,63,53
424800,set_tempo,480,1,0,,,,,,306122,,,,,,,
424800,note_on,240,0,3,,,,,,,,,2,,,67,53
425760,note_off,960,0,3,,,,,,,,,2,,,67,0
425760,note_on,0,0,1,,,,,,,,,0,,,80,44
425760,note_off,960,0,1,,,,,,,,,0,,,82,0
425760,note_on,0,0,4,,,,,,,,,3,,,56,42
425760,set_tempo,960,1,0,,,,,,319148,,,,,,,
425760,note_off,960,0,2,,,,,,,,,1,,,73,0
425760,note_on,0,0,2,,,,,,,,,1,,,72,44
425760,note_off,960,0,4,,,,,,,,,3,,,63,0
425760,note_on,0,0,3,,,,,,,,,2,,,68,42
426000,note_off,240,0,2,,,,,,,,,1,,,72,0
426000,set_tempo,240,1,0,,,,,,335195,,,,,,,
426000,note_off,240,0,3,,,,,,,,,2,,,68,0
426000,note_off,240,0,4,,,,,,,,,3,,,56,0
426000,note_off,240,0,1,,,,,,,,,0,,,80,0
426240,note_on,240,0,4,,,,,,,,,3,,,72,41
426240,note_on,240,0,1,,,,,,,,,0,,,84,41
426240,set_tempo,240,1,0,,,,,,309278,,,,,,,
426480,set_tempo,240,1,0,,,,,,312500,,,,,,,
426480,note_off,240,0,1,,,,,,,,,0,,,84,0
426480,note_off,240,0,4,,,,,,,,,3,,,72,0
426720,set_tempo,240,1,0,,,,,,309278,,,,,,,
426720,note_on,240,0,4,,,,,,,,,3,,,70,49
426720,note_on,240,0,1,,,,,,,,,0,,,82,48
427560,note_on,840,0,4,,,,,,,,,3,,,68,41
427560,set_tempo,840,1,0,,,,,,312500,,,,,,,
427560,note_on,0,0,1,,,,,,,,,0,,,80,41
427560,note_off,840,0,1,,,,,,,,,0,,,82,0
427575,note_off,15,0,4,,,,,,,,,3,,,70,0
427680,note_off,105,0,4,,,,,,,,,3,,,68,0
427680,note_on,0,0,4,,,,,,,,,3,,,67,41
427680,note_off,120,0,1,,,,,,,,,0,,,80,0
427680,note_on,0,0,1,,,,,,,,,0,,,79,41
427800,note_off,120,0,4,,,,,,,,,3,,,67,0
427800,note_off,120,0,1,,,,,,,,,0,,,79,0
428160,note_on,360,0,4,,,,,,,,,3,,,65,38
428160,note_on,360,0,1,,,,,,,,,0,,,77,39
428280,note_off,120,0,4,,,,,,,,,3,,,65,0
428280,note_off,120,0,1,,,,,,,,,0,,,77,0
428520,set_tempo,960,1,0,,,,,,315789,,,,,,,
428640,note_on,360,0,4,,,,,,,,,3,,,64,36
428640,note_on,360,0,1,,,,,,,,,0,,,76,37
429000,note_off,360,0,1,,,,,,,,,0,,,76,0
429000,note_off,360,0,4,,,,,,,,,3,,,64,0
430080,note_on,1080,0,1,,,,,,,,,0,,,77,35
430080,note_on,1080,0,4,,,,,,,,,3,,,65,34
430160,note_off,80,0,1,,,,,,,,,0,,,77,0
430160,note_on,0,0,1,,,,,,,,,0,,,79,36
430160,note_off,80,0,4,,,,,,,,,3,,,65,0
430160,note_on,0,0,4,,,,,,,,,3,,,67,35
430240,note_on,0,0,1,,,,,,,,,0,,,77,37
430240,note_off,80,0,1,,,,,,,,,0,,,79,0
430240,note_on,0,0,4,,,,,,,,,3,,,65,35
430240,note_off,80,0,4,,,,,,,,,3,,,67,0
430320,note_on,0,0,1,,,,,,,,,0,,,76,37
430320,note_off,80,0,1,,,,,,,,,0,,,77,0
430320,note_off,80,0,4,,,,,,,,,3,,,65,0
430320,note_on,0,0,4,,,,,,,,,3,,,64,36
430440,note_off,120,0,4,,,,,,,,,3,,,64,0
430440,note_on,0,0,4,,,,,,,,,3,,,65,37
430440,note_on,0,0,1,,,,,,,,,0,,,77,39
430440,note_off,120,0,1,,,,,,,,,0,,,76,0
430470,set_tempo,1950,1,0,,,,,,312500,,,,,,,
430560,note_on,0,0,1,,,,,,,,,0,,,79,42
430560,note_off,120,0,1,,,,,,,,,0,,,77,0
430560,set_tempo,90,1,0,,,,,,309278,,,,,,,
430560,note_off,120,0,4,,,,,,,,,3,,,65,0
430560,note_on,0,0,4,,,,,,,,,3,,,67,44
431400,note_off,840,0,1,,,,,,,,,0,,,79,0
431400,note_on,0,0,4,,,,,,,,,3,,,65,36
431400,note_off,840,0,4,,,,,,,,,3,,,67,0
431400,note_on,0,0,1,,,,,,,,,0,,,77,36
431400,set_tempo,840,1,0,,,,,,312500,,,,,,,
431520,note_on,0,0,1,,,,,,,,,0,,,76,35
431520,note_off,120,0,4,,,,,,,,,3,,,65,0
431520,note_on,0,0,4,,,,,,,,,3,,,64,36
431520,note_off,120,0,1,,,,,,,,,0,,,77,0
431640,note_off,120,0,1,,,,,,,,,0,,,76,0
431640,note_off,120,0,4,,,,,,,,,3,,,64,0
432000,note_on,360,0,4,,,,,,,,,3,,,62,34
432000,note_on,360,0,1,,,,,,,,,0,,,74,33
432120,note_off,120,0,4,,,,,,,,,3,,,62,0
432120,note_off,120,0,1,,,,,,,,,0,,,74,0
432345,set_tempo,945,1,0,,,,,,315789,,,,,,,
432480,note_on,360,0,1,,,,,,,,,0,,,72,31
432480,note_on,360,0,4,,,,,,,,,3,,,60,32
432840,note_off,360,0,1,,,,,,,,,0,,,72,0
432840,note_off,360,0,4,,,,,,,,,3,,,60,0
434160,set_tempo,1815,1,0,,,,,,319148,,,,,,,
434280,note_on,1440,0,4,,,,,,,,,3,,,60,32
434280,note_on,1440,0,1,,,,,,,,,0,,,72,31
434376,note_off,96,0,1,,,,,,,,,0,,,72,0
434376,note_off,96,0,4,,,,,,,,,3,,,60,0
434400,note_on,24,0,1,,,,,,,,,0,,,72,31
434400,note_on,24,0,4,,,,,,,,,3,,,60,32
434880,note_off,480,0,4,,,,,,,,,3,,,60,0
434880,note_off,480,0,1,,,,,,,,,0,,,72,0
434880,set_tempo,720,1,0,,,,,,324324,,,,,,,
435240,note_on,360,0,4,,,,,,,,,3,,,60,31
435240,note_on,360,0,1,,,,,,,,,0,,,72,30
435336,note_off,96,0,4,,,,,,,,,3,,,60,0
435336,note_off,96,0,1,,,,,,,,,0,,,72,0
435360,note_on,24,0,1,,,,,,,,,0,,,72,30
435360,note_on,24,0,4,,,,,,,,,3,,,60,31
435840,set_tempo,960,1,0,,,,,,400000,,,,,,,
435840,note_off,480,0,4,,,,,,,,,3,,,60,0
435840,note_off,480,0,1,,,,,,,,,0,,,72,0
436200,note_on,360,0,4,,,,,,,,,3,,,60,30
436200,note_on,360,0,1,,,,,,,,,0,,,72,29
436296,note_off,96,0,1,,,,,,,,,0,,,72,0
436296,note_off,96,0,4,,,,,,,,,3,,,60,0
436320,note_on,24,0,1,,,,,,,,,0,,,72,28
436320,note_on,24,0,4,,,,,,,,,3,,,60,30
436800,note_off,480,0,4,,,,,,,,,3,,,60,0
436800,note_off,480,0,1,,,,,,,,,0,,,72,0
437760,set_tempo,1920,1,0,,,,,,309278,,,,,,,
438120,note_on,12120,0,2,,,,,,,,,1,,,77,72
438120,note_on,0,0,2,,,,,,,,,1,,,84,72
438120,note_on,0,0,2,,,,,,,,,1,,,89,72
438120,note_on,0,0,2,,,,,,,,,1,,,81,72
438120,note_on,0,0,3,,,,,,,,,2,,,53,74
438120,set_tempo,360,1,0,,,,,,312500,,,,,,,
438120,note_on,0,0,3,,,,,,,,,2,,,41,74
438120,note_on,12120,0,3,,,,,,,,,2,,,48,74
438120,note_on,0,0,3,,,,,,,,,2,,,45,74
438216,note_off,96,0,3,,,,,,,,,2,,,41,0
438216,note_off,96,0,2,,,,,,,,,1,,,84,0
438216,note_off,0,0,2,,,,,,,,,1,,,89,0
438216,note_off,0,0,2,,,,,,,,,1,,,81,0
438216,note_off,0,0,2,,,,,,,,,1,,,77,0
438216,note_off,0,0,3,,,,,,,,,2,,,45,0
438216,note_off,0,0,3,,,,,,,,,2,,,53,0
438216,note_off,0,0,3,,,,,,,,,2,,,48,0
438240,note_on,0,0,2,,,,,,,,,1,,,89,72
438240,control_change,24,0,3,,,,,,,64,127,2,,,,
438240,note_on,0,0,2,,,,,,,,,1,,,84,72
438240,note_on,0,0,2,,,,,,,,,1,,,81,72
438240,control_change,24,0,2,,,,,,,64,127,1,,,,
438240,note_on,0,0,3,,,,,,,,,2,,,45,74
438240,note_on,0,0,3,,,,,,,,,2,,,41,74
438240,note_on,0,0,3,,,,,,,,,2,,,48,74
438240,note_on,0,0,3,,,,,,,,,2,,,53,74
438240,note_on,0,0,2,,,,,,,,,1,,,77,72
438705,set_tempo,585,1,0,,,,,,306122,,,,,,,
438720,note_on,1920,0,4,,,,,,,,,3,,,57,36
438720,note_on,1920,0,1,,,,,,,,,0,,,65,36
438876,note_off,156,0,1,,,,,,,,,0,,,65,0
438876,note_off,156,0,4,,,,,,,,,3,,,57,0
438960,note_on,84,0,4,,,,,,,,,3,,,60,36
438960,note_on,84,0,1,,,,,,,,,0,,,69,36
439116,note_off,156,0,1,,,,,,,,,0,,,69,0
439116,note_off,156,0,4,,,,,,,,,3,,,60,0
439200,note_on,84,0,4,,,,,,,,,3,,,58,36
439200,note_off,0,0,3,,,,,,,,,2,,,45,0
439200,note_off,0,0,3,,,,,,,,,2,,,48,0
439200,note_off,0,0,3,,,,,,,,,2,,,41,0
439200,note_off,0,0,2,,,,,,,,,1,,,81,0
439200,note_off,0,0,2,,,,,,,,,1,,,84,0
439200,note_off,0,0,2,,,,,,,,,1,,,77,0
439200,note_off,960,0,2,,,,,,,,,1,,,89,0
439200,note_off,960,0,3,,,,,,,,,2,,,53,0
439200,note_on,84,0,1,,,,,,,,,0,,,67,36
439356,note_off,156,0,4,,,,,,,,,3,,,58,0
439356,note_off,156,0,1,,,,,,,,,0,,,67,0
439440,note_on,84,0,4,,,,,,,,,3,,,60,37
439440,note_on,84,0,1,,,,,,,,,0,,,70,37
439596,note_off,156,0,4,,,,,,,,,3,,,60,0
439596,note_off,156,0,1,,,,,,,,,0,,,70,0
439680,note_on,84,0,4,,,,,,,,,3,,,55,37
439680,note_on,84,0,1,,,,,,,,,0,,,64,37
439836,note_off,156,0,1,,,,,,,,,0,,,64,0
439836,note_off,156,0,4,,,,,,,,,3,,,55,0
439920,note_on,84,0,4,,,,,,,,,3,,,60,37
439920,note_on,84,0,1,,,,,,,,,0,,,67,37
440076,note_off,156,0,4,,,,,,,,,3,,,60,0
440076,note_off,156,0,1,,,,,,,,,0,,,67,0
440160,note_on,84,0,4,,,,,,,,,3,,,57,38
440160,note_on,84,0,1,,,,,,,,,0,,,65,38
440316,note_off,156,0,4,,,,,,,,,3,,,57,0
440316,note_off,156,0,1,,,,,,,,,0,,,65,0
440400,note_on,84,0,1,,,,,,,,,0,,,69,38
440400,note_on,84,0,4,,,,,,,,,3,,,60,38
440556,note_off,156,0,4,,,,,,,,,3,,,60,0
440556,note_off,156,0,1,,,,,,,,,0,,,69,0
440640,note_on,84,0,4,,,,,,,,,3,,,57,38
440640,note_on,84,0,1,,,,,,,,,0,,,65,38
440796,note_off,156,0,1,,,,,,,,,0,,,65,0
440796,note_off,156,0,4,,,,,,,,,3,,,57,0
440880,note_on,84,0,4,,,,,,,,,3,,,60,38
440880,note_on,84,0,1,,,,,,,,,0,,,69,39
441036,note_off,156,0,4,,,,,,,,,3,,,60,0
441036,note_off,156,0,1,,,,,,,,,0,,,69,0
441120,note_on,84,0,4,,,,,,,,,3,,,58,39
441120,note_on,84,0,1,,,,,,,,,0,,,67,39
441276,note_off,156,0,4,,,,,,,,,3,,,58,0
441276,note_off,156,0,1,,,,,,,,,0,,,67,0
441360,note_on,84,0,1,,,,,,,,,0,,,70,39
441360,note_on,84,0,4,,,,,,,,,3,,,60,39
441516,note_off,156,0,4,,,,,,,,,3,,,60,0
441516,note_off,156,0,1,,,,,,,,,0,,,70,0
441600,note_on,84,0,1,,,,,,,,,0,,,64,40
441600,note_on,84,0,4,,,,,,,,,3,,,55,39
441756,note_off,156,0,1,,,,,,,,,0,,,64,0
441756,note_off,156,0,4,,,,,,,,,3,,,55,0
441840,note_on,84,0,4,,,,,,,,,3,,,60,39
441840,note_on,84,0,1,,,,,,,,,0,,,67,40
441996,note_off,156,0,1,,,,,,,,,0,,,67,0
441996,note_off,156,0,4,,,,,,,,,3,,,60,0
442080,note_on,84,0,4,,,,,,,,,3,,,57,40
442080,note_on,84,0,1,,,,,,,,,0,,,65,40
442080,set_tempo,3375,1,0,,,,,,306122,,,,,,,
442236,note_off,156,0,1,,,,,,,,,0,,,65,0
442236,note_off,156,0,4,,,,,,,,,3,,,57,0
442320,note_on,84,0,4,,,,,,,,,3,,,60,41
442320,note_on,84,0,1,,,,,,,,,0,,,69,41
442476,note_off,156,0,4,,,,,,,,,3,,,60,0
442476,note_off,156,0,1,,,,,,,,,0,,,69,0
442560,note_on,84,0,1,,,,,,,,,0,,,72,43
442560,note_on,84,0,4,,,,,,,,,3,,,63,42
442716,note_off,156,0,4,,,,,,,,,3,,,63,0
442716,note_off,156,0,1,,,,,,,,,0,,,72,0
442800,note_on,84,0,1,,,,,,,,,0,,,69,44
442800,note_on,84,0,4,,,,,,,,,3,,,60,43
442956,note_off,156,0,1,,,,,,,,,0,,,69,0
442956,note_off,156,0,4,,,,,,,,,3,,,60,0
443040,note_on,84,0,1,,,,,,,,,0,,,69,46
443040,note_on,84,0,4,,,,,,,,,3,,,60,44
443196,note_off,156,0,1,,,,,,,,,0,,,69,0
443196,note_off,156,0,4,,,,,,,,,3,,,60,0
443280,note_on,84,0,4,,,,,,,,,3,,,63,45
443280,note_on,84,0,1,,,,,,,,,0,,,72,47
443436,note_off,156,0,1,,,,,,,,,0,,,72,0
443436,note_off,156,0,4,,,,,,,,,3,,,63,0
443520,note_on,84,0,4,,,,,,,,,3,,,66,46
443520,note_on,84,0,1,,,,,,,,,0,,,75,49
443676,note_off,156,0,4,,,,,,,,,3,,,66,0
443676,note_off,156,0,1,,,,,,,,,0,,,75,0
443760,note_on,84,0,4,,,,,,,,,3,,,63,47
443760,note_on,84,0,1,,,,,,,,,0,,,72,50
443916,note_off,156,0,4,,,,,,,,,3,,,63,0
443916,note_off,156,0,1,,,,,,,,,0,,,72,0
444000,note_on,84,0,1,,,,,,,,,0,,,72,53
444000,note_on,84,0,4,,,,,,,,,3,,,63,51
444156,note_off,156,0,4,,,,,,,,,3,,,63,0
444156,note_off,156,0,1,,,,,,,,,0,,,72,0
444240,note_on,84,0,4,,,,,,,,,3,,,66,50
444240,note_on,84,0,1,,,,,,,,,0,,,75,52
444396,note_off,156,0,1,,,,,,,,,0,,,75,0
444396,note_off,156,0,4,,,,,,,,,3,,,66,0
444480,note_on,84,0,1,,,,,,,,,0,,,78,50
444480,note_on,84,0,4,,,,,,,,,3,,,69,49
444636,note_off,156,0,4,,,,,,,,,3,,,69,0
444636,note_off,156,0,1,,,,,,,,,0,,,78,0
444720,note_on,84,0,1,,,,,,,,,0,,,75,49
444720,note_on,84,0,4,,,,,,,,,3,,,66,48
444876,note_off,156,0,1,,,,,,,,,0,,,75,0
444876,note_off,156,0,4,,,,,,,,,3,,,66,0
444960,note_on,84,0,1,,,,,,,,,0,,,73,48
444960,note_on,84,0,4,,,,,,,,,3,,,65,47
445116,note_off,156,0,1,,,,,,,,,0,,,73,0
445116,note_off,156,0,4,,,,,,,,,3,,,65,0
445200,note_on,84,0,1,,,,,,,,,0,,,77,47
445200,note_on,84,0,4,,,,,,,,,3,,,69,46
445356,note_off,156,0,4,,,,,,,,,3,,,69,0
445356,note_off,156,0,1,,,,,,,,,0,,,77,0
445440,note_on,84,0,1,,,,,,,,,0,,,72,45
445440,note_on,84,0,4,,,,,,,,,3,,,63,45
445596,note_off,156,0,4,,,,,,,,,3,,,63,0
445596,note_off,156,0,1,,,,,,,,,0,,,72,0
445680,note_on,84,0,1,,,,,,,,,0,,,77,44
445680,note_on,84,0,4,,,,,,,,,3,,,69,44
445800,control_change,6600,0,2,,,,,,,64,0,1,,,,
445800,set_tempo,3720,1,0,,,,,,312500,,,,,,,
445836,note_off,156,0,4,,,,,,,,,3,,,69,0
445836,note_off,156,0,1,,,,,,,,,0,,,77,0
445920,note_on,0,0,2,,,,,,,,,1,,,77,76
445920,note_on,0,0,2,,,,,,,,,1,,,74,76
445920,note_on,0,0,2,,,,,,,,,1,,,70,76
445920,note_on,0,0,2,,,,,,,,,1,,,82,76
445920,note_on,0,0,3,,,,,,,,,2,,,34,76
445920,note_on,0,0,3,,,,,,,,,2,,,46,76
445920,note_on,0,0,3,,,,,,,,,2,,,38,76
445920,note_on,0,0,3,,,,,,,,,2,,,41,76
445920,control_change,120,0,2,,,,,,,64,127,1,,,,
445920,control_change,6720,0,3,,,,,,,64,127,2,,,,
446355,set_tempo,555,1,0,,,,,,306122,,,,,,,
446400,note_off,480,0,2,,,,,,,,,1,,,70,0
446400,note_on,564,0,4,,,,,,,,,3,,,62,40
446400,note_on,564,0,1,,,,,,,,,0,,,70,40
446556,note_off,156,0,4,,,,,,,,,3,,,62,0
446556,note_off,156,0,1,,,,,,,,,0,,,70,0
446640,note_on,84,0,1,,,,,,,,,0,,,74,40
446640,note_on,84,0,4,,,,,,,,,3,,,65,40
446640,note_off,240,0,2,,,,,,,,,1,,,74,0
446796,note_off,156,0,1,,,,,,,,,0,,,74,0
446796,note_off,156,0,4,,,,,,,,,3,,,65,0
446880,note_off,960,0,3,,,,,,,,,2,,,34,0
446880,note_off,0,0,3,,,,,,,,,2,,,46,0
446880,note_off,0,0,3,,,,,,,,,2,,,38,0
446880,note_off,0,0,3,,,,,,,,,2,,,41,0
446880,note_off,0,0,2,,,,,,,,,1,,,77,0
446880,note_off,240,0,2,,,,,,,,,1,,,82,0
446880,note_on,84,0,1,,,,,,,,,0,,,72,40
446880,note_on,84,0,4,,,,,,,,,3,,,63,40
447036,note_off,156,0,1,,,,,,,,,0,,,72,0
447036,note_off,156,0,4,,,,,,,,,3,,,63,0
447120,note_on,84,0,4,,,,,,,,,3,,,66,40
447120,note_on,84,0,1,,,,,,,,,0,,,75,41
447276,note_off,156,0,1,,,,,,,,,0,,,75,0
447276,note_off,156,0,4,,,,,,,,,3,,,66,0
447360,note_on,84,0,4,,,,,,,,,3,,,60,41
447360,note_on,84,0,1,,,,,,,,,0,,,69,41
447516,note_off,156,0,1,,,,,,,,,0,,,69,0
447516,note_off,156,0,4,,,,,,,,,3,,,60,0
447600,note_on,84,0,1,,,,,,,,,0,,,72,41
447600,note_on,84,0,4,,,,,,,,,3,,,63,41
447756,note_off,156,0,4,,,,,,,,,3,,,63,0
447756,note_off,156,0,1,,,,,,,,,0,,,72,0
447840,note_on,84,0,1,,,,,,,,,0,,,70,42
447840,note_on,84,0,4,,,,,,,,,3,,,62,41
447996,note_off,156,0,4,,,,,,,,,3,,,62,0
447996,note_off,156,0,1,,,,,,,,,0,,,70,0
448080,note_on,84,0,1,,,,,,,,,0,,,74,42
448080,note_on,84,0,4,,,,,,,,,3,,,65,41
448236,note_off,156,0,4,,,,,,,,,3,,,65,0
448236,note_off,156,0,1,,,,,,,,,0,,,74,0
448320,note_on,84,0,4,,,,,,,,,3,,,62,42
448320,note_on,84,0,1,,,,,,,,,0,,,70,42
448476,note_off,156,0,4,,,,,,,,,3,,,62,0
448476,note_off,156,0,1,,,,,,,,,0,,,70,0
448560,note_on,84,0,4,,,,,,,,,3,,,65,42
448560,note_on,84,0,1,,,,,,,,,0,,,74,43
448716,note_off,156,0,4,,,,,,,,,3,,,65,0
448716,note_off,156,0,1,,,,,,,,,0,,,74,0
448800,note_on,84,0,4,,,,,,,,,3,,,63,42
448800,note_on,84,0,1,,,,,,,,,0,,,72,43
448956,note_off,156,0,1,,,,,,,,,0,,,72,0
448956,note_off,156,0,4,,,,,,,,,3,,,63,0
449040,note_on,84,0,4,,,,,,,,,3,,,66,42
449040,note_on,84,0,1,,,,,,,,,0,,,75,43
449196,note_off,156,0,4,,,,,,,,,3,,,66,0
449196,note_off,156,0,1,,,,,,,,,0,,,75,0
449280,note_on,84,0,4,,,,,,,,,3,,,60,43
449280,note_on,84,0,1,,,,,,,,,0,,,69,44
449436,note_off,156,0,1,,,,,,,,,0,,,69,0
449436,note_off,156,0,4,,,,,,,,,3,,,60,0
449520,note_on,84,0,4,,,,,,,,,3,,,63,43
449520,note_on,84,0,1,,,,,,,,,0,,,72,44
449676,note_off,156,0,1,,,,,,,,,0,,,72,0
449676,note_off,156,0,4,,,,,,,,,3,,,63,0
449760,note_on,84,0,1,,,,,,,,,0,,,70,45
449760,note_on,84,0,4,,,,,,,,,3,,,62,43
449916,note_off,156,0,4,,,,,,,,,3,,,62,0
449916,note_off,156,0,1,,,,,,,,,0,,,70,0
450000,note_on,84,0,1,,,,,,,,,0,,,74,45
450000,note_on,84,0,4,,,,,,,,,3,,,65,43
450156,note_off,156,0,4,,,,,,,,,3,,,65,0
450156,note_off,156,0,1,,,,,,,,,0,,,74,0
450240,note_on,84,0,4,,,,,,,,,3,,,68,44
450240,note_on,84,0,1,,,,,,,,,0,,,77,45
450396,note_off,156,0,1,,,,,,,,,0,,,77,0
450396,note_off,156,0,4,,,,,,,,,3,,,68,0
450480,note_on,84,0,1,,,,,,,,,0,,,74,46
450480,note_on,84,0,4,,,,,,,,,3,,,65,44
450636,note_off,156,0,4,,,,,,,,,3,,,65,0
450636,note_off,156,0,1,,,,,,,,,0,,,74,0
450720,note_on,84,0,1,,,,,,,,,0,,,74,46
450720,note_on,84,0,4,,,,,,,,,3,,,65,44
450876,note_off,156,0,1,,,,,,,,,0,,,74,0
450876,note_off,156,0,4,,,,,,,,,3,,,65,0
450960,note_on,84,0,1,,,,,,,,,0,,,77,46
450960,note_on,84,0,4,,,,,,,,,3,,,68,44
451116,note_off,156,0,4,,,,,,,,,3,,,68,0
451116,note_off,156,0,1,,,,,,,,,0,,,77,0
451200,note_on,84,0,1,,,,,,,,,0,,,80,47
451200,note_on,84,0,4,,,,,,,,,3,,,71,45
451356,note_off,156,0,4,,,,,,,,,3,,,71,0
451356,note_off,156,0,1,,,,,,,,,0,,,80,0
451440,note_on,84,0,1,,,,,,,,,0,,,77,48
451440,note_on,84,0,4,,,,,,,,,3,,,68,45
451596,note_off,156,0,4,,,,,,,,,3,,,68,0
451596,note_off,156,0,1,,,,,,,,,0,,,77,0
451680,note_on,84,0,1,,,,,,,,,0,,,77,48
451680,note_on,84,0,4,,,,,,,,,3,,,68,45
451836,note_off,156,0,1,,,,,,,,,0,,,77,0
451836,note_off,156,0,4,,,,,,,,,3,,,68,0
451920,note_on,84,0,4,,,,,,,,,3,,,71,45
451920,note_on,84,0,1,,,,,,,,,0,,,80,49
452076,note_off,156,0,1,,,,,,,,,0,,,80,0
452076,note_off,156,0,4,,,,,,,,,3,,,71,0
452160,note_on,84,0,4,,,,,,,,,3,,,74,46
452160,note_on,84,0,1,,,,,,,,,0,,,83,50
452316,note_off,156,0,4,,,,,,,,,3,,,74,0
452316,note_off,156,0,1,,,,,,,,,0,,,83,0
452400,note_on,84,0,4,,,,,,,,,3,,,71,46
452400,note_on,84,0,1,,,,,,,,,0,,,80,50
452556,note_off,156,0,1,,,,,,,,,0,,,80,0
452556,note_off,156,0,4,,,,,,,,,3,,,71,0
452640,note_on,84,0,4,,,,,,,,,3,,,74,46
452640,note_on,84,0,1,,,,,,,,,0,,,83,51
452796,note_off,156,0,4,,,,,,,,,3,,,74,0
452796,note_off,156,0,1,,,,,,,,,0,,,83,0
452880,note_on,84,0,4,,,,,,,,,3,,,77,46
452880,note_on,84,0,1,,,,,,,,,0,,,86,51
453036,note_off,156,0,1,,,,,,,,,0,,,86,0
453036,note_off,156,0,4,,,,,,,,,3,,,77,0
453120,note_on,84,0,4,,,,,,,,,3,,,80,47
453120,note_on,84,0,1,,,,,,,,,0,,,89,52
453276,note_off,156,0,4,,,,,,,,,3,,,80,0
453276,note_off,156,0,1,,,,,,,,,0,,,89,0
453360,note_on,84,0,1,,,,,,,,,0,,,86,53
453480,control_change,6600,0,2,,,,,,,64,0,1,,,,
453480,note_on,204,0,4,,,,,,,,,3,,,68,44
453480,control_change,6600,0,3,,,,,,,64,0,2,,,,
453480,set_tempo,7125,1,0,,,,,,309278,,,,,,,
453480,note_on,0,0,4,,,,,,,,,3,,,72,44
453516,note_off,156,0,1,,,,,,,,,0,,,86,0
453576,note_off,96,0,4,,,,,,,,,3,,,72,0
453576,note_off,0,0,4,,,,,,,,,3,,,68,0
453600,set_tempo,120,1,0,,,,,,306122,,,,,,,
453600,note_on,84,0,1,,,,,,,,,0,,,89,52
453600,note_on,0,0,4,,,,,,,,,3,,,71,44
453600,note_on,24,0,4,,,,,,,,,3,,,68,44
453756,note_off,156,0,1,,,,,,,,,0,,,89,0
453840,note_on,84,0,1,,,,,,,,,0,,,86,53
453840,note_off,0,0,4,,,,,,,,,3,,,68,0
453840,note_off,240,0,4,,,,,,,,,3,,,71,0
453996,note_off,156,0,1,,,,,,,,,0,,,86,0
454080,note_on,84,0,1,,,,,,,,,0,,,89,54
454236,note_off,156,0,1,,,,,,,,,0,,,89,0
454320,note_on,84,0,1,,,,,,,,,0,,,86,56
454440,note_on,0,0,4,,,,,,,,,3,,,68,47
454440,note_on,600,0,4,,,,,,,,,3,,,71,47
454476,note_off,156,0,1,,,,,,,,,0,,,86,0
454536,note_off,0,0,4,,,,,,,,,3,,,71,0
454536,note_off,96,0,4,,,,,,,,,3,,,68,0
454560,note_on,84,0,1,,,,,,,,,0,,,89,57
454560,note_on,24,0,4,,,,,,,,,3,,,68,48
454560,note_on,0,0,4,,,,,,,,,3,,,71,48
454716,note_off,156,0,1,,,,,,,,,0,,,89,0
454800,note_off,240,0,4,,,,,,,,,3,,,71,0
454800,note_off,0,0,4,,,,,,,,,3,,,68,0
454800,note_on,84,0,1,,,,,,,,,0,,,86,58
454956,note_off,156,0,1,,,,,,,,,0,,,86,0
455040,note_on,84,0,1,,,,,,,,,0,,,89,59
455196,note_off,156,0,1,,,,,,,,,0,,,89,0
455280,note_on,84,0,1,,,,,,,,,0,,,86,61
455400,note_on,600,0,4,,,,,,,,,3,,,68,51
455400,note_on,0,0,4,,,,,,,,,3,,,71,51
455436,note_off,156,0,1,,,,,,,,,0,,,86,0
455496,note_off,96,0,4,,,,,,,,,3,,,71,0
455496,note_off,0,0,4,,,,,,,,,3,,,68,0
455520,note_on,0,0,4,,,,,,,,,3,,,68,51
455520,note_on,24,0,4,,,,,,,,,3,,,71,51
455520,note_on,84,0,1,,,,,,,,,0,,,89,62
455676,note_off,156,0,1,,,,,,,,,0,,,89,0
455760,note_off,0,0,4,,,,,,,,,3,,,71,0
455760,note_off,240,0,4,,,,,,,,,3,,,68,0
455760,note_on,84,0,1,,,,,,,,,0,,,86,63
455916,note_off,156,0,1,,,,,,,,,0,,,86,0
456000,note_on,84,0,1,,,,,,,,,0,,,89,64
456156,note_off,156,0,1,,,,,,,,,0,,,89,0
456240,note_on,84,0,1,,,,,,,,,0,,,86,66
456360,note_on,600,0,4,,,,,,,,,3,,,71,58
456360,note_on,0,0,4,,,,,,,,,3,,,68,58
456396,note_off,156,0,1,,,,,,,,,0,,,86,0
456456,note_off,0,0,4,,,,,,,,,3,,,71,0
456456,note_off,96,0,4,,,,,,,,,3,,,68,0
456480,note_on,24,0,4,,,,,,,,,3,,,70,59
456480,note_on,0,0,4,,,,,,,,,3,,,67,59
456480,note_on,84,0,1,,,,,,,,,0,,,87,67
456636,note_off,156,0,1,,,,,,,,,0,,,87,0
456720,note_on,84,0,1,,,,,,,,,0,,,82,62
456720,note_off,240,0,4,,,,,,,,,3,,,67,0
456720,note_off,0,0,4,,,,,,,,,3,,,70,0
456876,note_off,156,0,1,,,,,,,,,0,,,82,0
456960,note_on,84,0,1,,,,,,,,,0,,,79,60
457116,note_off,156,0,1,,,,,,,,,0,,,79,0
457200,note_on,84,0,1,,,,,,,,,0,,,75,57
457320,note_on,0,0,4,,,,,,,,,3,,,67,54
457320,note_on,600,0,4,,,,,,,,,3,,,70,54
457320,set_tempo,3720,1,0,,,,,,309278,,,,,,,
457356,note_off,156,0,1,,,,,,,,,0,,,75,0
457416,note_off,96,0,4,,,,,,,,,3,,,67,0
457416,note_off,0,0,4,,,,,,,,,3,,,70,0
457440,set_tempo,120,1,0,,,,,,306122,,,,,,,
457440,note_on,0,0,4,,,,,,,,,3,,,71,55
457440,note_on,24,0,4,,,,,,,,,3,,,68,55
457440,note_on,84,0,1,,,,,,,,,0,,,74,58
457596,note_off,156,0,1,,,,,,,,,0,,,74,0
457680,note_on,84,0,1,,,,,,,,,0,,,86,60
457680,note_off,0,0,4,,,,,,,,,3,,,68,0
457680,note_off,240,0,4,,,,,,,,,3,,,71,0
457836,note_off,156,0,1,,,,,,,,,0,,,86,0
457920,note_on,84,0,1,,,,,,,,,0,,,89,61
458076,note_off,156,0,1,,,,,,,,,0,,,89,0
458160,note_on,84,0,1,,,,,,,,,0,,,86,62
458280,note_on,0,0,4,,,,,,,,,3,,,71,59
458280,note_on,600,0,4,,,,,,,,,3,,,68,59
458316,note_off,156,0,1,,,,,,,,,0,,,86,0
458376,note_off,96,0,4,,,,,,,,,3,,,71,0
458376,note_off,0,0,4,,,,,,,,,3,,,68,0
458400,note_on,0,0,4,,,,,,,,,3,,,68,60
458400,note_on,24,0,4,,,,,,,,,3,,,71,60
458400,note_on,84,0,1,,,,,,,,,0,,,89,64
458556,note_off,156,0,1,,,,,,,,,0,,,89,0
458640,note_on,84,0,1,,,,,,,,,0,,,86,65
458640,note_off,240,0,4,,,,,,,,,3,,,68,0
458640,note_off,0,0,4,,,,,,,,,3,,,71,0
458796,note_off,156,0,1,,,,,,,,,0,,,86,0
458880,note_on,84,0,1,,,,,,,,,0,,,89,67
459036,note_off,156,0,1,,,,,,,,,0,,,89,0
459120,note_on,84,0,1,,,,,,,,,0,,,86,68
459240,note_on,600,0,4,,,,,,,,,3,,,71,65
459240,note_on,0,0,4,,,,,,,,,3,,,68,65
459276,note_off,156,0,1,,,,,,,,,0,,,86,0
459336,note_off,0,0,4,,,,,,,,,3,,,71,0
459336,note_off,96,0,4,,,,,,,,,3,,,68,0
459360,note_on,24,0,4,,,,,,,,,3,,,71,66
459360,note_on,84,0,1,,,,,,,,,0,,,89,69
459360,note_on,0,0,4,,,,,,,,,3,,,68,66
459516,note_off,156,0,1,,,,,,,,,0,,,89,0
459600,note_on,84,0,1,,,,,,,,,0,,,86,71
459600,note_off,240,0,4,,,,,,,,,3,,,68,0
459600,note_off,0,0,4,,,,,,,,,3,,,71,0
459756,note_off,156,0,1,,,,,,,,,0,,,86,0
459840,note_on,84,0,1,,,,,,,,,0,,,89,72
459996,note_off,156,0,1,,,,,,,,,0,,,89,0
460080,note_on,84,0,1,,,,,,,,,0,,,86,74
460200,note_on,600,0,4,,,,,,,,,3,,,71,71
460200,note_on,0,0,4,,,,,,,,,3,,,68,71
460236,note_off,156,0,1,,,,,,,,,0,,,86,0
460296,note_off,96,0,4,,,,,,,,,3,,,68,0
460296,note_off,0,0,4,,,,,,,,,3,,,71,0
460320,note_on,0,0,4,,,,,,,,,3,,,67,71
460320,note_on,84,0,1,,,,,,,,,0,,,87,77
460320,note_on,24,0,4,,,,,,,,,3,,,70,71
460476,note_off,156,0,1,,,,,,,,,0,,,87,0
460560,note_on,84,0,1,,,,,,,,,0,,,82,74
460560,note_off,0,0,4,,,,,,,,,3,,,70,0
460560,note_off,240,0,4,,,,,,,,,3,,,67,0
460716,note_off,156,0,1,,,,,,,,,0,,,82,0
460800,note_on,84,0,1,,,,,,,,,0,,,79,70
460956,note_off,156,0,1,,,,,,,,,0,,,79,0
461040,note_on,84,0,1,,,,,,,,,0,,,75,67
461160,note_on,0,0,4,,,,,,,,,3,,,67,59
461160,note_on,600,0,4,,,,,,,,,3,,,70,59
461160,set_tempo,3720,1,0,,,,,,309278,,,,,,,
461196,note_off,156,0,1,,,,,,,,,0,,,75,0
461256,note_off,0,0,4,,,,,,,,,3,,,70,0
461256,note_off,96,0,4,,,,,,,,,3,,,67,0
461280,note_on,24,0,4,,,,,,,,,3,,,68,58
461280,note_on,0,0,4,,,,,,,,,3,,,71,58
461280,set_tempo,120,1,0,,,,,,306122,,,,,,,
461280,note_on,84,0,1,,,,,,,,,0,,,74,64
461436,note_off,156,0,1,,,,,,,,,0,,,74,0
461520,note_off,0,0,4,,,,,,,,,3,,,68,0
461520,note_off,240,0,4,,,,,,,,,3,,,71,0
461520,note_on,84,0,1,,,,,,,,,0,,,86,66
461676,note_off,156,0,1,,,,,,,,,0,,,86,0
461760,note_on,84,0,1,,,,,,,,,0,,,89,68
461916,note_off,156,0,1,,,,,,,,,0,,,89,0
462000,note_on,84,0,1,,,,,,,,,0,,,86,71
462120,note_on,0,0,4,,,,,,,,,3,,,71,67
462120,note_on,600,0,4,,,,,,,,,3,,,68,67
462156,note_off,156,0,1,,,,,,,,,0,,,86,0
462216,note_off,0,0,4,,,,,,,,,3,,,68,0
462216,note_off,96,0,4,,,,,,,,,3,,,71,0
462240,note_on,24,0,4,,,,,,,,,3,,,70,66
462240,note_on,84,0,1,,,,,,,,,0,,,87,73
462240,note_on,0,0,4,,,,,,,,,3,,,67,66
462396,note_off,156,0,1,,,,,,,,,0,,,87,0
462480,note_off,0,0,4,,,,,,,,,3,,,70,0
462480,note_off,240,0,4,,,,,,,,,3,,,67,0
462480,note_on,84,0,1,,,,,,,,,0,,,82,69
462636,note_off,156,0,1,,,,,,,,,0,,,82,0
462720,note_on,84,0,1,,,,,,,,,0,,,79,65
462876,note_off,156,0,1,,,,,,,,,0,,,79,0
462960,note_on,84,0,1,,,,,,,,,0,,,75,60
463080,note_on,0,0,4,,,,,,,,,3,,,70,55
463080,note_on,600,0,4,,,,,,,,,3,,,67,55
463080,set_tempo,1800,1,0,,,,,,309278,,,,,,,
463116,note_off,156,0,1,,,,,,,,,0,,,75,0
463176,note_off,96,0,4,,,,,,,,,3,,,70,0
463176,note_off,0,0,4,,,,,,,,,3,,,67,0
463200,note_on,84,0,1,,,,,,,,,0,,,74,56
463200,note_on,0,0,4,,,,,,,,,3,,,71,53
463200,set_tempo,120,1,0,,,,,,306122,,,,,,,
463200,note_on,24,0,4,,,,,,,,,3,,,68,53
463356,note_off,156,0,1,,,,,,,,,0,,,74,0
463440,note_on,84,0,1,,,,,,,,,0,,,86,58
463440,note_off,0,0,4,,,,,,,,,3,,,68,0
463440,note_off,240,0,4,,,,,,,,,3,,,71,0
463596,note_off,156,0,1,,,,,,,,,0,,,86,0
463680,note_on,84,0,1,,,,,,,,,0,,,89,59
463836,note_off,156,0,1,,,,,,,,,0,,,89,0
463920,note_on,84,0,1,,,,,,,,,0,,,86,61
464040,note_on,0,0,4,,,,,,,,,3,,,71,62
464040,note_on,600,0,4,,,,,,,,,3,,,68,62
464076,note_off,156,0,1,,,,,,,,,0,,,86,0
464136,note_off,96,0,4,,,,,,,,,3,,,71,0
464136,note_off,0,0,4,,,,,,,,,3,,,68,0
464160,note_on,24,0,4,,,,,,,,,3,,,70,62
464160,note_on,0,0,4,,,,,,,,,3,,,67,62
464160,note_on,84,0,1,,,,,,,,,0,,,87,65
464316,note_off,156,0,1,,,,,,,,,0,,,87,0
464400,note_off,240,0,4,,,,,,,,,3,,,67,0
464400,note_off,0,0,4,,,,,,,,,3,,,70,0
464400,note_on,84,0,1,,,,,,,,,0,,,82,63
464556,note_off,156,0,1,,,,,,,,,0,,,82,0
464640,note_on,84,0,1,,,,,,,,,0,,,79,61
464796,note_off,156,0,1,,,,,,,,,0,,,79,0
464880,note_on,84,0,1,,,,,,,,,0,,,75,59
465000,set_tempo,1800,1,0,,,,,,309278,,,,,,,
465000,note_on,600,0,4,,,,,,,,,3,,,55,48
465036,note_off,156,0,1,,,,,,,,,0,,,75,0
465096,note_off,96,0,4,,,,,,,,,3,,,55,0
465120,note_on,84,0,1,,,,,,,,,0,,,72,56
465120,set_tempo,120,1,0,,,,,,306122,,,,,,,
465120,note_on,24,0,4,,,,,,,,,3,,,56,47
465276,note_off,156,0,1,,,,,,,,,0,,,72,0
465360,note_on,84,0,1,,,,,,,,,0,,,68,54
465360,note_off,240,0,4,,,,,,,,,3,,,56,0
465516,note_off,156,0,1,,,,,,,,,0,,,68,0
465600,note_on,84,0,1,,,,,,,,,0,,,63,52
465756,note_off,156,0,1,,,,,,,,,0,,,63,0
465840,note_on,84,0,1,,,,,,,,,0,,,60,50
465960,note_on,600,0,4,,,,,,,,,3,,,44,38
465996,note_off,156,0,1,,,,,,,,,0,,,60,0
466056,note_off,96,0,4,,,,,,,,,3,,,44,0
466080,note_on,84,0,1,,,,,,,,,0,,,58,48
466080,note_on,24,0,4,,,,,,,,,3,,,46,37
466236,note_off,156,0,1,,,,,,,,,0,,,58,0
466320,note_off,240,0,4,,,,,,,,,3,,,46,0
466320,note_on,84,0,1,,,,,,,,,0,,,53,48
466476,note_off,156,0,1,,,,,,,,,0,,,53,0
466560,note_on,84,0,1,,,,,,,,,0,,,50,43
466680,set_tempo,1560,1,0,,,,,,309278,,,,,,,
466716,note_off,156,0,1,,,,,,,,,0,,,50,0
466800,note_on,84,0,1,,,,,,,,,0,,,46,41
466920,note_on,600,0,4,,,,,,,,,3,,,34,33
466920,set_tempo,240,1,0,,,,,,312500,,,,,,,
466956,note_off,156,0,1,,,,,,,,,0,,,46,0
467016,note_off,96,0,4,,,,,,,,,3,,,34,0
467040,note_on,84,0,1,,,,,,,,,0,,,51,39
467040,set_tempo,120,1,0,,,,,,306122,,,,,,,
467040,note_on,24,0,4,,,,,,,,,3,,,39,46
467280,note_on,0,0,3,,,,,,,,,2,,,51,32
467280,note_on,13800,0,3,,,,,,,,,2,,,46,32
467280,note_off,240,0,1,,,,,,,,,0,,,51,0
467436,note_off,0,0,3,,,,,,,,,2,,,46,0
467436,note_off,156,0,3,,,,,,,,,2,,,51,0
467520,note_on,84,0,3,,,,,,,,,2,,,55,32
467520,note_on,0,0,3,,,,,,,,,2,,,51,32
467676,note_off,0,0,3,,,,,,,,,2,,,55,0
467676,note_off,156,0,3,,,,,,,,,2,,,51,0
467760,note_on,480,0,1,,,,,,,,,0,,,70,33
467760,note_on,84,0,3,,,,,,,,,2,,,51,33
467760,note_on,0,0,3,,,,,,,,,2,,,46,33
467916,note_off,156,0,3,,,,,,,,,2,,,46,0
467916,note_off,0,0,3,,,,,,,,,2,,,51,0
467916,note_off,156,0,1,,,,,,,,,0,,,70,0
468000,note_on,84,0,1,,,,,,,,,0,,,67,34
468000,note_on,0,0,3,,,,,,,,,2,,,51,33
468000,note_on,84,0,3,,,,,,,,,2,,,55,33
468156,note_off,0,0,3,,,,,,,,,2,,,55,0
468156,note_off,156,0,3,,,,,,,,,2,,,51,0
468240,note_on,84,0,3,,,,,,,,,2,,,51,33
468240,note_on,0,0,3,,,,,,,,,2,,,46,33
468240,note_off,240,0,1,,,,,,,,,0,,,67,0
468396,note_off,156,0,3,,,,,,,,,2,,,46,0
468396,note_off,0,0,3,,,,,,,,,2,,,51,0
468480,note_on,0,0,3,,,,,,,,,2,,,51,34
468480,note_on,84,0,3,,,,,,,,,2,,,55,34
468636,note_off,156,0,3,,,,,,,,,2,,,51,0
468636,note_off,0,0,3,,,,,,,,,2,,,55,0
468720,note_on,480,0,1,,,,,,,,,0,,,75,35
468720,note_on,84,0,3,,,,,,,,,2,,,51,34
468720,note_on,0,0,3,,,,,,,,,2,,,46,34
468876,note_off,156,0,1,,,,,,,,,0,,,75,0
468876,note_off,0,0,3,,,,,,,,,2,,,51,0
468876,note_off,156,0,3,,,,,,,,,2,,,46,0
468960,note_on,0,0,3,,,,,,,,,2,,,51,34
468960,note_on,84,0,1,,,,,,,,,0,,,70,36
468960,note_on,84,0,3,,,,,,,,,2,,,55,34
469116,note_off,0,0,3,,,,,,,,,2,,,55,0
469116,note_off,156,0,3,,,,,,,,,2,,,51,0
469200,note_off,240,0,1,,,,,,,,,0,,,70,0
469200,note_on,84,0,3,,,,,,,,,2,,,51,35
469200,note_on,0,0,3,,,,,,,,,2,,,46,35
469356,note_off,156,0,3,,,,,,,,,2,,,46,0
469356,note_off,0,0,3,,,,,,,,,2,,,51,0
469440,note_on,84,0,3,,,,,,,,,2,,,55,35
469440,note_on,0,0,3,,,,,,,,,2,,,51,35
469596,note_off,156,0,3,,,,,,,,,2,,,51,0
469596,note_off,0,0,3,,,,,,,,,2,,,55,0
469680,note_on,84,0,3,,,,,,,,,2,,,51,36
469680,note_on,0,0,3,,,,,,,,,2,,,46,36
469680,note_on,480,0,1,,,,,,,,,0,,,79,37
469836,note_off,0,0,3,,,,,,,,,2,,,51,0
469836,note_off,156,0,1,,,,,,,,,0,,,79,0
469836,note_off,156,0,3,,,,,,,,,2,,,46,0
469920,note_on,84,0,1,,,,,,,,,0,,,74,38
469920,note_on,84,0,3,,,,,,,,,2,,,53,36
469920,note_on,0,0,3,,,,,,,,,2,,,56,36
470076,note_off,156,0,3,,,,,,,,,2,,,56,0
470076,note_off,0,0,3,,,,,,,,,2,,,53,0
470160,note_on,0,0,1,,,,,,,,,0,,,80,39
470160,note_off,240,0,1,,,,,,,,,0,,,74,0
470160,note_on,0,0,3,,,,,,,,,2,,,46,36
470160,note_on,84,0,3,,,,,,,,,2,,,53,36
470316,note_off,0,0,3,,,,,,,,,2,,,53,0
470316,note_off,156,0,3,,,,,,,,,2,,,46,0
470316,note_off,156,0,1,,,,,,,,,0,,,80,0
470400,note_on,0,0,3,,,,,,,,,2,,,53,37
470400,note_on,84,0,3,,,,,,,,,2,,,56,37
470400,note_on,84,0,1,,,,,,,,,0,,,77,39
470556,note_off,156,0,3,,,,,,,,,2,,,53,0
470556,note_off,0,0,3,,,,,,,,,2,,,56,0
470556,note_off,156,0,1,,,,,,,,,0,,,77,0
470640,note_on,0,0,3,,,,,,,,,2,,,46,37
470640,note_on,84,0,3,,,,,,,,,2,,,53,37
470640,note_on,84,0,1,,,,,,,,,0,,,74,40
470760,set_tempo,3720,1,0,,,,,,309278,,,,,,,
470784,note_off,3744,0,4,,,,,,,,,3,,,39,0
470796,note_off,0,0,3,,,,,,,,,2,,,53,0
470796,note_off,156,0,3,,,,,,,,,2,,,46,0
470796,note_off,156,0,1,,,,,,,,,0,,,74,0
470880,note_on,84,0,1,,,,,,,,,0,,,75,40
470880,set_tempo,120,1,0,,,,,,306122,,,,,,,
470880,note_on,96,0,4,,,,,,,,,3,,,39,53
471120,note_off,240,0,1,,,,,,,,,0,,,75,0
471120,note_on,324,0,3,,,,,,,,,2,,,46,38
471120,note_on,0,0,3,,,,,,,,,2,,,51,38
471276,note_off,156,0,3,,,,,,,,,2,,,51,0
471276,note_off,0,0,3,,,,,,,,,2,,,46,0
471360,note_on,84,0,3,,,,,,,,,2,,,55,38
471360,note_on,0,0,3,,,,,,,,,2,,,51,38
471516,note_off,156,0,3,,,,,,,,,2,,,51,0
471516,note_off,0,0,3,,,,,,,,,2,,,55,0
471600,note_on,480,0,1,,,,,,,,,0,,,70,42
471600,note_on,0,0,3,,,,,,,,,2,,,51,39
471600,note_on,84,0,3,,,,,,,,,2,,,46,39
471756,note_off,156,0,1,,,,,,,,,0,,,70,0
471756,note_off,156,0,3,,,,,,,,,2,,,51,0
471756,note_off,0,0,3,,,,,,,,,2,,,46,0
471840,note_on,84,0,1,,,,,,,,,0,,,67,42
471840,note_on,84,0,3,,,,,,,,,2,,,55,39
471840,note_on,0,0,3,,,,,,,,,2,,,51,39
471996,note_off,0,0,3,,,,,,,,,2,,,55,0
471996,note_off,156,0,3,,,,,,,,,2,,,51,0
472080,note_off,240,0,1,,,,,,,,,0,,,67,0
472080,note_on,0,0,3,,,,,,,,,2,,,51,39
472080,note_on,84,0,3,,,,,,,,,2,,,46,39
472236,note_off,156,0,3,,,,,,,,,2,,,51,0
472236,note_off,0,0,3,,,,,,,,,2,,,46,0
472320,note_on,84,0,3,,,,,,,,,2,,,55,40
472320,note_on,0,0,3,,,,,,,,,2,,,51,40
472476,note_off,156,0,3,,,,,,,,,2,,,51,0
472476,note_off,0,0,3,,,,,,,,,2,,,55,0
472560,note_on,480,0,1,,,,,,,,,0,,,75,44
472560,note_on,0,0,3,,,,,,,,,2,,,46,40
472560,note_on,84,0,3,,,,,,,,,2,,,51,40
472716,note_off,156,0,1,,,,,,,,,0,,,75,0
472716,note_off,0,0,3,,,,,,,,,2,,,51,0
472716,note_off,156,0,3,,,,,,,,,2,,,46,0
472800,note_on,84,0,1,,,,,,,,,0,,,70,45
472800,note_on,84,0,3,,,,,,,,,2,,,55,41
472800,note_on,0,0,3,,,,,,,,,2,,,51,41
472956,note_off,156,0,3,,,,,,,,,2,,,51,0
472956,note_off,0,0,3,,,,,,,,,2,,,55,0
473040,note_off,240,0,1,,,,,,,,,0,,,70,0
473040,note_on,84,0,3,,,,,,,,,2,,,51,41
473040,note_on,0,0,3,,,,,,,,,2,,,46,41
473196,note_off,156,0,3,,,,,,,,,2,,,46,0
473196,note_off,0,0,3,,,,,,,,,2,,,51,0
473280,note_on,84,0,3,,,,,,,,,2,,,55,41
473280,note_on,0,0,3,,,,,,,,,2,,,51,41
473436,note_off,156,0,3,,,,,,,,,2,,,51,0
473436,note_off,0,0,3,,,,,,,,,2,,,55,0
473520,note_on,480,0,1,,,,,,,,,0,,,79,46
473520,note_on,0,0,3,,,,,,,,,2,,,46,42
473520,note_on,84,0,3,,,,,,,,,2,,,51,42
473676,note_off,156,0,3,,,,,,,,,2,,,46,0
473676,note_off,156,0,1,,,,,,,,,0,,,79,0
473676,note_off,0,0,3,,,,,,,,,2,,,51,0
473760,note_on,84,0,1,,,,,,,,,0,,,74,47
473760,note_on,0,0,3,,,,,,,,,2,,,53,42
473760,note_on,84,0,3,,,,,,,,,2,,,56,42
473916,note_off,156,0,3,,,,,,,,,2,,,53,0
473916,note_off,0,0,3,,,,,,,,,2,,,56,0
474000,note_on,0,0,1,,,,,,,,,0,,,80,47
474000,note_off,240,0,1,,,,,,,,,0,,,74,0
474000,note_on,0,0,3,,,,,,,,,2,,,46,43
474000,note_on,84,0,3,,,,,,,,,2,,,53,43
474156,note_off,156,0,1,,,,,,,,,0,,,80,0
474156,note_off,0,0,3,,,,,,,,,2,,,53,0
474156,note_off,156,0,3,,,,,,,,,2,,,46,0
474240,note_on,84,0,1,,,,,,,,,0,,,77,48
474240,note_on,0,0,3,,,,,,,,,2,,,56,43
474240,note_on,84,0,3,,,,,,,,,2,,,53,43
474396,note_off,156,0,1,,,,,,,,,0,,,77,0
474396,note_off,0,0,3,,,,,,,,,2,,,53,0
474396,note_off,156,0,3,,,,,,,,,2,,,56,0
474480,note_on,0,0,3,,,,,,,,,2,,,46,43
474480,note_on,84,0,3,,,,,,,,,2,,,53,43
474480,note_on,84,0,1,,,,,,,,,0,,,74,48
474600,set_tempo,3720,1,0,,,,,,309278,,,,,,,
474624,note_off,3744,0,4,,,,,,,,,3,,,39,0
474636,note_off,156,0,3,,,,,,,,,2,,,46,0
474636,note_off,0,0,3,,,,,,,,,2,,,53,0
474636,note_off,156,0,1,,,,,,,,,0,,,74,0
474720,set_tempo,120,1,0,,,,,,306122,,,,,,,
474720,note_on,96,0,4,,,,,,,,,3,,,39,56
474720,note_on,84,0,1,,,,,,,,,0,,,75,49
474960,note_on,324,0,3,,,,,,,,,2,,,46,44
474960,note_on,0,0,3,,,,,,,,,2,,,51,44
474960,note_off,240,0,1,,,,,,,,,0,,,75,0
475116,note_off,156,0,3,,,,,,,,,2,,,51,0
475116,note_off,0,0,3,,,,,,,,,2,,,46,0
475200,note_on,84,0,3,,,,,,,,,2,,,51,44
475200,note_on,0,0,3,,,,,,,,,2,,,55,44
475356,note_off,156,0,3,,,,,,,,,2,,,55,0
475356,note_off,0,0,3,,,,,,,,,2,,,51,0
475440,note_on,0,0,3,,,,,,,,,2,,,51,45
475440,note_on,84,0,3,,,,,,,,,2,,,46,45
475440,note_on,480,0,1,,,,,,,,,0,,,87,51
475596,note_off,0,0,3,,,,,,,,,2,,,46,0
475596,note_off,156,0,1,,,,,,,,,0,,,87,0
475596,note_off,156,0,3,,,,,,,,,2,,,51,0
475680,note_on,0,0,3,,,,,,,,,2,,,56,45
475680,note_on,84,0,1,,,,,,,,,0,,,86,51
475680,note_on,84,0,3,,,,,,,,,2,,,53,45
475836,note_off,0,0,3,,,,,,,,,2,,,53,0
475836,note_off,156,0,3,,,,,,,,,2,,,56,0
475920,note_on,84,0,3,,,,,,,,,2,,,53,46
475920,note_on,0,0,3,,,,,,,,,2,,,46,46
475920,note_off,240,0,1,,,,,,,,,0,,,86,0
475920,note_on,0,0,1,,,,,,,,,0,,,89,52
476076,note_off,156,0,3,,,,,,,,,2,,,46,0
476076,note_off,0,0,3,,,,,,,,,2,,,53,0
476076,note_off,156,0,1,,,,,,,,,0,,,89,0
476160,note_on,84,0,1,,,,,,,,,0,,,86,52
476160,note_on,84,0,3,,,,,,,,,2,,,56,46
476160,note_on,0,0,3,,,,,,,,,2,,,53,46
476316,note_off,156,0,3,,,,,,,,,2,,,53,0
476316,note_off,0,0,3,,,,,,,,,2,,,56,0
476316,note_off,156,0,1,,,,,,,,,0,,,86,0
476400,note_on,84,0,3,,,,,,,,,2,,,53,46
476400,note_on,84,0,1,,,,,,,,,0,,,89,53
476400,note_on,0,0,3,,,,,,,,,2,,,46,46
476520,set_tempo,1800,1,0,,,,,,309278,,,,,,,
476553,note_off,1833,0,4,,,,,,,,,3,,,39,0
476556,note_off,156,0,1,,,,,,,,,0,,,89,0
476556,note_off,0,0,3,,,,,,,,,2,,,53,0
476556,note_off,156,0,3,,,,,,,,,2,,,46,0
476640,set_tempo,120,1,0,,,,,,306122,,,,,,,
476640,note_on,87,0,4,,,,,,,,,3,,,39,62
476640,note_on,84,0,1,,,,,,,,,0,,,87,55
476880,note_on,324,0,3,,,,,,,,,2,,,46,49
476880,note_on,0,0,3,,,,,,,,,2,,,51,49
476880,note_off,240,0,1,,,,,,,,,0,,,87,0
477036,note_off,0,0,3,,,,,,,,,2,,,46,0
477036,note_off,156,0,3,,,,,,,,,2,,,51,0
477120,note_on,0,0,3,,,,,,,,,2,,,55,49
477120,note_on,84,0,3,,,,,,,,,2,,,51,49
477276,note_off,156,0,3,,,,,,,,,2,,,55,0
477276,note_off,0,0,3,,,,,,,,,2,,,51,0
477360,note_on,0,0,3,,,,,,,,,2,,,46,49
477360,note_on,84,0,3,,,,,,,,,2,,,51,49
477360,note_on,480,0,1,,,,,,,,,0,,,79,54
477516,note_off,156,0,3,,,,,,,,,2,,,46,0
477516,note_off,0,0,3,,,,,,,,,2,,,51,0
477516,note_off,156,0,1,,,,,,,,,0,,,79,0
477600,note_on,0,0,3,,,,,,,,,2,,,56,48
477600,note_on,84,0,1,,,,,,,,,0,,,74,54
477600,note_on,84,0,3,,,,,,,,,2,,,53,48
477756,note_off,0,0,3,,,,,,,,,2,,,53,0
477756,note_off,156,0,3,,,,,,,,,2,,,56,0
477840,note_on,84,0,3,,,,,,,,,2,,,53,48
477840,note_on,0,0,3,,,,,,,,,2,,,46,48
477840,note_off,240,0,1,,,,,,,,,0,,,74,0
477840,note_on,0,0,1,,,,,,,,,0,,,80,53
477996,note_off,156,0,1,,,,,,,,,0,,,80,0
477996,note_off,0,0,3,,,,,,,,,2,,,53,0
477996,note_off,156,0,3,,,,,,,,,2,,,46,0
478080,note_on,84,0,3,,,,,,,,,2,,,53,48
478080,note_on,0,0,3,,,,,,,,,2,,,56,48
478080,note_on,84,0,1,,,,,,,,,0,,,77,53
478236,note_off,156,0,1,,,,,,,,,0,,,77,0
478236,note_off,0,0,3,,,,,,,,,2,,,53,0
478236,note_off,156,0,3,,,,,,,,,2,,,56,0
478320,note_on,0,0,3,,,,,,,,,2,,,46,47
478320,note_on,84,0,1,,,,,,,,,0,,,74,52
478320,note_on,84,0,3,,,,,,,,,2,,,53,47
478440,set_tempo,1800,1,0,,,,,,309278,,,,,,,
478473,note_off,1833,0,4,,,,,,,,,3,,,39,0
478476,note_off,0,0,3,,,,,,,,,2,,,53,0
478476,note_off,156,0,3,,,,,,,,,2,,,46,0
478476,note_off,156,0,1,,,,,,,,,0,,,74,0
478560,note_on,84,0,3,,,,,,,,,2,,,55,47
478560,set_tempo,120,1,0,,,,,,306122,,,,,,,
478560,note_on,87,0,4,,,,,,,,,3,,,51,47
478560,note_on,84,0,1,,,,,,,,,0,,,75,52
478716,note_off,156,0,1,,,,,,,,,0,,,75,0
478800,note_on,84,0,1,,,,,,,,,0,,,79,51
478956,note_off,156,0,1,,,,,,,,,0,,,79,0
479040,note_off,480,0,3,,,,,,,,,2,,,55,0
479040,note_off,480,0,4,,,,,,,,,3,,,51,0
479040,note_on,84,0,1,,,,,,,,,0,,,70,51
479196,note_off,156,0,1,,,,,,,,,0,,,70,0
479280,note_on,84,0,1,,,,,,,,,0,,,75,50
479436,note_off,156,0,1,,,,,,,,,0,,,75,0
479520,note_on,84,0,1,,,,,,,,,0,,,67,50
479676,note_off,156,0,1,,,,,,,,,0,,,67,0
479760,note_on,84,0,1,,,,,,,,,0,,,70,49
479916,note_off,156,0,1,,,,,,,,,0,,,70,0
480000,note_on,84,0,1,,,,,,,,,0,,,68,49
480156,note_off,156,0,1,,,,,,,,,0,,,68,0
480240,note_on,84,0,1,,,,,,,,,0,,,65,49
480360,set_tempo,1800,1,0,,,,,,309278,,,,,,,
480396,note_off,156,0,1,,,,,,,,,0,,,65,0
480480,note_on,1440,0,4,,,,,,,,,3,,,51,44
480480,set_tempo,120,1,0,,,,,,306122,,,,,,,
480480,note_on,84,0,1,,,,,,,,,0,,,63,48
480636,note_off,156,0,1,,,,,,,,,0,,,63,0
480636,note_off,156,0,4,,,,,,,,,3,,,51,0
480720,note_on,84,0,1,,,,,,,,,0,,,67,48
480720,note_on,84,0,4,,,,,,,,,3,,,55,44
480876,note_off,156,0,1,,,,,,,,,0,,,67,0
480876,note_off,156,0,4,,,,,,,,,3,,,55,0
480960,note_on,84,0,1,,,,,,,,,0,,,58,47
480960,note_on,84,0,4,,,,,,,,,3,,,46,44
481116,note_off,156,0,4,,,,,,,,,3,,,46,0
481116,note_off,156,0,1,,,,,,,,,0,,,58,0
481200,note_on,84,0,1,,,,,,,,,0,,,63,47
481200,note_on,84,0,4,,,,,,,,,3,,,51,43
481356,note_off,156,0,1,,,,,,,,,0,,,63,0
481356,note_off,156,0,4,,,,,,,,,3,,,51,0
481440,note_on,84,0,4,,,,,,,,,3,,,43,43
481440,note_on,84,0,1,,,,,,,,,0,,,55,46
481596,note_off,156,0,1,,,,,,,,,0,,,55,0
481596,note_off,156,0,4,,,,,,,,,3,,,43,0
481680,note_on,84,0,1,,,,,,,,,0,,,58,46
481680,note_on,84,0,4,,,,,,,,,3,,,46,43
481836,note_off,156,0,4,,,,,,,,,3,,,46,0
481836,note_off,156,0,1,,,,,,,,,0,,,58,0
481920,note_on,84,0,1,,,,,,,,,0,,,56,45
481920,note_on,84,0,4,,,,,,,,,3,,,44,42
482076,note_off,156,0,4,,,,,,,,,3,,,44,0
482076,note_off,156,0,1,,,,,,,,,0,,,56,0
482160,note_on,84,0,1,,,,,,,,,0,,,53,45
482160,note_on,84,0,4,,,,,,,,,3,,,41,42
482280,set_tempo,1800,1,0,,,,,,309278,,,,,,,
482316,note_off,156,0,1,,,,,,,,,0,,,53,0
482316,note_off,156,0,4,,,,,,,,,3,,,41,0
482400,note_on,84,0,1,,,,,,,,,0,,,51,43
482400,set_tempo,120,1,0,,,,,,306122,,,,,,,
482400,note_on,84,0,4,,,,,,,,,3,,,39,43
482556,note_off,156,0,1,,,,,,,,,0,,,51,0
482640,note_on,84,0,1,,,,,,,,,0,,,55,43
482796,note_off,156,0,1,,,,,,,,,0,,,55,0
482880,note_on,84,0,1,,,,,,,,,0,,,46,42
482880,note_off,480,0,4,,,,,,,,,3,,,39,0
483036,note_off,156,0,1,,,,,,,,,0,,,46,0
483120,note_on,84,0,1,,,,,,,,,0,,,51,42
483276,note_off,156,0,1,,,,,,,,,0,,,51,0
483360,note_on,480,0,4,,,,,,,,,3,,,39,40
483600,note_on,324,0,1,,,,,,,,,0,,,46,41
483756,note_off,156,0,1,,,,,,,,,0,,,46,0
483840,note_on,84,0,1,,,,,,,,,0,,,43,40
483840,note_off,480,0,4,,,,,,,,,3,,,39,0
483996,note_off,156,0,1,,,,,,,,,0,,,43,0
484080,note_on,84,0,1,,,,,,,,,0,,,46,40
484236,note_off,156,0,1,,,,,,,,,0,,,46,0
484320,note_on,480,0,4,,,,,,,,,3,,,39,37
484560,note_on,324,0,1,,,,,,,,,0,,,46,39
484716,note_off,156,0,1,,,,,,,,,0,,,46,0
484800,note_off,480,0,4,,,,,,,,,3,,,39,0
484800,note_on,84,0,1,,,,,,,,,0,,,43,38
484956,note_off,156,0,1,,,,,,,,,0,,,43,0
485040,note_on,84,0,1,,,,,,,,,0,,,46,38
485196,note_off,156,0,1,,,,,,,,,0,,,46,0
485280,note_on,480,0,4,,,,,,,,,3,,,39,35
485520,note_on,324,0,1,,,,,,,,,0,,,46,37
485676,note_off,156,0,1,,,,,,,,,0,,,46,0
485760,note_off,480,0,4,,,,,,,,,3,,,39,0
485760,note_on,84,0,1,,,,,,,,,0,,,43,36
485916,note_off,156,0,1,,,,,,,,,0,,,43,0
486000,note_on,84,0,1,,,,,,,,,0,,,46,36
486120,set_tempo,3720,1,0,,,,,,309278,,,,,,,
486156,note_off,156,0,1,,,,,,,,,0,,,46,0
486240,note_on,480,0,4,,,,,,,,,3,,,39,38
486240,set_tempo,120,1,0,,,,,,306122,,,,,,,
486480,note_on,324,0,1,,,,,,,,,0,,,47,40
486636,note_off,156,0,1,,,,,,,,,0,,,47,0
486720,note_on,84,0,1,,,,,,,,,0,,,43,41
486720,note_off,480,0,4,,,,,,,,,3,,,39,0
486876,note_off,156,0,1,,,,,,,,,0,,,43,0
486960,note_on,84,0,1,,,,,,,,,0,,,47,43
487116,note_off,156,0,1,,,,,,,,,0,,,47,0
487200,note_on,480,0,4,,,,,,,,,3,,,39,45
487440,note_on,324,0,1,,,,,,,,,0,,,47,46
487596,note_off,156,0,1,,,,,,,,,0,,,47,0
487680,note_on,84,0,1,,,,,,,,,0,,,43,48
487680,note_off,480,0,4,,,,,,,,,3,,,39,0
487836,note_off,156,0,1,,,,,,,,,0,,,43,0
487920,note_on,84,0,1,,,,,,,,,0,,,47,50
488076,note_off,156,0,1,,,,,,,,,0,,,47,0
488160,note_on,480,0,4,,,,,,,,,3,,,39,52
488400,note_on,324,0,1,,,,,,,,,0,,,47,53
488556,note_off,156,0,1,,,,,,,,,0,,,47,0
488640,note_off,480,0,4,,,,,,,,,3,,,39,0
488640,note_on,84,0,1,,,,,,,,,0,,,43,55
488796,note_off,156,0,1,,,,,,,,,0,,,43,0
488880,note_on,84,0,1,,,,,,,,,0,,,47,56
489036,note_off,156,0,1,,,,,,,,,0,,,47,0
489120,note_on,480,0,4,,,,,,,,,3,,,39,59
489360,note_on,324,0,1,,,,,,,,,0,,,47,59
489516,note_off,156,0,1,,,,,,,,,0,,,47,0
489600,note_on,84,0,1,,,,,,,,,0,,,43,61
489600,note_off,480,0,4,,,,,,,,,3,,,39,0
489756,note_off,156,0,1,,,,,,,,,0,,,43,0
489840,note_on,84,0,1,,,,,,,,,0,,,47,63
489960,set_tempo,3720,1,0,,,,,,309278,,,,,,,
489996,note_off,156,0,1,,,,,,,,,0,,,47,0
490080,set_tempo,120,1,0,,,,,,306122,,,,,,,
490080,note_on,480,0,4,,,,,,,,,3,,,40,57
490320,note_on,324,0,1,,,,,,,,,0,,,48,58
490476,note_off,156,0,1,,,,,,,,,0,,,48,0
490560,note_on,84,0,1,,,,,,,,,0,,,43,56
490560,note_off,480,0,4,,,,,,,,,3,,,40,0
490716,note_off,156,0,1,,,,,,,,,0,,,43,0
490800,note_on,84,0,1,,,,,,,,,0,,,48,54
490956,note_off,156,0,1,,,,,,,,,0,,,48,0
491040,note_on,480,0,4,,,,,,,,,3,,,40,52
491280,note_on,324,0,1,,,,,,,,,0,,,48,51
491436,note_off,156,0,1,,,,,,,,,0,,,48,0
491520,note_off,480,0,4,,,,,,,,,3,,,40,0
491520,note_on,84,0,1,,,,,,,,,0,,,43,50
491676,note_off,156,0,1,,,,,,,,,0,,,43,0
491760,note_on,84,0,1,,,,,,,,,0,,,48,48
491880,set_tempo,1800,1,0,,,,,,309278,,,,,,,
491916,note_off,156,0,1,,,,,,,,,0,,,48,0
492000,note_on,480,0,4,,,,,,,,,3,,,40,46
492000,set_tempo,120,1,0,,,,,,306122,,,,,,,
492240,note_on,324,0,1,,,,,,,,,0,,,48,45
492396,note_off,156,0,1,,,,,,,,,0,,,48,0
492480,note_on,84,0,1,,,,,,,,,0,,,43,44
492480,note_off,480,0,4,,,,,,,,,3,,,40,0
492636,note_off,156,0,1,,,,,,,,,0,,,43,0
492720,note_on,84,0,1,,,,,,,,,0,,,48,42
492876,note_off,156,0,1,,,,,,,,,0,,,48,0
492960,note_on,480,0,4,,,,,,,,,3,,,40,41
493200,note_on,324,0,1,,,,,,,,,0,,,48,39
493356,note_off,156,0,1,,,,,,,,,0,,,48,0
493410,set_tempo,1410,1,0,,,,,,309278,,,,,,,
493440,note_off,480,0,4,,,,,,,,,3,,,40,0
493440,note_on,84,0,1,,,,,,,,,0,,,43,38
493596,note_off,156,0,1,,,,,,,,,0,,,43,0
493680,note_on,84,0,1,,,,,,,,,0,,,48,36
493680,set_tempo,270,1,0,,,,,,324324,,,,,,,
493836,note_off,156,0,1,,,,,,,,,0,,,48,0
493920,note_on,84,0,1,,,,,,,,,0,,,69,54
493920,note_on,0,0,2,,,,,,,,,1,,,60,54
493920,note_on,40440,0,2,,,,,,,,,1,,,65,54
493920,set_tempo,240,1,0,,,,,,306122,,,,,,,
494160,note_on,720,0,4,,,,,,,,,3,,,41,44
494316,note_off,156,0,4,,,,,,,,,3,,,41,0
494400,note_on,84,0,4,,,,,,,,,3,,,45,44
494556,note_off,156,0,4,,,,,,,,,3,,,45,0
494640,note_on,84,0,4,,,,,,,,,3,,,48,45
494796,note_off,156,0,4,,,,,,,,,3,,,48,0
494880,note_on,84,0,4,,,,,,,,,3,,,53,46
495036,note_off,156,0,4,,,,,,,,,3,,,53,0
495120,note_on,84,0,4,,,,,,,,,3,,,41,46
495276,note_off,156,0,4,,,,,,,,,3,,,41,0
495360,note_on,0,0,1,,,,,,,,,0,,,70,62
495360,note_on,84,0,4,,,,,,,,,3,,,43,55
495360,note_off,1440,0,1,,,,,,,,,0,,,69,0
495360,note_on,0,0,2,,,,,,,,,1,,,60,62
495360,note_off,1440,0,2,,,,,,,,,1,,,60,0
495360,note_on,0,0,2,,,,,,,,,1,,,64,62
495360,note_off,0,0,2,,,,,,,,,1,,,65,0
495516,note_off,156,0,4,,,,,,,,,3,,,43,0
495600,note_on,84,0,4,,,,,,,,,3,,,55,51
495720,note_off,360,0,2,,,,,,,,,1,,,64,0
495720,set_tempo,1800,1,0,,,,,,312500,,,,,,,
495727,note_off,7,0,2,,,,,,,,,1,,,60,0
495727,note_off,367,0,1,,,,,,,,,0,,,70,0
495756,note_off,156,0,4,,,,,,,,,3,,,55,0
495840,note_on,113,0,2,,,,,,,,,1,,,65,59
495840,note_on,0,0,2,,,,,,,,,1,,,60,59
495840,note_on,113,0,1,,,,,,,,,0,,,72,59
495840,set_tempo,120,1,0,,,,,,306122,,,,,,,
496080,note_on,324,0,4,,,,,,,,,3,,,45,49
496236,note_off,156,0,4,,,,,,,,,3,,,45,0
496320,note_on,84,0,4,,,,,,,,,3,,,48,49
496476,note_off,156,0,4,,,,,,,,,3,,,48,0
496560,note_on,84,0,4,,,,,,,,,3,,,53,50
496716,note_off,156,0,4,,,,,,,,,3,,,53,0
496800,note_on,84,0,4,,,,,,,,,3,,,57,50
496956,note_off,156,0,4,,,,,,,,,3,,,57,0
497040,note_on,84,0,4,,,,,,,,,3,,,45,51
497196,note_off,156,0,4,,,,,,,,,3,,,45,0
497280,note_off,0,0,2,,,,,,,,,1,,,65,0
497280,note_on,0,0,2,,,,,,,,,1,,,62,76
497280,note_on,84,0,4,,,,,,,,,3,,,46,61
497280,note_off,1440,0,1,,,,,,,,,0,,,72,0
497280,note_on,0,0,1,,,,,,,,,0,,,74,76
497280,note_off,1440,0,2,,,,,,,,,1,,,60,0
497436,note_off,156,0,4,,,,,,,,,3,,,46,0
497520,note_on,84,0,4,,,,,,,,,3,,,58,58
497632,note_off,352,0,1,,,,,,,,,0,,,74,0
497640,set_tempo,1800,1,0,,,,,,312500,,,,,,,
497676,note_off,156,0,4,,,,,,,,,3,,,58,0
497760,note_on,128,0,1,,,,,,,,,0,,,70,71
497760,note_on,84,0,4,,,,,,,,,3,,,43,59
497760,set_tempo,120,1,0,,,,,,306122,,,,,,,
497916,note_off,156,0,4,,,,,,,,,3,,,43,0
498000,note_on,84,0,4,,,,,,,,,3,,,55,56
498156,note_off,156,0,4,,,,,,,,,3,,,55,0
498240,note_off,480,0,1,,,,,,,,,0,,,70,0
498240,note_on,0,0,1,,,,,,,,,0,,,72,66
498240,note_on,84,0,4,,,,,,,,,3,,,40,54
498240,note_on,0,0,2,,,,,,,,,1,,,67,62
498240,note_off,960,0,2,,,,,,,,,1,,,62,0
498396,note_off,156,0,1,,,,,,,,,0,,,72,0
498396,note_off,156,0,4,,,,,,,,,3,,,40,0
498396,note_off,156,0,2,,,,,,,,,1,,,67,0
498480,note_on,84,0,4,,,,,,,,,3,,,52,53
498636,note_off,156,0,4,,,,,,,,,3,,,52,0
498720,note_on,324,0,1,,,,,,,,,0,,,69,62
498720,note_on,324,0,2,,,,,,,,,1,,,60,58
498720,note_on,84,0,4,,,,,,,,,3,,,41,52
498876,note_off,156,0,2,,,,,,,,,1,,,60,0
498876,note_off,156,0,1,,,,,,,,,0,,,69,0
498876,note_off,156,0,4,,,,,,,,,3,,,41,0
498960,note_on,84,0,4,,,,,,,,,3,,,53,52
499116,note_off,156,0,4,,,,,,,,,3,,,53,0
499200,note_on,324,0,1,,,,,,,,,0,,,65,58
499200,note_on,324,0,2,,,,,,,,,1,,,60,55
499200,note_on,84,0,4,,,,,,,,,3,,,45,51
499356,note_off,156,0,2,,,,,,,,,1,,,60,0
499356,note_off,156,0,1,,,,,,,,,0,,,65,0
499356,note_off,156,0,4,,,,,,,,,3,,,45,0
499440,note_on,84,0,4,,,,,,,,,3,,,57,50
499560,set_tempo,1800,1,0,,,,,,309278,,,,,,,
499596,note_off,156,0,4,,,,,,,,,3,,,57,0
499680,note_on,84,0,4,,,,,,,,,3,,,48,50
499680,set_tempo,120,1,0,,,,,,306122,,,,,,,
499680,note_on,324,0,1,,,,,,,,,0,,,67,60
499680,note_on,324,0,2,,,,,,,,,1,,,64,60
499836,note_off,156,0,4,,,,,,,,,3,,,48,0
499920,note_on,84,0,4,,,,,,,,,3,,,60,59
500076,note_off,156,0,4,,,,,,,,,3,,,60,0
500160,note_on,84,0,4,,,,,,,,,3,,,60,58
500316,note_off,156,0,4,,,,,,,,,3,,,60,0
500400,note_on,84,0,4,,,,,,,,,3,,,60,56
500556,note_off,156,0,4,,,,,,,,,3,,,60,0
500640,note_on,84,0,4,,,,,,,,,3,,,60,54
500796,note_off,156,0,4,,,,,,,,,3,,,60,0
500880,note_off,1200,0,2,,,,,,,,,1,,,64,0
500880,note_off,1200,0,1,,,,,,,,,0,,,67,0
500880,note_on,0,0,1,,,,,,,,,0,,,64,52
500880,note_on,0,0,2,,,,,,,,,1,,,60,52
500880,note_on,84,0,4,,,,,,,,,3,,,58,53
501036,note_off,156,0,1,,,,,,,,,0,,,64,0
501036,note_off,156,0,2,,,,,,,,,1,,,60,0
501036,note_off,156,0,4,,,,,,,,,3,,,58,0
501120,note_on,84,0,2,,,,,,,,,1,,,62,51
501120,note_on,84,0,1,,,,,,,,,0,,,65,51
501120,note_on,84,0,4,,,,,,,,,3,,,57,51
501276,note_off,156,0,2,,,,,,,,,1,,,62,0
501276,note_off,156,0,4,,,,,,,,,3,,,57,0
501276,note_off,156,0,1,,,,,,,,,0,,,65,0
501360,note_on,84,0,2,,,,,,,,,1,,,64,51
501360,note_on,84,0,4,,,,,,,,,3,,,55,50
501360,note_on,84,0,1,,,,,,,,,0,,,67,51
501510,set_tempo,1830,1,0,,,,,,309278,,,,,,,
501516,note_off,156,0,2,,,,,,,,,1,,,64,0
501516,note_off,156,0,4,,,,,,,,,3,,,55,0
501516,note_off,156,0,1,,,,,,,,,0,,,67,0
501600,note_on,84,0,1,,,,,,,,,0,,,69,58
501600,note_on,0,0,2,,,,,,,,,1,,,65,58
501600,note_on,84,0,4,,,,,,,,,3,,,53,48
501600,set_tempo,90,1,0,,,,,,306122,,,,,,,
501600,note_on,84,0,2,,,,,,,,,1,,,60,58
501756,note_off,156,0,4,,,,,,,,,3,,,53,0
501840,note_on,84,0,4,,,,,,,,,3,,,41,47
501996,note_off,156,0,4,,,,,,,,,3,,,41,0
502080,note_on,84,0,4,,,,,,,,,3,,,45,48
502236,note_off,156,0,4,,,,,,,,,3,,,45,0
502320,note_on,84,0,4,,,,,,,,,3,,,48,49
502476,note_off,156,0,4,,,,,,,,,3,,,48,0
502560,note_on,84,0,4,,,,,,,,,3,,,53,49
502716,note_off,156,0,4,,,,,,,,,3,,,53,0
502800,note_on,84,0,4,,,,,,,,,3,,,41,50
502920,note_off,1320,0,2,,,,,,,,,1,,,65,0
502927,note_off,7,0,2,,,,,,,,,1,,,60,0
502927,note_off,1327,0,1,,,,,,,,,0,,,69,0
502956,note_off,156,0,4,,,,,,,,,3,,,41,0
503040,note_on,113,0,2,,,,,,,,,1,,,64,70
503040,note_on,113,0,1,,,,,,,,,0,,,70,70
503040,note_on,84,0,4,,,,,,,,,3,,,43,59
503040,note_on,0,0,2,,,,,,,,,1,,,60,70
503196,note_off,156,0,4,,,,,,,,,3,,,43,0
503280,note_on,84,0,4,,,,,,,,,3,,,55,56
503400,set_tempo,1800,1,0,,,,,,312500,,,,,,,
503436,note_off,156,0,4,,,,,,,,,3,,,55,0
503520,set_tempo,120,1,0,,,,,,306122,,,,,,,
503520,note_off,480,0,2,,,,,,,,,1,,,60,0
503520,note_off,0,0,2,,,,,,,,,1,,,64,0
503520,note_on,0,0,2,,,,,,,,,1,,,60,63
503520,note_on,0,0,2,,,,,,,,,1,,,65,63
503520,note_off,480,0,1,,,,,,,,,0,,,70,0
503520,note_on,0,0,1,,,,,,,,,0,,,72,63
503760,note_on,324,0,4,,,,,,,,,3,,,45,54
503916,note_off,156,0,4,,,,,,,,,3,,,45,0
504000,note_on,84,0,4,,,,,,,,,3,,,48,55
504156,note_off,156,0,4,,,,,,,,,3,,,48,0
504240,note_on,84,0,4,,,,,,,,,3,,,53,56
504396,note_off,156,0,4,,,,,,,,,3,,,53,0
504480,note_on,84,0,4,,,,,,,,,3,,,57,57
504636,note_off,156,0,4,,,,,,,,,3,,,57,0
504720,note_on,84,0,4,,,,,,,,,3,,,45,58
504876,note_off,156,0,4,,,,,,,,,3,,,45,0
504960,note_on,0,0,2,,,,,,,,,1,,,62,75
504960,note_off,1440,0,1,,,,,,,,,0,,,72,0
504960,note_off,0,0,2,,,,,,,,,1,,,60,0
504960,note_off,1440,0,2,,,,,,,,,1,,,65,0
504960,note_on,0,0,1,,,,,,,,,0,,,74,75
504960,note_on,84,0,4,,,,,,,,,3,,,46,69
505116,note_off,156,0,4,,,,,,,,,3,,,46,0
505200,note_on,84,0,4,,,,,,,,,3,,,58,66
505305,set_tempo,1785,1,0,,,,,,312500,,,,,,,
505320,note_off,360,0,2,,,,,,,,,1,,,62,0
505327,note_off,367,0,1,,,,,,,,,0,,,74,0
505356,note_off,156,0,4,,,,,,,,,3,,,58,0
505440,note_on,120,0,2,,,,,,,,,1,,,63,46
505440,note_on,113,0,1,,,,,,,,,0,,,75,46
505440,note_on,0,0,4,,,,,,,,,3,,,60,46
505440,note_on,84,0,4,,,,,,,,,3,,,48,46
505632,note_off,192,0,1,,,,,,,,,0,,,75,0
505632,note_off,192,0,2,,,,,,,,,1,,,63,0
505650,set_tempo,345,1,0,,,,,,306122,,,,,,,
505680,note_on,48,0,1,,,,,,,,,0,,,81,48
505836,note_off,156,0,1,,,,,,,,,0,,,81,0
505920,note_off,0,0,4,,,,,,,,,3,,,48,0
505920,note_off,480,0,4,,,,,,,,,3,,,60,0
505920,note_on,84,0,1,,,,,,,,,0,,,84,49
506076,note_off,156,0,1,,,,,,,,,0,,,84,0
506160,note_on,240,0,4,,,,,,,,,3,,,63,49
506160,note_on,0,0,4,,,,,,,,,3,,,66,49
506160,note_on,84,0,1,,,,,,,,,0,,,81,51
506316,note_off,156,0,4,,,,,,,,,3,,,66,0
506316,note_off,0,0,4,,,,,,,,,3,,,63,0
506316,note_off,156,0,1,,,,,,,,,0,,,81,0
506400,note_on,84,0,4,,,,,,,,,3,,,63,50
506400,note_on,0,0,4,,,,,,,,,3,,,66,50
506400,note_on,84,0,1,,,,,,,,,0,,,84,52
506556,note_off,156,0,1,,,,,,,,,0,,,84,0
506640,note_off,240,0,4,,,,,,,,,3,,,66,0
506640,note_off,0,0,4,,,,,,,,,3,,,63,0
506640,note_on,84,0,1,,,,,,,,,0,,,81,53
506796,note_off,156,0,1,,,,,,,,,0,,,81,0
506880,note_on,84,0,1,,,,,,,,,0,,,84,55
507036,note_off,156,0,1,,,,,,,,,0,,,84,0
507120,note_on,0,0,4,,,,,,,,,3,,,63,54
507120,note_on,480,0,4,,,,,,,,,3,,,66,54
507120,note_on,84,0,1,,,,,,,,,0,,,81,56
507276,note_off,0,0,4,,,,,,,,,3,,,66,0
507276,note_off,156,0,4,,,,,,,,,3,,,63,0
507276,note_off,156,0,1,,,,,,,,,0,,,81,0
507360,note_on,84,0,1,,,,,,,,,0,,,84,58
507360,note_on,0,0,4,,,,,,,,,3,,,66,55
507360,note_on,84,0,4,,,,,,,,,3,,,63,55
507516,note_off,156,0,1,,,,,,,,,0,,,84,0
507600,note_off,240,0,4,,,,,,,,,3,,,66,0
507600,note_on,84,0,1,,,,,,,,,0,,,81,59
507600,note_off,0,0,4,,,,,,,,,3,,,63,0
507756,note_off,156,0,1,,,,,,,,,0,,,81,0
507840,note_on,84,0,1,,,,,,,,,0,,,84,61
507996,note_off,156,0,1,,,,,,,,,0,,,84,0
508080,note_on,480,0,4,,,,,,,,,3,,,63,59
508080,note_on,0,0,4,,,,,,,,,3,,,66,59
508080,note_on,84,0,1,,,,,,,,,0,,,81,62
508236,note_off,156,0,4,,,,,,,,,3,,,66,0
508236,note_off,0,0,4,,,,,,,,,3,,,63,0
508236,note_off,156,0,1,,,,,,,,,0,,,81,0
508320,note_on,0,0,4,,,,,,,,,3,,,65,60
508320,note_on,84,0,4,,,,,,,,,3,,,61,60
508320,note_on,84,0,1,,,,,,,,,0,,,82,64
508476,note_off,156,0,1,,,,,,,,,0,,,82,0
508560,note_off,0,0,4,,,,,,,,,3,,,61,0
508560,note_on,84,0,1,,,,,,,,,0,,,77,61
508560,note_off,240,0,4,,,,,,,,,3,,,65,0
508716,note_off,156,0,1,,,,,,,,,0,,,77,0
508800,note_on,84,0,1,,,,,,,,,0,,,73,59
508956,note_off,156,0,1,,,,,,,,,0,,,73,0
509040,note_on,84,0,1,,,,,,,,,0,,,70,57
509040,note_on,0,0,4,,,,,,,,,3,,,53,52
509040,note_on,480,0,4,,,,,,,,,3,,,49,52
509160,set_tempo,3510,1,0,,,,,,309278,,,,,,,
509196,note_off,0,0,4,,,,,,,,,3,,,49,0
509196,note_off,156,0,4,,,,,,,,,3,,,53,0
509196,note_off,156,0,1,,,,,,,,,0,,,70,0
509280,note_on,84,0,1,,,,,,,,,0,,,69,56
509280,note_on,0,0,4,,,,,,,,,3,,,54,50
509280,note_on,84,0,4,,,,,,,,,3,,,48,50
509280,set_tempo,120,1,0,,,,,,306122,,,,,,,
509280,note_on,0,0,4,,,,,,,,,3,,,51,50
509436,note_off,156,0,1,,,,,,,,,0,,,69,0
509520,note_on,84,0,1,,,,,,,,,0,,,81,57
509520,note_off,0,0,4,,,,,,,,,3,,,54,0
509520,note_off,0,0,4,,,,,,,,,3,,,48,0
509520,note_off,240,0,4,,,,,,,,,3,,,51,0
509676,note_off,156,0,1,,,,,,,,,0,,,81,0
509760,note_on,84,0,1,,,,,,,,,0,,,84,58
509916,note_off,156,0,1,,,,,,,,,0,,,84,0
510000,note_on,480,0,4,,,,,,,,,3,,,63,55
510000,note_on,84,0,1,,,,,,,,,0,,,81,60
510000,note_on,0,0,4,,,,,,,,,3,,,66,55
510156,note_off,0,0,4,,,,,,,,,3,,,63,0
510156,note_off,156,0,4,,,,,,,,,3,,,66,0
510156,note_off,156,0,1,,,,,,,,,0,,,81,0
510240,note_on,0,0,4,,,,,,,,,3,,,66,57
510240,note_on,84,0,1,,,,,,,,,0,,,84,61
510240,note_on,84,0,4,,,,,,,,,3,,,63,57
510396,note_off,156,0,1,,,,,,,,,0,,,84,0
510480,note_off,240,0,4,,,,,,,,,3,,,66,0
510480,note_off,0,0,4,,,,,,,,,3,,,63,0
510480,note_on,84,0,1,,,,,,,,,0,,,81,62
510636,note_off,156,0,1,,,,,,,,,0,,,81,0
510720,note_on,84,0,1,,,,,,,,,0,,,84,63
510876,note_off,156,0,1,,,,,,,,,0,,,84,0
510960,note_on,480,0,4,,,,,,,,,3,,,63,60
510960,note_on,0,0,4,,,,,,,,,3,,,66,60
510960,note_on,84,0,1,,,,,,,,,0,,,81,64
511116,note_off,156,0,4,,,,,,,,,3,,,66,0
511116,note_off,156,0,1,,,,,,,,,0,,,81,0
511116,note_off,0,0,4,,,,,,,,,3,,,63,0
511200,note_on,84,0,1,,,,,,,,,0,,,84,66
511200,note_on,0,0,4,,,,,,,,,3,,,66,62
511200,note_on,84,0,4,,,,,,,,,3,,,63,62
511356,note_off,156,0,1,,,,,,,,,0,,,84,0
511440,note_off,240,0,4,,,,,,,,,3,,,66,0
511440,note_on,84,0,1,,,,,,,,,0,,,81,67
511440,note_off,0,0,4,,,,,,,,,3,,,63,0
511596,note_off,156,0,1,,,,,,,,,0,,,81,0
511680,note_on,84,0,1,,,,,,,,,0,,,84,68
511836,note_off,156,0,1,,,,,,,,,0,,,84,0
511920,note_on,84,0,1,,,,,,,,,0,,,81,69
511920,note_on,480,0,4,,,,,,,,,3,,,63,66
511920,note_on,0,0,4,,,,,,,,,3,,,66,66
512076,note_off,156,0,4,,,,,,,,,3,,,66,0
512076,note_off,0,0,4,,,,,,,,,3,,,63,0
512076,note_off,156,0,1,,,,,,,,,0,,,81,0
512160,note_on,84,0,4,,,,,,,,,3,,,61,63
512160,note_on,84,0,1,,,,,,,,,0,,,82,71
512160,note_on,0,0,4,,,,,,,,,3,,,65,63
512316,note_off,156,0,1,,,,,,,,,0,,,82,0
512400,note_on,84,0,1,,,,,,,,,0,,,77,70
512400,note_off,240,0,4,,,,,,,,,3,,,65,0
512400,note_off,0,0,4,,,,,,,,,3,,,61,0
512556,note_off,156,0,1,,,,,,,,,0,,,77,0
512640,note_on,84,0,1,,,,,,,,,0,,,73,68
512796,note_off,156,0,1,,,,,,,,,0,,,73,0
512880,note_on,84,0,1,,,,,,,,,0,,,70,66
512880,note_on,480,0,4,,,,,,,,,3,,,61,58
512880,note_on,0,0,4,,,,,,,,,3,,,65,58
513000,set_tempo,3720,1,0,,,,,,309278,,,,,,,
513036,note_off,156,0,1,,,,,,,,,0,,,70,0
513036,note_off,0,0,4,,,,,,,,,3,,,61,0
513036,note_off,156,0,4,,,,,,,,,3,,,65,0
513120,note_on,84,0,4,,,,,,,,,3,,,68,56
513120,note_on,0,0,4,,,,,,,,,3,,,62,56
513120,note_on,0,0,4,,,,,,,,,3,,,65,56
513120,set_tempo,120,1,0,,,,,,306122,,,,,,,
513120,note_on,84,0,1,,,,,,,,,0,,,71,62
513276,note_off,156,0,1,,,,,,,,,0,,,71,0
513360,note_off,0,0,4,,,,,,,,,3,,,68,0
513360,note_off,0,0,4,,,,,,,,,3,,,62,0
513360,note_on,84,0,1,,,,,,,,,0,,,83,65
513360,note_off,240,0,4,,,,,,,,,3,,,65,0
513516,note_off,156,0,1,,,,,,,,,0,,,83,0
513600,note_on,84,0,1,,,,,,,,,0,,,86,69
513756,note_off,156,0,1,,,,,,,,,0,,,86,0
513840,note_on,84,0,1,,,,,,,,,0,,,83,71
513840,note_on,480,0,4,,,,,,,,,3,,,68,67
513840,note_on,0,0,4,,,,,,,,,3,,,65,67
513996,note_off,156,0,1,,,,,,,,,0,,,83,0
513996,note_off,156,0,4,,,,,,,,,3,,,65,0
513996,note_off,0,0,4,,,,,,,,,3,,,68,0
514080,note_on,84,0,1,,,,,,,,,0,,,84,69
514080,note_on,84,0,4,,,,,,,,,3,,,63,64
514080,note_on,0,0,4,,,,,,,,,3,,,67,64
514236,note_off,156,0,1,,,,,,,,,0,,,84,0
514320,note_off,0,0,4,,,,,,,,,3,,,63,0
514320,note_off,240,0,4,,,,,,,,,3,,,67,0
514320,note_on,84,0,1,,,,,,,,,0,,,79,68
514476,note_off,156,0,1,,,,,,,,,0,,,79,0
514560,note_on,84,0,1,,,,,,,,,0,,,75,66
514716,note_off,156,0,1,,,,,,,,,0,,,75,0
514800,note_on,0,0,4,,,,,,,,,3,,,63,59
514800,note_on,480,0,4,,,,,,,,,3,,,67,59
514800,note_on,84,0,1,,,,,,,,,0,,,72,65
514920,set_tempo,1800,1,0,,,,,,309278,,,,,,,
514956,note_off,156,0,1,,,,,,,,,0,,,72,0
514956,note_off,0,0,4,,,,,,,,,3,,,67,0
514956,note_off,156,0,4,,,,,,,,,3,,,63,0
515040,set_tempo,120,1,0,,,,,,306122,,,,,,,
515040,note_on,84,0,1,,,,,,,,,0,,,71,66
515040,note_on,84,0,4,,,,,,,,,3,,,68,63
515040,note_on,0,0,4,,,,,,,,,3,,,65,63
515196,note_off,156,0,1,,,,,,,,,0,,,71,0
515280,note_off,240,0,4,,,,,,,,,3,,,65,0
515280,note_on,84,0,1,,,,,,,,,0,,,83,69
515280,note_off,0,0,4,,,,,,,,,3,,,68,0
515436,note_off,156,0,1,,,,,,,,,0,,,83,0
515520,note_on,84,0,1,,,,,,,,,0,,,86,73
515676,note_off,156,0,1,,,,,,,,,0,,,86,0
515760,note_on,0,0,4,,,,,,,,,3,,,65,73
515760,note_on,480,0,4,,,,,,,,,3,,,68,73
515760,note_on,84,0,1,,,,,,,,,0,,,83,72
515916,note_off,0,0,4,,,,,,,,,3,,,68,0
515916,note_off,156,0,4,,,,,,,,,3,,,65,0
515916,note_off,156,0,1,,,,,,,,,0,,,83,0
516000,note_on,0,0,4,,,,,,,,,3,,,67,69
516000,note_on,84,0,4,,,,,,,,,3,,,63,69
516000,note_on,84,0,1,,,,,,,,,0,,,84,72
516156,note_off,156,0,1,,,,,,,,,0,,,84,0
516240,note_off,240,0,4,,,,,,,,,3,,,67,0
516240,note_on,84,0,1,,,,,,,,,0,,,79,71
516240,note_off,0,0,4,,,,,,,,,3,,,63,0
516396,note_off,156,0,1,,,,,,,,,0,,,79,0
516480,note_on,84,0,1,,,,,,,,,0,,,75,70
516636,note_off,156,0,1,,,,,,,,,0,,,75,0
516720,note_on,84,0,1,,,,,,,,,0,,,72,69
516840,set_tempo,1800,1,0,,,,,,309278,,,,,,,
516876,note_off,156,0,1,,,,,,,,,0,,,72,0
516960,set_tempo,120,1,0,,,,,,306122,,,,,,,
516960,note_on,84,0,1,,,,,,,,,0,,,79,69
517116,note_off,156,0,1,,,,,,,,,0,,,79,0
517200,note_on,84,0,1,,,,,,,,,0,,,75,68
517356,note_off,156,0,1,,,,,,,,,0,,,75,0
517440,note_on,84,0,1,,,,,,,,,0,,,72,67
517596,note_off,156,0,1,,,,,,,,,0,,,72,0
517680,note_on,84,0,1,,,,,,,,,0,,,67,66
517836,note_off,156,0,1,,,,,,,,,0,,,67,0
517920,note_on,1680,0,4,,,,,,,,,3,,,63,56
517920,note_on,84,0,1,,,,,,,,,0,,,75,65
518076,note_off,156,0,4,,,,,,,,,3,,,63,0
518076,note_off,156,0,1,,,,,,,,,0,,,75,0
518160,note_on,84,0,1,,,,,,,,,0,,,72,65
518160,note_on,84,0,4,,,,,,,,,3,,,60,56
518316,note_off,156,0,1,,,,,,,,,0,,,72,0
518316,note_off,156,0,4,,,,,,,,,3,,,60,0
518400,note_on,84,0,1,,,,,,,,,0,,,67,64
518400,note_on,84,0,4,,,,,,,,,3,,,55,55
518556,note_off,156,0,4,,,,,,,,,3,,,55,0
518556,note_off,156,0,1,,,,,,,,,0,,,67,0
518640,note_on,84,0,1,,,,,,,,,0,,,63,63
518640,note_on,84,0,4,,,,,,,,,3,,,51,55
518796,note_off,156,0,4,,,,,,,,,3,,,51,0
518796,note_off,156,0,1,,,,,,,,,0,,,63,0
518880,note_on,84,0,1,,,,,,,,,0,,,72,62
518880,note_on,84,0,4,,,,,,,,,3,,,60,54
519036,note_off,156,0,1,,,,,,,,,0,,,72,0
519036,note_off,156,0,4,,,,,,,,,3,,,60,0
519120,note_on,84,0,4,,,,,,,,,3,,,55,54
519120,note_on,84,0,1,,,,,,,,,0,,,67,62
519276,note_off,156,0,1,,,,,,,,,0,,,67,0
519276,note_off,156,0,4,,,,,,,,,3,,,55,0
519360,note_on,84,0,1,,,,,,,,,0,,,63,61
519360,note_on,84,0,4,,,,,,,,,3,,,51,53
519516,note_off,156,0,1,,,,,,,,,0,,,63,0
519516,note_off,156,0,4,,,,,,,,,3,,,51,0
519600,note_on,84,0,1,,,,,,,,,0,,,60,60
519600,note_on,84,0,4,,,,,,,,,3,,,48,52
519756,note_off,156,0,4,,,,,,,,,3,,,48,0
519756,note_off,156,0,1,,,,,,,,,0,,,60,0
519840,note_on,84,0,1,,,,,,,,,0,,,67,59
519840,note_on,84,0,4,,,,,,,,,3,,,55,52
519996,note_off,156,0,4,,,,,,,,,3,,,55,0
519996,note_off,156,0,1,,,,,,,,,0,,,67,0
520080,note_on,84,0,1,,,,,,,,,0,,,63,58
520080,note_on,84,0,4,,,,,,,,,3,,,51,51
520236,note_off,156,0,1,,,,,,,,,0,,,63,0
520236,note_off,156,0,4,,,,,,,,,3,,,51,0
520320,note_on,84,0,1,,,,,,,,,0,,,60,58
520320,note_on,84,0,4,,,,,,,,,3,,,48,51
520476,note_off,156,0,1,,,,,,,,,0,,,60,0
520476,note_off,156,0,4,,,,,,,,,3,,,48,0
520560,note_on,84,0,4,,,,,,,,,3,,,43,50
520560,note_on,84,0,1,,,,,,,,,0,,,55,57
520716,note_off,156,0,4,,,,,,,,,3,,,43,0
520716,note_off,156,0,1,,,,,,,,,0,,,55,0
520800,note_on,84,0,4,,,,,,,,,3,,,51,50
520800,note_on,84,0,1,,,,,,,,,0,,,63,56
520956,note_off,156,0,4,,,,,,,,,3,,,51,0
520956,note_off,156,0,1,,,,,,,,,0,,,63,0
521040,note_on,84,0,4,,,,,,,,,3,,,48,49
521040,note_on,84,0,1,,,,,,,,,0,,,60,55
521196,note_off,156,0,4,,,,,,,,,3,,,48,0
521196,note_off,156,0,1,,,,,,,,,0,,,60,0
521280,note_on,84,0,1,,,,,,,,,0,,,55,55
521280,note_on,84,0,4,,,,,,,,,3,,,43,48
521436,note_off,156,0,1,,,,,,,,,0,,,55,0
521436,note_off,156,0,4,,,,,,,,,3,,,43,0
521520,note_on,84,0,1,,,,,,,,,0,,,51,54
521520,note_on,84,0,4,,,,,,,,,3,,,39,48
521676,note_off,156,0,4,,,,,,,,,3,,,39,0
521676,note_off,156,0,1,,,,,,,,,0,,,51,0
521760,note_on,84,0,4,,,,,,,,,3,,,48,62
521760,note_on,84,0,1,,,,,,,,,0,,,60,67
521916,note_off,156,0,4,,,,,,,,,3,,,48,0
521916,note_off,156,0,1,,,,,,,,,0,,,60,0
522000,note_on,84,0,4,,,,,,,,,3,,,43,47
522000,note_on,84,0,1,,,,,,,,,0,,,55,52
522156,note_off,156,0,4,,,,,,,,,3,,,43,0
522156,note_off,156,0,1,,,,,,,,,0,,,55,0
522240,note_on,84,0,1,,,,,,,,,0,,,51,52
522240,note_on,84,0,4,,,,,,,,,3,,,39,46
522396,note_off,156,0,4,,,,,,,,,3,,,39,0
522396,note_off,156,0,1,,,,,,,,,0,,,51,0
522480,note_on,84,0,1,,,,,,,,,0,,,48,51
522480,note_on,84,0,4,,,,,,,,,3,,,36,46
522600,set_tempo,5640,1,0,,,,,,309278,,,,,,,
522636,note_off,156,0,1,,,,,,,,,0,,,48,0
522636,note_off,156,0,4,,,,,,,,,3,,,36,0
522720,note_on,84,0,4,,,,,,,,,3,,,31,45
522720,note_on,84,0,1,,,,,,,,,0,,,43,50
522720,set_tempo,120,1,0,,,,,,306122,,,,,,,
522876,note_off,156,0,1,,,,,,,,,0,,,43,0
522876,note_off,156,0,4,,,,,,,,,3,,,31,0
522960,note_on,84,0,1,,,,,,,,,0,,,55,49
522960,note_on,84,0,4,,,,,,,,,3,,,43,44
523116,note_off,156,0,4,,,,,,,,,3,,,43,0
523116,note_off,156,0,1,,,,,,,,,0,,,55,0
523200,note_on,84,0,1,,,,,,,,,0,,,59,48
523200,note_on,84,0,4,,,,,,,,,3,,,47,44
523356,note_off,156,0,1,,,,,,,,,0,,,59,0
523356,note_off,156,0,4,,,,,,,,,3,,,47,0
523440,note_on,84,0,1,,,,,,,,,0,,,55,48
523440,note_on,84,0,4,,,,,,,,,3,,,43,43
523596,note_off,156,0,4,,,,,,,,,3,,,43,0
523596,note_off,156,0,1,,,,,,,,,0,,,55,0
523680,note_on,84,0,4,,,,,,,,,3,,,48,56
523680,note_on,84,0,1,,,,,,,,,0,,,60,60
523836,note_off,156,0,4,,,,,,,,,3,,,48,0
523836,note_off,156,0,1,,,,,,,,,0,,,60,0
523920,note_on,84,0,4,,,,,,,,,3,,,43,42
523920,note_on,84,0,1,,,,,,,,,0,,,55,50
524076,note_off,156,0,4,,,,,,,,,3,,,43,0
524076,note_off,156,0,1,,,,,,,,,0,,,55,0
524160,note_on,84,0,4,,,,,,,,,3,,,39,42
524160,note_on,84,0,1,,,,,,,,,0,,,51,48
524316,note_off,156,0,4,,,,,,,,,3,,,39,0
524316,note_off,156,0,1,,,,,,,,,0,,,51,0
524400,note_on,84,0,1,,,,,,,,,0,,,48,45
524400,note_on,84,0,4,,,,,,,,,3,,,36,41
524520,set_tempo,1800,1,0,,,,,,309278,,,,,,,
524556,note_off,156,0,1,,,,,,,,,0,,,48,0
524556,note_off,156,0,4,,,,,,,,,3,,,36,0
524640,note_on,84,0,4,,,,,,,,,3,,,31,40
524640,set_tempo,120,1,0,,,,,,306122,,,,,,,
524640,note_on,84,0,1,,,,,,,,,0,,,43,44
524796,note_off,156,0,4,,,,,,,,,3,,,31,0
524796,note_off,156,0,1,,,,,,,,,0,,,43,0
524880,note_on,84,0,4,,,,,,,,,3,,,43,40
524880,note_on,84,0,1,,,,,,,,,0,,,55,43
525036,note_off,156,0,1,,,,,,,,,0,,,55,0
525036,note_off,156,0,4,,,,,,,,,3,,,43,0
525120,note_on,84,0,4,,,,,,,,,3,,,47,39
525120,note_on,84,0,1,,,,,,,,,0,,,59,42
525276,note_off,156,0,4,,,,,,,,,3,,,47,0
525276,note_off,156,0,1,,,,,,,,,0,,,59,0
525360,note_on,84,0,1,,,,,,,,,0,,,55,41
525360,note_on,84,0,4,,,,,,,,,3,,,43,39
525516,note_off,156,0,1,,,,,,,,,0,,,55,0
525516,note_off,156,0,4,,,,,,,,,3,,,43,0
525600,note_on,84,0,4,,,,,,,,,3,,,48,49
525600,note_on,84,0,1,,,,,,,,,0,,,60,54
525756,note_off,156,0,1,,,,,,,,,0,,,60,0
525756,note_off,156,0,4,,,,,,,,,3,,,48,0
525840,note_on,84,0,4,,,,,,,,,3,,,43,38
525840,note_on,84,0,1,,,,,,,,,0,,,55,40
525996,note_off,156,0,1,,,,,,,,,0,,,55,0
525996,note_off,156,0,4,,,,,,,,,3,,,43,0
526080,note_on,84,0,1,,,,,,,,,0,,,51,39
526080,note_on,84,0,4,,,,,,,,,3,,,39,37
526236,note_off,156,0,4,,,,,,,,,3,,,39,0
526236,note_off,156,0,1,,,,,,,,,0,,,51,0
526320,note_on,84,0,1,,,,,,,,,0,,,48,38
526320,note_on,84,0,4,,,,,,,,,3,,,36,36
526440,set_tempo,1800,1,0,,,,,,309278,,,,,,,
526476,note_off,156,0,1,,,,,,,,,0,,,48,0
526476,note_off,156,0,4,,,,,,,,,3,,,36,0
526560,note_on,84,0,1,,,,,,,,,0,,,43,38
526560,set_tempo,120,1,0,,,,,,306122,,,,,,,
526560,note_on,84,0,4,,,,,,,,,3,,,31,38
526716,note_off,156,0,1,,,,,,,,,0,,,43,0
526716,note_off,156,0,4,,,,,,,,,3,,,31,0
526800,note_on,84,0,1,,,,,,,,,0,,,45,39
526800,note_on,84,0,4,,,,,,,,,3,,,33,39
526956,note_off,156,0,1,,,,,,,,,0,,,45,0
526956,note_off,156,0,4,,,,,,,,,3,,,33,0
527040,note_on,84,0,1,,,,,,,,,0,,,47,40
527040,note_on,84,0,4,,,,,,,,,3,,,35,40
527196,note_off,156,0,4,,,,,,,,,3,,,35,0
527196,note_off,156,0,1,,,,,,,,,0,,,47,0
527280,note_on,84,0,4,,,,,,,,,3,,,36,41
527280,note_on,84,0,1,,,,,,,,,0,,,48,41
527436,note_off,156,0,1,,,,,,,,,0,,,48,0
527436,note_off,156,0,4,,,,,,,,,3,,,36,0
527520,note_on,84,0,1,,,,,,,,,0,,,50,42
527520,note_on,84,0,4,,,,,,,,,3,,,38,42
527676,note_off,156,0,1,,,,,,,,,0,,,50,0
527676,note_off,156,0,4,,,,,,,,,3,,,38,0
527760,note_on,84,0,4,,,,,,,,,3,,,40,43
527760,note_on,84,0,1,,,,,,,,,0,,,52,43
527916,note_off,156,0,1,,,,,,,,,0,,,52,0
527916,note_off,156,0,4,,,,,,,,,3,,,40,0
528000,note_on,84,0,4,,,,,,,,,3,,,41,44
528000,note_on,84,0,1,,,,,,,,,0,,,53,43
528156,note_off,156,0,4,,,,,,,,,3,,,41,0
528156,note_off,156,0,1,,,,,,,,,0,,,53,0
528240,note_on,84,0,4,,,,,,,,,3,,,42,45
528240,note_on,84,0,1,,,,,,,,,0,,,54,45
528396,note_off,156,0,4,,,,,,,,,3,,,42,0
528396,note_off,156,0,1,,,,,,,,,0,,,54,0
528480,note_on,84,0,4,,,,,,,,,3,,,43,46
528480,note_on,84,0,1,,,,,,,,,0,,,55,46
528636,note_off,156,0,1,,,,,,,,,0,,,55,0
528636,note_off,156,0,4,,,,,,,,,3,,,43,0
528720,note_on,84,0,1,,,,,,,,,0,,,57,47
528720,note_on,84,0,4,,,,,,,,,3,,,45,46
528876,note_off,156,0,1,,,,,,,,,0,,,57,0
528876,note_off,156,0,4,,,,,,,,,3,,,45,0
528960,note_on,84,0,1,,,,,,,,,0,,,58,48
528960,note_on,84,0,4,,,,,,,,,3,,,46,47
529116,note_off,156,0,4,,,,,,,,,3,,,46,0
529116,note_off,156,0,1,,,,,,,,,0,,,58,0
529200,note_on,84,0,4,,,,,,,,,3,,,47,48
529200,note_on,84,0,1,,,,,,,,,0,,,59,49
529356,note_off,156,0,4,,,,,,,,,3,,,47,0
529356,note_off,156,0,1,,,,,,,,,0,,,59,0
529440,note_on,84,0,4,,,,,,,,,3,,,48,49
529440,note_on,84,0,1,,,,,,,,,0,,,60,50
529596,note_off,156,0,1,,,,,,,,,0,,,60,0
529596,note_off,156,0,4,,,,,,,,,3,,,48,0
529680,note_on,84,0,1,,,,,,,,,0,,,61,51
529680,note_on,84,0,4,,,,,,,,,3,,,49,50
529836,note_off,156,0,1,,,,,,,,,0,,,61,0
529836,note_off,156,0,4,,,,,,,,,3,,,49,0
529920,set_tempo,3360,1,0,,,,,,309278,,,,,,,
529920,note_on,84,0,4,,,,,,,,,3,,,50,51
529920,note_on,84,0,1,,,,,,,,,0,,,62,53
530076,note_off,156,0,4,,,,,,,,,3,,,50,0
530076,note_off,156,0,1,,,,,,,,,0,,,62,0
530160,note_on,84,0,1,,,,,,,,,0,,,63,54
530160,note_on,84,0,4,,,,,,,,,3,,,51,52
530160,set_tempo,240,1,0,,,,,,335195,,,,,,,
530316,note_off,156,0,1,,,,,,,,,0,,,63,0
530316,note_off,156,0,4,,,,,,,,,3,,,51,0
530400,note_on,24768,0,2,,,,,,,,,1,,,55,59
530400,note_on,84,0,1,,,,,,,,,0,,,64,59
530400,set_tempo,240,1,0,,,,,,306122,,,,,,,
530400,note_on,0,0,2,,,,,,,,,1,,,60,59
530640,note_on,324,0,4,,,,,,,,,3,,,36,44
530796,note_off,156,0,4,,,,,,,,,3,,,36,0
530880,note_on,84,0,4,,,,,,,,,3,,,40,44
531036,note_off,156,0,4,,,,,,,,,3,,,40,0
531120,note_on,84,0,4,,,,,,,,,3,,,43,45
531276,note_off,156,0,4,,,,,,,,,3,,,43,0
531360,note_on,84,0,4,,,,,,,,,3,,,48,46
531516,note_off,156,0,4,,,,,,,,,3,,,48,0
531600,note_on,84,0,4,,,,,,,,,3,,,36,46
531756,note_off,156,0,4,,,,,,,,,3,,,36,0
531840,note_on,84,0,4,,,,,,,,,3,,,38,55
531840,note_off,1440,0,1,,,,,,,,,0,,,64,0
531840,note_off,1440,0,2,,,,,,,,,1,,,60,0
531840,note_off,0,0,2,,,,,,,,,1,,,55,0
531840,note_on,0,0,2,,,,,,,,,1,,,55,66
531840,note_on,0,0,1,,,,,,,,,0,,,65,66
531840,note_on,0,0,2,,,,,,,,,1,,,59,66
531996,note_off,156,0,4,,,,,,,,,3,,,38,0
532080,note_on,84,0,4,,,,,,,,,3,,,50,51
532200,note_off,360,0,2,,,,,,,,,1,,,55,0
532207,note_off,7,0,2,,,,,,,,,1,,,59,0
532207,note_off,367,0,1,,,,,,,,,0,,,65,0
532215,set_tempo,1815,1,0,,,,,,312500,,,,,,,
532236,note_off,156,0,4,,,,,,,,,3,,,50,0
532320,note_on,113,0,1,,,,,,,,,0,,,67,60
532320,set_tempo,105,1,0,,,,,,306122,,,,,,,
532320,note_on,0,0,2,,,,,,,,,1,,,60,60
532320,note_on,113,0,2,,,,,,,,,1,,,55,60
532560,note_on,324,0,4,,,,,,,,,3,,,40,49
532716,note_off,156,0,4,,,,,,,,,3,,,40,0
532800,note_on,84,0,4,,,,,,,,,3,,,43,49
532956,note_off,156,0,4,,,,,,,,,3,,,43,0
533040,note_on,84,0,4,,,,,,,,,3,,,48,50
533196,note_off,156,0,4,,,,,,,,,3,,,48,0
533280,note_on,84,0,4,,,,,,,,,3,,,52,50
533436,note_off,156,0,4,,,,,,,,,3,,,52,0
533520,note_on,84,0,4,,,,,,,,,3,,,40,51
533676,note_off,156,0,4,,,,,,,,,3,,,40,0
533760,note_on,0,0,1,,,,,,,,,0,,,69,76
533760,note_off,1440,0,1,,,,,,,,,0,,,67,0
533760,note_on,0,0,2,,,,,,,,,1,,,57,76
533760,note_off,0,0,2,,,,,,,,,1,,,55,0
533760,note_off,1440,0,2,,,,,,,,,1,,,60,0
533760,note_on,84,0,4,,,,,,,,,3,,,41,61
533916,note_off,156,0,4,,,,,,,,,3,,,41,0
534000,note_on,84,0,4,,,,,,,,,3,,,53,58
534120,set_tempo,1800,1,0,,,,,,312500,,,,,,,
534127,note_off,367,0,1,,,,,,,,,0,,,69,0
534156,note_off,156,0,4,,,,,,,,,3,,,53,0
534240,set_tempo,120,1,0,,,,,,306122,,,,,,,
534240,note_on,84,0,4,,,,,,,,,3,,,38,59
534240,note_on,113,0,1,,,,,,,,,0,,,65,72
534396,note_off,156,0,4,,,,,,,,,3,,,38,0
534480,note_on,84,0,4,,,,,,,,,3,,,50,56
534636,note_off,156,0,4,,,,,,,,,3,,,50,0
534720,note_on,0,0,2,,,,,,,,,1,,,62,64
534720,note_off,960,0,2,,,,,,,,,1,,,57,0
534720,note_on,84,0,4,,,,,,,,,3,,,35,54
534720,note_off,480,0,1,,,,,,,,,0,,,65,0
534720,note_on,0,0,1,,,,,,,,,0,,,67,67
534876,note_off,156,0,1,,,,,,,,,0,,,67,0
534876,note_off,156,0,4,,,,,,,,,3,,,35,0
534876,note_off,156,0,2,,,,,,,,,1,,,62,0
534960,note_on,84,0,4,,,,,,,,,3,,,47,53
535116,note_off,156,0,4,,,,,,,,,3,,,47,0
535200,note_on,324,0,1,,,,,,,,,0,,,64,63
535200,note_on,324,0,2,,,,,,,,,1,,,55,62
535200,note_on,84,0,4,,,,,,,,,3,,,36,52
535356,note_off,156,0,1,,,,,,,,,0,,,64,0
535356,note_off,156,0,2,,,,,,,,,1,,,55,0
535356,note_off,156,0,4,,,,,,,,,3,,,36,0
535440,note_on,84,0,4,,,,,,,,,3,,,48,52
535596,note_off,156,0,4,,,,,,,,,3,,,48,0
535680,note_on,324,0,2,,,,,,,,,1,,,55,59
535680,note_on,324,0,1,,,,,,,,,0,,,60,59
535680,note_on,84,0,4,,,,,,,,,3,,,40,51
535836,note_off,156,0,4,,,,,,,,,3,,,40,0
535836,note_off,156,0,1,,,,,,,,,0,,,60,0
535836,note_off,156,0,2,,,,,,,,,1,,,55,0
535920,note_on,84,0,4,,,,,,,,,3,,,52,50
536040,set_tempo,1800,1,0,,,,,,309278,,,,,,,
536076,note_off,156,0,4,,,,,,,,,3,,,52,0
536160,note_on,84,0,4,,,,,,,,,3,,,43,50
536160,note_on,324,0,2,,,,,,,,,1,,,59,60
536160,set_tempo,120,1,0,,,,,,306122,,,,,,,
536160,note_on,324,0,1,,,,,,,,,0,,,62,60
536316,note_off,156,0,4,,,,,,,,,3,,,43,0
536400,note_on,84,0,4,,,,,,,,,3,,,55,57
536556,note_off,156,0,4,,,,,,,,,3,,,55,0
536640,note_on,84,0,4,,,,,,,,,3,,,55,55
536796,note_off,156,0,4,,,,,,,,,3,,,55,0
536880,note_on,84,0,4,,,,,,,,,3,,,55,54
537036,note_off,156,0,4,,,,,,,,,3,,,55,0
537120,note_on,84,0,4,,,,,,,,,3,,,55,52
537276,note_off,156,0,4,,,,,,,,,3,,,55,0
537360,note_on,84,0,4,,,,,,,,,3,,,53,51
537516,note_off,156,0,4,,,,,,,,,3,,,53,0
537600,note_on,0,0,1,,,,,,,,,0,,,67,44
537600,note_off,1440,0,1,,,,,,,,,0,,,62,0
537600,note_on,84,0,4,,,,,,,,,3,,,52,49
537607,note_off,1447,0,2,,,,,,,,,1,,,59,0
537680,note_on,0,0,1,,,,,,,,,0,,,69,45
537680,note_off,80,0,1,,,,,,,,,0,,,67,0
537756,note_off,156,0,4,,,,,,,,,3,,,52,0
537760,note_on,0,0,1,,,,,,,,,0,,,71,46
537760,note_off,80,0,1,,,,,,,,,0,,,69,0
537840,set_tempo,1680,1,0,,,,,,309278,,,,,,,
537840,note_on,84,0,4,,,,,,,,,3,,,50,48
537840,note_off,80,0,1,,,,,,,,,0,,,71,0
537840,note_on,0,0,1,,,,,,,,,0,,,72,47
537960,set_tempo,120,1,0,,,,,,312500,,,,,,,
537960,note_off,120,0,1,,,,,,,,,0,,,72,0
537960,note_on,0,0,1,,,,,,,,,0,,,74,48
537996,note_off,156,0,4,,,,,,,,,3,,,50,0
538080,note_on,0,0,1,,,,,,,,,0,,,76,59
538080,note_off,120,0,1,,,,,,,,,0,,,74,0
538080,note_on,84,0,4,,,,,,,,,3,,,60,46
538080,set_tempo,120,1,0,,,,,,306122,,,,,,,
538236,note_off,156,0,4,,,,,,,,,3,,,60,0
538320,note_on,84,0,4,,,,,,,,,3,,,48,47
538476,note_off,156,0,4,,,,,,,,,3,,,48,0
538560,note_on,84,0,4,,,,,,,,,3,,,52,48
538716,note_off,156,0,4,,,,,,,,,3,,,52,0
538800,note_on,84,0,4,,,,,,,,,3,,,55,49
538956,note_off,156,0,4,,,,,,,,,3,,,55,0
539040,note_on,84,0,4,,,,,,,,,3,,,60,49
539196,note_off,156,0,4,,,,,,,,,3,,,60,0
539280,note_on,84,0,4,,,,,,,,,3,,,48,50
539436,note_off,156,0,4,,,,,,,,,3,,,48,0
539520,note_on,84,0,4,,,,,,,,,3,,,50,59
539520,note_on,0,0,1,,,,,,,,,0,,,77,69
539520,note_off,1440,0,1,,,,,,,,,0,,,76,0
539676,note_off,156,0,4,,,,,,,,,3,,,50,0
539760,set_tempo,1680,1,0,,,,,,312500,,,,,,,
539760,note_on,84,0,4,,,,,,,,,3,,,62,56
539880,note_off,360,0,1,,,,,,,,,0,,,77,0
539916,note_off,156,0,4,,,,,,,,,3,,,62,0
540000,set_tempo,240,1,0,,,,,,306122,,,,,,,
540000,note_on,120,0,1,,,,,,,,,0,,,79,60
540240,note_on,324,0,4,,,,,,,,,3,,,52,54
540396,note_off,156,0,4,,,,,,,,,3,,,52,0
540480,note_on,84,0,4,,,,,,,,,3,,,55,55
540636,note_off,156,0,4,,,,,,,,,3,,,55,0
540720,note_on,84,0,4,,,,,,,,,3,,,60,56
540876,note_off,156,0,4,,,,,,,,,3,,,60,0
540960,note_on,84,0,4,,,,,,,,,3,,,64,57
541116,note_off,156,0,4,,,,,,,,,3,,,64,0
541200,note_on,84,0,4,,,,,,,,,3,,,52,58
541356,note_off,156,0,4,,,,,,,,,3,,,52,0
541440,note_on,84,0,4,,,,,,,,,3,,,53,69
541440,note_off,1440,0,1,,,,,,,,,0,,,79,0
541440,note_on,0,0,1,,,,,,,,,0,,,72,57
541520,note_off,80,0,1,,,,,,,,,0,,,72,0
541520,note_on,0,0,1,,,,,,,,,0,,,74,58
541596,note_off,156,0,4,,,,,,,,,3,,,53,0
541600,note_off,80,0,1,,,,,,,,,0,,,74,0
541600,note_on,0,0,1,,,,,,,,,0,,,76,60
541680,note_on,0,0,1,,,,,,,,,0,,,77,61
541680,note_off,80,0,1,,,,,,,,,0,,,76,0
541680,note_on,84,0,4,,,,,,,,,3,,,65,66
541680,set_tempo,1680,1,0,,,,,,309278,,,,,,,
541760,note_off,80,0,1,,,,,,,,,0,,,77,0
541760,note_on,0,0,1,,,,,,,,,0,,,79,62
541800,set_tempo,120,1,0,,,,,,312500,,,,,,,
541836,note_off,156,0,4,,,,,,,,,3,,,65,0
541840,note_off,80,0,1,,,,,,,,,0,,,79,0
541840,note_on,0,0,1,,,,,,,,,0,,,80,62
541920,note_on,0,0,1,,,,,,,,,0,,,82,68
541920,note_off,80,0,1,,,,,,,,,0,,,80,0
541920,set_tempo,120,1,0,,,,,,306122,,,,,,,
542160,note_on,324,0,4,,,,,,,,,3,,,55,61
542316,note_off,156,0,4,,,,,,,,,3,,,55,0
542400,note_on,84,0,4,,,,,,,,,3,,,60,62
542556,note_off,156,0,4,,,,,,,,,3,,,60,0
542640,note_on,84,0,4,,,,,,,,,3,,,64,63
542796,note_off,156,0,4,,,,,,,,,3,,,64,0
542880,note_on,84,0,4,,,,,,,,,3,,,67,65
543036,note_off,156,0,4,,,,,,,,,3,,,67,0
543120,note_on,84,0,4,,,,,,,,,3,,,55,66
543276,note_off,156,0,4,,,,,,,,,3,,,55,0
543360,note_on,0,0,1,,,,,,,,,0,,,84,64
543360,note_on,84,0,4,,,,,,,,,3,,,56,75
543360,note_off,1440,0,1,,,,,,,,,0,,,82,0
543440,note_off,80,0,1,,,,,,,,,0,,,84,0
543440,note_on,0,0,1,,,,,,,,,0,,,85,65
543516,note_off,156,0,4,,,,,,,,,3,,,56,0
543520,note_on,0,0,1,,,,,,,,,0,,,84,67
543520,note_off,80,0,1,,,,,,,,,0,,,85,0
543600,note_off,80,0,1,,,,,,,,,0,,,84,0
543600,set_tempo,1680,1,0,,,,,,309278,,,,,,,
543600,note_on,0,0,1,,,,,,,,,0,,,82,68
543600,note_on,84,0,4,,,,,,,,,3,,,68,71
543720,set_tempo,120,1,0,,,,,,312500,,,,,,,
543720,note_off,120,0,1,,,,,,,,,0,,,82,0
543720,note_on,0,0,1,,,,,,,,,0,,,84,70
543756,note_off,156,0,4,,,,,,,,,3,,,68,0
543840,note_on,0,0,1,,,,,,,,,0,,,85,66
543840,set_tempo,120,1,0,,,,,,309278,,,,,,,
543840,note_off,120,0,1,,,,,,,,,0,,,84,0
544080,note_on,324,0,4,,,,,,,,,3,,,58,57
544080,note_off,240,0,1,,,,,,,,,0,,,85,0
544236,note_off,156,0,4,,,,,,,,,3,,,58,0
544320,note_on,84,0,4,,,,,,,,,3,,,61,57
544476,note_off,156,0,4,,,,,,,,,3,,,61,0
544560,note_on,84,0,4,,,,,,,,,3,,,64,56
544560,note_on,480,0,1,,,,,,,,,0,,,79,44
544620,note_on,0,0,1,,,,,,,,,0,,,80,47
544620,note_off,60,0,1,,,,,,,,,0,,,79,0
544680,note_on,0,0,1,,,,,,,,,0,,,82,49
544680,set_tempo,840,1,0,,,,,,312500,,,,,,,
544680,note_off,60,0,1,,,,,,,,,0,,,80,0
544716,note_off,156,0,4,,,,,,,,,3,,,64,0
544740,note_off,60,0,1,,,,,,,,,0,,,82,0
544740,note_on,0,0,1,,,,,,,,,0,,,84,51
544800,note_on,0,0,1,,,,,,,,,0,,,85,60
544800,note_off,60,0,1,,,,,,,,,0,,,84,0
544800,set_tempo,120,1,0,,,,,,309278,,,,,,,
545040,note_on,324,0,4,,,,,,,,,3,,,58,56
545063,note_off,263,0,1,,,,,,,,,0,,,85,0
545196,note_off,156,0,4,,,,,,,,,3,,,58,0
545280,note_on,84,0,4,,,,,,,,,3,,,61,55
545436,note_off,156,0,4,,,,,,,,,3,,,61,0
545520,note_on,84,0,4,,,,,,,,,3,,,64,55
545520,note_on,457,0,1,,,,,,,,,0,,,67,46
545580,note_on,0,0,1,,,,,,,,,0,,,68,48
545580,note_off,60,0,1,,,,,,,,,0,,,67,0
545640,set_tempo,840,1,0,,,,,,312500,,,,,,,
545640,note_on,0,0,1,,,,,,,,,0,,,70,49
545640,note_off,60,0,1,,,,,,,,,0,,,68,0
545676,note_off,156,0,4,,,,,,,,,3,,,64,0
545700,note_on,0,0,1,,,,,,,,,0,,,72,51
545700,note_off,60,0,1,,,,,,,,,0,,,70,0
545760,note_off,60,0,1,,,,,,,,,0,,,72,0
545760,note_on,0,0,1,,,,,,,,,0,,,73,59
545760,set_tempo,120,1,0,,,,,,309278,,,,,,,
546000,note_on,324,0,4,,,,,,,,,3,,,58,54
546045,note_off,285,0,1,,,,,,,,,0,,,73,0
546156,note_off,156,0,4,,,,,,,,,3,,,58,0
546240,control_change,195,0,1,,,,,,,10,55,0,,,,
546240,note_on,84,0,4,,,,,,,,,3,,,61,54
546396,note_off,156,0,4,,,,,,,,,3,,,61,0
546480,note_on,240,0,1,,,,,,,,,0,,,43,54
546480,note_on,84,0,4,,,,,,,,,3,,,64,53
546540,note_off,60,0,1,,,,,,,,,0,,,43,0
546540,note_on,0,0,1,,,,,,,,,0,,,44,56
546600,note_on,0,0,1,,,,,,,,,0,,,46,59
546600,set_tempo,840,1,0,,,,,,312500,,,,,,,
546600,note_off,60,0,1,,,,,,,,,0,,,44,0
546636,note_off,156,0,4,,,,,,,,,3,,,64,0
546660,note_on,0,0,1,,,,,,,,,0,,,48,62
546660,note_off,60,0,1,,,,,,,,,0,,,46,0
546720,note_on,0,0,1,,,,,,,,,0,,,49,75
546720,note_off,60,0,1,,,,,,,,,0,,,48,0
546720,set_tempo,120,1,0,,,,,,309278,,,,,,,
546960,note_on,324,0,4,,,,,,,,,3,,,58,53
546972,note_off,252,0,1,,,,,,,,,0,,,49,0
547116,note_off,156,0,4,,,,,,,,,3,,,58,0
547200,note_on,84,0,4,,,,,,,,,3,,,61,52
547356,note_off,156,0,4,,,,,,,,,3,,,61,0
547440,note_on,468,0,1,,,,,,,,,0,,,49,49
547440,note_on,84,0,4,,,,,,,,,3,,,64,52
547500,note_off,60,0,1,,,,,,,,,0,,,49,0
547500,note_on,0,0,1,,,,,,,,,0,,,48,52
547560,set_tempo,840,1,0,,,,,,312500,,,,,,,
547560,note_on,0,0,1,,,,,,,,,0,,,46,55
547560,note_off,60,0,1,,,,,,,,,0,,,48,0
547596,note_off,156,0,4,,,,,,,,,3,,,64,0
547620,note_on,0,0,1,,,,,,,,,0,,,44,59
547620,note_off,60,0,1,,,,,,,,,0,,,46,0
547680,set_tempo,120,1,0,,,,,,309278,,,,,,,
547680,note_on,0,0,1,,,,,,,,,0,,,43,74
547680,note_off,60,0,1,,,,,,,,,0,,,44,0
547920,note_on,324,0,4,,,,,,,,,3,,,58,51
547932,note_off,252,0,1,,,,,,,,,0,,,43,0
548076,note_off,156,0,4,,,,,,,,,3,,,58,0
548160,control_change,228,0,1,,,,,,,10,73,0,,,,
548160,note_on,84,0,4,,,,,,,,,3,,,61,51
548316,note_off,156,0,4,,,,,,,,,3,,,61,0
548400,note_on,84,0,4,,,,,,,,,3,,,64,51
548400,note_on,240,0,1,,,,,,,,,0,,,79,44
548460,note_off,60,0,1,,,,,,,,,0,,,79,0
548460,note_on,0,0,1,,,,,,,,,0,,,80,46
548520,set_tempo,840,1,0,,,,,,312500,,,,,,,
548520,note_off,60,0,1,,,,,,,,,0,,,80,0
548520,note_on,0,0,1,,,,,,,,,0,,,82,48
548556,note_off,156,0,4,,,,,,,,,3,,,64,0
548580,note_on,0,0,1,,,,,,,,,0,,,84,49
548580,note_off,60,0,1,,,,,,,,,0,,,82,0
548640,set_tempo,120,1,0,,,,,,309278,,,,,,,
548640,note_off,60,0,1,,,,,,,,,0,,,84,0
548640,note_on,0,0,1,,,,,,,,,0,,,85,60
548880,note_on,324,0,4,,,,,,,,,3,,,58,50
548903,note_off,263,0,1,,,,,,,,,0,,,85,0
549036,note_off,156,0,4,,,,,,,,,3,,,58,0
549120,note_on,84,0,4,,,,,,,,,3,,,61,49
549276,note_off,156,0,4,,,,,,,,,3,,,61,0
549360,note_on,457,0,1,,,,,,,,,0,,,67,44
549360,note_on,84,0,4,,,,,,,,,3,,,64,49
549420,note_off,60,0,1,,,,,,,,,0,,,67,0
549420,note_on,0,0,1,,,,,,,,,0,,,68,45
549480,note_on,0,0,1,,,,,,,,,0,,,70,47
549480,set_tempo,840,1,0,,,,,,312500,,,,,,,
549480,note_off,60,0,1,,,,,,,,,0,,,68,0
549516,note_off,156,0,4,,,,,,,,,3,,,64,0
549540,note_off,60,0,1,,,,,,,,,0,,,70,0
549540,note_on,0,0,1,,,,,,,,,0,,,72,49
549600,set_tempo,120,1,0,,,,,,309278,,,,,,,
549600,note_off,60,0,1,,,,,,,,,0,,,72,0
549600,note_on,0,0,1,,,,,,,,,0,,,73,56
549840,note_on,324,0,4,,,,,,,,,3,,,58,48
549874,note_off,274,0,1,,,,,,,,,0,,,73,0
549996,note_off,156,0,4,,,,,,,,,3,,,58,0
550080,note_on,84,0,4,,,,,,,,,3,,,61,48
550080,control_change,206,0,1,,,,,,,10,55,0,,,,
550236,note_off,156,0,4,,,,,,,,,3,,,61,0
550320,note_on,84,0,4,,,,,,,,,3,,,64,48
550320,note_on,240,0,1,,,,,,,,,0,,,43,46
550380,note_off,60,0,1,,,,,,,,,0,,,43,0
550380,note_on,0,0,1,,,,,,,,,0,,,44,48
550440,note_on,0,0,1,,,,,,,,,0,,,46,50
550440,note_off,60,0,1,,,,,,,,,0,,,44,0
550440,set_tempo,840,1,0,,,,,,312500,,,,,,,
550476,note_off,156,0,4,,,,,,,,,3,,,64,0
550500,note_on,0,0,1,,,,,,,,,0,,,48,53
550500,note_off,60,0,1,,,,,,,,,0,,,46,0
550560,note_off,60,0,1,,,,,,,,,0,,,48,0
550560,note_on,0,0,1,,,,,,,,,0,,,49,65
550560,set_tempo,120,1,0,,,,,,309278,,,,,,,
550800,note_on,324,0,4,,,,,,,,,3,,,58,47
550812,note_off,252,0,1,,,,,,,,,0,,,49,0
550956,note_off,156,0,4,,,,,,,,,3,,,58,0
551040,note_on,84,0,4,,,,,,,,,3,,,61,47
551196,note_off,156,0,4,,,,,,,,,3,,,61,0
551280,note_on,468,0,1,,,,,,,,,0,,,49,48
551280,note_on,84,0,4,,,,,,,,,3,,,64,46
551340,note_on,0,0,1,,,,,,,,,0,,,48,51
551340,note_off,60,0,1,,,,,,,,,0,,,49,0
551400,set_tempo,840,1,0,,,,,,312500,,,,,,,
551400,note_on,0,0,1,,,,,,,,,0,,,46,53
551400,note_off,60,0,1,,,,,,,,,0,,,48,0
551436,note_off,156,0,4,,,,,,,,,3,,,64,0
551460,note_on,0,0,1,,,,,,,,,0,,,44,56
551460,note_off,60,0,1,,,,,,,,,0,,,46,0
551520,set_tempo,120,1,0,,,,,,309278,,,,,,,
551520,note_on,0,0,1,,,,,,,,,0,,,43,65
551520,note_off,60,0,1,,,,,,,,,0,,,44,0
551760,note_on,324,0,4,,,,,,,,,3,,,58,45
551772,note_off,252,0,1,,,,,,,,,0,,,43,0
551916,note_off,156,0,4,,,,,,,,,3,,,58,0
552000,note_on,84,0,4,,,,,,,,,3,,,61,45
552156,note_off,156,0,4,,,,,,,,,3,,,61,0
552240,note_on,468,0,1,,,,,,,,,0,,,43,41
552240,note_on,84,0,4,,,,,,,,,3,,,63,45
552300,note_on,0,0,1,,,,,,,,,0,,,44,42
552300,note_off,60,0,1,,,,,,,,,0,,,43,0
552360,note_off,60,0,1,,,,,,,,,0,,,44,0
552360,set_tempo,840,1,0,,,,,,312500,,,,,,,
552360,note_on,0,0,1,,,,,,,,,0,,,46,44
552396,note_off,156,0,4,,,,,,,,,3,,,63,0
552420,note_on,0,0,1,,,,,,,,,0,,,48,45
552420,note_off,60,0,1,,,,,,,,,0,,,46,0
552480,set_tempo,120,1,0,,,,,,309278,,,,,,,
552480,note_off,60,0,1,,,,,,,,,0,,,48,0
552480,note_on,0,0,1,,,,,,,,,0,,,49,52
552720,note_on,324,0,4,,,,,,,,,3,,,58,44
552776,note_off,296,0,1,,,,,,,,,0,,,49,0
552876,note_off,156,0,4,,,,,,,,,3,,,58,0
552960,note_on,84,0,4,,,,,,,,,3,,,61,44
553116,note_off,156,0,4,,,,,,,,,3,,,61,0
553200,note_on,424,0,1,,,,,,,,,0,,,49,38
553200,note_on,84,0,4,,,,,,,,,3,,,64,43
553260,note_off,60,0,1,,,,,,,,,0,,,49,0
553260,note_on,0,0,1,,,,,,,,,0,,,48,40
553320,set_tempo,840,1,0,,,,,,312500,,,,,,,
553320,note_on,0,0,1,,,,,,,,,0,,,46,43
553320,note_off,60,0,1,,,,,,,,,0,,,48,0
553356,note_off,156,0,4,,,,,,,,,3,,,64,0
553380,note_off,60,0,1,,,,,,,,,0,,,46,0
553380,note_on,0,0,1,,,,,,,,,0,,,44,45
553440,note_on,0,0,1,,,,,,,,,0,,,43,53
553440,set_tempo,120,1,0,,,,,,309278,,,,,,,
553440,note_off,60,0,1,,,,,,,,,0,,,44,0
553680,note_on,324,0,4,,,,,,,,,3,,,58,43
553725,note_off,285,0,1,,,,,,,,,0,,,43,0
553836,note_off,156,0,4,,,,,,,,,3,,,58,0
553920,note_on,84,0,4,,,,,,,,,3,,,61,42
554076,note_off,156,0,4,,,,,,,,,3,,,61,0
554160,note_on,435,0,1,,,,,,,,,0,,,43,35
554160,note_on,84,0,4,,,,,,,,,3,,,63,42
554220,note_on,0,0,1,,,,,,,,,0,,,44,36
554220,note_off,60,0,1,,,,,,,,,0,,,43,0
554280,set_tempo,840,1,0,,,,,,312500,,,,,,,
554280,note_on,0,0,1,,,,,,,,,0,,,46,37
554280,note_off,60,0,1,,,,,,,,,0,,,44,0
554316,note_off,156,0,4,,,,,,,,,3,,,63,0
554340,note_on,0,0,1,,,,,,,,,0,,,48,39
554340,note_off,60,0,1,,,,,,,,,0,,,46,0
554400,set_tempo,120,1,0,,,,,,309278,,,,,,,
554400,note_on,0,0,1,,,,,,,,,0,,,49,48
554400,note_off,60,0,1,,,,,,,,,0,,,48,0
554640,note_on,324,0,4,,,,,,,,,3,,,58,41
554685,note_off,285,0,1,,,,,,,,,0,,,49,0
554796,note_off,156,0,4,,,,,,,,,3,,,58,0
554880,note_on,84,0,4,,,,,,,,,3,,,61,41
555036,note_off,156,0,4,,,,,,,,,3,,,61,0
555120,note_on,84,0,4,,,,,,,,,3,,,64,40
555120,note_on,435,0,1,,,,,,,,,0,,,49,33
555180,note_on,0,0,1,,,,,,,,,0,,,48,35
555180,note_off,60,0,1,,,,,,,,,0,,,49,0
555240,note_off,60,0,1,,,,,,,,,0,,,48,0
555240,set_tempo,840,1,0,,,,,,312500,,,,,,,
555240,note_on,0,0,1,,,,,,,,,0,,,46,37
555276,note_off,156,0,4,,,,,,,,,3,,,64,0
555300,note_off,60,0,1,,,,,,,,,0,,,46,0
555300,note_on,0,0,1,,,,,,,,,0,,,44,39
555360,set_tempo,120,1,0,,,,,,309278,,,,,,,
555360,note_on,0,0,1,,,,,,,,,0,,,43,45
555360,note_off,60,0,1,,,,,,,,,0,,,44,0
555600,note_on,324,0,4,,,,,,,,,3,,,58,40
555600,note_on,0,0,4,,,,,,,,,3,,,63,40
555600,note_on,0,0,4,,,,,,,,,3,,,61,40
555612,note_off,252,0,1,,,,,,,,,0,,,43,0
555756,note_off,0,0,4,,,,,,,,,3,,,58,0
555756,note_off,0,0,4,,,,,,,,,3,,,61,0
555756,note_off,156,0,4,,,,,,,,,3,,,63,0
555840,control_change,228,0,1,,,,,,,10,73,0,,,,
555840,note_on,0,0,1,,,,,,,,,0,,,58,56
555996,note_off,156,0,1,,,,,,,,,0,,,58,0
556080,note_on,84,0,1,,,,,,,,,0,,,56,49
556236,note_off,156,0,1,,,,,,,,,0,,,56,0
556320,note_on,84,0,1,,,,,,,,,0,,,55,50
556476,note_off,156,0,1,,,,,,,,,0,,,55,0
556560,note_on,84,0,1,,,,,,,,,0,,,53,50
556716,note_off,156,0,1,,,,,,,,,0,,,53,0
556800,note_on,84,0,1,,,,,,,,,0,,,51,51
556956,note_off,156,0,1,,,,,,,,,0,,,51,0
557040,note_on,84,0,1,,,,,,,,,0,,,50,51
557196,note_off,156,0,1,,,,,,,,,0,,,50,0
557280,note_on,84,0,1,,,,,,,,,0,,,51,52
557520,note_on,1764,0,4,,,,,,,,,3,,,39,69
557524,note_off,244,0,1,,,,,,,,,0,,,51,0
557760,note_on,236,0,1,,,,,,,,,0,,,61,63
557760,note_on,240,0,4,,,,,,,,,3,,,58,65
557916,note_off,156,0,1,,,,,,,,,0,,,61,0
557916,note_off,156,0,4,,,,,,,,,3,,,58,0
558000,note_on,84,0,4,,,,,,,,,3,,,56,47
558000,note_on,84,0,1,,,,,,,,,0,,,60,53
558156,note_off,156,0,4,,,,,,,,,3,,,56,0
558156,note_off,156,0,1,,,,,,,,,0,,,60,0
558240,note_on,84,0,4,,,,,,,,,3,,,55,47
558240,note_on,84,0,1,,,,,,,,,0,,,58,54
558396,note_off,156,0,1,,,,,,,,,0,,,58,0
558396,note_off,156,0,4,,,,,,,,,3,,,55,0
558480,note_on,84,0,1,,,,,,,,,0,,,56,54
558480,note_on,84,0,4,,,,,,,,,3,,,53,48
558636,note_off,156,0,4,,,,,,,,,3,,,53,0
558636,note_off,156,0,1,,,,,,,,,0,,,56,0
558720,note_on,84,0,4,,,,,,,,,3,,,51,49
558720,note_on,84,0,1,,,,,,,,,0,,,55,55
558876,note_off,156,0,4,,,,,,,,,3,,,51,0
558876,note_off,156,0,1,,,,,,,,,0,,,55,0
558960,note_on,84,0,1,,,,,,,,,0,,,53,55
558960,note_on,84,0,4,,,,,,,,,3,,,50,50
559116,note_off,156,0,4,,,,,,,,,3,,,50,0
559116,note_off,156,0,1,,,,,,,,,0,,,53,0
559200,note_on,84,0,1,,,,,,,,,0,,,51,56
559200,note_on,84,0,4,,,,,,,,,3,,,51,50
559356,note_off,156,0,4,,,,,,,,,3,,,51,0
559357,note_off,1,0,4,,,,,,,,,3,,,39,0
559440,note_on,83,0,4,,,,,,,,,3,,,39,72
559444,note_off,244,0,1,,,,,,,,,0,,,51,0
559680,note_on,236,0,1,,,,,,,,,0,,,82,67
559680,note_on,240,0,4,,,,,,,,,3,,,61,67
559836,note_off,156,0,1,,,,,,,,,0,,,82,0
559836,note_off,156,0,4,,,,,,,,,3,,,61,0
559920,note_on,84,0,4,,,,,,,,,3,,,60,52
559920,note_on,84,0,1,,,,,,,,,0,,,80,57
560076,note_off,156,0,1,,,,,,,,,0,,,80,0
560076,note_off,156,0,4,,,,,,,,,3,,,60,0
560160,note_on,84,0,1,,,,,,,,,0,,,79,58
560160,note_on,84,0,4,,,,,,,,,3,,,58,53
560316,note_off,156,0,4,,,,,,,,,3,,,58,0
560316,note_off,156,0,1,,,,,,,,,0,,,79,0
560400,note_on,84,0,4,,,,,,,,,3,,,56,54
560400,note_on,84,0,1,,,,,,,,,0,,,77,58
560556,note_off,156,0,4,,,,,,,,,3,,,56,0
560556,note_off,156,0,1,,,,,,,,,0,,,77,0
560640,note_on,84,0,1,,,,,,,,,0,,,75,59
560640,note_on,84,0,4,,,,,,,,,3,,,55,55
560796,note_off,156,0,1,,,,,,,,,0,,,75,0
560796,note_off,156,0,4,,,,,,,,,3,,,55,0
560880,note_on,84,0,4,,,,,,,,,3,,,53,55
560880,note_on,84,0,1,,,,,,,,,0,,,74,59
561036,note_off,156,0,1,,,,,,,,,0,,,74,0
561036,note_off,156,0,4,,,,,,,,,3,,,53,0
561120,note_on,84,0,1,,,,,,,,,0,,,75,60
561120,note_on,84,0,4,,,,,,,,,3,,,51,56
561276,note_off,156,0,4,,,,,,,,,3,,,51,0
561285,note_off,9,0,4,,,,,,,,,3,,,39,0
561360,note_on,75,0,4,,,,,,,,,3,,,39,78
561375,note_off,255,0,1,,,,,,,,,0,,,75,0
561600,note_on,225,0,1,,,,,,,,,0,,,85,70
561600,note_on,240,0,4,,,,,,,,,3,,,61,73
561756,note_off,156,0,4,,,,,,,,,3,,,61,0
561756,note_off,156,0,1,,,,,,,,,0,,,85,0
561840,note_on,84,0,4,,,,,,,,,3,,,60,58
561840,note_on,84,0,1,,,,,,,,,0,,,84,61
561996,note_off,156,0,4,,,,,,,,,3,,,60,0
561996,note_off,156,0,1,,,,,,,,,0,,,84,0
562080,note_on,84,0,4,,,,,,,,,3,,,58,59
562080,note_on,84,0,1,,,,,,,,,0,,,82,62
562236,note_off,156,0,4,,,,,,,,,3,,,58,0
562236,note_off,156,0,1,,,,,,,,,0,,,82,0
562320,note_on,84,0,4,,,,,,,,,3,,,56,60
562320,note_on,84,0,1,,,,,,,,,0,,,80,63
562476,note_off,156,0,1,,,,,,,,,0,,,80,0
562476,note_off,156,0,4,,,,,,,,,3,,,56,0
562560,note_on,84,0,1,,,,,,,,,0,,,79,63
562560,note_on,84,0,4,,,,,,,,,3,,,55,60
562716,note_off,156,0,1,,,,,,,,,0,,,79,0
562716,note_off,156,0,4,,,,,,,,,3,,,55,0
562800,note_on,84,0,1,,,,,,,,,0,,,77,64
562800,note_on,84,0,4,,,,,,,,,3,,,53,61
562956,note_off,156,0,4,,,,,,,,,3,,,53,0
562956,note_off,156,0,1,,,,,,,,,0,,,77,0
563040,note_on,84,0,4,,,,,,,,,3,,,51,71
563040,note_on,84,0,1,,,,,,,,,0,,,75,64
563196,note_off,156,0,4,,,,,,,,,3,,,51,0
563280,note_on,84,0,4,,,,,,,,,3,,,50,83
563306,note_off,266,0,1,,,,,,,,,0,,,75,0
563436,note_off,156,0,4,,,,,,,,,3,,,50,0
563520,note_on,214,0,1,,,,,,,,,0,,,85,91
563520,note_on,84,0,4,,,,,,,,,3,,,49,82
563676,note_off,156,0,1,,,,,,,,,0,,,85,0
563676,note_off,156,0,4,,,,,,,,,3,,,49,0
563760,note_on,84,0,1,,,,,,,,,0,,,84,83
563760,note_on,84,0,4,,,,,,,,,3,,,48,82
563916,note_off,156,0,1,,,,,,,,,0,,,84,0
563916,note_off,156,0,4,,,,,,,,,3,,,48,0
564000,note_on,84,0,1,,,,,,,,,0,,,82,82
564000,note_on,84,0,4,,,,,,,,,3,,,46,81
564156,note_off,156,0,1,,,,,,,,,0,,,82,0
564156,note_off,156,0,4,,,,,,,,,3,,,46,0
564240,note_on,84,0,1,,,,,,,,,0,,,80,81
564240,note_on,84,0,4,,,,,,,,,3,,,44,80
564396,note_off,156,0,4,,,,,,,,,3,,,44,0
564396,note_off,156,0,1,,,,,,,,,0,,,80,0
564480,note_on,84,0,1,,,,,,,,,0,,,79,80
564480,note_on,84,0,4,,,,,,,,,3,,,43,79
564636,note_off,156,0,1,,,,,,,,,0,,,79,0
564636,note_off,156,0,4,,,,,,,,,3,,,43,0
564720,note_on,84,0,4,,,,,,,,,3,,,41,78
564720,note_on,84,0,1,,,,,,,,,0,,,77,79
564876,note_off,156,0,4,,,,,,,,,3,,,41,0
564876,note_off,156,0,1,,,,,,,,,0,,,77,0
564930,note_off,54,0,4,,,,,,,,,3,,,39,0
564960,note_on,30,0,4,,,,,,,,,3,,,39,77
564960,note_on,84,0,1,,,,,,,,,0,,,75,78
565116,note_off,156,0,1,,,,,,,,,0,,,75,0
565200,note_on,84,0,1,,,,,,,,,0,,,74,77
565356,note_off,156,0,1,,,,,,,,,0,,,74,0
565440,note_on,84,0,1,,,,,,,,,0,,,73,76
565596,note_off,156,0,1,,,,,,,,,0,,,73,0
565680,note_on,84,0,1,,,,,,,,,0,,,72,75
565836,note_off,156,0,1,,,,,,,,,0,,,72,0
565920,note_on,84,0,1,,,,,,,,,0,,,70,74
566076,note_off,156,0,1,,,,,,,,,0,,,70,0
566160,note_on,84,0,1,,,,,,,,,0,,,68,73
566316,note_off,156,0,1,,,,,,,,,0,,,68,0
566400,note_on,84,0,1,,,,,,,,,0,,,67,72
566556,note_off,156,0,1,,,,,,,,,0,,,67,0
566640,note_on,84,0,1,,,,,,,,,0,,,65,71
566796,note_off,156,0,1,,,,,,,,,0,,,65,0
566880,note_on,84,0,1,,,,,,,,,0,,,63,70
567036,note_off,156,0,1,,,,,,,,,0,,,63,0
567120,note_on,84,0,1,,,,,,,,,0,,,62,69
567276,note_off,156,0,1,,,,,,,,,0,,,62,0
567360,note_on,84,0,1,,,,,,,,,0,,,61,68
567516,note_off,156,0,1,,,,,,,,,0,,,61,0
567600,note_on,84,0,1,,,,,,,,,0,,,60,67
567756,note_off,156,0,1,,,,,,,,,0,,,60,0
567840,note_on,84,0,1,,,,,,,,,0,,,58,65
567996,note_off,156,0,1,,,,,,,,,0,,,58,0
568080,note_on,84,0,1,,,,,,,,,0,,,56,64
568236,note_off,156,0,1,,,,,,,,,0,,,56,0
568320,note_on,84,0,1,,,,,,,,,0,,,55,63
568476,note_off,156,0,1,,,,,,,,,0,,,55,0
568560,note_on,84,0,1,,,,,,,,,0,,,53,63
568716,note_off,156,0,1,,,,,,,,,0,,,53,0
568800,note_on,84,0,1,,,,,,,,,0,,,51,61
568807,note_off,3847,0,4,,,,,,,,,3,,,39,0
568956,note_off,156,0,1,,,,,,,,,0,,,51,0
569040,note_on,233,0,4,,,,,,,,,3,,,50,58
569194,note_off,154,0,4,,,,,,,,,3,,,50,0
569280,note_on,86,0,4,,,,,,,,,3,,,49,57
569446,note_off,166,0,4,,,,,,,,,3,,,49,0
569520,note_on,74,0,4,,,,,,,,,3,,,48,56
569698,note_off,178,0,4,,,,,,,,,3,,,48,0
569760,note_on,62,0,4,,,,,,,,,3,,,46,55
569950,note_off,190,0,4,,,,,,,,,3,,,46,0
570000,note_on,50,0,4,,,,,,,,,3,,,44,54
570202,note_off,202,0,4,,,,,,,,,3,,,44,0
570240,note_on,38,0,4,,,,,,,,,3,,,43,52
570454,note_off,214,0,4,,,,,,,,,3,,,43,0
570480,set_tempo,15120,1,0,,,,,,312500,,,,,,,
570480,note_on,26,0,4,,,,,,,,,3,,,41,51
570706,note_off,226,0,4,,,,,,,,,3,,,41,0
570720,note_on,14,0,4,,,,,,,,,3,,,40,50
570961,note_off,241,0,4,,,,,,,,,3,,,40,0
571200,note_on,239,0,4,,,,,,,,,3,,,39,46
571462,note_off,262,0,4,,,,,,,,,3,,,39,0
571680,note_on,218,0,4,,,,,,,,,3,,,38,43
571963,note_off,283,0,4,,,,,,,,,3,,,38,0
572160,note_on,197,0,4,,,,,,,,,3,,,37,39
572400,set_tempo,1920,1,0,,,,,,315789,,,,,,,
572464,note_off,304,0,4,,,,,,,,,3,,,37,0
572640,note_on,176,0,4,,,,,,,,,3,,,36,36
572965,note_off,325,0,4,,,,,,,,,3,,,36,0
573120,note_on,155,0,4,,,,,,,,,3,,,35,32
573465,note_off,345,0,4,,,,,,,,,3,,,35,0
573600,set_tempo,1200,1,0,,,,,,319148,,,,,,,
573600,note_on,135,0,4,,,,,,,,,3,,,34,29
573966,note_off,366,0,4,,,,,,,,,3,,,34,0
574080,set_tempo,480,1,0,,,,,,394736,,,,,,,
574080,note_on,114,0,4,,,,,,,,,3,,,33,25
574467,note_off,387,0,4,,,,,,,,,3,,,33,0
574560,note_on,5604,0,1,,,,,,,,,0,,,60,54
574560,note_on,36953,0,2,,,,,,,,,1,,,51,54
574560,note_on,0,0,2,,,,,,,,,1,,,56,54
574560,set_tempo,480,1,0,,,,,,306122,,,,,,,
574800,note_on,333,0,4,,,,,,,,,3,,,32,44
574956,note_off,156,0,4,,,,,,,,,3,,,32,0
575040,note_on,84,0,4,,,,,,,,,3,,,36,44
575196,note_off,156,0,4,,,,,,,,,3,,,36,0
575280,note_on,84,0,4,,,,,,,,,3,,,39,45
575436,note_off,156,0,4,,,,,,,,,3,,,39,0
575520,note_on,84,0,4,,,,,,,,,3,,,44,46
575676,note_off,156,0,4,,,,,,,,,3,,,44,0
575760,note_on,84,0,4,,,,,,,,,3,,,32,46
575887,note_off,1327,0,2,,,,,,,,,1,,,56,0
575887,note_off,0,0,2,,,,,,,,,1,,,51,0
575887,note_off,1327,0,1,,,,,,,,,0,,,60,0
575916,note_off,156,0,4,,,,,,,,,3,,,32,0
576000,note_on,113,0,1,,,,,,,,,0,,,61,62
576000,note_on,84,0,4,,,,,,,,,3,,,34,55
576000,note_on,113,0,2,,,,,,,,,1,,,51,62
576000,note_on,0,0,2,,,,,,,,,1,,,55,62
576156,note_off,156,0,4,,,,,,,,,3,,,34,0
576240,note_on,84,0,4,,,,,,,,,3,,,46,51
576360,set_tempo,1800,1,0,,,,,,312500,,,,,,,
576396,note_off,156,0,4,,,,,,,,,3,,,46,0
576480,note_off,480,0,2,,,,,,,,,1,,,55,0
576480,note_off,0,0,2,,,,,,,,,1,,,51,0
576480,note_on,0,0,2,,,,,,,,,1,,,56,54
576480,note_on,0,0,2,,,,,,,,,1,,,51,54
576480,note_on,0,0,1,,,,,,,,,0,,,63,54
576480,set_tempo,120,1,0,,,,,,306122,,,,,,,
576480,note_off,480,0,1,,,,,,,,,0,,,61,0
576720,note_on,324,0,4,,,,,,,,,3,,,36,49
576876,note_off,156,0,4,,,,,,,,,3,,,36,0
576960,note_on,84,0,4,,,,,,,,,3,,,39,49
577116,note_off,156,0,4,,,,,,,,,3,,,39,0
577200,note_on,84,0,4,,,,,,,,,3,,,44,50
577356,note_off,156,0,4,,,,,,,,,3,,,44,0
577440,note_on,84,0,4,,,,,,,,,3,,,48,50
577596,note_off,156,0,4,,,,,,,,,3,,,48,0
577680,note_on,84,0,4,,,,,,,,,3,,,36,51
577836,note_off,156,0,4,,,,,,,,,3,,,36,0
577920,note_off,0,0,2,,,,,,,,,1,,,56,0
577920,note_on,0,0,1,,,,,,,,,0,,,65,76
577920,note_off,1440,0,1,,,,,,,,,0,,,63,0
577920,note_on,84,0,4,,,,,,,,,3,,,37,61
577920,note_on,0,0,2,,,,,,,,,1,,,53,76
577920,note_off,1440,0,2,,,,,,,,,1,,,51,0
578076,note_off,156,0,4,,,,,,,,,3,,,37,0
578160,note_on,84,0,4,,,,,,,,,3,,,49,58
578280,note_off,360,0,1,,,,,,,,,0,,,65,0
578280,set_tempo,1800,1,0,,,,,,312500,,,,,,,
578316,note_off,156,0,4,,,,,,,,,3,,,49,0
578400,note_on,84,0,4,,,,,,,,,3,,,34,59
578400,set_tempo,120,1,0,,,,,,306122,,,,,,,
578400,note_on,120,0,1,,,,,,,,,0,,,61,73
578556,note_off,156,0,4,,,,,,,,,3,,,34,0
578640,note_on,84,0,4,,,,,,,,,3,,,46,56
578796,note_off,156,0,4,,,,,,,,,3,,,46,0
578880,note_on,84,0,4,,,,,,,,,3,,,31,54
578880,note_off,960,0,2,,,,,,,,,1,,,53,0
578880,note_on,0,0,2,,,,,,,,,1,,,58,63
578880,note_on,0,0,1,,,,,,,,,0,,,63,69
578880,note_off,480,0,1,,,,,,,,,0,,,61,0
579036,note_off,156,0,1,,,,,,,,,0,,,63,0
579036,note_off,156,0,4,,,,,,,,,3,,,31,0
579036,note_off,156,0,2,,,,,,,,,1,,,58,0
579120,note_on,84,0,4,,,,,,,,,3,,,43,53
579276,note_off,156,0,4,,,,,,,,,3,,,43,0
579360,note_on,324,0,1,,,,,,,,,0,,,60,65
579360,note_on,84,0,4,,,,,,,,,3,,,32,52
579360,note_on,324,0,2,,,,,,,,,1,,,51,60
579516,note_off,156,0,2,,,,,,,,,1,,,51,0
579516,note_off,156,0,1,,,,,,,,,0,,,60,0
579516,note_off,156,0,4,,,,,,,,,3,,,32,0
579600,note_on,84,0,4,,,,,,,,,3,,,44,52
579756,note_off,156,0,4,,,,,,,,,3,,,44,0
579840,note_on,324,0,2,,,,,,,,,1,,,56,57
579840,note_on,84,0,4,,,,,,,,,3,,,36,51
579840,note_on,0,0,2,,,,,,,,,1,,,51,57
579996,note_off,156,0,2,,,,,,,,,1,,,51,0
579996,note_off,0,0,2,,,,,,,,,1,,,56,0
579996,note_off,156,0,4,,,,,,,,,3,,,36,0
580080,note_on,84,0,4,,,,,,,,,3,,,48,50
580200,set_tempo,1800,1,0,,,,,,309278,,,,,,,
580236,note_off,156,0,4,,,,,,,,,3,,,48,0
580320,set_tempo,120,1,0,,,,,,306122,,,,,,,
580320,note_on,84,0,4,,,,,,,,,3,,,39,50
580320,note_on,324,0,2,,,,,,,,,1,,,55,60
580320,note_on,804,0,1,,,,,,,,,0,,,58,60
580476,note_off,156,0,4,,,,,,,,,3,,,39,0
580560,note_on,84,0,4,,,,,,,,,3,,,51,59
580716,note_off,156,0,4,,,,,,,,,3,,,51,0
580800,note_on,84,0,4,,,,,,,,,3,,,51,57
580956,note_off,156,0,4,,,,,,,,,3,,,51,0
581040,note_on,84,0,4,,,,,,,,,3,,,51,55
581196,note_off,156,0,4,,,,,,,,,3,,,51,0
581280,note_on,84,0,4,,,,,,,,,3,,,51,54
581436,note_off,156,0,4,,,,,,,,,3,,,51,0
581520,note_off,1200,0,1,,,,,,,,,0,,,58,0
581520,note_off,1200,0,2,,,,,,,,,1,,,55,0
581520,note_on,0,0,2,,,,,,,,,1,,,51,52
581520,note_on,0,0,1,,,,,,,,,0,,,55,52
581520,note_on,84,0,4,,,,,,,,,3,,,49,52
581676,note_off,156,0,2,,,,,,,,,1,,,51,0
581676,note_off,156,0,1,,,,,,,,,0,,,55,0
581676,note_off,156,0,4,,,,,,,,,3,,,49,0
581760,note_on,84,0,2,,,,,,,,,1,,,53,51
581760,note_on,84,0,4,,,,,,,,,3,,,48,50
581760,note_on,84,0,1,,,,,,,,,0,,,56,51
581916,note_off,156,0,1,,,,,,,,,0,,,56,0
581916,note_off,156,0,2,,,,,,,,,1,,,53,0
581916,note_off,156,0,4,,,,,,,,,3,,,48,0
582000,note_on,84,0,1,,,,,,,,,0,,,58,51
582000,note_on,84,0,2,,,,,,,,,1,,,55,51
582000,note_on,84,0,4,,,,,,,,,3,,,46,48
582135,set_tempo,1815,1,0,,,,,,309278,,,,,,,
582156,note_off,156,0,2,,,,,,,,,1,,,55,0
582156,note_off,156,0,4,,,,,,,,,3,,,46,0
582156,note_off,156,0,1,,,,,,,,,0,,,58,0
582240,note_on,84,0,2,,,,,,,,,1,,,51,58
582240,set_tempo,105,1,0,,,,,,306122,,,,,,,
582240,note_on,84,0,4,,,,,,,,,3,,,44,46
582240,note_on,0,0,2,,,,,,,,,1,,,56,58
582240,note_on,84,0,1,,,,,,,,,0,,,60,58
582396,note_off,156,0,4,,,,,,,,,3,,,44,0
582480,note_on,84,0,4,,,,,,,,,3,,,32,47
582636,note_off,156,0,4,,,,,,,,,3,,,32,0
582720,note_on,84,0,4,,,,,,,,,3,,,36,48
582876,note_off,156,0,4,,,,,,,,,3,,,36,0
582960,note_on,84,0,4,,,,,,,,,3,,,39,49
583116,note_off,156,0,4,,,,,,,,,3,,,39,0
583200,note_on,84,0,4,,,,,,,,,3,,,44,49
583356,note_off,156,0,4,,,,,,,,,3,,,44,0
583440,note_on,84,0,4,,,,,,,,,3,,,32,50
583596,note_off,156,0,4,,,,,,,,,3,,,32,0
583680,note_on,0,0,2,,,,,,,,,1,,,55,70
583680,note_on,0,0,2,,,,,,,,,1,,,51,70
583680,note_off,0,0,2,,,,,,,,,1,,,51,0
583680,note_off,1440,0,2,,,,,,,,,1,,,56,0
583680,note_on,84,0,4,,,,,,,,,3,,,34,59
583680,note_off,1440,0,1,,,,,,,,,0,,,60,0
583680,note_on,0,0,1,,,,,,,,,0,,,61,70
583836,note_off,156,0,4,,,,,,,,,3,,,34,0
583920,note_on,84,0,4,,,,,,,,,3,,,46,56
584040,note_off,360,0,2,,,,,,,,,1,,,55,0
584040,note_off,360,0,1,,,,,,,,,0,,,61,0
584040,set_tempo,1800,1,0,,,,,,312500,,,,,,,
584040,note_off,0,0,2,,,,,,,,,1,,,51,0
584076,note_off,156,0,4,,,,,,,,,3,,,46,0
584160,set_tempo,120,1,0,,,,,,306122,,,,,,,
584160,note_on,120,0,1,,,,,,,,,0,,,63,60
584160,note_on,120,0,2,,,,,,,,,1,,,51,60
584160,note_on,0,0,2,,,,,,,,,1,,,56,60
584400,note_on,324,0,4,,,,,,,,,3,,,36,54
584556,note_off,156,0,4,,,,,,,,,3,,,36,0
584640,note_on,84,0,4,,,,,,,,,3,,,39,55
584796,note_off,156,0,4,,,,,,,,,3,,,39,0
584880,note_on,84,0,4,,,,,,,,,3,,,44,56
585036,note_off,156,0,4,,,,,,,,,3,,,44,0
585120,note_on,84,0,4,,,,,,,,,3,,,48,57
585276,note_off,156,0,4,,,,,,,,,3,,,48,0
585360,note_on,84,0,4,,,,,,,,,3,,,36,58
585516,note_off,156,0,4,,,,,,,,,3,,,36,0
585600,note_on,84,0,4,,,,,,,,,3,,,37,69
585600,note_off,0,0,2,,,,,,,,,1,,,51,0
585600,note_on,0,0,1,,,,,,,,,0,,,65,75
585600,note_off,1440,0,1,,,,,,,,,0,,,63,0
585600,note_on,0,0,2,,,,,,,,,1,,,53,75
585600,note_off,1440,0,2,,,,,,,,,1,,,56,0
585756,note_off,156,0,4,,,,,,,,,3,,,37,0
585840,note_on,84,0,4,,,,,,,,,3,,,49,66
585960,set_tempo,1800,1,0,,,,,,312500,,,,,,,
585967,note_off,367,0,1,,,,,,,,,0,,,65,0
585996,note_off,156,0,4,,,,,,,,,3,,,49,0
586080,note_on,113,0,1,,,,,,,,,0,,,61,70
586080,note_on,84,0,4,,,,,,,,,3,,,34,64
586080,set_tempo,120,1,0,,,,,,306122,,,,,,,
586236,note_off,156,0,4,,,,,,,,,3,,,34,0
586320,note_on,84,0,4,,,,,,,,,3,,,46,60
586476,note_off,156,0,4,,,,,,,,,3,,,46,0
586560,note_off,960,0,2,,,,,,,,,1,,,53,0
586560,note_on,0,0,1,,,,,,,,,0,,,63,65
586560,note_off,480,0,1,,,,,,,,,0,,,61,0
586560,note_on,84,0,4,,,,,,,,,3,,,31,60
586560,note_on,0,0,2,,,,,,,,,1,,,58,62
586716,note_off,156,0,1,,,,,,,,,0,,,63,0
586716,note_off,156,0,4,,,,,,,,,3,,,31,0
586716,note_off,156,0,2,,,,,,,,,1,,,58,0
586800,note_on,84,0,4,,,,,,,,,3,,,43,59
586956,note_off,156,0,4,,,,,,,,,3,,,43,0
587040,note_on,324,0,2,,,,,,,,,1,,,51,59
587040,note_on,324,0,1,,,,,,,,,0,,,60,61
587040,note_on,84,0,4,,,,,,,,,3,,,32,58
587196,note_off,156,0,1,,,,,,,,,0,,,60,0
587196,note_off,156,0,2,,,,,,,,,1,,,51,0
587196,note_off,156,0,4,,,,,,,,,3,,,32,0
587280,note_on,84,0,4,,,,,,,,,3,,,44,57
587436,note_off,156,0,4,,,,,,,,,3,,,44,0
587520,note_on,324,0,2,,,,,,,,,1,,,51,56
587520,note_on,84,0,4,,,,,,,,,3,,,36,56
587520,note_on,324,0,1,,,,,,,,,0,,,56,56
587676,note_off,156,0,4,,,,,,,,,3,,,36,0
587676,note_off,156,0,2,,,,,,,,,1,,,51,0
587676,note_off,156,0,1,,,,,,,,,0,,,56,0
587760,note_on,84,0,4,,,,,,,,,3,,,48,55
587880,set_tempo,1800,1,0,,,,,,309278,,,,,,,
587916,note_off,156,0,4,,,,,,,,,3,,,48,0
588000,note_on,324,0,1,,,,,,,,,0,,,58,61
588000,note_on,324,0,2,,,,,,,,,1,,,51,61
588000,note_on,0,0,2,,,,,,,,,1,,,49,61
588000,note_on,84,0,4,,,,,,,,,3,,,39,54
588156,note_off,156,0,4,,,,,,,,,3,,,39,0
588240,note_on,84,0,4,,,,,,,,,3,,,39,57
588396,note_off,156,0,4,,,,,,,,,3,,,39,0
588480,note_on,84,0,4,,,,,,,,,3,,,43,54
588636,note_off,156,0,4,,,,,,,,,3,,,43,0
588720,note_on,84,0,4,,,,,,,,,3,,,39,51
588735,set_tempo,855,1,0,,,,,,312500,,,,,,,
588876,note_off,156,0,4,,,,,,,,,3,,,39,0
588960,note_off,0,0,2,,,,,,,,,1,,,51,0
588960,note_on,84,0,4,,,,,,,,,3,,,32,48
588960,note_off,960,0,1,,,,,,,,,0,,,58,0
588960,note_on,0,0,2,,,,,,,,,1,,,51,52
588960,note_on,0,0,2,,,,,,,,,1,,,48,52
588960,note_on,0,0,1,,,,,,,,,0,,,56,52
588960,note_off,960,0,2,,,,,,,,,1,,,49,0
588960,note_on,0,0,4,,,,,,,,,3,,,44,48
588960,set_tempo,225,1,0,,,,,,315789,,,,,,,
589200,note_off,240,0,4,,,,,,,,,3,,,44,0
589200,note_off,0,0,4,,,,,,,,,3,,,32,0
589200,note_off,240,0,1,,,,,,,,,0,,,56,0
589200,note_off,240,0,2,,,,,,,,,1,,,48,0
589200,note_off,0,0,2,,,,,,,,,1,,,51,0
589320,set_tempo,360,1,0,,,,,,309278,,,,,,,
589440,note_on,240,0,1,,,,,,,,,0,,,80,48
589440,note_on,240,0,2,,,,,,,,,1,,,72,48
589440,note_on,110400,0,3,,,,,,,,,2,,,68,48
589440,note_on,240,0,4,,,,,,,,,3,,,56,48
589680,note_off,240,0,2,,,,,,,,,1,,,72,0
589680,note_off,240,0,4,,,,,,,,,3,,,56,0
589680,note_off,240,0,1,,,,,,,,,0,,,80,0
589680,note_off,240,0,3,,,,,,,,,2,,,68,0
589920,note_on,240,0,3,,,,,,,,,2,,,67,53
589920,note_on,240,0,2,,,,,,,,,1,,,73,55
589920,note_on,240,0,4,,,,,,,,,3,,,63,53
589920,set_tempo,600,1,0,,,,,,306122,,,,,,,
589920,note_on,240,0,1,,,,,,,,,0,,,82,55
590880,note_off,960,0,3,,,,,,,,,2,,,67,0
590880,note_on,0,0,3,,,,,,,,,2,,,68,42
590880,set_tempo,960,1,0,,,,,,315789,,,,,,,
590880,note_on,0,0,2,,,,,,,,,1,,,72,44
590880,note_off,960,0,1,,,,,,,,,0,,,82,0
590880,note_off,960,0,2,,,,,,,,,1,,,73,0
590880,note_on,0,0,1,,,,,,,,,0,,,80,44
590880,note_on,0,0,4,,,,,,,,,3,,,56,42
590880,note_off,960,0,4,,,,,,,,,3,,,63,0
591120,note_off,240,0,2,,,,,,,,,1,,,72,0
591120,note_off,240,0,4,,,,,,,,,3,,,56,0
591120,note_off,240,0,3,,,,,,,,,2,,,68,0
591120,note_off,240,0,1,,,,,,,,,0,,,80,0
591360,set_tempo,480,1,0,,,,,,309278,,,,,,,
591360,note_on,240,0,4,,,,,,,,,3,,,60,41
591360,note_on,240,0,1,,,,,,,,,0,,,72,41
591600,set_tempo,240,1,0,,,,,,312500,,,,,,,
591600,note_off,240,0,4,,,,,,,,,3,,,60,0
591600,note_off,240,0,1,,,,,,,,,0,,,72,0
591840,set_tempo,240,1,0,,,,,,309278,,,,,,,
591840,note_on,240,0,1,,,,,,,,,0,,,70,48
591840,note_on,240,0,4,,,,,,,,,3,,,58,48
592680,set_tempo,840,1,0,,,,,,312500,,,,,,,
592680,note_off,840,0,1,,,,,,,,,0,,,70,0
592680,note_on,0,0,1,,,,,,,,,0,,,68,41
592680,note_on,840,0,4,,,,,,,,,3,,,56,41
592695,note_off,15,0,4,,,,,,,,,3,,,58,0
592800,note_off,105,0,4,,,,,,,,,3,,,56,0
592800,note_on,0,0,4,,,,,,,,,3,,,55,41
592800,note_on,0,0,1,,,,,,,,,0,,,67,41
592800,note_off,120,0,1,,,,,,,,,0,,,68,0
592920,note_off,120,0,1,,,,,,,,,0,,,67,0
592920,note_off,120,0,4,,,,,,,,,3,,,55,0
593280,note_on,360,0,1,,,,,,,,,0,,,65,39
593280,note_on,360,0,4,,,,,,,,,3,,,53,38
593400,note_off,120,0,1,,,,,,,,,0,,,65,0
593400,note_off,120,0,4,,,,,,,,,3,,,53,0
593640,set_tempo,960,1,0,,,,,,315789,,,,,,,
593760,note_on,360,0,4,,,,,,,,,3,,,52,36
593760,note_on,360,0,1,,,,,,,,,0,,,64,37
594120,note_off,360,0,1,,,,,,,,,0,,,64,0
594120,note_off,360,0,4,,,,,,,,,3,,,52,0
595200,note_on,1080,0,1,,,,,,,,,0,,,65,35
595200,note_on,1080,0,4,,,,,,,,,3,,,53,34
595280,note_on,0,0,4,,,,,,,,,3,,,55,35
595280,note_off,80,0,4,,,,,,,,,3,,,53,0
595280,note_off,80,0,1,,,,,,,,,0,,,65,0
595280,note_on,0,0,1,,,,,,,,,0,,,67,36
595360,note_on,0,0,1,,,,,,,,,0,,,65,37
595360,note_off,80,0,4,,,,,,,,,3,,,55,0
595360,note_off,80,0,1,,,,,,,,,0,,,67,0
595360,note_on,0,0,4,,,,,,,,,3,,,53,35
595440,note_off,80,0,1,,,,,,,,,0,,,65,0
595440,note_on,0,0,1,,,,,,,,,0,,,64,37
595440,note_off,80,0,4,,,,,,,,,3,,,53,0
595440,note_on,0,0,4,,,,,,,,,3,,,52,36
595560,note_on,0,0,1,,,,,,,,,0,,,65,39
595560,note_off,120,0,1,,,,,,,,,0,,,64,0
595560,set_tempo,1920,1,0,,,,,,319148,,,,,,,
595560,note_off,120,0,4,,,,,,,,,3,,,52,0
595560,note_on,0,0,4,,,,,,,,,3,,,53,37
595680,note_on,0,0,4,,,,,,,,,3,,,55,42
595680,note_off,120,0,4,,,,,,,,,3,,,53,0
595680,note_off,120,0,1,,,,,,,,,0,,,65,0
595680,set_tempo,120,1,0,,,,,,309278,,,,,,,
595680,note_on,0,0,1,,,,,,,,,0,,,67,45
596520,note_on,0,0,4,,,,,,,,,3,,,53,36
596520,note_off,840,0,4,,,,,,,,,3,,,55,0
596520,note_off,840,0,1,,,,,,,,,0,,,67,0
596520,set_tempo,840,1,0,,,,,,312500,,,,,,,
596520,note_on,0,0,1,,,,,,,,,0,,,65,36
596640,note_on,0,0,4,,,,,,,,,3,,,52,36
596640,note_off,120,0,4,,,,,,,,,3,,,53,0
596640,note_on,0,0,1,,,,,,,,,0,,,64,35
596640,note_off,120,0,1,,,,,,,,,0,,,65,0
596760,note_off,120,0,1,,,,,,,,,0,,,64,0
596760,note_off,120,0,4,,,,,,,,,3,,,52,0
597120,note_on,360,0,1,,,,,,,,,0,,,62,33
597120,note_on,360,0,4,,,,,,,,,3,,,50,34
597240,note_off,120,0,4,,,,,,,,,3,,,50,0
597240,note_off,120,0,1,,,,,,,,,0,,,62,0
597495,set_tempo,975,1,0,,,,,,315789,,,,,,,
597600,note_on,360,0,4,,,,,,,,,3,,,48,32
597600,note_on,360,0,1,,,,,,,,,0,,,60,31
597960,note_off,360,0,4,,,,,,,,,3,,,48,0
597960,note_off,360,0,1,,,,,,,,,0,,,60,0
599280,set_tempo,1785,1,0,,,,,,319148,,,,,,,
599400,note_on,1440,0,4,,,,,,,,,3,,,49,34
599400,note_on,1440,0,1,,,,,,,,,0,,,61,30
599496,note_off,96,0,4,,,,,,,,,3,,,49,0
599496,note_off,96,0,1,,,,,,,,,0,,,61,0
599520,note_on,24,0,4,,,,,,,,,3,,,49,35
599520,note_on,24,0,1,,,,,,,,,0,,,61,31
600000,note_off,480,0,4,,,,,,,,,3,,,49,0
600000,set_tempo,720,1,0,,,,,,327868,,,,,,,
600000,note_off,480,0,1,,,,,,,,,0,,,61,0
600360,note_on,360,0,1,,,,,,,,,0,,,61,38
600360,note_on,360,0,4,,,,,,,,,3,,,49,42
600456,note_off,96,0,4,,,,,,,,,3,,,49,0
600456,note_off,96,0,1,,,,,,,,,0,,,61,0
600480,note_on,24,0,1,,,,,,,,,0,,,61,40
600480,note_on,24,0,4,,,,,,,,,3,,,49,43
600960,note_off,480,0,4,,,,,,,,,3,,,49,0
600960,set_tempo,960,1,0,,,,,,400000,,,,,,,
600960,note_off,480,0,1,,,,,,,,,0,,,61,0
601320,note_on,360,0,4,,,,,,,,,3,,,49,50
601320,note_on,360,0,1,,,,,,,,,0,,,61,47
601416,note_off,96,0,4,,,,,,,,,3,,,49,0
601416,note_off,96,0,1,,,,,,,,,0,,,61,0
601440,note_on,24,0,1,,,,,,,,,0,,,61,48
601440,note_on,24,0,4,,,,,,,,,3,,,49,51
602382,note_off,942,0,1,,,,,,,,,0,,,61,0
602382,note_off,942,0,4,,,,,,,,,3,,,49,0
602880,set_tempo,1920,1,0,,,,,,312500,,,,,,,
603240,note_on,858,0,1,,,,,,,,,0,,,61,74
603240,note_on,858,0,4,,,,,,,,,3,,,49,75
603336,note_off,96,0,1,,,,,,,,,0,,,61,0
603336,note_off,96,0,4,,,,,,,,,3,,,49,0
603360,note_on,24,0,4,,,,,,,,,3,,,48,81
603360,note_on,24,0,1,,,,,,,,,0,,,60,83
604320,note_on,0,0,4,,,,,,,,,3,,,46,79
604320,note_off,960,0,4,,,,,,,,,3,,,48,0
604320,note_on,0,0,1,,,,,,,,,0,,,58,78
604320,note_off,960,0,1,,,,,,,,,0,,,60,0
604440,note_off,120,0,1,,,,,,,,,0,,,58,0
604440,note_off,120,0,4,,,,,,,,,3,,,46,0
604800,note_on,360,0,4,,,,,,,,,3,,,43,77
604800,note_on,360,0,1,,,,,,,,,0,,,55,76
604920,note_off,120,0,4,,,,,,,,,3,,,43,0
604920,note_off,120,0,1,,,,,,,,,0,,,55,0
605160,set_tempo,2280,1,0,,,,,,315789,,,,,,,
605280,control_change,360,0,4,,,,,,,64,127,3,,,,
605280,note_on,0,0,4,,,,,,,,,3,,,39,84
605280,set_tempo,120,1,0,,,,,,331491,,,,,,,
605280,control_change,360,0,1,,,,,,,64,127,0,,,,
605280,note_on,0,0,1,,,,,,,,,0,,,51,81
606720,note_off,1440,0,4,,,,,,,,,3,,,39,0
606720,note_off,1440,0,1,,,,,,,,,0,,,51,0
608400,control_change,1680,0,1,,,,,,,64,0,0,,,,
608400,set_tempo,3120,1,0,,,,,,309278,,,,,,,
608400,control_change,1680,0,4,,,,,,,64,0,3,,,,
608520,note_on,120,0,1,,,,,,,,,0,,,51,48
608640,note_on,0,0,1,,,,,,,,,0,,,53,48
608640,note_off,120,0,1,,,,,,,,,0,,,51,0
608760,note_on,0,0,1,,,,,,,,,0,,,55,48
608760,note_off,120,0,1,,,,,,,,,0,,,53,0
608880,note_on,0,0,1,,,,,,,,,0,,,56,49
608880,note_off,120,0,1,,,,,,,,,0,,,55,0
609000,note_on,0,0,1,,,,,,,,,0,,,58,49
609000,note_off,120,0,1,,,,,,,,,0,,,56,0
609000,set_tempo,600,1,0,,,,,,312500,,,,,,,
609120,set_tempo,120,1,0,,,,,,306122,,,,,,,
609120,note_on,0,0,1,,,,,,,,,0,,,60,50
609120,note_off,120,0,1,,,,,,,,,0,,,58,0
609360,note_on,960,0,4,,,,,,,,,3,,,32,44
609360,note_on,18240,0,2,,,,,,,,,1,,,51,51
609516,note_off,156,0,2,,,,,,,,,1,,,51,0
609516,note_off,156,0,4,,,,,,,,,3,,,32,0
609600,note_on,84,0,2,,,,,,,,,1,,,51,51
609600,note_on,84,0,4,,,,,,,,,3,,,36,44
609756,note_off,156,0,2,,,,,,,,,1,,,51,0
609756,note_off,156,0,4,,,,,,,,,3,,,36,0
609840,note_on,84,0,2,,,,,,,,,1,,,51,52
609840,note_on,84,0,4,,,,,,,,,3,,,39,45
609996,note_off,156,0,4,,,,,,,,,3,,,39,0
609996,note_off,156,0,2,,,,,,,,,1,,,51,0
610080,note_on,84,0,4,,,,,,,,,3,,,44,46
610080,note_on,84,0,2,,,,,,,,,1,,,51,53
610236,note_off,156,0,4,,,,,,,,,3,,,44,0
610236,note_off,156,0,2,,,,,,,,,1,,,51,0
610320,note_on,84,0,4,,,,,,,,,3,,,43,46
610320,note_on,84,0,2,,,,,,,,,1,,,59,63
610335,note_off,1215,0,1,,,,,,,,,0,,,60,0
610476,note_off,156,0,2,,,,,,,,,1,,,59,0
610476,note_off,156,0,4,,,,,,,,,3,,,43,0
610560,note_on,84,0,4,,,,,,,,,3,,,44,55
610560,note_on,225,0,1,,,,,,,,,0,,,60,59
610716,note_off,156,0,1,,,,,,,,,0,,,60,0
610716,note_off,156,0,4,,,,,,,,,3,,,44,0
610800,note_on,84,0,1,,,,,,,,,0,,,62,55
610800,note_on,84,0,4,,,,,,,,,3,,,46,51
610950,set_tempo,1830,1,0,,,,,,312500,,,,,,,
610956,note_off,156,0,1,,,,,,,,,0,,,62,0
610956,note_off,156,0,4,,,,,,,,,3,,,46,0
611040,set_tempo,90,1,0,,,,,,306122,,,,,,,
611040,note_on,84,0,1,,,,,,,,,0,,,63,61
611040,note_on,84,0,4,,,,,,,,,3,,,48,51
611196,note_off,156,0,4,,,,,,,,,3,,,48,0
611280,note_on,84,0,4,,,,,,,,,3,,,36,49
611280,note_on,804,0,2,,,,,,,,,1,,,56,57
611436,note_off,156,0,4,,,,,,,,,3,,,36,0
611460,note_off,180,0,2,,,,,,,,,1,,,56,0
611520,note_on,60,0,2,,,,,,,,,1,,,56,58
611520,note_on,84,0,4,,,,,,,,,3,,,39,49
611676,note_off,156,0,4,,,,,,,,,3,,,39,0
611700,note_off,180,0,2,,,,,,,,,1,,,56,0
611760,note_on,60,0,2,,,,,,,,,1,,,56,59
611760,note_on,84,0,4,,,,,,,,,3,,,44,50
611916,note_off,156,0,4,,,,,,,,,3,,,44,0
611940,note_off,180,0,2,,,,,,,,,1,,,56,0
612000,note_on,60,0,2,,,,,,,,,1,,,56,60
612000,note_on,84,0,4,,,,,,,,,3,,,48,50
612156,note_off,156,0,4,,,,,,,,,3,,,48,0
612180,note_off,180,0,2,,,,,,,,,1,,,56,0
612240,note_on,1200,0,1,,,,,,,,,0,,,62,69
612240,note_on,84,0,4,,,,,,,,,3,,,47,51
612247,note_off,7,0,1,,,,,,,,,0,,,63,0
612396,note_off,156,0,4,,,,,,,,,3,,,47,0
612396,note_off,149,0,1,,,,,,,,,0,,,62,0
612480,note_on,84,0,4,,,,,,,,,3,,,48,61
612480,note_on,84,0,1,,,,,,,,,0,,,63,66
612636,note_off,156,0,4,,,,,,,,,3,,,48,0
612636,note_off,156,0,1,,,,,,,,,0,,,63,0
612720,note_on,84,0,4,,,,,,,,,3,,,49,58
612720,note_on,84,0,1,,,,,,,,,0,,,65,63
612840,set_tempo,1800,1,0,,,,,,312500,,,,,,,
612876,note_off,156,0,4,,,,,,,,,3,,,49,0
612876,note_off,156,0,1,,,,,,,,,0,,,65,0
612960,note_on,84,0,4,,,,,,,,,3,,,34,59
612960,set_tempo,120,1,0,,,,,,306122,,,,,,,
612960,note_on,84,0,1,,,,,,,,,0,,,61,76
613116,note_off,156,0,4,,,,,,,,,3,,,34,0
613200,note_on,84,0,4,,,,,,,,,3,,,46,56
613356,note_off,156,0,4,,,,,,,,,3,,,46,0
613440,note_on,84,0,4,,,,,,,,,3,,,31,54
613440,note_on,1260,0,2,,,,,,,,,1,,,58,65
613440,note_on,0,0,1,,,,,,,,,0,,,63,72
613440,note_off,480,0,1,,,,,,,,,0,,,61,0
613596,note_off,156,0,4,,,,,,,,,3,,,31,0
613596,note_off,156,0,2,,,,,,,,,1,,,58,0
613596,note_off,156,0,1,,,,,,,,,0,,,63,0
613680,note_on,84,0,4,,,,,,,,,3,,,43,53
613836,note_off,156,0,4,,,,,,,,,3,,,43,0
613920,note_on,84,0,4,,,,,,,,,3,,,32,52
613920,note_on,324,0,1,,,,,,,,,0,,,60,67
613920,note_on,324,0,2,,,,,,,,,1,,,51,61
614076,note_off,156,0,4,,,,,,,,,3,,,32,0
614076,note_off,156,0,1,,,,,,,,,0,,,60,0
614076,note_off,156,0,2,,,,,,,,,1,,,51,0
614160,note_on,84,0,4,,,,,,,,,3,,,44,52
614316,note_off,156,0,4,,,,,,,,,3,,,44,0
614400,note_on,324,0,1,,,,,,,,,0,,,56,62
614400,note_on,324,0,2,,,,,,,,,1,,,51,56
614400,note_on,84,0,4,,,,,,,,,3,,,36,51
614556,note_off,156,0,4,,,,,,,,,3,,,36,0
614556,note_off,156,0,1,,,,,,,,,0,,,56,0
614556,note_off,156,0,2,,,,,,,,,1,,,51,0
614640,note_on,84,0,4,,,,,,,,,3,,,48,50
614760,set_tempo,1800,1,0,,,,,,309278,,,,,,,
614796,note_off,156,0,4,,,,,,,,,3,,,48,0
614880,note_on,84,0,4,,,,,,,,,3,,,39,50
614880,set_tempo,120,1,0,,,,,,306122,,,,,,,
614880,note_on,324,0,1,,,,,,,,,0,,,58,60
614880,note_on,324,0,2,,,,,,,,,1,,,55,60
615036,note_off,156,0,4,,,,,,,,,3,,,39,0
615120,note_on,84,0,4,,,,,,,,,3,,,51,55
615276,note_off,156,0,4,,,,,,,,,3,,,51,0
615360,note_on,84,0,4,,,,,,,,,3,,,51,54
615516,note_off,156,0,4,,,,,,,,,3,,,51,0
615600,note_on,84,0,4,,,,,,,,,3,,,51,52
615756,note_off,156,0,4,,,,,,,,,3,,,51,0
615840,note_on,84,0,4,,,,,,,,,3,,,51,51
615996,note_off,156,0,4,,,,,,,,,3,,,51,0
616080,note_off,1200,0,1,,,,,,,,,0,,,58,0
616080,note_on,0,0,1,,,,,,,,,0,,,55,52
616080,note_off,1200,0,2,,,,,,,,,1,,,55,0
616080,note_on,84,0,4,,,,,,,,,3,,,49,50
616080,note_on,0,0,2,,,,,,,,,1,,,51,52
616236,note_off,156,0,1,,,,,,,,,0,,,55,0
616236,note_off,156,0,2,,,,,,,,,1,,,51,0
616236,note_off,156,0,4,,,,,,,,,3,,,49,0
616320,note_on,84,0,1,,,,,,,,,0,,,56,51
616320,note_on,84,0,2,,,,,,,,,1,,,53,51
616320,note_on,84,0,4,,,,,,,,,3,,,48,48
616476,note_off,156,0,1,,,,,,,,,0,,,56,0
616476,note_off,156,0,2,,,,,,,,,1,,,53,0
616476,note_off,156,0,4,,,,,,,,,3,,,48,0
616560,note_on,84,0,2,,,,,,,,,1,,,55,51
616560,note_on,84,0,1,,,,,,,,,0,,,58,51
616560,note_on,84,0,4,,,,,,,,,3,,,46,47
616665,set_tempo,1785,1,0,,,,,,309278,,,,,,,
616716,note_off,156,0,1,,,,,,,,,0,,,58,0
616716,note_off,156,0,4,,,,,,,,,3,,,46,0
616716,note_off,156,0,2,,,,,,,,,1,,,55,0
616800,note_on,84,0,4,,,,,,,,,3,,,44,46
616800,note_on,84,0,1,,,,,,,,,0,,,60,56
616800,note_on,84,0,2,,,,,,,,,1,,,56,56
616800,set_tempo,135,1,0,,,,,,306122,,,,,,,
616956,note_off,156,0,2,,,,,,,,,1,,,56,0
616956,note_off,156,0,4,,,,,,,,,3,,,44,0
617040,note_on,84,0,2,,,,,,,,,1,,,51,53
617040,note_on,84,0,4,,,,,,,,,3,,,32,47
617196,note_off,156,0,4,,,,,,,,,3,,,32,0
617196,note_off,156,0,2,,,,,,,,,1,,,51,0
617280,note_on,84,0,4,,,,,,,,,3,,,44,48
617280,note_on,84,0,2,,,,,,,,,1,,,51,54
617436,note_off,156,0,4,,,,,,,,,3,,,44,0
617436,note_off,156,0,2,,,,,,,,,1,,,51,0
617520,note_on,84,0,4,,,,,,,,,3,,,43,49
617520,note_on,84,0,2,,,,,,,,,1,,,51,55
617520,note_off,720,0,1,,,,,,,,,0,,,60,0
617520,note_on,0,0,2,,,,,,,,,1,,,59,55
617676,note_off,156,0,2,,,,,,,,,1,,,59,0
617676,note_off,0,0,2,,,,,,,,,1,,,51,0
617676,note_off,156,0,4,,,,,,,,,3,,,43,0
617760,note_on,84,0,4,,,,,,,,,3,,,44,49
617760,note_on,240,0,1,,,,,,,,,0,,,60,56
617760,note_on,84,0,2,,,,,,,,,1,,,51,56
617916,note_off,156,0,2,,,,,,,,,1,,,51,0
617916,note_off,156,0,4,,,,,,,,,3,,,44,0
617916,note_off,156,0,1,,,,,,,,,0,,,60,0
618000,note_on,84,0,2,,,,,,,,,1,,,59,67
618000,note_on,84,0,4,,,,,,,,,3,,,43,50
618156,note_off,156,0,2,,,,,,,,,1,,,59,0
618156,note_off,156,0,4,,,,,,,,,3,,,43,0
618240,note_on,324,0,1,,,,,,,,,0,,,60,64
618240,note_on,84,0,4,,,,,,,,,3,,,44,59
618396,note_off,156,0,4,,,,,,,,,3,,,44,0
618396,note_off,156,0,1,,,,,,,,,0,,,60,0
618480,note_on,84,0,1,,,,,,,,,0,,,61,61
618480,note_on,84,0,4,,,,,,,,,3,,,46,56
618615,set_tempo,1815,1,0,,,,,,312500,,,,,,,
618636,note_off,156,0,1,,,,,,,,,0,,,61,0
618636,note_off,156,0,4,,,,,,,,,3,,,46,0
618720,note_on,84,0,4,,,,,,,,,3,,,48,56
618720,set_tempo,105,1,0,,,,,,306122,,,,,,,
618720,note_on,84,0,1,,,,,,,,,0,,,63,67
618876,note_off,156,0,4,,,,,,,,,3,,,48,0
618960,note_on,84,0,4,,,,,,,,,3,,,36,54
618960,note_on,804,0,2,,,,,,,,,1,,,56,62
619116,note_off,156,0,4,,,,,,,,,3,,,36,0
619116,note_off,156,0,2,,,,,,,,,1,,,56,0
619200,note_on,84,0,2,,,,,,,,,1,,,56,63
619200,note_on,84,0,4,,,,,,,,,3,,,48,55
619356,note_off,156,0,4,,,,,,,,,3,,,48,0
619356,note_off,156,0,2,,,,,,,,,1,,,56,0
619440,note_on,84,0,2,,,,,,,,,1,,,56,64
619440,note_on,720,0,1,,,,,,,,,0,,,62,64
619440,note_on,84,0,4,,,,,,,,,3,,,47,56
619447,note_off,7,0,1,,,,,,,,,0,,,63,0
619596,note_off,149,0,1,,,,,,,,,0,,,62,0
619596,note_off,156,0,4,,,,,,,,,3,,,47,0
619596,note_off,156,0,2,,,,,,,,,1,,,56,0
619680,note_on,84,0,2,,,,,,,,,1,,,56,65
619680,note_on,84,0,4,,,,,,,,,3,,,48,57
619680,note_on,84,0,1,,,,,,,,,0,,,63,65
619836,note_off,156,0,4,,,,,,,,,3,,,48,0
619836,note_off,156,0,2,,,,,,,,,1,,,56,0
619836,note_off,156,0,1,,,,,,,,,0,,,63,0
619920,note_on,84,0,4,,,,,,,,,3,,,47,58
619920,note_on,84,0,1,,,,,,,,,0,,,62,73
620076,note_off,156,0,4,,,,,,,,,3,,,47,0
620076,note_off,156,0,1,,,,,,,,,0,,,62,0
620160,note_on,84,0,4,,,,,,,,,3,,,48,69
620160,note_on,84,0,1,,,,,,,,,0,,,63,70
620316,note_off,156,0,4,,,,,,,,,3,,,48,0
620316,note_off,156,0,1,,,,,,,,,0,,,63,0
620400,note_on,84,0,1,,,,,,,,,0,,,65,67
620400,note_on,84,0,4,,,,,,,,,3,,,49,66
620520,set_tempo,1800,1,0,,,,,,312500,,,,,,,
620556,note_off,156,0,1,,,,,,,,,0,,,65,0
620556,note_off,156,0,4,,,,,,,,,3,,,49,0
620640,note_on,84,0,4,,,,,,,,,3,,,34,64
620640,set_tempo,120,1,0,,,,,,306122,,,,,,,
620640,note_on,804,0,2,,,,,,,,,1,,,53,78
620640,note_on,84,0,1,,,,,,,,,0,,,61,78
620796,note_off,156,0,4,,,,,,,,,3,,,34,0
620880,note_on,84,0,4,,,,,,,,,3,,,46,60
621036,note_off,156,0,4,,,,,,,,,3,,,46,0
621120,note_on,0,0,2,,,,,,,,,1,,,58,62
621120,note_on,0,0,1,,,,,,,,,0,,,63,74
621120,note_off,480,0,1,,,,,,,,,0,,,61,0
621120,note_off,480,0,2,,,,,,,,,1,,,53,0
621120,note_on,84,0,4,,,,,,,,,3,,,31,60
621276,note_off,156,0,2,,,,,,,,,1,,,58,0
621276,note_off,156,0,4,,,,,,,,,3,,,31,0
621276,note_off,156,0,1,,,,,,,,,0,,,63,0
621360,note_on,84,0,4,,,,,,,,,3,,,43,59
621516,note_off,156,0,4,,,,,,,,,3,,,43,0
621600,note_on,84,0,4,,,,,,,,,3,,,32,58
621600,note_on,324,0,1,,,,,,,,,0,,,60,69
621600,note_on,324,0,2,,,,,,,,,1,,,51,60
621756,note_off,156,0,4,,,,,,,,,3,,,32,0
621756,note_off,156,0,1,,,,,,,,,0,,,60,0
621756,note_off,156,0,2,,,,,,,,,1,,,51,0
621840,note_on,84,0,4,,,,,,,,,3,,,44,57
621996,note_off,156,0,4,,,,,,,,,3,,,44,0
622080,note_on,84,0,4,,,,,,,,,3,,,36,56
622080,note_on,324,0,2,,,,,,,,,1,,,51,58
622080,note_on,324,0,1,,,,,,,,,0,,,56,65
622236,note_off,156,0,2,,,,,,,,,1,,,51,0
622236,note_off,156,0,4,,,,,,,,,3,,,36,0
622236,note_off,156,0,1,,,,,,,,,0,,,56,0
622320,note_on,84,0,4,,,,,,,,,3,,,48,55
622440,set_tempo,1800,1,0,,,,,,309278,,,,,,,
622476,note_off,156,0,4,,,,,,,,,3,,,48,0
622560,note_on,324,0,2,,,,,,,,,1,,,49,61
622560,note_on,0,0,2,,,,,,,,,1,,,51,61
622560,note_on,324,0,1,,,,,,,,,0,,,58,61
622560,note_on,84,0,4,,,,,,,,,3,,,39,54
622716,note_off,156,0,4,,,,,,,,,3,,,39,0
622800,note_on,84,0,4,,,,,,,,,3,,,39,57
622956,note_off,156,0,4,,,,,,,,,3,,,39,0
623040,note_on,84,0,4,,,,,,,,,3,,,43,54
623196,note_off,156,0,4,,,,,,,,,3,,,43,0
623280,note_on,84,0,4,,,,,,,,,3,,,39,51
623295,set_tempo,855,1,0,,,,,,312500,,,,,,,
623436,note_off,156,0,4,,,,,,,,,3,,,39,0
623520,note_off,960,0,1,,,,,,,,,0,,,58,0
623520,note_on,0,0,2,,,,,,,,,1,,,51,52
623520,set_tempo,225,1,0,,,,,,319148,,,,,,,
623520,note_on,0,0,2,,,,,,,,,1,,,48,52
623520,note_off,0,0,2,,,,,,,,,1,,,49,0
623520,note_off,960,0,2,,,,,,,,,1,,,51,0
623520,note_on,0,0,1,,,,,,,,,0,,,56,52
623520,note_on,84,0,4,,,,,,,,,3,,,44,48
623520,note_on,0,0,4,,,,,,,,,3,,,32,48
623760,note_off,240,0,4,,,,,,,,,3,,,32,0
623760,note_off,0,0,4,,,,,,,,,3,,,44,0
623760,note_off,240,0,1,,,,,,,,,0,,,56,0
623760,note_off,240,0,2,,,,,,,,,1,,,51,0
623760,note_off,0,0,2,,,,,,,,,1,,,48,0
624000,note_on,240,0,2,,,,,,,,,1,,,72,48
624000,note_on,32880,0,3,,,,,,,,,2,,,68,48
624000,note_on,240,0,1,,,,,,,,,0,,,80,48
624000,note_on,240,0,4,,,,,,,,,3,,,56,48
624015,set_tempo,495,1,0,,,,,,309278,,,,,,,
624240,note_off,240,0,4,,,,,,,,,3,,,56,0
624240,note_off,240,0,2,,,,,,,,,1,,,72,0
624240,note_off,240,0,3,,,,,,,,,2,,,68,0
624240,note_off,240,0,1,,,,,,,,,0,,,80,0
624480,note_on,240,0,2,,,,,,,,,1,,,73,51
624480,note_on,240,0,3,,,,,,,,,2,,,67,53
624480,note_on,240,0,4,,,,,,,,,3,,,63,53
624480,note_on,240,0,1,,,,,,,,,0,,,82,51
624480,set_tempo,465,1,0,,,,,,306122,,,,,,,
625440,note_off,960,0,4,,,,,,,,,3,,,63,0
625440,note_on,0,0,4,,,,,,,,,3,,,56,42
625440,note_on,0,0,3,,,,,,,,,2,,,68,42
625440,note_off,960,0,3,,,,,,,,,2,,,67,0
625440,note_off,960,0,1,,,,,,,,,0,,,82,0
625440,note_off,960,0,2,,,,,,,,,1,,,73,0
625440,set_tempo,960,1,0,,,,,,312500,,,,,,,
625440,note_on,0,0,1,,,,,,,,,0,,,80,44
625440,note_on,0,0,2,,,,,,,,,1,,,72,44
625680,note_off,240,0,2,,,,,,,,,1,,,72,0
625680,set_tempo,240,1,0,,,,,,319148,,,,,,,
625680,note_off,240,0,3,,,,,,,,,2,,,68,0
625680,note_off,240,0,4,,,,,,,,,3,,,56,0
625680,note_off,240,0,1,,,,,,,,,0,,,80,0
625920,set_tempo,240,1,0,,,,,,309278,,,,,,,
625920,note_on,240,0,4,,,,,,,,,3,,,72,41
625920,note_on,240,0,1,,,,,,,,,0,,,84,41
626160,set_tempo,240,1,0,,,,,,312500,,,,,,,
626160,note_off,240,0,1,,,,,,,,,0,,,84,0
626160,note_off,240,0,4,,,,,,,,,3,,,72,0
626400,set_tempo,240,1,0,,,,,,309278,,,,,,,
626400,note_on,240,0,1,,,,,,,,,0,,,82,48
626400,note_on,240,0,4,,,,,,,,,3,,,70,48
627240,set_tempo,840,1,0,,,,,,312500,,,,,,,
627240,note_on,840,0,4,,,,,,,,,3,,,68,41
627240,note_on,0,0,1,,,,,,,,,0,,,80,41
627240,note_off,840,0,1,,,,,,,,,0,,,82,0
627255,note_off,15,0,4,,,,,,,,,3,,,70,0
627360,note_off,105,0,4,,,,,,,,,3,,,68,0
627360,note_on,0,0,4,,,,,,,,,3,,,67,41
627360,note_on,0,0,1,,,,,,,,,0,,,79,41
627360,note_off,120,0,1,,,,,,,,,0,,,80,0
627480,note_off,120,0,1,,,,,,,,,0,,,79,0
627480,note_off,120,0,4,,,,,,,,,3,,,67,0
627840,note_on,360,0,1,,,,,,,,,0,,,77,39
627840,note_on,360,0,4,,,,,,,,,3,,,65,38
627960,note_off,120,0,1,,,,,,,,,0,,,77,0
627960,note_off,120,0,4,,,,,,,,,3,,,65,0
628200,set_tempo,960,1,0,,,,,,315789,,,,,,,
628320,note_on,360,0,4,,,,,,,,,3,,,64,36
628320,note_on,360,0,1,,,,,,,,,0,,,76,37
628680,note_off,360,0,1,,,,,,,,,0,,,76,0
628680,note_off,360,0,4,,,,,,,,,3,,,64,0
629760,note_on,1080,0,4,,,,,,,,,3,,,65,34
629760,note_on,1080,0,1,,,,,,,,,0,,,77,35
629840,note_off,80,0,4,,,,,,,,,3,,,65,0
629840,note_on,0,0,4,,,,,,,,,3,,,67,35
629840,note_on,0,0,1,,,,,,,,,0,,,79,36
629840,note_off,80,0,1,,,,,,,,,0,,,77,0
629920,note_off,80,0,4,,,,,,,,,3,,,67,0
629920,note_on,0,0,4,,,,,,,,,3,,,65,35
629920,note_on,0,0,1,,,,,,,,,0,,,77,37
629920,note_off,80,0,1,,,,,,,,,0,,,79,0
630000,note_off,80,0,4,,,,,,,,,3,,,65,0
630000,note_on,0,0,4,,,,,,,,,3,,,64,36
630000,note_off,80,0,1,,,,,,,,,0,,,77,0
630000,note_on,0,0,1,,,,,,,,,0,,,76,37
630120,note_off,120,0,1,,,,,,,,,0,,,76,0
630120,note_on,0,0,1,,,,,,,,,0,,,77,39
630120,note_on,0,0,4,,,,,,,,,3,,,65,37
630120,note_off,120,0,4,,,,,,,,,3,,,64,0
630150,set_tempo,1950,1,0,,,,,,319148,,,,,,,
630240,note_off,120,0,1,,,,,,,,,0,,,77,0
630240,note_on,0,0,1,,,,,,,,,0,,,79,42
630240,set_tempo,90,1,0,,,,,,309278,,,,,,,
630240,note_on,0,0,4,,,,,,,,,3,,,67,43
630240,note_off,120,0,4,,,,,,,,,3,,,65,0
631080,note_off,840,0,1,,,,,,,,,0,,,79,0
631080,note_on,0,0,1,,,,,,,,,0,,,77,36
631080,note_off,840,0,4,,,,,,,,,3,,,67,0
631080,set_tempo,840,1,0,,,,,,312500,,,,,,,
631080,note_on,0,0,4,,,,,,,,,3,,,65,36
631200,note_off,120,0,1,,,,,,,,,0,,,77,0
631200,note_on,0,0,1,,,,,,,,,0,,,76,35
631200,note_on,0,0,4,,,,,,,,,3,,,64,36
631200,note_off,120,0,4,,,,,,,,,3,,,65,0
631320,note_off,120,0,4,,,,,,,,,3,,,64,0
631320,note_off,120,0,1,,,,,,,,,0,,,76,0
631680,note_on,360,0,4,,,,,,,,,3,,,62,34
631680,note_on,360,0,1,,,,,,,,,0,,,74,33
631800,note_off,120,0,4,,,,,,,,,3,,,62,0
631800,note_off,120,0,1,,,,,,,,,0,,,74,0
632055,set_tempo,975,1,0,,,,,,315789,,,,,,,
632160,note_on,360,0,4,,,,,,,,,3,,,60,32
632160,note_on,360,0,1,,,,,,,,,0,,,72,31
632520,note_off,360,0,4,,,,,,,,,3,,,60,0
632520,note_off,360,0,1,,,,,,,,,0,,,72,0
633840,set_tempo,1785,1,0,,,,,,319148,,,,,,,
633960,note_on,1440,0,4,,,,,,,,,3,,,60,32
633960,note_on,1440,0,1,,,,,,,,,0,,,72,31
634056,note_off,96,0,4,,,,,,,,,3,,,60,0
634056,note_off,96,0,1,,,,,,,,,0,,,72,0
634080,note_on,24,0,1,,,,,,,,,0,,,72,31
634080,note_on,24,0,4,,,,,,,,,3,,,60,32
634560,note_off,480,0,4,,,,,,,,,3,,,60,0
634560,note_off,480,0,1,,,,,,,,,0,,,72,0
634560,set_tempo,720,1,0,,,,,,327868,,,,,,,
634920,note_on,360,0,4,,,,,,,,,3,,,60,31
634920,note_on,360,0,1,,,,,,,,,0,,,72,30
635016,note_off,96,0,4,,,,,,,,,3,,,60,0
635016,note_off,96,0,1,,,,,,,,,0,,,72,0
635040,note_on,24,0,4,,,,,,,,,3,,,60,31
635040,note_on,24,0,1,,,,,,,,,0,,,72,30
635520,note_off,480,0,1,,,,,,,,,0,,,72,0
635520,note_off,480,0,4,,,,,,,,,3,,,60,0
635520,set_tempo,960,1,0,,,,,,419580,,,,,,,
635880,note_on,360,0,4,,,,,,,,,3,,,60,30
635880,note_on,360,0,1,,,,,,,,,0,,,72,29
635976,note_off,96,0,4,,,,,,,,,3,,,60,0
635976,note_off,96,0,1,,,,,,,,,0,,,72,0
636000,note_on,24,0,4,,,,,,,,,3,,,60,30
636000,note_on,24,0,1,,,,,,,,,0,,,72,28
636480,note_off,480,0,1,,,,,,,,,0,,,72,0
636480,note_off,480,0,4,,,,,,,,,3,,,60,0
637440,set_tempo,1920,1,0,,,,,,309278,,,,,,,
637800,note_on,0,0,2,,,,,,,,,1,,,73,72
637800,note_on,12120,0,3,,,,,,,,,2,,,37,72
637800,set_tempo,360,1,0,,,,,,312500,,,,,,,
637800,note_on,0,0,3,,,,,,,,,2,,,49,72
637800,note_on,12120,0,2,,,,,,,,,1,,,85,72
637896,note_off,96,0,3,,,,,,,,,2,,,49,0
637896,note_off,0,0,3,,,,,,,,,2,,,37,0
637896,note_off,0,0,2,,,,,,,,,1,,,85,0
637896,note_off,96,0,2,,,,,,,,,1,,,73,0
637920,note_on,0,0,3,,,,,,,,,2,,,49,72
637920,control_change,24,0,3,,,,,,,64,127,2,,,,
637920,note_on,0,0,3,,,,,,,,,2,,,37,72
637920,control_change,24,0,2,,,,,,,64,127,1,,,,
637920,note_on,0,0,2,,,,,,,,,1,,,85,72
637920,note_on,0,0,2,,,,,,,,,1,,,73,72
638400,note_on,1920,0,1,,,,,,,,,0,,,66,38
638400,note_on,1920,0,4,,,,,,,,,3,,,58,38
638400,set_tempo,600,1,0,,,,,,306122,,,,,,,
638556,note_off,156,0,1,,,,,,,,,0,,,66,0
638556,note_off,156,0,4,,,,,,,,,3,,,58,0
638640,note_on,84,0,4,,,,,,,,,3,,,61,38
638640,note_on,84,0,1,,,,,,,,,0,,,70,38
638796,note_off,156,0,4,,,,,,,,,3,,,61,0
638796,note_off,156,0,1,,,,,,,,,0,,,70,0
638880,note_off,960,0,2,,,,,,,,,1,,,73,0
638880,note_on,84,0,1,,,,,,,,,0,,,68,38
638880,note_off,0,0,3,,,,,,,,,2,,,37,0
638880,note_off,960,0,3,,,,,,,,,2,,,49,0
638880,note_on,84,0,4,,,,,,,,,3,,,59,38
638880,note_off,0,0,2,,,,,,,,,1,,,85,0
639036,note_off,156,0,4,,,,,,,,,3,,,59,0
639036,note_off,156,0,1,,,,,,,,,0,,,68,0
639120,note_on,84,0,1,,,,,,,,,0,,,71,39
639120,note_on,84,0,4,,,,,,,,,3,,,61,38
639276,note_off,156,0,1,,,,,,,,,0,,,71,0
639276,note_off,156,0,4,,,,,,,,,3,,,61,0
639360,note_on,84,0,1,,,,,,,,,0,,,65,39
639360,note_on,84,0,4,,,,,,,,,3,,,56,39
639516,note_off,156,0,4,,,,,,,,,3,,,56,0
639516,note_off,156,0,1,,,,,,,,,0,,,65,0
639600,note_on,84,0,1,,,,,,,,,0,,,68,39
639600,note_on,84,0,4,,,,,,,,,3,,,61,39
639756,note_off,156,0,1,,,,,,,,,0,,,68,0
639756,note_off,156,0,4,,,,,,,,,3,,,61,0
639840,note_on,84,0,1,,,,,,,,,0,,,66,40
639840,note_on,84,0,4,,,,,,,,,3,,,58,39
639996,note_off,156,0,1,,,,,,,,,0,,,66,0
639996,note_off,156,0,4,,,,,,,,,3,,,58,0
640080,note_on,84,0,1,,,,,,,,,0,,,70,40
640080,note_on,84,0,4,,,,,,,,,3,,,61,40
640236,note_off,156,0,1,,,,,,,,,0,,,70,0
640236,note_off,156,0,4,,,,,,,,,3,,,61,0
640320,note_on,84,0,1,,,,,,,,,0,,,66,40
640320,note_on,84,0,4,,,,,,,,,3,,,58,40
640476,note_off,156,0,1,,,,,,,,,0,,,66,0
640476,note_off,156,0,4,,,,,,,,,3,,,58,0
640560,note_on,84,0,4,,,,,,,,,3,,,61,40
640560,note_on,84,0,1,,,,,,,,,0,,,70,41
640716,note_off,156,0,1,,,,,,,,,0,,,70,0
640716,note_off,156,0,4,,,,,,,,,3,,,61,0
640800,note_on,84,0,4,,,,,,,,,3,,,59,40
640800,note_on,84,0,1,,,,,,,,,0,,,68,41
640956,note_off,156,0,4,,,,,,,,,3,,,59,0
640956,note_off,156,0,1,,,,,,,,,0,,,68,0
641040,note_on,84,0,1,,,,,,,,,0,,,71,41
641040,note_on,84,0,4,,,,,,,,,3,,,61,41
641196,note_off,156,0,1,,,,,,,,,0,,,71,0
641196,note_off,156,0,4,,,,,,,,,3,,,61,0
641280,note_on,84,0,1,,,,,,,,,0,,,65,42
641280,note_on,84,0,4,,,,,,,,,3,,,56,41
641436,note_off,156,0,1,,,,,,,,,0,,,65,0
641436,note_off,156,0,4,,,,,,,,,3,,,56,0
641520,note_on,84,0,4,,,,,,,,,3,,,61,41
641520,note_on,84,0,1,,,,,,,,,0,,,68,42
641676,note_off,156,0,4,,,,,,,,,3,,,61,0
641676,note_off,156,0,1,,,,,,,,,0,,,68,0
641760,note_on,84,0,4,,,,,,,,,3,,,58,42
641760,note_on,84,0,1,,,,,,,,,0,,,66,44
641916,note_off,156,0,1,,,,,,,,,0,,,66,0
642000,note_on,84,0,1,,,,,,,,,0,,,70,45
642156,note_off,156,0,1,,,,,,,,,0,,,70,0
642240,note_on,84,0,1,,,,,,,,,0,,,73,45
642247,note_off,487,0,4,,,,,,,,,3,,,58,0
642396,note_off,156,0,1,,,,,,,,,0,,,73,0
642480,note_on,84,0,1,,,,,,,,,0,,,70,46
642480,note_on,233,0,4,,,,,,,,,3,,,66,44
642636,note_off,156,0,4,,,,,,,,,3,,,66,0
642636,note_off,156,0,1,,,,,,,,,0,,,70,0
642720,note_on,84,0,4,,,,,,,,,3,,,70,46
642720,note_on,84,0,1,,,,,,,,,0,,,73,47
642876,note_off,156,0,1,,,,,,,,,0,,,73,0
642876,note_off,156,0,4,,,,,,,,,3,,,70,0
642960,note_on,84,0,1,,,,,,,,,0,,,78,47
642960,note_on,84,0,4,,,,,,,,,3,,,73,48
643116,note_off,156,0,1,,,,,,,,,0,,,78,0
643116,note_off,156,0,4,,,,,,,,,3,,,73,0
643200,note_on,84,0,1,,,,,,,,,0,,,82,48
643200,note_on,84,0,4,,,,,,,,,3,,,78,50
643356,note_off,156,0,4,,,,,,,,,3,,,78,0
643356,note_off,156,0,1,,,,,,,,,0,,,82,0
643440,note_on,84,0,4,,,,,,,,,3,,,73,52
643440,note_on,84,0,1,,,,,,,,,0,,,78,49
643596,note_off,156,0,4,,,,,,,,,3,,,73,0
643596,note_off,156,0,1,,,,,,,,,0,,,78,0
643680,note_on,84,0,1,,,,,,,,,0,,,82,51
643680,note_on,84,0,4,,,,,,,,,3,,,78,55
643836,note_off,156,0,4,,,,,,,,,3,,,78,0
643836,note_off,156,0,1,,,,,,,,,0,,,82,0
643920,note_on,84,0,1,,,,,,,,,0,,,83,50
643920,note_on,84,0,4,,,,,,,,,3,,,80,53
644076,note_off,156,0,1,,,,,,,,,0,,,83,0
644076,note_off,156,0,4,,,,,,,,,3,,,80,0
644160,note_on,84,0,4,,,,,,,,,3,,,82,51
644160,note_on,84,0,1,,,,,,,,,0,,,85,48
644316,note_off,156,0,1,,,,,,,,,0,,,85,0
644316,note_off,156,0,4,,,,,,,,,3,,,82,0
644400,note_on,84,0,1,,,,,,,,,0,,,83,47
644400,note_on,84,0,4,,,,,,,,,3,,,80,49
644556,note_off,156,0,1,,,,,,,,,0,,,83,0
644556,note_off,156,0,4,,,,,,,,,3,,,80,0
644640,note_on,84,0,1,,,,,,,,,0,,,82,45
644640,note_on,84,0,4,,,,,,,,,3,,,78,47
644796,note_off,156,0,4,,,,,,,,,3,,,78,0
644796,note_off,156,0,1,,,,,,,,,0,,,82,0
644880,note_on,84,0,1,,,,,,,,,0,,,83,43
644880,note_on,84,0,4,,,,,,,,,3,,,80,45
645036,note_off,156,0,1,,,,,,,,,0,,,83,0
645036,note_off,156,0,4,,,,,,,,,3,,,80,0
645120,note_on,84,0,1,,,,,,,,,0,,,82,42
645120,note_on,84,0,4,,,,,,,,,3,,,78,43
645276,note_off,156,0,4,,,,,,,,,3,,,78,0
645276,note_off,156,0,1,,,,,,,,,0,,,82,0
645360,set_tempo,6960,1,0,,,,,,312500,,,,,,,
645360,note_on,84,0,1,,,,,,,,,0,,,80,40
645360,note_on,84,0,4,,,,,,,,,3,,,76,41
645516,note_off,156,0,4,,,,,,,,,3,,,76,0
645516,note_off,156,0,1,,,,,,,,,0,,,80,0
645600,note_on,0,0,3,,,,,,,,,2,,,39,76
645600,note_on,0,0,2,,,,,,,,,1,,,75,75
645600,note_on,0,0,2,,,,,,,,,1,,,79,75
645600,note_on,0,0,2,,,,,,,,,1,,,87,75
645600,control_change,6720,0,2,,,,,,,64,127,1,,,,
645600,note_on,0,0,3,,,,,,,,,2,,,32,76
645600,control_change,6720,0,3,,,,,,,64,127,2,,,,
645600,note_on,0,0,3,,,,,,,,,2,,,51,76
645960,note_off,0,0,3,,,,,,,,,2,,,51,0
645960,note_off,360,0,3,,,,,,,,,2,,,32,0
645960,note_off,0,0,3,,,,,,,,,2,,,39,0
645960,note_off,0,0,2,,,,,,,,,1,,,75,0
645960,note_off,0,0,2,,,,,,,,,1,,,79,0
645960,note_off,360,0,2,,,,,,,,,1,,,87,0
646080,set_tempo,720,1,0,,,,,,306122,,,,,,,
646080,note_on,564,0,4,,,,,,,,,3,,,55,40
646080,note_on,564,0,1,,,,,,,,,0,,,63,44
646236,note_off,156,0,1,,,,,,,,,0,,,63,0
646236,note_off,156,0,4,,,,,,,,,3,,,55,0
646320,note_on,84,0,1,,,,,,,,,0,,,67,44
646320,note_on,84,0,4,,,,,,,,,3,,,58,40
646476,note_off,156,0,1,,,,,,,,,0,,,67,0
646476,note_off,156,0,4,,,,,,,,,3,,,58,0
646560,note_on,84,0,4,,,,,,,,,3,,,56,40
646560,note_on,84,0,1,,,,,,,,,0,,,65,44
646716,note_off,156,0,1,,,,,,,,,0,,,65,0
646716,note_off,156,0,4,,,,,,,,,3,,,56,0
646800,note_on,84,0,4,,,,,,,,,3,,,59,41
646800,note_on,84,0,1,,,,,,,,,0,,,68,44
646956,note_off,156,0,1,,,,,,,,,0,,,68,0
646956,note_off,156,0,4,,,,,,,,,3,,,59,0
647040,note_on,84,0,1,,,,,,,,,0,,,62,45
647040,note_on,84,0,4,,,,,,,,,3,,,53,41
647196,note_off,156,0,1,,,,,,,,,0,,,62,0
647196,note_off,156,0,4,,,,,,,,,3,,,53,0
647280,note_on,84,0,1,,,,,,,,,0,,,65,45
647280,note_on,84,0,4,,,,,,,,,3,,,56,41
647436,note_off,156,0,1,,,,,,,,,0,,,65,0
647436,note_off,156,0,4,,,,,,,,,3,,,56,0
647520,note_on,84,0,4,,,,,,,,,3,,,55,42
647520,note_on,84,0,1,,,,,,,,,0,,,63,45
647676,note_off,156,0,1,,,,,,,,,0,,,63,0
647676,note_off,156,0,4,,,,,,,,,3,,,55,0
647760,note_on,84,0,4,,,,,,,,,3,,,58,42
647760,note_on,84,0,1,,,,,,,,,0,,,67,45
647916,note_off,156,0,1,,,,,,,,,0,,,67,0
647916,note_off,156,0,4,,,,,,,,,3,,,58,0
648000,note_on,84,0,4,,,,,,,,,3,,,55,42
648000,note_on,84,0,1,,,,,,,,,0,,,63,46
648156,note_off,156,0,1,,,,,,,,,0,,,63,0
648156,note_off,156,0,4,,,,,,,,,3,,,55,0
648240,note_on,84,0,4,,,,,,,,,3,,,58,42
648240,note_on,84,0,1,,,,,,,,,0,,,67,46
648396,note_off,156,0,4,,,,,,,,,3,,,58,0
648396,note_off,156,0,1,,,,,,,,,0,,,67,0
648480,note_on,84,0,4,,,,,,,,,3,,,56,43
648480,note_on,84,0,1,,,,,,,,,0,,,65,46
648636,note_off,156,0,4,,,,,,,,,3,,,56,0
648636,note_off,156,0,1,,,,,,,,,0,,,65,0
648720,note_on,84,0,1,,,,,,,,,0,,,68,46
648720,note_on,84,0,4,,,,,,,,,3,,,59,43
648876,note_off,156,0,1,,,,,,,,,0,,,68,0
648876,note_off,156,0,4,,,,,,,,,3,,,59,0
648960,note_on,84,0,4,,,,,,,,,3,,,53,43
648960,note_on,84,0,1,,,,,,,,,0,,,62,47
649116,note_off,156,0,4,,,,,,,,,3,,,53,0
649116,note_off,156,0,1,,,,,,,,,0,,,62,0
649200,note_on,84,0,1,,,,,,,,,0,,,65,47
649200,note_on,84,0,4,,,,,,,,,3,,,56,44
649356,note_off,156,0,4,,,,,,,,,3,,,56,0
649356,note_off,156,0,1,,,,,,,,,0,,,65,0
649440,note_on,84,0,4,,,,,,,,,3,,,55,44
649440,note_on,84,0,1,,,,,,,,,0,,,63,47
649440,note_on,0,0,4,,,,,,,,,3,,,58,44
649596,note_off,0,0,4,,,,,,,,,3,,,55,0
649596,note_off,156,0,4,,,,,,,,,3,,,58,0
649596,note_off,156,0,1,,,,,,,,,0,,,63,0
649680,note_on,84,0,1,,,,,,,,,0,,,67,47
649836,note_off,156,0,1,,,,,,,,,0,,,67,0
649920,note_on,84,0,1,,,,,,,,,0,,,70,47
650076,note_off,156,0,1,,,,,,,,,0,,,70,0
650160,note_on,564,0,4,,,,,,,,,3,,,51,45
650160,note_on,84,0,1,,,,,,,,,0,,,67,48
650316,note_off,156,0,4,,,,,,,,,3,,,51,0
650316,note_off,156,0,1,,,,,,,,,0,,,67,0
650400,note_on,84,0,4,,,,,,,,,3,,,55,45
650400,note_on,84,0,1,,,,,,,,,0,,,67,48
650556,note_off,156,0,1,,,,,,,,,0,,,67,0
650556,note_off,156,0,4,,,,,,,,,3,,,55,0
650640,note_on,84,0,1,,,,,,,,,0,,,70,48
650640,note_on,84,0,4,,,,,,,,,3,,,58,46
650796,note_off,156,0,4,,,,,,,,,3,,,58,0
650796,note_off,156,0,1,,,,,,,,,0,,,70,0
650880,note_on,84,0,4,,,,,,,,,3,,,61,46
650880,note_on,84,0,1,,,,,,,,,0,,,73,48
651036,note_off,156,0,4,,,,,,,,,3,,,61,0
651036,note_off,156,0,1,,,,,,,,,0,,,73,0
651120,note_on,84,0,4,,,,,,,,,3,,,58,46
651120,note_on,84,0,1,,,,,,,,,0,,,70,49
651276,note_off,156,0,4,,,,,,,,,3,,,58,0
651276,note_off,156,0,1,,,,,,,,,0,,,70,0
651360,note_on,84,0,1,,,,,,,,,0,,,70,50
651360,note_on,84,0,4,,,,,,,,,3,,,61,47
651516,note_off,156,0,4,,,,,,,,,3,,,61,0
651516,note_off,156,0,1,,,,,,,,,0,,,70,0
651600,note_on,84,0,4,,,,,,,,,3,,,64,47
651600,note_on,84,0,1,,,,,,,,,0,,,73,50
651756,note_off,156,0,4,,,,,,,,,3,,,64,0
651756,note_off,156,0,1,,,,,,,,,0,,,73,0
651840,note_on,84,0,1,,,,,,,,,0,,,76,50
651840,note_on,84,0,4,,,,,,,,,3,,,67,47
651996,note_off,156,0,4,,,,,,,,,3,,,67,0
651996,note_off,156,0,1,,,,,,,,,0,,,76,0
652080,note_on,84,0,1,,,,,,,,,0,,,73,50
652080,note_on,84,0,4,,,,,,,,,3,,,64,47
652236,note_off,156,0,4,,,,,,,,,3,,,64,0
652236,note_off,156,0,1,,,,,,,,,0,,,73,0
652320,note_on,84,0,1,,,,,,,,,0,,,76,51
652320,note_on,84,0,4,,,,,,,,,3,,,67,48
652476,note_off,156,0,4,,,,,,,,,3,,,67,0
652476,note_off,156,0,1,,,,,,,,,0,,,76,0
652560,note_on,84,0,1,,,,,,,,,0,,,79,51
652560,note_on,84,0,4,,,,,,,,,3,,,70,48
652716,note_off,156,0,4,,,,,,,,,3,,,70,0
652716,note_off,156,0,1,,,,,,,,,0,,,79,0
652800,note_on,84,0,4,,,,,,,,,3,,,73,48
652800,note_on,84,0,1,,,,,,,,,0,,,82,51
652956,note_off,156,0,1,,,,,,,,,0,,,82,0
652956,note_off,156,0,4,,,,,,,,,3,,,73,0
653040,note_on,84,0,1,,,,,,,,,0,,,79,51
653160,note_on,204,0,4,,,,,,,,,3,,,73,50
653160,note_on,0,0,4,,,,,,,,,3,,,76,50
653160,set_tempo,7080,1,0,,,,,,309278,,,,,,,
653196,note_off,156,0,1,,,,,,,,,0,,,79,0
653256,note_off,96,0,4,,,,,,,,,3,,,76,0
653256,note_off,0,0,4,,,,,,,,,3,,,73,0
653280,control_change,7320,0,2,,,,,,,64,0,1,,,,
653280,note_on,0,0,4,,,,,,,,,3,,,73,50
653280,note_on,24,0,4,,,,,,,,,3,,,76,50
653280,set_tempo,120,1,0,,,,,,309278,,,,,,,
653280,control_change,7320,0,3,,,,,,,64,0,2,,,,
653280,note_on,84,0,1,,,,,,,,,0,,,82,52
653400,set_tempo,120,1,0,,,,,,306122,,,,,,,
653436,note_off,156,0,1,,,,,,,,,0,,,82,0
653520,note_on,84,0,1,,,,,,,,,0,,,79,53
653520,note_off,0,0,4,,,,,,,,,3,,,76,0
653520,note_off,240,0,4,,,,,,,,,3,,,73,0
653676,note_off,156,0,1,,,,,,,,,0,,,79,0
653760,note_on,84,0,1,,,,,,,,,0,,,82,55
653916,note_off,156,0,1,,,,,,,,,0,,,82,0
654000,note_on,84,0,1,,,,,,,,,0,,,79,56
654120,note_on,0,0,4,,,,,,,,,3,,,76,55
654120,note_on,600,0,4,,,,,,,,,3,,,73,55
654156,note_off,156,0,1,,,,,,,,,0,,,79,0
654216,note_off,96,0,4,,,,,,,,,3,,,76,0
654216,note_off,0,0,4,,,,,,,,,3,,,73,0
654240,note_on,24,0,4,,,,,,,,,3,,,76,55
654240,note_on,84,0,1,,,,,,,,,0,,,82,58
654240,note_on,0,0,4,,,,,,,,,3,,,73,55
654396,note_off,156,0,1,,,,,,,,,0,,,82,0
654480,note_on,84,0,1,,,,,,,,,0,,,79,59
654480,note_off,240,0,4,,,,,,,,,3,,,73,0
654480,note_off,0,0,4,,,,,,,,,3,,,76,0
654636,note_off,156,0,1,,,,,,,,,0,,,79,0
654720,note_on,84,0,1,,,,,,,,,0,,,82,60
654876,note_off,156,0,1,,,,,,,,,0,,,82,0
654960,note_on,84,0,1,,,,,,,,,0,,,79,62
655080,note_on,600,0,4,,,,,,,,,3,,,76,60
655080,note_on,0,0,4,,,,,,,,,3,,,73,60
655116,note_off,156,0,1,,,,,,,,,0,,,79,0
655176,note_off,0,0,4,,,,,,,,,3,,,76,0
655176,note_off,96,0,4,,,,,,,,,3,,,73,0
655200,note_on,0,0,4,,,,,,,,,3,,,76,60
655200,note_on,24,0,4,,,,,,,,,3,,,73,60
655200,note_on,84,0,1,,,,,,,,,0,,,82,63
655356,note_off,156,0,1,,,,,,,,,0,,,82,0
655440,note_off,0,0,4,,,,,,,,,3,,,73,0
655440,note_on,84,0,1,,,,,,,,,0,,,79,65
655440,note_off,240,0,4,,,,,,,,,3,,,76,0
655596,note_off,156,0,1,,,,,,,,,0,,,79,0
655680,note_on,84,0,1,,,,,,,,,0,,,82,66
655836,note_off,156,0,1,,,,,,,,,0,,,82,0
655920,note_on,84,0,1,,,,,,,,,0,,,79,68
656040,note_on,600,0,4,,,,,,,,,3,,,73,65
656040,note_on,0,0,4,,,,,,,,,3,,,76,65
656076,note_off,156,0,1,,,,,,,,,0,,,79,0
656136,note_off,96,0,4,,,,,,,,,3,,,76,0
656136,note_off,0,0,4,,,,,,,,,3,,,73,0
656160,note_on,0,0,4,,,,,,,,,3,,,75,65
656160,note_on,24,0,4,,,,,,,,,3,,,72,65
656160,note_on,84,0,1,,,,,,,,,0,,,80,71
656316,note_off,156,0,1,,,,,,,,,0,,,80,0
656400,note_off,0,0,4,,,,,,,,,3,,,72,0
656400,note_on,84,0,1,,,,,,,,,0,,,75,68
656400,note_off,240,0,4,,,,,,,,,3,,,75,0
656556,note_off,156,0,1,,,,,,,,,0,,,75,0
656640,note_on,84,0,1,,,,,,,,,0,,,72,65
656796,note_off,156,0,1,,,,,,,,,0,,,72,0
656880,note_on,84,0,1,,,,,,,,,0,,,68,62
657000,note_on,600,0,4,,,,,,,,,3,,,60,56
657000,note_on,0,0,4,,,,,,,,,3,,,63,56
657000,set_tempo,3600,1,0,,,,,,309278,,,,,,,
657036,note_off,156,0,1,,,,,,,,,0,,,68,0
657096,note_off,96,0,4,,,,,,,,,3,,,63,0
657096,note_off,0,0,4,,,,,,,,,3,,,60,0
657120,note_on,24,0,4,,,,,,,,,3,,,64,57
657120,note_on,0,0,4,,,,,,,,,3,,,61,57
657120,note_on,84,0,1,,,,,,,,,0,,,67,58
657120,set_tempo,120,1,0,,,,,,306122,,,,,,,
657276,note_off,156,0,1,,,,,,,,,0,,,67,0
657360,note_on,84,0,1,,,,,,,,,0,,,79,59
657360,note_off,240,0,4,,,,,,,,,3,,,61,0
657360,note_off,0,0,4,,,,,,,,,3,,,64,0
657516,note_off,156,0,1,,,,,,,,,0,,,79,0
657600,note_on,84,0,1,,,,,,,,,0,,,82,61
657756,note_off,156,0,1,,,,,,,,,0,,,82,0
657840,note_on,84,0,1,,,,,,,,,0,,,79,62
657960,note_on,0,0,4,,,,,,,,,3,,,61,61
657960,note_on,600,0,4,,,,,,,,,3,,,64,61
657996,note_off,156,0,1,,,,,,,,,0,,,79,0
658056,note_off,0,0,4,,,,,,,,,3,,,64,0
658056,note_off,96,0,4,,,,,,,,,3,,,61,0
658080,note_on,84,0,1,,,,,,,,,0,,,82,63
658080,note_on,24,0,4,,,,,,,,,3,,,61,62
658080,note_on,0,0,4,,,,,,,,,3,,,64,62
658236,note_off,156,0,1,,,,,,,,,0,,,82,0
658320,note_off,0,0,4,,,,,,,,,3,,,61,0
658320,note_off,240,0,4,,,,,,,,,3,,,64,0
658320,note_on,84,0,1,,,,,,,,,0,,,79,65
658476,note_off,156,0,1,,,,,,,,,0,,,79,0
658560,note_on,84,0,1,,,,,,,,,0,,,82,66
658716,note_off,156,0,1,,,,,,,,,0,,,82,0
658800,note_on,84,0,1,,,,,,,,,0,,,79,68
658920,note_on,0,0,4,,,,,,,,,3,,,64,66
658920,note_on,600,0,4,,,,,,,,,3,,,61,66
658956,note_off,156,0,1,,,,,,,,,0,,,79,0
659016,note_off,96,0,4,,,,,,,,,3,,,64,0
659016,note_off,0,0,4,,,,,,,,,3,,,61,0
659040,note_on,24,0,4,,,,,,,,,3,,,61,67
659040,note_on,0,0,4,,,,,,,,,3,,,64,67
659040,note_on,84,0,1,,,,,,,,,0,,,82,69
659196,note_off,156,0,1,,,,,,,,,0,,,82,0
659280,note_off,240,0,4,,,,,,,,,3,,,64,0
659280,note_off,0,0,4,,,,,,,,,3,,,61,0
659280,note_on,84,0,1,,,,,,,,,0,,,79,71
659436,note_off,156,0,1,,,,,,,,,0,,,79,0
659520,note_on,84,0,1,,,,,,,,,0,,,82,72
659676,note_off,156,0,1,,,,,,,,,0,,,82,0
659760,note_on,84,0,1,,,,,,,,,0,,,79,73
659880,note_on,600,0,4,,,,,,,,,3,,,61,72
659880,note_on,0,0,4,,,,,,,,,3,,,64,72
659916,note_off,156,0,1,,,,,,,,,0,,,79,0
659976,note_off,0,0,4,,,,,,,,,3,,,61,0
659976,note_off,96,0,4,,,,,,,,,3,,,64,0
660000,note_on,84,0,1,,,,,,,,,0,,,80,75
660000,note_on,0,0,4,,,,,,,,,3,,,63,72
660000,note_on,24,0,4,,,,,,,,,3,,,60,72
660156,note_off,156,0,1,,,,,,,,,0,,,80,0
660240,note_off,240,0,4,,,,,,,,,3,,,63,0
660240,note_off,0,0,4,,,,,,,,,3,,,60,0
660240,note_on,84,0,1,,,,,,,,,0,,,75,73
660396,note_off,156,0,1,,,,,,,,,0,,,75,0
660480,note_on,84,0,1,,,,,,,,,0,,,72,71
660636,note_off,156,0,1,,,,,,,,,0,,,72,0
660720,note_on,84,0,1,,,,,,,,,0,,,68,69
660840,note_on,0,0,4,,,,,,,,,3,,,63,60
660840,note_on,600,0,4,,,,,,,,,3,,,60,60
660840,set_tempo,3720,1,0,,,,,,309278,,,,,,,
660876,note_off,156,0,1,,,,,,,,,0,,,68,0
660936,note_off,96,0,4,,,,,,,,,3,,,63,0
660936,note_off,0,0,4,,,,,,,,,3,,,60,0
660960,note_on,84,0,1,,,,,,,,,0,,,67,68
660960,set_tempo,120,1,0,,,,,,306122,,,,,,,
660960,note_on,24,0,4,,,,,,,,,3,,,64,60
660960,note_on,0,0,4,,,,,,,,,3,,,61,60
661116,note_off,156,0,1,,,,,,,,,0,,,67,0
661200,note_off,240,0,4,,,,,,,,,3,,,61,0
661200,note_on,84,0,1,,,,,,,,,0,,,79,73
661200,note_off,0,0,4,,,,,,,,,3,,,64,0
661356,note_off,156,0,1,,,,,,,,,0,,,79,0
661440,note_on,84,0,1,,,,,,,,,0,,,82,77
661596,note_off,156,0,1,,,,,,,,,0,,,82,0
661680,note_on,84,0,1,,,,,,,,,0,,,79,76
661800,note_on,600,0,4,,,,,,,,,3,,,64,76
661800,note_on,0,0,4,,,,,,,,,3,,,61,76
661836,note_off,156,0,1,,,,,,,,,0,,,79,0
661896,note_off,0,0,4,,,,,,,,,3,,,64,0
661896,note_off,96,0,4,,,,,,,,,3,,,61,0
661920,note_on,24,0,4,,,,,,,,,3,,,60,74
661920,note_on,84,0,1,,,,,,,,,0,,,80,75
661920,note_on,0,0,4,,,,,,,,,3,,,63,74
662076,note_off,156,0,1,,,,,,,,,0,,,80,0
662160,note_on,84,0,1,,,,,,,,,0,,,75,74
662160,note_off,240,0,4,,,,,,,,,3,,,63,0
662160,note_off,0,0,4,,,,,,,,,3,,,60,0
662316,note_off,156,0,1,,,,,,,,,0,,,75,0
662400,note_on,84,0,1,,,,,,,,,0,,,72,73
662556,note_off,156,0,1,,,,,,,,,0,,,72,0
662640,note_on,84,0,1,,,,,,,,,0,,,68,72
662760,note_on,600,0,4,,,,,,,,,3,,,63,70
662760,set_tempo,1800,1,0,,,,,,309278,,,,,,,
662760,note_on,0,0,4,,,,,,,,,3,,,60,70
662796,note_off,156,0,1,,,,,,,,,0,,,68,0
662856,note_off,96,0,4,,,,,,,,,3,,,60,0
662856,note_off,0,0,4,,,,,,,,,3,,,63,0
662880,note_on,24,0,4,,,,,,,,,3,,,64,71
662880,set_tempo,120,1,0,,,,,,309278,,,,,,,
662880,note_on,84,0,1,,,,,,,,,0,,,67,74
662880,note_on,0,0,4,,,,,,,,,3,,,61,71
663000,set_tempo,120,1,0,,,,,,306122,,,,,,,
663036,note_off,156,0,1,,,,,,,,,0,,,67,0
663120,note_off,0,0,4,,,,,,,,,3,,,64,0
663120,note_on,84,0,1,,,,,,,,,0,,,79,79
663120,note_off,240,0,4,,,,,,,,,3,,,61,0
663276,note_off,156,0,1,,,,,,,,,0,,,79,0
663360,note_on,84,0,1,,,,,,,,,0,,,82,81
663516,note_off,156,0,1,,,,,,,,,0,,,82,0
663600,note_on,84,0,1,,,,,,,,,0,,,79,78
663720,note_on,0,0,4,,,,,,,,,3,,,61,78
663720,note_on,600,0,4,,,,,,,,,3,,,64,78
663756,note_off,156,0,1,,,,,,,,,0,,,79,0
663816,note_off,0,0,4,,,,,,,,,3,,,64,0
663816,note_off,96,0,4,,,,,,,,,3,,,61,0
663840,note_on,0,0,4,,,,,,,,,3,,,63,78
663840,note_on,24,0,4,,,,,,,,,3,,,60,78
663840,note_on,84,0,1,,,,,,,,,0,,,80,75
663996,note_off,156,0,1,,,,,,,,,0,,,80,0
664080,note_off,240,0,4,,,,,,,,,3,,,63,0
664080,note_off,0,0,4,,,,,,,,,3,,,60,0
664080,note_on,84,0,1,,,,,,,,,0,,,75,72
664236,note_off,156,0,1,,,,,,,,,0,,,75,0
664320,note_on,84,0,1,,,,,,,,,0,,,72,69
664476,note_off,156,0,1,,,,,,,,,0,,,72,0
664560,note_on,84,0,1,,,,,,,,,0,,,68,65
664680,set_tempo,1680,1,0,,,,,,309278,,,,,,,
664680,note_on,600,0,4,,,,,,,,,3,,,48,63
664716,note_off,156,0,1,,,,,,,,,0,,,68,0
664776,note_off,96,0,4,,,,,,,,,3,,,48,0
664800,set_tempo,120,1,0,,,,,,306122,,,,,,,
664800,note_on,24,0,4,,,,,,,,,3,,,49,61
664800,note_on,84,0,1,,,,,,,,,0,,,65,62
664956,note_off,156,0,1,,,,,,,,,0,,,65,0
665040,note_on,84,0,1,,,,,,,,,0,,,61,59
665040,note_off,240,0,4,,,,,,,,,3,,,49,0
665196,note_off,156,0,1,,,,,,,,,0,,,61,0
665280,note_on,84,0,1,,,,,,,,,0,,,56,56
665436,note_off,156,0,1,,,,,,,,,0,,,56,0
665520,note_on,84,0,1,,,,,,,,,0,,,53,56
665640,note_on,600,0,4,,,,,,,,,3,,,37,49
665676,note_off,156,0,1,,,,,,,,,0,,,53,0
665736,note_off,96,0,4,,,,,,,,,3,,,37,0
665760,note_on,84,0,1,,,,,,,,,0,,,51,49
665760,note_on,24,0,4,,,,,,,,,3,,,39,48
665916,note_off,156,0,1,,,,,,,,,0,,,51,0
666000,note_on,84,0,1,,,,,,,,,0,,,46,46
666000,note_off,240,0,4,,,,,,,,,3,,,39,0
666156,note_off,156,0,1,,,,,,,,,0,,,46,0
666240,note_on,84,0,1,,,,,,,,,0,,,43,43
666396,note_off,156,0,1,,,,,,,,,0,,,43,0
666480,note_on,84,0,1,,,,,,,,,0,,,39,40
666600,set_tempo,1800,1,0,,,,,,309278,,,,,,,
666600,note_on,600,0,4,,,,,,,,,3,,,27,36
666636,note_off,156,0,1,,,,,,,,,0,,,39,0
666696,note_off,96,0,4,,,,,,,,,3,,,27,0
666720,note_on,84,0,1,,,,,,,,,0,,,44,31
666720,control_change,13440,0,3,,,,,,,64,0,2,,,,
666720,note_on,24,0,4,,,,,,,,,3,,,32,46
666720,set_tempo,120,1,0,,,,,,306122,,,,,,,
666960,note_on,240,0,3,,,,,,,,,2,,,51,31
666960,note_off,240,0,1,,,,,,,,,0,,,44,0
667116,note_off,156,0,3,,,,,,,,,2,,,51,0
667200,note_on,84,0,3,,,,,,,,,2,,,56,32
667356,note_off,156,0,3,,,,,,,,,2,,,56,0
667440,note_on,84,0,3,,,,,,,,,2,,,51,32
667440,note_on,480,0,1,,,,,,,,,0,,,63,31
667596,note_off,156,0,1,,,,,,,,,0,,,63,0
667596,note_off,156,0,3,,,,,,,,,2,,,51,0
667680,note_on,84,0,3,,,,,,,,,2,,,56,32
667680,note_on,84,0,1,,,,,,,,,0,,,60,32
667836,note_off,156,0,3,,,,,,,,,2,,,56,0
667920,note_off,240,0,1,,,,,,,,,0,,,60,0
667920,note_on,84,0,3,,,,,,,,,2,,,51,33
668076,note_off,156,0,3,,,,,,,,,2,,,51,0
668160,note_on,84,0,3,,,,,,,,,2,,,56,33
668316,note_off,156,0,3,,,,,,,,,2,,,56,0
668400,note_on,84,0,3,,,,,,,,,2,,,51,33
668400,note_on,480,0,1,,,,,,,,,0,,,68,33
668556,note_off,156,0,3,,,,,,,,,2,,,51,0
668556,note_off,156,0,1,,,,,,,,,0,,,68,0
668640,note_on,0,0,3,,,,,,,,,2,,,60,34
668640,note_on,84,0,3,,,,,,,,,2,,,56,34
668640,note_on,84,0,1,,,,,,,,,0,,,63,33
668796,note_off,0,0,3,,,,,,,,,2,,,56,0
668796,note_off,156,0,3,,,,,,,,,2,,,60,0
668880,note_on,84,0,3,,,,,,,,,2,,,51,34
668880,note_on,0,0,3,,,,,,,,,2,,,56,34
668880,note_off,240,0,1,,,,,,,,,0,,,63,0
669036,note_off,0,0,3,,,,,,,,,2,,,51,0
669036,note_off,156,0,3,,,,,,,,,2,,,56,0
669120,note_on,84,0,3,,,,,,,,,2,,,56,35
669120,note_on,0,0,3,,,,,,,,,2,,,60,35
669276,note_off,0,0,3,,,,,,,,,2,,,56,0
669276,note_off,156,0,3,,,,,,,,,2,,,60,0
669360,note_on,0,0,3,,,,,,,,,2,,,56,35
669360,note_on,84,0,3,,,,,,,,,2,,,51,35
669360,note_on,480,0,1,,,,,,,,,0,,,72,35
669516,note_off,156,0,1,,,,,,,,,0,,,72,0
669516,note_off,156,0,3,,,,,,,,,2,,,56,0
669516,note_off,0,0,3,,,,,,,,,2,,,51,0
669600,note_on,0,0,3,,,,,,,,,2,,,58,35
669600,note_on,84,0,1,,,,,,,,,0,,,67,35
669600,note_on,84,0,3,,,,,,,,,2,,,61,35
669756,note_off,0,0,3,,,,,,,,,2,,,61,0
669756,note_off,156,0,3,,,,,,,,,2,,,58,0
669840,note_on,0,0,3,,,,,,,,,2,,,58,36
669840,note_on,84,0,3,,,,,,,,,2,,,51,36
669840,note_on,0,0,1,,,,,,,,,0,,,73,36
669840,note_off,240,0,1,,,,,,,,,0,,,67,0
669996,note_off,156,0,3,,,,,,,,,2,,,58,0
669996,note_off,156,0,1,,,,,,,,,0,,,73,0
669996,note_off,0,0,3,,,,,,,,,2,,,51,0
670080,note_on,84,0,3,,,,,,,,,2,,,58,36
670080,note_on,84,0,1,,,,,,,,,0,,,70,36
670080,note_on,0,0,3,,,,,,,,,2,,,61,36
670236,note_off,156,0,1,,,,,,,,,0,,,70,0
670236,note_off,156,0,3,,,,,,,,,2,,,61,0
670236,note_off,0,0,3,,,,,,,,,2,,,58,0
670320,note_on,0,0,3,,,,,,,,,2,,,58,37
670320,note_on,84,0,3,,,,,,,,,2,,,51,37
670320,note_on,84,0,1,,,,,,,,,0,,,67,37
670440,set_tempo,3720,1,0,,,,,,309278,,,,,,,
670476,note_off,156,0,3,,,,,,,,,2,,,58,0
670476,note_off,3756,0,4,,,,,,,,,3,,,32,0
670476,note_off,156,0,1,,,,,,,,,0,,,67,0
670476,note_off,0,0,3,,,,,,,,,2,,,51,0
670560,set_tempo,120,1,0,,,,,,306122,,,,,,,
670560,note_on,84,0,4,,,,,,,,,3,,,44,52
670560,note_on,84,0,1,,,,,,,,,0,,,68,37
670800,note_on,0,0,3,,,,,,,,,2,,,51,37
670800,note_off,240,0,1,,,,,,,,,0,,,68,0
670800,note_on,324,0,3,,,,,,,,,2,,,56,37
670956,note_off,156,0,3,,,,,,,,,2,,,51,0
670956,note_off,0,0,3,,,,,,,,,2,,,56,0
671040,note_on,84,0,3,,,,,,,,,2,,,56,38
671040,note_on,0,0,3,,,,,,,,,2,,,60,38
671196,note_off,156,0,3,,,,,,,,,2,,,60,0
671196,note_off,0,0,3,,,,,,,,,2,,,56,0
671280,note_on,480,0,1,,,,,,,,,0,,,75,38
671280,note_on,84,0,3,,,,,,,,,2,,,56,38
671280,note_on,0,0,3,,,,,,,,,2,,,51,38
671436,note_off,156,0,3,,,,,,,,,2,,,51,0
671436,note_off,0,0,3,,,,,,,,,2,,,56,0
671436,note_off,156,0,1,,,,,,,,,0,,,75,0
671520,note_on,84,0,1,,,,,,,,,0,,,72,39
671520,note_on,0,0,3,,,,,,,,,2,,,60,38
671520,note_on,84,0,3,,,,,,,,,2,,,56,38
671676,note_off,156,0,3,,,,,,,,,2,,,60,0
671676,note_off,0,0,3,,,,,,,,,2,,,56,0
671760,note_on,84,0,3,,,,,,,,,2,,,56,39
671760,note_on,0,0,3,,,,,,,,,2,,,51,39
671760,note_off,240,0,1,,,,,,,,,0,,,72,0
671916,note_off,156,0,3,,,,,,,,,2,,,51,0
671916,note_off,0,0,3,,,,,,,,,2,,,56,0
672000,note_on,84,0,3,,,,,,,,,2,,,56,39
672000,note_on,0,0,3,,,,,,,,,2,,,60,39
672156,note_off,0,0,3,,,,,,,,,2,,,56,0
672156,note_off,156,0,3,,,,,,,,,2,,,60,0
672240,note_on,480,0,1,,,,,,,,,0,,,80,40
672240,note_on,84,0,3,,,,,,,,,2,,,51,40
672240,note_on,0,0,3,,,,,,,,,2,,,56,40
672396,note_off,156,0,3,,,,,,,,,2,,,56,0
672396,note_off,0,0,3,,,,,,,,,2,,,51,0
672396,note_off,156,0,1,,,,,,,,,0,,,80,0
672480,note_on,84,0,1,,,,,,,,,0,,,75,42
672480,note_on,84,0,3,,,,,,,,,2,,,56,40
672480,note_on,0,0,3,,,,,,,,,2,,,60,40
672636,note_off,0,0,3,,,,,,,,,2,,,56,0
672636,note_off,156,0,3,,,,,,,,,2,,,60,0
672720,note_on,0,0,3,,,,,,,,,2,,,56,40
672720,note_off,240,0,1,,,,,,,,,0,,,75,0
672720,note_on,84,0,3,,,,,,,,,2,,,51,40
672876,note_off,156,0,3,,,,,,,,,2,,,56,0
672876,note_off,0,0,3,,,,,,,,,2,,,51,0
672960,note_on,84,0,3,,,,,,,,,2,,,56,41
672960,note_on,0,0,3,,,,,,,,,2,,,60,41
673116,note_off,156,0,3,,,,,,,,,2,,,60,0
673116,note_off,0,0,3,,,,,,,,,2,,,56,0
673200,note_on,84,0,3,,,,,,,,,2,,,51,41
673200,note_on,480,0,1,,,,,,,,,0,,,84,44
673200,note_on,0,0,3,,,,,,,,,2,,,56,41
673356,note_off,156,0,3,,,,,,,,,2,,,56,0
673356,note_off,0,0,3,,,,,,,,,2,,,51,0
673356,note_off,156,0,1,,,,,,,,,0,,,84,0
673440,note_on,84,0,3,,,,,,,,,2,,,58,41
673440,note_on,0,0,3,,,,,,,,,2,,,61,41
673440,note_on,84,0,1,,,,,,,,,0,,,79,45
673596,note_off,0,0,3,,,,,,,,,2,,,58,0
673596,note_off,156,0,3,,,,,,,,,2,,,61,0
673680,note_off,240,0,1,,,,,,,,,0,,,79,0
673680,note_on,0,0,1,,,,,,,,,0,,,85,46
673680,note_on,84,0,3,,,,,,,,,2,,,51,42
673680,note_on,0,0,3,,,,,,,,,2,,,58,42
673836,note_off,156,0,1,,,,,,,,,0,,,85,0
673836,note_off,0,0,3,,,,,,,,,2,,,51,0
673836,note_off,156,0,3,,,,,,,,,2,,,58,0
673920,note_on,84,0,1,,,,,,,,,0,,,82,47
673920,note_on,0,0,3,,,,,,,,,2,,,58,42
673920,note_on,84,0,3,,,,,,,,,2,,,61,42
674076,note_off,156,0,3,,,,,,,,,2,,,58,0
674076,note_off,0,0,3,,,,,,,,,2,,,61,0
674076,note_off,156,0,1,,,,,,,,,0,,,82,0
674160,note_on,0,0,3,,,,,,,,,2,,,58,43
674160,note_on,84,0,3,,,,,,,,,2,,,51,43
674160,note_on,84,0,1,,,,,,,,,0,,,79,48
674280,set_tempo,3720,1,0,,,,,,309278,,,,,,,
674316,note_off,0,0,3,,,,,,,,,2,,,51,0
674316,note_off,156,0,3,,,,,,,,,2,,,58,0
674316,note_off,156,0,1,,,,,,,,,0,,,79,0
674341,note_off,3781,0,4,,,,,,,,,3,,,44,0
674400,set_tempo,120,1,0,,,,,,306122,,,,,,,
674400,note_on,84,0,1,,,,,,,,,0,,,80,49
674400,note_on,59,0,4,,,,,,,,,3,,,44,56
674640,note_off,240,0,1,,,,,,,,,0,,,80,0
674640,note_on,0,0,3,,,,,,,,,2,,,51,43
674640,note_on,324,0,3,,,,,,,,,2,,,56,43
674796,note_off,0,0,3,,,,,,,,,2,,,56,0
674796,note_off,156,0,3,,,,,,,,,2,,,51,0
674880,note_on,0,0,3,,,,,,,,,2,,,56,44
674880,note_on,84,0,3,,,,,,,,,2,,,60,44
675036,note_off,156,0,3,,,,,,,,,2,,,56,0
675036,note_off,0,0,3,,,,,,,,,2,,,60,0
675120,note_on,480,0,1,,,,,,,,,0,,,72,52
675120,note_on,84,0,3,,,,,,,,,2,,,51,44
675120,note_on,0,0,3,,,,,,,,,2,,,56,44
675276,note_off,156,0,3,,,,,,,,,2,,,56,0
675276,note_off,0,0,3,,,,,,,,,2,,,51,0
675276,note_off,156,0,1,,,,,,,,,0,,,72,0
675360,note_on,84,0,3,,,,,,,,,2,,,61,44
675360,note_on,0,0,3,,,,,,,,,2,,,58,44
675360,note_on,84,0,1,,,,,,,,,0,,,67,53
675516,note_off,156,0,3,,,,,,,,,2,,,58,0
675516,note_off,0,0,3,,,,,,,,,2,,,61,0
675600,note_on,84,0,3,,,,,,,,,2,,,51,45
675600,note_on,0,0,3,,,,,,,,,2,,,58,45
675600,note_on,0,0,1,,,,,,,,,0,,,73,53
675600,note_off,240,0,1,,,,,,,,,0,,,67,0
675756,note_off,156,0,1,,,,,,,,,0,,,73,0
675756,note_off,0,0,3,,,,,,,,,2,,,51,0
675756,note_off,156,0,3,,,,,,,,,2,,,58,0
675840,note_on,84,0,3,,,,,,,,,2,,,61,45
675840,note_on,84,0,1,,,,,,,,,0,,,70,54
675840,note_on,0,0,3,,,,,,,,,2,,,58,45
675996,note_off,156,0,3,,,,,,,,,2,,,58,0
675996,note_off,0,0,3,,,,,,,,,2,,,61,0
675996,note_off,156,0,1,,,,,,,,,0,,,70,0
676080,note_on,0,0,3,,,,,,,,,2,,,58,46
676080,note_on,84,0,3,,,,,,,,,2,,,51,46
676080,note_on,84,0,1,,,,,,,,,0,,,67,55
676200,set_tempo,1800,1,0,,,,,,309278,,,,,,,
676236,note_off,156,0,1,,,,,,,,,0,,,67,0
676236,note_off,0,0,3,,,,,,,,,2,,,51,0
676236,note_off,156,0,3,,,,,,,,,2,,,58,0
676281,note_off,1881,0,4,,,,,,,,,3,,,44,0
676320,note_on,39,0,4,,,,,,,,,3,,,44,58
676320,note_on,84,0,1,,,,,,,,,0,,,68,56
676320,set_tempo,120,1,0,,,,,,306122,,,,,,,
676476,note_off,156,0,1,,,,,,,,,0,,,68,0
676560,note_on,0,0,3,,,,,,,,,2,,,56,46
676560,note_on,324,0,3,,,,,,,,,2,,,51,46
676716,note_off,156,0,3,,,,,,,,,2,,,56,0
676716,note_off,0,0,3,,,,,,,,,2,,,51,0
676800,note_on,0,0,3,,,,,,,,,2,,,60,47
676800,note_on,84,0,3,,,,,,,,,2,,,56,47
676956,note_off,0,0,3,,,,,,,,,2,,,56,0
676956,note_off,156,0,3,,,,,,,,,2,,,60,0
677040,note_on,0,0,3,,,,,,,,,2,,,51,47
677040,note_on,84,0,3,,,,,,,,,2,,,56,47
677040,note_on,564,0,1,,,,,,,,,0,,,84,58
677196,note_off,0,0,3,,,,,,,,,2,,,56,0
677196,note_off,156,0,1,,,,,,,,,0,,,84,0
677196,note_off,156,0,3,,,,,,,,,2,,,51,0
677280,note_on,84,0,3,,,,,,,,,2,,,58,47
677280,note_on,0,0,3,,,,,,,,,2,,,61,47
677280,note_on,84,0,1,,,,,,,,,0,,,79,60
677436,note_off,156,0,3,,,,,,,,,2,,,61,0
677436,note_off,0,0,3,,,,,,,,,2,,,58,0
677520,note_on,84,0,3,,,,,,,,,2,,,58,48
677520,note_on,0,0,1,,,,,,,,,0,,,85,61
677520,note_off,240,0,1,,,,,,,,,0,,,79,0
677520,note_on,0,0,3,,,,,,,,,2,,,51,48
677676,note_off,156,0,3,,,,,,,,,2,,,51,0
677676,note_off,0,0,3,,,,,,,,,2,,,58,0
677676,note_off,156,0,1,,,,,,,,,0,,,85,0
677760,note_on,84,0,3,,,,,,,,,2,,,58,48
677760,note_on,0,0,3,,,,,,,,,2,,,61,48
677760,note_on,84,0,1,,,,,,,,,0,,,82,63
677916,note_off,156,0,3,,,,,,,,,2,,,61,0
677916,note_off,156,0,1,,,,,,,,,0,,,82,0
677916,note_off,0,0,3,,,,,,,,,2,,,58,0
678000,note_on,84,0,1,,,,,,,,,0,,,79,64
678000,note_on,84,0,3,,,,,,,,,2,,,58,49
678000,note_on,0,0,3,,,,,,,,,2,,,51,49
678120,set_tempo,1800,1,0,,,,,,309278,,,,,,,
678156,note_off,0,0,3,,,,,,,,,2,,,58,0
678156,note_off,156,0,1,,,,,,,,,0,,,79,0
678156,note_off,156,0,3,,,,,,,,,2,,,51,0
678201,note_off,1881,0,4,,,,,,,,,3,,,44,0
678240,note_on,84,0,3,,,,,,,,,2,,,60,55
678240,note_on,84,0,1,,,,,,,,,0,,,80,69
678240,note_on,39,0,4,,,,,,,,,3,,,56,55
678240,set_tempo,120,1,0,,,,,,306122,,,,,,,
678396,note_off,156,0,1,,,,,,,,,0,,,80,0
678480,note_off,240,0,4,,,,,,,,,3,,,56,0
678480,note_off,240,0,3,,,,,,,,,2,,,60,0
678480,note_on,84,0,1,,,,,,,,,0,,,84,68
678636,note_off,156,0,1,,,,,,,,,0,,,84,0
678720,note_on,84,0,1,,,,,,,,,0,,,75,67
678876,note_off,156,0,1,,,,,,,,,0,,,75,0
678960,note_on,84,0,1,,,,,,,,,0,,,80,65
679116,note_off,156,0,1,,,,,,,,,0,,,80,0
679200,note_on,84,0,1,,,,,,,,,0,,,72,64
679356,note_off,156,0,1,,,,,,,,,0,,,72,0
679440,note_on,84,0,1,,,,,,,,,0,,,75,63
679596,note_off,156,0,1,,,,,,,,,0,,,75,0
679680,note_on,84,0,1,,,,,,,,,0,,,73,62
679836,note_off,156,0,1,,,,,,,,,0,,,73,0
679920,note_on,84,0,1,,,,,,,,,0,,,70,61
680040,set_tempo,1800,1,0,,,,,,309278,,,,,,,
680076,note_off,156,0,1,,,,,,,,,0,,,70,0
680160,note_on,1680,0,4,,,,,,,,,3,,,56,55
680160,note_on,84,0,1,,,,,,,,,0,,,68,59
680160,set_tempo,120,1,0,,,,,,306122,,,,,,,
680316,note_off,156,0,1,,,,,,,,,0,,,68,0
680316,note_off,156,0,4,,,,,,,,,3,,,56,0
680400,note_on,84,0,4,,,,,,,,,3,,,60,53
680400,note_on,84,0,1,,,,,,,,,0,,,72,58
680556,note_off,156,0,1,,,,,,,,,0,,,72,0
680556,note_off,156,0,4,,,,,,,,,3,,,60,0
680640,note_on,84,0,1,,,,,,,,,0,,,63,57
680640,note_on,84,0,4,,,,,,,,,3,,,51,52
680796,note_off,156,0,4,,,,,,,,,3,,,51,0
680796,note_off,156,0,1,,,,,,,,,0,,,63,0
680880,note_on,84,0,1,,,,,,,,,0,,,68,56
680880,note_on,84,0,4,,,,,,,,,3,,,56,50
681036,note_off,156,0,1,,,,,,,,,0,,,68,0
681036,note_off,156,0,4,,,,,,,,,3,,,56,0
681120,note_on,84,0,1,,,,,,,,,0,,,60,54
681120,note_on,84,0,4,,,,,,,,,3,,,48,49
681276,note_off,156,0,4,,,,,,,,,3,,,48,0
681276,note_off,156,0,1,,,,,,,,,0,,,60,0
681360,note_on,84,0,1,,,,,,,,,0,,,63,53
681360,note_on,84,0,4,,,,,,,,,3,,,51,48
681516,note_off,156,0,1,,,,,,,,,0,,,63,0
681516,note_off,156,0,4,,,,,,,,,3,,,51,0
681600,note_on,84,0,1,,,,,,,,,0,,,61,52
681600,note_on,84,0,4,,,,,,,,,3,,,49,46
681756,note_off,156,0,4,,,,,,,,,3,,,49,0
681756,note_off,156,0,1,,,,,,,,,0,,,61,0
681840,note_on,84,0,4,,,,,,,,,3,,,46,45
681840,note_on,84,0,1,,,,,,,,,0,,,58,51
681960,set_tempo,1800,1,0,,,,,,309278,,,,,,,
681996,note_off,156,0,1,,,,,,,,,0,,,58,0
681996,note_off,156,0,4,,,,,,,,,3,,,46,0
682080,set_tempo,120,1,0,,,,,,306122,,,,,,,
682080,note_on,84,0,1,,,,,,,,,0,,,56,50
682080,note_on,84,0,4,,,,,,,,,3,,,44,44
682236,note_off,156,0,1,,,,,,,,,0,,,56,0
682236,note_off,156,0,4,,,,,,,,,3,,,44,0
682320,note_on,84,0,4,,,,,,,,,3,,,47,47
682320,note_on,84,0,1,,,,,,,,,0,,,59,51
682560,note_on,0,0,1,,,,,,,,,0,,,60,60
682560,note_off,240,0,1,,,,,,,,,0,,,59,0
682560,note_off,240,0,4,,,,,,,,,3,,,47,0
682560,note_on,0,0,4,,,,,,,,,3,,,48,56
682716,note_off,156,0,4,,,,,,,,,3,,,48,0
682716,note_off,156,0,1,,,,,,,,,0,,,60,0
682800,note_on,84,0,4,,,,,,,,,3,,,43,50
682800,note_on,84,0,1,,,,,,,,,0,,,55,52
682956,note_off,156,0,4,,,,,,,,,3,,,43,0
682956,note_off,156,0,1,,,,,,,,,0,,,55,0
683040,note_on,84,0,4,,,,,,,,,3,,,44,48
683040,note_on,84,0,1,,,,,,,,,0,,,56,50
683196,note_off,156,0,4,,,,,,,,,3,,,44,0
683196,note_off,156,0,1,,,,,,,,,0,,,56,0
683280,note_on,84,0,1,,,,,,,,,0,,,52,49
683280,note_on,84,0,4,,,,,,,,,3,,,40,46
683436,note_off,156,0,1,,,,,,,,,0,,,52,0
683436,note_off,156,0,4,,,,,,,,,3,,,40,0
683520,note_on,84,0,1,,,,,,,,,0,,,53,47
683520,note_on,84,0,4,,,,,,,,,3,,,41,45
683676,note_off,156,0,4,,,,,,,,,3,,,41,0
683676,note_off,156,0,1,,,,,,,,,0,,,53,0
683760,note_on,84,0,1,,,,,,,,,0,,,48,45
683760,note_on,84,0,4,,,,,,,,,3,,,36,43
683880,set_tempo,1800,1,0,,,,,,309278,,,,,,,
683916,note_off,156,0,1,,,,,,,,,0,,,48,0
683916,note_off,156,0,4,,,,,,,,,3,,,36,0
684000,note_on,84,0,1,,,,,,,,,0,,,49,44
684000,set_tempo,120,1,0,,,,,,306122,,,,,,,
684000,note_on,84,0,4,,,,,,,,,3,,,37,41
684156,note_off,156,0,4,,,,,,,,,3,,,37,0
684156,note_off,156,0,1,,,,,,,,,0,,,49,0
684240,note_on,84,0,4,,,,,,,,,3,,,48,48
684240,note_on,84,0,1,,,,,,,,,0,,,60,51
684480,note_on,0,0,4,,,,,,,,,3,,,49,60
684480,note_off,240,0,4,,,,,,,,,3,,,48,0
684480,note_on,0,0,1,,,,,,,,,0,,,61,57
684480,note_off,240,0,1,,,,,,,,,0,,,60,0
684636,note_off,156,0,4,,,,,,,,,3,,,49,0
684636,note_off,156,0,1,,,,,,,,,0,,,61,0
684720,note_on,84,0,4,,,,,,,,,3,,,45,53
684720,note_on,84,0,1,,,,,,,,,0,,,57,66
684876,note_off,156,0,4,,,,,,,,,3,,,45,0
684876,note_off,156,0,1,,,,,,,,,0,,,57,0
684960,note_on,84,0,1,,,,,,,,,0,,,58,59
684960,note_on,84,0,4,,,,,,,,,3,,,46,51
685116,note_off,156,0,4,,,,,,,,,3,,,46,0
685116,note_off,156,0,1,,,,,,,,,0,,,58,0
685200,note_on,84,0,1,,,,,,,,,0,,,54,56
685200,note_on,84,0,4,,,,,,,,,3,,,42,49
685356,note_off,156,0,1,,,,,,,,,0,,,54,0
685356,note_off,156,0,4,,,,,,,,,3,,,42,0
685440,note_on,84,0,1,,,,,,,,,0,,,55,53
685440,note_on,84,0,4,,,,,,,,,3,,,43,47
685596,note_off,156,0,1,,,,,,,,,0,,,55,0
685596,note_off,156,0,4,,,,,,,,,3,,,43,0
685680,note_on,84,0,4,,,,,,,,,3,,,38,45
685680,note_on,84,0,1,,,,,,,,,0,,,50,49
685800,set_tempo,1800,1,0,,,,,,309278,,,,,,,
685836,note_off,156,0,4,,,,,,,,,3,,,38,0
685836,note_off,156,0,1,,,,,,,,,0,,,50,0
685920,note_on,84,0,4,,,,,,,,,3,,,39,49
685920,note_on,84,0,1,,,,,,,,,0,,,51,50
685920,set_tempo,120,1,0,,,,,,306122,,,,,,,
686076,note_off,156,0,4,,,,,,,,,3,,,39,0
686076,note_off,156,0,1,,,,,,,,,0,,,51,0
686160,note_on,84,0,4,,,,,,,,,3,,,41,51
686160,note_on,84,0,1,,,,,,,,,0,,,53,52
686316,note_off,156,0,4,,,,,,,,,3,,,41,0
686316,note_off,156,0,1,,,,,,,,,0,,,53,0
686400,note_on,84,0,1,,,,,,,,,0,,,55,54
686400,note_on,84,0,4,,,,,,,,,3,,,43,53
686556,note_off,156,0,1,,,,,,,,,0,,,55,0
686556,note_off,156,0,4,,,,,,,,,3,,,43,0
686640,note_on,84,0,4,,,,,,,,,3,,,44,55
686640,note_on,84,0,1,,,,,,,,,0,,,56,56
686796,note_off,156,0,4,,,,,,,,,3,,,44,0
686796,note_off,156,0,1,,,,,,,,,0,,,56,0
686880,note_on,84,0,4,,,,,,,,,3,,,46,57
686880,note_on,84,0,1,,,,,,,,,0,,,58,57
687036,note_off,156,0,4,,,,,,,,,3,,,46,0
687036,note_off,156,0,1,,,,,,,,,0,,,58,0
687120,note_on,84,0,4,,,,,,,,,3,,,48,58
687120,note_on,84,0,1,,,,,,,,,0,,,60,59
687276,note_off,156,0,4,,,,,,,,,3,,,48,0
687276,note_off,156,0,1,,,,,,,,,0,,,60,0
687360,note_on,84,0,4,,,,,,,,,3,,,49,60
687360,note_on,84,0,1,,,,,,,,,0,,,61,61
687516,note_off,156,0,1,,,,,,,,,0,,,61,0
687516,note_off,156,0,4,,,,,,,,,3,,,49,0
687600,note_on,84,0,4,,,,,,,,,3,,,51,62
687600,note_on,84,0,1,,,,,,,,,0,,,63,62
687756,note_off,156,0,1,,,,,,,,,0,,,63,0
687756,note_off,156,0,4,,,,,,,,,3,,,51,0
687840,note_on,84,0,1,,,,,,,,,0,,,65,64
687840,note_on,84,0,4,,,,,,,,,3,,,53,64
687996,note_off,156,0,1,,,,,,,,,0,,,65,0
687996,note_off,156,0,4,,,,,,,,,3,,,53,0
688080,note_on,84,0,1,,,,,,,,,0,,,67,66
688080,note_on,84,0,4,,,,,,,,,3,,,55,66
688236,note_off,156,0,1,,,,,,,,,0,,,67,0
688236,note_off,156,0,4,,,,,,,,,3,,,55,0
688320,note_on,84,0,1,,,,,,,,,0,,,68,68
688320,note_on,84,0,4,,,,,,,,,3,,,56,68
688476,note_off,156,0,4,,,,,,,,,3,,,56,0
688476,note_off,156,0,1,,,,,,,,,0,,,68,0
688560,note_on,84,0,4,,,,,,,,,3,,,58,70
688560,note_on,84,0,1,,,,,,,,,0,,,70,69
688716,note_off,156,0,1,,,,,,,,,0,,,70,0
688716,note_off,156,0,4,,,,,,,,,3,,,58,0
688800,note_on,84,0,4,,,,,,,,,3,,,60,72
688800,note_on,84,0,1,,,,,,,,,0,,,72,71
688956,note_off,156,0,4,,,,,,,,,3,,,60,0
688956,note_off,156,0,1,,,,,,,,,0,,,72,0
689040,note_on,84,0,4,,,,,,,,,3,,,55,73
689040,note_on,84,0,1,,,,,,,,,0,,,67,73
689196,note_off,156,0,4,,,,,,,,,3,,,55,0
689196,note_off,156,0,1,,,,,,,,,0,,,67,0
689280,note_on,84,0,4,,,,,,,,,3,,,56,75
689280,note_on,84,0,1,,,,,,,,,0,,,68,75
689436,note_off,156,0,4,,,,,,,,,3,,,56,0
689436,note_off,156,0,1,,,,,,,,,0,,,68,0
689520,note_on,84,0,1,,,,,,,,,0,,,64,76
689520,note_on,84,0,4,,,,,,,,,3,,,52,77
689676,note_off,156,0,1,,,,,,,,,0,,,64,0
689676,note_off,156,0,4,,,,,,,,,3,,,52,0
689760,note_on,84,0,4,,,,,,,,,3,,,53,79
689760,note_on,84,0,1,,,,,,,,,0,,,65,78
689916,note_off,156,0,1,,,,,,,,,0,,,65,0
689916,note_off,156,0,4,,,,,,,,,3,,,53,0
690000,note_on,84,0,1,,,,,,,,,0,,,60,80
690000,note_on,84,0,4,,,,,,,,,3,,,48,81
690156,note_off,156,0,4,,,,,,,,,3,,,48,0
690156,note_off,156,0,1,,,,,,,,,0,,,60,0
690240,note_on,84,0,1,,,,,,,,,0,,,61,81
690240,note_on,84,0,4,,,,,,,,,3,,,49,83
690396,note_off,156,0,1,,,,,,,,,0,,,61,0
690396,note_off,156,0,4,,,,,,,,,3,,,49,0
690480,note_on,84,0,1,,,,,,,,,0,,,57,83
690480,note_on,84,0,4,,,,,,,,,3,,,45,85
690636,note_off,156,0,1,,,,,,,,,0,,,57,0
690636,note_off,156,0,4,,,,,,,,,3,,,45,0
690720,note_on,84,0,1,,,,,,,,,0,,,58,89
690720,note_on,84,0,4,,,,,,,,,3,,,46,87
690876,note_off,156,0,4,,,,,,,,,3,,,46,0
690876,note_off,156,0,1,,,,,,,,,0,,,58,0
690960,note_on,84,0,4,,,,,,,,,3,,,48,86
690960,note_on,84,0,1,,,,,,,,,0,,,60,88
691116,note_off,156,0,4,,,,,,,,,3,,,48,0
691116,note_off,156,0,1,,,,,,,,,0,,,60,0
691200,note_on,84,0,1,,,,,,,,,0,,,61,86
691200,note_on,84,0,4,,,,,,,,,3,,,49,84
691356,note_off,156,0,4,,,,,,,,,3,,,49,0
691356,note_off,156,0,1,,,,,,,,,0,,,61,0
691440,note_on,84,0,1,,,,,,,,,0,,,62,84
691440,note_on,84,0,4,,,,,,,,,3,,,50,82
691560,set_tempo,5640,1,0,,,,,,309278,,,,,,,
691596,note_off,156,0,1,,,,,,,,,0,,,62,0
691596,note_off,156,0,4,,,,,,,,,3,,,50,0
691680,note_on,84,0,1,,,,,,,,,0,,,63,82
691680,set_tempo,120,1,0,,,,,,312500,,,,,,,
691680,note_on,84,0,4,,,,,,,,,3,,,51,80
691920,note_off,240,0,1,,,,,,,,,0,,,63,0
691946,note_off,266,0,4,,,,,,,,,3,,,51,0
692640,note_on,720,0,1,,,,,,,,,0,,,51,75
692640,note_on,694,0,4,,,,,,,,,3,,,39,72
692880,note_off,240,0,4,,,,,,,,,3,,,39,0
692880,note_off,240,0,1,,,,,,,,,0,,,51,0
693600,set_tempo,1920,1,0,,,,,,315789,,,,,,,
693600,note_on,720,0,4,,,,,,,,,3,,,32,65
693600,note_on,720,0,1,,,,,,,,,0,,,44,68
693840,note_off,240,0,1,,,,,,,,,0,,,44,0
693840,note_off,240,0,4,,,,,,,,,3,,,32,0
694560,note_on,0,0,4,,,,,,,,,3,,,51,57
694560,note_on,720,0,4,,,,,,,,,3,,,63,57
694560,note_on,0,0,1,,,,,,,,,0,,,75,60
694560,note_on,720,0,1,,,,,,,,,0,,,63,60
694800,note_off,0,0,1,,,,,,,,,0,,,63,0
694800,note_off,240,0,1,,,,,,,,,0,,,75,0
694800,note_off,240,0,4,,,,,,,,,3,,,51,0
694800,note_off,0,0,4,,,,,,,,,3,,,63,0
695520,note_on,720,0,1,,,,,,,,,0,,,56,53
695520,note_on,720,0,4,,,,,,,,,3,,,56,49
695520,note_on,0,0,4,,,,,,,,,3,,,44,49
695520,note_on,0,0,1,,,,,,,,,0,,,68,53
695760,note_off,0,0,4,,,,,,,,,3,,,56,0
695760,note_off,240,0,1,,,,,,,,,0,,,68,0
695760,note_off,0,0,1,,,,,,,,,0,,,56,0
695760,note_off,240,0,4,,,,,,,,,3,,,44,0
696000,set_tempo,2400,1,0,,,,,,324324,,,,,,,
696480,note_on,0,0,4,,,,,,,,,3,,,39,42
696480,note_on,720,0,1,,,,,,,,,0,,,51,46
696480,note_on,0,0,1,,,,,,,,,0,,,63,46
696480,note_on,720,0,4,,,,,,,,,3,,,51,42
696600,note_off,0,0,1,,,,,,,,,0,,,51,0
696600,note_off,120,0,1,,,,,,,,,0,,,63,0
696600,note_off,0,0,4,,,,,,,,,3,,,51,0
696600,note_off,120,0,4,,,,,,,,,3,,,39,0
696960,note_on,0,0,1,,,,,,,,,0,,,63,42
696960,note_on,360,0,1,,,,,,,,,0,,,51,42
696960,note_on,0,0,4,,,,,,,,,3,,,39,38
696960,note_on,360,0,4,,,,,,,,,3,,,51,38
697080,note_off,0,0,4,,,,,,,,,3,,,51,0
697080,note_off,0,0,1,,,,,,,,,0,,,51,0
697080,note_off,120,0,1,,,,,,,,,0,,,63,0
697080,note_off,120,0,4,,,,,,,,,3,,,39,0
697200,set_tempo,1200,1,0,,,,,,327868,,,,,,,
697440,note_on,360,0,4,,,,,,,,,3,,,44,34
697440,note_on,0,0,4,,,,,,,,,3,,,32,34
697440,note_on,0,0,1,,,,,,,,,0,,,56,39
697440,note_on,360,0,1,,,,,,,,,0,,,44,39
697440,set_tempo,240,1,0,,,,,,500000,,,,,,,
697680,note_off,240,0,4,,,,,,,,,3,,,32,0
697680,note_off,0,0,4,,,,,,,,,3,,,44,0
697680,note_off,0,0,1,,,,,,,,,0,,,44,0
697680,note_off,240,0,1,,,,,,,,,0,,,56,0
699360,time_signature,1920,1,0,3,4,24,8,,,,,,,,,
699360,marker,0,1,0,,,,,,,,,,,,,
699360,program_change,0,0,4,,,,,,,,,3,0,,,
699360,control_change,0,0,4,,,,,,,32,0,3,,,,
699360,control_change,0,0,4,,,,,,,0,0,3,,,,
699360,control_change,0,0,4,,,,,,,10,55,3,,,,
699360,control_change,0,0,4,,,,,,,91,91,3,,,,
699360,control_change,0,0,4,,,,,,,93,28,3,,,,
699360,control_change,0,0,4,,,,,,,64,0,3,,,,
699360,control_change,0,0,4,,,,,,,1,0,3,,,,
699360,pitchwheel,0,0,4,,,,,,,,,3,,0,,
699360,control_change,1680,0,4,,,,,,,7,122,3,,,,
699360,set_tempo,0,1,0,,,,,,600000,,,,,,,
699360,control_change,20880,0,3,,,,,,,7,122,2,,,,
699360,control_change,1680,0,1,,,,,,,10,73,0,,,,
699360,control_change,0,0,2,,,,,,,93,28,1,,,,
699360,control_change,0,0,2,,,,,,,91,91,1,,,,
699360,control_change,0,0,2,,,,,,,10,64,1,,,,
699360,control_change,0,0,2,,,,,,,0,0,1,,,,
699360,control_change,0,0,2,,,,,,,32,0,1,,,,
699360,program_change,0,0,2,,,,,,,,,1,0,,,
699360,control_change,0,0,2,,,,,,,64,0,1,,,,
699360,pitchwheel,0,0,3,,,,,,,,,2,,0,,
699360,control_change,0,0,3,,,,,,,64,0,2,,,,
699360,control_change,0,0,3,,,,,,,93,28,2,,,,
699360,control_change,0,0,3,,,,,,,91,91,2,,,,
699360,control_change,0,0,3,,,,,,,10,64,2,,,,
699360,control_change,0,0,3,,,,,,,0,0,2,,,,
699360,control_change,0,0,3,,,,,,,32,0,2,,,,
699360,control_change,0,0,3,,,,,,,1,0,2,,,,
699360,control_change,0,0,2,,,,,,,1,0,1,,,,
699360,pitchwheel,0,0,2,,,,,,,,,1,,0,,
699360,control_change,46080,0,2,,,,,,,7,117,1,,,,
699360,control_change,0,0,1,,,,,,,91,91,0,,,,
699360,control_change,0,0,1,,,,,,,93,28,0,,,,
699360,control_change,0,0,1,,,,,,,64,0,0,,,,
699360,control_change,0,0,1,,,,,,,1,0,0,,,,
699360,control_change,0,0,1,,,,,,,7,127,0,,,,
699360,control_change,0,0,1,,,,,,,0,0,0,,,,
699360,control_change,0,0,1,,,,,,,32,0,0,,,,
699360,pitchwheel,0,0,1,,,,,,,,,0,,0,,
699360,program_change,0,0,1,,,,,,,,,0,0,,,
699360,program_change,0,0,3,,,,,,,,,2,0,,,
700320,note_on,960,0,1,,,,,,,,,0,,,58,40
700320,set_tempo,960,1,0,,,,,,526315,,,,,,,
700680,note_off,360,0,1,,,,,,,,,0,,,58,0
700680,note_on,0,0,1,,,,,,,,,0,,,63,40
700680,set_tempo,360,1,0,,,,,,535714,,,,,,,
700800,set_tempo,120,1,0,,,,,,508474,,,,,,,
700800,note_on,1440,0,3,,,,,,,,,2,,,55,36
700800,note_on,1440,0,4,,,,,,,,,3,,,51,36
700800,note_on,0,0,1,,,,,,,,,0,,,63,41
700800,note_off,120,0,1,,,,,,,,,0,,,63,0
701040,note_on,0,0,3,,,,,,,,,2,,,58,36
701040,note_off,240,0,3,,,,,,,,,2,,,55,0
701280,note_off,240,0,3,,,,,,,,,2,,,58,0
701280,note_on,0,0,3,,,,,,,,,2,,,55,37
701520,note_off,240,0,3,,,,,,,,,2,,,55,0
701520,note_on,0,0,3,,,,,,,,,2,,,58,37
701760,note_off,240,0,3,,,,,,,,,2,,,58,0
701760,note_on,0,0,1,,,,,,,,,0,,,67,43
701760,note_off,960,0,1,,,,,,,,,0,,,63,0
701760,note_on,0,0,3,,,,,,,,,2,,,55,38
702000,note_on,0,0,3,,,,,,,,,2,,,58,38
702000,note_off,240,0,3,,,,,,,,,2,,,55,0
702120,note_off,360,0,1,,,,,,,,,0,,,67,0
702120,note_on,0,0,1,,,,,,,,,0,,,63,43
702120,set_tempo,1320,1,0,,,,,,517241,,,,,,,
702240,note_off,240,0,3,,,,,,,,,2,,,58,0
702240,note_on,0,0,3,,,,,,,,,2,,,56,39
702240,note_off,1440,0,4,,,,,,,,,3,,,51,0
702240,note_on,0,0,4,,,,,,,,,3,,,53,39
702240,note_off,120,0,1,,,,,,,,,0,,,63,0
702240,note_on,0,0,1,,,,,,,,,0,,,63,44
702240,set_tempo,120,1,0,,,,,,508474,,,,,,,
702480,note_off,240,0,3,,,,,,,,,2,,,56,0
702480,note_on,0,0,3,,,,,,,,,2,,,58,39
702720,note_on,0,0,3,,,,,,,,,2,,,56,40
702720,note_off,240,0,3,,,,,,,,,2,,,58,0
702720,note_off,480,0,1,,,,,,,,,0,,,63,0
702720,note_on,0,0,1,,,,,,,,,0,,,62,45
702960,note_off,240,0,3,,,,,,,,,2,,,56,0
702960,note_on,0,0,3,,,,,,,,,2,,,58,40
703200,note_off,240,0,3,,,,,,,,,2,,,58,0
703200,note_on,0,0,3,,,,,,,,,2,,,56,41
703320,note_off,600,0,1,,,,,,,,,0,,,62,0
703440,note_on,0,0,4,,,,,,,,,3,,,51,41
703440,note_off,1200,0,4,,,,,,,,,3,,,53,0
703440,note_on,120,0,1,,,,,,,,,0,,,63,46
703440,note_on,0,0,3,,,,,,,,,2,,,55,41
703440,note_off,240,0,3,,,,,,,,,2,,,56,0
703450,set_tempo,1210,1,0,,,,,,517241,,,,,,,
703680,note_on,0,0,4,,,,,,,,,3,,,50,42
703680,note_off,240,0,3,,,,,,,,,2,,,55,0
703680,note_on,0,0,1,,,,,,,,,0,,,65,47
703680,note_off,240,0,4,,,,,,,,,3,,,51,0
703680,note_on,0,0,3,,,,,,,,,2,,,53,42
703680,set_tempo,230,1,0,,,,,,508474,,,,,,,
703680,note_on,4320,0,2,,,,,,,,,1,,,58,47
703680,note_off,240,0,1,,,,,,,,,0,,,63,0
703920,note_off,240,0,2,,,,,,,,,1,,,58,0
703920,note_on,0,0,2,,,,,,,,,1,,,58,47
704160,note_off,240,0,2,,,,,,,,,1,,,58,0
704160,note_on,0,0,2,,,,,,,,,1,,,58,48
704400,note_on,0,0,3,,,,,,,,,2,,,51,43
704400,note_off,240,0,2,,,,,,,,,1,,,58,0
704400,note_on,0,0,4,,,,,,,,,3,,,48,43
704400,note_on,0,0,1,,,,,,,,,0,,,67,48
704400,note_off,720,0,4,,,,,,,,,3,,,50,0
704400,note_off,720,0,3,,,,,,,,,2,,,53,0
704400,note_off,720,0,1,,,,,,,,,0,,,65,0
704400,note_on,0,0,2,,,,,,,,,1,,,58,48
704590,set_tempo,910,1,0,,,,,,521739,,,,,,,
704640,note_off,240,0,4,,,,,,,,,3,,,48,0
704640,note_on,0,0,4,,,,,,,,,3,,,46,44
704640,note_on,0,0,1,,,,,,,,,0,,,68,49
704640,note_on,0,0,3,,,,,,,,,2,,,50,44
704640,note_off,240,0,1,,,,,,,,,0,,,67,0
704640,note_on,0,0,2,,,,,,,,,1,,,65,49
704640,note_on,0,0,2,,,,,,,,,1,,,58,49
704640,note_off,240,0,3,,,,,,,,,2,,,51,0
704640,note_off,240,0,2,,,,,,,,,1,,,58,0
704880,note_on,0,0,4,,,,,,,,,3,,,50,45
704880,note_off,240,0,4,,,,,,,,,3,,,46,0
704880,note_on,0,0,3,,,,,,,,,2,,,53,45
704880,note_on,0,0,2,,,,,,,,,1,,,65,49
704880,note_on,0,0,2,,,,,,,,,1,,,58,49
704880,note_off,0,0,2,,,,,,,,,1,,,58,0
704880,note_off,240,0,2,,,,,,,,,1,,,65,0
704880,note_off,240,0,3,,,,,,,,,2,,,50,0
704880,note_off,240,0,1,,,,,,,,,0,,,68,0
704880,note_on,0,0,1,,,,,,,,,0,,,70,49
704890,set_tempo,300,1,0,,,,,,517241,,,,,,,
705120,note_off,240,0,3,,,,,,,,,2,,,53,0
705120,note_off,240,0,1,,,,,,,,,0,,,70,0
705120,note_on,0,0,1,,,,,,,,,0,,,68,49
705120,note_on,0,0,4,,,,,,,,,3,,,51,47
705120,note_off,240,0,4,,,,,,,,,3,,,50,0
705120,note_on,0,0,2,,,,,,,,,1,,,65,49
705120,note_on,0,0,2,,,,,,,,,1,,,58,49
705120,note_off,0,0,2,,,,,,,,,1,,,58,0
705120,note_off,240,0,2,,,,,,,,,1,,,65,0
705360,note_on,0,0,2,,,,,,,,,1,,,58,47
705360,note_off,240,0,2,,,,,,,,,1,,,58,0
705600,note_on,0,0,1,,,,,,,,,0,,,67,46
705600,note_on,480,0,4,,,,,,,,,3,,,39,44
705600,note_off,480,0,1,,,,,,,,,0,,,68,0
705600,note_on,0,0,2,,,,,,,,,1,,,63,46
705600,note_on,0,0,2,,,,,,,,,1,,,58,46
705600,note_off,0,0,2,,,,,,,,,1,,,65,0
705600,note_off,240,0,2,,,,,,,,,1,,,58,0
705840,note_on,0,0,2,,,,,,,,,1,,,58,44
705840,note_off,240,0,2,,,,,,,,,1,,,58,0
705840,set_tempo,950,1,0,,,,,,535714,,,,,,,
706020,note_off,0,0,2,,,,,,,,,1,,,63,0
706020,note_off,180,0,2,,,,,,,,,1,,,58,0
706020,note_off,420,0,4,,,,,,,,,3,,,39,0
706027,note_off,7,0,4,,,,,,,,,3,,,51,0
706027,note_off,427,0,1,,,,,,,,,0,,,67,0
706080,note_on,53,0,4,,,,,,,,,3,,,51,44
706080,note_on,53,0,1,,,,,,,,,0,,,67,44
706080,note_on,60,0,2,,,,,,,,,1,,,63,44
706080,set_tempo,240,1,0,,,,,,508474,,,,,,,
706320,note_off,240,0,2,,,,,,,,,1,,,63,0
706320,note_on,0,0,2,,,,,,,,,1,,,63,45
706440,note_on,0,0,4,,,,,,,,,3,,,53,46
706440,set_tempo,360,1,0,,,,,,517241,,,,,,,
706440,note_on,360,0,1,,,,,,,,,0,,,68,46
706440,note_off,360,0,4,,,,,,,,,3,,,51,0
706447,note_off,7,0,1,,,,,,,,,0,,,67,0
706560,set_tempo,120,1,0,,,,,,508474,,,,,,,
706560,note_off,120,0,4,,,,,,,,,3,,,53,0
706560,note_on,0,0,2,,,,,,,,,1,,,63,46
706560,note_off,113,0,1,,,,,,,,,0,,,68,0
706560,note_on,0,0,4,,,,,,,,,3,,,55,46
706560,note_off,240,0,2,,,,,,,,,1,,,63,0
706560,note_on,0,0,1,,,,,,,,,0,,,70,46
706800,note_on,0,0,2,,,,,,,,,1,,,63,48
706800,note_off,240,0,2,,,,,,,,,1,,,63,0
707040,note_on,0,0,2,,,,,,,,,1,,,63,49
707040,note_off,240,0,2,,,,,,,,,1,,,63,0
707280,note_off,240,0,2,,,,,,,,,1,,,63,0
707280,note_on,0,0,2,,,,,,,,,1,,,63,50
707280,note_off,720,0,4,,,,,,,,,3,,,55,0
707280,note_on,0,0,4,,,,,,,,,3,,,51,50
707280,note_on,0,0,1,,,,,,,,,0,,,67,50
707280,note_off,720,0,1,,,,,,,,,0,,,70,0
707520,note_off,240,0,1,,,,,,,,,0,,,67,0
707520,note_on,0,0,1,,,,,,,,,0,,,72,51
707520,note_off,240,0,2,,,,,,,,,1,,,63,0
707520,note_on,0,0,2,,,,,,,,,1,,,63,51
707520,note_off,240,0,4,,,,,,,,,3,,,51,0
707520,note_on,0,0,4,,,,,,,,,3,,,56,51
707760,note_off,240,0,2,,,,,,,,,1,,,63,0
707760,note_off,240,0,4,,,,,,,,,3,,,56,0
707760,note_off,240,0,1,,,,,,,,,0,,,72,0
707760,note_on,0,0,1,,,,,,,,,0,,,68,53
707760,note_on,0,0,2,,,,,,,,,1,,,63,53
707760,note_on,0,0,4,,,,,,,,,3,,,53,53
707880,set_tempo,1320,1,0,,,,,,517241,,,,,,,
708000,note_off,240,0,2,,,,,,,,,1,,,63,0
708000,note_on,0,0,2,,,,,,,,,1,,,63,54
708000,set_tempo,120,1,0,,,,,,508474,,,,,,,
708000,note_off,240,0,1,,,,,,,,,0,,,68,0
708000,note_on,0,0,4,,,,,,,,,3,,,55,54
708000,note_off,240,0,4,,,,,,,,,3,,,53,0
708000,note_on,0,0,1,,,,,,,,,0,,,70,54
708240,note_off,240,0,2,,,,,,,,,1,,,63,0
708240,note_on,0,0,2,,,,,,,,,1,,,63,55
708480,note_off,240,0,2,,,,,,,,,1,,,63,0
708480,note_on,0,0,2,,,,,,,,,1,,,63,56
708720,note_on,0,0,1,,,,,,,,,0,,,71,57
708720,note_off,240,0,2,,,,,,,,,1,,,63,0
708720,note_on,0,0,2,,,,,,,,,1,,,63,57
708720,note_off,720,0,1,,,,,,,,,0,,,70,0
708960,note_off,240,0,2,,,,,,,,,1,,,63,0
708960,note_on,0,0,2,,,,,,,,,1,,,63,59
708960,note_off,240,0,1,,,,,,,,,0,,,71,0
708960,note_on,0,0,1,,,,,,,,,0,,,72,59
708960,note_off,960,0,4,,,,,,,,,3,,,55,0
708960,note_on,0,0,4,,,,,,,,,3,,,56,59
709185,set_tempo,1185,1,0,,,,,,517241,,,,,,,
709200,note_off,240,0,2,,,,,,,,,1,,,63,0
709200,note_on,0,0,2,,,,,,,,,1,,,63,60
709200,note_off,240,0,1,,,,,,,,,0,,,72,0
709200,note_on,0,0,1,,,,,,,,,0,,,70,60
709200,note_on,0,0,4,,,,,,,,,3,,,55,60
709200,note_off,240,0,4,,,,,,,,,3,,,56,0
709440,note_off,240,0,4,,,,,,,,,3,,,55,0
709440,note_on,0,0,4,,,,,,,,,3,,,53,58
709440,note_off,240,0,1,,,,,,,,,0,,,70,0
709440,note_on,0,0,1,,,,,,,,,0,,,70,58
709440,note_off,240,0,2,,,,,,,,,1,,,63,0
709440,note_on,0,0,2,,,,,,,,,1,,,60,58
709680,note_off,240,0,1,,,,,,,,,0,,,70,0
709680,note_on,0,0,2,,,,,,,,,1,,,60,56
709680,note_off,240,0,2,,,,,,,,,1,,,60,0
709680,note_on,0,0,1,,,,,,,,,0,,,68,56
709920,note_on,0,0,2,,,,,,,,,1,,,61,54
709920,note_off,240,0,2,,,,,,,,,1,,,60,0
710160,note_off,720,0,4,,,,,,,,,3,,,53,0
710160,note_on,0,0,4,,,,,,,,,3,,,46,52
710160,note_off,480,0,1,,,,,,,,,0,,,68,0
710160,note_off,240,0,2,,,,,,,,,1,,,61,0
710160,note_on,0,0,2,,,,,,,,,1,,,62,52
710160,note_on,0,0,2,,,,,,,,,1,,,58,52
710160,note_on,0,0,1,,,,,,,,,0,,,65,52
710400,note_on,0,0,1,,,,,,,,,0,,,67,50
710400,note_off,240,0,2,,,,,,,,,1,,,58,0
710400,note_off,0,0,2,,,,,,,,,1,,,62,0
710400,note_on,0,0,2,,,,,,,,,1,,,63,50
710400,note_on,0,0,2,,,,,,,,,1,,,58,50
710400,note_on,0,0,4,,,,,,,,,3,,,51,50
710400,note_off,240,0,4,,,,,,,,,3,,,46,0
710400,note_off,240,0,1,,,,,,,,,0,,,65,0
710640,note_on,0,0,4,,,,,,,,,3,,,44,49
710640,note_off,240,0,4,,,,,,,,,3,,,51,0
710640,note_off,240,0,1,,,,,,,,,0,,,67,0
710640,note_on,0,0,1,,,,,,,,,0,,,70,48
710640,note_on,0,0,2,,,,,,,,,1,,,65,48
710640,note_on,0,0,2,,,,,,,,,1,,,60,48
710640,note_off,0,0,2,,,,,,,,,1,,,63,0
710640,note_off,240,0,2,,,,,,,,,1,,,58,0
710760,note_on,0,0,1,,,,,,,,,0,,,68,47
710760,set_tempo,1575,1,0,,,,,,526315,,,,,,,
710760,note_off,120,0,1,,,,,,,,,0,,,70,0
710880,note_on,0,0,2,,,,,,,,,1,,,63,46
710880,note_off,240,0,4,,,,,,,,,3,,,44,0
710880,note_on,0,0,4,,,,,,,,,3,,,46,47
710880,note_off,120,0,1,,,,,,,,,0,,,68,0
710880,note_on,0,0,1,,,,,,,,,0,,,67,46
710880,note_off,0,0,2,,,,,,,,,1,,,60,0
710880,note_off,240,0,2,,,,,,,,,1,,,65,0
711120,note_off,240,0,2,,,,,,,,,1,,,63,0
711120,note_on,0,0,2,,,,,,,,,1,,,58,44
711360,note_on,0,0,1,,,,,,,,,0,,,65,42
711360,note_off,480,0,1,,,,,,,,,0,,,67,0
711360,note_on,480,0,4,,,,,,,,,3,,,36,44
711360,note_off,240,0,2,,,,,,,,,1,,,58,0
711360,note_on,0,0,2,,,,,,,,,1,,,62,42
711361,note_off,1,0,4,,,,,,,,,3,,,36,0
711600,note_off,240,0,2,,,,,,,,,1,,,62,0
711600,note_on,0,0,2,,,,,,,,,1,,,58,40
711600,set_tempo,840,1,0,,,,,,540540,,,,,,,
711720,note_off,120,0,2,,,,,,,,,1,,,58,0
711727,note_off,366,0,4,,,,,,,,,3,,,46,0
711727,note_off,367,0,1,,,,,,,,,0,,,65,0
711840,set_tempo,240,1,0,,,,,,526315,,,,,,,
711840,note_on,113,0,1,,,,,,,,,0,,,70,40
712200,set_tempo,360,1,0,,,,,,526315,,,,,,,
712200,note_off,360,0,1,,,,,,,,,0,,,70,0
712200,note_on,0,0,1,,,,,,,,,0,,,71,41
712320,set_tempo,120,1,0,,,,,,508474,,,,,,,
712320,note_on,593,0,4,,,,,,,,,3,,,46,38
712320,note_off,120,0,1,,,,,,,,,0,,,71,0
712320,note_on,0,0,1,,,,,,,,,0,,,71,41
712560,note_on,7440,0,3,,,,,,,,,2,,,58,39
712800,note_on,0,0,3,,,,,,,,,2,,,62,39
712800,note_off,240,0,3,,,,,,,,,2,,,58,0
713040,note_on,240,0,3,,,,,,,,,2,,,58,40
713280,note_off,0,0,3,,,,,,,,,2,,,62,0
713280,note_off,240,0,3,,,,,,,,,2,,,58,0
713280,note_off,960,0,1,,,,,,,,,0,,,71,0
713280,note_on,0,0,1,,,,,,,,,0,,,70,43
713280,note_on,0,0,3,,,,,,,,,2,,,65,40
713520,note_on,240,0,3,,,,,,,,,2,,,58,41
713520,note_off,240,0,1,,,,,,,,,0,,,70,0
713520,note_on,0,0,1,,,,,,,,,0,,,68,40
713600,note_on,0,0,1,,,,,,,,,0,,,70,42
713600,note_off,80,0,1,,,,,,,,,0,,,68,0
713640,set_tempo,1320,1,0,,,,,,517241,,,,,,,
713680,note_on,0,0,1,,,,,,,,,0,,,68,43
713680,note_off,80,0,1,,,,,,,,,0,,,70,0
713760,note_off,240,0,3,,,,,,,,,2,,,58,0
713760,note_off,80,0,1,,,,,,,,,0,,,68,0
713760,note_on,0,0,1,,,,,,,,,0,,,67,44
713760,note_off,0,0,3,,,,,,,,,2,,,65,0
713760,note_on,0,0,3,,,,,,,,,2,,,63,41
713880,set_tempo,240,1,0,,,,,,508474,,,,,,,
714000,note_on,240,0,1,,,,,,,,,0,,,75,45
714000,note_on,240,0,3,,,,,,,,,2,,,58,42
714240,note_on,2520,0,2,,,,,,,,,1,,,68,45
714240,note_off,240,0,1,,,,,,,,,0,,,75,0
714240,note_off,240,0,3,,,,,,,,,2,,,58,0
714240,note_off,0,0,3,,,,,,,,,2,,,63,0
714240,note_off,0,0,1,,,,,,,,,0,,,67,0
714240,note_on,0,0,3,,,,,,,,,2,,,65,42
714240,note_on,0,0,1,,,,,,,,,0,,,74,45
714480,note_on,240,0,3,,,,,,,,,2,,,58,43
714480,note_on,0,0,1,,,,,,,,,0,,,77,46
714480,note_off,240,0,1,,,,,,,,,0,,,74,0
714600,set_tempo,720,1,0,,,,,,517241,,,,,,,
714720,note_off,0,0,3,,,,,,,,,2,,,65,0
714720,note_on,0,0,1,,,,,,,,,0,,,75,46
714720,note_off,240,0,1,,,,,,,,,0,,,77,0
714720,note_off,240,0,3,,,,,,,,,2,,,58,0
714720,note_off,480,0,2,,,,,,,,,1,,,68,0
714720,set_tempo,120,1,0,,,,,,508474,,,,,,,
714720,note_on,0,0,3,,,,,,,,,2,,,67,43
714720,note_on,0,0,2,,,,,,,,,1,,,70,46
714900,note_off,180,0,2,,,,,,,,,1,,,70,0
714900,note_off,180,0,3,,,,,,,,,2,,,67,0
714907,note_off,2587,0,4,,,,,,,,,3,,,46,0
714907,note_off,187,0,1,,,,,,,,,0,,,75,0
714960,note_on,53,0,1,,,,,,,,,0,,,70,47
714960,note_on,60,0,3,,,,,,,,,2,,,58,44
715080,set_tempo,360,1,0,,,,,,517241,,,,,,,
715200,note_off,240,0,3,,,,,,,,,2,,,58,0
715200,set_tempo,120,1,0,,,,,,508474,,,,,,,
715200,note_on,0,0,1,,,,,,,,,0,,,71,47
715200,note_off,240,0,1,,,,,,,,,0,,,70,0
715200,note_on,293,0,4,,,,,,,,,3,,,46,44
715440,note_on,240,0,3,,,,,,,,,2,,,58,45
715680,note_off,240,0,3,,,,,,,,,2,,,58,0
715680,note_on,0,0,3,,,,,,,,,2,,,62,45
715920,note_on,240,0,3,,,,,,,,,2,,,58,46
716160,note_off,240,0,3,,,,,,,,,2,,,58,0
716160,note_off,0,0,3,,,,,,,,,2,,,62,0
716160,note_on,0,0,3,,,,,,,,,2,,,65,46
716160,note_off,960,0,1,,,,,,,,,0,,,71,0
716160,note_on,0,0,1,,,,,,,,,0,,,70,49
716400,note_on,240,0,3,,,,,,,,,2,,,58,47
716400,note_on,0,0,1,,,,,,,,,0,,,68,47
716400,note_off,240,0,1,,,,,,,,,0,,,70,0
716480,note_on,0,0,1,,,,,,,,,0,,,70,49
716480,note_off,80,0,1,,,,,,,,,0,,,68,0
716520,set_tempo,1320,1,0,,,,,,517241,,,,,,,
716560,note_on,0,0,1,,,,,,,,,0,,,68,50
716560,note_off,80,0,1,,,,,,,,,0,,,70,0
716640,note_on,0,0,1,,,,,,,,,0,,,67,52
716640,note_on,0,0,3,,,,,,,,,2,,,63,47
716640,note_off,0,0,3,,,,,,,,,2,,,65,0
716640,note_off,240,0,3,,,,,,,,,2,,,58,0
716640,note_off,80,0,1,,,,,,,,,0,,,68,0
716760,set_tempo,240,1,0,,,,,,508474,,,,,,,
716880,note_on,240,0,1,,,,,,,,,0,,,75,51
716880,note_on,240,0,3,,,,,,,,,2,,,58,48
717120,note_off,240,0,1,,,,,,,,,0,,,75,0
717120,note_off,0,0,1,,,,,,,,,0,,,67,0
717120,note_on,2220,0,2,,,,,,,,,1,,,68,52
717120,note_off,240,0,3,,,,,,,,,2,,,58,0
717120,note_off,0,0,3,,,,,,,,,2,,,63,0
717120,note_on,0,0,3,,,,,,,,,2,,,65,48
717120,note_on,0,0,1,,,,,,,,,0,,,74,52
717360,note_on,240,0,3,,,,,,,,,2,,,58,49
717360,note_on,0,0,1,,,,,,,,,0,,,77,52
717360,note_off,240,0,1,,,,,,,,,0,,,74,0
717470,set_tempo,710,1,0,,,,,,517241,,,,,,,
717600,note_off,240,0,3,,,,,,,,,2,,,58,0
717600,note_off,240,0,1,,,,,,,,,0,,,77,0
717600,note_on,0,0,1,,,,,,,,,0,,,75,53
717600,set_tempo,130,1,0,,,,,,508474,,,,,,,
717600,note_off,0,0,3,,,,,,,,,2,,,65,0
717600,note_on,0,0,3,,,,,,,,,2,,,67,49
717600,note_on,0,0,2,,,,,,,,,1,,,70,53
717600,note_off,480,0,2,,,,,,,,,1,,,68,0
717840,note_off,240,0,2,,,,,,,,,1,,,70,0
717840,note_on,240,0,3,,,,,,,,,2,,,58,50
717840,note_on,0,0,1,,,,,,,,,0,,,79,53
717840,note_off,240,0,1,,,,,,,,,0,,,75,0
717960,set_tempo,360,1,0,,,,,,517241,,,,,,,
718080,set_tempo,120,1,0,,,,,,508474,,,,,,,
718080,note_off,240,0,3,,,,,,,,,2,,,58,0
718080,note_off,0,0,3,,,,,,,,,2,,,67,0
718080,note_on,0,0,1,,,,,,,,,0,,,82,54
718080,note_off,240,0,1,,,,,,,,,0,,,79,0
718080,note_on,2880,0,4,,,,,,,,,3,,,51,50
718087,note_off,7,0,4,,,,,,,,,3,,,46,0
718320,note_on,240,0,3,,,,,,,,,2,,,63,51
718560,note_on,0,0,3,,,,,,,,,2,,,67,51
718560,note_off,240,0,3,,,,,,,,,2,,,63,0
718560,note_on,720,0,2,,,,,,,,,1,,,75,55
718800,note_on,0,0,1,,,,,,,,,0,,,79,55
718800,note_off,240,0,3,,,,,,,,,2,,,67,0
718800,note_off,720,0,1,,,,,,,,,0,,,82,0
718800,note_on,0,0,3,,,,,,,,,2,,,63,52
719040,note_on,0,0,1,,,,,,,,,0,,,80,56
719040,note_off,240,0,1,,,,,,,,,0,,,79,0
719040,note_off,240,0,3,,,,,,,,,2,,,63,0
719040,note_on,0,0,3,,,,,,,,,2,,,65,52
719280,note_on,0,0,1,,,,,,,,,0,,,84,56
719280,note_off,240,0,3,,,,,,,,,2,,,65,0
719280,note_off,240,0,1,,,,,,,,,0,,,80,0
719280,note_on,0,0,3,,,,,,,,,2,,,68,53
719280,set_tempo,1200,1,0,,,,,,517241,,,,,,,
719520,set_tempo,240,1,0,,,,,,508474,,,,,,,
719520,note_on,0,0,3,,,,,,,,,2,,,67,53
719520,note_off,240,0,3,,,,,,,,,2,,,68,0
719520,note_off,240,0,1,,,,,,,,,0,,,84,0
719520,note_on,0,0,1,,,,,,,,,0,,,82,57
719760,note_on,0,0,3,,,,,,,,,2,,,66,54
719760,note_off,240,0,3,,,,,,,,,2,,,67,0
720000,note_off,1440,0,2,,,,,,,,,1,,,75,0
720000,note_on,0,0,2,,,,,,,,,1,,,75,58
720000,note_on,0,0,3,,,,,,,,,2,,,67,54
720000,note_off,240,0,3,,,,,,,,,2,,,66,0
720240,note_off,720,0,1,,,,,,,,,0,,,82,0
720240,note_off,240,0,3,,,,,,,,,2,,,67,0
720240,note_on,0,0,1,,,,,,,,,0,,,79,58
720240,note_on,0,0,3,,,,,,,,,2,,,63,55
720480,note_off,240,0,3,,,,,,,,,2,,,63,0
720480,note_off,240,0,1,,,,,,,,,0,,,79,0
720480,note_on,0,0,1,,,,,,,,,0,,,80,59
720480,note_on,0,0,3,,,,,,,,,2,,,60,55
720650,set_tempo,1130,1,0,,,,,,521739,,,,,,,
720720,note_off,720,0,2,,,,,,,,,1,,,75,0
720720,note_on,0,0,2,,,,,,,,,1,,,70,59
720720,note_off,240,0,1,,,,,,,,,0,,,80,0
720720,note_off,240,0,3,,,,,,,,,2,,,60,0
720720,note_on,0,0,3,,,,,,,,,2,,,62,56
720720,note_on,0,0,1,,,,,,,,,0,,,77,59
720855,set_tempo,205,1,0,,,,,,517241,,,,,,,
720960,note_off,240,0,1,,,,,,,,,0,,,77,0
720960,note_on,0,0,1,,,,,,,,,0,,,79,61
720960,note_off,240,0,3,,,,,,,,,2,,,62,0
720960,note_on,0,0,3,,,,,,,,,2,,,63,59
720960,note_off,240,0,2,,,,,,,,,1,,,70,0
720960,note_on,0,0,2,,,,,,,,,1,,,67,61
721200,note_off,240,0,1,,,,,,,,,0,,,79,0
721200,note_on,0,0,3,,,,,,,,,2,,,60,58
721200,note_off,240,0,3,,,,,,,,,2,,,63,0
721200,note_on,0,0,1,,,,,,,,,0,,,75,60
721200,note_on,0,0,2,,,,,,,,,1,,,67,60
721200,note_off,240,0,2,,,,,,,,,1,,,67,0
721440,note_on,0,0,1,,,,,,,,,0,,,77,59
721440,note_on,3353,0,4,,,,,,,,,3,,,56,56
721440,note_on,0,0,2,,,,,,,,,1,,,72,59
721440,note_off,240,0,1,,,,,,,,,0,,,75,0
721440,note_off,240,0,2,,,,,,,,,1,,,67,0
721440,note_off,240,0,3,,,,,,,,,2,,,60,0
721680,set_tempo,825,1,0,,,,,,521739,,,,,,,
721680,note_off,240,0,4,,,,,,,,,3,,,56,0
721680,note_on,0,0,4,,,,,,,,,3,,,53,55
721910,set_tempo,230,1,0,,,,,,526315,,,,,,,
721920,note_on,0,0,2,,,,,,,,,1,,,68,56
721920,note_off,480,0,2,,,,,,,,,1,,,72,0
721920,note_on,0,0,4,,,,,,,,,3,,,58,53
721920,note_off,240,0,4,,,,,,,,,3,,,53,0
721927,note_off,7,0,4,,,,,,,,,3,,,51,0
722160,note_on,240,0,2,,,,,,,,,1,,,74,55
722160,note_off,720,0,1,,,,,,,,,0,,,77,0
722160,note_on,233,0,4,,,,,,,,,3,,,46,52
722160,set_tempo,250,1,0,,,,,,535714,,,,,,,
722400,note_off,0,0,4,,,,,,,,,3,,,58,0
722400,set_tempo,240,1,0,,,,,,540540,,,,,,,
722400,note_on,240,0,1,,,,,,,,,0,,,77,60
722400,note_off,240,0,2,,,,,,,,,1,,,74,0
722400,note_off,240,0,4,,,,,,,,,3,,,46,0
722400,note_on,0,0,2,,,,,,,,,1,,,68,60
722400,note_off,0,0,2,,,,,,,,,1,,,68,0
722400,note_on,0,0,4,,,,,,,,,3,,,51,58
722865,set_tempo,465,1,0,,,,,,600000,,,,,,,
722880,note_on,0,0,2,,,,,,,,,1,,,67,51
722880,note_off,480,0,1,,,,,,,,,0,,,77,0
722880,note_on,0,0,4,,,,,,,,,3,,,39,47
722880,note_on,0,0,1,,,,,,,,,0,,,75,51
722880,note_off,480,0,4,,,,,,,,,3,,,51,0
722880,note_off,480,0,2,,,,,,,,,1,,,68,0
723120,note_off,240,0,2,,,,,,,,,1,,,67,0
723120,note_off,240,0,4,,,,,,,,,3,,,39,0
723120,note_off,240,0,1,,,,,,,,,0,,,75,0
723360,note_on,240,0,1,,,,,,,,,0,,,67,44
723360,set_tempo,495,1,0,,,,,,508474,,,,,,,
723360,note_on,0,0,2,,,,,,,,,1,,,55,44
723360,note_on,240,0,4,,,,,,,,,3,,,39,46
723360,note_on,1920,0,3,,,,,,,,,2,,,46,46
723360,note_on,0,0,3,,,,,,,,,2,,,51,46
723360,note_on,240,0,2,,,,,,,,,1,,,63,44
723580,set_tempo,220,1,0,,,,,,517241,,,,,,,
723600,note_off,0,0,2,,,,,,,,,1,,,63,0
723600,note_off,240,0,4,,,,,,,,,3,,,39,0
723600,note_off,240,0,3,,,,,,,,,2,,,51,0
723600,note_off,0,0,3,,,,,,,,,2,,,46,0
723600,note_off,240,0,1,,,,,,,,,0,,,67,0
723600,note_off,240,0,2,,,,,,,,,1,,,55,0
723840,note_on,240,0,4,,,,,,,,,3,,,53,50
723840,set_tempo,260,1,0,,,,,,508474,,,,,,,
723840,note_on,240,0,1,,,,,,,,,0,,,80,52
723840,note_on,0,0,3,,,,,,,,,2,,,58,50
723840,note_on,0,0,2,,,,,,,,,1,,,68,52
723840,note_on,240,0,2,,,,,,,,,1,,,74,52
723840,note_on,240,0,3,,,,,,,,,2,,,65,50
724800,note_off,0,0,2,,,,,,,,,1,,,74,0
724800,note_off,960,0,2,,,,,,,,,1,,,68,0
724800,note_off,960,0,1,,,,,,,,,0,,,80,0
724800,note_on,0,0,2,,,,,,,,,1,,,56,50
724800,note_on,0,0,4,,,,,,,,,3,,,41,50
724800,note_on,0,0,1,,,,,,,,,0,,,68,50
724800,note_off,960,0,4,,,,,,,,,3,,,53,0
724800,note_on,0,0,2,,,,,,,,,1,,,62,50
724800,note_on,0,0,3,,,,,,,,,2,,,46,50
724800,note_on,0,0,3,,,,,,,,,2,,,53,50
724800,note_off,0,0,3,,,,,,,,,2,,,65,0
724800,note_off,960,0,3,,,,,,,,,2,,,58,0
725040,note_off,240,0,4,,,,,,,,,3,,,41,0
725040,note_off,240,0,2,,,,,,,,,1,,,56,0
725040,note_off,0,0,3,,,,,,,,,2,,,46,0
725040,note_off,240,0,3,,,,,,,,,2,,,53,0
725040,note_off,240,0,1,,,,,,,,,0,,,68,0
725040,note_off,0,0,2,,,,,,,,,1,,,62,0
725160,set_tempo,1320,1,0,,,,,,517241,,,,,,,
725280,note_on,240,0,2,,,,,,,,,1,,,75,57
725280,note_on,240,0,4,,,,,,,,,3,,,55,56
725280,set_tempo,120,1,0,,,,,,508474,,,,,,,
725280,note_on,0,0,3,,,,,,,,,2,,,63,56
725280,note_on,0,0,2,,,,,,,,,1,,,70,57
725280,note_on,240,0,1,,,,,,,,,0,,,82,57
725280,note_on,240,0,3,,,,,,,,,2,,,67,56
726240,note_off,960,0,2,,,,,,,,,1,,,70,0
726240,note_off,0,0,2,,,,,,,,,1,,,75,0
726240,note_off,960,0,1,,,,,,,,,0,,,82,0
726240,note_on,0,0,1,,,,,,,,,0,,,70,55
726240,note_off,0,0,3,,,,,,,,,2,,,67,0
726240,note_off,960,0,3,,,,,,,,,2,,,63,0
726240,note_off,960,0,4,,,,,,,,,3,,,55,0
726240,note_on,0,0,4,,,,,,,,,3,,,55,54
726240,note_on,0,0,2,,,,,,,,,1,,,63,55
726240,note_on,0,0,3,,,,,,,,,2,,,58,54
726480,note_off,240,0,1,,,,,,,,,0,,,70,0
726480,note_off,240,0,3,,,,,,,,,2,,,58,0
726480,note_off,240,0,4,,,,,,,,,3,,,55,0
726480,note_off,240,0,2,,,,,,,,,1,,,63,0
726600,set_tempo,1320,1,0,,,,,,517241,,,,,,,
726720,note_on,240,0,2,,,,,,,,,1,,,63,68
726720,note_on,240,0,3,,,,,,,,,2,,,60,70
726720,note_on,240,0,4,,,,,,,,,3,,,56,70
726720,set_tempo,120,1,0,,,,,,508474,,,,,,,
726720,note_on,240,0,1,,,,,,,,,0,,,72,68
727440,note_on,0,0,3,,,,,,,,,2,,,58,56
727440,note_off,720,0,3,,,,,,,,,2,,,60,0
727440,note_off,720,0,4,,,,,,,,,3,,,56,0
727440,note_on,0,0,4,,,,,,,,,3,,,55,56
727440,note_on,0,0,2,,,,,,,,,1,,,63,58
727440,note_off,720,0,1,,,,,,,,,0,,,72,0
727440,note_off,720,0,2,,,,,,,,,1,,,63,0
727440,note_on,0,0,1,,,,,,,,,0,,,70,58
727632,note_off,192,0,2,,,,,,,,,1,,,63,0
727632,note_off,192,0,4,,,,,,,,,3,,,55,0
727632,note_off,192,0,1,,,,,,,,,0,,,70,0
727632,note_off,192,0,3,,,,,,,,,2,,,58,0
727680,note_on,48,0,2,,,,,,,,,1,,,62,56
727680,note_on,48,0,4,,,,,,,,,3,,,53,53
727680,note_on,48,0,1,,,,,,,,,0,,,68,56
727680,note_on,48,0,3,,,,,,,,,2,,,58,53
727872,note_off,192,0,3,,,,,,,,,2,,,58,0
727872,note_off,192,0,2,,,,,,,,,1,,,62,0
727872,note_off,192,0,1,,,,,,,,,0,,,68,0
727872,note_off,192,0,4,,,,,,,,,3,,,53,0
727920,note_on,48,0,1,,,,,,,,,0,,,67,53
727920,note_on,48,0,4,,,,,,,,,3,,,51,49
727920,note_on,48,0,3,,,,,,,,,2,,,58,49
727920,note_on,48,0,2,,,,,,,,,1,,,63,53
728040,set_tempo,1320,1,0,,,,,,517241,,,,,,,
728112,note_off,192,0,4,,,,,,,,,3,,,51,0
728112,note_off,192,0,3,,,,,,,,,2,,,58,0
728112,note_off,192,0,2,,,,,,,,,1,,,63,0
728112,note_off,192,0,1,,,,,,,,,0,,,67,0
728160,note_on,48,0,2,,,,,,,,,1,,,62,50
728160,note_on,48,0,4,,,,,,,,,3,,,46,46
728160,note_on,48,0,3,,,,,,,,,2,,,58,46
728160,note_on,48,0,1,,,,,,,,,0,,,65,50
728352,note_off,192,0,3,,,,,,,,,2,,,58,0
728352,note_off,192,0,4,,,,,,,,,3,,,46,0
728400,note_on,0,0,2,,,,,,,,,1,,,63,47
728400,note_on,48,0,4,,,,,,,,,3,,,51,42
728400,note_on,48,0,3,,,,,,,,,2,,,58,42
728400,note_off,240,0,1,,,,,,,,,0,,,65,0
728400,note_on,0,0,1,,,,,,,,,0,,,68,47
728400,note_off,240,0,2,,,,,,,,,1,,,62,0
728520,set_tempo,480,1,0,,,,,,526315,,,,,,,
728520,note_off,120,0,1,,,,,,,,,0,,,68,0
728520,note_on,0,0,1,,,,,,,,,0,,,67,46
728592,note_off,192,0,4,,,,,,,,,3,,,51,0
728592,note_off,192,0,3,,,,,,,,,2,,,58,0
728640,note_on,0,0,1,,,,,,,,,0,,,65,45
728640,note_off,120,0,1,,,,,,,,,0,,,67,0
728640,note_on,48,0,4,,,,,,,,,3,,,46,38
728640,note_on,0,0,2,,,,,,,,,1,,,62,45
728640,note_off,240,0,2,,,,,,,,,1,,,63,0
728640,note_on,48,0,3,,,,,,,,,2,,,58,38
728832,note_off,192,0,4,,,,,,,,,3,,,46,0
728832,note_off,192,0,3,,,,,,,,,2,,,58,0
728880,set_tempo,360,1,0,,,,,,540540,,,,,,,
728880,note_off,240,0,1,,,,,,,,,0,,,65,0
728880,note_off,240,0,2,,,,,,,,,1,,,62,0
729120,note_on,240,0,1,,,,,,,,,0,,,67,42
729120,note_on,0,0,2,,,,,,,,,1,,,55,42
729120,note_on,240,0,2,,,,,,,,,1,,,63,42
729120,set_tempo,240,1,0,,,,,,508474,,,,,,,
729120,note_on,288,0,3,,,,,,,,,2,,,51,43
729120,note_on,288,0,4,,,,,,,,,3,,,39,43
729312,note_off,192,0,3,,,,,,,,,2,,,51,0
729312,note_off,0,0,2,,,,,,,,,1,,,63,0
729312,note_off,192,0,2,,,,,,,,,1,,,55,0
729312,note_off,192,0,4,,,,,,,,,3,,,39,0
729312,note_off,192,0,1,,,,,,,,,0,,,67,0
729480,set_tempo,360,1,0,,,,,,517241,,,,,,,
729600,note_on,288,0,2,,,,,,,,,1,,,69,54
729600,note_on,288,0,1,,,,,,,,,0,,,81,54
729600,set_tempo,120,1,0,,,,,,508474,,,,,,,
729600,note_on,0,0,2,,,,,,,,,1,,,75,54
729600,note_on,288,0,4,,,,,,,,,3,,,66,56
730560,note_on,0,0,2,,,,,,,,,1,,,63,54
730560,note_off,0,0,2,,,,,,,,,1,,,69,0
730560,note_on,1248,0,3,,,,,,,,,2,,,55,59
730560,note_on,0,0,2,,,,,,,,,1,,,58,54
730560,note_on,0,0,4,,,,,,,,,3,,,43,59
730560,note_off,960,0,2,,,,,,,,,1,,,75,0
730560,note_on,0,0,1,,,,,,,,,0,,,70,54
730560,note_off,960,0,1,,,,,,,,,0,,,81,0
730560,note_off,960,0,4,,,,,,,,,3,,,66,0
730752,note_off,192,0,4,,,,,,,,,3,,,43,0
730752,note_off,192,0,1,,,,,,,,,0,,,70,0
730752,note_off,0,0,2,,,,,,,,,1,,,63,0
730752,note_off,192,0,2,,,,,,,,,1,,,58,0
730752,note_off,192,0,3,,,,,,,,,2,,,55,0
730920,set_tempo,1320,1,0,,,,,,517241,,,,,,,
731040,note_on,0,0,2,,,,,,,,,1,,,72,70
731040,note_on,288,0,4,,,,,,,,,3,,,69,70
731040,note_on,288,0,2,,,,,,,,,1,,,79,70
731040,note_on,0,0,2,,,,,,,,,1,,,75,70
731040,note_on,288,0,1,,,,,,,,,0,,,84,70
732000,note_on,0,0,2,,,,,,,,,1,,,62,83
732000,note_off,0,0,2,,,,,,,,,1,,,79,0
732000,set_tempo,1080,1,0,,,,,,508474,,,,,,,
732000,note_off,0,0,2,,,,,,,,,1,,,75,0
732000,note_on,0,0,4,,,,,,,,,3,,,38,81
732000,note_on,0,0,4,,,,,,,,,3,,,50,81
732000,note_off,960,0,4,,,,,,,,,3,,,69,0
732000,note_off,960,0,1,,,,,,,,,0,,,84,0
732000,note_on,0,0,1,,,,,,,,,0,,,74,83
732000,note_off,960,0,2,,,,,,,,,1,,,72,0
732240,note_off,0,0,4,,,,,,,,,3,,,50,0
732240,note_off,240,0,4,,,,,,,,,3,,,38,0
732240,note_off,240,0,1,,,,,,,,,0,,,74,0
732240,note_off,240,0,2,,,,,,,,,1,,,62,0
732480,note_on,0,0,4,,,,,,,,,3,,,39,79
732480,note_on,240,0,4,,,,,,,,,3,,,51,79
732480,note_on,240,0,1,,,,,,,,,0,,,75,82
732480,note_on,240,0,2,,,,,,,,,1,,,63,82
732714,note_off,234,0,4,,,,,,,,,3,,,39,0
732714,note_off,0,0,4,,,,,,,,,3,,,51,0
732714,note_off,234,0,2,,,,,,,,,1,,,63,0
732714,note_off,234,0,1,,,,,,,,,0,,,75,0
732840,note_on,126,0,1,,,,,,,,,0,,,74,80
732840,note_on,126,0,2,,,,,,,,,1,,,62,80
732840,note_on,126,0,4,,,,,,,,,3,,,38,78
732840,note_on,0,0,4,,,,,,,,,3,,,50,78
732918,note_off,78,0,4,,,,,,,,,3,,,50,0
732918,note_off,78,0,1,,,,,,,,,0,,,74,0
732918,note_off,78,0,2,,,,,,,,,1,,,62,0
732918,note_off,0,0,4,,,,,,,,,3,,,38,0
732960,note_on,42,0,4,,,,,,,,,3,,,36,78
732960,note_on,0,0,4,,,,,,,,,3,,,48,78
732960,note_on,42,0,2,,,,,,,,,1,,,60,80
732960,note_on,42,0,1,,,,,,,,,0,,,72,80
733200,note_off,240,0,2,,,,,,,,,1,,,60,0
733200,note_off,240,0,4,,,,,,,,,3,,,48,0
733200,note_off,0,0,4,,,,,,,,,3,,,36,0
733200,note_off,240,0,1,,,,,,,,,0,,,72,0
733440,note_on,240,0,2,,,,,,,,,1,,,65,78
733440,note_on,240,0,4,,,,,,,,,3,,,41,76
733440,note_on,0,0,4,,,,,,,,,3,,,53,76
733440,note_on,240,0,1,,,,,,,,,0,,,77,78
733680,set_tempo,1680,1,0,,,,,,526315,,,,,,,
733680,note_off,240,0,4,,,,,,,,,3,,,53,0
733680,note_off,0,0,4,,,,,,,,,3,,,41,0
733680,note_off,240,0,1,,,,,,,,,0,,,77,0
733680,note_off,240,0,2,,,,,,,,,1,,,65,0
733920,set_tempo,240,1,0,,,,,,535714,,,,,,,
733920,note_on,240,0,4,,,,,,,,,3,,,34,74
733920,note_on,0,0,4,,,,,,,,,3,,,46,74
733920,note_on,240,0,1,,,,,,,,,0,,,70,76
733920,note_on,240,0,2,,,,,,,,,1,,,58,76
734160,note_off,240,0,1,,,,,,,,,0,,,70,0
734160,note_off,240,0,4,,,,,,,,,3,,,46,0
734160,note_off,0,0,4,,,,,,,,,3,,,34,0
734160,note_off,240,0,2,,,,,,,,,1,,,58,0
734880,note_on,720,0,1,,,,,,,,,0,,,58,42
734880,note_on,720,0,4,,,,,,,,,3,,,46,39
734880,set_tempo,960,1,0,,,,,,508474,,,,,,,
735072,note_off,192,0,1,,,,,,,,,0,,,58,0
735072,note_off,192,0,4,,,,,,,,,3,,,46,0
735240,set_tempo,360,1,0,,,,,,517241,,,,,,,
735360,set_tempo,120,1,0,,,,,,508474,,,,,,,
735360,note_on,288,0,4,,,,,,,,,3,,,56,42
735360,note_on,1200,0,2,,,,,,,,,1,,,71,45
735360,note_on,0,0,2,,,,,,,,,1,,,74,45
735360,note_on,0,0,2,,,,,,,,,1,,,68,45
735360,note_on,0,0,3,,,,,,,,,2,,,62,42
735360,note_on,0,0,3,,,,,,,,,2,,,65,42
735360,note_on,4608,0,3,,,,,,,,,2,,,59,42
735360,note_on,288,0,1,,,,,,,,,0,,,77,45
736320,note_off,0,0,3,,,,,,,,,2,,,65,0
736320,note_off,960,0,4,,,,,,,,,3,,,56,0
736320,note_off,0,0,2,,,,,,,,,1,,,71,0
736320,note_off,0,0,2,,,,,,,,,1,,,68,0
736320,note_off,960,0,2,,,,,,,,,1,,,74,0
736320,note_off,960,0,1,,,,,,,,,0,,,77,0
736320,note_on,0,0,1,,,,,,,,,0,,,58,51
736320,note_on,0,0,4,,,,,,,,,3,,,46,47
736320,note_off,0,0,3,,,,,,,,,2,,,59,0
736320,note_off,960,0,3,,,,,,,,,2,,,62,0
736512,note_off,192,0,4,,,,,,,,,3,,,46,0
736512,note_off,192,0,1,,,,,,,,,0,,,58,0
736680,set_tempo,1320,1,0,,,,,,517241,,,,,,,
736800,note_on,288,0,1,,,,,,,,,0,,,74,54
736800,set_tempo,120,1,0,,,,,,508474,,,,,,,
736800,note_on,480,0,3,,,,,,,,,2,,,59,50
736800,note_on,0,0,3,,,,,,,,,2,,,62,50
736800,note_on,288,0,4,,,,,,,,,3,,,53,50
736800,note_on,0,0,3,,,,,,,,,2,,,56,50
736800,note_on,0,0,2,,,,,,,,,1,,,65,54
736800,note_on,0,0,2,,,,,,,,,1,,,68,54
736800,note_on,480,0,2,,,,,,,,,1,,,71,54
737760,note_off,0,0,3,,,,,,,,,2,,,62,0
737760,note_off,960,0,3,,,,,,,,,2,,,56,0
737760,note_off,0,0,2,,,,,,,,,1,,,68,0
737760,note_off,960,0,2,,,,,,,,,1,,,65,0
737760,note_on,0,0,4,,,,,,,,,3,,,46,56
737760,note_off,0,0,3,,,,,,,,,2,,,59,0
737760,note_off,960,0,1,,,,,,,,,0,,,74,0
737760,note_on,0,0,1,,,,,,,,,0,,,58,60
737760,note_off,0,0,2,,,,,,,,,1,,,71,0
737760,note_off,960,0,4,,,,,,,,,3,,,53,0
737952,note_off,192,0,1,,,,,,,,,0,,,58,0
737952,note_off,192,0,4,,,,,,,,,3,,,46,0
738120,set_tempo,1320,1,0,,,,,,517241,,,,,,,
738240,set_tempo,120,1,0,,,,,,508474,,,,,,,
738240,note_on,0,0,2,,,,,,,,,1,,,74,63
738240,note_on,0,0,2,,,,,,,,,1,,,71,63
738240,note_on,480,0,2,,,,,,,,,1,,,68,63
738240,note_on,288,0,1,,,,,,,,,0,,,77,63
738240,note_on,0,0,3,,,,,,,,,2,,,62,58
738240,note_on,0,0,3,,,,,,,,,2,,,65,58
738240,note_on,480,0,3,,,,,,,,,2,,,59,58
738240,note_on,288,0,4,,,,,,,,,3,,,56,58
738432,note_off,192,0,2,,,,,,,,,1,,,74,0
738432,note_off,0,0,2,,,,,,,,,1,,,68,0
738432,note_off,0,0,2,,,,,,,,,1,,,71,0
738432,note_off,192,0,3,,,,,,,,,2,,,62,0
738432,note_off,0,0,3,,,,,,,,,2,,,59,0
738432,note_off,192,0,1,,,,,,,,,0,,,77,0
738432,note_off,0,0,3,,,,,,,,,2,,,65,0
738432,note_off,192,0,4,,,,,,,,,3,,,56,0
738720,note_on,288,0,1,,,,,,,,,0,,,58,66
738720,note_on,288,0,4,,,,,,,,,3,,,46,61
738912,note_off,192,0,4,,,,,,,,,3,,,46,0
738912,note_off,192,0,1,,,,,,,,,0,,,58,0
739200,note_on,0,0,2,,,,,,,,,1,,,71,69
739200,note_on,768,0,3,,,,,,,,,2,,,59,64
739200,note_on,288,0,1,,,,,,,,,0,,,74,69
739200,note_on,288,0,4,,,,,,,,,3,,,53,64
739200,note_on,0,0,3,,,,,,,,,2,,,62,64
739200,note_on,768,0,2,,,,,,,,,1,,,65,69
739200,note_on,0,0,3,,,,,,,,,2,,,56,64
739200,note_on,0,0,2,,,,,,,,,1,,,68,69
739392,note_off,0,0,3,,,,,,,,,2,,,59,0
739392,note_off,0,0,3,,,,,,,,,2,,,62,0
739392,note_off,192,0,3,,,,,,,,,2,,,56,0
739392,note_off,192,0,2,,,,,,,,,1,,,68,0
739392,note_off,192,0,4,,,,,,,,,3,,,53,0
739392,note_off,0,0,2,,,,,,,,,1,,,65,0
739392,note_off,0,0,2,,,,,,,,,1,,,71,0
739392,note_off,192,0,1,,,,,,,,,0,,,74,0
739680,note_on,288,0,4,,,,,,,,,3,,,46,67
739680,note_on,288,0,1,,,,,,,,,0,,,58,72
739872,note_off,192,0,1,,,,,,,,,0,,,58,0
739872,note_off,192,0,4,,,,,,,,,3,,,46,0
740160,note_on,768,0,2,,,,,,,,,1,,,71,75
740160,note_on,0,0,2,,,,,,,,,1,,,65,75
740160,note_on,0,0,2,,,,,,,,,1,,,68,75
740160,note_on,0,0,3,,,,,,,,,2,,,56,70
740160,note_on,768,0,3,,,,,,,,,2,,,59,70
740160,note_on,0,0,3,,,,,,,,,2,,,62,70
740160,note_on,288,0,4,,,,,,,,,3,,,53,70
740160,note_on,288,0,1,,,,,,,,,0,,,74,75
740352,note_off,192,0,2,,,,,,,,,1,,,68,0
740352,note_off,192,0,4,,,,,,,,,3,,,53,0
740352,note_off,0,0,2,,,,,,,,,1,,,65,0
740352,note_off,192,0,1,,,,,,,,,0,,,74,0
740352,note_off,0,0,2,,,,,,,,,1,,,71,0
740352,note_off,0,0,3,,,,,,,,,2,,,59,0
740352,note_off,0,0,3,,,,,,,,,2,,,62,0
740352,note_off,192,0,3,,,,,,,,,2,,,56,0
740640,note_on,288,0,1,,,,,,,,,0,,,58,78
740640,note_on,288,0,4,,,,,,,,,3,,,46,72
740832,note_off,192,0,1,,,,,,,,,0,,,58,0
740832,note_off,192,0,4,,,,,,,,,3,,,46,0
741120,note_on,0,0,3,,,,,,,,,2,,,62,75
741120,note_on,768,0,3,,,,,,,,,2,,,59,75
741120,note_on,0,0,2,,,,,,,,,1,,,68,81
741120,note_on,0,0,2,,,,,,,,,1,,,65,81
741120,note_on,288,0,1,,,,,,,,,0,,,74,81
741120,note_on,288,0,4,,,,,,,,,3,,,53,75
741120,note_on,768,0,2,,,,,,,,,1,,,71,81
741120,note_on,0,0,3,,,,,,,,,2,,,56,75
741312,note_off,192,0,2,,,,,,,,,1,,,68,0
741312,note_off,192,0,1,,,,,,,,,0,,,74,0
741312,note_off,0,0,3,,,,,,,,,2,,,59,0
741312,note_off,0,0,3,,,,,,,,,2,,,62,0
741312,note_off,192,0,3,,,,,,,,,2,,,56,0
741312,note_off,192,0,4,,,,,,,,,3,,,53,0
741312,note_off,0,0,2,,,,,,,,,1,,,71,0
741312,note_off,0,0,2,,,,,,,,,1,,,65,0
741600,note_on,288,0,1,,,,,,,,,0,,,58,84
741600,note_on,288,0,4,,,,,,,,,3,,,46,78
741792,note_off,192,0,1,,,,,,,,,0,,,58,0
741792,note_off,192,0,4,,,,,,,,,3,,,46,0
742080,note_on,0,0,2,,,,,,,,,1,,,65,87
742080,note_on,0,0,2,,,,,,,,,1,,,68,87
742080,note_on,288,0,1,,,,,,,,,0,,,74,87
742080,note_on,768,0,3,,,,,,,,,2,,,59,81
742080,note_on,288,0,4,,,,,,,,,3,,,53,81
742080,note_on,0,0,3,,,,,,,,,2,,,62,81
742080,note_on,0,0,3,,,,,,,,,2,,,56,81
742080,note_on,768,0,2,,,,,,,,,1,,,71,87
742272,note_off,192,0,1,,,,,,,,,0,,,74,0
742272,note_off,0,0,3,,,,,,,,,2,,,59,0
742272,note_off,0,0,3,,,,,,,,,2,,,62,0
742272,note_off,192,0,3,,,,,,,,,2,,,56,0
742272,note_off,192,0,4,,,,,,,,,3,,,53,0
742272,note_off,0,0,2,,,,,,,,,1,,,71,0
742272,note_off,0,0,2,,,,,,,,,1,,,65,0
742272,note_off,192,0,2,,,,,,,,,1,,,68,0
742560,note_on,288,0,4,,,,,,,,,3,,,46,84
742560,set_tempo,4320,1,0,,,,,,517241,,,,,,,
742560,note_on,288,0,1,,,,,,,,,0,,,58,90
742752,note_off,192,0,4,,,,,,,,,3,,,46,0
742752,note_off,192,0,1,,,,,,,,,0,,,58,0
743040,note_on,288,0,4,,,,,,,,,3,,,34,87
743040,note_on,768,0,3,,,,,,,,,2,,,46,87
743232,note_off,192,0,4,,,,,,,,,3,,,34,0
743232,note_off,192,0,3,,,,,,,,,2,,,46,0
743265,set_tempo,705,1,0,,,,,,1132075,,,,,,,
743520,set_tempo,255,1,0,,,,,,508474,,,,,,,
743520,note_on,1248,0,2,,,,,,,,,1,,,55,40
743520,note_on,288,0,4,,,,,,,,,3,,,39,40
743520,note_on,0,0,2,,,,,,,,,1,,,63,40
743520,note_on,768,0,1,,,,,,,,,0,,,67,40
743520,note_on,288,0,3,,,,,,,,,2,,,51,40
743520,note_on,0,0,3,,,,,,,,,2,,,46,40
743712,note_off,192,0,2,,,,,,,,,1,,,63,0
743712,note_off,192,0,4,,,,,,,,,3,,,39,0
743712,note_off,192,0,1,,,,,,,,,0,,,67,0
743712,note_off,0,0,2,,,,,,,,,1,,,55,0
743712,note_off,0,0,3,,,,,,,,,2,,,51,0
743712,note_off,192,0,3,,,,,,,,,2,,,46,0
744000,note_on,288,0,3,,,,,,,,,2,,,58,42
744000,note_on,0,0,2,,,,,,,,,1,,,74,52
744000,note_on,288,0,1,,,,,,,,,0,,,80,52
744000,note_on,0,0,3,,,,,,,,,2,,,65,42
744000,note_on,288,0,4,,,,,,,,,3,,,53,42
744000,note_on,288,0,2,,,,,,,,,1,,,68,52
744960,note_on,0,0,4,,,,,,,,,3,,,41,45
744960,note_off,960,0,4,,,,,,,,,3,,,53,0
744960,note_off,960,0,2,,,,,,,,,1,,,74,0
744960,note_off,0,0,2,,,,,,,,,1,,,68,0
744960,note_on,0,0,1,,,,,,,,,0,,,68,47
744960,note_off,960,0,1,,,,,,,,,0,,,80,0
744960,note_off,960,0,3,,,,,,,,,2,,,65,0
744960,note_off,0,0,3,,,,,,,,,2,,,58,0
744960,note_on,0,0,3,,,,,,,,,2,,,46,45
744960,note_on,0,0,3,,,,,,,,,2,,,53,45
744960,note_on,0,0,2,,,,,,,,,1,,,62,47
744960,note_on,0,0,2,,,,,,,,,1,,,56,47
745152,note_off,192,0,4,,,,,,,,,3,,,41,0
745152,note_off,192,0,1,,,,,,,,,0,,,68,0
745152,note_off,0,0,3,,,,,,,,,2,,,46,0
745152,note_off,192,0,2,,,,,,,,,1,,,62,0
745152,note_off,0,0,2,,,,,,,,,1,,,56,0
745152,note_off,192,0,3,,,,,,,,,2,,,53,0
745320,set_tempo,1800,1,0,,,,,,517241,,,,,,,
745440,note_on,288,0,4,,,,,,,,,3,,,55,47
745440,note_on,0,0,3,,,,,,,,,2,,,67,47
745440,note_on,288,0,3,,,,,,,,,2,,,63,47
745440,note_on,288,0,2,,,,,,,,,1,,,70,58
745440,note_on,0,0,2,,,,,,,,,1,,,75,58
745440,note_on,288,0,1,,,,,,,,,0,,,82,58
745440,set_tempo,120,1,0,,,,,,508474,,,,,,,
746400,note_off,960,0,1,,,,,,,,,0,,,82,0
746400,note_off,960,0,3,,,,,,,,,2,,,67,0
746400,note_off,0,0,3,,,,,,,,,2,,,63,0
746400,note_on,0,0,3,,,,,,,,,2,,,58,51
746400,note_on,0,0,1,,,,,,,,,0,,,70,54
746400,note_off,960,0,4,,,,,,,,,3,,,55,0
746400,note_on,0,0,4,,,,,,,,,3,,,55,51
746400,note_off,960,0,2,,,,,,,,,1,,,75,0
746400,note_off,0,0,2,,,,,,,,,1,,,70,0
746400,note_on,0,0,2,,,,,,,,,1,,,63,54
746640,note_off,240,0,1,,,,,,,,,0,,,70,0
746640,note_off,240,0,3,,,,,,,,,2,,,58,0
746640,note_off,240,0,2,,,,,,,,,1,,,63,0
746640,note_off,240,0,4,,,,,,,,,3,,,55,0
746760,set_tempo,1320,1,0,,,,,,517241,,,,,,,
746880,set_tempo,120,1,0,,,,,,508474,,,,,,,
746880,note_on,240,0,4,,,,,,,,,3,,,56,65
746880,note_on,240,0,3,,,,,,,,,2,,,60,65
746880,note_on,240,0,1,,,,,,,,,0,,,72,67
746880,note_on,240,0,2,,,,,,,,,1,,,63,67
747600,note_on,0,0,3,,,,,,,,,2,,,58,53
747600,note_off,720,0,3,,,,,,,,,2,,,60,0
747600,note_off,720,0,4,,,,,,,,,3,,,56,0
747600,note_off,720,0,2,,,,,,,,,1,,,63,0
747600,note_on,0,0,4,,,,,,,,,3,,,55,53
747600,note_off,720,0,1,,,,,,,,,0,,,72,0
747600,note_on,0,0,1,,,,,,,,,0,,,70,53
747600,note_on,0,0,2,,,,,,,,,1,,,63,53
747792,note_off,192,0,1,,,,,,,,,0,,,70,0
747792,note_off,192,0,2,,,,,,,,,1,,,63,0
747792,note_off,192,0,3,,,,,,,,,2,,,58,0
747792,note_off,192,0,4,,,,,,,,,3,,,55,0
747840,note_on,48,0,2,,,,,,,,,1,,,68,51
747840,note_on,48,0,3,,,,,,,,,2,,,58,51
747840,note_on,48,0,1,,,,,,,,,0,,,74,51
747840,note_on,48,0,4,,,,,,,,,3,,,53,51
748032,note_off,192,0,2,,,,,,,,,1,,,68,0
748032,note_off,192,0,3,,,,,,,,,2,,,58,0
748032,note_off,192,0,1,,,,,,,,,0,,,74,0
748032,note_off,192,0,4,,,,,,,,,3,,,53,0
748080,note_on,48,0,1,,,,,,,,,0,,,75,49
748080,note_on,48,0,2,,,,,,,,,1,,,67,49
748080,note_on,48,0,4,,,,,,,,,3,,,51,49
748080,note_on,48,0,3,,,,,,,,,2,,,58,49
748200,set_tempo,1320,1,0,,,,,,517241,,,,,,,
748272,note_off,192,0,4,,,,,,,,,3,,,51,0
748272,note_off,192,0,1,,,,,,,,,0,,,75,0
748272,note_off,192,0,3,,,,,,,,,2,,,58,0
748272,note_off,192,0,2,,,,,,,,,1,,,67,0
748320,note_on,48,0,4,,,,,,,,,3,,,46,47
748320,note_on,48,0,1,,,,,,,,,0,,,77,47
748320,note_on,48,0,3,,,,,,,,,2,,,58,47
748320,note_on,48,0,2,,,,,,,,,1,,,74,47
748512,note_off,192,0,3,,,,,,,,,2,,,58,0
748512,note_off,192,0,4,,,,,,,,,3,,,46,0
748560,note_on,48,0,3,,,,,,,,,2,,,58,45
748560,note_on,48,0,4,,,,,,,,,3,,,51,45
748560,note_on,0,0,2,,,,,,,,,1,,,75,45
748560,note_on,0,0,1,,,,,,,,,0,,,80,45
748560,note_off,240,0,1,,,,,,,,,0,,,77,0
748560,note_off,240,0,2,,,,,,,,,1,,,74,0
748680,note_on,0,0,1,,,,,,,,,0,,,79,44
748680,note_off,120,0,1,,,,,,,,,0,,,80,0
748680,set_tempo,480,1,0,,,,,,526315,,,,,,,
748752,note_off,192,0,3,,,,,,,,,2,,,58,0
748752,note_off,192,0,4,,,,,,,,,3,,,51,0
748800,note_off,240,0,2,,,,,,,,,1,,,75,0
748800,note_on,0,0,2,,,,,,,,,1,,,74,43
748800,note_off,120,0,1,,,,,,,,,0,,,79,0
748800,note_on,48,0,4,,,,,,,,,3,,,46,42
748800,note_on,48,0,3,,,,,,,,,2,,,58,42
748800,note_on,0,0,1,,,,,,,,,0,,,77,43
748992,note_off,192,0,4,,,,,,,,,3,,,46,0
748992,note_off,192,0,3,,,,,,,,,2,,,58,0
749040,note_off,240,0,2,,,,,,,,,1,,,74,0
749040,set_tempo,360,1,0,,,,,,535714,,,,,,,
749040,note_off,240,0,1,,,,,,,,,0,,,77,0
749280,note_on,288,0,4,,,,,,,,,3,,,39,45
749280,note_on,240,0,2,,,,,,,,,1,,,55,45
749280,set_tempo,240,1,0,,,,,,508474,,,,,,,
749280,note_on,288,0,3,,,,,,,,,2,,,51,45
749280,note_on,0,0,2,,,,,,,,,1,,,63,45
749280,note_on,240,0,1,,,,,,,,,0,,,67,45
749472,note_off,192,0,2,,,,,,,,,1,,,63,0
749472,note_off,0,0,2,,,,,,,,,1,,,55,0
749472,note_off,192,0,1,,,,,,,,,0,,,67,0
749472,note_off,192,0,3,,,,,,,,,2,,,51,0
749472,note_off,192,0,4,,,,,,,,,3,,,39,0
749640,set_tempo,360,1,0,,,,,,517241,,,,,,,
749760,note_on,0,0,2,,,,,,,,,1,,,69,52
749760,note_on,288,0,2,,,,,,,,,1,,,75,52
749760,note_on,288,0,1,,,,,,,,,0,,,81,52
749760,set_tempo,120,1,0,,,,,,508474,,,,,,,
749760,note_on,288,0,4,,,,,,,,,3,,,66,58
750720,note_off,960,0,2,,,,,,,,,1,,,69,0
750720,note_off,960,0,1,,,,,,,,,0,,,81,0
750720,note_on,0,0,2,,,,,,,,,1,,,63,65
750720,note_on,1248,0,3,,,,,,,,,2,,,55,63
750720,note_off,960,0,4,,,,,,,,,3,,,66,0
750720,note_on,0,0,4,,,,,,,,,3,,,43,63
750720,note_on,0,0,1,,,,,,,,,0,,,70,65
750720,note_off,0,0,2,,,,,,,,,1,,,75,0
750720,note_on,0,0,2,,,,,,,,,1,,,58,65
750912,note_off,0,0,2,,,,,,,,,1,,,58,0
750912,note_off,192,0,3,,,,,,,,,2,,,55,0
750912,note_off,192,0,2,,,,,,,,,1,,,63,0
750912,note_off,192,0,1,,,,,,,,,0,,,70,0
750912,note_off,192,0,4,,,,,,,,,3,,,43,0
751080,set_tempo,1320,1,0,,,,,,517241,,,,,,,
751200,note_on,288,0,1,,,,,,,,,0,,,84,71
751200,set_tempo,120,1,0,,,,,,517241,,,,,,,
751200,note_on,0,0,2,,,,,,,,,1,,,79,71
751200,note_on,288,0,4,,,,,,,,,3,,,69,74
751200,note_on,288,0,2,,,,,,,,,1,,,72,71
751200,note_on,0,0,2,,,,,,,,,1,,,75,71
752160,note_off,960,0,4,,,,,,,,,3,,,69,0
752160,note_on,0,0,4,,,,,,,,,3,,,59,89
752160,note_off,960,0,1,,,,,,,,,0,,,84,0
752160,note_on,0,0,1,,,,,,,,,0,,,86,93
752160,note_on,1248,0,3,,,,,,,,,2,,,65,89
752160,set_tempo,960,1,0,,,,,,508474,,,,,,,
752160,note_on,0,0,3,,,,,,,,,2,,,68,89
752160,note_off,0,0,2,,,,,,,,,1,,,72,0
752160,note_off,960,0,2,,,,,,,,,1,,,79,0
752160,note_off,0,0,2,,,,,,,,,1,,,75,0
752160,note_on,0,0,2,,,,,,,,,1,,,74,93
752400,note_off,240,0,4,,,,,,,,,3,,,59,0
752400,note_off,240,0,3,,,,,,,,,2,,,68,0
752400,note_off,240,0,1,,,,,,,,,0,,,86,0
752400,note_off,240,0,2,,,,,,,,,1,,,74,0
752400,note_off,0,0,3,,,,,,,,,2,,,65,0
752640,note_on,240,0,1,,,,,,,,,0,,,87,89
752640,note_on,0,0,3,,,,,,,,,2,,,63,85
752640,note_on,240,0,3,,,,,,,,,2,,,67,85
752640,note_on,240,0,4,,,,,,,,,3,,,60,85
752640,note_on,240,0,2,,,,,,,,,1,,,75,89
752874,note_off,0,0,3,,,,,,,,,2,,,67,0
752874,note_off,234,0,3,,,,,,,,,2,,,63,0
752874,note_off,234,0,2,,,,,,,,,1,,,75,0
752874,note_off,234,0,4,,,,,,,,,3,,,60,0
752874,note_off,234,0,1,,,,,,,,,0,,,87,0
753000,note_on,126,0,4,,,,,,,,,3,,,57,83
753000,note_on,126,0,1,,,,,,,,,0,,,84,85
753000,note_on,126,0,2,,,,,,,,,1,,,72,85
753000,note_on,0,0,3,,,,,,,,,2,,,66,83
753000,note_on,126,0,3,,,,,,,,,2,,,63,83
753078,note_off,78,0,4,,,,,,,,,3,,,57,0
753078,note_off,78,0,3,,,,,,,,,2,,,66,0
753078,note_off,0,0,3,,,,,,,,,2,,,63,0
753078,note_off,78,0,1,,,,,,,,,0,,,84,0
753078,note_off,78,0,2,,,,,,,,,1,,,72,0
753120,note_on,42,0,1,,,,,,,,,0,,,84,84
753120,note_on,42,0,3,,,,,,,,,2,,,63,82
753120,note_on,0,0,3,,,,,,,,,2,,,67,82
753120,note_on,42,0,2,,,,,,,,,1,,,72,84
753120,note_on,42,0,4,,,,,,,,,3,,,58,82
753360,note_off,240,0,2,,,,,,,,,1,,,72,0
753360,note_off,0,0,3,,,,,,,,,2,,,63,0
753360,note_off,240,0,3,,,,,,,,,2,,,67,0
753360,note_off,240,0,1,,,,,,,,,0,,,84,0
753360,note_off,240,0,4,,,,,,,,,3,,,58,0
753600,note_on,240,0,4,,,,,,,,,3,,,34,78
753600,note_on,240,0,2,,,,,,,,,1,,,70,80
753600,note_on,240,0,3,,,,,,,,,2,,,46,78
753600,note_on,240,0,1,,,,,,,,,0,,,82,80
753600,set_tempo,1440,1,0,,,,,,517241,,,,,,,
753840,note_off,240,0,3,,,,,,,,,2,,,46,0
753840,note_off,240,0,2,,,,,,,,,1,,,70,0
753840,note_off,240,0,1,,,,,,,,,0,,,82,0
753840,note_off,240,0,4,,,,,,,,,3,,,34,0
754080,note_on,240,0,4,,,,,,,,,3,,,39,75
754080,note_on,240,0,2,,,,,,,,,1,,,63,76
754080,note_on,240,0,3,,,,,,,,,2,,,51,75
754080,note_on,240,0,1,,,,,,,,,0,,,75,76
754320,note_off,240,0,3,,,,,,,,,2,,,51,0
754320,note_off,240,0,1,,,,,,,,,0,,,75,0
754320,note_off,240,0,2,,,,,,,,,1,,,63,0
754320,note_off,240,0,4,,,,,,,,,3,,,39,0
754560,set_tempo,960,1,0,,,,,,810810,,,,,,,
755040,note_on,720,0,1,,,,,,,,,0,,,58,40
755040,set_tempo,480,1,0,,,,,,526315,,,,,,,
755400,note_off,360,0,1,,,,,,,,,0,,,58,0
755400,note_on,0,0,1,,,,,,,,,0,,,63,40
755400,set_tempo,360,1,0,,,,,,535714,,,,,,,
755520,note_off,120,0,1,,,,,,,,,0,,,63,0
755520,note_on,0,0,1,,,,,,,,,0,,,63,41
755520,note_on,1200,0,4,,,,,,,,,3,,,51,36
755520,note_on,1200,0,3,,,,,,,,,2,,,55,36
755520,set_tempo,120,1,0,,,,,,508474,,,,,,,
755760,note_on,0,0,3,,,,,,,,,2,,,58,36
755760,note_off,240,0,3,,,,,,,,,2,,,55,0
756000,note_on,0,0,3,,,,,,,,,2,,,55,37
756000,note_off,240,0,3,,,,,,,,,2,,,58,0
756240,note_on,0,0,3,,,,,,,,,2,,,58,37
756240,note_off,240,0,3,,,,,,,,,2,,,55,0
756480,note_off,960,0,1,,,,,,,,,0,,,63,0
756480,note_on,0,0,1,,,,,,,,,0,,,67,43
756480,note_off,240,0,3,,,,,,,,,2,,,58,0
756480,note_on,0,0,3,,,,,,,,,2,,,55,38
756720,note_off,240,0,3,,,,,,,,,2,,,55,0
756720,note_on,0,0,3,,,,,,,,,2,,,58,38
756840,note_off,360,0,1,,,,,,,,,0,,,67,0
756840,note_on,0,0,1,,,,,,,,,0,,,63,43
756840,set_tempo,1320,1,0,,,,,,517241,,,,,,,
756960,set_tempo,120,1,0,,,,,,508474,,,,,,,
756960,note_off,240,0,3,,,,,,,,,2,,,58,0
756960,note_on,0,0,3,,,,,,,,,2,,,56,39
756960,note_off,1440,0,4,,,,,,,,,3,,,51,0
756960,note_on,0,0,4,,,,,,,,,3,,,53,39
756960,note_off,120,0,1,,,,,,,,,0,,,63,0
756960,note_on,0,0,1,,,,,,,,,0,,,63,44
757200,note_on,0,0,3,,,,,,,,,2,,,58,39
757200,note_off,240,0,3,,,,,,,,,2,,,56,0
757440,note_off,480,0,1,,,,,,,,,0,,,63,0
757440,note_on,0,0,1,,,,,,,,,0,,,62,45
757440,note_off,240,0,3,,,,,,,,,2,,,58,0
757440,note_on,0,0,3,,,,,,,,,2,,,56,40
757680,note_off,240,0,3,,,,,,,,,2,,,56,0
757680,note_on,0,0,3,,,,,,,,,2,,,58,40
757920,note_on,0,0,3,,,,,,,,,2,,,56,41
757920,note_off,240,0,3,,,,,,,,,2,,,58,0
758040,note_off,600,0,1,,,,,,,,,0,,,62,0
758160,set_tempo,1200,1,0,,,,,,517241,,,,,,,
758160,note_on,0,0,3,,,,,,,,,2,,,55,41
758160,note_off,240,0,3,,,,,,,,,2,,,56,0
758160,note_on,120,0,1,,,,,,,,,0,,,63,46
758160,note_off,1200,0,4,,,,,,,,,3,,,53,0
758160,note_on,0,0,4,,,,,,,,,3,,,51,41
758400,note_on,4080,0,2,,,,,,,,,1,,,58,47
758400,set_tempo,240,1,0,,,,,,508474,,,,,,,
758400,note_on,0,0,3,,,,,,,,,2,,,53,42
758400,note_on,0,0,4,,,,,,,,,3,,,50,42
758400,note_off,240,0,3,,,,,,,,,2,,,55,0
758400,note_off,240,0,1,,,,,,,,,0,,,63,0
758400,note_on,0,0,1,,,,,,,,,0,,,65,47
758400,note_off,240,0,4,,,,,,,,,3,,,51,0
758640,note_on,0,0,2,,,,,,,,,1,,,58,47
758640,note_off,240,0,2,,,,,,,,,1,,,58,0
758880,note_on,0,0,2,,,,,,,,,1,,,58,48
758880,note_off,240,0,2,,,,,,,,,1,,,58,0
759120,note_on,0,0,1,,,,,,,,,0,,,67,48
759120,note_off,720,0,4,,,,,,,,,3,,,50,0
759120,note_on,0,0,4,,,,,,,,,3,,,48,43
759120,note_off,720,0,1,,,,,,,,,0,,,65,0
759120,note_off,720,0,3,,,,,,,,,2,,,53,0
759120,note_on,0,0,3,,,,,,,,,2,,,51,43
759120,note_off,240,0,2,,,,,,,,,1,,,58,0
759120,note_on,0,0,2,,,,,,,,,1,,,58,48
759360,note_off,240,0,2,,,,,,,,,1,,,58,0
759360,note_on,0,0,2,,,,,,,,,1,,,65,49
759360,note_on,0,0,2,,,,,,,,,1,,,58,49
759360,note_off,240,0,4,,,,,,,,,3,,,48,0
759360,note_on,0,0,4,,,,,,,,,3,,,46,44
759360,note_off,240,0,1,,,,,,,,,0,,,67,0
759360,note_on,0,0,3,,,,,,,,,2,,,50,44
759360,note_off,240,0,3,,,,,,,,,2,,,51,0
759360,note_on,0,0,1,,,,,,,,,0,,,68,49
759585,set_tempo,1185,1,0,,,,,,517241,,,,,,,
759600,note_off,240,0,2,,,,,,,,,1,,,58,0
759600,note_off,0,0,2,,,,,,,,,1,,,65,0
759600,note_on,0,0,2,,,,,,,,,1,,,65,49
759600,note_off,240,0,1,,,,,,,,,0,,,68,0
759600,note_on,0,0,2,,,,,,,,,1,,,58,49
759600,note_on,0,0,3,,,,,,,,,2,,,53,45
759600,note_off,240,0,3,,,,,,,,,2,,,50,0
759600,note_on,0,0,1,,,,,,,,,0,,,70,49
759600,note_off,240,0,4,,,,,,,,,3,,,46,0
759600,note_on,0,0,4,,,,,,,,,3,,,50,45
759840,note_off,240,0,1,,,,,,,,,0,,,70,0
759840,note_off,240,0,4,,,,,,,,,3,,,50,0
759840,note_off,0,0,2,,,,,,,,,1,,,65,0
759840,note_on,0,0,2,,,,,,,,,1,,,58,49
759840,note_on,0,0,2,,,,,,,,,1,,,65,49
759840,note_on,0,0,1,,,,,,,,,0,,,68,49
759840,note_off,240,0,2,,,,,,,,,1,,,58,0
759840,note_off,240,0,3,,,,,,,,,2,,,53,0
759840,note_on,0,0,4,,,,,,,,,3,,,51,47
760080,note_on,0,0,2,,,,,,,,,1,,,58,47
760080,note_off,240,0,2,,,,,,,,,1,,,58,0
760320,note_off,240,0,2,,,,,,,,,1,,,58,0
760320,note_on,0,0,1,,,,,,,,,0,,,67,46
760320,note_off,480,0,1,,,,,,,,,0,,,68,0
760320,note_off,0,0,2,,,,,,,,,1,,,65,0
760320,note_on,0,0,2,,,,,,,,,1,,,63,46
760320,note_on,0,0,2,,,,,,,,,1,,,58,46
760320,note_on,480,0,4,,,,,,,,,3,,,39,44
760560,set_tempo,975,1,0,,,,,,526315,,,,,,,
760560,note_on,0,0,2,,,,,,,,,1,,,58,44
760560,note_off,240,0,2,,,,,,,,,1,,,58,0
760740,note_off,0,0,2,,,,,,,,,1,,,63,0
760740,note_off,180,0,2,,,,,,,,,1,,,58,0
760740,note_off,420,0,4,,,,,,,,,3,,,39,0
760747,note_off,7,0,4,,,,,,,,,3,,,51,0
760747,note_off,427,0,1,,,,,,,,,0,,,67,0
760800,note_on,53,0,1,,,,,,,,,0,,,67,44
760800,note_on,60,0,2,,,,,,,,,1,,,63,44
760800,set_tempo,240,1,0,,,,,,508474,,,,,,,
760800,note_on,53,0,4,,,,,,,,,3,,,51,44
761040,note_off,240,0,2,,,,,,,,,1,,,63,0
761040,note_on,0,0,2,,,,,,,,,1,,,63,45
761160,note_off,360,0,4,,,,,,,,,3,,,51,0
761160,set_tempo,360,1,0,,,,,,517241,,,,,,,
761160,note_on,0,0,4,,,,,,,,,3,,,53,46
761160,note_on,360,0,1,,,,,,,,,0,,,68,46
761167,note_off,7,0,1,,,,,,,,,0,,,67,0
761280,set_tempo,120,1,0,,,,,,508474,,,,,,,
761280,note_on,0,0,4,,,,,,,,,3,,,55,46
761280,note_on,0,0,1,,,,,,,,,0,,,70,46
761280,note_off,113,0,1,,,,,,,,,0,,,68,0
761280,note_off,120,0,4,,,,,,,,,3,,,53,0
761280,note_on,0,0,2,,,,,,,,,1,,,63,46
761280,note_off,240,0,2,,,,,,,,,1,,,63,0
761520,note_on,0,0,2,,,,,,,,,1,,,63,48
761520,note_off,240,0,2,,,,,,,,,1,,,63,0
761760,note_off,240,0,2,,,,,,,,,1,,,63,0
761760,note_on,0,0,2,,,,,,,,,1,,,63,49
762000,note_on,0,0,1,,,,,,,,,0,,,67,50
762000,note_off,240,0,2,,,,,,,,,1,,,63,0
762000,note_on,0,0,2,,,,,,,,,1,,,63,50
762000,note_on,0,0,4,,,,,,,,,3,,,51,50
762000,note_off,720,0,4,,,,,,,,,3,,,55,0
762000,note_off,720,0,1,,,,,,,,,0,,,70,0
762240,note_off,240,0,2,,,,,,,,,1,,,63,0
762240,note_off,240,0,4,,,,,,,,,3,,,51,0
762240,note_on,0,0,4,,,,,,,,,3,,,56,51
762240,note_on,0,0,2,,,,,,,,,1,,,63,51
762240,note_off,240,0,1,,,,,,,,,0,,,67,0
762240,note_on,0,0,1,,,,,,,,,0,,,72,51
762480,note_off,240,0,2,,,,,,,,,1,,,63,0
762480,note_on,0,0,2,,,,,,,,,1,,,63,53
762480,note_on,0,0,1,,,,,,,,,0,,,68,53
762480,note_off,240,0,1,,,,,,,,,0,,,72,0
762480,note_on,0,0,4,,,,,,,,,3,,,53,53
762480,note_off,240,0,4,,,,,,,,,3,,,56,0
762600,set_tempo,1320,1,0,,,,,,517241,,,,,,,
762720,set_tempo,120,1,0,,,,,,508474,,,,,,,
762720,note_off,240,0,1,,,,,,,,,0,,,68,0
762720,note_on,0,0,1,,,,,,,,,0,,,70,54
762720,note_off,240,0,4,,,,,,,,,3,,,53,0
762720,note_off,240,0,2,,,,,,,,,1,,,63,0
762720,note_on,0,0,4,,,,,,,,,3,,,55,54
762720,note_on,0,0,2,,,,,,,,,1,,,63,54
762960,note_off,240,0,2,,,,,,,,,1,,,63,0
762960,note_on,0,0,2,,,,,,,,,1,,,63,55
763200,note_off,240,0,2,,,,,,,,,1,,,63,0
763200,note_on,0,0,2,,,,,,,,,1,,,63,56
763440,note_on,0,0,2,,,,,,,,,1,,,63,57
763440,note_off,240,0,2,,,,,,,,,1,,,63,0
763440,note_off,720,0,1,,,,,,,,,0,,,70,0
763440,note_on,0,0,1,,,,,,,,,0,,,71,57
763680,note_on,0,0,2,,,,,,,,,1,,,63,59
763680,note_on,0,0,4,,,,,,,,,3,,,56,59
763680,note_off,960,0,4,,,,,,,,,3,,,55,0
763680,note_off,240,0,1,,,,,,,,,0,,,71,0
763680,note_on,0,0,1,,,,,,,,,0,,,72,59
763680,note_off,240,0,2,,,,,,,,,1,,,63,0
763920,note_off,240,0,1,,,,,,,,,0,,,72,0
763920,note_on,0,0,1,,,,,,,,,0,,,70,60
763920,note_off,240,0,4,,,,,,,,,3,,,56,0
763920,note_on,0,0,4,,,,,,,,,3,,,55,60
763920,note_off,240,0,2,,,,,,,,,1,,,63,0
763920,note_on,0,0,2,,,,,,,,,1,,,63,60
764040,set_tempo,1320,1,0,,,,,,517241,,,,,,,
764160,note_off,240,0,1,,,,,,,,,0,,,70,0
764160,note_on,0,0,1,,,,,,,,,0,,,70,58
764160,note_on,0,0,4,,,,,,,,,3,,,53,58
764160,note_off,240,0,4,,,,,,,,,3,,,55,0
764160,note_on,0,0,2,,,,,,,,,1,,,60,58
764160,note_off,240,0,2,,,,,,,,,1,,,63,0
764400,note_off,240,0,1,,,,,,,,,0,,,70,0
764400,note_on,0,0,1,,,,,,,,,0,,,68,56
764400,note_on,0,0,2,,,,,,,,,1,,,60,56
764400,note_off,240,0,2,,,,,,,,,1,,,60,0
764640,note_off,240,0,2,,,,,,,,,1,,,60,0
764640,note_on,0,0,2,,,,,,,,,1,,,61,54
764880,note_on,0,0,1,,,,,,,,,0,,,65,52
764880,note_on,0,0,2,,,,,,,,,1,,,62,52
764880,note_off,720,0,4,,,,,,,,,3,,,53,0
764880,note_on,0,0,4,,,,,,,,,3,,,46,52
764880,note_off,480,0,1,,,,,,,,,0,,,68,0
764880,note_on,0,0,2,,,,,,,,,1,,,58,52
764880,note_off,240,0,2,,,,,,,,,1,,,61,0
765120,note_off,240,0,1,,,,,,,,,0,,,65,0
765120,note_on,0,0,2,,,,,,,,,1,,,63,50
765120,note_on,0,0,1,,,,,,,,,0,,,67,50
765120,note_on,0,0,2,,,,,,,,,1,,,58,50
765120,note_off,240,0,2,,,,,,,,,1,,,62,0
765120,note_off,240,0,4,,,,,,,,,3,,,46,0
765120,note_on,0,0,4,,,,,,,,,3,,,51,50
765120,note_off,0,0,2,,,,,,,,,1,,,58,0
765360,note_off,240,0,1,,,,,,,,,0,,,67,0
765360,note_off,240,0,2,,,,,,,,,1,,,63,0
765360,note_off,0,0,2,,,,,,,,,1,,,58,0
765360,note_on,0,0,2,,,,,,,,,1,,,65,48
765360,note_on,0,0,2,,,,,,,,,1,,,60,48
765360,note_on,0,0,1,,,,,,,,,0,,,70,48
765360,note_off,240,0,4,,,,,,,,,3,,,51,0
765360,note_on,0,0,4,,,,,,,,,3,,,44,49
765480,note_on,0,0,1,,,,,,,,,0,,,68,47
765480,note_off,120,0,1,,,,,,,,,0,,,70,0
765480,set_tempo,1440,1,0,,,,,,526315,,,,,,,
765600,note_on,0,0,4,,,,,,,,,3,,,46,47
765600,note_on,0,0,2,,,,,,,,,1,,,63,46
765600,note_off,0,0,2,,,,,,,,,1,,,65,0
765600,note_off,240,0,2,,,,,,,,,1,,,60,0
765600,note_on,0,0,1,,,,,,,,,0,,,67,46
765600,note_off,240,0,4,,,,,,,,,3,,,44,0
765600,note_off,120,0,1,,,,,,,,,0,,,68,0
765840,note_on,0,0,2,,,,,,,,,1,,,58,44
765840,note_off,240,0,2,,,,,,,,,1,,,63,0
766080,note_off,240,0,2,,,,,,,,,1,,,58,0
766080,note_on,480,0,4,,,,,,,,,3,,,34,44
766080,note_on,0,0,1,,,,,,,,,0,,,65,42
766080,note_on,0,0,2,,,,,,,,,1,,,62,42
766080,note_off,480,0,1,,,,,,,,,0,,,67,0
766320,note_on,0,0,2,,,,,,,,,1,,,58,40
766320,set_tempo,840,1,0,,,,,,540540,,,,,,,
766320,note_off,240,0,2,,,,,,,,,1,,,62,0
766440,note_off,120,0,2,,,,,,,,,1,,,58,0
766447,note_off,367,0,4,,,,,,,,,3,,,46,0
766447,note_off,367,0,1,,,,,,,,,0,,,65,0
766455,note_off,8,0,4,,,,,,,,,3,,,34,0
766560,note_on,113,0,1,,,,,,,,,0,,,70,40
766560,set_tempo,240,1,0,,,,,,526315,,,,,,,
766920,note_off,360,0,1,,,,,,,,,0,,,70,0
766920,set_tempo,360,1,0,,,,,,526315,,,,,,,
766920,note_on,0,0,1,,,,,,,,,0,,,71,41
767040,note_off,120,0,1,,,,,,,,,0,,,71,0
767040,note_on,0,0,1,,,,,,,,,0,,,71,41
767040,set_tempo,120,1,0,,,,,,508474,,,,,,,
767040,note_on,585,0,4,,,,,,,,,3,,,46,38
767280,note_on,7440,0,3,,,,,,,,,2,,,58,39
767520,note_on,0,0,3,,,,,,,,,2,,,62,39
767520,note_off,240,0,3,,,,,,,,,2,,,58,0
767760,note_on,240,0,3,,,,,,,,,2,,,58,40
768000,note_on,0,0,3,,,,,,,,,2,,,65,40
768000,note_off,240,0,3,,,,,,,,,2,,,58,0
768000,note_on,0,0,1,,,,,,,,,0,,,70,43
768000,note_off,0,0,3,,,,,,,,,2,,,62,0
768000,note_off,960,0,1,,,,,,,,,0,,,71,0
768240,note_on,240,0,3,,,,,,,,,2,,,58,41
768240,note_on,0,0,1,,,,,,,,,0,,,68,40
768240,note_off,240,0,1,,,,,,,,,0,,,70,0
768320,note_on,0,0,1,,,,,,,,,0,,,70,42
768320,note_off,80,0,1,,,,,,,,,0,,,68,0
768360,set_tempo,1320,1,0,,,,,,517241,,,,,,,
768400,note_on,0,0,1,,,,,,,,,0,,,68,43
768400,note_off,80,0,1,,,,,,,,,0,,,70,0
768480,note_off,80,0,1,,,,,,,,,0,,,68,0
768480,note_off,240,0,3,,,,,,,,,2,,,58,0
768480,note_on,0,0,1,,,,,,,,,0,,,67,44
768480,note_off,0,0,3,,,,,,,,,2,,,65,0
768480,note_on,0,0,3,,,,,,,,,2,,,63,41
768600,set_tempo,240,1,0,,,,,,508474,,,,,,,
768720,note_on,240,0,3,,,,,,,,,2,,,58,42
768720,note_on,240,0,1,,,,,,,,,0,,,75,45
768960,note_on,2520,0,2,,,,,,,,,1,,,68,45
768960,note_on,0,0,1,,,,,,,,,0,,,74,45
768960,note_off,0,0,1,,,,,,,,,0,,,67,0
768960,note_off,240,0,1,,,,,,,,,0,,,75,0
768960,note_off,240,0,3,,,,,,,,,2,,,58,0
768960,note_off,0,0,3,,,,,,,,,2,,,63,0
768960,note_on,0,0,3,,,,,,,,,2,,,65,42
769200,note_on,240,0,3,,,,,,,,,2,,,58,43
769200,note_off,240,0,1,,,,,,,,,0,,,74,0
769200,note_on,0,0,1,,,,,,,,,0,,,77,46
769320,set_tempo,720,1,0,,,,,,517241,,,,,,,
769440,note_off,480,0,2,,,,,,,,,1,,,68,0
769440,set_tempo,120,1,0,,,,,,508474,,,,,,,
769440,note_off,240,0,1,,,,,,,,,0,,,77,0
769440,note_on,0,0,2,,,,,,,,,1,,,70,46
769440,note_on,0,0,1,,,,,,,,,0,,,75,46
769440,note_off,240,0,3,,,,,,,,,2,,,58,0
769440,note_off,0,0,3,,,,,,,,,2,,,65,0
769440,note_on,0,0,3,,,,,,,,,2,,,67,43
769620,note_off,180,0,2,,,,,,,,,1,,,70,0
769620,note_off,180,0,3,,,,,,,,,2,,,67,0
769627,note_off,187,0,1,,,,,,,,,0,,,75,0
769627,note_off,2587,0,4,,,,,,,,,3,,,46,0
769680,note_on,53,0,1,,,,,,,,,0,,,70,47
769680,note_on,60,0,3,,,,,,,,,2,,,58,44
769800,set_tempo,360,1,0,,,,,,517241,,,,,,,
769920,note_on,293,0,4,,,,,,,,,3,,,46,44
769920,note_off,240,0,3,,,,,,,,,2,,,58,0
769920,note_off,240,0,1,,,,,,,,,0,,,70,0
769920,note_on,0,0,1,,,,,,,,,0,,,71,47
769920,set_tempo,120,1,0,,,,,,508474,,,,,,,
770160,note_on,240,0,3,,,,,,,,,2,,,58,45
770400,note_on,0,0,3,,,,,,,,,2,,,62,45
770400,note_off,240,0,3,,,,,,,,,2,,,58,0
770640,note_on,240,0,3,,,,,,,,,2,,,58,46
770880,note_off,960,0,1,,,,,,,,,0,,,71,0
770880,note_off,240,0,3,,,,,,,,,2,,,58,0
770880,note_off,0,0,3,,,,,,,,,2,,,62,0
770880,note_on,0,0,3,,,,,,,,,2,,,65,46
770880,note_on,0,0,1,,,,,,,,,0,,,70,49
771120,note_on,0,0,1,,,,,,,,,0,,,68,47
771120,note_off,240,0,1,,,,,,,,,0,,,70,0
771120,note_on,240,0,3,,,,,,,,,2,,,58,47
771200,note_off,80,0,1,,,,,,,,,0,,,68,0
771200,note_on,0,0,1,,,,,,,,,0,,,70,49
771240,set_tempo,1320,1,0,,,,,,517241,,,,,,,
771280,note_on,0,0,1,,,,,,,,,0,,,68,50
771280,note_off,80,0,1,,,,,,,,,0,,,70,0
771360,note_on,0,0,3,,,,,,,,,2,,,63,47
771360,note_off,0,0,3,,,,,,,,,2,,,65,0
771360,note_off,240,0,3,,,,,,,,,2,,,58,0
771360,note_off,80,0,1,,,,,,,,,0,,,68,0
771360,note_on,0,0,1,,,,,,,,,0,,,67,52
771480,set_tempo,240,1,0,,,,,,508474,,,,,,,
771600,note_on,240,0,1,,,,,,,,,0,,,75,51
771600,note_on,240,0,3,,,,,,,,,2,,,58,48
771840,note_off,0,0,1,,,,,,,,,0,,,67,0
771840,note_on,0,0,1,,,,,,,,,0,,,74,52
771840,note_off,240,0,3,,,,,,,,,2,,,58,0
771840,note_off,0,0,3,,,,,,,,,2,,,63,0
771840,note_on,2220,0,2,,,,,,,,,1,,,68,52
771840,note_off,240,0,1,,,,,,,,,0,,,75,0
771840,note_on,0,0,3,,,,,,,,,2,,,65,48
772080,note_on,0,0,1,,,,,,,,,0,,,77,52
772080,note_on,240,0,3,,,,,,,,,2,,,58,49
772080,note_off,240,0,1,,,,,,,,,0,,,74,0
772190,set_tempo,710,1,0,,,,,,517241,,,,,,,
772320,note_on,0,0,2,,,,,,,,,1,,,70,53
772320,note_off,480,0,2,,,,,,,,,1,,,68,0
772320,note_off,240,0,1,,,,,,,,,0,,,77,0
772320,set_tempo,130,1,0,,,,,,508474,,,,,,,
772320,note_off,240,0,3,,,,,,,,,2,,,58,0
772320,note_off,0,0,3,,,,,,,,,2,,,65,0
772320,note_on,0,0,1,,,,,,,,,0,,,75,53
772320,note_on,0,0,3,,,,,,,,,2,,,67,49
772560,note_on,0,0,1,,,,,,,,,0,,,79,53
772560,note_off,240,0,1,,,,,,,,,0,,,75,0
772560,note_on,240,0,3,,,,,,,,,2,,,58,50
772560,note_off,240,0,2,,,,,,,,,1,,,70,0
772680,set_tempo,360,1,0,,,,,,517241,,,,,,,
772800,note_on,2880,0,4,,,,,,,,,3,,,51,50
772800,note_off,240,0,3,,,,,,,,,2,,,58,0
772800,set_tempo,120,1,0,,,,,,508474,,,,,,,
772800,note_off,240,0,1,,,,,,,,,0,,,79,0
772800,note_off,0,0,3,,,,,,,,,2,,,67,0
772800,note_on,0,0,1,,,,,,,,,0,,,82,54
772807,note_off,7,0,4,,,,,,,,,3,,,46,0
773040,note_on,240,0,3,,,,,,,,,2,,,63,51
773280,note_on,720,0,2,,,,,,,,,1,,,75,55
773280,note_off,240,0,3,,,,,,,,,2,,,63,0
773280,note_on,0,0,3,,,,,,,,,2,,,67,51
773520,note_off,240,0,3,,,,,,,,,2,,,67,0
773520,note_on,0,0,3,,,,,,,,,2,,,63,52
773520,note_off,720,0,1,,,,,,,,,0,,,82,0
773520,note_on,0,0,1,,,,,,,,,0,,,79,55
773760,note_off,240,0,1,,,,,,,,,0,,,79,0
773760,note_on,0,0,1,,,,,,,,,0,,,80,56
773760,note_on,0,0,3,,,,,,,,,2,,,65,52
773760,note_off,240,0,3,,,,,,,,,2,,,63,0
774000,note_on,0,0,1,,,,,,,,,0,,,84,56
774000,note_on,0,0,3,,,,,,,,,2,,,68,53
774000,note_off,240,0,3,,,,,,,,,2,,,65,0
774000,note_off,240,0,1,,,,,,,,,0,,,80,0
774120,set_tempo,1320,1,0,,,,,,517241,,,,,,,
774240,note_off,240,0,1,,,,,,,,,0,,,84,0
774240,set_tempo,120,1,0,,,,,,508474,,,,,,,
774240,note_on,0,0,1,,,,,,,,,0,,,82,57
774240,note_off,240,0,3,,,,,,,,,2,,,68,0
774240,note_on,0,0,3,,,,,,,,,2,,,67,53
774480,note_off,240,0,3,,,,,,,,,2,,,67,0
774480,note_on,0,0,3,,,,,,,,,2,,,66,54
774720,note_on,0,0,3,,,,,,,,,2,,,67,54
774720,note_off,1440,0,2,,,,,,,,,1,,,75,0
774720,note_on,0,0,2,,,,,,,,,1,,,75,58
774720,note_off,240,0,3,,,,,,,,,2,,,66,0
774960,note_off,240,0,3,,,,,,,,,2,,,67,0
774960,note_on,0,0,1,,,,,,,,,0,,,79,58
774960,note_off,720,0,1,,,,,,,,,0,,,82,0
774960,note_on,0,0,3,,,,,,,,,2,,,63,55
775200,note_on,0,0,1,,,,,,,,,0,,,80,59
775200,note_off,240,0,1,,,,,,,,,0,,,79,0
775200,note_on,0,0,3,,,,,,,,,2,,,60,55
775200,note_off,240,0,3,,,,,,,,,2,,,63,0
775440,note_off,240,0,3,,,,,,,,,2,,,60,0
775440,note_on,0,0,3,,,,,,,,,2,,,62,56
775440,note_on,0,0,2,,,,,,,,,1,,,70,59
775440,note_off,240,0,1,,,,,,,,,0,,,80,0
775440,note_on,0,0,1,,,,,,,,,0,,,77,59
775440,note_off,720,0,2,,,,,,,,,1,,,75,0
775560,set_tempo,1320,1,0,,,,,,517241,,,,,,,
775680,note_on,0,0,2,,,,,,,,,1,,,67,61
775680,set_tempo,120,1,0,,,,,,508474,,,,,,,
775680,note_off,240,0,2,,,,,,,,,1,,,70,0
775680,note_off,240,0,1,,,,,,,,,0,,,77,0
775680,note_on,0,0,3,,,,,,,,,2,,,63,59
775680,note_off,240,0,3,,,,,,,,,2,,,62,0
775680,note_on,0,0,1,,,,,,,,,0,,,79,61
775920,note_off,240,0,3,,,,,,,,,2,,,63,0
775920,note_on,0,0,3,,,,,,,,,2,,,60,58
775920,note_on,0,0,2,,,,,,,,,1,,,67,60
775920,note_on,0,0,1,,,,,,,,,0,,,75,60
775920,note_off,240,0,2,,,,,,,,,1,,,67,0
775920,note_off,240,0,1,,,,,,,,,0,,,79,0
776160,note_on,3353,0,4,,,,,,,,,3,,,56,56
776160,note_off,240,0,1,,,,,,,,,0,,,75,0
776160,note_on,0,0,1,,,,,,,,,0,,,77,59
776160,note_off,240,0,2,,,,,,,,,1,,,67,0
776160,note_off,240,0,3,,,,,,,,,2,,,60,0
776160,note_on,0,0,2,,,,,,,,,1,,,72,59
776400,note_on,0,0,4,,,,,,,,,3,,,53,55
776400,note_off,240,0,4,,,,,,,,,3,,,56,0
776640,note_off,480,0,2,,,,,,,,,1,,,72,0
776640,note_off,240,0,4,,,,,,,,,3,,,53,0
776640,note_on,0,0,4,,,,,,,,,3,,,58,53
776640,note_on,0,0,2,,,,,,,,,1,,,68,56
776647,note_off,7,0,4,,,,,,,,,3,,,51,0
776730,set_tempo,1050,1,0,,,,,,517241,,,,,,,
776880,set_tempo,150,1,0,,,,,,526315,,,,,,,
776880,note_on,233,0,4,,,,,,,,,3,,,46,52
776880,note_off,720,0,1,,,,,,,,,0,,,77,0
776880,note_on,240,0,2,,,,,,,,,1,,,74,55
777120,note_off,240,0,2,,,,,,,,,1,,,74,0
777120,note_on,0,0,2,,,,,,,,,1,,,68,60
777120,note_off,240,0,4,,,,,,,,,3,,,46,0
777120,note_off,0,0,2,,,,,,,,,1,,,68,0
777120,note_on,0,0,4,,,,,,,,,3,,,51,58
777120,note_off,0,0,4,,,,,,,,,3,,,58,0
777120,note_on,240,0,1,,,,,,,,,0,,,77,60
777585,set_tempo,705,1,0,,,,,,535714,,,,,,,
777600,note_off,480,0,1,,,,,,,,,0,,,77,0
777600,note_on,0,0,1,,,,,,,,,0,,,75,51
777600,note_on,0,0,4,,,,,,,,,3,,,39,49
777600,note_off,480,0,2,,,,,,,,,1,,,68,0
777600,note_on,0,0,2,,,,,,,,,1,,,67,51
777600,note_off,480,0,4,,,,,,,,,3,,,51,0
777960,note_off,360,0,1,,,,,,,,,0,,,75,0
777960,note_off,360,0,2,,,,,,,,,1,,,67,0
777960,set_tempo,375,1,0,,,,,,845070,,,,,,,
777960,note_off,360,0,4,,,,,,,,,3,,,39,0
778080,note_on,120,0,1,,,,,,,,,0,,,63,49
778080,set_tempo,120,1,0,,,,,,526315,,,,,,,
778440,note_off,360,0,1,,,,,,,,,0,,,63,0
778440,note_on,0,0,1,,,,,,,,,0,,,64,48
778515,set_tempo,435,1,0,,,,,,535714,,,,,,,
778560,note_off,120,0,1,,,,,,,,,0,,,64,0
778560,note_on,0,0,1,,,,,,,,,0,,,64,48
778560,set_tempo,45,1,0,,,,,,526315,,,,,,,
779040,note_on,1080,0,4,,,,,,,,,3,,,39,47
779040,note_on,2880,0,3,,,,,,,,,2,,,59,47
779040,note_on,0,0,3,,,,,,,,,2,,,56,47
779280,note_off,240,0,4,,,,,,,,,3,,,39,0
779400,note_off,0,0,3,,,,,,,,,2,,,59,0
779400,note_off,360,0,3,,,,,,,,,2,,,56,0
779400,set_tempo,840,1,0,,,,,,535714,,,,,,,
779520,note_on,0,0,1,,,,,,,,,0,,,63,46
779520,note_off,960,0,1,,,,,,,,,0,,,64,0
779520,set_tempo,120,1,0,,,,,,526315,,,,,,,
779880,note_off,360,0,1,,,,,,,,,0,,,63,0
779880,note_on,0,0,1,,,,,,,,,0,,,62,45
779940,set_tempo,420,1,0,,,,,,535714,,,,,,,
780000,note_off,120,0,1,,,,,,,,,0,,,62,0
780000,note_on,0,0,1,,,,,,,,,0,,,63,45
780360,note_off,360,0,1,,,,,,,,,0,,,63,0
780480,note_on,1200,0,4,,,,,,,,,3,,,39,44
780480,note_on,1080,0,3,,,,,,,,,2,,,58,44
780480,note_on,0,0,3,,,,,,,,,2,,,55,44
780720,note_off,240,0,4,,,,,,,,,3,,,39,0
780790,set_tempo,850,1,0,,,,,,540540,,,,,,,
780840,note_off,360,0,3,,,,,,,,,2,,,55,0
780840,note_off,0,0,3,,,,,,,,,2,,,58,0
780960,set_tempo,170,1,0,,,,,,535714,,,,,,,
780960,note_on,600,0,1,,,,,,,,,0,,,63,43
781320,note_off,360,0,1,,,,,,,,,0,,,63,0
781320,note_on,0,0,1,,,,,,,,,0,,,64,42
781387,set_tempo,427,1,0,,,,,,540540,,,,,,,
781440,note_off,120,0,1,,,,,,,,,0,,,64,0
781440,note_on,0,0,1,,,,,,,,,0,,,64,42
781920,note_on,1200,0,4,,,,,,,,,3,,,39,42
781920,note_on,1080,0,3,,,,,,,,,2,,,56,42
781920,note_on,0,0,3,,,,,,,,,2,,,59,42
782160,note_off,240,0,4,,,,,,,,,3,,,39,0
782280,set_tempo,893,1,0,,,,,,550458,,,,,,,
782280,note_off,360,0,3,,,,,,,,,2,,,59,0
782280,note_off,0,0,3,,,,,,,,,2,,,56,0
782400,set_tempo,120,1,0,,,,,,540540,,,,,,,
782400,note_off,960,0,1,,,,,,,,,0,,,64,0
782400,note_on,0,0,1,,,,,,,,,0,,,63,40
782760,note_off,360,0,1,,,,,,,,,0,,,63,0
782760,note_on,0,0,1,,,,,,,,,0,,,62,39
782835,set_tempo,435,1,0,,,,,,550458,,,,,,,
782880,note_off,120,0,1,,,,,,,,,0,,,62,0
782880,note_on,0,0,1,,,,,,,,,0,,,63,39
783240,note_off,360,0,1,,,,,,,,,0,,,63,0
783360,note_on,0,0,3,,,,,,,,,2,,,58,40
783360,note_on,1080,0,3,,,,,,,,,2,,,55,40
783360,note_on,1200,0,4,,,,,,,,,3,,,39,40
783600,note_off,240,0,4,,,,,,,,,3,,,39,0
783720,note_off,360,0,3,,,,,,,,,2,,,58,0
783720,set_tempo,885,1,0,,,,,,560747,,,,,,,
783720,note_off,0,0,3,,,,,,,,,2,,,55,0
783840,set_tempo,120,1,0,,,,,,550458,,,,,,,
783840,note_on,240,0,4,,,,,,,,,3,,,39,39
783840,note_on,0,0,3,,,,,,,,,2,,,56,39
783840,note_on,120,0,3,,,,,,,,,2,,,59,39
783840,note_on,600,0,1,,,,,,,,,0,,,63,37
784080,note_off,240,0,4,,,,,,,,,3,,,39,0
784200,note_off,360,0,1,,,,,,,,,0,,,63,0
784200,note_off,360,0,3,,,,,,,,,2,,,56,0
784200,note_on,0,0,1,,,,,,,,,0,,,62,36
784200,note_off,0,0,3,,,,,,,,,2,,,59,0
784267,set_tempo,427,1,0,,,,,,560747,,,,,,,
784320,note_off,120,0,1,,,,,,,,,0,,,62,0
784320,note_on,0,0,1,,,,,,,,,0,,,63,36
784680,note_off,360,0,1,,,,,,,,,0,,,63,0
784800,note_on,600,0,3,,,,,,,,,2,,,58,37
784800,note_on,720,0,4,,,,,,,,,3,,,39,37
784800,note_on,0,0,3,,,,,,,,,2,,,55,37
785040,note_off,240,0,4,,,,,,,,,3,,,39,0
785160,note_off,360,0,3,,,,,,,,,2,,,55,0
785160,note_off,0,0,3,,,,,,,,,2,,,58,0
785160,set_tempo,893,1,0,,,,,,571428,,,,,,,
785280,note_on,240,0,4,,,,,,,,,3,,,39,37
785280,note_on,120,0,3,,,,,,,,,2,,,56,37
785280,note_on,0,0,3,,,,,,,,,2,,,59,37
785280,set_tempo,120,1,0,,,,,,560747,,,,,,,
785280,note_on,600,0,1,,,,,,,,,0,,,63,34
785520,note_off,240,0,4,,,,,,,,,3,,,39,0
785640,note_off,360,0,1,,,,,,,,,0,,,63,0
785640,note_off,360,0,3,,,,,,,,,2,,,59,0
785640,note_off,0,0,3,,,,,,,,,2,,,56,0
785640,note_on,0,0,1,,,,,,,,,0,,,62,33
785715,set_tempo,435,1,0,,,,,,571428,,,,,,,
785760,note_on,0,0,1,,,,,,,,,0,,,63,33
785760,note_off,120,0,1,,,,,,,,,0,,,62,0
786240,note_on,720,0,4,,,,,,,,,3,,,39,35
786240,note_on,600,0,3,,,,,,,,,2,,,55,35
786240,note_on,0,0,3,,,,,,,,,2,,,58,35
786480,note_off,240,0,4,,,,,,,,,3,,,39,0
786540,set_tempo,825,1,0,,,,,,588235,,,,,,,
786600,set_tempo,60,1,0,,,,,,582524,,,,,,,
786600,note_off,360,0,3,,,,,,,,,2,,,58,0
786600,note_on,0,0,1,,,,,,,,,0,,,62,31
786600,note_off,840,0,1,,,,,,,,,0,,,63,0
786600,note_off,0,0,3,,,,,,,,,2,,,55,0
786720,note_on,0,0,1,,,,,,,,,0,,,63,31
786720,note_off,120,0,1,,,,,,,,,0,,,62,0
787080,note_off,360,0,1,,,,,,,,,0,,,63,0
787080,note_on,0,0,1,,,,,,,,,0,,,62,30
787162,set_tempo,562,1,0,,,,,,600000,,,,,,,
787200,note_off,120,0,1,,,,,,,,,0,,,62,0
787200,note_on,0,0,1,,,,,,,,,0,,,63,30
787560,note_off,360,0,1,,,,,,,,,0,,,63,0
787560,note_on,0,0,1,,,,,,,,,0,,,62,29
787620,set_tempo,458,1,0,,,,,,625000,,,,,,,
787680,note_on,1080,0,3,,,,,,,,,2,,,55,33
787680,note_on,0,0,3,,,,,,,,,2,,,58,33
787680,note_on,1200,0,4,,,,,,,,,3,,,39,33
787680,note_off,120,0,1,,,,,,,,,0,,,62,0
787680,note_on,0,0,1,,,,,,,,,0,,,63,29
787920,note_off,240,0,4,,,,,,,,,3,,,39,0
788040,note_on,0,0,1,,,,,,,,,0,,,62,28
788040,note_off,360,0,1,,,,,,,,,0,,,63,0
788040,note_off,0,0,3,,,,,,,,,2,,,55,0
788040,note_off,360,0,3,,,,,,,,,2,,,58,0
788115,set_tempo,495,1,0,,,,,,674157,,,,,,,
788160,note_on,120,0,3,,,,,,,,,2,,,55,32
788160,note_off,120,0,1,,,,,,,,,0,,,62,0
788160,note_on,240,0,4,,,,,,,,,3,,,39,32
788160,note_on,0,0,1,,,,,,,,,0,,,63,28
788160,note_on,0,0,3,,,,,,,,,2,,,58,32
788400,set_tempo,285,1,0,,,,,,1071428,,,,,,,
788400,note_off,240,0,4,,,,,,,,,3,,,39,0
788520,note_on,0,0,1,,,,,,,,,0,,,62,27
788520,note_off,360,0,3,,,,,,,,,2,,,58,0
788520,note_off,0,0,3,,,,,,,,,2,,,55,0
788520,note_off,360,0,1,,,,,,,,,0,,,63,0
788535,set_tempo,135,1,0,,,,,,1132075,,,,,,,
788640,note_on,120,0,3,,,,,,,,,2,,,55,31
788640,note_off,120,0,1,,,,,,,,,0,,,62,0
788640,note_on,0,0,1,,,,,,,,,0,,,63,27
788640,note_on,240,0,4,,,,,,,,,3,,,39,31
788640,note_on,0,0,3,,,,,,,,,2,,,58,31
789000,note_off,360,0,1,,,,,,,,,0,,,63,0
789000,note_off,360,0,3,,,,,,,,,2,,,58,0
789000,note_off,0,0,3,,,,,,,,,2,,,55,0
789000,note_off,360,0,4,,,,,,,,,3,,,39,0
790080,control_change,0,0,3,,,,,,,91,91,2,,,,
790080,program_change,0,0,3,,,,,,,,,2,0,,,
790080,control_change,0,0,3,,,,,,,32,0,2,,,,
790080,control_change,0,0,3,,,,,,,0,0,2,,,,
790080,control_change,12120,0,2,,,,,,,7,117,1,,,,
790080,pitchwheel,0,0,2,,,,,,,,,1,,0,,
790080,control_change,0,0,2,,,,,,,64,0,1,,,,
790080,control_change,0,0,2,,,,,,,93,28,1,,,,
790080,control_change,0,0,2,,,,,,,91,91,1,,,,
790080,control_change,0,0,2,,,,,,,10,64,1,,,,
790080,control_change,0,0,2,,,,,,,0,0,1,,,,
790080,control_change,0,0,2,,,,,,,32,0,1,,,,
790080,control_change,0,0,3,,,,,,,7,112,2,,,,
790080,set_tempo,0,1,0,,,,,,600000,,,,,,,
790080,program_change,0,0,2,,,,,,,,,1,0,,,
790080,marker,0,1,0,,,,,,,,,,,,,
790080,pitchwheel,0,0,3,,,,,,,,,2,,0,,
790080,control_change,0,0,3,,,,,,,1,0,2,,,,
790080,control_change,0,0,3,,,,,,,64,0,2,,,,
790080,control_change,1080,0,3,,,,,,,10,64,2,,,,
790080,control_change,0,0,3,,,,,,,93,28,2,,,,
790080,control_change,1080,0,4,,,,,,,7,122,3,,,,
790080,control_change,0,0,2,,,,,,,1,0,1,,,,
790080,control_change,0,0,1,,,,,,,64,0,0,,,,
790080,control_change,0,0,4,,,,,,,1,0,3,,,,
790080,control_change,0,0,4,,,,,,,91,91,3,,,,
790080,control_change,0,0,4,,,,,,,10,55,3,,,,
790080,pitchwheel,0,0,4,,,,,,,,,3,,0,,
790080,program_change,0,0,1,,,,,,,,,0,0,,,
790080,pitchwheel,0,0,1,,,,,,,,,0,,0,,
790080,control_change,0,0,1,,,,,,,32,0,0,,,,
790080,control_change,0,0,1,,,,,,,0,0,0,,,,
790080,control_change,0,0,1,,,,,,,7,127,0,,,,
790080,control_change,0,0,1,,,,,,,1,0,0,,,,
790080,control_change,0,0,4,,,,,,,93,28,3,,,,
790080,control_change,0,0,1,,,,,,,93,28,0,,,,
790080,control_change,0,0,4,,,,,,,0,0,3,,,,
790080,control_change,0,0,1,,,,,,,91,91,0,,,,
790080,control_change,1080,0,1,,,,,,,10,73,0,,,,
790080,control_change,0,0,4,,,,,,,32,0,3,,,,
790080,program_change,0,0,4,,,,,,,,,3,0,,,
790080,time_signature,1545,1,0,6,8,24,8,,,,,,,,,
790080,control_change,0,0,4,,,,,,,64,0,3,,,,
790800,control_change,720,0,4,,,,,,,64,0,3,,,,
790800,control_change,720,0,1,,,,,,,64,0,0,,,,
791040,set_tempo,960,1,0,,,,,,241935,,,,,,,
791040,note_on,960,0,3,,,,,,,,,2,,,51,43
791280,note_on,0,0,3,,,,,,,,,2,,,55,43
791280,note_off,240,0,3,,,,,,,,,2,,,51,0
791400,set_tempo,360,1,0,,,,,,243902,,,,,,,
791520,note_on,720,0,4,,,,,,,,,3,,,46,43
791520,note_off,240,0,3,,,,,,,,,2,,,55,0
791640,set_tempo,240,1,0,,,,,,240000,,,,,,,
791760,note_on,240,0,3,,,,,,,,,2,,,51,42
792000,note_on,0,0,3,,,,,,,,,2,,,55,42
792000,note_off,240,0,3,,,,,,,,,2,,,51,0
792240,note_off,240,0,3,,,,,,,,,2,,,55,0
792240,note_on,720,0,4,,,,,,,,,3,,,50,42
792266,note_off,26,0,4,,,,,,,,,3,,,46,0
792480,note_on,240,0,3,,,,,,,,,2,,,51,41
792720,note_off,240,0,3,,,,,,,,,2,,,51,0
792720,note_on,0,0,3,,,,,,,,,2,,,55,41
792960,note_on,694,0,4,,,,,,,,,3,,,46,41
792960,note_off,240,0,3,,,,,,,,,2,,,55,0
792986,note_off,26,0,4,,,,,,,,,3,,,50,0
793200,note_on,240,0,3,,,,,,,,,2,,,51,41
793440,note_on,0,0,3,,,,,,,,,2,,,55,40
793440,note_off,240,0,3,,,,,,,,,2,,,51,0
793680,note_off,240,0,3,,,,,,,,,2,,,55,0
793680,note_on,694,0,4,,,,,,,,,3,,,50,40
793706,note_off,26,0,4,,,,,,,,,3,,,46,0
793920,note_on,240,0,3,,,,,,,,,2,,,51,40
794160,note_on,3360,0,1,,,,,,,,,0,,,82,50
794160,note_on,0,0,3,,,,,,,,,2,,,55,40
794160,note_off,240,0,3,,,,,,,,,2,,,51,0
794280,set_tempo,2640,1,0,,,,,,241935,,,,,,,
794400,note_off,240,0,1,,,,,,,,,0,,,82,0
794400,note_on,0,0,1,,,,,,,,,0,,,82,57
794400,set_tempo,120,1,0,,,,,,240000,,,,,,,
794400,note_on,694,0,4,,,,,,,,,3,,,46,39
794400,note_off,240,0,3,,,,,,,,,2,,,55,0
794426,note_off,26,0,4,,,,,,,,,3,,,50,0
794640,note_on,240,0,3,,,,,,,,,2,,,53,39
794880,note_off,240,0,3,,,,,,,,,2,,,53,0
794880,note_on,0,0,3,,,,,,,,,2,,,56,39
794880,note_on,0,0,1,,,,,,,,,0,,,80,54
794880,note_off,480,0,1,,,,,,,,,0,,,82,0
795120,note_off,240,0,3,,,,,,,,,2,,,56,0
795120,note_on,0,0,1,,,,,,,,,0,,,77,53
795120,note_off,240,0,1,,,,,,,,,0,,,80,0
795120,note_on,694,0,4,,,,,,,,,3,,,52,38
795146,note_off,26,0,4,,,,,,,,,3,,,46,0
795360,note_on,240,0,3,,,,,,,,,2,,,53,38
795600,note_on,0,0,1,,,,,,,,,0,,,74,50
795600,note_off,480,0,1,,,,,,,,,0,,,77,0
795600,note_off,240,0,3,,,,,,,,,2,,,53,0
795600,note_on,0,0,3,,,,,,,,,2,,,56,38
795797,note_off,651,0,4,,,,,,,,,3,,,52,0
795840,note_on,0,0,1,,,,,,,,,0,,,75,46
795840,note_off,240,0,1,,,,,,,,,0,,,74,0
795840,note_on,43,0,4,,,,,,,,,3,,,46,38
795840,note_off,240,0,3,,,,,,,,,2,,,56,0
796080,note_on,240,0,3,,,,,,,,,2,,,51,37
796320,note_off,480,0,1,,,,,,,,,0,,,75,0
796320,note_on,0,0,3,,,,,,,,,2,,,55,37
796320,note_off,240,0,3,,,,,,,,,2,,,51,0
796560,note_off,240,0,3,,,,,,,,,2,,,55,0
796560,note_on,720,0,4,,,,,,,,,3,,,50,37
796586,note_off,26,0,4,,,,,,,,,3,,,46,0
796800,note_on,240,0,3,,,,,,,,,2,,,51,36
797040,note_off,240,0,3,,,,,,,,,2,,,51,0
797040,note_on,0,0,3,,,,,,,,,2,,,55,36
797040,note_on,720,0,1,,,,,,,,,0,,,70,48
797160,set_tempo,2760,1,0,,,,,,241935,,,,,,,
797280,note_off,240,0,3,,,,,,,,,2,,,55,0
797280,note_on,694,0,4,,,,,,,,,3,,,46,36
797280,note_off,240,0,1,,,,,,,,,0,,,70,0
797280,note_on,0,0,1,,,,,,,,,0,,,70,55
797280,set_tempo,120,1,0,,,,,,240000,,,,,,,
797306,note_off,26,0,4,,,,,,,,,3,,,50,0
797520,note_on,240,0,3,,,,,,,,,2,,,53,36
797760,note_off,240,0,3,,,,,,,,,2,,,53,0
797760,note_on,0,0,1,,,,,,,,,0,,,68,52
797760,note_off,480,0,1,,,,,,,,,0,,,70,0
797760,note_on,0,0,3,,,,,,,,,2,,,56,35
798000,note_off,240,0,3,,,,,,,,,2,,,56,0
798000,note_on,0,0,1,,,,,,,,,0,,,65,51
798000,note_on,694,0,4,,,,,,,,,3,,,52,35
798000,note_off,240,0,1,,,,,,,,,0,,,68,0
798026,note_off,26,0,4,,,,,,,,,3,,,46,0
798240,note_on,240,0,3,,,,,,,,,2,,,53,35
798480,note_on,0,0,3,,,,,,,,,2,,,56,35
798480,note_off,480,0,1,,,,,,,,,0,,,65,0
798480,note_on,0,0,1,,,,,,,,,0,,,62,48
798480,note_off,240,0,3,,,,,,,,,2,,,53,0
798600,set_tempo,1320,1,0,,,,,,241935,,,,,,,
798720,note_on,0,0,1,,,,,,,,,0,,,63,43
798720,note_on,0,0,1,,,,,,,,,0,,,55,43
798720,note_off,240,0,1,,,,,,,,,0,,,62,0
798720,note_off,240,0,3,,,,,,,,,2,,,56,0
798720,note_on,0,0,3,,,,,,,,,2,,,51,34
798720,note_on,694,0,4,,,,,,,,,3,,,39,34
798723,note_off,3,0,4,,,,,,,,,3,,,52,0
799200,note_off,480,0,1,,,,,,,,,0,,,63,0
799200,note_off,477,0,4,,,,,,,,,3,,,39,0
799200,note_off,0,0,1,,,,,,,,,0,,,55,0
799200,note_off,480,0,3,,,,,,,,,2,,,51,0
799680,set_tempo,1080,1,0,,,,,,241935,,,,,,,
799680,note_on,480,0,3,,,,,,,,,2,,,51,37
799920,note_on,0,0,3,,,,,,,,,2,,,55,37
799920,note_off,240,0,3,,,,,,,,,2,,,51,0
800040,set_tempo,360,1,0,,,,,,243902,,,,,,,
800160,note_off,240,0,3,,,,,,,,,2,,,55,0
800160,note_on,960,0,4,,,,,,,,,3,,,46,37
800265,set_tempo,225,1,0,,,,,,240000,,,,,,,
800400,note_on,240,0,3,,,,,,,,,2,,,51,36
800640,note_on,0,0,3,,,,,,,,,2,,,55,36
800640,note_off,240,0,3,,,,,,,,,2,,,51,0
800880,note_on,720,0,4,,,,,,,,,3,,,50,36
800880,note_off,240,0,3,,,,,,,,,2,,,55,0
800883,note_off,3,0,4,,,,,,,,,3,,,46,0
801120,note_on,240,0,3,,,,,,,,,2,,,51,35
801360,note_on,0,0,3,,,,,,,,,2,,,55,35
801360,note_off,240,0,3,,,,,,,,,2,,,51,0
801600,note_off,240,0,3,,,,,,,,,2,,,55,0
801600,note_on,717,0,4,,,,,,,,,3,,,46,35
801603,note_off,3,0,4,,,,,,,,,3,,,50,0
801840,note_on,240,0,3,,,,,,,,,2,,,51,35
802080,note_on,0,0,3,,,,,,,,,2,,,55,34
802080,note_off,240,0,3,,,,,,,,,2,,,51,0
802320,note_off,240,0,3,,,,,,,,,2,,,55,0
802320,note_on,717,0,4,,,,,,,,,3,,,50,34
802323,note_off,3,0,4,,,,,,,,,3,,,46,0
802560,note_on,240,0,3,,,,,,,,,2,,,51,34
802800,note_on,0,0,3,,,,,,,,,2,,,55,33
802800,note_on,3600,0,1,,,,,,,,,0,,,82,43
802800,note_off,240,0,3,,,,,,,,,2,,,51,0
802920,set_tempo,2655,1,0,,,,,,241935,,,,,,,
803040,note_off,240,0,3,,,,,,,,,2,,,55,0
803040,note_on,717,0,4,,,,,,,,,3,,,46,33
803040,set_tempo,120,1,0,,,,,,240000,,,,,,,
803040,note_on,0,0,1,,,,,,,,,0,,,82,49
803040,note_off,240,0,1,,,,,,,,,0,,,82,0
803043,note_off,3,0,4,,,,,,,,,3,,,50,0
803280,note_on,240,0,3,,,,,,,,,2,,,53,33
803520,note_on,0,0,1,,,,,,,,,0,,,80,46
803520,note_off,480,0,1,,,,,,,,,0,,,82,0
803520,note_off,240,0,3,,,,,,,,,2,,,53,0
803520,note_on,0,0,3,,,,,,,,,2,,,56,33
803760,note_off,240,0,3,,,,,,,,,2,,,56,0
803760,note_on,717,0,4,,,,,,,,,3,,,52,32
803760,note_off,240,0,1,,,,,,,,,0,,,80,0
803760,note_on,0,0,1,,,,,,,,,0,,,77,45
803763,note_off,3,0,4,,,,,,,,,3,,,46,0
804000,note_on,240,0,3,,,,,,,,,2,,,53,32
804240,note_on,0,0,3,,,,,,,,,2,,,56,32
804240,note_off,480,0,1,,,,,,,,,0,,,77,0
804240,note_on,0,0,1,,,,,,,,,0,,,74,42
804240,note_off,240,0,3,,,,,,,,,2,,,53,0
804460,note_off,697,0,4,,,,,,,,,3,,,52,0
804480,note_off,240,0,3,,,,,,,,,2,,,56,0
804480,note_on,20,0,4,,,,,,,,,3,,,46,31
804480,note_on,0,0,1,,,,,,,,,0,,,75,41
804480,note_off,240,0,1,,,,,,,,,0,,,74,0
804720,note_on,240,0,3,,,,,,,,,2,,,51,31
804960,note_on,0,0,3,,,,,,,,,2,,,55,31
804960,note_off,480,0,1,,,,,,,,,0,,,75,0
804960,note_off,240,0,3,,,,,,,,,2,,,51,0
805200,note_on,720,0,4,,,,,,,,,3,,,50,31
805200,note_off,240,0,3,,,,,,,,,2,,,55,0
805203,note_off,3,0,4,,,,,,,,,3,,,46,0
805440,note_on,240,0,3,,,,,,,,,2,,,51,30
805680,note_off,240,0,3,,,,,,,,,2,,,51,0
805680,note_on,0,0,3,,,,,,,,,2,,,55,30
805680,note_on,720,0,1,,,,,,,,,0,,,70,41
805800,set_tempo,2760,1,0,,,,,,241935,,,,,,,
805920,note_off,240,0,1,,,,,,,,,0,,,70,0
805920,note_off,240,0,3,,,,,,,,,2,,,55,0
805920,set_tempo,120,1,0,,,,,,240000,,,,,,,
805920,note_on,717,0,4,,,,,,,,,3,,,46,30
805920,note_on,0,0,1,,,,,,,,,0,,,70,47
805923,note_off,3,0,4,,,,,,,,,3,,,50,0
806160,note_on,240,0,3,,,,,,,,,2,,,53,29
806400,note_on,0,0,1,,,,,,,,,0,,,68,44
806400,note_off,240,0,3,,,,,,,,,2,,,53,0
806400,note_on,0,0,3,,,,,,,,,2,,,56,29
806400,note_off,480,0,1,,,,,,,,,0,,,70,0
806640,note_off,240,0,3,,,,,,,,,2,,,56,0
806640,note_on,717,0,4,,,,,,,,,3,,,52,29
806640,note_on,0,0,1,,,,,,,,,0,,,65,43
806640,note_off,240,0,1,,,,,,,,,0,,,68,0
806643,note_off,3,0,4,,,,,,,,,3,,,46,0
806880,note_on,240,0,3,,,,,,,,,2,,,53,29
807120,note_off,480,0,1,,,,,,,,,0,,,65,0
807120,note_on,0,0,1,,,,,,,,,0,,,62,40
807120,note_on,0,0,3,,,,,,,,,2,,,56,28
807120,note_off,240,0,3,,,,,,,,,2,,,53,0
807240,set_tempo,1320,1,0,,,,,,241935,,,,,,,
807340,note_off,697,0,4,,,,,,,,,3,,,52,0
807360,note_off,240,0,1,,,,,,,,,0,,,62,0
807360,note_on,0,0,1,,,,,,,,,0,,,63,36
807360,note_on,17280,0,2,,,,,,,,,1,,,55,36
807360,note_on,0,0,3,,,,,,,,,2,,,51,28
807360,note_on,20,0,4,,,,,,,,,3,,,39,28
807360,note_off,240,0,3,,,,,,,,,2,,,56,0
807840,note_off,480,0,4,,,,,,,,,3,,,39,0
807840,note_off,480,0,1,,,,,,,,,0,,,63,0
807840,note_off,480,0,3,,,,,,,,,2,,,51,0
807840,note_off,480,0,2,,,,,,,,,1,,,55,0
808080,note_on,240,0,1,,,,,,,,,0,,,58,58
808236,note_off,156,0,1,,,,,,,,,0,,,58,0
808560,set_tempo,1320,1,0,,,,,,243902,,,,,,,
808560,note_on,324,0,1,,,,,,,,,0,,,58,59
808716,note_off,156,0,1,,,,,,,,,0,,,58,0
808800,note_on,960,0,4,,,,,,,,,3,,,39,74
808800,note_on,84,0,1,,,,,,,,,0,,,63,77
808800,note_on,960,0,2,,,,,,,,,1,,,55,77
808800,note_on,0,0,4,,,,,,,,,3,,,51,74
808800,set_tempo,240,1,0,,,,,,241935,,,,,,,
808800,control_change,960,0,3,,,,,,,10,73,2,,,,
808956,note_off,156,0,1,,,,,,,,,0,,,63,0
808956,note_off,156,0,2,,,,,,,,,1,,,55,0
809280,note_on,324,0,1,,,,,,,,,0,,,63,60
809520,note_off,240,0,1,,,,,,,,,0,,,63,0
809520,note_on,0,0,1,,,,,,,,,0,,,58,60
809520,note_on,720,0,3,,,,,,,,,2,,,70,60
809676,note_off,156,0,1,,,,,,,,,0,,,58,0
810000,note_on,324,0,1,,,,,,,,,0,,,58,61
810156,note_off,156,0,1,,,,,,,,,0,,,58,0
810240,note_on,1284,0,2,,,,,,,,,1,,,55,61
810240,note_on,84,0,1,,,,,,,,,0,,,63,61
810396,note_off,156,0,2,,,,,,,,,1,,,55,0
810396,note_off,156,0,1,,,,,,,,,0,,,63,0
810720,note_on,324,0,1,,,,,,,,,0,,,63,62
810925,note_off,1405,0,3,,,,,,,,,2,,,70,0
810960,note_on,35,0,3,,,,,,,,,2,,,70,62
810960,note_on,0,0,1,,,,,,,,,0,,,58,62
810960,note_off,240,0,1,,,,,,,,,0,,,63,0
811116,note_off,156,0,1,,,,,,,,,0,,,58,0
811440,note_on,324,0,1,,,,,,,,,0,,,58,63
811596,note_off,156,0,1,,,,,,,,,0,,,58,0
811680,note_on,84,0,1,,,,,,,,,0,,,63,63
811680,note_on,1284,0,2,,,,,,,,,1,,,55,63
811836,note_off,156,0,1,,,,,,,,,0,,,63,0
811836,note_off,156,0,2,,,,,,,,,1,,,55,0
812160,note_on,324,0,1,,,,,,,,,0,,,63,64
812365,note_off,1405,0,3,,,,,,,,,2,,,70,0
812400,note_off,240,0,1,,,,,,,,,0,,,63,0
812400,note_on,0,0,1,,,,,,,,,0,,,58,65
812400,note_on,35,0,3,,,,,,,,,2,,,70,63
812556,note_off,156,0,1,,,,,,,,,0,,,58,0
812880,note_on,324,0,1,,,,,,,,,0,,,58,65
813036,note_off,156,0,1,,,,,,,,,0,,,58,0
813055,note_off,655,0,3,,,,,,,,,2,,,70,0
813120,note_on,1284,0,2,,,,,,,,,1,,,62,66
813120,note_on,84,0,1,,,,,,,,,0,,,65,66
813120,note_on,65,0,3,,,,,,,,,2,,,70,64
813276,note_off,156,0,1,,,,,,,,,0,,,65,0
813276,note_off,156,0,2,,,,,,,,,1,,,62,0
813600,note_on,324,0,2,,,,,,,,,1,,,62,66
813600,note_on,324,0,1,,,,,,,,,0,,,65,66
813655,note_off,0,0,4,,,,,,,,,3,,,39,0
813655,note_off,4855,0,4,,,,,,,,,3,,,51,0
813840,note_off,240,0,1,,,,,,,,,0,,,65,0
813840,note_off,240,0,2,,,,,,,,,1,,,62,0
813840,note_on,0,0,1,,,,,,,,,0,,,58,66
813996,note_off,156,0,1,,,,,,,,,0,,,58,0
814305,set_tempo,5505,1,0,,,,,,243902,,,,,,,
814320,note_on,324,0,1,,,,,,,,,0,,,58,67
814476,note_off,156,0,1,,,,,,,,,0,,,58,0
814560,set_tempo,255,1,0,,,,,,241935,,,,,,,
814560,note_on,720,0,2,,,,,,,,,1,,,62,84
814560,note_on,84,0,1,,,,,,,,,0,,,65,84
814560,note_on,0,0,4,,,,,,,,,3,,,34,81
814560,note_on,905,0,4,,,,,,,,,3,,,46,81
814716,note_off,156,0,1,,,,,,,,,0,,,65,0
814716,note_off,156,0,2,,,,,,,,,1,,,62,0
815040,note_on,324,0,1,,,,,,,,,0,,,65,69
815040,note_on,324,0,2,,,,,,,,,1,,,62,69
815225,note_off,2105,0,3,,,,,,,,,2,,,70,0
815280,note_off,240,0,1,,,,,,,,,0,,,65,0
815280,note_on,0,0,1,,,,,,,,,0,,,58,69
815280,note_off,240,0,2,,,,,,,,,1,,,62,0
815280,note_on,55,0,3,,,,,,,,,2,,,70,68
815436,note_off,156,0,1,,,,,,,,,0,,,58,0
815760,note_on,324,0,1,,,,,,,,,0,,,58,70
815916,note_off,156,0,1,,,,,,,,,0,,,58,0
816000,note_on,720,0,2,,,,,,,,,1,,,62,70
816000,note_on,84,0,1,,,,,,,,,0,,,65,70
816156,note_off,156,0,1,,,,,,,,,0,,,65,0
816156,note_off,156,0,2,,,,,,,,,1,,,62,0
816480,note_on,324,0,2,,,,,,,,,1,,,62,71
816480,note_on,324,0,1,,,,,,,,,0,,,65,71
816710,note_off,1430,0,3,,,,,,,,,2,,,70,0
816720,note_off,240,0,2,,,,,,,,,1,,,62,0
816720,note_on,10,0,3,,,,,,,,,2,,,70,70
816720,note_on,0,0,1,,,,,,,,,0,,,58,72
816720,note_off,240,0,1,,,,,,,,,0,,,65,0
816876,note_off,156,0,1,,,,,,,,,0,,,58,0
817200,note_on,324,0,1,,,,,,,,,0,,,58,72
817356,note_off,156,0,1,,,,,,,,,0,,,58,0
817440,note_on,720,0,2,,,,,,,,,1,,,62,73
817440,note_on,84,0,1,,,,,,,,,0,,,65,73
817596,note_off,156,0,1,,,,,,,,,0,,,65,0
817596,note_off,156,0,2,,,,,,,,,1,,,62,0
817920,note_on,324,0,2,,,,,,,,,1,,,62,74
817920,note_on,324,0,1,,,,,,,,,0,,,65,74
818075,note_off,1355,0,3,,,,,,,,,2,,,70,0
818160,note_off,240,0,1,,,,,,,,,0,,,65,0
818160,note_off,240,0,2,,,,,,,,,1,,,62,0
818160,note_on,85,0,3,,,,,,,,,2,,,70,72
818160,note_on,0,0,1,,,,,,,,,0,,,58,74
818316,note_off,156,0,1,,,,,,,,,0,,,58,0
818640,note_on,324,0,1,,,,,,,,,0,,,58,75
818760,set_tempo,4200,1,0,,,,,,243902,,,,,,,
818796,note_off,156,0,1,,,,,,,,,0,,,58,0
818840,note_off,680,0,3,,,,,,,,,2,,,70,0
818880,note_on,84,0,1,,,,,,,,,0,,,67,75
818880,note_on,40,0,3,,,,,,,,,2,,,70,73
818880,note_on,720,0,2,,,,,,,,,1,,,63,75
819036,note_off,156,0,2,,,,,,,,,1,,,63,0
819036,note_off,156,0,1,,,,,,,,,0,,,67,0
819360,note_off,480,0,3,,,,,,,,,2,,,70,0
819360,note_on,324,0,1,,,,,,,,,0,,,67,65
819415,note_off,0,0,4,,,,,,,,,3,,,46,0
819415,note_off,4855,0,4,,,,,,,,,3,,,34,0
819480,set_tempo,720,1,0,,,,,,244897,,,,,,,
819600,note_off,240,0,1,,,,,,,,,0,,,67,0
819600,set_tempo,120,1,0,,,,,,241935,,,,,,,
819600,note_on,185,0,4,,,,,,,,,3,,,51,52
819600,note_on,0,0,1,,,,,,,,,0,,,63,54
819756,note_off,156,0,1,,,,,,,,,0,,,63,0
820080,note_on,324,0,1,,,,,,,,,0,,,63,55
820236,note_off,156,0,1,,,,,,,,,0,,,63,0
820320,control_change,960,0,3,,,,,,,10,64,2,,,,
820320,note_on,720,0,4,,,,,,,,,3,,,48,53
820320,note_on,84,0,1,,,,,,,,,0,,,68,55
820476,note_off,156,0,1,,,,,,,,,0,,,68,0
820800,note_on,324,0,1,,,,,,,,,0,,,68,57
821040,note_off,240,0,1,,,,,,,,,0,,,68,0
821040,note_on,0,0,1,,,,,,,,,0,,,72,57
821040,note_off,720,0,4,,,,,,,,,3,,,48,0
821040,note_on,0,0,4,,,,,,,,,3,,,44,54
821196,note_off,156,0,1,,,,,,,,,0,,,72,0
821520,note_on,324,0,1,,,,,,,,,0,,,72,58
821760,note_off,720,0,4,,,,,,,,,3,,,44,0
821760,note_off,240,0,1,,,,,,,,,0,,,72,0
821760,note_on,0,0,1,,,,,,,,,0,,,70,59
821760,note_on,0,0,4,,,,,,,,,3,,,43,55
821916,note_off,156,0,1,,,,,,,,,0,,,70,0
822240,note_off,0,0,4,,,,,,,,,3,,,51,0
822240,note_off,480,0,4,,,,,,,,,3,,,43,0
822240,note_on,324,0,1,,,,,,,,,0,,,70,60
822480,note_on,240,0,4,,,,,,,,,3,,,51,57
822480,note_on,0,0,1,,,,,,,,,0,,,75,61
822480,note_off,240,0,1,,,,,,,,,0,,,70,0
822636,note_off,156,0,1,,,,,,,,,0,,,75,0
822960,note_on,324,0,1,,,,,,,,,0,,,75,62
823200,note_on,0,0,1,,,,,,,,,0,,,80,62
823200,note_off,240,0,1,,,,,,,,,0,,,75,0
823200,note_on,720,0,4,,,,,,,,,3,,,48,58
823356,note_off,156,0,1,,,,,,,,,0,,,80,0
823680,note_on,324,0,1,,,,,,,,,0,,,80,63
823920,note_off,240,0,1,,,,,,,,,0,,,80,0
823920,note_on,0,0,1,,,,,,,,,0,,,84,64
823920,note_on,0,0,4,,,,,,,,,3,,,44,59
823920,note_off,720,0,4,,,,,,,,,3,,,48,0
824076,note_off,156,0,1,,,,,,,,,0,,,84,0
824400,note_on,324,0,1,,,,,,,,,0,,,84,65
824640,note_on,0,0,1,,,,,,,,,0,,,82,66
824640,note_off,240,0,1,,,,,,,,,0,,,84,0
824640,note_on,0,0,4,,,,,,,,,3,,,43,60
824640,note_off,720,0,4,,,,,,,,,3,,,44,0
824796,note_off,156,0,1,,,,,,,,,0,,,82,0
825120,note_on,324,0,1,,,,,,,,,0,,,70,67
825120,note_off,0,0,4,,,,,,,,,3,,,51,0
825120,note_off,480,0,4,,,,,,,,,3,,,43,0
825360,note_off,240,0,1,,,,,,,,,0,,,70,0
825360,note_on,0,0,1,,,,,,,,,0,,,63,67
825360,note_on,240,0,4,,,,,,,,,3,,,51,61
825516,note_off,156,0,1,,,,,,,,,0,,,63,0
825840,note_on,324,0,1,,,,,,,,,0,,,63,69
826080,note_off,240,0,1,,,,,,,,,0,,,63,0
826080,note_on,0,0,1,,,,,,,,,0,,,68,69
826080,note_on,720,0,4,,,,,,,,,3,,,48,62
826236,note_off,156,0,1,,,,,,,,,0,,,68,0
826560,note_on,324,0,1,,,,,,,,,0,,,68,70
826800,note_on,0,0,1,,,,,,,,,0,,,72,71
826800,note_off,240,0,1,,,,,,,,,0,,,68,0
826800,note_off,720,0,4,,,,,,,,,3,,,48,0
826800,note_on,0,0,4,,,,,,,,,3,,,44,63
826956,note_off,156,0,1,,,,,,,,,0,,,72,0
827280,note_on,324,0,1,,,,,,,,,0,,,72,71
827400,set_tempo,7800,1,0,,,,,,243902,,,,,,,
827520,note_on,0,0,4,,,,,,,,,3,,,43,61
827520,note_on,0,0,1,,,,,,,,,0,,,70,70
827520,note_off,720,0,4,,,,,,,,,3,,,44,0
827520,note_off,240,0,1,,,,,,,,,0,,,72,0
827676,note_off,156,0,1,,,,,,,,,0,,,70,0
828000,note_on,324,0,1,,,,,,,,,0,,,67,68
828000,note_off,480,0,4,,,,,,,,,3,,,43,0
828000,note_off,0,0,4,,,,,,,,,3,,,51,0
828240,note_on,240,0,4,,,,,,,,,3,,,44,60
828240,note_on,0,0,4,,,,,,,,,3,,,53,60
828240,note_on,0,0,1,,,,,,,,,0,,,65,67
828240,note_off,240,0,1,,,,,,,,,0,,,67,0
828396,note_off,156,0,1,,,,,,,,,0,,,65,0
828720,note_on,324,0,1,,,,,,,,,0,,,68,65
828720,note_off,480,0,4,,,,,,,,,3,,,53,0
828720,note_off,0,0,4,,,,,,,,,3,,,44,0
828960,note_on,0,0,4,,,,,,,,,3,,,55,58
828960,note_off,240,0,1,,,,,,,,,0,,,68,0
828960,note_on,240,0,4,,,,,,,,,3,,,46,58
828960,note_on,0,0,1,,,,,,,,,0,,,63,64
829116,note_off,156,0,1,,,,,,,,,0,,,63,0
829440,note_off,0,0,4,,,,,,,,,3,,,46,0
829440,note_off,480,0,4,,,,,,,,,3,,,55,0
829440,note_on,324,0,1,,,,,,,,,0,,,67,62
829680,note_on,0,0,1,,,,,,,,,0,,,62,61
829680,note_on,0,0,4,,,,,,,,,3,,,56,57
829680,note_on,240,0,4,,,,,,,,,3,,,46,57
829680,note_off,240,0,1,,,,,,,,,0,,,67,0
829836,note_off,156,0,1,,,,,,,,,0,,,62,0
830160,note_on,324,0,1,,,,,,,,,0,,,65,59
830160,note_off,480,0,4,,,,,,,,,3,,,56,0
830160,note_off,0,0,4,,,,,,,,,3,,,46,0
830280,set_tempo,2880,1,0,,,,,,244897,,,,,,,
830400,note_on,240,0,4,,,,,,,,,3,,,39,54
830400,note_off,240,0,1,,,,,,,,,0,,,65,0
830400,note_on,0,0,1,,,,,,,,,0,,,63,58
830880,note_off,480,0,1,,,,,,,,,0,,,63,0
830880,set_tempo,600,1,0,,,,,,246913,,,,,,,
830880,note_off,480,0,4,,,,,,,,,3,,,39,0
831120,note_on,240,0,4,,,,,,,,,3,,,51,56
831120,note_on,240,0,1,,,,,,,,,0,,,63,59
831120,set_tempo,240,1,0,,,,,,241935,,,,,,,
831276,note_off,156,0,1,,,,,,,,,0,,,63,0
831600,note_on,324,0,1,,,,,,,,,0,,,63,60
831840,note_off,240,0,1,,,,,,,,,0,,,63,0
831840,note_on,720,0,4,,,,,,,,,3,,,47,57
831840,note_on,0,0,1,,,,,,,,,0,,,68,61
831996,note_off,156,0,1,,,,,,,,,0,,,68,0
832320,note_on,324,0,1,,,,,,,,,0,,,68,62
832560,note_on,0,0,4,,,,,,,,,3,,,44,59
832560,note_off,720,0,4,,,,,,,,,3,,,47,0
832560,note_on,0,0,1,,,,,,,,,0,,,71,62
832560,note_off,240,0,1,,,,,,,,,0,,,68,0
832716,note_off,156,0,1,,,,,,,,,0,,,71,0
833040,note_on,324,0,1,,,,,,,,,0,,,71,63
833280,note_on,0,0,1,,,,,,,,,0,,,70,64
833280,note_off,240,0,1,,,,,,,,,0,,,71,0
833280,note_off,720,0,4,,,,,,,,,3,,,44,0
833280,note_on,0,0,4,,,,,,,,,3,,,42,61
833436,note_off,156,0,1,,,,,,,,,0,,,70,0
833760,note_on,324,0,1,,,,,,,,,0,,,70,65
833760,note_off,480,0,4,,,,,,,,,3,,,42,0
833760,note_off,0,0,4,,,,,,,,,3,,,51,0
834000,note_on,0,0,1,,,,,,,,,0,,,75,65
834000,note_off,240,0,1,,,,,,,,,0,,,70,0
834000,note_on,240,0,4,,,,,,,,,3,,,51,62
834156,note_off,156,0,1,,,,,,,,,0,,,75,0
834480,note_on,324,0,1,,,,,,,,,0,,,75,66
834720,note_on,720,0,4,,,,,,,,,3,,,47,64
834720,note_off,240,0,1,,,,,,,,,0,,,75,0
834720,note_on,0,0,1,,,,,,,,,0,,,80,67
834876,note_off,156,0,1,,,,,,,,,0,,,80,0
835200,note_on,324,0,1,,,,,,,,,0,,,80,68
835440,note_on,0,0,4,,,,,,,,,3,,,44,66
835440,note_off,720,0,4,,,,,,,,,3,,,47,0
835440,note_off,240,0,1,,,,,,,,,0,,,80,0
835440,note_on,0,0,1,,,,,,,,,0,,,83,68
835596,note_off,156,0,1,,,,,,,,,0,,,83,0
835920,note_on,324,0,1,,,,,,,,,0,,,83,69
836160,note_on,0,0,1,,,,,,,,,0,,,82,64
836160,note_on,0,0,4,,,,,,,,,3,,,42,67
836160,note_off,720,0,4,,,,,,,,,3,,,44,0
836160,note_off,240,0,1,,,,,,,,,0,,,83,0
836316,note_off,156,0,1,,,,,,,,,0,,,82,0
836640,note_on,324,0,1,,,,,,,,,0,,,70,59
836640,note_off,0,0,4,,,,,,,,,3,,,51,0
836640,note_off,480,0,4,,,,,,,,,3,,,42,0
836760,set_tempo,5640,1,0,,,,,,243902,,,,,,,
836880,note_on,240,0,4,,,,,,,,,3,,,51,68
836880,note_on,0,0,1,,,,,,,,,0,,,63,61
836880,note_off,240,0,1,,,,,,,,,0,,,70,0
836880,set_tempo,120,1,0,,,,,,240000,,,,,,,
837036,note_off,156,0,1,,,,,,,,,0,,,63,0
837360,note_on,324,0,1,,,,,,,,,0,,,63,66
837600,note_off,240,0,1,,,,,,,,,0,,,63,0
837600,note_on,0,0,1,,,,,,,,,0,,,69,68
837600,note_on,720,0,4,,,,,,,,,3,,,48,72
837756,note_off,156,0,1,,,,,,,,,0,,,69,0
838080,note_on,324,0,1,,,,,,,,,0,,,69,73
838320,note_on,0,0,1,,,,,,,,,0,,,72,74
838320,note_off,240,0,1,,,,,,,,,0,,,69,0
838320,note_off,720,0,4,,,,,,,,,3,,,48,0
838320,note_on,0,0,4,,,,,,,,,3,,,46,77
838476,note_off,156,0,1,,,,,,,,,0,,,72,0
838800,note_on,324,0,1,,,,,,,,,0,,,72,74
838920,set_tempo,2040,1,0,,,,,,241935,,,,,,,
839040,note_on,0,0,1,,,,,,,,,0,,,65,75
839040,note_off,240,0,1,,,,,,,,,0,,,72,0
839040,set_tempo,120,1,0,,,,,,240000,,,,,,,
839040,note_off,0,0,4,,,,,,,,,3,,,51,0
839040,note_off,720,0,4,,,,,,,,,3,,,46,0
839040,note_on,0,0,4,,,,,,,,,3,,,45,74
839280,note_on,18960,0,3,,,,,,,,,2,,,60,74
839520,note_off,240,0,3,,,,,,,,,2,,,60,0
839520,note_on,0,0,3,,,,,,,,,2,,,63,74
839760,note_off,240,0,3,,,,,,,,,2,,,63,0
839760,note_on,720,0,4,,,,,,,,,3,,,57,75
839760,note_on,720,0,1,,,,,,,,,0,,,77,76
840000,note_on,240,0,3,,,,,,,,,2,,,60,75
840240,note_on,0,0,3,,,,,,,,,2,,,63,75
840240,note_off,240,0,3,,,,,,,,,2,,,60,0
840437,note_off,677,0,4,,,,,,,,,3,,,57,0
840480,note_off,240,0,3,,,,,,,,,2,,,63,0
840480,note_on,43,0,4,,,,,,,,,3,,,57,75
840720,note_on,240,0,3,,,,,,,,,2,,,60,75
840960,note_off,240,0,3,,,,,,,,,2,,,60,0
840960,note_on,0,0,3,,,,,,,,,2,,,63,76
841157,note_off,677,0,4,,,,,,,,,3,,,57,0
841170,note_off,1410,0,1,,,,,,,,,0,,,77,0
841200,note_on,43,0,4,,,,,,,,,3,,,57,76
841200,note_off,30,0,1,,,,,,,,,0,,,65,0
841200,note_off,240,0,3,,,,,,,,,2,,,63,0
841200,note_on,0,0,1,,,,,,,,,0,,,77,79
841440,note_on,240,0,3,,,,,,,,,2,,,60,76
841680,note_off,480,0,1,,,,,,,,,0,,,77,0
841680,note_off,240,0,3,,,,,,,,,2,,,60,0
841680,note_on,0,0,3,,,,,,,,,2,,,63,76
841877,note_off,677,0,4,,,,,,,,,3,,,57,0
841920,note_off,240,0,3,,,,,,,,,2,,,63,0
841920,note_on,240,0,1,,,,,,,,,0,,,77,80
841920,note_on,43,0,4,,,,,,,,,3,,,57,77
842160,note_on,240,0,3,,,,,,,,,2,,,60,77
842400,note_off,480,0,1,,,,,,,,,0,,,77,0
842400,note_off,240,0,3,,,,,,,,,2,,,60,0
842400,note_on,0,0,3,,,,,,,,,2,,,63,77
842597,note_off,677,0,4,,,,,,,,,3,,,57,0
842640,note_on,240,0,1,,,,,,,,,0,,,77,81
842640,note_on,43,0,4,,,,,,,,,3,,,57,77
842640,note_off,240,0,3,,,,,,,,,2,,,63,0
842880,note_on,240,0,3,,,,,,,,,2,,,60,78
843120,note_off,480,0,1,,,,,,,,,0,,,77,0
843120,note_off,240,0,3,,,,,,,,,2,,,60,0
843120,note_on,0,0,3,,,,,,,,,2,,,63,78
843317,note_off,677,0,4,,,,,,,,,3,,,57,0
843351,note_off,34,0,4,,,,,,,,,3,,,45,0
843360,note_on,9,0,4,,,,,,,,,3,,,57,78
843360,note_on,240,0,1,,,,,,,,,0,,,77,82
843360,note_off,240,0,3,,,,,,,,,2,,,63,0
843600,note_on,240,0,4,,,,,,,,,3,,,60,78
843840,note_on,0,0,4,,,,,,,,,3,,,63,79
843840,note_off,240,0,4,,,,,,,,,3,,,60,0
843840,note_off,480,0,1,,,,,,,,,0,,,77,0
844080,note_on,240,0,1,,,,,,,,,0,,,77,84
844080,note_on,0,0,4,,,,,,,,,3,,,62,79
844080,note_off,240,0,4,,,,,,,,,3,,,63,0
844320,note_on,0,0,4,,,,,,,,,3,,,60,79
844320,note_off,240,0,4,,,,,,,,,3,,,62,0
844560,note_off,240,0,4,,,,,,,,,3,,,60,0
844560,note_on,0,0,4,,,,,,,,,3,,,58,79
844560,note_off,480,0,1,,,,,,,,,0,,,77,0
844680,set_tempo,5640,1,0,,,,,,241935,,,,,,,
844773,note_off,213,0,4,,,,,,,,,3,,,57,0
844800,note_on,240,0,1,,,,,,,,,0,,,77,85
844800,note_off,27,0,4,,,,,,,,,3,,,58,0
844800,set_tempo,120,1,0,,,,,,240000,,,,,,,
844800,note_on,0,0,4,,,,,,,,,3,,,57,80
845040,note_on,1680,0,3,,,,,,,,,2,,,60,80
845280,note_off,240,0,3,,,,,,,,,2,,,60,0
845280,note_on,0,0,3,,,,,,,,,2,,,63,80
845477,note_off,677,0,4,,,,,,,,,3,,,57,0
845520,note_on,720,0,1,,,,,,,,,0,,,89,91
845520,note_on,43,0,4,,,,,,,,,3,,,57,88
845520,note_off,240,0,3,,,,,,,,,2,,,63,0
845760,note_on,240,0,3,,,,,,,,,2,,,60,81
846000,note_off,240,0,3,,,,,,,,,2,,,60,0
846000,note_on,0,0,3,,,,,,,,,2,,,63,81
846197,note_off,677,0,4,,,,,,,,,3,,,57,0
846240,note_off,240,0,3,,,,,,,,,2,,,63,0
846240,note_on,43,0,4,,,,,,,,,3,,,57,81
846480,note_on,240,0,3,,,,,,,,,2,,,60,81
846720,note_on,0,0,3,,,,,,,,,2,,,63,81
846720,note_off,240,0,3,,,,,,,,,2,,,60,0
846871,note_off,1351,0,1,,,,,,,,,0,,,89,0
846917,note_off,677,0,4,,,,,,,,,3,,,57,0
846934,note_off,63,0,1,,,,,,,,,0,,,77,0
846960,note_on,26,0,1,,,,,,,,,0,,,89,84
846960,note_on,27924,0,2,,,,,,,,,1,,,77,84
846960,note_off,240,0,3,,,,,,,,,2,,,63,0
846960,note_on,43,0,4,,,,,,,,,3,,,57,82
847200,note_on,240,0,3,,,,,,,,,2,,,60,82
847440,note_off,480,0,2,,,,,,,,,1,,,77,0
847440,note_on,0,0,3,,,,,,,,,2,,,63,82
847440,note_off,480,0,1,,,,,,,,,0,,,89,0
847440,note_off,240,0,3,,,,,,,,,2,,,60,0
847637,note_off,677,0,4,,,,,,,,,3,,,57,0
847680,note_on,43,0,4,,,,,,,,,3,,,57,82
847680,note_on,240,0,2,,,,,,,,,1,,,77,85
847680,note_off,240,0,3,,,,,,,,,2,,,63,0
847680,note_on,240,0,1,,,,,,,,,0,,,89,85
847920,note_on,240,0,3,,,,,,,,,2,,,60,83
848160,note_off,480,0,1,,,,,,,,,0,,,89,0
848160,note_off,480,0,2,,,,,,,,,1,,,77,0
848160,note_off,240,0,3,,,,,,,,,2,,,60,0
848160,note_on,0,0,3,,,,,,,,,2,,,63,83
848357,note_off,677,0,4,,,,,,,,,3,,,57,0
848400,note_on,240,0,2,,,,,,,,,1,,,77,86
848400,note_on,240,0,1,,,,,,,,,0,,,89,86
848400,note_off,240,0,3,,,,,,,,,2,,,63,0
848400,note_on,43,0,4,,,,,,,,,3,,,57,83
848640,note_on,240,0,3,,,,,,,,,2,,,60,83
848880,note_on,0,0,3,,,,,,,,,2,,,63,84
848880,note_off,240,0,3,,,,,,,,,2,,,60,0
848880,note_off,480,0,2,,,,,,,,,1,,,77,0
848880,note_off,480,0,1,,,,,,,,,0,,,89,0
849077,note_off,677,0,4,,,,,,,,,3,,,57,0
849120,note_on,43,0,4,,,,,,,,,3,,,57,84
849120,note_on,240,0,2,,,,,,,,,1,,,77,86
849120,note_on,240,0,1,,,,,,,,,0,,,89,86
849120,note_off,240,0,3,,,,,,,,,2,,,63,0
849360,note_on,240,0,3,,,,,,,,,2,,,60,84
849600,note_off,480,0,1,,,,,,,,,0,,,89,0
849600,note_on,0,0,3,,,,,,,,,2,,,63,84
849600,note_off,240,0,3,,,,,,,,,2,,,60,0
849600,note_off,480,0,2,,,,,,,,,1,,,77,0
849797,note_off,677,0,4,,,,,,,,,3,,,57,0
849840,note_on,240,0,2,,,,,,,,,1,,,77,87
849840,note_on,43,0,4,,,,,,,,,3,,,57,85
849840,note_on,240,0,1,,,,,,,,,0,,,89,87
849840,note_off,240,0,3,,,,,,,,,2,,,63,0
850080,note_on,240,0,3,,,,,,,,,2,,,60,85
850320,note_off,480,0,2,,,,,,,,,1,,,77,0
850320,note_off,240,0,3,,,,,,,,,2,,,60,0
850320,note_on,0,0,3,,,,,,,,,2,,,63,85
850320,note_off,480,0,1,,,,,,,,,0,,,89,0
850440,set_tempo,5640,1,0,,,,,,241935,,,,,,,
850517,note_off,677,0,4,,,,,,,,,3,,,57,0
850560,note_off,240,0,3,,,,,,,,,2,,,63,0
850560,note_on,43,0,4,,,,,,,,,3,,,57,94
850560,note_on,240,0,1,,,,,,,,,0,,,89,95
850560,note_on,240,0,2,,,,,,,,,1,,,77,95
850680,set_tempo,240,1,0,,,,,,240000,,,,,,,
850800,note_on,240,0,4,,,,,,,,,3,,,60,85
851040,note_on,0,0,4,,,,,,,,,3,,,63,85
851040,note_off,240,0,4,,,,,,,,,3,,,60,0
851040,note_off,480,0,1,,,,,,,,,0,,,89,0
851040,note_off,480,0,2,,,,,,,,,1,,,77,0
851040,note_on,0,0,1,,,,,,,,,0,,,81,88
851280,note_on,0,0,4,,,,,,,,,3,,,62,85
851280,note_on,0,0,1,,,,,,,,,0,,,82,87
851280,note_off,240,0,1,,,,,,,,,0,,,81,0
851280,note_off,240,0,4,,,,,,,,,3,,,63,0
851375,note_off,95,0,4,,,,,,,,,3,,,57,0
851520,note_on,0,0,1,,,,,,,,,0,,,84,86
851520,note_off,240,0,1,,,,,,,,,0,,,82,0
851520,note_off,145,0,4,,,,,,,,,3,,,62,0
851520,note_on,0,0,4,,,,,,,,,3,,,60,85
851760,note_on,0,0,1,,,,,,,,,0,,,86,85
851760,note_off,240,0,1,,,,,,,,,0,,,84,0
851760,note_off,240,0,4,,,,,,,,,3,,,60,0
851760,note_on,0,0,4,,,,,,,,,3,,,58,84
852000,note_off,240,0,4,,,,,,,,,3,,,58,0
852000,note_off,240,0,1,,,,,,,,,0,,,86,0
852000,note_on,0,0,4,,,,,,,,,3,,,57,84
852240,note_on,0,0,4,,,,,,,,,3,,,58,83
852240,note_off,240,0,4,,,,,,,,,3,,,57,0
852480,note_on,480,0,1,,,,,,,,,0,,,78,83
852480,note_off,240,0,4,,,,,,,,,3,,,58,0
852480,note_on,0,0,4,,,,,,,,,3,,,60,83
852720,note_off,240,0,4,,,,,,,,,3,,,60,0
852720,note_on,0,0,4,,,,,,,,,3,,,58,82
852720,note_off,240,0,1,,,,,,,,,0,,,78,0
852720,note_on,0,0,1,,,,,,,,,0,,,79,82
852960,note_on,0,0,4,,,,,,,,,3,,,57,81
852960,note_on,0,0,1,,,,,,,,,0,,,81,81
852960,note_off,240,0,4,,,,,,,,,3,,,58,0
852960,note_off,240,0,1,,,,,,,,,0,,,79,0
853200,note_on,0,0,1,,,,,,,,,0,,,82,80
853200,note_off,240,0,1,,,,,,,,,0,,,81,0
853200,note_off,240,0,4,,,,,,,,,3,,,57,0
853200,note_on,0,0,4,,,,,,,,,3,,,55,81
853440,note_off,240,0,1,,,,,,,,,0,,,82,0
853440,note_on,0,0,4,,,,,,,,,3,,,53,80
853440,note_off,240,0,4,,,,,,,,,3,,,55,0
853680,note_on,0,0,4,,,,,,,,,3,,,55,79
853680,note_off,240,0,4,,,,,,,,,3,,,53,0
853920,note_on,0,0,4,,,,,,,,,3,,,56,79
853920,note_off,240,0,4,,,,,,,,,3,,,55,0
853920,note_on,480,0,1,,,,,,,,,0,,,74,78
854160,note_off,240,0,4,,,,,,,,,3,,,56,0
854160,note_off,240,0,1,,,,,,,,,0,,,74,0
854160,note_on,0,0,1,,,,,,,,,0,,,75,77
854160,note_on,0,0,4,,,,,,,,,3,,,55,78
854400,note_off,240,0,4,,,,,,,,,3,,,55,0
854400,note_on,0,0,1,,,,,,,,,0,,,77,76
854400,note_off,240,0,1,,,,,,,,,0,,,75,0
854400,note_on,0,0,4,,,,,,,,,3,,,53,77
854640,note_on,0,0,4,,,,,,,,,3,,,51,77
854640,note_on,0,0,1,,,,,,,,,0,,,79,75
854640,note_off,240,0,1,,,,,,,,,0,,,77,0
854640,note_off,240,0,4,,,,,,,,,3,,,53,0
854880,note_off,240,0,4,,,,,,,,,3,,,51,0
854880,note_on,0,0,4,,,,,,,,,3,,,50,76
854880,note_off,240,0,1,,,,,,,,,0,,,79,0
855120,note_off,240,0,4,,,,,,,,,3,,,50,0
855120,note_on,0,0,4,,,,,,,,,3,,,51,76
855360,note_off,240,0,4,,,,,,,,,3,,,51,0
855360,note_on,0,0,4,,,,,,,,,3,,,53,75
855360,note_on,480,0,1,,,,,,,,,0,,,71,73
855600,note_off,240,0,1,,,,,,,,,0,,,71,0
855600,note_on,0,0,1,,,,,,,,,0,,,72,72
855600,note_on,0,0,4,,,,,,,,,3,,,51,74
855600,note_off,240,0,4,,,,,,,,,3,,,53,0
855840,note_off,240,0,1,,,,,,,,,0,,,72,0
855840,note_on,0,0,1,,,,,,,,,0,,,74,71
855840,note_off,240,0,4,,,,,,,,,3,,,51,0
855840,note_on,0,0,4,,,,,,,,,3,,,50,74
856080,note_off,240,0,1,,,,,,,,,0,,,74,0
856080,note_on,0,0,1,,,,,,,,,0,,,75,70
856080,note_on,0,0,4,,,,,,,,,3,,,48,73
856080,note_off,240,0,4,,,,,,,,,3,,,50,0
856200,set_tempo,5520,1,0,,,,,,241935,,,,,,,
856320,note_off,240,0,4,,,,,,,,,3,,,48,0
856320,set_tempo,120,1,0,,,,,,240000,,,,,,,
856320,note_on,0,0,4,,,,,,,,,3,,,39,72
856320,note_off,240,0,1,,,,,,,,,0,,,75,0
856560,note_on,240,0,1,,,,,,,,,0,,,60,73
856800,note_off,480,0,4,,,,,,,,,3,,,39,0
856800,note_off,240,0,1,,,,,,,,,0,,,60,0
856800,note_on,0,0,1,,,,,,,,,0,,,63,73
857040,note_on,0,0,1,,,,,,,,,0,,,67,74
857040,note_off,240,0,1,,,,,,,,,0,,,63,0
857280,note_on,0,0,1,,,,,,,,,0,,,63,75
857280,note_off,240,0,1,,,,,,,,,0,,,67,0
857520,note_on,0,0,1,,,,,,,,,0,,,67,76
857520,note_off,240,0,1,,,,,,,,,0,,,63,0
857760,note_on,960,0,4,,,,,,,,,3,,,55,83
857760,note_on,0,0,4,,,,,,,,,3,,,51,83
857760,note_on,0,0,4,,,,,,,,,3,,,60,83
857760,note_on,0,0,1,,,,,,,,,0,,,72,85
857760,note_off,240,0,1,,,,,,,,,0,,,67,0
858000,note_off,240,0,1,,,,,,,,,0,,,72,0
858000,note_on,0,0,1,,,,,,,,,0,,,67,77
858240,note_off,240,0,1,,,,,,,,,0,,,67,0
858240,note_on,0,0,1,,,,,,,,,0,,,72,78
858480,note_on,0,0,1,,,,,,,,,0,,,75,79
858480,note_off,240,0,1,,,,,,,,,0,,,72,0
858720,note_on,0,0,1,,,,,,,,,0,,,72,80
858720,note_off,240,0,1,,,,,,,,,0,,,75,0
858960,note_off,240,0,1,,,,,,,,,0,,,72,0
858960,note_on,0,0,1,,,,,,,,,0,,,75,80
859150,note_off,0,0,4,,,,,,,,,3,,,55,0
859150,note_off,0,0,4,,,,,,,,,3,,,51,0
859150,note_off,1390,0,4,,,,,,,,,3,,,60,0
859200,note_off,240,0,1,,,,,,,,,0,,,75,0
859200,note_on,0,0,1,,,,,,,,,0,,,79,81
859440,note_off,240,0,1,,,,,,,,,0,,,79,0
859440,note_on,0,0,1,,,,,,,,,0,,,77,80
859680,note_off,240,0,1,,,,,,,,,0,,,77,0
859680,note_on,0,0,1,,,,,,,,,0,,,75,79
859920,note_off,240,0,1,,,,,,,,,0,,,75,0
859920,note_on,770,0,4,,,,,,,,,3,,,51,79
859920,note_on,0,0,1,,,,,,,,,0,,,74,79
860160,note_off,240,0,1,,,,,,,,,0,,,74,0
860160,note_on,0,0,1,,,,,,,,,0,,,75,78
860160,note_on,240,0,4,,,,,,,,,3,,,55,78
860400,note_off,240,0,1,,,,,,,,,0,,,75,0
860400,note_on,0,0,1,,,,,,,,,0,,,72,77
860400,note_off,240,0,4,,,,,,,,,3,,,55,0
860400,note_on,0,0,4,,,,,,,,,3,,,60,78
860597,note_off,197,0,4,,,,,,,,,3,,,51,0
860640,note_off,240,0,1,,,,,,,,,0,,,72,0
860640,note_on,0,0,1,,,,,,,,,0,,,77,76
860640,note_on,0,0,4,,,,,,,,,3,,,53,77
860640,note_off,43,0,4,,,,,,,,,3,,,60,0
860880,note_off,240,0,1,,,,,,,,,0,,,77,0
860880,note_on,240,0,4,,,,,,,,,3,,,58,76
860880,note_on,0,0,1,,,,,,,,,0,,,74,75
861120,note_on,0,0,4,,,,,,,,,3,,,62,75
861120,note_on,0,0,1,,,,,,,,,0,,,70,74
861120,note_off,240,0,1,,,,,,,,,0,,,74,0
861120,note_off,240,0,4,,,,,,,,,3,,,58,0
861317,note_off,197,0,4,,,,,,,,,3,,,53,0
861360,note_on,0,0,4,,,,,,,,,3,,,53,74
861360,note_off,43,0,4,,,,,,,,,3,,,62,0
861360,note_on,0,0,1,,,,,,,,,0,,,75,74
861360,note_off,240,0,1,,,,,,,,,0,,,70,0
861600,note_on,240,0,4,,,,,,,,,3,,,60,73
861600,note_on,0,0,1,,,,,,,,,0,,,72,73
861600,note_off,240,0,1,,,,,,,,,0,,,75,0
861840,note_off,240,0,1,,,,,,,,,0,,,72,0
861840,note_on,0,0,1,,,,,,,,,0,,,69,72
861840,note_off,240,0,4,,,,,,,,,3,,,60,0
861840,note_on,0,0,4,,,,,,,,,3,,,63,73
861960,set_tempo,5640,1,0,,,,,,241935,,,,,,,
862037,note_off,197,0,4,,,,,,,,,3,,,53,0
862080,note_off,240,0,1,,,,,,,,,0,,,69,0
862080,set_tempo,120,1,0,,,,,,240000,,,,,,,
862080,note_on,0,0,4,,,,,,,,,3,,,57,77
862080,note_off,43,0,4,,,,,,,,,3,,,63,0
862320,note_on,0,0,4,,,,,,,,,3,,,60,77
862320,note_on,240,0,1,,,,,,,,,0,,,89,79
862320,note_off,240,0,4,,,,,,,,,3,,,57,0
862560,note_on,0,0,4,,,,,,,,,3,,,63,76
862560,note_off,240,0,1,,,,,,,,,0,,,89,0
862560,note_on,0,0,1,,,,,,,,,0,,,81,79
862560,note_off,240,0,4,,,,,,,,,3,,,60,0
862800,note_off,240,0,4,,,,,,,,,3,,,63,0
862800,note_on,0,0,4,,,,,,,,,3,,,62,76
862800,note_off,240,0,1,,,,,,,,,0,,,81,0
862800,note_on,0,0,1,,,,,,,,,0,,,82,78
863040,note_on,0,0,4,,,,,,,,,3,,,60,75
863040,note_off,240,0,1,,,,,,,,,0,,,82,0
863040,note_on,0,0,1,,,,,,,,,0,,,84,77
863040,note_off,240,0,4,,,,,,,,,3,,,62,0
863280,note_off,240,0,1,,,,,,,,,0,,,84,0
863280,note_off,240,0,4,,,,,,,,,3,,,60,0
863280,note_on,0,0,1,,,,,,,,,0,,,86,77
863280,note_on,0,0,4,,,,,,,,,3,,,58,75
863520,note_off,240,0,1,,,,,,,,,0,,,86,0
863520,note_on,0,0,4,,,,,,,,,3,,,57,74
863520,note_off,240,0,4,,,,,,,,,3,,,58,0
863760,note_off,240,0,4,,,,,,,,,3,,,57,0
863760,note_on,0,0,4,,,,,,,,,3,,,58,74
863760,note_on,240,0,1,,,,,,,,,0,,,86,76
864000,note_on,0,0,4,,,,,,,,,3,,,60,73
864000,note_off,240,0,4,,,,,,,,,3,,,58,0
864000,note_on,0,0,1,,,,,,,,,0,,,78,75
864000,note_off,240,0,1,,,,,,,,,0,,,86,0
864240,note_off,240,0,4,,,,,,,,,3,,,60,0
864240,note_on,0,0,1,,,,,,,,,0,,,79,74
864240,note_off,240,0,1,,,,,,,,,0,,,78,0
864240,note_on,0,0,4,,,,,,,,,3,,,58,73
864480,note_on,0,0,4,,,,,,,,,3,,,57,72
864480,note_off,240,0,4,,,,,,,,,3,,,58,0
864480,note_on,0,0,1,,,,,,,,,0,,,81,74
864480,note_off,240,0,1,,,,,,,,,0,,,79,0
864720,note_on,0,0,1,,,,,,,,,0,,,82,73
864720,note_off,240,0,1,,,,,,,,,0,,,81,0
864720,note_off,240,0,4,,,,,,,,,3,,,57,0
864720,note_on,0,0,4,,,,,,,,,3,,,55,72
864960,note_off,240,0,1,,,,,,,,,0,,,82,0
864960,note_on,0,0,4,,,,,,,,,3,,,53,72
864960,note_off,240,0,4,,,,,,,,,3,,,55,0
865200,note_on,0,0,4,,,,,,,,,3,,,55,71
865200,note_on,240,0,1,,,,,,,,,0,,,82,72
865200,note_off,240,0,4,,,,,,,,,3,,,53,0
865440,note_off,240,0,1,,,,,,,,,0,,,82,0
865440,note_on,0,0,1,,,,,,,,,0,,,74,71
865440,note_off,240,0,4,,,,,,,,,3,,,55,0
865440,note_on,0,0,4,,,,,,,,,3,,,56,71
865680,note_on,0,0,1,,,,,,,,,0,,,75,71
865680,note_off,240,0,4,,,,,,,,,3,,,56,0
865680,note_on,0,0,4,,,,,,,,,3,,,55,70
865680,note_off,240,0,1,,,,,,,,,0,,,74,0
865920,note_off,240,0,1,,,,,,,,,0,,,75,0
865920,note_off,240,0,4,,,,,,,,,3,,,55,0
865920,note_on,0,0,4,,,,,,,,,3,,,53,70
865920,note_on,0,0,1,,,,,,,,,0,,,77,70
866160,note_on,0,0,1,,,,,,,,,0,,,79,70
866160,note_off,240,0,1,,,,,,,,,0,,,77,0
866160,note_off,240,0,4,,,,,,,,,3,,,53,0
866160,note_on,0,0,4,,,,,,,,,3,,,51,69
866400,note_on,0,0,4,,,,,,,,,3,,,50,69
866400,note_off,240,0,1,,,,,,,,,0,,,79,0
866400,note_off,240,0,4,,,,,,,,,3,,,51,0
866640,note_on,240,0,1,,,,,,,,,0,,,79,68
866640,note_off,240,0,4,,,,,,,,,3,,,50,0
866640,note_on,0,0,4,,,,,,,,,3,,,51,68
866880,note_on,0,0,1,,,,,,,,,0,,,71,68
866880,note_off,240,0,4,,,,,,,,,3,,,51,0
866880,note_on,0,0,4,,,,,,,,,3,,,53,68
866880,note_off,240,0,1,,,,,,,,,0,,,79,0
867120,note_off,240,0,4,,,,,,,,,3,,,53,0
867120,note_on,0,0,4,,,,,,,,,3,,,51,67
867120,note_off,240,0,1,,,,,,,,,0,,,71,0
867120,note_on,0,0,1,,,,,,,,,0,,,72,67
867360,note_on,0,0,4,,,,,,,,,3,,,50,67
867360,note_off,240,0,1,,,,,,,,,0,,,72,0
867360,note_off,240,0,4,,,,,,,,,3,,,51,0
867360,note_on,0,0,1,,,,,,,,,0,,,74,67
867600,note_off,240,0,1,,,,,,,,,0,,,74,0
867600,note_on,0,0,1,,,,,,,,,0,,,75,66
867600,note_on,0,0,4,,,,,,,,,3,,,48,66
867600,note_off,240,0,4,,,,,,,,,3,,,50,0
867720,set_tempo,5640,1,0,,,,,,241935,,,,,,,
867840,note_on,0,0,4,,,,,,,,,3,,,39,66
867840,note_off,240,0,4,,,,,,,,,3,,,48,0
867840,set_tempo,120,1,0,,,,,,240000,,,,,,,
867840,note_off,240,0,1,,,,,,,,,0,,,75,0
868080,note_on,240,0,1,,,,,,,,,0,,,55,62
868320,note_on,0,0,1,,,,,,,,,0,,,60,62
868320,note_off,480,0,4,,,,,,,,,3,,,39,0
868320,note_off,240,0,1,,,,,,,,,0,,,55,0
868560,note_off,240,0,1,,,,,,,,,0,,,60,0
868560,note_on,0,0,1,,,,,,,,,0,,,63,63
868800,note_on,0,0,1,,,,,,,,,0,,,60,63
868800,note_off,240,0,1,,,,,,,,,0,,,63,0
869040,note_on,0,0,1,,,,,,,,,0,,,63,63
869040,note_off,240,0,1,,,,,,,,,0,,,60,0
869160,set_tempo,1320,1,0,,,,,,241935,,,,,,,
869280,note_on,960,0,4,,,,,,,,,3,,,51,72
869280,note_on,0,0,4,,,,,,,,,3,,,55,72
869280,note_off,240,0,1,,,,,,,,,0,,,63,0
869280,note_on,0,0,1,,,,,,,,,0,,,67,72
869280,set_tempo,120,1,0,,,,,,240000,,,,,,,
869520,note_off,240,0,1,,,,,,,,,0,,,67,0
869520,note_on,0,0,1,,,,,,,,,0,,,60,64
869760,note_on,0,0,1,,,,,,,,,0,,,63,64
869760,note_off,240,0,1,,,,,,,,,0,,,60,0
869760,note_off,0,0,4,,,,,,,,,3,,,51,0
869760,note_off,480,0,4,,,,,,,,,3,,,55,0
870000,note_on,0,0,1,,,,,,,,,0,,,67,65
870000,note_off,240,0,1,,,,,,,,,0,,,63,0
870240,note_on,0,0,1,,,,,,,,,0,,,63,65
870240,note_off,240,0,1,,,,,,,,,0,,,67,0
870480,note_on,0,0,1,,,,,,,,,0,,,67,65
870480,note_off,240,0,1,,,,,,,,,0,,,63,0
870600,set_tempo,1320,1,0,,,,,,241935,,,,,,,
870720,note_on,0,0,1,,,,,,,,,0,,,72,72
870720,note_on,0,0,4,,,,,,,,,3,,,55,77
870720,note_on,0,0,4,,,,,,,,,3,,,60,77
870720,set_tempo,120,1,0,,,,,,240000,,,,,,,
870720,note_on,960,0,4,,,,,,,,,3,,,51,77
870720,note_off,240,0,1,,,,,,,,,0,,,67,0
870960,note_off,240,0,1,,,,,,,,,0,,,72,0
870960,note_on,0,0,1,,,,,,,,,0,,,63,66
871200,note_off,0,0,4,,,,,,,,,3,,,55,0
871200,note_off,480,0,4,,,,,,,,,3,,,60,0
871200,note_off,240,0,1,,,,,,,,,0,,,63,0
871200,note_on,0,0,1,,,,,,,,,0,,,67,66
871200,note_off,0,0,4,,,,,,,,,3,,,51,0
871440,note_on,0,0,1,,,,,,,,,0,,,72,67
871440,note_off,240,0,1,,,,,,,,,0,,,67,0
871680,note_on,0,0,1,,,,,,,,,0,,,67,67
871680,note_off,240,0,1,,,,,,,,,0,,,72,0
871920,note_on,0,0,1,,,,,,,,,0,,,72,67
871920,note_off,240,0,1,,,,,,,,,0,,,67,0
872040,set_tempo,1320,1,0,,,,,,241935,,,,,,,
872160,set_tempo,120,1,0,,,,,,240000,,,,,,,
872160,note_on,960,0,4,,,,,,,,,3,,,63,81
872160,note_on,0,0,4,,,,,,,,,3,,,55,81
872160,note_on,0,0,4,,,,,,,,,3,,,60,81
872160,note_on,0,0,4,,,,,,,,,3,,,51,81
872160,note_on,0,0,1,,,,,,,,,0,,,75,76
872160,note_off,240,0,1,,,,,,,,,0,,,72,0
872400,note_off,240,0,1,,,,,,,,,0,,,75,0
872400,note_on,0,0,1,,,,,,,,,0,,,67,68
872640,note_off,0,0,4,,,,,,,,,3,,,63,0
872640,note_off,0,0,4,,,,,,,,,3,,,55,0
872640,note_off,0,0,4,,,,,,,,,3,,,60,0
872640,note_off,480,0,4,,,,,,,,,3,,,51,0
872640,note_on,0,0,1,,,,,,,,,0,,,72,68
872640,note_off,240,0,1,,,,,,,,,0,,,67,0
872880,note_off,240,0,1,,,,,,,,,0,,,72,0
872880,note_on,0,0,1,,,,,,,,,0,,,75,69
873120,note_off,240,0,1,,,,,,,,,0,,,75,0
873120,note_on,0,0,1,,,,,,,,,0,,,72,69
873360,note_off,240,0,1,,,,,,,,,0,,,72,0
873360,note_on,0,0,1,,,,,,,,,0,,,75,69
873480,set_tempo,1320,1,0,,,,,,241935,,,,,,,
873600,note_on,0,0,1,,,,,,,,,0,,,79,79
873600,note_off,240,0,1,,,,,,,,,0,,,75,0
873600,set_tempo,120,1,0,,,,,,240000,,,,,,,
873840,note_off,240,0,1,,,,,,,,,0,,,79,0
873840,note_on,0,0,1,,,,,,,,,0,,,67,70
873840,note_on,1200,0,4,,,,,,,,,3,,,63,69
874080,note_off,240,0,4,,,,,,,,,3,,,63,0
874080,note_on,0,0,4,,,,,,,,,3,,,60,70
874080,note_on,0,0,1,,,,,,,,,0,,,72,70
874080,note_off,240,0,1,,,,,,,,,0,,,67,0
874320,note_off,240,0,4,,,,,,,,,3,,,60,0
874320,note_on,0,0,1,,,,,,,,,0,,,75,71
874320,note_off,240,0,1,,,,,,,,,0,,,72,0
874320,note_on,0,0,4,,,,,,,,,3,,,55,71
874560,note_off,240,0,1,,,,,,,,,0,,,75,0
874560,note_on,0,0,1,,,,,,,,,0,,,72,71
874560,note_on,0,0,4,,,,,,,,,3,,,60,71
874560,note_off,240,0,4,,,,,,,,,3,,,55,0
874800,note_on,0,0,1,,,,,,,,,0,,,75,71
874800,note_on,0,0,4,,,,,,,,,3,,,55,72
874800,note_off,240,0,4,,,,,,,,,3,,,60,0
874800,note_off,240,0,1,,,,,,,,,0,,,72,0
874920,set_tempo,1320,1,0,,,,,,241935,,,,,,,
875040,note_on,0,0,1,,,,,,,,,0,,,79,80
875040,note_off,240,0,1,,,,,,,,,0,,,75,0
875040,set_tempo,120,1,0,,,,,,240000,,,,,,,
875040,note_off,240,0,4,,,,,,,,,3,,,55,0
875040,note_on,0,0,4,,,,,,,,,3,,,51,72
875280,note_off,240,0,4,,,,,,,,,3,,,51,0
875280,note_on,0,0,4,,,,,,,,,3,,,63,73
875280,note_on,0,0,1,,,,,,,,,0,,,67,72
875280,note_off,240,0,1,,,,,,,,,0,,,79,0
875520,note_off,240,0,4,,,,,,,,,3,,,63,0
875520,note_on,0,0,4,,,,,,,,,3,,,60,73
875520,note_on,0,0,1,,,,,,,,,0,,,72,72
875520,note_off,240,0,1,,,,,,,,,0,,,67,0
875760,note_off,240,0,4,,,,,,,,,3,,,60,0
875760,note_on,0,0,4,,,,,,,,,3,,,55,74
875760,note_on,0,0,1,,,,,,,,,0,,,75,73
875760,note_off,240,0,1,,,,,,,,,0,,,72,0
876000,note_off,240,0,1,,,,,,,,,0,,,75,0
876000,note_off,240,0,4,,,,,,,,,3,,,55,0
876000,note_on,0,0,4,,,,,,,,,3,,,60,75
876000,note_on,0,0,1,,,,,,,,,0,,,72,73
876240,note_off,240,0,1,,,,,,,,,0,,,72,0
876240,note_off,240,0,4,,,,,,,,,3,,,60,0
876240,note_on,0,0,4,,,,,,,,,3,,,55,75
876240,note_on,0,0,1,,,,,,,,,0,,,75,73
876360,set_tempo,1320,1,0,,,,,,241935,,,,,,,
876480,note_on,0,0,1,,,,,,,,,0,,,79,58
876480,note_off,240,0,1,,,,,,,,,0,,,75,0
876480,note_off,240,0,4,,,,,,,,,3,,,55,0
876480,note_on,0,0,4,,,,,,,,,3,,,51,71
876720,note_off,240,0,1,,,,,,,,,0,,,79,0
876720,note_on,0,0,1,,,,,,,,,0,,,67,58
876825,set_tempo,465,1,0,,,,,,240000,,,,,,,
876960,note_on,0,0,1,,,,,,,,,0,,,66,58
876960,note_off,480,0,4,,,,,,,,,3,,,51,0
876960,note_off,240,0,1,,,,,,,,,0,,,67,0
877200,note_off,240,0,1,,,,,,,,,0,,,66,0
877200,note_on,0,0,1,,,,,,,,,0,,,67,59
877440,note_off,240,0,1,,,,,,,,,0,,,67,0
877440,note_on,0,0,1,,,,,,,,,0,,,68,59
877680,note_off,240,0,1,,,,,,,,,0,,,68,0
877680,note_on,0,0,1,,,,,,,,,0,,,69,60
877920,note_off,240,0,1,,,,,,,,,0,,,69,0
877920,note_on,0,0,1,,,,,,,,,0,,,70,60
878160,note_on,0,0,1,,,,,,,,,0,,,71,61
878160,note_off,240,0,1,,,,,,,,,0,,,70,0
878400,note_off,240,0,1,,,,,,,,,0,,,71,0
878400,note_on,0,0,1,,,,,,,,,0,,,72,61
878640,note_off,240,0,1,,,,,,,,,0,,,72,0
878640,note_on,0,0,1,,,,,,,,,0,,,73,61
878880,note_off,240,0,1,,,,,,,,,0,,,73,0
878880,note_on,0,0,1,,,,,,,,,0,,,74,62
879120,note_off,240,0,1,,,,,,,,,0,,,74,0
879120,note_on,0,0,1,,,,,,,,,0,,,75,62
879360,note_on,0,0,1,,,,,,,,,0,,,76,63
879360,note_off,240,0,1,,,,,,,,,0,,,75,0
879600,note_on,0,0,1,,,,,,,,,0,,,77,63
879600,note_off,240,0,1,,,,,,,,,0,,,76,0
879840,note_on,0,0,1,,,,,,,,,0,,,78,64
879840,note_off,240,0,1,,,,,,,,,0,,,77,0
880080,note_on,3120,0,4,,,,,,,,,3,,,51,57
880080,note_off,240,0,1,,,,,,,,,0,,,78,0
880080,note_on,0,0,1,,,,,,,,,0,,,79,64
880080,note_on,0,0,4,,,,,,,,,3,,,55,57
880080,note_on,0,0,4,,,,,,,,,3,,,60,57
880320,note_off,240,0,1,,,,,,,,,0,,,79,0
880320,note_on,0,0,1,,,,,,,,,0,,,75,64
880560,note_off,0,0,4,,,,,,,,,3,,,60,0
880560,note_off,480,0,4,,,,,,,,,3,,,55,0
880560,note_off,0,0,4,,,,,,,,,3,,,51,0
880560,note_on,0,0,1,,,,,,,,,0,,,72,65
880560,note_off,240,0,1,,,,,,,,,0,,,75,0
880680,set_tempo,3855,1,0,,,,,,241935,,,,,,,
880800,note_on,0,0,4,,,,,,,,,3,,,62,58
880800,note_on,0,0,4,,,,,,,,,3,,,53,58
880800,note_on,0,0,1,,,,,,,,,0,,,70,65
880800,note_off,240,0,1,,,,,,,,,0,,,72,0
880800,note_on,240,0,4,,,,,,,,,3,,,58,58
881280,note_off,0,0,4,,,,,,,,,3,,,58,0
881280,note_off,480,0,4,,,,,,,,,3,,,62,0
881280,note_off,480,0,1,,,,,,,,,0,,,70,0
881280,note_off,0,0,4,,,,,,,,,3,,,53,0
881520,note_on,0,0,4,,,,,,,,,3,,,57,53
881520,note_on,240,0,4,,,,,,,,,3,,,53,53
881520,note_on,240,0,1,,,,,,,,,0,,,72,52
881520,note_on,0,0,4,,,,,,,,,3,,,63,53
881600,note_on,0,0,1,,,,,,,,,0,,,74,52
881600,note_off,80,0,1,,,,,,,,,0,,,72,0
881680,note_on,0,0,1,,,,,,,,,0,,,72,51
881680,note_off,80,0,1,,,,,,,,,0,,,74,0
881760,note_on,0,0,1,,,,,,,,,0,,,74,50
881760,note_off,80,0,1,,,,,,,,,0,,,72,0
881880,note_off,120,0,1,,,,,,,,,0,,,74,0
881880,note_on,0,0,1,,,,,,,,,0,,,72,49
882000,note_off,480,0,4,,,,,,,,,3,,,63,0
882000,note_on,0,0,1,,,,,,,,,0,,,70,48
882000,note_off,120,0,1,,,,,,,,,0,,,72,0
882000,note_off,0,0,4,,,,,,,,,3,,,57,0
882000,note_off,0,0,4,,,,,,,,,3,,,53,0
882120,note_on,0,0,1,,,,,,,,,0,,,72,47
882120,set_tempo,1440,1,0,,,,,,243902,,,,,,,
882120,note_off,120,0,1,,,,,,,,,0,,,70,0
882240,note_on,240,0,4,,,,,,,,,3,,,46,48
882240,set_tempo,120,1,0,,,,,,241935,,,,,,,
882240,note_on,0,0,1,,,,,,,,,0,,,70,46
882240,note_off,120,0,1,,,,,,,,,0,,,72,0
882396,note_off,156,0,1,,,,,,,,,0,,,70,0
882480,note_on,31920,0,3,,,,,,,,,2,,,53,48
882720,note_off,240,0,3,,,,,,,,,2,,,53,0
882720,note_on,0,0,3,,,,,,,,,2,,,58,48
882720,note_on,324,0,1,,,,,,,,,0,,,70,43
882960,note_on,0,0,1,,,,,,,,,0,,,74,43
882960,note_off,240,0,1,,,,,,,,,0,,,70,0
882960,note_off,240,0,3,,,,,,,,,2,,,58,0
882960,note_on,0,0,3,,,,,,,,,2,,,62,49
883116,note_off,156,0,1,,,,,,,,,0,,,74,0
883200,note_off,240,0,3,,,,,,,,,2,,,62,0
883200,note_on,0,0,3,,,,,,,,,2,,,58,50
883440,note_off,240,0,3,,,,,,,,,2,,,58,0
883440,note_on,324,0,1,,,,,,,,,0,,,74,45
883440,note_on,0,0,3,,,,,,,,,2,,,53,50
883630,note_off,1390,0,4,,,,,,,,,3,,,46,0
883680,note_off,240,0,3,,,,,,,,,2,,,53,0
883680,note_off,240,0,1,,,,,,,,,0,,,74,0
883680,note_on,0,0,1,,,,,,,,,0,,,77,46
883680,note_on,50,0,4,,,,,,,,,3,,,46,51
883836,note_off,156,0,1,,,,,,,,,0,,,77,0
883920,note_on,240,0,3,,,,,,,,,2,,,53,51
884160,note_on,324,0,1,,,,,,,,,0,,,77,47
884160,note_off,240,0,3,,,,,,,,,2,,,53,0
884160,note_on,0,0,3,,,,,,,,,2,,,58,52
884400,note_on,0,0,1,,,,,,,,,0,,,82,48
884400,note_off,240,0,3,,,,,,,,,2,,,58,0
884400,note_on,0,0,3,,,,,,,,,2,,,62,53
884400,note_off,240,0,1,,,,,,,,,0,,,77,0
884556,note_off,156,0,1,,,,,,,,,0,,,82,0
884640,note_off,240,0,3,,,,,,,,,2,,,62,0
884640,note_on,0,0,3,,,,,,,,,2,,,58,53
884880,note_on,324,0,1,,,,,,,,,0,,,82,50
884880,note_off,240,0,3,,,,,,,,,2,,,58,0
884880,note_on,0,0,3,,,,,,,,,2,,,53,54
885070,note_off,1390,0,4,,,,,,,,,3,,,46,0
885120,note_off,240,0,1,,,,,,,,,0,,,82,0
885120,note_on,0,0,1,,,,,,,,,0,,,86,51
885120,note_off,240,0,3,,,,,,,,,2,,,53,0
885120,note_on,50,0,4,,,,,,,,,3,,,46,55
885276,note_off,156,0,1,,,,,,,,,0,,,86,0
885360,note_on,240,0,3,,,,,,,,,2,,,53,55
885600,note_on,0,0,3,,,,,,,,,2,,,58,56
885600,note_off,240,0,3,,,,,,,,,2,,,53,0
885600,note_on,324,0,1,,,,,,,,,0,,,86,52
885840,note_on,0,0,3,,,,,,,,,2,,,62,56
885840,note_off,240,0,3,,,,,,,,,2,,,58,0
885840,note_off,240,0,1,,,,,,,,,0,,,86,0
885840,note_on,0,0,1,,,,,,,,,0,,,89,53
885996,note_off,156,0,1,,,,,,,,,0,,,89,0
886080,note_on,0,0,3,,,,,,,,,2,,,58,57
886080,note_off,240,0,3,,,,,,,,,2,,,62,0
886320,note_off,240,0,3,,,,,,,,,2,,,58,0
886320,note_on,324,0,1,,,,,,,,,0,,,82,55
886320,note_on,0,0,3,,,,,,,,,2,,,53,58
886510,note_off,1390,0,4,,,,,,,,,3,,,46,0
886560,note_on,0,0,1,,,,,,,,,0,,,86,55
886560,note_off,240,0,3,,,,,,,,,2,,,53,0
886560,note_off,240,0,1,,,,,,,,,0,,,82,0
886560,note_on,50,0,4,,,,,,,,,3,,,46,59
886716,note_off,156,0,1,,,,,,,,,0,,,86,0
886800,note_on,240,0,3,,,,,,,,,2,,,53,59
887040,note_off,240,0,3,,,,,,,,,2,,,53,0
887040,note_on,0,0,3,,,,,,,,,2,,,58,60
887040,note_on,324,0,1,,,,,,,,,0,,,77,57
887280,note_on,0,0,1,,,,,,,,,0,,,82,58
887280,note_off,240,0,1,,,,,,,,,0,,,77,0
887280,note_off,240,0,3,,,,,,,,,2,,,58,0
887280,note_on,0,0,3,,,,,,,,,2,,,62,60
887436,note_off,156,0,1,,,,,,,,,0,,,82,0
887520,note_on,0,0,3,,,,,,,,,2,,,58,61
887520,note_off,240,0,3,,,,,,,,,2,,,62,0
887760,note_on,0,0,3,,,,,,,,,2,,,53,61
887760,note_off,240,0,3,,,,,,,,,2,,,58,0
887760,note_on,324,0,1,,,,,,,,,0,,,74,59
887950,note_off,1390,0,4,,,,,,,,,3,,,46,0
888000,note_on,50,0,4,,,,,,,,,3,,,46,62
888000,note_off,240,0,1,,,,,,,,,0,,,74,0
888000,note_on,0,0,1,,,,,,,,,0,,,77,60
888000,note_off,240,0,3,,,,,,,,,2,,,53,0
888156,note_off,156,0,1,,,,,,,,,0,,,77,0
888240,note_on,240,0,3,,,,,,,,,2,,,53,63
888480,note_on,324,0,1,,,,,,,,,0,,,70,62
888480,note_on,0,0,3,,,,,,,,,2,,,58,63
888480,note_off,240,0,3,,,,,,,,,2,,,53,0
888720,note_off,240,0,3,,,,,,,,,2,,,58,0
888720,note_on,0,0,3,,,,,,,,,2,,,62,64
888720,note_off,240,0,1,,,,,,,,,0,,,70,0
888720,note_on,0,0,1,,,,,,,,,0,,,74,63
888876,note_off,156,0,1,,,,,,,,,0,,,74,0
888960,note_off,240,0,3,,,,,,,,,2,,,62,0
888960,note_on,0,0,3,,,,,,,,,2,,,58,65
889200,note_on,324,0,1,,,,,,,,,0,,,72,62
889200,note_off,240,0,3,,,,,,,,,2,,,58,0
889200,note_on,0,0,3,,,,,,,,,2,,,53,65
889390,note_off,1390,0,4,,,,,,,,,3,,,46,0
889440,note_off,240,0,1,,,,,,,,,0,,,72,0
889440,note_on,50,0,4,,,,,,,,,3,,,41,57
889440,note_off,240,0,3,,,,,,,,,2,,,53,0
889440,note_on,0,0,1,,,,,,,,,0,,,75,60
889596,note_off,156,0,1,,,,,,,,,0,,,75,0
889680,note_on,240,0,3,,,,,,,,,2,,,53,60
889920,note_off,240,0,3,,,,,,,,,2,,,53,0
889920,note_on,324,0,1,,,,,,,,,0,,,69,58
889920,note_on,0,0,3,,,,,,,,,2,,,57,59
890160,note_on,0,0,3,,,,,,,,,2,,,60,58
890160,note_off,240,0,3,,,,,,,,,2,,,57,0
890160,note_on,0,0,1,,,,,,,,,0,,,72,57
890160,note_off,240,0,1,,,,,,,,,0,,,69,0
890316,note_off,156,0,1,,,,,,,,,0,,,72,0
890400,note_off,240,0,3,,,,,,,,,2,,,60,0
890400,note_on,0,0,3,,,,,,,,,2,,,57,57
890640,note_on,0,0,3,,,,,,,,,2,,,53,56
890640,note_off,240,0,3,,,,,,,,,2,,,57,0
890640,note_on,324,0,1,,,,,,,,,0,,,69,55
890760,set_tempo,8520,1,0,,,,,,243902,,,,,,,
890830,note_off,1390,0,4,,,,,,,,,3,,,41,0
890880,note_off,240,0,1,,,,,,,,,0,,,69,0
890880,note_on,0,0,1,,,,,,,,,0,,,70,54
890880,note_off,240,0,3,,,,,,,,,2,,,53,0
890880,note_on,50,0,4,,,,,,,,,3,,,46,54
890880,set_tempo,120,1,0,,,,,,241935,,,,,,,
891036,note_off,156,0,1,,,,,,,,,0,,,70,0
891120,note_on,240,0,3,,,,,,,,,2,,,53,57
891360,note_off,240,0,3,,,,,,,,,2,,,53,0
891360,note_on,324,0,1,,,,,,,,,0,,,70,57
891360,note_on,0,0,3,,,,,,,,,2,,,58,57
891600,note_on,0,0,1,,,,,,,,,0,,,74,58
891600,note_off,240,0,1,,,,,,,,,0,,,70,0
891600,note_off,240,0,3,,,,,,,,,2,,,58,0
891600,note_on,0,0,3,,,,,,,,,2,,,62,58
891756,note_off,156,0,1,,,,,,,,,0,,,74,0
891840,note_off,240,0,3,,,,,,,,,2,,,62,0
891840,note_on,0,0,3,,,,,,,,,2,,,58,59
892080,note_on,324,0,1,,,,,,,,,0,,,74,59
892080,note_off,240,0,3,,,,,,,,,2,,,58,0
892080,note_on,0,0,3,,,,,,,,,2,,,53,60
892270,note_off,1390,0,4,,,,,,,,,3,,,46,0
892320,note_off,240,0,3,,,,,,,,,2,,,53,0
892320,note_on,0,0,1,,,,,,,,,0,,,77,60
892320,note_off,240,0,1,,,,,,,,,0,,,74,0
892320,note_on,50,0,4,,,,,,,,,3,,,46,58
892476,note_off,156,0,1,,,,,,,,,0,,,77,0
892560,note_on,240,0,3,,,,,,,,,2,,,53,61
892800,note_off,240,0,3,,,,,,,,,2,,,53,0
892800,note_on,324,0,1,,,,,,,,,0,,,77,61
892800,note_on,0,0,3,,,,,,,,,2,,,58,62
893040,note_on,0,0,3,,,,,,,,,2,,,62,62
893040,note_on,0,0,1,,,,,,,,,0,,,82,62
893040,note_off,240,0,1,,,,,,,,,0,,,77,0
893040,note_off,240,0,3,,,,,,,,,2,,,58,0
893196,note_off,156,0,1,,,,,,,,,0,,,82,0
893280,note_off,240,0,3,,,,,,,,,2,,,62,0
893280,note_on,0,0,3,,,,,,,,,2,,,58,63
893520,note_on,0,0,3,,,,,,,,,2,,,53,64
893520,note_off,240,0,3,,,,,,,,,2,,,58,0
893520,note_on,324,0,1,,,,,,,,,0,,,82,63
893710,note_off,1390,0,4,,,,,,,,,3,,,46,0
893760,note_on,0,0,1,,,,,,,,,0,,,86,64
893760,note_off,240,0,1,,,,,,,,,0,,,82,0
893760,note_off,240,0,3,,,,,,,,,2,,,53,0
893760,note_on,50,0,4,,,,,,,,,3,,,46,62
893916,note_off,156,0,1,,,,,,,,,0,,,86,0
894000,note_on,240,0,3,,,,,,,,,2,,,53,65
894240,note_on,324,0,1,,,,,,,,,0,,,86,65
894240,note_on,0,0,3,,,,,,,,,2,,,58,66
894240,note_off,240,0,3,,,,,,,,,2,,,53,0
894480,note_on,0,0,3,,,,,,,,,2,,,62,67
894480,note_off,240,0,1,,,,,,,,,0,,,86,0
894480,note_on,0,0,1,,,,,,,,,0,,,89,66
894480,note_off,240,0,3,,,,,,,,,2,,,58,0
894636,note_off,156,0,1,,,,,,,,,0,,,89,0
894720,note_off,240,0,3,,,,,,,,,2,,,62,0
894720,note_on,0,0,3,,,,,,,,,2,,,58,67
894960,note_on,324,0,1,,,,,,,,,0,,,82,67
894960,note_off,240,0,3,,,,,,,,,2,,,58,0
894960,note_on,0,0,3,,,,,,,,,2,,,53,68
895150,note_off,1390,0,4,,,,,,,,,3,,,46,0
895200,note_on,0,0,1,,,,,,,,,0,,,86,68
895200,note_off,240,0,1,,,,,,,,,0,,,82,0
895200,note_off,240,0,3,,,,,,,,,2,,,53,0
895200,note_on,50,0,4,,,,,,,,,3,,,46,65
895356,note_off,156,0,1,,,,,,,,,0,,,86,0
895440,note_on,240,0,3,,,,,,,,,2,,,53,70
895680,note_on,324,0,1,,,,,,,,,0,,,77,69
895680,note_off,240,0,3,,,,,,,,,2,,,53,0
895680,note_on,0,0,3,,,,,,,,,2,,,58,70
895920,note_on,0,0,1,,,,,,,,,0,,,82,70
895920,note_off,240,0,1,,,,,,,,,0,,,77,0
895920,note_on,0,0,3,,,,,,,,,2,,,62,71
895920,note_off,240,0,3,,,,,,,,,2,,,58,0
896076,note_off,156,0,1,,,,,,,,,0,,,82,0
896160,note_on,0,0,3,,,,,,,,,2,,,58,72
896160,note_off,240,0,3,,,,,,,,,2,,,62,0
896400,note_on,324,0,1,,,,,,,,,0,,,74,71
896400,note_on,0,0,3,,,,,,,,,2,,,53,73
896400,note_off,240,0,3,,,,,,,,,2,,,58,0
896590,note_off,1390,0,4,,,,,,,,,3,,,46,0
896640,note_off,240,0,3,,,,,,,,,2,,,53,0
896640,note_on,0,0,1,,,,,,,,,0,,,77,72
896640,note_on,50,0,4,,,,,,,,,3,,,46,69
896640,note_off,240,0,1,,,,,,,,,0,,,74,0
896796,note_off,156,0,1,,,,,,,,,0,,,77,0
896880,note_on,240,0,3,,,,,,,,,2,,,53,74
897120,note_on,324,0,1,,,,,,,,,0,,,70,73
897120,note_off,240,0,3,,,,,,,,,2,,,53,0
897120,note_on,0,0,3,,,,,,,,,2,,,58,75
897360,note_off,240,0,1,,,,,,,,,0,,,70,0
897360,note_on,0,0,1,,,,,,,,,0,,,74,74
897360,note_on,0,0,3,,,,,,,,,2,,,62,75
897360,note_off,240,0,3,,,,,,,,,2,,,58,0
897516,note_off,156,0,1,,,,,,,,,0,,,74,0
897600,note_off,240,0,3,,,,,,,,,2,,,62,0
897600,note_on,0,0,3,,,,,,,,,2,,,58,76
897840,note_off,240,0,3,,,,,,,,,2,,,58,0
897840,note_on,0,0,3,,,,,,,,,2,,,53,77
897840,note_on,324,0,1,,,,,,,,,0,,,65,75
898030,note_off,1390,0,4,,,,,,,,,3,,,46,0
898080,note_off,240,0,1,,,,,,,,,0,,,65,0
898080,note_on,50,0,4,,,,,,,,,3,,,46,73
898080,note_off,240,0,3,,,,,,,,,2,,,53,0
898080,note_on,0,0,1,,,,,,,,,0,,,70,76
898236,note_off,156,0,1,,,,,,,,,0,,,70,0
898320,note_on,240,0,3,,,,,,,,,2,,,50,78
898560,note_on,324,0,1,,,,,,,,,0,,,62,77
898560,note_off,240,0,3,,,,,,,,,2,,,50,0
898560,note_on,0,0,3,,,,,,,,,2,,,53,79
898800,note_on,0,0,1,,,,,,,,,0,,,65,78
898800,note_off,240,0,3,,,,,,,,,2,,,53,0
898800,note_on,0,0,3,,,,,,,,,2,,,58,80
898800,note_off,240,0,1,,,,,,,,,0,,,62,0
898956,note_off,156,0,1,,,,,,,,,0,,,65,0
899040,note_off,240,0,3,,,,,,,,,2,,,58,0
899040,note_on,0,0,3,,,,,,,,,2,,,53,80
899280,note_off,240,0,3,,,,,,,,,2,,,53,0
899280,note_on,324,0,1,,,,,,,,,0,,,58,79
899280,note_on,0,0,3,,,,,,,,,2,,,50,81
899400,set_tempo,8520,1,0,,,,,,243902,,,,,,,
899436,note_off,156,0,1,,,,,,,,,0,,,58,0
899447,note_off,1367,0,4,,,,,,,,,3,,,46,0
899520,note_on,73,0,4,,,,,,,,,3,,,46,77
899520,note_on,84,0,1,,,,,,,,,0,,,62,80
899520,note_off,240,0,3,,,,,,,,,2,,,50,0
899676,note_off,156,0,1,,,,,,,,,0,,,62,0
900000,note_off,480,0,4,,,,,,,,,3,,,46,0
900000,note_on,324,0,1,,,,,,,,,0,,,53,81
900240,note_on,240,0,4,,,,,,,,,3,,,34,79
900240,note_off,240,0,1,,,,,,,,,0,,,53,0
900240,note_on,0,0,1,,,,,,,,,0,,,58,82
900396,note_off,156,0,1,,,,,,,,,0,,,58,0
900720,note_off,480,0,4,,,,,,,,,3,,,34,0
900720,note_on,324,0,1,,,,,,,,,0,,,50,83
900840,set_tempo,1440,1,0,,,,,,244897,,,,,,,
900960,note_on,0,0,1,,,,,,,,,0,,,53,84
900960,note_on,240,0,4,,,,,,,,,3,,,34,81
900960,note_off,240,0,1,,,,,,,,,0,,,50,0
901116,note_off,156,0,1,,,,,,,,,0,,,53,0
901440,note_on,324,0,1,,,,,,,,,0,,,52,85
901440,note_off,480,0,4,,,,,,,,,3,,,34,0
901680,note_on,0,0,1,,,,,,,,,0,,,55,86
901680,note_on,240,0,4,,,,,,,,,3,,,34,83
901680,note_off,240,0,1,,,,,,,,,0,,,52,0
901836,note_off,156,0,1,,,,,,,,,0,,,55,0
901935,set_tempo,1095,1,0,,,,,,246913,,,,,,,
902160,set_tempo,225,1,0,,,,,,251046,,,,,,,
902160,note_off,480,0,4,,,,,,,,,3,,,34,0
902160,note_on,324,0,1,,,,,,,,,0,,,53,87
902400,note_on,240,0,4,,,,,,,,,3,,,34,96
902400,note_on,0,0,2,,,,,,,,,1,,,53,94
902400,set_tempo,240,1,0,,,,,,500000,,,,,,,
902400,note_off,240,0,1,,,,,,,,,0,,,53,0
902400,note_on,0,0,1,,,,,,,,,0,,,56,94
902400,note_on,51360,0,2,,,,,,,,,1,,,50,94
905160,set_tempo,2760,1,0,,,,,,244897,,,,,,,
905250,note_off,2850,0,1,,,,,,,,,0,,,56,0
905250,note_off,0,0,2,,,,,,,,,1,,,50,0
905250,note_off,2850,0,2,,,,,,,,,1,,,53,0
905280,note_off,2880,0,4,,,,,,,,,3,,,34,0
905760,note_on,510,0,1,,,,,,,,,0,,,53,88
906000,note_off,240,0,1,,,,,,,,,0,,,53,0
906000,note_on,0,0,1,,,,,,,,,0,,,56,89
906000,note_on,720,0,4,,,,,,,,,3,,,37,84
906156,note_off,156,0,1,,,,,,,,,0,,,56,0
906480,note_on,324,0,1,,,,,,,,,0,,,53,91
906480,note_off,480,0,4,,,,,,,,,3,,,37,0
906600,set_tempo,1440,1,0,,,,,,246913,,,,,,,
906720,note_on,0,0,1,,,,,,,,,0,,,56,91
906720,note_off,240,0,1,,,,,,,,,0,,,53,0
906720,note_on,240,0,4,,,,,,,,,3,,,37,86
906876,note_off,156,0,1,,,,,,,,,0,,,56,0
907200,note_off,480,0,4,,,,,,,,,3,,,37,0
907200,note_on,324,0,1,,,,,,,,,0,,,54,93
907440,note_on,0,0,1,,,,,,,,,0,,,58,93
907440,note_off,240,0,1,,,,,,,,,0,,,54,0
907440,note_on,240,0,4,,,,,,,,,3,,,37,91
907596,note_off,156,0,1,,,,,,,,,0,,,58,0
907695,set_tempo,1095,1,0,,,,,,251046,,,,,,,
907920,note_off,480,0,4,,,,,,,,,3,,,37,0
907920,set_tempo,225,1,0,,,,,,254237,,,,,,,
907920,note_on,324,0,1,,,,,,,,,0,,,56,95
908160,set_tempo,240,1,0,,,,,,540540,,,,,,,
908160,note_on,240,0,4,,,,,,,,,3,,,37,98
908160,note_on,2910,0,2,,,,,,,,,1,,,53,102
908160,note_on,240,0,1,,,,,,,,,0,,,59,102
910980,note_off,2820,0,4,,,,,,,,,3,,,37,0
911010,note_off,2850,0,1,,,,,,,,,0,,,59,0
911010,note_off,2850,0,2,,,,,,,,,1,,,53,0
911040,note_off,30,0,1,,,,,,,,,0,,,56,0
911760,note_on,720,0,1,,,,,,,,,0,,,61,46
911760,set_tempo,3600,1,0,,,,,,241935,,,,,,,
911916,note_off,156,0,1,,,,,,,,,0,,,61,0
912240,note_on,324,0,1,,,,,,,,,0,,,61,47
912360,set_tempo,600,1,0,,,,,,243902,,,,,,,
912480,note_on,1470,0,2,,,,,,,,,1,,,58,56
912480,note_on,0,0,1,,,,,,,,,0,,,66,56
912480,note_off,240,0,1,,,,,,,,,0,,,61,0
912480,control_change,12960,0,3,,,,,,,10,73,2,,,,
912480,note_on,1500,0,4,,,,,,,,,3,,,54,56
912480,note_on,0,0,4,,,,,,,,,3,,,42,56
912480,set_tempo,120,1,0,,,,,,241935,,,,,,,
912720,note_off,240,0,1,,,,,,,,,0,,,66,0
912720,note_off,240,0,2,,,,,,,,,1,,,58,0
913200,note_on,480,0,1,,,,,,,,,0,,,61,48
913200,note_on,720,0,3,,,,,,,,,2,,,73,49
913356,note_off,156,0,1,,,,,,,,,0,,,61,0
913680,note_on,324,0,1,,,,,,,,,0,,,61,49
913920,note_on,1200,0,2,,,,,,,,,1,,,58,49
913920,note_on,0,0,1,,,,,,,,,0,,,66,49
913920,note_off,240,0,1,,,,,,,,,0,,,61,0
914160,note_off,240,0,2,,,,,,,,,1,,,58,0
914160,note_off,240,0,1,,,,,,,,,0,,,66,0
914576,note_off,1376,0,3,,,,,,,,,2,,,73,0
914640,note_on,64,0,3,,,,,,,,,2,,,73,51
914640,note_on,480,0,1,,,,,,,,,0,,,61,50
914796,note_off,156,0,1,,,,,,,,,0,,,61,0
915120,note_on,324,0,1,,,,,,,,,0,,,61,50
915360,note_on,1200,0,2,,,,,,,,,1,,,58,51
915360,note_off,240,0,1,,,,,,,,,0,,,61,0
915360,note_on,0,0,1,,,,,,,,,0,,,66,51
915600,note_off,240,0,1,,,,,,,,,0,,,66,0
915600,note_off,240,0,2,,,,,,,,,1,,,58,0
916016,note_off,1376,0,3,,,,,,,,,2,,,73,0
916080,note_on,64,0,3,,,,,,,,,2,,,73,52
916080,note_on,480,0,1,,,,,,,,,0,,,61,52
916236,note_off,156,0,1,,,,,,,,,0,,,61,0
916560,note_on,324,0,1,,,,,,,,,0,,,61,52
916752,note_off,672,0,3,,,,,,,,,2,,,73,0
916800,note_on,48,0,3,,,,,,,,,2,,,73,52
916800,note_off,240,0,1,,,,,,,,,0,,,61,0
916800,note_on,1200,0,2,,,,,,,,,1,,,65,54
916800,note_on,0,0,1,,,,,,,,,0,,,68,54
917040,note_off,240,0,2,,,,,,,,,1,,,65,0
917040,note_off,240,0,1,,,,,,,,,0,,,68,0
917265,note_off,4785,0,4,,,,,,,,,3,,,54,0
917280,note_on,240,0,2,,,,,,,,,1,,,65,53
917280,note_off,480,0,3,,,,,,,,,2,,,73,0
917280,note_on,240,0,1,,,,,,,,,0,,,68,53
917310,note_off,45,0,4,,,,,,,,,3,,,42,0
917520,note_off,240,0,2,,,,,,,,,1,,,65,0
917520,note_on,0,0,1,,,,,,,,,0,,,61,54
917520,note_off,240,0,1,,,,,,,,,0,,,68,0
917676,note_off,156,0,1,,,,,,,,,0,,,61,0
918000,note_on,324,0,1,,,,,,,,,0,,,61,54
918120,set_tempo,5640,1,0,,,,,,243902,,,,,,,
918240,set_tempo,120,1,0,,,,,,241935,,,,,,,
918240,note_on,0,0,1,,,,,,,,,0,,,68,67
918240,note_off,240,0,1,,,,,,,,,0,,,61,0
918240,note_on,930,0,4,,,,,,,,,3,,,37,64
918240,note_on,720,0,2,,,,,,,,,1,,,65,67
918240,note_on,0,0,4,,,,,,,,,3,,,49,64
918480,note_off,240,0,1,,,,,,,,,0,,,68,0
918480,note_off,240,0,2,,,,,,,,,1,,,65,0
918720,note_on,240,0,1,,,,,,,,,0,,,68,55
918720,note_on,240,0,2,,,,,,,,,1,,,65,55
918960,note_off,240,0,1,,,,,,,,,0,,,68,0
918960,note_on,0,0,1,,,,,,,,,0,,,61,56
918960,note_off,240,0,2,,,,,,,,,1,,,65,0
918960,note_on,1680,0,3,,,,,,,,,2,,,73,54
919116,note_off,156,0,1,,,,,,,,,0,,,61,0
919440,note_on,324,0,1,,,,,,,,,0,,,61,56
919680,note_on,720,0,2,,,,,,,,,1,,,65,57
919680,note_on,0,0,1,,,,,,,,,0,,,68,57
919680,note_off,240,0,1,,,,,,,,,0,,,61,0
919920,note_off,240,0,2,,,,,,,,,1,,,65,0
919920,note_off,240,0,1,,,,,,,,,0,,,68,0
920160,note_on,240,0,2,,,,,,,,,1,,,65,57
920160,note_on,240,0,1,,,,,,,,,0,,,68,57
920336,note_off,1376,0,3,,,,,,,,,2,,,73,0
920400,note_on,0,0,1,,,,,,,,,0,,,61,57
920400,note_on,64,0,3,,,,,,,,,2,,,73,56
920400,note_off,240,0,1,,,,,,,,,0,,,68,0
920400,note_off,240,0,2,,,,,,,,,1,,,65,0
920556,note_off,156,0,1,,,,,,,,,0,,,61,0
920880,note_on,324,0,1,,,,,,,,,0,,,61,58
921120,note_off,240,0,1,,,,,,,,,0,,,61,0
921120,note_on,0,0,1,,,,,,,,,0,,,68,58
921120,note_on,720,0,2,,,,,,,,,1,,,65,58
921360,note_off,240,0,1,,,,,,,,,0,,,68,0
921360,note_off,240,0,2,,,,,,,,,1,,,65,0
921600,note_on,240,0,1,,,,,,,,,0,,,68,59
921600,note_on,240,0,2,,,,,,,,,1,,,65,59
921776,note_off,1376,0,3,,,,,,,,,2,,,73,0
921840,note_on,64,0,3,,,,,,,,,2,,,73,57
921840,note_off,240,0,2,,,,,,,,,1,,,65,0
921840,note_off,240,0,1,,,,,,,,,0,,,68,0
921840,note_on,0,0,1,,,,,,,,,0,,,61,59
921996,note_off,156,0,1,,,,,,,,,0,,,61,0
922320,note_on,324,0,1,,,,,,,,,0,,,61,62
922512,note_off,672,0,3,,,,,,,,,2,,,73,0
922560,note_on,48,0,3,,,,,,,,,2,,,73,58
922560,note_on,0,0,1,,,,,,,,,0,,,70,62
922560,note_on,720,0,2,,,,,,,,,1,,,66,62
922560,note_off,240,0,1,,,,,,,,,0,,,61,0
923040,note_off,480,0,2,,,,,,,,,1,,,66,0
923040,note_off,480,0,3,,,,,,,,,2,,,73,0
923040,note_off,480,0,1,,,,,,,,,0,,,70,0
923055,note_off,0,0,4,,,,,,,,,3,,,37,0
923055,note_off,4815,0,4,,,,,,,,,3,,,49,0
923280,note_on,240,0,1,,,,,,,,,0,,,73,64
923280,note_on,225,0,4,,,,,,,,,3,,,37,60
923760,note_off,480,0,4,,,,,,,,,3,,,37,0
923760,note_on,0,0,4,,,,,,,,,3,,,37,62
923760,note_off,480,0,1,,,,,,,,,0,,,73,0
923760,note_on,0,0,1,,,,,,,,,0,,,73,66
923880,set_tempo,5640,1,0,,,,,,243902,,,,,,,
924000,note_on,0,0,4,,,,,,,,,3,,,30,73
924000,note_on,960,0,2,,,,,,,,,1,,,66,76
924000,note_off,240,0,4,,,,,,,,,3,,,37,0
924000,set_tempo,120,1,0,,,,,,240000,,,,,,,
924000,note_off,240,0,1,,,,,,,,,0,,,73,0
924000,note_on,0,0,1,,,,,,,,,0,,,78,76
924000,control_change,960,0,3,,,,,,,10,64,2,,,,
924000,note_on,0,0,4,,,,,,,,,3,,,42,73
924480,note_off,0,0,4,,,,,,,,,3,,,42,0
924480,note_off,480,0,4,,,,,,,,,3,,,30,0
924480,note_on,0,0,4,,,,,,,,,3,,,42,64
924480,note_on,0,0,1,,,,,,,,,0,,,78,68
924480,note_off,480,0,1,,,,,,,,,0,,,78,0
924528,note_off,528,0,2,,,,,,,,,1,,,66,0
924720,note_on,0,0,1,,,,,,,,,0,,,73,68
924720,note_off,240,0,1,,,,,,,,,0,,,78,0
924720,note_off,240,0,4,,,,,,,,,3,,,42,0
924720,note_on,0,0,4,,,,,,,,,3,,,37,65
925200,note_on,0,0,1,,,,,,,,,0,,,73,70
925200,note_off,480,0,1,,,,,,,,,0,,,73,0
925200,note_on,0,0,4,,,,,,,,,3,,,37,66
925200,note_off,480,0,4,,,,,,,,,3,,,37,0
925440,note_on,912,0,2,,,,,,,,,1,,,66,80
925440,note_on,0,0,1,,,,,,,,,0,,,78,80
925440,note_off,240,0,1,,,,,,,,,0,,,73,0
925440,note_off,240,0,4,,,,,,,,,3,,,37,0
925440,note_on,0,0,4,,,,,,,,,3,,,30,76
925440,note_on,0,0,4,,,,,,,,,3,,,42,76
925920,note_on,0,0,1,,,,,,,,,0,,,78,71
925920,note_off,480,0,1,,,,,,,,,0,,,78,0
925920,note_off,480,0,4,,,,,,,,,3,,,42,0
925920,note_off,0,0,4,,,,,,,,,3,,,30,0
925920,note_on,0,0,4,,,,,,,,,3,,,42,69
925968,note_off,528,0,2,,,,,,,,,1,,,66,0
926160,note_on,0,0,1,,,,,,,,,0,,,73,72
926160,note_off,240,0,4,,,,,,,,,3,,,42,0
926160,note_on,0,0,4,,,,,,,,,3,,,37,70
926160,note_off,240,0,1,,,,,,,,,0,,,78,0
926640,note_off,480,0,1,,,,,,,,,0,,,73,0
926640,note_off,480,0,4,,,,,,,,,3,,,37,0
926640,note_on,0,0,4,,,,,,,,,3,,,37,71
926640,note_on,0,0,1,,,,,,,,,0,,,73,73
926880,note_off,240,0,4,,,,,,,,,3,,,37,0
926880,note_off,240,0,1,,,,,,,,,0,,,73,0
926880,note_on,0,0,4,,,,,,,,,3,,,30,81
926880,note_on,0,0,4,,,,,,,,,3,,,42,81
926880,note_on,0,0,1,,,,,,,,,0,,,78,84
926880,note_on,912,0,2,,,,,,,,,1,,,66,84
927360,note_off,480,0,4,,,,,,,,,3,,,42,0
927360,note_off,0,0,4,,,,,,,,,3,,,30,0
927360,note_on,0,0,4,,,,,,,,,3,,,42,72
927360,note_off,480,0,1,,,,,,,,,0,,,78,0
927360,note_on,0,0,1,,,,,,,,,0,,,78,75
927408,note_off,528,0,2,,,,,,,,,1,,,66,0
927600,note_off,240,0,4,,,,,,,,,3,,,42,0
927600,note_on,0,0,4,,,,,,,,,3,,,37,73
927600,note_on,0,0,1,,,,,,,,,0,,,73,76
927600,note_off,240,0,1,,,,,,,,,0,,,78,0
928080,note_on,0,0,1,,,,,,,,,0,,,73,78
928080,note_off,480,0,4,,,,,,,,,3,,,37,0
928080,note_off,480,0,1,,,,,,,,,0,,,73,0
928080,note_on,0,0,4,,,,,,,,,3,,,37,77
928320,note_on,912,0,2,,,,,,,,,1,,,66,81
928320,note_on,0,0,4,,,,,,,,,3,,,30,78
928320,note_on,0,0,4,,,,,,,,,3,,,42,78
928320,note_off,240,0,4,,,,,,,,,3,,,37,0
928320,note_off,240,0,1,,,,,,,,,0,,,73,0
928320,note_on,0,0,1,,,,,,,,,0,,,78,81
928800,note_off,480,0,4,,,,,,,,,3,,,42,0
928800,note_on,0,0,4,,,,,,,,,3,,,46,82
928800,note_off,0,0,4,,,,,,,,,3,,,30,0
928800,note_on,0,0,1,,,,,,,,,0,,,82,85
928800,note_off,480,0,1,,,,,,,,,0,,,78,0
928848,note_off,528,0,2,,,,,,,,,1,,,66,0
929040,note_off,240,0,4,,,,,,,,,3,,,46,0
929040,note_on,0,0,4,,,,,,,,,3,,,49,84
929040,note_off,240,0,1,,,,,,,,,0,,,82,0
929040,note_on,0,0,1,,,,,,,,,0,,,85,88
929520,note_on,0,0,1,,,,,,,,,0,,,78,92
929520,note_on,0,0,4,,,,,,,,,3,,,42,89
929520,note_off,480,0,4,,,,,,,,,3,,,49,0
929520,note_off,480,0,1,,,,,,,,,0,,,85,0
929640,set_tempo,5640,1,0,,,,,,241935,,,,,,,
929760,note_off,240,0,1,,,,,,,,,0,,,78,0
929760,note_on,912,0,2,,,,,,,,,1,,,74,99
929760,note_on,0,0,4,,,,,,,,,3,,,35,92
929760,set_tempo,120,1,0,,,,,,240000,,,,,,,
929760,note_on,0,0,1,,,,,,,,,0,,,86,99
929760,note_off,240,0,4,,,,,,,,,3,,,42,0
930000,note_on,6000,0,3,,,,,,,,,2,,,38,78
930240,note_off,240,0,3,,,,,,,,,2,,,38,0
930240,note_on,0,0,3,,,,,,,,,2,,,42,77
930480,note_off,240,0,3,,,,,,,,,2,,,42,0
930480,note_on,0,0,3,,,,,,,,,2,,,47,76
930720,note_off,240,0,3,,,,,,,,,2,,,47,0
930720,note_on,0,0,3,,,,,,,,,2,,,38,75
930960,note_off,240,0,3,,,,,,,,,2,,,38,0
930960,note_on,0,0,3,,,,,,,,,2,,,42,75
931150,note_off,1390,0,4,,,,,,,,,3,,,35,0
931200,note_off,1440,0,2,,,,,,,,,1,,,74,0
931200,note_on,50,0,4,,,,,,,,,3,,,35,82
931200,note_on,0,0,1,,,,,,,,,0,,,83,87
931200,note_off,1440,0,1,,,,,,,,,0,,,86,0
931200,note_off,240,0,3,,,,,,,,,2,,,42,0
931200,note_on,0,0,2,,,,,,,,,1,,,71,87
931440,note_on,240,0,3,,,,,,,,,2,,,38,73
931680,note_off,240,0,3,,,,,,,,,2,,,38,0
931680,note_off,480,0,2,,,,,,,,,1,,,71,0
931680,note_on,0,0,3,,,,,,,,,2,,,42,73
931680,note_off,480,0,1,,,,,,,,,0,,,83,0
931920,note_on,0,0,3,,,,,,,,,2,,,47,72
931920,note_off,240,0,3,,,,,,,,,2,,,42,0
931920,note_on,240,0,1,,,,,,,,,0,,,78,84
931920,note_on,240,0,2,,,,,,,,,1,,,66,84
932160,note_on,0,0,3,,,,,,,,,2,,,38,71
932160,note_off,240,0,3,,,,,,,,,2,,,47,0
932400,note_on,0,0,3,,,,,,,,,2,,,42,71
932400,note_off,240,0,3,,,,,,,,,2,,,38,0
932400,note_off,480,0,2,,,,,,,,,1,,,66,0
932400,note_off,480,0,1,,,,,,,,,0,,,78,0
932590,note_off,1390,0,4,,,,,,,,,3,,,35,0
932640,note_on,240,0,2,,,,,,,,,1,,,62,81
932640,note_on,50,0,4,,,,,,,,,3,,,35,77
932640,note_off,240,0,3,,,,,,,,,2,,,42,0
932640,note_on,240,0,1,,,,,,,,,0,,,74,81
932880,note_on,240,0,3,,,,,,,,,2,,,38,69
933120,note_off,480,0,2,,,,,,,,,1,,,62,0
933120,note_off,240,0,3,,,,,,,,,2,,,38,0
933120,note_on,0,0,3,,,,,,,,,2,,,42,69
933120,note_off,480,0,1,,,,,,,,,0,,,74,0
933360,note_on,240,0,2,,,,,,,,,1,,,59,78
933360,note_on,240,0,1,,,,,,,,,0,,,71,78
933360,note_off,240,0,3,,,,,,,,,2,,,42,0
933360,note_on,0,0,3,,,,,,,,,2,,,47,68
933600,note_off,240,0,3,,,,,,,,,2,,,47,0
933600,note_on,0,0,3,,,,,,,,,2,,,38,67
933840,note_off,480,0,1,,,,,,,,,0,,,71,0
933840,note_off,240,0,3,,,,,,,,,2,,,38,0
933840,note_on,0,0,3,,,,,,,,,2,,,42,67
933840,note_off,480,0,2,,,,,,,,,1,,,59,0
934030,note_off,1390,0,4,,,,,,,,,3,,,35,0
934080,note_on,50,0,4,,,,,,,,,3,,,35,73
934080,note_on,240,0,1,,,,,,,,,0,,,66,75
934080,note_on,240,0,2,,,,,,,,,1,,,54,75
934080,note_off,240,0,3,,,,,,,,,2,,,42,0
934320,note_on,240,0,3,,,,,,,,,2,,,38,65
934560,note_off,240,0,3,,,,,,,,,2,,,38,0
934560,note_on,0,0,3,,,,,,,,,2,,,42,65
934560,note_off,480,0,1,,,,,,,,,0,,,66,0
934560,note_off,480,0,2,,,,,,,,,1,,,54,0
934800,note_off,240,0,3,,,,,,,,,2,,,42,0
934800,note_on,0,0,3,,,,,,,,,2,,,47,64
934800,note_on,240,0,1,,,,,,,,,0,,,62,72
934800,note_on,240,0,2,,,,,,,,,1,,,50,72
935010,note_off,930,0,4,,,,,,,,,3,,,35,0
935040,note_on,30,0,4,,,,,,,,,3,,,35,70
935040,note_off,240,0,3,,,,,,,,,2,,,47,0
935280,note_off,480,0,2,,,,,,,,,1,,,50,0
935280,note_off,480,0,1,,,,,,,,,0,,,62,0
935280,note_on,0,0,1,,,,,,,,,0,,,74,70
935280,note_on,240,0,3,,,,,,,,,2,,,38,62
935400,set_tempo,5640,1,0,,,,,,241935,,,,,,,
935487,note_off,447,0,4,,,,,,,,,3,,,35,0
935520,note_off,240,0,3,,,,,,,,,2,,,38,0
935520,note_on,0,0,1,,,,,,,,,0,,,79,82
935520,set_tempo,120,1,0,,,,,,240000,,,,,,,
935520,note_off,240,0,1,,,,,,,,,0,,,74,0
935520,note_on,240,0,2,,,,,,,,,1,,,67,82
935520,note_on,0,0,4,,,,,,,,,3,,,43,78
935520,note_on,33,0,4,,,,,,,,,3,,,31,78
936000,note_off,480,0,2,,,,,,,,,1,,,67,0
936000,note_on,0,0,4,,,,,,,,,3,,,43,70
936000,note_on,0,0,1,,,,,,,,,0,,,79,74
936000,note_off,480,0,1,,,,,,,,,0,,,79,0
936000,note_off,0,0,4,,,,,,,,,3,,,31,0
936000,note_off,480,0,4,,,,,,,,,3,,,43,0
936240,note_on,0,0,4,,,,,,,,,3,,,38,70
936240,note_on,0,0,1,,,,,,,,,0,,,74,74
936240,note_off,240,0,1,,,,,,,,,0,,,79,0
936240,note_off,240,0,4,,,,,,,,,3,,,43,0
936720,note_on,0,0,1,,,,,,,,,0,,,74,76
936720,note_off,480,0,1,,,,,,,,,0,,,74,0
936720,note_on,0,0,4,,,,,,,,,3,,,38,72
936720,note_off,480,0,4,,,,,,,,,3,,,38,0
936960,note_on,960,0,2,,,,,,,,,1,,,67,87
936960,note_on,0,0,1,,,,,,,,,0,,,79,87
936960,note_off,240,0,1,,,,,,,,,0,,,74,0
936960,note_off,240,0,4,,,,,,,,,3,,,38,0
936960,note_on,0,0,4,,,,,,,,,3,,,43,81
936960,note_on,0,0,4,,,,,,,,,3,,,31,81
937440,note_on,0,0,4,,,,,,,,,3,,,43,75
937440,note_off,480,0,2,,,,,,,,,1,,,67,0
937440,note_off,480,0,4,,,,,,,,,3,,,31,0
937440,note_off,0,0,4,,,,,,,,,3,,,43,0
937440,note_on,0,0,1,,,,,,,,,0,,,79,78
937440,note_off,480,0,1,,,,,,,,,0,,,79,0
937680,note_on,0,0,1,,,,,,,,,0,,,74,79
937680,note_off,240,0,1,,,,,,,,,0,,,79,0
937680,note_on,0,0,4,,,,,,,,,3,,,38,76
937680,note_off,240,0,4,,,,,,,,,3,,,43,0
938160,note_off,480,0,4,,,,,,,,,3,,,38,0
938160,note_on,0,0,1,,,,,,,,,0,,,74,81
938160,note_on,0,0,4,,,,,,,,,3,,,38,77
938160,note_off,480,0,1,,,,,,,,,0,,,74,0
938400,note_on,960,0,2,,,,,,,,,1,,,67,93
938400,note_off,240,0,1,,,,,,,,,0,,,74,0
938400,note_on,0,0,4,,,,,,,,,3,,,31,88
938400,note_on,0,0,1,,,,,,,,,0,,,79,93
938400,note_off,240,0,4,,,,,,,,,3,,,38,0
938400,note_on,0,0,4,,,,,,,,,3,,,43,88
938880,note_on,0,0,1,,,,,,,,,0,,,79,82
938880,note_off,480,0,1,,,,,,,,,0,,,79,0
938880,note_on,0,0,4,,,,,,,,,3,,,43,78
938880,note_off,480,0,4,,,,,,,,,3,,,31,0
938880,note_off,0,0,4,,,,,,,,,3,,,43,0
938880,note_off,480,0,2,,,,,,,,,1,,,67,0
939120,note_on,0,0,4,,,,,,,,,3,,,38,80
939120,note_off,240,0,4,,,,,,,,,3,,,43,0
939120,note_off,240,0,1,,,,,,,,,0,,,79,0
939120,note_on,0,0,1,,,,,,,,,0,,,74,83
939600,note_off,480,0,4,,,,,,,,,3,,,38,0
939600,note_on,0,0,4,,,,,,,,,3,,,38,83
939600,note_on,0,0,1,,,,,,,,,0,,,74,87
939600,note_off,480,0,1,,,,,,,,,0,,,74,0
939840,note_off,240,0,1,,,,,,,,,0,,,74,0
939840,note_on,0,0,1,,,,,,,,,0,,,79,89
939840,note_off,240,0,4,,,,,,,,,3,,,38,0
939840,note_on,0,0,4,,,,,,,,,3,,,43,84
939840,note_on,0,0,4,,,,,,,,,3,,,31,84
939840,note_on,960,0,2,,,,,,,,,1,,,67,89
940320,note_off,480,0,1,,,,,,,,,0,,,79,0
940320,note_on,0,0,1,,,,,,,,,0,,,83,94
940320,note_off,480,0,4,,,,,,,,,3,,,31,0
940320,note_off,0,0,4,,,,,,,,,3,,,43,0
940320,note_off,480,0,2,,,,,,,,,1,,,67,0
940320,note_on,0,0,4,,,,,,,,,3,,,47,87
940560,note_off,240,0,1,,,,,,,,,0,,,83,0
940560,note_on,0,0,1,,,,,,,,,0,,,86,96
940560,note_on,0,0,4,,,,,,,,,3,,,50,88
940560,note_off,240,0,4,,,,,,,,,3,,,47,0
941040,note_off,480,0,1,,,,,,,,,0,,,86,0
941040,note_on,0,0,1,,,,,,,,,0,,,83,101
941040,note_on,0,0,4,,,,,,,,,3,,,43,91
941040,note_off,480,0,4,,,,,,,,,3,,,50,0
941160,set_tempo,5640,1,0,,,,,,241935,,,,,,,
941280,note_on,960,0,2,,,,,,,,,1,,,75,106
941280,note_on,0,0,4,,,,,,,,,3,,,36,94
941280,set_tempo,120,1,0,,,,,,240000,,,,,,,
941280,note_on,0,0,1,,,,,,,,,0,,,87,106
941280,note_off,240,0,4,,,,,,,,,3,,,43,0
941280,note_off,240,0,1,,,,,,,,,0,,,83,0
941520,note_on,6000,0,3,,,,,,,,,2,,,39,82
941760,note_off,240,0,3,,,,,,,,,2,,,39,0
941760,note_on,0,0,3,,,,,,,,,2,,,43,81
942000,note_off,240,0,3,,,,,,,,,2,,,43,0
942000,note_on,0,0,3,,,,,,,,,2,,,48,81
942240,note_off,240,0,3,,,,,,,,,2,,,48,0
942240,note_on,0,0,3,,,,,,,,,2,,,39,80
942480,note_off,240,0,3,,,,,,,,,2,,,39,0
942480,note_on,0,0,3,,,,,,,,,2,,,43,80
942624,note_off,1344,0,4,,,,,,,,,3,,,36,0
942720,note_on,0,0,1,,,,,,,,,0,,,84,94
942720,note_off,1440,0,1,,,,,,,,,0,,,87,0
942720,note_on,96,0,4,,,,,,,,,3,,,36,85
942720,note_off,240,0,3,,,,,,,,,2,,,43,0
942720,note_on,0,0,2,,,,,,,,,1,,,72,94
942720,note_off,1440,0,2,,,,,,,,,1,,,75,0
942960,note_on,240,0,3,,,,,,,,,2,,,39,79
943200,note_off,480,0,2,,,,,,,,,1,,,72,0
943200,note_off,240,0,3,,,,,,,,,2,,,39,0
943200,note_on,0,0,3,,,,,,,,,2,,,43,78
943200,note_off,480,0,1,,,,,,,,,0,,,84,0
943440,note_off,240,0,3,,,,,,,,,2,,,43,0
943440,note_on,0,0,3,,,,,,,,,2,,,48,78
943440,note_on,240,0,2,,,,,,,,,1,,,67,92
943440,note_on,240,0,1,,,,,,,,,0,,,79,92
943680,note_off,240,0,3,,,,,,,,,2,,,48,0
943680,note_on,0,0,3,,,,,,,,,2,,,39,77
943920,note_on,0,0,3,,,,,,,,,2,,,43,76
943920,note_off,240,0,3,,,,,,,,,2,,,39,0
943920,note_off,480,0,2,,,,,,,,,1,,,67,0
943920,note_off,480,0,1,,,,,,,,,0,,,79,0
944064,note_off,1344,0,4,,,,,,,,,3,,,36,0
944160,note_on,240,0,1,,,,,,,,,0,,,75,89
944160,note_on,240,0,2,,,,,,,,,1,,,63,89
944160,note_on,96,0,4,,,,,,,,,3,,,36,81
944160,note_off,240,0,3,,,,,,,,,2,,,43,0
944400,note_on,240,0,3,,,,,,,,,2,,,39,75
944640,note_off,240,0,3,,,,,,,,,2,,,39,0
944640,note_off,480,0,1,,,,,,,,,0,,,75,0
944640,note_on,0,0,3,,,,,,,,,2,,,43,75
944640,note_off,480,0,2,,,,,,,,,1,,,63,0
944880,note_on,240,0,1,,,,,,,,,0,,,72,87
944880,note_on,0,0,3,,,,,,,,,2,,,48,74
944880,note_off,240,0,3,,,,,,,,,2,,,43,0
944880,note_on,240,0,2,,,,,,,,,1,,,60,87
945120,note_on,0,0,3,,,,,,,,,2,,,39,74
945120,note_off,240,0,3,,,,,,,,,2,,,48,0
945360,note_off,480,0,2,,,,,,,,,1,,,60,0
945360,note_off,240,0,3,,,,,,,,,2,,,39,0
945360,note_off,480,0,1,,,,,,,,,0,,,72,0
945360,note_on,0,0,3,,,,,,,,,2,,,43,73
945504,note_off,1344,0,4,,,,,,,,,3,,,36,0
945600,note_on,96,0,4,,,,,,,,,3,,,36,77
945600,note_on,240,0,2,,,,,,,,,1,,,55,84
945600,note_on,240,0,1,,,,,,,,,0,,,67,84
945600,note_off,240,0,3,,,,,,,,,2,,,43,0
945840,note_on,240,0,3,,,,,,,,,2,,,39,72
946080,note_off,480,0,2,,,,,,,,,1,,,55,0
946080,note_off,480,0,1,,,,,,,,,0,,,67,0
946080,note_off,240,0,3,,,,,,,,,2,,,39,0
946080,note_on,0,0,3,,,,,,,,,2,,,43,72
946320,note_on,240,0,2,,,,,,,,,1,,,51,82
946320,note_off,240,0,3,,,,,,,,,2,,,43,0
946320,note_on,0,0,3,,,,,,,,,2,,,48,71
946320,note_on,240,0,1,,,,,,,,,0,,,63,82
946560,note_off,240,0,3,,,,,,,,,2,,,48,0
946560,note_on,0,0,3,,,,,,,,,2,,,36,70
946800,note_on,240,0,3,,,,,,,,,2,,,48,69
946800,note_off,480,0,2,,,,,,,,,1,,,51,0
946800,note_off,480,0,1,,,,,,,,,0,,,63,0
946920,set_tempo,5640,1,0,,,,,,241935,,,,,,,
947040,note_off,1440,0,4,,,,,,,,,3,,,36,0
947040,note_on,0,0,4,,,,,,,,,3,,,32,93
947040,note_off,240,0,3,,,,,,,,,2,,,48,0
947040,note_on,240,0,1,,,,,,,,,0,,,87,108
947040,note_on,240,0,2,,,,,,,,,1,,,75,108
947040,set_tempo,120,1,0,,,,,,240000,,,,,,,
947088,note_off,48,0,3,,,,,,,,,2,,,36,0
947280,note_on,192,0,3,,,,,,,,,2,,,36,86
947520,note_on,0,0,3,,,,,,,,,2,,,39,86
947520,note_off,240,0,3,,,,,,,,,2,,,36,0
947760,note_off,240,0,3,,,,,,,,,2,,,39,0
947760,note_on,0,0,3,,,,,,,,,2,,,44,85
948000,note_off,240,0,3,,,,,,,,,2,,,44,0
948000,note_on,0,0,3,,,,,,,,,2,,,36,85
948240,note_off,240,0,3,,,,,,,,,2,,,36,0
948240,note_on,0,0,3,,,,,,,,,2,,,39,84
948384,note_off,1344,0,4,,,,,,,,,3,,,32,0
948480,note_off,240,0,3,,,,,,,,,2,,,39,0
948480,note_on,0,0,2,,,,,,,,,1,,,72,99
948480,note_on,0,0,1,,,,,,,,,0,,,84,99
948480,note_off,1440,0,1,,,,,,,,,0,,,87,0
948480,note_off,1440,0,2,,,,,,,,,1,,,75,0
948480,note_on,96,0,4,,,,,,,,,3,,,32,89
948720,note_on,240,0,3,,,,,,,,,2,,,36,83
948960,note_off,480,0,1,,,,,,,,,0,,,84,0
948960,note_off,480,0,2,,,,,,,,,1,,,72,0
948960,note_off,240,0,3,,,,,,,,,2,,,36,0
948960,note_on,0,0,3,,,,,,,,,2,,,39,82
949200,note_off,240,0,3,,,,,,,,,2,,,39,0
949200,note_on,240,0,1,,,,,,,,,0,,,80,97
949200,note_on,0,0,3,,,,,,,,,2,,,44,82
949200,note_on,240,0,2,,,,,,,,,1,,,68,97
949440,note_off,240,0,3,,,,,,,,,2,,,44,0
949440,note_on,0,0,3,,,,,,,,,2,,,36,81
949680,note_off,240,0,3,,,,,,,,,2,,,36,0
949680,note_on,0,0,3,,,,,,,,,2,,,39,81
949680,note_off,480,0,2,,,,,,,,,1,,,68,0
949680,note_off,480,0,1,,,,,,,,,0,,,80,0
949824,note_off,1344,0,4,,,,,,,,,3,,,32,0
949920,note_on,240,0,1,,,,,,,,,0,,,75,95
949920,note_on,240,0,2,,,,,,,,,1,,,63,95
949920,note_off,240,0,3,,,,,,,,,2,,,39,0
949920,note_on,96,0,4,,,,,,,,,3,,,32,86
950160,note_on,240,0,3,,,,,,,,,2,,,36,80
950400,note_off,240,0,3,,,,,,,,,2,,,36,0
950400,note_off,480,0,1,,,,,,,,,0,,,75,0
950400,note_off,480,0,2,,,,,,,,,1,,,63,0
950400,note_on,0,0,3,,,,,,,,,2,,,39,79
950640,note_on,240,0,1,,,,,,,,,0,,,72,92
950640,note_on,0,0,3,,,,,,,,,2,,,44,78
950640,note_off,240,0,3,,,,,,,,,2,,,39,0
950640,note_on,240,0,2,,,,,,,,,1,,,60,92
950880,note_on,0,0,3,,,,,,,,,2,,,36,78
950880,note_off,240,0,3,,,,,,,,,2,,,44,0
951120,note_off,240,0,3,,,,,,,,,2,,,36,0
951120,note_on,0,0,3,,,,,,,,,2,,,39,77
951120,note_off,480,0,2,,,,,,,,,1,,,60,0
951120,note_off,480,0,1,,,,,,,,,0,,,72,0
951264,note_off,1344,0,4,,,,,,,,,3,,,32,0
951360,note_on,96,0,4,,,,,,,,,3,,,32,83
951360,note_off,240,0,3,,,,,,,,,2,,,39,0
951360,note_on,240,0,2,,,,,,,,,1,,,56,90
951360,note_on,240,0,1,,,,,,,,,0,,,68,90
951600,note_on,240,0,3,,,,,,,,,2,,,36,76
951840,note_off,480,0,1,,,,,,,,,0,,,68,0
951840,note_off,240,0,3,,,,,,,,,2,,,36,0
951840,note_on,0,0,3,,,,,,,,,2,,,39,76
951840,note_off,480,0,2,,,,,,,,,1,,,56,0
952080,note_on,240,0,1,,,,,,,,,0,,,63,88
952080,note_off,240,0,3,,,,,,,,,2,,,39,0
952080,note_on,0,0,3,,,,,,,,,2,,,44,75
952290,note_off,930,0,4,,,,,,,,,3,,,32,0
952320,note_on,0,0,3,,,,,,,,,2,,,32,75
952320,note_off,240,0,3,,,,,,,,,2,,,44,0
952560,note_on,240,0,3,,,,,,,,,2,,,44,74
952560,note_off,480,0,1,,,,,,,,,0,,,63,0
952680,set_tempo,5640,1,0,,,,,,241935,,,,,,,
952800,note_off,240,0,3,,,,,,,,,2,,,44,0
952800,note_on,960,0,2,,,,,,,,,1,,,77,112
952800,set_tempo,120,1,0,,,,,,240000,,,,,,,
952800,note_on,240,0,1,,,,,,,,,0,,,89,112
952800,note_on,510,0,4,,,,,,,,,3,,,29,98
952813,note_off,13,0,3,,,,,,,,,2,,,32,0
953040,note_on,227,0,3,,,,,,,,,2,,,34,86
953280,note_on,0,0,3,,,,,,,,,2,,,37,86
953280,note_off,240,0,3,,,,,,,,,2,,,34,0
953520,note_on,0,0,3,,,,,,,,,2,,,41,85
953520,note_off,240,0,3,,,,,,,,,2,,,37,0
953760,note_on,0,0,3,,,,,,,,,2,,,32,84
953760,note_off,240,0,3,,,,,,,,,2,,,41,0
954000,note_off,240,0,3,,,,,,,,,2,,,32,0
954000,note_on,0,0,3,,,,,,,,,2,,,37,84
954190,note_off,1390,0,4,,,,,,,,,3,,,29,0
954240,note_on,50,0,4,,,,,,,,,3,,,29,92
954240,note_off,240,0,3,,,,,,,,,2,,,37,0
954240,note_off,1440,0,1,,,,,,,,,0,,,89,0
954240,note_on,0,0,1,,,,,,,,,0,,,85,100
954240,note_on,0,0,2,,,,,,,,,1,,,73,100
954240,note_off,1440,0,2,,,,,,,,,1,,,77,0
954480,note_on,240,0,3,,,,,,,,,2,,,32,82
954720,note_off,480,0,1,,,,,,,,,0,,,85,0
954720,note_on,0,0,3,,,,,,,,,2,,,37,82
954720,note_off,240,0,3,,,,,,,,,2,,,32,0
954720,note_off,480,0,2,,,,,,,,,1,,,73,0
954960,note_on,240,0,2,,,,,,,,,1,,,68,98
954960,note_off,240,0,3,,,,,,,,,2,,,37,0
954960,note_on,240,0,1,,,,,,,,,0,,,80,98
954960,note_on,0,0,3,,,,,,,,,2,,,41,81
955200,note_off,240,0,3,,,,,,,,,2,,,41,0
955200,note_on,0,0,3,,,,,,,,,2,,,32,80
955440,note_off,480,0,1,,,,,,,,,0,,,80,0
955440,note_off,480,0,2,,,,,,,,,1,,,68,0
955440,note_on,0,0,3,,,,,,,,,2,,,37,79
955440,note_off,240,0,3,,,,,,,,,2,,,32,0
955630,note_off,1390,0,4,,,,,,,,,3,,,29,0
955680,note_on,240,0,2,,,,,,,,,1,,,65,96
955680,note_on,50,0,4,,,,,,,,,3,,,29,87
955680,note_on,240,0,1,,,,,,,,,0,,,77,96
955680,note_off,240,0,3,,,,,,,,,2,,,37,0
955920,note_on,240,0,3,,,,,,,,,2,,,32,78
956160,note_off,480,0,1,,,,,,,,,0,,,77,0
956160,note_off,480,0,2,,,,,,,,,1,,,65,0
956160,note_on,0,0,3,,,,,,,,,2,,,37,77
956160,note_off,240,0,3,,,,,,,,,2,,,32,0
956400,note_off,240,0,3,,,,,,,,,2,,,37,0
956400,note_on,0,0,3,,,,,,,,,2,,,41,77
956400,note_on,240,0,1,,,,,,,,,0,,,73,94
956400,note_on,240,0,2,,,,,,,,,1,,,61,94
956640,note_off,240,0,3,,,,,,,,,2,,,41,0
956640,note_on,0,0,3,,,,,,,,,2,,,32,76
956880,note_on,0,0,3,,,,,,,,,2,,,37,75
956880,note_off,240,0,3,,,,,,,,,2,,,32,0
956880,note_off,480,0,2,,,,,,,,,1,,,61,0
956880,note_off,480,0,1,,,,,,,,,0,,,73,0
957070,note_off,1390,0,4,,,,,,,,,3,,,29,0
957120,note_on,50,0,4,,,,,,,,,3,,,29,82
957120,note_on,240,0,1,,,,,,,,,0,,,68,92
957120,note_off,240,0,3,,,,,,,,,2,,,37,0
957120,note_on,240,0,2,,,,,,,,,1,,,56,92
957360,note_on,240,0,3,,,,,,,,,2,,,32,74
957600,note_off,480,0,1,,,,,,,,,0,,,68,0
957600,note_off,480,0,2,,,,,,,,,1,,,56,0
957600,note_off,240,0,3,,,,,,,,,2,,,32,0
957600,note_on,0,0,3,,,,,,,,,2,,,37,73
957840,note_on,240,0,2,,,,,,,,,1,,,53,90
957840,note_off,240,0,3,,,,,,,,,2,,,37,0
957840,note_on,0,0,3,,,,,,,,,2,,,41,73
957840,note_on,240,0,1,,,,,,,,,0,,,65,90
958080,note_on,0,0,3,,,,,,,,,2,,,32,72
958080,note_off,240,0,3,,,,,,,,,2,,,41,0
958320,note_off,240,0,3,,,,,,,,,2,,,32,0
958320,note_off,480,0,2,,,,,,,,,1,,,53,0
958320,note_on,0,0,3,,,,,,,,,2,,,37,83
958320,note_off,480,0,1,,,,,,,,,0,,,65,0
958440,set_tempo,5640,1,0,,,,,,241935,,,,,,,
958510,note_off,1390,0,4,,,,,,,,,3,,,29,0
958560,note_off,240,0,3,,,,,,,,,2,,,37,0
958560,set_tempo,120,1,0,,,,,,240000,,,,,,,
958560,note_on,50,0,4,,,,,,,,,3,,,31,84
958560,note_on,240,0,2,,,,,,,,,1,,,71,103
958560,note_on,240,0,1,,,,,,,,,0,,,83,103
958800,note_on,240,0,3,,,,,,,,,2,,,35,81
959040,note_off,240,0,3,,,,,,,,,2,,,35,0
959040,note_on,0,0,3,,,,,,,,,2,,,38,81
959280,note_on,0,0,3,,,,,,,,,2,,,43,80
959280,note_off,240,0,3,,,,,,,,,2,,,38,0
959520,note_on,0,0,3,,,,,,,,,2,,,35,79
959520,note_off,240,0,3,,,,,,,,,2,,,43,0
959760,note_on,0,0,3,,,,,,,,,2,,,38,78
959760,note_off,240,0,3,,,,,,,,,2,,,35,0
960000,note_off,240,0,3,,,,,,,,,2,,,38,0
960000,note_off,1440,0,2,,,,,,,,,1,,,71,0
960000,note_off,1440,0,4,,,,,,,,,3,,,31,0
960000,note_on,0,0,4,,,,,,,,,3,,,31,79
960000,note_off,1440,0,1,,,,,,,,,0,,,83,0
960000,note_on,0,0,1,,,,,,,,,0,,,77,91
960000,note_on,0,0,2,,,,,,,,,1,,,65,91
960240,note_on,240,0,3,,,,,,,,,2,,,35,76
960480,note_off,480,0,2,,,,,,,,,1,,,65,0
960480,note_off,480,0,1,,,,,,,,,0,,,77,0
960480,note_off,240,0,3,,,,,,,,,2,,,35,0
960480,note_on,0,0,3,,,,,,,,,2,,,38,75
960720,note_on,240,0,2,,,,,,,,,1,,,62,89
960720,note_on,240,0,1,,,,,,,,,0,,,74,89
960720,note_off,240,0,3,,,,,,,,,2,,,38,0
960720,note_on,0,0,3,,,,,,,,,2,,,43,74
960960,note_on,0,0,3,,,,,,,,,2,,,35,73
960960,note_off,240,0,3,,,,,,,,,2,,,43,0
961200,note_off,480,0,1,,,,,,,,,0,,,74,0
961200,note_on,0,0,3,,,,,,,,,2,,,38,72
961200,note_off,240,0,3,,,,,,,,,2,,,35,0
961200,note_off,480,0,2,,,,,,,,,1,,,62,0
961440,note_off,240,0,3,,,,,,,,,2,,,38,0
961440,note_on,240,0,1,,,,,,,,,0,,,71,86
961440,note_on,240,0,2,,,,,,,,,1,,,59,86
961440,note_off,1440,0,4,,,,,,,,,3,,,31,0
961440,note_on,0,0,4,,,,,,,,,3,,,31,74
961680,note_on,240,0,3,,,,,,,,,2,,,35,70
961920,note_off,240,0,3,,,,,,,,,2,,,35,0
961920,note_off,480,0,1,,,,,,,,,0,,,71,0
961920,note_off,480,0,2,,,,,,,,,1,,,59,0
961920,note_on,0,0,3,,,,,,,,,2,,,38,69
962160,note_on,240,0,1,,,,,,,,,0,,,65,83
962160,note_on,240,0,2,,,,,,,,,1,,,53,83
962160,note_on,0,0,3,,,,,,,,,2,,,43,68
962160,note_off,240,0,3,,,,,,,,,2,,,38,0
962400,note_off,240,0,3,,,,,,,,,2,,,43,0
962400,note_on,0,0,3,,,,,,,,,2,,,35,67
962640,note_off,480,0,2,,,,,,,,,1,,,53,0
962640,note_on,0,0,3,,,,,,,,,2,,,38,66
962640,note_off,240,0,3,,,,,,,,,2,,,35,0
962640,note_off,480,0,1,,,,,,,,,0,,,65,0
962880,note_off,1440,0,4,,,,,,,,,3,,,31,0
962880,note_off,240,0,3,,,,,,,,,2,,,38,0
962880,note_on,240,0,2,,,,,,,,,1,,,50,80
962880,note_on,240,0,1,,,,,,,,,0,,,62,80
962880,note_on,0,0,4,,,,,,,,,3,,,31,69
963120,note_on,240,0,3,,,,,,,,,2,,,35,64
963360,note_off,480,0,2,,,,,,,,,1,,,50,0
963360,note_on,0,0,3,,,,,,,,,2,,,38,63
963360,note_off,240,0,3,,,,,,,,,2,,,35,0
963360,note_off,480,0,1,,,,,,,,,0,,,62,0
963600,note_on,0,0,3,,,,,,,,,2,,,43,62
963600,note_off,240,0,3,,,,,,,,,2,,,38,0
963600,note_on,240,0,1,,,,,,,,,0,,,59,78
963600,note_on,240,0,2,,,,,,,,,1,,,47,78
963840,note_on,0,0,3,,,,,,,,,2,,,41,61
963840,note_off,240,0,3,,,,,,,,,2,,,43,0
964080,note_off,480,0,1,,,,,,,,,0,,,59,0
964080,note_on,0,0,1,,,,,,,,,0,,,55,44
964080,note_off,240,0,3,,,,,,,,,2,,,41,0
964080,note_on,0,0,3,,,,,,,,,2,,,38,60
964080,note_off,480,0,2,,,,,,,,,1,,,47,0
964200,set_tempo,5640,1,0,,,,,,241935,,,,,,,
964320,note_on,240,0,2,,,,,,,,,1,,,52,56
964320,note_on,0,0,4,,,,,,,,,3,,,36,64
964320,note_off,240,0,1,,,,,,,,,0,,,55,0
964320,note_on,0,0,1,,,,,,,,,0,,,60,56
964320,control_change,240,0,3,,,,,,,10,73,2,,,,
964320,note_off,0,0,3,,,,,,,,,2,,,38,0
964320,note_off,1440,0,4,,,,,,,,,3,,,31,0
964512,note_off,192,0,2,,,,,,,,,1,,,52,0
964512,note_off,192,0,1,,,,,,,,,0,,,60,0
964800,note_on,288,0,1,,,,,,,,,0,,,60,44
965040,note_off,240,0,1,,,,,,,,,0,,,60,0
965040,note_on,0,0,1,,,,,,,,,0,,,55,44
965040,note_on,720,0,3,,,,,,,,,2,,,67,52
965232,note_off,192,0,1,,,,,,,,,0,,,55,0
965520,note_on,288,0,1,,,,,,,,,0,,,55,45
965760,note_off,240,0,1,,,,,,,,,0,,,55,0
965760,note_on,1248,0,2,,,,,,,,,1,,,52,45
965760,note_on,0,0,1,,,,,,,,,0,,,60,45
965952,note_off,192,0,1,,,,,,,,,0,,,60,0
965952,note_off,192,0,2,,,,,,,,,1,,,52,0
966240,note_on,288,0,1,,,,,,,,,0,,,60,45
966400,note_off,1360,0,3,,,,,,,,,2,,,67,0
966480,note_off,240,0,1,,,,,,,,,0,,,60,0
966480,note_on,0,0,1,,,,,,,,,0,,,55,45
966480,note_on,80,0,3,,,,,,,,,2,,,67,45
966672,note_off,192,0,1,,,,,,,,,0,,,55,0
966960,note_on,288,0,1,,,,,,,,,0,,,55,46
967200,note_on,1248,0,2,,,,,,,,,1,,,52,46
967200,note_on,0,0,1,,,,,,,,,0,,,60,46
967200,note_off,240,0,1,,,,,,,,,0,,,55,0
967392,note_off,192,0,2,,,,,,,,,1,,,52,0
967392,note_off,192,0,1,,,,,,,,,0,,,60,0
967680,note_on,288,0,1,,,,,,,,,0,,,60,46
967840,note_off,1360,0,3,,,,,,,,,2,,,67,0
967920,note_on,0,0,1,,,,,,,,,0,,,55,46
967920,note_off,240,0,1,,,,,,,,,0,,,60,0
967920,note_on,80,0,3,,,,,,,,,2,,,67,46
968112,note_off,192,0,1,,,,,,,,,0,,,55,0
968400,note_on,288,0,1,,,,,,,,,0,,,55,47
968576,note_off,656,0,3,,,,,,,,,2,,,67,0
968640,note_on,64,0,3,,,,,,,,,2,,,67,47
968640,note_off,240,0,1,,,,,,,,,0,,,55,0
968640,note_on,0,0,1,,,,,,,,,0,,,60,47
968640,note_on,1248,0,2,,,,,,,,,1,,,52,47
968832,note_off,192,0,1,,,,,,,,,0,,,60,0
968832,note_off,192,0,2,,,,,,,,,1,,,52,0
969120,note_on,288,0,1,,,,,,,,,0,,,60,47
969120,note_off,480,0,3,,,,,,,,,2,,,67,0
969135,note_off,4815,0,4,,,,,,,,,3,,,36,0
969360,note_off,240,0,1,,,,,,,,,0,,,60,0
969360,note_on,0,0,1,,,,,,,,,0,,,55,48
969552,note_off,192,0,1,,,,,,,,,0,,,55,0
969840,note_on,288,0,1,,,,,,,,,0,,,55,48
969960,set_tempo,5760,1,0,,,,,,243902,,,,,,,
970080,set_tempo,120,1,0,,,,,,241935,,,,,,,
970080,note_on,0,0,4,,,,,,,,,3,,,31,54
970080,note_off,240,0,1,,,,,,,,,0,,,55,0
970080,note_on,0,0,1,,,,,,,,,0,,,62,58
970080,note_on,945,0,4,,,,,,,,,3,,,43,54
970080,note_on,1248,0,2,,,,,,,,,1,,,59,58
970272,note_off,192,0,2,,,,,,,,,1,,,59,0
970272,note_off,192,0,1,,,,,,,,,0,,,62,0
970560,note_on,288,0,1,,,,,,,,,0,,,62,48
970560,note_on,288,0,2,,,,,,,,,1,,,59,48
970800,note_off,240,0,2,,,,,,,,,1,,,59,0
970800,note_on,1680,0,3,,,,,,,,,2,,,67,49
970800,note_off,240,0,1,,,,,,,,,0,,,62,0
970800,note_on,0,0,1,,,,,,,,,0,,,55,49
970992,note_off,192,0,1,,,,,,,,,0,,,55,0
971280,note_on,288,0,1,,,,,,,,,0,,,55,49
971520,note_off,240,0,1,,,,,,,,,0,,,55,0
971520,note_on,0,0,1,,,,,,,,,0,,,62,49
971520,note_on,720,0,2,,,,,,,,,1,,,59,49
971712,note_off,192,0,1,,,,,,,,,0,,,62,0
971712,note_off,192,0,2,,,,,,,,,1,,,59,0
972000,note_on,288,0,1,,,,,,,,,0,,,62,50
972000,note_on,288,0,2,,,,,,,,,1,,,59,50
972028,note_off,1228,0,3,,,,,,,,,2,,,67,0
972240,note_off,240,0,2,,,,,,,,,1,,,59,0
972240,note_on,212,0,3,,,,,,,,,2,,,67,51
972240,note_off,240,0,1,,,,,,,,,0,,,62,0
972240,note_on,0,0,1,,,,,,,,,0,,,55,50
972432,note_off,192,0,1,,,,,,,,,0,,,55,0
972720,note_on,288,0,1,,,,,,,,,0,,,55,50
972960,note_on,0,0,1,,,,,,,,,0,,,62,50
972960,note_on,720,0,2,,,,,,,,,1,,,59,50
972960,note_off,240,0,1,,,,,,,,,0,,,55,0
973152,note_off,192,0,1,,,,,,,,,0,,,62,0
973152,note_off,192,0,2,,,,,,,,,1,,,59,0
973440,note_on,288,0,1,,,,,,,,,0,,,62,51
973440,note_on,288,0,2,,,,,,,,,1,,,59,51
973468,note_off,1228,0,3,,,,,,,,,2,,,67,0
973680,note_on,212,0,3,,,,,,,,,2,,,67,52
973680,note_on,0,0,1,,,,,,,,,0,,,55,51
973680,note_off,240,0,1,,,,,,,,,0,,,62,0
973680,note_off,240,0,2,,,,,,,,,1,,,59,0
973872,note_off,192,0,1,,,,,,,,,0,,,55,0
974160,note_on,288,0,1,,,,,,,,,0,,,55,51
974292,note_off,612,0,3,,,,,,,,,2,,,67,0
974400,note_on,0,0,1,,,,,,,,,0,,,64,51
974400,note_on,108,0,3,,,,,,,,,2,,,67,53
974400,note_on,720,0,2,,,,,,,,,1,,,60,51
974400,note_off,240,0,1,,,,,,,,,0,,,55,0
974880,note_off,480,0,1,,,,,,,,,0,,,64,0
974880,note_off,480,0,3,,,,,,,,,2,,,67,0
974880,note_off,480,0,2,,,,,,,,,1,,,60,0
974910,note_off,0,0,4,,,,,,,,,3,,,43,0
974910,note_off,4830,0,4,,,,,,,,,3,,,31,0
975120,note_on,210,0,4,,,,,,,,,3,,,58,60
975600,note_off,480,0,4,,,,,,,,,3,,,58,0
975600,note_on,0,0,4,,,,,,,,,3,,,58,61
975720,set_tempo,5640,1,0,,,,,,241935,,,,,,,
975840,control_change,960,0,3,,,,,,,10,64,2,,,,
975840,set_tempo,120,1,0,,,,,,240000,,,,,,,
975840,note_off,240,0,4,,,,,,,,,3,,,58,0
975840,note_on,0,0,4,,,,,,,,,3,,,61,62
976080,note_on,1200,0,1,,,,,,,,,0,,,64,48
976320,note_on,0,0,1,,,,,,,,,0,,,67,49
976320,note_off,240,0,1,,,,,,,,,0,,,64,0
976320,note_off,480,0,4,,,,,,,,,3,,,61,0
976560,note_on,240,0,4,,,,,,,,,3,,,58,65
976560,note_off,240,0,1,,,,,,,,,0,,,67,0
976560,note_on,0,0,1,,,,,,,,,0,,,70,50
976800,note_off,240,0,1,,,,,,,,,0,,,70,0
976800,note_on,0,0,1,,,,,,,,,0,,,73,51
977040,note_off,480,0,4,,,,,,,,,3,,,58,0
977040,note_on,0,0,4,,,,,,,,,3,,,58,66
977040,note_off,240,0,1,,,,,,,,,0,,,73,0
977040,note_on,0,0,1,,,,,,,,,0,,,76,52
977280,note_off,240,0,4,,,,,,,,,3,,,58,0
977280,note_on,0,0,4,,,,,,,,,3,,,61,67
977280,note_off,240,0,1,,,,,,,,,0,,,76,0
977520,note_on,240,0,1,,,,,,,,,0,,,67,53
977760,note_off,240,0,1,,,,,,,,,0,,,67,0
977760,note_on,0,0,1,,,,,,,,,0,,,70,54
977760,note_off,480,0,4,,,,,,,,,3,,,61,0
978000,note_on,0,0,1,,,,,,,,,0,,,73,55
978000,note_off,240,0,1,,,,,,,,,0,,,70,0
978000,note_on,240,0,4,,,,,,,,,3,,,58,69
978240,note_on,0,0,1,,,,,,,,,0,,,76,56
978240,note_off,240,0,1,,,,,,,,,0,,,73,0
978480,note_off,480,0,4,,,,,,,,,3,,,58,0
978480,note_on,0,0,4,,,,,,,,,3,,,58,71
978480,note_off,240,0,1,,,,,,,,,0,,,76,0
978480,note_on,0,0,1,,,,,,,,,0,,,79,57
978720,note_off,240,0,4,,,,,,,,,3,,,58,0
978720,note_on,0,0,4,,,,,,,,,3,,,61,72
978720,note_off,240,0,1,,,,,,,,,0,,,79,0
978960,note_off,240,0,4,,,,,,,,,3,,,61,0
978960,note_on,0,0,4,,,,,,,,,3,,,58,69
978960,note_on,240,0,1,,,,,,,,,0,,,76,59
979200,note_off,240,0,1,,,,,,,,,0,,,76,0
979200,note_on,0,0,1,,,,,,,,,0,,,79,60
979200,note_off,240,0,4,,,,,,,,,3,,,58,0
979200,note_on,0,0,4,,,,,,,,,3,,,60,67
979440,note_off,240,0,1,,,,,,,,,0,,,79,0
979440,note_off,240,0,4,,,,,,,,,3,,,60,0
979440,note_on,0,0,4,,,,,,,,,3,,,61,65
979440,note_on,0,0,1,,,,,,,,,0,,,82,61
979680,note_on,0,0,1,,,,,,,,,0,,,85,61
979680,note_on,0,0,4,,,,,,,,,3,,,60,63
979680,note_off,240,0,4,,,,,,,,,3,,,61,0
979680,note_off,240,0,1,,,,,,,,,0,,,82,0
979920,note_on,0,0,4,,,,,,,,,3,,,58,61
979920,note_off,240,0,4,,,,,,,,,3,,,60,0
979920,note_off,240,0,1,,,,,,,,,0,,,85,0
979920,note_on,0,0,1,,,,,,,,,0,,,88,62
980160,note_off,240,0,4,,,,,,,,,3,,,58,0
980160,note_on,0,0,4,,,,,,,,,3,,,57,56
980160,note_off,240,0,1,,,,,,,,,0,,,88,0
980400,note_on,0,0,4,,,,,,,,,3,,,45,52
980400,note_off,240,0,4,,,,,,,,,3,,,57,0
980640,note_on,0,0,4,,,,,,,,,3,,,48,53
980640,note_off,240,0,4,,,,,,,,,3,,,45,0
980880,note_on,720,0,1,,,,,,,,,0,,,75,68
980880,note_on,0,0,4,,,,,,,,,3,,,53,53
980880,note_off,240,0,4,,,,,,,,,3,,,48,0
981120,note_on,0,0,4,,,,,,,,,3,,,57,54
981120,note_off,240,0,4,,,,,,,,,3,,,53,0
981360,note_off,480,0,1,,,,,,,,,0,,,75,0
981360,note_on,0,0,1,,,,,,,,,0,,,75,69
981360,note_on,0,0,4,,,,,,,,,3,,,60,55
981360,note_off,240,0,4,,,,,,,,,3,,,57,0
981480,set_tempo,5640,1,0,,,,,,241935,,,,,,,
981600,set_tempo,120,1,0,,,,,,240000,,,,,,,
981600,note_on,0,0,1,,,,,,,,,0,,,78,70
981600,note_off,240,0,4,,,,,,,,,3,,,60,0
981600,note_off,240,0,1,,,,,,,,,0,,,75,0
981840,note_on,240,0,4,,,,,,,,,3,,,48,56
982080,note_off,240,0,4,,,,,,,,,3,,,48,0
982080,note_on,0,0,4,,,,,,,,,3,,,53,57
982080,note_off,480,0,1,,,,,,,,,0,,,78,0
982320,note_on,0,0,4,,,,,,,,,3,,,57,58
982320,note_off,240,0,4,,,,,,,,,3,,,53,0
982320,note_on,240,0,1,,,,,,,,,0,,,75,72
982560,note_off,240,0,4,,,,,,,,,3,,,57,0
982560,note_on,0,0,4,,,,,,,,,3,,,60,58
982800,note_on,0,0,1,,,,,,,,,0,,,75,73
982800,note_off,240,0,4,,,,,,,,,3,,,60,0
982800,note_on,0,0,4,,,,,,,,,3,,,65,59
982800,note_off,480,0,1,,,,,,,,,0,,,75,0
983040,note_off,240,0,1,,,,,,,,,0,,,75,0
983040,note_on,0,0,1,,,,,,,,,0,,,78,74
983040,note_off,240,0,4,,,,,,,,,3,,,65,0
983280,note_on,240,0,4,,,,,,,,,3,,,53,61
983520,note_off,240,0,4,,,,,,,,,3,,,53,0
983520,note_off,480,0,1,,,,,,,,,0,,,78,0
983520,note_on,0,0,4,,,,,,,,,3,,,57,61
983760,note_on,0,0,4,,,,,,,,,3,,,60,62
983760,note_on,240,0,1,,,,,,,,,0,,,75,76
983760,note_off,240,0,4,,,,,,,,,3,,,57,0
984000,note_on,0,0,4,,,,,,,,,3,,,65,63
984000,note_off,240,0,4,,,,,,,,,3,,,60,0
984240,note_on,0,0,4,,,,,,,,,3,,,69,63
984240,note_off,240,0,4,,,,,,,,,3,,,65,0
984240,note_on,0,0,1,,,,,,,,,0,,,75,77
984240,note_off,480,0,1,,,,,,,,,0,,,75,0
984480,note_on,0,0,1,,,,,,,,,0,,,78,79
984480,note_off,240,0,4,,,,,,,,,3,,,69,0
984480,note_off,240,0,1,,,,,,,,,0,,,75,0
984720,note_off,240,0,1,,,,,,,,,0,,,78,0
984720,note_on,0,0,1,,,,,,,,,0,,,75,76
984960,note_off,240,0,1,,,,,,,,,0,,,75,0
984960,note_on,0,0,1,,,,,,,,,0,,,77,73
985200,note_off,240,0,1,,,,,,,,,0,,,77,0
985200,note_on,0,0,1,,,,,,,,,0,,,78,70
985200,note_on,720,0,4,,,,,,,,,3,,,56,68
985440,note_on,0,0,1,,,,,,,,,0,,,77,67
985440,note_off,240,0,1,,,,,,,,,0,,,78,0
985680,note_off,480,0,4,,,,,,,,,3,,,56,0
985680,note_on,0,0,4,,,,,,,,,3,,,56,68
985680,note_on,0,0,1,,,,,,,,,0,,,75,64
985680,note_off,240,0,1,,,,,,,,,0,,,77,0
985800,set_tempo,4200,1,0,,,,,,241935,,,,,,,
985920,note_off,240,0,1,,,,,,,,,0,,,75,0
985920,set_tempo,120,1,0,,,,,,240000,,,,,,,
985920,note_on,0,0,1,,,,,,,,,0,,,74,61
985920,note_off,240,0,4,,,,,,,,,3,,,56,0
985920,note_on,0,0,4,,,,,,,,,3,,,59,68
986160,note_off,240,0,1,,,,,,,,,0,,,74,0
986160,note_on,0,0,1,,,,,,,,,0,,,62,56
986400,note_off,480,0,4,,,,,,,,,3,,,59,0
986400,note_off,240,0,1,,,,,,,,,0,,,62,0
986400,note_on,0,0,1,,,,,,,,,0,,,65,57
986640,note_on,240,0,4,,,,,,,,,3,,,56,70
986640,note_on,0,0,1,,,,,,,,,0,,,68,58
986640,note_off,240,0,1,,,,,,,,,0,,,65,0
986880,note_on,0,0,1,,,,,,,,,0,,,71,59
986880,note_off,240,0,1,,,,,,,,,0,,,68,0
987120,note_off,240,0,1,,,,,,,,,0,,,71,0
987120,note_on,0,0,4,,,,,,,,,3,,,56,71
987120,note_on,0,0,1,,,,,,,,,0,,,74,60
987120,note_off,480,0,4,,,,,,,,,3,,,56,0
987360,note_off,240,0,4,,,,,,,,,3,,,56,0
987360,note_off,240,0,1,,,,,,,,,0,,,74,0
987360,note_on,0,0,4,,,,,,,,,3,,,59,72
987600,note_on,240,0,1,,,,,,,,,0,,,65,63
987840,note_off,240,0,1,,,,,,,,,0,,,65,0
987840,note_on,0,0,1,,,,,,,,,0,,,68,64
987840,note_off,480,0,4,,,,,,,,,3,,,59,0
988080,note_off,240,0,1,,,,,,,,,0,,,68,0
988080,note_on,0,0,1,,,,,,,,,0,,,71,65
988080,note_on,240,0,4,,,,,,,,,3,,,56,74
988320,note_on,0,0,1,,,,,,,,,0,,,74,66
988320,note_off,240,0,1,,,,,,,,,0,,,71,0
988560,note_on,0,0,4,,,,,,,,,3,,,56,75
988560,note_off,480,0,4,,,,,,,,,3,,,56,0
988560,note_off,240,0,1,,,,,,,,,0,,,74,0
988560,note_on,0,0,1,,,,,,,,,0,,,77,67
988800,note_on,0,0,4,,,,,,,,,3,,,59,76
988800,note_off,240,0,4,,,,,,,,,3,,,56,0
988800,note_off,240,0,1,,,,,,,,,0,,,77,0
989040,note_on,240,0,1,,,,,,,,,0,,,74,69
989280,note_off,480,0,4,,,,,,,,,3,,,59,0
989280,note_on,0,0,1,,,,,,,,,0,,,77,70
989280,note_off,240,0,1,,,,,,,,,0,,,74,0
989520,note_on,240,0,4,,,,,,,,,3,,,56,78
989520,note_off,240,0,1,,,,,,,,,0,,,77,0
989520,note_on,0,0,1,,,,,,,,,0,,,80,71
989760,note_off,240,0,1,,,,,,,,,0,,,80,0
989760,note_on,0,0,1,,,,,,,,,0,,,83,72
990000,note_off,480,0,4,,,,,,,,,3,,,56,0
990000,note_on,0,0,4,,,,,,,,,3,,,56,79
990000,note_off,240,0,1,,,,,,,,,0,,,83,0
990000,note_on,0,0,1,,,,,,,,,0,,,86,73
990240,note_off,240,0,1,,,,,,,,,0,,,86,0
990240,note_on,0,0,4,,,,,,,,,3,,,59,82
990240,note_off,240,0,4,,,,,,,,,3,,,56,0
990480,note_off,240,0,4,,,,,,,,,3,,,59,0
990480,note_on,0,0,4,,,,,,,,,3,,,56,80
990720,note_on,0,0,4,,,,,,,,,3,,,58,78
990720,note_off,240,0,4,,,,,,,,,3,,,56,0
990960,note_on,0,0,4,,,,,,,,,3,,,59,76
990960,note_off,240,0,4,,,,,,,,,3,,,58,0
990960,note_on,720,0,1,,,,,,,,,0,,,85,76
991200,note_off,240,0,4,,,,,,,,,3,,,59,0
991200,note_on,0,0,4,,,,,,,,,3,,,58,74
991440,note_off,480,0,1,,,,,,,,,0,,,85,0
991440,note_on,0,0,1,,,,,,,,,0,,,85,77
991440,note_on,0,0,4,,,,,,,,,3,,,56,72
991440,note_off,240,0,4,,,,,,,,,3,,,58,0
991560,set_tempo,5640,1,0,,,,,,241935,,,,,,,
991680,note_on,0,0,1,,,,,,,,,0,,,88,77
991680,set_tempo,120,1,0,,,,,,240000,,,,,,,
991680,note_on,0,0,4,,,,,,,,,3,,,55,70
991680,note_off,240,0,4,,,,,,,,,3,,,56,0
991680,note_off,240,0,1,,,,,,,,,0,,,85,0
991920,note_off,240,0,4,,,,,,,,,3,,,55,0
991920,note_on,0,0,4,,,,,,,,,3,,,43,64
992160,note_off,480,0,1,,,,,,,,,0,,,88,0
992160,note_off,240,0,4,,,,,,,,,3,,,43,0
992160,note_on,0,0,4,,,,,,,,,3,,,46,64
992400,note_off,240,0,4,,,,,,,,,3,,,46,0
992400,note_on,240,0,1,,,,,,,,,0,,,85,79
992400,note_on,0,0,4,,,,,,,,,3,,,51,64
992640,note_on,0,0,4,,,,,,,,,3,,,55,65
992640,note_off,240,0,4,,,,,,,,,3,,,51,0
992880,note_on,0,0,1,,,,,,,,,0,,,85,80
992880,note_off,480,0,1,,,,,,,,,0,,,85,0
992880,note_on,0,0,4,,,,,,,,,3,,,58,65
992880,note_off,240,0,4,,,,,,,,,3,,,55,0
993120,note_off,240,0,4,,,,,,,,,3,,,58,0
993120,note_off,240,0,1,,,,,,,,,0,,,85,0
993120,note_on,0,0,1,,,,,,,,,0,,,88,80
993360,note_on,240,0,4,,,,,,,,,3,,,46,66
993600,note_off,240,0,4,,,,,,,,,3,,,46,0
993600,note_off,480,0,1,,,,,,,,,0,,,88,0
993600,note_on,0,0,4,,,,,,,,,3,,,51,66
993840,note_off,240,0,4,,,,,,,,,3,,,51,0
993840,note_on,0,0,4,,,,,,,,,3,,,55,67
993840,note_on,240,0,1,,,,,,,,,0,,,85,81
994080,note_off,240,0,4,,,,,,,,,3,,,55,0
994080,note_on,0,0,4,,,,,,,,,3,,,58,67
994320,note_off,240,0,4,,,,,,,,,3,,,58,0
994320,note_on,0,0,4,,,,,,,,,3,,,63,67
994320,note_off,480,0,1,,,,,,,,,0,,,85,0
994320,note_on,0,0,1,,,,,,,,,0,,,85,82
994560,note_on,0,0,1,,,,,,,,,0,,,88,83
994560,note_off,240,0,4,,,,,,,,,3,,,63,0
994560,note_off,240,0,1,,,,,,,,,0,,,85,0
994800,note_on,240,0,4,,,,,,,,,3,,,51,68
995040,note_on,0,0,4,,,,,,,,,3,,,55,68
995040,note_off,480,0,1,,,,,,,,,0,,,88,0
995040,note_off,240,0,4,,,,,,,,,3,,,51,0
995280,note_on,0,0,4,,,,,,,,,3,,,58,69
995280,note_off,240,0,4,,,,,,,,,3,,,55,0
995280,note_on,240,0,1,,,,,,,,,0,,,85,84
995520,note_off,240,0,4,,,,,,,,,3,,,58,0
995520,note_on,0,0,4,,,,,,,,,3,,,63,69
995760,note_on,0,0,4,,,,,,,,,3,,,67,69
995760,note_off,240,0,4,,,,,,,,,3,,,63,0
995760,note_on,0,0,1,,,,,,,,,0,,,85,85
995760,note_off,480,0,1,,,,,,,,,0,,,85,0
996000,note_off,240,0,4,,,,,,,,,3,,,67,0
996000,note_on,0,0,1,,,,,,,,,0,,,88,87
996000,note_off,240,0,1,,,,,,,,,0,,,85,0
996240,note_on,0,0,1,,,,,,,,,0,,,85,85
996240,note_off,240,0,1,,,,,,,,,0,,,88,0
996480,note_on,0,0,1,,,,,,,,,0,,,87,82
996480,note_off,240,0,1,,,,,,,,,0,,,85,0
996720,note_on,0,0,1,,,,,,,,,0,,,88,80
996720,note_off,240,0,1,,,,,,,,,0,,,87,0
996720,note_on,720,0,4,,,,,,,,,3,,,43,76
996960,note_off,240,0,1,,,,,,,,,0,,,88,0
996960,note_on,0,0,1,,,,,,,,,0,,,87,77
997200,note_off,480,0,4,,,,,,,,,3,,,43,0
997200,note_off,240,0,1,,,,,,,,,0,,,87,0
997200,note_on,0,0,1,,,,,,,,,0,,,85,75
997200,note_on,0,0,4,,,,,,,,,3,,,43,77
997320,set_tempo,5640,1,0,,,,,,241935,,,,,,,
997440,control_change,240,0,4,,,,,,,64,0,3,,,,
997440,control_change,22560,0,2,,,,,,,64,0,1,,,,
997440,control_change,240,0,1,,,,,,,64,0,0,,,,
997440,set_tempo,120,1,0,,,,,,240000,,,,,,,
997440,note_on,0,0,4,,,,,,,,,3,,,44,68
997440,control_change,21600,0,3,,,,,,,64,0,2,,,,
997440,note_off,0,0,1,,,,,,,,,0,,,85,0
997440,note_on,0,0,1,,,,,,,,,0,,,84,66
997440,note_off,0,0,4,,,,,,,,,3,,,43,0
997480,control_change,40,0,3,,,,,,,64,0,2,,,,
997480,control_change,40,0,1,,,,,,,64,127,0,,,,
997480,control_change,40,0,2,,,,,,,64,127,1,,,,
997680,note_on,200,0,3,,,,,,,,,2,,,48,61
997680,note_on,200,0,2,,,,,,,,,1,,,80,67
997920,note_off,240,0,2,,,,,,,,,1,,,80,0
997920,note_on,0,0,2,,,,,,,,,1,,,75,67
997920,note_on,0,0,3,,,,,,,,,2,,,51,62
997920,note_off,240,0,3,,,,,,,,,2,,,48,0
998160,note_on,0,0,3,,,,,,,,,2,,,56,63
998160,note_off,240,0,3,,,,,,,,,2,,,51,0
998160,note_on,0,0,2,,,,,,,,,1,,,72,68
998160,note_off,240,0,2,,,,,,,,,1,,,75,0
998400,note_on,0,0,3,,,,,,,,,2,,,60,63
998400,note_off,240,0,3,,,,,,,,,2,,,56,0
998400,note_off,240,0,2,,,,,,,,,1,,,72,0
998400,note_on,0,0,2,,,,,,,,,1,,,80,69
998640,note_off,240,0,2,,,,,,,,,1,,,80,0
998640,note_on,0,0,2,,,,,,,,,1,,,75,70
998640,note_off,240,0,3,,,,,,,,,2,,,60,0
998640,note_on,0,0,3,,,,,,,,,2,,,63,64
998820,note_off,1340,0,1,,,,,,,,,0,,,84,0
998880,note_off,240,0,3,,,,,,,,,2,,,63,0
998880,note_off,1440,0,4,,,,,,,,,3,,,44,0
998880,note_on,0,0,4,,,,,,,,,3,,,56,73
998880,note_on,60,0,1,,,,,,,,,0,,,84,70
998880,note_off,240,0,2,,,,,,,,,1,,,75,0
999120,note_on,240,0,3,,,,,,,,,2,,,60,65
999120,note_on,240,0,2,,,,,,,,,1,,,80,71
999360,note_on,0,0,3,,,,,,,,,2,,,63,65
999360,note_off,240,0,3,,,,,,,,,2,,,60,0
999360,note_off,240,0,2,,,,,,,,,1,,,80,0
999360,note_on,0,0,2,,,,,,,,,1,,,75,72
999600,note_on,0,0,3,,,,,,,,,2,,,68,66
999600,note_off,240,0,2,,,,,,,,,1,,,75,0
999600,note_on,0,0,2,,,,,,,,,1,,,72,73
999600,note_off,240,0,3,,,,,,,,,2,,,63,0
999840,note_off,240,0,3,,,,,,,,,2,,,68,0
999840,note_off,240,0,2,,,,,,,,,1,,,72,0
999840,note_on,0,0,2,,,,,,,,,1,,,80,73
999840,note_on,0,0,3,,,,,,,,,2,,,60,67
1000080,note_on,0,0,2,,,,,,,,,1,,,75,74
1000080,note_off,240,0,3,,,,,,,,,2,,,60,0
1000080,note_on,0,0,3,,,,,,,,,2,,,63,67
1000080,note_off,240,0,2,,,,,,,,,1,,,80,0
1000260,note_off,1380,0,1,,,,,,,,,0,,,84,0
1000320,note_off,240,0,2,,,,,,,,,1,,,75,0
1000320,note_off,1440,0,4,,,,,,,,,3,,,56,0
1000320,note_on,60,0,1,,,,,,,,,0,,,84,75
1000320,note_off,240,0,3,,,,,,,,,2,,,63,0
1000320,note_on,0,0,4,,,,,,,,,3,,,51,78
1000560,note_on,240,0,3,,,,,,,,,2,,,56,68
1000560,note_on,240,0,2,,,,,,,,,1,,,80,76
1000800,note_on,0,0,3,,,,,,,,,2,,,60,69
1000800,note_off,240,0,2,,,,,,,,,1,,,80,0
1000800,note_on,0,0,2,,,,,,,,,1,,,75,77
1000800,note_off,240,0,3,,,,,,,,,2,,,56,0
1001040,note_off,240,0,2,,,,,,,,,1,,,75,0
1001040,note_on,0,0,2,,,,,,,,,1,,,72,77
1001040,note_off,240,0,3,,,,,,,,,2,,,60,0
1001040,note_on,0,0,3,,,,,,,,,2,,,63,69
1001280,note_off,240,0,2,,,,,,,,,1,,,72,0
1001280,note_on,0,0,2,,,,,,,,,1,,,80,78
1001280,note_on,0,0,3,,,,,,,,,2,,,56,70
1001280,note_off,240,0,3,,,,,,,,,2,,,63,0
1001520,note_on,0,0,3,,,,,,,,,2,,,60,71
1001520,note_off,240,0,2,,,,,,,,,1,,,80,0
1001520,note_on,0,0,2,,,,,,,,,1,,,75,79
1001520,note_off,240,0,3,,,,,,,,,2,,,56,0
1001700,note_off,1380,0,1,,,,,,,,,0,,,84,0
1001760,note_off,240,0,3,,,,,,,,,2,,,60,0
1001760,note_off,240,0,2,,,,,,,,,1,,,75,0
1001760,note_on,0,0,4,,,,,,,,,3,,,48,83
1001760,note_off,1440,0,4,,,,,,,,,3,,,51,0
1001760,note_on,60,0,1,,,,,,,,,0,,,84,80
1002000,note_on,240,0,3,,,,,,,,,2,,,51,72
1002000,note_on,240,0,2,,,,,,,,,1,,,80,80
1002240,note_on,0,0,2,,,,,,,,,1,,,75,81
1002240,note_off,240,0,2,,,,,,,,,1,,,80,0
1002240,note_off,240,0,3,,,,,,,,,2,,,51,0
1002240,note_on,0,0,3,,,,,,,,,2,,,56,72
1002480,note_on,0,0,3,,,,,,,,,2,,,60,73
1002480,note_off,240,0,3,,,,,,,,,2,,,56,0
1002480,note_off,240,0,2,,,,,,,,,1,,,75,0
1002480,note_on,0,0,2,,,,,,,,,1,,,72,82
1002720,note_off,240,0,2,,,,,,,,,1,,,72,0
1002720,note_on,0,0,2,,,,,,,,,1,,,80,83
1002720,note_off,240,0,3,,,,,,,,,2,,,60,0
1002720,note_on,0,0,3,,,,,,,,,2,,,51,74
1002840,set_tempo,5400,1,0,,,,,,241935,,,,,,,
1002960,note_off,240,0,2,,,,,,,,,1,,,80,0
1002960,note_off,240,0,3,,,,,,,,,2,,,51,0
1002960,note_on,0,0,3,,,,,,,,,2,,,56,74
1002960,note_on,0,0,2,,,,,,,,,1,,,75,83
1002975,set_tempo,135,1,0,,,,,,244897,,,,,,,
1003140,note_off,1380,0,1,,,,,,,,,0,,,84,0
1003200,note_on,0,0,1,,,,,,,,,0,,,84,84
1003200,control_change,60,0,1,,,,,,,64,127,0,,,,
1003200,note_on,0,0,4,,,,,,,,,3,,,44,88
1003200,note_off,0,0,4,,,,,,,,,3,,,48,0
1003200,control_change,1440,0,4,,,,,,,64,127,3,,,,
1003200,control_change,240,0,2,,,,,,,64,127,1,,,,
1003200,note_off,0,0,2,,,,,,,,,1,,,75,0
1003200,note_on,0,0,2,,,,,,,,,1,,,72,84
1003200,note_on,0,0,2,,,,,,,,,1,,,80,84
1003200,note_off,0,0,3,,,,,,,,,2,,,56,0
1003200,control_change,240,0,3,,,,,,,64,127,2,,,,
1003200,set_tempo,225,1,0,,,,,,241935,,,,,,,
1003200,note_on,0,0,3,,,,,,,,,2,,,56,75
1003200,note_on,0,0,3,,,,,,,,,2,,,51,75
1003200,note_on,0,0,3,,,,,,,,,2,,,48,75
1003200,note_on,0,0,2,,,,,,,,,1,,,75,84
1004880,note_off,0,0,2,,,,,,,,,1,,,72,0
1004880,note_off,1680,0,2,,,,,,,,,1,,,75,0
1004880,note_off,0,0,2,,,,,,,,,1,,,80,0
1004880,note_off,1680,0,1,,,,,,,,,0,,,84,0
1004880,note_on,0,0,1,,,,,,,,,0,,,80,81
1005120,note_off,1920,0,4,,,,,,,,,3,,,44,0
1005120,note_on,0,0,1,,,,,,,,,0,,,75,80
1005120,note_off,0,0,3,,,,,,,,,2,,,51,0
1005120,note_off,1920,0,3,,,,,,,,,2,,,48,0
1005120,note_off,240,0,1,,,,,,,,,0,,,80,0
1005120,note_off,0,0,3,,,,,,,,,2,,,56,0
1005360,note_off,240,0,1,,,,,,,,,0,,,75,0
1005360,note_on,0,0,1,,,,,,,,,0,,,72,78
1005600,note_off,240,0,1,,,,,,,,,0,,,72,0
1005600,note_on,0,0,1,,,,,,,,,0,,,68,77
1005840,note_off,240,0,1,,,,,,,,,0,,,68,0
1005840,note_on,0,0,1,,,,,,,,,0,,,63,75
1006080,note_off,240,0,1,,,,,,,,,0,,,63,0
1006080,note_on,0,0,1,,,,,,,,,0,,,72,74
1006320,note_off,240,0,1,,,,,,,,,0,,,72,0
1006320,note_on,0,0,1,,,,,,,,,0,,,68,72
1006560,note_on,0,0,1,,,,,,,,,0,,,63,71
1006560,note_off,240,0,1,,,,,,,,,0,,,68,0
1006800,note_on,0,0,1,,,,,,,,,0,,,60,69
1006800,note_off,240,0,1,,,,,,,,,0,,,63,0
1007040,note_on,0,0,1,,,,,,,,,0,,,56,68
1007040,note_off,240,0,1,,,,,,,,,0,,,60,0
1007280,note_on,0,0,1,,,,,,,,,0,,,51,66
1007280,note_off,240,0,1,,,,,,,,,0,,,56,0
1007520,note_on,0,0,1,,,,,,,,,0,,,60,65
1007520,note_off,240,0,1,,,,,,,,,0,,,51,0
1007760,note_off,240,0,1,,,,,,,,,0,,,60,0
1007760,note_on,0,0,1,,,,,,,,,0,,,56,63
1008000,note_on,0,0,1,,,,,,,,,0,,,51,62
1008000,note_off,240,0,1,,,,,,,,,0,,,56,0
1008240,note_on,0,0,1,,,,,,,,,0,,,48,60
1008240,note_off,240,0,1,,,,,,,,,0,,,51,0
1008480,note_off,240,0,1,,,,,,,,,0,,,48,0
1008480,note_on,0,0,1,,,,,,,,,0,,,44,59
1008720,note_off,240,0,1,,,,,,,,,0,,,44,0
1008720,note_on,0,0,1,,,,,,,,,0,,,43,57
1008720,set_tempo,5520,1,0,,,,,,243902,,,,,,,
1008960,control_change,4080,0,2,,,,,,,64,0,1,,,,
1008960,note_off,0,0,1,,,,,,,,,0,,,43,0
1008960,note_on,0,0,1,,,,,,,,,0,,,80,56
1008960,control_change,240,0,1,,,,,,,64,0,0,,,,
1008960,control_change,3840,0,4,,,,,,,64,0,3,,,,
1008960,note_on,0,0,4,,,,,,,,,3,,,41,53
1008960,control_change,3840,0,3,,,,,,,64,0,2,,,,
1008960,set_tempo,240,1,0,,,,,,240000,,,,,,,
1009000,control_change,40,0,3,,,,,,,64,0,2,,,,
1009000,control_change,40,0,2,,,,,,,64,127,1,,,,
1009000,control_change,40,0,1,,,,,,,64,127,0,,,,
1009200,note_on,200,0,3,,,,,,,,,2,,,44,49
1009200,note_on,200,0,2,,,,,,,,,1,,,77,54
1009440,note_on,0,0,2,,,,,,,,,1,,,72,55
1009440,note_off,240,0,2,,,,,,,,,1,,,77,0
1009440,note_off,240,0,3,,,,,,,,,2,,,44,0
1009440,note_on,0,0,3,,,,,,,,,2,,,48,50
1009680,note_off,240,0,3,,,,,,,,,2,,,48,0
1009680,note_on,0,0,3,,,,,,,,,2,,,53,51
1009680,note_on,0,0,2,,,,,,,,,1,,,68,56
1009680,note_off,240,0,2,,,,,,,,,1,,,72,0
1009920,note_on,0,0,3,,,,,,,,,2,,,56,52
1009920,note_on,0,0,2,,,,,,,,,1,,,77,58
1009920,note_off,240,0,2,,,,,,,,,1,,,68,0
1009920,note_off,240,0,3,,,,,,,,,2,,,53,0
1010160,note_on,0,0,2,,,,,,,,,1,,,72,59
1010160,note_off,240,0,2,,,,,,,,,1,,,77,0
1010160,note_on,0,0,3,,,,,,,,,2,,,60,53
1010160,note_off,240,0,3,,,,,,,,,2,,,56,0
1010340,note_off,1340,0,1,,,,,,,,,0,,,80,0
1010400,note_off,240,0,3,,,,,,,,,2,,,60,0
1010400,note_off,1440,0,4,,,,,,,,,3,,,41,0
1010400,note_on,0,0,4,,,,,,,,,3,,,53,60
1010400,note_off,240,0,2,,,,,,,,,1,,,72,0
1010400,note_on,60,0,1,,,,,,,,,0,,,80,60
1010640,note_on,240,0,3,,,,,,,,,2,,,56,55
1010640,note_on,240,0,2,,,,,,,,,1,,,77,61
1010880,note_off,240,0,3,,,,,,,,,2,,,56,0
1010880,note_off,240,0,2,,,,,,,,,1,,,77,0
1010880,note_on,0,0,2,,,,,,,,,1,,,72,62
1010880,note_on,0,0,3,,,,,,,,,2,,,60,56
1011120,note_on,0,0,2,,,,,,,,,1,,,68,63
1011120,note_off,240,0,2,,,,,,,,,1,,,72,0
1011120,note_on,0,0,3,,,,,,,,,2,,,65,57
1011120,note_off,240,0,3,,,,,,,,,2,,,60,0
1011360,note_off,240,0,2,,,,,,,,,1,,,68,0
1011360,note_on,0,0,2,,,,,,,,,1,,,77,65
1011360,note_off,240,0,3,,,,,,,,,2,,,65,0
1011360,note_on,0,0,3,,,,,,,,,2,,,56,58
1011600,note_on,0,0,3,,,,,,,,,2,,,60,59
1011600,note_off,240,0,3,,,,,,,,,2,,,56,0
1011600,note_on,0,0,2,,,,,,,,,1,,,72,66
1011600,note_off,240,0,2,,,,,,,,,1,,,77,0
1011780,note_off,1380,0,1,,,,,,,,,0,,,80,0
1011840,note_off,240,0,3,,,,,,,,,2,,,60,0
1011840,note_on,0,0,4,,,,,,,,,3,,,48,67
1011840,note_off,240,0,2,,,,,,,,,1,,,72,0
1011840,note_on,60,0,1,,,,,,,,,0,,,80,67
1011840,note_off,1440,0,4,,,,,,,,,3,,,53,0
1012080,note_on,240,0,3,,,,,,,,,2,,,53,61
1012080,note_on,240,0,2,,,,,,,,,1,,,77,68
1012320,note_off,240,0,3,,,,,,,,,2,,,53,0
1012320,note_on,0,0,2,,,,,,,,,1,,,72,69
1012320,note_off,240,0,2,,,,,,,,,1,,,77,0
1012320,note_on,0,0,3,,,,,,,,,2,,,56,62
1012560,note_off,240,0,3,,,,,,,,,2,,,56,0
1012560,note_on,0,0,3,,,,,,,,,2,,,60,63
1012560,note_on,0,0,2,,,,,,,,,1,,,68,70
1012560,note_off,240,0,2,,,,,,,,,1,,,72,0
1012800,note_off,240,0,3,,,,,,,,,2,,,60,0
1012800,note_on,0,0,3,,,,,,,,,2,,,53,64
1012800,note_on,0,0,2,,,,,,,,,1,,,77,71
1012800,note_off,240,0,2,,,,,,,,,1,,,68,0
1013040,note_off,240,0,2,,,,,,,,,1,,,77,0
1013040,note_on,0,0,2,,,,,,,,,1,,,72,73
1013040,note_off,240,0,3,,,,,,,,,2,,,53,0
1013040,note_on,0,0,3,,,,,,,,,2,,,56,65
1013220,note_off,1380,0,1,,,,,,,,,0,,,80,0
1013280,note_off,240,0,3,,,,,,,,,2,,,56,0
1013280,note_off,1440,0,4,,,,,,,,,3,,,48,0
1013280,note_on,0,0,4,,,,,,,,,3,,,44,74
1013280,note_on,60,0,1,,,,,,,,,0,,,80,74
1013280,note_off,240,0,2,,,,,,,,,1,,,72,0
1013520,note_on,240,0,3,,,,,,,,,2,,,48,67
1013520,note_on,240,0,2,,,,,,,,,1,,,77,75
1013760,note_on,0,0,3,,,,,,,,,2,,,53,68
1013760,note_off,240,0,3,,,,,,,,,2,,,48,0
1013760,note_off,240,0,2,,,,,,,,,1,,,77,0
1013760,note_on,0,0,2,,,,,,,,,1,,,72,76
1014000,note_on,0,0,2,,,,,,,,,1,,,68,77
1014000,note_off,240,0,2,,,,,,,,,1,,,72,0
1014000,note_off,240,0,3,,,,,,,,,2,,,53,0
1014000,note_on,0,0,3,,,,,,,,,2,,,56,69
1014240,note_off,240,0,2,,,,,,,,,1,,,68,0
1014240,note_on,0,0,2,,,,,,,,,1,,,77,78
1014240,note_on,0,0,3,,,,,,,,,2,,,48,70
1014240,note_off,240,0,3,,,,,,,,,2,,,56,0
1014360,set_tempo,5400,1,0,,,,,,241935,,,,,,,
1014480,set_tempo,120,1,0,,,,,,243902,,,,,,,
1014480,note_on,0,0,2,,,,,,,,,1,,,72,80
1014480,note_off,240,0,2,,,,,,,,,1,,,77,0
1014480,note_off,240,0,3,,,,,,,,,2,,,48,0
1014480,note_on,0,0,3,,,,,,,,,2,,,53,71
1014660,note_off,1380,0,1,,,,,,,,,0,,,80,0
1014720,note_off,240,0,3,,,,,,,,,2,,,53,0
1014720,note_on,0,0,3,,,,,,,,,2,,,48,72
1014720,note_on,0,0,3,,,,,,,,,2,,,53,72
1014720,note_on,0,0,3,,,,,,,,,2,,,44,72
1014720,note_on,0,0,2,,,,,,,,,1,,,77,83
1014720,note_on,60,0,1,,,,,,,,,0,,,80,83
1014720,set_tempo,240,1,0,,,,,,241935,,,,,,,
1014720,note_off,240,0,2,,,,,,,,,1,,,72,0
1014720,note_off,0,0,4,,,,,,,,,3,,,44,0
1014720,note_on,0,0,4,,,,,,,,,3,,,41,83
1014720,note_on,0,0,2,,,,,,,,,1,,,72,83
1014720,note_on,0,0,2,,,,,,,,,1,,,68,83
1014720,control_change,1440,0,4,,,,,,,64,127,3,,,,
1016400,note_on,0,0,1,,,,,,,,,0,,,77,71
1016400,note_off,0,0,1,,,,,,,,,0,,,80,0
1016400,control_change,1680,0,1,,,,,,,64,0,0,,,,
1016400,note_off,0,0,2,,,,,,,,,1,,,68,0
1016400,control_change,1680,0,2,,,,,,,64,0,1,,,,
1016400,note_off,0,0,2,,,,,,,,,1,,,77,0
1016400,control_change,1680,0,3,,,,,,,64,0,2,,,,
1016400,note_off,0,0,2,,,,,,,,,1,,,72,0
1016440,control_change,40,0,2,,,,,,,64,127,1,,,,
1016440,control_change,40,0,3,,,,,,,64,127,2,,,,
1016440,control_change,40,0,1,,,,,,,64,127,0,,,,
1016640,note_off,200,0,3,,,,,,,,,2,,,44,0
1016640,note_off,1920,0,4,,,,,,,,,3,,,41,0
1016640,note_off,200,0,1,,,,,,,,,0,,,77,0
1016640,note_on,0,0,1,,,,,,,,,0,,,72,70
1016640,note_off,0,0,3,,,,,,,,,2,,,48,0
1016640,note_off,0,0,3,,,,,,,,,2,,,53,0
1016880,note_off,240,0,1,,,,,,,,,0,,,72,0
1016880,note_on,0,0,1,,,,,,,,,0,,,68,69
1017120,note_on,0,0,1,,,,,,,,,0,,,65,68
1017120,note_off,240,0,1,,,,,,,,,0,,,68,0
1017360,note_off,240,0,1,,,,,,,,,0,,,65,0
1017360,note_on,0,0,1,,,,,,,,,0,,,60,66
1017600,note_off,240,0,1,,,,,,,,,0,,,60,0
1017600,note_on,0,0,1,,,,,,,,,0,,,68,65
1017840,note_off,240,0,1,,,,,,,,,0,,,68,0
1017840,note_on,0,0,1,,,,,,,,,0,,,65,64
1018080,note_off,240,0,1,,,,,,,,,0,,,65,0
1018080,note_on,0,0,1,,,,,,,,,0,,,60,63
1018320,note_on,0,0,1,,,,,,,,,0,,,56,63
1018320,note_off,240,0,1,,,,,,,,,0,,,60,0
1018560,note_off,240,0,1,,,,,,,,,0,,,56,0
1018560,note_on,0,0,1,,,,,,,,,0,,,53,61
1018800,note_off,240,0,1,,,,,,,,,0,,,53,0
1018800,note_on,0,0,1,,,,,,,,,0,,,48,60
1019040,note_on,0,0,1,,,,,,,,,0,,,56,58
1019040,note_off,240,0,1,,,,,,,,,0,,,48,0
1019280,note_off,240,0,1,,,,,,,,,0,,,56,0
1019280,note_on,0,0,1,,,,,,,,,0,,,53,56
1019520,note_off,240,0,1,,,,,,,,,0,,,53,0
1019520,note_on,0,0,1,,,,,,,,,0,,,48,54
1019760,note_off,240,0,1,,,,,,,,,0,,,48,0
1019760,note_on,0,0,1,,,,,,,,,0,,,44,52
1020000,note_off,240,0,1,,,,,,,,,0,,,44,0
1020000,note_on,0,0,1,,,,,,,,,0,,,41,51
1020225,set_tempo,5505,1,0,,,,,,243902,,,,,,,
1020240,note_off,240,0,1,,,,,,,,,0,,,41,0
1020240,note_on,0,0,1,,,,,,,,,0,,,39,49
1020480,control_change,3840,0,3,,,,,,,64,0,2,,,,
1020480,control_change,0,0,3,,,,,,,64,0,2,,,,
1020480,control_change,4040,0,2,,,,,,,64,0,1,,,,
1020480,note_on,0,0,4,,,,,,,,,3,,,38,53
1020480,control_change,3840,0,4,,,,,,,64,0,3,,,,
1020480,set_tempo,255,1,0,,,,,,241935,,,,,,,
1020480,control_change,240,0,1,,,,,,,64,0,0,,,,
1020480,note_on,0,0,1,,,,,,,,,0,,,80,46
1020480,note_off,0,0,1,,,,,,,,,0,,,39,0
1020520,control_change,40,0,1,,,,,,,64,127,0,,,,
1020520,control_change,0,0,3,,,,,,,64,127,2,,,,
1020520,control_change,40,0,3,,,,,,,64,0,2,,,,
1020520,control_change,40,0,4,,,,,,,64,0,3,,,,
1020520,control_change,40,0,2,,,,,,,64,127,1,,,,
1020720,note_on,200,0,3,,,,,,,,,2,,,41,50
1020720,note_on,200,0,2,,,,,,,,,1,,,77,46
1020960,note_on,0,0,3,,,,,,,,,2,,,46,51
1020960,note_off,240,0,2,,,,,,,,,1,,,77,0
1020960,note_on,0,0,2,,,,,,,,,1,,,70,47
1020960,note_off,240,0,3,,,,,,,,,2,,,41,0
1021200,note_on,0,0,2,,,,,,,,,1,,,68,48
1021200,note_off,240,0,3,,,,,,,,,2,,,46,0
1021200,note_on,0,0,3,,,,,,,,,2,,,50,51
1021200,note_off,240,0,2,,,,,,,,,1,,,70,0
1021440,note_off,240,0,2,,,,,,,,,1,,,68,0
1021440,note_on,0,0,2,,,,,,,,,1,,,77,49
1021440,note_off,240,0,3,,,,,,,,,2,,,50,0
1021440,note_on,0,0,3,,,,,,,,,2,,,53,52
1021680,note_off,240,0,2,,,,,,,,,1,,,77,0
1021680,note_on,0,0,2,,,,,,,,,1,,,70,49
1021680,note_off,240,0,3,,,,,,,,,2,,,53,0
1021680,note_on,0,0,3,,,,,,,,,2,,,58,52
1021860,note_off,1340,0,1,,,,,,,,,0,,,80,0
1021920,note_off,240,0,3,,,,,,,,,2,,,58,0
1021920,note_off,240,0,2,,,,,,,,,1,,,70,0
1021920,note_on,0,0,4,,,,,,,,,3,,,50,58
1021920,note_off,1400,0,4,,,,,,,,,3,,,38,0
1021920,note_on,60,0,1,,,,,,,,,0,,,80,50
1022160,note_on,240,0,3,,,,,,,,,2,,,53,53
1022160,note_on,240,0,2,,,,,,,,,1,,,77,51
1022400,note_on,0,0,3,,,,,,,,,2,,,58,54
1022400,note_off,240,0,3,,,,,,,,,2,,,53,0
1022400,note_on,0,0,2,,,,,,,,,1,,,70,51
1022400,note_off,240,0,2,,,,,,,,,1,,,77,0
1022640,note_off,240,0,3,,,,,,,,,2,,,58,0
1022640,note_off,240,0,2,,,,,,,,,1,,,70,0
1022640,note_on,0,0,3,,,,,,,,,2,,,62,54
1022640,note_on,0,0,2,,,,,,,,,1,,,68,52
1022880,note_on,0,0,2,,,,,,,,,1,,,77,53
1022880,note_on,0,0,3,,,,,,,,,2,,,53,55
1022880,note_off,240,0,2,,,,,,,,,1,,,68,0
1022880,note_off,240,0,3,,,,,,,,,2,,,62,0
1023120,note_off,240,0,2,,,,,,,,,1,,,77,0
1023120,note_on,0,0,2,,,,,,,,,1,,,70,54
1023120,note_on,0,0,3,,,,,,,,,2,,,58,56
1023120,note_off,240,0,3,,,,,,,,,2,,,53,0
1023300,note_off,1380,0,1,,,,,,,,,0,,,80,0
1023360,note_on,60,0,1,,,,,,,,,0,,,80,54
1023360,note_off,240,0,3,,,,,,,,,2,,,58,0
1023360,note_off,1440,0,4,,,,,,,,,3,,,50,0
1023360,note_on,0,0,4,,,,,,,,,3,,,46,63
1023360,note_off,240,0,2,,,,,,,,,1,,,70,0
1023600,note_on,240,0,2,,,,,,,,,1,,,77,55
1023600,note_on,240,0,3,,,,,,,,,2,,,50,57
1023840,note_off,240,0,2,,,,,,,,,1,,,77,0
1023840,note_on,0,0,3,,,,,,,,,2,,,53,57
1023840,note_off,240,0,3,,,,,,,,,2,,,50,0
1023840,note_on,0,0,2,,,,,,,,,1,,,70,56
1024080,note_off,240,0,2,,,,,,,,,1,,,70,0
1024080,note_on,0,0,2,,,,,,,,,1,,,68,57
1024080,note_on,0,0,3,,,,,,,,,2,,,58,58
1024080,note_off,240,0,3,,,,,,,,,2,,,53,0
1024320,note_off,240,0,2,,,,,,,,,1,,,68,0
1024320,note_on,0,0,2,,,,,,,,,1,,,77,57
1024320,note_on,0,0,3,,,,,,,,,2,,,50,58
1024320,note_off,240,0,3,,,,,,,,,2,,,58,0
1024560,note_off,240,0,2,,,,,,,,,1,,,77,0
1024560,note_on,0,0,2,,,,,,,,,1,,,70,58
1024560,note_on,0,0,3,,,,,,,,,2,,,53,59
1024560,note_off,240,0,3,,,,,,,,,2,,,50,0
1024740,note_off,1380,0,1,,,,,,,,,0,,,80,0
1024800,note_on,0,0,4,,,,,,,,,3,,,41,68
1024800,note_on,60,0,1,,,,,,,,,0,,,80,59
1024800,note_off,1440,0,4,,,,,,,,,3,,,46,0
1024800,note_off,240,0,3,,,,,,,,,2,,,53,0
1024800,note_off,240,0,2,,,,,,,,,1,,,70,0
1025040,note_on,240,0,2,,,,,,,,,1,,,77,60
1025040,note_on,240,0,3,,,,,,,,,2,,,46,60
1025280,note_off,240,0,2,,,,,,,,,1,,,77,0
1025280,note_on,0,0,2,,,,,,,,,1,,,70,60
1025280,note_off,240,0,3,,,,,,,,,2,,,46,0
1025280,note_on,0,0,3,,,,,,,,,2,,,53,60
1025520,note_off,720,0,4,,,,,,,,,3,,,41,0
1025520,note_off,240,0,2,,,,,,,,,1,,,70,0
1025520,note_on,0,0,4,,,,,,,,,3,,,38,70
1025520,note_on,0,0,2,,,,,,,,,1,,,68,61
1025520,note_off,240,0,3,,,,,,,,,2,,,53,0
1025760,note_off,240,0,2,,,,,,,,,1,,,68,0
1025760,note_on,240,0,3,,,,,,,,,2,,,46,61
1025760,note_on,0,0,2,,,,,,,,,1,,,77,62
1026000,note_off,240,0,2,,,,,,,,,1,,,77,0
1026000,note_on,0,0,2,,,,,,,,,1,,,70,63
1026000,note_off,240,0,3,,,,,,,,,2,,,46,0
1026000,note_on,0,0,3,,,,,,,,,2,,,50,62
1026120,set_tempo,5640,1,0,,,,,,241935,,,,,,,
1026180,note_off,1380,0,1,,,,,,,,,0,,,80,0
1026240,note_off,240,0,2,,,,,,,,,1,,,70,0
1026240,set_tempo,120,1,0,,,,,,240000,,,,,,,
1026240,note_on,0,0,3,,,,,,,,,2,,,46,62
1026240,note_on,0,0,3,,,,,,,,,2,,,68,62
1026240,note_on,0,0,3,,,,,,,,,2,,,74,62
1026240,note_on,0,0,3,,,,,,,,,2,,,77,62
1026240,note_on,0,0,4,,,,,,,,,3,,,34,74
1026240,control_change,240,0,3,,,,,,,64,127,2,,,,
1026240,control_change,0,0,3,,,,,,,64,127,2,,,,
1026240,control_change,0,0,3,,,,,,,64,127,2,,,,
1026240,note_off,0,0,3,,,,,,,,,2,,,50,0
1026240,note_on,60,0,1,,,,,,,,,0,,,80,63
1026240,control_change,720,0,4,,,,,,,64,127,3,,,,
1026240,note_off,0,0,4,,,,,,,,,3,,,38,0
1026480,note_off,0,0,1,,,,,,,,,0,,,80,0
1026480,note_off,240,0,4,,,,,,,,,3,,,34,0
1026480,note_off,240,0,3,,,,,,,,,2,,,46,0
1026480,note_off,0,0,3,,,,,,,,,2,,,68,0
1026480,control_change,240,0,1,,,,,,,64,0,0,,,,
1026480,note_on,0,0,1,,,,,,,,,0,,,50,51
1026480,note_off,0,0,3,,,,,,,,,2,,,77,0
1026480,control_change,240,0,2,,,,,,,64,0,1,,,,
1026480,note_off,0,0,3,,,,,,,,,2,,,74,0
1026520,control_change,40,0,1,,,,,,,64,127,0,,,,
1026720,note_off,200,0,1,,,,,,,,,0,,,50,0
1026720,note_on,0,0,1,,,,,,,,,0,,,53,50
1026960,note_off,240,0,1,,,,,,,,,0,,,53,0
1026960,note_on,0,0,1,,,,,,,,,0,,,56,50
1027200,note_on,240,0,1,,,,,,,,,0,,,53,49
1027440,note_off,240,0,1,,,,,,,,,0,,,53,0
1027440,note_on,0,0,1,,,,,,,,,0,,,50,49
1027650,note_off,210,0,1,,,,,,,,,0,,,56,0
1027680,note_on,0,0,1,,,,,,,,,0,,,56,48
1027680,note_off,30,0,1,,,,,,,,,0,,,50,0
1027920,note_on,240,0,1,,,,,,,,,0,,,53,47
1028160,note_off,240,0,1,,,,,,,,,0,,,53,0
1028160,note_on,0,0,1,,,,,,,,,0,,,50,47
1028370,note_off,210,0,1,,,,,,,,,0,,,56,0
1028400,note_off,30,0,1,,,,,,,,,0,,,50,0
1028400,note_on,0,0,1,,,,,,,,,0,,,56,46
1028640,note_on,240,0,1,,,,,,,,,0,,,53,46
1028880,note_on,0,0,1,,,,,,,,,0,,,50,45
1028880,note_off,240,0,1,,,,,,,,,0,,,53,0
1029090,note_off,210,0,1,,,,,,,,,0,,,56,0
1029120,note_off,30,0,1,,,,,,,,,0,,,50,0
1029120,note_on,0,0,1,,,,,,,,,0,,,56,44
1029360,note_on,240,0,1,,,,,,,,,0,,,53,44
1029600,note_off,240,0,1,,,,,,,,,0,,,53,0
1029600,note_on,0,0,1,,,,,,,,,0,,,50,43
1029810,note_off,210,0,1,,,,,,,,,0,,,56,0
1029840,note_off,30,0,1,,,,,,,,,0,,,50,0
1029840,note_on,0,0,1,,,,,,,,,0,,,56,42
1030080,note_on,240,0,1,,,,,,,,,0,,,53,42
1030320,note_off,240,0,1,,,,,,,,,0,,,53,0
1030320,note_on,0,0,1,,,,,,,,,0,,,50,41
1030530,note_off,210,0,1,,,,,,,,,0,,,56,0
1030560,note_on,0,0,1,,,,,,,,,0,,,56,41
1030560,note_off,30,0,1,,,,,,,,,0,,,50,0
1030800,note_on,240,0,1,,,,,,,,,0,,,53,40
1031040,note_off,240,0,1,,,,,,,,,0,,,53,0
1031040,note_on,0,0,1,,,,,,,,,0,,,50,39
1031250,note_off,210,0,1,,,,,,,,,0,,,56,0
1031280,note_off,30,0,1,,,,,,,,,0,,,50,0
1031280,note_on,0,0,1,,,,,,,,,0,,,56,39
1031520,note_on,240,0,1,,,,,,,,,0,,,53,38
1031760,note_on,0,0,1,,,,,,,,,0,,,50,37
1031760,note_off,240,0,1,,,,,,,,,0,,,53,0
1031880,set_tempo,5640,1,0,,,,,,241935,,,,,,,
1031970,note_off,210,0,1,,,,,,,,,0,,,56,0
1032000,set_tempo,120,1,0,,,,,,240000,,,,,,,
1032000,note_off,30,0,1,,,,,,,,,0,,,50,0
1032000,note_on,0,0,1,,,,,,,,,0,,,56,37
1032240,note_on,240,0,1,,,,,,,,,0,,,53,36
1032480,note_off,240,0,1,,,,,,,,,0,,,53,0
1032480,note_on,0,0,1,,,,,,,,,0,,,50,36
1032690,note_off,210,0,1,,,,,,,,,0,,,56,0
1032720,note_on,0,0,1,,,,,,,,,0,,,56,35
1032720,note_off,30,0,1,,,,,,,,,0,,,50,0
1032960,note_on,240,0,1,,,,,,,,,0,,,53,34
1033200,note_on,0,0,1,,,,,,,,,0,,,50,34
1033200,note_off,240,0,1,,,,,,,,,0,,,53,0
1033410,note_off,210,0,1,,,,,,,,,0,,,56,0
1033440,note_off,30,0,1,,,,,,,,,0,,,50,0
1033440,note_on,0,0,1,,,,,,,,,0,,,56,33
1033680,note_on,240,0,1,,,,,,,,,0,,,53,33
1033920,note_off,240,0,1,,,,,,,,,0,,,53,0
1033920,note_on,0,0,1,,,,,,,,,0,,,50,32
1034130,note_off,210,0,1,,,,,,,,,0,,,56,0
1034160,note_off,30,0,1,,,,,,,,,0,,,50,0
1034160,note_on,0,0,1,,,,,,,,,0,,,56,31
1034400,note_on,240,0,1,,,,,,,,,0,,,53,31
1034640,note_off,240,0,1,,,,,,,,,0,,,53,0
1034640,note_on,0,0,1,,,,,,,,,0,,,50,30
1034850,note_off,210,0,1,,,,,,,,,0,,,56,0
1034880,note_off,30,0,1,,,,,,,,,0,,,50,0
1034880,note_on,0,0,1,,,,,,,,,0,,,56,29
1035120,note_on,240,0,1,,,,,,,,,0,,,53,29
1035360,note_off,240,0,1,,,,,,,,,0,,,53,0
1035360,note_on,0,0,1,,,,,,,,,0,,,50,28
1035570,note_off,210,0,1,,,,,,,,,0,,,56,0
1035600,note_off,30,0,1,,,,,,,,,0,,,50,0
1035600,note_on,0,0,1,,,,,,,,,0,,,56,28
1035840,note_on,240,0,1,,,,,,,,,0,,,53,27
1036080,note_on,0,0,1,,,,,,,,,0,,,50,26
1036080,note_off,240,0,1,,,,,,,,,0,,,53,0
1036290,note_off,210,0,1,,,,,,,,,0,,,56,0
1036320,note_on,0,0,1,,,,,,,,,0,,,56,28
1036320,note_off,30,0,1,,,,,,,,,0,,,50,0
1036560,note_on,240,0,1,,,,,,,,,0,,,53,27
1036560,set_tempo,4560,1,0,,,,,,241935,,,,,,,
1036800,note_off,240,0,1,,,,,,,,,0,,,53,0
1036800,note_on,0,0,1,,,,,,,,,0,,,50,26
1036800,set_tempo,240,1,0,,,,,,244897,,,,,,,
1037010,note_off,210,0,1,,,,,,,,,0,,,56,0
1037040,note_on,0,0,3,,,,,,,,,2,,,50,43
1037040,control_change,30,0,1,,,,,,,64,0,0,,,,
1037040,note_off,0,0,1,,,,,,,,,0,,,50,0
1037040,control_change,10560,0,4,,,,,,,64,0,3,,,,
1037040,control_change,10560,0,3,,,,,,,64,0,2,,,,
1037280,set_tempo,480,1,0,,,,,,241935,,,,,,,
1037280,note_on,0,0,3,,,,,,,,,2,,,51,43
1037280,note_off,240,0,3,,,,,,,,,2,,,50,0
1037520,note_on,0,0,3,,,,,,,,,2,,,55,43
1037520,note_off,240,0,3,,,,,,,,,2,,,51,0
1037640,set_tempo,360,1,0,,,,,,243902,,,,,,,
1037760,note_on,720,0,4,,,,,,,,,3,,,46,43
1037760,note_off,240,0,3,,,,,,,,,2,,,55,0
1037880,set_tempo,240,1,0,,,,,,240000,,,,,,,
1038000,note_on,240,0,3,,,,,,,,,2,,,51,42
1038240,note_on,0,0,3,,,,,,,,,2,,,55,42
1038240,note_off,240,0,3,,,,,,,,,2,,,51,0
1038480,note_on,720,0,4,,,,,,,,,3,,,50,42
1038480,note_off,240,0,3,,,,,,,,,2,,,55,0
1038506,note_off,26,0,4,,,,,,,,,3,,,46,0
1038720,note_on,240,0,3,,,,,,,,,2,,,51,41
1038960,note_off,240,0,3,,,,,,,,,2,,,51,0
1038960,note_on,0,0,3,,,,,,,,,2,,,55,41
1039200,note_off,240,0,3,,,,,,,,,2,,,55,0
1039200,note_on,694,0,4,,,,,,,,,3,,,46,41
1039226,note_off,26,0,4,,,,,,,,,3,,,50,0
1039440,note_on,240,0,3,,,,,,,,,2,,,51,41
1039680,note_off,240,0,3,,,,,,,,,2,,,51,0
1039680,note_on,0,0,3,,,,,,,,,2,,,55,40
1039920,note_off,240,0,3,,,,,,,,,2,,,55,0
1039920,note_on,694,0,4,,,,,,,,,3,,,50,40
1039946,note_off,26,0,4,,,,,,,,,3,,,46,0
1040160,note_on,240,0,3,,,,,,,,,2,,,51,40
1040400,note_off,240,0,3,,,,,,,,,2,,,51,0
1040400,note_on,0,0,3,,,,,,,,,2,,,55,40
1040400,note_on,3360,0,1,,,,,,,,,0,,,82,50
1040520,set_tempo,2640,1,0,,,,,,241935,,,,,,,
1040640,set_tempo,120,1,0,,,,,,240000,,,,,,,
1040640,note_on,694,0,4,,,,,,,,,3,,,46,39
1040640,note_off,240,0,1,,,,,,,,,0,,,82,0
1040640,note_on,0,0,1,,,,,,,,,0,,,82,57
1040640,note_off,240,0,3,,,,,,,,,2,,,55,0
1040666,note_off,26,0,4,,,,,,,,,3,,,50,0
1040880,note_on,240,0,3,,,,,,,,,2,,,53,39
1041120,note_off,240,0,3,,,,,,,,,2,,,53,0
1041120,note_on,0,0,3,,,,,,,,,2,,,56,39
1041120,note_on,0,0,1,,,,,,,,,0,,,80,54
1041120,note_off,480,0,1,,,,,,,,,0,,,82,0
1041360,note_on,0,0,1,,,,,,,,,0,,,77,53
1041360,note_off,240,0,3,,,,,,,,,2,,,56,0
1041360,note_off,240,0,1,,,,,,,,,0,,,80,0
1041360,note_on,694,0,4,,,,,,,,,3,,,52,38
1041386,note_off,26,0,4,,,,,,,,,3,,,46,0
1041600,note_on,240,0,3,,,,,,,,,2,,,53,38
1041840,note_on,0,0,3,,,,,,,,,2,,,56,38
1041840,note_on,0,0,1,,,,,,,,,0,,,74,50
1041840,note_off,480,0,1,,,,,,,,,0,,,77,0
1041840,note_off,240,0,3,,,,,,,,,2,,,53,0
1042037,note_off,651,0,4,,,,,,,,,3,,,52,0
1042080,note_off,240,0,3,,,,,,,,,2,,,56,0
1042080,note_on,43,0,4,,,,,,,,,3,,,46,38
1042080,note_off,240,0,1,,,,,,,,,0,,,74,0
1042080,note_on,0,0,1,,,,,,,,,0,,,75,46
1042320,note_on,240,0,3,,,,,,,,,2,,,51,37
1042560,note_on,0,0,3,,,,,,,,,2,,,55,37
1042560,note_off,240,0,3,,,,,,,,,2,,,51,0
1042560,note_off,480,0,1,,,,,,,,,0,,,75,0
1042800,note_off,240,0,3,,,,,,,,,2,,,55,0
1042800,note_on,720,0,4,,,,,,,,,3,,,50,37
1042826,note_off,26,0,4,,,,,,,,,3,,,46,0
1043040,note_on,240,0,3,,,,,,,,,2,,,51,36
1043280,note_off,240,0,3,,,,,,,,,2,,,51,0
1043280,note_on,0,0,3,,,,,,,,,2,,,55,36
1043280,note_on,720,0,1,,,,,,,,,0,,,70,48
1043400,set_tempo,2760,1,0,,,,,,241935,,,,,,,
1043520,note_on,694,0,4,,,,,,,,,3,,,46,36
1043520,set_tempo,120,1,0,,,,,,240000,,,,,,,
1043520,note_off,240,0,1,,,,,,,,,0,,,70,0
1043520,note_off,240,0,3,,,,,,,,,2,,,55,0
1043520,note_on,0,0,1,,,,,,,,,0,,,70,55
1043546,note_off,26,0,4,,,,,,,,,3,,,50,0
1043760,note_on,240,0,3,,,,,,,,,2,,,53,36
1044000,note_off,480,0,1,,,,,,,,,0,,,70,0
1044000,note_off,240,0,3,,,,,,,,,2,,,53,0
1044000,note_on,0,0,3,,,,,,,,,2,,,56,35
1044000,note_on,0,0,1,,,,,,,,,0,,,68,52
1044240,note_off,240,0,3,,,,,,,,,2,,,56,0
1044240,note_off,240,0,1,,,,,,,,,0,,,68,0
1044240,note_on,0,0,1,,,,,,,,,0,,,65,51
1044240,note_on,694,0,4,,,,,,,,,3,,,52,35
1044266,note_off,26,0,4,,,,,,,,,3,,,46,0
1044480,note_on,240,0,3,,,,,,,,,2,,,53,35
1044720,note_off,480,0,1,,,,,,,,,0,,,65,0
1044720,note_on,0,0,1,,,,,,,,,0,,,62,48
1044720,note_on,0,0,3,,,,,,,,,2,,,56,35
1044720,note_off,240,0,3,,,,,,,,,2,,,53,0
1044840,set_tempo,1320,1,0,,,,,,241935,,,,,,,
1044960,note_on,0,0,1,,,,,,,,,0,,,63,43
1044960,note_on,694,0,4,,,,,,,,,3,,,39,32
1044960,note_off,240,0,1,,,,,,,,,0,,,62,0
1044960,note_on,0,0,3,,,,,,,,,2,,,51,34
1044960,note_off,240,0,3,,,,,,,,,2,,,56,0
1044960,note_on,18480,0,2,,,,,,,,,1,,,55,43
1044963,note_off,3,0,4,,,,,,,,,3,,,52,0
1045440,note_off,480,0,3,,,,,,,,,2,,,51,0
1045440,note_off,480,0,1,,,,,,,,,0,,,63,0
1045440,note_off,480,0,2,,,,,,,,,1,,,55,0
1045440,note_off,477,0,4,,,,,,,,,3,,,39,0
1045920,note_on,480,0,3,,,,,,,,,2,,,51,37
1045920,set_tempo,1080,1,0,,,,,,241935,,,,,,,
1046160,note_on,0,0,3,,,,,,,,,2,,,55,37
1046160,note_off,240,0,3,,,,,,,,,2,,,51,0
1046280,set_tempo,360,1,0,,,,,,243902,,,,,,,
1046400,note_off,240,0,3,,,,,,,,,2,,,55,0
1046400,note_on,960,0,4,,,,,,,,,3,,,46,37
1046505,set_tempo,225,1,0,,,,,,240000,,,,,,,
1046640,note_on,240,0,3,,,,,,,,,2,,,51,36
1046880,note_on,0,0,3,,,,,,,,,2,,,55,36
1046880,note_off,240,0,3,,,,,,,,,2,,,51,0
1047120,note_on,720,0,4,,,,,,,,,3,,,50,36
1047120,note_off,240,0,3,,,,,,,,,2,,,55,0
1047123,note_off,3,0,4,,,,,,,,,3,,,46,0
1047360,note_on,240,0,3,,,,,,,,,2,,,51,35
1047600,note_off,240,0,3,,,,,,,,,2,,,51,0
1047600,note_on,0,0,3,,,,,,,,,2,,,55,35
1047840,note_off,240,0,3,,,,,,,,,2,,,55,0
1047840,note_on,717,0,4,,,,,,,,,3,,,46,35
1047843,note_off,3,0,4,,,,,,,,,3,,,50,0
1048080,note_on,240,0,3,,,,,,,,,2,,,51,35
1048320,note_off,240,0,3,,,,,,,,,2,,,51,0
1048320,note_on,0,0,3,,,,,,,,,2,,,55,34
1048560,note_on,717,0,4,,,,,,,,,3,,,50,34
1048560,note_off,240,0,3,,,,,,,,,2,,,55,0
1048563,note_off,3,0,4,,,,,,,,,3,,,46,0
1048800,note_on,240,0,3,,,,,,,,,2,,,51,34
1049040,note_on,0,0,3,,,,,,,,,2,,,55,33
1049040,note_off,240,0,3,,,,,,,,,2,,,51,0
1049040,note_on,3600,0,1,,,,,,,,,0,,,82,43
1049160,set_tempo,2655,1,0,,,,,,241935,,,,,,,
1049280,note_on,0,0,1,,,,,,,,,0,,,82,49
1049280,note_on,717,0,4,,,,,,,,,3,,,46,33
1049280,set_tempo,120,1,0,,,,,,240000,,,,,,,
1049280,note_off,240,0,3,,,,,,,,,2,,,55,0
1049280,note_off,240,0,1,,,,,,,,,0,,,82,0
1049283,note_off,3,0,4,,,,,,,,,3,,,50,0
1049520,note_on,240,0,3,,,,,,,,,2,,,53,33
1049760,note_off,240,0,3,,,,,,,,,2,,,53,0
1049760,note_on,0,0,3,,,,,,,,,2,,,56,33
1049760,note_on,0,0,1,,,,,,,,,0,,,80,46
1049760,note_off,480,0,1,,,,,,,,,0,,,82,0
1050000,note_on,0,0,1,,,,,,,,,0,,,77,45
1050000,note_off,240,0,3,,,,,,,,,2,,,56,0
1050000,note_off,240,0,1,,,,,,,,,0,,,80,0
1050000,note_on,717,0,4,,,,,,,,,3,,,52,32
1050003,note_off,3,0,4,,,,,,,,,3,,,46,0
1050240,note_on,240,0,3,,,,,,,,,2,,,53,32
1050480,note_off,240,0,3,,,,,,,,,2,,,53,0
1050480,note_on,0,0,3,,,,,,,,,2,,,56,32
1050480,note_off,480,0,1,,,,,,,,,0,,,77,0
1050480,note_on,0,0,1,,,,,,,,,0,,,74,42
1050700,note_off,697,0,4,,,,,,,,,3,,,52,0
1050720,note_on,20,0,4,,,,,,,,,3,,,46,31
1050720,note_off,240,0,3,,,,,,,,,2,,,56,0
1050720,note_off,240,0,1,,,,,,,,,0,,,74,0
1050720,note_on,0,0,1,,,,,,,,,0,,,75,38
1050960,note_on,240,0,3,,,,,,,,,2,,,51,31
1051200,note_off,480,0,1,,,,,,,,,0,,,75,0
1051200,note_off,240,0,3,,,,,,,,,2,,,51,0
1051200,note_on,0,0,3,,,,,,,,,2,,,55,31
1051440,note_off,240,0,3,,,,,,,,,2,,,55,0
1051440,note_on,720,0,4,,,,,,,,,3,,,50,31
1051443,note_off,3,0,4,,,,,,,,,3,,,46,0
1051680,note_on,240,0,3,,,,,,,,,2,,,51,30
1051920,note_on,0,0,3,,,,,,,,,2,,,55,30
1051920,note_on,720,0,1,,,,,,,,,0,,,70,41
1051920,note_off,240,0,3,,,,,,,,,2,,,51,0
1052040,set_tempo,2760,1,0,,,,,,241935,,,,,,,
1052160,note_off,240,0,3,,,,,,,,,2,,,55,0
1052160,note_on,0,0,1,,,,,,,,,0,,,70,47
1052160,note_off,240,0,1,,,,,,,,,0,,,70,0
1052160,note_on,717,0,4,,,,,,,,,3,,,46,30
1052160,set_tempo,120,1,0,,,,,,240000,,,,,,,
1052163,note_off,3,0,4,,,,,,,,,3,,,50,0
1052400,note_on,240,0,3,,,,,,,,,2,,,53,29
1052640,note_on,0,0,3,,,,,,,,,2,,,56,29
1052640,note_off,480,0,1,,,,,,,,,0,,,70,0
1052640,note_on,0,0,1,,,,,,,,,0,,,68,44
1052640,note_off,240,0,3,,,,,,,,,2,,,53,0
1052880,note_off,240,0,3,,,,,,,,,2,,,56,0
1052880,note_on,717,0,4,,,,,,,,,3,,,52,29
1052880,note_off,240,0,1,,,,,,,,,0,,,68,0
1052880,note_on,0,0,1,,,,,,,,,0,,,65,43
1052883,note_off,3,0,4,,,,,,,,,3,,,46,0
1053120,note_on,240,0,3,,,,,,,,,2,,,53,29
1053360,note_on,0,0,3,,,,,,,,,2,,,56,28
1053360,note_off,240,0,3,,,,,,,,,2,,,53,0
1053360,note_on,0,0,1,,,,,,,,,0,,,62,40
1053360,note_off,480,0,1,,,,,,,,,0,,,65,0
1053480,set_tempo,1320,1,0,,,,,,241935,,,,,,,
1053580,note_off,697,0,4,,,,,,,,,3,,,52,0
1053600,note_on,8160,0,2,,,,,,,,,1,,,55,36
1053600,note_on,0,0,1,,,,,,,,,0,,,63,36
1053600,note_off,240,0,1,,,,,,,,,0,,,62,0
1053600,note_on,20,0,4,,,,,,,,,3,,,39,28
1053600,note_on,0,0,3,,,,,,,,,2,,,51,28
1053600,note_off,240,0,3,,,,,,,,,2,,,56,0
1054080,note_off,480,0,2,,,,,,,,,1,,,55,0
1054080,note_off,480,0,3,,,,,,,,,2,,,51,0
1054080,note_off,480,0,1,,,,,,,,,0,,,63,0
1054080,note_off,480,0,4,,,,,,,,,3,,,39,0
1054320,note_on,240,0,1,,,,,,,,,0,,,58,58
1054476,note_off,156,0,1,,,,,,,,,0,,,58,0
1054800,set_tempo,1320,1,0,,,,,,243902,,,,,,,
1054800,note_on,324,0,1,,,,,,,,,0,,,58,59
1054956,note_off,156,0,1,,,,,,,,,0,,,58,0
1055040,note_on,960,0,4,,,,,,,,,3,,,51,74
1055040,control_change,960,0,3,,,,,,,10,73,2,,,,
1055040,note_on,960,0,2,,,,,,,,,1,,,55,77
1055040,note_on,84,0,1,,,,,,,,,0,,,63,77
1055040,set_tempo,240,1,0,,,,,,241935,,,,,,,
1055040,note_on,0,0,4,,,,,,,,,3,,,39,74
1055196,note_off,156,0,2,,,,,,,,,1,,,55,0
1055196,note_off,156,0,1,,,,,,,,,0,,,63,0
1055520,note_on,324,0,1,,,,,,,,,0,,,63,60
1055760,note_on,720,0,3,,,,,,,,,2,,,70,60
1055760,note_on,0,0,1,,,,,,,,,0,,,58,60
1055760,note_off,240,0,1,,,,,,,,,0,,,63,0
1055916,note_off,156,0,1,,,,,,,,,0,,,58,0
1056240,note_on,324,0,1,,,,,,,,,0,,,58,61
1056396,note_off,156,0,1,,,,,,,,,0,,,58,0
1056480,note_on,84,0,1,,,,,,,,,0,,,63,61
1056480,note_on,1284,0,2,,,,,,,,,1,,,55,61
1056636,note_off,156,0,1,,,,,,,,,0,,,63,0
1056636,note_off,156,0,2,,,,,,,,,1,,,55,0
1056960,note_on,324,0,1,,,,,,,,,0,,,63,62
1057165,note_off,1405,0,3,,,,,,,,,2,,,70,0
1057200,note_off,240,0,1,,,,,,,,,0,,,63,0
1057200,note_on,0,0,1,,,,,,,,,0,,,58,62
1057200,note_on,35,0,3,,,,,,,,,2,,,70,62
1057356,note_off,156,0,1,,,,,,,,,0,,,58,0
1057680,note_on,324,0,1,,,,,,,,,0,,,58,63
1057836,note_off,156,0,1,,,,,,,,,0,,,58,0
1057920,note_on,84,0,1,,,,,,,,,0,,,63,63
1057920,note_on,1284,0,2,,,,,,,,,1,,,55,63
1058076,note_off,156,0,2,,,,,,,,,1,,,55,0
1058076,note_off,156,0,1,,,,,,,,,0,,,63,0
1058400,note_on,324,0,1,,,,,,,,,0,,,63,64
1058605,note_off,1405,0,3,,,,,,,,,2,,,70,0
1058640,note_off,240,0,1,,,,,,,,,0,,,63,0
1058640,note_on,0,0,1,,,,,,,,,0,,,58,65
1058640,note_on,35,0,3,,,,,,,,,2,,,70,63
1058796,note_off,156,0,1,,,,,,,,,0,,,58,0
1059120,note_on,324,0,1,,,,,,,,,0,,,58,65
1059276,note_off,156,0,1,,,,,,,,,0,,,58,0
1059295,note_off,655,0,3,,,,,,,,,2,,,70,0
1059360,note_on,1284,0,2,,,,,,,,,1,,,62,63
1059360,note_on,65,0,3,,,,,,,,,2,,,70,64
1059360,note_on,84,0,1,,,,,,,,,0,,,65,63
1059516,note_off,156,0,1,,,,,,,,,0,,,65,0
1059516,note_off,156,0,2,,,,,,,,,1,,,62,0
1059840,note_on,324,0,1,,,,,,,,,0,,,65,66
1059840,note_on,324,0,2,,,,,,,,,1,,,62,66
1059895,note_off,0,0,4,,,,,,,,,3,,,51,0
1059895,note_off,4855,0,4,,,,,,,,,3,,,39,0
1060080,note_off,240,0,2,,,,,,,,,1,,,62,0
1060080,note_on,0,0,1,,,,,,,,,0,,,58,66
1060080,note_off,240,0,1,,,,,,,,,0,,,65,0
1060236,note_off,156,0,1,,,,,,,,,0,,,58,0
1060545,set_tempo,5505,1,0,,,,,,243902,,,,,,,
1060560,note_on,324,0,1,,,,,,,,,0,,,58,67
1060716,note_off,156,0,1,,,,,,,,,0,,,58,0
1060800,note_on,905,0,4,,,,,,,,,3,,,34,81
1060800,note_on,0,0,4,,,,,,,,,3,,,46,81
1060800,note_on,720,0,2,,,,,,,,,1,,,62,83
1060800,set_tempo,255,1,0,,,,,,241935,,,,,,,
1060800,note_on,84,0,1,,,,,,,,,0,,,65,83
1060956,note_off,156,0,2,,,,,,,,,1,,,62,0
1060956,note_off,156,0,1,,,,,,,,,0,,,65,0
1061280,note_on,324,0,1,,,,,,,,,0,,,65,69
1061280,note_on,324,0,2,,,,,,,,,1,,,62,69
1061465,note_off,2105,0,3,,,,,,,,,2,,,70,0
1061520,note_on,55,0,3,,,,,,,,,2,,,70,68
1061520,note_on,0,0,1,,,,,,,,,0,,,58,69
1061520,note_off,240,0,2,,,,,,,,,1,,,62,0
1061520,note_off,240,0,1,,,,,,,,,0,,,65,0
1061676,note_off,156,0,1,,,,,,,,,0,,,58,0
1062000,note_on,324,0,1,,,,,,,,,0,,,58,70
1062156,note_off,156,0,1,,,,,,,,,0,,,58,0
1062240,note_on,720,0,2,,,,,,,,,1,,,62,70
1062240,note_on,84,0,1,,,,,,,,,0,,,65,70
1062396,note_off,156,0,1,,,,,,,,,0,,,65,0
1062396,note_off,156,0,2,,,,,,,,,1,,,62,0
1062720,note_on,324,0,1,,,,,,,,,0,,,65,71
1062720,note_on,324,0,2,,,,,,,,,1,,,62,71
1062950,note_off,1430,0,3,,,,,,,,,2,,,70,0
1062960,note_off,240,0,2,,,,,,,,,1,,,62,0
1062960,note_off,240,0,1,,,,,,,,,0,,,65,0
1062960,note_on,0,0,1,,,,,,,,,0,,,58,72
1062960,note_on,10,0,3,,,,,,,,,2,,,70,70
1063116,note_off,156,0,1,,,,,,,,,0,,,58,0
1063440,note_on,324,0,1,,,,,,,,,0,,,58,72
1063596,note_off,156,0,1,,,,,,,,,0,,,58,0
1063680,note_on,720,0,2,,,,,,,,,1,,,62,73
1063680,note_on,84,0,1,,,,,,,,,0,,,65,73
1063836,note_off,156,0,2,,,,,,,,,1,,,62,0
1063836,note_off,156,0,1,,,,,,,,,0,,,65,0
1064160,note_on,324,0,2,,,,,,,,,1,,,62,74
1064160,note_on,324,0,1,,,,,,,,,0,,,65,74
1064315,note_off,1355,0,3,,,,,,,,,2,,,70,0
1064400,note_on,0,0,1,,,,,,,,,0,,,58,74
1064400,note_on,85,0,3,,,,,,,,,2,,,70,72
1064400,note_off,240,0,2,,,,,,,,,1,,,62,0
1064400,note_off,240,0,1,,,,,,,,,0,,,65,0
1064556,note_off,156,0,1,,,,,,,,,0,,,58,0
1064880,note_on,324,0,1,,,,,,,,,0,,,58,75
1065000,set_tempo,4200,1,0,,,,,,243902,,,,,,,
1065036,note_off,156,0,1,,,,,,,,,0,,,58,0
1065080,note_off,680,0,3,,,,,,,,,2,,,70,0
1065120,note_on,720,0,2,,,,,,,,,1,,,63,75
1065120,note_on,40,0,3,,,,,,,,,2,,,70,72
1065120,note_on,84,0,1,,,,,,,,,0,,,67,75
1065255,set_tempo,255,1,0,,,,,,241935,,,,,,,
1065276,note_off,156,0,2,,,,,,,,,1,,,63,0
1065276,note_off,156,0,1,,,,,,,,,0,,,67,0
1065600,note_on,324,0,1,,,,,,,,,0,,,67,65
1065600,note_off,480,0,3,,,,,,,,,2,,,70,0
1065655,note_off,4855,0,4,,,,,,,,,3,,,46,0
1065655,note_off,0,0,4,,,,,,,,,3,,,34,0
1065840,note_off,240,0,1,,,,,,,,,0,,,67,0
1065840,note_on,185,0,4,,,,,,,,,3,,,51,52
1065840,note_on,0,0,1,,,,,,,,,0,,,63,54
1065996,note_off,156,0,1,,,,,,,,,0,,,63,0
1066320,note_on,324,0,1,,,,,,,,,0,,,63,55
1066476,note_off,156,0,1,,,,,,,,,0,,,63,0
1066560,control_change,960,0,3,,,,,,,10,64,2,,,,
1066560,note_on,720,0,4,,,,,,,,,3,,,48,53
1066560,note_on,84,0,1,,,,,,,,,0,,,68,55
1066716,note_off,156,0,1,,,,,,,,,0,,,68,0
1067040,note_on,324,0,1,,,,,,,,,0,,,68,56
1067280,note_off,240,0,1,,,,,,,,,0,,,68,0
1067280,note_off,720,0,4,,,,,,,,,3,,,48,0
1067280,note_on,0,0,1,,,,,,,,,0,,,72,56
1067280,note_on,0,0,4,,,,,,,,,3,,,44,54
1067436,note_off,156,0,1,,,,,,,,,0,,,72,0
1067760,note_on,324,0,1,,,,,,,,,0,,,72,57
1068000,note_off,240,0,1,,,,,,,,,0,,,72,0
1068000,note_on,0,0,1,,,,,,,,,0,,,70,58
1068000,note_off,720,0,4,,,,,,,,,3,,,44,0
1068000,note_on,0,0,4,,,,,,,,,3,,,43,55
1068156,note_off,156,0,1,,,,,,,,,0,,,70,0
1068480,note_off,0,0,4,,,,,,,,,3,,,51,0
1068480,note_on,324,0,1,,,,,,,,,0,,,70,59
1068480,note_off,480,0,4,,,,,,,,,3,,,43,0
1068720,note_on,0,0,1,,,,,,,,,0,,,75,59
1068720,note_on,240,0,4,,,,,,,,,3,,,51,56
1068720,note_off,240,0,1,,,,,,,,,0,,,70,0
1068876,note_off,156,0,1,,,,,,,,,0,,,75,0
1069200,note_on,324,0,1,,,,,,,,,0,,,75,60
1069440,note_off,240,0,1,,,,,,,,,0,,,75,0
1069440,note_on,720,0,4,,,,,,,,,3,,,48,57
1069440,note_on,0,0,1,,,,,,,,,0,,,80,61
1069596,note_off,156,0,1,,,,,,,,,0,,,80,0
1069920,note_on,324,0,1,,,,,,,,,0,,,80,61
1070160,note_off,720,0,4,,,,,,,,,3,,,48,0
1070160,note_on,0,0,4,,,,,,,,,3,,,44,58
1070160,note_on,0,0,1,,,,,,,,,0,,,84,62
1070160,note_off,240,0,1,,,,,,,,,0,,,80,0
1070316,note_off,156,0,1,,,,,,,,,0,,,84,0
1070640,note_on,324,0,1,,,,,,,,,0,,,84,63
1070880,note_on,0,0,4,,,,,,,,,3,,,43,59
1070880,note_off,720,0,4,,,,,,,,,3,,,44,0
1070880,note_on,0,0,1,,,,,,,,,0,,,82,63
1070880,note_off,240,0,1,,,,,,,,,0,,,84,0
1071036,note_off,156,0,1,,,,,,,,,0,,,82,0
1071360,note_off,480,0,4,,,,,,,,,3,,,43,0
1071360,note_on,324,0,1,,,,,,,,,0,,,70,64
1071360,note_off,0,0,4,,,,,,,,,3,,,51,0
1071600,control_change,240,0,4,,,,,,,64,0,3,,,,
1071600,note_on,0,0,4,,,,,,,,,3,,,51,60
1071600,control_change,240,0,1,,,,,,,64,0,0,,,,
1071600,note_off,0,0,1,,,,,,,,,0,,,70,0
1071600,note_on,0,0,1,,,,,,,,,0,,,63,65
1071756,note_off,156,0,1,,,,,,,,,0,,,63,0
1072080,note_on,324,0,1,,,,,,,,,0,,,63,66
1072320,note_on,0,0,1,,,,,,,,,0,,,68,66
1072320,note_off,240,0,1,,,,,,,,,0,,,63,0
1072320,note_on,720,0,4,,,,,,,,,3,,,48,61
1072476,note_off,156,0,1,,,,,,,,,0,,,68,0
1072800,note_on,324,0,1,,,,,,,,,0,,,68,67
1073040,note_on,0,0,4,,,,,,,,,3,,,44,62
1073040,note_off,240,0,1,,,,,,,,,0,,,68,0
1073040,note_on,0,0,1,,,,,,,,,0,,,72,67
1073040,note_off,720,0,4,,,,,,,,,3,,,48,0
1073196,note_off,156,0,1,,,,,,,,,0,,,72,0
1073520,note_on,324,0,1,,,,,,,,,0,,,72,68
1073760,note_off,720,0,4,,,,,,,,,3,,,44,0
1073760,note_off,240,0,1,,,,,,,,,0,,,72,0
1073760,note_on,0,0,1,,,,,,,,,0,,,70,67
1073760,note_on,0,0,4,,,,,,,,,3,,,43,62
1073916,note_off,156,0,1,,,,,,,,,0,,,70,0
1074240,note_off,480,0,4,,,,,,,,,3,,,43,0
1074240,note_off,0,0,4,,,,,,,,,3,,,51,0
1074240,note_on,324,0,1,,,,,,,,,0,,,67,65
1074480,note_on,240,0,4,,,,,,,,,3,,,44,61
1074480,note_on,0,0,4,,,,,,,,,3,,,53,61
1074480,note_off,240,0,1,,,,,,,,,0,,,67,0
1074480,note_on,0,0,1,,,,,,,,,0,,,65,64
1074636,note_off,156,0,1,,,,,,,,,0,,,65,0
1074960,note_off,0,0,4,,,,,,,,,3,,,44,0
1074960,note_off,480,0,4,,,,,,,,,3,,,53,0
1074960,note_on,324,0,1,,,,,,,,,0,,,68,62
1075200,note_on,240,0,4,,,,,,,,,3,,,46,59
1075200,note_on,0,0,1,,,,,,,,,0,,,63,61
1075200,note_off,240,0,1,,,,,,,,,0,,,68,0
1075200,note_on,0,0,4,,,,,,,,,3,,,55,59
1075356,note_off,156,0,1,,,,,,,,,0,,,63,0
1075680,note_off,480,0,4,,,,,,,,,3,,,55,0
1075680,note_off,0,0,4,,,,,,,,,3,,,46,0
1075680,note_on,324,0,1,,,,,,,,,0,,,67,59
1075920,note_on,0,0,1,,,,,,,,,0,,,62,58
1075920,note_off,240,0,1,,,,,,,,,0,,,67,0
1075920,note_on,240,0,4,,,,,,,,,3,,,46,58
1075920,note_on,0,0,4,,,,,,,,,3,,,56,58
1076076,note_off,156,0,1,,,,,,,,,0,,,62,0
1076400,note_on,324,0,1,,,,,,,,,0,,,68,56
1076400,note_off,480,0,4,,,,,,,,,3,,,56,0
1076400,note_off,0,0,4,,,,,,,,,3,,,46,0
1076520,set_tempo,11265,1,0,,,,,,243902,,,,,,,
1076640,note_on,0,0,1,,,,,,,,,0,,,63,55
1076640,note_off,240,0,1,,,,,,,,,0,,,68,0
1076640,note_on,240,0,4,,,,,,,,,3,,,39,56
1076775,set_tempo,255,1,0,,,,,,241935,,,,,,,
1077120,note_off,480,0,4,,,,,,,,,3,,,39,0
1077120,note_off,480,0,1,,,,,,,,,0,,,63,0
1077360,note_on,240,0,1,,,,,,,,,0,,,63,55
1077360,note_on,240,0,4,,,,,,,,,3,,,51,54
1077516,note_off,156,0,1,,,,,,,,,0,,,63,0
1077840,note_on,324,0,1,,,,,,,,,0,,,63,54
1078080,note_off,240,0,1,,,,,,,,,0,,,63,0
1078080,note_on,0,0,1,,,,,,,,,0,,,68,55
1078080,note_on,720,0,4,,,,,,,,,3,,,47,55
1078236,note_off,156,0,1,,,,,,,,,0,,,68,0
1078560,note_on,324,0,1,,,,,,,,,0,,,68,56
1078800,note_off,720,0,4,,,,,,,,,3,,,47,0
1078800,note_off,240,0,1,,,,,,,,,0,,,68,0
1078800,note_on,0,0,1,,,,,,,,,0,,,71,57
1078800,note_on,0,0,4,,,,,,,,,3,,,44,56
1078956,note_off,156,0,1,,,,,,,,,0,,,71,0
1079280,note_on,324,0,1,,,,,,,,,0,,,71,58
1079520,note_off,240,0,1,,,,,,,,,0,,,71,0
1079520,note_on,0,0,1,,,,,,,,,0,,,70,59
1079520,note_off,720,0,4,,,,,,,,,3,,,44,0
1079520,note_on,0,0,4,,,,,,,,,3,,,42,57
1079676,note_off,156,0,1,,,,,,,,,0,,,70,0
1080000,note_on,324,0,1,,,,,,,,,0,,,70,60
1080000,note_off,480,0,4,,,,,,,,,3,,,42,0
1080000,note_off,0,0,4,,,,,,,,,3,,,51,0
1080240,note_off,240,0,1,,,,,,,,,0,,,70,0
1080240,note_on,0,0,1,,,,,,,,,0,,,75,61
1080240,note_on,240,0,4,,,,,,,,,3,,,51,59
1080396,note_off,156,0,1,,,,,,,,,0,,,75,0
1080720,note_on,324,0,1,,,,,,,,,0,,,75,63
1080960,note_on,720,0,4,,,,,,,,,3,,,47,60
1080960,note_off,240,0,1,,,,,,,,,0,,,75,0
1080960,note_on,0,0,1,,,,,,,,,0,,,80,63
1081116,note_off,156,0,1,,,,,,,,,0,,,80,0
1081440,note_on,324,0,1,,,,,,,,,0,,,80,65
1081680,note_off,720,0,4,,,,,,,,,3,,,47,0
1081680,note_on,0,0,4,,,,,,,,,3,,,44,61
1081680,note_off,240,0,1,,,,,,,,,0,,,80,0
1081680,note_on,0,0,1,,,,,,,,,0,,,83,66
1081836,note_off,156,0,1,,,,,,,,,0,,,83,0
1082160,note_on,324,0,1,,,,,,,,,0,,,83,67
1082280,set_tempo,5505,1,0,,,,,,243902,,,,,,,
1082400,note_on,0,0,4,,,,,,,,,3,,,42,63
1082400,note_off,720,0,4,,,,,,,,,3,,,44,0
1082400,note_off,240,0,1,,,,,,,,,0,,,83,0
1082400,note_on,0,0,1,,,,,,,,,0,,,82,63
1082535,set_tempo,255,1,0,,,,,,241935,,,,,,,
1082556,note_off,156,0,1,,,,,,,,,0,,,82,0
1082880,note_on,324,0,1,,,,,,,,,0,,,70,60
1082880,note_off,0,0,4,,,,,,,,,3,,,51,0
1082880,note_off,480,0,4,,,,,,,,,3,,,42,0
1083120,note_on,240,0,4,,,,,,,,,3,,,54,59
1083120,note_on,0,0,1,,,,,,,,,0,,,66,60
1083120,note_off,240,0,1,,,,,,,,,0,,,70,0
1083276,note_off,156,0,1,,,,,,,,,0,,,66,0
1083600,note_on,324,0,1,,,,,,,,,0,,,66,62
1083840,note_off,240,0,1,,,,,,,,,0,,,66,0
1083840,note_on,720,0,4,,,,,,,,,3,,,51,60
1083840,note_on,0,0,1,,,,,,,,,0,,,71,63
1083996,note_off,156,0,1,,,,,,,,,0,,,71,0
1084320,note_on,324,0,1,,,,,,,,,0,,,71,64
1084560,note_on,0,0,1,,,,,,,,,0,,,75,65
1084560,note_on,0,0,4,,,,,,,,,3,,,47,61
1084560,note_off,720,0,4,,,,,,,,,3,,,51,0
1084560,note_off,240,0,1,,,,,,,,,0,,,71,0
1084716,note_off,156,0,1,,,,,,,,,0,,,75,0
1085040,note_on,324,0,1,,,,,,,,,0,,,75,67
1085160,set_tempo,2625,1,0,,,,,,243902,,,,,,,
1085280,note_off,720,0,4,,,,,,,,,3,,,47,0
1085280,note_on,0,0,4,,,,,,,,,3,,,46,63
1085280,note_off,240,0,1,,,,,,,,,0,,,75,0
1085280,note_on,0,0,1,,,,,,,,,0,,,73,67
1085415,set_tempo,255,1,0,,,,,,241935,,,,,,,
1085436,note_off,156,0,1,,,,,,,,,0,,,73,0
1085760,note_off,480,0,4,,,,,,,,,3,,,46,0
1085760,note_off,0,0,4,,,,,,,,,3,,,54,0
1085760,note_on,324,0,1,,,,,,,,,0,,,73,69
1086000,note_on,0,0,1,,,,,,,,,0,,,78,70
1086000,note_on,240,0,4,,,,,,,,,3,,,54,64
1086000,note_off,240,0,1,,,,,,,,,0,,,73,0
1086156,note_off,156,0,1,,,,,,,,,0,,,78,0
1086480,note_on,324,0,1,,,,,,,,,0,,,78,71
1086720,note_off,240,0,1,,,,,,,,,0,,,78,0
1086720,note_on,720,0,4,,,,,,,,,3,,,51,66
1086720,note_on,0,0,1,,,,,,,,,0,,,83,72
1086876,note_off,156,0,1,,,,,,,,,0,,,83,0
1087200,note_on,324,0,1,,,,,,,,,0,,,83,74
1087440,note_on,0,0,1,,,,,,,,,0,,,87,75
1087440,note_on,0,0,4,,,,,,,,,3,,,47,67
1087440,note_off,720,0,4,,,,,,,,,3,,,51,0
1087440,note_off,240,0,1,,,,,,,,,0,,,83,0
1087596,note_off,156,0,1,,,,,,,,,0,,,87,0
1087920,note_on,324,0,1,,,,,,,,,0,,,87,76
1088040,set_tempo,2625,1,0,,,,,,243902,,,,,,,
1088160,note_off,240,0,1,,,,,,,,,0,,,87,0
1088160,note_on,0,0,1,,,,,,,,,0,,,85,77
1088160,note_on,0,0,4,,,,,,,,,3,,,46,69
1088160,note_off,720,0,4,,,,,,,,,3,,,47,0
1088295,set_tempo,255,1,0,,,,,,241935,,,,,,,
1088316,note_off,156,0,1,,,,,,,,,0,,,85,0
1088640,note_on,324,0,1,,,,,,,,,0,,,75,75
1088640,note_off,480,0,4,,,,,,,,,3,,,46,0
1088640,note_off,0,0,4,,,,,,,,,3,,,54,0
1088880,note_off,240,0,1,,,,,,,,,0,,,75,0
1088880,note_on,0,0,1,,,,,,,,,0,,,66,71
1088880,note_on,240,0,4,,,,,,,,,3,,,57,69
1089036,note_off,156,0,1,,,,,,,,,0,,,66,0
1089360,note_on,324,0,1,,,,,,,,,0,,,66,73
1089600,note_off,240,0,1,,,,,,,,,0,,,66,0
1089600,note_off,720,0,4,,,,,,,,,3,,,57,0
1089600,note_on,0,0,4,,,,,,,,,3,,,56,73
1089600,note_on,0,0,1,,,,,,,,,0,,,72,75
1089756,note_off,156,0,1,,,,,,,,,0,,,72,0
1090080,note_on,324,0,1,,,,,,,,,0,,,72,78
1090320,note_off,720,0,4,,,,,,,,,3,,,56,0
1090320,note_on,0,0,4,,,,,,,,,3,,,54,72
1090320,note_off,240,0,1,,,,,,,,,0,,,72,0
1090320,note_on,0,0,1,,,,,,,,,0,,,75,80
1090476,note_off,156,0,1,,,,,,,,,0,,,75,0
1090800,note_on,324,0,1,,,,,,,,,0,,,75,83
1090800,set_tempo,2505,1,0,,,,,,243902,,,,,,,
1091040,control_change,720,0,4,,,,,,,64,0,3,,,,
1091040,note_off,0,0,4,,,,,,,,,3,,,54,0
1091040,note_on,0,0,4,,,,,,,,,3,,,53,72
1091040,control_change,240,0,1,,,,,,,64,0,0,,,,
1091040,note_off,0,0,1,,,,,,,,,0,,,75,0
1091040,note_on,0,0,1,,,,,,,,,0,,,73,76
1091175,set_tempo,375,1,0,,,,,,240000,,,,,,,
1091280,note_on,24720,0,3,,,,,,,,,2,,,56,70
1091520,note_off,240,0,3,,,,,,,,,2,,,56,0
1091520,note_on,0,0,3,,,,,,,,,2,,,59,70
1091760,note_off,240,0,3,,,,,,,,,2,,,59,0
1091760,note_off,720,0,4,,,,,,,,,3,,,53,0
1091760,note_on,0,0,4,,,,,,,,,3,,,53,73
1092000,note_on,240,0,3,,,,,,,,,2,,,56,70
1092240,note_on,0,0,3,,,,,,,,,2,,,59,71
1092240,note_off,240,0,3,,,,,,,,,2,,,56,0
1092437,note_off,677,0,4,,,,,,,,,3,,,53,0
1092480,note_on,43,0,4,,,,,,,,,3,,,53,74
1092480,note_off,240,0,3,,,,,,,,,2,,,59,0
1092720,note_on,240,0,3,,,,,,,,,2,,,56,71
1092960,note_on,0,0,3,,,,,,,,,2,,,59,71
1092960,note_off,240,0,3,,,,,,,,,2,,,56,0
1092960,note_off,1920,0,1,,,,,,,,,0,,,73,0
1093200,note_off,240,0,3,,,,,,,,,2,,,59,0
1093200,note_off,720,0,4,,,,,,,,,3,,,53,0
1093200,note_on,240,0,1,,,,,,,,,0,,,73,78
1093200,note_on,0,0,4,,,,,,,,,3,,,53,74
1093440,note_on,240,0,3,,,,,,,,,2,,,56,71
1093680,note_off,480,0,1,,,,,,,,,0,,,73,0
1093680,note_on,0,0,3,,,,,,,,,2,,,59,72
1093680,note_off,240,0,3,,,,,,,,,2,,,56,0
1093877,note_off,677,0,4,,,,,,,,,3,,,53,0
1093920,note_off,240,0,3,,,,,,,,,2,,,59,0
1093920,note_on,240,0,1,,,,,,,,,0,,,73,79
1093920,note_on,43,0,4,,,,,,,,,3,,,53,75
1094160,note_on,240,0,3,,,,,,,,,2,,,56,72
1094400,note_on,0,0,3,,,,,,,,,2,,,59,72
1094400,note_off,240,0,3,,,,,,,,,2,,,56,0
1094400,note_off,480,0,1,,,,,,,,,0,,,73,0
1094597,note_off,677,0,4,,,,,,,,,3,,,53,0
1094640,note_off,240,0,3,,,,,,,,,2,,,59,0
1094640,note_on,43,0,4,,,,,,,,,3,,,53,75
1094640,note_on,240,0,1,,,,,,,,,0,,,73,80
1094880,note_on,240,0,3,,,,,,,,,2,,,56,72
1095120,note_on,0,0,3,,,,,,,,,2,,,59,72
1095120,note_off,240,0,3,,,,,,,,,2,,,56,0
1095120,note_off,480,0,1,,,,,,,,,0,,,73,0
1095317,note_off,677,0,4,,,,,,,,,3,,,53,0
1095360,note_off,240,0,3,,,,,,,,,2,,,59,0
1095360,note_on,43,0,4,,,,,,,,,3,,,53,76
1095360,note_on,240,0,1,,,,,,,,,0,,,73,80
1095600,note_on,240,0,4,,,,,,,,,3,,,56,73
1095840,note_on,0,0,4,,,,,,,,,3,,,59,73
1095840,note_off,240,0,4,,,,,,,,,3,,,56,0
1095840,note_off,480,0,1,,,,,,,,,0,,,73,0
1096080,note_on,240,0,1,,,,,,,,,0,,,73,81
1096080,note_on,0,0,4,,,,,,,,,3,,,58,73
1096080,note_off,240,0,4,,,,,,,,,3,,,59,0
1096320,note_on,0,0,4,,,,,,,,,3,,,56,73
1096320,note_off,240,0,4,,,,,,,,,3,,,58,0
1096560,note_off,480,0,1,,,,,,,,,0,,,73,0
1096560,note_off,240,0,4,,,,,,,,,3,,,56,0
1096560,note_on,0,0,4,,,,,,,,,3,,,54,73
1096680,set_tempo,5505,1,0,,,,,,241935,,,,,,,
1096773,note_off,213,0,4,,,,,,,,,3,,,53,0
1096800,set_tempo,120,1,0,,,,,,240000,,,,,,,
1096800,note_on,0,0,4,,,,,,,,,3,,,53,77
1096800,note_on,240,0,1,,,,,,,,,0,,,73,82
1096800,note_off,27,0,4,,,,,,,,,3,,,54,0
1097040,note_on,1680,0,3,,,,,,,,,2,,,56,74
1097280,note_off,240,0,3,,,,,,,,,2,,,56,0
1097280,note_on,0,0,3,,,,,,,,,2,,,59,74
1097477,note_off,677,0,4,,,,,,,,,3,,,53,0
1097520,note_off,240,0,3,,,,,,,,,2,,,59,0
1097520,note_on,720,0,1,,,,,,,,,0,,,85,92
1097520,note_on,43,0,4,,,,,,,,,3,,,53,78
1097760,note_on,240,0,3,,,,,,,,,2,,,56,74
1098000,note_off,240,0,3,,,,,,,,,2,,,56,0
1098000,note_on,0,0,3,,,,,,,,,2,,,59,74
1098197,note_off,677,0,4,,,,,,,,,3,,,53,0
1098240,note_off,240,0,3,,,,,,,,,2,,,59,0
1098240,note_on,43,0,4,,,,,,,,,3,,,53,78
1098480,note_on,240,0,3,,,,,,,,,2,,,56,75
1098720,note_off,240,0,3,,,,,,,,,2,,,56,0
1098720,note_on,0,0,3,,,,,,,,,2,,,59,75
1098871,note_off,1351,0,1,,,,,,,,,0,,,85,0
1098917,note_off,677,0,4,,,,,,,,,3,,,53,0
1098934,note_off,63,0,1,,,,,,,,,0,,,73,0
1098960,note_off,240,0,3,,,,,,,,,2,,,59,0
1098960,note_on,33684,0,2,,,,,,,,,1,,,73,84
1098960,note_on,43,0,4,,,,,,,,,3,,,53,79
1098960,note_on,26,0,1,,,,,,,,,0,,,85,84
1099200,note_on,240,0,3,,,,,,,,,2,,,56,75
1099440,note_off,480,0,1,,,,,,,,,0,,,85,0
1099440,note_on,0,0,3,,,,,,,,,2,,,59,75
1099440,note_off,240,0,3,,,,,,,,,2,,,56,0
1099440,note_off,480,0,2,,,,,,,,,1,,,73,0
1099637,note_off,677,0,4,,,,,,,,,3,,,53,0
1099680,note_on,240,0,2,,,,,,,,,1,,,73,85
1099680,note_on,43,0,4,,,,,,,,,3,,,53,80
1099680,note_on,240,0,1,,,,,,,,,0,,,85,85
1099680,note_off,240,0,3,,,,,,,,,2,,,59,0
1099920,note_on,240,0,3,,,,,,,,,2,,,56,76
1100160,note_on,0,0,3,,,,,,,,,2,,,59,76
1100160,note_off,240,0,3,,,,,,,,,2,,,56,0
1100160,note_off,480,0,1,,,,,,,,,0,,,85,0
1100160,note_off,480,0,2,,,,,,,,,1,,,73,0
1100357,note_off,677,0,4,,,,,,,,,3,,,53,0
1100400,note_off,240,0,3,,,,,,,,,2,,,59,0
1100400,note_on,240,0,1,,,,,,,,,0,,,85,86
1100400,note_on,43,0,4,,,,,,,,,3,,,53,80
1100400,note_on,240,0,2,,,,,,,,,1,,,73,86
1100640,note_on,240,0,3,,,,,,,,,2,,,56,76
1100880,note_on,0,0,3,,,,,,,,,2,,,59,76
1100880,note_off,240,0,3,,,,,,,,,2,,,56,0
1100880,note_off,480,0,1,,,,,,,,,0,,,85,0
1100880,note_off,480,0,2,,,,,,,,,1,,,73,0
1101077,note_off,677,0,4,,,,,,,,,3,,,53,0
1101120,note_on,240,0,2,,,,,,,,,1,,,73,86
1101120,note_on,240,0,1,,,,,,,,,0,,,85,86
1101120,note_off,240,0,3,,,,,,,,,2,,,59,0
1101120,note_on,43,0,4,,,,,,,,,3,,,53,81
1101360,note_on,240,0,3,,,,,,,,,2,,,56,77
1101600,note_on,0,0,3,,,,,,,,,2,,,59,77
1101600,note_off,480,0,2,,,,,,,,,1,,,73,0
1101600,note_off,480,0,1,,,,,,,,,0,,,85,0
1101600,note_off,240,0,3,,,,,,,,,2,,,56,0
1101797,note_off,677,0,4,,,,,,,,,3,,,53,0
1101840,note_on,240,0,2,,,,,,,,,1,,,73,87
1101840,note_on,43,0,4,,,,,,,,,3,,,53,81
1101840,note_on,240,0,1,,,,,,,,,0,,,85,87
1101840,note_off,240,0,3,,,,,,,,,2,,,59,0
1102080,note_on,240,0,3,,,,,,,,,2,,,56,77
1102320,note_off,240,0,3,,,,,,,,,2,,,56,0
1102320,note_off,480,0,2,,,,,,,,,1,,,73,0
1102320,note_on,0,0,3,,,,,,,,,2,,,59,77
1102320,note_off,480,0,1,,,,,,,,,0,,,85,0
1102440,set_tempo,5640,1,0,,,,,,241935,,,,,,,
1102517,note_off,677,0,4,,,,,,,,,3,,,53,0
1102560,note_off,240,0,3,,,,,,,,,2,,,59,0
1102560,note_on,240,0,1,,,,,,,,,0,,,85,89
1102560,set_tempo,120,1,0,,,,,,240000,,,,,,,
1102560,note_on,240,0,2,,,,,,,,,1,,,73,89
1102560,note_on,43,0,4,,,,,,,,,3,,,53,85
1102800,note_on,240,0,4,,,,,,,,,3,,,56,85
1103040,note_off,240,0,4,,,,,,,,,3,,,56,0
1103040,note_on,0,0,4,,,,,,,,,3,,,59,85
1103040,note_off,480,0,2,,,,,,,,,1,,,73,0
1103040,note_off,480,0,1,,,,,,,,,0,,,85,0
1103040,note_on,0,0,1,,,,,,,,,0,,,77,88
1103040,end_of_track,0,1,2,,,,,,,,,,,,,
1103280,note_off,240,0,4,,,,,,,,,3,,,59,0
1103280,note_on,0,0,4,,,,,,,,,3,,,58,85
1103280,note_on,0,0,1,,,,,,,,,0,,,78,87
1103280,note_off,240,0,1,,,,,,,,,0,,,77,0
1103375,note_off,95,0,4,,,,,,,,,3,,,53,0
1103520,note_on,0,0,1,,,,,,,,,0,,,80,86
1103520,note_off,145,0,4,,,,,,,,,3,,,58,0
1103520,note_on,0,0,4,,,,,,,,,3,,,56,85
1103520,note_off,240,0,1,,,,,,,,,0,,,78,0
1103760,note_off,240,0,1,,,,,,,,,0,,,80,0
1103760,note_on,0,0,1,,,,,,,,,0,,,82,85
1103760,note_on,0,0,4,,,,,,,,,3,,,54,84
1103760,note_off,240,0,4,,,,,,,,,3,,,56,0
1104000,note_off,240,0,1,,,,,,,,,0,,,82,0
1104000,note_on,0,0,4,,,,,,,,,3,,,53,84
1104000,note_off,240,0,4,,,,,,,,,3,,,54,0
1104240,note_on,0,0,4,,,,,,,,,3,,,54,83
1104240,note_off,240,0,4,,,,,,,,,3,,,53,0
1104480,note_off,240,0,4,,,,,,,,,3,,,54,0
1104480,note_on,0,0,4,,,,,,,,,3,,,56,83
1104480,note_on,480,0,1,,,,,,,,,0,,,74,83
1104720,note_off,240,0,4,,,,,,,,,3,,,56,0
1104720,note_on,0,0,4,,,,,,,,,3,,,54,82
1104720,note_off,240,0,1,,,,,,,,,0,,,74,0
1104720,note_on,0,0,1,,,,,,,,,0,,,75,82
1104960,note_on,0,0,4,,,,,,,,,3,,,53,81
1104960,note_off,240,0,4,,,,,,,,,3,,,54,0
1104960,note_off,240,0,1,,,,,,,,,0,,,75,0
1104960,note_on,0,0,1,,,,,,,,,0,,,77,81
1105200,note_on,0,0,1,,,,,,,,,0,,,78,80
1105200,note_on,0,0,4,,,,,,,,,3,,,51,81
1105200,note_off,240,0,4,,,,,,,,,3,,,53,0
1105200,note_off,240,0,1,,,,,,,,,0,,,77,0
1105440,note_on,0,0,4,,,,,,,,,3,,,49,80
1105440,note_off,240,0,4,,,,,,,,,3,,,51,0
1105440,note_off,240,0,1,,,,,,,,,0,,,78,0
1105680,note_on,0,0,4,,,,,,,,,3,,,51,79
1105680,note_off,240,0,4,,,,,,,,,3,,,49,0
1105920,note_on,0,0,4,,,,,,,,,3,,,52,79
1105920,note_on,480,0,1,,,,,,,,,0,,,70,78
1105920,note_off,240,0,4,,,,,,,,,3,,,51,0
1106160,note_on,0,0,1,,,,,,,,,0,,,71,77
1106160,note_on,0,0,4,,,,,,,,,3,,,51,78
1106160,note_off,240,0,1,,,,,,,,,0,,,70,0
1106160,note_off,240,0,4,,,,,,,,,3,,,52,0
1106400,note_on,0,0,1,,,,,,,,,0,,,73,76
1106400,note_on,0,0,4,,,,,,,,,3,,,49,77
1106400,note_off,240,0,4,,,,,,,,,3,,,51,0
1106400,note_off,240,0,1,,,,,,,,,0,,,71,0
1106640,note_off,240,0,1,,,,,,,,,0,,,73,0
1106640,note_on,0,0,1,,,,,,,,,0,,,75,75
1106640,note_on,0,0,4,,,,,,,,,3,,,47,77
1106640,note_off,240,0,4,,,,,,,,,3,,,49,0
1106880,note_off,240,0,1,,,,,,,,,0,,,75,0
1106880,note_on,0,0,4,,,,,,,,,3,,,46,76
1106880,note_off,240,0,4,,,,,,,,,3,,,47,0
1107120,note_on,0,0,4,,,,,,,,,3,,,47,76
1107120,note_off,240,0,4,,,,,,,,,3,,,46,0
1107360,note_on,480,0,1,,,,,,,,,0,,,67,73
1107360,note_on,0,0,4,,,,,,,,,3,,,49,75
1107360,note_off,240,0,4,,,,,,,,,3,,,47,0
1107600,note_off,240,0,4,,,,,,,,,3,,,49,0
1107600,note_on,0,0,4,,,,,,,,,3,,,47,74
1107600,note_on,0,0,1,,,,,,,,,0,,,68,72
1107600,note_off,240,0,1,,,,,,,,,0,,,67,0
1107840,note_on,0,0,1,,,,,,,,,0,,,70,71
1107840,note_off,240,0,1,,,,,,,,,0,,,68,0
1107840,note_off,240,0,4,,,,,,,,,3,,,47,0
1107840,note_on,0,0,4,,,,,,,,,3,,,46,74
1108080,note_on,0,0,1,,,,,,,,,0,,,71,70
1108080,note_off,240,0,1,,,,,,,,,0,,,70,0
1108080,note_off,240,0,4,,,,,,,,,3,,,46,0
1108080,note_on,0,0,4,,,,,,,,,3,,,44,73
1108200,set_tempo,5640,1,0,,,,,,241935,,,,,,,
1108320,note_on,0,0,4,,,,,,,,,3,,,35,72
1108320,note_off,240,0,4,,,,,,,,,3,,,44,0
1108320,note_off,240,0,1,,,,,,,,,0,,,71,0
1108320,set_tempo,120,1,0,,,,,,240000,,,,,,,
1108560,note_on,240,0,1,,,,,,,,,0,,,56,73
1108800,note_on,0,0,1,,,,,,,,,0,,,59,73
1108800,note_off,240,0,1,,,,,,,,,0,,,56,0
1108800,note_off,480,0,4,,,,,,,,,3,,,35,0
1109040,note_off,240,0,1,,,,,,,,,0,,,59,0
1109040,note_on,0,0,1,,,,,,,,,0,,,63,74
1109280,note_off,240,0,1,,,,,,,,,0,,,63,0
1109280,note_on,0,0,1,,,,,,,,,0,,,59,75
1109520,note_off,240,0,1,,,,,,,,,0,,,59,0
1109520,note_on,0,0,1,,,,,,,,,0,,,63,76
1109760,note_on,0,0,4,,,,,,,,,3,,,47,82
1109760,note_on,960,0,4,,,,,,,,,3,,,56,82
1109760,note_off,240,0,1,,,,,,,,,0,,,63,0
1109760,note_on,0,0,1,,,,,,,,,0,,,68,83
1109760,note_on,0,0,4,,,,,,,,,3,,,51,82
1110000,note_off,240,0,1,,,,,,,,,0,,,68,0
1110000,note_on,0,0,1,,,,,,,,,0,,,63,77
1110240,note_off,240,0,1,,,,,,,,,0,,,63,0
1110240,note_on,0,0,1,,,,,,,,,0,,,68,78
1110240,note_off,480,0,4,,,,,,,,,3,,,51,0
1110240,note_off,0,0,4,,,,,,,,,3,,,47,0
1110240,note_off,0,0,4,,,,,,,,,3,,,56,0
1110480,note_on,0,0,1,,,,,,,,,0,,,71,79
1110480,note_off,240,0,1,,,,,,,,,0,,,68,0
1110720,note_on,0,0,1,,,,,,,,,0,,,68,80
1110720,note_off,240,0,1,,,,,,,,,0,,,71,0
1110960,note_off,240,0,1,,,,,,,,,0,,,68,0
1110960,note_on,0,0,1,,,,,,,,,0,,,71,80
1111200,note_on,0,0,1,,,,,,,,,0,,,75,81
1111200,note_off,240,0,1,,,,,,,,,0,,,71,0
1111440,note_off,240,0,1,,,,,,,,,0,,,75,0
1111440,note_on,0,0,1,,,,,,,,,0,,,73,80
1111680,note_off,240,0,1,,,,,,,,,0,,,73,0
1111680,note_on,0,0,1,,,,,,,,,0,,,71,79
1111920,note_on,1680,0,4,,,,,,,,,3,,,47,79
1111920,note_off,240,0,1,,,,,,,,,0,,,71,0
1111920,note_on,0,0,1,,,,,,,,,0,,,70,79
1112160,note_on,9600,0,3,,,,,,,,,2,,,51,78
1112160,note_off,240,0,1,,,,,,,,,0,,,70,0
1112160,note_on,0,0,1,,,,,,,,,0,,,71,78
1112400,note_off,240,0,1,,,,,,,,,0,,,71,0
1112400,note_on,0,0,1,,,,,,,,,0,,,68,77
1112400,note_off,240,0,3,,,,,,,,,2,,,51,0
1112400,note_on,0,0,3,,,,,,,,,2,,,56,78
1112597,note_off,677,0,4,,,,,,,,,3,,,47,0
1112640,note_on,0,0,1,,,,,,,,,0,,,73,76
1112640,note_off,240,0,3,,,,,,,,,2,,,56,0
1112640,note_off,240,0,1,,,,,,,,,0,,,68,0
1112640,note_on,43,0,4,,,,,,,,,3,,,49,77
1112880,note_on,240,0,3,,,,,,,,,2,,,54,76
1112880,note_on,0,0,1,,,,,,,,,0,,,70,75
1112880,note_off,240,0,1,,,,,,,,,0,,,73,0
1113120,note_on,0,0,3,,,,,,,,,2,,,58,75
1113120,note_off,240,0,3,,,,,,,,,2,,,54,0
1113120,note_on,0,0,1,,,,,,,,,0,,,66,74
1113120,note_off,240,0,1,,,,,,,,,0,,,70,0
1113317,note_off,677,0,4,,,,,,,,,3,,,49,0
1113360,note_on,43,0,4,,,,,,,,,3,,,49,74
1113360,note_off,240,0,3,,,,,,,,,2,,,58,0
1113360,note_on,0,0,1,,,,,,,,,0,,,71,74
1113360,note_off,240,0,1,,,,,,,,,0,,,66,0
1113600,note_off,240,0,1,,,,,,,,,0,,,71,0
1113600,note_on,240,0,3,,,,,,,,,2,,,56,73
1113600,note_on,0,0,1,,,,,,,,,0,,,68,73
1113840,note_off,240,0,3,,,,,,,,,2,,,56,0
1113840,note_off,240,0,1,,,,,,,,,0,,,68,0
1113840,note_on,0,0,1,,,,,,,,,0,,,65,72
1113840,note_on,0,0,3,,,,,,,,,2,,,59,73
1113960,set_tempo,5640,1,0,,,,,,241935,,,,,,,
1114037,note_off,677,0,4,,,,,,,,,3,,,49,0
1114080,note_on,43,0,4,,,,,,,,,3,,,53,77
1114080,set_tempo,120,1,0,,,,,,240000,,,,,,,
1114080,note_off,240,0,1,,,,,,,,,0,,,65,0
1114080,note_off,240,0,3,,,,,,,,,2,,,59,0
1114320,note_on,0,0,4,,,,,,,,,3,,,56,77
1114320,note_off,240,0,4,,,,,,,,,3,,,53,0
1114320,note_on,240,0,1,,,,,,,,,0,,,85,79
1114560,note_on,0,0,4,,,,,,,,,3,,,59,76
1114560,note_off,240,0,1,,,,,,,,,0,,,85,0
1114560,note_on,0,0,1,,,,,,,,,0,,,77,79
1114560,note_off,240,0,4,,,,,,,,,3,,,56,0
1114800,note_on,0,0,1,,,,,,,,,0,,,78,78
1114800,note_off,240,0,1,,,,,,,,,0,,,77,0
1114800,note_off,240,0,4,,,,,,,,,3,,,59,0
1114800,note_on,0,0,4,,,,,,,,,3,,,58,76
1115040,note_off,240,0,4,,,,,,,,,3,,,58,0
1115040,note_on,0,0,4,,,,,,,,,3,,,56,75
1115040,note_off,240,0,1,,,,,,,,,0,,,78,0
1115040,note_on,0,0,1,,,,,,,,,0,,,80,77
1115280,note_on,0,0,4,,,,,,,,,3,,,54,75
1115280,note_off,240,0,4,,,,,,,,,3,,,56,0
1115280,note_on,0,0,1,,,,,,,,,0,,,82,77
1115280,note_off,240,0,1,,,,,,,,,0,,,80,0
1115520,note_off,240,0,1,,,,,,,,,0,,,82,0
1115520,note_on,0,0,4,,,,,,,,,3,,,53,74
1115520,note_off,240,0,4,,,,,,,,,3,,,54,0
1115760,note_on,0,0,4,,,,,,,,,3,,,54,74
1115760,note_on,240,0,1,,,,,,,,,0,,,82,76
1115760,note_off,240,0,4,,,,,,,,,3,,,53,0
1116000,note_on,0,0,4,,,,,,,,,3,,,56,73
1116000,note_off,240,0,1,,,,,,,,,0,,,82,0
1116000,note_on,0,0,1,,,,,,,,,0,,,74,75
1116000,note_off,240,0,4,,,,,,,,,3,,,54,0
1116240,note_on,0,0,1,,,,,,,,,0,,,75,74
1116240,note_off,240,0,4,,,,,,,,,3,,,56,0
1116240,note_on,0,0,4,,,,,,,,,3,,,54,73
1116240,note_off,240,0,1,,,,,,,,,0,,,74,0
1116480,note_on,0,0,1,,,,,,,,,0,,,77,74
1116480,note_off,240,0,4,,,,,,,,,3,,,54,0
1116480,note_on,0,0,4,,,,,,,,,3,,,53,72
1116480,note_off,240,0,1,,,,,,,,,0,,,75,0
1116720,note_off,240,0,1,,,,,,,,,0,,,77,0
1116720,note_on,0,0,1,,,,,,,,,0,,,78,73
1116720,note_off,240,0,4,,,,,,,,,3,,,53,0
1116720,note_on,0,0,4,,,,,,,,,3,,,51,72
1116960,note_off,240,0,1,,,,,,,,,0,,,78,0
1116960,note_off,240,0,4,,,,,,,,,3,,,51,0
1116960,note_on,0,0,4,,,,,,,,,3,,,49,72
1117200,note_on,0,0,4,,,,,,,,,3,,,51,71
1117200,note_off,240,0,4,,,,,,,,,3,,,49,0
1117200,note_on,240,0,1,,,,,,,,,0,,,78,72
1117440,note_off,240,0,4,,,,,,,,,3,,,51,0
1117440,note_on,0,0,4,,,,,,,,,3,,,52,71
1117440,note_off,240,0,1,,,,,,,,,0,,,78,0
1117440,note_on,0,0,1,,,,,,,,,0,,,70,71
1117680,note_on,0,0,1,,,,,,,,,0,,,71,71
1117680,note_off,240,0,1,,,,,,,,,0,,,70,0
1117680,note_off,240,0,4,,,,,,,,,3,,,52,0
1117680,note_on,0,0,4,,,,,,,,,3,,,51,70
1117920,note_off,240,0,4,,,,,,,,,3,,,51,0
1117920,note_on,0,0,4,,,,,,,,,3,,,49,70
1117920,note_off,240,0,1,,,,,,,,,0,,,71,0
1117920,note_on,0,0,1,,,,,,,,,0,,,73,70
1118160,note_on,0,0,1,,,,,,,,,0,,,75,70
1118160,note_off,240,0,1,,,,,,,,,0,,,73,0
1118160,note_off,240,0,4,,,,,,,,,3,,,49,0
1118160,note_on,0,0,4,,,,,,,,,3,,,47,69
1118400,note_off,240,0,4,,,,,,,,,3,,,47,0
1118400,note_on,0,0,4,,,,,,,,,3,,,46,69
1118400,note_off,240,0,1,,,,,,,,,0,,,75,0
1118640,note_on,240,0,1,,,,,,,,,0,,,75,68
1118640,note_off,240,0,4,,,,,,,,,3,,,46,0
1118640,note_on,0,0,4,,,,,,,,,3,,,47,68
1118880,note_on,0,0,1,,,,,,,,,0,,,67,68
1118880,note_off,240,0,4,,,,,,,,,3,,,47,0
1118880,note_on,0,0,4,,,,,,,,,3,,,49,68
1118880,note_off,240,0,1,,,,,,,,,0,,,75,0
1119120,note_on,0,0,1,,,,,,,,,0,,,68,67
1119120,note_on,0,0,4,,,,,,,,,3,,,47,67
1119120,note_off,240,0,4,,,,,,,,,3,,,49,0
1119120,note_off,240,0,1,,,,,,,,,0,,,67,0
1119360,note_off,240,0,4,,,,,,,,,3,,,47,0
1119360,note_off,240,0,1,,,,,,,,,0,,,68,0
1119360,note_on,0,0,4,,,,,,,,,3,,,46,67
1119360,note_on,0,0,1,,,,,,,,,0,,,70,67
1119600,note_off,240,0,4,,,,,,,,,3,,,46,0
1119600,note_on,0,0,1,,,,,,,,,0,,,71,66
1119600,note_off,240,0,1,,,,,,,,,0,,,70,0
1119600,note_on,0,0,4,,,,,,,,,3,,,44,66
1119720,set_tempo,5640,1,0,,,,,,241935,,,,,,,
1119840,set_tempo,120,1,0,,,,,,240000,,,,,,,
1119840,note_on,0,0,4,,,,,,,,,3,,,35,66
1119840,note_off,240,0,1,,,,,,,,,0,,,71,0
1119840,note_off,240,0,4,,,,,,,,,3,,,44,0
1120080,note_on,240,0,1,,,,,,,,,0,,,56,62
1120320,note_off,480,0,4,,,,,,,,,3,,,35,0
1120320,note_off,240,0,1,,,,,,,,,0,,,56,0
1120320,note_on,0,0,1,,,,,,,,,0,,,59,62
1120560,note_on,0,0,1,,,,,,,,,0,,,63,63
1120560,note_off,240,0,1,,,,,,,,,0,,,59,0
1120800,note_off,240,0,1,,,,,,,,,0,,,63,0
1120800,note_on,0,0,1,,,,,,,,,0,,,59,63
1121040,note_on,0,0,1,,,,,,,,,0,,,63,63
1121040,note_off,240,0,1,,,,,,,,,0,,,59,0
1121160,set_tempo,1320,1,0,,,,,,241935,,,,,,,
1121280,note_on,0,0,4,,,,,,,,,3,,,47,70
1121280,note_on,960,0,4,,,,,,,,,3,,,51,70
1121280,set_tempo,120,1,0,,,,,,240000,,,,,,,
1121280,note_on,0,0,1,,,,,,,,,0,,,68,74
1121280,note_off,240,0,1,,,,,,,,,0,,,63,0
1121520,note_on,0,0,1,,,,,,,,,0,,,63,64
1121520,note_off,240,0,1,,,,,,,,,0,,,68,0
1121760,note_off,0,0,4,,,,,,,,,3,,,51,0
1121760,note_off,480,0,4,,,,,,,,,3,,,47,0
1121760,note_on,0,0,1,,,,,,,,,0,,,68,64
1121760,note_off,240,0,1,,,,,,,,,0,,,63,0
1122000,note_on,0,0,1,,,,,,,,,0,,,71,65
1122000,note_off,240,0,1,,,,,,,,,0,,,68,0
1122240,note_off,240,0,1,,,,,,,,,0,,,71,0
1122240,note_on,0,0,1,,,,,,,,,0,,,68,65
1122480,note_off,240,0,1,,,,,,,,,0,,,68,0
1122480,note_on,0,0,1,,,,,,,,,0,,,71,65
1122600,set_tempo,1320,1,0,,,,,,241935,,,,,,,
1122720,note_on,0,0,4,,,,,,,,,3,,,47,73
1122720,note_on,0,0,1,,,,,,,,,0,,,75,76
1122720,set_tempo,120,1,0,,,,,,240000,,,,,,,
1122720,note_on,960,0,4,,,,,,,,,3,,,56,73
1122720,note_on,0,0,4,,,,,,,,,3,,,51,73
1122720,note_off,240,0,1,,,,,,,,,0,,,71,0
1122960,note_off,240,0,1,,,,,,,,,0,,,75,0
1122960,note_on,0,0,1,,,,,,,,,0,,,63,66
1123200,note_off,480,0,4,,,,,,,,,3,,,47,0
1123200,note_off,0,0,4,,,,,,,,,3,,,51,0
1123200,note_off,0,0,4,,,,,,,,,3,,,56,0
1123200,note_off,240,0,1,,,,,,,,,0,,,63,0
1123200,note_on,0,0,1,,,,,,,,,0,,,68,66
1123440,note_off,240,0,1,,,,,,,,,0,,,68,0
1123440,note_on,0,0,1,,,,,,,,,0,,,71,67
1123680,note_off,240,0,1,,,,,,,,,0,,,71,0
1123680,note_on,0,0,1,,,,,,,,,0,,,68,67
1123920,note_off,240,0,1,,,,,,,,,0,,,68,0
1123920,note_on,0,0,1,,,,,,,,,0,,,71,67
1124040,set_tempo,1320,1,0,,,,,,241935,,,,,,,
1124160,note_on,0,0,1,,,,,,,,,0,,,75,76
1124160,note_on,0,0,4,,,,,,,,,3,,,63,77
1124160,note_on,0,0,4,,,,,,,,,3,,,68,77
1124160,note_on,960,0,4,,,,,,,,,3,,,59,77
1124160,set_tempo,120,1,0,,,,,,240000,,,,,,,
1124160,note_off,240,0,1,,,,,,,,,0,,,71,0
1124400,note_on,0,0,1,,,,,,,,,0,,,71,68
1124400,note_off,240,0,1,,,,,,,,,0,,,75,0
1124640,note_off,240,0,1,,,,,,,,,0,,,71,0
1124640,note_on,0,0,1,,,,,,,,,0,,,75,68
1124640,note_off,0,0,4,,,,,,,,,3,,,59,0
1124640,note_off,0,0,4,,,,,,,,,3,,,68,0
1124640,note_off,480,0,4,,,,,,,,,3,,,63,0
1124880,note_off,240,0,1,,,,,,,,,0,,,75,0
1124880,note_on,0,0,1,,,,,,,,,0,,,80,69
1125120,note_off,240,0,1,,,,,,,,,0,,,80,0
1125120,note_on,0,0,1,,,,,,,,,0,,,75,69
1125360,note_on,0,0,1,,,,,,,,,0,,,80,69
1125360,note_off,240,0,1,,,,,,,,,0,,,75,0
1125480,set_tempo,1320,1,0,,,,,,241935,,,,,,,
1125600,note_on,0,0,1,,,,,,,,,0,,,83,79
1125600,note_off,240,0,1,,,,,,,,,0,,,80,0
1125600,set_tempo,120,1,0,,,,,,240000,,,,,,,
1125840,note_on,0,0,1,,,,,,,,,0,,,75,70
1125840,note_off,240,0,1,,,,,,,,,0,,,83,0
1125840,note_on,1200,0,4,,,,,,,,,3,,,71,69
1126080,note_off,240,0,4,,,,,,,,,3,,,71,0
1126080,note_on,0,0,4,,,,,,,,,3,,,68,70
1126080,note_on,0,0,1,,,,,,,,,0,,,80,70
1126080,note_off,240,0,1,,,,,,,,,0,,,75,0
1126320,note_off,240,0,4,,,,,,,,,3,,,68,0
1126320,note_on,0,0,4,,,,,,,,,3,,,63,71
1126320,note_off,240,0,1,,,,,,,,,0,,,80,0
1126320,note_on,0,0,1,,,,,,,,,0,,,83,71
1126560,note_on,0,0,1,,,,,,,,,0,,,80,71
1126560,note_off,240,0,1,,,,,,,,,0,,,83,0
1126560,note_on,0,0,4,,,,,,,,,3,,,68,71
1126560,note_off,240,0,4,,,,,,,,,3,,,63,0
1126800,note_on,0,0,1,,,,,,,,,0,,,83,71
1126800,note_off,240,0,1,,,,,,,,,0,,,80,0
1126800,note_on,0,0,4,,,,,,,,,3,,,63,72
1126800,note_off,240,0,4,,,,,,,,,3,,,68,0
1126920,set_tempo,1320,1,0,,,,,,241935,,,,,,,
1127040,note_on,0,0,1,,,,,,,,,0,,,87,80
1127040,note_off,240,0,1,,,,,,,,,0,,,83,0
1127040,set_tempo,120,1,0,,,,,,240000,,,,,,,
1127040,note_on,0,0,4,,,,,,,,,3,,,59,72
1127040,note_off,240,0,4,,,,,,,,,3,,,63,0
1127280,note_off,240,0,1,,,,,,,,,0,,,87,0
1127280,note_off,240,0,4,,,,,,,,,3,,,59,0
1127280,note_on,0,0,1,,,,,,,,,0,,,75,72
1127280,note_on,0,0,4,,,,,,,,,3,,,71,73
1127520,note_off,240,0,1,,,,,,,,,0,,,75,0
1127520,note_on,0,0,4,,,,,,,,,3,,,68,73
1127520,note_off,240,0,4,,,,,,,,,3,,,71,0
1127520,note_on,0,0,1,,,,,,,,,0,,,80,72
1127760,note_on,0,0,1,,,,,,,,,0,,,83,73
1127760,note_on,0,0,4,,,,,,,,,3,,,63,74
1127760,note_off,240,0,4,,,,,,,,,3,,,68,0
1127760,note_off,240,0,1,,,,,,,,,0,,,80,0
1128000,note_on,0,0,4,,,,,,,,,3,,,68,75
1128000,note_off,240,0,4,,,,,,,,,3,,,63,0
1128000,note_off,240,0,1,,,,,,,,,0,,,83,0
1128000,note_on,0,0,1,,,,,,,,,0,,,80,73
1128240,note_on,0,0,4,,,,,,,,,3,,,63,75
1128240,note_off,240,0,4,,,,,,,,,3,,,68,0
1128240,note_off,240,0,1,,,,,,,,,0,,,80,0
1128240,note_on,0,0,1,,,,,,,,,0,,,83,73
1128360,set_tempo,1320,1,0,,,,,,241935,,,,,,,
1128480,note_on,0,0,4,,,,,,,,,3,,,59,71
1128480,note_off,240,0,4,,,,,,,,,3,,,63,0
1128480,note_off,240,0,1,,,,,,,,,0,,,83,0
1128480,note_on,0,0,1,,,,,,,,,0,,,87,58
1128705,set_tempo,345,1,0,,,,,,240000,,,,,,,
1128720,note_off,240,0,1,,,,,,,,,0,,,87,0
1128720,note_on,0,0,1,,,,,,,,,0,,,75,58
1128960,note_off,480,0,4,,,,,,,,,3,,,59,0
1128960,note_off,240,0,1,,,,,,,,,0,,,75,0
1128960,note_on,0,0,1,,,,,,,,,0,,,74,58
1129200,note_on,0,0,1,,,,,,,,,0,,,75,59
1129200,note_off,240,0,1,,,,,,,,,0,,,74,0
1129440,note_on,0,0,1,,,,,,,,,0,,,76,59
1129440,note_off,240,0,1,,,,,,,,,0,,,75,0
1129680,note_off,240,0,1,,,,,,,,,0,,,76,0
1129680,note_on,0,0,1,,,,,,,,,0,,,77,60
1129920,note_off,240,0,1,,,,,,,,,0,,,77,0
1129920,note_on,0,0,1,,,,,,,,,0,,,78,60
1130160,note_off,240,0,1,,,,,,,,,0,,,78,0
1130160,note_on,0,0,1,,,,,,,,,0,,,79,61
1130400,note_on,0,0,1,,,,,,,,,0,,,80,61
1130400,note_off,240,0,1,,,,,,,,,0,,,79,0
1130640,note_off,240,0,1,,,,,,,,,0,,,80,0
1130640,note_on,0,0,1,,,,,,,,,0,,,81,61
1130880,note_off,240,0,1,,,,,,,,,0,,,81,0
1130880,note_on,0,0,1,,,,,,,,,0,,,82,62
1131120,note_on,0,0,1,,,,,,,,,0,,,83,62
1131120,note_off,240,0,1,,,,,,,,,0,,,82,0
1131360,note_off,240,0,1,,,,,,,,,0,,,83,0
1131360,note_on,0,0,1,,,,,,,,,0,,,84,63
1131600,note_off,240,0,1,,,,,,,,,0,,,84,0
1131600,note_on,0,0,1,,,,,,,,,0,,,85,63
1131840,note_off,240,0,1,,,,,,,,,0,,,85,0
1131840,note_on,0,0,1,,,,,,,,,0,,,86,64
1132080,note_on,3120,0,4,,,,,,,,,3,,,63,57
1132080,note_on,0,0,4,,,,,,,,,3,,,68,57
1132080,note_on,0,0,4,,,,,,,,,3,,,59,57
1132080,note_on,0,0,1,,,,,,,,,0,,,87,64
1132080,note_off,240,0,1,,,,,,,,,0,,,86,0
1132320,note_off,240,0,1,,,,,,,,,0,,,87,0
1132320,note_on,0,0,1,,,,,,,,,0,,,83,64
1132560,note_off,480,0,4,,,,,,,,,3,,,59,0
1132560,note_off,0,0,4,,,,,,,,,3,,,68,0
1132560,note_off,0,0,4,,,,,,,,,3,,,63,0
1132560,note_on,0,0,1,,,,,,,,,0,,,80,65
1132560,note_off,240,0,1,,,,,,,,,0,,,83,0
1132680,set_tempo,3975,1,0,,,,,,241935,,,,,,,
1132800,note_on,0,0,1,,,,,,,,,0,,,78,65
1132800,note_off,240,0,1,,,,,,,,,0,,,80,0
1132800,note_on,0,0,4,,,,,,,,,3,,,66,58
1132800,note_on,240,0,4,,,,,,,,,3,,,70,58
1132800,note_on,0,0,4,,,,,,,,,3,,,61,58
1133280,note_off,480,0,4,,,,,,,,,3,,,66,0
1133280,note_off,480,0,1,,,,,,,,,0,,,78,0
1133280,note_off,0,0,4,,,,,,,,,3,,,61,0
1133280,note_off,0,0,4,,,,,,,,,3,,,70,0
1133520,note_on,240,0,1,,,,,,,,,0,,,80,52
1133520,note_on,0,0,4,,,,,,,,,3,,,61,53
1133520,note_on,0,0,4,,,,,,,,,3,,,65,53
1133520,note_on,240,0,4,,,,,,,,,3,,,71,53
1133600,note_on,0,0,1,,,,,,,,,0,,,82,52
1133600,note_off,80,0,1,,,,,,,,,0,,,80,0
1133680,note_off,80,0,1,,,,,,,,,0,,,82,0
1133680,note_on,0,0,1,,,,,,,,,0,,,80,51
1133760,note_off,80,0,1,,,,,,,,,0,,,80,0
1133760,note_on,0,0,1,,,,,,,,,0,,,82,50
1133880,note_off,120,0,1,,,,,,,,,0,,,82,0
1133880,note_on,0,0,1,,,,,,,,,0,,,80,49
1134000,note_on,0,0,1,,,,,,,,,0,,,78,48
1134000,note_off,120,0,1,,,,,,,,,0,,,80,0
1134000,note_off,0,0,4,,,,,,,,,3,,,71,0
1134000,note_off,480,0,4,,,,,,,,,3,,,61,0
1134000,note_off,0,0,4,,,,,,,,,3,,,65,0
1134120,note_on,0,0,1,,,,,,,,,0,,,80,47
1134120,note_off,120,0,1,,,,,,,,,0,,,78,0
1134135,set_tempo,1455,1,0,,,,,,243902,,,,,,,
1134240,note_on,240,0,4,,,,,,,,,3,,,42,46
1134240,note_off,120,0,1,,,,,,,,,0,,,80,0
1134240,note_on,0,0,1,,,,,,,,,0,,,78,46
1134396,note_off,156,0,1,,,,,,,,,0,,,78,0
1134480,note_on,20400,0,3,,,,,,,,,2,,,49,47
1134480,set_tempo,345,1,0,,,,,,241935,,,,,,,
1134720,note_on,324,0,1,,,,,,,,,0,,,66,46
1134720,note_on,0,0,3,,,,,,,,,2,,,54,47
1134720,note_off,240,0,3,,,,,,,,,2,,,49,0
1134960,note_on,0,0,1,,,,,,,,,0,,,70,46
1134960,note_off,240,0,1,,,,,,,,,0,,,66,0
1134960,note_on,0,0,3,,,,,,,,,2,,,58,48
1134960,note_off,240,0,3,,,,,,,,,2,,,54,0
1135116,note_off,156,0,1,,,,,,,,,0,,,70,0
1135200,note_off,240,0,3,,,,,,,,,2,,,58,0
1135200,note_on,0,0,3,,,,,,,,,2,,,54,48
1135440,note_off,240,0,3,,,,,,,,,2,,,54,0
1135440,note_on,0,0,3,,,,,,,,,2,,,49,49
1135440,note_on,324,0,1,,,,,,,,,0,,,70,48
1135630,note_off,1390,0,4,,,,,,,,,3,,,42,0
1135680,note_on,50,0,4,,,,,,,,,3,,,42,49
1135680,note_off,240,0,3,,,,,,,,,2,,,49,0
1135680,note_off,240,0,1,,,,,,,,,0,,,70,0
1135680,note_on,0,0,1,,,,,,,,,0,,,73,48
1135836,note_off,156,0,1,,,,,,,,,0,,,73,0
1135920,note_on,240,0,3,,,,,,,,,2,,,49,50
1136160,note_on,0,0,3,,,,,,,,,2,,,54,50
1136160,note_off,240,0,3,,,,,,,,,2,,,49,0
1136160,note_on,324,0,1,,,,,,,,,0,,,73,49
1136400,note_off,240,0,1,,,,,,,,,0,,,73,0
1136400,note_on,0,0,3,,,,,,,,,2,,,58,51
1136400,note_off,240,0,3,,,,,,,,,2,,,54,0
1136400,note_on,0,0,1,,,,,,,,,0,,,78,50
1136556,note_off,156,0,1,,,,,,,,,0,,,78,0
1136640,note_off,240,0,3,,,,,,,,,2,,,58,0
1136640,note_on,0,0,3,,,,,,,,,2,,,54,51
1136880,note_on,324,0,1,,,,,,,,,0,,,78,51
1136880,note_on,0,0,3,,,,,,,,,2,,,49,52
1136880,note_off,240,0,3,,,,,,,,,2,,,54,0
1137070,note_off,1390,0,4,,,,,,,,,3,,,42,0
1137120,note_on,0,0,1,,,,,,,,,0,,,82,52
1137120,note_off,240,0,3,,,,,,,,,2,,,49,0
1137120,note_off,240,0,1,,,,,,,,,0,,,78,0
1137120,note_on,50,0,4,,,,,,,,,3,,,42,52
1137276,note_off,156,0,1,,,,,,,,,0,,,82,0
1137360,note_on,240,0,3,,,,,,,,,2,,,49,53
1137600,note_on,0,0,3,,,,,,,,,2,,,54,53
1137600,note_off,240,0,3,,,,,,,,,2,,,49,0
1137600,note_on,324,0,1,,,,,,,,,0,,,82,53
1137840,note_on,0,0,3,,,,,,,,,2,,,58,54
1137840,note_on,0,0,1,,,,,,,,,0,,,85,54
1137840,note_off,240,0,1,,,,,,,,,0,,,82,0
1137840,note_off,240,0,3,,,,,,,,,2,,,54,0
1137996,note_off,156,0,1,,,,,,,,,0,,,85,0
1138080,note_off,240,0,3,,,,,,,,,2,,,58,0
1138080,note_on,0,0,3,,,,,,,,,2,,,54,54
1138320,note_off,240,0,3,,,,,,,,,2,,,54,0
1138320,note_on,324,0,1,,,,,,,,,0,,,78,55
1138320,note_on,0,0,3,,,,,,,,,2,,,49,55
1138510,note_off,1390,0,4,,,,,,,,,3,,,42,0
1138560,note_off,240,0,3,,,,,,,,,2,,,49,0
1138560,note_off,240,0,1,,,,,,,,,0,,,78,0
1138560,note_on,50,0,4,,,,,,,,,3,,,42,55
1138560,note_on,0,0,1,,,,,,,,,0,,,82,56
1138716,note_off,156,0,1,,,,,,,,,0,,,82,0
1138800,note_on,240,0,3,,,,,,,,,2,,,49,56
1139040,note_on,324,0,1,,,,,,,,,0,,,73,57
1139040,note_off,240,0,3,,,,,,,,,2,,,49,0
1139040,note_on,0,0,3,,,,,,,,,2,,,54,56
1139280,note_on,0,0,1,,,,,,,,,0,,,78,58
1139280,note_on,0,0,3,,,,,,,,,2,,,58,57
1139280,note_off,240,0,3,,,,,,,,,2,,,54,0
1139280,note_off,240,0,1,,,,,,,,,0,,,73,0
1139436,note_off,156,0,1,,,,,,,,,0,,,78,0
1139520,note_on,0,0,3,,,,,,,,,2,,,54,57
1139520,note_off,240,0,3,,,,,,,,,2,,,58,0
1139760,note_off,240,0,3,,,,,,,,,2,,,54,0
1139760,note_on,0,0,3,,,,,,,,,2,,,49,58
1139760,note_on,324,0,1,,,,,,,,,0,,,70,59
1139950,note_off,1390,0,4,,,,,,,,,3,,,42,0
1140000,note_off,240,0,3,,,,,,,,,2,,,49,0
1140000,note_on,0,0,1,,,,,,,,,0,,,73,60
1140000,note_on,50,0,4,,,,,,,,,3,,,42,58
1140000,note_off,240,0,1,,,,,,,,,0,,,70,0
1140156,note_off,156,0,1,,,,,,,,,0,,,73,0
1140240,note_on,240,0,3,,,,,,,,,2,,,49,59
1140480,note_off,240,0,3,,,,,,,,,2,,,49,0
1140480,note_on,324,0,1,,,,,,,,,0,,,66,61
1140480,note_on,0,0,3,,,,,,,,,2,,,54,59
1140720,note_on,0,0,3,,,,,,,,,2,,,58,60
1140720,note_off,240,0,1,,,,,,,,,0,,,66,0
1140720,note_off,240,0,3,,,,,,,,,2,,,54,0
1140720,note_on,0,0,1,,,,,,,,,0,,,70,62
1140876,note_off,156,0,1,,,,,,,,,0,,,70,0
1140960,note_on,0,0,3,,,,,,,,,2,,,54,60
1140960,note_off,240,0,3,,,,,,,,,2,,,58,0
1141200,note_off,240,0,3,,,,,,,,,2,,,54,0
1141200,note_on,324,0,1,,,,,,,,,0,,,68,63
1141200,note_on,0,0,3,,,,,,,,,2,,,49,61
1141390,note_off,1390,0,4,,,,,,,,,3,,,42,0
1141440,note_off,240,0,3,,,,,,,,,2,,,49,0
1141440,note_on,0,0,1,,,,,,,,,0,,,71,60
1141440,note_off,240,0,1,,,,,,,,,0,,,68,0
1141440,note_on,50,0,4,,,,,,,,,3,,,37,61
1141596,note_off,156,0,1,,,,,,,,,0,,,71,0
1141680,note_on,240,0,3,,,,,,,,,2,,,49,61
1141920,note_off,240,0,3,,,,,,,,,2,,,49,0
1141920,note_on,0,0,3,,,,,,,,,2,,,53,60
1141920,note_on,324,0,1,,,,,,,,,0,,,65,58
1142160,note_on,0,0,1,,,,,,,,,0,,,68,57
1142160,note_off,240,0,3,,,,,,,,,2,,,53,0
1142160,note_on,0,0,3,,,,,,,,,2,,,56,58
1142160,note_off,240,0,1,,,,,,,,,0,,,65,0
1142316,note_off,156,0,1,,,,,,,,,0,,,68,0
1142400,note_on,0,0,3,,,,,,,,,2,,,53,57
1142400,note_off,240,0,3,,,,,,,,,2,,,56,0
1142640,note_on,0,0,3,,,,,,,,,2,,,49,55
1142640,note_off,240,0,3,,,,,,,,,2,,,53,0
1142640,note_on,324,0,1,,,,,,,,,0,,,65,54
1142760,set_tempo,8280,1,0,,,,,,243902,,,,,,,
1142830,note_off,1390,0,4,,,,,,,,,3,,,37,0
1142880,note_on,0,0,1,,,,,,,,,0,,,66,55
1142880,note_off,240,0,1,,,,,,,,,0,,,65,0
1142880,set_tempo,120,1,0,,,,,,241935,,,,,,,
1142880,note_off,240,0,3,,,,,,,,,2,,,49,0
1142880,note_on,50,0,4,,,,,,,,,3,,,42,58
1143036,note_off,156,0,1,,,,,,,,,0,,,66,0
1143120,note_on,240,0,3,,,,,,,,,2,,,49,56
1143360,note_on,0,0,3,,,,,,,,,2,,,54,57
1143360,note_on,324,0,1,,,,,,,,,0,,,66,56
1143360,note_off,240,0,3,,,,,,,,,2,,,49,0
1143600,note_on,0,0,3,,,,,,,,,2,,,58,58
1143600,note_on,0,0,1,,,,,,,,,0,,,70,57
1143600,note_off,240,0,3,,,,,,,,,2,,,54,0
1143600,note_off,240,0,1,,,,,,,,,0,,,66,0
1143756,note_off,156,0,1,,,,,,,,,0,,,70,0
1143840,note_off,240,0,3,,,,,,,,,2,,,58,0
1143840,note_on,0,0,3,,,,,,,,,2,,,54,59
1144080,note_off,240,0,3,,,,,,,,,2,,,54,0
1144080,note_on,0,0,3,,,,,,,,,2,,,49,59
1144080,note_on,324,0,1,,,,,,,,,0,,,70,59
1144270,note_off,1390,0,4,,,,,,,,,3,,,42,0
1144320,note_on,50,0,4,,,,,,,,,3,,,42,62
1144320,note_on,0,0,1,,,,,,,,,0,,,73,60
1144320,note_off,240,0,3,,,,,,,,,2,,,49,0
1144320,note_off,240,0,1,,,,,,,,,0,,,70,0
1144476,note_off,156,0,1,,,,,,,,,0,,,73,0
1144560,note_on,240,0,3,,,,,,,,,2,,,49,61
1144800,note_on,0,0,3,,,,,,,,,2,,,54,62
1144800,note_on,324,0,1,,,,,,,,,0,,,73,61
1144800,note_off,240,0,3,,,,,,,,,2,,,49,0
1145040,note_off,240,0,1,,,,,,,,,0,,,73,0
1145040,note_on,0,0,1,,,,,,,,,0,,,78,62
1145040,note_on,0,0,3,,,,,,,,,2,,,58,62
1145040,note_off,240,0,3,,,,,,,,,2,,,54,0
1145196,note_off,156,0,1,,,,,,,,,0,,,78,0
1145280,note_on,0,0,3,,,,,,,,,2,,,54,63
1145280,note_off,240,0,3,,,,,,,,,2,,,58,0
1145520,note_on,0,0,3,,,,,,,,,2,,,49,64
1145520,note_on,324,0,1,,,,,,,,,0,,,78,64
1145520,note_off,240,0,3,,,,,,,,,2,,,54,0
1145710,note_off,1390,0,4,,,,,,,,,3,,,42,0
1145760,note_on,50,0,4,,,,,,,,,3,,,42,65
1145760,note_on,0,0,1,,,,,,,,,0,,,82,65
1145760,note_off,240,0,1,,,,,,,,,0,,,78,0
1145760,note_off,240,0,3,,,,,,,,,2,,,49,0
1145916,note_off,156,0,1,,,,,,,,,0,,,82,0
1146000,note_on,240,0,3,,,,,,,,,2,,,49,65
1146240,note_on,324,0,1,,,,,,,,,0,,,82,66
1146240,note_on,0,0,3,,,,,,,,,2,,,54,66
1146240,note_off,240,0,3,,,,,,,,,2,,,49,0
1146480,note_off,240,0,3,,,,,,,,,2,,,54,0
1146480,note_on,0,0,3,,,,,,,,,2,,,58,67
1146480,note_off,240,0,1,,,,,,,,,0,,,82,0
1146480,note_on,0,0,1,,,,,,,,,0,,,85,67
1146636,note_off,156,0,1,,,,,,,,,0,,,85,0
1146720,note_on,0,0,3,,,,,,,,,2,,,54,68
1146720,note_off,240,0,3,,,,,,,,,2,,,58,0
1146960,note_on,0,0,3,,,,,,,,,2,,,49,68
1146960,note_off,240,0,3,,,,,,,,,2,,,54,0
1146960,note_on,324,0,1,,,,,,,,,0,,,78,69
1147150,note_off,1390,0,4,,,,,,,,,3,,,42,0
1147200,note_off,240,0,3,,,,,,,,,2,,,49,0
1147200,note_on,50,0,4,,,,,,,,,3,,,42,69
1147200,note_on,0,0,1,,,,,,,,,0,,,82,70
1147200,note_off,240,0,1,,,,,,,,,0,,,78,0
1147356,note_off,156,0,1,,,,,,,,,0,,,82,0
1147440,note_on,240,0,3,,,,,,,,,2,,,49,70
1147680,note_on,324,0,1,,,,,,,,,0,,,73,71
1147680,note_on,0,0,3,,,,,,,,,2,,,54,71
1147680,note_off,240,0,3,,,,,,,,,2,,,49,0
1147920,note_off,240,0,1,,,,,,,,,0,,,73,0
1147920,note_on,0,0,1,,,,,,,,,0,,,78,72
1147920,note_on,0,0,3,,,,,,,,,2,,,58,72
1147920,note_off,240,0,3,,,,,,,,,2,,,54,0
1148076,note_off,156,0,1,,,,,,,,,0,,,78,0
1148160,note_off,240,0,3,,,,,,,,,2,,,58,0
1148160,note_on,0,0,3,,,,,,,,,2,,,54,72
1148400,note_on,324,0,1,,,,,,,,,0,,,70,74
1148400,note_off,240,0,3,,,,,,,,,2,,,54,0
1148400,note_on,0,0,3,,,,,,,,,2,,,49,73
1148590,note_off,1390,0,4,,,,,,,,,3,,,42,0
1148640,note_on,50,0,4,,,,,,,,,3,,,42,73
1148640,note_off,240,0,1,,,,,,,,,0,,,70,0
1148640,note_on,0,0,1,,,,,,,,,0,,,73,75
1148640,note_off,240,0,3,,,,,,,,,2,,,49,0
1148796,note_off,156,0,1,,,,,,,,,0,,,73,0
1148880,note_on,240,0,3,,,,,,,,,2,,,49,75
1149120,note_on,0,0,3,,,,,,,,,2,,,54,75
1149120,note_on,324,0,1,,,,,,,,,0,,,70,76
1149120,note_off,240,0,3,,,,,,,,,2,,,49,0
1149352,note_off,712,0,4,,,,,,,,,3,,,42,0
1149360,note_off,240,0,3,,,,,,,,,2,,,54,0
1149360,note_on,0,0,1,,,,,,,,,0,,,73,77
1149360,note_off,240,0,1,,,,,,,,,0,,,70,0
1149360,note_on,8,0,4,,,,,,,,,3,,,42,74
1149516,note_off,156,0,1,,,,,,,,,0,,,73,0
1149600,note_on,240,0,3,,,,,,,,,2,,,49,77
1149840,note_off,240,0,3,,,,,,,,,2,,,49,0
1149840,note_on,0,0,3,,,,,,,,,2,,,54,78
1149840,note_on,324,0,1,,,,,,,,,0,,,70,79
1150080,note_off,720,0,4,,,,,,,,,3,,,42,0
1150080,note_on,0,0,4,,,,,,,,,3,,,41,79
1150080,note_on,0,0,1,,,,,,,,,0,,,74,80
1150080,note_off,240,0,3,,,,,,,,,2,,,54,0
1150080,note_off,240,0,1,,,,,,,,,0,,,70,0
1150236,note_off,156,0,1,,,,,,,,,0,,,74,0
1150320,note_on,240,0,3,,,,,,,,,2,,,46,79
1150560,note_off,240,0,3,,,,,,,,,2,,,46,0
1150560,note_on,324,0,1,,,,,,,,,0,,,68,80
1150560,note_on,0,0,3,,,,,,,,,2,,,53,80
1150680,set_tempo,7800,1,0,,,,,,243902,,,,,,,
1150800,note_off,240,0,1,,,,,,,,,0,,,68,0
1150800,note_off,240,0,3,,,,,,,,,2,,,53,0
1150800,note_on,0,0,1,,,,,,,,,0,,,74,81
1150800,note_off,720,0,4,,,,,,,,,3,,,41,0
1150800,note_on,0,0,4,,,,,,,,,3,,,34,81
1150956,note_off,156,0,1,,,,,,,,,0,,,74,0
1151040,note_on,240,0,3,,,,,,,,,2,,,41,81
1151280,note_off,240,0,3,,,,,,,,,2,,,41,0
1151280,note_on,324,0,1,,,,,,,,,0,,,74,75
1151280,note_on,0,0,3,,,,,,,,,2,,,46,82
1151280,set_tempo,600,1,0,,,,,,246913,,,,,,,
1151436,note_off,156,0,1,,,,,,,,,0,,,74,0
1151520,note_off,720,0,4,,,,,,,,,3,,,34,0
1151520,note_on,0,0,4,,,,,,,,,3,,,39,54
1151520,set_tempo,240,1,0,,,,,,241935,,,,,,,
1151520,note_off,240,0,3,,,,,,,,,2,,,46,0
1151520,note_on,84,0,1,,,,,,,,,0,,,75,71
1151676,note_off,156,0,1,,,,,,,,,0,,,75,0
1151760,note_on,240,0,3,,,,,,,,,2,,,46,47
1152000,note_off,240,0,3,,,,,,,,,2,,,46,0
1152000,note_on,0,0,3,,,,,,,,,2,,,51,47
1152000,note_on,324,0,1,,,,,,,,,0,,,63,52
1152240,note_off,240,0,1,,,,,,,,,0,,,63,0
1152240,note_on,0,0,1,,,,,,,,,0,,,66,53
1152240,note_on,0,0,3,,,,,,,,,2,,,54,48
1152240,note_off,240,0,3,,,,,,,,,2,,,51,0
1152396,note_off,156,0,1,,,,,,,,,0,,,66,0
1152480,note_on,0,0,3,,,,,,,,,2,,,51,48
1152480,note_off,240,0,3,,,,,,,,,2,,,54,0
1152720,note_on,324,0,1,,,,,,,,,0,,,66,53
1152720,note_on,0,0,3,,,,,,,,,2,,,46,49
1152720,note_off,240,0,3,,,,,,,,,2,,,51,0
1152930,note_off,1410,0,4,,,,,,,,,3,,,39,0
1152960,note_off,240,0,1,,,,,,,,,0,,,66,0
1152960,note_on,30,0,4,,,,,,,,,3,,,39,57
1152960,note_on,0,0,1,,,,,,,,,0,,,70,54
1152960,note_off,240,0,3,,,,,,,,,2,,,46,0
1153116,note_off,156,0,1,,,,,,,,,0,,,70,0
1153200,note_on,240,0,3,,,,,,,,,2,,,46,50
1153440,note_on,324,0,1,,,,,,,,,0,,,70,55
1153440,note_off,240,0,3,,,,,,,,,2,,,46,0
1153440,note_on,0,0,3,,,,,,,,,2,,,51,50
1153680,note_on,0,0,1,,,,,,,,,0,,,75,55
1153680,note_off,240,0,1,,,,,,,,,0,,,70,0
1153680,note_off,240,0,3,,,,,,,,,2,,,51,0
1153680,note_on,0,0,3,,,,,,,,,2,,,54,51
1153836,note_off,156,0,1,,,,,,,,,0,,,75,0
1153912,note_off,232,0,3,,,,,,,,,2,,,54,0
1153920,note_on,8,0,3,,,,,,,,,2,,,51,51
1154160,note_on,324,0,1,,,,,,,,,0,,,75,56
1154160,note_on,0,0,3,,,,,,,,,2,,,46,52
1154160,note_off,240,0,3,,,,,,,,,2,,,51,0
1154350,note_off,1390,0,4,,,,,,,,,3,,,39,0
1154400,note_on,50,0,4,,,,,,,,,3,,,39,59
1154400,note_off,240,0,3,,,,,,,,,2,,,46,0
1154400,note_on,0,0,1,,,,,,,,,0,,,78,56
1154400,note_off,240,0,1,,,,,,,,,0,,,75,0
1154556,note_off,156,0,1,,,,,,,,,0,,,78,0
1154640,note_on,240,0,3,,,,,,,,,2,,,46,53
1154880,note_on,324,0,1,,,,,,,,,0,,,78,57
1154880,note_on,0,0,3,,,,,,,,,2,,,51,53
1154880,note_off,240,0,3,,,,,,,,,2,,,46,0
1155120,note_off,240,0,1,,,,,,,,,0,,,78,0
1155120,note_off,240,0,3,,,,,,,,,2,,,51,0
1155120,note_on,0,0,1,,,,,,,,,0,,,82,58
1155120,note_on,0,0,3,,,,,,,,,2,,,54,54
1155276,note_off,156,0,1,,,,,,,,,0,,,82,0
1155360,note_off,240,0,3,,,,,,,,,2,,,54,0
1155360,note_on,0,0,3,,,,,,,,,2,,,51,54
1155600,note_on,324,0,1,,,,,,,,,0,,,75,58
1155600,note_off,240,0,3,,,,,,,,,2,,,51,0
1155600,note_on,0,0,3,,,,,,,,,2,,,46,55
1155790,note_off,1390,0,4,,,,,,,,,3,,,39,0
1155840,note_off,240,0,3,,,,,,,,,2,,,46,0
1155840,note_off,240,0,1,,,,,,,,,0,,,75,0
1155840,note_on,0,0,1,,,,,,,,,0,,,78,59
1155840,note_on,50,0,4,,,,,,,,,3,,,39,61
1155996,note_off,156,0,1,,,,,,,,,0,,,78,0
1156080,note_on,240,0,3,,,,,,,,,2,,,46,56
1156320,note_on,324,0,1,,,,,,,,,0,,,70,60
1156320,note_off,240,0,3,,,,,,,,,2,,,46,0
1156320,note_on,0,0,3,,,,,,,,,2,,,51,56
1156560,note_off,240,0,3,,,,,,,,,2,,,51,0
1156560,note_on,0,0,3,,,,,,,,,2,,,54,57
1156560,note_on,0,0,1,,,,,,,,,0,,,75,60
1156560,note_off,240,0,1,,,,,,,,,0,,,70,0
1156716,note_off,156,0,1,,,,,,,,,0,,,75,0
1156800,note_on,0,0,3,,,,,,,,,2,,,51,57
1156800,note_off,240,0,3,,,,,,,,,2,,,54,0
1157040,note_on,0,0,3,,,,,,,,,2,,,46,58
1157040,note_off,240,0,3,,,,,,,,,2,,,51,0
1157040,note_on,324,0,1,,,,,,,,,0,,,66,61
1157230,note_off,1390,0,4,,,,,,,,,3,,,39,0
1157280,note_off,240,0,1,,,,,,,,,0,,,66,0
1157280,note_on,50,0,4,,,,,,,,,3,,,39,63
1157280,note_off,240,0,3,,,,,,,,,2,,,46,0
1157280,note_on,0,0,1,,,,,,,,,0,,,70,61
1157436,note_off,156,0,1,,,,,,,,,0,,,70,0
1157520,note_on,240,0,3,,,,,,,,,2,,,46,59
1157760,note_on,0,0,3,,,,,,,,,2,,,51,59
1157760,note_off,240,0,3,,,,,,,,,2,,,46,0
1157760,note_on,324,0,1,,,,,,,,,0,,,63,62
1158000,note_off,240,0,1,,,,,,,,,0,,,63,0
1158000,note_on,0,0,3,,,,,,,,,2,,,54,60
1158000,note_off,240,0,3,,,,,,,,,2,,,51,0
1158000,note_on,0,0,1,,,,,,,,,0,,,66,63
1158156,note_off,156,0,1,,,,,,,,,0,,,66,0
1158240,note_on,0,0,3,,,,,,,,,2,,,51,60
1158240,note_off,240,0,3,,,,,,,,,2,,,54,0
1158480,note_off,240,0,3,,,,,,,,,2,,,51,0
1158480,note_on,0,0,3,,,,,,,,,2,,,46,61
1158480,note_on,324,0,1,,,,,,,,,0,,,65,63
1158670,note_off,1390,0,4,,,,,,,,,3,,,39,0
1158720,note_off,240,0,1,,,,,,,,,0,,,65,0
1158720,note_on,0,0,1,,,,,,,,,0,,,68,65
1158720,note_on,50,0,4,,,,,,,,,3,,,34,64
1158720,note_off,240,0,3,,,,,,,,,2,,,46,0
1158876,note_off,156,0,1,,,,,,,,,0,,,68,0
1158960,note_on,240,0,3,,,,,,,,,2,,,46,60
1159200,note_on,324,0,1,,,,,,,,,0,,,62,63
1159200,note_off,240,0,3,,,,,,,,,2,,,46,0
1159200,note_on,0,0,3,,,,,,,,,2,,,50,59
1159440,note_on,0,0,3,,,,,,,,,2,,,53,57
1159440,note_off,240,0,3,,,,,,,,,2,,,50,0
1159440,note_on,0,0,1,,,,,,,,,0,,,65,62
1159440,note_off,240,0,1,,,,,,,,,0,,,62,0
1159596,note_off,156,0,1,,,,,,,,,0,,,65,0
1159680,note_on,0,0,3,,,,,,,,,2,,,50,56
1159680,note_off,240,0,3,,,,,,,,,2,,,53,0
1159920,note_on,0,0,3,,,,,,,,,2,,,46,55
1159920,note_off,240,0,3,,,,,,,,,2,,,50,0
1159920,note_on,324,0,1,,,,,,,,,0,,,62,59
1160040,set_tempo,8520,1,0,,,,,,243902,,,,,,,
1160110,note_off,1390,0,4,,,,,,,,,3,,,34,0
1160160,note_on,0,0,1,,,,,,,,,0,,,63,58
1160160,note_off,240,0,3,,,,,,,,,2,,,46,0
1160160,note_on,50,0,4,,,,,,,,,3,,,39,58
1160160,note_off,240,0,1,,,,,,,,,0,,,62,0
1160160,set_tempo,120,1,0,,,,,,241935,,,,,,,
1160316,note_off,156,0,1,,,,,,,,,0,,,63,0
1160400,note_on,240,0,3,,,,,,,,,2,,,46,56
1160640,note_on,0,0,3,,,,,,,,,2,,,51,57
1160640,note_on,324,0,1,,,,,,,,,0,,,63,58
1160640,note_off,240,0,3,,,,,,,,,2,,,46,0
1160880,note_on,0,0,3,,,,,,,,,2,,,54,58
1160880,note_off,240,0,3,,,,,,,,,2,,,51,0
1160880,note_off,240,0,1,,,,,,,,,0,,,63,0
1160880,note_on,0,0,1,,,,,,,,,0,,,66,59
1161036,note_off,156,0,1,,,,,,,,,0,,,66,0
1161120,note_off,240,0,3,,,,,,,,,2,,,54,0
1161120,note_on,0,0,3,,,,,,,,,2,,,51,58
1161360,note_on,324,0,1,,,,,,,,,0,,,66,60
1161360,note_off,240,0,3,,,,,,,,,2,,,51,0
1161360,note_on,0,0,3,,,,,,,,,2,,,46,59
1161550,note_off,1390,0,4,,,,,,,,,3,,,39,0
1161600,note_on,50,0,4,,,,,,,,,3,,,39,62
1161600,note_on,0,0,1,,,,,,,,,0,,,70,60
1161600,note_off,240,0,1,,,,,,,,,0,,,66,0
1161600,note_off,240,0,3,,,,,,,,,2,,,46,0
1161756,note_off,156,0,1,,,,,,,,,0,,,70,0
1161840,note_on,240,0,3,,,,,,,,,2,,,46,60
1162080,note_on,324,0,1,,,,,,,,,0,,,70,61
1162080,note_off,240,0,3,,,,,,,,,2,,,46,0
1162080,note_on,0,0,3,,,,,,,,,2,,,51,61
1162320,note_on,0,0,1,,,,,,,,,0,,,75,62
1162320,note_off,240,0,1,,,,,,,,,0,,,70,0
1162320,note_on,0,0,3,,,,,,,,,2,,,54,62
1162320,note_off,240,0,3,,,,,,,,,2,,,51,0
1162476,note_off,156,0,1,,,,,,,,,0,,,75,0
1162560,note_on,0,0,3,,,,,,,,,2,,,51,62
1162560,note_off,240,0,3,,,,,,,,,2,,,54,0
1162800,note_on,324,0,1,,,,,,,,,0,,,75,63
1162800,note_off,240,0,3,,,,,,,,,2,,,51,0
1162800,note_on,0,0,3,,,,,,,,,2,,,46,63
1162990,note_off,1390,0,4,,,,,,,,,3,,,39,0
1163040,note_off,240,0,1,,,,,,,,,0,,,75,0
1163040,note_on,0,0,1,,,,,,,,,0,,,78,63
1163040,note_on,50,0,4,,,,,,,,,3,,,39,66
1163040,note_off,240,0,3,,,,,,,,,2,,,46,0
1163196,note_off,156,0,1,,,,,,,,,0,,,78,0
1163280,note_on,240,0,3,,,,,,,,,2,,,46,64
1163520,note_off,240,0,3,,,,,,,,,2,,,46,0
1163520,note_on,0,0,3,,,,,,,,,2,,,51,65
1163520,note_on,324,0,1,,,,,,,,,0,,,78,64
1163760,note_on,0,0,1,,,,,,,,,0,,,82,65
1163760,note_off,240,0,1,,,,,,,,,0,,,78,0
1163760,note_off,240,0,3,,,,,,,,,2,,,51,0
1163760,note_on,0,0,3,,,,,,,,,2,,,54,66
1163916,note_off,156,0,1,,,,,,,,,0,,,82,0
1164000,note_off,240,0,3,,,,,,,,,2,,,54,0
1164000,note_on,0,0,3,,,,,,,,,2,,,51,66
1164240,note_off,240,0,3,,,,,,,,,2,,,51,0
1164240,note_on,324,0,1,,,,,,,,,0,,,75,66
1164240,note_on,0,0,3,,,,,,,,,2,,,46,67
1164430,note_off,1390,0,4,,,,,,,,,3,,,39,0
1164480,note_on,0,0,1,,,,,,,,,0,,,78,67
1164480,note_off,240,0,3,,,,,,,,,2,,,46,0
1164480,note_on,50,0,4,,,,,,,,,3,,,39,70
1164480,note_off,240,0,1,,,,,,,,,0,,,75,0
1164636,note_off,156,0,1,,,,,,,,,0,,,78,0
1164720,note_on,240,0,3,,,,,,,,,2,,,46,68
1164960,note_on,0,0,3,,,,,,,,,2,,,51,69
1164960,note_off,240,0,3,,,,,,,,,2,,,46,0
1164960,note_on,324,0,1,,,,,,,,,0,,,70,68
1165200,note_off,240,0,3,,,,,,,,,2,,,51,0
1165200,note_on,0,0,1,,,,,,,,,0,,,75,68
1165200,note_off,240,0,1,,,,,,,,,0,,,70,0
1165200,note_on,0,0,3,,,,,,,,,2,,,54,70
1165356,note_off,156,0,1,,,,,,,,,0,,,75,0
1165440,note_off,240,0,3,,,,,,,,,2,,,54,0
1165440,note_on,0,0,3,,,,,,,,,2,,,51,70
1165680,note_on,324,0,1,,,,,,,,,0,,,66,69
1165680,note_on,0,0,3,,,,,,,,,2,,,46,71
1165680,note_off,240,0,3,,,,,,,,,2,,,51,0
1165870,note_off,1390,0,4,,,,,,,,,3,,,39,0
1165920,note_on,0,0,1,,,,,,,,,0,,,70,70
1165920,note_on,50,0,4,,,,,,,,,3,,,39,73
1165920,note_off,240,0,3,,,,,,,,,2,,,46,0
1165920,note_off,240,0,1,,,,,,,,,0,,,66,0
1166076,note_off,156,0,1,,,,,,,,,0,,,70,0
1166160,note_on,240,0,3,,,,,,,,,2,,,46,74
1166400,note_on,0,0,3,,,,,,,,,2,,,51,76
1166400,note_off,240,0,3,,,,,,,,,2,,,46,0
1166400,note_on,324,0,1,,,,,,,,,0,,,63,71
1166640,note_on,0,0,3,,,,,,,,,2,,,54,78
1166640,note_off,240,0,3,,,,,,,,,2,,,51,0
1166640,note_off,240,0,1,,,,,,,,,0,,,63,0
1166640,note_on,0,0,1,,,,,,,,,0,,,66,71
1166796,note_off,156,0,1,,,,,,,,,0,,,66,0
1166880,note_off,240,0,3,,,,,,,,,2,,,54,0
1166880,note_on,0,0,3,,,,,,,,,2,,,51,80
1167120,note_on,0,0,3,,,,,,,,,2,,,46,79
1167120,note_off,240,0,3,,,,,,,,,2,,,51,0
1167120,note_on,324,0,1,,,,,,,,,0,,,58,72
1167352,note_off,1432,0,4,,,,,,,,,3,,,39,0
1167360,note_off,240,0,3,,,,,,,,,2,,,46,0
1167360,note_on,8,0,4,,,,,,,,,3,,,51,77
1167360,note_off,240,0,1,,,,,,,,,0,,,58,0
1167360,note_on,0,0,1,,,,,,,,,0,,,63,75
1167516,note_off,156,0,1,,,,,,,,,0,,,63,0
1167600,note_on,240,0,3,,,,,,,,,2,,,46,79
1167840,note_on,324,0,1,,,,,,,,,0,,,57,78
1167840,note_on,0,0,3,,,,,,,,,2,,,42,81
1167840,note_off,240,0,3,,,,,,,,,2,,,46,0
1167960,set_tempo,7800,1,0,,,,,,243902,,,,,,,
1168080,note_on,0,0,1,,,,,,,,,0,,,60,80
1168080,note_off,240,0,3,,,,,,,,,2,,,42,0
1168080,note_on,0,0,4,,,,,,,,,3,,,46,82
1168080,note_off,720,0,4,,,,,,,,,3,,,51,0
1168080,note_off,240,0,1,,,,,,,,,0,,,57,0
1168236,note_off,156,0,1,,,,,,,,,0,,,60,0
1168320,note_on,240,0,3,,,,,,,,,2,,,42,84
1168560,note_off,240,0,3,,,,,,,,,2,,,42,0
1168560,note_on,324,0,1,,,,,,,,,0,,,57,84
1168560,set_tempo,600,1,0,,,,,,246913,,,,,,,
1168560,note_on,0,0,3,,,,,,,,,2,,,39,86
1168716,note_off,156,0,1,,,,,,,,,0,,,57,0
1168800,note_off,720,0,4,,,,,,,,,3,,,46,0
1168800,note_on,0,0,4,,,,,,,,,3,,,34,87
1168800,end_of_track,0,1,3,,,,,,,,,,,,,
1168800,set_tempo,240,1,0,,,,,,241935,,,,,,,
1168800,note_on,84,0,1,,,,,,,,,0,,,58,83
1168800,note_off,240,0,3,,,,,,,,,2,,,39,0
1169040,note_off,240,0,1,,,,,,,,,0,,,58,0
1169040,note_on,0,0,1,,,,,,,,,0,,,62,66
1169280,note_off,240,0,1,,,,,,,,,0,,,62,0
1169280,note_on,0,0,1,,,,,,,,,0,,,65,49
1169280,note_off,480,0,4,,,,,,,,,3,,,34,0
1169520,note_on,0,0,1,,,,,,,,,0,,,61,49
1169520,note_off,240,0,1,,,,,,,,,0,,,65,0
1169760,note_on,0,0,1,,,,,,,,,0,,,62,49
1169760,note_off,240,0,1,,,,,,,,,0,,,61,0
1170000,note_on,0,0,1,,,,,,,,,0,,,65,48
1170000,note_off,240,0,1,,,,,,,,,0,,,62,0
1170240,note_on,960,0,4,,,,,,,,,3,,,46,48
1170240,note_off,240,0,1,,,,,,,,,0,,,65,0
1170480,note_off,240,0,4,,,,,,,,,3,,,46,0
1170480,note_on,0,0,4,,,,,,,,,3,,,50,48
1170720,note_on,0,0,4,,,,,,,,,3,,,53,48
1170720,note_off,240,0,4,,,,,,,,,3,,,50,0
1170960,note_off,240,0,4,,,,,,,,,3,,,53,0
1170960,note_on,0,0,4,,,,,,,,,3,,,49,47
1171200,note_on,0,0,4,,,,,,,,,3,,,50,47
1171200,note_off,240,0,4,,,,,,,,,3,,,49,0
1171440,note_on,0,0,4,,,,,,,,,3,,,53,47
1171440,note_off,240,0,4,,,,,,,,,3,,,50,0
1171680,note_off,240,0,4,,,,,,,,,3,,,53,0
1171680,note_on,1440,0,1,,,,,,,,,0,,,58,46
1171920,note_on,0,0,1,,,,,,,,,0,,,62,46
1171920,note_off,240,0,1,,,,,,,,,0,,,58,0
1172160,note_on,0,0,1,,,,,,,,,0,,,65,46
1172160,note_off,240,0,1,,,,,,,,,0,,,62,0
1172400,note_off,240,0,1,,,,,,,,,0,,,65,0
1172400,note_on,0,0,1,,,,,,,,,0,,,61,46
1172640,note_off,240,0,1,,,,,,,,,0,,,61,0
1172640,note_on,0,0,1,,,,,,,,,0,,,62,45
1172880,note_off,240,0,1,,,,,,,,,0,,,62,0
1172880,note_on,0,0,1,,,,,,,,,0,,,65,45
1173120,note_off,240,0,1,,,,,,,,,0,,,65,0
1173120,note_on,1440,0,4,,,,,,,,,3,,,46,45
1173360,note_off,240,0,4,,,,,,,,,3,,,46,0
1173360,note_on,0,0,4,,,,,,,,,3,,,50,45
1173600,note_on,0,0,4,,,,,,,,,3,,,53,44
1173600,note_off,240,0,4,,,,,,,,,3,,,50,0
1173840,note_off,240,0,4,,,,,,,,,3,,,53,0
1173840,note_on,0,0,4,,,,,,,,,3,,,49,44
1174080,note_off,240,0,4,,,,,,,,,3,,,49,0
1174080,note_on,0,0,4,,,,,,,,,3,,,50,44
1174320,note_off,240,0,4,,,,,,,,,3,,,50,0
1174320,note_on,0,0,4,,,,,,,,,3,,,53,43
1174560,note_off,240,0,4,,,,,,,,,3,,,53,0
1174560,note_on,1440,0,1,,,,,,,,,0,,,58,43
1174800,note_on,0,0,1,,,,,,,,,0,,,65,43
1174800,note_off,240,0,1,,,,,,,,,0,,,58,0
1175040,note_on,0,0,1,,,,,,,,,0,,,68,43
1175040,note_off,240,0,1,,,,,,,,,0,,,65,0
1175280,note_on,0,0,1,,,,,,,,,0,,,64,42
1175280,note_off,240,0,1,,,,,,,,,0,,,68,0
1175520,note_off,240,0,1,,,,,,,,,0,,,64,0
1175520,note_on,0,0,1,,,,,,,,,0,,,65,42
1175760,note_off,240,0,1,,,,,,,,,0,,,65,0
1175760,note_on,0,0,1,,,,,,,,,0,,,68,42
1176000,note_off,240,0,1,,,,,,,,,0,,,68,0
1176000,note_on,1440,0,4,,,,,,,,,3,,,46,42
1176240,note_on,0,0,4,,,,,,,,,3,,,53,41
1176240,note_off,240,0,4,,,,,,,,,3,,,46,0
1176480,note_off,240,0,4,,,,,,,,,3,,,53,0
1176480,note_on,0,0,4,,,,,,,,,3,,,56,41
1176720,note_on,0,0,4,,,,,,,,,3,,,52,41
1176720,note_off,240,0,4,,,,,,,,,3,,,56,0
1176960,note_on,0,0,4,,,,,,,,,3,,,53,40
1176960,note_off,240,0,4,,,,,,,,,3,,,52,0
1177200,note_on,0,0,4,,,,,,,,,3,,,56,40
1177200,note_off,240,0,4,,,,,,,,,3,,,53,0
1177440,note_off,240,0,4,,,,,,,,,3,,,56,0
1177440,note_on,1440,0,1,,,,,,,,,0,,,58,40
1177680,note_off,240,0,1,,,,,,,,,0,,,58,0
1177680,note_on,0,0,1,,,,,,,,,0,,,65,40
1177920,note_off,240,0,1,,,,,,,,,0,,,65,0
1177920,note_on,0,0,1,,,,,,,,,0,,,68,39
1178160,note_on,0,0,1,,,,,,,,,0,,,64,39
1178160,note_off,240,0,1,,,,,,,,,0,,,68,0
1178400,note_off,240,0,1,,,,,,,,,0,,,64,0
1178400,note_on,0,0,1,,,,,,,,,0,,,65,39
1178640,note_off,240,0,1,,,,,,,,,0,,,65,0
1178640,note_on,0,0,1,,,,,,,,,0,,,68,39
1178880,note_on,1440,0,4,,,,,,,,,3,,,46,38
1178880,note_off,240,0,1,,,,,,,,,0,,,68,0
1179120,note_off,240,0,4,,,,,,,,,3,,,46,0
1179120,note_on,0,0,4,,,,,,,,,3,,,53,38
1179360,note_off,240,0,4,,,,,,,,,3,,,53,0
1179360,note_on,0,0,4,,,,,,,,,3,,,56,38
1179600,note_off,240,0,4,,,,,,,,,3,,,56,0
1179600,note_on,0,0,4,,,,,,,,,3,,,52,37
1179840,note_off,240,0,4,,,,,,,,,3,,,52,0
1179840,note_on,0,0,4,,,,,,,,,3,,,53,37
1180080,note_off,240,0,4,,,,,,,,,3,,,53,0
1180080,note_on,0,0,4,,,,,,,,,3,,,56,37
1180200,set_tempo,11400,1,0,,,,,,243902,,,,,,,
1180320,note_off,240,0,4,,,,,,,,,3,,,56,0
1180320,set_tempo,120,1,0,,,,,,241935,,,,,,,
1180320,note_on,1440,0,1,,,,,,,,,0,,,58,37
1180560,note_off,240,0,1,,,,,,,,,0,,,58,0
1180560,note_on,0,0,1,,,,,,,,,0,,,65,36
1180800,note_off,240,0,1,,,,,,,,,0,,,65,0
1180800,note_on,0,0,1,,,,,,,,,0,,,68,36
1181040,note_on,720,0,4,,,,,,,,,3,,,46,38
1181040,note_off,240,0,1,,,,,,,,,0,,,68,0
1181280,note_on,0,0,4,,,,,,,,,3,,,53,39
1181280,note_off,240,0,4,,,,,,,,,3,,,46,0
1181520,note_on,0,0,4,,,,,,,,,3,,,56,39
1181520,note_off,240,0,4,,,,,,,,,3,,,53,0
1181760,note_off,240,0,4,,,,,,,,,3,,,56,0
1181760,note_on,720,0,1,,,,,,,,,0,,,58,40
1182000,note_off,240,0,1,,,,,,,,,0,,,58,0
1182000,note_on,0,0,1,,,,,,,,,0,,,65,41
1182240,note_off,240,0,1,,,,,,,,,0,,,65,0
1182240,note_on,0,0,1,,,,,,,,,0,,,68,42
1182480,note_off,240,0,1,,,,,,,,,0,,,68,0
1182480,note_on,720,0,4,,,,,,,,,3,,,46,43
1182720,note_off,240,0,4,,,,,,,,,3,,,46,0
1182720,note_on,0,0,4,,,,,,,,,3,,,53,43
1182960,note_on,0,0,4,,,,,,,,,3,,,56,44
1182960,note_off,240,0,4,,,,,,,,,3,,,53,0
1183200,note_on,720,0,1,,,,,,,,,0,,,58,45
1183200,note_off,240,0,4,,,,,,,,,3,,,56,0
1183440,note_off,240,0,1,,,,,,,,,0,,,58,0
1183440,note_on,0,0,1,,,,,,,,,0,,,65,46
1183680,note_off,240,0,1,,,,,,,,,0,,,65,0
1183680,note_on,0,0,1,,,,,,,,,0,,,68,47
1183920,note_off,240,0,1,,,,,,,,,0,,,68,0
1183920,note_on,720,0,4,,,,,,,,,3,,,46,48
1184160,note_on,0,0,4,,,,,,,,,3,,,53,48
1184160,note_off,240,0,4,,,,,,,,,3,,,46,0
1184400,note_off,240,0,4,,,,,,,,,3,,,53,0
1184400,note_on,0,0,4,,,,,,,,,3,,,56,49
1184640,note_on,720,0,1,,,,,,,,,0,,,58,50
1184640,note_off,240,0,4,,,,,,,,,3,,,56,0
1184880,note_off,240,0,1,,,,,,,,,0,,,58,0
1184880,note_on,0,0,1,,,,,,,,,0,,,65,51
1185120,note_on,0,0,1,,,,,,,,,0,,,68,53
1185120,note_off,240,0,1,,,,,,,,,0,,,65,0
1185360,note_on,0,0,1,,,,,,,,,0,,,58,50
1185360,note_off,240,0,1,,,,,,,,,0,,,68,0
1185600,note_off,240,0,1,,,,,,,,,0,,,58,0
1185600,note_on,0,0,1,,,,,,,,,0,,,65,48
1185840,note_off,240,0,1,,,,,,,,,0,,,65,0
1185840,note_on,0,0,1,,,,,,,,,0,,,68,45
1186080,note_off,240,0,1,,,,,,,,,0,,,68,0
1186080,note_on,0,0,1,,,,,,,,,0,,,58,43
1186320,note_off,240,0,1,,,,,,,,,0,,,58,0
1186320,note_on,0,0,1,,,,,,,,,0,,,65,41
1186560,note_off,240,0,1,,,,,,,,,0,,,65,0
1186560,note_on,0,0,1,,,,,,,,,0,,,68,38
1186800,note_off,240,0,1,,,,,,,,,0,,,68,0
1186800,note_on,0,0,1,,,,,,,,,0,,,58,36
1187040,note_off,240,0,1,,,,,,,,,0,,,58,0
1187040,note_on,0,0,1,,,,,,,,,0,,,65,34
1187280,note_off,240,0,1,,,,,,,,,0,,,65,0
1187280,note_on,0,0,1,,,,,,,,,0,,,68,33
1187520,note_off,240,0,1,,,,,,,,,0,,,68,0
1187520,note_on,0,0,1,,,,,,,,,0,,,58,33
1187760,note_on,0,0,1,,,,,,,,,0,,,65,33
1187760,note_off,240,0,1,,,,,,,,,0,,,58,0
1188000,note_on,0,0,1,,,,,,,,,0,,,68,33
1188000,note_off,240,0,1,,,,,,,,,0,,,65,0
1188240,note_off,240,0,1,,,,,,,,,0,,,68,0
1188240,note_on,0,0,1,,,,,,,,,0,,,58,33
1188480,note_off,240,0,1,,,,,,,,,0,,,58,0
1188480,note_on,0,0,1,,,,,,,,,0,,,65,33
1188720,note_off,240,0,1,,,,,,,,,0,,,65,0
1188720,note_on,0,0,1,,,,,,,,,0,,,68,33
1188960,note_on,0,0,1,,,,,,,,,0,,,58,33
1188960,note_off,240,0,1,,,,,,,,,0,,,68,0
1189200,note_on,0,0,1,,,,,,,,,0,,,65,33
1189200,note_off,240,0,1,,,,,,,,,0,,,58,0
1189440,note_off,240,0,1,,,,,,,,,0,,,65,0
1189440,note_on,0,0,1,,,,,,,,,0,,,68,33
1189680,note_on,0,0,1,,,,,,,,,0,,,58,33
1189680,set_tempo,9360,1,0,,,,,,248962,,,,,,,
1189680,note_off,240,0,1,,,,,,,,,0,,,68,0
1189920,set_tempo,240,1,0,,,,,,241935,,,,,,,
1189920,note_off,240,0,1,,,,,,,,,0,,,58,0
1189920,note_on,0,0,1,,,,,,,,,0,,,63,32
1190160,set_tempo,240,1,0,,,,,,243902,,,,,,,
1190160,note_off,240,0,1,,,,,,,,,0,,,63,0
1190160,note_on,0,0,1,,,,,,,,,0,,,67,32
1190400,note_off,240,0,1,,,,,,,,,0,,,67,0
1190400,note_on,0,0,1,,,,,,,,,0,,,58,32
1190400,set_tempo,240,1,0,,,,,,240000,,,,,,,
1190640,note_on,0,0,1,,,,,,,,,0,,,63,32
1190640,note_off,240,0,1,,,,,,,,,0,,,58,0
1190880,note_off,240,0,1,,,,,,,,,0,,,63,0
1190880,note_on,0,0,1,,,,,,,,,0,,,67,32
1191120,note_off,240,0,1,,,,,,,,,0,,,67,0
1191120,note_on,0,0,1,,,,,,,,,0,,,62,32
1191360,note_off,240,0,1,,,,,,,,,0,,,62,0
1191360,note_on,0,0,1,,,,,,,,,0,,,63,32
1191600,note_off,240,0,1,,,,,,,,,0,,,63,0
1191600,note_on,0,0,1,,,,,,,,,0,,,67,32
1191840,note_off,240,0,1,,,,,,,,,0,,,67,0
1191840,note_on,0,0,1,,,,,,,,,0,,,58,32
1192080,note_off,240,0,1,,,,,,,,,0,,,58,0
1192080,note_on,0,0,1,,,,,,,,,0,,,63,32
1192320,note_off,240,0,1,,,,,,,,,0,,,63,0
1192320,note_on,0,0,1,,,,,,,,,0,,,67,32
1192560,note_off,240,0,1,,,,,,,,,0,,,67,0
1192560,note_on,0,0,1,,,,,,,,,0,,,62,31
1192560,control_change,7920,0,4,,,,,,,10,73,3,,,,
1192800,note_off,240,0,1,,,,,,,,,0,,,62,0
1192800,note_on,0,0,1,,,,,,,,,0,,,63,31
1193040,note_on,480,0,4,,,,,,,,,3,,,82,40
1193040,note_off,240,0,1,,,,,,,,,0,,,63,0
1193040,note_on,0,0,1,,,,,,,,,0,,,67,31
1193160,set_tempo,2760,1,0,,,,,,241935,,,,,,,
1193280,note_off,240,0,1,,,,,,,,,0,,,67,0
1193280,note_on,0,0,1,,,,,,,,,0,,,58,31
1193280,note_off,0,0,4,,,,,,,,,3,,,82,0
1193280,set_tempo,120,1,0,,,,,,240000,,,,,,,
1193280,note_on,0,0,4,,,,,,,,,3,,,82,45
1193280,control_change,240,0,4,,,,,,,64,0,3,,,,
1193520,note_on,0,0,1,,,,,,,,,0,,,65,31
1193520,note_off,240,0,1,,,,,,,,,0,,,58,0
1193760,note_on,0,0,1,,,,,,,,,0,,,68,31
1193760,note_off,240,0,1,,,,,,,,,0,,,65,0
1193760,note_off,480,0,4,,,,,,,,,3,,,82,0
1193760,note_on,0,0,4,,,,,,,,,3,,,80,43
1194000,note_on,0,0,4,,,,,,,,,3,,,77,42
1194000,note_on,0,0,1,,,,,,,,,0,,,64,31
1194000,note_off,240,0,1,,,,,,,,,0,,,68,0
1194000,note_off,240,0,4,,,,,,,,,3,,,80,0
1194240,note_on,0,0,1,,,,,,,,,0,,,65,31
1194240,note_off,240,0,1,,,,,,,,,0,,,64,0
1194480,note_on,0,0,4,,,,,,,,,3,,,74,40
1194480,note_off,240,0,1,,,,,,,,,0,,,65,0
1194480,note_on,0,0,1,,,,,,,,,0,,,68,31
1194480,note_off,480,0,4,,,,,,,,,3,,,77,0
1194720,note_off,240,0,1,,,,,,,,,0,,,68,0
1194720,note_off,240,0,4,,,,,,,,,3,,,74,0
1194720,note_on,0,0,4,,,,,,,,,3,,,75,39
1194720,note_on,0,0,1,,,,,,,,,0,,,58,31
1194960,note_on,0,0,1,,,,,,,,,0,,,63,31
1194960,note_off,240,0,1,,,,,,,,,0,,,58,0
1195200,note_off,480,0,4,,,,,,,,,3,,,75,0
1195200,note_on,0,0,1,,,,,,,,,0,,,67,30
1195200,note_off,240,0,1,,,,,,,,,0,,,63,0
1195440,control_change,240,0,4,,,,,,,10,55,3,,,,
1195440,note_off,240,0,1,,,,,,,,,0,,,67,0
1195440,note_on,0,0,1,,,,,,,,,0,,,62,30
1195680,note_off,240,0,1,,,,,,,,,0,,,62,0
1195680,note_on,0,0,1,,,,,,,,,0,,,63,30
1195920,note_on,480,0,4,,,,,,,,,3,,,46,40
1195920,note_on,0,0,1,,,,,,,,,0,,,67,30
1195920,note_off,240,0,1,,,,,,,,,0,,,63,0
1196040,set_tempo,2760,1,0,,,,,,241935,,,,,,,
1196160,note_on,0,0,1,,,,,,,,,0,,,62,30
1196160,note_off,240,0,4,,,,,,,,,3,,,46,0
1196160,note_on,0,0,4,,,,,,,,,3,,,46,45
1196160,set_tempo,120,1,0,,,,,,240000,,,,,,,
1196160,note_off,240,0,1,,,,,,,,,0,,,67,0
1196400,note_on,0,0,1,,,,,,,,,0,,,65,30
1196400,note_off,240,0,1,,,,,,,,,0,,,62,0
1196640,note_off,240,0,1,,,,,,,,,0,,,65,0
1196640,note_off,480,0,4,,,,,,,,,3,,,46,0
1196640,note_on,0,0,4,,,,,,,,,3,,,44,42
1196640,note_on,0,0,1,,,,,,,,,0,,,68,30
1196880,note_on,0,0,4,,,,,,,,,3,,,41,41
1196880,note_off,240,0,4,,,,,,,,,3,,,44,0
1196880,note_on,0,0,1,,,,,,,,,0,,,58,30
1196880,note_off,240,0,1,,,,,,,,,0,,,68,0
1197120,note_off,240,0,1,,,,,,,,,0,,,58,0
1197120,note_on,0,0,1,,,,,,,,,0,,,65,30
1197360,note_on,0,0,1,,,,,,,,,0,,,68,30
1197360,note_off,480,0,4,,,,,,,,,3,,,41,0
1197360,note_off,240,0,1,,,,,,,,,0,,,65,0
1197360,note_on,0,0,4,,,,,,,,,3,,,38,38
1197600,note_on,0,0,1,,,,,,,,,0,,,58,30
1197600,note_off,240,0,1,,,,,,,,,0,,,68,0
1197600,note_off,240,0,4,,,,,,,,,3,,,38,0
1197600,note_on,0,0,4,,,,,,,,,3,,,39,36
1197840,note_on,0,0,1,,,,,,,,,0,,,63,29
1197840,note_off,240,0,1,,,,,,,,,0,,,58,0
1198080,note_off,240,0,1,,,,,,,,,0,,,63,0
1198080,note_on,0,0,1,,,,,,,,,0,,,67,29
1198080,note_off,480,0,4,,,,,,,,,3,,,39,0
1198320,set_tempo,2160,1,0,,,,,,248962,,,,,,,
1198320,note_off,240,0,1,,,,,,,,,0,,,67,0
1198320,note_on,0,0,1,,,,,,,,,0,,,62,29
1198560,note_on,0,0,1,,,,,,,,,0,,,63,29
1198560,note_off,240,0,1,,,,,,,,,0,,,62,0
1198560,set_tempo,240,1,0,,,,,,241935,,,,,,,
1198800,note_on,0,0,1,,,,,,,,,0,,,67,29
1198800,note_off,240,0,1,,,,,,,,,0,,,63,0
1198800,set_tempo,240,1,0,,,,,,243902,,,,,,,
1199040,set_tempo,240,1,0,,,,,,240000,,,,,,,
1199040,note_off,240,0,1,,,,,,,,,0,,,67,0
1199040,note_on,0,0,1,,,,,,,,,0,,,58,29
1199280,note_off,240,0,1,,,,,,,,,0,,,58,0
1199280,note_on,0,0,1,,,,,,,,,0,,,63,29
1199520,note_on,0,0,1,,,,,,,,,0,,,67,29
1199520,note_off,240,0,1,,,,,,,,,0,,,63,0
1199760,note_on,0,0,1,,,,,,,,,0,,,62,29
1199760,note_off,240,0,1,,,,,,,,,0,,,67,0
1200000,note_off,240,0,1,,,,,,,,,0,,,62,0
1200000,note_on,0,0,1,,,,,,,,,0,,,63,29
1200240,note_on,0,0,1,,,,,,,,,0,,,67,28
1200240,note_off,240,0,1,,,,,,,,,0,,,63,0
1200480,note_off,240,0,1,,,,,,,,,0,,,67,0
1200480,note_on,0,0,1,,,,,,,,,0,,,58,28
1200720,note_off,240,0,1,,,,,,,,,0,,,58,0
1200720,note_on,0,0,1,,,,,,,,,0,,,63,28
1200960,note_off,240,0,1,,,,,,,,,0,,,63,0
1200960,note_on,0,0,1,,,,,,,,,0,,,67,28
1201200,note_on,0,0,1,,,,,,,,,0,,,62,28
1201200,note_off,240,0,1,,,,,,,,,0,,,67,0
1201200,control_change,3120,0,4,,,,,,,10,73,3,,,,
1201440,note_on,0,0,1,,,,,,,,,0,,,63,28
1201440,note_off,240,0,1,,,,,,,,,0,,,62,0
1201680,note_on,480,0,4,,,,,,,,,3,,,82,39
1201680,note_on,0,0,1,,,,,,,,,0,,,67,28
1201680,note_off,240,0,1,,,,,,,,,0,,,63,0
1201800,set_tempo,2760,1,0,,,,,,241935,,,,,,,
1201920,control_change,0,0,4,,,,,,,64,0,3,,,,
1201920,note_off,0,0,4,,,,,,,,,3,,,82,0
1201920,note_on,0,0,4,,,,,,,,,3,,,82,41
1201920,set_tempo,120,1,0,,,,,,240000,,,,,,,
1201920,note_on,0,0,1,,,,,,,,,0,,,58,28
1201920,control_change,240,0,4,,,,,,,64,0,3,,,,
1201920,note_off,240,0,1,,,,,,,,,0,,,67,0
1202160,note_on,0,0,1,,,,,,,,,0,,,65,28
1202160,note_off,240,0,1,,,,,,,,,0,,,58,0
1202400,note_on,0,0,1,,,,,,,,,0,,,68,28
1202400,note_on,0,0,4,,,,,,,,,3,,,80,39
1202400,note_off,240,0,1,,,,,,,,,0,,,65,0
1202400,note_off,480,0,4,,,,,,,,,3,,,82,0
1202640,note_on,0,0,1,,,,,,,,,0,,,64,28
1202640,note_on,0,0,4,,,,,,,,,3,,,77,38
1202640,note_off,240,0,4,,,,,,,,,3,,,80,0
1202640,note_off,240,0,1,,,,,,,,,0,,,68,0
1202880,note_on,0,0,1,,,,,,,,,0,,,65,27
1202880,note_off,240,0,1,,,,,,,,,0,,,64,0
1203120,note_off,240,0,1,,,,,,,,,0,,,65,0
1203120,note_on,0,0,4,,,,,,,,,3,,,74,35
1203120,note_on,0,0,1,,,,,,,,,0,,,68,27
1203120,note_off,480,0,4,,,,,,,,,3,,,77,0
1203360,note_on,0,0,1,,,,,,,,,0,,,58,27
1203360,note_off,240,0,1,,,,,,,,,0,,,68,0
1203360,note_on,0,0,4,,,,,,,,,3,,,75,32
1203360,note_off,240,0,4,,,,,,,,,3,,,74,0
1203600,note_off,240,0,1,,,,,,,,,0,,,58,0
1203600,note_on,0,0,1,,,,,,,,,0,,,63,27
1203840,note_off,240,0,1,,,,,,,,,0,,,63,0
1203840,note_on,0,0,1,,,,,,,,,0,,,67,27
1203840,note_off,480,0,4,,,,,,,,,3,,,75,0
1204080,note_off,240,0,1,,,,,,,,,0,,,67,0
1204080,note_on,0,0,1,,,,,,,,,0,,,62,27
1204080,control_change,240,0,4,,,,,,,10,55,3,,,,
1204320,note_on,0,0,1,,,,,,,,,0,,,63,27
1204320,note_off,240,0,1,,,,,,,,,0,,,62,0
1204560,note_on,480,0,4,,,,,,,,,3,,,46,38
1204560,note_off,240,0,1,,,,,,,,,0,,,63,0
1204560,note_on,0,0,1,,,,,,,,,0,,,67,27
1204680,set_tempo,2760,1,0,,,,,,241935,,,,,,,
1204800,note_on,0,0,1,,,,,,,,,0,,,62,27
1204800,note_off,240,0,1,,,,,,,,,0,,,67,0
1204800,note_on,0,0,4,,,,,,,,,3,,,46,41
1204800,set_tempo,120,1,0,,,,,,240000,,,,,,,
1204800,note_off,240,0,4,,,,,,,,,3,,,46,0
1205040,note_off,240,0,1,,,,,,,,,0,,,62,0
1205040,note_on,0,0,1,,,,,,,,,0,,,65,27
1205280,note_off,240,0,1,,,,,,,,,0,,,65,0
1205280,note_on,0,0,1,,,,,,,,,0,,,68,27
1205280,note_off,480,0,4,,,,,,,,,3,,,46,0
1205280,note_on,0,0,4,,,,,,,,,3,,,44,40
1205520,note_on,0,0,4,,,,,,,,,3,,,41,39
1205520,note_off,240,0,1,,,,,,,,,0,,,68,0
1205520,note_on,0,0,1,,,,,,,,,0,,,58,26
1205520,note_off,240,0,4,,,,,,,,,3,,,44,0
1205760,note_off,240,0,1,,,,,,,,,0,,,58,0
1205760,note_on,0,0,1,,,,,,,,,0,,,65,26
1206000,note_off,480,0,4,,,,,,,,,3,,,41,0
1206000,note_on,0,0,4,,,,,,,,,3,,,38,37
1206000,note_off,240,0,1,,,,,,,,,0,,,65,0
1206000,note_on,0,0,1,,,,,,,,,0,,,68,26
1206240,note_on,0,0,1,,,,,,,,,0,,,58,26
1206240,note_off,240,0,1,,,,,,,,,0,,,68,0
1206240,note_off,240,0,4,,,,,,,,,3,,,38,0
1206240,note_on,0,0,4,,,,,,,,,3,,,39,34
1206480,note_on,0,0,1,,,,,,,,,0,,,63,26
1206480,note_off,240,0,1,,,,,,,,,0,,,58,0
1206720,note_on,0,0,1,,,,,,,,,0,,,67,26
1206720,note_off,240,0,1,,,,,,,,,0,,,63,0
1206720,note_off,480,0,4,,,,,,,,,3,,,39,0
1206960,control_change,240,0,4,,,,,,,10,73,3,,,,
1206960,note_off,240,0,1,,,,,,,,,0,,,67,0
1206960,note_on,0,0,1,,,,,,,,,0,,,63,26
1207200,note_off,240,0,1,,,,,,,,,0,,,63,0
1207200,note_on,0,0,1,,,,,,,,,0,,,67,26
1207440,note_off,240,0,1,,,,,,,,,0,,,67,0
1207440,note_on,480,0,4,,,,,,,,,3,,,84,37
1207440,note_on,0,0,1,,,,,,,,,0,,,70,26
1207560,set_tempo,2760,1,0,,,,,,241935,,,,,,,
1207680,note_off,0,0,4,,,,,,,,,3,,,84,0
1207680,note_on,0,0,1,,,,,,,,,0,,,64,28
1207680,set_tempo,120,1,0,,,,,,240000,,,,,,,
1207680,note_off,240,0,1,,,,,,,,,0,,,70,0
1207680,control_change,240,0,4,,,,,,,64,0,3,,,,
1207680,note_on,0,0,4,,,,,,,,,3,,,84,37
1207920,note_off,240,0,1,,,,,,,,,0,,,64,0
1207920,note_on,0,0,1,,,,,,,,,0,,,67,28
1208160,note_off,480,0,4,,,,,,,,,3,,,84,0
1208160,note_off,240,0,1,,,,,,,,,0,,,67,0
1208160,note_on,0,0,1,,,,,,,,,0,,,70,29
1208160,note_on,0,0,4,,,,,,,,,3,,,82,38
1208400,note_off,240,0,1,,,,,,,,,0,,,70,0
1208400,note_on,0,0,1,,,,,,,,,0,,,60,29
1208400,note_off,240,0,4,,,,,,,,,3,,,82,0
1208400,note_on,0,0,4,,,,,,,,,3,,,79,38
1208640,note_off,240,0,1,,,,,,,,,0,,,60,0
1208640,note_on,0,0,1,,,,,,,,,0,,,67,30
1208880,note_off,240,0,1,,,,,,,,,0,,,67,0
1208880,note_on,0,0,4,,,,,,,,,3,,,76,39
1208880,note_off,480,0,4,,,,,,,,,3,,,79,0
1208880,note_on,0,0,1,,,,,,,,,0,,,70,30
1209120,note_off,240,0,1,,,,,,,,,0,,,70,0
1209120,note_on,0,0,4,,,,,,,,,3,,,77,35
1209120,note_off,240,0,4,,,,,,,,,3,,,76,0
1209120,note_on,0,0,1,,,,,,,,,0,,,60,31
1209360,note_off,240,0,1,,,,,,,,,0,,,60,0
1209360,note_on,0,0,1,,,,,,,,,0,,,65,31
1209600,note_off,240,0,1,,,,,,,,,0,,,65,0
1209600,note_on,0,0,1,,,,,,,,,0,,,68,32
1209600,note_off,480,0,4,,,,,,,,,3,,,77,0
1209840,note_on,0,0,1,,,,,,,,,0,,,64,32
1209840,note_off,240,0,1,,,,,,,,,0,,,68,0
1209840,control_change,240,0,4,,,,,,,10,55,3,,,,
1210080,note_off,240,0,1,,,,,,,,,0,,,64,0
1210080,note_on,0,0,1,,,,,,,,,0,,,65,33
1210320,note_on,480,0,4,,,,,,,,,3,,,48,41
1210320,note_on,0,0,1,,,,,,,,,0,,,68,33
1210320,note_off,240,0,1,,,,,,,,,0,,,65,0
1210440,set_tempo,2760,1,0,,,,,,241935,,,,,,,
1210560,note_off,240,0,1,,,,,,,,,0,,,68,0
1210560,note_on,0,0,1,,,,,,,,,0,,,64,33
1210560,note_on,0,0,4,,,,,,,,,3,,,48,42
1210560,note_off,240,0,4,,,,,,,,,3,,,48,0
1210560,set_tempo,120,1,0,,,,,,240000,,,,,,,
1210800,note_off,240,0,1,,,,,,,,,0,,,64,0
1210800,note_on,0,0,1,,,,,,,,,0,,,67,34
1211040,note_off,240,0,1,,,,,,,,,0,,,67,0
1211040,note_off,480,0,4,,,,,,,,,3,,,48,0
1211040,note_on,0,0,4,,,,,,,,,3,,,46,42
1211040,note_on,0,0,1,,,,,,,,,0,,,70,34
1211280,note_on,0,0,1,,,,,,,,,0,,,60,35
1211280,note_off,240,0,1,,,,,,,,,0,,,70,0
1211280,note_on,0,0,4,,,,,,,,,3,,,43,43
1211280,note_off,240,0,4,,,,,,,,,3,,,46,0
1211520,note_off,240,0,1,,,,,,,,,0,,,60,0
1211520,note_on,0,0,1,,,,,,,,,0,,,67,35
1211760,note_off,240,0,1,,,,,,,,,0,,,67,0
1211760,note_on,0,0,1,,,,,,,,,0,,,70,36
1211760,note_off,480,0,4,,,,,,,,,3,,,43,0
1211760,note_on,0,0,4,,,,,,,,,3,,,40,43
1212000,note_on,0,0,4,,,,,,,,,3,,,41,40
1212000,note_off,240,0,4,,,,,,,,,3,,,40,0
1212000,note_on,0,0,1,,,,,,,,,0,,,60,36
1212000,note_off,240,0,1,,,,,,,,,0,,,70,0
1212240,note_on,0,0,1,,,,,,,,,0,,,65,37
1212240,note_off,240,0,1,,,,,,,,,0,,,60,0
1212480,note_on,0,0,1,,,,,,,,,0,,,68,37
1212480,note_off,240,0,1,,,,,,,,,0,,,65,0
1212480,note_off,480,0,4,,,,,,,,,3,,,41,0
1212720,note_off,240,0,1,,,,,,,,,0,,,68,0
1212720,note_on,0,0,1,,,,,,,,,0,,,67,38
1212720,control_change,240,0,4,,,,,,,10,73,3,,,,
1212960,note_off,240,0,1,,,,,,,,,0,,,67,0
1212960,note_on,0,0,1,,,,,,,,,0,,,68,38
1213200,note_off,240,0,1,,,,,,,,,0,,,68,0
1213200,note_on,0,0,1,,,,,,,,,0,,,72,39
1213200,note_on,480,0,4,,,,,,,,,3,,,87,46
1213320,set_tempo,2760,1,0,,,,,,241935,,,,,,,
1213440,note_on,0,0,4,,,,,,,,,3,,,87,46
1213440,note_off,240,0,1,,,,,,,,,0,,,72,0
1213440,set_tempo,120,1,0,,,,,,240000,,,,,,,
1213440,note_on,0,0,1,,,,,,,,,0,,,67,39
1213440,control_change,240,0,4,,,,,,,64,0,3,,,,
1213440,note_off,0,0,4,,,,,,,,,3,,,87,0
1213680,note_off,240,0,1,,,,,,,,,0,,,67,0
1213680,note_on,0,0,1,,,,,,,,,0,,,70,39
1213920,note_off,480,0,4,,,,,,,,,3,,,87,0
1213920,note_off,240,0,1,,,,,,,,,0,,,70,0
1213920,note_on,0,0,1,,,,,,,,,0,,,73,40
1213920,note_on,0,0,4,,,,,,,,,3,,,85,47
1214160,note_off,240,0,4,,,,,,,,,3,,,85,0
1214160,note_on,0,0,4,,,,,,,,,3,,,82,47
1214160,note_on,0,0,1,,,,,,,,,0,,,63,40
1214160,note_off,240,0,1,,,,,,,,,0,,,73,0
1214400,note_on,0,0,1,,,,,,,,,0,,,70,41
1214400,note_off,240,0,1,,,,,,,,,0,,,63,0
1214640,note_off,480,0,4,,,,,,,,,3,,,82,0
1214640,note_on,0,0,4,,,,,,,,,3,,,79,48
1214640,note_off,240,0,1,,,,,,,,,0,,,70,0
1214640,note_on,0,0,1,,,,,,,,,0,,,73,41
1214880,note_on,0,0,4,,,,,,,,,3,,,80,46
1214880,note_off,240,0,4,,,,,,,,,3,,,79,0
1214880,note_on,0,0,1,,,,,,,,,0,,,63,42
1214880,note_off,240,0,1,,,,,,,,,0,,,73,0
1215120,note_on,0,0,1,,,,,,,,,0,,,68,42
1215120,note_off,240,0,1,,,,,,,,,0,,,63,0
1215360,note_off,480,0,4,,,,,,,,,3,,,80,0
1215360,note_on,0,0,1,,,,,,,,,0,,,72,43
1215360,note_off,240,0,1,,,,,,,,,0,,,68,0
1215600,note_on,0,0,1,,,,,,,,,0,,,67,43
1215600,note_off,240,0,1,,,,,,,,,0,,,72,0
1215600,control_change,240,0,4,,,,,,,10,55,3,,,,
1215840,note_off,240,0,1,,,,,,,,,0,,,67,0
1215840,note_on,0,0,1,,,,,,,,,0,,,68,44
1216080,note_off,240,0,1,,,,,,,,,0,,,68,0
1216080,note_on,0,0,1,,,,,,,,,0,,,72,44
1216080,note_on,480,0,4,,,,,,,,,3,,,51,50
1216200,set_tempo,2760,1,0,,,,,,241935,,,,,,,
1216320,note_on,0,0,4,,,,,,,,,3,,,51,50
1216320,note_off,240,0,4,,,,,,,,,3,,,51,0
1216320,note_off,240,0,1,,,,,,,,,0,,,72,0
1216320,note_on,0,0,1,,,,,,,,,0,,,67,45
1216320,set_tempo,120,1,0,,,,,,240000,,,,,,,
1216560,note_off,240,0,1,,,,,,,,,0,,,67,0
1216560,note_on,0,0,1,,,,,,,,,0,,,70,45
1216800,note_off,240,0,1,,,,,,,,,0,,,70,0
1216800,note_on,0,0,1,,,,,,,,,0,,,73,45
1216800,note_off,480,0,4,,,,,,,,,3,,,51,0
1216800,note_on,0,0,4,,,,,,,,,3,,,49,51
1217040,note_on,0,0,1,,,,,,,,,0,,,63,46
1217040,note_off,240,0,4,,,,,,,,,3,,,49,0
1217040,note_on,0,0,4,,,,,,,,,3,,,46,52
1217040,note_off,240,0,1,,,,,,,,,0,,,73,0
1217280,note_on,0,0,1,,,,,,,,,0,,,70,46
1217280,note_off,240,0,1,,,,,,,,,0,,,63,0
1217520,note_on,0,0,1,,,,,,,,,0,,,73,47
1217520,note_on,0,0,4,,,,,,,,,3,,,43,52
1217520,note_off,480,0,4,,,,,,,,,3,,,46,0
1217520,note_off,240,0,1,,,,,,,,,0,,,70,0
1217760,note_on,0,0,4,,,,,,,,,3,,,44,49
1217760,note_on,0,0,1,,,,,,,,,0,,,63,47
1217760,note_off,240,0,1,,,,,,,,,0,,,73,0
1217760,note_off,240,0,4,,,,,,,,,3,,,43,0
1218000,note_on,0,0,1,,,,,,,,,0,,,68,48
1218000,note_off,240,0,1,,,,,,,,,0,,,63,0
1218240,note_on,0,0,1,,,,,,,,,0,,,72,48
1218240,note_off,480,0,4,,,,,,,,,3,,,44,0
1218240,note_off,240,0,1,,,,,,,,,0,,,68,0
1218480,note_on,0,0,1,,,,,,,,,0,,,67,49
1218480,note_off,240,0,1,,,,,,,,,0,,,72,0
1218480,control_change,240,0,4,,,,,,,10,73,3,,,,
1218720,note_on,0,0,1,,,,,,,,,0,,,68,49
1218720,note_off,240,0,1,,,,,,,,,0,,,67,0
1218960,note_off,240,0,1,,,,,,,,,0,,,68,0
1218960,note_on,480,0,4,,,,,,,,,3,,,87,54
1218960,note_on,0,0,1,,,,,,,,,0,,,72,50
1219080,set_tempo,2760,1,0,,,,,,241935,,,,,,,
1219200,note_off,240,0,1,,,,,,,,,0,,,72,0
1219200,set_tempo,120,1,0,,,,,,240000,,,,,,,
1219200,note_on,0,0,1,,,,,,,,,0,,,67,50
1219200,control_change,240,0,4,,,,,,,64,0,3,,,,
1219200,note_off,0,0,4,,,,,,,,,3,,,87,0
1219200,note_on,0,0,4,,,,,,,,,3,,,87,55
1219440,note_on,0,0,1,,,,,,,,,0,,,70,51
1219440,note_off,240,0,1,,,,,,,,,0,,,67,0
1219680,note_on,0,0,4,,,,,,,,,3,,,85,56
1219680,note_on,0,0,1,,,,,,,,,0,,,73,51
1219680,note_off,240,0,1,,,,,,,,,0,,,70,0
1219680,note_off,480,0,4,,,,,,,,,3,,,87,0
1219920,note_on,0,0,4,,,,,,,,,3,,,82,56
1219920,note_off,240,0,4,,,,,,,,,3,,,85,0
1219920,note_on,0,0,1,,,,,,,,,0,,,63,51
1219920,note_off,240,0,1,,,,,,,,,0,,,73,0
1220160,note_off,240,0,1,,,,,,,,,0,,,63,0
1220160,note_on,0,0,1,,,,,,,,,0,,,70,52
1220400,note_on,0,0,1,,,,,,,,,0,,,73,52
1220400,note_off,240,0,1,,,,,,,,,0,,,70,0
1220400,note_off,480,0,4,,,,,,,,,3,,,82,0
1220400,note_on,0,0,4,,,,,,,,,3,,,79,53
1220640,control_change,240,0,4,,,,,,,10,55,3,,,,
1220640,note_on,0,0,1,,,,,,,,,0,,,67,53
1220640,note_off,240,0,1,,,,,,,,,0,,,73,0
1220640,note_off,0,0,4,,,,,,,,,3,,,79,0
1220640,note_on,0,0,4,,,,,,,,,3,,,51,57
1220880,note_off,240,0,1,,,,,,,,,0,,,67,0
1220880,note_on,0,0,1,,,,,,,,,0,,,70,53
1221120,note_on,0,0,4,,,,,,,,,3,,,49,58
1221120,note_off,240,0,1,,,,,,,,,0,,,70,0
1221120,note_on,0,0,1,,,,,,,,,0,,,73,54
1221120,note_off,480,0,4,,,,,,,,,3,,,51,0
1221360,note_off,240,0,4,,,,,,,,,3,,,49,0
1221360,note_on,0,0,4,,,,,,,,,3,,,46,58
1221360,note_off,240,0,1,,,,,,,,,0,,,73,0
1221360,note_on,0,0,1,,,,,,,,,0,,,63,54
1221600,note_off,240,0,1,,,,,,,,,0,,,63,0
1221600,note_on,0,0,1,,,,,,,,,0,,,70,55
1221840,note_off,240,0,1,,,,,,,,,0,,,70,0
1221840,note_on,0,0,1,,,,,,,,,0,,,73,55
1221840,note_on,0,0,4,,,,,,,,,3,,,43,55
1221840,note_off,480,0,4,,,,,,,,,3,,,46,0
1222080,note_off,240,0,1,,,,,,,,,0,,,73,0
1222080,note_on,0,0,1,,,,,,,,,0,,,67,56
1222080,note_on,0,0,4,,,,,,,,,3,,,51,59
1222080,note_off,240,0,4,,,,,,,,,3,,,43,0
1222320,note_off,240,0,1,,,,,,,,,0,,,67,0
1222320,note_on,0,0,1,,,,,,,,,0,,,70,56
1222560,note_on,0,0,1,,,,,,,,,0,,,73,57
1222560,note_off,240,0,1,,,,,,,,,0,,,70,0
1222560,note_off,480,0,4,,,,,,,,,3,,,51,0
1222560,note_on,0,0,4,,,,,,,,,3,,,49,60
1222800,note_on,0,0,4,,,,,,,,,3,,,46,60
1222800,note_off,240,0,1,,,,,,,,,0,,,73,0
1222800,note_on,0,0,1,,,,,,,,,0,,,63,57
1222800,note_off,240,0,4,,,,,,,,,3,,,49,0
1223040,note_off,240,0,1,,,,,,,,,0,,,63,0
1223040,note_on,0,0,1,,,,,,,,,0,,,70,57
1223280,note_on,0,0,1,,,,,,,,,0,,,73,58
1223280,note_off,240,0,1,,,,,,,,,0,,,70,0
1223280,note_off,480,0,4,,,,,,,,,3,,,46,0
1223280,note_on,0,0,4,,,,,,,,,3,,,43,57
1223520,note_on,0,0,4,,,,,,,,,3,,,51,62
1223520,note_off,240,0,1,,,,,,,,,0,,,73,0
1223520,note_off,240,0,4,,,,,,,,,3,,,43,0
1223520,note_on,0,0,1,,,,,,,,,0,,,67,58
1223760,note_on,0,0,1,,,,,,,,,0,,,70,59
1223760,note_off,240,0,1,,,,,,,,,0,,,67,0
1224000,note_on,0,0,1,,,,,,,,,0,,,73,59
1224000,note_off,480,0,4,,,,,,,,,3,,,51,0
1224000,note_on,0,0,4,,,,,,,,,3,,,49,62
1224000,note_off,240,0,1,,,,,,,,,0,,,70,0
1224240,note_on,0,0,1,,,,,,,,,0,,,63,60
1224240,note_off,240,0,1,,,,,,,,,0,,,73,0
1224240,note_on,0,0,4,,,,,,,,,3,,,46,63
1224240,note_off,240,0,4,,,,,,,,,3,,,49,0
1224480,note_off,240,0,1,,,,,,,,,0,,,63,0
1224480,note_on,0,0,1,,,,,,,,,0,,,70,60
1224720,note_on,0,0,4,,,,,,,,,3,,,43,60
1224720,note_off,480,0,4,,,,,,,,,3,,,46,0
1224720,note_off,240,0,1,,,,,,,,,0,,,70,0
1224720,note_on,0,0,1,,,,,,,,,0,,,73,61
1224840,set_tempo,5640,1,0,,,,,,241935,,,,,,,
1224960,note_off,0,0,4,,,,,,,,,3,,,43,0
1224960,control_change,240,0,4,,,,,,,64,0,3,,,,
1224960,note_on,0,0,1,,,,,,,,,0,,,63,70
1224960,set_tempo,120,1,0,,,,,,240000,,,,,,,
1224960,note_on,0,0,4,,,,,,,,,3,,,56,75
1224960,note_off,240,0,1,,,,,,,,,0,,,73,0
1225200,note_off,240,0,4,,,,,,,,,3,,,56,0
1225200,note_on,0,0,1,,,,,,,,,0,,,68,62
1225200,note_on,0,0,4,,,,,,,,,3,,,51,64
1225200,note_off,240,0,1,,,,,,,,,0,,,63,0
1225440,note_off,240,0,1,,,,,,,,,0,,,68,0
1225440,note_on,0,0,4,,,,,,,,,3,,,48,64
1225440,note_off,240,0,4,,,,,,,,,3,,,51,0
1225440,note_on,0,0,1,,,,,,,,,0,,,72,62
1225680,note_on,0,0,4,,,,,,,,,3,,,51,65
1225680,note_off,240,0,1,,,,,,,,,0,,,72,0
1225680,note_on,0,0,1,,,,,,,,,0,,,67,63
1225680,note_off,240,0,4,,,,,,,,,3,,,48,0
1225920,note_on,0,0,1,,,,,,,,,0,,,68,63
1225920,note_on,0,0,4,,,,,,,,,3,,,48,65
1225920,note_off,240,0,4,,,,,,,,,3,,,51,0
1225920,note_off,240,0,1,,,,,,,,,0,,,67,0
1226160,note_off,240,0,4,,,,,,,,,3,,,48,0
1226160,note_on,0,0,1,,,,,,,,,0,,,72,63
1226160,note_on,0,0,4,,,,,,,,,3,,,44,66
1226160,note_off,240,0,1,,,,,,,,,0,,,68,0
1226400,note_off,240,0,1,,,,,,,,,0,,,72,0
1226400,note_on,0,0,1,,,,,,,,,0,,,63,72
1226400,note_off,240,0,4,,,,,,,,,3,,,44,0
1226400,note_on,0,0,4,,,,,,,,,3,,,56,76
1226640,note_off,240,0,1,,,,,,,,,0,,,63,0
1226640,note_on,0,0,4,,,,,,,,,3,,,51,66
1226640,note_on,0,0,1,,,,,,,,,0,,,68,64
1226640,note_off,240,0,4,,,,,,,,,3,,,56,0
1226880,note_on,0,0,1,,,,,,,,,0,,,72,65
1226880,note_off,240,0,4,,,,,,,,,3,,,51,0
1226880,note_on,0,0,4,,,,,,,,,3,,,48,67
1226880,note_off,240,0,1,,,,,,,,,0,,,68,0
1227120,note_off,240,0,1,,,,,,,,,0,,,72,0
1227120,note_on,0,0,1,,,,,,,,,0,,,67,65
1227120,note_off,240,0,4,,,,,,,,,3,,,48,0
1227120,note_on,0,0,4,,,,,,,,,3,,,51,67
1227360,note_on,0,0,1,,,,,,,,,0,,,68,66
1227360,note_off,240,0,4,,,,,,,,,3,,,51,0
1227360,note_on,0,0,4,,,,,,,,,3,,,48,67
1227360,note_off,240,0,1,,,,,,,,,0,,,67,0
1227600,note_on,0,0,1,,,,,,,,,0,,,72,66
1227600,note_on,0,0,4,,,,,,,,,3,,,44,68
1227600,note_off,240,0,4,,,,,,,,,3,,,48,0
1227600,note_off,240,0,1,,,,,,,,,0,,,68,0
1227840,note_on,0,0,1,,,,,,,,,0,,,63,74
1227840,note_off,240,0,1,,,,,,,,,0,,,72,0
1227840,note_on,0,0,4,,,,,,,,,3,,,56,78
1227840,note_off,240,0,4,,,,,,,,,3,,,44,0
1228080,note_on,0,0,1,,,,,,,,,0,,,68,67
1228080,note_off,240,0,1,,,,,,,,,0,,,63,0
1228080,note_on,0,0,4,,,,,,,,,3,,,51,69
1228080,note_off,240,0,4,,,,,,,,,3,,,56,0
1228320,note_on,0,0,1,,,,,,,,,0,,,72,68
1228320,note_off,240,0,1,,,,,,,,,0,,,68,0
1228320,note_off,240,0,4,,,,,,,,,3,,,51,0
1228320,note_on,0,0,4,,,,,,,,,3,,,48,69
1228560,note_on,0,0,1,,,,,,,,,0,,,67,68
1228560,note_off,240,0,1,,,,,,,,,0,,,72,0
1228560,note_off,240,0,4,,,,,,,,,3,,,48,0
1228560,note_on,0,0,4,,,,,,,,,3,,,51,69
1228800,note_off,240,0,1,,,,,,,,,0,,,67,0
1228800,note_on,0,0,1,,,,,,,,,0,,,68,69
1228800,note_on,0,0,4,,,,,,,,,3,,,48,70
1228800,note_off,240,0,4,,,,,,,,,3,,,51,0
1229040,note_on,0,0,4,,,,,,,,,3,,,44,70
1229040,note_off,240,0,1,,,,,,,,,0,,,68,0
1229040,note_on,0,0,1,,,,,,,,,0,,,72,69
1229040,note_off,240,0,4,,,,,,,,,3,,,48,0
1229280,note_on,0,0,4,,,,,,,,,3,,,56,80
1229280,note_off,240,0,4,,,,,,,,,3,,,44,0
1229280,note_off,240,0,1,,,,,,,,,0,,,72,0
1229280,note_on,0,0,1,,,,,,,,,0,,,63,78
1229520,note_off,240,0,1,,,,,,,,,0,,,63,0
1229520,note_on,0,0,1,,,,,,,,,0,,,68,70
1229520,note_on,0,0,4,,,,,,,,,3,,,51,71
1229520,note_off,240,0,4,,,,,,,,,3,,,56,0
1229760,note_on,0,0,4,,,,,,,,,3,,,48,71
1229760,note_off,240,0,1,,,,,,,,,0,,,68,0
1229760,note_on,0,0,1,,,,,,,,,0,,,72,70
1229760,note_off,240,0,4,,,,,,,,,3,,,51,0
1230000,note_on,0,0,1,,,,,,,,,0,,,67,71
1230000,note_off,240,0,1,,,,,,,,,0,,,72,0
1230000,note_off,240,0,4,,,,,,,,,3,,,48,0
1230000,note_on,0,0,4,,,,,,,,,3,,,51,72
1230240,note_on,0,0,4,,,,,,,,,3,,,48,72
1230240,set_tempo,5280,1,0,,,,,,241935,,,,,,,
1230240,note_off,240,0,4,,,,,,,,,3,,,51,0
1230240,note_on,0,0,1,,,,,,,,,0,,,68,71
1230240,note_off,240,0,1,,,,,,,,,0,,,67,0
1230480,note_on,0,0,1,,,,,,,,,0,,,72,72
1230480,note_off,240,0,4,,,,,,,,,3,,,48,0
1230480,note_on,0,0,4,,,,,,,,,3,,,44,72
1230480,note_off,240,0,1,,,,,,,,,0,,,68,0
1230480,set_tempo,240,1,0,,,,,,246913,,,,,,,
1230720,set_tempo,240,1,0,,,,,,1034482,,,,,,,
1230720,note_off,0,0,1,,,,,,,,,0,,,72,0
1230720,control_change,240,0,1,,,,,,,64,127,0,,,,
1230720,control_change,240,0,4,,,,,,,64,127,3,,,,
1230720,note_off,0,0,4,,,,,,,,,3,,,44,0
1230720,note_on,0,0,4,,,,,,,,,3,,,45,79
1230760,note_on,40,0,4,,,,,,,,,3,,,48,79
1230800,note_on,40,0,4,,,,,,,,,3,,,51,79
1230840,note_on,40,0,4,,,,,,,,,3,,,54,79
1230880,note_on,40,0,4,,,,,,,,,3,,,57,79
1230920,note_on,200,0,1,,,,,,,,,0,,,63,79
1230960,note_on,40,0,1,,,,,,,,,0,,,66,79
1231000,note_on,40,0,1,,,,,,,,,0,,,69,79
1231000,set_tempo,280,1,0,,,,,,1071428,,,,,,,
1231040,note_on,40,0,1,,,,,,,,,0,,,72,79
1231040,set_tempo,40,1,0,,,,,,1132075,,,,,,,
1231080,note_on,40,0,1,,,,,,,,,0,,,75,79
1232160,set_tempo,1120,1,0,,,,,,241935,,,,,,,
1232640,note_off,1760,0,4,,,,,,,,,3,,,45,0
1232680,note_off,40,0,4,,,,,,,,,3,,,48,0
1232720,note_off,40,0,4,,,,,,,,,3,,,51,0
1232760,note_off,40,0,4,,,,,,,,,3,,,54,0
1232800,note_off,40,0,4,,,,,,,,,3,,,57,0
1232840,note_off,1760,0,1,,,,,,,,,0,,,63,0
1232880,note_off,40,0,1,,,,,,,,,0,,,66,0
1232920,note_off,40,0,1,,,,,,,,,0,,,69,0
1232960,note_off,40,0,1,,,,,,,,,0,,,72,0
1233000,note_off,40,0,1,,,,,,,,,0,,,75,0
1233360,control_change,360,0,1,,,,,,,64,0,0,,,,
1233360,note_on,0,0,4,,,,,,,,,3,,,46,55
1233360,control_change,560,0,4,,,,,,,64,0,3,,,,
1233480,set_tempo,1320,1,0,,,,,,243902,,,,,,,
1233600,note_on,0,0,4,,,,,,,,,3,,,46,55
1233600,note_off,240,0,4,,,,,,,,,3,,,46,0
1234080,note_off,480,0,4,,,,,,,,,3,,,46,0
1234080,note_on,0,0,4,,,,,,,,,3,,,44,53
1234320,note_off,240,0,4,,,,,,,,,3,,,44,0
1234320,note_on,0,0,4,,,,,,,,,3,,,41,52
1234800,note_off,480,0,4,,,,,,,,,3,,,41,0
1234800,note_on,0,0,4,,,,,,,,,3,,,38,51
1234800,note_on,1440,0,1,,,,,,,,,0,,,82,48
1234935,set_tempo,1455,1,0,,,,,,244897,,,,,,,
1235040,note_on,0,0,1,,,,,,,,,0,,,82,47
1235040,note_off,240,0,1,,,,,,,,,0,,,82,0
1235040,note_off,240,0,4,,,,,,,,,3,,,38,0
1235040,note_on,0,0,4,,,,,,,,,3,,,39,50
1235520,note_off,480,0,4,,,,,,,,,3,,,39,0
1235520,note_on,0,0,1,,,,,,,,,0,,,79,45
1235520,note_off,480,0,1,,,,,,,,,0,,,82,0
1235760,note_off,240,0,1,,,,,,,,,0,,,79,0
1235760,note_on,0,0,1,,,,,,,,,0,,,75,44
1236240,note_on,0,0,1,,,,,,,,,0,,,70,42
1236240,note_off,480,0,1,,,,,,,,,0,,,75,0
1236360,set_tempo,1425,1,0,,,,,,246913,,,,,,,
1236480,note_on,960,0,4,,,,,,,,,3,,,46,45
1236480,note_on,0,0,4,,,,,,,,,3,,,53,45
1236480,note_off,240,0,1,,,,,,,,,0,,,70,0
1236480,note_on,0,0,1,,,,,,,,,0,,,70,41
1236480,note_on,0,0,4,,,,,,,,,3,,,56,45
1236960,note_off,480,0,1,,,,,,,,,0,,,70,0
1236960,note_on,0,0,1,,,,,,,,,0,,,68,39
1237200,note_off,240,0,1,,,,,,,,,0,,,68,0
1237200,note_on,0,0,1,,,,,,,,,0,,,65,38
1237560,set_tempo,1200,1,0,,,,,,248962,,,,,,,
1237620,note_off,420,0,1,,,,,,,,,0,,,65,0
1237680,note_on,60,0,1,,,,,,,,,0,,,62,35
1237920,note_on,0,0,4,,,,,,,,,3,,,51,41
1237920,note_on,0,0,4,,,,,,,,,3,,,55,41
1237920,note_off,0,0,4,,,,,,,,,3,,,46,0
1237920,note_off,0,0,4,,,,,,,,,3,,,56,0
1237920,note_off,1440,0,4,,,,,,,,,3,,,53,0
1237920,note_on,0,0,1,,,,,,,,,0,,,63,34
1237920,note_off,240,0,1,,,,,,,,,0,,,62,0
1238400,note_off,480,0,1,,,,,,,,,0,,,63,0
1238400,note_off,480,0,4,,,,,,,,,3,,,55,0
1238400,note_off,0,0,4,,,,,,,,,3,,,51,0
1239240,set_tempo,1680,1,0,,,,,,243902,,,,,,,
1239360,note_on,960,0,1,,,,,,,,,0,,,51,75
1239360,set_tempo,120,1,0,,,,,,240000,,,,,,,
1239360,control_change,960,0,4,,,,,,,64,0,3,,,,
1239360,note_on,0,0,4,,,,,,,,,3,,,44,72
1239600,note_off,240,0,1,,,,,,,,,0,,,51,0
1239600,note_off,240,0,4,,,,,,,,,3,,,44,0
1239600,note_on,0,0,4,,,,,,,,,3,,,39,63
1239600,note_on,0,0,1,,,,,,,,,0,,,56,68
1239840,note_on,0,0,1,,,,,,,,,0,,,60,69
1239840,note_off,240,0,4,,,,,,,,,3,,,39,0
1239840,note_off,240,0,1,,,,,,,,,0,,,56,0
1239840,note_on,0,0,4,,,,,,,,,3,,,36,63
1240080,note_off,240,0,4,,,,,,,,,3,,,36,0
1240080,note_on,0,0,1,,,,,,,,,0,,,55,69
1240080,note_on,0,0,4,,,,,,,,,3,,,39,64
1240080,note_off,240,0,1,,,,,,,,,0,,,60,0
1240320,note_off,240,0,1,,,,,,,,,0,,,55,0
1240320,note_off,240,0,4,,,,,,,,,3,,,39,0
1240320,note_on,0,0,1,,,,,,,,,0,,,56,70
1240320,note_on,0,0,4,,,,,,,,,3,,,36,64
1240560,note_off,240,0,4,,,,,,,,,3,,,36,0
1240560,note_on,0,0,1,,,,,,,,,0,,,60,70
1240560,note_on,0,0,4,,,,,,,,,3,,,32,65
1240560,note_off,240,0,1,,,,,,,,,0,,,56,0
1240800,note_on,0,0,4,,,,,,,,,3,,,44,75
1240800,note_off,240,0,4,,,,,,,,,3,,,32,0
1240800,note_off,240,0,1,,,,,,,,,0,,,60,0
1240800,note_on,0,0,1,,,,,,,,,0,,,51,80
1241040,note_on,0,0,4,,,,,,,,,3,,,39,66
1241040,note_off,240,0,1,,,,,,,,,0,,,51,0
1241040,note_on,0,0,1,,,,,,,,,0,,,56,72
1241040,note_off,240,0,4,,,,,,,,,3,,,44,0
1241280,note_off,240,0,4,,,,,,,,,3,,,39,0
1241280,note_on,0,0,4,,,,,,,,,3,,,36,67
1241280,note_off,240,0,1,,,,,,,,,0,,,56,0
1241280,note_on,0,0,1,,,,,,,,,0,,,60,72
1241520,note_on,0,0,4,,,,,,,,,3,,,39,67
1241520,note_off,240,0,1,,,,,,,,,0,,,60,0
1241520,note_on,0,0,1,,,,,,,,,0,,,55,73
1241520,note_off,240,0,4,,,,,,,,,3,,,36,0
1241760,note_on,0,0,1,,,,,,,,,0,,,56,74
1241760,note_on,0,0,4,,,,,,,,,3,,,36,68
1241760,note_off,240,0,4,,,,,,,,,3,,,39,0
1241760,note_off,240,0,1,,,,,,,,,0,,,55,0
1242000,note_off,240,0,1,,,,,,,,,0,,,56,0
1242000,note_on,0,0,1,,,,,,,,,0,,,60,74
1242000,note_on,0,0,4,,,,,,,,,3,,,32,69
1242000,note_off,240,0,4,,,,,,,,,3,,,36,0
1242240,note_off,240,0,1,,,,,,,,,0,,,60,0
1242240,note_on,0,0,4,,,,,,,,,3,,,44,77
1242240,note_off,240,0,4,,,,,,,,,3,,,32,0
1242240,note_on,0,0,1,,,,,,,,,0,,,51,82
1242480,note_off,240,0,4,,,,,,,,,3,,,44,0
1242480,note_on,0,0,1,,,,,,,,,0,,,56,76
1242480,note_on,0,0,4,,,,,,,,,3,,,39,70
1242480,note_off,240,0,1,,,,,,,,,0,,,51,0
1242720,note_on,0,0,1,,,,,,,,,0,,,60,76
1242720,note_off,240,0,1,,,,,,,,,0,,,56,0
1242720,note_off,240,0,4,,,,,,,,,3,,,39,0
1242720,note_on,0,0,4,,,,,,,,,3,,,36,70
1242960,note_off,240,0,4,,,,,,,,,3,,,36,0
1242960,note_on,0,0,4,,,,,,,,,3,,,39,71
1242960,note_on,0,0,1,,,,,,,,,0,,,55,77
1242960,note_off,240,0,1,,,,,,,,,0,,,60,0
1243200,note_on,0,0,1,,,,,,,,,0,,,56,78
1243200,note_off,240,0,1,,,,,,,,,0,,,55,0
1243200,note_on,0,0,4,,,,,,,,,3,,,36,72
1243200,note_off,240,0,4,,,,,,,,,3,,,39,0
1243440,note_on,0,0,4,,,,,,,,,3,,,32,72
1243440,note_off,240,0,4,,,,,,,,,3,,,36,0
1243440,note_on,0,0,1,,,,,,,,,0,,,60,78
1243440,note_off,240,0,1,,,,,,,,,0,,,56,0
1243680,note_on,0,0,1,,,,,,,,,0,,,51,85
1243680,note_off,240,0,4,,,,,,,,,3,,,32,0
1243680,note_on,0,0,4,,,,,,,,,3,,,44,80
1243680,note_off,240,0,1,,,,,,,,,0,,,60,0
1243920,note_off,240,0,1,,,,,,,,,0,,,51,0
1243920,note_on,0,0,1,,,,,,,,,0,,,56,80
1243920,note_off,240,0,4,,,,,,,,,3,,,44,0
1243920,note_on,0,0,4,,,,,,,,,3,,,39,73
1244160,note_off,240,0,1,,,,,,,,,0,,,56,0
1244160,note_on,0,0,1,,,,,,,,,0,,,60,80
1244160,note_off,240,0,4,,,,,,,,,3,,,39,0
1244160,note_on,0,0,4,,,,,,,,,3,,,36,74
1244400,note_off,240,0,4,,,,,,,,,3,,,36,0
1244400,note_on,0,0,4,,,,,,,,,3,,,39,74
1244400,note_on,0,0,1,,,,,,,,,0,,,55,81
1244400,note_off,240,0,1,,,,,,,,,0,,,60,0
1244640,note_off,240,0,1,,,,,,,,,0,,,55,0
1244640,note_on,0,0,4,,,,,,,,,3,,,36,75
1244640,note_off,240,0,4,,,,,,,,,3,,,39,0
1244640,set_tempo,5280,1,0,,,,,,241935,,,,,,,
1244640,note_on,0,0,1,,,,,,,,,0,,,56,81
1244880,note_on,0,0,4,,,,,,,,,3,,,32,76
1244880,note_off,240,0,4,,,,,,,,,3,,,36,0
1244880,set_tempo,240,1,0,,,,,,246913,,,,,,,
1244880,note_off,240,0,1,,,,,,,,,0,,,56,0
1244880,note_on,0,0,1,,,,,,,,,0,,,60,82
1245110,note_off,230,0,1,,,,,,,,,0,,,60,0
1245120,control_change,10,0,1,,,,,,,64,127,0,,,,
1245120,set_tempo,240,1,0,,,,,,1034482,,,,,,,
1245120,control_change,240,0,4,,,,,,,64,127,3,,,,
1245120,note_off,0,0,4,,,,,,,,,3,,,32,0
1245120,note_on,0,0,4,,,,,,,,,3,,,33,81
1245160,note_on,40,0,4,,,,,,,,,3,,,36,81
1245200,note_on,40,0,4,,,,,,,,,3,,,39,81
1245240,note_on,40,0,4,,,,,,,,,3,,,42,81
1245280,note_on,40,0,4,,,,,,,,,3,,,45,81
1245320,note_on,200,0,1,,,,,,,,,0,,,51,81
1245360,note_on,40,0,1,,,,,,,,,0,,,54,81
1245400,set_tempo,280,1,0,,,,,,1071428,,,,,,,
1245400,note_on,40,0,1,,,,,,,,,0,,,57,81
1245440,set_tempo,40,1,0,,,,,,1132075,,,,,,,
1245440,note_on,40,0,1,,,,,,,,,0,,,60,81
1245480,note_on,40,0,1,,,,,,,,,0,,,63,81
1246560,set_tempo,1120,1,0,,,,,,241935,,,,,,,
1247040,note_off,1760,0,4,,,,,,,,,3,,,33,0
1247080,note_off,40,0,4,,,,,,,,,3,,,36,0
1247120,note_off,40,0,4,,,,,,,,,3,,,39,0
1247160,note_off,40,0,4,,,,,,,,,3,,,42,0
1247200,note_off,40,0,4,,,,,,,,,3,,,45,0
1247240,note_off,1760,0,1,,,,,,,,,0,,,51,0
1247280,note_off,40,0,1,,,,,,,,,0,,,54,0
1247320,note_off,40,0,1,,,,,,,,,0,,,57,0
1247360,note_off,40,0,1,,,,,,,,,0,,,60,0
1247400,note_off,40,0,1,,,,,,,,,0,,,63,0
1247760,control_change,560,0,4,,,,,,,64,0,3,,,,
1247760,control_change,360,0,1,,,,,,,64,0,0,,,,
1247760,note_on,0,0,1,,,,,,,,,0,,,82,57
1247880,set_tempo,1320,1,0,,,,,,243902,,,,,,,
1248000,note_on,0,0,1,,,,,,,,,0,,,82,56
1248000,note_off,240,0,1,,,,,,,,,0,,,82,0
1248240,note_off,240,0,1,,,,,,,,,0,,,82,0
1248240,note_on,0,0,1,,,,,,,,,0,,,80,56
1248480,note_off,240,0,1,,,,,,,,,0,,,80,0
1248480,note_on,0,0,1,,,,,,,,,0,,,79,55
1248720,note_off,240,0,1,,,,,,,,,0,,,79,0
1248720,note_on,0,0,1,,,,,,,,,0,,,80,55
1248960,note_on,0,0,1,,,,,,,,,0,,,77,54
1248960,note_off,240,0,1,,,,,,,,,0,,,80,0
1249200,note_on,1440,0,4,,,,,,,,,3,,,46,54
1249200,note_off,240,0,1,,,,,,,,,0,,,77,0
1249200,note_on,0,0,1,,,,,,,,,0,,,70,54
1249320,set_tempo,1440,1,0,,,,,,244897,,,,,,,
1249440,note_off,240,0,1,,,,,,,,,0,,,70,0
1249440,note_on,0,0,1,,,,,,,,,0,,,75,53
1249440,note_off,240,0,4,,,,,,,,,3,,,46,0
1249440,note_on,0,0,4,,,,,,,,,3,,,46,54
1249920,note_off,480,0,1,,,,,,,,,0,,,75,0
1249920,note_on,0,0,4,,,,,,,,,3,,,43,53
1249920,note_off,480,0,4,,,,,,,,,3,,,46,0
1250160,note_off,240,0,4,,,,,,,,,3,,,43,0
1250160,note_on,0,0,4,,,,,,,,,3,,,39,53
1250400,set_tempo,1080,1,0,,,,,,256410,,,,,,,
1250625,set_tempo,225,1,0,,,,,,266666,,,,,,,
1250640,note_off,480,0,4,,,,,,,,,3,,,39,0
1250640,note_on,720,0,1,,,,,,,,,0,,,70,51
1250880,set_tempo,255,1,0,,,,,,271493,,,,,,,
1250880,note_on,240,0,4,,,,,,,,,3,,,56,52
1250880,note_off,240,0,1,,,,,,,,,0,,,70,0
1250880,note_on,0,0,1,,,,,,,,,0,,,70,51
1250880,note_on,0,0,4,,,,,,,,,3,,,53,52
1250880,note_on,0,0,4,,,,,,,,,3,,,46,52
1251120,note_on,0,0,1,,,,,,,,,0,,,68,50
1251120,note_off,240,0,1,,,,,,,,,0,,,70,0
1251120,set_tempo,240,1,0,,,,,,276497,,,,,,,
1251360,note_off,240,0,1,,,,,,,,,0,,,68,0
1251360,note_on,0,0,1,,,,,,,,,0,,,67,50
1251375,set_tempo,255,1,0,,,,,,283018,,,,,,,
1251600,note_off,240,0,1,,,,,,,,,0,,,67,0
1251600,set_tempo,225,1,0,,,,,,295566,,,,,,,
1251600,note_on,0,0,1,,,,,,,,,0,,,68,49
1251840,note_off,240,0,1,,,,,,,,,0,,,68,0
1251840,note_on,0,0,1,,,,,,,,,0,,,65,49
1251870,set_tempo,270,1,0,,,,,,319148,,,,,,,
1252080,note_off,240,0,1,,,,,,,,,0,,,65,0
1252080,note_on,0,0,1,,,,,,,,,0,,,58,48
1252080,set_tempo,210,1,0,,,,,,359281,,,,,,,
1252320,note_off,240,0,1,,,,,,,,,0,,,58,0
1252320,note_on,0,0,1,,,,,,,,,0,,,63,48
1252320,note_off,0,0,4,,,,,,,,,3,,,56,0
1252320,note_off,1440,0,4,,,,,,,,,3,,,46,0
1252320,note_on,0,0,4,,,,,,,,,3,,,51,49
1252320,note_on,0,0,4,,,,,,,,,3,,,55,49
1252320,note_off,0,0,4,,,,,,,,,3,,,53,0
1252800,note_off,480,0,1,,,,,,,,,0,,,63,0
1252800,set_tempo,720,1,0,,,,,,500000,,,,,,,
1252800,note_off,0,0,4,,,,,,,,,3,,,55,0
1252800,note_off,480,0,4,,,,,,,,,3,,,51,0
1253520,note_on,720,0,1,,,,,,,,,0,,,70,48
1253520,set_tempo,720,1,0,,,,,,248962,,,,,,,
1253760,note_on,0,0,1,,,,,,,,,0,,,70,50
1253760,set_tempo,240,1,0,,,,,,246913,,,,,,,
1253760,note_off,240,0,1,,,,,,,,,0,,,70,0
1253760,note_on,960,0,4,,,,,,,,,3,,,58,49
1254240,note_on,0,0,1,,,,,,,,,0,,,68,52
1254240,note_on,0,0,4,,,,,,,,,3,,,56,51
1254240,note_off,480,0,4,,,,,,,,,3,,,58,0
1254240,note_off,480,0,1,,,,,,,,,0,,,70,0
1254480,note_off,240,0,1,,,,,,,,,0,,,68,0
1254480,note_on,0,0,1,,,,,,,,,0,,,65,53
1254480,note_off,240,0,4,,,,,,,,,3,,,56,0
1254480,note_on,0,0,4,,,,,,,,,3,,,53,52
1254960,note_off,480,0,1,,,,,,,,,0,,,65,0
1254960,note_on,0,0,4,,,,,,,,,3,,,50,54
1254960,note_off,480,0,4,,,,,,,,,3,,,53,0
1254960,note_on,0,0,1,,,,,,,,,0,,,62,55
1255200,set_tempo,1440,1,0,,,,,,244897,,,,,,,
1255200,note_off,240,0,4,,,,,,,,,3,,,50,0
1255200,note_on,0,0,4,,,,,,,,,3,,,59,55
1255200,note_off,240,0,1,,,,,,,,,0,,,62,0
1255200,note_on,0,0,1,,,,,,,,,0,,,71,56
1255680,note_off,480,0,4,,,,,,,,,3,,,59,0
1255680,note_on,0,0,4,,,,,,,,,3,,,56,57
1255680,note_off,480,0,1,,,,,,,,,0,,,71,0
1255680,note_on,0,0,1,,,,,,,,,0,,,68,58
1255920,note_on,0,0,1,,,,,,,,,0,,,65,60
1255920,note_on,0,0,4,,,,,,,,,3,,,53,58
1255920,note_off,240,0,4,,,,,,,,,3,,,56,0
1255920,note_off,240,0,1,,,,,,,,,0,,,68,0
1256400,note_off,480,0,1,,,,,,,,,0,,,65,0
1256400,note_on,0,0,1,,,,,,,,,0,,,62,62
1256400,note_off,480,0,4,,,,,,,,,3,,,53,0
1256400,note_on,0,0,4,,,,,,,,,3,,,50,61
1256640,note_off,240,0,1,,,,,,,,,0,,,62,0
1256640,note_off,240,0,4,,,,,,,,,3,,,50,0
1256640,note_on,0,0,4,,,,,,,,,3,,,60,62
1256640,note_on,0,0,1,,,,,,,,,0,,,72,63
1256640,set_tempo,1440,1,0,,,,,,242914,,,,,,,
1257120,note_on,0,0,1,,,,,,,,,0,,,68,65
1257120,note_off,480,0,1,,,,,,,,,0,,,72,0
1257120,note_on,0,0,4,,,,,,,,,3,,,56,64
1257120,note_off,480,0,4,,,,,,,,,3,,,60,0
1257360,note_on,0,0,1,,,,,,,,,0,,,65,66
1257360,note_off,240,0,1,,,,,,,,,0,,,68,0
1257360,note_on,0,0,4,,,,,,,,,3,,,53,65
1257360,note_off,240,0,4,,,,,,,,,3,,,56,0
1257840,note_off,480,0,4,,,,,,,,,3,,,53,0
1257840,note_on,0,0,4,,,,,,,,,3,,,50,67
1257840,note_on,0,0,1,,,,,,,,,0,,,62,68
1257840,note_off,480,0,1,,,,,,,,,0,,,65,0
1258080,set_tempo,1440,1,0,,,,,,240000,,,,,,,
1258080,note_off,240,0,1,,,,,,,,,0,,,62,0
1258080,note_on,0,0,1,,,,,,,,,0,,,71,70
1258080,note_off,240,0,4,,,,,,,,,3,,,50,0
1258080,note_on,0,0,4,,,,,,,,,3,,,59,68
1258560,note_off,480,0,4,,,,,,,,,3,,,59,0
1258560,note_on,0,0,4,,,,,,,,,3,,,56,70
1258560,note_off,480,0,1,,,,,,,,,0,,,71,0
1258560,note_on,0,0,1,,,,,,,,,0,,,68,72
1258800,note_on,0,0,1,,,,,,,,,0,,,65,73
1258800,note_off,240,0,1,,,,,,,,,0,,,68,0
1258800,note_on,0,0,4,,,,,,,,,3,,,53,71
1258800,note_off,240,0,4,,,,,,,,,3,,,56,0
1259280,note_on,0,0,4,,,,,,,,,3,,,50,74
1259280,note_off,480,0,4,,,,,,,,,3,,,53,0
1259280,note_off,480,0,1,,,,,,,,,0,,,65,0
1259280,note_on,0,0,1,,,,,,,,,0,,,62,75
1259400,set_tempo,1320,1,0,,,,,,241935,,,,,,,
1259520,note_off,240,0,1,,,,,,,,,0,,,62,0
1259520,note_off,240,0,4,,,,,,,,,3,,,50,0
1259520,set_tempo,120,1,0,,,,,,240000,,,,,,,
1259520,note_on,0,0,4,,,,,,,,,3,,,58,75
1259520,note_on,0,0,1,,,,,,,,,0,,,70,76
1260000,note_on,0,0,4,,,,,,,,,3,,,56,77
1260000,note_off,480,0,4,,,,,,,,,3,,,58,0
1260000,note_off,480,0,1,,,,,,,,,0,,,70,0
1260000,note_on,0,0,1,,,,,,,,,0,,,68,78
1260240,note_on,0,0,4,,,,,,,,,3,,,53,78
1260240,note_off,240,0,1,,,,,,,,,0,,,68,0
1260240,note_on,0,0,1,,,,,,,,,0,,,65,80
1260240,note_off,240,0,4,,,,,,,,,3,,,56,0
1260720,note_on,0,0,4,,,,,,,,,3,,,50,80
1260720,note_off,480,0,1,,,,,,,,,0,,,65,0
1260720,note_on,0,0,1,,,,,,,,,0,,,62,82
1260720,note_off,480,0,4,,,,,,,,,3,,,53,0
1260960,note_off,240,0,1,,,,,,,,,0,,,62,0
1260960,note_off,240,0,4,,,,,,,,,3,,,50,0
1260960,note_on,0,0,1,,,,,,,,,0,,,63,83
1260960,note_on,0,0,4,,,,,,,,,3,,,51,81
1261440,note_off,480,0,1,,,,,,,,,0,,,63,0
1261440,note_on,0,0,1,,,,,,,,,0,,,58,85
1261440,note_on,0,0,4,,,,,,,,,3,,,46,83
1261440,note_off,480,0,4,,,,,,,,,3,,,51,0
1261680,note_on,0,0,1,,,,,,,,,0,,,55,86
1261680,note_off,240,0,1,,,,,,,,,0,,,58,0
1261680,note_on,0,0,4,,,,,,,,,3,,,43,84
1261680,note_off,240,0,4,,,,,,,,,3,,,46,0
1262160,note_on,0,0,1,,,,,,,,,0,,,51,88
1262160,note_off,480,0,1,,,,,,,,,0,,,55,0
1262160,note_off,480,0,4,,,,,,,,,3,,,43,0
1262160,note_on,0,0,4,,,,,,,,,3,,,39,86
1262280,set_tempo,2760,1,0,,,,,,241935,,,,,,,
1262400,note_off,240,0,4,,,,,,,,,3,,,39,0
1262400,note_on,0,0,4,,,,,,,,,3,,,46,88
1262400,note_on,0,0,1,,,,,,,,,0,,,58,90
1262400,note_off,240,0,1,,,,,,,,,0,,,51,0
1262880,note_off,480,0,1,,,,,,,,,0,,,58,0
1262880,note_off,480,0,4,,,,,,,,,3,,,46,0
1263120,note_on,0,0,4,,,,,,,,,3,,,46,91
1263120,note_on,240,0,4,,,,,,,,,3,,,34,91
1263120,note_on,0,0,1,,,,,,,,,0,,,56,93
1263120,note_on,0,0,1,,,,,,,,,0,,,62,93
1263120,note_on,0,0,1,,,,,,,,,0,,,58,93
1263120,note_on,240,0,1,,,,,,,,,0,,,53,93
1263585,set_tempo,1305,1,0,,,,,,243902,,,,,,,
1263600,note_off,0,0,1,,,,,,,,,0,,,58,0
1263600,note_off,0,0,1,,,,,,,,,0,,,62,0
1263600,note_off,0,0,1,,,,,,,,,0,,,53,0
1263600,note_off,480,0,4,,,,,,,,,3,,,46,0
1263600,note_off,480,0,1,,,,,,,,,0,,,56,0
1263600,note_off,0,0,4,,,,,,,,,3,,,34,0
1263840,note_on,240,0,4,,,,,,,,,3,,,39,94
1263840,note_on,0,0,4,,,,,,,,,3,,,51,94
1263840,note_on,0,0,1,,,,,,,,,0,,,55,96
1263840,note_on,0,0,1,,,,,,,,,0,,,63,96
1263840,note_on,240,0,1,,,,,,,,,0,,,58,96
1263840,set_tempo,255,1,0,,,,,,253164,,,,,,,
1264320,note_off,480,0,4,,,,,,,,,3,,,51,0
1264320,note_off,0,0,1,,,,,,,,,0,,,58,0
1264320,note_off,480,0,1,,,,,,,,,0,,,55,0
1264320,note_off,0,0,1,,,,,,,,,0,,,63,0
1264320,note_off,0,0,4,,,,,,,,,3,,,39,0
1264560,note_on,0,0,1,,,,,,,,,0,,,68,100
1264560,note_on,0,0,1,,,,,,,,,0,,,65,100
1264560,set_tempo,720,1,0,,,,,,263157,,,,,,,
1264560,note_on,0,0,1,,,,,,,,,0,,,74,100
1264560,note_on,240,0,1,,,,,,,,,0,,,70,100
1264560,note_on,0,0,4,,,,,,,,,3,,,58,97
1264560,note_on,240,0,4,,,,,,,,,3,,,46,97
1265040,note_off,0,0,1,,,,,,,,,0,,,70,0
1265040,note_off,0,0,1,,,,,,,,,0,,,74,0
1265040,note_off,0,0,1,,,,,,,,,0,,,68,0
1265040,note_off,480,0,1,,,,,,,,,0,,,65,0
1265040,note_off,0,0,4,,,,,,,,,3,,,46,0
1265040,note_off,480,0,4,,,,,,,,,3,,,58,0
1265280,note_on,0,0,1,,,,,,,,,0,,,67,103
1265280,set_tempo,720,1,0,,,,,,276497,,,,,,,
1265280,note_on,0,0,4,,,,,,,,,3,,,63,100
1265280,note_on,240,0,4,,,,,,,,,3,,,51,100
1265280,note_on,240,0,1,,,,,,,,,0,,,75,103
1265280,note_on,0,0,1,,,,,,,,,0,,,70,103
1265760,note_off,0,0,4,,,,,,,,,3,,,51,0
1265760,note_off,480,0,4,,,,,,,,,3,,,63,0
1265760,note_off,480,0,1,,,,,,,,,0,,,70,0
1265760,note_off,0,0,1,,,,,,,,,0,,,67,0
1265760,note_off,0,0,1,,,,,,,,,0,,,75,0
1266720,note_on,0,0,1,,,,,,,,,0,,,80,110
1266720,note_on,0,0,1,,,,,,,,,0,,,77,110
1266720,set_tempo,1440,1,0,,,,,,285714,,,,,,,
1266720,note_on,960,0,4,,,,,,,,,3,,,46,107
1266720,note_on,0,0,4,,,,,,,,,3,,,58,107
1266720,note_on,960,0,1,,,,,,,,,0,,,74,110
1266720,note_on,0,0,1,,,,,,,,,0,,,86,110
1267200,note_off,480,0,4,,,,,,,,,3,,,58,0
1267200,note_off,480,0,1,,,,,,,,,0,,,86,0
1267200,note_off,0,0,1,,,,,,,,,0,,,74,0
1267200,note_off,0,0,4,,,,,,,,,3,,,46,0
1267200,note_off,0,0,1,,,,,,,,,0,,,77,0
1267200,note_off,0,0,1,,,,,,,,,0,,,80,0
1268160,note_on,0,0,4,,,,,,,,,3,,,39,113
1268160,note_on,960,0,4,,,,,,,,,3,,,51,113
1268160,note_on,0,0,1,,,,,,,,,0,,,87,116
1268160,end_of_track,0,1,0,,,,,,,,,,,,,
1268160,set_tempo,1440,1,0,,,,,,377358,,,,,,,
1268160,note_on,0,0,1,,,,,,,,,0,,,75,116
1268160,note_on,960,0,1,,,,,,,,,0,,,79,116
1268640,note_off,480,0,4,,,,,,,,,3,,,39,0
1268640,end_of_track,0,1,1,,,,,,,,,,,,,
1268640,note_off,480,0,1,,,,,,,,,0,,,87,0
1268640,note_off,0,0,1,,,,,,,,,0,,,75,0
1268640,note_off,0,0,1,,,,,,,,,0,,,79,0
1268640,note_off,0,0,4,,,,,,,,,3,,,51,0
1268640,end_of_track,0,1,4,,,,,,,,,,,,,
