tick,type,time,meta,track,numerator,denominator,clocks_per_click,notated_32nd_notes_per_beat,key,tempo,control,value,channel,program,pitch,note,velocity
0,track_name,0,1,0,,,,,,,,,,,,,
0,control_change,0,0,3,,,,,,,0,0,2,,,,
0,control_change,0,0,3,,,,,,,32,0,2,,,,
0,control_change,0,0,3,,,,,,,10,64,2,,,,
0,control_change,0,0,3,,,,,,,93,28,2,,,,
0,control_change,0,0,3,,,,,,,64,0,2,,,,
0,control_change,0,0,3,,,,,,,1,0,2,,,,
0,track_name,0,1,5,,,,,,,,,,,,,
0,control_change,0,0,3,,,,,,,7,112,2,,,,
0,program_change,0,0,3,,,,,,,,,2,0,,,
0,pitchwheel,0,0,3,,,,,,,,,2,,0,,
0,pitchwheel,0,0,2,,,,,,,,,1,,0,,
0,program_change,0,0,2,,,,,,,,,1,0,,,
0,control_change,0,0,2,,,,,,,7,117,1,,,,
0,control_change,0,0,2,,,,,,,1,0,1,,,,
0,control_change,0,0,2,,,,,,,64,0,1,,,,
0,control_change,0,0,2,,,,,,,93,28,1,,,,
0,control_change,0,0,2,,,,,,,91,91,1,,,,
0,control_change,0,0,2,,,,,,,10,64,1,,,,
0,control_change,0,0,2,,,,,,,32,0,1,,,,
0,track_name,0,1,3,,,,,,,,,,,,,
0,control_change,0,0,2,,,,,,,0,0,1,,,,
0,track_name,0,1,4,,,,,,,,,,,,,
0,control_change,0,0,4,,,,,,,32,0,3,,,,
0,pitchwheel,0,0,1,,,,,,,,,0,,0,,
0,program_change,0,0,1,,,,,,,,,0,0,,,
0,control_change,0,0,1,,,,,,,10,73,0,,,,
0,control_change,0,0,1,,,,,,,91,91,0,,,,
0,control_change,0,0,1,,,,,,,93,28,0,,,,
0,control_change,0,0,1,,,,,,,64,0,0,,,,
0,control_change,0,0,1,,,,,,,1,0,0,,,,
0,control_change,0,0,1,,,,,,,7,127,0,,,,
0,control_change,0,0,1,,,,,,,32,0,0,,,,
0,control_change,0,0,1,,,,,,,0,0,0,,,,
0,track_name,0,1,1,,,,,,,,,,,,,
0,pitchwheel,0,0,4,,,,,,,,,3,,0,,
0,program_change,0,0,4,,,,,,,,,3,0,,,
0,control_change,0,0,4,,,,,,,7,122,3,,,,
0,control_change,0,0,4,,,,,,,1,0,3,,,,
0,control_change,0,0,4,,,,,,,64,0,3,,,,
0,control_change,0,0,4,,,,,,,93,28,3,,,,
0,control_change,0,0,4,,,,,,,91,91,3,,,,
0,control_change,0,0,4,,,,,,,10,55,3,,,,
0,control_change,0,0,4,,,,,,,0,0,3,,,,
0,track_name,0,1,2,,,,,,,,,,,,,
0,control_change,0,0,3,,,,,,,91,91,2,,,,
0,time_signature,0,1,0,2,4,24,8,,,,,,,,,
0,key_signature,0,1,0,,,,,C,,,,,,,,
0,set_tempo,0,1,0,,,,,,600000,,,,,,,
0,marker,0,1,0,,,,,,,,,,,,,
960,note_on,960,0,3,,,,,,,,,2,,,42,40
960,note_on,960,0,2,,,,,,,,,1,,,58,42
960,note_on,960,0,1,,,,,,,,,0,,,61,42
960,note_on,960,0,4,,,,,,,,,3,,,30,38
960,marker,0,1,0,,,,,,,,,,,,,
960,set_tempo,960,1,0,,,,,,1500000,,,,,,,
1440,note_off,480,0,2,,,,,,,,,1,,,58,0
1440,note_on,0,0,2,,,,,,,,,1,,,61,44
1440,note_on,0,0,2,,,,,,,,,1,,,58,44
1440,note_on,0,0,1,,,,,,,,,0,,,66,44
1440,note_off,480,0,1,,,,,,,,,0,,,61,0
1800,note_on,0,0,1,,,,,,,,,0,,,68,45
1800,note_off,0,0,2,,,,,,,,,1,,,61,0
1800,note_on,0,0,2,,,,,,,,,1,,,65,45
1800,set_tempo,840,1,0,,,,,,1578947,,,,,,,
1800,note_on,0,0,2,,,,,,,,,1,,,58,45
1800,note_off,360,0,1,,,,,,,,,0,,,66,0
1800,note_off,360,0,2,,,,,,,,,1,,,58,0
1920,note_on,0,0,4,,,,,,,,,3,,,30,40
1920,note_on,0,0,2,,,,,,,,,1,,,65,46
1920,note_on,0,0,2,,,,,,,,,1,,,59,46
1920,note_off,0,0,2,,,,,,,,,1,,,65,0
1920,note_off,960,0,3,,,,,,,,,2,,,42,0
1920,note_on,0,0,3,,,,,,,,,2,,,42,42
1920,note_off,120,0,2,,,,,,,,,1,,,58,0
1920,note_on,0,0,1,,,,,,,,,0,,,68,46
1920,note_off,120,0,1,,,,,,,,,0,,,68,0
1920,set_tempo,120,1,0,,,,,,1428571,,,,,,,
1920,marker,0,1,0,,,,,,,,,,,,,
1920,note_off,960,0,4,,,,,,,,,3,,,30,0
2400,note_on,0,0,2,,,,,,,,,1,,,61,47
2400,note_off,480,0,2,,,,,,,,,1,,,59,0
2400,note_off,0,0,2,,,,,,,,,1,,,65,0
2400,note_on,0,0,1,,,,,,,,,0,,,70,47
2400,note_off,480,0,1,,,,,,,,,0,,,68,0
2400,note_on,0,0,2,,,,,,,,,1,,,66,47
2415,set_tempo,495,1,0,,,,,,1578947,,,,,,,
2616,note_off,216,0,1,,,,,,,,,0,,,70,0
2616,note_off,0,0,2,,,,,,,,,1,,,66,0
2616,note_off,216,0,2,,,,,,,,,1,,,61,0
2640,note_on,24,0,2,,,,,,,,,1,,,64,48
2640,note_on,0,0,2,,,,,,,,,1,,,61,48
2640,note_on,24,0,1,,,,,,,,,0,,,70,48
2820,set_tempo,405,1,0,,,,,,1666666,,,,,,,
2880,note_on,0,0,2,,,,,,,,,1,,,66,50
2880,note_on,0,0,3,,,,,,,,,2,,,42,45
2880,note_off,240,0,2,,,,,,,,,1,,,61,0
2880,note_off,0,0,2,,,,,,,,,1,,,64,0
2880,note_off,960,0,3,,,,,,,,,2,,,42,0
2880,note_on,0,0,2,,,,,,,,,1,,,63,50
2880,note_off,240,0,1,,,,,,,,,0,,,70,0
2880,note_on,0,0,1,,,,,,,,,0,,,71,50
2880,marker,60,1,0,,,,,,,,,,,,,
2880,note_off,960,0,4,,,,,,,,,3,,,30,0
2880,note_on,0,0,4,,,,,,,,,3,,,30,42
3000,note_off,120,0,1,,,,,,,,,0,,,71,0
3000,note_on,0,0,1,,,,,,,,,0,,,73,51
3040,note_off,40,0,1,,,,,,,,,0,,,73,0
3040,note_on,0,0,1,,,,,,,,,0,,,71,51
3080,note_on,0,0,1,,,,,,,,,0,,,70,51
3080,note_off,40,0,1,,,,,,,,,0,,,71,0
3120,note_on,0,0,1,,,,,,,,,0,,,71,51
3120,note_off,40,0,1,,,,,,,,,0,,,70,0
3240,note_on,0,0,1,,,,,,,,,0,,,73,52
3240,set_tempo,360,1,0,,,,,,1764705,,,,,,,
3240,note_off,120,0,1,,,,,,,,,0,,,71,0
3360,note_off,480,0,2,,,,,,,,,1,,,63,0
3360,note_on,0,0,2,,,,,,,,,1,,,68,53
3360,note_on,0,0,1,,,,,,,,,0,,,75,53
3360,note_on,0,0,2,,,,,,,,,1,,,65,53
3360,note_off,120,0,1,,,,,,,,,0,,,73,0
3360,note_off,0,0,2,,,,,,,,,1,,,66,0
3367,set_tempo,127,1,0,,,,,,1818181,,,,,,,
3684,note_off,324,0,1,,,,,,,,,0,,,75,0
3720,note_on,36,0,1,,,,,,,,,0,,,73,50
3720,set_tempo,353,1,0,,,,,,2068965,,,,,,,
3828,note_off,108,0,1,,,,,,,,,0,,,73,0
3840,note_on,0,0,3,,,,,,,,,2,,,42,34
3840,note_off,960,0,3,,,,,,,,,2,,,42,0
3840,note_off,480,0,2,,,,,,,,,1,,,65,0
3840,marker,120,1,0,,,,,,,,,,,,,
3840,note_on,0,0,2,,,,,,,,,1,,,66,45
3840,note_off,960,0,4,,,,,,,,,3,,,30,0
3840,note_on,0,0,4,,,,,,,,,3,,,30,34
3840,note_on,12,0,1,,,,,,,,,0,,,71,47
3840,note_off,0,0,2,,,,,,,,,1,,,68,0
3894,note_off,54,0,1,,,,,,,,,0,,,71,0
3900,note_on,6,0,1,,,,,,,,,0,,,70,45
3954,note_off,54,0,1,,,,,,,,,0,,,70,0
3960,set_tempo,120,1,0,,,,,,2222222,,,,,,,
3960,note_on,6,0,1,,,,,,,,,0,,,75,44
4014,note_off,54,0,1,,,,,,,,,0,,,75,0
4020,note_on,6,0,1,,,,,,,,,0,,,73,42
4020,set_tempo,60,1,0,,,,,,2400000,,,,,,,
4074,note_off,54,0,1,,,,,,,,,0,,,73,0
4080,note_on,6,0,1,,,,,,,,,0,,,73,40
4320,set_tempo,300,1,0,,,,,,454545,,,,,,,
4800,marker,480,1,0,,,,,,,,,,,,,
5760,time_signature,960,1,0,4,4,24,8,,,,,,,,,
7075,note_off,3235,0,2,,,,,,,,,1,,,66,0
7080,note_off,3000,0,1,,,,,,,,,0,,,73,0
7080,note_off,3240,0,3,,,,,,,,,2,,,42,0
7085,note_off,3245,0,4,,,,,,,,,3,,,30,0
7200,note_on,120,0,1,,,,,,,,,0,,,70,42
7200,marker,0,1,0,,,,,,,,,,,,,
7200,set_tempo,1440,1,0,,,,,,508474,,,,,,,
7560,note_on,0,0,1,,,,,,,,,0,,,71,44
7560,note_off,360,0,1,,,,,,,,,0,,,70,0
7680,note_off,120,0,1,,,,,,,,,0,,,71,0
7680,set_tempo,480,1,0,,,,,,500000,,,,,,,
7680,note_on,0,0,1,,,,,,,,,0,,,73,46
7680,note_on,595,0,4,,,,,,,,,3,,,42,40
7920,note_on,840,0,3,,,,,,,,,2,,,54,41
8160,note_off,480,0,1,,,,,,,,,0,,,73,0
8160,note_on,0,0,1,,,,,,,,,0,,,66,42
8160,note_on,240,0,3,,,,,,,,,2,,,58,41
8160,note_on,1085,0,2,,,,,,,,,1,,,61,42
8384,note_off,224,0,3,,,,,,,,,2,,,54,0
8400,note_on,16,0,3,,,,,,,,,2,,,54,42
8624,note_off,224,0,3,,,,,,,,,2,,,58,0
8640,note_off,480,0,1,,,,,,,,,0,,,66,0
8640,note_on,0,0,1,,,,,,,,,0,,,65,45
8640,note_on,16,0,3,,,,,,,,,2,,,59,43
8640,note_on,0,0,2,,,,,,,,,1,,,61,45
8640,note_off,480,0,2,,,,,,,,,1,,,61,0
8864,note_off,224,0,3,,,,,,,,,2,,,54,0
8880,note_on,16,0,3,,,,,,,,,2,,,54,44
9104,note_off,224,0,3,,,,,,,,,2,,,59,0
9120,note_off,480,0,1,,,,,,,,,0,,,65,0
9120,note_on,0,0,2,,,,,,,,,1,,,61,48
9120,note_off,480,0,2,,,,,,,,,1,,,61,0
9120,note_on,0,0,1,,,,,,,,,0,,,66,48
9120,note_on,16,0,3,,,,,,,,,2,,,58,44
9344,note_off,224,0,3,,,,,,,,,2,,,54,0
9360,note_on,16,0,3,,,,,,,,,2,,,54,45
9480,set_tempo,1800,1,0,,,,,,508474,,,,,,,
9584,note_off,224,0,3,,,,,,,,,2,,,58,0
9600,note_on,0,0,4,,,,,,,,,3,,,37,36
9600,note_on,0,0,2,,,,,,,,,1,,,61,51
9600,note_on,0,0,2,,,,,,,,,1,,,59,51
9600,note_off,480,0,1,,,,,,,,,0,,,66,0
9600,note_on,0,0,1,,,,,,,,,0,,,71,51
9600,set_tempo,120,1,0,,,,,,500000,,,,,,,
9600,note_off,480,0,2,,,,,,,,,1,,,61,0
9600,note_off,1920,0,4,,,,,,,,,3,,,42,0
9600,note_off,16,0,3,,,,,,,,,2,,,54,0
9600,note_on,0,0,3,,,,,,,,,2,,,56,47
9600,note_on,0,0,2,,,,,,,,,1,,,65,51
9840,note_on,240,0,3,,,,,,,,,2,,,49,44
10064,note_off,224,0,3,,,,,,,,,2,,,56,0
10080,note_on,16,0,3,,,,,,,,,2,,,56,43
10304,note_off,224,0,3,,,,,,,,,2,,,49,0
10320,note_on,16,0,3,,,,,,,,,2,,,49,42
10544,note_off,224,0,3,,,,,,,,,2,,,56,0
10560,note_on,16,0,3,,,,,,,,,2,,,56,41
10784,note_off,224,0,3,,,,,,,,,2,,,49,0
10800,note_on,16,0,3,,,,,,,,,2,,,49,39
11024,note_off,224,0,3,,,,,,,,,2,,,56,0
11040,note_off,1440,0,1,,,,,,,,,0,,,71,0
11040,note_on,0,0,2,,,,,,,,,1,,,61,44
11040,note_on,16,0,3,,,,,,,,,2,,,53,38
11040,note_off,0,0,2,,,,,,,,,1,,,61,0
11040,note_off,1440,0,2,,,,,,,,,1,,,59,0
11040,note_on,0,0,1,,,,,,,,,0,,,68,44
11040,note_on,0,0,2,,,,,,,,,1,,,56,44
11040,note_off,0,0,2,,,,,,,,,1,,,65,0
11264,note_off,224,0,3,,,,,,,,,2,,,49,0
11280,note_on,16,0,3,,,,,,,,,2,,,49,37
11520,note_off,0,0,2,,,,,,,,,1,,,61,0
11520,note_on,0,0,2,,,,,,,,,1,,,58,44
11520,note_off,480,0,1,,,,,,,,,0,,,68,0
11520,note_on,0,0,1,,,,,,,,,0,,,70,44
11520,note_off,480,0,2,,,,,,,,,1,,,56,0
11520,note_off,240,0,3,,,,,,,,,2,,,49,0
11520,note_off,0,0,3,,,,,,,,,2,,,53,0
11520,note_on,0,0,4,,,,,,,,,3,,,42,38
11520,note_off,1920,0,4,,,,,,,,,3,,,37,0
11520,note_on,0,0,2,,,,,,,,,1,,,61,44
11760,note_on,240,0,3,,,,,,,,,2,,,54,39
12000,note_off,480,0,2,,,,,,,,,1,,,61,0
12000,note_off,0,0,2,,,,,,,,,1,,,58,0
12000,note_on,0,0,1,,,,,,,,,0,,,75,46
12000,note_on,0,0,2,,,,,,,,,1,,,63,46
12000,note_on,480,0,4,,,,,,,,,3,,,47,41
12000,note_off,480,0,1,,,,,,,,,0,,,70,0
12224,note_off,464,0,3,,,,,,,,,2,,,54,0
12240,note_on,16,0,3,,,,,,,,,2,,,54,43
12480,note_off,480,0,1,,,,,,,,,0,,,75,0
12480,note_on,0,0,1,,,,,,,,,0,,,73,49
12480,note_off,480,0,2,,,,,,,,,1,,,63,0
12480,note_on,0,0,2,,,,,,,,,1,,,61,49
12480,note_on,480,0,4,,,,,,,,,3,,,46,45
12496,note_off,16,0,4,,,,,,,,,3,,,47,0
12704,note_off,464,0,3,,,,,,,,,2,,,54,0
12720,note_on,16,0,3,,,,,,,,,2,,,54,47
12960,note_off,464,0,4,,,,,,,,,3,,,42,0
12960,note_on,0,0,4,,,,,,,,,3,,,42,49
12960,note_on,0,0,2,,,,,,,,,1,,,66,51
12960,note_off,480,0,2,,,,,,,,,1,,,61,0
12960,note_on,240,0,3,,,,,,,,,2,,,51,49
12960,note_off,480,0,1,,,,,,,,,0,,,73,0
12960,note_on,0,0,1,,,,,,,,,0,,,78,51
12961,note_off,1,0,3,,,,,,,,,2,,,51,0
12976,note_off,16,0,4,,,,,,,,,3,,,46,0
13184,note_off,223,0,3,,,,,,,,,2,,,54,0
13200,note_on,16,0,3,,,,,,,,,2,,,54,51
13320,set_tempo,3720,1,0,,,,,,504201,,,,,,,
13424,note_off,448,0,4,,,,,,,,,3,,,42,0
13440,note_on,16,0,4,,,,,,,,,3,,,42,55
13440,note_off,480,0,2,,,,,,,,,1,,,66,0
13440,note_on,0,0,2,,,,,,,,,1,,,65,55
13440,note_on,0,0,1,,,,,,,,,0,,,77,55
13440,note_off,480,0,1,,,,,,,,,0,,,78,0
13440,note_on,240,0,3,,,,,,,,,2,,,49,55
13671,note_off,231,0,3,,,,,,,,,2,,,54,0
13680,note_on,9,0,3,,,,,,,,,2,,,54,53
13904,note_off,224,0,3,,,,,,,,,2,,,49,0
13904,note_off,464,0,4,,,,,,,,,3,,,42,0
13920,note_off,480,0,1,,,,,,,,,0,,,77,0
13920,note_on,16,0,3,,,,,,,,,2,,,47,51
13920,note_on,16,0,4,,,,,,,,,3,,,42,51
13920,note_on,0,0,1,,,,,,,,,0,,,75,51
13920,note_off,480,0,2,,,,,,,,,1,,,65,0
13920,note_on,0,0,2,,,,,,,,,1,,,63,51
14112,note_off,192,0,3,,,,,,,,,2,,,54,0
14160,note_on,48,0,3,,,,,,,,,2,,,54,48
14384,note_off,464,0,4,,,,,,,,,3,,,42,0
14384,note_off,224,0,3,,,,,,,,,2,,,47,0
14400,note_off,480,0,1,,,,,,,,,0,,,75,0
14400,note_off,480,0,2,,,,,,,,,1,,,63,0
14400,note_on,0,0,1,,,,,,,,,0,,,73,46
14400,note_on,0,0,2,,,,,,,,,1,,,61,46
14400,note_on,16,0,4,,,,,,,,,3,,,42,46
14400,note_on,16,0,3,,,,,,,,,2,,,46,46
14592,note_off,192,0,3,,,,,,,,,2,,,54,0
14640,note_on,48,0,3,,,,,,,,,2,,,54,44
14760,set_tempo,1440,1,0,,,,,,517241,,,,,,,
14864,note_off,464,0,4,,,,,,,,,3,,,42,0
14864,note_off,224,0,3,,,,,,,,,2,,,46,0
14880,note_off,16,0,3,,,,,,,,,2,,,54,0
14880,note_off,480,0,1,,,,,,,,,0,,,73,0
14880,note_off,480,0,2,,,,,,,,,1,,,61,0
14880,note_on,0,0,1,,,,,,,,,0,,,70,42
14880,set_tempo,120,1,0,,,,,,500000,,,,,,,
15000,note_on,0,0,1,,,,,,,,,0,,,71,42
15000,note_off,120,0,1,,,,,,,,,0,,,70,0
15120,note_off,120,0,1,,,,,,,,,0,,,71,0
15120,note_on,0,0,1,,,,,,,,,0,,,70,43
15240,note_off,120,0,1,,,,,,,,,0,,,70,0
15240,note_on,0,0,1,,,,,,,,,0,,,66,43
15360,note_on,0,0,1,,,,,,,,,0,,,71,43
15360,note_off,120,0,1,,,,,,,,,0,,,66,0
15480,note_on,0,0,1,,,,,,,,,0,,,73,44
15480,note_off,120,0,1,,,,,,,,,0,,,71,0
15600,note_on,0,0,1,,,,,,,,,0,,,71,44
15600,note_off,120,0,1,,,,,,,,,0,,,73,0
15720,note_on,0,0,1,,,,,,,,,0,,,68,44
15720,note_off,120,0,1,,,,,,,,,0,,,71,0
15840,note_off,120,0,1,,,,,,,,,0,,,68,0
15840,note_on,0,0,1,,,,,,,,,0,,,65,45
15840,note_on,976,0,4,,,,,,,,,3,,,49,40
15960,note_off,120,0,4,,,,,,,,,3,,,49,0
15960,note_on,0,0,4,,,,,,,,,3,,,53,40
16080,note_on,0,0,4,,,,,,,,,3,,,56,41
16080,note_off,120,0,4,,,,,,,,,3,,,53,0
16200,note_on,0,0,4,,,,,,,,,3,,,59,41
16200,note_off,120,0,4,,,,,,,,,3,,,56,0
16320,note_off,480,0,1,,,,,,,,,0,,,65,0
16320,note_off,120,0,4,,,,,,,,,3,,,59,0
16320,note_on,0,0,4,,,,,,,,,3,,,47,41
16680,set_tempo,1800,1,0,,,,,,508474,,,,,,,
16800,note_on,480,0,1,,,,,,,,,0,,,71,47
16800,set_tempo,120,1,0,,,,,,500000,,,,,,,
16800,note_off,480,0,4,,,,,,,,,3,,,47,0
16920,note_on,0,0,1,,,,,,,,,0,,,73,48
16920,note_off,120,0,1,,,,,,,,,0,,,71,0
17040,note_off,120,0,1,,,,,,,,,0,,,73,0
17040,note_on,0,0,1,,,,,,,,,0,,,71,48
17160,note_on,0,0,1,,,,,,,,,0,,,68,48
17160,note_off,120,0,1,,,,,,,,,0,,,71,0
17280,note_on,0,0,1,,,,,,,,,0,,,73,49
17280,note_off,120,0,1,,,,,,,,,0,,,68,0
17400,note_off,120,0,1,,,,,,,,,0,,,73,0
17400,note_on,0,0,1,,,,,,,,,0,,,75,49
17520,note_on,0,0,1,,,,,,,,,0,,,73,49
17520,note_off,120,0,1,,,,,,,,,0,,,75,0
17640,note_off,120,0,1,,,,,,,,,0,,,73,0
17640,note_on,0,0,1,,,,,,,,,0,,,70,50
17760,note_off,120,0,1,,,,,,,,,0,,,70,0
17760,note_on,960,0,4,,,,,,,,,3,,,46,45
17760,note_on,0,0,1,,,,,,,,,0,,,66,50
17880,note_off,120,0,4,,,,,,,,,3,,,46,0
17880,note_on,0,0,4,,,,,,,,,3,,,49,45
18000,note_off,120,0,4,,,,,,,,,3,,,49,0
18000,note_on,0,0,4,,,,,,,,,3,,,54,46
18120,note_off,120,0,4,,,,,,,,,3,,,54,0
18120,note_on,0,0,4,,,,,,,,,3,,,58,46
18240,note_off,120,0,4,,,,,,,,,3,,,58,0
18240,note_on,0,0,4,,,,,,,,,3,,,46,46
18240,note_off,480,0,1,,,,,,,,,0,,,66,0
18600,set_tempo,1800,1,0,,,,,,508474,,,,,,,
18720,set_tempo,120,1,0,,,,,,500000,,,,,,,
18720,note_off,480,0,4,,,,,,,,,3,,,46,0
18720,note_on,480,0,1,,,,,,,,,0,,,78,53
18720,note_on,0,0,4,,,,,,,,,3,,,42,48
18880,note_off,160,0,4,,,,,,,,,3,,,42,0
18880,note_off,160,0,1,,,,,,,,,0,,,78,0
18880,note_on,0,0,1,,,,,,,,,0,,,77,53
18880,note_on,0,0,4,,,,,,,,,3,,,44,48
19040,note_on,0,0,1,,,,,,,,,0,,,75,54
19040,note_on,0,0,4,,,,,,,,,3,,,46,49
19040,note_off,160,0,4,,,,,,,,,3,,,44,0
19040,note_off,160,0,1,,,,,,,,,0,,,77,0
19200,note_off,160,0,1,,,,,,,,,0,,,75,0
19200,note_off,160,0,4,,,,,,,,,3,,,46,0
19200,note_on,0,0,1,,,,,,,,,0,,,73,54
19200,note_on,0,0,4,,,,,,,,,3,,,47,49
19360,note_on,0,0,1,,,,,,,,,0,,,71,55
19360,note_off,160,0,1,,,,,,,,,0,,,73,0
19520,note_off,160,0,1,,,,,,,,,0,,,71,0
19520,note_on,0,0,1,,,,,,,,,0,,,70,55
19680,note_off,160,0,1,,,,,,,,,0,,,70,0
19680,note_on,0,0,1,,,,,,,,,0,,,68,56
19840,note_off,160,0,1,,,,,,,,,0,,,68,0
19840,note_on,0,0,1,,,,,,,,,0,,,66,56
20000,note_off,160,0,1,,,,,,,,,0,,,66,0
20000,note_on,0,0,1,,,,,,,,,0,,,65,57
20160,note_off,160,0,1,,,,,,,,,0,,,65,0
20160,note_on,0,0,4,,,,,,,,,3,,,49,51
20160,note_on,0,0,1,,,,,,,,,0,,,63,57
20160,note_off,960,0,4,,,,,,,,,3,,,47,0
20320,note_on,0,0,1,,,,,,,,,0,,,61,57
20320,note_off,160,0,1,,,,,,,,,0,,,63,0
20480,note_off,160,0,1,,,,,,,,,0,,,61,0
20480,note_on,0,0,1,,,,,,,,,0,,,60,58
20640,note_on,480,0,4,,,,,,,,,3,,,59,55
20640,note_on,0,0,1,,,,,,,,,0,,,61,58
20640,note_off,160,0,1,,,,,,,,,0,,,60,0
20800,note_on,0,0,1,,,,,,,,,0,,,63,59
20800,note_off,160,0,1,,,,,,,,,0,,,61,0
20960,note_on,0,0,1,,,,,,,,,0,,,65,59
20960,note_off,160,0,1,,,,,,,,,0,,,63,0
21120,note_off,480,0,4,,,,,,,,,3,,,59,0
21120,note_off,0,0,4,,,,,,,,,3,,,49,0
21120,note_on,0,0,4,,,,,,,,,3,,,54,51
21120,note_on,0,0,3,,,,,,,,,2,,,58,51
21120,note_on,6240,0,3,,,,,,,,,2,,,61,53
21120,note_on,0,0,1,,,,,,,,,0,,,66,53
21120,note_off,160,0,1,,,,,,,,,0,,,65,0
21600,note_off,480,0,4,,,,,,,,,3,,,54,0
21600,note_on,0,0,4,,,,,,,,,3,,,49,46
21600,note_on,0,0,3,,,,,,,,,2,,,61,49
21600,note_off,480,0,3,,,,,,,,,2,,,58,0
21600,note_off,0,0,3,,,,,,,,,2,,,61,0
21600,note_on,0,0,3,,,,,,,,,2,,,65,49
21600,note_on,0,0,3,,,,,,,,,2,,,56,46
21600,note_on,0,0,1,,,,,,,,,0,,,68,49
21600,note_off,480,0,1,,,,,,,,,0,,,66,0
22080,note_on,0,0,3,,,,,,,,,2,,,66,45
22080,note_on,0,0,3,,,,,,,,,2,,,61,45
22080,note_off,0,0,3,,,,,,,,,2,,,61,0
22080,note_on,0,0,3,,,,,,,,,2,,,54,41
22080,note_off,0,0,3,,,,,,,,,2,,,65,0
22080,note_on,0,0,4,,,,,,,,,3,,,42,41
22080,note_off,480,0,1,,,,,,,,,0,,,68,0
22080,note_on,0,0,1,,,,,,,,,0,,,70,45
22080,note_off,480,0,4,,,,,,,,,3,,,49,0
22080,note_off,480,0,3,,,,,,,,,2,,,56,0
22560,note_off,480,0,1,,,,,,,,,0,,,70,0
22560,note_off,480,0,4,,,,,,,,,3,,,42,0
22560,note_off,480,0,3,,,,,,,,,2,,,54,0
22560,note_off,0,0,3,,,,,,,,,2,,,66,0
22560,note_off,0,0,3,,,,,,,,,2,,,61,0
22920,set_tempo,4200,1,0,,,,,,508474,,,,,,,
23040,note_on,480,0,4,,,,,,,,,3,,,54,40
23040,set_tempo,120,1,0,,,,,,500000,,,,,,,
23040,note_on,480,0,1,,,,,,,,,0,,,70,44
23040,note_on,0,0,3,,,,,,,,,2,,,66,44
23040,note_on,0,0,3,,,,,,,,,2,,,58,40
23040,note_on,480,0,3,,,,,,,,,2,,,61,44
23520,note_off,480,0,4,,,,,,,,,3,,,54,0
23520,note_off,0,0,3,,,,,,,,,2,,,61,0
23520,note_off,480,0,1,,,,,,,,,0,,,70,0
23520,note_off,480,0,3,,,,,,,,,2,,,58,0
23520,note_off,0,0,3,,,,,,,,,2,,,66,0
24000,note_on,480,0,3,,,,,,,,,2,,,68,47
24000,note_on,0,0,3,,,,,,,,,2,,,63,47
24000,note_on,0,0,3,,,,,,,,,2,,,56,44
24000,note_on,480,0,4,,,,,,,,,3,,,47,44
24000,note_on,480,0,1,,,,,,,,,0,,,71,47
24480,note_off,0,0,3,,,,,,,,,2,,,63,0
24480,note_off,480,0,1,,,,,,,,,0,,,71,0
24480,note_off,480,0,4,,,,,,,,,3,,,47,0
24480,note_off,480,0,3,,,,,,,,,2,,,56,0
24480,note_off,0,0,3,,,,,,,,,2,,,68,0
24960,note_on,480,0,4,,,,,,,,,3,,,49,48
24960,note_on,480,0,1,,,,,,,,,0,,,68,51
24960,note_on,480,0,3,,,,,,,,,2,,,65,51
24960,note_on,0,0,3,,,,,,,,,2,,,61,51
25440,note_on,0,0,3,,,,,,,,,2,,,61,49
25440,note_off,480,0,3,,,,,,,,,2,,,61,0
25440,note_off,480,0,1,,,,,,,,,0,,,68,0
25440,note_on,0,0,3,,,,,,,,,2,,,66,49
25440,note_off,480,0,4,,,,,,,,,3,,,49,0
25440,note_on,0,0,4,,,,,,,,,3,,,42,46
25440,note_on,0,0,1,,,,,,,,,0,,,70,49
25440,note_off,0,0,3,,,,,,,,,2,,,65,0
25920,note_off,0,0,3,,,,,,,,,2,,,66,0
25920,note_off,480,0,1,,,,,,,,,0,,,70,0
25920,note_on,0,0,1,,,,,,,,,0,,,71,45
25920,note_on,0,0,3,,,,,,,,,2,,,68,45
25920,note_on,0,0,3,,,,,,,,,2,,,61,45
25920,note_off,480,0,4,,,,,,,,,3,,,42,0
25920,note_on,0,0,4,,,,,,,,,3,,,37,42
25920,note_off,480,0,3,,,,,,,,,2,,,61,0
26400,note_off,480,0,3,,,,,,,,,2,,,61,0
26400,note_off,480,0,4,,,,,,,,,3,,,37,0
26400,note_off,0,0,3,,,,,,,,,2,,,68,0
26400,note_off,480,0,1,,,,,,,,,0,,,71,0
26760,set_tempo,3720,1,0,,,,,,508474,,,,,,,
26880,note_on,480,0,4,,,,,,,,,3,,,53,44
26880,note_on,0,0,3,,,,,,,,,2,,,56,44
26880,set_tempo,120,1,0,,,,,,500000,,,,,,,
26880,note_on,480,0,1,,,,,,,,,0,,,71,46
26880,note_on,480,0,3,,,,,,,,,2,,,61,47
26880,note_on,0,0,3,,,,,,,,,2,,,68,47
26880,note_on,0,0,3,,,,,,,,,2,,,59,44
27360,note_off,480,0,3,,,,,,,,,2,,,56,0
27360,note_off,0,0,3,,,,,,,,,2,,,59,0
27360,note_off,0,0,3,,,,,,,,,2,,,68,0
27360,note_off,0,0,3,,,,,,,,,2,,,61,0
27360,note_off,480,0,1,,,,,,,,,0,,,71,0
27360,note_off,480,0,4,,,,,,,,,3,,,53,0
27840,note_on,0,0,3,,,,,,,,,2,,,65,50
27840,note_on,480,0,4,,,,,,,,,3,,,49,47
27840,note_on,0,0,3,,,,,,,,,2,,,59,47
27840,note_on,0,0,3,,,,,,,,,2,,,56,47
27840,note_on,0,0,3,,,,,,,,,2,,,68,50
27840,note_on,0,0,3,,,,,,,,,2,,,53,47
27840,note_on,480,0,3,,,,,,,,,2,,,61,50
27840,note_on,480,0,1,,,,,,,,,0,,,73,50
28320,note_off,0,0,3,,,,,,,,,2,,,59,0
28320,note_off,0,0,3,,,,,,,,,2,,,53,0
28320,note_off,0,0,3,,,,,,,,,2,,,65,0
28320,note_off,0,0,3,,,,,,,,,2,,,68,0
28320,note_off,0,0,3,,,,,,,,,2,,,61,0
28320,note_off,480,0,3,,,,,,,,,2,,,56,0
28320,note_off,480,0,4,,,,,,,,,3,,,49,0
28320,note_off,480,0,1,,,,,,,,,0,,,73,0
28800,note_on,480,0,1,,,,,,,,,0,,,70,55
28800,note_on,0,0,3,,,,,,,,,2,,,58,50
28800,note_on,0,0,3,,,,,,,,,2,,,61,54
28800,note_on,480,0,3,,,,,,,,,2,,,66,54
28800,note_on,480,0,4,,,,,,,,,3,,,54,50
29280,note_off,0,0,3,,,,,,,,,2,,,61,0
29280,note_off,480,0,3,,,,,,,,,2,,,58,0
29280,note_off,480,0,1,,,,,,,,,0,,,70,0
29280,note_on,0,0,1,,,,,,,,,0,,,73,50
29280,note_off,480,0,4,,,,,,,,,3,,,54,0
29280,note_off,0,0,3,,,,,,,,,2,,,66,0
29400,note_off,120,0,1,,,,,,,,,0,,,73,0
29400,note_on,0,0,1,,,,,,,,,0,,,75,54
29520,note_off,120,0,1,,,,,,,,,0,,,75,0
29520,note_on,0,0,1,,,,,,,,,0,,,73,57
29640,note_on,0,0,1,,,,,,,,,0,,,70,60
29640,set_tempo,2760,1,0,,,,,,508474,,,,,,,
29640,note_off,120,0,1,,,,,,,,,0,,,73,0
29760,set_tempo,120,1,0,,,,,,500000,,,,,,,
29760,note_off,120,0,1,,,,,,,,,0,,,70,0
29760,note_on,0,0,1,,,,,,,,,0,,,78,67
30240,note_on,960,0,4,,,,,,,,,3,,,66,58
30240,note_on,960,0,3,,,,,,,,,2,,,70,58
30720,note_off,480,0,4,,,,,,,,,3,,,66,0
30720,note_on,0,0,3,,,,,,,,,2,,,71,64
30720,note_on,0,0,4,,,,,,,,,3,,,68,64
30720,note_off,480,0,3,,,,,,,,,2,,,70,0
31200,note_off,1440,0,1,,,,,,,,,0,,,78,0
31200,note_on,0,0,1,,,,,,,,,0,,,77,62
31320,note_off,120,0,1,,,,,,,,,0,,,77,0
31320,note_on,0,0,1,,,,,,,,,0,,,78,63
31360,note_off,40,0,1,,,,,,,,,0,,,78,0
31360,note_on,0,0,1,,,,,,,,,0,,,77,64
31400,note_off,40,0,1,,,,,,,,,0,,,77,0
31400,note_on,0,0,1,,,,,,,,,0,,,75,64
31440,note_off,40,0,1,,,,,,,,,0,,,75,0
31440,note_on,0,0,1,,,,,,,,,0,,,77,65
31560,note_off,120,0,1,,,,,,,,,0,,,77,0
31560,set_tempo,1800,1,0,,,,,,508474,,,,,,,
31560,note_on,0,0,1,,,,,,,,,0,,,78,66
31680,note_on,0,0,1,,,,,,,,,0,,,80,68
31680,note_off,120,0,1,,,,,,,,,0,,,78,0
32160,note_on,0,0,1,,,,,,,,,0,,,77,60
32160,note_off,480,0,1,,,,,,,,,0,,,80,0
32160,note_on,0,0,4,,,,,,,,,3,,,68,67
32160,note_on,0,0,3,,,,,,,,,2,,,71,67
32160,note_off,1440,0,3,,,,,,,,,2,,,71,0
32160,note_off,1440,0,4,,,,,,,,,3,,,68,0
32520,set_tempo,960,1,0,,,,,,526315,,,,,,,
32640,note_on,0,0,3,,,,,,,,,2,,,70,61
32640,note_on,0,0,4,,,,,,,,,3,,,68,61
32640,note_off,480,0,4,,,,,,,,,3,,,68,0
32640,set_tempo,120,1,0,,,,,,508474,,,,,,,
32640,note_off,480,0,1,,,,,,,,,0,,,77,0
32640,note_on,0,0,1,,,,,,,,,0,,,74,55
32640,note_off,480,0,3,,,,,,,,,2,,,71,0
32760,note_on,120,0,1,,,,,,,,,0,,,83,55
32880,note_on,0,0,1,,,,,,,,,0,,,82,55
32880,note_off,120,0,1,,,,,,,,,0,,,83,0
33000,note_on,0,0,1,,,,,,,,,0,,,74,55
33000,note_off,0,0,1,,,,,,,,,0,,,74,0
33000,note_off,120,0,1,,,,,,,,,0,,,82,0
33120,note_off,120,0,1,,,,,,,,,0,,,74,0
33120,note_on,0,0,1,,,,,,,,,0,,,74,55
33240,note_on,120,0,1,,,,,,,,,0,,,83,55
33360,note_off,120,0,1,,,,,,,,,0,,,83,0
33360,note_on,0,0,1,,,,,,,,,0,,,82,55
33480,note_off,120,0,1,,,,,,,,,0,,,82,0
33480,note_off,0,0,1,,,,,,,,,0,,,74,0
33480,note_on,0,0,1,,,,,,,,,0,,,74,54
33600,note_off,120,0,1,,,,,,,,,0,,,74,0
33600,note_on,0,0,1,,,,,,,,,0,,,74,54
33600,note_on,0,0,4,,,,,,,,,3,,,65,58
33600,note_off,960,0,4,,,,,,,,,3,,,68,0
33600,note_off,960,0,3,,,,,,,,,2,,,70,0
33600,note_on,0,0,3,,,,,,,,,2,,,68,58
33720,note_on,120,0,1,,,,,,,,,0,,,83,54
33840,note_on,0,0,1,,,,,,,,,0,,,82,54
33840,note_off,120,0,1,,,,,,,,,0,,,83,0
33960,note_on,0,0,1,,,,,,,,,0,,,74,54
33960,note_off,120,0,1,,,,,,,,,0,,,82,0
33960,note_off,0,0,1,,,,,,,,,0,,,74,0
34080,note_off,480,0,4,,,,,,,,,3,,,65,0
34080,note_on,0,0,4,,,,,,,,,3,,,58,58
34080,note_off,480,0,3,,,,,,,,,2,,,68,0
34080,note_on,0,0,3,,,,,,,,,2,,,68,58
34080,note_on,0,0,3,,,,,,,,,2,,,65,58
34080,note_off,120,0,1,,,,,,,,,0,,,74,0
34080,note_on,0,0,1,,,,,,,,,0,,,74,54
34200,note_on,120,0,1,,,,,,,,,0,,,83,54
34320,note_off,120,0,1,,,,,,,,,0,,,83,0
34320,note_on,0,0,1,,,,,,,,,0,,,82,54
34440,note_off,0,0,1,,,,,,,,,0,,,74,0
34440,note_off,120,0,1,,,,,,,,,0,,,82,0
34440,note_on,0,0,1,,,,,,,,,0,,,74,53
34560,note_on,0,0,1,,,,,,,,,0,,,75,53
34560,note_on,0,0,4,,,,,,,,,3,,,58,57
34560,note_off,480,0,4,,,,,,,,,3,,,58,0
34560,note_off,120,0,1,,,,,,,,,0,,,74,0
34560,note_on,0,0,3,,,,,,,,,2,,,63,57
34560,note_on,0,0,3,,,,,,,,,2,,,66,57
34560,note_off,0,0,3,,,,,,,,,2,,,65,0
34560,note_off,480,0,3,,,,,,,,,2,,,68,0
34680,note_on,120,0,1,,,,,,,,,0,,,83,53
34800,note_on,0,0,1,,,,,,,,,0,,,82,53
34800,note_off,120,0,1,,,,,,,,,0,,,83,0
34920,note_on,0,0,1,,,,,,,,,0,,,75,53
34920,note_off,0,0,1,,,,,,,,,0,,,75,0
34920,note_off,120,0,1,,,,,,,,,0,,,82,0
35040,note_off,480,0,4,,,,,,,,,3,,,58,0
35040,note_on,0,0,4,,,,,,,,,3,,,56,57
35040,note_off,480,0,3,,,,,,,,,2,,,63,0
35040,note_off,0,0,3,,,,,,,,,2,,,66,0
35040,note_off,120,0,1,,,,,,,,,0,,,75,0
35040,note_on,0,0,3,,,,,,,,,2,,,65,57
35040,note_on,0,0,1,,,,,,,,,0,,,77,53
35040,note_on,0,0,3,,,,,,,,,2,,,62,57
35160,note_on,120,0,1,,,,,,,,,0,,,83,53
35280,note_on,0,0,1,,,,,,,,,0,,,82,53
35280,note_off,120,0,1,,,,,,,,,0,,,83,0
35400,note_on,0,0,1,,,,,,,,,0,,,77,52
35400,note_off,0,0,1,,,,,,,,,0,,,77,0
35400,note_off,120,0,1,,,,,,,,,0,,,82,0
35520,note_off,480,0,4,,,,,,,,,3,,,56,0
35520,note_off,480,0,3,,,,,,,,,2,,,65,0
35520,note_on,0,0,1,,,,,,,,,0,,,78,52
35520,note_off,120,0,1,,,,,,,,,0,,,77,0
35520,note_off,0,0,3,,,,,,,,,2,,,62,0
35520,note_on,0,0,3,,,,,,,,,2,,,58,56
35520,note_on,0,0,3,,,,,,,,,2,,,63,56
35520,note_on,0,0,4,,,,,,,,,3,,,54,56
35640,note_on,120,0,1,,,,,,,,,0,,,83,52
35760,note_on,0,0,1,,,,,,,,,0,,,82,52
35760,note_off,120,0,1,,,,,,,,,0,,,83,0
35880,note_on,0,0,1,,,,,,,,,0,,,78,52
35880,note_off,0,0,1,,,,,,,,,0,,,78,0
35880,note_off,120,0,1,,,,,,,,,0,,,82,0
35940,set_tempo,3300,1,0,,,,,,512820,,,,,,,
36000,note_off,480,0,4,,,,,,,,,3,,,54,0
36000,note_on,0,0,4,,,,,,,,,3,,,54,56
36000,note_off,0,0,1,,,,,,,,,0,,,78,0
36000,note_on,0,0,3,,,,,,,,,2,,,63,56
36000,note_on,0,0,3,,,,,,,,,2,,,58,56
36000,note_off,0,0,3,,,,,,,,,2,,,58,0
36000,note_off,480,0,3,,,,,,,,,2,,,63,0
36000,note_on,0,0,1,,,,,,,,,0,,,87,52
36000,control_change,120,0,1,,,,,,,64,127,0,,,,
36120,note_off,120,0,1,,,,,,,,,0,,,87,0
36120,note_on,0,0,1,,,,,,,,,0,,,82,52
36240,note_off,120,0,1,,,,,,,,,0,,,82,0
36240,note_on,0,0,1,,,,,,,,,0,,,78,52
36360,note_off,120,0,1,,,,,,,,,0,,,78,0
36360,note_on,0,0,1,,,,,,,,,0,,,75,52
36360,set_tempo,420,1,0,,,,,,517241,,,,,,,
36480,note_off,480,0,4,,,,,,,,,3,,,54,0
36480,note_off,480,0,3,,,,,,,,,2,,,63,0
36480,note_off,0,0,1,,,,,,,,,0,,,75,0
36480,note_on,0,0,1,,,,,,,,,0,,,84,51
36480,set_tempo,120,1,0,,,,,,500000,,,,,,,
36480,note_on,0,0,4,,,,,,,,,3,,,54,64
36480,note_off,0,0,3,,,,,,,,,2,,,58,0
36480,control_change,120,0,1,,,,,,,64,0,0,,,,
36480,note_on,0,0,3,,,,,,,,,2,,,63,64
36480,note_on,0,0,3,,,,,,,,,2,,,57,64
36600,note_on,21720,0,2,,,,,,,,,1,,,78,51
36720,note_on,120,0,2,,,,,,,,,1,,,75,51
36840,note_off,360,0,1,,,,,,,,,0,,,84,0
36840,note_on,0,0,1,,,,,,,,,0,,,84,51
36960,note_off,240,0,2,,,,,,,,,1,,,75,0
36960,note_off,0,0,2,,,,,,,,,1,,,78,0
36960,note_off,0,0,3,,,,,,,,,2,,,57,0
36960,note_on,0,0,3,,,,,,,,,2,,,56,55
36960,note_on,0,0,3,,,,,,,,,2,,,63,55
36960,note_off,120,0,1,,,,,,,,,0,,,84,0
36960,note_off,480,0,3,,,,,,,,,2,,,63,0
36960,note_off,480,0,4,,,,,,,,,3,,,54,0
36960,note_on,0,0,4,,,,,,,,,3,,,54,55
36960,note_on,0,0,1,,,,,,,,,0,,,87,51
37080,note_on,120,0,2,,,,,,,,,1,,,78,51
37200,note_on,120,0,2,,,,,,,,,1,,,75,51
37320,note_on,0,0,1,,,,,,,,,0,,,85,51
37320,note_off,360,0,1,,,,,,,,,0,,,87,0
37440,note_on,0,0,1,,,,,,,,,0,,,84,50
37440,note_on,0,0,4,,,,,,,,,3,,,54,62
37440,note_off,120,0,1,,,,,,,,,0,,,85,0
37440,note_off,240,0,2,,,,,,,,,1,,,75,0
37440,note_off,0,0,2,,,,,,,,,1,,,78,0
37440,note_off,480,0,4,,,,,,,,,3,,,54,0
37440,note_off,480,0,3,,,,,,,,,2,,,56,0
37440,note_on,0,0,3,,,,,,,,,2,,,57,62
37440,note_on,0,0,3,,,,,,,,,2,,,63,62
37440,note_off,0,0,3,,,,,,,,,2,,,63,0
37560,note_on,120,0,2,,,,,,,,,1,,,78,50
37680,note_on,120,0,2,,,,,,,,,1,,,75,50
37800,note_on,0,0,1,,,,,,,,,0,,,84,50
37800,note_off,360,0,1,,,,,,,,,0,,,84,0
37920,note_on,0,0,4,,,,,,,,,3,,,54,54
37920,note_off,0,0,2,,,,,,,,,1,,,78,0
37920,note_on,0,0,3,,,,,,,,,2,,,56,54
37920,note_on,0,0,3,,,,,,,,,2,,,63,54
37920,note_off,480,0,4,,,,,,,,,3,,,54,0
37920,note_off,0,0,3,,,,,,,,,2,,,57,0
37920,note_off,480,0,3,,,,,,,,,2,,,63,0
37920,note_on,0,0,1,,,,,,,,,0,,,87,50
37920,note_off,240,0,2,,,,,,,,,1,,,75,0
37920,note_off,120,0,1,,,,,,,,,0,,,84,0
38040,note_on,120,0,2,,,,,,,,,1,,,78,50
38160,note_on,120,0,2,,,,,,,,,1,,,75,50
38280,note_on,0,0,1,,,,,,,,,0,,,85,50
38280,note_off,360,0,1,,,,,,,,,0,,,87,0
38400,note_on,0,0,3,,,,,,,,,2,,,63,59
38400,note_off,0,0,3,,,,,,,,,2,,,56,0
38400,note_off,240,0,2,,,,,,,,,1,,,75,0
38400,note_on,0,0,4,,,,,,,,,3,,,54,59
38400,note_off,480,0,4,,,,,,,,,3,,,54,0
38400,note_on,0,0,3,,,,,,,,,2,,,57,59
38400,note_off,480,0,3,,,,,,,,,2,,,63,0
38400,note_off,120,0,1,,,,,,,,,0,,,85,0
38400,note_on,0,0,1,,,,,,,,,0,,,84,49
38400,note_off,0,0,2,,,,,,,,,1,,,78,0
38520,note_on,120,0,2,,,,,,,,,1,,,78,49
38640,note_on,120,0,2,,,,,,,,,1,,,75,49
38760,note_off,360,0,1,,,,,,,,,0,,,84,0
38760,note_on,0,0,1,,,,,,,,,0,,,84,49
38880,note_on,0,0,3,,,,,,,,,2,,,56,53
38880,note_off,240,0,2,,,,,,,,,1,,,75,0
38880,note_off,0,0,2,,,,,,,,,1,,,78,0
38880,note_off,120,0,1,,,,,,,,,0,,,84,0
38880,note_on,0,0,1,,,,,,,,,0,,,85,49
38880,note_on,0,0,4,,,,,,,,,3,,,54,53
38880,note_off,480,0,4,,,,,,,,,3,,,54,0
38880,note_on,0,0,3,,,,,,,,,2,,,63,53
38880,note_off,0,0,3,,,,,,,,,2,,,63,0
38880,note_off,480,0,3,,,,,,,,,2,,,57,0
39000,note_on,120,0,2,,,,,,,,,1,,,78,49
39120,note_on,120,0,2,,,,,,,,,1,,,75,49
39240,note_off,360,0,1,,,,,,,,,0,,,85,0
39240,note_on,0,0,1,,,,,,,,,0,,,85,49
39360,note_off,0,0,2,,,,,,,,,1,,,78,0
39360,note_on,0,0,1,,,,,,,,,0,,,80,48
39360,note_off,120,0,1,,,,,,,,,0,,,85,0
39360,note_off,480,0,4,,,,,,,,,3,,,54,0
39360,note_off,0,0,3,,,,,,,,,2,,,63,0
39360,note_off,480,0,3,,,,,,,,,2,,,56,0
39360,note_off,240,0,2,,,,,,,,,1,,,75,0
39480,note_on,120,0,2,,,,,,,,,1,,,78,48
39600,note_on,120,0,2,,,,,,,,,1,,,75,48
39720,note_off,360,0,1,,,,,,,,,0,,,80,0
39720,note_on,0,0,1,,,,,,,,,0,,,80,48
39840,note_on,0,0,1,,,,,,,,,0,,,82,48
39840,note_off,0,0,2,,,,,,,,,1,,,78,0
39840,note_off,240,0,2,,,,,,,,,1,,,75,0
39840,note_on,480,0,4,,,,,,,,,3,,,54,52
39840,note_on,0,0,3,,,,,,,,,2,,,63,52
39840,note_on,480,0,3,,,,,,,,,2,,,58,52
39840,note_off,120,0,1,,,,,,,,,0,,,80,0
39960,note_on,120,0,2,,,,,,,,,1,,,78,48
40080,note_on,120,0,2,,,,,,,,,1,,,75,48
40200,set_tempo,3720,1,0,,,,,,508474,,,,,,,
40200,note_on,0,0,1,,,,,,,,,0,,,82,48
40200,note_off,360,0,1,,,,,,,,,0,,,82,0
40320,note_off,240,0,2,,,,,,,,,1,,,75,0
40320,note_off,0,0,2,,,,,,,,,1,,,78,0
40320,set_tempo,120,1,0,,,,,,500000,,,,,,,
40320,note_on,0,0,4,,,,,,,,,3,,,54,59
40320,note_off,480,0,4,,,,,,,,,3,,,54,0
40320,note_off,480,0,3,,,,,,,,,2,,,63,0
40320,note_off,0,0,3,,,,,,,,,2,,,58,0
40320,note_off,120,0,1,,,,,,,,,0,,,82,0
40320,note_on,0,0,1,,,,,,,,,0,,,84,47
40320,note_on,0,0,3,,,,,,,,,2,,,63,59
40320,note_on,0,0,3,,,,,,,,,2,,,57,59
40440,note_on,120,0,2,,,,,,,,,1,,,78,47
40560,note_on,120,0,2,,,,,,,,,1,,,75,47
40680,note_off,360,0,1,,,,,,,,,0,,,84,0
40680,note_on,0,0,1,,,,,,,,,0,,,84,47
40800,note_on,0,0,3,,,,,,,,,2,,,63,51
40800,note_on,0,0,3,,,,,,,,,2,,,56,51
40800,note_off,0,0,3,,,,,,,,,2,,,57,0
40800,note_off,480,0,3,,,,,,,,,2,,,63,0
40800,note_off,480,0,4,,,,,,,,,3,,,54,0
40800,note_on,0,0,4,,,,,,,,,3,,,54,51
40800,note_off,240,0,2,,,,,,,,,1,,,75,0
40800,note_on,0,0,1,,,,,,,,,0,,,87,47
40800,note_off,120,0,1,,,,,,,,,0,,,84,0
40800,note_off,0,0,2,,,,,,,,,1,,,78,0
40920,note_on,120,0,2,,,,,,,,,1,,,78,47
41040,note_on,120,0,2,,,,,,,,,1,,,75,47
41160,note_off,360,0,1,,,,,,,,,0,,,87,0
41160,note_on,0,0,1,,,,,,,,,0,,,85,47
41280,note_on,0,0,3,,,,,,,,,2,,,63,58
41280,note_on,0,0,3,,,,,,,,,2,,,57,58
41280,note_off,0,0,3,,,,,,,,,2,,,56,0
41280,note_on,0,0,4,,,,,,,,,3,,,54,58
41280,note_off,480,0,4,,,,,,,,,3,,,54,0
41280,note_off,0,0,2,,,,,,,,,1,,,78,0
41280,note_off,240,0,2,,,,,,,,,1,,,75,0
41280,note_on,0,0,1,,,,,,,,,0,,,84,47
41280,note_off,120,0,1,,,,,,,,,0,,,85,0
41280,note_off,480,0,3,,,,,,,,,2,,,63,0
41400,note_on,120,0,2,,,,,,,,,1,,,78,46
41520,note_on,120,0,2,,,,,,,,,1,,,75,46
41640,note_off,360,0,1,,,,,,,,,0,,,84,0
41640,note_on,0,0,1,,,,,,,,,0,,,84,46
41760,note_off,480,0,4,,,,,,,,,3,,,54,0
41760,note_on,0,0,4,,,,,,,,,3,,,54,50
41760,note_on,0,0,3,,,,,,,,,2,,,63,50
41760,note_off,240,0,2,,,,,,,,,1,,,75,0
41760,note_off,480,0,3,,,,,,,,,2,,,63,0
41760,note_off,0,0,3,,,,,,,,,2,,,57,0
41760,note_off,0,0,2,,,,,,,,,1,,,78,0
41760,note_on,0,0,3,,,,,,,,,2,,,56,50
41760,note_off,120,0,1,,,,,,,,,0,,,84,0
41760,note_on,0,0,1,,,,,,,,,0,,,87,46
41880,note_on,120,0,2,,,,,,,,,1,,,78,46
42000,note_on,120,0,2,,,,,,,,,1,,,75,46
42120,note_off,360,0,1,,,,,,,,,0,,,87,0
42120,note_on,0,0,1,,,,,,,,,0,,,85,46
42240,note_off,480,0,3,,,,,,,,,2,,,63,0
42240,note_off,0,0,3,,,,,,,,,2,,,56,0
42240,note_on,0,0,3,,,,,,,,,2,,,57,56
42240,note_on,0,0,4,,,,,,,,,3,,,54,56
42240,note_off,480,0,4,,,,,,,,,3,,,54,0
42240,note_off,0,0,2,,,,,,,,,1,,,78,0
42240,note_on,0,0,3,,,,,,,,,2,,,63,56
42240,note_on,0,0,1,,,,,,,,,0,,,84,46
42240,note_off,120,0,1,,,,,,,,,0,,,85,0
42240,note_off,240,0,2,,,,,,,,,1,,,75,0
42360,note_on,120,0,2,,,,,,,,,1,,,78,45
42480,note_on,120,0,2,,,,,,,,,1,,,75,45
42600,note_on,0,0,1,,,,,,,,,0,,,84,45
42600,note_off,360,0,1,,,,,,,,,0,,,84,0
42720,note_off,240,0,2,,,,,,,,,1,,,75,0
42720,note_off,0,0,2,,,,,,,,,1,,,78,0
42720,note_off,480,0,4,,,,,,,,,3,,,54,0
42720,note_on,0,0,4,,,,,,,,,3,,,54,49
42720,note_on,0,0,3,,,,,,,,,2,,,63,49
42720,note_on,0,0,1,,,,,,,,,0,,,87,45
42720,note_off,480,0,3,,,,,,,,,2,,,57,0
42720,note_off,0,0,3,,,,,,,,,2,,,63,0
42720,note_on,0,0,3,,,,,,,,,2,,,56,49
42720,note_off,120,0,1,,,,,,,,,0,,,84,0
42840,note_on,120,0,2,,,,,,,,,1,,,78,45
42960,note_on,120,0,2,,,,,,,,,1,,,75,45
43080,note_off,360,0,1,,,,,,,,,0,,,87,0
43080,note_on,0,0,1,,,,,,,,,0,,,87,45
43200,note_off,120,0,1,,,,,,,,,0,,,87,0
43200,note_on,0,0,1,,,,,,,,,0,,,80,45
43200,note_off,480,0,4,,,,,,,,,3,,,54,0
43200,note_off,0,0,2,,,,,,,,,1,,,78,0
43200,note_off,0,0,3,,,,,,,,,2,,,56,0
43200,note_off,480,0,3,,,,,,,,,2,,,63,0
43200,note_off,240,0,2,,,,,,,,,1,,,75,0
43320,note_on,120,0,2,,,,,,,,,1,,,78,44
43440,note_on,120,0,2,,,,,,,,,1,,,75,44
43560,note_on,0,0,1,,,,,,,,,0,,,80,44
43560,note_off,360,0,1,,,,,,,,,0,,,80,0
43680,note_on,0,0,3,,,,,,,,,2,,,63,48
43680,note_on,480,0,3,,,,,,,,,2,,,58,48
43680,note_off,0,0,2,,,,,,,,,1,,,78,0
43680,note_on,0,0,1,,,,,,,,,0,,,82,44
43680,note_off,240,0,2,,,,,,,,,1,,,75,0
43680,note_off,120,0,1,,,,,,,,,0,,,80,0
43800,note_on,120,0,2,,,,,,,,,1,,,78,44
43920,note_on,120,0,2,,,,,,,,,1,,,75,44
44040,note_on,0,0,1,,,,,,,,,0,,,82,44
44040,note_off,360,0,1,,,,,,,,,0,,,82,0
44040,set_tempo,3720,1,0,,,,,,508474,,,,,,,
44160,note_off,120,0,1,,,,,,,,,0,,,82,0
44160,note_on,0,0,3,,,,,,,,,2,,,63,48
44160,note_on,0,0,3,,,,,,,,,2,,,56,48
44160,note_off,0,0,3,,,,,,,,,2,,,58,0
44160,note_off,480,0,3,,,,,,,,,2,,,63,0
44160,note_off,0,0,2,,,,,,,,,1,,,78,0
44160,set_tempo,120,1,0,,,,,,500000,,,,,,,
44160,note_on,0,0,1,,,,,,,,,0,,,84,44
44160,note_on,960,0,4,,,,,,,,,3,,,54,48
44160,note_off,240,0,2,,,,,,,,,1,,,75,0
44280,note_on,120,0,2,,,,,,,,,1,,,80,45
44400,note_on,120,0,2,,,,,,,,,1,,,75,46
44520,note_on,0,0,1,,,,,,,,,0,,,84,47
44520,note_off,360,0,1,,,,,,,,,0,,,84,0
44640,note_off,120,0,1,,,,,,,,,0,,,84,0
44640,note_on,0,0,1,,,,,,,,,0,,,85,48
44640,note_on,0,0,3,,,,,,,,,2,,,56,52
44640,note_off,480,0,4,,,,,,,,,3,,,54,0
44640,note_off,480,0,3,,,,,,,,,2,,,63,0
44640,note_off,0,0,3,,,,,,,,,2,,,56,0
44640,note_on,0,0,3,,,,,,,,,2,,,61,52
44640,note_off,240,0,2,,,,,,,,,1,,,75,0
44640,note_off,0,0,2,,,,,,,,,1,,,80,0
44640,note_on,0,0,4,,,,,,,,,3,,,53,52
44760,note_on,120,0,2,,,,,,,,,1,,,80,49
44880,note_on,120,0,2,,,,,,,,,1,,,73,50
45000,note_off,360,0,1,,,,,,,,,0,,,85,0
45000,note_on,0,0,1,,,,,,,,,0,,,85,51
45120,note_off,240,0,2,,,,,,,,,1,,,73,0
45120,note_off,120,0,1,,,,,,,,,0,,,85,0
45120,note_on,0,0,1,,,,,,,,,0,,,85,52
45120,note_off,0,0,2,,,,,,,,,1,,,80,0
45120,note_off,0,0,3,,,,,,,,,2,,,61,0
45120,note_on,0,0,3,,,,,,,,,2,,,61,55
45120,note_off,480,0,4,,,,,,,,,3,,,53,0
45120,note_on,0,0,3,,,,,,,,,2,,,56,55
45120,note_on,0,0,4,,,,,,,,,3,,,53,55
45120,note_off,480,0,3,,,,,,,,,2,,,56,0
45240,note_on,120,0,2,,,,,,,,,1,,,80,52
45360,note_on,120,0,2,,,,,,,,,1,,,73,53
45480,note_off,360,0,1,,,,,,,,,0,,,85,0
45480,note_on,0,0,1,,,,,,,,,0,,,85,54
45600,note_on,0,0,4,,,,,,,,,3,,,53,57
45600,note_off,480,0,4,,,,,,,,,3,,,53,0
45600,note_off,240,0,2,,,,,,,,,1,,,73,0
45600,note_off,0,0,2,,,,,,,,,1,,,80,0
45600,note_off,120,0,1,,,,,,,,,0,,,85,0
45600,note_on,0,0,1,,,,,,,,,0,,,85,55
45600,note_off,480,0,3,,,,,,,,,2,,,56,0
45600,note_off,0,0,3,,,,,,,,,2,,,61,0
45600,note_on,0,0,3,,,,,,,,,2,,,56,57
45600,note_on,0,0,3,,,,,,,,,2,,,61,57
45720,note_on,120,0,2,,,,,,,,,1,,,80,56
45840,note_on,120,0,2,,,,,,,,,1,,,73,57
45960,note_on,0,0,1,,,,,,,,,0,,,85,58
45960,note_off,360,0,1,,,,,,,,,0,,,85,0
46080,note_on,0,0,4,,,,,,,,,3,,,52,60
46080,note_off,480,0,4,,,,,,,,,3,,,53,0
46080,note_off,240,0,2,,,,,,,,,1,,,73,0
46080,note_off,0,0,3,,,,,,,,,2,,,56,0
46080,note_off,480,0,3,,,,,,,,,2,,,61,0
46080,note_off,0,0,2,,,,,,,,,1,,,80,0
46080,note_on,0,0,3,,,,,,,,,2,,,61,60
46080,note_off,120,0,1,,,,,,,,,0,,,85,0
46080,note_on,0,0,1,,,,,,,,,0,,,85,59
46080,note_on,0,0,3,,,,,,,,,2,,,55,60
46200,note_on,120,0,2,,,,,,,,,1,,,79,60
46320,note_on,120,0,2,,,,,,,,,1,,,73,61
46440,note_off,360,0,1,,,,,,,,,0,,,85,0
46440,note_on,0,0,1,,,,,,,,,0,,,85,62
46560,note_off,0,0,2,,,,,,,,,1,,,79,0
46560,note_on,0,0,3,,,,,,,,,2,,,55,63
46560,note_on,0,0,3,,,,,,,,,2,,,61,63
46560,note_off,0,0,3,,,,,,,,,2,,,55,0
46560,note_off,480,0,3,,,,,,,,,2,,,61,0
46560,note_off,480,0,4,,,,,,,,,3,,,52,0
46560,note_off,240,0,2,,,,,,,,,1,,,73,0
46560,note_on,0,0,4,,,,,,,,,3,,,52,63
46560,note_on,0,0,1,,,,,,,,,0,,,85,63
46560,note_off,120,0,1,,,,,,,,,0,,,85,0
46680,note_on,120,0,2,,,,,,,,,1,,,78,64
46800,note_on,120,0,2,,,,,,,,,1,,,73,65
46920,note_off,360,0,1,,,,,,,,,0,,,85,0
46920,note_on,0,0,1,,,,,,,,,0,,,85,66
47040,note_off,0,0,2,,,,,,,,,1,,,78,0
47040,note_off,240,0,2,,,,,,,,,1,,,73,0
47040,note_off,0,0,3,,,,,,,,,2,,,61,0
47040,note_off,480,0,4,,,,,,,,,3,,,52,0
47040,note_on,0,0,4,,,,,,,,,3,,,52,65
47040,note_on,0,0,1,,,,,,,,,0,,,85,67
47040,note_on,0,0,3,,,,,,,,,2,,,55,65
47040,note_on,0,0,3,,,,,,,,,2,,,61,65
47040,note_off,480,0,3,,,,,,,,,2,,,55,0
47040,note_off,120,0,1,,,,,,,,,0,,,85,0
47160,note_on,120,0,2,,,,,,,,,1,,,78,68
47280,note_on,120,0,2,,,,,,,,,1,,,73,69
47400,note_off,360,0,1,,,,,,,,,0,,,85,0
47400,note_on,0,0,1,,,,,,,,,0,,,85,70
47520,note_on,0,0,1,,,,,,,,,0,,,85,71
47520,note_off,480,0,4,,,,,,,,,3,,,52,0
47520,note_off,240,0,2,,,,,,,,,1,,,73,0
47520,note_off,120,0,1,,,,,,,,,0,,,85,0
47520,note_on,0,0,4,,,,,,,,,3,,,52,68
47520,note_on,0,0,3,,,,,,,,,2,,,61,68
47520,note_off,0,0,3,,,,,,,,,2,,,61,0
47520,note_off,480,0,3,,,,,,,,,2,,,55,0
47520,note_on,0,0,3,,,,,,,,,2,,,55,68
47520,note_off,0,0,2,,,,,,,,,1,,,78,0
47640,note_on,120,0,2,,,,,,,,,1,,,78,72
47760,note_on,120,0,2,,,,,,,,,1,,,73,73
47880,note_off,360,0,1,,,,,,,,,0,,,85,0
47880,note_on,0,0,1,,,,,,,,,0,,,85,74
47955,set_tempo,3795,1,0,,,,,,504201,,,,,,,
48000,set_tempo,45,1,0,,,,,,500000,,,,,,,
48000,note_off,480,0,4,,,,,,,,,3,,,52,0
48000,note_on,0,0,4,,,,,,,,,3,,,45,71
48000,note_off,0,0,3,,,,,,,,,2,,,61,0
48000,note_on,0,0,3,,,,,,,,,2,,,55,71
48000,note_off,0,0,2,,,,,,,,,1,,,78,0
48000,note_on,0,0,3,,,,,,,,,2,,,52,71
48000,note_on,0,0,3,,,,,,,,,2,,,49,71
48000,note_off,480,0,3,,,,,,,,,2,,,55,0
48000,note_off,120,0,1,,,,,,,,,0,,,85,0
48000,note_on,0,0,1,,,,,,,,,0,,,85,75
48000,note_off,240,0,2,,,,,,,,,1,,,73,0
48120,note_on,120,0,2,,,,,,,,,1,,,79,76
48240,note_on,120,0,2,,,,,,,,,1,,,73,77
48360,note_off,360,0,1,,,,,,,,,0,,,85,0
48360,note_on,0,0,1,,,,,,,,,0,,,85,78
48480,note_off,480,0,3,,,,,,,,,2,,,55,0
48480,note_off,0,0,2,,,,,,,,,1,,,79,0
48480,note_off,240,0,2,,,,,,,,,1,,,73,0
48480,note_on,0,0,4,,,,,,,,,3,,,45,73
48480,note_on,0,0,3,,,,,,,,,2,,,52,73
48480,note_on,0,0,3,,,,,,,,,2,,,55,73
48480,note_off,480,0,4,,,,,,,,,3,,,45,0
48480,note_off,0,0,3,,,,,,,,,2,,,52,0
48480,note_on,0,0,1,,,,,,,,,0,,,85,79
48480,note_off,120,0,1,,,,,,,,,0,,,85,0
48480,note_on,0,0,3,,,,,,,,,2,,,49,73
48480,note_off,0,0,3,,,,,,,,,2,,,49,0
48600,note_on,120,0,2,,,,,,,,,1,,,78,80
48720,note_on,120,0,2,,,,,,,,,1,,,73,81
48840,note_on,0,0,1,,,,,,,,,0,,,85,82
48840,note_off,360,0,1,,,,,,,,,0,,,85,0
48960,note_off,0,0,3,,,,,,,,,2,,,52,0
48960,note_on,0,0,3,,,,,,,,,2,,,49,76
48960,note_off,480,0,4,,,,,,,,,3,,,45,0
48960,note_on,0,0,4,,,,,,,,,3,,,45,76
48960,note_off,0,0,2,,,,,,,,,1,,,78,0
48960,note_off,240,0,2,,,,,,,,,1,,,73,0
48960,note_off,480,0,3,,,,,,,,,2,,,55,0
48960,note_off,0,0,3,,,,,,,,,2,,,49,0
48960,note_on,0,0,3,,,,,,,,,2,,,52,76
48960,note_on,0,0,3,,,,,,,,,2,,,55,76
48960,note_off,120,0,1,,,,,,,,,0,,,85,0
48960,note_on,0,0,1,,,,,,,,,0,,,85,83
49080,note_on,120,0,2,,,,,,,,,1,,,78,84
49200,note_on,120,0,2,,,,,,,,,1,,,73,85
49320,note_on,0,0,1,,,,,,,,,0,,,85,86
49320,note_off,360,0,1,,,,,,,,,0,,,85,0
49440,note_off,240,0,2,,,,,,,,,1,,,73,0
49440,note_off,120,0,1,,,,,,,,,0,,,85,0
49440,note_off,480,0,4,,,,,,,,,3,,,45,0
49440,note_on,0,0,4,,,,,,,,,3,,,45,78
49440,note_on,0,0,1,,,,,,,,,0,,,85,87
49440,note_on,0,0,3,,,,,,,,,2,,,55,78
49440,note_on,0,0,3,,,,,,,,,2,,,52,78
49440,note_on,0,0,3,,,,,,,,,2,,,49,78
49440,note_off,0,0,3,,,,,,,,,2,,,49,0
49440,note_off,0,0,3,,,,,,,,,2,,,52,0
49440,note_off,480,0,3,,,,,,,,,2,,,55,0
49440,note_off,0,0,2,,,,,,,,,1,,,78,0
49560,note_on,120,0,2,,,,,,,,,1,,,78,88
49680,note_on,120,0,2,,,,,,,,,1,,,73,89
49800,note_on,0,0,1,,,,,,,,,0,,,85,90
49800,note_off,360,0,1,,,,,,,,,0,,,85,0
49860,set_tempo,1860,1,0,,,,,,504201,,,,,,,
49920,note_on,0,0,4,,,,,,,,,3,,,56,80
49920,note_off,480,0,4,,,,,,,,,3,,,45,0
49920,note_on,0,0,4,,,,,,,,,3,,,44,80
49920,note_on,0,0,1,,,,,,,,,0,,,85,92
49920,note_off,120,0,1,,,,,,,,,0,,,85,0
49920,note_off,240,0,2,,,,,,,,,1,,,73,0
49920,note_on,0,0,3,,,,,,,,,2,,,63,70
49920,note_off,0,0,3,,,,,,,,,2,,,49,0
49920,note_off,0,0,3,,,,,,,,,2,,,52,0
49920,note_off,480,0,3,,,,,,,,,2,,,55,0
49920,note_off,0,0,2,,,,,,,,,1,,,78,0
50000,note_on,80,0,3,,,,,,,,,2,,,65,70
50040,note_on,120,0,2,,,,,,,,,1,,,78,92
50048,note_off,48,0,3,,,,,,,,,2,,,63,0
50080,note_on,32,0,3,,,,,,,,,2,,,63,70
50128,note_off,48,0,3,,,,,,,,,2,,,65,0
50160,note_on,32,0,3,,,,,,,,,2,,,65,71
50160,note_on,120,0,2,,,,,,,,,1,,,73,92
50208,note_off,48,0,3,,,,,,,,,2,,,63,0
50240,note_on,32,0,3,,,,,,,,,2,,,63,71
50280,note_on,0,0,1,,,,,,,,,0,,,85,93
50280,note_off,360,0,1,,,,,,,,,0,,,85,0
50288,note_off,48,0,3,,,,,,,,,2,,,65,0
50320,note_on,32,0,3,,,,,,,,,2,,,65,71
50368,note_off,48,0,3,,,,,,,,,2,,,63,0
50400,note_off,240,0,2,,,,,,,,,1,,,73,0
50400,note_off,0,0,2,,,,,,,,,1,,,78,0
50400,note_on,32,0,3,,,,,,,,,2,,,63,72
50400,note_on,0,0,1,,,,,,,,,0,,,85,93
50400,note_off,120,0,1,,,,,,,,,0,,,85,0
50448,note_off,48,0,3,,,,,,,,,2,,,65,0
50480,note_on,32,0,3,,,,,,,,,2,,,65,72
50520,note_on,120,0,2,,,,,,,,,1,,,78,94
50528,note_off,48,0,3,,,,,,,,,2,,,63,0
50560,note_on,32,0,3,,,,,,,,,2,,,63,72
50608,note_off,48,0,3,,,,,,,,,2,,,65,0
50640,note_on,32,0,3,,,,,,,,,2,,,65,73
50640,note_on,120,0,2,,,,,,,,,1,,,73,94
50688,note_off,48,0,3,,,,,,,,,2,,,63,0
50720,note_on,32,0,3,,,,,,,,,2,,,63,73
50760,note_on,0,0,1,,,,,,,,,0,,,85,95
50760,note_off,360,0,1,,,,,,,,,0,,,85,0
50768,note_off,48,0,3,,,,,,,,,2,,,65,0
50800,note_on,32,0,3,,,,,,,,,2,,,65,73
50848,note_off,48,0,3,,,,,,,,,2,,,63,0
50880,note_off,120,0,1,,,,,,,,,0,,,85,0
50880,note_on,0,0,1,,,,,,,,,0,,,84,95
50880,note_on,32,0,3,,,,,,,,,2,,,63,74
50880,note_off,240,0,2,,,,,,,,,1,,,73,0
50880,note_off,0,0,2,,,,,,,,,1,,,78,0
50928,note_off,48,0,3,,,,,,,,,2,,,65,0
50960,note_on,32,0,3,,,,,,,,,2,,,65,74
51000,note_on,120,0,2,,,,,,,,,1,,,78,95
51008,note_off,48,0,3,,,,,,,,,2,,,63,0
51040,note_on,32,0,3,,,,,,,,,2,,,63,74
51088,note_off,48,0,3,,,,,,,,,2,,,65,0
51120,note_on,120,0,2,,,,,,,,,1,,,73,95
51120,note_on,32,0,3,,,,,,,,,2,,,65,75
51168,note_off,48,0,3,,,,,,,,,2,,,63,0
51200,note_on,32,0,3,,,,,,,,,2,,,63,75
51240,note_on,0,0,1,,,,,,,,,0,,,84,97
51240,note_off,360,0,1,,,,,,,,,0,,,84,0
51248,note_off,48,0,3,,,,,,,,,2,,,65,0
51280,note_on,32,0,3,,,,,,,,,2,,,65,75
51328,note_off,48,0,3,,,,,,,,,2,,,63,0
51360,note_off,240,0,2,,,,,,,,,1,,,73,0
51360,note_off,120,0,1,,,,,,,,,0,,,84,0
51360,note_off,0,0,2,,,,,,,,,1,,,78,0
51360,note_on,32,0,3,,,,,,,,,2,,,63,75
51360,note_on,0,0,1,,,,,,,,,0,,,84,97
51408,note_off,48,0,3,,,,,,,,,2,,,65,0
51440,note_on,32,0,3,,,,,,,,,2,,,65,76
51480,note_on,120,0,2,,,,,,,,,1,,,78,97
51488,note_off,48,0,3,,,,,,,,,2,,,63,0
51520,note_on,32,0,3,,,,,,,,,2,,,63,76
51568,note_off,48,0,3,,,,,,,,,2,,,65,0
51600,note_on,32,0,3,,,,,,,,,2,,,61,76
51600,set_tempo,1740,1,0,,,,,,508474,,,,,,,
51600,note_on,120,0,2,,,,,,,,,1,,,73,97
51648,note_off,48,0,3,,,,,,,,,2,,,63,0
51720,note_on,72,0,3,,,,,,,,,2,,,63,77
51720,note_on,0,0,1,,,,,,,,,0,,,84,97
51720,set_tempo,120,1,0,,,,,,517241,,,,,,,
51720,note_off,360,0,1,,,,,,,,,0,,,84,0
51790,note_off,70,0,3,,,,,,,,,2,,,61,0
51840,note_off,120,0,1,,,,,,,,,0,,,84,0
51840,note_off,240,0,2,,,,,,,,,1,,,73,0
51840,note_off,0,0,2,,,,,,,,,1,,,78,0
51840,note_on,0,0,1,,,,,,,,,0,,,85,95
51840,note_on,50,0,3,,,,,,,,,2,,,61,73
51840,note_on,0,0,4,,,,,,,,,3,,,49,83
51840,note_on,0,0,2,,,,,,,,,1,,,73,95
51840,note_on,0,0,2,,,,,,,,,1,,,77,95
51840,set_tempo,120,1,0,,,,,,517241,,,,,,,
51840,note_off,1920,0,4,,,,,,,,,3,,,56,0
51840,note_off,0,0,4,,,,,,,,,3,,,44,0
51845,note_off,5,0,3,,,,,,,,,2,,,63,0
52320,note_off,475,0,3,,,,,,,,,2,,,61,0
52320,note_off,480,0,1,,,,,,,,,0,,,85,0
52320,note_off,480,0,4,,,,,,,,,3,,,49,0
52320,note_off,0,0,2,,,,,,,,,1,,,73,0
52320,note_off,480,0,2,,,,,,,,,1,,,77,0
52800,note_on,480,0,4,,,,,,,,,3,,,61,49
52800,set_tempo,960,1,0,,,,,,508474,,,,,,,
52800,note_on,480,0,1,,,,,,,,,0,,,77,48
52960,note_on,0,0,4,,,,,,,,,3,,,63,49
52960,note_off,160,0,4,,,,,,,,,3,,,61,0
52960,note_off,160,0,1,,,,,,,,,0,,,77,0
52960,note_on,0,0,1,,,,,,,,,0,,,73,48
53120,note_on,0,0,4,,,,,,,,,3,,,65,50
53120,note_on,0,0,1,,,,,,,,,0,,,68,49
53120,note_off,160,0,4,,,,,,,,,3,,,63,0
53120,note_off,160,0,1,,,,,,,,,0,,,73,0
53280,note_off,160,0,1,,,,,,,,,0,,,68,0
53280,note_on,0,0,4,,,,,,,,,3,,,66,51
53280,note_off,160,0,4,,,,,,,,,3,,,65,0
53280,note_on,0,0,1,,,,,,,,,0,,,70,50
53440,note_off,160,0,1,,,,,,,,,0,,,70,0
53440,note_on,0,0,1,,,,,,,,,0,,,73,50
53440,note_on,0,0,4,,,,,,,,,3,,,61,51
53440,note_off,160,0,4,,,,,,,,,3,,,66,0
53600,note_off,160,0,4,,,,,,,,,3,,,61,0
53600,note_on,0,0,1,,,,,,,,,0,,,70,51
53600,note_off,160,0,1,,,,,,,,,0,,,73,0
53600,note_on,0,0,4,,,,,,,,,3,,,66,52
53760,note_off,160,0,1,,,,,,,,,0,,,70,0
53760,note_on,0,0,1,,,,,,,,,0,,,68,52
53760,note_off,160,0,4,,,,,,,,,3,,,66,0
53760,note_on,0,0,4,,,,,,,,,3,,,61,50
53760,note_on,0,0,4,,,,,,,,,3,,,65,50
53920,note_off,160,0,1,,,,,,,,,0,,,68,0
53920,note_on,0,0,1,,,,,,,,,0,,,73,52
54080,note_on,0,0,1,,,,,,,,,0,,,75,53
54080,note_off,160,0,1,,,,,,,,,0,,,73,0
54240,note_on,0,0,1,,,,,,,,,0,,,77,53
54240,note_off,160,0,1,,,,,,,,,0,,,75,0
54240,note_off,480,0,4,,,,,,,,,3,,,65,0
54240,note_off,0,0,4,,,,,,,,,3,,,61,0
54400,note_on,0,0,1,,,,,,,,,0,,,73,54
54400,note_off,160,0,1,,,,,,,,,0,,,77,0
54560,note_on,0,0,1,,,,,,,,,0,,,80,55
54560,note_off,160,0,1,,,,,,,,,0,,,73,0
54720,note_on,0,0,1,,,,,,,,,0,,,77,55
54720,note_off,160,0,1,,,,,,,,,0,,,80,0
54720,note_on,480,0,4,,,,,,,,,3,,,49,54
54880,note_off,160,0,1,,,,,,,,,0,,,77,0
54880,note_off,160,0,4,,,,,,,,,3,,,49,0
54880,note_on,0,0,1,,,,,,,,,0,,,73,53
54880,note_on,0,0,4,,,,,,,,,3,,,51,53
55040,note_off,160,0,1,,,,,,,,,0,,,73,0
55040,note_off,160,0,4,,,,,,,,,3,,,51,0
55040,note_on,0,0,1,,,,,,,,,0,,,68,52
55040,note_on,0,0,4,,,,,,,,,3,,,53,52
55200,note_off,160,0,4,,,,,,,,,3,,,53,0
55200,note_on,0,0,4,,,,,,,,,3,,,44,51
55200,note_on,0,0,1,,,,,,,,,0,,,66,51
55200,note_on,0,0,4,,,,,,,,,3,,,54,51
55200,note_off,160,0,1,,,,,,,,,0,,,68,0
55360,note_off,160,0,1,,,,,,,,,0,,,66,0
55360,note_off,160,0,4,,,,,,,,,3,,,54,0
55360,note_on,0,0,1,,,,,,,,,0,,,63,50
55360,note_on,0,0,4,,,,,,,,,3,,,51,50
55520,note_on,0,0,1,,,,,,,,,0,,,68,50
55520,note_off,160,0,1,,,,,,,,,0,,,63,0
55520,note_off,160,0,4,,,,,,,,,3,,,51,0
55520,note_on,0,0,4,,,,,,,,,3,,,56,49
55680,note_off,160,0,4,,,,,,,,,3,,,56,0
55680,note_off,160,0,1,,,,,,,,,0,,,68,0
55680,note_on,0,0,1,,,,,,,,,0,,,65,49
55680,note_off,0,0,4,,,,,,,,,3,,,44,0
55680,note_on,0,0,4,,,,,,,,,3,,,53,47
55680,note_on,0,0,4,,,,,,,,,3,,,49,47
56040,set_tempo,3240,1,0,,,,,,517241,,,,,,,
56160,note_off,480,0,1,,,,,,,,,0,,,65,0
56160,note_off,0,0,4,,,,,,,,,3,,,53,0
56160,note_off,480,0,4,,,,,,,,,3,,,49,0
56160,set_tempo,120,1,0,,,,,,508474,,,,,,,
56160,note_on,0,0,1,,,,,,,,,0,,,68,50
56320,note_off,160,0,1,,,,,,,,,0,,,68,0
56320,note_on,0,0,1,,,,,,,,,0,,,73,51
56480,note_off,160,0,1,,,,,,,,,0,,,73,0
56480,note_on,0,0,1,,,,,,,,,0,,,75,52
56640,note_on,480,0,4,,,,,,,,,3,,,61,53
56640,note_off,160,0,1,,,,,,,,,0,,,75,0
56640,note_on,0,0,1,,,,,,,,,0,,,77,53
56800,note_on,0,0,4,,,,,,,,,3,,,63,54
56800,note_off,160,0,4,,,,,,,,,3,,,61,0
56800,note_off,160,0,1,,,,,,,,,0,,,77,0
56800,note_on,0,0,1,,,,,,,,,0,,,73,55
56960,note_off,160,0,4,,,,,,,,,3,,,63,0
56960,note_on,0,0,4,,,,,,,,,3,,,65,55
56960,note_on,0,0,1,,,,,,,,,0,,,68,56
56960,note_off,160,0,1,,,,,,,,,0,,,73,0
57120,note_on,0,0,1,,,,,,,,,0,,,70,57
57120,note_off,160,0,1,,,,,,,,,0,,,68,0
57120,note_off,160,0,4,,,,,,,,,3,,,65,0
57120,note_on,0,0,4,,,,,,,,,3,,,66,56
57280,note_on,0,0,1,,,,,,,,,0,,,73,58
57280,note_off,160,0,1,,,,,,,,,0,,,70,0
57280,note_off,160,0,4,,,,,,,,,3,,,66,0
57280,note_on,0,0,4,,,,,,,,,3,,,61,57
57440,note_on,0,0,1,,,,,,,,,0,,,70,59
57440,note_off,160,0,1,,,,,,,,,0,,,73,0
57440,note_off,160,0,4,,,,,,,,,3,,,61,0
57440,note_on,0,0,4,,,,,,,,,3,,,66,58
57600,note_on,0,0,1,,,,,,,,,0,,,68,60
57600,note_on,0,0,4,,,,,,,,,3,,,65,55
57600,note_on,0,0,4,,,,,,,,,3,,,61,55
57600,note_off,160,0,1,,,,,,,,,0,,,70,0
57600,note_off,160,0,4,,,,,,,,,3,,,66,0
57760,note_off,160,0,1,,,,,,,,,0,,,68,0
57760,note_on,0,0,1,,,,,,,,,0,,,73,61
57920,note_off,160,0,1,,,,,,,,,0,,,73,0
57920,note_on,0,0,1,,,,,,,,,0,,,75,62
58080,note_off,160,0,1,,,,,,,,,0,,,75,0
58080,note_off,0,0,4,,,,,,,,,3,,,65,0
58080,note_off,480,0,4,,,,,,,,,3,,,61,0
58080,note_on,0,0,1,,,,,,,,,0,,,77,63
58240,note_off,160,0,1,,,,,,,,,0,,,77,0
58240,note_on,0,0,1,,,,,,,,,0,,,73,64
58400,note_off,160,0,1,,,,,,,,,0,,,73,0
58400,note_on,0,0,1,,,,,,,,,0,,,80,65
58440,set_tempo,2280,1,0,,,,,,517241,,,,,,,
58560,note_on,480,0,4,,,,,,,,,3,,,58,81
58560,note_on,6240,0,3,,,,,,,,,2,,,65,81
58560,note_on,6240,0,2,,,,,,,,,1,,,68,85
58560,note_off,160,0,1,,,,,,,,,0,,,80,0
58560,note_on,0,0,1,,,,,,,,,0,,,74,85
59040,note_off,480,0,2,,,,,,,,,1,,,68,0
59040,note_on,0,0,4,,,,,,,,,3,,,51,78
59040,note_on,0,0,3,,,,,,,,,2,,,63,78
59040,note_off,480,0,3,,,,,,,,,2,,,65,0
59040,note_on,0,0,1,,,,,,,,,0,,,75,82
59040,note_off,480,0,4,,,,,,,,,3,,,58,0
59040,note_off,480,0,1,,,,,,,,,0,,,74,0
59040,note_on,0,0,2,,,,,,,,,1,,,66,82
59520,note_off,480,0,1,,,,,,,,,0,,,75,0
59520,note_on,0,0,1,,,,,,,,,0,,,72,79
59520,note_off,480,0,4,,,,,,,,,3,,,51,0
59520,note_on,0,0,4,,,,,,,,,3,,,56,74
59520,note_on,0,0,2,,,,,,,,,1,,,66,79
59520,note_on,0,0,3,,,,,,,,,2,,,63,74
59520,note_off,480,0,3,,,,,,,,,2,,,63,0
59520,note_off,480,0,2,,,,,,,,,1,,,66,0
60360,set_tempo,1920,1,0,,,,,,526315,,,,,,,
60480,note_off,960,0,4,,,,,,,,,3,,,56,0
60480,note_on,0,0,4,,,,,,,,,3,,,44,56
60480,note_off,960,0,2,,,,,,,,,1,,,66,0
60480,set_tempo,120,1,0,,,,,,508474,,,,,,,
60480,note_off,960,0,3,,,,,,,,,2,,,63,0
60480,note_on,0,0,3,,,,,,,,,2,,,54,56
60480,note_on,0,0,1,,,,,,,,,0,,,66,61
60480,note_off,960,0,1,,,,,,,,,0,,,72,0
60600,note_on,0,0,1,,,,,,,,,0,,,68,62
60600,note_off,120,0,1,,,,,,,,,0,,,66,0
60720,note_on,0,0,1,,,,,,,,,0,,,66,63
60720,note_off,120,0,1,,,,,,,,,0,,,68,0
60840,note_off,120,0,1,,,,,,,,,0,,,66,0
60840,note_on,0,0,1,,,,,,,,,0,,,65,64
60960,note_off,120,0,1,,,,,,,,,0,,,65,0
60960,note_on,0,0,1,,,,,,,,,0,,,66,64
61080,note_off,120,0,1,,,,,,,,,0,,,66,0
61080,note_on,0,0,1,,,,,,,,,0,,,75,65
61200,note_off,120,0,1,,,,,,,,,0,,,75,0
61200,note_on,0,0,1,,,,,,,,,0,,,73,66
61320,note_on,0,0,1,,,,,,,,,0,,,72,67
61320,note_off,120,0,1,,,,,,,,,0,,,73,0
61440,note_off,120,0,1,,,,,,,,,0,,,72,0
61440,note_on,0,0,1,,,,,,,,,0,,,73,68
61440,note_on,0,0,3,,,,,,,,,2,,,53,58
61440,note_off,960,0,4,,,,,,,,,3,,,44,0
61440,note_on,0,0,4,,,,,,,,,3,,,49,58
61440,note_off,960,0,3,,,,,,,,,2,,,54,0
61560,note_off,120,0,1,,,,,,,,,0,,,73,0
61560,note_on,0,0,1,,,,,,,,,0,,,68,68
61680,note_off,120,0,1,,,,,,,,,0,,,68,0
61680,note_on,0,0,1,,,,,,,,,0,,,73,69
61800,note_off,120,0,1,,,,,,,,,0,,,73,0
61800,note_on,0,0,1,,,,,,,,,0,,,77,70
61920,note_off,480,0,3,,,,,,,,,2,,,53,0
61920,note_off,120,0,1,,,,,,,,,0,,,77,0
61920,note_on,0,0,1,,,,,,,,,0,,,80,71
61920,note_off,480,0,4,,,,,,,,,3,,,49,0
62040,note_off,120,0,1,,,,,,,,,0,,,80,0
62040,note_on,0,0,1,,,,,,,,,0,,,85,72
62160,note_off,120,0,1,,,,,,,,,0,,,85,0
62160,note_on,0,0,1,,,,,,,,,0,,,89,72
62280,set_tempo,1800,1,0,,,,,,517241,,,,,,,
62280,note_on,0,0,1,,,,,,,,,0,,,87,73
62280,note_off,120,0,1,,,,,,,,,0,,,89,0
62400,note_on,1920,0,2,,,,,,,,,1,,,80,93
62400,note_on,480,0,4,,,,,,,,,3,,,70,93
62400,note_on,480,0,3,,,,,,,,,2,,,77,93
62400,note_off,120,0,1,,,,,,,,,0,,,87,0
62400,note_on,0,0,1,,,,,,,,,0,,,86,93
62880,note_on,0,0,4,,,,,,,,,3,,,63,90
62880,note_on,0,0,1,,,,,,,,,0,,,87,90
62880,note_off,480,0,4,,,,,,,,,3,,,70,0
62880,note_off,480,0,3,,,,,,,,,2,,,77,0
62880,note_on,0,0,3,,,,,,,,,2,,,75,90
62880,note_off,480,0,2,,,,,,,,,1,,,80,0
62880,note_off,480,0,1,,,,,,,,,0,,,86,0
62880,note_on,0,0,2,,,,,,,,,1,,,78,90
63360,note_off,480,0,2,,,,,,,,,1,,,78,0
63360,note_off,480,0,3,,,,,,,,,2,,,75,0
63360,note_on,0,0,2,,,,,,,,,1,,,78,85
63360,note_on,0,0,3,,,,,,,,,2,,,75,82
63360,note_off,480,0,4,,,,,,,,,3,,,63,0
63360,note_on,0,0,1,,,,,,,,,0,,,84,85
63360,note_off,480,0,1,,,,,,,,,0,,,87,0
63360,note_on,0,0,4,,,,,,,,,3,,,68,82
64200,set_tempo,1920,1,0,,,,,,526315,,,,,,,
64320,note_on,0,0,4,,,,,,,,,3,,,56,56
64320,note_off,960,0,3,,,,,,,,,2,,,75,0
64320,note_off,960,0,4,,,,,,,,,3,,,68,0
64320,note_on,0,0,1,,,,,,,,,0,,,78,58
64320,note_off,960,0,1,,,,,,,,,0,,,84,0
64320,note_on,0,0,3,,,,,,,,,2,,,63,56
64320,set_tempo,120,1,0,,,,,,508474,,,,,,,
64320,note_off,960,0,2,,,,,,,,,1,,,78,0
64320,note_on,0,0,3,,,,,,,,,2,,,66,56
64440,note_on,0,0,1,,,,,,,,,0,,,80,58
64440,note_off,120,0,1,,,,,,,,,0,,,78,0
64560,note_on,0,0,1,,,,,,,,,0,,,78,57
64560,note_off,120,0,1,,,,,,,,,0,,,80,0
64680,note_off,120,0,1,,,,,,,,,0,,,78,0
64680,note_on,0,0,1,,,,,,,,,0,,,77,57
64800,note_on,0,0,1,,,,,,,,,0,,,78,56
64800,note_off,120,0,1,,,,,,,,,0,,,77,0
64920,note_off,120,0,1,,,,,,,,,0,,,78,0
64920,note_on,0,0,1,,,,,,,,,0,,,87,56
65040,note_on,0,0,1,,,,,,,,,0,,,85,55
65040,note_off,120,0,1,,,,,,,,,0,,,87,0
65160,note_on,0,0,1,,,,,,,,,0,,,84,55
65160,note_off,120,0,1,,,,,,,,,0,,,85,0
65280,note_on,0,0,4,,,,,,,,,3,,,61,53
65280,note_on,0,0,1,,,,,,,,,0,,,85,54
65280,note_off,120,0,1,,,,,,,,,0,,,84,0
65280,note_on,0,0,3,,,,,,,,,2,,,65,53
65280,note_off,960,0,3,,,,,,,,,2,,,66,0
65280,note_off,960,0,4,,,,,,,,,3,,,56,0
65280,note_off,0,0,3,,,,,,,,,2,,,63,0
65400,note_on,0,0,1,,,,,,,,,0,,,80,54
65400,note_off,120,0,1,,,,,,,,,0,,,85,0
65520,note_off,120,0,1,,,,,,,,,0,,,80,0
65520,note_on,0,0,1,,,,,,,,,0,,,77,53
65640,note_off,120,0,1,,,,,,,,,0,,,77,0
65640,note_on,0,0,1,,,,,,,,,0,,,73,53
65760,note_on,0,0,1,,,,,,,,,0,,,68,52
65760,note_off,480,0,3,,,,,,,,,2,,,65,0
65760,note_off,120,0,1,,,,,,,,,0,,,73,0
65760,note_off,480,0,4,,,,,,,,,3,,,61,0
65880,note_on,0,0,1,,,,,,,,,0,,,73,52
65880,note_off,120,0,1,,,,,,,,,0,,,68,0
66000,note_off,120,0,1,,,,,,,,,0,,,73,0
66000,note_on,0,0,1,,,,,,,,,0,,,68,51
66120,note_off,120,0,1,,,,,,,,,0,,,68,0
66120,note_on,0,0,1,,,,,,,,,0,,,65,51
66240,note_on,480,0,3,,,,,,,,,2,,,54,49
66240,note_off,120,0,1,,,,,,,,,0,,,65,0
66240,note_on,0,0,1,,,,,,,,,0,,,66,50
66240,note_on,480,0,4,,,,,,,,,3,,,44,49
66360,note_off,120,0,1,,,,,,,,,0,,,66,0
66360,note_on,0,0,1,,,,,,,,,0,,,68,50
66480,note_off,120,0,1,,,,,,,,,0,,,68,0
66480,note_on,0,0,1,,,,,,,,,0,,,66,49
66600,note_off,120,0,1,,,,,,,,,0,,,66,0
66600,note_on,0,0,1,,,,,,,,,0,,,65,49
66720,note_off,120,0,1,,,,,,,,,0,,,65,0
66720,note_on,0,0,1,,,,,,,,,0,,,66,48
66840,note_off,120,0,1,,,,,,,,,0,,,66,0
66840,note_on,0,0,1,,,,,,,,,0,,,75,48
66960,note_off,120,0,1,,,,,,,,,0,,,75,0
66960,note_on,0,0,1,,,,,,,,,0,,,73,47
67080,note_off,120,0,1,,,,,,,,,0,,,73,0
67080,note_on,0,0,1,,,,,,,,,0,,,72,47
67200,note_on,0,0,3,,,,,,,,,2,,,53,46
67200,note_off,960,0,3,,,,,,,,,2,,,54,0
67200,note_on,0,0,4,,,,,,,,,3,,,49,46
67200,note_off,960,0,4,,,,,,,,,3,,,44,0
67200,note_off,120,0,1,,,,,,,,,0,,,72,0
67200,note_on,0,0,1,,,,,,,,,0,,,73,46
67320,note_off,120,0,1,,,,,,,,,0,,,73,0
67320,note_on,0,0,1,,,,,,,,,0,,,68,46
67440,note_off,120,0,1,,,,,,,,,0,,,68,0
67440,note_on,0,0,1,,,,,,,,,0,,,65,45
67560,note_off,120,0,1,,,,,,,,,0,,,65,0
67560,note_on,0,0,1,,,,,,,,,0,,,61,45
67680,note_off,480,0,3,,,,,,,,,2,,,53,0
67680,note_off,120,0,1,,,,,,,,,0,,,61,0
67680,note_on,0,0,1,,,,,,,,,0,,,56,44
67680,note_off,480,0,4,,,,,,,,,3,,,49,0
67800,note_off,120,0,1,,,,,,,,,0,,,56,0
67800,note_on,0,0,1,,,,,,,,,0,,,61,44
67920,note_off,120,0,1,,,,,,,,,0,,,61,0
67920,note_on,0,0,1,,,,,,,,,0,,,56,43
68040,note_on,0,0,1,,,,,,,,,0,,,53,43
68040,note_off,120,0,1,,,,,,,,,0,,,56,0
68160,note_on,480,0,4,,,,,,,,,3,,,42,42
68160,note_off,120,0,1,,,,,,,,,0,,,53,0
68280,note_off,120,0,4,,,,,,,,,3,,,42,0
68280,note_on,0,0,4,,,,,,,,,3,,,44,42
68400,note_off,120,0,4,,,,,,,,,3,,,44,0
68400,note_on,0,0,4,,,,,,,,,3,,,42,42
68520,note_off,120,0,4,,,,,,,,,3,,,42,0
68520,note_on,0,0,4,,,,,,,,,3,,,41,42
68640,note_on,0,0,2,,,,,,,,,1,,,56,40
68640,note_on,0,0,2,,,,,,,,,1,,,63,40
68640,note_on,4320,0,2,,,,,,,,,1,,,60,40
68640,note_on,480,0,1,,,,,,,,,0,,,66,40
68640,note_on,0,0,4,,,,,,,,,3,,,42,42
68640,note_off,120,0,4,,,,,,,,,3,,,41,0
68760,note_on,0,0,4,,,,,,,,,3,,,44,43
68760,note_off,120,0,4,,,,,,,,,3,,,42,0
68880,note_on,0,0,4,,,,,,,,,3,,,46,43
68880,note_off,120,0,4,,,,,,,,,3,,,44,0
69000,note_on,0,0,4,,,,,,,,,3,,,48,43
69000,note_off,120,0,4,,,,,,,,,3,,,46,0
69120,note_off,0,0,2,,,,,,,,,1,,,63,0
69120,note_off,480,0,2,,,,,,,,,1,,,56,0
69120,note_off,0,0,2,,,,,,,,,1,,,60,0
69120,note_off,480,0,1,,,,,,,,,0,,,66,0
69120,note_off,120,0,4,,,,,,,,,3,,,48,0
69120,note_on,0,0,4,,,,,,,,,3,,,49,43
69240,note_on,0,0,4,,,,,,,,,3,,,51,43
69240,note_off,120,0,4,,,,,,,,,3,,,49,0
69360,note_off,120,0,4,,,,,,,,,3,,,51,0
69360,note_on,0,0,4,,,,,,,,,3,,,53,44
69480,note_off,120,0,4,,,,,,,,,3,,,53,0
69480,note_on,0,0,4,,,,,,,,,3,,,54,44
69600,note_on,480,0,1,,,,,,,,,0,,,66,43
69600,note_on,480,0,2,,,,,,,,,1,,,63,43
69600,note_off,120,0,4,,,,,,,,,3,,,54,0
69600,note_on,0,0,2,,,,,,,,,1,,,60,43
69600,note_on,0,0,4,,,,,,,,,3,,,56,44
69720,note_on,0,0,4,,,,,,,,,3,,,54,44
69720,note_off,120,0,4,,,,,,,,,3,,,56,0
69840,note_off,120,0,4,,,,,,,,,3,,,54,0
69840,note_on,0,0,4,,,,,,,,,3,,,53,44
69960,note_on,0,0,4,,,,,,,,,3,,,51,45
69960,note_off,120,0,4,,,,,,,,,3,,,53,0
70080,note_off,0,0,2,,,,,,,,,1,,,63,0
70080,note_off,480,0,2,,,,,,,,,1,,,60,0
70080,note_off,480,0,1,,,,,,,,,0,,,66,0
70080,note_off,120,0,4,,,,,,,,,3,,,51,0
70080,note_on,0,0,4,,,,,,,,,3,,,49,45
70200,note_off,120,0,4,,,,,,,,,3,,,49,0
70200,note_on,0,0,4,,,,,,,,,3,,,48,45
70320,note_on,0,0,4,,,,,,,,,3,,,46,45
70320,note_off,120,0,4,,,,,,,,,3,,,48,0
70440,note_off,120,0,4,,,,,,,,,3,,,46,0
70440,note_on,0,0,4,,,,,,,,,3,,,44,45
70560,note_on,480,0,1,,,,,,,,,0,,,68,47
70560,note_on,0,0,4,,,,,,,,,3,,,46,46
70560,note_off,120,0,4,,,,,,,,,3,,,44,0
70560,note_on,0,0,2,,,,,,,,,1,,,60,47
70560,note_on,0,0,2,,,,,,,,,1,,,63,47
70560,note_on,480,0,2,,,,,,,,,1,,,66,47
70680,note_on,0,0,4,,,,,,,,,3,,,44,46
70680,note_off,120,0,4,,,,,,,,,3,,,46,0
70800,note_off,120,0,4,,,,,,,,,3,,,44,0
70800,note_on,0,0,4,,,,,,,,,3,,,46,46
70920,note_off,120,0,4,,,,,,,,,3,,,46,0
70920,note_on,0,0,4,,,,,,,,,3,,,48,46
71040,note_off,480,0,1,,,,,,,,,0,,,68,0
71040,note_off,120,0,4,,,,,,,,,3,,,48,0
71040,note_on,0,0,4,,,,,,,,,3,,,49,46
71040,note_off,0,0,2,,,,,,,,,1,,,63,0
71040,note_off,0,0,2,,,,,,,,,1,,,66,0
71040,note_off,480,0,2,,,,,,,,,1,,,60,0
71160,note_on,0,0,4,,,,,,,,,3,,,51,48
71160,note_off,120,0,4,,,,,,,,,3,,,49,0
71280,note_on,0,0,4,,,,,,,,,3,,,53,50
71280,note_off,120,0,4,,,,,,,,,3,,,51,0
71400,note_on,0,0,4,,,,,,,,,3,,,54,52
71400,note_off,120,0,4,,,,,,,,,3,,,53,0
71520,note_on,0,0,4,,,,,,,,,3,,,56,55
71520,note_off,120,0,4,,,,,,,,,3,,,54,0
71520,note_on,480,0,2,,,,,,,,,1,,,65,51
71520,note_on,0,0,2,,,,,,,,,1,,,61,51
71520,note_on,0,0,2,,,,,,,,,1,,,59,51
71520,note_on,480,0,1,,,,,,,,,0,,,68,51
71640,note_off,120,0,4,,,,,,,,,3,,,56,0
71640,note_on,0,0,4,,,,,,,,,3,,,54,57
71760,note_off,120,0,4,,,,,,,,,3,,,54,0
71760,note_on,0,0,4,,,,,,,,,3,,,53,59
71880,note_off,120,0,4,,,,,,,,,3,,,53,0
71880,note_on,0,0,4,,,,,,,,,3,,,54,61
71880,set_tempo,7560,1,0,,,,,,517241,,,,,,,
72000,note_on,0,0,4,,,,,,,,,3,,,56,63
72000,note_off,120,0,4,,,,,,,,,3,,,54,0
72000,note_off,0,0,2,,,,,,,,,1,,,61,0
72000,note_off,480,0,2,,,,,,,,,1,,,59,0
72000,note_off,0,0,2,,,,,,,,,1,,,65,0
72000,note_off,480,0,1,,,,,,,,,0,,,68,0
72120,note_on,0,0,4,,,,,,,,,3,,,54,60
72120,note_off,120,0,4,,,,,,,,,3,,,56,0
72240,note_off,120,0,4,,,,,,,,,3,,,54,0
72240,note_on,0,0,4,,,,,,,,,3,,,53,57
72360,note_on,0,0,4,,,,,,,,,3,,,51,55
72360,note_off,120,0,4,,,,,,,,,3,,,53,0
72360,set_tempo,480,1,0,,,,,,526315,,,,,,,
72480,set_tempo,120,1,0,,,,,,508474,,,,,,,
72480,note_on,0,0,4,,,,,,,,,3,,,49,52
72480,note_off,120,0,4,,,,,,,,,3,,,51,0
72480,note_on,480,0,1,,,,,,,,,0,,,70,44
72600,note_on,0,0,4,,,,,,,,,3,,,47,49
72600,note_off,120,0,4,,,,,,,,,3,,,49,0
72720,note_on,0,0,4,,,,,,,,,3,,,46,47
72720,note_off,120,0,4,,,,,,,,,3,,,47,0
72840,note_on,0,0,4,,,,,,,,,3,,,44,44
72840,note_on,0,0,1,,,,,,,,,0,,,71,44
72840,note_off,360,0,1,,,,,,,,,0,,,70,0
72840,note_off,120,0,4,,,,,,,,,3,,,46,0
72900,set_tempo,420,1,0,,,,,,517241,,,,,,,
72960,note_off,120,0,4,,,,,,,,,3,,,44,0
72960,note_on,0,0,4,,,,,,,,,3,,,42,41
72960,set_tempo,60,1,0,,,,,,500000,,,,,,,
72960,note_on,0,0,1,,,,,,,,,0,,,73,46
72960,note_off,120,0,1,,,,,,,,,0,,,71,0
73200,note_on,5520,0,3,,,,,,,,,2,,,54,41
73440,note_on,0,0,1,,,,,,,,,0,,,66,42
73440,note_on,240,0,3,,,,,,,,,2,,,58,41
73440,note_off,480,0,1,,,,,,,,,0,,,73,0
73440,note_on,1440,0,2,,,,,,,,,1,,,61,42
73664,note_off,224,0,3,,,,,,,,,2,,,54,0
73680,note_on,16,0,3,,,,,,,,,2,,,54,42
73904,note_off,224,0,3,,,,,,,,,2,,,58,0
73920,note_on,16,0,3,,,,,,,,,2,,,59,43
73920,note_on,0,0,1,,,,,,,,,0,,,65,45
73920,note_off,480,0,1,,,,,,,,,0,,,66,0
73920,note_off,480,0,2,,,,,,,,,1,,,61,0
73920,note_on,0,0,2,,,,,,,,,1,,,61,45
74144,note_off,224,0,3,,,,,,,,,2,,,54,0
74160,note_on,16,0,3,,,,,,,,,2,,,54,44
74384,note_off,224,0,3,,,,,,,,,2,,,59,0
74400,note_on,16,0,3,,,,,,,,,2,,,58,44
74400,note_off,480,0,2,,,,,,,,,1,,,61,0
74400,note_off,480,0,1,,,,,,,,,0,,,65,0
74400,note_on,0,0,1,,,,,,,,,0,,,66,48
74400,note_on,0,0,2,,,,,,,,,1,,,61,48
74624,note_off,224,0,3,,,,,,,,,2,,,54,0
74640,note_on,16,0,3,,,,,,,,,2,,,54,45
74760,set_tempo,1800,1,0,,,,,,508474,,,,,,,
74864,note_off,224,0,3,,,,,,,,,2,,,58,0
74880,note_on,0,0,3,,,,,,,,,2,,,56,47
74880,note_off,16,0,3,,,,,,,,,2,,,54,0
74880,note_on,0,0,4,,,,,,,,,3,,,37,36
74880,note_on,0,0,2,,,,,,,,,1,,,65,51
74880,note_on,0,0,2,,,,,,,,,1,,,61,51
74880,note_on,0,0,2,,,,,,,,,1,,,59,51
74880,note_off,480,0,2,,,,,,,,,1,,,61,0
74880,note_off,480,0,1,,,,,,,,,0,,,66,0
74880,set_tempo,120,1,0,,,,,,500000,,,,,,,
74880,note_off,1920,0,4,,,,,,,,,3,,,42,0
74880,note_on,0,0,1,,,,,,,,,0,,,71,51
75120,note_on,240,0,3,,,,,,,,,2,,,49,44
75344,note_off,224,0,3,,,,,,,,,2,,,56,0
75360,note_on,16,0,3,,,,,,,,,2,,,56,43
75584,note_off,224,0,3,,,,,,,,,2,,,49,0
75600,note_on,16,0,3,,,,,,,,,2,,,49,42
75824,note_off,224,0,3,,,,,,,,,2,,,56,0
75840,note_on,16,0,3,,,,,,,,,2,,,56,41
76064,note_off,224,0,3,,,,,,,,,2,,,49,0
76080,note_on,16,0,3,,,,,,,,,2,,,49,39
76304,note_off,224,0,3,,,,,,,,,2,,,56,0
76320,note_on,0,0,2,,,,,,,,,1,,,61,44
76320,note_on,0,0,2,,,,,,,,,1,,,56,44
76320,note_on,16,0,3,,,,,,,,,2,,,53,38
76320,note_off,0,0,2,,,,,,,,,1,,,59,0
76320,note_off,0,0,2,,,,,,,,,1,,,61,0
76320,note_on,0,0,1,,,,,,,,,0,,,68,44
76320,note_off,1440,0,1,,,,,,,,,0,,,71,0
76320,note_off,1440,0,2,,,,,,,,,1,,,65,0
76544,note_off,224,0,3,,,,,,,,,2,,,49,0
76560,note_on,16,0,3,,,,,,,,,2,,,49,37
76800,note_off,0,0,3,,,,,,,,,2,,,53,0
76800,note_on,0,0,2,,,,,,,,,1,,,61,44
76800,note_on,0,0,2,,,,,,,,,1,,,58,44
76800,note_off,480,0,2,,,,,,,,,1,,,61,0
76800,note_on,0,0,4,,,,,,,,,3,,,42,38
76800,note_off,0,0,2,,,,,,,,,1,,,56,0
76800,note_off,240,0,3,,,,,,,,,2,,,49,0
76800,note_off,480,0,1,,,,,,,,,0,,,68,0
76800,note_on,0,0,1,,,,,,,,,0,,,70,44
76800,note_off,1920,0,4,,,,,,,,,3,,,37,0
77040,note_on,240,0,3,,,,,,,,,2,,,54,39
77280,note_on,480,0,4,,,,,,,,,3,,,47,41
77280,note_on,0,0,2,,,,,,,,,1,,,63,46
77280,note_off,480,0,2,,,,,,,,,1,,,58,0
77280,note_off,480,0,1,,,,,,,,,0,,,70,0
77280,note_on,0,0,1,,,,,,,,,0,,,75,46
77280,note_off,0,0,2,,,,,,,,,1,,,61,0
77504,note_off,464,0,3,,,,,,,,,2,,,54,0
77520,note_on,16,0,3,,,,,,,,,2,,,54,43
77760,note_off,480,0,1,,,,,,,,,0,,,75,0
77760,note_on,0,0,1,,,,,,,,,0,,,73,49
77760,note_off,480,0,2,,,,,,,,,1,,,63,0
77760,note_on,0,0,2,,,,,,,,,1,,,61,49
77760,note_on,480,0,4,,,,,,,,,3,,,46,45
77776,note_off,16,0,4,,,,,,,,,3,,,47,0
77984,note_off,464,0,3,,,,,,,,,2,,,54,0
78000,note_on,16,0,3,,,,,,,,,2,,,54,47
78240,note_off,464,0,4,,,,,,,,,3,,,42,0
78240,note_off,480,0,1,,,,,,,,,0,,,73,0
78240,note_on,0,0,1,,,,,,,,,0,,,78,51
78240,note_off,480,0,2,,,,,,,,,1,,,61,0
78240,note_on,0,0,2,,,,,,,,,1,,,66,51
78240,note_on,0,0,4,,,,,,,,,3,,,42,49
78256,note_off,16,0,4,,,,,,,,,3,,,46,0
78464,note_off,464,0,3,,,,,,,,,2,,,54,0
78480,note_on,16,0,3,,,,,,,,,2,,,54,51
78660,set_tempo,3780,1,0,,,,,,504201,,,,,,,
78704,note_off,448,0,4,,,,,,,,,3,,,42,0
78720,note_on,240,0,3,,,,,,,,,2,,,49,55
78720,note_off,480,0,2,,,,,,,,,1,,,66,0
78720,note_off,480,0,1,,,,,,,,,0,,,78,0
78720,note_on,0,0,1,,,,,,,,,0,,,77,55
78720,note_on,0,0,2,,,,,,,,,1,,,65,55
78720,note_on,16,0,4,,,,,,,,,3,,,42,55
78951,note_off,231,0,3,,,,,,,,,2,,,54,0
78960,note_on,9,0,3,,,,,,,,,2,,,54,53
79184,note_off,464,0,4,,,,,,,,,3,,,42,0
79184,note_off,224,0,3,,,,,,,,,2,,,49,0
79200,note_off,480,0,2,,,,,,,,,1,,,65,0
79200,note_on,16,0,4,,,,,,,,,3,,,42,51
79200,note_off,480,0,1,,,,,,,,,0,,,77,0
79200,note_on,0,0,1,,,,,,,,,0,,,75,51
79200,note_on,16,0,3,,,,,,,,,2,,,47,51
79200,note_on,0,0,2,,,,,,,,,1,,,63,51
79392,note_off,192,0,3,,,,,,,,,2,,,54,0
79440,note_on,48,0,3,,,,,,,,,2,,,54,48
79664,note_off,464,0,4,,,,,,,,,3,,,42,0
79664,note_off,224,0,3,,,,,,,,,2,,,47,0
79680,note_on,16,0,3,,,,,,,,,2,,,46,46
79680,note_on,16,0,4,,,,,,,,,3,,,42,46
79680,note_off,480,0,2,,,,,,,,,1,,,63,0
79680,note_off,480,0,1,,,,,,,,,0,,,75,0
79680,note_on,0,0,1,,,,,,,,,0,,,73,46
79680,note_on,0,0,2,,,,,,,,,1,,,61,46
79872,note_off,192,0,3,,,,,,,,,2,,,54,0
79920,note_on,48,0,3,,,,,,,,,2,,,54,44
80040,set_tempo,1380,1,0,,,,,,517241,,,,,,,
80144,note_off,224,0,3,,,,,,,,,2,,,46,0
80144,note_off,464,0,4,,,,,,,,,3,,,42,0
80160,note_off,480,0,1,,,,,,,,,0,,,73,0
80160,note_on,0,0,1,,,,,,,,,0,,,70,42
80160,note_off,16,0,3,,,,,,,,,2,,,54,0
80160,set_tempo,120,1,0,,,,,,500000,,,,,,,
80160,note_off,480,0,2,,,,,,,,,1,,,61,0
80280,note_off,120,0,1,,,,,,,,,0,,,70,0
80280,note_on,0,0,1,,,,,,,,,0,,,71,42
80400,note_off,120,0,1,,,,,,,,,0,,,71,0
80400,note_on,0,0,1,,,,,,,,,0,,,70,43
80520,note_on,0,0,1,,,,,,,,,0,,,66,43
80520,note_off,120,0,1,,,,,,,,,0,,,70,0
80640,note_on,0,0,1,,,,,,,,,0,,,71,43
80640,note_off,120,0,1,,,,,,,,,0,,,66,0
80760,note_off,120,0,1,,,,,,,,,0,,,71,0
80760,note_on,0,0,1,,,,,,,,,0,,,73,44
80880,note_off,120,0,1,,,,,,,,,0,,,73,0
80880,note_on,0,0,1,,,,,,,,,0,,,71,44
81000,note_on,0,0,1,,,,,,,,,0,,,68,44
81000,note_off,120,0,1,,,,,,,,,0,,,71,0
81120,note_on,976,0,4,,,,,,,,,3,,,49,40
81120,note_off,120,0,1,,,,,,,,,0,,,68,0
81120,note_on,0,0,1,,,,,,,,,0,,,65,45
81240,note_off,120,0,4,,,,,,,,,3,,,49,0
81240,note_on,0,0,4,,,,,,,,,3,,,53,40
81360,note_on,0,0,4,,,,,,,,,3,,,56,41
81360,note_off,120,0,4,,,,,,,,,3,,,53,0
81480,note_on,0,0,4,,,,,,,,,3,,,59,41
81480,note_off,120,0,4,,,,,,,,,3,,,56,0
81600,note_on,0,0,4,,,,,,,,,3,,,47,41
81600,note_off,120,0,4,,,,,,,,,3,,,59,0
81600,note_off,480,0,1,,,,,,,,,0,,,65,0
81960,set_tempo,1800,1,0,,,,,,508474,,,,,,,
82080,set_tempo,120,1,0,,,,,,500000,,,,,,,
82080,note_off,480,0,4,,,,,,,,,3,,,47,0
82080,note_on,480,0,1,,,,,,,,,0,,,71,47
82200,note_on,0,0,1,,,,,,,,,0,,,73,48
82200,note_off,120,0,1,,,,,,,,,0,,,71,0
82320,note_on,0,0,1,,,,,,,,,0,,,71,48
82320,note_off,120,0,1,,,,,,,,,0,,,73,0
82440,note_off,120,0,1,,,,,,,,,0,,,71,0
82440,note_on,0,0,1,,,,,,,,,0,,,68,48
82560,note_off,120,0,1,,,,,,,,,0,,,68,0
82560,note_on,0,0,1,,,,,,,,,0,,,73,49
82680,note_on,0,0,1,,,,,,,,,0,,,75,49
82680,note_off,120,0,1,,,,,,,,,0,,,73,0
82800,note_off,120,0,1,,,,,,,,,0,,,75,0
82800,note_on,0,0,1,,,,,,,,,0,,,73,49
82920,note_on,0,0,1,,,,,,,,,0,,,70,50
82920,note_off,120,0,1,,,,,,,,,0,,,73,0
83040,note_on,960,0,4,,,,,,,,,3,,,46,45
83040,note_on,0,0,1,,,,,,,,,0,,,66,50
83040,note_off,120,0,1,,,,,,,,,0,,,70,0
83160,note_off,120,0,4,,,,,,,,,3,,,46,0
83160,note_on,0,0,4,,,,,,,,,3,,,49,45
83280,note_off,120,0,4,,,,,,,,,3,,,49,0
83280,note_on,0,0,4,,,,,,,,,3,,,54,46
83400,note_off,120,0,4,,,,,,,,,3,,,54,0
83400,note_on,0,0,4,,,,,,,,,3,,,58,46
83520,note_off,480,0,1,,,,,,,,,0,,,66,0
83520,note_off,120,0,4,,,,,,,,,3,,,58,0
83520,note_on,0,0,4,,,,,,,,,3,,,46,46
83880,set_tempo,1800,1,0,,,,,,508474,,,,,,,
84000,note_off,480,0,4,,,,,,,,,3,,,46,0
84000,note_on,480,0,1,,,,,,,,,0,,,78,53
84000,note_on,0,0,4,,,,,,,,,3,,,42,48
84000,set_tempo,120,1,0,,,,,,500000,,,,,,,
84160,note_off,160,0,1,,,,,,,,,0,,,78,0
84160,note_off,160,0,4,,,,,,,,,3,,,42,0
84160,note_on,0,0,4,,,,,,,,,3,,,44,48
84160,note_on,0,0,1,,,,,,,,,0,,,77,53
84320,note_off,160,0,4,,,,,,,,,3,,,44,0
84320,note_on,0,0,4,,,,,,,,,3,,,46,49
84320,note_on,0,0,1,,,,,,,,,0,,,75,54
84320,note_off,160,0,1,,,,,,,,,0,,,77,0
84480,note_on,0,0,1,,,,,,,,,0,,,73,54
84480,note_off,160,0,4,,,,,,,,,3,,,46,0
84480,note_on,0,0,4,,,,,,,,,3,,,47,49
84480,note_off,160,0,1,,,,,,,,,0,,,75,0
84640,note_off,160,0,1,,,,,,,,,0,,,73,0
84640,note_on,0,0,1,,,,,,,,,0,,,71,55
84800,note_off,160,0,1,,,,,,,,,0,,,71,0
84800,note_on,0,0,1,,,,,,,,,0,,,70,55
84960,note_off,160,0,1,,,,,,,,,0,,,70,0
84960,note_on,0,0,1,,,,,,,,,0,,,68,56
85120,note_off,160,0,1,,,,,,,,,0,,,68,0
85120,note_on,0,0,1,,,,,,,,,0,,,66,56
85280,note_on,0,0,1,,,,,,,,,0,,,65,57
85280,note_off,160,0,1,,,,,,,,,0,,,66,0
85440,note_on,0,0,4,,,,,,,,,3,,,49,51
85440,note_on,0,0,1,,,,,,,,,0,,,63,57
85440,note_off,960,0,4,,,,,,,,,3,,,47,0
85440,note_off,160,0,1,,,,,,,,,0,,,65,0
85600,note_off,160,0,1,,,,,,,,,0,,,63,0
85600,note_on,0,0,1,,,,,,,,,0,,,61,57
85760,note_off,160,0,1,,,,,,,,,0,,,61,0
85760,note_on,0,0,1,,,,,,,,,0,,,60,58
85920,note_on,480,0,4,,,,,,,,,3,,,59,55
85920,note_off,160,0,1,,,,,,,,,0,,,60,0
85920,note_on,0,0,1,,,,,,,,,0,,,61,58
86080,note_on,0,0,1,,,,,,,,,0,,,63,59
86080,note_off,160,0,1,,,,,,,,,0,,,61,0
86240,note_off,160,0,1,,,,,,,,,0,,,63,0
86240,note_on,0,0,1,,,,,,,,,0,,,65,59
86400,note_off,160,0,1,,,,,,,,,0,,,65,0
86400,note_on,0,0,1,,,,,,,,,0,,,66,53
86400,note_on,0,0,3,,,,,,,,,2,,,61,53
86400,note_on,6240,0,3,,,,,,,,,2,,,58,51
86400,note_on,0,0,4,,,,,,,,,3,,,54,51
86400,note_off,480,0,4,,,,,,,,,3,,,59,0
86400,note_off,0,0,4,,,,,,,,,3,,,49,0
86880,note_on,0,0,3,,,,,,,,,2,,,61,49
86880,note_off,480,0,3,,,,,,,,,2,,,61,0
86880,note_off,0,0,3,,,,,,,,,2,,,58,0
86880,note_on,0,0,1,,,,,,,,,0,,,68,49
86880,note_on,0,0,4,,,,,,,,,3,,,49,46
86880,note_off,480,0,1,,,,,,,,,0,,,66,0
86880,note_on,0,0,3,,,,,,,,,2,,,56,46
86880,note_off,480,0,4,,,,,,,,,3,,,54,0
86880,note_on,0,0,3,,,,,,,,,2,,,65,49
87360,note_off,480,0,3,,,,,,,,,2,,,61,0
87360,note_off,0,0,3,,,,,,,,,2,,,65,0
87360,note_off,0,0,3,,,,,,,,,2,,,56,0
87360,note_on,0,0,3,,,,,,,,,2,,,54,41
87360,note_on,0,0,3,,,,,,,,,2,,,66,45
87360,note_on,0,0,3,,,,,,,,,2,,,61,45
87360,note_on,0,0,1,,,,,,,,,0,,,70,45
87360,note_off,480,0,1,,,,,,,,,0,,,68,0
87360,note_off,480,0,4,,,,,,,,,3,,,49,0
87360,note_on,0,0,4,,,,,,,,,3,,,42,41
87840,note_off,480,0,1,,,,,,,,,0,,,70,0
87840,note_off,480,0,3,,,,,,,,,2,,,61,0
87840,note_off,0,0,3,,,,,,,,,2,,,54,0
87840,note_off,0,0,3,,,,,,,,,2,,,66,0
87840,note_off,480,0,4,,,,,,,,,3,,,42,0
88200,set_tempo,4200,1,0,,,,,,508474,,,,,,,
88320,note_on,0,0,3,,,,,,,,,2,,,66,44
88320,note_on,0,0,3,,,,,,,,,2,,,61,44
88320,set_tempo,120,1,0,,,,,,500000,,,,,,,
88320,note_on,480,0,1,,,,,,,,,0,,,70,44
88320,note_on,480,0,3,,,,,,,,,2,,,58,40
88320,note_on,480,0,4,,,,,,,,,3,,,54,40
88800,note_off,480,0,3,,,,,,,,,2,,,61,0
88800,note_off,0,0,3,,,,,,,,,2,,,66,0
88800,note_off,0,0,3,,,,,,,,,2,,,58,0
88800,note_off,480,0,4,,,,,,,,,3,,,54,0
88800,note_off,480,0,1,,,,,,,,,0,,,70,0
89280,note_on,480,0,3,,,,,,,,,2,,,56,44
89280,note_on,0,0,3,,,,,,,,,2,,,63,47
89280,note_on,0,0,3,,,,,,,,,2,,,68,47
89280,note_on,480,0,4,,,,,,,,,3,,,47,44
89280,note_on,480,0,1,,,,,,,,,0,,,71,47
89760,note_off,0,0,3,,,,,,,,,2,,,56,0
89760,note_off,480,0,4,,,,,,,,,3,,,47,0
89760,note_off,0,0,3,,,,,,,,,2,,,63,0
89760,note_off,480,0,3,,,,,,,,,2,,,68,0
89760,note_off,480,0,1,,,,,,,,,0,,,71,0
90240,note_on,480,0,4,,,,,,,,,3,,,49,48
90240,note_on,0,0,3,,,,,,,,,2,,,65,51
90240,note_on,480,0,1,,,,,,,,,0,,,68,51
90240,note_on,480,0,3,,,,,,,,,2,,,61,51
90720,note_on,0,0,3,,,,,,,,,2,,,61,49
90720,note_off,0,0,3,,,,,,,,,2,,,61,0
90720,note_off,480,0,4,,,,,,,,,3,,,49,0
90720,note_on,0,0,3,,,,,,,,,2,,,66,49
90720,note_on,0,0,4,,,,,,,,,3,,,42,46
90720,note_off,480,0,3,,,,,,,,,2,,,65,0
90720,note_on,0,0,1,,,,,,,,,0,,,70,49
90720,note_off,480,0,1,,,,,,,,,0,,,68,0
91200,note_on,0,0,1,,,,,,,,,0,,,71,45
91200,note_on,0,0,4,,,,,,,,,3,,,37,42
91200,note_off,480,0,4,,,,,,,,,3,,,42,0
91200,note_off,480,0,3,,,,,,,,,2,,,66,0
91200,note_off,0,0,3,,,,,,,,,2,,,61,0
91200,note_on,0,0,3,,,,,,,,,2,,,61,45
91200,note_on,0,0,3,,,,,,,,,2,,,68,45
91200,note_off,480,0,1,,,,,,,,,0,,,70,0
91680,note_off,480,0,4,,,,,,,,,3,,,37,0
91680,note_off,480,0,3,,,,,,,,,2,,,68,0
91680,note_off,480,0,1,,,,,,,,,0,,,71,0
91680,note_off,0,0,3,,,,,,,,,2,,,61,0
92040,set_tempo,3720,1,0,,,,,,508474,,,,,,,
92160,note_on,480,0,3,,,,,,,,,2,,,56,44
92160,note_on,0,0,3,,,,,,,,,2,,,59,44
92160,note_on,480,0,1,,,,,,,,,0,,,71,47
92160,note_on,0,0,3,,,,,,,,,2,,,68,47
92160,note_on,480,0,4,,,,,,,,,3,,,53,44
92160,set_tempo,120,1,0,,,,,,500000,,,,,,,
92160,note_on,0,0,3,,,,,,,,,2,,,61,47
92640,note_off,0,0,3,,,,,,,,,2,,,56,0
92640,note_off,0,0,3,,,,,,,,,2,,,59,0
92640,note_off,0,0,3,,,,,,,,,2,,,68,0
92640,note_off,480,0,1,,,,,,,,,0,,,71,0
92640,note_off,480,0,3,,,,,,,,,2,,,61,0
92640,note_off,480,0,4,,,,,,,,,3,,,53,0
93120,note_on,480,0,3,,,,,,,,,2,,,56,47
93120,note_on,0,0,3,,,,,,,,,2,,,59,47
93120,note_on,0,0,3,,,,,,,,,2,,,53,47
93120,note_on,0,0,3,,,,,,,,,2,,,65,50
93120,note_on,480,0,1,,,,,,,,,0,,,73,50
93120,note_on,480,0,4,,,,,,,,,3,,,49,47
93120,note_on,0,0,3,,,,,,,,,2,,,61,50
93120,note_on,0,0,3,,,,,,,,,2,,,68,50
93600,note_off,0,0,3,,,,,,,,,2,,,59,0
93600,note_off,480,0,4,,,,,,,,,3,,,49,0
93600,note_off,0,0,3,,,,,,,,,2,,,65,0
93600,note_off,0,0,3,,,,,,,,,2,,,68,0
93600,note_off,480,0,3,,,,,,,,,2,,,61,0
93600,note_off,480,0,1,,,,,,,,,0,,,73,0
93600,note_off,0,0,3,,,,,,,,,2,,,53,0
93600,note_off,0,0,3,,,,,,,,,2,,,56,0
94080,note_on,480,0,1,,,,,,,,,0,,,70,54
94080,note_on,0,0,3,,,,,,,,,2,,,61,54
94080,note_on,0,0,3,,,,,,,,,2,,,66,54
94080,note_on,480,0,4,,,,,,,,,3,,,54,50
94080,note_on,480,0,3,,,,,,,,,2,,,58,50
94560,note_off,480,0,3,,,,,,,,,2,,,66,0
94560,note_off,0,0,3,,,,,,,,,2,,,61,0
94560,note_off,0,0,3,,,,,,,,,2,,,58,0
94560,note_on,0,0,1,,,,,,,,,0,,,73,50
94560,note_off,480,0,1,,,,,,,,,0,,,70,0
94560,note_off,480,0,4,,,,,,,,,3,,,54,0
94680,note_on,0,0,1,,,,,,,,,0,,,75,54
94680,note_off,120,0,1,,,,,,,,,0,,,73,0
94800,note_on,0,0,1,,,,,,,,,0,,,73,57
94800,note_off,120,0,1,,,,,,,,,0,,,75,0
94920,note_on,0,0,1,,,,,,,,,0,,,70,60
94920,set_tempo,2760,1,0,,,,,,508474,,,,,,,
94920,note_off,120,0,1,,,,,,,,,0,,,73,0
95040,set_tempo,120,1,0,,,,,,500000,,,,,,,
95040,note_on,0,0,1,,,,,,,,,0,,,78,67
95040,note_off,120,0,1,,,,,,,,,0,,,70,0
95520,note_on,960,0,4,,,,,,,,,3,,,66,58
95520,note_on,960,0,3,,,,,,,,,2,,,70,58
96000,note_off,480,0,4,,,,,,,,,3,,,66,0
96000,note_off,480,0,3,,,,,,,,,2,,,70,0
96000,note_on,0,0,4,,,,,,,,,3,,,68,64
96000,note_on,0,0,3,,,,,,,,,2,,,71,64
96480,note_on,0,0,1,,,,,,,,,0,,,77,62
96480,note_off,1440,0,1,,,,,,,,,0,,,78,0
96600,note_on,0,0,1,,,,,,,,,0,,,78,63
96600,note_off,120,0,1,,,,,,,,,0,,,77,0
96640,note_off,40,0,1,,,,,,,,,0,,,78,0
96640,note_on,0,0,1,,,,,,,,,0,,,77,64
96680,note_on,0,0,1,,,,,,,,,0,,,75,64
96680,note_off,40,0,1,,,,,,,,,0,,,77,0
96720,note_off,40,0,1,,,,,,,,,0,,,75,0
96720,note_on,0,0,1,,,,,,,,,0,,,77,65
96840,set_tempo,1800,1,0,,,,,,508474,,,,,,,
96840,note_off,120,0,1,,,,,,,,,0,,,77,0
96840,note_on,0,0,1,,,,,,,,,0,,,78,66
96960,note_off,120,0,1,,,,,,,,,0,,,78,0
96960,note_on,0,0,1,,,,,,,,,0,,,80,68
97440,note_off,1440,0,3,,,,,,,,,2,,,71,0
97440,note_off,1440,0,4,,,,,,,,,3,,,68,0
97440,note_on,0,0,4,,,,,,,,,3,,,68,67
97440,note_on,0,0,3,,,,,,,,,2,,,71,67
97440,note_off,480,0,1,,,,,,,,,0,,,80,0
97440,note_on,0,0,1,,,,,,,,,0,,,77,60
97800,set_tempo,960,1,0,,,,,,526315,,,,,,,
97920,note_on,0,0,3,,,,,,,,,2,,,70,61
97920,note_on,0,0,1,,,,,,,,,0,,,74,55
97920,note_off,480,0,1,,,,,,,,,0,,,77,0
97920,note_off,480,0,3,,,,,,,,,2,,,71,0
97920,note_on,0,0,4,,,,,,,,,3,,,68,61
97920,set_tempo,120,1,0,,,,,,508474,,,,,,,
97920,note_off,480,0,4,,,,,,,,,3,,,68,0
98040,note_on,120,0,1,,,,,,,,,0,,,83,55
98160,note_off,120,0,1,,,,,,,,,0,,,83,0
98160,note_on,0,0,1,,,,,,,,,0,,,82,55
98280,note_on,0,0,1,,,,,,,,,0,,,74,55
98280,note_off,120,0,1,,,,,,,,,0,,,82,0
98280,note_off,0,0,1,,,,,,,,,0,,,74,0
98400,note_off,120,0,1,,,,,,,,,0,,,74,0
98400,note_on,0,0,1,,,,,,,,,0,,,74,55
98520,note_on,120,0,1,,,,,,,,,0,,,83,55
98640,note_off,120,0,1,,,,,,,,,0,,,83,0
98640,note_on,0,0,1,,,,,,,,,0,,,82,55
98760,note_on,0,0,1,,,,,,,,,0,,,74,54
98760,note_off,0,0,1,,,,,,,,,0,,,74,0
98760,note_off,120,0,1,,,,,,,,,0,,,82,0
98880,note_off,120,0,1,,,,,,,,,0,,,74,0
98880,note_on,0,0,1,,,,,,,,,0,,,74,54
98880,note_off,960,0,3,,,,,,,,,2,,,70,0
98880,note_off,960,0,4,,,,,,,,,3,,,68,0
98880,note_on,0,0,4,,,,,,,,,3,,,65,58
98880,note_on,0,0,3,,,,,,,,,2,,,68,58
99000,note_on,120,0,1,,,,,,,,,0,,,83,54
99120,note_on,0,0,1,,,,,,,,,0,,,82,54
99120,note_off,120,0,1,,,,,,,,,0,,,83,0
99240,note_off,120,0,1,,,,,,,,,0,,,82,0
99240,note_off,0,0,1,,,,,,,,,0,,,74,0
99240,note_on,0,0,1,,,,,,,,,0,,,74,54
99360,note_off,480,0,3,,,,,,,,,2,,,68,0
99360,note_off,480,0,4,,,,,,,,,3,,,65,0
99360,note_off,120,0,1,,,,,,,,,0,,,74,0
99360,note_on,0,0,4,,,,,,,,,3,,,58,58
99360,note_on,0,0,3,,,,,,,,,2,,,68,58
99360,note_on,0,0,1,,,,,,,,,0,,,74,54
99360,note_on,0,0,3,,,,,,,,,2,,,65,58
99480,note_on,120,0,1,,,,,,,,,0,,,83,54
99600,note_on,0,0,1,,,,,,,,,0,,,82,54
99600,note_off,120,0,1,,,,,,,,,0,,,83,0
99720,note_off,120,0,1,,,,,,,,,0,,,82,0
99720,note_on,0,0,1,,,,,,,,,0,,,74,53
99720,note_off,0,0,1,,,,,,,,,0,,,74,0
99840,note_on,0,0,3,,,,,,,,,2,,,66,57
99840,note_on,0,0,3,,,,,,,,,2,,,63,57
99840,note_off,0,0,3,,,,,,,,,2,,,68,0
99840,note_off,480,0,3,,,,,,,,,2,,,65,0
99840,note_on,0,0,1,,,,,,,,,0,,,75,53
99840,note_off,120,0,1,,,,,,,,,0,,,74,0
99840,note_off,480,0,4,,,,,,,,,3,,,58,0
99840,note_on,0,0,4,,,,,,,,,3,,,58,57
99960,note_on,120,0,1,,,,,,,,,0,,,83,53
100080,note_on,0,0,1,,,,,,,,,0,,,82,53
100080,note_off,120,0,1,,,,,,,,,0,,,83,0
100200,note_off,0,0,1,,,,,,,,,0,,,75,0
100200,note_off,120,0,1,,,,,,,,,0,,,82,0
100200,note_on,0,0,1,,,,,,,,,0,,,75,53
100320,note_on,0,0,3,,,,,,,,,2,,,62,57
100320,note_on,0,0,3,,,,,,,,,2,,,65,57
100320,note_off,0,0,3,,,,,,,,,2,,,63,0
100320,note_off,480,0,3,,,,,,,,,2,,,66,0
100320,note_off,120,0,1,,,,,,,,,0,,,75,0
100320,note_on,0,0,1,,,,,,,,,0,,,77,53
100320,note_off,480,0,4,,,,,,,,,3,,,58,0
100320,note_on,0,0,4,,,,,,,,,3,,,56,57
100440,note_on,120,0,1,,,,,,,,,0,,,83,53
100560,note_off,120,0,1,,,,,,,,,0,,,83,0
100560,note_on,0,0,1,,,,,,,,,0,,,82,53
100680,note_off,120,0,1,,,,,,,,,0,,,82,0
100680,note_off,0,0,1,,,,,,,,,0,,,77,0
100680,note_on,0,0,1,,,,,,,,,0,,,77,52
100800,note_on,0,0,4,,,,,,,,,3,,,54,56
100800,note_on,0,0,3,,,,,,,,,2,,,63,56
100800,note_off,480,0,3,,,,,,,,,2,,,62,0
100800,note_off,0,0,3,,,,,,,,,2,,,65,0
100800,note_off,480,0,4,,,,,,,,,3,,,56,0
100800,note_on,0,0,3,,,,,,,,,2,,,58,56
100800,note_on,0,0,1,,,,,,,,,0,,,78,52
100800,note_off,120,0,1,,,,,,,,,0,,,77,0
100920,note_on,120,0,1,,,,,,,,,0,,,83,52
101040,note_on,0,0,1,,,,,,,,,0,,,82,52
101040,note_off,120,0,1,,,,,,,,,0,,,83,0
101160,note_off,120,0,1,,,,,,,,,0,,,82,0
101160,note_off,0,0,1,,,,,,,,,0,,,78,0
101160,note_on,0,0,1,,,,,,,,,0,,,78,52
101220,set_tempo,3300,1,0,,,,,,517241,,,,,,,
101280,control_change,120,0,1,,,,,,,64,127,0,,,,
101280,note_off,0,0,1,,,,,,,,,0,,,78,0
101280,note_on,0,0,1,,,,,,,,,0,,,87,52
101280,note_on,0,0,4,,,,,,,,,3,,,54,56
101280,note_off,480,0,3,,,,,,,,,2,,,58,0
101280,note_off,480,0,4,,,,,,,,,3,,,54,0
101280,note_on,0,0,3,,,,,,,,,2,,,63,56
101280,note_off,0,0,3,,,,,,,,,2,,,63,0
101280,note_on,0,0,3,,,,,,,,,2,,,58,56
101400,note_off,120,0,1,,,,,,,,,0,,,87,0
101400,note_on,0,0,1,,,,,,,,,0,,,82,52
101520,note_off,120,0,1,,,,,,,,,0,,,82,0
101520,note_on,0,0,1,,,,,,,,,0,,,78,52
101640,set_tempo,420,1,0,,,,,,517241,,,,,,,
101640,note_off,120,0,1,,,,,,,,,0,,,78,0
101640,note_on,0,0,1,,,,,,,,,0,,,75,52
101760,note_off,0,0,1,,,,,,,,,0,,,75,0
101760,note_off,480,0,4,,,,,,,,,3,,,54,0
101760,note_on,0,0,4,,,,,,,,,3,,,54,64
101760,set_tempo,120,1,0,,,,,,500000,,,,,,,
101760,note_on,0,0,1,,,,,,,,,0,,,84,51
101760,note_on,0,0,3,,,,,,,,,2,,,57,64
101760,note_on,0,0,3,,,,,,,,,2,,,63,64
101760,note_off,480,0,3,,,,,,,,,2,,,58,0
101760,note_off,0,0,3,,,,,,,,,2,,,63,0
101760,control_change,120,0,1,,,,,,,64,0,0,,,,
101880,note_on,21720,0,2,,,,,,,,,1,,,78,51
102000,note_on,120,0,2,,,,,,,,,1,,,75,51
102120,note_off,360,0,1,,,,,,,,,0,,,84,0
102120,note_on,0,0,1,,,,,,,,,0,,,84,51
102240,note_off,240,0,2,,,,,,,,,1,,,75,0
102240,note_off,480,0,4,,,,,,,,,3,,,54,0
102240,note_on,0,0,4,,,,,,,,,3,,,54,55
102240,note_off,0,0,2,,,,,,,,,1,,,78,0
102240,note_off,0,0,3,,,,,,,,,2,,,63,0
102240,note_on,0,0,3,,,,,,,,,2,,,56,55
102240,note_off,120,0,1,,,,,,,,,0,,,84,0
102240,note_off,480,0,3,,,,,,,,,2,,,57,0
102240,note_on,0,0,1,,,,,,,,,0,,,87,51
102240,note_on,0,0,3,,,,,,,,,2,,,63,55
102360,note_on,120,0,2,,,,,,,,,1,,,78,51
102480,note_on,120,0,2,,,,,,,,,1,,,75,51
102600,note_on,0,0,1,,,,,,,,,0,,,85,51
102600,note_off,360,0,1,,,,,,,,,0,,,87,0
102720,note_off,0,0,2,,,,,,,,,1,,,78,0
102720,note_off,240,0,2,,,,,,,,,1,,,75,0
102720,note_off,480,0,3,,,,,,,,,2,,,63,0
102720,note_on,0,0,4,,,,,,,,,3,,,54,62
102720,note_off,120,0,1,,,,,,,,,0,,,85,0
102720,note_on,0,0,1,,,,,,,,,0,,,84,50
102720,note_off,0,0,3,,,,,,,,,2,,,56,0
102720,note_on,0,0,3,,,,,,,,,2,,,63,62
102720,note_on,0,0,3,,,,,,,,,2,,,57,62
102720,note_off,480,0,4,,,,,,,,,3,,,54,0
102840,note_on,120,0,2,,,,,,,,,1,,,78,50
102960,note_on,120,0,2,,,,,,,,,1,,,75,50
103080,note_off,360,0,1,,,,,,,,,0,,,84,0
103080,note_on,0,0,1,,,,,,,,,0,,,84,50
103200,note_on,0,0,3,,,,,,,,,2,,,56,54
103200,note_on,0,0,3,,,,,,,,,2,,,63,54
103200,note_off,0,0,3,,,,,,,,,2,,,63,0
103200,note_off,480,0,3,,,,,,,,,2,,,57,0
103200,note_off,0,0,2,,,,,,,,,1,,,78,0
103200,note_off,240,0,2,,,,,,,,,1,,,75,0
103200,note_off,480,0,4,,,,,,,,,3,,,54,0
103200,note_on,0,0,4,,,,,,,,,3,,,54,54
103200,note_on,0,0,1,,,,,,,,,0,,,87,50
103200,note_off,120,0,1,,,,,,,,,0,,,84,0
103320,note_on,120,0,2,,,,,,,,,1,,,78,50
103440,note_on,120,0,2,,,,,,,,,1,,,75,50
103560,note_on,0,0,1,,,,,,,,,0,,,85,50
103560,note_off,360,0,1,,,,,,,,,0,,,87,0
103680,note_off,120,0,1,,,,,,,,,0,,,85,0
103680,note_off,480,0,3,,,,,,,,,2,,,56,0
103680,note_off,0,0,3,,,,,,,,,2,,,63,0
103680,note_on,0,0,3,,,,,,,,,2,,,57,59
103680,note_on,0,0,3,,,,,,,,,2,,,63,59
103680,note_off,480,0,4,,,,,,,,,3,,,54,0
103680,note_on,0,0,4,,,,,,,,,3,,,54,59
103680,note_off,0,0,2,,,,,,,,,1,,,78,0
103680,note_off,240,0,2,,,,,,,,,1,,,75,0
103680,note_on,0,0,1,,,,,,,,,0,,,84,49
103800,note_on,120,0,2,,,,,,,,,1,,,78,49
103920,note_on,120,0,2,,,,,,,,,1,,,75,49
104040,note_on,0,0,1,,,,,,,,,0,,,84,49
104040,note_off,360,0,1,,,,,,,,,0,,,84,0
104160,note_on,0,0,4,,,,,,,,,3,,,54,53
104160,note_on,0,0,3,,,,,,,,,2,,,63,53
104160,note_on,0,0,3,,,,,,,,,2,,,56,53
104160,note_off,480,0,4,,,,,,,,,3,,,54,0
104160,note_off,480,0,3,,,,,,,,,2,,,63,0
104160,note_off,0,0,2,,,,,,,,,1,,,78,0
104160,note_off,240,0,2,,,,,,,,,1,,,75,0
104160,note_off,120,0,1,,,,,,,,,0,,,84,0
104160,note_on,0,0,1,,,,,,,,,0,,,85,49
104160,note_off,0,0,3,,,,,,,,,2,,,57,0
104280,note_on,120,0,2,,,,,,,,,1,,,78,49
104400,note_on,120,0,2,,,,,,,,,1,,,75,49
104520,note_on,0,0,1,,,,,,,,,0,,,85,49
104520,note_off,360,0,1,,,,,,,,,0,,,85,0
104640,note_off,0,0,3,,,,,,,,,2,,,56,0
104640,note_off,480,0,3,,,,,,,,,2,,,63,0
104640,note_off,120,0,1,,,,,,,,,0,,,85,0
104640,note_on,0,0,1,,,,,,,,,0,,,80,48
104640,note_off,240,0,2,,,,,,,,,1,,,75,0
104640,note_off,0,0,2,,,,,,,,,1,,,78,0
104640,note_off,480,0,4,,,,,,,,,3,,,54,0
104760,note_on,120,0,2,,,,,,,,,1,,,78,48
104880,note_on,120,0,2,,,,,,,,,1,,,75,48
105000,note_on,0,0,1,,,,,,,,,0,,,80,48
105000,note_off,360,0,1,,,,,,,,,0,,,80,0
105120,note_on,480,0,4,,,,,,,,,3,,,54,52
105120,note_off,240,0,2,,,,,,,,,1,,,75,0
105120,note_off,0,0,2,,,,,,,,,1,,,78,0
105120,note_off,120,0,1,,,,,,,,,0,,,80,0
105120,note_on,0,0,1,,,,,,,,,0,,,82,48
105120,note_on,480,0,3,,,,,,,,,2,,,63,52
105120,note_on,0,0,3,,,,,,,,,2,,,58,52
105240,note_on,120,0,2,,,,,,,,,1,,,78,48
105360,note_on,120,0,2,,,,,,,,,1,,,75,48
105480,set_tempo,3720,1,0,,,,,,508474,,,,,,,
105480,note_on,0,0,1,,,,,,,,,0,,,82,48
105480,note_off,360,0,1,,,,,,,,,0,,,82,0
105600,note_off,0,0,3,,,,,,,,,2,,,63,0
105600,note_on,0,0,3,,,,,,,,,2,,,63,59
105600,note_on,0,0,3,,,,,,,,,2,,,57,59
105600,note_on,0,0,4,,,,,,,,,3,,,54,59
105600,set_tempo,120,1,0,,,,,,500000,,,,,,,
105600,note_on,0,0,1,,,,,,,,,0,,,84,47
105600,note_off,240,0,2,,,,,,,,,1,,,75,0
105600,note_off,0,0,2,,,,,,,,,1,,,78,0
105600,note_off,480,0,4,,,,,,,,,3,,,54,0
105600,note_off,120,0,1,,,,,,,,,0,,,82,0
105600,note_off,480,0,3,,,,,,,,,2,,,58,0
105720,note_on,120,0,2,,,,,,,,,1,,,78,47
105840,note_on,120,0,2,,,,,,,,,1,,,75,47
105960,note_off,360,0,1,,,,,,,,,0,,,84,0
105960,note_on,0,0,1,,,,,,,,,0,,,84,47
106080,note_on,0,0,1,,,,,,,,,0,,,87,47
106080,note_on,0,0,4,,,,,,,,,3,,,54,51
106080,note_off,480,0,3,,,,,,,,,2,,,57,0
106080,note_off,120,0,1,,,,,,,,,0,,,84,0
106080,note_on,0,0,3,,,,,,,,,2,,,63,51
106080,note_on,0,0,3,,,,,,,,,2,,,56,51
106080,note_off,0,0,2,,,,,,,,,1,,,78,0
106080,note_off,240,0,2,,,,,,,,,1,,,75,0
106080,note_off,0,0,3,,,,,,,,,2,,,63,0
106080,note_off,480,0,4,,,,,,,,,3,,,54,0
106200,note_on,120,0,2,,,,,,,,,1,,,78,47
106320,note_on,120,0,2,,,,,,,,,1,,,75,47
106440,note_off,360,0,1,,,,,,,,,0,,,87,0
106440,note_on,0,0,1,,,,,,,,,0,,,85,47
106560,note_on,0,0,3,,,,,,,,,2,,,63,58
106560,note_off,240,0,2,,,,,,,,,1,,,75,0
106560,note_off,0,0,2,,,,,,,,,1,,,78,0
106560,note_on,0,0,4,,,,,,,,,3,,,54,58
106560,note_on,0,0,1,,,,,,,,,0,,,84,47
106560,note_on,0,0,3,,,,,,,,,2,,,57,58
106560,note_off,120,0,1,,,,,,,,,0,,,85,0
106560,note_off,480,0,3,,,,,,,,,2,,,56,0
106560,note_off,0,0,3,,,,,,,,,2,,,63,0
106560,note_off,480,0,4,,,,,,,,,3,,,54,0
106680,note_on,120,0,2,,,,,,,,,1,,,78,46
106800,note_on,120,0,2,,,,,,,,,1,,,75,46
106920,note_on,0,0,1,,,,,,,,,0,,,84,46
106920,note_off,360,0,1,,,,,,,,,0,,,84,0
107040,note_off,480,0,3,,,,,,,,,2,,,57,0
107040,note_on,0,0,4,,,,,,,,,3,,,54,50
107040,note_off,0,0,2,,,,,,,,,1,,,78,0
107040,note_on,0,0,1,,,,,,,,,0,,,87,46
107040,note_off,120,0,1,,,,,,,,,0,,,84,0
107040,note_off,480,0,4,,,,,,,,,3,,,54,0
107040,note_off,0,0,3,,,,,,,,,2,,,63,0
107040,note_on,0,0,3,,,,,,,,,2,,,63,50
107040,note_off,240,0,2,,,,,,,,,1,,,75,0
107040,note_on,0,0,3,,,,,,,,,2,,,56,50
107160,note_on,120,0,2,,,,,,,,,1,,,78,46
107280,note_on,120,0,2,,,,,,,,,1,,,75,46
107400,note_off,360,0,1,,,,,,,,,0,,,87,0
107400,note_on,0,0,1,,,,,,,,,0,,,85,46
107520,note_off,480,0,4,,,,,,,,,3,,,54,0
107520,note_off,240,0,2,,,,,,,,,1,,,75,0
107520,note_off,0,0,2,,,,,,,,,1,,,78,0
107520,note_on,0,0,4,,,,,,,,,3,,,54,56
107520,note_off,480,0,3,,,,,,,,,2,,,56,0
107520,note_on,0,0,3,,,,,,,,,2,,,63,56
107520,note_off,120,0,1,,,,,,,,,0,,,85,0
107520,note_on,0,0,1,,,,,,,,,0,,,84,46
107520,note_on,0,0,3,,,,,,,,,2,,,57,56
107520,note_off,0,0,3,,,,,,,,,2,,,63,0
107640,note_on,120,0,2,,,,,,,,,1,,,78,45
107760,note_on,120,0,2,,,,,,,,,1,,,75,45
107880,note_off,360,0,1,,,,,,,,,0,,,84,0
107880,note_on,0,0,1,,,,,,,,,0,,,84,45
108000,note_off,0,0,2,,,,,,,,,1,,,78,0
108000,note_off,480,0,4,,,,,,,,,3,,,54,0
108000,note_off,120,0,1,,,,,,,,,0,,,84,0
108000,note_on,0,0,1,,,,,,,,,0,,,87,45
108000,note_off,240,0,2,,,,,,,,,1,,,75,0
108000,note_off,480,0,3,,,,,,,,,2,,,63,0
108000,note_off,0,0,3,,,,,,,,,2,,,57,0
108000,note_on,0,0,3,,,,,,,,,2,,,63,49
108000,note_on,0,0,3,,,,,,,,,2,,,56,49
108000,note_on,0,0,4,,,,,,,,,3,,,54,49
108120,note_on,120,0,2,,,,,,,,,1,,,78,45
108240,note_on,120,0,2,,,,,,,,,1,,,75,45
108360,note_off,360,0,1,,,,,,,,,0,,,87,0
108360,note_on,0,0,1,,,,,,,,,0,,,87,45
108480,note_off,480,0,3,,,,,,,,,2,,,56,0
108480,note_off,120,0,1,,,,,,,,,0,,,87,0
108480,note_on,0,0,1,,,,,,,,,0,,,80,45
108480,note_off,480,0,4,,,,,,,,,3,,,54,0
108480,note_off,240,0,2,,,,,,,,,1,,,75,0
108480,note_off,0,0,2,,,,,,,,,1,,,78,0
108480,note_off,0,0,3,,,,,,,,,2,,,63,0
108600,note_on,120,0,2,,,,,,,,,1,,,78,44
108720,note_on,120,0,2,,,,,,,,,1,,,75,44
108840,note_off,360,0,1,,,,,,,,,0,,,80,0
108840,note_on,0,0,1,,,,,,,,,0,,,80,44
108960,note_on,480,0,3,,,,,,,,,2,,,63,48
108960,note_on,0,0,3,,,,,,,,,2,,,58,48
108960,note_off,120,0,1,,,,,,,,,0,,,80,0
108960,note_off,0,0,2,,,,,,,,,1,,,78,0
108960,note_off,240,0,2,,,,,,,,,1,,,75,0
108960,note_on,0,0,1,,,,,,,,,0,,,82,44
109080,note_on,120,0,2,,,,,,,,,1,,,78,44
109200,note_on,120,0,2,,,,,,,,,1,,,75,44
109320,note_off,360,0,1,,,,,,,,,0,,,82,0
109320,note_on,0,0,1,,,,,,,,,0,,,82,44
109320,set_tempo,3720,1,0,,,,,,508474,,,,,,,
109440,note_off,240,0,2,,,,,,,,,1,,,75,0
109440,note_on,960,0,4,,,,,,,,,3,,,54,48
109440,note_on,0,0,3,,,,,,,,,2,,,56,48
109440,set_tempo,120,1,0,,,,,,500000,,,,,,,
109440,note_on,0,0,3,,,,,,,,,2,,,63,48
109440,note_off,0,0,3,,,,,,,,,2,,,63,0
109440,note_off,480,0,3,,,,,,,,,2,,,58,0
109440,note_on,0,0,1,,,,,,,,,0,,,84,44
109440,note_off,120,0,1,,,,,,,,,0,,,82,0
109440,note_off,0,0,2,,,,,,,,,1,,,78,0
109560,note_on,120,0,2,,,,,,,,,1,,,80,45
109680,note_on,120,0,2,,,,,,,,,1,,,75,46
109800,note_on,0,0,1,,,,,,,,,0,,,84,47
109800,note_off,360,0,1,,,,,,,,,0,,,84,0
109920,note_off,480,0,3,,,,,,,,,2,,,56,0
109920,note_off,0,0,3,,,,,,,,,2,,,63,0
109920,note_on,0,0,3,,,,,,,,,2,,,56,52
109920,note_on,0,0,3,,,,,,,,,2,,,61,52
109920,note_off,240,0,2,,,,,,,,,1,,,75,0
109920,note_off,120,0,1,,,,,,,,,0,,,84,0
109920,note_on,0,0,1,,,,,,,,,0,,,85,48
109920,note_off,0,0,2,,,,,,,,,1,,,80,0
109920,note_on,0,0,4,,,,,,,,,3,,,53,52
109920,note_off,480,0,4,,,,,,,,,3,,,54,0
110040,note_on,120,0,2,,,,,,,,,1,,,80,49
110160,note_on,120,0,2,,,,,,,,,1,,,73,50
110280,note_off,360,0,1,,,,,,,,,0,,,85,0
110280,note_on,0,0,1,,,,,,,,,0,,,85,51
110400,note_off,0,0,3,,,,,,,,,2,,,56,0
110400,note_off,240,0,2,,,,,,,,,1,,,73,0
110400,note_off,0,0,2,,,,,,,,,1,,,80,0
110400,note_off,480,0,3,,,,,,,,,2,,,61,0
110400,note_on,0,0,3,,,,,,,,,2,,,56,55
110400,note_on,0,0,3,,,,,,,,,2,,,61,55
110400,note_off,480,0,4,,,,,,,,,3,,,53,0
110400,note_on,0,0,1,,,,,,,,,0,,,85,52
110400,note_off,120,0,1,,,,,,,,,0,,,85,0
110400,note_on,0,0,4,,,,,,,,,3,,,53,55
110520,note_on,120,0,2,,,,,,,,,1,,,80,52
110640,note_on,120,0,2,,,,,,,,,1,,,73,53
110760,note_on,0,0,1,,,,,,,,,0,,,85,54
110760,note_off,360,0,1,,,,,,,,,0,,,85,0
110880,note_off,0,0,2,,,,,,,,,1,,,80,0
110880,note_off,120,0,1,,,,,,,,,0,,,85,0
110880,note_on,0,0,1,,,,,,,,,0,,,85,55
110880,note_on,0,0,3,,,,,,,,,2,,,61,57
110880,note_off,0,0,3,,,,,,,,,2,,,56,0
110880,note_on,0,0,4,,,,,,,,,3,,,53,57
110880,note_on,0,0,3,,,,,,,,,2,,,56,57
110880,note_off,480,0,3,,,,,,,,,2,,,61,0
110880,note_off,240,0,2,,,,,,,,,1,,,73,0
110880,note_off,480,0,4,,,,,,,,,3,,,53,0
111000,note_on,120,0,2,,,,,,,,,1,,,80,56
111120,note_on,120,0,2,,,,,,,,,1,,,73,57
111240,note_on,0,0,1,,,,,,,,,0,,,85,58
111240,note_off,360,0,1,,,,,,,,,0,,,85,0
111360,note_off,480,0,3,,,,,,,,,2,,,56,0
111360,note_off,0,0,2,,,,,,,,,1,,,80,0
111360,note_off,240,0,2,,,,,,,,,1,,,73,0
111360,note_off,480,0,4,,,,,,,,,3,,,53,0
111360,note_on,0,0,4,,,,,,,,,3,,,52,60
111360,note_on,0,0,1,,,,,,,,,0,,,85,59
111360,note_off,120,0,1,,,,,,,,,0,,,85,0
111360,note_on,0,0,3,,,,,,,,,2,,,61,60
111360,note_on,0,0,3,,,,,,,,,2,,,55,60
111360,note_off,0,0,3,,,,,,,,,2,,,61,0
111480,note_on,120,0,2,,,,,,,,,1,,,79,60
111600,note_on,120,0,2,,,,,,,,,1,,,73,61
111720,note_off,360,0,1,,,,,,,,,0,,,85,0
111720,note_on,0,0,1,,,,,,,,,0,,,85,62
111840,note_off,240,0,2,,,,,,,,,1,,,73,0
111840,note_off,0,0,2,,,,,,,,,1,,,79,0
111840,note_off,120,0,1,,,,,,,,,0,,,85,0
111840,note_off,480,0,4,,,,,,,,,3,,,52,0
111840,note_on,0,0,1,,,,,,,,,0,,,85,63
111840,note_off,480,0,3,,,,,,,,,2,,,55,0
111840,note_on,0,0,4,,,,,,,,,3,,,52,63
111840,note_on,0,0,3,,,,,,,,,2,,,55,63
111840,note_on,0,0,3,,,,,,,,,2,,,61,63
111840,note_off,0,0,3,,,,,,,,,2,,,61,0
111960,note_on,120,0,2,,,,,,,,,1,,,78,64
112080,note_on,120,0,2,,,,,,,,,1,,,73,65
112200,note_off,360,0,1,,,,,,,,,0,,,85,0
112200,note_on,0,0,1,,,,,,,,,0,,,85,66
112320,note_off,0,0,2,,,,,,,,,1,,,78,0
112320,note_off,120,0,1,,,,,,,,,0,,,85,0
112320,note_on,0,0,1,,,,,,,,,0,,,85,67
112320,note_on,0,0,3,,,,,,,,,2,,,61,65
112320,note_on,0,0,4,,,,,,,,,3,,,52,65
112320,note_off,480,0,4,,,,,,,,,3,,,52,0
112320,note_off,480,0,3,,,,,,,,,2,,,61,0
112320,note_off,0,0,3,,,,,,,,,2,,,55,0
112320,note_on,0,0,3,,,,,,,,,2,,,55,65
112320,note_off,240,0,2,,,,,,,,,1,,,73,0
112440,note_on,120,0,2,,,,,,,,,1,,,78,68
112560,note_on,120,0,2,,,,,,,,,1,,,73,69
112680,note_off,360,0,1,,,,,,,,,0,,,85,0
112680,note_on,0,0,1,,,,,,,,,0,,,85,70
112800,note_off,120,0,1,,,,,,,,,0,,,85,0
112800,note_on,0,0,1,,,,,,,,,0,,,85,71
112800,note_on,0,0,4,,,,,,,,,3,,,52,68
112800,note_off,0,0,3,,,,,,,,,2,,,55,0
112800,note_off,0,0,2,,,,,,,,,1,,,78,0
112800,note_off,240,0,2,,,,,,,,,1,,,73,0
112800,note_on,0,0,3,,,,,,,,,2,,,55,68
112800,note_on,0,0,3,,,,,,,,,2,,,61,68
112800,note_off,480,0,3,,,,,,,,,2,,,61,0
112800,note_off,480,0,4,,,,,,,,,3,,,52,0
112920,note_on,120,0,2,,,,,,,,,1,,,78,72
113040,note_on,120,0,2,,,,,,,,,1,,,73,73
113160,note_on,0,0,1,,,,,,,,,0,,,85,74
113160,note_off,360,0,1,,,,,,,,,0,,,85,0
113220,set_tempo,3780,1,0,,,,,,504201,,,,,,,
113280,note_off,480,0,3,,,,,,,,,2,,,61,0
113280,note_on,0,0,3,,,,,,,,,2,,,55,71
113280,note_on,0,0,3,,,,,,,,,2,,,52,71
113280,note_off,0,0,2,,,,,,,,,1,,,78,0
113280,note_on,0,0,3,,,,,,,,,2,,,49,71
113280,note_off,240,0,2,,,,,,,,,1,,,73,0
113280,note_off,0,0,3,,,,,,,,,2,,,55,0
113280,set_tempo,60,1,0,,,,,,500000,,,,,,,
113280,note_off,120,0,1,,,,,,,,,0,,,85,0
113280,note_on,0,0,1,,,,,,,,,0,,,85,75
113280,note_off,480,0,4,,,,,,,,,3,,,52,0
113280,note_on,0,0,4,,,,,,,,,3,,,45,71
113400,note_on,120,0,2,,,,,,,,,1,,,79,76
113520,note_on,120,0,2,,,,,,,,,1,,,73,77
113640,note_off,360,0,1,,,,,,,,,0,,,85,0
113640,note_on,0,0,1,,,,,,,,,0,,,85,78
113760,note_off,0,0,3,,,,,,,,,2,,,52,0
113760,note_off,480,0,3,,,,,,,,,2,,,49,0
113760,note_off,480,0,4,,,,,,,,,3,,,45,0
113760,note_on,0,0,4,,,,,,,,,3,,,45,73
113760,note_off,240,0,2,,,,,,,,,1,,,73,0
113760,note_on,0,0,3,,,,,,,,,2,,,52,73
113760,note_off,0,0,2,,,,,,,,,1,,,79,0
113760,note_on,0,0,1,,,,,,,,,0,,,85,79
113760,note_off,0,0,3,,,,,,,,,2,,,55,0
113760,note_off,120,0,1,,,,,,,,,0,,,85,0
113760,note_on,0,0,3,,,,,,,,,2,,,49,73
113760,note_on,0,0,3,,,,,,,,,2,,,55,73
113880,note_on,120,0,2,,,,,,,,,1,,,78,80
114000,note_on,120,0,2,,,,,,,,,1,,,73,81
114120,note_off,360,0,1,,,,,,,,,0,,,85,0
114120,note_on,0,0,1,,,,,,,,,0,,,85,82
114240,note_off,120,0,1,,,,,,,,,0,,,85,0
114240,note_off,480,0,3,,,,,,,,,2,,,49,0
114240,note_on,0,0,4,,,,,,,,,3,,,45,76
114240,note_off,480,0,4,,,,,,,,,3,,,45,0
114240,note_on,0,0,1,,,,,,,,,0,,,85,83
114240,note_off,0,0,2,,,,,,,,,1,,,78,0
114240,note_off,240,0,2,,,,,,,,,1,,,73,0
114240,note_off,0,0,3,,,,,,,,,2,,,52,0
114240,note_off,0,0,3,,,,,,,,,2,,,55,0
114240,note_on,0,0,3,,,,,,,,,2,,,55,76
114240,note_on,0,0,3,,,,,,,,,2,,,49,76
114240,note_on,0,0,3,,,,,,,,,2,,,52,76
114360,note_on,120,0,2,,,,,,,,,1,,,78,84
114480,note_on,120,0,2,,,,,,,,,1,,,73,85
114600,note_off,360,0,1,,,,,,,,,0,,,85,0
114600,note_on,0,0,1,,,,,,,,,0,,,85,86
114720,note_off,480,0,4,,,,,,,,,3,,,45,0
114720,note_off,0,0,2,,,,,,,,,1,,,78,0
114720,note_off,240,0,2,,,,,,,,,1,,,73,0
114720,note_on,0,0,1,,,,,,,,,0,,,85,87
114720,note_on,0,0,3,,,,,,,,,2,,,52,78
114720,note_on,0,0,3,,,,,,,,,2,,,55,78
114720,note_on,0,0,3,,,,,,,,,2,,,49,78
114720,note_off,0,0,3,,,,,,,,,2,,,52,0
114720,note_off,480,0,3,,,,,,,,,2,,,49,0
114720,note_off,120,0,1,,,,,,,,,0,,,85,0
114720,note_off,0,0,3,,,,,,,,,2,,,55,0
114720,note_on,0,0,4,,,,,,,,,3,,,45,78
114840,note_on,120,0,2,,,,,,,,,1,,,78,88
114960,note_on,120,0,2,,,,,,,,,1,,,73,89
115080,note_off,360,0,1,,,,,,,,,0,,,85,0
115080,note_on,0,0,1,,,,,,,,,0,,,85,90
115140,set_tempo,1860,1,0,,,,,,504201,,,,,,,
115200,note_off,120,0,1,,,,,,,,,0,,,85,0
115200,note_off,240,0,2,,,,,,,,,1,,,73,0
115200,note_on,0,0,4,,,,,,,,,3,,,44,80
115200,note_on,0,0,1,,,,,,,,,0,,,85,92
115200,note_on,0,0,4,,,,,,,,,3,,,56,80
115200,note_off,0,0,2,,,,,,,,,1,,,78,0
115200,note_off,480,0,4,,,,,,,,,3,,,45,0
115200,note_off,480,0,3,,,,,,,,,2,,,49,0
115200,note_off,0,0,3,,,,,,,,,2,,,52,0
115200,note_off,0,0,3,,,,,,,,,2,,,55,0
115200,note_on,0,0,3,,,,,,,,,2,,,63,74
115280,note_on,80,0,3,,,,,,,,,2,,,65,74
115320,note_on,120,0,2,,,,,,,,,1,,,78,92
115328,note_off,48,0,3,,,,,,,,,2,,,63,0
115360,note_on,32,0,3,,,,,,,,,2,,,63,75
115408,note_off,48,0,3,,,,,,,,,2,,,65,0
115440,note_on,120,0,2,,,,,,,,,1,,,73,92
115440,note_on,32,0,3,,,,,,,,,2,,,65,75
115488,note_off,48,0,3,,,,,,,,,2,,,63,0
115520,note_on,32,0,3,,,,,,,,,2,,,63,75
115560,note_off,360,0,1,,,,,,,,,0,,,85,0
115560,note_on,0,0,1,,,,,,,,,0,,,85,93
115568,note_off,48,0,3,,,,,,,,,2,,,65,0
115600,note_on,32,0,3,,,,,,,,,2,,,65,75
115648,note_off,48,0,3,,,,,,,,,2,,,63,0
115680,note_off,120,0,1,,,,,,,,,0,,,85,0
115680,note_off,240,0,2,,,,,,,,,1,,,73,0
115680,note_off,0,0,2,,,,,,,,,1,,,78,0
115680,note_on,32,0,3,,,,,,,,,2,,,63,76
115680,note_on,0,0,1,,,,,,,,,0,,,85,93
115728,note_off,48,0,3,,,,,,,,,2,,,65,0
115760,note_on,32,0,3,,,,,,,,,2,,,65,76
115800,note_on,120,0,2,,,,,,,,,1,,,78,94
115808,note_off,48,0,3,,,,,,,,,2,,,63,0
115840,note_on,32,0,3,,,,,,,,,2,,,63,76
115888,note_off,48,0,3,,,,,,,,,2,,,65,0
115920,note_on,32,0,3,,,,,,,,,2,,,65,76
115920,note_on,120,0,2,,,,,,,,,1,,,73,94
115968,note_off,48,0,3,,,,,,,,,2,,,63,0
116000,note_on,32,0,3,,,,,,,,,2,,,63,77
116040,note_off,360,0,1,,,,,,,,,0,,,85,0
116040,note_on,0,0,1,,,,,,,,,0,,,85,95
116048,note_off,48,0,3,,,,,,,,,2,,,65,0
116080,note_on,32,0,3,,,,,,,,,2,,,65,77
116128,note_off,48,0,3,,,,,,,,,2,,,63,0
116160,note_on,32,0,3,,,,,,,,,2,,,63,77
116160,note_off,120,0,1,,,,,,,,,0,,,85,0
116160,note_on,0,0,1,,,,,,,,,0,,,84,95
116160,note_off,0,0,2,,,,,,,,,1,,,78,0
116160,note_off,240,0,2,,,,,,,,,1,,,73,0
116208,note_off,48,0,3,,,,,,,,,2,,,65,0
116240,note_on,32,0,3,,,,,,,,,2,,,65,77
116280,note_on,120,0,2,,,,,,,,,1,,,78,95
116288,note_off,48,0,3,,,,,,,,,2,,,63,0
116320,note_on,32,0,3,,,,,,,,,2,,,63,78
116368,note_off,48,0,3,,,,,,,,,2,,,65,0
116400,note_on,32,0,3,,,,,,,,,2,,,65,78
116400,note_on,120,0,2,,,,,,,,,1,,,73,95
116448,note_off,48,0,3,,,,,,,,,2,,,63,0
116480,note_on,32,0,3,,,,,,,,,2,,,63,78
116520,note_off,360,0,1,,,,,,,,,0,,,84,0
116520,note_on,0,0,1,,,,,,,,,0,,,84,97
116528,note_off,48,0,3,,,,,,,,,2,,,65,0
116560,note_on,32,0,3,,,,,,,,,2,,,65,79
116608,note_off,48,0,3,,,,,,,,,2,,,63,0
116640,note_on,32,0,3,,,,,,,,,2,,,63,79
116640,note_on,0,0,1,,,,,,,,,0,,,84,97
116640,note_off,240,0,2,,,,,,,,,1,,,73,0
116640,note_off,0,0,2,,,,,,,,,1,,,78,0
116640,note_off,120,0,1,,,,,,,,,0,,,84,0
116688,note_off,48,0,3,,,,,,,,,2,,,65,0
116720,note_on,32,0,3,,,,,,,,,2,,,65,79
116760,note_on,120,0,2,,,,,,,,,1,,,78,97
116768,note_off,48,0,3,,,,,,,,,2,,,63,0
116800,note_on,32,0,3,,,,,,,,,2,,,63,79
116848,note_off,48,0,3,,,,,,,,,2,,,65,0
116880,set_tempo,1740,1,0,,,,,,508474,,,,,,,
116880,note_on,120,0,2,,,,,,,,,1,,,73,97
116880,note_on,32,0,3,,,,,,,,,2,,,61,80
116928,note_off,48,0,3,,,,,,,,,2,,,63,0
117000,set_tempo,120,1,0,,,,,,517241,,,,,,,
117000,note_on,72,0,3,,,,,,,,,2,,,63,80
117000,note_off,360,0,1,,,,,,,,,0,,,84,0
117000,note_on,0,0,1,,,,,,,,,0,,,84,97
117070,note_off,70,0,3,,,,,,,,,2,,,61,0
117120,note_off,240,0,2,,,,,,,,,1,,,73,0
117120,note_off,0,0,2,,,,,,,,,1,,,78,0
117120,note_on,0,0,2,,,,,,,,,1,,,77,95
117120,set_tempo,120,1,0,,,,,,517241,,,,,,,
117120,note_on,50,0,3,,,,,,,,,2,,,61,80
117120,note_on,0,0,2,,,,,,,,,1,,,73,95
117120,note_off,0,0,4,,,,,,,,,3,,,56,0
117120,note_off,120,0,1,,,,,,,,,0,,,84,0
117120,note_off,1920,0,4,,,,,,,,,3,,,44,0
117120,note_on,0,0,1,,,,,,,,,0,,,85,95
117120,note_on,0,0,4,,,,,,,,,3,,,49,83
117125,note_off,5,0,3,,,,,,,,,2,,,63,0
117600,note_off,480,0,4,,,,,,,,,3,,,49,0
117600,note_off,480,0,2,,,,,,,,,1,,,73,0
117600,note_off,0,0,2,,,,,,,,,1,,,77,0
117600,note_off,480,0,1,,,,,,,,,0,,,85,0
117600,note_off,475,0,3,,,,,,,,,2,,,61,0
118080,note_on,480,0,4,,,,,,,,,3,,,61,49
118080,note_on,480,0,1,,,,,,,,,0,,,77,48
118080,set_tempo,960,1,0,,,,,,508474,,,,,,,
118240,note_off,160,0,4,,,,,,,,,3,,,61,0
118240,note_off,160,0,1,,,,,,,,,0,,,77,0
118240,note_on,0,0,4,,,,,,,,,3,,,63,49
118240,note_on,0,0,1,,,,,,,,,0,,,73,48
118400,note_on,0,0,4,,,,,,,,,3,,,65,50
118400,note_on,0,0,1,,,,,,,,,0,,,68,49
118400,note_off,160,0,1,,,,,,,,,0,,,73,0
118400,note_off,160,0,4,,,,,,,,,3,,,63,0
118560,note_off,160,0,1,,,,,,,,,0,,,68,0
118560,note_on,0,0,1,,,,,,,,,0,,,70,50
118560,note_off,160,0,4,,,,,,,,,3,,,65,0
118560,note_on,0,0,4,,,,,,,,,3,,,66,51
118720,note_on,0,0,4,,,,,,,,,3,,,61,51
118720,note_off,160,0,1,,,,,,,,,0,,,70,0
118720,note_on,0,0,1,,,,,,,,,0,,,73,50
118720,note_off,160,0,4,,,,,,,,,3,,,66,0
118880,note_off,160,0,1,,,,,,,,,0,,,73,0
118880,note_off,160,0,4,,,,,,,,,3,,,61,0
118880,note_on,0,0,4,,,,,,,,,3,,,66,52
118880,note_on,0,0,1,,,,,,,,,0,,,70,51
119040,note_off,160,0,4,,,,,,,,,3,,,66,0
119040,note_on,0,0,4,,,,,,,,,3,,,61,50
119040,note_off,160,0,1,,,,,,,,,0,,,70,0
119040,note_on,0,0,1,,,,,,,,,0,,,68,52
119040,note_on,0,0,4,,,,,,,,,3,,,65,50
119200,note_off,160,0,1,,,,,,,,,0,,,68,0
119200,note_on,0,0,1,,,,,,,,,0,,,73,52
119360,note_off,160,0,1,,,,,,,,,0,,,73,0
119360,note_on,0,0,1,,,,,,,,,0,,,75,53
119520,note_off,0,0,4,,,,,,,,,3,,,65,0
119520,note_off,480,0,4,,,,,,,,,3,,,61,0
119520,note_off,160,0,1,,,,,,,,,0,,,75,0
119520,note_on,0,0,1,,,,,,,,,0,,,77,53
119680,note_off,160,0,1,,,,,,,,,0,,,77,0
119680,note_on,0,0,1,,,,,,,,,0,,,73,54
119840,note_off,160,0,1,,,,,,,,,0,,,73,0
119840,note_on,0,0,1,,,,,,,,,0,,,80,55
120000,note_on,480,0,4,,,,,,,,,3,,,49,54
120000,note_off,160,0,1,,,,,,,,,0,,,80,0
120000,note_on,0,0,1,,,,,,,,,0,,,77,55
120160,note_on,0,0,4,,,,,,,,,3,,,51,53
120160,note_off,160,0,4,,,,,,,,,3,,,49,0
120160,note_on,0,0,1,,,,,,,,,0,,,73,53
120160,note_off,160,0,1,,,,,,,,,0,,,77,0
120320,note_off,160,0,1,,,,,,,,,0,,,73,0
120320,note_on,0,0,1,,,,,,,,,0,,,68,52
120320,note_off,160,0,4,,,,,,,,,3,,,51,0
120320,note_on,0,0,4,,,,,,,,,3,,,53,52
120480,note_on,0,0,4,,,,,,,,,3,,,54,51
120480,note_off,160,0,1,,,,,,,,,0,,,68,0
120480,note_on,0,0,1,,,,,,,,,0,,,66,51
120480,note_off,160,0,4,,,,,,,,,3,,,53,0
120480,note_on,0,0,4,,,,,,,,,3,,,44,51
120640,note_on,0,0,1,,,,,,,,,0,,,63,50
120640,note_on,0,0,4,,,,,,,,,3,,,51,50
120640,note_off,160,0,1,,,,,,,,,0,,,66,0
120640,note_off,160,0,4,,,,,,,,,3,,,54,0
120800,note_off,160,0,1,,,,,,,,,0,,,63,0
120800,note_on,0,0,1,,,,,,,,,0,,,68,50
120800,note_on,0,0,4,,,,,,,,,3,,,56,49
120800,note_off,160,0,4,,,,,,,,,3,,,51,0
120960,note_off,160,0,4,,,,,,,,,3,,,56,0
120960,note_off,0,0,4,,,,,,,,,3,,,44,0
120960,note_on,0,0,4,,,,,,,,,3,,,49,47
120960,note_on,0,0,4,,,,,,,,,3,,,53,47
120960,note_on,0,0,1,,,,,,,,,0,,,65,49
120960,note_off,160,0,1,,,,,,,,,0,,,68,0
121320,set_tempo,3240,1,0,,,,,,517241,,,,,,,
121440,set_tempo,120,1,0,,,,,,508474,,,,,,,
121440,note_on,0,0,1,,,,,,,,,0,,,68,50
121440,note_off,480,0,4,,,,,,,,,3,,,53,0
121440,note_off,0,0,4,,,,,,,,,3,,,49,0
121440,note_off,480,0,1,,,,,,,,,0,,,65,0
121600,note_off,160,0,1,,,,,,,,,0,,,68,0
121600,note_on,0,0,1,,,,,,,,,0,,,73,51
121760,note_off,160,0,1,,,,,,,,,0,,,73,0
121760,note_on,0,0,1,,,,,,,,,0,,,75,52
121920,note_on,480,0,4,,,,,,,,,3,,,61,53
121920,note_off,160,0,1,,,,,,,,,0,,,75,0
121920,note_on,0,0,1,,,,,,,,,0,,,77,53
122080,note_off,160,0,1,,,,,,,,,0,,,77,0
122080,note_off,160,0,4,,,,,,,,,3,,,61,0
122080,note_on,0,0,4,,,,,,,,,3,,,63,54
122080,note_on,0,0,1,,,,,,,,,0,,,73,55
122240,note_on,0,0,4,,,,,,,,,3,,,65,55
122240,note_off,160,0,4,,,,,,,,,3,,,63,0
122240,note_on,0,0,1,,,,,,,,,0,,,68,56
122240,note_off,160,0,1,,,,,,,,,0,,,73,0
122400,note_on,0,0,1,,,,,,,,,0,,,70,57
122400,note_off,160,0,4,,,,,,,,,3,,,65,0
122400,note_on,0,0,4,,,,,,,,,3,,,66,56
122400,note_off,160,0,1,,,,,,,,,0,,,68,0
122560,note_on,0,0,1,,,,,,,,,0,,,73,58
122560,note_off,160,0,4,,,,,,,,,3,,,66,0
122560,note_on,0,0,4,,,,,,,,,3,,,61,57
122560,note_off,160,0,1,,,,,,,,,0,,,70,0
122720,note_on,0,0,1,,,,,,,,,0,,,70,59
122720,note_on,0,0,4,,,,,,,,,3,,,66,58
122720,note_off,160,0,4,,,,,,,,,3,,,61,0
122720,note_off,160,0,1,,,,,,,,,0,,,73,0
122880,note_on,0,0,4,,,,,,,,,3,,,65,55
122880,note_off,160,0,4,,,,,,,,,3,,,66,0
122880,note_on,0,0,4,,,,,,,,,3,,,61,55
122880,note_on,0,0,1,,,,,,,,,0,,,68,60
122880,note_off,160,0,1,,,,,,,,,0,,,70,0
123040,note_off,160,0,1,,,,,,,,,0,,,68,0
123040,note_on,0,0,1,,,,,,,,,0,,,73,61
123200,note_on,0,0,1,,,,,,,,,0,,,75,62
123200,note_off,160,0,1,,,,,,,,,0,,,73,0
123360,note_off,0,0,4,,,,,,,,,3,,,61,0
123360,note_on,0,0,1,,,,,,,,,0,,,77,63
123360,note_off,160,0,1,,,,,,,,,0,,,75,0
123360,note_off,480,0,4,,,,,,,,,3,,,65,0
123520,note_off,160,0,1,,,,,,,,,0,,,77,0
123520,note_on,0,0,1,,,,,,,,,0,,,73,64
123680,note_off,160,0,1,,,,,,,,,0,,,73,0
123680,note_on,0,0,1,,,,,,,,,0,,,80,65
123720,set_tempo,2280,1,0,,,,,,517241,,,,,,,
123840,note_on,6240,0,3,,,,,,,,,2,,,65,81
123840,note_on,480,0,4,,,,,,,,,3,,,58,81
123840,note_off,160,0,1,,,,,,,,,0,,,80,0
123840,note_on,6240,0,2,,,,,,,,,1,,,68,85
123840,note_on,0,0,1,,,,,,,,,0,,,74,85
124320,note_off,480,0,1,,,,,,,,,0,,,74,0
124320,note_on,0,0,1,,,,,,,,,0,,,75,82
124320,note_on,0,0,3,,,,,,,,,2,,,63,78
124320,note_off,480,0,3,,,,,,,,,2,,,65,0
124320,note_off,480,0,4,,,,,,,,,3,,,58,0
124320,note_on,0,0,4,,,,,,,,,3,,,51,78
124320,note_on,0,0,2,,,,,,,,,1,,,66,82
124320,note_off,480,0,2,,,,,,,,,1,,,68,0
124800,note_on,0,0,1,,,,,,,,,0,,,72,79
124800,note_off,480,0,3,,,,,,,,,2,,,63,0
124800,note_off,480,0,4,,,,,,,,,3,,,51,0
124800,note_on,0,0,2,,,,,,,,,1,,,66,79
124800,note_off,480,0,2,,,,,,,,,1,,,66,0
124800,note_on,0,0,4,,,,,,,,,3,,,56,74
124800,note_off,480,0,1,,,,,,,,,0,,,75,0
124800,note_on,0,0,3,,,,,,,,,2,,,63,74
125640,set_tempo,1920,1,0,,,,,,526315,,,,,,,
125760,set_tempo,120,1,0,,,,,,508474,,,,,,,
125760,note_off,960,0,2,,,,,,,,,1,,,66,0
125760,note_on,0,0,3,,,,,,,,,2,,,54,56
125760,note_off,960,0,3,,,,,,,,,2,,,63,0
125760,note_off,960,0,1,,,,,,,,,0,,,72,0
125760,note_on,0,0,1,,,,,,,,,0,,,66,61
125760,note_on,0,0,4,,,,,,,,,3,,,44,56
125760,note_off,960,0,4,,,,,,,,,3,,,56,0
125880,note_off,120,0,1,,,,,,,,,0,,,66,0
125880,note_on,0,0,1,,,,,,,,,0,,,68,62
126000,note_off,120,0,1,,,,,,,,,0,,,68,0
126000,note_on,0,0,1,,,,,,,,,0,,,66,63
126120,note_off,120,0,1,,,,,,,,,0,,,66,0
126120,note_on,0,0,1,,,,,,,,,0,,,65,64
126240,note_on,0,0,1,,,,,,,,,0,,,66,64
126240,note_off,120,0,1,,,,,,,,,0,,,65,0
126360,note_off,120,0,1,,,,,,,,,0,,,66,0
126360,note_on,0,0,1,,,,,,,,,0,,,75,65
126480,note_on,0,0,1,,,,,,,,,0,,,73,66
126480,note_off,120,0,1,,,,,,,,,0,,,75,0
126600,note_off,120,0,1,,,,,,,,,0,,,73,0
126600,note_on,0,0,1,,,,,,,,,0,,,72,67
126720,note_off,120,0,1,,,,,,,,,0,,,72,0
126720,note_on,0,0,1,,,,,,,,,0,,,73,68
126720,note_off,960,0,3,,,,,,,,,2,,,54,0
126720,note_on,0,0,3,,,,,,,,,2,,,53,58
126720,note_off,960,0,4,,,,,,,,,3,,,44,0
126720,note_on,0,0,4,,,,,,,,,3,,,49,58
126840,note_off,120,0,1,,,,,,,,,0,,,73,0
126840,note_on,0,0,1,,,,,,,,,0,,,68,68
126960,note_on,0,0,1,,,,,,,,,0,,,73,69
126960,note_off,120,0,1,,,,,,,,,0,,,68,0
127080,note_on,0,0,1,,,,,,,,,0,,,77,70
127080,note_off,120,0,1,,,,,,,,,0,,,73,0
127200,note_off,120,0,1,,,,,,,,,0,,,77,0
127200,note_off,480,0,4,,,,,,,,,3,,,49,0
127200,note_off,480,0,3,,,,,,,,,2,,,53,0
127200,note_on,0,0,1,,,,,,,,,0,,,80,71
127320,note_on,0,0,1,,,,,,,,,0,,,85,72
127320,note_off,120,0,1,,,,,,,,,0,,,80,0
127440,note_off,120,0,1,,,,,,,,,0,,,85,0
127440,note_on,0,0,1,,,,,,,,,0,,,89,72
127560,note_on,0,0,1,,,,,,,,,0,,,87,73
127560,set_tempo,1800,1,0,,,,,,517241,,,,,,,
127560,note_off,120,0,1,,,,,,,,,0,,,89,0
127680,note_off,120,0,1,,,,,,,,,0,,,87,0
127680,note_on,480,0,4,,,,,,,,,3,,,70,93
127680,note_on,480,0,3,,,,,,,,,2,,,77,93
127680,note_on,0,0,1,,,,,,,,,0,,,86,93
127680,note_on,1920,0,2,,,,,,,,,1,,,80,93
128160,note_off,480,0,1,,,,,,,,,0,,,86,0
128160,note_on,0,0,2,,,,,,,,,1,,,78,90
128160,note_off,480,0,2,,,,,,,,,1,,,80,0
128160,note_on,0,0,4,,,,,,,,,3,,,63,90
128160,note_off,480,0,4,,,,,,,,,3,,,70,0
128160,note_on,0,0,1,,,,,,,,,0,,,87,90
128160,note_on,0,0,3,,,,,,,,,2,,,75,90
128160,note_off,480,0,3,,,,,,,,,2,,,77,0
128640,note_off,480,0,1,,,,,,,,,0,,,87,0
128640,note_on,0,0,1,,,,,,,,,0,,,84,85
128640,note_on,0,0,4,,,,,,,,,3,,,68,82
128640,note_on,0,0,2,,,,,,,,,1,,,78,85
128640,note_off,480,0,2,,,,,,,,,1,,,78,0
128640,note_on,0,0,3,,,,,,,,,2,,,75,82
128640,note_off,480,0,3,,,,,,,,,2,,,75,0
128640,note_off,480,0,4,,,,,,,,,3,,,63,0
129480,set_tempo,1920,1,0,,,,,,526315,,,,,,,
129600,note_off,960,0,2,,,,,,,,,1,,,78,0
129600,note_on,0,0,4,,,,,,,,,3,,,56,56
129600,note_on,0,0,1,,,,,,,,,0,,,78,58
129600,note_off,960,0,1,,,,,,,,,0,,,84,0
129600,note_off,960,0,3,,,,,,,,,2,,,75,0
129600,note_off,960,0,4,,,,,,,,,3,,,68,0
129600,note_on,0,0,3,,,,,,,,,2,,,63,56
129600,set_tempo,120,1,0,,,,,,508474,,,,,,,
129600,note_on,0,0,3,,,,,,,,,2,,,66,56
129720,note_off,120,0,1,,,,,,,,,0,,,78,0
129720,note_on,0,0,1,,,,,,,,,0,,,80,58
129840,note_off,120,0,1,,,,,,,,,0,,,80,0
129840,note_on,0,0,1,,,,,,,,,0,,,78,57
129960,note_off,120,0,1,,,,,,,,,0,,,78,0
129960,note_on,0,0,1,,,,,,,,,0,,,77,57
130080,note_off,120,0,1,,,,,,,,,0,,,77,0
130080,note_on,0,0,1,,,,,,,,,0,,,78,56
130200,note_off,120,0,1,,,,,,,,,0,,,78,0
130200,note_on,0,0,1,,,,,,,,,0,,,87,56
130320,note_off,120,0,1,,,,,,,,,0,,,87,0
130320,note_on,0,0,1,,,,,,,,,0,,,85,55
130440,note_on,0,0,1,,,,,,,,,0,,,84,55
130440,note_off,120,0,1,,,,,,,,,0,,,85,0
130560,note_on,0,0,1,,,,,,,,,0,,,85,54
130560,note_off,960,0,4,,,,,,,,,3,,,56,0
130560,note_on,0,0,4,,,,,,,,,3,,,61,53
130560,note_off,960,0,3,,,,,,,,,2,,,63,0
130560,note_off,0,0,3,,,,,,,,,2,,,66,0
130560,note_on,0,0,3,,,,,,,,,2,,,65,53
130560,note_off,120,0,1,,,,,,,,,0,,,84,0
130680,note_off,120,0,1,,,,,,,,,0,,,85,0
130680,note_on,0,0,1,,,,,,,,,0,,,80,54
130800,note_off,120,0,1,,,,,,,,,0,,,80,0
130800,note_on,0,0,1,,,,,,,,,0,,,77,53
130920,note_on,0,0,1,,,,,,,,,0,,,73,53
130920,note_off,120,0,1,,,,,,,,,0,,,77,0
131040,note_on,0,0,1,,,,,,,,,0,,,68,52
131040,note_off,480,0,3,,,,,,,,,2,,,65,0
131040,note_off,120,0,1,,,,,,,,,0,,,73,0
131040,note_off,480,0,4,,,,,,,,,3,,,61,0
131160,note_off,120,0,1,,,,,,,,,0,,,68,0
131160,note_on,0,0,1,,,,,,,,,0,,,73,52
131280,note_off,120,0,1,,,,,,,,,0,,,73,0
131280,note_on,0,0,1,,,,,,,,,0,,,68,51
131400,note_off,120,0,1,,,,,,,,,0,,,68,0
131400,note_on,0,0,1,,,,,,,,,0,,,65,51
131520,note_off,120,0,1,,,,,,,,,0,,,65,0
131520,note_on,0,0,1,,,,,,,,,0,,,66,50
131520,note_on,480,0,3,,,,,,,,,2,,,54,49
131520,note_on,480,0,4,,,,,,,,,3,,,44,49
131640,note_off,120,0,1,,,,,,,,,0,,,66,0
131640,note_on,0,0,1,,,,,,,,,0,,,68,50
131760,note_off,120,0,1,,,,,,,,,0,,,68,0
131760,note_on,0,0,1,,,,,,,,,0,,,66,49
131880,note_off,120,0,1,,,,,,,,,0,,,66,0
131880,note_on,0,0,1,,,,,,,,,0,,,65,49
132000,note_on,0,0,1,,,,,,,,,0,,,66,48
132000,note_off,120,0,1,,,,,,,,,0,,,65,0
132120,note_on,0,0,1,,,,,,,,,0,,,75,48
132120,note_off,120,0,1,,,,,,,,,0,,,66,0
132240,note_off,120,0,1,,,,,,,,,0,,,75,0
132240,note_on,0,0,1,,,,,,,,,0,,,73,47
132360,note_off,120,0,1,,,,,,,,,0,,,73,0
132360,note_on,0,0,1,,,,,,,,,0,,,72,47
132480,note_off,960,0,3,,,,,,,,,2,,,54,0
132480,note_off,120,0,1,,,,,,,,,0,,,72,0
132480,note_off,960,0,4,,,,,,,,,3,,,44,0
132480,note_on,0,0,4,,,,,,,,,3,,,49,46
132480,note_on,0,0,3,,,,,,,,,2,,,53,46
132480,note_on,0,0,1,,,,,,,,,0,,,73,46
132600,note_on,0,0,1,,,,,,,,,0,,,68,46
132600,note_off,120,0,1,,,,,,,,,0,,,73,0
132720,note_on,0,0,1,,,,,,,,,0,,,65,45
132720,note_off,120,0,1,,,,,,,,,0,,,68,0
132840,note_on,0,0,1,,,,,,,,,0,,,61,45
132840,note_off,120,0,1,,,,,,,,,0,,,65,0
132960,note_on,0,0,1,,,,,,,,,0,,,56,44
132960,note_off,480,0,3,,,,,,,,,2,,,53,0
132960,note_off,120,0,1,,,,,,,,,0,,,61,0
132960,note_off,480,0,4,,,,,,,,,3,,,49,0
133080,note_off,120,0,1,,,,,,,,,0,,,56,0
133080,note_on,0,0,1,,,,,,,,,0,,,61,44
133200,note_off,120,0,1,,,,,,,,,0,,,61,0
133200,note_on,0,0,1,,,,,,,,,0,,,56,43
133320,note_off,120,0,1,,,,,,,,,0,,,56,0
133320,note_on,0,0,1,,,,,,,,,0,,,53,43
133440,note_off,120,0,1,,,,,,,,,0,,,53,0
133440,note_on,480,0,4,,,,,,,,,3,,,42,42
133560,note_on,0,0,4,,,,,,,,,3,,,44,42
133560,note_off,120,0,4,,,,,,,,,3,,,42,0
133680,note_off,120,0,4,,,,,,,,,3,,,44,0
133680,note_on,0,0,4,,,,,,,,,3,,,42,42
133800,note_off,120,0,4,,,,,,,,,3,,,42,0
133800,note_on,0,0,4,,,,,,,,,3,,,41,42
133920,note_on,4320,0,2,,,,,,,,,1,,,56,40
133920,note_on,0,0,4,,,,,,,,,3,,,42,42
133920,note_on,0,0,2,,,,,,,,,1,,,63,40
133920,note_on,0,0,2,,,,,,,,,1,,,60,40
133920,note_off,120,0,4,,,,,,,,,3,,,41,0
133920,note_on,480,0,1,,,,,,,,,0,,,66,40
134040,note_on,0,0,4,,,,,,,,,3,,,44,43
134040,note_off,120,0,4,,,,,,,,,3,,,42,0
134160,note_on,0,0,4,,,,,,,,,3,,,46,43
134160,note_off,120,0,4,,,,,,,,,3,,,44,0
134280,note_off,120,0,4,,,,,,,,,3,,,46,0
134280,note_on,0,0,4,,,,,,,,,3,,,48,43
134400,note_off,120,0,4,,,,,,,,,3,,,48,0
134400,note_off,0,0,2,,,,,,,,,1,,,63,0
134400,note_off,480,0,2,,,,,,,,,1,,,60,0
134400,note_on,0,0,4,,,,,,,,,3,,,49,43
134400,note_off,480,0,1,,,,,,,,,0,,,66,0
134400,note_off,0,0,2,,,,,,,,,1,,,56,0
134520,note_off,120,0,4,,,,,,,,,3,,,49,0
134520,note_on,0,0,4,,,,,,,,,3,,,51,43
134640,note_off,120,0,4,,,,,,,,,3,,,51,0
134640,note_on,0,0,4,,,,,,,,,3,,,53,44
134760,note_off,120,0,4,,,,,,,,,3,,,53,0
134760,note_on,0,0,4,,,,,,,,,3,,,54,44
134880,note_on,480,0,1,,,,,,,,,0,,,66,43
134880,note_off,120,0,4,,,,,,,,,3,,,54,0
134880,note_on,0,0,4,,,,,,,,,3,,,56,44
134880,note_on,0,0,2,,,,,,,,,1,,,63,43
134880,note_on,480,0,2,,,,,,,,,1,,,60,43
135000,note_off,120,0,4,,,,,,,,,3,,,56,0
135000,note_on,0,0,4,,,,,,,,,3,,,54,44
135120,note_off,120,0,4,,,,,,,,,3,,,54,0
135120,note_on,0,0,4,,,,,,,,,3,,,53,44
135240,note_on,0,0,4,,,,,,,,,3,,,51,45
135240,note_off,120,0,4,,,,,,,,,3,,,53,0
135360,note_off,0,0,2,,,,,,,,,1,,,60,0
135360,note_off,480,0,2,,,,,,,,,1,,,63,0
135360,note_on,0,0,4,,,,,,,,,3,,,49,45
135360,note_off,480,0,1,,,,,,,,,0,,,66,0
135360,note_off,120,0,4,,,,,,,,,3,,,51,0
135480,note_on,0,0,4,,,,,,,,,3,,,48,45
135480,note_off,120,0,4,,,,,,,,,3,,,49,0
135600,note_on,0,0,4,,,,,,,,,3,,,46,45
135600,note_off,120,0,4,,,,,,,,,3,,,48,0
135720,note_off,120,0,4,,,,,,,,,3,,,46,0
135720,note_on,0,0,4,,,,,,,,,3,,,44,45
135840,note_on,480,0,1,,,,,,,,,0,,,68,47
135840,note_on,0,0,2,,,,,,,,,1,,,66,47
135840,note_on,0,0,2,,,,,,,,,1,,,63,47
135840,note_on,480,0,2,,,,,,,,,1,,,60,47
135840,note_off,120,0,4,,,,,,,,,3,,,44,0
135840,note_on,0,0,4,,,,,,,,,3,,,46,46
135960,note_on,0,0,4,,,,,,,,,3,,,44,46
135960,note_off,120,0,4,,,,,,,,,3,,,46,0
136080,note_off,120,0,4,,,,,,,,,3,,,44,0
136080,note_on,0,0,4,,,,,,,,,3,,,46,46
136200,note_on,0,0,4,,,,,,,,,3,,,48,46
136200,note_off,120,0,4,,,,,,,,,3,,,46,0
136320,note_on,0,0,4,,,,,,,,,3,,,49,48
136320,note_off,120,0,4,,,,,,,,,3,,,48,0
136320,note_off,480,0,1,,,,,,,,,0,,,68,0
136320,note_off,480,0,2,,,,,,,,,1,,,66,0
136320,note_off,0,0,2,,,,,,,,,1,,,63,0
136320,note_off,0,0,2,,,,,,,,,1,,,60,0
136440,note_off,120,0,4,,,,,,,,,3,,,49,0
136440,note_on,0,0,4,,,,,,,,,3,,,51,49
136560,note_off,120,0,4,,,,,,,,,3,,,51,0
136560,note_on,0,0,4,,,,,,,,,3,,,53,51
136680,note_on,0,0,4,,,,,,,,,3,,,54,52
136680,note_off,120,0,4,,,,,,,,,3,,,53,0
136800,note_off,120,0,4,,,,,,,,,3,,,54,0
136800,note_on,480,0,2,,,,,,,,,1,,,59,51
136800,note_on,0,0,2,,,,,,,,,1,,,61,51
136800,note_on,0,0,2,,,,,,,,,1,,,65,51
136800,note_on,0,0,4,,,,,,,,,3,,,56,54
136920,note_off,120,0,4,,,,,,,,,3,,,56,0
136920,note_on,0,0,4,,,,,,,,,3,,,57,57
137040,note_off,120,0,4,,,,,,,,,3,,,57,0
137040,note_on,0,0,4,,,,,,,,,3,,,59,60
137160,note_off,120,0,4,,,,,,,,,3,,,59,0
137160,note_on,0,0,4,,,,,,,,,3,,,61,63
137160,set_tempo,7560,1,0,,,,,,517241,,,,,,,
137280,note_off,0,0,2,,,,,,,,,1,,,59,0
137280,note_off,120,0,4,,,,,,,,,3,,,61,0
137280,note_on,0,0,4,,,,,,,,,3,,,62,70
137280,note_off,0,0,2,,,,,,,,,1,,,61,0
137280,note_off,480,0,2,,,,,,,,,1,,,65,0
137400,note_off,120,0,4,,,,,,,,,3,,,62,0
137400,note_on,0,0,4,,,,,,,,,3,,,61,66
137520,note_off,120,0,4,,,,,,,,,3,,,61,0
137520,note_on,0,0,4,,,,,,,,,3,,,59,61
137640,set_tempo,480,1,0,,,,,,526315,,,,,,,
137640,note_on,0,0,4,,,,,,,,,3,,,57,58
137640,note_off,120,0,4,,,,,,,,,3,,,59,0
137760,note_off,120,0,4,,,,,,,,,3,,,57,0
137760,note_on,1440,0,1,,,,,,,,,0,,,69,46
137760,note_on,0,0,4,,,,,,,,,3,,,61,56
137880,note_off,120,0,4,,,,,,,,,3,,,61,0
137880,note_on,0,0,4,,,,,,,,,3,,,59,54
138000,note_off,0,0,4,,,,,,,,,3,,,59,0
138000,note_on,0,0,4,,,,,,,,,3,,,57,52
138000,control_change,720,0,2,,,,,,,64,0,1,,,,
138000,set_tempo,360,1,0,,,,,,535714,,,,,,,
138000,control_change,5040,0,3,,,,,,,64,0,2,,,,
138000,control_change,240,0,1,,,,,,,64,0,0,,,,
138000,control_change,120,0,4,,,,,,,64,0,3,,,,
138120,note_off,120,0,4,,,,,,,,,3,,,57,0
138120,set_tempo,120,1,0,,,,,,550458,,,,,,,
138120,note_off,120,0,1,,,,,,,,,0,,,69,0
138120,note_on,0,0,1,,,,,,,,,0,,,71,48
138120,note_on,0,0,4,,,,,,,,,3,,,56,50
138240,note_off,120,0,1,,,,,,,,,0,,,71,0
138240,note_on,0,0,1,,,,,,,,,0,,,73,51
138240,set_tempo,120,1,0,,,,,,500000,,,,,,,
138240,note_on,0,0,4,,,,,,,,,3,,,42,51
138240,note_on,0,0,4,,,,,,,,,3,,,54,51
138240,note_off,120,0,4,,,,,,,,,3,,,56,0
138480,note_off,240,0,4,,,,,,,,,3,,,54,0
138480,note_on,480,0,3,,,,,,,,,2,,,54,48
138720,note_off,480,0,1,,,,,,,,,0,,,73,0
138720,note_on,720,0,2,,,,,,,,,1,,,61,46
138720,note_on,240,0,3,,,,,,,,,2,,,57,48
138720,note_on,0,0,1,,,,,,,,,0,,,66,46
138944,note_off,224,0,3,,,,,,,,,2,,,54,0
138960,note_on,16,0,3,,,,,,,,,2,,,54,48
139184,note_off,224,0,3,,,,,,,,,2,,,57,0
139200,note_off,480,0,1,,,,,,,,,0,,,66,0
139200,note_on,0,0,2,,,,,,,,,1,,,61,46
139200,note_off,480,0,2,,,,,,,,,1,,,61,0
139200,note_on,0,0,1,,,,,,,,,0,,,65,46
139200,note_on,16,0,3,,,,,,,,,2,,,59,49
139408,note_off,208,0,3,,,,,,,,,2,,,54,0
139440,note_on,32,0,3,,,,,,,,,2,,,54,50
139664,note_off,224,0,3,,,,,,,,,2,,,59,0
139680,note_off,480,0,2,,,,,,,,,1,,,61,0
139680,note_on,0,0,2,,,,,,,,,1,,,61,47
139680,note_on,16,0,3,,,,,,,,,2,,,57,50
139680,note_on,0,0,1,,,,,,,,,0,,,66,47
139680,note_off,480,0,1,,,,,,,,,0,,,65,0
139888,note_off,208,0,3,,,,,,,,,2,,,54,0
139920,note_on,32,0,3,,,,,,,,,2,,,54,51
140040,set_tempo,1800,1,0,,,,,,508474,,,,,,,
140144,note_off,224,0,3,,,,,,,,,2,,,57,0
140160,note_on,0,0,4,,,,,,,,,3,,,47,54
140160,note_off,480,0,2,,,,,,,,,1,,,61,0
140160,note_on,0,0,2,,,,,,,,,1,,,66,52
140160,note_on,0,0,2,,,,,,,,,1,,,62,52
140160,note_on,0,0,1,,,,,,,,,0,,,74,52
140160,note_off,1680,0,4,,,,,,,,,3,,,42,0
140160,note_off,16,0,3,,,,,,,,,2,,,54,0
140160,set_tempo,120,1,0,,,,,,500000,,,,,,,
140160,note_off,480,0,1,,,,,,,,,0,,,66,0
140400,note_on,240,0,3,,,,,,,,,2,,,54,50
140640,note_on,240,0,3,,,,,,,,,2,,,59,51
140848,note_off,208,0,3,,,,,,,,,2,,,54,0
140880,note_on,32,0,3,,,,,,,,,2,,,54,51
141104,note_off,224,0,3,,,,,,,,,2,,,59,0
141120,note_on,16,0,3,,,,,,,,,2,,,59,52
141328,note_off,208,0,3,,,,,,,,,2,,,54,0
141360,note_on,32,0,3,,,,,,,,,2,,,54,53
141584,note_off,224,0,3,,,,,,,,,2,,,59,0
141600,note_on,0,0,2,,,,,,,,,1,,,62,49
141600,note_on,0,0,2,,,,,,,,,1,,,66,49
141600,note_off,0,0,2,,,,,,,,,1,,,66,0
141600,note_on,0,0,4,,,,,,,,,3,,,45,55
141600,note_off,1440,0,4,,,,,,,,,3,,,47,0
141600,note_off,1440,0,2,,,,,,,,,1,,,62,0
141600,note_on,16,0,3,,,,,,,,,2,,,57,54
141600,note_off,1440,0,1,,,,,,,,,0,,,74,0
141600,note_on,0,0,1,,,,,,,,,0,,,74,49
141808,note_off,208,0,3,,,,,,,,,2,,,54,0
141840,note_on,32,0,3,,,,,,,,,2,,,54,55
142020,set_tempo,1860,1,0,,,,,,508474,,,,,,,
142064,note_off,224,0,3,,,,,,,,,2,,,57,0
142080,note_on,0,0,2,,,,,,,,,1,,,71,53
142080,set_tempo,60,1,0,,,,,,500000,,,,,,,
142080,note_off,480,0,1,,,,,,,,,0,,,74,0
142080,note_off,480,0,4,,,,,,,,,3,,,45,0
142080,note_off,480,0,2,,,,,,,,,1,,,62,0
142080,note_off,0,0,2,,,,,,,,,1,,,66,0
142080,note_on,0,0,4,,,,,,,,,3,,,44,56
142080,note_on,0,0,3,,,,,,,,,2,,,56,56
142080,note_off,16,0,3,,,,,,,,,2,,,54,0
142080,note_on,0,0,1,,,,,,,,,0,,,74,48
142160,note_off,80,0,1,,,,,,,,,0,,,74,0
142160,note_on,0,0,1,,,,,,,,,0,,,76,49
142240,note_off,80,0,1,,,,,,,,,0,,,76,0
142240,note_on,0,0,1,,,,,,,,,0,,,74,49
142320,note_on,0,0,1,,,,,,,,,0,,,76,50
142320,note_off,80,0,1,,,,,,,,,0,,,74,0
142320,note_on,240,0,3,,,,,,,,,2,,,52,55
142400,note_off,80,0,1,,,,,,,,,0,,,76,0
142400,note_on,0,0,1,,,,,,,,,0,,,74,50
142480,note_on,0,0,1,,,,,,,,,0,,,76,51
142480,note_off,80,0,1,,,,,,,,,0,,,74,0
142544,note_off,224,0,3,,,,,,,,,2,,,56,0
142560,note_on,0,0,1,,,,,,,,,0,,,74,51
142560,note_off,80,0,1,,,,,,,,,0,,,76,0
142560,note_off,480,0,4,,,,,,,,,3,,,44,0
142560,note_on,16,0,3,,,,,,,,,2,,,54,54
142560,note_on,0,0,4,,,,,,,,,3,,,42,56
142640,note_on,0,0,1,,,,,,,,,0,,,76,52
142640,note_off,80,0,1,,,,,,,,,0,,,74,0
142720,note_off,80,0,1,,,,,,,,,0,,,76,0
142720,note_on,0,0,1,,,,,,,,,0,,,74,52
142768,note_off,208,0,3,,,,,,,,,2,,,52,0
142800,note_off,32,0,3,,,,,,,,,2,,,54,0
142800,note_on,0,0,3,,,,,,,,,2,,,52,53
142800,note_off,80,0,1,,,,,,,,,0,,,74,0
142800,note_on,0,0,1,,,,,,,,,0,,,73,53
142920,note_off,120,0,1,,,,,,,,,0,,,73,0
142920,note_on,0,0,1,,,,,,,,,0,,,74,53
143040,note_on,0,0,2,,,,,,,,,1,,,68,50
143040,note_off,960,0,2,,,,,,,,,1,,,71,0
143040,note_on,0,0,1,,,,,,,,,0,,,76,57
143040,note_off,120,0,1,,,,,,,,,0,,,74,0
143040,note_off,480,0,4,,,,,,,,,3,,,42,0
143040,note_on,0,0,4,,,,,,,,,3,,,40,54
143248,note_off,448,0,3,,,,,,,,,2,,,52,0
143280,note_on,32,0,3,,,,,,,,,2,,,52,50
143520,note_on,0,0,2,,,,,,,,,1,,,64,49
143520,note_off,480,0,2,,,,,,,,,1,,,68,0
143520,note_off,480,0,4,,,,,,,,,3,,,40,0
143520,note_on,0,0,4,,,,,,,,,3,,,44,52
143744,note_off,464,0,3,,,,,,,,,2,,,52,0
143760,note_off,720,0,1,,,,,,,,,0,,,76,0
143760,note_on,0,0,1,,,,,,,,,0,,,71,51
143760,note_on,16,0,3,,,,,,,,,2,,,56,48
143940,set_tempo,1860,1,0,,,,,,508474,,,,,,,
144000,note_on,0,0,3,,,,,,,,,2,,,57,46
144000,note_on,0,0,1,,,,,,,,,0,,,73,49
144000,note_off,240,0,1,,,,,,,,,0,,,71,0
144000,note_off,480,0,2,,,,,,,,,1,,,64,0
144000,note_off,480,0,4,,,,,,,,,3,,,44,0
144000,note_on,0,0,4,,,,,,,,,3,,,45,50
144000,note_off,240,0,3,,,,,,,,,2,,,56,0
144000,set_tempo,60,1,0,,,,,,500000,,,,,,,
144120,note_on,120,0,2,,,,,,,,,1,,,76,51
144240,note_on,0,0,2,,,,,,,,,1,,,73,51
144240,note_off,240,0,1,,,,,,,,,0,,,73,0
144240,note_off,120,0,2,,,,,,,,,1,,,76,0
144360,note_on,0,0,2,,,,,,,,,1,,,76,50
144360,note_off,120,0,2,,,,,,,,,1,,,73,0
144480,note_on,0,0,2,,,,,,,,,1,,,73,49
144480,note_off,120,0,2,,,,,,,,,1,,,76,0
144480,note_off,480,0,3,,,,,,,,,2,,,57,0
144480,note_off,480,0,4,,,,,,,,,3,,,45,0
144600,note_off,120,0,2,,,,,,,,,1,,,73,0
144600,note_on,0,0,2,,,,,,,,,1,,,76,49
144720,note_off,120,0,2,,,,,,,,,1,,,76,0
144720,note_on,0,0,2,,,,,,,,,1,,,73,48
144840,note_off,120,0,2,,,,,,,,,1,,,73,0
144840,note_on,0,0,2,,,,,,,,,1,,,76,48
144960,note_off,120,0,2,,,,,,,,,1,,,76,0
144960,note_on,0,0,2,,,,,,,,,1,,,73,47
144960,note_on,480,0,4,,,,,,,,,3,,,68,46
145080,note_off,120,0,2,,,,,,,,,1,,,73,0
145080,note_on,0,0,2,,,,,,,,,1,,,76,47
145200,note_off,120,0,2,,,,,,,,,1,,,76,0
145200,note_on,0,0,2,,,,,,,,,1,,,73,46
145320,note_off,120,0,2,,,,,,,,,1,,,73,0
145320,note_on,0,0,2,,,,,,,,,1,,,76,46
145440,note_off,120,0,2,,,,,,,,,1,,,76,0
145440,note_off,480,0,4,,,,,,,,,3,,,68,0
145440,note_on,0,0,2,,,,,,,,,1,,,73,45
145560,note_on,0,0,2,,,,,,,,,1,,,76,44
145560,note_off,120,0,2,,,,,,,,,1,,,73,0
145680,note_on,0,0,2,,,,,,,,,1,,,73,44
145680,note_off,120,0,2,,,,,,,,,1,,,76,0
145800,note_on,0,0,2,,,,,,,,,1,,,76,42
145800,note_off,120,0,2,,,,,,,,,1,,,73,0
145920,note_on,0,0,2,,,,,,,,,1,,,73,46
145920,note_off,120,0,2,,,,,,,,,1,,,76,0
145920,note_on,480,0,4,,,,,,,,,3,,,67,41
146040,note_on,0,0,2,,,,,,,,,1,,,75,48
146040,note_off,120,0,2,,,,,,,,,1,,,73,0
146160,note_on,0,0,2,,,,,,,,,1,,,73,50
146160,note_off,120,0,2,,,,,,,,,1,,,75,0
146280,note_on,0,0,2,,,,,,,,,1,,,75,52
146280,set_tempo,2280,1,0,,,,,,508474,,,,,,,
146280,note_off,120,0,2,,,,,,,,,1,,,73,0
146400,note_off,120,0,2,,,,,,,,,1,,,75,0
146400,set_tempo,120,1,0,,,,,,500000,,,,,,,
146400,note_on,0,0,4,,,,,,,,,3,,,47,78
146400,note_off,480,0,4,,,,,,,,,3,,,67,0
146400,note_on,0,0,2,,,,,,,,,1,,,71,54
146520,note_off,120,0,2,,,,,,,,,1,,,71,0
146520,note_on,0,0,2,,,,,,,,,1,,,75,56
146640,note_on,0,0,2,,,,,,,,,1,,,71,59
146640,note_off,120,0,2,,,,,,,,,1,,,75,0
146760,note_off,120,0,2,,,,,,,,,1,,,71,0
146760,note_on,0,0,4,,,,,,,,,3,,,49,80
146760,note_off,360,0,4,,,,,,,,,3,,,47,0
146760,note_on,0,0,2,,,,,,,,,1,,,75,61
146880,note_on,0,0,4,,,,,,,,,3,,,51,83
146880,note_off,120,0,4,,,,,,,,,3,,,49,0
146880,note_off,120,0,2,,,,,,,,,1,,,75,0
146880,note_on,0,0,2,,,,,,,,,1,,,71,63
147000,note_on,0,0,2,,,,,,,,,1,,,75,65
147000,note_off,120,0,2,,,,,,,,,1,,,71,0
147120,note_off,120,0,2,,,,,,,,,1,,,75,0
147120,note_on,0,0,2,,,,,,,,,1,,,71,67
147240,note_off,120,0,2,,,,,,,,,1,,,71,0
147240,note_on,0,0,2,,,,,,,,,1,,,75,69
147360,note_on,3120,0,1,,,,,,,,,0,,,83,90
147360,note_off,120,0,2,,,,,,,,,1,,,75,0
147360,note_on,0,0,2,,,,,,,,,1,,,71,71
147360,note_off,480,0,4,,,,,,,,,3,,,51,0
147360,note_on,0,0,4,,,,,,,,,3,,,44,76
147480,note_on,0,0,2,,,,,,,,,1,,,75,73
147480,note_off,120,0,2,,,,,,,,,1,,,71,0
147600,note_on,0,0,2,,,,,,,,,1,,,71,74
147600,note_off,120,0,2,,,,,,,,,1,,,75,0
147720,note_off,120,0,2,,,,,,,,,1,,,71,0
147720,note_on,0,0,1,,,,,,,,,0,,,85,91
147720,set_tempo,1320,1,0,,,,,,508474,,,,,,,
147720,note_off,360,0,1,,,,,,,,,0,,,83,0
147840,note_on,120,0,2,,,,,,,,,1,,,75,92
147840,note_on,0,0,4,,,,,,,,,3,,,44,76
147840,note_on,0,0,4,,,,,,,,,3,,,56,76
147840,note_off,480,0,4,,,,,,,,,3,,,44,0
147840,note_on,3360,0,3,,,,,,,,,2,,,59,76
147840,set_tempo,120,1,0,,,,,,500000,,,,,,,
147840,note_off,120,0,1,,,,,,,,,0,,,85,0
147840,note_on,0,0,1,,,,,,,,,0,,,87,92
147960,note_on,120,0,3,,,,,,,,,2,,,63,66
148080,note_on,0,0,3,,,,,,,,,2,,,59,66
148080,note_off,0,0,3,,,,,,,,,2,,,59,0
148080,note_off,120,0,3,,,,,,,,,2,,,63,0
148080,note_off,240,0,4,,,,,,,,,3,,,56,0
148080,note_on,0,0,4,,,,,,,,,3,,,56,66
148200,note_on,120,0,3,,,,,,,,,2,,,63,67
148320,note_off,480,0,2,,,,,,,,,1,,,75,0
148320,note_on,0,0,2,,,,,,,,,1,,,68,84
148320,note_off,0,0,3,,,,,,,,,2,,,59,0
148320,note_on,0,0,3,,,,,,,,,2,,,59,67
148320,note_off,240,0,4,,,,,,,,,3,,,56,0
148320,note_on,0,0,1,,,,,,,,,0,,,80,84
148320,note_off,480,0,1,,,,,,,,,0,,,87,0
148320,note_on,0,0,4,,,,,,,,,3,,,56,67
148320,note_off,120,0,3,,,,,,,,,2,,,63,0
148440,note_on,120,0,3,,,,,,,,,2,,,63,67
148560,note_off,240,0,4,,,,,,,,,3,,,56,0
148560,note_off,0,0,3,,,,,,,,,2,,,59,0
148560,note_on,0,0,3,,,,,,,,,2,,,59,68
148560,note_off,120,0,3,,,,,,,,,2,,,63,0
148560,note_on,0,0,4,,,,,,,,,3,,,56,68
148680,note_on,120,0,3,,,,,,,,,2,,,63,68
148800,note_off,240,0,4,,,,,,,,,3,,,56,0
148800,note_on,0,0,4,,,,,,,,,3,,,58,69
148800,note_off,120,0,3,,,,,,,,,2,,,63,0
148800,note_off,0,0,3,,,,,,,,,2,,,59,0
148800,note_on,0,0,2,,,,,,,,,1,,,67,86
148800,note_on,0,0,1,,,,,,,,,0,,,79,86
148800,note_on,0,0,3,,,,,,,,,2,,,61,69
148800,note_off,480,0,1,,,,,,,,,0,,,80,0
148800,note_off,480,0,2,,,,,,,,,1,,,68,0
148920,note_on,120,0,3,,,,,,,,,2,,,63,69
149040,note_off,120,0,3,,,,,,,,,2,,,63,0
149040,note_off,240,0,4,,,,,,,,,3,,,58,0
149040,note_on,0,0,4,,,,,,,,,3,,,58,69
149040,note_off,0,0,3,,,,,,,,,2,,,61,0
149040,note_on,0,0,3,,,,,,,,,2,,,61,69
149160,note_on,120,0,3,,,,,,,,,2,,,63,70
149280,note_on,0,0,1,,,,,,,,,0,,,80,87
149280,note_on,0,0,2,,,,,,,,,1,,,68,87
149280,note_off,240,0,4,,,,,,,,,3,,,58,0
149280,note_on,0,0,4,,,,,,,,,3,,,56,70
149280,note_off,0,0,3,,,,,,,,,2,,,61,0
149280,note_on,0,0,3,,,,,,,,,2,,,59,70
149280,note_off,120,0,3,,,,,,,,,2,,,63,0
149280,note_off,480,0,1,,,,,,,,,0,,,79,0
149280,note_off,480,0,2,,,,,,,,,1,,,67,0
149400,note_on,120,0,3,,,,,,,,,2,,,63,71
149520,note_off,240,0,4,,,,,,,,,3,,,56,0
149520,note_on,0,0,4,,,,,,,,,3,,,56,71
149520,note_on,0,0,3,,,,,,,,,2,,,59,71
149520,note_off,0,0,3,,,,,,,,,2,,,59,0
149520,note_off,120,0,3,,,,,,,,,2,,,63,0
149640,note_on,120,0,3,,,,,,,,,2,,,63,71
149700,set_tempo,1860,1,0,,,,,,508474,,,,,,,
149760,note_on,0,0,3,,,,,,,,,2,,,65,59
149760,note_off,480,0,2,,,,,,,,,1,,,68,0
149760,note_off,0,0,3,,,,,,,,,2,,,59,0
149760,note_off,120,0,3,,,,,,,,,2,,,63,0
149760,note_off,0,0,4,,,,,,,,,3,,,44,0
149760,set_tempo,60,1,0,,,,,,500000,,,,,,,
149760,note_on,0,0,4,,,,,,,,,3,,,62,59
149760,note_off,240,0,4,,,,,,,,,3,,,56,0
149760,note_on,0,0,1,,,,,,,,,0,,,80,57
149760,note_off,480,0,1,,,,,,,,,0,,,80,0
149880,note_off,120,0,1,,,,,,,,,0,,,80,0
149880,note_on,0,0,1,,,,,,,,,0,,,83,57
149881,note_off,1,0,1,,,,,,,,,0,,,83,0
150000,note_on,119,0,1,,,,,,,,,0,,,82,57
150120,note_off,120,0,1,,,,,,,,,0,,,82,0
150120,note_on,0,0,1,,,,,,,,,0,,,80,57
150240,note_off,120,0,1,,,,,,,,,0,,,80,0
150240,note_off,480,0,4,,,,,,,,,3,,,62,0
150240,note_off,480,0,3,,,,,,,,,2,,,65,0
150240,note_on,0,0,1,,,,,,,,,0,,,80,57
150360,note_off,120,0,1,,,,,,,,,0,,,80,0
150360,note_on,0,0,1,,,,,,,,,0,,,83,56
150480,note_off,120,0,1,,,,,,,,,0,,,83,0
150480,note_on,0,0,1,,,,,,,,,0,,,82,56
150600,note_on,0,0,1,,,,,,,,,0,,,80,56
150600,note_off,120,0,1,,,,,,,,,0,,,82,0
150720,note_off,120,0,1,,,,,,,,,0,,,80,0
150720,note_on,0,0,1,,,,,,,,,0,,,80,56
150840,note_off,120,0,1,,,,,,,,,0,,,80,0
150840,note_on,0,0,1,,,,,,,,,0,,,83,56
150960,note_off,120,0,1,,,,,,,,,0,,,83,0
150960,note_on,0,0,1,,,,,,,,,0,,,82,56
151080,note_off,120,0,1,,,,,,,,,0,,,82,0
151080,note_on,0,0,1,,,,,,,,,0,,,80,55
151200,note_on,960,0,4,,,,,,,,,3,,,62,58
151200,note_off,120,0,1,,,,,,,,,0,,,80,0
151200,note_on,0,0,1,,,,,,,,,0,,,80,55
151200,note_on,0,0,4,,,,,,,,,3,,,65,58
151320,note_off,120,0,1,,,,,,,,,0,,,80,0
151320,note_on,0,0,1,,,,,,,,,0,,,83,55
151440,note_on,0,0,1,,,,,,,,,0,,,82,55
151440,note_off,120,0,1,,,,,,,,,0,,,83,0
151560,note_on,0,0,1,,,,,,,,,0,,,80,55
151560,note_on,0,0,4,,,,,,,,,3,,,66,57
151560,note_off,360,0,4,,,,,,,,,3,,,65,0
151560,note_off,120,0,1,,,,,,,,,0,,,82,0
151680,note_off,120,0,4,,,,,,,,,3,,,66,0
151680,note_off,120,0,1,,,,,,,,,0,,,80,0
151680,note_on,0,0,1,,,,,,,,,0,,,80,54
151680,note_on,0,0,4,,,,,,,,,3,,,62,57
151680,note_on,0,0,4,,,,,,,,,3,,,65,57
151680,note_on,0,0,4,,,,,,,,,3,,,68,57
151680,note_off,0,0,4,,,,,,,,,3,,,62,0
151800,note_on,0,0,1,,,,,,,,,0,,,83,54
151800,note_off,120,0,1,,,,,,,,,0,,,80,0
151920,note_off,120,0,1,,,,,,,,,0,,,83,0
151920,note_on,0,0,1,,,,,,,,,0,,,82,54
152040,note_off,120,0,1,,,,,,,,,0,,,82,0
152040,note_on,0,0,1,,,,,,,,,0,,,80,54
152160,note_off,480,0,4,,,,,,,,,3,,,68,0
152160,note_off,0,0,4,,,,,,,,,3,,,62,0
152160,note_off,0,0,4,,,,,,,,,3,,,65,0
152160,note_on,0,0,1,,,,,,,,,0,,,83,54
152160,note_off,120,0,1,,,,,,,,,0,,,80,0
152280,note_off,120,0,1,,,,,,,,,0,,,83,0
152280,note_on,0,0,1,,,,,,,,,0,,,80,54
152400,note_on,0,0,1,,,,,,,,,0,,,78,53
152400,note_off,120,0,1,,,,,,,,,0,,,80,0
152520,note_on,0,0,1,,,,,,,,,0,,,77,53
152520,note_off,120,0,1,,,,,,,,,0,,,78,0
152640,note_on,0,0,1,,,,,,,,,0,,,83,53
152640,note_off,120,0,1,,,,,,,,,0,,,77,0
152760,note_on,0,0,1,,,,,,,,,0,,,80,53
152760,note_off,120,0,1,,,,,,,,,0,,,83,0
152880,note_on,0,0,1,,,,,,,,,0,,,78,53
152880,note_off,120,0,1,,,,,,,,,0,,,80,0
153000,note_off,120,0,1,,,,,,,,,0,,,78,0
153000,note_on,0,0,1,,,,,,,,,0,,,77,52
153120,note_on,0,0,1,,,,,,,,,0,,,82,52
153120,note_off,120,0,1,,,,,,,,,0,,,77,0
153120,note_on,0,0,4,,,,,,,,,3,,,65,55
153120,note_on,960,0,4,,,,,,,,,3,,,62,55
153240,note_on,0,0,1,,,,,,,,,0,,,80,52
153240,note_off,120,0,1,,,,,,,,,0,,,82,0
153360,note_off,120,0,1,,,,,,,,,0,,,80,0
153360,note_on,0,0,1,,,,,,,,,0,,,78,52
153480,note_off,360,0,4,,,,,,,,,3,,,65,0
153480,note_on,0,0,1,,,,,,,,,0,,,77,52
153480,note_on,0,0,4,,,,,,,,,3,,,70,55
153480,note_off,120,0,1,,,,,,,,,0,,,78,0
153600,note_off,120,0,4,,,,,,,,,3,,,70,0
153600,note_off,0,0,4,,,,,,,,,3,,,62,0
153600,note_on,0,0,4,,,,,,,,,3,,,66,55
153600,note_on,0,0,4,,,,,,,,,3,,,63,55
153600,note_off,120,0,1,,,,,,,,,0,,,77,0
153600,note_on,0,0,1,,,,,,,,,0,,,78,52
153720,note_off,120,0,1,,,,,,,,,0,,,78,0
153720,note_on,0,0,1,,,,,,,,,0,,,82,51
153840,note_on,0,0,1,,,,,,,,,0,,,80,51
153840,note_off,120,0,1,,,,,,,,,0,,,82,0
153840,note_off,240,0,4,,,,,,,,,3,,,63,0
153840,note_off,0,0,4,,,,,,,,,3,,,66,0
153960,note_off,120,0,1,,,,,,,,,0,,,80,0
153960,note_on,0,0,1,,,,,,,,,0,,,78,51
154080,note_off,120,0,1,,,,,,,,,0,,,78,0
154080,note_on,0,0,1,,,,,,,,,0,,,80,51
154080,note_on,240,0,4,,,,,,,,,3,,,51,54
154080,note_on,0,0,4,,,,,,,,,3,,,54,54
154200,note_off,120,0,1,,,,,,,,,0,,,80,0
154200,note_on,0,0,1,,,,,,,,,0,,,78,51
154320,note_on,0,0,1,,,,,,,,,0,,,77,50
154320,note_off,120,0,1,,,,,,,,,0,,,78,0
154440,note_on,0,0,1,,,,,,,,,0,,,75,50
154440,note_on,0,0,4,,,,,,,,,3,,,58,54
154440,note_off,120,0,1,,,,,,,,,0,,,77,0
154440,note_off,360,0,4,,,,,,,,,3,,,54,0
154560,note_off,0,0,4,,,,,,,,,3,,,51,0
154560,note_off,120,0,4,,,,,,,,,3,,,58,0
154560,note_off,120,0,1,,,,,,,,,0,,,75,0
154560,note_on,0,0,1,,,,,,,,,0,,,74,50
154560,note_on,0,0,4,,,,,,,,,3,,,56,54
154560,note_on,0,0,4,,,,,,,,,3,,,53,54
154680,note_on,0,0,1,,,,,,,,,0,,,77,50
154680,note_off,120,0,1,,,,,,,,,0,,,74,0
154800,note_off,0,0,4,,,,,,,,,3,,,53,0
154800,note_on,0,0,1,,,,,,,,,0,,,75,50
154800,note_off,120,0,1,,,,,,,,,0,,,77,0
154800,note_off,240,0,4,,,,,,,,,3,,,56,0
154920,note_on,0,0,1,,,,,,,,,0,,,74,50
154920,note_off,120,0,1,,,,,,,,,0,,,75,0
155040,note_on,240,0,4,,,,,,,,,3,,,62,53
155040,note_on,0,0,4,,,,,,,,,3,,,65,53
155040,note_on,0,0,1,,,,,,,,,0,,,82,49
155040,note_off,120,0,1,,,,,,,,,0,,,74,0
155160,note_on,0,0,1,,,,,,,,,0,,,80,49
155160,note_off,120,0,1,,,,,,,,,0,,,82,0
155280,note_on,0,0,1,,,,,,,,,0,,,78,49
155280,note_off,120,0,1,,,,,,,,,0,,,80,0
155400,note_off,360,0,4,,,,,,,,,3,,,65,0
155400,note_off,120,0,1,,,,,,,,,0,,,78,0
155400,note_on,0,0,1,,,,,,,,,0,,,77,49
155400,note_on,0,0,4,,,,,,,,,3,,,70,52
155520,note_on,0,0,1,,,,,,,,,0,,,78,49
155520,note_off,120,0,4,,,,,,,,,3,,,70,0
155520,note_off,0,0,4,,,,,,,,,3,,,62,0
155520,note_on,0,0,4,,,,,,,,,3,,,66,52
155520,note_on,0,0,4,,,,,,,,,3,,,63,52
155520,note_off,120,0,1,,,,,,,,,0,,,77,0
155640,note_off,120,0,1,,,,,,,,,0,,,78,0
155640,note_on,0,0,1,,,,,,,,,0,,,82,48
155760,note_off,0,0,4,,,,,,,,,3,,,66,0
155760,note_off,240,0,4,,,,,,,,,3,,,63,0
155760,note_off,120,0,1,,,,,,,,,0,,,82,0
155760,note_on,0,0,1,,,,,,,,,0,,,80,48
155880,note_on,0,0,1,,,,,,,,,0,,,78,48
155880,note_off,120,0,1,,,,,,,,,0,,,80,0
156000,note_off,120,0,1,,,,,,,,,0,,,78,0
156000,note_on,240,0,4,,,,,,,,,3,,,51,52
156000,note_on,0,0,4,,,,,,,,,3,,,54,52
156000,note_on,0,0,1,,,,,,,,,0,,,80,48
156120,note_off,120,0,1,,,,,,,,,0,,,80,0
156120,note_on,0,0,1,,,,,,,,,0,,,78,48
156240,note_off,120,0,1,,,,,,,,,0,,,78,0
156240,note_on,0,0,1,,,,,,,,,0,,,77,48
156360,note_off,120,0,1,,,,,,,,,0,,,77,0
156360,note_on,0,0,4,,,,,,,,,3,,,58,51
156360,note_off,360,0,4,,,,,,,,,3,,,54,0
156360,note_on,0,0,1,,,,,,,,,0,,,75,47
156480,note_off,120,0,1,,,,,,,,,0,,,75,0
156480,note_on,0,0,1,,,,,,,,,0,,,72,47
156480,note_on,0,0,4,,,,,,,,,3,,,51,51
156480,note_on,0,0,4,,,,,,,,,3,,,54,51
156480,note_off,0,0,4,,,,,,,,,3,,,51,0
156480,note_off,120,0,4,,,,,,,,,3,,,58,0
156600,note_on,0,0,1,,,,,,,,,0,,,75,47
156600,note_off,120,0,1,,,,,,,,,0,,,72,0
156720,note_off,0,0,4,,,,,,,,,3,,,54,0
156720,note_on,0,0,1,,,,,,,,,0,,,73,47
156720,note_off,120,0,1,,,,,,,,,0,,,75,0
156720,note_off,240,0,4,,,,,,,,,3,,,51,0
156840,note_on,0,0,1,,,,,,,,,0,,,72,47
156840,note_off,120,0,1,,,,,,,,,0,,,73,0
156960,note_off,120,0,1,,,,,,,,,0,,,72,0
156960,note_on,0,0,4,,,,,,,,,3,,,63,51
156960,note_on,0,0,1,,,,,,,,,0,,,80,46
156960,note_on,240,0,4,,,,,,,,,3,,,60,51
157080,note_off,120,0,1,,,,,,,,,0,,,80,0
157080,note_on,0,0,1,,,,,,,,,0,,,78,46
157200,note_on,0,0,1,,,,,,,,,0,,,76,46
157200,note_off,120,0,1,,,,,,,,,0,,,78,0
157320,note_on,0,0,1,,,,,,,,,0,,,75,46
157320,note_off,120,0,1,,,,,,,,,0,,,76,0
157320,note_on,0,0,4,,,,,,,,,3,,,68,50
157320,note_off,360,0,4,,,,,,,,,3,,,63,0
157440,note_on,0,0,4,,,,,,,,,3,,,61,50
157440,note_off,120,0,1,,,,,,,,,0,,,75,0
157440,note_on,0,0,4,,,,,,,,,3,,,64,50
157440,note_off,120,0,4,,,,,,,,,3,,,68,0
157440,note_on,0,0,1,,,,,,,,,0,,,76,46
157447,note_off,7,0,4,,,,,,,,,3,,,60,0
157560,note_on,0,0,1,,,,,,,,,0,,,80,45
157560,note_off,120,0,1,,,,,,,,,0,,,76,0
157680,note_off,120,0,1,,,,,,,,,0,,,80,0
157680,note_off,0,0,4,,,,,,,,,3,,,64,0
157680,note_off,233,0,4,,,,,,,,,3,,,61,0
157680,note_on,0,0,1,,,,,,,,,0,,,78,45
157800,note_on,0,0,1,,,,,,,,,0,,,76,45
157800,note_off,120,0,1,,,,,,,,,0,,,78,0
157920,note_on,240,0,4,,,,,,,,,3,,,49,49
157920,note_on,0,0,4,,,,,,,,,3,,,52,49
157920,note_on,0,0,1,,,,,,,,,0,,,78,45
157920,note_off,120,0,1,,,,,,,,,0,,,76,0
158040,note_on,0,0,1,,,,,,,,,0,,,76,45
158040,note_off,120,0,1,,,,,,,,,0,,,78,0
158160,note_on,0,0,1,,,,,,,,,0,,,75,45
158160,note_off,120,0,1,,,,,,,,,0,,,76,0
158280,note_on,0,0,1,,,,,,,,,0,,,73,44
158280,note_off,120,0,1,,,,,,,,,0,,,75,0
158280,note_on,0,0,4,,,,,,,,,3,,,56,49
158280,note_off,360,0,4,,,,,,,,,3,,,52,0
158400,note_off,120,0,4,,,,,,,,,3,,,56,0
158400,note_on,0,0,4,,,,,,,,,3,,,54,49
158400,note_on,0,0,4,,,,,,,,,3,,,51,49
158400,note_off,120,0,1,,,,,,,,,0,,,73,0
158400,note_on,0,0,1,,,,,,,,,0,,,72,44
158400,note_off,0,0,4,,,,,,,,,3,,,49,0
158520,note_off,120,0,1,,,,,,,,,0,,,72,0
158520,note_on,0,0,1,,,,,,,,,0,,,75,44
158640,note_off,240,0,4,,,,,,,,,3,,,51,0
158640,note_off,0,0,4,,,,,,,,,3,,,54,0
158640,note_off,120,0,1,,,,,,,,,0,,,75,0
158640,note_on,0,0,1,,,,,,,,,0,,,73,44
158760,note_on,0,0,1,,,,,,,,,0,,,72,44
158760,note_off,120,0,1,,,,,,,,,0,,,73,0
158880,note_on,0,0,4,,,,,,,,,3,,,63,48
158880,note_on,240,0,4,,,,,,,,,3,,,60,48
158880,note_on,0,0,1,,,,,,,,,0,,,80,43
158880,note_off,120,0,1,,,,,,,,,0,,,72,0
159000,note_on,0,0,1,,,,,,,,,0,,,78,43
159000,note_off,120,0,1,,,,,,,,,0,,,80,0
159120,note_on,0,0,1,,,,,,,,,0,,,76,43
159120,note_off,120,0,1,,,,,,,,,0,,,78,0
159240,note_on,0,0,1,,,,,,,,,0,,,75,43
159240,note_off,120,0,1,,,,,,,,,0,,,76,0
159240,note_off,360,0,4,,,,,,,,,3,,,63,0
159240,note_on,0,0,4,,,,,,,,,3,,,68,48
159360,note_off,120,0,1,,,,,,,,,0,,,75,0
159360,note_on,0,0,1,,,,,,,,,0,,,76,43
159360,note_off,120,0,4,,,,,,,,,3,,,68,0
159360,note_off,0,0,4,,,,,,,,,3,,,60,0
159360,note_on,0,0,4,,,,,,,,,3,,,64,48
159360,note_on,0,0,4,,,,,,,,,3,,,61,48
159480,note_off,120,0,1,,,,,,,,,0,,,76,0
159480,note_on,0,0,1,,,,,,,,,0,,,80,43
159600,note_off,0,0,4,,,,,,,,,3,,,64,0
159600,note_off,120,0,1,,,,,,,,,0,,,80,0
159600,note_on,0,0,1,,,,,,,,,0,,,78,42
159600,note_off,240,0,4,,,,,,,,,3,,,61,0
159720,note_off,120,0,1,,,,,,,,,0,,,78,0
159720,note_on,0,0,1,,,,,,,,,0,,,76,42
159840,note_on,0,0,4,,,,,,,,,3,,,52,47
159840,note_off,120,0,1,,,,,,,,,0,,,76,0
159840,note_on,0,0,1,,,,,,,,,0,,,78,42
159840,note_on,240,0,4,,,,,,,,,3,,,49,47
159960,note_on,0,0,1,,,,,,,,,0,,,76,42
159960,note_off,120,0,1,,,,,,,,,0,,,78,0
160080,note_on,0,0,1,,,,,,,,,0,,,75,42
160080,note_off,120,0,1,,,,,,,,,0,,,76,0
160200,note_off,360,0,4,,,,,,,,,3,,,52,0
160200,note_on,0,0,4,,,,,,,,,3,,,56,47
160200,note_on,0,0,1,,,,,,,,,0,,,73,41
160200,note_off,120,0,1,,,,,,,,,0,,,75,0
160305,note_off,105,0,4,,,,,,,,,3,,,49,0
160320,note_on,0,0,1,,,,,,,,,0,,,70,41
160320,note_on,0,0,4,,,,,,,,,3,,,54,46
160320,note_off,120,0,1,,,,,,,,,0,,,73,0
160320,note_on,0,0,4,,,,,,,,,3,,,52,46
160320,note_on,0,0,4,,,,,,,,,3,,,49,46
160320,note_off,15,0,4,,,,,,,,,3,,,56,0
160440,note_on,0,0,1,,,,,,,,,0,,,73,41
160440,note_off,120,0,1,,,,,,,,,0,,,70,0
160560,note_off,0,0,4,,,,,,,,,3,,,49,0
160560,note_off,0,0,4,,,,,,,,,3,,,54,0
160560,note_on,0,0,1,,,,,,,,,0,,,71,41
160560,note_off,120,0,1,,,,,,,,,0,,,73,0
160560,note_off,240,0,4,,,,,,,,,3,,,52,0
160680,note_off,120,0,1,,,,,,,,,0,,,71,0
160680,note_on,0,0,1,,,,,,,,,0,,,70,41
160800,note_on,240,0,4,,,,,,,,,3,,,58,46
160800,note_off,120,0,1,,,,,,,,,0,,,70,0
160800,note_on,0,0,4,,,,,,,,,3,,,61,46
160800,note_on,0,0,1,,,,,,,,,0,,,78,41
160920,note_off,120,0,1,,,,,,,,,0,,,78,0
160920,note_on,0,0,1,,,,,,,,,0,,,76,40
161040,note_off,120,0,1,,,,,,,,,0,,,76,0
161040,note_on,0,0,1,,,,,,,,,0,,,75,40
161160,note_on,0,0,4,,,,,,,,,3,,,66,45
161160,note_off,360,0,4,,,,,,,,,3,,,61,0
161160,note_on,0,0,1,,,,,,,,,0,,,73,40
161160,note_off,120,0,1,,,,,,,,,0,,,75,0
161280,note_off,120,0,1,,,,,,,,,0,,,73,0
161280,note_on,0,0,4,,,,,,,,,3,,,63,45
161280,note_on,0,0,4,,,,,,,,,3,,,59,45
161280,note_off,120,0,4,,,,,,,,,3,,,66,0
161280,note_on,0,0,1,,,,,,,,,0,,,71,40
161287,note_off,7,0,4,,,,,,,,,3,,,58,0
161400,note_off,120,0,1,,,,,,,,,0,,,71,0
161400,note_on,0,0,1,,,,,,,,,0,,,75,40
161520,note_off,120,0,1,,,,,,,,,0,,,75,0
161520,note_on,0,0,1,,,,,,,,,0,,,73,39
161520,note_off,233,0,4,,,,,,,,,3,,,59,0
161520,note_off,0,0,4,,,,,,,,,3,,,63,0
161640,note_off,120,0,1,,,,,,,,,0,,,73,0
161640,note_on,0,0,1,,,,,,,,,0,,,71,39
161760,note_on,0,0,1,,,,,,,,,0,,,78,39
161760,note_on,0,0,4,,,,,,,,,3,,,49,45
161760,note_on,240,0,4,,,,,,,,,3,,,46,45
161760,note_off,120,0,1,,,,,,,,,0,,,71,0
161880,note_on,0,0,1,,,,,,,,,0,,,76,39
161880,note_off,120,0,1,,,,,,,,,0,,,78,0
162000,note_on,0,0,1,,,,,,,,,0,,,75,39
162000,note_off,120,0,1,,,,,,,,,0,,,76,0
162120,note_off,360,0,4,,,,,,,,,3,,,49,0
162120,note_on,0,0,4,,,,,,,,,3,,,54,44
162120,note_on,0,0,1,,,,,,,,,0,,,73,38
162120,note_off,120,0,1,,,,,,,,,0,,,75,0
162240,note_off,120,0,1,,,,,,,,,0,,,73,0
162240,note_on,0,0,4,,,,,,,,,3,,,51,44
162240,note_off,120,0,4,,,,,,,,,3,,,54,0
162240,note_on,0,0,1,,,,,,,,,0,,,71,38
162240,note_on,0,0,4,,,,,,,,,3,,,47,44
162247,note_off,7,0,4,,,,,,,,,3,,,46,0
162360,note_on,0,0,1,,,,,,,,,0,,,75,38
162360,note_off,120,0,1,,,,,,,,,0,,,71,0
162480,note_off,120,0,1,,,,,,,,,0,,,75,0
162480,note_on,0,0,1,,,,,,,,,0,,,73,38
162480,note_off,233,0,4,,,,,,,,,3,,,51,0
162480,note_off,0,0,4,,,,,,,,,3,,,47,0
162600,note_off,120,0,1,,,,,,,,,0,,,73,0
162600,note_on,0,0,1,,,,,,,,,0,,,71,38
162720,note_on,240,0,4,,,,,,,,,3,,,66,44
162720,note_off,120,0,1,,,,,,,,,0,,,71,0
162720,note_on,0,0,1,,,,,,,,,0,,,78,40
162840,note_on,0,0,1,,,,,,,,,0,,,76,43
162840,note_off,120,0,4,,,,,,,,,3,,,66,0
162840,note_on,0,0,4,,,,,,,,,3,,,64,45
162840,note_off,120,0,1,,,,,,,,,0,,,78,0
162960,note_off,120,0,4,,,,,,,,,3,,,64,0
162960,note_off,120,0,1,,,,,,,,,0,,,76,0
162960,note_on,0,0,1,,,,,,,,,0,,,75,45
162960,note_on,0,0,4,,,,,,,,,3,,,63,46
163080,note_off,120,0,4,,,,,,,,,3,,,63,0
163080,note_on,0,0,4,,,,,,,,,3,,,61,47
163080,note_off,120,0,1,,,,,,,,,0,,,75,0
163080,note_on,0,0,1,,,,,,,,,0,,,73,45
163200,note_on,0,0,1,,,,,,,,,0,,,71,46
163200,note_off,120,0,1,,,,,,,,,0,,,73,0
163200,note_on,0,0,4,,,,,,,,,3,,,59,48
163200,note_off,120,0,4,,,,,,,,,3,,,61,0
163320,note_on,0,0,1,,,,,,,,,0,,,75,47
163320,note_off,120,0,1,,,,,,,,,0,,,71,0
163440,note_off,240,0,4,,,,,,,,,3,,,59,0
163440,note_off,120,0,1,,,,,,,,,0,,,75,0
163440,note_on,0,0,1,,,,,,,,,0,,,73,48
163560,note_off,120,0,1,,,,,,,,,0,,,73,0
163560,note_on,0,0,1,,,,,,,,,0,,,71,49
163680,note_off,120,0,1,,,,,,,,,0,,,71,0
163680,note_on,0,0,1,,,,,,,,,0,,,83,52
163680,note_on,240,0,4,,,,,,,,,3,,,71,52
163800,note_off,120,0,1,,,,,,,,,0,,,83,0
163800,note_on,0,0,1,,,,,,,,,0,,,82,51
163800,note_off,120,0,4,,,,,,,,,3,,,71,0
163800,note_on,0,0,4,,,,,,,,,3,,,70,53
163920,note_off,120,0,4,,,,,,,,,3,,,70,0
163920,note_on,0,0,4,,,,,,,,,3,,,68,54
163920,note_off,120,0,1,,,,,,,,,0,,,82,0
163920,note_on,0,0,1,,,,,,,,,0,,,80,52
164040,note_off,120,0,1,,,,,,,,,0,,,80,0
164040,note_off,120,0,4,,,,,,,,,3,,,68,0
164040,note_on,0,0,1,,,,,,,,,0,,,78,53
164040,note_on,0,0,4,,,,,,,,,3,,,66,55
164160,note_off,120,0,4,,,,,,,,,3,,,66,0
164160,note_on,0,0,4,,,,,,,,,3,,,65,56
164160,note_on,0,0,1,,,,,,,,,0,,,77,54
164160,note_off,120,0,1,,,,,,,,,0,,,78,0
164280,note_on,0,0,1,,,,,,,,,0,,,80,55
164280,note_off,120,0,1,,,,,,,,,0,,,77,0
164400,note_off,120,0,1,,,,,,,,,0,,,80,0
164400,note_off,240,0,4,,,,,,,,,3,,,65,0
164400,note_on,0,0,1,,,,,,,,,0,,,78,56
164520,note_on,0,0,1,,,,,,,,,0,,,77,57
164520,note_off,120,0,1,,,,,,,,,0,,,78,0
164640,note_off,120,0,1,,,,,,,,,0,,,77,0
164640,note_on,240,0,4,,,,,,,,,3,,,71,60
164640,note_on,0,0,1,,,,,,,,,0,,,83,60
164760,note_on,0,0,1,,,,,,,,,0,,,82,59
164760,note_off,120,0,1,,,,,,,,,0,,,83,0
164760,note_off,120,0,4,,,,,,,,,3,,,71,0
164760,note_on,0,0,4,,,,,,,,,3,,,70,61
164880,note_off,120,0,1,,,,,,,,,0,,,82,0
164880,note_off,120,0,4,,,,,,,,,3,,,70,0
164880,note_on,0,0,4,,,,,,,,,3,,,68,62
164880,note_on,0,0,1,,,,,,,,,0,,,80,60
165000,note_off,120,0,1,,,,,,,,,0,,,80,0
165000,note_on,0,0,1,,,,,,,,,0,,,78,61
165000,note_on,0,0,4,,,,,,,,,3,,,66,63
165000,note_off,120,0,4,,,,,,,,,3,,,68,0
165120,note_off,120,0,4,,,,,,,,,3,,,66,0
165120,note_on,0,0,4,,,,,,,,,3,,,65,64
165120,note_off,120,0,1,,,,,,,,,0,,,78,0
165120,note_on,0,0,1,,,,,,,,,0,,,77,62
165240,note_on,0,0,1,,,,,,,,,0,,,80,63
165240,note_off,120,0,1,,,,,,,,,0,,,77,0
165360,note_off,120,0,1,,,,,,,,,0,,,80,0
165360,note_on,0,0,1,,,,,,,,,0,,,78,64
165360,note_off,240,0,4,,,,,,,,,3,,,65,0
165480,note_off,120,0,1,,,,,,,,,0,,,78,0
165480,note_on,0,0,1,,,,,,,,,0,,,77,65
165540,set_tempo,15780,1,0,,,,,,504201,,,,,,,
165600,note_off,120,0,1,,,,,,,,,0,,,77,0
165600,note_on,0,0,1,,,,,,,,,0,,,87,66
165600,set_tempo,60,1,0,,,,,,500000,,,,,,,
165600,note_on,240,0,4,,,,,,,,,3,,,75,68
165720,note_on,0,0,1,,,,,,,,,0,,,85,67
165720,note_off,120,0,1,,,,,,,,,0,,,87,0
165720,note_on,0,0,4,,,,,,,,,3,,,73,69
165720,note_off,120,0,4,,,,,,,,,3,,,75,0
165840,note_off,120,0,4,,,,,,,,,3,,,73,0
165840,note_off,120,0,1,,,,,,,,,0,,,85,0
165840,note_on,0,0,1,,,,,,,,,0,,,83,68
165840,note_on,0,0,4,,,,,,,,,3,,,71,70
165960,note_on,0,0,1,,,,,,,,,0,,,82,69
165960,note_on,0,0,4,,,,,,,,,3,,,70,71
165960,note_off,120,0,1,,,,,,,,,0,,,83,0
165960,note_off,120,0,4,,,,,,,,,3,,,71,0
166080,note_off,120,0,4,,,,,,,,,3,,,70,0
166080,note_off,120,0,1,,,,,,,,,0,,,82,0
166080,note_on,0,0,1,,,,,,,,,0,,,80,70
166080,note_on,0,0,4,,,,,,,,,3,,,68,72
166200,note_on,0,0,1,,,,,,,,,0,,,83,71
166200,note_off,120,0,1,,,,,,,,,0,,,80,0
166200,note_on,0,0,4,,,,,,,,,3,,,71,73
166200,note_off,120,0,4,,,,,,,,,3,,,68,0
166320,note_off,120,0,1,,,,,,,,,0,,,83,0
166320,note_on,0,0,1,,,,,,,,,0,,,82,72
166320,note_off,120,0,4,,,,,,,,,3,,,71,0
166320,note_on,0,0,4,,,,,,,,,3,,,70,74
166440,note_on,0,0,4,,,,,,,,,3,,,68,75
166440,note_off,120,0,4,,,,,,,,,3,,,70,0
166440,note_off,120,0,1,,,,,,,,,0,,,82,0
166440,note_on,0,0,1,,,,,,,,,0,,,80,73
166560,note_off,120,0,1,,,,,,,,,0,,,80,0
166560,note_on,0,0,4,,,,,,,,,3,,,66,76
166560,note_on,0,0,1,,,,,,,,,0,,,78,74
166560,note_off,120,0,4,,,,,,,,,3,,,68,0
166680,note_off,120,0,4,,,,,,,,,3,,,66,0
166680,note_on,0,0,4,,,,,,,,,3,,,65,77
166680,note_on,0,0,1,,,,,,,,,0,,,77,75
166680,note_off,120,0,1,,,,,,,,,0,,,78,0
166800,note_off,120,0,1,,,,,,,,,0,,,77,0
166800,note_on,0,0,4,,,,,,,,,3,,,63,78
166800,note_on,0,0,1,,,,,,,,,0,,,75,76
166800,note_off,120,0,4,,,,,,,,,3,,,65,0
166920,note_off,120,0,4,,,,,,,,,3,,,63,0
166920,note_on,0,0,4,,,,,,,,,3,,,61,79
166920,note_off,120,0,1,,,,,,,,,0,,,75,0
166920,note_on,0,0,1,,,,,,,,,0,,,73,77
167040,note_on,0,0,1,,,,,,,,,0,,,71,76
167040,note_off,120,0,4,,,,,,,,,3,,,61,0
167040,note_on,0,0,4,,,,,,,,,3,,,59,78
167040,note_off,120,0,1,,,,,,,,,0,,,73,0
167160,note_off,120,0,1,,,,,,,,,0,,,71,0
167160,note_on,0,0,1,,,,,,,,,0,,,75,78
167160,note_off,120,0,4,,,,,,,,,3,,,59,0
167160,note_on,0,0,4,,,,,,,,,3,,,63,80
167280,note_on,0,0,4,,,,,,,,,3,,,61,81
167280,note_off,120,0,1,,,,,,,,,0,,,75,0
167280,note_on,0,0,1,,,,,,,,,0,,,73,79
167280,note_off,120,0,4,,,,,,,,,3,,,63,0
167400,note_off,120,0,4,,,,,,,,,3,,,61,0
167400,note_on,0,0,4,,,,,,,,,3,,,59,82
167400,note_on,0,0,1,,,,,,,,,0,,,71,81
167400,note_off,120,0,1,,,,,,,,,0,,,73,0
167520,note_on,0,0,4,,,,,,,,,3,,,58,83
167520,note_off,120,0,4,,,,,,,,,3,,,59,0
167520,note_on,0,0,1,,,,,,,,,0,,,70,82
167520,note_off,120,0,1,,,,,,,,,0,,,71,0
167640,note_on,0,0,1,,,,,,,,,0,,,68,83
167640,note_off,120,0,1,,,,,,,,,0,,,70,0
167640,note_on,0,0,4,,,,,,,,,3,,,56,85
167640,note_off,120,0,4,,,,,,,,,3,,,58,0
167760,note_on,0,0,4,,,,,,,,,3,,,54,86
167760,note_off,120,0,4,,,,,,,,,3,,,56,0
167760,note_on,120,0,1,,,,,,,,,0,,,66,85
167768,note_off,8,0,1,,,,,,,,,0,,,68,0
167880,note_on,0,0,4,,,,,,,,,3,,,53,87
167880,note_off,120,0,4,,,,,,,,,3,,,54,0
167880,note_on,0,0,1,,,,,,,,,0,,,65,86
167880,note_off,112,0,1,,,,,,,,,0,,,66,0
167940,set_tempo,2340,1,0,,,,,,504201,,,,,,,
168000,note_off,120,0,1,,,,,,,,,0,,,65,0
168000,note_on,0,0,1,,,,,,,,,0,,,71,88
168000,note_off,120,0,4,,,,,,,,,3,,,53,0
168000,note_on,0,0,4,,,,,,,,,3,,,59,88
168120,note_off,120,0,1,,,,,,,,,0,,,71,0
168120,note_off,120,0,4,,,,,,,,,3,,,59,0
168120,note_on,0,0,4,,,,,,,,,3,,,58,90
168120,note_on,0,0,1,,,,,,,,,0,,,70,89
168226,note_on,106,0,1,,,,,,,,,0,,,68,90
168240,note_off,14,0,1,,,,,,,,,0,,,70,0
168240,note_off,120,0,4,,,,,,,,,3,,,58,0
168240,note_on,0,0,4,,,,,,,,,3,,,56,91
168346,note_off,106,0,1,,,,,,,,,0,,,68,0
168360,note_on,14,0,1,,,,,,,,,0,,,66,92
168360,note_on,0,0,4,,,,,,,,,3,,,54,92
168360,note_off,120,0,4,,,,,,,,,3,,,56,0
168480,note_on,0,0,4,,,,,,,,,3,,,53,93
168480,note_off,120,0,1,,,,,,,,,0,,,66,0
168480,note_on,0,0,1,,,,,,,,,0,,,65,93
168480,note_off,120,0,4,,,,,,,,,3,,,54,0
168600,note_off,120,0,1,,,,,,,,,0,,,65,0
168600,note_on,0,0,1,,,,,,,,,0,,,63,95
168600,note_on,0,0,4,,,,,,,,,3,,,51,95
168600,note_off,120,0,4,,,,,,,,,3,,,53,0
168720,note_off,120,0,1,,,,,,,,,0,,,63,0
168720,note_on,0,0,4,,,,,,,,,3,,,49,96
168720,set_tempo,780,1,0,,,,,,508474,,,,,,,
168720,note_off,120,0,4,,,,,,,,,3,,,51,0
168720,note_on,0,0,1,,,,,,,,,0,,,61,96
168840,set_tempo,120,1,0,,,,,,526315,,,,,,,
168840,note_off,120,0,4,,,,,,,,,3,,,49,0
168840,note_on,0,0,4,,,,,,,,,3,,,48,98
168840,note_on,0,0,1,,,,,,,,,0,,,60,97
168840,note_off,120,0,1,,,,,,,,,0,,,61,0
168960,note_off,120,0,1,,,,,,,,,0,,,60,0
168960,note_on,0,0,1,,,,,,,,,0,,,61,107
168960,set_tempo,120,1,0,,,,,,508474,,,,,,,
168960,note_off,120,0,4,,,,,,,,,3,,,48,0
168960,note_on,0,0,4,,,,,,,,,3,,,49,105
169920,note_on,960,0,1,,,,,,,,,0,,,65,96
169920,note_on,960,0,4,,,,,,,,,3,,,53,95
170820,set_tempo,1860,1,0,,,,,,508474,,,,,,,
170880,set_tempo,60,1,0,,,,,,500000,,,,,,,
170880,note_off,960,0,4,,,,,,,,,3,,,53,0
170880,note_off,0,0,4,,,,,,,,,3,,,49,0
170880,note_on,0,0,4,,,,,,,,,3,,,56,94
170880,note_on,0,0,2,,,,,,,,,1,,,61,86
170880,note_on,21120,0,2,,,,,,,,,1,,,65,86
170880,note_on,0,0,1,,,,,,,,,0,,,68,86
170880,note_off,0,0,1,,,,,,,,,0,,,61,0
170880,note_off,960,0,1,,,,,,,,,0,,,65,0
171040,note_off,160,0,4,,,,,,,,,3,,,56,0
171040,note_on,0,0,4,,,,,,,,,3,,,58,84
171200,note_on,0,0,4,,,,,,,,,3,,,56,77
171200,note_off,160,0,4,,,,,,,,,3,,,58,0
171360,note_off,160,0,4,,,,,,,,,3,,,56,0
171360,note_on,0,0,4,,,,,,,,,3,,,54,72
171520,note_off,160,0,4,,,,,,,,,3,,,54,0
171520,note_on,0,0,4,,,,,,,,,3,,,53,67
171680,note_on,0,0,4,,,,,,,,,3,,,51,62
171680,note_off,160,0,4,,,,,,,,,3,,,53,0
171840,note_off,160,0,4,,,,,,,,,3,,,51,0
171840,note_on,0,0,4,,,,,,,,,3,,,49,60
172000,note_off,160,0,4,,,,,,,,,3,,,49,0
172000,note_on,0,0,4,,,,,,,,,3,,,51,58
172160,note_on,0,0,4,,,,,,,,,3,,,49,55
172160,note_off,160,0,4,,,,,,,,,3,,,51,0
172320,note_on,0,0,1,,,,,,,,,0,,,70,44
172320,note_off,1440,0,1,,,,,,,,,0,,,68,0
172320,note_off,1440,0,2,,,,,,,,,1,,,65,0
172320,note_on,0,0,2,,,,,,,,,1,,,66,44
172320,note_on,0,0,4,,,,,,,,,3,,,47,53
172320,note_off,160,0,4,,,,,,,,,3,,,49,0
172480,note_on,0,0,4,,,,,,,,,3,,,46,51
172480,note_off,160,0,4,,,,,,,,,3,,,47,0
172560,set_tempo,1680,1,0,,,,,,517241,,,,,,,
172640,note_on,0,0,4,,,,,,,,,3,,,44,48
172640,note_off,160,0,4,,,,,,,,,3,,,46,0
172680,set_tempo,120,1,0,,,,,,535714,,,,,,,
172680,note_on,0,0,1,,,,,,,,,0,,,71,47
172680,note_off,360,0,1,,,,,,,,,0,,,70,0
172680,note_on,0,0,2,,,,,,,,,1,,,68,47
172680,note_off,360,0,2,,,,,,,,,1,,,66,0
172800,note_on,0,0,4,,,,,,,,,3,,,42,50
172800,note_off,120,0,2,,,,,,,,,1,,,68,0
172800,set_tempo,120,1,0,,,,,,500000,,,,,,,
172800,note_on,0,0,1,,,,,,,,,0,,,73,48
172800,note_off,120,0,1,,,,,,,,,0,,,71,0
172800,note_off,160,0,4,,,,,,,,,3,,,44,0
172800,note_off,0,0,2,,,,,,,,,1,,,61,0
173040,note_on,22800,0,3,,,,,,,,,2,,,54,46
173280,note_on,0,0,1,,,,,,,,,0,,,66,47
173280,note_on,480,0,2,,,,,,,,,1,,,61,47
173280,note_on,240,0,3,,,,,,,,,2,,,58,47
173280,note_off,480,0,1,,,,,,,,,0,,,73,0
173520,note_off,240,0,3,,,,,,,,,2,,,54,0
173520,note_on,0,0,3,,,,,,,,,2,,,54,47
173712,note_off,192,0,3,,,,,,,,,2,,,58,0
173760,note_off,480,0,1,,,,,,,,,0,,,66,0
173760,note_off,480,0,2,,,,,,,,,1,,,61,0
173760,note_on,0,0,2,,,,,,,,,1,,,61,48
173760,note_on,48,0,3,,,,,,,,,2,,,59,48
173760,note_on,0,0,1,,,,,,,,,0,,,65,48
174000,note_on,0,0,3,,,,,,,,,2,,,54,48
174000,note_off,240,0,3,,,,,,,,,2,,,54,0
174192,note_off,192,0,3,,,,,,,,,2,,,59,0
174240,note_on,48,0,3,,,,,,,,,2,,,58,49
174240,note_off,480,0,1,,,,,,,,,0,,,65,0
174240,note_on,0,0,1,,,,,,,,,0,,,66,49
174240,note_on,0,0,2,,,,,,,,,1,,,61,49
174240,note_off,480,0,2,,,,,,,,,1,,,61,0
174480,note_on,0,0,3,,,,,,,,,2,,,54,49
174480,note_off,240,0,3,,,,,,,,,2,,,54,0
174586,set_tempo,1786,1,0,,,,,,508474,,,,,,,
174672,note_off,192,0,3,,,,,,,,,2,,,58,0
174720,note_on,0,0,4,,,,,,,,,3,,,37,43
174720,note_off,480,0,1,,,,,,,,,0,,,66,0
174720,note_on,0,0,2,,,,,,,,,1,,,59,51
174720,note_on,0,0,2,,,,,,,,,1,,,61,51
174720,note_on,0,0,2,,,,,,,,,1,,,65,51
174720,note_off,480,0,2,,,,,,,,,1,,,61,0
174720,note_off,1920,0,4,,,,,,,,,3,,,42,0
174720,note_on,0,0,1,,,,,,,,,0,,,71,51
174720,note_on,48,0,3,,,,,,,,,2,,,56,49
174735,set_tempo,149,1,0,,,,,,500000,,,,,,,
174960,note_off,240,0,3,,,,,,,,,2,,,54,0
174960,note_on,0,0,3,,,,,,,,,2,,,49,44
175152,note_off,192,0,3,,,,,,,,,2,,,56,0
175200,note_on,48,0,3,,,,,,,,,2,,,56,45
175440,note_off,240,0,3,,,,,,,,,2,,,49,0
175440,note_on,0,0,3,,,,,,,,,2,,,49,46
175632,note_off,192,0,3,,,,,,,,,2,,,56,0
175680,note_on,48,0,3,,,,,,,,,2,,,56,46
175920,note_on,0,0,3,,,,,,,,,2,,,49,47
175920,note_off,240,0,3,,,,,,,,,2,,,49,0
176112,note_off,192,0,3,,,,,,,,,2,,,56,0
176160,note_on,0,0,1,,,,,,,,,0,,,68,44
176160,note_on,48,0,3,,,,,,,,,2,,,53,48
176160,note_off,1440,0,1,,,,,,,,,0,,,71,0
176160,note_off,1440,0,2,,,,,,,,,1,,,59,0
176160,note_on,0,0,2,,,,,,,,,1,,,61,44
176160,note_off,0,0,2,,,,,,,,,1,,,65,0
176160,note_on,0,0,2,,,,,,,,,1,,,56,44
176160,note_off,0,0,2,,,,,,,,,1,,,61,0
176400,note_off,240,0,3,,,,,,,,,2,,,49,0
176400,note_on,0,0,3,,,,,,,,,2,,,49,49
176592,note_off,192,0,3,,,,,,,,,2,,,53,0
176640,note_off,480,0,2,,,,,,,,,1,,,56,0
176640,note_off,0,0,2,,,,,,,,,1,,,61,0
176640,note_on,0,0,2,,,,,,,,,1,,,58,45
176640,note_on,0,0,2,,,,,,,,,1,,,61,45
176640,note_off,480,0,1,,,,,,,,,0,,,68,0
176640,note_on,0,0,1,,,,,,,,,0,,,70,45
176640,note_off,1920,0,4,,,,,,,,,3,,,37,0
176640,note_on,0,0,4,,,,,,,,,3,,,42,53
176880,note_on,0,0,3,,,,,,,,,2,,,54,50
176880,note_off,288,0,3,,,,,,,,,2,,,49,0
177120,note_off,480,0,2,,,,,,,,,1,,,61,0
177120,note_off,0,0,2,,,,,,,,,1,,,58,0
177120,note_on,0,0,2,,,,,,,,,1,,,63,47
177120,note_off,480,0,1,,,,,,,,,0,,,70,0
177120,note_on,0,0,1,,,,,,,,,0,,,75,47
177120,note_on,480,0,4,,,,,,,,,3,,,47,54
177312,note_off,432,0,3,,,,,,,,,2,,,54,0
177360,note_on,48,0,3,,,,,,,,,2,,,54,52
177600,note_off,480,0,4,,,,,,,,,3,,,47,0
177600,note_on,0,0,4,,,,,,,,,3,,,46,55
177600,note_off,480,0,1,,,,,,,,,0,,,75,0
177600,note_on,0,0,1,,,,,,,,,0,,,73,48
177600,note_on,0,0,2,,,,,,,,,1,,,61,48
177600,note_off,480,0,2,,,,,,,,,1,,,63,0
177792,note_off,432,0,3,,,,,,,,,2,,,54,0
177840,note_on,48,0,3,,,,,,,,,2,,,54,54
178080,note_off,480,0,1,,,,,,,,,0,,,73,0
178080,note_on,0,0,1,,,,,,,,,0,,,78,50
178080,note_on,0,0,2,,,,,,,,,1,,,66,50
178080,note_off,480,0,2,,,,,,,,,1,,,61,0
178080,note_on,0,0,4,,,,,,,,,3,,,42,56
178080,note_off,480,0,4,,,,,,,,,3,,,46,0
178080,note_off,0,0,4,,,,,,,,,3,,,42,0
178272,note_off,432,0,3,,,,,,,,,2,,,54,0
178320,note_on,48,0,3,,,,,,,,,2,,,54,55
178500,set_tempo,3765,1,0,,,,,,504201,,,,,,,
178560,note_on,0,0,2,,,,,,,,,1,,,65,55
178560,note_on,240,0,3,,,,,,,,,2,,,49,57
178560,note_off,480,0,2,,,,,,,,,1,,,66,0
178560,note_off,480,0,4,,,,,,,,,3,,,42,0
178560,note_on,0,0,4,,,,,,,,,3,,,42,57
178560,note_on,0,0,1,,,,,,,,,0,,,77,55
178560,note_off,480,0,1,,,,,,,,,0,,,78,0
178752,note_off,192,0,3,,,,,,,,,2,,,54,0
178800,note_on,48,0,3,,,,,,,,,2,,,54,53
179040,note_off,480,0,2,,,,,,,,,1,,,65,0
179040,note_off,480,0,4,,,,,,,,,3,,,42,0
179040,note_on,0,0,4,,,,,,,,,3,,,42,52
179040,note_on,0,0,2,,,,,,,,,1,,,63,52
179040,note_on,0,0,3,,,,,,,,,2,,,47,52
179040,note_off,240,0,3,,,,,,,,,2,,,49,0
179040,note_off,480,0,1,,,,,,,,,0,,,77,0
179040,note_on,0,0,1,,,,,,,,,0,,,75,52
179232,note_off,192,0,3,,,,,,,,,2,,,54,0
179280,note_on,48,0,3,,,,,,,,,2,,,54,50
179520,note_off,480,0,1,,,,,,,,,0,,,75,0
179520,note_on,0,0,1,,,,,,,,,0,,,73,49
179520,note_on,0,0,2,,,,,,,,,1,,,61,49
179520,note_off,480,0,2,,,,,,,,,1,,,63,0
179520,note_off,480,0,4,,,,,,,,,3,,,42,0
179520,note_on,0,0,4,,,,,,,,,3,,,42,50
179520,note_on,0,0,3,,,,,,,,,2,,,46,47
179520,note_off,240,0,3,,,,,,,,,2,,,47,0
179712,note_off,192,0,3,,,,,,,,,2,,,54,0
179760,note_on,48,0,3,,,,,,,,,2,,,54,45
179866,set_tempo,1366,1,0,,,,,,517241,,,,,,,
180000,note_off,480,0,2,,,,,,,,,1,,,61,0
180000,note_on,0,0,1,,,,,,,,,0,,,70,47
180000,note_off,480,0,1,,,,,,,,,0,,,73,0
180000,note_off,240,0,3,,,,,,,,,2,,,54,0
180000,note_off,0,0,3,,,,,,,,,2,,,46,0
180000,note_off,480,0,4,,,,,,,,,3,,,42,0
180016,set_tempo,150,1,0,,,,,,500000,,,,,,,
180120,note_off,120,0,1,,,,,,,,,0,,,70,0
180120,note_on,0,0,1,,,,,,,,,0,,,71,47
180240,note_off,120,0,1,,,,,,,,,0,,,71,0
180240,note_on,0,0,1,,,,,,,,,0,,,70,48
180360,note_off,120,0,1,,,,,,,,,0,,,70,0
180360,note_on,0,0,1,,,,,,,,,0,,,66,48
180480,note_off,120,0,1,,,,,,,,,0,,,66,0
180480,note_on,0,0,1,,,,,,,,,0,,,71,51
180600,note_off,120,0,1,,,,,,,,,0,,,71,0
180600,note_on,0,0,1,,,,,,,,,0,,,73,50
180720,note_on,0,0,1,,,,,,,,,0,,,71,48
180720,note_off,120,0,1,,,,,,,,,0,,,73,0
180840,note_off,120,0,1,,,,,,,,,0,,,71,0
180840,note_on,0,0,1,,,,,,,,,0,,,68,46
180960,note_off,120,0,1,,,,,,,,,0,,,68,0
180960,note_on,0,0,1,,,,,,,,,0,,,65,45
180960,note_on,960,0,4,,,,,,,,,3,,,49,53
181080,note_on,0,0,4,,,,,,,,,3,,,53,52
181080,note_off,120,0,4,,,,,,,,,3,,,49,0
181200,note_on,0,0,4,,,,,,,,,3,,,56,50
181200,note_off,120,0,4,,,,,,,,,3,,,53,0
181320,note_off,120,0,4,,,,,,,,,3,,,56,0
181320,note_on,0,0,4,,,,,,,,,3,,,59,49
181440,note_off,120,0,4,,,,,,,,,3,,,59,0
181440,note_on,0,0,4,,,,,,,,,3,,,47,47
181440,note_off,480,0,1,,,,,,,,,0,,,65,0
181786,set_tempo,1770,1,0,,,,,,508474,,,,,,,
181906,set_tempo,120,1,0,,,,,,500000,,,,,,,
181920,note_off,480,0,4,,,,,,,,,3,,,47,0
181920,note_on,480,0,1,,,,,,,,,0,,,71,55
182040,note_off,120,0,1,,,,,,,,,0,,,71,0
182040,note_on,0,0,1,,,,,,,,,0,,,73,56
182160,note_off,120,0,1,,,,,,,,,0,,,73,0
182160,note_on,0,0,1,,,,,,,,,0,,,71,57
182280,note_on,0,0,1,,,,,,,,,0,,,68,59
182280,note_off,120,0,1,,,,,,,,,0,,,71,0
182400,note_off,120,0,1,,,,,,,,,0,,,68,0
182400,note_on,0,0,1,,,,,,,,,0,,,73,60
182520,note_off,120,0,1,,,,,,,,,0,,,73,0
182520,note_on,0,0,1,,,,,,,,,0,,,75,61
182640,note_off,120,0,1,,,,,,,,,0,,,75,0
182640,note_on,0,0,1,,,,,,,,,0,,,73,58
182760,note_off,120,0,1,,,,,,,,,0,,,73,0
182760,note_on,0,0,1,,,,,,,,,0,,,70,57
182880,note_on,0,0,1,,,,,,,,,0,,,66,55
182880,note_off,120,0,1,,,,,,,,,0,,,70,0
182880,note_on,960,0,4,,,,,,,,,3,,,46,63
183000,note_on,0,0,4,,,,,,,,,3,,,49,61
183000,note_off,120,0,4,,,,,,,,,3,,,46,0
183120,note_off,120,0,4,,,,,,,,,3,,,49,0
183120,note_on,0,0,4,,,,,,,,,3,,,54,59
183240,note_on,0,0,4,,,,,,,,,3,,,58,57
183240,note_off,120,0,4,,,,,,,,,3,,,54,0
183360,note_off,480,0,1,,,,,,,,,0,,,66,0
183360,note_on,0,0,4,,,,,,,,,3,,,46,55
183360,note_off,120,0,4,,,,,,,,,3,,,58,0
183706,set_tempo,1800,1,0,,,,,,508474,,,,,,,
183826,set_tempo,120,1,0,,,,,,500000,,,,,,,
183840,note_on,480,0,1,,,,,,,,,0,,,70,64
183840,note_off,480,0,4,,,,,,,,,3,,,46,0
183960,note_on,0,0,1,,,,,,,,,0,,,71,64
183960,note_off,120,0,1,,,,,,,,,0,,,70,0
184080,note_off,120,0,1,,,,,,,,,0,,,71,0
184080,note_on,0,0,1,,,,,,,,,0,,,70,65
184200,note_on,0,0,1,,,,,,,,,0,,,66,65
184200,note_off,120,0,1,,,,,,,,,0,,,70,0
184320,note_on,0,0,1,,,,,,,,,0,,,73,66
184320,note_off,120,0,1,,,,,,,,,0,,,66,0
184440,note_on,0,0,1,,,,,,,,,0,,,75,66
184440,note_off,120,0,1,,,,,,,,,0,,,73,0
184560,note_on,0,0,1,,,,,,,,,0,,,73,64
184560,note_off,120,0,1,,,,,,,,,0,,,75,0
184680,note_off,120,0,1,,,,,,,,,0,,,73,0
184680,note_on,0,0,1,,,,,,,,,0,,,70,63
184800,note_off,120,0,1,,,,,,,,,0,,,70,0
184800,note_on,0,0,1,,,,,,,,,0,,,67,61
184800,note_on,960,0,4,,,,,,,,,3,,,51,70
184920,note_off,120,0,4,,,,,,,,,3,,,51,0
184920,note_on,0,0,4,,,,,,,,,3,,,55,69
185040,note_on,0,0,4,,,,,,,,,3,,,58,67
185040,note_off,120,0,4,,,,,,,,,3,,,55,0
185160,note_on,0,0,4,,,,,,,,,3,,,61,65
185160,note_off,120,0,4,,,,,,,,,3,,,58,0
185280,note_on,0,0,4,,,,,,,,,3,,,49,64
185280,note_off,120,0,4,,,,,,,,,3,,,61,0
185280,note_off,480,0,1,,,,,,,,,0,,,67,0
185626,set_tempo,1800,1,0,,,,,,508474,,,,,,,
185746,set_tempo,120,1,0,,,,,,500000,,,,,,,
185760,note_off,480,0,4,,,,,,,,,3,,,49,0
185760,note_on,480,0,1,,,,,,,,,0,,,73,72
185880,note_on,0,0,1,,,,,,,,,0,,,75,73
185880,note_off,120,0,1,,,,,,,,,0,,,73,0
186000,note_off,120,0,1,,,,,,,,,0,,,75,0
186000,note_on,0,0,1,,,,,,,,,0,,,73,74
186120,note_on,0,0,1,,,,,,,,,0,,,70,74
186120,note_off,120,0,1,,,,,,,,,0,,,73,0
186240,note_on,0,0,1,,,,,,,,,0,,,75,75
186240,note_off,120,0,1,,,,,,,,,0,,,70,0
186360,note_on,0,0,1,,,,,,,,,0,,,76,74
186360,note_off,120,0,1,,,,,,,,,0,,,75,0
186480,note_on,0,0,1,,,,,,,,,0,,,75,73
186480,note_off,120,0,1,,,,,,,,,0,,,76,0
186600,note_on,0,0,1,,,,,,,,,0,,,71,71
186600,note_off,120,0,1,,,,,,,,,0,,,75,0
186720,note_on,960,0,4,,,,,,,,,3,,,47,80
186720,note_off,120,0,1,,,,,,,,,0,,,71,0
186840,note_off,120,0,4,,,,,,,,,3,,,47,0
186840,note_on,0,0,4,,,,,,,,,3,,,51,79
186960,note_on,0,0,4,,,,,,,,,3,,,56,78
186960,note_off,120,0,4,,,,,,,,,3,,,51,0
187080,note_on,0,0,4,,,,,,,,,3,,,59,77
187080,note_off,120,0,4,,,,,,,,,3,,,56,0
187200,note_on,0,0,4,,,,,,,,,3,,,47,75
187200,note_off,120,0,4,,,,,,,,,3,,,59,0
187546,set_tempo,1800,1,0,,,,,,508474,,,,,,,
187666,set_tempo,120,1,0,,,,,,500000,,,,,,,
187680,note_on,0,0,4,,,,,,,,,3,,,44,81
187680,note_on,7680,0,3,,,,,,,,,2,,,47,81
187680,note_on,0,0,3,,,,,,,,,2,,,52,81
187680,note_on,0,0,3,,,,,,,,,2,,,56,81
187680,note_on,960,0,1,,,,,,,,,0,,,88,81
187680,note_off,480,0,4,,,,,,,,,3,,,47,0
187840,note_on,0,0,1,,,,,,,,,0,,,87,82
187840,note_off,160,0,1,,,,,,,,,0,,,88,0
188000,note_on,0,0,1,,,,,,,,,0,,,85,83
188000,note_off,160,0,1,,,,,,,,,0,,,87,0
188160,note_on,0,0,1,,,,,,,,,0,,,83,84
188160,note_off,160,0,1,,,,,,,,,0,,,85,0
188160,note_on,0,0,4,,,,,,,,,3,,,45,83
188160,note_on,0,0,3,,,,,,,,,2,,,57,83
188160,note_on,0,0,3,,,,,,,,,2,,,49,83
188160,note_off,0,0,3,,,,,,,,,2,,,47,0
188160,note_off,0,0,3,,,,,,,,,2,,,52,0
188160,note_off,480,0,3,,,,,,,,,2,,,56,0
188160,note_on,0,0,3,,,,,,,,,2,,,54,83
188160,note_off,480,0,4,,,,,,,,,3,,,44,0
188320,note_off,160,0,1,,,,,,,,,0,,,83,0
188320,note_on,0,0,1,,,,,,,,,0,,,81,84
188480,note_on,0,0,1,,,,,,,,,0,,,80,85
188480,note_off,160,0,1,,,,,,,,,0,,,81,0
188640,note_off,160,0,1,,,,,,,,,0,,,80,0
188640,note_on,0,0,1,,,,,,,,,0,,,78,85
188800,note_on,0,0,1,,,,,,,,,0,,,76,86
188800,note_off,160,0,1,,,,,,,,,0,,,78,0
188960,note_off,160,0,1,,,,,,,,,0,,,76,0
188960,note_on,0,0,1,,,,,,,,,0,,,75,87
189120,note_on,0,0,4,,,,,,,,,3,,,47,88
189120,note_off,960,0,4,,,,,,,,,3,,,45,0
189120,note_on,0,0,3,,,,,,,,,2,,,57,88
189120,note_on,0,0,3,,,,,,,,,2,,,54,88
189120,note_off,160,0,1,,,,,,,,,0,,,75,0
189120,note_off,960,0,3,,,,,,,,,2,,,54,0
189120,note_off,0,0,3,,,,,,,,,2,,,57,0
189120,note_off,0,0,3,,,,,,,,,2,,,49,0
189120,note_on,0,0,3,,,,,,,,,2,,,59,88
189120,note_on,0,0,1,,,,,,,,,0,,,73,88
189280,note_off,160,0,1,,,,,,,,,0,,,73,0
189280,note_on,0,0,1,,,,,,,,,0,,,71,88
189440,note_off,160,0,1,,,,,,,,,0,,,71,0
189440,note_on,0,0,1,,,,,,,,,0,,,70,89
189600,note_off,160,0,1,,,,,,,,,0,,,70,0
189600,note_on,0,0,1,,,,,,,,,0,,,71,90
189760,note_off,160,0,1,,,,,,,,,0,,,71,0
189760,note_on,0,0,1,,,,,,,,,0,,,73,90
189920,note_on,0,0,1,,,,,,,,,0,,,75,91
189920,note_off,160,0,1,,,,,,,,,0,,,73,0
190080,note_off,0,0,3,,,,,,,,,2,,,59,0
190080,note_off,160,0,1,,,,,,,,,0,,,75,0
190080,note_on,0,0,1,,,,,,,,,0,,,76,89
190080,note_off,960,0,4,,,,,,,,,3,,,47,0
190080,note_on,0,0,4,,,,,,,,,3,,,52,95
190080,note_on,0,0,3,,,,,,,,,2,,,71,92
190080,note_off,0,0,3,,,,,,,,,2,,,54,0
190080,note_off,960,0,3,,,,,,,,,2,,,57,0
190080,note_on,0,0,3,,,,,,,,,2,,,59,92
190080,note_on,0,0,3,,,,,,,,,2,,,56,92
190080,note_on,0,0,3,,,,,,,,,2,,,68,92
190560,note_on,0,0,4,,,,,,,,,3,,,47,92
190560,note_off,480,0,1,,,,,,,,,0,,,76,0
190560,note_on,0,0,1,,,,,,,,,0,,,78,85
190560,note_off,0,0,3,,,,,,,,,2,,,56,0
190560,note_on,0,0,3,,,,,,,,,2,,,59,87
190560,note_on,0,0,3,,,,,,,,,2,,,71,87
190560,note_off,0,0,3,,,,,,,,,2,,,71,0
190560,note_on,0,0,3,,,,,,,,,2,,,54,87
190560,note_off,480,0,3,,,,,,,,,2,,,59,0
190560,note_off,480,0,4,,,,,,,,,3,,,52,0
190560,note_on,0,0,3,,,,,,,,,2,,,75,87
190560,note_off,0,0,3,,,,,,,,,2,,,68,0
191040,note_on,0,0,1,,,,,,,,,0,,,80,81
191040,note_off,480,0,1,,,,,,,,,0,,,78,0
191040,note_off,480,0,3,,,,,,,,,2,,,54,0
191040,note_off,0,0,3,,,,,,,,,2,,,75,0
191040,note_off,0,0,3,,,,,,,,,2,,,71,0
191040,note_on,0,0,3,,,,,,,,,2,,,76,82
191040,note_on,0,0,3,,,,,,,,,2,,,71,82
191040,note_on,0,0,3,,,,,,,,,2,,,44,82
191040,note_on,0,0,3,,,,,,,,,2,,,47,82
191040,note_on,0,0,3,,,,,,,,,2,,,52,82
191040,note_on,0,0,4,,,,,,,,,3,,,40,86
191040,note_off,480,0,4,,,,,,,,,3,,,47,0
191040,note_off,0,0,3,,,,,,,,,2,,,59,0
191520,note_off,480,0,4,,,,,,,,,3,,,40,0
191520,note_off,0,0,3,,,,,,,,,2,,,76,0
191520,note_off,0,0,3,,,,,,,,,2,,,44,0
191520,note_off,0,0,3,,,,,,,,,2,,,47,0
191520,note_off,480,0,3,,,,,,,,,2,,,52,0
191520,note_off,480,0,1,,,,,,,,,0,,,80,0
191520,note_off,0,0,3,,,,,,,,,2,,,71,0
191866,set_tempo,4200,1,0,,,,,,508474,,,,,,,
191986,set_tempo,120,1,0,,,,,,500000,,,,,,,
192000,note_on,480,0,4,,,,,,,,,3,,,52,45
192000,note_on,480,0,3,,,,,,,,,2,,,64,44
192000,note_on,0,0,3,,,,,,,,,2,,,59,44
192000,note_on,0,0,3,,,,,,,,,2,,,56,45
192000,note_on,480,0,1,,,,,,,,,0,,,68,44
192480,note_off,480,0,3,,,,,,,,,2,,,56,0
192480,note_off,480,0,4,,,,,,,,,3,,,52,0
192480,note_off,0,0,3,,,,,,,,,2,,,59,0
192480,note_off,480,0,1,,,,,,,,,0,,,68,0
192480,note_off,0,0,3,,,,,,,,,2,,,64,0
192960,note_on,480,0,4,,,,,,,,,3,,,45,46
192960,note_on,0,0,3,,,,,,,,,2,,,54,46
192960,note_on,0,0,3,,,,,,,,,2,,,49,46
192960,note_on,0,0,3,,,,,,,,,2,,,66,45
192960,note_on,480,0,3,,,,,,,,,2,,,61,45
192960,note_on,480,0,1,,,,,,,,,0,,,69,45
193440,note_off,480,0,1,,,,,,,,,0,,,69,0
193440,note_off,480,0,3,,,,,,,,,2,,,54,0
193440,note_off,0,0,3,,,,,,,,,2,,,49,0
193440,note_off,0,0,3,,,,,,,,,2,,,66,0
193440,note_off,0,0,3,,,,,,,,,2,,,61,0
193440,note_off,480,0,4,,,,,,,,,3,,,45,0
193920,note_on,480,0,4,,,,,,,,,3,,,59,60
193920,note_on,480,0,3,,,,,,,,,2,,,71,61
193920,note_on,0,0,3,,,,,,,,,2,,,75,61
193920,note_on,0,0,3,,,,,,,,,2,,,66,60
193920,note_on,480,0,1,,,,,,,,,0,,,78,61
193920,note_on,0,0,3,,,,,,,,,2,,,63,60
194400,note_off,480,0,3,,,,,,,,,2,,,66,0
194400,note_off,480,0,4,,,,,,,,,3,,,59,0
194400,note_on,0,0,4,,,,,,,,,3,,,56,58
194400,note_on,0,0,1,,,,,,,,,0,,,80,58
194400,note_off,480,0,1,,,,,,,,,0,,,78,0
194400,note_on,0,0,3,,,,,,,,,2,,,65,58
194400,note_on,0,0,3,,,,,,,,,2,,,59,58
194400,note_on,0,0,3,,,,,,,,,2,,,73,58
194400,note_on,0,0,3,,,,,,,,,2,,,77,58
194400,note_on,0,0,3,,,,,,,,,2,,,71,58
194400,note_off,0,0,3,,,,,,,,,2,,,71,0
194400,note_off,0,0,3,,,,,,,,,2,,,75,0
194400,note_off,0,0,3,,,,,,,,,2,,,63,0
194400,note_on,0,0,3,,,,,,,,,2,,,61,58
194880,note_off,480,0,1,,,,,,,,,0,,,80,0
194880,note_on,0,0,1,,,,,,,,,0,,,81,55
194880,note_off,480,0,4,,,,,,,,,3,,,56,0
194880,note_on,0,0,3,,,,,,,,,2,,,73,55
194880,note_on,0,0,3,,,,,,,,,2,,,66,55
194880,note_on,0,0,3,,,,,,,,,2,,,57,55
194880,note_on,0,0,3,,,,,,,,,2,,,61,55
194880,note_on,0,0,3,,,,,,,,,2,,,78,55
194880,note_on,0,0,3,,,,,,,,,2,,,69,55
194880,note_on,0,0,4,,,,,,,,,3,,,54,55
194880,note_off,0,0,3,,,,,,,,,2,,,77,0
194880,note_off,0,0,3,,,,,,,,,2,,,73,0
194880,note_off,0,0,3,,,,,,,,,2,,,61,0
194880,note_off,0,0,3,,,,,,,,,2,,,59,0
194880,note_off,480,0,3,,,,,,,,,2,,,65,0
194880,note_off,0,0,3,,,,,,,,,2,,,71,0
195360,note_off,480,0,1,,,,,,,,,0,,,81,0
195360,note_off,480,0,3,,,,,,,,,2,,,66,0
195360,note_off,0,0,3,,,,,,,,,2,,,61,0
195360,note_off,0,0,3,,,,,,,,,2,,,73,0
195360,note_off,0,0,3,,,,,,,,,2,,,78,0
195360,note_off,0,0,3,,,,,,,,,2,,,69,0
195360,note_off,480,0,4,,,,,,,,,3,,,54,0
195360,note_off,0,0,3,,,,,,,,,2,,,57,0
195706,set_tempo,3720,1,0,,,,,,508474,,,,,,,
195826,set_tempo,120,1,0,,,,,,500000,,,,,,,
195840,note_on,480,0,3,,,,,,,,,2,,,61,49
195840,note_on,480,0,4,,,,,,,,,3,,,54,50
195840,note_on,480,0,1,,,,,,,,,0,,,69,49
195840,note_on,0,0,3,,,,,,,,,2,,,66,49
195840,note_on,0,0,3,,,,,,,,,2,,,57,50
196320,note_off,480,0,1,,,,,,,,,0,,,69,0
196320,note_off,480,0,3,,,,,,,,,2,,,57,0
196320,note_off,0,0,3,,,,,,,,,2,,,66,0
196320,note_off,0,0,3,,,,,,,,,2,,,61,0
196320,note_off,480,0,4,,,,,,,,,3,,,54,0
196800,note_on,0,0,3,,,,,,,,,2,,,62,51
196800,note_on,0,0,3,,,,,,,,,2,,,56,51
196800,note_on,480,0,1,,,,,,,,,0,,,71,51
196800,note_on,480,0,3,,,,,,,,,2,,,68,51
196800,note_on,480,0,4,,,,,,,,,3,,,47,51
197280,note_off,480,0,3,,,,,,,,,2,,,56,0
197280,note_off,0,0,3,,,,,,,,,2,,,62,0
197280,note_off,480,0,1,,,,,,,,,0,,,71,0
197280,note_off,0,0,3,,,,,,,,,2,,,68,0
197280,note_off,480,0,4,,,,,,,,,3,,,47,0
197760,note_on,0,0,3,,,,,,,,,2,,,65,68
197760,note_on,0,0,3,,,,,,,,,2,,,77,66
197760,note_on,480,0,4,,,,,,,,,3,,,61,68
197760,note_on,480,0,1,,,,,,,,,0,,,80,66
197760,note_on,0,0,3,,,,,,,,,2,,,73,66
197760,note_on,480,0,3,,,,,,,,,2,,,71,66
198240,note_on,0,0,3,,,,,,,,,2,,,61,64
198240,note_on,0,0,3,,,,,,,,,2,,,76,64
198240,note_on,0,0,3,,,,,,,,,2,,,64,64
198240,note_on,0,0,3,,,,,,,,,2,,,70,64
198240,note_on,0,0,3,,,,,,,,,2,,,73,64
198240,note_off,0,0,3,,,,,,,,,2,,,77,0
198240,note_on,0,0,4,,,,,,,,,3,,,54,64
198240,note_off,480,0,3,,,,,,,,,2,,,65,0
198240,note_on,0,0,1,,,,,,,,,0,,,82,64
198240,note_off,0,0,3,,,,,,,,,2,,,73,0
198240,note_off,480,0,4,,,,,,,,,3,,,61,0
198240,note_off,0,0,3,,,,,,,,,2,,,71,0
198240,note_off,480,0,1,,,,,,,,,0,,,80,0
198720,note_on,0,0,3,,,,,,,,,2,,,62,59
198720,note_on,0,0,3,,,,,,,,,2,,,74,61
198720,note_on,0,0,3,,,,,,,,,2,,,71,61
198720,note_off,0,0,3,,,,,,,,,2,,,76,0
198720,note_off,0,0,3,,,,,,,,,2,,,70,0
198720,note_off,0,0,3,,,,,,,,,2,,,73,0
198720,note_off,480,0,3,,,,,,,,,2,,,64,0
198720,note_off,480,0,1,,,,,,,,,0,,,82,0
198720,note_on,0,0,1,,,,,,,,,0,,,83,64
198720,note_off,480,0,4,,,,,,,,,3,,,54,0
198720,note_on,0,0,4,,,,,,,,,3,,,59,59
198720,note_off,0,0,3,,,,,,,,,2,,,61,0
199200,note_off,480,0,1,,,,,,,,,0,,,83,0
199200,note_off,480,0,3,,,,,,,,,2,,,62,0
199200,note_off,0,0,3,,,,,,,,,2,,,74,0
199200,note_off,0,0,3,,,,,,,,,2,,,71,0
199200,note_off,480,0,4,,,,,,,,,3,,,59,0
199546,set_tempo,3720,1,0,,,,,,508474,,,,,,,
199666,set_tempo,120,1,0,,,,,,500000,,,,,,,
199680,note_on,480,0,3,,,,,,,,,2,,,66,55
199680,note_on,0,0,3,,,,,,,,,2,,,62,56
199680,note_on,480,0,4,,,,,,,,,3,,,59,56
199680,note_on,0,0,3,,,,,,,,,2,,,71,55
199680,note_on,480,0,1,,,,,,,,,0,,,74,55
200160,note_off,0,0,3,,,,,,,,,2,,,66,0
200160,note_off,0,0,3,,,,,,,,,2,,,71,0
200160,note_off,480,0,1,,,,,,,,,0,,,74,0
200160,note_off,480,0,3,,,,,,,,,2,,,62,0
200160,note_off,480,0,4,,,,,,,,,3,,,59,0
200640,note_on,480,0,4,,,,,,,,,3,,,52,57
200640,note_on,480,0,3,,,,,,,,,2,,,73,56
200640,note_on,0,0,3,,,,,,,,,2,,,67,56
200640,note_on,0,0,3,,,,,,,,,2,,,55,57
200640,note_on,0,0,3,,,,,,,,,2,,,61,57
200640,note_on,480,0,1,,,,,,,,,0,,,76,56
201120,note_off,480,0,1,,,,,,,,,0,,,76,0
201120,note_off,480,0,3,,,,,,,,,2,,,61,0
201120,note_off,0,0,3,,,,,,,,,2,,,73,0
201120,note_off,0,0,3,,,,,,,,,2,,,67,0
201120,note_off,480,0,4,,,,,,,,,3,,,52,0
201120,note_off,0,0,3,,,,,,,,,2,,,55,0
201600,note_on,480,0,3,,,,,,,,,2,,,70,73
201600,note_on,0,0,3,,,,,,,,,2,,,58,74
201600,note_on,480,0,1,,,,,,,,,0,,,82,73
201600,note_on,480,0,4,,,,,,,,,3,,,54,74
201600,note_on,0,0,3,,,,,,,,,2,,,73,73
201600,note_on,0,0,3,,,,,,,,,2,,,61,74
201600,note_on,0,0,3,,,,,,,,,2,,,76,73
202080,note_on,0,0,3,,,,,,,,,2,,,71,70
202080,note_on,0,0,1,,,,,,,,,0,,,83,69
202080,note_off,480,0,4,,,,,,,,,3,,,54,0
202080,note_on,0,0,4,,,,,,,,,3,,,47,71
202080,note_off,480,0,3,,,,,,,,,2,,,61,0
202080,note_off,0,0,3,,,,,,,,,2,,,58,0
202080,note_off,0,0,3,,,,,,,,,2,,,76,0
202080,note_off,0,0,3,,,,,,,,,2,,,73,0
202080,note_off,0,0,3,,,,,,,,,2,,,70,0
202080,note_on,0,0,3,,,,,,,,,2,,,54,71
202080,note_on,0,0,3,,,,,,,,,2,,,59,71
202080,note_off,480,0,1,,,,,,,,,0,,,82,0
202560,note_on,0,0,3,,,,,,,,,2,,,73,67
202560,note_on,0,0,3,,,,,,,,,2,,,76,67
202560,note_off,0,0,3,,,,,,,,,2,,,71,0
202560,note_off,0,0,3,,,,,,,,,2,,,54,0
202560,note_off,480,0,3,,,,,,,,,2,,,59,0
202560,note_on,0,0,3,,,,,,,,,2,,,58,65
202560,note_off,480,0,1,,,,,,,,,0,,,83,0
202560,note_on,0,0,1,,,,,,,,,0,,,85,67
202560,note_off,480,0,4,,,,,,,,,3,,,47,0
202560,note_on,0,0,4,,,,,,,,,3,,,46,65
202560,note_on,0,0,3,,,,,,,,,2,,,54,65
203040,note_off,480,0,1,,,,,,,,,0,,,85,0
203040,note_off,480,0,4,,,,,,,,,3,,,46,0
203040,note_off,0,0,3,,,,,,,,,2,,,76,0
203040,note_off,0,0,3,,,,,,,,,2,,,73,0
203040,note_off,0,0,3,,,,,,,,,2,,,54,0
203040,note_off,480,0,3,,,,,,,,,2,,,58,0
203386,set_tempo,3720,1,0,,,,,,508474,,,,,,,
203506,set_tempo,120,1,0,,,,,,500000,,,,,,,
203520,note_on,480,0,3,,,,,,,,,2,,,70,60
203520,note_on,480,0,4,,,,,,,,,3,,,61,61
203520,note_on,0,0,3,,,,,,,,,2,,,64,61
203520,note_on,480,0,1,,,,,,,,,0,,,73,60
204000,note_off,480,0,4,,,,,,,,,3,,,61,0
204000,note_off,480,0,1,,,,,,,,,0,,,73,0
204000,note_on,0,0,1,,,,,,,,,0,,,75,61
204000,note_on,0,0,4,,,,,,,,,3,,,59,62
204000,note_on,0,0,3,,,,,,,,,2,,,63,62
204000,note_off,0,0,3,,,,,,,,,2,,,70,0
204000,note_on,0,0,3,,,,,,,,,2,,,71,61
204000,note_off,480,0,3,,,,,,,,,2,,,64,0
204480,note_off,480,0,3,,,,,,,,,2,,,63,0
204480,note_on,0,0,4,,,,,,,,,3,,,58,62
204480,note_on,0,0,3,,,,,,,,,2,,,61,62
204480,note_on,0,0,3,,,,,,,,,2,,,73,61
204480,note_on,0,0,1,,,,,,,,,0,,,76,61
204480,note_off,480,0,1,,,,,,,,,0,,,75,0
204480,note_off,480,0,4,,,,,,,,,3,,,59,0
204480,note_off,0,0,3,,,,,,,,,2,,,71,0
204960,note_off,480,0,4,,,,,,,,,3,,,58,0
204960,note_off,480,0,1,,,,,,,,,0,,,76,0
204960,note_off,480,0,3,,,,,,,,,2,,,61,0
204960,note_off,0,0,3,,,,,,,,,2,,,73,0
205306,set_tempo,1800,1,0,,,,,,508474,,,,,,,
205426,set_tempo,120,1,0,,,,,,500000,,,,,,,
205440,note_on,480,0,1,,,,,,,,,0,,,73,63
205440,note_on,0,0,3,,,,,,,,,2,,,70,63
205440,note_on,480,0,4,,,,,,,,,3,,,58,64
205440,note_on,480,0,3,,,,,,,,,2,,,66,63
205440,note_on,0,0,3,,,,,,,,,2,,,61,64
205920,note_off,480,0,1,,,,,,,,,0,,,73,0
205920,note_off,480,0,3,,,,,,,,,2,,,61,0
205920,note_off,0,0,3,,,,,,,,,2,,,70,0
205920,note_off,0,0,3,,,,,,,,,2,,,66,0
205920,note_off,480,0,4,,,,,,,,,3,,,58,0
206400,note_on,480,0,1,,,,,,,,,0,,,76,64
206400,note_on,0,0,3,,,,,,,,,2,,,58,65
206400,note_on,480,0,4,,,,,,,,,3,,,54,65
206400,note_on,0,0,3,,,,,,,,,2,,,66,64
206400,note_on,480,0,3,,,,,,,,,2,,,73,64
206880,note_off,0,0,3,,,,,,,,,2,,,73,0
206880,note_off,480,0,4,,,,,,,,,3,,,54,0
206880,note_off,0,0,3,,,,,,,,,2,,,66,0
206880,note_off,480,0,3,,,,,,,,,2,,,58,0
206880,note_off,480,0,1,,,,,,,,,0,,,76,0
207360,note_on,480,0,4,,,,,,,,,3,,,59,67
207360,note_on,0,0,3,,,,,,,,,2,,,63,67
207360,note_on,480,0,1,,,,,,,,,0,,,75,65
207360,note_on,480,0,3,,,,,,,,,2,,,71,65
207360,note_on,0,0,3,,,,,,,,,2,,,66,65
207840,note_off,480,0,1,,,,,,,,,0,,,75,0
207840,note_on,0,0,1,,,,,,,,,0,,,78,66
207840,note_off,480,0,4,,,,,,,,,3,,,59,0
207840,note_off,0,0,3,,,,,,,,,2,,,71,0
207840,note_off,0,0,3,,,,,,,,,2,,,66,0
207840,note_off,480,0,3,,,,,,,,,2,,,63,0
207960,note_off,120,0,1,,,,,,,,,0,,,78,0
207960,note_on,0,0,1,,,,,,,,,0,,,80,67
208080,note_off,120,0,1,,,,,,,,,0,,,80,0
208080,note_on,0,0,1,,,,,,,,,0,,,78,68
208186,set_tempo,2760,1,0,,,,,,508474,,,,,,,
208200,note_off,120,0,1,,,,,,,,,0,,,78,0
208200,note_on,0,0,1,,,,,,,,,0,,,75,69
208306,set_tempo,120,1,0,,,,,,500000,,,,,,,
208320,note_on,0,0,1,,,,,,,,,0,,,83,69
208320,note_off,120,0,1,,,,,,,,,0,,,75,0
208800,note_on,960,0,3,,,,,,,,,2,,,75,69
208800,note_off,480,0,1,,,,,,,,,0,,,83,0
208800,note_on,960,0,4,,,,,,,,,3,,,71,69
209280,note_off,480,0,3,,,,,,,,,2,,,75,0
209280,note_on,0,0,4,,,,,,,,,3,,,73,76
209280,note_off,480,0,4,,,,,,,,,3,,,71,0
209280,note_on,0,0,3,,,,,,,,,2,,,76,76
209760,note_on,960,0,1,,,,,,,,,0,,,82,66
209880,note_on,0,0,1,,,,,,,,,0,,,83,66
209880,note_off,120,0,1,,,,,,,,,0,,,82,0
209920,note_on,40,0,1,,,,,,,,,0,,,82,69
209925,note_off,5,0,1,,,,,,,,,0,,,83,0
209960,note_off,35,0,1,,,,,,,,,0,,,82,0
209960,note_on,0,0,1,,,,,,,,,0,,,80,70
210000,note_off,40,0,1,,,,,,,,,0,,,80,0
210000,note_on,0,0,1,,,,,,,,,0,,,82,71
210106,set_tempo,1800,1,0,,,,,,508474,,,,,,,
210120,note_off,120,0,1,,,,,,,,,0,,,82,0
210120,note_on,0,0,1,,,,,,,,,0,,,83,71
210240,note_off,120,0,1,,,,,,,,,0,,,83,0
210240,note_on,0,0,1,,,,,,,,,0,,,85,77
210720,note_on,0,0,4,,,,,,,,,3,,,73,75
210720,note_off,480,0,1,,,,,,,,,0,,,85,0
210720,note_on,0,0,1,,,,,,,,,0,,,82,72
210720,note_off,1440,0,4,,,,,,,,,3,,,73,0
210720,note_off,1440,0,3,,,,,,,,,2,,,76,0
210720,note_on,0,0,3,,,,,,,,,2,,,76,75
211066,set_tempo,960,1,0,,,,,,526315,,,,,,,
211200,note_off,480,0,4,,,,,,,,,3,,,73,0
211200,set_tempo,134,1,0,,,,,,508474,,,,,,,
211200,note_on,0,0,1,,,,,,,,,0,,,79,64
211200,note_off,480,0,1,,,,,,,,,0,,,82,0
211200,note_off,480,0,3,,,,,,,,,2,,,76,0
211200,note_on,0,0,4,,,,,,,,,3,,,73,68
211200,note_on,0,0,3,,,,,,,,,2,,,75,68
211320,note_on,120,0,1,,,,,,,,,0,,,88,64
211440,note_on,0,0,1,,,,,,,,,0,,,87,64
211440,note_off,120,0,1,,,,,,,,,0,,,88,0
211560,note_off,0,0,1,,,,,,,,,0,,,79,0
211560,note_off,120,0,1,,,,,,,,,0,,,87,0
211560,note_on,0,0,1,,,,,,,,,0,,,79,63
211680,note_off,120,0,1,,,,,,,,,0,,,79,0
211680,note_on,0,0,1,,,,,,,,,0,,,79,63
211800,note_on,120,0,1,,,,,,,,,0,,,88,63
211920,note_off,120,0,1,,,,,,,,,0,,,88,0
211920,note_on,0,0,1,,,,,,,,,0,,,87,63
212040,note_on,0,0,1,,,,,,,,,0,,,79,63
212040,note_off,0,0,1,,,,,,,,,0,,,79,0
212040,note_off,120,0,1,,,,,,,,,0,,,87,0
212160,note_on,0,0,3,,,,,,,,,2,,,73,57
212160,note_off,960,0,4,,,,,,,,,3,,,73,0
212160,note_on,0,0,4,,,,,,,,,3,,,70,57
212160,note_off,960,0,3,,,,,,,,,2,,,75,0
212160,note_on,0,0,1,,,,,,,,,0,,,79,62
212160,note_off,120,0,1,,,,,,,,,0,,,79,0
212280,note_on,120,0,1,,,,,,,,,0,,,88,62
212400,note_on,0,0,1,,,,,,,,,0,,,87,62
212400,note_off,120,0,1,,,,,,,,,0,,,88,0
212520,note_off,0,0,1,,,,,,,,,0,,,79,0
212520,note_off,120,0,1,,,,,,,,,0,,,87,0
212520,note_on,0,0,1,,,,,,,,,0,,,79,62
212640,note_on,0,0,3,,,,,,,,,2,,,73,56
212640,note_on,0,0,3,,,,,,,,,2,,,70,56
212640,note_off,480,0,3,,,,,,,,,2,,,73,0
212640,note_on,0,0,1,,,,,,,,,0,,,79,61
212640,note_off,120,0,1,,,,,,,,,0,,,79,0
212640,note_off,480,0,4,,,,,,,,,3,,,70,0
212640,note_on,0,0,4,,,,,,,,,3,,,63,56
212760,note_on,120,0,1,,,,,,,,,0,,,88,61
212880,note_on,0,0,1,,,,,,,,,0,,,87,61
212880,note_off,120,0,1,,,,,,,,,0,,,88,0
213000,note_off,0,0,1,,,,,,,,,0,,,79,0
213000,note_on,0,0,1,,,,,,,,,0,,,79,61
213000,note_off,120,0,1,,,,,,,,,0,,,87,0
213120,note_on,0,0,4,,,,,,,,,3,,,63,56
213120,note_off,480,0,4,,,,,,,,,3,,,63,0
213120,note_on,0,0,3,,,,,,,,,2,,,71,56
213120,note_off,480,0,3,,,,,,,,,2,,,73,0
213120,note_on,0,0,1,,,,,,,,,0,,,80,61
213120,note_off,120,0,1,,,,,,,,,0,,,79,0
213120,note_on,0,0,3,,,,,,,,,2,,,68,56
213120,note_off,0,0,3,,,,,,,,,2,,,70,0
213240,note_on,120,0,1,,,,,,,,,0,,,88,60
213360,note_on,0,0,1,,,,,,,,,0,,,87,60
213360,note_off,120,0,1,,,,,,,,,0,,,88,0
213480,note_on,0,0,1,,,,,,,,,0,,,80,60
213480,note_off,120,0,1,,,,,,,,,0,,,87,0
213480,note_off,0,0,1,,,,,,,,,0,,,80,0
213600,note_on,0,0,1,,,,,,,,,0,,,82,60
213600,note_off,120,0,1,,,,,,,,,0,,,80,0
213600,note_on,0,0,3,,,,,,,,,2,,,67,55
213600,note_off,0,0,3,,,,,,,,,2,,,68,0
213600,note_off,480,0,4,,,,,,,,,3,,,63,0
213600,note_off,480,0,3,,,,,,,,,2,,,71,0
213600,note_on,0,0,4,,,,,,,,,3,,,61,55
213600,note_on,0,0,3,,,,,,,,,2,,,70,55
213720,note_on,120,0,1,,,,,,,,,0,,,88,60
213840,note_off,120,0,1,,,,,,,,,0,,,88,0
213840,note_on,0,0,1,,,,,,,,,0,,,87,59
213960,note_off,0,0,1,,,,,,,,,0,,,82,0
213960,note_off,120,0,1,,,,,,,,,0,,,87,0
213960,note_on,0,0,1,,,,,,,,,0,,,82,59
214080,note_off,120,0,1,,,,,,,,,0,,,82,0
214080,note_on,0,0,1,,,,,,,,,0,,,83,59
214080,note_on,0,0,3,,,,,,,,,2,,,63,55
214080,note_on,0,0,4,,,,,,,,,3,,,59,55
214080,note_off,480,0,4,,,,,,,,,3,,,61,0
214080,note_on,0,0,3,,,,,,,,,2,,,68,55
214080,note_off,480,0,3,,,,,,,,,2,,,67,0
214080,note_off,0,0,3,,,,,,,,,2,,,70,0
214200,note_on,120,0,1,,,,,,,,,0,,,88,59
214320,note_on,0,0,1,,,,,,,,,0,,,87,59
214320,note_off,120,0,1,,,,,,,,,0,,,88,0
214435,note_off,115,0,1,,,,,,,,,0,,,83,0
214440,note_on,0,0,1,,,,,,,,,0,,,83,59
214440,note_off,5,0,1,,,,,,,,,0,,,87,0
214500,set_tempo,3300,1,0,,,,,,504201,,,,,,,
214560,note_on,0,0,4,,,,,,,,,3,,,59,54
214560,note_off,480,0,4,,,,,,,,,3,,,59,0
214560,note_on,0,0,3,,,,,,,,,2,,,68,54
214560,note_off,0,0,3,,,,,,,,,2,,,63,0
214560,note_off,480,0,3,,,,,,,,,2,,,68,0
214560,control_change,120,0,1,,,,,,,64,127,0,,,,
214560,note_off,0,0,1,,,,,,,,,0,,,83,0
214560,note_on,0,0,1,,,,,,,,,0,,,92,58
214560,note_on,0,0,3,,,,,,,,,2,,,63,54
214680,note_off,120,0,1,,,,,,,,,0,,,92,0
214680,note_on,0,0,1,,,,,,,,,0,,,87,58
214800,note_off,120,0,1,,,,,,,,,0,,,87,0
214800,note_on,0,0,1,,,,,,,,,0,,,83,58
214906,set_tempo,406,1,0,,,,,,517241,,,,,,,
214920,note_off,120,0,1,,,,,,,,,0,,,83,0
214920,note_on,0,0,1,,,,,,,,,0,,,80,57
215040,note_off,480,0,3,,,,,,,,,2,,,63,0
215040,note_off,0,0,3,,,,,,,,,2,,,68,0
215040,note_on,0,0,3,,,,,,,,,2,,,68,60
215040,note_on,0,0,3,,,,,,,,,2,,,62,60
215040,note_off,0,0,1,,,,,,,,,0,,,80,0
215040,control_change,120,0,1,,,,,,,64,0,0,,,,
215040,note_on,0,0,4,,,,,,,,,3,,,59,60
215040,note_off,480,0,4,,,,,,,,,3,,,59,0
215040,note_on,0,0,1,,,,,,,,,0,,,89,57
215055,set_tempo,149,1,0,,,,,,500000,,,,,,,
215160,note_on,35160,0,2,,,,,,,,,1,,,83,57
215280,note_on,120,0,2,,,,,,,,,1,,,80,57
215400,note_on,0,0,1,,,,,,,,,0,,,89,57
215400,note_off,360,0,1,,,,,,,,,0,,,89,0
215520,note_off,480,0,4,,,,,,,,,3,,,59,0
215520,note_on,0,0,4,,,,,,,,,3,,,59,53
215520,note_off,480,0,3,,,,,,,,,2,,,62,0
215520,note_off,240,0,2,,,,,,,,,1,,,80,0
215520,note_off,0,0,3,,,,,,,,,2,,,68,0
215520,note_off,120,0,1,,,,,,,,,0,,,89,0
215520,note_on,0,0,1,,,,,,,,,0,,,92,56
215520,note_on,0,0,3,,,,,,,,,2,,,61,53
215520,note_on,0,0,3,,,,,,,,,2,,,68,53
215520,note_off,0,0,2,,,,,,,,,1,,,83,0
215640,note_on,120,0,2,,,,,,,,,1,,,83,56
215760,note_on,120,0,2,,,,,,,,,1,,,80,56
215880,note_off,360,0,1,,,,,,,,,0,,,92,0
215880,note_on,0,0,1,,,,,,,,,0,,,90,56
216000,note_on,0,0,3,,,,,,,,,2,,,68,58
216000,note_off,480,0,3,,,,,,,,,2,,,68,0
216000,note_off,0,0,2,,,,,,,,,1,,,83,0
216000,note_on,0,0,1,,,,,,,,,0,,,89,56
216000,note_off,120,0,1,,,,,,,,,0,,,90,0
216000,note_off,480,0,4,,,,,,,,,3,,,59,0
216000,note_on,0,0,4,,,,,,,,,3,,,59,58
216000,note_off,240,0,2,,,,,,,,,1,,,80,0
216000,note_off,0,0,3,,,,,,,,,2,,,61,0
216000,note_on,0,0,3,,,,,,,,,2,,,62,58
216120,note_on,120,0,2,,,,,,,,,1,,,83,55
216240,note_on,120,0,2,,,,,,,,,1,,,80,55
216360,note_on,0,0,1,,,,,,,,,0,,,89,55
216360,note_off,360,0,1,,,,,,,,,0,,,89,0
216480,note_on,0,0,4,,,,,,,,,3,,,59,52
216480,note_on,0,0,1,,,,,,,,,0,,,92,55
216480,note_on,0,0,3,,,,,,,,,2,,,61,52
216480,note_on,0,0,3,,,,,,,,,2,,,68,52
216480,note_off,0,0,2,,,,,,,,,1,,,83,0
216480,note_off,0,0,3,,,,,,,,,2,,,68,0
216480,note_off,480,0,4,,,,,,,,,3,,,59,0
216480,note_off,240,0,2,,,,,,,,,1,,,80,0
216480,note_off,120,0,1,,,,,,,,,0,,,89,0
216480,note_off,480,0,3,,,,,,,,,2,,,62,0
216600,note_on,120,0,2,,,,,,,,,1,,,83,55
216720,note_on,120,0,2,,,,,,,,,1,,,80,54
216840,note_on,0,0,1,,,,,,,,,0,,,90,54
216840,note_off,360,0,1,,,,,,,,,0,,,92,0
216960,note_on,0,0,3,,,,,,,,,2,,,68,59
216960,note_on,0,0,3,,,,,,,,,2,,,62,59
216960,note_off,240,0,2,,,,,,,,,1,,,80,0
216960,note_off,0,0,2,,,,,,,,,1,,,83,0
216960,note_off,0,0,3,,,,,,,,,2,,,61,0
216960,note_off,480,0,3,,,,,,,,,2,,,68,0
216960,note_on,0,0,4,,,,,,,,,3,,,59,59
216960,note_off,480,0,4,,,,,,,,,3,,,59,0
216960,note_on,0,0,1,,,,,,,,,0,,,89,54
216960,note_off,120,0,1,,,,,,,,,0,,,90,0
217080,note_on,120,0,2,,,,,,,,,1,,,83,54
217200,note_on,120,0,2,,,,,,,,,1,,,80,53
217320,note_on,0,0,1,,,,,,,,,0,,,89,53
217320,note_off,360,0,1,,,,,,,,,0,,,89,0
217440,note_on,0,0,1,,,,,,,,,0,,,92,53
217440,note_off,480,0,3,,,,,,,,,2,,,62,0
217440,note_off,480,0,4,,,,,,,,,3,,,59,0
217440,note_off,120,0,1,,,,,,,,,0,,,89,0
217440,note_on,0,0,4,,,,,,,,,3,,,59,51
217440,note_off,240,0,2,,,,,,,,,1,,,80,0
217440,note_on,0,0,3,,,,,,,,,2,,,68,51
217440,note_on,0,0,3,,,,,,,,,2,,,61,51
217440,note_off,0,0,2,,,,,,,,,1,,,83,0
217440,note_off,0,0,3,,,,,,,,,2,,,68,0
217560,note_on,120,0,2,,,,,,,,,1,,,83,53
217680,note_on,120,0,2,,,,,,,,,1,,,80,53
217800,note_off,360,0,1,,,,,,,,,0,,,92,0
217800,note_on,0,0,1,,,,,,,,,0,,,92,52
217920,note_off,120,0,1,,,,,,,,,0,,,92,0
217920,note_on,0,0,1,,,,,,,,,0,,,85,52
217920,note_off,240,0,2,,,,,,,,,1,,,80,0
217920,note_off,0,0,3,,,,,,,,,2,,,68,0
217920,note_off,480,0,3,,,,,,,,,2,,,61,0
217920,note_off,0,0,2,,,,,,,,,1,,,83,0
217920,note_off,480,0,4,,,,,,,,,3,,,59,0
218040,note_on,120,0,2,,,,,,,,,1,,,83,52
218160,note_on,120,0,2,,,,,,,,,1,,,80,52
218280,note_off,360,0,1,,,,,,,,,0,,,85,0
218280,note_on,0,0,1,,,,,,,,,0,,,85,52
218400,note_off,120,0,1,,,,,,,,,0,,,85,0
218400,note_on,0,0,1,,,,,,,,,0,,,87,51
218400,note_on,0,0,3,,,,,,,,,2,,,68,50
218400,note_on,480,0,3,,,,,,,,,2,,,63,50
218400,note_off,0,0,2,,,,,,,,,1,,,83,0
218400,note_off,240,0,2,,,,,,,,,1,,,80,0
218400,note_on,480,0,4,,,,,,,,,3,,,59,50
218520,note_on,120,0,2,,,,,,,,,1,,,83,51
218640,note_on,120,0,2,,,,,,,,,1,,,80,51
218760,note_off,360,0,1,,,,,,,,,0,,,87,0
218760,note_on,0,0,1,,,,,,,,,0,,,87,51
218820,set_tempo,3765,1,0,,,,,,508474,,,,,,,
218880,note_off,120,0,1,,,,,,,,,0,,,87,0
218880,note_off,480,0,3,,,,,,,,,2,,,68,0
218880,note_off,0,0,3,,,,,,,,,2,,,63,0
218880,note_on,0,0,3,,,,,,,,,2,,,68,56
218880,note_on,0,0,3,,,,,,,,,2,,,62,56
218880,note_off,480,0,4,,,,,,,,,3,,,59,0
218880,note_on,0,0,1,,,,,,,,,0,,,89,51
218880,note_on,0,0,4,,,,,,,,,3,,,59,56
218880,note_off,240,0,2,,,,,,,,,1,,,80,0
218880,note_off,0,0,2,,,,,,,,,1,,,83,0
218880,set_tempo,60,1,0,,,,,,500000,,,,,,,
219000,note_on,120,0,2,,,,,,,,,1,,,83,50
219120,note_on,120,0,2,,,,,,,,,1,,,80,50
219240,note_on,0,0,1,,,,,,,,,0,,,89,50
219240,note_off,360,0,1,,,,,,,,,0,,,89,0
219360,note_off,0,0,3,,,,,,,,,2,,,68,0
219360,note_off,480,0,3,,,,,,,,,2,,,62,0
219360,note_off,480,0,4,,,,,,,,,3,,,59,0
219360,note_on,0,0,4,,,,,,,,,3,,,59,49
219360,note_on,0,0,3,,,,,,,,,2,,,68,49
219360,note_on,0,0,1,,,,,,,,,0,,,92,50
219360,note_off,120,0,1,,,,,,,,,0,,,89,0
219360,note_on,0,0,3,,,,,,,,,2,,,61,49
219360,note_off,240,0,2,,,,,,,,,1,,,80,0
219360,note_off,0,0,2,,,,,,,,,1,,,83,0
219480,note_on,120,0,2,,,,,,,,,1,,,83,49
219600,note_on,120,0,2,,,,,,,,,1,,,80,49
219720,note_off,360,0,1,,,,,,,,,0,,,92,0
219720,note_on,0,0,1,,,,,,,,,0,,,90,49
219840,note_off,0,0,2,,,,,,,,,1,,,83,0
219840,note_off,240,0,2,,,,,,,,,1,,,80,0
219840,note_off,0,0,3,,,,,,,,,2,,,68,0
219840,note_off,480,0,3,,,,,,,,,2,,,61,0
219840,note_on,0,0,4,,,,,,,,,3,,,59,54
219840,note_off,480,0,4,,,,,,,,,3,,,59,0
219840,note_on,0,0,3,,,,,,,,,2,,,62,54
219840,note_on,0,0,1,,,,,,,,,0,,,89,49
219840,note_off,120,0,1,,,,,,,,,0,,,90,0
219840,note_on,0,0,3,,,,,,,,,2,,,68,54
219960,note_on,120,0,2,,,,,,,,,1,,,83,49
220080,note_on,120,0,2,,,,,,,,,1,,,80,48
220200,note_on,0,0,1,,,,,,,,,0,,,89,48
220200,note_off,360,0,1,,,,,,,,,0,,,89,0
220320,note_off,480,0,4,,,,,,,,,3,,,59,0
220320,note_on,0,0,4,,,,,,,,,3,,,59,48
220320,note_off,0,0,2,,,,,,,,,1,,,83,0
220320,note_on,0,0,1,,,,,,,,,0,,,92,48
220320,note_off,0,0,3,,,,,,,,,2,,,68,0
220320,note_on,0,0,3,,,,,,,,,2,,,68,48
220320,note_on,0,0,3,,,,,,,,,2,,,61,48
220320,note_off,120,0,1,,,,,,,,,0,,,89,0
220320,note_off,240,0,2,,,,,,,,,1,,,80,0
220320,note_off,480,0,3,,,,,,,,,2,,,62,0
220440,note_on,120,0,2,,,,,,,,,1,,,83,48
220560,note_on,120,0,2,,,,,,,,,1,,,80,48
220680,note_on,0,0,1,,,,,,,,,0,,,90,47
220680,note_off,360,0,1,,,,,,,,,0,,,92,0
220800,note_off,480,0,3,,,,,,,,,2,,,61,0
220800,note_off,0,0,3,,,,,,,,,2,,,68,0
220800,note_on,0,0,3,,,,,,,,,2,,,68,55
220800,note_on,0,0,3,,,,,,,,,2,,,62,55
220800,note_off,240,0,2,,,,,,,,,1,,,80,0
220800,note_on,0,0,4,,,,,,,,,3,,,59,55
220800,note_off,0,0,2,,,,,,,,,1,,,83,0
220800,note_on,0,0,1,,,,,,,,,0,,,89,47
220800,note_off,120,0,1,,,,,,,,,0,,,90,0
220800,note_off,480,0,4,,,,,,,,,3,,,59,0
220920,note_on,120,0,2,,,,,,,,,1,,,83,47
221040,note_on,120,0,2,,,,,,,,,1,,,80,47
221160,note_on,0,0,1,,,,,,,,,0,,,89,47
221160,note_off,360,0,1,,,,,,,,,0,,,89,0
221280,note_off,480,0,4,,,,,,,,,3,,,59,0
221280,note_on,0,0,4,,,,,,,,,3,,,59,47
221280,note_on,0,0,3,,,,,,,,,2,,,68,47
221280,note_off,480,0,3,,,,,,,,,2,,,62,0
221280,note_off,0,0,3,,,,,,,,,2,,,68,0
221280,note_on,0,0,3,,,,,,,,,2,,,61,47
221280,note_on,0,0,1,,,,,,,,,0,,,92,46
221280,note_off,0,0,2,,,,,,,,,1,,,83,0
221280,note_off,240,0,2,,,,,,,,,1,,,80,0
221280,note_off,120,0,1,,,,,,,,,0,,,89,0
221400,note_on,120,0,2,,,,,,,,,1,,,83,46
221520,note_on,120,0,2,,,,,,,,,1,,,80,46
221640,note_off,360,0,1,,,,,,,,,0,,,92,0
221640,note_on,0,0,1,,,,,,,,,0,,,92,46
221760,note_off,0,0,3,,,,,,,,,2,,,68,0
221760,note_off,0,0,2,,,,,,,,,1,,,83,0
221760,note_off,240,0,2,,,,,,,,,1,,,80,0
221760,note_off,480,0,4,,,,,,,,,3,,,59,0
221760,note_off,480,0,3,,,,,,,,,2,,,61,0
221760,note_off,120,0,1,,,,,,,,,0,,,92,0
221760,note_on,0,0,1,,,,,,,,,0,,,85,45
221880,note_on,120,0,2,,,,,,,,,1,,,83,45
222000,note_on,120,0,2,,,,,,,,,1,,,80,45
222120,note_off,360,0,1,,,,,,,,,0,,,85,0
222120,note_on,0,0,1,,,,,,,,,0,,,85,45
222240,note_on,480,0,3,,,,,,,,,2,,,63,46
222240,note_on,0,0,3,,,,,,,,,2,,,68,46
222240,note_on,0,0,1,,,,,,,,,0,,,87,45
222240,note_on,480,0,4,,,,,,,,,3,,,59,46
222240,note_off,120,0,1,,,,,,,,,0,,,85,0
222240,note_off,240,0,2,,,,,,,,,1,,,80,0
222240,note_off,0,0,2,,,,,,,,,1,,,83,0
222360,note_on,120,0,2,,,,,,,,,1,,,83,44
222480,note_on,120,0,2,,,,,,,,,1,,,80,44
222600,note_on,0,0,1,,,,,,,,,0,,,87,46
222600,note_off,360,0,1,,,,,,,,,0,,,87,0
222660,set_tempo,3780,1,0,,,,,,508474,,,,,,,
222720,note_off,480,0,4,,,,,,,,,3,,,59,0
222720,note_on,0,0,3,,,,,,,,,2,,,61,48
222720,note_off,480,0,3,,,,,,,,,2,,,68,0
222720,note_on,0,0,3,,,,,,,,,2,,,68,48
222720,note_off,0,0,3,,,,,,,,,2,,,63,0
222720,note_off,120,0,1,,,,,,,,,0,,,87,0
222720,note_on,0,0,1,,,,,,,,,0,,,89,47
222720,set_tempo,60,1,0,,,,,,500000,,,,,,,
222720,note_off,240,0,2,,,,,,,,,1,,,80,0
222720,note_off,0,0,2,,,,,,,,,1,,,83,0
222720,note_on,0,0,4,,,,,,,,,3,,,59,48
222840,note_on,120,0,2,,,,,,,,,1,,,85,48
222960,note_on,120,0,2,,,,,,,,,1,,,80,49
223080,note_off,360,0,1,,,,,,,,,0,,,89,0
223080,note_on,0,0,1,,,,,,,,,0,,,89,50
223200,note_on,0,0,4,,,,,,,,,3,,,58,50
223200,note_off,480,0,4,,,,,,,,,3,,,59,0
223200,note_off,240,0,2,,,,,,,,,1,,,80,0
223200,note_off,0,0,2,,,,,,,,,1,,,85,0
223200,note_off,480,0,3,,,,,,,,,2,,,68,0
223200,note_off,0,0,3,,,,,,,,,2,,,61,0
223200,note_on,0,0,3,,,,,,,,,2,,,66,50
223200,note_on,0,0,3,,,,,,,,,2,,,61,50
223200,note_on,0,0,1,,,,,,,,,0,,,90,51
223200,note_off,120,0,1,,,,,,,,,0,,,89,0
223320,note_on,120,0,2,,,,,,,,,1,,,85,51
223440,note_on,120,0,2,,,,,,,,,1,,,78,52
223560,note_off,360,0,1,,,,,,,,,0,,,90,0
223560,note_on,0,0,1,,,,,,,,,0,,,90,53
223680,note_off,0,0,2,,,,,,,,,1,,,85,0
223680,note_off,240,0,2,,,,,,,,,1,,,78,0
223680,note_off,0,0,3,,,,,,,,,2,,,66,0
223680,note_on,0,0,4,,,,,,,,,3,,,58,53
223680,note_off,120,0,1,,,,,,,,,0,,,90,0
223680,note_on,0,0,1,,,,,,,,,0,,,90,54
223680,note_on,0,0,3,,,,,,,,,2,,,61,53
223680,note_on,0,0,3,,,,,,,,,2,,,66,53
223680,note_off,480,0,3,,,,,,,,,2,,,61,0
223680,note_off,480,0,4,,,,,,,,,3,,,58,0
223800,note_on,120,0,2,,,,,,,,,1,,,85,55
223920,note_on,120,0,2,,,,,,,,,1,,,78,56
224040,note_on,0,0,1,,,,,,,,,0,,,90,57
224040,note_off,360,0,1,,,,,,,,,0,,,90,0
224160,note_off,0,0,3,,,,,,,,,2,,,66,0
224160,note_off,480,0,4,,,,,,,,,3,,,58,0
224160,note_off,120,0,1,,,,,,,,,0,,,90,0
224160,note_on,0,0,1,,,,,,,,,0,,,90,58
224160,note_on,0,0,3,,,,,,,,,2,,,66,55
224160,note_off,240,0,2,,,,,,,,,1,,,78,0
224160,note_off,480,0,3,,,,,,,,,2,,,61,0
224160,note_on,0,0,4,,,,,,,,,3,,,58,55
224160,note_on,0,0,3,,,,,,,,,2,,,61,55
224160,note_off,0,0,2,,,,,,,,,1,,,85,0
224280,note_on,120,0,2,,,,,,,,,1,,,85,59
224400,note_on,120,0,2,,,,,,,,,1,,,78,60
224520,note_on,0,0,1,,,,,,,,,0,,,90,61
224520,note_off,360,0,1,,,,,,,,,0,,,90,0
224640,note_on,0,0,3,,,,,,,,,2,,,60,58
224640,note_off,0,0,2,,,,,,,,,1,,,85,0
224640,note_off,240,0,2,,,,,,,,,1,,,78,0
224640,note_off,0,0,3,,,,,,,,,2,,,66,0
224640,note_on,0,0,3,,,,,,,,,2,,,66,58
224640,note_off,480,0,4,,,,,,,,,3,,,58,0
224640,note_on,0,0,4,,,,,,,,,3,,,57,58
224640,note_on,0,0,1,,,,,,,,,0,,,90,64
224640,note_off,120,0,1,,,,,,,,,0,,,90,0
224640,note_off,480,0,3,,,,,,,,,2,,,61,0
224760,note_on,120,0,2,,,,,,,,,1,,,84,65
224880,note_on,120,0,2,,,,,,,,,1,,,78,66
225000,note_on,0,0,1,,,,,,,,,0,,,90,66
225000,note_off,360,0,1,,,,,,,,,0,,,90,0
225120,note_on,0,0,1,,,,,,,,,0,,,90,67
225120,note_off,240,0,2,,,,,,,,,1,,,78,0
225120,note_on,0,0,3,,,,,,,,,2,,,60,60
225120,note_on,0,0,3,,,,,,,,,2,,,66,60
225120,note_off,0,0,3,,,,,,,,,2,,,66,0
225120,note_off,480,0,3,,,,,,,,,2,,,60,0
225120,note_off,480,0,4,,,,,,,,,3,,,57,0
225120,note_off,120,0,1,,,,,,,,,0,,,90,0
225120,note_off,0,0,2,,,,,,,,,1,,,84,0
225120,note_on,0,0,4,,,,,,,,,3,,,57,60
225240,note_on,120,0,2,,,,,,,,,1,,,84,68
225360,note_on,120,0,2,,,,,,,,,1,,,78,69
225480,note_off,360,0,1,,,,,,,,,0,,,90,0
225480,note_on,0,0,1,,,,,,,,,0,,,90,69
225600,note_off,0,0,2,,,,,,,,,1,,,84,0
225600,note_off,240,0,2,,,,,,,,,1,,,78,0
225600,note_off,480,0,3,,,,,,,,,2,,,60,0
225600,note_on,0,0,4,,,,,,,,,3,,,57,63
225600,note_off,480,0,4,,,,,,,,,3,,,57,0
225600,note_off,120,0,1,,,,,,,,,0,,,90,0
225600,note_on,0,0,3,,,,,,,,,2,,,66,63
225600,note_off,0,0,3,,,,,,,,,2,,,66,0
225600,note_on,0,0,3,,,,,,,,,2,,,60,63
225600,note_on,0,0,1,,,,,,,,,0,,,90,70
225720,note_on,120,0,2,,,,,,,,,1,,,84,71
225840,note_on,120,0,2,,,,,,,,,1,,,78,72
225960,note_off,360,0,1,,,,,,,,,0,,,90,0
225960,note_on,0,0,1,,,,,,,,,0,,,90,73
226080,note_on,0,0,3,,,,,,,,,2,,,66,65
226080,note_off,0,0,3,,,,,,,,,2,,,66,0
226080,note_on,0,0,3,,,,,,,,,2,,,60,65
226080,note_off,480,0,3,,,,,,,,,2,,,60,0
226080,note_off,0,0,2,,,,,,,,,1,,,84,0
226080,note_on,0,0,1,,,,,,,,,0,,,90,73
226080,note_off,240,0,2,,,,,,,,,1,,,78,0
226080,note_off,120,0,1,,,,,,,,,0,,,90,0
226080,note_off,480,0,4,,,,,,,,,3,,,57,0
226080,note_on,0,0,4,,,,,,,,,3,,,57,65
226200,note_on,120,0,2,,,,,,,,,1,,,84,74
226320,note_on,120,0,2,,,,,,,,,1,,,78,75
226440,note_on,0,0,1,,,,,,,,,0,,,90,76
226440,note_off,360,0,1,,,,,,,,,0,,,90,0
226500,set_tempo,3780,1,0,,,,,,504201,,,,,,,
226560,note_on,0,0,3,,,,,,,,,2,,,48,68
226560,note_on,0,0,4,,,,,,,,,3,,,38,68
226560,note_on,0,0,3,,,,,,,,,2,,,45,68
226560,note_on,0,0,3,,,,,,,,,2,,,42,68
226560,note_off,480,0,4,,,,,,,,,3,,,57,0
226560,note_off,480,0,3,,,,,,,,,2,,,60,0
226560,note_off,240,0,2,,,,,,,,,1,,,78,0
226560,set_tempo,60,1,0,,,,,,500000,,,,,,,
226560,note_off,120,0,1,,,,,,,,,0,,,90,0
226560,note_on,0,0,1,,,,,,,,,0,,,90,76
226560,note_off,0,0,3,,,,,,,,,2,,,66,0
226560,note_off,0,0,2,,,,,,,,,1,,,84,0
226680,note_on,120,0,2,,,,,,,,,1,,,84,77
226800,note_on,120,0,2,,,,,,,,,1,,,78,78
226920,note_off,360,0,1,,,,,,,,,0,,,90,0
226920,note_on,0,0,1,,,,,,,,,0,,,90,79
227040,note_off,480,0,3,,,,,,,,,2,,,48,0
227040,note_off,0,0,3,,,,,,,,,2,,,45,0
227040,note_off,0,0,3,,,,,,,,,2,,,42,0
227040,note_on,0,0,3,,,,,,,,,2,,,48,70
227040,note_on,0,0,3,,,,,,,,,2,,,45,70
227040,note_off,240,0,2,,,,,,,,,1,,,78,0
227040,note_off,0,0,2,,,,,,,,,1,,,84,0
227040,note_on,0,0,1,,,,,,,,,0,,,90,79
227040,note_off,120,0,1,,,,,,,,,0,,,90,0
227040,note_off,480,0,4,,,,,,,,,3,,,38,0
227040,note_on,0,0,3,,,,,,,,,2,,,42,70
227040,note_on,0,0,4,,,,,,,,,3,,,38,70
227160,note_on,120,0,2,,,,,,,,,1,,,84,80
227280,note_on,120,0,2,,,,,,,,,1,,,78,81
227400,note_on,0,0,1,,,,,,,,,0,,,90,82
227400,note_off,360,0,1,,,,,,,,,0,,,90,0
227520,note_on,0,0,4,,,,,,,,,3,,,38,73
227520,note_off,480,0,4,,,,,,,,,3,,,38,0
227520,note_off,0,0,3,,,,,,,,,2,,,45,0
227520,note_on,0,0,1,,,,,,,,,0,,,90,83
227520,note_off,480,0,3,,,,,,,,,2,,,48,0
227520,note_off,0,0,2,,,,,,,,,1,,,84,0
227520,note_off,240,0,2,,,,,,,,,1,,,78,0
227520,note_on,0,0,3,,,,,,,,,2,,,48,73
227520,note_on,0,0,3,,,,,,,,,2,,,45,73
227520,note_on,0,0,3,,,,,,,,,2,,,42,73
227520,note_off,0,0,3,,,,,,,,,2,,,42,0
227520,note_off,120,0,1,,,,,,,,,0,,,90,0
227640,note_on,120,0,2,,,,,,,,,1,,,84,83
227760,note_on,120,0,2,,,,,,,,,1,,,78,84
227880,note_off,360,0,1,,,,,,,,,0,,,90,0
227880,note_on,0,0,1,,,,,,,,,0,,,90,85
228000,note_on,0,0,4,,,,,,,,,3,,,38,75
228000,note_off,480,0,4,,,,,,,,,3,,,38,0
228000,note_off,240,0,2,,,,,,,,,1,,,78,0
228000,note_off,0,0,2,,,,,,,,,1,,,84,0
228000,note_on,0,0,3,,,,,,,,,2,,,45,75
228000,note_on,0,0,3,,,,,,,,,2,,,48,75
228000,note_off,480,0,3,,,,,,,,,2,,,48,0
228000,note_off,0,0,3,,,,,,,,,2,,,45,0
228000,note_off,0,0,3,,,,,,,,,2,,,42,0
228000,note_on,0,0,3,,,,,,,,,2,,,42,75
228000,note_on,0,0,1,,,,,,,,,0,,,90,86
228000,note_off,120,0,1,,,,,,,,,0,,,90,0
228120,note_on,120,0,2,,,,,,,,,1,,,84,86
228240,note_on,120,0,2,,,,,,,,,1,,,78,87
228360,note_off,360,0,1,,,,,,,,,0,,,90,0
228360,note_on,0,0,1,,,,,,,,,0,,,90,88
228420,set_tempo,1860,1,0,,,,,,504201,,,,,,,
228480,note_off,0,0,3,,,,,,,,,2,,,45,0
228480,note_off,480,0,3,,,,,,,,,2,,,48,0
228480,note_on,0,0,4,,,,,,,,,3,,,49,76
228480,note_on,0,0,1,,,,,,,,,0,,,90,88
228480,note_off,120,0,1,,,,,,,,,0,,,90,0
228480,note_on,0,0,3,,,,,,,,,2,,,56,76
228480,note_off,240,0,2,,,,,,,,,1,,,78,0
228480,note_off,0,0,2,,,,,,,,,1,,,84,0
228480,note_off,480,0,4,,,,,,,,,3,,,38,0
228480,note_off,0,0,3,,,,,,,,,2,,,42,0
228560,note_on,0,0,3,,,,,,,,,2,,,58,72
228560,note_off,80,0,3,,,,,,,,,2,,,56,0
228600,note_on,120,0,2,,,,,,,,,1,,,83,88
228640,note_on,0,0,3,,,,,,,,,2,,,56,72
228640,note_off,80,0,3,,,,,,,,,2,,,58,0
228720,note_on,120,0,2,,,,,,,,,1,,,78,88
228720,note_on,0,0,3,,,,,,,,,2,,,58,72
228720,note_off,80,0,3,,,,,,,,,2,,,56,0
228800,note_on,0,0,3,,,,,,,,,2,,,56,73
228800,note_off,80,0,3,,,,,,,,,2,,,58,0
228840,note_off,360,0,1,,,,,,,,,0,,,90,0
228840,note_on,0,0,1,,,,,,,,,0,,,90,89
228880,note_off,80,0,3,,,,,,,,,2,,,56,0
228880,note_on,0,0,3,,,,,,,,,2,,,58,73
228960,note_off,120,0,1,,,,,,,,,0,,,90,0
228960,note_off,240,0,2,,,,,,,,,1,,,78,0
228960,note_off,80,0,3,,,,,,,,,2,,,58,0
228960,note_on,0,0,3,,,,,,,,,2,,,56,73
228960,note_off,0,0,2,,,,,,,,,1,,,83,0
228960,note_on,0,0,1,,,,,,,,,0,,,90,89
229040,note_on,0,0,3,,,,,,,,,2,,,58,74
229040,note_off,80,0,3,,,,,,,,,2,,,56,0
229080,note_on,120,0,2,,,,,,,,,1,,,83,90
229120,note_off,80,0,3,,,,,,,,,2,,,58,0
229120,note_on,0,0,3,,,,,,,,,2,,,56,74
229200,note_on,120,0,2,,,,,,,,,1,,,78,90
229200,note_off,80,0,3,,,,,,,,,2,,,56,0
229200,note_on,0,0,3,,,,,,,,,2,,,58,74
229280,note_off,80,0,3,,,,,,,,,2,,,58,0
229280,note_on,0,0,3,,,,,,,,,2,,,56,75
229320,note_on,0,0,1,,,,,,,,,0,,,90,90
229320,note_off,360,0,1,,,,,,,,,0,,,90,0
229360,note_off,80,0,3,,,,,,,,,2,,,56,0
229360,note_on,0,0,3,,,,,,,,,2,,,58,75
229440,note_off,80,0,3,,,,,,,,,2,,,58,0
229440,note_on,0,0,3,,,,,,,,,2,,,56,76
229440,note_off,0,0,2,,,,,,,,,1,,,83,0
229440,note_on,0,0,1,,,,,,,,,0,,,89,91
229440,note_off,120,0,1,,,,,,,,,0,,,90,0
229440,note_off,240,0,2,,,,,,,,,1,,,78,0
229520,note_off,80,0,3,,,,,,,,,2,,,56,0
229520,note_on,0,0,3,,,,,,,,,2,,,58,76
229560,note_on,120,0,2,,,,,,,,,1,,,83,91
229600,note_on,0,0,3,,,,,,,,,2,,,56,76
229600,note_off,80,0,3,,,,,,,,,2,,,58,0
229680,note_off,80,0,3,,,,,,,,,2,,,56,0
229680,note_on,0,0,3,,,,,,,,,2,,,58,77
229680,note_on,120,0,2,,,,,,,,,1,,,78,91
229760,note_off,80,0,3,,,,,,,,,2,,,58,0
229760,note_on,0,0,3,,,,,,,,,2,,,56,77
229800,note_on,0,0,1,,,,,,,,,0,,,89,92
229800,note_off,360,0,1,,,,,,,,,0,,,89,0
229840,note_off,80,0,3,,,,,,,,,2,,,56,0
229840,note_on,0,0,3,,,,,,,,,2,,,58,77
229920,note_on,0,0,1,,,,,,,,,0,,,89,92
229920,note_off,80,0,3,,,,,,,,,2,,,58,0
229920,note_on,0,0,3,,,,,,,,,2,,,56,78
229920,note_off,120,0,1,,,,,,,,,0,,,89,0
229920,note_off,240,0,2,,,,,,,,,1,,,78,0
229920,note_off,0,0,2,,,,,,,,,1,,,83,0
230000,note_on,0,0,3,,,,,,,,,2,,,58,78
230000,note_off,80,0,3,,,,,,,,,2,,,56,0
230040,note_on,120,0,2,,,,,,,,,1,,,83,93
230080,note_on,0,0,3,,,,,,,,,2,,,56,78
230080,note_off,80,0,3,,,,,,,,,2,,,58,0
230146,set_tempo,1726,1,0,,,,,,508474,,,,,,,
230160,note_on,120,0,2,,,,,,,,,1,,,78,93
230160,note_on,0,0,3,,,,,,,,,2,,,54,79
230160,note_off,80,0,3,,,,,,,,,2,,,56,0
230266,set_tempo,120,1,0,,,,,,517241,,,,,,,
230280,note_off,360,0,1,,,,,,,,,0,,,89,0
230280,note_off,120,0,3,,,,,,,,,2,,,54,0
230280,note_on,0,0,1,,,,,,,,,0,,,89,93
230280,note_on,0,0,3,,,,,,,,,2,,,56,79
230386,set_tempo,120,1,0,,,,,,508474,,,,,,,
230400,note_off,240,0,2,,,,,,,,,1,,,78,0
230400,note_on,0,0,2,,,,,,,,,1,,,82,95
230400,note_on,0,0,2,,,,,,,,,1,,,78,95
230400,note_off,1920,0,4,,,,,,,,,3,,,49,0
230400,note_on,0,0,4,,,,,,,,,3,,,42,79
230400,note_on,0,0,3,,,,,,,,,2,,,54,79
230400,note_off,120,0,3,,,,,,,,,2,,,56,0
230400,note_on,0,0,1,,,,,,,,,0,,,90,95
230400,note_off,120,0,1,,,,,,,,,0,,,89,0
230400,note_off,0,0,2,,,,,,,,,1,,,83,0
230866,set_tempo,480,1,0,,,,,,517241,,,,,,,
230880,note_off,480,0,4,,,,,,,,,3,,,42,0
230880,note_off,480,0,2,,,,,,,,,1,,,78,0
230880,note_off,480,0,1,,,,,,,,,0,,,90,0
230880,note_off,0,0,2,,,,,,,,,1,,,82,0
230880,note_off,480,0,3,,,,,,,,,2,,,54,0
231346,set_tempo,480,1,0,,,,,,508474,,,,,,,
231360,note_on,480,0,1,,,,,,,,,0,,,82,43
231360,note_on,480,0,4,,,,,,,,,3,,,66,43
231520,note_off,160,0,4,,,,,,,,,3,,,66,0
231520,note_off,160,0,1,,,,,,,,,0,,,82,0
231520,note_on,0,0,4,,,,,,,,,3,,,68,43
231520,note_on,0,0,1,,,,,,,,,0,,,78,43
231680,note_on,0,0,1,,,,,,,,,0,,,73,44
231680,note_off,160,0,1,,,,,,,,,0,,,78,0
231680,note_on,0,0,4,,,,,,,,,3,,,70,44
231680,note_off,160,0,4,,,,,,,,,3,,,68,0
231840,note_on,0,0,4,,,,,,,,,3,,,71,44
231840,note_on,0,0,1,,,,,,,,,0,,,75,45
231840,note_off,160,0,4,,,,,,,,,3,,,70,0
231840,note_off,160,0,1,,,,,,,,,0,,,73,0
232000,note_off,160,0,1,,,,,,,,,0,,,75,0
232000,note_on,0,0,1,,,,,,,,,0,,,78,46
232000,note_on,0,0,4,,,,,,,,,3,,,66,45
232000,note_off,160,0,4,,,,,,,,,3,,,71,0
232160,note_on,0,0,1,,,,,,,,,0,,,75,46
232160,note_off,160,0,1,,,,,,,,,0,,,78,0
232160,note_off,160,0,4,,,,,,,,,3,,,66,0
232160,note_on,0,0,4,,,,,,,,,3,,,71,45
232320,note_on,0,0,1,,,,,,,,,0,,,73,47
232320,note_off,160,0,1,,,,,,,,,0,,,75,0
232320,note_on,0,0,4,,,,,,,,,3,,,66,46
232320,note_on,0,0,4,,,,,,,,,3,,,70,46
232320,note_off,160,0,4,,,,,,,,,3,,,71,0
232480,note_off,160,0,1,,,,,,,,,0,,,73,0
232480,note_on,0,0,1,,,,,,,,,0,,,78,48
232640,note_on,0,0,1,,,,,,,,,0,,,80,49
232640,note_off,160,0,1,,,,,,,,,0,,,78,0
232800,note_on,0,0,1,,,,,,,,,0,,,82,49
232800,note_off,480,0,4,,,,,,,,,3,,,66,0
232800,note_off,0,0,4,,,,,,,,,3,,,70,0
232800,note_off,160,0,1,,,,,,,,,0,,,80,0
232960,note_off,160,0,1,,,,,,,,,0,,,82,0
232960,note_on,0,0,1,,,,,,,,,0,,,78,50
233120,note_on,0,0,1,,,,,,,,,0,,,85,51
233120,note_off,160,0,1,,,,,,,,,0,,,78,0
233280,note_off,160,0,1,,,,,,,,,0,,,85,0
233280,note_on,0,0,1,,,,,,,,,0,,,82,52
233280,note_on,480,0,4,,,,,,,,,3,,,54,50
233440,note_off,160,0,4,,,,,,,,,3,,,54,0
233440,note_on,0,0,4,,,,,,,,,3,,,56,49
233440,note_off,160,0,1,,,,,,,,,0,,,82,0
233440,note_on,0,0,1,,,,,,,,,0,,,78,51
233600,note_off,160,0,4,,,,,,,,,3,,,56,0
233600,note_on,0,0,4,,,,,,,,,3,,,58,48
233600,note_off,160,0,1,,,,,,,,,0,,,78,0
233600,note_on,0,0,1,,,,,,,,,0,,,73,50
233760,note_off,160,0,1,,,,,,,,,0,,,73,0
233760,note_on,0,0,1,,,,,,,,,0,,,71,49
233760,note_off,160,0,4,,,,,,,,,3,,,58,0
233760,note_on,0,0,4,,,,,,,,,3,,,49,46
233760,note_on,0,0,4,,,,,,,,,3,,,59,46
233920,note_off,160,0,1,,,,,,,,,0,,,71,0
233920,note_on,0,0,1,,,,,,,,,0,,,68,48
233920,note_on,0,0,4,,,,,,,,,3,,,56,45
233920,note_off,160,0,4,,,,,,,,,3,,,59,0
234080,note_off,160,0,4,,,,,,,,,3,,,56,0
234080,note_off,160,0,1,,,,,,,,,0,,,68,0
234080,note_on,0,0,1,,,,,,,,,0,,,73,48
234080,note_on,0,0,4,,,,,,,,,3,,,61,44
234240,note_on,0,0,1,,,,,,,,,0,,,70,47
234240,note_off,160,0,1,,,,,,,,,0,,,73,0
234240,note_on,0,0,4,,,,,,,,,3,,,58,43
234240,note_off,0,0,4,,,,,,,,,3,,,49,0
234240,note_on,0,0,4,,,,,,,,,3,,,54,43
234240,note_off,160,0,4,,,,,,,,,3,,,61,0
234586,set_tempo,3240,1,0,,,,,,517241,,,,,,,
234706,set_tempo,120,1,0,,,,,,508474,,,,,,,
234720,note_off,480,0,1,,,,,,,,,0,,,70,0
234720,note_on,0,0,1,,,,,,,,,0,,,73,48
234720,note_off,480,0,4,,,,,,,,,3,,,58,0
234720,note_off,0,0,4,,,,,,,,,3,,,54,0
234880,note_off,160,0,1,,,,,,,,,0,,,73,0
234880,note_on,0,0,1,,,,,,,,,0,,,78,49
235040,note_on,0,0,1,,,,,,,,,0,,,80,49
235040,note_off,160,0,1,,,,,,,,,0,,,78,0
235200,note_on,0,0,1,,,,,,,,,0,,,82,50
235200,note_off,160,0,1,,,,,,,,,0,,,80,0
235200,note_on,480,0,4,,,,,,,,,3,,,66,47
235360,note_off,160,0,4,,,,,,,,,3,,,66,0
235360,note_on,0,0,4,,,,,,,,,3,,,68,48
235360,note_off,160,0,1,,,,,,,,,0,,,82,0
235360,note_on,0,0,1,,,,,,,,,0,,,78,51
235520,note_on,0,0,1,,,,,,,,,0,,,73,51
235520,note_off,160,0,4,,,,,,,,,3,,,68,0
235520,note_on,0,0,4,,,,,,,,,3,,,70,49
235520,note_off,160,0,1,,,,,,,,,0,,,78,0
235680,note_off,160,0,4,,,,,,,,,3,,,70,0
235680,note_on,0,0,4,,,,,,,,,3,,,71,50
235680,note_on,0,0,1,,,,,,,,,0,,,75,52
235680,note_off,160,0,1,,,,,,,,,0,,,73,0
235840,note_off,160,0,1,,,,,,,,,0,,,75,0
235840,note_on,0,0,1,,,,,,,,,0,,,78,53
235840,note_off,160,0,4,,,,,,,,,3,,,71,0
235840,note_on,0,0,4,,,,,,,,,3,,,66,51
236000,note_on,0,0,4,,,,,,,,,3,,,71,52
236000,note_on,0,0,1,,,,,,,,,0,,,75,53
236000,note_off,160,0,4,,,,,,,,,3,,,66,0
236000,note_off,160,0,1,,,,,,,,,0,,,78,0
236160,note_on,0,0,1,,,,,,,,,0,,,73,54
236160,note_off,160,0,4,,,,,,,,,3,,,71,0
236160,note_on,0,0,4,,,,,,,,,3,,,66,53
236160,note_on,0,0,4,,,,,,,,,3,,,70,53
236160,note_off,160,0,1,,,,,,,,,0,,,75,0
236320,note_off,160,0,1,,,,,,,,,0,,,73,0
236320,note_on,0,0,1,,,,,,,,,0,,,78,55
236480,note_on,0,0,1,,,,,,,,,0,,,80,55
236480,note_off,160,0,1,,,,,,,,,0,,,78,0
236640,note_off,0,0,4,,,,,,,,,3,,,70,0
236640,note_on,0,0,1,,,,,,,,,0,,,82,56
236640,note_off,160,0,1,,,,,,,,,0,,,80,0
236640,note_off,480,0,4,,,,,,,,,3,,,66,0
236800,note_on,0,0,1,,,,,,,,,0,,,78,57
236800,note_off,160,0,1,,,,,,,,,0,,,82,0
236960,note_off,160,0,1,,,,,,,,,0,,,78,0
236960,note_on,0,0,1,,,,,,,,,0,,,85,57
236986,set_tempo,2280,1,0,,,,,,517241,,,,,,,
237120,note_on,6240,0,3,,,,,,,,,2,,,70,75
237120,note_on,6240,0,2,,,,,,,,,1,,,73,73
237120,note_on,0,0,2,,,,,,,,,1,,,75,73
237120,note_on,0,0,3,,,,,,,,,2,,,67,75
237120,note_on,480,0,4,,,,,,,,,3,,,63,75
237120,note_on,0,0,1,,,,,,,,,0,,,79,73
237120,note_off,160,0,1,,,,,,,,,0,,,85,0
237600,note_on,0,0,2,,,,,,,,,1,,,75,72
237600,note_off,480,0,1,,,,,,,,,0,,,79,0
237600,note_on,0,0,1,,,,,,,,,0,,,80,72
237600,note_off,480,0,3,,,,,,,,,2,,,67,0
237600,note_off,0,0,3,,,,,,,,,2,,,70,0
237600,note_off,480,0,2,,,,,,,,,1,,,75,0
237600,note_off,0,0,2,,,,,,,,,1,,,73,0
237600,note_on,0,0,3,,,,,,,,,2,,,68,72
237600,note_on,0,0,3,,,,,,,,,2,,,63,72
237600,note_on,0,0,2,,,,,,,,,1,,,71,72
237600,note_on,0,0,3,,,,,,,,,2,,,59,72
237600,note_on,0,0,4,,,,,,,,,3,,,56,72
237600,note_off,480,0,4,,,,,,,,,3,,,63,0
238080,note_off,480,0,3,,,,,,,,,2,,,59,0
238080,note_on,0,0,2,,,,,,,,,1,,,73,68
238080,note_on,0,0,2,,,,,,,,,1,,,71,68
238080,note_on,0,0,3,,,,,,,,,2,,,65,66
238080,note_on,0,0,3,,,,,,,,,2,,,68,66
238080,note_off,0,0,3,,,,,,,,,2,,,63,0
238080,note_off,0,0,3,,,,,,,,,2,,,68,0
238080,note_off,480,0,2,,,,,,,,,1,,,71,0
238080,note_off,0,0,2,,,,,,,,,1,,,75,0
238080,note_on,0,0,1,,,,,,,,,0,,,77,68
238080,note_off,480,0,1,,,,,,,,,0,,,80,0
238080,note_off,480,0,4,,,,,,,,,3,,,56,0
238080,note_on,0,0,4,,,,,,,,,3,,,61,66
238906,set_tempo,1920,1,0,,,,,,526315,,,,,,,
239026,set_tempo,120,1,0,,,,,,508474,,,,,,,
239040,note_off,960,0,3,,,,,,,,,2,,,65,0
239040,note_off,0,0,3,,,,,,,,,2,,,68,0
239040,note_on,0,0,3,,,,,,,,,2,,,59,64
239040,note_off,0,0,2,,,,,,,,,1,,,73,0
239040,note_on,0,0,3,,,,,,,,,2,,,56,64
239040,note_on,0,0,4,,,,,,,,,3,,,49,64
239040,note_off,960,0,4,,,,,,,,,3,,,61,0
239040,note_on,0,0,1,,,,,,,,,0,,,71,59
239040,note_off,960,0,1,,,,,,,,,0,,,77,0
239040,note_off,960,0,2,,,,,,,,,1,,,71,0
239160,note_on,0,0,1,,,,,,,,,0,,,73,60
239160,note_off,120,0,1,,,,,,,,,0,,,71,0
239280,note_off,120,0,1,,,,,,,,,0,,,73,0
239280,note_on,0,0,1,,,,,,,,,0,,,71,60
239400,note_on,0,0,1,,,,,,,,,0,,,70,60
239400,note_off,120,0,1,,,,,,,,,0,,,71,0
239520,note_off,120,0,1,,,,,,,,,0,,,70,0
239520,note_on,0,0,1,,,,,,,,,0,,,71,61
239640,note_off,120,0,1,,,,,,,,,0,,,71,0
239640,note_on,0,0,1,,,,,,,,,0,,,80,61
239760,note_off,120,0,1,,,,,,,,,0,,,80,0
239760,note_on,0,0,1,,,,,,,,,0,,,78,62
239880,note_on,0,0,1,,,,,,,,,0,,,77,62
239880,note_off,120,0,1,,,,,,,,,0,,,78,0
240000,note_on,0,0,4,,,,,,,,,3,,,54,67
240000,note_off,0,0,3,,,,,,,,,2,,,56,0
240000,note_on,0,0,3,,,,,,,,,2,,,58,67
240000,note_off,960,0,4,,,,,,,,,3,,,49,0
240000,note_off,120,0,1,,,,,,,,,0,,,77,0
240000,note_on,0,0,1,,,,,,,,,0,,,78,63
240000,note_off,960,0,3,,,,,,,,,2,,,59,0
240120,note_off,120,0,1,,,,,,,,,0,,,78,0
240120,note_on,0,0,1,,,,,,,,,0,,,73,63
240240,note_off,120,0,1,,,,,,,,,0,,,73,0
240240,note_on,0,0,1,,,,,,,,,0,,,70,63
240360,note_on,0,0,1,,,,,,,,,0,,,73,64
240360,note_off,120,0,1,,,,,,,,,0,,,70,0
240480,note_on,0,0,1,,,,,,,,,0,,,78,64
240480,note_off,120,0,1,,,,,,,,,0,,,73,0
240480,note_off,480,0,3,,,,,,,,,2,,,58,0
240480,note_off,480,0,4,,,,,,,,,3,,,54,0
240600,note_off,120,0,1,,,,,,,,,0,,,78,0
240600,note_on,0,0,1,,,,,,,,,0,,,82,65
240720,note_off,120,0,1,,,,,,,,,0,,,82,0
240720,note_on,0,0,1,,,,,,,,,0,,,85,65
240826,set_tempo,1800,1,0,,,,,,517241,,,,,,,
240840,note_off,120,0,1,,,,,,,,,0,,,85,0
240840,note_on,0,0,1,,,,,,,,,0,,,90,68
240960,note_on,0,0,3,,,,,,,,,2,,,73,79
240960,note_on,480,0,4,,,,,,,,,3,,,63,79
240960,note_on,0,0,1,,,,,,,,,0,,,91,79
240960,note_off,120,0,1,,,,,,,,,0,,,90,0
240960,note_on,1920,0,2,,,,,,,,,1,,,82,79
240960,note_on,0,0,2,,,,,,,,,1,,,87,79
240960,note_on,0,0,2,,,,,,,,,1,,,85,79
240960,note_on,0,0,2,,,,,,,,,1,,,79,79
240960,note_on,0,0,3,,,,,,,,,2,,,70,79
240960,note_on,480,0,3,,,,,,,,,2,,,67,79
241440,note_on,0,0,2,,,,,,,,,1,,,83,76
241440,note_off,480,0,3,,,,,,,,,2,,,73,0
241440,note_off,0,0,3,,,,,,,,,2,,,70,0
241440,note_off,0,0,3,,,,,,,,,2,,,67,0
241440,note_on,0,0,3,,,,,,,,,2,,,75,76
241440,note_on,0,0,3,,,,,,,,,2,,,71,76
241440,note_on,0,0,2,,,,,,,,,1,,,87,76
241440,note_off,0,0,2,,,,,,,,,1,,,82,0
241440,note_off,0,0,2,,,,,,,,,1,,,87,0
241440,note_off,0,0,2,,,,,,,,,1,,,85,0
241440,note_off,480,0,2,,,,,,,,,1,,,79,0
241440,note_on,0,0,1,,,,,,,,,0,,,92,76
241440,note_off,480,0,1,,,,,,,,,0,,,91,0
241440,note_on,0,0,2,,,,,,,,,1,,,80,76
241440,note_on,0,0,4,,,,,,,,,3,,,68,76
241440,note_off,480,0,4,,,,,,,,,3,,,63,0
241920,note_off,480,0,4,,,,,,,,,3,,,68,0
241920,note_off,0,0,2,,,,,,,,,1,,,87,0
241920,note_on,0,0,2,,,,,,,,,1,,,83,72
241920,note_on,0,0,2,,,,,,,,,1,,,85,72
241920,note_on,0,0,2,,,,,,,,,1,,,80,72
241920,note_off,480,0,1,,,,,,,,,0,,,92,0
241920,note_off,0,0,2,,,,,,,,,1,,,83,0
241920,note_off,480,0,2,,,,,,,,,1,,,80,0
241920,note_on,0,0,2,,,,,,,,,1,,,77,72
241920,note_on,0,0,1,,,,,,,,,0,,,89,72
241920,note_on,0,0,4,,,,,,,,,3,,,61,69
241920,note_off,480,0,3,,,,,,,,,2,,,71,0
241920,note_off,0,0,3,,,,,,,,,2,,,75,0
241920,note_on,0,0,3,,,,,,,,,2,,,68,69
241920,note_on,0,0,3,,,,,,,,,2,,,65,69
241920,note_on,0,0,3,,,,,,,,,2,,,71,69
241920,note_on,0,0,3,,,,,,,,,2,,,73,69
242746,set_tempo,1920,1,0,,,,,,526315,,,,,,,
242866,set_tempo,120,1,0,,,,,,508474,,,,,,,
242880,note_off,0,0,3,,,,,,,,,2,,,71,0
242880,note_off,960,0,3,,,,,,,,,2,,,73,0
242880,note_off,0,0,3,,,,,,,,,2,,,65,0
242880,note_off,0,0,3,,,,,,,,,2,,,68,0
242880,note_on,0,0,3,,,,,,,,,2,,,56,60
242880,note_on,0,0,3,,,,,,,,,2,,,59,60
242880,note_off,960,0,2,,,,,,,,,1,,,77,0
242880,note_off,0,0,2,,,,,,,,,1,,,83,0
242880,note_off,0,0,2,,,,,,,,,1,,,85,0
242880,note_on,0,0,1,,,,,,,,,0,,,83,62
242880,note_off,960,0,1,,,,,,,,,0,,,89,0
242880,note_off,0,0,2,,,,,,,,,1,,,80,0
242880,note_on,0,0,4,,,,,,,,,3,,,49,60
242880,note_off,960,0,4,,,,,,,,,3,,,61,0
243000,note_off,120,0,1,,,,,,,,,0,,,83,0
243000,note_on,0,0,1,,,,,,,,,0,,,85,62
243120,note_on,0,0,1,,,,,,,,,0,,,83,62
243120,note_off,120,0,1,,,,,,,,,0,,,85,0
243240,note_off,120,0,1,,,,,,,,,0,,,83,0
243240,note_on,0,0,1,,,,,,,,,0,,,82,61
243360,note_on,0,0,1,,,,,,,,,0,,,83,62
243360,note_off,120,0,1,,,,,,,,,0,,,82,0
243480,note_off,120,0,1,,,,,,,,,0,,,83,0
243480,note_on,0,0,1,,,,,,,,,0,,,92,61
243600,note_off,120,0,1,,,,,,,,,0,,,92,0
243600,note_on,0,0,1,,,,,,,,,0,,,90,61
243720,note_on,0,0,1,,,,,,,,,0,,,89,60
243720,note_off,120,0,1,,,,,,,,,0,,,90,0
243840,note_off,960,0,3,,,,,,,,,2,,,59,0
243840,note_off,0,0,3,,,,,,,,,2,,,56,0
243840,note_on,0,0,3,,,,,,,,,2,,,58,59
243840,note_off,120,0,1,,,,,,,,,0,,,89,0
243840,note_off,960,0,4,,,,,,,,,3,,,49,0
243840,note_on,0,0,1,,,,,,,,,0,,,90,60
243840,note_on,0,0,4,,,,,,,,,3,,,54,59
243960,note_off,120,0,1,,,,,,,,,0,,,90,0
243960,note_on,0,0,1,,,,,,,,,0,,,85,60
244080,note_off,120,0,1,,,,,,,,,0,,,85,0
244080,note_on,0,0,1,,,,,,,,,0,,,82,59
244200,note_off,120,0,1,,,,,,,,,0,,,82,0
244200,note_on,0,0,1,,,,,,,,,0,,,78,59
244320,note_off,480,0,3,,,,,,,,,2,,,58,0
244320,note_off,480,0,4,,,,,,,,,3,,,54,0
244320,note_on,0,0,1,,,,,,,,,0,,,73,59
244320,note_off,120,0,1,,,,,,,,,0,,,78,0
244440,note_off,120,0,1,,,,,,,,,0,,,73,0
244440,note_on,0,0,1,,,,,,,,,0,,,78,59
244560,note_off,120,0,1,,,,,,,,,0,,,78,0
244560,note_on,0,0,1,,,,,,,,,0,,,73,58
244680,note_off,120,0,1,,,,,,,,,0,,,73,0
244680,note_on,0,0,1,,,,,,,,,0,,,70,58
244800,note_off,120,0,1,,,,,,,,,0,,,70,0
244800,note_on,0,0,3,,,,,,,,,2,,,47,57
244800,note_on,480,0,4,,,,,,,,,3,,,37,57
244800,note_on,0,0,1,,,,,,,,,0,,,71,58
244800,note_on,480,0,3,,,,,,,,,2,,,44,57
244920,note_off,120,0,1,,,,,,,,,0,,,71,0
244920,note_on,0,0,1,,,,,,,,,0,,,73,58
245040,note_on,0,0,1,,,,,,,,,0,,,71,57
245040,note_off,120,0,1,,,,,,,,,0,,,73,0
245160,note_off,120,0,1,,,,,,,,,0,,,71,0
245160,note_on,0,0,1,,,,,,,,,0,,,70,57
245280,note_off,120,0,1,,,,,,,,,0,,,70,0
245280,note_on,0,0,1,,,,,,,,,0,,,71,57
245400,note_on,0,0,1,,,,,,,,,0,,,80,57
245400,note_off,120,0,1,,,,,,,,,0,,,71,0
245520,note_off,120,0,1,,,,,,,,,0,,,80,0
245520,note_on,0,0,1,,,,,,,,,0,,,78,56
245640,note_off,120,0,1,,,,,,,,,0,,,78,0
245640,note_on,0,0,1,,,,,,,,,0,,,77,56
245760,note_off,960,0,4,,,,,,,,,3,,,37,0
245760,note_off,960,0,3,,,,,,,,,2,,,47,0
245760,note_on,0,0,4,,,,,,,,,3,,,42,55
245760,note_off,0,0,3,,,,,,,,,2,,,44,0
245760,note_on,0,0,1,,,,,,,,,0,,,78,56
245760,note_off,120,0,1,,,,,,,,,0,,,77,0
245760,note_on,0,0,3,,,,,,,,,2,,,46,55
245880,note_off,120,0,1,,,,,,,,,0,,,78,0
245880,note_on,0,0,1,,,,,,,,,0,,,73,55
246000,note_off,120,0,1,,,,,,,,,0,,,73,0
246000,note_on,0,0,1,,,,,,,,,0,,,70,55
246120,note_off,120,0,1,,,,,,,,,0,,,70,0
246120,note_on,0,0,1,,,,,,,,,0,,,66,55
246240,note_off,120,0,1,,,,,,,,,0,,,66,0
246240,note_on,0,0,1,,,,,,,,,0,,,61,55
246240,note_off,480,0,4,,,,,,,,,3,,,42,0
246240,note_off,480,0,3,,,,,,,,,2,,,46,0
246360,note_on,0,0,1,,,,,,,,,0,,,66,54
246360,note_off,120,0,1,,,,,,,,,0,,,61,0
246480,note_on,0,0,1,,,,,,,,,0,,,61,54
246480,note_off,120,0,1,,,,,,,,,0,,,66,0
246600,note_on,0,0,1,,,,,,,,,0,,,58,54
246600,note_off,120,0,1,,,,,,,,,0,,,61,0
246720,note_off,120,0,1,,,,,,,,,0,,,58,0
246720,note_on,480,0,4,,,,,,,,,3,,,47,57
246840,note_on,0,0,4,,,,,,,,,3,,,49,56
246840,note_off,120,0,4,,,,,,,,,3,,,47,0
246960,note_on,0,0,4,,,,,,,,,3,,,47,56
246960,note_off,120,0,4,,,,,,,,,3,,,49,0
247080,note_on,0,0,4,,,,,,,,,3,,,46,56
247080,note_off,120,0,4,,,,,,,,,3,,,47,0
247200,note_on,4320,0,2,,,,,,,,,1,,,65,52
247200,note_on,0,0,2,,,,,,,,,1,,,68,52
247200,note_on,480,0,1,,,,,,,,,0,,,71,52
247200,note_off,120,0,4,,,,,,,,,3,,,46,0
247200,note_on,0,0,4,,,,,,,,,3,,,47,56
247320,note_on,0,0,4,,,,,,,,,3,,,49,55
247320,note_off,120,0,4,,,,,,,,,3,,,47,0
247440,note_off,120,0,4,,,,,,,,,3,,,49,0
247440,note_on,0,0,4,,,,,,,,,3,,,51,55
247560,note_off,120,0,4,,,,,,,,,3,,,51,0
247560,note_on,0,0,4,,,,,,,,,3,,,53,55
247680,note_off,480,0,2,,,,,,,,,1,,,68,0
247680,note_off,120,0,4,,,,,,,,,3,,,53,0
247680,note_on,0,0,4,,,,,,,,,3,,,54,54
247680,note_off,0,0,2,,,,,,,,,1,,,65,0
247680,note_off,480,0,1,,,,,,,,,0,,,71,0
247800,note_off,120,0,4,,,,,,,,,3,,,54,0
247800,note_on,0,0,4,,,,,,,,,3,,,56,54
247920,note_off,120,0,4,,,,,,,,,3,,,56,0
247920,note_on,0,0,4,,,,,,,,,3,,,58,54
248040,note_off,120,0,4,,,,,,,,,3,,,58,0
248040,note_on,0,0,4,,,,,,,,,3,,,59,54
248160,note_on,480,0,2,,,,,,,,,1,,,68,50
248160,note_on,0,0,2,,,,,,,,,1,,,65,50
248160,note_on,0,0,4,,,,,,,,,3,,,61,53
248160,note_on,480,0,1,,,,,,,,,0,,,71,50
248160,note_off,120,0,4,,,,,,,,,3,,,59,0
248280,note_on,0,0,4,,,,,,,,,3,,,59,53
248280,note_off,120,0,4,,,,,,,,,3,,,61,0
248400,note_on,0,0,4,,,,,,,,,3,,,58,53
248400,note_off,120,0,4,,,,,,,,,3,,,59,0
248520,note_off,120,0,4,,,,,,,,,3,,,58,0
248520,note_on,0,0,4,,,,,,,,,3,,,56,53
248640,note_off,0,0,2,,,,,,,,,1,,,68,0
248640,note_off,480,0,2,,,,,,,,,1,,,65,0
248640,note_off,120,0,4,,,,,,,,,3,,,56,0
248640,note_on,0,0,4,,,,,,,,,3,,,54,52
248640,note_off,480,0,1,,,,,,,,,0,,,71,0
248760,note_off,120,0,4,,,,,,,,,3,,,54,0
248760,note_on,0,0,4,,,,,,,,,3,,,53,52
248880,note_off,120,0,4,,,,,,,,,3,,,53,0
248880,note_on,0,0,4,,,,,,,,,3,,,51,52
249000,note_on,0,0,4,,,,,,,,,3,,,49,52
249000,note_off,120,0,4,,,,,,,,,3,,,51,0
249120,note_on,0,0,4,,,,,,,,,3,,,51,51
249120,note_off,120,0,4,,,,,,,,,3,,,49,0
249120,note_on,480,0,1,,,,,,,,,0,,,73,48
249120,note_on,0,0,2,,,,,,,,,1,,,68,48
249120,note_on,0,0,2,,,,,,,,,1,,,65,48
249120,note_on,480,0,2,,,,,,,,,1,,,71,48
249240,note_off,120,0,4,,,,,,,,,3,,,51,0
249240,note_on,0,0,4,,,,,,,,,3,,,49,51
249360,note_off,120,0,4,,,,,,,,,3,,,49,0
249360,note_on,0,0,4,,,,,,,,,3,,,51,51
249480,note_on,0,0,4,,,,,,,,,3,,,53,50
249480,note_off,120,0,4,,,,,,,,,3,,,51,0
249600,note_off,0,0,2,,,,,,,,,1,,,68,0
249600,note_off,0,0,2,,,,,,,,,1,,,71,0
249600,note_off,480,0,1,,,,,,,,,0,,,73,0
249600,note_off,120,0,4,,,,,,,,,3,,,53,0
249600,note_on,0,0,4,,,,,,,,,3,,,54,50
249600,note_off,480,0,2,,,,,,,,,1,,,65,0
249720,note_off,120,0,4,,,,,,,,,3,,,54,0
249720,note_on,0,0,4,,,,,,,,,3,,,56,50
249840,note_off,120,0,4,,,,,,,,,3,,,56,0
249840,note_on,0,0,4,,,,,,,,,3,,,58,50
249960,note_on,0,0,4,,,,,,,,,3,,,59,49
249960,note_off,120,0,4,,,,,,,,,3,,,58,0
250080,note_on,480,0,2,,,,,,,,,1,,,70,46
250080,note_on,0,0,2,,,,,,,,,1,,,66,46
250080,note_on,480,0,1,,,,,,,,,0,,,73,46
250080,note_off,120,0,4,,,,,,,,,3,,,59,0
250080,note_on,0,0,4,,,,,,,,,3,,,61,49
250200,note_off,120,0,4,,,,,,,,,3,,,61,0
250200,note_on,0,0,4,,,,,,,,,3,,,63,49
250320,note_on,0,0,4,,,,,,,,,3,,,61,49
250320,note_off,120,0,4,,,,,,,,,3,,,63,0
250440,note_on,0,0,4,,,,,,,,,3,,,59,48
250440,note_off,120,0,4,,,,,,,,,3,,,61,0
250560,note_off,120,0,4,,,,,,,,,3,,,59,0
250560,note_on,0,0,4,,,,,,,,,3,,,58,48
250560,note_off,480,0,1,,,,,,,,,0,,,73,0
250560,note_off,0,0,2,,,,,,,,,1,,,70,0
250560,note_off,480,0,2,,,,,,,,,1,,,66,0
250680,note_off,120,0,4,,,,,,,,,3,,,58,0
250680,note_on,0,0,4,,,,,,,,,3,,,59,48
250800,note_on,0,0,4,,,,,,,,,3,,,61,48
250800,note_off,120,0,4,,,,,,,,,3,,,59,0
250920,note_off,120,0,4,,,,,,,,,3,,,61,0
250920,note_on,0,0,4,,,,,,,,,3,,,59,47
251040,note_on,0,0,4,,,,,,,,,3,,,58,47
251040,note_off,120,0,4,,,,,,,,,3,,,59,0
251040,note_on,480,0,1,,,,,,,,,0,,,70,52
251160,note_off,120,0,4,,,,,,,,,3,,,58,0
251160,note_on,0,0,4,,,,,,,,,3,,,59,47
251280,note_on,0,0,4,,,,,,,,,3,,,58,46
251280,note_off,120,0,4,,,,,,,,,3,,,59,0
251400,note_on,0,0,1,,,,,,,,,0,,,71,56
251400,note_off,360,0,1,,,,,,,,,0,,,70,0
251400,note_off,120,0,4,,,,,,,,,3,,,58,0
251400,note_on,0,0,4,,,,,,,,,3,,,56,46
251446,set_tempo,8580,1,0,,,,,,508474,,,,,,,
251520,note_on,0,0,4,,,,,,,,,3,,,54,46
251520,note_off,120,0,1,,,,,,,,,0,,,71,0
251520,note_off,120,0,4,,,,,,,,,3,,,56,0
251535,set_tempo,89,1,0,,,,,,500000,,,,,,,
251640,note_on,0,0,4,,,,,,,,,3,,,56,46
251640,note_off,120,0,4,,,,,,,,,3,,,54,0
251760,note_on,0,0,4,,,,,,,,,3,,,58,45
251760,note_off,120,0,4,,,,,,,,,3,,,56,0
251880,note_off,120,0,4,,,,,,,,,3,,,58,0
251880,note_on,0,0,4,,,,,,,,,3,,,59,45
252000,note_on,0,0,2,,,,,,,,,1,,,70,42
252000,note_on,0,0,2,,,,,,,,,1,,,64,42
252000,note_on,1440,0,2,,,,,,,,,1,,,66,42
252000,note_on,0,0,4,,,,,,,,,3,,,61,45
252000,note_off,120,0,4,,,,,,,,,3,,,59,0
252000,note_on,480,0,1,,,,,,,,,0,,,73,42
252120,note_off,120,0,4,,,,,,,,,3,,,61,0
252120,note_on,0,0,4,,,,,,,,,3,,,59,45
252240,note_on,0,0,4,,,,,,,,,3,,,58,44
252240,note_off,120,0,4,,,,,,,,,3,,,59,0
252360,note_on,0,0,4,,,,,,,,,3,,,56,44
252360,note_off,120,0,4,,,,,,,,,3,,,58,0
252480,note_off,480,0,2,,,,,,,,,1,,,70,0
252480,note_off,0,0,2,,,,,,,,,1,,,64,0
252480,note_off,0,0,2,,,,,,,,,1,,,66,0
252480,note_off,120,0,4,,,,,,,,,3,,,56,0
252480,note_on,0,0,4,,,,,,,,,3,,,54,44
252480,note_off,480,0,1,,,,,,,,,0,,,73,0
252600,note_on,0,0,4,,,,,,,,,3,,,58,44
252600,note_off,120,0,4,,,,,,,,,3,,,54,0
252720,note_off,120,0,4,,,,,,,,,3,,,58,0
252720,note_on,0,0,4,,,,,,,,,3,,,56,43
252840,note_off,120,0,4,,,,,,,,,3,,,56,0
252840,note_on,0,0,4,,,,,,,,,3,,,54,43
252960,note_on,0,0,4,,,,,,,,,3,,,52,43
252960,note_on,480,0,1,,,,,,,,,0,,,70,54
252960,note_on,480,0,2,,,,,,,,,1,,,58,54
252960,note_off,120,0,4,,,,,,,,,3,,,54,0
253080,note_on,0,0,4,,,,,,,,,3,,,51,42
253080,note_off,120,0,4,,,,,,,,,3,,,52,0
253200,note_on,0,0,4,,,,,,,,,3,,,49,42
253200,note_off,120,0,4,,,,,,,,,3,,,51,0
253320,note_off,360,0,2,,,,,,,,,1,,,58,0
253320,note_on,0,0,4,,,,,,,,,3,,,47,42
253320,note_off,120,0,4,,,,,,,,,3,,,49,0
253320,note_on,0,0,1,,,,,,,,,0,,,71,57
253320,note_off,360,0,1,,,,,,,,,0,,,70,0
253320,note_on,0,0,2,,,,,,,,,1,,,59,57
253366,set_tempo,1831,1,0,,,,,,508474,,,,,,,
253440,note_off,120,0,1,,,,,,,,,0,,,71,0
253440,note_on,0,0,2,,,,,,,,,1,,,61,59
253440,note_on,0,0,2,,,,,,,,,1,,,64,59
253440,note_off,120,0,2,,,,,,,,,1,,,59,0
253440,note_off,120,0,4,,,,,,,,,3,,,47,0
253440,note_on,0,0,4,,,,,,,,,3,,,46,42
253440,note_on,0,0,1,,,,,,,,,0,,,73,59
253455,set_tempo,89,1,0,,,,,,500000,,,,,,,
253560,note_off,120,0,4,,,,,,,,,3,,,46,0
253560,note_on,0,0,4,,,,,,,,,3,,,47,45
253680,note_off,120,0,4,,,,,,,,,3,,,47,0
253680,note_on,0,0,4,,,,,,,,,3,,,49,45
253800,note_off,120,0,4,,,,,,,,,3,,,49,0
253800,note_on,0,0,4,,,,,,,,,3,,,47,46
253920,note_on,0,0,1,,,,,,,,,0,,,66,53
253920,note_off,120,0,4,,,,,,,,,3,,,47,0
253920,note_on,0,0,4,,,,,,,,,3,,,46,47
253920,note_off,480,0,1,,,,,,,,,0,,,73,0
253920,note_on,0,0,2,,,,,,,,,1,,,64,53
253920,note_off,0,0,2,,,,,,,,,1,,,64,0
253920,note_off,480,0,2,,,,,,,,,1,,,61,0
254040,note_off,120,0,4,,,,,,,,,3,,,46,0
254040,note_on,0,0,4,,,,,,,,,3,,,49,47
254160,note_off,120,0,4,,,,,,,,,3,,,49,0
254160,note_on,0,0,4,,,,,,,,,3,,,52,48
254280,note_off,120,0,4,,,,,,,,,3,,,52,0
254280,note_on,0,0,4,,,,,,,,,3,,,54,49
254400,note_on,0,0,2,,,,,,,,,1,,,61,55
254400,note_on,0,0,4,,,,,,,,,3,,,55,50
254400,note_on,0,0,2,,,,,,,,,1,,,64,55
254400,note_on,0,0,1,,,,,,,,,0,,,67,55
254400,note_off,480,0,2,,,,,,,,,1,,,64,0
254400,note_off,120,0,4,,,,,,,,,3,,,54,0
254400,note_off,480,0,1,,,,,,,,,0,,,66,0
254520,note_off,120,0,4,,,,,,,,,3,,,55,0
254520,note_on,0,0,4,,,,,,,,,3,,,52,50
254640,note_off,120,0,4,,,,,,,,,3,,,52,0
254640,note_on,0,0,4,,,,,,,,,3,,,49,51
254760,note_off,120,0,4,,,,,,,,,3,,,49,0
254760,note_on,0,0,4,,,,,,,,,3,,,47,52
254880,note_on,0,0,2,,,,,,,,,1,,,64,58
254880,note_on,0,0,4,,,,,,,,,3,,,46,52
254880,note_on,0,0,2,,,,,,,,,1,,,61,58
254880,note_off,0,0,2,,,,,,,,,1,,,64,0
254880,note_off,480,0,1,,,,,,,,,0,,,67,0
254880,note_on,0,0,1,,,,,,,,,0,,,66,58
254880,note_off,120,0,4,,,,,,,,,3,,,47,0
254880,note_off,480,0,2,,,,,,,,,1,,,61,0
255000,note_off,120,0,4,,,,,,,,,3,,,46,0
255000,note_on,0,0,4,,,,,,,,,3,,,49,53
255120,note_off,120,0,4,,,,,,,,,3,,,49,0
255120,note_on,0,0,4,,,,,,,,,3,,,52,54
255240,note_off,120,0,4,,,,,,,,,3,,,52,0
255240,note_on,0,0,4,,,,,,,,,3,,,54,55
255360,note_on,0,0,2,,,,,,,,,1,,,64,60
255360,note_on,0,0,2,,,,,,,,,1,,,67,60
255360,note_off,480,0,1,,,,,,,,,0,,,66,0
255360,note_off,480,0,2,,,,,,,,,1,,,61,0
255360,note_on,0,0,4,,,,,,,,,3,,,55,55
255360,note_on,0,0,1,,,,,,,,,0,,,76,60
255360,note_off,120,0,4,,,,,,,,,3,,,54,0
255360,note_off,0,0,2,,,,,,,,,1,,,64,0
255480,note_off,120,0,4,,,,,,,,,3,,,55,0
255480,note_on,0,0,4,,,,,,,,,3,,,52,56
255600,note_on,0,0,4,,,,,,,,,3,,,49,57
255600,note_off,120,0,4,,,,,,,,,3,,,52,0
255720,note_on,0,0,4,,,,,,,,,3,,,47,57
255720,note_off,120,0,4,,,,,,,,,3,,,49,0
255840,note_on,0,0,1,,,,,,,,,0,,,73,62
255840,note_off,480,0,1,,,,,,,,,0,,,76,0
255840,note_on,0,0,4,,,,,,,,,3,,,46,58
255840,note_off,120,0,4,,,,,,,,,3,,,47,0
255840,note_off,480,0,2,,,,,,,,,1,,,64,0
255840,note_off,0,0,2,,,,,,,,,1,,,67,0
255840,note_on,0,0,2,,,,,,,,,1,,,66,62
255840,note_on,0,0,2,,,,,,,,,1,,,64,62
255960,note_on,0,0,4,,,,,,,,,3,,,49,59
255960,note_off,120,0,4,,,,,,,,,3,,,46,0
256080,note_off,120,0,4,,,,,,,,,3,,,49,0
256080,note_on,0,0,4,,,,,,,,,3,,,54,60
256200,note_on,0,0,4,,,,,,,,,3,,,58,60
256200,note_off,120,0,4,,,,,,,,,3,,,54,0
256320,note_off,480,0,2,,,,,,,,,1,,,64,0
256320,note_off,0,0,2,,,,,,,,,1,,,66,0
256320,note_on,0,0,4,,,,,,,,,3,,,47,61
256320,note_on,0,0,2,,,,,,,,,1,,,66,64
256320,note_on,0,0,2,,,,,,,,,1,,,62,64
256320,note_off,120,0,4,,,,,,,,,3,,,58,0
256320,note_on,0,0,1,,,,,,,,,0,,,74,64
256320,note_off,480,0,1,,,,,,,,,0,,,73,0
256440,note_on,0,0,4,,,,,,,,,3,,,50,62
256440,note_off,120,0,4,,,,,,,,,3,,,47,0
256560,note_on,0,0,4,,,,,,,,,3,,,54,62
256560,note_off,120,0,4,,,,,,,,,3,,,50,0
256680,note_off,120,0,4,,,,,,,,,3,,,54,0
256680,note_on,0,0,4,,,,,,,,,3,,,59,63
256800,note_off,120,0,4,,,,,,,,,3,,,59,0
256800,note_on,0,0,4,,,,,,,,,3,,,50,64
256800,note_off,480,0,1,,,,,,,,,0,,,74,0
256800,note_on,0,0,1,,,,,,,,,0,,,71,66
256800,note_on,0,0,2,,,,,,,,,1,,,62,66
256800,note_on,0,0,2,,,,,,,,,1,,,66,66
256800,note_off,0,0,2,,,,,,,,,1,,,66,0
256800,note_off,480,0,2,,,,,,,,,1,,,62,0
256920,note_on,0,0,4,,,,,,,,,3,,,54,65
256920,note_off,120,0,4,,,,,,,,,3,,,50,0
257040,note_on,0,0,4,,,,,,,,,3,,,59,65
257040,note_off,120,0,4,,,,,,,,,3,,,54,0
257160,note_on,0,0,4,,,,,,,,,3,,,62,66
257160,note_off,120,0,4,,,,,,,,,3,,,59,0
257280,note_on,0,0,4,,,,,,,,,3,,,53,67
257280,note_off,120,0,4,,,,,,,,,3,,,62,0
257280,note_off,480,0,1,,,,,,,,,0,,,71,0
257280,note_off,0,0,2,,,,,,,,,1,,,66,0
257280,note_off,480,0,2,,,,,,,,,1,,,62,0
257280,note_on,0,0,2,,,,,,,,,1,,,74,70
257280,note_on,0,0,2,,,,,,,,,1,,,71,70
257280,note_on,0,0,1,,,,,,,,,0,,,83,70
257400,note_off,120,0,4,,,,,,,,,3,,,53,0
257400,note_on,0,0,4,,,,,,,,,3,,,56,67
257520,note_on,0,0,4,,,,,,,,,3,,,59,68
257520,note_off,120,0,4,,,,,,,,,3,,,56,0
257640,note_on,0,0,4,,,,,,,,,3,,,62,69
257640,note_off,120,0,4,,,,,,,,,3,,,59,0
257760,note_on,0,0,2,,,,,,,,,1,,,71,72
257760,note_on,0,0,4,,,,,,,,,3,,,65,70
257760,note_off,120,0,4,,,,,,,,,3,,,62,0
257760,note_off,480,0,1,,,,,,,,,0,,,83,0
257760,note_off,480,0,2,,,,,,,,,1,,,71,0
257760,note_on,0,0,1,,,,,,,,,0,,,80,72
257760,note_off,0,0,2,,,,,,,,,1,,,74,0
257760,note_on,0,0,2,,,,,,,,,1,,,75,72
257880,note_off,120,0,4,,,,,,,,,3,,,65,0
257880,note_on,0,0,4,,,,,,,,,3,,,68,70
258000,note_off,120,0,4,,,,,,,,,3,,,68,0
258000,note_on,0,0,4,,,,,,,,,3,,,71,71
258106,set_tempo,4651,1,0,,,,,,508474,,,,,,,
258120,note_on,0,0,4,,,,,,,,,3,,,68,72
258120,note_off,120,0,4,,,,,,,,,3,,,71,0
258226,set_tempo,120,1,0,,,,,,500000,,,,,,,
258240,note_off,120,0,4,,,,,,,,,3,,,68,0
258240,note_on,0,0,2,,,,,,,,,1,,,80,80
258240,note_on,0,0,2,,,,,,,,,1,,,83,80
258240,note_off,480,0,2,,,,,,,,,1,,,75,0
258240,note_on,0,0,1,,,,,,,,,0,,,86,80
258240,note_off,480,0,1,,,,,,,,,0,,,80,0
258240,note_off,0,0,2,,,,,,,,,1,,,71,0
258240,note_on,0,0,4,,,,,,,,,3,,,65,77
258360,note_off,120,0,4,,,,,,,,,3,,,65,0
258360,note_on,0,0,4,,,,,,,,,3,,,68,74
258480,note_off,120,0,4,,,,,,,,,3,,,68,0
258480,note_on,0,0,4,,,,,,,,,3,,,71,70
258600,note_off,120,0,4,,,,,,,,,3,,,71,0
258600,note_on,0,0,4,,,,,,,,,3,,,68,67
258720,note_on,0,0,4,,,,,,,,,3,,,65,63
258720,note_on,0,0,2,,,,,,,,,1,,,80,68
258720,note_off,120,0,4,,,,,,,,,3,,,68,0
258720,note_off,0,0,2,,,,,,,,,1,,,83,0
258720,note_off,480,0,2,,,,,,,,,1,,,80,0
258720,note_on,0,0,1,,,,,,,,,0,,,85,68
258720,note_off,480,0,1,,,,,,,,,0,,,86,0
258720,note_on,0,0,2,,,,,,,,,1,,,83,68
258840,note_on,0,0,4,,,,,,,,,3,,,68,60
258840,note_off,120,0,4,,,,,,,,,3,,,65,0
258960,note_on,0,0,4,,,,,,,,,3,,,71,56
258960,note_off,120,0,4,,,,,,,,,3,,,68,0
259080,note_on,0,0,4,,,,,,,,,3,,,68,53
259080,note_off,120,0,4,,,,,,,,,3,,,71,0
259200,note_off,120,0,4,,,,,,,,,3,,,68,0
259200,note_off,480,0,2,,,,,,,,,1,,,80,0
259200,note_off,0,0,2,,,,,,,,,1,,,83,0
259200,note_off,480,0,1,,,,,,,,,0,,,85,0
259200,note_on,0,0,4,,,,,,,,,3,,,65,49
259320,note_off,120,0,4,,,,,,,,,3,,,65,0
259320,note_on,0,0,4,,,,,,,,,3,,,71,48
259440,note_off,120,0,4,,,,,,,,,3,,,71,0
259440,note_on,0,0,4,,,,,,,,,3,,,70,49
259560,note_on,0,0,4,,,,,,,,,3,,,68,50
259560,note_off,120,0,4,,,,,,,,,3,,,70,0
259680,note_off,120,0,4,,,,,,,,,3,,,68,0
259680,note_on,0,0,4,,,,,,,,,3,,,73,51
259680,note_on,480,0,2,,,,,,,,,1,,,83,58
259680,note_on,0,0,2,,,,,,,,,1,,,80,58
259680,note_on,480,0,1,,,,,,,,,0,,,85,58
259800,note_off,120,0,4,,,,,,,,,3,,,73,0
259800,note_on,0,0,4,,,,,,,,,3,,,71,52
259920,note_off,120,0,4,,,,,,,,,3,,,71,0
259920,note_on,0,0,4,,,,,,,,,3,,,70,53
260040,note_off,120,0,4,,,,,,,,,3,,,70,0
260040,note_on,0,0,4,,,,,,,,,3,,,68,53
260160,note_off,480,0,2,,,,,,,,,1,,,80,0
260160,note_off,480,0,1,,,,,,,,,0,,,85,0
260160,note_on,0,0,4,,,,,,,,,3,,,66,54
260160,note_off,120,0,4,,,,,,,,,3,,,68,0
260160,note_off,0,0,2,,,,,,,,,1,,,83,0
260280,note_on,0,0,4,,,,,,,,,3,,,73,55
260280,note_off,120,0,4,,,,,,,,,3,,,66,0
260400,note_on,0,0,4,,,,,,,,,3,,,71,56
260400,note_off,120,0,4,,,,,,,,,3,,,73,0
260520,note_on,0,0,4,,,,,,,,,3,,,70,57
260520,note_off,120,0,4,,,,,,,,,3,,,71,0
260640,note_on,480,0,2,,,,,,,,,1,,,82,65
260640,note_off,120,0,4,,,,,,,,,3,,,70,0
260640,note_on,0,0,4,,,,,,,,,3,,,78,58
260640,note_on,480,0,1,,,,,,,,,0,,,85,65
260760,note_off,120,0,4,,,,,,,,,3,,,78,0
260760,note_on,0,0,4,,,,,,,,,3,,,77,58
260880,note_on,0,0,4,,,,,,,,,3,,,75,59
260880,note_off,120,0,4,,,,,,,,,3,,,77,0
261000,note_on,0,0,4,,,,,,,,,3,,,73,60
261000,note_off,120,0,4,,,,,,,,,3,,,75,0
261120,note_off,120,0,4,,,,,,,,,3,,,73,0
261120,note_on,0,0,4,,,,,,,,,3,,,71,61
261120,note_off,480,0,1,,,,,,,,,0,,,85,0
261120,note_off,480,0,2,,,,,,,,,1,,,82,0
261240,note_on,0,0,4,,,,,,,,,3,,,70,62
261240,note_off,120,0,4,,,,,,,,,3,,,71,0
261360,note_off,120,0,4,,,,,,,,,3,,,70,0
261360,note_on,0,0,4,,,,,,,,,3,,,75,63
261480,note_off,120,0,4,,,,,,,,,3,,,75,0
261480,note_on,0,0,4,,,,,,,,,3,,,73,63
261600,note_on,0,0,4,,,,,,,,,3,,,71,64
261600,note_on,480,0,2,,,,,,,,,1,,,82,72
261600,note_off,120,0,4,,,,,,,,,3,,,73,0
261600,note_on,480,0,1,,,,,,,,,0,,,85,72
261720,note_on,0,0,4,,,,,,,,,3,,,70,65
261720,note_off,120,0,4,,,,,,,,,3,,,71,0
261840,note_on,0,0,4,,,,,,,,,3,,,68,66
261840,note_off,120,0,4,,,,,,,,,3,,,70,0
261960,note_on,0,0,4,,,,,,,,,3,,,66,67
261960,note_off,120,0,4,,,,,,,,,3,,,68,0
262080,note_off,480,0,2,,,,,,,,,1,,,82,0
262080,note_on,0,0,4,,,,,,,,,3,,,65,68
262080,note_off,120,0,4,,,,,,,,,3,,,66,0
262080,note_off,480,0,1,,,,,,,,,0,,,85,0
262200,note_on,0,0,4,,,,,,,,,3,,,66,69
262200,note_off,120,0,4,,,,,,,,,3,,,65,0
262320,note_on,0,0,4,,,,,,,,,3,,,68,69
262320,note_off,120,0,4,,,,,,,,,3,,,66,0
262440,note_off,120,0,4,,,,,,,,,3,,,68,0
262440,note_on,0,0,4,,,,,,,,,3,,,66,70
262560,note_on,480,0,2,,,,,,,,,1,,,82,80
262560,note_on,0,0,4,,,,,,,,,3,,,60,71
262560,note_off,120,0,4,,,,,,,,,3,,,66,0
262560,note_on,480,0,1,,,,,,,,,0,,,85,80
262680,note_off,120,0,4,,,,,,,,,3,,,60,0
262680,note_on,0,0,4,,,,,,,,,3,,,61,72
262800,note_off,120,0,4,,,,,,,,,3,,,61,0
262800,note_on,0,0,4,,,,,,,,,3,,,63,73
262920,note_off,120,0,4,,,,,,,,,3,,,63,0
262920,note_on,0,0,4,,,,,,,,,3,,,61,74
263040,note_off,480,0,1,,,,,,,,,0,,,85,0
263040,note_off,480,0,2,,,,,,,,,1,,,82,0
263040,note_off,120,0,4,,,,,,,,,3,,,61,0
263040,note_on,0,0,4,,,,,,,,,3,,,57,74
263160,note_off,120,0,4,,,,,,,,,3,,,57,0
263160,note_on,0,0,4,,,,,,,,,3,,,58,75
263280,note_off,120,0,4,,,,,,,,,3,,,58,0
263280,note_on,0,0,4,,,,,,,,,3,,,59,76
263400,note_off,120,0,4,,,,,,,,,3,,,59,0
263400,note_on,0,0,4,,,,,,,,,3,,,58,77
263520,note_on,0,0,2,,,,,,,,,1,,,78,94
263520,note_on,0,0,2,,,,,,,,,1,,,82,94
263520,note_on,0,0,4,,,,,,,,,3,,,53,78
263520,note_off,120,0,4,,,,,,,,,3,,,58,0
263520,note_on,480,0,2,,,,,,,,,1,,,85,94
263520,note_on,480,0,1,,,,,,,,,0,,,90,94
263640,note_on,0,0,4,,,,,,,,,3,,,54,79
263640,note_off,120,0,4,,,,,,,,,3,,,53,0
263760,note_on,0,0,4,,,,,,,,,3,,,56,80
263760,note_off,120,0,4,,,,,,,,,3,,,54,0
263880,note_off,120,0,4,,,,,,,,,3,,,56,0
263880,note_on,0,0,4,,,,,,,,,3,,,54,80
264000,note_off,120,0,4,,,,,,,,,3,,,54,0
264000,note_off,480,0,1,,,,,,,,,0,,,90,0
264000,note_on,0,0,2,,,,,,,,,1,,,82,97
264000,note_on,0,0,2,,,,,,,,,1,,,78,97
264000,note_off,0,0,2,,,,,,,,,1,,,85,0
264000,note_off,0,0,2,,,,,,,,,1,,,78,0
264000,note_off,480,0,2,,,,,,,,,1,,,82,0
264000,note_on,0,0,1,,,,,,,,,0,,,90,97
264000,note_on,0,0,2,,,,,,,,,1,,,85,97
264000,note_on,0,0,4,,,,,,,,,3,,,48,81
264120,note_off,120,0,4,,,,,,,,,3,,,48,0
264120,note_on,0,0,4,,,,,,,,,3,,,49,82
264240,note_off,120,0,4,,,,,,,,,3,,,49,0
264240,note_on,0,0,4,,,,,,,,,3,,,51,83
264360,note_off,120,0,4,,,,,,,,,3,,,51,0
264360,note_on,0,0,4,,,,,,,,,3,,,49,84
264480,note_on,0,0,4,,,,,,,,,3,,,45,85
264480,note_off,0,0,2,,,,,,,,,1,,,78,0
264480,note_off,480,0,2,,,,,,,,,1,,,82,0
264480,note_on,0,0,2,,,,,,,,,1,,,82,100
264480,note_on,0,0,2,,,,,,,,,1,,,78,100
264480,note_on,0,0,1,,,,,,,,,0,,,90,100
264480,note_off,480,0,1,,,,,,,,,0,,,90,0
264480,note_off,120,0,4,,,,,,,,,3,,,49,0
264480,note_on,0,0,2,,,,,,,,,1,,,85,100
264480,note_off,0,0,2,,,,,,,,,1,,,85,0
264600,note_off,120,0,4,,,,,,,,,3,,,45,0
264600,note_on,0,0,4,,,,,,,,,3,,,46,85
264706,set_tempo,6480,1,0,,,,,,508474,,,,,,,
264720,note_on,0,0,4,,,,,,,,,3,,,47,86
264720,note_off,120,0,4,,,,,,,,,3,,,46,0
264826,set_tempo,120,1,0,,,,,,526315,,,,,,,
264840,note_on,0,0,4,,,,,,,,,3,,,46,87
264840,note_off,120,0,4,,,,,,,,,3,,,47,0
264960,note_off,480,0,1,,,,,,,,,0,,,90,0
264960,note_on,0,0,2,,,,,,,,,1,,,82,104
264960,note_on,0,0,2,,,,,,,,,1,,,85,104
264960,note_on,0,0,1,,,,,,,,,0,,,90,104
264960,note_off,0,0,2,,,,,,,,,1,,,82,0
264960,note_on,0,0,4,,,,,,,,,3,,,42,88
264960,note_off,0,0,2,,,,,,,,,1,,,85,0
264960,note_on,0,0,2,,,,,,,,,1,,,78,104
264960,note_off,120,0,4,,,,,,,,,3,,,46,0
264960,note_off,480,0,2,,,,,,,,,1,,,78,0
265440,note_off,0,0,2,,,,,,,,,1,,,82,0
265440,note_off,0,0,2,,,,,,,,,1,,,85,0
265440,set_tempo,614,1,0,,,,,,674157,,,,,,,
265440,note_off,480,0,4,,,,,,,,,3,,,42,0
265440,note_off,480,0,1,,,,,,,,,0,,,90,0
265440,note_off,480,0,2,,,,,,,,,1,,,78,0
266880,control_change,0,0,4,,,,,,,32,0,3,,,,
266880,program_change,0,0,4,,,,,,,,,3,0,,,
266880,set_tempo,0,1,0,,,,,,1071428,,,,,,,
266880,time_signature,1440,1,0,2,4,24,8,,,,,,,,,
266880,marker,0,1,0,,,,,,,,,,,,,
266880,program_change,0,0,3,,,,,,,,,2,0,,,
266880,pitchwheel,0,0,3,,,,,,,,,2,,0,,
266880,control_change,0,0,4,,,,,,,10,55,3,,,,
266880,control_change,20640,0,3,,,,,,,7,112,2,,,,
266880,control_change,1440,0,1,,,,,,,10,73,0,,,,
266880,control_change,0,0,1,,,,,,,91,91,0,,,,
266880,control_change,0,0,1,,,,,,,93,28,0,,,,
266880,control_change,0,0,1,,,,,,,64,0,0,,,,
266880,control_change,0,0,1,,,,,,,1,0,0,,,,
266880,control_change,0,0,1,,,,,,,7,127,0,,,,
266880,program_change,0,0,2,,,,,,,,,1,0,,,
266880,control_change,0,0,1,,,,,,,0,0,0,,,,
266880,pitchwheel,0,0,1,,,,,,,,,0,,0,,
266880,program_change,0,0,1,,,,,,,,,0,0,,,
266880,control_change,1440,0,4,,,,,,,7,122,3,,,,
266880,pitchwheel,0,0,4,,,,,,,,,3,,0,,
266880,control_change,0,0,4,,,,,,,1,0,3,,,,
266880,control_change,0,0,4,,,,,,,64,0,3,,,,
266880,control_change,0,0,4,,,,,,,93,28,3,,,,
266880,control_change,0,0,4,,,,,,,91,91,3,,,,
266880,control_change,0,0,1,,,,,,,32,0,0,,,,
266880,control_change,0,0,2,,,,,,,32,0,1,,,,
266880,control_change,0,0,4,,,,,,,0,0,3,,,,
266880,control_change,0,0,2,,,,,,,10,64,1,,,,
266880,control_change,0,0,3,,,,,,,32,0,2,,,,
266880,control_change,1440,0,2,,,,,,,7,117,1,,,,
266880,pitchwheel,0,0,2,,,,,,,,,1,,0,,
266880,control_change,0,0,2,,,,,,,1,0,1,,,,
266880,control_change,0,0,2,,,,,,,64,0,1,,,,
266880,control_change,0,0,3,,,,,,,0,0,2,,,,
266880,control_change,0,0,2,,,,,,,93,28,1,,,,
266880,control_change,0,0,3,,,,,,,91,91,2,,,,
266880,control_change,0,0,3,,,,,,,93,28,2,,,,
266880,control_change,0,0,3,,,,,,,64,0,2,,,,
266880,control_change,0,0,3,,,,,,,1,0,2,,,,
266880,control_change,0,0,2,,,,,,,91,91,1,,,,
266880,control_change,0,0,3,,,,,,,10,73,2,,,,
266880,control_change,0,0,2,,,,,,,0,0,1,,,,
267120,control_change,240,0,3,,,,,,,10,64,2,,,,
267840,note_on,960,0,4,,,,,,,,,3,,,50,79
267840,note_on,960,0,1,,,,,,,,,0,,,72,79
267840,note_on,720,0,3,,,,,,,,,2,,,54,79
267840,set_tempo,960,1,0,,,,,,377358,,,,,,,
267840,note_on,960,0,2,,,,,,,,,1,,,66,79
268560,note_off,720,0,2,,,,,,,,,1,,,66,0
268560,note_on,0,0,2,,,,,,,,,1,,,65,76
268560,set_tempo,720,1,0,,,,,,379746,,,,,,,
268560,note_off,720,0,4,,,,,,,,,3,,,50,0
268560,note_off,720,0,3,,,,,,,,,2,,,54,0
268560,note_on,0,0,3,,,,,,,,,2,,,56,76
268560,note_on,0,0,1,,,,,,,,,0,,,73,76
268560,note_off,720,0,1,,,,,,,,,0,,,72,0
268560,note_on,0,0,4,,,,,,,,,3,,,49,76
268716,note_off,156,0,4,,,,,,,,,3,,,49,0
268716,note_off,156,0,1,,,,,,,,,0,,,73,0
268716,note_off,156,0,2,,,,,,,,,1,,,65,0
268716,note_off,156,0,3,,,,,,,,,2,,,56,0
268800,note_on,84,0,4,,,,,,,,,3,,,47,70
268800,note_on,84,0,2,,,,,,,,,1,,,65,70
268800,set_tempo,240,1,0,,,,,,384615,,,,,,,
268800,note_on,84,0,3,,,,,,,,,2,,,49,70
268800,note_on,84,0,1,,,,,,,,,0,,,68,70
268956,note_off,156,0,2,,,,,,,,,1,,,65,0
268956,note_off,156,0,4,,,,,,,,,3,,,47,0
268956,note_off,156,0,3,,,,,,,,,2,,,49,0
268956,note_off,156,0,1,,,,,,,,,0,,,68,0
269520,note_on,564,0,3,,,,,,,,,2,,,49,48
269520,note_on,564,0,4,,,,,,,,,3,,,46,48
269520,note_on,564,0,2,,,,,,,,,1,,,66,48
269520,note_on,564,0,1,,,,,,,,,0,,,70,48
269640,set_tempo,840,1,0,,,,,,389610,,,,,,,
269676,note_off,156,0,3,,,,,,,,,2,,,49,0
269676,note_off,156,0,4,,,,,,,,,3,,,46,0
269676,note_off,156,0,2,,,,,,,,,1,,,66,0
269676,note_off,156,0,1,,,,,,,,,0,,,70,0
269760,note_on,84,0,1,,,,,,,,,0,,,71,52
269760,note_on,84,0,2,,,,,,,,,1,,,63,52
269760,note_on,84,0,4,,,,,,,,,3,,,44,52
270120,note_off,360,0,1,,,,,,,,,0,,,71,0
270120,note_on,0,0,1,,,,,,,,,0,,,70,46
270120,note_on,0,0,4,,,,,,,,,3,,,46,46
270120,note_off,360,0,4,,,,,,,,,3,,,44,0
270120,note_on,0,0,2,,,,,,,,,1,,,61,46
270120,note_off,360,0,2,,,,,,,,,1,,,63,0
270198,note_off,78,0,1,,,,,,,,,0,,,70,0
270198,note_off,78,0,4,,,,,,,,,3,,,46,0
270198,note_off,78,0,2,,,,,,,,,1,,,61,0
270240,note_on,42,0,4,,,,,,,,,3,,,47,44
270240,note_on,42,0,2,,,,,,,,,1,,,59,44
270240,note_on,42,0,1,,,,,,,,,0,,,68,44
270396,note_off,156,0,4,,,,,,,,,3,,,47,0
270396,note_off,156,0,1,,,,,,,,,0,,,68,0
270396,note_off,156,0,2,,,,,,,,,1,,,59,0
270480,note_on,84,0,1,,,,,,,,,0,,,66,40
270480,note_on,84,0,4,,,,,,,,,3,,,48,40
270480,note_on,84,0,2,,,,,,,,,1,,,58,40
270636,note_off,156,0,1,,,,,,,,,0,,,66,0
270636,note_off,156,0,4,,,,,,,,,3,,,48,0
270636,note_off,156,0,2,,,,,,,,,1,,,58,0
270720,note_on,84,0,4,,,,,,,,,3,,,49,37
270720,note_on,84,0,1,,,,,,,,,0,,,65,37
270720,note_on,84,0,2,,,,,,,,,1,,,56,37
270980,note_off,260,0,1,,,,,,,,,0,,,65,0
270980,note_off,260,0,2,,,,,,,,,1,,,56,0
270980,note_off,260,0,4,,,,,,,,,3,,,49,0
271200,set_tempo,1560,1,0,,,,,,408163,,,,,,,
271680,note_on,700,0,4,,,,,,,,,3,,,64,81
271680,note_on,700,0,1,,,,,,,,,0,,,73,81
271680,set_tempo,480,1,0,,,,,,377358,,,,,,,
271680,note_on,700,0,2,,,,,,,,,1,,,70,81
271680,note_on,2004,0,3,,,,,,,,,2,,,67,81
272400,note_off,720,0,4,,,,,,,,,3,,,64,0
272400,set_tempo,720,1,0,,,,,,379746,,,,,,,
272400,note_on,0,0,2,,,,,,,,,1,,,71,76
272400,note_off,720,0,2,,,,,,,,,1,,,70,0
272400,note_on,0,0,3,,,,,,,,,2,,,66,76
272400,note_off,720,0,3,,,,,,,,,2,,,67,0
272400,note_on,0,0,4,,,,,,,,,3,,,63,76
272400,note_off,720,0,1,,,,,,,,,0,,,73,0
272400,note_on,0,0,1,,,,,,,,,0,,,75,76
272556,note_off,156,0,1,,,,,,,,,0,,,75,0
272556,note_off,156,0,4,,,,,,,,,3,,,63,0
272556,note_off,156,0,3,,,,,,,,,2,,,66,0
272556,note_off,156,0,2,,,,,,,,,1,,,71,0
272640,note_on,84,0,1,,,,,,,,,0,,,76,70
272640,note_on,84,0,3,,,,,,,,,2,,,64,70
272640,set_tempo,240,1,0,,,,,,384615,,,,,,,
272640,note_on,84,0,4,,,,,,,,,3,,,61,70
272640,note_on,84,0,2,,,,,,,,,1,,,73,70
272874,note_off,234,0,4,,,,,,,,,3,,,61,0
272874,note_off,234,0,1,,,,,,,,,0,,,76,0
272874,note_off,234,0,3,,,,,,,,,2,,,64,0
272874,note_off,234,0,2,,,,,,,,,1,,,73,0
273360,note_on,486,0,3,,,,,,,,,2,,,63,50
273360,note_on,486,0,1,,,,,,,,,0,,,78,50
273360,note_on,486,0,2,,,,,,,,,1,,,75,50
273360,note_on,486,0,4,,,,,,,,,3,,,59,50
273516,note_off,156,0,4,,,,,,,,,3,,,59,0
273516,note_off,156,0,2,,,,,,,,,1,,,75,0
273516,note_off,156,0,3,,,,,,,,,2,,,63,0
273516,note_off,156,0,1,,,,,,,,,0,,,78,0
273540,set_tempo,900,1,0,,,,,,389610,,,,,,,
273600,note_on,84,0,1,,,,,,,,,0,,,80,54
273600,note_on,84,0,2,,,,,,,,,1,,,76,54
273600,note_on,84,0,4,,,,,,,,,3,,,52,54
273600,note_on,84,0,3,,,,,,,,,2,,,56,54
273960,note_on,0,0,1,,,,,,,,,0,,,76,47
273960,note_on,0,0,2,,,,,,,,,1,,,73,47
273960,note_off,360,0,2,,,,,,,,,1,,,76,0
273960,note_off,360,0,3,,,,,,,,,2,,,56,0
273960,note_off,360,0,1,,,,,,,,,0,,,80,0
273960,note_on,0,0,3,,,,,,,,,2,,,61,47
274038,note_off,78,0,2,,,,,,,,,1,,,73,0
274038,note_off,78,0,3,,,,,,,,,2,,,61,0
274038,note_off,78,0,1,,,,,,,,,0,,,76,0
274080,note_off,480,0,4,,,,,,,,,3,,,52,0
274080,note_on,0,0,4,,,,,,,,,3,,,54,45
274080,note_on,42,0,2,,,,,,,,,1,,,71,45
274080,note_on,42,0,3,,,,,,,,,2,,,63,45
274080,note_on,42,0,1,,,,,,,,,0,,,75,45
274236,note_off,156,0,3,,,,,,,,,2,,,63,0
274236,note_off,156,0,4,,,,,,,,,3,,,54,0
274236,note_off,156,0,1,,,,,,,,,0,,,75,0
274236,note_off,156,0,2,,,,,,,,,1,,,71,0
274320,note_on,84,0,4,,,,,,,,,3,,,54,41
274320,note_on,84,0,3,,,,,,,,,2,,,64,41
274320,note_on,84,0,1,,,,,,,,,0,,,73,41
274320,note_on,84,0,2,,,,,,,,,1,,,70,41
274476,note_off,156,0,4,,,,,,,,,3,,,54,0
274476,note_off,156,0,1,,,,,,,,,0,,,73,0
274476,note_off,156,0,2,,,,,,,,,1,,,70,0
274476,note_off,156,0,3,,,,,,,,,2,,,64,0
274560,note_on,84,0,3,,,,,,,,,2,,,63,37
274560,note_on,84,0,2,,,,,,,,,1,,,71,37
274560,note_on,84,0,4,,,,,,,,,3,,,59,37
274560,note_on,84,0,1,,,,,,,,,0,,,75,37
274860,note_off,300,0,4,,,,,,,,,3,,,59,0
274860,note_off,300,0,2,,,,,,,,,1,,,71,0
274860,note_off,300,0,3,,,,,,,,,2,,,63,0
274860,note_off,300,0,1,,,,,,,,,0,,,75,0
275040,set_tempo,1500,1,0,,,,,,408163,,,,,,,
275520,note_on,660,0,1,,,,,,,,,0,,,71,47
275520,note_on,660,0,4,,,,,,,,,3,,,63,47
275520,set_tempo,480,1,0,,,,,,377358,,,,,,,
275520,note_on,660,0,2,,,,,,,,,1,,,66,47
276240,note_off,720,0,1,,,,,,,,,0,,,71,0
276240,note_off,720,0,4,,,,,,,,,3,,,63,0
276240,note_on,0,0,4,,,,,,,,,3,,,61,44
276240,set_tempo,720,1,0,,,,,,379746,,,,,,,
276240,note_on,0,0,2,,,,,,,,,1,,,66,44
276240,note_on,0,0,2,,,,,,,,,1,,,70,44
276240,note_off,720,0,2,,,,,,,,,1,,,66,0
276396,note_off,156,0,4,,,,,,,,,3,,,61,0
276396,note_off,156,0,2,,,,,,,,,1,,,66,0
276396,note_off,0,0,2,,,,,,,,,1,,,70,0
276480,note_on,240,0,1,,,,,,,,,0,,,75,41
276480,set_tempo,240,1,0,,,,,,384615,,,,,,,
276480,note_on,84,0,4,,,,,,,,,3,,,59,41
276480,note_on,84,0,2,,,,,,,,,1,,,66,41
276840,note_off,360,0,4,,,,,,,,,3,,,59,0
276840,note_off,360,0,1,,,,,,,,,0,,,75,0
276840,note_off,360,0,2,,,,,,,,,1,,,66,0
277200,note_on,360,0,4,,,,,,,,,3,,,58,38
277200,note_on,360,0,1,,,,,,,,,0,,,73,38
277200,note_on,360,0,2,,,,,,,,,1,,,66,38
277356,note_off,156,0,4,,,,,,,,,3,,,58,0
277356,note_off,156,0,1,,,,,,,,,0,,,73,0
277356,note_off,156,0,2,,,,,,,,,1,,,66,0
277380,set_tempo,900,1,0,,,,,,389610,,,,,,,
277440,note_on,84,0,2,,,,,,,,,1,,,66,41
277440,note_on,84,0,4,,,,,,,,,3,,,56,41
277440,note_on,84,0,1,,,,,,,,,0,,,71,41
277800,note_on,0,0,1,,,,,,,,,0,,,70,36
277800,note_off,360,0,1,,,,,,,,,0,,,71,0
277800,note_off,360,0,4,,,,,,,,,3,,,56,0
277800,note_on,0,0,4,,,,,,,,,3,,,58,36
277878,note_off,78,0,1,,,,,,,,,0,,,70,0
277878,note_off,78,0,4,,,,,,,,,3,,,58,0
277920,note_off,480,0,2,,,,,,,,,1,,,66,0
277920,note_on,0,0,2,,,,,,,,,1,,,66,35
277920,note_on,42,0,1,,,,,,,,,0,,,68,35
277920,note_on,42,0,4,,,,,,,,,3,,,59,35
278076,note_off,156,0,2,,,,,,,,,1,,,66,0
278076,note_off,156,0,4,,,,,,,,,3,,,59,0
278076,note_off,156,0,1,,,,,,,,,0,,,68,0
278160,note_on,84,0,2,,,,,,,,,1,,,65,34
278160,note_on,84,0,4,,,,,,,,,3,,,49,34
278160,note_on,84,0,1,,,,,,,,,0,,,73,34
278316,note_off,156,0,4,,,,,,,,,3,,,49,0
278316,note_off,156,0,2,,,,,,,,,1,,,65,0
278316,note_off,156,0,1,,,,,,,,,0,,,73,0
278340,set_tempo,960,1,0,,,,,,394736,,,,,,,
278400,note_on,84,0,4,,,,,,,,,3,,,54,36
278400,note_on,84,0,1,,,,,,,,,0,,,70,36
278520,set_tempo,180,1,0,,,,,,377358,,,,,,,
278520,note_on,204,0,2,,,,,,,,,1,,,66,37
278520,note_off,120,0,1,,,,,,,,,0,,,70,0
278556,note_off,156,0,4,,,,,,,,,3,,,54,0
278598,note_off,78,0,2,,,,,,,,,1,,,66,0
278640,note_on,84,0,4,,,,,,,,,3,,,61,37
278640,note_on,120,0,1,,,,,,,,,0,,,65,37
278760,note_off,120,0,1,,,,,,,,,0,,,65,0
278760,note_on,162,0,2,,,,,,,,,1,,,66,38
278838,note_off,78,0,2,,,,,,,,,1,,,66,0
278880,note_on,120,0,1,,,,,,,,,0,,,71,39
278880,note_off,240,0,4,,,,,,,,,3,,,61,0
278880,note_on,0,0,4,,,,,,,,,3,,,63,39
279000,note_on,162,0,2,,,,,,,,,1,,,78,40
279000,note_off,120,0,1,,,,,,,,,0,,,71,0
279078,note_off,78,0,2,,,,,,,,,1,,,78,0
279120,note_off,240,0,4,,,,,,,,,3,,,63,0
279120,note_on,0,0,4,,,,,,,,,3,,,61,41
279120,note_on,120,0,1,,,,,,,,,0,,,70,41
279240,note_on,162,0,2,,,,,,,,,1,,,78,42
279240,note_off,120,0,1,,,,,,,,,0,,,70,0
279318,note_off,78,0,2,,,,,,,,,1,,,78,0
279360,note_on,0,0,4,,,,,,,,,3,,,59,43
279360,note_on,120,0,1,,,,,,,,,0,,,75,43
279360,note_off,240,0,4,,,,,,,,,3,,,61,0
279480,note_off,120,0,1,,,,,,,,,0,,,75,0
279480,note_on,162,0,2,,,,,,,,,1,,,78,44
279558,note_off,78,0,2,,,,,,,,,1,,,78,0
279600,note_off,240,0,4,,,,,,,,,3,,,59,0
279600,note_on,0,0,4,,,,,,,,,3,,,58,45
279600,note_on,120,0,1,,,,,,,,,0,,,73,45
279720,note_off,120,0,1,,,,,,,,,0,,,73,0
279720,note_on,162,0,2,,,,,,,,,1,,,78,46
279798,note_off,78,0,2,,,,,,,,,1,,,78,0
279840,note_off,240,0,4,,,,,,,,,3,,,58,0
279840,note_on,0,0,4,,,,,,,,,3,,,56,47
279840,note_on,120,0,1,,,,,,,,,0,,,77,47
279960,note_on,162,0,2,,,,,,,,,1,,,80,48
279960,note_off,120,0,1,,,,,,,,,0,,,77,0
280038,note_off,78,0,2,,,,,,,,,1,,,80,0
280080,note_off,240,0,4,,,,,,,,,3,,,56,0
280080,note_on,0,0,4,,,,,,,,,3,,,49,49
280080,note_on,120,0,1,,,,,,,,,0,,,77,49
280200,note_off,120,0,1,,,,,,,,,0,,,77,0
280200,note_on,162,0,2,,,,,,,,,1,,,85,50
280278,note_off,78,0,2,,,,,,,,,1,,,85,0
280320,note_off,240,0,4,,,,,,,,,3,,,49,0
280320,note_on,0,0,4,,,,,,,,,3,,,54,51
280320,note_on,120,0,1,,,,,,,,,0,,,78,51
280440,note_on,162,0,2,,,,,,,,,1,,,82,52
280440,note_off,120,0,1,,,,,,,,,0,,,78,0
280518,note_off,78,0,2,,,,,,,,,1,,,82,0
280560,note_off,240,0,4,,,,,,,,,3,,,54,0
280560,note_on,0,0,4,,,,,,,,,3,,,49,53
280560,note_on,120,0,1,,,,,,,,,0,,,78,53
280680,note_off,120,0,1,,,,,,,,,0,,,78,0
280680,note_on,162,0,2,,,,,,,,,1,,,85,54
280758,note_off,78,0,2,,,,,,,,,1,,,85,0
280800,note_on,0,0,4,,,,,,,,,3,,,46,55
280800,note_off,240,0,4,,,,,,,,,3,,,49,0
280800,note_on,120,0,1,,,,,,,,,0,,,78,55
280920,note_on,162,0,2,,,,,,,,,1,,,85,56
280920,note_off,120,0,1,,,,,,,,,0,,,78,0
280998,note_off,78,0,2,,,,,,,,,1,,,85,0
281040,note_on,120,0,1,,,,,,,,,0,,,82,57
281040,note_on,0,0,4,,,,,,,,,3,,,49,57
281040,note_off,240,0,4,,,,,,,,,3,,,46,0
281160,note_on,162,0,2,,,,,,,,,1,,,85,58
281160,note_off,120,0,1,,,,,,,,,0,,,82,0
281238,note_off,78,0,2,,,,,,,,,1,,,85,0
281280,note_on,0,0,4,,,,,,,,,3,,,42,59
281280,note_off,240,0,4,,,,,,,,,3,,,49,0
281280,note_on,120,0,1,,,,,,,,,0,,,82,59
281400,note_on,162,0,2,,,,,,,,,1,,,85,60
281400,note_off,120,0,1,,,,,,,,,0,,,82,0
281478,note_off,78,0,2,,,,,,,,,1,,,85,0
281520,note_on,120,0,1,,,,,,,,,0,,,82,60
281520,note_off,240,0,4,,,,,,,,,3,,,42,0
281520,note_on,0,0,4,,,,,,,,,3,,,49,60
281640,note_off,120,0,1,,,,,,,,,0,,,82,0
281640,note_on,162,0,2,,,,,,,,,1,,,85,61
281718,note_off,78,0,2,,,,,,,,,1,,,85,0
281760,note_on,120,0,1,,,,,,,,,0,,,80,62
281760,note_off,240,0,4,,,,,,,,,3,,,49,0
281760,note_on,0,0,4,,,,,,,,,3,,,37,62
281880,note_off,120,0,1,,,,,,,,,0,,,80,0
281880,note_on,162,0,2,,,,,,,,,1,,,83,63
281958,note_off,78,0,2,,,,,,,,,1,,,83,0
282000,note_on,0,0,4,,,,,,,,,3,,,49,64
282000,note_on,120,0,1,,,,,,,,,0,,,77,64
282000,note_off,240,0,4,,,,,,,,,3,,,37,0
282120,set_tempo,3600,1,0,,,,,,379746,,,,,,,
282120,note_off,120,0,1,,,,,,,,,0,,,77,0
282120,note_on,162,0,2,,,,,,,,,1,,,85,65
282198,note_off,78,0,2,,,,,,,,,1,,,85,0
282240,note_off,240,0,4,,,,,,,,,3,,,49,0
282240,note_on,0,0,4,,,,,,,,,3,,,42,46
282240,note_on,120,0,1,,,,,,,,,0,,,82,46
282350,set_tempo,230,1,0,,,,,,372670,,,,,,,
282360,note_on,162,0,2,,,,,,,,,1,,,78,46
282360,note_off,120,0,1,,,,,,,,,0,,,82,0
282396,note_off,156,0,4,,,,,,,,,3,,,42,0
282438,note_off,78,0,2,,,,,,,,,1,,,78,0
282480,note_on,120,0,1,,,,,,,,,0,,,70,47
282480,note_on,84,0,4,,,,,,,,,3,,,61,47
282600,note_on,162,0,2,,,,,,,,,1,,,78,48
282600,note_off,120,0,1,,,,,,,,,0,,,70,0
282678,note_off,78,0,2,,,,,,,,,1,,,78,0
282720,note_on,0,0,4,,,,,,,,,3,,,63,49
282720,note_off,240,0,4,,,,,,,,,3,,,61,0
282720,note_on,120,0,1,,,,,,,,,0,,,71,49
282840,note_on,162,0,2,,,,,,,,,1,,,78,50
282840,note_off,120,0,1,,,,,,,,,0,,,71,0
282918,note_off,78,0,2,,,,,,,,,1,,,78,0
282960,note_on,0,0,4,,,,,,,,,3,,,61,51
282960,note_on,120,0,1,,,,,,,,,0,,,70,51
282960,note_off,240,0,4,,,,,,,,,3,,,63,0
283080,note_off,120,0,1,,,,,,,,,0,,,70,0
283080,note_on,162,0,2,,,,,,,,,1,,,78,52
283158,note_off,78,0,2,,,,,,,,,1,,,78,0
283200,note_on,120,0,1,,,,,,,,,0,,,75,52
283200,note_off,240,0,4,,,,,,,,,3,,,61,0
283200,note_on,0,0,4,,,,,,,,,3,,,59,52
283320,note_off,120,0,1,,,,,,,,,0,,,75,0
283320,note_on,162,0,2,,,,,,,,,1,,,78,53
283398,note_off,78,0,2,,,,,,,,,1,,,78,0
283440,note_off,240,0,4,,,,,,,,,3,,,59,0
283440,note_on,0,0,4,,,,,,,,,3,,,58,54
283440,note_on,120,0,1,,,,,,,,,0,,,73,54
283560,note_off,120,0,1,,,,,,,,,0,,,73,0
283560,note_on,162,0,2,,,,,,,,,1,,,78,55
283638,note_off,78,0,2,,,,,,,,,1,,,78,0
283680,note_off,240,0,4,,,,,,,,,3,,,58,0
283680,note_on,0,0,4,,,,,,,,,3,,,56,56
283680,note_on,120,0,1,,,,,,,,,0,,,77,56
283800,note_off,120,0,1,,,,,,,,,0,,,77,0
283800,note_on,162,0,2,,,,,,,,,1,,,80,57
283878,note_off,78,0,2,,,,,,,,,1,,,80,0
283920,note_on,120,0,1,,,,,,,,,0,,,77,58
283920,note_off,240,0,4,,,,,,,,,3,,,56,0
283920,note_on,0,0,4,,,,,,,,,3,,,49,58
284040,note_on,162,0,2,,,,,,,,,1,,,85,58
284040,note_off,120,0,1,,,,,,,,,0,,,77,0
284118,note_off,78,0,2,,,,,,,,,1,,,85,0
284160,note_off,240,0,4,,,,,,,,,3,,,49,0
284160,note_on,0,0,4,,,,,,,,,3,,,54,59
284160,note_on,120,0,1,,,,,,,,,0,,,78,59
284280,note_off,120,0,1,,,,,,,,,0,,,78,0
284280,note_on,162,0,2,,,,,,,,,1,,,82,60
284358,note_off,78,0,2,,,,,,,,,1,,,82,0
284400,note_off,240,0,4,,,,,,,,,3,,,54,0
284400,note_on,0,0,4,,,,,,,,,3,,,49,61
284400,note_on,120,0,1,,,,,,,,,0,,,78,61
284520,note_on,162,0,2,,,,,,,,,1,,,85,62
284520,note_off,120,0,1,,,,,,,,,0,,,78,0
284598,note_off,78,0,2,,,,,,,,,1,,,85,0
284640,note_on,0,0,4,,,,,,,,,3,,,46,63
284640,note_off,240,0,4,,,,,,,,,3,,,49,0
284640,note_on,120,0,1,,,,,,,,,0,,,78,63
284760,note_off,120,0,1,,,,,,,,,0,,,78,0
284760,note_on,162,0,2,,,,,,,,,1,,,85,64
284838,note_off,78,0,2,,,,,,,,,1,,,85,0
284880,note_on,0,0,4,,,,,,,,,3,,,49,64
284880,note_off,240,0,4,,,,,,,,,3,,,46,0
284880,note_on,120,0,1,,,,,,,,,0,,,82,64
285000,note_off,120,0,1,,,,,,,,,0,,,82,0
285000,note_on,162,0,2,,,,,,,,,1,,,85,65
285078,note_off,78,0,2,,,,,,,,,1,,,85,0
285120,note_on,120,0,1,,,,,,,,,0,,,82,66
285120,note_on,0,0,4,,,,,,,,,3,,,42,66
285120,note_off,240,0,4,,,,,,,,,3,,,49,0
285240,note_on,162,0,2,,,,,,,,,1,,,85,67
285240,note_off,120,0,1,,,,,,,,,0,,,82,0
285318,note_off,78,0,2,,,,,,,,,1,,,85,0
285360,note_off,240,0,4,,,,,,,,,3,,,42,0
285360,note_on,120,0,1,,,,,,,,,0,,,82,68
285360,note_on,0,0,4,,,,,,,,,3,,,49,68
285480,note_off,120,0,1,,,,,,,,,0,,,82,0
285480,note_on,162,0,2,,,,,,,,,1,,,85,69
285558,note_off,78,0,2,,,,,,,,,1,,,85,0
285600,note_on,0,0,4,,,,,,,,,3,,,37,70
285600,note_off,240,0,4,,,,,,,,,3,,,49,0
285600,note_on,120,0,1,,,,,,,,,0,,,80,70
285720,note_on,162,0,2,,,,,,,,,1,,,83,70
285720,note_off,120,0,1,,,,,,,,,0,,,80,0
285798,note_off,78,0,2,,,,,,,,,1,,,83,0
285840,note_off,240,0,4,,,,,,,,,3,,,37,0
285840,note_on,0,0,4,,,,,,,,,3,,,49,71
285840,note_on,120,0,1,,,,,,,,,0,,,77,71
285960,note_off,120,0,1,,,,,,,,,0,,,77,0
285960,note_on,162,0,2,,,,,,,,,1,,,85,72
286038,note_off,78,0,2,,,,,,,,,1,,,85,0
286080,note_on,120,0,1,,,,,,,,,0,,,82,73
286080,note_off,240,0,4,,,,,,,,,3,,,49,0
286080,note_on,0,0,4,,,,,,,,,3,,,42,73
286200,note_off,120,0,1,,,,,,,,,0,,,82,0
286200,note_on,162,0,2,,,,,,,,,1,,,85,74
286278,note_off,78,0,2,,,,,,,,,1,,,85,0
286320,note_off,240,0,4,,,,,,,,,3,,,42,0
286320,note_on,120,0,1,,,,,,,,,0,,,82,75
286320,note_on,0,0,4,,,,,,,,,3,,,54,75
286320,note_on,0,0,1,,,,,,,,,0,,,78,75
286440,note_off,0,0,1,,,,,,,,,0,,,82,0
286440,note_on,162,0,2,,,,,,,,,1,,,85,76
286440,note_off,120,0,1,,,,,,,,,0,,,78,0
286518,note_off,78,0,2,,,,,,,,,1,,,85,0
286560,note_on,120,0,1,,,,,,,,,0,,,78,76
286560,note_off,240,0,4,,,,,,,,,3,,,54,0
286560,note_on,0,0,4,,,,,,,,,3,,,35,76
286680,note_off,120,0,1,,,,,,,,,0,,,78,0
286680,note_on,162,0,2,,,,,,,,,1,,,80,77
286758,note_off,78,0,2,,,,,,,,,1,,,80,0
286800,note_on,120,0,1,,,,,,,,,0,,,78,78
286800,note_on,0,0,4,,,,,,,,,3,,,47,78
286800,note_off,240,0,4,,,,,,,,,3,,,35,0
286920,note_on,162,0,2,,,,,,,,,1,,,84,79
286920,note_off,120,0,1,,,,,,,,,0,,,78,0
286998,note_off,78,0,2,,,,,,,,,1,,,84,0
287040,note_on,120,0,1,,,,,,,,,0,,,78,80
287040,note_on,0,0,4,,,,,,,,,3,,,36,80
287040,note_off,240,0,4,,,,,,,,,3,,,47,0
287160,note_off,120,0,1,,,,,,,,,0,,,78,0
287160,note_on,162,0,2,,,,,,,,,1,,,80,81
287238,note_off,78,0,2,,,,,,,,,1,,,80,0
287280,note_off,240,0,4,,,,,,,,,3,,,36,0
287280,note_on,120,0,1,,,,,,,,,0,,,78,82
287280,note_on,0,0,4,,,,,,,,,3,,,48,82
287400,note_on,162,0,2,,,,,,,,,1,,,87,83
287400,note_off,120,0,1,,,,,,,,,0,,,78,0
287478,note_off,78,0,2,,,,,,,,,1,,,87,0
287520,note_on,120,0,1,,,,,,,,,0,,,78,83
287520,note_on,0,0,4,,,,,,,,,3,,,32,83
287520,note_off,240,0,4,,,,,,,,,3,,,48,0
287640,note_off,120,0,1,,,,,,,,,0,,,78,0
287640,note_on,162,0,2,,,,,,,,,1,,,80,84
287718,note_off,78,0,2,,,,,,,,,1,,,80,0
287750,set_tempo,5400,1,0,,,,,,379746,,,,,,,
287760,note_on,120,0,1,,,,,,,,,0,,,78,85
287760,note_on,0,0,4,,,,,,,,,3,,,44,85
287760,note_off,240,0,4,,,,,,,,,3,,,32,0
287880,note_on,162,0,2,,,,,,,,,1,,,87,86
287880,note_off,120,0,1,,,,,,,,,0,,,78,0
287880,set_tempo,130,1,0,,,,,,384615,,,,,,,
287958,note_off,78,0,2,,,,,,,,,1,,,87,0
288000,note_on,0,0,4,,,,,,,,,3,,,37,87
288000,set_tempo,120,1,0,,,,,,394736,,,,,,,
288000,note_on,120,0,1,,,,,,,,,0,,,80,87
288000,note_on,42,0,2,,,,,,,,,1,,,85,87
288000,note_off,240,0,4,,,,,,,,,3,,,44,0
288000,note_on,0,0,4,,,,,,,,,3,,,49,87
288000,note_on,0,0,2,,,,,,,,,1,,,77,87
288230,set_tempo,230,1,0,,,,,,379746,,,,,,,
288240,note_off,0,0,4,,,,,,,,,3,,,49,0
288240,note_off,240,0,4,,,,,,,,,3,,,37,0
288240,note_off,0,0,2,,,,,,,,,1,,,85,0
288240,note_off,240,0,2,,,,,,,,,1,,,77,0
288240,note_off,240,0,1,,,,,,,,,0,,,80,0
288240,note_on,0,0,1,,,,,,,,,0,,,60,77
288360,note_off,120,0,1,,,,,,,,,0,,,60,0
288360,set_tempo,130,1,0,,,,,,377358,,,,,,,
288360,note_on,120,0,2,,,,,,,,,1,,,61,75
288438,note_off,78,0,2,,,,,,,,,1,,,61,0
288480,note_on,120,0,1,,,,,,,,,0,,,60,72
288600,note_off,120,0,1,,,,,,,,,0,,,60,0
288600,note_on,162,0,2,,,,,,,,,1,,,61,70
288678,note_off,78,0,2,,,,,,,,,1,,,61,0
288720,note_on,120,0,1,,,,,,,,,0,,,64,69
288840,note_on,162,0,2,,,,,,,,,1,,,65,69
288840,note_off,120,0,1,,,,,,,,,0,,,64,0
288918,note_off,78,0,2,,,,,,,,,1,,,65,0
288960,note_on,120,0,1,,,,,,,,,0,,,64,68
289080,note_on,162,0,2,,,,,,,,,1,,,65,68
289080,note_off,120,0,1,,,,,,,,,0,,,64,0
289158,note_off,78,0,2,,,,,,,,,1,,,65,0
289200,note_on,120,0,1,,,,,,,,,0,,,67,67
289320,note_on,162,0,2,,,,,,,,,1,,,68,66
289320,note_off,120,0,1,,,,,,,,,0,,,67,0
289398,note_off,78,0,2,,,,,,,,,1,,,68,0
289440,note_on,120,0,1,,,,,,,,,0,,,67,66
289560,note_off,120,0,1,,,,,,,,,0,,,67,0
289560,note_on,162,0,2,,,,,,,,,1,,,68,65
289638,note_off,78,0,2,,,,,,,,,1,,,68,0
289680,note_on,120,0,1,,,,,,,,,0,,,72,65
289800,note_off,120,0,1,,,,,,,,,0,,,72,0
289800,note_on,162,0,2,,,,,,,,,1,,,73,64
289878,note_off,78,0,2,,,,,,,,,1,,,73,0
289920,note_on,120,0,1,,,,,,,,,0,,,72,64
290040,note_off,120,0,1,,,,,,,,,0,,,72,0
290040,note_on,162,0,2,,,,,,,,,1,,,73,63
290118,note_off,78,0,2,,,,,,,,,1,,,73,0
290160,note_on,120,0,1,,,,,,,,,0,,,76,63
290280,note_off,120,0,1,,,,,,,,,0,,,76,0
290280,note_on,162,0,2,,,,,,,,,1,,,77,62
290358,note_off,78,0,2,,,,,,,,,1,,,77,0
290400,note_on,120,0,1,,,,,,,,,0,,,76,62
290520,note_on,162,0,2,,,,,,,,,1,,,77,61
290520,note_off,120,0,1,,,,,,,,,0,,,76,0
290598,note_off,78,0,2,,,,,,,,,1,,,77,0
290640,note_on,120,0,1,,,,,,,,,0,,,79,61
290760,note_off,120,0,1,,,,,,,,,0,,,79,0
290760,note_on,162,0,2,,,,,,,,,1,,,80,60
290838,note_off,78,0,2,,,,,,,,,1,,,80,0
290880,note_on,120,0,1,,,,,,,,,0,,,79,59
291000,note_off,120,0,1,,,,,,,,,0,,,79,0
291000,note_on,162,0,2,,,,,,,,,1,,,80,59
291078,note_off,78,0,2,,,,,,,,,1,,,80,0
291120,note_on,120,0,1,,,,,,,,,0,,,84,58
291240,note_off,120,0,1,,,,,,,,,0,,,84,0
291240,note_on,162,0,2,,,,,,,,,1,,,85,58
291318,note_off,78,0,2,,,,,,,,,1,,,85,0
291360,note_on,120,0,1,,,,,,,,,0,,,84,57
291480,note_on,162,0,2,,,,,,,,,1,,,85,57
291480,note_off,120,0,1,,,,,,,,,0,,,84,0
291558,note_off,78,0,2,,,,,,,,,1,,,85,0
291600,note_on,120,0,1,,,,,,,,,0,,,88,56
291720,note_on,162,0,2,,,,,,,,,1,,,89,56
291720,note_off,120,0,1,,,,,,,,,0,,,88,0
291798,note_off,78,0,2,,,,,,,,,1,,,89,0
291840,note_on,120,0,1,,,,,,,,,0,,,88,55
291960,note_off,120,0,1,,,,,,,,,0,,,88,0
291960,note_on,162,0,2,,,,,,,,,1,,,89,55
292038,note_off,78,0,2,,,,,,,,,1,,,89,0
292080,note_on,120,0,1,,,,,,,,,0,,,91,54
292200,note_on,162,0,2,,,,,,,,,1,,,92,53
292200,note_off,120,0,1,,,,,,,,,0,,,91,0
292278,note_off,78,0,2,,,,,,,,,1,,,92,0
292320,note_on,120,0,1,,,,,,,,,0,,,84,53
292440,note_on,162,0,2,,,,,,,,,1,,,85,52
292440,note_off,120,0,1,,,,,,,,,0,,,84,0
292518,note_off,78,0,2,,,,,,,,,1,,,85,0
292560,note_on,120,0,1,,,,,,,,,0,,,88,52
292680,note_off,120,0,1,,,,,,,,,0,,,88,0
292680,note_on,162,0,2,,,,,,,,,1,,,89,51
292758,note_off,78,0,2,,,,,,,,,1,,,89,0
292800,note_on,120,0,1,,,,,,,,,0,,,79,51
292920,note_off,120,0,1,,,,,,,,,0,,,79,0
292920,note_on,162,0,2,,,,,,,,,1,,,80,50
292998,note_off,78,0,2,,,,,,,,,1,,,80,0
293040,note_on,120,0,1,,,,,,,,,0,,,84,50
293160,note_off,120,0,1,,,,,,,,,0,,,84,0
293160,note_on,162,0,2,,,,,,,,,1,,,85,49
293238,note_off,78,0,2,,,,,,,,,1,,,85,0
293280,note_on,120,0,1,,,,,,,,,0,,,76,49
293400,note_off,120,0,1,,,,,,,,,0,,,76,0
293400,note_on,162,0,2,,,,,,,,,1,,,77,48
293478,note_off,78,0,2,,,,,,,,,1,,,77,0
293520,note_on,120,0,1,,,,,,,,,0,,,79,47
293640,note_off,120,0,1,,,,,,,,,0,,,79,0
293640,note_on,162,0,2,,,,,,,,,1,,,80,47
293718,note_off,78,0,2,,,,,,,,,1,,,80,0
293760,note_on,120,0,1,,,,,,,,,0,,,72,46
293880,note_on,162,0,2,,,,,,,,,1,,,73,46
293880,note_off,120,0,1,,,,,,,,,0,,,72,0
293958,note_off,78,0,2,,,,,,,,,1,,,73,0
294000,note_on,120,0,1,,,,,,,,,0,,,76,45
294120,note_on,162,0,2,,,,,,,,,1,,,77,45
294120,note_off,120,0,1,,,,,,,,,0,,,76,0
294198,note_off,78,0,2,,,,,,,,,1,,,77,0
294240,note_on,120,0,1,,,,,,,,,0,,,67,44
294360,note_on,162,0,2,,,,,,,,,1,,,68,44
294360,note_off,120,0,1,,,,,,,,,0,,,67,0
294438,note_off,78,0,2,,,,,,,,,1,,,68,0
294480,note_on,120,0,1,,,,,,,,,0,,,72,43
294600,note_on,162,0,2,,,,,,,,,1,,,73,43
294600,note_off,120,0,1,,,,,,,,,0,,,72,0
294678,note_off,78,0,2,,,,,,,,,1,,,73,0
294720,note_on,120,0,1,,,,,,,,,0,,,64,42
294840,note_on,162,0,2,,,,,,,,,1,,,65,42
294840,note_off,120,0,1,,,,,,,,,0,,,64,0
294918,note_off,78,0,2,,,,,,,,,1,,,65,0
294960,note_on,120,0,1,,,,,,,,,0,,,72,41
295080,note_on,162,0,2,,,,,,,,,1,,,73,40
295080,note_off,120,0,1,,,,,,,,,0,,,72,0
295158,note_off,78,0,2,,,,,,,,,1,,,73,0
295200,note_on,120,0,1,,,,,,,,,0,,,60,40
295320,note_off,120,0,1,,,,,,,,,0,,,60,0
295320,note_on,162,0,2,,,,,,,,,1,,,61,39
295398,note_off,78,0,2,,,,,,,,,1,,,61,0
295440,note_on,120,0,1,,,,,,,,,0,,,72,39
295560,note_off,120,0,1,,,,,,,,,0,,,72,0
295560,note_on,162,0,2,,,,,,,,,1,,,73,38
295638,note_off,78,0,2,,,,,,,,,1,,,73,0
295680,note_on,120,0,1,,,,,,,,,0,,,60,38
295800,note_off,120,0,1,,,,,,,,,0,,,60,0
295800,note_on,162,0,2,,,,,,,,,1,,,61,37
295878,note_off,78,0,2,,,,,,,,,1,,,61,0
295920,note_on,120,0,1,,,,,,,,,0,,,72,37
296040,note_off,120,0,1,,,,,,,,,0,,,72,0
296040,note_on,162,0,2,,,,,,,,,1,,,73,36
296118,note_off,78,0,2,,,,,,,,,1,,,73,0
296160,note_on,120,0,1,,,,,,,,,0,,,48,36
296280,note_on,162,0,2,,,,,,,,,1,,,49,35
296280,note_off,120,0,1,,,,,,,,,0,,,48,0
296358,note_off,78,0,2,,,,,,,,,1,,,49,0
296400,note_on,120,0,1,,,,,,,,,0,,,60,34
296520,note_on,162,0,2,,,,,,,,,1,,,61,34
296520,note_off,120,0,1,,,,,,,,,0,,,60,0
296598,note_off,78,0,2,,,,,,,,,1,,,61,0
296640,note_on,120,0,1,,,,,,,,,0,,,60,33
296760,note_off,120,0,1,,,,,,,,,0,,,60,0
296760,note_on,162,0,2,,,,,,,,,1,,,61,33
296838,note_off,78,0,2,,,,,,,,,1,,,61,0
296880,note_on,120,0,1,,,,,,,,,0,,,72,32
297000,note_off,120,0,1,,,,,,,,,0,,,72,0
297000,note_on,162,0,2,,,,,,,,,1,,,73,32
297000,set_tempo,8640,1,0,,,,,,379746,,,,,,,
297078,note_off,78,0,2,,,,,,,,,1,,,73,0
297120,note_on,120,0,1,,,,,,,,,0,,,48,31
297240,set_tempo,240,1,0,,,,,,384615,,,,,,,
297240,note_on,162,0,2,,,,,,,,,1,,,49,31
297240,note_off,120,0,1,,,,,,,,,0,,,48,0
297318,note_off,78,0,2,,,,,,,,,1,,,49,0
297360,set_tempo,120,1,0,,,,,,413793,,,,,,,
297360,note_on,120,0,1,,,,,,,,,0,,,60,30
297480,note_on,162,0,2,,,,,,,,,1,,,61,32
297480,set_tempo,120,1,0,,,,,,600000,,,,,,,
297480,note_off,120,0,1,,,,,,,,,0,,,60,0
297558,note_off,78,0,2,,,,,,,,,1,,,61,0
297600,set_tempo,120,1,0,,,,,,377358,,,,,,,
297600,note_on,120,0,1,,,,,,,,,0,,,72,79
297600,note_on,9360,0,4,,,,,,,,,3,,,50,79
297600,note_on,22740,0,3,,,,,,,,,2,,,54,79
297600,note_on,42,0,2,,,,,,,,,1,,,66,79
298320,note_off,720,0,2,,,,,,,,,1,,,66,0
298320,note_on,0,0,3,,,,,,,,,2,,,56,77
298320,note_on,0,0,1,,,,,,,,,0,,,73,77
298320,note_off,720,0,1,,,,,,,,,0,,,72,0
298320,note_on,0,0,4,,,,,,,,,3,,,49,77
298320,note_off,720,0,4,,,,,,,,,3,,,50,0
298320,set_tempo,720,1,0,,,,,,379746,,,,,,,
298320,note_off,720,0,3,,,,,,,,,2,,,54,0
298320,note_on,0,0,2,,,,,,,,,1,,,65,77
298476,note_off,156,0,1,,,,,,,,,0,,,73,0
298476,note_off,156,0,2,,,,,,,,,1,,,65,0
298476,note_off,156,0,3,,,,,,,,,2,,,56,0
298476,note_off,156,0,4,,,,,,,,,3,,,49,0
298560,note_on,84,0,3,,,,,,,,,2,,,49,72
298560,set_tempo,240,1,0,,,,,,384615,,,,,,,
298560,note_on,84,0,1,,,,,,,,,0,,,68,72
298560,note_on,84,0,2,,,,,,,,,1,,,65,72
298560,note_on,84,0,4,,,,,,,,,3,,,47,72
298716,note_off,156,0,2,,,,,,,,,1,,,65,0
298716,note_off,156,0,1,,,,,,,,,0,,,68,0
298716,note_off,156,0,4,,,,,,,,,3,,,47,0
298716,note_off,156,0,3,,,,,,,,,2,,,49,0
299280,note_on,564,0,4,,,,,,,,,3,,,46,47
299280,note_on,564,0,1,,,,,,,,,0,,,70,47
299280,note_on,564,0,2,,,,,,,,,1,,,66,47
299280,note_on,564,0,3,,,,,,,,,2,,,49,47
299436,note_off,156,0,2,,,,,,,,,1,,,66,0
299436,note_off,156,0,4,,,,,,,,,3,,,46,0
299436,note_off,156,0,1,,,,,,,,,0,,,70,0
299436,note_off,156,0,3,,,,,,,,,2,,,49,0
299460,set_tempo,900,1,0,,,,,,389610,,,,,,,
299520,note_on,84,0,1,,,,,,,,,0,,,71,53
299520,note_on,84,0,2,,,,,,,,,1,,,63,53
299520,note_on,84,0,4,,,,,,,,,3,,,44,53
299880,note_off,360,0,4,,,,,,,,,3,,,44,0
299880,note_on,0,0,4,,,,,,,,,3,,,46,49
299880,note_on,0,0,2,,,,,,,,,1,,,61,49
299880,note_off,360,0,1,,,,,,,,,0,,,71,0
299880,note_on,0,0,1,,,,,,,,,0,,,70,49
299880,note_off,360,0,2,,,,,,,,,1,,,63,0
299958,note_off,78,0,4,,,,,,,,,3,,,46,0
299958,note_off,78,0,2,,,,,,,,,1,,,61,0
299958,note_off,78,0,1,,,,,,,,,0,,,70,0
300000,note_on,42,0,1,,,,,,,,,0,,,68,47
300000,note_on,42,0,4,,,,,,,,,3,,,47,47
300000,note_on,42,0,2,,,,,,,,,1,,,59,47
300156,note_off,156,0,1,,,,,,,,,0,,,68,0
300156,note_off,156,0,4,,,,,,,,,3,,,47,0
300156,note_off,156,0,2,,,,,,,,,1,,,59,0
300240,note_on,84,0,1,,,,,,,,,0,,,66,44
300240,note_on,84,0,4,,,,,,,,,3,,,48,44
300240,note_on,84,0,2,,,,,,,,,1,,,58,44
300396,note_off,156,0,1,,,,,,,,,0,,,66,0
300396,note_off,156,0,2,,,,,,,,,1,,,58,0
300396,note_off,156,0,4,,,,,,,,,3,,,48,0
300480,note_on,84,0,1,,,,,,,,,0,,,65,41
300480,note_on,0,0,2,,,,,,,,,1,,,56,41
300480,note_on,84,0,2,,,,,,,,,1,,,49,41
300840,note_off,0,0,2,,,,,,,,,1,,,49,0
300840,note_off,360,0,1,,,,,,,,,0,,,65,0
300840,note_off,360,0,2,,,,,,,,,1,,,56,0
300960,set_tempo,1500,1,0,,,,,,408163,,,,,,,
301440,note_on,2004,0,3,,,,,,,,,2,,,67,79
301440,note_on,600,0,2,,,,,,,,,1,,,70,79
301440,note_on,1044,0,4,,,,,,,,,3,,,64,79
301440,note_on,600,0,1,,,,,,,,,0,,,73,79
301440,set_tempo,480,1,0,,,,,,377358,,,,,,,
302160,note_off,720,0,1,,,,,,,,,0,,,73,0
302160,note_off,720,0,4,,,,,,,,,3,,,64,0
302160,note_on,0,0,3,,,,,,,,,2,,,66,77
302160,note_on,0,0,2,,,,,,,,,1,,,71,77
302160,note_off,720,0,2,,,,,,,,,1,,,70,0
302160,note_on,0,0,4,,,,,,,,,3,,,63,77
302160,note_on,0,0,1,,,,,,,,,0,,,75,77
302160,set_tempo,720,1,0,,,,,,379746,,,,,,,
302160,note_off,720,0,3,,,,,,,,,2,,,67,0
302316,note_off,156,0,1,,,,,,,,,0,,,75,0
302316,note_off,156,0,4,,,,,,,,,3,,,63,0
302316,note_off,156,0,2,,,,,,,,,1,,,71,0
302316,note_off,156,0,3,,,,,,,,,2,,,66,0
302400,note_on,84,0,1,,,,,,,,,0,,,76,75
302400,set_tempo,240,1,0,,,,,,384615,,,,,,,
302400,note_on,84,0,4,,,,,,,,,3,,,61,75
302400,note_on,84,0,2,,,,,,,,,1,,,73,75
302400,note_on,84,0,3,,,,,,,,,2,,,64,75
302634,note_off,234,0,2,,,,,,,,,1,,,73,0
302634,note_off,234,0,1,,,,,,,,,0,,,76,0
302634,note_off,234,0,4,,,,,,,,,3,,,61,0
302634,note_off,234,0,3,,,,,,,,,2,,,64,0
303120,note_on,486,0,2,,,,,,,,,1,,,75,47
303120,note_on,486,0,4,,,,,,,,,3,,,59,47
303120,note_on,486,0,1,,,,,,,,,0,,,78,47
303120,note_on,486,0,3,,,,,,,,,2,,,63,47
303276,note_off,156,0,3,,,,,,,,,2,,,63,0
303276,note_off,156,0,4,,,,,,,,,3,,,59,0
303276,note_off,156,0,2,,,,,,,,,1,,,75,0
303276,note_off,156,0,1,,,,,,,,,0,,,78,0
303300,set_tempo,900,1,0,,,,,,389610,,,,,,,
303360,note_on,84,0,4,,,,,,,,,3,,,52,51
303360,note_on,84,0,2,,,,,,,,,1,,,76,51
303360,note_on,84,0,1,,,,,,,,,0,,,80,51
303360,note_on,84,0,3,,,,,,,,,2,,,56,51
303720,note_on,0,0,1,,,,,,,,,0,,,76,47
303720,note_on,0,0,2,,,,,,,,,1,,,73,47
303720,note_off,360,0,1,,,,,,,,,0,,,80,0
303720,note_on,0,0,3,,,,,,,,,2,,,61,47
303720,note_off,360,0,3,,,,,,,,,2,,,56,0
303720,note_off,360,0,2,,,,,,,,,1,,,76,0
303798,note_off,78,0,1,,,,,,,,,0,,,76,0
303798,note_off,78,0,3,,,,,,,,,2,,,61,0
303798,note_off,78,0,2,,,,,,,,,1,,,73,0
303840,note_on,42,0,2,,,,,,,,,1,,,71,46
303840,note_off,480,0,4,,,,,,,,,3,,,52,0
303840,note_on,42,0,3,,,,,,,,,2,,,63,46
303840,note_on,42,0,1,,,,,,,,,0,,,75,46
303840,note_on,0,0,4,,,,,,,,,3,,,54,46
303996,note_off,156,0,2,,,,,,,,,1,,,71,0
303996,note_off,156,0,4,,,,,,,,,3,,,54,0
303996,note_off,156,0,3,,,,,,,,,2,,,63,0
303996,note_off,156,0,1,,,,,,,,,0,,,75,0
304080,note_on,84,0,3,,,,,,,,,2,,,64,43
304080,note_on,84,0,1,,,,,,,,,0,,,73,43
304080,note_on,84,0,2,,,,,,,,,1,,,70,43
304080,note_on,84,0,4,,,,,,,,,3,,,54,43
304236,note_off,156,0,4,,,,,,,,,3,,,54,0
304236,note_off,156,0,1,,,,,,,,,0,,,73,0
304236,note_off,156,0,2,,,,,,,,,1,,,70,0
304236,note_off,156,0,3,,,,,,,,,2,,,64,0
304320,note_on,84,0,1,,,,,,,,,0,,,75,41
304320,note_on,84,0,2,,,,,,,,,1,,,71,41
304320,note_on,84,0,3,,,,,,,,,2,,,63,41
304320,note_on,84,0,4,,,,,,,,,3,,,59,41
304680,note_off,360,0,2,,,,,,,,,1,,,71,0
304680,note_off,360,0,3,,,,,,,,,2,,,63,0
304680,note_off,360,0,4,,,,,,,,,3,,,59,0
304680,note_off,360,0,1,,,,,,,,,0,,,75,0
304800,set_tempo,1500,1,0,,,,,,408163,,,,,,,
305280,set_tempo,480,1,0,,,,,,377358,,,,,,,
305280,note_on,600,0,2,,,,,,,,,1,,,66,41
305280,note_on,600,0,4,,,,,,,,,3,,,63,41
305280,note_on,600,0,1,,,,,,,,,0,,,71,41
306000,note_off,720,0,1,,,,,,,,,0,,,71,0
306000,note_off,720,0,2,,,,,,,,,1,,,66,0
306000,note_on,0,0,4,,,,,,,,,3,,,61,39
306000,note_off,720,0,4,,,,,,,,,3,,,63,0
306000,note_on,0,0,2,,,,,,,,,1,,,66,39
306000,note_on,0,0,1,,,,,,,,,0,,,70,39
306020,set_tempo,740,1,0,,,,,,379746,,,,,,,
306156,note_off,156,0,2,,,,,,,,,1,,,66,0
306156,note_off,156,0,1,,,,,,,,,0,,,70,0
306156,note_off,156,0,4,,,,,,,,,3,,,61,0
306240,note_on,84,0,2,,,,,,,,,1,,,66,35
306240,note_on,84,0,1,,,,,,,,,0,,,75,35
306240,note_on,84,0,4,,,,,,,,,3,,,59,35
306240,set_tempo,220,1,0,,,,,,384615,,,,,,,
306600,note_off,360,0,1,,,,,,,,,0,,,75,0
306600,note_off,360,0,4,,,,,,,,,3,,,59,0
306600,note_off,360,0,2,,,,,,,,,1,,,66,0
306960,note_on,360,0,2,,,,,,,,,1,,,66,31
306960,note_on,360,0,4,,,,,,,,,3,,,58,31
306960,note_on,360,0,1,,,,,,,,,0,,,73,31
307116,note_off,156,0,4,,,,,,,,,3,,,58,0
307116,note_off,156,0,2,,,,,,,,,1,,,66,0
307116,note_off,156,0,1,,,,,,,,,0,,,73,0
307140,set_tempo,900,1,0,,,,,,389610,,,,,,,
307200,note_on,84,0,2,,,,,,,,,1,,,66,35
307200,note_on,84,0,4,,,,,,,,,3,,,56,35
307200,note_on,84,0,1,,,,,,,,,0,,,71,35
307560,note_on,0,0,4,,,,,,,,,3,,,58,33
307560,note_off,360,0,4,,,,,,,,,3,,,56,0
307560,note_on,0,0,1,,,,,,,,,0,,,70,33
307560,note_off,360,0,1,,,,,,,,,0,,,71,0
307638,note_off,78,0,4,,,,,,,,,3,,,58,0
307638,note_off,78,0,1,,,,,,,,,0,,,70,0
307680,note_off,480,0,2,,,,,,,,,1,,,66,0
307680,note_on,42,0,4,,,,,,,,,3,,,59,33
307680,note_on,42,0,1,,,,,,,,,0,,,68,33
307680,note_on,0,0,2,,,,,,,,,1,,,66,33
307836,note_off,156,0,4,,,,,,,,,3,,,59,0
307836,note_off,156,0,1,,,,,,,,,0,,,68,0
307836,note_off,156,0,2,,,,,,,,,1,,,66,0
307920,note_on,84,0,1,,,,,,,,,0,,,73,31
307920,note_on,84,0,2,,,,,,,,,1,,,65,31
307920,note_on,84,0,4,,,,,,,,,3,,,49,31
308076,note_off,156,0,4,,,,,,,,,3,,,49,0
308076,note_off,156,0,1,,,,,,,,,0,,,73,0
308076,note_off,156,0,2,,,,,,,,,1,,,65,0
308100,set_tempo,960,1,0,,,,,,394736,,,,,,,
308160,note_on,84,0,4,,,,,,,,,3,,,54,35
308160,note_on,84,0,1,,,,,,,,,0,,,70,35
308280,set_tempo,180,1,0,,,,,,377358,,,,,,,
308280,note_on,204,0,2,,,,,,,,,1,,,66,36
308280,note_off,120,0,1,,,,,,,,,0,,,70,0
308316,note_off,156,0,4,,,,,,,,,3,,,54,0
308358,note_off,78,0,2,,,,,,,,,1,,,66,0
308400,note_on,120,0,1,,,,,,,,,0,,,65,37
308400,note_on,84,0,4,,,,,,,,,3,,,61,37
308520,note_on,162,0,2,,,,,,,,,1,,,66,38
308520,note_off,120,0,1,,,,,,,,,0,,,65,0
308598,note_off,78,0,2,,,,,,,,,1,,,66,0
308640,note_off,240,0,4,,,,,,,,,3,,,61,0
308640,note_on,0,0,4,,,,,,,,,3,,,63,39
308640,note_on,120,0,1,,,,,,,,,0,,,71,39
308760,note_on,162,0,2,,,,,,,,,1,,,78,40
308760,note_off,120,0,1,,,,,,,,,0,,,71,0
308838,note_off,78,0,2,,,,,,,,,1,,,78,0
308880,note_on,0,0,4,,,,,,,,,3,,,61,41
308880,note_on,120,0,1,,,,,,,,,0,,,70,41
308880,note_off,240,0,4,,,,,,,,,3,,,63,0
309000,note_off,120,0,1,,,,,,,,,0,,,70,0
309000,note_on,162,0,2,,,,,,,,,1,,,78,42
309078,note_off,78,0,2,,,,,,,,,1,,,78,0
309120,note_on,120,0,1,,,,,,,,,0,,,75,43
309120,note_on,0,0,4,,,,,,,,,3,,,59,43
309120,note_off,240,0,4,,,,,,,,,3,,,61,0
309240,note_off,120,0,1,,,,,,,,,0,,,75,0
309240,note_on,162,0,2,,,,,,,,,1,,,78,44
309318,note_off,78,0,2,,,,,,,,,1,,,78,0
309360,note_on,0,0,4,,,,,,,,,3,,,58,45
309360,note_off,240,0,4,,,,,,,,,3,,,59,0
309360,note_on,120,0,1,,,,,,,,,0,,,73,45
309480,note_on,162,0,2,,,,,,,,,1,,,78,46
309480,note_off,120,0,1,,,,,,,,,0,,,73,0
309558,note_off,78,0,2,,,,,,,,,1,,,78,0
309600,note_off,240,0,4,,,,,,,,,3,,,58,0
309600,note_on,120,0,1,,,,,,,,,0,,,77,47
309600,note_on,0,0,4,,,,,,,,,3,,,56,47
309720,note_on,162,0,2,,,,,,,,,1,,,80,48
309720,note_off,120,0,1,,,,,,,,,0,,,77,0
309798,note_off,78,0,2,,,,,,,,,1,,,80,0
309840,note_off,240,0,4,,,,,,,,,3,,,56,0
309840,note_on,120,0,1,,,,,,,,,0,,,77,49
309840,note_on,0,0,4,,,,,,,,,3,,,49,49
309960,note_off,120,0,1,,,,,,,,,0,,,77,0
309960,note_on,162,0,2,,,,,,,,,1,,,85,50
310038,note_off,78,0,2,,,,,,,,,1,,,85,0
310080,note_on,120,0,1,,,,,,,,,0,,,78,51
310080,note_on,0,0,4,,,,,,,,,3,,,54,51
310080,note_off,240,0,4,,,,,,,,,3,,,49,0
310200,note_on,162,0,2,,,,,,,,,1,,,82,52
310200,note_off,120,0,1,,,,,,,,,0,,,78,0
310278,note_off,78,0,2,,,,,,,,,1,,,82,0
310320,note_off,240,0,4,,,,,,,,,3,,,54,0
310320,note_on,0,0,4,,,,,,,,,3,,,49,53
310320,note_on,120,0,1,,,,,,,,,0,,,78,53
310440,note_off,120,0,1,,,,,,,,,0,,,78,0
310440,note_on,162,0,2,,,,,,,,,1,,,85,54
310518,note_off,78,0,2,,,,,,,,,1,,,85,0
310560,note_on,0,0,4,,,,,,,,,3,,,46,55
310560,note_off,240,0,4,,,,,,,,,3,,,49,0
310560,note_on,120,0,1,,,,,,,,,0,,,78,55
310680,note_on,162,0,2,,,,,,,,,1,,,85,56
310680,note_off,120,0,1,,,,,,,,,0,,,78,0
310758,note_off,78,0,2,,,,,,,,,1,,,85,0
310800,note_on,0,0,4,,,,,,,,,3,,,49,57
310800,note_on,120,0,1,,,,,,,,,0,,,82,57
310800,note_off,240,0,4,,,,,,,,,3,,,46,0
310920,note_on,162,0,2,,,,,,,,,1,,,85,58
310920,note_off,120,0,1,,,,,,,,,0,,,82,0
310998,note_off,78,0,2,,,,,,,,,1,,,85,0
311040,note_on,0,0,4,,,,,,,,,3,,,42,59
311040,note_off,240,0,4,,,,,,,,,3,,,49,0
311040,note_on,120,0,1,,,,,,,,,0,,,82,59
311160,note_off,120,0,1,,,,,,,,,0,,,82,0
311160,note_on,162,0,2,,,,,,,,,1,,,85,60
311238,note_off,78,0,2,,,,,,,,,1,,,85,0
311280,note_on,0,0,4,,,,,,,,,3,,,49,61
311280,note_on,120,0,1,,,,,,,,,0,,,82,61
311280,note_off,240,0,4,,,,,,,,,3,,,42,0
311400,note_on,162,0,2,,,,,,,,,1,,,85,62
311400,note_off,120,0,1,,,,,,,,,0,,,82,0
311478,note_off,78,0,2,,,,,,,,,1,,,85,0
311520,note_on,120,0,1,,,,,,,,,0,,,80,63
311520,note_on,0,0,4,,,,,,,,,3,,,37,63
311520,note_off,240,0,4,,,,,,,,,3,,,49,0
311640,note_off,120,0,1,,,,,,,,,0,,,80,0
311640,note_on,162,0,2,,,,,,,,,1,,,83,64
311718,note_off,78,0,2,,,,,,,,,1,,,83,0
311760,note_off,240,0,4,,,,,,,,,3,,,37,0
311760,note_on,0,0,4,,,,,,,,,3,,,49,65
311760,note_on,120,0,1,,,,,,,,,0,,,77,65
311880,note_off,120,0,1,,,,,,,,,0,,,77,0
311880,note_on,162,0,2,,,,,,,,,1,,,85,66
311880,set_tempo,3600,1,0,,,,,,377358,,,,,,,
311958,note_off,78,0,2,,,,,,,,,1,,,85,0
312000,note_on,42,0,2,,,,,,,,,1,,,82,67
312000,note_off,240,0,4,,,,,,,,,3,,,49,0
312000,note_on,0,0,4,,,,,,,,,3,,,42,67
312078,note_off,78,0,2,,,,,,,,,1,,,82,0
312120,note_on,42,0,2,,,,,,,,,1,,,78,56
312130,set_tempo,250,1,0,,,,,,372670,,,,,,,
312156,note_off,156,0,4,,,,,,,,,3,,,42,0
312198,note_off,78,0,2,,,,,,,,,1,,,78,0
312240,note_on,360,0,1,,,,,,,,,0,,,70,56
312240,note_on,84,0,4,,,,,,,,,3,,,61,56
312360,note_on,162,0,2,,,,,,,,,1,,,78,57
312360,note_off,120,0,1,,,,,,,,,0,,,70,0
312438,note_off,78,0,2,,,,,,,,,1,,,78,0
312480,note_on,0,0,4,,,,,,,,,3,,,63,58
312480,note_on,120,0,1,,,,,,,,,0,,,71,58
312480,note_off,240,0,4,,,,,,,,,3,,,61,0
312600,note_off,120,0,1,,,,,,,,,0,,,71,0
312600,note_on,162,0,2,,,,,,,,,1,,,78,59
312678,note_off,78,0,2,,,,,,,,,1,,,78,0
312720,note_on,120,0,1,,,,,,,,,0,,,70,60
312720,note_on,0,0,4,,,,,,,,,3,,,61,60
312720,note_off,240,0,4,,,,,,,,,3,,,63,0
312840,note_off,120,0,1,,,,,,,,,0,,,70,0
312840,note_on,162,0,2,,,,,,,,,1,,,78,61
312918,note_off,78,0,2,,,,,,,,,1,,,78,0
312960,note_on,120,0,1,,,,,,,,,0,,,75,61
312960,note_on,0,0,4,,,,,,,,,3,,,59,61
312960,note_off,240,0,4,,,,,,,,,3,,,61,0
313080,note_off,120,0,1,,,,,,,,,0,,,75,0
313080,note_on,162,0,2,,,,,,,,,1,,,78,62
313158,note_off,78,0,2,,,,,,,,,1,,,78,0
313200,note_on,0,0,4,,,,,,,,,3,,,58,63
313200,note_off,240,0,4,,,,,,,,,3,,,59,0
313200,note_on,120,0,1,,,,,,,,,0,,,73,63
313320,note_on,162,0,2,,,,,,,,,1,,,78,64
313320,note_off,120,0,1,,,,,,,,,0,,,73,0
313398,note_off,78,0,2,,,,,,,,,1,,,78,0
313440,note_on,120,0,1,,,,,,,,,0,,,77,65
313440,note_on,0,0,4,,,,,,,,,3,,,56,65
313440,note_off,240,0,4,,,,,,,,,3,,,58,0
313560,note_off,120,0,1,,,,,,,,,0,,,77,0
313560,note_on,162,0,2,,,,,,,,,1,,,80,66
313638,note_off,78,0,2,,,,,,,,,1,,,80,0
313680,note_on,120,0,1,,,,,,,,,0,,,77,66
313680,note_on,0,0,4,,,,,,,,,3,,,49,66
313680,note_off,240,0,4,,,,,,,,,3,,,56,0
313800,note_off,120,0,1,,,,,,,,,0,,,77,0
313800,note_on,162,0,2,,,,,,,,,1,,,85,67
313878,note_off,78,0,2,,,,,,,,,1,,,85,0
313920,note_off,240,0,4,,,,,,,,,3,,,49,0
313920,note_on,0,0,4,,,,,,,,,3,,,54,68
313920,note_on,120,0,1,,,,,,,,,0,,,78,68
314040,note_on,162,0,2,,,,,,,,,1,,,82,69
314040,note_off,120,0,1,,,,,,,,,0,,,78,0
314118,note_off,78,0,2,,,,,,,,,1,,,82,0
314160,note_off,240,0,4,,,,,,,,,3,,,54,0
314160,note_on,0,0,4,,,,,,,,,3,,,42,70
314160,note_on,120,0,1,,,,,,,,,0,,,78,70
314280,note_off,120,0,1,,,,,,,,,0,,,78,0
314280,note_on,162,0,2,,,,,,,,,1,,,85,71
314358,note_off,78,0,2,,,,,,,,,1,,,85,0
314400,note_on,120,0,1,,,,,,,,,0,,,78,71
314400,note_on,0,0,4,,,,,,,,,3,,,51,71
314400,note_off,240,0,4,,,,,,,,,3,,,42,0
314520,note_on,162,0,2,,,,,,,,,1,,,82,72
314520,note_off,120,0,1,,,,,,,,,0,,,78,0
314598,note_off,78,0,2,,,,,,,,,1,,,82,0
314640,note_on,120,0,1,,,,,,,,,0,,,78,73
314640,note_off,240,0,4,,,,,,,,,3,,,51,0
314640,note_on,0,0,4,,,,,,,,,3,,,39,73
314760,note_off,120,0,1,,,,,,,,,0,,,78,0
314760,note_on,162,0,2,,,,,,,,,1,,,87,74
314838,note_off,78,0,2,,,,,,,,,1,,,87,0
314880,note_off,240,0,4,,,,,,,,,3,,,39,0
314880,note_on,0,0,4,,,,,,,,,3,,,47,75
314880,note_on,120,0,1,,,,,,,,,0,,,78,75
315000,note_off,120,0,1,,,,,,,,,0,,,78,0
315000,note_on,162,0,2,,,,,,,,,1,,,87,75
315078,note_off,78,0,2,,,,,,,,,1,,,87,0
315120,note_on,120,0,1,,,,,,,,,0,,,78,76
315120,note_on,0,0,4,,,,,,,,,3,,,35,76
315120,note_off,240,0,4,,,,,,,,,3,,,47,0
315240,note_off,120,0,1,,,,,,,,,0,,,78,0
315240,note_on,162,0,2,,,,,,,,,1,,,87,77
315318,note_off,78,0,2,,,,,,,,,1,,,87,0
315360,note_on,0,0,4,,,,,,,,,3,,,45,78
315360,note_on,120,0,1,,,,,,,,,0,,,78,78
315360,note_off,240,0,4,,,,,,,,,3,,,35,0
315480,note_off,120,0,1,,,,,,,,,0,,,78,0
315480,note_on,162,0,2,,,,,,,,,1,,,87,79
315558,note_off,78,0,2,,,,,,,,,1,,,87,0
315600,note_on,0,0,4,,,,,,,,,3,,,33,80
315600,note_on,120,0,1,,,,,,,,,0,,,78,80
315600,note_off,240,0,4,,,,,,,,,3,,,45,0
315660,set_tempo,3530,1,0,,,,,,379746,,,,,,,
315720,set_tempo,60,1,0,,,,,,384615,,,,,,,
315720,note_on,162,0,2,,,,,,,,,1,,,87,80
315720,note_off,120,0,1,,,,,,,,,0,,,78,0
315798,note_off,78,0,2,,,,,,,,,1,,,87,0
315840,note_on,120,0,1,,,,,,,,,0,,,77,81
315840,note_on,0,0,4,,,,,,,,,3,,,46,81
315840,note_on,0,0,4,,,,,,,,,3,,,34,81
315840,note_off,240,0,4,,,,,,,,,3,,,33,0
315840,note_on,42,0,2,,,,,,,,,1,,,86,81
315840,set_tempo,120,1,0,,,,,,394736,,,,,,,
316080,note_off,0,0,4,,,,,,,,,3,,,34,0
316080,note_off,240,0,4,,,,,,,,,3,,,46,0
316080,set_tempo,240,1,0,,,,,,379746,,,,,,,
316080,note_off,240,0,2,,,,,,,,,1,,,86,0
316080,note_off,240,0,1,,,,,,,,,0,,,77,0
316080,note_on,0,0,1,,,,,,,,,0,,,71,74
316200,set_tempo,120,1,0,,,,,,377358,,,,,,,
316200,note_on,120,0,2,,,,,,,,,1,,,70,71
316200,note_off,120,0,1,,,,,,,,,0,,,71,0
316278,note_off,78,0,2,,,,,,,,,1,,,70,0
316320,note_on,120,0,1,,,,,,,,,0,,,70,68
316440,note_on,162,0,2,,,,,,,,,1,,,69,65
316440,note_off,120,0,1,,,,,,,,,0,,,70,0
316518,note_off,78,0,2,,,,,,,,,1,,,69,0
316560,note_on,120,0,1,,,,,,,,,0,,,70,65
316680,note_off,120,0,1,,,,,,,,,0,,,70,0
316680,note_on,162,0,2,,,,,,,,,1,,,69,64
316758,note_off,78,0,2,,,,,,,,,1,,,69,0
316800,note_on,120,0,1,,,,,,,,,0,,,68,63
316920,note_off,120,0,1,,,,,,,,,0,,,68,0
316920,note_on,162,0,2,,,,,,,,,1,,,66,62
316998,note_off,78,0,2,,,,,,,,,1,,,66,0
317040,note_on,120,0,1,,,,,,,,,0,,,68,62
317160,note_on,162,0,2,,,,,,,,,1,,,66,61
317160,note_off,120,0,1,,,,,,,,,0,,,68,0
317238,note_off,78,0,2,,,,,,,,,1,,,66,0
317280,note_on,120,0,1,,,,,,,,,0,,,66,60
317400,note_off,120,0,1,,,,,,,,,0,,,66,0
317400,note_on,162,0,2,,,,,,,,,1,,,65,60
317478,note_off,78,0,2,,,,,,,,,1,,,65,0
317520,note_on,120,0,1,,,,,,,,,0,,,66,59
317640,note_off,120,0,1,,,,,,,,,0,,,66,0
317640,note_on,162,0,2,,,,,,,,,1,,,65,58
317718,note_off,78,0,2,,,,,,,,,1,,,65,0
317760,note_on,120,0,1,,,,,,,,,0,,,65,58
317880,note_off,120,0,1,,,,,,,,,0,,,65,0
317880,note_on,162,0,2,,,,,,,,,1,,,63,57
317958,note_off,78,0,2,,,,,,,,,1,,,63,0
318000,note_on,120,0,1,,,,,,,,,0,,,65,56
318120,note_on,162,0,2,,,,,,,,,1,,,63,55
318120,note_off,120,0,1,,,,,,,,,0,,,65,0
318198,note_off,78,0,2,,,,,,,,,1,,,63,0
318240,note_on,120,0,1,,,,,,,,,0,,,63,55
318360,note_on,162,0,2,,,,,,,,,1,,,61,54
318360,note_off,120,0,1,,,,,,,,,0,,,63,0
318438,note_off,78,0,2,,,,,,,,,1,,,61,0
318480,note_on,120,0,1,,,,,,,,,0,,,63,53
318600,note_on,162,0,2,,,,,,,,,1,,,61,53
318600,note_off,120,0,1,,,,,,,,,0,,,63,0
318678,note_off,78,0,2,,,,,,,,,1,,,61,0
318720,note_on,120,0,1,,,,,,,,,0,,,61,52
318840,note_on,162,0,2,,,,,,,,,1,,,59,51
318840,note_off,120,0,1,,,,,,,,,0,,,61,0
318918,note_off,78,0,2,,,,,,,,,1,,,59,0
318960,note_on,120,0,1,,,,,,,,,0,,,61,51
319080,note_on,162,0,2,,,,,,,,,1,,,59,50
319080,note_off,120,0,1,,,,,,,,,0,,,61,0
319158,note_off,78,0,2,,,,,,,,,1,,,59,0
319200,note_on,120,0,1,,,,,,,,,0,,,59,49
319320,note_on,162,0,2,,,,,,,,,1,,,58,48
319320,note_off,120,0,1,,,,,,,,,0,,,59,0
319398,note_off,78,0,2,,,,,,,,,1,,,58,0
319440,note_on,120,0,1,,,,,,,,,0,,,59,48
319560,note_off,120,0,1,,,,,,,,,0,,,59,0
319560,note_on,162,0,2,,,,,,,,,1,,,58,47
319638,note_off,78,0,2,,,,,,,,,1,,,58,0
319680,note_on,120,0,1,,,,,,,,,0,,,58,46
319800,note_on,162,0,2,,,,,,,,,1,,,57,46
319800,note_off,120,0,1,,,,,,,,,0,,,58,0
319878,note_off,78,0,2,,,,,,,,,1,,,57,0
319920,note_on,120,0,1,,,,,,,,,0,,,58,45
320040,note_off,120,0,1,,,,,,,,,0,,,58,0
320040,note_on,162,0,2,,,,,,,,,1,,,57,44
320118,note_off,78,0,2,,,,,,,,,1,,,57,0
320160,note_on,120,0,1,,,,,,,,,0,,,58,44
320280,note_off,120,0,1,,,,,,,,,0,,,58,0
320280,note_on,162,0,2,,,,,,,,,1,,,56,43
320358,note_off,78,0,2,,,,,,,,,1,,,56,0
320400,note_on,120,0,1,,,,,,,,,0,,,58,42
320520,note_off,120,0,1,,,,,,,,,0,,,58,0
320520,note_on,162,0,2,,,,,,,,,1,,,56,41
320598,note_off,78,0,2,,,,,,,,,1,,,56,0
320640,note_on,120,0,1,,,,,,,,,0,,,58,41
320760,note_off,120,0,1,,,,,,,,,0,,,58,0
320760,note_on,162,0,2,,,,,,,,,1,,,54,40
320838,note_off,78,0,2,,,,,,,,,1,,,54,0
320880,note_on,120,0,1,,,,,,,,,0,,,58,39
321000,note_on,162,0,2,,,,,,,,,1,,,54,39
321000,note_off,120,0,1,,,,,,,,,0,,,58,0
321078,note_off,78,0,2,,,,,,,,,1,,,54,0
321120,note_on,120,0,1,,,,,,,,,0,,,58,38
321240,note_off,120,0,1,,,,,,,,,0,,,58,0
321240,note_on,162,0,2,,,,,,,,,1,,,53,37
321318,note_off,78,0,2,,,,,,,,,1,,,53,0
321360,note_on,120,0,1,,,,,,,,,0,,,58,37
321360,set_tempo,5160,1,0,,,,,,379746,,,,,,,
321480,note_off,120,0,1,,,,,,,,,0,,,58,0
321480,set_tempo,120,1,0,,,,,,389610,,,,,,,
321480,note_on,162,0,2,,,,,,,,,1,,,53,36
321558,note_off,78,0,2,,,,,,,,,1,,,53,0
321600,note_on,321600,0,5,,,,,,,,,4,,,39,97
321600,control_change,42,0,2,,,,,,,64,127,1,,,,
321600,control_change,120,0,1,,,,,,,64,127,0,,,,
321600,control_change,5520,0,4,,,,,,,64,127,3,,,,
321740,set_tempo,260,1,0,,,,,,377358,,,,,,,
321840,note_on,240,0,4,,,,,,,,,3,,,55,95
321840,note_on,240,0,1,,,,,,,,,0,,,58,95
321960,note_off,120,0,1,,,,,,,,,0,,,58,0
321960,note_on,360,0,2,,,,,,,,,1,,,63,94
321996,note_off,156,0,4,,,,,,,,,3,,,55,0
322038,note_off,78,0,2,,,,,,,,,1,,,63,0
322080,note_on,84,0,4,,,,,,,,,3,,,58,93
322080,note_on,120,0,1,,,,,,,,,0,,,63,93
322200,note_on,162,0,2,,,,,,,,,1,,,67,92
322200,note_off,120,0,1,,,,,,,,,0,,,63,0
322236,note_off,156,0,4,,,,,,,,,3,,,58,0
322278,note_off,78,0,2,,,,,,,,,1,,,67,0
322320,note_on,120,0,1,,,,,,,,,0,,,67,91
322320,note_on,84,0,4,,,,,,,,,3,,,63,91
322440,note_off,120,0,1,,,,,,,,,0,,,67,0
322440,note_on,162,0,2,,,,,,,,,1,,,70,90
322476,note_off,156,0,4,,,,,,,,,3,,,63,0
322518,note_off,78,0,2,,,,,,,,,1,,,70,0
322560,note_on,84,0,4,,,,,,,,,3,,,67,89
322560,note_on,120,0,1,,,,,,,,,0,,,70,89
322680,note_off,120,0,1,,,,,,,,,0,,,70,0
322680,note_on,162,0,2,,,,,,,,,1,,,75,88
322716,note_off,156,0,4,,,,,,,,,3,,,67,0
322758,note_off,78,0,2,,,,,,,,,1,,,75,0
322800,note_on,120,0,1,,,,,,,,,0,,,75,87
322800,note_on,84,0,4,,,,,,,,,3,,,70,87
322920,note_off,120,0,1,,,,,,,,,0,,,75,0
322920,note_on,162,0,2,,,,,,,,,1,,,79,86
322956,note_off,156,0,4,,,,,,,,,3,,,70,0
322998,note_off,78,0,2,,,,,,,,,1,,,79,0
323040,note_on,120,0,1,,,,,,,,,0,,,79,85
323040,note_on,84,0,4,,,,,,,,,3,,,75,85
323160,note_on,162,0,2,,,,,,,,,1,,,82,84
323160,note_off,120,0,1,,,,,,,,,0,,,79,0
323196,note_off,156,0,4,,,,,,,,,3,,,75,0
323238,note_off,78,0,2,,,,,,,,,1,,,82,0
323280,note_on,84,0,4,,,,,,,,,3,,,79,83
323280,note_on,120,0,1,,,,,,,,,0,,,82,83
323400,note_on,162,0,2,,,,,,,,,1,,,87,81
323400,set_tempo,1660,1,0,,,,,,379746,,,,,,,
323400,note_off,120,0,1,,,,,,,,,0,,,82,0
323436,note_off,156,0,4,,,,,,,,,3,,,79,0
323478,note_off,78,0,2,,,,,,,,,1,,,87,0
323520,set_tempo,120,1,0,,,,,,394736,,,,,,,
323520,note_on,120,0,1,,,,,,,,,0,,,91,80
323520,note_off,1920,0,5,,,,,,,,,4,,,39,0
323520,note_on,84,0,4,,,,,,,,,3,,,82,80
323676,note_off,156,0,4,,,,,,,,,3,,,82,0
323760,set_tempo,240,1,0,,,,,,377358,,,,,,,
323760,control_change,240,0,1,,,,,,,64,0,0,,,,
323760,note_off,0,0,1,,,,,,,,,0,,,91,0
323760,note_on,0,0,1,,,,,,,,,0,,,66,55
323760,control_change,84,0,4,,,,,,,64,0,3,,,,
323760,note_on,0,0,4,,,,,,,,,3,,,51,55
323760,control_change,282,0,2,,,,,,,64,0,1,,,,
323880,note_on,120,0,2,,,,,,,,,1,,,70,54
323880,note_off,120,0,1,,,,,,,,,0,,,66,0
323958,note_off,78,0,2,,,,,,,,,1,,,70,0
324000,note_on,120,0,1,,,,,,,,,0,,,63,53
324000,note_on,0,0,4,,,,,,,,,3,,,54,53
324000,note_off,240,0,4,,,,,,,,,3,,,51,0
324120,note_on,162,0,2,,,,,,,,,1,,,70,53
324120,note_off,120,0,1,,,,,,,,,0,,,63,0
324198,note_off,78,0,2,,,,,,,,,1,,,70,0
324240,note_on,120,0,1,,,,,,,,,0,,,66,52
324240,note_off,240,0,4,,,,,,,,,3,,,54,0
324240,note_on,0,0,4,,,,,,,,,3,,,51,52
324360,note_off,120,0,1,,,,,,,,,0,,,66,0
324360,note_on,162,0,2,,,,,,,,,1,,,70,51
324438,note_off,78,0,2,,,,,,,,,1,,,70,0
324480,note_on,120,0,1,,,,,,,,,0,,,63,51
324480,note_on,0,0,4,,,,,,,,,3,,,54,51
324480,note_off,240,0,4,,,,,,,,,3,,,51,0
324600,note_off,120,0,1,,,,,,,,,0,,,63,0
324600,note_on,162,0,2,,,,,,,,,1,,,70,50
324678,note_off,78,0,2,,,,,,,,,1,,,70,0
324720,note_on,0,0,4,,,,,,,,,3,,,51,49
324720,note_on,120,0,1,,,,,,,,,0,,,66,49
324720,note_off,240,0,4,,,,,,,,,3,,,54,0
324840,note_off,120,0,1,,,,,,,,,0,,,66,0
324840,note_on,162,0,2,,,,,,,,,1,,,70,49
324918,note_off,78,0,2,,,,,,,,,1,,,70,0
324960,note_off,240,0,4,,,,,,,,,3,,,51,0
324960,note_on,0,0,4,,,,,,,,,3,,,53,48
324960,note_on,0,0,4,,,,,,,,,3,,,46,48
324960,note_on,120,0,1,,,,,,,,,0,,,68,48
325080,note_on,162,0,2,,,,,,,,,1,,,70,47
325080,note_off,120,0,1,,,,,,,,,0,,,68,0
325158,note_off,78,0,2,,,,,,,,,1,,,70,0
325200,note_on,0,0,4,,,,,,,,,3,,,50,47
325200,note_off,240,0,4,,,,,,,,,3,,,53,0
325200,note_on,120,0,1,,,,,,,,,0,,,65,47
325320,note_off,120,0,1,,,,,,,,,0,,,65,0
325320,set_tempo,1560,1,0,,,,,,379746,,,,,,,
325320,note_on,162,0,2,,,,,,,,,1,,,70,46
325398,note_off,78,0,2,,,,,,,,,1,,,70,0
325440,control_change,240,0,4,,,,,,,64,127,3,,,,
325440,note_off,0,0,4,,,,,,,,,3,,,46,0
325440,note_off,0,0,4,,,,,,,,,3,,,50,0
325440,control_change,42,0,2,,,,,,,64,127,1,,,,
325440,control_change,120,0,1,,,,,,,64,127,0,,,,
325440,note_on,1920,0,5,,,,,,,,,4,,,39,89
325540,set_tempo,220,1,0,,,,,,377358,,,,,,,
325680,note_on,240,0,4,,,,,,,,,3,,,55,87
325680,note_on,240,0,1,,,,,,,,,0,,,58,87
325800,note_on,360,0,2,,,,,,,,,1,,,63,86
325800,note_off,120,0,1,,,,,,,,,0,,,58,0
325836,note_off,156,0,4,,,,,,,,,3,,,55,0
325920,note_off,120,0,2,,,,,,,,,1,,,63,0
325920,note_on,120,0,1,,,,,,,,,0,,,63,85
325920,note_on,84,0,4,,,,,,,,,3,,,58,85
326040,note_on,120,0,2,,,,,,,,,1,,,67,84
326040,note_off,120,0,1,,,,,,,,,0,,,63,0
326076,note_off,156,0,4,,,,,,,,,3,,,58,0
326160,note_off,120,0,2,,,,,,,,,1,,,67,0
326160,note_on,120,0,1,,,,,,,,,0,,,67,84
326160,note_on,84,0,4,,,,,,,,,3,,,63,84
326280,note_on,120,0,2,,,,,,,,,1,,,70,83
326280,note_off,120,0,1,,,,,,,,,0,,,67,0
326316,note_off,156,0,4,,,,,,,,,3,,,63,0
326400,note_on,84,0,4,,,,,,,,,3,,,67,82
326400,note_off,120,0,2,,,,,,,,,1,,,70,0
326400,note_on,120,0,1,,,,,,,,,0,,,70,82
326520,note_off,120,0,1,,,,,,,,,0,,,70,0
326520,note_on,120,0,2,,,,,,,,,1,,,75,81
326556,note_off,156,0,4,,,,,,,,,3,,,67,0
326640,note_off,120,0,2,,,,,,,,,1,,,75,0
326640,note_on,84,0,4,,,,,,,,,3,,,70,80
326640,note_on,120,0,1,,,,,,,,,0,,,75,80
326760,note_off,120,0,1,,,,,,,,,0,,,75,0
326760,note_on,120,0,2,,,,,,,,,1,,,79,79
326796,note_off,156,0,4,,,,,,,,,3,,,70,0
326880,note_on,120,0,1,,,,,,,,,0,,,79,78
326880,note_on,84,0,4,,,,,,,,,3,,,75,78
326880,note_off,120,0,2,,,,,,,,,1,,,79,0
327000,note_off,120,0,1,,,,,,,,,0,,,79,0
327000,note_on,120,0,2,,,,,,,,,1,,,82,77
327036,note_off,156,0,4,,,,,,,,,3,,,75,0
327120,note_off,120,0,2,,,,,,,,,1,,,82,0
327120,note_on,120,0,1,,,,,,,,,0,,,82,76
327120,note_on,84,0,4,,,,,,,,,3,,,79,76
327240,note_off,120,0,1,,,,,,,,,0,,,82,0
327240,set_tempo,1700,1,0,,,,,,379746,,,,,,,
327240,note_on,120,0,2,,,,,,,,,1,,,87,75
327276,note_off,156,0,4,,,,,,,,,3,,,79,0
327360,note_on,84,0,4,,,,,,,,,3,,,82,74
327360,set_tempo,120,1,0,,,,,,394736,,,,,,,
327360,note_off,120,0,2,,,,,,,,,1,,,87,0
327360,note_off,1920,0,5,,,,,,,,,4,,,39,0
327360,note_on,120,0,1,,,,,,,,,0,,,91,74
327360,end_of_track,0,1,5,,,,,,,,,,,,,
327516,note_off,156,0,4,,,,,,,,,3,,,82,0
327600,control_change,240,0,1,,,,,,,64,0,0,,,,
327600,note_on,0,0,1,,,,,,,,,0,,,66,51
327600,note_off,0,0,1,,,,,,,,,0,,,91,0
327600,control_change,240,0,2,,,,,,,64,0,1,,,,
327600,set_tempo,240,1,0,,,,,,377358,,,,,,,
327600,control_change,84,0,4,,,,,,,64,0,3,,,,
327600,note_on,0,0,4,,,,,,,,,3,,,51,51
327720,note_off,120,0,1,,,,,,,,,0,,,66,0
327720,note_on,120,0,2,,,,,,,,,1,,,70,50
327840,note_off,120,0,2,,,,,,,,,1,,,70,0
327840,note_on,120,0,1,,,,,,,,,0,,,63,50
327840,note_on,0,0,4,,,,,,,,,3,,,54,50
327840,note_off,240,0,4,,,,,,,,,3,,,51,0
327960,note_on,120,0,2,,,,,,,,,1,,,70,49
327960,note_off,120,0,1,,,,,,,,,0,,,63,0
328080,note_on,120,0,1,,,,,,,,,0,,,66,48
328080,note_off,240,0,4,,,,,,,,,3,,,54,0
328080,note_on,0,0,4,,,,,,,,,3,,,51,48
328080,note_off,120,0,2,,,,,,,,,1,,,70,0
328200,note_off,120,0,1,,,,,,,,,0,,,66,0
328200,note_on,120,0,2,,,,,,,,,1,,,70,48
328320,note_on,120,0,1,,,,,,,,,0,,,63,47
328320,note_on,0,0,4,,,,,,,,,3,,,54,47
328320,note_off,240,0,4,,,,,,,,,3,,,51,0
328320,note_off,120,0,2,,,,,,,,,1,,,70,0
328440,note_on,120,0,2,,,,,,,,,1,,,70,47
328440,note_off,120,0,1,,,,,,,,,0,,,63,0
328560,note_off,120,0,2,,,,,,,,,1,,,70,0
328560,note_on,0,0,4,,,,,,,,,3,,,51,46
328560,note_off,240,0,4,,,,,,,,,3,,,54,0
328560,note_on,120,0,1,,,,,,,,,0,,,66,46
328680,note_on,120,0,2,,,,,,,,,1,,,70,45
328680,note_off,120,0,1,,,,,,,,,0,,,66,0
328800,note_on,0,0,4,,,,,,,,,3,,,53,45
328800,note_on,120,0,1,,,,,,,,,0,,,68,45
328800,note_off,120,0,2,,,,,,,,,1,,,70,0
328800,note_off,240,0,4,,,,,,,,,3,,,51,0
328800,note_on,0,0,4,,,,,,,,,3,,,46,45
328920,note_off,120,0,1,,,,,,,,,0,,,68,0
328920,note_on,120,0,2,,,,,,,,,1,,,70,44
329040,note_off,240,0,4,,,,,,,,,3,,,53,0
329040,note_off,120,0,2,,,,,,,,,1,,,70,0
329040,note_on,0,0,4,,,,,,,,,3,,,50,44
329040,note_on,120,0,1,,,,,,,,,0,,,65,44
329160,note_on,120,0,2,,,,,,,,,1,,,70,43
329160,set_tempo,1560,1,0,,,,,,379746,,,,,,,
329160,note_off,120,0,1,,,,,,,,,0,,,65,0
329280,note_off,240,0,4,,,,,,,,,3,,,50,0
329280,note_off,120,0,2,,,,,,,,,1,,,70,0
329280,note_off,0,0,4,,,,,,,,,3,,,46,0
329280,note_on,0,0,4,,,,,,,,,3,,,51,44
329280,note_on,120,0,1,,,,,,,,,0,,,63,44
329400,set_tempo,240,1,0,,,,,,377358,,,,,,,
329400,note_off,120,0,1,,,,,,,,,0,,,63,0
329400,note_on,120,0,2,,,,,,,,,1,,,66,45
329472,note_off,192,0,4,,,,,,,,,3,,,51,0
329478,note_off,78,0,2,,,,,,,,,1,,,66,0
329520,note_on,48,0,4,,,,,,,,,3,,,51,47
329520,note_on,120,0,1,,,,,,,,,0,,,66,47
329640,note_on,162,0,2,,,,,,,,,1,,,75,48
329640,note_off,120,0,1,,,,,,,,,0,,,66,0
329718,note_off,78,0,2,,,,,,,,,1,,,75,0
329760,note_on,0,0,4,,,,,,,,,3,,,58,50
329760,note_on,120,0,1,,,,,,,,,0,,,65,50
329760,note_off,240,0,4,,,,,,,,,3,,,51,0
329880,note_on,162,0,2,,,,,,,,,1,,,74,51
329880,note_off,120,0,1,,,,,,,,,0,,,65,0
329958,note_off,78,0,2,,,,,,,,,1,,,74,0
330000,note_on,120,0,1,,,,,,,,,0,,,74,53
330000,note_on,0,0,4,,,,,,,,,3,,,46,53
330000,note_off,240,0,4,,,,,,,,,3,,,58,0
330120,note_off,120,0,1,,,,,,,,,0,,,74,0
330120,note_on,162,0,2,,,,,,,,,1,,,77,54
330198,note_off,78,0,2,,,,,,,,,1,,,77,0
330240,note_on,120,0,1,,,,,,,,,0,,,66,56
330240,note_off,240,0,4,,,,,,,,,3,,,46,0
330240,note_on,0,0,4,,,,,,,,,3,,,51,56
330360,note_off,120,0,1,,,,,,,,,0,,,66,0
330360,note_on,162,0,2,,,,,,,,,1,,,75,57
330438,note_off,78,0,2,,,,,,,,,1,,,75,0
330480,note_on,120,0,1,,,,,,,,,0,,,75,59
330480,note_off,240,0,4,,,,,,,,,3,,,51,0
330480,note_on,0,0,4,,,,,,,,,3,,,39,59
330600,note_on,162,0,2,,,,,,,,,1,,,78,60
330600,note_off,120,0,1,,,,,,,,,0,,,75,0
330678,note_off,78,0,2,,,,,,,,,1,,,78,0
330720,note_on,120,0,1,,,,,,,,,0,,,74,62
330720,note_off,240,0,4,,,,,,,,,3,,,39,0
330720,note_on,0,0,4,,,,,,,,,3,,,46,62
330840,note_on,162,0,2,,,,,,,,,1,,,77,63
330840,note_off,120,0,1,,,,,,,,,0,,,74,0
330918,note_off,78,0,2,,,,,,,,,1,,,77,0
330960,note_on,120,0,1,,,,,,,,,0,,,77,65
330960,note_on,0,0,4,,,,,,,,,3,,,34,65
330960,note_off,240,0,4,,,,,,,,,3,,,46,0
331080,note_on,162,0,2,,,,,,,,,1,,,80,66
331080,note_off,120,0,1,,,,,,,,,0,,,77,0
331158,note_off,78,0,2,,,,,,,,,1,,,80,0
331200,note_on,0,0,4,,,,,,,,,3,,,39,68
331200,note_off,240,0,4,,,,,,,,,3,,,34,0
331200,note_on,120,0,1,,,,,,,,,0,,,66,68
331320,note_on,162,0,2,,,,,,,,,1,,,75,69
331320,note_off,120,0,1,,,,,,,,,0,,,66,0
331356,note_off,156,0,4,,,,,,,,,3,,,39,0
331398,note_off,78,0,2,,,,,,,,,1,,,75,0
331440,note_on,84,0,4,,,,,,,,,3,,,51,71
331440,note_on,120,0,1,,,,,,,,,0,,,75,71
331560,note_off,120,0,1,,,,,,,,,0,,,75,0
331560,note_on,162,0,2,,,,,,,,,1,,,78,72
331638,note_off,78,0,2,,,,,,,,,1,,,78,0
331680,note_on,120,0,1,,,,,,,,,0,,,74,74
331680,note_on,0,0,4,,,,,,,,,3,,,58,74
331680,note_off,240,0,4,,,,,,,,,3,,,51,0
331800,note_on,162,0,2,,,,,,,,,1,,,77,75
331800,note_off,120,0,1,,,,,,,,,0,,,74,0
331878,note_off,78,0,2,,,,,,,,,1,,,77,0
331920,note_on,0,0,4,,,,,,,,,3,,,46,76
331920,note_on,120,0,1,,,,,,,,,0,,,77,76
331920,note_off,240,0,4,,,,,,,,,3,,,58,0
332040,note_off,120,0,1,,,,,,,,,0,,,77,0
332040,note_on,162,0,2,,,,,,,,,1,,,80,78
332118,note_off,78,0,2,,,,,,,,,1,,,80,0
332160,note_on,120,0,1,,,,,,,,,0,,,75,79
332160,note_off,240,0,4,,,,,,,,,3,,,46,0
332160,note_on,0,0,4,,,,,,,,,3,,,51,79
332280,note_on,162,0,2,,,,,,,,,1,,,78,81
332280,note_off,120,0,1,,,,,,,,,0,,,75,0
332358,note_off,78,0,2,,,,,,,,,1,,,78,0
332400,note_on,120,0,1,,,,,,,,,0,,,78,82
332400,note_on,0,0,4,,,,,,,,,3,,,39,82
332400,note_off,240,0,4,,,,,,,,,3,,,51,0
332520,note_on,162,0,2,,,,,,,,,1,,,87,84
332520,note_off,120,0,1,,,,,,,,,0,,,78,0
332598,note_off,78,0,2,,,,,,,,,1,,,87,0
332640,note_off,240,0,4,,,,,,,,,3,,,39,0
332640,note_on,0,0,4,,,,,,,,,3,,,46,85
332640,note_on,120,0,1,,,,,,,,,0,,,77,85
332760,note_off,120,0,1,,,,,,,,,0,,,77,0
332760,note_on,162,0,2,,,,,,,,,1,,,86,87
332838,note_off,78,0,2,,,,,,,,,1,,,86,0
332880,note_on,0,0,4,,,,,,,,,3,,,34,88
332880,note_on,120,0,1,,,,,,,,,0,,,80,88
332880,note_off,240,0,4,,,,,,,,,3,,,46,0
333000,note_on,162,0,2,,,,,,,,,1,,,89,90
333000,set_tempo,3600,1,0,,,,,,379746,,,,,,,
333000,note_off,120,0,1,,,,,,,,,0,,,80,0
333078,note_off,78,0,2,,,,,,,,,1,,,89,0
333120,note_on,120,0,1,,,,,,,,,0,,,63,60
333120,note_off,240,0,4,,,,,,,,,3,,,34,0
333120,note_on,0,0,4,,,,,,,,,3,,,39,60
333240,set_tempo,240,1,0,,,,,,377358,,,,,,,
333240,note_on,162,0,2,,,,,,,,,1,,,66,61
333240,note_off,120,0,1,,,,,,,,,0,,,63,0
333276,note_off,156,0,4,,,,,,,,,3,,,39,0
333318,note_off,78,0,2,,,,,,,,,1,,,66,0
333360,note_on,120,0,1,,,,,,,,,0,,,66,63
333360,note_on,84,0,4,,,,,,,,,3,,,51,63
333480,note_on,162,0,2,,,,,,,,,1,,,75,64
333480,note_off,120,0,1,,,,,,,,,0,,,66,0
333558,note_off,78,0,2,,,,,,,,,1,,,75,0
333600,note_on,120,0,1,,,,,,,,,0,,,65,65
333600,note_on,0,0,4,,,,,,,,,3,,,58,65
333600,note_off,240,0,4,,,,,,,,,3,,,51,0
333720,note_off,120,0,1,,,,,,,,,0,,,65,0
333720,note_on,162,0,2,,,,,,,,,1,,,74,66
333798,note_off,78,0,2,,,,,,,,,1,,,74,0
333840,note_on,120,0,1,,,,,,,,,0,,,74,68
333840,note_off,240,0,4,,,,,,,,,3,,,58,0
333840,note_on,0,0,4,,,,,,,,,3,,,46,68
333960,note_off,120,0,1,,,,,,,,,0,,,74,0
333960,note_on,162,0,2,,,,,,,,,1,,,77,69
334038,note_off,78,0,2,,,,,,,,,1,,,77,0
334080,note_on,0,0,4,,,,,,,,,3,,,51,70
334080,note_off,240,0,4,,,,,,,,,3,,,46,0
334080,note_on,120,0,1,,,,,,,,,0,,,66,70
334200,note_on,162,0,2,,,,,,,,,1,,,75,71
334200,note_off,120,0,1,,,,,,,,,0,,,66,0
334278,note_off,78,0,2,,,,,,,,,1,,,75,0
334320,note_off,240,0,4,,,,,,,,,3,,,51,0
334320,note_on,0,0,4,,,,,,,,,3,,,39,73
334320,note_on,120,0,1,,,,,,,,,0,,,75,73
334440,note_off,120,0,1,,,,,,,,,0,,,75,0
334440,note_on,162,0,2,,,,,,,,,1,,,78,74
334518,note_off,78,0,2,,,,,,,,,1,,,78,0
334560,note_on,0,0,4,,,,,,,,,3,,,46,75
334560,note_off,240,0,4,,,,,,,,,3,,,39,0
334560,note_on,120,0,1,,,,,,,,,0,,,74,75
334680,note_off,120,0,1,,,,,,,,,0,,,74,0
334680,note_on,162,0,2,,,,,,,,,1,,,77,76
334758,note_off,78,0,2,,,,,,,,,1,,,77,0
334800,note_on,0,0,4,,,,,,,,,3,,,34,78
334800,note_off,240,0,4,,,,,,,,,3,,,46,0
334800,note_on,120,0,1,,,,,,,,,0,,,77,78
334920,note_off,120,0,1,,,,,,,,,0,,,77,0
334920,note_on,162,0,2,,,,,,,,,1,,,80,79
334998,note_off,78,0,2,,,,,,,,,1,,,80,0
335040,note_on,120,0,1,,,,,,,,,0,,,66,80
335040,note_on,0,0,4,,,,,,,,,3,,,39,80
335040,note_off,240,0,4,,,,,,,,,3,,,34,0
335160,note_on,162,0,2,,,,,,,,,1,,,75,81
335160,note_off,120,0,1,,,,,,,,,0,,,66,0
335196,note_off,156,0,4,,,,,,,,,3,,,39,0
335238,note_off,78,0,2,,,,,,,,,1,,,75,0
335280,note_on,120,0,1,,,,,,,,,0,,,75,83
335280,note_on,84,0,4,,,,,,,,,3,,,51,83
335400,note_on,162,0,2,,,,,,,,,1,,,78,84
335400,note_off,120,0,1,,,,,,,,,0,,,75,0
335478,note_off,78,0,2,,,,,,,,,1,,,78,0
335520,note_off,240,0,4,,,,,,,,,3,,,51,0
335520,note_on,0,0,4,,,,,,,,,3,,,58,85
335520,note_on,120,0,1,,,,,,,,,0,,,74,85
335640,note_off,120,0,1,,,,,,,,,0,,,74,0
335640,note_on,162,0,2,,,,,,,,,1,,,77,87
335718,note_off,78,0,2,,,,,,,,,1,,,77,0
335760,note_on,120,0,1,,,,,,,,,0,,,77,88
335760,note_off,240,0,4,,,,,,,,,3,,,58,0
335760,note_on,0,0,4,,,,,,,,,3,,,46,88
335880,note_off,120,0,1,,,,,,,,,0,,,77,0
335880,note_on,162,0,2,,,,,,,,,1,,,80,89
335958,note_off,78,0,2,,,,,,,,,1,,,80,0
336000,note_on,0,0,4,,,,,,,,,3,,,51,90
336000,note_on,120,0,1,,,,,,,,,0,,,75,90
336000,note_off,240,0,4,,,,,,,,,3,,,46,0
336120,note_off,120,0,1,,,,,,,,,0,,,75,0
336120,note_on,162,0,2,,,,,,,,,1,,,78,92
336198,note_off,78,0,2,,,,,,,,,1,,,78,0
336240,note_on,120,0,1,,,,,,,,,0,,,78,93
336240,note_off,240,0,4,,,,,,,,,3,,,51,0
336240,note_on,0,0,4,,,,,,,,,3,,,39,93
336360,note_on,162,0,2,,,,,,,,,1,,,87,94
336360,note_off,120,0,1,,,,,,,,,0,,,78,0
336438,note_off,78,0,2,,,,,,,,,1,,,87,0
336480,note_on,0,0,4,,,,,,,,,3,,,49,95
336480,note_on,120,0,1,,,,,,,,,0,,,76,95
336480,note_off,240,0,4,,,,,,,,,3,,,39,0
336600,note_off,120,0,1,,,,,,,,,0,,,76,0
336600,note_on,162,0,2,,,,,,,,,1,,,78,97
336678,note_off,78,0,2,,,,,,,,,1,,,78,0
336720,note_on,0,0,4,,,,,,,,,3,,,37,98
336720,note_off,240,0,4,,,,,,,,,3,,,49,0
336720,note_on,120,0,1,,,,,,,,,0,,,78,98
336840,note_off,120,0,1,,,,,,,,,0,,,78,0
336840,note_on,162,0,2,,,,,,,,,1,,,88,99
336840,set_tempo,3600,1,0,,,,,,379746,,,,,,,
336918,note_off,78,0,2,,,,,,,,,1,,,88,0
336960,note_off,240,0,4,,,,,,,,,3,,,37,0
336960,note_on,120,0,1,,,,,,,,,0,,,75,100
336960,note_on,0,0,4,,,,,,,,,3,,,47,100
337080,note_off,120,0,1,,,,,,,,,0,,,75,0
337080,note_on,162,0,2,,,,,,,,,1,,,78,102
337158,note_off,78,0,2,,,,,,,,,1,,,78,0
337200,note_on,120,0,1,,,,,,,,,0,,,83,103
337200,note_off,240,0,4,,,,,,,,,3,,,47,0
337200,note_on,0,0,4,,,,,,,,,3,,,35,103
337320,note_on,162,0,2,,,,,,,,,1,,,87,104
337320,note_off,120,0,1,,,,,,,,,0,,,83,0
337398,note_off,78,0,2,,,,,,,,,1,,,87,0
337440,note_on,120,0,1,,,,,,,,,0,,,83,105
337440,note_on,0,0,4,,,,,,,,,3,,,47,105
337440,note_off,240,0,4,,,,,,,,,3,,,35,0
337560,note_on,162,0,2,,,,,,,,,1,,,87,107
337560,note_off,120,0,1,,,,,,,,,0,,,83,0
337560,set_tempo,720,1,0,,,,,,384615,,,,,,,
337638,note_off,78,0,2,,,,,,,,,1,,,87,0
337680,note_off,240,0,4,,,,,,,,,3,,,47,0
337680,note_on,0,0,4,,,,,,,,,3,,,35,108
337680,set_tempo,120,1,0,,,,,,394736,,,,,,,
337680,note_on,120,0,1,,,,,,,,,0,,,83,108
337800,set_tempo,120,1,0,,,,,,428571,,,,,,,
337800,note_off,120,0,1,,,,,,,,,0,,,83,0
337800,note_on,162,0,2,,,,,,,,,1,,,87,109
337878,note_off,78,0,2,,,,,,,,,1,,,87,0
337920,control_change,120,0,1,,,,,,,64,127,0,,,,
337920,note_on,0,0,1,,,,,,,,,0,,,77,111
337920,note_on,0,0,4,,,,,,,,,3,,,43,111
337920,note_on,0,0,4,,,,,,,,,3,,,31,111
337920,note_off,240,0,4,,,,,,,,,3,,,35,0
337920,set_tempo,120,1,0,,,,,,461538,,,,,,,
337920,control_change,0,0,1,,,,,,,64,127,0,,,,
337920,note_on,42,0,2,,,,,,,,,1,,,83,111
337920,note_on,0,0,2,,,,,,,,,1,,,89,111
337920,note_on,0,0,2,,,,,,,,,1,,,86,111
338280,note_off,0,0,4,,,,,,,,,3,,,31,0
338280,note_off,360,0,4,,,,,,,,,3,,,43,0
338280,note_off,0,0,2,,,,,,,,,1,,,89,0
338280,note_off,0,0,2,,,,,,,,,1,,,83,0
338280,note_off,360,0,1,,,,,,,,,0,,,77,0
338280,note_off,360,0,2,,,,,,,,,1,,,86,0
338640,control_change,360,0,1,,,,,,,64,0,0,,,,
338640,control_change,0,0,1,,,,,,,64,0,0,,,,
338640,note_on,0,0,1,,,,,,,,,0,,,58,98
338650,set_tempo,730,1,0,,,,,,379746,,,,,,,
338760,note_on,480,0,2,,,,,,,,,1,,,59,95
338760,set_tempo,110,1,0,,,,,,377358,,,,,,,
338760,note_off,120,0,1,,,,,,,,,0,,,58,0
338838,note_off,78,0,2,,,,,,,,,1,,,59,0
338880,note_on,120,0,1,,,,,,,,,0,,,58,91
339000,note_off,120,0,1,,,,,,,,,0,,,58,0
339000,note_on,162,0,2,,,,,,,,,1,,,59,87
339078,note_off,78,0,2,,,,,,,,,1,,,59,0
339120,note_on,120,0,1,,,,,,,,,0,,,58,87
339240,note_on,162,0,2,,,,,,,,,1,,,59,86
339240,note_off,120,0,1,,,,,,,,,0,,,58,0
339318,note_off,78,0,2,,,,,,,,,1,,,59,0
339360,note_on,120,0,1,,,,,,,,,0,,,61,86
339480,note_on,162,0,2,,,,,,,,,1,,,62,85
339480,note_off,120,0,1,,,,,,,,,0,,,61,0
339558,note_off,78,0,2,,,,,,,,,1,,,62,0
339600,note_on,120,0,1,,,,,,,,,0,,,61,85
339720,note_on,162,0,2,,,,,,,,,1,,,62,84
339720,note_off,120,0,1,,,,,,,,,0,,,61,0
339798,note_off,78,0,2,,,,,,,,,1,,,62,0
339840,note_on,120,0,1,,,,,,,,,0,,,64,84
339960,note_on,162,0,2,,,,,,,,,1,,,65,83
339960,note_off,120,0,1,,,,,,,,,0,,,64,0
340038,note_off,78,0,2,,,,,,,,,1,,,65,0
340080,note_on,120,0,1,,,,,,,,,0,,,64,83
340200,note_off,120,0,1,,,,,,,,,0,,,64,0
340200,note_on,162,0,2,,,,,,,,,1,,,65,82
340278,note_off,78,0,2,,,,,,,,,1,,,65,0
340320,note_on,120,0,1,,,,,,,,,0,,,70,82
340440,note_off,120,0,1,,,,,,,,,0,,,70,0
340440,note_on,162,0,2,,,,,,,,,1,,,71,81
340518,note_off,78,0,2,,,,,,,,,1,,,71,0
340560,note_on,120,0,1,,,,,,,,,0,,,70,81
340680,note_off,120,0,1,,,,,,,,,0,,,70,0
340680,note_on,162,0,2,,,,,,,,,1,,,71,80
340758,note_off,78,0,2,,,,,,,,,1,,,71,0
340800,note_on,120,0,1,,,,,,,,,0,,,73,80
340920,note_on,162,0,2,,,,,,,,,1,,,74,79
340920,note_off,120,0,1,,,,,,,,,0,,,73,0
340998,note_off,78,0,2,,,,,,,,,1,,,74,0
341040,note_on,120,0,1,,,,,,,,,0,,,73,78
341160,note_on,162,0,2,,,,,,,,,1,,,74,78
341160,note_off,120,0,1,,,,,,,,,0,,,73,0
341238,note_off,78,0,2,,,,,,,,,1,,,74,0
341280,note_on,120,0,1,,,,,,,,,0,,,76,77
341400,note_on,162,0,2,,,,,,,,,1,,,77,77
341400,note_off,120,0,1,,,,,,,,,0,,,76,0
341478,note_off,78,0,2,,,,,,,,,1,,,77,0
341520,note_on,120,0,1,,,,,,,,,0,,,76,76
341640,note_off,120,0,1,,,,,,,,,0,,,76,0
341640,note_on,162,0,2,,,,,,,,,1,,,77,76
341718,note_off,78,0,2,,,,,,,,,1,,,77,0
341760,note_on,120,0,1,,,,,,,,,0,,,82,75
341880,note_off,120,0,1,,,,,,,,,0,,,82,0
341880,note_on,162,0,2,,,,,,,,,1,,,83,75
341958,note_off,78,0,2,,,,,,,,,1,,,83,0
342000,note_on,120,0,1,,,,,,,,,0,,,82,74
342120,note_off,120,0,1,,,,,,,,,0,,,82,0
342120,note_on,162,0,2,,,,,,,,,1,,,83,74
342198,note_off,78,0,2,,,,,,,,,1,,,83,0
342240,note_on,120,0,1,,,,,,,,,0,,,85,73
342360,note_off,120,0,1,,,,,,,,,0,,,85,0
342360,note_on,162,0,2,,,,,,,,,1,,,86,73
342438,note_off,78,0,2,,,,,,,,,1,,,86,0
342480,note_on,120,0,1,,,,,,,,,0,,,85,72
342600,note_off,120,0,1,,,,,,,,,0,,,85,0
342600,note_on,162,0,2,,,,,,,,,1,,,86,72
342678,note_off,78,0,2,,,,,,,,,1,,,86,0
342720,note_on,120,0,1,,,,,,,,,0,,,85,71
342840,note_off,120,0,1,,,,,,,,,0,,,85,0
342840,note_on,162,0,2,,,,,,,,,1,,,86,71
342918,note_off,78,0,2,,,,,,,,,1,,,86,0
342960,note_on,120,0,1,,,,,,,,,0,,,88,70
343080,note_off,120,0,1,,,,,,,,,0,,,88,0
343080,note_on,162,0,2,,,,,,,,,1,,,89,70
343158,note_off,78,0,2,,,,,,,,,1,,,89,0
343200,note_on,120,0,1,,,,,,,,,0,,,82,69
343320,note_off,120,0,1,,,,,,,,,0,,,82,0
343320,note_on,162,0,2,,,,,,,,,1,,,83,68
343398,note_off,78,0,2,,,,,,,,,1,,,83,0
343440,note_on,120,0,1,,,,,,,,,0,,,86,68
343560,note_on,162,0,2,,,,,,,,,1,,,89,67
343560,note_off,120,0,1,,,,,,,,,0,,,86,0
343638,note_off,78,0,2,,,,,,,,,1,,,89,0
343680,note_on,120,0,1,,,,,,,,,0,,,85,67
343800,note_off,120,0,1,,,,,,,,,0,,,85,0
343800,note_on,162,0,2,,,,,,,,,1,,,86,66
343878,note_off,78,0,2,,,,,,,,,1,,,86,0
343920,note_on,120,0,1,,,,,,,,,0,,,88,66
344040,note_off,120,0,1,,,,,,,,,0,,,88,0
344040,note_on,162,0,2,,,,,,,,,1,,,89,65
344118,note_off,78,0,2,,,,,,,,,1,,,89,0
344160,note_on,120,0,1,,,,,,,,,0,,,82,65
344280,note_on,162,0,2,,,,,,,,,1,,,83,64
344280,note_off,120,0,1,,,,,,,,,0,,,82,0
344358,note_off,78,0,2,,,,,,,,,1,,,83,0
344400,note_on,120,0,1,,,,,,,,,0,,,86,64
344520,note_off,120,0,1,,,,,,,,,0,,,86,0
344520,note_on,162,0,2,,,,,,,,,1,,,89,63
344598,note_off,78,0,2,,,,,,,,,1,,,89,0
344640,note_on,120,0,1,,,,,,,,,0,,,85,63
344760,note_off,120,0,1,,,,,,,,,0,,,85,0
344760,note_on,162,0,2,,,,,,,,,1,,,86,62
344838,note_off,78,0,2,,,,,,,,,1,,,86,0
344880,note_on,120,0,1,,,,,,,,,0,,,88,62
345000,note_off,120,0,1,,,,,,,,,0,,,88,0
345000,note_on,162,0,2,,,,,,,,,1,,,89,61
345078,note_off,78,0,2,,,,,,,,,1,,,89,0
345120,note_on,120,0,1,,,,,,,,,0,,,82,61
345240,note_off,120,0,1,,,,,,,,,0,,,82,0
345240,note_on,162,0,2,,,,,,,,,1,,,83,60
345318,note_off,78,0,2,,,,,,,,,1,,,83,0
345360,note_on,120,0,1,,,,,,,,,0,,,86,60
345480,note_on,162,0,2,,,,,,,,,1,,,89,59
345480,note_off,120,0,1,,,,,,,,,0,,,86,0
345558,note_off,78,0,2,,,,,,,,,1,,,89,0
345600,note_on,120,0,1,,,,,,,,,0,,,78,58
345720,note_off,120,0,1,,,,,,,,,0,,,78,0
345720,note_on,162,0,2,,,,,,,,,1,,,79,58
345798,note_off,78,0,2,,,,,,,,,1,,,79,0
345840,note_on,120,0,1,,,,,,,,,0,,,86,57
345960,note_off,120,0,1,,,,,,,,,0,,,86,0
345960,note_on,162,0,2,,,,,,,,,1,,,89,57
346038,note_off,78,0,2,,,,,,,,,1,,,89,0
346080,note_on,120,0,1,,,,,,,,,0,,,76,56
346200,note_on,162,0,2,,,,,,,,,1,,,77,56
346200,note_off,120,0,1,,,,,,,,,0,,,76,0
346278,note_off,78,0,2,,,,,,,,,1,,,77,0
346320,note_on,120,0,1,,,,,,,,,0,,,76,55
346440,note_off,120,0,1,,,,,,,,,0,,,76,0
346440,note_on,162,0,2,,,,,,,,,1,,,77,55
346518,note_off,78,0,2,,,,,,,,,1,,,77,0
346560,note_on,120,0,1,,,,,,,,,0,,,73,54
346680,note_on,162,0,2,,,,,,,,,1,,,74,54
346680,note_off,120,0,1,,,,,,,,,0,,,73,0
346758,note_off,78,0,2,,,,,,,,,1,,,74,0
346800,note_on,120,0,1,,,,,,,,,0,,,76,53
346920,note_off,120,0,1,,,,,,,,,0,,,76,0
346920,note_on,162,0,2,,,,,,,,,1,,,77,53
346998,note_off,78,0,2,,,,,,,,,1,,,77,0
347040,note_on,120,0,1,,,,,,,,,0,,,70,52
347160,note_off,120,0,1,,,,,,,,,0,,,70,0
347160,note_on,162,0,2,,,,,,,,,1,,,71,52
347238,note_off,78,0,2,,,,,,,,,1,,,71,0
347280,note_on,120,0,1,,,,,,,,,0,,,74,51
347400,note_off,120,0,1,,,,,,,,,0,,,74,0
347400,note_on,162,0,2,,,,,,,,,1,,,77,51
347478,note_off,78,0,2,,,,,,,,,1,,,77,0
347520,note_on,120,0,1,,,,,,,,,0,,,73,50
347640,note_on,162,0,2,,,,,,,,,1,,,74,50
347640,note_off,120,0,1,,,,,,,,,0,,,73,0
347718,note_off,78,0,2,,,,,,,,,1,,,74,0
347760,note_on,120,0,1,,,,,,,,,0,,,76,49
347880,note_off,120,0,1,,,,,,,,,0,,,76,0
347880,note_on,162,0,2,,,,,,,,,1,,,77,49
347958,note_off,78,0,2,,,,,,,,,1,,,77,0
348000,note_on,120,0,1,,,,,,,,,0,,,70,48
348120,note_on,162,0,2,,,,,,,,,1,,,71,47
348120,note_off,120,0,1,,,,,,,,,0,,,70,0
348198,note_off,78,0,2,,,,,,,,,1,,,71,0
348240,note_on,120,0,1,,,,,,,,,0,,,74,47
348360,note_on,162,0,2,,,,,,,,,1,,,77,46
348360,note_off,120,0,1,,,,,,,,,0,,,74,0
348438,note_off,78,0,2,,,,,,,,,1,,,77,0
348480,note_on,120,0,1,,,,,,,,,0,,,73,46
348600,note_off,120,0,1,,,,,,,,,0,,,73,0
348600,note_on,162,0,2,,,,,,,,,1,,,74,45
348678,note_off,78,0,2,,,,,,,,,1,,,74,0
348720,note_on,120,0,1,,,,,,,,,0,,,76,45
348840,note_on,162,0,2,,,,,,,,,1,,,77,44
348840,note_off,120,0,1,,,,,,,,,0,,,76,0
348918,note_off,78,0,2,,,,,,,,,1,,,77,0
348960,note_on,120,0,1,,,,,,,,,0,,,82,44
349080,note_off,120,0,1,,,,,,,,,0,,,82,0
349080,note_on,162,0,2,,,,,,,,,1,,,83,43
349158,note_off,78,0,2,,,,,,,,,1,,,83,0
349200,note_on,120,0,1,,,,,,,,,0,,,74,43
349320,note_on,162,0,2,,,,,,,,,1,,,77,42
349320,note_off,120,0,1,,,,,,,,,0,,,74,0
349398,note_off,78,0,2,,,,,,,,,1,,,77,0
349440,note_on,120,0,1,,,,,,,,,0,,,85,42
349560,note_off,120,0,1,,,,,,,,,0,,,85,0
349560,note_on,162,0,2,,,,,,,,,1,,,86,41
349638,note_off,78,0,2,,,,,,,,,1,,,86,0
349680,note_on,120,0,1,,,,,,,,,0,,,74,41
349800,note_off,120,0,1,,,,,,,,,0,,,74,0
349800,note_on,162,0,2,,,,,,,,,1,,,77,40
349878,note_off,78,0,2,,,,,,,,,1,,,77,0
349920,note_on,120,0,1,,,,,,,,,0,,,82,40
350040,note_off,120,0,1,,,,,,,,,0,,,82,0
350040,note_on,162,0,2,,,,,,,,,1,,,83,39
350118,note_off,78,0,2,,,,,,,,,1,,,83,0
350160,note_on,120,0,1,,,,,,,,,0,,,74,39
350280,note_off,120,0,1,,,,,,,,,0,,,74,0
350280,note_on,162,0,2,,,,,,,,,1,,,77,38
350358,note_off,78,0,2,,,,,,,,,1,,,77,0
350400,note_on,120,0,1,,,,,,,,,0,,,73,37
350520,note_on,162,0,2,,,,,,,,,1,,,74,37
350520,note_off,120,0,1,,,,,,,,,0,,,73,0
350598,note_off,78,0,2,,,,,,,,,1,,,74,0
350640,note_on,120,0,1,,,,,,,,,0,,,85,36
350760,note_on,162,0,2,,,,,,,,,1,,,86,36
350760,note_off,120,0,1,,,,,,,,,0,,,85,0
350838,note_off,78,0,2,,,,,,,,,1,,,86,0
350880,note_on,120,0,1,,,,,,,,,0,,,70,35
351000,note_on,162,0,2,,,,,,,,,1,,,71,35
351000,note_off,120,0,1,,,,,,,,,0,,,70,0
351078,note_off,78,0,2,,,,,,,,,1,,,71,0
351120,note_on,120,0,1,,,,,,,,,0,,,82,34
351240,note_on,162,0,2,,,,,,,,,1,,,83,34
351240,note_off,120,0,1,,,,,,,,,0,,,82,0
351318,note_off,78,0,2,,,,,,,,,1,,,83,0
351360,note_on,120,0,1,,,,,,,,,0,,,73,33
351480,note_on,162,0,2,,,,,,,,,1,,,74,33
351480,note_off,120,0,1,,,,,,,,,0,,,73,0
351558,note_off,78,0,2,,,,,,,,,1,,,74,0
351600,note_on,120,0,1,,,,,,,,,0,,,85,32
351720,note_off,120,0,1,,,,,,,,,0,,,85,0
351720,note_on,162,0,2,,,,,,,,,1,,,86,32
351798,note_off,78,0,2,,,,,,,,,1,,,86,0
351840,note_on,120,0,1,,,,,,,,,0,,,70,31
351960,note_off,120,0,1,,,,,,,,,0,,,70,0
351960,set_tempo,13200,1,0,,,,,,379746,,,,,,,
351960,note_on,162,0,2,,,,,,,,,1,,,71,31
352038,note_off,78,0,2,,,,,,,,,1,,,71,0
352080,note_on,120,0,1,,,,,,,,,0,,,82,30
352080,set_tempo,120,1,0,,,,,,402684,,,,,,,
352200,set_tempo,120,1,0,,,,,,540540,,,,,,,
352200,note_off,120,0,1,,,,,,,,,0,,,82,0
352200,note_on,162,0,2,,,,,,,,,1,,,83,30
352278,note_off,78,0,2,,,,,,,,,1,,,83,0
352320,note_on,42,0,2,,,,,,,,,1,,,83,79
352320,note_on,14040,0,4,,,,,,,,,3,,,67,79
352320,note_on,120,0,1,,,,,,,,,0,,,89,79
352320,note_on,0,0,2,,,,,,,,,1,,,77,79
352320,note_on,47640,0,3,,,,,,,,,2,,,71,79
352320,set_tempo,120,1,0,,,,,,377358,,,,,,,
353040,note_on,0,0,4,,,,,,,,,3,,,66,75
353040,note_off,720,0,4,,,,,,,,,3,,,67,0
353040,note_off,720,0,2,,,,,,,,,1,,,77,0
353040,note_off,0,0,2,,,,,,,,,1,,,83,0
353040,note_on,0,0,1,,,,,,,,,0,,,90,75
353040,note_off,720,0,3,,,,,,,,,2,,,71,0
353040,note_on,0,0,3,,,,,,,,,2,,,70,75
353040,note_on,0,0,2,,,,,,,,,1,,,73,75
353040,note_on,0,0,2,,,,,,,,,1,,,82,75
353040,note_on,0,0,2,,,,,,,,,1,,,78,75
353040,note_off,720,0,1,,,,,,,,,0,,,89,0
353060,set_tempo,740,1,0,,,,,,379746,,,,,,,
353196,note_off,156,0,2,,,,,,,,,1,,,78,0
353196,note_off,0,0,2,,,,,,,,,1,,,73,0
353196,note_off,0,0,2,,,,,,,,,1,,,82,0
353196,note_off,156,0,3,,,,,,,,,2,,,70,0
353196,note_off,156,0,4,,,,,,,,,3,,,66,0
353196,note_off,156,0,1,,,,,,,,,0,,,90,0
353280,note_on,0,0,2,,,,,,,,,1,,,82,72
353280,set_tempo,220,1,0,,,,,,384615,,,,,,,
353280,note_on,84,0,3,,,,,,,,,2,,,70,72
353280,note_on,84,0,4,,,,,,,,,3,,,66,72
353280,note_on,0,0,2,,,,,,,,,1,,,78,72
353280,note_on,84,0,2,,,,,,,,,1,,,73,72
353280,note_on,84,0,1,,,,,,,,,0,,,85,72
353559,note_off,279,0,1,,,,,,,,,0,,,85,0
353559,note_off,279,0,2,,,,,,,,,1,,,78,0
353559,note_off,0,0,2,,,,,,,,,1,,,82,0
353559,note_off,0,0,2,,,,,,,,,1,,,73,0
353559,note_off,279,0,4,,,,,,,,,3,,,66,0
353559,note_off,279,0,3,,,,,,,,,2,,,70,0
354000,note_on,441,0,1,,,,,,,,,0,,,63,47
354000,note_on,441,0,4,,,,,,,,,3,,,35,47
354000,note_on,441,0,2,,,,,,,,,1,,,59,47
354156,note_off,156,0,4,,,,,,,,,3,,,35,0
354156,note_off,156,0,2,,,,,,,,,1,,,59,0
354156,note_off,156,0,1,,,,,,,,,0,,,63,0
354180,set_tempo,900,1,0,,,,,,389610,,,,,,,
354240,note_on,84,0,4,,,,,,,,,3,,,37,51
354240,note_on,84,0,2,,,,,,,,,1,,,56,51
354240,note_on,84,0,1,,,,,,,,,0,,,64,51
354600,note_on,0,0,4,,,,,,,,,3,,,39,47
354600,note_off,360,0,4,,,,,,,,,3,,,37,0
354600,note_off,360,0,2,,,,,,,,,1,,,56,0
354600,note_on,0,0,1,,,,,,,,,0,,,63,47
354600,note_on,0,0,2,,,,,,,,,1,,,54,47
354600,note_off,360,0,1,,,,,,,,,0,,,64,0
354678,note_off,78,0,4,,,,,,,,,3,,,39,0
354678,note_off,78,0,1,,,,,,,,,0,,,63,0
354678,note_off,78,0,2,,,,,,,,,1,,,54,0
354720,note_on,42,0,4,,,,,,,,,3,,,40,46
354720,note_on,42,0,1,,,,,,,,,0,,,61,46
354720,note_on,42,0,2,,,,,,,,,1,,,52,46
354876,note_off,156,0,2,,,,,,,,,1,,,52,0
354876,note_off,156,0,4,,,,,,,,,3,,,40,0
354876,note_off,156,0,1,,,,,,,,,0,,,61,0
354960,note_on,84,0,1,,,,,,,,,0,,,59,44
354960,note_on,84,0,4,,,,,,,,,3,,,41,44
354960,note_on,84,0,2,,,,,,,,,1,,,51,44
355116,note_off,156,0,1,,,,,,,,,0,,,59,0
355116,note_off,156,0,4,,,,,,,,,3,,,41,0
355116,note_off,156,0,2,,,,,,,,,1,,,51,0
355200,note_on,84,0,4,,,,,,,,,3,,,42,41
355200,note_on,84,0,1,,,,,,,,,0,,,58,41
355200,note_on,84,0,2,,,,,,,,,1,,,49,41
355560,note_off,360,0,1,,,,,,,,,0,,,58,0
355560,note_off,360,0,4,,,,,,,,,3,,,42,0
355560,note_off,360,0,2,,,,,,,,,1,,,49,0
355680,set_tempo,1500,1,0,,,,,,408163,,,,,,,
356160,note_on,0,0,2,,,,,,,,,1,,,78,79
356160,note_on,600,0,1,,,,,,,,,0,,,87,79
356160,note_on,600,0,4,,,,,,,,,3,,,69,79
356160,set_tempo,480,1,0,,,,,,377358,,,,,,,
356160,note_on,2601,0,3,,,,,,,,,2,,,71,79
356160,note_on,600,0,2,,,,,,,,,1,,,83,79
356160,note_on,0,0,2,,,,,,,,,1,,,75,79
356880,note_off,720,0,3,,,,,,,,,2,,,71,0
356880,note_on,0,0,3,,,,,,,,,2,,,71,76
356880,note_on,0,0,1,,,,,,,,,0,,,88,76
356880,note_off,720,0,2,,,,,,,,,1,,,75,0
356880,note_off,720,0,4,,,,,,,,,3,,,69,0
356880,note_off,0,0,2,,,,,,,,,1,,,78,0
356880,note_off,720,0,1,,,,,,,,,0,,,87,0
356880,note_off,0,0,2,,,,,,,,,1,,,83,0
356880,note_on,0,0,2,,,,,,,,,1,,,83,76
356880,note_on,0,0,2,,,,,,,,,1,,,76,76
356880,note_on,0,0,2,,,,,,,,,1,,,80,76
356880,note_on,0,0,4,,,,,,,,,3,,,68,76
356890,set_tempo,730,1,0,,,,,,379746,,,,,,,
357036,note_off,156,0,4,,,,,,,,,3,,,68,0
357036,note_off,0,0,2,,,,,,,,,1,,,83,0
357036,note_off,0,0,2,,,,,,,,,1,,,76,0
357036,note_off,156,0,3,,,,,,,,,2,,,71,0
357036,note_off,156,0,2,,,,,,,,,1,,,80,0
357036,note_off,156,0,1,,,,,,,,,0,,,88,0
357120,note_on,0,0,3,,,,,,,,,2,,,69,72
357120,note_on,84,0,4,,,,,,,,,3,,,66,72
357120,note_on,84,0,3,,,,,,,,,2,,,71,72
357120,note_on,0,0,2,,,,,,,,,1,,,78,72
357120,note_on,84,0,2,,,,,,,,,1,,,81,72
357120,note_on,84,0,1,,,,,,,,,0,,,90,72
357120,set_tempo,230,1,0,,,,,,384615,,,,,,,
357120,note_on,0,0,2,,,,,,,,,1,,,87,72
357276,note_off,156,0,1,,,,,,,,,0,,,90,0
357276,note_off,156,0,4,,,,,,,,,3,,,66,0
357276,note_off,156,0,2,,,,,,,,,1,,,87,0
357276,note_off,0,0,3,,,,,,,,,2,,,71,0
357276,note_off,156,0,3,,,,,,,,,2,,,69,0
357276,note_off,0,0,2,,,,,,,,,1,,,81,0
357276,note_off,0,0,2,,,,,,,,,1,,,78,0
357840,note_on,564,0,1,,,,,,,,,0,,,59,47
357840,note_on,564,0,4,,,,,,,,,3,,,40,47
357840,note_on,564,0,2,,,,,,,,,1,,,56,47
357996,note_off,156,0,1,,,,,,,,,0,,,59,0
357996,note_off,156,0,4,,,,,,,,,3,,,40,0
357996,note_off,156,0,2,,,,,,,,,1,,,56,0
358020,set_tempo,900,1,0,,,,,,389610,,,,,,,
358080,note_on,84,0,1,,,,,,,,,0,,,61,51
358080,note_on,84,0,4,,,,,,,,,3,,,33,51
358080,note_on,84,0,2,,,,,,,,,1,,,57,51
358440,note_on,0,0,2,,,,,,,,,1,,,54,47
358440,note_off,360,0,1,,,,,,,,,0,,,61,0
358440,note_on,0,0,1,,,,,,,,,0,,,57,47
358440,note_off,360,0,2,,,,,,,,,1,,,57,0
358440,note_off,360,0,4,,,,,,,,,3,,,33,0
358440,note_on,0,0,4,,,,,,,,,3,,,45,47
358518,note_off,78,0,2,,,,,,,,,1,,,54,0
358518,note_off,78,0,4,,,,,,,,,3,,,45,0
358518,note_off,78,0,1,,,,,,,,,0,,,57,0
358560,note_on,42,0,4,,,,,,,,,3,,,47,46
358560,note_on,42,0,1,,,,,,,,,0,,,56,46
358560,note_on,42,0,2,,,,,,,,,1,,,52,46
358716,note_off,156,0,4,,,,,,,,,3,,,47,0
358716,note_off,156,0,1,,,,,,,,,0,,,56,0
358716,note_off,156,0,2,,,,,,,,,1,,,52,0
358800,note_on,84,0,1,,,,,,,,,0,,,54,44
358800,note_on,84,0,4,,,,,,,,,3,,,35,44
358800,note_on,84,0,2,,,,,,,,,1,,,51,44
358956,note_off,156,0,1,,,,,,,,,0,,,54,0
358956,note_off,156,0,2,,,,,,,,,1,,,51,0
358956,note_off,156,0,4,,,,,,,,,3,,,35,0
359040,note_on,84,0,1,,,,,,,,,0,,,56,41
359040,note_on,84,0,2,,,,,,,,,1,,,52,41
359040,note_on,84,0,4,,,,,,,,,3,,,40,41
359400,note_off,360,0,4,,,,,,,,,3,,,40,0
359400,note_off,360,0,1,,,,,,,,,0,,,56,0
359400,note_off,360,0,2,,,,,,,,,1,,,52,0
359520,set_tempo,1500,1,0,,,,,,408163,,,,,,,
360000,note_on,600,0,1,,,,,,,,,0,,,88,79
360000,note_on,600,0,4,,,,,,,,,3,,,68,79
360000,note_on,2724,0,3,,,,,,,,,2,,,71,79
360000,set_tempo,480,1,0,,,,,,377358,,,,,,,
360000,note_on,600,0,2,,,,,,,,,1,,,76,79
360000,note_on,0,0,2,,,,,,,,,1,,,83,79
360710,set_tempo,710,1,0,,,,,,379746,,,,,,,
360720,note_off,0,0,2,,,,,,,,,1,,,76,0
360720,note_off,720,0,1,,,,,,,,,0,,,88,0
360720,note_on,0,0,1,,,,,,,,,0,,,87,76
360720,note_off,720,0,3,,,,,,,,,2,,,71,0
360720,note_on,0,0,3,,,,,,,,,2,,,71,76
360720,note_off,720,0,2,,,,,,,,,1,,,83,0
360720,note_off,720,0,4,,,,,,,,,3,,,68,0
360720,note_on,0,0,4,,,,,,,,,3,,,66,76
360720,note_on,0,0,2,,,,,,,,,1,,,75,76
360720,note_on,0,0,2,,,,,,,,,1,,,83,76
360876,note_off,156,0,3,,,,,,,,,2,,,71,0
360876,note_off,0,0,2,,,,,,,,,1,,,75,0
360876,note_off,156,0,2,,,,,,,,,1,,,83,0
360876,note_off,156,0,1,,,,,,,,,0,,,87,0
360876,note_off,156,0,4,,,,,,,,,3,,,66,0
360960,note_on,0,0,2,,,,,,,,,1,,,80,72
360960,note_on,84,0,4,,,,,,,,,3,,,64,72
360960,note_on,84,0,2,,,,,,,,,1,,,83,72
360960,note_on,84,0,3,,,,,,,,,2,,,71,72
360960,note_on,84,0,1,,,,,,,,,0,,,92,72
360960,set_tempo,250,1,0,,,,,,384615,,,,,,,
361116,note_off,156,0,2,,,,,,,,,1,,,80,0
361116,note_off,156,0,3,,,,,,,,,2,,,71,0
361116,note_off,156,0,4,,,,,,,,,3,,,64,0
361116,note_off,156,0,1,,,,,,,,,0,,,92,0
361116,note_off,0,0,2,,,,,,,,,1,,,83,0
361680,note_on,564,0,2,,,,,,,,,1,,,59,47
361680,note_on,0,0,2,,,,,,,,,1,,,54,47
361680,note_on,0,0,4,,,,,,,,,3,,,39,47
361680,control_change,564,0,1,,,,,,,64,0,0,,,,
361680,note_on,0,0,1,,,,,,,,,0,,,66,47
361680,control_change,564,0,4,,,,,,,64,0,3,,,,
361836,note_off,156,0,1,,,,,,,,,0,,,66,0
361836,note_off,0,0,2,,,,,,,,,1,,,59,0
361836,note_off,156,0,2,,,,,,,,,1,,,54,0
361836,note_off,156,0,4,,,,,,,,,3,,,39,0
361860,set_tempo,900,1,0,,,,,,389610,,,,,,,
361920,note_on,84,0,1,,,,,,,,,0,,,64,53
361920,note_on,84,0,4,,,,,,,,,3,,,37,53
361920,note_on,84,0,2,,,,,,,,,1,,,59,53
361920,note_on,0,0,2,,,,,,,,,1,,,56,53
362280,note_on,0,0,1,,,,,,,,,0,,,63,49
362280,note_off,360,0,1,,,,,,,,,0,,,64,0
362280,note_on,0,0,4,,,,,,,,,3,,,39,49
362280,note_off,360,0,4,,,,,,,,,3,,,37,0
362358,note_off,78,0,1,,,,,,,,,0,,,63,0
362358,note_off,78,0,4,,,,,,,,,3,,,39,0
362400,note_off,480,0,2,,,,,,,,,1,,,56,0
362400,note_on,0,0,2,,,,,,,,,1,,,59,48
362400,note_on,42,0,1,,,,,,,,,0,,,61,48
362400,note_on,42,0,4,,,,,,,,,3,,,40,48
362400,note_off,0,0,2,,,,,,,,,1,,,59,0
362400,note_on,0,0,2,,,,,,,,,1,,,56,48
362556,note_off,0,0,2,,,,,,,,,1,,,59,0
362556,note_off,156,0,4,,,,,,,,,3,,,40,0
362556,note_off,156,0,1,,,,,,,,,0,,,61,0
362556,note_off,156,0,2,,,,,,,,,1,,,56,0
362640,note_on,84,0,4,,,,,,,,,3,,,42,46
362640,note_on,84,0,2,,,,,,,,,1,,,58,46
362640,note_on,84,0,1,,,,,,,,,0,,,66,46
362760,set_tempo,900,1,0,,,,,,394736,,,,,,,
362796,note_off,156,0,2,,,,,,,,,1,,,58,0
362796,note_off,156,0,1,,,,,,,,,0,,,66,0
362796,note_off,156,0,4,,,,,,,,,3,,,42,0
362880,note_on,84,0,1,,,,,,,,,0,,,63,44
362880,note_on,84,0,4,,,,,,,,,3,,,47,44
362990,set_tempo,230,1,0,,,,,,377358,,,,,,,
363000,note_off,120,0,1,,,,,,,,,0,,,63,0
363000,note_on,204,0,2,,,,,,,,,1,,,59,45
363036,note_off,156,0,4,,,,,,,,,3,,,47,0
363078,note_off,78,0,2,,,,,,,,,1,,,59,0
363120,note_on,120,0,1,,,,,,,,,0,,,58,46
363120,note_on,84,0,4,,,,,,,,,3,,,54,46
363240,note_on,162,0,2,,,,,,,,,1,,,59,47
363240,note_off,120,0,1,,,,,,,,,0,,,58,0
363318,note_off,78,0,2,,,,,,,,,1,,,59,0
363360,note_on,120,0,1,,,,,,,,,0,,,64,48
363360,note_off,240,0,4,,,,,,,,,3,,,54,0
363360,note_on,0,0,4,,,,,,,,,3,,,56,48
363480,note_on,162,0,2,,,,,,,,,1,,,71,49
363480,note_off,120,0,1,,,,,,,,,0,,,64,0
363558,note_off,78,0,2,,,,,,,,,1,,,71,0
363600,note_off,240,0,4,,,,,,,,,3,,,56,0
363600,note_on,120,0,1,,,,,,,,,0,,,63,50
363600,note_on,0,0,4,,,,,,,,,3,,,54,50
363720,note_on,162,0,2,,,,,,,,,1,,,71,51
363720,note_off,120,0,1,,,,,,,,,0,,,63,0
363798,note_off,78,0,2,,,,,,,,,1,,,71,0
363840,note_on,0,0,4,,,,,,,,,3,,,52,52
363840,note_on,120,0,1,,,,,,,,,0,,,68,52
363840,note_off,240,0,4,,,,,,,,,3,,,54,0
363960,note_off,120,0,1,,,,,,,,,0,,,68,0
363960,note_on,162,0,2,,,,,,,,,1,,,71,53
364038,note_off,78,0,2,,,,,,,,,1,,,71,0
364080,note_off,240,0,4,,,,,,,,,3,,,52,0
364080,note_on,120,0,1,,,,,,,,,0,,,66,54
364080,note_on,0,0,4,,,,,,,,,3,,,51,54
364200,note_off,120,0,1,,,,,,,,,0,,,66,0
364200,note_on,162,0,2,,,,,,,,,1,,,71,55
364278,note_off,78,0,2,,,,,,,,,1,,,71,0
364320,note_on,120,0,1,,,,,,,,,0,,,70,56
364320,note_on,0,0,4,,,,,,,,,3,,,49,56
364320,note_off,240,0,4,,,,,,,,,3,,,51,0
364440,note_on,162,0,2,,,,,,,,,1,,,73,57
364440,note_off,120,0,1,,,,,,,,,0,,,70,0
364518,note_off,78,0,2,,,,,,,,,1,,,73,0
364560,note_on,120,0,1,,,,,,,,,0,,,70,58
364560,note_off,240,0,4,,,,,,,,,3,,,49,0
364560,note_on,0,0,4,,,,,,,,,3,,,42,58
364680,note_on,162,0,2,,,,,,,,,1,,,78,59
364680,note_off,120,0,1,,,,,,,,,0,,,70,0
364758,note_off,78,0,2,,,,,,,,,1,,,78,0
364800,note_off,240,0,4,,,,,,,,,3,,,42,0
364800,note_on,0,0,4,,,,,,,,,3,,,47,60
364800,note_on,120,0,1,,,,,,,,,0,,,71,60
364920,note_on,162,0,2,,,,,,,,,1,,,75,61
364920,note_off,120,0,1,,,,,,,,,0,,,71,0
364998,note_off,78,0,2,,,,,,,,,1,,,75,0
365040,note_off,240,0,4,,,,,,,,,3,,,47,0
365040,note_on,0,0,4,,,,,,,,,3,,,42,62
365040,note_on,120,0,1,,,,,,,,,0,,,71,62
365160,note_on,162,0,2,,,,,,,,,1,,,78,63
365160,note_off,120,0,1,,,,,,,,,0,,,71,0
365238,note_off,78,0,2,,,,,,,,,1,,,78,0
365280,note_on,120,0,1,,,,,,,,,0,,,71,64
365280,note_on,0,0,4,,,,,,,,,3,,,39,64
365280,note_off,240,0,4,,,,,,,,,3,,,42,0
365400,note_on,162,0,2,,,,,,,,,1,,,78,65
365400,note_off,120,0,1,,,,,,,,,0,,,71,0
365478,note_off,78,0,2,,,,,,,,,1,,,78,0
365520,note_on,120,0,1,,,,,,,,,0,,,75,66
365520,note_on,0,0,4,,,,,,,,,3,,,42,66
365520,note_off,240,0,4,,,,,,,,,3,,,39,0
365640,note_on,162,0,2,,,,,,,,,1,,,78,67
365640,note_off,120,0,1,,,,,,,,,0,,,75,0
365718,note_off,78,0,2,,,,,,,,,1,,,78,0
365760,note_on,0,0,4,,,,,,,,,3,,,35,68
365760,note_on,120,0,1,,,,,,,,,0,,,75,68
365760,note_off,240,0,4,,,,,,,,,3,,,42,0
365880,note_off,120,0,1,,,,,,,,,0,,,75,0
365880,note_on,162,0,2,,,,,,,,,1,,,78,69
365958,note_off,78,0,2,,,,,,,,,1,,,78,0
366000,note_off,240,0,4,,,,,,,,,3,,,35,0
366000,note_on,120,0,1,,,,,,,,,0,,,75,70
366000,note_on,0,0,4,,,,,,,,,3,,,42,70
366120,note_off,120,0,1,,,,,,,,,0,,,75,0
366120,note_on,162,0,2,,,,,,,,,1,,,78,71
366198,note_off,78,0,2,,,,,,,,,1,,,78,0
366240,note_on,0,0,4,,,,,,,,,3,,,30,72
366240,note_off,240,0,4,,,,,,,,,3,,,42,0
366240,note_on,120,0,1,,,,,,,,,0,,,73,72
366360,note_on,162,0,2,,,,,,,,,1,,,76,73
366360,note_off,120,0,1,,,,,,,,,0,,,73,0
366438,note_off,78,0,2,,,,,,,,,1,,,76,0
366480,note_on,120,0,1,,,,,,,,,0,,,70,74
366480,note_off,240,0,4,,,,,,,,,3,,,30,0
366480,note_on,0,0,4,,,,,,,,,3,,,42,74
366600,note_off,120,0,1,,,,,,,,,0,,,70,0
366600,set_tempo,3610,1,0,,,,,,379746,,,,,,,
366600,note_on,162,0,2,,,,,,,,,1,,,78,75
366678,note_off,78,0,2,,,,,,,,,1,,,78,0
366720,note_off,240,0,4,,,,,,,,,3,,,42,0
366720,note_on,0,0,4,,,,,,,,,3,,,35,58
366720,note_on,120,0,1,,,,,,,,,0,,,75,58
366840,note_on,162,0,2,,,,,,,,,1,,,71,58
366840,note_off,120,0,1,,,,,,,,,0,,,75,0
366850,set_tempo,250,1,0,,,,,,377358,,,,,,,
366876,note_off,156,0,4,,,,,,,,,3,,,35,0
366918,note_off,78,0,2,,,,,,,,,1,,,71,0
366960,note_on,120,0,1,,,,,,,,,0,,,63,59
366960,note_on,84,0,4,,,,,,,,,3,,,54,59
367080,note_on,162,0,2,,,,,,,,,1,,,71,60
367080,note_off,120,0,1,,,,,,,,,0,,,63,0
367158,note_off,78,0,2,,,,,,,,,1,,,71,0
367200,note_on,120,0,1,,,,,,,,,0,,,64,61
367200,note_on,0,0,4,,,,,,,,,3,,,56,61
367200,note_off,240,0,4,,,,,,,,,3,,,54,0
367320,note_off,120,0,1,,,,,,,,,0,,,64,0
367320,note_on,162,0,2,,,,,,,,,1,,,71,61
367398,note_off,78,0,2,,,,,,,,,1,,,71,0
367440,note_off,240,0,4,,,,,,,,,3,,,56,0
367440,note_on,0,0,4,,,,,,,,,3,,,54,62
367440,note_on,120,0,1,,,,,,,,,0,,,63,62
367560,note_off,120,0,1,,,,,,,,,0,,,63,0
367560,note_on,162,0,2,,,,,,,,,1,,,71,63
367638,note_off,78,0,2,,,,,,,,,1,,,71,0
367680,note_on,0,0,4,,,,,,,,,3,,,52,64
367680,note_off,240,0,4,,,,,,,,,3,,,54,0
367680,note_on,120,0,1,,,,,,,,,0,,,68,64
367800,note_on,162,0,2,,,,,,,,,1,,,71,64
367800,note_off,120,0,1,,,,,,,,,0,,,68,0
367878,note_off,78,0,2,,,,,,,,,1,,,71,0
367920,note_on,0,0,4,,,,,,,,,3,,,51,65
367920,note_on,120,0,1,,,,,,,,,0,,,66,65
367920,note_off,240,0,4,,,,,,,,,3,,,52,0
368040,note_on,162,0,2,,,,,,,,,1,,,71,66
368040,note_off,120,0,1,,,,,,,,,0,,,66,0
368118,note_off,78,0,2,,,,,,,,,1,,,71,0
368160,note_off,240,0,4,,,,,,,,,3,,,51,0
368160,note_on,0,0,4,,,,,,,,,3,,,49,67
368160,note_on,120,0,1,,,,,,,,,0,,,70,67
368280,note_off,120,0,1,,,,,,,,,0,,,70,0
368280,note_on,162,0,2,,,,,,,,,1,,,73,67
368358,note_off,78,0,2,,,,,,,,,1,,,73,0
368400,note_off,240,0,4,,,,,,,,,3,,,49,0
368400,note_on,0,0,4,,,,,,,,,3,,,42,68
368400,note_on,120,0,1,,,,,,,,,0,,,70,68
368520,note_on,162,0,2,,,,,,,,,1,,,78,69
368520,note_off,120,0,1,,,,,,,,,0,,,70,0
368598,note_off,78,0,2,,,,,,,,,1,,,78,0
368640,note_off,240,0,4,,,,,,,,,3,,,42,0
368640,note_on,0,0,4,,,,,,,,,3,,,47,70
368640,note_on,120,0,1,,,,,,,,,0,,,71,70
368760,note_off,120,0,1,,,,,,,,,0,,,71,0
368760,note_on,162,0,2,,,,,,,,,1,,,75,70
368838,note_off,78,0,2,,,,,,,,,1,,,75,0
368880,note_off,240,0,4,,,,,,,,,3,,,47,0
368880,note_on,120,0,1,,,,,,,,,0,,,71,71
368880,note_on,0,0,4,,,,,,,,,3,,,42,71
369000,note_on,162,0,2,,,,,,,,,1,,,78,72
369000,note_off,120,0,1,,,,,,,,,0,,,71,0
369078,note_off,78,0,2,,,,,,,,,1,,,78,0
369120,note_off,240,0,4,,,,,,,,,3,,,42,0
369120,note_on,0,0,4,,,,,,,,,3,,,38,72
369120,note_on,120,0,1,,,,,,,,,0,,,71,72
369240,note_on,162,0,2,,,,,,,,,1,,,78,73
369240,note_off,120,0,1,,,,,,,,,0,,,71,0
369318,note_off,78,0,2,,,,,,,,,1,,,78,0
369360,note_on,120,0,1,,,,,,,,,0,,,74,74
369360,note_off,240,0,4,,,,,,,,,3,,,38,0
369360,note_on,0,0,4,,,,,,,,,3,,,42,74
369480,note_on,162,0,2,,,,,,,,,1,,,78,75
369480,note_off,120,0,1,,,,,,,,,0,,,74,0
369558,note_off,78,0,2,,,,,,,,,1,,,78,0
369600,note_on,120,0,1,,,,,,,,,0,,,74,75
369600,note_off,240,0,4,,,,,,,,,3,,,42,0
369600,note_on,0,0,4,,,,,,,,,3,,,35,75
369720,note_off,120,0,1,,,,,,,,,0,,,74,0
369720,note_on,162,0,2,,,,,,,,,1,,,83,76
369798,note_off,78,0,2,,,,,,,,,1,,,83,0
369840,note_on,0,0,4,,,,,,,,,3,,,42,77
369840,note_off,240,0,4,,,,,,,,,3,,,35,0
369840,note_on,120,0,1,,,,,,,,,0,,,74,77
369960,note_off,120,0,1,,,,,,,,,0,,,74,0
369960,note_on,162,0,2,,,,,,,,,1,,,83,78
370038,note_off,78,0,2,,,,,,,,,1,,,83,0
370080,note_off,240,0,4,,,,,,,,,3,,,42,0
370080,note_on,0,0,4,,,,,,,,,3,,,37,78
370080,note_on,0,0,1,,,,,,,,,0,,,73,78
370080,note_on,120,0,1,,,,,,,,,0,,,77,78
370200,note_off,120,0,1,,,,,,,,,0,,,73,0
370200,note_off,0,0,1,,,,,,,,,0,,,77,0
370200,note_on,162,0,2,,,,,,,,,1,,,83,79
370278,note_off,78,0,2,,,,,,,,,1,,,83,0
370320,note_on,0,0,4,,,,,,,,,3,,,41,80
370320,note_on,120,0,1,,,,,,,,,0,,,80,80
370320,note_on,0,0,1,,,,,,,,,0,,,73,80
370320,note_off,240,0,4,,,,,,,,,3,,,37,0
370440,note_off,120,0,1,,,,,,,,,0,,,73,0
370440,note_off,0,0,1,,,,,,,,,0,,,80,0
370440,note_on,162,0,2,,,,,,,,,1,,,83,81
370518,note_off,78,0,2,,,,,,,,,1,,,83,0
370560,note_on,120,0,1,,,,,,,,,0,,,78,81
370560,note_on,0,0,1,,,,,,,,,0,,,73,81
370560,note_off,240,0,4,,,,,,,,,3,,,41,0
370560,note_on,0,0,4,,,,,,,,,3,,,42,81
370680,note_off,0,0,1,,,,,,,,,0,,,78,0
370680,note_off,120,0,1,,,,,,,,,0,,,73,0
370680,note_on,162,0,2,,,,,,,,,1,,,81,82
370758,note_off,78,0,2,,,,,,,,,1,,,81,0
370800,note_off,240,0,4,,,,,,,,,3,,,42,0
370800,note_on,0,0,4,,,,,,,,,3,,,49,83
370800,note_on,120,0,1,,,,,,,,,0,,,78,83
370800,note_on,0,0,1,,,,,,,,,0,,,73,83
370920,note_off,120,0,1,,,,,,,,,0,,,73,0
370920,note_off,0,0,1,,,,,,,,,0,,,78,0
370920,note_on,162,0,2,,,,,,,,,1,,,81,84
370998,note_off,78,0,2,,,,,,,,,1,,,81,0
371040,note_on,0,0,1,,,,,,,,,0,,,73,84
371040,note_off,240,0,4,,,,,,,,,3,,,49,0
371040,note_on,120,0,1,,,,,,,,,0,,,78,84
371040,note_on,0,0,4,,,,,,,,,3,,,45,84
371160,note_on,162,0,2,,,,,,,,,1,,,81,85
371160,note_off,0,0,1,,,,,,,,,0,,,78,0
371160,note_off,120,0,1,,,,,,,,,0,,,73,0
371238,note_off,78,0,2,,,,,,,,,1,,,81,0
371280,note_on,0,0,1,,,,,,,,,0,,,73,86
371280,note_on,120,0,1,,,,,,,,,0,,,78,86
371280,note_on,0,0,4,,,,,,,,,3,,,49,86
371280,note_off,240,0,4,,,,,,,,,3,,,45,0
371400,note_off,120,0,1,,,,,,,,,0,,,73,0
371400,note_off,0,0,1,,,,,,,,,0,,,78,0
371400,note_on,162,0,2,,,,,,,,,1,,,81,86
371478,note_off,78,0,2,,,,,,,,,1,,,81,0
371520,note_on,0,0,1,,,,,,,,,0,,,73,87
371520,note_on,120,0,1,,,,,,,,,0,,,78,87
371520,note_off,240,0,4,,,,,,,,,3,,,49,0
371520,note_on,0,0,4,,,,,,,,,3,,,42,87
371640,note_on,162,0,2,,,,,,,,,1,,,81,88
371640,note_off,120,0,1,,,,,,,,,0,,,73,0
371640,note_off,0,0,1,,,,,,,,,0,,,78,0
371718,note_off,78,0,2,,,,,,,,,1,,,81,0
371760,note_on,0,0,4,,,,,,,,,3,,,54,89
371760,note_on,120,0,1,,,,,,,,,0,,,73,89
371760,note_on,0,0,1,,,,,,,,,0,,,69,89
371760,note_off,240,0,4,,,,,,,,,3,,,42,0
371880,note_on,162,0,2,,,,,,,,,1,,,78,89
371880,note_off,120,0,1,,,,,,,,,0,,,69,0
371880,note_off,0,0,1,,,,,,,,,0,,,73,0
371958,note_off,78,0,2,,,,,,,,,1,,,78,0
372000,note_off,240,0,4,,,,,,,,,3,,,54,0
372000,note_on,0,0,4,,,,,,,,,3,,,38,90
372000,note_on,120,0,1,,,,,,,,,0,,,73,90
372000,note_on,0,0,1,,,,,,,,,0,,,66,90
372120,note_off,120,0,1,,,,,,,,,0,,,66,0
372120,note_on,162,0,2,,,,,,,,,1,,,78,91
372120,note_off,0,0,1,,,,,,,,,0,,,73,0
372198,note_off,78,0,2,,,,,,,,,1,,,78,0
372240,note_on,0,0,1,,,,,,,,,0,,,72,92
372240,note_on,120,0,1,,,,,,,,,0,,,66,92
372240,note_on,0,0,4,,,,,,,,,3,,,50,92
372240,note_off,240,0,4,,,,,,,,,3,,,38,0
372360,note_off,0,0,1,,,,,,,,,0,,,66,0
372360,note_on,162,0,2,,,,,,,,,1,,,78,92
372360,note_off,120,0,1,,,,,,,,,0,,,72,0
372360,set_tempo,5510,1,0,,,,,,379746,,,,,,,
372438,note_off,78,0,2,,,,,,,,,1,,,78,0
372480,note_on,120,0,1,,,,,,,,,0,,,73,93
372480,note_on,0,0,4,,,,,,,,,3,,,37,93
372480,note_on,0,0,4,,,,,,,,,3,,,49,93
372480,note_on,0,0,1,,,,,,,,,0,,,65,93
372480,note_on,42,0,2,,,,,,,,,1,,,77,93
372480,note_off,240,0,4,,,,,,,,,3,,,50,0
372480,set_tempo,120,1,0,,,,,,394736,,,,,,,
372710,set_tempo,230,1,0,,,,,,379746,,,,,,,
372720,note_off,240,0,1,,,,,,,,,0,,,65,0
372720,note_off,0,0,4,,,,,,,,,3,,,49,0
372720,note_off,240,0,2,,,,,,,,,1,,,77,0
372720,note_off,240,0,4,,,,,,,,,3,,,37,0
372720,note_off,0,0,1,,,,,,,,,0,,,73,0
372720,note_on,0,0,1,,,,,,,,,0,,,73,87
372840,set_tempo,130,1,0,,,,,,377358,,,,,,,
372840,note_off,120,0,1,,,,,,,,,0,,,73,0
372840,note_on,120,0,2,,,,,,,,,1,,,71,84
372918,note_off,78,0,2,,,,,,,,,1,,,71,0
372960,note_on,120,0,1,,,,,,,,,0,,,71,81
373080,note_off,120,0,1,,,,,,,,,0,,,71,0
373080,note_on,162,0,2,,,,,,,,,1,,,69,77
373158,note_off,78,0,2,,,,,,,,,1,,,69,0
373200,note_on,120,0,1,,,,,,,,,0,,,71,76
373320,note_off,120,0,1,,,,,,,,,0,,,71,0
373320,note_on,162,0,2,,,,,,,,,1,,,69,76
373398,note_off,78,0,2,,,,,,,,,1,,,69,0
373440,note_on,120,0,1,,,,,,,,,0,,,69,75
373560,note_off,120,0,1,,,,,,,,,0,,,69,0
373560,note_on,162,0,2,,,,,,,,,1,,,68,74
373638,note_off,78,0,2,,,,,,,,,1,,,68,0
373680,note_on,120,0,1,,,,,,,,,0,,,69,73
373800,note_off,120,0,1,,,,,,,,,0,,,69,0
373800,note_on,162,0,2,,,,,,,,,1,,,68,72
373878,note_off,78,0,2,,,,,,,,,1,,,68,0
373920,note_on,120,0,1,,,,,,,,,0,,,68,71
374040,note_off,120,0,1,,,,,,,,,0,,,68,0
374040,note_on,162,0,2,,,,,,,,,1,,,66,71
374118,note_off,78,0,2,,,,,,,,,1,,,66,0
374160,note_on,120,0,1,,,,,,,,,0,,,68,70
374280,note_on,162,0,2,,,,,,,,,1,,,66,69
374280,note_off,120,0,1,,,,,,,,,0,,,68,0
374358,note_off,78,0,2,,,,,,,,,1,,,66,0
374400,note_on,120,0,1,,,,,,,,,0,,,66,68
374520,note_off,120,0,1,,,,,,,,,0,,,66,0
374520,note_on,162,0,2,,,,,,,,,1,,,65,67
374598,note_off,78,0,2,,,,,,,,,1,,,65,0
374640,note_on,120,0,1,,,,,,,,,0,,,66,66
374760,note_off,120,0,1,,,,,,,,,0,,,66,0
374760,note_on,162,0,2,,,,,,,,,1,,,65,66
374838,note_off,78,0,2,,,,,,,,,1,,,65,0
374880,note_on,120,0,1,,,,,,,,,0,,,65,65
375000,note_off,120,0,1,,,,,,,,,0,,,65,0
375000,note_on,162,0,2,,,,,,,,,1,,,62,64
375078,note_off,78,0,2,,,,,,,,,1,,,62,0
375120,note_on,120,0,1,,,,,,,,,0,,,65,63
375240,note_off,120,0,1,,,,,,,,,0,,,65,0
375240,note_on,162,0,2,,,,,,,,,1,,,62,62
375318,note_off,78,0,2,,,,,,,,,1,,,62,0
375360,note_on,120,0,1,,,,,,,,,0,,,62,61
375480,note_off,120,0,1,,,,,,,,,0,,,62,0
375480,note_on,162,0,2,,,,,,,,,1,,,61,61
375558,note_off,78,0,2,,,,,,,,,1,,,61,0
375600,note_on,120,0,1,,,,,,,,,0,,,62,60
375720,note_on,162,0,2,,,,,,,,,1,,,61,59
375720,note_off,120,0,1,,,,,,,,,0,,,62,0
375798,note_off,78,0,2,,,,,,,,,1,,,61,0
375840,note_on,120,0,1,,,,,,,,,0,,,61,58
375960,note_off,120,0,1,,,,,,,,,0,,,61,0
375960,note_on,162,0,2,,,,,,,,,1,,,60,57
376038,note_off,78,0,2,,,,,,,,,1,,,60,0
376080,note_on,120,0,1,,,,,,,,,0,,,61,56
376200,note_on,162,0,2,,,,,,,,,1,,,60,55
376200,note_off,120,0,1,,,,,,,,,0,,,61,0
376278,note_off,78,0,2,,,,,,,,,1,,,60,0
376320,note_on,120,0,1,,,,,,,,,0,,,61,55
376440,note_off,120,0,1,,,,,,,,,0,,,61,0
376440,note_on,162,0,2,,,,,,,,,1,,,60,54
376518,note_off,78,0,2,,,,,,,,,1,,,60,0
376560,note_on,120,0,1,,,,,,,,,0,,,61,53
376680,note_off,120,0,1,,,,,,,,,0,,,61,0
376680,note_on,162,0,2,,,,,,,,,1,,,60,52
376758,note_off,78,0,2,,,,,,,,,1,,,60,0
376800,note_on,120,0,1,,,,,,,,,0,,,61,51
376920,note_on,162,0,2,,,,,,,,,1,,,59,50
376920,note_off,120,0,1,,,,,,,,,0,,,61,0
376998,note_off,78,0,2,,,,,,,,,1,,,59,0
377040,note_on,120,0,1,,,,,,,,,0,,,61,50
377160,note_on,162,0,2,,,,,,,,,1,,,59,49
377160,note_off,120,0,1,,,,,,,,,0,,,61,0
377238,note_off,78,0,2,,,,,,,,,1,,,59,0
377280,note_on,120,0,1,,,,,,,,,0,,,61,48
377400,note_on,162,0,2,,,,,,,,,1,,,57,47
377400,note_off,120,0,1,,,,,,,,,0,,,61,0
377478,note_off,78,0,2,,,,,,,,,1,,,57,0
377520,note_on,120,0,1,,,,,,,,,0,,,61,46
377640,note_on,162,0,2,,,,,,,,,1,,,57,45
377640,note_off,120,0,1,,,,,,,,,0,,,61,0
377718,note_off,78,0,2,,,,,,,,,1,,,57,0
377760,note_on,120,0,1,,,,,,,,,0,,,61,45
377880,note_on,162,0,2,,,,,,,,,1,,,56,44
377880,note_off,120,0,1,,,,,,,,,0,,,61,0
377958,note_off,78,0,2,,,,,,,,,1,,,56,0
378000,note_on,120,0,1,,,,,,,,,0,,,61,43
378000,set_tempo,5160,1,0,,,,,,379746,,,,,,,
378120,note_off,120,0,1,,,,,,,,,0,,,61,0
378120,note_on,162,0,2,,,,,,,,,1,,,56,42
378120,set_tempo,120,1,0,,,,,,384615,,,,,,,
378198,note_off,78,0,2,,,,,,,,,1,,,56,0
378240,control_change,120,0,1,,,,,,,64,127,0,,,,
378240,control_change,42,0,2,,,,,,,64,127,1,,,,
378240,control_change,5520,0,4,,,,,,,64,127,3,,,,
378240,note_on,0,0,4,,,,,,,,,3,,,42,89
378360,set_tempo,240,1,0,,,,,,377358,,,,,,,
378480,note_on,0,0,4,,,,,,,,,3,,,58,88
378480,note_on,240,0,1,,,,,,,,,0,,,61,88
378480,note_off,240,0,4,,,,,,,,,3,,,42,0
378600,note_on,360,0,2,,,,,,,,,1,,,66,87
378600,note_off,120,0,1,,,,,,,,,0,,,61,0
378720,note_off,240,0,4,,,,,,,,,3,,,58,0
378720,note_off,120,0,2,,,,,,,,,1,,,66,0
378720,note_on,0,0,4,,,,,,,,,3,,,61,86
378720,note_on,120,0,1,,,,,,,,,0,,,66,86
378840,note_off,120,0,1,,,,,,,,,0,,,66,0
378840,note_on,120,0,2,,,,,,,,,1,,,70,85
378960,note_on,0,0,4,,,,,,,,,3,,,66,84
378960,note_off,240,0,4,,,,,,,,,3,,,61,0
378960,note_on,120,0,1,,,,,,,,,0,,,70,84
378960,note_off,120,0,2,,,,,,,,,1,,,70,0
379080,note_off,120,0,1,,,,,,,,,0,,,70,0
379080,note_on,120,0,2,,,,,,,,,1,,,73,83
379200,note_on,0,0,4,,,,,,,,,3,,,70,83
379200,note_off,240,0,4,,,,,,,,,3,,,66,0
379200,note_on,120,0,1,,,,,,,,,0,,,73,83
379200,note_off,120,0,2,,,,,,,,,1,,,73,0
379320,note_off,120,0,1,,,,,,,,,0,,,73,0
379320,note_on,120,0,2,,,,,,,,,1,,,78,82
379440,note_off,120,0,2,,,,,,,,,1,,,78,0
379440,note_on,0,0,4,,,,,,,,,3,,,73,81
379440,note_on,120,0,1,,,,,,,,,0,,,78,81
379440,note_off,240,0,4,,,,,,,,,3,,,70,0
379560,note_off,120,0,1,,,,,,,,,0,,,78,0
379560,note_on,120,0,2,,,,,,,,,1,,,82,80
379680,note_on,120,0,1,,,,,,,,,0,,,82,79
379680,note_off,120,0,2,,,,,,,,,1,,,82,0
379680,note_on,0,0,4,,,,,,,,,3,,,78,79
379680,note_off,240,0,4,,,,,,,,,3,,,73,0
379800,note_off,120,0,1,,,,,,,,,0,,,82,0
379800,note_on,120,0,2,,,,,,,,,1,,,85,78
379920,note_off,120,0,2,,,,,,,,,1,,,85,0
379920,note_off,240,0,4,,,,,,,,,3,,,78,0
379920,note_on,0,0,4,,,,,,,,,3,,,82,78
379920,note_on,120,0,1,,,,,,,,,0,,,85,78
380040,note_on,120,0,2,,,,,,,,,1,,,90,77
380040,note_off,120,0,1,,,,,,,,,0,,,85,0
380040,set_tempo,1680,1,0,,,,,,379746,,,,,,,
380160,note_off,120,0,2,,,,,,,,,1,,,90,0
380160,note_off,240,0,4,,,,,,,,,3,,,82,0
380160,note_on,0,0,4,,,,,,,,,3,,,85,76
380160,note_on,120,0,1,,,,,,,,,0,,,94,76
380160,set_tempo,120,1,0,,,,,,394736,,,,,,,
380390,set_tempo,230,1,0,,,,,,377358,,,,,,,
380400,note_off,0,0,1,,,,,,,,,0,,,94,0
380400,control_change,240,0,1,,,,,,,64,0,0,,,,
380400,note_on,0,0,1,,,,,,,,,0,,,69,63
380400,note_on,0,0,4,,,,,,,,,3,,,54,63
380400,control_change,240,0,4,,,,,,,64,0,3,,,,
380400,control_change,240,0,2,,,,,,,64,0,1,,,,
380400,note_off,0,0,4,,,,,,,,,3,,,85,0
380520,note_off,120,0,1,,,,,,,,,0,,,69,0
380520,note_on,120,0,2,,,,,,,,,1,,,73,62
380598,note_off,78,0,2,,,,,,,,,1,,,73,0
380640,note_on,120,0,1,,,,,,,,,0,,,66,62
380640,note_off,240,0,4,,,,,,,,,3,,,54,0
380640,note_on,0,0,4,,,,,,,,,3,,,57,62
380760,note_off,120,0,1,,,,,,,,,0,,,66,0
380760,note_on,162,0,2,,,,,,,,,1,,,73,61
380838,note_off,78,0,2,,,,,,,,,1,,,73,0
380880,note_off,240,0,4,,,,,,,,,3,,,57,0
380880,note_on,0,0,4,,,,,,,,,3,,,54,61
380880,note_on,120,0,1,,,,,,,,,0,,,69,61
381000,note_on,162,0,2,,,,,,,,,1,,,73,60
381000,note_off,120,0,1,,,,,,,,,0,,,69,0
381078,note_off,78,0,2,,,,,,,,,1,,,73,0
381120,note_on,120,0,1,,,,,,,,,0,,,66,60
381120,note_off,240,0,4,,,,,,,,,3,,,54,0
381120,note_on,0,0,4,,,,,,,,,3,,,57,60
381240,note_off,120,0,1,,,,,,,,,0,,,66,0
381240,note_on,162,0,2,,,,,,,,,1,,,73,59
381318,note_off,78,0,2,,,,,,,,,1,,,73,0
381360,note_on,0,0,4,,,,,,,,,3,,,54,59
381360,note_off,240,0,4,,,,,,,,,3,,,57,0
381360,note_on,120,0,1,,,,,,,,,0,,,69,59
381480,note_on,162,0,2,,,,,,,,,1,,,73,58
381480,note_off,120,0,1,,,,,,,,,0,,,69,0
381558,note_off,78,0,2,,,,,,,,,1,,,73,0
381600,note_off,240,0,4,,,,,,,,,3,,,54,0
381600,note_on,0,0,4,,,,,,,,,3,,,56,58
381600,note_on,0,0,4,,,,,,,,,3,,,49,58
381600,note_on,120,0,1,,,,,,,,,0,,,71,58
381720,note_off,120,0,1,,,,,,,,,0,,,71,0
381720,note_on,162,0,2,,,,,,,,,1,,,73,58
381798,note_off,78,0,2,,,,,,,,,1,,,73,0
381840,note_on,0,0,4,,,,,,,,,3,,,53,57
381840,note_off,240,0,4,,,,,,,,,3,,,56,0
381840,note_on,120,0,1,,,,,,,,,0,,,68,57
381960,note_off,120,0,1,,,,,,,,,0,,,68,0
381960,set_tempo,1570,1,0,,,,,,379746,,,,,,,
381960,note_on,162,0,2,,,,,,,,,1,,,73,57
382020,control_change,180,0,4,,,,,,,64,0,3,,,,
382020,control_change,60,0,2,,,,,,,64,0,1,,,,
382020,control_change,60,0,1,,,,,,,64,0,0,,,,
382038,note_off,18,0,2,,,,,,,,,1,,,73,0
382080,note_on,0,0,4,,,,,,,,,3,,,42,56
382080,control_change,42,0,2,,,,,,,64,127,1,,,,
382080,note_off,0,0,4,,,,,,,,,3,,,53,0
382080,note_off,0,0,4,,,,,,,,,3,,,49,0
382080,control_change,60,0,1,,,,,,,64,127,0,,,,
382080,control_change,60,0,4,,,,,,,64,127,3,,,,
382220,set_tempo,260,1,0,,,,,,377358,,,,,,,
382320,note_off,240,0,4,,,,,,,,,3,,,42,0
382320,note_on,0,0,4,,,,,,,,,3,,,58,79
382320,note_on,240,0,1,,,,,,,,,0,,,61,79
382440,note_on,360,0,2,,,,,,,,,1,,,66,78
382440,note_off,120,0,1,,,,,,,,,0,,,61,0
382560,note_on,120,0,1,,,,,,,,,0,,,66,77
382560,note_on,0,0,4,,,,,,,,,3,,,61,77
382560,note_off,240,0,4,,,,,,,,,3,,,58,0
382560,note_off,120,0,2,,,,,,,,,1,,,66,0
382680,note_off,120,0,1,,,,,,,,,0,,,66,0
382680,note_on,120,0,2,,,,,,,,,1,,,70,76
382800,note_off,120,0,2,,,,,,,,,1,,,70,0
382800,note_off,240,0,4,,,,,,,,,3,,,61,0
382800,note_on,120,0,1,,,,,,,,,0,,,70,75
382800,note_on,0,0,4,,,,,,,,,3,,,66,75
382920,note_off,120,0,1,,,,,,,,,0,,,70,0
382920,note_on,120,0,2,,,,,,,,,1,,,73,74
383040,note_off,240,0,4,,,,,,,,,3,,,66,0
383040,note_on,0,0,4,,,,,,,,,3,,,70,73
383040,note_off,120,0,2,,,,,,,,,1,,,73,0
383040,note_on,120,0,1,,,,,,,,,0,,,73,73
383160,note_on,120,0,2,,,,,,,,,1,,,78,72
383160,note_off,120,0,1,,,,,,,,,0,,,73,0
383280,note_off,120,0,2,,,,,,,,,1,,,78,0
383280,note_on,120,0,1,,,,,,,,,0,,,78,71
383280,note_off,240,0,4,,,,,,,,,3,,,70,0
383280,note_on,0,0,4,,,,,,,,,3,,,73,71
383400,note_off,120,0,1,,,,,,,,,0,,,78,0
383400,note_on,120,0,2,,,,,,,,,1,,,82,70
383520,note_on,120,0,1,,,,,,,,,0,,,82,69
383520,note_on,0,0,4,,,,,,,,,3,,,78,69
383520,note_off,240,0,4,,,,,,,,,3,,,73,0
383520,note_off,120,0,2,,,,,,,,,1,,,82,0
383640,note_off,120,0,1,,,,,,,,,0,,,82,0
383640,note_on,120,0,2,,,,,,,,,1,,,85,69
383760,note_off,120,0,2,,,,,,,,,1,,,85,0
383760,note_off,240,0,4,,,,,,,,,3,,,78,0
383760,note_on,120,0,1,,,,,,,,,0,,,85,68
383760,note_on,0,0,4,,,,,,,,,3,,,82,68
383880,note_on,120,0,2,,,,,,,,,1,,,90,67
383880,note_off,120,0,1,,,,,,,,,0,,,85,0
383880,set_tempo,1660,1,0,,,,,,379746,,,,,,,
384000,set_tempo,120,1,0,,,,,,394736,,,,,,,
384000,note_off,240,0,4,,,,,,,,,3,,,82,0
384000,note_on,0,0,4,,,,,,,,,3,,,85,66
384000,note_on,120,0,1,,,,,,,,,0,,,94,66
384000,note_off,120,0,2,,,,,,,,,1,,,90,0
384240,control_change,240,0,4,,,,,,,64,0,3,,,,
384240,note_on,0,0,4,,,,,,,,,3,,,54,52
384240,note_on,0,0,1,,,,,,,,,0,,,69,52
384240,note_off,0,0,1,,,,,,,,,0,,,94,0
384240,control_change,240,0,1,,,,,,,64,0,0,,,,
384240,control_change,240,0,2,,,,,,,64,0,1,,,,
384240,note_off,0,0,4,,,,,,,,,3,,,85,0
384250,set_tempo,250,1,0,,,,,,377358,,,,,,,
384360,note_on,120,0,2,,,,,,,,,1,,,73,52
384360,note_off,120,0,1,,,,,,,,,0,,,69,0
384438,note_off,78,0,2,,,,,,,,,1,,,73,0
384480,note_on,0,0,4,,,,,,,,,3,,,57,51
384480,note_off,240,0,4,,,,,,,,,3,,,54,0
384480,note_on,120,0,1,,,,,,,,,0,,,66,51
384600,note_off,120,0,1,,,,,,,,,0,,,66,0
384600,note_on,162,0,2,,,,,,,,,1,,,73,50
384678,note_off,78,0,2,,,,,,,,,1,,,73,0
384720,note_on,120,0,1,,,,,,,,,0,,,69,49
384720,note_on,0,0,4,,,,,,,,,3,,,54,49
384720,note_off,240,0,4,,,,,,,,,3,,,57,0
384840,note_on,162,0,2,,,,,,,,,1,,,73,49
384840,note_off,120,0,1,,,,,,,,,0,,,69,0
384918,note_off,78,0,2,,,,,,,,,1,,,73,0
384960,note_off,240,0,4,,,,,,,,,3,,,54,0
384960,note_on,120,0,1,,,,,,,,,0,,,66,48
384960,note_on,0,0,4,,,,,,,,,3,,,57,48
385080,note_off,120,0,1,,,,,,,,,0,,,66,0
385080,note_on,162,0,2,,,,,,,,,1,,,73,47
385158,note_off,78,0,2,,,,,,,,,1,,,73,0
385200,note_on,0,0,4,,,,,,,,,3,,,54,46
385200,note_on,120,0,1,,,,,,,,,0,,,69,46
385200,note_off,240,0,4,,,,,,,,,3,,,57,0
385320,note_off,120,0,1,,,,,,,,,0,,,69,0
385320,note_on,162,0,2,,,,,,,,,1,,,73,46
385398,note_off,78,0,2,,,,,,,,,1,,,73,0
385440,note_on,0,0,4,,,,,,,,,3,,,49,45
385440,note_on,0,0,4,,,,,,,,,3,,,56,45
385440,note_off,240,0,4,,,,,,,,,3,,,54,0
385440,note_on,120,0,1,,,,,,,,,0,,,71,45
385560,note_off,120,0,1,,,,,,,,,0,,,71,0
385560,note_on,162,0,2,,,,,,,,,1,,,73,44
385638,note_off,78,0,2,,,,,,,,,1,,,73,0
385680,note_on,0,0,4,,,,,,,,,3,,,53,43
385680,note_off,240,0,4,,,,,,,,,3,,,56,0
385680,note_on,120,0,1,,,,,,,,,0,,,68,43
385800,note_off,120,0,1,,,,,,,,,0,,,68,0
385800,note_on,162,0,2,,,,,,,,,1,,,73,42
385800,set_tempo,1550,1,0,,,,,,379746,,,,,,,
385878,note_off,78,0,2,,,,,,,,,1,,,73,0
385920,note_on,0,0,1,,,,,,,,,0,,,66,43
385920,control_change,240,0,4,,,,,,,64,0,3,,,,
385920,note_off,0,0,4,,,,,,,,,3,,,53,0
385920,note_off,0,0,4,,,,,,,,,3,,,49,0
385920,note_on,0,0,4,,,,,,,,,3,,,54,43
385920,control_change,120,0,1,,,,,,,64,0,0,,,,
386040,note_on,162,0,2,,,,,,,,,1,,,69,44
386040,set_tempo,240,1,0,,,,,,377358,,,,,,,
386040,note_off,120,0,1,,,,,,,,,0,,,66,0
386076,note_off,156,0,4,,,,,,,,,3,,,54,0
386118,note_off,78,0,2,,,,,,,,,1,,,69,0
386160,note_on,84,0,4,,,,,,,,,3,,,54,46
386160,note_on,120,0,1,,,,,,,,,0,,,69,46
386280,note_off,120,0,1,,,,,,,,,0,,,69,0
386280,note_on,162,0,2,,,,,,,,,1,,,78,47
386358,note_off,78,0,2,,,,,,,,,1,,,78,0
386400,note_on,0,0,4,,,,,,,,,3,,,61,48
386400,note_off,240,0,4,,,,,,,,,3,,,54,0
386400,note_on,120,0,1,,,,,,,,,0,,,68,48
386520,note_off,120,0,1,,,,,,,,,0,,,68,0
386520,note_on,162,0,2,,,,,,,,,1,,,77,50
386598,note_off,78,0,2,,,,,,,,,1,,,77,0
386640,note_off,240,0,4,,,,,,,,,3,,,61,0
386640,note_on,120,0,1,,,,,,,,,0,,,77,51
386640,note_on,0,0,4,,,,,,,,,3,,,49,51
386760,note_on,162,0,2,,,,,,,,,1,,,80,52
386760,note_off,120,0,1,,,,,,,,,0,,,77,0
386838,note_off,78,0,2,,,,,,,,,1,,,80,0
386880,note_on,120,0,1,,,,,,,,,0,,,69,54
386880,note_off,240,0,4,,,,,,,,,3,,,49,0
386880,note_on,0,0,4,,,,,,,,,3,,,54,54
387000,note_on,162,0,2,,,,,,,,,1,,,78,55
387000,note_off,120,0,1,,,,,,,,,0,,,69,0
387078,note_off,78,0,2,,,,,,,,,1,,,78,0
387120,note_on,0,0,4,,,,,,,,,3,,,42,56
387120,note_on,120,0,1,,,,,,,,,0,,,78,56
387120,note_off,240,0,4,,,,,,,,,3,,,54,0
387240,note_on,162,0,2,,,,,,,,,1,,,81,58
387240,note_off,120,0,1,,,,,,,,,0,,,78,0
387318,note_off,78,0,2,,,,,,,,,1,,,81,0
387360,note_on,120,0,1,,,,,,,,,0,,,77,59
387360,note_off,240,0,4,,,,,,,,,3,,,42,0
387360,note_on,0,0,4,,,,,,,,,3,,,49,59
387480,note_on,162,0,2,,,,,,,,,1,,,80,60
387480,note_off,120,0,1,,,,,,,,,0,,,77,0
387558,note_off,78,0,2,,,,,,,,,1,,,80,0
387600,note_on,120,0,1,,,,,,,,,0,,,80,62
387600,note_off,240,0,4,,,,,,,,,3,,,49,0
387600,note_on,0,0,4,,,,,,,,,3,,,37,62
387720,note_off,120,0,1,,,,,,,,,0,,,80,0
387720,note_on,162,0,2,,,,,,,,,1,,,83,63
387798,note_off,78,0,2,,,,,,,,,1,,,83,0
387840,note_on,0,0,4,,,,,,,,,3,,,42,64
387840,note_off,240,0,4,,,,,,,,,3,,,37,0
387840,note_on,120,0,1,,,,,,,,,0,,,69,64
387960,note_on,162,0,2,,,,,,,,,1,,,78,66
387960,note_off,120,0,1,,,,,,,,,0,,,69,0
387996,note_off,156,0,4,,,,,,,,,3,,,42,0
388038,note_off,78,0,2,,,,,,,,,1,,,78,0
388080,note_on,84,0,4,,,,,,,,,3,,,54,67
388080,note_on,120,0,1,,,,,,,,,0,,,78,67
388200,note_off,120,0,1,,,,,,,,,0,,,78,0
388200,note_on,162,0,2,,,,,,,,,1,,,81,68
388278,note_off,78,0,2,,,,,,,,,1,,,81,0
388320,note_off,240,0,4,,,,,,,,,3,,,54,0
388320,note_on,120,0,1,,,,,,,,,0,,,77,70
388320,note_on,0,0,4,,,,,,,,,3,,,61,70
388440,note_on,162,0,2,,,,,,,,,1,,,80,71
388440,note_off,120,0,1,,,,,,,,,0,,,77,0
388518,note_off,78,0,2,,,,,,,,,1,,,80,0
388560,note_off,240,0,4,,,,,,,,,3,,,61,0
388560,note_on,0,0,4,,,,,,,,,3,,,49,72
388560,note_on,120,0,1,,,,,,,,,0,,,80,72
388680,note_on,162,0,2,,,,,,,,,1,,,83,74
388680,note_off,120,0,1,,,,,,,,,0,,,80,0
388758,note_off,78,0,2,,,,,,,,,1,,,83,0
388800,note_on,0,0,4,,,,,,,,,3,,,54,75
388800,note_on,120,0,1,,,,,,,,,0,,,78,75
388800,note_off,240,0,4,,,,,,,,,3,,,49,0
388920,note_on,162,0,2,,,,,,,,,1,,,81,76
388920,note_off,120,0,1,,,,,,,,,0,,,78,0
388998,note_off,78,0,2,,,,,,,,,1,,,81,0
389040,note_on,0,0,4,,,,,,,,,3,,,42,78
389040,note_off,240,0,4,,,,,,,,,3,,,54,0
389040,note_on,120,0,1,,,,,,,,,0,,,81,78
389160,note_off,120,0,1,,,,,,,,,0,,,81,0
389160,note_on,162,0,2,,,,,,,,,1,,,90,79
389238,note_off,78,0,2,,,,,,,,,1,,,90,0
389280,note_on,120,0,1,,,,,,,,,0,,,80,80
389280,note_on,0,0,4,,,,,,,,,3,,,49,80
389280,note_off,240,0,4,,,,,,,,,3,,,42,0
389400,note_off,120,0,1,,,,,,,,,0,,,80,0
389400,note_on,162,0,2,,,,,,,,,1,,,89,82
389478,note_off,78,0,2,,,,,,,,,1,,,89,0
389520,note_on,120,0,1,,,,,,,,,0,,,83,83
389520,note_off,240,0,4,,,,,,,,,3,,,49,0
389520,note_on,0,0,4,,,,,,,,,3,,,37,83
389640,note_on,162,0,2,,,,,,,,,1,,,92,85
389640,note_off,120,0,1,,,,,,,,,0,,,83,0
389640,set_tempo,3600,1,0,,,,,,379746,,,,,,,
389718,note_off,78,0,2,,,,,,,,,1,,,92,0
389760,note_on,120,0,1,,,,,,,,,0,,,66,64
389760,note_on,0,0,4,,,,,,,,,3,,,42,64
389760,note_off,240,0,4,,,,,,,,,3,,,37,0
389880,note_on,162,0,2,,,,,,,,,1,,,69,65
389880,note_off,120,0,1,,,,,,,,,0,,,66,0
389890,set_tempo,250,1,0,,,,,,377358,,,,,,,
389916,note_off,156,0,4,,,,,,,,,3,,,42,0
389958,note_off,78,0,2,,,,,,,,,1,,,69,0
390000,note_on,120,0,1,,,,,,,,,0,,,69,66
390000,note_on,84,0,4,,,,,,,,,3,,,54,66
390120,note_on,162,0,2,,,,,,,,,1,,,78,67
390120,note_off,120,0,1,,,,,,,,,0,,,69,0
390198,note_off,78,0,2,,,,,,,,,1,,,78,0
390240,note_on,120,0,1,,,,,,,,,0,,,68,69
390240,note_on,0,0,4,,,,,,,,,3,,,61,69
390240,note_off,240,0,4,,,,,,,,,3,,,54,0
390360,note_on,162,0,2,,,,,,,,,1,,,77,70
390360,note_off,120,0,1,,,,,,,,,0,,,68,0
390438,note_off,78,0,2,,,,,,,,,1,,,77,0
390480,note_on,120,0,1,,,,,,,,,0,,,77,71
390480,note_on,0,0,4,,,,,,,,,3,,,49,71
390480,note_off,240,0,4,,,,,,,,,3,,,61,0
390600,note_off,120,0,1,,,,,,,,,0,,,77,0
390600,note_on,162,0,2,,,,,,,,,1,,,80,72
390678,note_off,78,0,2,,,,,,,,,1,,,80,0
390720,note_off,240,0,4,,,,,,,,,3,,,49,0
390720,note_on,0,0,4,,,,,,,,,3,,,54,73
390720,note_on,120,0,1,,,,,,,,,0,,,69,73
390840,note_on,162,0,2,,,,,,,,,1,,,78,74
390840,note_off,120,0,1,,,,,,,,,0,,,69,0
390918,note_off,78,0,2,,,,,,,,,1,,,78,0
390960,note_off,240,0,4,,,,,,,,,3,,,54,0
390960,note_on,0,0,4,,,,,,,,,3,,,42,75
390960,note_on,120,0,1,,,,,,,,,0,,,78,75
391080,note_on,162,0,2,,,,,,,,,1,,,81,77
391080,note_off,120,0,1,,,,,,,,,0,,,78,0
391158,note_off,78,0,2,,,,,,,,,1,,,81,0
391200,note_on,120,0,1,,,,,,,,,0,,,77,78
391200,note_off,240,0,4,,,,,,,,,3,,,42,0
391200,note_on,0,0,4,,,,,,,,,3,,,49,78
391320,note_off,120,0,1,,,,,,,,,0,,,77,0
391320,note_on,162,0,2,,,,,,,,,1,,,80,79
391398,note_off,78,0,2,,,,,,,,,1,,,80,0
391440,note_on,0,0,4,,,,,,,,,3,,,37,80
391440,note_off,240,0,4,,,,,,,,,3,,,49,0
391440,note_on,120,0,1,,,,,,,,,0,,,80,80
391560,note_off,120,0,1,,,,,,,,,0,,,80,0
391560,note_on,162,0,2,,,,,,,,,1,,,83,81
391638,note_off,78,0,2,,,,,,,,,1,,,83,0
391680,note_on,0,0,4,,,,,,,,,3,,,42,82
391680,note_off,240,0,4,,,,,,,,,3,,,37,0
391680,note_on,120,0,1,,,,,,,,,0,,,69,82
391800,note_off,120,0,1,,,,,,,,,0,,,69,0
391800,note_on,162,0,2,,,,,,,,,1,,,78,84
391836,note_off,156,0,4,,,,,,,,,3,,,42,0
391878,note_off,78,0,2,,,,,,,,,1,,,78,0
391920,note_on,84,0,4,,,,,,,,,3,,,54,85
391920,note_on,120,0,1,,,,,,,,,0,,,78,85
392040,note_on,162,0,2,,,,,,,,,1,,,81,86
392040,note_off,120,0,1,,,,,,,,,0,,,78,0
392118,note_off,78,0,2,,,,,,,,,1,,,81,0
392160,note_off,240,0,4,,,,,,,,,3,,,54,0
392160,note_on,0,0,4,,,,,,,,,3,,,61,87
392160,note_on,120,0,1,,,,,,,,,0,,,77,87
392280,note_on,162,0,2,,,,,,,,,1,,,80,88
392280,note_off,120,0,1,,,,,,,,,0,,,77,0
392358,note_off,78,0,2,,,,,,,,,1,,,80,0
392400,note_on,0,0,4,,,,,,,,,3,,,49,89
392400,note_on,120,0,1,,,,,,,,,0,,,80,89
392400,note_off,240,0,4,,,,,,,,,3,,,61,0
392520,note_on,162,0,2,,,,,,,,,1,,,83,91
392520,note_off,120,0,1,,,,,,,,,0,,,80,0
392598,note_off,78,0,2,,,,,,,,,1,,,83,0
392640,note_off,240,0,4,,,,,,,,,3,,,49,0
392640,note_on,0,0,4,,,,,,,,,3,,,54,92
392640,note_on,120,0,1,,,,,,,,,0,,,78,92
392760,note_off,120,0,1,,,,,,,,,0,,,78,0
392760,note_on,162,0,2,,,,,,,,,1,,,81,93
392838,note_off,78,0,2,,,,,,,,,1,,,81,0
392880,note_on,0,0,4,,,,,,,,,3,,,42,94
392880,note_on,120,0,1,,,,,,,,,0,,,81,94
392880,note_off,240,0,4,,,,,,,,,3,,,54,0
393000,note_off,120,0,1,,,,,,,,,0,,,81,0
393000,note_on,162,0,2,,,,,,,,,1,,,90,95
393078,note_off,78,0,2,,,,,,,,,1,,,90,0
393120,note_on,120,0,1,,,,,,,,,0,,,78,96
393120,note_on,0,0,4,,,,,,,,,3,,,52,96
393120,note_off,240,0,4,,,,,,,,,3,,,42,0
393240,note_on,162,0,2,,,,,,,,,1,,,81,97
393240,note_off,120,0,1,,,,,,,,,0,,,78,0
393318,note_off,78,0,2,,,,,,,,,1,,,81,0
393360,note_on,0,0,4,,,,,,,,,3,,,40,99
393360,note_off,240,0,4,,,,,,,,,3,,,52,0
393360,note_on,120,0,1,,,,,,,,,0,,,81,99
393480,note_off,120,0,1,,,,,,,,,0,,,81,0
393480,note_on,162,0,2,,,,,,,,,1,,,90,100
393558,note_off,78,0,2,,,,,,,,,1,,,90,0
393600,note_off,240,0,4,,,,,,,,,3,,,40,0
393600,note_on,0,0,4,,,,,,,,,3,,,50,101
393600,note_on,120,0,1,,,,,,,,,0,,,78,101
393720,note_off,120,0,1,,,,,,,,,0,,,78,0
393720,note_on,162,0,2,,,,,,,,,1,,,81,102
393798,note_off,78,0,2,,,,,,,,,1,,,81,0
393840,note_off,240,0,4,,,,,,,,,3,,,50,0
393840,note_on,0,0,4,,,,,,,,,3,,,38,103
393840,note_on,120,0,1,,,,,,,,,0,,,81,103
393960,note_off,120,0,1,,,,,,,,,0,,,81,0
393960,note_on,162,0,2,,,,,,,,,1,,,90,104
394038,note_off,78,0,2,,,,,,,,,1,,,90,0
394080,note_on,120,0,1,,,,,,,,,0,,,78,106
394080,note_off,240,0,4,,,,,,,,,3,,,38,0
394080,note_on,0,0,4,,,,,,,,,3,,,50,106
394200,set_tempo,4310,1,0,,,,,,379746,,,,,,,
394200,note_on,162,0,2,,,,,,,,,1,,,81,107
394200,note_off,120,0,1,,,,,,,,,0,,,78,0
394278,note_off,78,0,2,,,,,,,,,1,,,81,0
394320,note_on,0,0,4,,,,,,,,,3,,,38,108
394320,note_off,240,0,4,,,,,,,,,3,,,50,0
394320,note_on,120,0,1,,,,,,,,,0,,,81,108
394320,set_tempo,120,1,0,,,,,,389610,,,,,,,
394440,set_tempo,120,1,0,,,,,,413793,,,,,,,
394440,note_off,120,0,1,,,,,,,,,0,,,81,0
394440,note_on,162,0,2,,,,,,,,,1,,,90,109
394518,note_off,78,0,2,,,,,,,,,1,,,90,0
394560,note_on,0,0,4,,,,,,,,,3,,,38,108
394560,note_on,0,0,2,,,,,,,,,1,,,81,108
394560,note_on,42,0,2,,,,,,,,,1,,,90,108
394560,note_on,0,0,2,,,,,,,,,1,,,84,108
394560,set_tempo,120,1,0,,,,,,461538,,,,,,,
394560,control_change,120,0,1,,,,,,,64,127,0,,,,
394560,control_change,0,0,1,,,,,,,64,127,0,,,,
394560,note_on,0,0,1,,,,,,,,,0,,,78,108
394560,note_off,240,0,4,,,,,,,,,3,,,38,0
394560,note_on,0,0,4,,,,,,,,,3,,,50,108
394920,note_off,360,0,4,,,,,,,,,3,,,38,0
394920,note_off,360,0,2,,,,,,,,,1,,,81,0
394920,note_off,0,0,2,,,,,,,,,1,,,84,0
394920,note_off,0,0,2,,,,,,,,,1,,,90,0
394920,note_off,360,0,1,,,,,,,,,0,,,78,0
394920,note_off,0,0,4,,,,,,,,,3,,,50,0
395280,control_change,0,0,1,,,,,,,64,0,0,,,,
395280,control_change,360,0,1,,,,,,,64,0,0,,,,
395280,note_on,0,0,1,,,,,,,,,0,,,59,97
395280,set_tempo,720,1,0,,,,,,379746,,,,,,,
395400,note_on,480,0,2,,,,,,,,,1,,,60,94
395400,set_tempo,120,1,0,,,,,,377358,,,,,,,
395400,note_off,120,0,1,,,,,,,,,0,,,59,0
395478,note_off,78,0,2,,,,,,,,,1,,,60,0
395520,note_on,120,0,1,,,,,,,,,0,,,59,92
395640,note_off,120,0,1,,,,,,,,,0,,,59,0
395640,note_on,162,0,2,,,,,,,,,1,,,60,91
395718,note_off,78,0,2,,,,,,,,,1,,,60,0
395760,note_on,120,0,1,,,,,,,,,0,,,59,91
395880,note_off,120,0,1,,,,,,,,,0,,,59,0
395880,note_on,162,0,2,,,,,,,,,1,,,60,90
395958,note_off,78,0,2,,,,,,,,,1,,,60,0
396000,note_on,120,0,1,,,,,,,,,0,,,65,90
396120,note_on,162,0,2,,,,,,,,,1,,,66,89
396120,note_off,120,0,1,,,,,,,,,0,,,65,0
396198,note_off,78,0,2,,,,,,,,,1,,,66,0
396240,note_on,120,0,1,,,,,,,,,0,,,65,89
396360,note_off,120,0,1,,,,,,,,,0,,,65,0
396360,note_on,162,0,2,,,,,,,,,1,,,66,89
396438,note_off,78,0,2,,,,,,,,,1,,,66,0
396480,note_on,120,0,1,,,,,,,,,0,,,68,88
396600,note_off,120,0,1,,,,,,,,,0,,,68,0
396600,note_on,162,0,2,,,,,,,,,1,,,69,88
396678,note_off,78,0,2,,,,,,,,,1,,,69,0
396720,note_on,120,0,1,,,,,,,,,0,,,68,87
396840,note_off,120,0,1,,,,,,,,,0,,,68,0
396840,note_on,162,0,2,,,,,,,,,1,,,69,87
396918,note_off,78,0,2,,,,,,,,,1,,,69,0
396960,note_on,120,0,1,,,,,,,,,0,,,71,86
397080,note_on,162,0,2,,,,,,,,,1,,,72,86
397080,note_off,120,0,1,,,,,,,,,0,,,71,0
397158,note_off,78,0,2,,,,,,,,,1,,,72,0
397200,note_on,120,0,1,,,,,,,,,0,,,71,85
397320,note_on,162,0,2,,,,,,,,,1,,,72,85
397320,note_off,120,0,1,,,,,,,,,0,,,71,0
397398,note_off,78,0,2,,,,,,,,,1,,,72,0
397440,note_on,120,0,1,,,,,,,,,0,,,77,84
397560,note_off,120,0,1,,,,,,,,,0,,,77,0
397560,note_on,162,0,2,,,,,,,,,1,,,78,84
397638,note_off,78,0,2,,,,,,,,,1,,,78,0
397680,note_on,120,0,1,,,,,,,,,0,,,77,83
397800,note_on,162,0,2,,,,,,,,,1,,,78,83
397800,note_off,120,0,1,,,,,,,,,0,,,77,0
397878,note_off,78,0,2,,,,,,,,,1,,,78,0
397920,note_on,120,0,1,,,,,,,,,0,,,80,82
398040,note_off,120,0,1,,,,,,,,,0,,,80,0
398040,note_on,162,0,2,,,,,,,,,1,,,81,82
398118,note_off,78,0,2,,,,,,,,,1,,,81,0
398160,note_on,120,0,1,,,,,,,,,0,,,80,81
398280,note_on,162,0,2,,,,,,,,,1,,,81,81
398280,note_off,120,0,1,,,,,,,,,0,,,80,0
398358,note_off,78,0,2,,,,,,,,,1,,,81,0
398400,note_on,120,0,1,,,,,,,,,0,,,83,80
398520,note_off,120,0,1,,,,,,,,,0,,,83,0
398520,note_on,162,0,2,,,,,,,,,1,,,84,80
398598,note_off,78,0,2,,,,,,,,,1,,,84,0
398640,note_on,120,0,1,,,,,,,,,0,,,83,79
398760,note_on,162,0,2,,,,,,,,,1,,,84,79
398760,note_off,120,0,1,,,,,,,,,0,,,83,0
398838,note_off,78,0,2,,,,,,,,,1,,,84,0
398880,note_on,120,0,1,,,,,,,,,0,,,89,78
399000,note_off,120,0,1,,,,,,,,,0,,,89,0
399000,note_on,162,0,2,,,,,,,,,1,,,90,78
399078,note_off,78,0,2,,,,,,,,,1,,,90,0
399120,note_on,120,0,1,,,,,,,,,0,,,89,77
399240,note_off,120,0,1,,,,,,,,,0,,,89,0
399240,note_on,162,0,2,,,,,,,,,1,,,90,77
399318,note_off,78,0,2,,,,,,,,,1,,,90,0
399360,note_on,120,0,1,,,,,,,,,0,,,92,76
399480,note_on,162,0,2,,,,,,,,,1,,,93,76
399480,note_off,120,0,1,,,,,,,,,0,,,92,0
399558,note_off,78,0,2,,,,,,,,,1,,,93,0
399600,note_on,120,0,1,,,,,,,,,0,,,92,75
399720,note_off,120,0,1,,,,,,,,,0,,,92,0
399720,note_on,162,0,2,,,,,,,,,1,,,93,75
399798,note_off,78,0,2,,,,,,,,,1,,,93,0
399840,note_on,120,0,1,,,,,,,,,0,,,89,74
399960,note_off,120,0,1,,,,,,,,,0,,,89,0
399960,note_on,162,0,2,,,,,,,,,1,,,90,74
400038,note_off,78,0,2,,,,,,,,,1,,,90,0
400080,note_on,120,0,1,,,,,,,,,0,,,89,74
400200,note_off,120,0,1,,,,,,,,,0,,,89,0
400200,note_on,162,0,2,,,,,,,,,1,,,90,73
400278,note_off,78,0,2,,,,,,,,,1,,,90,0
400320,note_on,120,0,1,,,,,,,,,0,,,83,73
400440,note_off,120,0,1,,,,,,,,,0,,,83,0
400440,note_on,162,0,2,,,,,,,,,1,,,84,72
400518,note_off,78,0,2,,,,,,,,,1,,,84,0
400560,note_on,120,0,1,,,,,,,,,0,,,92,72
400680,note_on,162,0,2,,,,,,,,,1,,,93,71
400680,note_off,120,0,1,,,,,,,,,0,,,92,0
400758,note_off,78,0,2,,,,,,,,,1,,,93,0
400800,note_on,120,0,1,,,,,,,,,0,,,80,71
400920,note_off,120,0,1,,,,,,,,,0,,,80,0
400920,note_on,162,0,2,,,,,,,,,1,,,81,70
400998,note_off,78,0,2,,,,,,,,,1,,,81,0
401040,note_on,120,0,1,,,,,,,,,0,,,89,70
401160,note_on,162,0,2,,,,,,,,,1,,,90,69
401160,note_off,120,0,1,,,,,,,,,0,,,89,0
401238,note_off,78,0,2,,,,,,,,,1,,,90,0
401280,note_on,120,0,1,,,,,,,,,0,,,80,69
401400,note_off,120,0,1,,,,,,,,,0,,,80,0
401400,note_on,162,0,2,,,,,,,,,1,,,81,68
401478,note_off,78,0,2,,,,,,,,,1,,,81,0
401520,note_on,120,0,1,,,,,,,,,0,,,83,68
401640,note_on,162,0,2,,,,,,,,,1,,,84,67
401640,note_off,120,0,1,,,,,,,,,0,,,83,0
401718,note_off,78,0,2,,,,,,,,,1,,,84,0
401760,note_on,120,0,1,,,,,,,,,0,,,77,67
401880,note_off,120,0,1,,,,,,,,,0,,,77,0
401880,note_on,162,0,2,,,,,,,,,1,,,78,66
401958,note_off,78,0,2,,,,,,,,,1,,,78,0
402000,note_on,120,0,1,,,,,,,,,0,,,81,66
402120,note_off,120,0,1,,,,,,,,,0,,,81,0
402120,note_on,162,0,2,,,,,,,,,1,,,84,65
402198,note_off,78,0,2,,,,,,,,,1,,,84,0
402240,note_on,120,0,1,,,,,,,,,0,,,71,65
402360,note_on,162,0,2,,,,,,,,,1,,,72,64
402360,note_off,120,0,1,,,,,,,,,0,,,71,0
402438,note_off,78,0,2,,,,,,,,,1,,,72,0
402480,note_on,120,0,1,,,,,,,,,0,,,83,64
402600,note_off,120,0,1,,,,,,,,,0,,,83,0
402600,note_on,162,0,2,,,,,,,,,1,,,84,63
402678,note_off,78,0,2,,,,,,,,,1,,,84,0
402720,note_on,120,0,1,,,,,,,,,0,,,68,63
402840,note_on,162,0,2,,,,,,,,,1,,,69,62
402840,note_off,120,0,1,,,,,,,,,0,,,68,0
402918,note_off,78,0,2,,,,,,,,,1,,,69,0
402960,note_on,120,0,1,,,,,,,,,0,,,83,62
403080,note_off,120,0,1,,,,,,,,,0,,,83,0
403080,note_on,162,0,2,,,,,,,,,1,,,84,61
403158,note_off,78,0,2,,,,,,,,,1,,,84,0
403200,note_on,120,0,1,,,,,,,,,0,,,65,61
403320,note_off,120,0,1,,,,,,,,,0,,,65,0
403320,note_on,162,0,2,,,,,,,,,1,,,66,60
403398,note_off,78,0,2,,,,,,,,,1,,,66,0
403440,note_on,120,0,1,,,,,,,,,0,,,81,60
403560,note_on,162,0,2,,,,,,,,,1,,,84,59
403560,note_off,120,0,1,,,,,,,,,0,,,81,0
403638,note_off,78,0,2,,,,,,,,,1,,,84,0
403680,note_on,120,0,1,,,,,,,,,0,,,68,59
403800,note_off,120,0,1,,,,,,,,,0,,,68,0
403800,note_on,162,0,2,,,,,,,,,1,,,69,59
403878,note_off,78,0,2,,,,,,,,,1,,,69,0
403920,note_on,120,0,1,,,,,,,,,0,,,83,58
404040,note_off,120,0,1,,,,,,,,,0,,,83,0
404040,note_on,162,0,2,,,,,,,,,1,,,84,58
404118,note_off,78,0,2,,,,,,,,,1,,,84,0
404160,note_on,120,0,1,,,,,,,,,0,,,65,57
404280,note_on,162,0,2,,,,,,,,,1,,,66,57
404280,note_off,120,0,1,,,,,,,,,0,,,65,0
404358,note_off,78,0,2,,,,,,,,,1,,,66,0
404400,note_on,120,0,1,,,,,,,,,0,,,81,56
404520,note_on,162,0,2,,,,,,,,,1,,,84,56
404520,note_off,120,0,1,,,,,,,,,0,,,81,0
404598,note_off,78,0,2,,,,,,,,,1,,,84,0
404640,note_on,120,0,1,,,,,,,,,0,,,80,55
404760,note_off,120,0,1,,,,,,,,,0,,,80,0
404760,note_on,162,0,2,,,,,,,,,1,,,81,55
404838,note_off,78,0,2,,,,,,,,,1,,,81,0
404880,note_on,120,0,1,,,,,,,,,0,,,71,54
405000,note_off,120,0,1,,,,,,,,,0,,,71,0
405000,note_on,162,0,2,,,,,,,,,1,,,72,54
405078,note_off,78,0,2,,,,,,,,,1,,,72,0
405120,note_on,120,0,1,,,,,,,,,0,,,77,53
405240,note_on,162,0,2,,,,,,,,,1,,,78,53
405240,note_off,120,0,1,,,,,,,,,0,,,77,0
405318,note_off,78,0,2,,,,,,,,,1,,,78,0
405360,note_on,120,0,1,,,,,,,,,0,,,69,52
405480,note_on,162,0,2,,,,,,,,,1,,,72,52
405480,note_off,120,0,1,,,,,,,,,0,,,69,0
405558,note_off,78,0,2,,,,,,,,,1,,,72,0
405600,note_on,120,0,1,,,,,,,,,0,,,80,51
405720,note_on,162,0,2,,,,,,,,,1,,,81,51
405720,note_off,120,0,1,,,,,,,,,0,,,80,0
405798,note_off,78,0,2,,,,,,,,,1,,,81,0
405840,note_on,120,0,1,,,,,,,,,0,,,71,50
405960,note_on,162,0,2,,,,,,,,,1,,,72,50
405960,note_off,120,0,1,,,,,,,,,0,,,71,0
406038,note_off,78,0,2,,,,,,,,,1,,,72,0
406080,note_on,120,0,1,,,,,,,,,0,,,77,49
406200,note_on,162,0,2,,,,,,,,,1,,,78,49
406200,note_off,120,0,1,,,,,,,,,0,,,77,0
406278,note_off,78,0,2,,,,,,,,,1,,,78,0
406320,note_on,120,0,1,,,,,,,,,0,,,69,48
406440,note_on,162,0,2,,,,,,,,,1,,,72,48
406440,note_off,120,0,1,,,,,,,,,0,,,69,0
406518,note_off,78,0,2,,,,,,,,,1,,,72,0
406560,note_on,120,0,1,,,,,,,,,0,,,80,47
406680,note_off,120,0,1,,,,,,,,,0,,,80,0
406680,note_on,162,0,2,,,,,,,,,1,,,81,47
406758,note_off,78,0,2,,,,,,,,,1,,,81,0
406800,note_on,120,0,1,,,,,,,,,0,,,71,46
406920,note_off,120,0,1,,,,,,,,,0,,,71,0
406920,note_on,162,0,2,,,,,,,,,1,,,72,46
406998,note_off,78,0,2,,,,,,,,,1,,,72,0
407040,note_on,120,0,1,,,,,,,,,0,,,77,45
407160,note_off,120,0,1,,,,,,,,,0,,,77,0
407160,note_on,162,0,2,,,,,,,,,1,,,78,45
407238,note_off,78,0,2,,,,,,,,,1,,,78,0
407280,note_on,120,0,1,,,,,,,,,0,,,69,45
407400,note_on,162,0,2,,,,,,,,,1,,,72,44
407400,note_off,120,0,1,,,,,,,,,0,,,69,0
407478,note_off,78,0,2,,,,,,,,,1,,,72,0
407520,note_on,120,0,1,,,,,,,,,0,,,80,44
407640,note_off,120,0,1,,,,,,,,,0,,,80,0
407640,note_on,162,0,2,,,,,,,,,1,,,81,43
407718,note_off,78,0,2,,,,,,,,,1,,,81,0
407760,note_on,120,0,1,,,,,,,,,0,,,69,43
407880,note_on,162,0,2,,,,,,,,,1,,,72,42
407880,note_off,120,0,1,,,,,,,,,0,,,69,0
407958,note_off,78,0,2,,,,,,,,,1,,,72,0
408000,note_on,120,0,1,,,,,,,,,0,,,77,42
408120,note_off,120,0,1,,,,,,,,,0,,,77,0
408120,note_on,162,0,2,,,,,,,,,1,,,78,41
408198,note_off,78,0,2,,,,,,,,,1,,,78,0
408240,note_on,120,0,1,,,,,,,,,0,,,69,41
408360,note_off,120,0,1,,,,,,,,,0,,,69,0
408360,note_on,162,0,2,,,,,,,,,1,,,72,40
408438,note_off,78,0,2,,,,,,,,,1,,,72,0
408480,note_on,120,0,1,,,,,,,,,0,,,80,40
408600,note_off,120,0,1,,,,,,,,,0,,,80,0
408600,note_on,162,0,2,,,,,,,,,1,,,81,39
408678,note_off,78,0,2,,,,,,,,,1,,,81,0
408720,note_on,120,0,1,,,,,,,,,0,,,69,39
408840,note_off,120,0,1,,,,,,,,,0,,,69,0
408840,note_on,162,0,2,,,,,,,,,1,,,72,38
408918,note_off,78,0,2,,,,,,,,,1,,,72,0
408960,note_on,120,0,1,,,,,,,,,0,,,68,38
409080,note_off,120,0,1,,,,,,,,,0,,,68,0
409080,note_on,162,0,2,,,,,,,,,1,,,69,37
409158,note_off,78,0,2,,,,,,,,,1,,,69,0
409200,note_on,120,0,1,,,,,,,,,0,,,80,36
409320,note_off,120,0,1,,,,,,,,,0,,,80,0
409320,note_on,162,0,2,,,,,,,,,1,,,81,36
409398,note_off,78,0,2,,,,,,,,,1,,,81,0
409440,note_on,120,0,1,,,,,,,,,0,,,71,35
409560,note_on,162,0,2,,,,,,,,,1,,,72,35
409560,note_off,120,0,1,,,,,,,,,0,,,71,0
409638,note_off,78,0,2,,,,,,,,,1,,,72,0
409680,note_on,120,0,1,,,,,,,,,0,,,83,34
409800,note_on,162,0,2,,,,,,,,,1,,,84,34
409800,note_off,120,0,1,,,,,,,,,0,,,83,0
409878,note_off,78,0,2,,,,,,,,,1,,,84,0
409920,note_on,120,0,1,,,,,,,,,0,,,68,33
410040,note_on,162,0,2,,,,,,,,,1,,,69,33
410040,note_off,120,0,1,,,,,,,,,0,,,68,0
410118,note_off,78,0,2,,,,,,,,,1,,,69,0
410160,note_on,120,0,1,,,,,,,,,0,,,80,32
410280,note_on,162,0,2,,,,,,,,,1,,,81,32
410280,note_off,120,0,1,,,,,,,,,0,,,80,0
410358,note_off,78,0,2,,,,,,,,,1,,,81,0
410400,note_on,120,0,1,,,,,,,,,0,,,71,31
410520,note_off,120,0,1,,,,,,,,,0,,,71,0
410520,set_tempo,15120,1,0,,,,,,379746,,,,,,,
410520,note_on,162,0,2,,,,,,,,,1,,,72,31
410598,note_off,78,0,2,,,,,,,,,1,,,72,0
410640,set_tempo,120,1,0,,,,,,394736,,,,,,,
410640,note_on,120,0,1,,,,,,,,,0,,,83,30
410760,note_on,162,0,2,,,,,,,,,1,,,84,30
410760,set_tempo,120,1,0,,,,,,540540,,,,,,,
410760,note_off,120,0,1,,,,,,,,,0,,,83,0
410838,note_off,78,0,2,,,,,,,,,1,,,84,0
410880,note_on,42,0,2,,,,,,,,,1,,,72,79
410880,note_on,120,0,1,,,,,,,,,0,,,84,79
410880,note_on,49764,0,3,,,,,,,,,2,,,66,79
410880,note_on,15960,0,4,,,,,,,,,3,,,62,79
410880,set_tempo,120,1,0,,,,,,377358,,,,,,,
410880,note_on,0,0,2,,,,,,,,,1,,,78,79
411600,note_off,720,0,1,,,,,,,,,0,,,84,0
411600,note_on,0,0,1,,,,,,,,,0,,,85,77
411600,note_off,720,0,3,,,,,,,,,2,,,66,0
411600,note_on,0,0,3,,,,,,,,,2,,,68,77
411600,set_tempo,720,1,0,,,,,,379746,,,,,,,
411600,note_on,0,0,3,,,,,,,,,2,,,65,77
411600,note_off,720,0,4,,,,,,,,,3,,,62,0
411600,note_off,0,0,2,,,,,,,,,1,,,72,0
411600,note_on,0,0,2,,,,,,,,,1,,,73,77
411600,note_on,0,0,2,,,,,,,,,1,,,77,77
411600,note_on,0,0,4,,,,,,,,,3,,,61,77
411600,note_off,720,0,2,,,,,,,,,1,,,78,0
411756,note_off,156,0,4,,,,,,,,,3,,,61,0
411756,note_off,156,0,3,,,,,,,,,2,,,65,0
411756,note_off,0,0,3,,,,,,,,,2,,,68,0
411756,note_off,156,0,1,,,,,,,,,0,,,85,0
411756,note_off,156,0,2,,,,,,,,,1,,,77,0
411756,note_off,0,0,2,,,,,,,,,1,,,73,0
411840,set_tempo,240,1,0,,,,,,384615,,,,,,,
411840,note_on,0,0,2,,,,,,,,,1,,,73,73
411840,note_on,84,0,4,,,,,,,,,3,,,61,73
411840,note_on,0,0,3,,,,,,,,,2,,,68,73
411840,note_on,84,0,3,,,,,,,,,2,,,65,73
411840,note_on,84,0,1,,,,,,,,,0,,,80,73
411840,note_on,84,0,2,,,,,,,,,1,,,77,73
412032,note_off,192,0,4,,,,,,,,,3,,,61,0
412032,note_off,192,0,1,,,,,,,,,0,,,80,0
412032,note_off,0,0,2,,,,,,,,,1,,,77,0
412032,note_off,192,0,2,,,,,,,,,1,,,73,0
412032,note_off,192,0,3,,,,,,,,,2,,,68,0
412032,note_off,0,0,3,,,,,,,,,2,,,65,0
412560,note_on,528,0,1,,,,,,,,,0,,,58,47
412560,note_on,528,0,2,,,,,,,,,1,,,49,47
412560,note_on,528,0,4,,,,,,,,,3,,,37,47
412740,set_tempo,900,1,0,,,,,,389610,,,,,,,
412800,note_off,240,0,4,,,,,,,,,3,,,37,0
412800,note_on,0,0,4,,,,,,,,,3,,,35,49
412800,note_off,240,0,1,,,,,,,,,0,,,58,0
412800,note_on,0,0,1,,,,,,,,,0,,,59,49
412800,note_off,240,0,2,,,,,,,,,1,,,49,0
412800,note_on,0,0,2,,,,,,,,,1,,,51,49
413160,note_off,360,0,2,,,,,,,,,1,,,51,0
413160,note_on,0,0,2,,,,,,,,,1,,,49,46
413160,note_off,360,0,1,,,,,,,,,0,,,59,0
413160,note_on,0,0,1,,,,,,,,,0,,,58,46
413160,note_off,360,0,4,,,,,,,,,3,,,35,0
413160,note_on,0,0,4,,,,,,,,,3,,,37,46
413280,note_off,120,0,1,,,,,,,,,0,,,58,0
413280,note_on,0,0,1,,,,,,,,,0,,,56,46
413280,note_on,0,0,2,,,,,,,,,1,,,47,46
413280,note_off,120,0,2,,,,,,,,,1,,,49,0
413280,note_on,0,0,4,,,,,,,,,3,,,39,46
413280,note_off,120,0,4,,,,,,,,,3,,,37,0
413520,note_off,240,0,4,,,,,,,,,3,,,39,0
413520,note_on,0,0,4,,,,,,,,,3,,,36,44
413520,note_on,0,0,2,,,,,,,,,1,,,46,44
413520,note_off,240,0,2,,,,,,,,,1,,,47,0
413520,note_off,240,0,1,,,,,,,,,0,,,56,0
413520,note_on,0,0,1,,,,,,,,,0,,,54,44
413760,note_off,240,0,4,,,,,,,,,3,,,36,0
413760,note_on,0,0,4,,,,,,,,,3,,,37,42
413760,note_off,240,0,2,,,,,,,,,1,,,46,0
413760,note_on,0,0,2,,,,,,,,,1,,,44,42
413760,note_off,240,0,1,,,,,,,,,0,,,54,0
413760,note_on,0,0,1,,,,,,,,,0,,,53,42
414240,set_tempo,1500,1,0,,,,,,408163,,,,,,,
414240,note_off,480,0,4,,,,,,,,,3,,,37,0
414240,note_off,480,0,2,,,,,,,,,1,,,44,0
414240,note_off,480,0,1,,,,,,,,,0,,,53,0
414720,note_on,480,0,1,,,,,,,,,0,,,85,79
414720,set_tempo,480,1,0,,,,,,377358,,,,,,,
414720,note_on,480,0,4,,,,,,,,,3,,,61,79
414720,note_on,480,0,2,,,,,,,,,1,,,73,79
414720,note_on,2688,0,3,,,,,,,,,2,,,66,79
414720,note_on,0,0,3,,,,,,,,,2,,,64,79
414720,note_on,0,0,2,,,,,,,,,1,,,82,79
415440,note_off,720,0,1,,,,,,,,,0,,,85,0
415440,note_on,0,0,1,,,,,,,,,0,,,87,77
415440,note_on,0,0,3,,,,,,,,,2,,,66,77
415440,note_off,720,0,3,,,,,,,,,2,,,64,0
415440,note_on,0,0,3,,,,,,,,,2,,,63,77
415440,note_off,0,0,3,,,,,,,,,2,,,66,0
415440,note_on,0,0,4,,,,,,,,,3,,,59,77
415440,note_on,0,0,2,,,,,,,,,1,,,75,77
415440,note_on,0,0,2,,,,,,,,,1,,,83,77
415440,note_off,720,0,4,,,,,,,,,3,,,61,0
415440,note_off,0,0,2,,,,,,,,,1,,,73,0
415440,note_off,720,0,2,,,,,,,,,1,,,82,0
415450,set_tempo,730,1,0,,,,,,379746,,,,,,,
415596,note_off,156,0,4,,,,,,,,,3,,,59,0
415596,note_off,0,0,2,,,,,,,,,1,,,83,0
415596,note_off,156,0,2,,,,,,,,,1,,,75,0
415596,note_off,156,0,1,,,,,,,,,0,,,87,0
415596,note_off,0,0,3,,,,,,,,,2,,,66,0
415596,note_off,156,0,3,,,,,,,,,2,,,63,0
415680,note_on,0,0,2,,,,,,,,,1,,,85,76
415680,note_on,84,0,1,,,,,,,,,0,,,88,76
415680,note_on,0,0,3,,,,,,,,,2,,,61,76
415680,note_on,84,0,3,,,,,,,,,2,,,66,76
415680,set_tempo,230,1,0,,,,,,384615,,,,,,,
415680,note_on,84,0,2,,,,,,,,,1,,,76,76
415680,note_on,84,0,4,,,,,,,,,3,,,58,76
415872,note_off,192,0,1,,,,,,,,,0,,,88,0
415872,note_off,192,0,4,,,,,,,,,3,,,58,0
415872,note_off,192,0,2,,,,,,,,,1,,,85,0
415872,note_off,192,0,3,,,,,,,,,2,,,61,0
415872,note_off,0,0,3,,,,,,,,,2,,,66,0
415872,note_off,0,0,2,,,,,,,,,1,,,76,0
416400,note_on,528,0,2,,,,,,,,,1,,,51,47
416400,note_on,528,0,4,,,,,,,,,3,,,35,47
416400,note_on,528,0,1,,,,,,,,,0,,,54,47
416580,set_tempo,900,1,0,,,,,,389610,,,,,,,
416640,note_off,240,0,1,,,,,,,,,0,,,54,0
416640,note_off,240,0,4,,,,,,,,,3,,,35,0
416640,note_on,0,0,4,,,,,,,,,3,,,40,49
416640,note_off,240,0,2,,,,,,,,,1,,,51,0
416640,note_on,0,0,2,,,,,,,,,1,,,52,49
416640,note_on,0,0,1,,,,,,,,,0,,,56,49
417000,note_on,0,0,2,,,,,,,,,1,,,49,47
417000,note_off,360,0,1,,,,,,,,,0,,,56,0
417000,note_off,360,0,2,,,,,,,,,1,,,52,0
417000,note_on,0,0,4,,,,,,,,,3,,,37,47
417000,note_on,0,0,1,,,,,,,,,0,,,52,47
417000,note_off,360,0,4,,,,,,,,,3,,,40,0
417120,note_on,0,0,2,,,,,,,,,1,,,47,47
417120,note_off,120,0,2,,,,,,,,,1,,,49,0
417120,note_on,0,0,1,,,,,,,,,0,,,51,47
417120,note_off,120,0,1,,,,,,,,,0,,,52,0
417120,note_on,0,0,4,,,,,,,,,3,,,42,47
417120,note_off,120,0,4,,,,,,,,,3,,,37,0
417360,note_on,0,0,4,,,,,,,,,3,,,42,46
417360,note_off,240,0,4,,,,,,,,,3,,,42,0
417360,note_on,0,0,1,,,,,,,,,0,,,49,46
417360,note_off,240,0,1,,,,,,,,,0,,,51,0
417360,note_on,0,0,2,,,,,,,,,1,,,46,46
417360,note_off,240,0,2,,,,,,,,,1,,,47,0
417600,note_off,240,0,2,,,,,,,,,1,,,46,0
417600,note_off,240,0,4,,,,,,,,,3,,,42,0
417600,note_on,0,0,2,,,,,,,,,1,,,47,44
417600,note_off,240,0,1,,,,,,,,,0,,,49,0
417600,note_on,0,0,1,,,,,,,,,0,,,51,44
417600,note_on,0,0,4,,,,,,,,,3,,,35,44
418080,set_tempo,1500,1,0,,,,,,408163,,,,,,,
418080,note_off,480,0,4,,,,,,,,,3,,,35,0
418080,note_off,480,0,2,,,,,,,,,1,,,47,0
418080,note_off,480,0,1,,,,,,,,,0,,,51,0
418560,note_on,2688,0,3,,,,,,,,,2,,,66,45
418560,set_tempo,480,1,0,,,,,,377358,,,,,,,
418560,note_on,480,0,1,,,,,,,,,0,,,83,45
418560,note_on,480,0,2,,,,,,,,,1,,,71,45
418560,note_on,480,0,4,,,,,,,,,3,,,63,45
419280,note_on,0,0,4,,,,,,,,,3,,,61,43
419280,note_on,0,0,1,,,,,,,,,0,,,82,43
419280,note_off,720,0,4,,,,,,,,,3,,,63,0
419280,note_off,720,0,3,,,,,,,,,2,,,66,0
419280,note_on,0,0,3,,,,,,,,,2,,,66,43
419280,note_off,720,0,2,,,,,,,,,1,,,71,0
419280,note_on,0,0,2,,,,,,,,,1,,,70,43
419280,note_off,720,0,1,,,,,,,,,0,,,83,0
419300,set_tempo,740,1,0,,,,,,379746,,,,,,,
419520,note_off,240,0,1,,,,,,,,,0,,,82,0
419520,note_on,0,0,1,,,,,,,,,0,,,87,40
419520,note_off,240,0,2,,,,,,,,,1,,,70,0
419520,note_on,0,0,4,,,,,,,,,3,,,59,40
419520,note_on,0,0,3,,,,,,,,,2,,,66,40
419520,note_off,240,0,3,,,,,,,,,2,,,66,0
419520,set_tempo,220,1,0,,,,,,384615,,,,,,,
419520,note_on,0,0,2,,,,,,,,,1,,,75,40
419520,note_off,240,0,4,,,,,,,,,3,,,61,0
420000,note_off,480,0,4,,,,,,,,,3,,,59,0
420000,note_off,480,0,1,,,,,,,,,0,,,87,0
420000,note_off,480,0,2,,,,,,,,,1,,,75,0
420000,note_off,480,0,3,,,,,,,,,2,,,66,0
420240,note_on,240,0,2,,,,,,,,,1,,,54,40
420240,note_on,240,0,4,,,,,,,,,3,,,46,40
420240,note_on,240,0,1,,,,,,,,,0,,,61,40
420420,set_tempo,900,1,0,,,,,,389610,,,,,,,
420480,note_off,240,0,4,,,,,,,,,3,,,46,0
420480,note_on,0,0,4,,,,,,,,,3,,,44,43
420480,note_off,240,0,2,,,,,,,,,1,,,54,0
420480,note_on,0,0,2,,,,,,,,,1,,,54,43
420480,note_off,240,0,1,,,,,,,,,0,,,61,0
420480,note_on,0,0,1,,,,,,,,,0,,,59,43
420840,note_off,360,0,4,,,,,,,,,3,,,44,0
420840,note_off,360,0,1,,,,,,,,,0,,,59,0
420840,note_on,0,0,1,,,,,,,,,0,,,58,40
420840,note_on,0,0,4,,,,,,,,,3,,,46,40
420960,note_off,120,0,4,,,,,,,,,3,,,46,0
420960,note_off,120,0,1,,,,,,,,,0,,,58,0
420960,note_on,0,0,1,,,,,,,,,0,,,56,39
420960,note_on,0,0,4,,,,,,,,,3,,,47,39
421200,note_on,0,0,1,,,,,,,,,0,,,61,37
421200,note_on,0,0,2,,,,,,,,,1,,,53,37
421200,note_off,720,0,2,,,,,,,,,1,,,54,0
421200,note_on,0,0,4,,,,,,,,,3,,,49,37
421200,note_off,240,0,1,,,,,,,,,0,,,56,0
421200,note_off,240,0,4,,,,,,,,,3,,,47,0
421440,note_on,0,0,2,,,,,,,,,1,,,54,41
421440,note_off,240,0,2,,,,,,,,,1,,,53,0
421440,note_off,240,0,1,,,,,,,,,0,,,61,0
421440,note_off,240,0,4,,,,,,,,,3,,,49,0
421440,note_on,0,0,4,,,,,,,,,3,,,42,41
421440,note_on,0,0,1,,,,,,,,,0,,,58,41
421800,note_on,0,0,4,,,,,,,,,3,,,44,37
421800,note_off,360,0,4,,,,,,,,,3,,,42,0
421920,note_on,0,0,4,,,,,,,,,3,,,46,36
421920,note_off,120,0,4,,,,,,,,,3,,,44,0
422160,note_on,0,0,1,,,,,,,,,0,,,63,33
422160,note_on,0,0,4,,,,,,,,,3,,,47,33
422160,note_off,240,0,4,,,,,,,,,3,,,46,0
422160,note_on,0,0,2,,,,,,,,,1,,,54,33
422160,note_off,720,0,2,,,,,,,,,1,,,54,0
422160,note_off,720,0,1,,,,,,,,,0,,,58,0
422400,note_on,0,0,4,,,,,,,,,3,,,44,37
422400,note_off,240,0,4,,,,,,,,,3,,,47,0
422400,note_off,240,0,1,,,,,,,,,0,,,63,0
422400,note_on,0,0,1,,,,,,,,,0,,,59,37
422400,note_off,240,0,2,,,,,,,,,1,,,54,0
422400,note_on,0,0,2,,,,,,,,,1,,,54,37
422760,note_on,0,0,1,,,,,,,,,0,,,58,34
422760,note_off,360,0,1,,,,,,,,,0,,,59,0
422760,note_on,0,0,4,,,,,,,,,3,,,46,34
422760,note_off,360,0,4,,,,,,,,,3,,,44,0
422880,note_on,0,0,1,,,,,,,,,0,,,56,33
422880,note_on,0,0,4,,,,,,,,,3,,,47,33
422880,note_off,120,0,4,,,,,,,,,3,,,46,0
422880,note_off,120,0,1,,,,,,,,,0,,,58,0
423120,note_on,0,0,4,,,,,,,,,3,,,49,32
423120,note_off,240,0,4,,,,,,,,,3,,,47,0
423120,note_on,0,0,2,,,,,,,,,1,,,53,32
423120,note_off,720,0,2,,,,,,,,,1,,,54,0
423120,note_on,0,0,1,,,,,,,,,0,,,61,32
423120,note_off,240,0,1,,,,,,,,,0,,,56,0
423360,note_off,240,0,2,,,,,,,,,1,,,53,0
423360,note_on,0,0,1,,,,,,,,,0,,,58,41
423360,note_off,240,0,4,,,,,,,,,3,,,49,0
423360,note_on,0,0,2,,,,,,,,,1,,,54,41
423360,note_on,0,0,4,,,,,,,,,3,,,42,41
423360,note_off,240,0,1,,,,,,,,,0,,,61,0
423720,note_off,360,0,4,,,,,,,,,3,,,42,0
423720,note_on,0,0,4,,,,,,,,,3,,,44,38
423840,note_on,0,0,4,,,,,,,,,3,,,46,37
423840,note_off,120,0,4,,,,,,,,,3,,,44,0
424080,note_on,0,0,4,,,,,,,,,3,,,47,38
424080,note_on,0,0,2,,,,,,,,,1,,,61,38
424080,note_on,0,0,2,,,,,,,,,1,,,54,38
424080,note_on,720,0,1,,,,,,,,,0,,,66,38
424080,note_off,240,0,4,,,,,,,,,3,,,46,0
424080,note_off,720,0,2,,,,,,,,,1,,,54,0
424095,note_off,15,0,1,,,,,,,,,0,,,58,0
424320,note_off,240,0,2,,,,,,,,,1,,,61,0
424320,note_off,240,0,4,,,,,,,,,3,,,47,0
424320,note_off,0,0,2,,,,,,,,,1,,,54,0
424320,note_on,0,0,1,,,,,,,,,0,,,64,43
424320,note_off,225,0,1,,,,,,,,,0,,,66,0
424320,note_on,0,0,2,,,,,,,,,1,,,58,43
424320,note_on,0,0,2,,,,,,,,,1,,,54,43
424320,note_on,0,0,4,,,,,,,,,3,,,49,43
424680,note_off,360,0,1,,,,,,,,,0,,,64,0
424680,note_on,0,0,1,,,,,,,,,0,,,63,41
424680,note_on,360,0,4,,,,,,,,,3,,,51,42
424695,note_off,15,0,4,,,,,,,,,3,,,49,0
424800,note_off,120,0,1,,,,,,,,,0,,,63,0
424800,note_on,0,0,1,,,,,,,,,0,,,61,41
424800,note_off,105,0,4,,,,,,,,,3,,,51,0
424800,note_on,0,0,4,,,,,,,,,3,,,52,42
425032,note_off,712,0,2,,,,,,,,,1,,,58,0
425032,note_off,0,0,2,,,,,,,,,1,,,54,0
425040,note_off,240,0,1,,,,,,,,,0,,,61,0
425040,note_on,0,0,2,,,,,,,,,1,,,58,43
425040,note_on,8,0,2,,,,,,,,,1,,,61,43
425040,note_on,0,0,1,,,,,,,,,0,,,66,43
425040,note_on,0,0,4,,,,,,,,,3,,,54,42
425040,note_off,240,0,4,,,,,,,,,3,,,52,0
425280,note_off,240,0,4,,,,,,,,,3,,,54,0
425280,note_on,0,0,4,,,,,,,,,3,,,56,51
425280,note_off,240,0,2,,,,,,,,,1,,,58,0
425280,note_off,0,0,2,,,,,,,,,1,,,61,0
425280,note_off,240,0,1,,,,,,,,,0,,,66,0
425280,note_on,0,0,1,,,,,,,,,0,,,64,51
425640,note_off,360,0,4,,,,,,,,,3,,,56,0
425640,note_on,0,0,4,,,,,,,,,3,,,58,46
425760,note_off,120,0,4,,,,,,,,,3,,,58,0
425760,note_on,0,0,4,,,,,,,,,3,,,59,45
426000,note_on,720,0,2,,,,,,,,,1,,,70,49
426000,note_on,0,0,2,,,,,,,,,1,,,76,49
426000,note_off,240,0,4,,,,,,,,,3,,,59,0
426000,note_on,0,0,4,,,,,,,,,3,,,61,49
426000,note_on,0,0,1,,,,,,,,,0,,,78,49
426000,note_off,720,0,1,,,,,,,,,0,,,64,0
426240,note_on,0,0,1,,,,,,,,,0,,,78,57
426240,note_off,240,0,4,,,,,,,,,3,,,61,0
426240,note_on,0,0,2,,,,,,,,,1,,,75,57
426240,note_on,0,0,2,,,,,,,,,1,,,71,57
426240,note_off,0,0,2,,,,,,,,,1,,,70,0
426240,note_off,240,0,2,,,,,,,,,1,,,76,0
426240,note_off,240,0,1,,,,,,,,,0,,,78,0
426240,note_on,0,0,4,,,,,,,,,3,,,63,57
426600,note_off,360,0,1,,,,,,,,,0,,,78,0
426600,note_on,0,0,1,,,,,,,,,0,,,76,54
426600,note_on,0,0,4,,,,,,,,,3,,,64,54
426600,note_off,360,0,4,,,,,,,,,3,,,63,0
426720,note_off,120,0,1,,,,,,,,,0,,,76,0
426720,note_on,0,0,1,,,,,,,,,0,,,75,54
426720,note_off,120,0,4,,,,,,,,,3,,,64,0
426720,note_on,0,0,4,,,,,,,,,3,,,66,53
426960,note_off,240,0,1,,,,,,,,,0,,,75,0
426960,note_on,0,0,1,,,,,,,,,0,,,78,54
426960,note_off,720,0,2,,,,,,,,,1,,,75,0
426960,note_off,0,0,2,,,,,,,,,1,,,71,0
426960,note_off,240,0,4,,,,,,,,,3,,,66,0
426960,note_on,0,0,4,,,,,,,,,3,,,71,54
426960,note_on,0,0,2,,,,,,,,,1,,,75,54
427200,note_on,0,0,2,,,,,,,,,1,,,71,65
427200,note_on,0,0,4,,,,,,,,,3,,,65,65
427200,note_off,240,0,2,,,,,,,,,1,,,75,0
427200,note_on,0,0,1,,,,,,,,,0,,,80,65
427200,note_off,240,0,4,,,,,,,,,3,,,71,0
427200,note_on,0,0,2,,,,,,,,,1,,,73,65
427200,note_off,240,0,1,,,,,,,,,0,,,78,0
427560,note_off,360,0,4,,,,,,,,,3,,,65,0
427560,note_on,0,0,4,,,,,,,,,3,,,66,61
427560,note_on,0,0,1,,,,,,,,,0,,,78,61
427560,note_off,360,0,1,,,,,,,,,0,,,80,0
427680,note_on,0,0,1,,,,,,,,,0,,,77,60
427680,note_off,120,0,4,,,,,,,,,3,,,66,0
427680,note_on,0,0,4,,,,,,,,,3,,,68,60
427680,note_off,120,0,1,,,,,,,,,0,,,78,0
427920,note_off,240,0,1,,,,,,,,,0,,,77,0
427920,note_on,0,0,1,,,,,,,,,0,,,80,69
427920,note_off,240,0,4,,,,,,,,,3,,,68,0
427920,note_on,0,0,4,,,,,,,,,3,,,73,69
427920,note_on,0,0,2,,,,,,,,,1,,,77,69
427920,note_off,0,0,2,,,,,,,,,1,,,71,0
427920,note_off,720,0,2,,,,,,,,,1,,,73,0
428160,note_on,0,0,4,,,,,,,,,3,,,65,68
428160,note_off,240,0,4,,,,,,,,,3,,,73,0
428160,note_off,240,0,2,,,,,,,,,1,,,77,0
428160,note_off,240,0,1,,,,,,,,,0,,,80,0
428160,note_on,0,0,1,,,,,,,,,0,,,80,68
428520,note_on,0,0,4,,,,,,,,,3,,,66,65
428520,note_on,0,0,1,,,,,,,,,0,,,78,65
428520,note_off,360,0,1,,,,,,,,,0,,,80,0
428520,note_off,360,0,4,,,,,,,,,3,,,65,0
428640,note_on,0,0,1,,,,,,,,,0,,,77,63
428640,note_off,120,0,4,,,,,,,,,3,,,66,0
428640,note_off,120,0,1,,,,,,,,,0,,,78,0
428640,note_on,0,0,4,,,,,,,,,3,,,68,63
428880,note_off,240,0,1,,,,,,,,,0,,,77,0
428880,note_on,0,0,1,,,,,,,,,0,,,85,74
428880,note_on,0,0,4,,,,,,,,,3,,,73,74
428880,note_off,240,0,4,,,,,,,,,3,,,68,0
429120,note_on,0,0,4,,,,,,,,,3,,,66,73
429120,note_off,240,0,4,,,,,,,,,3,,,73,0
429120,note_off,240,0,1,,,,,,,,,0,,,85,0
429120,note_on,0,0,1,,,,,,,,,0,,,82,73
429480,note_on,0,0,1,,,,,,,,,0,,,80,70
429480,note_off,360,0,1,,,,,,,,,0,,,82,0
429480,note_off,360,0,4,,,,,,,,,3,,,66,0
429480,note_on,0,0,4,,,,,,,,,3,,,68,70
429600,note_off,120,0,4,,,,,,,,,3,,,68,0
429600,note_off,120,0,1,,,,,,,,,0,,,80,0
429600,note_on,0,0,1,,,,,,,,,0,,,78,69
429600,note_on,0,0,4,,,,,,,,,3,,,70,69
429840,note_on,0,0,4,,,,,,,,,3,,,73,78
429840,note_off,240,0,4,,,,,,,,,3,,,70,0
429840,note_off,240,0,1,,,,,,,,,0,,,78,0
429840,note_on,0,0,1,,,,,,,,,0,,,85,78
430080,note_on,0,0,1,,,,,,,,,0,,,80,79
430080,note_off,240,0,4,,,,,,,,,3,,,73,0
430080,note_off,240,0,1,,,,,,,,,0,,,85,0
430080,note_on,0,0,4,,,,,,,,,3,,,65,79
430440,note_off,360,0,4,,,,,,,,,3,,,65,0
430440,note_on,0,0,4,,,,,,,,,3,,,66,76
430440,note_on,0,0,1,,,,,,,,,0,,,78,76
430440,note_off,360,0,1,,,,,,,,,0,,,80,0
430560,note_off,120,0,1,,,,,,,,,0,,,78,0
430560,note_on,0,0,1,,,,,,,,,0,,,77,74
430560,note_off,120,0,4,,,,,,,,,3,,,66,0
430560,note_on,0,0,4,,,,,,,,,3,,,68,74
430800,note_off,240,0,1,,,,,,,,,0,,,77,0
430800,note_on,0,0,1,,,,,,,,,0,,,85,85
430800,note_on,0,0,4,,,,,,,,,3,,,73,85
430800,note_off,240,0,4,,,,,,,,,3,,,68,0
431040,note_off,240,0,4,,,,,,,,,3,,,73,0
431040,note_off,240,0,1,,,,,,,,,0,,,85,0
431040,note_on,0,0,4,,,,,,,,,3,,,63,85
431040,note_on,0,0,1,,,,,,,,,0,,,78,85
431400,note_on,0,0,4,,,,,,,,,3,,,65,82
431400,note_on,0,0,1,,,,,,,,,0,,,77,82
431400,note_off,360,0,1,,,,,,,,,0,,,78,0
431400,note_off,360,0,4,,,,,,,,,3,,,63,0
431520,note_on,0,0,4,,,,,,,,,3,,,66,81
431520,note_off,120,0,4,,,,,,,,,3,,,65,0
431520,note_on,0,0,1,,,,,,,,,0,,,75,81
431520,note_off,120,0,1,,,,,,,,,0,,,77,0
431760,note_on,0,0,1,,,,,,,,,0,,,85,88
431760,note_on,0,0,4,,,,,,,,,3,,,73,88
431760,note_off,240,0,1,,,,,,,,,0,,,75,0
431760,note_off,240,0,4,,,,,,,,,3,,,66,0
432000,note_on,0,0,1,,,,,,,,,0,,,77,91
432000,note_off,240,0,1,,,,,,,,,0,,,85,0
432000,note_off,240,0,4,,,,,,,,,3,,,73,0
432000,note_on,0,0,4,,,,,,,,,3,,,61,91
432360,note_on,0,0,1,,,,,,,,,0,,,75,88
432360,note_off,360,0,4,,,,,,,,,3,,,61,0
432360,note_on,0,0,4,,,,,,,,,3,,,63,88
432360,note_off,360,0,1,,,,,,,,,0,,,77,0
432480,note_off,120,0,1,,,,,,,,,0,,,75,0
432480,note_on,0,0,1,,,,,,,,,0,,,85,86
432480,note_off,120,0,4,,,,,,,,,3,,,63,0
432480,note_on,0,0,4,,,,,,,,,3,,,65,86
432480,note_on,4320,0,2,,,,,,,,,1,,,73,86
432720,note_off,240,0,4,,,,,,,,,3,,,65,0
432720,note_on,0,0,4,,,,,,,,,3,,,65,91
432720,note_on,12720,0,3,,,,,,,,,2,,,68,91
432720,note_off,240,0,2,,,,,,,,,1,,,73,0
432720,note_on,0,0,1,,,,,,,,,0,,,83,91
432720,note_off,240,0,1,,,,,,,,,0,,,85,0
432720,note_on,0,0,2,,,,,,,,,1,,,73,91
432840,set_tempo,12420,1,0,,,,,,394736,,,,,,,
432960,note_on,0,0,4,,,,,,,,,3,,,65,95
432960,note_off,240,0,4,,,,,,,,,3,,,65,0
432960,note_off,240,0,3,,,,,,,,,2,,,68,0
432960,note_on,0,0,3,,,,,,,,,2,,,68,95
432960,note_on,0,0,1,,,,,,,,,0,,,83,96
432960,note_on,0,0,2,,,,,,,,,1,,,73,96
432960,note_off,240,0,1,,,,,,,,,0,,,83,0
432960,note_off,240,0,2,,,,,,,,,1,,,73,0
433020,set_tempo,180,1,0,,,,,,384615,,,,,,,
433320,note_off,360,0,3,,,,,,,,,2,,,68,0
433320,note_on,0,0,3,,,,,,,,,2,,,70,79
433320,note_off,360,0,4,,,,,,,,,3,,,65,0
433320,note_off,360,0,1,,,,,,,,,0,,,83,0
433320,note_on,0,0,1,,,,,,,,,0,,,82,82
433320,note_on,0,0,4,,,,,,,,,3,,,66,79
433440,set_tempo,420,1,0,,,,,,402684,,,,,,,
433440,note_off,120,0,1,,,,,,,,,0,,,82,0
433440,note_on,0,0,1,,,,,,,,,0,,,80,77
433440,note_off,120,0,3,,,,,,,,,2,,,70,0
433440,note_on,0,0,4,,,,,,,,,3,,,68,73
433440,note_off,120,0,4,,,,,,,,,3,,,66,0
433440,note_on,0,0,3,,,,,,,,,2,,,71,73
433560,note_off,600,0,2,,,,,,,,,1,,,73,0
433680,note_off,240,0,3,,,,,,,,,2,,,71,0
433680,note_on,120,0,2,,,,,,,,,1,,,71,61
433680,note_on,0,0,4,,,,,,,,,3,,,53,61
433680,note_on,0,0,3,,,,,,,,,2,,,56,61
433680,note_off,240,0,1,,,,,,,,,0,,,80,0
433680,note_on,0,0,1,,,,,,,,,0,,,73,61
433680,note_off,240,0,4,,,,,,,,,3,,,68,0
433836,note_off,156,0,4,,,,,,,,,3,,,53,0
433836,note_off,156,0,2,,,,,,,,,1,,,71,0
433836,note_off,156,0,1,,,,,,,,,0,,,73,0
433836,note_off,156,0,3,,,,,,,,,2,,,56,0
433920,note_on,84,0,2,,,,,,,,,1,,,71,57
433920,note_on,84,0,1,,,,,,,,,0,,,73,57
433920,set_tempo,480,1,0,,,,,,413793,,,,,,,
433920,note_on,84,0,3,,,,,,,,,2,,,56,57
433920,note_on,84,0,4,,,,,,,,,3,,,53,57
434280,note_off,360,0,3,,,,,,,,,2,,,56,0
434280,note_on,0,0,3,,,,,,,,,2,,,58,52
434280,set_tempo,360,1,0,,,,,,434782,,,,,,,
434280,note_on,0,0,4,,,,,,,,,3,,,54,52
434280,note_off,360,0,4,,,,,,,,,3,,,53,0
434280,note_off,360,0,2,,,,,,,,,1,,,71,0
434280,note_on,0,0,2,,,,,,,,,1,,,70,52
434358,note_off,78,0,4,,,,,,,,,3,,,54,0
434358,note_off,78,0,3,,,,,,,,,2,,,58,0
434358,note_off,78,0,2,,,,,,,,,1,,,70,0
434400,note_on,42,0,2,,,,,,,,,1,,,68,51
434400,set_tempo,120,1,0,,,,,,461538,,,,,,,
434400,note_on,42,0,3,,,,,,,,,2,,,59,51
434400,note_on,0,0,1,,,,,,,,,0,,,73,51
434400,note_off,480,0,1,,,,,,,,,0,,,73,0
434400,note_on,0,0,2,,,,,,,,,1,,,71,51
434400,note_on,42,0,4,,,,,,,,,3,,,56,51
434556,note_off,156,0,4,,,,,,,,,3,,,56,0
434556,note_off,156,0,3,,,,,,,,,2,,,59,0
434556,note_off,0,0,2,,,,,,,,,1,,,68,0
434556,note_off,156,0,2,,,,,,,,,1,,,71,0
434556,note_off,156,0,1,,,,,,,,,0,,,73,0
434640,note_on,84,0,4,,,,,,,,,3,,,58,48
434640,note_on,84,0,2,,,,,,,,,1,,,70,48
434640,note_on,84,0,1,,,,,,,,,0,,,73,48
434640,set_tempo,240,1,0,,,,,,526315,,,,,,,
434640,note_on,84,0,3,,,,,,,,,2,,,61,48
434640,note_on,0,0,2,,,,,,,,,1,,,66,48
434796,note_off,156,0,1,,,,,,,,,0,,,73,0
434796,note_off,156,0,3,,,,,,,,,2,,,61,0
434796,note_off,156,0,2,,,,,,,,,1,,,66,0
434796,note_off,156,0,4,,,,,,,,,3,,,58,0
434796,note_off,0,0,2,,,,,,,,,1,,,70,0
434880,note_on,84,0,4,,,,,,,,,3,,,59,45
434880,note_on,84,0,1,,,,,,,,,0,,,73,45
434880,set_tempo,240,1,0,,,,,,389610,,,,,,,
434880,note_on,0,0,2,,,,,,,,,1,,,65,45
434880,note_on,84,0,2,,,,,,,,,1,,,68,45
434880,note_on,84,0,3,,,,,,,,,2,,,61,45
436800,note_on,0,0,2,,,,,,,,,1,,,69,33
436800,note_on,0,0,2,,,,,,,,,1,,,66,33
436800,note_off,0,0,2,,,,,,,,,1,,,68,0
436800,note_off,1920,0,2,,,,,,,,,1,,,65,0
436800,note_off,1920,0,3,,,,,,,,,2,,,61,0
436800,note_on,0,0,3,,,,,,,,,2,,,60,33
436800,note_on,0,0,1,,,,,,,,,0,,,75,33
436800,note_off,1920,0,1,,,,,,,,,0,,,73,0
436800,note_on,0,0,4,,,,,,,,,3,,,57,33
436800,note_off,1920,0,4,,,,,,,,,3,,,59,0
437760,set_tempo,2880,1,0,,,,,,408163,,,,,,,
438720,note_off,1920,0,3,,,,,,,,,2,,,60,0
438720,end_of_track,0,1,3,,,,,,,,,,,,,
438720,note_on,0,0,1,,,,,,,,,0,,,37,33
438720,note_off,0,0,1,,,,,,,,,0,,,75,0
438720,set_tempo,960,1,0,,,,,,408163,,,,,,,
438720,control_change,1920,0,1,,,,,,,64,127,0,,,,
438720,note_off,1920,0,4,,,,,,,,,3,,,57,0
438720,note_off,0,0,2,,,,,,,,,1,,,66,0
438720,note_off,1920,0,2,,,,,,,,,1,,,69,0
438840,set_tempo,120,1,0,,,,,,402684,,,,,,,
438840,note_on,0,0,1,,,,,,,,,0,,,41,35
438840,note_off,120,0,1,,,,,,,,,0,,,37,0
438960,note_on,0,0,1,,,,,,,,,0,,,44,37
438960,note_off,120,0,1,,,,,,,,,0,,,41,0
439080,note_on,0,0,1,,,,,,,,,0,,,47,38
439080,note_off,120,0,1,,,,,,,,,0,,,44,0
439200,note_on,0,0,1,,,,,,,,,0,,,49,40
439200,note_off,120,0,1,,,,,,,,,0,,,47,0
439320,note_on,0,0,1,,,,,,,,,0,,,53,42
439320,note_off,120,0,1,,,,,,,,,0,,,49,0
439440,note_on,0,0,1,,,,,,,,,0,,,56,44
439440,note_off,120,0,1,,,,,,,,,0,,,53,0
439560,note_on,0,0,1,,,,,,,,,0,,,59,45
439560,note_off,120,0,1,,,,,,,,,0,,,56,0
439680,note_off,120,0,1,,,,,,,,,0,,,59,0
439680,note_on,0,0,1,,,,,,,,,0,,,61,47
439800,note_on,0,0,1,,,,,,,,,0,,,65,49
439800,note_off,120,0,1,,,,,,,,,0,,,61,0
439920,note_on,0,0,1,,,,,,,,,0,,,49,51
439920,note_off,120,0,1,,,,,,,,,0,,,65,0
440040,note_on,0,0,1,,,,,,,,,0,,,53,52
440040,note_off,120,0,1,,,,,,,,,0,,,49,0
440160,note_off,120,0,1,,,,,,,,,0,,,53,0
440160,note_on,0,0,1,,,,,,,,,0,,,56,54
440280,note_off,120,0,1,,,,,,,,,0,,,56,0
440280,note_on,0,0,1,,,,,,,,,0,,,59,56
440400,note_off,120,0,1,,,,,,,,,0,,,59,0
440400,note_on,0,0,1,,,,,,,,,0,,,61,58
440520,note_off,120,0,1,,,,,,,,,0,,,61,0
440520,note_on,0,0,1,,,,,,,,,0,,,65,59
440640,note_on,0,0,1,,,,,,,,,0,,,68,61
440640,note_off,120,0,1,,,,,,,,,0,,,65,0
440760,note_off,120,0,1,,,,,,,,,0,,,68,0
440760,note_on,0,0,1,,,,,,,,,0,,,71,63
440880,note_off,120,0,1,,,,,,,,,0,,,71,0
440880,note_on,0,0,1,,,,,,,,,0,,,73,65
441000,note_off,120,0,1,,,,,,,,,0,,,73,0
441000,note_on,0,0,1,,,,,,,,,0,,,77,66
441120,note_off,120,0,1,,,,,,,,,0,,,77,0
441120,note_on,0,0,1,,,,,,,,,0,,,61,68
441240,note_off,120,0,1,,,,,,,,,0,,,61,0
441240,note_on,0,0,1,,,,,,,,,0,,,65,70
441360,note_off,120,0,1,,,,,,,,,0,,,65,0
441360,note_on,0,0,1,,,,,,,,,0,,,68,71
441480,note_on,0,0,1,,,,,,,,,0,,,71,73
441480,note_off,120,0,1,,,,,,,,,0,,,68,0
441600,note_off,120,0,1,,,,,,,,,0,,,71,0
441600,note_on,0,0,1,,,,,,,,,0,,,73,75
441720,note_off,120,0,1,,,,,,,,,0,,,73,0
441720,note_on,0,0,1,,,,,,,,,0,,,77,77
441840,set_tempo,3000,1,0,,,,,,408163,,,,,,,
441840,note_off,120,0,1,,,,,,,,,0,,,77,0
441840,note_on,0,0,1,,,,,,,,,0,,,80,78
441960,note_on,0,0,1,,,,,,,,,0,,,83,80
441960,note_off,120,0,1,,,,,,,,,0,,,80,0
441980,set_tempo,140,1,0,,,,,,419580,,,,,,,
442080,set_tempo,100,1,0,,,,,,588235,,,,,,,
442080,note_on,0,0,1,,,,,,,,,0,,,85,82
442080,note_off,120,0,1,,,,,,,,,0,,,83,0
442200,note_on,0,0,1,,,,,,,,,0,,,89,84
442200,note_off,120,0,1,,,,,,,,,0,,,85,0
442320,note_off,120,0,1,,,,,,,,,0,,,89,0
442560,set_tempo,480,1,0,,,,,,750000,,,,,,,
443400,control_change,1080,0,1,,,,,,,64,0,0,,,,
443520,note_on,4800,0,4,,,,,,,,,3,,,48,85
443520,note_on,0,0,4,,,,,,,,,3,,,42,85
443520,note_on,120,0,1,,,,,,,,,0,,,57,85
443520,set_tempo,960,1,0,,,,,,379746,,,,,,,
443640,set_tempo,120,1,0,,,,,,377358,,,,,,,
443640,note_on,4920,0,2,,,,,,,,,1,,,66,84
443640,note_off,120,0,1,,,,,,,,,0,,,57,0
443718,note_off,78,0,2,,,,,,,,,1,,,66,0
443760,note_on,120,0,1,,,,,,,,,0,,,57,83
443880,note_on,162,0,2,,,,,,,,,1,,,66,82
443880,note_off,120,0,1,,,,,,,,,0,,,57,0
443958,note_off,78,0,2,,,,,,,,,1,,,66,0
444000,note_on,120,0,1,,,,,,,,,0,,,57,81
444120,note_off,120,0,1,,,,,,,,,0,,,57,0
444120,note_on,162,0,2,,,,,,,,,1,,,66,79
444198,note_off,78,0,2,,,,,,,,,1,,,66,0
444240,note_on,120,0,1,,,,,,,,,0,,,58,78
444240,note_on,0,0,4,,,,,,,,,3,,,49,78
444240,note_off,720,0,4,,,,,,,,,3,,,48,0
444360,note_on,162,0,2,,,,,,,,,1,,,66,77
444360,note_off,120,0,1,,,,,,,,,0,,,58,0
444438,note_off,78,0,2,,,,,,,,,1,,,66,0
444480,note_on,120,0,1,,,,,,,,,0,,,59,77
444480,note_off,240,0,4,,,,,,,,,3,,,49,0
444480,note_on,0,0,4,,,,,,,,,3,,,51,77
444600,note_off,120,0,1,,,,,,,,,0,,,59,0
444600,note_on,162,0,2,,,,,,,,,1,,,66,79
444678,note_off,78,0,2,,,,,,,,,1,,,66,0
444720,note_on,120,0,1,,,,,,,,,0,,,63,81
444720,note_on,0,0,4,,,,,,,,,3,,,47,81
444720,note_off,240,0,4,,,,,,,,,3,,,51,0
444840,note_off,120,0,1,,,,,,,,,0,,,63,0
444840,note_on,162,0,2,,,,,,,,,1,,,71,83
444918,note_off,78,0,2,,,,,,,,,1,,,71,0
444960,note_off,240,0,4,,,,,,,,,3,,,47,0
444960,note_on,120,0,1,,,,,,,,,0,,,68,84
444960,note_on,0,0,4,,,,,,,,,3,,,53,84
445080,note_on,162,0,2,,,,,,,,,1,,,71,86
445080,note_off,120,0,1,,,,,,,,,0,,,68,0
445158,note_off,78,0,2,,,,,,,,,1,,,71,0
445200,note_on,0,0,4,,,,,,,,,3,,,49,88
445200,note_off,240,0,4,,,,,,,,,3,,,53,0
445200,note_on,120,0,1,,,,,,,,,0,,,65,88
445320,note_on,162,0,2,,,,,,,,,1,,,73,90
445320,set_tempo,1680,1,0,,,,,,379746,,,,,,,
445320,note_off,120,0,1,,,,,,,,,0,,,65,0
445398,note_off,78,0,2,,,,,,,,,1,,,73,0
445440,note_off,0,0,4,,,,,,,,,3,,,42,0
445440,note_on,0,0,4,,,,,,,,,3,,,60,95
445440,note_on,0,0,4,,,,,,,,,3,,,54,95
445440,note_off,240,0,4,,,,,,,,,3,,,49,0
445440,note_on,120,0,1,,,,,,,,,0,,,69,95
445500,set_tempo,180,1,0,,,,,,377358,,,,,,,
445560,note_off,120,0,1,,,,,,,,,0,,,69,0
445560,note_on,162,0,2,,,,,,,,,1,,,78,94
445638,note_off,78,0,2,,,,,,,,,1,,,78,0
445680,note_on,120,0,1,,,,,,,,,0,,,69,94
445800,note_off,120,0,1,,,,,,,,,0,,,69,0
445800,note_on,162,0,2,,,,,,,,,1,,,78,93
445878,note_off,78,0,2,,,,,,,,,1,,,78,0
445920,note_on,120,0,1,,,,,,,,,0,,,69,92
446040,note_off,120,0,1,,,,,,,,,0,,,69,0
446040,note_on,162,0,2,,,,,,,,,1,,,78,91
446118,note_off,78,0,2,,,,,,,,,1,,,78,0
446160,note_on,120,0,1,,,,,,,,,0,,,70,90
446160,note_off,720,0,4,,,,,,,,,3,,,60,0
446160,note_on,0,0,4,,,,,,,,,3,,,61,90
446280,note_off,120,0,1,,,,,,,,,0,,,70,0
446280,note_on,162,0,2,,,,,,,,,1,,,78,89
446358,note_off,78,0,2,,,,,,,,,1,,,78,0
446400,note_on,120,0,1,,,,,,,,,0,,,71,88
446400,note_off,240,0,4,,,,,,,,,3,,,61,0
446400,note_on,0,0,4,,,,,,,,,3,,,63,88
446520,note_off,120,0,1,,,,,,,,,0,,,71,0
446520,note_on,162,0,2,,,,,,,,,1,,,78,90
446598,note_off,78,0,2,,,,,,,,,1,,,78,0
446640,note_on,120,0,1,,,,,,,,,0,,,75,92
446640,note_on,0,0,4,,,,,,,,,3,,,59,92
446640,note_off,240,0,4,,,,,,,,,3,,,63,0
446760,note_on,162,0,2,,,,,,,,,1,,,83,93
446760,note_off,120,0,1,,,,,,,,,0,,,75,0
446838,note_off,78,0,2,,,,,,,,,1,,,83,0
446880,note_off,240,0,4,,,,,,,,,3,,,59,0
446880,note_on,0,0,4,,,,,,,,,3,,,65,95
446880,note_on,120,0,1,,,,,,,,,0,,,80,95
447000,note_off,120,0,1,,,,,,,,,0,,,80,0
447000,note_on,162,0,2,,,,,,,,,1,,,83,96
447078,note_off,78,0,2,,,,,,,,,1,,,83,0
447120,note_on,120,0,1,,,,,,,,,0,,,77,98
447120,note_on,0,0,4,,,,,,,,,3,,,61,98
447120,note_off,240,0,4,,,,,,,,,3,,,65,0
447240,note_on,162,0,2,,,,,,,,,1,,,85,99
447240,set_tempo,1740,1,0,,,,,,379746,,,,,,,
447240,note_off,120,0,1,,,,,,,,,0,,,77,0
447318,note_off,78,0,2,,,,,,,,,1,,,85,0
447360,note_on,0,0,4,,,,,,,,,3,,,66,101
447360,note_off,0,0,4,,,,,,,,,3,,,54,0
447360,note_off,240,0,4,,,,,,,,,3,,,61,0
447360,note_on,120,0,1,,,,,,,,,0,,,78,101
447480,note_off,120,0,1,,,,,,,,,0,,,78,0
447480,note_on,162,0,2,,,,,,,,,1,,,82,102
447516,note_off,156,0,4,,,,,,,,,3,,,66,0
447558,note_off,78,0,2,,,,,,,,,1,,,82,0
447600,note_on,120,0,1,,,,,,,,,0,,,82,104
447600,note_on,84,0,4,,,,,,,,,3,,,61,104
447720,note_on,162,0,2,,,,,,,,,1,,,85,105
447720,note_off,120,0,1,,,,,,,,,0,,,82,0
447756,note_off,156,0,4,,,,,,,,,3,,,61,0
447798,note_off,78,0,2,,,,,,,,,1,,,85,0
447840,note_on,120,0,1,,,,,,,,,0,,,78,107
447840,note_on,84,0,4,,,,,,,,,3,,,54,107
447960,set_tempo,720,1,0,,,,,,384615,,,,,,,
447960,note_on,162,0,2,,,,,,,,,1,,,82,108
447960,note_off,120,0,1,,,,,,,,,0,,,78,0
447996,note_off,156,0,4,,,,,,,,,3,,,54,0
448080,note_on,0,0,1,,,,,,,,,0,,,83,110
448080,note_on,120,0,1,,,,,,,,,0,,,80,110
448080,note_off,120,0,2,,,,,,,,,1,,,82,0
448080,note_on,84,0,4,,,,,,,,,3,,,49,110
448080,set_tempo,120,1,0,,,,,,394736,,,,,,,
448200,note_on,120,0,2,,,,,,,,,1,,,89,111
448200,set_tempo,120,1,0,,,,,,582524,,,,,,,
448200,note_off,0,0,1,,,,,,,,,0,,,80,0
448200,note_off,120,0,1,,,,,,,,,0,,,83,0
448236,note_off,156,0,4,,,,,,,,,3,,,49,0
448320,note_on,84,0,4,,,,,,,,,3,,,42,113
448320,set_tempo,120,1,0,,,,,,895522,,,,,,,
448320,end_of_track,0,1,2,,,,,,,,,,,,,
448320,note_on,0,0,1,,,,,,,,,0,,,90,113
448320,note_on,0,0,1,,,,,,,,,0,,,82,113
448320,note_on,120,0,1,,,,,,,,,0,,,78,113
448320,end_of_track,0,1,0,,,,,,,,,,,,,
448320,note_off,120,0,2,,,,,,,,,1,,,89,0
448476,end_of_track,0,1,1,,,,,,,,,,,,,
448476,note_off,0,0,1,,,,,,,,,0,,,78,0
448476,note_off,0,0,1,,,,,,,,,0,,,82,0
448476,note_off,156,0,4,,,,,,,,,3,,,42,0
448476,end_of_track,0,1,4,,,,,,,,,,,,,
448476,note_off,156,0,1,,,,,,,,,0,,,90,0
