tick,type,time,meta,track,tempo,numerator,denominator,clocks_per_click,notated_32nd_notes_per_beat,key,port,program,channel,control,value,note,velocity
0,track_name,0,1,0,,,,,,,,,,,,,
0,control_change,0,0,1,,,,,,,,,0,10,110,,
0,control_change,0,0,1,,,,,,,,,0,10,110,,
0,control_change,0,0,1,,,,,,,,,0,91,84,,
0,control_change,0,0,1,,,,,,,,,0,93,84,,
0,track_name,0,1,2,,,,,,,,,,,,,
0,note_on,0,0,2,,,,,,,,,1,,,36,45
0,control_change,0,0,1,,,,,,,,,0,7,127,,
0,control_change,0,0,2,,,,,,,,,1,93,84,,
0,control_change,0,0,2,,,,,,,,,1,10,9,,
0,control_change,0,0,2,,,,,,,,,1,10,9,,
0,control_change,0,0,2,,,,,,,,,1,7,127,,
0,control_change,0,0,2,,,,,,,,,1,7,127,,
0,program_change,0,0,2,,,,,,,,0,1,,,,
0,program_change,0,0,2,,,,,,,,0,1,,,,
0,control_change,0,0,2,,,,,,,,,1,91,84,,
0,control_change,0,0,1,,,,,,,,,0,7,127,,
0,midi_port,0,1,2,,,,,,,0,,,,,,
0,program_change,0,0,1,,,,,,,,0,0,,,,
0,copyright,0,1,0,,,,,,,,,,,,,
0,time_signature,0,1,0,,3,4,24,8,,,,,,,,
0,set_tempo,0,1,0,500000,,,,,,,,,,,,
0,set_tempo,0,1,0,500000,,,,,,,,,,,,
0,program_change,0,0,1,,,,,,,,0,0,,,,
0,copyright,0,1,0,,,,,,,,,,,,,
0,track_name,0,1,1,,,,,,,,,,,,,
0,midi_port,0,1,1,,,,,,,0,,,,,,
0,text,0,1,0,,,,,,,,,,,,,
0,text,0,1,0,,,,,,,,,,,,,
30,note_on,30,0,2,,,,,,,,,1,,,36,0
32,note_on,2,0,2,,,,,,,,,1,,,40,45
62,note_on,30,0,2,,,,,,,,,1,,,40,0
64,note_on,2,0,2,,,,,,,,,1,,,43,45
94,note_on,30,0,2,,,,,,,,,1,,,43,0
96,note_on,2,0,2,,,,,,,,,1,,,48,45
126,note_on,30,0,2,,,,,,,,,1,,,48,0
128,note_on,2,0,2,,,,,,,,,1,,,52,45
158,note_on,30,0,2,,,,,,,,,1,,,52,0
160,note_on,2,0,2,,,,,,,,,1,,,55,45
190,note_on,30,0,2,,,,,,,,,1,,,55,0
192,note_on,192,0,1,,,,,,,,,0,,,60,45
222,note_on,30,0,1,,,,,,,,,0,,,60,0
224,note_on,2,0,1,,,,,,,,,0,,,64,45
254,note_on,30,0,1,,,,,,,,,0,,,64,0
256,note_on,2,0,1,,,,,,,,,0,,,67,45
286,note_on,30,0,1,,,,,,,,,0,,,67,0
288,note_on,2,0,1,,,,,,,,,0,,,72,45
318,note_on,30,0,1,,,,,,,,,0,,,72,0
320,note_on,2,0,1,,,,,,,,,0,,,76,50
350,note_on,30,0,1,,,,,,,,,0,,,76,0
352,note_on,2,0,1,,,,,,,,,0,,,79,55
382,note_on,30,0,1,,,,,,,,,0,,,79,0
384,note_on,2,0,1,,,,,,,,,0,,,84,60
416,note_on,32,0,1,,,,,,,,,0,,,84,0
480,note_on,290,0,2,,,,,,,,,1,,,48,60
512,note_on,32,0,2,,,,,,,,,1,,,48,0
576,note_on,160,0,1,,,,,,,,,0,,,81,92
608,note_on,32,0,1,,,,,,,,,0,,,81,0
672,note_on,160,0,2,,,,,,,,,1,,,41,75
704,note_on,32,0,2,,,,,,,,,1,,,41,0
768,note_on,64,0,2,,,,,,,,,1,,,81,105
864,note_on,256,0,1,,,,,,,,,0,,,89,127
928,note_on,160,0,2,,,,,,,,,1,,,81,0
958,note_on,94,0,1,,,,,,,,,0,,,89,0
960,note_on,32,0,2,,,,,,,,,1,,,81,75
960,note_on,2,0,1,,,,,,,,,0,,,89,92
990,note_on,30,0,1,,,,,,,,,0,,,89,0
990,note_on,30,0,2,,,,,,,,,1,,,81,0
992,note_on,2,0,1,,,,,,,,,0,,,88,92
992,note_on,2,0,2,,,,,,,,,1,,,79,75
1022,note_on,30,0,1,,,,,,,,,0,,,88,0
1022,note_on,30,0,2,,,,,,,,,1,,,79,0
1024,note_on,2,0,1,,,,,,,,,0,,,86,92
1024,note_on,2,0,2,,,,,,,,,1,,,77,75
1054,note_on,30,0,2,,,,,,,,,1,,,77,0
1054,note_on,30,0,1,,,,,,,,,0,,,86,0
1056,note_on,2,0,1,,,,,,,,,0,,,88,92
1056,note_on,2,0,2,,,,,,,,,1,,,79,75
1086,note_on,30,0,1,,,,,,,,,0,,,88,0
1086,note_on,30,0,2,,,,,,,,,1,,,79,0
1088,note_on,2,0,2,,,,,,,,,1,,,77,75
1088,note_on,2,0,1,,,,,,,,,0,,,86,92
1118,note_on,30,0,1,,,,,,,,,0,,,86,0
1118,note_on,30,0,2,,,,,,,,,1,,,77,0
1120,note_on,2,0,1,,,,,,,,,0,,,84,92
1120,note_on,2,0,2,,,,,,,,,1,,,76,75
1150,note_on,30,0,1,,,,,,,,,0,,,84,0
1150,note_on,30,0,2,,,,,,,,,1,,,76,0
1152,note_on,2,0,1,,,,,,,,,0,,,86,92
1152,note_on,2,0,2,,,,,,,,,1,,,67,75
1152,note_on,0,0,2,,,,,,,,,1,,,77,75
1182,note_on,30,0,2,,,,,,,,,1,,,77,0
1182,note_on,30,0,1,,,,,,,,,0,,,86,0
1184,note_on,2,0,2,,,,,,,,,1,,,76,75
1184,note_on,2,0,1,,,,,,,,,0,,,84,92
1214,note_on,30,0,2,,,,,,,,,1,,,76,0
1214,note_on,30,0,1,,,,,,,,,0,,,84,0
1216,note_on,2,0,1,,,,,,,,,0,,,83,92
1216,note_on,2,0,2,,,,,,,,,1,,,74,75
1246,note_on,30,0,2,,,,,,,,,1,,,74,0
1246,note_on,30,0,1,,,,,,,,,0,,,83,0
1248,note_on,2,0,1,,,,,,,,,0,,,84,92
1248,note_on,2,0,2,,,,,,,,,1,,,76,75
1278,note_on,30,0,2,,,,,,,,,1,,,76,0
1278,note_on,30,0,1,,,,,,,,,0,,,84,0
1280,note_on,2,0,1,,,,,,,,,0,,,83,92
1280,note_on,2,0,2,,,,,,,,,1,,,74,75
1310,note_on,30,0,1,,,,,,,,,0,,,83,0
1310,note_on,30,0,2,,,,,,,,,1,,,74,0
1312,note_on,2,0,1,,,,,,,,,0,,,81,92
1312,note_on,2,0,2,,,,,,,,,1,,,72,75
1342,note_on,30,0,1,,,,,,,,,0,,,81,0
1342,note_on,30,0,2,,,,,,,,,1,,,72,0
1344,note_on,2,0,1,,,,,,,,,0,,,83,92
1344,note_on,2,0,2,,,,,,,,,1,,,74,75
1374,note_on,30,0,1,,,,,,,,,0,,,83,0
1374,note_on,30,0,2,,,,,,,,,1,,,74,0
1376,note_on,2,0,2,,,,,,,,,1,,,72,75
1376,note_on,2,0,1,,,,,,,,,0,,,81,92
1406,note_on,30,0,2,,,,,,,,,1,,,72,0
1406,note_on,30,0,1,,,,,,,,,0,,,81,0
1408,note_on,2,0,2,,,,,,,,,1,,,71,75
1408,note_on,2,0,1,,,,,,,,,0,,,79,92
1438,note_on,30,0,1,,,,,,,,,0,,,79,0
1438,note_on,30,0,2,,,,,,,,,1,,,71,0
1440,note_on,2,0,1,,,,,,,,,0,,,81,92
1440,note_on,2,0,2,,,,,,,,,1,,,72,75
1470,note_on,30,0,1,,,,,,,,,0,,,81,0
1470,note_on,30,0,2,,,,,,,,,1,,,72,0
1472,note_on,2,0,1,,,,,,,,,0,,,79,92
1472,note_on,2,0,2,,,,,,,,,1,,,71,75
1488,note_on,16,0,2,,,,,,,,,1,,,67,0
1502,note_on,30,0,1,,,,,,,,,0,,,79,0
1502,note_on,14,0,2,,,,,,,,,1,,,71,0
1504,note_on,2,0,1,,,,,,,,,0,,,78,92
1504,note_on,2,0,2,,,,,,,,,1,,,69,75
1534,note_on,30,0,1,,,,,,,,,0,,,78,0
1534,note_on,30,0,2,,,,,,,,,1,,,69,0
1536,note_on,2,0,2,,,,,,,,,1,,,67,75
1536,note_on,0,0,2,,,,,,,,,1,,,71,75
1536,note_on,2,0,1,,,,,,,,,0,,,79,92
1566,note_on,30,0,1,,,,,,,,,0,,,79,0
1566,note_on,30,0,2,,,,,,,,,1,,,67,0
1568,note_on,2,0,2,,,,,,,,,1,,,69,70
1568,note_on,2,0,1,,,,,,,,,0,,,83,85
1598,note_on,30,0,2,,,,,,,,,1,,,69,0
1598,note_on,30,0,1,,,,,,,,,0,,,83,0
1600,note_on,2,0,2,,,,,,,,,1,,,67,65
1600,note_on,2,0,1,,,,,,,,,0,,,81,77
1630,note_on,30,0,2,,,,,,,,,1,,,71,0
1630,note_on,0,0,2,,,,,,,,,1,,,67,0
1630,note_on,30,0,1,,,,,,,,,0,,,81,0
1632,note_on,2,0,2,,,,,,,,,1,,,65,60
1632,note_on,2,0,1,,,,,,,,,0,,,79,69
1662,note_on,30,0,2,,,,,,,,,1,,,65,0
1662,note_on,30,0,1,,,,,,,,,0,,,79,0
1664,note_on,2,0,2,,,,,,,,,1,,,64,55
1664,note_on,2,0,1,,,,,,,,,0,,,81,61
1694,note_on,30,0,2,,,,,,,,,1,,,64,0
1694,note_on,30,0,1,,,,,,,,,0,,,81,0
1696,note_on,2,0,1,,,,,,,,,0,,,83,53
1696,note_on,2,0,2,,,,,,,,,1,,,62,50
1726,note_on,30,0,2,,,,,,,,,1,,,62,0
1726,note_on,30,0,1,,,,,,,,,0,,,83,0
1728,note_on,2,0,2,,,,,,,,,1,,,60,45
1728,note_on,2,0,1,,,,,,,,,0,,,84,45
1760,note_on,32,0,1,,,,,,,,,0,,,84,0
1760,note_on,32,0,2,,,,,,,,,1,,,60,0
1824,note_on,64,0,2,,,,,,,,,1,,,64,45
1824,note_on,0,0,2,,,,,,,,,1,,,67,45
1824,note_on,0,0,2,,,,,,,,,1,,,72,45
1824,note_on,64,0,1,,,,,,,,,0,,,84,45
1846,note_on,22,0,1,,,,,,,,,0,,,84,0
1848,note_on,2,0,1,,,,,,,,,0,,,86,45
1856,note_on,32,0,2,,,,,,,,,1,,,64,0
1856,note_on,0,0,2,,,,,,,,,1,,,67,0
1856,note_on,0,0,2,,,,,,,,,1,,,72,0
1870,note_on,22,0,1,,,,,,,,,0,,,86,0
1872,note_on,2,0,1,,,,,,,,,0,,,88,45
1894,note_on,22,0,1,,,,,,,,,0,,,88,0
1896,note_on,2,0,1,,,,,,,,,0,,,86,45
1918,note_on,22,0,1,,,,,,,,,0,,,86,0
1920,note_on,2,0,1,,,,,,,,,0,,,86,45
1920,note_on,64,0,2,,,,,,,,,1,,,55,45
1952,note_on,32,0,1,,,,,,,,,0,,,86,0
1952,note_on,32,0,2,,,,,,,,,1,,,55,0
2016,note_on,0,0,2,,,,,,,,,1,,,71,45
2016,note_on,0,0,2,,,,,,,,,1,,,67,45
2016,note_on,64,0,1,,,,,,,,,0,,,86,45
2016,note_on,64,0,2,,,,,,,,,1,,,65,45
2038,note_on,22,0,1,,,,,,,,,0,,,86,0
2040,note_on,2,0,1,,,,,,,,,0,,,88,45
2048,note_on,32,0,2,,,,,,,,,1,,,65,0
2048,note_on,0,0,2,,,,,,,,,1,,,71,0
2048,note_on,0,0,2,,,,,,,,,1,,,67,0
2062,note_on,22,0,1,,,,,,,,,0,,,88,0
2064,note_on,2,0,1,,,,,,,,,0,,,89,45
2086,note_on,22,0,1,,,,,,,,,0,,,89,0
2088,note_on,2,0,1,,,,,,,,,0,,,88,45
2110,note_on,22,0,1,,,,,,,,,0,,,88,0
2112,note_on,2,0,1,,,,,,,,,0,,,88,45
2112,note_on,64,0,2,,,,,,,,,1,,,48,45
2144,note_on,32,0,2,,,,,,,,,1,,,48,0
2206,note_on,94,0,1,,,,,,,,,0,,,88,0
2208,note_on,64,0,2,,,,,,,,,1,,,64,45
2208,note_on,0,0,2,,,,,,,,,1,,,67,45
2208,note_on,0,0,2,,,,,,,,,1,,,72,45
2208,note_on,2,0,1,,,,,,,,,0,,,84,45
2240,note_on,32,0,1,,,,,,,,,0,,,84,0
2240,note_on,0,0,2,,,,,,,,,1,,,72,0
2240,note_on,0,0,2,,,,,,,,,1,,,67,0
2240,note_on,32,0,2,,,,,,,,,1,,,64,0
2304,note_on,64,0,2,,,,,,,,,1,,,36,45
2334,note_on,30,0,2,,,,,,,,,1,,,36,0
2336,note_on,2,0,2,,,,,,,,,1,,,40,45
2366,note_on,30,0,2,,,,,,,,,1,,,40,0
2368,note_on,2,0,2,,,,,,,,,1,,,43,45
2398,note_on,30,0,2,,,,,,,,,1,,,43,0
2400,note_on,2,0,2,,,,,,,,,1,,,48,45
2430,note_on,30,0,2,,,,,,,,,1,,,48,0
2432,note_on,2,0,2,,,,,,,,,1,,,52,45
2462,note_on,30,0,2,,,,,,,,,1,,,52,0
2464,note_on,2,0,2,,,,,,,,,1,,,55,45
2494,note_on,30,0,2,,,,,,,,,1,,,55,0
2496,note_on,256,0,1,,,,,,,,,0,,,60,45
2526,note_on,30,0,1,,,,,,,,,0,,,60,0
2528,note_on,2,0,1,,,,,,,,,0,,,64,45
2558,note_on,30,0,1,,,,,,,,,0,,,64,0
2560,note_on,2,0,1,,,,,,,,,0,,,67,45
2590,note_on,30,0,1,,,,,,,,,0,,,67,0
2592,note_on,2,0,1,,,,,,,,,0,,,72,45
2622,note_on,30,0,1,,,,,,,,,0,,,72,0
2624,note_on,2,0,1,,,,,,,,,0,,,76,45
2654,note_on,30,0,1,,,,,,,,,0,,,76,0
2656,note_on,2,0,1,,,,,,,,,0,,,79,45
2686,note_on,30,0,1,,,,,,,,,0,,,79,0
2688,note_on,2,0,1,,,,,,,,,0,,,84,45
2720,note_on,32,0,1,,,,,,,,,0,,,84,0
2784,note_on,290,0,2,,,,,,,,,1,,,48,45
2816,note_on,32,0,2,,,,,,,,,1,,,48,0
2880,note_on,160,0,1,,,,,,,,,0,,,81,92
2912,note_on,32,0,1,,,,,,,,,0,,,81,0
2976,note_on,160,0,2,,,,,,,,,1,,,41,92
3008,note_on,32,0,2,,,,,,,,,1,,,41,0
3072,note_on,64,0,2,,,,,,,,,1,,,81,127
3168,note_on,256,0,1,,,,,,,,,0,,,89,127
3232,note_on,160,0,2,,,,,,,,,1,,,81,0
3262,note_on,94,0,1,,,,,,,,,0,,,89,0
3264,note_on,32,0,2,,,,,,,,,1,,,81,92
3264,note_on,2,0,1,,,,,,,,,0,,,89,92
3294,note_on,30,0,1,,,,,,,,,0,,,89,0
3294,note_on,30,0,2,,,,,,,,,1,,,81,0
3296,note_on,2,0,1,,,,,,,,,0,,,88,92
3296,note_on,2,0,2,,,,,,,,,1,,,79,92
3326,note_on,30,0,2,,,,,,,,,1,,,79,0
3326,note_on,30,0,1,,,,,,,,,0,,,88,0
3328,note_on,2,0,1,,,,,,,,,0,,,86,92
3328,note_on,2,0,2,,,,,,,,,1,,,77,92
3358,note_on,30,0,1,,,,,,,,,0,,,86,0
3358,note_on,30,0,2,,,,,,,,,1,,,77,0
3360,note_on,2,0,1,,,,,,,,,0,,,88,92
3360,note_on,2,0,2,,,,,,,,,1,,,79,92
3390,note_on,30,0,1,,,,,,,,,0,,,88,0
3390,note_on,30,0,2,,,,,,,,,1,,,79,0
3392,note_on,2,0,2,,,,,,,,,1,,,77,92
3392,note_on,2,0,1,,,,,,,,,0,,,86,92
3422,note_on,30,0,2,,,,,,,,,1,,,77,0
3422,note_on,30,0,1,,,,,,,,,0,,,86,0
3424,note_on,2,0,1,,,,,,,,,0,,,84,92
3424,note_on,2,0,2,,,,,,,,,1,,,76,92
3454,note_on,30,0,1,,,,,,,,,0,,,84,0
3454,note_on,30,0,2,,,,,,,,,1,,,76,0
3456,note_on,0,0,2,,,,,,,,,1,,,77,92
3456,note_on,2,0,2,,,,,,,,,1,,,67,92
3456,note_on,2,0,1,,,,,,,,,0,,,86,92
3486,note_on,30,0,1,,,,,,,,,0,,,86,0
3486,note_on,30,0,2,,,,,,,,,1,,,77,0
3488,note_on,2,0,1,,,,,,,,,0,,,84,92
3488,note_on,2,0,2,,,,,,,,,1,,,76,92
3518,note_on,30,0,2,,,,,,,,,1,,,76,0
3518,note_on,30,0,1,,,,,,,,,0,,,84,0
3520,note_on,2,0,1,,,,,,,,,0,,,83,92
3520,note_on,2,0,2,,,,,,,,,1,,,74,92
3550,note_on,30,0,2,,,,,,,,,1,,,74,0
3550,note_on,30,0,1,,,,,,,,,0,,,83,0
3552,note_on,2,0,2,,,,,,,,,1,,,76,92
3552,note_on,2,0,1,,,,,,,,,0,,,84,92
3582,note_on,30,0,2,,,,,,,,,1,,,76,0
3582,note_on,30,0,1,,,,,,,,,0,,,84,0
3584,note_on,2,0,2,,,,,,,,,1,,,74,92
3584,note_on,2,0,1,,,,,,,,,0,,,83,92
3614,note_on,30,0,2,,,,,,,,,1,,,74,0
3614,note_on,30,0,1,,,,,,,,,0,,,83,0
3616,note_on,2,0,1,,,,,,,,,0,,,81,92
3616,note_on,2,0,2,,,,,,,,,1,,,72,92
3646,note_on,30,0,2,,,,,,,,,1,,,72,0
3646,note_on,30,0,1,,,,,,,,,0,,,81,0
3648,note_on,2,0,1,,,,,,,,,0,,,83,92
3648,note_on,2,0,2,,,,,,,,,1,,,74,92
3678,note_on,30,0,2,,,,,,,,,1,,,74,0
3678,note_on,30,0,1,,,,,,,,,0,,,83,0
3680,note_on,2,0,1,,,,,,,,,0,,,81,92
3680,note_on,2,0,2,,,,,,,,,1,,,72,92
3710,note_on,30,0,2,,,,,,,,,1,,,72,0
3710,note_on,30,0,1,,,,,,,,,0,,,81,0
3712,note_on,2,0,1,,,,,,,,,0,,,79,92
3712,note_on,2,0,2,,,,,,,,,1,,,71,92
3742,note_on,30,0,1,,,,,,,,,0,,,79,0
3742,note_on,30,0,2,,,,,,,,,1,,,71,0
3744,note_on,2,0,1,,,,,,,,,0,,,81,92
3744,note_on,2,0,2,,,,,,,,,1,,,72,92
3774,note_on,30,0,1,,,,,,,,,0,,,81,0
3774,note_on,30,0,2,,,,,,,,,1,,,72,0
3776,note_on,2,0,1,,,,,,,,,0,,,79,92
3776,note_on,2,0,2,,,,,,,,,1,,,71,92
3792,note_on,16,0,2,,,,,,,,,1,,,67,0
3806,note_on,30,0,1,,,,,,,,,0,,,79,0
3806,note_on,14,0,2,,,,,,,,,1,,,71,0
3808,note_on,2,0,2,,,,,,,,,1,,,69,92
3808,note_on,2,0,1,,,,,,,,,0,,,78,92
3838,note_on,30,0,2,,,,,,,,,1,,,69,0
3838,note_on,30,0,1,,,,,,,,,0,,,78,0
3840,note_on,2,0,1,,,,,,,,,0,,,79,92
3840,note_on,0,0,2,,,,,,,,,1,,,71,92
3840,note_on,2,0,2,,,,,,,,,1,,,67,92
3870,note_on,30,0,1,,,,,,,,,0,,,79,0
3870,note_on,30,0,2,,,,,,,,,1,,,67,0
3872,note_on,2,0,2,,,,,,,,,1,,,69,85
3872,note_on,2,0,1,,,,,,,,,0,,,83,85
3902,note_on,30,0,1,,,,,,,,,0,,,83,0
3902,note_on,30,0,2,,,,,,,,,1,,,69,0
3904,note_on,2,0,1,,,,,,,,,0,,,81,77
3904,note_on,2,0,2,,,,,,,,,1,,,67,77
3934,note_on,30,0,1,,,,,,,,,0,,,81,0
3934,note_on,0,0,2,,,,,,,,,1,,,67,0
3934,note_on,30,0,2,,,,,,,,,1,,,71,0
3936,note_on,2,0,2,,,,,,,,,1,,,65,69
3936,note_on,2,0,1,,,,,,,,,0,,,79,69
3966,note_on,30,0,1,,,,,,,,,0,,,79,0
3966,note_on,30,0,2,,,,,,,,,1,,,65,0
3968,note_on,2,0,1,,,,,,,,,0,,,81,61
3968,note_on,2,0,2,,,,,,,,,1,,,64,61
3998,note_on,30,0,2,,,,,,,,,1,,,64,0
3998,note_on,30,0,1,,,,,,,,,0,,,81,0
4000,note_on,2,0,2,,,,,,,,,1,,,62,53
4000,note_on,2,0,1,,,,,,,,,0,,,83,53
4030,note_on,30,0,1,,,,,,,,,0,,,83,0
4030,note_on,30,0,2,,,,,,,,,1,,,62,0
4032,note_on,2,0,2,,,,,,,,,1,,,60,45
4032,note_on,2,0,1,,,,,,,,,0,,,84,45
4064,note_on,32,0,1,,,,,,,,,0,,,84,0
4064,note_on,32,0,2,,,,,,,,,1,,,60,0
4128,note_on,64,0,1,,,,,,,,,0,,,84,45
4128,note_on,64,0,2,,,,,,,,,1,,,64,45
4128,note_on,0,0,2,,,,,,,,,1,,,67,45
4128,note_on,0,0,2,,,,,,,,,1,,,72,45
4150,note_on,22,0,1,,,,,,,,,0,,,84,0
4152,note_on,2,0,1,,,,,,,,,0,,,86,45
4160,note_on,0,0,2,,,,,,,,,1,,,72,0
4160,note_on,0,0,2,,,,,,,,,1,,,67,0
4160,note_on,32,0,2,,,,,,,,,1,,,64,0
4174,note_on,22,0,1,,,,,,,,,0,,,86,0
4176,note_on,2,0,1,,,,,,,,,0,,,88,45
4198,note_on,22,0,1,,,,,,,,,0,,,88,0
4200,note_on,2,0,1,,,,,,,,,0,,,86,45
4222,note_on,22,0,1,,,,,,,,,0,,,86,0
4224,note_on,64,0,2,,,,,,,,,1,,,55,45
4224,note_on,2,0,1,,,,,,,,,0,,,86,45
4256,note_on,32,0,1,,,,,,,,,0,,,86,0
4256,note_on,32,0,2,,,,,,,,,1,,,55,0
4320,note_on,64,0,1,,,,,,,,,0,,,86,45
4320,note_on,0,0,2,,,,,,,,,1,,,71,45
4320,note_on,0,0,2,,,,,,,,,1,,,67,45
4320,note_on,64,0,2,,,,,,,,,1,,,65,45
4342,note_on,22,0,1,,,,,,,,,0,,,86,0
4344,note_on,2,0,1,,,,,,,,,0,,,88,45
4352,note_on,0,0,2,,,,,,,,,1,,,71,0
4352,note_on,0,0,2,,,,,,,,,1,,,67,0
4352,note_on,32,0,2,,,,,,,,,1,,,65,0
4366,note_on,22,0,1,,,,,,,,,0,,,88,0
4368,note_on,2,0,1,,,,,,,,,0,,,89,45
4390,note_on,22,0,1,,,,,,,,,0,,,89,0
4392,note_on,2,0,1,,,,,,,,,0,,,88,45
4414,note_on,22,0,1,,,,,,,,,0,,,88,0
4416,note_on,2,0,1,,,,,,,,,0,,,84,45
4416,note_on,64,0,2,,,,,,,,,1,,,48,45
4448,note_on,32,0,2,,,,,,,,,1,,,48,0
4510,note_on,94,0,1,,,,,,,,,0,,,84,0
4512,note_on,64,0,2,,,,,,,,,1,,,64,45
4512,note_on,0,0,2,,,,,,,,,1,,,67,45
4512,note_on,0,0,2,,,,,,,,,1,,,72,45
4544,note_on,32,0,2,,,,,,,,,1,,,64,0
4544,note_on,0,0,2,,,,,,,,,1,,,72,0
4544,note_on,0,0,2,,,,,,,,,1,,,67,0
4608,set_tempo,4608,1,0,500000,,,,,,,,,,,,
4608,control_change,64,0,2,,,,,,,,,1,91,84,,
4608,control_change,0,0,2,,,,,,,,,1,93,84,,
4608,control_change,98,0,1,,,,,,,,,0,91,84,,
4608,control_change,0,0,1,,,,,,,,,0,93,84,,
4608,note_on,0,0,2,,,,,,,,,1,,,36,45
4608,set_tempo,0,1,0,500000,,,,,,,,,,,,
4638,note_on,30,0,2,,,,,,,,,1,,,36,0
4640,note_on,2,0,2,,,,,,,,,1,,,40,45
4670,note_on,30,0,2,,,,,,,,,1,,,40,0
4672,note_on,2,0,2,,,,,,,,,1,,,43,45
4702,note_on,30,0,2,,,,,,,,,1,,,43,0
4704,note_on,2,0,2,,,,,,,,,1,,,48,45
4734,note_on,30,0,2,,,,,,,,,1,,,48,0
4736,note_on,2,0,2,,,,,,,,,1,,,52,45
4766,note_on,30,0,2,,,,,,,,,1,,,52,0
4768,note_on,2,0,2,,,,,,,,,1,,,55,45
4798,note_on,30,0,2,,,,,,,,,1,,,55,0
4800,note_on,192,0,1,,,,,,,,,0,,,60,45
4830,note_on,30,0,1,,,,,,,,,0,,,60,0
4832,note_on,2,0,1,,,,,,,,,0,,,64,45
4862,note_on,30,0,1,,,,,,,,,0,,,64,0
4864,note_on,2,0,1,,,,,,,,,0,,,67,45
4894,note_on,30,0,1,,,,,,,,,0,,,67,0
4896,note_on,2,0,1,,,,,,,,,0,,,72,45
4926,note_on,30,0,1,,,,,,,,,0,,,72,0
4928,note_on,2,0,1,,,,,,,,,0,,,76,50
4958,note_on,30,0,1,,,,,,,,,0,,,76,0
4960,note_on,2,0,1,,,,,,,,,0,,,79,55
4990,note_on,30,0,1,,,,,,,,,0,,,79,0
4992,note_on,2,0,1,,,,,,,,,0,,,84,60
5024,note_on,32,0,1,,,,,,,,,0,,,84,0
5088,note_on,290,0,2,,,,,,,,,1,,,48,60
5120,note_on,32,0,2,,,,,,,,,1,,,48,0
5184,note_on,160,0,1,,,,,,,,,0,,,81,92
5216,note_on,32,0,1,,,,,,,,,0,,,81,0
5280,note_on,160,0,2,,,,,,,,,1,,,41,75
5312,note_on,32,0,2,,,,,,,,,1,,,41,0
5376,note_on,64,0,2,,,,,,,,,1,,,81,105
5472,note_on,256,0,1,,,,,,,,,0,,,89,127
5536,note_on,160,0,2,,,,,,,,,1,,,81,0
5566,note_on,94,0,1,,,,,,,,,0,,,89,0
5568,note_on,2,0,1,,,,,,,,,0,,,89,92
5568,note_on,32,0,2,,,,,,,,,1,,,81,75
5598,note_on,30,0,1,,,,,,,,,0,,,89,0
5598,note_on,30,0,2,,,,,,,,,1,,,81,0
5600,note_on,2,0,1,,,,,,,,,0,,,88,92
5600,note_on,2,0,2,,,,,,,,,1,,,79,75
5630,note_on,30,0,2,,,,,,,,,1,,,79,0
5630,note_on,30,0,1,,,,,,,,,0,,,88,0
5632,note_on,2,0,1,,,,,,,,,0,,,86,92
5632,note_on,2,0,2,,,,,,,,,1,,,77,75
5662,note_on,30,0,2,,,,,,,,,1,,,77,0
5662,note_on,30,0,1,,,,,,,,,0,,,86,0
5664,note_on,2,0,2,,,,,,,,,1,,,79,75
5664,note_on,2,0,1,,,,,,,,,0,,,88,92
5694,note_on,30,0,2,,,,,,,,,1,,,79,0
5694,note_on,30,0,1,,,,,,,,,0,,,88,0
5696,note_on,2,0,2,,,,,,,,,1,,,77,75
5696,note_on,2,0,1,,,,,,,,,0,,,86,92
5726,note_on,30,0,1,,,,,,,,,0,,,86,0
5726,note_on,30,0,2,,,,,,,,,1,,,77,0
5728,note_on,2,0,1,,,,,,,,,0,,,84,92
5728,note_on,2,0,2,,,,,,,,,1,,,76,75
5758,note_on,30,0,1,,,,,,,,,0,,,84,0
5758,note_on,30,0,2,,,,,,,,,1,,,76,0
5760,note_on,2,0,2,,,,,,,,,1,,,67,75
5760,note_on,2,0,1,,,,,,,,,0,,,86,92
5760,note_on,0,0,2,,,,,,,,,1,,,77,75
5790,note_on,30,0,2,,,,,,,,,1,,,77,0
5790,note_on,30,0,1,,,,,,,,,0,,,86,0
5792,note_on,2,0,1,,,,,,,,,0,,,84,92
5792,note_on,2,0,2,,,,,,,,,1,,,76,75
5822,note_on,30,0,1,,,,,,,,,0,,,84,0
5822,note_on,30,0,2,,,,,,,,,1,,,76,0
5824,note_on,2,0,2,,,,,,,,,1,,,74,75
5824,note_on,2,0,1,,,,,,,,,0,,,83,92
5854,note_on,30,0,1,,,,,,,,,0,,,83,0
5854,note_on,30,0,2,,,,,,,,,1,,,74,0
5856,note_on,2,0,2,,,,,,,,,1,,,76,75
5856,note_on,2,0,1,,,,,,,,,0,,,84,92
5886,note_on,30,0,1,,,,,,,,,0,,,84,0
5886,note_on,30,0,2,,,,,,,,,1,,,76,0
5888,note_on,2,0,1,,,,,,,,,0,,,83,92
5888,note_on,2,0,2,,,,,,,,,1,,,74,75
5918,note_on,30,0,2,,,,,,,,,1,,,74,0
5918,note_on,30,0,1,,,,,,,,,0,,,83,0
5920,note_on,2,0,2,,,,,,,,,1,,,72,75
5920,note_on,2,0,1,,,,,,,,,0,,,81,92
5950,note_on,30,0,2,,,,,,,,,1,,,72,0
5950,note_on,30,0,1,,,,,,,,,0,,,81,0
5952,note_on,2,0,2,,,,,,,,,1,,,74,75
5952,note_on,2,0,1,,,,,,,,,0,,,83,92
5982,note_on,30,0,2,,,,,,,,,1,,,74,0
5982,note_on,30,0,1,,,,,,,,,0,,,83,0
5984,note_on,2,0,1,,,,,,,,,0,,,81,92
5984,note_on,2,0,2,,,,,,,,,1,,,72,75
6014,note_on,30,0,2,,,,,,,,,1,,,72,0
6014,note_on,30,0,1,,,,,,,,,0,,,81,0
6016,note_on,2,0,2,,,,,,,,,1,,,71,75
6016,note_on,2,0,1,,,,,,,,,0,,,79,92
6046,note_on,30,0,1,,,,,,,,,0,,,79,0
6046,note_on,30,0,2,,,,,,,,,1,,,71,0
6048,note_on,2,0,2,,,,,,,,,1,,,72,75
6048,note_on,2,0,1,,,,,,,,,0,,,81,92
6078,note_on,30,0,2,,,,,,,,,1,,,72,0
6078,note_on,30,0,1,,,,,,,,,0,,,81,0
6080,note_on,2,0,1,,,,,,,,,0,,,79,92
6080,note_on,2,0,2,,,,,,,,,1,,,71,75
6096,note_on,16,0,2,,,,,,,,,1,,,67,0
6110,note_on,14,0,2,,,,,,,,,1,,,71,0
6110,note_on,30,0,1,,,,,,,,,0,,,79,0
6112,note_on,2,0,1,,,,,,,,,0,,,78,92
6112,note_on,2,0,2,,,,,,,,,1,,,69,75
6142,note_on,30,0,1,,,,,,,,,0,,,78,0
6142,note_on,30,0,2,,,,,,,,,1,,,69,0
6144,note_on,2,0,1,,,,,,,,,0,,,79,92
6144,note_on,2,0,2,,,,,,,,,1,,,67,75
6144,note_on,0,0,2,,,,,,,,,1,,,71,75
6174,note_on,30,0,2,,,,,,,,,1,,,67,0
6174,note_on,30,0,1,,,,,,,,,0,,,79,0
6176,note_on,2,0,1,,,,,,,,,0,,,83,85
6176,note_on,2,0,2,,,,,,,,,1,,,69,70
6206,note_on,30,0,1,,,,,,,,,0,,,83,0
6206,note_on,30,0,2,,,,,,,,,1,,,69,0
6208,note_on,2,0,1,,,,,,,,,0,,,81,77
6208,note_on,2,0,2,,,,,,,,,1,,,67,65
6238,note_on,30,0,2,,,,,,,,,1,,,71,0
6238,note_on,30,0,1,,,,,,,,,0,,,81,0
6238,note_on,0,0,2,,,,,,,,,1,,,67,0
6240,note_on,2,0,2,,,,,,,,,1,,,65,60
6240,note_on,2,0,1,,,,,,,,,0,,,79,69
6270,note_on,30,0,2,,,,,,,,,1,,,65,0
6270,note_on,30,0,1,,,,,,,,,0,,,79,0
6272,note_on,2,0,1,,,,,,,,,0,,,81,61
6272,note_on,2,0,2,,,,,,,,,1,,,64,55
6302,note_on,30,0,1,,,,,,,,,0,,,81,0
6302,note_on,30,0,2,,,,,,,,,1,,,64,0
6304,note_on,2,0,1,,,,,,,,,0,,,83,53
6304,note_on,2,0,2,,,,,,,,,1,,,62,50
6334,note_on,30,0,2,,,,,,,,,1,,,62,0
6334,note_on,30,0,1,,,,,,,,,0,,,83,0
6336,note_on,2,0,2,,,,,,,,,1,,,60,45
6336,note_on,2,0,1,,,,,,,,,0,,,84,45
6368,note_on,32,0,2,,,,,,,,,1,,,60,0
6368,note_on,32,0,1,,,,,,,,,0,,,84,0
6432,note_on,64,0,2,,,,,,,,,1,,,64,45
6432,note_on,0,0,2,,,,,,,,,1,,,72,45
6432,note_on,64,0,1,,,,,,,,,0,,,84,45
6432,note_on,0,0,2,,,,,,,,,1,,,67,45
6454,note_on,22,0,1,,,,,,,,,0,,,84,0
6456,note_on,2,0,1,,,,,,,,,0,,,86,45
6464,note_on,32,0,2,,,,,,,,,1,,,64,0
6464,note_on,0,0,2,,,,,,,,,1,,,72,0
6464,note_on,0,0,2,,,,,,,,,1,,,67,0
6478,note_on,22,0,1,,,,,,,,,0,,,86,0
6480,note_on,2,0,1,,,,,,,,,0,,,88,45
6502,note_on,22,0,1,,,,,,,,,0,,,88,0
6504,note_on,2,0,1,,,,,,,,,0,,,86,45
6526,note_on,22,0,1,,,,,,,,,0,,,86,0
6528,note_on,64,0,2,,,,,,,,,1,,,55,45
6528,note_on,2,0,1,,,,,,,,,0,,,86,45
6560,note_on,32,0,1,,,,,,,,,0,,,86,0
6560,note_on,32,0,2,,,,,,,,,1,,,55,0
6624,note_on,0,0,2,,,,,,,,,1,,,71,45
6624,note_on,0,0,2,,,,,,,,,1,,,67,45
6624,note_on,64,0,2,,,,,,,,,1,,,65,45
6624,note_on,64,0,1,,,,,,,,,0,,,86,45
6646,note_on,22,0,1,,,,,,,,,0,,,86,0
6648,note_on,2,0,1,,,,,,,,,0,,,88,45
6656,note_on,0,0,2,,,,,,,,,1,,,67,0
6656,note_on,0,0,2,,,,,,,,,1,,,71,0
6656,note_on,32,0,2,,,,,,,,,1,,,65,0
6670,note_on,22,0,1,,,,,,,,,0,,,88,0
6672,note_on,2,0,1,,,,,,,,,0,,,89,45
6694,note_on,22,0,1,,,,,,,,,0,,,89,0
6696,note_on,2,0,1,,,,,,,,,0,,,88,45
6718,note_on,22,0,1,,,,,,,,,0,,,88,0
6720,note_on,2,0,1,,,,,,,,,0,,,88,45
6720,note_on,64,0,2,,,,,,,,,1,,,48,45
6752,note_on,32,0,2,,,,,,,,,1,,,48,0
6814,note_on,94,0,1,,,,,,,,,0,,,88,0
6816,note_on,2,0,1,,,,,,,,,0,,,84,45
6816,note_on,64,0,2,,,,,,,,,1,,,64,45
6816,note_on,0,0,2,,,,,,,,,1,,,67,45
6816,note_on,0,0,2,,,,,,,,,1,,,72,45
6848,note_on,32,0,2,,,,,,,,,1,,,64,0
6848,note_on,0,0,2,,,,,,,,,1,,,67,0
6848,note_on,0,0,2,,,,,,,,,1,,,72,0
6848,note_on,32,0,1,,,,,,,,,0,,,84,0
6912,note_on,64,0,2,,,,,,,,,1,,,36,45
6942,note_on,30,0,2,,,,,,,,,1,,,36,0
6944,note_on,2,0,2,,,,,,,,,1,,,40,45
6974,note_on,30,0,2,,,,,,,,,1,,,40,0
6976,note_on,2,0,2,,,,,,,,,1,,,43,45
7006,note_on,30,0,2,,,,,,,,,1,,,43,0
7008,note_on,2,0,2,,,,,,,,,1,,,48,45
7038,note_on,30,0,2,,,,,,,,,1,,,48,0
7040,note_on,2,0,2,,,,,,,,,1,,,52,45
7070,note_on,30,0,2,,,,,,,,,1,,,52,0
7072,note_on,2,0,2,,,,,,,,,1,,,55,45
7102,note_on,30,0,2,,,,,,,,,1,,,55,0
7104,note_on,256,0,1,,,,,,,,,0,,,60,45
7134,note_on,30,0,1,,,,,,,,,0,,,60,0
7136,note_on,2,0,1,,,,,,,,,0,,,64,45
7166,note_on,30,0,1,,,,,,,,,0,,,64,0
7168,note_on,2,0,1,,,,,,,,,0,,,67,45
7198,note_on,30,0,1,,,,,,,,,0,,,67,0
7200,note_on,2,0,1,,,,,,,,,0,,,72,45
7230,note_on,30,0,1,,,,,,,,,0,,,72,0
7232,note_on,2,0,1,,,,,,,,,0,,,76,45
7262,note_on,30,0,1,,,,,,,,,0,,,76,0
7264,note_on,2,0,1,,,,,,,,,0,,,79,45
7294,note_on,30,0,1,,,,,,,,,0,,,79,0
7296,note_on,2,0,1,,,,,,,,,0,,,84,45
7328,note_on,32,0,1,,,,,,,,,0,,,84,0
7392,note_on,290,0,2,,,,,,,,,1,,,48,45
7424,note_on,32,0,2,,,,,,,,,1,,,48,0
7488,note_on,160,0,1,,,,,,,,,0,,,81,92
7520,note_on,32,0,1,,,,,,,,,0,,,81,0
7584,note_on,160,0,2,,,,,,,,,1,,,41,92
7616,note_on,32,0,2,,,,,,,,,1,,,41,0
7680,note_on,64,0,2,,,,,,,,,1,,,81,127
7776,note_on,256,0,1,,,,,,,,,0,,,89,127
7840,note_on,160,0,2,,,,,,,,,1,,,81,0
7870,note_on,94,0,1,,,,,,,,,0,,,89,0
7872,note_on,2,0,1,,,,,,,,,0,,,89,92
7872,note_on,32,0,2,,,,,,,,,1,,,81,92
7902,note_on,30,0,2,,,,,,,,,1,,,81,0
7902,note_on,30,0,1,,,,,,,,,0,,,89,0
7904,note_on,2,0,2,,,,,,,,,1,,,79,92
7904,note_on,2,0,1,,,,,,,,,0,,,88,92
7934,note_on,30,0,1,,,,,,,,,0,,,88,0
7934,note_on,30,0,2,,,,,,,,,1,,,79,0
7936,note_on,2,0,1,,,,,,,,,0,,,86,92
7936,note_on,2,0,2,,,,,,,,,1,,,77,92
7966,note_on,30,0,2,,,,,,,,,1,,,77,0
7966,note_on,30,0,1,,,,,,,,,0,,,86,0
7968,note_on,2,0,2,,,,,,,,,1,,,79,92
7968,note_on,2,0,1,,,,,,,,,0,,,88,92
7998,note_on,30,0,2,,,,,,,,,1,,,79,0
7998,note_on,30,0,1,,,,,,,,,0,,,88,0
8000,note_on,2,0,2,,,,,,,,,1,,,77,92
8000,note_on,2,0,1,,,,,,,,,0,,,86,92
8030,note_on,30,0,1,,,,,,,,,0,,,86,0
8030,note_on,30,0,2,,,,,,,,,1,,,77,0
8032,note_on,2,0,2,,,,,,,,,1,,,76,92
8032,note_on,2,0,1,,,,,,,,,0,,,84,92
8062,note_on,30,0,2,,,,,,,,,1,,,76,0
8062,note_on,30,0,1,,,,,,,,,0,,,84,0
8064,note_on,2,0,2,,,,,,,,,1,,,67,92
8064,note_on,2,0,1,,,,,,,,,0,,,86,92
8064,note_on,0,0,2,,,,,,,,,1,,,77,92
8094,note_on,30,0,2,,,,,,,,,1,,,77,0
8094,note_on,30,0,1,,,,,,,,,0,,,86,0
8096,note_on,2,0,2,,,,,,,,,1,,,76,92
8096,note_on,2,0,1,,,,,,,,,0,,,84,92
8126,note_on,30,0,2,,,,,,,,,1,,,76,0
8126,note_on,30,0,1,,,,,,,,,0,,,84,0
8128,note_on,2,0,2,,,,,,,,,1,,,74,92
8128,note_on,2,0,1,,,,,,,,,0,,,83,92
8158,note_on,30,0,2,,,,,,,,,1,,,74,0
8158,note_on,30,0,1,,,,,,,,,0,,,83,0
8160,note_on,2,0,2,,,,,,,,,1,,,76,92
8160,note_on,2,0,1,,,,,,,,,0,,,84,92
8190,note_on,30,0,1,,,,,,,,,0,,,84,0
8190,note_on,30,0,2,,,,,,,,,1,,,76,0
8192,note_on,2,0,2,,,,,,,,,1,,,74,92
8192,note_on,2,0,1,,,,,,,,,0,,,83,92
8222,note_on,30,0,2,,,,,,,,,1,,,74,0
8222,note_on,30,0,1,,,,,,,,,0,,,83,0
8224,note_on,2,0,2,,,,,,,,,1,,,72,92
8224,note_on,2,0,1,,,,,,,,,0,,,81,92
8254,note_on,30,0,2,,,,,,,,,1,,,72,0
8254,note_on,30,0,1,,,,,,,,,0,,,81,0
8256,note_on,2,0,2,,,,,,,,,1,,,74,92
8256,note_on,2,0,1,,,,,,,,,0,,,83,92
8286,note_on,30,0,2,,,,,,,,,1,,,74,0
8286,note_on,30,0,1,,,,,,,,,0,,,83,0
8288,note_on,2,0,1,,,,,,,,,0,,,81,92
8288,note_on,2,0,2,,,,,,,,,1,,,72,92
8318,note_on,30,0,1,,,,,,,,,0,,,81,0
8318,note_on,30,0,2,,,,,,,,,1,,,72,0
8320,note_on,2,0,1,,,,,,,,,0,,,79,92
8320,note_on,2,0,2,,,,,,,,,1,,,71,92
8350,note_on,30,0,2,,,,,,,,,1,,,71,0
8350,note_on,30,0,1,,,,,,,,,0,,,79,0
8352,note_on,2,0,2,,,,,,,,,1,,,72,92
8352,note_on,2,0,1,,,,,,,,,0,,,81,92
8382,note_on,30,0,1,,,,,,,,,0,,,81,0
8382,note_on,30,0,2,,,,,,,,,1,,,72,0
8384,note_on,2,0,2,,,,,,,,,1,,,71,92
8384,note_on,2,0,1,,,,,,,,,0,,,79,92
8400,note_on,16,0,2,,,,,,,,,1,,,67,0
8414,note_on,14,0,2,,,,,,,,,1,,,71,0
8414,note_on,30,0,1,,,,,,,,,0,,,79,0
8416,note_on,2,0,2,,,,,,,,,1,,,69,92
8416,note_on,2,0,1,,,,,,,,,0,,,78,92
8446,note_on,30,0,2,,,,,,,,,1,,,69,0
8446,note_on,30,0,1,,,,,,,,,0,,,78,0
8448,note_on,0,0,2,,,,,,,,,1,,,71,92
8448,note_on,2,0,1,,,,,,,,,0,,,79,92
8448,note_on,2,0,2,,,,,,,,,1,,,67,92
8478,note_on,30,0,2,,,,,,,,,1,,,67,0
8478,note_on,30,0,1,,,,,,,,,0,,,79,0
8480,note_on,2,0,2,,,,,,,,,1,,,69,85
8480,note_on,2,0,1,,,,,,,,,0,,,83,85
8510,note_on,30,0,1,,,,,,,,,0,,,83,0
8510,note_on,30,0,2,,,,,,,,,1,,,69,0
8512,note_on,2,0,2,,,,,,,,,1,,,67,77
8512,note_on,2,0,1,,,,,,,,,0,,,81,77
8542,note_on,30,0,1,,,,,,,,,0,,,81,0
8542,note_on,30,0,2,,,,,,,,,1,,,71,0
8542,note_on,0,0,2,,,,,,,,,1,,,67,0
8544,note_on,2,0,2,,,,,,,,,1,,,65,69
8544,note_on,2,0,1,,,,,,,,,0,,,79,69
8574,note_on,30,0,2,,,,,,,,,1,,,65,0
8574,note_on,30,0,1,,,,,,,,,0,,,79,0
8576,note_on,2,0,2,,,,,,,,,1,,,64,61
8576,note_on,2,0,1,,,,,,,,,0,,,81,61
8606,note_on,30,0,2,,,,,,,,,1,,,64,0
8606,note_on,30,0,1,,,,,,,,,0,,,81,0
8608,note_on,2,0,1,,,,,,,,,0,,,83,53
8608,note_on,2,0,2,,,,,,,,,1,,,62,53
8638,note_on,30,0,2,,,,,,,,,1,,,62,0
8638,note_on,30,0,1,,,,,,,,,0,,,83,0
8640,note_on,2,0,2,,,,,,,,,1,,,60,45
8640,note_on,2,0,1,,,,,,,,,0,,,84,45
8672,note_on,32,0,2,,,,,,,,,1,,,60,0
8672,note_on,32,0,1,,,,,,,,,0,,,84,0
8736,note_on,0,0,2,,,,,,,,,1,,,67,45
8736,note_on,0,0,2,,,,,,,,,1,,,72,45
8736,note_on,64,0,2,,,,,,,,,1,,,64,45
8736,note_on,64,0,1,,,,,,,,,0,,,84,45
8758,note_on,22,0,1,,,,,,,,,0,,,84,0
8760,note_on,2,0,1,,,,,,,,,0,,,86,45
8768,note_on,0,0,2,,,,,,,,,1,,,67,0
8768,note_on,0,0,2,,,,,,,,,1,,,72,0
8768,note_on,32,0,2,,,,,,,,,1,,,64,0
8782,note_on,22,0,1,,,,,,,,,0,,,86,0
8784,note_on,2,0,1,,,,,,,,,0,,,88,45
8806,note_on,22,0,1,,,,,,,,,0,,,88,0
8808,note_on,2,0,1,,,,,,,,,0,,,86,45
8830,note_on,22,0,1,,,,,,,,,0,,,86,0
8832,note_on,2,0,1,,,,,,,,,0,,,86,45
8832,note_on,64,0,2,,,,,,,,,1,,,55,45
8864,note_on,32,0,2,,,,,,,,,1,,,55,0
8864,note_on,32,0,1,,,,,,,,,0,,,86,0
8928,note_on,0,0,2,,,,,,,,,1,,,71,45
8928,note_on,0,0,2,,,,,,,,,1,,,67,45
8928,note_on,64,0,2,,,,,,,,,1,,,65,45
8928,note_on,64,0,1,,,,,,,,,0,,,86,45
8950,note_on,22,0,1,,,,,,,,,0,,,86,0
8952,note_on,2,0,1,,,,,,,,,0,,,88,45
8960,note_on,0,0,2,,,,,,,,,1,,,67,0
8960,note_on,32,0,2,,,,,,,,,1,,,65,0
8960,note_on,0,0,2,,,,,,,,,1,,,71,0
8974,note_on,22,0,1,,,,,,,,,0,,,88,0
8976,note_on,2,0,1,,,,,,,,,0,,,89,45
8998,note_on,22,0,1,,,,,,,,,0,,,89,0
9000,note_on,2,0,1,,,,,,,,,0,,,88,45
9022,note_on,22,0,1,,,,,,,,,0,,,88,0
9024,note_on,2,0,1,,,,,,,,,0,,,84,45
9024,note_on,64,0,2,,,,,,,,,1,,,48,45
9056,note_on,32,0,2,,,,,,,,,1,,,48,0
9118,note_on,94,0,1,,,,,,,,,0,,,84,0
9120,note_on,64,0,2,,,,,,,,,1,,,64,45
9120,note_on,0,0,2,,,,,,,,,1,,,72,45
9120,note_on,0,0,2,,,,,,,,,1,,,67,45
9152,note_on,32,0,2,,,,,,,,,1,,,64,0
9152,note_on,0,0,2,,,,,,,,,1,,,67,0
9152,note_on,0,0,2,,,,,,,,,1,,,72,0
9216,note_on,64,0,2,,,,,,,,,1,,,55,45
9216,note_on,0,0,2,,,,,,,,,1,,,65,45
9216,note_on,98,0,1,,,,,,,,,0,,,71,45
9246,note_on,30,0,1,,,,,,,,,0,,,71,0
9246,note_on,30,0,2,,,,,,,,,1,,,65,0
9248,note_on,2,0,2,,,,,,,,,1,,,64,45
9248,note_on,2,0,1,,,,,,,,,0,,,72,45
9278,note_on,30,0,2,,,,,,,,,1,,,64,0
9278,note_on,30,0,1,,,,,,,,,0,,,72,0
9280,note_on,2,0,1,,,,,,,,,0,,,74,45
9280,note_on,2,0,2,,,,,,,,,1,,,62,45
9310,note_on,30,0,1,,,,,,,,,0,,,74,0
9310,note_on,30,0,2,,,,,,,,,1,,,62,0
9312,note_on,0,0,1,,,,,,,,,0,,,79,45
9312,note_on,2,0,2,,,,,,,,,1,,,65,45
9312,note_on,2,0,1,,,,,,,,,0,,,71,63
9342,note_on,30,0,1,,,,,,,,,0,,,71,0
9342,note_on,30,0,2,,,,,,,,,1,,,65,0
9344,note_on,2,0,1,,,,,,,,,0,,,72,45
9344,note_on,2,0,2,,,,,,,,,1,,,64,45
9374,note_on,30,0,1,,,,,,,,,0,,,72,0
9374,note_on,30,0,2,,,,,,,,,1,,,64,0
9376,note_on,2,0,2,,,,,,,,,1,,,62,45
9376,note_on,2,0,1,,,,,,,,,0,,,74,45
9406,note_on,30,0,2,,,,,,,,,1,,,62,0
9406,note_on,30,0,1,,,,,,,,,0,,,74,0
9408,note_on,2,0,1,,,,,,,,,0,,,71,45
9408,note_on,2,0,2,,,,,,,,,1,,,65,45
9438,note_on,30,0,2,,,,,,,,,1,,,65,0
9438,note_on,30,0,1,,,,,,,,,0,,,71,0
9440,note_on,2,0,2,,,,,,,,,1,,,64,45
9440,note_on,2,0,1,,,,,,,,,0,,,72,45
9470,note_on,30,0,2,,,,,,,,,1,,,64,0
9470,note_on,30,0,1,,,,,,,,,0,,,72,0
9472,note_on,2,0,1,,,,,,,,,0,,,79,0
9472,note_on,0,0,1,,,,,,,,,0,,,74,45
9472,note_on,2,0,2,,,,,,,,,1,,,62,45
9502,note_on,30,0,1,,,,,,,,,0,,,74,0
9502,note_on,30,0,2,,,,,,,,,1,,,62,0
9504,note_on,2,0,1,,,,,,,,,0,,,71,45
9504,note_on,0,0,1,,,,,,,,,0,,,79,45
9504,note_on,2,0,2,,,,,,,,,1,,,65,45
9534,note_on,30,0,1,,,,,,,,,0,,,71,0
9534,note_on,30,0,2,,,,,,,,,1,,,65,0
9536,note_on,2,0,1,,,,,,,,,0,,,72,45
9536,note_on,2,0,2,,,,,,,,,1,,,64,45
9566,note_on,30,0,2,,,,,,,,,1,,,64,0
9566,note_on,30,0,1,,,,,,,,,0,,,72,0
9568,note_on,2,0,1,,,,,,,,,0,,,74,45
9568,note_on,2,0,2,,,,,,,,,1,,,62,45
9598,note_on,30,0,1,,,,,,,,,0,,,79,0
9598,note_on,0,0,1,,,,,,,,,0,,,74,0
9598,note_on,30,0,2,,,,,,,,,1,,,62,0
9600,note_on,0,0,1,,,,,,,,,0,,,79,45
9600,note_on,2,0,2,,,,,,,,,1,,,64,45
9600,note_on,2,0,1,,,,,,,,,0,,,72,45
9630,note_on,30,0,1,,,,,,,,,0,,,72,0
9630,note_on,30,0,2,,,,,,,,,1,,,64,0
9632,note_on,2,0,2,,,,,,,,,1,,,62,45
9632,note_on,2,0,1,,,,,,,,,0,,,74,45
9662,note_on,30,0,2,,,,,,,,,1,,,62,0
9662,note_on,30,0,1,,,,,,,,,0,,,74,0
9664,note_on,2,0,2,,,,,,,,,1,,,60,45
9664,note_on,2,0,1,,,,,,,,,0,,,76,45
9694,note_on,30,0,1,,,,,,,,,0,,,79,0
9694,note_on,0,0,1,,,,,,,,,0,,,76,0
9694,note_on,30,0,2,,,,,,,,,1,,,60,0
9696,note_on,0,0,1,,,,,,,,,0,,,79,45
9696,note_on,2,0,1,,,,,,,,,0,,,72,45
9696,note_on,2,0,2,,,,,,,,,1,,,64,45
9726,note_on,30,0,1,,,,,,,,,0,,,72,0
9726,note_on,30,0,2,,,,,,,,,1,,,64,0
9728,note_on,2,0,1,,,,,,,,,0,,,74,45
9728,note_on,2,0,2,,,,,,,,,1,,,62,45
9744,note_on,16,0,2,,,,,,,,,1,,,55,0
9758,note_on,30,0,1,,,,,,,,,0,,,74,0
9758,note_on,14,0,2,,,,,,,,,1,,,62,0
9760,note_on,2,0,2,,,,,,,,,1,,,60,45
9760,note_on,2,0,1,,,,,,,,,0,,,76,45
9790,note_on,0,0,1,,,,,,,,,0,,,76,0
9790,note_on,30,0,2,,,,,,,,,1,,,60,0
9790,note_on,30,0,1,,,,,,,,,0,,,79,0
9792,note_on,2,0,2,,,,,,,,,1,,,55,45
9792,note_on,0,0,2,,,,,,,,,1,,,59,45
9792,note_on,2,0,1,,,,,,,,,0,,,77,45
9822,note_on,30,0,1,,,,,,,,,0,,,77,0
9822,note_on,30,0,2,,,,,,,,,1,,,59,0
9824,note_on,2,0,2,,,,,,,,,1,,,60,45
9824,note_on,2,0,1,,,,,,,,,0,,,76,45
9854,note_on,30,0,2,,,,,,,,,1,,,60,0
9854,note_on,30,0,1,,,,,,,,,0,,,76,0
9856,note_on,2,0,1,,,,,,,,,0,,,74,45
9856,note_on,2,0,2,,,,,,,,,1,,,62,45
9886,note_on,30,0,1,,,,,,,,,0,,,74,0
9886,note_on,30,0,2,,,,,,,,,1,,,62,0
9888,note_on,2,0,1,,,,,,,,,0,,,77,63
9888,note_on,0,0,1,,,,,,,,,0,,,79,45
9888,note_on,2,0,2,,,,,,,,,1,,,59,45
9918,note_on,30,0,1,,,,,,,,,0,,,77,0
9918,note_on,30,0,2,,,,,,,,,1,,,59,0
9920,note_on,2,0,2,,,,,,,,,1,,,60,45
9920,note_on,2,0,1,,,,,,,,,0,,,76,45
9950,note_on,30,0,2,,,,,,,,,1,,,60,0
9950,note_on,30,0,1,,,,,,,,,0,,,76,0
9952,note_on,2,0,1,,,,,,,,,0,,,74,45
9952,note_on,2,0,2,,,,,,,,,1,,,62,45
9982,note_on,30,0,2,,,,,,,,,1,,,62,0
9982,note_on,30,0,1,,,,,,,,,0,,,74,0
9984,note_on,2,0,2,,,,,,,,,1,,,59,45
9984,note_on,2,0,1,,,,,,,,,0,,,77,45
10014,note_on,30,0,2,,,,,,,,,1,,,59,0
10014,note_on,30,0,1,,,,,,,,,0,,,77,0
10016,note_on,2,0,1,,,,,,,,,0,,,76,45
10016,note_on,2,0,2,,,,,,,,,1,,,60,45
10046,note_on,30,0,1,,,,,,,,,0,,,76,0
10046,note_on,30,0,2,,,,,,,,,1,,,60,0
10048,note_on,0,0,1,,,,,,,,,0,,,74,45
10048,note_on,2,0,2,,,,,,,,,1,,,62,45
10048,note_on,2,0,1,,,,,,,,,0,,,79,0
10078,note_on,30,0,1,,,,,,,,,0,,,74,0
10078,note_on,30,0,2,,,,,,,,,1,,,62,0
10080,note_on,0,0,1,,,,,,,,,0,,,79,45
10080,note_on,2,0,2,,,,,,,,,1,,,59,45
10080,note_on,2,0,1,,,,,,,,,0,,,77,45
10110,note_on,30,0,2,,,,,,,,,1,,,59,0
10110,note_on,30,0,1,,,,,,,,,0,,,77,0
10112,note_on,2,0,1,,,,,,,,,0,,,76,45
10112,note_on,2,0,2,,,,,,,,,1,,,60,45
10142,note_on,30,0,2,,,,,,,,,1,,,60,0
10142,note_on,30,0,1,,,,,,,,,0,,,76,0
10144,note_on,2,0,2,,,,,,,,,1,,,62,45
10144,note_on,2,0,1,,,,,,,,,0,,,74,45
10174,note_on,30,0,2,,,,,,,,,1,,,62,0
10174,note_on,0,0,1,,,,,,,,,0,,,74,0
10174,note_on,30,0,1,,,,,,,,,0,,,79,0
10176,note_on,2,0,1,,,,,,,,,0,,,76,45
10176,note_on,2,0,2,,,,,,,,,1,,,60,45
10176,note_on,0,0,1,,,,,,,,,0,,,79,45
10206,note_on,30,0,1,,,,,,,,,0,,,76,0
10206,note_on,30,0,2,,,,,,,,,1,,,60,0
10208,note_on,2,0,2,,,,,,,,,1,,,62,45
10208,note_on,2,0,1,,,,,,,,,0,,,74,45
10238,note_on,30,0,2,,,,,,,,,1,,,62,0
10238,note_on,30,0,1,,,,,,,,,0,,,74,0
10240,note_on,2,0,2,,,,,,,,,1,,,64,45
10240,note_on,2,0,1,,,,,,,,,0,,,72,45
10270,note_on,30,0,2,,,,,,,,,1,,,64,0
10270,note_on,0,0,1,,,,,,,,,0,,,72,0
10270,note_on,30,0,1,,,,,,,,,0,,,79,0
10272,note_on,2,0,2,,,,,,,,,1,,,60,45
10272,note_on,0,0,1,,,,,,,,,0,,,79,45
10272,note_on,2,0,1,,,,,,,,,0,,,76,45
10302,note_on,30,0,2,,,,,,,,,1,,,60,0
10302,note_on,30,0,1,,,,,,,,,0,,,76,0
10304,note_on,2,0,1,,,,,,,,,0,,,74,45
10304,note_on,2,0,2,,,,,,,,,1,,,62,45
10320,note_on,16,0,2,,,,,,,,,1,,,55,0
10334,note_on,30,0,1,,,,,,,,,0,,,74,0
10334,note_on,14,0,2,,,,,,,,,1,,,62,0
10336,note_on,2,0,1,,,,,,,,,0,,,72,45
10336,note_on,2,0,2,,,,,,,,,1,,,64,45
10366,note_on,0,0,1,,,,,,,,,0,,,72,0
10366,note_on,30,0,2,,,,,,,,,1,,,64,0
10366,note_on,30,0,1,,,,,,,,,0,,,79,0
10368,note_on,2,0,2,,,,,,,,,1,,,55,45
10368,note_on,0,0,2,,,,,,,,,1,,,65,45
10368,note_on,2,0,1,,,,,,,,,0,,,71,45
10398,note_on,30,0,1,,,,,,,,,0,,,71,0
10398,note_on,30,0,2,,,,,,,,,1,,,65,0
10400,note_on,2,0,2,,,,,,,,,1,,,64,45
10400,note_on,2,0,1,,,,,,,,,0,,,72,45
10430,note_on,30,0,1,,,,,,,,,0,,,72,0
10430,note_on,30,0,2,,,,,,,,,1,,,64,0
10432,note_on,2,0,2,,,,,,,,,1,,,62,45
10432,note_on,2,0,1,,,,,,,,,0,,,74,45
10462,note_on,30,0,2,,,,,,,,,1,,,62,0
10462,note_on,30,0,1,,,,,,,,,0,,,74,0
10464,note_on,2,0,2,,,,,,,,,1,,,65,45
10464,note_on,2,0,1,,,,,,,,,0,,,71,63
10464,note_on,0,0,1,,,,,,,,,0,,,79,45
10494,note_on,30,0,2,,,,,,,,,1,,,65,0
10494,note_on,30,0,1,,,,,,,,,0,,,71,0
10496,note_on,2,0,1,,,,,,,,,0,,,72,45
10496,note_on,2,0,2,,,,,,,,,1,,,64,45
10526,note_on,30,0,1,,,,,,,,,0,,,72,0
10526,note_on,30,0,2,,,,,,,,,1,,,64,0
10528,note_on,2,0,2,,,,,,,,,1,,,62,45
10528,note_on,2,0,1,,,,,,,,,0,,,74,45
10558,note_on,30,0,2,,,,,,,,,1,,,62,0
10558,note_on,30,0,1,,,,,,,,,0,,,74,0
10560,note_on,2,0,2,,,,,,,,,1,,,65,45
10560,note_on,2,0,1,,,,,,,,,0,,,71,45
10590,note_on,30,0,2,,,,,,,,,1,,,65,0
10590,note_on,30,0,1,,,,,,,,,0,,,71,0
10592,note_on,2,0,1,,,,,,,,,0,,,72,45
10592,note_on,2,0,2,,,,,,,,,1,,,64,45
10622,note_on,30,0,1,,,,,,,,,0,,,72,0
10622,note_on,30,0,2,,,,,,,,,1,,,64,0
10624,note_on,2,0,1,,,,,,,,,0,,,79,0
10624,note_on,0,0,1,,,,,,,,,0,,,74,45
10624,note_on,2,0,2,,,,,,,,,1,,,62,45
10654,note_on,30,0,1,,,,,,,,,0,,,74,0
10654,note_on,30,0,2,,,,,,,,,1,,,62,0
10656,note_on,0,0,1,,,,,,,,,0,,,79,45
10656,note_on,2,0,1,,,,,,,,,0,,,71,63
10656,note_on,2,0,2,,,,,,,,,1,,,65,45
10686,note_on,30,0,2,,,,,,,,,1,,,65,0
10686,note_on,30,0,1,,,,,,,,,0,,,71,0
10688,note_on,2,0,2,,,,,,,,,1,,,64,45
10688,note_on,2,0,1,,,,,,,,,0,,,72,45
10718,note_on,30,0,2,,,,,,,,,1,,,64,0
10718,note_on,30,0,1,,,,,,,,,0,,,72,0
10720,note_on,2,0,1,,,,,,,,,0,,,74,45
10720,note_on,2,0,2,,,,,,,,,1,,,62,45
10750,note_on,30,0,1,,,,,,,,,0,,,79,0
10750,note_on,0,0,1,,,,,,,,,0,,,74,0
10750,note_on,30,0,2,,,,,,,,,1,,,62,0
10752,note_on,2,0,2,,,,,,,,,1,,,64,45
10752,note_on,2,0,1,,,,,,,,,0,,,72,63
10752,note_on,0,0,1,,,,,,,,,0,,,79,45
10782,note_on,30,0,2,,,,,,,,,1,,,64,0
10782,note_on,30,0,1,,,,,,,,,0,,,72,0
10784,note_on,2,0,1,,,,,,,,,0,,,74,45
10784,note_on,2,0,2,,,,,,,,,1,,,62,45
10814,note_on,30,0,2,,,,,,,,,1,,,62,0
10814,note_on,30,0,1,,,,,,,,,0,,,74,0
10816,note_on,2,0,1,,,,,,,,,0,,,76,45
10816,note_on,2,0,2,,,,,,,,,1,,,60,45
10846,note_on,0,0,1,,,,,,,,,0,,,76,0
10846,note_on,30,0,1,,,,,,,,,0,,,79,0
10846,note_on,30,0,2,,,,,,,,,1,,,60,0
10848,note_on,2,0,1,,,,,,,,,0,,,72,63
10848,note_on,0,0,1,,,,,,,,,0,,,79,45
10848,note_on,2,0,2,,,,,,,,,1,,,64,45
10878,note_on,30,0,2,,,,,,,,,1,,,64,0
10878,note_on,30,0,1,,,,,,,,,0,,,72,0
10880,note_on,2,0,2,,,,,,,,,1,,,62,45
10880,note_on,2,0,1,,,,,,,,,0,,,74,45
10896,note_on,16,0,2,,,,,,,,,1,,,55,0
10910,note_on,30,0,1,,,,,,,,,0,,,74,0
10910,note_on,14,0,2,,,,,,,,,1,,,62,0
10912,note_on,2,0,2,,,,,,,,,1,,,60,45
10912,note_on,2,0,1,,,,,,,,,0,,,76,45
10942,note_on,30,0,2,,,,,,,,,1,,,60,0
10942,note_on,30,0,1,,,,,,,,,0,,,79,0
10942,note_on,0,0,1,,,,,,,,,0,,,76,0
10944,note_on,2,0,2,,,,,,,,,1,,,55,45
10944,note_on,2,0,1,,,,,,,,,0,,,71,63
10944,note_on,0,0,1,,,,,,,,,0,,,79,45
10944,note_on,0,0,2,,,,,,,,,1,,,62,63
10965,note_on,21,0,2,,,,,,,,,1,,,62,0
10965,note_on,21,0,1,,,,,,,,,0,,,71,0
10976,note_on,11,0,1,,,,,,,,,0,,,72,45
10976,note_on,11,0,2,,,,,,,,,1,,,60,45
11006,note_on,30,0,2,,,,,,,,,1,,,60,0
11006,note_on,30,0,1,,,,,,,,,0,,,72,0
11008,note_on,2,0,1,,,,,,,,,0,,,74,45
11008,note_on,2,0,2,,,,,,,,,1,,,59,45
11038,note_on,0,0,2,,,,,,,,,1,,,59,0
11038,note_on,30,0,2,,,,,,,,,1,,,55,0
11038,note_on,30,0,1,,,,,,,,,0,,,79,0
11038,note_on,0,0,1,,,,,,,,,0,,,74,0
11040,note_on,0,0,1,,,,,,,,,0,,,78,45
11040,note_on,2,0,1,,,,,,,,,0,,,69,63
11040,note_on,0,0,2,,,,,,,,,1,,,60,63
11040,note_on,2,0,2,,,,,,,,,1,,,50,45
11061,note_on,21,0,2,,,,,,,,,1,,,60,0
11061,note_on,21,0,1,,,,,,,,,0,,,69,0
11072,note_on,11,0,1,,,,,,,,,0,,,71,45
11072,note_on,11,0,2,,,,,,,,,1,,,59,45
11102,note_on,30,0,1,,,,,,,,,0,,,71,0
11102,note_on,30,0,2,,,,,,,,,1,,,59,0
11104,note_on,2,0,1,,,,,,,,,0,,,72,45
11104,note_on,2,0,2,,,,,,,,,1,,,57,45
11134,note_on,0,0,2,,,,,,,,,1,,,57,0
11134,note_on,30,0,2,,,,,,,,,1,,,50,0
11134,note_on,30,0,1,,,,,,,,,0,,,78,0
11134,note_on,0,0,1,,,,,,,,,0,,,72,0
11136,note_on,0,0,2,,,,,,,,,1,,,62,45
11136,note_on,2,0,1,,,,,,,,,0,,,71,63
11136,note_on,2,0,2,,,,,,,,,1,,,55,45
11136,note_on,0,0,1,,,,,,,,,0,,,79,45
11157,note_on,21,0,2,,,,,,,,,1,,,62,0
11157,note_on,21,0,1,,,,,,,,,0,,,71,0
11168,note_on,11,0,1,,,,,,,,,0,,,72,45
11168,note_on,11,0,2,,,,,,,,,1,,,60,45
11198,note_on,30,0,2,,,,,,,,,1,,,60,0
11198,note_on,30,0,1,,,,,,,,,0,,,72,0
11200,note_on,2,0,1,,,,,,,,,0,,,74,45
11200,note_on,2,0,2,,,,,,,,,1,,,59,45
11230,note_on,30,0,2,,,,,,,,,1,,,55,0
11230,note_on,0,0,2,,,,,,,,,1,,,59,0
11230,note_on,30,0,1,,,,,,,,,0,,,79,0
11230,note_on,0,0,1,,,,,,,,,0,,,74,0
11232,note_on,0,0,2,,,,,,,,,1,,,60,63
11232,note_on,2,0,2,,,,,,,,,1,,,50,45
11232,note_on,0,0,1,,,,,,,,,0,,,78,45
11232,note_on,2,0,1,,,,,,,,,0,,,69,63
11253,note_on,21,0,2,,,,,,,,,1,,,60,0
11253,note_on,21,0,1,,,,,,,,,0,,,69,0
11264,note_on,11,0,2,,,,,,,,,1,,,59,45
11264,note_on,11,0,1,,,,,,,,,0,,,71,45
11294,note_on,30,0,2,,,,,,,,,1,,,59,0
11294,note_on,30,0,1,,,,,,,,,0,,,71,0
11296,note_on,2,0,2,,,,,,,,,1,,,57,45
11296,note_on,2,0,1,,,,,,,,,0,,,72,45
11326,note_on,0,0,1,,,,,,,,,0,,,72,0
11326,note_on,30,0,1,,,,,,,,,0,,,78,0
11326,note_on,0,0,2,,,,,,,,,1,,,57,0
11326,note_on,30,0,2,,,,,,,,,1,,,50,0
11328,note_on,0,0,1,,,,,,,,,0,,,79,45
11328,note_on,2,0,1,,,,,,,,,0,,,71,63
11328,note_on,0,0,2,,,,,,,,,1,,,62,63
11328,note_on,2,0,2,,,,,,,,,1,,,55,45
11349,note_on,21,0,1,,,,,,,,,0,,,71,0
11349,note_on,21,0,2,,,,,,,,,1,,,62,0
11360,note_on,11,0,1,,,,,,,,,0,,,72,45
11360,note_on,11,0,2,,,,,,,,,1,,,60,45
11390,note_on,30,0,1,,,,,,,,,0,,,72,0
11390,note_on,30,0,2,,,,,,,,,1,,,60,0
11392,note_on,2,0,1,,,,,,,,,0,,,74,45
11392,note_on,2,0,2,,,,,,,,,1,,,59,45
11422,note_on,0,0,1,,,,,,,,,0,,,74,0
11422,note_on,30,0,1,,,,,,,,,0,,,79,0
11422,note_on,30,0,2,,,,,,,,,1,,,55,0
11422,note_on,0,0,2,,,,,,,,,1,,,59,0
11424,note_on,2,0,1,,,,,,,,,0,,,69,63
11424,note_on,2,0,2,,,,,,,,,1,,,50,45
11424,note_on,0,0,2,,,,,,,,,1,,,60,63
11424,note_on,0,0,1,,,,,,,,,0,,,78,45
11445,note_on,21,0,2,,,,,,,,,1,,,60,0
11445,note_on,21,0,1,,,,,,,,,0,,,69,0
11456,note_on,11,0,1,,,,,,,,,0,,,71,45
11456,note_on,11,0,2,,,,,,,,,1,,,59,45
11486,note_on,30,0,1,,,,,,,,,0,,,71,0
11486,note_on,30,0,2,,,,,,,,,1,,,59,0
11488,note_on,2,0,2,,,,,,,,,1,,,57,45
11488,note_on,2,0,1,,,,,,,,,0,,,72,45
11518,note_on,0,0,2,,,,,,,,,1,,,57,0
11518,note_on,30,0,2,,,,,,,,,1,,,50,0
11518,note_on,30,0,1,,,,,,,,,0,,,78,0
11518,note_on,0,0,1,,,,,,,,,0,,,72,0
11520,note_on,0,0,2,,,,,,,,,1,,,59,45
11520,note_on,2,0,2,,,,,,,,,1,,,55,45
11520,note_on,0,0,1,,,,,,,,,0,,,79,45
11520,note_on,2,0,1,,,,,,,,,0,,,71,45
11550,note_on,30,0,1,,,,,,,,,0,,,79,0
11552,note_on,2,0,1,,,,,,,,,0,,,81,45
11582,note_on,30,0,1,,,,,,,,,0,,,81,0
11584,note_on,2,0,1,,,,,,,,,0,,,79,45
11614,note_on,0,0,2,,,,,,,,,1,,,59,0
11614,note_on,94,0,2,,,,,,,,,1,,,55,0
11614,note_on,0,0,1,,,,,,,,,0,,,79,0
11614,note_on,30,0,1,,,,,,,,,0,,,71,0
11616,note_on,2,0,1,,,,,,,,,0,,,78,45
11646,note_on,30,0,1,,,,,,,,,0,,,78,0
11648,note_on,2,0,1,,,,,,,,,0,,,79,45
11678,note_on,30,0,1,,,,,,,,,0,,,79,0
11680,note_on,2,0,1,,,,,,,,,0,,,78,45
11710,note_on,30,0,1,,,,,,,,,0,,,78,0
11712,note_on,2,0,1,,,,,,,,,0,,,79,45
11742,note_on,30,0,1,,,,,,,,,0,,,79,0
11744,note_on,2,0,1,,,,,,,,,0,,,81,45
11774,note_on,30,0,1,,,,,,,,,0,,,81,0
11776,note_on,2,0,1,,,,,,,,,0,,,79,45
11806,note_on,30,0,1,,,,,,,,,0,,,79,0
11808,note_on,2,0,1,,,,,,,,,0,,,78,45
11838,note_on,30,0,1,,,,,,,,,0,,,78,0
11840,note_on,2,0,1,,,,,,,,,0,,,79,45
11870,note_on,30,0,1,,,,,,,,,0,,,79,0
11872,note_on,2,0,1,,,,,,,,,0,,,78,45
11902,note_on,30,0,1,,,,,,,,,0,,,78,0
11904,note_on,2,0,1,,,,,,,,,0,,,79,45
11934,note_on,30,0,1,,,,,,,,,0,,,79,0
11936,note_on,2,0,1,,,,,,,,,0,,,81,45
11966,note_on,30,0,1,,,,,,,,,0,,,81,0
11968,note_on,2,0,1,,,,,,,,,0,,,79,45
11998,note_on,30,0,1,,,,,,,,,0,,,79,0
12000,note_on,2,0,1,,,,,,,,,0,,,78,45
12030,note_on,30,0,1,,,,,,,,,0,,,78,0
12032,note_on,2,0,1,,,,,,,,,0,,,79,45
12062,note_on,30,0,1,,,,,,,,,0,,,79,0
12064,note_on,2,0,1,,,,,,,,,0,,,78,45
12094,note_on,30,0,1,,,,,,,,,0,,,78,0
12096,note_on,0,0,2,,,,,,,,,1,,,62,63
12096,note_on,482,0,2,,,,,,,,,1,,,55,45
12096,note_on,2,0,1,,,,,,,,,0,,,71,63
12096,note_on,0,0,1,,,,,,,,,0,,,79,45
12117,note_on,21,0,1,,,,,,,,,0,,,71,0
12117,note_on,21,0,2,,,,,,,,,1,,,62,0
12128,note_on,11,0,1,,,,,,,,,0,,,72,45
12128,note_on,11,0,2,,,,,,,,,1,,,60,45
12158,note_on,30,0,2,,,,,,,,,1,,,60,0
12158,note_on,30,0,1,,,,,,,,,0,,,72,0
12160,note_on,2,0,1,,,,,,,,,0,,,74,45
12160,note_on,2,0,2,,,,,,,,,1,,,59,45
12190,note_on,0,0,1,,,,,,,,,0,,,74,0
12190,note_on,30,0,1,,,,,,,,,0,,,79,0
12190,note_on,0,0,2,,,,,,,,,1,,,59,0
12190,note_on,30,0,2,,,,,,,,,1,,,55,0
12192,note_on,2,0,1,,,,,,,,,0,,,69,63
12192,note_on,0,0,1,,,,,,,,,0,,,78,45
12192,note_on,0,0,2,,,,,,,,,1,,,60,63
12192,note_on,2,0,2,,,,,,,,,1,,,50,45
12213,note_on,21,0,1,,,,,,,,,0,,,69,0
12213,note_on,21,0,2,,,,,,,,,1,,,60,0
12224,note_on,11,0,1,,,,,,,,,0,,,71,45
12224,note_on,11,0,2,,,,,,,,,1,,,59,45
12254,note_on,30,0,1,,,,,,,,,0,,,71,0
12254,note_on,30,0,2,,,,,,,,,1,,,59,0
12256,note_on,2,0,2,,,,,,,,,1,,,57,45
12256,note_on,2,0,1,,,,,,,,,0,,,72,45
12286,note_on,0,0,2,,,,,,,,,1,,,57,0
12286,note_on,30,0,1,,,,,,,,,0,,,78,0
12286,note_on,0,0,1,,,,,,,,,0,,,72,0
12286,note_on,30,0,2,,,,,,,,,1,,,50,0
12288,note_on,0,0,2,,,,,,,,,1,,,62,63
12288,note_on,2,0,2,,,,,,,,,1,,,55,45
12288,note_on,2,0,1,,,,,,,,,0,,,71,63
12288,note_on,0,0,1,,,,,,,,,0,,,79,45
12309,note_on,21,0,2,,,,,,,,,1,,,62,0
12309,note_on,21,0,1,,,,,,,,,0,,,71,0
12320,note_on,11,0,2,,,,,,,,,1,,,60,45
12320,note_on,11,0,1,,,,,,,,,0,,,72,45
12350,note_on,30,0,2,,,,,,,,,1,,,60,0
12350,note_on,30,0,1,,,,,,,,,0,,,72,0
12352,note_on,2,0,1,,,,,,,,,0,,,74,45
12352,note_on,2,0,2,,,,,,,,,1,,,59,45
12382,note_on,30,0,1,,,,,,,,,0,,,79,0
12382,note_on,0,0,1,,,,,,,,,0,,,74,0
12382,note_on,30,0,2,,,,,,,,,1,,,55,0
12382,note_on,0,0,2,,,,,,,,,1,,,59,0
12384,note_on,0,0,2,,,,,,,,,1,,,60,63
12384,note_on,0,0,1,,,,,,,,,0,,,78,45
12384,note_on,2,0,1,,,,,,,,,0,,,69,63
12384,note_on,2,0,2,,,,,,,,,1,,,50,45
12405,note_on,21,0,2,,,,,,,,,1,,,60,0
12405,note_on,21,0,1,,,,,,,,,0,,,69,0
12416,note_on,11,0,2,,,,,,,,,1,,,59,45
12416,note_on,11,0,1,,,,,,,,,0,,,71,45
12446,note_on,30,0,2,,,,,,,,,1,,,59,0
12446,note_on,30,0,1,,,,,,,,,0,,,71,0
12448,note_on,2,0,2,,,,,,,,,1,,,57,45
12448,note_on,2,0,1,,,,,,,,,0,,,72,45
12478,note_on,30,0,2,,,,,,,,,1,,,50,0
12478,note_on,0,0,1,,,,,,,,,0,,,72,0
12478,note_on,30,0,1,,,,,,,,,0,,,78,0
12478,note_on,0,0,2,,,,,,,,,1,,,57,0
12480,note_on,2,0,2,,,,,,,,,1,,,55,45
12480,note_on,0,0,2,,,,,,,,,1,,,62,63
12480,note_on,0,0,1,,,,,,,,,0,,,79,45
12480,note_on,2,0,1,,,,,,,,,0,,,71,63
12501,note_on,21,0,1,,,,,,,,,0,,,71,0
12501,note_on,21,0,2,,,,,,,,,1,,,62,0
12512,note_on,11,0,2,,,,,,,,,1,,,60,45
12512,note_on,11,0,1,,,,,,,,,0,,,72,45
12542,note_on,30,0,2,,,,,,,,,1,,,60,0
12542,note_on,30,0,1,,,,,,,,,0,,,72,0
12544,note_on,2,0,2,,,,,,,,,1,,,59,45
12544,note_on,2,0,1,,,,,,,,,0,,,74,45
12574,note_on,30,0,1,,,,,,,,,0,,,79,0
12574,note_on,30,0,2,,,,,,,,,1,,,55,0
12574,note_on,0,0,2,,,,,,,,,1,,,59,0
12574,note_on,0,0,1,,,,,,,,,0,,,74,0
12576,note_on,0,0,1,,,,,,,,,0,,,78,45
12576,note_on,0,0,2,,,,,,,,,1,,,60,63
12576,note_on,2,0,1,,,,,,,,,0,,,69,63
12576,note_on,2,0,2,,,,,,,,,1,,,50,45
12597,note_on,21,0,1,,,,,,,,,0,,,69,0
12597,note_on,21,0,2,,,,,,,,,1,,,60,0
12608,note_on,11,0,2,,,,,,,,,1,,,59,45
12608,note_on,11,0,1,,,,,,,,,0,,,71,45
12638,note_on,30,0,1,,,,,,,,,0,,,71,0
12638,note_on,30,0,2,,,,,,,,,1,,,59,0
12640,note_on,2,0,1,,,,,,,,,0,,,72,45
12640,note_on,2,0,2,,,,,,,,,1,,,57,45
12670,note_on,30,0,1,,,,,,,,,0,,,78,0
12670,note_on,30,0,2,,,,,,,,,1,,,50,0
12670,note_on,0,0,1,,,,,,,,,0,,,72,0
12670,note_on,0,0,2,,,,,,,,,1,,,57,0
12672,note_on,2,0,2,,,,,,,,,1,,,55,45
12672,note_on,0,0,2,,,,,,,,,1,,,59,45
12672,note_on,2,0,1,,,,,,,,,0,,,71,45
12672,note_on,0,0,1,,,,,,,,,0,,,79,45
12702,note_on,30,0,1,,,,,,,,,0,,,79,0
12704,note_on,2,0,1,,,,,,,,,0,,,81,45
12734,note_on,30,0,1,,,,,,,,,0,,,81,0
12736,note_on,2,0,1,,,,,,,,,0,,,79,45
12766,note_on,94,0,2,,,,,,,,,1,,,55,0
12766,note_on,30,0,1,,,,,,,,,0,,,71,0
12766,note_on,0,0,2,,,,,,,,,1,,,59,0
12766,note_on,0,0,1,,,,,,,,,0,,,79,0
12768,note_on,2,0,1,,,,,,,,,0,,,78,45
12798,note_on,30,0,1,,,,,,,,,0,,,78,0
12800,note_on,2,0,1,,,,,,,,,0,,,79,45
12830,note_on,30,0,1,,,,,,,,,0,,,79,0
12832,note_on,2,0,1,,,,,,,,,0,,,78,45
12862,note_on,30,0,1,,,,,,,,,0,,,78,0
12864,note_on,2,0,1,,,,,,,,,0,,,79,45
12894,note_on,30,0,1,,,,,,,,,0,,,79,0
12896,note_on,2,0,1,,,,,,,,,0,,,81,45
12926,note_on,30,0,1,,,,,,,,,0,,,81,0
12928,note_on,2,0,1,,,,,,,,,0,,,79,45
12958,note_on,30,0,1,,,,,,,,,0,,,79,0
12960,note_on,2,0,1,,,,,,,,,0,,,78,45
12990,note_on,30,0,1,,,,,,,,,0,,,78,0
12992,note_on,2,0,1,,,,,,,,,0,,,79,45
13022,note_on,30,0,1,,,,,,,,,0,,,79,0
13024,note_on,2,0,1,,,,,,,,,0,,,78,45
13054,note_on,30,0,1,,,,,,,,,0,,,78,0
13056,note_on,2,0,1,,,,,,,,,0,,,79,45
13086,note_on,30,0,1,,,,,,,,,0,,,79,0
13088,note_on,2,0,1,,,,,,,,,0,,,81,45
13118,note_on,30,0,1,,,,,,,,,0,,,81,0
13120,note_on,2,0,1,,,,,,,,,0,,,79,45
13150,note_on,30,0,1,,,,,,,,,0,,,79,0
13152,note_on,2,0,1,,,,,,,,,0,,,77,45
13182,note_on,30,0,1,,,,,,,,,0,,,77,0
13184,note_on,2,0,1,,,,,,,,,0,,,79,45
13214,note_on,30,0,1,,,,,,,,,0,,,79,0
13216,note_on,2,0,1,,,,,,,,,0,,,77,45
13246,note_on,30,0,1,,,,,,,,,0,,,77,0
13248,note_on,482,0,2,,,,,,,,,1,,,36,45
13248,note_on,2,0,1,,,,,,,,,0,,,76,45
13278,note_on,30,0,2,,,,,,,,,1,,,36,0
13280,note_on,2,0,2,,,,,,,,,1,,,40,45
13310,note_on,30,0,2,,,,,,,,,1,,,40,0
13312,note_on,2,0,2,,,,,,,,,1,,,43,45
13342,note_on,94,0,1,,,,,,,,,0,,,76,0
13342,note_on,30,0,2,,,,,,,,,1,,,43,0
13344,note_on,2,0,2,,,,,,,,,1,,,48,45
13374,note_on,30,0,2,,,,,,,,,1,,,48,0
13376,note_on,2,0,2,,,,,,,,,1,,,52,45
13406,note_on,30,0,2,,,,,,,,,1,,,52,0
13408,note_on,2,0,2,,,,,,,,,1,,,55,45
13438,note_on,30,0,2,,,,,,,,,1,,,55,0
13440,note_on,98,0,1,,,,,,,,,0,,,60,45
13470,note_on,30,0,1,,,,,,,,,0,,,60,0
13472,note_on,2,0,1,,,,,,,,,0,,,64,48
13502,note_on,30,0,1,,,,,,,,,0,,,64,0
13504,note_on,2,0,1,,,,,,,,,0,,,67,52
13534,note_on,30,0,1,,,,,,,,,0,,,67,0
13536,note_on,2,0,1,,,,,,,,,0,,,72,56
13566,note_on,30,0,1,,,,,,,,,0,,,72,0
13568,note_on,2,0,1,,,,,,,,,0,,,76,60
13598,note_on,30,0,1,,,,,,,,,0,,,76,0
13600,note_on,2,0,1,,,,,,,,,0,,,79,64
13630,note_on,30,0,1,,,,,,,,,0,,,79,0
13632,note_on,2,0,1,,,,,,,,,0,,,84,68
13664,note_on,32,0,1,,,,,,,,,0,,,84,0
13728,note_on,290,0,2,,,,,,,,,1,,,48,60
13760,note_on,32,0,2,,,,,,,,,1,,,48,0
13824,note_on,160,0,1,,,,,,,,,0,,,81,92
13918,note_on,94,0,1,,,,,,,,,0,,,81,0
13920,note_on,160,0,2,,,,,,,,,1,,,41,75
13952,note_on,32,0,2,,,,,,,,,1,,,41,0
14016,note_on,64,0,2,,,,,,,,,1,,,81,105
14112,note_on,194,0,1,,,,,,,,,0,,,89,127
14176,note_on,160,0,2,,,,,,,,,1,,,81,0
14206,note_on,94,0,1,,,,,,,,,0,,,89,0
14208,note_on,32,0,2,,,,,,,,,1,,,81,75
14208,note_on,2,0,1,,,,,,,,,0,,,89,92
14238,note_on,30,0,1,,,,,,,,,0,,,89,0
14238,note_on,30,0,2,,,,,,,,,1,,,81,0
14240,note_on,2,0,2,,,,,,,,,1,,,79,75
14240,note_on,2,0,1,,,,,,,,,0,,,88,92
14270,note_on,30,0,1,,,,,,,,,0,,,88,0
14270,note_on,30,0,2,,,,,,,,,1,,,79,0
14272,note_on,2,0,1,,,,,,,,,0,,,86,92
14272,note_on,2,0,2,,,,,,,,,1,,,77,75
14302,note_on,30,0,1,,,,,,,,,0,,,86,0
14302,note_on,30,0,2,,,,,,,,,1,,,77,0
14304,note_on,2,0,1,,,,,,,,,0,,,88,92
14304,note_on,2,0,2,,,,,,,,,1,,,79,75
14334,note_on,30,0,1,,,,,,,,,0,,,88,0
14334,note_on,30,0,2,,,,,,,,,1,,,79,0
14336,note_on,2,0,1,,,,,,,,,0,,,86,92
14336,note_on,2,0,2,,,,,,,,,1,,,77,75
14366,note_on,30,0,1,,,,,,,,,0,,,86,0
14366,note_on,30,0,2,,,,,,,,,1,,,77,0
14368,note_on,2,0,1,,,,,,,,,0,,,84,92
14368,note_on,2,0,2,,,,,,,,,1,,,76,75
14398,note_on,30,0,2,,,,,,,,,1,,,76,0
14398,note_on,30,0,1,,,,,,,,,0,,,84,0
14400,note_on,0,0,2,,,,,,,,,1,,,77,75
14400,note_on,2,0,1,,,,,,,,,0,,,86,92
14400,note_on,2,0,2,,,,,,,,,1,,,67,75
14430,note_on,30,0,2,,,,,,,,,1,,,77,0
14430,note_on,30,0,1,,,,,,,,,0,,,86,0
14432,note_on,2,0,2,,,,,,,,,1,,,76,75
14432,note_on,2,0,1,,,,,,,,,0,,,84,92
14462,note_on,30,0,2,,,,,,,,,1,,,76,0
14462,note_on,30,0,1,,,,,,,,,0,,,84,0
14464,note_on,2,0,2,,,,,,,,,1,,,74,75
14464,note_on,2,0,1,,,,,,,,,0,,,83,92
14494,note_on,30,0,2,,,,,,,,,1,,,74,0
14494,note_on,30,0,1,,,,,,,,,0,,,83,0
14496,note_on,2,0,1,,,,,,,,,0,,,84,92
14496,note_on,2,0,2,,,,,,,,,1,,,76,75
14526,note_on,30,0,1,,,,,,,,,0,,,84,0
14526,note_on,30,0,2,,,,,,,,,1,,,76,0
14528,note_on,2,0,1,,,,,,,,,0,,,83,92
14528,note_on,2,0,2,,,,,,,,,1,,,74,75
14558,note_on,30,0,1,,,,,,,,,0,,,83,0
14558,note_on,30,0,2,,,,,,,,,1,,,74,0
14560,note_on,2,0,1,,,,,,,,,0,,,81,92
14560,note_on,2,0,2,,,,,,,,,1,,,72,75
14590,note_on,30,0,1,,,,,,,,,0,,,81,0
14590,note_on,30,0,2,,,,,,,,,1,,,72,0
14592,note_on,2,0,1,,,,,,,,,0,,,83,92
14592,note_on,2,0,2,,,,,,,,,1,,,74,75
14622,note_on,30,0,2,,,,,,,,,1,,,74,0
14622,note_on,30,0,1,,,,,,,,,0,,,83,0
14624,note_on,2,0,2,,,,,,,,,1,,,72,75
14624,note_on,2,0,1,,,,,,,,,0,,,81,92
14654,note_on,30,0,1,,,,,,,,,0,,,81,0
14654,note_on,30,0,2,,,,,,,,,1,,,72,0
14656,note_on,2,0,2,,,,,,,,,1,,,71,75
14656,note_on,2,0,1,,,,,,,,,0,,,79,92
14686,note_on,30,0,1,,,,,,,,,0,,,79,0
14686,note_on,30,0,2,,,,,,,,,1,,,71,0
14688,note_on,2,0,1,,,,,,,,,0,,,81,92
14688,note_on,2,0,2,,,,,,,,,1,,,72,75
14718,note_on,30,0,1,,,,,,,,,0,,,81,0
14718,note_on,30,0,2,,,,,,,,,1,,,72,0
14720,note_on,2,0,2,,,,,,,,,1,,,71,75
14720,note_on,2,0,1,,,,,,,,,0,,,79,92
14736,note_on,16,0,2,,,,,,,,,1,,,67,0
14750,note_on,30,0,1,,,,,,,,,0,,,79,0
14750,note_on,14,0,2,,,,,,,,,1,,,71,0
14752,note_on,2,0,2,,,,,,,,,1,,,69,75
14752,note_on,2,0,1,,,,,,,,,0,,,78,92
14782,note_on,30,0,1,,,,,,,,,0,,,78,0
14782,note_on,30,0,2,,,,,,,,,1,,,69,0
14784,note_on,0,0,2,,,,,,,,,1,,,71,75
14784,note_on,2,0,2,,,,,,,,,1,,,67,75
14784,note_on,2,0,1,,,,,,,,,0,,,79,92
14814,note_on,30,0,2,,,,,,,,,1,,,67,0
14814,note_on,30,0,1,,,,,,,,,0,,,79,0
14816,note_on,2,0,1,,,,,,,,,0,,,83,85
14816,note_on,2,0,2,,,,,,,,,1,,,69,70
14846,note_on,30,0,1,,,,,,,,,0,,,83,0
14846,note_on,30,0,2,,,,,,,,,1,,,69,0
14848,note_on,2,0,2,,,,,,,,,1,,,67,65
14848,note_on,2,0,1,,,,,,,,,0,,,81,77
14878,note_on,30,0,1,,,,,,,,,0,,,81,0
14878,note_on,0,0,2,,,,,,,,,1,,,67,0
14878,note_on,30,0,2,,,,,,,,,1,,,71,0
14880,note_on,2,0,1,,,,,,,,,0,,,79,69
14880,note_on,2,0,2,,,,,,,,,1,,,65,60
14910,note_on,30,0,1,,,,,,,,,0,,,79,0
14910,note_on,30,0,2,,,,,,,,,1,,,65,0
14912,note_on,2,0,1,,,,,,,,,0,,,81,61
14912,note_on,2,0,2,,,,,,,,,1,,,64,55
14942,note_on,30,0,1,,,,,,,,,0,,,81,0
14942,note_on,30,0,2,,,,,,,,,1,,,64,0
14944,note_on,2,0,1,,,,,,,,,0,,,83,53
14944,note_on,2,0,2,,,,,,,,,1,,,62,50
14974,note_on,30,0,1,,,,,,,,,0,,,83,0
14974,note_on,30,0,2,,,,,,,,,1,,,62,0
14976,note_on,2,0,2,,,,,,,,,1,,,60,45
14976,note_on,2,0,1,,,,,,,,,0,,,84,45
15008,note_on,32,0,2,,,,,,,,,1,,,60,0
15008,note_on,32,0,1,,,,,,,,,0,,,84,0
15072,note_on,0,0,2,,,,,,,,,1,,,67,45
15072,note_on,64,0,2,,,,,,,,,1,,,64,45
15072,note_on,64,0,1,,,,,,,,,0,,,84,45
15072,note_on,0,0,2,,,,,,,,,1,,,72,45
15094,note_on,22,0,1,,,,,,,,,0,,,84,0
15096,note_on,2,0,1,,,,,,,,,0,,,86,45
15104,note_on,32,0,2,,,,,,,,,1,,,64,0
15104,note_on,0,0,2,,,,,,,,,1,,,67,0
15104,note_on,0,0,2,,,,,,,,,1,,,72,0
15118,note_on,22,0,1,,,,,,,,,0,,,86,0
15120,note_on,2,0,1,,,,,,,,,0,,,88,45
15142,note_on,22,0,1,,,,,,,,,0,,,88,0
15144,note_on,2,0,1,,,,,,,,,0,,,86,45
15166,note_on,22,0,1,,,,,,,,,0,,,86,0
15168,note_on,64,0,2,,,,,,,,,1,,,55,45
15168,note_on,2,0,1,,,,,,,,,0,,,86,45
15200,note_on,32,0,1,,,,,,,,,0,,,86,0
15200,note_on,32,0,2,,,,,,,,,1,,,55,0
15264,note_on,64,0,2,,,,,,,,,1,,,65,45
15264,note_on,0,0,2,,,,,,,,,1,,,67,45
15264,note_on,0,0,2,,,,,,,,,1,,,71,45
15264,note_on,64,0,1,,,,,,,,,0,,,86,45
15286,note_on,22,0,1,,,,,,,,,0,,,86,0
15288,note_on,2,0,1,,,,,,,,,0,,,88,45
15296,note_on,0,0,2,,,,,,,,,1,,,71,0
15296,note_on,32,0,2,,,,,,,,,1,,,65,0
15296,note_on,0,0,2,,,,,,,,,1,,,67,0
15310,note_on,22,0,1,,,,,,,,,0,,,88,0
15312,note_on,2,0,1,,,,,,,,,0,,,89,45
15334,note_on,22,0,1,,,,,,,,,0,,,89,0
15336,note_on,2,0,1,,,,,,,,,0,,,88,45
15358,note_on,22,0,1,,,,,,,,,0,,,88,0
15360,note_on,64,0,2,,,,,,,,,1,,,48,45
15360,note_on,2,0,1,,,,,,,,,0,,,88,45
15392,note_on,32,0,2,,,,,,,,,1,,,48,0
15454,note_on,94,0,1,,,,,,,,,0,,,88,0
15456,note_on,2,0,1,,,,,,,,,0,,,84,45
15456,note_on,0,0,2,,,,,,,,,1,,,72,45
15456,note_on,64,0,2,,,,,,,,,1,,,64,45
15456,note_on,0,0,2,,,,,,,,,1,,,67,45
15488,note_on,32,0,1,,,,,,,,,0,,,84,0
15488,note_on,0,0,2,,,,,,,,,1,,,67,0
15488,note_on,0,0,2,,,,,,,,,1,,,72,0
15488,note_on,32,0,2,,,,,,,,,1,,,64,0
15552,note_on,64,0,2,,,,,,,,,1,,,36,45
15582,note_on,30,0,2,,,,,,,,,1,,,36,0
15584,note_on,2,0,2,,,,,,,,,1,,,40,47
15614,note_on,30,0,2,,,,,,,,,1,,,40,0
15616,note_on,2,0,2,,,,,,,,,1,,,43,49
15646,note_on,30,0,2,,,,,,,,,1,,,43,0
15648,note_on,2,0,2,,,,,,,,,1,,,48,51
15678,note_on,30,0,2,,,,,,,,,1,,,48,0
15680,note_on,2,0,2,,,,,,,,,1,,,52,53
15710,note_on,30,0,2,,,,,,,,,1,,,52,0
15712,note_on,2,0,2,,,,,,,,,1,,,55,55
15742,note_on,30,0,2,,,,,,,,,1,,,55,0
15744,note_on,256,0,1,,,,,,,,,0,,,60,60
15774,note_on,30,0,1,,,,,,,,,0,,,60,0
15776,note_on,2,0,1,,,,,,,,,0,,,64,62
15806,note_on,30,0,1,,,,,,,,,0,,,64,0
15808,note_on,2,0,1,,,,,,,,,0,,,67,64
15838,note_on,30,0,1,,,,,,,,,0,,,67,0
15840,note_on,2,0,1,,,,,,,,,0,,,72,66
15870,note_on,30,0,1,,,,,,,,,0,,,72,0
15872,note_on,2,0,1,,,,,,,,,0,,,76,68
15902,note_on,30,0,1,,,,,,,,,0,,,76,0
15904,note_on,2,0,1,,,,,,,,,0,,,79,71
15934,note_on,30,0,1,,,,,,,,,0,,,79,0
15936,note_on,2,0,1,,,,,,,,,0,,,84,74
15968,note_on,32,0,1,,,,,,,,,0,,,84,0
16032,note_on,290,0,2,,,,,,,,,1,,,48,83
16064,note_on,32,0,2,,,,,,,,,1,,,48,0
16128,note_on,160,0,1,,,,,,,,,0,,,81,92
16160,note_on,32,0,1,,,,,,,,,0,,,81,0
16224,note_on,160,0,2,,,,,,,,,1,,,41,92
16256,note_on,32,0,2,,,,,,,,,1,,,41,0
16320,note_on,64,0,2,,,,,,,,,1,,,81,127
16416,note_on,256,0,1,,,,,,,,,0,,,89,127
16480,note_on,160,0,2,,,,,,,,,1,,,81,0
16510,note_on,94,0,1,,,,,,,,,0,,,89,0
16512,note_on,32,0,2,,,,,,,,,1,,,81,92
16512,note_on,2,0,1,,,,,,,,,0,,,89,92
16542,note_on,30,0,1,,,,,,,,,0,,,89,0
16542,note_on,30,0,2,,,,,,,,,1,,,81,0
16544,note_on,2,0,1,,,,,,,,,0,,,88,92
16544,note_on,2,0,2,,,,,,,,,1,,,79,92
16574,note_on,30,0,1,,,,,,,,,0,,,88,0
16574,note_on,30,0,2,,,,,,,,,1,,,79,0
16576,note_on,2,0,1,,,,,,,,,0,,,86,92
16576,note_on,2,0,2,,,,,,,,,1,,,77,92
16606,note_on,30,0,1,,,,,,,,,0,,,86,0
16606,note_on,30,0,2,,,,,,,,,1,,,77,0
16608,note_on,2,0,1,,,,,,,,,0,,,88,92
16608,note_on,2,0,2,,,,,,,,,1,,,79,92
16638,note_on,30,0,1,,,,,,,,,0,,,88,0
16638,note_on,30,0,2,,,,,,,,,1,,,79,0
16640,note_on,2,0,1,,,,,,,,,0,,,86,92
16640,note_on,2,0,2,,,,,,,,,1,,,77,92
16670,note_on,30,0,2,,,,,,,,,1,,,77,0
16670,note_on,30,0,1,,,,,,,,,0,,,86,0
16672,note_on,2,0,1,,,,,,,,,0,,,84,92
16672,note_on,2,0,2,,,,,,,,,1,,,76,92
16702,note_on,30,0,1,,,,,,,,,0,,,84,0
16702,note_on,30,0,2,,,,,,,,,1,,,76,0
16704,note_on,2,0,1,,,,,,,,,0,,,86,92
16704,note_on,0,0,2,,,,,,,,,1,,,77,92
16704,note_on,2,0,2,,,,,,,,,1,,,67,92
16734,note_on,30,0,2,,,,,,,,,1,,,77,0
16734,note_on,30,0,1,,,,,,,,,0,,,86,0
16736,note_on,2,0,2,,,,,,,,,1,,,76,92
16736,note_on,2,0,1,,,,,,,,,0,,,84,92
16766,note_on,30,0,1,,,,,,,,,0,,,84,0
16766,note_on,30,0,2,,,,,,,,,1,,,76,0
16768,note_on,2,0,2,,,,,,,,,1,,,74,92
16768,note_on,2,0,1,,,,,,,,,0,,,83,92
16798,note_on,30,0,2,,,,,,,,,1,,,74,0
16798,note_on,30,0,1,,,,,,,,,0,,,83,0
16800,note_on,2,0,2,,,,,,,,,1,,,76,92
16800,note_on,2,0,1,,,,,,,,,0,,,84,92
16830,note_on,30,0,2,,,,,,,,,1,,,76,0
16830,note_on,30,0,1,,,,,,,,,0,,,84,0
16832,note_on,2,0,2,,,,,,,,,1,,,74,92
16832,note_on,2,0,1,,,,,,,,,0,,,83,92
16862,note_on,30,0,2,,,,,,,,,1,,,74,0
16862,note_on,30,0,1,,,,,,,,,0,,,83,0
16864,note_on,2,0,2,,,,,,,,,1,,,72,92
16864,note_on,2,0,1,,,,,,,,,0,,,81,92
16894,note_on,30,0,1,,,,,,,,,0,,,81,0
16894,note_on,30,0,2,,,,,,,,,1,,,72,0
16896,note_on,2,0,2,,,,,,,,,1,,,74,92
16896,note_on,2,0,1,,,,,,,,,0,,,83,92
16926,note_on,30,0,2,,,,,,,,,1,,,74,0
16926,note_on,30,0,1,,,,,,,,,0,,,83,0
16928,note_on,2,0,2,,,,,,,,,1,,,72,92
16928,note_on,2,0,1,,,,,,,,,0,,,81,92
16958,note_on,30,0,2,,,,,,,,,1,,,72,0
16958,note_on,30,0,1,,,,,,,,,0,,,81,0
16960,note_on,2,0,2,,,,,,,,,1,,,71,92
16960,note_on,2,0,1,,,,,,,,,0,,,79,92
16990,note_on,30,0,2,,,,,,,,,1,,,71,0
16990,note_on,30,0,1,,,,,,,,,0,,,79,0
16992,note_on,2,0,2,,,,,,,,,1,,,72,92
16992,note_on,2,0,1,,,,,,,,,0,,,81,92
17022,note_on,30,0,2,,,,,,,,,1,,,72,0
17022,note_on,30,0,1,,,,,,,,,0,,,81,0
17024,note_on,2,0,1,,,,,,,,,0,,,79,92
17024,note_on,2,0,2,,,,,,,,,1,,,71,92
17040,note_on,16,0,2,,,,,,,,,1,,,67,0
17054,note_on,14,0,2,,,,,,,,,1,,,71,0
17054,note_on,30,0,1,,,,,,,,,0,,,79,0
17056,note_on,2,0,2,,,,,,,,,1,,,69,92
17056,note_on,2,0,1,,,,,,,,,0,,,78,92
17086,note_on,30,0,2,,,,,,,,,1,,,69,0
17086,note_on,30,0,1,,,,,,,,,0,,,78,0
17088,note_on,2,0,2,,,,,,,,,1,,,67,92
17088,note_on,0,0,2,,,,,,,,,1,,,71,92
17088,note_on,2,0,1,,,,,,,,,0,,,79,92
17118,note_on,30,0,2,,,,,,,,,1,,,67,0
17118,note_on,30,0,1,,,,,,,,,0,,,79,0
17120,note_on,2,0,1,,,,,,,,,0,,,83,85
17120,note_on,2,0,2,,,,,,,,,1,,,69,85
17150,note_on,30,0,2,,,,,,,,,1,,,69,0
17150,note_on,30,0,1,,,,,,,,,0,,,83,0
17152,note_on,2,0,1,,,,,,,,,0,,,81,77
17152,note_on,2,0,2,,,,,,,,,1,,,67,77
17182,note_on,0,0,2,,,,,,,,,1,,,67,0
17182,note_on,30,0,2,,,,,,,,,1,,,71,0
17182,note_on,30,0,1,,,,,,,,,0,,,81,0
17184,note_on,2,0,2,,,,,,,,,1,,,65,69
17184,note_on,2,0,1,,,,,,,,,0,,,79,69
17214,note_on,30,0,2,,,,,,,,,1,,,65,0
17214,note_on,30,0,1,,,,,,,,,0,,,79,0
17216,note_on,2,0,2,,,,,,,,,1,,,64,61
17216,note_on,2,0,1,,,,,,,,,0,,,81,61
17246,note_on,30,0,2,,,,,,,,,1,,,64,0
17246,note_on,30,0,1,,,,,,,,,0,,,81,0
17248,note_on,2,0,2,,,,,,,,,1,,,62,53
17248,note_on,2,0,1,,,,,,,,,0,,,83,53
17278,note_on,30,0,2,,,,,,,,,1,,,62,0
17278,note_on,30,0,1,,,,,,,,,0,,,83,0
17280,note_on,2,0,2,,,,,,,,,1,,,60,45
17280,note_on,2,0,1,,,,,,,,,0,,,84,45
17312,note_on,32,0,2,,,,,,,,,1,,,60,0
17312,note_on,32,0,1,,,,,,,,,0,,,84,0
17376,note_on,64,0,1,,,,,,,,,0,,,84,45
17376,note_on,0,0,2,,,,,,,,,1,,,72,45
17376,note_on,0,0,2,,,,,,,,,1,,,67,45
17376,note_on,64,0,2,,,,,,,,,1,,,64,45
17398,note_on,22,0,1,,,,,,,,,0,,,84,0
17400,note_on,2,0,1,,,,,,,,,0,,,86,45
17408,note_on,0,0,2,,,,,,,,,1,,,72,0
17408,note_on,0,0,2,,,,,,,,,1,,,67,0
17408,note_on,32,0,2,,,,,,,,,1,,,64,0
17422,note_on,22,0,1,,,,,,,,,0,,,86,0
17424,note_on,2,0,1,,,,,,,,,0,,,88,45
17446,note_on,22,0,1,,,,,,,,,0,,,88,0
17448,note_on,2,0,1,,,,,,,,,0,,,86,45
17470,note_on,22,0,1,,,,,,,,,0,,,86,0
17472,note_on,2,0,1,,,,,,,,,0,,,86,45
17472,note_on,64,0,2,,,,,,,,,1,,,55,45
17504,note_on,32,0,2,,,,,,,,,1,,,55,0
17504,note_on,32,0,1,,,,,,,,,0,,,86,0
17568,note_on,64,0,2,,,,,,,,,1,,,65,45
17568,note_on,0,0,2,,,,,,,,,1,,,67,45
17568,note_on,0,0,2,,,,,,,,,1,,,71,45
17568,note_on,64,0,1,,,,,,,,,0,,,86,45
17590,note_on,22,0,1,,,,,,,,,0,,,86,0
17592,note_on,2,0,1,,,,,,,,,0,,,88,45
17600,note_on,32,0,2,,,,,,,,,1,,,65,0
17600,note_on,0,0,2,,,,,,,,,1,,,67,0
17600,note_on,0,0,2,,,,,,,,,1,,,71,0
17614,note_on,22,0,1,,,,,,,,,0,,,88,0
17616,note_on,2,0,1,,,,,,,,,0,,,89,45
17638,note_on,22,0,1,,,,,,,,,0,,,89,0
17640,note_on,2,0,1,,,,,,,,,0,,,88,45
17662,note_on,22,0,1,,,,,,,,,0,,,88,0
17664,note_on,64,0,2,,,,,,,,,1,,,48,45
17664,note_on,2,0,1,,,,,,,,,0,,,84,45
17696,note_on,32,0,2,,,,,,,,,1,,,48,0
17758,note_on,94,0,1,,,,,,,,,0,,,84,0
17760,note_on,64,0,2,,,,,,,,,1,,,64,45
17760,note_on,0,0,2,,,,,,,,,1,,,67,45
17760,note_on,0,0,2,,,,,,,,,1,,,72,45
17792,note_on,32,0,2,,,,,,,,,1,,,64,0
17792,note_on,0,0,2,,,,,,,,,1,,,72,0
17792,note_on,0,0,2,,,,,,,,,1,,,67,0
17856,note_on,64,0,2,,,,,,,,,1,,,55,45
17856,note_on,0,0,2,,,,,,,,,1,,,65,45
17856,note_on,98,0,1,,,,,,,,,0,,,71,45
17886,note_on,30,0,2,,,,,,,,,1,,,65,0
17886,note_on,30,0,1,,,,,,,,,0,,,71,0
17888,note_on,2,0,1,,,,,,,,,0,,,72,45
17888,note_on,2,0,2,,,,,,,,,1,,,64,45
17918,note_on,30,0,2,,,,,,,,,1,,,64,0
17918,note_on,30,0,1,,,,,,,,,0,,,72,0
17920,note_on,2,0,2,,,,,,,,,1,,,62,45
17920,note_on,2,0,1,,,,,,,,,0,,,74,45
17950,note_on,30,0,2,,,,,,,,,1,,,62,0
17950,note_on,30,0,1,,,,,,,,,0,,,74,0
17952,note_on,2,0,2,,,,,,,,,1,,,65,45
17952,note_on,0,0,1,,,,,,,,,0,,,79,45
17952,note_on,2,0,1,,,,,,,,,0,,,71,63
17982,note_on,30,0,2,,,,,,,,,1,,,65,0
17982,note_on,30,0,1,,,,,,,,,0,,,71,0
17984,note_on,2,0,2,,,,,,,,,1,,,64,45
17984,note_on,2,0,1,,,,,,,,,0,,,72,45
18014,note_on,30,0,2,,,,,,,,,1,,,64,0
18014,note_on,30,0,1,,,,,,,,,0,,,72,0
18016,note_on,2,0,2,,,,,,,,,1,,,62,45
18016,note_on,2,0,1,,,,,,,,,0,,,74,45
18046,note_on,30,0,1,,,,,,,,,0,,,74,0
18046,note_on,30,0,2,,,,,,,,,1,,,62,0
18048,note_on,2,0,1,,,,,,,,,0,,,71,45
18048,note_on,2,0,2,,,,,,,,,1,,,65,45
18078,note_on,30,0,1,,,,,,,,,0,,,71,0
18078,note_on,30,0,2,,,,,,,,,1,,,65,0
18080,note_on,2,0,1,,,,,,,,,0,,,72,45
18080,note_on,2,0,2,,,,,,,,,1,,,64,45
18110,note_on,30,0,2,,,,,,,,,1,,,64,0
18110,note_on,30,0,1,,,,,,,,,0,,,72,0
18112,note_on,2,0,2,,,,,,,,,1,,,62,45
18112,note_on,0,0,1,,,,,,,,,0,,,74,45
18112,note_on,2,0,1,,,,,,,,,0,,,79,0
18142,note_on,30,0,1,,,,,,,,,0,,,74,0
18142,note_on,30,0,2,,,,,,,,,1,,,62,0
18144,note_on,0,0,1,,,,,,,,,0,,,79,45
18144,note_on,2,0,2,,,,,,,,,1,,,65,45
18144,note_on,2,0,1,,,,,,,,,0,,,71,45
18174,note_on,30,0,2,,,,,,,,,1,,,65,0
18174,note_on,30,0,1,,,,,,,,,0,,,71,0
18176,note_on,2,0,2,,,,,,,,,1,,,64,45
18176,note_on,2,0,1,,,,,,,,,0,,,72,45
18206,note_on,30,0,2,,,,,,,,,1,,,64,0
18206,note_on,30,0,1,,,,,,,,,0,,,72,0
18208,note_on,2,0,1,,,,,,,,,0,,,74,45
18208,note_on,2,0,2,,,,,,,,,1,,,62,45
18238,note_on,30,0,2,,,,,,,,,1,,,62,0
18238,note_on,30,0,1,,,,,,,,,0,,,79,0
18238,note_on,0,0,1,,,,,,,,,0,,,74,0
18240,note_on,0,0,1,,,,,,,,,0,,,79,45
18240,note_on,2,0,2,,,,,,,,,1,,,64,45
18240,note_on,2,0,1,,,,,,,,,0,,,72,45
18270,note_on,30,0,2,,,,,,,,,1,,,64,0
18270,note_on,30,0,1,,,,,,,,,0,,,72,0
18272,note_on,2,0,2,,,,,,,,,1,,,62,45
18272,note_on,2,0,1,,,,,,,,,0,,,74,45
18302,note_on,30,0,2,,,,,,,,,1,,,62,0
18302,note_on,30,0,1,,,,,,,,,0,,,74,0
18304,note_on,2,0,1,,,,,,,,,0,,,76,45
18304,note_on,2,0,2,,,,,,,,,1,,,60,45
18334,note_on,30,0,2,,,,,,,,,1,,,60,0
18334,note_on,0,0,1,,,,,,,,,0,,,76,0
18334,note_on,30,0,1,,,,,,,,,0,,,79,0
18336,note_on,2,0,1,,,,,,,,,0,,,72,45
18336,note_on,0,0,1,,,,,,,,,0,,,79,45
18336,note_on,2,0,2,,,,,,,,,1,,,64,45
18366,note_on,30,0,2,,,,,,,,,1,,,64,0
18366,note_on,30,0,1,,,,,,,,,0,,,72,0
18368,note_on,2,0,2,,,,,,,,,1,,,62,45
18368,note_on,2,0,1,,,,,,,,,0,,,74,45
18384,note_on,16,0,2,,,,,,,,,1,,,55,0
18398,note_on,30,0,1,,,,,,,,,0,,,74,0
18398,note_on,14,0,2,,,,,,,,,1,,,62,0
18400,note_on,2,0,1,,,,,,,,,0,,,76,45
18400,note_on,2,0,2,,,,,,,,,1,,,60,45
18430,note_on,30,0,1,,,,,,,,,0,,,79,0
18430,note_on,30,0,2,,,,,,,,,1,,,60,0
18430,note_on,0,0,1,,,,,,,,,0,,,76,0
18432,note_on,2,0,2,,,,,,,,,1,,,55,45
18432,note_on,0,0,2,,,,,,,,,1,,,59,45
18432,note_on,2,0,1,,,,,,,,,0,,,77,45
18462,note_on,30,0,2,,,,,,,,,1,,,59,0
18462,note_on,30,0,1,,,,,,,,,0,,,77,0
18464,note_on,2,0,2,,,,,,,,,1,,,60,45
18464,note_on,2,0,1,,,,,,,,,0,,,76,45
18494,note_on,30,0,1,,,,,,,,,0,,,76,0
18494,note_on,30,0,2,,,,,,,,,1,,,60,0
18496,note_on,2,0,1,,,,,,,,,0,,,74,45
18496,note_on,2,0,2,,,,,,,,,1,,,62,45
18526,note_on,30,0,1,,,,,,,,,0,,,74,0
18526,note_on,30,0,2,,,,,,,,,1,,,62,0
18528,note_on,2,0,2,,,,,,,,,1,,,59,45
18528,note_on,0,0,1,,,,,,,,,0,,,79,45
18528,note_on,2,0,1,,,,,,,,,0,,,77,63
18558,note_on,30,0,2,,,,,,,,,1,,,59,0
18558,note_on,30,0,1,,,,,,,,,0,,,77,0
18560,note_on,2,0,1,,,,,,,,,0,,,76,45
18560,note_on,2,0,2,,,,,,,,,1,,,60,45
18590,note_on,30,0,2,,,,,,,,,1,,,60,0
18590,note_on,30,0,1,,,,,,,,,0,,,76,0
18592,note_on,2,0,1,,,,,,,,,0,,,74,45
18592,note_on,2,0,2,,,,,,,,,1,,,62,45
18622,note_on,30,0,2,,,,,,,,,1,,,62,0
18622,note_on,30,0,1,,,,,,,,,0,,,74,0
18624,note_on,2,0,2,,,,,,,,,1,,,59,45
18624,note_on,2,0,1,,,,,,,,,0,,,77,45
18654,note_on,30,0,2,,,,,,,,,1,,,59,0
18654,note_on,30,0,1,,,,,,,,,0,,,77,0
18656,note_on,2,0,1,,,,,,,,,0,,,76,45
18656,note_on,2,0,2,,,,,,,,,1,,,60,45
18686,note_on,30,0,1,,,,,,,,,0,,,76,0
18686,note_on,30,0,2,,,,,,,,,1,,,60,0
18688,note_on,0,0,1,,,,,,,,,0,,,74,45
18688,note_on,2,0,1,,,,,,,,,0,,,79,0
18688,note_on,2,0,2,,,,,,,,,1,,,62,45
18718,note_on,30,0,2,,,,,,,,,1,,,62,0
18718,note_on,30,0,1,,,,,,,,,0,,,74,0
18720,note_on,0,0,1,,,,,,,,,0,,,79,45
18720,note_on,2,0,1,,,,,,,,,0,,,77,45
18720,note_on,2,0,2,,,,,,,,,1,,,59,45
18750,note_on,30,0,1,,,,,,,,,0,,,77,0
18750,note_on,30,0,2,,,,,,,,,1,,,59,0
18752,note_on,2,0,2,,,,,,,,,1,,,60,45
18752,note_on,2,0,1,,,,,,,,,0,,,76,45
18782,note_on,30,0,2,,,,,,,,,1,,,60,0
18782,note_on,30,0,1,,,,,,,,,0,,,76,0
18784,note_on,2,0,1,,,,,,,,,0,,,74,45
18784,note_on,2,0,2,,,,,,,,,1,,,62,45
18814,note_on,30,0,2,,,,,,,,,1,,,62,0
18814,note_on,0,0,1,,,,,,,,,0,,,74,0
18814,note_on,30,0,1,,,,,,,,,0,,,79,0
18816,note_on,0,0,1,,,,,,,,,0,,,79,45
18816,note_on,2,0,2,,,,,,,,,1,,,60,45
18816,note_on,2,0,1,,,,,,,,,0,,,76,45
18846,note_on,30,0,1,,,,,,,,,0,,,76,0
18846,note_on,30,0,2,,,,,,,,,1,,,60,0
18848,note_on,2,0,1,,,,,,,,,0,,,74,45
18848,note_on,2,0,2,,,,,,,,,1,,,62,45
18878,note_on,30,0,1,,,,,,,,,0,,,74,0
18878,note_on,30,0,2,,,,,,,,,1,,,62,0
18880,note_on,2,0,1,,,,,,,,,0,,,72,45
18880,note_on,2,0,2,,,,,,,,,1,,,64,45
18910,note_on,30,0,2,,,,,,,,,1,,,64,0
18910,note_on,0,0,1,,,,,,,,,0,,,72,0
18910,note_on,30,0,1,,,,,,,,,0,,,79,0
18912,note_on,0,0,1,,,,,,,,,0,,,79,45
18912,note_on,2,0,1,,,,,,,,,0,,,76,45
18912,note_on,2,0,2,,,,,,,,,1,,,60,45
18942,note_on,30,0,1,,,,,,,,,0,,,76,0
18942,note_on,30,0,2,,,,,,,,,1,,,60,0
18944,note_on,2,0,1,,,,,,,,,0,,,74,45
18944,note_on,2,0,2,,,,,,,,,1,,,62,45
18960,note_on,16,0,2,,,,,,,,,1,,,55,0
18974,note_on,14,0,2,,,,,,,,,1,,,62,0
18974,note_on,30,0,1,,,,,,,,,0,,,74,0
18976,note_on,2,0,1,,,,,,,,,0,,,72,45
18976,note_on,2,0,2,,,,,,,,,1,,,64,45
19006,note_on,30,0,2,,,,,,,,,1,,,64,0
19006,note_on,30,0,1,,,,,,,,,0,,,79,0
19006,note_on,0,0,1,,,,,,,,,0,,,72,0
19008,note_on,2,0,2,,,,,,,,,1,,,55,45
19008,note_on,0,0,2,,,,,,,,,1,,,65,45
19008,note_on,2,0,1,,,,,,,,,0,,,71,45
19038,note_on,30,0,2,,,,,,,,,1,,,65,0
19038,note_on,30,0,1,,,,,,,,,0,,,71,0
19040,note_on,2,0,1,,,,,,,,,0,,,72,45
19040,note_on,2,0,2,,,,,,,,,1,,,64,45
19070,note_on,30,0,2,,,,,,,,,1,,,64,0
19070,note_on,30,0,1,,,,,,,,,0,,,72,0
19072,note_on,2,0,2,,,,,,,,,1,,,62,45
19072,note_on,2,0,1,,,,,,,,,0,,,74,45
19102,note_on,30,0,2,,,,,,,,,1,,,62,0
19102,note_on,30,0,1,,,,,,,,,0,,,74,0
19104,note_on,2,0,2,,,,,,,,,1,,,65,45
19104,note_on,2,0,1,,,,,,,,,0,,,71,63
19104,note_on,0,0,1,,,,,,,,,0,,,79,45
19134,note_on,30,0,2,,,,,,,,,1,,,65,0
19134,note_on,30,0,1,,,,,,,,,0,,,71,0
19136,note_on,2,0,2,,,,,,,,,1,,,64,45
19136,note_on,2,0,1,,,,,,,,,0,,,72,45
19166,note_on,30,0,2,,,,,,,,,1,,,64,0
19166,note_on,30,0,1,,,,,,,,,0,,,72,0
19168,note_on,2,0,1,,,,,,,,,0,,,74,45
19168,note_on,2,0,2,,,,,,,,,1,,,62,45
19198,note_on,30,0,1,,,,,,,,,0,,,74,0
19198,note_on,30,0,2,,,,,,,,,1,,,62,0
19200,note_on,2,0,2,,,,,,,,,1,,,65,45
19200,note_on,2,0,1,,,,,,,,,0,,,71,45
19230,note_on,30,0,2,,,,,,,,,1,,,65,0
19230,note_on,30,0,1,,,,,,,,,0,,,71,0
19232,note_on,2,0,2,,,,,,,,,1,,,64,45
19232,note_on,2,0,1,,,,,,,,,0,,,72,45
19262,note_on,30,0,1,,,,,,,,,0,,,72,0
19262,note_on,30,0,2,,,,,,,,,1,,,64,0
19264,note_on,2,0,1,,,,,,,,,0,,,79,0
19264,note_on,2,0,2,,,,,,,,,1,,,62,45
19264,note_on,0,0,1,,,,,,,,,0,,,74,45
19294,note_on,30,0,1,,,,,,,,,0,,,74,0
19294,note_on,30,0,2,,,,,,,,,1,,,62,0
19296,note_on,2,0,1,,,,,,,,,0,,,71,63
19296,note_on,2,0,2,,,,,,,,,1,,,65,45
19296,note_on,0,0,1,,,,,,,,,0,,,79,45
19326,note_on,30,0,1,,,,,,,,,0,,,71,0
19326,note_on,30,0,2,,,,,,,,,1,,,65,0
19328,note_on,2,0,1,,,,,,,,,0,,,72,45
19328,note_on,2,0,2,,,,,,,,,1,,,64,45
19358,note_on,30,0,1,,,,,,,,,0,,,72,0
19358,note_on,30,0,2,,,,,,,,,1,,,64,0
19360,note_on,2,0,1,,,,,,,,,0,,,74,45
19360,note_on,2,0,2,,,,,,,,,1,,,62,45
19390,note_on,0,0,1,,,,,,,,,0,,,74,0
19390,note_on,30,0,1,,,,,,,,,0,,,79,0
19390,note_on,30,0,2,,,,,,,,,1,,,62,0
19392,note_on,2,0,2,,,,,,,,,1,,,64,45
19392,note_on,2,0,1,,,,,,,,,0,,,72,63
19392,note_on,0,0,1,,,,,,,,,0,,,79,45
19422,note_on,30,0,2,,,,,,,,,1,,,64,0
19422,note_on,30,0,1,,,,,,,,,0,,,72,0
19424,note_on,2,0,2,,,,,,,,,1,,,62,45
19424,note_on,2,0,1,,,,,,,,,0,,,74,45
19454,note_on,30,0,1,,,,,,,,,0,,,74,0
19454,note_on,30,0,2,,,,,,,,,1,,,62,0
19456,note_on,2,0,1,,,,,,,,,0,,,76,45
19456,note_on,2,0,2,,,,,,,,,1,,,60,45
19486,note_on,0,0,1,,,,,,,,,0,,,76,0
19486,note_on,30,0,2,,,,,,,,,1,,,60,0
19486,note_on,30,0,1,,,,,,,,,0,,,79,0
19488,note_on,0,0,1,,,,,,,,,0,,,79,45
19488,note_on,2,0,2,,,,,,,,,1,,,64,45
19488,note_on,2,0,1,,,,,,,,,0,,,72,63
19518,note_on,30,0,2,,,,,,,,,1,,,64,0
19518,note_on,30,0,1,,,,,,,,,0,,,72,0
19520,note_on,2,0,2,,,,,,,,,1,,,62,45
19520,note_on,2,0,1,,,,,,,,,0,,,74,45
19536,note_on,16,0,2,,,,,,,,,1,,,55,0
19550,note_on,14,0,2,,,,,,,,,1,,,62,0
19550,note_on,30,0,1,,,,,,,,,0,,,74,0
19552,note_on,2,0,2,,,,,,,,,1,,,60,45
19552,note_on,2,0,1,,,,,,,,,0,,,76,45
19582,note_on,30,0,2,,,,,,,,,1,,,60,0
19582,note_on,30,0,1,,,,,,,,,0,,,79,0
19582,note_on,0,0,1,,,,,,,,,0,,,76,0
19584,note_on,0,0,1,,,,,,,,,0,,,79,45
19584,note_on,2,0,1,,,,,,,,,0,,,71,63
19584,note_on,0,0,2,,,,,,,,,1,,,62,63
19584,note_on,2,0,2,,,,,,,,,1,,,55,45
19605,note_on,21,0,1,,,,,,,,,0,,,71,0
19605,note_on,21,0,2,,,,,,,,,1,,,62,0
19616,note_on,11,0,2,,,,,,,,,1,,,60,45
19616,note_on,11,0,1,,,,,,,,,0,,,72,45
19646,note_on,30,0,1,,,,,,,,,0,,,72,0
19646,note_on,30,0,2,,,,,,,,,1,,,60,0
19648,note_on,2,0,1,,,,,,,,,0,,,74,45
19648,note_on,2,0,2,,,,,,,,,1,,,59,45
19678,note_on,0,0,1,,,,,,,,,0,,,74,0
19678,note_on,30,0,1,,,,,,,,,0,,,79,0
19678,note_on,0,0,2,,,,,,,,,1,,,59,0
19678,note_on,30,0,2,,,,,,,,,1,,,55,0
19680,note_on,2,0,2,,,,,,,,,1,,,50,45
19680,note_on,2,0,1,,,,,,,,,0,,,69,63
19680,note_on,0,0,1,,,,,,,,,0,,,78,45
19680,note_on,0,0,2,,,,,,,,,1,,,60,63
19701,note_on,21,0,1,,,,,,,,,0,,,69,0
19701,note_on,21,0,2,,,,,,,,,1,,,60,0
19712,note_on,11,0,1,,,,,,,,,0,,,71,45
19712,note_on,11,0,2,,,,,,,,,1,,,59,45
19742,note_on,30,0,1,,,,,,,,,0,,,71,0
19742,note_on,30,0,2,,,,,,,,,1,,,59,0
19744,note_on,2,0,1,,,,,,,,,0,,,72,45
19744,note_on,2,0,2,,,,,,,,,1,,,57,45
19774,note_on,30,0,1,,,,,,,,,0,,,78,0
19774,note_on,30,0,2,,,,,,,,,1,,,50,0
19774,note_on,0,0,2,,,,,,,,,1,,,57,0
19774,note_on,0,0,1,,,,,,,,,0,,,72,0
19776,note_on,0,0,2,,,,,,,,,1,,,62,45
19776,note_on,2,0,2,,,,,,,,,1,,,55,45
19776,note_on,2,0,1,,,,,,,,,0,,,71,63
19776,note_on,0,0,1,,,,,,,,,0,,,79,45
19797,note_on,21,0,1,,,,,,,,,0,,,71,0
19797,note_on,21,0,2,,,,,,,,,1,,,62,0
19808,note_on,11,0,2,,,,,,,,,1,,,60,45
19808,note_on,11,0,1,,,,,,,,,0,,,72,45
19838,note_on,30,0,2,,,,,,,,,1,,,60,0
19838,note_on,30,0,1,,,,,,,,,0,,,72,0
19840,note_on,2,0,2,,,,,,,,,1,,,59,45
19840,note_on,2,0,1,,,,,,,,,0,,,74,45
19870,note_on,30,0,2,,,,,,,,,1,,,55,0
19870,note_on,0,0,1,,,,,,,,,0,,,74,0
19870,note_on,30,0,1,,,,,,,,,0,,,79,0
19870,note_on,0,0,2,,,,,,,,,1,,,59,0
19872,note_on,2,0,1,,,,,,,,,0,,,69,63
19872,note_on,2,0,2,,,,,,,,,1,,,50,45
19872,note_on,0,0,2,,,,,,,,,1,,,60,63
19872,note_on,0,0,1,,,,,,,,,0,,,78,45
19893,note_on,21,0,1,,,,,,,,,0,,,69,0
19893,note_on,21,0,2,,,,,,,,,1,,,60,0
19904,note_on,11,0,1,,,,,,,,,0,,,71,45
19904,note_on,11,0,2,,,,,,,,,1,,,59,45
19934,note_on,30,0,1,,,,,,,,,0,,,71,0
19934,note_on,30,0,2,,,,,,,,,1,,,59,0
19936,note_on,2,0,1,,,,,,,,,0,,,72,45
19936,note_on,2,0,2,,,,,,,,,1,,,57,45
19966,note_on,30,0,1,,,,,,,,,0,,,78,0
19966,note_on,0,0,1,,,,,,,,,0,,,72,0
19966,note_on,30,0,2,,,,,,,,,1,,,50,0
19966,note_on,0,0,2,,,,,,,,,1,,,57,0
19968,note_on,2,0,2,,,,,,,,,1,,,55,45
19968,note_on,2,0,1,,,,,,,,,0,,,71,63
19968,note_on,0,0,2,,,,,,,,,1,,,62,63
19968,note_on,0,0,1,,,,,,,,,0,,,79,45
19989,note_on,21,0,2,,,,,,,,,1,,,62,0
19989,note_on,21,0,1,,,,,,,,,0,,,71,0
20000,note_on,11,0,1,,,,,,,,,0,,,72,45
20000,note_on,11,0,2,,,,,,,,,1,,,60,45
20030,note_on,30,0,1,,,,,,,,,0,,,72,0
20030,note_on,30,0,2,,,,,,,,,1,,,60,0
20032,note_on,2,0,1,,,,,,,,,0,,,74,45
20032,note_on,2,0,2,,,,,,,,,1,,,59,45
20062,note_on,0,0,2,,,,,,,,,1,,,59,0
20062,note_on,30,0,2,,,,,,,,,1,,,55,0
20062,note_on,0,0,1,,,,,,,,,0,,,74,0
20062,note_on,30,0,1,,,,,,,,,0,,,79,0
20064,note_on,0,0,1,,,,,,,,,0,,,78,45
20064,note_on,2,0,1,,,,,,,,,0,,,69,63
20064,note_on,2,0,2,,,,,,,,,1,,,50,45
20064,note_on,0,0,2,,,,,,,,,1,,,60,63
20085,note_on,21,0,1,,,,,,,,,0,,,69,0
20085,note_on,21,0,2,,,,,,,,,1,,,60,0
20096,note_on,11,0,2,,,,,,,,,1,,,59,45
20096,note_on,11,0,1,,,,,,,,,0,,,71,45
20126,note_on,30,0,1,,,,,,,,,0,,,71,0
20126,note_on,30,0,2,,,,,,,,,1,,,59,0
20128,note_on,2,0,2,,,,,,,,,1,,,57,45
20128,note_on,2,0,1,,,,,,,,,0,,,72,45
20158,note_on,30,0,2,,,,,,,,,1,,,50,0
20158,note_on,0,0,2,,,,,,,,,1,,,57,0
20158,note_on,30,0,1,,,,,,,,,0,,,78,0
20158,note_on,0,0,1,,,,,,,,,0,,,72,0
20160,note_on,0,0,1,,,,,,,,,0,,,79,45
20160,note_on,2,0,1,,,,,,,,,0,,,71,45
20160,note_on,2,0,2,,,,,,,,,1,,,55,45
20160,note_on,0,0,2,,,,,,,,,1,,,59,45
20190,note_on,30,0,1,,,,,,,,,0,,,79,0
20192,note_on,2,0,1,,,,,,,,,0,,,81,45
20222,note_on,30,0,1,,,,,,,,,0,,,81,0
20224,note_on,2,0,1,,,,,,,,,0,,,79,45
20254,note_on,94,0,2,,,,,,,,,1,,,55,0
20254,note_on,0,0,2,,,,,,,,,1,,,59,0
20254,note_on,30,0,1,,,,,,,,,0,,,71,0
20254,note_on,0,0,1,,,,,,,,,0,,,79,0
20256,note_on,2,0,1,,,,,,,,,0,,,78,45
20286,note_on,30,0,1,,,,,,,,,0,,,78,0
20288,note_on,2,0,1,,,,,,,,,0,,,79,45
20318,note_on,30,0,1,,,,,,,,,0,,,79,0
20320,note_on,2,0,1,,,,,,,,,0,,,78,45
20350,note_on,30,0,1,,,,,,,,,0,,,78,0
20352,note_on,2,0,1,,,,,,,,,0,,,79,45
20382,note_on,30,0,1,,,,,,,,,0,,,79,0
20384,note_on,2,0,1,,,,,,,,,0,,,81,45
20414,note_on,30,0,1,,,,,,,,,0,,,81,0
20416,note_on,2,0,1,,,,,,,,,0,,,79,45
20446,note_on,30,0,1,,,,,,,,,0,,,79,0
20448,note_on,2,0,1,,,,,,,,,0,,,78,45
20478,note_on,30,0,1,,,,,,,,,0,,,78,0
20480,note_on,2,0,1,,,,,,,,,0,,,79,45
20510,note_on,30,0,1,,,,,,,,,0,,,79,0
20512,note_on,2,0,1,,,,,,,,,0,,,78,45
20542,note_on,30,0,1,,,,,,,,,0,,,78,0
20544,note_on,2,0,1,,,,,,,,,0,,,79,45
20574,note_on,30,0,1,,,,,,,,,0,,,79,0
20576,note_on,2,0,1,,,,,,,,,0,,,81,45
20606,note_on,30,0,1,,,,,,,,,0,,,81,0
20608,note_on,2,0,1,,,,,,,,,0,,,79,45
20638,note_on,30,0,1,,,,,,,,,0,,,79,0
20640,note_on,2,0,1,,,,,,,,,0,,,78,45
20670,note_on,30,0,1,,,,,,,,,0,,,78,0
20672,note_on,2,0,1,,,,,,,,,0,,,79,45
20702,note_on,30,0,1,,,,,,,,,0,,,79,0
20704,note_on,2,0,1,,,,,,,,,0,,,78,45
20734,note_on,30,0,1,,,,,,,,,0,,,78,0
20736,note_on,0,0,2,,,,,,,,,1,,,62,63
20736,note_on,482,0,2,,,,,,,,,1,,,55,45
20736,note_on,2,0,1,,,,,,,,,0,,,71,63
20736,note_on,0,0,1,,,,,,,,,0,,,79,45
20757,note_on,21,0,2,,,,,,,,,1,,,62,0
20757,note_on,21,0,1,,,,,,,,,0,,,71,0
20768,note_on,11,0,2,,,,,,,,,1,,,60,45
20768,note_on,11,0,1,,,,,,,,,0,,,72,45
20798,note_on,30,0,1,,,,,,,,,0,,,72,0
20798,note_on,30,0,2,,,,,,,,,1,,,60,0
20800,note_on,2,0,1,,,,,,,,,0,,,74,45
20800,note_on,2,0,2,,,,,,,,,1,,,59,45
20830,note_on,30,0,2,,,,,,,,,1,,,55,0
20830,note_on,0,0,2,,,,,,,,,1,,,59,0
20830,note_on,30,0,1,,,,,,,,,0,,,79,0
20830,note_on,0,0,1,,,,,,,,,0,,,74,0
20832,note_on,0,0,2,,,,,,,,,1,,,60,63
20832,note_on,2,0,1,,,,,,,,,0,,,69,63
20832,note_on,2,0,2,,,,,,,,,1,,,50,45
20832,note_on,0,0,1,,,,,,,,,0,,,78,45
20853,note_on,21,0,1,,,,,,,,,0,,,69,0
20853,note_on,21,0,2,,,,,,,,,1,,,60,0
20864,note_on,11,0,1,,,,,,,,,0,,,71,45
20864,note_on,11,0,2,,,,,,,,,1,,,59,45
20894,note_on,30,0,1,,,,,,,,,0,,,71,0
20894,note_on,30,0,2,,,,,,,,,1,,,59,0
20896,note_on,2,0,2,,,,,,,,,1,,,57,45
20896,note_on,2,0,1,,,,,,,,,0,,,72,45
20926,note_on,30,0,2,,,,,,,,,1,,,50,0
20926,note_on,0,0,2,,,,,,,,,1,,,57,0
20926,note_on,30,0,1,,,,,,,,,0,,,78,0
20926,note_on,0,0,1,,,,,,,,,0,,,72,0
20928,note_on,2,0,2,,,,,,,,,1,,,55,45
20928,note_on,0,0,2,,,,,,,,,1,,,62,63
20928,note_on,0,0,1,,,,,,,,,0,,,79,45
20928,note_on,2,0,1,,,,,,,,,0,,,71,63
20949,note_on,21,0,2,,,,,,,,,1,,,62,0
20949,note_on,21,0,1,,,,,,,,,0,,,71,0
20960,note_on,11,0,2,,,,,,,,,1,,,60,45
20960,note_on,11,0,1,,,,,,,,,0,,,72,45
20990,note_on,30,0,1,,,,,,,,,0,,,72,0
20990,note_on,30,0,2,,,,,,,,,1,,,60,0
20992,note_on,2,0,1,,,,,,,,,0,,,74,45
20992,note_on,2,0,2,,,,,,,,,1,,,59,45
21022,note_on,0,0,2,,,,,,,,,1,,,59,0
21022,note_on,30,0,2,,,,,,,,,1,,,55,0
21022,note_on,0,0,1,,,,,,,,,0,,,74,0
21022,note_on,30,0,1,,,,,,,,,0,,,79,0
21024,note_on,2,0,2,,,,,,,,,1,,,50,45
21024,note_on,2,0,1,,,,,,,,,0,,,69,63
21024,note_on,0,0,1,,,,,,,,,0,,,78,45
21024,note_on,0,0,2,,,,,,,,,1,,,60,63
21045,note_on,21,0,1,,,,,,,,,0,,,69,0
21045,note_on,21,0,2,,,,,,,,,1,,,60,0
21056,note_on,11,0,2,,,,,,,,,1,,,59,45
21056,note_on,11,0,1,,,,,,,,,0,,,71,45
21086,note_on,30,0,2,,,,,,,,,1,,,59,0
21086,note_on,30,0,1,,,,,,,,,0,,,71,0
21088,note_on,2,0,1,,,,,,,,,0,,,72,45
21088,note_on,2,0,2,,,,,,,,,1,,,57,45
21118,note_on,30,0,1,,,,,,,,,0,,,78,0
21118,note_on,0,0,1,,,,,,,,,0,,,72,0
21118,note_on,30,0,2,,,,,,,,,1,,,50,0
21118,note_on,0,0,2,,,,,,,,,1,,,57,0
21120,note_on,2,0,1,,,,,,,,,0,,,71,63
21120,note_on,0,0,1,,,,,,,,,0,,,79,45
21120,note_on,2,0,2,,,,,,,,,1,,,55,45
21120,note_on,0,0,2,,,,,,,,,1,,,62,63
21141,note_on,21,0,1,,,,,,,,,0,,,71,0
21141,note_on,21,0,2,,,,,,,,,1,,,62,0
21152,note_on,11,0,1,,,,,,,,,0,,,72,45
21152,note_on,11,0,2,,,,,,,,,1,,,60,45
21182,note_on,30,0,1,,,,,,,,,0,,,72,0
21182,note_on,30,0,2,,,,,,,,,1,,,60,0
21184,note_on,2,0,2,,,,,,,,,1,,,59,45
21184,note_on,2,0,1,,,,,,,,,0,,,74,45
21214,note_on,30,0,2,,,,,,,,,1,,,55,0
21214,note_on,0,0,2,,,,,,,,,1,,,59,0
21214,note_on,0,0,1,,,,,,,,,0,,,74,0
21214,note_on,30,0,1,,,,,,,,,0,,,79,0
21216,note_on,0,0,1,,,,,,,,,0,,,78,45
21216,note_on,2,0,2,,,,,,,,,1,,,50,45
21216,note_on,2,0,1,,,,,,,,,0,,,69,63
21216,note_on,0,0,2,,,,,,,,,1,,,60,63
21237,note_on,21,0,1,,,,,,,,,0,,,69,0
21237,note_on,21,0,2,,,,,,,,,1,,,60,0
21248,note_on,11,0,1,,,,,,,,,0,,,71,45
21248,note_on,11,0,2,,,,,,,,,1,,,59,45
21278,note_on,30,0,1,,,,,,,,,0,,,71,0
21278,note_on,30,0,2,,,,,,,,,1,,,59,0
21280,note_on,2,0,2,,,,,,,,,1,,,57,45
21280,note_on,2,0,1,,,,,,,,,0,,,72,45
21310,note_on,0,0,2,,,,,,,,,1,,,57,0
21310,note_on,30,0,2,,,,,,,,,1,,,50,0
21310,note_on,30,0,1,,,,,,,,,0,,,78,0
21310,note_on,0,0,1,,,,,,,,,0,,,72,0
21312,note_on,0,0,1,,,,,,,,,0,,,79,45
21312,note_on,2,0,2,,,,,,,,,1,,,55,45
21312,note_on,2,0,1,,,,,,,,,0,,,71,45
21312,note_on,0,0,2,,,,,,,,,1,,,59,45
21342,note_on,30,0,1,,,,,,,,,0,,,79,0
21344,note_on,2,0,1,,,,,,,,,0,,,81,45
21374,note_on,30,0,1,,,,,,,,,0,,,81,0
21376,note_on,2,0,1,,,,,,,,,0,,,79,45
21406,note_on,30,0,1,,,,,,,,,0,,,71,0
21406,note_on,0,0,1,,,,,,,,,0,,,79,0
21406,note_on,94,0,2,,,,,,,,,1,,,55,0
21406,note_on,0,0,2,,,,,,,,,1,,,59,0
21408,note_on,2,0,1,,,,,,,,,0,,,78,45
21438,note_on,30,0,1,,,,,,,,,0,,,78,0
21440,note_on,2,0,1,,,,,,,,,0,,,79,45
21470,note_on,30,0,1,,,,,,,,,0,,,79,0
21472,note_on,2,0,1,,,,,,,,,0,,,78,45
21502,note_on,30,0,1,,,,,,,,,0,,,78,0
21504,note_on,2,0,1,,,,,,,,,0,,,79,45
21534,note_on,30,0,1,,,,,,,,,0,,,79,0
21536,note_on,2,0,1,,,,,,,,,0,,,81,45
21566,note_on,30,0,1,,,,,,,,,0,,,81,0
21568,note_on,2,0,1,,,,,,,,,0,,,79,45
21598,note_on,30,0,1,,,,,,,,,0,,,79,0
21600,note_on,2,0,1,,,,,,,,,0,,,78,45
21630,note_on,30,0,1,,,,,,,,,0,,,78,0
21632,note_on,2,0,1,,,,,,,,,0,,,79,45
21662,note_on,30,0,1,,,,,,,,,0,,,79,0
21664,note_on,2,0,1,,,,,,,,,0,,,78,45
21694,note_on,30,0,1,,,,,,,,,0,,,78,0
21696,note_on,2,0,1,,,,,,,,,0,,,79,45
21726,note_on,30,0,1,,,,,,,,,0,,,79,0
21728,note_on,2,0,1,,,,,,,,,0,,,81,45
21758,note_on,30,0,1,,,,,,,,,0,,,81,0
21760,note_on,2,0,1,,,,,,,,,0,,,79,45
21790,note_on,30,0,1,,,,,,,,,0,,,79,0
21792,note_on,2,0,1,,,,,,,,,0,,,77,45
21822,note_on,30,0,1,,,,,,,,,0,,,77,0
21824,note_on,2,0,1,,,,,,,,,0,,,79,45
21854,note_on,30,0,1,,,,,,,,,0,,,79,0
21856,note_on,2,0,1,,,,,,,,,0,,,77,45
21886,note_on,30,0,1,,,,,,,,,0,,,77,0
21888,note_on,482,0,2,,,,,,,,,1,,,36,45
21888,note_on,2,0,1,,,,,,,,,0,,,76,45
21918,note_on,30,0,2,,,,,,,,,1,,,36,0
21920,note_on,2,0,2,,,,,,,,,1,,,40,45
21950,note_on,30,0,2,,,,,,,,,1,,,40,0
21952,note_on,2,0,2,,,,,,,,,1,,,43,45
21982,note_on,94,0,1,,,,,,,,,0,,,76,0
21982,note_on,30,0,2,,,,,,,,,1,,,43,0
21984,note_on,2,0,2,,,,,,,,,1,,,48,45
22014,note_on,30,0,2,,,,,,,,,1,,,48,0
22016,note_on,2,0,2,,,,,,,,,1,,,52,45
22046,note_on,30,0,2,,,,,,,,,1,,,52,0
22048,note_on,2,0,2,,,,,,,,,1,,,55,45
22078,note_on,30,0,2,,,,,,,,,1,,,55,0
22080,note_on,98,0,1,,,,,,,,,0,,,60,45
22110,note_on,30,0,1,,,,,,,,,0,,,60,0
22112,note_on,2,0,1,,,,,,,,,0,,,64,48
22142,note_on,30,0,1,,,,,,,,,0,,,64,0
22144,note_on,2,0,1,,,,,,,,,0,,,67,52
22174,note_on,30,0,1,,,,,,,,,0,,,67,0
22176,note_on,2,0,1,,,,,,,,,0,,,72,56
22206,note_on,30,0,1,,,,,,,,,0,,,72,0
22208,note_on,2,0,1,,,,,,,,,0,,,76,60
22238,note_on,30,0,1,,,,,,,,,0,,,76,0
22240,note_on,2,0,1,,,,,,,,,0,,,79,64
22270,note_on,30,0,1,,,,,,,,,0,,,79,0
22272,note_on,2,0,1,,,,,,,,,0,,,84,68
22304,note_on,32,0,1,,,,,,,,,0,,,84,0
22368,note_on,290,0,2,,,,,,,,,1,,,48,60
22400,note_on,32,0,2,,,,,,,,,1,,,48,0
22464,note_on,160,0,1,,,,,,,,,0,,,81,92
22558,note_on,94,0,1,,,,,,,,,0,,,81,0
22560,note_on,160,0,2,,,,,,,,,1,,,41,75
22592,note_on,32,0,2,,,,,,,,,1,,,41,0
22656,note_on,64,0,2,,,,,,,,,1,,,81,105
22752,note_on,194,0,1,,,,,,,,,0,,,89,127
22816,note_on,160,0,2,,,,,,,,,1,,,81,0
22846,note_on,94,0,1,,,,,,,,,0,,,89,0
22848,note_on,32,0,2,,,,,,,,,1,,,81,75
22848,note_on,2,0,1,,,,,,,,,0,,,89,92
22878,note_on,30,0,2,,,,,,,,,1,,,81,0
22878,note_on,30,0,1,,,,,,,,,0,,,89,0
22880,note_on,2,0,1,,,,,,,,,0,,,88,92
22880,note_on,2,0,2,,,,,,,,,1,,,79,75
22910,note_on,30,0,1,,,,,,,,,0,,,88,0
22910,note_on,30,0,2,,,,,,,,,1,,,79,0
22912,note_on,2,0,1,,,,,,,,,0,,,86,92
22912,note_on,2,0,2,,,,,,,,,1,,,77,75
22942,note_on,30,0,2,,,,,,,,,1,,,77,0
22942,note_on,30,0,1,,,,,,,,,0,,,86,0
22944,note_on,2,0,2,,,,,,,,,1,,,79,75
22944,note_on,2,0,1,,,,,,,,,0,,,88,92
22974,note_on,30,0,2,,,,,,,,,1,,,79,0
22974,note_on,30,0,1,,,,,,,,,0,,,88,0
22976,note_on,2,0,2,,,,,,,,,1,,,77,75
22976,note_on,2,0,1,,,,,,,,,0,,,86,92
23006,note_on,30,0,1,,,,,,,,,0,,,86,0
23006,note_on,30,0,2,,,,,,,,,1,,,77,0
23008,note_on,2,0,2,,,,,,,,,1,,,76,75
23008,note_on,2,0,1,,,,,,,,,0,,,84,92
23038,note_on,30,0,2,,,,,,,,,1,,,76,0
23038,note_on,30,0,1,,,,,,,,,0,,,84,0
23040,note_on,2,0,2,,,,,,,,,1,,,67,75
23040,note_on,0,0,2,,,,,,,,,1,,,77,75
23040,note_on,2,0,1,,,,,,,,,0,,,86,92
23070,note_on,30,0,2,,,,,,,,,1,,,77,0
23070,note_on,30,0,1,,,,,,,,,0,,,86,0
23072,note_on,2,0,2,,,,,,,,,1,,,76,75
23072,note_on,2,0,1,,,,,,,,,0,,,84,92
23102,note_on,30,0,2,,,,,,,,,1,,,76,0
23102,note_on,30,0,1,,,,,,,,,0,,,84,0
23104,note_on,2,0,2,,,,,,,,,1,,,74,75
23104,note_on,2,0,1,,,,,,,,,0,,,83,92
23134,note_on,30,0,1,,,,,,,,,0,,,83,0
23134,note_on,30,0,2,,,,,,,,,1,,,74,0
23136,note_on,2,0,1,,,,,,,,,0,,,84,92
23136,note_on,2,0,2,,,,,,,,,1,,,76,75
23166,note_on,30,0,2,,,,,,,,,1,,,76,0
23166,note_on,30,0,1,,,,,,,,,0,,,84,0
23168,note_on,2,0,1,,,,,,,,,0,,,83,92
23168,note_on,2,0,2,,,,,,,,,1,,,74,75
23198,note_on,30,0,1,,,,,,,,,0,,,83,0
23198,note_on,30,0,2,,,,,,,,,1,,,74,0
23200,note_on,2,0,1,,,,,,,,,0,,,81,92
23200,note_on,2,0,2,,,,,,,,,1,,,72,75
23230,note_on,30,0,2,,,,,,,,,1,,,72,0
23230,note_on,30,0,1,,,,,,,,,0,,,81,0
23232,note_on,2,0,1,,,,,,,,,0,,,83,92
23232,note_on,2,0,2,,,,,,,,,1,,,74,75
23262,note_on,30,0,2,,,,,,,,,1,,,74,0
23262,note_on,30,0,1,,,,,,,,,0,,,83,0
23264,note_on,2,0,2,,,,,,,,,1,,,72,75
23264,note_on,2,0,1,,,,,,,,,0,,,81,92
23294,note_on,30,0,2,,,,,,,,,1,,,72,0
23294,note_on,30,0,1,,,,,,,,,0,,,81,0
23296,note_on,2,0,2,,,,,,,,,1,,,71,75
23296,note_on,2,0,1,,,,,,,,,0,,,79,92
23326,note_on,30,0,2,,,,,,,,,1,,,71,0
23326,note_on,30,0,1,,,,,,,,,0,,,79,0
23328,note_on,2,0,1,,,,,,,,,0,,,81,92
23328,note_on,2,0,2,,,,,,,,,1,,,72,75
23358,note_on,30,0,2,,,,,,,,,1,,,72,0
23358,note_on,30,0,1,,,,,,,,,0,,,81,0
23360,note_on,2,0,1,,,,,,,,,0,,,79,92
23360,note_on,2,0,2,,,,,,,,,1,,,71,75
23376,note_on,16,0,2,,,,,,,,,1,,,67,0
23390,note_on,30,0,1,,,,,,,,,0,,,79,0
23390,note_on,14,0,2,,,,,,,,,1,,,71,0
23392,note_on,2,0,1,,,,,,,,,0,,,78,92
23392,note_on,2,0,2,,,,,,,,,1,,,69,75
23422,note_on,30,0,1,,,,,,,,,0,,,78,0
23422,note_on,30,0,2,,,,,,,,,1,,,69,0
23424,note_on,0,0,2,,,,,,,,,1,,,71,75
23424,note_on,2,0,1,,,,,,,,,0,,,79,92
23424,note_on,2,0,2,,,,,,,,,1,,,67,75
23454,note_on,30,0,1,,,,,,,,,0,,,79,0
23454,note_on,30,0,2,,,,,,,,,1,,,67,0
23456,note_on,2,0,2,,,,,,,,,1,,,69,70
23456,note_on,2,0,1,,,,,,,,,0,,,83,85
23486,note_on,30,0,1,,,,,,,,,0,,,83,0
23486,note_on,30,0,2,,,,,,,,,1,,,69,0
23488,note_on,2,0,1,,,,,,,,,0,,,81,77
23488,note_on,2,0,2,,,,,,,,,1,,,67,65
23518,note_on,30,0,2,,,,,,,,,1,,,71,0
23518,note_on,0,0,2,,,,,,,,,1,,,67,0
23518,note_on,30,0,1,,,,,,,,,0,,,81,0
23520,note_on,2,0,2,,,,,,,,,1,,,65,60
23520,note_on,2,0,1,,,,,,,,,0,,,79,69
23550,note_on,30,0,2,,,,,,,,,1,,,65,0
23550,note_on,30,0,1,,,,,,,,,0,,,79,0
23552,note_on,2,0,2,,,,,,,,,1,,,64,55
23552,note_on,2,0,1,,,,,,,,,0,,,81,61
23582,note_on,30,0,2,,,,,,,,,1,,,64,0
23582,note_on,30,0,1,,,,,,,,,0,,,81,0
23584,note_on,2,0,2,,,,,,,,,1,,,62,50
23584,note_on,2,0,1,,,,,,,,,0,,,83,53
23614,note_on,30,0,1,,,,,,,,,0,,,83,0
23614,note_on,30,0,2,,,,,,,,,1,,,62,0
23616,note_on,2,0,1,,,,,,,,,0,,,84,45
23616,note_on,2,0,2,,,,,,,,,1,,,60,45
23648,note_on,32,0,1,,,,,,,,,0,,,84,0
23648,note_on,32,0,2,,,,,,,,,1,,,60,0
23712,note_on,0,0,2,,,,,,,,,1,,,67,45
23712,note_on,64,0,1,,,,,,,,,0,,,84,45
23712,note_on,64,0,2,,,,,,,,,1,,,64,45
23712,note_on,0,0,2,,,,,,,,,1,,,72,45
23734,note_on,22,0,1,,,,,,,,,0,,,84,0
23736,note_on,2,0,1,,,,,,,,,0,,,86,45
23744,note_on,32,0,2,,,,,,,,,1,,,64,0
23744,note_on,0,0,2,,,,,,,,,1,,,72,0
23744,note_on,0,0,2,,,,,,,,,1,,,67,0
23758,note_on,22,0,1,,,,,,,,,0,,,86,0
23760,note_on,2,0,1,,,,,,,,,0,,,88,45
23782,note_on,22,0,1,,,,,,,,,0,,,88,0
23784,note_on,2,0,1,,,,,,,,,0,,,86,45
23806,note_on,22,0,1,,,,,,,,,0,,,86,0
23808,note_on,64,0,2,,,,,,,,,1,,,55,45
23808,note_on,2,0,1,,,,,,,,,0,,,86,45
23840,note_on,32,0,1,,,,,,,,,0,,,86,0
23840,note_on,32,0,2,,,,,,,,,1,,,55,0
23904,note_on,0,0,2,,,,,,,,,1,,,71,45
23904,note_on,0,0,2,,,,,,,,,1,,,67,45
23904,note_on,64,0,2,,,,,,,,,1,,,65,45
23904,note_on,64,0,1,,,,,,,,,0,,,86,45
23926,note_on,22,0,1,,,,,,,,,0,,,86,0
23928,note_on,2,0,1,,,,,,,,,0,,,88,45
23936,note_on,32,0,2,,,,,,,,,1,,,65,0
23936,note_on,0,0,2,,,,,,,,,1,,,67,0
23936,note_on,0,0,2,,,,,,,,,1,,,71,0
23950,note_on,22,0,1,,,,,,,,,0,,,88,0
23952,note_on,2,0,1,,,,,,,,,0,,,89,45
23974,note_on,22,0,1,,,,,,,,,0,,,89,0
23976,note_on,2,0,1,,,,,,,,,0,,,88,45
23998,note_on,22,0,1,,,,,,,,,0,,,88,0
24000,note_on,2,0,1,,,,,,,,,0,,,88,45
24000,note_on,64,0,2,,,,,,,,,1,,,48,45
24032,note_on,32,0,2,,,,,,,,,1,,,48,0
24094,note_on,94,0,1,,,,,,,,,0,,,88,0
24096,note_on,2,0,1,,,,,,,,,0,,,84,45
24096,note_on,0,0,2,,,,,,,,,1,,,67,45
24096,note_on,64,0,2,,,,,,,,,1,,,64,45
24096,note_on,0,0,2,,,,,,,,,1,,,72,45
24128,note_on,32,0,1,,,,,,,,,0,,,84,0
24128,note_on,0,0,2,,,,,,,,,1,,,72,0
24128,note_on,0,0,2,,,,,,,,,1,,,67,0
24128,note_on,32,0,2,,,,,,,,,1,,,64,0
24192,note_on,64,0,2,,,,,,,,,1,,,36,45
24222,note_on,30,0,2,,,,,,,,,1,,,36,0
24224,note_on,2,0,2,,,,,,,,,1,,,40,47
24254,note_on,30,0,2,,,,,,,,,1,,,40,0
24256,note_on,2,0,2,,,,,,,,,1,,,43,49
24286,note_on,30,0,2,,,,,,,,,1,,,43,0
24288,note_on,2,0,2,,,,,,,,,1,,,48,51
24318,note_on,30,0,2,,,,,,,,,1,,,48,0
24320,note_on,2,0,2,,,,,,,,,1,,,52,53
24350,note_on,30,0,2,,,,,,,,,1,,,52,0
24352,note_on,2,0,2,,,,,,,,,1,,,55,55
24382,note_on,30,0,2,,,,,,,,,1,,,55,0
24384,note_on,256,0,1,,,,,,,,,0,,,60,60
24414,note_on,30,0,1,,,,,,,,,0,,,60,0
24416,note_on,2,0,1,,,,,,,,,0,,,64,62
24446,note_on,30,0,1,,,,,,,,,0,,,64,0
24448,note_on,2,0,1,,,,,,,,,0,,,67,64
24478,note_on,30,0,1,,,,,,,,,0,,,67,0
24480,note_on,2,0,1,,,,,,,,,0,,,72,66
24510,note_on,30,0,1,,,,,,,,,0,,,72,0
24512,note_on,2,0,1,,,,,,,,,0,,,76,68
24542,note_on,30,0,1,,,,,,,,,0,,,76,0
24544,note_on,2,0,1,,,,,,,,,0,,,79,71
24574,note_on,30,0,1,,,,,,,,,0,,,79,0
24576,note_on,2,0,1,,,,,,,,,0,,,84,74
24608,note_on,32,0,1,,,,,,,,,0,,,84,0
24672,note_on,290,0,2,,,,,,,,,1,,,48,83
24704,note_on,32,0,2,,,,,,,,,1,,,48,0
24768,note_on,160,0,1,,,,,,,,,0,,,81,92
24800,note_on,32,0,1,,,,,,,,,0,,,81,0
24864,note_on,160,0,2,,,,,,,,,1,,,41,92
24896,note_on,32,0,2,,,,,,,,,1,,,41,0
24960,note_on,64,0,2,,,,,,,,,1,,,81,127
25056,note_on,256,0,1,,,,,,,,,0,,,89,127
25120,note_on,160,0,2,,,,,,,,,1,,,81,0
25150,note_on,94,0,1,,,,,,,,,0,,,89,0
25152,note_on,2,0,1,,,,,,,,,0,,,89,92
25152,note_on,32,0,2,,,,,,,,,1,,,81,92
25182,note_on,30,0,2,,,,,,,,,1,,,81,0
25182,note_on,30,0,1,,,,,,,,,0,,,89,0
25184,note_on,2,0,2,,,,,,,,,1,,,79,92
25184,note_on,2,0,1,,,,,,,,,0,,,88,92
25214,note_on,30,0,2,,,,,,,,,1,,,79,0
25214,note_on,30,0,1,,,,,,,,,0,,,88,0
25216,note_on,2,0,2,,,,,,,,,1,,,77,92
25216,note_on,2,0,1,,,,,,,,,0,,,86,92
25246,note_on,30,0,2,,,,,,,,,1,,,77,0
25246,note_on,30,0,1,,,,,,,,,0,,,86,0
25248,note_on,2,0,1,,,,,,,,,0,,,88,92
25248,note_on,2,0,2,,,,,,,,,1,,,79,92
25278,note_on,30,0,2,,,,,,,,,1,,,79,0
25278,note_on,30,0,1,,,,,,,,,0,,,88,0
25280,note_on,2,0,2,,,,,,,,,1,,,77,92
25280,note_on,2,0,1,,,,,,,,,0,,,86,92
25310,note_on,30,0,1,,,,,,,,,0,,,86,0
25310,note_on,30,0,2,,,,,,,,,1,,,77,0
25312,note_on,2,0,1,,,,,,,,,0,,,84,92
25312,note_on,2,0,2,,,,,,,,,1,,,76,92
25342,note_on,30,0,1,,,,,,,,,0,,,84,0
25342,note_on,30,0,2,,,,,,,,,1,,,76,0
25344,note_on,2,0,1,,,,,,,,,0,,,86,92
25344,note_on,0,0,2,,,,,,,,,1,,,77,92
25344,note_on,2,0,2,,,,,,,,,1,,,67,92
25374,note_on,30,0,2,,,,,,,,,1,,,77,0
25374,note_on,30,0,1,,,,,,,,,0,,,86,0
25376,note_on,2,0,2,,,,,,,,,1,,,76,92
25376,note_on,2,0,1,,,,,,,,,0,,,84,92
25406,note_on,30,0,1,,,,,,,,,0,,,84,0
25406,note_on,30,0,2,,,,,,,,,1,,,76,0
25408,note_on,2,0,1,,,,,,,,,0,,,83,92
25408,note_on,2,0,2,,,,,,,,,1,,,74,92
25438,note_on,30,0,1,,,,,,,,,0,,,83,0
25438,note_on,30,0,2,,,,,,,,,1,,,74,0
25440,note_on,2,0,1,,,,,,,,,0,,,84,92
25440,note_on,2,0,2,,,,,,,,,1,,,76,92
25470,note_on,30,0,1,,,,,,,,,0,,,84,0
25470,note_on,30,0,2,,,,,,,,,1,,,76,0
25472,note_on,2,0,1,,,,,,,,,0,,,83,92
25472,note_on,2,0,2,,,,,,,,,1,,,74,92
25502,note_on,30,0,1,,,,,,,,,0,,,83,0
25502,note_on,30,0,2,,,,,,,,,1,,,74,0
25504,note_on,2,0,1,,,,,,,,,0,,,81,92
25504,note_on,2,0,2,,,,,,,,,1,,,72,92
25534,note_on,30,0,1,,,,,,,,,0,,,81,0
25534,note_on,30,0,2,,,,,,,,,1,,,72,0
25536,note_on,2,0,1,,,,,,,,,0,,,83,92
25536,note_on,2,0,2,,,,,,,,,1,,,74,92
25566,note_on,30,0,1,,,,,,,,,0,,,83,0
25566,note_on,30,0,2,,,,,,,,,1,,,74,0
25568,note_on,2,0,2,,,,,,,,,1,,,72,92
25568,note_on,2,0,1,,,,,,,,,0,,,81,92
25598,note_on,30,0,1,,,,,,,,,0,,,81,0
25598,note_on,30,0,2,,,,,,,,,1,,,72,0
25600,note_on,2,0,1,,,,,,,,,0,,,79,92
25600,note_on,2,0,2,,,,,,,,,1,,,71,92
25630,note_on,30,0,1,,,,,,,,,0,,,79,0
25630,note_on,30,0,2,,,,,,,,,1,,,71,0
25632,note_on,2,0,1,,,,,,,,,0,,,81,92
25632,note_on,2,0,2,,,,,,,,,1,,,72,92
25662,note_on,30,0,1,,,,,,,,,0,,,81,0
25662,note_on,30,0,2,,,,,,,,,1,,,72,0
25664,note_on,2,0,1,,,,,,,,,0,,,79,92
25664,note_on,2,0,2,,,,,,,,,1,,,71,92
25680,note_on,16,0,2,,,,,,,,,1,,,67,0
25694,note_on,14,0,2,,,,,,,,,1,,,71,0
25694,note_on,30,0,1,,,,,,,,,0,,,79,0
25696,note_on,2,0,2,,,,,,,,,1,,,69,92
25696,note_on,2,0,1,,,,,,,,,0,,,78,92
25726,note_on,30,0,1,,,,,,,,,0,,,78,0
25726,note_on,30,0,2,,,,,,,,,1,,,69,0
25728,note_on,2,0,1,,,,,,,,,0,,,79,92
25728,note_on,2,0,2,,,,,,,,,1,,,67,92
25728,note_on,0,0,2,,,,,,,,,1,,,71,92
25758,note_on,30,0,1,,,,,,,,,0,,,79,0
25758,note_on,30,0,2,,,,,,,,,1,,,67,0
25760,note_on,2,0,1,,,,,,,,,0,,,83,85
25760,note_on,2,0,2,,,,,,,,,1,,,69,85
25790,note_on,30,0,1,,,,,,,,,0,,,83,0
25790,note_on,30,0,2,,,,,,,,,1,,,69,0
25792,note_on,2,0,1,,,,,,,,,0,,,81,77
25792,note_on,2,0,2,,,,,,,,,1,,,67,77
25822,note_on,30,0,1,,,,,,,,,0,,,81,0
25822,note_on,30,0,2,,,,,,,,,1,,,71,0
25822,note_on,0,0,2,,,,,,,,,1,,,67,0
25824,note_on,2,0,1,,,,,,,,,0,,,79,69
25824,note_on,2,0,2,,,,,,,,,1,,,65,69
25854,note_on,30,0,1,,,,,,,,,0,,,79,0
25854,note_on,30,0,2,,,,,,,,,1,,,65,0
25856,note_on,2,0,1,,,,,,,,,0,,,81,61
25856,note_on,2,0,2,,,,,,,,,1,,,64,61
25886,note_on,30,0,1,,,,,,,,,0,,,81,0
25886,note_on,30,0,2,,,,,,,,,1,,,64,0
25888,note_on,2,0,1,,,,,,,,,0,,,83,53
25888,note_on,2,0,2,,,,,,,,,1,,,62,53
25918,note_on,30,0,2,,,,,,,,,1,,,62,0
25918,note_on,30,0,1,,,,,,,,,0,,,83,0
25920,note_on,2,0,2,,,,,,,,,1,,,60,45
25920,note_on,2,0,1,,,,,,,,,0,,,84,45
25952,note_on,32,0,2,,,,,,,,,1,,,60,0
25952,note_on,32,0,1,,,,,,,,,0,,,84,0
26016,note_on,64,0,1,,,,,,,,,0,,,84,45
26016,note_on,0,0,2,,,,,,,,,1,,,72,45
26016,note_on,0,0,2,,,,,,,,,1,,,67,45
26016,note_on,64,0,2,,,,,,,,,1,,,64,45
26038,note_on,22,0,1,,,,,,,,,0,,,84,0
26040,note_on,2,0,1,,,,,,,,,0,,,86,45
26048,note_on,0,0,2,,,,,,,,,1,,,72,0
26048,note_on,0,0,2,,,,,,,,,1,,,67,0
26048,note_on,32,0,2,,,,,,,,,1,,,64,0
26062,note_on,22,0,1,,,,,,,,,0,,,86,0
26064,note_on,2,0,1,,,,,,,,,0,,,88,45
26086,note_on,22,0,1,,,,,,,,,0,,,88,0
26088,note_on,2,0,1,,,,,,,,,0,,,86,45
26110,note_on,22,0,1,,,,,,,,,0,,,86,0
26112,note_on,64,0,2,,,,,,,,,1,,,55,45
26112,note_on,2,0,1,,,,,,,,,0,,,86,45
26144,note_on,32,0,1,,,,,,,,,0,,,86,0
26144,note_on,32,0,2,,,,,,,,,1,,,55,0
26208,note_on,64,0,2,,,,,,,,,1,,,65,45
26208,note_on,64,0,1,,,,,,,,,0,,,86,45
26208,note_on,0,0,2,,,,,,,,,1,,,71,45
26208,note_on,0,0,2,,,,,,,,,1,,,67,45
26230,note_on,22,0,1,,,,,,,,,0,,,86,0
26232,note_on,2,0,1,,,,,,,,,0,,,88,45
26240,note_on,0,0,2,,,,,,,,,1,,,71,0
26240,note_on,0,0,2,,,,,,,,,1,,,67,0
26240,note_on,32,0,2,,,,,,,,,1,,,65,0
26254,note_on,22,0,1,,,,,,,,,0,,,88,0
26256,note_on,2,0,1,,,,,,,,,0,,,89,45
26278,note_on,22,0,1,,,,,,,,,0,,,89,0
26280,note_on,2,0,1,,,,,,,,,0,,,88,45
26302,note_on,22,0,1,,,,,,,,,0,,,88,0
26304,note_on,2,0,1,,,,,,,,,0,,,84,45
26304,note_on,64,0,2,,,,,,,,,1,,,48,45
26336,note_on,32,0,2,,,,,,,,,1,,,48,0
26398,note_on,94,0,1,,,,,,,,,0,,,84,0
26400,note_on,0,0,2,,,,,,,,,1,,,67,45
26400,note_on,0,0,2,,,,,,,,,1,,,72,45
26400,note_on,64,0,2,,,,,,,,,1,,,64,45
26432,note_on,32,0,2,,,,,,,,,1,,,64,0
26432,note_on,0,0,2,,,,,,,,,1,,,67,0
26432,note_on,0,0,2,,,,,,,,,1,,,72,0
26496,note_on,98,0,1,,,,,,,,,0,,,84,45
26496,note_on,64,0,2,,,,,,,,,1,,,40,45
26528,note_on,32,0,2,,,,,,,,,1,,,40,0
26528,note_on,32,0,1,,,,,,,,,0,,,84,0
26592,note_on,64,0,2,,,,,,,,,1,,,43,45
26592,note_on,0,0,2,,,,,,,,,1,,,47,45
26592,note_on,0,0,2,,,,,,,,,1,,,52,45
26592,note_on,64,0,1,,,,,,,,,0,,,84,45
26614,note_on,22,0,1,,,,,,,,,0,,,84,0
26616,note_on,2,0,1,,,,,,,,,0,,,86,45
26624,note_on,32,0,2,,,,,,,,,1,,,43,0
26624,note_on,0,0,2,,,,,,,,,1,,,47,0
26624,note_on,0,0,2,,,,,,,,,1,,,52,0
26638,note_on,22,0,1,,,,,,,,,0,,,86,0
26640,note_on,2,0,1,,,,,,,,,0,,,88,45
26662,note_on,22,0,1,,,,,,,,,0,,,88,0
26664,note_on,2,0,1,,,,,,,,,0,,,86,45
26686,note_on,22,0,1,,,,,,,,,0,,,86,0
26688,note_on,2,0,1,,,,,,,,,0,,,86,45
26688,note_on,64,0,2,,,,,,,,,1,,,35,45
26720,note_on,32,0,2,,,,,,,,,1,,,35,0
26720,note_on,32,0,1,,,,,,,,,0,,,86,0
26784,note_on,0,0,2,,,,,,,,,1,,,50,45
26784,note_on,0,0,2,,,,,,,,,1,,,47,45
26784,note_on,64,0,2,,,,,,,,,1,,,45,45
26784,note_on,64,0,1,,,,,,,,,0,,,86,45
26806,note_on,22,0,1,,,,,,,,,0,,,86,0
26808,note_on,2,0,1,,,,,,,,,0,,,88,45
26816,note_on,0,0,2,,,,,,,,,1,,,47,0
26816,note_on,32,0,2,,,,,,,,,1,,,45,0
26816,note_on,0,0,2,,,,,,,,,1,,,50,0
26830,note_on,22,0,1,,,,,,,,,0,,,88,0
26832,note_on,2,0,1,,,,,,,,,0,,,89,45
26854,note_on,22,0,1,,,,,,,,,0,,,89,0
26856,note_on,2,0,1,,,,,,,,,0,,,88,45
26878,note_on,22,0,1,,,,,,,,,0,,,88,0
26880,note_on,2,0,1,,,,,,,,,0,,,84,45
26880,note_on,64,0,2,,,,,,,,,1,,,48,45
26912,note_on,32,0,2,,,,,,,,,1,,,48,0
26974,note_on,94,0,1,,,,,,,,,0,,,84,0
27072,note_on,0,0,1,,,,,,,,,0,,,63,45
27072,key_signature,22464,1,0,,,,,,Eb,,,,,,,
27072,note_on,98,0,1,,,,,,,,,0,,,51,45
27072,note_on,160,0,2,,,,,,,,,1,,,36,45
27102,note_on,30,0,2,,,,,,,,,1,,,36,0
27104,note_on,2,0,2,,,,,,,,,1,,,39,45
27134,note_on,30,0,2,,,,,,,,,1,,,39,0
27136,note_on,2,0,2,,,,,,,,,1,,,43,45
27166,note_on,30,0,2,,,,,,,,,1,,,43,0
27168,note_on,2,0,2,,,,,,,,,1,,,48,45
27198,note_on,30,0,2,,,,,,,,,1,,,48,0
27200,note_on,2,0,2,,,,,,,,,1,,,43,45
27230,note_on,30,0,2,,,,,,,,,1,,,43,0
27232,note_on,2,0,2,,,,,,,,,1,,,39,45
27262,note_on,30,0,2,,,,,,,,,1,,,39,0
27264,note_on,2,0,2,,,,,,,,,1,,,36,45
27296,note_on,32,0,2,,,,,,,,,1,,,36,0
27328,note_on,0,0,1,,,,,,,,,0,,,63,0
27328,note_on,256,0,1,,,,,,,,,0,,,51,0
27360,note_on,0,0,1,,,,,,,,,0,,,62,45
27360,note_on,32,0,1,,,,,,,,,0,,,50,45
27454,note_on,94,0,1,,,,,,,,,0,,,50,0
27454,note_on,0,0,1,,,,,,,,,0,,,62,0
27456,note_on,2,0,1,,,,,,,,,0,,,51,45
27456,note_on,0,0,1,,,,,,,,,0,,,63,45
27488,note_on,32,0,1,,,,,,,,,0,,,51,0
27488,note_on,0,0,1,,,,,,,,,0,,,63,0
27552,note_on,64,0,1,,,,,,,,,0,,,48,45
27552,note_on,0,0,1,,,,,,,,,0,,,60,45
27584,note_on,0,0,1,,,,,,,,,0,,,60,0
27584,note_on,32,0,1,,,,,,,,,0,,,48,0
27648,note_on,0,0,1,,,,,,,,,0,,,68,45
27648,note_on,352,0,2,,,,,,,,,1,,,29,45
27648,note_on,64,0,1,,,,,,,,,0,,,56,45
27678,note_on,30,0,2,,,,,,,,,1,,,29,0
27680,note_on,2,0,2,,,,,,,,,1,,,32,45
27710,note_on,30,0,2,,,,,,,,,1,,,32,0
27712,note_on,2,0,2,,,,,,,,,1,,,36,45
27742,note_on,30,0,2,,,,,,,,,1,,,36,0
27744,note_on,2,0,2,,,,,,,,,1,,,41,45
27774,note_on,30,0,2,,,,,,,,,1,,,41,0
27776,note_on,2,0,2,,,,,,,,,1,,,36,45
27806,note_on,30,0,2,,,,,,,,,1,,,36,0
27808,note_on,2,0,2,,,,,,,,,1,,,32,45
27838,note_on,30,0,2,,,,,,,,,1,,,32,0
27840,note_on,2,0,2,,,,,,,,,1,,,29,45
27872,note_on,32,0,2,,,,,,,,,1,,,29,0
27904,note_on,0,0,1,,,,,,,,,0,,,68,0
27904,note_on,256,0,1,,,,,,,,,0,,,56,0
27936,note_on,32,0,1,,,,,,,,,0,,,55,45
27936,note_on,0,0,1,,,,,,,,,0,,,67,45
28030,note_on,94,0,1,,,,,,,,,0,,,55,0
28030,note_on,0,0,1,,,,,,,,,0,,,67,0
28032,note_on,2,0,1,,,,,,,,,0,,,53,45
28032,note_on,0,0,1,,,,,,,,,0,,,65,45
28064,note_on,0,0,1,,,,,,,,,0,,,65,0
28064,note_on,32,0,1,,,,,,,,,0,,,53,0
28128,note_on,64,0,1,,,,,,,,,0,,,51,45
28128,note_on,0,0,1,,,,,,,,,0,,,63,45
28160,note_on,32,0,1,,,,,,,,,0,,,51,0
28160,note_on,0,0,1,,,,,,,,,0,,,63,0
28224,note_on,64,0,1,,,,,,,,,0,,,50,45
28224,note_on,0,0,1,,,,,,,,,0,,,62,45
28224,note_on,352,0,2,,,,,,,,,1,,,34,45
28254,note_on,30,0,2,,,,,,,,,1,,,34,0
28256,note_on,2,0,2,,,,,,,,,1,,,38,45
28286,note_on,30,0,2,,,,,,,,,1,,,38,0
28288,note_on,2,0,2,,,,,,,,,1,,,41,45
28318,note_on,30,0,2,,,,,,,,,1,,,41,0
28320,note_on,2,0,2,,,,,,,,,1,,,46,45
28350,note_on,30,0,2,,,,,,,,,1,,,46,0
28352,note_on,2,0,2,,,,,,,,,1,,,41,45
28382,note_on,30,0,2,,,,,,,,,1,,,41,0
28384,note_on,2,0,2,,,,,,,,,1,,,38,45
28414,note_on,30,0,2,,,,,,,,,1,,,38,0
28416,note_on,2,0,2,,,,,,,,,1,,,34,45
28448,note_on,32,0,2,,,,,,,,,1,,,34,0
28480,note_on,256,0,1,,,,,,,,,0,,,50,0
28480,note_on,0,0,1,,,,,,,,,0,,,62,0
28512,note_on,32,0,1,,,,,,,,,0,,,49,45
28512,note_on,0,0,1,,,,,,,,,0,,,61,45
28606,note_on,94,0,1,,,,,,,,,0,,,49,0
28606,note_on,0,0,1,,,,,,,,,0,,,61,0
28608,note_on,2,0,1,,,,,,,,,0,,,50,45
28608,note_on,0,0,1,,,,,,,,,0,,,62,45
28640,note_on,32,0,1,,,,,,,,,0,,,50,0
28640,note_on,0,0,1,,,,,,,,,0,,,62,0
28704,note_on,64,0,1,,,,,,,,,0,,,46,45
28704,note_on,0,0,1,,,,,,,,,0,,,58,45
28736,note_on,32,0,1,,,,,,,,,0,,,46,0
28736,note_on,0,0,1,,,,,,,,,0,,,58,0
28800,note_on,0,0,1,,,,,,,,,0,,,70,45
28800,note_on,64,0,1,,,,,,,,,0,,,58,45
28800,note_on,352,0,2,,,,,,,,,1,,,31,45
28830,note_on,30,0,2,,,,,,,,,1,,,31,0
28832,note_on,2,0,2,,,,,,,,,1,,,34,45
28862,note_on,30,0,2,,,,,,,,,1,,,34,0
28864,note_on,2,0,2,,,,,,,,,1,,,39,45
28894,note_on,30,0,2,,,,,,,,,1,,,39,0
28896,note_on,2,0,2,,,,,,,,,1,,,43,45
28926,note_on,30,0,2,,,,,,,,,1,,,43,0
28928,note_on,2,0,2,,,,,,,,,1,,,39,45
28958,note_on,30,0,2,,,,,,,,,1,,,39,0
28960,note_on,2,0,2,,,,,,,,,1,,,34,45
28990,note_on,30,0,2,,,,,,,,,1,,,34,0
28992,note_on,2,0,2,,,,,,,,,1,,,31,45
29024,note_on,32,0,2,,,,,,,,,1,,,31,0
29056,note_on,256,0,1,,,,,,,,,0,,,58,0
29056,note_on,0,0,1,,,,,,,,,0,,,70,0
29088,note_on,32,0,1,,,,,,,,,0,,,56,45
29088,note_on,0,0,1,,,,,,,,,0,,,68,45
29182,note_on,94,0,1,,,,,,,,,0,,,56,0
29182,note_on,0,0,1,,,,,,,,,0,,,68,0
29184,note_on,2,0,1,,,,,,,,,0,,,55,45
29184,note_on,0,0,1,,,,,,,,,0,,,67,45
29216,note_on,0,0,1,,,,,,,,,0,,,67,0
29216,note_on,32,0,1,,,,,,,,,0,,,55,0
29280,note_on,0,0,1,,,,,,,,,0,,,65,45
29280,note_on,64,0,1,,,,,,,,,0,,,53,45
29312,note_on,0,0,1,,,,,,,,,0,,,65,0
29312,note_on,32,0,1,,,,,,,,,0,,,53,0
29376,note_on,352,0,2,,,,,,,,,1,,,36,45
29376,note_on,64,0,1,,,,,,,,,0,,,52,45
29376,note_on,0,0,1,,,,,,,,,0,,,64,45
29406,note_on,30,0,2,,,,,,,,,1,,,36,0
29408,note_on,2,0,2,,,,,,,,,1,,,40,45
29438,note_on,30,0,2,,,,,,,,,1,,,40,0
29440,note_on,2,0,2,,,,,,,,,1,,,43,45
29470,note_on,30,0,2,,,,,,,,,1,,,43,0
29472,note_on,2,0,2,,,,,,,,,1,,,48,45
29502,note_on,30,0,2,,,,,,,,,1,,,48,0
29504,note_on,2,0,2,,,,,,,,,1,,,43,45
29534,note_on,30,0,2,,,,,,,,,1,,,43,0
29536,note_on,2,0,2,,,,,,,,,1,,,40,45
29566,note_on,30,0,2,,,,,,,,,1,,,40,0
29568,note_on,2,0,2,,,,,,,,,1,,,36,45
29600,note_on,32,0,2,,,,,,,,,1,,,36,0
29632,note_on,0,0,1,,,,,,,,,0,,,64,0
29632,note_on,256,0,1,,,,,,,,,0,,,52,0
29664,note_on,0,0,1,,,,,,,,,0,,,63,45
29664,note_on,32,0,1,,,,,,,,,0,,,51,45
29758,note_on,0,0,1,,,,,,,,,0,,,63,0
29758,note_on,94,0,1,,,,,,,,,0,,,51,0
29760,note_on,2,0,1,,,,,,,,,0,,,52,45
29760,note_on,0,0,1,,,,,,,,,0,,,64,45
29792,note_on,32,0,1,,,,,,,,,0,,,52,0
29792,note_on,0,0,1,,,,,,,,,0,,,64,0
29856,note_on,64,0,1,,,,,,,,,0,,,48,45
29856,note_on,0,0,1,,,,,,,,,0,,,60,45
29888,note_on,32,0,1,,,,,,,,,0,,,48,0
29888,note_on,0,0,1,,,,,,,,,0,,,60,0
29952,note_on,0,0,1,,,,,,,,,0,,,72,45
29952,note_on,64,0,1,,,,,,,,,0,,,60,45
29952,note_on,352,0,2,,,,,,,,,1,,,32,45
29982,note_on,30,0,2,,,,,,,,,1,,,32,0
29984,note_on,2,0,2,,,,,,,,,1,,,36,45
30014,note_on,30,0,2,,,,,,,,,1,,,36,0
30016,note_on,2,0,2,,,,,,,,,1,,,41,45
30046,note_on,30,0,2,,,,,,,,,1,,,41,0
30048,note_on,2,0,2,,,,,,,,,1,,,44,45
30078,note_on,30,0,2,,,,,,,,,1,,,44,0
30080,note_on,2,0,2,,,,,,,,,1,,,41,45
30110,note_on,30,0,2,,,,,,,,,1,,,41,0
30112,note_on,2,0,2,,,,,,,,,1,,,36,45
30142,note_on,30,0,2,,,,,,,,,1,,,36,0
30144,note_on,2,0,2,,,,,,,,,1,,,32,45
30176,note_on,32,0,2,,,,,,,,,1,,,32,0
30208,note_on,0,0,1,,,,,,,,,0,,,72,0
30208,note_on,256,0,1,,,,,,,,,0,,,60,0
30240,note_on,32,0,1,,,,,,,,,0,,,58,45
30240,note_on,0,0,1,,,,,,,,,0,,,70,45
30334,note_on,94,0,1,,,,,,,,,0,,,58,0
30334,note_on,0,0,1,,,,,,,,,0,,,70,0
30336,note_on,2,0,1,,,,,,,,,0,,,56,45
30336,note_on,0,0,1,,,,,,,,,0,,,68,45
30368,note_on,0,0,1,,,,,,,,,0,,,68,0
30368,note_on,32,0,1,,,,,,,,,0,,,56,0
30432,note_on,64,0,1,,,,,,,,,0,,,55,45
30432,note_on,0,0,1,,,,,,,,,0,,,67,45
30464,note_on,0,0,1,,,,,,,,,0,,,67,0
30464,note_on,32,0,1,,,,,,,,,0,,,55,0
30528,note_on,0,0,1,,,,,,,,,0,,,66,45
30528,note_on,64,0,1,,,,,,,,,0,,,54,45
30560,note_on,384,0,2,,,,,,,,,1,,,44,45
30590,note_on,30,0,2,,,,,,,,,1,,,44,0
30592,note_on,2,0,2,,,,,,,,,1,,,48,45
30622,note_on,30,0,2,,,,,,,,,1,,,48,0
30624,note_on,2,0,2,,,,,,,,,1,,,51,45
30654,note_on,30,0,2,,,,,,,,,1,,,51,0
30656,note_on,2,0,2,,,,,,,,,1,,,48,45
30686,note_on,30,0,2,,,,,,,,,1,,,48,0
30688,note_on,0,0,1,,,,,,,,,0,,,66,0
30688,note_on,2,0,2,,,,,,,,,1,,,44,45
30688,note_on,160,0,1,,,,,,,,,0,,,54,0
30709,note_on,21,0,2,,,,,,,,,1,,,44,0
30720,note_on,0,0,1,,,,,,,,,0,,,66,50
30720,note_on,32,0,1,,,,,,,,,0,,,54,50
30752,note_on,43,0,2,,,,,,,,,1,,,44,45
30782,note_on,30,0,2,,,,,,,,,1,,,44,0
30784,note_on,2,0,2,,,,,,,,,1,,,48,45
30814,note_on,30,0,2,,,,,,,,,1,,,48,0
30816,note_on,2,0,2,,,,,,,,,1,,,51,45
30846,note_on,30,0,2,,,,,,,,,1,,,51,0
30848,note_on,2,0,2,,,,,,,,,1,,,48,45
30878,note_on,30,0,2,,,,,,,,,1,,,48,0
30880,note_on,2,0,2,,,,,,,,,1,,,44,45
30880,note_on,160,0,1,,,,,,,,,0,,,54,0
30880,note_on,0,0,1,,,,,,,,,0,,,66,0
30901,note_on,21,0,2,,,,,,,,,1,,,44,0
30912,note_on,32,0,1,,,,,,,,,0,,,54,55
30912,note_on,0,0,1,,,,,,,,,0,,,66,55
30944,note_on,43,0,2,,,,,,,,,1,,,44,45
30974,note_on,30,0,2,,,,,,,,,1,,,44,0
30976,note_on,2,0,2,,,,,,,,,1,,,48,45
31006,note_on,30,0,2,,,,,,,,,1,,,48,0
31008,note_on,2,0,2,,,,,,,,,1,,,51,45
31038,note_on,30,0,2,,,,,,,,,1,,,51,0
31040,note_on,2,0,2,,,,,,,,,1,,,48,45
31070,note_on,30,0,2,,,,,,,,,1,,,48,0
31072,note_on,0,0,1,,,,,,,,,0,,,66,0
31072,note_on,160,0,1,,,,,,,,,0,,,54,0
31072,note_on,2,0,2,,,,,,,,,1,,,44,45
31093,note_on,21,0,2,,,,,,,,,1,,,44,0
31104,note_on,11,0,2,,,,,,,,,1,,,31,45
31104,note_on,0,0,1,,,,,,,,,0,,,67,60
31104,note_on,32,0,1,,,,,,,,,0,,,55,60
31134,note_on,30,0,2,,,,,,,,,1,,,31,0
31136,note_on,2,0,2,,,,,,,,,1,,,35,45
31166,note_on,30,0,2,,,,,,,,,1,,,35,0
31168,note_on,2,0,2,,,,,,,,,1,,,38,45
31198,note_on,30,0,2,,,,,,,,,1,,,38,0
31200,note_on,2,0,2,,,,,,,,,1,,,43,45
31230,note_on,30,0,2,,,,,,,,,1,,,43,0
31232,note_on,2,0,2,,,,,,,,,1,,,38,45
31262,note_on,30,0,2,,,,,,,,,1,,,38,0
31264,note_on,2,0,2,,,,,,,,,1,,,35,45
31294,note_on,30,0,2,,,,,,,,,1,,,35,0
31296,note_on,2,0,2,,,,,,,,,1,,,31,45
31328,note_on,32,0,2,,,,,,,,,1,,,31,0
31360,note_on,0,0,1,,,,,,,,,0,,,67,0
31360,note_on,256,0,1,,,,,,,,,0,,,55,0
31392,note_on,0,0,1,,,,,,,,,0,,,66,60
31392,note_on,32,0,1,,,,,,,,,0,,,54,60
31486,note_on,0,0,1,,,,,,,,,0,,,66,0
31486,note_on,94,0,1,,,,,,,,,0,,,54,0
31488,note_on,0,0,1,,,,,,,,,0,,,67,60
31488,note_on,2,0,1,,,,,,,,,0,,,55,60
31520,note_on,0,0,1,,,,,,,,,0,,,67,0
31520,note_on,32,0,1,,,,,,,,,0,,,55,0
31584,note_on,0,0,1,,,,,,,,,0,,,77,60
31584,note_on,64,0,1,,,,,,,,,0,,,65,60
31616,note_on,32,0,1,,,,,,,,,0,,,65,0
31616,note_on,0,0,1,,,,,,,,,0,,,77,0
31680,note_on,64,0,1,,,,,,,,,0,,,63,60
31680,note_on,352,0,2,,,,,,,,,1,,,43,45
31680,note_on,0,0,1,,,,,,,,,0,,,75,60
31710,note_on,30,0,2,,,,,,,,,1,,,43,0
31712,note_on,2,0,2,,,,,,,,,1,,,48,45
31742,note_on,30,0,2,,,,,,,,,1,,,48,0
31744,note_on,2,0,2,,,,,,,,,1,,,51,45
31774,note_on,30,0,2,,,,,,,,,1,,,51,0
31776,note_on,2,0,2,,,,,,,,,1,,,55,45
31806,note_on,30,0,2,,,,,,,,,1,,,55,0
31808,note_on,2,0,2,,,,,,,,,1,,,51,45
31838,note_on,30,0,2,,,,,,,,,1,,,51,0
31840,note_on,2,0,2,,,,,,,,,1,,,48,45
31870,note_on,30,0,2,,,,,,,,,1,,,48,0
31872,note_on,2,0,2,,,,,,,,,1,,,43,45
31904,note_on,32,0,2,,,,,,,,,1,,,43,0
31936,note_on,0,0,1,,,,,,,,,0,,,75,0
31936,note_on,256,0,1,,,,,,,,,0,,,63,0
31968,note_on,32,0,1,,,,,,,,,0,,,59,60
31968,note_on,0,0,1,,,,,,,,,0,,,71,60
32062,note_on,0,0,1,,,,,,,,,0,,,71,0
32062,note_on,94,0,1,,,,,,,,,0,,,59,0
32064,note_on,2,0,1,,,,,,,,,0,,,60,60
32064,note_on,0,0,1,,,,,,,,,0,,,72,60
32096,note_on,32,0,1,,,,,,,,,0,,,60,0
32096,note_on,0,0,1,,,,,,,,,0,,,72,0
32160,note_on,64,0,1,,,,,,,,,0,,,56,60
32160,note_on,0,0,1,,,,,,,,,0,,,68,60
32192,note_on,0,0,1,,,,,,,,,0,,,68,0
32192,note_on,32,0,1,,,,,,,,,0,,,56,0
32256,note_on,64,0,1,,,,,,,,,0,,,55,60
32256,note_on,0,0,1,,,,,,,,,0,,,67,60
32256,note_on,352,0,2,,,,,,,,,1,,,31,45
32286,note_on,30,0,2,,,,,,,,,1,,,31,0
32288,note_on,2,0,2,,,,,,,,,1,,,35,45
32318,note_on,30,0,2,,,,,,,,,1,,,35,0
32320,note_on,2,0,2,,,,,,,,,1,,,38,45
32350,note_on,30,0,2,,,,,,,,,1,,,38,0
32352,note_on,2,0,2,,,,,,,,,1,,,43,45
32382,note_on,30,0,2,,,,,,,,,1,,,43,0
32384,note_on,2,0,2,,,,,,,,,1,,,38,45
32414,note_on,30,0,2,,,,,,,,,1,,,38,0
32416,note_on,2,0,2,,,,,,,,,1,,,35,45
32446,note_on,30,0,2,,,,,,,,,1,,,35,0
32448,note_on,2,0,2,,,,,,,,,1,,,31,45
32480,note_on,32,0,2,,,,,,,,,1,,,31,0
32512,note_on,256,0,1,,,,,,,,,0,,,55,0
32512,note_on,0,0,1,,,,,,,,,0,,,67,0
32544,note_on,32,0,1,,,,,,,,,0,,,54,60
32544,note_on,0,0,1,,,,,,,,,0,,,66,60
32638,note_on,94,0,1,,,,,,,,,0,,,54,0
32638,note_on,0,0,1,,,,,,,,,0,,,66,0
32640,note_on,0,0,1,,,,,,,,,0,,,67,60
32640,note_on,2,0,1,,,,,,,,,0,,,55,60
32672,note_on,32,0,1,,,,,,,,,0,,,55,0
32672,note_on,0,0,1,,,,,,,,,0,,,67,0
32736,note_on,64,0,1,,,,,,,,,0,,,65,60
32736,note_on,0,0,1,,,,,,,,,0,,,77,60
32768,note_on,0,0,1,,,,,,,,,0,,,77,0
32768,note_on,32,0,1,,,,,,,,,0,,,65,0
32832,note_on,64,0,1,,,,,,,,,0,,,63,60
32832,note_on,352,0,2,,,,,,,,,1,,,43,45
32832,note_on,0,0,1,,,,,,,,,0,,,75,60
32862,note_on,30,0,2,,,,,,,,,1,,,43,0
32864,note_on,2,0,2,,,,,,,,,1,,,48,45
32894,note_on,30,0,2,,,,,,,,,1,,,48,0
32896,note_on,2,0,2,,,,,,,,,1,,,51,45
32926,note_on,30,0,2,,,,,,,,,1,,,51,0
32928,note_on,2,0,2,,,,,,,,,1,,,55,45
32958,note_on,30,0,2,,,,,,,,,1,,,55,0
32960,note_on,2,0,2,,,,,,,,,1,,,51,45
32990,note_on,30,0,2,,,,,,,,,1,,,51,0
32992,note_on,2,0,2,,,,,,,,,1,,,48,45
33022,note_on,30,0,2,,,,,,,,,1,,,48,0
33024,note_on,2,0,2,,,,,,,,,1,,,43,45
33056,note_on,32,0,2,,,,,,,,,1,,,43,0
33088,note_on,0,0,1,,,,,,,,,0,,,75,0
33088,note_on,256,0,1,,,,,,,,,0,,,63,0
33120,note_on,0,0,1,,,,,,,,,0,,,71,60
33120,note_on,32,0,1,,,,,,,,,0,,,59,60
33214,note_on,0,0,1,,,,,,,,,0,,,71,0
33214,note_on,94,0,1,,,,,,,,,0,,,59,0
33216,note_on,0,0,1,,,,,,,,,0,,,72,60
33216,note_on,2,0,1,,,,,,,,,0,,,60,60
33248,note_on,32,0,1,,,,,,,,,0,,,60,0
33248,note_on,0,0,1,,,,,,,,,0,,,72,0
33312,note_on,64,0,1,,,,,,,,,0,,,56,60
33312,note_on,0,0,1,,,,,,,,,0,,,68,60
33344,note_on,32,0,1,,,,,,,,,0,,,56,0
33344,note_on,0,0,1,,,,,,,,,0,,,68,0
33408,note_on,352,0,2,,,,,,,,,1,,,31,45
33408,note_on,64,0,1,,,,,,,,,0,,,55,60
33408,note_on,0,0,1,,,,,,,,,0,,,67,60
33438,note_on,30,0,2,,,,,,,,,1,,,31,0
33440,note_on,2,0,2,,,,,,,,,1,,,35,46
33470,note_on,30,0,2,,,,,,,,,1,,,35,0
33472,note_on,2,0,2,,,,,,,,,1,,,38,47
33502,note_on,30,0,2,,,,,,,,,1,,,38,0
33504,note_on,2,0,2,,,,,,,,,1,,,43,48
33534,note_on,30,0,2,,,,,,,,,1,,,43,0
33536,note_on,2,0,2,,,,,,,,,1,,,38,49
33566,note_on,30,0,2,,,,,,,,,1,,,38,0
33568,note_on,2,0,2,,,,,,,,,1,,,35,50
33598,note_on,30,0,2,,,,,,,,,1,,,35,0
33600,note_on,2,0,2,,,,,,,,,1,,,31,51
33630,note_on,30,0,2,,,,,,,,,1,,,31,0
33632,note_on,2,0,2,,,,,,,,,1,,,35,52
33662,note_on,30,0,2,,,,,,,,,1,,,35,0
33664,note_on,2,0,2,,,,,,,,,1,,,38,53
33694,note_on,30,0,2,,,,,,,,,1,,,38,0
33696,note_on,2,0,2,,,,,,,,,1,,,43,54
33726,note_on,30,0,2,,,,,,,,,1,,,43,0
33728,note_on,2,0,2,,,,,,,,,1,,,38,56
33744,note_on,336,0,1,,,,,,,,,0,,,55,0
33744,note_on,0,0,1,,,,,,,,,0,,,67,0
33758,note_on,30,0,2,,,,,,,,,1,,,38,0
33760,note_on,2,0,2,,,,,,,,,1,,,35,58
33790,note_on,30,0,2,,,,,,,,,1,,,35,0
33792,note_on,48,0,1,,,,,,,,,0,,,79,76
33792,note_on,2,0,2,,,,,,,,,1,,,31,59
33822,note_on,30,0,1,,,,,,,,,0,,,79,0
33822,note_on,30,0,2,,,,,,,,,1,,,31,0
33824,note_on,2,0,1,,,,,,,,,0,,,74,77
33824,note_on,2,0,2,,,,,,,,,1,,,35,61
33854,note_on,30,0,1,,,,,,,,,0,,,74,0
33854,note_on,30,0,2,,,,,,,,,1,,,35,0
33856,note_on,2,0,2,,,,,,,,,1,,,38,63
33856,note_on,2,0,1,,,,,,,,,0,,,71,78
33886,note_on,30,0,2,,,,,,,,,1,,,38,0
33886,note_on,30,0,1,,,,,,,,,0,,,71,0
33888,note_on,2,0,1,,,,,,,,,0,,,67,79
33888,note_on,2,0,2,,,,,,,,,1,,,43,65
33918,note_on,30,0,1,,,,,,,,,0,,,67,0
33918,note_on,30,0,2,,,,,,,,,1,,,43,0
33920,note_on,2,0,1,,,,,,,,,0,,,71,80
33920,note_on,2,0,2,,,,,,,,,1,,,38,67
33950,note_on,30,0,1,,,,,,,,,0,,,71,0
33950,note_on,30,0,2,,,,,,,,,1,,,38,0
33952,note_on,2,0,1,,,,,,,,,0,,,74,81
33952,note_on,2,0,2,,,,,,,,,1,,,35,69
33982,note_on,30,0,2,,,,,,,,,1,,,35,0
33982,note_on,30,0,1,,,,,,,,,0,,,74,0
33984,note_on,2,0,2,,,,,,,,,1,,,31,99
33984,note_on,2,0,1,,,,,,,,,0,,,79,114
34005,note_on,21,0,1,,,,,,,,,0,,,79,0
34014,note_on,30,0,2,,,,,,,,,1,,,31,0
34016,note_on,2,0,2,,,,,,,,,1,,,35,102
34016,note_on,11,0,1,,,,,,,,,0,,,74,116
34046,note_on,30,0,1,,,,,,,,,0,,,74,0
34046,note_on,30,0,2,,,,,,,,,1,,,35,0
34048,note_on,2,0,1,,,,,,,,,0,,,71,84
34048,note_on,2,0,2,,,,,,,,,1,,,38,75
34078,note_on,30,0,2,,,,,,,,,1,,,38,0
34078,note_on,30,0,1,,,,,,,,,0,,,71,0
34080,note_on,2,0,1,,,,,,,,,0,,,67,85
34080,note_on,2,0,2,,,,,,,,,1,,,43,77
34110,note_on,30,0,2,,,,,,,,,1,,,43,0
34110,note_on,30,0,1,,,,,,,,,0,,,67,0
34112,note_on,2,0,2,,,,,,,,,1,,,38,79
34112,note_on,2,0,1,,,,,,,,,0,,,71,86
34142,note_on,30,0,2,,,,,,,,,1,,,38,0
34142,note_on,30,0,1,,,,,,,,,0,,,71,0
34144,note_on,2,0,2,,,,,,,,,1,,,35,81
34144,note_on,2,0,1,,,,,,,,,0,,,74,87
34174,note_on,30,0,2,,,,,,,,,1,,,35,0
34174,note_on,30,0,1,,,,,,,,,0,,,74,0
34176,note_on,2,0,1,,,,,,,,,0,,,79,123
34176,note_on,2,0,2,,,,,,,,,1,,,31,116
34197,note_on,21,0,1,,,,,,,,,0,,,79,0
34206,note_on,30,0,2,,,,,,,,,1,,,31,0
34208,note_on,11,0,1,,,,,,,,,0,,,74,124
34208,note_on,2,0,2,,,,,,,,,1,,,35,119
34238,note_on,30,0,1,,,,,,,,,0,,,74,0
34238,note_on,30,0,2,,,,,,,,,1,,,35,0
34240,note_on,2,0,1,,,,,,,,,0,,,71,90
34240,note_on,2,0,2,,,,,,,,,1,,,38,87
34270,note_on,30,0,2,,,,,,,,,1,,,38,0
34270,note_on,30,0,1,,,,,,,,,0,,,71,0
34272,note_on,2,0,1,,,,,,,,,0,,,67,91
34272,note_on,2,0,2,,,,,,,,,1,,,43,89
34302,note_on,30,0,2,,,,,,,,,1,,,43,0
34302,note_on,30,0,1,,,,,,,,,0,,,67,0
34304,note_on,2,0,2,,,,,,,,,1,,,38,91
34304,note_on,2,0,1,,,,,,,,,0,,,71,92
34334,note_on,30,0,2,,,,,,,,,1,,,38,0
34334,note_on,30,0,1,,,,,,,,,0,,,71,0
34336,note_on,2,0,2,,,,,,,,,1,,,35,93
34336,note_on,2,0,1,,,,,,,,,0,,,74,94
34366,note_on,30,0,1,,,,,,,,,0,,,74,0
34366,note_on,30,0,2,,,,,,,,,1,,,35,0
34368,note_on,2,0,1,,,,,,,,,0,,,79,127
34368,note_on,2,0,2,,,,,,,,,1,,,31,127
34389,note_on,21,0,1,,,,,,,,,0,,,79,0
34398,note_on,30,0,2,,,,,,,,,1,,,31,0
34400,note_on,11,0,1,,,,,,,,,0,,,74,127
34400,note_on,2,0,2,,,,,,,,,1,,,35,127
34430,note_on,30,0,2,,,,,,,,,1,,,35,0
34430,note_on,30,0,1,,,,,,,,,0,,,74,0
34432,note_on,2,0,2,,,,,,,,,1,,,38,99
34432,note_on,2,0,1,,,,,,,,,0,,,71,100
34462,note_on,30,0,2,,,,,,,,,1,,,38,0
34462,note_on,30,0,1,,,,,,,,,0,,,71,0
34464,note_on,2,0,1,,,,,,,,,0,,,67,102
34464,note_on,2,0,2,,,,,,,,,1,,,43,101
34494,note_on,30,0,1,,,,,,,,,0,,,67,0
34494,note_on,30,0,2,,,,,,,,,1,,,43,0
34496,note_on,2,0,1,,,,,,,,,0,,,71,104
34496,note_on,2,0,2,,,,,,,,,1,,,38,103
34526,note_on,30,0,1,,,,,,,,,0,,,71,0
34526,note_on,30,0,2,,,,,,,,,1,,,38,0
34528,note_on,2,0,2,,,,,,,,,1,,,35,105
34528,note_on,2,0,1,,,,,,,,,0,,,74,106
34558,note_on,30,0,1,,,,,,,,,0,,,74,0
34558,note_on,30,0,2,,,,,,,,,1,,,35,0
34560,note_on,2,0,2,,,,,,,,,1,,,31,108
34560,note_on,0,0,2,,,,,,,,,1,,,43,108
34560,note_on,0,0,1,,,,,,,,,0,,,79,108
34560,note_on,2,0,1,,,,,,,,,0,,,67,108
35088,note_on,0,0,2,,,,,,,,,1,,,43,0
35088,note_on,528,0,1,,,,,,,,,0,,,67,0
35088,note_on,0,0,1,,,,,,,,,0,,,79,0
35088,note_on,528,0,2,,,,,,,,,1,,,31,0
35136,note_on,48,0,2,,,,,,,,,1,,,52,45
35136,note_on,48,0,1,,,,,,,,,0,,,64,45
35296,note_on,160,0,1,,,,,,,,,0,,,64,0
35296,note_on,160,0,2,,,,,,,,,1,,,52,0
35328,note_on,32,0,2,,,,,,,,,1,,,52,45
35328,note_on,32,0,1,,,,,,,,,0,,,64,45
35358,note_on,30,0,1,,,,,,,,,0,,,64,0
35358,note_on,30,0,2,,,,,,,,,1,,,52,0
35360,note_on,2,0,1,,,,,,,,,0,,,67,45
35360,note_on,2,0,2,,,,,,,,,1,,,55,45
35390,note_on,30,0,2,,,,,,,,,1,,,55,0
35390,note_on,30,0,1,,,,,,,,,0,,,67,0
35392,note_on,2,0,2,,,,,,,,,1,,,53,45
35392,note_on,2,0,1,,,,,,,,,0,,,65,45
35422,note_on,30,0,1,,,,,,,,,0,,,65,0
35422,note_on,30,0,2,,,,,,,,,1,,,53,0
35424,note_on,2,0,2,,,,,,,,,1,,,52,45
35424,note_on,2,0,1,,,,,,,,,0,,,64,45
35454,note_on,30,0,2,,,,,,,,,1,,,52,0
35454,note_on,30,0,1,,,,,,,,,0,,,64,0
35456,note_on,2,0,2,,,,,,,,,1,,,50,45
35456,note_on,2,0,1,,,,,,,,,0,,,62,45
35486,note_on,30,0,1,,,,,,,,,0,,,62,0
35486,note_on,30,0,2,,,,,,,,,1,,,50,0
35488,note_on,2,0,2,,,,,,,,,1,,,48,45
35488,note_on,2,0,1,,,,,,,,,0,,,60,45
35518,note_on,30,0,2,,,,,,,,,1,,,48,0
35518,note_on,30,0,1,,,,,,,,,0,,,60,0
35520,note_on,2,0,2,,,,,,,,,1,,,47,45
35520,note_on,2,0,1,,,,,,,,,0,,,59,45
35550,note_on,30,0,1,,,,,,,,,0,,,59,0
35550,note_on,30,0,2,,,,,,,,,1,,,47,0
35552,note_on,2,0,2,,,,,,,,,1,,,45,45
35552,note_on,2,0,1,,,,,,,,,0,,,57,45
35582,note_on,30,0,2,,,,,,,,,1,,,45,0
35582,note_on,30,0,1,,,,,,,,,0,,,57,0
35584,note_on,2,0,1,,,,,,,,,0,,,55,45
35584,note_on,2,0,2,,,,,,,,,1,,,43,45
35614,note_on,30,0,1,,,,,,,,,0,,,55,0
35614,note_on,30,0,2,,,,,,,,,1,,,43,0
35616,note_on,2,0,1,,,,,,,,,0,,,53,45
35616,note_on,2,0,2,,,,,,,,,1,,,41,45
35646,note_on,30,0,2,,,,,,,,,1,,,41,0
35646,note_on,30,0,1,,,,,,,,,0,,,53,0
35648,note_on,2,0,2,,,,,,,,,1,,,40,45
35648,note_on,2,0,1,,,,,,,,,0,,,52,45
35678,note_on,30,0,2,,,,,,,,,1,,,40,0
35678,note_on,30,0,1,,,,,,,,,0,,,52,0
35680,note_on,2,0,2,,,,,,,,,1,,,38,45
35680,note_on,2,0,1,,,,,,,,,0,,,50,45
35710,note_on,30,0,2,,,,,,,,,1,,,38,0
35710,note_on,30,0,1,,,,,,,,,0,,,50,0
35712,key_signature,8640,1,0,,,,,,C,,,,,,,
35712,end_of_track,0,1,0,,,,,,,,,,,,,
35712,note_on,2,0,2,,,,,,,,,1,,,36,45
35712,note_on,2,0,1,,,,,,,,,0,,,48,45
35742,note_on,30,0,1,,,,,,,,,0,,,48,0
35742,note_on,30,0,2,,,,,,,,,1,,,36,0
35744,note_on,2,0,1,,,,,,,,,0,,,52,47
35744,note_on,2,0,2,,,,,,,,,1,,,40,47
35774,note_on,30,0,1,,,,,,,,,0,,,52,0
35774,note_on,30,0,2,,,,,,,,,1,,,40,0
35776,note_on,2,0,1,,,,,,,,,0,,,55,49
35776,note_on,2,0,2,,,,,,,,,1,,,43,49
35806,note_on,30,0,1,,,,,,,,,0,,,55,0
35806,note_on,30,0,2,,,,,,,,,1,,,43,0
35808,note_on,2,0,2,,,,,,,,,1,,,48,51
35808,note_on,2,0,1,,,,,,,,,0,,,60,51
35838,note_on,30,0,1,,,,,,,,,0,,,60,0
35838,note_on,30,0,2,,,,,,,,,1,,,48,0
35840,note_on,2,0,2,,,,,,,,,1,,,52,53
35840,note_on,2,0,1,,,,,,,,,0,,,64,53
35870,note_on,30,0,1,,,,,,,,,0,,,64,0
35870,note_on,30,0,2,,,,,,,,,1,,,52,0
35872,note_on,2,0,2,,,,,,,,,1,,,55,55
35872,note_on,2,0,1,,,,,,,,,0,,,67,55
35902,note_on,30,0,2,,,,,,,,,1,,,55,0
35902,note_on,30,0,1,,,,,,,,,0,,,67,0
35904,note_on,2,0,2,,,,,,,,,1,,,60,57
35904,note_on,2,0,1,,,,,,,,,0,,,72,57
35934,note_on,30,0,2,,,,,,,,,1,,,60,0
35934,note_on,30,0,1,,,,,,,,,0,,,72,0
35936,note_on,2,0,2,,,,,,,,,1,,,64,59
35936,note_on,2,0,1,,,,,,,,,0,,,76,59
35966,note_on,30,0,2,,,,,,,,,1,,,64,0
35966,note_on,30,0,1,,,,,,,,,0,,,76,0
35968,note_on,2,0,1,,,,,,,,,0,,,79,62
35968,note_on,2,0,2,,,,,,,,,1,,,67,62
35998,note_on,30,0,2,,,,,,,,,1,,,67,0
35998,note_on,30,0,1,,,,,,,,,0,,,79,0
36000,note_on,2,0,1,,,,,,,,,0,,,72,65
36030,note_on,30,0,1,,,,,,,,,0,,,72,0
36032,note_on,2,0,1,,,,,,,,,0,,,76,68
36062,note_on,30,0,1,,,,,,,,,0,,,76,0
36064,note_on,2,0,1,,,,,,,,,0,,,79,71
36094,note_on,30,0,1,,,,,,,,,0,,,79,0
36096,note_on,2,0,1,,,,,,,,,0,,,84,74
36128,note_on,32,0,1,,,,,,,,,0,,,84,0
36192,note_on,194,0,2,,,,,,,,,1,,,48,83
36224,note_on,32,0,2,,,,,,,,,1,,,48,0
36288,note_on,160,0,1,,,,,,,,,0,,,81,92
36320,note_on,32,0,1,,,,,,,,,0,,,81,0
36384,note_on,160,0,2,,,,,,,,,1,,,41,92
36416,note_on,32,0,2,,,,,,,,,1,,,41,0
36480,note_on,64,0,2,,,,,,,,,1,,,81,127
36576,note_on,256,0,1,,,,,,,,,0,,,89,127
36640,note_on,160,0,2,,,,,,,,,1,,,81,0
36670,note_on,94,0,1,,,,,,,,,0,,,89,0
36672,note_on,32,0,2,,,,,,,,,1,,,81,92
36672,note_on,2,0,1,,,,,,,,,0,,,89,92
36702,note_on,30,0,1,,,,,,,,,0,,,89,0
36702,note_on,30,0,2,,,,,,,,,1,,,81,0
36704,note_on,2,0,2,,,,,,,,,1,,,79,92
36704,note_on,2,0,1,,,,,,,,,0,,,88,92
36734,note_on,30,0,1,,,,,,,,,0,,,88,0
36734,note_on,30,0,2,,,,,,,,,1,,,79,0
36736,note_on,2,0,1,,,,,,,,,0,,,86,92
36736,note_on,2,0,2,,,,,,,,,1,,,77,92
36766,note_on,30,0,1,,,,,,,,,0,,,86,0
36766,note_on,30,0,2,,,,,,,,,1,,,77,0
36768,note_on,2,0,1,,,,,,,,,0,,,88,92
36768,note_on,2,0,2,,,,,,,,,1,,,79,92
36798,note_on,30,0,1,,,,,,,,,0,,,88,0
36798,note_on,30,0,2,,,,,,,,,1,,,79,0
36800,note_on,2,0,1,,,,,,,,,0,,,86,92
36800,note_on,2,0,2,,,,,,,,,1,,,77,92
36830,note_on,30,0,1,,,,,,,,,0,,,86,0
36830,note_on,30,0,2,,,,,,,,,1,,,77,0
36832,note_on,2,0,2,,,,,,,,,1,,,76,92
36832,note_on,2,0,1,,,,,,,,,0,,,84,92
36862,note_on,30,0,1,,,,,,,,,0,,,84,0
36862,note_on,30,0,2,,,,,,,,,1,,,76,0
36864,note_on,0,0,2,,,,,,,,,1,,,77,92
36864,note_on,2,0,1,,,,,,,,,0,,,86,92
36864,note_on,2,0,2,,,,,,,,,1,,,67,92
36894,note_on,30,0,1,,,,,,,,,0,,,86,0
36894,note_on,30,0,2,,,,,,,,,1,,,77,0
36896,note_on,2,0,1,,,,,,,,,0,,,84,92
36896,note_on,2,0,2,,,,,,,,,1,,,76,92
36926,note_on,30,0,2,,,,,,,,,1,,,76,0
36926,note_on,30,0,1,,,,,,,,,0,,,84,0
36928,note_on,2,0,2,,,,,,,,,1,,,74,92
36928,note_on,2,0,1,,,,,,,,,0,,,83,92
36958,note_on,30,0,2,,,,,,,,,1,,,74,0
36958,note_on,30,0,1,,,,,,,,,0,,,83,0
36960,note_on,2,0,2,,,,,,,,,1,,,76,92
36960,note_on,2,0,1,,,,,,,,,0,,,84,92
36990,note_on,30,0,1,,,,,,,,,0,,,84,0
36990,note_on,30,0,2,,,,,,,,,1,,,76,0
36992,note_on,2,0,2,,,,,,,,,1,,,74,92
36992,note_on,2,0,1,,,,,,,,,0,,,83,92
37022,note_on,30,0,2,,,,,,,,,1,,,74,0
37022,note_on,30,0,1,,,,,,,,,0,,,83,0
37024,note_on,2,0,2,,,,,,,,,1,,,72,92
37024,note_on,2,0,1,,,,,,,,,0,,,81,92
37054,note_on,30,0,1,,,,,,,,,0,,,81,0
37054,note_on,30,0,2,,,,,,,,,1,,,72,0
37056,note_on,2,0,2,,,,,,,,,1,,,74,92
37056,note_on,2,0,1,,,,,,,,,0,,,83,92
37086,note_on,30,0,1,,,,,,,,,0,,,83,0
37086,note_on,30,0,2,,,,,,,,,1,,,74,0
37088,note_on,2,0,1,,,,,,,,,0,,,81,92
37088,note_on,2,0,2,,,,,,,,,1,,,72,92
37118,note_on,30,0,2,,,,,,,,,1,,,72,0
37118,note_on,30,0,1,,,,,,,,,0,,,81,0
37120,note_on,2,0,1,,,,,,,,,0,,,79,92
37120,note_on,2,0,2,,,,,,,,,1,,,71,92
37150,note_on,30,0,2,,,,,,,,,1,,,71,0
37150,note_on,30,0,1,,,,,,,,,0,,,79,0
37152,note_on,2,0,1,,,,,,,,,0,,,81,92
37152,note_on,2,0,2,,,,,,,,,1,,,72,92
37182,note_on,30,0,2,,,,,,,,,1,,,72,0
37182,note_on,30,0,1,,,,,,,,,0,,,81,0
37184,note_on,2,0,2,,,,,,,,,1,,,71,92
37184,note_on,2,0,1,,,,,,,,,0,,,79,92
37200,note_on,16,0,2,,,,,,,,,1,,,67,0
37214,note_on,14,0,2,,,,,,,,,1,,,71,0
37214,note_on,30,0,1,,,,,,,,,0,,,79,0
37216,note_on,2,0,2,,,,,,,,,1,,,69,92
37216,note_on,2,0,1,,,,,,,,,0,,,78,92
37246,note_on,30,0,2,,,,,,,,,1,,,69,0
37246,note_on,30,0,1,,,,,,,,,0,,,78,0
37248,note_on,2,0,2,,,,,,,,,1,,,67,92
37248,note_on,2,0,1,,,,,,,,,0,,,79,92
37248,note_on,0,0,2,,,,,,,,,1,,,71,92
37278,note_on,30,0,1,,,,,,,,,0,,,79,0
37278,note_on,30,0,2,,,,,,,,,1,,,67,0
37280,note_on,2,0,2,,,,,,,,,1,,,69,85
37280,note_on,2,0,1,,,,,,,,,0,,,83,85
37310,note_on,30,0,2,,,,,,,,,1,,,69,0
37310,note_on,30,0,1,,,,,,,,,0,,,83,0
37312,note_on,2,0,1,,,,,,,,,0,,,81,77
37312,note_on,2,0,2,,,,,,,,,1,,,67,77
37342,note_on,30,0,2,,,,,,,,,1,,,71,0
37342,note_on,0,0,2,,,,,,,,,1,,,67,0
37342,note_on,30,0,1,,,,,,,,,0,,,81,0
37344,note_on,2,0,2,,,,,,,,,1,,,65,69
37344,note_on,2,0,1,,,,,,,,,0,,,79,69
37374,note_on,30,0,1,,,,,,,,,0,,,79,0
37374,note_on,30,0,2,,,,,,,,,1,,,65,0
37376,note_on,2,0,2,,,,,,,,,1,,,64,61
37376,note_on,2,0,1,,,,,,,,,0,,,81,61
37406,note_on,30,0,2,,,,,,,,,1,,,64,0
37406,note_on,30,0,1,,,,,,,,,0,,,81,0
37408,note_on,2,0,2,,,,,,,,,1,,,62,53
37408,note_on,2,0,1,,,,,,,,,0,,,83,53
37438,note_on,30,0,1,,,,,,,,,0,,,83,0
37438,note_on,30,0,2,,,,,,,,,1,,,62,0
37440,note_on,2,0,1,,,,,,,,,0,,,84,45
37440,note_on,2,0,2,,,,,,,,,1,,,60,45
37472,note_on,32,0,2,,,,,,,,,1,,,60,0
37472,note_on,32,0,1,,,,,,,,,0,,,84,0
37536,note_on,0,0,2,,,,,,,,,1,,,67,45
37536,note_on,64,0,1,,,,,,,,,0,,,84,45
37536,note_on,64,0,2,,,,,,,,,1,,,64,45
37536,note_on,0,0,2,,,,,,,,,1,,,72,45
37558,note_on,22,0,1,,,,,,,,,0,,,84,0
37560,note_on,2,0,1,,,,,,,,,0,,,86,45
37568,note_on,0,0,2,,,,,,,,,1,,,72,0
37568,note_on,32,0,2,,,,,,,,,1,,,64,0
37568,note_on,0,0,2,,,,,,,,,1,,,67,0
37582,note_on,22,0,1,,,,,,,,,0,,,86,0
37584,note_on,2,0,1,,,,,,,,,0,,,88,45
37606,note_on,22,0,1,,,,,,,,,0,,,88,0
37608,note_on,2,0,1,,,,,,,,,0,,,86,45
37630,note_on,22,0,1,,,,,,,,,0,,,86,0
37632,note_on,64,0,2,,,,,,,,,1,,,55,45
37632,note_on,2,0,1,,,,,,,,,0,,,86,45
37664,note_on,32,0,2,,,,,,,,,1,,,55,0
37664,note_on,32,0,1,,,,,,,,,0,,,86,0
37728,note_on,64,0,2,,,,,,,,,1,,,65,45
37728,note_on,0,0,2,,,,,,,,,1,,,67,45
37728,note_on,0,0,2,,,,,,,,,1,,,71,45
37728,note_on,64,0,1,,,,,,,,,0,,,86,45
37750,note_on,22,0,1,,,,,,,,,0,,,86,0
37752,note_on,2,0,1,,,,,,,,,0,,,88,45
37760,note_on,0,0,2,,,,,,,,,1,,,67,0
37760,note_on,32,0,2,,,,,,,,,1,,,65,0
37760,note_on,0,0,2,,,,,,,,,1,,,71,0
37774,note_on,22,0,1,,,,,,,,,0,,,88,0
37776,note_on,2,0,1,,,,,,,,,0,,,89,45
37798,note_on,22,0,1,,,,,,,,,0,,,89,0
37800,note_on,2,0,1,,,,,,,,,0,,,88,45
37822,note_on,22,0,1,,,,,,,,,0,,,88,0
37824,note_on,64,0,2,,,,,,,,,1,,,48,45
37824,note_on,2,0,1,,,,,,,,,0,,,88,45
37856,note_on,32,0,2,,,,,,,,,1,,,48,0
37918,note_on,94,0,1,,,,,,,,,0,,,88,0
37920,note_on,0,0,2,,,,,,,,,1,,,72,45
37920,note_on,0,0,2,,,,,,,,,1,,,67,45
37920,note_on,64,0,2,,,,,,,,,1,,,64,45
37920,note_on,2,0,1,,,,,,,,,0,,,84,45
37952,note_on,0,0,2,,,,,,,,,1,,,67,0
37952,note_on,32,0,2,,,,,,,,,1,,,64,0
37952,note_on,32,0,1,,,,,,,,,0,,,84,0
37952,note_on,0,0,2,,,,,,,,,1,,,72,0
38016,note_on,64,0,2,,,,,,,,,1,,,36,45
38046,note_on,30,0,2,,,,,,,,,1,,,36,0
38048,note_on,2,0,2,,,,,,,,,1,,,40,45
38078,note_on,30,0,2,,,,,,,,,1,,,40,0
38080,note_on,2,0,2,,,,,,,,,1,,,43,45
38110,note_on,30,0,2,,,,,,,,,1,,,43,0
38112,note_on,2,0,2,,,,,,,,,1,,,48,45
38142,note_on,30,0,2,,,,,,,,,1,,,48,0
38144,note_on,2,0,2,,,,,,,,,1,,,52,45
38174,note_on,30,0,2,,,,,,,,,1,,,52,0
38176,note_on,2,0,2,,,,,,,,,1,,,55,45
38206,note_on,30,0,2,,,,,,,,,1,,,55,0
38208,note_on,256,0,1,,,,,,,,,0,,,60,45
38238,note_on,30,0,1,,,,,,,,,0,,,60,0
38240,note_on,2,0,1,,,,,,,,,0,,,64,45
38270,note_on,30,0,1,,,,,,,,,0,,,64,0
38272,note_on,2,0,1,,,,,,,,,0,,,67,45
38302,note_on,30,0,1,,,,,,,,,0,,,67,0
38304,note_on,2,0,1,,,,,,,,,0,,,72,45
38334,note_on,30,0,1,,,,,,,,,0,,,72,0
38336,note_on,2,0,1,,,,,,,,,0,,,76,45
38366,note_on,30,0,1,,,,,,,,,0,,,76,0
38368,note_on,2,0,1,,,,,,,,,0,,,79,45
38398,note_on,30,0,1,,,,,,,,,0,,,79,0
38400,note_on,2,0,1,,,,,,,,,0,,,84,45
38432,note_on,32,0,1,,,,,,,,,0,,,84,0
38496,note_on,290,0,2,,,,,,,,,1,,,48,45
38528,note_on,32,0,2,,,,,,,,,1,,,48,0
38592,note_on,160,0,1,,,,,,,,,0,,,81,92
38624,note_on,32,0,1,,,,,,,,,0,,,81,0
38688,note_on,160,0,2,,,,,,,,,1,,,41,92
38720,note_on,32,0,2,,,,,,,,,1,,,41,0
38784,note_on,64,0,2,,,,,,,,,1,,,81,127
38880,note_on,256,0,1,,,,,,,,,0,,,89,127
38944,note_on,160,0,2,,,,,,,,,1,,,81,0
38974,note_on,94,0,1,,,,,,,,,0,,,89,0
38976,note_on,32,0,2,,,,,,,,,1,,,81,92
38976,note_on,2,0,1,,,,,,,,,0,,,89,92
39006,note_on,30,0,1,,,,,,,,,0,,,89,0
39006,note_on,30,0,2,,,,,,,,,1,,,81,0
39008,note_on,2,0,2,,,,,,,,,1,,,79,92
39008,note_on,2,0,1,,,,,,,,,0,,,88,92
39038,note_on,30,0,1,,,,,,,,,0,,,88,0
39038,note_on,30,0,2,,,,,,,,,1,,,79,0
39040,note_on,2,0,1,,,,,,,,,0,,,86,92
39040,note_on,2,0,2,,,,,,,,,1,,,77,92
39070,note_on,30,0,1,,,,,,,,,0,,,86,0
39070,note_on,30,0,2,,,,,,,,,1,,,77,0
39072,note_on,2,0,1,,,,,,,,,0,,,88,92
39072,note_on,2,0,2,,,,,,,,,1,,,79,92
39102,note_on,30,0,1,,,,,,,,,0,,,88,0
39102,note_on,30,0,2,,,,,,,,,1,,,79,0
39104,note_on,2,0,1,,,,,,,,,0,,,86,92
39104,note_on,2,0,2,,,,,,,,,1,,,77,92
39134,note_on,30,0,1,,,,,,,,,0,,,86,0
39134,note_on,30,0,2,,,,,,,,,1,,,77,0
39136,note_on,2,0,1,,,,,,,,,0,,,84,92
39136,note_on,2,0,2,,,,,,,,,1,,,76,92
39166,note_on,30,0,2,,,,,,,,,1,,,76,0
39166,note_on,30,0,1,,,,,,,,,0,,,84,0
39168,note_on,0,0,2,,,,,,,,,1,,,77,92
39168,note_on,2,0,2,,,,,,,,,1,,,67,92
39168,note_on,2,0,1,,,,,,,,,0,,,86,92
39198,note_on,30,0,2,,,,,,,,,1,,,77,0
39198,note_on,30,0,1,,,,,,,,,0,,,86,0
39200,note_on,2,0,2,,,,,,,,,1,,,76,92
39200,note_on,2,0,1,,,,,,,,,0,,,84,92
39230,note_on,30,0,2,,,,,,,,,1,,,76,0
39230,note_on,30,0,1,,,,,,,,,0,,,84,0
39232,note_on,2,0,2,,,,,,,,,1,,,74,92
39232,note_on,2,0,1,,,,,,,,,0,,,83,92
39262,note_on,30,0,1,,,,,,,,,0,,,83,0
39262,note_on,30,0,2,,,,,,,,,1,,,74,0
39264,note_on,2,0,2,,,,,,,,,1,,,76,92
39264,note_on,2,0,1,,,,,,,,,0,,,84,92
39294,note_on,30,0,2,,,,,,,,,1,,,76,0
39294,note_on,30,0,1,,,,,,,,,0,,,84,0
39296,note_on,2,0,2,,,,,,,,,1,,,74,92
39296,note_on,2,0,1,,,,,,,,,0,,,83,92
39326,note_on,30,0,1,,,,,,,,,0,,,83,0
39326,note_on,30,0,2,,,,,,,,,1,,,74,0
39328,note_on,2,0,1,,,,,,,,,0,,,81,92
39328,note_on,2,0,2,,,,,,,,,1,,,72,92
39358,note_on,30,0,1,,,,,,,,,0,,,81,0
39358,note_on,30,0,2,,,,,,,,,1,,,72,0
39360,note_on,2,0,1,,,,,,,,,0,,,83,92
39360,note_on,2,0,2,,,,,,,,,1,,,74,92
39390,note_on,30,0,1,,,,,,,,,0,,,83,0
39390,note_on,30,0,2,,,,,,,,,1,,,74,0
39392,note_on,2,0,2,,,,,,,,,1,,,72,92
39392,note_on,2,0,1,,,,,,,,,0,,,81,92
39422,note_on,30,0,2,,,,,,,,,1,,,72,0
39422,note_on,30,0,1,,,,,,,,,0,,,81,0
39424,note_on,2,0,2,,,,,,,,,1,,,71,92
39424,note_on,2,0,1,,,,,,,,,0,,,79,92
39454,note_on,30,0,1,,,,,,,,,0,,,79,0
39454,note_on,30,0,2,,,,,,,,,1,,,71,0
39456,note_on,2,0,2,,,,,,,,,1,,,72,92
39456,note_on,2,0,1,,,,,,,,,0,,,81,92
39486,note_on,30,0,1,,,,,,,,,0,,,81,0
39486,note_on,30,0,2,,,,,,,,,1,,,72,0
39488,note_on,2,0,2,,,,,,,,,1,,,71,92
39488,note_on,2,0,1,,,,,,,,,0,,,79,92
39504,note_on,16,0,2,,,,,,,,,1,,,67,0
39518,note_on,14,0,2,,,,,,,,,1,,,71,0
39518,note_on,30,0,1,,,,,,,,,0,,,79,0
39520,note_on,2,0,2,,,,,,,,,1,,,69,92
39520,note_on,2,0,1,,,,,,,,,0,,,78,92
39550,note_on,30,0,2,,,,,,,,,1,,,69,0
39550,note_on,30,0,1,,,,,,,,,0,,,78,0
39552,note_on,2,0,2,,,,,,,,,1,,,67,92
39552,note_on,0,0,2,,,,,,,,,1,,,71,92
39552,note_on,2,0,1,,,,,,,,,0,,,79,92
39582,note_on,30,0,1,,,,,,,,,0,,,79,0
39582,note_on,30,0,2,,,,,,,,,1,,,67,0
39584,note_on,2,0,1,,,,,,,,,0,,,83,85
39584,note_on,2,0,2,,,,,,,,,1,,,69,85
39614,note_on,30,0,2,,,,,,,,,1,,,69,0
39614,note_on,30,0,1,,,,,,,,,0,,,83,0
39616,note_on,2,0,2,,,,,,,,,1,,,67,77
39616,note_on,2,0,1,,,,,,,,,0,,,81,77
39646,note_on,0,0,2,,,,,,,,,1,,,67,0
39646,note_on,30,0,2,,,,,,,,,1,,,71,0
39646,note_on,30,0,1,,,,,,,,,0,,,81,0
39648,note_on,2,0,2,,,,,,,,,1,,,65,69
39648,note_on,2,0,1,,,,,,,,,0,,,79,69
39678,note_on,30,0,1,,,,,,,,,0,,,79,0
39678,note_on,30,0,2,,,,,,,,,1,,,65,0
39680,note_on,2,0,1,,,,,,,,,0,,,81,61
39680,note_on,2,0,2,,,,,,,,,1,,,64,61
39710,note_on,30,0,2,,,,,,,,,1,,,64,0
39710,note_on,30,0,1,,,,,,,,,0,,,81,0
39712,note_on,2,0,1,,,,,,,,,0,,,83,53
39712,note_on,2,0,2,,,,,,,,,1,,,62,53
39742,note_on,30,0,2,,,,,,,,,1,,,62,0
39742,note_on,30,0,1,,,,,,,,,0,,,83,0
39744,note_on,2,0,2,,,,,,,,,1,,,60,45
39744,note_on,2,0,1,,,,,,,,,0,,,84,45
39776,note_on,32,0,2,,,,,,,,,1,,,60,0
39776,note_on,32,0,1,,,,,,,,,0,,,84,0
39840,note_on,0,0,2,,,,,,,,,1,,,67,45
39840,note_on,64,0,2,,,,,,,,,1,,,64,45
39840,note_on,0,0,2,,,,,,,,,1,,,72,45
39840,note_on,64,0,1,,,,,,,,,0,,,84,45
39862,note_on,22,0,1,,,,,,,,,0,,,84,0
39864,note_on,2,0,1,,,,,,,,,0,,,86,45
39872,note_on,32,0,2,,,,,,,,,1,,,64,0
39872,note_on,0,0,2,,,,,,,,,1,,,72,0
39872,note_on,0,0,2,,,,,,,,,1,,,67,0
39886,note_on,22,0,1,,,,,,,,,0,,,86,0
39888,note_on,2,0,1,,,,,,,,,0,,,88,45
39910,note_on,22,0,1,,,,,,,,,0,,,88,0
39912,note_on,2,0,1,,,,,,,,,0,,,86,45
39934,note_on,22,0,1,,,,,,,,,0,,,86,0
39936,note_on,2,0,1,,,,,,,,,0,,,86,45
39936,note_on,64,0,2,,,,,,,,,1,,,55,45
39968,note_on,32,0,2,,,,,,,,,1,,,55,0
39968,note_on,32,0,1,,,,,,,,,0,,,86,0
40032,note_on,64,0,2,,,,,,,,,1,,,65,45
40032,note_on,64,0,1,,,,,,,,,0,,,86,45
40032,note_on,0,0,2,,,,,,,,,1,,,71,45
40032,note_on,0,0,2,,,,,,,,,1,,,67,45
40054,note_on,22,0,1,,,,,,,,,0,,,86,0
40056,note_on,2,0,1,,,,,,,,,0,,,88,45
40064,note_on,0,0,2,,,,,,,,,1,,,71,0
40064,note_on,0,0,2,,,,,,,,,1,,,67,0
40064,note_on,32,0,2,,,,,,,,,1,,,65,0
40078,note_on,22,0,1,,,,,,,,,0,,,88,0
40080,note_on,2,0,1,,,,,,,,,0,,,89,45
40102,note_on,22,0,1,,,,,,,,,0,,,89,0
40104,note_on,2,0,1,,,,,,,,,0,,,88,45
40126,note_on,22,0,1,,,,,,,,,0,,,88,0
40128,note_on,64,0,2,,,,,,,,,1,,,48,45
40128,note_on,2,0,1,,,,,,,,,0,,,84,45
40160,note_on,32,0,2,,,,,,,,,1,,,48,0
40222,note_on,94,0,1,,,,,,,,,0,,,84,0
40224,note_on,64,0,2,,,,,,,,,1,,,64,45
40224,note_on,0,0,2,,,,,,,,,1,,,72,45
40224,note_on,0,0,2,,,,,,,,,1,,,67,45
40256,note_on,0,0,2,,,,,,,,,1,,,67,0
40256,note_on,0,0,2,,,,,,,,,1,,,72,0
40256,note_on,32,0,2,,,,,,,,,1,,,64,0
40320,note_on,0,0,2,,,,,,,,,1,,,65,45
40320,note_on,64,0,2,,,,,,,,,1,,,55,45
40320,note_on,98,0,1,,,,,,,,,0,,,71,45
40350,note_on,30,0,1,,,,,,,,,0,,,71,0
40350,note_on,30,0,2,,,,,,,,,1,,,65,0
40352,note_on,2,0,2,,,,,,,,,1,,,64,45
40352,note_on,2,0,1,,,,,,,,,0,,,72,45
40382,note_on,30,0,1,,,,,,,,,0,,,72,0
40382,note_on,30,0,2,,,,,,,,,1,,,64,0
40384,note_on,2,0,2,,,,,,,,,1,,,62,45
40384,note_on,2,0,1,,,,,,,,,0,,,74,45
40414,note_on,30,0,1,,,,,,,,,0,,,74,0
40414,note_on,30,0,2,,,,,,,,,1,,,62,0
40416,note_on,2,0,1,,,,,,,,,0,,,71,63
40416,note_on,0,0,1,,,,,,,,,0,,,79,45
40416,note_on,2,0,2,,,,,,,,,1,,,65,45
40446,note_on,30,0,1,,,,,,,,,0,,,71,0
40446,note_on,30,0,2,,,,,,,,,1,,,65,0
40448,note_on,2,0,1,,,,,,,,,0,,,72,45
40448,note_on,2,0,2,,,,,,,,,1,,,64,45
40478,note_on,30,0,2,,,,,,,,,1,,,64,0
40478,note_on,30,0,1,,,,,,,,,0,,,72,0
40480,note_on,2,0,2,,,,,,,,,1,,,62,45
40480,note_on,2,0,1,,,,,,,,,0,,,74,45
40510,note_on,30,0,2,,,,,,,,,1,,,62,0
40510,note_on,30,0,1,,,,,,,,,0,,,74,0
40512,note_on,2,0,2,,,,,,,,,1,,,65,45
40512,note_on,2,0,1,,,,,,,,,0,,,71,45
40542,note_on,30,0,2,,,,,,,,,1,,,65,0
40542,note_on,30,0,1,,,,,,,,,0,,,71,0
40544,note_on,2,0,2,,,,,,,,,1,,,64,45
40544,note_on,2,0,1,,,,,,,,,0,,,72,45
40574,note_on,30,0,1,,,,,,,,,0,,,72,0
40574,note_on,30,0,2,,,,,,,,,1,,,64,0
40576,note_on,2,0,1,,,,,,,,,0,,,79,0
40576,note_on,0,0,1,,,,,,,,,0,,,74,45
40576,note_on,2,0,2,,,,,,,,,1,,,62,45
40606,note_on,30,0,2,,,,,,,,,1,,,62,0
40606,note_on,30,0,1,,,,,,,,,0,,,74,0
40608,note_on,2,0,2,,,,,,,,,1,,,65,45
40608,note_on,2,0,1,,,,,,,,,0,,,71,45
40608,note_on,0,0,1,,,,,,,,,0,,,79,45
40638,note_on,30,0,1,,,,,,,,,0,,,71,0
40638,note_on,30,0,2,,,,,,,,,1,,,65,0
40640,note_on,2,0,2,,,,,,,,,1,,,64,45
40640,note_on,2,0,1,,,,,,,,,0,,,72,45
40670,note_on,30,0,2,,,,,,,,,1,,,64,0
40670,note_on,30,0,1,,,,,,,,,0,,,72,0
40672,note_on,2,0,2,,,,,,,,,1,,,62,45
40672,note_on,2,0,1,,,,,,,,,0,,,74,45
40702,note_on,30,0,2,,,,,,,,,1,,,62,0
40702,note_on,30,0,1,,,,,,,,,0,,,79,0
40702,note_on,0,0,1,,,,,,,,,0,,,74,0
40704,note_on,2,0,1,,,,,,,,,0,,,72,45
40704,note_on,0,0,1,,,,,,,,,0,,,79,45
40704,note_on,2,0,2,,,,,,,,,1,,,64,45
40734,note_on,30,0,1,,,,,,,,,0,,,72,0
40734,note_on,30,0,2,,,,,,,,,1,,,64,0
40736,note_on,2,0,1,,,,,,,,,0,,,74,45
40736,note_on,2,0,2,,,,,,,,,1,,,62,45
40766,note_on,30,0,1,,,,,,,,,0,,,74,0
40766,note_on,30,0,2,,,,,,,,,1,,,62,0
40768,note_on,2,0,2,,,,,,,,,1,,,60,45
40768,note_on,2,0,1,,,,,,,,,0,,,76,45
40798,note_on,0,0,1,,,,,,,,,0,,,76,0
40798,note_on,30,0,2,,,,,,,,,1,,,60,0
40798,note_on,30,0,1,,,,,,,,,0,,,79,0
40800,note_on,2,0,1,,,,,,,,,0,,,72,45
40800,note_on,0,0,1,,,,,,,,,0,,,79,45
40800,note_on,2,0,2,,,,,,,,,1,,,64,45
40830,note_on,30,0,1,,,,,,,,,0,,,72,0
40830,note_on,30,0,2,,,,,,,,,1,,,64,0
40832,note_on,2,0,2,,,,,,,,,1,,,62,45
40832,note_on,2,0,1,,,,,,,,,0,,,74,45
40848,note_on,16,0,2,,,,,,,,,1,,,55,0
40862,note_on,30,0,1,,,,,,,,,0,,,74,0
40862,note_on,14,0,2,,,,,,,,,1,,,62,0
40864,note_on,2,0,2,,,,,,,,,1,,,60,45
40864,note_on,2,0,1,,,,,,,,,0,,,76,45
40894,note_on,30,0,1,,,,,,,,,0,,,79,0
40894,note_on,0,0,1,,,,,,,,,0,,,76,0
40894,note_on,30,0,2,,,,,,,,,1,,,60,0
40896,note_on,2,0,1,,,,,,,,,0,,,77,45
40896,note_on,0,0,2,,,,,,,,,1,,,59,45
40896,note_on,2,0,2,,,,,,,,,1,,,55,45
40926,note_on,30,0,1,,,,,,,,,0,,,77,0
40926,note_on,30,0,2,,,,,,,,,1,,,59,0
40928,note_on,2,0,2,,,,,,,,,1,,,60,45
40928,note_on,2,0,1,,,,,,,,,0,,,76,45
40958,note_on,30,0,1,,,,,,,,,0,,,76,0
40958,note_on,30,0,2,,,,,,,,,1,,,60,0
40960,note_on,2,0,1,,,,,,,,,0,,,74,45
40960,note_on,2,0,2,,,,,,,,,1,,,62,45
40990,note_on,30,0,1,,,,,,,,,0,,,74,0
40990,note_on,30,0,2,,,,,,,,,1,,,62,0
40992,note_on,2,0,1,,,,,,,,,0,,,77,63
40992,note_on,2,0,2,,,,,,,,,1,,,59,45
40992,note_on,0,0,1,,,,,,,,,0,,,79,45
41022,note_on,30,0,1,,,,,,,,,0,,,77,0
41022,note_on,30,0,2,,,,,,,,,1,,,59,0
41024,note_on,2,0,1,,,,,,,,,0,,,76,45
41024,note_on,2,0,2,,,,,,,,,1,,,60,45
41054,note_on,30,0,1,,,,,,,,,0,,,76,0
41054,note_on,30,0,2,,,,,,,,,1,,,60,0
41056,note_on,2,0,2,,,,,,,,,1,,,62,45
41056,note_on,2,0,1,,,,,,,,,0,,,74,45
41086,note_on,30,0,2,,,,,,,,,1,,,62,0
41086,note_on,30,0,1,,,,,,,,,0,,,74,0
41088,note_on,2,0,2,,,,,,,,,1,,,59,45
41088,note_on,2,0,1,,,,,,,,,0,,,77,45
41118,note_on,30,0,2,,,,,,,,,1,,,59,0
41118,note_on,30,0,1,,,,,,,,,0,,,77,0
41120,note_on,2,0,2,,,,,,,,,1,,,60,45
41120,note_on,2,0,1,,,,,,,,,0,,,76,45
41150,note_on,30,0,2,,,,,,,,,1,,,60,0
41150,note_on,30,0,1,,,,,,,,,0,,,76,0
41152,note_on,2,0,1,,,,,,,,,0,,,79,0
41152,note_on,0,0,1,,,,,,,,,0,,,74,45
41152,note_on,2,0,2,,,,,,,,,1,,,62,45
41182,note_on,30,0,2,,,,,,,,,1,,,62,0
41182,note_on,30,0,1,,,,,,,,,0,,,74,0
41184,note_on,0,0,1,,,,,,,,,0,,,79,45
41184,note_on,2,0,1,,,,,,,,,0,,,77,45
41184,note_on,2,0,2,,,,,,,,,1,,,59,45
41214,note_on,30,0,2,,,,,,,,,1,,,59,0
41214,note_on,30,0,1,,,,,,,,,0,,,77,0
41216,note_on,2,0,2,,,,,,,,,1,,,60,45
41216,note_on,2,0,1,,,,,,,,,0,,,76,45
41246,note_on,30,0,1,,,,,,,,,0,,,76,0
41246,note_on,30,0,2,,,,,,,,,1,,,60,0
41248,note_on,2,0,1,,,,,,,,,0,,,74,45
41248,note_on,2,0,2,,,,,,,,,1,,,62,45
41278,note_on,30,0,1,,,,,,,,,0,,,79,0
41278,note_on,0,0,1,,,,,,,,,0,,,74,0
41278,note_on,30,0,2,,,,,,,,,1,,,62,0
41280,note_on,2,0,1,,,,,,,,,0,,,76,45
41280,note_on,0,0,1,,,,,,,,,0,,,79,45
41280,note_on,2,0,2,,,,,,,,,1,,,60,45
41310,note_on,30,0,2,,,,,,,,,1,,,60,0
41310,note_on,30,0,1,,,,,,,,,0,,,76,0
41312,note_on,2,0,1,,,,,,,,,0,,,74,45
41312,note_on,2,0,2,,,,,,,,,1,,,62,45
41342,note_on,30,0,2,,,,,,,,,1,,,62,0
41342,note_on,30,0,1,,,,,,,,,0,,,74,0
41344,note_on,2,0,2,,,,,,,,,1,,,64,45
41344,note_on,2,0,1,,,,,,,,,0,,,72,45
41374,note_on,0,0,1,,,,,,,,,0,,,72,0
41374,note_on,30,0,1,,,,,,,,,0,,,79,0
41374,note_on,30,0,2,,,,,,,,,1,,,64,0
41376,note_on,2,0,2,,,,,,,,,1,,,60,45
41376,note_on,2,0,1,,,,,,,,,0,,,76,45
41376,note_on,0,0,1,,,,,,,,,0,,,79,45
41406,note_on,30,0,2,,,,,,,,,1,,,60,0
41406,note_on,30,0,1,,,,,,,,,0,,,76,0
41408,note_on,2,0,2,,,,,,,,,1,,,62,45
41408,note_on,2,0,1,,,,,,,,,0,,,74,45
41424,note_on,16,0,2,,,,,,,,,1,,,55,0
41438,note_on,30,0,1,,,,,,,,,0,,,74,0
41438,note_on,14,0,2,,,,,,,,,1,,,62,0
41440,note_on,2,0,1,,,,,,,,,0,,,72,45
41440,note_on,2,0,2,,,,,,,,,1,,,64,45
41470,note_on,30,0,2,,,,,,,,,1,,,64,0
41470,note_on,30,0,1,,,,,,,,,0,,,79,0
41470,note_on,0,0,1,,,,,,,,,0,,,72,0
41472,note_on,2,0,2,,,,,,,,,1,,,55,45
41472,note_on,0,0,2,,,,,,,,,1,,,65,45
41472,note_on,2,0,1,,,,,,,,,0,,,71,45
41502,note_on,30,0,2,,,,,,,,,1,,,65,0
41502,note_on,30,0,1,,,,,,,,,0,,,71,0
41504,note_on,2,0,2,,,,,,,,,1,,,64,45
41504,note_on,2,0,1,,,,,,,,,0,,,72,45
41534,note_on,30,0,2,,,,,,,,,1,,,64,0
41534,note_on,30,0,1,,,,,,,,,0,,,72,0
41536,note_on,2,0,2,,,,,,,,,1,,,62,45
41536,note_on,2,0,1,,,,,,,,,0,,,74,45
41566,note_on,30,0,2,,,,,,,,,1,,,62,0
41566,note_on,30,0,1,,,,,,,,,0,,,74,0
41568,note_on,0,0,1,,,,,,,,,0,,,79,45
41568,note_on,2,0,1,,,,,,,,,0,,,71,63
41568,note_on,2,0,2,,,,,,,,,1,,,65,45
41598,note_on,30,0,2,,,,,,,,,1,,,65,0
41598,note_on,30,0,1,,,,,,,,,0,,,71,0
41600,note_on,2,0,1,,,,,,,,,0,,,72,45
41600,note_on,2,0,2,,,,,,,,,1,,,64,45
41630,note_on,30,0,1,,,,,,,,,0,,,72,0
41630,note_on,30,0,2,,,,,,,,,1,,,64,0
41632,note_on,2,0,1,,,,,,,,,0,,,74,45
41632,note_on,2,0,2,,,,,,,,,1,,,62,45
41662,note_on,30,0,1,,,,,,,,,0,,,74,0
41662,note_on,30,0,2,,,,,,,,,1,,,62,0
41664,note_on,2,0,2,,,,,,,,,1,,,65,45
41664,note_on,2,0,1,,,,,,,,,0,,,71,45
41694,note_on,30,0,2,,,,,,,,,1,,,65,0
41694,note_on,30,0,1,,,,,,,,,0,,,71,0
41696,note_on,2,0,2,,,,,,,,,1,,,64,45
41696,note_on,2,0,1,,,,,,,,,0,,,72,45
41726,note_on,30,0,1,,,,,,,,,0,,,72,0
41726,note_on,30,0,2,,,,,,,,,1,,,64,0
41728,note_on,2,0,1,,,,,,,,,0,,,79,0
41728,note_on,0,0,1,,,,,,,,,0,,,74,45
41728,note_on,2,0,2,,,,,,,,,1,,,62,45
41758,note_on,30,0,1,,,,,,,,,0,,,74,0
41758,note_on,30,0,2,,,,,,,,,1,,,62,0
41760,note_on,2,0,1,,,,,,,,,0,,,71,63
41760,note_on,2,0,2,,,,,,,,,1,,,65,45
41760,note_on,0,0,1,,,,,,,,,0,,,79,45
41790,note_on,30,0,1,,,,,,,,,0,,,71,0
41790,note_on,30,0,2,,,,,,,,,1,,,65,0
41792,note_on,2,0,2,,,,,,,,,1,,,64,45
41792,note_on,2,0,1,,,,,,,,,0,,,72,45
41822,note_on,30,0,2,,,,,,,,,1,,,64,0
41822,note_on,30,0,1,,,,,,,,,0,,,72,0
41824,note_on,2,0,2,,,,,,,,,1,,,62,45
41824,note_on,2,0,1,,,,,,,,,0,,,74,45
41854,note_on,30,0,2,,,,,,,,,1,,,62,0
41854,note_on,0,0,1,,,,,,,,,0,,,74,0
41854,note_on,30,0,1,,,,,,,,,0,,,79,0
41856,note_on,2,0,2,,,,,,,,,1,,,64,45
41856,note_on,0,0,1,,,,,,,,,0,,,79,45
41856,note_on,2,0,1,,,,,,,,,0,,,72,63
41886,note_on,30,0,2,,,,,,,,,1,,,64,0
41886,note_on,30,0,1,,,,,,,,,0,,,72,0
41888,note_on,2,0,1,,,,,,,,,0,,,74,45
41888,note_on,2,0,2,,,,,,,,,1,,,62,45
41918,note_on,30,0,2,,,,,,,,,1,,,62,0
41918,note_on,30,0,1,,,,,,,,,0,,,74,0
41920,note_on,2,0,1,,,,,,,,,0,,,76,45
41920,note_on,2,0,2,,,,,,,,,1,,,60,45
41950,note_on,30,0,1,,,,,,,,,0,,,79,0
41950,note_on,0,0,1,,,,,,,,,0,,,76,0
41950,note_on,30,0,2,,,,,,,,,1,,,60,0
41952,note_on,2,0,1,,,,,,,,,0,,,72,63
41952,note_on,0,0,1,,,,,,,,,0,,,79,45
41952,note_on,2,0,2,,,,,,,,,1,,,64,45
41982,note_on,30,0,2,,,,,,,,,1,,,64,0
41982,note_on,30,0,1,,,,,,,,,0,,,72,0
41984,note_on,2,0,1,,,,,,,,,0,,,74,45
41984,note_on,2,0,2,,,,,,,,,1,,,62,45
42000,note_on,16,0,2,,,,,,,,,1,,,55,0
42014,note_on,14,0,2,,,,,,,,,1,,,62,0
42014,note_on,30,0,1,,,,,,,,,0,,,74,0
42016,note_on,2,0,2,,,,,,,,,1,,,60,45
42016,note_on,2,0,1,,,,,,,,,0,,,76,45
42046,note_on,30,0,2,,,,,,,,,1,,,60,0
42046,note_on,30,0,1,,,,,,,,,0,,,79,0
42046,note_on,0,0,1,,,,,,,,,0,,,76,0
42048,note_on,2,0,1,,,,,,,,,0,,,71,63
42048,note_on,0,0,1,,,,,,,,,0,,,79,45
42048,note_on,2,0,2,,,,,,,,,1,,,55,45
42048,note_on,0,0,2,,,,,,,,,1,,,62,63
42069,note_on,21,0,2,,,,,,,,,1,,,62,0
42069,note_on,21,0,1,,,,,,,,,0,,,71,0
42080,note_on,11,0,1,,,,,,,,,0,,,72,45
42080,note_on,11,0,2,,,,,,,,,1,,,60,45
42110,note_on,30,0,2,,,,,,,,,1,,,60,0
42110,note_on,30,0,1,,,,,,,,,0,,,72,0
42112,note_on,2,0,1,,,,,,,,,0,,,74,45
42112,note_on,2,0,2,,,,,,,,,1,,,59,45
42142,note_on,30,0,1,,,,,,,,,0,,,79,0
42142,note_on,0,0,1,,,,,,,,,0,,,74,0
42142,note_on,0,0,2,,,,,,,,,1,,,59,0
42142,note_on,30,0,2,,,,,,,,,1,,,55,0
42144,note_on,2,0,1,,,,,,,,,0,,,69,63
42144,note_on,2,0,2,,,,,,,,,1,,,50,45
42144,note_on,0,0,2,,,,,,,,,1,,,60,63
42144,note_on,0,0,1,,,,,,,,,0,,,78,45
42165,note_on,21,0,2,,,,,,,,,1,,,60,0
42165,note_on,21,0,1,,,,,,,,,0,,,69,0
42176,note_on,11,0,1,,,,,,,,,0,,,71,45
42176,note_on,11,0,2,,,,,,,,,1,,,59,45
42206,note_on,30,0,2,,,,,,,,,1,,,59,0
42206,note_on,30,0,1,,,,,,,,,0,,,71,0
42208,note_on,2,0,2,,,,,,,,,1,,,57,45
42208,note_on,2,0,1,,,,,,,,,0,,,72,45
42238,note_on,0,0,1,,,,,,,,,0,,,72,0
42238,note_on,30,0,2,,,,,,,,,1,,,50,0
42238,note_on,30,0,1,,,,,,,,,0,,,78,0
42238,note_on,0,0,2,,,,,,,,,1,,,57,0
42240,note_on,2,0,1,,,,,,,,,0,,,71,63
42240,note_on,2,0,2,,,,,,,,,1,,,55,45
42240,note_on,0,0,2,,,,,,,,,1,,,62,45
42240,note_on,0,0,1,,,,,,,,,0,,,79,45
42261,note_on,21,0,1,,,,,,,,,0,,,71,0
42261,note_on,21,0,2,,,,,,,,,1,,,62,0
42272,note_on,11,0,2,,,,,,,,,1,,,60,45
42272,note_on,11,0,1,,,,,,,,,0,,,72,45
42302,note_on,30,0,2,,,,,,,,,1,,,60,0
42302,note_on,30,0,1,,,,,,,,,0,,,72,0
42304,note_on,2,0,2,,,,,,,,,1,,,59,45
42304,note_on,2,0,1,,,,,,,,,0,,,74,45
42334,note_on,30,0,1,,,,,,,,,0,,,79,0
42334,note_on,0,0,1,,,,,,,,,0,,,74,0
42334,note_on,30,0,2,,,,,,,,,1,,,55,0
42334,note_on,0,0,2,,,,,,,,,1,,,59,0
42336,note_on,2,0,2,,,,,,,,,1,,,50,45
42336,note_on,0,0,2,,,,,,,,,1,,,60,63
42336,note_on,2,0,1,,,,,,,,,0,,,69,63
42336,note_on,0,0,1,,,,,,,,,0,,,78,45
42357,note_on,21,0,2,,,,,,,,,1,,,60,0
42357,note_on,21,0,1,,,,,,,,,0,,,69,0
42368,note_on,11,0,2,,,,,,,,,1,,,59,45
42368,note_on,11,0,1,,,,,,,,,0,,,71,45
42398,note_on,30,0,1,,,,,,,,,0,,,71,0
42398,note_on,30,0,2,,,,,,,,,1,,,59,0
42400,note_on,2,0,1,,,,,,,,,0,,,72,45
42400,note_on,2,0,2,,,,,,,,,1,,,57,45
42430,note_on,30,0,2,,,,,,,,,1,,,50,0
42430,note_on,0,0,1,,,,,,,,,0,,,72,0
42430,note_on,0,0,2,,,,,,,,,1,,,57,0
42430,note_on,30,0,1,,,,,,,,,0,,,78,0
42432,note_on,2,0,1,,,,,,,,,0,,,71,63
42432,note_on,0,0,1,,,,,,,,,0,,,79,45
42432,note_on,2,0,2,,,,,,,,,1,,,55,45
42432,note_on,0,0,2,,,,,,,,,1,,,62,63
42453,note_on,21,0,1,,,,,,,,,0,,,71,0
42453,note_on,21,0,2,,,,,,,,,1,,,62,0
42464,note_on,11,0,1,,,,,,,,,0,,,72,45
42464,note_on,11,0,2,,,,,,,,,1,,,60,45
42494,note_on,30,0,2,,,,,,,,,1,,,60,0
42494,note_on,30,0,1,,,,,,,,,0,,,72,0
42496,note_on,2,0,2,,,,,,,,,1,,,59,45
42496,note_on,2,0,1,,,,,,,,,0,,,74,45
42526,note_on,0,0,2,,,,,,,,,1,,,59,0
42526,note_on,30,0,2,,,,,,,,,1,,,55,0
42526,note_on,0,0,1,,,,,,,,,0,,,74,0
42526,note_on,30,0,1,,,,,,,,,0,,,79,0
42528,note_on,0,0,1,,,,,,,,,0,,,78,45
42528,note_on,0,0,2,,,,,,,,,1,,,60,63
42528,note_on,2,0,2,,,,,,,,,1,,,50,45
42528,note_on,2,0,1,,,,,,,,,0,,,69,63
42549,note_on,21,0,2,,,,,,,,,1,,,60,0
42549,note_on,21,0,1,,,,,,,,,0,,,69,0
42560,note_on,11,0,2,,,,,,,,,1,,,59,45
42560,note_on,11,0,1,,,,,,,,,0,,,71,45
42590,note_on,30,0,2,,,,,,,,,1,,,59,0
42590,note_on,30,0,1,,,,,,,,,0,,,71,0
42592,note_on,2,0,2,,,,,,,,,1,,,57,45
42592,note_on,2,0,1,,,,,,,,,0,,,72,45
42622,note_on,30,0,1,,,,,,,,,0,,,78,0
42622,note_on,0,0,1,,,,,,,,,0,,,72,0
42622,note_on,30,0,2,,,,,,,,,1,,,50,0
42622,note_on,0,0,2,,,,,,,,,1,,,57,0
42624,note_on,2,0,1,,,,,,,,,0,,,71,45
42624,note_on,2,0,2,,,,,,,,,1,,,55,45
42624,note_on,0,0,1,,,,,,,,,0,,,79,45
42624,note_on,0,0,2,,,,,,,,,1,,,59,45
42654,note_on,30,0,1,,,,,,,,,0,,,79,0
42656,note_on,2,0,1,,,,,,,,,0,,,81,45
42686,note_on,30,0,1,,,,,,,,,0,,,81,0
42688,note_on,2,0,1,,,,,,,,,0,,,79,45
42718,note_on,0,0,2,,,,,,,,,1,,,59,0
42718,note_on,94,0,2,,,,,,,,,1,,,55,0
42718,note_on,30,0,1,,,,,,,,,0,,,71,0
42718,note_on,0,0,1,,,,,,,,,0,,,79,0
42720,note_on,2,0,1,,,,,,,,,0,,,78,45
42750,note_on,30,0,1,,,,,,,,,0,,,78,0
42752,note_on,2,0,1,,,,,,,,,0,,,79,45
42782,note_on,30,0,1,,,,,,,,,0,,,79,0
42784,note_on,2,0,1,,,,,,,,,0,,,78,45
42814,note_on,30,0,1,,,,,,,,,0,,,78,0
42816,note_on,2,0,1,,,,,,,,,0,,,79,45
42846,note_on,30,0,1,,,,,,,,,0,,,79,0
42848,note_on,2,0,1,,,,,,,,,0,,,81,45
42878,note_on,30,0,1,,,,,,,,,0,,,81,0
42880,note_on,2,0,1,,,,,,,,,0,,,79,45
42910,note_on,30,0,1,,,,,,,,,0,,,79,0
42912,note_on,2,0,1,,,,,,,,,0,,,78,45
42942,note_on,30,0,1,,,,,,,,,0,,,78,0
42944,note_on,2,0,1,,,,,,,,,0,,,79,45
42974,note_on,30,0,1,,,,,,,,,0,,,79,0
42976,note_on,2,0,1,,,,,,,,,0,,,78,45
43006,note_on,30,0,1,,,,,,,,,0,,,78,0
43008,note_on,2,0,1,,,,,,,,,0,,,79,45
43038,note_on,30,0,1,,,,,,,,,0,,,79,0
43040,note_on,2,0,1,,,,,,,,,0,,,81,45
43070,note_on,30,0,1,,,,,,,,,0,,,81,0
43072,note_on,2,0,1,,,,,,,,,0,,,79,45
43102,note_on,30,0,1,,,,,,,,,0,,,79,0
43104,note_on,2,0,1,,,,,,,,,0,,,78,45
43134,note_on,30,0,1,,,,,,,,,0,,,78,0
43136,note_on,2,0,1,,,,,,,,,0,,,79,45
43166,note_on,30,0,1,,,,,,,,,0,,,79,0
43168,note_on,2,0,1,,,,,,,,,0,,,78,45
43198,note_on,30,0,1,,,,,,,,,0,,,78,0
43200,note_on,0,0,1,,,,,,,,,0,,,79,45
43200,note_on,0,0,2,,,,,,,,,1,,,62,63
43200,note_on,2,0,1,,,,,,,,,0,,,71,63
43200,note_on,482,0,2,,,,,,,,,1,,,55,45
43221,note_on,21,0,1,,,,,,,,,0,,,71,0
43221,note_on,21,0,2,,,,,,,,,1,,,62,0
43232,note_on,11,0,2,,,,,,,,,1,,,60,45
43232,note_on,11,0,1,,,,,,,,,0,,,72,45
43262,note_on,30,0,1,,,,,,,,,0,,,72,0
43262,note_on,30,0,2,,,,,,,,,1,,,60,0
43264,note_on,2,0,2,,,,,,,,,1,,,59,45
43264,note_on,2,0,1,,,,,,,,,0,,,74,45
43294,note_on,30,0,2,,,,,,,,,1,,,55,0
43294,note_on,0,0,2,,,,,,,,,1,,,59,0
43294,note_on,30,0,1,,,,,,,,,0,,,79,0
43294,note_on,0,0,1,,,,,,,,,0,,,74,0
43296,note_on,0,0,1,,,,,,,,,0,,,78,45
43296,note_on,2,0,1,,,,,,,,,0,,,69,63
43296,note_on,2,0,2,,,,,,,,,1,,,50,45
43296,note_on,0,0,2,,,,,,,,,1,,,60,63
43317,note_on,21,0,1,,,,,,,,,0,,,69,0
43317,note_on,21,0,2,,,,,,,,,1,,,60,0
43328,note_on,11,0,1,,,,,,,,,0,,,71,45
43328,note_on,11,0,2,,,,,,,,,1,,,59,45
43358,note_on,30,0,1,,,,,,,,,0,,,71,0
43358,note_on,30,0,2,,,,,,,,,1,,,59,0
43360,note_on,2,0,1,,,,,,,,,0,,,72,45
43360,note_on,2,0,2,,,,,,,,,1,,,57,45
43390,note_on,0,0,2,,,,,,,,,1,,,57,0
43390,note_on,30,0,2,,,,,,,,,1,,,50,0
43390,note_on,0,0,1,,,,,,,,,0,,,72,0
43390,note_on,30,0,1,,,,,,,,,0,,,78,0
43392,note_on,0,0,2,,,,,,,,,1,,,62,63
43392,note_on,2,0,2,,,,,,,,,1,,,55,45
43392,note_on,0,0,1,,,,,,,,,0,,,79,45
43392,note_on,2,0,1,,,,,,,,,0,,,71,63
43413,note_on,21,0,2,,,,,,,,,1,,,62,0
43413,note_on,21,0,1,,,,,,,,,0,,,71,0
43424,note_on,11,0,1,,,,,,,,,0,,,72,45
43424,note_on,11,0,2,,,,,,,,,1,,,60,45
43454,note_on,30,0,1,,,,,,,,,0,,,72,0
43454,note_on,30,0,2,,,,,,,,,1,,,60,0
43456,note_on,2,0,1,,,,,,,,,0,,,74,45
43456,note_on,2,0,2,,,,,,,,,1,,,59,45
43486,note_on,30,0,1,,,,,,,,,0,,,79,0
43486,note_on,0,0,1,,,,,,,,,0,,,74,0
43486,note_on,0,0,2,,,,,,,,,1,,,59,0
43486,note_on,30,0,2,,,,,,,,,1,,,55,0
43488,note_on,0,0,2,,,,,,,,,1,,,60,63
43488,note_on,2,0,2,,,,,,,,,1,,,50,45
43488,note_on,0,0,1,,,,,,,,,0,,,78,45
43488,note_on,2,0,1,,,,,,,,,0,,,69,63
43509,note_on,21,0,1,,,,,,,,,0,,,69,0
43509,note_on,21,0,2,,,,,,,,,1,,,60,0
43520,note_on,11,0,2,,,,,,,,,1,,,59,45
43520,note_on,11,0,1,,,,,,,,,0,,,71,45
43550,note_on,30,0,2,,,,,,,,,1,,,59,0
43550,note_on,30,0,1,,,,,,,,,0,,,71,0
43552,note_on,2,0,2,,,,,,,,,1,,,57,45
43552,note_on,2,0,1,,,,,,,,,0,,,72,45
43582,note_on,30,0,1,,,,,,,,,0,,,78,0
43582,note_on,30,0,2,,,,,,,,,1,,,50,0
43582,note_on,0,0,1,,,,,,,,,0,,,72,0
43582,note_on,0,0,2,,,,,,,,,1,,,57,0
43584,note_on,0,0,1,,,,,,,,,0,,,79,45
43584,note_on,2,0,1,,,,,,,,,0,,,71,63
43584,note_on,2,0,2,,,,,,,,,1,,,55,45
43584,note_on,0,0,2,,,,,,,,,1,,,62,63
43605,note_on,21,0,2,,,,,,,,,1,,,62,0
43605,note_on,21,0,1,,,,,,,,,0,,,71,0
43616,note_on,11,0,2,,,,,,,,,1,,,60,45
43616,note_on,11,0,1,,,,,,,,,0,,,72,45
43646,note_on,30,0,1,,,,,,,,,0,,,72,0
43646,note_on,30,0,2,,,,,,,,,1,,,60,0
43648,note_on,2,0,1,,,,,,,,,0,,,74,45
43648,note_on,2,0,2,,,,,,,,,1,,,59,45
43678,note_on,30,0,1,,,,,,,,,0,,,79,0
43678,note_on,0,0,1,,,,,,,,,0,,,74,0
43678,note_on,30,0,2,,,,,,,,,1,,,55,0
43678,note_on,0,0,2,,,,,,,,,1,,,59,0
43680,note_on,2,0,1,,,,,,,,,0,,,69,63
43680,note_on,0,0,1,,,,,,,,,0,,,78,45
43680,note_on,2,0,2,,,,,,,,,1,,,50,45
43680,note_on,0,0,2,,,,,,,,,1,,,60,63
43701,note_on,21,0,2,,,,,,,,,1,,,60,0
43701,note_on,21,0,1,,,,,,,,,0,,,69,0
43712,note_on,11,0,1,,,,,,,,,0,,,71,45
43712,note_on,11,0,2,,,,,,,,,1,,,59,45
43742,note_on,30,0,2,,,,,,,,,1,,,59,0
43742,note_on,30,0,1,,,,,,,,,0,,,71,0
43744,note_on,2,0,1,,,,,,,,,0,,,72,45
43744,note_on,2,0,2,,,,,,,,,1,,,57,45
43774,note_on,30,0,1,,,,,,,,,0,,,78,0
43774,note_on,0,0,1,,,,,,,,,0,,,72,0
43774,note_on,0,0,2,,,,,,,,,1,,,57,0
43774,note_on,30,0,2,,,,,,,,,1,,,50,0
43776,note_on,0,0,1,,,,,,,,,0,,,79,45
43776,note_on,2,0,1,,,,,,,,,0,,,71,45
43776,note_on,0,0,2,,,,,,,,,1,,,59,45
43776,note_on,2,0,2,,,,,,,,,1,,,55,45
43806,note_on,30,0,1,,,,,,,,,0,,,79,0
43808,note_on,2,0,1,,,,,,,,,0,,,81,45
43838,note_on,30,0,1,,,,,,,,,0,,,81,0
43840,note_on,2,0,1,,,,,,,,,0,,,79,45
43870,note_on,0,0,1,,,,,,,,,0,,,79,0
43870,note_on,30,0,1,,,,,,,,,0,,,71,0
43870,note_on,94,0,2,,,,,,,,,1,,,55,0
43870,note_on,0,0,2,,,,,,,,,1,,,59,0
43872,note_on,2,0,1,,,,,,,,,0,,,78,45
43902,note_on,30,0,1,,,,,,,,,0,,,78,0
43904,note_on,2,0,1,,,,,,,,,0,,,79,45
43934,note_on,30,0,1,,,,,,,,,0,,,79,0
43936,note_on,2,0,1,,,,,,,,,0,,,78,45
43966,note_on,30,0,1,,,,,,,,,0,,,78,0
43968,note_on,2,0,1,,,,,,,,,0,,,79,45
43998,note_on,30,0,1,,,,,,,,,0,,,79,0
44000,note_on,2,0,1,,,,,,,,,0,,,81,45
44030,note_on,30,0,1,,,,,,,,,0,,,81,0
44032,note_on,2,0,1,,,,,,,,,0,,,79,45
44062,note_on,30,0,1,,,,,,,,,0,,,79,0
44064,note_on,2,0,1,,,,,,,,,0,,,78,45
44094,note_on,30,0,1,,,,,,,,,0,,,78,0
44096,note_on,2,0,1,,,,,,,,,0,,,79,45
44126,note_on,30,0,1,,,,,,,,,0,,,79,0
44128,note_on,2,0,1,,,,,,,,,0,,,78,45
44158,note_on,30,0,1,,,,,,,,,0,,,78,0
44160,note_on,2,0,1,,,,,,,,,0,,,79,45
44190,note_on,30,0,1,,,,,,,,,0,,,79,0
44192,note_on,2,0,1,,,,,,,,,0,,,81,45
44222,note_on,30,0,1,,,,,,,,,0,,,81,0
44224,note_on,2,0,1,,,,,,,,,0,,,79,45
44254,note_on,30,0,1,,,,,,,,,0,,,79,0
44256,note_on,2,0,1,,,,,,,,,0,,,77,45
44286,note_on,30,0,1,,,,,,,,,0,,,77,0
44288,note_on,2,0,1,,,,,,,,,0,,,79,45
44318,note_on,30,0,1,,,,,,,,,0,,,79,0
44320,note_on,2,0,1,,,,,,,,,0,,,77,45
44350,note_on,30,0,1,,,,,,,,,0,,,77,0
44352,note_on,482,0,2,,,,,,,,,1,,,36,45
44352,note_on,2,0,1,,,,,,,,,0,,,76,45
44382,note_on,30,0,2,,,,,,,,,1,,,36,0
44384,note_on,2,0,2,,,,,,,,,1,,,40,45
44414,note_on,30,0,2,,,,,,,,,1,,,40,0
44416,note_on,2,0,2,,,,,,,,,1,,,43,45
44446,note_on,30,0,2,,,,,,,,,1,,,43,0
44446,note_on,94,0,1,,,,,,,,,0,,,76,0
44448,note_on,2,0,2,,,,,,,,,1,,,48,45
44478,note_on,30,0,2,,,,,,,,,1,,,48,0
44480,note_on,2,0,2,,,,,,,,,1,,,52,45
44510,note_on,30,0,2,,,,,,,,,1,,,52,0
44512,note_on,2,0,2,,,,,,,,,1,,,55,45
44542,note_on,30,0,2,,,,,,,,,1,,,55,0
44544,note_on,98,0,1,,,,,,,,,0,,,60,45
44574,note_on,30,0,1,,,,,,,,,0,,,60,0
44576,note_on,2,0,1,,,,,,,,,0,,,64,48
44606,note_on,30,0,1,,,,,,,,,0,,,64,0
44608,note_on,2,0,1,,,,,,,,,0,,,67,52
44638,note_on,30,0,1,,,,,,,,,0,,,67,0
44640,note_on,2,0,1,,,,,,,,,0,,,72,56
44670,note_on,30,0,1,,,,,,,,,0,,,72,0
44672,note_on,2,0,1,,,,,,,,,0,,,76,60
44702,note_on,30,0,1,,,,,,,,,0,,,76,0
44704,note_on,2,0,1,,,,,,,,,0,,,79,64
44734,note_on,30,0,1,,,,,,,,,0,,,79,0
44736,note_on,2,0,1,,,,,,,,,0,,,84,68
44768,note_on,32,0,1,,,,,,,,,0,,,84,0
44832,note_on,290,0,2,,,,,,,,,1,,,48,60
44864,note_on,32,0,2,,,,,,,,,1,,,48,0
44928,note_on,160,0,1,,,,,,,,,0,,,81,92
45022,note_on,94,0,1,,,,,,,,,0,,,81,0
45024,note_on,160,0,2,,,,,,,,,1,,,41,75
45056,note_on,32,0,2,,,,,,,,,1,,,41,0
45120,note_on,64,0,2,,,,,,,,,1,,,81,105
45216,note_on,194,0,1,,,,,,,,,0,,,89,127
45280,note_on,160,0,2,,,,,,,,,1,,,81,0
45310,note_on,94,0,1,,,,,,,,,0,,,89,0
45312,note_on,32,0,2,,,,,,,,,1,,,81,75
45312,note_on,2,0,1,,,,,,,,,0,,,89,92
45342,note_on,30,0,1,,,,,,,,,0,,,89,0
45342,note_on,30,0,2,,,,,,,,,1,,,81,0
45344,note_on,2,0,2,,,,,,,,,1,,,79,75
45344,note_on,2,0,1,,,,,,,,,0,,,88,92
45374,note_on,30,0,1,,,,,,,,,0,,,88,0
45374,note_on,30,0,2,,,,,,,,,1,,,79,0
45376,note_on,2,0,2,,,,,,,,,1,,,77,75
45376,note_on,2,0,1,,,,,,,,,0,,,86,92
45406,note_on,30,0,2,,,,,,,,,1,,,77,0
45406,note_on,30,0,1,,,,,,,,,0,,,86,0
45408,note_on,2,0,2,,,,,,,,,1,,,79,75
45408,note_on,2,0,1,,,,,,,,,0,,,88,92
45438,note_on,30,0,1,,,,,,,,,0,,,88,0
45438,note_on,30,0,2,,,,,,,,,1,,,79,0
45440,note_on,2,0,2,,,,,,,,,1,,,77,75
45440,note_on,2,0,1,,,,,,,,,0,,,86,92
45470,note_on,30,0,2,,,,,,,,,1,,,77,0
45470,note_on,30,0,1,,,,,,,,,0,,,86,0
45472,note_on,2,0,1,,,,,,,,,0,,,84,92
45472,note_on,2,0,2,,,,,,,,,1,,,76,75
45502,note_on,30,0,1,,,,,,,,,0,,,84,0
45502,note_on,30,0,2,,,,,,,,,1,,,76,0
45504,note_on,2,0,1,,,,,,,,,0,,,86,92
45504,note_on,0,0,2,,,,,,,,,1,,,77,75
45504,note_on,2,0,2,,,,,,,,,1,,,67,75
45534,note_on,30,0,1,,,,,,,,,0,,,86,0
45534,note_on,30,0,2,,,,,,,,,1,,,77,0
45536,note_on,2,0,2,,,,,,,,,1,,,76,75
45536,note_on,2,0,1,,,,,,,,,0,,,84,92
45566,note_on,30,0,2,,,,,,,,,1,,,76,0
45566,note_on,30,0,1,,,,,,,,,0,,,84,0
45568,note_on,2,0,2,,,,,,,,,1,,,74,75
45568,note_on,2,0,1,,,,,,,,,0,,,83,92
45598,note_on,30,0,2,,,,,,,,,1,,,74,0
45598,note_on,30,0,1,,,,,,,,,0,,,83,0
45600,note_on,2,0,2,,,,,,,,,1,,,76,75
45600,note_on,2,0,1,,,,,,,,,0,,,84,92
45630,note_on,30,0,2,,,,,,,,,1,,,76,0
45630,note_on,30,0,1,,,,,,,,,0,,,84,0
45632,note_on,2,0,2,,,,,,,,,1,,,74,75
45632,note_on,2,0,1,,,,,,,,,0,,,83,92
45662,note_on,30,0,1,,,,,,,,,0,,,83,0
45662,note_on,30,0,2,,,,,,,,,1,,,74,0
45664,note_on,2,0,2,,,,,,,,,1,,,72,75
45664,note_on,2,0,1,,,,,,,,,0,,,81,92
45694,note_on,30,0,1,,,,,,,,,0,,,81,0
45694,note_on,30,0,2,,,,,,,,,1,,,72,0
45696,note_on,2,0,2,,,,,,,,,1,,,74,75
45696,note_on,2,0,1,,,,,,,,,0,,,83,92
45726,note_on,30,0,2,,,,,,,,,1,,,74,0
45726,note_on,30,0,1,,,,,,,,,0,,,83,0
45728,note_on,2,0,2,,,,,,,,,1,,,72,75
45728,note_on,2,0,1,,,,,,,,,0,,,81,92
45758,note_on,30,0,2,,,,,,,,,1,,,72,0
45758,note_on,30,0,1,,,,,,,,,0,,,81,0
45760,note_on,2,0,1,,,,,,,,,0,,,79,92
45760,note_on,2,0,2,,,,,,,,,1,,,71,75
45790,note_on,30,0,1,,,,,,,,,0,,,79,0
45790,note_on,30,0,2,,,,,,,,,1,,,71,0
45792,note_on,2,0,2,,,,,,,,,1,,,72,75
45792,note_on,2,0,1,,,,,,,,,0,,,81,92
45822,note_on,30,0,2,,,,,,,,,1,,,72,0
45822,note_on,30,0,1,,,,,,,,,0,,,81,0
45824,note_on,2,0,1,,,,,,,,,0,,,79,92
45824,note_on,2,0,2,,,,,,,,,1,,,71,75
45840,note_on,16,0,2,,,,,,,,,1,,,67,0
45854,note_on,30,0,1,,,,,,,,,0,,,79,0
45854,note_on,14,0,2,,,,,,,,,1,,,71,0
45856,note_on,2,0,2,,,,,,,,,1,,,69,75
45856,note_on,2,0,1,,,,,,,,,0,,,78,92
45886,note_on,30,0,2,,,,,,,,,1,,,69,0
45886,note_on,30,0,1,,,,,,,,,0,,,78,0
45888,note_on,2,0,2,,,,,,,,,1,,,67,75
45888,note_on,2,0,1,,,,,,,,,0,,,79,92
45888,note_on,0,0,2,,,,,,,,,1,,,71,75
45918,note_on,30,0,2,,,,,,,,,1,,,67,0
45918,note_on,30,0,1,,,,,,,,,0,,,79,0
45920,note_on,2,0,2,,,,,,,,,1,,,69,70
45920,note_on,2,0,1,,,,,,,,,0,,,83,85
45950,note_on,30,0,2,,,,,,,,,1,,,69,0
45950,note_on,30,0,1,,,,,,,,,0,,,83,0
45952,note_on,2,0,2,,,,,,,,,1,,,67,65
45952,note_on,2,0,1,,,,,,,,,0,,,81,77
45982,note_on,0,0,2,,,,,,,,,1,,,67,0
45982,note_on,30,0,2,,,,,,,,,1,,,71,0
45982,note_on,30,0,1,,,,,,,,,0,,,81,0
45984,note_on,2,0,2,,,,,,,,,1,,,65,60
45984,note_on,2,0,1,,,,,,,,,0,,,79,69
46014,note_on,30,0,1,,,,,,,,,0,,,79,0
46014,note_on,30,0,2,,,,,,,,,1,,,65,0
46016,note_on,2,0,2,,,,,,,,,1,,,64,55
46016,note_on,2,0,1,,,,,,,,,0,,,81,61
46046,note_on,30,0,2,,,,,,,,,1,,,64,0
46046,note_on,30,0,1,,,,,,,,,0,,,81,0
46048,note_on,2,0,1,,,,,,,,,0,,,83,53
46048,note_on,2,0,2,,,,,,,,,1,,,62,50
46078,note_on,30,0,1,,,,,,,,,0,,,83,0
46078,note_on,30,0,2,,,,,,,,,1,,,62,0
46080,note_on,2,0,1,,,,,,,,,0,,,84,45
46080,note_on,2,0,2,,,,,,,,,1,,,60,45
46112,note_on,32,0,2,,,,,,,,,1,,,60,0
46112,note_on,32,0,1,,,,,,,,,0,,,84,0
46176,note_on,64,0,1,,,,,,,,,0,,,84,45
46176,note_on,64,0,2,,,,,,,,,1,,,64,45
46176,note_on,0,0,2,,,,,,,,,1,,,67,45
46176,note_on,0,0,2,,,,,,,,,1,,,72,45
46198,note_on,22,0,1,,,,,,,,,0,,,84,0
46200,note_on,2,0,1,,,,,,,,,0,,,86,45
46208,note_on,32,0,2,,,,,,,,,1,,,64,0
46208,note_on,0,0,2,,,,,,,,,1,,,67,0
46208,note_on,0,0,2,,,,,,,,,1,,,72,0
46222,note_on,22,0,1,,,,,,,,,0,,,86,0
46224,note_on,2,0,1,,,,,,,,,0,,,88,45
46246,note_on,22,0,1,,,,,,,,,0,,,88,0
46248,note_on,2,0,1,,,,,,,,,0,,,86,45
46270,note_on,22,0,1,,,,,,,,,0,,,86,0
46272,note_on,64,0,2,,,,,,,,,1,,,55,45
46272,note_on,2,0,1,,,,,,,,,0,,,86,45
46304,note_on,32,0,1,,,,,,,,,0,,,86,0
46304,note_on,32,0,2,,,,,,,,,1,,,55,0
46368,note_on,0,0,2,,,,,,,,,1,,,71,45
46368,note_on,0,0,2,,,,,,,,,1,,,67,45
46368,note_on,64,0,2,,,,,,,,,1,,,65,45
46368,note_on,64,0,1,,,,,,,,,0,,,86,45
46390,note_on,22,0,1,,,,,,,,,0,,,86,0
46392,note_on,2,0,1,,,,,,,,,0,,,88,45
46400,note_on,0,0,2,,,,,,,,,1,,,67,0
46400,note_on,0,0,2,,,,,,,,,1,,,71,0
46400,note_on,32,0,2,,,,,,,,,1,,,65,0
46414,note_on,22,0,1,,,,,,,,,0,,,88,0
46416,note_on,2,0,1,,,,,,,,,0,,,89,45
46438,note_on,22,0,1,,,,,,,,,0,,,89,0
46440,note_on,2,0,1,,,,,,,,,0,,,88,45
46462,note_on,22,0,1,,,,,,,,,0,,,88,0
46464,note_on,2,0,1,,,,,,,,,0,,,88,45
46464,note_on,64,0,2,,,,,,,,,1,,,48,45
46496,note_on,32,0,2,,,,,,,,,1,,,48,0
46558,note_on,94,0,1,,,,,,,,,0,,,88,0
46560,note_on,64,0,2,,,,,,,,,1,,,64,45
46560,note_on,2,0,1,,,,,,,,,0,,,84,45
46560,note_on,0,0,2,,,,,,,,,1,,,67,45
46560,note_on,0,0,2,,,,,,,,,1,,,72,45
46592,note_on,32,0,1,,,,,,,,,0,,,84,0
46592,note_on,32,0,2,,,,,,,,,1,,,64,0
46592,note_on,0,0,2,,,,,,,,,1,,,67,0
46592,note_on,0,0,2,,,,,,,,,1,,,72,0
46656,note_on,64,0,2,,,,,,,,,1,,,36,45
46686,note_on,30,0,2,,,,,,,,,1,,,36,0
46688,note_on,2,0,2,,,,,,,,,1,,,40,47
46718,note_on,30,0,2,,,,,,,,,1,,,40,0
46720,note_on,2,0,2,,,,,,,,,1,,,43,49
46750,note_on,30,0,2,,,,,,,,,1,,,43,0
46752,note_on,2,0,2,,,,,,,,,1,,,48,51
46782,note_on,30,0,2,,,,,,,,,1,,,48,0
46784,note_on,2,0,2,,,,,,,,,1,,,52,53
46814,note_on,30,0,2,,,,,,,,,1,,,52,0
46816,note_on,2,0,2,,,,,,,,,1,,,55,55
46846,note_on,30,0,2,,,,,,,,,1,,,55,0
46848,note_on,256,0,1,,,,,,,,,0,,,60,60
46878,note_on,30,0,1,,,,,,,,,0,,,60,0
46880,note_on,2,0,1,,,,,,,,,0,,,64,62
46910,note_on,30,0,1,,,,,,,,,0,,,64,0
46912,note_on,2,0,1,,,,,,,,,0,,,67,64
46942,note_on,30,0,1,,,,,,,,,0,,,67,0
46944,note_on,2,0,1,,,,,,,,,0,,,72,66
46974,note_on,30,0,1,,,,,,,,,0,,,72,0
46976,note_on,2,0,1,,,,,,,,,0,,,76,68
47006,note_on,30,0,1,,,,,,,,,0,,,76,0
47008,note_on,2,0,1,,,,,,,,,0,,,79,71
47038,note_on,30,0,1,,,,,,,,,0,,,79,0
47040,note_on,2,0,1,,,,,,,,,0,,,84,74
47072,note_on,32,0,1,,,,,,,,,0,,,84,0
47136,note_on,290,0,2,,,,,,,,,1,,,48,83
47168,note_on,32,0,2,,,,,,,,,1,,,48,0
47232,note_on,160,0,1,,,,,,,,,0,,,81,92
47264,note_on,32,0,1,,,,,,,,,0,,,81,0
47328,note_on,160,0,2,,,,,,,,,1,,,41,92
47360,note_on,32,0,2,,,,,,,,,1,,,41,0
47424,note_on,160,0,1,,,,,,,,,0,,,81,127
47680,note_on,256,0,1,,,,,,,,,0,,,81,0
47712,note_on,352,0,2,,,,,,,,,1,,,41,127
47744,note_on,32,0,2,,,,,,,,,1,,,41,0
47808,note_on,128,0,1,,,,,,,,,0,,,81,92
47840,note_on,32,0,1,,,,,,,,,0,,,81,0
47904,note_on,160,0,2,,,,,,,,,1,,,41,92
47936,note_on,32,0,2,,,,,,,,,1,,,41,0
48000,note_on,160,0,1,,,,,,,,,0,,,81,127
48256,note_on,256,0,1,,,,,,,,,0,,,81,0
48288,note_on,352,0,2,,,,,,,,,1,,,41,127
48320,note_on,32,0,2,,,,,,,,,1,,,41,0
48384,note_on,128,0,1,,,,,,,,,0,,,81,45
48416,note_on,32,0,1,,,,,,,,,0,,,81,0
48480,note_on,160,0,2,,,,,,,,,1,,,41,45
48512,note_on,32,0,2,,,,,,,,,1,,,41,0
48576,note_on,160,0,1,,,,,,,,,0,,,81,45
48608,note_on,32,0,1,,,,,,,,,0,,,81,0
48672,note_on,160,0,2,,,,,,,,,1,,,41,45
48704,note_on,32,0,2,,,,,,,,,1,,,41,0
48768,note_on,160,0,1,,,,,,,,,0,,,81,45
48800,note_on,32,0,1,,,,,,,,,0,,,81,0
48864,note_on,160,0,2,,,,,,,,,1,,,41,45
48896,note_on,32,0,2,,,,,,,,,1,,,41,0
48960,note_on,160,0,1,,,,,,,,,0,,,81,45
48992,note_on,32,0,1,,,,,,,,,0,,,81,0
49056,note_on,160,0,2,,,,,,,,,1,,,41,45
49088,note_on,32,0,2,,,,,,,,,1,,,41,0
49152,note_on,160,0,1,,,,,,,,,0,,,81,45
49184,note_on,32,0,1,,,,,,,,,0,,,81,0
49248,note_on,160,0,2,,,,,,,,,1,,,41,45
49280,note_on,32,0,2,,,,,,,,,1,,,41,0
49344,note_on,160,0,1,,,,,,,,,0,,,81,45
49376,note_on,32,0,1,,,,,,,,,0,,,81,0
49440,note_on,160,0,2,,,,,,,,,1,,,41,45
49472,note_on,32,0,2,,,,,,,,,1,,,41,0
49536,note_on,0,0,1,,,,,,,,,0,,,81,45
49536,note_on,160,0,1,,,,,,,,,0,,,72,45
49568,note_on,32,0,1,,,,,,,,,0,,,72,0
49568,note_on,0,0,1,,,,,,,,,0,,,81,0
49584,note_on,112,0,2,,,,,,,,,1,,,41,47
49616,note_on,32,0,2,,,,,,,,,1,,,41,0
49632,note_on,64,0,1,,,,,,,,,0,,,72,49
49632,note_on,0,0,1,,,,,,,,,0,,,81,49
49664,note_on,0,0,1,,,,,,,,,0,,,81,0
49664,note_on,32,0,1,,,,,,,,,0,,,72,0
49680,note_on,64,0,2,,,,,,,,,1,,,41,51
49712,note_on,32,0,2,,,,,,,,,1,,,41,0
49728,note_on,0,0,1,,,,,,,,,0,,,81,53
49728,note_on,64,0,1,,,,,,,,,0,,,72,53
49760,note_on,32,0,1,,,,,,,,,0,,,72,0
49760,note_on,0,0,1,,,,,,,,,0,,,81,0
49776,note_on,64,0,2,,,,,,,,,1,,,41,55
49808,note_on,32,0,2,,,,,,,,,1,,,41,0
49824,note_on,64,0,1,,,,,,,,,0,,,72,57
49824,note_on,0,0,1,,,,,,,,,0,,,81,57
49856,note_on,0,0,1,,,,,,,,,0,,,81,0
49856,note_on,32,0,1,,,,,,,,,0,,,72,0
49872,note_on,64,0,2,,,,,,,,,1,,,41,59
49904,note_on,32,0,2,,,,,,,,,1,,,41,0
49920,note_on,0,0,1,,,,,,,,,0,,,81,61
49920,note_on,64,0,1,,,,,,,,,0,,,72,61
49952,note_on,0,0,1,,,,,,,,,0,,,81,0
49952,note_on,32,0,1,,,,,,,,,0,,,72,0
49968,note_on,64,0,2,,,,,,,,,1,,,41,63
50000,note_on,32,0,2,,,,,,,,,1,,,41,0
50016,note_on,0,0,1,,,,,,,,,0,,,81,66
50016,note_on,64,0,1,,,,,,,,,0,,,72,66
50048,note_on,0,0,1,,,,,,,,,0,,,81,0
50048,note_on,32,0,1,,,,,,,,,0,,,72,0
50064,note_on,64,0,2,,,,,,,,,1,,,41,69
50096,note_on,32,0,2,,,,,,,,,1,,,41,0
50112,note_on,64,0,1,,,,,,,,,0,,,73,72
50112,note_on,0,0,1,,,,,,,,,0,,,81,72
50144,note_on,32,0,1,,,,,,,,,0,,,73,0
50144,note_on,0,0,1,,,,,,,,,0,,,81,0
50160,note_on,64,0,2,,,,,,,,,1,,,41,75
50192,note_on,32,0,2,,,,,,,,,1,,,41,0
50208,note_on,0,0,1,,,,,,,,,0,,,81,78
50208,note_on,64,0,1,,,,,,,,,0,,,73,78
50240,note_on,0,0,1,,,,,,,,,0,,,81,0
50240,note_on,32,0,1,,,,,,,,,0,,,73,0
50256,note_on,64,0,2,,,,,,,,,1,,,41,81
50288,note_on,32,0,2,,,,,,,,,1,,,41,0
50304,note_on,64,0,1,,,,,,,,,0,,,73,84
50304,note_on,0,0,1,,,,,,,,,0,,,81,84
50336,note_on,32,0,1,,,,,,,,,0,,,73,0
50336,note_on,0,0,1,,,,,,,,,0,,,81,0
50352,note_on,64,0,2,,,,,,,,,1,,,41,87
50384,note_on,32,0,2,,,,,,,,,1,,,41,0
50400,note_on,64,0,1,,,,,,,,,0,,,73,90
50400,note_on,0,0,1,,,,,,,,,0,,,81,90
50432,note_on,32,0,1,,,,,,,,,0,,,73,0
50432,note_on,0,0,1,,,,,,,,,0,,,81,0
50448,note_on,64,0,2,,,,,,,,,1,,,41,93
50480,note_on,32,0,2,,,,,,,,,1,,,41,0
50496,note_on,64,0,1,,,,,,,,,0,,,73,96
50496,note_on,0,0,1,,,,,,,,,0,,,81,96
50528,note_on,32,0,1,,,,,,,,,0,,,73,0
50528,note_on,0,0,1,,,,,,,,,0,,,81,0
50544,note_on,64,0,2,,,,,,,,,1,,,41,99
50576,note_on,32,0,2,,,,,,,,,1,,,41,0
50592,note_on,64,0,1,,,,,,,,,0,,,73,102
50592,note_on,0,0,1,,,,,,,,,0,,,81,102
50624,note_on,0,0,1,,,,,,,,,0,,,81,0
50624,note_on,32,0,1,,,,,,,,,0,,,73,0
50640,note_on,64,0,2,,,,,,,,,1,,,41,105
50686,note_on,46,0,2,,,,,,,,,1,,,41,0
50688,note_on,64,0,1,,,,,,,,,0,,,69,108
50688,note_on,0,0,1,,,,,,,,,0,,,74,108
50688,note_on,0,0,1,,,,,,,,,0,,,81,108
50688,note_on,0,0,1,,,,,,,,,0,,,77,108
50720,note_on,0,0,1,,,,,,,,,0,,,74,0
50720,note_on,0,0,1,,,,,,,,,0,,,81,0
50720,note_on,0,0,1,,,,,,,,,0,,,77,0
50720,note_on,32,0,1,,,,,,,,,0,,,69,0
50784,note_on,98,0,2,,,,,,,,,1,,,29,108
50784,note_on,0,0,2,,,,,,,,,1,,,41,108
50878,note_on,0,0,2,,,,,,,,,1,,,41,0
50878,note_on,94,0,2,,,,,,,,,1,,,29,0
50880,note_on,160,0,1,,,,,,,,,0,,,89,127
50976,note_on,98,0,2,,,,,,,,,1,,,81,108
51040,note_on,160,0,1,,,,,,,,,0,,,89,0
51070,note_on,94,0,2,,,,,,,,,1,,,81,0
51072,note_on,2,0,2,,,,,,,,,1,,,81,108
51072,note_on,32,0,1,,,,,,,,,0,,,89,108
51102,note_on,30,0,2,,,,,,,,,1,,,81,0
51102,note_on,30,0,1,,,,,,,,,0,,,89,0
51104,note_on,2,0,1,,,,,,,,,0,,,88,108
51104,note_on,2,0,2,,,,,,,,,1,,,79,108
51134,note_on,30,0,1,,,,,,,,,0,,,88,0
51134,note_on,30,0,2,,,,,,,,,1,,,79,0
51136,note_on,2,0,1,,,,,,,,,0,,,86,108
51136,note_on,2,0,2,,,,,,,,,1,,,77,108
51166,note_on,30,0,2,,,,,,,,,1,,,77,0
51166,note_on,30,0,1,,,,,,,,,0,,,86,0
51168,note_on,2,0,2,,,,,,,,,1,,,79,108
51168,note_on,2,0,1,,,,,,,,,0,,,88,108
51198,note_on,30,0,2,,,,,,,,,1,,,79,0
51198,note_on,30,0,1,,,,,,,,,0,,,88,0
51200,note_on,2,0,2,,,,,,,,,1,,,77,108
51200,note_on,2,0,1,,,,,,,,,0,,,86,108
51230,note_on,30,0,2,,,,,,,,,1,,,77,0
51230,note_on,30,0,1,,,,,,,,,0,,,86,0
51232,note_on,2,0,2,,,,,,,,,1,,,76,108
51232,note_on,2,0,1,,,,,,,,,0,,,84,108
51262,note_on,30,0,2,,,,,,,,,1,,,76,0
51262,note_on,30,0,1,,,,,,,,,0,,,84,0
51264,note_on,2,0,2,,,,,,,,,1,,,67,108
51264,note_on,0,0,2,,,,,,,,,1,,,74,108
51264,note_on,2,0,1,,,,,,,,,0,,,83,108
51294,note_on,30,0,2,,,,,,,,,1,,,74,0
51294,note_on,30,0,1,,,,,,,,,0,,,83,0
51296,note_on,2,0,2,,,,,,,,,1,,,76,108
51296,note_on,2,0,1,,,,,,,,,0,,,84,108
51326,note_on,30,0,2,,,,,,,,,1,,,76,0
51326,note_on,30,0,1,,,,,,,,,0,,,84,0
51328,note_on,2,0,2,,,,,,,,,1,,,77,108
51328,note_on,2,0,1,,,,,,,,,0,,,86,108
51358,note_on,30,0,1,,,,,,,,,0,,,86,0
51358,note_on,30,0,2,,,,,,,,,1,,,77,0
51360,note_on,2,0,2,,,,,,,,,1,,,76,108
51360,note_on,2,0,1,,,,,,,,,0,,,84,108
51390,note_on,30,0,2,,,,,,,,,1,,,76,0
51390,note_on,30,0,1,,,,,,,,,0,,,84,0
51392,note_on,2,0,1,,,,,,,,,0,,,83,108
51392,note_on,2,0,2,,,,,,,,,1,,,74,108
51422,note_on,30,0,2,,,,,,,,,1,,,74,0
51422,note_on,30,0,1,,,,,,,,,0,,,83,0
51424,note_on,2,0,2,,,,,,,,,1,,,67,0
51424,note_on,0,0,2,,,,,,,,,1,,,72,108
51424,note_on,2,0,1,,,,,,,,,0,,,81,108
51454,note_on,30,0,1,,,,,,,,,0,,,81,0
51454,note_on,30,0,2,,,,,,,,,1,,,72,0
51456,note_on,2,0,1,,,,,,,,,0,,,79,108
51456,note_on,2,0,2,,,,,,,,,1,,,67,108
51456,note_on,0,0,2,,,,,,,,,1,,,71,108
51486,note_on,30,0,2,,,,,,,,,1,,,67,0
51486,note_on,0,0,2,,,,,,,,,1,,,71,0
51486,note_on,30,0,1,,,,,,,,,0,,,79,0
51488,note_on,2,0,1,,,,,,,,,0,,,81,108
51488,note_on,2,0,2,,,,,,,,,1,,,72,108
51518,note_on,30,0,1,,,,,,,,,0,,,81,0
51518,note_on,30,0,2,,,,,,,,,1,,,72,0
51520,note_on,2,0,1,,,,,,,,,0,,,79,108
51520,note_on,2,0,2,,,,,,,,,1,,,71,108
51550,note_on,30,0,2,,,,,,,,,1,,,71,0
51550,note_on,30,0,1,,,,,,,,,0,,,79,0
51552,note_on,2,0,2,,,,,,,,,1,,,69,108
51552,note_on,2,0,1,,,,,,,,,0,,,77,108
51582,note_on,30,0,2,,,,,,,,,1,,,69,0
51582,note_on,30,0,1,,,,,,,,,0,,,77,0
51584,note_on,2,0,1,,,,,,,,,0,,,79,108
51584,note_on,2,0,2,,,,,,,,,1,,,71,108
51614,note_on,30,0,2,,,,,,,,,1,,,71,0
51614,note_on,30,0,1,,,,,,,,,0,,,79,0
51616,note_on,2,0,2,,,,,,,,,1,,,69,108
51616,note_on,2,0,1,,,,,,,,,0,,,77,108
51646,note_on,30,0,2,,,,,,,,,1,,,69,0
51646,note_on,30,0,1,,,,,,,,,0,,,77,0
51648,note_on,2,0,1,,,,,,,,,0,,,76,108
51648,note_on,2,0,2,,,,,,,,,1,,,67,108
51678,note_on,30,0,2,,,,,,,,,1,,,67,0
51678,note_on,30,0,1,,,,,,,,,0,,,76,0
51680,note_on,2,0,2,,,,,,,,,1,,,69,100
51680,note_on,2,0,1,,,,,,,,,0,,,77,100
51710,note_on,30,0,2,,,,,,,,,1,,,69,0
51710,note_on,30,0,1,,,,,,,,,0,,,77,0
51712,note_on,2,0,2,,,,,,,,,1,,,67,92
51712,note_on,2,0,1,,,,,,,,,0,,,76,92
51742,note_on,30,0,1,,,,,,,,,0,,,76,0
51742,note_on,30,0,2,,,,,,,,,1,,,67,0
51744,note_on,2,0,2,,,,,,,,,1,,,55,84
51744,note_on,0,0,2,,,,,,,,,1,,,65,84
51744,note_on,2,0,1,,,,,,,,,0,,,74,84
51774,note_on,30,0,2,,,,,,,,,1,,,65,0
51774,note_on,30,0,1,,,,,,,,,0,,,74,0
51776,note_on,2,0,2,,,,,,,,,1,,,67,76
51776,note_on,2,0,1,,,,,,,,,0,,,76,76
51806,note_on,30,0,2,,,,,,,,,1,,,67,0
51806,note_on,30,0,1,,,,,,,,,0,,,76,0
51808,note_on,2,0,2,,,,,,,,,1,,,65,68
51808,note_on,2,0,1,,,,,,,,,0,,,74,68
51838,note_on,0,0,2,,,,,,,,,1,,,65,0
51838,note_on,30,0,2,,,,,,,,,1,,,55,0
51838,note_on,30,0,1,,,,,,,,,0,,,74,0
51840,note_on,2,0,1,,,,,,,,,0,,,72,60
51840,note_on,0,0,2,,,,,,,,,1,,,64,84
51840,note_on,2,0,2,,,,,,,,,1,,,60,60
51870,note_on,30,0,2,,,,,,,,,1,,,64,0
51870,note_on,30,0,1,,,,,,,,,0,,,72,0
51872,note_on,2,0,2,,,,,,,,,1,,,65,60
51872,note_on,2,0,1,,,,,,,,,0,,,74,60
51902,note_on,30,0,1,,,,,,,,,0,,,74,0
51902,note_on,30,0,2,,,,,,,,,1,,,65,0
51904,note_on,2,0,2,,,,,,,,,1,,,67,60
51904,note_on,2,0,1,,,,,,,,,0,,,76,60
51934,note_on,0,0,2,,,,,,,,,1,,,67,0
51934,note_on,30,0,2,,,,,,,,,1,,,60,0
51934,note_on,30,0,1,,,,,,,,,0,,,76,0
51936,note_on,0,0,2,,,,,,,,,1,,,68,84
51936,note_on,2,0,2,,,,,,,,,1,,,60,60
51936,note_on,0,0,1,,,,,,,,,0,,,83,60
51936,note_on,2,0,1,,,,,,,,,0,,,74,84
51957,note_on,21,0,1,,,,,,,,,0,,,74,0
51966,note_on,30,0,2,,,,,,,,,1,,,68,0
51968,note_on,2,0,2,,,,,,,,,1,,,67,60
51968,note_on,11,0,1,,,,,,,,,0,,,76,60
51998,note_on,30,0,1,,,,,,,,,0,,,76,0
51998,note_on,30,0,2,,,,,,,,,1,,,67,0
52000,note_on,2,0,2,,,,,,,,,1,,,65,60
52000,note_on,2,0,1,,,,,,,,,0,,,77,60
52030,note_on,0,0,2,,,,,,,,,1,,,65,0
52030,note_on,30,0,2,,,,,,,,,1,,,60,0
52030,note_on,30,0,1,,,,,,,,,0,,,83,0
52030,note_on,0,0,1,,,,,,,,,0,,,77,0
52032,note_on,2,0,2,,,,,,,,,1,,,60,60
52032,note_on,0,0,2,,,,,,,,,1,,,67,84
52032,note_on,2,0,1,,,,,,,,,0,,,76,84
52032,note_on,0,0,1,,,,,,,,,0,,,84,60
52053,note_on,21,0,1,,,,,,,,,0,,,76,0
52062,note_on,30,0,2,,,,,,,,,1,,,67,0
52064,note_on,11,0,1,,,,,,,,,0,,,77,60
52064,note_on,2,0,2,,,,,,,,,1,,,65,60
52094,note_on,30,0,2,,,,,,,,,1,,,65,0
52094,note_on,30,0,1,,,,,,,,,0,,,77,0
52096,note_on,2,0,1,,,,,,,,,0,,,79,60
52096,note_on,2,0,2,,,,,,,,,1,,,64,60
52126,note_on,30,0,1,,,,,,,,,0,,,84,0
52126,note_on,30,0,2,,,,,,,,,1,,,60,0
52126,note_on,0,0,1,,,,,,,,,0,,,79,0
52126,note_on,0,0,2,,,,,,,,,1,,,64,0
52128,note_on,0,0,2,,,,,,,,,1,,,68,84
52128,note_on,2,0,1,,,,,,,,,0,,,74,84
52128,note_on,0,0,1,,,,,,,,,0,,,83,60
52128,note_on,2,0,2,,,,,,,,,1,,,60,60
52149,note_on,21,0,1,,,,,,,,,0,,,74,0
52158,note_on,30,0,2,,,,,,,,,1,,,68,0
52160,note_on,11,0,1,,,,,,,,,0,,,76,60
52160,note_on,2,0,2,,,,,,,,,1,,,67,60
52190,note_on,30,0,1,,,,,,,,,0,,,76,0
52190,note_on,30,0,2,,,,,,,,,1,,,67,0
52192,note_on,2,0,1,,,,,,,,,0,,,77,60
52192,note_on,2,0,2,,,,,,,,,1,,,65,60
52222,note_on,30,0,2,,,,,,,,,1,,,60,0
52222,note_on,0,0,1,,,,,,,,,0,,,77,0
52222,note_on,30,0,1,,,,,,,,,0,,,83,0
52222,note_on,0,0,2,,,,,,,,,1,,,65,0
52224,note_on,0,0,2,,,,,,,,,1,,,67,84
52224,note_on,2,0,2,,,,,,,,,1,,,60,60
52224,note_on,0,0,1,,,,,,,,,0,,,84,60
52224,note_on,2,0,1,,,,,,,,,0,,,76,84
52245,note_on,21,0,1,,,,,,,,,0,,,76,0
52254,note_on,30,0,2,,,,,,,,,1,,,67,0
52256,note_on,11,0,1,,,,,,,,,0,,,77,60
52256,note_on,2,0,2,,,,,,,,,1,,,65,60
52286,note_on,30,0,2,,,,,,,,,1,,,65,0
52286,note_on,30,0,1,,,,,,,,,0,,,77,0
52288,note_on,2,0,2,,,,,,,,,1,,,64,60
52288,note_on,2,0,1,,,,,,,,,0,,,79,60
52318,note_on,0,0,2,,,,,,,,,1,,,64,0
52318,note_on,30,0,1,,,,,,,,,0,,,84,0
52318,note_on,0,0,1,,,,,,,,,0,,,79,0
52318,note_on,30,0,2,,,,,,,,,1,,,60,0
52320,note_on,2,0,2,,,,,,,,,1,,,60,60
52320,note_on,0,0,2,,,,,,,,,1,,,68,84
52320,note_on,0,0,1,,,,,,,,,0,,,83,60
52320,note_on,2,0,1,,,,,,,,,0,,,74,84
52341,note_on,21,0,1,,,,,,,,,0,,,74,0
52350,note_on,30,0,2,,,,,,,,,1,,,68,0
52352,note_on,11,0,1,,,,,,,,,0,,,76,60
52352,note_on,2,0,2,,,,,,,,,1,,,67,60
52382,note_on,30,0,1,,,,,,,,,0,,,76,0
52382,note_on,30,0,2,,,,,,,,,1,,,67,0
52384,note_on,2,0,1,,,,,,,,,0,,,77,60
52384,note_on,2,0,2,,,,,,,,,1,,,65,60
52414,note_on,30,0,1,,,,,,,,,0,,,83,0
52414,note_on,0,0,2,,,,,,,,,1,,,65,0
52414,note_on,0,0,1,,,,,,,,,0,,,77,0
52414,note_on,30,0,2,,,,,,,,,1,,,60,0
52416,note_on,2,0,2,,,,,,,,,1,,,60,60
52416,note_on,0,0,2,,,,,,,,,1,,,67,60
52416,note_on,2,0,1,,,,,,,,,0,,,76,60
52416,note_on,0,0,1,,,,,,,,,0,,,84,60
52446,note_on,30,0,1,,,,,,,,,0,,,84,0
52448,note_on,2,0,1,,,,,,,,,0,,,86,60
52478,note_on,30,0,1,,,,,,,,,0,,,86,0
52480,note_on,2,0,1,,,,,,,,,0,,,84,60
52510,note_on,94,0,2,,,,,,,,,1,,,60,0
52510,note_on,0,0,2,,,,,,,,,1,,,67,0
52510,note_on,0,0,1,,,,,,,,,0,,,84,0
52510,note_on,30,0,1,,,,,,,,,0,,,76,0
52512,note_on,2,0,1,,,,,,,,,0,,,83,60
52542,note_on,30,0,1,,,,,,,,,0,,,83,0
52544,note_on,2,0,1,,,,,,,,,0,,,84,60
52574,note_on,30,0,1,,,,,,,,,0,,,84,0
52576,note_on,2,0,1,,,,,,,,,0,,,83,60
52606,note_on,30,0,1,,,,,,,,,0,,,83,0
52608,note_on,2,0,1,,,,,,,,,0,,,84,60
52638,note_on,30,0,1,,,,,,,,,0,,,84,0
52640,note_on,2,0,1,,,,,,,,,0,,,86,60
52670,note_on,30,0,1,,,,,,,,,0,,,86,0
52672,note_on,2,0,1,,,,,,,,,0,,,84,60
52702,note_on,30,0,1,,,,,,,,,0,,,84,0
52704,note_on,2,0,1,,,,,,,,,0,,,83,60
52734,note_on,30,0,1,,,,,,,,,0,,,83,0
52736,note_on,2,0,1,,,,,,,,,0,,,84,60
52766,note_on,30,0,1,,,,,,,,,0,,,84,0
52768,note_on,2,0,1,,,,,,,,,0,,,83,60
52798,note_on,30,0,1,,,,,,,,,0,,,83,0
52800,note_on,2,0,1,,,,,,,,,0,,,84,60
52830,note_on,30,0,1,,,,,,,,,0,,,84,0
52832,note_on,2,0,1,,,,,,,,,0,,,86,60
52862,note_on,30,0,1,,,,,,,,,0,,,86,0
52864,note_on,2,0,1,,,,,,,,,0,,,84,60
52894,note_on,30,0,1,,,,,,,,,0,,,84,0
52896,note_on,2,0,1,,,,,,,,,0,,,83,60
52926,note_on,30,0,1,,,,,,,,,0,,,83,0
52928,note_on,2,0,1,,,,,,,,,0,,,84,60
52958,note_on,30,0,1,,,,,,,,,0,,,84,0
52960,note_on,2,0,1,,,,,,,,,0,,,83,60
52990,note_on,30,0,1,,,,,,,,,0,,,83,0
52992,note_on,2,0,1,,,,,,,,,0,,,84,60
52992,note_on,482,0,2,,,,,,,,,1,,,48,60
52992,note_on,0,0,2,,,,,,,,,1,,,52,84
53013,note_on,21,0,2,,,,,,,,,1,,,52,0
53024,note_on,32,0,1,,,,,,,,,0,,,84,0
53024,note_on,11,0,2,,,,,,,,,1,,,53,60
53054,note_on,30,0,2,,,,,,,,,1,,,53,0
53056,note_on,2,0,2,,,,,,,,,1,,,55,60
53086,note_on,30,0,2,,,,,,,,,1,,,48,0
53086,note_on,0,0,2,,,,,,,,,1,,,55,0
53088,note_on,2,0,2,,,,,,,,,1,,,48,60
53088,note_on,0,0,2,,,,,,,,,1,,,56,84
53088,note_on,64,0,1,,,,,,,,,0,,,62,84
53088,note_on,0,0,1,,,,,,,,,0,,,71,60
53109,note_on,21,0,2,,,,,,,,,1,,,56,0
53109,note_on,21,0,1,,,,,,,,,0,,,62,0
53120,note_on,11,0,1,,,,,,,,,0,,,64,60
53120,note_on,11,0,2,,,,,,,,,1,,,55,60
53150,note_on,30,0,2,,,,,,,,,1,,,55,0
53150,note_on,30,0,1,,,,,,,,,0,,,64,0
53152,note_on,2,0,2,,,,,,,,,1,,,53,60
53152,note_on,2,0,1,,,,,,,,,0,,,65,60
53182,note_on,0,0,1,,,,,,,,,0,,,65,0
53182,note_on,30,0,1,,,,,,,,,0,,,71,0
53182,note_on,0,0,2,,,,,,,,,1,,,53,0
53182,note_on,30,0,2,,,,,,,,,1,,,48,0
53184,note_on,0,0,1,,,,,,,,,0,,,72,60
53184,note_on,2,0,1,,,,,,,,,0,,,64,84
53184,note_on,0,0,2,,,,,,,,,1,,,55,84
53184,note_on,2,0,2,,,,,,,,,1,,,48,60
53205,note_on,21,0,1,,,,,,,,,0,,,64,0
53205,note_on,21,0,2,,,,,,,,,1,,,55,0
53216,note_on,11,0,1,,,,,,,,,0,,,65,60
53216,note_on,11,0,2,,,,,,,,,1,,,53,60
53246,note_on,30,0,1,,,,,,,,,0,,,65,0
53246,note_on,30,0,2,,,,,,,,,1,,,53,0
53248,note_on,2,0,1,,,,,,,,,0,,,67,60
53248,note_on,2,0,2,,,,,,,,,1,,,52,60
53278,note_on,0,0,2,,,,,,,,,1,,,52,0
53278,note_on,30,0,2,,,,,,,,,1,,,48,0
53278,note_on,30,0,1,,,,,,,,,0,,,72,0
53278,note_on,0,0,1,,,,,,,,,0,,,67,0
53280,note_on,0,0,2,,,,,,,,,1,,,56,84
53280,note_on,2,0,1,,,,,,,,,0,,,62,84
53280,note_on,0,0,1,,,,,,,,,0,,,71,60
53280,note_on,2,0,2,,,,,,,,,1,,,48,60
53301,note_on,21,0,1,,,,,,,,,0,,,62,0
53301,note_on,21,0,2,,,,,,,,,1,,,56,0
53312,note_on,11,0,2,,,,,,,,,1,,,55,60
53312,note_on,11,0,1,,,,,,,,,0,,,64,60
53342,note_on,30,0,1,,,,,,,,,0,,,64,0
53342,note_on,30,0,2,,,,,,,,,1,,,55,0
53344,note_on,2,0,2,,,,,,,,,1,,,53,60
53344,note_on,2,0,1,,,,,,,,,0,,,65,60
53374,note_on,0,0,1,,,,,,,,,0,,,65,0
53374,note_on,0,0,2,,,,,,,,,1,,,53,0
53374,note_on,30,0,2,,,,,,,,,1,,,48,0
53374,note_on,30,0,1,,,,,,,,,0,,,71,0
53376,note_on,2,0,2,,,,,,,,,1,,,48,60
53376,note_on,2,0,1,,,,,,,,,0,,,64,84
53376,note_on,0,0,1,,,,,,,,,0,,,72,60
53376,note_on,0,0,2,,,,,,,,,1,,,55,84
53397,note_on,21,0,2,,,,,,,,,1,,,55,0
53397,note_on,21,0,1,,,,,,,,,0,,,64,0
53408,note_on,11,0,2,,,,,,,,,1,,,53,60
53408,note_on,11,0,1,,,,,,,,,0,,,65,60
53438,note_on,30,0,2,,,,,,,,,1,,,53,0
53438,note_on,30,0,1,,,,,,,,,0,,,65,0
53440,note_on,2,0,2,,,,,,,,,1,,,52,60
53440,note_on,2,0,1,,,,,,,,,0,,,67,60
53470,note_on,30,0,2,,,,,,,,,1,,,48,0
53470,note_on,0,0,2,,,,,,,,,1,,,52,0
53470,note_on,0,0,1,,,,,,,,,0,,,67,0
53470,note_on,30,0,1,,,,,,,,,0,,,72,0
53472,note_on,2,0,1,,,,,,,,,0,,,62,84
53472,note_on,0,0,1,,,,,,,,,0,,,71,60
53472,note_on,2,0,2,,,,,,,,,1,,,48,60
53472,note_on,0,0,2,,,,,,,,,1,,,56,84
53493,note_on,21,0,1,,,,,,,,,0,,,62,0
53493,note_on,21,0,2,,,,,,,,,1,,,56,0
53504,note_on,11,0,2,,,,,,,,,1,,,55,60
53504,note_on,11,0,1,,,,,,,,,0,,,64,60
53534,note_on,30,0,2,,,,,,,,,1,,,55,0
53534,note_on,30,0,1,,,,,,,,,0,,,64,0
53536,note_on,2,0,2,,,,,,,,,1,,,53,60
53536,note_on,2,0,1,,,,,,,,,0,,,65,60
53566,note_on,0,0,1,,,,,,,,,0,,,65,0
53566,note_on,30,0,2,,,,,,,,,1,,,48,0
53566,note_on,0,0,2,,,,,,,,,1,,,53,0
53566,note_on,30,0,1,,,,,,,,,0,,,71,0
53568,note_on,0,0,1,,,,,,,,,0,,,72,60
53568,note_on,2,0,1,,,,,,,,,0,,,64,60
53568,note_on,2,0,2,,,,,,,,,1,,,48,60
53568,note_on,0,0,2,,,,,,,,,1,,,55,60
53598,note_on,30,0,1,,,,,,,,,0,,,72,0
53600,note_on,32,0,2,,,,,,,,,1,,,48,0
53600,note_on,0,0,2,,,,,,,,,1,,,55,0
53600,note_on,2,0,1,,,,,,,,,0,,,74,60
53630,note_on,30,0,1,,,,,,,,,0,,,74,0
53632,note_on,2,0,1,,,,,,,,,0,,,72,60
53662,note_on,0,0,1,,,,,,,,,0,,,72,0
53662,note_on,30,0,1,,,,,,,,,0,,,64,0
53664,note_on,2,0,1,,,,,,,,,0,,,71,60
53694,note_on,30,0,1,,,,,,,,,0,,,71,0
53696,note_on,2,0,1,,,,,,,,,0,,,72,60
53726,note_on,30,0,1,,,,,,,,,0,,,72,0
53728,note_on,2,0,1,,,,,,,,,0,,,71,60
53758,note_on,30,0,1,,,,,,,,,0,,,71,0
53760,note_on,2,0,1,,,,,,,,,0,,,72,60
53790,note_on,30,0,1,,,,,,,,,0,,,72,0
53792,note_on,2,0,1,,,,,,,,,0,,,74,60
53822,note_on,30,0,1,,,,,,,,,0,,,74,0
53824,note_on,2,0,1,,,,,,,,,0,,,72,60
53854,note_on,30,0,1,,,,,,,,,0,,,72,0
53856,note_on,2,0,1,,,,,,,,,0,,,71,60
53886,note_on,30,0,1,,,,,,,,,0,,,71,0
53888,note_on,2,0,1,,,,,,,,,0,,,72,60
53918,note_on,30,0,1,,,,,,,,,0,,,72,0
53920,note_on,2,0,1,,,,,,,,,0,,,71,60
53950,note_on,30,0,1,,,,,,,,,0,,,71,0
53952,note_on,2,0,1,,,,,,,,,0,,,72,60
53982,note_on,30,0,1,,,,,,,,,0,,,72,0
53984,note_on,2,0,1,,,,,,,,,0,,,74,60
54014,note_on,30,0,1,,,,,,,,,0,,,74,0
54016,note_on,2,0,1,,,,,,,,,0,,,72,60
54046,note_on,30,0,1,,,,,,,,,0,,,72,0
54048,note_on,2,0,1,,,,,,,,,0,,,71,60
54078,note_on,30,0,1,,,,,,,,,0,,,71,0
54080,note_on,2,0,1,,,,,,,,,0,,,72,60
54110,note_on,30,0,1,,,,,,,,,0,,,72,0
54112,note_on,2,0,1,,,,,,,,,0,,,71,60
54142,note_on,30,0,1,,,,,,,,,0,,,71,0
54144,note_on,2,0,1,,,,,,,,,0,,,72,60
54144,note_on,544,0,2,,,,,,,,,1,,,48,60
54165,note_on,21,0,1,,,,,,,,,0,,,72,0
54165,note_on,21,0,2,,,,,,,,,1,,,48,0
54176,note_on,11,0,2,,,,,,,,,1,,,52,61
54176,note_on,11,0,1,,,,,,,,,0,,,64,61
54206,note_on,30,0,1,,,,,,,,,0,,,64,0
54206,note_on,30,0,2,,,,,,,,,1,,,52,0
54208,note_on,2,0,1,,,,,,,,,0,,,65,62
54208,note_on,2,0,2,,,,,,,,,1,,,53,62
54238,note_on,30,0,1,,,,,,,,,0,,,65,0
54238,note_on,30,0,2,,,,,,,,,1,,,53,0
54240,note_on,2,0,2,,,,,,,,,1,,,55,63
54240,note_on,2,0,1,,,,,,,,,0,,,67,63
54270,note_on,30,0,1,,,,,,,,,0,,,67,0
54270,note_on,30,0,2,,,,,,,,,1,,,55,0
54272,note_on,2,0,2,,,,,,,,,1,,,53,64
54272,note_on,2,0,1,,,,,,,,,0,,,65,64
54302,note_on,30,0,2,,,,,,,,,1,,,53,0
54302,note_on,30,0,1,,,,,,,,,0,,,65,0
54304,note_on,2,0,1,,,,,,,,,0,,,64,66
54304,note_on,2,0,2,,,,,,,,,1,,,52,66
54334,note_on,30,0,2,,,,,,,,,1,,,52,0
54334,note_on,30,0,1,,,,,,,,,0,,,64,0
54336,note_on,2,0,1,,,,,,,,,0,,,76,68
54336,note_on,2,0,2,,,,,,,,,1,,,43,68
54357,note_on,21,0,1,,,,,,,,,0,,,76,0
54357,note_on,21,0,2,,,,,,,,,1,,,43,0
54368,note_on,11,0,2,,,,,,,,,1,,,52,70
54368,note_on,11,0,1,,,,,,,,,0,,,64,70
54398,note_on,30,0,2,,,,,,,,,1,,,52,0
54398,note_on,30,0,1,,,,,,,,,0,,,64,0
54400,note_on,2,0,2,,,,,,,,,1,,,53,72
54400,note_on,2,0,1,,,,,,,,,0,,,65,72
54430,note_on,30,0,2,,,,,,,,,1,,,53,0
54430,note_on,30,0,1,,,,,,,,,0,,,65,0
54432,note_on,2,0,2,,,,,,,,,1,,,55,74
54432,note_on,2,0,1,,,,,,,,,0,,,67,74
54462,note_on,30,0,2,,,,,,,,,1,,,55,0
54462,note_on,30,0,1,,,,,,,,,0,,,67,0
54464,note_on,2,0,2,,,,,,,,,1,,,53,76
54464,note_on,2,0,1,,,,,,,,,0,,,65,76
54494,note_on,30,0,1,,,,,,,,,0,,,65,0
54494,note_on,30,0,2,,,,,,,,,1,,,53,0
54496,note_on,2,0,2,,,,,,,,,1,,,52,78
54496,note_on,2,0,1,,,,,,,,,0,,,64,78
54526,note_on,30,0,2,,,,,,,,,1,,,52,0
54526,note_on,30,0,1,,,,,,,,,0,,,64,0
54528,note_on,2,0,2,,,,,,,,,1,,,40,80
54528,note_on,2,0,1,,,,,,,,,0,,,79,80
54549,note_on,21,0,1,,,,,,,,,0,,,79,0
54549,note_on,21,0,2,,,,,,,,,1,,,40,0
54560,note_on,11,0,2,,,,,,,,,1,,,52,82
54560,note_on,11,0,1,,,,,,,,,0,,,64,82
54590,note_on,30,0,2,,,,,,,,,1,,,52,0
54590,note_on,30,0,1,,,,,,,,,0,,,64,0
54592,note_on,2,0,2,,,,,,,,,1,,,53,84
54592,note_on,2,0,1,,,,,,,,,0,,,65,84
54622,note_on,30,0,2,,,,,,,,,1,,,53,0
54622,note_on,30,0,1,,,,,,,,,0,,,65,0
54624,note_on,2,0,1,,,,,,,,,0,,,67,86
54624,note_on,2,0,2,,,,,,,,,1,,,55,86
54654,note_on,30,0,2,,,,,,,,,1,,,55,0
54654,note_on,30,0,1,,,,,,,,,0,,,67,0
54656,note_on,2,0,2,,,,,,,,,1,,,53,88
54656,note_on,2,0,1,,,,,,,,,0,,,65,88
54686,note_on,30,0,2,,,,,,,,,1,,,53,0
54686,note_on,30,0,1,,,,,,,,,0,,,65,0
54688,note_on,2,0,2,,,,,,,,,1,,,52,90
54688,note_on,2,0,1,,,,,,,,,0,,,64,90
54718,note_on,30,0,1,,,,,,,,,0,,,64,0
54718,note_on,30,0,2,,,,,,,,,1,,,52,0
54720,note_on,2,0,1,,,,,,,,,0,,,84,92
54720,note_on,2,0,2,,,,,,,,,1,,,36,92
54752,note_on,32,0,1,,,,,,,,,0,,,84,0
54752,note_on,32,0,2,,,,,,,,,1,,,36,0
54912,note_on,160,0,2,,,,,,,,,1,,,36,92
54912,note_on,0,0,2,,,,,,,,,1,,,43,92
54912,note_on,0,0,2,,,,,,,,,1,,,48,92
54912,note_on,160,0,1,,,,,,,,,0,,,52,92
54912,note_on,0,0,1,,,,,,,,,0,,,55,92
54912,note_on,0,0,1,,,,,,,,,0,,,60,92
54912,note_on,0,0,2,,,,,,,,,1,,,40,92
54944,note_on,32,0,2,,,,,,,,,1,,,36,0
54944,note_on,0,0,2,,,,,,,,,1,,,43,0
54944,note_on,0,0,2,,,,,,,,,1,,,40,0
54944,note_on,0,0,1,,,,,,,,,0,,,60,0
54944,end_of_track,0,1,1,,,,,,,,,,,,,
54944,note_on,32,0,1,,,,,,,,,0,,,52,0
54944,note_on,0,0,1,,,,,,,,,0,,,55,0
54944,note_on,0,0,2,,,,,,,,,1,,,48,0
54944,end_of_track,0,1,2,,,,,,,,,,,,,
