tick,type,numerator,denominator,clocks_per_click,notated_32nd_notes_per_beat,time,meta,track,tempo,control,value,channel,program,note,velocity
0,time_signature,3,4,24,8,0,1,0,,,,,,,
0,control_change,,,,,0,0,1,,32,2,0,,,
0,control_change,,,,,0,0,1,,7,125,0,,,
0,program_change,,,,,0,0,1,,,,0,0,,
0,track_name,,,,,0,1,5,,,,,,,
0,track_name,,,,,0,1,2,,,,,,,
0,program_change,,,,,0,0,2,,,,1,0,,
0,control_change,,,,,0,0,2,,7,120,1,,,
0,control_change,,,,,0,0,2,,11,110,1,,,
0,control_change,,,,,0,0,2,,93,10,1,,,
0,control_change,,,,,0,0,2,,91,24,1,,,
0,control_change,,,,,0,0,2,,10,60,1,,,
0,track_name,,,,,0,1,3,,,,,,,
0,end_of_track,,,,,0,1,3,,,,,,,
0,track_name,,,,,0,1,4,,,,,,,
0,end_of_track,,,,,0,1,4,,,,,,,
0,control_change,,,,,0,0,1,,0,0,0,,,
0,track_name,,,,,0,1,1,,,,,,,
0,end_of_track,,,,,0,1,5,,,,,,,
0,set_tempo,,,,,0,1,0,500000,,,,,,
1,marker,,,,,1,1,0,,,,,,,
270,control_change,,,,,270,0,1,,10,68,0,,,
330,control_change,,,,,60,0,1,,11,110,0,,,
360,control_change,,,,,30,0,1,,1,0,0,,,
390,control_change,,,,,30,0,1,,91,21,0,,,
420,control_change,,,,,30,0,1,,93,12,0,,,
450,control_change,,,,,30,0,1,,101,0,0,,,
460,control_change,,,,,10,0,1,,100,0,0,,,
470,control_change,,,,,10,0,1,,6,12,0,,,
480,control_change,,,,,10,0,1,,99,1,0,,,
490,control_change,,,,,10,0,1,,98,32,0,,,
500,control_change,,,,,10,0,1,,6,62,0,,,
510,control_change,,,,,10,0,1,,98,33,0,,,
520,control_change,,,,,10,0,1,,6,62,0,,,
540,control_change,,,,,20,0,1,,98,99,0,,,
550,control_change,,,,,10,0,1,,6,64,0,,,
570,control_change,,,,,20,0,1,,98,100,0,,,
580,control_change,,,,,10,0,1,,6,72,0,,,
600,control_change,,,,,20,0,1,,98,102,0,,,
610,control_change,,,,,10,0,1,,6,68,0,,,
719,note_on,,,,,719,0,2,,,,1,,62,55
720,note_on,,,,,1,0,2,,,,1,,58,52
720,set_tempo,,,,,0,1,0,535714,,,,,,
720,time_signature,3,8,12,8,719,1,0,,,,,,,
720,note_on,,,,,110,0,1,,,,0,,74,64
799,note_off,,,,,79,0,1,,,,0,,74,62
799,note_off,,,,,79,0,2,,,,1,,58,61
800,note_off,,,,,1,0,2,,,,1,,62,60
809,note_on,,,,,10,0,1,,,,0,,69,55
810,note_on,,,,,1,0,1,,,,0,,77,69
811,note_on,,,,,0,0,2,,,,1,,60,63
811,note_on,,,,,11,0,2,,,,1,,53,59
833,note_off,,,,,23,0,1,,,,0,,69,57
834,note_off,,,,,1,0,1,,,,0,,77,59
835,note_off,,,,,24,0,2,,,,1,,60,58
837,note_off,,,,,2,0,2,,,,1,,53,57
839,note_on,,,,,2,0,2,,,,1,,60,69
840,set_tempo,,,,,120,1,0,500000,,,,,,
840,note_on,,,,,6,0,1,,,,0,,72,69
841,note_on,,,,,1,0,1,,,,0,,77,73
841,note_on,,,,,2,0,2,,,,1,,57,66
949,note_off,,,,,108,0,2,,,,1,,60,61
950,note_off,,,,,109,0,1,,,,0,,77,60
951,note_off,,,,,2,0,2,,,,1,,57,60
951,note_off,,,,,1,0,1,,,,0,,72,62
959,note_on,,,,,8,0,1,,,,0,,74,66
959,note_on,,,,,8,0,2,,,,1,,58,53
960,note_on,,,,,1,0,1,,,,0,,65,59
960,set_tempo,,,,,120,1,0,508475,,,,,,
961,note_on,,,,,2,0,2,,,,1,,62,58
988,note_off,,,,,28,0,1,,,,0,,74,57
989,note_off,,,,,28,0,2,,,,1,,58,57
990,note_off,,,,,2,0,1,,,,0,,65,58
990,note_off,,,,,1,0,2,,,,1,,62,59
1079,note_on,,,,,89,0,2,,,,1,,58,58
1080,note_on,,,,,90,0,1,,,,0,,70,62
1080,set_tempo,,,,,120,1,0,535714,,,,,,
1081,note_on,,,,,2,0,2,,,,1,,55,51
1160,note_off,,,,,0,0,2,,,,1,,58,61
1160,note_off,,,,,79,0,2,,,,1,,55,61
1161,note_off,,,,,81,0,1,,,,0,,70,60
1169,note_on,,,,,9,0,2,,,,1,,57,65
1170,note_on,,,,,0,0,1,,,,0,,74,66
1170,note_on,,,,,9,0,1,,,,0,,66,60
1170,note_on,,,,,1,0,2,,,,1,,50,61
1193,note_off,,,,,23,0,2,,,,1,,57,59
1194,note_off,,,,,24,0,1,,,,0,,66,57
1195,note_off,,,,,1,0,1,,,,0,,74,58
1195,note_off,,,,,2,0,2,,,,1,,50,58
1199,note_on,,,,,4,0,1,,,,0,,69,69
1200,set_tempo,,,,,120,1,0,500000,,,,,,
1200,note_on,,,,,5,0,2,,,,1,,57,69
1201,note_on,,,,,1,0,2,,,,1,,54,66
1201,note_on,,,,,2,0,1,,,,0,,74,72
1309,note_off,,,,,108,0,1,,,,0,,69,61
1309,note_off,,,,,108,0,2,,,,1,,57,61
1311,note_off,,,,,2,0,1,,,,0,,74,62
1312,note_off,,,,,3,0,2,,,,1,,54,62
1320,set_tempo,,,,,120,1,0,508475,,,,,,
1320,note_on,,,,,9,0,1,,,,0,,62,59
1320,note_on,,,,,8,0,2,,,,1,,58,58
1321,note_on,,,,,1,0,2,,,,1,,55,53
1321,note_on,,,,,1,0,1,,,,0,,70,61
1349,note_off,,,,,28,0,1,,,,0,,62,59
1349,note_off,,,,,28,0,2,,,,1,,58,59
1350,note_off,,,,,1,0,2,,,,1,,55,57
1352,note_off,,,,,3,0,1,,,,0,,70,59
1380,set_tempo,,,,,60,1,0,517241,,,,,,
1440,note_on,,,,,90,0,2,,,,1,,51,56
1440,note_on,,,,,0,0,2,,,,1,,55,57
1441,note_on,,,,,89,0,1,,,,0,,67,65
1519,note_off,,,,,79,0,2,,,,1,,51,62
1520,note_off,,,,,79,0,1,,,,0,,67,60
1521,note_off,,,,,2,0,2,,,,1,,55,60
1530,note_on,,,,,9,0,2,,,,1,,46,62
1530,note_on,,,,,10,0,1,,,,0,,70,69
1530,set_tempo,,,,,150,1,0,535714,,,,,,
1530,note_on,,,,,0,0,2,,,,1,,53,66
1531,note_on,,,,,1,0,1,,,,0,,62,64
1554,note_off,,,,,24,0,2,,,,1,,53,59
1555,note_off,,,,,24,0,1,,,,0,,70,58
1556,note_off,,,,,1,0,1,,,,0,,62,57
1556,note_off,,,,,2,0,2,,,,1,,46,58
1559,note_on,,,,,3,0,1,,,,0,,70,75
1560,set_tempo,,,,,30,1,0,500000,,,,,,
1560,note_on,,,,,4,0,2,,,,1,,50,66
1561,note_on,,,,,2,0,1,,,,0,,65,68
1561,note_on,,,,,1,0,2,,,,1,,53,69
1668,note_off,,,,,107,0,1,,,,0,,70,61
1669,note_off,,,,,108,0,2,,,,1,,50,61
1670,note_off,,,,,2,0,1,,,,0,,65,60
1672,note_off,,,,,3,0,2,,,,1,,53,61
1679,note_on,,,,,9,0,1,,,,0,,58,60
1680,note_on,,,,,1,0,1,,,,0,,67,64
1680,note_on,,,,,0,0,2,,,,1,,55,60
1680,note_on,,,,,8,0,2,,,,1,,51,58
1680,set_tempo,,,,,120,1,0,508475,,,,,,
1709,note_off,,,,,29,0,1,,,,0,,58,57
1709,note_off,,,,,29,0,2,,,,1,,55,58
1710,note_off,,,,,1,0,1,,,,0,,67,58
1710,note_off,,,,,1,0,2,,,,1,,51,58
1740,set_tempo,,,,,60,1,0,517241,,,,,,
1799,note_on,,,,,89,0,1,,,,0,,58,55
1799,note_on,,,,,89,0,2,,,,1,,55,56
1799,note_on,,,,,0,0,2,,,,1,,51,54
1800,note_on,,,,,1,0,1,,,,0,,67,62
1879,note_off,,,,,80,0,2,,,,1,,55,61
1879,note_off,,,,,79,0,1,,,,0,,58,61
1880,note_off,,,,,1,0,2,,,,1,,51,62
1881,note_off,,,,,2,0,1,,,,0,,67,61
1889,note_on,,,,,9,0,2,,,,1,,48,59
1889,note_on,,,,,8,0,1,,,,0,,69,67
1890,set_tempo,,,,,150,1,0,535714,,,,,,
1891,note_on,,,,,2,0,1,,,,0,,63,62
1891,note_on,,,,,2,0,2,,,,1,,53,66
1913,note_off,,,,,22,0,1,,,,0,,69,58
1915,note_off,,,,,2,0,1,,,,0,,63,57
1915,note_off,,,,,24,0,2,,,,1,,48,59
1917,note_off,,,,,2,0,2,,,,1,,53,59
1919,note_on,,,,,4,0,1,,,,0,,69,76
1919,note_on,,,,,2,0,2,,,,1,,53,73
1920,note_on,,,,,1,0,1,,,,0,,63,68
1920,set_tempo,,,,,30,1,0,500000,,,,,,
1921,note_on,,,,,2,0,2,,,,1,,48,69
2028,note_off,,,,,107,0,2,,,,1,,53,60
2030,note_off,,,,,110,0,1,,,,0,,63,62
2030,note_off,,,,,0,0,1,,,,0,,69,60
2030,note_off,,,,,2,0,2,,,,1,,48,61
2039,note_on,,,,,9,0,2,,,,1,,50,56
2040,set_tempo,,,,,120,1,0,508475,,,,,,
2041,note_on,,,,,2,0,2,,,,1,,53,57
2041,note_on,,,,,0,0,1,,,,0,,70,67
2041,note_on,,,,,11,0,1,,,,0,,58,64
2070,note_off,,,,,29,0,2,,,,1,,53,57
2070,note_off,,,,,0,0,2,,,,1,,50,59
2070,note_off,,,,,29,0,1,,,,0,,70,57
2072,note_off,,,,,2,0,1,,,,0,,58,57
2100,set_tempo,,,,,60,1,0,535714,,,,,,
2159,note_on,,,,,89,0,2,,,,1,,53,62
2160,note_on,,,,,88,0,1,,,,0,,65,58
2161,note_on,,,,,1,0,1,,,,0,,70,64
2161,note_on,,,,,2,0,2,,,,1,,50,59
2240,note_off,,,,,79,0,1,,,,0,,70,60
2241,note_off,,,,,80,0,2,,,,1,,50,62
2249,note_on,,,,,8,0,2,,,,1,,45,63
2251,note_on,,,,,11,0,1,,,,0,,72,69
2269,note_off,,,,,20,0,2,,,,1,,53,62
2275,note_off,,,,,6,0,2,,,,1,,45,57
2276,note_off,,,,,25,0,1,,,,0,,65,62
2277,note_off,,,,,1,0,1,,,,0,,72,57
2279,note_on,,,,,2,0,1,,,,0,,72,78
2280,note_on,,,,,5,0,2,,,,1,,45,71
2280,note_on,,,,,0,0,2,,,,1,,53,74
2280,set_tempo,,,,,180,1,0,500000,,,,,,
2281,note_on,,,,,2,0,1,,,,0,,65,72
2389,note_off,,,,,109,0,2,,,,1,,45,62
2390,note_off,,,,,109,0,1,,,,0,,72,61
2399,note_on,,,,,9,0,1,,,,0,,70,73
2400,note_on,,,,,1,0,1,,,,0,,74,73
2400,note_on,,,,,11,0,2,,,,1,,44,61
2400,set_tempo,,,,,120,1,0,508475,,,,,,
2428,note_off,,,,,28,0,1,,,,0,,70,57
2429,note_off,,,,,1,0,1,,,,0,,74,57
2429,note_off,,,,,29,0,2,,,,1,,53,63
2431,note_off,,,,,2,0,2,,,,1,,44,57
2432,note_off,,,,,3,0,1,,,,0,,65,63
2460,set_tempo,,,,,60,1,0,517241,,,,,,
2519,note_on,,,,,87,0,1,,,,0,,74,80
2520,note_on,,,,,1,0,1,,,,0,,70,78
2521,note_on,,,,,90,0,2,,,,1,,44,66
2521,note_on,,,,,0,0,2,,,,1,,53,73
2599,note_off,,,,,79,0,1,,,,0,,74,60
2600,note_off,,,,,79,0,2,,,,1,,53,61
2602,note_off,,,,,2,0,2,,,,1,,44,60
2609,note_on,,,,,10,0,1,,,,0,,75,88
2610,set_tempo,,,,,150,1,0,500000,,,,,,
2610,note_on,,,,,8,0,2,,,,1,,43,71
2611,note_on,,,,,1,0,2,,,,1,,51,75
2634,note_off,,,,,25,0,1,,,,0,,75,59
2635,note_off,,,,,1,0,1,,,,0,,70,60
2636,note_off,,,,,25,0,2,,,,1,,51,58
2636,note_off,,,,,0,0,2,,,,1,,43,58
2639,note_on,,,,,0,0,1,,,,0,,75,93
2639,note_on,,,,,4,0,1,,,,0,,70,90
2641,note_on,,,,,5,0,2,,,,1,,43,80
2641,note_on,,,,,0,0,2,,,,1,,51,85
2749,note_off,,,,,110,0,1,,,,0,,75,61
2749,note_off,,,,,0,0,1,,,,0,,70,60
2750,note_off,,,,,109,0,2,,,,1,,51,61
2752,note_off,,,,,2,0,2,,,,1,,43,61
2760,note_on,,,,,11,0,1,,,,0,,70,97
2760,set_tempo,,,,,150,1,0,526316,,,,,,
2760,note_on,,,,,8,0,2,,,,1,,49,101
2761,note_on,,,,,1,0,1,,,,0,,65,92
2761,note_on,,,,,1,0,2,,,,1,,41,97
2761,note_on,,,,,0,0,1,,,,0,,77,98
2761,note_on,,,,,0,0,1,,,,0,,73,98
2791,note_off,,,,,30,0,1,,,,0,,70,58
2791,note_off,,,,,30,0,2,,,,1,,49,57
2792,note_off,,,,,1,0,2,,,,1,,41,57
2792,note_off,,,,,1,0,1,,,,0,,77,58
2792,note_off,,,,,0,0,1,,,,0,,73,57
2792,note_off,,,,,0,0,1,,,,0,,65,57
2879,note_on,,,,,87,0,1,,,,0,,70,97
2879,note_on,,,,,87,0,2,,,,1,,48,106
2879,note_on,,,,,0,0,2,,,,1,,40,101
2880,set_tempo,,,,,120,1,0,508475,,,,,,
2880,control_change,,,,,1,0,2,,64,0,1,,,
2880,control_change,,,,,1,0,1,,64,0,0,,,
2880,note_on,,,,,0,0,1,,,,0,,67,97
2880,note_on,,,,,0,0,1,,,,0,,79,102
2881,note_on,,,,,1,0,1,,,,0,,72,100
2900,control_change,,,,,20,0,2,,64,127,1,,,
2900,control_change,,,,,19,0,1,,64,127,0,,,
2928,note_off,,,,,28,0,2,,,,1,,40,59
2929,note_off,,,,,29,0,1,,,,0,,79,59
2929,note_off,,,,,1,0,2,,,,1,,48,57
2930,note_off,,,,,0,0,1,,,,0,,70,59
2930,note_off,,,,,1,0,1,,,,0,,67,58
2931,note_off,,,,,1,0,1,,,,0,,72,58
2940,control_change,,,,,9,0,1,,64,0,0,,,
2940,control_change,,,,,11,0,2,,64,0,1,,,
2999,note_on,,,,,59,0,1,,,,0,,69,104
2999,note_on,,,,,0,0,1,,,,0,,72,108
2999,note_on,,,,,59,0,2,,,,1,,41,109
2999,note_on,,,,,0,0,2,,,,1,,53,113
3000,control_change,,,,,1,0,1,,64,0,0,,,
3000,set_tempo,,,,,120,1,0,566038,,,,,,
3000,control_change,,,,,1,0,2,,64,0,1,,,
3001,note_on,,,,,1,0,1,,,,0,,60,105
3020,control_change,,,,,19,0,1,,64,127,0,,,
3020,control_change,,,,,20,0,2,,64,127,1,,,
3048,note_off,,,,,28,0,2,,,,1,,41,57
3050,note_off,,,,,2,0,2,,,,1,,53,59
3060,control_change,,,,,40,0,1,,64,0,0,,,
3060,control_change,,,,,10,0,2,,64,0,1,,,
3108,note_off,,,,,0,0,1,,,,0,,69,60
3108,note_off,,,,,48,0,1,,,,0,,72,61
3110,note_off,,,,,2,0,1,,,,0,,60,62
3120,set_tempo,,,,,120,1,0,666667,,,,,,
3239,note_on,,,,,179,0,2,,,,1,,74,55
3240,set_tempo,,,,,120,1,0,500000,,,,,,
3241,note_on,,,,,2,0,2,,,,1,,70,53
3241,note_on,,,,,131,0,1,,,,0,,86,55
3320,note_off,,,,,79,0,2,,,,1,,74,61
3321,note_off,,,,,1,0,2,,,,1,,70,61
3322,note_off,,,,,81,0,1,,,,0,,86,62
3330,note_on,,,,,0,0,1,,,,0,,89,64
3330,set_tempo,,,,,90,1,0,535714,,,,,,
3330,note_on,,,,,9,0,2,,,,1,,65,54
3330,note_on,,,,,0,0,2,,,,1,,72,58
3330,note_on,,,,,8,0,1,,,,0,,81,57
3354,note_off,,,,,0,0,1,,,,0,,81,57
3354,note_off,,,,,24,0,1,,,,0,,89,58
3355,note_off,,,,,25,0,2,,,,1,,72,58
3356,note_off,,,,,1,0,2,,,,1,,65,58
3359,note_on,,,,,5,0,1,,,,0,,84,66
3360,set_tempo,,,,,30,1,0,500000,,,,,,
3361,note_on,,,,,5,0,2,,,,1,,69,62
3361,note_on,,,,,0,0,2,,,,1,,72,65
3361,note_on,,,,,2,0,1,,,,0,,89,72
3470,note_off,,,,,109,0,2,,,,1,,69,62
3470,note_off,,,,,109,0,1,,,,0,,84,60
3471,note_off,,,,,1,0,2,,,,1,,72,60
3472,note_off,,,,,2,0,1,,,,0,,89,62
3479,note_on,,,,,8,0,2,,,,1,,70,55
3479,note_on,,,,,7,0,1,,,,0,,77,57
3479,note_on,,,,,0,0,2,,,,1,,74,58
3480,set_tempo,,,,,120,1,0,508475,,,,,,
3481,note_on,,,,,2,0,1,,,,0,,86,61
3508,note_off,,,,,27,0,1,,,,0,,77,58
3509,note_off,,,,,30,0,2,,,,1,,74,58
3509,note_off,,,,,0,0,2,,,,1,,70,58
3512,note_off,,,,,4,0,1,,,,0,,86,58
3540,set_tempo,,,,,60,1,0,517241,,,,,,
3600,note_on,,,,,91,0,2,,,,1,,67,55
3600,note_on,,,,,0,0,2,,,,1,,70,57
3601,note_on,,,,,89,0,1,,,,0,,82,58
3679,note_off,,,,,79,0,2,,,,1,,70,61
3680,note_off,,,,,1,0,2,,,,1,,67,62
3681,note_off,,,,,80,0,1,,,,0,,82,62
3689,note_on,,,,,9,0,2,,,,1,,69,56
3689,note_on,,,,,8,0,1,,,,0,,78,60
3689,note_on,,,,,0,0,1,,,,0,,86,65
3690,set_tempo,,,,,150,1,0,535714,,,,,,
3691,note_on,,,,,2,0,2,,,,1,,62,56
3713,note_off,,,,,24,0,1,,,,0,,78,59
3714,note_off,,,,,23,0,2,,,,1,,69,58
3715,note_off,,,,,2,0,1,,,,0,,86,58
3717,note_off,,,,,3,0,2,,,,1,,62,59
3720,set_tempo,,,,,30,1,0,500000,,,,,,
3720,note_on,,,,,5,0,1,,,,0,,81,70
3721,note_on,,,,,4,0,2,,,,1,,66,63
3721,note_on,,,,,0,0,2,,,,1,,69,64
3830,note_off,,,,,110,0,1,,,,0,,81,62
3831,note_off,,,,,110,0,2,,,,1,,69,62
3832,note_off,,,,,1,0,2,,,,1,,66,61
3839,note_on,,,,,9,0,1,,,,0,,82,63
3839,note_on,,,,,7,0,2,,,,1,,67,55
3840,set_tempo,,,,,120,1,0,508475,,,,,,
3841,note_on,,,,,2,0,1,,,,0,,74,58
3841,note_on,,,,,2,0,2,,,,1,,70,58
3869,note_off,,,,,28,0,1,,,,0,,82,58
3869,note_off,,,,,28,0,2,,,,1,,67,57
3870,note_off,,,,,1,0,1,,,,0,,74,57
3872,note_off,,,,,3,0,2,,,,1,,70,59
3900,set_tempo,,,,,60,1,0,517241,,,,,,
3959,note_on,,,,,0,0,2,,,,1,,63,56
3959,note_on,,,,,87,0,2,,,,1,,67,58
3961,note_on,,,,,91,0,1,,,,0,,79,56
4038,note_off,,,,,79,0,2,,,,1,,63,60
4039,note_off,,,,,1,0,2,,,,1,,67,61
4041,note_off,,,,,80,0,1,,,,0,,79,60
4049,note_on,,,,,10,0,2,,,,1,,58,57
4050,note_on,,,,,9,0,1,,,,0,,82,68
4050,set_tempo,,,,,150,1,0,535714,,,,,,
4051,note_on,,,,,2,0,2,,,,1,,65,60
4051,note_on,,,,,1,0,1,,,,0,,74,61
4075,note_off,,,,,24,0,2,,,,1,,58,59
4075,note_off,,,,,24,0,1,,,,0,,74,58
4075,note_off,,,,,0,0,1,,,,0,,82,57
4076,note_off,,,,,1,0,2,,,,1,,65,57
4079,note_on,,,,,0,0,2,,,,1,,65,68
4079,note_on,,,,,3,0,2,,,,1,,62,66
4080,set_tempo,,,,,30,1,0,500000,,,,,,
4080,note_on,,,,,5,0,1,,,,0,,77,65
4080,note_on,,,,,0,0,1,,,,0,,82,76
4189,note_off,,,,,110,0,2,,,,1,,62,60
4190,note_off,,,,,1,0,2,,,,1,,65,60
4190,note_off,,,,,110,0,1,,,,0,,82,62
4191,note_off,,,,,1,0,1,,,,0,,77,61
4199,note_on,,,,,9,0,2,,,,1,,63,54
4199,note_on,,,,,0,0,2,,,,1,,67,58
4199,note_on,,,,,8,0,1,,,,0,,70,56
4200,set_tempo,,,,,120,1,0,508475,,,,,,
4200,note_on,,,,,1,0,1,,,,0,,79,60
4228,note_off,,,,,29,0,2,,,,1,,67,59
4229,note_off,,,,,29,0,1,,,,0,,70,59
4230,note_off,,,,,2,0,2,,,,1,,63,57
4230,note_off,,,,,1,0,1,,,,0,,79,59
4260,set_tempo,,,,,60,1,0,517241,,,,,,
4319,note_on,,,,,89,0,1,,,,0,,70,55
4321,note_on,,,,,91,0,2,,,,1,,63,60
4321,note_on,,,,,0,0,2,,,,1,,67,61
4321,note_on,,,,,2,0,1,,,,0,,79,56
4400,note_off,,,,,79,0,1,,,,0,,70,60
4401,note_off,,,,,80,0,2,,,,1,,67,61
4402,note_off,,,,,2,0,1,,,,0,,79,60
4402,note_off,,,,,1,0,2,,,,1,,63,61
4409,note_on,,,,,7,0,1,,,,0,,81,64
4409,note_on,,,,,7,0,2,,,,1,,65,58
4410,note_on,,,,,1,0,1,,,,0,,75,62
4410,note_on,,,,,1,0,2,,,,1,,60,57
4410,set_tempo,,,,,150,1,0,535714,,,,,,
4433,note_off,,,,,23,0,1,,,,0,,81,59
4433,note_off,,,,,23,0,2,,,,1,,65,59
4436,note_off,,,,,3,0,1,,,,0,,75,57
4436,note_off,,,,,3,0,2,,,,1,,60,59
4439,note_on,,,,,3,0,2,,,,1,,65,66
4439,note_on,,,,,3,0,1,,,,0,,81,70
4440,set_tempo,,,,,30,1,0,500000,,,,,,
4441,note_on,,,,,2,0,2,,,,1,,60,63
4441,note_on,,,,,2,0,1,,,,0,,75,66
4548,note_off,,,,,107,0,2,,,,1,,65,61
4550,note_off,,,,,109,0,1,,,,0,,75,60
4550,note_off,,,,,0,0,1,,,,0,,81,60
4551,note_off,,,,,3,0,2,,,,1,,60,61
4560,note_on,,,,,10,0,1,,,,0,,82,56
4560,note_on,,,,,9,0,2,,,,1,,65,58
4560,set_tempo,,,,,120,1,0,508475,,,,,,
4561,note_on,,,,,1,0,2,,,,1,,62,57
4561,note_on,,,,,1,0,1,,,,0,,70,53
4589,note_off,,,,,28,0,2,,,,1,,65,59
4590,note_off,,,,,29,0,1,,,,0,,70,59
4591,note_off,,,,,1,0,1,,,,0,,82,59
4592,note_off,,,,,3,0,2,,,,1,,62,58
4620,set_tempo,,,,,60,1,0,517241,,,,,,
4679,note_on,,,,,87,0,2,,,,1,,74,72
4679,note_on,,,,,0,0,1,,,,0,,77,64
4679,note_on,,,,,88,0,1,,,,0,,82,66
4760,note_off,,,,,81,0,1,,,,0,,82,62
4760,note_off,,,,,81,0,2,,,,1,,74,62
4769,note_on,,,,,9,0,1,,,,0,,84,76
4770,set_tempo,,,,,150,1,0,535714,,,,,,
4770,note_on,,,,,10,0,2,,,,1,,72,64
4771,note_on,,,,,1,0,2,,,,1,,69,64
4794,note_off,,,,,25,0,1,,,,0,,77,60
4795,note_off,,,,,1,0,1,,,,0,,84,59
4796,note_off,,,,,0,0,2,,,,1,,72,57
4796,note_off,,,,,25,0,2,,,,1,,69,58
4799,note_on,,,,,3,0,2,,,,1,,69,76
4800,set_tempo,,,,,30,1,0,500000,,,,,,
4800,note_on,,,,,5,0,1,,,,0,,84,85
4801,note_on,,,,,1,0,1,,,,0,,77,80
4801,note_on,,,,,2,0,2,,,,1,,72,78
4909,note_off,,,,,108,0,1,,,,0,,84,62
4909,note_off,,,,,108,0,2,,,,1,,69,62
4912,note_off,,,,,3,0,2,,,,1,,72,60
4919,note_on,,,,,10,0,1,,,,0,,86,84
4920,set_tempo,,,,,120,1,0,508475,,,,,,
4921,note_on,,,,,9,0,2,,,,1,,68,73
4921,note_on,,,,,0,0,2,,,,1,,70,76
4950,note_off,,,,,31,0,1,,,,0,,86,57
4950,note_off,,,,,29,0,2,,,,1,,68,57
4951,note_off,,,,,1,0,1,,,,0,,77,65
4951,note_off,,,,,1,0,2,,,,1,,70,59
4980,set_tempo,,,,,60,1,0,517241,,,,,,
5039,note_on,,,,,88,0,1,,,,0,,82,85
5040,note_on,,,,,89,0,2,,,,1,,67,81
5040,note_on,,,,,1,0,1,,,,0,,87,86
5041,note_on,,,,,1,0,2,,,,1,,70,81
5119,note_off,,,,,78,0,2,,,,1,,67,60
5120,note_off,,,,,80,0,1,,,,0,,87,60
5129,note_on,,,,,9,0,1,,,,0,,88,92
5130,note_on,,,,,11,0,2,,,,1,,66,77
5130,set_tempo,,,,,150,1,0,535714,,,,,,
5150,note_off,,,,,20,0,2,,,,1,,70,62
5153,note_off,,,,,24,0,1,,,,0,,88,57
5154,note_off,,,,,4,0,2,,,,1,,66,59
5155,note_off,,,,,2,0,1,,,,0,,82,61
5160,set_tempo,,,,,30,1,0,500000,,,,,,
5161,note_on,,,,,6,0,1,,,,0,,82,92
5161,note_on,,,,,0,0,1,,,,0,,88,93
5161,note_on,,,,,7,0,2,,,,1,,66,86
5161,note_on,,,,,0,0,2,,,,1,,70,91
5270,note_off,,,,,109,0,1,,,,0,,88,61
5271,note_off,,,,,1,0,1,,,,0,,82,62
5271,note_off,,,,,110,0,2,,,,1,,70,62
5272,note_off,,,,,1,0,2,,,,1,,66,60
5279,note_on,,,,,7,0,2,,,,1,,65,99
5279,note_on,,,,,8,0,1,,,,0,,77,95
5279,note_on,,,,,0,0,1,,,,0,,89,99
5280,note_on,,,,,1,0,2,,,,1,,72,102
5280,set_tempo,,,,,120,1,0,508475,,,,,,
5281,note_on,,,,,2,0,1,,,,0,,81,96
5308,note_off,,,,,28,0,2,,,,1,,65,59
5309,note_off,,,,,28,0,1,,,,0,,77,58
5309,note_off,,,,,1,0,2,,,,1,,72,58
5310,note_off,,,,,1,0,1,,,,0,,89,59
5312,note_off,,,,,2,0,1,,,,0,,81,57
5399,note_on,,,,,87,0,1,,,,0,,79,102
5399,note_on,,,,,90,0,2,,,,1,,48,105
5400,set_tempo,,,,,120,1,0,555556,,,,,,
5400,note_on,,,,,0,0,1,,,,0,,91,109
5400,note_on,,,,,0,0,1,,,,0,,88,109
5400,control_change,,,,,1,0,1,,64,0,0,,,
5400,control_change,,,,,1,0,2,,64,0,1,,,
5401,note_on,,,,,1,0,2,,,,1,,60,108
5401,note_on,,,,,1,0,1,,,,0,,82,105
5420,control_change,,,,,19,0,1,,64,127,0,,,
5420,control_change,,,,,19,0,2,,64,127,1,,,
5448,note_off,,,,,28,0,1,,,,0,,79,59
5448,note_off,,,,,28,0,2,,,,1,,48,59
5449,note_off,,,,,1,0,1,,,,0,,88,58
5450,note_off,,,,,1,0,1,,,,0,,91,57
5452,note_off,,,,,2,0,1,,,,0,,82,59
5452,note_off,,,,,4,0,2,,,,1,,60,58
5460,set_tempo,,,,,60,1,0,582524,,,,,,
5460,control_change,,,,,8,0,1,,64,0,0,,,
5460,control_change,,,,,8,0,2,,64,0,1,,,
5519,note_on,,,,,59,0,2,,,,1,,65,114
5520,control_change,,,,,0,0,1,,64,0,0,,,
5520,note_on,,,,,60,0,1,,,,0,,81,110
5520,control_change,,,,,1,0,2,,64,0,1,,,
5521,note_on,,,,,1,0,2,,,,1,,53,112
5521,note_on,,,,,0,0,1,,,,0,,89,110
5521,note_on,,,,,1,0,1,,,,0,,77,108
5540,control_change,,,,,19,0,2,,64,127,1,,,
5540,control_change,,,,,19,0,1,,64,127,0,,,
5569,note_off,,,,,29,0,2,,,,1,,65,57
5570,note_off,,,,,1,0,2,,,,1,,53,57
5571,note_off,,,,,0,0,1,,,,0,,77,59
5571,note_off,,,,,31,0,1,,,,0,,89,59
5571,note_off,,,,,0,0,1,,,,0,,81,57
5580,set_tempo,,,,,120,1,0,714286,,,,,,
5620,control_change,,,,,49,0,1,,64,0,0,,,
5620,control_change,,,,,50,0,2,,64,0,1,,,
5759,note_on,,,,,139,0,1,,,,0,,74,61
5759,note_on,,,,,139,0,2,,,,1,,65,63
5760,control_change,,,,,1,0,1,,64,0,0,,,
5760,note_on,,,,,0,0,1,,,,0,,71,61
5760,set_tempo,,,,,180,1,0,566038,,,,,,
5760,control_change,,,,,1,0,2,,64,0,1,,,
5761,note_on,,,,,1,0,2,,,,1,,53,62
5780,control_change,,,,,20,0,1,,64,127,0,,,
5780,control_change,,,,,19,0,2,,64,127,1,,,
5839,note_off,,,,,59,0,1,,,,0,,71,62
5839,note_off,,,,,0,0,1,,,,0,,74,60
5850,set_tempo,,,,,90,1,0,545455,,,,,,
5851,note_on,,,,,0,0,1,,,,0,,77,57
5851,note_on,,,,,12,0,1,,,,0,,74,55
5875,note_off,,,,,24,0,1,,,,0,,77,59
5877,note_off,,,,,2,0,1,,,,0,,74,58
5879,note_on,,,,,2,0,1,,,,0,,77,65
5880,control_change,,,,,100,0,2,,64,0,1,,,
5880,note_on,,,,,1,0,1,,,,0,,74,62
5880,control_change,,,,,0,0,1,,64,0,0,,,
5880,set_tempo,,,,,30,1,0,508475,,,,,,
5900,control_change,,,,,20,0,1,,64,127,0,,,
5900,control_change,,,,,20,0,2,,64,127,1,,,
5989,note_off,,,,,89,0,1,,,,0,,74,61
5989,note_off,,,,,0,0,1,,,,0,,77,62
5999,note_on,,,,,10,0,1,,,,0,,74,54
6000,control_change,,,,,100,0,2,,64,0,1,,,
6000,set_tempo,,,,,120,1,0,571429,,,,,,
6000,control_change,,,,,1,0,1,,64,0,0,,,
6001,note_on,,,,,1,0,1,,,,0,,71,51
6050,note_off,,,,,49,0,1,,,,0,,74,57
6051,note_off,,,,,1,0,1,,,,0,,71,59
6060,set_tempo,,,,,60,1,0,535714,,,,,,
6103,note_off,,,,,103,0,2,,,,1,,65,64
6105,note_off,,,,,2,0,2,,,,1,,53,65
6119,note_on,,,,,14,0,2,,,,1,,41,57
6120,control_change,,,,,69,0,1,,64,0,0,,,
6120,control_change,,,,,1,0,2,,64,0,1,,,
6121,note_on,,,,,1,0,1,,,,0,,71,62
6121,note_on,,,,,0,0,1,,,,0,,74,62
6121,note_on,,,,,1,0,2,,,,1,,53,60
6140,control_change,,,,,19,0,2,,64,127,1,,,
6140,control_change,,,,,19,0,1,,64,127,0,,,
6200,note_off,,,,,60,0,1,,,,0,,74,61
6200,note_off,,,,,0,0,1,,,,0,,71,62
6210,set_tempo,,,,,150,1,0,545455,,,,,,
6211,note_on,,,,,11,0,1,,,,0,,75,52
6211,note_on,,,,,0,0,1,,,,0,,79,55
6235,note_off,,,,,0,0,1,,,,0,,75,59
6235,note_off,,,,,24,0,1,,,,0,,79,59
6239,note_on,,,,,4,0,1,,,,0,,75,62
6239,note_on,,,,,0,0,1,,,,0,,79,64
6240,set_tempo,,,,,30,1,0,517241,,,,,,
6240,control_change,,,,,100,0,2,,64,0,1,,,
6240,control_change,,,,,1,0,1,,64,0,0,,,
6260,control_change,,,,,20,0,1,,64,127,0,,,
6260,control_change,,,,,20,0,2,,64,127,1,,,
6348,note_off,,,,,88,0,1,,,,0,,75,61
6349,note_off,,,,,1,0,1,,,,0,,79,61
6360,control_change,,,,,100,0,2,,64,0,1,,,
6360,set_tempo,,,,,120,1,0,526316,,,,,,
6360,note_on,,,,,11,0,1,,,,0,,72,54
6360,control_change,,,,,0,0,1,,64,0,0,,,
6361,note_on,,,,,1,0,1,,,,0,,75,56
6410,note_off,,,,,49,0,1,,,,0,,72,58
6411,note_off,,,,,1,0,1,,,,0,,75,58
6420,set_tempo,,,,,60,1,0,571429,,,,,,
6463,note_off,,,,,103,0,2,,,,1,,41,63
6465,note_off,,,,,2,0,2,,,,1,,53,64
6479,note_on,,,,,68,0,1,,,,0,,72,62
6480,control_change,,,,,1,0,1,,64,0,0,,,
6480,control_change,,,,,0,0,2,,64,0,1,,,
6480,note_on,,,,,0,0,2,,,,1,,53,54
6480,note_on,,,,,15,0,2,,,,1,,41,54
6481,note_on,,,,,1,0,1,,,,0,,69,62
6500,control_change,,,,,19,0,1,,64,127,0,,,
6500,control_change,,,,,20,0,2,,64,127,1,,,
6560,note_off,,,,,60,0,1,,,,0,,72,60
6561,note_off,,,,,1,0,1,,,,0,,69,62
6569,note_on,,,,,8,0,1,,,,0,,72,56
6570,set_tempo,,,,,150,1,0,555556,,,,,,
6571,note_on,,,,,2,0,1,,,,0,,75,58
6594,note_off,,,,,23,0,1,,,,0,,72,57
6597,note_off,,,,,3,0,1,,,,0,,75,57
6599,note_on,,,,,2,0,1,,,,0,,72,64
6599,note_on,,,,,0,0,1,,,,0,,75,65
6600,control_change,,,,,100,0,2,,64,0,1,,,
6600,set_tempo,,,,,30,1,0,526316,,,,,,
6600,control_change,,,,,1,0,1,,64,0,0,,,
6620,control_change,,,,,20,0,2,,64,127,1,,,
6620,control_change,,,,,20,0,1,,64,127,0,,,
6708,note_off,,,,,88,0,1,,,,0,,75,60
6709,note_off,,,,,1,0,1,,,,0,,72,60
6720,note_on,,,,,11,0,1,,,,0,,72,56
6720,control_change,,,,,0,0,1,,64,0,0,,,
6720,control_change,,,,,100,0,2,,64,0,1,,,
6720,set_tempo,,,,,120,1,0,535714,,,,,,
6721,note_on,,,,,1,0,1,,,,0,,69,55
6771,note_off,,,,,50,0,1,,,,0,,72,58
6772,note_off,,,,,1,0,1,,,,0,,69,58
6780,set_tempo,,,,,60,1,0,555556,,,,,,
6825,note_off,,,,,105,0,2,,,,1,,41,63
6826,note_off,,,,,1,0,2,,,,1,,53,65
6839,note_on,,,,,13,0,2,,,,1,,29,54
6840,note_on,,,,,0,0,2,,,,1,,41,53
6840,control_change,,,,,1,0,2,,64,0,1,,,
6840,note_on,,,,,68,0,1,,,,0,,69,60
6840,control_change,,,,,0,0,1,,64,0,0,,,
6841,note_on,,,,,1,0,1,,,,0,,72,61
6860,control_change,,,,,19,0,1,,64,127,0,,,
6860,control_change,,,,,20,0,2,,64,127,1,,,
6921,note_off,,,,,61,0,1,,,,0,,69,60
6922,note_off,,,,,1,0,1,,,,0,,72,60
6929,note_on,,,,,7,0,1,,,,0,,77,55
6930,note_on,,,,,1,0,1,,,,0,,73,53
6930,set_tempo,,,,,150,1,0,582524,,,,,,
6955,note_off,,,,,25,0,1,,,,0,,73,57
6955,note_off,,,,,0,0,1,,,,0,,77,59
6959,note_on,,,,,4,0,1,,,,0,,74,60
6960,control_change,,,,,100,0,2,,64,0,1,,,
6960,control_change,,,,,1,0,1,,64,0,0,,,
6960,set_tempo,,,,,30,1,0,545455,,,,,,
6961,note_on,,,,,1,0,1,,,,0,,77,65
6980,control_change,,,,,20,0,2,,64,127,1,,,
6980,control_change,,,,,19,0,1,,64,127,0,,,
7070,note_off,,,,,90,0,1,,,,0,,74,60
7071,note_off,,,,,1,0,1,,,,0,,77,62
7079,note_on,,,,,8,0,1,,,,0,,70,51
7079,note_on,,,,,0,0,1,,,,0,,74,57
7080,control_change,,,,,100,0,2,,64,0,1,,,
7080,set_tempo,,,,,120,1,0,606061,,,,,,
7080,control_change,,,,,1,0,1,,64,0,0,,,
7128,note_off,,,,,48,0,1,,,,0,,74,58
7130,note_off,,,,,2,0,1,,,,0,,70,57
7140,set_tempo,,,,,60,1,0,800000,,,,,,
7184,note_off,,,,,0,0,2,,,,1,,29,63
7184,note_off,,,,,104,0,2,,,,1,,41,64
7199,note_on,,,,,69,0,1,,,,0,,60,56
7200,control_change,,,,,16,0,2,,64,0,1,,,
7200,set_tempo,,,,,60,1,0,566038,,,,,,
7200,note_on,,,,,0,0,1,,,,0,,57,54
7200,control_change,,,,,1,0,1,,64,0,0,,,
7201,note_on,,,,,1,0,2,,,,1,,30,53
7201,note_on,,,,,0,0,2,,,,1,,42,55
7220,control_change,,,,,19,0,2,,64,127,1,,,
7220,control_change,,,,,20,0,1,,64,127,0,,,
7280,note_off,,,,,60,0,1,,,,0,,60,62
7281,note_off,,,,,1,0,1,,,,0,,57,61
7290,set_tempo,,,,,90,1,0,582524,,,,,,
7291,note_on,,,,,0,0,1,,,,0,,63,60
7291,note_on,,,,,10,0,1,,,,0,,60,59
7316,note_off,,,,,25,0,1,,,,0,,63,57
7317,note_off,,,,,1,0,1,,,,0,,60,57
7320,note_on,,,,,3,0,1,,,,0,,60,61
7320,control_change,,,,,0,0,1,,64,0,0,,,
7320,note_on,,,,,0,0,1,,,,0,,63,61
7320,control_change,,,,,100,0,2,,64,0,1,,,
7320,set_tempo,,,,,30,1,0,526316,,,,,,
7350,control_change,,,,,30,0,2,,64,127,1,,,
7350,control_change,,,,,30,0,1,,64,127,0,,,
7432,note_off,,,,,0,0,2,,,,1,,30,63
7432,note_off,,,,,82,0,2,,,,1,,42,65
7439,note_on,,,,,7,0,2,,,,1,,31,52
7439,note_on,,,,,0,0,2,,,,1,,43,52
7440,control_change,,,,,90,0,1,,64,0,0,,,
7440,set_tempo,,,,,120,1,0,566038,,,,,,
7440,control_change,,,,,1,0,2,,64,0,1,,,
7470,control_change,,,,,30,0,1,,64,127,0,,,
7470,control_change,,,,,30,0,2,,64,127,1,,,
7544,note_off,,,,,74,0,1,,,,0,,60,63
7545,note_off,,,,,1,0,1,,,,0,,63,64
7559,note_on,,,,,14,0,1,,,,0,,58,58
7560,control_change,,,,,1,0,1,,64,0,0,,,
7560,set_tempo,,,,,120,1,0,517241,,,,,,
7560,control_change,,,,,90,0,2,,64,0,1,,,
7561,note_on,,,,,1,0,1,,,,0,,62,60
7590,control_change,,,,,30,0,2,,64,127,1,,,
7590,control_change,,,,,29,0,1,,64,127,0,,,
7663,note_off,,,,,73,0,2,,,,1,,43,65
7663,note_off,,,,,0,0,2,,,,1,,31,65
7670,note_off,,,,,0,0,1,,,,0,,58,60
7670,note_off,,,,,80,0,1,,,,0,,62,62
7679,note_on,,,,,0,0,1,,,,0,,60,59
7679,note_on,,,,,9,0,1,,,,0,,57,56
7680,set_tempo,,,,,120,1,0,535714,,,,,,
7680,control_change,,,,,0,0,2,,64,0,1,,,
7680,note_on,,,,,17,0,2,,,,1,,45,52
7680,control_change,,,,,1,0,1,,64,0,0,,,
7681,note_on,,,,,1,0,2,,,,1,,33,52
7720,control_change,,,,,40,0,1,,64,127,0,,,
7720,control_change,,,,,39,0,2,,64,127,1,,,
7788,note_off,,,,,68,0,1,,,,0,,57,60
7789,note_off,,,,,69,0,2,,,,1,,45,60
7790,note_off,,,,,2,0,1,,,,0,,60,61
7790,note_off,,,,,1,0,2,,,,1,,33,60
7799,note_on,,,,,9,0,2,,,,1,,34,48
7799,note_on,,,,,0,0,1,,,,0,,58,57
7799,note_on,,,,,9,0,1,,,,0,,55,53
7800,control_change,,,,,1,0,1,,64,0,0,,,
7800,note_on,,,,,1,0,2,,,,1,,46,50
7800,control_change,,,,,0,0,2,,64,0,1,,,
7800,set_tempo,,,,,120,1,0,545455,,,,,,
7840,control_change,,,,,40,0,1,,64,127,0,,,
7840,control_change,,,,,40,0,2,,64,127,1,,,
7909,note_off,,,,,69,0,1,,,,0,,58,62
7910,note_off,,,,,1,0,1,,,,0,,55,60
7910,note_off,,,,,70,0,2,,,,1,,46,61
7910,note_off,,,,,0,0,2,,,,1,,34,62
7919,note_on,,,,,9,0,2,,,,1,,47,48
7920,set_tempo,,,,,120,1,0,566038,,,,,,
7920,control_change,,,,,0,0,1,,64,0,0,,,
7920,note_on,,,,,10,0,1,,,,0,,57,56
7920,control_change,,,,,1,0,2,,64,0,1,,,
7920,note_on,,,,,0,0,2,,,,1,,35,48
7921,note_on,,,,,1,0,1,,,,0,,53,54
7960,control_change,,,,,40,0,2,,64,127,1,,,
7960,control_change,,,,,39,0,1,,64,127,0,,,
8028,note_off,,,,,68,0,2,,,,1,,47,61
8030,note_off,,,,,2,0,2,,,,1,,35,61
8039,note_on,,,,,9,0,2,,,,1,,48,49
8040,set_tempo,,,,,120,1,0,571429,,,,,,
8040,control_change,,,,,1,0,2,,64,0,1,,,
8040,control_change,,,,,80,0,1,,64,0,0,,,
8041,note_on,,,,,1,0,2,,,,1,,36,48
8080,control_change,,,,,39,0,2,,64,127,1,,,
8080,control_change,,,,,40,0,1,,64,127,0,,,
8150,note_off,,,,,70,0,1,,,,0,,53,64
8151,note_off,,,,,1,0,1,,,,0,,57,63
8159,note_on,,,,,8,0,1,,,,0,,52,50
8160,control_change,,,,,0,0,1,,64,0,0,,,
8160,note_on,,,,,1,0,1,,,,0,,55,54
8160,set_tempo,,,,,120,1,0,618557,,,,,,
8160,control_change,,,,,80,0,2,,64,0,1,,,
8200,control_change,,,,,40,0,2,,64,127,1,,,
8200,control_change,,,,,40,0,1,,64,127,0,,,
8264,note_off,,,,,64,0,2,,,,1,,48,63
8265,note_off,,,,,1,0,2,,,,1,,36,65
8268,note_off,,,,,68,0,1,,,,0,,52,61
8269,note_off,,,,,1,0,1,,,,0,,55,61
8279,note_on,,,,,10,0,1,,,,0,,55,48
8279,note_on,,,,,0,0,1,,,,0,,51,45
8279,note_on,,,,,14,0,2,,,,1,,36,55
8280,control_change,,,,,1,0,1,,64,0,0,,,
8280,control_change,,,,,1,0,2,,64,0,1,,,
8280,set_tempo,,,,,120,1,0,714286,,,,,,
8281,note_on,,,,,1,0,1,,,,0,,60,54
8320,control_change,,,,,39,0,1,,64,127,0,,,
8320,control_change,,,,,40,0,2,,64,127,1,,,
8389,note_off,,,,,69,0,2,,,,1,,36,60
8399,note_on,,,,,10,0,2,,,,1,,43,44
8400,control_change,,,,,80,0,1,,64,0,0,,,
8400,control_change,,,,,1,0,2,,64,0,1,,,
8400,set_tempo,,,,,120,1,0,895522,,,,,,
8440,control_change,,,,,40,0,1,,64,127,0,,,
8440,control_change,,,,,40,0,2,,64,127,1,,,
8508,note_off,,,,,68,0,1,,,,0,,51,63
8510,note_off,,,,,2,0,1,,,,0,,60,63
8519,note_on,,,,,9,0,1,,,,0,,50,45
8520,control_change,,,,,1,0,1,,64,0,0,,,
8520,control_change,,,,,80,0,2,,64,0,1,,,
8520,set_tempo,,,,,120,1,0,666667,,,,,,
8521,note_on,,,,,1,0,1,,,,0,,59,49
8560,control_change,,,,,39,0,1,,64,127,0,,,
8560,control_change,,,,,40,0,2,,64,127,1,,,
8618,note_off,,,,,58,0,1,,,,0,,55,65
8624,note_off,,,,,64,0,2,,,,1,,43,65
8628,note_off,,,,,10,0,1,,,,0,,50,60
8631,note_off,,,,,3,0,1,,,,0,,59,61
8710,control_change,,,,,86,0,2,,64,0,1,,,
8710,control_change,,,,,79,0,1,,64,0,0,,,
8760,set_tempo,,,,,240,1,0,1395349,,,,,,
9000,set_tempo,,,,,240,1,0,517241,,,,,,
9001,note_on,,,,,291,0,1,,,,0,,59,52
9080,note_off,,,,,79,0,1,,,,0,,59,60
9090,note_on,,,,,10,0,1,,,,0,,62,57
9090,set_tempo,,,,,90,1,0,606061,,,,,,
9116,note_off,,,,,26,0,1,,,,0,,62,58
9120,set_tempo,,,,,30,1,0,526316,,,,,,
9121,note_on,,,,,5,0,1,,,,0,,62,57
9230,note_off,,,,,109,0,1,,,,0,,62,61
9240,set_tempo,,,,,120,1,0,535714,,,,,,
9241,note_on,,,,,11,0,1,,,,0,,59,52
9272,note_off,,,,,31,0,1,,,,0,,59,57
9300,set_tempo,,,,,60,1,0,582524,,,,,,
9359,note_on,,,,,87,0,1,,,,0,,71,63
9359,note_on,,,,,0,0,1,,,,0,,62,55
9360,note_on,,,,,650,0,2,,,,1,,55,55
9360,set_tempo,,,,,60,1,0,517241,,,,,,
9361,note_on,,,,,1,0,2,,,,1,,43,49
9438,note_off,,,,,79,0,1,,,,0,,71,60
9442,note_off,,,,,81,0,2,,,,1,,43,61
9450,set_tempo,,,,,90,1,0,566038,,,,,,
9451,note_on,,,,,13,0,1,,,,0,,74,56
9451,note_on,,,,,9,0,2,,,,1,,47,53
9477,note_off,,,,,26,0,2,,,,1,,47,58
9477,note_off,,,,,26,0,1,,,,0,,74,57
9480,set_tempo,,,,,30,1,0,517241,,,,,,
9480,note_on,,,,,3,0,1,,,,0,,74,66
9481,note_on,,,,,4,0,2,,,,1,,47,57
9590,note_off,,,,,110,0,1,,,,0,,74,60
9591,note_off,,,,,110,0,2,,,,1,,47,60
9599,note_on,,,,,8,0,2,,,,1,,43,48
9600,set_tempo,,,,,120,1,0,535714,,,,,,
9601,note_on,,,,,11,0,1,,,,0,,71,56
9628,note_off,,,,,29,0,2,,,,1,,43,58
9632,note_off,,,,,31,0,1,,,,0,,71,57
9644,note_off,,,,,16,0,2,,,,1,,55,63
9649,note_off,,,,,17,0,1,,,,0,,62,63
9660,set_tempo,,,,,60,1,0,659341,,,,,,
9719,note_on,,,,,75,0,2,,,,1,,72,50
9720,set_tempo,,,,,60,1,0,517241,,,,,,
9720,control_change,,,,,1,0,2,,64,0,1,,,
9720,note_on,,,,,71,0,1,,,,0,,84,55
9720,control_change,,,,,0,0,1,,64,0,0,,,
9740,control_change,,,,,20,0,2,,64,127,1,,,
9740,control_change,,,,,20,0,1,,64,127,0,,,
9798,note_off,,,,,58,0,2,,,,1,,72,60
9801,note_off,,,,,61,0,1,,,,0,,84,61
9809,note_on,,,,,11,0,2,,,,1,,75,53
9810,set_tempo,,,,,90,1,0,535714,,,,,,
9811,note_on,,,,,10,0,1,,,,0,,87,57
9835,note_off,,,,,26,0,2,,,,1,,75,58
9836,note_off,,,,,25,0,1,,,,0,,87,58
9839,note_on,,,,,3,0,1,,,,0,,87,61
9840,note_on,,,,,5,0,2,,,,1,,75,54
9840,set_tempo,,,,,30,1,0,500000,,,,,,
9949,note_off,,,,,110,0,1,,,,0,,87,61
9951,note_off,,,,,111,0,2,,,,1,,75,60
9959,note_on,,,,,8,0,2,,,,1,,72,49
9960,note_on,,,,,11,0,1,,,,0,,84,57
9960,set_tempo,,,,,120,1,0,526316,,,,,,
9960,control_change,,,,,1,0,2,,64,0,1,,,
9960,control_change,,,,,0,0,1,,64,0,0,,,
9989,note_off,,,,,29,0,1,,,,0,,84,59
9990,note_off,,,,,30,0,2,,,,1,,72,57
10020,set_tempo,,,,,60,1,0,535714,,,,,,
10079,note_on,,,,,90,0,1,,,,0,,62,55
10079,note_on,,,,,89,0,2,,,,1,,43,56
10080,control_change,,,,,1,0,2,,64,0,1,,,
10080,note_on,,,,,0,0,2,,,,1,,55,62
10080,set_tempo,,,,,60,1,0,517241,,,,,,
10080,control_change,,,,,1,0,1,,64,0,0,,,
10081,note_on,,,,,1,0,1,,,,0,,71,56
10100,control_change,,,,,19,0,1,,64,127,0,,,
10100,control_change,,,,,20,0,2,,64,127,1,,,
10159,note_off,,,,,59,0,1,,,,0,,62,62
10161,note_off,,,,,2,0,1,,,,0,,71,60
10169,note_on,,,,,8,0,1,,,,0,,65,59
10170,set_tempo,,,,,90,1,0,535714,,,,,,
10170,note_on,,,,,1,0,1,,,,0,,74,60
10195,note_off,,,,,25,0,1,,,,0,,65,58
10196,note_off,,,,,1,0,1,,,,0,,74,57
10199,note_on,,,,,3,0,1,,,,0,,74,71
10200,set_tempo,,,,,30,1,0,500000,,,,,,
10200,control_change,,,,,100,0,2,,64,0,1,,,
10200,control_change,,,,,1,0,1,,64,0,0,,,
10201,note_on,,,,,1,0,1,,,,0,,65,67
10220,control_change,,,,,20,0,2,,64,127,1,,,
10220,control_change,,,,,19,0,1,,64,127,0,,,
10308,note_off,,,,,88,0,1,,,,0,,74,60
10312,note_off,,,,,4,0,1,,,,0,,65,62
10319,note_on,,,,,7,0,1,,,,0,,71,62
10320,note_on,,,,,1,0,1,,,,0,,62,59
10320,control_change,,,,,0,0,1,,64,0,0,,,
10320,set_tempo,,,,,120,1,0,555556,,,,,,
10320,control_change,,,,,100,0,2,,64,0,1,,,
10348,note_off,,,,,28,0,1,,,,0,,71,59
10351,note_off,,,,,3,0,1,,,,0,,62,57
10380,set_tempo,,,,,60,1,0,517241,,,,,,
10424,note_off,,,,,104,0,2,,,,1,,43,64
10426,note_off,,,,,2,0,2,,,,1,,55,64
10439,note_on,,,,,13,0,2,,,,1,,48,69
10439,note_on,,,,,88,0,1,,,,0,,71,72
10439,note_on,,,,,0,0,1,,,,0,,62,68
10440,note_on,,,,,0,0,2,,,,1,,36,67
10440,set_tempo,,,,,60,1,0,500000,,,,,,
10440,control_change,,,,,1,0,1,,64,0,0,,,
10440,control_change,,,,,1,0,2,,64,0,1,,,
10460,control_change,,,,,20,0,1,,64,127,0,,,
10460,control_change,,,,,20,0,2,,64,127,1,,,
10518,note_off,,,,,58,0,1,,,,0,,62,62
10518,note_off,,,,,0,0,1,,,,0,,71,61
10530,set_tempo,,,,,90,1,0,517241,,,,,,
10531,note_on,,,,,13,0,1,,,,0,,67,77
10531,note_on,,,,,0,0,1,,,,0,,75,78
10557,note_off,,,,,0,0,1,,,,0,,67,58
10557,note_off,,,,,26,0,1,,,,0,,75,57
10560,control_change,,,,,3,0,1,,64,0,0,,,
10560,control_change,,,,,100,0,2,,64,0,1,,,
10561,note_on,,,,,1,0,1,,,,0,,67,82
10561,note_on,,,,,0,0,1,,,,0,,75,84
10580,control_change,,,,,19,0,1,,64,127,0,,,
10580,control_change,,,,,20,0,2,,64,127,1,,,
10670,note_off,,,,,90,0,1,,,,0,,75,61
10671,note_off,,,,,1,0,1,,,,0,,67,61
10680,note_on,,,,,9,0,1,,,,0,,72,74
10680,set_tempo,,,,,150,1,0,500000,,,,,,
10680,control_change,,,,,0,0,1,,64,0,0,,,
10680,control_change,,,,,100,0,2,,64,0,1,,,
10681,note_on,,,,,1,0,1,,,,0,,63,74
10709,note_off,,,,,28,0,1,,,,0,,72,59
10712,note_off,,,,,3,0,1,,,,0,,63,58
10740,set_tempo,,,,,60,1,0,535714,,,,,,
10784,note_off,,,,,0,0,2,,,,1,,48,64
10784,note_off,,,,,104,0,2,,,,1,,36,65
10799,note_on,,,,,15,0,2,,,,1,,41,81
10800,control_change,,,,,0,0,1,,64,0,0,,,
10800,note_on,,,,,88,0,1,,,,0,,69,85
10800,control_change,,,,,1,0,2,,64,0,1,,,
10801,note_on,,,,,1,0,2,,,,1,,29,78
10801,note_on,,,,,1,0,1,,,,0,,72,86
10820,control_change,,,,,19,0,2,,64,127,1,,,
10820,control_change,,,,,19,0,1,,64,127,0,,,
10879,note_off,,,,,59,0,1,,,,0,,69,61
10881,note_off,,,,,2,0,1,,,,0,,72,61
10890,set_tempo,,,,,150,1,0,495868,,,,,,
10891,note_on,,,,,0,0,1,,,,0,,81,90
10891,note_on,,,,,10,0,1,,,,0,,72,86
10916,note_off,,,,,25,0,1,,,,0,,81,58
10916,note_off,,,,,0,0,1,,,,0,,72,57
10920,set_tempo,,,,,30,1,0,487805,,,,,,
10920,control_change,,,,,100,0,2,,64,0,1,,,
10920,control_change,,,,,4,0,1,,64,0,0,,,
10921,note_on,,,,,1,0,1,,,,0,,72,94
10921,note_on,,,,,0,0,1,,,,0,,81,98
10940,control_change,,,,,20,0,2,,64,127,1,,,
10940,control_change,,,,,19,0,1,,64,127,0,,,
11028,note_off,,,,,88,0,2,,,,1,,41,63
11030,note_off,,,,,90,0,1,,,,0,,72,62
11032,note_off,,,,,4,0,2,,,,1,,29,65
11032,note_off,,,,,2,0,1,,,,0,,81,62
11039,note_on,,,,,7,0,2,,,,1,,41,101
11039,note_on,,,,,0,0,2,,,,1,,53,103
11039,note_on,,,,,7,0,1,,,,0,,77,93
11040,note_on,,,,,1,0,1,,,,0,,69,90
11040,control_change,,,,,1,0,2,,64,0,1,,,
11040,control_change,,,,,0,0,1,,64,0,0,,,
11040,set_tempo,,,,,120,1,0,566038,,,,,,
11068,note_off,,,,,28,0,2,,,,1,,41,57
11069,note_off,,,,,1,0,2,,,,1,,53,59
11070,note_off,,,,,30,0,1,,,,0,,77,57
11071,note_off,,,,,1,0,1,,,,0,,69,59
11100,set_tempo,,,,,60,1,0,500000,,,,,,
11160,note_on,,,,,89,0,1,,,,0,,82,106
11160,control_change,,,,,0,0,1,,64,0,0,,,
11160,note_on,,,,,0,0,2,,,,1,,46,105
11160,control_change,,,,,0,0,2,,64,0,1,,,
11160,note_on,,,,,91,0,2,,,,1,,34,103
11161,note_on,,,,,1,0,1,,,,0,,70,106
11180,control_change,,,,,19,0,1,,64,127,0,,,
11180,control_change,,,,,20,0,2,,64,127,1,,,
11209,note_off,,,,,29,0,2,,,,1,,46,57
11211,note_off,,,,,31,0,1,,,,0,,82,58
11211,note_off,,,,,2,0,2,,,,1,,34,57
11212,note_off,,,,,1,0,1,,,,0,,70,57
11220,set_tempo,,,,,120,1,0,645161,,,,,,
11220,control_change,,,,,8,0,1,,64,0,0,,,
11220,control_change,,,,,9,0,2,,64,0,1,,,
11280,note_on,,,,,0,0,1,,,,0,,82,114
11280,control_change,,,,,0,0,1,,64,0,0,,,
11280,note_on,,,,,60,0,1,,,,0,,70,112
11280,control_change,,,,,60,0,2,,64,0,1,,,
11281,note_on,,,,,0,0,2,,,,1,,46,113
11281,note_on,,,,,1,0,2,,,,1,,34,112
11300,control_change,,,,,20,0,1,,64,127,0,,,
11300,control_change,,,,,19,0,2,,64,127,1,,,
11329,note_off,,,,,29,0,1,,,,0,,70,59
11330,note_off,,,,,1,0,1,,,,0,,82,59
11332,note_off,,,,,0,0,2,,,,1,,34,59
11332,note_off,,,,,32,0,2,,,,1,,46,59
11340,control_change,,,,,10,0,1,,64,0,0,,,
11340,control_change,,,,,8,0,2,,64,0,1,,,
11340,set_tempo,,,,,120,1,0,714286,,,,,,
11520,note_on,,,,,180,0,2,,,,1,,65,66
11520,note_on,,,,,0,0,2,,,,1,,77,68
11520,marker,,,,,0,1,0,,,,,,,
11520,set_tempo,,,,,180,1,0,517241,,,,,,
11520,note_on,,,,,180,0,1,,,,0,,86,59
11520,control_change,,,,,0,0,1,,64,0,0,,,
11520,control_change,,,,,0,0,2,,64,0,1,,,
11521,note_on,,,,,1,0,1,,,,0,,83,56
11540,control_change,,,,,20,0,2,,64,127,1,,,
11540,control_change,,,,,19,0,1,,64,127,0,,,
11599,note_off,,,,,59,0,1,,,,0,,86,61
11600,note_off,,,,,1,0,1,,,,0,,83,60
11609,note_on,,,,,9,0,1,,,,0,,86,50
11610,set_tempo,,,,,90,1,0,535714,,,,,,
11610,note_on,,,,,1,0,1,,,,0,,89,50
11634,note_off,,,,,24,0,1,,,,0,,89,59
11634,note_off,,,,,0,0,1,,,,0,,86,57
11640,control_change,,,,,100,0,2,,64,0,1,,,
11640,set_tempo,,,,,30,1,0,517241,,,,,,
11640,note_on,,,,,6,0,1,,,,0,,89,65
11640,control_change,,,,,0,0,1,,64,0,0,,,
11641,note_on,,,,,1,0,1,,,,0,,86,62
11660,control_change,,,,,19,0,1,,64,127,0,,,
11660,control_change,,,,,20,0,2,,64,127,1,,,
11750,note_off,,,,,90,0,1,,,,0,,89,60
11751,note_off,,,,,1,0,1,,,,0,,86,62
11759,note_on,,,,,8,0,1,,,,0,,83,52
11760,control_change,,,,,1,0,1,,64,0,0,,,
11760,control_change,,,,,100,0,2,,64,0,1,,,
11760,set_tempo,,,,,120,1,0,508475,,,,,,
11761,note_on,,,,,1,0,1,,,,0,,86,53
11789,note_off,,,,,28,0,1,,,,0,,83,59
11790,note_off,,,,,1,0,1,,,,0,,86,59
11820,set_tempo,,,,,60,1,0,517241,,,,,,
11865,note_off,,,,,105,0,2,,,,1,,65,63
11866,note_off,,,,,1,0,2,,,,1,,77,64
11879,note_on,,,,,89,0,1,,,,0,,86,62
11879,note_on,,,,,13,0,2,,,,1,,65,62
11879,note_on,,,,,0,0,1,,,,0,,83,60
11880,control_change,,,,,1,0,1,,64,0,0,,,
11880,control_change,,,,,1,0,2,,64,0,1,,,
11881,note_on,,,,,1,0,2,,,,1,,53,60
11900,control_change,,,,,20,0,1,,64,127,0,,,
11900,control_change,,,,,19,0,2,,64,127,1,,,
11958,note_off,,,,,58,0,1,,,,0,,83,60
11959,note_off,,,,,1,0,1,,,,0,,86,60
11969,note_on,,,,,10,0,1,,,,0,,87,51
11970,set_tempo,,,,,150,1,0,535714,,,,,,
11971,note_on,,,,,2,0,1,,,,0,,91,52
11994,note_off,,,,,23,0,1,,,,0,,87,57
11995,note_off,,,,,1,0,1,,,,0,,91,57
12000,control_change,,,,,100,0,2,,64,0,1,,,
12000,set_tempo,,,,,30,1,0,508475,,,,,,
12000,note_on,,,,,0,0,1,,,,0,,91,64
12000,control_change,,,,,0,0,1,,64,0,0,,,
12000,note_on,,,,,5,0,1,,,,0,,87,62
12020,control_change,,,,,20,0,2,,64,127,1,,,
12020,control_change,,,,,20,0,1,,64,127,0,,,
12109,note_off,,,,,89,0,1,,,,0,,91,60
12111,note_off,,,,,2,0,1,,,,0,,87,60
12119,note_on,,,,,8,0,1,,,,0,,87,56
12120,control_change,,,,,100,0,2,,64,0,1,,,
12120,control_change,,,,,1,0,1,,64,0,0,,,
12120,set_tempo,,,,,120,1,0,517241,,,,,,
12121,note_on,,,,,1,0,1,,,,0,,84,55
12148,note_off,,,,,27,0,1,,,,0,,87,58
12150,note_off,,,,,2,0,1,,,,0,,84,58
12180,set_tempo,,,,,60,1,0,582524,,,,,,
12224,note_off,,,,,104,0,2,,,,1,,65,64
12226,note_off,,,,,2,0,2,,,,1,,53,65
12240,control_change,,,,,0,0,1,,64,0,0,,,
12240,note_on,,,,,90,0,1,,,,0,,84,60
12240,note_on,,,,,14,0,2,,,,1,,53,56
12240,control_change,,,,,0,0,2,,64,0,1,,,
12240,note_on,,,,,0,0,2,,,,1,,65,57
12240,set_tempo,,,,,60,1,0,500000,,,,,,
12241,note_on,,,,,1,0,1,,,,0,,81,60
12260,control_change,,,,,19,0,1,,64,127,0,,,
12260,control_change,,,,,20,0,2,,64,127,1,,,
12320,note_off,,,,,60,0,1,,,,0,,81,60
12320,note_off,,,,,0,0,1,,,,0,,84,60
12330,note_on,,,,,10,0,1,,,,0,,87,53
12330,set_tempo,,,,,90,1,0,535714,,,,,,
12331,note_on,,,,,1,0,1,,,,0,,84,53
12354,note_off,,,,,23,0,1,,,,0,,87,59
12355,note_off,,,,,1,0,1,,,,0,,84,58
12360,control_change,,,,,100,0,2,,64,0,1,,,
12360,set_tempo,,,,,30,1,0,526316,,,,,,
12360,note_on,,,,,5,0,1,,,,0,,84,65
12360,control_change,,,,,0,0,1,,64,0,0,,,
12361,note_on,,,,,1,0,1,,,,0,,87,67
12380,control_change,,,,,20,0,2,,64,127,1,,,
12380,control_change,,,,,19,0,1,,64,127,0,,,
12470,note_off,,,,,0,0,1,,,,0,,84,62
12470,note_off,,,,,90,0,1,,,,0,,87,62
12480,control_change,,,,,100,0,2,,64,0,1,,,
12480,note_on,,,,,0,0,1,,,,0,,84,60
12480,note_on,,,,,10,0,1,,,,0,,81,55
12480,set_tempo,,,,,120,1,0,517241,,,,,,
12480,control_change,,,,,0,0,1,,64,0,0,,,
12510,note_off,,,,,0,0,1,,,,0,,81,59
12510,note_off,,,,,30,0,1,,,,0,,84,58
12540,set_tempo,,,,,60,1,0,566038,,,,,,
12585,note_off,,,,,105,0,2,,,,1,,53,63
12586,note_off,,,,,1,0,2,,,,1,,65,64
12599,note_on,,,,,89,0,1,,,,0,,84,61
12600,set_tempo,,,,,60,1,0,526316,,,,,,
12600,control_change,,,,,1,0,1,,64,0,0,,,
12600,note_on,,,,,0,0,2,,,,1,,53,55
12600,control_change,,,,,0,0,2,,64,0,1,,,
12600,note_on,,,,,14,0,2,,,,1,,41,53
12601,note_on,,,,,1,0,1,,,,0,,81,59
12620,control_change,,,,,19,0,1,,64,127,0,,,
12620,control_change,,,,,20,0,2,,64,127,1,,,
12680,note_off,,,,,60,0,1,,,,0,,84,62
12681,note_off,,,,,1,0,1,,,,0,,81,61
12690,note_on,,,,,9,0,1,,,,0,,85,47
12690,set_tempo,,,,,90,1,0,606061,,,,,,
12691,note_on,,,,,1,0,1,,,,0,,89,52
12714,note_off,,,,,23,0,1,,,,0,,85,58
12716,note_off,,,,,2,0,1,,,,0,,89,59
12719,note_on,,,,,3,0,1,,,,0,,89,65
12720,note_on,,,,,1,0,1,,,,0,,86,58
12720,control_change,,,,,0,0,1,,64,0,0,,,
12720,set_tempo,,,,,30,1,0,594059,,,,,,
12720,control_change,,,,,100,0,2,,64,0,1,,,
12740,control_change,,,,,20,0,1,,64,127,0,,,
12740,control_change,,,,,20,0,2,,64,127,1,,,
12829,note_off,,,,,89,0,1,,,,0,,86,62
12829,note_off,,,,,0,0,1,,,,0,,89,62
12840,control_change,,,,,0,0,1,,64,0,0,,,
12840,control_change,,,,,100,0,2,,64,0,1,,,
12840,note_on,,,,,11,0,1,,,,0,,86,58
12840,set_tempo,,,,,120,1,0,631579,,,,,,
12841,note_on,,,,,1,0,1,,,,0,,82,53
12870,note_off,,,,,29,0,1,,,,0,,86,58
12872,note_off,,,,,2,0,1,,,,0,,82,57
12900,set_tempo,,,,,60,1,0,731707,,,,,,
12944,note_off,,,,,104,0,2,,,,1,,53,63
12945,note_off,,,,,1,0,2,,,,1,,41,64
12960,set_tempo,,,,,60,1,0,566038,,,,,,
12960,note_on,,,,,88,0,1,,,,0,,69,54
12960,control_change,,,,,0,0,1,,64,0,0,,,
12960,note_on,,,,,15,0,2,,,,1,,54,53
12960,control_change,,,,,0,0,2,,64,0,1,,,
12961,note_on,,,,,1,0,1,,,,0,,72,61
12961,note_on,,,,,1,0,2,,,,1,,42,50
12980,control_change,,,,,19,0,1,,64,127,0,,,
12980,control_change,,,,,19,0,2,,64,127,1,,,
13041,note_off,,,,,0,0,1,,,,0,,69,62
13041,note_off,,,,,61,0,1,,,,0,,72,60
13049,note_on,,,,,8,0,1,,,,0,,72,54
13050,set_tempo,,,,,90,1,0,535714,,,,,,
13051,note_on,,,,,2,0,1,,,,0,,75,56
13075,note_off,,,,,24,0,1,,,,0,,72,59
13077,note_off,,,,,2,0,1,,,,0,,75,57
13079,note_on,,,,,2,0,1,,,,0,,72,62
13080,set_tempo,,,,,30,1,0,526316,,,,,,
13080,control_change,,,,,100,0,2,,64,0,1,,,
13080,control_change,,,,,0,0,1,,64,0,0,,,
13080,note_on,,,,,1,0,1,,,,0,,75,65
13120,control_change,,,,,40,0,1,,64,127,0,,,
13120,control_change,,,,,40,0,2,,64,127,1,,,
13180,note_off,,,,,60,0,2,,,,1,,54,65
13181,note_off,,,,,1,0,2,,,,1,,42,65
13199,note_on,,,,,18,0,2,,,,1,,60,56
13200,control_change,,,,,80,0,1,,64,0,0,,,
13200,note_on,,,,,0,0,2,,,,1,,63,59
13200,control_change,,,,,0,0,2,,64,0,1,,,
13200,note_on,,,,,1,0,2,,,,1,,54,54
13200,set_tempo,,,,,120,1,0,545455,,,,,,
13240,control_change,,,,,40,0,2,,64,127,1,,,
13240,control_change,,,,,40,0,1,,64,127,0,,,
13299,note_off,,,,,59,0,2,,,,1,,60,61
13300,note_off,,,,,1,0,2,,,,1,,63,62
13300,note_off,,,,,0,0,2,,,,1,,54,60
13303,note_off,,,,,63,0,1,,,,0,,72,65
13304,note_off,,,,,1,0,1,,,,0,,75,64
13319,note_on,,,,,19,0,2,,,,1,,55,54
13320,control_change,,,,,1,0,2,,64,0,1,,,
13320,note_on,,,,,0,0,2,,,,1,,62,56
13320,control_change,,,,,0,0,1,,64,0,0,,,
13320,note_on,,,,,0,0,2,,,,1,,58,55
13320,note_on,,,,,16,0,1,,,,0,,74,62
13320,set_tempo,,,,,120,1,0,517241,,,,,,
13321,note_on,,,,,1,0,1,,,,0,,70,59
13360,control_change,,,,,39,0,1,,64,127,0,,,
13360,control_change,,,,,40,0,2,,64,127,1,,,
13419,note_off,,,,,0,0,2,,,,1,,55,62
13419,note_off,,,,,59,0,2,,,,1,,58,60
13421,note_off,,,,,2,0,2,,,,1,,62,60
13430,note_off,,,,,0,0,1,,,,0,,74,61
13430,note_off,,,,,70,0,1,,,,0,,70,61
13439,note_on,,,,,9,0,1,,,,0,,69,60
13440,control_change,,,,,0,0,1,,64,0,0,,,
13440,note_on,,,,,1,0,1,,,,0,,72,61
13440,set_tempo,,,,,120,1,0,535714,,,,,,
13440,note_on,,,,,19,0,2,,,,1,,57,52
13440,control_change,,,,,0,0,2,,64,0,1,,,
13440,note_on,,,,,0,0,2,,,,1,,60,56
13480,control_change,,,,,40,0,1,,64,127,0,,,
13480,control_change,,,,,40,0,2,,64,127,1,,,
13539,note_off,,,,,59,0,2,,,,1,,57,60
13540,note_off,,,,,1,0,2,,,,1,,60,62
13550,note_off,,,,,70,0,1,,,,0,,69,62
13551,note_off,,,,,1,0,1,,,,0,,72,60
13559,note_on,,,,,0,0,2,,,,1,,58,55
13559,note_on,,,,,19,0,2,,,,1,,46,49
13559,note_on,,,,,8,0,1,,,,0,,67,55
13559,note_on,,,,,0,0,1,,,,0,,70,59
13560,control_change,,,,,1,0,1,,64,0,0,,,
13560,set_tempo,,,,,120,1,0,545455,,,,,,
13560,control_change,,,,,1,0,2,,64,0,1,,,
13561,note_on,,,,,1,0,2,,,,1,,55,53
13600,control_change,,,,,39,0,2,,64,127,1,,,
13600,control_change,,,,,40,0,1,,64,127,0,,,
13659,note_off,,,,,59,0,2,,,,1,,46,61
13660,note_off,,,,,1,0,2,,,,1,,58,61
13661,note_off,,,,,1,0,2,,,,1,,55,62
13668,note_off,,,,,68,0,1,,,,0,,70,61
13669,note_off,,,,,1,0,1,,,,0,,67,62
13679,note_on,,,,,10,0,1,,,,0,,65,55
13680,control_change,,,,,1,0,1,,64,0,0,,,
13680,set_tempo,,,,,120,1,0,566038,,,,,,
13680,note_on,,,,,19,0,2,,,,1,,57,56
13680,control_change,,,,,0,0,2,,64,0,1,,,
13681,note_on,,,,,1,0,2,,,,1,,47,50
13681,note_on,,,,,0,0,2,,,,1,,53,52
13681,note_on,,,,,1,0,1,,,,0,,69,55
13720,control_change,,,,,39,0,2,,64,127,1,,,
13720,control_change,,,,,39,0,1,,64,127,0,,,
13782,note_off,,,,,62,0,2,,,,1,,47,61
13800,set_tempo,,,,,120,1,0,594059,,,,,,
13800,control_change,,,,,18,0,2,,64,0,1,,,
13800,control_change,,,,,80,0,1,,64,0,0,,,
13801,note_on,,,,,1,0,2,,,,1,,48,51
13840,control_change,,,,,39,0,2,,64,127,1,,,
13840,control_change,,,,,40,0,1,,64,127,0,,,
13900,note_off,,,,,60,0,2,,,,1,,53,64
13901,note_off,,,,,1,0,2,,,,1,,57,65
13910,note_off,,,,,0,0,1,,,,0,,65,64
13910,note_off,,,,,70,0,1,,,,0,,69,64
13919,note_on,,,,,18,0,2,,,,1,,52,48
13919,note_on,,,,,9,0,1,,,,0,,64,50
13920,set_tempo,,,,,120,1,0,659341,,,,,,
13920,control_change,,,,,1,0,2,,64,0,1,,,
13920,control_change,,,,,1,0,1,,64,0,0,,,
13921,note_on,,,,,1,0,1,,,,0,,67,51
13921,note_on,,,,,1,0,2,,,,1,,55,51
13960,control_change,,,,,39,0,2,,64,127,1,,,
13960,control_change,,,,,39,0,1,,64,127,0,,,
14020,note_off,,,,,0,0,2,,,,1,,52,60
14020,note_off,,,,,60,0,2,,,,1,,55,62
14022,note_off,,,,,2,0,2,,,,1,,48,64
14030,note_off,,,,,70,0,1,,,,0,,64,61
14031,note_off,,,,,1,0,1,,,,0,,67,60
14039,note_on,,,,,17,0,2,,,,1,,51,49
14040,set_tempo,,,,,120,1,0,681818,,,,,,
14040,control_change,,,,,1,0,2,,64,0,1,,,
14040,note_on,,,,,9,0,1,,,,0,,72,54
14040,note_on,,,,,0,0,2,,,,1,,55,54
14040,control_change,,,,,0,0,1,,64,0,0,,,
14041,note_on,,,,,0,0,1,,,,0,,67,51
14041,note_on,,,,,1,0,1,,,,0,,63,49
14041,note_on,,,,,1,0,2,,,,1,,60,55
14060,control_change,,,,,19,0,1,,64,127,0,,,
14060,control_change,,,,,19,0,2,,64,127,1,,,
14139,note_off,,,,,79,0,2,,,,1,,55,60
14140,note_off,,,,,1,0,2,,,,1,,51,62
14160,control_change,,,,,100,0,1,,64,0,0,,,
14160,set_tempo,,,,,120,1,0,800000,,,,,,
14160,note_on,,,,,20,0,2,,,,1,,55,48
14160,control_change,,,,,0,0,2,,64,0,1,,,
14200,control_change,,,,,40,0,2,,64,127,1,,,
14200,control_change,,,,,40,0,1,,64,127,0,,,
14262,note_off,,,,,62,0,2,,,,1,,60,64
14270,note_off,,,,,70,0,1,,,,0,,63,63
14270,note_off,,,,,0,0,1,,,,0,,72,63
14279,note_on,,,,,9,0,1,,,,0,,71,47
14280,control_change,,,,,18,0,2,,64,0,1,,,
14280,note_on,,,,,1,0,1,,,,0,,62,44
14280,set_tempo,,,,,120,1,0,923077,,,,,,
14280,control_change,,,,,0,0,1,,64,0,0,,,
14281,note_on,,,,,1,0,2,,,,1,,59,44
14320,control_change,,,,,40,0,1,,64,127,0,,,
14320,control_change,,,,,39,0,2,,64,127,1,,,
14375,note_off,,,,,55,0,1,,,,0,,67,63
14376,note_off,,,,,56,0,2,,,,1,,55,65
14380,note_off,,,,,4,0,2,,,,1,,59,62
14389,note_off,,,,,14,0,1,,,,0,,62,61
14389,note_off,,,,,0,0,1,,,,0,,71,62
14400,set_tempo,,,,,120,1,0,1153846,,,,,,
14440,control_change,,,,,60,0,2,,64,0,1,,,
14440,control_change,,,,,51,0,1,,64,0,0,,,
14759,note_on,,,,,319,0,1,,,,0,,71,48
14760,set_tempo,,,,,360,1,0,535714,,,,,,
14838,note_off,,,,,79,0,1,,,,0,,71,60
14850,set_tempo,,,,,90,1,0,582524,,,,,,
14851,note_on,,,,,13,0,1,,,,0,,74,54
14876,note_off,,,,,25,0,1,,,,0,,74,57
14880,set_tempo,,,,,30,1,0,517241,,,,,,
14881,note_on,,,,,5,0,1,,,,0,,74,58
14992,note_off,,,,,111,0,1,,,,0,,74,62
15000,set_tempo,,,,,120,1,0,508475,,,,,,
15001,note_on,,,,,9,0,1,,,,0,,71,50
15031,note_off,,,,,30,0,1,,,,0,,71,58
15060,set_tempo,,,,,60,1,0,618557,,,,,,
15119,note_on,,,,,679,0,2,,,,1,,55,50
15119,note_on,,,,,88,0,1,,,,0,,74,47
15120,note_on,,,,,1,0,2,,,,1,,67,53
15120,set_tempo,,,,,60,1,0,535714,,,,,,
15121,note_on,,,,,2,0,1,,,,0,,83,51
15198,note_off,,,,,78,0,2,,,,1,,55,61
15201,note_off,,,,,80,0,1,,,,0,,83,60
15209,note_on,,,,,8,0,1,,,,0,,86,54
15210,set_tempo,,,,,90,1,0,555556,,,,,,
15211,note_on,,,,,13,0,2,,,,1,,59,55
15233,note_off,,,,,24,0,1,,,,0,,86,58
15235,note_off,,,,,24,0,2,,,,1,,59,59
15239,note_on,,,,,4,0,2,,,,1,,59,61
15240,set_tempo,,,,,30,1,0,508475,,,,,,
15241,note_on,,,,,8,0,1,,,,0,,86,61
15349,note_off,,,,,110,0,2,,,,1,,59,61
15352,note_off,,,,,111,0,1,,,,0,,86,60
15360,note_on,,,,,8,0,1,,,,0,,83,49
15360,set_tempo,,,,,120,1,0,535714,,,,,,
15361,note_on,,,,,12,0,2,,,,1,,55,57
15388,note_off,,,,,28,0,1,,,,0,,74,64
15390,note_off,,,,,29,0,2,,,,1,,55,58
15391,note_off,,,,,3,0,1,,,,0,,83,59
15409,note_off,,,,,19,0,2,,,,1,,67,63
15420,set_tempo,,,,,60,1,0,659341,,,,,,
15479,note_on,,,,,88,0,1,,,,0,,72,50
15479,note_on,,,,,70,0,2,,,,1,,60,49
15480,set_tempo,,,,,60,1,0,508475,,,,,,
15480,control_change,,,,,1,0,2,,64,0,1,,,
15480,control_change,,,,,1,0,1,,64,0,0,,,
15520,control_change,,,,,40,0,2,,64,127,1,,,
15520,control_change,,,,,40,0,1,,64,127,0,,,
15558,note_off,,,,,38,0,2,,,,1,,60,61
15558,note_off,,,,,38,0,1,,,,0,,72,60
15570,set_tempo,,,,,90,1,0,545455,,,,,,
15570,note_on,,,,,12,0,1,,,,0,,75,54
15571,note_on,,,,,13,0,2,,,,1,,63,51
15595,note_off,,,,,25,0,1,,,,0,,75,58
15597,note_off,,,,,26,0,2,,,,1,,63,57
15600,set_tempo,,,,,30,1,0,500000,,,,,,
15600,note_on,,,,,3,0,2,,,,1,,63,52
15600,note_on,,,,,5,0,1,,,,0,,75,57
15709,note_off,,,,,109,0,2,,,,1,,63,61
15711,note_off,,,,,111,0,1,,,,0,,75,60
15719,note_on,,,,,10,0,2,,,,1,,60,48
15720,set_tempo,,,,,120,1,0,526316,,,,,,
15720,control_change,,,,,0,0,1,,64,0,0,,,
15720,control_change,,,,,1,0,2,,64,0,1,,,
15720,note_on,,,,,9,0,1,,,,0,,72,50
15748,note_off,,,,,28,0,2,,,,1,,60,59
15751,note_off,,,,,31,0,1,,,,0,,72,57
15780,set_tempo,,,,,60,1,0,545455,,,,,,
15839,note_on,,,,,0,0,2,,,,1,,55,62
15839,note_on,,,,,91,0,2,,,,1,,67,63
15839,note_on,,,,,88,0,1,,,,0,,83,60
15839,note_on,,,,,0,0,1,,,,0,,74,58
15840,control_change,,,,,1,0,2,,64,0,1,,,
15840,set_tempo,,,,,60,1,0,500000,,,,,,
15840,control_change,,,,,1,0,1,,64,0,0,,,
15860,control_change,,,,,20,0,1,,64,127,0,,,
15860,control_change,,,,,20,0,2,,64,127,1,,,
15918,note_off,,,,,58,0,1,,,,0,,83,61
15919,note_off,,,,,1,0,1,,,,0,,74,62
15930,note_on,,,,,11,0,1,,,,0,,77,62
15930,note_on,,,,,0,0,1,,,,0,,86,65
15930,set_tempo,,,,,90,1,0,535714,,,,,,
15954,note_off,,,,,24,0,1,,,,0,,77,59
15955,note_off,,,,,1,0,1,,,,0,,86,59
15960,set_tempo,,,,,30,1,0,500000,,,,,,
15960,control_change,,,,,100,0,2,,64,0,1,,,
15960,note_on,,,,,5,0,1,,,,0,,86,68
15960,control_change,,,,,0,0,1,,64,0,0,,,
15961,note_on,,,,,1,0,1,,,,0,,77,68
15980,control_change,,,,,20,0,2,,64,127,1,,,
15980,control_change,,,,,19,0,1,,64,127,0,,,
16070,note_off,,,,,0,0,1,,,,0,,86,60
16070,note_off,,,,,90,0,1,,,,0,,77,60
16080,set_tempo,,,,,120,1,0,508475,,,,,,
16080,control_change,,,,,0,0,1,,64,0,0,,,
16080,control_change,,,,,100,0,2,,64,0,1,,,
16080,note_on,,,,,10,0,1,,,,0,,83,61
16081,note_on,,,,,1,0,1,,,,0,,74,58
16109,note_off,,,,,28,0,1,,,,0,,83,57
16112,note_off,,,,,3,0,1,,,,0,,74,59
16140,set_tempo,,,,,60,1,0,535714,,,,,,
16183,note_off,,,,,103,0,2,,,,1,,55,65
16184,note_off,,,,,1,0,2,,,,1,,67,64
16200,control_change,,,,,0,0,1,,64,0,0,,,
16200,set_tempo,,,,,60,1,0,500000,,,,,,
16200,note_on,,,,,88,0,1,,,,0,,83,72
16200,control_change,,,,,16,0,2,,64,0,1,,,
16201,note_on,,,,,0,0,2,,,,1,,60,75
16201,note_on,,,,,1,0,2,,,,1,,48,72
16201,note_on,,,,,1,0,1,,,,0,,74,68
16220,control_change,,,,,19,0,2,,64,127,1,,,
16220,control_change,,,,,19,0,1,,64,127,0,,,
16281,note_off,,,,,0,0,1,,,,0,,83,60
16281,note_off,,,,,61,0,1,,,,0,,74,61
16289,note_on,,,,,8,0,1,,,,0,,79,76
16290,note_on,,,,,1,0,1,,,,0,,87,77
16290,set_tempo,,,,,90,1,0,535714,,,,,,
16315,note_off,,,,,25,0,1,,,,0,,87,57
16315,note_off,,,,,0,0,1,,,,0,,79,58
16319,note_on,,,,,4,0,1,,,,0,,79,79
16319,note_on,,,,,0,0,1,,,,0,,87,81
16320,control_change,,,,,1,0,1,,64,0,0,,,
16320,set_tempo,,,,,30,1,0,500000,,,,,,
16320,control_change,,,,,100,0,2,,64,0,1,,,
16340,control_change,,,,,20,0,2,,64,127,1,,,
16340,control_change,,,,,20,0,1,,64,127,0,,,
16429,note_off,,,,,0,0,1,,,,0,,79,62
16429,note_off,,,,,89,0,1,,,,0,,87,61
16439,note_on,,,,,10,0,1,,,,0,,84,74
16440,note_on,,,,,1,0,1,,,,0,,75,70
16440,control_change,,,,,0,0,1,,64,0,0,,,
16440,set_tempo,,,,,120,1,0,517241,,,,,,
16440,control_change,,,,,100,0,2,,64,0,1,,,
16469,note_off,,,,,29,0,1,,,,0,,75,57
16470,note_off,,,,,1,0,1,,,,0,,84,58
16545,note_off,,,,,105,0,2,,,,1,,48,65
16546,note_off,,,,,1,0,2,,,,1,,60,63
16560,note_on,,,,,90,0,1,,,,0,,81,81
16560,note_on,,,,,0,0,1,,,,0,,84,83
16560,set_tempo,,,,,120,1,0,487805,,,,,,
16560,control_change,,,,,14,0,2,,64,0,1,,,
16560,control_change,,,,,0,0,1,,64,0,0,,,
16561,note_on,,,,,0,0,2,,,,1,,53,96
16561,note_on,,,,,1,0,2,,,,1,,41,94
16580,control_change,,,,,19,0,2,,64,127,1,,,
16580,control_change,,,,,20,0,1,,64,127,0,,,
16641,note_off,,,,,61,0,1,,,,0,,84,60
16641,note_off,,,,,0,0,1,,,,0,,81,61
16649,note_on,,,,,8,0,1,,,,0,,93,90
16650,set_tempo,,,,,90,1,0,526316,,,,,,
16650,note_on,,,,,1,0,1,,,,0,,84,85
16674,note_off,,,,,24,0,1,,,,0,,93,58
16676,note_off,,,,,2,0,1,,,,0,,84,59
16680,note_on,,,,,0,0,1,,,,0,,93,95
16680,note_on,,,,,4,0,1,,,,0,,84,93
16680,control_change,,,,,100,0,2,,64,0,1,,,
16680,set_tempo,,,,,30,1,0,487805,,,,,,
16680,control_change,,,,,0,0,1,,64,0,0,,,
16700,control_change,,,,,20,0,1,,64,127,0,,,
16700,control_change,,,,,20,0,2,,64,127,1,,,
16790,note_off,,,,,90,0,1,,,,0,,93,62
16791,note_off,,,,,1,0,1,,,,0,,84,62
16799,note_on,,,,,8,0,1,,,,0,,89,102
16800,set_tempo,,,,,120,1,0,517241,,,,,,
16800,control_change,,,,,1,0,1,,64,0,0,,,
16800,control_change,,,,,100,0,2,,64,0,1,,,
16801,note_on,,,,,1,0,1,,,,0,,81,98
16829,note_off,,,,,28,0,1,,,,0,,89,57
16830,note_off,,,,,1,0,1,,,,0,,81,58
16860,set_tempo,,,,,60,1,0,500000,,,,,,
16905,note_off,,,,,105,0,2,,,,1,,53,63
16907,note_off,,,,,2,0,2,,,,1,,41,65
16919,note_on,,,,,12,0,2,,,,1,,34,102
16919,note_on,,,,,0,0,1,,,,0,,82,108
16919,note_on,,,,,89,0,1,,,,0,,94,109
16920,control_change,,,,,1,0,1,,64,0,0,,,
16920,control_change,,,,,1,0,2,,64,0,1,,,
16920,set_tempo,,,,,60,1,0,631579,,,,,,
16921,note_on,,,,,1,0,2,,,,1,,46,102
16940,control_change,,,,,20,0,1,,64,127,0,,,
16940,control_change,,,,,19,0,2,,64,127,1,,,
16968,note_off,,,,,28,0,1,,,,0,,82,59
16968,note_off,,,,,28,0,2,,,,1,,34,57
16969,note_off,,,,,1,0,1,,,,0,,94,57
16970,note_off,,,,,2,0,2,,,,1,,46,58
16980,set_tempo,,,,,60,1,0,582524,,,,,,
16980,control_change,,,,,11,0,1,,64,0,0,,,
16980,control_change,,,,,10,0,2,,64,0,1,,,
17039,note_on,,,,,59,0,1,,,,0,,94,116
17039,note_on,,,,,59,0,2,,,,1,,34,112
17040,control_change,,,,,1,0,1,,64,0,0,,,
17040,set_tempo,,,,,60,1,0,500000,,,,,,
17040,note_on,,,,,1,0,2,,,,1,,46,117
17040,control_change,,,,,0,0,2,,64,0,1,,,
17041,note_on,,,,,1,0,1,,,,0,,82,115
17060,control_change,,,,,19,0,1,,64,127,0,,,
17060,control_change,,,,,20,0,2,,64,127,1,,,
17089,note_off,,,,,29,0,2,,,,1,,46,58
17090,note_off,,,,,0,0,1,,,,0,,94,59
17090,note_off,,,,,1,0,2,,,,1,,34,58
17090,note_off,,,,,30,0,1,,,,0,,82,59
17150,control_change,,,,,60,0,2,,64,0,1,,,
17150,control_change,,,,,60,0,1,,64,0,0,,,
17160,set_tempo,,,,,120,1,0,1304348,,,,,,
17280,note_on,,,,,0,0,2,,,,1,,46,69
17280,set_tempo,,,,,120,1,0,666667,,,,,,
17280,note_on,,,,,130,0,2,,,,1,,34,64
17280,note_on,,,,,0,0,1,,,,0,,85,68
17280,note_on,,,,,130,0,1,,,,0,,73,66
17330,note_off,,,,,0,0,2,,,,1,,34,58
17330,note_off,,,,,50,0,2,,,,1,,46,57
17399,note_on,,,,,69,0,2,,,,1,,34,61
17400,set_tempo,,,,,120,1,0,606061,,,,,,
17401,note_on,,,,,2,0,2,,,,1,,46,64
17449,note_off,,,,,48,0,2,,,,1,,34,57
17450,note_off,,,,,1,0,2,,,,1,,46,57
17509,note_off,,,,,229,0,1,,,,0,,85,63
17509,note_off,,,,,0,0,1,,,,0,,73,64
17519,note_on,,,,,10,0,1,,,,0,,89,76
17520,note_on,,,,,1,0,1,,,,0,,77,71
17520,set_tempo,,,,,120,1,0,582524,,,,,,
17628,note_off,,,,,108,0,1,,,,0,,89,60
17630,note_off,,,,,2,0,1,,,,0,,77,61
17639,note_on,,,,,9,0,1,,,,0,,85,77
17639,note_on,,,,,0,0,1,,,,0,,73,74
17640,set_tempo,,,,,120,1,0,545455,,,,,,
17640,control_change,,,,,0,0,2,,64,0,1,,,
17640,note_on,,,,,190,0,2,,,,1,,34,65
17640,control_change,,,,,1,0,1,,64,0,0,,,
17660,control_change,,,,,20,0,2,,64,127,1,,,
17660,control_change,,,,,20,0,1,,64,127,0,,,
17680,set_tempo,,,,,40,1,0,555556,,,,,,
17681,note_on,,,,,21,0,2,,,,1,,41,63
17690,note_off,,,,,9,0,2,,,,1,,34,59
17720,set_tempo,,,,,40,1,0,582524,,,,,,
17721,note_on,,,,,31,0,2,,,,1,,49,58
17730,note_off,,,,,9,0,2,,,,1,,41,57
17759,note_on,,,,,29,0,2,,,,1,,34,65
17760,set_tempo,,,,,40,1,0,566038,,,,,,
17771,note_off,,,,,12,0,2,,,,1,,49,57
17800,note_on,,,,,29,0,2,,,,1,,41,61
17809,note_off,,,,,9,0,2,,,,1,,34,58
17839,note_on,,,,,30,0,2,,,,1,,49,60
17850,note_off,,,,,11,0,2,,,,1,,41,59
17870,note_off,,,,,210,0,1,,,,0,,73,65
17870,note_off,,,,,0,0,1,,,,0,,85,64
17880,note_on,,,,,10,0,1,,,,0,,82,73
17881,note_on,,,,,31,0,2,,,,1,,34,68
17881,note_on,,,,,1,0,1,,,,0,,70,71
17890,note_off,,,,,9,0,2,,,,1,,49,57
17920,note_on,,,,,30,0,2,,,,1,,41,61
17920,set_tempo,,,,,160,1,0,545455,,,,,,
17931,note_off,,,,,11,0,2,,,,1,,34,58
17960,set_tempo,,,,,40,1,0,566038,,,,,,
17961,note_on,,,,,30,0,2,,,,1,,49,59
17970,note_off,,,,,9,0,2,,,,1,,41,59
17991,note_off,,,,,0,0,1,,,,0,,82,62
17991,note_off,,,,,110,0,1,,,,0,,70,62
17999,note_on,,,,,29,0,2,,,,1,,34,67
18000,set_tempo,,,,,40,1,0,545455,,,,,,
18000,note_on,,,,,9,0,1,,,,0,,65,68
18000,note_on,,,,,0,0,1,,,,0,,77,71
18001,note_off,,,,,2,0,2,,,,1,,49,59
18040,set_tempo,,,,,40,1,0,555556,,,,,,
18041,note_on,,,,,40,0,2,,,,1,,41,63
18048,note_off,,,,,7,0,2,,,,1,,34,59
18079,note_on,,,,,31,0,2,,,,1,,49,61
18080,set_tempo,,,,,40,1,0,566038,,,,,,
18091,note_off,,,,,12,0,2,,,,1,,41,58
18109,note_off,,,,,109,0,1,,,,0,,77,60
18111,note_off,,,,,2,0,1,,,,0,,65,61
18120,note_on,,,,,9,0,1,,,,0,,70,75
18120,note_on,,,,,0,0,1,,,,0,,82,80
18120,note_on,,,,,29,0,2,,,,1,,34,72
18129,note_off,,,,,9,0,2,,,,1,,49,58
18160,set_tempo,,,,,80,1,0,555556,,,,,,
18160,note_on,,,,,31,0,2,,,,1,,41,69
18171,note_off,,,,,11,0,2,,,,1,,34,59
18200,note_on,,,,,29,0,2,,,,1,,49,63
18200,set_tempo,,,,,40,1,0,545455,,,,,,
18210,note_off,,,,,10,0,2,,,,1,,41,58
18240,set_tempo,,,,,40,1,0,566038,,,,,,
18241,note_on,,,,,31,0,2,,,,1,,34,73
18250,note_off,,,,,9,0,2,,,,1,,49,58
18280,set_tempo,,,,,40,1,0,545455,,,,,,
18280,note_on,,,,,30,0,2,,,,1,,41,67
18291,note_off,,,,,11,0,2,,,,1,,34,59
18320,set_tempo,,,,,40,1,0,555556,,,,,,
18321,note_on,,,,,30,0,2,,,,1,,49,63
18330,note_off,,,,,9,0,2,,,,1,,41,58
18345,note_off,,,,,225,0,1,,,,0,,70,64
18346,note_off,,,,,1,0,1,,,,0,,82,63
18359,note_on,,,,,13,0,1,,,,0,,73,82
18359,note_on,,,,,29,0,2,,,,1,,34,77
18361,note_off,,,,,2,0,2,,,,1,,49,57
18361,note_on,,,,,2,0,1,,,,0,,85,84
18400,note_on,,,,,39,0,2,,,,1,,41,74
18408,note_off,,,,,8,0,2,,,,1,,34,57
18439,note_on,,,,,31,0,2,,,,1,,49,67
18450,note_off,,,,,11,0,2,,,,1,,41,57
18468,note_off,,,,,107,0,1,,,,0,,73,60
18470,note_off,,,,,2,0,1,,,,0,,85,62
18479,note_on,,,,,29,0,2,,,,1,,34,81
18479,note_on,,,,,0,0,1,,,,0,,89,91
18479,note_on,,,,,9,0,1,,,,0,,77,88
18480,set_tempo,,,,,160,1,0,545455,,,,,,
18490,note_off,,,,,11,0,2,,,,1,,49,59
18519,note_on,,,,,29,0,2,,,,1,,41,76
18520,set_tempo,,,,,40,1,0,566038,,,,,,
18528,note_off,,,,,9,0,2,,,,1,,34,57
18560,set_tempo,,,,,40,1,0,545455,,,,,,
18561,note_on,,,,,33,0,2,,,,1,,49,71
18570,note_off,,,,,9,0,2,,,,1,,41,57
18600,set_tempo,,,,,40,1,0,566038,,,,,,
18600,note_on,,,,,30,0,2,,,,1,,34,83
18612,note_off,,,,,12,0,2,,,,1,,49,57
18640,note_on,,,,,28,0,2,,,,1,,41,77
18650,note_off,,,,,10,0,2,,,,1,,34,57
18680,note_on,,,,,30,0,2,,,,1,,49,73
18691,note_off,,,,,11,0,2,,,,1,,41,58
18703,note_off,,,,,224,0,1,,,,0,,77,64
18704,note_off,,,,,1,0,1,,,,0,,89,64
18719,note_on,,,,,15,0,1,,,,0,,73,87
18720,note_on,,,,,29,0,2,,,,1,,34,85
18721,note_on,,,,,2,0,1,,,,0,,85,90
18721,note_off,,,,,1,0,2,,,,1,,49,59
18761,note_on,,,,,40,0,2,,,,1,,41,79
18770,note_off,,,,,9,0,2,,,,1,,34,58
18799,note_on,,,,,29,0,2,,,,1,,49,77
18800,set_tempo,,,,,200,1,0,555556,,,,,,
18812,note_off,,,,,13,0,2,,,,1,,41,59
18829,note_off,,,,,108,0,1,,,,0,,73,62
18830,note_off,,,,,1,0,1,,,,0,,85,62
18839,note_on,,,,,27,0,2,,,,1,,34,87
18839,note_on,,,,,9,0,1,,,,0,,82,92
18840,set_tempo,,,,,40,1,0,545455,,,,,,
18841,note_on,,,,,2,0,1,,,,0,,70,88
18848,note_off,,,,,9,0,2,,,,1,,49,59
18879,note_on,,,,,31,0,2,,,,1,,41,80
18880,set_tempo,,,,,40,1,0,555556,,,,,,
18889,note_off,,,,,10,0,2,,,,1,,34,58
18919,note_on,,,,,30,0,2,,,,1,,49,77
18930,note_off,,,,,11,0,2,,,,1,,41,58
18959,note_on,,,,,29,0,2,,,,1,,34,87
18970,note_off,,,,,11,0,2,,,,1,,49,58
19000,set_tempo,,,,,120,1,0,545455,,,,,,
19001,note_on,,,,,31,0,2,,,,1,,41,85
19010,note_off,,,,,9,0,2,,,,1,,34,59
19041,note_on,,,,,31,0,2,,,,1,,49,78
19051,note_off,,,,,10,0,2,,,,1,,41,57
19065,note_off,,,,,0,0,1,,,,0,,82,64
19065,note_off,,,,,224,0,1,,,,0,,70,64
19079,note_on,,,,,14,0,1,,,,0,,77,93
19079,note_on,,,,,0,0,1,,,,0,,65,91
19079,note_on,,,,,28,0,2,,,,1,,34,90
19080,set_tempo,,,,,80,1,0,566038,,,,,,
19082,note_off,,,,,3,0,2,,,,1,,49,58
19119,note_on,,,,,37,0,2,,,,1,,41,84
19120,set_tempo,,,,,40,1,0,545455,,,,,,
19129,note_off,,,,,10,0,2,,,,1,,34,57
19160,note_on,,,,,31,0,2,,,,1,,49,80
19160,set_tempo,,,,,40,1,0,555556,,,,,,
19168,note_off,,,,,8,0,2,,,,1,,41,57
19190,note_off,,,,,0,0,1,,,,0,,77,60
19190,note_off,,,,,111,0,1,,,,0,,65,61
19199,note_on,,,,,31,0,2,,,,1,,34,93
19200,set_tempo,,,,,40,1,0,566038,,,,,,
19201,note_on,,,,,0,0,1,,,,0,,82,97
19201,note_on,,,,,11,0,1,,,,0,,70,93
19210,note_off,,,,,11,0,2,,,,1,,49,59
19241,note_on,,,,,31,0,2,,,,1,,41,86
19250,note_off,,,,,9,0,2,,,,1,,34,58
19280,set_tempo,,,,,80,1,0,545455,,,,,,
19281,note_on,,,,,31,0,2,,,,1,,49,81
19290,note_off,,,,,9,0,2,,,,1,,41,59
19320,set_tempo,,,,,40,1,0,566038,,,,,,
19321,note_on,,,,,31,0,2,,,,1,,34,94
19330,note_off,,,,,9,0,2,,,,1,,49,58
19360,set_tempo,,,,,40,1,0,555556,,,,,,
19360,note_on,,,,,30,0,2,,,,1,,41,88
19371,note_off,,,,,11,0,2,,,,1,,34,58
19400,set_tempo,,,,,40,1,0,566038,,,,,,
19401,note_on,,,,,30,0,2,,,,1,,49,81
19409,note_off,,,,,8,0,2,,,,1,,41,57
19425,note_off,,,,,224,0,1,,,,0,,82,65
19427,note_off,,,,,2,0,1,,,,0,,70,64
19440,note_on,,,,,0,0,2,,,,1,,32,97
19440,note_on,,,,,13,0,1,,,,0,,73,99
19440,set_tempo,,,,,40,1,0,582524,,,,,,
19440,control_change,,,,,0,0,1,,64,0,0,,,
19440,control_change,,,,,31,0,2,,64,0,1,,,
19441,note_on,,,,,1,0,1,,,,0,,85,102
19442,note_off,,,,,2,0,2,,,,1,,49,59
19480,control_change,,,,,39,0,1,,64,127,0,,,
19480,set_tempo,,,,,40,1,0,606061,,,,,,
19480,control_change,,,,,0,0,2,,64,127,1,,,
19480,note_on,,,,,38,0,2,,,,1,,41,92
19490,note_off,,,,,10,0,2,,,,1,,32,57
19520,note_on,,,,,30,0,2,,,,1,,49,86
19529,note_off,,,,,9,0,2,,,,1,,41,58
19550,note_off,,,,,70,0,1,,,,0,,73,61
19552,note_off,,,,,2,0,1,,,,0,,85,60
19559,note_on,,,,,7,0,1,,,,0,,77,86
19560,note_on,,,,,1,0,1,,,,0,,89,93
19560,control_change,,,,,0,0,1,,64,0,0,,,
19560,set_tempo,,,,,80,1,0,535714,,,,,,
19560,control_change,,,,,31,0,2,,64,0,1,,,
19561,note_on,,,,,1,0,2,,,,1,,32,89
19569,note_off,,,,,8,0,2,,,,1,,49,58
19580,control_change,,,,,11,0,2,,64,127,1,,,
19580,control_change,,,,,20,0,1,,64,127,0,,,
19600,note_on,,,,,20,0,2,,,,1,,41,80
19611,note_off,,,,,11,0,2,,,,1,,32,58
19639,note_on,,,,,28,0,2,,,,1,,49,71
19640,set_tempo,,,,,80,1,0,545455,,,,,,
19651,note_off,,,,,12,0,2,,,,1,,41,57
19680,set_tempo,,,,,40,1,0,566038,,,,,,
19681,note_on,,,,,30,0,2,,,,1,,32,82
19690,note_off,,,,,9,0,2,,,,1,,49,58
19719,note_on,,,,,29,0,2,,,,1,,41,74
19720,set_tempo,,,,,40,1,0,545455,,,,,,
19730,note_off,,,,,11,0,2,,,,1,,32,58
19760,note_on,,,,,30,0,2,,,,1,,49,64
19760,set_tempo,,,,,40,1,0,555556,,,,,,
19769,note_off,,,,,9,0,2,,,,1,,41,58
19783,note_off,,,,,203,0,1,,,,0,,77,65
19784,note_off,,,,,1,0,1,,,,0,,89,63
19799,note_on,,,,,0,0,1,,,,0,,80,76
19799,note_on,,,,,15,0,1,,,,0,,92,81
19800,note_off,,,,,31,0,2,,,,1,,49,59
19801,note_on,,,,,1,0,2,,,,1,,37,76
19839,note_on,,,,,38,0,2,,,,1,,41,69
19852,note_off,,,,,13,0,2,,,,1,,37,59
19880,set_tempo,,,,,120,1,0,545455,,,,,,
19880,note_on,,,,,28,0,2,,,,1,,49,59
19890,note_off,,,,,10,0,2,,,,1,,41,58
19908,note_off,,,,,109,0,1,,,,0,,92,61
19910,note_off,,,,,2,0,1,,,,0,,80,61
19919,note_on,,,,,9,0,1,,,,0,,85,74
19920,note_on,,,,,1,0,1,,,,0,,73,69
19921,note_on,,,,,31,0,2,,,,1,,37,71
19929,note_off,,,,,8,0,2,,,,1,,49,59
19959,note_on,,,,,30,0,2,,,,1,,41,66
19960,set_tempo,,,,,80,1,0,566038,,,,,,
19971,note_off,,,,,12,0,2,,,,1,,37,58
19999,note_on,,,,,28,0,2,,,,1,,49,60
20000,set_tempo,,,,,40,1,0,571429,,,,,,
20008,note_off,,,,,9,0,2,,,,1,,41,58
20029,note_off,,,,,109,0,1,,,,0,,85,62
20031,note_off,,,,,2,0,1,,,,0,,73,60
20040,set_tempo,,,,,40,1,0,566038,,,,,,
20041,note_on,,,,,33,0,2,,,,1,,37,66
20050,note_off,,,,,9,0,2,,,,1,,49,59
20079,note_on,,,,,29,0,2,,,,1,,41,62
20080,set_tempo,,,,,40,1,0,571429,,,,,,
20090,note_off,,,,,11,0,2,,,,1,,37,58
20119,note_on,,,,,29,0,2,,,,1,,49,57
20129,note_off,,,,,10,0,2,,,,1,,41,57
20154,note_off,,,,,25,0,2,,,,1,,49,58
20159,note_on,,,,,128,0,1,,,,0,,70,63
20160,note_on,,,,,6,0,2,,,,1,,37,63
20160,set_tempo,,,,,80,1,0,582524,,,,,,
20160,control_change,,,,,1,0,1,,64,0,0,,,
20160,control_change,,,,,0,0,2,,64,0,1,,,
20161,note_on,,,,,1,0,2,,,,1,,49,66
20161,note_on,,,,,1,0,1,,,,0,,82,66
20208,note_off,,,,,47,0,1,,,,0,,70,57
20212,note_off,,,,,4,0,1,,,,0,,82,58
20279,note_on,,,,,67,0,1,,,,0,,70,57
20279,note_on,,,,,0,0,1,,,,0,,82,61
20280,set_tempo,,,,,120,1,0,606061,,,,,,
20328,note_off,,,,,49,0,1,,,,0,,70,57
20330,note_off,,,,,2,0,1,,,,0,,82,59
20389,note_off,,,,,228,0,2,,,,1,,37,65
20390,note_off,,,,,1,0,2,,,,1,,49,63
20399,note_on,,,,,9,0,2,,,,1,,53,68
20400,note_on,,,,,1,0,2,,,,1,,41,66
20400,set_tempo,,,,,120,1,0,571429,,,,,,
20510,note_off,,,,,0,0,2,,,,1,,53,61
20510,note_off,,,,,110,0,2,,,,1,,41,60
20520,control_change,,,,,190,0,1,,64,0,0,,,
20520,note_on,,,,,10,0,2,,,,1,,37,69
20520,control_change,,,,,0,0,2,,64,0,1,,,
20520,set_tempo,,,,,120,1,0,555556,,,,,,
20521,note_on,,,,,1,0,1,,,,0,,73,64
20521,note_on,,,,,1,0,2,,,,1,,49,73
20540,control_change,,,,,19,0,2,,64,127,1,,,
20540,control_change,,,,,19,0,1,,64,127,0,,,
20560,set_tempo,,,,,40,1,0,545455,,,,,,
20561,note_on,,,,,21,0,1,,,,0,,70,58
20570,note_off,,,,,9,0,1,,,,0,,73,58
20600,note_on,,,,,30,0,1,,,,0,,65,54
20610,note_off,,,,,10,0,1,,,,0,,70,59
20640,note_on,,,,,30,0,1,,,,0,,73,63
20640,set_tempo,,,,,80,1,0,566038,,,,,,
20651,note_off,,,,,11,0,1,,,,0,,65,58
20680,note_on,,,,,29,0,1,,,,0,,70,58
20690,note_off,,,,,10,0,1,,,,0,,73,57
20719,note_on,,,,,29,0,1,,,,0,,65,55
20720,set_tempo,,,,,80,1,0,545455,,,,,,
20729,note_off,,,,,10,0,1,,,,0,,70,58
20750,note_off,,,,,210,0,2,,,,1,,49,65
20750,note_off,,,,,0,0,2,,,,1,,37,65
20759,note_on,,,,,9,0,2,,,,1,,34,72
20759,note_on,,,,,30,0,1,,,,0,,77,62
20760,set_tempo,,,,,40,1,0,555556,,,,,,
20761,note_on,,,,,2,0,2,,,,1,,46,73
20769,note_off,,,,,10,0,1,,,,0,,65,59
20799,note_on,,,,,30,0,1,,,,0,,73,58
20800,set_tempo,,,,,40,1,0,566038,,,,,,
20809,note_off,,,,,10,0,1,,,,0,,77,58
20840,set_tempo,,,,,40,1,0,555556,,,,,,
20841,note_on,,,,,32,0,1,,,,0,,70,53
20850,note_off,,,,,9,0,1,,,,0,,73,59
20868,note_off,,,,,107,0,2,,,,1,,34,60
20872,note_off,,,,,4,0,2,,,,1,,46,62
20879,note_on,,,,,29,0,1,,,,0,,73,63
20880,set_tempo,,,,,40,1,0,545455,,,,,,
20880,note_on,,,,,8,0,2,,,,1,,41,72
20881,note_off,,,,,2,0,1,,,,0,,70,58
20881,note_on,,,,,1,0,2,,,,1,,29,70
20919,note_on,,,,,38,0,1,,,,0,,70,57
20930,note_off,,,,,11,0,1,,,,0,,73,57
20960,note_on,,,,,30,0,1,,,,0,,65,54
20968,note_off,,,,,8,0,1,,,,0,,70,58
20990,note_off,,,,,109,0,2,,,,1,,29,60
20991,note_off,,,,,1,0,2,,,,1,,41,62
20999,note_on,,,,,31,0,1,,,,0,,73,66
21001,note_on,,,,,10,0,2,,,,1,,34,75
21001,note_on,,,,,0,0,2,,,,1,,46,76
21011,note_off,,,,,12,0,1,,,,0,,65,57
21040,note_on,,,,,29,0,1,,,,0,,70,62
21040,set_tempo,,,,,160,1,0,566038,,,,,,
21050,note_off,,,,,10,0,1,,,,0,,73,57
21080,set_tempo,,,,,40,1,0,555556,,,,,,
21080,note_on,,,,,30,0,1,,,,0,,65,57
21090,note_off,,,,,10,0,1,,,,0,,70,59
21119,note_on,,,,,29,0,1,,,,0,,70,68
21120,set_tempo,,,,,40,1,0,545455,,,,,,
21130,note_off,,,,,11,0,1,,,,0,,65,59
21160,note_on,,,,,30,0,1,,,,0,,65,64
21160,set_tempo,,,,,40,1,0,566038,,,,,,
21169,note_off,,,,,9,0,1,,,,0,,70,58
21200,note_on,,,,,31,0,1,,,,0,,61,62
21210,note_off,,,,,10,0,1,,,,0,,65,57
21225,note_off,,,,,224,0,2,,,,1,,34,63
21227,note_off,,,,,2,0,2,,,,1,,46,65
21240,note_off,,,,,30,0,1,,,,0,,61,59
21240,note_on,,,,,0,0,1,,,,0,,65,72
21240,note_on,,,,,13,0,2,,,,1,,37,77
21240,set_tempo,,,,,80,1,0,545455,,,,,,
21241,note_on,,,,,1,0,2,,,,1,,49,79
21280,note_on,,,,,40,0,1,,,,0,,61,67
21290,note_off,,,,,10,0,1,,,,0,,65,58
21319,note_on,,,,,29,0,1,,,,0,,58,62
21320,set_tempo,,,,,80,1,0,555556,,,,,,
21330,note_off,,,,,11,0,1,,,,0,,61,59
21351,note_off,,,,,110,0,2,,,,1,,49,60
21351,note_off,,,,,0,0,2,,,,1,,37,62
21359,note_on,,,,,29,0,1,,,,0,,70,78
21360,note_on,,,,,1,0,1,,,,0,,61,74
21360,set_tempo,,,,,40,1,0,566038,,,,,,
21361,note_on,,,,,10,0,2,,,,1,,41,81
21361,note_on,,,,,0,0,2,,,,1,,53,84
21370,note_off,,,,,10,0,1,,,,0,,58,59
21400,set_tempo,,,,,40,1,0,555556,,,,,,
21401,note_on,,,,,31,0,1,,,,0,,58,71
21410,note_off,,,,,0,0,1,,,,0,,70,59
21410,note_off,,,,,9,0,1,,,,0,,61,57
21440,set_tempo,,,,,40,1,0,545455,,,,,,
21440,note_on,,,,,30,0,1,,,,0,,61,66
21450,note_off,,,,,10,0,1,,,,0,,58,58
21480,note_on,,,,,30,0,1,,,,0,,70,82
21491,note_off,,,,,11,0,1,,,,0,,61,57
21521,note_on,,,,,30,0,1,,,,0,,61,76
21529,note_off,,,,,8,0,1,,,,0,,70,58
21559,note_on,,,,,30,0,1,,,,0,,58,72
21560,set_tempo,,,,,120,1,0,555556,,,,,,
21571,note_off,,,,,12,0,1,,,,0,,61,57
21585,note_off,,,,,224,0,2,,,,1,,41,63
21587,note_off,,,,,2,0,2,,,,1,,53,63
21600,note_on,,,,,0,0,1,,,,0,,65,81
21600,note_on,,,,,13,0,2,,,,1,,37,85
21600,note_off,,,,,29,0,1,,,,0,,58,59
21601,note_on,,,,,1,0,2,,,,1,,49,89
21601,note_on,,,,,1,0,1,,,,0,,73,83
21640,note_on,,,,,39,0,1,,,,0,,61,78
21640,set_tempo,,,,,80,1,0,566038,,,,,,
21649,note_off,,,,,9,0,1,,,,0,,65,59
21652,note_off,,,,,3,0,1,,,,0,,73,58
21679,note_on,,,,,27,0,1,,,,0,,65,72
21680,set_tempo,,,,,40,1,0,555556,,,,,,
21689,note_off,,,,,10,0,1,,,,0,,61,57
21711,note_off,,,,,0,0,2,,,,1,,37,62
21711,note_off,,,,,110,0,2,,,,1,,49,61
21719,note_on,,,,,8,0,2,,,,1,,34,90
21720,note_on,,,,,31,0,1,,,,0,,77,86
21720,note_on,,,,,1,0,2,,,,1,,46,92
21720,set_tempo,,,,,40,1,0,545455,,,,,,
21728,note_off,,,,,8,0,1,,,,0,,65,57
21761,note_on,,,,,33,0,1,,,,0,,73,80
21771,note_off,,,,,10,0,1,,,,0,,77,57
21800,note_on,,,,,29,0,1,,,,0,,70,76
21811,note_off,,,,,11,0,1,,,,0,,73,57
21841,note_on,,,,,30,0,1,,,,0,,77,89
21849,note_off,,,,,8,0,1,,,,0,,70,59
21881,note_on,,,,,32,0,1,,,,0,,73,85
21891,note_off,,,,,10,0,1,,,,0,,77,58
21919,note_on,,,,,28,0,1,,,,0,,70,81
21920,set_tempo,,,,,200,1,0,566038,,,,,,
21930,note_off,,,,,11,0,1,,,,0,,73,58
21943,note_off,,,,,223,0,2,,,,1,,34,65
21945,note_off,,,,,2,0,2,,,,1,,46,65
21959,note_on,,,,,0,0,1,,,,0,,73,89
21959,note_on,,,,,14,0,2,,,,1,,29,92
21959,note_off,,,,,29,0,1,,,,0,,70,58
21960,set_tempo,,,,,40,1,0,545455,,,,,,
21961,note_on,,,,,2,0,2,,,,1,,41,94
22000,note_on,,,,,41,0,1,,,,0,,70,86
22009,note_off,,,,,9,0,1,,,,0,,73,57
22040,set_tempo,,,,,80,1,0,566038,,,,,,
22041,note_on,,,,,32,0,1,,,,0,,65,83
22051,note_off,,,,,10,0,1,,,,0,,70,59
22069,note_off,,,,,108,0,2,,,,1,,29,62
22072,note_off,,,,,3,0,2,,,,1,,41,61
22079,note_on,,,,,7,0,2,,,,1,,34,93
22080,note_on,,,,,29,0,1,,,,0,,70,89
22081,note_on,,,,,2,0,2,,,,1,,46,95
22092,note_off,,,,,12,0,1,,,,0,,65,58
22119,note_on,,,,,27,0,1,,,,0,,65,82
22120,set_tempo,,,,,80,1,0,545455,,,,,,
22131,note_off,,,,,12,0,1,,,,0,,70,59
22161,note_on,,,,,30,0,1,,,,0,,61,76
22169,note_off,,,,,8,0,1,,,,0,,65,59
22200,set_tempo,,,,,80,1,0,566038,,,,,,
22201,note_on,,,,,32,0,1,,,,0,,70,85
22211,note_off,,,,,10,0,1,,,,0,,61,58
22239,note_on,,,,,28,0,1,,,,0,,65,80
22240,set_tempo,,,,,40,1,0,555556,,,,,,
22250,note_off,,,,,11,0,1,,,,0,,70,59
22280,note_on,,,,,30,0,1,,,,0,,61,75
22280,set_tempo,,,,,40,1,0,566038,,,,,,
22290,note_off,,,,,10,0,1,,,,0,,65,58
22305,note_off,,,,,224,0,2,,,,1,,34,63
22307,note_off,,,,,2,0,2,,,,1,,46,64
22320,note_on,,,,,13,0,2,,,,1,,49,90
22320,note_on,,,,,0,0,1,,,,0,,65,79
22320,control_change,,,,,0,0,2,,64,0,1,,,
22320,control_change,,,,,30,0,1,,64,0,0,,,
22321,note_on,,,,,1,0,2,,,,1,,37,86
22321,note_off,,,,,1,0,1,,,,0,,61,59
22360,control_change,,,,,39,0,1,,64,127,0,,,
22360,set_tempo,,,,,80,1,0,594059,,,,,,
22360,control_change,,,,,39,0,2,,64,127,1,,,
22361,note_on,,,,,1,0,1,,,,0,,61,75
22370,note_off,,,,,9,0,1,,,,0,,65,58
22400,set_tempo,,,,,40,1,0,618557,,,,,,
22400,note_on,,,,,30,0,1,,,,0,,58,70
22410,note_off,,,,,10,0,1,,,,0,,61,57
22431,note_off,,,,,71,0,2,,,,1,,49,60
22432,note_off,,,,,1,0,2,,,,1,,37,62
22439,note_on,,,,,29,0,1,,,,0,,61,73
22439,note_on,,,,,0,0,1,,,,0,,68,78
22439,note_on,,,,,7,0,2,,,,1,,41,85
22440,note_on,,,,,1,0,2,,,,1,,53,86
22440,control_change,,,,,0,0,2,,64,0,1,,,
22440,set_tempo,,,,,40,1,0,545455,,,,,,
22440,control_change,,,,,1,0,1,,64,0,0,,,
22451,note_off,,,,,11,0,1,,,,0,,58,58
22479,note_on,,,,,28,0,1,,,,0,,56,72
22480,control_change,,,,,40,0,2,,64,127,1,,,
22480,control_change,,,,,1,0,1,,64,127,0,,,
22488,note_off,,,,,0,0,1,,,,0,,61,59
22488,note_off,,,,,8,0,1,,,,0,,68,59
22519,note_on,,,,,31,0,1,,,,0,,61,66
22520,set_tempo,,,,,80,1,0,566038,,,,,,
22529,note_off,,,,,10,0,1,,,,0,,56,58
22560,control_change,,,,,31,0,1,,64,127,0,,,
22560,control_change,,,,,80,0,2,,64,127,1,,,
22560,set_tempo,,,,,40,1,0,555556,,,,,,
22561,note_on,,,,,1,0,1,,,,0,,68,74
22570,note_off,,,,,9,0,1,,,,0,,61,57
22600,set_tempo,,,,,40,1,0,545455,,,,,,
22601,note_on,,,,,31,0,1,,,,0,,65,68
22611,note_off,,,,,10,0,1,,,,0,,68,59
22640,note_on,,,,,29,0,1,,,,0,,61,64
22650,note_off,,,,,10,0,1,,,,0,,65,59
22664,note_off,,,,,104,0,2,,,,1,,53,65
22665,note_off,,,,,1,0,2,,,,1,,41,65
22679,note_on,,,,,29,0,1,,,,0,,73,71
22680,control_change,,,,,15,0,2,,64,0,1,,,
22680,control_change,,,,,1,0,1,,64,0,0,,,
22680,note_on,,,,,0,0,1,,,,0,,65,71
22681,note_on,,,,,0,0,2,,,,1,,56,83
22681,note_on,,,,,1,0,2,,,,1,,44,80
22681,note_off,,,,,1,0,1,,,,0,,61,59
22719,note_on,,,,,38,0,1,,,,0,,61,65
22720,set_tempo,,,,,120,1,0,555556,,,,,,
22720,control_change,,,,,39,0,2,,64,127,1,,,
22720,control_change,,,,,1,0,1,,64,127,0,,,
22729,note_off,,,,,9,0,1,,,,0,,73,57
22731,note_off,,,,,2,0,1,,,,0,,65,58
22760,set_tempo,,,,,40,1,0,566038,,,,,,
22760,note_on,,,,,29,0,1,,,,0,,65,64
22769,note_off,,,,,9,0,1,,,,0,,61,59
22790,note_off,,,,,70,0,2,,,,1,,44,61
22792,note_off,,,,,2,0,2,,,,1,,56,61
22799,note_on,,,,,0,0,2,,,,1,,49,78
22799,note_on,,,,,30,0,1,,,,0,,77,70
22799,note_on,,,,,7,0,2,,,,1,,37,77
22800,set_tempo,,,,,40,1,0,545455,,,,,,
22800,control_change,,,,,1,0,2,,64,0,1,,,
22800,control_change,,,,,1,0,1,,64,0,0,,,
22810,note_off,,,,,10,0,1,,,,0,,65,59
22840,set_tempo,,,,,40,1,0,566038,,,,,,
22840,note_on,,,,,30,0,1,,,,0,,73,65
22840,control_change,,,,,40,0,2,,64,127,1,,,
22840,control_change,,,,,0,0,1,,64,127,0,,,
22850,note_off,,,,,10,0,1,,,,0,,77,57
22879,note_on,,,,,29,0,1,,,,0,,68,62
22891,note_off,,,,,12,0,1,,,,0,,73,58
22909,note_off,,,,,69,0,2,,,,1,,49,61
22909,note_off,,,,,0,0,2,,,,1,,37,60
22919,note_on,,,,,28,0,1,,,,0,,77,64
22920,set_tempo,,,,,80,1,0,555556,,,,,,
22930,note_off,,,,,11,0,1,,,,0,,68,57
22961,note_on,,,,,31,0,1,,,,0,,73,60
22968,note_off,,,,,7,0,1,,,,0,,77,57
22999,note_on,,,,,31,0,1,,,,0,,68,56
23000,set_tempo,,,,,80,1,0,545455,,,,,,
23011,note_off,,,,,12,0,1,,,,0,,73,59
23039,note_off,,,,,28,0,1,,,,0,,68,58
23039,note_on,,,,,130,0,2,,,,1,,37,63
23039,note_on,,,,,0,0,1,,,,0,,80,65
23040,set_tempo,,,,,40,1,0,571429,,,,,,
23041,note_on,,,,,2,0,2,,,,1,,49,66
23080,set_tempo,,,,,40,1,0,606061,,,,,,
23080,note_on,,,,,41,0,1,,,,0,,77,57
23090,note_off,,,,,49,0,2,,,,1,,49,58
23090,note_off,,,,,0,0,2,,,,1,,37,58
23090,note_off,,,,,10,0,1,,,,0,,80,58
23119,note_on,,,,,29,0,1,,,,0,,73,54
23120,set_tempo,,,,,40,1,0,645161,,,,,,
23129,note_off,,,,,10,0,1,,,,0,,77,58
23158,note_off,,,,,29,0,1,,,,0,,73,57
23159,note_on,,,,,1,0,1,,,,0,,65,57
23160,set_tempo,,,,,40,1,0,582524,,,,,,
23160,note_on,,,,,1,0,1,,,,0,,73,58
23161,note_on,,,,,0,0,2,,,,1,,49,60
23161,note_on,,,,,71,0,2,,,,1,,37,61
23210,note_off,,,,,49,0,2,,,,1,,37,59
23212,note_off,,,,,2,0,2,,,,1,,49,59
23269,note_off,,,,,109,0,1,,,,0,,73,61
23270,note_off,,,,,1,0,1,,,,0,,65,62
23280,set_tempo,,,,,120,1,0,545455,,,,,,
23281,note_on,,,,,69,0,2,,,,1,,37,63
23321,note_on,,,,,40,0,2,,,,1,,41,60
23331,note_off,,,,,10,0,2,,,,1,,37,57
23359,note_on,,,,,28,0,2,,,,1,,49,58
23372,note_off,,,,,13,0,2,,,,1,,41,57
23399,note_on,,,,,129,0,1,,,,0,,77,70
23399,note_on,,,,,27,0,2,,,,1,,37,64
23400,set_tempo,,,,,120,1,0,555556,,,,,,
23400,note_off,,,,,1,0,2,,,,1,,49,59
23401,note_on,,,,,2,0,1,,,,0,,89,74
23439,note_on,,,,,39,0,2,,,,1,,41,58
23449,note_off,,,,,10,0,2,,,,1,,37,58
23480,set_tempo,,,,,80,1,0,535714,,,,,,
23481,note_on,,,,,32,0,2,,,,1,,49,56
23490,note_off,,,,,9,0,2,,,,1,,41,58
23519,note_on,,,,,29,0,2,,,,1,,37,64
23520,set_tempo,,,,,40,1,0,555556,,,,,,
23532,note_off,,,,,13,0,2,,,,1,,49,58
23559,note_on,,,,,27,0,2,,,,1,,41,61
23560,set_tempo,,,,,40,1,0,535714,,,,,,
23568,note_off,,,,,9,0,2,,,,1,,37,59
23599,note_on,,,,,31,0,2,,,,1,,49,57
23608,note_off,,,,,9,0,2,,,,1,,41,57
23630,note_off,,,,,229,0,1,,,,0,,77,64
23632,note_off,,,,,2,0,1,,,,0,,89,65
23640,note_on,,,,,0,0,1,,,,0,,92,79
23640,note_on,,,,,8,0,1,,,,0,,80,77
23641,note_on,,,,,33,0,2,,,,1,,37,64
23648,note_off,,,,,7,0,2,,,,1,,49,59
23681,note_on,,,,,33,0,2,,,,1,,41,62
23691,note_off,,,,,10,0,2,,,,1,,37,59
23719,note_on,,,,,28,0,2,,,,1,,49,56
23731,note_off,,,,,12,0,2,,,,1,,41,59
23751,note_off,,,,,0,0,1,,,,0,,80,60
23751,note_off,,,,,111,0,1,,,,0,,92,62
23759,note_on,,,,,8,0,1,,,,0,,89,84
23759,note_on,,,,,0,0,1,,,,0,,77,80
23760,note_off,,,,,29,0,2,,,,1,,49,59
23760,set_tempo,,,,,200,1,0,545455,,,,,,
23761,note_on,,,,,1,0,2,,,,1,,37,65
23799,note_on,,,,,38,0,2,,,,1,,41,61
23800,set_tempo,,,,,40,1,0,555556,,,,,,
23812,note_off,,,,,13,0,2,,,,1,,37,57
23840,set_tempo,,,,,40,1,0,545455,,,,,,
23841,note_on,,,,,29,0,2,,,,1,,49,57
23850,note_off,,,,,9,0,2,,,,1,,41,59
23880,set_tempo,,,,,40,1,0,535714,,,,,,
23880,note_on,,,,,30,0,2,,,,1,,37,64
23890,note_off,,,,,10,0,2,,,,1,,49,57
23921,note_on,,,,,31,0,2,,,,1,,41,62
23930,note_off,,,,,9,0,2,,,,1,,37,59
23961,note_on,,,,,31,0,2,,,,1,,49,57
23971,note_off,,,,,10,0,2,,,,1,,41,59
23988,note_off,,,,,0,0,1,,,,0,,89,65
23988,note_off,,,,,229,0,1,,,,0,,77,65
23999,note_on,,,,,28,0,2,,,,1,,37,64
24000,note_on,,,,,12,0,1,,,,0,,85,77
24001,note_on,,,,,1,0,1,,,,0,,73,76
24010,note_off,,,,,11,0,2,,,,1,,49,59
24039,note_on,,,,,29,0,2,,,,1,,41,61
24040,set_tempo,,,,,160,1,0,555556,,,,,,
24050,note_off,,,,,11,0,2,,,,1,,37,59
24080,set_tempo,,,,,40,1,0,535714,,,,,,
24081,note_on,,,,,31,0,2,,,,1,,49,55
24088,note_off,,,,,7,0,2,,,,1,,41,59
24109,note_off,,,,,108,0,1,,,,0,,85,60
24111,note_off,,,,,2,0,1,,,,0,,73,62
24119,note_on,,,,,8,0,1,,,,0,,80,74
24119,note_on,,,,,0,0,1,,,,0,,68,72
24120,set_tempo,,,,,40,1,0,555556,,,,,,
24120,note_on,,,,,32,0,2,,,,1,,37,66
24122,note_off,,,,,2,0,2,,,,1,,49,58
24161,note_on,,,,,39,0,2,,,,1,,41,60
24170,note_off,,,,,9,0,2,,,,1,,37,58
24200,note_on,,,,,30,0,2,,,,1,,49,57
24200,set_tempo,,,,,80,1,0,545455,,,,,,
24212,note_off,,,,,12,0,2,,,,1,,41,58
24228,note_off,,,,,109,0,1,,,,0,,68,61
24229,note_off,,,,,1,0,1,,,,0,,80,61
24239,note_on,,,,,10,0,1,,,,0,,73,68
24240,note_on,,,,,28,0,2,,,,1,,37,68
24241,note_on,,,,,2,0,1,,,,0,,85,71
24251,note_off,,,,,11,0,2,,,,1,,49,58
24280,set_tempo,,,,,80,1,0,555556,,,,,,
24280,note_on,,,,,29,0,2,,,,1,,41,65
24290,note_off,,,,,10,0,2,,,,1,,37,58
24320,set_tempo,,,,,40,1,0,535714,,,,,,
24321,note_on,,,,,31,0,2,,,,1,,49,60
24330,note_off,,,,,9,0,2,,,,1,,41,59
24360,set_tempo,,,,,40,1,0,545455,,,,,,
24361,note_on,,,,,31,0,2,,,,1,,37,68
24370,note_off,,,,,9,0,2,,,,1,,49,57
24400,set_tempo,,,,,40,1,0,535714,,,,,,
24401,note_on,,,,,31,0,2,,,,1,,41,64
24412,note_off,,,,,11,0,2,,,,1,,37,59
24439,note_on,,,,,27,0,2,,,,1,,49,60
24440,set_tempo,,,,,40,1,0,555556,,,,,,
24452,note_off,,,,,13,0,2,,,,1,,41,58
24465,note_off,,,,,224,0,1,,,,0,,73,64
24466,note_off,,,,,1,0,1,,,,0,,85,63
24478,note_off,,,,,26,0,2,,,,1,,49,59
24480,note_on,,,,,14,0,1,,,,0,,77,79
24480,note_on,,,,,0,0,1,,,,0,,89,78
24480,set_tempo,,,,,40,1,0,545455,,,,,,
24481,note_on,,,,,3,0,2,,,,1,,32,73
24519,note_on,,,,,38,0,2,,,,1,,41,69
24532,note_off,,,,,13,0,2,,,,1,,32,59
24561,note_on,,,,,29,0,2,,,,1,,49,64
24569,note_off,,,,,8,0,2,,,,1,,41,57
24570,control_change,,,,,90,0,1,,64,0,0,,,
24570,control_change,,,,,1,0,2,,64,0,1,,,
24589,note_off,,,,,19,0,1,,,,0,,89,61
24589,note_off,,,,,0,0,1,,,,0,,77,61
24599,note_on,,,,,29,0,2,,,,1,,32,80
24600,note_on,,,,,11,0,1,,,,0,,92,86
24600,control_change,,,,,0,0,1,,64,0,0,,,
24600,set_tempo,,,,,120,1,0,555556,,,,,,
24600,control_change,,,,,1,0,2,,64,0,1,,,
24601,note_on,,,,,1,0,1,,,,0,,80,84
24610,note_off,,,,,10,0,2,,,,1,,49,59
24630,control_change,,,,,29,0,1,,64,127,0,,,
24630,control_change,,,,,20,0,2,,64,127,1,,,
24639,note_on,,,,,9,0,2,,,,1,,41,76
24640,set_tempo,,,,,40,1,0,535714,,,,,,
24648,note_off,,,,,9,0,2,,,,1,,32,58
24680,note_on,,,,,32,0,2,,,,1,,49,71
24680,set_tempo,,,,,40,1,0,555556,,,,,,
24690,note_off,,,,,10,0,2,,,,1,,41,58
24720,control_change,,,,,0,0,2,,64,127,1,,,
24720,set_tempo,,,,,40,1,0,545455,,,,,,
24720,control_change,,,,,90,0,1,,64,127,0,,,
24720,note_on,,,,,30,0,2,,,,1,,32,83
24731,note_off,,,,,11,0,2,,,,1,,49,57
24760,note_on,,,,,29,0,2,,,,1,,41,78
24760,set_tempo,,,,,40,1,0,535714,,,,,,
24771,note_off,,,,,11,0,2,,,,1,,32,58
24799,note_on,,,,,28,0,2,,,,1,,49,75
24810,note_off,,,,,11,0,2,,,,1,,41,57
24824,note_off,,,,,104,0,1,,,,0,,92,65
24827,note_off,,,,,3,0,1,,,,0,,80,63
24838,note_off,,,,,28,0,2,,,,1,,49,59
24839,note_on,,,,,12,0,1,,,,0,,89,92
24839,note_on,,,,,0,0,1,,,,0,,77,91
24840,control_change,,,,,0,0,2,,64,0,1,,,
24840,note_on,,,,,2,0,2,,,,1,,32,85
24840,control_change,,,,,1,0,1,,64,0,0,,,
24860,control_change,,,,,20,0,2,,64,127,1,,,
24860,control_change,,,,,20,0,1,,64,127,0,,,
24879,note_on,,,,,19,0,2,,,,1,,41,83
24889,note_off,,,,,10,0,2,,,,1,,32,57
24919,note_on,,,,,30,0,2,,,,1,,49,78
24920,set_tempo,,,,,160,1,0,545455,,,,,,
24930,note_off,,,,,11,0,2,,,,1,,41,58
24949,note_off,,,,,89,0,1,,,,0,,77,61
24950,note_off,,,,,1,0,1,,,,0,,89,62
24959,note_on,,,,,9,0,1,,,,0,,73,97
24960,control_change,,,,,30,0,2,,64,0,1,,,
24960,note_on,,,,,1,0,1,,,,0,,85,98
24960,set_tempo,,,,,40,1,0,555556,,,,,,
24960,control_change,,,,,0,0,1,,64,0,0,,,
24961,note_on,,,,,1,0,2,,,,1,,34,88
24970,note_off,,,,,9,0,2,,,,1,,49,59
24980,control_change,,,,,20,0,1,,64,127,0,,,
24980,control_change,,,,,10,0,2,,64,127,1,,,
24999,note_on,,,,,19,0,2,,,,1,,41,85
25010,note_off,,,,,11,0,2,,,,1,,34,57
25040,set_tempo,,,,,80,1,0,545455,,,,,,
25041,note_on,,,,,31,0,2,,,,1,,49,80
25050,note_off,,,,,9,0,2,,,,1,,41,59
25079,note_on,,,,,29,0,2,,,,1,,34,91
25091,note_off,,,,,12,0,2,,,,1,,49,57
25119,note_on,,,,,28,0,2,,,,1,,41,87
25120,set_tempo,,,,,80,1,0,555556,,,,,,
25130,note_off,,,,,11,0,2,,,,1,,34,59
25159,note_on,,,,,29,0,2,,,,1,,49,85
25168,note_off,,,,,9,0,2,,,,1,,41,57
25183,note_off,,,,,203,0,1,,,,0,,73,64
25186,note_off,,,,,3,0,1,,,,0,,85,65
25200,note_on,,,,,14,0,1,,,,0,,70,96
25200,note_off,,,,,32,0,2,,,,1,,49,57
25200,note_on,,,,,0,0,2,,,,1,,34,94
25200,set_tempo,,,,,80,1,0,545455,,,,,,
25201,note_on,,,,,1,0,1,,,,0,,82,99
25240,set_tempo,,,,,40,1,0,555556,,,,,,
25241,note_on,,,,,41,0,2,,,,1,,41,93
25249,note_off,,,,,8,0,2,,,,1,,34,59
25279,note_on,,,,,30,0,2,,,,1,,49,90
25280,set_tempo,,,,,40,1,0,545455,,,,,,
25292,note_off,,,,,13,0,2,,,,1,,41,58
25309,note_off,,,,,108,0,1,,,,0,,70,61
25310,note_off,,,,,1,0,1,,,,0,,82,61
25319,note_on,,,,,27,0,2,,,,1,,34,88
25320,note_on,,,,,10,0,1,,,,0,,65,96
25320,set_tempo,,,,,40,1,0,535714,,,,,,
25321,note_on,,,,,1,0,1,,,,0,,77,98
25330,note_off,,,,,11,0,2,,,,1,,49,59
25359,note_on,,,,,29,0,2,,,,1,,41,84
25369,note_off,,,,,10,0,2,,,,1,,34,58
25400,note_on,,,,,31,0,2,,,,1,,49,77
25409,note_off,,,,,9,0,2,,,,1,,41,58
25440,note_on,,,,,31,0,2,,,,1,,34,85
25449,note_off,,,,,9,0,2,,,,1,,49,59
25480,set_tempo,,,,,160,1,0,545455,,,,,,
25481,note_on,,,,,32,0,2,,,,1,,41,78
25489,note_off,,,,,8,0,2,,,,1,,34,57
25519,note_on,,,,,30,0,2,,,,1,,49,69
25520,set_tempo,,,,,40,1,0,555556,,,,,,
25530,note_off,,,,,11,0,2,,,,1,,41,57
25544,note_off,,,,,223,0,1,,,,0,,65,65
25545,note_off,,,,,1,0,1,,,,0,,77,63
25558,note_off,,,,,28,0,2,,,,1,,49,59
25559,note_on,,,,,1,0,2,,,,1,,34,78
25559,note_on,,,,,14,0,1,,,,0,,82,91
25560,set_tempo,,,,,40,1,0,545455,,,,,,
25561,note_on,,,,,2,0,1,,,,0,,70,87
25600,set_tempo,,,,,40,1,0,535714,,,,,,
25600,note_on,,,,,41,0,2,,,,1,,41,70
25610,note_off,,,,,10,0,2,,,,1,,34,58
25640,set_tempo,,,,,40,1,0,666667,,,,,,
25641,note_on,,,,,31,0,2,,,,1,,49,63
25649,note_off,,,,,8,0,2,,,,1,,41,57
25668,note_off,,,,,107,0,1,,,,0,,82,61
25671,note_off,,,,,3,0,1,,,,0,,70,62
25679,note_on,,,,,8,0,1,,,,0,,73,82
25680,note_on,,,,,31,0,2,,,,1,,29,70
25680,control_change,,,,,0,0,2,,64,0,1,,,
25680,set_tempo,,,,,40,1,0,582524,,,,,,
25680,control_change,,,,,1,0,1,,64,0,0,,,
25681,note_on,,,,,1,0,1,,,,0,,85,87
25692,note_off,,,,,12,0,2,,,,1,,49,58
25700,control_change,,,,,8,0,2,,64,127,1,,,
25700,control_change,,,,,19,0,1,,64,127,0,,,
25721,note_on,,,,,21,0,2,,,,1,,41,67
25730,note_off,,,,,9,0,2,,,,1,,29,57
25760,set_tempo,,,,,80,1,0,697674,,,,,,
25760,note_on,,,,,30,0,2,,,,1,,49,58
25770,note_off,,,,,10,0,2,,,,1,,41,58
25799,note_on,,,,,29,0,2,,,,1,,29,67
25800,set_tempo,,,,,40,1,0,571429,,,,,,
25809,note_off,,,,,10,0,2,,,,1,,49,59
25839,note_on,,,,,30,0,2,,,,1,,41,61
25840,set_tempo,,,,,40,1,0,555556,,,,,,
25848,note_off,,,,,9,0,2,,,,1,,29,58
25880,set_tempo,,,,,40,1,0,666667,,,,,,
25881,note_on,,,,,33,0,2,,,,1,,49,57
25890,note_off,,,,,9,0,2,,,,1,,41,58
25903,note_off,,,,,203,0,1,,,,0,,73,65
25906,note_off,,,,,3,0,1,,,,0,,85,63
25919,note_on,,,,,29,0,2,,,,1,,29,66
25920,set_tempo,,,,,40,1,0,571429,,,,,,
25920,note_on,,,,,14,0,1,,,,0,,77,78
25921,note_off,,,,,2,0,2,,,,1,,49,58
25921,note_on,,,,,1,0,1,,,,0,,89,81
25961,note_on,,,,,40,0,2,,,,1,,41,60
25970,note_off,,,,,9,0,2,,,,1,,29,59
25999,note_on,,,,,29,0,2,,,,1,,49,56
26000,set_tempo,,,,,80,1,0,566038,,,,,,
26012,note_off,,,,,13,0,2,,,,1,,41,58
26030,note_off,,,,,109,0,1,,,,0,,77,61
26032,note_off,,,,,2,0,1,,,,0,,89,60
26039,note_on,,,,,7,0,1,,,,0,,82,74
26040,set_tempo,,,,,40,1,0,555556,,,,,,
26041,note_on,,,,,2,0,1,,,,0,,70,74
26041,note_on,,,,,29,0,2,,,,1,,32,65
26048,note_off,,,,,7,0,2,,,,1,,49,57
26081,note_on,,,,,33,0,2,,,,1,,41,57
26092,note_off,,,,,11,0,2,,,,1,,32,59
26120,set_tempo,,,,,80,1,0,545455,,,,,,
26121,note_on,,,,,29,0,2,,,,1,,49,55
26132,note_off,,,,,11,0,2,,,,1,,41,59
26150,note_off,,,,,109,0,1,,,,0,,70,62
26150,note_off,,,,,0,0,1,,,,0,,82,60
26160,set_tempo,,,,,40,1,0,571429,,,,,,
26161,note_on,,,,,29,0,2,,,,1,,34,60
26170,note_off,,,,,9,0,2,,,,1,,49,58
26270,note_off,,,,,100,0,2,,,,1,,34,62
26280,note_on,,,,,10,0,2,,,,1,,41,66
26280,control_change,,,,,130,0,1,,64,0,0,,,
26280,control_change,,,,,0,0,2,,64,0,1,,,
26281,note_on,,,,,1,0,2,,,,1,,53,69
26281,note_on,,,,,0,0,1,,,,0,,73,66
26281,note_on,,,,,1,0,1,,,,0,,61,61
26331,note_off,,,,,50,0,1,,,,0,,61,58
26332,note_off,,,,,1,0,1,,,,0,,73,57
26340,set_tempo,,,,,180,1,0,594059,,,,,,
26399,note_on,,,,,67,0,1,,,,0,,73,61
26400,set_tempo,,,,,60,1,0,571429,,,,,,
26401,note_on,,,,,2,0,1,,,,0,,61,57
26448,note_off,,,,,47,0,1,,,,0,,73,59
26451,note_off,,,,,3,0,1,,,,0,,61,57
26510,note_off,,,,,229,0,2,,,,1,,41,64
26511,note_off,,,,,1,0,2,,,,1,,53,63
26519,note_on,,,,,8,0,2,,,,1,,56,72
26520,note_on,,,,,1,0,2,,,,1,,44,72
26520,set_tempo,,,,,120,1,0,566038,,,,,,
26521,note_on,,,,,70,0,1,,,,0,,61,52
26559,note_on,,,,,38,0,1,,,,0,,65,57
26560,set_tempo,,,,,40,1,0,555556,,,,,,
26571,note_off,,,,,12,0,1,,,,0,,61,58
26599,note_on,,,,,28,0,1,,,,0,,73,62
26600,set_tempo,,,,,40,1,0,545455,,,,,,
26608,note_off,,,,,9,0,1,,,,0,,65,59
26628,note_off,,,,,108,0,2,,,,1,,56,61
26630,note_off,,,,,2,0,2,,,,1,,44,61
26638,note_off,,,,,30,0,1,,,,0,,73,58
26639,note_on,,,,,1,0,1,,,,0,,77,75
26639,note_on,,,,,9,0,2,,,,1,,41,69
26640,set_tempo,,,,,40,1,0,535714,,,,,,
26640,note_on,,,,,0,0,2,,,,1,,53,72
26640,control_change,,,,,1,0,2,,64,0,1,,,
26640,control_change,,,,,1,0,1,,64,0,0,,,
26660,control_change,,,,,20,0,2,,64,127,1,,,
26660,control_change,,,,,20,0,1,,64,127,0,,,
26680,set_tempo,,,,,40,1,0,545455,,,,,,
26681,note_on,,,,,21,0,1,,,,0,,73,66
26720,set_tempo,,,,,40,1,0,566038,,,,,,
26721,note_on,,,,,40,0,1,,,,0,,68,59
26731,note_off,,,,,10,0,1,,,,0,,73,59
26750,note_off,,,,,19,0,1,,,,0,,77,60
26759,note_on,,,,,9,0,1,,,,0,,77,77
26771,note_off,,,,,12,0,1,,,,0,,68,58
26801,note_on,,,,,30,0,1,,,,0,,73,64
26839,note_on,,,,,38,0,1,,,,0,,68,59
26851,note_off,,,,,12,0,1,,,,0,,73,59
26868,note_off,,,,,17,0,1,,,,0,,77,60
26869,note_off,,,,,209,0,2,,,,1,,41,63
26870,note_off,,,,,1,0,2,,,,1,,53,63
26879,note_on,,,,,9,0,2,,,,1,,37,68
26879,note_on,,,,,0,0,2,,,,1,,49,68
26879,note_on,,,,,0,0,1,,,,0,,80,81
26879,note_on,,,,,11,0,1,,,,0,,77,69
26880,control_change,,,,,1,0,1,,64,0,0,,,
26880,control_change,,,,,1,0,2,,64,0,1,,,
26889,note_off,,,,,9,0,1,,,,0,,68,59
26900,control_change,,,,,11,0,1,,64,127,0,,,
26900,control_change,,,,,20,0,2,,64,127,1,,,
26919,note_on,,,,,19,0,1,,,,0,,73,65
26920,set_tempo,,,,,200,1,0,545455,,,,,,
26928,note_off,,,,,9,0,1,,,,0,,77,59
26960,set_tempo,,,,,40,1,0,555556,,,,,,
26960,note_on,,,,,32,0,1,,,,0,,68,58
26970,note_off,,,,,10,0,1,,,,0,,73,59
26988,note_off,,,,,18,0,1,,,,0,,80,60
26989,note_off,,,,,89,0,2,,,,1,,49,60
26989,note_off,,,,,0,0,2,,,,1,,37,60
26999,note_off,,,,,11,0,1,,,,0,,68,58
26999,note_on,,,,,10,0,2,,,,1,,32,65
27000,set_tempo,,,,,40,1,0,566038,,,,,,
27000,note_on,,,,,1,0,2,,,,1,,44,65
27001,note_on,,,,,2,0,1,,,,0,,77,78
27040,set_tempo,,,,,40,1,0,535714,,,,,,
27040,note_on,,,,,39,0,1,,,,0,,73,66
27080,set_tempo,,,,,40,1,0,566038,,,,,,
27081,note_on,,,,,41,0,1,,,,0,,68,55
27090,note_off,,,,,9,0,1,,,,0,,73,58
27108,note_off,,,,,108,0,2,,,,1,,32,62
27109,note_off,,,,,1,0,2,,,,1,,44,61
27112,note_off,,,,,22,0,1,,,,0,,77,60
27119,note_on,,,,,7,0,1,,,,0,,77,73
27120,note_on,,,,,11,0,2,,,,1,,37,68
27120,control_change,,,,,0,0,2,,64,0,1,,,
27120,note_on,,,,,0,0,2,,,,1,,49,73
27120,control_change,,,,,1,0,1,,64,0,0,,,
27130,note_off,,,,,10,0,1,,,,0,,68,57
27140,control_change,,,,,10,0,1,,64,127,0,,,
27140,control_change,,,,,20,0,2,,64,127,1,,,
27159,note_on,,,,,19,0,1,,,,0,,73,65
27160,set_tempo,,,,,80,1,0,545455,,,,,,
27168,note_off,,,,,9,0,1,,,,0,,77,57
27200,note_on,,,,,32,0,1,,,,0,,68,60
27200,set_tempo,,,,,40,1,0,566038,,,,,,
27210,note_off,,,,,10,0,1,,,,0,,73,57
27239,note_on,,,,,29,0,1,,,,0,,73,72
27240,set_tempo,,,,,40,1,0,545455,,,,,,
27250,note_off,,,,,11,0,1,,,,0,,68,58
27280,set_tempo,,,,,40,1,0,555556,,,,,,
27281,note_on,,,,,31,0,1,,,,0,,68,65
27290,note_off,,,,,9,0,1,,,,0,,73,59
27319,note_on,,,,,29,0,1,,,,0,,65,63
27320,set_tempo,,,,,40,1,0,566038,,,,,,
27330,note_off,,,,,11,0,1,,,,0,,68,57
27345,note_off,,,,,205,0,2,,,,1,,49,63
27345,note_off,,,,,0,0,2,,,,1,,37,65
27359,note_off,,,,,29,0,1,,,,0,,65,59
27360,note_on,,,,,15,0,2,,,,1,,53,77
27360,note_on,,,,,1,0,1,,,,0,,68,77
27361,note_on,,,,,1,0,2,,,,1,,41,76
27361,note_on,,,,,1,0,1,,,,0,,61,73
27399,note_on,,,,,38,0,1,,,,0,,56,69
27400,set_tempo,,,,,80,1,0,555556,,,,,,
27409,note_off,,,,,10,0,1,,,,0,,68,58
27410,note_off,,,,,1,0,1,,,,0,,61,58
27440,set_tempo,,,,,40,1,0,545455,,,,,,
27441,note_on,,,,,31,0,1,,,,0,,61,64
27448,note_off,,,,,7,0,1,,,,0,,56,59
27471,note_off,,,,,110,0,2,,,,1,,41,62
27471,note_off,,,,,0,0,2,,,,1,,53,61
27479,note_on,,,,,31,0,1,,,,0,,65,77
27479,note_on,,,,,8,0,2,,,,1,,44,80
27479,note_on,,,,,0,0,1,,,,0,,73,78
27480,note_on,,,,,1,0,2,,,,1,,56,85
27480,set_tempo,,,,,40,1,0,535714,,,,,,
27490,note_off,,,,,11,0,1,,,,0,,61,59
27520,note_on,,,,,30,0,1,,,,0,,61,75
27520,set_tempo,,,,,40,1,0,545455,,,,,,
27528,note_off,,,,,8,0,1,,,,0,,65,59
27529,note_off,,,,,1,0,1,,,,0,,73,58
27560,set_tempo,,,,,40,1,0,566038,,,,,,
27561,note_on,,,,,32,0,1,,,,0,,65,69
27571,note_off,,,,,10,0,1,,,,0,,61,59
27601,note_on,,,,,30,0,1,,,,0,,73,82
27612,note_off,,,,,11,0,1,,,,0,,65,58
27641,note_on,,,,,29,0,1,,,,0,,68,78
27652,note_off,,,,,11,0,1,,,,0,,73,57
27679,note_on,,,,,27,0,1,,,,0,,65,75
27691,note_off,,,,,12,0,1,,,,0,,68,57
27704,note_off,,,,,224,0,2,,,,1,,44,65
27705,note_off,,,,,1,0,2,,,,1,,56,65
27719,note_off,,,,,28,0,1,,,,0,,65,59
27719,note_on,,,,,0,0,2,,,,1,,41,86
27719,note_on,,,,,0,0,1,,,,0,,77,86
27719,note_on,,,,,14,0,2,,,,1,,53,87
27720,set_tempo,,,,,160,1,0,535714,,,,,,
27759,note_on,,,,,40,0,1,,,,0,,73,81
27760,set_tempo,,,,,40,1,0,555556,,,,,,
27768,note_off,,,,,9,0,1,,,,0,,77,59
27800,set_tempo,,,,,40,1,0,535714,,,,,,
27801,note_on,,,,,33,0,1,,,,0,,68,75
27810,note_off,,,,,9,0,1,,,,0,,73,59
27829,note_off,,,,,110,0,2,,,,1,,53,62
27830,note_off,,,,,1,0,2,,,,1,,41,60
27839,note_on,,,,,9,0,2,,,,1,,37,88
27840,set_tempo,,,,,40,1,0,545455,,,,,,
27840,note_on,,,,,1,0,2,,,,1,,49,88
27841,note_on,,,,,31,0,1,,,,0,,80,89
27852,note_off,,,,,11,0,1,,,,0,,68,59
27880,set_tempo,,,,,40,1,0,555556,,,,,,
27881,note_on,,,,,29,0,1,,,,0,,77,86
27891,note_off,,,,,10,0,1,,,,0,,80,59
27920,note_on,,,,,29,0,1,,,,0,,73,79
27932,note_off,,,,,12,0,1,,,,0,,77,58
27959,note_on,,,,,27,0,1,,,,0,,77,93
27960,set_tempo,,,,,80,1,0,545455,,,,,,
27971,note_off,,,,,12,0,1,,,,0,,73,59
28000,set_tempo,,,,,40,1,0,535714,,,,,,
28001,note_on,,,,,30,0,1,,,,0,,73,90
28010,note_off,,,,,9,0,1,,,,0,,77,57
28039,note_on,,,,,29,0,1,,,,0,,77,79
28040,set_tempo,,,,,40,1,0,555556,,,,,,
28052,note_off,,,,,13,0,1,,,,0,,73,57
28064,note_off,,,,,224,0,2,,,,1,,37,63
28066,note_off,,,,,2,0,2,,,,1,,49,63
28070,note_off,,,,,18,0,1,,,,0,,77,58
28079,note_on,,,,,9,0,1,,,,0,,77,94
28080,control_change,,,,,1,0,1,,64,0,0,,,
28080,control_change,,,,,0,0,2,,64,0,1,,,
28080,note_on,,,,,14,0,2,,,,1,,34,90
28080,set_tempo,,,,,40,1,0,535714,,,,,,
28081,note_on,,,,,1,0,2,,,,1,,46,93
28100,control_change,,,,,19,0,2,,64,127,1,,,
28100,control_change,,,,,20,0,1,,64,127,0,,,
28120,set_tempo,,,,,40,1,0,545455,,,,,,
28121,note_on,,,,,21,0,1,,,,0,,73,88
28129,note_off,,,,,8,0,1,,,,0,,77,59
28161,note_on,,,,,32,0,1,,,,0,,65,80
28170,note_off,,,,,9,0,1,,,,0,,73,59
28191,note_off,,,,,91,0,2,,,,1,,46,61
28191,note_off,,,,,0,0,2,,,,1,,34,62
28199,note_on,,,,,29,0,1,,,,0,,73,87
28199,note_on,,,,,8,0,2,,,,1,,29,87
28200,control_change,,,,,1,0,1,,64,0,0,,,
28200,control_change,,,,,1,0,2,,64,0,1,,,
28200,set_tempo,,,,,80,1,0,555556,,,,,,
28201,note_on,,,,,1,0,2,,,,1,,41,88
28211,note_off,,,,,11,0,1,,,,0,,65,58
28230,control_change,,,,,29,0,2,,64,127,1,,,
28230,control_change,,,,,19,0,1,,64,127,0,,,
28240,set_tempo,,,,,40,1,0,545455,,,,,,
28241,note_on,,,,,11,0,1,,,,0,,70,79
28248,note_off,,,,,7,0,1,,,,0,,73,57
28279,note_on,,,,,31,0,1,,,,0,,65,73
28280,set_tempo,,,,,40,1,0,535714,,,,,,
28292,note_off,,,,,13,0,1,,,,0,,70,59
28320,set_tempo,,,,,40,1,0,566038,,,,,,
28321,note_on,,,,,29,0,1,,,,0,,73,81
28329,note_off,,,,,8,0,1,,,,0,,65,57
28359,note_on,,,,,30,0,1,,,,0,,70,75
28360,set_tempo,,,,,40,1,0,545455,,,,,,
28370,note_off,,,,,11,0,1,,,,0,,73,58
28399,note_on,,,,,29,0,1,,,,0,,65,68
28400,set_tempo,,,,,40,1,0,555556,,,,,,
28409,note_off,,,,,10,0,1,,,,0,,70,57
28423,note_off,,,,,193,0,2,,,,1,,29,64
28425,note_off,,,,,2,0,2,,,,1,,41,64
28439,note_on,,,,,14,0,2,,,,1,,46,80
28439,note_off,,,,,30,0,1,,,,0,,65,58
28439,note_on,,,,,0,0,2,,,,1,,34,80
28440,note_on,,,,,1,0,1,,,,0,,70,72
28440,set_tempo,,,,,40,1,0,566038,,,,,,
28479,note_on,,,,,39,0,1,,,,0,,65,68
28491,note_off,,,,,12,0,1,,,,0,,70,59
28519,note_on,,,,,28,0,1,,,,0,,61,66
28528,note_off,,,,,9,0,1,,,,0,,65,58
28549,note_off,,,,,110,0,2,,,,1,,34,60
28549,note_off,,,,,0,0,2,,,,1,,46,62
28559,note_on,,,,,31,0,1,,,,0,,65,69
28560,note_on,,,,,11,0,2,,,,1,,37,73
28560,control_change,,,,,1,0,1,,64,0,0,,,
28560,control_change,,,,,0,0,2,,64,0,1,,,
28560,set_tempo,,,,,120,1,0,555556,,,,,,
28561,note_on,,,,,1,0,2,,,,1,,49,77
28570,note_off,,,,,10,0,1,,,,0,,61,58
28580,control_change,,,,,10,0,1,,64,127,0,,,
28580,control_change,,,,,19,0,2,,64,127,1,,,
28600,set_tempo,,,,,40,1,0,535714,,,,,,
28601,note_on,,,,,21,0,1,,,,0,,61,64
28609,note_off,,,,,8,0,1,,,,0,,65,58
28640,set_tempo,,,,,40,1,0,555556,,,,,,
28641,note_on,,,,,32,0,1,,,,0,,58,58
28652,note_off,,,,,11,0,1,,,,0,,61,57
28679,note_on,,,,,27,0,1,,,,0,,65,65
28680,set_tempo,,,,,40,1,0,566038,,,,,,
28691,note_off,,,,,12,0,1,,,,0,,58,59
28721,note_on,,,,,30,0,1,,,,0,,61,64
28728,note_off,,,,,7,0,1,,,,0,,65,57
28760,note_on,,,,,32,0,1,,,,0,,58,58
28771,note_off,,,,,11,0,1,,,,0,,61,59
28785,note_off,,,,,205,0,2,,,,1,,37,64
28787,note_off,,,,,2,0,2,,,,1,,49,63
28799,note_on,,,,,0,0,1,,,,0,,61,60
28799,note_off,,,,,28,0,1,,,,0,,58,57
28800,set_tempo,,,,,120,1,0,555556,,,,,,
28800,note_on,,,,,1,0,1,,,,0,,70,65
28801,note_on,,,,,0,0,2,,,,1,,53,69
28801,note_on,,,,,14,0,2,,,,1,,41,66
28840,note_on,,,,,40,0,1,,,,0,,58,59
28850,note_off,,,,,10,0,1,,,,0,,70,59
28850,note_off,,,,,0,0,1,,,,0,,61,57
28880,set_tempo,,,,,80,1,0,535714,,,,,,
28881,note_on,,,,,31,0,1,,,,0,,61,57
28891,note_off,,,,,10,0,1,,,,0,,58,59
28911,note_off,,,,,110,0,2,,,,1,,53,60
28911,note_off,,,,,0,0,2,,,,1,,41,61
28920,control_change,,,,,0,0,2,,64,0,1,,,
28920,note_on,,,,,29,0,1,,,,0,,73,62
28920,control_change,,,,,0,0,1,,64,0,0,,,
28920,note_on,,,,,9,0,2,,,,1,,46,65
28920,set_tempo,,,,,40,1,0,555556,,,,,,
28921,note_on,,,,,1,0,2,,,,1,,34,60
28932,note_off,,,,,12,0,1,,,,0,,61,57
28940,control_change,,,,,8,0,1,,64,127,0,,,
28940,control_change,,,,,19,0,2,,64,127,1,,,
28959,note_on,,,,,19,0,1,,,,0,,70,58
28960,set_tempo,,,,,40,1,0,535714,,,,,,
28970,note_off,,,,,11,0,1,,,,0,,73,59
28999,note_on,,,,,29,0,1,,,,0,,65,55
29008,note_off,,,,,9,0,1,,,,0,,70,57
29030,note_off,,,,,90,0,2,,,,1,,34,62
29031,note_off,,,,,1,0,2,,,,1,,46,60
29040,set_tempo,,,,,80,1,0,545455,,,,,,
29041,note_on,,,,,33,0,1,,,,0,,73,61
29049,note_off,,,,,8,0,1,,,,0,,65,57
29079,note_on,,,,,30,0,1,,,,0,,70,57
29080,set_tempo,,,,,40,1,0,535714,,,,,,
29091,note_off,,,,,12,0,1,,,,0,,73,59
29120,note_on,,,,,29,0,1,,,,0,,65,52
29120,set_tempo,,,,,40,1,0,566038,,,,,,
29130,note_off,,,,,10,0,1,,,,0,,70,59
29159,note_off,,,,,29,0,1,,,,0,,65,59
29160,set_tempo,,,,,40,1,0,555556,,,,,,
29161,note_on,,,,,2,0,1,,,,0,,77,59
29200,set_tempo,,,,,40,1,0,535714,,,,,,
29201,note_on,,,,,40,0,1,,,,0,,73,57
29212,note_off,,,,,11,0,1,,,,0,,77,59
29240,set_tempo,,,,,40,1,0,555556,,,,,,
29241,note_on,,,,,29,0,1,,,,0,,65,50
29250,note_off,,,,,9,0,1,,,,0,,73,58
29279,note_on,,,,,29,0,1,,,,0,,70,57
29279,note_on,,,,,248,0,2,,,,1,,61,57
29280,set_tempo,,,,,40,1,0,566038,,,,,,
29292,note_off,,,,,13,0,1,,,,0,,65,58
29319,note_on,,,,,40,0,2,,,,1,,58,55
29320,set_tempo,,,,,40,1,0,582524,,,,,,
29329,note_off,,,,,10,0,2,,,,1,,61,58
29360,set_tempo,,,,,40,1,0,606061,,,,,,
29361,note_on,,,,,32,0,2,,,,1,,53,48
29370,note_off,,,,,9,0,2,,,,1,,58,58
29390,note_off,,,,,98,0,1,,,,0,,70,61
29399,note_on,,,,,29,0,2,,,,1,,61,56
29400,set_tempo,,,,,40,1,0,631579,,,,,,
29411,note_off,,,,,12,0,2,,,,1,,53,57
29440,set_tempo,,,,,40,1,0,659341,,,,,,
29441,note_on,,,,,30,0,2,,,,1,,58,51
29450,note_off,,,,,9,0,2,,,,1,,61,59
29480,note_on,,,,,30,0,2,,,,1,,53,45
29480,set_tempo,,,,,40,1,0,681818,,,,,,
29492,note_off,,,,,12,0,2,,,,1,,58,57
29519,note_off,,,,,27,0,2,,,,1,,53,58
29520,set_tempo,,,,,40,1,0,750000,,,,,,
29521,note_on,,,,,2,0,2,,,,1,,65,53
29559,note_on,,,,,38,0,2,,,,1,,61,49
29560,set_tempo,,,,,40,1,0,845070,,,,,,
29572,note_off,,,,,13,0,2,,,,1,,65,59
29600,set_tempo,,,,,40,1,0,2307692,,,,,,
29601,note_on,,,,,29,0,2,,,,1,,53,45
29610,control_change,,,,,0,0,2,,64,0,1,,,
29610,control_change,,,,,220,0,1,,64,0,0,,,
29610,note_off,,,,,9,0,2,,,,1,,61,58
29626,note_off,,,,,16,0,2,,,,1,,53,59
29639,note_on,,,,,13,0,2,,,,1,,58,48
29640,marker,,,,,0,1,0,,,,,,,
29640,set_tempo,,,,,40,1,0,410959,,,,,,
29640,note_on,,,,,30,0,1,,,,0,,70,55
29688,note_off,,,,,49,0,2,,,,1,,58,58
29691,note_off,,,,,51,0,1,,,,0,,70,59
29759,note_on,,,,,68,0,1,,,,0,,73,58
29760,set_tempo,,,,,120,1,0,382166,,,,,,
29760,note_on,,,,,72,0,2,,,,1,,61,51
29809,note_off,,,,,50,0,1,,,,0,,73,59
29809,note_off,,,,,49,0,2,,,,1,,61,58
29879,note_on,,,,,70,0,1,,,,0,,72,57
29881,note_on,,,,,72,0,2,,,,1,,60,53
29929,note_off,,,,,50,0,1,,,,0,,72,58
29931,note_off,,,,,50,0,2,,,,1,,60,57
30000,set_tempo,,,,,240,1,0,387097,,,,,,
30000,note_on,,,,,69,0,2,,,,1,,53,56
30001,note_on,,,,,72,0,1,,,,0,,65,57
30051,note_off,,,,,51,0,2,,,,1,,53,57
30052,note_off,,,,,51,0,1,,,,0,,65,58
30119,note_on,,,,,67,0,1,,,,0,,77,65
30121,note_on,,,,,70,0,2,,,,1,,65,60
30170,note_off,,,,,51,0,1,,,,0,,77,57
30172,note_off,,,,,51,0,2,,,,1,,65,59
30240,note_on,,,,,68,0,2,,,,1,,63,56
30240,note_on,,,,,70,0,1,,,,0,,75,58
30289,note_off,,,,,49,0,2,,,,1,,63,58
30291,note_off,,,,,51,0,1,,,,0,,75,57
30360,set_tempo,,,,,360,1,0,382166,,,,,,
30360,note_on,,,,,71,0,2,,,,1,,61,54
30360,note_on,,,,,69,0,1,,,,0,,73,56
30409,note_off,,,,,49,0,2,,,,1,,61,59
30411,note_off,,,,,51,0,1,,,,0,,73,59
30479,note_on,,,,,70,0,2,,,,1,,60,52
30481,note_on,,,,,70,0,1,,,,0,,72,53
30528,note_off,,,,,49,0,2,,,,1,,60,57
30531,note_off,,,,,50,0,1,,,,0,,72,58
30599,note_on,,,,,71,0,2,,,,1,,58,49
30600,note_on,,,,,69,0,1,,,,0,,70,53
30649,note_off,,,,,50,0,2,,,,1,,58,58
30650,note_off,,,,,50,0,1,,,,0,,70,59
30719,note_on,,,,,70,0,2,,,,1,,61,54
30721,note_on,,,,,71,0,1,,,,0,,73,60
30768,note_off,,,,,49,0,2,,,,1,,61,59
30770,note_off,,,,,49,0,1,,,,0,,73,58
30839,note_on,,,,,71,0,2,,,,1,,60,54
30840,set_tempo,,,,,480,1,0,387097,,,,,,
30841,note_on,,,,,71,0,1,,,,0,,72,56
30889,note_off,,,,,50,0,2,,,,1,,60,59
30892,note_off,,,,,51,0,1,,,,0,,72,57
30960,set_tempo,,,,,120,1,0,382166,,,,,,
30961,note_on,,,,,69,0,1,,,,0,,68,55
30961,note_on,,,,,72,0,2,,,,1,,56,53
31010,note_off,,,,,49,0,1,,,,0,,68,59
31011,note_off,,,,,50,0,2,,,,1,,56,59
31079,note_on,,,,,68,0,2,,,,1,,60,62
31080,note_on,,,,,70,0,1,,,,0,,72,63
31130,note_off,,,,,50,0,1,,,,0,,72,57
31130,note_off,,,,,51,0,2,,,,1,,60,59
31200,set_tempo,,,,,240,1,0,387097,,,,,,
31200,note_on,,,,,70,0,1,,,,0,,67,55
31200,note_on,,,,,70,0,2,,,,1,,55,56
31249,note_off,,,,,49,0,2,,,,1,,55,58
31251,note_off,,,,,51,0,1,,,,0,,67,58
31320,control_change,,,,,69,0,1,,64,0,0,,,
31320,control_change,,,,,71,0,2,,64,0,1,,,
31320,set_tempo,,,,,120,1,0,410959,,,,,,
31321,note_on,,,,,1,0,2,,,,1,,53,54
31321,note_on,,,,,1,0,1,,,,0,,65,51
31360,control_change,,,,,39,0,1,,64,127,0,,,
31360,control_change,,,,,39,0,2,,64,127,1,,,
31546,note_off,,,,,186,0,2,,,,1,,53,63
31546,note_off,,,,,186,0,1,,,,0,,65,65
31560,control_change,,,,,14,0,1,,64,0,0,,,
31560,set_tempo,,,,,240,1,0,382166,,,,,,
31560,control_change,,,,,14,0,2,,64,0,1,,,
31561,note_on,,,,,1,0,2,,,,1,,41,67
31561,note_on,,,,,0,0,2,,,,1,,53,69
31611,note_off,,,,,50,0,2,,,,1,,41,58
31612,note_off,,,,,1,0,2,,,,1,,53,59
31619,note_on,,,,,59,0,1,,,,0,,72,65
31620,note_on,,,,,1,0,1,,,,0,,68,64
31620,set_tempo,,,,,60,1,0,387097,,,,,,
31621,note_on,,,,,1,0,1,,,,0,,65,60
31668,note_off,,,,,47,0,1,,,,0,,72,57
31670,note_off,,,,,0,0,1,,,,0,,68,59
31670,note_off,,,,,2,0,1,,,,0,,65,57
31679,note_on,,,,,67,0,2,,,,1,,44,69
31680,set_tempo,,,,,60,1,0,377358,,,,,,
31681,note_on,,,,,2,0,2,,,,1,,56,72
31728,note_off,,,,,47,0,2,,,,1,,44,57
31732,note_off,,,,,4,0,2,,,,1,,56,59
31739,note_on,,,,,69,0,1,,,,0,,72,69
31740,note_on,,,,,1,0,1,,,,0,,65,66
31740,set_tempo,,,,,60,1,0,387097,,,,,,
31741,note_on,,,,,1,0,1,,,,0,,68,66
31789,note_off,,,,,48,0,1,,,,0,,72,57
31790,note_off,,,,,1,0,1,,,,0,,65,57
31792,note_off,,,,,2,0,1,,,,0,,68,58
31799,note_on,,,,,67,0,2,,,,1,,43,72
31800,set_tempo,,,,,60,1,0,382166,,,,,,
31801,note_on,,,,,2,0,2,,,,1,,55,73
31849,note_off,,,,,48,0,2,,,,1,,43,57
31851,note_off,,,,,2,0,2,,,,1,,55,57
31859,note_on,,,,,67,0,1,,,,0,,64,69
31860,note_on,,,,,1,0,1,,,,0,,72,72
31861,note_on,,,,,1,0,1,,,,0,,70,72
31910,note_off,,,,,49,0,1,,,,0,,64,57
31911,note_off,,,,,1,0,1,,,,0,,70,58
31911,note_off,,,,,0,0,1,,,,0,,72,59
31920,set_tempo,,,,,120,1,0,377358,,,,,,
31921,note_on,,,,,70,0,2,,,,1,,36,75
31921,note_on,,,,,0,0,2,,,,1,,48,77
31970,note_off,,,,,49,0,2,,,,1,,48,57
31971,note_off,,,,,1,0,2,,,,1,,36,59
31980,note_on,,,,,69,0,1,,,,0,,64,70
31980,set_tempo,,,,,60,1,0,387097,,,,,,
31981,note_on,,,,,1,0,1,,,,0,,67,71
31981,note_on,,,,,0,0,1,,,,0,,72,73
31981,note_on,,,,,0,0,1,,,,0,,70,72
32030,note_off,,,,,0,0,1,,,,0,,64,59
32030,note_off,,,,,49,0,1,,,,0,,67,57
32031,note_off,,,,,0,0,1,,,,0,,70,58
32031,note_off,,,,,1,0,1,,,,0,,72,59
32040,set_tempo,,,,,60,1,0,377358,,,,,,
32040,note_on,,,,,69,0,2,,,,1,,48,77
32041,note_on,,,,,1,0,2,,,,1,,60,78
32091,note_off,,,,,50,0,2,,,,1,,60,58
32091,note_off,,,,,0,0,2,,,,1,,48,59
32099,note_on,,,,,68,0,1,,,,0,,67,74
32100,set_tempo,,,,,60,1,0,382166,,,,,,
32100,note_on,,,,,1,0,1,,,,0,,64,69
32101,note_on,,,,,1,0,1,,,,0,,72,77
32148,note_off,,,,,47,0,1,,,,0,,67,57
32149,note_off,,,,,1,0,1,,,,0,,64,59
32152,note_off,,,,,3,0,1,,,,0,,72,57
32159,note_on,,,,,68,0,2,,,,1,,58,81
32161,note_on,,,,,2,0,2,,,,1,,46,81
32208,note_off,,,,,47,0,2,,,,1,,58,58
32212,note_off,,,,,4,0,2,,,,1,,46,59
32220,note_on,,,,,68,0,1,,,,0,,64,74
32220,set_tempo,,,,,120,1,0,377358,,,,,,
32221,note_on,,,,,1,0,1,,,,0,,67,75
32221,note_on,,,,,0,0,1,,,,0,,72,76
32271,note_off,,,,,50,0,1,,,,0,,64,57
32272,note_off,,,,,0,0,1,,,,0,,67,57
32272,note_off,,,,,1,0,1,,,,0,,72,57
32280,set_tempo,,,,,60,1,0,382166,,,,,,
32281,note_on,,,,,0,0,2,,,,1,,56,83
32281,note_on,,,,,69,0,2,,,,1,,44,82
32330,note_off,,,,,49,0,2,,,,1,,56,58
32331,note_off,,,,,1,0,2,,,,1,,44,59
32339,note_on,,,,,67,0,1,,,,0,,72,79
32340,note_on,,,,,1,0,1,,,,0,,65,75
32340,note_on,,,,,0,0,1,,,,0,,68,78
32340,set_tempo,,,,,60,1,0,387097,,,,,,
32389,note_off,,,,,49,0,1,,,,0,,65,58
32389,note_off,,,,,0,0,1,,,,0,,72,58
32391,note_off,,,,,2,0,1,,,,0,,68,59
32399,note_on,,,,,68,0,2,,,,1,,43,84
32401,note_on,,,,,2,0,2,,,,1,,55,85
32449,note_off,,,,,48,0,2,,,,1,,43,59
32451,note_off,,,,,2,0,2,,,,1,,55,57
32460,set_tempo,,,,,120,1,0,382166,,,,,,
32460,note_on,,,,,69,0,1,,,,0,,64,78
32461,note_on,,,,,0,0,1,,,,0,,72,81
32461,note_on,,,,,1,0,1,,,,0,,70,79
32510,note_off,,,,,49,0,1,,,,0,,64,57
32511,note_off,,,,,1,0,1,,,,0,,72,58
32511,note_off,,,,,0,0,1,,,,0,,70,57
32519,note_on,,,,,68,0,2,,,,1,,41,87
32520,set_tempo,,,,,60,1,0,377358,,,,,,
32521,note_on,,,,,2,0,2,,,,1,,53,90
32570,note_off,,,,,0,0,2,,,,1,,41,57
32570,note_off,,,,,49,0,2,,,,1,,53,57
32579,note_on,,,,,68,0,1,,,,0,,65,79
32581,note_on,,,,,0,0,1,,,,0,,72,82
32581,note_on,,,,,2,0,1,,,,0,,68,79
32629,note_off,,,,,48,0,1,,,,0,,65,57
32631,note_off,,,,,2,0,1,,,,0,,68,57
32632,note_off,,,,,1,0,1,,,,0,,72,57
32640,note_on,,,,,70,0,2,,,,1,,56,91
32640,set_tempo,,,,,120,1,0,387097,,,,,,
32641,note_on,,,,,1,0,2,,,,1,,44,90
32691,note_off,,,,,50,0,2,,,,1,,56,57
32692,note_off,,,,,1,0,2,,,,1,,44,57
32700,note_on,,,,,0,0,1,,,,0,,77,83
32700,set_tempo,,,,,60,1,0,382166,,,,,,
32700,note_on,,,,,68,0,1,,,,0,,65,78
32701,note_on,,,,,1,0,1,,,,0,,68,80
32701,note_on,,,,,0,0,1,,,,0,,72,82
32749,note_off,,,,,48,0,1,,,,0,,77,57
32750,note_off,,,,,0,0,1,,,,0,,65,57
32750,note_off,,,,,1,0,1,,,,0,,68,57
32751,note_off,,,,,1,0,1,,,,0,,72,59
32759,note_on,,,,,67,0,2,,,,1,,55,94
32760,set_tempo,,,,,60,1,0,377358,,,,,,
32761,note_on,,,,,2,0,2,,,,1,,43,93
32808,note_off,,,,,47,0,2,,,,1,,55,57
32811,note_off,,,,,3,0,2,,,,1,,43,58
32819,note_on,,,,,0,0,1,,,,0,,70,83
32819,note_on,,,,,68,0,1,,,,0,,65,81
32820,note_on,,,,,1,0,1,,,,0,,72,86
32820,note_on,,,,,0,0,1,,,,0,,77,86
32869,note_off,,,,,49,0,1,,,,0,,77,58
32869,note_off,,,,,0,0,1,,,,0,,70,59
32870,note_off,,,,,0,0,1,,,,0,,65,59
32870,note_off,,,,,1,0,1,,,,0,,72,58
32881,note_on,,,,,70,0,2,,,,1,,48,94
32881,note_on,,,,,0,0,2,,,,1,,60,98
32930,note_off,,,,,49,0,2,,,,1,,60,57
32930,note_off,,,,,0,0,2,,,,1,,48,57
32939,note_on,,,,,0,0,1,,,,0,,70,82
32939,note_on,,,,,69,0,1,,,,0,,64,79
32940,note_on,,,,,1,0,1,,,,0,,72,85
32940,set_tempo,,,,,180,1,0,387097,,,,,,
32941,note_on,,,,,1,0,1,,,,0,,76,86
32988,note_off,,,,,47,0,1,,,,0,,64,59
32990,note_off,,,,,2,0,1,,,,0,,76,57
32990,note_off,,,,,0,0,1,,,,0,,72,59
32990,note_off,,,,,0,0,1,,,,0,,70,58
33000,set_tempo,,,,,60,1,0,382166,,,,,,
33000,note_on,,,,,0,0,2,,,,1,,57,101
33000,note_on,,,,,70,0,2,,,,1,,45,98
33049,note_off,,,,,49,0,2,,,,1,,57,57
33051,note_off,,,,,2,0,2,,,,1,,45,59
33060,note_on,,,,,0,0,1,,,,0,,77,87
33060,set_tempo,,,,,60,1,0,387097,,,,,,
33060,note_on,,,,,70,0,1,,,,0,,65,83
33061,note_on,,,,,1,0,1,,,,0,,72,85
33110,note_off,,,,,49,0,1,,,,0,,65,58
33111,note_off,,,,,1,0,1,,,,0,,77,57
33112,note_off,,,,,1,0,1,,,,0,,72,59
33119,note_on,,,,,68,0,2,,,,1,,53,104
33119,note_on,,,,,0,0,2,,,,1,,41,100
33168,note_off,,,,,49,0,2,,,,1,,41,57
33170,note_off,,,,,2,0,2,,,,1,,53,58
33180,note_on,,,,,68,0,1,,,,0,,72,90
33181,note_on,,,,,1,0,1,,,,0,,65,90
33181,note_on,,,,,0,0,1,,,,0,,75,91
33230,note_off,,,,,49,0,1,,,,0,,72,59
33231,note_off,,,,,1,0,1,,,,0,,75,57
33231,note_off,,,,,0,0,1,,,,0,,65,58
33239,note_on,,,,,69,0,2,,,,1,,58,107
33240,note_on,,,,,1,0,2,,,,1,,46,104
33240,set_tempo,,,,,180,1,0,382166,,,,,,
33289,note_off,,,,,49,0,2,,,,1,,46,57
33290,note_off,,,,,1,0,2,,,,1,,58,57
33299,note_on,,,,,68,0,1,,,,0,,73,91
33300,set_tempo,,,,,60,1,0,387097,,,,,,
33300,note_on,,,,,1,0,1,,,,0,,70,91
33301,note_on,,,,,1,0,1,,,,0,,65,89
33349,note_off,,,,,48,0,1,,,,0,,73,59
33350,note_off,,,,,1,0,1,,,,0,,70,58
33352,note_off,,,,,2,0,1,,,,0,,65,58
33360,note_on,,,,,70,0,2,,,,1,,48,109
33360,note_on,,,,,0,0,2,,,,1,,60,112
33360,set_tempo,,,,,60,1,0,382166,,,,,,
33409,note_off,,,,,49,0,2,,,,1,,48,58
33410,note_off,,,,,1,0,2,,,,1,,60,58
33419,note_on,,,,,67,0,1,,,,0,,63,93
33420,set_tempo,,,,,60,1,0,535714,,,,,,
33420,note_on,,,,,1,0,1,,,,0,,72,95
33421,note_on,,,,,1,0,1,,,,0,,69,94
33468,note_off,,,,,47,0,1,,,,0,,63,57
33469,note_off,,,,,1,0,1,,,,0,,72,58
33472,note_off,,,,,3,0,1,,,,0,,69,57
33479,note_on,,,,,7,0,1,,,,0,,77,101
33480,note_on,,,,,0,0,1,,,,0,,82,101
33480,note_on,,,,,0,0,1,,,,0,,70,100
33480,control_change,,,,,1,0,1,,64,0,0,,,
33480,set_tempo,,,,,60,1,0,397351,,,,,,
33480,control_change,,,,,0,0,2,,64,0,1,,,
33480,note_on,,,,,70,0,2,,,,1,,49,111
33520,control_change,,,,,40,0,2,,64,127,1,,,
33520,control_change,,,,,40,0,1,,64,127,0,,,
33529,note_off,,,,,9,0,1,,,,0,,70,59
33530,note_off,,,,,1,0,1,,,,0,,82,57
33530,note_off,,,,,0,0,1,,,,0,,77,58
33530,note_off,,,,,10,0,2,,,,1,,49,57
33540,set_tempo,,,,,60,1,0,392157,,,,,,
33541,note_on,,,,,11,0,2,,,,1,,61,96
33560,control_change,,,,,30,0,1,,64,0,0,,,
33560,control_change,,,,,19,0,2,,64,0,1,,,
33591,note_off,,,,,31,0,2,,,,1,,61,58
33599,note_on,,,,,39,0,1,,,,0,,73,102
33599,note_on,,,,,8,0,2,,,,1,,46,111
33600,control_change,,,,,0,0,1,,64,0,0,,,
33600,note_on,,,,,1,0,1,,,,0,,85,106
33600,control_change,,,,,1,0,2,,64,0,1,,,
33601,note_on,,,,,0,0,1,,,,0,,82,102
33601,note_on,,,,,1,0,1,,,,0,,77,100
33640,control_change,,,,,40,0,2,,64,127,1,,,
33640,control_change,,,,,39,0,1,,64,127,0,,,
33648,note_off,,,,,8,0,2,,,,1,,46,57
33648,note_off,,,,,8,0,1,,,,0,,73,57
33649,note_off,,,,,1,0,1,,,,0,,85,58
33650,note_off,,,,,1,0,1,,,,0,,77,59
33652,note_off,,,,,2,0,1,,,,0,,82,58
33661,note_on,,,,,13,0,2,,,,1,,58,96
33680,control_change,,,,,19,0,2,,64,0,1,,,
33680,control_change,,,,,28,0,1,,64,0,0,,,
33710,note_off,,,,,30,0,2,,,,1,,58,58
33719,note_on,,,,,39,0,1,,,,0,,72,97
33720,control_change,,,,,0,0,1,,64,0,0,,,
33720,note_on,,,,,10,0,2,,,,1,,41,109
33720,note_on,,,,,1,0,1,,,,0,,84,102
33720,control_change,,,,,0,0,2,,64,0,1,,,
33720,set_tempo,,,,,180,1,0,397351,,,,,,
33721,note_on,,,,,1,0,1,,,,0,,77,100
33721,note_on,,,,,0,0,1,,,,0,,81,102
33760,control_change,,,,,39,0,1,,64,127,0,,,
33760,control_change,,,,,40,0,2,,64,127,1,,,
33768,note_off,,,,,8,0,1,,,,0,,72,58
33769,note_off,,,,,9,0,2,,,,1,,41,57
33771,note_off,,,,,0,0,1,,,,0,,84,57
33771,note_off,,,,,3,0,1,,,,0,,81,58
33772,note_off,,,,,1,0,1,,,,0,,77,59
33779,note_on,,,,,10,0,2,,,,1,,53,91
33780,set_tempo,,,,,60,1,0,392157,,,,,,
33800,control_change,,,,,21,0,2,,64,0,1,,,
33800,control_change,,,,,28,0,1,,64,0,0,,,
33830,note_off,,,,,30,0,2,,,,1,,53,58
33840,control_change,,,,,10,0,2,,64,0,1,,,
33840,control_change,,,,,0,0,1,,64,0,0,,,
33840,note_on,,,,,0,0,1,,,,0,,77,99
33840,note_on,,,,,40,0,1,,,,0,,65,89
33840,set_tempo,,,,,60,1,0,397351,,,,,,
33841,note_on,,,,,0,0,1,,,,0,,72,97
33841,note_on,,,,,1,0,1,,,,0,,69,94
33841,note_on,,,,,1,0,2,,,,1,,39,109
33880,control_change,,,,,39,0,1,,64,127,0,,,
33880,control_change,,,,,39,0,2,,64,127,1,,,
33889,note_off,,,,,9,0,1,,,,0,,65,59
33890,note_off,,,,,1,0,1,,,,0,,77,57
33891,note_off,,,,,1,0,1,,,,0,,72,59
33891,note_off,,,,,11,0,2,,,,1,,39,59
33892,note_off,,,,,1,0,1,,,,0,,69,58
33899,note_on,,,,,8,0,2,,,,1,,51,94
33900,set_tempo,,,,,60,1,0,441176,,,,,,
33920,control_change,,,,,21,0,2,,64,0,1,,,
33920,control_change,,,,,28,0,1,,64,0,0,,,
33948,note_off,,,,,28,0,2,,,,1,,51,58
33960,note_on,,,,,40,0,1,,,,0,,77,103
33960,set_tempo,,,,,60,1,0,392157,,,,,,
33960,control_change,,,,,0,0,1,,64,0,0,,,
33960,note_on,,,,,0,0,1,,,,0,,89,105
33960,control_change,,,,,12,0,2,,64,0,1,,,
33961,note_on,,,,,1,0,2,,,,1,,37,110
33961,note_on,,,,,1,0,1,,,,0,,82,104
34000,control_change,,,,,39,0,2,,64,127,1,,,
34000,control_change,,,,,39,0,1,,64,127,0,,,
34009,note_off,,,,,9,0,1,,,,0,,77,57
34011,note_off,,,,,2,0,1,,,,0,,82,58
34011,note_off,,,,,0,0,1,,,,0,,89,58
34012,note_off,,,,,12,0,2,,,,1,,37,58
34021,note_on,,,,,9,0,2,,,,1,,49,96
34040,control_change,,,,,29,0,1,,64,0,0,,,
34040,control_change,,,,,19,0,2,,64,0,1,,,
34072,note_off,,,,,32,0,2,,,,1,,49,57
34079,note_on,,,,,39,0,1,,,,0,,81,98
34079,note_on,,,,,0,0,1,,,,0,,87,101
34080,note_on,,,,,1,0,1,,,,0,,77,99
34080,control_change,,,,,0,0,2,,64,0,1,,,
34080,set_tempo,,,,,120,1,0,400000,,,,,,
34080,note_on,,,,,8,0,2,,,,1,,36,113
34080,control_change,,,,,0,0,1,,64,0,0,,,
34081,note_on,,,,,1,0,1,,,,0,,75,98
34120,control_change,,,,,39,0,1,,64,127,0,,,
34120,control_change,,,,,40,0,2,,64,127,1,,,
34129,note_off,,,,,9,0,2,,,,1,,36,58
34129,note_off,,,,,9,0,1,,,,0,,77,59
34129,note_off,,,,,0,0,1,,,,0,,81,57
34130,note_off,,,,,1,0,1,,,,0,,87,57
34131,note_off,,,,,1,0,1,,,,0,,75,58
34139,note_on,,,,,10,0,2,,,,1,,48,98
34160,control_change,,,,,21,0,2,,64,0,1,,,
34160,control_change,,,,,29,0,1,,64,0,0,,,
34190,note_off,,,,,30,0,2,,,,1,,48,58
34199,note_on,,,,,39,0,1,,,,0,,77,95
34200,note_on,,,,,0,0,1,,,,0,,85,96
34200,control_change,,,,,10,0,2,,64,0,1,,,
34200,control_change,,,,,1,0,1,,64,0,0,,,
34201,note_on,,,,,1,0,2,,,,1,,34,110
34201,note_on,,,,,1,0,1,,,,0,,73,92
34201,note_on,,,,,0,0,1,,,,0,,82,96
34240,control_change,,,,,39,0,2,,64,127,1,,,
34240,control_change,,,,,39,0,1,,64,127,0,,,
34248,note_off,,,,,8,0,1,,,,0,,77,59
34250,note_off,,,,,2,0,1,,,,0,,82,57
34251,note_off,,,,,1,0,1,,,,0,,85,58
34251,note_off,,,,,11,0,2,,,,1,,34,57
34252,note_off,,,,,1,0,1,,,,0,,73,59
34259,note_on,,,,,8,0,2,,,,1,,46,95
34280,control_change,,,,,28,0,1,,64,0,0,,,
34280,control_change,,,,,21,0,2,,64,0,1,,,
34308,note_off,,,,,28,0,2,,,,1,,46,58
34319,note_on,,,,,39,0,1,,,,0,,77,96
34319,note_on,,,,,11,0,2,,,,1,,33,114
34320,set_tempo,,,,,240,1,0,387097,,,,,,
34320,control_change,,,,,0,0,1,,64,0,0,,,
34320,note_on,,,,,1,0,1,,,,0,,72,95
34320,control_change,,,,,1,0,2,,64,0,1,,,
34321,note_on,,,,,1,0,1,,,,0,,84,100
34360,control_change,,,,,40,0,2,,64,127,1,,,
34360,control_change,,,,,39,0,1,,64,127,0,,,
34369,note_off,,,,,9,0,1,,,,0,,77,59
34369,note_off,,,,,9,0,2,,,,1,,33,59
34370,note_off,,,,,1,0,1,,,,0,,84,59
34371,note_off,,,,,1,0,1,,,,0,,72,59
34380,set_tempo,,,,,60,1,0,458015,,,,,,
34380,note_on,,,,,11,0,2,,,,1,,45,101
34400,control_change,,,,,20,0,2,,64,0,1,,,
34400,control_change,,,,,29,0,1,,64,0,0,,,
34429,note_off,,,,,29,0,2,,,,1,,45,57
34439,note_on,,,,,39,0,1,,,,0,,77,99
34439,note_on,,,,,10,0,2,,,,1,,34,109
34440,control_change,,,,,0,0,1,,64,0,0,,,
34440,note_on,,,,,1,0,1,,,,0,,73,96
34440,set_tempo,,,,,60,1,0,387097,,,,,,
34440,control_change,,,,,1,0,2,,64,0,1,,,
34441,note_on,,,,,1,0,1,,,,0,,70,94
34441,note_on,,,,,0,0,1,,,,0,,82,101
34480,control_change,,,,,40,0,2,,64,127,1,,,
34480,control_change,,,,,39,0,1,,64,127,0,,,
34488,note_off,,,,,8,0,2,,,,1,,34,58
34489,note_off,,,,,9,0,1,,,,0,,73,59
34490,note_off,,,,,1,0,1,,,,0,,82,59
34490,note_off,,,,,0,0,1,,,,0,,77,59
34491,note_off,,,,,1,0,1,,,,0,,70,59
34500,set_tempo,,,,,60,1,0,382166,,,,,,
34500,note_on,,,,,12,0,2,,,,1,,46,91
34520,control_change,,,,,29,0,1,,64,0,0,,,
34520,control_change,,,,,20,0,2,,64,0,1,,,
34550,note_off,,,,,30,0,2,,,,1,,46,57
34559,note_on,,,,,9,0,2,,,,1,,34,109
34560,note_on,,,,,40,0,1,,,,0,,73,98
34560,note_on,,,,,0,0,1,,,,0,,82,101
34560,control_change,,,,,1,0,2,,64,0,1,,,
34560,control_change,,,,,0,0,1,,64,0,0,,,
34561,note_on,,,,,1,0,1,,,,0,,77,99
34561,note_on,,,,,0,0,1,,,,0,,85,104
34600,control_change,,,,,39,0,1,,64,127,0,,,
34600,control_change,,,,,40,0,2,,64,127,1,,,
34608,note_off,,,,,8,0,2,,,,1,,34,59
34609,note_off,,,,,9,0,1,,,,0,,73,59
34610,note_off,,,,,1,0,1,,,,0,,77,57
34611,note_off,,,,,1,0,1,,,,0,,85,58
34611,note_off,,,,,0,0,1,,,,0,,82,57
34619,note_on,,,,,11,0,2,,,,1,,46,91
34620,set_tempo,,,,,120,1,0,434783,,,,,,
34640,control_change,,,,,21,0,2,,64,0,1,,,
34640,control_change,,,,,29,0,1,,64,0,0,,,
34668,note_off,,,,,28,0,2,,,,1,,46,58
34680,control_change,,,,,12,0,2,,64,0,1,,,
34680,control_change,,,,,0,0,1,,64,0,0,,,
34680,note_on,,,,,0,0,1,,,,0,,77,100
34680,set_tempo,,,,,60,1,0,392157,,,,,,
34680,note_on,,,,,40,0,1,,,,0,,72,97
34681,note_on,,,,,1,0,1,,,,0,,84,102
34681,note_on,,,,,1,0,2,,,,1,,33,112
34720,control_change,,,,,39,0,1,,64,127,0,,,
34720,control_change,,,,,39,0,2,,64,127,1,,,
34731,note_off,,,,,11,0,1,,,,0,,84,57
34731,note_off,,,,,0,0,1,,,,0,,77,59
34731,note_off,,,,,0,0,1,,,,0,,72,57
34731,note_off,,,,,11,0,2,,,,1,,33,59
34739,note_on,,,,,8,0,2,,,,1,,45,97
34760,control_change,,,,,29,0,1,,64,0,0,,,
34760,control_change,,,,,21,0,2,,64,0,1,,,
34790,note_off,,,,,30,0,2,,,,1,,45,59
34799,note_on,,,,,39,0,1,,,,0,,77,96
34800,note_on,,,,,1,0,1,,,,0,,65,93
34800,control_change,,,,,0,0,1,,64,0,0,,,
34800,note_on,,,,,10,0,2,,,,1,,39,110
34800,note_on,,,,,0,0,1,,,,0,,69,94
34800,control_change,,,,,0,0,2,,64,0,1,,,
34801,note_on,,,,,1,0,1,,,,0,,72,96
34829,note_off,,,,,29,0,2,,,,1,,39,58
34840,control_change,,,,,39,0,1,,64,127,0,,,
34840,control_change,,,,,11,0,2,,64,127,1,,,
34849,note_off,,,,,9,0,1,,,,0,,77,57
34850,note_off,,,,,1,0,1,,,,0,,69,57
34851,note_off,,,,,1,0,1,,,,0,,72,58
34851,note_off,,,,,0,0,1,,,,0,,65,59
34860,note_on,,,,,20,0,2,,,,1,,51,96
34860,set_tempo,,,,,180,1,0,458015,,,,,,
34880,control_change,,,,,20,0,2,,64,0,1,,,
34880,control_change,,,,,29,0,1,,64,0,0,,,
34909,note_off,,,,,29,0,2,,,,1,,51,58
34919,note_on,,,,,39,0,1,,,,0,,77,104
34920,control_change,,,,,1,0,1,,64,0,0,,,
34920,set_tempo,,,,,60,1,0,392157,,,,,,
34920,control_change,,,,,11,0,2,,64,0,1,,,
34921,note_on,,,,,1,0,2,,,,1,,37,111
34921,note_on,,,,,1,0,1,,,,0,,89,105
34960,control_change,,,,,39,0,1,,64,127,0,,,
34960,control_change,,,,,39,0,2,,64,127,1,,,
34970,note_off,,,,,10,0,1,,,,0,,89,57
34970,note_off,,,,,0,0,1,,,,0,,77,57
34972,note_off,,,,,12,0,2,,,,1,,37,59
34979,note_on,,,,,7,0,2,,,,1,,49,98
34980,set_tempo,,,,,60,1,0,410959,,,,,,
35000,control_change,,,,,21,0,2,,64,0,1,,,
35000,control_change,,,,,30,0,1,,64,0,0,,,
35030,note_off,,,,,30,0,2,,,,1,,49,59
35039,note_on,,,,,0,0,1,,,,0,,85,102
35039,note_on,,,,,39,0,1,,,,0,,82,94
35040,control_change,,,,,1,0,1,,64,0,0,,,
35040,control_change,,,,,10,0,2,,64,0,1,,,
35040,set_tempo,,,,,60,1,0,400000,,,,,,
35041,note_on,,,,,1,0,1,,,,0,,73,100
35041,note_on,,,,,1,0,2,,,,1,,34,112
35080,control_change,,,,,39,0,1,,64,127,0,,,
35080,control_change,,,,,39,0,2,,64,127,1,,,
35089,note_off,,,,,9,0,1,,,,0,,85,59
35090,note_off,,,,,10,0,2,,,,1,,34,57
35090,note_off,,,,,1,0,1,,,,0,,82,58
35091,note_off,,,,,1,0,1,,,,0,,73,57
35100,set_tempo,,,,,60,1,0,444444,,,,,,
35101,note_on,,,,,11,0,2,,,,1,,46,99
35120,control_change,,,,,19,0,2,,64,0,1,,,
35120,control_change,,,,,29,0,1,,64,0,0,,,
35151,note_off,,,,,31,0,2,,,,1,,46,57
35159,note_on,,,,,39,0,1,,,,0,,84,105
35160,note_on,,,,,1,0,1,,,,0,,72,103
35160,note_on,,,,,0,0,1,,,,0,,81,106
35160,note_on,,,,,0,0,2,,,,1,,53,109
35160,control_change,,,,,0,0,1,,64,0,0,,,
35160,note_on,,,,,9,0,2,,,,1,,41,107
35160,control_change,,,,,0,0,2,,64,0,1,,,
35160,set_tempo,,,,,60,1,0,441176,,,,,,
35210,control_change,,,,,50,0,2,,64,127,1,,,
35210,control_change,,,,,50,0,1,,64,127,0,,,
35384,note_off,,,,,0,0,1,,,,0,,81,64
35384,note_off,,,,,174,0,1,,,,0,,84,63
35384,note_off,,,,,0,0,1,,,,0,,72,63
35384,note_off,,,,,174,0,2,,,,1,,41,63
35385,note_off,,,,,1,0,2,,,,1,,53,65
35399,note_on,,,,,15,0,1,,,,0,,77,109
35400,control_change,,,,,1,0,1,,64,0,0,,,
35400,control_change,,,,,15,0,2,,64,0,1,,,
35400,set_tempo,,,,,240,1,0,392157,,,,,,
35401,note_on,,,,,1,0,2,,,,1,,61,112
35401,note_on,,,,,1,0,1,,,,0,,89,111
35440,control_change,,,,,39,0,1,,64,127,0,,,
35440,control_change,,,,,39,0,2,,64,127,1,,,
35450,note_off,,,,,10,0,1,,,,0,,77,59
35452,note_off,,,,,12,0,2,,,,1,,61,57
35452,note_off,,,,,2,0,1,,,,0,,89,59
35460,set_tempo,,,,,60,1,0,410959,,,,,,
35460,note_on,,,,,8,0,2,,,,1,,73,96
35480,control_change,,,,,28,0,1,,64,0,0,,,
35480,control_change,,,,,20,0,2,,64,0,1,,,
35509,note_off,,,,,29,0,2,,,,1,,73,59
35519,note_on,,,,,39,0,1,,,,0,,82,104
35520,control_change,,,,,0,0,2,,64,0,1,,,
35520,note_on,,,,,11,0,2,,,,1,,58,108
35520,control_change,,,,,1,0,1,,64,0,0,,,
35520,set_tempo,,,,,60,1,0,428571,,,,,,
35521,note_on,,,,,1,0,1,,,,0,,85,106
35560,control_change,,,,,39,0,1,,64,127,0,,,
35560,control_change,,,,,40,0,2,,64,127,1,,,
35568,note_off,,,,,8,0,1,,,,0,,82,58
35571,note_off,,,,,11,0,2,,,,1,,58,58
35572,note_off,,,,,4,0,1,,,,0,,85,59
35579,note_on,,,,,8,0,2,,,,1,,70,96
35580,set_tempo,,,,,60,1,0,458015,,,,,,
35600,control_change,,,,,21,0,2,,64,0,1,,,
35600,control_change,,,,,28,0,1,,64,0,0,,,
35630,note_off,,,,,30,0,2,,,,1,,70,59
35639,note_on,,,,,39,0,1,,,,0,,84,107
35640,note_on,,,,,0,0,1,,,,0,,81,106
35640,control_change,,,,,1,0,1,,64,0,0,,,
35640,control_change,,,,,10,0,2,,64,0,1,,,
35640,set_tempo,,,,,60,1,0,416667,,,,,,
35690,control_change,,,,,50,0,1,,64,127,0,,,
35690,control_change,,,,,50,0,2,,64,127,1,,,
35760,set_tempo,,,,,120,1,0,428571,,,,,,
35761,note_on,,,,,71,0,2,,,,1,,77,110
35864,note_off,,,,,174,0,1,,,,0,,81,65
35864,note_off,,,,,0,0,1,,,,0,,84,63
35872,note_off,,,,,111,0,2,,,,1,,77,60
35879,note_on,,,,,15,0,1,,,,0,,69,103
35879,note_on,,,,,0,0,1,,,,0,,72,104
35880,set_tempo,,,,,120,1,0,434783,,,,,,
35999,note_on,,,,,127,0,2,,,,1,,65,107
36000,set_tempo,,,,,120,1,0,441176,,,,,,
36104,note_off,,,,,225,0,1,,,,0,,72,64
36104,note_off,,,,,0,0,1,,,,0,,69,63
36109,note_off,,,,,110,0,2,,,,1,,65,61
36119,note_on,,,,,15,0,1,,,,0,,57,104
36120,note_on,,,,,1,0,1,,,,0,,60,108
36120,set_tempo,,,,,120,1,0,472441,,,,,,
36240,set_tempo,,,,,120,1,0,495868,,,,,,
36240,note_on,,,,,131,0,2,,,,1,,53,108
36345,note_off,,,,,225,0,1,,,,0,,57,65
36346,note_off,,,,,1,0,1,,,,0,,60,63
36349,note_off,,,,,109,0,2,,,,1,,53,62
36359,note_on,,,,,0,0,1,,,,0,,45,108
36359,note_on,,,,,13,0,1,,,,0,,48,111
36360,set_tempo,,,,,120,1,0,545455,,,,,,
36480,set_tempo,,,,,120,1,0,666667,,,,,,
36481,note_on,,,,,132,0,2,,,,1,,41,115
36584,note_off,,,,,225,0,1,,,,0,,45,64
36585,note_off,,,,,1,0,1,,,,0,,48,65
36591,note_off,,,,,110,0,2,,,,1,,41,60
36600,note_on,,,,,15,0,1,,,,0,,36,114
36600,set_tempo,,,,,120,1,0,952381,,,,,,
36601,note_on,,,,,1,0,1,,,,0,,33,110
36720,set_tempo,,,,,120,1,0,566038,,,,,,
36720,note_on,,,,,129,0,2,,,,1,,29,123
37289,note_off,,,,,569,0,2,,,,1,,29,63
37290,note_off,,,,,689,0,1,,,,0,,36,65
37292,note_off,,,,,2,0,1,,,,0,,33,63
37300,control_change,,,,,8,0,1,,64,0,0,,,
37300,control_change,,,,,11,0,2,,64,0,1,,,
37319,note_on,,,,,19,0,2,,,,1,,29,99
37320,control_change,,,,,1,0,2,,64,0,1,,,
37320,set_tempo,,,,,600,1,0,923077,,,,,,
37320,control_change,,,,,20,0,1,,64,0,0,,,
37320,marker,,,,,0,1,0,,,,,,,
37340,control_change,,,,,20,0,2,,64,127,1,,,
37340,control_change,,,,,20,0,1,,64,127,0,,,
37349,note_on,,,,,9,0,2,,,,1,,31,83
37350,set_tempo,,,,,30,1,0,508475,,,,,,
37365,note_off,,,,,16,0,2,,,,1,,29,59
37381,note_on,,,,,16,0,2,,,,1,,33,82
37393,note_off,,,,,12,0,2,,,,1,,31,57
37410,set_tempo,,,,,60,1,0,487805,,,,,,
37411,note_on,,,,,18,0,2,,,,1,,34,80
37426,note_off,,,,,15,0,2,,,,1,,33,58
37430,control_change,,,,,4,0,2,,64,0,1,,,
37430,control_change,,,,,90,0,1,,64,0,0,,,
37440,note_on,,,,,10,0,2,,,,1,,36,83
37442,note_off,,,,,2,0,2,,,,1,,34,57
37470,set_tempo,,,,,60,1,0,500000,,,,,,
37470,note_on,,,,,28,0,2,,,,1,,38,82
37486,note_off,,,,,16,0,2,,,,1,,36,57
37500,note_on,,,,,14,0,2,,,,1,,40,86
37500,set_tempo,,,,,30,1,0,495868,,,,,,
37515,note_off,,,,,15,0,2,,,,1,,38,59
37530,set_tempo,,,,,30,1,0,566038,,,,,,
37530,control_change,,,,,0,0,1,,64,0,0,,,
37530,control_change,,,,,15,0,2,,64,0,1,,,
37530,note_on,,,,,100,0,1,,,,0,,41,86
37546,note_off,,,,,16,0,2,,,,1,,40,57
37550,control_change,,,,,20,0,1,,64,127,0,,,
37550,control_change,,,,,4,0,2,,64,127,1,,,
37559,note_on,,,,,9,0,1,,,,0,,43,85
37560,set_tempo,,,,,30,1,0,500000,,,,,,
37574,note_off,,,,,15,0,1,,,,0,,41,58
37590,set_tempo,,,,,30,1,0,495868,,,,,,
37591,note_on,,,,,17,0,1,,,,0,,45,87
37605,note_off,,,,,14,0,1,,,,0,,43,57
37619,note_on,,,,,14,0,1,,,,0,,46,86
37620,set_tempo,,,,,30,1,0,500000,,,,,,
37637,note_off,,,,,18,0,1,,,,0,,45,57
37640,control_change,,,,,3,0,1,,64,0,0,,,
37640,control_change,,,,,90,0,2,,64,0,1,,,
37650,note_on,,,,,10,0,1,,,,0,,48,89
37664,note_off,,,,,14,0,1,,,,0,,46,57
37680,note_on,,,,,16,0,1,,,,0,,50,88
37696,note_off,,,,,16,0,1,,,,0,,48,59
37709,note_on,,,,,13,0,1,,,,0,,52,91
37725,note_off,,,,,16,0,1,,,,0,,50,57
37739,note_on,,,,,99,0,2,,,,1,,53,92
37740,set_tempo,,,,,120,1,0,571429,,,,,,
37740,control_change,,,,,15,0,1,,64,0,0,,,
37740,control_change,,,,,1,0,2,,64,0,1,,,
37754,note_off,,,,,14,0,1,,,,0,,52,59
37760,control_change,,,,,6,0,1,,64,0,0,,,
37760,control_change,,,,,20,0,2,,64,0,1,,,
37770,set_tempo,,,,,30,1,0,500000,,,,,,
37770,note_on,,,,,10,0,2,,,,1,,55,92
37784,note_off,,,,,14,0,2,,,,1,,53,58
37799,note_off,,,,,15,0,2,,,,1,,55,58
37801,note_on,,,,,2,0,2,,,,1,,57,92
37829,note_on,,,,,28,0,2,,,,1,,58,93
37846,note_off,,,,,17,0,2,,,,1,,57,58
37850,control_change,,,,,90,0,1,,64,0,0,,,
37850,control_change,,,,,4,0,2,,64,0,1,,,
37860,set_tempo,,,,,90,1,0,495868,,,,,,
37861,note_on,,,,,11,0,2,,,,1,,60,95
37875,note_off,,,,,14,0,2,,,,1,,58,59
37890,note_on,,,,,15,0,2,,,,1,,62,95
37890,set_tempo,,,,,30,1,0,487805,,,,,,
37906,note_off,,,,,16,0,2,,,,1,,60,59
37920,set_tempo,,,,,30,1,0,480000,,,,,,
37920,note_on,,,,,14,0,2,,,,1,,64,97
37936,note_off,,,,,16,0,2,,,,1,,62,57
37950,set_tempo,,,,,30,1,0,582524,,,,,,
37950,control_change,,,,,14,0,2,,64,0,1,,,
37950,control_change,,,,,100,0,1,,64,0,0,,,
37951,note_on,,,,,1,0,1,,,,0,,65,98
37965,note_off,,,,,15,0,2,,,,1,,64,59
37970,control_change,,,,,5,0,2,,64,0,1,,,
37970,control_change,,,,,19,0,1,,64,0,0,,,
37980,set_tempo,,,,,30,1,0,480000,,,,,,
37981,note_on,,,,,11,0,1,,,,0,,67,97
37996,note_off,,,,,15,0,1,,,,0,,65,58
38010,set_tempo,,,,,30,1,0,495868,,,,,,
38011,note_on,,,,,15,0,1,,,,0,,69,96
38027,note_off,,,,,16,0,1,,,,0,,67,57
38040,set_tempo,,,,,30,1,0,500000,,,,,,
38041,note_on,,,,,14,0,1,,,,0,,70,99
38055,note_off,,,,,14,0,1,,,,0,,69,57
38060,control_change,,,,,90,0,2,,64,0,1,,,
38060,control_change,,,,,5,0,1,,64,0,0,,,
38069,note_on,,,,,9,0,1,,,,0,,72,96
38070,set_tempo,,,,,30,1,0,480000,,,,,,
38085,note_off,,,,,16,0,1,,,,0,,70,58
38101,note_on,,,,,16,0,1,,,,0,,74,98
38115,note_off,,,,,14,0,1,,,,0,,72,59
38130,note_on,,,,,15,0,1,,,,0,,76,98
38130,set_tempo,,,,,60,1,0,500000,,,,,,
38147,note_off,,,,,17,0,1,,,,0,,74,57
38159,note_off,,,,,12,0,1,,,,0,,76,58
38160,note_on,,,,,100,0,2,,,,1,,77,101
38160,control_change,,,,,0,0,2,,64,0,1,,,
38160,control_change,,,,,1,0,1,,64,0,0,,,
38180,control_change,,,,,20,0,2,,64,0,1,,,
38180,control_change,,,,,20,0,1,,64,0,0,,,
38189,note_on,,,,,9,0,2,,,,1,,79,102
38190,set_tempo,,,,,60,1,0,495868,,,,,,
38204,note_off,,,,,15,0,2,,,,1,,77,57
38220,note_on,,,,,16,0,2,,,,1,,81,100
38220,set_tempo,,,,,30,1,0,480000,,,,,,
38233,note_off,,,,,13,0,2,,,,1,,79,59
38250,note_on,,,,,17,0,2,,,,1,,82,103
38250,set_tempo,,,,,30,1,0,517241,,,,,,
38265,note_off,,,,,15,0,2,,,,1,,81,57
38270,control_change,,,,,90,0,1,,64,0,0,,,
38270,control_change,,,,,5,0,2,,64,0,1,,,
38280,set_tempo,,,,,30,1,0,495868,,,,,,
38281,note_on,,,,,11,0,2,,,,1,,84,103
38295,note_off,,,,,14,0,2,,,,1,,82,58
38309,note_on,,,,,14,0,2,,,,1,,86,103
38310,set_tempo,,,,,30,1,0,508475,,,,,,
38327,note_off,,,,,18,0,2,,,,1,,84,59
38340,set_tempo,,,,,30,1,0,535714,,,,,,
38340,note_on,,,,,13,0,2,,,,1,,88,105
38354,note_off,,,,,14,0,2,,,,1,,86,58
38369,note_on,,,,,99,0,1,,,,0,,89,95
38370,control_change,,,,,0,0,2,,64,0,1,,,
38370,set_tempo,,,,,30,1,0,582524,,,,,,
38370,note_on,,,,,16,0,2,,,,1,,77,88
38370,control_change,,,,,1,0,1,,64,0,0,,,
38385,note_off,,,,,15,0,2,,,,1,,88,59
38390,control_change,,,,,5,0,2,,64,127,1,,,
38390,control_change,,,,,20,0,1,,64,127,0,,,
38400,set_tempo,,,,,30,1,0,714286,,,,,,
38401,note_on,,,,,11,0,2,,,,1,,79,94
38401,note_on,,,,,11,0,1,,,,0,,91,98
38414,note_off,,,,,13,0,1,,,,0,,89,57
38415,note_off,,,,,14,0,2,,,,1,,77,57
38430,set_tempo,,,,,30,1,0,487805,,,,,,
38430,note_on,,,,,15,0,2,,,,1,,81,97
38431,note_on,,,,,17,0,1,,,,0,,93,101
38446,note_off,,,,,15,0,1,,,,0,,91,57
38446,note_off,,,,,16,0,2,,,,1,,79,59
38459,note_on,,,,,13,0,2,,,,1,,82,97
38460,set_tempo,,,,,30,1,0,465116,,,,,,
38461,note_on,,,,,15,0,1,,,,0,,94,101
38476,note_off,,,,,17,0,2,,,,1,,81,59
38477,note_off,,,,,16,0,1,,,,0,,93,57
38480,control_change,,,,,4,0,2,,64,127,1,,,
38480,control_change,,,,,3,0,1,,64,127,0,,,
38490,set_tempo,,,,,30,1,0,444444,,,,,,
38491,note_on,,,,,11,0,1,,,,0,,96,104
38491,note_on,,,,,11,0,2,,,,1,,84,97
38504,note_off,,,,,13,0,2,,,,1,,82,58
38506,note_off,,,,,15,0,1,,,,0,,94,58
38520,set_tempo,,,,,30,1,0,422535,,,,,,
38521,note_off,,,,,17,0,2,,,,1,,84,57
38521,note_on,,,,,15,0,1,,,,0,,98,107
38521,note_on,,,,,0,0,2,,,,1,,86,100
38522,note_off,,,,,1,0,1,,,,0,,96,58
38549,note_on,,,,,27,0,1,,,,0,,100,110
38549,note_on,,,,,28,0,2,,,,1,,88,100
38550,set_tempo,,,,,30,1,0,400000,,,,,,
38566,note_off,,,,,17,0,1,,,,0,,98,58
38567,note_off,,,,,18,0,2,,,,1,,86,59
38580,note_on,,,,,13,0,2,,,,1,,89,105
38580,set_tempo,,,,,30,1,0,416667,,,,,,
38580,control_change,,,,,0,0,2,,64,0,1,,,
38580,control_change,,,,,14,0,1,,64,0,0,,,
38581,note_on,,,,,1,0,1,,,,0,,101,113
38594,note_off,,,,,13,0,1,,,,0,,100,57
38595,note_off,,,,,15,0,2,,,,1,,88,58
38600,control_change,,,,,6,0,1,,64,0,0,,,
38600,control_change,,,,,5,0,2,,64,0,1,,,
38624,note_off,,,,,24,0,2,,,,1,,89,58
38626,note_off,,,,,26,0,1,,,,0,,101,59
38640,set_tempo,,,,,60,1,0,500000,,,,,,
38670,set_tempo,,,,,30,1,0,3750000,,,,,,
38730,marker,,,,,0,1,0,,,,,,,
38730,set_tempo,,,,,60,1,0,845070,,,,,,
38731,note_on,,,,,0,0,1,,,,0,,78,94
38731,note_on,,,,,105,0,1,,,,0,,75,93
38731,note_on,,,,,107,0,2,,,,1,,53,97
38750,control_change,,,,,19,0,1,,64,127,0,,,
38750,control_change,,,,,19,0,2,,64,127,1,,,
38760,note_on,,,,,10,0,1,,,,0,,69,86
38760,note_on,,,,,10,0,2,,,,1,,63,91
38760,set_tempo,,,,,30,1,0,571429,,,,,,
38776,note_off,,,,,16,0,1,,,,0,,78,59
38776,note_off,,,,,16,0,2,,,,1,,53,58
38776,note_off,,,,,0,0,1,,,,0,,75,59
38789,note_on,,,,,13,0,1,,,,0,,78,90
38790,set_tempo,,,,,30,1,0,472441,,,,,,
38791,note_on,,,,,2,0,1,,,,0,,75,86
38791,note_on,,,,,15,0,2,,,,1,,53,92
38806,note_off,,,,,15,0,2,,,,1,,63,57
38806,note_off,,,,,15,0,1,,,,0,,69,58
38820,note_on,,,,,14,0,2,,,,1,,63,85
38820,note_on,,,,,14,0,1,,,,0,,69,81
38820,set_tempo,,,,,30,1,0,500000,,,,,,
38834,note_off,,,,,14,0,1,,,,0,,78,58
38836,note_off,,,,,16,0,2,,,,1,,53,57
38837,note_off,,,,,3,0,1,,,,0,,75,59
38850,note_on,,,,,14,0,2,,,,1,,53,92
38850,note_on,,,,,13,0,1,,,,0,,78,88
38850,set_tempo,,,,,30,1,0,495868,,,,,,
38851,note_on,,,,,1,0,1,,,,0,,75,85
38864,note_off,,,,,14,0,2,,,,1,,63,59
38866,note_off,,,,,15,0,1,,,,0,,69,58
38880,note_off,,,,,14,0,1,,,,0,,78,59
38880,set_tempo,,,,,30,1,0,480000,,,,,,
38881,note_off,,,,,1,0,1,,,,0,,75,58
38881,note_on,,,,,0,0,1,,,,0,,69,79
38881,note_on,,,,,0,0,2,,,,1,,63,85
38881,note_off,,,,,17,0,2,,,,1,,53,58
38910,note_on,,,,,29,0,1,,,,0,,78,88
38910,set_tempo,,,,,30,1,0,495868,,,,,,
38911,note_on,,,,,30,0,2,,,,1,,53,92
38911,note_on,,,,,1,0,1,,,,0,,75,84
38927,note_off,,,,,16,0,2,,,,1,,63,59
38927,note_off,,,,,16,0,1,,,,0,,69,58
38940,note_on,,,,,13,0,2,,,,1,,63,89
38940,set_tempo,,,,,30,1,0,500000,,,,,,
38941,note_on,,,,,14,0,1,,,,0,,69,81
38955,note_off,,,,,0,0,1,,,,0,,78,59
38955,note_off,,,,,14,0,1,,,,0,,75,58
38956,note_off,,,,,16,0,2,,,,1,,53,58
38969,note_on,,,,,13,0,2,,,,1,,53,95
38970,set_tempo,,,,,30,1,0,480000,,,,,,
38971,note_on,,,,,0,0,1,,,,0,,78,90
38971,note_on,,,,,16,0,1,,,,0,,75,86
38985,note_off,,,,,16,0,2,,,,1,,63,59
38985,note_off,,,,,14,0,1,,,,0,,69,59
39000,note_on,,,,,15,0,1,,,,0,,69,79
39000,set_tempo,,,,,30,1,0,487805,,,,,,
39001,note_on,,,,,16,0,2,,,,1,,63,90
39015,note_off,,,,,14,0,2,,,,1,,53,58
39016,note_off,,,,,16,0,1,,,,0,,75,58
39017,note_off,,,,,1,0,1,,,,0,,78,57
39029,note_on,,,,,14,0,2,,,,1,,53,97
39029,note_on,,,,,12,0,1,,,,0,,75,90
39030,note_on,,,,,1,0,1,,,,0,,78,94
39045,note_off,,,,,16,0,2,,,,1,,63,59
39046,note_off,,,,,16,0,1,,,,0,,69,57
39059,note_on,,,,,13,0,1,,,,0,,69,84
39060,note_on,,,,,15,0,2,,,,1,,63,95
39060,set_tempo,,,,,60,1,0,480000,,,,,,
39074,note_off,,,,,15,0,1,,,,0,,75,57
39075,note_off,,,,,15,0,2,,,,1,,53,59
39075,note_off,,,,,1,0,1,,,,0,,78,59
39090,control_change,,,,,15,0,1,,64,0,0,,,
39090,set_tempo,,,,,30,1,0,1333333,,,,,,
39090,control_change,,,,,15,0,2,,64,0,1,,,
39095,note_off,,,,,5,0,1,,,,0,,69,57
39106,note_off,,,,,16,0,2,,,,1,,63,57
39210,set_tempo,,,,,120,1,0,1621622,,,,,,
39450,note_on,,,,,344,0,2,,,,1,,62,58
39450,set_tempo,,,,,240,1,0,517241,,,,,,
39451,note_on,,,,,356,0,1,,,,0,,74,61
39451,note_on,,,,,1,0,2,,,,1,,58,56
39529,note_off,,,,,78,0,2,,,,1,,62,60
39530,note_off,,,,,79,0,1,,,,0,,74,60
39531,note_off,,,,,2,0,2,,,,1,,58,60
39539,note_on,,,,,8,0,2,,,,1,,53,62
39539,note_on,,,,,0,0,2,,,,1,,60,65
39539,note_on,,,,,9,0,1,,,,0,,77,67
39540,note_on,,,,,1,0,1,,,,0,,69,64
39540,set_tempo,,,,,90,1,0,535714,,,,,,
39564,note_off,,,,,25,0,2,,,,1,,53,59
39565,note_off,,,,,1,0,2,,,,1,,60,59
39565,note_off,,,,,0,0,1,,,,0,,77,59
39565,note_off,,,,,25,0,1,,,,0,,69,57
39570,note_on,,,,,5,0,2,,,,1,,57,66
39570,set_tempo,,,,,30,1,0,517241,,,,,,
39570,note_on,,,,,5,0,1,,,,0,,72,69
39571,note_on,,,,,1,0,1,,,,0,,77,74
39571,note_on,,,,,1,0,2,,,,1,,60,67
39600,note_off,,,,,29,0,1,,,,0,,72,58
39600,note_off,,,,,29,0,2,,,,1,,57,57
39602,note_off,,,,,2,0,2,,,,1,,60,59
39602,note_off,,,,,2,0,1,,,,0,,77,59
39689,note_on,,,,,87,0,2,,,,1,,62,62
39690,note_on,,,,,1,0,2,,,,1,,58,60
39690,set_tempo,,,,,120,1,0,508475,,,,,,
39690,note_on,,,,,88,0,1,,,,0,,74,65
39691,note_on,,,,,1,0,1,,,,0,,65,60
39719,note_off,,,,,29,0,2,,,,1,,58,58
39720,note_off,,,,,1,0,2,,,,1,,62,59
39720,note_off,,,,,29,0,1,,,,0,,74,57
39721,note_off,,,,,1,0,1,,,,0,,65,58
39750,set_tempo,,,,,60,1,0,500000,,,,,,
39809,note_on,,,,,89,0,2,,,,1,,55,57
39809,note_on,,,,,0,0,2,,,,1,,58,58
39809,note_on,,,,,88,0,1,,,,0,,70,62
39888,note_off,,,,,79,0,1,,,,0,,70,62
39890,note_off,,,,,81,0,2,,,,1,,58,62
39890,note_off,,,,,0,0,2,,,,1,,55,61
39899,note_on,,,,,11,0,1,,,,0,,74,67
39900,note_on,,,,,1,0,1,,,,0,,66,65
39900,set_tempo,,,,,150,1,0,535714,,,,,,
39900,note_on,,,,,0,0,2,,,,1,,57,64
39900,note_on,,,,,10,0,2,,,,1,,50,62
39924,note_off,,,,,24,0,1,,,,0,,66,58
39924,note_off,,,,,0,0,1,,,,0,,74,57
39925,note_off,,,,,25,0,2,,,,1,,50,57
39926,note_off,,,,,1,0,2,,,,1,,57,57
39929,note_on,,,,,3,0,2,,,,1,,57,68
39929,note_on,,,,,5,0,1,,,,0,,69,68
39930,set_tempo,,,,,30,1,0,517241,,,,,,
39931,note_on,,,,,2,0,2,,,,1,,54,67
39931,note_on,,,,,2,0,1,,,,0,,74,70
39959,note_off,,,,,28,0,1,,,,0,,69,59
39960,note_off,,,,,0,0,2,,,,1,,57,58
39960,note_off,,,,,29,0,2,,,,1,,54,59
39961,note_off,,,,,2,0,1,,,,0,,74,59
40049,note_on,,,,,88,0,1,,,,0,,62,63
40050,set_tempo,,,,,120,1,0,508475,,,,,,
40050,note_on,,,,,0,0,2,,,,1,,58,62
40050,note_on,,,,,90,0,2,,,,1,,55,61
40051,note_on,,,,,2,0,1,,,,0,,70,64
40078,note_off,,,,,27,0,1,,,,0,,62,57
40080,note_off,,,,,30,0,2,,,,1,,58,59
40081,note_off,,,,,1,0,2,,,,1,,55,59
40081,note_off,,,,,3,0,1,,,,0,,70,59
40110,set_tempo,,,,,60,1,0,500000,,,,,,
40170,note_on,,,,,89,0,1,,,,0,,67,62
40170,note_on,,,,,89,0,2,,,,1,,51,56
40171,note_on,,,,,1,0,2,,,,1,,55,60
40250,note_off,,,,,80,0,1,,,,0,,67,62
40250,note_off,,,,,0,0,2,,,,1,,51,62
40250,note_off,,,,,79,0,2,,,,1,,55,62
40259,note_on,,,,,9,0,1,,,,0,,70,70
40260,note_on,,,,,10,0,2,,,,1,,46,65
40260,note_on,,,,,1,0,1,,,,0,,62,67
40260,set_tempo,,,,,150,1,0,535714,,,,,,
40260,note_on,,,,,0,0,2,,,,1,,53,68
40285,note_off,,,,,25,0,1,,,,0,,70,57
40285,note_off,,,,,25,0,2,,,,1,,46,58
40286,note_off,,,,,1,0,2,,,,1,,53,59
40286,note_off,,,,,1,0,1,,,,0,,62,59
40289,note_on,,,,,3,0,1,,,,0,,65,68
40290,set_tempo,,,,,30,1,0,517241,,,,,,
40290,note_on,,,,,4,0,2,,,,1,,50,64
40291,note_on,,,,,1,0,2,,,,1,,53,67
40291,note_on,,,,,2,0,1,,,,0,,70,72
40319,note_off,,,,,28,0,1,,,,0,,65,58
40320,note_off,,,,,29,0,2,,,,1,,50,59
40321,note_off,,,,,2,0,1,,,,0,,70,58
40322,note_off,,,,,2,0,2,,,,1,,53,59
40410,note_on,,,,,89,0,1,,,,0,,67,66
40410,set_tempo,,,,,120,1,0,508475,,,,,,
40411,note_on,,,,,1,0,1,,,,0,,58,64
40411,note_on,,,,,0,0,2,,,,1,,55,60
40411,note_on,,,,,89,0,2,,,,1,,51,56
40440,note_off,,,,,29,0,2,,,,1,,51,59
40441,note_off,,,,,30,0,1,,,,0,,67,58
40442,note_off,,,,,2,0,2,,,,1,,55,57
40442,note_off,,,,,1,0,1,,,,0,,58,59
40470,set_tempo,,,,,60,1,0,500000,,,,,,
40529,note_on,,,,,87,0,1,,,,0,,67,63
40529,note_on,,,,,87,0,2,,,,1,,51,58
40530,note_on,,,,,1,0,2,,,,1,,55,60
40530,note_on,,,,,1,0,1,,,,0,,58,61
40608,note_off,,,,,78,0,1,,,,0,,67,60
40610,note_off,,,,,80,0,2,,,,1,,55,62
40610,note_off,,,,,0,0,2,,,,1,,51,60
40611,note_off,,,,,3,0,1,,,,0,,58,62
40619,note_on,,,,,8,0,1,,,,0,,69,69
40620,set_tempo,,,,,150,1,0,535714,,,,,,
40620,note_on,,,,,1,0,1,,,,0,,63,67
40620,note_on,,,,,0,0,2,,,,1,,53,68
40620,note_on,,,,,10,0,2,,,,1,,48,65
40645,note_off,,,,,25,0,1,,,,0,,69,58
40645,note_off,,,,,25,0,2,,,,1,,48,59
40646,note_off,,,,,1,0,1,,,,0,,63,58
40646,note_off,,,,,1,0,2,,,,1,,53,58
40650,set_tempo,,,,,30,1,0,517241,,,,,,
40650,note_on,,,,,0,0,2,,,,1,,53,67
40650,note_on,,,,,4,0,2,,,,1,,48,66
40651,note_on,,,,,0,0,1,,,,0,,69,71
40651,note_on,,,,,5,0,1,,,,0,,63,71
40680,note_off,,,,,30,0,2,,,,1,,48,59
40680,note_off,,,,,29,0,1,,,,0,,69,57
40681,note_off,,,,,1,0,2,,,,1,,53,58
40682,note_off,,,,,2,0,1,,,,0,,63,59
40769,note_on,,,,,87,0,1,,,,0,,70,66
40770,note_on,,,,,89,0,2,,,,1,,50,62
40770,note_on,,,,,0,0,2,,,,1,,53,65
40770,set_tempo,,,,,120,1,0,508475,,,,,,
40771,note_on,,,,,2,0,1,,,,0,,58,63
40799,note_off,,,,,29,0,2,,,,1,,50,59
40800,note_off,,,,,1,0,2,,,,1,,53,59
40800,note_off,,,,,29,0,1,,,,0,,70,58
40802,note_off,,,,,2,0,1,,,,0,,58,59
40830,set_tempo,,,,,60,1,0,500000,,,,,,
40889,note_on,,,,,89,0,2,,,,1,,50,65
40890,note_on,,,,,88,0,1,,,,0,,65,62
40890,note_on,,,,,0,0,1,,,,0,,70,66
40890,note_on,,,,,1,0,2,,,,1,,53,66
40969,note_off,,,,,79,0,2,,,,1,,50,60
40969,note_off,,,,,79,0,1,,,,0,,70,62
40979,note_on,,,,,10,0,2,,,,1,,45,71
40980,set_tempo,,,,,150,1,0,545455,,,,,,
40981,note_on,,,,,12,0,1,,,,0,,72,73
40999,note_off,,,,,18,0,1,,,,0,,65,62
41003,note_off,,,,,24,0,2,,,,1,,45,58
41005,note_off,,,,,6,0,1,,,,0,,72,57
41006,note_off,,,,,3,0,2,,,,1,,53,61
41009,note_on,,,,,4,0,1,,,,0,,65,74
41009,note_on,,,,,3,0,2,,,,1,,45,69
41010,note_on,,,,,1,0,1,,,,0,,72,74
41010,note_on,,,,,1,0,2,,,,1,,53,72
41010,set_tempo,,,,,30,1,0,535714,,,,,,
41040,note_off,,,,,30,0,2,,,,1,,45,59
41040,note_off,,,,,30,0,1,,,,0,,72,57
41129,note_on,,,,,89,0,2,,,,1,,44,60
41130,set_tempo,,,,,120,1,0,517241,,,,,,
41130,note_on,,,,,90,0,1,,,,0,,74,68
41131,note_on,,,,,1,0,1,,,,0,,70,64
41158,note_off,,,,,29,0,2,,,,1,,44,57
41159,note_off,,,,,0,0,1,,,,0,,65,65
41159,note_off,,,,,28,0,1,,,,0,,74,57
41160,note_off,,,,,2,0,2,,,,1,,53,65
41160,note_off,,,,,1,0,1,,,,0,,70,58
41190,set_tempo,,,,,60,1,0,500000,,,,,,
41249,note_on,,,,,89,0,2,,,,1,,53,81
41249,note_on,,,,,0,0,1,,,,0,,74,81
41249,note_on,,,,,89,0,1,,,,0,,70,79
41251,note_on,,,,,2,0,2,,,,1,,44,78
41328,note_off,,,,,77,0,2,,,,1,,53,60
41330,note_off,,,,,81,0,1,,,,0,,74,62
41331,note_off,,,,,3,0,2,,,,1,,44,61
41339,note_on,,,,,8,0,2,,,,1,,43,84
41339,note_on,,,,,0,0,2,,,,1,,51,86
41340,note_on,,,,,10,0,1,,,,0,,75,85
41340,set_tempo,,,,,150,1,0,526316,,,,,,
41360,note_off,,,,,20,0,1,,,,0,,70,61
41363,note_off,,,,,24,0,2,,,,1,,51,57
41365,note_off,,,,,2,0,2,,,,1,,43,57
41365,note_off,,,,,5,0,1,,,,0,,75,58
41369,note_on,,,,,4,0,1,,,,0,,70,88
41369,note_on,,,,,0,0,1,,,,0,,75,91
41369,note_on,,,,,4,0,2,,,,1,,51,93
41370,note_on,,,,,1,0,2,,,,1,,43,92
41370,set_tempo,,,,,30,1,0,535714,,,,,,
41370,note_on,,,,,1,0,1,,,,0,,63,86
41399,note_off,,,,,0,0,2,,,,1,,51,57
41399,note_off,,,,,29,0,2,,,,1,,43,59
41400,note_off,,,,,0,0,1,,,,0,,70,58
41400,note_off,,,,,0,0,1,,,,0,,75,58
41400,note_off,,,,,30,0,1,,,,0,,63,57
41489,note_on,,,,,0,0,2,,,,1,,49,95
41489,note_on,,,,,90,0,2,,,,1,,41,94
41489,note_on,,,,,0,0,1,,,,0,,70,98
41489,note_on,,,,,89,0,1,,,,0,,65,96
41490,set_tempo,,,,,120,1,0,487805,,,,,,
41491,note_on,,,,,0,0,1,,,,0,,77,102
41491,note_on,,,,,2,0,1,,,,0,,73,99
41518,note_off,,,,,27,0,1,,,,0,,65,57
41520,note_off,,,,,31,0,2,,,,1,,49,59
41520,note_off,,,,,0,0,2,,,,1,,41,59
41520,note_off,,,,,2,0,1,,,,0,,70,58
41521,note_off,,,,,1,0,1,,,,0,,77,58
41521,note_off,,,,,0,0,1,,,,0,,73,58
41609,note_on,,,,,88,0,1,,,,0,,79,105
41610,note_on,,,,,1,0,1,,,,0,,70,105
41610,set_tempo,,,,,120,1,0,545455,,,,,,
41610,control_change,,,,,0,0,1,,64,0,0,,,
41610,note_on,,,,,90,0,2,,,,1,,40,106
41610,control_change,,,,,0,0,2,,64,0,1,,,
41611,note_on,,,,,1,0,2,,,,1,,48,106
41611,note_on,,,,,1,0,1,,,,0,,67,100
41611,note_on,,,,,0,0,1,,,,0,,72,104
41630,control_change,,,,,19,0,1,,64,127,0,,,
41630,control_change,,,,,19,0,2,,64,127,1,,,
41658,note_off,,,,,28,0,1,,,,0,,79,57
41659,note_off,,,,,29,0,2,,,,1,,40,59
41660,note_off,,,,,2,0,1,,,,0,,72,57
41660,note_off,,,,,0,0,1,,,,0,,70,58
41660,note_off,,,,,1,0,2,,,,1,,48,58
41662,note_off,,,,,2,0,1,,,,0,,67,58
41670,control_change,,,,,8,0,1,,64,0,0,,,
41670,control_change,,,,,10,0,2,,64,0,1,,,
41729,note_on,,,,,59,0,1,,,,0,,69,106
41729,note_on,,,,,59,0,2,,,,1,,53,112
41730,control_change,,,,,1,0,2,,64,0,1,,,
41730,set_tempo,,,,,120,1,0,645161,,,,,,
41730,note_on,,,,,1,0,1,,,,0,,60,105
41730,control_change,,,,,0,0,1,,64,0,0,,,
41731,note_on,,,,,1,0,2,,,,1,,41,110
41731,note_on,,,,,1,0,1,,,,0,,72,107
41750,control_change,,,,,19,0,2,,64,127,1,,,
41750,control_change,,,,,19,0,1,,64,127,0,,,
41759,note_off,,,,,9,0,2,,,,1,,53,58
41759,note_off,,,,,9,0,1,,,,0,,69,57
41760,note_off,,,,,1,0,2,,,,1,,41,57
41761,note_off,,,,,2,0,1,,,,0,,60,59
41762,note_off,,,,,1,0,1,,,,0,,72,58
41790,control_change,,,,,28,0,1,,64,0,0,,,
41790,control_change,,,,,30,0,2,,64,0,1,,,
41970,note_on,,,,,180,0,2,,,,1,,74,60
41970,set_tempo,,,,,240,1,0,500000,,,,,,
41971,note_on,,,,,181,0,1,,,,0,,86,63
41971,note_on,,,,,1,0,2,,,,1,,70,58
42049,note_off,,,,,78,0,2,,,,1,,74,62
42051,note_off,,,,,80,0,1,,,,0,,86,62
42052,note_off,,,,,3,0,2,,,,1,,70,61
42060,set_tempo,,,,,90,1,0,545455,,,,,,
42060,note_on,,,,,8,0,2,,,,1,,65,65
42061,note_on,,,,,0,0,1,,,,0,,89,70
42061,note_on,,,,,10,0,1,,,,0,,81,68
42061,note_on,,,,,1,0,2,,,,1,,72,64
42085,note_off,,,,,0,0,1,,,,0,,81,59
42085,note_off,,,,,24,0,2,,,,1,,72,57
42085,note_off,,,,,24,0,1,,,,0,,89,57
42086,note_off,,,,,1,0,2,,,,1,,65,59
42089,note_on,,,,,3,0,2,,,,1,,69,67
42090,note_on,,,,,1,0,2,,,,1,,72,69
42090,note_on,,,,,5,0,1,,,,0,,89,75
42090,set_tempo,,,,,30,1,0,526316,,,,,,
42118,note_off,,,,,28,0,2,,,,1,,69,57
42120,note_off,,,,,2,0,2,,,,1,,72,59
42120,note_off,,,,,30,0,1,,,,0,,89,59
42151,note_on,,,,,31,0,1,,,,0,,77,56
42209,note_on,,,,,89,0,2,,,,1,,74,59
42210,set_tempo,,,,,120,1,0,508475,,,,,,
42211,note_on,,,,,60,0,1,,,,0,,86,63
42211,note_on,,,,,2,0,2,,,,1,,70,59
42259,note_off,,,,,48,0,2,,,,1,,74,57
42260,note_off,,,,,49,0,1,,,,0,,77,60
42260,note_off,,,,,1,0,2,,,,1,,70,59
42262,note_off,,,,,2,0,1,,,,0,,86,57
42270,set_tempo,,,,,60,1,0,500000,,,,,,
42329,note_on,,,,,69,0,2,,,,1,,70,63
42330,note_on,,,,,1,0,2,,,,1,,67,61
42330,note_on,,,,,68,0,1,,,,0,,82,69
42409,note_off,,,,,79,0,2,,,,1,,67,60
42410,note_off,,,,,80,0,1,,,,0,,82,60
42410,note_off,,,,,1,0,2,,,,1,,70,60
42419,note_on,,,,,9,0,1,,,,0,,86,71
42420,set_tempo,,,,,150,1,0,545455,,,,,,
42421,note_on,,,,,2,0,1,,,,0,,78,71
42421,note_on,,,,,11,0,2,,,,1,,62,66
42421,note_on,,,,,0,0,2,,,,1,,69,66
42445,note_off,,,,,24,0,1,,,,0,,78,58
42445,note_off,,,,,0,0,1,,,,0,,86,59
42446,note_off,,,,,25,0,2,,,,1,,69,59
42447,note_off,,,,,1,0,2,,,,1,,62,58
42449,note_on,,,,,4,0,1,,,,0,,86,78
42449,note_on,,,,,2,0,2,,,,1,,66,65
42450,set_tempo,,,,,30,1,0,526316,,,,,,
42451,note_on,,,,,2,0,2,,,,1,,69,68
42479,note_off,,,,,30,0,1,,,,0,,86,57
42479,note_off,,,,,28,0,2,,,,1,,66,59
42480,note_off,,,,,1,0,2,,,,1,,69,58
42509,note_on,,,,,30,0,1,,,,0,,74,60
42569,note_on,,,,,89,0,2,,,,1,,70,60
42570,set_tempo,,,,,120,1,0,508475,,,,,,
42571,note_on,,,,,62,0,1,,,,0,,82,64
42571,note_on,,,,,2,0,2,,,,1,,67,59
42618,note_off,,,,,47,0,2,,,,1,,70,57
42619,note_off,,,,,48,0,1,,,,0,,74,60
42622,note_off,,,,,4,0,2,,,,1,,67,57
42622,note_off,,,,,3,0,1,,,,0,,82,59
42630,set_tempo,,,,,60,1,0,500000,,,,,,
42689,note_on,,,,,67,0,1,,,,0,,79,64
42689,note_on,,,,,67,0,2,,,,1,,63,57
42691,note_on,,,,,2,0,2,,,,1,,67,59
42769,note_off,,,,,80,0,1,,,,0,,79,60
42769,note_off,,,,,78,0,2,,,,1,,63,60
42771,note_off,,,,,2,0,2,,,,1,,67,60
42779,note_on,,,,,8,0,2,,,,1,,58,62
42779,note_on,,,,,10,0,1,,,,0,,82,72
42780,set_tempo,,,,,150,1,0,545455,,,,,,
42780,note_on,,,,,1,0,2,,,,1,,65,64
42781,note_on,,,,,2,0,1,,,,0,,74,70
42804,note_off,,,,,23,0,1,,,,0,,82,58
42804,note_off,,,,,24,0,2,,,,1,,58,59
42805,note_off,,,,,1,0,2,,,,1,,65,57
42806,note_off,,,,,2,0,1,,,,0,,74,59
42809,note_on,,,,,3,0,1,,,,0,,82,77
42810,set_tempo,,,,,30,1,0,526316,,,,,,
42810,note_on,,,,,5,0,2,,,,1,,65,69
42811,note_on,,,,,1,0,2,,,,1,,62,68
42839,note_off,,,,,30,0,1,,,,0,,82,59
42840,note_off,,,,,29,0,2,,,,1,,62,57
42841,note_off,,,,,1,0,2,,,,1,,65,58
42869,note_on,,,,,30,0,1,,,,0,,70,59
42929,note_on,,,,,88,0,2,,,,1,,63,60
42930,set_tempo,,,,,120,1,0,508475,,,,,,
42931,note_on,,,,,2,0,2,,,,1,,67,63
42931,note_on,,,,,62,0,1,,,,0,,79,67
42979,note_off,,,,,48,0,2,,,,1,,63,59
42980,note_off,,,,,49,0,1,,,,0,,70,62
42981,note_off,,,,,1,0,1,,,,0,,79,59
42981,note_off,,,,,2,0,2,,,,1,,67,57
42990,set_tempo,,,,,60,1,0,500000,,,,,,
43049,note_on,,,,,68,0,2,,,,1,,67,62
43050,note_on,,,,,1,0,2,,,,1,,63,58
43050,note_on,,,,,69,0,1,,,,0,,70,61
43051,note_on,,,,,1,0,1,,,,0,,79,63
43129,note_off,,,,,79,0,2,,,,1,,67,60
43131,note_off,,,,,0,0,1,,,,0,,70,60
43131,note_off,,,,,2,0,2,,,,1,,63,61
43131,note_off,,,,,80,0,1,,,,0,,79,60
43139,note_on,,,,,8,0,2,,,,1,,60,64
43140,set_tempo,,,,,150,1,0,535714,,,,,,
43140,note_on,,,,,1,0,2,,,,1,,65,66
43140,note_on,,,,,9,0,1,,,,0,,81,70
43141,note_on,,,,,1,0,1,,,,0,,75,67
43163,note_off,,,,,23,0,2,,,,1,,60,59
43164,note_off,,,,,1,0,2,,,,1,,65,59
43164,note_off,,,,,23,0,1,,,,0,,81,59
43166,note_off,,,,,2,0,1,,,,0,,75,57
43169,note_on,,,,,3,0,1,,,,0,,81,76
43170,set_tempo,,,,,30,1,0,517241,,,,,,
43170,note_on,,,,,6,0,2,,,,1,,60,67
43171,note_on,,,,,1,0,2,,,,1,,65,68
43199,note_off,,,,,30,0,1,,,,0,,81,58
43201,note_off,,,,,30,0,2,,,,1,,60,57
43201,note_off,,,,,0,0,2,,,,1,,65,58
43231,note_on,,,,,32,0,1,,,,0,,75,62
43282,note_off,,,,,51,0,1,,,,0,,75,58
43289,note_on,,,,,88,0,2,,,,1,,62,61
43290,set_tempo,,,,,120,1,0,555556,,,,,,
43290,note_on,,,,,0,0,1,,,,0,,82,67
43290,note_on,,,,,8,0,1,,,,0,,70,65
43291,note_on,,,,,2,0,2,,,,1,,65,64
43339,note_off,,,,,49,0,1,,,,0,,70,59
43340,note_off,,,,,49,0,2,,,,1,,62,58
43340,note_off,,,,,1,0,1,,,,0,,82,58
43341,note_off,,,,,1,0,2,,,,1,,65,57
43350,set_tempo,,,,,60,1,0,500000,,,,,,
43410,note_on,,,,,70,0,1,,,,0,,77,81
43411,note_on,,,,,1,0,1,,,,0,,82,83
43411,note_on,,,,,70,0,2,,,,1,,74,73
43491,note_off,,,,,80,0,1,,,,0,,82,61
43492,note_off,,,,,81,0,2,,,,1,,74,62
43500,note_on,,,,,8,0,2,,,,1,,69,77
43500,note_on,,,,,9,0,1,,,,0,,84,89
43500,set_tempo,,,,,150,1,0,535714,,,,,,
43501,note_on,,,,,1,0,2,,,,1,,72,78
43521,note_off,,,,,21,0,1,,,,0,,77,62
43524,note_off,,,,,3,0,1,,,,0,,84,58
43526,note_off,,,,,25,0,2,,,,1,,72,57
43526,note_off,,,,,0,0,2,,,,1,,69,57
43529,note_on,,,,,3,0,2,,,,1,,72,85
43530,note_on,,,,,6,0,1,,,,0,,84,98
43530,set_tempo,,,,,30,1,0,517241,,,,,,
43531,note_on,,,,,2,0,2,,,,1,,69,85
43558,note_off,,,,,27,0,2,,,,1,,72,58
43559,note_off,,,,,29,0,1,,,,0,,84,58
43561,note_off,,,,,3,0,2,,,,1,,69,59
43591,note_on,,,,,32,0,1,,,,0,,77,80
43649,note_on,,,,,88,0,2,,,,1,,68,84
43650,note_on,,,,,59,0,1,,,,0,,86,90
43650,set_tempo,,,,,120,1,0,508475,,,,,,
43651,note_on,,,,,2,0,2,,,,1,,70,86
43700,note_off,,,,,49,0,2,,,,1,,68,57
43701,note_off,,,,,51,0,1,,,,0,,86,57
43701,note_off,,,,,0,0,1,,,,0,,77,62
43702,note_off,,,,,2,0,2,,,,1,,70,57
43710,set_tempo,,,,,60,1,0,500000,,,,,,
43769,note_on,,,,,67,0,2,,,,1,,67,89
43770,note_on,,,,,69,0,1,,,,0,,82,99
43770,note_on,,,,,0,0,1,,,,0,,87,101
43771,note_on,,,,,2,0,2,,,,1,,70,92
43849,note_off,,,,,78,0,2,,,,1,,67,62
43850,note_off,,,,,80,0,1,,,,0,,87,60
43860,set_tempo,,,,,150,1,0,526316,,,,,,
43861,note_on,,,,,12,0,2,,,,1,,66,92
43861,note_on,,,,,11,0,1,,,,0,,88,104
43880,note_off,,,,,19,0,1,,,,0,,82,61
43885,note_off,,,,,5,0,1,,,,0,,88,57
43886,note_off,,,,,25,0,2,,,,1,,66,59
43887,note_off,,,,,1,0,2,,,,1,,70,62
43890,set_tempo,,,,,30,1,0,495868,,,,,,
43890,note_on,,,,,0,0,2,,,,1,,66,92
43890,note_on,,,,,3,0,2,,,,1,,70,92
43891,note_on,,,,,6,0,1,,,,0,,88,109
43919,note_off,,,,,29,0,2,,,,1,,66,58
43920,note_off,,,,,29,0,1,,,,0,,88,59
43921,note_off,,,,,2,0,2,,,,1,,70,59
43949,note_on,,,,,29,0,1,,,,0,,82,101
43999,note_off,,,,,50,0,1,,,,0,,82,58
44009,note_on,,,,,0,0,2,,,,1,,72,102
44009,note_on,,,,,10,0,1,,,,0,,81,110
44009,note_on,,,,,0,0,1,,,,0,,89,111
44009,note_on,,,,,88,0,2,,,,1,,65,102
44010,set_tempo,,,,,120,1,0,508475,,,,,,
44058,note_off,,,,,49,0,1,,,,0,,81,59
44058,note_off,,,,,49,0,2,,,,1,,72,57
44060,note_off,,,,,2,0,1,,,,0,,89,57
44060,note_off,,,,,2,0,2,,,,1,,65,57
44129,note_on,,,,,69,0,1,,,,0,,82,107
44130,note_on,,,,,70,0,2,,,,1,,48,108
44130,control_change,,,,,0,0,2,,64,0,1,,,
44130,control_change,,,,,0,0,1,,64,0,0,,,
44130,note_on,,,,,1,0,1,,,,0,,88,109
44130,set_tempo,,,,,120,1,0,555556,,,,,,
44131,note_on,,,,,1,0,1,,,,0,,79,108
44131,note_on,,,,,0,0,1,,,,0,,91,109
44131,note_on,,,,,1,0,2,,,,1,,60,112
44150,control_change,,,,,19,0,1,,64,127,0,,,
44150,control_change,,,,,19,0,2,,64,127,1,,,
44179,note_off,,,,,29,0,1,,,,0,,88,57
44180,note_off,,,,,1,0,1,,,,0,,82,59
44181,note_off,,,,,31,0,2,,,,1,,48,58
44182,note_off,,,,,1,0,2,,,,1,,60,59
44182,note_off,,,,,2,0,1,,,,0,,91,57
44182,note_off,,,,,0,0,1,,,,0,,79,58
44190,control_change,,,,,8,0,1,,64,0,0,,,
44190,set_tempo,,,,,60,1,0,582524,,,,,,
44190,control_change,,,,,8,0,2,,64,0,1,,,
44249,note_on,,,,,59,0,2,,,,1,,65,120
44249,note_on,,,,,0,0,1,,,,0,,77,112
44249,note_on,,,,,59,0,1,,,,0,,81,114
44250,control_change,,,,,1,0,2,,64,0,1,,,
44250,control_change,,,,,0,0,1,,64,0,0,,,
44250,note_on,,,,,1,0,1,,,,0,,89,115
44251,note_on,,,,,1,0,2,,,,1,,53,118
44270,control_change,,,,,19,0,2,,64,127,1,,,
44270,control_change,,,,,20,0,1,,64,127,0,,,
44278,note_off,,,,,8,0,1,,,,0,,77,57
44279,note_off,,,,,1,0,1,,,,0,,89,58
44279,note_off,,,,,9,0,2,,,,1,,65,57
44280,note_off,,,,,1,0,1,,,,0,,81,58
44280,note_off,,,,,1,0,2,,,,1,,53,59
44310,set_tempo,,,,,120,1,0,714286,,,,,,
44350,control_change,,,,,70,0,1,,64,0,0,,,
44350,control_change,,,,,70,0,2,,64,0,1,,,
44489,note_on,,,,,139,0,2,,,,1,,53,61
44489,note_on,,,,,0,0,2,,,,1,,65,63
44490,note_on,,,,,140,0,1,,,,0,,71,62
44490,control_change,,,,,0,0,1,,64,0,0,,,
44490,note_on,,,,,0,0,1,,,,0,,74,62
44490,control_change,,,,,1,0,2,,64,0,1,,,
44490,set_tempo,,,,,180,1,0,555556,,,,,,
44510,control_change,,,,,20,0,2,,64,127,1,,,
44510,control_change,,,,,20,0,1,,64,127,0,,,
44569,note_off,,,,,59,0,1,,,,0,,71,61
44571,note_off,,,,,2,0,1,,,,0,,74,60
44580,note_on,,,,,9,0,1,,,,0,,74,55
44580,set_tempo,,,,,90,1,0,545455,,,,,,
44581,note_on,,,,,1,0,1,,,,0,,77,58
44605,note_off,,,,,0,0,1,,,,0,,74,57
44605,note_off,,,,,24,0,1,,,,0,,77,57
44609,note_on,,,,,4,0,1,,,,0,,74,61
44610,control_change,,,,,100,0,2,,64,0,1,,,
44610,note_on,,,,,1,0,1,,,,0,,77,64
44610,set_tempo,,,,,30,1,0,526316,,,,,,
44610,control_change,,,,,0,0,1,,64,0,0,,,
44630,control_change,,,,,20,0,1,,64,127,0,,,
44630,control_change,,,,,20,0,2,,64,127,1,,,
44639,note_off,,,,,9,0,1,,,,0,,77,58
44640,note_off,,,,,1,0,1,,,,0,,74,59
44659,note_off,,,,,29,0,2,,,,1,,53,65
44660,note_off,,,,,1,0,2,,,,1,,65,63
44669,note_on,,,,,9,0,2,,,,1,,53,58
44720,note_off,,,,,51,0,2,,,,1,,53,57
44730,note_on,,,,,90,0,1,,,,0,,74,58
44730,control_change,,,,,0,0,1,,64,0,0,,,
44730,set_tempo,,,,,120,1,0,517241,,,,,,
44730,control_change,,,,,0,0,2,,64,0,1,,,
44730,note_on,,,,,10,0,2,,,,1,,65,64
44731,note_on,,,,,1,0,1,,,,0,,71,58
44754,note_off,,,,,24,0,2,,,,1,,65,58
44780,note_off,,,,,49,0,1,,,,0,,74,58
44781,note_off,,,,,1,0,1,,,,0,,71,57
44849,note_on,,,,,95,0,2,,,,1,,53,61
44850,control_change,,,,,0,0,2,,64,0,1,,,
44850,note_on,,,,,69,0,1,,,,0,,74,62
44850,control_change,,,,,0,0,1,,64,0,0,,,
44850,note_on,,,,,1,0,2,,,,1,,41,62
44851,note_on,,,,,1,0,1,,,,0,,71,60
44870,control_change,,,,,19,0,1,,64,127,0,,,
44870,control_change,,,,,20,0,2,,64,127,1,,,
44931,note_off,,,,,61,0,1,,,,0,,74,60
44932,note_off,,,,,1,0,1,,,,0,,71,62
44939,note_on,,,,,7,0,1,,,,0,,75,52
44940,note_on,,,,,1,0,1,,,,0,,79,56
44940,set_tempo,,,,,210,1,0,545455,,,,,,
44965,note_off,,,,,25,0,1,,,,0,,75,57
44966,note_off,,,,,1,0,1,,,,0,,79,57
44970,note_on,,,,,4,0,1,,,,0,,75,57
44970,control_change,,,,,100,0,2,,64,0,1,,,
44970,set_tempo,,,,,30,1,0,526316,,,,,,
44970,control_change,,,,,0,0,1,,64,0,0,,,
44971,note_on,,,,,1,0,1,,,,0,,79,62
44990,control_change,,,,,19,0,1,,64,127,0,,,
44990,control_change,,,,,20,0,2,,64,127,1,,,
45001,note_off,,,,,11,0,1,,,,0,,75,59
45002,note_off,,,,,1,0,1,,,,0,,79,57
45018,note_off,,,,,28,0,2,,,,1,,53,65
45021,note_off,,,,,3,0,2,,,,1,,41,64
45031,note_on,,,,,10,0,2,,,,1,,41,60
45080,note_off,,,,,49,0,2,,,,1,,41,58
45089,note_on,,,,,9,0,2,,,,1,,53,66
45089,note_on,,,,,87,0,1,,,,0,,75,57
45090,set_tempo,,,,,120,1,0,517241,,,,,,
45090,control_change,,,,,1,0,2,,64,0,1,,,
45090,control_change,,,,,1,0,1,,64,0,0,,,
45091,note_on,,,,,1,0,1,,,,0,,72,54
45114,note_off,,,,,24,0,2,,,,1,,53,59
45140,note_off,,,,,49,0,1,,,,0,,75,57
45141,note_off,,,,,1,0,1,,,,0,,72,58
45150,set_tempo,,,,,60,1,0,526316,,,,,,
45210,note_on,,,,,96,0,2,,,,1,,41,61
45210,control_change,,,,,0,0,2,,64,0,1,,,
45210,control_change,,,,,69,0,1,,64,0,0,,,
45211,note_on,,,,,0,0,1,,,,0,,72,63
45211,note_on,,,,,1,0,1,,,,0,,69,61
45211,note_on,,,,,1,0,2,,,,1,,53,63
45230,control_change,,,,,19,0,1,,64,127,0,,,
45230,control_change,,,,,19,0,2,,64,127,1,,,
45291,note_off,,,,,0,0,1,,,,0,,69,61
45291,note_off,,,,,61,0,1,,,,0,,72,61
45300,note_on,,,,,0,0,1,,,,0,,75,58
45300,set_tempo,,,,,150,1,0,566038,,,,,,
45300,note_on,,,,,9,0,1,,,,0,,72,56
45325,note_off,,,,,25,0,1,,,,0,,72,57
45326,note_off,,,,,1,0,1,,,,0,,75,58
45330,set_tempo,,,,,30,1,0,535714,,,,,,
45330,note_on,,,,,4,0,1,,,,0,,72,57
45330,control_change,,,,,0,0,1,,64,0,0,,,
45330,control_change,,,,,100,0,2,,64,0,1,,,
45331,note_on,,,,,1,0,1,,,,0,,75,61
45350,control_change,,,,,20,0,2,,64,127,1,,,
45350,control_change,,,,,19,0,1,,64,127,0,,,
45359,note_off,,,,,9,0,1,,,,0,,72,58
45361,note_off,,,,,2,0,1,,,,0,,75,59
45380,note_off,,,,,30,0,2,,,,1,,41,65
45382,note_off,,,,,2,0,2,,,,1,,53,64
45389,note_on,,,,,28,0,1,,,,0,,63,49
45390,note_on,,,,,8,0,2,,,,1,,41,58
45439,note_off,,,,,49,0,2,,,,1,,41,57
45449,note_on,,,,,60,0,1,,,,0,,69,52
45450,control_change,,,,,11,0,2,,64,0,1,,,
45450,control_change,,,,,0,0,1,,64,0,0,,,
45450,note_on,,,,,1,0,1,,,,0,,72,55
45451,note_on,,,,,1,0,2,,,,1,,53,64
45477,note_off,,,,,26,0,2,,,,1,,53,57
45499,note_off,,,,,49,0,1,,,,0,,63,62
45500,note_off,,,,,1,0,1,,,,0,,69,57
45501,note_off,,,,,1,0,1,,,,0,,72,59
45510,set_tempo,,,,,180,1,0,545455,,,,,,
45569,note_on,,,,,68,0,1,,,,0,,72,61
45569,note_on,,,,,92,0,2,,,,1,,29,59
45570,control_change,,,,,1,0,2,,64,0,1,,,
45570,control_change,,,,,0,0,1,,64,0,0,,,
45570,note_on,,,,,1,0,1,,,,0,,69,59
45571,note_on,,,,,1,0,2,,,,1,,41,60
45590,control_change,,,,,20,0,1,,64,127,0,,,
45590,control_change,,,,,19,0,2,,64,127,1,,,
45649,note_off,,,,,0,0,1,,,,0,,72,60
45649,note_off,,,,,59,0,1,,,,0,,69,61
45659,note_on,,,,,10,0,1,,,,0,,77,56
45660,note_on,,,,,1,0,1,,,,0,,73,53
45660,set_tempo,,,,,150,1,0,582524,,,,,,
45683,note_off,,,,,23,0,1,,,,0,,77,59
45685,note_off,,,,,2,0,1,,,,0,,73,59
45690,control_change,,,,,100,0,2,,64,0,1,,,
45690,control_change,,,,,0,0,1,,64,0,0,,,
45690,note_on,,,,,0,0,1,,,,0,,77,65
45690,note_on,,,,,5,0,1,,,,0,,74,65
45690,set_tempo,,,,,30,1,0,545455,,,,,,
45710,control_change,,,,,20,0,2,,64,127,1,,,
45710,control_change,,,,,20,0,1,,64,127,0,,,
45720,note_off,,,,,10,0,1,,,,0,,74,58
45721,note_off,,,,,1,0,1,,,,0,,77,57
45740,note_off,,,,,30,0,2,,,,1,,29,64
45742,note_off,,,,,2,0,2,,,,1,,41,63
45749,note_on,,,,,7,0,2,,,,1,,29,57
45751,note_on,,,,,30,0,1,,,,0,,65,50
45798,note_off,,,,,49,0,2,,,,1,,29,57
45810,control_change,,,,,0,0,2,,64,0,1,,,
45810,note_on,,,,,12,0,2,,,,1,,41,66
45810,set_tempo,,,,,120,1,0,594059,,,,,,
45810,note_on,,,,,59,0,1,,,,0,,70,56
45810,control_change,,,,,0,0,1,,64,0,0,,,
45810,note_on,,,,,0,0,1,,,,0,,74,56
45836,note_off,,,,,26,0,2,,,,1,,41,59
45859,note_off,,,,,49,0,1,,,,0,,70,58
45861,note_off,,,,,0,0,1,,,,0,,65,62
45861,note_off,,,,,2,0,1,,,,0,,74,58
45870,set_tempo,,,,,60,1,0,845070,,,,,,
45929,note_on,,,,,93,0,2,,,,1,,42,63
45929,note_on,,,,,68,0,1,,,,0,,60,57
45930,note_on,,,,,1,0,1,,,,0,,57,52
45930,note_on,,,,,1,0,2,,,,1,,30,61
45930,control_change,,,,,0,0,2,,64,0,1,,,
45930,set_tempo,,,,,60,1,0,555556,,,,,,
45930,control_change,,,,,0,0,1,,64,0,0,,,
45950,control_change,,,,,20,0,2,,64,127,1,,,
45950,control_change,,,,,20,0,1,,64,127,0,,,
46009,note_off,,,,,59,0,1,,,,0,,57,61
46010,note_off,,,,,1,0,1,,,,0,,60,60
46019,note_on,,,,,9,0,1,,,,0,,60,57
46020,note_on,,,,,1,0,1,,,,0,,63,57
46020,set_tempo,,,,,90,1,0,545455,,,,,,
46044,note_off,,,,,24,0,1,,,,0,,60,59
46045,note_off,,,,,1,0,1,,,,0,,63,58
46050,control_change,,,,,0,0,1,,64,0,0,,,
46050,note_on,,,,,5,0,1,,,,0,,60,58
46050,control_change,,,,,100,0,2,,64,0,1,,,
46050,set_tempo,,,,,30,1,0,526316,,,,,,
46051,note_on,,,,,1,0,1,,,,0,,63,60
46080,control_change,,,,,29,0,1,,64,127,0,,,
46080,control_change,,,,,30,0,2,,64,127,1,,,
46159,note_off,,,,,79,0,2,,,,1,,30,64
46160,note_off,,,,,1,0,2,,,,1,,42,63
46170,control_change,,,,,10,0,2,,64,0,1,,,
46170,control_change,,,,,90,0,1,,64,0,0,,,
46170,set_tempo,,,,,120,1,0,571429,,,,,,
46171,note_on,,,,,1,0,2,,,,1,,31,58
46171,note_on,,,,,0,0,2,,,,1,,43,60
46200,control_change,,,,,30,0,1,,64,127,0,,,
46200,control_change,,,,,29,0,2,,64,127,1,,,
46275,note_off,,,,,75,0,1,,,,0,,63,63
46276,note_off,,,,,1,0,1,,,,0,,60,63
46289,note_on,,,,,13,0,1,,,,0,,62,56
46290,control_change,,,,,0,0,1,,64,0,0,,,
46290,control_change,,,,,90,0,2,,64,0,1,,,
46290,note_on,,,,,1,0,1,,,,0,,58,54
46290,set_tempo,,,,,120,1,0,535714,,,,,,
46320,control_change,,,,,30,0,2,,64,127,1,,,
46320,control_change,,,,,30,0,1,,64,127,0,,,
46399,note_off,,,,,79,0,1,,,,0,,62,61
46400,note_off,,,,,1,0,1,,,,0,,58,61
46409,note_on,,,,,9,0,1,,,,0,,57,57
46410,control_change,,,,,0,0,1,,64,0,0,,,
46410,note_on,,,,,1,0,1,,,,0,,60,56
46410,set_tempo,,,,,120,1,0,545455,,,,,,
46410,control_change,,,,,90,0,2,,64,0,1,,,
46438,note_off,,,,,28,0,1,,,,0,,57,59
46439,note_off,,,,,1,0,1,,,,0,,60,58
46450,control_change,,,,,40,0,2,,64,127,1,,,
46450,control_change,,,,,11,0,1,,64,127,0,,,
46520,note_off,,,,,70,0,2,,,,1,,31,64
46522,note_off,,,,,2,0,2,,,,1,,43,65
46530,control_change,,,,,80,0,1,,64,0,0,,,
46530,set_tempo,,,,,120,1,0,566038,,,,,,
46530,control_change,,,,,0,0,2,,64,0,1,,,
46530,note_on,,,,,0,0,2,,,,1,,45,58
46530,note_on,,,,,8,0,2,,,,1,,33,56
46531,note_on,,,,,0,0,1,,,,0,,58,57
46531,note_on,,,,,1,0,1,,,,0,,55,54
46570,control_change,,,,,39,0,1,,64,127,0,,,
46570,control_change,,,,,40,0,2,,64,127,1,,,
46640,note_off,,,,,70,0,2,,,,1,,45,61
46641,note_off,,,,,0,0,1,,,,0,,55,62
46641,note_off,,,,,1,0,2,,,,1,,33,61
46641,note_off,,,,,71,0,1,,,,0,,58,60
46649,note_on,,,,,8,0,2,,,,1,,46,54
46650,control_change,,,,,1,0,2,,64,0,1,,,
46650,control_change,,,,,9,0,1,,64,0,0,,,
46650,set_tempo,,,,,120,1,0,582524,,,,,,
46651,note_on,,,,,1,0,1,,,,0,,53,51
46651,note_on,,,,,1,0,2,,,,1,,34,52
46651,note_on,,,,,0,0,1,,,,0,,57,52
46690,control_change,,,,,39,0,2,,64,127,1,,,
46690,control_change,,,,,39,0,1,,64,127,0,,,
46760,note_off,,,,,70,0,2,,,,1,,34,60
46760,note_off,,,,,0,0,2,,,,1,,46,61
46769,note_on,,,,,9,0,2,,,,1,,35,53
46770,set_tempo,,,,,120,1,0,606061,,,,,,
46770,control_change,,,,,1,0,2,,64,0,1,,,
46770,control_change,,,,,80,0,1,,64,0,0,,,
46771,note_on,,,,,1,0,2,,,,1,,47,57
46800,note_off,,,,,29,0,2,,,,1,,47,58
46800,note_off,,,,,0,0,2,,,,1,,35,57
46810,control_change,,,,,40,0,1,,64,127,0,,,
46810,control_change,,,,,10,0,2,,64,127,1,,,
46880,note_off,,,,,70,0,1,,,,0,,53,65
46882,note_off,,,,,2,0,1,,,,0,,57,64
46890,control_change,,,,,8,0,1,,64,0,0,,,
46890,control_change,,,,,0,0,2,,64,0,1,,,
46890,note_on,,,,,80,0,2,,,,1,,36,54
46890,note_on,,,,,0,0,2,,,,1,,48,56
46890,set_tempo,,,,,120,1,0,645161,,,,,,
46891,note_on,,,,,0,0,1,,,,0,,55,51
46891,note_on,,,,,1,0,1,,,,0,,52,50
46930,control_change,,,,,40,0,2,,64,127,1,,,
46930,control_change,,,,,39,0,1,,64,127,0,,,
46999,note_off,,,,,69,0,2,,,,1,,36,60
47000,note_off,,,,,70,0,1,,,,0,,52,61
47001,note_off,,,,,1,0,1,,,,0,,55,60
47001,note_off,,,,,2,0,2,,,,1,,48,61
47009,note_on,,,,,8,0,2,,,,1,,36,49
47009,note_on,,,,,8,0,1,,,,0,,51,51
47010,control_change,,,,,1,0,2,,64,0,1,,,
47010,note_on,,,,,1,0,1,,,,0,,55,52
47010,note_on,,,,,0,0,1,,,,0,,60,53
47010,control_change,,,,,0,0,1,,64,0,0,,,
47010,set_tempo,,,,,120,1,0,714286,,,,,,
47050,control_change,,,,,40,0,2,,64,127,1,,,
47050,control_change,,,,,40,0,1,,64,127,0,,,
47118,note_off,,,,,68,0,2,,,,1,,36,60
47130,control_change,,,,,80,0,1,,64,0,0,,,
47130,set_tempo,,,,,120,1,0,845070,,,,,,
47130,note_on,,,,,12,0,2,,,,1,,43,48
47130,control_change,,,,,0,0,2,,64,0,1,,,
47170,control_change,,,,,40,0,2,,64,127,1,,,
47170,control_change,,,,,40,0,1,,64,127,0,,,
47238,note_off,,,,,68,0,1,,,,0,,51,64
47241,note_off,,,,,3,0,1,,,,0,,60,63
47250,note_on,,,,,0,0,1,,,,0,,59,50
47250,control_change,,,,,0,0,1,,64,0,0,,,
47250,set_tempo,,,,,120,1,0,666667,,,,,,
47250,control_change,,,,,80,0,2,,64,0,1,,,
47250,note_on,,,,,9,0,1,,,,0,,50,49
47290,control_change,,,,,40,0,1,,64,127,0,,,
47290,control_change,,,,,40,0,2,,64,127,1,,,
47354,note_off,,,,,64,0,2,,,,1,,43,65
47355,note_off,,,,,65,0,1,,,,0,,55,64
47360,note_off,,,,,5,0,1,,,,0,,59,60
47361,note_off,,,,,1,0,1,,,,0,,50,62
47440,control_change,,,,,86,0,2,,64,0,1,,,
47440,control_change,,,,,79,0,1,,64,0,0,,,
47490,set_tempo,,,,,240,1,0,1200000,,,,,,
47730,set_tempo,,,,,240,1,0,535714,,,,,,
47730,note_on,,,,,290,0,1,,,,0,,59,50
47809,note_off,,,,,79,0,1,,,,0,,59,62
47819,note_on,,,,,10,0,1,,,,0,,62,52
47820,set_tempo,,,,,90,1,0,631579,,,,,,
47844,note_off,,,,,25,0,1,,,,0,,62,59
47850,set_tempo,,,,,30,1,0,545455,,,,,,
47851,note_on,,,,,7,0,1,,,,0,,62,53
47881,note_off,,,,,30,0,1,,,,0,,62,58
47971,note_on,,,,,90,0,1,,,,0,,59,45
48020,note_off,,,,,49,0,1,,,,0,,59,57
48030,set_tempo,,,,,180,1,0,594059,,,,,,
48089,note_on,,,,,69,0,1,,,,0,,62,53
48090,set_tempo,,,,,60,1,0,508475,,,,,,
48091,note_on,,,,,651,0,2,,,,1,,55,55
48091,note_on,,,,,0,0,2,,,,1,,43,53
48091,note_on,,,,,2,0,1,,,,0,,71,57
48172,note_off,,,,,81,0,2,,,,1,,43,60
48172,note_off,,,,,81,0,1,,,,0,,71,60
48180,set_tempo,,,,,90,1,0,555556,,,,,,
48180,note_on,,,,,8,0,2,,,,1,,47,59
48181,note_on,,,,,9,0,1,,,,0,,74,62
48205,note_off,,,,,24,0,1,,,,0,,74,58
48206,note_off,,,,,26,0,2,,,,1,,47,58
48209,note_on,,,,,4,0,1,,,,0,,74,66
48209,note_on,,,,,3,0,2,,,,1,,47,59
48210,set_tempo,,,,,30,1,0,500000,,,,,,
48240,note_off,,,,,31,0,1,,,,0,,74,57
48240,note_off,,,,,31,0,2,,,,1,,47,59
48259,note_off,,,,,19,0,1,,,,0,,62,64
48270,note_on,,,,,11,0,1,,,,0,,62,56
48330,note_on,,,,,60,0,1,,,,0,,71,69
48330,set_tempo,,,,,120,1,0,517241,,,,,,
48331,note_on,,,,,91,0,2,,,,1,,43,51
48356,note_off,,,,,26,0,1,,,,0,,71,58
48377,note_off,,,,,46,0,2,,,,1,,55,63
48379,note_off,,,,,23,0,1,,,,0,,62,60
48380,note_off,,,,,3,0,2,,,,1,,43,57
48390,set_tempo,,,,,60,1,0,697674,,,,,,
48449,note_on,,,,,69,0,2,,,,1,,72,52
48449,note_on,,,,,70,0,1,,,,0,,84,59
48450,control_change,,,,,1,0,2,,64,0,1,,,
48450,set_tempo,,,,,60,1,0,517241,,,,,,
48450,control_change,,,,,1,0,1,,64,0,0,,,
48470,control_change,,,,,20,0,1,,64,127,0,,,
48470,control_change,,,,,20,0,2,,64,127,1,,,
48528,note_off,,,,,58,0,1,,,,0,,84,62
48530,note_off,,,,,60,0,2,,,,1,,72,61
48539,note_on,,,,,9,0,2,,,,1,,75,58
48539,note_on,,,,,11,0,1,,,,0,,87,66
48540,set_tempo,,,,,90,1,0,508475,,,,,,
48563,note_off,,,,,24,0,1,,,,0,,87,57
48563,note_off,,,,,24,0,2,,,,1,,75,57
48569,note_on,,,,,6,0,1,,,,0,,87,65
48570,note_on,,,,,7,0,2,,,,1,,75,62
48570,set_tempo,,,,,30,1,0,517241,,,,,,
48598,note_off,,,,,29,0,1,,,,0,,87,58
48601,note_off,,,,,31,0,2,,,,1,,75,58
48690,control_change,,,,,92,0,1,,64,0,0,,,
48690,control_change,,,,,89,0,2,,64,0,1,,,
48690,set_tempo,,,,,120,1,0,535714,,,,,,
48691,note_on,,,,,1,0,1,,,,0,,84,56
48691,note_on,,,,,1,0,2,,,,1,,72,52
48741,note_off,,,,,50,0,1,,,,0,,84,57
48741,note_off,,,,,50,0,2,,,,1,,72,59
48810,set_tempo,,,,,120,1,0,500000,,,,,,
48810,control_change,,,,,69,0,1,,64,0,0,,,
48810,control_change,,,,,69,0,2,,64,0,1,,,
48811,note_on,,,,,1,0,2,,,,1,,43,64
48811,note_on,,,,,0,0,2,,,,1,,55,68
48811,note_on,,,,,1,0,1,,,,0,,62,62
48811,note_on,,,,,0,0,1,,,,0,,71,62
48830,control_change,,,,,19,0,1,,64,127,0,,,
48830,control_change,,,,,19,0,2,,64,127,1,,,
48890,note_off,,,,,60,0,1,,,,0,,71,61
48891,note_off,,,,,1,0,1,,,,0,,62,61
48899,note_on,,,,,8,0,1,,,,0,,74,67
48900,set_tempo,,,,,90,1,0,508475,,,,,,
48901,note_on,,,,,2,0,1,,,,0,,65,66
48925,note_off,,,,,24,0,1,,,,0,,74,57
48927,note_off,,,,,2,0,1,,,,0,,65,59
48930,set_tempo,,,,,30,1,0,500000,,,,,,
48930,control_change,,,,,3,0,1,,64,0,0,,,
48930,control_change,,,,,100,0,2,,64,0,1,,,
48931,note_on,,,,,1,0,1,,,,0,,65,70
48931,note_on,,,,,0,0,1,,,,0,,74,74
48950,control_change,,,,,20,0,2,,64,127,1,,,
48950,control_change,,,,,19,0,1,,64,127,0,,,
48961,note_off,,,,,11,0,1,,,,0,,74,57
48961,note_off,,,,,0,0,1,,,,0,,65,57
48981,note_off,,,,,31,0,2,,,,1,,55,63
48981,note_off,,,,,0,0,2,,,,1,,43,65
48989,note_on,,,,,8,0,2,,,,1,,43,76
49040,note_off,,,,,51,0,2,,,,1,,43,58
49049,note_on,,,,,88,0,1,,,,0,,71,67
49050,set_tempo,,,,,120,1,0,517241,,,,,,
49050,control_change,,,,,0,0,2,,64,0,1,,,
49050,note_on,,,,,10,0,2,,,,1,,55,82
49050,note_on,,,,,1,0,1,,,,0,,62,66
49050,control_change,,,,,0,0,1,,64,0,0,,,
49075,note_off,,,,,25,0,2,,,,1,,55,59
49099,note_off,,,,,0,0,1,,,,0,,71,59
49099,note_off,,,,,49,0,1,,,,0,,62,58
49110,set_tempo,,,,,60,1,0,545455,,,,,,
49169,note_on,,,,,70,0,1,,,,0,,62,80
49170,control_change,,,,,1,0,1,,64,0,0,,,
49170,set_tempo,,,,,60,1,0,500000,,,,,,
49170,note_on,,,,,95,0,2,,,,1,,36,78
49170,control_change,,,,,0,0,2,,64,0,1,,,
49171,note_on,,,,,1,0,2,,,,1,,48,81
49171,note_on,,,,,1,0,1,,,,0,,71,84
49190,control_change,,,,,19,0,1,,64,127,0,,,
49190,control_change,,,,,19,0,2,,64,127,1,,,
49249,note_off,,,,,59,0,1,,,,0,,62,61
49252,note_off,,,,,3,0,1,,,,0,,71,61
49259,note_on,,,,,7,0,1,,,,0,,67,86
49260,note_on,,,,,1,0,1,,,,0,,75,88
49260,set_tempo,,,,,90,1,0,545455,,,,,,
49283,note_off,,,,,23,0,1,,,,0,,67,59
49286,note_off,,,,,3,0,1,,,,0,,75,57
49289,note_on,,,,,0,0,1,,,,0,,67,93
49289,note_on,,,,,3,0,1,,,,0,,75,95
49290,control_change,,,,,1,0,1,,64,0,0,,,
49290,control_change,,,,,100,0,2,,64,0,1,,,
49290,set_tempo,,,,,30,1,0,526316,,,,,,
49310,control_change,,,,,20,0,2,,64,127,1,,,
49310,control_change,,,,,20,0,1,,64,127,0,,,
49318,note_off,,,,,8,0,1,,,,0,,67,59
49318,note_off,,,,,0,0,1,,,,0,,75,59
49340,note_off,,,,,30,0,2,,,,1,,36,65
49341,note_off,,,,,1,0,2,,,,1,,48,63
49349,note_on,,,,,8,0,2,,,,1,,36,79
49398,note_off,,,,,49,0,2,,,,1,,36,59
49409,note_on,,,,,11,0,2,,,,1,,48,84
49409,note_on,,,,,91,0,1,,,,0,,63,89
49409,note_on,,,,,0,0,1,,,,0,,72,89
49410,control_change,,,,,1,0,2,,64,0,1,,,
49410,control_change,,,,,1,0,1,,64,0,0,,,
49410,set_tempo,,,,,120,1,0,508475,,,,,,
49434,note_off,,,,,24,0,2,,,,1,,48,59
49458,note_off,,,,,48,0,1,,,,0,,72,59
49460,note_off,,,,,2,0,1,,,,0,,63,58
49470,set_tempo,,,,,60,1,0,517241,,,,,,
49529,note_on,,,,,95,0,2,,,,1,,29,82
49530,note_on,,,,,0,0,1,,,,0,,72,103
49530,control_change,,,,,0,0,2,,64,0,1,,,
49530,note_on,,,,,70,0,1,,,,0,,69,100
49530,control_change,,,,,0,0,1,,64,0,0,,,
49530,note_on,,,,,1,0,2,,,,1,,41,83
49550,control_change,,,,,20,0,2,,64,127,1,,,
49550,control_change,,,,,20,0,1,,64,127,0,,,
49610,note_off,,,,,60,0,1,,,,0,,69,61
49611,note_off,,,,,1,0,1,,,,0,,72,60
49620,note_on,,,,,9,0,1,,,,0,,72,103
49621,note_on,,,,,1,0,1,,,,0,,81,108
49646,note_off,,,,,25,0,1,,,,0,,72,57
49647,note_off,,,,,1,0,1,,,,0,,81,58
49650,control_change,,,,,3,0,1,,64,0,0,,,
49650,set_tempo,,,,,180,1,0,500000,,,,,,
49650,control_change,,,,,100,0,2,,64,0,1,,,
49651,note_on,,,,,1,0,1,,,,0,,72,105
49651,note_on,,,,,0,0,1,,,,0,,81,106
49670,control_change,,,,,19,0,1,,64,127,0,,,
49670,control_change,,,,,20,0,2,,64,127,1,,,
49680,note_off,,,,,10,0,1,,,,0,,72,57
49681,note_off,,,,,1,0,1,,,,0,,81,57
49698,note_off,,,,,28,0,2,,,,1,,29,63
49700,note_off,,,,,2,0,2,,,,1,,41,64
49710,note_on,,,,,10,0,2,,,,1,,41,89
49760,note_off,,,,,50,0,2,,,,1,,41,57
49770,note_on,,,,,10,0,2,,,,1,,53,92
49770,control_change,,,,,0,0,2,,64,0,1,,,
49770,set_tempo,,,,,120,1,0,571429,,,,,,
49770,control_change,,,,,89,0,1,,64,0,0,,,
49771,note_on,,,,,0,0,1,,,,0,,77,106
49771,note_on,,,,,1,0,1,,,,0,,69,103
49794,note_off,,,,,24,0,2,,,,1,,53,57
49820,note_off,,,,,49,0,1,,,,0,,69,57
49822,note_off,,,,,2,0,1,,,,0,,77,57
49830,set_tempo,,,,,60,1,0,517241,,,,,,
49889,note_on,,,,,0,0,2,,,,1,,46,114
49889,note_on,,,,,95,0,2,,,,1,,34,107
49890,note_on,,,,,68,0,1,,,,0,,82,112
49890,control_change,,,,,0,0,1,,64,0,0,,,
49890,control_change,,,,,1,0,2,,64,0,1,,,
49891,note_on,,,,,1,0,1,,,,0,,70,110
49910,control_change,,,,,19,0,1,,64,127,0,,,
49910,control_change,,,,,20,0,2,,64,127,1,,,
49939,note_off,,,,,29,0,2,,,,1,,34,57
49939,note_off,,,,,29,0,1,,,,0,,82,59
49940,note_off,,,,,1,0,2,,,,1,,46,58
49941,note_off,,,,,2,0,1,,,,0,,70,57
49950,set_tempo,,,,,120,1,0,645161,,,,,,
49950,control_change,,,,,9,0,1,,64,0,0,,,
49950,control_change,,,,,10,0,2,,64,0,1,,,
50010,control_change,,,,,0,0,1,,64,0,0,,,
50010,note_on,,,,,60,0,1,,,,0,,70,113
50010,control_change,,,,,60,0,2,,64,0,1,,,
50011,note_on,,,,,1,0,2,,,,1,,34,109
50011,note_on,,,,,1,0,1,,,,0,,82,115
50011,note_on,,,,,0,0,2,,,,1,,46,112
50030,control_change,,,,,19,0,2,,64,127,1,,,
50030,control_change,,,,,19,0,1,,64,127,0,,,
50039,note_off,,,,,9,0,1,,,,0,,70,58
50040,note_off,,,,,1,0,1,,,,0,,82,58
50041,note_off,,,,,11,0,2,,,,1,,34,59
50042,note_off,,,,,1,0,2,,,,1,,46,59
50070,set_tempo,,,,,120,1,0,750000,,,,,,
50090,control_change,,,,,48,0,2,,64,0,1,,,
50090,control_change,,,,,50,0,1,,64,0,0,,,
50249,note_on,,,,,159,0,2,,,,1,,77,69
50249,note_on,,,,,159,0,1,,,,0,,86,60
50250,note_on,,,,,1,0,2,,,,1,,65,69
50250,control_change,,,,,0,0,2,,64,0,1,,,
50250,note_on,,,,,1,0,1,,,,0,,83,57
50250,control_change,,,,,0,0,1,,64,0,0,,,
50250,set_tempo,,,,,180,1,0,535714,,,,,,
50270,control_change,,,,,20,0,1,,64,127,0,,,
50270,control_change,,,,,20,0,2,,64,127,1,,,
50329,note_off,,,,,59,0,1,,,,0,,83,60
50330,note_off,,,,,1,0,1,,,,0,,86,60
50339,note_on,,,,,9,0,1,,,,0,,86,50
50339,note_on,,,,,0,0,1,,,,0,,89,56
50340,set_tempo,,,,,90,1,0,555556,,,,,,
50363,note_off,,,,,24,0,1,,,,0,,89,58
50363,note_off,,,,,0,0,1,,,,0,,86,57
50370,note_on,,,,,7,0,1,,,,0,,89,62
50370,control_change,,,,,0,0,1,,64,0,0,,,
50370,set_tempo,,,,,30,1,0,526316,,,,,,
50370,control_change,,,,,100,0,2,,64,0,1,,,
50371,note_on,,,,,1,0,1,,,,0,,86,62
50390,control_change,,,,,19,0,1,,64,127,0,,,
50390,control_change,,,,,20,0,2,,64,127,1,,,
50400,note_off,,,,,10,0,1,,,,0,,86,58
50401,note_off,,,,,1,0,1,,,,0,,89,58
50419,note_off,,,,,29,0,2,,,,1,,65,63
50420,note_off,,,,,1,0,2,,,,1,,77,63
50429,note_on,,,,,9,0,2,,,,1,,65,56
50480,note_off,,,,,51,0,2,,,,1,,65,59
50489,note_on,,,,,9,0,2,,,,1,,77,63
50490,control_change,,,,,0,0,1,,64,0,0,,,
50490,note_on,,,,,89,0,1,,,,0,,83,53
50490,set_tempo,,,,,120,1,0,535714,,,,,,
50490,control_change,,,,,1,0,2,,64,0,1,,,
50491,note_on,,,,,1,0,1,,,,0,,86,57
50514,note_off,,,,,24,0,2,,,,1,,77,57
50540,note_off,,,,,49,0,1,,,,0,,86,59
50540,note_off,,,,,0,0,1,,,,0,,83,58
50550,set_tempo,,,,,60,1,0,526316,,,,,,
50610,control_change,,,,,96,0,2,,64,0,1,,,
50610,control_change,,,,,70,0,1,,64,0,0,,,
50610,set_tempo,,,,,60,1,0,508475,,,,,,
50611,note_on,,,,,1,0,1,,,,0,,83,61
50611,note_on,,,,,0,0,1,,,,0,,86,63
50611,note_on,,,,,0,0,2,,,,1,,65,66
50611,note_on,,,,,1,0,2,,,,1,,53,63
50630,control_change,,,,,19,0,2,,64,127,1,,,
50630,control_change,,,,,19,0,1,,64,127,0,,,
50690,note_off,,,,,60,0,1,,,,0,,83,61
50692,note_off,,,,,2,0,1,,,,0,,86,62
50699,note_on,,,,,0,0,1,,,,0,,91,60
50699,note_on,,,,,7,0,1,,,,0,,87,59
50700,set_tempo,,,,,90,1,0,535714,,,,,,
50723,note_off,,,,,24,0,1,,,,0,,87,57
50725,note_off,,,,,2,0,1,,,,0,,91,57
50729,note_on,,,,,4,0,1,,,,0,,87,64
50730,control_change,,,,,100,0,2,,64,0,1,,,
50730,note_on,,,,,1,0,1,,,,0,,91,67
50730,control_change,,,,,0,0,1,,64,0,0,,,
50730,set_tempo,,,,,30,1,0,555556,,,,,,
50750,control_change,,,,,20,0,2,,64,127,1,,,
50750,control_change,,,,,20,0,1,,64,127,0,,,
50759,note_off,,,,,0,0,1,,,,0,,87,58
50759,note_off,,,,,9,0,1,,,,0,,91,57
50781,note_off,,,,,31,0,2,,,,1,,65,65
50782,note_off,,,,,1,0,2,,,,1,,53,64
50791,note_on,,,,,9,0,2,,,,1,,53,56
50841,note_off,,,,,50,0,2,,,,1,,53,58
50849,note_on,,,,,8,0,2,,,,1,,65,65
50849,note_on,,,,,90,0,1,,,,0,,84,61
50849,note_on,,,,,0,0,1,,,,0,,87,61
50850,control_change,,,,,1,0,1,,64,0,0,,,
50850,set_tempo,,,,,120,1,0,517241,,,,,,
50850,control_change,,,,,1,0,2,,64,0,1,,,
50875,note_off,,,,,25,0,2,,,,1,,65,58
50898,note_off,,,,,48,0,1,,,,0,,84,59
50900,note_off,,,,,2,0,1,,,,0,,87,59
50910,set_tempo,,,,,60,1,0,571429,,,,,,
50969,note_on,,,,,69,0,1,,,,0,,84,62
50970,control_change,,,,,0,0,2,,64,0,1,,,
50970,control_change,,,,,1,0,1,,64,0,0,,,
50970,note_on,,,,,95,0,2,,,,1,,53,58
50970,set_tempo,,,,,60,1,0,508475,,,,,,
50971,note_on,,,,,1,0,1,,,,0,,81,58
50971,note_on,,,,,1,0,2,,,,1,,65,64
50990,control_change,,,,,19,0,1,,64,127,0,,,
50990,control_change,,,,,19,0,2,,64,127,1,,,
51048,note_off,,,,,58,0,1,,,,0,,84,61
51051,note_off,,,,,3,0,1,,,,0,,81,61
51059,note_on,,,,,8,0,1,,,,0,,84,53
51060,set_tempo,,,,,90,1,0,535714,,,,,,
51061,note_on,,,,,2,0,1,,,,0,,87,58
51085,note_off,,,,,24,0,1,,,,0,,84,58
51086,note_off,,,,,1,0,1,,,,0,,87,58
51090,set_tempo,,,,,30,1,0,555556,,,,,,
51090,control_change,,,,,4,0,1,,64,0,0,,,
51090,control_change,,,,,100,0,2,,64,0,1,,,
51091,note_on,,,,,1,0,1,,,,0,,84,66
51091,note_on,,,,,0,0,1,,,,0,,87,65
51110,control_change,,,,,19,0,1,,64,127,0,,,
51110,control_change,,,,,20,0,2,,64,127,1,,,
51121,note_off,,,,,0,0,1,,,,0,,84,57
51121,note_off,,,,,11,0,1,,,,0,,87,58
51139,note_off,,,,,29,0,2,,,,1,,53,64
51142,note_off,,,,,3,0,2,,,,1,,65,63
51149,note_on,,,,,28,0,1,,,,0,,75,52
51150,note_on,,,,,8,0,2,,,,1,,53,62
51201,note_off,,,,,51,0,2,,,,1,,53,59
51209,note_on,,,,,8,0,2,,,,1,,65,67
51210,control_change,,,,,61,0,1,,64,0,0,,,
51210,control_change,,,,,1,0,2,,64,0,1,,,
51210,set_tempo,,,,,120,1,0,517241,,,,,,
51211,note_on,,,,,1,0,1,,,,0,,81,59
51211,note_on,,,,,0,0,1,,,,0,,84,59
51235,note_off,,,,,25,0,2,,,,1,,65,59
51258,note_off,,,,,47,0,1,,,,0,,75,62
51260,note_off,,,,,2,0,1,,,,0,,84,59
51261,note_off,,,,,1,0,1,,,,0,,81,58
51270,set_tempo,,,,,60,1,0,555556,,,,,,
51329,note_on,,,,,68,0,1,,,,0,,84,62
51330,set_tempo,,,,,60,1,0,535714,,,,,,
51330,note_on,,,,,95,0,2,,,,1,,41,64
51330,control_change,,,,,1,0,1,,64,0,0,,,
51330,control_change,,,,,0,0,2,,64,0,1,,,
51331,note_on,,,,,1,0,2,,,,1,,53,66
51331,note_on,,,,,1,0,1,,,,0,,81,59
51350,control_change,,,,,19,0,1,,64,127,0,,,
51350,control_change,,,,,19,0,2,,64,127,1,,,
51409,note_off,,,,,59,0,1,,,,0,,84,61
51410,note_off,,,,,1,0,1,,,,0,,81,60
51420,set_tempo,,,,,90,1,0,582524,,,,,,
51420,note_on,,,,,10,0,1,,,,0,,89,59
51421,note_on,,,,,1,0,1,,,,0,,85,52
51446,note_off,,,,,25,0,1,,,,0,,89,57
51447,note_off,,,,,1,0,1,,,,0,,85,59
51449,note_on,,,,,2,0,1,,,,0,,89,65
51449,note_on,,,,,0,0,1,,,,0,,86,63
51450,control_change,,,,,100,0,2,,64,0,1,,,
51450,set_tempo,,,,,30,1,0,566038,,,,,,
51450,control_change,,,,,1,0,1,,64,0,0,,,
51470,control_change,,,,,20,0,2,,64,127,1,,,
51470,control_change,,,,,20,0,1,,64,127,0,,,
51478,note_off,,,,,8,0,1,,,,0,,86,58
51479,note_off,,,,,1,0,1,,,,0,,89,59
51501,note_off,,,,,31,0,2,,,,1,,41,64
51502,note_off,,,,,1,0,2,,,,1,,53,64
51510,note_on,,,,,8,0,2,,,,1,,41,57
51511,note_on,,,,,32,0,1,,,,0,,77,50
51561,note_off,,,,,51,0,2,,,,1,,41,59
51569,note_on,,,,,58,0,1,,,,0,,86,57
51570,control_change,,,,,9,0,2,,64,0,1,,,
51570,set_tempo,,,,,120,1,0,618557,,,,,,
51570,control_change,,,,,0,0,1,,64,0,0,,,
51570,note_on,,,,,1,0,1,,,,0,,82,55
51571,note_on,,,,,1,0,2,,,,1,,53,64
51597,note_off,,,,,26,0,2,,,,1,,53,57
51620,note_off,,,,,50,0,1,,,,0,,86,58
51621,note_off,,,,,0,0,1,,,,0,,77,62
51621,note_off,,,,,1,0,1,,,,0,,82,59
51630,set_tempo,,,,,60,1,0,789474,,,,,,
51689,note_on,,,,,92,0,2,,,,1,,54,56
51690,note_on,,,,,1,0,2,,,,1,,63,58
51690,control_change,,,,,0,0,2,,64,0,1,,,
51690,set_tempo,,,,,60,1,0,566038,,,,,,
51690,control_change,,,,,0,0,1,,64,0,0,,,
51690,note_on,,,,,69,0,1,,,,0,,69,58
51691,note_on,,,,,1,0,2,,,,1,,60,56
51691,note_on,,,,,1,0,1,,,,0,,72,59
51710,control_change,,,,,19,0,1,,64,127,0,,,
51710,control_change,,,,,19,0,2,,64,127,1,,,
51769,note_off,,,,,59,0,1,,,,0,,69,61
51772,note_off,,,,,3,0,1,,,,0,,72,61
51779,note_on,,,,,7,0,1,,,,0,,75,54
51780,note_on,,,,,1,0,1,,,,0,,72,51
51780,set_tempo,,,,,90,1,0,535714,,,,,,
51803,note_off,,,,,23,0,1,,,,0,,75,57
51806,note_off,,,,,3,0,1,,,,0,,72,59
51809,note_on,,,,,3,0,1,,,,0,,72,57
51810,set_tempo,,,,,30,1,0,526316,,,,,,
51810,control_change,,,,,0,0,1,,64,0,0,,,
51810,control_change,,,,,100,0,2,,64,0,1,,,
51810,note_on,,,,,1,0,1,,,,0,,75,59
51850,control_change,,,,,40,0,1,,64,127,0,,,
51850,control_change,,,,,40,0,2,,64,127,1,,,
51919,note_off,,,,,69,0,2,,,,1,,54,64
51921,note_off,,,,,0,0,2,,,,1,,60,65
51921,note_off,,,,,2,0,2,,,,1,,63,64
51929,note_on,,,,,0,0,2,,,,1,,63,58
51929,note_on,,,,,8,0,2,,,,1,,54,54
51929,note_on,,,,,0,0,2,,,,1,,60,57
51930,set_tempo,,,,,120,1,0,545455,,,,,,
51930,control_change,,,,,80,0,1,,64,0,0,,,
51930,control_change,,,,,1,0,2,,64,0,1,,,
51970,control_change,,,,,40,0,1,,64,127,0,,,
51970,control_change,,,,,40,0,2,,64,127,1,,,
52033,note_off,,,,,63,0,1,,,,0,,72,63
52035,note_off,,,,,2,0,1,,,,0,,75,63
52038,note_off,,,,,0,0,2,,,,1,,60,61
52038,note_off,,,,,68,0,2,,,,1,,63,62
52040,note_off,,,,,2,0,2,,,,1,,54,62
52049,note_on,,,,,9,0,2,,,,1,,58,54
52050,control_change,,,,,0,0,2,,64,0,1,,,
52050,set_tempo,,,,,120,1,0,526316,,,,,,
52050,note_on,,,,,1,0,2,,,,1,,62,56
52050,note_on,,,,,15,0,1,,,,0,,70,55
52050,control_change,,,,,0,0,1,,64,0,0,,,
52051,note_on,,,,,1,0,1,,,,0,,74,56
52051,note_on,,,,,1,0,2,,,,1,,55,50
52090,control_change,,,,,39,0,2,,64,127,1,,,
52090,control_change,,,,,39,0,1,,64,127,0,,,
52158,note_off,,,,,68,0,2,,,,1,,58,60
52159,note_off,,,,,69,0,1,,,,0,,70,62
52160,note_off,,,,,0,0,2,,,,1,,62,60
52160,note_off,,,,,2,0,2,,,,1,,55,60
52162,note_off,,,,,3,0,1,,,,0,,74,62
52169,note_on,,,,,7,0,1,,,,0,,69,53
52169,note_on,,,,,9,0,2,,,,1,,57,52
52170,note_on,,,,,1,0,2,,,,1,,60,57
52170,control_change,,,,,0,0,1,,64,0,0,,,
52170,set_tempo,,,,,120,1,0,535714,,,,,,
52170,note_on,,,,,1,0,1,,,,0,,72,56
52170,control_change,,,,,0,0,2,,64,0,1,,,
52199,note_off,,,,,29,0,1,,,,0,,69,59
52199,note_off,,,,,29,0,2,,,,1,,57,59
52200,note_off,,,,,1,0,2,,,,1,,60,57
52201,note_off,,,,,2,0,1,,,,0,,72,59
52210,control_change,,,,,10,0,2,,64,127,1,,,
52210,control_change,,,,,9,0,1,,64,127,0,,,
52229,note_on,,,,,19,0,2,,,,1,,45,46
52280,note_off,,,,,51,0,2,,,,1,,45,58
52289,note_on,,,,,9,0,2,,,,1,,46,50
52289,note_on,,,,,0,0,2,,,,1,,58,55
52290,note_on,,,,,1,0,2,,,,1,,55,52
52290,set_tempo,,,,,120,1,0,545455,,,,,,
52290,control_change,,,,,80,0,1,,64,0,0,,,
52290,control_change,,,,,0,0,2,,64,0,1,,,
52291,note_on,,,,,0,0,1,,,,0,,70,53
52291,note_on,,,,,1,0,1,,,,0,,67,52
52330,control_change,,,,,40,0,2,,64,127,1,,,
52330,control_change,,,,,39,0,1,,64,127,0,,,
52398,note_off,,,,,68,0,2,,,,1,,58,62
52400,note_off,,,,,2,0,2,,,,1,,55,60
52400,note_off,,,,,0,0,2,,,,1,,46,61
52401,note_off,,,,,71,0,1,,,,0,,67,61
52402,note_off,,,,,1,0,1,,,,0,,70,62
52409,note_on,,,,,9,0,2,,,,1,,57,54
52409,note_on,,,,,0,0,2,,,,1,,47,50
52409,note_on,,,,,7,0,1,,,,0,,65,49
52409,note_on,,,,,0,0,1,,,,0,,69,50
52410,control_change,,,,,1,0,1,,64,0,0,,,
52410,set_tempo,,,,,120,1,0,571429,,,,,,
52410,control_change,,,,,0,0,2,,64,0,1,,,
52410,note_on,,,,,1,0,2,,,,1,,53,51
52450,control_change,,,,,40,0,2,,64,127,1,,,
52450,control_change,,,,,40,0,1,,64,127,0,,,
52518,note_off,,,,,68,0,2,,,,1,,47,61
52529,note_on,,,,,11,0,2,,,,1,,48,50
52530,control_change,,,,,80,0,1,,64,0,0,,,
52530,set_tempo,,,,,120,1,0,618557,,,,,,
52530,control_change,,,,,1,0,2,,64,0,1,,,
52570,control_change,,,,,40,0,2,,64,127,1,,,
52570,control_change,,,,,40,0,1,,64,127,0,,,
52639,note_off,,,,,69,0,1,,,,0,,65,64
52640,note_off,,,,,0,0,2,,,,1,,53,65
52640,note_off,,,,,70,0,2,,,,1,,57,65
52640,note_off,,,,,1,0,1,,,,0,,69,64
52649,note_on,,,,,9,0,2,,,,1,,55,53
52650,control_change,,,,,0,0,2,,64,0,1,,,
52650,note_on,,,,,1,0,2,,,,1,,52,53
52650,set_tempo,,,,,120,1,0,681818,,,,,,
52650,note_on,,,,,10,0,1,,,,0,,64,48
52650,control_change,,,,,0,0,1,,64,0,0,,,
52650,note_on,,,,,0,0,1,,,,0,,67,51
52690,control_change,,,,,40,0,2,,64,127,1,,,
52690,control_change,,,,,40,0,1,,64,127,0,,,
52744,note_off,,,,,54,0,2,,,,1,,48,65
52759,note_off,,,,,15,0,2,,,,1,,55,60
52760,note_off,,,,,70,0,1,,,,0,,64,62
52761,note_off,,,,,2,0,2,,,,1,,52,62
52761,note_off,,,,,1,0,1,,,,0,,67,60
52769,note_on,,,,,0,0,1,,,,0,,72,53
52769,note_on,,,,,8,0,2,,,,1,,48,45
52769,note_on,,,,,8,0,1,,,,0,,63,51
52770,set_tempo,,,,,120,1,0,731707,,,,,,
52770,note_on,,,,,0,0,2,,,,1,,51,46
52770,note_on,,,,,0,0,2,,,,1,,55,48
52770,note_on,,,,,1,0,1,,,,0,,67,53
52770,control_change,,,,,0,0,1,,64,0,0,,,
52770,note_on,,,,,1,0,2,,,,1,,60,49
52770,control_change,,,,,0,0,2,,64,0,1,,,
52790,control_change,,,,,20,0,1,,64,127,0,,,
52790,control_change,,,,,20,0,2,,64,127,1,,,
52880,note_off,,,,,90,0,2,,,,1,,55,62
52880,note_off,,,,,0,0,2,,,,1,,48,60
52881,note_off,,,,,1,0,2,,,,1,,51,61
52890,control_change,,,,,100,0,1,,64,0,0,,,
52890,set_tempo,,,,,120,1,0,845070,,,,,,
52890,control_change,,,,,0,0,2,,64,0,1,,,
52890,note_on,,,,,9,0,2,,,,1,,55,46
52930,control_change,,,,,40,0,2,,64,127,1,,,
52930,control_change,,,,,40,0,1,,64,127,0,,,
52998,note_off,,,,,68,0,1,,,,0,,72,63
53000,note_off,,,,,2,0,1,,,,0,,63,64
53001,note_off,,,,,71,0,2,,,,1,,60,65
53010,control_change,,,,,9,0,2,,64,0,1,,,
53010,set_tempo,,,,,120,1,0,1000000,,,,,,
53010,note_on,,,,,10,0,1,,,,0,,62,47
53010,control_change,,,,,0,0,1,,64,0,0,,,
53010,note_on,,,,,0,0,1,,,,0,,71,48
53011,note_on,,,,,1,0,2,,,,1,,59,43
53050,control_change,,,,,39,0,2,,64,127,1,,,
53050,control_change,,,,,40,0,1,,64,127,0,,,
53111,note_off,,,,,61,0,1,,,,0,,67,64
53114,note_off,,,,,64,0,2,,,,1,,55,63
53119,note_off,,,,,8,0,1,,,,0,,71,61
53120,note_off,,,,,1,0,1,,,,0,,62,62
53122,note_off,,,,,8,0,2,,,,1,,59,62
53130,set_tempo,,,,,120,1,0,1250000,,,,,,
53170,control_change,,,,,48,0,2,,64,0,1,,,
53170,control_change,,,,,50,0,1,,64,0,0,,,
53489,note_on,,,,,319,0,1,,,,0,,71,44
53490,set_tempo,,,,,360,1,0,545455,,,,,,
53568,note_off,,,,,79,0,1,,,,0,,71,60
53579,note_on,,,,,11,0,1,,,,0,,74,48
53580,set_tempo,,,,,90,1,0,571429,,,,,,
53603,note_off,,,,,24,0,1,,,,0,,74,57
53610,set_tempo,,,,,30,1,0,545455,,,,,,
53610,note_on,,,,,7,0,1,,,,0,,74,49
53640,note_off,,,,,30,0,1,,,,0,,74,58
53730,set_tempo,,,,,120,1,0,526316,,,,,,
53731,note_on,,,,,91,0,1,,,,0,,71,42
53761,note_off,,,,,30,0,1,,,,0,,71,57
53790,set_tempo,,,,,60,1,0,535714,,,,,,
53849,note_on,,,,,88,0,1,,,,0,,50,52
53849,note_on,,,,,679,0,2,,,,1,,31,47
53850,set_tempo,,,,,60,1,0,500000,,,,,,
53851,note_on,,,,,2,0,2,,,,1,,43,48
53851,note_on,,,,,2,0,1,,,,0,,59,52
53929,note_off,,,,,78,0,2,,,,1,,31,62
53930,note_off,,,,,79,0,1,,,,0,,59,62
53940,set_tempo,,,,,90,1,0,526316,,,,,,
53941,note_on,,,,,11,0,1,,,,0,,62,58
53941,note_on,,,,,12,0,2,,,,1,,35,51
53965,note_off,,,,,24,0,1,,,,0,,62,57
53966,note_off,,,,,25,0,2,,,,1,,35,57
53970,set_tempo,,,,,30,1,0,545455,,,,,,
53970,note_on,,,,,5,0,1,,,,0,,62,62
53971,note_on,,,,,5,0,2,,,,1,,35,47
54000,note_off,,,,,29,0,2,,,,1,,35,59
54000,note_off,,,,,30,0,1,,,,0,,62,59
54020,note_off,,,,,20,0,1,,,,0,,50,63
54030,note_on,,,,,10,0,1,,,,0,,50,47
54080,note_off,,,,,80,0,2,,,,1,,43,63
54090,set_tempo,,,,,120,1,0,508475,,,,,,
54090,note_on,,,,,60,0,1,,,,0,,59,54
54090,note_on,,,,,10,0,2,,,,1,,31,44
54141,note_off,,,,,51,0,2,,,,1,,31,57
54141,note_off,,,,,0,0,1,,,,0,,50,60
54141,note_off,,,,,51,0,1,,,,0,,59,57
54150,set_tempo,,,,,60,1,0,645161,,,,,,
54209,note_on,,,,,68,0,1,,,,0,,84,56
54209,note_on,,,,,68,0,2,,,,1,,72,51
54210,set_tempo,,,,,60,1,0,508475,,,,,,
54210,control_change,,,,,1,0,2,,64,0,1,,,
54210,control_change,,,,,1,0,1,,64,0,0,,,
54250,control_change,,,,,40,0,2,,64,127,1,,,
54250,control_change,,,,,40,0,1,,64,127,0,,,
54288,note_off,,,,,38,0,1,,,,0,,84,62
54289,note_off,,,,,39,0,2,,,,1,,72,62
54299,note_on,,,,,10,0,2,,,,1,,75,58
54300,set_tempo,,,,,90,1,0,545455,,,,,,
54301,note_on,,,,,13,0,1,,,,0,,87,60
54323,note_off,,,,,24,0,2,,,,1,,75,59
54325,note_off,,,,,24,0,1,,,,0,,87,58
54330,set_tempo,,,,,30,1,0,500000,,,,,,
54330,note_on,,,,,5,0,1,,,,0,,87,61
54331,note_on,,,,,8,0,2,,,,1,,75,56
54359,note_off,,,,,29,0,1,,,,0,,87,58
54361,note_off,,,,,30,0,2,,,,1,,75,59
54449,note_on,,,,,88,0,2,,,,1,,72,48
54449,note_on,,,,,90,0,1,,,,0,,84,55
54450,control_change,,,,,1,0,2,,64,0,1,,,
54450,control_change,,,,,1,0,1,,64,0,0,,,
54450,set_tempo,,,,,120,1,0,526316,,,,,,
54478,note_off,,,,,28,0,1,,,,0,,84,57
54479,note_off,,,,,29,0,2,,,,1,,72,57
54510,set_tempo,,,,,60,1,0,545455,,,,,,
54569,note_on,,,,,90,0,2,,,,1,,55,60
54570,control_change,,,,,0,0,1,,64,0,0,,,
54570,note_on,,,,,92,0,1,,,,0,,74,56
54570,set_tempo,,,,,60,1,0,500000,,,,,,
54570,control_change,,,,,0,0,2,,64,0,1,,,
54570,note_on,,,,,1,0,2,,,,1,,67,61
54570,note_on,,,,,0,0,1,,,,0,,83,59
54590,control_change,,,,,20,0,2,,64,127,1,,,
54590,control_change,,,,,20,0,1,,64,127,0,,,
54650,note_off,,,,,60,0,1,,,,0,,83,62
54651,note_off,,,,,1,0,1,,,,0,,74,61
54660,note_on,,,,,9,0,1,,,,0,,77,60
54660,set_tempo,,,,,90,1,0,545455,,,,,,
54661,note_on,,,,,1,0,1,,,,0,,86,64
54685,note_off,,,,,24,0,1,,,,0,,86,59
54686,note_off,,,,,1,0,1,,,,0,,77,58
54690,set_tempo,,,,,30,1,0,526316,,,,,,
54690,control_change,,,,,0,0,1,,64,0,0,,,
54690,control_change,,,,,100,0,2,,64,0,1,,,
54690,note_on,,,,,4,0,1,,,,0,,86,69
54691,note_on,,,,,1,0,1,,,,0,,77,64
54710,control_change,,,,,20,0,2,,64,127,1,,,
54710,control_change,,,,,19,0,1,,64,127,0,,,
54720,note_off,,,,,10,0,1,,,,0,,86,59
54722,note_off,,,,,2,0,1,,,,0,,77,57
54739,note_off,,,,,0,0,2,,,,1,,67,65
54739,note_off,,,,,29,0,2,,,,1,,55,63
54751,note_on,,,,,12,0,2,,,,1,,55,58
54802,note_off,,,,,51,0,2,,,,1,,55,59
54809,note_on,,,,,87,0,1,,,,0,,74,59
54810,control_change,,,,,8,0,2,,64,0,1,,,
54810,control_change,,,,,0,0,1,,64,0,0,,,
54810,set_tempo,,,,,120,1,0,508475,,,,,,
54810,note_on,,,,,1,0,1,,,,0,,83,59
54811,note_on,,,,,1,0,2,,,,1,,67,66
54835,note_off,,,,,24,0,2,,,,1,,67,58
54859,note_off,,,,,49,0,1,,,,0,,83,59
54859,note_off,,,,,0,0,1,,,,0,,74,59
54870,set_tempo,,,,,60,1,0,535714,,,,,,
54929,note_on,,,,,94,0,2,,,,1,,48,75
54930,control_change,,,,,71,0,1,,64,0,0,,,
54930,set_tempo,,,,,60,1,0,500000,,,,,,
54930,control_change,,,,,1,0,2,,64,0,1,,,
54931,note_on,,,,,0,0,1,,,,0,,83,76
54931,note_on,,,,,1,0,1,,,,0,,74,74
54931,note_on,,,,,1,0,2,,,,1,,60,77
54950,control_change,,,,,19,0,1,,64,127,0,,,
54950,control_change,,,,,19,0,2,,64,127,1,,,
55010,note_off,,,,,0,0,1,,,,0,,74,60
55010,note_off,,,,,60,0,1,,,,0,,83,60
55019,note_on,,,,,9,0,1,,,,0,,87,82
55020,set_tempo,,,,,90,1,0,545455,,,,,,
55021,note_on,,,,,2,0,1,,,,0,,79,78
55045,note_off,,,,,24,0,1,,,,0,,87,57
55047,note_off,,,,,2,0,1,,,,0,,79,59
55050,control_change,,,,,0,0,1,,64,0,0,,,
55050,note_on,,,,,0,0,1,,,,0,,87,90
55050,note_on,,,,,3,0,1,,,,0,,79,88
55050,set_tempo,,,,,30,1,0,526316,,,,,,
55050,control_change,,,,,100,0,2,,64,0,1,,,
55070,control_change,,,,,20,0,1,,64,127,0,,,
55070,control_change,,,,,20,0,2,,64,127,1,,,
55080,note_off,,,,,10,0,1,,,,0,,87,58
55080,note_off,,,,,0,0,1,,,,0,,79,59
55098,note_off,,,,,28,0,2,,,,1,,48,65
55102,note_off,,,,,4,0,2,,,,1,,60,63
55109,note_on,,,,,7,0,2,,,,1,,48,74
55159,note_off,,,,,50,0,2,,,,1,,48,58
55169,note_on,,,,,10,0,2,,,,1,,60,83
55170,control_change,,,,,90,0,1,,64,0,0,,,
55170,control_change,,,,,1,0,2,,64,0,1,,,
55170,set_tempo,,,,,120,1,0,508475,,,,,,
55171,note_on,,,,,1,0,1,,,,0,,75,92
55171,note_on,,,,,0,0,1,,,,0,,84,92
55195,note_off,,,,,25,0,2,,,,1,,60,57
55220,note_off,,,,,49,0,1,,,,0,,75,58
55221,note_off,,,,,1,0,1,,,,0,,84,59
55289,note_on,,,,,68,0,1,,,,0,,84,95
55289,note_on,,,,,94,0,2,,,,1,,41,91
55290,note_on,,,,,1,0,1,,,,0,,81,94
55290,set_tempo,,,,,120,1,0,500000,,,,,,
55290,note_on,,,,,1,0,2,,,,1,,53,94
55290,control_change,,,,,0,0,1,,64,0,0,,,
55290,control_change,,,,,0,0,2,,64,0,1,,,
55310,control_change,,,,,20,0,1,,64,127,0,,,
55310,control_change,,,,,20,0,2,,64,127,1,,,
55368,note_off,,,,,58,0,1,,,,0,,84,60
55370,note_off,,,,,2,0,1,,,,0,,81,62
55379,note_on,,,,,9,0,1,,,,0,,84,87
55380,note_on,,,,,1,0,1,,,,0,,93,89
55380,set_tempo,,,,,90,1,0,555556,,,,,,
55403,note_off,,,,,23,0,1,,,,0,,84,57
55405,note_off,,,,,2,0,1,,,,0,,93,59
55410,control_change,,,,,100,0,2,,64,0,1,,,
55410,control_change,,,,,0,0,1,,64,0,0,,,
55410,set_tempo,,,,,30,1,0,500000,,,,,,
55410,note_on,,,,,5,0,1,,,,0,,84,97
55410,note_on,,,,,0,0,1,,,,0,,93,100
55430,control_change,,,,,20,0,2,,64,127,1,,,
55430,control_change,,,,,20,0,1,,64,127,0,,,
55440,note_off,,,,,0,0,1,,,,0,,84,57
55440,note_off,,,,,10,0,1,,,,0,,93,58
55458,note_off,,,,,28,0,2,,,,1,,41,65
55460,note_off,,,,,2,0,2,,,,1,,53,64
55471,note_on,,,,,11,0,2,,,,1,,41,86
55521,note_off,,,,,50,0,2,,,,1,,41,59
55529,note_on,,,,,89,0,1,,,,0,,89,104
55530,note_on,,,,,9,0,2,,,,1,,53,98
55530,control_change,,,,,0,0,2,,64,0,1,,,
55530,set_tempo,,,,,120,1,0,508475,,,,,,
55530,control_change,,,,,1,0,1,,64,0,0,,,
55531,note_on,,,,,1,0,1,,,,0,,81,100
55556,note_off,,,,,26,0,2,,,,1,,53,57
55579,note_off,,,,,48,0,1,,,,0,,89,57
55580,note_off,,,,,1,0,1,,,,0,,81,58
55590,set_tempo,,,,,60,1,0,500000,,,,,,
55649,note_on,,,,,69,0,1,,,,0,,82,110
55649,note_on,,,,,0,0,1,,,,0,,94,111
55650,control_change,,,,,0,0,2,,64,0,1,,,
55650,note_on,,,,,94,0,2,,,,1,,34,105
55650,control_change,,,,,1,0,1,,64,0,0,,,
55650,note_on,,,,,0,0,2,,,,1,,46,104
55650,set_tempo,,,,,60,1,0,526316,,,,,,
55670,control_change,,,,,20,0,1,,64,127,0,,,
55670,control_change,,,,,20,0,2,,64,127,1,,,
55698,note_off,,,,,28,0,1,,,,0,,94,59
55698,note_off,,,,,0,0,1,,,,0,,82,57
55701,note_off,,,,,0,0,2,,,,1,,34,58
55701,note_off,,,,,31,0,2,,,,1,,46,58
55710,control_change,,,,,9,0,2,,64,0,1,,,
55710,control_change,,,,,12,0,1,,64,0,0,,,
55710,set_tempo,,,,,60,1,0,618557,,,,,,
55769,note_on,,,,,59,0,2,,,,1,,46,108
55769,note_on,,,,,59,0,1,,,,0,,94,120
55770,set_tempo,,,,,60,1,0,535714,,,,,,
55770,control_change,,,,,1,0,1,,11,115,0,,,
55770,control_change,,,,,0,0,1,,64,0,0,,,
55770,control_change,,,,,1,0,2,,64,0,1,,,
55771,note_on,,,,,1,0,2,,,,1,,34,108
55771,note_on,,,,,1,0,1,,,,0,,82,115
55790,control_change,,,,,19,0,1,,64,127,0,,,
55790,control_change,,,,,19,0,2,,64,127,1,,,
55798,note_off,,,,,8,0,2,,,,1,,46,59
55800,note_off,,,,,10,0,1,,,,0,,94,57
55800,note_off,,,,,2,0,2,,,,1,,34,58
55801,note_off,,,,,1,0,1,,,,0,,82,57
55880,control_change,,,,,80,0,2,,64,0,1,,,
55880,control_change,,,,,79,0,1,,64,0,0,,,
55890,set_tempo,,,,,120,1,0,731707,,,,,,
56009,note_on,,,,,129,0,1,,,,0,,71,54
56009,note_on,,,,,129,0,2,,,,1,,35,53
56010,set_tempo,,,,,120,1,0,582524,,,,,,
56010,note_on,,,,,1,0,2,,,,1,,47,57
56010,note_on,,,,,1,0,1,,,,0,,59,51
56058,note_off,,,,,48,0,1,,,,0,,71,59
56059,note_off,,,,,49,0,2,,,,1,,47,59
56059,note_off,,,,,0,0,2,,,,1,,35,57
56060,note_off,,,,,2,0,1,,,,0,,59,57
56129,note_on,,,,,69,0,1,,,,0,,59,46
56130,note_on,,,,,71,0,2,,,,1,,47,51
56130,note_on,,,,,0,0,2,,,,1,,35,48
56130,set_tempo,,,,,120,1,0,566038,,,,,,
56131,note_on,,,,,2,0,1,,,,0,,71,50
56158,note_off,,,,,27,0,1,,,,0,,59,58
56159,note_off,,,,,29,0,2,,,,1,,35,58
56159,note_off,,,,,0,0,2,,,,1,,47,57
56161,note_off,,,,,3,0,1,,,,0,,71,58
56370,control_change,,,,,211,0,2,,64,0,1,,,
56370,control_change,,,,,0,0,1,,64,0,0,,,
56370,note_on,,,,,209,0,1,,,,0,,82,117
56370,set_tempo,,,,,240,1,0,631579,,,,,,
56371,note_on,,,,,1,0,2,,,,1,,34,104
56371,note_on,,,,,0,0,2,,,,1,,46,109
56371,note_on,,,,,1,0,1,,,,0,,94,118
56390,control_change,,,,,19,0,2,,64,127,1,,,
56390,control_change,,,,,19,0,1,,64,127,0,,,
56420,note_off,,,,,30,0,1,,,,0,,94,57
56421,note_off,,,,,1,0,1,,,,0,,82,59
56422,note_off,,,,,32,0,2,,,,1,,46,58
56422,note_off,,,,,0,0,2,,,,1,,34,59
56440,control_change,,,,,18,0,2,,64,0,1,,,
56440,control_change,,,,,19,0,1,,64,0,0,,,
56489,note_on,,,,,49,0,1,,,,0,,94,120
56489,note_on,,,,,49,0,2,,,,1,,34,109
56490,set_tempo,,,,,120,1,0,666667,,,,,,
56490,control_change,,,,,1,0,1,,64,0,0,,,
56490,control_change,,,,,0,0,2,,64,0,1,,,
56490,note_on,,,,,1,0,2,,,,1,,46,111
56491,note_on,,,,,1,0,1,,,,0,,82,116
56510,control_change,,,,,20,0,2,,64,127,1,,,
56510,control_change,,,,,19,0,1,,64,127,0,,,
56518,note_off,,,,,8,0,1,,,,0,,94,57
56518,note_off,,,,,8,0,2,,,,1,,34,58
56521,note_off,,,,,3,0,2,,,,1,,46,57
56521,note_off,,,,,3,0,1,,,,0,,82,58
56560,control_change,,,,,39,0,1,,64,0,0,,,
56560,control_change,,,,,39,0,2,,64,0,1,,,
56610,control_change,,,,,50,0,1,,64,0,0,,,
56610,control_change,,,,,50,0,2,,64,0,1,,,
56730,control_change,,,,,120,0,1,,11,100,0,,,
56730,set_tempo,,,,,240,1,0,594059,,,,,,
56730,note_on,,,,,120,0,2,,,,1,,47,54
56731,note_on,,,,,1,0,1,,,,0,,59,52
56731,note_on,,,,,0,0,1,,,,0,,71,55
56731,note_on,,,,,1,0,2,,,,1,,35,53
56780,note_off,,,,,49,0,2,,,,1,,47,59
56780,note_off,,,,,49,0,1,,,,0,,71,59
56782,note_off,,,,,2,0,2,,,,1,,35,58
56782,note_off,,,,,2,0,1,,,,0,,59,57
56849,note_on,,,,,0,0,2,,,,1,,35,49
56849,note_on,,,,,67,0,2,,,,1,,47,52
56850,set_tempo,,,,,120,1,0,582524,,,,,,
56850,note_on,,,,,0,0,1,,,,0,,71,49
56850,note_on,,,,,68,0,1,,,,0,,59,49
56878,note_off,,,,,29,0,2,,,,1,,47,58
56879,note_off,,,,,1,0,2,,,,1,,35,57
56880,note_off,,,,,30,0,1,,,,0,,59,57
56881,note_off,,,,,1,0,1,,,,0,,71,58
57089,note_on,,,,,210,0,2,,,,1,,46,47
57089,note_on,,,,,208,0,1,,,,0,,58,43
57090,set_tempo,,,,,240,1,0,681818,,,,,,
57090,note_on,,,,,1,0,1,,,,0,,70,45
57091,note_on,,,,,2,0,2,,,,1,,34,47
57139,note_off,,,,,49,0,1,,,,0,,58,58
57140,note_off,,,,,49,0,2,,,,1,,46,59
57140,note_off,,,,,1,0,1,,,,0,,70,57
57141,note_off,,,,,1,0,2,,,,1,,34,57
57209,note_on,,,,,69,0,1,,,,0,,58,42
57210,set_tempo,,,,,120,1,0,845070,,,,,,
57211,note_on,,,,,70,0,2,,,,1,,34,45
57211,note_on,,,,,0,0,2,,,,1,,46,46
57211,note_on,,,,,2,0,1,,,,0,,70,44
57239,note_off,,,,,28,0,1,,,,0,,58,58
57240,note_off,,,,,1,0,1,,,,0,,70,57
57240,note_off,,,,,29,0,2,,,,1,,46,58
57242,note_off,,,,,2,0,2,,,,1,,34,57
57449,note_on,,,,,209,0,1,,,,0,,62,47
57450,set_tempo,,,,,240,1,0,606061,,,,,,
57529,note_off,,,,,80,0,1,,,,0,,62,62
57539,note_on,,,,,10,0,1,,,,0,,66,54
57540,set_tempo,,,,,90,1,0,666667,,,,,,
57563,note_off,,,,,24,0,1,,,,0,,66,59
57570,set_tempo,,,,,30,1,0,606061,,,,,,
57570,note_on,,,,,7,0,1,,,,0,,66,53
57601,note_off,,,,,31,0,1,,,,0,,66,57
57690,set_tempo,,,,,120,1,0,659341,,,,,,
57691,note_on,,,,,90,0,1,,,,0,,62,46
57742,note_off,,,,,51,0,1,,,,0,,62,58
57810,set_tempo,,,,,120,1,0,697674,,,,,,
57810,note_on,,,,,568,0,2,,,,1,,35,41
57811,note_on,,,,,69,0,1,,,,0,,59,40
57811,note_on,,,,,1,0,2,,,,1,,47,41
57811,note_on,,,,,0,0,1,,,,0,,71,43
57860,note_off,,,,,49,0,1,,,,0,,59,59
57861,note_off,,,,,1,0,1,,,,0,,71,57
57861,note_off,,,,,50,0,2,,,,1,,35,58
57862,note_off,,,,,1,0,2,,,,1,,47,58
57929,note_on,,,,,68,0,1,,,,0,,71,46
57930,note_on,,,,,1,0,1,,,,0,,59,43
57930,set_tempo,,,,,120,1,0,714286,,,,,,
57930,note_on,,,,,68,0,2,,,,1,,47,44
57931,note_on,,,,,1,0,2,,,,1,,35,42
57959,note_off,,,,,29,0,1,,,,0,,59,58
57960,note_off,,,,,29,0,2,,,,1,,47,59
57960,note_off,,,,,1,0,1,,,,0,,71,59
57961,note_off,,,,,1,0,2,,,,1,,35,58
58169,note_on,,,,,208,0,2,,,,1,,35,50
58169,note_on,,,,,0,0,2,,,,1,,47,53
58170,note_on,,,,,210,0,1,,,,0,,71,54
58170,set_tempo,,,,,240,1,0,645161,,,,,,
58171,note_on,,,,,1,0,1,,,,0,,59,50
58218,note_off,,,,,49,0,2,,,,1,,35,57
58219,note_off,,,,,1,0,2,,,,1,,47,59
58219,note_off,,,,,48,0,1,,,,0,,71,59
58221,note_off,,,,,2,0,1,,,,0,,59,58
58289,note_on,,,,,70,0,2,,,,1,,35,57
58289,note_on,,,,,68,0,1,,,,0,,71,62
58290,set_tempo,,,,,120,1,0,566038,,,,,,
58291,note_on,,,,,2,0,1,,,,0,,59,58
58291,note_on,,,,,2,0,2,,,,1,,47,57
58318,note_off,,,,,27,0,1,,,,0,,71,59
58320,note_off,,,,,29,0,2,,,,1,,35,59
58322,note_off,,,,,2,0,2,,,,1,,47,58
58322,note_off,,,,,4,0,1,,,,0,,59,59
58529,note_on,,,,,0,0,2,,,,1,,47,71
58529,note_on,,,,,207,0,2,,,,1,,35,67
58529,note_on,,,,,207,0,1,,,,0,,59,67
58530,set_tempo,,,,,240,1,0,480000,,,,,,
58531,note_on,,,,,2,0,1,,,,0,,71,68
58579,note_off,,,,,50,0,2,,,,1,,47,58
58579,note_off,,,,,48,0,1,,,,0,,59,59
58580,note_off,,,,,1,0,2,,,,1,,35,58
58581,note_off,,,,,2,0,1,,,,0,,71,59
58649,note_on,,,,,69,0,2,,,,1,,47,78
58649,note_on,,,,,68,0,1,,,,0,,71,81
58650,control_change,,,,,1,0,2,,64,0,1,,,
58650,marker,,,,,0,1,0,,,,,,,
58650,set_tempo,,,,,120,1,0,377358,,,,,,
58650,control_change,,,,,0,0,1,,64,0,0,,,
58650,note_on,,,,,1,0,1,,,,0,,59,79
58651,note_on,,,,,1,0,2,,,,1,,35,78
58670,control_change,,,,,19,0,2,,64,127,1,,,
58670,control_change,,,,,20,0,1,,64,127,0,,,
58680,note_off,,,,,10,0,1,,,,0,,71,59
58680,note_off,,,,,10,0,2,,,,1,,47,59
58681,note_off,,,,,1,0,1,,,,0,,59,59
58682,note_off,,,,,2,0,2,,,,1,,35,59
58769,note_on,,,,,88,0,1,,,,0,,59,84
58770,set_tempo,,,,,120,1,0,357143,,,,,,
58771,note_on,,,,,89,0,2,,,,1,,35,81
58771,note_on,,,,,2,0,1,,,,0,,71,84
58771,note_on,,,,,0,0,2,,,,1,,47,81
58879,note_off,,,,,108,0,1,,,,0,,59,61
58880,note_off,,,,,1,0,1,,,,0,,71,61
58880,note_off,,,,,109,0,2,,,,1,,47,62
58882,note_off,,,,,2,0,2,,,,1,,35,62
58889,note_on,,,,,9,0,1,,,,0,,59,85
58889,note_on,,,,,0,0,1,,,,0,,71,90
58890,note_on,,,,,0,0,2,,,,1,,47,84
58890,note_on,,,,,8,0,2,,,,1,,35,82
58890,set_tempo,,,,,120,1,0,337079,,,,,,
58999,note_off,,,,,0,0,1,,,,0,,59,60
58999,note_off,,,,,110,0,1,,,,0,,71,60
58999,note_off,,,,,109,0,2,,,,1,,47,60
59000,note_off,,,,,1,0,2,,,,1,,35,60
59009,note_on,,,,,9,0,2,,,,1,,47,87
59009,note_on,,,,,10,0,1,,,,0,,59,89
59009,note_on,,,,,0,0,2,,,,1,,35,86
59010,note_on,,,,,1,0,1,,,,0,,71,92
59010,set_tempo,,,,,120,1,0,331492,,,,,,
59038,note_off,,,,,29,0,2,,,,1,,35,58
59039,note_off,,,,,29,0,1,,,,0,,59,58
59040,time_signature,2,4,24,8,30,1,0,,,,,,,
59040,note_off,,,,,2,0,2,,,,1,,47,57
59041,note_off,,,,,2,0,1,,,,0,,71,57
59129,note_on,,,,,0,0,2,,,,1,,47,87
59129,note_on,,,,,89,0,2,,,,1,,35,85
59129,note_on,,,,,88,0,1,,,,0,,71,95
59130,set_tempo,,,,,90,1,0,357143,,,,,,
59131,note_on,,,,,2,0,1,,,,0,,59,92
59238,note_off,,,,,0,0,2,,,,1,,35,61
59238,note_off,,,,,109,0,2,,,,1,,47,61
59238,note_off,,,,,107,0,1,,,,0,,71,60
59240,note_off,,,,,2,0,1,,,,0,,59,62
59249,note_on,,,,,11,0,2,,,,1,,35,89
59249,note_on,,,,,9,0,1,,,,0,,83,100
59250,control_change,,,,,1,0,1,,64,0,0,,,
59250,control_change,,,,,0,0,2,,64,0,1,,,
59250,note_on,,,,,1,0,2,,,,1,,47,88
59250,set_tempo,,,,,120,1,0,306122,,,,,,
59251,note_on,,,,,1,0,1,,,,0,,71,98
59255,control_change,,,,,4,0,1,,64,127,0,,,
59255,control_change,,,,,5,0,2,,64,127,1,,,
59358,note_off,,,,,103,0,1,,,,0,,83,60
59359,note_off,,,,,104,0,2,,,,1,,47,60
59360,note_off,,,,,1,0,2,,,,1,,35,60
59362,note_off,,,,,4,0,1,,,,0,,71,62
59369,note_on,,,,,9,0,2,,,,1,,35,88
59370,note_on,,,,,8,0,1,,,,0,,83,100
59370,set_tempo,,,,,120,1,0,300000,,,,,,
59370,note_on,,,,,1,0,2,,,,1,,47,92
59371,note_on,,,,,1,0,1,,,,0,,71,101
59479,note_off,,,,,109,0,2,,,,1,,35,62
59481,note_off,,,,,2,0,2,,,,1,,47,62
59481,note_off,,,,,0,0,1,,,,0,,83,61
59481,note_off,,,,,110,0,1,,,,0,,71,62
59489,note_on,,,,,8,0,2,,,,1,,35,91
59489,note_on,,,,,8,0,1,,,,0,,71,102
59490,note_on,,,,,1,0,2,,,,1,,47,92
59490,set_tempo,,,,,120,1,0,294118,,,,,,
59490,note_on,,,,,1,0,1,,,,0,,83,102
59519,note_off,,,,,29,0,1,,,,0,,71,58
59519,note_off,,,,,29,0,2,,,,1,,35,57
59520,note_off,,,,,1,0,1,,,,0,,83,58
59521,note_off,,,,,2,0,2,,,,1,,47,58
59610,note_on,,,,,0,0,1,,,,0,,83,106
59610,note_on,,,,,90,0,1,,,,0,,71,104
59610,set_tempo,,,,,120,1,0,327869,,,,,,
59610,note_on,,,,,89,0,2,,,,1,,47,95
59611,note_on,,,,,1,0,2,,,,1,,35,94
59720,note_off,,,,,109,0,2,,,,1,,35,60
59720,note_off,,,,,110,0,1,,,,0,,83,62
59721,note_off,,,,,1,0,1,,,,0,,71,61
59721,note_off,,,,,1,0,2,,,,1,,47,60
59729,note_on,,,,,8,0,2,,,,1,,47,95
59730,set_tempo,,,,,120,1,0,303030,,,,,,
59730,control_change,,,,,1,0,2,,64,0,1,,,
59730,control_change,,,,,0,0,1,,64,0,0,,,
59730,control_change,,,,,9,0,1,,11,115,0,,,
59731,note_on,,,,,1,0,2,,,,1,,35,94
59731,note_on,,,,,1,0,1,,,,0,,83,103
59731,note_on,,,,,0,0,1,,,,0,,95,107
59735,control_change,,,,,4,0,1,,64,127,0,,,
59735,control_change,,,,,4,0,2,,64,127,1,,,
59838,note_off,,,,,103,0,2,,,,1,,47,61
59841,note_off,,,,,106,0,1,,,,0,,95,61
59841,note_off,,,,,0,0,1,,,,0,,83,62
59841,note_off,,,,,3,0,2,,,,1,,35,61
59849,note_on,,,,,0,0,2,,,,1,,47,97
59849,note_on,,,,,8,0,2,,,,1,,35,95
59850,set_tempo,,,,,120,1,0,310881,,,,,,
59851,note_on,,,,,0,0,1,,,,0,,95,111
59851,note_on,,,,,10,0,1,,,,0,,83,109
59958,note_off,,,,,0,0,2,,,,1,,35,61
59958,note_off,,,,,109,0,2,,,,1,,47,60
59960,note_off,,,,,109,0,1,,,,0,,95,61
59962,note_off,,,,,2,0,1,,,,0,,83,61
59969,note_on,,,,,11,0,2,,,,1,,47,100
59969,note_on,,,,,7,0,1,,,,0,,83,111
59970,set_tempo,,,,,120,1,0,306122,,,,,,
59970,note_on,,,,,1,0,1,,,,0,,95,112
59970,note_on,,,,,1,0,2,,,,1,,35,98
59999,note_off,,,,,29,0,1,,,,0,,95,59
59999,note_off,,,,,0,0,1,,,,0,,83,57
60000,note_off,,,,,30,0,2,,,,1,,47,58
60001,note_off,,,,,1,0,2,,,,1,,35,57
60089,note_on,,,,,90,0,1,,,,0,,83,112
60090,note_on,,,,,89,0,2,,,,1,,35,100
60090,note_on,,,,,0,0,2,,,,1,,47,101
60090,set_tempo,,,,,120,1,0,314136,,,,,,
60091,note_on,,,,,2,0,1,,,,0,,95,114
60199,note_off,,,,,108,0,1,,,,0,,83,62
60199,note_off,,,,,109,0,2,,,,1,,47,61
60201,note_off,,,,,2,0,2,,,,1,,35,62
60202,note_off,,,,,3,0,1,,,,0,,95,61
60209,note_on,,,,,7,0,1,,,,0,,95,116
60210,note_on,,,,,9,0,2,,,,1,,35,99
60210,set_tempo,,,,,120,1,0,317460,,,,,,
60211,note_on,,,,,2,0,1,,,,0,,83,115
60211,note_on,,,,,1,0,2,,,,1,,47,100
60318,note_off,,,,,107,0,1,,,,0,,95,62
60321,note_off,,,,,110,0,2,,,,1,,47,61
60321,note_off,,,,,0,0,2,,,,1,,35,61
60322,note_off,,,,,4,0,1,,,,0,,83,60
60329,note_on,,,,,8,0,2,,,,1,,47,102
60329,note_on,,,,,7,0,1,,,,0,,83,116
60330,control_change,,,,,1,0,2,,64,0,1,,,
60330,set_tempo,,,,,120,1,0,333333,,,,,,
60330,note_on,,,,,1,0,1,,,,0,,95,118
60330,control_change,,,,,0,0,1,,64,0,0,,,
60331,note_on,,,,,1,0,2,,,,1,,35,101
60438,note_off,,,,,108,0,1,,,,0,,83,61
60439,note_off,,,,,108,0,2,,,,1,,47,60
60440,note_off,,,,,2,0,1,,,,0,,95,62
60441,note_off,,,,,2,0,2,,,,1,,35,62
60449,note_on,,,,,8,0,2,,,,1,,34,102
60450,control_change,,,,,1,0,2,,64,0,1,,,
60450,control_change,,,,,0,0,1,,64,0,0,,,
60450,note_on,,,,,10,0,1,,,,0,,82,118
60450,set_tempo,,,,,120,1,0,352941,,,,,,
60451,note_on,,,,,1,0,1,,,,0,,94,122
60451,note_on,,,,,1,0,2,,,,1,,46,107
60470,control_change,,,,,19,0,1,,64,127,0,,,
60470,control_change,,,,,19,0,2,,64,127,1,,,
60478,note_off,,,,,8,0,2,,,,1,,34,57
60480,time_signature,3,8,12,8,30,1,0,,,,,,,
60480,set_tempo,,,,,0,1,0,645161,,,,,,
60481,note_off,,,,,11,0,1,,,,0,,82,57
60482,note_off,,,,,4,0,2,,,,1,,46,58
60482,note_off,,,,,1,0,1,,,,0,,94,59
60569,note_on,,,,,0,0,1,,,,0,,94,108
60569,note_on,,,,,87,0,1,,,,0,,82,105
60570,set_tempo,,,,,90,1,0,372671,,,,,,
60570,marker,,,,,0,1,0,,,,,,,
60570,control_change,,,,,0,0,2,,64,0,1,,,
60570,note_on,,,,,88,0,2,,,,1,,34,94
60570,note_on,,,,,0,0,2,,,,1,,46,97
60570,control_change,,,,,1,0,1,,64,0,0,,,
60610,control_change,,,,,40,0,1,,64,127,0,,,
60610,control_change,,,,,40,0,2,,64,127,1,,,
60619,note_off,,,,,9,0,2,,,,1,,46,57
60619,note_off,,,,,0,0,2,,,,1,,34,58
60620,note_off,,,,,0,0,1,,,,0,,82,59
60620,note_off,,,,,10,0,1,,,,0,,94,57
60630,set_tempo,,,,,60,1,0,983607,,,,,,
60690,control_change,,,,,71,0,2,,64,0,1,,,
60690,control_change,,,,,70,0,1,,64,0,0,,,
60809,note_on,,,,,119,0,1,,,,0,,62,55
60809,note_on,,,,,119,0,2,,,,1,,58,51
60810,control_change,,,,,1,0,1,,11,100,0,,,
60810,set_tempo,,,,,180,1,0,594059,,,,,,
60839,note_off,,,,,29,0,1,,,,0,,62,59
60840,set_tempo,,,,,30,1,0,645161,,,,,,
60840,note_off,,,,,31,0,2,,,,1,,58,59
60900,note_on,,,,,60,0,2,,,,1,,53,54
60901,note_on,,,,,62,0,1,,,,0,,65,58
60924,note_off,,,,,24,0,2,,,,1,,53,58
60926,note_off,,,,,25,0,1,,,,0,,65,58
60930,note_on,,,,,6,0,2,,,,1,,57,62
60930,control_change,,,,,0,0,2,,64,0,1,,,
60930,control_change,,,,,4,0,1,,64,0,0,,,
60930,set_tempo,,,,,90,1,0,582524,,,,,,
60931,note_on,,,,,1,0,1,,,,0,,65,62
60950,control_change,,,,,20,0,2,,64,127,1,,,
60950,control_change,,,,,19,0,1,,64,127,0,,,
60989,note_on,,,,,39,0,1,,,,0,,60,50
60990,set_tempo,,,,,60,1,0,645161,,,,,,
61040,note_off,,,,,51,0,1,,,,0,,60,57
61040,note_off,,,,,0,0,1,,,,0,,65,61
61040,note_off,,,,,90,0,2,,,,1,,57,61
61049,note_on,,,,,9,0,2,,,,1,,58,52
61050,control_change,,,,,10,0,1,,64,0,0,,,
61050,set_tempo,,,,,60,1,0,681818,,,,,,
61050,control_change,,,,,1,0,2,,64,0,1,,,
61051,note_on,,,,,1,0,1,,,,0,,53,48
61051,note_on,,,,,0,0,1,,,,0,,62,51
61099,note_off,,,,,49,0,2,,,,1,,58,59
61100,note_off,,,,,49,0,1,,,,0,,62,59
61101,note_off,,,,,1,0,1,,,,0,,53,58
61170,set_tempo,,,,,120,1,0,582524,,,,,,
61170,note_on,,,,,69,0,1,,,,0,,74,58
61171,note_on,,,,,72,0,2,,,,1,,70,52
61200,note_off,,,,,30,0,1,,,,0,,74,58
61202,note_off,,,,,31,0,2,,,,1,,70,57
61260,note_on,,,,,58,0,2,,,,1,,65,58
61260,note_on,,,,,60,0,1,,,,0,,77,63
61260,set_tempo,,,,,90,1,0,659341,,,,,,
61284,note_off,,,,,24,0,2,,,,1,,65,58
61284,note_off,,,,,24,0,1,,,,0,,77,57
61289,note_on,,,,,5,0,1,,,,0,,77,66
61290,control_change,,,,,0,0,2,,64,0,1,,,
61290,note_on,,,,,6,0,2,,,,1,,69,59
61290,control_change,,,,,1,0,1,,64,0,0,,,
61290,set_tempo,,,,,30,1,0,582524,,,,,,
61310,control_change,,,,,20,0,1,,64,127,0,,,
61310,control_change,,,,,20,0,2,,64,127,1,,,
61349,note_on,,,,,39,0,1,,,,0,,72,54
61350,set_tempo,,,,,60,1,0,606061,,,,,,
61399,note_off,,,,,0,0,1,,,,0,,77,61
61399,note_off,,,,,50,0,1,,,,0,,72,58
61399,note_off,,,,,89,0,2,,,,1,,69,61
61409,note_on,,,,,10,0,2,,,,1,,70,50
61410,control_change,,,,,1,0,2,,64,0,1,,,
61410,note_on,,,,,0,0,1,,,,0,,74,51
61410,control_change,,,,,0,0,1,,64,0,0,,,
61410,set_tempo,,,,,60,1,0,714286,,,,,,
61410,note_on,,,,,11,0,1,,,,0,,65,47
61458,note_off,,,,,48,0,2,,,,1,,70,58
61460,note_off,,,,,50,0,1,,,,0,,65,58
61461,note_off,,,,,1,0,1,,,,0,,74,57
61529,note_on,,,,,68,0,1,,,,0,,86,50
61530,set_tempo,,,,,120,1,0,681818,,,,,,
61531,note_on,,,,,73,0,2,,,,1,,82,48
61559,note_off,,,,,30,0,1,,,,0,,86,58
61561,note_off,,,,,30,0,2,,,,1,,82,59
61619,note_on,,,,,58,0,2,,,,1,,77,51
61620,set_tempo,,,,,90,1,0,731707,,,,,,
61621,note_on,,,,,62,0,1,,,,0,,89,53
61644,note_off,,,,,25,0,2,,,,1,,77,59
61645,note_off,,,,,24,0,1,,,,0,,89,58
61650,control_change,,,,,5,0,1,,64,0,0,,,
61650,control_change,,,,,0,0,2,,64,0,1,,,
61650,note_on,,,,,6,0,2,,,,1,,81,49
61650,set_tempo,,,,,30,1,0,800000,,,,,,
61651,note_on,,,,,1,0,1,,,,0,,89,58
61670,control_change,,,,,20,0,2,,64,127,1,,,
61670,control_change,,,,,19,0,1,,64,127,0,,,
61710,set_tempo,,,,,60,1,0,1111111,,,,,,
61710,note_on,,,,,40,0,1,,,,0,,84,47
61761,note_off,,,,,91,0,2,,,,1,,81,60
61761,note_off,,,,,51,0,1,,,,0,,84,58
61762,note_off,,,,,1,0,1,,,,0,,89,62
61769,note_on,,,,,8,0,2,,,,1,,82,42
61770,set_tempo,,,,,60,1,0,1250000,,,,,,
61770,control_change,,,,,1,0,2,,64,0,1,,,
61770,note_on,,,,,8,0,1,,,,0,,77,43
61770,control_change,,,,,0,0,1,,64,0,0,,,
61770,note_on,,,,,0,0,1,,,,0,,86,45
61818,note_off,,,,,48,0,2,,,,1,,82,59
61818,end_of_track,,,,,0,1,2,,,,,,,
61819,note_off,,,,,49,0,1,,,,0,,77,59
61820,end_of_track,,,,,0,1,1,,,,,,,
61820,note_off,,,,,1,0,1,,,,0,,86,57
61890,set_tempo,,,,,120,1,0,4000000,,,,,,
62130,set_tempo,,,,,240,1,0,500000,,,,,,
62130,end_of_track,,,,,0,1,0,,,,,,,
