tick,type,time,meta,track,numerator,denominator,clocks_per_click,notated_32nd_notes_per_beat,key,tempo,control,value,channel,program,pitch,note,velocity
0,track_name,0,1,0,,,,,,,,,,,,,
0,control_change,0,0,5,,,,,,,91,100,5,,,,
0,control_change,0,0,5,,,,,,,93,28,5,,,,
0,control_change,0,0,5,,,,,,,64,0,5,,,,
0,control_change,0,0,5,,,,,,,1,0,5,,,,
0,pitchwheel,0,0,5,,,,,,,,,5,,0,,
0,control_change,0,0,4,,,,,,,64,0,4,,,,
0,control_change,0,0,2,,,,,,,0,0,2,,,,
0,control_change,0,0,2,,,,,,,32,0,2,,,,
0,program_change,0,0,2,,,,,,,,,2,0,,,
0,control_change,0,0,2,,,,,,,7,122,2,,,,
0,pitchwheel,0,0,2,,,,,,,,,2,,0,,
0,control_change,0,0,2,,,,,,,1,0,2,,,,
0,control_change,0,0,2,,,,,,,64,0,2,,,,
0,control_change,0,0,2,,,,,,,93,28,2,,,,
0,control_change,0,0,5,,,,,,,10,55,5,,,,
0,control_change,0,0,2,,,,,,,91,100,2,,,,
0,track_name,0,1,3,,,,,,,,,,,,,
0,control_change,0,0,3,,,,,,,0,0,3,,,,
0,control_change,0,0,3,,,,,,,32,0,3,,,,
0,program_change,0,0,3,,,,,,,,,3,0,,,
0,control_change,0,0,3,,,,,,,10,64,3,,,,
0,control_change,0,0,3,,,,,,,91,100,3,,,,
0,control_change,0,0,3,,,,,,,93,28,3,,,,
0,control_change,0,0,3,,,,,,,64,0,3,,,,
0,control_change,0,0,3,,,,,,,1,0,3,,,,
0,pitchwheel,0,0,3,,,,,,,,,3,,0,,
0,control_change,0,0,3,,,,,,,7,112,3,,,,
0,control_change,0,0,4,,,,,,,93,28,4,,,,
0,control_change,0,0,4,,,,,,,91,100,4,,,,
0,control_change,0,0,4,,,,,,,10,55,4,,,,
0,control_change,0,0,2,,,,,,,10,73,2,,,,
0,program_change,0,0,5,,,,,,,,,5,0,,,
0,control_change,0,0,5,,,,,,,7,125,5,,,,
0,control_change,0,0,5,,,,,,,0,0,5,,,,
0,time_signature,0,1,0,2,4,24,8,,,,,,,,,
0,key_signature,0,1,0,,,,,C,,,,,,,,
0,set_tempo,0,1,0,,,,,,600000,,,,,,,
0,marker,0,1,0,,,,,,,,,,,,,
0,pitchwheel,0,0,1,,,,,,,,,1,,0,,
0,program_change,0,0,1,,,,,,,,,1,0,,,
0,control_change,0,0,1,,,,,,,10,73,1,,,,
0,control_change,0,0,5,,,,,,,32,0,5,,,,
0,control_change,0,0,1,,,,,,,91,100,1,,,,
0,control_change,0,0,1,,,,,,,93,28,1,,,,
0,control_change,0,0,1,,,,,,,64,0,1,,,,
0,control_change,0,0,1,,,,,,,1,0,1,,,,
0,control_change,0,0,1,,,,,,,7,127,1,,,,
0,control_change,0,0,1,,,,,,,32,0,1,,,,
0,control_change,0,0,1,,,,,,,0,0,1,,,,
0,track_name,0,1,2,,,,,,,,,,,,,
0,track_name,0,1,4,,,,,,,,,,,,,
0,control_change,0,0,4,,,,,,,0,0,4,,,,
0,control_change,0,0,4,,,,,,,32,0,4,,,,
0,track_name,0,1,5,,,,,,,,,,,,,
0,control_change,0,0,4,,,,,,,1,0,4,,,,
0,pitchwheel,0,0,4,,,,,,,,,4,,0,,
0,control_change,0,0,4,,,,,,,7,120,4,,,,
0,track_name,0,1,1,,,,,,,,,,,,,
0,program_change,0,0,4,,,,,,,,,4,0,,,
480,control_change,480,0,4,,,,,,,64,0,4,,,,
480,control_change,480,0,1,,,,,,,64,0,1,,,,
480,control_change,480,0,2,,,,,,,64,0,2,,,,
480,control_change,480,0,5,,,,,,,64,0,5,,,,
960,control_change,480,0,1,,,,,,,64,0,1,,,,
960,note_on,0,0,1,,,,,,,,,1,,,77,83
960,marker,0,1,0,,,,,,,,,,,,,
960,set_tempo,960,1,0,,,,,,487804,,,,,,,
960,control_change,480,0,2,,,,,,,64,0,2,,,,
960,note_on,0,0,5,,,,,,,,,5,,,53,83
960,control_change,480,0,4,,,,,,,64,0,4,,,,
960,control_change,480,0,5,,,,,,,64,0,5,,,,
1080,note_on,1080,0,3,,,,,,,,,3,,,57,78
1200,note_off,240,0,5,,,,,,,,,5,,,53,0
1200,note_on,0,0,3,,,,,,,,,3,,,60,79
1200,note_off,120,0,3,,,,,,,,,3,,,57,0
1320,note_off,120,0,3,,,,,,,,,3,,,60,0
1320,note_on,0,0,3,,,,,,,,,3,,,57,80
1440,note_off,120,0,3,,,,,,,,,3,,,57,0
1440,note_off,480,0,1,,,,,,,,,1,,,77,0
1440,note_on,240,0,5,,,,,,,,,5,,,53,80
1440,note_on,0,0,1,,,,,,,,,1,,,77,80
1560,note_off,120,0,1,,,,,,,,,1,,,77,0
1560,note_on,120,0,3,,,,,,,,,3,,,57,81
1680,note_on,0,0,3,,,,,,,,,3,,,60,81
1680,note_off,120,0,3,,,,,,,,,3,,,57,0
1680,note_off,240,0,5,,,,,,,,,5,,,53,0
1680,note_on,120,0,1,,,,,,,,,1,,,77,81
1800,note_on,0,0,3,,,,,,,,,3,,,57,82
1800,set_tempo,840,1,0,,,,,,500000,,,,,,,
1800,note_off,120,0,1,,,,,,,,,1,,,77,0
1800,note_off,120,0,3,,,,,,,,,3,,,60,0
1920,note_off,120,0,3,,,,,,,,,3,,,57,0
1920,set_tempo,120,1,0,,,,,,487804,,,,,,,
1920,marker,0,1,0,,,,,,,,,,,,,
1920,note_on,120,0,1,,,,,,,,,1,,,77,84
1920,note_on,240,0,5,,,,,,,,,5,,,53,84
2040,note_off,120,0,1,,,,,,,,,1,,,77,0
2040,note_on,0,0,1,,,,,,,,,1,,,76,84
2160,note_on,0,0,1,,,,,,,,,1,,,74,82
2160,note_off,120,0,1,,,,,,,,,1,,,76,0
2280,note_off,120,0,1,,,,,,,,,1,,,74,0
2280,note_on,0,0,1,,,,,,,,,1,,,72,81
2400,note_off,120,0,1,,,,,,,,,1,,,72,0
2400,note_on,0,0,1,,,,,,,,,1,,,70,79
2400,note_off,480,0,5,,,,,,,,,5,,,53,0
2520,note_on,0,0,1,,,,,,,,,1,,,69,77
2520,note_off,120,0,1,,,,,,,,,1,,,70,0
2640,note_on,0,0,1,,,,,,,,,1,,,67,75
2640,note_off,120,0,1,,,,,,,,,1,,,69,0
2760,set_tempo,840,1,0,,,,,,495867,,,,,,,
2760,note_on,0,0,1,,,,,,,,,1,,,65,73
2760,note_off,120,0,1,,,,,,,,,1,,,67,0
2880,note_on,0,0,1,,,,,,,,,1,,,64,71
2880,set_tempo,120,1,0,,,,,,487804,,,,,,,
2880,note_on,480,0,5,,,,,,,,,5,,,58,71
2880,marker,0,1,0,,,,,,,,,,,,,
2880,note_off,120,0,1,,,,,,,,,1,,,65,0
3000,note_off,120,0,1,,,,,,,,,1,,,64,0
3000,note_on,1080,0,3,,,,,,,,,3,,,60,69
3000,note_off,120,0,5,,,,,,,,,5,,,58,0
3120,note_off,120,0,3,,,,,,,,,3,,,60,0
3120,note_on,120,0,1,,,,,,,,,1,,,65,67
3120,note_on,120,0,5,,,,,,,,,5,,,57,67
3240,note_off,120,0,5,,,,,,,,,5,,,57,0
3240,note_on,120,0,3,,,,,,,,,3,,,60,65
3240,note_off,120,0,1,,,,,,,,,1,,,65,0
3360,note_off,120,0,3,,,,,,,,,3,,,60,0
3360,note_on,120,0,1,,,,,,,,,1,,,67,63
3360,note_on,120,0,5,,,,,,,,,5,,,55,63
3480,note_off,120,0,5,,,,,,,,,5,,,55,0
3480,note_off,120,0,1,,,,,,,,,1,,,67,0
3480,note_on,120,0,3,,,,,,,,,3,,,60,62
3600,note_on,120,0,1,,,,,,,,,1,,,69,60
3600,note_on,120,0,5,,,,,,,,,5,,,53,60
3600,note_off,120,0,3,,,,,,,,,3,,,60,0
3720,note_off,120,0,1,,,,,,,,,1,,,69,0
3720,note_off,120,0,5,,,,,,,,,5,,,53,0
3720,note_on,120,0,3,,,,,,,,,3,,,60,58
3730,set_tempo,850,1,0,,,,,,588235,,,,,,,
3840,note_off,120,0,3,,,,,,,,,3,,,60,0
3840,note_on,120,0,1,,,,,,,,,1,,,72,56
3840,note_on,120,0,5,,,,,,,,,5,,,52,56
3840,set_tempo,110,1,0,,,,,,535714,,,,,,,
3840,marker,0,1,0,,,,,,,,,,,,,
4320,note_on,0,0,1,,,,,,,,,1,,,70,48
4320,note_off,480,0,5,,,,,,,,,5,,,52,0
4320,note_off,480,0,1,,,,,,,,,1,,,72,0
4505,note_off,185,0,1,,,,,,,,,1,,,70,0
4560,set_tempo,720,1,0,,,,,,550458,,,,,,,
4800,note_on,295,0,1,,,,,,,,,1,,,79,79
4800,set_tempo,240,1,0,,,,,,487804,,,,,,,
4800,note_on,480,0,5,,,,,,,,,5,,,52,79
4920,note_on,1080,0,3,,,,,,,,,3,,,58,75
5040,note_off,120,0,3,,,,,,,,,3,,,58,0
5040,note_on,0,0,3,,,,,,,,,3,,,60,76
5040,note_off,240,0,5,,,,,,,,,5,,,52,0
5160,note_off,120,0,3,,,,,,,,,3,,,60,0
5160,note_on,0,0,3,,,,,,,,,3,,,58,77
5280,note_on,240,0,5,,,,,,,,,5,,,52,78
5280,note_off,120,0,3,,,,,,,,,3,,,58,0
5280,note_on,0,0,1,,,,,,,,,1,,,79,78
5280,note_off,480,0,1,,,,,,,,,1,,,79,0
5400,note_off,120,0,1,,,,,,,,,1,,,79,0
5400,note_on,120,0,3,,,,,,,,,3,,,58,79
5520,note_on,120,0,1,,,,,,,,,1,,,79,79
5520,note_off,120,0,3,,,,,,,,,3,,,58,0
5520,note_on,0,0,3,,,,,,,,,3,,,60,79
5520,note_off,240,0,5,,,,,,,,,5,,,52,0
5640,note_off,120,0,1,,,,,,,,,1,,,79,0
5640,note_on,0,0,3,,,,,,,,,3,,,58,80
5640,note_off,120,0,3,,,,,,,,,3,,,60,0
5640,set_tempo,840,1,0,,,,,,500000,,,,,,,
5760,note_off,120,0,3,,,,,,,,,3,,,58,0
5760,note_on,120,0,1,,,,,,,,,1,,,79,82
5760,note_on,240,0,5,,,,,,,,,5,,,52,82
5760,set_tempo,120,1,0,,,,,,487804,,,,,,,
5880,note_off,120,0,1,,,,,,,,,1,,,79,0
5880,note_on,0,0,1,,,,,,,,,1,,,77,79
6000,note_on,0,0,1,,,,,,,,,1,,,76,76
6000,note_off,120,0,1,,,,,,,,,1,,,77,0
6120,note_off,120,0,1,,,,,,,,,1,,,76,0
6120,note_on,0,0,1,,,,,,,,,1,,,74,73
6240,note_off,480,0,5,,,,,,,,,5,,,52,0
6240,note_on,0,0,1,,,,,,,,,1,,,72,70
6240,note_off,120,0,1,,,,,,,,,1,,,74,0
6360,note_on,0,0,1,,,,,,,,,1,,,70,66
6360,note_off,120,0,1,,,,,,,,,1,,,72,0
6480,note_on,0,0,1,,,,,,,,,1,,,69,63
6480,note_off,120,0,1,,,,,,,,,1,,,70,0
6600,note_on,0,0,1,,,,,,,,,1,,,67,60
6600,note_off,120,0,1,,,,,,,,,1,,,69,0
6610,set_tempo,850,1,0,,,,,,495867,,,,,,,
6720,note_on,480,0,5,,,,,,,,,5,,,57,57
6720,set_tempo,110,1,0,,,,,,487804,,,,,,,
6720,note_off,120,0,1,,,,,,,,,1,,,67,0
6720,note_on,0,0,1,,,,,,,,,1,,,65,57
6840,note_off,120,0,5,,,,,,,,,5,,,57,0
6840,note_off,120,0,1,,,,,,,,,1,,,65,0
6840,note_on,1080,0,3,,,,,,,,,3,,,60,56
6960,note_off,120,0,3,,,,,,,,,3,,,60,0
6960,note_on,120,0,5,,,,,,,,,5,,,55,54
6960,note_on,120,0,1,,,,,,,,,1,,,64,54
7080,note_on,120,0,3,,,,,,,,,3,,,60,53
7080,note_off,120,0,1,,,,,,,,,1,,,64,0
7080,note_off,120,0,5,,,,,,,,,5,,,55,0
7200,note_on,120,0,1,,,,,,,,,1,,,65,52
7200,note_off,120,0,3,,,,,,,,,3,,,60,0
7200,note_on,120,0,5,,,,,,,,,5,,,57,52
7320,note_on,120,0,3,,,,,,,,,3,,,60,51
7320,note_off,120,0,5,,,,,,,,,5,,,57,0
7325,note_off,125,0,1,,,,,,,,,1,,,65,0
7440,note_off,120,0,3,,,,,,,,,3,,,60,0
7440,note_on,115,0,1,,,,,,,,,1,,,67,49
7440,note_on,120,0,5,,,,,,,,,5,,,52,49
7560,note_on,120,0,3,,,,,,,,,3,,,60,48
7560,note_off,120,0,5,,,,,,,,,5,,,52,0
7560,set_tempo,840,1,0,,,,,,540540,,,,,,,
7560,note_off,120,0,1,,,,,,,,,1,,,67,0
7680,note_off,120,0,3,,,,,,,,,3,,,60,0
7680,note_on,120,0,1,,,,,,,,,1,,,69,46
7680,note_on,120,0,5,,,,,,,,,5,,,53,47
7680,set_tempo,120,1,0,,,,,,540540,,,,,,,
8095,note_off,415,0,5,,,,,,,,,5,,,53,0
8105,note_off,425,0,1,,,,,,,,,1,,,69,0
8160,note_on,55,0,1,,,,,,,,,1,,,72,57
8160,set_tempo,480,1,0,,,,,,495867,,,,,,,
8280,note_off,120,0,1,,,,,,,,,1,,,72,0
8280,note_on,0,0,1,,,,,,,,,1,,,69,57
8400,note_on,0,0,1,,,,,,,,,1,,,72,56
8400,note_off,120,0,1,,,,,,,,,1,,,69,0
8520,note_on,0,0,1,,,,,,,,,1,,,69,56
8520,note_off,120,0,1,,,,,,,,,1,,,72,0
8580,set_tempo,420,1,0,,,,,,508474,,,,,,,
8640,set_tempo,60,1,0,,,,,,487804,,,,,,,
8640,note_on,545,0,5,,,,,,,,,5,,,57,55
8640,note_on,0,0,1,,,,,,,,,1,,,65,55
8640,note_off,120,0,1,,,,,,,,,1,,,69,0
8760,note_off,120,0,5,,,,,,,,,5,,,57,0
8760,note_on,1080,0,3,,,,,,,,,3,,,60,55
8880,note_on,120,0,5,,,,,,,,,5,,,57,54
8880,note_off,120,0,3,,,,,,,,,3,,,60,0
8880,note_off,240,0,1,,,,,,,,,1,,,65,0
9000,note_off,120,0,5,,,,,,,,,5,,,57,0
9000,note_on,120,0,3,,,,,,,,,3,,,60,54
9080,note_on,200,0,1,,,,,,,,,1,,,69,54
9080,set_tempo,440,1,0,,,,,,495867,,,,,,,
9120,note_off,120,0,3,,,,,,,,,3,,,60,0
9120,note_on,120,0,5,,,,,,,,,5,,,58,54
9120,note_on,40,0,1,,,,,,,,,1,,,67,54
9120,set_tempo,40,1,0,,,,,,487804,,,,,,,
9140,note_off,20,0,1,,,,,,,,,1,,,69,0
9240,note_off,120,0,5,,,,,,,,,5,,,58,0
9240,note_on,120,0,3,,,,,,,,,3,,,60,53
9245,note_off,105,0,1,,,,,,,,,1,,,67,0
9360,note_on,115,0,1,,,,,,,,,1,,,65,53
9360,note_off,120,0,3,,,,,,,,,3,,,60,0
9360,note_on,120,0,5,,,,,,,,,5,,,57,53
9480,note_off,120,0,1,,,,,,,,,1,,,65,0
9480,note_on,120,0,3,,,,,,,,,3,,,60,52
9480,note_off,120,0,5,,,,,,,,,5,,,57,0
9560,set_tempo,440,1,0,,,,,,495867,,,,,,,
9560,note_on,80,0,1,,,,,,,,,1,,,69,52
9600,note_on,120,0,5,,,,,,,,,5,,,58,52
9600,note_on,40,0,1,,,,,,,,,1,,,67,52
9600,note_off,120,0,3,,,,,,,,,3,,,60,0
9600,set_tempo,40,1,0,,,,,,487804,,,,,,,
9620,note_off,20,0,1,,,,,,,,,1,,,69,0
9720,note_off,100,0,1,,,,,,,,,1,,,67,0
9720,note_on,120,0,3,,,,,,,,,3,,,60,51
9720,note_off,120,0,5,,,,,,,,,5,,,58,0
9840,note_on,120,0,1,,,,,,,,,1,,,65,51
9840,note_off,120,0,3,,,,,,,,,3,,,60,0
9840,note_on,120,0,5,,,,,,,,,5,,,57,51
9960,set_tempo,360,1,0,,,,,,508474,,,,,,,
9960,note_on,120,0,3,,,,,,,,,3,,,60,51
9960,note_off,120,0,5,,,,,,,,,5,,,57,0
9960,note_off,120,0,1,,,,,,,,,1,,,65,0
10080,set_tempo,120,1,0,,,,,,487804,,,,,,,
10080,note_on,120,0,1,,,,,,,,,1,,,77,53
10080,note_off,120,0,3,,,,,,,,,3,,,60,0
10200,note_on,0,0,1,,,,,,,,,1,,,72,53
10200,note_off,120,0,1,,,,,,,,,1,,,77,0
10320,note_on,0,0,1,,,,,,,,,1,,,77,52
10320,note_off,120,0,1,,,,,,,,,1,,,72,0
10440,note_off,120,0,1,,,,,,,,,1,,,77,0
10440,note_on,0,0,1,,,,,,,,,1,,,72,51
10500,set_tempo,420,1,0,,,,,,495867,,,,,,,
10560,set_tempo,60,1,0,,,,,,487804,,,,,,,
10560,note_on,600,0,5,,,,,,,,,5,,,53,51
10560,note_off,120,0,1,,,,,,,,,1,,,72,0
10560,note_on,0,0,1,,,,,,,,,1,,,69,51
10680,note_off,120,0,5,,,,,,,,,5,,,53,0
10680,note_on,600,0,3,,,,,,,,,3,,,60,50
10795,note_off,235,0,1,,,,,,,,,1,,,69,0
10800,note_on,120,0,5,,,,,,,,,5,,,53,50
10800,note_off,120,0,3,,,,,,,,,3,,,60,0
10920,note_off,120,0,5,,,,,,,,,5,,,53,0
10920,note_on,120,0,3,,,,,,,,,3,,,60,49
11000,set_tempo,440,1,0,,,,,,495867,,,,,,,
11000,note_on,205,0,1,,,,,,,,,1,,,72,49
11040,set_tempo,40,1,0,,,,,,487804,,,,,,,
11040,note_off,120,0,3,,,,,,,,,3,,,60,0
11040,note_on,120,0,5,,,,,,,,,5,,,55,48
11040,note_on,40,0,1,,,,,,,,,1,,,70,48
11060,note_off,20,0,1,,,,,,,,,1,,,72,0
11160,note_off,100,0,1,,,,,,,,,1,,,70,0
11160,note_on,120,0,3,,,,,,,,,3,,,60,48
11160,note_off,120,0,5,,,,,,,,,5,,,55,0
11280,note_off,120,0,3,,,,,,,,,3,,,60,0
11280,note_on,120,0,1,,,,,,,,,1,,,69,47
11280,note_on,120,0,5,,,,,,,,,5,,,53,47
11400,note_on,120,0,3,,,,,,,,,3,,,60,46
11400,note_off,120,0,1,,,,,,,,,1,,,69,0
11400,note_off,120,0,5,,,,,,,,,5,,,53,0
11480,set_tempo,440,1,0,,,,,,495867,,,,,,,
11480,note_on,80,0,1,,,,,,,,,1,,,72,46
11520,note_off,120,0,3,,,,,,,,,3,,,60,0
11520,set_tempo,40,1,0,,,,,,487804,,,,,,,
11520,note_on,120,0,5,,,,,,,,,5,,,55,46
11520,note_on,40,0,1,,,,,,,,,1,,,70,46
11540,note_off,20,0,1,,,,,,,,,1,,,72,0
11640,note_off,120,0,5,,,,,,,,,5,,,55,0
11640,note_on,120,0,3,,,,,,,,,3,,,60,45
11640,note_off,100,0,1,,,,,,,,,1,,,70,0
11760,note_on,120,0,1,,,,,,,,,1,,,69,45
11760,note_off,120,0,3,,,,,,,,,3,,,60,0
11760,note_on,120,0,5,,,,,,,,,5,,,53,45
11875,note_off,115,0,1,,,,,,,,,1,,,69,0
11880,set_tempo,360,1,0,,,,,,508474,,,,,,,
11880,note_on,120,0,3,,,,,,,,,3,,,60,44
11880,note_off,120,0,5,,,,,,,,,5,,,53,0
12000,note_on,125,0,1,,,,,,,,,1,,,81,79
12000,set_tempo,120,1,0,,,,,,487804,,,,,,,
12000,note_off,120,0,3,,,,,,,,,3,,,60,0
12120,note_off,120,0,1,,,,,,,,,1,,,81,0
12120,note_on,0,0,1,,,,,,,,,1,,,77,79
12240,note_on,0,0,1,,,,,,,,,1,,,81,78
12240,note_off,120,0,1,,,,,,,,,1,,,77,0
12360,note_on,0,0,1,,,,,,,,,1,,,77,78
12360,note_off,120,0,1,,,,,,,,,1,,,81,0
12420,set_tempo,420,1,0,,,,,,495867,,,,,,,
12480,note_off,120,0,1,,,,,,,,,1,,,77,0
12480,note_on,0,0,1,,,,,,,,,1,,,74,77
12480,note_on,600,0,5,,,,,,,,,5,,,53,77
12480,set_tempo,60,1,0,,,,,,487804,,,,,,,
12480,note_on,11520,0,4,,,,,,,,,4,,,59,77
12605,note_off,125,0,1,,,,,,,,,1,,,74,0
12720,note_on,115,0,1,,,,,,,,,1,,,74,76
12840,note_off,120,0,1,,,,,,,,,1,,,74,0
12920,set_tempo,440,1,0,,,,,,495867,,,,,,,
12960,note_on,120,0,1,,,,,,,,,1,,,73,75
12960,set_tempo,40,1,0,,,,,,487804,,,,,,,
13080,note_on,0,0,1,,,,,,,,,1,,,74,75
13080,note_off,120,0,1,,,,,,,,,1,,,73,0
13200,note_on,0,0,1,,,,,,,,,1,,,76,74
13200,note_off,120,0,1,,,,,,,,,1,,,74,0
13320,note_off,120,0,1,,,,,,,,,1,,,76,0
13320,note_on,0,0,1,,,,,,,,,1,,,77,74
13380,set_tempo,420,1,0,,,,,,495867,,,,,,,
13440,note_on,0,0,5,,,,,,,,,5,,,52,68
13440,note_off,960,0,5,,,,,,,,,5,,,53,0
13440,note_on,0,0,1,,,,,,,,,1,,,79,73
13440,set_tempo,60,1,0,,,,,,487804,,,,,,,
13440,note_off,120,0,1,,,,,,,,,1,,,77,0
13440,note_off,960,0,4,,,,,,,,,4,,,59,0
13440,note_on,0,0,4,,,,,,,,,4,,,60,68
13560,note_off,120,0,1,,,,,,,,,1,,,79,0
13680,note_on,120,0,1,,,,,,,,,1,,,79,72
13805,note_off,125,0,1,,,,,,,,,1,,,79,0
13880,set_tempo,440,1,0,,,,,,495867,,,,,,,
13920,note_on,115,0,1,,,,,,,,,1,,,81,71
13920,set_tempo,40,1,0,,,,,,487804,,,,,,,
14040,note_off,120,0,1,,,,,,,,,1,,,81,0
14040,note_on,0,0,1,,,,,,,,,1,,,79,71
14160,note_off,120,0,1,,,,,,,,,1,,,79,0
14160,note_on,0,0,1,,,,,,,,,1,,,77,70
14280,note_off,120,0,1,,,,,,,,,1,,,77,0
14280,note_on,0,0,1,,,,,,,,,1,,,76,70
14280,set_tempo,360,1,0,,,,,,500000,,,,,,,
14400,note_on,0,0,5,,,,,,,,,5,,,53,53
14400,note_off,960,0,5,,,,,,,,,5,,,52,0
14400,note_on,0,0,1,,,,,,,,,1,,,73,53
14400,note_on,0,0,4,,,,,,,,,4,,,59,53
14400,note_off,120,0,1,,,,,,,,,1,,,76,0
14400,note_off,960,0,4,,,,,,,,,4,,,60,0
14400,set_tempo,120,1,0,,,,,,487804,,,,,,,
14520,note_off,120,0,1,,,,,,,,,1,,,73,0
14520,note_on,0,0,1,,,,,,,,,1,,,74,53
14640,note_off,120,0,1,,,,,,,,,1,,,74,0
14640,note_on,0,0,1,,,,,,,,,1,,,73,53
14760,note_off,120,0,1,,,,,,,,,1,,,73,0
14760,note_on,0,0,1,,,,,,,,,1,,,74,52
14880,note_off,120,0,1,,,,,,,,,1,,,74,0
14880,note_on,0,0,1,,,,,,,,,1,,,73,52
15000,note_on,0,0,1,,,,,,,,,1,,,74,51
15000,note_off,120,0,1,,,,,,,,,1,,,73,0
15120,note_off,120,0,1,,,,,,,,,1,,,74,0
15120,note_on,0,0,1,,,,,,,,,1,,,76,51
15240,note_off,120,0,1,,,,,,,,,1,,,76,0
15240,note_on,0,0,1,,,,,,,,,1,,,77,51
15300,set_tempo,900,1,0,,,,,,495867,,,,,,,
15360,note_on,0,0,4,,,,,,,,,4,,,60,45
15360,note_off,960,0,4,,,,,,,,,4,,,59,0
15360,note_on,0,0,5,,,,,,,,,5,,,52,45
15360,note_off,960,0,5,,,,,,,,,5,,,53,0
15360,note_on,0,0,1,,,,,,,,,1,,,81,50
15360,note_off,120,0,1,,,,,,,,,1,,,77,0
15360,set_tempo,60,1,0,,,,,,487804,,,,,,,
15480,note_off,120,0,1,,,,,,,,,1,,,81,0
15480,note_on,0,0,1,,,,,,,,,1,,,79,50
15600,note_off,120,0,1,,,,,,,,,1,,,79,0
15600,note_on,0,0,1,,,,,,,,,1,,,81,49
15720,note_off,120,0,1,,,,,,,,,1,,,81,0
15720,note_on,0,0,1,,,,,,,,,1,,,79,49
15840,note_off,120,0,1,,,,,,,,,1,,,79,0
15840,note_on,0,0,1,,,,,,,,,1,,,81,49
15960,note_on,0,0,1,,,,,,,,,1,,,79,48
15960,note_off,120,0,1,,,,,,,,,1,,,81,0
16080,note_on,0,0,1,,,,,,,,,1,,,77,48
16080,note_off,120,0,1,,,,,,,,,1,,,79,0
16200,note_on,0,0,1,,,,,,,,,1,,,76,47
16200,note_off,120,0,1,,,,,,,,,1,,,77,0
16200,set_tempo,840,1,0,,,,,,500000,,,,,,,
16320,set_tempo,120,1,0,,,,,,487804,,,,,,,
16320,note_on,0,0,1,,,,,,,,,1,,,74,47
16320,note_off,960,0,4,,,,,,,,,4,,,60,0
16320,note_off,960,0,5,,,,,,,,,5,,,52,0
16320,note_off,120,0,1,,,,,,,,,1,,,76,0
16560,note_off,240,0,1,,,,,,,,,1,,,74,0
16560,note_on,0,0,1,,,,,,,,,1,,,76,46
16560,note_on,240,0,5,,,,,,,,,5,,,53,61
16680,note_off,120,0,1,,,,,,,,,1,,,76,0
16680,note_on,0,0,1,,,,,,,,,1,,,77,46
16740,set_tempo,420,1,0,,,,,,495867,,,,,,,
16800,note_off,240,0,5,,,,,,,,,5,,,53,0
16800,note_on,0,0,5,,,,,,,,,5,,,55,45
16800,note_off,120,0,1,,,,,,,,,1,,,77,0
16800,note_on,0,0,1,,,,,,,,,1,,,72,45
16920,note_off,120,0,5,,,,,,,,,5,,,55,0
16925,note_off,125,0,1,,,,,,,,,1,,,72,0
16980,set_tempo,240,1,0,,,,,,500000,,,,,,,
17040,note_on,120,0,5,,,,,,,,,5,,,43,45
17040,note_on,115,0,1,,,,,,,,,1,,,71,45
17155,note_off,115,0,5,,,,,,,,,5,,,43,0
17160,note_off,120,0,1,,,,,,,,,1,,,71,0
17160,set_tempo,180,1,0,,,,,,517241,,,,,,,
17280,set_tempo,120,1,0,,,,,,508474,,,,,,,
17280,note_on,120,0,1,,,,,,,,,1,,,48,44
17280,note_on,0,0,1,,,,,,,,,1,,,72,44
17400,set_tempo,120,1,0,,,,,,500000,,,,,,,
17520,note_off,240,0,1,,,,,,,,,1,,,72,0
17520,note_on,0,0,1,,,,,,,,,1,,,71,52
17640,note_on,0,0,1,,,,,,,,,1,,,72,56
17640,note_off,120,0,1,,,,,,,,,1,,,71,0
17760,note_off,120,0,1,,,,,,,,,1,,,72,0
17760,note_off,0,0,1,,,,,,,,,1,,,48,0
17760,note_on,0,0,1,,,,,,,,,1,,,73,60
17880,note_off,120,0,1,,,,,,,,,1,,,73,0
17880,note_on,0,0,1,,,,,,,,,1,,,74,65
18000,note_off,120,0,1,,,,,,,,,1,,,74,0
18000,note_on,0,0,1,,,,,,,,,1,,,75,69
18060,set_tempo,660,1,0,,,,,,495867,,,,,,,
18120,set_tempo,60,1,0,,,,,,500000,,,,,,,
18120,note_off,120,0,1,,,,,,,,,1,,,75,0
18120,note_on,0,0,1,,,,,,,,,1,,,76,73
18240,control_change,120,0,1,,,,,,,64,0,1,,,,
18240,control_change,1920,0,4,,,,,,,64,0,4,,,,
18240,control_change,1085,0,5,,,,,,,64,0,5,,,,
18240,note_on,0,0,5,,,,,,,,,5,,,53,83
18240,note_on,0,0,1,,,,,,,,,1,,,77,83
18240,control_change,17280,0,2,,,,,,,64,0,2,,,,
18240,note_off,0,0,1,,,,,,,,,1,,,76,0
18240,set_tempo,120,1,0,,,,,,487804,,,,,,,
18360,note_on,6360,0,3,,,,,,,,,3,,,57,78
18480,note_on,0,0,3,,,,,,,,,3,,,60,79
18480,note_off,120,0,3,,,,,,,,,3,,,57,0
18480,note_off,240,0,5,,,,,,,,,5,,,53,0
18600,note_on,0,0,3,,,,,,,,,3,,,57,80
18600,note_off,120,0,3,,,,,,,,,3,,,60,0
18720,note_off,120,0,3,,,,,,,,,3,,,57,0
18720,note_off,480,0,1,,,,,,,,,1,,,77,0
18720,note_on,0,0,1,,,,,,,,,1,,,77,80
18720,note_on,240,0,5,,,,,,,,,5,,,53,80
18840,note_on,120,0,3,,,,,,,,,3,,,57,81
18840,note_off,120,0,1,,,,,,,,,1,,,77,0
18960,note_on,0,0,3,,,,,,,,,3,,,60,81
18960,note_off,240,0,5,,,,,,,,,5,,,53,0
18960,note_on,120,0,1,,,,,,,,,1,,,77,81
18960,note_off,120,0,3,,,,,,,,,3,,,57,0
19080,note_off,120,0,1,,,,,,,,,1,,,77,0
19080,set_tempo,840,1,0,,,,,,500000,,,,,,,
19080,note_on,0,0,3,,,,,,,,,3,,,57,82
19080,note_off,120,0,3,,,,,,,,,3,,,60,0
19200,note_on,120,0,1,,,,,,,,,1,,,77,84
19200,note_on,240,0,5,,,,,,,,,5,,,53,84
19200,note_off,120,0,3,,,,,,,,,3,,,57,0
19200,set_tempo,120,1,0,,,,,,487804,,,,,,,
19320,note_on,0,0,1,,,,,,,,,1,,,76,84
19320,note_off,120,0,1,,,,,,,,,1,,,77,0
19440,note_on,0,0,1,,,,,,,,,1,,,74,82
19440,note_off,120,0,1,,,,,,,,,1,,,76,0
19560,note_on,0,0,1,,,,,,,,,1,,,72,81
19560,note_off,120,0,1,,,,,,,,,1,,,74,0
19680,note_off,480,0,5,,,,,,,,,5,,,53,0
19680,note_on,0,0,1,,,,,,,,,1,,,70,79
19680,note_off,120,0,1,,,,,,,,,1,,,72,0
19800,note_on,0,0,1,,,,,,,,,1,,,69,77
19800,note_off,120,0,1,,,,,,,,,1,,,70,0
19920,note_off,120,0,1,,,,,,,,,1,,,69,0
19920,note_on,0,0,1,,,,,,,,,1,,,67,75
20040,note_off,120,0,1,,,,,,,,,1,,,67,0
20040,note_on,0,0,1,,,,,,,,,1,,,65,73
20040,set_tempo,840,1,0,,,,,,495867,,,,,,,
20160,set_tempo,120,1,0,,,,,,487804,,,,,,,
20160,note_off,120,0,1,,,,,,,,,1,,,65,0
20160,note_on,0,0,1,,,,,,,,,1,,,64,71
20160,note_on,480,0,5,,,,,,,,,5,,,58,71
20280,note_off,120,0,1,,,,,,,,,1,,,64,0
20280,note_on,1080,0,3,,,,,,,,,3,,,60,69
20280,note_off,120,0,5,,,,,,,,,5,,,58,0
20400,note_on,120,0,1,,,,,,,,,1,,,65,67
20400,note_on,120,0,5,,,,,,,,,5,,,57,67
20400,note_off,120,0,3,,,,,,,,,3,,,60,0
20520,note_off,120,0,5,,,,,,,,,5,,,57,0
20520,note_on,120,0,3,,,,,,,,,3,,,60,65
20520,note_off,120,0,1,,,,,,,,,1,,,65,0
20640,note_on,120,0,5,,,,,,,,,5,,,55,63
20640,note_off,120,0,3,,,,,,,,,3,,,60,0
20640,note_on,120,0,1,,,,,,,,,1,,,67,63
20760,note_on,120,0,3,,,,,,,,,3,,,60,62
20760,note_off,120,0,1,,,,,,,,,1,,,67,0
20760,note_off,120,0,5,,,,,,,,,5,,,55,0
20880,note_off,120,0,3,,,,,,,,,3,,,60,0
20880,note_on,120,0,1,,,,,,,,,1,,,69,60
20880,note_on,120,0,5,,,,,,,,,5,,,53,60
21000,note_on,120,0,3,,,,,,,,,3,,,60,58
21000,note_off,120,0,5,,,,,,,,,5,,,53,0
21000,note_off,120,0,1,,,,,,,,,1,,,69,0
21010,set_tempo,850,1,0,,,,,,588235,,,,,,,
21120,note_on,120,0,5,,,,,,,,,5,,,52,56
21120,set_tempo,110,1,0,,,,,,535714,,,,,,,
21120,note_on,120,0,1,,,,,,,,,1,,,72,56
21120,note_off,120,0,3,,,,,,,,,3,,,60,0
21600,note_off,480,0,5,,,,,,,,,5,,,52,0
21600,note_on,0,0,1,,,,,,,,,1,,,70,48
21600,note_off,480,0,1,,,,,,,,,1,,,72,0
21785,note_off,185,0,1,,,,,,,,,1,,,70,0
21840,set_tempo,720,1,0,,,,,,550458,,,,,,,
22080,note_on,295,0,1,,,,,,,,,1,,,79,79
22080,note_on,480,0,5,,,,,,,,,5,,,52,79
22080,set_tempo,240,1,0,,,,,,487804,,,,,,,
22200,note_on,1080,0,3,,,,,,,,,3,,,58,75
22320,note_off,240,0,5,,,,,,,,,5,,,52,0
22320,note_on,0,0,3,,,,,,,,,3,,,60,76
22320,note_off,120,0,3,,,,,,,,,3,,,58,0
22440,note_off,120,0,3,,,,,,,,,3,,,60,0
22440,note_on,0,0,3,,,,,,,,,3,,,58,77
22560,note_on,240,0,5,,,,,,,,,5,,,52,78
22560,note_off,120,0,3,,,,,,,,,3,,,58,0
22560,note_off,480,0,1,,,,,,,,,1,,,79,0
22560,note_on,0,0,1,,,,,,,,,1,,,79,78
22680,note_on,120,0,3,,,,,,,,,3,,,58,79
22680,note_off,120,0,1,,,,,,,,,1,,,79,0
22800,note_off,240,0,5,,,,,,,,,5,,,52,0
22800,note_on,120,0,1,,,,,,,,,1,,,79,79
22800,note_off,120,0,3,,,,,,,,,3,,,58,0
22800,note_on,0,0,3,,,,,,,,,3,,,60,79
22920,set_tempo,840,1,0,,,,,,500000,,,,,,,
22920,note_off,120,0,1,,,,,,,,,1,,,79,0
22920,note_off,120,0,3,,,,,,,,,3,,,60,0
22920,note_on,0,0,3,,,,,,,,,3,,,58,80
23040,set_tempo,120,1,0,,,,,,487804,,,,,,,
23040,note_off,120,0,3,,,,,,,,,3,,,58,0
23040,note_on,240,0,5,,,,,,,,,5,,,52,82
23040,note_on,120,0,1,,,,,,,,,1,,,79,82
23160,note_off,120,0,1,,,,,,,,,1,,,79,0
23160,note_on,0,0,1,,,,,,,,,1,,,77,79
23280,note_off,120,0,1,,,,,,,,,1,,,77,0
23280,note_on,0,0,1,,,,,,,,,1,,,76,76
23400,note_on,0,0,1,,,,,,,,,1,,,74,73
23400,note_off,120,0,1,,,,,,,,,1,,,76,0
23520,note_on,0,0,1,,,,,,,,,1,,,72,70
23520,note_off,120,0,1,,,,,,,,,1,,,74,0
23520,note_off,480,0,5,,,,,,,,,5,,,52,0
23640,note_on,0,0,1,,,,,,,,,1,,,70,66
23640,note_off,120,0,1,,,,,,,,,1,,,72,0
23760,note_on,0,0,1,,,,,,,,,1,,,69,63
23760,note_off,120,0,1,,,,,,,,,1,,,70,0
23880,note_on,0,0,1,,,,,,,,,1,,,67,60
23880,note_off,120,0,1,,,,,,,,,1,,,69,0
23890,set_tempo,850,1,0,,,,,,495867,,,,,,,
24000,set_tempo,110,1,0,,,,,,487804,,,,,,,
24000,note_off,120,0,1,,,,,,,,,1,,,67,0
24000,note_on,480,0,5,,,,,,,,,5,,,57,57
24000,note_on,0,0,1,,,,,,,,,1,,,65,57
24120,note_on,1080,0,3,,,,,,,,,3,,,60,56
24120,note_off,120,0,1,,,,,,,,,1,,,65,0
24120,note_off,120,0,5,,,,,,,,,5,,,57,0
24240,note_on,120,0,1,,,,,,,,,1,,,64,54
24240,note_on,120,0,5,,,,,,,,,5,,,55,54
24240,note_off,120,0,3,,,,,,,,,3,,,60,0
24360,note_off,120,0,5,,,,,,,,,5,,,55,0
24360,note_off,120,0,1,,,,,,,,,1,,,64,0
24360,note_on,120,0,3,,,,,,,,,3,,,60,53
24480,note_off,120,0,3,,,,,,,,,3,,,60,0
24480,note_on,120,0,5,,,,,,,,,5,,,57,52
24480,note_on,120,0,1,,,,,,,,,1,,,65,52
24600,note_on,120,0,3,,,,,,,,,3,,,60,51
24600,note_off,120,0,5,,,,,,,,,5,,,57,0
24605,note_off,125,0,1,,,,,,,,,1,,,65,0
24720,note_on,115,0,1,,,,,,,,,1,,,67,49
24720,note_off,120,0,3,,,,,,,,,3,,,60,0
24720,note_on,120,0,5,,,,,,,,,5,,,52,49
24840,note_off,120,0,1,,,,,,,,,1,,,67,0
24840,note_on,120,0,3,,,,,,,,,3,,,60,48
24840,set_tempo,840,1,0,,,,,,540540,,,,,,,
24840,note_off,120,0,5,,,,,,,,,5,,,52,0
24960,note_on,120,0,1,,,,,,,,,1,,,69,46
24960,note_off,120,0,3,,,,,,,,,3,,,60,0
24960,note_on,120,0,5,,,,,,,,,5,,,53,47
24960,set_tempo,120,1,0,,,,,,540540,,,,,,,
25375,note_off,415,0,5,,,,,,,,,5,,,53,0
25385,note_off,425,0,1,,,,,,,,,1,,,69,0
25440,set_tempo,480,1,0,,,,,,495867,,,,,,,
25440,note_on,55,0,1,,,,,,,,,1,,,72,57
25560,note_on,0,0,1,,,,,,,,,1,,,69,57
25560,note_off,120,0,1,,,,,,,,,1,,,72,0
25680,note_on,0,0,1,,,,,,,,,1,,,72,56
25680,note_off,120,0,1,,,,,,,,,1,,,69,0
25800,note_off,120,0,1,,,,,,,,,1,,,72,0
25800,note_on,0,0,1,,,,,,,,,1,,,69,56
25860,set_tempo,420,1,0,,,,,,508474,,,,,,,
25920,note_on,545,0,5,,,,,,,,,5,,,57,55
25920,note_off,120,0,1,,,,,,,,,1,,,69,0
25920,note_on,0,0,1,,,,,,,,,1,,,65,55
25920,set_tempo,60,1,0,,,,,,487804,,,,,,,
26040,note_off,120,0,5,,,,,,,,,5,,,57,0
26040,note_on,1080,0,3,,,,,,,,,3,,,60,55
26160,note_on,120,0,5,,,,,,,,,5,,,57,54
26160,note_off,240,0,1,,,,,,,,,1,,,65,0
26160,note_off,120,0,3,,,,,,,,,3,,,60,0
26280,note_off,120,0,5,,,,,,,,,5,,,57,0
26280,note_on,120,0,3,,,,,,,,,3,,,60,54
26360,note_on,200,0,1,,,,,,,,,1,,,69,54
26360,set_tempo,440,1,0,,,,,,495867,,,,,,,
26400,note_off,120,0,3,,,,,,,,,3,,,60,0
26400,set_tempo,40,1,0,,,,,,487804,,,,,,,
26400,note_on,40,0,1,,,,,,,,,1,,,67,54
26400,note_on,120,0,5,,,,,,,,,5,,,58,54
26420,note_off,20,0,1,,,,,,,,,1,,,69,0
26520,note_off,120,0,5,,,,,,,,,5,,,58,0
26520,note_on,120,0,3,,,,,,,,,3,,,60,53
26525,note_off,105,0,1,,,,,,,,,1,,,67,0
26640,note_on,120,0,5,,,,,,,,,5,,,57,53
26640,note_off,120,0,3,,,,,,,,,3,,,60,0
26640,note_on,115,0,1,,,,,,,,,1,,,65,53
26760,note_off,120,0,5,,,,,,,,,5,,,57,0
26760,note_off,120,0,1,,,,,,,,,1,,,65,0
26760,note_on,120,0,3,,,,,,,,,3,,,60,52
26840,note_on,80,0,1,,,,,,,,,1,,,69,52
26840,set_tempo,440,1,0,,,,,,495867,,,,,,,
26880,set_tempo,40,1,0,,,,,,487804,,,,,,,
26880,note_on,120,0,5,,,,,,,,,5,,,58,52
26880,note_off,120,0,3,,,,,,,,,3,,,60,0
26880,note_on,40,0,1,,,,,,,,,1,,,67,52
26900,note_off,20,0,1,,,,,,,,,1,,,69,0
27000,note_on,120,0,3,,,,,,,,,3,,,60,51
27000,note_off,100,0,1,,,,,,,,,1,,,67,0
27000,note_off,120,0,5,,,,,,,,,5,,,58,0
27120,note_off,120,0,3,,,,,,,,,3,,,60,0
27120,note_on,120,0,1,,,,,,,,,1,,,65,51
27120,note_on,120,0,5,,,,,,,,,5,,,57,51
27240,note_off,120,0,1,,,,,,,,,1,,,65,0
27240,set_tempo,360,1,0,,,,,,508474,,,,,,,
27240,note_off,120,0,5,,,,,,,,,5,,,57,0
27240,note_on,120,0,3,,,,,,,,,3,,,60,51
27360,note_off,120,0,3,,,,,,,,,3,,,60,0
27360,note_on,120,0,1,,,,,,,,,1,,,77,53
27360,set_tempo,120,1,0,,,,,,487804,,,,,,,
27480,note_on,0,0,1,,,,,,,,,1,,,72,53
27480,note_off,120,0,1,,,,,,,,,1,,,77,0
27600,note_off,120,0,1,,,,,,,,,1,,,72,0
27600,note_on,0,0,1,,,,,,,,,1,,,77,52
27720,note_on,0,0,1,,,,,,,,,1,,,72,51
27720,note_off,120,0,1,,,,,,,,,1,,,77,0
27780,set_tempo,420,1,0,,,,,,495867,,,,,,,
27840,note_on,0,0,1,,,,,,,,,1,,,69,51
27840,note_off,120,0,1,,,,,,,,,1,,,72,0
27840,set_tempo,60,1,0,,,,,,487804,,,,,,,
27840,note_on,600,0,5,,,,,,,,,5,,,53,51
27960,note_off,120,0,5,,,,,,,,,5,,,53,0
27960,note_on,600,0,3,,,,,,,,,3,,,60,50
28075,note_off,235,0,1,,,,,,,,,1,,,69,0
28080,note_on,120,0,5,,,,,,,,,5,,,53,50
28080,note_off,120,0,3,,,,,,,,,3,,,60,0
28200,note_off,120,0,5,,,,,,,,,5,,,53,0
28200,note_on,120,0,3,,,,,,,,,3,,,60,49
28280,set_tempo,440,1,0,,,,,,495867,,,,,,,
28280,note_on,205,0,1,,,,,,,,,1,,,72,49
28320,note_off,120,0,3,,,,,,,,,3,,,60,0
28320,note_on,120,0,5,,,,,,,,,5,,,55,48
28320,set_tempo,40,1,0,,,,,,487804,,,,,,,
28320,note_on,40,0,1,,,,,,,,,1,,,70,48
28340,note_off,20,0,1,,,,,,,,,1,,,72,0
28440,note_off,100,0,1,,,,,,,,,1,,,70,0
28440,note_on,120,0,3,,,,,,,,,3,,,60,48
28440,note_off,120,0,5,,,,,,,,,5,,,55,0
28560,note_on,120,0,5,,,,,,,,,5,,,53,47
28560,note_off,120,0,3,,,,,,,,,3,,,60,0
28560,note_on,120,0,1,,,,,,,,,1,,,69,47
28680,note_on,120,0,3,,,,,,,,,3,,,60,46
28680,note_off,120,0,1,,,,,,,,,1,,,69,0
28680,note_off,120,0,5,,,,,,,,,5,,,53,0
28760,set_tempo,440,1,0,,,,,,495867,,,,,,,
28760,note_on,80,0,1,,,,,,,,,1,,,72,46
28800,note_off,120,0,3,,,,,,,,,3,,,60,0
28800,note_on,120,0,5,,,,,,,,,5,,,55,46
28800,set_tempo,40,1,0,,,,,,487804,,,,,,,
28800,note_on,40,0,1,,,,,,,,,1,,,70,46
28820,note_off,20,0,1,,,,,,,,,1,,,72,0
28920,note_on,120,0,3,,,,,,,,,3,,,60,45
28920,note_off,120,0,5,,,,,,,,,5,,,55,0
28920,note_off,100,0,1,,,,,,,,,1,,,70,0
29040,note_on,120,0,1,,,,,,,,,1,,,69,45
29040,note_on,120,0,5,,,,,,,,,5,,,53,45
29040,note_off,120,0,3,,,,,,,,,3,,,60,0
29155,note_off,115,0,1,,,,,,,,,1,,,69,0
29160,note_off,120,0,5,,,,,,,,,5,,,53,0
29160,set_tempo,360,1,0,,,,,,508474,,,,,,,
29160,note_on,120,0,3,,,,,,,,,3,,,60,44
29280,note_on,125,0,1,,,,,,,,,1,,,81,79
29280,note_off,120,0,3,,,,,,,,,3,,,60,0
29280,set_tempo,120,1,0,,,,,,487804,,,,,,,
29400,note_off,120,0,1,,,,,,,,,1,,,81,0
29400,note_on,0,0,1,,,,,,,,,1,,,77,79
29520,note_off,120,0,1,,,,,,,,,1,,,77,0
29520,note_on,0,0,1,,,,,,,,,1,,,81,78
29640,note_off,120,0,1,,,,,,,,,1,,,81,0
29640,note_on,0,0,1,,,,,,,,,1,,,77,78
29700,set_tempo,420,1,0,,,,,,495867,,,,,,,
29760,set_tempo,60,1,0,,,,,,487804,,,,,,,
29760,note_on,0,0,1,,,,,,,,,1,,,74,77
29760,note_off,120,0,1,,,,,,,,,1,,,77,0
29760,note_on,600,0,5,,,,,,,,,5,,,53,77
29760,note_on,11520,0,4,,,,,,,,,4,,,59,77
29885,note_off,125,0,1,,,,,,,,,1,,,74,0
30000,note_on,115,0,1,,,,,,,,,1,,,74,76
30120,note_off,120,0,1,,,,,,,,,1,,,74,0
30200,set_tempo,440,1,0,,,,,,495867,,,,,,,
30240,set_tempo,40,1,0,,,,,,487804,,,,,,,
30240,note_on,120,0,1,,,,,,,,,1,,,73,75
30360,note_off,120,0,1,,,,,,,,,1,,,73,0
30360,note_on,0,0,1,,,,,,,,,1,,,74,75
30480,note_off,120,0,1,,,,,,,,,1,,,74,0
30480,note_on,0,0,1,,,,,,,,,1,,,76,74
30600,note_on,0,0,1,,,,,,,,,1,,,77,74
30600,note_off,120,0,1,,,,,,,,,1,,,76,0
30660,set_tempo,420,1,0,,,,,,495867,,,,,,,
30720,note_off,960,0,5,,,,,,,,,5,,,53,0
30720,note_on,0,0,4,,,,,,,,,4,,,60,68
30720,note_on,0,0,5,,,,,,,,,5,,,52,68
30720,note_off,960,0,4,,,,,,,,,4,,,59,0
30720,set_tempo,60,1,0,,,,,,487804,,,,,,,
30720,note_on,0,0,1,,,,,,,,,1,,,79,73
30720,note_off,120,0,1,,,,,,,,,1,,,77,0
30840,note_off,120,0,1,,,,,,,,,1,,,79,0
30960,note_on,120,0,1,,,,,,,,,1,,,79,72
31085,note_off,125,0,1,,,,,,,,,1,,,79,0
31160,set_tempo,440,1,0,,,,,,495867,,,,,,,
31200,set_tempo,40,1,0,,,,,,487804,,,,,,,
31200,note_on,115,0,1,,,,,,,,,1,,,81,71
31320,note_off,120,0,1,,,,,,,,,1,,,81,0
31320,note_on,0,0,1,,,,,,,,,1,,,79,71
31440,note_on,0,0,1,,,,,,,,,1,,,77,70
31440,note_off,120,0,1,,,,,,,,,1,,,79,0
31560,set_tempo,360,1,0,,,,,,500000,,,,,,,
31560,note_off,120,0,1,,,,,,,,,1,,,77,0
31560,note_on,0,0,1,,,,,,,,,1,,,76,70
31680,set_tempo,120,1,0,,,,,,487804,,,,,,,
31680,note_on,0,0,5,,,,,,,,,5,,,53,53
31680,note_off,960,0,5,,,,,,,,,5,,,52,0
31680,note_off,120,0,1,,,,,,,,,1,,,76,0
31680,note_on,0,0,1,,,,,,,,,1,,,73,53
31680,note_on,0,0,4,,,,,,,,,4,,,59,53
31680,note_off,960,0,4,,,,,,,,,4,,,60,0
31800,note_off,120,0,1,,,,,,,,,1,,,73,0
31800,note_on,0,0,1,,,,,,,,,1,,,74,53
31920,note_off,120,0,1,,,,,,,,,1,,,74,0
31920,note_on,0,0,1,,,,,,,,,1,,,73,53
32040,note_off,120,0,1,,,,,,,,,1,,,73,0
32040,note_on,0,0,1,,,,,,,,,1,,,74,52
32160,note_on,0,0,1,,,,,,,,,1,,,73,52
32160,note_off,120,0,1,,,,,,,,,1,,,74,0
32280,note_off,120,0,1,,,,,,,,,1,,,73,0
32280,note_on,0,0,1,,,,,,,,,1,,,74,51
32400,note_off,120,0,1,,,,,,,,,1,,,74,0
32400,note_on,0,0,1,,,,,,,,,1,,,76,51
32520,note_off,120,0,1,,,,,,,,,1,,,76,0
32520,note_on,0,0,1,,,,,,,,,1,,,77,51
32580,set_tempo,900,1,0,,,,,,495867,,,,,,,
32640,set_tempo,60,1,0,,,,,,487804,,,,,,,
32640,note_off,960,0,4,,,,,,,,,4,,,59,0
32640,note_off,960,0,5,,,,,,,,,5,,,53,0
32640,note_on,0,0,4,,,,,,,,,4,,,60,45
32640,note_off,120,0,1,,,,,,,,,1,,,77,0
32640,note_on,0,0,1,,,,,,,,,1,,,81,50
32640,note_on,0,0,5,,,,,,,,,5,,,52,45
32760,note_off,120,0,1,,,,,,,,,1,,,81,0
32760,note_on,0,0,1,,,,,,,,,1,,,79,50
32880,note_off,120,0,1,,,,,,,,,1,,,79,0
32880,note_on,0,0,1,,,,,,,,,1,,,81,49
33000,note_on,0,0,1,,,,,,,,,1,,,79,49
33000,note_off,120,0,1,,,,,,,,,1,,,81,0
33120,note_off,120,0,1,,,,,,,,,1,,,79,0
33120,note_on,0,0,1,,,,,,,,,1,,,81,49
33240,note_off,120,0,1,,,,,,,,,1,,,81,0
33240,note_on,0,0,1,,,,,,,,,1,,,79,48
33360,note_off,120,0,1,,,,,,,,,1,,,79,0
33360,note_on,0,0,1,,,,,,,,,1,,,77,48
33480,set_tempo,840,1,0,,,,,,500000,,,,,,,
33480,note_off,120,0,1,,,,,,,,,1,,,77,0
33480,note_on,0,0,1,,,,,,,,,1,,,76,47
33600,note_off,960,0,5,,,,,,,,,5,,,52,0
33600,note_off,960,0,4,,,,,,,,,4,,,60,0
33600,set_tempo,120,1,0,,,,,,487804,,,,,,,
33600,note_off,120,0,1,,,,,,,,,1,,,76,0
33600,note_on,0,0,1,,,,,,,,,1,,,74,47
33840,note_on,0,0,1,,,,,,,,,1,,,76,46
33840,note_on,240,0,5,,,,,,,,,5,,,53,61
33840,note_off,240,0,1,,,,,,,,,1,,,74,0
33960,note_off,120,0,1,,,,,,,,,1,,,76,0
33960,note_on,0,0,1,,,,,,,,,1,,,77,46
34020,set_tempo,420,1,0,,,,,,495867,,,,,,,
34080,note_on,0,0,5,,,,,,,,,5,,,55,45
34080,note_on,0,0,1,,,,,,,,,1,,,72,45
34080,note_off,120,0,1,,,,,,,,,1,,,77,0
34080,note_off,240,0,5,,,,,,,,,5,,,53,0
34200,note_off,120,0,5,,,,,,,,,5,,,55,0
34205,note_off,125,0,1,,,,,,,,,1,,,72,0
34260,set_tempo,240,1,0,,,,,,500000,,,,,,,
34320,note_on,120,0,5,,,,,,,,,5,,,43,45
34320,note_on,115,0,1,,,,,,,,,1,,,71,45
34435,note_off,115,0,5,,,,,,,,,5,,,43,0
34440,set_tempo,180,1,0,,,,,,517241,,,,,,,
34440,note_off,120,0,1,,,,,,,,,1,,,71,0
34560,set_tempo,120,1,0,,,,,,508474,,,,,,,
34560,note_on,120,0,1,,,,,,,,,1,,,72,44
34560,note_on,0,0,1,,,,,,,,,1,,,48,44
34680,set_tempo,120,1,0,,,,,,500000,,,,,,,
34800,note_on,0,0,1,,,,,,,,,1,,,71,52
34800,note_off,240,0,1,,,,,,,,,1,,,72,0
34920,note_off,120,0,1,,,,,,,,,1,,,71,0
34920,note_on,0,0,1,,,,,,,,,1,,,72,56
35040,note_on,0,0,1,,,,,,,,,1,,,73,60
35040,note_off,0,0,1,,,,,,,,,1,,,48,0
35040,note_off,120,0,1,,,,,,,,,1,,,72,0
35160,note_off,120,0,1,,,,,,,,,1,,,73,0
35160,note_on,0,0,1,,,,,,,,,1,,,74,65
35280,note_off,120,0,1,,,,,,,,,1,,,74,0
35280,note_on,0,0,1,,,,,,,,,1,,,75,69
35340,set_tempo,660,1,0,,,,,,495867,,,,,,,
35400,set_tempo,60,1,0,,,,,,500000,,,,,,,
35400,note_off,120,0,1,,,,,,,,,1,,,75,0
35400,note_on,0,0,1,,,,,,,,,1,,,76,73
35520,control_change,1920,0,4,,,,,,,64,0,4,,,,
35520,note_on,0,0,5,,,,,,,,,5,,,53,79
35520,control_change,1085,0,5,,,,,,,64,0,5,,,,
35520,control_change,120,0,1,,,,,,,64,0,1,,,,
35520,note_on,0,0,1,,,,,,,,,1,,,77,79
35520,note_off,0,0,1,,,,,,,,,1,,,76,0
35520,set_tempo,120,1,0,,,,,,487804,,,,,,,
35520,control_change,17280,0,2,,,,,,,64,0,2,,,,
35640,note_on,6360,0,3,,,,,,,,,3,,,57,72
35760,note_off,120,0,3,,,,,,,,,3,,,57,0
35760,note_on,0,0,3,,,,,,,,,3,,,60,73
35760,note_off,240,0,5,,,,,,,,,5,,,53,0
35880,note_on,0,0,3,,,,,,,,,3,,,57,74
35880,note_off,120,0,3,,,,,,,,,3,,,60,0
36000,note_off,120,0,3,,,,,,,,,3,,,57,0
36000,note_off,480,0,1,,,,,,,,,1,,,77,0
36000,note_on,240,0,5,,,,,,,,,5,,,53,76
36000,note_on,0,0,1,,,,,,,,,1,,,77,76
36120,note_on,120,0,3,,,,,,,,,3,,,57,77
36125,note_off,125,0,1,,,,,,,,,1,,,77,0
36240,note_off,240,0,5,,,,,,,,,5,,,53,0
36240,note_on,0,0,3,,,,,,,,,3,,,60,78
36240,note_on,115,0,1,,,,,,,,,1,,,77,78
36240,note_off,120,0,3,,,,,,,,,3,,,57,0
36360,set_tempo,840,1,0,,,,,,500000,,,,,,,
36360,note_on,0,0,3,,,,,,,,,3,,,57,79
36360,note_off,120,0,1,,,,,,,,,1,,,77,0
36360,note_off,120,0,3,,,,,,,,,3,,,60,0
36480,note_on,240,0,5,,,,,,,,,5,,,53,80
36480,note_off,120,0,3,,,,,,,,,3,,,57,0
36480,note_on,120,0,1,,,,,,,,,1,,,77,80
36480,set_tempo,120,1,0,,,,,,487804,,,,,,,
36600,note_off,120,0,1,,,,,,,,,1,,,77,0
36600,note_on,0,0,1,,,,,,,,,1,,,76,77
36720,note_off,120,0,1,,,,,,,,,1,,,76,0
36720,note_on,0,0,1,,,,,,,,,1,,,74,74
36840,note_on,0,0,1,,,,,,,,,1,,,72,71
36840,note_off,120,0,1,,,,,,,,,1,,,74,0
36960,note_off,120,0,1,,,,,,,,,1,,,72,0
36960,note_off,480,0,5,,,,,,,,,5,,,53,0
36960,note_on,0,0,1,,,,,,,,,1,,,70,69
37080,note_on,0,0,1,,,,,,,,,1,,,69,66
37080,note_off,120,0,1,,,,,,,,,1,,,70,0
37200,note_off,120,0,1,,,,,,,,,1,,,69,0
37200,note_on,0,0,1,,,,,,,,,1,,,67,63
37320,set_tempo,840,1,0,,,,,,495867,,,,,,,
37320,note_off,120,0,1,,,,,,,,,1,,,67,0
37320,note_on,0,0,1,,,,,,,,,1,,,65,60
37440,note_on,480,0,5,,,,,,,,,5,,,48,59
37440,note_off,120,0,1,,,,,,,,,1,,,65,0
37440,set_tempo,120,1,0,,,,,,487804,,,,,,,
37440,note_on,0,0,1,,,,,,,,,1,,,63,59
37560,note_off,120,0,5,,,,,,,,,5,,,48,0
37560,note_on,1080,0,3,,,,,,,,,3,,,53,57
37615,note_off,175,0,1,,,,,,,,,1,,,63,0
37680,note_on,65,0,1,,,,,,,,,1,,,62,56
37680,note_on,120,0,5,,,,,,,,,5,,,47,56
37680,note_off,120,0,3,,,,,,,,,3,,,53,0
37800,note_on,0,0,1,,,,,,,,,1,,,65,54
37800,note_on,120,0,3,,,,,,,,,3,,,53,54
37800,note_off,120,0,1,,,,,,,,,1,,,62,0
37800,note_off,120,0,5,,,,,,,,,5,,,47,0
37920,note_off,120,0,3,,,,,,,,,3,,,53,0
37920,note_on,120,0,5,,,,,,,,,5,,,48,53
37920,note_on,0,0,1,,,,,,,,,1,,,63,53
37920,note_off,120,0,1,,,,,,,,,1,,,65,0
38040,note_off,120,0,5,,,,,,,,,5,,,48,0
38040,note_on,120,0,3,,,,,,,,,3,,,53,50
38100,note_off,180,0,1,,,,,,,,,1,,,63,0
38160,note_on,120,0,5,,,,,,,,,5,,,47,48
38160,note_off,120,0,3,,,,,,,,,3,,,53,0
38160,note_on,60,0,1,,,,,,,,,1,,,62,48
38280,note_on,120,0,3,,,,,,,,,3,,,53,46
38280,note_on,0,0,1,,,,,,,,,1,,,65,46
38280,note_off,120,0,5,,,,,,,,,5,,,47,0
38280,note_off,120,0,1,,,,,,,,,1,,,62,0
38290,set_tempo,850,1,0,,,,,,560747,,,,,,,
38400,note_off,120,0,1,,,,,,,,,1,,,65,0
38400,note_on,0,0,1,,,,,,,,,1,,,63,43
38400,note_off,120,0,3,,,,,,,,,3,,,53,0
38400,set_tempo,110,1,0,,,,,,535714,,,,,,,
38400,note_on,120,0,5,,,,,,,,,5,,,48,43
38820,note_off,420,0,5,,,,,,,,,5,,,48,0
38825,note_off,425,0,1,,,,,,,,,1,,,63,0
39120,set_tempo,720,1,0,,,,,,550458,,,,,,,
39360,set_tempo,240,1,0,,,,,,487804,,,,,,,
39360,note_on,535,0,1,,,,,,,,,1,,,75,75
39360,note_on,540,0,5,,,,,,,,,5,,,53,75
39480,note_on,1080,0,3,,,,,,,,,3,,,57,70
39600,note_off,240,0,5,,,,,,,,,5,,,53,0
39600,note_off,120,0,3,,,,,,,,,3,,,57,0
39600,note_on,0,0,3,,,,,,,,,3,,,60,71
39720,note_on,0,0,3,,,,,,,,,3,,,57,71
39720,note_off,120,0,3,,,,,,,,,3,,,60,0
39840,note_off,480,0,1,,,,,,,,,1,,,75,0
39840,note_on,0,0,1,,,,,,,,,1,,,75,72
39840,note_on,240,0,5,,,,,,,,,5,,,53,72
39840,note_off,120,0,3,,,,,,,,,3,,,57,0
39960,note_off,120,0,1,,,,,,,,,1,,,75,0
39960,note_on,120,0,3,,,,,,,,,3,,,57,73
40080,note_on,120,0,1,,,,,,,,,1,,,75,73
40080,note_off,120,0,3,,,,,,,,,3,,,57,0
40080,note_off,240,0,5,,,,,,,,,5,,,53,0
40080,note_on,0,0,3,,,,,,,,,3,,,60,73
40200,set_tempo,840,1,0,,,,,,500000,,,,,,,
40200,note_on,0,0,3,,,,,,,,,3,,,57,74
40200,note_off,120,0,3,,,,,,,,,3,,,60,0
40205,note_off,125,0,1,,,,,,,,,1,,,75,0
40320,note_on,240,0,5,,,,,,,,,5,,,53,76
40320,set_tempo,120,1,0,,,,,,487804,,,,,,,
40320,note_on,115,0,1,,,,,,,,,1,,,75,76
40320,note_off,120,0,3,,,,,,,,,3,,,57,0
40440,note_on,0,0,1,,,,,,,,,1,,,74,74
40440,note_off,120,0,1,,,,,,,,,1,,,75,0
40560,note_on,0,0,1,,,,,,,,,1,,,72,72
40560,note_off,120,0,1,,,,,,,,,1,,,74,0
40680,note_on,0,0,1,,,,,,,,,1,,,70,70
40680,note_off,120,0,1,,,,,,,,,1,,,72,0
40800,note_off,480,0,5,,,,,,,,,5,,,53,0
40800,note_on,0,0,1,,,,,,,,,1,,,69,68
40800,note_off,120,0,1,,,,,,,,,1,,,70,0
40920,note_on,0,0,1,,,,,,,,,1,,,67,66
40920,note_off,120,0,1,,,,,,,,,1,,,69,0
41040,note_off,120,0,1,,,,,,,,,1,,,67,0
41040,note_on,0,0,1,,,,,,,,,1,,,65,63
41160,note_off,120,0,1,,,,,,,,,1,,,65,0
41160,note_on,0,0,1,,,,,,,,,1,,,63,61
41160,set_tempo,840,1,0,,,,,,495867,,,,,,,
41280,note_off,120,0,1,,,,,,,,,1,,,63,0
41280,set_tempo,120,1,0,,,,,,487804,,,,,,,
41280,note_on,0,0,1,,,,,,,,,1,,,62,59
41280,note_on,480,0,5,,,,,,,,,5,,,46,59
41400,note_off,120,0,5,,,,,,,,,5,,,46,0
41400,note_on,1080,0,3,,,,,,,,,3,,,53,57
41460,note_off,180,0,1,,,,,,,,,1,,,62,0
41520,note_on,60,0,1,,,,,,,,,1,,,60,55
41520,note_on,120,0,5,,,,,,,,,5,,,45,55
41520,note_off,120,0,3,,,,,,,,,3,,,53,0
41640,note_off,120,0,1,,,,,,,,,1,,,60,0
41640,note_off,120,0,5,,,,,,,,,5,,,45,0
41640,note_on,120,0,3,,,,,,,,,3,,,53,53
41640,note_on,0,0,1,,,,,,,,,1,,,63,53
41760,note_off,120,0,1,,,,,,,,,1,,,63,0
41760,note_off,120,0,3,,,,,,,,,3,,,53,0
41760,note_on,120,0,5,,,,,,,,,5,,,46,50
41760,note_on,0,0,1,,,,,,,,,1,,,62,50
41880,note_on,120,0,3,,,,,,,,,3,,,53,48
41880,note_off,120,0,5,,,,,,,,,5,,,46,0
41945,note_off,185,0,1,,,,,,,,,1,,,62,0
42000,note_on,55,0,1,,,,,,,,,1,,,60,44
42000,note_on,120,0,5,,,,,,,,,5,,,45,44
42000,note_off,120,0,3,,,,,,,,,3,,,53,0
42120,note_off,120,0,5,,,,,,,,,5,,,45,0
42120,note_on,0,0,1,,,,,,,,,1,,,63,42
42120,note_on,120,0,3,,,,,,,,,3,,,53,42
42120,note_off,120,0,1,,,,,,,,,1,,,60,0
42130,set_tempo,850,1,0,,,,,,560747,,,,,,,
42240,note_on,0,0,1,,,,,,,,,1,,,62,40
42240,set_tempo,110,1,0,,,,,,535714,,,,,,,
42240,note_off,120,0,3,,,,,,,,,3,,,53,0
42240,note_off,120,0,1,,,,,,,,,1,,,63,0
42240,note_on,120,0,5,,,,,,,,,5,,,46,40
42660,note_off,420,0,1,,,,,,,,,1,,,62,0
42660,note_off,420,0,5,,,,,,,,,5,,,46,0
42960,set_tempo,720,1,0,,,,,,550458,,,,,,,
43200,set_tempo,240,1,0,,,,,,500000,,,,,,,
43200,note_on,540,0,1,,,,,,,,,1,,,74,55
43200,note_on,540,0,5,,,,,,,,,5,,,54,55
43385,note_off,185,0,1,,,,,,,,,1,,,74,0
43440,note_on,55,0,1,,,,,,,,,1,,,75,55
43560,note_on,0,0,1,,,,,,,,,1,,,73,55
43560,note_off,120,0,1,,,,,,,,,1,,,75,0
43680,note_on,0,0,1,,,,,,,,,1,,,74,55
43680,note_off,120,0,1,,,,,,,,,1,,,73,0
43865,note_off,185,0,1,,,,,,,,,1,,,74,0
43920,note_on,55,0,1,,,,,,,,,1,,,75,55
44040,note_off,120,0,1,,,,,,,,,1,,,75,0
44040,note_on,0,0,1,,,,,,,,,1,,,73,55
44100,set_tempo,900,1,0,,,,,,508474,,,,,,,
44160,note_on,0,0,1,,,,,,,,,1,,,74,55
44160,note_off,120,0,1,,,,,,,,,1,,,73,0
44280,set_tempo,180,1,0,,,,,,500000,,,,,,,
44345,note_off,185,0,1,,,,,,,,,1,,,74,0
44400,note_on,55,0,1,,,,,,,,,1,,,81,57
44640,note_off,240,0,1,,,,,,,,,1,,,81,0
44640,note_on,0,0,1,,,,,,,,,1,,,78,56
44880,note_on,0,0,1,,,,,,,,,1,,,72,55
44880,note_off,240,0,1,,,,,,,,,1,,,78,0
45060,set_tempo,780,1,0,,,,,,508474,,,,,,,
45115,note_off,1915,0,5,,,,,,,,,5,,,54,0
45120,note_on,0,0,1,,,,,,,,,1,,,70,54
45120,note_on,5,0,5,,,,,,,,,5,,,55,44
45120,note_off,240,0,1,,,,,,,,,1,,,72,0
45120,set_tempo,60,1,0,,,,,,500000,,,,,,,
45295,note_off,175,0,1,,,,,,,,,1,,,70,0
45295,note_off,175,0,5,,,,,,,,,5,,,55,0
45360,note_on,65,0,5,,,,,,,,,5,,,54,54
45360,note_on,65,0,1,,,,,,,,,1,,,69,53
45480,note_on,0,0,1,,,,,,,,,1,,,72,53
45480,note_off,120,0,1,,,,,,,,,1,,,69,0
45600,note_on,0,0,5,,,,,,,,,5,,,55,43
45600,note_off,240,0,5,,,,,,,,,5,,,54,0
45600,note_off,120,0,1,,,,,,,,,1,,,72,0
45600,note_on,0,0,1,,,,,,,,,1,,,70,52
45780,note_off,180,0,5,,,,,,,,,5,,,55,0
45785,note_off,185,0,1,,,,,,,,,1,,,70,0
45840,note_on,55,0,1,,,,,,,,,1,,,69,51
45840,note_on,60,0,5,,,,,,,,,5,,,54,53
45960,note_off,120,0,1,,,,,,,,,1,,,69,0
45960,note_on,0,0,1,,,,,,,,,1,,,72,51
46020,set_tempo,900,1,0,,,,,,508474,,,,,,,
46080,note_off,120,0,1,,,,,,,,,1,,,72,0
46080,note_on,0,0,1,,,,,,,,,1,,,70,50
46080,note_off,240,0,5,,,,,,,,,5,,,54,0
46080,note_on,0,0,5,,,,,,,,,5,,,55,43
46200,set_tempo,180,1,0,,,,,,508474,,,,,,,
46260,note_off,180,0,5,,,,,,,,,5,,,55,0
46320,note_on,60,0,5,,,,,,,,,5,,,62,55
46505,note_off,425,0,1,,,,,,,,,1,,,70,0
46560,note_on,0,0,5,,,,,,,,,5,,,58,54
46560,note_off,240,0,5,,,,,,,,,5,,,62,0
46800,note_on,0,0,5,,,,,,,,,5,,,53,52
46800,note_off,240,0,5,,,,,,,,,5,,,58,0
46920,set_tempo,720,1,0,,,,,,517241,,,,,,,
47040,set_tempo,120,1,0,,,,,,500000,,,,,,,
47040,note_on,535,0,1,,,,,,,,,1,,,72,52
47040,note_on,240,0,5,,,,,,,,,5,,,52,51
47045,note_off,5,0,5,,,,,,,,,5,,,53,0
47215,note_off,175,0,1,,,,,,,,,1,,,72,0
47280,note_on,65,0,1,,,,,,,,,1,,,71,52
47400,note_off,120,0,1,,,,,,,,,1,,,71,0
47400,note_on,0,0,1,,,,,,,,,1,,,74,52
47520,note_off,120,0,1,,,,,,,,,1,,,74,0
47520,note_on,0,0,1,,,,,,,,,1,,,72,52
47700,note_off,180,0,1,,,,,,,,,1,,,72,0
47760,note_on,60,0,1,,,,,,,,,1,,,71,52
47880,note_off,120,0,1,,,,,,,,,1,,,71,0
47880,note_on,0,0,1,,,,,,,,,1,,,74,51
47940,set_tempo,900,1,0,,,,,,508474,,,,,,,
48000,note_off,120,0,1,,,,,,,,,1,,,74,0
48000,note_on,0,0,1,,,,,,,,,1,,,72,51
48120,set_tempo,180,1,0,,,,,,500000,,,,,,,
48185,note_off,185,0,1,,,,,,,,,1,,,72,0
48240,note_on,55,0,1,,,,,,,,,1,,,79,53
48480,note_off,240,0,1,,,,,,,,,1,,,79,0
48480,note_on,0,0,1,,,,,,,,,1,,,76,52
48720,note_off,240,0,1,,,,,,,,,1,,,76,0
48720,note_on,0,0,1,,,,,,,,,1,,,70,52
48900,set_tempo,780,1,0,,,,,,508474,,,,,,,
48960,set_tempo,60,1,0,,,,,,500000,,,,,,,
48960,note_on,1915,0,5,,,,,,,,,5,,,53,41
48960,note_on,0,0,1,,,,,,,,,1,,,69,51
48960,note_off,240,0,1,,,,,,,,,1,,,70,0
48965,note_off,5,0,5,,,,,,,,,5,,,52,0
49135,note_off,170,0,5,,,,,,,,,5,,,53,0
49135,note_off,175,0,1,,,,,,,,,1,,,69,0
49200,note_on,65,0,5,,,,,,,,,5,,,52,50
49200,note_on,65,0,1,,,,,,,,,1,,,67,50
49320,note_off,120,0,1,,,,,,,,,1,,,67,0
49320,note_on,0,0,1,,,,,,,,,1,,,70,50
49440,note_on,0,0,1,,,,,,,,,1,,,69,49
49440,note_on,0,0,5,,,,,,,,,5,,,53,40
49440,note_off,120,0,1,,,,,,,,,1,,,70,0
49440,note_off,240,0,5,,,,,,,,,5,,,52,0
49620,note_off,180,0,5,,,,,,,,,5,,,53,0
49620,note_off,180,0,1,,,,,,,,,1,,,69,0
49680,note_on,60,0,5,,,,,,,,,5,,,52,50
49680,note_on,60,0,1,,,,,,,,,1,,,67,49
49800,note_off,120,0,1,,,,,,,,,1,,,67,0
49800,note_on,0,0,1,,,,,,,,,1,,,70,48
49860,set_tempo,900,1,0,,,,,,508474,,,,,,,
49920,note_off,240,0,5,,,,,,,,,5,,,52,0
49920,note_on,0,0,5,,,,,,,,,5,,,53,40
49920,note_on,0,0,1,,,,,,,,,1,,,69,48
49920,note_off,120,0,1,,,,,,,,,1,,,70,0
50020,set_tempo,160,1,0,,,,,,508474,,,,,,,
50100,note_off,180,0,5,,,,,,,,,5,,,53,0
50160,note_on,60,0,5,,,,,,,,,5,,,60,53
50400,note_off,240,0,5,,,,,,,,,5,,,60,0
50400,note_on,0,0,5,,,,,,,,,5,,,57,51
50640,note_off,240,0,5,,,,,,,,,5,,,57,0
50640,note_on,0,0,5,,,,,,,,,5,,,52,50
50760,set_tempo,740,1,0,,,,,,517241,,,,,,,
50880,note_on,0,0,1,,,,,,,,,1,,,70,44
50880,note_on,0,0,5,,,,,,,,,5,,,50,48
50880,note_off,960,0,1,,,,,,,,,1,,,69,0
50880,note_off,240,0,5,,,,,,,,,5,,,52,0
50990,set_tempo,230,1,0,,,,,,500000,,,,,,,
51060,note_off,180,0,1,,,,,,,,,1,,,70,0
51120,note_on,60,0,1,,,,,,,,,1,,,77,49
51360,note_off,240,0,1,,,,,,,,,1,,,77,0
51360,note_on,0,0,1,,,,,,,,,1,,,74,48
51600,note_off,240,0,1,,,,,,,,,1,,,74,0
51600,note_on,0,0,1,,,,,,,,,1,,,69,47
51730,set_tempo,740,1,0,,,,,,508474,,,,,,,
51840,note_off,960,0,5,,,,,,,,,5,,,50,0
51840,note_on,0,0,5,,,,,,,,,5,,,52,43
51840,note_off,240,0,1,,,,,,,,,1,,,69,0
51840,note_on,0,0,1,,,,,,,,,1,,,67,46
51960,set_tempo,230,1,0,,,,,,500000,,,,,,,
52020,note_off,180,0,5,,,,,,,,,5,,,52,0
52080,note_on,60,0,5,,,,,,,,,5,,,58,51
52320,note_off,240,0,5,,,,,,,,,5,,,58,0
52320,note_on,0,0,5,,,,,,,,,5,,,55,49
52560,note_off,240,0,5,,,,,,,,,5,,,55,0
52560,note_on,0,0,5,,,,,,,,,5,,,50,47
52674,set_tempo,714,1,0,,,,,,508474,,,,,,,
52800,note_off,240,0,5,,,,,,,,,5,,,50,0
52800,note_on,0,0,1,,,,,,,,,1,,,69,42
52800,note_on,0,0,5,,,,,,,,,5,,,49,45
52800,note_off,960,0,1,,,,,,,,,1,,,67,0
52910,set_tempo,236,1,0,,,,,,500000,,,,,,,
52980,note_off,180,0,1,,,,,,,,,1,,,69,0
53040,note_on,60,0,1,,,,,,,,,1,,,76,49
53280,note_on,0,0,1,,,,,,,,,1,,,73,47
53280,note_off,240,0,1,,,,,,,,,1,,,76,0
53520,note_on,0,0,1,,,,,,,,,1,,,67,46
53520,note_off,240,0,1,,,,,,,,,1,,,73,0
53650,set_tempo,740,1,0,,,,,,508474,,,,,,,
53760,note_off,960,0,5,,,,,,,,,5,,,49,0
53760,note_on,0,0,5,,,,,,,,,5,,,50,42
53760,note_on,0,0,1,,,,,,,,,1,,,65,44
53760,note_off,240,0,1,,,,,,,,,1,,,67,0
53870,set_tempo,220,1,0,,,,,,500000,,,,,,,
53945,note_off,185,0,5,,,,,,,,,5,,,50,0
54000,note_on,55,0,5,,,,,,,,,5,,,57,49
54240,note_off,240,0,5,,,,,,,,,5,,,57,0
54240,note_on,0,0,5,,,,,,,,,5,,,53,48
54480,note_on,0,0,5,,,,,,,,,5,,,48,47
54480,note_off,240,0,5,,,,,,,,,5,,,53,0
54600,set_tempo,730,1,0,,,,,,508474,,,,,,,
54720,note_off,240,0,5,,,,,,,,,5,,,48,0
54720,note_off,960,0,1,,,,,,,,,1,,,65,0
54720,set_tempo,120,1,0,,,,,,526315,,,,,,,
54720,note_on,0,0,5,,,,,,,,,5,,,47,46
54840,set_tempo,120,1,0,,,,,,508474,,,,,,,
54960,note_on,240,0,1,,,,,,,,,1,,,65,49
55200,note_off,480,0,5,,,,,,,,,5,,,47,0
55200,note_on,0,0,1,,,,,,,,,1,,,74,50
55200,note_off,240,0,1,,,,,,,,,1,,,65,0
55440,note_on,0,0,1,,,,,,,,,1,,,71,51
55440,note_off,240,0,1,,,,,,,,,1,,,74,0
55680,note_on,0,0,1,,,,,,,,,1,,,77,52
55680,note_off,240,0,1,,,,,,,,,1,,,71,0
55920,note_on,0,0,1,,,,,,,,,1,,,74,53
55920,note_off,240,0,1,,,,,,,,,1,,,77,0
56160,note_on,0,0,1,,,,,,,,,1,,,83,54
56160,note_off,240,0,1,,,,,,,,,1,,,74,0
56400,note_on,0,0,1,,,,,,,,,1,,,77,55
56400,note_off,240,0,1,,,,,,,,,1,,,83,0
56640,note_off,240,0,1,,,,,,,,,1,,,77,0
56640,note_on,0,0,1,,,,,,,,,1,,,86,56
56880,note_on,0,0,1,,,,,,,,,1,,,83,57
56880,note_off,240,0,1,,,,,,,,,1,,,86,0
57000,set_tempo,2160,1,0,,,,,,517241,,,,,,,
57120,note_off,240,0,1,,,,,,,,,1,,,83,0
57120,note_on,0,0,1,,,,,,,,,1,,,89,58
57127,set_tempo,127,1,0,,,,,,508474,,,,,,,
57360,note_on,0,0,1,,,,,,,,,1,,,86,59
57360,note_off,240,0,1,,,,,,,,,1,,,89,0
57435,set_tempo,308,1,0,,,,,,517241,,,,,,,
57600,note_off,240,0,1,,,,,,,,,1,,,86,0
57600,note_on,22080,0,4,,,,,,,,,4,,,65,61
57600,note_on,2400,0,5,,,,,,,,,5,,,55,61
57600,note_on,0,0,1,,,,,,,,,1,,,84,61
57840,note_on,0,0,1,,,,,,,,,1,,,83,62
57840,note_off,240,0,1,,,,,,,,,1,,,84,0
58080,note_off,240,0,1,,,,,,,,,1,,,83,0
58080,note_on,0,0,1,,,,,,,,,1,,,81,63
58080,note_off,480,0,5,,,,,,,,,5,,,55,0
58080,note_off,480,0,4,,,,,,,,,4,,,65,0
58200,set_tempo,765,1,0,,,,,,526315,,,,,,,
58320,note_off,240,0,1,,,,,,,,,1,,,81,0
58320,set_tempo,120,1,0,,,,,,550458,,,,,,,
58320,note_on,0,0,1,,,,,,,,,1,,,83,64
58560,note_off,240,0,1,,,,,,,,,1,,,83,0
58560,note_on,0,0,1,,,,,,,,,1,,,84,65
58560,note_on,480,0,4,,,,,,,,,4,,,64,65
58560,set_tempo,240,1,0,,,,,,500000,,,,,,,
58560,note_on,480,0,5,,,,,,,,,5,,,60,65
58800,note_off,240,0,1,,,,,,,,,1,,,84,0
58800,note_on,16560,0,3,,,,,,,,,3,,,67,66
59040,note_on,240,0,1,,,,,,,,,1,,,79,67
59040,note_off,240,0,3,,,,,,,,,3,,,67,0
59040,note_on,0,0,4,,,,,,,,,4,,,64,67
59040,note_off,480,0,4,,,,,,,,,4,,,64,0
59040,note_on,0,0,5,,,,,,,,,5,,,60,67
59040,note_off,480,0,5,,,,,,,,,5,,,60,0
59160,note_off,120,0,1,,,,,,,,,1,,,79,0
59160,note_on,0,0,1,,,,,,,,,1,,,76,67
59280,note_off,120,0,1,,,,,,,,,1,,,76,0
59280,note_on,240,0,3,,,,,,,,,3,,,67,68
59280,note_on,0,0,1,,,,,,,,,1,,,79,68
59400,note_off,120,0,1,,,,,,,,,1,,,79,0
59400,note_on,0,0,1,,,,,,,,,1,,,76,68
59520,note_off,120,0,1,,,,,,,,,1,,,76,0
59520,note_on,0,0,1,,,,,,,,,1,,,72,69
59520,note_off,480,0,5,,,,,,,,,5,,,60,0
59520,note_on,0,0,5,,,,,,,,,5,,,60,69
59520,note_off,240,0,3,,,,,,,,,3,,,67,0
59520,note_off,480,0,4,,,,,,,,,4,,,64,0
59520,note_on,0,0,4,,,,,,,,,4,,,64,69
59760,note_on,240,0,3,,,,,,,,,3,,,67,70
59760,note_off,240,0,1,,,,,,,,,1,,,72,0
60000,note_off,240,0,3,,,,,,,,,3,,,67,0
60000,note_on,240,0,1,,,,,,,,,1,,,84,71
60000,note_off,480,0,5,,,,,,,,,5,,,60,0
60000,note_on,0,0,5,,,,,,,,,5,,,60,71
60000,note_off,480,0,4,,,,,,,,,4,,,64,0
60000,note_on,0,0,4,,,,,,,,,4,,,64,71
60120,note_off,120,0,1,,,,,,,,,1,,,84,0
60120,note_on,0,0,1,,,,,,,,,1,,,79,71
60240,note_on,0,0,1,,,,,,,,,1,,,84,72
60240,note_off,120,0,1,,,,,,,,,1,,,79,0
60240,note_on,240,0,3,,,,,,,,,3,,,67,72
60360,note_on,0,0,1,,,,,,,,,1,,,79,72
60360,note_off,120,0,1,,,,,,,,,1,,,84,0
60480,note_off,480,0,5,,,,,,,,,5,,,60,0
60480,note_on,0,0,5,,,,,,,,,5,,,60,73
60480,note_on,0,0,1,,,,,,,,,1,,,76,73
60480,note_off,240,0,3,,,,,,,,,3,,,67,0
60480,note_off,120,0,1,,,,,,,,,1,,,79,0
60480,note_on,0,0,4,,,,,,,,,4,,,64,73
60480,note_off,480,0,4,,,,,,,,,4,,,64,0
60720,note_off,240,0,1,,,,,,,,,1,,,76,0
60720,note_on,240,0,3,,,,,,,,,3,,,67,74
60960,note_on,0,0,5,,,,,,,,,5,,,60,75
60960,note_off,480,0,5,,,,,,,,,5,,,60,0
60960,note_off,480,0,4,,,,,,,,,4,,,64,0
60960,note_on,0,0,4,,,,,,,,,4,,,64,75
60960,note_off,240,0,3,,,,,,,,,3,,,67,0
60960,note_on,240,0,1,,,,,,,,,1,,,88,75
61080,note_off,120,0,1,,,,,,,,,1,,,88,0
61080,note_on,0,0,1,,,,,,,,,1,,,84,75
61200,note_off,120,0,1,,,,,,,,,1,,,84,0
61200,note_on,0,0,1,,,,,,,,,1,,,88,76
61200,note_on,240,0,3,,,,,,,,,3,,,67,76
61320,note_off,120,0,1,,,,,,,,,1,,,88,0
61320,note_on,0,0,1,,,,,,,,,1,,,84,76
61440,note_on,0,0,5,,,,,,,,,5,,,62,77
61440,note_off,480,0,4,,,,,,,,,4,,,64,0
61440,note_off,240,0,3,,,,,,,,,3,,,67,0
61440,note_on,0,0,4,,,,,,,,,4,,,65,77
61440,note_on,0,0,1,,,,,,,,,1,,,83,77
61440,note_off,120,0,1,,,,,,,,,1,,,84,0
61440,note_off,480,0,5,,,,,,,,,5,,,60,0
61680,note_off,240,0,1,,,,,,,,,1,,,83,0
61680,note_on,0,0,1,,,,,,,,,1,,,86,78
61680,note_on,240,0,3,,,,,,,,,3,,,67,78
61920,note_on,0,0,4,,,,,,,,,4,,,65,79
61920,note_off,480,0,4,,,,,,,,,4,,,65,0
61920,note_off,480,0,5,,,,,,,,,5,,,62,0
61920,note_off,240,0,1,,,,,,,,,1,,,86,0
61920,note_on,0,0,1,,,,,,,,,1,,,89,79
61920,note_on,0,0,5,,,,,,,,,5,,,62,79
61920,note_off,240,0,3,,,,,,,,,3,,,67,0
62100,set_tempo,3540,1,0,,,,,,508474,,,,,,,
62160,note_on,240,0,3,,,,,,,,,3,,,67,80
62160,note_on,0,0,1,,,,,,,,,1,,,83,80
62160,note_off,240,0,1,,,,,,,,,1,,,89,0
62280,set_tempo,180,1,0,,,,,,526315,,,,,,,
62400,note_off,240,0,3,,,,,,,,,3,,,67,0
62400,note_off,240,0,1,,,,,,,,,1,,,83,0
62400,note_on,0,0,1,,,,,,,,,1,,,84,81
62400,note_off,480,0,4,,,,,,,,,4,,,65,0
62400,note_on,0,0,4,,,,,,,,,4,,,64,81
62400,note_on,0,0,5,,,,,,,,,5,,,60,81
62400,note_off,480,0,5,,,,,,,,,5,,,62,0
62760,note_off,360,0,1,,,,,,,,,1,,,84,0
62760,note_off,360,0,4,,,,,,,,,4,,,64,0
62760,note_off,360,0,5,,,,,,,,,5,,,60,0
62880,note_on,120,0,1,,,,,,,,,1,,,86,78
62880,set_tempo,600,1,0,,,,,,508474,,,,,,,
63000,note_off,120,0,1,,,,,,,,,1,,,86,0
63000,note_on,0,0,1,,,,,,,,,1,,,82,77
63120,note_off,120,0,1,,,,,,,,,1,,,82,0
63120,note_on,0,0,1,,,,,,,,,1,,,86,77
63240,note_on,0,0,1,,,,,,,,,1,,,82,76
63240,note_off,120,0,1,,,,,,,,,1,,,86,0
63240,set_tempo,360,1,0,,,,,,517241,,,,,,,
63360,note_on,600,0,4,,,,,,,,,4,,,64,76
63360,note_on,600,0,5,,,,,,,,,5,,,60,76
63360,note_on,0,0,1,,,,,,,,,1,,,79,76
63360,note_off,120,0,1,,,,,,,,,1,,,82,0
63720,note_off,360,0,1,,,,,,,,,1,,,79,0
63720,note_off,360,0,5,,,,,,,,,5,,,60,0
63720,note_off,360,0,4,,,,,,,,,4,,,64,0
63840,note_on,120,0,1,,,,,,,,,1,,,82,73
63960,note_off,120,0,1,,,,,,,,,1,,,82,0
63960,note_on,0,0,1,,,,,,,,,1,,,79,73
64080,note_off,120,0,1,,,,,,,,,1,,,79,0
64080,note_on,0,0,1,,,,,,,,,1,,,82,72
64200,set_tempo,960,1,0,,,,,,526315,,,,,,,
64200,note_off,120,0,1,,,,,,,,,1,,,82,0
64200,note_on,0,0,1,,,,,,,,,1,,,79,72
64320,set_tempo,120,1,0,,,,,,535714,,,,,,,
64320,note_off,120,0,1,,,,,,,,,1,,,79,0
64320,note_on,600,0,4,,,,,,,,,4,,,67,71
64320,note_on,600,0,5,,,,,,,,,5,,,60,71
64320,note_on,0,0,1,,,,,,,,,1,,,76,71
64680,note_off,360,0,4,,,,,,,,,4,,,67,0
64680,note_off,360,0,1,,,,,,,,,1,,,76,0
64680,note_off,360,0,5,,,,,,,,,5,,,60,0
64800,note_on,120,0,1,,,,,,,,,1,,,79,69
64920,note_off,120,0,1,,,,,,,,,1,,,79,0
64920,note_on,0,0,1,,,,,,,,,1,,,76,68
65030,set_tempo,710,1,0,,,,,,540540,,,,,,,
65040,note_on,0,0,1,,,,,,,,,1,,,79,68
65040,note_off,120,0,1,,,,,,,,,1,,,76,0
65152,set_tempo,122,1,0,,,,,,659340,,,,,,,
65160,note_on,0,0,1,,,,,,,,,1,,,76,67
65160,note_off,120,0,1,,,,,,,,,1,,,79,0
65280,set_tempo,128,1,0,,,,,,1818181,,,,,,,
65280,note_on,0,0,4,,,,,,,,,4,,,70,67
65280,note_on,600,0,4,,,,,,,,,4,,,67,67
65280,note_on,600,0,5,,,,,,,,,5,,,64,67
65280,note_off,120,0,1,,,,,,,,,1,,,76,0
65280,note_on,0,0,1,,,,,,,,,1,,,72,67
65640,note_off,360,0,5,,,,,,,,,5,,,64,0
65640,note_off,0,0,4,,,,,,,,,4,,,67,0
65640,note_off,360,0,4,,,,,,,,,4,,,70,0
65640,note_off,360,0,1,,,,,,,,,1,,,72,0
65640,set_tempo,360,1,0,,,,,,2068965,,,,,,,
65760,set_tempo,120,1,0,,,,,,495867,,,,,,,
65760,note_on,120,0,1,,,,,,,,,1,,,72,65
65880,note_off,120,0,1,,,,,,,,,1,,,72,0
65880,note_on,0,0,1,,,,,,,,,1,,,69,65
66000,note_off,120,0,1,,,,,,,,,1,,,69,0
66000,note_on,0,0,1,,,,,,,,,1,,,72,64
66120,note_on,0,0,1,,,,,,,,,1,,,69,64
66120,note_off,120,0,1,,,,,,,,,1,,,72,0
66120,set_tempo,360,1,0,,,,,,508474,,,,,,,
66240,note_off,120,0,1,,,,,,,,,1,,,69,0
66240,note_on,600,0,5,,,,,,,,,5,,,57,63
66240,note_on,0,0,1,,,,,,,,,1,,,65,63
66240,set_tempo,120,1,0,,,,,,487804,,,,,,,
66360,note_on,3960,0,3,,,,,,,,,3,,,60,63
66360,note_off,120,0,5,,,,,,,,,5,,,57,0
66480,note_off,240,0,1,,,,,,,,,1,,,65,0
66480,note_on,120,0,5,,,,,,,,,5,,,57,63
66480,note_off,120,0,3,,,,,,,,,3,,,60,0
66600,note_off,120,0,5,,,,,,,,,5,,,57,0
66600,note_on,120,0,3,,,,,,,,,3,,,60,62
66660,set_tempo,420,1,0,,,,,,495867,,,,,,,
66680,note_on,200,0,1,,,,,,,,,1,,,69,62
66714,set_tempo,54,1,0,,,,,,487804,,,,,,,
66720,note_off,120,0,3,,,,,,,,,3,,,60,0
66720,note_on,120,0,5,,,,,,,,,5,,,58,62
66720,note_on,40,0,1,,,,,,,,,1,,,67,62
66740,note_off,20,0,1,,,,,,,,,1,,,69,0
66840,note_off,120,0,5,,,,,,,,,5,,,58,0
66840,note_on,120,0,3,,,,,,,,,3,,,60,62
66845,note_off,105,0,1,,,,,,,,,1,,,67,0
66960,note_off,120,0,3,,,,,,,,,3,,,60,0
66960,note_on,115,0,1,,,,,,,,,1,,,65,61
66960,note_on,120,0,5,,,,,,,,,5,,,57,61
67075,note_off,115,0,1,,,,,,,,,1,,,65,0
67080,note_on,120,0,3,,,,,,,,,3,,,60,61
67080,note_off,120,0,5,,,,,,,,,5,,,57,0
67140,set_tempo,426,1,0,,,,,,495867,,,,,,,
67160,note_on,85,0,1,,,,,,,,,1,,,69,61
67200,note_on,120,0,5,,,,,,,,,5,,,58,61
67200,note_off,120,0,3,,,,,,,,,3,,,60,0
67200,set_tempo,60,1,0,,,,,,487804,,,,,,,
67200,note_on,40,0,1,,,,,,,,,1,,,67,61
67220,note_off,20,0,1,,,,,,,,,1,,,69,0
67320,note_off,120,0,5,,,,,,,,,5,,,58,0
67320,note_off,100,0,1,,,,,,,,,1,,,67,0
67320,note_on,120,0,3,,,,,,,,,3,,,60,60
67440,note_on,120,0,5,,,,,,,,,5,,,57,60
67440,note_on,120,0,1,,,,,,,,,1,,,65,60
67440,note_off,120,0,3,,,,,,,,,3,,,60,0
67560,note_on,120,0,3,,,,,,,,,3,,,60,59
67560,note_off,120,0,5,,,,,,,,,5,,,57,0
67560,note_off,120,0,1,,,,,,,,,1,,,65,0
67560,set_tempo,360,1,0,,,,,,508474,,,,,,,
67680,set_tempo,120,1,0,,,,,,487804,,,,,,,
67680,note_off,120,0,3,,,,,,,,,3,,,60,0
67680,note_on,120,0,1,,,,,,,,,1,,,77,59
67800,note_off,120,0,1,,,,,,,,,1,,,77,0
67800,note_on,0,0,1,,,,,,,,,1,,,72,59
67920,note_off,120,0,1,,,,,,,,,1,,,72,0
67920,note_on,0,0,1,,,,,,,,,1,,,77,58
68040,note_off,120,0,1,,,,,,,,,1,,,77,0
68040,note_on,0,0,1,,,,,,,,,1,,,72,58
68100,set_tempo,420,1,0,,,,,,495867,,,,,,,
68160,note_on,0,0,1,,,,,,,,,1,,,69,58
68160,note_off,120,0,1,,,,,,,,,1,,,72,0
68160,note_on,600,0,5,,,,,,,,,5,,,53,58
68160,set_tempo,60,1,0,,,,,,487804,,,,,,,
68280,note_on,600,0,3,,,,,,,,,3,,,60,57
68280,note_off,120,0,5,,,,,,,,,5,,,53,0
68400,note_on,120,0,5,,,,,,,,,5,,,53,57
68400,note_off,240,0,1,,,,,,,,,1,,,69,0
68400,note_off,120,0,3,,,,,,,,,3,,,60,0
68520,note_on,120,0,3,,,,,,,,,3,,,60,57
68520,note_off,120,0,5,,,,,,,,,5,,,53,0
68600,note_on,200,0,1,,,,,,,,,1,,,72,56
68600,set_tempo,440,1,0,,,,,,495867,,,,,,,
68640,note_off,120,0,3,,,,,,,,,3,,,60,0
68640,note_on,120,0,5,,,,,,,,,5,,,55,56
68640,note_on,40,0,1,,,,,,,,,1,,,70,56
68640,set_tempo,40,1,0,,,,,,487804,,,,,,,
68660,note_off,20,0,1,,,,,,,,,1,,,72,0
68760,note_off,120,0,5,,,,,,,,,5,,,55,0
68760,note_off,100,0,1,,,,,,,,,1,,,70,0
68760,note_on,120,0,3,,,,,,,,,3,,,60,56
68880,note_on,120,0,5,,,,,,,,,5,,,53,55
68880,note_off,120,0,3,,,,,,,,,3,,,60,0
68880,note_on,120,0,1,,,,,,,,,1,,,69,55
68995,note_off,115,0,1,,,,,,,,,1,,,69,0
69000,note_on,120,0,3,,,,,,,,,3,,,60,55
69000,note_off,120,0,5,,,,,,,,,5,,,53,0
69080,set_tempo,440,1,0,,,,,,495867,,,,,,,
69080,note_on,85,0,1,,,,,,,,,1,,,72,55
69120,note_on,40,0,1,,,,,,,,,1,,,70,55
69120,note_off,120,0,3,,,,,,,,,3,,,60,0
69120,set_tempo,40,1,0,,,,,,487804,,,,,,,
69120,note_on,120,0,5,,,,,,,,,5,,,55,55
69140,note_off,20,0,1,,,,,,,,,1,,,72,0
69240,note_off,120,0,5,,,,,,,,,5,,,55,0
69240,note_off,100,0,1,,,,,,,,,1,,,70,0
69240,note_on,120,0,3,,,,,,,,,3,,,60,54
69360,note_off,120,0,3,,,,,,,,,3,,,60,0
69360,note_on,120,0,5,,,,,,,,,5,,,53,54
69360,note_on,120,0,1,,,,,,,,,1,,,69,54
69480,note_on,120,0,3,,,,,,,,,3,,,60,54
69480,note_off,120,0,5,,,,,,,,,5,,,53,0
69480,set_tempo,360,1,0,,,,,,508474,,,,,,,
69480,note_off,120,0,1,,,,,,,,,1,,,69,0
69600,note_off,120,0,3,,,,,,,,,3,,,60,0
69600,note_on,120,0,1,,,,,,,,,1,,,81,79
69600,set_tempo,120,1,0,,,,,,487804,,,,,,,
69720,note_off,120,0,1,,,,,,,,,1,,,81,0
69720,note_on,0,0,1,,,,,,,,,1,,,77,79
69840,note_on,0,0,1,,,,,,,,,1,,,81,79
69840,note_off,120,0,1,,,,,,,,,1,,,77,0
69960,note_on,0,0,1,,,,,,,,,1,,,77,79
69960,note_off,120,0,1,,,,,,,,,1,,,81,0
70020,set_tempo,420,1,0,,,,,,495867,,,,,,,
70080,note_on,0,0,1,,,,,,,,,1,,,74,79
70080,set_tempo,60,1,0,,,,,,487804,,,,,,,
70080,note_on,4440,0,4,,,,,,,,,4,,,59,79
70080,note_on,600,0,5,,,,,,,,,5,,,53,79
70080,note_off,120,0,1,,,,,,,,,1,,,77,0
70260,note_off,180,0,1,,,,,,,,,1,,,74,0
70320,note_on,60,0,1,,,,,,,,,1,,,74,78
70500,note_off,180,0,1,,,,,,,,,1,,,74,0
70520,set_tempo,440,1,0,,,,,,495867,,,,,,,
70560,set_tempo,40,1,0,,,,,,487804,,,,,,,
70560,note_on,60,0,1,,,,,,,,,1,,,73,78
70680,note_on,0,0,1,,,,,,,,,1,,,74,77
70680,note_off,120,0,1,,,,,,,,,1,,,73,0
70800,note_off,120,0,1,,,,,,,,,1,,,74,0
70800,note_on,0,0,1,,,,,,,,,1,,,76,77
70920,note_on,0,0,1,,,,,,,,,1,,,77,77
70920,note_off,120,0,1,,,,,,,,,1,,,76,0
70980,set_tempo,420,1,0,,,,,,495867,,,,,,,
71040,note_off,120,0,1,,,,,,,,,1,,,77,0
71040,set_tempo,60,1,0,,,,,,487804,,,,,,,
71040,note_on,0,0,4,,,,,,,,,4,,,64,67
71040,note_off,960,0,4,,,,,,,,,4,,,59,0
71040,note_on,0,0,5,,,,,,,,,5,,,52,67
71040,note_off,960,0,5,,,,,,,,,5,,,53,0
71040,note_on,0,0,1,,,,,,,,,1,,,79,77
71225,note_off,185,0,1,,,,,,,,,1,,,79,0
71280,note_on,55,0,1,,,,,,,,,1,,,79,76
71460,note_off,420,0,4,,,,,,,,,4,,,64,0
71460,note_off,420,0,5,,,,,,,,,5,,,52,0
71465,note_off,185,0,1,,,,,,,,,1,,,79,0
71480,set_tempo,440,1,0,,,,,,495867,,,,,,,
71520,note_on,55,0,1,,,,,,,,,1,,,86,76
71520,set_tempo,40,1,0,,,,,,487804,,,,,,,
71640,note_on,0,0,1,,,,,,,,,1,,,82,76
71640,note_off,120,0,1,,,,,,,,,1,,,86,0
71760,note_on,0,0,1,,,,,,,,,1,,,86,75
71760,note_off,120,0,1,,,,,,,,,1,,,82,0
71880,note_on,0,0,1,,,,,,,,,1,,,82,75
71880,set_tempo,360,1,0,,,,,,500000,,,,,,,
71880,note_off,120,0,1,,,,,,,,,1,,,86,0
72000,note_on,0,0,1,,,,,,,,,1,,,81,75
72000,note_on,540,0,5,,,,,,,,,5,,,58,75
72000,note_on,540,0,4,,,,,,,,,4,,,64,75
72000,set_tempo,120,1,0,,,,,,487804,,,,,,,
72000,note_off,120,0,1,,,,,,,,,1,,,82,0
72120,note_off,120,0,1,,,,,,,,,1,,,81,0
72120,note_on,0,0,1,,,,,,,,,1,,,79,75
72240,note_on,0,0,1,,,,,,,,,1,,,81,75
72240,note_off,120,0,1,,,,,,,,,1,,,79,0
72360,note_on,0,0,1,,,,,,,,,1,,,79,74
72360,note_off,120,0,1,,,,,,,,,1,,,81,0
72480,note_on,0,0,1,,,,,,,,,1,,,78,74
72480,note_off,120,0,1,,,,,,,,,1,,,79,0
72600,note_off,120,0,1,,,,,,,,,1,,,78,0
72600,note_on,0,0,1,,,,,,,,,1,,,79,74
72720,note_on,0,0,1,,,,,,,,,1,,,81,74
72720,note_off,120,0,1,,,,,,,,,1,,,79,0
72840,note_on,0,0,1,,,,,,,,,1,,,82,73
72840,note_off,120,0,1,,,,,,,,,1,,,81,0
72900,set_tempo,900,1,0,,,,,,495867,,,,,,,
72960,note_on,0,0,4,,,,,,,,,4,,,65,63
72960,note_off,960,0,4,,,,,,,,,4,,,64,0
72960,note_on,0,0,1,,,,,,,,,1,,,86,73
72960,note_on,0,0,5,,,,,,,,,5,,,57,63
72960,note_off,960,0,5,,,,,,,,,5,,,58,0
72960,set_tempo,60,1,0,,,,,,487804,,,,,,,
72960,note_off,120,0,1,,,,,,,,,1,,,82,0
73080,note_on,0,0,1,,,,,,,,,1,,,84,73
73080,note_off,120,0,1,,,,,,,,,1,,,86,0
73200,note_off,120,0,1,,,,,,,,,1,,,84,0
73200,note_on,0,0,1,,,,,,,,,1,,,86,73
73320,note_off,120,0,1,,,,,,,,,1,,,86,0
73320,note_on,0,0,1,,,,,,,,,1,,,84,73
73440,note_off,120,0,1,,,,,,,,,1,,,84,0
73440,note_on,0,0,1,,,,,,,,,1,,,82,72
73440,note_off,480,0,5,,,,,,,,,5,,,57,0
73440,note_off,480,0,4,,,,,,,,,4,,,65,0
73560,note_off,120,0,1,,,,,,,,,1,,,82,0
73560,note_on,0,0,1,,,,,,,,,1,,,81,72
73680,note_off,120,0,1,,,,,,,,,1,,,81,0
73680,note_on,0,0,1,,,,,,,,,1,,,79,72
73800,note_off,120,0,1,,,,,,,,,1,,,79,0
73800,note_on,0,0,1,,,,,,,,,1,,,77,72
73800,set_tempo,840,1,0,,,,,,500000,,,,,,,
73920,set_tempo,120,1,0,,,,,,487804,,,,,,,
73920,note_on,0,0,1,,,,,,,,,1,,,79,71
73920,note_off,120,0,1,,,,,,,,,1,,,77,0
74100,note_off,180,0,1,,,,,,,,,1,,,79,0
74160,note_on,60,0,1,,,,,,,,,1,,,81,71
74160,note_on,720,0,5,,,,,,,,,5,,,58,85
74280,note_off,120,0,1,,,,,,,,,1,,,81,0
74280,note_on,0,0,1,,,,,,,,,1,,,82,71
74340,set_tempo,420,1,0,,,,,,495867,,,,,,,
74400,note_on,0,0,1,,,,,,,,,1,,,77,71
74400,note_on,0,0,5,,,,,,,,,5,,,60,71
74400,note_off,120,0,1,,,,,,,,,1,,,82,0
74400,note_off,240,0,5,,,,,,,,,5,,,58,0
74515,note_off,115,0,1,,,,,,,,,1,,,77,0
74520,note_off,120,0,5,,,,,,,,,5,,,60,0
74580,set_tempo,240,1,0,,,,,,500000,,,,,,,
74640,note_on,120,0,5,,,,,,,,,5,,,48,69
74640,note_on,125,0,1,,,,,,,,,1,,,76,69
74760,set_tempo,180,1,0,,,,,,517241,,,,,,,
74760,note_off,120,0,1,,,,,,,,,1,,,76,0
74760,note_off,120,0,5,,,,,,,,,5,,,48,0
74880,note_on,120,0,1,,,,,,,,,1,,,77,67
74930,set_tempo,170,1,0,,,,,,500000,,,,,,,
75065,note_off,185,0,1,,,,,,,,,1,,,77,0
75120,note_on,55,0,1,,,,,,,,,1,,,81,66
75360,note_off,240,0,1,,,,,,,,,1,,,81,0
75360,note_on,0,0,1,,,,,,,,,1,,,77,60
75600,note_off,240,0,1,,,,,,,,,1,,,77,0
75600,note_on,0,0,1,,,,,,,,,1,,,74,54
75730,set_tempo,800,1,0,,,,,,508474,,,,,,,
75840,note_off,240,0,1,,,,,,,,,1,,,74,0
75840,note_on,0,0,1,,,,,,,,,1,,,72,55
75890,set_tempo,160,1,0,,,,,,500000,,,,,,,
76080,note_on,1320,0,5,,,,,,,,,5,,,64,55
76320,note_off,240,0,5,,,,,,,,,5,,,64,0
76320,note_on,0,0,5,,,,,,,,,5,,,67,55
76560,note_off,240,0,5,,,,,,,,,5,,,67,0
76560,note_on,0,0,5,,,,,,,,,5,,,70,52
76740,set_tempo,850,1,0,,,,,,508474,,,,,,,
76800,note_on,0,0,5,,,,,,,,,5,,,69,50
76800,note_off,240,0,5,,,,,,,,,5,,,70,0
76800,note_on,0,0,5,,,,,,,,,5,,,65,50
76870,set_tempo,130,1,0,,,,,,500000,,,,,,,
76985,note_off,1145,0,1,,,,,,,,,1,,,72,0
77040,note_on,55,0,1,,,,,,,,,1,,,81,52
77280,note_off,0,0,5,,,,,,,,,5,,,69,0
77280,note_on,0,0,1,,,,,,,,,1,,,77,52
77280,note_off,240,0,1,,,,,,,,,1,,,81,0
77280,note_off,480,0,5,,,,,,,,,5,,,65,0
77520,note_on,0,0,1,,,,,,,,,1,,,74,51
77520,note_off,240,0,1,,,,,,,,,1,,,77,0
77640,set_tempo,770,1,0,,,,,,508474,,,,,,,
77760,note_on,0,0,1,,,,,,,,,1,,,72,51
77760,note_off,240,0,1,,,,,,,,,1,,,74,0
77820,set_tempo,180,1,0,,,,,,500000,,,,,,,
78000,note_on,720,0,5,,,,,,,,,5,,,64,50
78240,note_off,240,0,5,,,,,,,,,5,,,64,0
78240,note_on,0,0,5,,,,,,,,,5,,,67,50
78480,note_off,240,0,5,,,,,,,,,5,,,67,0
78480,note_on,0,0,5,,,,,,,,,5,,,70,48
78670,set_tempo,850,1,0,,,,,,508474,,,,,,,
78720,note_off,240,0,5,,,,,,,,,5,,,70,0
78720,note_on,0,0,5,,,,,,,,,5,,,69,46
78720,note_on,0,0,5,,,,,,,,,5,,,65,46
78780,set_tempo,110,1,0,,,,,,500000,,,,,,,
78905,note_off,1145,0,1,,,,,,,,,1,,,72,0
78960,note_on,55,0,1,,,,,,,,,1,,,81,48
79200,note_off,480,0,5,,,,,,,,,5,,,65,0
79200,note_off,0,0,5,,,,,,,,,5,,,69,0
79200,note_on,0,0,1,,,,,,,,,1,,,79,47
79200,note_off,240,0,1,,,,,,,,,1,,,81,0
79320,note_on,0,0,1,,,,,,,,,1,,,77,47
79320,note_off,120,0,1,,,,,,,,,1,,,79,0
79440,note_off,120,0,1,,,,,,,,,1,,,77,0
79440,note_on,0,0,1,,,,,,,,,1,,,76,47
79560,note_on,0,0,1,,,,,,,,,1,,,74,47
79560,note_off,120,0,1,,,,,,,,,1,,,76,0
79620,set_tempo,840,1,0,,,,,,508474,,,,,,,
79680,note_off,120,0,1,,,,,,,,,1,,,74,0
79680,note_on,0,0,1,,,,,,,,,1,,,72,46
79680,set_tempo,60,1,0,,,,,,500000,,,,,,,
79800,note_on,120,0,1,,,,,,,,,1,,,74,47
79824,note_off,24,0,1,,,,,,,,,1,,,72,0
79920,note_on,720,0,5,,,,,,,,,5,,,64,48
79920,note_on,96,0,1,,,,,,,,,1,,,72,48
79944,note_off,24,0,1,,,,,,,,,1,,,74,0
80040,note_on,96,0,1,,,,,,,,,1,,,74,50
80064,note_off,24,0,1,,,,,,,,,1,,,72,0
80160,note_on,0,0,5,,,,,,,,,5,,,67,51
80160,note_off,240,0,5,,,,,,,,,5,,,64,0
80160,note_on,96,0,1,,,,,,,,,1,,,72,51
80184,note_off,24,0,1,,,,,,,,,1,,,74,0
80280,note_on,96,0,1,,,,,,,,,1,,,74,52
80304,note_off,24,0,1,,,,,,,,,1,,,72,0
80400,note_on,96,0,1,,,,,,,,,1,,,72,53
80400,note_off,240,0,5,,,,,,,,,5,,,67,0
80400,note_on,0,0,5,,,,,,,,,5,,,70,53
80424,note_off,24,0,1,,,,,,,,,1,,,74,0
80520,note_on,96,0,1,,,,,,,,,1,,,74,54
80544,note_off,24,0,1,,,,,,,,,1,,,72,0
80640,note_off,240,0,5,,,,,,,,,5,,,70,0
80640,note_on,0,0,5,,,,,,,,,5,,,67,56
80640,note_on,96,0,1,,,,,,,,,1,,,72,56
80664,note_off,24,0,1,,,,,,,,,1,,,74,0
80760,note_on,96,0,1,,,,,,,,,1,,,74,57
80784,note_off,24,0,1,,,,,,,,,1,,,72,0
80880,note_on,0,0,5,,,,,,,,,5,,,64,58
80880,note_off,240,0,5,,,,,,,,,5,,,67,0
80880,note_on,96,0,1,,,,,,,,,1,,,72,58
80904,note_off,24,0,1,,,,,,,,,1,,,74,0
81000,note_on,96,0,1,,,,,,,,,1,,,74,59
81024,note_off,24,0,1,,,,,,,,,1,,,72,0
81120,note_on,96,0,1,,,,,,,,,1,,,72,61
81120,note_off,240,0,5,,,,,,,,,5,,,64,0
81120,note_on,0,0,5,,,,,,,,,5,,,67,61
81144,note_off,24,0,1,,,,,,,,,1,,,74,0
81240,note_on,96,0,1,,,,,,,,,1,,,74,62
81264,note_off,24,0,1,,,,,,,,,1,,,72,0
81360,note_on,96,0,1,,,,,,,,,1,,,72,63
81360,note_off,240,0,5,,,,,,,,,5,,,67,0
81360,note_on,0,0,5,,,,,,,,,5,,,70,63
81384,note_off,24,0,1,,,,,,,,,1,,,74,0
81480,note_on,96,0,1,,,,,,,,,1,,,74,64
81500,set_tempo,1820,1,0,,,,,,508474,,,,,,,
81504,note_off,24,0,1,,,,,,,,,1,,,72,0
81600,note_on,96,0,1,,,,,,,,,1,,,72,64
81600,note_on,0,0,5,,,,,,,,,5,,,69,64
81600,note_on,0,0,5,,,,,,,,,5,,,65,64
81600,set_tempo,100,1,0,,,,,,500000,,,,,,,
81600,note_off,240,0,5,,,,,,,,,5,,,70,0
81624,note_off,24,0,1,,,,,,,,,1,,,74,0
81720,note_on,96,0,1,,,,,,,,,1,,,74,66
81744,note_off,24,0,1,,,,,,,,,1,,,72,0
81840,note_on,96,0,1,,,,,,,,,1,,,72,68
81864,note_off,24,0,1,,,,,,,,,1,,,74,0
81960,note_on,96,0,1,,,,,,,,,1,,,74,70
81984,note_off,24,0,1,,,,,,,,,1,,,72,0
82080,note_on,96,0,1,,,,,,,,,1,,,72,72
82080,note_off,480,0,5,,,,,,,,,5,,,65,0
82080,note_off,0,0,5,,,,,,,,,5,,,69,0
82104,note_off,24,0,1,,,,,,,,,1,,,74,0
82200,note_on,96,0,1,,,,,,,,,1,,,81,74
82224,note_off,24,0,1,,,,,,,,,1,,,72,0
82320,note_off,96,0,1,,,,,,,,,1,,,81,0
82320,note_on,0,0,1,,,,,,,,,1,,,79,76
82440,note_off,120,0,1,,,,,,,,,1,,,79,0
82440,note_on,0,0,1,,,,,,,,,1,,,77,77
82500,set_tempo,900,1,0,,,,,,508474,,,,,,,
82560,note_on,0,0,5,,,,,,,,,5,,,60,79
82560,note_on,480,0,5,,,,,,,,,5,,,67,79
82560,note_off,120,0,1,,,,,,,,,1,,,77,0
82560,note_on,0,0,1,,,,,,,,,1,,,76,79
82560,set_tempo,60,1,0,,,,,,500000,,,,,,,
82680,note_on,120,0,1,,,,,,,,,1,,,77,81
82704,note_off,24,0,1,,,,,,,,,1,,,76,0
82800,note_on,96,0,1,,,,,,,,,1,,,76,83
82824,note_off,24,0,1,,,,,,,,,1,,,77,0
82920,note_on,96,0,1,,,,,,,,,1,,,77,85
82944,note_off,24,0,1,,,,,,,,,1,,,76,0
83034,set_tempo,474,1,0,,,,,,508474,,,,,,,
83040,note_off,480,0,5,,,,,,,,,5,,,60,0
83040,note_off,0,0,5,,,,,,,,,5,,,67,0
83040,note_on,96,0,1,,,,,,,,,1,,,76,87
83064,note_off,24,0,1,,,,,,,,,1,,,77,0
83160,note_on,0,0,1,,,,,,,,,1,,,82,89
83160,note_off,96,0,1,,,,,,,,,1,,,76,0
83280,note_on,0,0,1,,,,,,,,,1,,,81,91
83280,note_off,120,0,1,,,,,,,,,1,,,82,0
83340,set_tempo,306,1,0,,,,,,517241,,,,,,,
83400,note_off,120,0,1,,,,,,,,,1,,,81,0
83400,note_on,0,0,1,,,,,,,,,1,,,79,93
83460,set_tempo,120,1,0,,,,,,535714,,,,,,,
83520,note_off,120,0,1,,,,,,,,,1,,,79,0
83520,note_on,0,0,1,,,,,,,,,1,,,77,96
83520,note_on,480,0,5,,,,,,,,,5,,,65,96
83520,note_on,0,0,5,,,,,,,,,5,,,57,96
84000,note_off,480,0,1,,,,,,,,,1,,,77,0
84000,note_off,480,0,5,,,,,,,,,5,,,57,0
84000,set_tempo,540,1,0,,,,,,540540,,,,,,,
84000,note_off,0,0,5,,,,,,,,,5,,,65,0
84480,note_on,0,0,2,,,,,,,,,2,,,82,94
84480,note_on,48960,0,2,,,,,,,,,2,,,79,94
84480,note_on,0,0,5,,,,,,,,,5,,,48,94
84480,note_on,480,0,5,,,,,,,,,5,,,60,94
84480,note_on,480,0,1,,,,,,,,,1,,,88,94
84960,note_off,0,0,2,,,,,,,,,2,,,79,0
84960,note_off,480,0,2,,,,,,,,,2,,,82,0
84960,note_off,480,0,5,,,,,,,,,5,,,48,0
84960,note_off,0,0,5,,,,,,,,,5,,,60,0
84960,set_tempo,960,1,0,,,,,,625000,,,,,,,
84960,note_off,480,0,1,,,,,,,,,1,,,88,0
85440,note_on,480,0,5,,,,,,,,,5,,,53,91
85440,note_on,0,0,5,,,,,,,,,5,,,41,91
85440,set_tempo,480,1,0,,,,,,659340,,,,,,,
85440,note_on,480,0,2,,,,,,,,,2,,,81,91
85440,note_on,12000,0,4,,,,,,,,,4,,,65,91
85440,note_on,480,0,1,,,,,,,,,1,,,89,91
85920,note_off,0,0,5,,,,,,,,,5,,,53,0
85920,note_off,480,0,4,,,,,,,,,4,,,65,0
85920,note_off,480,0,2,,,,,,,,,2,,,81,0
85920,note_off,480,0,1,,,,,,,,,1,,,89,0
85920,note_off,480,0,5,,,,,,,,,5,,,41,0
86400,set_tempo,960,1,0,,,,,,1818181,,,,,,,
87360,control_change,1440,0,5,,,,,,,64,0,5,,,,
87360,control_change,0,0,5,,,,,,,64,0,5,,,,
87360,note_on,0,0,5,,,,,,,,,5,,,57,42
87360,marker,0,1,0,,,,,,,,,,,,,
87360,set_tempo,960,1,0,,,,,,508474,,,,,,,
87360,control_change,0,0,4,,,,,,,64,0,4,,,,
87360,control_change,0,0,1,,,,,,,64,0,1,,,,
87360,control_change,0,0,2,,,,,,,64,0,2,,,,
87360,control_change,1440,0,4,,,,,,,64,0,4,,,,
87360,control_change,1440,0,2,,,,,,,64,0,2,,,,
87360,control_change,1440,0,1,,,,,,,64,0,1,,,,
87360,note_on,0,0,1,,,,,,,,,1,,,72,42
87480,note_off,120,0,1,,,,,,,,,1,,,72,0
87480,note_off,120,0,5,,,,,,,,,5,,,57,0
87600,note_on,120,0,1,,,,,,,,,1,,,77,43
87600,note_on,120,0,5,,,,,,,,,5,,,53,43
87720,note_off,120,0,1,,,,,,,,,1,,,77,0
87720,note_off,120,0,5,,,,,,,,,5,,,53,0
87840,note_on,120,0,5,,,,,,,,,5,,,56,43
87840,note_on,120,0,1,,,,,,,,,1,,,71,43
87960,note_off,120,0,5,,,,,,,,,5,,,56,0
87960,note_off,120,0,1,,,,,,,,,1,,,71,0
88080,note_on,120,0,1,,,,,,,,,1,,,77,44
88080,note_on,120,0,5,,,,,,,,,5,,,53,44
88200,note_off,120,0,5,,,,,,,,,5,,,53,0
88200,note_off,120,0,1,,,,,,,,,1,,,77,0
88260,set_tempo,900,1,0,,,,,,517241,,,,,,,
88320,note_on,120,0,5,,,,,,,,,5,,,57,45
88320,note_on,120,0,1,,,,,,,,,1,,,72,45
88320,set_tempo,60,1,0,,,,,,508474,,,,,,,
88440,note_off,120,0,5,,,,,,,,,5,,,57,0
88560,note_on,120,0,5,,,,,,,,,5,,,53,47
88680,note_off,120,0,5,,,,,,,,,5,,,53,0
88800,note_on,120,0,5,,,,,,,,,5,,,57,49
88920,note_off,120,0,5,,,,,,,,,5,,,57,0
89040,note_off,720,0,1,,,,,,,,,1,,,72,0
89040,note_on,120,0,5,,,,,,,,,5,,,53,56
89040,note_on,0,0,1,,,,,,,,,1,,,73,54
89280,note_off,240,0,1,,,,,,,,,1,,,73,0
89280,note_on,0,0,1,,,,,,,,,1,,,74,53
89280,note_on,0,0,5,,,,,,,,,5,,,58,53
89280,note_off,240,0,5,,,,,,,,,5,,,53,0
89400,note_off,120,0,1,,,,,,,,,1,,,74,0
89400,note_off,120,0,5,,,,,,,,,5,,,58,0
89520,note_on,120,0,1,,,,,,,,,1,,,77,53
89520,note_on,120,0,5,,,,,,,,,5,,,53,53
89640,note_off,120,0,1,,,,,,,,,1,,,77,0
89640,note_off,120,0,5,,,,,,,,,5,,,53,0
89760,note_on,120,0,5,,,,,,,,,5,,,57,55
89760,note_on,120,0,1,,,,,,,,,1,,,73,55
89880,note_off,120,0,1,,,,,,,,,1,,,73,0
89880,note_off,120,0,5,,,,,,,,,5,,,57,0
90000,note_on,120,0,5,,,,,,,,,5,,,53,58
90000,note_on,120,0,1,,,,,,,,,1,,,77,58
90120,note_off,120,0,1,,,,,,,,,1,,,77,0
90120,note_off,120,0,5,,,,,,,,,5,,,53,0
90180,set_tempo,1860,1,0,,,,,,517241,,,,,,,
90240,set_tempo,60,1,0,,,,,,508474,,,,,,,
90240,note_on,120,0,1,,,,,,,,,1,,,74,61
90240,note_on,120,0,5,,,,,,,,,5,,,58,61
90360,note_off,120,0,5,,,,,,,,,5,,,58,0
90480,note_on,120,0,5,,,,,,,,,5,,,53,65
90600,note_off,120,0,5,,,,,,,,,5,,,53,0
90720,note_on,120,0,5,,,,,,,,,5,,,58,68
90840,note_off,120,0,5,,,,,,,,,5,,,58,0
90960,note_on,0,0,1,,,,,,,,,1,,,79,67
90960,note_off,720,0,1,,,,,,,,,1,,,74,0
90960,note_on,120,0,5,,,,,,,,,5,,,53,76
91020,note_off,60,0,1,,,,,,,,,1,,,79,0
91020,note_on,0,0,1,,,,,,,,,1,,,77,69
91080,note_on,0,0,1,,,,,,,,,1,,,76,71
91080,note_off,60,0,1,,,,,,,,,1,,,77,0
91140,note_on,0,0,1,,,,,,,,,1,,,77,73
91140,note_off,60,0,1,,,,,,,,,1,,,76,0
91200,note_on,0,0,1,,,,,,,,,1,,,76,74
91200,note_off,60,0,1,,,,,,,,,1,,,77,0
91200,note_off,240,0,5,,,,,,,,,5,,,53,0
91200,note_on,0,0,5,,,,,,,,,5,,,55,74
91200,note_on,3840,0,4,,,,,,,,,4,,,58,74
91320,note_off,120,0,5,,,,,,,,,5,,,55,0
91320,note_off,120,0,4,,,,,,,,,4,,,58,0
91440,note_on,0,0,1,,,,,,,,,1,,,84,76
91440,note_off,240,0,1,,,,,,,,,1,,,76,0
91440,note_on,120,0,5,,,,,,,,,5,,,48,76
91560,note_off,120,0,5,,,,,,,,,5,,,48,0
91560,note_off,120,0,1,,,,,,,,,1,,,84,0
91680,note_on,120,0,1,,,,,,,,,1,,,84,79
91680,note_on,120,0,5,,,,,,,,,5,,,55,79
91680,note_on,360,0,4,,,,,,,,,4,,,58,79
91800,note_off,120,0,1,,,,,,,,,1,,,84,0
91800,note_off,120,0,5,,,,,,,,,5,,,55,0
91800,note_off,120,0,4,,,,,,,,,4,,,58,0
91920,note_on,120,0,5,,,,,,,,,5,,,48,82
91920,note_on,120,0,1,,,,,,,,,1,,,84,82
92040,set_tempo,1800,1,0,,,,,,517241,,,,,,,
92040,note_off,120,0,1,,,,,,,,,1,,,84,0
92040,note_off,120,0,5,,,,,,,,,5,,,48,0
92160,note_on,120,0,1,,,,,,,,,1,,,84,86
92160,note_on,360,0,4,,,,,,,,,4,,,57,86
92160,note_on,120,0,5,,,,,,,,,5,,,53,86
92160,set_tempo,120,1,0,,,,,,508474,,,,,,,
92280,note_off,120,0,4,,,,,,,,,4,,,57,0
92280,note_off,120,0,5,,,,,,,,,5,,,53,0
92400,note_on,120,0,5,,,,,,,,,5,,,48,85
92520,note_off,120,0,5,,,,,,,,,5,,,48,0
92640,note_on,120,0,5,,,,,,,,,5,,,53,82
92640,note_on,360,0,4,,,,,,,,,4,,,57,82
92640,note_off,480,0,1,,,,,,,,,1,,,84,0
92640,note_on,0,0,1,,,,,,,,,1,,,81,82
92760,note_off,120,0,5,,,,,,,,,5,,,53,0
92760,note_off,120,0,4,,,,,,,,,4,,,57,0
92760,note_off,120,0,1,,,,,,,,,1,,,81,0
92760,note_on,0,0,1,,,,,,,,,1,,,77,81
92880,note_on,120,0,5,,,,,,,,,5,,,48,80
92880,note_off,120,0,1,,,,,,,,,1,,,77,0
92880,note_on,0,0,1,,,,,,,,,1,,,81,80
93000,note_on,0,0,1,,,,,,,,,1,,,84,79
93000,note_off,120,0,1,,,,,,,,,1,,,81,0
93000,set_tempo,840,1,0,,,,,,517241,,,,,,,
93000,note_off,120,0,5,,,,,,,,,5,,,48,0
93120,note_off,120,0,1,,,,,,,,,1,,,84,0
93120,note_on,0,0,1,,,,,,,,,1,,,82,78
93120,note_on,120,0,5,,,,,,,,,5,,,52,79
93120,note_on,360,0,4,,,,,,,,,4,,,55,79
93240,note_off,120,0,4,,,,,,,,,4,,,55,0
93240,note_off,120,0,5,,,,,,,,,5,,,52,0
93276,note_off,156,0,1,,,,,,,,,1,,,82,0
93360,note_on,120,0,5,,,,,,,,,5,,,48,75
93360,note_on,84,0,1,,,,,,,,,1,,,79,76
93480,note_off,120,0,1,,,,,,,,,1,,,79,0
93480,note_on,0,0,1,,,,,,,,,1,,,82,75
93480,note_off,120,0,5,,,,,,,,,5,,,48,0
93600,note_on,0,0,1,,,,,,,,,1,,,81,74
93600,note_off,120,0,1,,,,,,,,,1,,,82,0
93600,note_on,120,0,5,,,,,,,,,5,,,53,71
93600,note_on,360,0,4,,,,,,,,,4,,,57,71
93720,note_off,120,0,4,,,,,,,,,4,,,57,0
93720,note_off,120,0,5,,,,,,,,,5,,,53,0
93756,note_off,156,0,1,,,,,,,,,1,,,81,0
93840,note_on,120,0,5,,,,,,,,,5,,,48,67
93840,note_on,84,0,1,,,,,,,,,1,,,77,72
93960,note_off,120,0,1,,,,,,,,,1,,,77,0
93960,note_on,0,0,1,,,,,,,,,1,,,81,71
93960,set_tempo,960,1,0,,,,,,517241,,,,,,,
93960,note_off,120,0,5,,,,,,,,,5,,,48,0
94080,control_change,120,0,5,,,,,,,64,127,5,,,,
94080,note_on,0,0,5,,,,,,,,,5,,,48,63
94080,set_tempo,120,1,0,,,,,,408163,,,,,,,
94080,note_off,120,0,1,,,,,,,,,1,,,81,0
94120,note_on,40,0,5,,,,,,,,,5,,,52,62
94160,note_on,40,0,5,,,,,,,,,5,,,55,61
94200,note_on,40,0,5,,,,,,,,,5,,,60,60
94240,note_on,160,0,1,,,,,,,,,1,,,79,67
94260,set_tempo,180,1,0,,,,,,2068965,,,,,,,
94320,set_tempo,60,1,0,,,,,,517241,,,,,,,
94320,note_on,80,0,1,,,,,,,,,1,,,81,65
94335,note_off,15,0,1,,,,,,,,,1,,,79,0
94440,note_on,0,0,1,,,,,,,,,1,,,79,62
94440,note_off,105,0,1,,,,,,,,,1,,,81,0
94555,note_off,355,0,5,,,,,,,,,5,,,52,0
94560,note_off,0,0,5,,,,,,,,,5,,,60,0
94560,note_on,0,0,1,,,,,,,,,1,,,77,59
94560,note_off,120,0,1,,,,,,,,,1,,,79,0
94560,control_change,5,0,5,,,,,,,64,0,5,,,,
94560,note_off,0,0,5,,,,,,,,,5,,,48,0
94565,note_off,5,0,5,,,,,,,,,5,,,55,0
94680,note_off,120,0,1,,,,,,,,,1,,,77,0
94680,note_on,0,0,1,,,,,,,,,1,,,76,56
94800,note_off,120,0,1,,,,,,,,,1,,,76,0
94800,note_on,0,0,1,,,,,,,,,1,,,74,54
94910,set_tempo,590,1,0,,,,,,540540,,,,,,,
94920,note_on,0,0,1,,,,,,,,,1,,,72,51
94920,note_off,120,0,1,,,,,,,,,1,,,74,0
95040,note_on,0,0,1,,,,,,,,,1,,,72,46
95040,set_tempo,130,1,0,,,,,,508474,,,,,,,
95040,note_off,120,0,1,,,,,,,,,1,,,72,0
95040,note_on,475,0,5,,,,,,,,,5,,,57,46
95160,note_off,120,0,5,,,,,,,,,5,,,57,0
95160,note_off,120,0,1,,,,,,,,,1,,,72,0
95280,note_on,120,0,5,,,,,,,,,5,,,53,48
95280,note_on,120,0,1,,,,,,,,,1,,,77,48
95400,note_off,120,0,1,,,,,,,,,1,,,77,0
95400,note_off,120,0,5,,,,,,,,,5,,,53,0
95520,note_on,120,0,5,,,,,,,,,5,,,56,49
95520,note_on,120,0,1,,,,,,,,,1,,,71,49
95640,note_off,120,0,5,,,,,,,,,5,,,56,0
95640,note_off,120,0,1,,,,,,,,,1,,,71,0
95760,note_on,120,0,5,,,,,,,,,5,,,53,51
95760,note_on,120,0,1,,,,,,,,,1,,,77,51
95880,note_off,120,0,1,,,,,,,,,1,,,77,0
95880,note_off,120,0,5,,,,,,,,,5,,,53,0
95940,set_tempo,900,1,0,,,,,,517241,,,,,,,
96000,note_on,120,0,5,,,,,,,,,5,,,57,52
96000,set_tempo,60,1,0,,,,,,508474,,,,,,,
96000,note_on,120,0,1,,,,,,,,,1,,,72,52
96120,note_off,120,0,5,,,,,,,,,5,,,57,0
96240,note_on,120,0,5,,,,,,,,,5,,,53,54
96360,note_off,120,0,5,,,,,,,,,5,,,53,0
96480,note_on,120,0,5,,,,,,,,,5,,,57,56
96600,note_off,120,0,5,,,,,,,,,5,,,57,0
96720,note_off,720,0,1,,,,,,,,,1,,,72,0
96720,note_on,0,0,1,,,,,,,,,1,,,73,62
96720,note_on,120,0,5,,,,,,,,,5,,,53,62
96960,note_on,0,0,1,,,,,,,,,1,,,74,59
96960,note_off,240,0,1,,,,,,,,,1,,,73,0
96960,note_on,0,0,5,,,,,,,,,5,,,58,59
96960,note_off,240,0,5,,,,,,,,,5,,,53,0
97080,note_off,120,0,5,,,,,,,,,5,,,58,0
97080,note_off,120,0,1,,,,,,,,,1,,,74,0
97200,note_on,120,0,5,,,,,,,,,5,,,53,61
97200,note_on,120,0,1,,,,,,,,,1,,,77,61
97320,note_off,120,0,5,,,,,,,,,5,,,53,0
97320,note_off,120,0,1,,,,,,,,,1,,,77,0
97440,note_on,120,0,5,,,,,,,,,5,,,57,62
97440,note_on,120,0,1,,,,,,,,,1,,,73,62
97560,note_off,120,0,5,,,,,,,,,5,,,57,0
97560,note_off,120,0,1,,,,,,,,,1,,,73,0
97680,note_on,120,0,1,,,,,,,,,1,,,77,64
97680,note_on,120,0,5,,,,,,,,,5,,,53,64
97800,note_off,120,0,1,,,,,,,,,1,,,77,0
97800,note_off,120,0,5,,,,,,,,,5,,,53,0
97860,set_tempo,1860,1,0,,,,,,517241,,,,,,,
97920,set_tempo,60,1,0,,,,,,508474,,,,,,,
97920,note_on,120,0,5,,,,,,,,,5,,,58,66
97920,note_on,120,0,1,,,,,,,,,1,,,74,66
98040,note_off,120,0,5,,,,,,,,,5,,,58,0
98160,note_on,120,0,5,,,,,,,,,5,,,53,67
98280,note_off,120,0,5,,,,,,,,,5,,,53,0
98400,note_on,120,0,5,,,,,,,,,5,,,58,69
98520,note_off,120,0,5,,,,,,,,,5,,,58,0
98640,note_off,720,0,1,,,,,,,,,1,,,74,0
98640,note_on,120,0,5,,,,,,,,,5,,,53,79
98640,note_on,0,0,1,,,,,,,,,1,,,79,68
98700,note_on,0,0,1,,,,,,,,,1,,,77,70
98700,note_off,60,0,1,,,,,,,,,1,,,79,0
98760,note_off,60,0,1,,,,,,,,,1,,,77,0
98760,note_on,0,0,1,,,,,,,,,1,,,76,71
98820,note_off,60,0,1,,,,,,,,,1,,,76,0
98820,note_on,0,0,1,,,,,,,,,1,,,77,73
98880,note_on,5160,0,4,,,,,,,,,4,,,58,74
98880,note_on,0,0,5,,,,,,,,,5,,,55,74
98880,note_off,240,0,5,,,,,,,,,5,,,53,0
98880,note_off,60,0,1,,,,,,,,,1,,,77,0
98880,note_on,0,0,1,,,,,,,,,1,,,76,74
99000,note_off,120,0,5,,,,,,,,,5,,,55,0
99000,note_off,120,0,4,,,,,,,,,4,,,58,0
99120,note_off,240,0,1,,,,,,,,,1,,,76,0
99120,note_on,0,0,1,,,,,,,,,1,,,84,75
99120,note_on,120,0,5,,,,,,,,,5,,,48,75
99240,note_off,120,0,5,,,,,,,,,5,,,48,0
99240,note_off,120,0,1,,,,,,,,,1,,,84,0
99360,note_on,120,0,1,,,,,,,,,1,,,84,77
99360,note_on,120,0,5,,,,,,,,,5,,,55,77
99360,note_on,360,0,4,,,,,,,,,4,,,58,77
99480,note_off,120,0,5,,,,,,,,,5,,,55,0
99480,note_off,120,0,4,,,,,,,,,4,,,58,0
99480,note_off,120,0,1,,,,,,,,,1,,,84,0
99600,note_on,120,0,5,,,,,,,,,5,,,48,79
99600,note_on,120,0,1,,,,,,,,,1,,,84,79
99720,note_off,120,0,5,,,,,,,,,5,,,48,0
99720,note_off,120,0,1,,,,,,,,,1,,,84,0
99727,set_tempo,1807,1,0,,,,,,517241,,,,,,,
99840,note_on,120,0,5,,,,,,,,,5,,,53,83
99840,note_on,360,0,4,,,,,,,,,4,,,57,83
99840,note_on,120,0,1,,,,,,,,,1,,,84,83
100320,note_off,480,0,5,,,,,,,,,5,,,53,0
100320,note_off,480,0,4,,,,,,,,,4,,,57,0
100320,note_off,480,0,1,,,,,,,,,1,,,84,0
100320,note_on,0,0,1,,,,,,,,,1,,,82,79
100440,note_on,0,0,1,,,,,,,,,1,,,81,77
100440,note_off,120,0,1,,,,,,,,,1,,,82,0
100560,note_on,0,0,1,,,,,,,,,1,,,79,76
100560,note_off,120,0,1,,,,,,,,,1,,,81,0
100680,note_on,0,0,1,,,,,,,,,1,,,77,74
100680,note_off,120,0,1,,,,,,,,,1,,,79,0
100710,set_tempo,983,1,0,,,,,,526315,,,,,,,
100800,note_on,0,0,1,,,,,,,,,1,,,79,75
100800,note_off,120,0,1,,,,,,,,,1,,,77,0
100800,note_on,480,0,5,,,,,,,,,5,,,58,73
100920,note_off,120,0,5,,,,,,,,,5,,,58,0
100956,note_off,156,0,1,,,,,,,,,1,,,79,0
101040,note_on,84,0,1,,,,,,,,,1,,,79,71
101040,note_on,720,0,4,,,,,,,,,4,,,62,69
101160,note_on,0,0,1,,,,,,,,,1,,,82,69
101160,note_off,120,0,1,,,,,,,,,1,,,79,0
101160,note_off,120,0,4,,,,,,,,,4,,,62,0
101280,note_on,360,0,5,,,,,,,,,5,,,48,65
101280,note_on,0,0,1,,,,,,,,,1,,,76,68
101280,note_off,120,0,1,,,,,,,,,1,,,82,0
101280,note_on,120,0,4,,,,,,,,,4,,,55,65
101400,note_off,120,0,5,,,,,,,,,5,,,48,0
101400,note_off,120,0,4,,,,,,,,,4,,,55,0
101436,note_off,156,0,1,,,,,,,,,1,,,76,0
101520,note_on,120,0,4,,,,,,,,,4,,,58,60
101520,note_on,84,0,1,,,,,,,,,1,,,76,64
101640,note_off,120,0,4,,,,,,,,,4,,,58,0
101640,note_on,0,0,1,,,,,,,,,1,,,79,62
101640,note_off,120,0,1,,,,,,,,,1,,,76,0
101760,note_on,360,0,5,,,,,,,,,5,,,53,58
101760,note_on,120,0,4,,,,,,,,,4,,,57,58
101760,note_on,0,0,1,,,,,,,,,1,,,77,60
101760,note_off,120,0,1,,,,,,,,,1,,,79,0
101760,set_tempo,1050,1,0,,,,,,535714,,,,,,,
101880,note_off,120,0,4,,,,,,,,,4,,,57,0
101880,note_off,120,0,5,,,,,,,,,5,,,53,0
102000,note_on,120,0,4,,,,,,,,,4,,,60,51
102096,note_off,96,0,4,,,,,,,,,4,,,60,0
102240,note_off,480,0,1,,,,,,,,,1,,,77,0
102240,note_on,360,0,5,,,,,,,,,5,,,53,41
102240,note_on,144,0,4,,,,,,,,,4,,,57,41
102240,set_tempo,480,1,0,,,,,,550458,,,,,,,
102336,note_off,96,0,4,,,,,,,,,4,,,57,0
102336,note_off,96,0,5,,,,,,,,,5,,,53,0
102720,control_change,384,0,5,,,,,,,64,0,5,,,,
102720,control_change,15360,0,2,,,,,,,64,0,2,,,,
102720,note_on,0,0,5,,,,,,,,,5,,,60,43
102720,note_on,0,0,4,,,,,,,,,4,,,64,43
102720,control_change,384,0,4,,,,,,,64,0,4,,,,
102720,note_on,0,0,1,,,,,,,,,1,,,79,43
102720,control_change,480,0,1,,,,,,,64,0,1,,,,
102720,set_tempo,480,1,0,,,,,,517241,,,,,,,
102840,note_off,120,0,5,,,,,,,,,5,,,60,0
102840,note_off,120,0,4,,,,,,,,,4,,,64,0
102840,note_off,120,0,1,,,,,,,,,1,,,79,0
102960,note_on,120,0,1,,,,,,,,,1,,,79,45
102960,note_on,120,0,5,,,,,,,,,5,,,60,45
102960,note_on,120,0,4,,,,,,,,,4,,,64,45
103080,note_off,120,0,1,,,,,,,,,1,,,79,0
103080,note_off,120,0,5,,,,,,,,,5,,,60,0
103080,note_off,120,0,4,,,,,,,,,4,,,64,0
103200,note_on,120,0,4,,,,,,,,,4,,,63,47
103200,note_on,120,0,5,,,,,,,,,5,,,60,47
103200,note_on,120,0,1,,,,,,,,,1,,,78,47
103320,note_off,120,0,1,,,,,,,,,1,,,78,0
103320,note_off,120,0,4,,,,,,,,,4,,,63,0
103320,note_off,120,0,5,,,,,,,,,5,,,60,0
103440,note_on,120,0,4,,,,,,,,,4,,,63,49
103440,note_on,120,0,5,,,,,,,,,5,,,60,49
103440,note_on,120,0,1,,,,,,,,,1,,,78,49
103560,note_off,120,0,4,,,,,,,,,4,,,63,0
103560,note_off,120,0,5,,,,,,,,,5,,,60,0
103560,note_off,120,0,1,,,,,,,,,1,,,78,0
103680,note_on,120,0,4,,,,,,,,,4,,,64,51
103680,note_on,120,0,1,,,,,,,,,1,,,79,51
103680,note_on,120,0,5,,,,,,,,,5,,,60,51
103920,note_off,240,0,1,,,,,,,,,1,,,79,0
103920,note_on,0,0,1,,,,,,,,,1,,,81,49
104040,note_off,120,0,1,,,,,,,,,1,,,81,0
104040,note_on,0,0,1,,,,,,,,,1,,,83,48
104160,note_off,480,0,5,,,,,,,,,5,,,60,0
104160,note_off,480,0,4,,,,,,,,,4,,,64,0
104160,note_off,120,0,1,,,,,,,,,1,,,83,0
104160,note_on,0,0,1,,,,,,,,,1,,,84,46
104280,note_off,120,0,1,,,,,,,,,1,,,84,0
104280,note_on,0,0,1,,,,,,,,,1,,,83,45
104400,note_off,120,0,1,,,,,,,,,1,,,83,0
104400,note_on,0,0,1,,,,,,,,,1,,,81,44
104520,note_on,0,0,1,,,,,,,,,1,,,79,42
104520,note_off,120,0,1,,,,,,,,,1,,,81,0
104580,set_tempo,1860,1,0,,,,,,526315,,,,,,,
104640,note_on,480,0,4,,,,,,,,,4,,,62,42
104640,note_on,0,0,1,,,,,,,,,1,,,77,42
104640,note_off,120,0,1,,,,,,,,,1,,,79,0
104640,set_tempo,60,1,0,,,,,,517241,,,,,,,
104640,note_on,480,0,5,,,,,,,,,5,,,55,42
104760,note_off,120,0,4,,,,,,,,,4,,,62,0
104760,note_off,120,0,1,,,,,,,,,1,,,77,0
104760,note_off,120,0,5,,,,,,,,,5,,,55,0
104880,note_on,120,0,4,,,,,,,,,4,,,62,43
104880,note_on,120,0,1,,,,,,,,,1,,,77,43
104880,note_on,120,0,5,,,,,,,,,5,,,55,43
105000,note_off,120,0,1,,,,,,,,,1,,,77,0
105000,note_off,120,0,5,,,,,,,,,5,,,55,0
105000,note_off,120,0,4,,,,,,,,,4,,,62,0
105120,note_on,120,0,5,,,,,,,,,5,,,55,44
105120,note_on,120,0,4,,,,,,,,,4,,,61,44
105120,note_on,120,0,1,,,,,,,,,1,,,76,44
105240,note_off,120,0,5,,,,,,,,,5,,,55,0
105240,note_off,120,0,4,,,,,,,,,4,,,61,0
105240,note_off,120,0,1,,,,,,,,,1,,,76,0
105360,note_on,120,0,5,,,,,,,,,5,,,55,46
105360,note_on,120,0,4,,,,,,,,,4,,,61,46
105360,note_on,120,0,1,,,,,,,,,1,,,76,46
105480,note_off,120,0,5,,,,,,,,,5,,,55,0
105480,note_off,120,0,1,,,,,,,,,1,,,76,0
105480,note_off,120,0,4,,,,,,,,,4,,,61,0
105600,note_on,120,0,4,,,,,,,,,4,,,62,48
105600,note_on,120,0,5,,,,,,,,,5,,,55,48
105600,note_on,120,0,1,,,,,,,,,1,,,77,48
105840,note_off,240,0,1,,,,,,,,,1,,,77,0
105840,note_on,0,0,1,,,,,,,,,1,,,83,48
105960,note_off,120,0,1,,,,,,,,,1,,,83,0
105960,note_on,0,0,1,,,,,,,,,1,,,84,47
106080,note_off,480,0,5,,,,,,,,,5,,,55,0
106080,note_off,120,0,1,,,,,,,,,1,,,84,0
106080,note_on,0,0,1,,,,,,,,,1,,,86,47
106080,note_off,480,0,4,,,,,,,,,4,,,62,0
106200,note_off,120,0,1,,,,,,,,,1,,,86,0
106200,note_on,0,0,1,,,,,,,,,1,,,83,46
106320,note_off,120,0,1,,,,,,,,,1,,,83,0
106320,note_on,0,0,1,,,,,,,,,1,,,79,45
106440,note_on,0,0,1,,,,,,,,,1,,,77,45
106440,note_off,120,0,1,,,,,,,,,1,,,79,0
106500,set_tempo,1860,1,0,,,,,,526315,,,,,,,
106560,set_tempo,60,1,0,,,,,,517241,,,,,,,
106560,note_on,480,0,5,,,,,,,,,5,,,60,44
106560,note_on,480,0,4,,,,,,,,,4,,,64,44
106560,note_off,120,0,1,,,,,,,,,1,,,77,0
106560,note_on,0,0,1,,,,,,,,,1,,,76,44
106680,note_off,120,0,1,,,,,,,,,1,,,76,0
106680,note_on,0,0,1,,,,,,,,,1,,,79,45
106800,note_off,120,0,1,,,,,,,,,1,,,79,0
106800,note_on,0,0,1,,,,,,,,,1,,,81,47
106920,note_off,120,0,1,,,,,,,,,1,,,81,0
106920,note_on,0,0,1,,,,,,,,,1,,,79,48
107040,note_on,0,0,1,,,,,,,,,1,,,84,49
107040,note_off,120,0,1,,,,,,,,,1,,,79,0
107160,note_on,0,0,1,,,,,,,,,1,,,83,50
107160,note_off,120,0,1,,,,,,,,,1,,,84,0
107280,note_off,120,0,1,,,,,,,,,1,,,83,0
107280,note_on,0,0,1,,,,,,,,,1,,,81,51
107400,note_off,120,0,1,,,,,,,,,1,,,81,0
107400,note_on,0,0,1,,,,,,,,,1,,,79,52
107520,note_off,960,0,5,,,,,,,,,5,,,60,0
107520,note_off,960,0,4,,,,,,,,,4,,,64,0
107520,note_on,0,0,1,,,,,,,,,1,,,77,53
107520,note_on,0,0,5,,,,,,,,,5,,,55,53
107520,note_on,0,0,4,,,,,,,,,4,,,62,53
107520,note_off,120,0,1,,,,,,,,,1,,,79,0
107640,note_off,120,0,1,,,,,,,,,1,,,77,0
107640,note_on,0,0,1,,,,,,,,,1,,,83,55
107760,note_off,120,0,1,,,,,,,,,1,,,83,0
107760,note_on,0,0,1,,,,,,,,,1,,,86,56
107880,note_off,120,0,1,,,,,,,,,1,,,86,0
107880,note_on,0,0,1,,,,,,,,,1,,,84,57
108000,note_off,120,0,1,,,,,,,,,1,,,84,0
108000,note_on,0,0,1,,,,,,,,,1,,,83,58
108120,note_on,0,0,1,,,,,,,,,1,,,81,59
108120,note_off,120,0,1,,,,,,,,,1,,,83,0
108240,note_off,120,0,1,,,,,,,,,1,,,81,0
108240,note_on,0,0,1,,,,,,,,,1,,,79,60
108360,note_off,120,0,1,,,,,,,,,1,,,79,0
108360,note_on,0,0,1,,,,,,,,,1,,,77,62
108420,set_tempo,1860,1,0,,,,,,526315,,,,,,,
108480,note_off,960,0,4,,,,,,,,,4,,,62,0
108480,set_tempo,60,1,0,,,,,,517241,,,,,,,
108480,note_on,0,0,5,,,,,,,,,5,,,60,63
108480,note_off,960,0,5,,,,,,,,,5,,,55,0
108480,note_off,120,0,1,,,,,,,,,1,,,77,0
108480,note_on,0,0,1,,,,,,,,,1,,,76,63
108480,note_on,0,0,4,,,,,,,,,4,,,64,63
108600,note_on,0,0,1,,,,,,,,,1,,,79,64
108600,note_off,120,0,1,,,,,,,,,1,,,76,0
108720,note_off,120,0,1,,,,,,,,,1,,,79,0
108720,note_on,0,0,1,,,,,,,,,1,,,81,65
108840,note_off,120,0,1,,,,,,,,,1,,,81,0
108840,note_on,0,0,1,,,,,,,,,1,,,79,66
108960,note_off,120,0,1,,,,,,,,,1,,,79,0
108960,note_on,0,0,1,,,,,,,,,1,,,84,67
109080,note_off,120,0,1,,,,,,,,,1,,,84,0
109080,note_on,0,0,1,,,,,,,,,1,,,83,69
109200,note_on,0,0,1,,,,,,,,,1,,,81,70
109200,note_off,120,0,1,,,,,,,,,1,,,83,0
109320,note_off,120,0,1,,,,,,,,,1,,,81,0
109320,note_on,0,0,1,,,,,,,,,1,,,79,71
109440,note_on,0,0,1,,,,,,,,,1,,,77,72
109440,note_off,960,0,4,,,,,,,,,4,,,64,0
109440,note_on,0,0,4,,,,,,,,,4,,,62,72
109440,note_off,120,0,1,,,,,,,,,1,,,79,0
109440,note_off,960,0,5,,,,,,,,,5,,,60,0
109440,note_on,0,0,5,,,,,,,,,5,,,55,72
109560,note_off,120,0,1,,,,,,,,,1,,,77,0
109560,note_on,0,0,1,,,,,,,,,1,,,83,73
109680,note_off,120,0,1,,,,,,,,,1,,,83,0
109680,note_on,0,0,1,,,,,,,,,1,,,86,74
109800,note_on,0,0,1,,,,,,,,,1,,,84,76
109800,note_off,120,0,1,,,,,,,,,1,,,86,0
109920,note_on,0,0,1,,,,,,,,,1,,,83,77
109920,note_off,120,0,1,,,,,,,,,1,,,84,0
110040,note_on,0,0,1,,,,,,,,,1,,,81,78
110040,note_off,120,0,1,,,,,,,,,1,,,83,0
110160,note_on,0,0,1,,,,,,,,,1,,,79,79
110160,note_off,120,0,1,,,,,,,,,1,,,81,0
110280,note_on,0,0,1,,,,,,,,,1,,,77,80
110280,note_off,120,0,1,,,,,,,,,1,,,79,0
110340,set_tempo,1860,1,0,,,,,,526315,,,,,,,
110400,note_off,960,0,5,,,,,,,,,5,,,55,0
110400,set_tempo,60,1,0,,,,,,517241,,,,,,,
110400,note_on,0,0,5,,,,,,,,,5,,,60,80
110400,note_off,960,0,4,,,,,,,,,4,,,62,0
110400,note_on,0,0,1,,,,,,,,,1,,,76,80
110400,note_off,120,0,1,,,,,,,,,1,,,77,0
110520,note_off,120,0,1,,,,,,,,,1,,,76,0
110520,note_on,0,0,1,,,,,,,,,1,,,84,81
110640,note_off,120,0,1,,,,,,,,,1,,,84,0
110640,note_on,0,0,1,,,,,,,,,1,,,79,81
110760,note_on,0,0,1,,,,,,,,,1,,,76,82
110760,note_off,120,0,1,,,,,,,,,1,,,79,0
110880,note_on,0,0,5,,,,,,,,,5,,,65,82
110880,note_off,480,0,5,,,,,,,,,5,,,60,0
110880,note_on,0,0,1,,,,,,,,,1,,,74,82
110880,note_off,120,0,1,,,,,,,,,1,,,76,0
111000,note_on,0,0,1,,,,,,,,,1,,,81,83
111000,note_off,120,0,1,,,,,,,,,1,,,74,0
111120,note_on,0,0,1,,,,,,,,,1,,,77,84
111120,note_off,120,0,1,,,,,,,,,1,,,81,0
111240,note_off,120,0,1,,,,,,,,,1,,,77,0
111240,note_on,0,0,1,,,,,,,,,1,,,74,84
111360,note_off,120,0,1,,,,,,,,,1,,,74,0
111360,note_off,480,0,5,,,,,,,,,5,,,65,0
111360,note_on,0,0,1,,,,,,,,,1,,,72,87
111360,note_on,0,0,5,,,,,,,,,5,,,67,87
111480,note_off,120,0,1,,,,,,,,,1,,,72,0
111480,note_on,0,0,1,,,,,,,,,1,,,79,85
111600,note_on,0,0,1,,,,,,,,,1,,,76,83
111600,note_off,120,0,1,,,,,,,,,1,,,79,0
111720,note_off,120,0,1,,,,,,,,,1,,,76,0
111720,note_on,0,0,1,,,,,,,,,1,,,72,81
111840,note_on,0,0,1,,,,,,,,,1,,,71,80
111840,note_off,120,0,1,,,,,,,,,1,,,72,0
111840,note_off,480,0,5,,,,,,,,,5,,,67,0
111840,note_on,0,0,5,,,,,,,,,5,,,55,80
111960,note_on,0,0,1,,,,,,,,,1,,,77,78
111960,note_off,120,0,1,,,,,,,,,1,,,71,0
112080,note_on,0,0,1,,,,,,,,,1,,,74,76
112080,note_off,120,0,1,,,,,,,,,1,,,77,0
112200,note_on,0,0,1,,,,,,,,,1,,,71,74
112200,note_off,120,0,1,,,,,,,,,1,,,74,0
112260,set_tempo,1860,1,0,,,,,,526315,,,,,,,
112320,note_on,0,0,1,,,,,,,,,1,,,72,72
112320,note_off,120,0,1,,,,,,,,,1,,,71,0
112320,set_tempo,60,1,0,,,,,,535714,,,,,,,
112320,note_off,480,0,5,,,,,,,,,5,,,55,0
112320,note_on,0,0,5,,,,,,,,,5,,,60,72
112495,note_off,175,0,1,,,,,,,,,1,,,72,0
112500,note_off,180,0,5,,,,,,,,,5,,,60,0
112560,set_tempo,240,1,0,,,,,,526315,,,,,,,
112560,note_on,65,0,1,,,,,,,,,1,,,60,67
112680,note_off,120,0,1,,,,,,,,,1,,,60,0
112680,note_on,0,0,1,,,,,,,,,1,,,61,65
112800,note_on,0,0,1,,,,,,,,,1,,,62,63
112800,note_off,120,0,1,,,,,,,,,1,,,61,0
112920,note_on,0,0,1,,,,,,,,,1,,,63,61
112920,note_off,120,0,1,,,,,,,,,1,,,62,0
113040,note_on,0,0,1,,,,,,,,,1,,,64,59
113040,note_off,120,0,1,,,,,,,,,1,,,63,0
113160,note_on,0,0,1,,,,,,,,,1,,,65,57
113160,note_off,120,0,1,,,,,,,,,1,,,64,0
113280,note_on,0,0,1,,,,,,,,,1,,,66,55
113280,note_off,120,0,1,,,,,,,,,1,,,65,0
113400,note_off,120,0,1,,,,,,,,,1,,,66,0
113400,note_on,0,0,1,,,,,,,,,1,,,67,53
113520,note_off,120,0,1,,,,,,,,,1,,,67,0
113520,note_on,0,0,1,,,,,,,,,1,,,68,51
113640,note_on,0,0,1,,,,,,,,,1,,,69,49
113640,note_off,120,0,1,,,,,,,,,1,,,68,0
113760,note_off,120,0,1,,,,,,,,,1,,,69,0
113760,note_on,0,0,1,,,,,,,,,1,,,70,48
113880,note_on,0,0,1,,,,,,,,,1,,,71,46
113880,note_off,120,0,1,,,,,,,,,1,,,70,0
114000,set_tempo,1440,1,0,,,,,,550458,,,,,,,
114000,note_on,0,0,1,,,,,,,,,1,,,72,44
114000,note_off,120,0,1,,,,,,,,,1,,,71,0
114110,set_tempo,110,1,0,,,,,,612244,,,,,,,
114120,note_on,0,0,1,,,,,,,,,1,,,71,42
114120,note_off,120,0,1,,,,,,,,,1,,,72,0
114240,note_on,0,0,1,,,,,,,,,1,,,72,44
114240,note_on,1740,0,5,,,,,,,,,5,,,57,44
114240,set_tempo,130,1,0,,,,,,508474,,,,,,,
114240,note_off,120,0,1,,,,,,,,,1,,,71,0
114360,note_off,120,0,1,,,,,,,,,1,,,72,0
114360,note_off,120,0,5,,,,,,,,,5,,,57,0
114480,note_on,120,0,1,,,,,,,,,1,,,77,46
114480,note_on,120,0,5,,,,,,,,,5,,,53,46
114576,note_off,96,0,5,,,,,,,,,5,,,53,0
114600,note_off,120,0,1,,,,,,,,,1,,,77,0
114720,note_on,120,0,1,,,,,,,,,1,,,71,47
114720,note_on,144,0,5,,,,,,,,,5,,,56,47
114840,note_off,120,0,1,,,,,,,,,1,,,71,0
114840,note_off,120,0,5,,,,,,,,,5,,,56,0
114960,note_on,120,0,1,,,,,,,,,1,,,77,49
114960,note_on,120,0,5,,,,,,,,,5,,,53,49
115056,note_off,96,0,5,,,,,,,,,5,,,53,0
115080,note_off,120,0,1,,,,,,,,,1,,,77,0
115140,set_tempo,900,1,0,,,,,,517241,,,,,,,
115200,set_tempo,60,1,0,,,,,,508474,,,,,,,
115200,note_on,120,0,1,,,,,,,,,1,,,72,51
115200,note_on,144,0,5,,,,,,,,,5,,,57,51
115320,note_off,120,0,5,,,,,,,,,5,,,57,0
115440,note_on,120,0,5,,,,,,,,,5,,,53,53
115536,note_off,96,0,5,,,,,,,,,5,,,53,0
115680,note_on,144,0,5,,,,,,,,,5,,,57,54
115800,note_off,120,0,5,,,,,,,,,5,,,57,0
115920,note_on,0,0,1,,,,,,,,,1,,,73,63
115920,note_off,720,0,1,,,,,,,,,1,,,72,0
115920,note_on,120,0,5,,,,,,,,,5,,,53,63
116160,note_off,240,0,1,,,,,,,,,1,,,73,0
116160,note_on,0,0,1,,,,,,,,,1,,,74,58
116160,note_on,240,0,5,,,,,,,,,5,,,58,58
116165,note_off,5,0,5,,,,,,,,,5,,,53,0
116280,note_off,115,0,5,,,,,,,,,5,,,58,0
116280,note_off,120,0,1,,,,,,,,,1,,,74,0
116400,note_on,120,0,1,,,,,,,,,1,,,77,59
116400,note_on,120,0,5,,,,,,,,,5,,,53,59
116496,note_off,96,0,5,,,,,,,,,5,,,53,0
116520,note_off,120,0,1,,,,,,,,,1,,,77,0
116640,note_on,120,0,1,,,,,,,,,1,,,73,61
116640,note_on,144,0,5,,,,,,,,,5,,,57,61
116760,note_off,120,0,5,,,,,,,,,5,,,57,0
116760,note_off,120,0,1,,,,,,,,,1,,,73,0
116880,note_on,120,0,1,,,,,,,,,1,,,77,63
116880,note_on,120,0,5,,,,,,,,,5,,,53,63
116976,note_off,96,0,5,,,,,,,,,5,,,53,0
117000,note_off,120,0,1,,,,,,,,,1,,,77,0
117060,set_tempo,1860,1,0,,,,,,517241,,,,,,,
117120,set_tempo,60,1,0,,,,,,508474,,,,,,,
117120,note_on,144,0,5,,,,,,,,,5,,,58,65
117120,note_on,120,0,1,,,,,,,,,1,,,74,65
117240,note_off,120,0,5,,,,,,,,,5,,,58,0
117360,note_on,120,0,5,,,,,,,,,5,,,53,66
117456,note_off,96,0,5,,,,,,,,,5,,,53,0
117600,note_on,144,0,5,,,,,,,,,5,,,58,68
117720,note_off,120,0,5,,,,,,,,,5,,,58,0
117840,note_off,720,0,1,,,,,,,,,1,,,74,0
117840,note_on,0,0,1,,,,,,,,,1,,,79,67
117840,note_on,120,0,5,,,,,,,,,5,,,53,76
117900,note_off,60,0,1,,,,,,,,,1,,,79,0
117900,note_on,0,0,1,,,,,,,,,1,,,77,68
117960,note_on,0,0,1,,,,,,,,,1,,,76,70
117960,note_off,60,0,1,,,,,,,,,1,,,77,0
118020,note_on,0,0,1,,,,,,,,,1,,,77,71
118020,note_off,60,0,1,,,,,,,,,1,,,76,0
118080,note_on,7680,0,4,,,,,,,,,4,,,58,72
118080,note_off,240,0,5,,,,,,,,,5,,,53,0
118080,note_on,0,0,1,,,,,,,,,1,,,76,72
118080,note_on,0,0,5,,,,,,,,,5,,,55,72
118080,note_off,60,0,1,,,,,,,,,1,,,77,0
118200,note_off,120,0,4,,,,,,,,,4,,,58,0
118200,note_off,120,0,5,,,,,,,,,5,,,55,0
118320,note_off,240,0,1,,,,,,,,,1,,,76,0
118320,note_on,120,0,5,,,,,,,,,5,,,48,74
118320,note_on,0,0,1,,,,,,,,,1,,,84,74
118440,note_off,120,0,1,,,,,,,,,1,,,84,0
118440,note_off,120,0,5,,,,,,,,,5,,,48,0
118560,note_on,360,0,4,,,,,,,,,4,,,58,77
118560,note_on,120,0,5,,,,,,,,,5,,,55,77
118560,note_on,120,0,1,,,,,,,,,1,,,84,77
118680,note_off,120,0,5,,,,,,,,,5,,,55,0
118680,note_off,120,0,1,,,,,,,,,1,,,84,0
118680,note_off,120,0,4,,,,,,,,,4,,,58,0
118800,note_on,120,0,1,,,,,,,,,1,,,84,80
118800,note_on,120,0,5,,,,,,,,,5,,,48,80
118920,note_off,120,0,1,,,,,,,,,1,,,84,0
118920,note_off,120,0,5,,,,,,,,,5,,,48,0
118927,set_tempo,1807,1,0,,,,,,517241,,,,,,,
119040,note_on,120,0,5,,,,,,,,,5,,,53,83
119040,set_tempo,113,1,0,,,,,,508474,,,,,,,
119040,note_on,120,0,1,,,,,,,,,1,,,84,83
119040,note_on,360,0,4,,,,,,,,,4,,,57,83
119520,note_off,480,0,1,,,,,,,,,1,,,84,0
119520,note_off,480,0,4,,,,,,,,,4,,,57,0
119520,note_off,480,0,5,,,,,,,,,5,,,53,0
119520,note_on,0,0,1,,,,,,,,,1,,,82,78
119640,note_on,0,0,1,,,,,,,,,1,,,81,76
119640,note_off,120,0,1,,,,,,,,,1,,,82,0
119760,note_on,0,0,1,,,,,,,,,1,,,79,75
119760,note_off,120,0,1,,,,,,,,,1,,,81,0
119880,note_on,0,0,1,,,,,,,,,1,,,77,73
119880,note_off,120,0,1,,,,,,,,,1,,,79,0
119887,set_tempo,847,1,0,,,,,,517241,,,,,,,
120000,note_on,0,0,1,,,,,,,,,1,,,79,73
120000,note_on,480,0,5,,,,,,,,,5,,,58,74
120000,note_off,120,0,1,,,,,,,,,1,,,77,0
120120,note_off,120,0,5,,,,,,,,,5,,,58,0
120185,note_off,185,0,1,,,,,,,,,1,,,79,0
120240,note_on,720,0,4,,,,,,,,,4,,,62,70
120240,note_on,55,0,1,,,,,,,,,1,,,79,69
120360,note_off,120,0,1,,,,,,,,,1,,,79,0
120360,note_on,0,0,1,,,,,,,,,1,,,82,66
120360,note_off,120,0,4,,,,,,,,,4,,,62,0
120480,note_on,360,0,5,,,,,,,,,5,,,48,66
120480,note_on,120,0,4,,,,,,,,,4,,,55,66
120480,note_off,120,0,1,,,,,,,,,1,,,82,0
120480,note_on,0,0,1,,,,,,,,,1,,,76,64
120600,note_off,120,0,5,,,,,,,,,5,,,48,0
120600,note_off,120,0,4,,,,,,,,,4,,,55,0
120665,note_off,185,0,1,,,,,,,,,1,,,76,0
120720,note_on,120,0,4,,,,,,,,,4,,,58,62
120720,note_on,55,0,1,,,,,,,,,1,,,76,60
120840,note_off,120,0,4,,,,,,,,,4,,,58,0
120840,note_off,120,0,1,,,,,,,,,1,,,76,0
120840,note_on,0,0,1,,,,,,,,,1,,,79,58
120960,note_off,120,0,1,,,,,,,,,1,,,79,0
120960,note_on,0,0,1,,,,,,,,,1,,,77,55
120960,set_tempo,1073,1,0,,,,,,535714,,,,,,,
120960,note_on,360,0,5,,,,,,,,,5,,,53,57
120960,note_on,120,0,4,,,,,,,,,4,,,57,57
121080,note_off,120,0,5,,,,,,,,,5,,,53,0
121080,note_off,120,0,4,,,,,,,,,4,,,57,0
121200,note_on,120,0,4,,,,,,,,,4,,,60,49
121296,note_off,96,0,4,,,,,,,,,4,,,60,0
121440,note_on,144,0,4,,,,,,,,,4,,,57,42
121440,set_tempo,480,1,0,,,,,,550458,,,,,,,
121440,note_off,480,0,1,,,,,,,,,1,,,77,0
121440,note_on,360,0,5,,,,,,,,,5,,,53,42
121536,note_off,96,0,4,,,,,,,,,4,,,57,0
121536,note_off,96,0,5,,,,,,,,,5,,,53,0
121920,control_change,384,0,4,,,,,,,64,0,4,,,,
121920,note_on,0,0,4,,,,,,,,,4,,,64,43
121920,set_tempo,480,1,0,,,,,,517241,,,,,,,
121920,control_change,384,0,5,,,,,,,64,0,5,,,,
121920,note_on,0,0,5,,,,,,,,,5,,,60,43
121920,control_change,19200,0,2,,,,,,,64,0,2,,,,
121920,note_on,0,0,1,,,,,,,,,1,,,79,43
121920,control_change,480,0,1,,,,,,,64,0,1,,,,
122040,note_off,120,0,5,,,,,,,,,5,,,60,0
122040,note_off,120,0,1,,,,,,,,,1,,,79,0
122040,note_off,120,0,4,,,,,,,,,4,,,64,0
122160,note_on,120,0,5,,,,,,,,,5,,,60,45
122160,note_on,120,0,4,,,,,,,,,4,,,64,45
122160,note_on,120,0,1,,,,,,,,,1,,,79,45
122280,note_off,120,0,4,,,,,,,,,4,,,64,0
122280,note_off,120,0,1,,,,,,,,,1,,,79,0
122280,note_off,120,0,5,,,,,,,,,5,,,60,0
122400,note_on,120,0,4,,,,,,,,,4,,,63,47
122400,note_on,120,0,5,,,,,,,,,5,,,60,47
122400,note_on,120,0,1,,,,,,,,,1,,,78,47
122520,note_off,120,0,5,,,,,,,,,5,,,60,0
122520,note_off,120,0,1,,,,,,,,,1,,,78,0
122520,note_off,120,0,4,,,,,,,,,4,,,63,0
122640,note_on,120,0,4,,,,,,,,,4,,,63,49
122640,note_on,120,0,5,,,,,,,,,5,,,60,49
122640,note_on,120,0,1,,,,,,,,,1,,,78,49
122760,note_off,120,0,5,,,,,,,,,5,,,60,0
122760,note_off,120,0,1,,,,,,,,,1,,,78,0
122760,note_off,120,0,4,,,,,,,,,4,,,63,0
122880,note_on,120,0,4,,,,,,,,,4,,,64,51
122880,note_on,120,0,1,,,,,,,,,1,,,79,51
122880,note_on,120,0,5,,,,,,,,,5,,,60,51
123120,note_off,240,0,1,,,,,,,,,1,,,79,0
123120,note_on,0,0,1,,,,,,,,,1,,,81,49
123240,note_off,120,0,1,,,,,,,,,1,,,81,0
123240,note_on,0,0,1,,,,,,,,,1,,,83,48
123360,note_off,480,0,4,,,,,,,,,4,,,64,0
123360,note_on,0,0,1,,,,,,,,,1,,,84,46
123360,note_off,120,0,1,,,,,,,,,1,,,83,0
123360,note_off,480,0,5,,,,,,,,,5,,,60,0
123480,note_off,120,0,1,,,,,,,,,1,,,84,0
123480,note_on,0,0,1,,,,,,,,,1,,,83,45
123600,note_off,120,0,1,,,,,,,,,1,,,83,0
123600,note_on,0,0,1,,,,,,,,,1,,,81,44
123720,note_off,120,0,1,,,,,,,,,1,,,81,0
123720,note_on,0,0,1,,,,,,,,,1,,,79,42
123780,set_tempo,1860,1,0,,,,,,526315,,,,,,,
123840,note_off,120,0,1,,,,,,,,,1,,,79,0
123840,note_on,0,0,1,,,,,,,,,1,,,77,42
123840,set_tempo,60,1,0,,,,,,517241,,,,,,,
123840,note_on,480,0,5,,,,,,,,,5,,,55,42
123840,note_on,480,0,4,,,,,,,,,4,,,62,42
123960,note_off,120,0,5,,,,,,,,,5,,,55,0
123960,note_off,120,0,1,,,,,,,,,1,,,77,0
123960,note_off,120,0,4,,,,,,,,,4,,,62,0
124080,note_on,120,0,1,,,,,,,,,1,,,77,43
124080,note_on,120,0,5,,,,,,,,,5,,,55,43
124080,note_on,120,0,4,,,,,,,,,4,,,62,43
124200,note_off,120,0,1,,,,,,,,,1,,,77,0
124200,note_off,120,0,4,,,,,,,,,4,,,62,0
124200,note_off,120,0,5,,,,,,,,,5,,,55,0
124320,note_on,120,0,1,,,,,,,,,1,,,76,44
124320,note_on,120,0,4,,,,,,,,,4,,,61,44
124320,note_on,120,0,5,,,,,,,,,5,,,55,44
124440,note_off,120,0,4,,,,,,,,,4,,,61,0
124440,note_off,120,0,1,,,,,,,,,1,,,76,0
124440,note_off,120,0,5,,,,,,,,,5,,,55,0
124560,note_on,120,0,4,,,,,,,,,4,,,61,46
124560,note_on,120,0,1,,,,,,,,,1,,,76,46
124560,note_on,120,0,5,,,,,,,,,5,,,55,46
124680,note_off,120,0,1,,,,,,,,,1,,,76,0
124680,note_off,120,0,4,,,,,,,,,4,,,61,0
124680,note_off,120,0,5,,,,,,,,,5,,,55,0
124800,note_on,120,0,1,,,,,,,,,1,,,77,48
124800,note_on,120,0,5,,,,,,,,,5,,,55,48
124800,note_on,120,0,4,,,,,,,,,4,,,62,48
125040,note_on,0,0,1,,,,,,,,,1,,,83,48
125040,note_off,240,0,1,,,,,,,,,1,,,77,0
125160,note_off,120,0,1,,,,,,,,,1,,,83,0
125160,note_on,0,0,1,,,,,,,,,1,,,84,47
125280,note_off,120,0,1,,,,,,,,,1,,,84,0
125280,note_on,0,0,1,,,,,,,,,1,,,86,47
125280,note_off,480,0,5,,,,,,,,,5,,,55,0
125280,note_off,480,0,4,,,,,,,,,4,,,62,0
125400,note_off,120,0,1,,,,,,,,,1,,,86,0
125400,note_on,0,0,1,,,,,,,,,1,,,83,46
125520,note_on,0,0,1,,,,,,,,,1,,,79,45
125520,note_off,120,0,1,,,,,,,,,1,,,83,0
125640,note_on,0,0,1,,,,,,,,,1,,,77,45
125640,note_off,120,0,1,,,,,,,,,1,,,79,0
125700,set_tempo,1860,1,0,,,,,,526315,,,,,,,
125760,note_on,480,0,4,,,,,,,,,4,,,64,44
125760,note_off,120,0,1,,,,,,,,,1,,,77,0
125760,note_on,480,0,5,,,,,,,,,5,,,60,44
125760,set_tempo,60,1,0,,,,,,517241,,,,,,,
125760,note_on,0,0,1,,,,,,,,,1,,,76,44
125880,note_off,120,0,1,,,,,,,,,1,,,76,0
125880,note_on,0,0,1,,,,,,,,,1,,,79,45
126000,note_on,0,0,1,,,,,,,,,1,,,81,47
126000,note_off,120,0,1,,,,,,,,,1,,,79,0
126120,note_on,0,0,1,,,,,,,,,1,,,79,48
126120,note_off,120,0,1,,,,,,,,,1,,,81,0
126240,note_off,120,0,1,,,,,,,,,1,,,79,0
126240,note_on,0,0,1,,,,,,,,,1,,,84,49
126360,note_on,0,0,1,,,,,,,,,1,,,83,50
126360,note_off,120,0,1,,,,,,,,,1,,,84,0
126480,note_on,0,0,1,,,,,,,,,1,,,81,51
126480,note_off,120,0,1,,,,,,,,,1,,,83,0
126600,note_on,0,0,1,,,,,,,,,1,,,79,52
126600,note_off,120,0,1,,,,,,,,,1,,,81,0
126720,note_on,0,0,4,,,,,,,,,4,,,62,53
126720,note_off,960,0,4,,,,,,,,,4,,,64,0
126720,note_off,960,0,5,,,,,,,,,5,,,60,0
126720,note_on,0,0,5,,,,,,,,,5,,,55,53
126720,note_on,0,0,1,,,,,,,,,1,,,77,53
126720,note_off,120,0,1,,,,,,,,,1,,,79,0
126840,note_on,0,0,1,,,,,,,,,1,,,83,55
126840,note_off,120,0,1,,,,,,,,,1,,,77,0
126960,note_on,0,0,1,,,,,,,,,1,,,86,56
126960,note_off,120,0,1,,,,,,,,,1,,,83,0
127080,note_off,120,0,1,,,,,,,,,1,,,86,0
127080,note_on,0,0,1,,,,,,,,,1,,,84,57
127200,note_off,120,0,1,,,,,,,,,1,,,84,0
127200,note_on,0,0,1,,,,,,,,,1,,,83,58
127320,note_off,120,0,1,,,,,,,,,1,,,83,0
127320,note_on,0,0,1,,,,,,,,,1,,,81,59
127440,note_off,120,0,1,,,,,,,,,1,,,81,0
127440,note_on,0,0,1,,,,,,,,,1,,,79,60
127560,note_on,0,0,1,,,,,,,,,1,,,77,62
127560,note_off,120,0,1,,,,,,,,,1,,,79,0
127620,set_tempo,1860,1,0,,,,,,526315,,,,,,,
127680,note_off,120,0,1,,,,,,,,,1,,,77,0
127680,note_on,0,0,1,,,,,,,,,1,,,76,63
127680,note_on,0,0,5,,,,,,,,,5,,,60,63
127680,note_off,960,0,5,,,,,,,,,5,,,55,0
127680,set_tempo,60,1,0,,,,,,517241,,,,,,,
127680,note_on,0,0,4,,,,,,,,,4,,,64,63
127680,note_off,960,0,4,,,,,,,,,4,,,62,0
127800,note_off,120,0,1,,,,,,,,,1,,,76,0
127800,note_on,0,0,1,,,,,,,,,1,,,79,64
127920,note_off,120,0,1,,,,,,,,,1,,,79,0
127920,note_on,0,0,1,,,,,,,,,1,,,81,65
128040,note_off,120,0,1,,,,,,,,,1,,,81,0
128040,note_on,0,0,1,,,,,,,,,1,,,79,66
128160,note_on,0,0,1,,,,,,,,,1,,,84,67
128160,note_off,120,0,1,,,,,,,,,1,,,79,0
128280,note_on,0,0,1,,,,,,,,,1,,,83,69
128280,note_off,120,0,1,,,,,,,,,1,,,84,0
128400,note_off,120,0,1,,,,,,,,,1,,,83,0
128400,note_on,0,0,1,,,,,,,,,1,,,81,70
128520,note_on,0,0,1,,,,,,,,,1,,,79,71
128520,note_off,120,0,1,,,,,,,,,1,,,81,0
128640,note_off,960,0,5,,,,,,,,,5,,,60,0
128640,note_on,0,0,1,,,,,,,,,1,,,77,72
128640,note_on,0,0,4,,,,,,,,,4,,,62,72
128640,note_off,960,0,4,,,,,,,,,4,,,64,0
128640,note_on,0,0,5,,,,,,,,,5,,,55,72
128640,note_off,120,0,1,,,,,,,,,1,,,79,0
128760,note_on,0,0,1,,,,,,,,,1,,,83,73
128760,note_off,120,0,1,,,,,,,,,1,,,77,0
128880,note_on,0,0,1,,,,,,,,,1,,,86,74
128880,note_off,120,0,1,,,,,,,,,1,,,83,0
129000,note_off,120,0,1,,,,,,,,,1,,,86,0
129000,note_on,0,0,1,,,,,,,,,1,,,84,76
129120,note_on,0,0,1,,,,,,,,,1,,,83,77
129120,note_off,120,0,1,,,,,,,,,1,,,84,0
129240,note_off,120,0,1,,,,,,,,,1,,,83,0
129240,note_on,0,0,1,,,,,,,,,1,,,81,78
129360,note_off,120,0,1,,,,,,,,,1,,,81,0
129360,note_on,0,0,1,,,,,,,,,1,,,79,79
129480,note_on,0,0,1,,,,,,,,,1,,,77,80
129480,note_off,120,0,1,,,,,,,,,1,,,79,0
129540,set_tempo,1860,1,0,,,,,,526315,,,,,,,
129600,note_on,0,0,1,,,,,,,,,1,,,76,80
129600,note_off,960,0,5,,,,,,,,,5,,,55,0
129600,note_on,0,0,5,,,,,,,,,5,,,60,80
129600,set_tempo,60,1,0,,,,,,517241,,,,,,,
129600,note_off,120,0,1,,,,,,,,,1,,,77,0
129600,note_off,960,0,4,,,,,,,,,4,,,62,0
129720,note_off,120,0,1,,,,,,,,,1,,,76,0
129720,note_on,0,0,1,,,,,,,,,1,,,84,81
129840,note_on,0,0,1,,,,,,,,,1,,,79,81
129840,note_off,120,0,1,,,,,,,,,1,,,84,0
129960,note_off,120,0,1,,,,,,,,,1,,,79,0
129960,note_on,0,0,1,,,,,,,,,1,,,76,82
130080,note_on,0,0,5,,,,,,,,,5,,,65,82
130080,note_off,480,0,5,,,,,,,,,5,,,60,0
130080,note_off,120,0,1,,,,,,,,,1,,,76,0
130080,note_on,0,0,1,,,,,,,,,1,,,74,82
130200,note_off,120,0,1,,,,,,,,,1,,,74,0
130200,note_on,0,0,1,,,,,,,,,1,,,81,83
130320,note_on,0,0,1,,,,,,,,,1,,,77,84
130320,note_off,120,0,1,,,,,,,,,1,,,81,0
130440,note_on,0,0,1,,,,,,,,,1,,,74,84
130440,note_off,120,0,1,,,,,,,,,1,,,77,0
130560,note_on,0,0,5,,,,,,,,,5,,,67,87
130560,note_off,480,0,5,,,,,,,,,5,,,65,0
130560,note_on,0,0,1,,,,,,,,,1,,,72,87
130560,note_off,120,0,1,,,,,,,,,1,,,74,0
130680,note_on,0,0,1,,,,,,,,,1,,,79,85
130680,note_off,120,0,1,,,,,,,,,1,,,72,0
130800,note_on,0,0,1,,,,,,,,,1,,,76,83
130800,note_off,120,0,1,,,,,,,,,1,,,79,0
130920,note_on,0,0,1,,,,,,,,,1,,,72,81
130920,note_off,120,0,1,,,,,,,,,1,,,76,0
131040,note_on,0,0,5,,,,,,,,,5,,,55,80
131040,note_off,480,0,5,,,,,,,,,5,,,67,0
131040,note_on,0,0,1,,,,,,,,,1,,,71,80
131040,note_off,120,0,1,,,,,,,,,1,,,72,0
131160,note_off,120,0,1,,,,,,,,,1,,,71,0
131160,note_on,0,0,1,,,,,,,,,1,,,77,78
131280,note_off,120,0,1,,,,,,,,,1,,,77,0
131280,note_on,0,0,1,,,,,,,,,1,,,74,76
131400,set_tempo,1800,1,0,,,,,,526315,,,,,,,
131400,note_off,120,0,1,,,,,,,,,1,,,74,0
131400,note_on,0,0,1,,,,,,,,,1,,,71,74
131520,note_off,480,0,5,,,,,,,,,5,,,55,0
131520,note_off,120,0,1,,,,,,,,,1,,,71,0
131520,note_on,0,0,1,,,,,,,,,1,,,72,72
131520,set_tempo,120,1,0,,,,,,535714,,,,,,,
131520,note_on,0,0,5,,,,,,,,,5,,,60,72
131695,note_off,175,0,1,,,,,,,,,1,,,72,0
131700,note_off,180,0,5,,,,,,,,,5,,,60,0
131760,note_on,65,0,1,,,,,,,,,1,,,60,67
131760,set_tempo,240,1,0,,,,,,526315,,,,,,,
131880,note_off,120,0,1,,,,,,,,,1,,,60,0
131880,note_on,0,0,1,,,,,,,,,1,,,61,65
132000,note_off,120,0,1,,,,,,,,,1,,,61,0
132000,note_on,0,0,1,,,,,,,,,1,,,62,63
132120,note_on,0,0,1,,,,,,,,,1,,,63,61
132120,note_off,120,0,1,,,,,,,,,1,,,62,0
132240,note_off,120,0,1,,,,,,,,,1,,,63,0
132240,note_on,0,0,1,,,,,,,,,1,,,64,59
132360,note_on,0,0,1,,,,,,,,,1,,,65,57
132360,note_off,120,0,1,,,,,,,,,1,,,64,0
132480,note_on,0,0,1,,,,,,,,,1,,,66,55
132480,note_off,120,0,1,,,,,,,,,1,,,65,0
132600,note_off,120,0,1,,,,,,,,,1,,,66,0
132600,note_on,0,0,1,,,,,,,,,1,,,67,53
132720,note_off,120,0,1,,,,,,,,,1,,,67,0
132720,note_on,0,0,1,,,,,,,,,1,,,68,51
132840,note_off,120,0,1,,,,,,,,,1,,,68,0
132840,note_on,0,0,1,,,,,,,,,1,,,69,49
132960,note_on,0,0,1,,,,,,,,,1,,,70,48
132960,note_off,120,0,1,,,,,,,,,1,,,69,0
133080,note_on,0,0,1,,,,,,,,,1,,,71,46
133080,note_off,120,0,1,,,,,,,,,1,,,70,0
133200,set_tempo,1440,1,0,,,,,,550458,,,,,,,
133200,note_off,120,0,1,,,,,,,,,1,,,71,0
133200,note_on,0,0,1,,,,,,,,,1,,,72,44
133310,set_tempo,110,1,0,,,,,,612244,,,,,,,
133320,note_on,0,0,1,,,,,,,,,1,,,71,42
133320,note_off,120,0,1,,,,,,,,,1,,,72,0
133440,note_on,0,0,1,,,,,,,,,1,,,72,44
133440,set_tempo,130,1,0,,,,,,508474,,,,,,,
133440,note_off,120,0,1,,,,,,,,,1,,,71,0
133440,note_on,1740,0,5,,,,,,,,,5,,,57,44
133560,note_off,120,0,5,,,,,,,,,5,,,57,0
133560,note_off,120,0,1,,,,,,,,,1,,,72,0
133680,note_on,120,0,1,,,,,,,,,1,,,77,46
133680,note_on,120,0,5,,,,,,,,,5,,,53,46
133776,note_off,96,0,5,,,,,,,,,5,,,53,0
133800,note_off,120,0,1,,,,,,,,,1,,,77,0
133920,note_on,120,0,1,,,,,,,,,1,,,71,47
133920,note_on,144,0,5,,,,,,,,,5,,,56,47
134040,note_off,120,0,5,,,,,,,,,5,,,56,0
134040,note_off,120,0,1,,,,,,,,,1,,,71,0
134160,note_on,120,0,5,,,,,,,,,5,,,53,49
134160,note_on,120,0,1,,,,,,,,,1,,,77,49
134256,note_off,96,0,5,,,,,,,,,5,,,53,0
134280,note_off,120,0,1,,,,,,,,,1,,,77,0
134340,set_tempo,900,1,0,,,,,,517241,,,,,,,
134400,set_tempo,60,1,0,,,,,,508474,,,,,,,
134400,note_on,120,0,1,,,,,,,,,1,,,72,51
134400,note_on,144,0,5,,,,,,,,,5,,,57,51
134520,note_off,120,0,5,,,,,,,,,5,,,57,0
134640,note_on,120,0,5,,,,,,,,,5,,,53,53
134736,note_off,96,0,5,,,,,,,,,5,,,53,0
134880,note_on,144,0,5,,,,,,,,,5,,,57,54
135000,note_off,120,0,5,,,,,,,,,5,,,57,0
135120,note_off,720,0,1,,,,,,,,,1,,,72,0
135120,note_on,0,0,1,,,,,,,,,1,,,73,63
135120,note_on,120,0,5,,,,,,,,,5,,,53,63
135360,note_on,0,0,1,,,,,,,,,1,,,74,58
135360,note_on,240,0,5,,,,,,,,,5,,,58,58
135360,note_off,240,0,1,,,,,,,,,1,,,73,0
135365,note_off,5,0,5,,,,,,,,,5,,,53,0
135480,note_off,120,0,1,,,,,,,,,1,,,74,0
135480,note_off,115,0,5,,,,,,,,,5,,,58,0
135600,note_on,120,0,1,,,,,,,,,1,,,77,59
135600,note_on,120,0,5,,,,,,,,,5,,,53,59
135696,note_off,96,0,5,,,,,,,,,5,,,53,0
135720,note_off,120,0,1,,,,,,,,,1,,,77,0
135840,note_on,120,0,1,,,,,,,,,1,,,73,61
135840,note_on,144,0,5,,,,,,,,,5,,,57,61
135960,note_off,120,0,5,,,,,,,,,5,,,57,0
135960,note_off,120,0,1,,,,,,,,,1,,,73,0
136080,note_on,120,0,5,,,,,,,,,5,,,53,63
136080,note_on,120,0,1,,,,,,,,,1,,,77,63
136176,note_off,96,0,5,,,,,,,,,5,,,53,0
136200,note_off,120,0,1,,,,,,,,,1,,,77,0
136260,set_tempo,1860,1,0,,,,,,517241,,,,,,,
136320,note_on,120,0,1,,,,,,,,,1,,,74,65
136320,note_on,144,0,5,,,,,,,,,5,,,58,65
136320,set_tempo,60,1,0,,,,,,508474,,,,,,,
136440,note_off,120,0,5,,,,,,,,,5,,,58,0
136560,note_on,120,0,5,,,,,,,,,5,,,53,66
136656,note_off,96,0,5,,,,,,,,,5,,,53,0
136800,note_on,144,0,5,,,,,,,,,5,,,58,68
136920,note_off,120,0,5,,,,,,,,,5,,,58,0
137040,note_on,120,0,5,,,,,,,,,5,,,53,76
137040,note_off,720,0,1,,,,,,,,,1,,,74,0
137040,note_on,0,0,1,,,,,,,,,1,,,79,67
137100,note_off,60,0,1,,,,,,,,,1,,,79,0
137100,note_on,0,0,1,,,,,,,,,1,,,77,68
137160,note_off,60,0,1,,,,,,,,,1,,,77,0
137160,note_on,0,0,1,,,,,,,,,1,,,76,70
137220,note_off,60,0,1,,,,,,,,,1,,,76,0
137220,note_on,0,0,1,,,,,,,,,1,,,77,71
137280,note_on,7680,0,4,,,,,,,,,4,,,58,72
137280,note_on,0,0,1,,,,,,,,,1,,,76,72
137280,note_on,0,0,5,,,,,,,,,5,,,55,72
137280,note_off,240,0,5,,,,,,,,,5,,,53,0
137280,note_off,60,0,1,,,,,,,,,1,,,77,0
137400,note_off,120,0,4,,,,,,,,,4,,,58,0
137400,note_off,120,0,5,,,,,,,,,5,,,55,0
137520,note_on,120,0,5,,,,,,,,,5,,,48,74
137520,note_on,0,0,1,,,,,,,,,1,,,84,74
137520,note_off,240,0,1,,,,,,,,,1,,,76,0
137640,note_off,120,0,5,,,,,,,,,5,,,48,0
137640,note_off,120,0,1,,,,,,,,,1,,,84,0
137760,note_on,360,0,4,,,,,,,,,4,,,58,77
137760,note_on,120,0,1,,,,,,,,,1,,,84,77
137760,note_on,120,0,5,,,,,,,,,5,,,55,77
137880,note_off,120,0,1,,,,,,,,,1,,,84,0
137880,note_off,120,0,4,,,,,,,,,4,,,58,0
137880,note_off,120,0,5,,,,,,,,,5,,,55,0
138000,note_on,120,0,5,,,,,,,,,5,,,48,80
138000,note_on,120,0,1,,,,,,,,,1,,,84,80
138120,note_off,120,0,1,,,,,,,,,1,,,84,0
138120,note_off,120,0,5,,,,,,,,,5,,,48,0
138127,set_tempo,1807,1,0,,,,,,517241,,,,,,,
138240,note_on,120,0,5,,,,,,,,,5,,,53,83
138240,note_on,360,0,4,,,,,,,,,4,,,57,83
138240,note_on,120,0,1,,,,,,,,,1,,,84,83
138240,set_tempo,113,1,0,,,,,,508474,,,,,,,
138720,note_off,480,0,4,,,,,,,,,4,,,57,0
138720,note_off,480,0,1,,,,,,,,,1,,,84,0
138720,note_on,0,0,1,,,,,,,,,1,,,82,78
138720,note_off,480,0,5,,,,,,,,,5,,,53,0
138840,note_on,0,0,1,,,,,,,,,1,,,81,76
138840,note_off,120,0,1,,,,,,,,,1,,,82,0
138960,note_off,120,0,1,,,,,,,,,1,,,81,0
138960,note_on,0,0,1,,,,,,,,,1,,,79,75
139080,note_on,0,0,1,,,,,,,,,1,,,77,73
139080,note_off,120,0,1,,,,,,,,,1,,,79,0
139087,set_tempo,847,1,0,,,,,,517241,,,,,,,
139200,note_off,120,0,1,,,,,,,,,1,,,77,0
139200,note_on,480,0,5,,,,,,,,,5,,,58,74
139200,note_on,0,0,1,,,,,,,,,1,,,79,73
139200,set_tempo,113,1,0,,,,,,517241,,,,,,,
139320,note_off,120,0,5,,,,,,,,,5,,,58,0
139385,note_off,185,0,1,,,,,,,,,1,,,79,0
139440,note_on,55,0,1,,,,,,,,,1,,,79,69
139440,note_on,720,0,4,,,,,,,,,4,,,62,70
139560,note_off,120,0,4,,,,,,,,,4,,,62,0
139560,note_off,120,0,1,,,,,,,,,1,,,79,0
139560,note_on,0,0,1,,,,,,,,,1,,,82,66
139680,note_on,120,0,4,,,,,,,,,4,,,55,66
139680,note_on,360,0,5,,,,,,,,,5,,,48,66
139680,note_off,120,0,1,,,,,,,,,1,,,82,0
139680,note_on,0,0,1,,,,,,,,,1,,,76,64
139800,note_off,120,0,4,,,,,,,,,4,,,55,0
139800,note_off,120,0,5,,,,,,,,,5,,,48,0
139865,note_off,185,0,1,,,,,,,,,1,,,76,0
139920,note_on,55,0,1,,,,,,,,,1,,,76,60
139920,note_on,120,0,4,,,,,,,,,4,,,58,62
140040,note_off,120,0,1,,,,,,,,,1,,,76,0
140040,note_on,0,0,1,,,,,,,,,1,,,79,58
140040,note_off,120,0,4,,,,,,,,,4,,,58,0
140160,note_on,120,0,4,,,,,,,,,4,,,57,57
140160,set_tempo,960,1,0,,,,,,535714,,,,,,,
140160,note_on,0,0,1,,,,,,,,,1,,,77,55
140160,note_off,120,0,1,,,,,,,,,1,,,79,0
140160,note_on,360,0,5,,,,,,,,,5,,,53,57
140280,note_off,120,0,5,,,,,,,,,5,,,53,0
140280,note_off,120,0,4,,,,,,,,,4,,,57,0
140400,note_on,120,0,4,,,,,,,,,4,,,60,49
140496,note_off,96,0,4,,,,,,,,,4,,,60,0
140640,set_tempo,480,1,0,,,,,,550458,,,,,,,
140640,note_off,480,0,1,,,,,,,,,1,,,77,0
140640,note_on,360,0,5,,,,,,,,,5,,,53,42
140640,note_on,144,0,4,,,,,,,,,4,,,57,42
140736,note_off,96,0,5,,,,,,,,,5,,,53,0
140736,note_off,96,0,4,,,,,,,,,4,,,57,0
141120,control_change,19200,0,2,,,,,,,64,0,2,,,,
141120,note_on,0,0,1,,,,,,,,,1,,,81,46
141120,control_change,480,0,1,,,,,,,64,0,1,,,,
141120,marker,0,1,0,,,,,,,,,,,,,
141120,set_tempo,480,1,0,,,,,,508474,,,,,,,
141120,control_change,384,0,5,,,,,,,64,0,5,,,,
141120,note_on,0,0,5,,,,,,,,,5,,,62,46
141120,control_change,384,0,4,,,,,,,64,0,4,,,,
141360,note_on,71760,0,3,,,,,,,,,3,,,65,48
141600,note_off,480,0,5,,,,,,,,,5,,,62,0
141600,note_off,480,0,1,,,,,,,,,1,,,81,0
141600,note_on,0,0,1,,,,,,,,,1,,,82,49
141600,note_on,0,0,5,,,,,,,,,5,,,62,49
141607,note_off,247,0,3,,,,,,,,,3,,,65,0
141840,note_on,0,0,1,,,,,,,,,1,,,81,50
141840,note_on,233,0,3,,,,,,,,,3,,,65,50
141840,note_off,240,0,1,,,,,,,,,1,,,82,0
142030,set_tempo,910,1,0,,,,,,517241,,,,,,,
142080,note_on,0,0,1,,,,,,,,,1,,,81,52
142080,note_off,240,0,3,,,,,,,,,3,,,65,0
142080,note_off,480,0,5,,,,,,,,,5,,,62,0
142080,note_on,0,0,5,,,,,,,,,5,,,64,52
142080,note_off,240,0,1,,,,,,,,,1,,,81,0
142080,set_tempo,50,1,0,,,,,,508474,,,,,,,
142320,note_on,240,0,3,,,,,,,,,3,,,67,50
142560,note_off,480,0,1,,,,,,,,,1,,,81,0
142560,note_off,480,0,5,,,,,,,,,5,,,64,0
142560,note_off,240,0,3,,,,,,,,,3,,,67,0
142560,note_on,0,0,5,,,,,,,,,5,,,64,48
142560,note_on,0,0,1,,,,,,,,,1,,,73,48
142716,note_off,156,0,1,,,,,,,,,1,,,73,0
142800,note_on,240,0,3,,,,,,,,,3,,,67,49
142800,note_on,84,0,1,,,,,,,,,1,,,74,49
142956,note_off,156,0,1,,,,,,,,,1,,,74,0
143040,note_on,0,0,5,,,,,,,,,5,,,61,51
143040,note_off,480,0,5,,,,,,,,,5,,,64,0
143040,note_on,84,0,1,,,,,,,,,1,,,76,51
143040,note_off,240,0,3,,,,,,,,,3,,,67,0
143280,note_on,0,0,1,,,,,,,,,1,,,73,52
143280,note_off,240,0,1,,,,,,,,,1,,,76,0
143280,note_on,240,0,3,,,,,,,,,3,,,64,52
143520,note_off,240,0,1,,,,,,,,,1,,,73,0
143520,note_on,0,0,1,,,,,,,,,1,,,69,54
143520,note_on,0,0,5,,,,,,,,,5,,,61,54
143520,note_off,480,0,5,,,,,,,,,5,,,61,0
143520,note_off,240,0,3,,,,,,,,,3,,,64,0
143760,note_off,240,0,1,,,,,,,,,1,,,69,0
143760,note_on,0,0,1,,,,,,,,,1,,,81,56
143760,note_on,240,0,3,,,,,,,,,3,,,64,56
143940,set_tempo,1860,1,0,,,,,,517241,,,,,,,
144000,set_tempo,60,1,0,,,,,,508474,,,,,,,
144000,note_on,0,0,5,,,,,,,,,5,,,62,58
144000,note_off,480,0,5,,,,,,,,,5,,,61,0
144000,note_off,240,0,3,,,,,,,,,3,,,64,0
144000,note_on,0,0,1,,,,,,,,,1,,,79,58
144000,note_off,240,0,1,,,,,,,,,1,,,81,0
144240,note_on,240,0,3,,,,,,,,,3,,,65,54
144480,note_off,480,0,5,,,,,,,,,5,,,62,0
144480,note_off,240,0,3,,,,,,,,,3,,,65,0
144480,note_on,0,0,1,,,,,,,,,1,,,77,51
144480,note_off,480,0,1,,,,,,,,,1,,,79,0
144480,note_on,0,0,5,,,,,,,,,5,,,62,51
144720,note_on,240,0,3,,,,,,,,,3,,,65,47
144840,set_tempo,840,1,0,,,,,,517241,,,,,,,
144900,note_off,420,0,5,,,,,,,,,5,,,62,0
144905,note_off,425,0,1,,,,,,,,,1,,,77,0
144905,note_off,185,0,3,,,,,,,,,3,,,65,0
144960,note_on,60,0,5,,,,,,,,,5,,,53,47
144960,note_on,55,0,1,,,,,,,,,1,,,81,47
144960,set_tempo,120,1,0,,,,,,508474,,,,,,,
145200,note_on,295,0,3,,,,,,,,,3,,,62,49
145200,note_on,0,0,1,,,,,,,,,1,,,77,49
145200,note_off,240,0,1,,,,,,,,,1,,,81,0
145440,note_off,240,0,3,,,,,,,,,3,,,62,0
145440,note_off,240,0,1,,,,,,,,,1,,,77,0
145440,note_off,480,0,5,,,,,,,,,5,,,53,0
145440,note_on,0,0,1,,,,,,,,,1,,,74,51
145440,note_on,0,0,5,,,,,,,,,5,,,57,51
145680,note_off,240,0,1,,,,,,,,,1,,,74,0
145680,note_on,240,0,3,,,,,,,,,3,,,62,54
145680,note_on,0,0,1,,,,,,,,,1,,,86,54
145860,set_tempo,900,1,0,,,,,,517241,,,,,,,
145920,note_off,240,0,1,,,,,,,,,1,,,86,0
145920,note_on,0,0,1,,,,,,,,,1,,,82,59
145920,set_tempo,60,1,0,,,,,,508474,,,,,,,
145920,note_off,240,0,3,,,,,,,,,3,,,62,0
145920,note_off,480,0,5,,,,,,,,,5,,,57,0
145920,note_on,0,0,5,,,,,,,,,5,,,55,59
146160,note_on,240,0,3,,,,,,,,,3,,,62,57
146400,note_off,480,0,5,,,,,,,,,5,,,55,0
146400,note_off,240,0,3,,,,,,,,,3,,,62,0
146400,note_on,0,0,5,,,,,,,,,5,,,58,55
146640,note_on,240,0,3,,,,,,,,,3,,,62,53
146820,note_off,900,0,1,,,,,,,,,1,,,82,0
146830,note_off,190,0,3,,,,,,,,,3,,,62,0
146840,note_off,440,0,5,,,,,,,,,5,,,58,0
146880,note_on,40,0,5,,,,,,,,,5,,,53,56
146880,note_on,60,0,1,,,,,,,,,1,,,81,56
147120,note_on,0,0,1,,,,,,,,,1,,,77,59
147120,note_off,240,0,1,,,,,,,,,1,,,81,0
147120,note_on,290,0,3,,,,,,,,,3,,,62,59
147360,note_off,480,0,5,,,,,,,,,5,,,53,0
147360,note_on,0,0,1,,,,,,,,,1,,,74,63
147360,note_off,240,0,3,,,,,,,,,3,,,62,0
147360,note_on,0,0,5,,,,,,,,,5,,,57,63
147360,note_off,240,0,1,,,,,,,,,1,,,77,0
147600,note_on,240,0,3,,,,,,,,,3,,,62,66
147600,note_off,240,0,1,,,,,,,,,1,,,74,0
147600,note_on,0,0,1,,,,,,,,,1,,,86,66
147780,set_tempo,1860,1,0,,,,,,517241,,,,,,,
147840,note_off,240,0,1,,,,,,,,,1,,,86,0
147840,set_tempo,60,1,0,,,,,,508474,,,,,,,
147840,note_off,240,0,3,,,,,,,,,3,,,62,0
147840,note_on,0,0,5,,,,,,,,,5,,,55,70
147840,note_on,0,0,1,,,,,,,,,1,,,82,70
147840,note_off,480,0,5,,,,,,,,,5,,,57,0
148080,note_on,240,0,3,,,,,,,,,3,,,62,66
148320,note_off,240,0,3,,,,,,,,,3,,,62,0
148320,note_on,0,0,5,,,,,,,,,5,,,58,65
148320,note_off,480,0,5,,,,,,,,,5,,,55,0
148560,note_on,240,0,3,,,,,,,,,3,,,62,63
148745,note_off,185,0,3,,,,,,,,,3,,,62,0
148745,note_off,905,0,1,,,,,,,,,1,,,82,0
148745,note_off,425,0,5,,,,,,,,,5,,,58,0
148800,note_on,55,0,1,,,,,,,,,1,,,81,74
148800,note_on,55,0,5,,,,,,,,,5,,,53,71
149040,note_off,240,0,1,,,,,,,,,1,,,81,0
149040,note_on,295,0,3,,,,,,,,,3,,,62,74
149040,note_on,0,0,1,,,,,,,,,1,,,77,76
149280,note_on,0,0,1,,,,,,,,,1,,,74,78
149280,note_on,0,0,5,,,,,,,,,5,,,57,77
149280,note_off,240,0,1,,,,,,,,,1,,,77,0
149280,note_off,240,0,3,,,,,,,,,3,,,62,0
149280,note_off,480,0,5,,,,,,,,,5,,,53,0
149520,note_on,0,0,1,,,,,,,,,1,,,86,81
149520,note_off,240,0,1,,,,,,,,,1,,,74,0
149520,note_on,240,0,3,,,,,,,,,3,,,62,80
149700,set_tempo,1860,1,0,,,,,,517241,,,,,,,
149760,note_on,0,0,1,,,,,,,,,1,,,84,86
149760,note_off,240,0,1,,,,,,,,,1,,,86,0
149760,note_off,480,0,5,,,,,,,,,5,,,57,0
149760,note_on,0,0,5,,,,,,,,,5,,,55,86
149760,note_off,240,0,3,,,,,,,,,3,,,62,0
149760,set_tempo,60,1,0,,,,,,508474,,,,,,,
150000,note_on,240,0,3,,,,,,,,,3,,,62,83
150000,note_on,0,0,1,,,,,,,,,1,,,82,83
150000,note_off,240,0,1,,,,,,,,,1,,,84,0
150156,note_off,156,0,1,,,,,,,,,1,,,82,0
150240,note_on,0,0,5,,,,,,,,,5,,,53,79
150240,note_off,480,0,5,,,,,,,,,5,,,55,0
150240,note_off,240,0,3,,,,,,,,,3,,,62,0
150240,note_on,84,0,1,,,,,,,,,1,,,82,79
150480,note_on,240,0,3,,,,,,,,,3,,,62,76
150480,note_on,0,0,1,,,,,,,,,1,,,81,76
150480,note_off,240,0,1,,,,,,,,,1,,,82,0
150636,note_off,156,0,1,,,,,,,,,1,,,81,0
150720,note_on,0,0,5,,,,,,,,,5,,,52,72
150720,note_on,84,0,1,,,,,,,,,1,,,81,72
150720,note_off,240,0,3,,,,,,,,,3,,,62,0
150720,note_off,480,0,5,,,,,,,,,5,,,53,0
150960,note_on,240,0,3,,,,,,,,,3,,,61,69
150960,note_off,240,0,1,,,,,,,,,1,,,81,0
150960,note_on,0,0,1,,,,,,,,,1,,,79,69
151116,note_off,156,0,1,,,,,,,,,1,,,79,0
151200,note_off,480,0,5,,,,,,,,,5,,,52,0
151200,note_on,0,0,5,,,,,,,,,5,,,50,65
151200,note_on,84,0,1,,,,,,,,,1,,,79,65
151200,note_off,240,0,3,,,,,,,,,3,,,61,0
151440,note_on,0,0,1,,,,,,,,,1,,,77,62
151440,note_off,240,0,1,,,,,,,,,1,,,79,0
151440,note_on,240,0,3,,,,,,,,,3,,,62,62
151560,set_tempo,1800,1,0,,,,,,517241,,,,,,,
151596,note_off,156,0,1,,,,,,,,,1,,,77,0
151680,note_off,240,0,3,,,,,,,,,3,,,62,0
151680,note_on,0,0,3,,,,,,,,,3,,,62,58
151680,note_off,480,0,5,,,,,,,,,5,,,50,0
151680,note_on,0,0,5,,,,,,,,,5,,,57,58
151680,note_on,84,0,1,,,,,,,,,1,,,77,58
152160,set_tempo,600,1,0,,,,,,550458,,,,,,,
152160,note_on,0,0,1,,,,,,,,,1,,,76,48
152160,note_off,480,0,1,,,,,,,,,1,,,77,0
152160,note_on,0,0,3,,,,,,,,,3,,,61,47
152160,note_off,480,0,3,,,,,,,,,3,,,62,0
152395,note_off,715,0,5,,,,,,,,,5,,,57,0
152400,note_off,240,0,1,,,,,,,,,1,,,76,0
152400,note_off,240,0,3,,,,,,,,,3,,,61,0
152640,control_change,240,0,1,,,,,,,64,0,1,,,,
152640,note_on,0,0,1,,,,,,,,,1,,,81,46
152640,control_change,11520,0,4,,,,,,,64,0,4,,,,
152640,note_on,0,0,5,,,,,,,,,5,,,62,46
152640,set_tempo,480,1,0,,,,,,508474,,,,,,,
152640,control_change,245,0,5,,,,,,,64,0,5,,,,
152640,control_change,11520,0,2,,,,,,,64,0,2,,,,
152880,note_on,480,0,3,,,,,,,,,3,,,65,48
153120,note_on,0,0,5,,,,,,,,,5,,,62,49
153120,note_off,480,0,1,,,,,,,,,1,,,81,0
153120,note_on,0,0,1,,,,,,,,,1,,,82,49
153120,note_off,480,0,5,,,,,,,,,5,,,62,0
153127,note_off,247,0,3,,,,,,,,,3,,,65,0
153360,note_on,0,0,1,,,,,,,,,1,,,81,50
153360,note_off,240,0,1,,,,,,,,,1,,,82,0
153360,note_on,233,0,3,,,,,,,,,3,,,65,50
153550,set_tempo,910,1,0,,,,,,517241,,,,,,,
153600,note_on,0,0,5,,,,,,,,,5,,,64,52
153600,note_off,240,0,3,,,,,,,,,3,,,65,0
153600,note_on,0,0,1,,,,,,,,,1,,,81,52
153600,set_tempo,50,1,0,,,,,,508474,,,,,,,
153600,note_off,240,0,1,,,,,,,,,1,,,81,0
153600,note_off,480,0,5,,,,,,,,,5,,,62,0
153840,note_on,240,0,3,,,,,,,,,3,,,67,50
154080,note_off,480,0,5,,,,,,,,,5,,,64,0
154080,note_on,0,0,1,,,,,,,,,1,,,73,48
154080,note_off,480,0,1,,,,,,,,,1,,,81,0
154080,note_off,240,0,3,,,,,,,,,3,,,67,0
154080,note_on,0,0,5,,,,,,,,,5,,,64,48
154236,note_off,156,0,1,,,,,,,,,1,,,73,0
154320,note_on,240,0,3,,,,,,,,,3,,,67,49
154320,note_on,84,0,1,,,,,,,,,1,,,74,49
154476,note_off,156,0,1,,,,,,,,,1,,,74,0
154560,note_on,0,0,5,,,,,,,,,5,,,61,51
154560,note_off,480,0,5,,,,,,,,,5,,,64,0
154560,note_on,84,0,1,,,,,,,,,1,,,76,51
154560,note_off,240,0,3,,,,,,,,,3,,,67,0
154800,note_off,240,0,1,,,,,,,,,1,,,76,0
154800,note_on,0,0,1,,,,,,,,,1,,,73,52
154800,note_on,240,0,3,,,,,,,,,3,,,64,52
155040,note_on,0,0,5,,,,,,,,,5,,,61,54
155040,note_off,240,0,3,,,,,,,,,3,,,64,0
155040,note_off,240,0,1,,,,,,,,,1,,,73,0
155040,note_on,0,0,1,,,,,,,,,1,,,69,54
155040,note_off,480,0,5,,,,,,,,,5,,,61,0
155280,note_off,240,0,1,,,,,,,,,1,,,69,0
155280,note_on,0,0,1,,,,,,,,,1,,,81,56
155280,note_on,240,0,3,,,,,,,,,3,,,64,56
155460,set_tempo,1860,1,0,,,,,,517241,,,,,,,
155520,note_off,240,0,1,,,,,,,,,1,,,81,0
155520,note_on,0,0,5,,,,,,,,,5,,,62,58
155520,note_off,480,0,5,,,,,,,,,5,,,61,0
155520,set_tempo,60,1,0,,,,,,508474,,,,,,,
155520,note_off,240,0,3,,,,,,,,,3,,,64,0
155520,note_on,0,0,1,,,,,,,,,1,,,79,58
155760,note_on,240,0,3,,,,,,,,,3,,,65,54
156000,note_off,480,0,1,,,,,,,,,1,,,79,0
156000,note_on,0,0,1,,,,,,,,,1,,,77,51
156000,note_off,240,0,3,,,,,,,,,3,,,65,0
156000,note_off,480,0,5,,,,,,,,,5,,,62,0
156000,note_on,0,0,5,,,,,,,,,5,,,62,51
156240,note_on,240,0,3,,,,,,,,,3,,,65,47
156375,set_tempo,855,1,0,,,,,,517241,,,,,,,
156420,note_off,420,0,5,,,,,,,,,5,,,62,0
156425,note_off,185,0,3,,,,,,,,,3,,,65,0
156425,note_off,425,0,1,,,,,,,,,1,,,77,0
156480,note_on,60,0,5,,,,,,,,,5,,,53,47
156480,set_tempo,105,1,0,,,,,,508474,,,,,,,
156480,note_on,55,0,1,,,,,,,,,1,,,81,47
156720,note_off,240,0,1,,,,,,,,,1,,,81,0
156720,note_on,0,0,1,,,,,,,,,1,,,77,49
156720,note_on,295,0,3,,,,,,,,,3,,,62,49
156960,note_on,0,0,1,,,,,,,,,1,,,74,51
156960,note_off,240,0,1,,,,,,,,,1,,,77,0
156960,note_off,480,0,5,,,,,,,,,5,,,53,0
156960,note_off,240,0,3,,,,,,,,,3,,,62,0
156960,note_on,0,0,5,,,,,,,,,5,,,57,51
157200,note_off,240,0,1,,,,,,,,,1,,,74,0
157200,note_on,0,0,1,,,,,,,,,1,,,86,54
157200,note_on,240,0,3,,,,,,,,,3,,,62,54
157380,set_tempo,900,1,0,,,,,,517241,,,,,,,
157440,set_tempo,60,1,0,,,,,,508474,,,,,,,
157440,note_off,480,0,5,,,,,,,,,5,,,57,0
157440,note_on,0,0,1,,,,,,,,,1,,,82,59
157440,note_off,240,0,3,,,,,,,,,3,,,62,0
157440,note_on,0,0,5,,,,,,,,,5,,,55,59
157440,note_off,240,0,1,,,,,,,,,1,,,86,0
157680,note_on,240,0,3,,,,,,,,,3,,,62,57
157920,note_off,480,0,5,,,,,,,,,5,,,55,0
157920,note_on,0,0,5,,,,,,,,,5,,,58,55
157920,note_off,240,0,3,,,,,,,,,3,,,62,0
158160,note_on,240,0,3,,,,,,,,,3,,,62,53
158340,note_off,900,0,1,,,,,,,,,1,,,82,0
158350,note_off,190,0,3,,,,,,,,,3,,,62,0
158360,note_off,440,0,5,,,,,,,,,5,,,58,0
158400,note_on,40,0,5,,,,,,,,,5,,,53,56
158400,note_on,60,0,1,,,,,,,,,1,,,81,56
158640,note_on,290,0,3,,,,,,,,,3,,,62,59
158640,note_on,0,0,1,,,,,,,,,1,,,77,59
158640,note_off,240,0,1,,,,,,,,,1,,,81,0
158880,note_off,240,0,1,,,,,,,,,1,,,77,0
158880,note_off,240,0,3,,,,,,,,,3,,,62,0
158880,note_on,0,0,5,,,,,,,,,5,,,57,63
158880,note_off,480,0,5,,,,,,,,,5,,,53,0
158880,note_on,0,0,1,,,,,,,,,1,,,74,63
159120,note_off,240,0,1,,,,,,,,,1,,,74,0
159120,note_on,0,0,1,,,,,,,,,1,,,86,66
159120,note_on,240,0,3,,,,,,,,,3,,,62,66
159300,set_tempo,1860,1,0,,,,,,517241,,,,,,,
159360,note_off,240,0,3,,,,,,,,,3,,,62,0
159360,set_tempo,60,1,0,,,,,,508474,,,,,,,
159360,note_on,0,0,1,,,,,,,,,1,,,82,70
159360,note_off,240,0,1,,,,,,,,,1,,,86,0
159360,note_on,0,0,5,,,,,,,,,5,,,55,70
159360,note_off,480,0,5,,,,,,,,,5,,,57,0
159600,note_on,240,0,3,,,,,,,,,3,,,62,66
159840,note_off,240,0,3,,,,,,,,,3,,,62,0
159840,note_on,0,0,5,,,,,,,,,5,,,58,65
159840,note_off,480,0,5,,,,,,,,,5,,,55,0
160080,note_on,240,0,3,,,,,,,,,3,,,62,63
160265,note_off,425,0,5,,,,,,,,,5,,,58,0
160265,note_off,185,0,3,,,,,,,,,3,,,62,0
160265,note_off,905,0,1,,,,,,,,,1,,,82,0
160320,note_on,55,0,1,,,,,,,,,1,,,81,74
160320,note_on,55,0,5,,,,,,,,,5,,,53,71
160560,note_on,0,0,1,,,,,,,,,1,,,77,76
160560,note_off,240,0,1,,,,,,,,,1,,,81,0
160560,note_on,295,0,3,,,,,,,,,3,,,62,74
160800,note_off,240,0,1,,,,,,,,,1,,,77,0
160800,note_on,0,0,5,,,,,,,,,5,,,57,77
160800,note_off,480,0,5,,,,,,,,,5,,,53,0
160800,note_on,0,0,1,,,,,,,,,1,,,74,78
160800,note_off,240,0,3,,,,,,,,,3,,,62,0
161040,note_off,240,0,1,,,,,,,,,1,,,74,0
161040,note_on,0,0,1,,,,,,,,,1,,,86,81
161040,note_on,240,0,3,,,,,,,,,3,,,62,80
161220,set_tempo,1860,1,0,,,,,,517241,,,,,,,
161280,note_on,0,0,5,,,,,,,,,5,,,55,86
161280,note_off,240,0,3,,,,,,,,,3,,,62,0
161280,note_off,240,0,1,,,,,,,,,1,,,86,0
161280,set_tempo,60,1,0,,,,,,508474,,,,,,,
161280,note_on,0,0,1,,,,,,,,,1,,,84,86
161280,note_off,480,0,5,,,,,,,,,5,,,57,0
161520,note_on,240,0,3,,,,,,,,,3,,,62,83
161520,note_off,240,0,1,,,,,,,,,1,,,84,0
161520,note_on,0,0,1,,,,,,,,,1,,,82,83
161676,note_off,156,0,1,,,,,,,,,1,,,82,0
161760,note_off,240,0,3,,,,,,,,,3,,,62,0
161760,note_off,480,0,5,,,,,,,,,5,,,55,0
161760,note_on,0,0,5,,,,,,,,,5,,,53,79
161760,note_on,84,0,1,,,,,,,,,1,,,82,79
162000,note_off,240,0,1,,,,,,,,,1,,,82,0
162000,note_on,240,0,3,,,,,,,,,3,,,62,76
162000,note_on,0,0,1,,,,,,,,,1,,,81,76
162156,note_off,156,0,1,,,,,,,,,1,,,81,0
162240,note_off,240,0,3,,,,,,,,,3,,,62,0
162240,note_on,0,0,5,,,,,,,,,5,,,52,72
162240,note_off,480,0,5,,,,,,,,,5,,,53,0
162240,note_on,84,0,1,,,,,,,,,1,,,81,72
162480,note_off,240,0,1,,,,,,,,,1,,,81,0
162480,note_on,0,0,1,,,,,,,,,1,,,79,69
162480,note_on,240,0,3,,,,,,,,,3,,,61,69
162636,note_off,156,0,1,,,,,,,,,1,,,79,0
162720,note_off,240,0,3,,,,,,,,,3,,,61,0
162720,note_on,84,0,1,,,,,,,,,1,,,79,65
162720,note_off,480,0,5,,,,,,,,,5,,,52,0
162720,note_on,0,0,5,,,,,,,,,5,,,50,65
162960,note_off,240,0,1,,,,,,,,,1,,,79,0
162960,note_on,0,0,1,,,,,,,,,1,,,77,62
162960,note_on,240,0,3,,,,,,,,,3,,,62,62
163116,note_off,156,0,1,,,,,,,,,1,,,77,0
163140,set_tempo,1860,1,0,,,,,,517241,,,,,,,
163200,note_off,240,0,3,,,,,,,,,3,,,62,0
163200,note_on,0,0,3,,,,,,,,,3,,,62,58
163200,note_on,84,0,1,,,,,,,,,1,,,77,58
163200,note_off,480,0,5,,,,,,,,,5,,,50,0
163200,note_on,0,0,5,,,,,,,,,5,,,57,58
163680,note_off,480,0,3,,,,,,,,,3,,,62,0
163680,note_on,0,0,3,,,,,,,,,3,,,61,47
163680,note_on,0,0,1,,,,,,,,,1,,,76,48
163680,note_off,480,0,1,,,,,,,,,1,,,77,0
163680,set_tempo,540,1,0,,,,,,550458,,,,,,,
163915,note_off,715,0,5,,,,,,,,,5,,,57,0
163920,note_off,240,0,3,,,,,,,,,3,,,61,0
163920,note_off,240,0,1,,,,,,,,,1,,,76,0
164160,set_tempo,480,1,0,,,,,,508474,,,,,,,
164160,control_change,11520,0,4,,,,,,,64,0,4,,,,
164160,note_on,0,0,1,,,,,,,,,1,,,81,47
164160,control_change,245,0,5,,,,,,,64,0,5,,,,
164160,note_on,0,0,5,,,,,,,,,5,,,62,47
164160,control_change,240,0,1,,,,,,,64,0,1,,,,
164160,control_change,11520,0,2,,,,,,,64,0,2,,,,
164400,note_on,480,0,3,,,,,,,,,3,,,65,49
164640,note_on,0,0,1,,,,,,,,,1,,,82,50
164640,note_off,480,0,5,,,,,,,,,5,,,62,0
164640,note_on,0,0,5,,,,,,,,,5,,,62,50
164640,note_off,480,0,1,,,,,,,,,1,,,81,0
164640,note_off,240,0,3,,,,,,,,,3,,,65,0
164880,note_off,240,0,1,,,,,,,,,1,,,82,0
164880,note_on,240,0,3,,,,,,,,,3,,,65,52
164880,note_on,0,0,1,,,,,,,,,1,,,81,52
165060,set_tempo,900,1,0,,,,,,517241,,,,,,,
165120,note_on,0,0,1,,,,,,,,,1,,,84,57
165120,note_on,0,0,5,,,,,,,,,5,,,57,57
165120,note_off,480,0,5,,,,,,,,,5,,,62,0
165120,note_off,240,0,1,,,,,,,,,1,,,81,0
165120,set_tempo,60,1,0,,,,,,508474,,,,,,,
165120,note_off,240,0,3,,,,,,,,,3,,,65,0
165360,note_on,240,0,3,,,,,,,,,3,,,64,52
165600,note_on,0,0,5,,,,,,,,,5,,,57,48
165600,note_off,480,0,5,,,,,,,,,5,,,57,0
165600,note_off,240,0,3,,,,,,,,,3,,,64,0
165840,note_on,240,0,3,,,,,,,,,3,,,64,45
166020,note_off,180,0,3,,,,,,,,,3,,,64,0
166020,note_off,420,0,5,,,,,,,,,5,,,57,0
166020,note_off,900,0,1,,,,,,,,,1,,,84,0
166080,note_on,60,0,5,,,,,,,,,5,,,58,45
166080,note_on,60,0,1,,,,,,,,,1,,,77,45
166320,note_on,300,0,3,,,,,,,,,3,,,62,47
166560,note_off,240,0,3,,,,,,,,,3,,,62,0
166560,note_on,0,0,1,,,,,,,,,1,,,79,48
166560,note_off,480,0,1,,,,,,,,,1,,,77,0
166560,note_on,0,0,5,,,,,,,,,5,,,58,48
166560,note_off,480,0,5,,,,,,,,,5,,,58,0
166800,note_on,0,0,1,,,,,,,,,1,,,77,50
166800,note_off,240,0,1,,,,,,,,,1,,,79,0
166800,note_on,240,0,3,,,,,,,,,3,,,62,50
166980,set_tempo,1860,1,0,,,,,,517241,,,,,,,
167040,set_tempo,60,1,0,,,,,,508474,,,,,,,
167040,note_off,480,0,5,,,,,,,,,5,,,58,0
167040,note_off,240,0,3,,,,,,,,,3,,,62,0
167040,note_on,0,0,5,,,,,,,,,5,,,53,53
167040,note_off,240,0,1,,,,,,,,,1,,,77,0
167040,note_on,0,0,1,,,,,,,,,1,,,81,53
167280,note_on,240,0,3,,,,,,,,,3,,,60,49
167520,note_off,480,0,5,,,,,,,,,5,,,53,0
167520,note_on,0,0,5,,,,,,,,,5,,,53,46
167520,note_off,240,0,3,,,,,,,,,3,,,60,0
167760,note_on,240,0,3,,,,,,,,,3,,,60,44
167940,note_off,900,0,1,,,,,,,,,1,,,81,0
167940,note_off,420,0,5,,,,,,,,,5,,,53,0
167940,note_off,180,0,3,,,,,,,,,3,,,60,0
168000,note_on,60,0,1,,,,,,,,,1,,,86,64
168000,note_on,60,0,5,,,,,,,,,5,,,58,64
168240,note_on,4080,0,2,,,,,,,,,2,,,77,66
168480,note_off,480,0,5,,,,,,,,,5,,,58,0
168480,note_on,0,0,5,,,,,,,,,5,,,62,68
168480,note_off,240,0,2,,,,,,,,,2,,,77,0
168480,note_off,480,0,1,,,,,,,,,1,,,86,0
168480,note_on,0,0,1,,,,,,,,,1,,,86,68
168720,note_on,240,0,2,,,,,,,,,2,,,77,69
168720,note_on,780,0,3,,,,,,,,,3,,,65,69
168900,set_tempo,1860,1,0,,,,,,517241,,,,,,,
168960,note_off,240,0,2,,,,,,,,,2,,,77,0
168960,note_off,480,0,5,,,,,,,,,5,,,62,0
168960,set_tempo,60,1,0,,,,,,508474,,,,,,,
168960,note_on,0,0,1,,,,,,,,,1,,,84,73
168960,note_off,240,0,3,,,,,,,,,3,,,65,0
168960,note_on,0,0,5,,,,,,,,,5,,,57,73
168960,note_off,480,0,1,,,,,,,,,1,,,86,0
169200,note_on,240,0,2,,,,,,,,,2,,,77,68
169440,note_off,480,0,1,,,,,,,,,1,,,84,0
169440,note_on,0,0,1,,,,,,,,,1,,,84,64
169440,note_off,240,0,2,,,,,,,,,2,,,77,0
169680,note_on,240,0,2,,,,,,,,,2,,,77,60
169860,note_off,900,0,5,,,,,,,,,5,,,57,0
169860,note_off,180,0,2,,,,,,,,,2,,,77,0
169875,note_off,435,0,1,,,,,,,,,1,,,84,0
169920,note_on,45,0,1,,,,,,,,,1,,,82,59
169920,note_on,60,0,5,,,,,,,,,5,,,55,59
170160,note_on,300,0,2,,,,,,,,,2,,,74,61
170400,note_on,0,0,5,,,,,,,,,5,,,58,63
170400,note_off,480,0,5,,,,,,,,,5,,,55,0
170400,note_on,0,0,1,,,,,,,,,1,,,82,63
170400,note_off,240,0,2,,,,,,,,,2,,,74,0
170400,note_off,480,0,1,,,,,,,,,1,,,82,0
170640,note_on,240,0,2,,,,,,,,,2,,,74,65
170640,note_on,1680,0,3,,,,,,,,,3,,,62,65
170820,set_tempo,1860,1,0,,,,,,517241,,,,,,,
170880,note_off,480,0,5,,,,,,,,,5,,,58,0
170880,note_off,240,0,3,,,,,,,,,3,,,62,0
170880,set_tempo,60,1,0,,,,,,508474,,,,,,,
170880,note_off,240,0,2,,,,,,,,,2,,,74,0
170880,note_on,0,0,1,,,,,,,,,1,,,81,67
170880,note_off,480,0,1,,,,,,,,,1,,,82,0
170880,note_on,0,0,5,,,,,,,,,5,,,53,67
171120,note_on,240,0,2,,,,,,,,,2,,,74,64
171360,note_on,0,0,1,,,,,,,,,1,,,81,63
171360,note_off,480,0,1,,,,,,,,,1,,,81,0
171360,note_off,240,0,2,,,,,,,,,2,,,74,0
171600,note_on,240,0,2,,,,,,,,,2,,,74,61
171780,note_off,900,0,5,,,,,,,,,5,,,53,0
171785,note_off,185,0,2,,,,,,,,,2,,,74,0
171787,note_off,427,0,1,,,,,,,,,1,,,81,0
171840,note_on,60,0,5,,,,,,,,,5,,,49,78
171840,note_on,53,0,1,,,,,,,,,1,,,79,78
172080,note_on,295,0,2,,,,,,,,,2,,,76,80
172200,note_off,360,0,1,,,,,,,,,1,,,79,0
172252,note_off,412,0,5,,,,,,,,,5,,,49,0
172320,note_off,240,0,2,,,,,,,,,2,,,76,0
172320,note_on,120,0,1,,,,,,,,,1,,,77,82
172320,note_on,68,0,5,,,,,,,,,5,,,50,82
172560,note_on,240,0,2,,,,,,,,,2,,,74,85
172687,note_off,367,0,5,,,,,,,,,5,,,50,0
172740,set_tempo,1860,1,0,,,,,,517241,,,,,,,
172800,note_on,113,0,5,,,,,,,,,5,,,45,87
172800,set_tempo,60,1,0,,,,,,508474,,,,,,,
172800,note_on,0,0,1,,,,,,,,,1,,,76,87
172800,note_off,240,0,2,,,,,,,,,2,,,74,0
172800,note_off,480,0,1,,,,,,,,,1,,,77,0
173040,note_on,240,0,1,,,,,,,,,1,,,73,78
173160,note_off,120,0,1,,,,,,,,,1,,,76,0
173280,note_off,480,0,5,,,,,,,,,5,,,45,0
173280,note_off,120,0,1,,,,,,,,,1,,,73,0
173280,note_on,0,0,1,,,,,,,,,1,,,69,70
173475,set_tempo,675,1,0,,,,,,517241,,,,,,,
173520,note_on,0,0,1,,,,,,,,,1,,,81,40
173520,note_off,240,0,1,,,,,,,,,1,,,69,0
173710,note_off,190,0,1,,,,,,,,,1,,,81,0
173760,note_on,50,0,1,,,,,,,,,1,,,81,42
173760,note_on,480,0,5,,,,,,,,,5,,,62,42
173760,set_tempo,285,1,0,,,,,,508474,,,,,,,
174000,note_on,3120,0,3,,,,,,,,,3,,,65,44
174240,note_off,480,0,1,,,,,,,,,1,,,81,0
174240,note_on,0,0,1,,,,,,,,,1,,,82,46
174240,note_off,240,0,3,,,,,,,,,3,,,65,0
174240,note_off,480,0,5,,,,,,,,,5,,,62,0
174240,note_on,0,0,5,,,,,,,,,5,,,62,46
174480,note_on,0,0,1,,,,,,,,,1,,,81,47
174480,note_on,240,0,3,,,,,,,,,3,,,65,47
174480,note_off,240,0,1,,,,,,,,,1,,,82,0
174660,set_tempo,900,1,0,,,,,,517241,,,,,,,
174720,set_tempo,60,1,0,,,,,,508474,,,,,,,
174720,note_off,480,0,5,,,,,,,,,5,,,62,0
174720,note_on,0,0,5,,,,,,,,,5,,,64,52
174720,note_off,240,0,3,,,,,,,,,3,,,65,0
174720,note_off,240,0,1,,,,,,,,,1,,,81,0
174720,note_on,0,0,1,,,,,,,,,1,,,81,52
174960,note_on,240,0,3,,,,,,,,,3,,,67,50
175195,note_off,235,0,3,,,,,,,,,3,,,67,0
175200,note_off,480,0,1,,,,,,,,,1,,,81,0
175200,note_on,0,0,1,,,,,,,,,1,,,73,47
175200,note_off,480,0,5,,,,,,,,,5,,,64,0
175200,note_on,0,0,5,,,,,,,,,5,,,64,47
175385,note_off,185,0,1,,,,,,,,,1,,,73,0
175440,note_on,245,0,3,,,,,,,,,3,,,67,45
175440,note_on,55,0,1,,,,,,,,,1,,,74,45
175625,note_off,185,0,1,,,,,,,,,1,,,74,0
175680,note_on,55,0,1,,,,,,,,,1,,,76,45
175680,note_off,240,0,3,,,,,,,,,3,,,67,0
175680,note_on,0,0,5,,,,,,,,,5,,,61,45
175680,note_off,480,0,5,,,,,,,,,5,,,64,0
175920,note_on,0,0,1,,,,,,,,,1,,,73,48
175920,note_off,240,0,1,,,,,,,,,1,,,76,0
175920,note_on,240,0,3,,,,,,,,,3,,,64,48
176160,note_off,480,0,5,,,,,,,,,5,,,61,0
176160,note_on,0,0,5,,,,,,,,,5,,,61,50
176160,note_off,240,0,3,,,,,,,,,3,,,64,0
176160,note_off,240,0,1,,,,,,,,,1,,,73,0
176160,note_on,0,0,1,,,,,,,,,1,,,69,50
176400,note_off,240,0,1,,,,,,,,,1,,,69,0
176400,note_on,0,0,1,,,,,,,,,1,,,81,53
176400,note_on,240,0,3,,,,,,,,,3,,,64,53
176580,set_tempo,1860,1,0,,,,,,517241,,,,,,,
176640,note_on,0,0,5,,,,,,,,,5,,,62,55
176640,note_off,240,0,3,,,,,,,,,3,,,64,0
176640,note_off,480,0,5,,,,,,,,,5,,,61,0
176640,note_off,240,0,1,,,,,,,,,1,,,81,0
176640,note_on,0,0,1,,,,,,,,,1,,,79,55
176640,set_tempo,60,1,0,,,,,,508474,,,,,,,
176880,note_on,240,0,3,,,,,,,,,3,,,65,51
177120,note_off,240,0,3,,,,,,,,,3,,,65,0
177120,note_on,0,0,5,,,,,,,,,5,,,62,48
177120,note_on,0,0,1,,,,,,,,,1,,,77,48
177120,note_off,480,0,1,,,,,,,,,1,,,79,0
177120,note_off,480,0,5,,,,,,,,,5,,,62,0
177360,note_on,240,0,3,,,,,,,,,3,,,65,45
177535,note_off,415,0,5,,,,,,,,,5,,,62,0
177540,note_off,420,0,1,,,,,,,,,1,,,77,0
177545,note_off,185,0,3,,,,,,,,,3,,,65,0
177600,note_on,60,0,1,,,,,,,,,1,,,74,60
177600,note_on,65,0,5,,,,,,,,,5,,,53,60
177840,note_on,295,0,3,,,,,,,,,3,,,62,62
178080,note_off,480,0,5,,,,,,,,,5,,,53,0
178080,note_off,240,0,3,,,,,,,,,3,,,62,0
178080,note_on,0,0,5,,,,,,,,,5,,,57,65
178080,note_off,480,0,1,,,,,,,,,1,,,74,0
178080,note_on,0,0,1,,,,,,,,,1,,,86,65
178320,note_on,0,0,1,,,,,,,,,1,,,81,67
178320,note_on,240,0,3,,,,,,,,,3,,,62,67
178320,note_off,240,0,1,,,,,,,,,1,,,86,0
178500,set_tempo,1860,1,0,,,,,,517241,,,,,,,
178560,note_off,240,0,3,,,,,,,,,3,,,62,0
178560,note_on,0,0,1,,,,,,,,,1,,,82,73
178560,note_off,240,0,1,,,,,,,,,1,,,81,0
178560,note_off,480,0,5,,,,,,,,,5,,,57,0
178560,note_on,0,0,5,,,,,,,,,5,,,55,73
178560,set_tempo,60,1,0,,,,,,508474,,,,,,,
178800,note_on,240,0,3,,,,,,,,,3,,,62,71
179040,note_off,240,0,3,,,,,,,,,3,,,62,0
179040,note_on,0,0,5,,,,,,,,,5,,,58,69
179040,note_off,480,0,1,,,,,,,,,1,,,82,0
179040,note_on,0,0,1,,,,,,,,,1,,,79,69
179040,note_off,480,0,5,,,,,,,,,5,,,55,0
179280,note_off,240,0,1,,,,,,,,,1,,,79,0
179280,note_on,0,0,1,,,,,,,,,1,,,76,68
179280,note_on,240,0,3,,,,,,,,,3,,,64,68
179460,set_tempo,900,1,0,,,,,,517241,,,,,,,
179520,note_on,0,0,5,,,,,,,,,5,,,62,81
179520,note_off,240,0,3,,,,,,,,,3,,,64,0
179520,note_off,480,0,5,,,,,,,,,5,,,58,0
179520,note_off,240,0,1,,,,,,,,,1,,,76,0
179520,note_on,0,0,1,,,,,,,,,1,,,77,81
179760,note_on,0,0,1,,,,,,,,,1,,,81,78
179760,note_on,240,0,3,,,,,,,,,3,,,57,78
179760,note_off,240,0,1,,,,,,,,,1,,,77,0
180000,note_off,240,0,1,,,,,,,,,1,,,81,0
180000,note_on,0,0,1,,,,,,,,,1,,,79,76
180000,note_off,240,0,3,,,,,,,,,3,,,57,0
180000,note_on,0,0,5,,,,,,,,,5,,,61,76
180000,note_off,480,0,5,,,,,,,,,5,,,62,0
180240,note_off,240,0,1,,,,,,,,,1,,,79,0
180240,note_on,0,0,1,,,,,,,,,1,,,76,73
180240,note_on,240,0,3,,,,,,,,,3,,,57,73
180250,set_tempo,790,1,0,,,,,,526315,,,,,,,
180480,note_on,0,0,5,,,,,,,,,5,,,62,70
180480,note_off,480,0,5,,,,,,,,,5,,,61,0
180480,note_off,240,0,1,,,,,,,,,1,,,76,0
180480,note_on,0,0,1,,,,,,,,,1,,,74,70
180480,note_off,240,0,3,,,,,,,,,3,,,57,0
180720,note_on,0,0,5,,,,,,,,,5,,,57,62
180720,note_off,240,0,5,,,,,,,,,5,,,62,0
180960,note_on,0,0,5,,,,,,,,,5,,,50,56
180960,set_tempo,710,1,0,,,,,,571428,,,,,,,
180960,note_off,240,0,5,,,,,,,,,5,,,57,0
180960,note_off,480,0,1,,,,,,,,,1,,,74,0
181200,note_off,240,0,5,,,,,,,,,5,,,50,0
181440,note_on,0,0,1,,,,,,,,,1,,,81,47
181440,note_on,0,0,5,,,,,,,,,5,,,62,47
181440,control_change,240,0,5,,,,,,,64,0,5,,,,
181440,control_change,17280,0,4,,,,,,,64,0,4,,,,
181440,set_tempo,480,1,0,,,,,,508474,,,,,,,
181440,control_change,8640,0,2,,,,,,,64,0,2,,,,
181440,control_change,480,0,1,,,,,,,64,0,1,,,,
181680,note_on,1200,0,3,,,,,,,,,3,,,65,49
181920,note_on,0,0,5,,,,,,,,,5,,,62,50
181920,note_off,480,0,5,,,,,,,,,5,,,62,0
181920,note_off,240,0,3,,,,,,,,,3,,,65,0
181920,note_on,0,0,1,,,,,,,,,1,,,82,50
181920,note_off,480,0,1,,,,,,,,,1,,,81,0
182160,note_on,240,0,3,,,,,,,,,3,,,65,52
182160,note_on,0,0,1,,,,,,,,,1,,,81,52
182160,note_off,240,0,1,,,,,,,,,1,,,82,0
182340,set_tempo,900,1,0,,,,,,517241,,,,,,,
182400,note_off,240,0,3,,,,,,,,,3,,,65,0
182400,set_tempo,60,1,0,,,,,,508474,,,,,,,
182400,note_off,240,0,1,,,,,,,,,1,,,81,0
182400,note_on,0,0,1,,,,,,,,,1,,,84,57
182400,note_on,0,0,5,,,,,,,,,5,,,57,57
182400,note_off,480,0,5,,,,,,,,,5,,,62,0
182640,note_on,240,0,3,,,,,,,,,3,,,64,52
182880,note_off,480,0,5,,,,,,,,,5,,,57,0
182880,note_on,0,0,5,,,,,,,,,5,,,57,48
182880,note_off,240,0,3,,,,,,,,,3,,,64,0
183120,note_on,240,0,3,,,,,,,,,3,,,64,45
183300,note_off,900,0,1,,,,,,,,,1,,,84,0
183300,note_off,420,0,5,,,,,,,,,5,,,57,0
183300,note_off,180,0,3,,,,,,,,,3,,,64,0
183360,note_on,60,0,5,,,,,,,,,5,,,58,45
183360,note_on,60,0,1,,,,,,,,,1,,,77,45
183600,note_on,300,0,3,,,,,,,,,3,,,62,47
183840,note_off,480,0,1,,,,,,,,,1,,,77,0
183840,note_on,0,0,1,,,,,,,,,1,,,79,48
183840,note_off,240,0,3,,,,,,,,,3,,,62,0
183840,note_off,480,0,5,,,,,,,,,5,,,58,0
183840,note_on,0,0,5,,,,,,,,,5,,,58,48
184080,note_on,0,0,1,,,,,,,,,1,,,77,50
184080,note_off,240,0,1,,,,,,,,,1,,,79,0
184080,note_on,240,0,3,,,,,,,,,3,,,62,50
184260,set_tempo,1860,1,0,,,,,,517241,,,,,,,
184320,note_on,0,0,5,,,,,,,,,5,,,53,53
184320,note_off,480,0,5,,,,,,,,,5,,,58,0
184320,set_tempo,60,1,0,,,,,,508474,,,,,,,
184320,note_off,240,0,3,,,,,,,,,3,,,62,0
184320,note_off,240,0,1,,,,,,,,,1,,,77,0
184320,note_on,0,0,1,,,,,,,,,1,,,81,53
184560,note_on,240,0,3,,,,,,,,,3,,,60,49
184800,note_on,0,0,5,,,,,,,,,5,,,53,46
184800,note_off,480,0,5,,,,,,,,,5,,,53,0
184800,note_off,240,0,3,,,,,,,,,3,,,60,0
185040,note_on,240,0,3,,,,,,,,,3,,,60,44
185220,note_off,420,0,5,,,,,,,,,5,,,53,0
185220,note_off,180,0,3,,,,,,,,,3,,,60,0
185220,note_off,900,0,1,,,,,,,,,1,,,81,0
185280,note_on,60,0,1,,,,,,,,,1,,,86,64
185280,note_on,60,0,5,,,,,,,,,5,,,58,64
185520,note_on,4080,0,2,,,,,,,,,2,,,77,66
185760,note_off,240,0,2,,,,,,,,,2,,,77,0
185760,note_off,480,0,1,,,,,,,,,1,,,86,0
185760,note_on,0,0,5,,,,,,,,,5,,,62,68
185760,note_on,0,0,1,,,,,,,,,1,,,86,68
185760,note_off,480,0,5,,,,,,,,,5,,,58,0
186000,note_on,780,0,3,,,,,,,,,3,,,65,69
186000,note_on,240,0,2,,,,,,,,,2,,,77,69
186180,set_tempo,1860,1,0,,,,,,517241,,,,,,,
186240,note_off,480,0,5,,,,,,,,,5,,,62,0
186240,note_on,0,0,5,,,,,,,,,5,,,57,73
186240,note_off,240,0,2,,,,,,,,,2,,,77,0
186240,note_off,240,0,3,,,,,,,,,3,,,65,0
186240,set_tempo,60,1,0,,,,,,508474,,,,,,,
186240,note_off,480,0,1,,,,,,,,,1,,,86,0
186240,note_on,0,0,1,,,,,,,,,1,,,84,73
186480,note_on,240,0,2,,,,,,,,,2,,,77,68
186720,note_off,480,0,1,,,,,,,,,1,,,84,0
186720,note_on,0,0,1,,,,,,,,,1,,,84,64
186720,note_off,240,0,2,,,,,,,,,2,,,77,0
186960,note_on,240,0,2,,,,,,,,,2,,,77,60
187140,note_off,900,0,5,,,,,,,,,5,,,57,0
187140,note_off,180,0,2,,,,,,,,,2,,,77,0
187155,note_off,435,0,1,,,,,,,,,1,,,84,0
187200,note_on,45,0,1,,,,,,,,,1,,,82,59
187200,note_on,60,0,5,,,,,,,,,5,,,55,59
187440,note_on,300,0,2,,,,,,,,,2,,,74,61
187680,note_on,0,0,1,,,,,,,,,1,,,82,63
187680,note_off,240,0,2,,,,,,,,,2,,,74,0
187680,note_off,480,0,1,,,,,,,,,1,,,82,0
187680,note_on,0,0,5,,,,,,,,,5,,,58,63
187680,note_off,480,0,5,,,,,,,,,5,,,55,0
187920,note_on,1680,0,3,,,,,,,,,3,,,62,65
187920,note_on,240,0,2,,,,,,,,,2,,,74,65
188100,set_tempo,1860,1,0,,,,,,517241,,,,,,,
188160,note_off,240,0,2,,,,,,,,,2,,,74,0
188160,note_on,0,0,1,,,,,,,,,1,,,81,67
188160,set_tempo,60,1,0,,,,,,508474,,,,,,,
188160,note_off,480,0,1,,,,,,,,,1,,,82,0
188160,note_on,0,0,5,,,,,,,,,5,,,53,67
188160,note_off,480,0,5,,,,,,,,,5,,,58,0
188160,note_off,240,0,3,,,,,,,,,3,,,62,0
188400,note_on,240,0,2,,,,,,,,,2,,,74,64
188640,note_on,0,0,1,,,,,,,,,1,,,81,63
188640,note_off,480,0,1,,,,,,,,,1,,,81,0
188640,note_off,240,0,2,,,,,,,,,2,,,74,0
188880,note_on,240,0,2,,,,,,,,,2,,,74,61
189060,note_off,900,0,5,,,,,,,,,5,,,53,0
189065,note_off,185,0,2,,,,,,,,,2,,,74,0
189067,note_off,427,0,1,,,,,,,,,1,,,81,0
189120,note_on,60,0,5,,,,,,,,,5,,,49,78
189120,note_on,53,0,1,,,,,,,,,1,,,79,78
189360,note_on,295,0,2,,,,,,,,,2,,,76,80
189480,note_off,360,0,1,,,,,,,,,1,,,79,0
189532,note_off,412,0,5,,,,,,,,,5,,,49,0
189600,note_off,240,0,2,,,,,,,,,2,,,76,0
189600,note_on,68,0,5,,,,,,,,,5,,,50,82
189600,note_on,120,0,1,,,,,,,,,1,,,77,82
189840,note_on,0,0,1,,,,,,,,,1,,,74,85
189840,note_off,240,0,1,,,,,,,,,1,,,77,0
189967,note_off,367,0,5,,,,,,,,,5,,,50,0
190020,set_tempo,1860,1,0,,,,,,517241,,,,,,,
190080,note_on,113,0,5,,,,,,,,,5,,,45,87
190080,note_on,0,0,1,,,,,,,,,1,,,76,87
190080,note_off,240,0,1,,,,,,,,,1,,,74,0
190080,set_tempo,60,1,0,,,,,,508474,,,,,,,
190320,note_on,240,0,1,,,,,,,,,1,,,73,78
190440,note_off,120,0,1,,,,,,,,,1,,,76,0
190560,note_off,120,0,1,,,,,,,,,1,,,73,0
190560,note_on,0,0,1,,,,,,,,,1,,,69,70
190560,note_off,480,0,5,,,,,,,,,5,,,45,0
190747,set_tempo,667,1,0,,,,,,517241,,,,,,,
190800,note_off,240,0,1,,,,,,,,,1,,,69,0
190800,note_on,0,0,1,,,,,,,,,1,,,81,40
190990,note_off,190,0,1,,,,,,,,,1,,,81,0
191040,set_tempo,293,1,0,,,,,,508474,,,,,,,
191040,note_on,480,0,5,,,,,,,,,5,,,62,42
191040,note_on,50,0,1,,,,,,,,,1,,,81,42
191280,note_on,3120,0,3,,,,,,,,,3,,,65,44
191520,note_off,480,0,1,,,,,,,,,1,,,81,0
191520,note_off,480,0,5,,,,,,,,,5,,,62,0
191520,note_off,240,0,3,,,,,,,,,3,,,65,0
191520,note_on,0,0,1,,,,,,,,,1,,,82,46
191520,note_on,0,0,5,,,,,,,,,5,,,62,46
191760,note_on,0,0,1,,,,,,,,,1,,,81,47
191760,note_off,240,0,1,,,,,,,,,1,,,82,0
191760,note_on,240,0,3,,,,,,,,,3,,,65,47
191940,set_tempo,900,1,0,,,,,,517241,,,,,,,
192000,note_on,0,0,1,,,,,,,,,1,,,81,52
192000,set_tempo,60,1,0,,,,,,508474,,,,,,,
192000,note_on,0,0,5,,,,,,,,,5,,,64,52
192000,note_off,480,0,5,,,,,,,,,5,,,62,0
192000,note_off,240,0,3,,,,,,,,,3,,,65,0
192000,note_off,240,0,1,,,,,,,,,1,,,81,0
192240,note_on,240,0,3,,,,,,,,,3,,,67,50
192475,note_off,235,0,3,,,,,,,,,3,,,67,0
192480,note_on,0,0,1,,,,,,,,,1,,,73,47
192480,note_on,0,0,5,,,,,,,,,5,,,64,47
192480,note_off,480,0,5,,,,,,,,,5,,,64,0
192480,note_off,480,0,1,,,,,,,,,1,,,81,0
192665,note_off,185,0,1,,,,,,,,,1,,,73,0
192720,note_on,55,0,1,,,,,,,,,1,,,74,45
192720,note_on,245,0,3,,,,,,,,,3,,,67,45
192905,note_off,185,0,1,,,,,,,,,1,,,74,0
192960,note_on,0,0,5,,,,,,,,,5,,,61,45
192960,note_off,480,0,5,,,,,,,,,5,,,64,0
192960,note_off,240,0,3,,,,,,,,,3,,,67,0
192960,note_on,55,0,1,,,,,,,,,1,,,76,45
193200,note_off,240,0,1,,,,,,,,,1,,,76,0
193200,note_on,0,0,1,,,,,,,,,1,,,73,48
193200,note_on,240,0,3,,,,,,,,,3,,,64,48
193440,note_off,480,0,5,,,,,,,,,5,,,61,0
193440,note_off,240,0,3,,,,,,,,,3,,,64,0
193440,note_off,240,0,1,,,,,,,,,1,,,73,0
193440,note_on,0,0,1,,,,,,,,,1,,,69,50
193440,note_on,0,0,5,,,,,,,,,5,,,61,50
193680,note_on,0,0,1,,,,,,,,,1,,,81,53
193680,note_off,240,0,1,,,,,,,,,1,,,69,0
193680,note_on,240,0,3,,,,,,,,,3,,,64,53
193860,set_tempo,1860,1,0,,,,,,517241,,,,,,,
193920,note_on,0,0,1,,,,,,,,,1,,,79,55
193920,note_on,0,0,5,,,,,,,,,5,,,62,55
193920,note_off,480,0,5,,,,,,,,,5,,,61,0
193920,set_tempo,60,1,0,,,,,,508474,,,,,,,
193920,note_off,240,0,3,,,,,,,,,3,,,64,0
193920,note_off,240,0,1,,,,,,,,,1,,,81,0
194160,note_on,240,0,3,,,,,,,,,3,,,65,51
194400,note_off,240,0,3,,,,,,,,,3,,,65,0
194400,note_on,0,0,1,,,,,,,,,1,,,77,48
194400,note_off,480,0,5,,,,,,,,,5,,,62,0
194400,note_on,0,0,5,,,,,,,,,5,,,62,48
194400,note_off,480,0,1,,,,,,,,,1,,,79,0
194640,note_on,240,0,3,,,,,,,,,3,,,65,45
194815,note_off,415,0,5,,,,,,,,,5,,,62,0
194820,note_off,420,0,1,,,,,,,,,1,,,77,0
194825,note_off,185,0,3,,,,,,,,,3,,,65,0
194880,note_on,60,0,1,,,,,,,,,1,,,74,60
194880,note_on,65,0,5,,,,,,,,,5,,,53,60
195120,note_on,295,0,3,,,,,,,,,3,,,62,62
195360,note_off,240,0,3,,,,,,,,,3,,,62,0
195360,note_off,480,0,5,,,,,,,,,5,,,53,0
195360,note_on,0,0,1,,,,,,,,,1,,,86,65
195360,note_off,480,0,1,,,,,,,,,1,,,74,0
195360,note_on,0,0,5,,,,,,,,,5,,,57,65
195600,note_on,0,0,1,,,,,,,,,1,,,81,67
195600,note_off,240,0,1,,,,,,,,,1,,,86,0
195600,note_on,240,0,3,,,,,,,,,3,,,62,67
195780,set_tempo,1860,1,0,,,,,,517241,,,,,,,
195840,note_off,480,0,5,,,,,,,,,5,,,57,0
195840,note_on,0,0,1,,,,,,,,,1,,,82,73
195840,note_off,240,0,1,,,,,,,,,1,,,81,0
195840,set_tempo,60,1,0,,,,,,508474,,,,,,,
195840,note_off,240,0,3,,,,,,,,,3,,,62,0
195840,note_on,0,0,5,,,,,,,,,5,,,55,73
196080,note_on,240,0,3,,,,,,,,,3,,,62,71
196320,note_on,0,0,1,,,,,,,,,1,,,79,69
196320,note_off,480,0,1,,,,,,,,,1,,,82,0
196320,note_off,240,0,3,,,,,,,,,3,,,62,0
196320,note_off,480,0,5,,,,,,,,,5,,,55,0
196320,note_on,0,0,5,,,,,,,,,5,,,58,69
196560,note_on,240,0,3,,,,,,,,,3,,,64,68
196560,note_on,0,0,1,,,,,,,,,1,,,76,68
196560,note_off,240,0,1,,,,,,,,,1,,,79,0
196740,set_tempo,900,1,0,,,,,,517241,,,,,,,
196800,note_off,240,0,3,,,,,,,,,3,,,64,0
196800,note_on,0,0,5,,,,,,,,,5,,,62,81
196800,note_off,240,0,1,,,,,,,,,1,,,76,0
196800,note_on,0,0,1,,,,,,,,,1,,,77,81
196800,note_off,480,0,5,,,,,,,,,5,,,58,0
197040,note_on,240,0,3,,,,,,,,,3,,,57,78
197040,note_off,240,0,1,,,,,,,,,1,,,77,0
197040,note_on,0,0,1,,,,,,,,,1,,,81,78
197280,note_off,240,0,3,,,,,,,,,3,,,57,0
197280,note_on,0,0,5,,,,,,,,,5,,,61,76
197280,note_off,480,0,5,,,,,,,,,5,,,62,0
197280,note_on,0,0,1,,,,,,,,,1,,,79,76
197280,note_off,240,0,1,,,,,,,,,1,,,81,0
197520,note_off,240,0,1,,,,,,,,,1,,,79,0
197520,note_on,0,0,1,,,,,,,,,1,,,76,73
197520,note_on,240,0,3,,,,,,,,,3,,,57,73
197530,set_tempo,790,1,0,,,,,,526315,,,,,,,
197760,note_off,240,0,3,,,,,,,,,3,,,57,0
197760,note_on,0,0,1,,,,,,,,,1,,,74,70
197760,note_off,240,0,1,,,,,,,,,1,,,76,0
197760,note_on,0,0,5,,,,,,,,,5,,,62,70
197760,note_off,480,0,5,,,,,,,,,5,,,61,0
197760,end_of_track,0,1,3,,,,,,,,,,,,,
198000,note_on,0,0,5,,,,,,,,,5,,,57,62
198000,note_off,240,0,5,,,,,,,,,5,,,62,0
198240,note_off,480,0,1,,,,,,,,,1,,,74,0
198240,note_on,0,0,5,,,,,,,,,5,,,50,56
198240,note_off,240,0,5,,,,,,,,,5,,,57,0
198240,set_tempo,710,1,0,,,,,,571428,,,,,,,
198480,note_off,240,0,5,,,,,,,,,5,,,50,0
198720,note_on,0,0,5,,,,,,,,,5,,,58,63
198720,control_change,240,0,5,,,,,,,64,0,5,,,,
198720,note_on,0,0,1,,,,,,,,,1,,,76,63
198720,control_change,9120,0,2,,,,,,,64,0,2,,,,
198720,control_change,17280,0,4,,,,,,,64,0,4,,,,
198720,set_tempo,480,1,0,,,,,,517241,,,,,,,
198720,control_change,480,0,1,,,,,,,64,0,1,,,,
198960,note_on,0,0,5,,,,,,,,,5,,,55,62
198960,note_off,240,0,5,,,,,,,,,5,,,58,0
199200,note_off,240,0,5,,,,,,,,,5,,,55,0
199200,note_on,0,0,5,,,,,,,,,5,,,48,59
199200,note_off,480,0,1,,,,,,,,,1,,,76,0
199440,note_off,240,0,5,,,,,,,,,5,,,48,0
199560,set_tempo,840,1,0,,,,,,526315,,,,,,,
199680,note_on,480,0,1,,,,,,,,,1,,,77,72
199680,note_on,240,0,5,,,,,,,,,5,,,57,72
199680,set_tempo,120,1,0,,,,,,517241,,,,,,,
199920,note_off,240,0,5,,,,,,,,,5,,,57,0
199920,note_on,0,0,5,,,,,,,,,5,,,53,69
200160,note_off,240,0,5,,,,,,,,,5,,,53,0
200160,note_on,0,0,5,,,,,,,,,5,,,48,66
200160,note_off,480,0,1,,,,,,,,,1,,,77,0
200400,note_off,240,0,5,,,,,,,,,5,,,48,0
200520,set_tempo,840,1,0,,,,,,526315,,,,,,,
200640,note_on,240,0,5,,,,,,,,,5,,,55,81
200640,set_tempo,120,1,0,,,,,,517241,,,,,,,
200640,note_on,480,0,1,,,,,,,,,1,,,79,81
200880,note_off,240,0,5,,,,,,,,,5,,,55,0
200880,note_on,0,0,5,,,,,,,,,5,,,52,78
201120,note_off,240,0,5,,,,,,,,,5,,,52,0
201120,note_on,0,0,5,,,,,,,,,5,,,48,72
201120,note_off,480,0,1,,,,,,,,,1,,,79,0
201360,note_off,240,0,5,,,,,,,,,5,,,48,0
201480,set_tempo,840,1,0,,,,,,526315,,,,,,,
201600,note_on,480,0,1,,,,,,,,,1,,,81,89
201600,note_on,240,0,5,,,,,,,,,5,,,53,89
201600,set_tempo,120,1,0,,,,,,526315,,,,,,,
201840,note_off,240,0,5,,,,,,,,,5,,,53,0
201840,note_on,0,0,5,,,,,,,,,5,,,48,86
202080,note_off,240,0,5,,,,,,,,,5,,,48,0
202080,note_on,0,0,5,,,,,,,,,5,,,41,80
202080,note_off,480,0,1,,,,,,,,,1,,,81,0
202320,note_off,240,0,5,,,,,,,,,5,,,41,0
202330,set_tempo,730,1,0,,,,,,550458,,,,,,,
202560,control_change,3840,0,4,,,,,,,64,127,4,,,,
202560,note_on,0,0,4,,,,,,,,,4,,,36,95
202560,set_tempo,230,1,0,,,,,,500000,,,,,,,
202600,note_on,40,0,4,,,,,,,,,4,,,40,94
202640,note_on,40,0,4,,,,,,,,,4,,,43,93
202680,note_on,40,0,4,,,,,,,,,4,,,48,92
202740,set_tempo,180,1,0,,,,,,517241,,,,,,,
202800,set_tempo,60,1,0,,,,,,2068965,,,,,,,
202800,note_on,720,0,1,,,,,,,,,1,,,82,89
203320,note_off,640,0,4,,,,,,,,,4,,,40,0
203360,note_off,40,0,4,,,,,,,,,4,,,43,0
203400,note_off,40,0,4,,,,,,,,,4,,,48,0
203520,note_off,120,0,4,,,,,,,,,4,,,36,0
203760,note_off,960,0,1,,,,,,,,,1,,,82,0
204000,control_change,480,0,4,,,,,,,64,0,4,,,,
204000,note_on,240,0,1,,,,,,,,,1,,,81,61
204000,set_tempo,1200,1,0,,,,,,517241,,,,,,,
204240,note_off,240,0,1,,,,,,,,,1,,,81,0
204240,set_tempo,240,1,0,,,,,,526315,,,,,,,
204240,note_on,0,0,1,,,,,,,,,1,,,79,64
204480,set_tempo,240,1,0,,,,,,1071428,,,,,,,
204480,note_on,0,0,1,,,,,,,,,1,,,86,72
204480,note_off,240,0,1,,,,,,,,,1,,,79,0
204960,note_on,0,0,1,,,,,,,,,1,,,84,62
204960,note_off,480,0,1,,,,,,,,,1,,,86,0
204960,set_tempo,480,1,0,,,,,,517241,,,,,,,
205200,note_on,0,0,1,,,,,,,,,1,,,82,60
205200,note_off,240,0,1,,,,,,,,,1,,,84,0
205440,note_on,0,0,1,,,,,,,,,1,,,81,58
205440,note_off,240,0,1,,,,,,,,,1,,,82,0
205680,note_on,0,0,1,,,,,,,,,1,,,79,56
205680,note_off,240,0,1,,,,,,,,,1,,,81,0
205800,set_tempo,840,1,0,,,,,,526315,,,,,,,
205920,note_off,240,0,1,,,,,,,,,1,,,79,0
205920,set_tempo,120,1,0,,,,,,535714,,,,,,,
205920,note_on,0,0,1,,,,,,,,,1,,,82,54
206160,note_off,240,0,1,,,,,,,,,1,,,82,0
206160,set_tempo,240,1,0,,,,,,952380,,,,,,,
206160,note_on,0,0,1,,,,,,,,,1,,,81,52
206280,set_tempo,120,1,0,,,,,,508474,,,,,,,
206351,note_off,191,0,1,,,,,,,,,1,,,81,0
206360,note_on,9,0,1,,,,,,,,,1,,,81,51
206400,note_on,40,0,1,,,,,,,,,1,,,79,50
206437,note_off,37,0,1,,,,,,,,,1,,,81,0
206561,note_off,124,0,1,,,,,,,,,1,,,79,0
206600,note_on,39,0,1,,,,,,,,,1,,,79,49
206640,note_on,40,0,1,,,,,,,,,1,,,77,48
206681,note_off,41,0,1,,,,,,,,,1,,,79,0
206801,note_off,120,0,1,,,,,,,,,1,,,77,0
206820,set_tempo,540,1,0,,,,,,517241,,,,,,,
206840,note_on,39,0,1,,,,,,,,,1,,,77,47
206880,note_on,40,0,1,,,,,,,,,1,,,76,46
206917,note_off,37,0,1,,,,,,,,,1,,,77,0
207041,note_off,124,0,1,,,,,,,,,1,,,76,0
207060,set_tempo,240,1,0,,,,,,526315,,,,,,,
207080,note_on,39,0,1,,,,,,,,,1,,,76,45
207120,note_on,40,0,1,,,,,,,,,1,,,74,44
207120,set_tempo,60,1,0,,,,,,550458,,,,,,,
207161,note_off,41,0,1,,,,,,,,,1,,,76,0
207277,note_off,116,0,1,,,,,,,,,1,,,74,0
207360,note_on,5040,0,5,,,,,,,,,5,,,57,46
207360,set_tempo,240,1,0,,,,,,508474,,,,,,,
207360,note_on,83,0,1,,,,,,,,,1,,,72,46
207480,note_off,120,0,1,,,,,,,,,1,,,72,0
207480,note_off,120,0,5,,,,,,,,,5,,,57,0
207600,note_on,120,0,5,,,,,,,,,5,,,53,48
207600,note_on,120,0,1,,,,,,,,,1,,,77,48
207720,note_off,120,0,5,,,,,,,,,5,,,53,0
207720,note_off,120,0,1,,,,,,,,,1,,,77,0
207840,note_on,120,0,5,,,,,,,,,5,,,56,49
207840,note_on,120,0,1,,,,,,,,,1,,,71,49
207960,note_off,120,0,5,,,,,,,,,5,,,56,0
207960,note_off,120,0,1,,,,,,,,,1,,,71,0
208080,note_on,120,0,5,,,,,,,,,5,,,53,51
208080,note_on,120,0,1,,,,,,,,,1,,,77,51
208200,note_off,120,0,5,,,,,,,,,5,,,53,0
208200,note_off,120,0,1,,,,,,,,,1,,,77,0
208260,set_tempo,900,1,0,,,,,,517241,,,,,,,
208320,note_on,120,0,5,,,,,,,,,5,,,57,52
208320,set_tempo,60,1,0,,,,,,508474,,,,,,,
208320,note_on,120,0,1,,,,,,,,,1,,,72,52
208440,note_off,120,0,5,,,,,,,,,5,,,57,0
208560,note_on,120,0,5,,,,,,,,,5,,,53,54
208680,note_off,120,0,5,,,,,,,,,5,,,53,0
208800,note_on,120,0,5,,,,,,,,,5,,,57,55
208920,note_off,120,0,5,,,,,,,,,5,,,57,0
209040,note_on,120,0,5,,,,,,,,,5,,,53,62
209040,note_off,720,0,1,,,,,,,,,1,,,72,0
209040,note_on,0,0,1,,,,,,,,,1,,,73,62
209280,note_off,240,0,1,,,,,,,,,1,,,73,0
209280,note_on,0,0,1,,,,,,,,,1,,,74,58
209280,note_off,240,0,5,,,,,,,,,5,,,53,0
209280,note_on,0,0,5,,,,,,,,,5,,,58,58
209400,note_off,120,0,1,,,,,,,,,1,,,74,0
209400,note_off,120,0,5,,,,,,,,,5,,,58,0
209520,note_on,120,0,1,,,,,,,,,1,,,77,59
209520,note_on,120,0,5,,,,,,,,,5,,,53,59
209640,note_off,120,0,1,,,,,,,,,1,,,77,0
209640,note_off,120,0,5,,,,,,,,,5,,,53,0
209760,note_on,120,0,5,,,,,,,,,5,,,57,61
209760,note_on,120,0,1,,,,,,,,,1,,,73,61
209880,note_off,120,0,5,,,,,,,,,5,,,57,0
209880,note_off,120,0,1,,,,,,,,,1,,,73,0
210000,note_on,120,0,1,,,,,,,,,1,,,77,62
210000,note_on,120,0,5,,,,,,,,,5,,,53,62
210120,note_off,120,0,1,,,,,,,,,1,,,77,0
210120,note_off,120,0,5,,,,,,,,,5,,,53,0
210180,set_tempo,1860,1,0,,,,,,517241,,,,,,,
210240,set_tempo,60,1,0,,,,,,508474,,,,,,,
210240,note_on,120,0,1,,,,,,,,,1,,,74,64
210240,note_on,120,0,5,,,,,,,,,5,,,58,64
210360,note_off,120,0,5,,,,,,,,,5,,,58,0
210480,note_on,120,0,5,,,,,,,,,5,,,53,65
210600,note_off,120,0,5,,,,,,,,,5,,,53,0
210720,note_on,120,0,5,,,,,,,,,5,,,58,67
210840,note_off,120,0,5,,,,,,,,,5,,,58,0
210960,note_on,0,0,1,,,,,,,,,1,,,79,62
210960,note_off,720,0,1,,,,,,,,,1,,,74,0
210960,note_on,120,0,5,,,,,,,,,5,,,53,75
211020,note_on,0,0,1,,,,,,,,,1,,,77,64
211020,note_off,60,0,1,,,,,,,,,1,,,79,0
211080,note_on,0,0,1,,,,,,,,,1,,,76,65
211080,note_off,60,0,1,,,,,,,,,1,,,77,0
211140,note_on,0,0,1,,,,,,,,,1,,,77,67
211140,note_off,60,0,1,,,,,,,,,1,,,76,0
211200,note_on,0,0,1,,,,,,,,,1,,,76,68
211200,note_off,60,0,1,,,,,,,,,1,,,77,0
211200,note_off,240,0,5,,,,,,,,,5,,,53,0
211200,note_on,7200,0,4,,,,,,,,,4,,,58,69
211200,note_on,0,0,5,,,,,,,,,5,,,55,69
211320,note_off,120,0,4,,,,,,,,,4,,,58,0
211320,note_off,120,0,5,,,,,,,,,5,,,55,0
211440,note_on,0,0,1,,,,,,,,,1,,,84,72
211440,note_on,120,0,5,,,,,,,,,5,,,48,72
211440,note_off,240,0,1,,,,,,,,,1,,,76,0
211560,note_off,120,0,5,,,,,,,,,5,,,48,0
211560,note_off,120,0,1,,,,,,,,,1,,,84,0
211680,note_on,360,0,4,,,,,,,,,4,,,58,75
211680,note_on,120,0,5,,,,,,,,,5,,,55,75
211680,note_on,120,0,1,,,,,,,,,1,,,84,75
211800,note_off,120,0,4,,,,,,,,,4,,,58,0
211800,note_off,120,0,5,,,,,,,,,5,,,55,0
211800,note_off,120,0,1,,,,,,,,,1,,,84,0
211920,note_on,120,0,5,,,,,,,,,5,,,48,77
211920,note_on,120,0,1,,,,,,,,,1,,,84,77
212040,note_off,120,0,1,,,,,,,,,1,,,84,0
212040,set_tempo,1800,1,0,,,,,,517241,,,,,,,
212040,note_off,120,0,5,,,,,,,,,5,,,48,0
212160,note_on,360,0,4,,,,,,,,,4,,,57,80
212160,set_tempo,120,1,0,,,,,,508474,,,,,,,
212160,note_on,120,0,5,,,,,,,,,5,,,53,80
212160,note_on,120,0,1,,,,,,,,,1,,,84,80
212280,note_off,120,0,5,,,,,,,,,5,,,53,0
212280,note_off,120,0,4,,,,,,,,,4,,,57,0
212400,note_on,120,0,5,,,,,,,,,5,,,48,78
212520,note_off,120,0,5,,,,,,,,,5,,,48,0
212640,note_off,480,0,1,,,,,,,,,1,,,84,0
212640,note_on,0,0,1,,,,,,,,,1,,,81,76
212640,note_on,120,0,5,,,,,,,,,5,,,53,76
212640,note_on,360,0,4,,,,,,,,,4,,,57,76
212760,note_off,120,0,4,,,,,,,,,4,,,57,0
212760,note_on,0,0,1,,,,,,,,,1,,,77,74
212760,note_off,120,0,1,,,,,,,,,1,,,81,0
212760,note_off,120,0,5,,,,,,,,,5,,,53,0
212880,note_off,120,0,1,,,,,,,,,1,,,77,0
212880,note_on,120,0,5,,,,,,,,,5,,,48,73
212880,note_on,0,0,1,,,,,,,,,1,,,81,73
213000,note_on,0,0,1,,,,,,,,,1,,,84,72
213000,note_off,120,0,5,,,,,,,,,5,,,48,0
213000,note_off,120,0,1,,,,,,,,,1,,,81,0
213060,set_tempo,900,1,0,,,,,,517241,,,,,,,
213120,note_on,0,0,1,,,,,,,,,1,,,82,71
213120,note_off,120,0,1,,,,,,,,,1,,,84,0
213120,note_on,360,0,4,,,,,,,,,4,,,55,73
213120,note_on,120,0,5,,,,,,,,,5,,,52,73
213240,note_off,120,0,5,,,,,,,,,5,,,52,0
213240,note_off,120,0,4,,,,,,,,,4,,,55,0
213305,note_off,185,0,1,,,,,,,,,1,,,82,0
213360,note_on,120,0,5,,,,,,,,,5,,,48,69
213360,note_on,55,0,1,,,,,,,,,1,,,79,68
213480,note_off,120,0,5,,,,,,,,,5,,,48,0
213480,note_off,120,0,1,,,,,,,,,1,,,79,0
213480,note_on,0,0,1,,,,,,,,,1,,,82,67
213600,note_on,360,0,4,,,,,,,,,4,,,57,66
213600,note_on,120,0,5,,,,,,,,,5,,,53,66
213600,note_off,120,0,1,,,,,,,,,1,,,82,0
213600,note_on,0,0,1,,,,,,,,,1,,,81,66
213720,note_off,120,0,4,,,,,,,,,4,,,57,0
213720,note_off,120,0,5,,,,,,,,,5,,,53,0
213780,note_off,180,0,1,,,,,,,,,1,,,81,0
213840,note_on,60,0,1,,,,,,,,,1,,,77,63
213840,note_on,120,0,5,,,,,,,,,5,,,48,62
213960,note_off,120,0,5,,,,,,,,,5,,,48,0
213960,note_off,120,0,1,,,,,,,,,1,,,77,0
213960,note_on,0,0,1,,,,,,,,,1,,,81,61
213960,set_tempo,900,1,0,,,,,,517241,,,,,,,
214080,note_off,120,0,1,,,,,,,,,1,,,81,0
214080,note_on,0,0,5,,,,,,,,,5,,,48,58
214080,set_tempo,120,1,0,,,,,,408163,,,,,,,
214080,control_change,120,0,5,,,,,,,64,127,5,,,,
214120,note_on,40,0,5,,,,,,,,,5,,,52,57
214160,note_on,40,0,5,,,,,,,,,5,,,55,57
214200,note_on,40,0,5,,,,,,,,,5,,,60,56
214240,note_on,160,0,1,,,,,,,,,1,,,79,58
214260,set_tempo,180,1,0,,,,,,2068965,,,,,,,
214320,note_on,80,0,1,,,,,,,,,1,,,81,56
214320,set_tempo,60,1,0,,,,,,517241,,,,,,,
214335,note_off,15,0,1,,,,,,,,,1,,,79,0
214440,note_off,105,0,1,,,,,,,,,1,,,81,0
214440,note_on,0,0,1,,,,,,,,,1,,,79,53
214555,note_off,355,0,5,,,,,,,,,5,,,55,0
214560,note_off,0,0,5,,,,,,,,,5,,,60,0
214560,control_change,5,0,5,,,,,,,64,0,5,,,,
214560,note_off,0,0,5,,,,,,,,,5,,,48,0
214560,note_off,0,0,5,,,,,,,,,5,,,52,0
214560,note_on,0,0,1,,,,,,,,,1,,,77,51
214560,note_off,120,0,1,,,,,,,,,1,,,79,0
214680,note_on,0,0,1,,,,,,,,,1,,,76,48
214680,note_off,120,0,1,,,,,,,,,1,,,77,0
214800,note_on,0,0,1,,,,,,,,,1,,,74,45
214800,note_off,120,0,1,,,,,,,,,1,,,76,0
214910,set_tempo,590,1,0,,,,,,540540,,,,,,,
214920,note_on,0,0,1,,,,,,,,,1,,,72,42
214920,note_off,120,0,1,,,,,,,,,1,,,74,0
215040,note_on,0,0,1,,,,,,,,,1,,,72,44
215040,note_off,120,0,1,,,,,,,,,1,,,72,0
215040,note_on,480,0,5,,,,,,,,,5,,,57,44
215040,set_tempo,130,1,0,,,,,,508474,,,,,,,
215160,note_off,120,0,5,,,,,,,,,5,,,57,0
215160,note_off,120,0,1,,,,,,,,,1,,,72,0
215280,note_on,120,0,5,,,,,,,,,5,,,53,45
215280,note_on,120,0,1,,,,,,,,,1,,,77,45
215400,note_off,120,0,1,,,,,,,,,1,,,77,0
215400,note_off,120,0,5,,,,,,,,,5,,,53,0
215520,note_on,120,0,5,,,,,,,,,5,,,56,46
215520,note_on,120,0,1,,,,,,,,,1,,,71,46
215640,note_off,120,0,1,,,,,,,,,1,,,71,0
215640,note_off,120,0,5,,,,,,,,,5,,,56,0
215760,note_on,120,0,5,,,,,,,,,5,,,53,47
215760,note_on,120,0,1,,,,,,,,,1,,,77,47
215880,note_off,120,0,1,,,,,,,,,1,,,77,0
215880,note_off,120,0,5,,,,,,,,,5,,,53,0
215940,set_tempo,900,1,0,,,,,,517241,,,,,,,
216000,note_on,120,0,1,,,,,,,,,1,,,72,48
216000,note_on,120,0,5,,,,,,,,,5,,,57,48
216000,set_tempo,60,1,0,,,,,,508474,,,,,,,
216120,note_off,120,0,5,,,,,,,,,5,,,57,0
216240,note_on,120,0,5,,,,,,,,,5,,,53,49
216360,note_off,120,0,5,,,,,,,,,5,,,53,0
216480,note_on,120,0,5,,,,,,,,,5,,,57,50
216600,note_off,120,0,5,,,,,,,,,5,,,57,0
216720,note_on,120,0,5,,,,,,,,,5,,,53,56
216720,note_off,720,0,1,,,,,,,,,1,,,72,0
216720,note_on,0,0,1,,,,,,,,,1,,,73,56
216960,note_off,240,0,1,,,,,,,,,1,,,73,0
216960,note_on,0,0,5,,,,,,,,,5,,,58,52
216960,note_on,0,0,1,,,,,,,,,1,,,74,52
216960,note_off,240,0,5,,,,,,,,,5,,,53,0
217080,note_off,120,0,5,,,,,,,,,5,,,58,0
217080,note_off,120,0,1,,,,,,,,,1,,,74,0
217200,note_on,120,0,5,,,,,,,,,5,,,53,52
217200,note_on,120,0,1,,,,,,,,,1,,,77,52
217320,note_off,120,0,1,,,,,,,,,1,,,77,0
217320,note_off,120,0,5,,,,,,,,,5,,,53,0
217440,note_on,120,0,1,,,,,,,,,1,,,73,53
217440,note_on,120,0,5,,,,,,,,,5,,,57,53
217560,note_off,120,0,1,,,,,,,,,1,,,73,0
217560,note_off,120,0,5,,,,,,,,,5,,,57,0
217680,note_on,120,0,5,,,,,,,,,5,,,53,54
217680,note_on,120,0,1,,,,,,,,,1,,,77,54
217800,note_off,120,0,5,,,,,,,,,5,,,53,0
217800,note_off,120,0,1,,,,,,,,,1,,,77,0
217860,set_tempo,1860,1,0,,,,,,517241,,,,,,,
217920,note_on,120,0,1,,,,,,,,,1,,,74,55
217920,note_on,120,0,5,,,,,,,,,5,,,58,55
217920,set_tempo,60,1,0,,,,,,508474,,,,,,,
218040,note_off,120,0,5,,,,,,,,,5,,,58,0
218160,note_on,120,0,5,,,,,,,,,5,,,53,56
218280,note_off,120,0,5,,,,,,,,,5,,,53,0
218400,note_on,120,0,5,,,,,,,,,5,,,58,57
218520,note_off,120,0,5,,,,,,,,,5,,,58,0
218640,note_on,120,0,5,,,,,,,,,5,,,53,66
218640,note_off,720,0,1,,,,,,,,,1,,,74,0
218640,note_on,0,0,1,,,,,,,,,1,,,79,55
218700,note_off,60,0,1,,,,,,,,,1,,,79,0
218700,note_on,0,0,1,,,,,,,,,1,,,77,57
218760,note_on,0,0,1,,,,,,,,,1,,,76,58
218760,note_off,60,0,1,,,,,,,,,1,,,77,0
218820,note_on,0,0,1,,,,,,,,,1,,,77,59
218820,note_off,60,0,1,,,,,,,,,1,,,76,0
218880,note_on,0,0,1,,,,,,,,,1,,,76,58
218880,note_on,5160,0,4,,,,,,,,,4,,,58,58
218880,note_on,0,0,5,,,,,,,,,5,,,55,58
218880,note_off,60,0,1,,,,,,,,,1,,,77,0
218880,note_off,240,0,5,,,,,,,,,5,,,53,0
219000,note_off,120,0,5,,,,,,,,,5,,,55,0
219000,note_off,120,0,4,,,,,,,,,4,,,58,0
219120,note_on,0,0,1,,,,,,,,,1,,,84,61
219120,note_off,240,0,1,,,,,,,,,1,,,76,0
219120,note_on,120,0,5,,,,,,,,,5,,,48,61
219240,note_off,120,0,1,,,,,,,,,1,,,84,0
219240,note_off,120,0,5,,,,,,,,,5,,,48,0
219360,note_on,120,0,1,,,,,,,,,1,,,84,64
219360,note_on,360,0,4,,,,,,,,,4,,,58,64
219360,note_on,120,0,5,,,,,,,,,5,,,55,64
219480,note_off,120,0,1,,,,,,,,,1,,,84,0
219480,note_off,120,0,5,,,,,,,,,5,,,55,0
219480,note_off,120,0,4,,,,,,,,,4,,,58,0
219600,note_on,120,0,1,,,,,,,,,1,,,84,67
219600,note_on,120,0,5,,,,,,,,,5,,,48,67
219720,note_off,120,0,1,,,,,,,,,1,,,84,0
219720,note_off,120,0,5,,,,,,,,,5,,,48,0
219727,set_tempo,1807,1,0,,,,,,517241,,,,,,,
219840,note_on,360,0,4,,,,,,,,,4,,,57,70
219840,note_on,120,0,5,,,,,,,,,5,,,53,70
219840,note_on,120,0,1,,,,,,,,,1,,,84,70
220320,note_off,480,0,1,,,,,,,,,1,,,84,0
220320,note_on,0,0,1,,,,,,,,,1,,,82,66
220320,note_off,480,0,4,,,,,,,,,4,,,57,0
220320,note_off,480,0,5,,,,,,,,,5,,,53,0
220440,note_off,120,0,1,,,,,,,,,1,,,82,0
220440,note_on,0,0,1,,,,,,,,,1,,,81,65
220560,note_off,120,0,1,,,,,,,,,1,,,81,0
220560,note_on,0,0,1,,,,,,,,,1,,,79,64
220680,note_on,0,0,1,,,,,,,,,1,,,77,63
220680,note_off,120,0,1,,,,,,,,,1,,,79,0
220740,set_tempo,1013,1,0,,,,,,526315,,,,,,,
220800,note_on,0,0,1,,,,,,,,,1,,,79,63
220800,note_off,120,0,1,,,,,,,,,1,,,77,0
220800,note_on,480,0,5,,,,,,,,,5,,,58,62
220920,note_off,120,0,5,,,,,,,,,5,,,58,0
220975,note_off,175,0,1,,,,,,,,,1,,,79,0
221040,note_on,720,0,4,,,,,,,,,4,,,62,60
221040,note_on,65,0,1,,,,,,,,,1,,,79,60
221160,note_off,120,0,1,,,,,,,,,1,,,79,0
221160,note_on,0,0,1,,,,,,,,,1,,,82,59
221160,note_off,120,0,4,,,,,,,,,4,,,62,0
221280,note_on,120,0,4,,,,,,,,,4,,,55,58
221280,note_on,0,0,1,,,,,,,,,1,,,76,58
221280,note_off,120,0,1,,,,,,,,,1,,,82,0
221280,note_on,360,0,5,,,,,,,,,5,,,48,58
221400,note_off,120,0,5,,,,,,,,,5,,,48,0
221400,note_off,120,0,4,,,,,,,,,4,,,55,0
221465,note_off,185,0,1,,,,,,,,,1,,,76,0
221520,note_on,120,0,4,,,,,,,,,4,,,58,56
221520,note_on,55,0,1,,,,,,,,,1,,,76,55
221640,note_off,120,0,1,,,,,,,,,1,,,76,0
221640,note_off,120,0,4,,,,,,,,,4,,,58,0
221640,note_on,0,0,1,,,,,,,,,1,,,79,53
221760,note_on,120,0,4,,,,,,,,,4,,,57,55
221760,set_tempo,1020,1,0,,,,,,535714,,,,,,,
221760,note_off,120,0,1,,,,,,,,,1,,,79,0
221760,note_on,0,0,1,,,,,,,,,1,,,77,52
221760,note_on,360,0,5,,,,,,,,,5,,,53,55
221880,note_off,120,0,4,,,,,,,,,4,,,57,0
221880,note_off,120,0,5,,,,,,,,,5,,,53,0
222000,note_on,120,0,4,,,,,,,,,4,,,60,50
222096,note_off,96,0,4,,,,,,,,,4,,,60,0
222180,set_tempo,420,1,0,,,,,,540540,,,,,,,
222240,set_tempo,60,1,0,,,,,,612244,,,,,,,
222240,note_on,360,0,5,,,,,,,,,5,,,53,44
222240,note_on,144,0,4,,,,,,,,,4,,,57,44
222240,note_off,480,0,1,,,,,,,,,1,,,77,0
222336,note_off,96,0,5,,,,,,,,,5,,,53,0
222336,note_off,96,0,4,,,,,,,,,4,,,57,0
222720,note_on,384,0,5,,,,,,,,,5,,,60,45
222720,set_tempo,480,1,0,,,,,,550458,,,,,,,
222720,note_on,24000,0,2,,,,,,,,,2,,,76,49
222720,note_on,384,0,4,,,,,,,,,4,,,67,45
222720,note_on,480,0,1,,,,,,,,,1,,,84,49
223200,note_off,480,0,4,,,,,,,,,4,,,67,0
223200,note_off,480,0,5,,,,,,,,,5,,,60,0
223200,note_off,480,0,1,,,,,,,,,1,,,84,0
223200,note_off,480,0,2,,,,,,,,,2,,,76,0
223680,note_on,480,0,4,,,,,,,,,4,,,69,40
223680,set_tempo,960,1,0,,,,,,560747,,,,,,,
223680,note_on,480,0,1,,,,,,,,,1,,,81,42
223680,note_on,480,0,2,,,,,,,,,2,,,77,42
223680,note_on,480,0,5,,,,,,,,,5,,,65,40
224160,note_off,480,0,5,,,,,,,,,5,,,65,0
224160,note_off,480,0,4,,,,,,,,,4,,,69,0
224160,end_of_track,0,1,4,,,,,,,,,,,,,
224160,note_off,480,0,1,,,,,,,,,1,,,81,0
224160,note_off,480,0,2,,,,,,,,,2,,,77,0
224640,note_on,0,0,2,,,,,,,,,2,,,67,82
224640,note_on,480,0,2,,,,,,,,,2,,,70,82
224640,note_on,480,0,1,,,,,,,,,1,,,76,82
224640,note_on,0,0,5,,,,,,,,,5,,,60,78
224640,note_on,480,0,5,,,,,,,,,5,,,48,78
224640,set_tempo,960,1,0,,,,,,571428,,,,,,,
225054,note_off,414,0,2,,,,,,,,,2,,,67,0
225054,note_off,414,0,1,,,,,,,,,1,,,76,0
225054,note_off,0,0,2,,,,,,,,,2,,,70,0
225120,note_on,0,0,2,,,,,,,,,2,,,67,85
225120,note_off,480,0,5,,,,,,,,,5,,,60,0
225120,note_off,0,0,5,,,,,,,,,5,,,48,0
225120,note_on,0,0,5,,,,,,,,,5,,,48,81
225120,note_on,0,0,5,,,,,,,,,5,,,60,81
225120,note_on,66,0,1,,,,,,,,,1,,,76,85
225120,note_on,66,0,2,,,,,,,,,2,,,70,85
225130,set_tempo,490,1,0,,,,,,674157,,,,,,,
225534,note_off,414,0,2,,,,,,,,,2,,,67,0
225534,note_off,414,0,1,,,,,,,,,1,,,76,0
225534,note_off,0,0,2,,,,,,,,,2,,,70,0
225600,note_on,66,0,2,,,,,,,,,2,,,69,89
225600,note_on,0,0,2,,,,,,,,,2,,,65,89
225600,note_on,0,0,5,,,,,,,,,5,,,41,84
225600,note_on,0,0,5,,,,,,,,,5,,,53,84
225600,note_off,0,0,5,,,,,,,,,5,,,48,0
225600,note_on,66,0,1,,,,,,,,,1,,,77,89
225600,note_off,480,0,5,,,,,,,,,5,,,60,0
225600,end_of_track,0,1,0,,,,,,,,,,,,,
225600,set_tempo,470,1,0,,,,,,789473,,,,,,,
226080,note_off,480,0,5,,,,,,,,,5,,,41,0
226080,note_off,0,0,5,,,,,,,,,5,,,53,0
226080,note_off,480,0,1,,,,,,,,,1,,,77,0
226080,end_of_track,0,1,2,,,,,,,,,,,,,
226080,note_off,0,0,2,,,,,,,,,2,,,69,0
226080,note_off,480,0,2,,,,,,,,,2,,,65,0
226080,end_of_track,0,1,1,,,,,,,,,,,,,
226080,end_of_track,0,1,5,,,,,,,,,,,,,
