tick,type,time,meta,track,tempo,numerator,denominator,clocks_per_click,notated_32nd_notes_per_beat,key,port,program,channel,control,value,note,velocity
0,track_name,0,1,0,,,,,,,,,,,,,
0,note_on,0,0,1,,,,,,,,,1,,,67,45
0,control_change,0,0,3,,,,,,,,,3,7,127,,
0,track_name,0,1,3,,,,,,,,,,,,,
0,midi_port,0,1,3,,,,,,,0,,,,,,
0,control_change,0,0,2,,,,,,,,,2,10,64,,
0,control_change,0,0,2,,,,,,,,,2,7,127,,
0,control_change,0,0,1,,,,,,,,,1,10,64,,
0,program_change,0,0,2,,,,,,,,0,2,,,,
0,midi_port,0,1,2,,,,,,,0,,,,,,
0,midi_port,0,1,4,,,,,,,0,,,,,,
0,track_name,0,1,4,,,,,,,,,,,,,
0,program_change,0,0,4,,,,,,,,0,4,,,,
0,control_change,0,0,4,,,,,,,,,4,7,127,,
0,control_change,0,0,4,,,,,,,,,4,10,64,,
0,track_name,0,1,2,,,,,,,,,,,,,
0,control_change,0,0,1,,,,,,,,,1,7,127,,
0,program_change,0,0,3,,,,,,,,0,3,,,,
0,track_name,0,1,1,,,,,,,,,,,,,
0,time_signature,0,1,0,,3,4,24,8,,,,,,,,
0,set_tempo,0,1,0,1250000,,,,,,,,,,,,
0,copyright,0,1,0,,,,,,,,,,,,,
0,control_change,0,0,3,,,,,,,,,3,10,64,,
0,program_change,0,0,1,,,,,,,,0,1,,,,
0,text,0,1,0,,,,,,,,,,,,,
0,copyright,0,1,0,,,,,,,,,,,,,
0,midi_port,0,1,1,,,,,,,0,,,,,,
0,text,0,1,0,,,,,,,,,,,,,
160,note_on,160,0,1,,,,,,,,,1,,,67,0
192,note_on,192,0,4,,,,,,,,,4,,,36,45
192,note_on,32,0,1,,,,,,,,,1,,,72,45
192,note_on,192,0,3,,,,,,,,,3,,,64,45
192,note_on,192,0,2,,,,,,,,,2,,,67,45
480,note_on,288,0,4,,,,,,,,,4,,,36,0
480,note_on,0,0,4,,,,,,,,,4,,,40,45
480,note_on,0,0,3,,,,,,,,,3,,,60,45
480,note_on,0,0,2,,,,,,,,,2,,,64,45
480,note_on,288,0,2,,,,,,,,,2,,,67,0
480,note_on,288,0,3,,,,,,,,,3,,,64,0
480,note_on,288,0,1,,,,,,,,,1,,,72,0
480,note_on,0,0,1,,,,,,,,,1,,,67,45
576,note_on,0,0,2,,,,,,,,,2,,,60,45
576,note_on,96,0,3,,,,,,,,,3,,,60,0
576,note_on,0,0,3,,,,,,,,,3,,,55,45
576,note_on,0,0,4,,,,,,,,,4,,,43,45
576,note_on,96,0,4,,,,,,,,,4,,,40,0
576,note_on,96,0,2,,,,,,,,,2,,,64,0
576,note_on,0,0,1,,,,,,,,,1,,,64,45
576,note_on,96,0,1,,,,,,,,,1,,,67,0
672,note_on,0,0,4,,,,,,,,,4,,,48,45
672,note_on,96,0,4,,,,,,,,,4,,,43,0
672,note_on,96,0,1,,,,,,,,,1,,,64,0
672,note_on,96,0,3,,,,,,,,,3,,,55,0
672,note_on,0,0,2,,,,,,,,,2,,,55,45
672,note_on,96,0,2,,,,,,,,,2,,,60,0
672,note_on,0,0,1,,,,,,,,,1,,,60,45
672,note_on,0,0,3,,,,,,,,,3,,,52,45
766,note_on,94,0,4,,,,,,,,,4,,,48,0
766,note_on,94,0,2,,,,,,,,,2,,,55,0
766,note_on,94,0,3,,,,,,,,,3,,,52,0
766,note_on,94,0,1,,,,,,,,,1,,,60,0
768,note_on,2,0,3,,,,,,,,,3,,,53,45
768,note_on,2,0,2,,,,,,,,,2,,,55,45
768,note_on,2,0,4,,,,,,,,,4,,,50,45
768,note_on,2,0,1,,,,,,,,,1,,,60,45
960,note_on,0,0,1,,,,,,,,,1,,,59,45
960,note_on,192,0,1,,,,,,,,,1,,,60,0
1104,note_on,336,0,2,,,,,,,,,2,,,55,0
1152,note_on,0,0,1,,,,,,,,,1,,,60,45
1152,note_on,192,0,1,,,,,,,,,1,,,59,0
1152,note_on,48,0,2,,,,,,,,,2,,,55,45
1152,note_on,0,0,3,,,,,,,,,3,,,52,45
1152,note_on,384,0,3,,,,,,,,,3,,,53,0
1152,note_on,384,0,4,,,,,,,,,4,,,50,0
1152,note_on,0,0,4,,,,,,,,,4,,,48,45
1312,note_on,160,0,1,,,,,,,,,1,,,60,0
1312,note_on,160,0,3,,,,,,,,,3,,,52,0
1312,note_on,160,0,4,,,,,,,,,4,,,48,0
1312,note_on,160,0,2,,,,,,,,,2,,,55,0
1344,note_on,32,0,1,,,,,,,,,1,,,62,45
1344,note_on,32,0,3,,,,,,,,,3,,,55,45
1344,note_on,32,0,2,,,,,,,,,2,,,60,45
1344,note_on,32,0,4,,,,,,,,,4,,,43,45
1368,note_on,24,0,1,,,,,,,,,1,,,62,0
1368,note_on,0,0,1,,,,,,,,,1,,,60,45
1392,note_on,24,0,1,,,,,,,,,1,,,60,0
1392,note_on,0,0,1,,,,,,,,,1,,,59,45
1416,note_on,24,0,1,,,,,,,,,1,,,59,0
1416,note_on,0,0,1,,,,,,,,,1,,,60,45
1438,note_on,22,0,1,,,,,,,,,1,,,60,0
1440,note_on,2,0,1,,,,,,,,,1,,,64,45
1440,note_on,0,0,3,,,,,,,,,3,,,54,45
1440,note_on,96,0,3,,,,,,,,,3,,,55,0
1536,note_on,0,0,3,,,,,,,,,3,,,55,45
1536,note_on,96,0,3,,,,,,,,,3,,,54,0
1536,note_on,192,0,2,,,,,,,,,2,,,60,0
1536,note_on,0,0,2,,,,,,,,,2,,,59,45
1536,note_on,96,0,1,,,,,,,,,1,,,64,0
1536,note_on,0,0,1,,,,,,,,,1,,,62,45
1600,note_on,256,0,4,,,,,,,,,4,,,43,0
1630,note_on,94,0,2,,,,,,,,,2,,,59,0
1630,note_on,94,0,1,,,,,,,,,1,,,62,0
1630,note_on,94,0,3,,,,,,,,,3,,,55,0
1824,note_on,194,0,1,,,,,,,,,1,,,65,45
1918,note_on,94,0,1,,,,,,,,,1,,,65,0
1920,note_on,320,0,4,,,,,,,,,4,,,43,45
1920,note_on,2,0,1,,,,,,,,,1,,,77,45
1920,note_on,290,0,3,,,,,,,,,3,,,59,45
1920,note_on,290,0,2,,,,,,,,,2,,,62,45
2176,note_on,256,0,3,,,,,,,,,3,,,59,0
2176,note_on,256,0,2,,,,,,,,,2,,,62,0
2176,note_on,256,0,4,,,,,,,,,4,,,43,0
2208,note_on,32,0,2,,,,,,,,,2,,,65,60
2208,note_on,32,0,4,,,,,,,,,4,,,55,60
2208,note_on,288,0,1,,,,,,,,,1,,,77,0
2208,note_on,0,0,1,,,,,,,,,1,,,74,60
2208,note_on,32,0,3,,,,,,,,,3,,,59,60
2302,note_on,94,0,2,,,,,,,,,2,,,65,0
2304,note_on,96,0,4,,,,,,,,,4,,,55,0
2304,note_on,96,0,3,,,,,,,,,3,,,59,0
2304,note_on,0,0,3,,,,,,,,,3,,,62,65
2304,note_on,2,0,2,,,,,,,,,2,,,65,65
2304,note_on,96,0,1,,,,,,,,,1,,,74,0
2304,note_on,0,0,1,,,,,,,,,1,,,71,65
2304,note_on,0,0,4,,,,,,,,,4,,,56,65
2400,note_on,96,0,2,,,,,,,,,2,,,65,0
2400,note_on,96,0,4,,,,,,,,,4,,,56,0
2400,note_on,0,0,3,,,,,,,,,3,,,60,70
2400,note_on,96,0,3,,,,,,,,,3,,,62,0
2400,note_on,0,0,2,,,,,,,,,2,,,64,70
2400,note_on,96,0,1,,,,,,,,,1,,,71,0
2400,note_on,0,0,1,,,,,,,,,1,,,72,70
2400,note_on,0,0,4,,,,,,,,,4,,,57,70
2494,note_on,94,0,2,,,,,,,,,2,,,64,0
2494,note_on,94,0,4,,,,,,,,,4,,,57,0
2494,note_on,94,0,3,,,,,,,,,3,,,60,0
2494,note_on,94,0,1,,,,,,,,,1,,,72,0
2496,note_on,2,0,1,,,,,,,,,1,,,62,45
2496,note_on,2,0,4,,,,,,,,,4,,,53,45
2496,note_on,2,0,2,,,,,,,,,2,,,57,60
2656,note_on,160,0,4,,,,,,,,,4,,,53,0
2656,note_on,160,0,1,,,,,,,,,1,,,62,0
2688,note_on,32,0,1,,,,,,,,,1,,,62,45
2688,note_on,32,0,4,,,,,,,,,4,,,38,45
2688,note_on,194,0,3,,,,,,,,,3,,,53,45
2712,note_on,24,0,1,,,,,,,,,1,,,62,0
2712,note_on,0,0,1,,,,,,,,,1,,,65,45
2736,note_on,0,0,1,,,,,,,,,1,,,69,45
2736,note_on,24,0,1,,,,,,,,,1,,,65,0
2848,note_on,160,0,3,,,,,,,,,3,,,53,0
2880,note_on,0,0,2,,,,,,,,,2,,,59,45
2880,note_on,0,0,4,,,,,,,,,4,,,43,45
2880,note_on,192,0,4,,,,,,,,,4,,,38,0
2880,note_on,384,0,2,,,,,,,,,2,,,57,0
2880,note_on,32,0,3,,,,,,,,,3,,,53,45
2926,note_on,190,0,1,,,,,,,,,1,,,69,0
2928,note_on,2,0,1,,,,,,,,,1,,,67,45
2952,note_on,0,0,1,,,,,,,,,1,,,65,45
2952,note_on,24,0,1,,,,,,,,,1,,,67,0
2976,note_on,24,0,1,,,,,,,,,1,,,65,0
2976,note_on,0,0,1,,,,,,,,,1,,,64,45
3000,note_on,24,0,1,,,,,,,,,1,,,64,0
3000,note_on,0,0,1,,,,,,,,,1,,,62,45
3024,note_on,24,0,1,,,,,,,,,1,,,62,0
3024,note_on,0,0,1,,,,,,,,,1,,,60,45
3040,note_on,160,0,3,,,,,,,,,3,,,53,0
3040,note_on,160,0,2,,,,,,,,,2,,,59,0
3040,note_on,160,0,4,,,,,,,,,4,,,43,0
3048,note_on,0,0,1,,,,,,,,,1,,,59,45
3048,note_on,24,0,1,,,,,,,,,1,,,60,0
3070,note_on,22,0,1,,,,,,,,,1,,,59,0
3072,note_on,32,0,2,,,,,,,,,2,,,59,45
3072,note_on,2,0,1,,,,,,,,,1,,,62,45
3072,note_on,32,0,4,,,,,,,,,4,,,36,45
3072,note_on,32,0,3,,,,,,,,,3,,,53,45
3216,note_on,0,0,3,,,,,,,,,3,,,55,45
3216,note_on,144,0,3,,,,,,,,,3,,,53,0
3240,note_on,0,0,3,,,,,,,,,3,,,53,45
3240,note_on,24,0,3,,,,,,,,,3,,,55,0
3262,note_on,22,0,3,,,,,,,,,3,,,53,0
3264,note_on,0,0,2,,,,,,,,,2,,,55,45
3264,note_on,192,0,2,,,,,,,,,2,,,59,0
3264,note_on,0,0,1,,,,,,,,,1,,,60,45
3264,note_on,192,0,1,,,,,,,,,1,,,62,0
3264,note_on,2,0,3,,,,,,,,,3,,,52,45
3328,note_on,256,0,4,,,,,,,,,4,,,36,0
3358,note_on,94,0,2,,,,,,,,,2,,,55,0
3358,note_on,94,0,3,,,,,,,,,3,,,52,0
3358,note_on,94,0,1,,,,,,,,,1,,,60,0
3456,note_on,98,0,1,,,,,,,,,1,,,60,45
3504,note_on,48,0,1,,,,,,,,,1,,,60,0
3504,note_on,0,0,1,,,,,,,,,1,,,64,45
3552,note_on,48,0,1,,,,,,,,,1,,,64,0
3552,note_on,0,0,1,,,,,,,,,1,,,67,45
3600,note_on,48,0,1,,,,,,,,,1,,,67,0
3600,note_on,0,0,1,,,,,,,,,1,,,72,45
3646,note_on,46,0,1,,,,,,,,,1,,,72,0
3648,note_on,2,0,1,,,,,,,,,1,,,76,45
3648,note_on,290,0,3,,,,,,,,,3,,,60,45
3648,note_on,0,0,2,,,,,,,,,2,,,64,45
3648,note_on,290,0,2,,,,,,,,,2,,,55,45
3648,note_on,320,0,4,,,,,,,,,4,,,48,45
3864,note_on,216,0,1,,,,,,,,,1,,,76,0
3864,note_on,0,0,1,,,,,,,,,1,,,74,45
3888,note_on,0,0,1,,,,,,,,,1,,,72,45
3888,note_on,24,0,1,,,,,,,,,1,,,74,0
3904,note_on,256,0,3,,,,,,,,,3,,,60,0
3904,note_on,0,0,2,,,,,,,,,2,,,64,0
3904,note_on,256,0,2,,,,,,,,,2,,,55,0
3904,note_on,256,0,4,,,,,,,,,4,,,48,0
3912,note_on,0,0,1,,,,,,,,,1,,,71,45
3912,note_on,24,0,1,,,,,,,,,1,,,72,0
3936,note_on,24,0,1,,,,,,,,,1,,,71,0
3936,note_on,0,0,1,,,,,,,,,1,,,72,45
3960,note_on,24,0,1,,,,,,,,,1,,,72,0
3960,note_on,0,0,1,,,,,,,,,1,,,74,45
3984,note_on,0,0,1,,,,,,,,,1,,,76,45
3984,note_on,24,0,1,,,,,,,,,1,,,74,0
4008,note_on,0,0,1,,,,,,,,,1,,,77,45
4008,note_on,24,0,1,,,,,,,,,1,,,76,0
4030,note_on,22,0,1,,,,,,,,,1,,,77,0
4032,note_on,2,0,1,,,,,,,,,1,,,79,45
4056,note_on,0,0,1,,,,,,,,,1,,,78,45
4056,note_on,24,0,1,,,,,,,,,1,,,79,0
4080,note_on,24,0,1,,,,,,,,,1,,,78,0
4080,note_on,0,0,1,,,,,,,,,1,,,81,45
4104,note_on,24,0,1,,,,,,,,,1,,,81,0
4104,note_on,0,0,1,,,,,,,,,1,,,79,45
4128,note_on,24,0,1,,,,,,,,,1,,,79,0
4128,note_on,0,0,1,,,,,,,,,1,,,77,45
4152,note_on,0,0,1,,,,,,,,,1,,,76,45
4152,note_on,24,0,1,,,,,,,,,1,,,77,0
4176,note_on,0,0,1,,,,,,,,,1,,,74,45
4176,note_on,24,0,1,,,,,,,,,1,,,76,0
4200,note_on,24,0,1,,,,,,,,,1,,,74,0
4200,note_on,0,0,1,,,,,,,,,1,,,72,45
4222,note_on,22,0,1,,,,,,,,,1,,,72,0
4224,note_on,320,0,3,,,,,,,,,3,,,55,45
4224,note_on,2,0,1,,,,,,,,,1,,,76,45
4224,note_on,320,0,4,,,,,,,,,4,,,48,45
4224,note_on,320,0,2,,,,,,,,,2,,,64,45
4320,note_on,96,0,2,,,,,,,,,2,,,64,0
4320,note_on,0,0,2,,,,,,,,,2,,,67,45
4320,note_on,96,0,4,,,,,,,,,4,,,48,0
4320,note_on,0,0,4,,,,,,,,,4,,,52,45
4320,note_on,96,0,3,,,,,,,,,3,,,55,0
4320,note_on,0,0,3,,,,,,,,,3,,,60,45
4416,note_on,0,0,2,,,,,,,,,2,,,62,45
4416,note_on,96,0,2,,,,,,,,,2,,,67,0
4416,note_on,192,0,1,,,,,,,,,1,,,76,0
4416,note_on,0,0,1,,,,,,,,,1,,,74,45
4416,note_on,96,0,4,,,,,,,,,4,,,52,0
4416,note_on,96,0,3,,,,,,,,,3,,,60,0
4416,note_on,0,0,3,,,,,,,,,3,,,59,45
4416,note_on,0,0,4,,,,,,,,,4,,,55,45
4510,note_on,94,0,3,,,,,,,,,3,,,59,0
4510,note_on,94,0,1,,,,,,,,,1,,,74,0
4510,note_on,94,0,4,,,,,,,,,4,,,55,0
4510,note_on,94,0,2,,,,,,,,,2,,,62,0
4608,note_on,98,0,1,,,,,,,,,1,,,60,45
4656,note_on,48,0,1,,,,,,,,,1,,,60,0
4656,note_on,0,0,1,,,,,,,,,1,,,64,45
4704,note_on,0,0,1,,,,,,,,,1,,,67,45
4704,note_on,48,0,1,,,,,,,,,1,,,64,0
4752,note_on,0,0,1,,,,,,,,,1,,,72,45
4752,note_on,48,0,1,,,,,,,,,1,,,67,0
4798,note_on,46,0,1,,,,,,,,,1,,,72,0
4800,note_on,290,0,4,,,,,,,,,4,,,48,45
4800,note_on,2,0,1,,,,,,,,,1,,,76,45
4800,note_on,290,0,3,,,,,,,,,3,,,60,45
4800,note_on,0,0,2,,,,,,,,,2,,,64,45
4800,note_on,290,0,2,,,,,,,,,2,,,55,45
5016,note_on,0,0,1,,,,,,,,,1,,,72,45
5016,note_on,216,0,1,,,,,,,,,1,,,76,0
5040,note_on,0,0,1,,,,,,,,,1,,,79,45
5040,note_on,24,0,1,,,,,,,,,1,,,72,0
5056,note_on,256,0,2,,,,,,,,,2,,,55,0
5056,note_on,0,0,2,,,,,,,,,2,,,64,0
5056,note_on,256,0,3,,,,,,,,,3,,,60,0
5056,note_on,256,0,4,,,,,,,,,4,,,48,0
5064,note_on,24,0,1,,,,,,,,,1,,,79,0
5064,note_on,0,0,1,,,,,,,,,1,,,78,45
5086,note_on,22,0,1,,,,,,,,,1,,,78,0
5088,note_on,2,0,1,,,,,,,,,1,,,79,45
5112,note_on,0,0,1,,,,,,,,,1,,,76,45
5112,note_on,24,0,1,,,,,,,,,1,,,79,0
5136,note_on,0,0,1,,,,,,,,,1,,,84,45
5136,note_on,24,0,1,,,,,,,,,1,,,76,0
5160,note_on,24,0,1,,,,,,,,,1,,,84,0
5160,note_on,0,0,1,,,,,,,,,1,,,83,45
5182,note_on,22,0,1,,,,,,,,,1,,,83,0
5184,note_on,2,0,1,,,,,,,,,1,,,84,45
5208,note_on,0,0,1,,,,,,,,,1,,,79,45
5208,note_on,24,0,1,,,,,,,,,1,,,84,0
5230,note_on,22,0,1,,,,,,,,,1,,,79,0
5232,note_on,2,0,1,,,,,,,,,1,,,88,45
5256,note_on,24,0,1,,,,,,,,,1,,,88,0
5256,note_on,0,0,1,,,,,,,,,1,,,84,45
5280,note_on,24,0,1,,,,,,,,,1,,,84,0
5280,note_on,0,0,1,,,,,,,,,1,,,79,45
5304,note_on,24,0,1,,,,,,,,,1,,,79,0
5304,note_on,0,0,1,,,,,,,,,1,,,76,45
5328,note_on,0,0,1,,,,,,,,,1,,,74,45
5328,note_on,24,0,1,,,,,,,,,1,,,76,0
5352,note_on,0,0,1,,,,,,,,,1,,,72,45
5352,note_on,24,0,1,,,,,,,,,1,,,74,0
5374,note_on,22,0,1,,,,,,,,,1,,,72,0
5376,note_on,320,0,3,,,,,,,,,3,,,55,45
5376,note_on,320,0,4,,,,,,,,,4,,,48,45
5376,note_on,320,0,2,,,,,,,,,2,,,64,45
5376,note_on,2,0,1,,,,,,,,,1,,,76,45
5470,note_on,94,0,1,,,,,,,,,1,,,76,0
5472,note_on,2,0,1,,,,,,,,,1,,,77,45
5472,note_on,0,0,2,,,,,,,,,2,,,67,45
5472,note_on,96,0,2,,,,,,,,,2,,,64,0
5472,note_on,96,0,3,,,,,,,,,3,,,55,0
5472,note_on,96,0,4,,,,,,,,,4,,,48,0
5472,note_on,0,0,4,,,,,,,,,4,,,52,45
5472,note_on,0,0,3,,,,,,,,,3,,,60,45
5480,note_on,0,0,1,,,,,,,,,1,,,76,45
5480,note_on,8,0,1,,,,,,,,,1,,,77,0
5488,note_on,8,0,1,,,,,,,,,1,,,76,0
5488,note_on,0,0,1,,,,,,,,,1,,,74,45
5496,note_on,8,0,1,,,,,,,,,1,,,74,0
5496,note_on,0,0,1,,,,,,,,,1,,,76,45
5508,note_on,0,0,1,,,,,,,,,1,,,77,45
5508,note_on,12,0,1,,,,,,,,,1,,,76,0
5520,note_on,12,0,1,,,,,,,,,1,,,77,0
5520,note_on,0,0,1,,,,,,,,,1,,,78,45
5544,note_on,24,0,1,,,,,,,,,1,,,78,0
5544,note_on,0,0,1,,,,,,,,,1,,,79,45
5566,note_on,22,0,1,,,,,,,,,1,,,79,0
5568,note_on,96,0,3,,,,,,,,,3,,,60,0
5568,note_on,96,0,4,,,,,,,,,4,,,52,0
5568,note_on,0,0,4,,,,,,,,,4,,,55,45
5568,note_on,0,0,2,,,,,,,,,2,,,62,45
5568,note_on,96,0,2,,,,,,,,,2,,,67,0
5568,note_on,0,0,3,,,,,,,,,3,,,59,45
5568,note_on,2,0,1,,,,,,,,,1,,,74,45
5662,note_on,94,0,2,,,,,,,,,2,,,62,0
5662,note_on,94,0,4,,,,,,,,,4,,,55,0
5662,note_on,94,0,1,,,,,,,,,1,,,74,0
5662,note_on,94,0,3,,,,,,,,,3,,,59,0
5664,note_on,2,0,3,,,,,,,,,3,,,62,45
5760,note_on,96,0,3,,,,,,,,,3,,,62,0
5760,note_on,0,0,3,,,,,,,,,3,,,59,45
5760,note_on,98,0,1,,,,,,,,,1,,,73,45
5782,note_on,22,0,1,,,,,,,,,1,,,73,0
5784,note_on,2,0,1,,,,,,,,,1,,,74,45
5854,note_on,70,0,1,,,,,,,,,1,,,74,0
5856,note_on,2,0,1,,,,,,,,,1,,,73,45
5856,note_on,96,0,3,,,,,,,,,3,,,59,0
5856,note_on,0,0,3,,,,,,,,,3,,,55,45
5878,note_on,22,0,1,,,,,,,,,1,,,73,0
5880,note_on,2,0,1,,,,,,,,,1,,,74,45
5950,note_on,70,0,1,,,,,,,,,1,,,74,0
5950,note_on,94,0,3,,,,,,,,,3,,,55,0
5952,note_on,290,0,2,,,,,,,,,2,,,66,45
5952,note_on,290,0,4,,,,,,,,,4,,,48,45
5952,note_on,2,0,1,,,,,,,,,1,,,74,45
5952,note_on,2,0,3,,,,,,,,,3,,,57,45
6048,note_on,0,0,2,,,,,,,,,2,,,69,60
6048,note_on,96,0,2,,,,,,,,,2,,,66,0
6048,note_on,96,0,3,,,,,,,,,3,,,57,0
6048,note_on,0,0,3,,,,,,,,,3,,,54,60
6120,note_on,0,0,3,,,,,,,,,3,,,50,45
6120,note_on,72,0,3,,,,,,,,,3,,,54,0
6120,note_on,0,0,2,,,,,,,,,2,,,66,45
6120,note_on,72,0,2,,,,,,,,,2,,,69,0
6142,note_on,22,0,3,,,,,,,,,3,,,50,0
6142,note_on,22,0,2,,,,,,,,,2,,,66,0
6144,note_on,2,0,3,,,,,,,,,3,,,55,45
6144,note_on,2,0,2,,,,,,,,,2,,,71,45
6144,note_on,192,0,4,,,,,,,,,4,,,48,0
6144,note_on,0,0,4,,,,,,,,,4,,,47,45
6208,note_on,256,0,1,,,,,,,,,1,,,74,0
6238,note_on,94,0,3,,,,,,,,,3,,,55,0
6238,note_on,94,0,2,,,,,,,,,2,,,71,0
6238,note_on,94,0,4,,,,,,,,,4,,,47,0
6240,note_on,32,0,1,,,,,,,,,1,,,76,45
6312,note_on,0,0,1,,,,,,,,,1,,,74,45
6312,note_on,72,0,1,,,,,,,,,1,,,76,0
6334,note_on,22,0,1,,,,,,,,,1,,,74,0
6336,note_on,2,0,1,,,,,,,,,1,,,79,45
6408,note_on,72,0,1,,,,,,,,,1,,,79,0
6408,note_on,0,0,1,,,,,,,,,1,,,74,45
6430,note_on,22,0,1,,,,,,,,,1,,,74,0
6432,note_on,2,0,1,,,,,,,,,1,,,83,45
6504,note_on,0,0,1,,,,,,,,,1,,,74,45
6504,note_on,72,0,1,,,,,,,,,1,,,83,0
6526,note_on,22,0,1,,,,,,,,,1,,,74,0
6528,note_on,290,0,2,,,,,,,,,2,,,66,45
6528,note_on,290,0,4,,,,,,,,,4,,,48,45
6528,note_on,2,0,1,,,,,,,,,1,,,74,45
6528,note_on,290,0,3,,,,,,,,,3,,,57,45
6624,note_on,96,0,3,,,,,,,,,3,,,57,0
6624,note_on,0,0,3,,,,,,,,,3,,,54,60
6624,note_on,96,0,2,,,,,,,,,2,,,66,0
6624,note_on,0,0,2,,,,,,,,,2,,,69,60
6696,note_on,0,0,2,,,,,,,,,2,,,66,45
6696,note_on,72,0,2,,,,,,,,,2,,,69,0
6696,note_on,72,0,3,,,,,,,,,3,,,54,0
6696,note_on,0,0,3,,,,,,,,,3,,,50,45
6718,note_on,22,0,2,,,,,,,,,2,,,66,0
6718,note_on,22,0,3,,,,,,,,,3,,,50,0
6720,note_on,2,0,2,,,,,,,,,2,,,71,45
6720,note_on,2,0,3,,,,,,,,,3,,,55,45
6720,note_on,192,0,4,,,,,,,,,4,,,48,0
6720,note_on,0,0,4,,,,,,,,,4,,,47,45
6784,note_on,256,0,1,,,,,,,,,1,,,74,0
6814,note_on,94,0,2,,,,,,,,,2,,,71,0
6814,note_on,94,0,3,,,,,,,,,3,,,55,0
6816,note_on,2,0,3,,,,,,,,,3,,,55,45
6816,note_on,2,0,2,,,,,,,,,2,,,62,45
6816,note_on,32,0,1,,,,,,,,,1,,,76,45
6880,note_on,160,0,4,,,,,,,,,4,,,47,0
6888,note_on,72,0,1,,,,,,,,,1,,,76,0
6888,note_on,0,0,1,,,,,,,,,1,,,74,45
6910,note_on,22,0,1,,,,,,,,,1,,,74,0
6912,note_on,32,0,4,,,,,,,,,4,,,47,45
6912,note_on,2,0,1,,,,,,,,,1,,,79,45
6976,note_on,160,0,3,,,,,,,,,3,,,55,0
6984,note_on,72,0,1,,,,,,,,,1,,,79,0
6984,note_on,0,0,1,,,,,,,,,1,,,74,45
7006,note_on,22,0,1,,,,,,,,,1,,,74,0
7008,note_on,192,0,2,,,,,,,,,2,,,62,0
7008,note_on,0,0,2,,,,,,,,,2,,,63,45
7008,note_on,2,0,1,,,,,,,,,1,,,83,45
7008,note_on,32,0,3,,,,,,,,,3,,,55,45
7072,note_on,160,0,4,,,,,,,,,4,,,47,0
7080,note_on,0,0,1,,,,,,,,,1,,,75,45
7080,note_on,72,0,1,,,,,,,,,1,,,83,0
7102,note_on,94,0,3,,,,,,,,,3,,,55,0
7102,note_on,22,0,1,,,,,,,,,1,,,75,0
7102,note_on,94,0,2,,,,,,,,,2,,,63,0
7104,note_on,2,0,2,,,,,,,,,2,,,64,45
7104,note_on,2,0,3,,,,,,,,,3,,,55,45
7104,note_on,2,0,1,,,,,,,,,1,,,78,45
7104,note_on,32,0,4,,,,,,,,,4,,,48,45
7128,note_on,0,0,1,,,,,,,,,1,,,76,48
7128,note_on,24,0,1,,,,,,,,,1,,,78,0
7152,note_on,0,0,1,,,,,,,,,1,,,74,51
7152,note_on,24,0,1,,,,,,,,,1,,,76,0
7152,note_on,0,0,3,,,,,,,,,3,,,56,52
7152,note_on,48,0,3,,,,,,,,,3,,,55,0
7176,note_on,24,0,1,,,,,,,,,1,,,74,0
7176,note_on,0,0,1,,,,,,,,,1,,,72,55
7200,note_on,0,0,1,,,,,,,,,1,,,71,59
7200,note_on,48,0,3,,,,,,,,,3,,,56,0
7200,note_on,0,0,3,,,,,,,,,3,,,57,59
7200,note_on,24,0,1,,,,,,,,,1,,,72,0
7224,note_on,0,0,1,,,,,,,,,1,,,69,63
7224,note_on,24,0,1,,,,,,,,,1,,,71,0
7246,note_on,22,0,1,,,,,,,,,1,,,69,0
7248,note_on,48,0,3,,,,,,,,,3,,,57,0
7248,note_on,0,0,3,,,,,,,,,3,,,58,67
7248,note_on,144,0,2,,,,,,,,,2,,,64,0
7248,note_on,0,0,2,,,,,,,,,2,,,67,67
7248,note_on,0,0,4,,,,,,,,,4,,,49,67
7248,note_on,144,0,4,,,,,,,,,4,,,48,0
7248,note_on,2,0,1,,,,,,,,,1,,,76,67
7264,note_on,16,0,1,,,,,,,,,1,,,76,0
7272,note_on,8,0,1,,,,,,,,,1,,,76,71
7288,note_on,16,0,1,,,,,,,,,1,,,76,0
7294,note_on,46,0,3,,,,,,,,,3,,,58,0
7294,note_on,46,0,2,,,,,,,,,2,,,67,0
7294,note_on,46,0,4,,,,,,,,,4,,,49,0
7296,note_on,8,0,1,,,,,,,,,1,,,76,45
7296,note_on,2,0,3,,,,,,,,,3,,,59,45
7296,note_on,2,0,2,,,,,,,,,2,,,67,45
7296,note_on,2,0,4,,,,,,,,,4,,,50,45
7390,note_on,94,0,3,,,,,,,,,3,,,59,0
7390,note_on,94,0,2,,,,,,,,,2,,,67,0
7392,note_on,96,0,1,,,,,,,,,1,,,76,0
7392,note_on,0,0,1,,,,,,,,,1,,,67,45
7392,note_on,2,0,3,,,,,,,,,3,,,59,45
7392,note_on,2,0,2,,,,,,,,,2,,,62,45
7456,note_on,160,0,4,,,,,,,,,4,,,50,0
7488,note_on,96,0,2,,,,,,,,,2,,,62,0
7488,note_on,0,0,3,,,,,,,,,3,,,57,45
7488,note_on,96,0,3,,,,,,,,,3,,,59,0
7488,note_on,32,0,4,,,,,,,,,4,,,38,45
7488,note_on,0,0,2,,,,,,,,,2,,,60,45
7558,note_on,166,0,1,,,,,,,,,1,,,67,0
7560,note_on,2,0,1,,,,,,,,,1,,,69,45
7568,note_on,8,0,1,,,,,,,,,1,,,69,0
7568,note_on,0,0,1,,,,,,,,,1,,,67,45
7576,note_on,8,0,1,,,,,,,,,1,,,67,0
7576,note_on,0,0,1,,,,,,,,,1,,,66,45
7582,note_on,94,0,3,,,,,,,,,3,,,57,0
7582,note_on,94,0,2,,,,,,,,,2,,,60,0
7584,note_on,8,0,1,,,,,,,,,1,,,66,0
7584,note_on,0,0,1,,,,,,,,,1,,,67,45
7584,note_on,2,0,3,,,,,,,,,3,,,57,45
7584,note_on,2,0,2,,,,,,,,,2,,,60,45
7592,note_on,0,0,1,,,,,,,,,1,,,69,45
7592,note_on,8,0,1,,,,,,,,,1,,,67,0
7600,note_on,8,0,1,,,,,,,,,1,,,69,0
7600,note_on,0,0,1,,,,,,,,,1,,,71,45
7608,note_on,8,0,1,,,,,,,,,1,,,71,0
7608,note_on,0,0,1,,,,,,,,,1,,,72,45
7616,note_on,8,0,1,,,,,,,,,1,,,72,0
7616,note_on,0,0,1,,,,,,,,,1,,,74,45
7624,note_on,8,0,1,,,,,,,,,1,,,74,0
7624,note_on,0,0,1,,,,,,,,,1,,,76,45
7642,note_on,18,0,1,,,,,,,,,1,,,76,0
7648,note_on,160,0,4,,,,,,,,,4,,,38,0
7656,note_on,14,0,1,,,,,,,,,1,,,66,45
7678,note_on,94,0,3,,,,,,,,,3,,,57,0
7678,note_on,94,0,2,,,,,,,,,2,,,60,0
7678,note_on,22,0,1,,,,,,,,,1,,,66,0
7680,note_on,2,0,2,,,,,,,,,2,,,60,45
7680,note_on,32,0,4,,,,,,,,,4,,,43,45
7680,note_on,2,0,1,,,,,,,,,1,,,69,45
7776,note_on,98,0,3,,,,,,,,,3,,,54,45
7824,note_on,0,0,2,,,,,,,,,2,,,62,45
7824,note_on,144,0,2,,,,,,,,,2,,,60,0
7848,note_on,0,0,2,,,,,,,,,2,,,60,45
7848,note_on,24,0,2,,,,,,,,,2,,,62,0
7870,note_on,22,0,2,,,,,,,,,2,,,60,0
7872,note_on,2,0,2,,,,,,,,,2,,,59,45
7872,note_on,0,0,1,,,,,,,,,1,,,67,45
7872,note_on,192,0,1,,,,,,,,,1,,,69,0
7872,note_on,96,0,3,,,,,,,,,3,,,54,0
7872,note_on,0,0,3,,,,,,,,,3,,,55,45
7936,note_on,256,0,4,,,,,,,,,4,,,43,0
7966,note_on,94,0,3,,,,,,,,,3,,,55,0
7966,note_on,94,0,2,,,,,,,,,2,,,59,0
7966,note_on,94,0,1,,,,,,,,,1,,,67,0
7968,note_on,32,0,4,,,,,,,,,4,,,55,45
8064,note_on,96,0,4,,,,,,,,,4,,,55,0
8064,note_on,0,0,4,,,,,,,,,4,,,59,45
8064,note_on,98,0,1,,,,,,,,,1,,,67,45
8132,note_on,68,0,1,,,,,,,,,1,,,67,0
8160,note_on,28,0,1,,,,,,,,,1,,,67,45
8160,note_on,96,0,4,,,,,,,,,4,,,59,0
8160,note_on,0,0,4,,,,,,,,,4,,,62,45
8192,note_on,32,0,1,,,,,,,,,1,,,67,0
8254,note_on,94,0,4,,,,,,,,,4,,,62,0
8256,note_on,2,0,4,,,,,,,,,4,,,67,45
8256,note_on,290,0,3,,,,,,,,,3,,,62,45
8256,note_on,290,0,2,,,,,,,,,2,,,67,45
8256,note_on,64,0,1,,,,,,,,,1,,,71,45
8512,note_on,256,0,2,,,,,,,,,2,,,67,0
8512,note_on,256,0,3,,,,,,,,,3,,,62,0
8544,note_on,288,0,4,,,,,,,,,4,,,67,0
8544,note_on,0,0,4,,,,,,,,,4,,,64,54
8544,note_on,32,0,3,,,,,,,,,3,,,60,54
8544,note_on,288,0,1,,,,,,,,,1,,,71,0
8544,note_on,0,0,1,,,,,,,,,1,,,72,54
8544,note_on,32,0,2,,,,,,,,,2,,,67,54
8638,note_on,94,0,2,,,,,,,,,2,,,67,0
8640,note_on,96,0,1,,,,,,,,,1,,,72,0
8640,note_on,0,0,1,,,,,,,,,1,,,74,57
8640,note_on,96,0,3,,,,,,,,,3,,,60,0
8640,note_on,0,0,3,,,,,,,,,3,,,65,57
8640,note_on,2,0,2,,,,,,,,,2,,,67,57
8640,note_on,96,0,4,,,,,,,,,4,,,64,0
8640,note_on,0,0,4,,,,,,,,,4,,,59,57
8734,note_on,94,0,2,,,,,,,,,2,,,67,0
8734,note_on,94,0,3,,,,,,,,,3,,,65,0
8736,note_on,2,0,3,,,,,,,,,3,,,64,60
8736,note_on,0,0,1,,,,,,,,,1,,,76,60
8736,note_on,96,0,1,,,,,,,,,1,,,74,0
8736,note_on,0,0,4,,,,,,,,,4,,,60,60
8736,note_on,96,0,4,,,,,,,,,4,,,59,0
8736,note_on,2,0,2,,,,,,,,,2,,,67,60
8806,note_on,70,0,2,,,,,,,,,2,,,67,0
8808,note_on,0,0,3,,,,,,,,,3,,,67,49
8808,note_on,72,0,3,,,,,,,,,3,,,64,0
8808,note_on,0,0,1,,,,,,,,,1,,,72,49
8808,note_on,72,0,1,,,,,,,,,1,,,76,0
8808,note_on,72,0,4,,,,,,,,,4,,,60,0
8808,note_on,0,0,4,,,,,,,,,4,,,64,49
8830,note_on,22,0,1,,,,,,,,,1,,,72,0
8830,note_on,22,0,3,,,,,,,,,3,,,67,0
8830,note_on,22,0,4,,,,,,,,,4,,,64,0
8832,note_on,2,0,3,,,,,,,,,3,,,67,60
8832,note_on,2,0,1,,,,,,,,,1,,,76,45
8832,note_on,26,0,2,,,,,,,,,2,,,72,45
8880,note_on,50,0,4,,,,,,,,,4,,,66,45
8926,note_on,94,0,3,,,,,,,,,3,,,67,0
8928,note_on,2,0,3,,,,,,,,,3,,,55,45
8928,note_on,0,0,4,,,,,,,,,4,,,67,45
8928,note_on,48,0,4,,,,,,,,,4,,,66,0
8976,note_on,48,0,4,,,,,,,,,4,,,67,0
8976,note_on,0,0,4,,,,,,,,,4,,,66,45
9022,note_on,94,0,3,,,,,,,,,3,,,55,0
9024,note_on,48,0,4,,,,,,,,,4,,,66,0
9024,note_on,192,0,2,,,,,,,,,2,,,72,0
9024,note_on,192,0,1,,,,,,,,,1,,,76,0
9024,note_on,0,0,1,,,,,,,,,1,,,74,45
9024,note_on,2,0,3,,,,,,,,,3,,,55,45
9024,note_on,0,0,4,,,,,,,,,4,,,67,45
9024,note_on,0,0,2,,,,,,,,,2,,,71,45
9118,note_on,94,0,1,,,,,,,,,1,,,74,0
9118,note_on,94,0,4,,,,,,,,,4,,,67,0
9118,note_on,94,0,2,,,,,,,,,2,,,71,0
9118,note_on,94,0,3,,,,,,,,,3,,,55,0
9120,note_on,2,0,4,,,,,,,,,4,,,43,45
9120,note_on,2,0,3,,,,,,,,,3,,,55,45
9216,note_on,98,0,1,,,,,,,,,1,,,79,45
9216,note_on,0,0,3,,,,,,,,,3,,,59,45
9216,note_on,96,0,3,,,,,,,,,3,,,55,0
9216,note_on,96,0,4,,,,,,,,,4,,,43,0
9216,note_on,98,0,2,,,,,,,,,2,,,67,45
9216,note_on,0,0,4,,,,,,,,,4,,,47,45
9284,note_on,68,0,2,,,,,,,,,2,,,67,0
9284,note_on,68,0,1,,,,,,,,,1,,,79,0
9312,note_on,0,0,4,,,,,,,,,4,,,50,45
9312,note_on,96,0,4,,,,,,,,,4,,,47,0
9312,note_on,28,0,1,,,,,,,,,1,,,79,45
9312,note_on,0,0,3,,,,,,,,,3,,,62,45
9312,note_on,28,0,2,,,,,,,,,2,,,67,45
9312,note_on,96,0,3,,,,,,,,,3,,,59,0
9344,note_on,32,0,1,,,,,,,,,1,,,79,0
9344,note_on,32,0,2,,,,,,,,,2,,,67,0
9406,note_on,94,0,3,,,,,,,,,3,,,62,0
9406,note_on,94,0,4,,,,,,,,,4,,,50,0
9408,note_on,64,0,1,,,,,,,,,1,,,83,45
9408,note_on,64,0,2,,,,,,,,,2,,,71,45
9408,note_on,0,0,3,,,,,,,,,3,,,67,45
9408,note_on,2,0,3,,,,,,,,,3,,,55,45
9408,note_on,2,0,4,,,,,,,,,4,,,53,45
9664,note_on,256,0,4,,,,,,,,,4,,,53,0
9664,note_on,256,0,2,,,,,,,,,2,,,71,0
9664,note_on,0,0,3,,,,,,,,,3,,,67,0
9664,note_on,256,0,3,,,,,,,,,3,,,55,0
9664,note_on,256,0,1,,,,,,,,,1,,,83,0
9696,note_on,32,0,4,,,,,,,,,4,,,52,68
9696,note_on,32,0,2,,,,,,,,,2,,,72,68
9696,note_on,0,0,3,,,,,,,,,3,,,67,68
9696,note_on,32,0,1,,,,,,,,,1,,,84,68
9696,note_on,32,0,3,,,,,,,,,3,,,55,68
9790,note_on,0,0,3,,,,,,,,,3,,,67,0
9790,note_on,94,0,3,,,,,,,,,3,,,55,0
9792,note_on,0,0,3,,,,,,,,,3,,,65,76
9792,note_on,96,0,4,,,,,,,,,4,,,52,0
9792,note_on,0,0,4,,,,,,,,,4,,,47,76
9792,note_on,96,0,1,,,,,,,,,1,,,84,0
9792,note_on,0,0,1,,,,,,,,,1,,,86,76
9792,note_on,96,0,2,,,,,,,,,2,,,72,0
9792,note_on,0,0,2,,,,,,,,,2,,,74,76
9792,note_on,2,0,3,,,,,,,,,3,,,55,76
9886,note_on,94,0,3,,,,,,,,,3,,,55,0
9886,note_on,0,0,3,,,,,,,,,3,,,65,0
9888,note_on,96,0,4,,,,,,,,,4,,,47,0
9888,note_on,96,0,2,,,,,,,,,2,,,74,0
9888,note_on,2,0,3,,,,,,,,,3,,,55,84
9888,note_on,0,0,1,,,,,,,,,1,,,88,84
9888,note_on,96,0,1,,,,,,,,,1,,,86,0
9888,note_on,0,0,3,,,,,,,,,3,,,64,84
9888,note_on,0,0,4,,,,,,,,,4,,,48,84
9888,note_on,0,0,2,,,,,,,,,2,,,76,84
9960,note_on,72,0,2,,,,,,,,,2,,,76,0
9960,note_on,0,0,1,,,,,,,,,1,,,84,90
9960,note_on,72,0,1,,,,,,,,,1,,,88,0
9960,note_on,0,0,2,,,,,,,,,2,,,72,90
9982,note_on,94,0,3,,,,,,,,,3,,,55,0
9982,note_on,94,0,4,,,,,,,,,4,,,48,0
9982,note_on,0,0,3,,,,,,,,,3,,,64,0
9982,note_on,22,0,1,,,,,,,,,1,,,84,0
9982,note_on,22,0,2,,,,,,,,,2,,,72,0
9984,note_on,2,0,4,,,,,,,,,4,,,43,92
9984,note_on,0,0,3,,,,,,,,,3,,,62,92
9984,note_on,2,0,3,,,,,,,,,3,,,55,92
9984,note_on,2,0,1,,,,,,,,,1,,,89,92
9984,note_on,2,0,2,,,,,,,,,2,,,77,92
10222,note_on,238,0,1,,,,,,,,,1,,,89,0
10222,note_on,238,0,2,,,,,,,,,2,,,77,0
10224,note_on,2,0,1,,,,,,,,,1,,,86,45
10224,note_on,2,0,2,,,,,,,,,2,,,74,45
10240,note_on,0,0,3,,,,,,,,,3,,,62,0
10240,note_on,256,0,3,,,,,,,,,3,,,55,0
10240,note_on,256,0,4,,,,,,,,,4,,,43,0
10272,note_on,48,0,2,,,,,,,,,2,,,74,0
10272,note_on,0,0,2,,,,,,,,,2,,,71,45
10272,note_on,48,0,1,,,,,,,,,1,,,86,0
10272,note_on,0,0,1,,,,,,,,,1,,,83,45
10320,note_on,48,0,2,,,,,,,,,2,,,71,0
10320,note_on,48,0,1,,,,,,,,,1,,,83,0
10320,note_on,0,0,1,,,,,,,,,1,,,79,45
10320,note_on,0,0,2,,,,,,,,,2,,,67,45
10368,note_on,48,0,2,,,,,,,,,2,,,67,0
10368,note_on,0,0,2,,,,,,,,,2,,,68,45
10368,note_on,0,0,1,,,,,,,,,1,,,80,45
10368,note_on,48,0,1,,,,,,,,,1,,,79,0
10416,note_on,48,0,1,,,,,,,,,1,,,80,0
10416,note_on,48,0,2,,,,,,,,,2,,,68,0
10416,note_on,0,0,2,,,,,,,,,2,,,69,45
10416,note_on,0,0,1,,,,,,,,,1,,,81,45
10464,note_on,0,0,1,,,,,,,,,1,,,82,45
10464,note_on,48,0,1,,,,,,,,,1,,,81,0
10464,note_on,0,0,2,,,,,,,,,2,,,70,45
10464,note_on,48,0,2,,,,,,,,,2,,,69,0
10512,note_on,0,0,1,,,,,,,,,1,,,83,45
10512,note_on,48,0,1,,,,,,,,,1,,,82,0
10512,note_on,0,0,2,,,,,,,,,2,,,71,45
10512,note_on,48,0,2,,,,,,,,,2,,,70,0
10558,note_on,46,0,1,,,,,,,,,1,,,83,0
10558,note_on,46,0,2,,,,,,,,,2,,,71,0
10560,note_on,2,0,1,,,,,,,,,1,,,84,45
10560,note_on,2,0,2,,,,,,,,,2,,,72,45
10560,note_on,320,0,4,,,,,,,,,4,,,48,60
10560,note_on,320,0,3,,,,,,,,,3,,,60,45
10654,note_on,94,0,2,,,,,,,,,2,,,72,0
10656,note_on,2,0,2,,,,,,,,,2,,,55,45
10656,note_on,0,0,2,,,,,,,,,2,,,64,45
10816,note_on,256,0,4,,,,,,,,,4,,,48,0
10816,note_on,160,0,2,,,,,,,,,2,,,55,0
10816,note_on,0,0,2,,,,,,,,,2,,,64,0
10816,note_on,256,0,3,,,,,,,,,3,,,60,0
10848,note_on,32,0,2,,,,,,,,,2,,,55,45
10848,note_on,0,0,2,,,,,,,,,2,,,64,45
10848,note_on,288,0,1,,,,,,,,,1,,,84,0
10848,note_on,0,0,1,,,,,,,,,1,,,79,45
10848,note_on,32,0,3,,,,,,,,,3,,,60,45
10848,note_on,32,0,4,,,,,,,,,4,,,48,60
10916,note_on,68,0,3,,,,,,,,,3,,,60,0
10916,note_on,0,0,2,,,,,,,,,2,,,64,0
10916,note_on,68,0,2,,,,,,,,,2,,,55,0
10916,note_on,68,0,4,,,,,,,,,4,,,48,0
10944,note_on,96,0,1,,,,,,,,,1,,,79,0
10944,note_on,0,0,1,,,,,,,,,1,,,76,45
10944,note_on,0,0,2,,,,,,,,,2,,,64,45
10944,note_on,28,0,2,,,,,,,,,2,,,55,45
10944,note_on,28,0,3,,,,,,,,,3,,,60,45
10944,note_on,28,0,4,,,,,,,,,4,,,48,60
11012,note_on,68,0,3,,,,,,,,,3,,,60,0
11012,note_on,68,0,2,,,,,,,,,2,,,55,0
11012,note_on,0,0,2,,,,,,,,,2,,,64,0
11012,note_on,68,0,4,,,,,,,,,4,,,48,0
11040,note_on,28,0,2,,,,,,,,,2,,,55,45
11040,note_on,0,0,2,,,,,,,,,2,,,64,45
11040,note_on,28,0,3,,,,,,,,,3,,,60,45
11040,note_on,28,0,4,,,,,,,,,4,,,48,60
11040,note_on,0,0,1,,,,,,,,,1,,,72,45
11040,note_on,96,0,1,,,,,,,,,1,,,76,0
11072,note_on,0,0,2,,,,,,,,,2,,,64,0
11072,note_on,32,0,2,,,,,,,,,2,,,55,0
11072,note_on,32,0,3,,,,,,,,,3,,,60,0
11072,note_on,32,0,4,,,,,,,,,4,,,48,0
11134,note_on,94,0,1,,,,,,,,,1,,,72,0
11136,note_on,64,0,3,,,,,,,,,3,,,48,45
11136,note_on,0,0,3,,,,,,,,,3,,,60,45
11136,note_on,2,0,1,,,,,,,,,1,,,84,45
11136,note_on,64,0,4,,,,,,,,,4,,,46,45
11232,note_on,160,0,2,,,,,,,,,2,,,55,45
11232,note_on,0,0,2,,,,,,,,,2,,,64,45
11392,note_on,256,0,4,,,,,,,,,4,,,46,0
11392,note_on,160,0,2,,,,,,,,,2,,,55,0
11392,note_on,0,0,2,,,,,,,,,2,,,64,0
11392,note_on,256,0,3,,,,,,,,,3,,,48,0
11392,note_on,0,0,3,,,,,,,,,3,,,60,0
11424,note_on,32,0,3,,,,,,,,,3,,,48,45
11424,note_on,0,0,1,,,,,,,,,1,,,79,45
11424,note_on,288,0,1,,,,,,,,,1,,,84,0
11424,note_on,32,0,2,,,,,,,,,2,,,55,45
11424,note_on,32,0,4,,,,,,,,,4,,,46,45
11424,note_on,0,0,3,,,,,,,,,3,,,60,45
11424,note_on,0,0,2,,,,,,,,,2,,,64,45
11492,note_on,68,0,4,,,,,,,,,4,,,46,0
11492,note_on,68,0,2,,,,,,,,,2,,,55,0
11492,note_on,0,0,2,,,,,,,,,2,,,64,0
11492,note_on,0,0,3,,,,,,,,,3,,,60,0
11492,note_on,68,0,3,,,,,,,,,3,,,48,0
11520,note_on,28,0,3,,,,,,,,,3,,,48,45
11520,note_on,0,0,3,,,,,,,,,3,,,60,45
11520,note_on,96,0,1,,,,,,,,,1,,,79,0
11520,note_on,28,0,2,,,,,,,,,2,,,55,45
11520,note_on,0,0,1,,,,,,,,,1,,,76,45
11520,note_on,0,0,2,,,,,,,,,2,,,64,45
11520,note_on,28,0,4,,,,,,,,,4,,,46,45
11588,note_on,68,0,2,,,,,,,,,2,,,55,0
11588,note_on,0,0,2,,,,,,,,,2,,,64,0
11588,note_on,68,0,4,,,,,,,,,4,,,46,0
11588,note_on,68,0,3,,,,,,,,,3,,,48,0
11588,note_on,0,0,3,,,,,,,,,3,,,60,0
11616,note_on,28,0,2,,,,,,,,,2,,,55,45
11616,note_on,0,0,2,,,,,,,,,2,,,64,45
11616,note_on,28,0,3,,,,,,,,,3,,,48,45
11616,note_on,28,0,4,,,,,,,,,4,,,46,45
11616,note_on,96,0,1,,,,,,,,,1,,,76,0
11616,note_on,0,0,3,,,,,,,,,3,,,60,45
11616,note_on,0,0,1,,,,,,,,,1,,,72,45
11648,note_on,0,0,3,,,,,,,,,3,,,60,0
11648,note_on,32,0,3,,,,,,,,,3,,,48,0
11648,note_on,0,0,2,,,,,,,,,2,,,64,0
11648,note_on,32,0,2,,,,,,,,,2,,,55,0
11648,note_on,32,0,4,,,,,,,,,4,,,46,0
11710,note_on,94,0,1,,,,,,,,,1,,,72,0
11712,note_on,64,0,3,,,,,,,,,3,,,48,45
11712,note_on,0,0,3,,,,,,,,,3,,,60,45
11712,note_on,64,0,2,,,,,,,,,2,,,65,45
11712,note_on,64,0,4,,,,,,,,,4,,,45,45
11712,note_on,2,0,1,,,,,,,,,1,,,84,45
11872,note_on,160,0,3,,,,,,,,,3,,,48,0
11872,note_on,0,0,3,,,,,,,,,3,,,60,0
11872,note_on,160,0,2,,,,,,,,,2,,,65,0
11872,note_on,160,0,4,,,,,,,,,4,,,45,0
11872,note_on,160,0,1,,,,,,,,,1,,,84,0
11904,note_on,32,0,1,,,,,,,,,1,,,86,68
11904,note_on,32,0,2,,,,,,,,,2,,,65,68
11904,note_on,32,0,4,,,,,,,,,4,,,45,68
11904,note_on,0,0,3,,,,,,,,,3,,,60,68
11904,note_on,32,0,3,,,,,,,,,3,,,48,68
12064,note_on,160,0,4,,,,,,,,,4,,,45,0
12064,note_on,0,0,3,,,,,,,,,3,,,60,0
12064,note_on,160,0,3,,,,,,,,,3,,,48,0
12064,note_on,160,0,1,,,,,,,,,1,,,86,0
12064,note_on,160,0,2,,,,,,,,,2,,,65,0
12096,note_on,0,0,3,,,,,,,,,3,,,60,92
12096,note_on,32,0,4,,,,,,,,,4,,,44,92
12096,note_on,32,0,2,,,,,,,,,2,,,66,92
12096,note_on,32,0,1,,,,,,,,,1,,,75,92
12096,note_on,0,0,1,,,,,,,,,1,,,87,92
12096,note_on,32,0,3,,,,,,,,,3,,,48,92
12256,note_on,160,0,4,,,,,,,,,4,,,44,0
12256,note_on,160,0,1,,,,,,,,,1,,,75,0
12256,note_on,160,0,2,,,,,,,,,2,,,66,0
12256,note_on,0,0,1,,,,,,,,,1,,,87,0
12256,note_on,160,0,3,,,,,,,,,3,,,48,0
12256,note_on,0,0,3,,,,,,,,,3,,,60,0
12288,note_on,32,0,2,,,,,,,,,2,,,55,92
12288,note_on,0,0,2,,,,,,,,,2,,,67,92
12288,note_on,32,0,4,,,,,,,,,4,,,43,92
12288,note_on,32,0,1,,,,,,,,,1,,,76,92
12288,note_on,0,0,1,,,,,,,,,1,,,88,92
12288,note_on,32,0,3,,,,,,,,,3,,,48,92
12288,note_on,0,0,3,,,,,,,,,3,,,60,92
12382,note_on,0,0,3,,,,,,,,,3,,,60,0
12382,note_on,94,0,3,,,,,,,,,3,,,48,0
12382,note_on,0,0,2,,,,,,,,,2,,,67,0
12382,note_on,94,0,2,,,,,,,,,2,,,55,0
12384,note_on,2,0,2,,,,,,,,,2,,,55,45
12384,note_on,2,0,3,,,,,,,,,3,,,52,45
12448,note_on,160,0,1,,,,,,,,,1,,,76,0
12480,note_on,96,0,2,,,,,,,,,2,,,55,0
12480,note_on,96,0,3,,,,,,,,,3,,,52,0
12480,note_on,0,0,3,,,,,,,,,3,,,55,45
12480,note_on,0,0,2,,,,,,,,,2,,,60,45
12502,note_on,54,0,1,,,,,,,,,1,,,88,0
12504,note_on,2,0,1,,,,,,,,,1,,,87,45
12528,note_on,0,0,1,,,,,,,,,1,,,89,45
12528,note_on,24,0,1,,,,,,,,,1,,,87,0
12552,note_on,24,0,1,,,,,,,,,1,,,89,0
12552,note_on,0,0,1,,,,,,,,,1,,,88,45
12576,note_on,24,0,1,,,,,,,,,1,,,88,0
12576,note_on,0,0,1,,,,,,,,,1,,,86,45
12576,note_on,0,0,3,,,,,,,,,3,,,60,45
12576,note_on,96,0,3,,,,,,,,,3,,,55,0
12576,note_on,96,0,2,,,,,,,,,2,,,60,0
12576,note_on,0,0,2,,,,,,,,,2,,,64,45
12600,note_on,0,0,1,,,,,,,,,1,,,84,45
12600,note_on,24,0,1,,,,,,,,,1,,,86,0
12624,note_on,336,0,4,,,,,,,,,4,,,43,0
12624,note_on,24,0,1,,,,,,,,,1,,,84,0
12624,note_on,0,0,1,,,,,,,,,1,,,83,45
12648,note_on,24,0,1,,,,,,,,,1,,,83,0
12648,note_on,0,0,1,,,,,,,,,1,,,81,45
12670,note_on,22,0,1,,,,,,,,,1,,,81,0
12672,note_on,96,0,3,,,,,,,,,3,,,60,0
12672,note_on,96,0,2,,,,,,,,,2,,,64,0
12672,note_on,0,0,2,,,,,,,,,2,,,65,45
12672,note_on,2,0,1,,,,,,,,,1,,,79,45
12672,note_on,48,0,4,,,,,,,,,4,,,43,45
12672,note_on,0,0,3,,,,,,,,,3,,,59,45
12696,note_on,24,0,1,,,,,,,,,1,,,79,0
12696,note_on,0,0,1,,,,,,,,,1,,,80,45
12720,note_on,0,0,1,,,,,,,,,1,,,83,45
12720,note_on,24,0,1,,,,,,,,,1,,,80,0
12744,note_on,24,0,1,,,,,,,,,1,,,83,0
12744,note_on,0,0,1,,,,,,,,,1,,,81,45
12768,note_on,0,0,1,,,,,,,,,1,,,79,45
12768,note_on,0,0,3,,,,,,,,,3,,,53,45
12768,note_on,96,0,3,,,,,,,,,3,,,59,0
12768,note_on,96,0,2,,,,,,,,,2,,,65,0
12768,note_on,0,0,2,,,,,,,,,2,,,59,45
12768,note_on,24,0,1,,,,,,,,,1,,,81,0
12792,note_on,24,0,1,,,,,,,,,1,,,79,0
12792,note_on,0,0,1,,,,,,,,,1,,,77,45
12816,note_on,24,0,1,,,,,,,,,1,,,77,0
12816,note_on,0,0,1,,,,,,,,,1,,,76,45
12832,note_on,160,0,4,,,,,,,,,4,,,43,0
12840,note_on,0,0,1,,,,,,,,,1,,,74,45
12840,note_on,24,0,1,,,,,,,,,1,,,76,0
12862,note_on,22,0,1,,,,,,,,,1,,,74,0
12862,note_on,94,0,3,,,,,,,,,3,,,53,0
12862,note_on,94,0,2,,,,,,,,,2,,,59,0
12864,note_on,32,0,4,,,,,,,,,4,,,48,45
12864,note_on,2,0,1,,,,,,,,,1,,,72,45
12864,note_on,2,0,3,,,,,,,,,3,,,52,45
12864,note_on,2,0,2,,,,,,,,,2,,,60,45
12958,note_on,94,0,1,,,,,,,,,1,,,72,0
12958,note_on,94,0,2,,,,,,,,,2,,,60,0
12958,note_on,94,0,4,,,,,,,,,4,,,48,0
12958,note_on,94,0,3,,,,,,,,,3,,,52,0
13248,note_on,290,0,4,,,,,,,,,4,,,53,30
13248,note_on,290,0,3,,,,,,,,,3,,,55,30
13248,note_on,290,0,1,,,,,,,,,1,,,71,30
13248,note_on,290,0,2,,,,,,,,,2,,,62,30
13282,note_on,34,0,3,,,,,,,,,3,,,55,0
13282,note_on,34,0,4,,,,,,,,,4,,,53,0
13282,note_on,34,0,1,,,,,,,,,1,,,71,0
13282,note_on,34,0,2,,,,,,,,,2,,,62,0
13296,note_on,14,0,4,,,,,,,,,4,,,53,30
13296,note_on,14,0,2,,,,,,,,,2,,,62,30
13296,note_on,14,0,3,,,,,,,,,3,,,55,30
13296,note_on,14,0,1,,,,,,,,,1,,,71,30
13330,note_on,34,0,4,,,,,,,,,4,,,53,0
13330,note_on,34,0,1,,,,,,,,,1,,,71,0
13330,note_on,34,0,3,,,,,,,,,3,,,55,0
13330,note_on,34,0,2,,,,,,,,,2,,,62,0
13344,note_on,14,0,3,,,,,,,,,3,,,55,30
13344,note_on,14,0,1,,,,,,,,,1,,,69,30
13344,note_on,14,0,4,,,,,,,,,4,,,53,30
13344,note_on,14,0,2,,,,,,,,,2,,,60,30
13378,note_on,34,0,4,,,,,,,,,4,,,53,0
13378,note_on,34,0,3,,,,,,,,,3,,,55,0
13378,note_on,34,0,1,,,,,,,,,1,,,69,0
13378,note_on,34,0,2,,,,,,,,,2,,,60,0
13392,note_on,14,0,1,,,,,,,,,1,,,67,30
13392,note_on,14,0,4,,,,,,,,,4,,,53,30
13392,note_on,14,0,3,,,,,,,,,3,,,55,30
13392,note_on,14,0,2,,,,,,,,,2,,,59,30
13424,note_on,32,0,4,,,,,,,,,4,,,53,0
13424,note_on,32,0,1,,,,,,,,,1,,,67,0
13424,note_on,32,0,3,,,,,,,,,3,,,55,0
13424,note_on,32,0,2,,,,,,,,,2,,,59,0
13440,note_on,16,0,4,,,,,,,,,4,,,52,30
13440,note_on,16,0,1,,,,,,,,,1,,,72,30
13440,note_on,16,0,3,,,,,,,,,3,,,55,30
13440,note_on,16,0,2,,,,,,,,,2,,,60,30
13534,note_on,94,0,3,,,,,,,,,3,,,55,0
13534,note_on,94,0,1,,,,,,,,,1,,,72,0
13534,note_on,94,0,4,,,,,,,,,4,,,52,0
13534,note_on,94,0,2,,,,,,,,,2,,,60,0
13824,note_on,0,0,2,,,,,,,,,2,,,65,30
13824,note_on,290,0,1,,,,,,,,,1,,,67,30
13824,note_on,290,0,3,,,,,,,,,3,,,62,30
13824,note_on,290,0,2,,,,,,,,,2,,,55,30
13824,note_on,290,0,4,,,,,,,,,4,,,47,30
13858,note_on,34,0,3,,,,,,,,,3,,,62,0
13858,note_on,34,0,4,,,,,,,,,4,,,47,0
13858,note_on,34,0,2,,,,,,,,,2,,,55,0
13858,note_on,34,0,1,,,,,,,,,1,,,67,0
13858,note_on,0,0,2,,,,,,,,,2,,,65,0
13872,note_on,0,0,2,,,,,,,,,2,,,65,30
13872,note_on,14,0,4,,,,,,,,,4,,,47,30
13872,note_on,14,0,3,,,,,,,,,3,,,62,30
13872,note_on,14,0,1,,,,,,,,,1,,,67,30
13872,note_on,14,0,2,,,,,,,,,2,,,55,30
13906,note_on,34,0,4,,,,,,,,,4,,,47,0
13906,note_on,34,0,3,,,,,,,,,3,,,62,0
13906,note_on,34,0,1,,,,,,,,,1,,,67,0
13906,note_on,34,0,2,,,,,,,,,2,,,55,0
13906,note_on,0,0,2,,,,,,,,,2,,,65,0
13920,note_on,14,0,1,,,,,,,,,1,,,67,30
13920,note_on,14,0,4,,,,,,,,,4,,,45,30
13920,note_on,14,0,2,,,,,,,,,2,,,55,30
13920,note_on,0,0,2,,,,,,,,,2,,,65,30
13920,note_on,14,0,3,,,,,,,,,3,,,60,30
13954,note_on,0,0,2,,,,,,,,,2,,,65,0
13954,note_on,34,0,2,,,,,,,,,2,,,55,0
13954,note_on,34,0,3,,,,,,,,,3,,,60,0
13954,note_on,34,0,4,,,,,,,,,4,,,45,0
13954,note_on,34,0,1,,,,,,,,,1,,,67,0
13968,note_on,14,0,1,,,,,,,,,1,,,67,30
13968,note_on,14,0,2,,,,,,,,,2,,,55,30
13968,note_on,0,0,2,,,,,,,,,2,,,65,30
13968,note_on,14,0,4,,,,,,,,,4,,,43,30
13968,note_on,14,0,3,,,,,,,,,3,,,59,30
14000,note_on,32,0,4,,,,,,,,,4,,,43,0
14000,note_on,32,0,1,,,,,,,,,1,,,67,0
14000,note_on,32,0,2,,,,,,,,,2,,,55,0
14000,note_on,0,0,2,,,,,,,,,2,,,65,0
14000,note_on,32,0,3,,,,,,,,,3,,,59,0
14016,note_on,16,0,1,,,,,,,,,1,,,67,30
14016,note_on,16,0,4,,,,,,,,,4,,,48,30
14016,note_on,16,0,2,,,,,,,,,2,,,55,30
14016,note_on,0,0,2,,,,,,,,,2,,,64,30
14016,note_on,16,0,3,,,,,,,,,3,,,60,30
14110,note_on,0,0,2,,,,,,,,,2,,,64,0
14110,note_on,94,0,1,,,,,,,,,1,,,67,0
14110,note_on,94,0,2,,,,,,,,,2,,,55,0
14110,note_on,94,0,4,,,,,,,,,4,,,48,0
14110,note_on,94,0,3,,,,,,,,,3,,,60,0
14400,note_on,290,0,4,,,,,,,,,4,,,36,30
14400,note_on,290,0,2,,,,,,,,,2,,,60,30
14400,note_on,290,0,1,,,,,,,,,1,,,64,30
14400,note_on,290,0,3,,,,,,,,,3,,,55,30
14494,note_on,94,0,3,,,,,,,,,3,,,55,0
14494,note_on,94,0,1,,,,,,,,,1,,,64,0
14494,note_on,94,0,2,,,,,,,,,2,,,60,0
14494,note_on,94,0,4,,,,,,,,,4,,,36,0
14592,note_on,98,0,3,,,,,,,,,3,,,52,30
14592,note_on,98,0,2,,,,,,,,,2,,,55,30
14592,note_on,98,0,4,,,,,,,,,4,,,36,30
14592,note_on,98,0,1,,,,,,,,,1,,,60,30
14686,note_on,94,0,2,,,,,,,,,2,,,55,0
14686,note_on,94,0,4,,,,,,,,,4,,,36,0
14686,note_on,94,0,1,,,,,,,,,1,,,60,0
14686,note_on,94,0,3,,,,,,,,,3,,,52,0
14976,set_tempo,14976,1,0,461538,,,,,,,,,,,,
14976,note_on,290,0,1,,,,,,,,,1,,,72,30
14976,key_signature,0,1,0,,,,,,F,,,,,,,
14976,time_signature,0,1,0,,2,4,24,8,,,,,,,,
15008,note_on,32,0,1,,,,,,,,,1,,,72,0
15024,note_on,16,0,1,,,,,,,,,1,,,72,30
15056,note_on,32,0,1,,,,,,,,,1,,,72,0
15072,note_on,16,0,1,,,,,,,,,1,,,70,30
15104,note_on,32,0,1,,,,,,,,,1,,,70,0
15120,note_on,16,0,1,,,,,,,,,1,,,69,30
15152,note_on,32,0,1,,,,,,,,,1,,,69,0
15168,note_on,16,0,1,,,,,,,,,1,,,74,30
15262,note_on,94,0,1,,,,,,,,,1,,,74,0
15360,note_on,98,0,1,,,,,,,,,1,,,70,30
15406,note_on,46,0,1,,,,,,,,,1,,,70,0
15408,note_on,2,0,1,,,,,,,,,1,,,70,30
15454,note_on,46,0,1,,,,,,,,,1,,,70,0
15456,note_on,2,0,1,,,,,,,,,1,,,69,30
15502,note_on,46,0,1,,,,,,,,,1,,,69,0
15504,note_on,2,0,1,,,,,,,,,1,,,67,30
15550,note_on,46,0,1,,,,,,,,,1,,,67,0
15552,note_on,2,0,1,,,,,,,,,1,,,72,30
15646,note_on,94,0,1,,,,,,,,,1,,,72,0
15744,note_on,98,0,1,,,,,,,,,1,,,72,45
15776,note_on,32,0,1,,,,,,,,,1,,,72,0
15792,note_on,16,0,1,,,,,,,,,1,,,72,45
15840,note_on,48,0,1,,,,,,,,,1,,,72,0
15840,note_on,0,0,1,,,,,,,,,1,,,70,45
15888,note_on,0,0,1,,,,,,,,,1,,,69,45
15888,note_on,48,0,1,,,,,,,,,1,,,70,0
15934,note_on,46,0,1,,,,,,,,,1,,,69,0
15936,note_on,2,0,1,,,,,,,,,1,,,69,45
15936,note_on,1250,0,4,,,,,,,,,4,,,53,45
15936,note_on,1250,0,2,,,,,,,,,2,,,60,60
15968,note_on,32,0,1,,,,,,,,,1,,,69,0
15984,note_on,16,0,1,,,,,,,,,1,,,69,45
15984,note_on,1298,0,3,,,,,,,,,3,,,60,45
16030,note_on,94,0,4,,,,,,,,,4,,,53,0
16032,note_on,48,0,1,,,,,,,,,1,,,69,0
16032,note_on,0,0,1,,,,,,,,,1,,,67,45
16032,note_on,48,0,3,,,,,,,,,3,,,60,0
16032,note_on,0,0,3,,,,,,,,,3,,,58,45
16080,note_on,48,0,3,,,,,,,,,3,,,58,0
16080,note_on,0,0,3,,,,,,,,,3,,,57,45
16080,note_on,0,0,1,,,,,,,,,1,,,65,45
16080,note_on,48,0,1,,,,,,,,,1,,,67,0
16126,note_on,46,0,3,,,,,,,,,3,,,57,0
16126,note_on,46,0,1,,,,,,,,,1,,,65,0
16128,note_on,98,0,4,,,,,,,,,4,,,53,45
16128,note_on,2,0,3,,,,,,,,,3,,,57,45
16128,note_on,2,0,1,,,,,,,,,1,,,65,45
16160,note_on,32,0,3,,,,,,,,,3,,,57,0
16160,note_on,32,0,1,,,,,,,,,1,,,65,0
16176,note_on,16,0,1,,,,,,,,,1,,,65,45
16176,note_on,16,0,3,,,,,,,,,3,,,57,45
16222,note_on,94,0,4,,,,,,,,,4,,,53,0
16224,note_on,48,0,1,,,,,,,,,1,,,65,0
16224,note_on,0,0,3,,,,,,,,,3,,,55,45
16224,note_on,48,0,3,,,,,,,,,3,,,57,0
16224,note_on,0,0,1,,,,,,,,,1,,,64,45
16270,note_on,46,0,1,,,,,,,,,1,,,64,0
16272,note_on,2,0,1,,,,,,,,,1,,,65,45
16272,note_on,0,0,3,,,,,,,,,3,,,53,45
16272,note_on,48,0,3,,,,,,,,,3,,,55,0
16304,note_on,32,0,1,,,,,,,,,1,,,65,0
16318,note_on,46,0,3,,,,,,,,,3,,,53,0
16320,note_on,2,0,3,,,,,,,,,3,,,52,45
16320,note_on,16,0,1,,,,,,,,,1,,,66,45
16320,note_on,98,0,4,,,,,,,,,4,,,48,45
16368,note_on,0,0,1,,,,,,,,,1,,,67,45
16368,note_on,48,0,1,,,,,,,,,1,,,66,0
16414,note_on,478,0,2,,,,,,,,,2,,,60,0
16414,note_on,46,0,1,,,,,,,,,1,,,67,0
16414,note_on,94,0,4,,,,,,,,,4,,,48,0
16414,note_on,94,0,3,,,,,,,,,3,,,52,0
16416,note_on,2,0,1,,,,,,,,,1,,,67,45
16448,note_on,32,0,1,,,,,,,,,1,,,67,0
16464,note_on,16,0,1,,,,,,,,,1,,,67,45
16496,note_on,32,0,1,,,,,,,,,1,,,67,0
16512,note_on,16,0,1,,,,,,,,,1,,,74,45
16544,note_on,32,0,1,,,,,,,,,1,,,74,0
16560,note_on,16,0,1,,,,,,,,,1,,,74,45
16608,note_on,0,0,1,,,,,,,,,1,,,72,45
16608,note_on,48,0,1,,,,,,,,,1,,,74,0
16656,note_on,0,0,1,,,,,,,,,1,,,70,45
16656,note_on,48,0,1,,,,,,,,,1,,,72,0
16702,note_on,46,0,1,,,,,,,,,1,,,70,0
16704,note_on,2,0,1,,,,,,,,,1,,,70,45
16704,note_on,290,0,3,,,,,,,,,3,,,62,45
16704,note_on,290,0,2,,,,,,,,,2,,,60,45
16704,note_on,290,0,4,,,,,,,,,4,,,36,45
16736,note_on,32,0,3,,,,,,,,,3,,,62,0
16736,note_on,32,0,1,,,,,,,,,1,,,70,0
16752,note_on,16,0,3,,,,,,,,,3,,,62,45
16752,note_on,16,0,1,,,,,,,,,1,,,70,45
16798,note_on,94,0,4,,,,,,,,,4,,,36,0
16800,note_on,48,0,1,,,,,,,,,1,,,70,0
16800,note_on,0,0,1,,,,,,,,,1,,,69,45
16800,note_on,0,0,3,,,,,,,,,3,,,60,45
16800,note_on,48,0,3,,,,,,,,,3,,,62,0
16848,note_on,0,0,3,,,,,,,,,3,,,58,45
16848,note_on,48,0,3,,,,,,,,,3,,,60,0
16848,note_on,0,0,1,,,,,,,,,1,,,67,45
16848,note_on,48,0,1,,,,,,,,,1,,,69,0
16894,note_on,46,0,1,,,,,,,,,1,,,67,0
16894,note_on,46,0,3,,,,,,,,,3,,,58,0
16896,note_on,98,0,4,,,,,,,,,4,,,48,45
16896,note_on,2,0,1,,,,,,,,,1,,,67,45
16896,note_on,2,0,3,,,,,,,,,3,,,58,45
16928,note_on,32,0,1,,,,,,,,,1,,,67,0
16928,note_on,32,0,3,,,,,,,,,3,,,58,0
16944,note_on,16,0,3,,,,,,,,,3,,,58,45
16944,note_on,16,0,1,,,,,,,,,1,,,67,45
16990,note_on,94,0,4,,,,,,,,,4,,,48,0
16992,note_on,48,0,3,,,,,,,,,3,,,58,0
16992,note_on,0,0,3,,,,,,,,,3,,,57,45
16992,note_on,48,0,1,,,,,,,,,1,,,67,0
16992,note_on,0,0,1,,,,,,,,,1,,,66,45
17038,note_on,46,0,1,,,,,,,,,1,,,66,0
17040,note_on,0,0,3,,,,,,,,,3,,,55,45
17040,note_on,2,0,1,,,,,,,,,1,,,67,45
17040,note_on,48,0,3,,,,,,,,,3,,,57,0
17072,note_on,32,0,1,,,,,,,,,1,,,67,0
17086,note_on,46,0,3,,,,,,,,,3,,,55,0
17088,note_on,98,0,4,,,,,,,,,4,,,41,45
17088,note_on,2,0,3,,,,,,,,,3,,,53,45
17088,note_on,16,0,1,,,,,,,,,1,,,68,45
17136,note_on,0,0,1,,,,,,,,,1,,,69,45
17136,note_on,48,0,1,,,,,,,,,1,,,68,0
17182,note_on,478,0,2,,,,,,,,,2,,,60,0
17182,note_on,46,0,1,,,,,,,,,1,,,69,0
17182,note_on,94,0,3,,,,,,,,,3,,,53,0
17182,note_on,94,0,4,,,,,,,,,4,,,41,0
17184,note_on,2,0,1,,,,,,,,,1,,,69,45
17216,note_on,32,0,1,,,,,,,,,1,,,69,0
17232,note_on,16,0,1,,,,,,,,,1,,,69,45
17264,note_on,32,0,1,,,,,,,,,1,,,69,0
17280,note_on,98,0,3,,,,,,,,,3,,,60,45
17280,note_on,98,0,2,,,,,,,,,2,,,69,45
17280,note_on,16,0,1,,,,,,,,,1,,,77,45
17280,note_on,98,0,4,,,,,,,,,4,,,53,45
17312,note_on,32,0,2,,,,,,,,,2,,,69,0
17312,note_on,32,0,1,,,,,,,,,1,,,77,0
17328,note_on,16,0,2,,,,,,,,,2,,,69,45
17328,note_on,16,0,1,,,,,,,,,1,,,77,45
17376,note_on,0,0,1,,,,,,,,,1,,,79,45
17376,note_on,48,0,2,,,,,,,,,2,,,69,0
17376,note_on,0,0,2,,,,,,,,,2,,,67,45
17376,note_on,48,0,1,,,,,,,,,1,,,77,0
17424,note_on,0,0,2,,,,,,,,,2,,,65,45
17424,note_on,0,0,1,,,,,,,,,1,,,81,45
17424,note_on,48,0,2,,,,,,,,,2,,,67,0
17424,note_on,48,0,1,,,,,,,,,1,,,79,0
17470,note_on,46,0,2,,,,,,,,,2,,,65,0
17470,note_on,46,0,1,,,,,,,,,1,,,81,0
17472,note_on,192,0,4,,,,,,,,,4,,,53,0
17472,note_on,0,0,4,,,,,,,,,4,,,48,45
17472,note_on,2,0,1,,,,,,,,,1,,,79,45
17472,note_on,2,0,2,,,,,,,,,2,,,64,45
17504,note_on,32,0,2,,,,,,,,,2,,,64,0
17504,note_on,32,0,1,,,,,,,,,1,,,79,0
17520,note_on,16,0,1,,,,,,,,,1,,,79,45
17520,note_on,16,0,2,,,,,,,,,2,,,64,45
17566,note_on,286,0,3,,,,,,,,,3,,,60,0
17566,note_on,94,0,4,,,,,,,,,4,,,48,0
17568,note_on,0,0,2,,,,,,,,,2,,,65,45
17568,note_on,48,0,2,,,,,,,,,2,,,64,0
17568,note_on,0,0,1,,,,,,,,,1,,,77,45
17568,note_on,48,0,1,,,,,,,,,1,,,79,0
17616,note_on,48,0,2,,,,,,,,,2,,,65,0
17616,note_on,0,0,2,,,,,,,,,2,,,67,45
17616,note_on,48,0,1,,,,,,,,,1,,,77,0
17616,note_on,0,0,1,,,,,,,,,1,,,76,45
17662,note_on,46,0,2,,,,,,,,,2,,,67,0
17662,note_on,46,0,1,,,,,,,,,1,,,76,0
17664,note_on,2,0,2,,,,,,,,,2,,,65,45
17664,note_on,98,0,3,,,,,,,,,3,,,59,45
17664,note_on,2,0,1,,,,,,,,,1,,,74,45
17664,note_on,98,0,4,,,,,,,,,4,,,43,45
17696,note_on,32,0,1,,,,,,,,,1,,,74,0
17696,note_on,32,0,2,,,,,,,,,2,,,65,0
17712,note_on,16,0,1,,,,,,,,,1,,,74,45
17712,note_on,16,0,2,,,,,,,,,2,,,65,45
17760,note_on,48,0,1,,,,,,,,,1,,,74,0
17760,note_on,48,0,2,,,,,,,,,2,,,65,0
17760,note_on,0,0,1,,,,,,,,,1,,,76,45
17760,note_on,0,0,2,,,,,,,,,2,,,64,45
17808,note_on,0,0,2,,,,,,,,,2,,,62,45
17808,note_on,0,0,1,,,,,,,,,1,,,77,45
17808,note_on,48,0,2,,,,,,,,,2,,,64,0
17808,note_on,48,0,1,,,,,,,,,1,,,76,0
17854,note_on,46,0,1,,,,,,,,,1,,,77,0
17854,note_on,46,0,2,,,,,,,,,2,,,62,0
17856,note_on,192,0,4,,,,,,,,,4,,,43,0
17856,note_on,192,0,3,,,,,,,,,3,,,59,0
17856,note_on,0,0,4,,,,,,,,,4,,,48,45
17856,note_on,2,0,1,,,,,,,,,1,,,76,45
17856,note_on,0,0,3,,,,,,,,,3,,,60,60
17888,note_on,32,0,1,,,,,,,,,1,,,76,0
17904,note_on,16,0,1,,,,,,,,,1,,,76,45
17904,note_on,50,0,2,,,,,,,,,2,,,60,45
17950,note_on,94,0,3,,,,,,,,,3,,,60,0
17950,note_on,94,0,4,,,,,,,,,4,,,48,0
17952,note_on,0,0,1,,,,,,,,,1,,,74,45
17952,note_on,48,0,1,,,,,,,,,1,,,76,0
17952,note_on,0,0,2,,,,,,,,,2,,,62,45
17952,note_on,48,0,2,,,,,,,,,2,,,60,0
18000,note_on,48,0,1,,,,,,,,,1,,,74,0
18000,note_on,0,0,1,,,,,,,,,1,,,72,45
18000,note_on,48,0,2,,,,,,,,,2,,,62,0
18000,note_on,0,0,2,,,,,,,,,2,,,64,45
18046,note_on,46,0,1,,,,,,,,,1,,,72,0
18046,note_on,46,0,2,,,,,,,,,2,,,64,0
18048,note_on,98,0,4,,,,,,,,,4,,,53,92
18048,note_on,2,0,2,,,,,,,,,2,,,62,92
18048,note_on,2,0,1,,,,,,,,,1,,,77,92
18048,note_on,98,0,3,,,,,,,,,3,,,57,92
18080,note_on,32,0,2,,,,,,,,,2,,,62,0
18080,note_on,32,0,3,,,,,,,,,3,,,57,0
18080,note_on,32,0,4,,,,,,,,,4,,,53,0
18080,note_on,32,0,1,,,,,,,,,1,,,77,0
18096,note_on,16,0,3,,,,,,,,,3,,,57,92
18096,note_on,16,0,1,,,,,,,,,1,,,77,92
18096,note_on,16,0,2,,,,,,,,,2,,,62,92
18096,note_on,16,0,4,,,,,,,,,4,,,53,92
18144,note_on,0,0,2,,,,,,,,,2,,,64,92
18144,note_on,48,0,4,,,,,,,,,4,,,53,0
18144,note_on,0,0,4,,,,,,,,,4,,,52,92
18144,note_on,48,0,2,,,,,,,,,2,,,62,0
18144,note_on,48,0,1,,,,,,,,,1,,,77,0
18144,note_on,0,0,1,,,,,,,,,1,,,79,92
18144,note_on,48,0,3,,,,,,,,,3,,,57,0
18144,note_on,0,0,3,,,,,,,,,3,,,55,92
18192,note_on,0,0,4,,,,,,,,,4,,,50,92
18192,note_on,48,0,2,,,,,,,,,2,,,64,0
18192,note_on,0,0,2,,,,,,,,,2,,,65,92
18192,note_on,48,0,1,,,,,,,,,1,,,79,0
18192,note_on,0,0,1,,,,,,,,,1,,,81,92
18192,note_on,48,0,4,,,,,,,,,4,,,52,0
18192,note_on,48,0,3,,,,,,,,,3,,,55,0
18192,note_on,0,0,3,,,,,,,,,3,,,53,92
18238,note_on,46,0,3,,,,,,,,,3,,,53,0
18238,note_on,46,0,2,,,,,,,,,2,,,65,0
18238,note_on,46,0,1,,,,,,,,,1,,,81,0
18238,note_on,46,0,4,,,,,,,,,4,,,50,0
18240,note_on,2,0,2,,,,,,,,,2,,,64,92
18240,note_on,2,0,1,,,,,,,,,1,,,79,92
18240,note_on,2,0,3,,,,,,,,,3,,,60,92
18240,note_on,2,0,4,,,,,,,,,4,,,55,92
18272,note_on,32,0,2,,,,,,,,,2,,,64,0
18272,note_on,32,0,1,,,,,,,,,1,,,79,0
18272,note_on,32,0,3,,,,,,,,,3,,,60,0
18288,note_on,16,0,3,,,,,,,,,3,,,60,92
18288,note_on,16,0,1,,,,,,,,,1,,,79,92
18288,note_on,16,0,2,,,,,,,,,2,,,64,92
18334,note_on,94,0,4,,,,,,,,,4,,,55,0
18336,note_on,0,0,1,,,,,,,,,1,,,77,92
18336,note_on,48,0,1,,,,,,,,,1,,,79,0
18336,note_on,0,0,2,,,,,,,,,2,,,62,92
18336,note_on,48,0,2,,,,,,,,,2,,,64,0
18336,note_on,48,0,3,,,,,,,,,3,,,60,0
18336,note_on,0,0,3,,,,,,,,,3,,,59,92
18382,note_on,46,0,3,,,,,,,,,3,,,59,0
18384,note_on,48,0,1,,,,,,,,,1,,,77,0
18384,note_on,48,0,2,,,,,,,,,2,,,62,0
18384,note_on,0,0,2,,,,,,,,,2,,,60,108
18384,note_on,0,0,1,,,,,,,,,1,,,76,92
18430,note_on,46,0,1,,,,,,,,,1,,,76,0
18430,note_on,46,0,2,,,,,,,,,2,,,60,0
18432,note_on,2,0,1,,,,,,,,,1,,,74,92
18432,note_on,98,0,4,,,,,,,,,4,,,47,92
18432,note_on,2,0,2,,,,,,,,,2,,,65,92
18432,note_on,50,0,3,,,,,,,,,3,,,55,92
18464,note_on,32,0,4,,,,,,,,,4,,,47,0
18464,note_on,32,0,1,,,,,,,,,1,,,74,0
18478,note_on,46,0,2,,,,,,,,,2,,,65,0
18478,note_on,46,0,3,,,,,,,,,3,,,55,0
18480,note_on,2,0,2,,,,,,,,,2,,,65,92
18480,note_on,16,0,1,,,,,,,,,1,,,74,92
18480,note_on,2,0,3,,,,,,,,,3,,,55,92
18480,note_on,16,0,4,,,,,,,,,4,,,47,92
18526,note_on,46,0,2,,,,,,,,,2,,,65,0
18526,note_on,46,0,3,,,,,,,,,3,,,55,0
18528,note_on,48,0,1,,,,,,,,,1,,,74,0
18528,note_on,0,0,1,,,,,,,,,1,,,79,92
18528,note_on,2,0,2,,,,,,,,,2,,,65,92
18528,note_on,2,0,3,,,,,,,,,3,,,55,92
18528,note_on,0,0,4,,,,,,,,,4,,,45,92
18528,note_on,48,0,4,,,,,,,,,4,,,47,0
18574,note_on,46,0,3,,,,,,,,,3,,,55,0
18574,note_on,46,0,2,,,,,,,,,2,,,65,0
18576,note_on,2,0,3,,,,,,,,,3,,,55,92
18576,note_on,2,0,2,,,,,,,,,2,,,65,92
18576,note_on,48,0,1,,,,,,,,,1,,,79,0
18576,note_on,0,0,1,,,,,,,,,1,,,71,92
18576,note_on,0,0,4,,,,,,,,,4,,,43,92
18576,note_on,48,0,4,,,,,,,,,4,,,45,0
18622,note_on,46,0,3,,,,,,,,,3,,,55,0
18622,note_on,46,0,2,,,,,,,,,2,,,65,0
18624,note_on,2,0,2,,,,,,,,,2,,,64,92
18624,note_on,48,0,1,,,,,,,,,1,,,71,0
18624,note_on,48,0,4,,,,,,,,,4,,,43,0
18624,note_on,0,0,4,,,,,,,,,4,,,48,92
18624,note_on,2,0,3,,,,,,,,,3,,,55,92
18624,note_on,0,0,1,,,,,,,,,1,,,72,92
18784,note_on,160,0,4,,,,,,,,,4,,,48,0
18784,note_on,160,0,3,,,,,,,,,3,,,55,0
18784,note_on,160,0,1,,,,,,,,,1,,,72,0
18784,note_on,160,0,2,,,,,,,,,2,,,64,0
18816,note_on,32,0,1,,,,,,,,,1,,,72,45
18848,note_on,32,0,1,,,,,,,,,1,,,72,0
18864,note_on,16,0,1,,,,,,,,,1,,,72,45
18912,note_on,0,0,1,,,,,,,,,1,,,70,45
18912,note_on,48,0,1,,,,,,,,,1,,,72,0
18960,note_on,48,0,1,,,,,,,,,1,,,70,0
18960,note_on,0,0,1,,,,,,,,,1,,,69,45
19006,note_on,46,0,1,,,,,,,,,1,,,69,0
19008,note_on,224,0,4,,,,,,,,,4,,,53,45
19008,note_on,224,0,2,,,,,,,,,2,,,60,60
19008,note_on,2,0,1,,,,,,,,,1,,,69,45
19040,note_on,32,0,1,,,,,,,,,1,,,69,0
19056,note_on,272,0,3,,,,,,,,,3,,,60,45
19056,note_on,16,0,1,,,,,,,,,1,,,69,45
19102,note_on,94,0,4,,,,,,,,,4,,,53,0
19104,note_on,48,0,1,,,,,,,,,1,,,69,0
19104,note_on,0,0,1,,,,,,,,,1,,,67,45
19104,note_on,48,0,3,,,,,,,,,3,,,60,0
19104,note_on,0,0,3,,,,,,,,,3,,,58,45
19152,note_on,48,0,1,,,,,,,,,1,,,67,0
19152,note_on,0,0,1,,,,,,,,,1,,,65,45
19152,note_on,48,0,3,,,,,,,,,3,,,58,0
19152,note_on,0,0,3,,,,,,,,,3,,,57,45
19198,note_on,46,0,1,,,,,,,,,1,,,65,0
19198,note_on,46,0,3,,,,,,,,,3,,,57,0
19200,note_on,2,0,3,,,,,,,,,3,,,57,45
19200,note_on,98,0,4,,,,,,,,,4,,,53,45
19200,note_on,2,0,1,,,,,,,,,1,,,65,45
19232,note_on,32,0,1,,,,,,,,,1,,,65,0
19232,note_on,32,0,3,,,,,,,,,3,,,57,0
19248,note_on,16,0,1,,,,,,,,,1,,,65,45
19248,note_on,16,0,3,,,,,,,,,3,,,57,45
19294,note_on,94,0,4,,,,,,,,,4,,,53,0
19296,note_on,0,0,1,,,,,,,,,1,,,64,45
19296,note_on,48,0,1,,,,,,,,,1,,,65,0
19296,note_on,0,0,3,,,,,,,,,3,,,55,45
19296,note_on,48,0,3,,,,,,,,,3,,,57,0
19342,note_on,46,0,1,,,,,,,,,1,,,64,0
19344,note_on,2,0,1,,,,,,,,,1,,,65,45
19344,note_on,0,0,3,,,,,,,,,3,,,53,45
19344,note_on,48,0,3,,,,,,,,,3,,,55,0
19376,note_on,32,0,1,,,,,,,,,1,,,65,0
19390,note_on,46,0,3,,,,,,,,,3,,,53,0
19392,note_on,98,0,4,,,,,,,,,4,,,48,45
19392,note_on,16,0,1,,,,,,,,,1,,,66,45
19392,note_on,2,0,3,,,,,,,,,3,,,52,45
19440,note_on,0,0,1,,,,,,,,,1,,,67,45
19440,note_on,48,0,1,,,,,,,,,1,,,66,0
19486,note_on,46,0,1,,,,,,,,,1,,,67,0
19486,note_on,94,0,3,,,,,,,,,3,,,52,0
19486,note_on,94,0,4,,,,,,,,,4,,,48,0
19486,note_on,478,0,2,,,,,,,,,2,,,60,0
19488,note_on,2,0,1,,,,,,,,,1,,,67,45
19520,note_on,32,0,1,,,,,,,,,1,,,67,0
19536,note_on,16,0,1,,,,,,,,,1,,,67,45
19568,note_on,32,0,1,,,,,,,,,1,,,67,0
19584,note_on,16,0,1,,,,,,,,,1,,,74,45
19616,note_on,32,0,1,,,,,,,,,1,,,74,0
19632,note_on,16,0,1,,,,,,,,,1,,,74,45
19680,note_on,48,0,1,,,,,,,,,1,,,74,0
19680,note_on,0,0,1,,,,,,,,,1,,,72,45
19728,note_on,48,0,1,,,,,,,,,1,,,72,0
19728,note_on,0,0,1,,,,,,,,,1,,,70,45
19774,note_on,46,0,1,,,,,,,,,1,,,70,0
19776,note_on,290,0,3,,,,,,,,,3,,,62,45
19776,note_on,2,0,1,,,,,,,,,1,,,70,45
19776,note_on,290,0,4,,,,,,,,,4,,,36,45
19776,note_on,290,0,2,,,,,,,,,2,,,60,45
19808,note_on,32,0,3,,,,,,,,,3,,,62,0
19808,note_on,32,0,1,,,,,,,,,1,,,70,0
19824,note_on,16,0,3,,,,,,,,,3,,,62,45
19824,note_on,16,0,1,,,,,,,,,1,,,70,45
19870,note_on,94,0,4,,,,,,,,,4,,,36,0
19872,note_on,0,0,1,,,,,,,,,1,,,69,45
19872,note_on,48,0,1,,,,,,,,,1,,,70,0
19872,note_on,48,0,3,,,,,,,,,3,,,62,0
19872,note_on,0,0,3,,,,,,,,,3,,,60,45
19920,note_on,48,0,1,,,,,,,,,1,,,69,0
19920,note_on,0,0,1,,,,,,,,,1,,,67,45
19920,note_on,48,0,3,,,,,,,,,3,,,60,0
19920,note_on,0,0,3,,,,,,,,,3,,,58,45
19966,note_on,46,0,3,,,,,,,,,3,,,58,0
19966,note_on,46,0,1,,,,,,,,,1,,,67,0
19968,note_on,2,0,1,,,,,,,,,1,,,67,45
19968,note_on,98,0,4,,,,,,,,,4,,,48,45
19968,note_on,2,0,3,,,,,,,,,3,,,58,45
20000,note_on,32,0,3,,,,,,,,,3,,,58,0
20000,note_on,32,0,1,,,,,,,,,1,,,67,0
20016,note_on,16,0,3,,,,,,,,,3,,,58,45
20016,note_on,16,0,1,,,,,,,,,1,,,67,45
20062,note_on,94,0,4,,,,,,,,,4,,,48,0
20064,note_on,48,0,3,,,,,,,,,3,,,58,0
20064,note_on,0,0,3,,,,,,,,,3,,,57,45
20064,note_on,48,0,1,,,,,,,,,1,,,67,0
20064,note_on,0,0,1,,,,,,,,,1,,,66,45
20110,note_on,46,0,1,,,,,,,,,1,,,66,0
20112,note_on,2,0,1,,,,,,,,,1,,,67,45
20112,note_on,48,0,3,,,,,,,,,3,,,57,0
20112,note_on,0,0,3,,,,,,,,,3,,,55,45
20144,note_on,32,0,1,,,,,,,,,1,,,67,0
20158,note_on,46,0,3,,,,,,,,,3,,,55,0
20160,note_on,2,0,3,,,,,,,,,3,,,53,45
20160,note_on,16,0,1,,,,,,,,,1,,,68,45
20160,note_on,98,0,4,,,,,,,,,4,,,41,45
20208,note_on,48,0,1,,,,,,,,,1,,,68,0
20208,note_on,0,0,1,,,,,,,,,1,,,69,45
20254,note_on,46,0,1,,,,,,,,,1,,,69,0
20254,note_on,94,0,4,,,,,,,,,4,,,41,0
20254,note_on,478,0,2,,,,,,,,,2,,,60,0
20254,note_on,94,0,3,,,,,,,,,3,,,53,0
20256,note_on,2,0,1,,,,,,,,,1,,,69,45
20288,note_on,32,0,1,,,,,,,,,1,,,69,0
20304,note_on,16,0,1,,,,,,,,,1,,,69,45
20336,note_on,32,0,1,,,,,,,,,1,,,69,0
20352,note_on,16,0,1,,,,,,,,,1,,,77,45
20352,note_on,98,0,3,,,,,,,,,3,,,60,45
20352,note_on,98,0,4,,,,,,,,,4,,,53,45
20352,note_on,98,0,2,,,,,,,,,2,,,69,45
20384,note_on,32,0,1,,,,,,,,,1,,,77,0
20384,note_on,32,0,2,,,,,,,,,2,,,69,0
20400,note_on,16,0,2,,,,,,,,,2,,,69,45
20400,note_on,16,0,1,,,,,,,,,1,,,77,45
20448,note_on,48,0,2,,,,,,,,,2,,,69,0
20448,note_on,0,0,2,,,,,,,,,2,,,67,45
20448,note_on,48,0,1,,,,,,,,,1,,,77,0
20448,note_on,0,0,1,,,,,,,,,1,,,79,45
20496,note_on,0,0,1,,,,,,,,,1,,,81,45
20496,note_on,48,0,1,,,,,,,,,1,,,79,0
20496,note_on,48,0,2,,,,,,,,,2,,,67,0
20496,note_on,0,0,2,,,,,,,,,2,,,65,45
20542,note_on,46,0,2,,,,,,,,,2,,,65,0
20542,note_on,46,0,1,,,,,,,,,1,,,81,0
20544,note_on,0,0,4,,,,,,,,,4,,,48,45
20544,note_on,192,0,4,,,,,,,,,4,,,53,0
20544,note_on,2,0,2,,,,,,,,,2,,,64,45
20544,note_on,2,0,1,,,,,,,,,1,,,79,45
20576,note_on,32,0,2,,,,,,,,,2,,,64,0
20576,note_on,32,0,1,,,,,,,,,1,,,79,0
20592,note_on,16,0,2,,,,,,,,,2,,,64,45
20592,note_on,16,0,1,,,,,,,,,1,,,79,45
20638,note_on,286,0,3,,,,,,,,,3,,,60,0
20638,note_on,94,0,4,,,,,,,,,4,,,48,0
20640,note_on,0,0,2,,,,,,,,,2,,,65,45
20640,note_on,48,0,2,,,,,,,,,2,,,64,0
20640,note_on,0,0,1,,,,,,,,,1,,,77,45
20640,note_on,48,0,1,,,,,,,,,1,,,79,0
20688,note_on,48,0,1,,,,,,,,,1,,,77,0
20688,note_on,0,0,1,,,,,,,,,1,,,76,45
20688,note_on,0,0,2,,,,,,,,,2,,,67,45
20688,note_on,48,0,2,,,,,,,,,2,,,65,0
20734,note_on,46,0,1,,,,,,,,,1,,,76,0
20734,note_on,46,0,2,,,,,,,,,2,,,67,0
20736,note_on,98,0,3,,,,,,,,,3,,,59,45
20736,note_on,2,0,2,,,,,,,,,2,,,65,45
20736,note_on,2,0,1,,,,,,,,,1,,,74,45
20736,note_on,98,0,4,,,,,,,,,4,,,43,45
20768,note_on,32,0,1,,,,,,,,,1,,,74,0
20768,note_on,32,0,2,,,,,,,,,2,,,65,0
20784,note_on,16,0,1,,,,,,,,,1,,,74,45
20784,note_on,16,0,2,,,,,,,,,2,,,65,45
20832,note_on,48,0,1,,,,,,,,,1,,,74,0
20832,note_on,0,0,1,,,,,,,,,1,,,76,45
20832,note_on,48,0,2,,,,,,,,,2,,,65,0
20832,note_on,0,0,2,,,,,,,,,2,,,64,45
20880,note_on,48,0,2,,,,,,,,,2,,,64,0
20880,note_on,48,0,1,,,,,,,,,1,,,76,0
20880,note_on,0,0,1,,,,,,,,,1,,,77,45
20880,note_on,0,0,2,,,,,,,,,2,,,62,45
20926,note_on,46,0,1,,,,,,,,,1,,,77,0
20926,note_on,46,0,2,,,,,,,,,2,,,62,0
20928,note_on,2,0,1,,,,,,,,,1,,,76,45
20928,note_on,0,0,3,,,,,,,,,3,,,60,60
20928,note_on,192,0,3,,,,,,,,,3,,,59,0
20928,note_on,192,0,4,,,,,,,,,4,,,43,0
20928,note_on,0,0,4,,,,,,,,,4,,,48,45
20960,note_on,32,0,1,,,,,,,,,1,,,76,0
20976,note_on,50,0,2,,,,,,,,,2,,,60,45
20976,note_on,16,0,1,,,,,,,,,1,,,76,45
21022,note_on,94,0,3,,,,,,,,,3,,,60,0
21022,note_on,94,0,4,,,,,,,,,4,,,48,0
21024,note_on,48,0,2,,,,,,,,,2,,,60,0
21024,note_on,0,0,2,,,,,,,,,2,,,62,45
21024,note_on,48,0,1,,,,,,,,,1,,,76,0
21024,note_on,0,0,1,,,,,,,,,1,,,74,45
21072,note_on,0,0,1,,,,,,,,,1,,,72,45
21072,note_on,48,0,1,,,,,,,,,1,,,74,0
21072,note_on,48,0,2,,,,,,,,,2,,,62,0
21072,note_on,0,0,2,,,,,,,,,2,,,64,45
21118,note_on,46,0,2,,,,,,,,,2,,,64,0
21118,note_on,46,0,1,,,,,,,,,1,,,72,0
21120,note_on,98,0,4,,,,,,,,,4,,,53,92
21120,note_on,2,0,1,,,,,,,,,1,,,77,92
21120,note_on,98,0,3,,,,,,,,,3,,,57,92
21120,note_on,2,0,2,,,,,,,,,2,,,62,92
21152,note_on,32,0,3,,,,,,,,,3,,,57,0
21152,note_on,32,0,4,,,,,,,,,4,,,53,0
21152,note_on,32,0,1,,,,,,,,,1,,,77,0
21152,note_on,32,0,2,,,,,,,,,2,,,62,0
21168,note_on,16,0,3,,,,,,,,,3,,,57,92
21168,note_on,16,0,4,,,,,,,,,4,,,53,92
21168,note_on,16,0,1,,,,,,,,,1,,,77,92
21168,note_on,16,0,2,,,,,,,,,2,,,62,92
21216,note_on,0,0,2,,,,,,,,,2,,,64,92
21216,note_on,48,0,3,,,,,,,,,3,,,57,0
21216,note_on,0,0,3,,,,,,,,,3,,,55,92
21216,note_on,48,0,4,,,,,,,,,4,,,53,0
21216,note_on,0,0,4,,,,,,,,,4,,,52,92
21216,note_on,48,0,1,,,,,,,,,1,,,77,0
21216,note_on,0,0,1,,,,,,,,,1,,,79,92
21216,note_on,48,0,2,,,,,,,,,2,,,62,0
21264,note_on,0,0,3,,,,,,,,,3,,,53,92
21264,note_on,48,0,4,,,,,,,,,4,,,52,0
21264,note_on,0,0,4,,,,,,,,,4,,,50,92
21264,note_on,48,0,1,,,,,,,,,1,,,79,0
21264,note_on,48,0,3,,,,,,,,,3,,,55,0
21264,note_on,0,0,1,,,,,,,,,1,,,81,92
21264,note_on,0,0,2,,,,,,,,,2,,,65,92
21264,note_on,48,0,2,,,,,,,,,2,,,64,0
21310,note_on,46,0,3,,,,,,,,,3,,,53,0
21310,note_on,46,0,2,,,,,,,,,2,,,65,0
21310,note_on,46,0,4,,,,,,,,,4,,,50,0
21310,note_on,46,0,1,,,,,,,,,1,,,81,0
21312,note_on,2,0,3,,,,,,,,,3,,,60,92
21312,note_on,2,0,4,,,,,,,,,4,,,55,92
21312,note_on,2,0,2,,,,,,,,,2,,,64,92
21312,note_on,2,0,1,,,,,,,,,1,,,79,92
21344,note_on,32,0,1,,,,,,,,,1,,,79,0
21344,note_on,32,0,2,,,,,,,,,2,,,64,0
21344,note_on,32,0,3,,,,,,,,,3,,,60,0
21360,note_on,16,0,1,,,,,,,,,1,,,79,92
21360,note_on,16,0,2,,,,,,,,,2,,,64,92
21360,note_on,16,0,3,,,,,,,,,3,,,60,92
21406,note_on,94,0,4,,,,,,,,,4,,,55,0
21408,note_on,0,0,3,,,,,,,,,3,,,59,92
21408,note_on,48,0,3,,,,,,,,,3,,,60,0
21408,note_on,48,0,1,,,,,,,,,1,,,79,0
21408,note_on,48,0,2,,,,,,,,,2,,,64,0
21408,note_on,0,0,2,,,,,,,,,2,,,62,92
21408,note_on,0,0,1,,,,,,,,,1,,,77,92
21454,note_on,46,0,3,,,,,,,,,3,,,59,0
21456,note_on,48,0,1,,,,,,,,,1,,,77,0
21456,note_on,0,0,2,,,,,,,,,2,,,60,108
21456,note_on,48,0,2,,,,,,,,,2,,,62,0
21456,note_on,0,0,1,,,,,,,,,1,,,76,92
21502,note_on,46,0,1,,,,,,,,,1,,,76,0
21502,note_on,46,0,2,,,,,,,,,2,,,60,0
21504,note_on,2,0,1,,,,,,,,,1,,,74,92
21504,note_on,50,0,3,,,,,,,,,3,,,55,92
21504,note_on,98,0,4,,,,,,,,,4,,,47,92
21504,note_on,2,0,2,,,,,,,,,2,,,65,92
21536,note_on,32,0,4,,,,,,,,,4,,,47,0
21536,note_on,32,0,1,,,,,,,,,1,,,74,0
21550,note_on,46,0,3,,,,,,,,,3,,,55,0
21550,note_on,46,0,2,,,,,,,,,2,,,65,0
21552,note_on,16,0,1,,,,,,,,,1,,,74,92
21552,note_on,2,0,3,,,,,,,,,3,,,55,92
21552,note_on,2,0,2,,,,,,,,,2,,,65,92
21552,note_on,16,0,4,,,,,,,,,4,,,47,92
21598,note_on,46,0,3,,,,,,,,,3,,,55,0
21598,note_on,46,0,2,,,,,,,,,2,,,65,0
21600,note_on,48,0,4,,,,,,,,,4,,,47,0
21600,note_on,2,0,3,,,,,,,,,3,,,55,92
21600,note_on,48,0,1,,,,,,,,,1,,,74,0
21600,note_on,0,0,1,,,,,,,,,1,,,79,92
21600,note_on,2,0,2,,,,,,,,,2,,,65,92
21600,note_on,0,0,4,,,,,,,,,4,,,45,92
21646,note_on,46,0,2,,,,,,,,,2,,,65,0
21646,note_on,46,0,3,,,,,,,,,3,,,55,0
21648,note_on,2,0,2,,,,,,,,,2,,,65,92
21648,note_on,48,0,1,,,,,,,,,1,,,79,0
21648,note_on,0,0,1,,,,,,,,,1,,,71,92
21648,note_on,48,0,4,,,,,,,,,4,,,45,0
21648,note_on,0,0,4,,,,,,,,,4,,,43,92
21648,note_on,2,0,3,,,,,,,,,3,,,55,92
21694,note_on,46,0,2,,,,,,,,,2,,,65,0
21694,note_on,46,0,3,,,,,,,,,3,,,55,0
21696,note_on,2,0,3,,,,,,,,,3,,,55,92
21696,note_on,0,0,4,,,,,,,,,4,,,48,92
21696,note_on,48,0,4,,,,,,,,,4,,,43,0
21696,note_on,0,0,1,,,,,,,,,1,,,72,92
21696,note_on,2,0,2,,,,,,,,,2,,,64,92
21696,note_on,48,0,1,,,,,,,,,1,,,71,0
21856,note_on,160,0,4,,,,,,,,,4,,,48,0
21856,note_on,160,0,1,,,,,,,,,1,,,72,0
21856,note_on,160,0,3,,,,,,,,,3,,,55,0
21856,note_on,160,0,2,,,,,,,,,2,,,64,0
21888,note_on,32,0,2,,,,,,,,,2,,,75,45
21920,note_on,32,0,2,,,,,,,,,2,,,75,0
21936,note_on,16,0,2,,,,,,,,,2,,,75,45
21984,note_on,0,0,2,,,,,,,,,2,,,74,45
21984,note_on,48,0,2,,,,,,,,,2,,,75,0
22032,note_on,48,0,2,,,,,,,,,2,,,74,0
22032,note_on,0,0,2,,,,,,,,,2,,,72,45
22078,note_on,46,0,2,,,,,,,,,2,,,72,0
22080,note_on,2,0,2,,,,,,,,,2,,,72,45
22080,note_on,224,0,3,,,,,,,,,3,,,69,45
22112,note_on,32,0,3,,,,,,,,,3,,,69,0
22112,note_on,32,0,2,,,,,,,,,2,,,72,0
22128,note_on,16,0,2,,,,,,,,,2,,,72,45
22128,note_on,16,0,3,,,,,,,,,3,,,69,45
22176,note_on,48,0,2,,,,,,,,,2,,,72,0
22176,note_on,0,0,2,,,,,,,,,2,,,70,45
22176,note_on,48,0,3,,,,,,,,,3,,,69,0
22176,note_on,0,0,3,,,,,,,,,3,,,67,45
22224,note_on,0,0,3,,,,,,,,,3,,,66,45
22224,note_on,0,0,2,,,,,,,,,2,,,69,45
22224,note_on,48,0,2,,,,,,,,,2,,,70,0
22224,note_on,48,0,3,,,,,,,,,3,,,67,0
22270,note_on,46,0,3,,,,,,,,,3,,,66,0
22270,note_on,46,0,2,,,,,,,,,2,,,69,0
22272,note_on,416,0,4,,,,,,,,,4,,,63,45
22272,note_on,416,0,1,,,,,,,,,1,,,77,45
22272,note_on,2,0,2,,,,,,,,,2,,,69,60
22304,note_on,32,0,1,,,,,,,,,1,,,77,0
22304,note_on,32,0,4,,,,,,,,,4,,,63,0
22304,note_on,32,0,2,,,,,,,,,2,,,69,0
22320,note_on,16,0,1,,,,,,,,,1,,,77,45
22320,note_on,16,0,2,,,,,,,,,2,,,69,60
22320,note_on,16,0,4,,,,,,,,,4,,,63,45
22368,note_on,0,0,1,,,,,,,,,1,,,79,45
22368,note_on,48,0,2,,,,,,,,,2,,,69,0
22368,note_on,0,0,4,,,,,,,,,4,,,62,45
22368,note_on,48,0,4,,,,,,,,,4,,,63,0
22368,note_on,48,0,1,,,,,,,,,1,,,77,0
22368,note_on,0,0,2,,,,,,,,,2,,,70,60
22416,note_on,48,0,2,,,,,,,,,2,,,70,0
22416,note_on,0,0,1,,,,,,,,,1,,,81,45
22416,note_on,146,0,3,,,,,,,,,3,,,69,45
22416,note_on,48,0,1,,,,,,,,,1,,,79,0
22416,note_on,0,0,4,,,,,,,,,4,,,60,45
22416,note_on,0,0,2,,,,,,,,,2,,,72,45
22416,note_on,48,0,4,,,,,,,,,4,,,62,0
22462,note_on,46,0,3,,,,,,,,,3,,,69,0
22462,note_on,46,0,1,,,,,,,,,1,,,81,0
22462,note_on,46,0,2,,,,,,,,,2,,,72,0
22462,note_on,46,0,4,,,,,,,,,4,,,60,0
22464,note_on,2,0,2,,,,,,,,,2,,,74,45
22464,note_on,2,0,1,,,,,,,,,1,,,82,45
22464,note_on,2,0,3,,,,,,,,,3,,,62,45
22464,note_on,2,0,4,,,,,,,,,4,,,58,45
22496,note_on,32,0,3,,,,,,,,,3,,,62,0
22496,note_on,32,0,1,,,,,,,,,1,,,82,0
22496,note_on,32,0,4,,,,,,,,,4,,,58,0
22512,note_on,16,0,3,,,,,,,,,3,,,62,45
22512,note_on,16,0,1,,,,,,,,,1,,,82,45
22512,note_on,16,0,4,,,,,,,,,4,,,58,45
22558,note_on,94,0,2,,,,,,,,,2,,,74,0
22560,note_on,48,0,3,,,,,,,,,3,,,62,0
22560,note_on,0,0,4,,,,,,,,,4,,,57,45
22560,note_on,48,0,4,,,,,,,,,4,,,58,0
22560,note_on,0,0,3,,,,,,,,,3,,,60,45
22560,note_on,48,0,1,,,,,,,,,1,,,82,0
22560,note_on,0,0,1,,,,,,,,,1,,,84,45
22608,note_on,48,0,1,,,,,,,,,1,,,84,0
22608,note_on,0,0,4,,,,,,,,,4,,,55,45
22608,note_on,0,0,1,,,,,,,,,1,,,86,45
22608,note_on,0,0,3,,,,,,,,,3,,,58,45
22608,note_on,48,0,3,,,,,,,,,3,,,60,0
22608,note_on,48,0,4,,,,,,,,,4,,,57,0
22654,note_on,46,0,1,,,,,,,,,1,,,86,0
22654,note_on,46,0,4,,,,,,,,,4,,,55,0
22654,note_on,46,0,3,,,,,,,,,3,,,58,0
22656,note_on,98,0,2,,,,,,,,,2,,,74,45
22688,note_on,32,0,2,,,,,,,,,2,,,74,0
22704,note_on,16,0,2,,,,,,,,,2,,,74,45
22752,note_on,0,0,2,,,,,,,,,2,,,72,45
22752,note_on,48,0,2,,,,,,,,,2,,,74,0
22800,note_on,0,0,2,,,,,,,,,2,,,70,45
22800,note_on,48,0,2,,,,,,,,,2,,,72,0
22846,note_on,46,0,2,,,,,,,,,2,,,70,0
22848,note_on,194,0,3,,,,,,,,,3,,,67,45
22848,note_on,2,0,2,,,,,,,,,2,,,70,45
22880,note_on,32,0,2,,,,,,,,,2,,,70,0
22880,note_on,32,0,3,,,,,,,,,3,,,67,0
22896,note_on,16,0,3,,,,,,,,,3,,,67,45
22896,note_on,16,0,2,,,,,,,,,2,,,70,45
22944,note_on,0,0,3,,,,,,,,,3,,,65,45
22944,note_on,0,0,2,,,,,,,,,2,,,69,45
22944,note_on,48,0,3,,,,,,,,,3,,,67,0
22944,note_on,48,0,2,,,,,,,,,2,,,70,0
22992,note_on,48,0,3,,,,,,,,,3,,,65,0
22992,note_on,0,0,3,,,,,,,,,3,,,64,45
22992,note_on,48,0,2,,,,,,,,,2,,,69,0
22992,note_on,0,0,2,,,,,,,,,2,,,67,45
23038,note_on,46,0,3,,,,,,,,,3,,,64,0
23038,note_on,46,0,2,,,,,,,,,2,,,67,0
23040,note_on,386,0,4,,,,,,,,,4,,,61,45
23040,note_on,2,0,2,,,,,,,,,2,,,67,60
23040,note_on,386,0,1,,,,,,,,,1,,,76,45
23072,note_on,32,0,4,,,,,,,,,4,,,61,0
23072,note_on,32,0,2,,,,,,,,,2,,,67,0
23072,note_on,32,0,1,,,,,,,,,1,,,76,0
23088,note_on,16,0,4,,,,,,,,,4,,,61,45
23088,note_on,16,0,1,,,,,,,,,1,,,76,45
23088,note_on,16,0,2,,,,,,,,,2,,,67,60
23136,note_on,0,0,2,,,,,,,,,2,,,69,60
23136,note_on,48,0,4,,,,,,,,,4,,,61,0
23136,note_on,48,0,1,,,,,,,,,1,,,76,0
23136,note_on,0,0,1,,,,,,,,,1,,,77,45
23136,note_on,0,0,4,,,,,,,,,4,,,60,45
23136,note_on,48,0,2,,,,,,,,,2,,,67,0
23184,note_on,48,0,2,,,,,,,,,2,,,69,0
23184,note_on,0,0,2,,,,,,,,,2,,,70,45
23184,note_on,0,0,4,,,,,,,,,4,,,58,45
23184,note_on,48,0,1,,,,,,,,,1,,,77,0
23184,note_on,0,0,1,,,,,,,,,1,,,79,45
23184,note_on,146,0,3,,,,,,,,,3,,,67,45
23184,note_on,48,0,4,,,,,,,,,4,,,60,0
23230,note_on,46,0,2,,,,,,,,,2,,,70,0
23230,note_on,46,0,3,,,,,,,,,3,,,67,0
23230,note_on,46,0,1,,,,,,,,,1,,,79,0
23230,note_on,46,0,4,,,,,,,,,4,,,58,0
23232,note_on,2,0,2,,,,,,,,,2,,,72,45
23232,note_on,2,0,4,,,,,,,,,4,,,57,45
23232,note_on,2,0,1,,,,,,,,,1,,,81,45
23232,note_on,2,0,3,,,,,,,,,3,,,60,45
23264,note_on,32,0,1,,,,,,,,,1,,,81,0
23264,note_on,32,0,3,,,,,,,,,3,,,60,0
23264,note_on,32,0,4,,,,,,,,,4,,,57,0
23280,note_on,16,0,3,,,,,,,,,3,,,60,45
23280,note_on,16,0,1,,,,,,,,,1,,,81,45
23280,note_on,16,0,4,,,,,,,,,4,,,57,45
23326,note_on,94,0,2,,,,,,,,,2,,,72,0
23328,note_on,48,0,3,,,,,,,,,3,,,60,0
23328,note_on,0,0,3,,,,,,,,,3,,,58,45
23328,note_on,0,0,1,,,,,,,,,1,,,82,45
23328,note_on,48,0,1,,,,,,,,,1,,,81,0
23328,note_on,0,0,4,,,,,,,,,4,,,55,45
23328,note_on,48,0,4,,,,,,,,,4,,,57,0
23376,note_on,48,0,4,,,,,,,,,4,,,55,0
23376,note_on,0,0,3,,,,,,,,,3,,,57,45
23376,note_on,48,0,3,,,,,,,,,3,,,58,0
23376,note_on,0,0,4,,,,,,,,,4,,,53,45
23376,note_on,48,0,1,,,,,,,,,1,,,82,0
23376,note_on,0,0,1,,,,,,,,,1,,,84,45
23422,note_on,46,0,3,,,,,,,,,3,,,57,0
23422,note_on,46,0,4,,,,,,,,,4,,,53,0
23422,note_on,46,0,1,,,,,,,,,1,,,84,0
23424,note_on,98,0,2,,,,,,,,,2,,,69,45
23424,note_on,2,0,4,,,,,,,,,4,,,48,45
23424,note_on,2,0,1,,,,,,,,,1,,,81,45
23424,note_on,2,0,3,,,,,,,,,3,,,53,45
23456,note_on,32,0,3,,,,,,,,,3,,,53,0
23456,note_on,32,0,2,,,,,,,,,2,,,69,0
23456,note_on,32,0,1,,,,,,,,,1,,,81,0
23472,note_on,16,0,1,,,,,,,,,1,,,81,46
23472,note_on,16,0,3,,,,,,,,,3,,,53,46
23472,note_on,16,0,2,,,,,,,,,2,,,69,46
23518,note_on,94,0,4,,,,,,,,,4,,,48,0
23520,note_on,0,0,1,,,,,,,,,1,,,79,47
23520,note_on,2,0,4,,,,,,,,,4,,,60,47
23520,note_on,48,0,3,,,,,,,,,3,,,53,0
23520,note_on,0,0,3,,,,,,,,,3,,,55,47
23520,note_on,48,0,2,,,,,,,,,2,,,69,0
23520,note_on,0,0,2,,,,,,,,,2,,,67,47
23520,note_on,48,0,1,,,,,,,,,1,,,81,0
23568,note_on,48,0,2,,,,,,,,,2,,,67,0
23568,note_on,0,0,1,,,,,,,,,1,,,77,48
23568,note_on,0,0,3,,,,,,,,,3,,,57,48
23568,note_on,48,0,3,,,,,,,,,3,,,55,0
23568,note_on,48,0,1,,,,,,,,,1,,,79,0
23568,note_on,0,0,2,,,,,,,,,2,,,65,48
23614,note_on,46,0,3,,,,,,,,,3,,,57,0
23614,note_on,46,0,1,,,,,,,,,1,,,77,0
23614,note_on,46,0,2,,,,,,,,,2,,,65,0
23614,note_on,94,0,4,,,,,,,,,4,,,60,0
23616,note_on,2,0,1,,,,,,,,,1,,,82,49
23616,note_on,2,0,4,,,,,,,,,4,,,48,50
23616,note_on,2,0,2,,,,,,,,,2,,,70,49
23616,note_on,2,0,3,,,,,,,,,3,,,52,49
23648,note_on,32,0,2,,,,,,,,,2,,,70,0
23648,note_on,32,0,3,,,,,,,,,3,,,52,0
23648,note_on,32,0,1,,,,,,,,,1,,,82,0
23664,note_on,16,0,2,,,,,,,,,2,,,70,50
23664,note_on,16,0,3,,,,,,,,,3,,,52,50
23664,note_on,16,0,1,,,,,,,,,1,,,82,50
23710,note_on,94,0,4,,,,,,,,,4,,,48,0
23712,note_on,48,0,1,,,,,,,,,1,,,82,0
23712,note_on,0,0,1,,,,,,,,,1,,,81,51
23712,note_on,48,0,3,,,,,,,,,3,,,52,0
23712,note_on,0,0,3,,,,,,,,,3,,,53,51
23712,note_on,0,0,2,,,,,,,,,2,,,69,51
23712,note_on,2,0,4,,,,,,,,,4,,,60,53
23712,note_on,48,0,2,,,,,,,,,2,,,70,0
23760,note_on,0,0,2,,,,,,,,,2,,,67,52
23760,note_on,48,0,2,,,,,,,,,2,,,69,0
23760,note_on,48,0,3,,,,,,,,,3,,,53,0
23760,note_on,0,0,3,,,,,,,,,3,,,55,52
23760,note_on,48,0,1,,,,,,,,,1,,,81,0
23760,note_on,0,0,1,,,,,,,,,1,,,79,52
23806,note_on,46,0,3,,,,,,,,,3,,,55,0
23806,note_on,94,0,4,,,,,,,,,4,,,60,0
23806,note_on,46,0,2,,,,,,,,,2,,,67,0
23806,note_on,46,0,1,,,,,,,,,1,,,79,0
23808,note_on,2,0,4,,,,,,,,,4,,,48,56
23808,note_on,2,0,1,,,,,,,,,1,,,81,53
23808,note_on,2,0,3,,,,,,,,,3,,,53,53
23808,note_on,2,0,2,,,,,,,,,2,,,69,53
23840,note_on,32,0,1,,,,,,,,,1,,,81,0
23840,note_on,32,0,2,,,,,,,,,2,,,69,0
23840,note_on,32,0,3,,,,,,,,,3,,,53,0
23856,note_on,16,0,1,,,,,,,,,1,,,81,54
23856,note_on,16,0,2,,,,,,,,,2,,,69,54
23856,note_on,16,0,3,,,,,,,,,3,,,53,54
23902,note_on,94,0,4,,,,,,,,,4,,,48,0
23904,note_on,48,0,3,,,,,,,,,3,,,53,0
23904,note_on,0,0,1,,,,,,,,,1,,,79,56
23904,note_on,48,0,1,,,,,,,,,1,,,81,0
23904,note_on,0,0,2,,,,,,,,,2,,,67,56
23904,note_on,48,0,2,,,,,,,,,2,,,69,0
23904,note_on,2,0,4,,,,,,,,,4,,,60,59
23904,note_on,0,0,3,,,,,,,,,3,,,55,55
23952,note_on,0,0,3,,,,,,,,,3,,,57,56
23952,note_on,0,0,2,,,,,,,,,2,,,65,58
23952,note_on,48,0,3,,,,,,,,,3,,,55,0
23952,note_on,48,0,1,,,,,,,,,1,,,79,0
23952,note_on,0,0,1,,,,,,,,,1,,,77,58
23952,note_on,48,0,2,,,,,,,,,2,,,67,0
23998,note_on,46,0,3,,,,,,,,,3,,,57,0
23998,note_on,46,0,1,,,,,,,,,1,,,77,0
23998,note_on,94,0,4,,,,,,,,,4,,,60,0
23998,note_on,46,0,2,,,,,,,,,2,,,65,0
24000,note_on,2,0,4,,,,,,,,,4,,,48,62
24000,note_on,2,0,3,,,,,,,,,3,,,58,57
24000,note_on,2,0,1,,,,,,,,,1,,,76,60
24000,note_on,2,0,2,,,,,,,,,2,,,64,60
24032,note_on,32,0,2,,,,,,,,,2,,,64,0
24032,note_on,32,0,1,,,,,,,,,1,,,76,0
24048,note_on,16,0,2,,,,,,,,,2,,,64,62
24048,note_on,16,0,1,,,,,,,,,1,,,76,62
24094,note_on,94,0,4,,,,,,,,,4,,,48,0
24096,note_on,48,0,1,,,,,,,,,1,,,76,0
24096,note_on,0,0,2,,,,,,,,,2,,,62,64
24096,note_on,2,0,4,,,,,,,,,4,,,60,65
24096,note_on,0,0,1,,,,,,,,,1,,,74,64
24096,note_on,48,0,2,,,,,,,,,2,,,64,0
24144,note_on,0,0,1,,,,,,,,,1,,,72,66
24144,note_on,48,0,1,,,,,,,,,1,,,74,0
24144,note_on,0,0,2,,,,,,,,,2,,,60,66
24144,note_on,48,0,2,,,,,,,,,2,,,62,0
24160,note_on,160,0,3,,,,,,,,,3,,,58,0
24190,note_on,46,0,2,,,,,,,,,2,,,60,0
24190,note_on,94,0,4,,,,,,,,,4,,,60,0
24190,note_on,46,0,1,,,,,,,,,1,,,72,0
24192,note_on,2,0,2,,,,,,,,,2,,,69,68
24192,note_on,32,0,3,,,,,,,,,3,,,48,64
24192,note_on,2,0,1,,,,,,,,,1,,,81,68
24192,note_on,2,0,4,,,,,,,,,4,,,41,68
24224,note_on,32,0,2,,,,,,,,,2,,,69,0
24224,note_on,32,0,1,,,,,,,,,1,,,81,0
24224,note_on,32,0,4,,,,,,,,,4,,,41,0
24240,note_on,16,0,1,,,,,,,,,1,,,81,70
24240,note_on,16,0,2,,,,,,,,,2,,,69,70
24240,note_on,16,0,4,,,,,,,,,4,,,41,69
24286,note_on,94,0,3,,,,,,,,,3,,,48,0
24288,note_on,0,0,2,,,,,,,,,2,,,67,72
24288,note_on,48,0,2,,,,,,,,,2,,,69,0
24288,note_on,0,0,4,,,,,,,,,4,,,43,70
24288,note_on,48,0,4,,,,,,,,,4,,,41,0
24288,note_on,2,0,3,,,,,,,,,3,,,60,67
24288,note_on,0,0,1,,,,,,,,,1,,,79,72
24288,note_on,48,0,1,,,,,,,,,1,,,81,0
24336,note_on,48,0,1,,,,,,,,,1,,,79,0
24336,note_on,0,0,4,,,,,,,,,4,,,45,71
24336,note_on,0,0,1,,,,,,,,,1,,,77,74
24336,note_on,48,0,2,,,,,,,,,2,,,67,0
24336,note_on,0,0,2,,,,,,,,,2,,,65,74
24336,note_on,48,0,4,,,,,,,,,4,,,43,0
24382,note_on,46,0,4,,,,,,,,,4,,,45,0
24382,note_on,46,0,1,,,,,,,,,1,,,77,0
24382,note_on,94,0,3,,,,,,,,,3,,,60,0
24382,note_on,46,0,2,,,,,,,,,2,,,65,0
24384,note_on,2,0,2,,,,,,,,,2,,,70,76
24384,note_on,2,0,1,,,,,,,,,1,,,82,76
24384,note_on,2,0,3,,,,,,,,,3,,,48,70
24384,note_on,2,0,4,,,,,,,,,4,,,40,72
24416,note_on,32,0,1,,,,,,,,,1,,,82,0
24416,note_on,32,0,4,,,,,,,,,4,,,40,0
24416,note_on,32,0,2,,,,,,,,,2,,,70,0
24432,note_on,16,0,1,,,,,,,,,1,,,82,78
24432,note_on,16,0,4,,,,,,,,,4,,,40,73
24432,note_on,16,0,2,,,,,,,,,2,,,70,78
24478,note_on,94,0,3,,,,,,,,,3,,,48,0
24480,note_on,0,0,2,,,,,,,,,2,,,69,80
24480,note_on,48,0,4,,,,,,,,,4,,,40,0
24480,note_on,2,0,3,,,,,,,,,3,,,60,73
24480,note_on,48,0,1,,,,,,,,,1,,,82,0
24480,note_on,0,0,1,,,,,,,,,1,,,81,80
24480,note_on,0,0,4,,,,,,,,,4,,,41,74
24480,note_on,48,0,2,,,,,,,,,2,,,70,0
24528,note_on,0,0,4,,,,,,,,,4,,,43,75
24528,note_on,48,0,1,,,,,,,,,1,,,81,0
24528,note_on,0,0,1,,,,,,,,,1,,,79,82
24528,note_on,48,0,2,,,,,,,,,2,,,69,0
24528,note_on,0,0,2,,,,,,,,,2,,,67,82
24528,note_on,48,0,4,,,,,,,,,4,,,41,0
24574,note_on,46,0,4,,,,,,,,,4,,,43,0
24574,note_on,46,0,2,,,,,,,,,2,,,67,0
24574,note_on,94,0,3,,,,,,,,,3,,,60,0
24574,note_on,46,0,1,,,,,,,,,1,,,79,0
24576,note_on,2,0,1,,,,,,,,,1,,,81,84
24576,note_on,2,0,2,,,,,,,,,2,,,69,84
24576,note_on,2,0,4,,,,,,,,,4,,,41,76
24576,note_on,2,0,3,,,,,,,,,3,,,48,76
24608,note_on,32,0,1,,,,,,,,,1,,,81,0
24608,note_on,32,0,4,,,,,,,,,4,,,41,0
24608,note_on,32,0,2,,,,,,,,,2,,,69,0
24624,note_on,16,0,1,,,,,,,,,1,,,81,86
24624,note_on,16,0,2,,,,,,,,,2,,,69,86
24624,note_on,16,0,4,,,,,,,,,4,,,41,78
24670,note_on,94,0,3,,,,,,,,,3,,,48,0
24672,note_on,48,0,2,,,,,,,,,2,,,69,0
24672,note_on,0,0,1,,,,,,,,,1,,,79,88
24672,note_on,48,0,1,,,,,,,,,1,,,81,0
24672,note_on,2,0,3,,,,,,,,,3,,,60,80
24672,note_on,0,0,2,,,,,,,,,2,,,67,88
24672,note_on,0,0,4,,,,,,,,,4,,,40,80
24672,note_on,48,0,4,,,,,,,,,4,,,41,0
24720,note_on,0,0,4,,,,,,,,,4,,,41,82
24720,note_on,48,0,4,,,,,,,,,4,,,40,0
24720,note_on,48,0,1,,,,,,,,,1,,,79,0
24720,note_on,0,0,1,,,,,,,,,1,,,77,90
24720,note_on,48,0,2,,,,,,,,,2,,,67,0
24720,note_on,0,0,2,,,,,,,,,2,,,65,90
24766,note_on,46,0,2,,,,,,,,,2,,,65,0
24766,note_on,46,0,1,,,,,,,,,1,,,77,0
24766,note_on,94,0,3,,,,,,,,,3,,,60,0
24766,note_on,46,0,4,,,,,,,,,4,,,41,0
24768,note_on,2,0,4,,,,,,,,,4,,,36,84
24768,note_on,2,0,1,,,,,,,,,1,,,84,92
24768,note_on,2,0,3,,,,,,,,,3,,,48,84
24768,note_on,2,0,2,,,,,,,,,2,,,72,92
24862,note_on,94,0,3,,,,,,,,,3,,,48,0
24862,note_on,94,0,4,,,,,,,,,4,,,36,0
24928,note_on,160,0,2,,,,,,,,,2,,,72,0
24960,note_on,32,0,2,,,,,,,,,2,,,72,45
24960,note_on,98,0,3,,,,,,,,,3,,,60,108
24992,note_on,32,0,2,,,,,,,,,2,,,72,0
25008,note_on,16,0,2,,,,,,,,,2,,,72,45
25056,note_on,48,0,2,,,,,,,,,2,,,72,0
25056,note_on,0,0,2,,,,,,,,,2,,,70,45
25104,note_on,0,0,2,,,,,,,,,2,,,69,45
25104,note_on,48,0,2,,,,,,,,,2,,,70,0
25150,note_on,46,0,2,,,,,,,,,2,,,69,0
25152,note_on,2,0,2,,,,,,,,,2,,,69,45
25184,note_on,32,0,2,,,,,,,,,2,,,69,0
25200,note_on,338,0,4,,,,,,,,,4,,,60,45
25200,note_on,16,0,2,,,,,,,,,2,,,69,45
25248,note_on,48,0,4,,,,,,,,,4,,,60,0
25248,note_on,48,0,2,,,,,,,,,2,,,69,0
25248,note_on,0,0,4,,,,,,,,,4,,,58,45
25248,note_on,0,0,2,,,,,,,,,2,,,67,45
25296,note_on,0,0,4,,,,,,,,,4,,,57,45
25296,note_on,48,0,2,,,,,,,,,2,,,67,0
25296,note_on,0,0,2,,,,,,,,,2,,,65,45
25296,note_on,48,0,4,,,,,,,,,4,,,58,0
25342,note_on,46,0,4,,,,,,,,,4,,,57,0
25342,note_on,46,0,2,,,,,,,,,2,,,65,0
25344,note_on,2,0,2,,,,,,,,,2,,,65,45
25344,note_on,2,0,4,,,,,,,,,4,,,57,45
25376,note_on,32,0,4,,,,,,,,,4,,,57,0
25376,note_on,32,0,2,,,,,,,,,2,,,65,0
25392,note_on,16,0,2,,,,,,,,,2,,,65,45
25392,note_on,16,0,4,,,,,,,,,4,,,57,45
25440,note_on,0,0,2,,,,,,,,,2,,,64,45
25440,note_on,0,0,4,,,,,,,,,4,,,55,45
25440,note_on,48,0,4,,,,,,,,,4,,,57,0
25440,note_on,48,0,2,,,,,,,,,2,,,65,0
25486,note_on,46,0,2,,,,,,,,,2,,,64,0
25488,note_on,2,0,2,,,,,,,,,2,,,65,45
25488,note_on,0,0,4,,,,,,,,,4,,,53,45
25488,note_on,48,0,4,,,,,,,,,4,,,55,0
25520,note_on,32,0,2,,,,,,,,,2,,,65,0
25534,note_on,46,0,4,,,,,,,,,4,,,53,0
25536,note_on,16,0,2,,,,,,,,,2,,,66,45
25536,note_on,2,0,4,,,,,,,,,4,,,52,45
25584,note_on,48,0,2,,,,,,,,,2,,,66,0
25584,note_on,0,0,2,,,,,,,,,2,,,67,45
25630,note_on,94,0,4,,,,,,,,,4,,,52,0
25630,note_on,46,0,2,,,,,,,,,2,,,67,0
25632,note_on,2,0,2,,,,,,,,,2,,,67,45
25664,note_on,32,0,2,,,,,,,,,2,,,67,0
25680,note_on,16,0,2,,,,,,,,,2,,,67,45
25696,note_on,928,0,1,,,,,,,,,1,,,84,0
25712,note_on,32,0,2,,,,,,,,,2,,,67,0
25728,note_on,16,0,2,,,,,,,,,2,,,74,45
25728,note_on,32,0,1,,,,,,,,,1,,,86,45
25760,note_on,32,0,1,,,,,,,,,1,,,86,0
25760,note_on,32,0,2,,,,,,,,,2,,,74,0
25776,note_on,16,0,2,,,,,,,,,2,,,74,45
25776,note_on,16,0,1,,,,,,,,,1,,,86,45
25824,note_on,0,0,2,,,,,,,,,2,,,72,45
25824,note_on,0,0,1,,,,,,,,,1,,,84,45
25824,note_on,48,0,1,,,,,,,,,1,,,86,0
25824,note_on,48,0,2,,,,,,,,,2,,,74,0
25872,note_on,48,0,2,,,,,,,,,2,,,72,0
25872,note_on,0,0,2,,,,,,,,,2,,,70,45
25872,note_on,0,0,1,,,,,,,,,1,,,82,45
25872,note_on,48,0,1,,,,,,,,,1,,,84,0
25918,note_on,46,0,1,,,,,,,,,1,,,82,0
25918,note_on,46,0,2,,,,,,,,,2,,,70,0
25920,note_on,290,0,4,,,,,,,,,4,,,62,45
25920,note_on,2,0,1,,,,,,,,,1,,,82,45
25920,note_on,2,0,2,,,,,,,,,2,,,70,45
25952,note_on,32,0,1,,,,,,,,,1,,,82,0
25952,note_on,32,0,4,,,,,,,,,4,,,62,0
25952,note_on,32,0,2,,,,,,,,,2,,,70,0
25968,note_on,16,0,2,,,,,,,,,2,,,70,45
25968,note_on,16,0,1,,,,,,,,,1,,,82,45
25968,note_on,16,0,4,,,,,,,,,4,,,62,45
26016,note_on,48,0,2,,,,,,,,,2,,,70,0
26016,note_on,0,0,1,,,,,,,,,1,,,81,45
26016,note_on,0,0,2,,,,,,,,,2,,,69,45
26016,note_on,48,0,1,,,,,,,,,1,,,82,0
26016,note_on,0,0,4,,,,,,,,,4,,,60,45
26016,note_on,48,0,4,,,,,,,,,4,,,62,0
26064,note_on,0,0,4,,,,,,,,,4,,,58,45
26064,note_on,48,0,1,,,,,,,,,1,,,81,0
26064,note_on,0,0,1,,,,,,,,,1,,,79,45
26064,note_on,48,0,4,,,,,,,,,4,,,60,0
26064,note_on,0,0,2,,,,,,,,,2,,,67,45
26064,note_on,48,0,2,,,,,,,,,2,,,69,0
26110,note_on,46,0,2,,,,,,,,,2,,,67,0
26110,note_on,46,0,4,,,,,,,,,4,,,58,0
26110,note_on,46,0,1,,,,,,,,,1,,,79,0
26112,note_on,2,0,2,,,,,,,,,2,,,67,45
26112,note_on,2,0,4,,,,,,,,,4,,,58,45
26112,note_on,2,0,1,,,,,,,,,1,,,79,45
26144,note_on,32,0,4,,,,,,,,,4,,,58,0
26144,note_on,32,0,1,,,,,,,,,1,,,79,0
26144,note_on,32,0,2,,,,,,,,,2,,,67,0
26160,note_on,16,0,2,,,,,,,,,2,,,67,45
26160,note_on,16,0,1,,,,,,,,,1,,,79,45
26160,note_on,16,0,4,,,,,,,,,4,,,58,45
26208,note_on,0,0,1,,,,,,,,,1,,,77,45
26208,note_on,0,0,2,,,,,,,,,2,,,65,45
26208,note_on,48,0,2,,,,,,,,,2,,,67,0
26208,note_on,48,0,4,,,,,,,,,4,,,58,0
26208,note_on,0,0,4,,,,,,,,,4,,,57,45
26208,note_on,48,0,1,,,,,,,,,1,,,79,0
26254,note_on,46,0,1,,,,,,,,,1,,,77,0
26254,note_on,46,0,2,,,,,,,,,2,,,65,0
26256,note_on,48,0,4,,,,,,,,,4,,,57,0
26256,note_on,2,0,2,,,,,,,,,2,,,67,45
26256,note_on,2,0,1,,,,,,,,,1,,,79,45
26256,note_on,0,0,4,,,,,,,,,4,,,55,45
26288,note_on,32,0,2,,,,,,,,,2,,,67,0
26288,note_on,32,0,1,,,,,,,,,1,,,79,0
26302,note_on,46,0,4,,,,,,,,,4,,,55,0
26304,note_on,2,0,4,,,,,,,,,4,,,53,45
26304,note_on,16,0,2,,,,,,,,,2,,,69,45
26304,note_on,16,0,1,,,,,,,,,1,,,80,45
26336,note_on,32,0,2,,,,,,,,,2,,,69,0
26352,note_on,0,0,1,,,,,,,,,1,,,81,45
26352,note_on,48,0,1,,,,,,,,,1,,,80,0
26352,note_on,16,0,2,,,,,,,,,2,,,65,45
26398,note_on,46,0,1,,,,,,,,,1,,,81,0
26398,note_on,1438,0,3,,,,,,,,,3,,,60,0
26398,note_on,94,0,4,,,,,,,,,4,,,53,0
26400,note_on,2,0,1,,,,,,,,,1,,,81,45
26400,note_on,0,0,2,,,,,,,,,2,,,64,45
26400,note_on,48,0,2,,,,,,,,,2,,,65,0
26432,note_on,32,0,1,,,,,,,,,1,,,81,0
26448,note_on,0,0,2,,,,,,,,,2,,,63,45
26448,note_on,48,0,2,,,,,,,,,2,,,64,0
26448,note_on,16,0,1,,,,,,,,,1,,,81,45
26480,note_on,32,0,1,,,,,,,,,1,,,81,0
26494,note_on,46,0,2,,,,,,,,,2,,,63,0
26496,note_on,16,0,1,,,,,,,,,1,,,82,45
26496,note_on,2,0,2,,,,,,,,,2,,,62,45
26496,note_on,98,0,3,,,,,,,,,3,,,65,45
26496,note_on,98,0,4,,,,,,,,,4,,,58,45
26528,note_on,32,0,2,,,,,,,,,2,,,62,0
26528,note_on,32,0,1,,,,,,,,,1,,,82,0
26544,note_on,16,0,1,,,,,,,,,1,,,82,45
26544,note_on,16,0,2,,,,,,,,,2,,,74,45
26592,note_on,0,0,1,,,,,,,,,1,,,84,45
26592,note_on,48,0,2,,,,,,,,,2,,,74,0
26592,note_on,48,0,1,,,,,,,,,1,,,82,0
26592,note_on,0,0,2,,,,,,,,,2,,,72,45
26640,note_on,48,0,2,,,,,,,,,2,,,72,0
26640,note_on,0,0,2,,,,,,,,,2,,,70,45
26640,note_on,0,0,1,,,,,,,,,1,,,86,45
26640,note_on,48,0,1,,,,,,,,,1,,,84,0
26686,note_on,46,0,2,,,,,,,,,2,,,70,0
26686,note_on,46,0,1,,,,,,,,,1,,,86,0
26688,note_on,2,0,1,,,,,,,,,1,,,84,45
26688,note_on,192,0,4,,,,,,,,,4,,,58,0
26688,note_on,0,0,4,,,,,,,,,4,,,53,45
26688,note_on,2,0,2,,,,,,,,,2,,,69,45
26720,note_on,32,0,2,,,,,,,,,2,,,69,0
26720,note_on,32,0,1,,,,,,,,,1,,,84,0
26736,note_on,16,0,2,,,,,,,,,2,,,69,45
26736,note_on,16,0,1,,,,,,,,,1,,,84,45
26782,note_on,286,0,3,,,,,,,,,3,,,65,0
26782,note_on,94,0,4,,,,,,,,,4,,,53,0
26784,note_on,0,0,2,,,,,,,,,2,,,70,45
26784,note_on,48,0,2,,,,,,,,,2,,,69,0
26784,note_on,48,0,1,,,,,,,,,1,,,84,0
26784,note_on,0,0,1,,,,,,,,,1,,,82,45
26832,note_on,48,0,2,,,,,,,,,2,,,70,0
26832,note_on,48,0,1,,,,,,,,,1,,,82,0
26832,note_on,0,0,2,,,,,,,,,2,,,72,45
26832,note_on,0,0,1,,,,,,,,,1,,,81,45
26878,note_on,46,0,2,,,,,,,,,2,,,72,0
26878,note_on,46,0,1,,,,,,,,,1,,,81,0
26880,note_on,98,0,3,,,,,,,,,3,,,64,45
26880,note_on,2,0,1,,,,,,,,,1,,,79,45
26880,note_on,2,0,2,,,,,,,,,2,,,70,45
26880,note_on,98,0,4,,,,,,,,,4,,,48,45
26912,note_on,32,0,1,,,,,,,,,1,,,79,0
26912,note_on,32,0,2,,,,,,,,,2,,,70,0
26928,note_on,16,0,1,,,,,,,,,1,,,79,45
26928,note_on,16,0,2,,,,,,,,,2,,,70,45
26976,note_on,0,0,2,,,,,,,,,2,,,69,45
26976,note_on,48,0,1,,,,,,,,,1,,,79,0
26976,note_on,0,0,1,,,,,,,,,1,,,81,45
26976,note_on,48,0,2,,,,,,,,,2,,,70,0
27024,note_on,48,0,2,,,,,,,,,2,,,69,0
27024,note_on,48,0,1,,,,,,,,,1,,,81,0
27024,note_on,0,0,1,,,,,,,,,1,,,82,45
27024,note_on,0,0,2,,,,,,,,,2,,,67,45
27040,note_on,160,0,3,,,,,,,,,3,,,64,0
27070,note_on,46,0,2,,,,,,,,,2,,,67,0
27070,note_on,46,0,1,,,,,,,,,1,,,82,0
27072,note_on,2,0,1,,,,,,,,,1,,,81,45
27072,note_on,192,0,4,,,,,,,,,4,,,48,0
27072,note_on,0,0,4,,,,,,,,,4,,,53,45
27072,note_on,2,0,2,,,,,,,,,2,,,65,60
27104,note_on,32,0,1,,,,,,,,,1,,,81,0
27104,note_on,32,0,2,,,,,,,,,2,,,65,0
27120,note_on,16,0,1,,,,,,,,,1,,,81,45
27120,note_on,16,0,2,,,,,,,,,2,,,65,60
27166,note_on,94,0,4,,,,,,,,,4,,,53,0
27168,note_on,48,0,1,,,,,,,,,1,,,81,0
27168,note_on,0,0,1,,,,,,,,,1,,,79,45
27168,note_on,128,0,3,,,,,,,,,3,,,64,45
27168,note_on,0,0,2,,,,,,,,,2,,,67,45
27168,note_on,48,0,2,,,,,,,,,2,,,65,0
27216,note_on,0,0,3,,,,,,,,,3,,,63,45
27216,note_on,48,0,2,,,,,,,,,2,,,67,0
27216,note_on,0,0,2,,,,,,,,,2,,,69,45
27216,note_on,48,0,3,,,,,,,,,3,,,64,0
27216,note_on,48,0,1,,,,,,,,,1,,,79,0
27216,note_on,0,0,1,,,,,,,,,1,,,77,45
27262,note_on,46,0,2,,,,,,,,,2,,,69,0
27262,note_on,46,0,3,,,,,,,,,3,,,63,0
27262,note_on,46,0,1,,,,,,,,,1,,,77,0
27264,note_on,2,0,2,,,,,,,,,2,,,70,92
27264,note_on,2,0,3,,,,,,,,,3,,,62,92
27264,note_on,2,0,1,,,,,,,,,1,,,82,92
27264,note_on,98,0,4,,,,,,,,,4,,,46,92
27296,note_on,32,0,3,,,,,,,,,3,,,62,0
27296,note_on,32,0,4,,,,,,,,,4,,,46,0
27296,note_on,32,0,1,,,,,,,,,1,,,82,0
27296,note_on,32,0,2,,,,,,,,,2,,,70,0
27312,note_on,16,0,4,,,,,,,,,4,,,46,92
27312,note_on,16,0,3,,,,,,,,,3,,,62,92
27312,note_on,16,0,2,,,,,,,,,2,,,67,92
27312,note_on,16,0,1,,,,,,,,,1,,,82,92
27360,note_on,48,0,3,,,,,,,,,3,,,62,0
27360,note_on,0,0,3,,,,,,,,,3,,,60,92
27360,note_on,48,0,2,,,,,,,,,2,,,67,0
27360,note_on,0,0,4,,,,,,,,,4,,,45,92
27360,note_on,48,0,4,,,,,,,,,4,,,46,0
27360,note_on,0,0,2,,,,,,,,,2,,,69,92
27360,note_on,0,0,1,,,,,,,,,1,,,84,92
27360,note_on,48,0,1,,,,,,,,,1,,,82,0
27408,note_on,48,0,4,,,,,,,,,4,,,45,0
27408,note_on,0,0,4,,,,,,,,,4,,,43,92
27408,note_on,48,0,1,,,,,,,,,1,,,84,0
27408,note_on,0,0,3,,,,,,,,,3,,,58,92
27408,note_on,0,0,1,,,,,,,,,1,,,86,92
27408,note_on,48,0,3,,,,,,,,,3,,,60,0
27408,note_on,48,0,2,,,,,,,,,2,,,69,0
27408,note_on,0,0,2,,,,,,,,,2,,,70,92
27454,note_on,46,0,1,,,,,,,,,1,,,86,0
27454,note_on,46,0,4,,,,,,,,,4,,,43,0
27454,note_on,46,0,2,,,,,,,,,2,,,70,0
27454,note_on,46,0,3,,,,,,,,,3,,,58,0
27456,note_on,2,0,4,,,,,,,,,4,,,48,92
27456,note_on,2,0,2,,,,,,,,,2,,,69,92
27456,note_on,2,0,3,,,,,,,,,3,,,60,92
27456,note_on,2,0,1,,,,,,,,,1,,,84,92
27488,note_on,32,0,2,,,,,,,,,2,,,69,0
27488,note_on,32,0,1,,,,,,,,,1,,,84,0
27502,note_on,46,0,3,,,,,,,,,3,,,60,0
27504,note_on,16,0,1,,,,,,,,,1,,,84,92
27504,note_on,16,0,2,,,,,,,,,2,,,69,92
27504,note_on,2,0,3,,,,,,,,,3,,,60,92
27550,note_on,46,0,3,,,,,,,,,3,,,60,0
27550,note_on,94,0,4,,,,,,,,,4,,,48,0
27552,note_on,2,0,3,,,,,,,,,3,,,60,92
27552,note_on,0,0,2,,,,,,,,,2,,,67,92
27552,note_on,48,0,1,,,,,,,,,1,,,84,0
27552,note_on,0,0,1,,,,,,,,,1,,,82,92
27552,note_on,48,0,2,,,,,,,,,2,,,69,0
27598,note_on,46,0,3,,,,,,,,,3,,,60,0
27600,note_on,2,0,3,,,,,,,,,3,,,60,92
27600,note_on,48,0,1,,,,,,,,,1,,,82,0
27600,note_on,0,0,1,,,,,,,,,1,,,81,92
27600,note_on,48,0,2,,,,,,,,,2,,,67,0
27600,note_on,0,0,2,,,,,,,,,2,,,65,92
27646,note_on,46,0,2,,,,,,,,,2,,,65,0
27646,note_on,46,0,1,,,,,,,,,1,,,81,0
27646,note_on,46,0,3,,,,,,,,,3,,,60,0
27648,note_on,2,0,2,,,,,,,,,2,,,70,92
27648,note_on,2,0,3,,,,,,,,,3,,,48,92
27648,note_on,0,0,3,,,,,,,,,3,,,60,92
27648,note_on,2,0,1,,,,,,,,,1,,,79,92
27648,note_on,98,0,4,,,,,,,,,4,,,40,92
27680,note_on,32,0,1,,,,,,,,,1,,,79,0
27680,note_on,32,0,4,,,,,,,,,4,,,40,0
27694,note_on,46,0,2,,,,,,,,,2,,,70,0
27694,note_on,46,0,3,,,,,,,,,3,,,48,0
27694,note_on,0,0,3,,,,,,,,,3,,,60,0
27696,note_on,16,0,1,,,,,,,,,1,,,79,92
27696,note_on,16,0,4,,,,,,,,,4,,,40,92
27696,note_on,2,0,3,,,,,,,,,3,,,48,92
27696,note_on,2,0,2,,,,,,,,,2,,,70,92
27696,note_on,0,0,3,,,,,,,,,3,,,60,92
27742,note_on,46,0,2,,,,,,,,,2,,,70,0
27742,note_on,0,0,3,,,,,,,,,3,,,60,0
27742,note_on,46,0,3,,,,,,,,,3,,,48,0
27744,note_on,2,0,2,,,,,,,,,2,,,70,92
27744,note_on,48,0,1,,,,,,,,,1,,,79,0
27744,note_on,0,0,3,,,,,,,,,3,,,60,92
27744,note_on,2,0,3,,,,,,,,,3,,,48,92
27744,note_on,48,0,4,,,,,,,,,4,,,40,0
27744,note_on,0,0,4,,,,,,,,,4,,,38,92
27744,note_on,0,0,1,,,,,,,,,1,,,84,92
27790,note_on,0,0,3,,,,,,,,,3,,,60,0
27790,note_on,46,0,3,,,,,,,,,3,,,48,0
27790,note_on,46,0,2,,,,,,,,,2,,,70,0
27792,note_on,48,0,1,,,,,,,,,1,,,84,0
27792,note_on,0,0,1,,,,,,,,,1,,,76,92
27792,note_on,0,0,4,,,,,,,,,4,,,36,92
27792,note_on,2,0,2,,,,,,,,,2,,,70,92
27792,note_on,48,0,4,,,,,,,,,4,,,38,0
27792,note_on,2,0,3,,,,,,,,,3,,,48,92
27792,note_on,0,0,3,,,,,,,,,3,,,60,92
27838,note_on,46,0,3,,,,,,,,,3,,,48,0
27838,note_on,0,0,3,,,,,,,,,3,,,60,0
27838,note_on,46,0,2,,,,,,,,,2,,,70,0
27840,note_on,48,0,4,,,,,,,,,4,,,36,0
27840,note_on,0,0,4,,,,,,,,,4,,,41,92
27840,note_on,2,0,2,,,,,,,,,2,,,69,92
27840,note_on,48,0,1,,,,,,,,,1,,,76,0
27840,note_on,2,0,3,,,,,,,,,3,,,53,92
27840,note_on,0,0,1,,,,,,,,,1,,,77,92
28000,note_on,160,0,3,,,,,,,,,3,,,53,0
28000,note_on,160,0,1,,,,,,,,,1,,,77,0
28000,note_on,160,0,4,,,,,,,,,4,,,41,0
28000,note_on,160,0,2,,,,,,,,,2,,,69,0
28032,note_on,32,0,2,,,,,,,,,2,,,75,45
28064,note_on,32,0,2,,,,,,,,,2,,,75,0
28080,note_on,16,0,2,,,,,,,,,2,,,75,45
28128,note_on,0,0,2,,,,,,,,,2,,,74,45
28128,note_on,48,0,2,,,,,,,,,2,,,75,0
28176,note_on,0,0,2,,,,,,,,,2,,,72,45
28176,note_on,48,0,2,,,,,,,,,2,,,74,0
28222,note_on,46,0,2,,,,,,,,,2,,,72,0
28224,note_on,224,0,3,,,,,,,,,3,,,69,45
28224,note_on,2,0,2,,,,,,,,,2,,,72,45
28256,note_on,32,0,2,,,,,,,,,2,,,72,0
28256,note_on,32,0,3,,,,,,,,,3,,,69,0
28272,note_on,16,0,2,,,,,,,,,2,,,72,45
28272,note_on,16,0,3,,,,,,,,,3,,,69,45
28320,note_on,48,0,3,,,,,,,,,3,,,69,0
28320,note_on,0,0,3,,,,,,,,,3,,,67,45
28320,note_on,48,0,2,,,,,,,,,2,,,72,0
28320,note_on,0,0,2,,,,,,,,,2,,,70,45
28368,note_on,0,0,3,,,,,,,,,3,,,66,45
28368,note_on,48,0,3,,,,,,,,,3,,,67,0
28368,note_on,48,0,2,,,,,,,,,2,,,70,0
28368,note_on,0,0,2,,,,,,,,,2,,,69,45
28414,note_on,46,0,2,,,,,,,,,2,,,69,0
28414,note_on,46,0,3,,,,,,,,,3,,,66,0
28416,note_on,416,0,4,,,,,,,,,4,,,63,45
28416,note_on,416,0,1,,,,,,,,,1,,,77,45
28416,note_on,2,0,2,,,,,,,,,2,,,69,60
28448,note_on,32,0,4,,,,,,,,,4,,,63,0
28448,note_on,32,0,1,,,,,,,,,1,,,77,0
28448,note_on,32,0,2,,,,,,,,,2,,,69,0
28464,note_on,16,0,4,,,,,,,,,4,,,63,45
28464,note_on,16,0,1,,,,,,,,,1,,,77,45
28464,note_on,16,0,2,,,,,,,,,2,,,69,60
28512,note_on,48,0,1,,,,,,,,,1,,,77,0
28512,note_on,0,0,1,,,,,,,,,1,,,79,45
28512,note_on,48,0,2,,,,,,,,,2,,,69,0
28512,note_on,0,0,2,,,,,,,,,2,,,70,60
28512,note_on,0,0,4,,,,,,,,,4,,,62,45
28512,note_on,48,0,4,,,,,,,,,4,,,63,0
28560,note_on,48,0,2,,,,,,,,,2,,,70,0
28560,note_on,48,0,4,,,,,,,,,4,,,62,0
28560,note_on,48,0,1,,,,,,,,,1,,,79,0
28560,note_on,0,0,1,,,,,,,,,1,,,81,45
28560,note_on,0,0,4,,,,,,,,,4,,,60,45
28560,note_on,146,0,3,,,,,,,,,3,,,69,45
28560,note_on,0,0,2,,,,,,,,,2,,,72,45
28606,note_on,46,0,4,,,,,,,,,4,,,60,0
28606,note_on,46,0,3,,,,,,,,,3,,,69,0
28606,note_on,46,0,2,,,,,,,,,2,,,72,0
28606,note_on,46,0,1,,,,,,,,,1,,,81,0
28608,note_on,2,0,3,,,,,,,,,3,,,62,45
28608,note_on,2,0,1,,,,,,,,,1,,,82,45
28608,note_on,2,0,2,,,,,,,,,2,,,74,45
28608,note_on,2,0,4,,,,,,,,,4,,,58,45
28640,note_on,32,0,3,,,,,,,,,3,,,62,0
28640,note_on,32,0,1,,,,,,,,,1,,,82,0
28640,note_on,32,0,4,,,,,,,,,4,,,58,0
28656,note_on,16,0,3,,,,,,,,,3,,,62,45
28656,note_on,16,0,4,,,,,,,,,4,,,58,45
28656,note_on,16,0,1,,,,,,,,,1,,,82,45
28702,note_on,94,0,2,,,,,,,,,2,,,74,0
28704,note_on,0,0,1,,,,,,,,,1,,,84,45
28704,note_on,48,0,1,,,,,,,,,1,,,82,0
28704,note_on,48,0,3,,,,,,,,,3,,,62,0
28704,note_on,0,0,3,,,,,,,,,3,,,60,45
28704,note_on,48,0,4,,,,,,,,,4,,,58,0
28704,note_on,0,0,4,,,,,,,,,4,,,57,45
28752,note_on,0,0,4,,,,,,,,,4,,,55,45
28752,note_on,0,0,3,,,,,,,,,3,,,58,45
28752,note_on,48,0,1,,,,,,,,,1,,,84,0
28752,note_on,0,0,1,,,,,,,,,1,,,86,45
28752,note_on,48,0,3,,,,,,,,,3,,,60,0
28752,note_on,48,0,4,,,,,,,,,4,,,57,0
28798,note_on,46,0,3,,,,,,,,,3,,,58,0
28798,note_on,46,0,1,,,,,,,,,1,,,86,0
28798,note_on,46,0,4,,,,,,,,,4,,,55,0
28800,note_on,98,0,2,,,,,,,,,2,,,74,45
28832,note_on,32,0,2,,,,,,,,,2,,,74,0
28848,note_on,16,0,2,,,,,,,,,2,,,74,45
28896,note_on,0,0,2,,,,,,,,,2,,,72,45
28896,note_on,48,0,2,,,,,,,,,2,,,74,0
28944,note_on,0,0,2,,,,,,,,,2,,,70,45
28944,note_on,48,0,2,,,,,,,,,2,,,72,0
28990,note_on,46,0,2,,,,,,,,,2,,,70,0
28992,note_on,2,0,2,,,,,,,,,2,,,70,45
28992,note_on,194,0,3,,,,,,,,,3,,,67,45
29024,note_on,32,0,3,,,,,,,,,3,,,67,0
29024,note_on,32,0,2,,,,,,,,,2,,,70,0
29040,note_on,16,0,3,,,,,,,,,3,,,67,45
29040,note_on,16,0,2,,,,,,,,,2,,,70,45
29088,note_on,48,0,2,,,,,,,,,2,,,70,0
29088,note_on,48,0,3,,,,,,,,,3,,,67,0
29088,note_on,0,0,2,,,,,,,,,2,,,69,45
29088,note_on,0,0,3,,,,,,,,,3,,,65,45
29136,note_on,48,0,2,,,,,,,,,2,,,69,0
29136,note_on,0,0,2,,,,,,,,,2,,,67,45
29136,note_on,48,0,3,,,,,,,,,3,,,65,0
29136,note_on,0,0,3,,,,,,,,,3,,,64,45
29182,note_on,46,0,3,,,,,,,,,3,,,64,0
29182,note_on,46,0,2,,,,,,,,,2,,,67,0
29184,note_on,386,0,4,,,,,,,,,4,,,61,45
29184,note_on,2,0,2,,,,,,,,,2,,,67,60
29184,note_on,386,0,1,,,,,,,,,1,,,76,45
29216,note_on,32,0,4,,,,,,,,,4,,,61,0
29216,note_on,32,0,2,,,,,,,,,2,,,67,0
29216,note_on,32,0,1,,,,,,,,,1,,,76,0
29232,note_on,16,0,2,,,,,,,,,2,,,67,60
29232,note_on,16,0,1,,,,,,,,,1,,,76,45
29232,note_on,16,0,4,,,,,,,,,4,,,61,45
29280,note_on,48,0,4,,,,,,,,,4,,,61,0
29280,note_on,48,0,2,,,,,,,,,2,,,67,0
29280,note_on,0,0,2,,,,,,,,,2,,,69,60
29280,note_on,48,0,1,,,,,,,,,1,,,76,0
29280,note_on,0,0,1,,,,,,,,,1,,,77,45
29280,note_on,0,0,4,,,,,,,,,4,,,60,45
29328,note_on,48,0,2,,,,,,,,,2,,,69,0
29328,note_on,0,0,2,,,,,,,,,2,,,70,45
29328,note_on,146,0,3,,,,,,,,,3,,,67,45
29328,note_on,0,0,4,,,,,,,,,4,,,58,45
29328,note_on,48,0,4,,,,,,,,,4,,,60,0
29328,note_on,0,0,1,,,,,,,,,1,,,79,45
29328,note_on,48,0,1,,,,,,,,,1,,,77,0
29374,note_on,46,0,4,,,,,,,,,4,,,58,0
29374,note_on,46,0,2,,,,,,,,,2,,,70,0
29374,note_on,46,0,3,,,,,,,,,3,,,67,0
29374,note_on,46,0,1,,,,,,,,,1,,,79,0
29376,note_on,2,0,2,,,,,,,,,2,,,72,45
29376,note_on,2,0,3,,,,,,,,,3,,,60,45
29376,note_on,2,0,4,,,,,,,,,4,,,57,45
29376,note_on,2,0,1,,,,,,,,,1,,,81,45
29408,note_on,32,0,4,,,,,,,,,4,,,57,0
29408,note_on,32,0,1,,,,,,,,,1,,,81,0
29408,note_on,32,0,3,,,,,,,,,3,,,60,0
29424,note_on,16,0,3,,,,,,,,,3,,,60,45
29424,note_on,16,0,1,,,,,,,,,1,,,81,45
29424,note_on,16,0,4,,,,,,,,,4,,,57,45
29470,note_on,94,0,2,,,,,,,,,2,,,72,0
29472,note_on,48,0,4,,,,,,,,,4,,,57,0
29472,note_on,0,0,3,,,,,,,,,3,,,58,45
29472,note_on,48,0,1,,,,,,,,,1,,,81,0
29472,note_on,0,0,1,,,,,,,,,1,,,82,45
29472,note_on,48,0,3,,,,,,,,,3,,,60,0
29472,note_on,0,0,4,,,,,,,,,4,,,55,45
29520,note_on,0,0,1,,,,,,,,,1,,,84,45
29520,note_on,0,0,4,,,,,,,,,4,,,53,45
29520,note_on,0,0,3,,,,,,,,,3,,,57,45
29520,note_on,48,0,3,,,,,,,,,3,,,58,0
29520,note_on,48,0,1,,,,,,,,,1,,,82,0
29520,note_on,48,0,4,,,,,,,,,4,,,55,0
29566,note_on,46,0,4,,,,,,,,,4,,,53,0
29566,note_on,46,0,3,,,,,,,,,3,,,57,0
29566,note_on,46,0,1,,,,,,,,,1,,,84,0
29568,note_on,2,0,4,,,,,,,,,4,,,48,45
29568,note_on,2,0,3,,,,,,,,,3,,,53,45
29568,note_on,2,0,1,,,,,,,,,1,,,81,45
29568,note_on,98,0,2,,,,,,,,,2,,,69,45
29600,note_on,32,0,3,,,,,,,,,3,,,53,0
29600,note_on,32,0,2,,,,,,,,,2,,,69,0
29600,note_on,32,0,1,,,,,,,,,1,,,81,0
29616,note_on,16,0,3,,,,,,,,,3,,,53,46
29616,note_on,16,0,1,,,,,,,,,1,,,81,46
29616,note_on,16,0,2,,,,,,,,,2,,,69,46
29662,note_on,94,0,4,,,,,,,,,4,,,48,0
29664,note_on,48,0,3,,,,,,,,,3,,,53,0
29664,note_on,48,0,1,,,,,,,,,1,,,81,0
29664,note_on,0,0,1,,,,,,,,,1,,,79,47
29664,note_on,0,0,2,,,,,,,,,2,,,67,47
29664,note_on,48,0,2,,,,,,,,,2,,,69,0
29664,note_on,0,0,3,,,,,,,,,3,,,55,47
29664,note_on,2,0,4,,,,,,,,,4,,,60,47
29712,note_on,0,0,2,,,,,,,,,2,,,65,48
29712,note_on,0,0,3,,,,,,,,,3,,,57,48
29712,note_on,48,0,3,,,,,,,,,3,,,55,0
29712,note_on,0,0,1,,,,,,,,,1,,,77,48
29712,note_on,48,0,1,,,,,,,,,1,,,79,0
29712,note_on,48,0,2,,,,,,,,,2,,,67,0
29758,note_on,46,0,3,,,,,,,,,3,,,57,0
29758,note_on,94,0,4,,,,,,,,,4,,,60,0
29758,note_on,46,0,2,,,,,,,,,2,,,65,0
29758,note_on,46,0,1,,,,,,,,,1,,,77,0
29760,note_on,2,0,2,,,,,,,,,2,,,70,49
29760,note_on,2,0,3,,,,,,,,,3,,,52,49
29760,note_on,2,0,1,,,,,,,,,1,,,82,49
29760,note_on,2,0,4,,,,,,,,,4,,,48,50
29792,note_on,32,0,1,,,,,,,,,1,,,82,0
29792,note_on,32,0,2,,,,,,,,,2,,,70,0
29792,note_on,32,0,3,,,,,,,,,3,,,52,0
29808,note_on,16,0,1,,,,,,,,,1,,,82,50
29808,note_on,16,0,2,,,,,,,,,2,,,70,50
29808,note_on,16,0,3,,,,,,,,,3,,,52,50
29854,note_on,94,0,4,,,,,,,,,4,,,48,0
29856,note_on,0,0,1,,,,,,,,,1,,,81,51
29856,note_on,48,0,2,,,,,,,,,2,,,70,0
29856,note_on,48,0,1,,,,,,,,,1,,,82,0
29856,note_on,0,0,3,,,,,,,,,3,,,53,51
29856,note_on,2,0,4,,,,,,,,,4,,,60,53
29856,note_on,48,0,3,,,,,,,,,3,,,52,0
29856,note_on,0,0,2,,,,,,,,,2,,,69,51
29904,note_on,48,0,3,,,,,,,,,3,,,53,0
29904,note_on,0,0,2,,,,,,,,,2,,,67,52
29904,note_on,48,0,1,,,,,,,,,1,,,81,0
29904,note_on,0,0,1,,,,,,,,,1,,,79,52
29904,note_on,48,0,2,,,,,,,,,2,,,69,0
29904,note_on,0,0,3,,,,,,,,,3,,,55,52
29950,note_on,46,0,3,,,,,,,,,3,,,55,0
29950,note_on,46,0,1,,,,,,,,,1,,,79,0
29950,note_on,94,0,4,,,,,,,,,4,,,60,0
29950,note_on,46,0,2,,,,,,,,,2,,,67,0
29952,note_on,2,0,4,,,,,,,,,4,,,48,56
29952,note_on,2,0,1,,,,,,,,,1,,,81,53
29952,note_on,2,0,3,,,,,,,,,3,,,53,53
29952,note_on,2,0,2,,,,,,,,,2,,,69,53
29984,note_on,32,0,1,,,,,,,,,1,,,81,0
29984,note_on,32,0,2,,,,,,,,,2,,,69,0
29984,note_on,32,0,3,,,,,,,,,3,,,53,0
30000,note_on,16,0,2,,,,,,,,,2,,,69,54
30000,note_on,16,0,1,,,,,,,,,1,,,81,54
30000,note_on,16,0,3,,,,,,,,,3,,,53,54
30046,note_on,94,0,4,,,,,,,,,4,,,48,0
30048,note_on,48,0,1,,,,,,,,,1,,,81,0
30048,note_on,0,0,1,,,,,,,,,1,,,79,56
30048,note_on,0,0,3,,,,,,,,,3,,,55,55
30048,note_on,48,0,2,,,,,,,,,2,,,69,0
30048,note_on,0,0,2,,,,,,,,,2,,,67,56
30048,note_on,2,0,4,,,,,,,,,4,,,60,59
30048,note_on,48,0,3,,,,,,,,,3,,,53,0
30096,note_on,48,0,1,,,,,,,,,1,,,79,0
30096,note_on,0,0,1,,,,,,,,,1,,,77,58
30096,note_on,48,0,3,,,,,,,,,3,,,55,0
30096,note_on,0,0,3,,,,,,,,,3,,,57,56
30096,note_on,48,0,2,,,,,,,,,2,,,67,0
30096,note_on,0,0,2,,,,,,,,,2,,,65,58
30142,note_on,46,0,1,,,,,,,,,1,,,77,0
30142,note_on,46,0,3,,,,,,,,,3,,,57,0
30142,note_on,94,0,4,,,,,,,,,4,,,60,0
30142,note_on,46,0,2,,,,,,,,,2,,,65,0
30144,note_on,2,0,1,,,,,,,,,1,,,76,60
30144,note_on,2,0,4,,,,,,,,,4,,,48,62
30144,note_on,2,0,2,,,,,,,,,2,,,64,60
30144,note_on,2,0,3,,,,,,,,,3,,,58,57
30176,note_on,32,0,2,,,,,,,,,2,,,64,0
30176,note_on,32,0,1,,,,,,,,,1,,,76,0
30192,note_on,16,0,1,,,,,,,,,1,,,76,62
30192,note_on,16,0,2,,,,,,,,,2,,,64,62
30238,note_on,94,0,4,,,,,,,,,4,,,48,0
30240,note_on,48,0,2,,,,,,,,,2,,,64,0
30240,note_on,0,0,2,,,,,,,,,2,,,62,64
30240,note_on,2,0,4,,,,,,,,,4,,,60,65
30240,note_on,48,0,1,,,,,,,,,1,,,76,0
30240,note_on,0,0,1,,,,,,,,,1,,,74,64
30288,note_on,0,0,1,,,,,,,,,1,,,72,66
30288,note_on,0,0,2,,,,,,,,,2,,,60,66
30288,note_on,48,0,2,,,,,,,,,2,,,62,0
30288,note_on,48,0,1,,,,,,,,,1,,,74,0
30304,note_on,160,0,3,,,,,,,,,3,,,58,0
30334,note_on,94,0,4,,,,,,,,,4,,,60,0
30334,note_on,46,0,2,,,,,,,,,2,,,60,0
30334,note_on,46,0,1,,,,,,,,,1,,,72,0
30336,note_on,2,0,4,,,,,,,,,4,,,41,68
30336,note_on,2,0,1,,,,,,,,,1,,,81,68
30336,note_on,32,0,3,,,,,,,,,3,,,48,64
30336,note_on,2,0,2,,,,,,,,,2,,,69,68
30368,note_on,32,0,4,,,,,,,,,4,,,41,0
30368,note_on,32,0,1,,,,,,,,,1,,,81,0
30368,note_on,32,0,2,,,,,,,,,2,,,69,0
30384,note_on,16,0,2,,,,,,,,,2,,,69,70
30384,note_on,16,0,1,,,,,,,,,1,,,81,70
30384,note_on,16,0,4,,,,,,,,,4,,,41,69
30430,note_on,94,0,3,,,,,,,,,3,,,48,0
30432,note_on,0,0,4,,,,,,,,,4,,,43,70
30432,note_on,48,0,4,,,,,,,,,4,,,41,0
30432,note_on,48,0,1,,,,,,,,,1,,,81,0
30432,note_on,48,0,2,,,,,,,,,2,,,69,0
30432,note_on,0,0,1,,,,,,,,,1,,,79,72
30432,note_on,2,0,3,,,,,,,,,3,,,60,67
30432,note_on,0,0,2,,,,,,,,,2,,,67,72
30480,note_on,48,0,2,,,,,,,,,2,,,67,0
30480,note_on,0,0,2,,,,,,,,,2,,,65,74
30480,note_on,0,0,4,,,,,,,,,4,,,45,71
30480,note_on,48,0,1,,,,,,,,,1,,,79,0
30480,note_on,0,0,1,,,,,,,,,1,,,77,74
30480,note_on,48,0,4,,,,,,,,,4,,,43,0
30526,note_on,46,0,1,,,,,,,,,1,,,77,0
30526,note_on,94,0,3,,,,,,,,,3,,,60,0
30526,note_on,46,0,4,,,,,,,,,4,,,45,0
30526,note_on,46,0,2,,,,,,,,,2,,,65,0
30528,note_on,2,0,4,,,,,,,,,4,,,40,72
30528,note_on,2,0,3,,,,,,,,,3,,,48,70
30528,note_on,2,0,1,,,,,,,,,1,,,82,76
30528,note_on,2,0,2,,,,,,,,,2,,,70,76
30560,note_on,32,0,4,,,,,,,,,4,,,40,0
30560,note_on,32,0,1,,,,,,,,,1,,,82,0
30560,note_on,32,0,2,,,,,,,,,2,,,70,0
30576,note_on,16,0,4,,,,,,,,,4,,,40,73
30576,note_on,16,0,1,,,,,,,,,1,,,82,78
30576,note_on,16,0,2,,,,,,,,,2,,,70,78
30622,note_on,94,0,3,,,,,,,,,3,,,48,0
30624,note_on,48,0,4,,,,,,,,,4,,,40,0
30624,note_on,2,0,3,,,,,,,,,3,,,60,73
30624,note_on,0,0,4,,,,,,,,,4,,,41,74
30624,note_on,0,0,2,,,,,,,,,2,,,69,80
30624,note_on,48,0,1,,,,,,,,,1,,,82,0
30624,note_on,0,0,1,,,,,,,,,1,,,81,80
30624,note_on,48,0,2,,,,,,,,,2,,,70,0
30672,note_on,0,0,1,,,,,,,,,1,,,79,82
30672,note_on,48,0,2,,,,,,,,,2,,,69,0
30672,note_on,0,0,2,,,,,,,,,2,,,67,82
30672,note_on,48,0,4,,,,,,,,,4,,,41,0
30672,note_on,0,0,4,,,,,,,,,4,,,43,75
30672,note_on,48,0,1,,,,,,,,,1,,,81,0
30718,note_on,94,0,3,,,,,,,,,3,,,60,0
30718,note_on,46,0,2,,,,,,,,,2,,,67,0
30718,note_on,46,0,1,,,,,,,,,1,,,79,0
30718,note_on,46,0,4,,,,,,,,,4,,,43,0
30720,note_on,2,0,1,,,,,,,,,1,,,81,84
30720,note_on,2,0,3,,,,,,,,,3,,,48,76
30720,note_on,2,0,2,,,,,,,,,2,,,69,84
30720,note_on,2,0,4,,,,,,,,,4,,,41,76
30752,note_on,32,0,2,,,,,,,,,2,,,69,0
30752,note_on,32,0,1,,,,,,,,,1,,,81,0
30752,note_on,32,0,4,,,,,,,,,4,,,41,0
30768,note_on,16,0,2,,,,,,,,,2,,,69,86
30768,note_on,16,0,1,,,,,,,,,1,,,81,86
30768,note_on,16,0,4,,,,,,,,,4,,,41,78
30814,note_on,94,0,3,,,,,,,,,3,,,48,0
30816,note_on,0,0,1,,,,,,,,,1,,,79,88
30816,note_on,48,0,2,,,,,,,,,2,,,69,0
30816,note_on,0,0,2,,,,,,,,,2,,,67,88
30816,note_on,48,0,1,,,,,,,,,1,,,81,0
30816,note_on,0,0,4,,,,,,,,,4,,,40,80
30816,note_on,2,0,3,,,,,,,,,3,,,60,80
30816,note_on,48,0,4,,,,,,,,,4,,,41,0
30864,note_on,0,0,1,,,,,,,,,1,,,77,90
30864,note_on,48,0,1,,,,,,,,,1,,,79,0
30864,note_on,0,0,2,,,,,,,,,2,,,65,90
30864,note_on,48,0,2,,,,,,,,,2,,,67,0
30864,note_on,48,0,4,,,,,,,,,4,,,40,0
30864,note_on,0,0,4,,,,,,,,,4,,,41,82
30910,note_on,46,0,4,,,,,,,,,4,,,41,0
30910,note_on,46,0,2,,,,,,,,,2,,,65,0
30910,note_on,46,0,1,,,,,,,,,1,,,77,0
30910,note_on,94,0,3,,,,,,,,,3,,,60,0
30912,note_on,2,0,2,,,,,,,,,2,,,72,92
30912,note_on,2,0,4,,,,,,,,,4,,,36,84
30912,note_on,2,0,3,,,,,,,,,3,,,48,84
30912,note_on,2,0,1,,,,,,,,,1,,,84,92
31006,note_on,94,0,4,,,,,,,,,4,,,36,0
31006,note_on,94,0,3,,,,,,,,,3,,,48,0
31072,note_on,160,0,2,,,,,,,,,2,,,72,0
31104,note_on,32,0,2,,,,,,,,,2,,,72,45
31104,note_on,98,0,3,,,,,,,,,3,,,60,108
31136,note_on,32,0,2,,,,,,,,,2,,,72,0
31152,note_on,16,0,2,,,,,,,,,2,,,72,45
31200,note_on,0,0,2,,,,,,,,,2,,,70,45
31200,note_on,48,0,2,,,,,,,,,2,,,72,0
31248,note_on,0,0,2,,,,,,,,,2,,,69,45
31248,note_on,48,0,2,,,,,,,,,2,,,70,0
31294,note_on,46,0,2,,,,,,,,,2,,,69,0
31296,note_on,2,0,2,,,,,,,,,2,,,69,45
31328,note_on,32,0,2,,,,,,,,,2,,,69,0
31344,note_on,338,0,4,,,,,,,,,4,,,60,45
31344,note_on,16,0,2,,,,,,,,,2,,,69,45
31392,note_on,48,0,4,,,,,,,,,4,,,60,0
31392,note_on,48,0,2,,,,,,,,,2,,,69,0
31392,note_on,0,0,4,,,,,,,,,4,,,58,45
31392,note_on,0,0,2,,,,,,,,,2,,,67,45
31440,note_on,0,0,4,,,,,,,,,4,,,57,45
31440,note_on,0,0,2,,,,,,,,,2,,,65,45
31440,note_on,48,0,2,,,,,,,,,2,,,67,0
31440,note_on,48,0,4,,,,,,,,,4,,,58,0
31486,note_on,46,0,4,,,,,,,,,4,,,57,0
31486,note_on,46,0,2,,,,,,,,,2,,,65,0
31488,note_on,2,0,4,,,,,,,,,4,,,57,45
31488,note_on,2,0,2,,,,,,,,,2,,,65,45
31520,note_on,32,0,4,,,,,,,,,4,,,57,0
31520,note_on,32,0,2,,,,,,,,,2,,,65,0
31536,note_on,16,0,2,,,,,,,,,2,,,65,45
31536,note_on,16,0,4,,,,,,,,,4,,,57,45
31584,note_on,48,0,4,,,,,,,,,4,,,57,0
31584,note_on,0,0,2,,,,,,,,,2,,,64,45
31584,note_on,48,0,2,,,,,,,,,2,,,65,0
31584,note_on,0,0,4,,,,,,,,,4,,,55,45
31630,note_on,46,0,2,,,,,,,,,2,,,64,0
31632,note_on,0,0,4,,,,,,,,,4,,,53,45
31632,note_on,48,0,4,,,,,,,,,4,,,55,0
31632,note_on,2,0,2,,,,,,,,,2,,,65,45
31664,note_on,32,0,2,,,,,,,,,2,,,65,0
31678,note_on,46,0,4,,,,,,,,,4,,,53,0
31680,note_on,16,0,2,,,,,,,,,2,,,66,45
31680,note_on,2,0,4,,,,,,,,,4,,,52,45
31728,note_on,48,0,2,,,,,,,,,2,,,66,0
31728,note_on,0,0,2,,,,,,,,,2,,,67,45
31774,note_on,94,0,4,,,,,,,,,4,,,52,0
31774,note_on,46,0,2,,,,,,,,,2,,,67,0
31776,note_on,2,0,2,,,,,,,,,2,,,67,45
31808,note_on,32,0,2,,,,,,,,,2,,,67,0
31824,note_on,16,0,2,,,,,,,,,2,,,67,45
31840,note_on,928,0,1,,,,,,,,,1,,,84,0
31856,note_on,32,0,2,,,,,,,,,2,,,67,0
31872,note_on,32,0,1,,,,,,,,,1,,,86,45
31872,note_on,16,0,2,,,,,,,,,2,,,74,45
31904,note_on,32,0,1,,,,,,,,,1,,,86,0
31904,note_on,32,0,2,,,,,,,,,2,,,74,0
31920,note_on,16,0,2,,,,,,,,,2,,,74,45
31920,note_on,16,0,1,,,,,,,,,1,,,86,45
31968,note_on,48,0,1,,,,,,,,,1,,,86,0
31968,note_on,0,0,1,,,,,,,,,1,,,84,45
31968,note_on,0,0,2,,,,,,,,,2,,,72,45
31968,note_on,48,0,2,,,,,,,,,2,,,74,0
32016,note_on,48,0,2,,,,,,,,,2,,,72,0
32016,note_on,0,0,2,,,,,,,,,2,,,70,45
32016,note_on,48,0,1,,,,,,,,,1,,,84,0
32016,note_on,0,0,1,,,,,,,,,1,,,82,45
32062,note_on,46,0,1,,,,,,,,,1,,,82,0
32062,note_on,46,0,2,,,,,,,,,2,,,70,0
32064,note_on,2,0,1,,,,,,,,,1,,,82,45
32064,note_on,290,0,4,,,,,,,,,4,,,62,45
32064,note_on,2,0,2,,,,,,,,,2,,,70,45
32096,note_on,32,0,2,,,,,,,,,2,,,70,0
32096,note_on,32,0,1,,,,,,,,,1,,,82,0
32096,note_on,32,0,4,,,,,,,,,4,,,62,0
32112,note_on,16,0,2,,,,,,,,,2,,,70,45
32112,note_on,16,0,1,,,,,,,,,1,,,82,45
32112,note_on,16,0,4,,,,,,,,,4,,,62,45
32160,note_on,48,0,4,,,,,,,,,4,,,62,0
32160,note_on,0,0,4,,,,,,,,,4,,,60,45
32160,note_on,48,0,2,,,,,,,,,2,,,70,0
32160,note_on,0,0,2,,,,,,,,,2,,,69,45
32160,note_on,0,0,1,,,,,,,,,1,,,81,45
32160,note_on,48,0,1,,,,,,,,,1,,,82,0
32208,note_on,48,0,2,,,,,,,,,2,,,69,0
32208,note_on,0,0,4,,,,,,,,,4,,,58,45
32208,note_on,0,0,2,,,,,,,,,2,,,67,45
32208,note_on,48,0,1,,,,,,,,,1,,,81,0
32208,note_on,48,0,4,,,,,,,,,4,,,60,0
32208,note_on,0,0,1,,,,,,,,,1,,,79,45
32254,note_on,46,0,4,,,,,,,,,4,,,58,0
32254,note_on,46,0,2,,,,,,,,,2,,,67,0
32254,note_on,46,0,1,,,,,,,,,1,,,79,0
32256,note_on,2,0,4,,,,,,,,,4,,,58,45
32256,note_on,2,0,2,,,,,,,,,2,,,67,45
32256,note_on,2,0,1,,,,,,,,,1,,,79,45
32288,note_on,32,0,2,,,,,,,,,2,,,67,0
32288,note_on,32,0,1,,,,,,,,,1,,,79,0
32288,note_on,32,0,4,,,,,,,,,4,,,58,0
32304,note_on,16,0,1,,,,,,,,,1,,,79,45
32304,note_on,16,0,2,,,,,,,,,2,,,67,45
32304,note_on,16,0,4,,,,,,,,,4,,,58,45
32352,note_on,0,0,4,,,,,,,,,4,,,57,45
32352,note_on,48,0,1,,,,,,,,,1,,,79,0
32352,note_on,0,0,2,,,,,,,,,2,,,65,45
32352,note_on,48,0,2,,,,,,,,,2,,,67,0
32352,note_on,0,0,1,,,,,,,,,1,,,77,45
32352,note_on,48,0,4,,,,,,,,,4,,,58,0
32398,note_on,46,0,1,,,,,,,,,1,,,77,0
32398,note_on,46,0,2,,,,,,,,,2,,,65,0
32400,note_on,2,0,2,,,,,,,,,2,,,67,45
32400,note_on,48,0,4,,,,,,,,,4,,,57,0
32400,note_on,0,0,4,,,,,,,,,4,,,55,45
32400,note_on,2,0,1,,,,,,,,,1,,,79,45
32432,note_on,32,0,1,,,,,,,,,1,,,79,0
32432,note_on,32,0,2,,,,,,,,,2,,,67,0
32446,note_on,46,0,4,,,,,,,,,4,,,55,0
32448,note_on,2,0,4,,,,,,,,,4,,,53,45
32448,note_on,16,0,1,,,,,,,,,1,,,80,45
32448,note_on,16,0,2,,,,,,,,,2,,,69,45
32480,note_on,32,0,2,,,,,,,,,2,,,69,0
32496,note_on,0,0,1,,,,,,,,,1,,,81,45
32496,note_on,16,0,2,,,,,,,,,2,,,65,45
32496,note_on,48,0,1,,,,,,,,,1,,,80,0
32542,note_on,46,0,1,,,,,,,,,1,,,81,0
32542,note_on,1438,0,3,,,,,,,,,3,,,60,0
32542,note_on,94,0,4,,,,,,,,,4,,,53,0
32544,note_on,0,0,2,,,,,,,,,2,,,64,45
32544,note_on,2,0,1,,,,,,,,,1,,,81,45
32544,note_on,48,0,2,,,,,,,,,2,,,65,0
32576,note_on,32,0,1,,,,,,,,,1,,,81,0
32592,note_on,0,0,2,,,,,,,,,2,,,63,45
32592,note_on,16,0,1,,,,,,,,,1,,,81,45
32592,note_on,48,0,2,,,,,,,,,2,,,64,0
32624,note_on,32,0,1,,,,,,,,,1,,,81,0
32638,note_on,46,0,2,,,,,,,,,2,,,63,0
32640,note_on,2,0,2,,,,,,,,,2,,,62,45
32640,note_on,16,0,1,,,,,,,,,1,,,82,45
32640,note_on,98,0,4,,,,,,,,,4,,,58,45
32640,note_on,98,0,3,,,,,,,,,3,,,65,45
32672,note_on,32,0,1,,,,,,,,,1,,,82,0
32672,note_on,32,0,2,,,,,,,,,2,,,62,0
32688,note_on,16,0,1,,,,,,,,,1,,,82,45
32688,note_on,16,0,2,,,,,,,,,2,,,74,45
32736,note_on,48,0,1,,,,,,,,,1,,,82,0
32736,note_on,0,0,1,,,,,,,,,1,,,84,45
32736,note_on,48,0,2,,,,,,,,,2,,,74,0
32736,note_on,0,0,2,,,,,,,,,2,,,72,45
32784,note_on,0,0,2,,,,,,,,,2,,,70,45
32784,note_on,48,0,2,,,,,,,,,2,,,72,0
32784,note_on,48,0,1,,,,,,,,,1,,,84,0
32784,note_on,0,0,1,,,,,,,,,1,,,86,45
32830,note_on,46,0,2,,,,,,,,,2,,,70,0
32830,note_on,46,0,1,,,,,,,,,1,,,86,0
32832,note_on,2,0,2,,,,,,,,,2,,,69,45
32832,note_on,0,0,4,,,,,,,,,4,,,53,45
32832,note_on,192,0,4,,,,,,,,,4,,,58,0
32832,note_on,2,0,1,,,,,,,,,1,,,84,45
32864,note_on,32,0,2,,,,,,,,,2,,,69,0
32864,note_on,32,0,1,,,,,,,,,1,,,84,0
32880,note_on,16,0,1,,,,,,,,,1,,,84,45
32880,note_on,16,0,2,,,,,,,,,2,,,69,45
32926,note_on,286,0,3,,,,,,,,,3,,,65,0
32926,note_on,94,0,4,,,,,,,,,4,,,53,0
32928,note_on,48,0,1,,,,,,,,,1,,,84,0
32928,note_on,48,0,2,,,,,,,,,2,,,69,0
32928,note_on,0,0,1,,,,,,,,,1,,,82,45
32928,note_on,0,0,2,,,,,,,,,2,,,70,45
32976,note_on,0,0,2,,,,,,,,,2,,,72,45
32976,note_on,48,0,2,,,,,,,,,2,,,70,0
32976,note_on,0,0,1,,,,,,,,,1,,,81,45
32976,note_on,48,0,1,,,,,,,,,1,,,82,0
33022,note_on,46,0,1,,,,,,,,,1,,,81,0
33022,note_on,46,0,2,,,,,,,,,2,,,72,0
33024,note_on,2,0,1,,,,,,,,,1,,,79,45
33024,note_on,98,0,4,,,,,,,,,4,,,48,45
33024,note_on,2,0,2,,,,,,,,,2,,,70,45
33024,note_on,98,0,3,,,,,,,,,3,,,64,45
33056,note_on,32,0,1,,,,,,,,,1,,,79,0
33056,note_on,32,0,2,,,,,,,,,2,,,70,0
33072,note_on,16,0,1,,,,,,,,,1,,,79,45
33072,note_on,16,0,2,,,,,,,,,2,,,70,45
33120,note_on,0,0,1,,,,,,,,,1,,,81,45
33120,note_on,48,0,1,,,,,,,,,1,,,79,0
33120,note_on,48,0,2,,,,,,,,,2,,,70,0
33120,note_on,0,0,2,,,,,,,,,2,,,69,45
33168,note_on,0,0,2,,,,,,,,,2,,,67,45
33168,note_on,48,0,2,,,,,,,,,2,,,69,0
33168,note_on,0,0,1,,,,,,,,,1,,,82,45
33168,note_on,48,0,1,,,,,,,,,1,,,81,0
33184,note_on,160,0,3,,,,,,,,,3,,,64,0
33214,note_on,46,0,1,,,,,,,,,1,,,82,0
33214,note_on,46,0,2,,,,,,,,,2,,,67,0
33216,note_on,2,0,2,,,,,,,,,2,,,65,60
33216,note_on,2,0,1,,,,,,,,,1,,,81,45
33216,note_on,0,0,4,,,,,,,,,4,,,53,45
33216,note_on,192,0,4,,,,,,,,,4,,,48,0
33248,note_on,32,0,1,,,,,,,,,1,,,81,0
33248,note_on,32,0,2,,,,,,,,,2,,,65,0
33264,note_on,16,0,2,,,,,,,,,2,,,65,60
33264,note_on,16,0,1,,,,,,,,,1,,,81,45
33310,note_on,94,0,4,,,,,,,,,4,,,53,0
33312,note_on,0,0,1,,,,,,,,,1,,,79,45
33312,note_on,48,0,1,,,,,,,,,1,,,81,0
33312,note_on,128,0,3,,,,,,,,,3,,,64,45
33312,note_on,48,0,2,,,,,,,,,2,,,65,0
33312,note_on,0,0,2,,,,,,,,,2,,,67,45
33360,note_on,0,0,1,,,,,,,,,1,,,77,45
33360,note_on,48,0,1,,,,,,,,,1,,,79,0
33360,note_on,0,0,2,,,,,,,,,2,,,69,45
33360,note_on,48,0,2,,,,,,,,,2,,,67,0
33360,note_on,48,0,3,,,,,,,,,3,,,64,0
33360,note_on,0,0,3,,,,,,,,,3,,,63,45
33406,note_on,46,0,2,,,,,,,,,2,,,69,0
33406,note_on,46,0,1,,,,,,,,,1,,,77,0
33406,note_on,46,0,3,,,,,,,,,3,,,63,0
33408,note_on,2,0,1,,,,,,,,,1,,,82,92
33408,note_on,98,0,4,,,,,,,,,4,,,46,92
33408,note_on,2,0,2,,,,,,,,,2,,,70,92
33408,note_on,2,0,3,,,,,,,,,3,,,62,92
33440,note_on,32,0,1,,,,,,,,,1,,,82,0
33440,note_on,32,0,2,,,,,,,,,2,,,70,0
33440,note_on,32,0,4,,,,,,,,,4,,,46,0
33440,note_on,32,0,3,,,,,,,,,3,,,62,0
33456,note_on,16,0,2,,,,,,,,,2,,,67,92
33456,note_on,16,0,3,,,,,,,,,3,,,62,92
33456,note_on,16,0,4,,,,,,,,,4,,,46,92
33456,note_on,16,0,1,,,,,,,,,1,,,82,92
33504,note_on,48,0,2,,,,,,,,,2,,,67,0
33504,note_on,0,0,2,,,,,,,,,2,,,69,92
33504,note_on,0,0,3,,,,,,,,,3,,,60,92
33504,note_on,48,0,3,,,,,,,,,3,,,62,0
33504,note_on,0,0,1,,,,,,,,,1,,,84,92
33504,note_on,48,0,1,,,,,,,,,1,,,82,0
33504,note_on,48,0,4,,,,,,,,,4,,,46,0
33504,note_on,0,0,4,,,,,,,,,4,,,45,92
33552,note_on,48,0,4,,,,,,,,,4,,,45,0
33552,note_on,0,0,3,,,,,,,,,3,,,58,92
33552,note_on,48,0,1,,,,,,,,,1,,,84,0
33552,note_on,48,0,2,,,,,,,,,2,,,69,0
33552,note_on,0,0,1,,,,,,,,,1,,,86,92
33552,note_on,0,0,4,,,,,,,,,4,,,43,92
33552,note_on,0,0,2,,,,,,,,,2,,,70,92
33552,note_on,48,0,3,,,,,,,,,3,,,60,0
33598,note_on,46,0,1,,,,,,,,,1,,,86,0
33598,note_on,46,0,3,,,,,,,,,3,,,58,0
33598,note_on,46,0,2,,,,,,,,,2,,,70,0
33598,note_on,46,0,4,,,,,,,,,4,,,43,0
33600,note_on,2,0,2,,,,,,,,,2,,,69,92
33600,note_on,2,0,4,,,,,,,,,4,,,48,92
33600,note_on,2,0,1,,,,,,,,,1,,,84,92
33600,note_on,2,0,3,,,,,,,,,3,,,60,92
33632,note_on,32,0,1,,,,,,,,,1,,,84,0
33632,note_on,32,0,2,,,,,,,,,2,,,69,0
33646,note_on,46,0,3,,,,,,,,,3,,,60,0
33648,note_on,16,0,2,,,,,,,,,2,,,69,92
33648,note_on,16,0,1,,,,,,,,,1,,,84,92
33648,note_on,2,0,3,,,,,,,,,3,,,60,92
33694,note_on,46,0,3,,,,,,,,,3,,,60,0
33694,note_on,94,0,4,,,,,,,,,4,,,48,0
33696,note_on,48,0,2,,,,,,,,,2,,,69,0
33696,note_on,0,0,1,,,,,,,,,1,,,82,92
33696,note_on,48,0,1,,,,,,,,,1,,,84,0
33696,note_on,2,0,3,,,,,,,,,3,,,60,92
33696,note_on,0,0,2,,,,,,,,,2,,,67,92
33742,note_on,46,0,3,,,,,,,,,3,,,60,0
33744,note_on,48,0,2,,,,,,,,,2,,,67,0
33744,note_on,0,0,2,,,,,,,,,2,,,65,92
33744,note_on,0,0,1,,,,,,,,,1,,,81,92
33744,note_on,48,0,1,,,,,,,,,1,,,82,0
33744,note_on,2,0,3,,,,,,,,,3,,,60,92
33790,note_on,46,0,3,,,,,,,,,3,,,60,0
33790,note_on,46,0,2,,,,,,,,,2,,,65,0
33790,note_on,46,0,1,,,,,,,,,1,,,81,0
33792,note_on,98,0,4,,,,,,,,,4,,,40,92
33792,note_on,2,0,2,,,,,,,,,2,,,70,92
33792,note_on,2,0,3,,,,,,,,,3,,,48,92
33792,note_on,2,0,1,,,,,,,,,1,,,79,92
33792,note_on,0,0,3,,,,,,,,,3,,,60,92
33824,note_on,32,0,4,,,,,,,,,4,,,40,0
33824,note_on,32,0,1,,,,,,,,,1,,,79,0
33838,note_on,0,0,3,,,,,,,,,3,,,60,0
33838,note_on,46,0,3,,,,,,,,,3,,,48,0
33838,note_on,46,0,2,,,,,,,,,2,,,70,0
33840,note_on,2,0,2,,,,,,,,,2,,,70,92
33840,note_on,16,0,1,,,,,,,,,1,,,79,92
33840,note_on,16,0,4,,,,,,,,,4,,,40,92
33840,note_on,0,0,3,,,,,,,,,3,,,60,92
33840,note_on,2,0,3,,,,,,,,,3,,,48,92
33886,note_on,46,0,2,,,,,,,,,2,,,70,0
33886,note_on,0,0,3,,,,,,,,,3,,,60,0
33886,note_on,46,0,3,,,,,,,,,3,,,48,0
33888,note_on,48,0,4,,,,,,,,,4,,,40,0
33888,note_on,0,0,1,,,,,,,,,1,,,84,92
33888,note_on,2,0,2,,,,,,,,,2,,,70,92
33888,note_on,2,0,3,,,,,,,,,3,,,48,92
33888,note_on,0,0,4,,,,,,,,,4,,,38,92
33888,note_on,48,0,1,,,,,,,,,1,,,79,0
33888,note_on,0,0,3,,,,,,,,,3,,,60,92
33934,note_on,46,0,3,,,,,,,,,3,,,48,0
33934,note_on,46,0,2,,,,,,,,,2,,,70,0
33934,note_on,0,0,3,,,,,,,,,3,,,60,0
33936,note_on,2,0,3,,,,,,,,,3,,,48,92
33936,note_on,0,0,1,,,,,,,,,1,,,76,92
33936,note_on,48,0,4,,,,,,,,,4,,,38,0
33936,note_on,48,0,1,,,,,,,,,1,,,84,0
33936,note_on,0,0,4,,,,,,,,,4,,,36,92
33936,note_on,2,0,2,,,,,,,,,2,,,70,92
33936,note_on,0,0,3,,,,,,,,,3,,,60,92
33982,note_on,46,0,3,,,,,,,,,3,,,48,0
33982,note_on,0,0,3,,,,,,,,,3,,,60,0
33982,note_on,46,0,2,,,,,,,,,2,,,70,0
33984,note_on,48,0,1,,,,,,,,,1,,,76,0
33984,note_on,0,0,1,,,,,,,,,1,,,77,92
33984,note_on,0,0,4,,,,,,,,,4,,,41,92
33984,note_on,2,0,2,,,,,,,,,2,,,69,92
33984,note_on,2,0,3,,,,,,,,,3,,,53,92
33984,note_on,48,0,4,,,,,,,,,4,,,36,0
34144,note_on,160,0,4,,,,,,,,,4,,,41,0
34144,note_on,160,0,3,,,,,,,,,3,,,53,0
34144,note_on,160,0,1,,,,,,,,,1,,,77,0
34144,note_on,160,0,2,,,,,,,,,2,,,69,0
34176,note_on,32,0,1,,,,,,,,,1,,,81,45
34208,note_on,32,0,1,,,,,,,,,1,,,81,0
34224,note_on,16,0,1,,,,,,,,,1,,,81,45
34272,note_on,0,0,1,,,,,,,,,1,,,79,45
34272,note_on,48,0,1,,,,,,,,,1,,,81,0
34320,note_on,0,0,1,,,,,,,,,1,,,77,45
34320,note_on,48,0,1,,,,,,,,,1,,,79,0
34366,note_on,46,0,1,,,,,,,,,1,,,77,0
34368,note_on,224,0,2,,,,,,,,,2,,,69,45
34368,note_on,2,0,1,,,,,,,,,1,,,77,45
34400,note_on,32,0,2,,,,,,,,,2,,,69,0
34400,note_on,32,0,1,,,,,,,,,1,,,77,0
34416,note_on,16,0,2,,,,,,,,,2,,,69,45
34416,note_on,16,0,1,,,,,,,,,1,,,77,45
34464,note_on,0,0,2,,,,,,,,,2,,,67,45
34464,note_on,48,0,2,,,,,,,,,2,,,69,0
34464,note_on,0,0,1,,,,,,,,,1,,,76,45
34464,note_on,48,0,1,,,,,,,,,1,,,77,0
34512,note_on,48,0,1,,,,,,,,,1,,,76,0
34512,note_on,0,0,2,,,,,,,,,2,,,65,45
34512,note_on,48,0,2,,,,,,,,,2,,,67,0
34512,note_on,0,0,1,,,,,,,,,1,,,74,45
34558,note_on,46,0,1,,,,,,,,,1,,,74,0
34558,note_on,46,0,2,,,,,,,,,2,,,65,0
34560,note_on,416,0,3,,,,,,,,,3,,,69,45
34560,note_on,2,0,1,,,,,,,,,1,,,74,45
34560,note_on,2,0,2,,,,,,,,,2,,,65,45
34592,note_on,32,0,3,,,,,,,,,3,,,69,0
34592,note_on,32,0,1,,,,,,,,,1,,,74,0
34592,note_on,32,0,2,,,,,,,,,2,,,65,0
34608,note_on,16,0,3,,,,,,,,,3,,,69,45
34608,note_on,16,0,2,,,,,,,,,2,,,65,45
34608,note_on,16,0,1,,,,,,,,,1,,,74,45
34656,note_on,0,0,3,,,,,,,,,3,,,67,45
34656,note_on,48,0,3,,,,,,,,,3,,,69,0
34656,note_on,0,0,2,,,,,,,,,2,,,64,45
34656,note_on,48,0,2,,,,,,,,,2,,,65,0
34656,note_on,48,0,1,,,,,,,,,1,,,74,0
34656,note_on,0,0,1,,,,,,,,,1,,,72,45
34704,note_on,48,0,2,,,,,,,,,2,,,64,0
34704,note_on,0,0,2,,,,,,,,,2,,,62,45
34704,note_on,0,0,3,,,,,,,,,3,,,65,45
34704,note_on,48,0,1,,,,,,,,,1,,,72,0
34704,note_on,0,0,1,,,,,,,,,1,,,71,45
34704,note_on,48,0,3,,,,,,,,,3,,,67,0
34750,note_on,46,0,2,,,,,,,,,2,,,62,0
34750,note_on,46,0,3,,,,,,,,,3,,,65,0
34750,note_on,46,0,1,,,,,,,,,1,,,71,0
34752,note_on,2,0,3,,,,,,,,,3,,,65,45
34752,note_on,2,0,2,,,,,,,,,2,,,62,45
34752,note_on,2,0,1,,,,,,,,,1,,,71,45
34784,note_on,32,0,2,,,,,,,,,2,,,62,0
34784,note_on,32,0,3,,,,,,,,,3,,,65,0
34784,note_on,32,0,1,,,,,,,,,1,,,71,0
34800,note_on,16,0,1,,,,,,,,,1,,,71,45
34800,note_on,16,0,3,,,,,,,,,3,,,65,45
34800,note_on,16,0,2,,,,,,,,,2,,,62,45
34848,note_on,0,0,1,,,,,,,,,1,,,69,45
34848,note_on,48,0,3,,,,,,,,,3,,,65,0
34848,note_on,0,0,3,,,,,,,,,3,,,64,45
34848,note_on,48,0,2,,,,,,,,,2,,,62,0
34848,note_on,0,0,2,,,,,,,,,2,,,60,45
34848,note_on,48,0,1,,,,,,,,,1,,,71,0
34896,note_on,0,0,2,,,,,,,,,2,,,59,45
34896,note_on,48,0,2,,,,,,,,,2,,,60,0
34896,note_on,48,0,3,,,,,,,,,3,,,64,0
34896,note_on,48,0,1,,,,,,,,,1,,,69,0
34896,note_on,0,0,3,,,,,,,,,3,,,62,45
34896,note_on,0,0,1,,,,,,,,,1,,,67,45
34942,note_on,46,0,3,,,,,,,,,3,,,62,0
34942,note_on,46,0,2,,,,,,,,,2,,,59,0
34942,note_on,46,0,1,,,,,,,,,1,,,67,0
34944,note_on,2,0,3,,,,,,,,,3,,,62,45
34944,note_on,2,0,2,,,,,,,,,2,,,59,45
34944,note_on,800,0,4,,,,,,,,,4,,,57,45
34944,note_on,2,0,1,,,,,,,,,1,,,67,45
34976,note_on,32,0,4,,,,,,,,,4,,,57,0
34992,note_on,16,0,4,,,,,,,,,4,,,57,46
35038,note_on,94,0,2,,,,,,,,,2,,,59,0
35038,note_on,94,0,1,,,,,,,,,1,,,67,0
35038,note_on,94,0,3,,,,,,,,,3,,,62,0
35040,note_on,48,0,4,,,,,,,,,4,,,57,0
35040,note_on,0,0,4,,,,,,,,,4,,,55,47
35088,note_on,48,0,4,,,,,,,,,4,,,55,0
35088,note_on,0,0,4,,,,,,,,,4,,,53,48
35134,note_on,46,0,4,,,,,,,,,4,,,53,0
35136,note_on,2,0,4,,,,,,,,,4,,,53,49
35136,note_on,98,0,2,,,,,,,,,2,,,62,51
35136,note_on,98,0,1,,,,,,,,,1,,,71,51
35136,note_on,98,0,3,,,,,,,,,3,,,67,51
35168,note_on,32,0,4,,,,,,,,,4,,,53,0
35184,note_on,16,0,4,,,,,,,,,4,,,53,50
35230,note_on,94,0,2,,,,,,,,,2,,,62,0
35230,note_on,94,0,1,,,,,,,,,1,,,71,0
35230,note_on,94,0,3,,,,,,,,,3,,,67,0
35232,note_on,48,0,4,,,,,,,,,4,,,53,0
35232,note_on,0,0,4,,,,,,,,,4,,,52,51
35280,note_on,48,0,4,,,,,,,,,4,,,52,0
35280,note_on,0,0,4,,,,,,,,,4,,,50,52
35326,note_on,46,0,4,,,,,,,,,4,,,50,0
35328,note_on,98,0,2,,,,,,,,,2,,,67,57
35328,note_on,98,0,1,,,,,,,,,1,,,74,57
35328,note_on,2,0,4,,,,,,,,,4,,,50,53
35328,note_on,98,0,3,,,,,,,,,3,,,71,57
35360,note_on,32,0,4,,,,,,,,,4,,,50,0
35376,note_on,16,0,4,,,,,,,,,4,,,50,54
35422,note_on,94,0,2,,,,,,,,,2,,,67,0
35422,note_on,94,0,1,,,,,,,,,1,,,74,0
35422,note_on,94,0,3,,,,,,,,,3,,,71,0
35424,note_on,0,0,4,,,,,,,,,4,,,48,56
35424,note_on,48,0,4,,,,,,,,,4,,,50,0
35472,note_on,0,0,4,,,,,,,,,4,,,47,58
35472,note_on,48,0,4,,,,,,,,,4,,,48,0
35518,note_on,46,0,4,,,,,,,,,4,,,47,0
35520,note_on,98,0,3,,,,,,,,,3,,,67,63
35520,note_on,2,0,4,,,,,,,,,4,,,47,60
35520,note_on,98,0,2,,,,,,,,,2,,,74,63
35520,note_on,98,0,1,,,,,,,,,1,,,77,63
35552,note_on,32,0,4,,,,,,,,,4,,,47,0
35568,note_on,16,0,4,,,,,,,,,4,,,47,62
35614,note_on,94,0,2,,,,,,,,,2,,,74,0
35614,note_on,94,0,3,,,,,,,,,3,,,67,0
35614,note_on,94,0,1,,,,,,,,,1,,,77,0
35616,note_on,0,0,4,,,,,,,,,4,,,45,64
35616,note_on,48,0,4,,,,,,,,,4,,,47,0
35664,note_on,0,0,4,,,,,,,,,4,,,43,66
35664,note_on,48,0,4,,,,,,,,,4,,,45,0
35710,note_on,46,0,4,,,,,,,,,4,,,43,0
35712,note_on,98,0,3,,,,,,,,,3,,,67,69
35712,note_on,2,0,4,,,,,,,,,4,,,47,68
35712,note_on,98,0,2,,,,,,,,,2,,,74,69
35712,note_on,98,0,1,,,,,,,,,1,,,83,69
35744,note_on,32,0,4,,,,,,,,,4,,,47,0
35760,note_on,16,0,4,,,,,,,,,4,,,47,70
35806,note_on,94,0,3,,,,,,,,,3,,,67,0
35806,note_on,94,0,2,,,,,,,,,2,,,74,0
35806,note_on,94,0,1,,,,,,,,,1,,,83,0
35808,note_on,48,0,4,,,,,,,,,4,,,47,0
35808,note_on,0,0,4,,,,,,,,,4,,,45,72
35856,note_on,48,0,4,,,,,,,,,4,,,45,0
35856,note_on,0,0,4,,,,,,,,,4,,,43,74
35902,note_on,46,0,4,,,,,,,,,4,,,43,0
35904,note_on,98,0,2,,,,,,,,,2,,,77,76
35904,note_on,98,0,1,,,,,,,,,1,,,86,76
35904,note_on,98,0,3,,,,,,,,,3,,,67,76
35904,note_on,2,0,4,,,,,,,,,4,,,47,76
35936,note_on,32,0,4,,,,,,,,,4,,,47,0
35952,note_on,16,0,4,,,,,,,,,4,,,47,78
35998,note_on,94,0,2,,,,,,,,,2,,,77,0
35998,note_on,94,0,3,,,,,,,,,3,,,67,0
35998,note_on,94,0,1,,,,,,,,,1,,,86,0
36000,note_on,0,0,4,,,,,,,,,4,,,45,80
36000,note_on,48,0,4,,,,,,,,,4,,,47,0
36048,note_on,0,0,4,,,,,,,,,4,,,43,82
36048,note_on,48,0,4,,,,,,,,,4,,,45,0
36094,note_on,46,0,4,,,,,,,,,4,,,43,0
36096,note_on,98,0,2,,,,,,,,,2,,,74,84
36096,note_on,98,0,1,,,,,,,,,1,,,89,84
36096,note_on,2,0,4,,,,,,,,,4,,,47,84
36096,note_on,98,0,3,,,,,,,,,3,,,67,84
36128,note_on,32,0,4,,,,,,,,,4,,,47,0
36144,note_on,16,0,4,,,,,,,,,4,,,47,86
36190,note_on,94,0,1,,,,,,,,,1,,,89,0
36190,note_on,94,0,3,,,,,,,,,3,,,67,0
36190,note_on,94,0,2,,,,,,,,,2,,,74,0
36192,note_on,48,0,4,,,,,,,,,4,,,47,0
36192,note_on,0,0,4,,,,,,,,,4,,,45,88
36240,note_on,48,0,4,,,,,,,,,4,,,45,0
36240,note_on,0,0,4,,,,,,,,,4,,,43,90
36286,note_on,46,0,4,,,,,,,,,4,,,43,0
36288,note_on,98,0,2,,,,,,,,,2,,,62,127
36288,note_on,2,0,4,,,,,,,,,4,,,47,127
36288,note_on,98,0,3,,,,,,,,,3,,,59,127
36288,note_on,98,0,1,,,,,,,,,1,,,55,127
36288,note_on,0,0,1,,,,,,,,,1,,,65,127
36320,note_on,32,0,4,,,,,,,,,4,,,47,0
36336,note_on,16,0,4,,,,,,,,,4,,,47,92
36384,note_on,48,0,4,,,,,,,,,4,,,47,0
36384,note_on,0,0,4,,,,,,,,,4,,,45,92
36432,note_on,48,0,4,,,,,,,,,4,,,45,0
36432,note_on,0,0,4,,,,,,,,,4,,,43,92
37200,note_on,912,0,2,,,,,,,,,2,,,62,0
37200,note_on,0,0,1,,,,,,,,,1,,,65,0
37200,note_on,912,0,1,,,,,,,,,1,,,55,0
37200,note_on,768,0,4,,,,,,,,,4,,,43,0
37200,note_on,912,0,3,,,,,,,,,3,,,59,0
37248,key_signature,0,1,0,,,,,,C,,,,,,,
37248,note_on,48,0,4,,,,,,,,,4,,,55,45
37248,end_of_track,0,1,0,,,,,,,,,,,,,
37248,time_signature,0,1,0,,3,4,24,8,,,,,,,,
37248,set_tempo,22272,1,0,1250000,,,,,,,,,,,,
37408,note_on,160,0,4,,,,,,,,,4,,,55,0
37440,note_on,32,0,4,,,,,,,,,4,,,60,45
37536,note_on,336,0,2,,,,,,,,,2,,,60,45
37536,note_on,336,0,3,,,,,,,,,3,,,55,45
37536,note_on,336,0,1,,,,,,,,,1,,,64,45
37632,note_on,96,0,1,,,,,,,,,1,,,64,0
37632,note_on,0,0,1,,,,,,,,,1,,,67,45
37632,note_on,0,0,3,,,,,,,,,3,,,60,45
37632,note_on,96,0,3,,,,,,,,,3,,,55,0
37632,note_on,96,0,2,,,,,,,,,2,,,60,0
37632,note_on,0,0,2,,,,,,,,,2,,,64,45
37728,note_on,96,0,1,,,,,,,,,1,,,67,0
37728,note_on,0,0,2,,,,,,,,,2,,,67,45
37728,note_on,0,0,1,,,,,,,,,1,,,72,45
37728,note_on,0,0,3,,,,,,,,,3,,,64,45
37728,note_on,288,0,4,,,,,,,,,4,,,60,0
37728,note_on,0,0,4,,,,,,,,,4,,,55,45
37728,note_on,96,0,3,,,,,,,,,3,,,60,0
37728,note_on,96,0,2,,,,,,,,,2,,,64,0
37824,note_on,96,0,1,,,,,,,,,1,,,72,0
37824,note_on,0,0,1,,,,,,,,,1,,,76,45
37824,note_on,96,0,3,,,,,,,,,3,,,64,0
37824,note_on,0,0,3,,,,,,,,,3,,,67,45
37824,note_on,0,0,4,,,,,,,,,4,,,52,45
37824,note_on,96,0,2,,,,,,,,,2,,,67,0
37824,note_on,96,0,4,,,,,,,,,4,,,55,0
37824,note_on,0,0,2,,,,,,,,,2,,,72,45
37920,note_on,96,0,3,,,,,,,,,3,,,67,0
37920,note_on,0,0,3,,,,,,,,,3,,,72,45
37920,note_on,96,0,1,,,,,,,,,1,,,76,0
37920,note_on,0,0,1,,,,,,,,,1,,,79,45
37920,note_on,0,0,4,,,,,,,,,4,,,48,45
37920,note_on,96,0,4,,,,,,,,,4,,,52,0
37920,note_on,0,0,2,,,,,,,,,2,,,76,45
37920,note_on,96,0,2,,,,,,,,,2,,,72,0
38014,note_on,94,0,4,,,,,,,,,4,,,48,0
38014,note_on,94,0,2,,,,,,,,,2,,,76,0
38014,note_on,94,0,1,,,,,,,,,1,,,79,0
38014,note_on,94,0,3,,,,,,,,,3,,,72,0
38016,note_on,2,0,3,,,,,,,,,3,,,74,45
38016,note_on,2,0,1,,,,,,,,,1,,,79,45
38016,note_on,2,0,2,,,,,,,,,2,,,77,45
38016,note_on,2,0,4,,,,,,,,,4,,,48,45
38208,note_on,192,0,4,,,,,,,,,4,,,48,0
38208,note_on,0,0,4,,,,,,,,,4,,,47,45
38352,note_on,336,0,2,,,,,,,,,2,,,77,0
38352,note_on,336,0,3,,,,,,,,,3,,,74,0
38352,note_on,336,0,1,,,,,,,,,1,,,79,0
38400,note_on,48,0,2,,,,,,,,,2,,,64,45
38400,note_on,48,0,3,,,,,,,,,3,,,60,45
38400,note_on,0,0,4,,,,,,,,,4,,,48,45
38400,note_on,48,0,1,,,,,,,,,1,,,67,45
38400,note_on,192,0,4,,,,,,,,,4,,,47,0
38560,note_on,160,0,4,,,,,,,,,4,,,48,0
38560,note_on,160,0,3,,,,,,,,,3,,,60,0
38560,note_on,160,0,2,,,,,,,,,2,,,64,0
38560,note_on,160,0,1,,,,,,,,,1,,,67,0
38592,note_on,32,0,3,,,,,,,,,3,,,58,63
38592,note_on,32,0,2,,,,,,,,,2,,,61,63
38592,note_on,32,0,1,,,,,,,,,1,,,67,63
38592,note_on,32,0,4,,,,,,,,,4,,,50,45
38616,note_on,24,0,4,,,,,,,,,4,,,50,0
38616,note_on,0,0,4,,,,,,,,,4,,,48,45
38640,note_on,24,0,4,,,,,,,,,4,,,48,0
38640,note_on,0,0,4,,,,,,,,,4,,,47,45
38664,note_on,24,0,4,,,,,,,,,4,,,47,0
38664,note_on,0,0,4,,,,,,,,,4,,,48,45
38686,note_on,22,0,4,,,,,,,,,4,,,48,0
38688,note_on,2,0,4,,,,,,,,,4,,,52,63
38784,note_on,96,0,4,,,,,,,,,4,,,52,0
38784,note_on,0,0,4,,,,,,,,,4,,,50,45
38784,note_on,192,0,3,,,,,,,,,3,,,58,0
38784,note_on,0,0,3,,,,,,,,,3,,,59,45
38784,note_on,0,0,2,,,,,,,,,2,,,65,45
38784,note_on,192,0,2,,,,,,,,,2,,,61,0
38848,note_on,256,0,1,,,,,,,,,1,,,67,0
38878,note_on,94,0,4,,,,,,,,,4,,,50,0
38878,note_on,94,0,2,,,,,,,,,2,,,65,0
38878,note_on,94,0,3,,,,,,,,,3,,,59,0
38880,note_on,2,0,3,,,,,,,,,3,,,55,45
38976,note_on,0,0,3,,,,,,,,,3,,,59,45
38976,note_on,96,0,3,,,,,,,,,3,,,55,0
39072,note_on,96,0,3,,,,,,,,,3,,,59,0
39072,note_on,194,0,4,,,,,,,,,4,,,50,45
39072,note_on,0,0,3,,,,,,,,,3,,,62,45
39166,note_on,94,0,4,,,,,,,,,4,,,50,0
39166,note_on,94,0,3,,,,,,,,,3,,,62,0
39168,note_on,2,0,4,,,,,,,,,4,,,53,45
39168,note_on,2,0,3,,,,,,,,,3,,,65,45
39264,note_on,416,0,1,,,,,,,,,1,,,71,45
39358,note_on,94,0,1,,,,,,,,,1,,,71,0
39360,note_on,2,0,1,,,,,,,,,1,,,80,48
39456,note_on,288,0,4,,,,,,,,,4,,,53,0
39456,note_on,0,0,4,,,,,,,,,4,,,50,52
39456,note_on,288,0,3,,,,,,,,,3,,,65,0
39456,note_on,0,0,1,,,,,,,,,1,,,79,51
39456,note_on,578,0,2,,,,,,,,,2,,,65,45
39456,note_on,96,0,1,,,,,,,,,1,,,80,0
39456,note_on,0,0,3,,,,,,,,,3,,,59,52
39552,note_on,0,0,3,,,,,,,,,3,,,62,54
39552,note_on,96,0,3,,,,,,,,,3,,,59,0
39552,note_on,96,0,4,,,,,,,,,4,,,50,0
39552,note_on,0,0,4,,,,,,,,,4,,,47,54
39648,note_on,96,0,3,,,,,,,,,3,,,62,0
39648,note_on,0,0,2,,,,,,,,,2,,,64,51
39648,note_on,192,0,2,,,,,,,,,2,,,65,0
39648,note_on,96,0,4,,,,,,,,,4,,,47,0
39648,note_on,0,0,4,,,,,,,,,4,,,48,56
39648,note_on,0,0,3,,,,,,,,,3,,,60,56
39696,note_on,240,0,1,,,,,,,,,1,,,79,0
39696,note_on,0,0,1,,,,,,,,,1,,,77,58
39720,note_on,24,0,1,,,,,,,,,1,,,77,0
39720,note_on,0,0,1,,,,,,,,,1,,,76,58
39742,note_on,94,0,4,,,,,,,,,4,,,48,0
39742,note_on,22,0,1,,,,,,,,,1,,,76,0
39742,note_on,94,0,2,,,,,,,,,2,,,64,0
39742,note_on,94,0,3,,,,,,,,,3,,,60,0
39744,note_on,2,0,1,,,,,,,,,1,,,76,58
39744,note_on,2,0,2,,,,,,,,,2,,,69,54
39744,note_on,2,0,3,,,,,,,,,3,,,53,58
39744,note_on,2,0,4,,,,,,,,,4,,,41,58
39840,note_on,96,0,1,,,,,,,,,1,,,76,0
39840,note_on,0,0,1,,,,,,,,,1,,,74,61
39904,note_on,160,0,4,,,,,,,,,4,,,41,0
39936,note_on,0,0,2,,,,,,,,,2,,,65,60
39936,note_on,96,0,1,,,,,,,,,1,,,74,0
39936,note_on,0,0,1,,,,,,,,,1,,,77,64
39936,note_on,192,0,2,,,,,,,,,2,,,69,0
39936,note_on,0,0,3,,,,,,,,,3,,,50,63
39936,note_on,192,0,3,,,,,,,,,3,,,53,0
39936,note_on,32,0,4,,,,,,,,,4,,,69,63
40032,note_on,0,0,1,,,,,,,,,1,,,81,67
40032,note_on,96,0,1,,,,,,,,,1,,,77,0
40096,note_on,160,0,2,,,,,,,,,2,,,65,0
40128,note_on,0,0,3,,,,,,,,,3,,,55,68
40128,note_on,32,0,2,,,,,,,,,2,,,59,66
40128,note_on,192,0,3,,,,,,,,,3,,,50,0
40176,note_on,240,0,4,,,,,,,,,4,,,69,0
40176,note_on,0,0,4,,,,,,,,,4,,,67,69
40200,note_on,0,0,4,,,,,,,,,4,,,65,69
40200,note_on,24,0,4,,,,,,,,,4,,,67,0
40222,note_on,190,0,1,,,,,,,,,1,,,81,0
40224,note_on,2,0,1,,,,,,,,,1,,,71,73
40224,note_on,0,0,4,,,,,,,,,4,,,64,69
40224,note_on,96,0,2,,,,,,,,,2,,,59,0
40224,note_on,0,0,2,,,,,,,,,2,,,65,69
40224,note_on,24,0,4,,,,,,,,,4,,,65,0
40248,note_on,24,0,4,,,,,,,,,4,,,64,0
40248,note_on,0,0,4,,,,,,,,,4,,,62,69
40272,note_on,0,0,4,,,,,,,,,4,,,60,69
40272,note_on,24,0,4,,,,,,,,,4,,,62,0
40288,note_on,160,0,3,,,,,,,,,3,,,55,0
40296,note_on,0,0,4,,,,,,,,,4,,,59,69
40296,note_on,24,0,4,,,,,,,,,4,,,60,0
40318,note_on,22,0,4,,,,,,,,,4,,,59,0
40318,note_on,94,0,2,,,,,,,,,2,,,65,0
40320,note_on,2,0,4,,,,,,,,,4,,,62,69
40320,note_on,2,0,2,,,,,,,,,2,,,65,72
40320,note_on,32,0,3,,,,,,,,,3,,,48,74
40344,note_on,120,0,1,,,,,,,,,1,,,71,0
40344,note_on,0,0,1,,,,,,,,,1,,,72,77
40368,note_on,24,0,1,,,,,,,,,1,,,72,0
40368,note_on,0,0,1,,,,,,,,,1,,,74,78
40392,note_on,24,0,1,,,,,,,,,1,,,74,0
40392,note_on,0,0,1,,,,,,,,,1,,,76,79
40416,note_on,24,0,1,,,,,,,,,1,,,76,0
40416,note_on,0,0,1,,,,,,,,,1,,,77,80
40440,note_on,0,0,1,,,,,,,,,1,,,67,81
40440,note_on,24,0,1,,,,,,,,,1,,,77,0
40464,note_on,0,0,1,,,,,,,,,1,,,69,82
40464,note_on,24,0,1,,,,,,,,,1,,,67,0
40488,note_on,0,0,1,,,,,,,,,1,,,71,83
40488,note_on,24,0,1,,,,,,,,,1,,,69,0
40510,note_on,22,0,1,,,,,,,,,1,,,71,0
40512,note_on,192,0,2,,,,,,,,,2,,,65,0
40512,note_on,0,0,2,,,,,,,,,2,,,64,78
40512,note_on,192,0,4,,,,,,,,,4,,,62,0
40512,note_on,2,0,1,,,,,,,,,1,,,72,84
40512,note_on,0,0,4,,,,,,,,,4,,,60,76
40576,note_on,256,0,3,,,,,,,,,3,,,48,0
40606,note_on,94,0,1,,,,,,,,,1,,,72,0
40606,note_on,94,0,2,,,,,,,,,2,,,64,0
40606,note_on,94,0,4,,,,,,,,,4,,,60,0
40704,note_on,98,0,1,,,,,,,,,1,,,60,45
40752,note_on,48,0,1,,,,,,,,,1,,,60,0
40752,note_on,0,0,1,,,,,,,,,1,,,64,45
40800,note_on,0,0,1,,,,,,,,,1,,,67,45
40800,note_on,48,0,1,,,,,,,,,1,,,64,0
40848,note_on,0,0,1,,,,,,,,,1,,,72,45
40848,note_on,48,0,1,,,,,,,,,1,,,67,0
40894,note_on,46,0,1,,,,,,,,,1,,,72,0
40896,note_on,0,0,2,,,,,,,,,2,,,64,45
40896,note_on,290,0,2,,,,,,,,,2,,,55,45
40896,note_on,320,0,3,,,,,,,,,3,,,60,45
40896,note_on,2,0,1,,,,,,,,,1,,,76,45
40896,note_on,290,0,4,,,,,,,,,4,,,36,45
40944,note_on,48,0,4,,,,,,,,,4,,,36,0
40944,note_on,0,0,4,,,,,,,,,4,,,48,45
40992,note_on,0,0,4,,,,,,,,,4,,,52,45
40992,note_on,48,0,4,,,,,,,,,4,,,48,0
41040,note_on,0,0,4,,,,,,,,,4,,,55,45
41040,note_on,48,0,4,,,,,,,,,4,,,52,0
41086,note_on,46,0,4,,,,,,,,,4,,,55,0
41088,note_on,2,0,4,,,,,,,,,4,,,60,45
41112,note_on,0,0,1,,,,,,,,,1,,,74,45
41112,note_on,216,0,1,,,,,,,,,1,,,76,0
41136,note_on,24,0,1,,,,,,,,,1,,,74,0
41136,note_on,0,0,1,,,,,,,,,1,,,72,45
41152,note_on,0,0,2,,,,,,,,,2,,,64,0
41152,note_on,256,0,2,,,,,,,,,2,,,55,0
41152,note_on,256,0,3,,,,,,,,,3,,,60,0
41160,note_on,24,0,1,,,,,,,,,1,,,72,0
41160,note_on,0,0,1,,,,,,,,,1,,,71,45
41182,note_on,94,0,4,,,,,,,,,4,,,60,0
41184,note_on,0,0,1,,,,,,,,,1,,,72,45
41184,note_on,24,0,1,,,,,,,,,1,,,71,0
41208,note_on,0,0,1,,,,,,,,,1,,,74,45
41208,note_on,24,0,1,,,,,,,,,1,,,72,0
41232,note_on,0,0,1,,,,,,,,,1,,,76,45
41232,note_on,24,0,1,,,,,,,,,1,,,74,0
41256,note_on,0,0,1,,,,,,,,,1,,,77,45
41256,note_on,24,0,1,,,,,,,,,1,,,76,0
41278,note_on,22,0,1,,,,,,,,,1,,,77,0
41280,note_on,2,0,1,,,,,,,,,1,,,79,45
41304,note_on,24,0,1,,,,,,,,,1,,,79,0
41304,note_on,0,0,1,,,,,,,,,1,,,78,45
41328,note_on,0,0,1,,,,,,,,,1,,,81,45
41328,note_on,24,0,1,,,,,,,,,1,,,78,0
41352,note_on,0,0,1,,,,,,,,,1,,,79,45
41352,note_on,24,0,1,,,,,,,,,1,,,81,0
41376,note_on,24,0,1,,,,,,,,,1,,,79,0
41376,note_on,0,0,1,,,,,,,,,1,,,77,45
41400,note_on,0,0,1,,,,,,,,,1,,,76,45
41400,note_on,24,0,1,,,,,,,,,1,,,77,0
41424,note_on,24,0,1,,,,,,,,,1,,,76,0
41424,note_on,0,0,1,,,,,,,,,1,,,74,45
41448,note_on,24,0,1,,,,,,,,,1,,,74,0
41448,note_on,0,0,1,,,,,,,,,1,,,72,45
41470,note_on,22,0,1,,,,,,,,,1,,,72,0
41472,note_on,2,0,1,,,,,,,,,1,,,76,45
41472,note_on,320,0,3,,,,,,,,,3,,,55,45
41472,note_on,320,0,2,,,,,,,,,2,,,64,45
41472,note_on,290,0,4,,,,,,,,,4,,,48,45
41568,note_on,0,0,3,,,,,,,,,3,,,60,45
41568,note_on,96,0,3,,,,,,,,,3,,,55,0
41568,note_on,0,0,4,,,,,,,,,4,,,52,45
41568,note_on,96,0,4,,,,,,,,,4,,,48,0
41568,note_on,96,0,2,,,,,,,,,2,,,64,0
41568,note_on,0,0,2,,,,,,,,,2,,,67,45
41616,note_on,144,0,1,,,,,,,,,1,,,76,0
41616,note_on,0,0,1,,,,,,,,,1,,,77,45
41640,note_on,0,0,1,,,,,,,,,1,,,76,45
41640,note_on,24,0,1,,,,,,,,,1,,,77,0
41662,note_on,22,0,1,,,,,,,,,1,,,76,0
41664,note_on,0,0,2,,,,,,,,,2,,,62,45
41664,note_on,96,0,2,,,,,,,,,2,,,67,0
41664,note_on,0,0,3,,,,,,,,,3,,,59,45
41664,note_on,96,0,3,,,,,,,,,3,,,60,0
41664,note_on,96,0,4,,,,,,,,,4,,,52,0
41664,note_on,0,0,4,,,,,,,,,4,,,55,45
41664,note_on,2,0,1,,,,,,,,,1,,,74,45
41758,note_on,94,0,1,,,,,,,,,1,,,74,0
41758,note_on,94,0,2,,,,,,,,,2,,,62,0
41758,note_on,94,0,4,,,,,,,,,4,,,55,0
41758,note_on,94,0,3,,,,,,,,,3,,,59,0
41856,note_on,98,0,1,,,,,,,,,1,,,55,45
41880,note_on,0,0,1,,,,,,,,,1,,,60,45
41880,note_on,24,0,1,,,,,,,,,1,,,55,0
41904,note_on,0,0,1,,,,,,,,,1,,,64,45
41904,note_on,24,0,1,,,,,,,,,1,,,60,0
41928,note_on,24,0,1,,,,,,,,,1,,,64,0
41928,note_on,0,0,1,,,,,,,,,1,,,60,45
41952,note_on,24,0,1,,,,,,,,,1,,,60,0
41952,note_on,0,0,1,,,,,,,,,1,,,67,45
41976,note_on,24,0,1,,,,,,,,,1,,,67,0
41976,note_on,0,0,1,,,,,,,,,1,,,64,45
42000,note_on,24,0,1,,,,,,,,,1,,,64,0
42000,note_on,0,0,1,,,,,,,,,1,,,72,45
42024,note_on,24,0,1,,,,,,,,,1,,,72,0
42024,note_on,0,0,1,,,,,,,,,1,,,67,45
42046,note_on,22,0,1,,,,,,,,,1,,,67,0
42048,note_on,2,0,1,,,,,,,,,1,,,76,45
42048,note_on,290,0,4,,,,,,,,,4,,,36,45
42048,note_on,290,0,2,,,,,,,,,2,,,55,45
42048,note_on,290,0,3,,,,,,,,,3,,,60,45
42048,note_on,0,0,2,,,,,,,,,2,,,64,45
42072,note_on,24,0,4,,,,,,,,,4,,,36,0
42072,note_on,0,0,4,,,,,,,,,4,,,43,45
42096,note_on,24,0,4,,,,,,,,,4,,,43,0
42096,note_on,0,0,4,,,,,,,,,4,,,48,45
42120,note_on,24,0,4,,,,,,,,,4,,,48,0
42120,note_on,0,0,4,,,,,,,,,4,,,43,45
42144,note_on,0,0,4,,,,,,,,,4,,,52,45
42144,note_on,24,0,4,,,,,,,,,4,,,43,0
42168,note_on,24,0,4,,,,,,,,,4,,,52,0
42168,note_on,0,0,4,,,,,,,,,4,,,48,45
42192,note_on,24,0,4,,,,,,,,,4,,,48,0
42192,note_on,0,0,4,,,,,,,,,4,,,55,45
42216,note_on,24,0,4,,,,,,,,,4,,,55,0
42216,note_on,0,0,4,,,,,,,,,4,,,52,45
42238,note_on,22,0,4,,,,,,,,,4,,,52,0
42240,note_on,2,0,4,,,,,,,,,4,,,60,45
42252,note_on,0,0,1,,,,,,,,,1,,,74,45
42252,note_on,204,0,1,,,,,,,,,1,,,76,0
42264,note_on,0,0,1,,,,,,,,,1,,,72,45
42264,note_on,12,0,1,,,,,,,,,1,,,74,0
42276,note_on,0,0,1,,,,,,,,,1,,,71,45
42276,note_on,12,0,1,,,,,,,,,1,,,72,0
42288,note_on,0,0,1,,,,,,,,,1,,,72,45
42288,note_on,12,0,1,,,,,,,,,1,,,71,0
42300,note_on,0,0,1,,,,,,,,,1,,,74,45
42300,note_on,12,0,1,,,,,,,,,1,,,72,0
42304,note_on,256,0,3,,,,,,,,,3,,,60,0
42304,note_on,0,0,2,,,,,,,,,2,,,64,0
42304,note_on,256,0,2,,,,,,,,,2,,,55,0
42312,note_on,0,0,1,,,,,,,,,1,,,76,45
42312,note_on,12,0,1,,,,,,,,,1,,,74,0
42324,note_on,0,0,1,,,,,,,,,1,,,77,45
42324,note_on,12,0,1,,,,,,,,,1,,,76,0
42334,note_on,94,0,4,,,,,,,,,4,,,60,0
42336,note_on,0,0,1,,,,,,,,,1,,,81,45
42336,note_on,12,0,1,,,,,,,,,1,,,77,0
42348,note_on,0,0,1,,,,,,,,,1,,,79,45
42348,note_on,12,0,1,,,,,,,,,1,,,81,0
42360,note_on,0,0,1,,,,,,,,,1,,,77,45
42360,note_on,12,0,1,,,,,,,,,1,,,79,0
42372,note_on,0,0,1,,,,,,,,,1,,,76,45
42372,note_on,12,0,1,,,,,,,,,1,,,77,0
42384,note_on,12,0,1,,,,,,,,,1,,,76,0
42384,note_on,0,0,1,,,,,,,,,1,,,77,45
42396,note_on,12,0,1,,,,,,,,,1,,,77,0
42396,note_on,0,0,1,,,,,,,,,1,,,79,45
42408,note_on,0,0,1,,,,,,,,,1,,,81,45
42408,note_on,12,0,1,,,,,,,,,1,,,79,0
42420,note_on,0,0,1,,,,,,,,,1,,,83,45
42420,note_on,12,0,1,,,,,,,,,1,,,81,0
42432,note_on,0,0,1,,,,,,,,,1,,,84,45
42432,note_on,12,0,1,,,,,,,,,1,,,83,0
42444,note_on,12,0,1,,,,,,,,,1,,,84,0
42444,note_on,0,0,1,,,,,,,,,1,,,83,45
42456,note_on,12,0,1,,,,,,,,,1,,,83,0
42456,note_on,0,0,1,,,,,,,,,1,,,88,45
42468,note_on,0,0,1,,,,,,,,,1,,,86,45
42468,note_on,12,0,1,,,,,,,,,1,,,88,0
42480,note_on,12,0,1,,,,,,,,,1,,,86,0
42480,note_on,0,0,1,,,,,,,,,1,,,84,45
42492,note_on,0,0,1,,,,,,,,,1,,,83,45
42492,note_on,12,0,1,,,,,,,,,1,,,84,0
42504,note_on,0,0,1,,,,,,,,,1,,,81,45
42504,note_on,12,0,1,,,,,,,,,1,,,83,0
42516,note_on,0,0,1,,,,,,,,,1,,,79,45
42516,note_on,12,0,1,,,,,,,,,1,,,81,0
42528,note_on,0,0,1,,,,,,,,,1,,,78,45
42528,note_on,12,0,1,,,,,,,,,1,,,79,0
42540,note_on,12,0,1,,,,,,,,,1,,,78,0
42540,note_on,0,0,1,,,,,,,,,1,,,79,45
42552,note_on,0,0,1,,,,,,,,,1,,,81,45
42552,note_on,12,0,1,,,,,,,,,1,,,79,0
42564,note_on,12,0,1,,,,,,,,,1,,,81,0
42564,note_on,0,0,1,,,,,,,,,1,,,79,45
42576,note_on,0,0,1,,,,,,,,,1,,,77,45
42576,note_on,12,0,1,,,,,,,,,1,,,79,0
42588,note_on,0,0,1,,,,,,,,,1,,,76,45
42588,note_on,12,0,1,,,,,,,,,1,,,77,0
42600,note_on,12,0,1,,,,,,,,,1,,,76,0
42600,note_on,0,0,1,,,,,,,,,1,,,74,45
42612,note_on,0,0,1,,,,,,,,,1,,,72,45
42612,note_on,12,0,1,,,,,,,,,1,,,74,0
42622,note_on,10,0,1,,,,,,,,,1,,,72,0
42624,note_on,2,0,1,,,,,,,,,1,,,76,45
42624,note_on,320,0,2,,,,,,,,,2,,,64,45
42624,note_on,320,0,3,,,,,,,,,3,,,55,45
42624,note_on,290,0,4,,,,,,,,,4,,,48,45
42718,note_on,94,0,1,,,,,,,,,1,,,76,0
42720,note_on,0,0,2,,,,,,,,,2,,,67,45
42720,note_on,96,0,3,,,,,,,,,3,,,55,0
42720,note_on,0,0,3,,,,,,,,,3,,,60,45
42720,note_on,96,0,4,,,,,,,,,4,,,48,0
42720,note_on,0,0,4,,,,,,,,,4,,,52,45
42720,note_on,2,0,1,,,,,,,,,1,,,77,45
42720,note_on,96,0,2,,,,,,,,,2,,,64,0
42728,note_on,8,0,1,,,,,,,,,1,,,77,0
42728,note_on,0,0,1,,,,,,,,,1,,,76,45
42736,note_on,0,0,1,,,,,,,,,1,,,74,45
42736,note_on,8,0,1,,,,,,,,,1,,,76,0
42744,note_on,0,0,1,,,,,,,,,1,,,76,45
42744,note_on,8,0,1,,,,,,,,,1,,,74,0
42756,note_on,0,0,1,,,,,,,,,1,,,77,45
42756,note_on,12,0,1,,,,,,,,,1,,,76,0
42768,note_on,0,0,1,,,,,,,,,1,,,78,45
42768,note_on,12,0,1,,,,,,,,,1,,,77,0
42792,note_on,0,0,1,,,,,,,,,1,,,79,45
42792,note_on,24,0,1,,,,,,,,,1,,,78,0
42814,note_on,22,0,1,,,,,,,,,1,,,79,0
42816,note_on,2,0,1,,,,,,,,,1,,,74,45
42816,note_on,0,0,2,,,,,,,,,2,,,62,45
42816,note_on,96,0,2,,,,,,,,,2,,,67,0
42816,note_on,96,0,3,,,,,,,,,3,,,60,0
42816,note_on,0,0,3,,,,,,,,,3,,,59,45
42816,note_on,96,0,4,,,,,,,,,4,,,52,0
42816,note_on,0,0,4,,,,,,,,,4,,,55,45
42838,note_on,22,0,4,,,,,,,,,4,,,55,0
42840,note_on,2,0,4,,,,,,,,,4,,,43,45
42864,note_on,24,0,4,,,,,,,,,4,,,43,0
42864,note_on,0,0,4,,,,,,,,,4,,,47,45
42888,note_on,0,0,4,,,,,,,,,4,,,50,45
42888,note_on,24,0,4,,,,,,,,,4,,,47,0
42910,note_on,94,0,3,,,,,,,,,3,,,59,0
42910,note_on,94,0,1,,,,,,,,,1,,,74,0
42910,note_on,94,0,2,,,,,,,,,2,,,62,0
42912,note_on,0,0,4,,,,,,,,,4,,,55,45
42912,note_on,24,0,4,,,,,,,,,4,,,50,0
42936,note_on,0,0,4,,,,,,,,,4,,,59,45
42936,note_on,24,0,4,,,,,,,,,4,,,55,0
42960,note_on,24,0,4,,,,,,,,,4,,,59,0
42960,note_on,0,0,4,,,,,,,,,4,,,62,45
42984,note_on,0,0,4,,,,,,,,,4,,,60,45
42984,note_on,24,0,4,,,,,,,,,4,,,62,0
43008,note_on,0,0,4,,,,,,,,,4,,,59,45
43008,note_on,24,0,4,,,,,,,,,4,,,60,0
43008,note_on,98,0,1,,,,,,,,,1,,,73,45
43030,note_on,22,0,1,,,,,,,,,1,,,73,0
43032,note_on,0,0,4,,,,,,,,,4,,,57,45
43032,note_on,24,0,4,,,,,,,,,4,,,59,0
43032,note_on,2,0,1,,,,,,,,,1,,,74,45
43056,note_on,0,0,4,,,,,,,,,4,,,55,45
43056,note_on,24,0,4,,,,,,,,,4,,,57,0
43080,note_on,0,0,4,,,,,,,,,4,,,54,45
43080,note_on,24,0,4,,,,,,,,,4,,,55,0
43102,note_on,70,0,1,,,,,,,,,1,,,74,0
43104,note_on,24,0,4,,,,,,,,,4,,,54,0
43104,note_on,0,0,4,,,,,,,,,4,,,55,45
43104,note_on,2,0,1,,,,,,,,,1,,,73,45
43126,note_on,22,0,1,,,,,,,,,1,,,73,0
43128,note_on,2,0,1,,,,,,,,,1,,,74,45
43128,note_on,24,0,4,,,,,,,,,4,,,55,0
43128,note_on,0,0,4,,,,,,,,,4,,,50,45
43152,note_on,24,0,4,,,,,,,,,4,,,50,0
43152,note_on,0,0,4,,,,,,,,,4,,,47,45
43176,note_on,0,0,4,,,,,,,,,4,,,43,45
43176,note_on,24,0,4,,,,,,,,,4,,,47,0
43198,note_on,70,0,1,,,,,,,,,1,,,74,0
43198,note_on,22,0,4,,,,,,,,,4,,,43,0
43200,note_on,2,0,1,,,,,,,,,1,,,74,45
43200,note_on,290,0,3,,,,,,,,,3,,,57,45
43200,note_on,2,0,4,,,,,,,,,4,,,48,45
43200,note_on,290,0,2,,,,,,,,,2,,,66,45
43296,note_on,96,0,3,,,,,,,,,3,,,57,0
43296,note_on,0,0,3,,,,,,,,,3,,,54,60
43296,note_on,96,0,2,,,,,,,,,2,,,66,0
43296,note_on,0,0,2,,,,,,,,,2,,,69,60
43360,note_on,160,0,4,,,,,,,,,4,,,48,0
43368,note_on,0,0,3,,,,,,,,,3,,,50,45
43368,note_on,72,0,3,,,,,,,,,3,,,54,0
43368,note_on,0,0,2,,,,,,,,,2,,,66,45
43368,note_on,72,0,2,,,,,,,,,2,,,69,0
43390,note_on,22,0,3,,,,,,,,,3,,,50,0
43390,note_on,22,0,2,,,,,,,,,2,,,66,0
43392,note_on,2,0,2,,,,,,,,,2,,,71,45
43392,note_on,2,0,3,,,,,,,,,3,,,55,45
43392,note_on,32,0,4,,,,,,,,,4,,,47,45
43456,note_on,256,0,1,,,,,,,,,1,,,74,0
43486,note_on,94,0,2,,,,,,,,,2,,,71,0
43486,note_on,94,0,3,,,,,,,,,3,,,55,0
43488,note_on,32,0,1,,,,,,,,,1,,,76,45
43560,note_on,0,0,1,,,,,,,,,1,,,74,45
43560,note_on,72,0,1,,,,,,,,,1,,,76,0
43582,note_on,22,0,1,,,,,,,,,1,,,74,0
43584,note_on,2,0,1,,,,,,,,,1,,,79,45
43608,note_on,0,0,4,,,,,,,,,4,,,50,45
43608,note_on,216,0,4,,,,,,,,,4,,,47,0
43632,note_on,24,0,4,,,,,,,,,4,,,50,0
43632,note_on,0,0,4,,,,,,,,,4,,,49,45
43656,note_on,24,0,4,,,,,,,,,4,,,49,0
43656,note_on,0,0,1,,,,,,,,,1,,,74,45
43656,note_on,72,0,1,,,,,,,,,1,,,79,0
43656,note_on,0,0,4,,,,,,,,,4,,,50,45
43678,note_on,22,0,1,,,,,,,,,1,,,74,0
43680,note_on,24,0,4,,,,,,,,,4,,,50,0
43680,note_on,2,0,1,,,,,,,,,1,,,83,45
43680,note_on,0,0,4,,,,,,,,,4,,,48,45
43704,note_on,0,0,4,,,,,,,,,4,,,47,45
43704,note_on,24,0,4,,,,,,,,,4,,,48,0
43728,note_on,0,0,4,,,,,,,,,4,,,45,45
43728,note_on,24,0,4,,,,,,,,,4,,,47,0
43752,note_on,0,0,1,,,,,,,,,1,,,74,45
43752,note_on,0,0,4,,,,,,,,,4,,,43,45
43752,note_on,24,0,4,,,,,,,,,4,,,45,0
43752,note_on,72,0,1,,,,,,,,,1,,,83,0
43774,note_on,22,0,1,,,,,,,,,1,,,74,0
43774,note_on,22,0,4,,,,,,,,,4,,,43,0
43776,note_on,2,0,1,,,,,,,,,1,,,74,45
43776,note_on,2,0,4,,,,,,,,,4,,,48,45
43776,note_on,290,0,2,,,,,,,,,2,,,66,45
43776,note_on,290,0,3,,,,,,,,,3,,,57,45
43872,note_on,96,0,2,,,,,,,,,2,,,66,0
43872,note_on,0,0,2,,,,,,,,,2,,,69,60
43872,note_on,96,0,3,,,,,,,,,3,,,57,0
43872,note_on,0,0,3,,,,,,,,,3,,,54,60
43896,note_on,24,0,3,,,,,,,,,3,,,54,0
43896,note_on,0,0,3,,,,,,,,,3,,,50,57
43896,note_on,24,0,2,,,,,,,,,2,,,69,0
43896,note_on,0,0,2,,,,,,,,,2,,,66,57
43920,note_on,24,0,2,,,,,,,,,2,,,66,0
43920,note_on,0,0,2,,,,,,,,,2,,,69,53
43920,note_on,24,0,3,,,,,,,,,3,,,50,0
43920,note_on,0,0,3,,,,,,,,,3,,,54,53
43936,note_on,160,0,4,,,,,,,,,4,,,48,0
43944,note_on,24,0,2,,,,,,,,,2,,,69,0
43944,note_on,0,0,2,,,,,,,,,2,,,66,49
43944,note_on,24,0,3,,,,,,,,,3,,,54,0
43944,note_on,0,0,3,,,,,,,,,3,,,50,49
43966,note_on,22,0,2,,,,,,,,,2,,,66,0
43966,note_on,22,0,3,,,,,,,,,3,,,50,0
43968,note_on,2,0,2,,,,,,,,,2,,,71,45
43968,note_on,32,0,4,,,,,,,,,4,,,47,45
43968,note_on,2,0,3,,,,,,,,,3,,,55,45
43990,note_on,214,0,1,,,,,,,,,1,,,74,0
43992,note_on,2,0,1,,,,,,,,,1,,,74,45
44008,note_on,16,0,1,,,,,,,,,1,,,74,0
44016,note_on,8,0,1,,,,,,,,,1,,,74,45
44032,note_on,16,0,1,,,,,,,,,1,,,74,0
44040,note_on,8,0,1,,,,,,,,,1,,,74,45
44056,note_on,16,0,1,,,,,,,,,1,,,74,0
44062,note_on,94,0,3,,,,,,,,,3,,,55,0
44062,note_on,94,0,2,,,,,,,,,2,,,71,0
44064,note_on,2,0,2,,,,,,,,,2,,,62,45
44064,note_on,2,0,3,,,,,,,,,3,,,55,45
44064,note_on,8,0,1,,,,,,,,,1,,,76,45
44088,note_on,0,0,1,,,,,,,,,1,,,74,45
44088,note_on,24,0,1,,,,,,,,,1,,,76,0
44110,note_on,22,0,1,,,,,,,,,1,,,74,0
44112,note_on,2,0,1,,,,,,,,,1,,,74,45
44128,note_on,16,0,1,,,,,,,,,1,,,74,0
44136,note_on,8,0,1,,,,,,,,,1,,,74,45
44152,note_on,16,0,1,,,,,,,,,1,,,74,0
44160,note_on,8,0,1,,,,,,,,,1,,,79,45
44184,note_on,0,0,1,,,,,,,,,1,,,74,45
44184,note_on,24,0,1,,,,,,,,,1,,,79,0
44184,note_on,216,0,4,,,,,,,,,4,,,47,0
44184,note_on,0,0,4,,,,,,,,,4,,,50,45
44206,note_on,22,0,1,,,,,,,,,1,,,74,0
44208,note_on,2,0,1,,,,,,,,,1,,,74,45
44208,note_on,24,0,4,,,,,,,,,4,,,50,0
44208,note_on,0,0,4,,,,,,,,,4,,,49,45
44224,note_on,160,0,3,,,,,,,,,3,,,55,0
44224,note_on,16,0,1,,,,,,,,,1,,,74,0
44232,note_on,8,0,1,,,,,,,,,1,,,74,45
44232,note_on,24,0,4,,,,,,,,,4,,,49,0
44232,note_on,0,0,4,,,,,,,,,4,,,50,45
44248,note_on,16,0,1,,,,,,,,,1,,,74,0
44256,note_on,0,0,2,,,,,,,,,2,,,63,45
44256,note_on,8,0,1,,,,,,,,,1,,,83,45
44256,note_on,24,0,4,,,,,,,,,4,,,50,0
44256,note_on,0,0,4,,,,,,,,,4,,,48,45
44256,note_on,32,0,3,,,,,,,,,3,,,55,45
44256,note_on,192,0,2,,,,,,,,,2,,,62,0
44280,note_on,24,0,4,,,,,,,,,4,,,48,0
44280,note_on,0,0,1,,,,,,,,,1,,,75,45
44280,note_on,0,0,4,,,,,,,,,4,,,47,45
44280,note_on,24,0,1,,,,,,,,,1,,,83,0
44302,note_on,22,0,1,,,,,,,,,1,,,75,0
44304,note_on,2,0,1,,,,,,,,,1,,,75,45
44304,note_on,24,0,4,,,,,,,,,4,,,47,0
44304,note_on,0,0,4,,,,,,,,,4,,,45,45
44320,note_on,16,0,1,,,,,,,,,1,,,75,0
44328,note_on,24,0,4,,,,,,,,,4,,,45,0
44328,note_on,8,0,1,,,,,,,,,1,,,75,45
44328,note_on,0,0,4,,,,,,,,,4,,,43,45
44344,note_on,16,0,1,,,,,,,,,1,,,75,0
44350,note_on,22,0,4,,,,,,,,,4,,,43,0
44350,note_on,94,0,3,,,,,,,,,3,,,55,0
44350,note_on,94,0,2,,,,,,,,,2,,,63,0
44352,note_on,2,0,4,,,,,,,,,4,,,48,45
44352,note_on,8,0,1,,,,,,,,,1,,,78,45
44352,note_on,2,0,3,,,,,,,,,3,,,55,45
44352,note_on,2,0,2,,,,,,,,,2,,,64,45
44376,note_on,0,0,1,,,,,,,,,1,,,76,48
44376,note_on,24,0,1,,,,,,,,,1,,,78,0
44400,note_on,48,0,3,,,,,,,,,3,,,55,0
44400,note_on,24,0,1,,,,,,,,,1,,,76,0
44400,note_on,0,0,1,,,,,,,,,1,,,74,51
44400,note_on,0,0,3,,,,,,,,,3,,,56,52
44424,note_on,0,0,1,,,,,,,,,1,,,72,55
44424,note_on,24,0,1,,,,,,,,,1,,,74,0
44448,note_on,0,0,3,,,,,,,,,3,,,57,59
44448,note_on,0,0,1,,,,,,,,,1,,,71,59
44448,note_on,24,0,1,,,,,,,,,1,,,72,0
44448,note_on,48,0,3,,,,,,,,,3,,,56,0
44472,note_on,0,0,1,,,,,,,,,1,,,69,63
44472,note_on,24,0,1,,,,,,,,,1,,,71,0
44494,note_on,22,0,1,,,,,,,,,1,,,69,0
44496,note_on,48,0,3,,,,,,,,,3,,,57,0
44496,note_on,0,0,3,,,,,,,,,3,,,58,67
44496,note_on,0,0,2,,,,,,,,,2,,,67,67
44496,note_on,0,0,4,,,,,,,,,4,,,49,67
44496,note_on,144,0,2,,,,,,,,,2,,,64,0
44496,note_on,2,0,1,,,,,,,,,1,,,76,67
44496,note_on,144,0,4,,,,,,,,,4,,,48,0
44512,note_on,16,0,1,,,,,,,,,1,,,76,0
44520,note_on,8,0,1,,,,,,,,,1,,,76,71
44536,note_on,16,0,1,,,,,,,,,1,,,76,0
44542,note_on,46,0,2,,,,,,,,,2,,,67,0
44542,note_on,46,0,3,,,,,,,,,3,,,58,0
44542,note_on,46,0,4,,,,,,,,,4,,,49,0
44544,note_on,2,0,4,,,,,,,,,4,,,50,45
44544,note_on,2,0,3,,,,,,,,,3,,,59,45
44544,note_on,2,0,2,,,,,,,,,2,,,67,45
44544,note_on,8,0,1,,,,,,,,,1,,,76,45
44638,note_on,94,0,3,,,,,,,,,3,,,59,0
44640,note_on,0,0,1,,,,,,,,,1,,,67,45
44640,note_on,96,0,2,,,,,,,,,2,,,67,0
44640,note_on,96,0,1,,,,,,,,,1,,,76,0
44640,note_on,0,0,2,,,,,,,,,2,,,62,45
44640,note_on,2,0,3,,,,,,,,,3,,,59,45
44704,note_on,160,0,4,,,,,,,,,4,,,50,0
44736,note_on,0,0,2,,,,,,,,,2,,,60,45
44736,note_on,96,0,2,,,,,,,,,2,,,62,0
44736,note_on,96,0,3,,,,,,,,,3,,,59,0
44736,note_on,32,0,4,,,,,,,,,4,,,38,45
44736,note_on,0,0,3,,,,,,,,,3,,,57,45
44806,note_on,166,0,1,,,,,,,,,1,,,67,0
44808,note_on,2,0,1,,,,,,,,,1,,,69,45
44816,note_on,0,0,1,,,,,,,,,1,,,67,45
44816,note_on,8,0,1,,,,,,,,,1,,,69,0
44824,note_on,8,0,1,,,,,,,,,1,,,67,0
44824,note_on,0,0,1,,,,,,,,,1,,,66,45
44830,note_on,94,0,3,,,,,,,,,3,,,57,0
44830,note_on,94,0,2,,,,,,,,,2,,,60,0
44832,note_on,2,0,3,,,,,,,,,3,,,57,45
44832,note_on,2,0,2,,,,,,,,,2,,,60,45
44832,note_on,0,0,1,,,,,,,,,1,,,67,45
44832,note_on,8,0,1,,,,,,,,,1,,,66,0
44840,note_on,0,0,1,,,,,,,,,1,,,69,45
44840,note_on,8,0,1,,,,,,,,,1,,,67,0
44848,note_on,0,0,1,,,,,,,,,1,,,71,45
44848,note_on,8,0,1,,,,,,,,,1,,,69,0
44856,note_on,0,0,1,,,,,,,,,1,,,72,45
44856,note_on,8,0,1,,,,,,,,,1,,,71,0
44864,note_on,8,0,1,,,,,,,,,1,,,72,0
44864,note_on,0,0,1,,,,,,,,,1,,,74,45
44872,note_on,8,0,1,,,,,,,,,1,,,74,0
44872,note_on,0,0,1,,,,,,,,,1,,,76,45
44890,note_on,18,0,1,,,,,,,,,1,,,76,0
44896,note_on,160,0,4,,,,,,,,,4,,,38,0
44904,note_on,14,0,1,,,,,,,,,1,,,66,45
44926,note_on,94,0,2,,,,,,,,,2,,,60,0
44926,note_on,94,0,3,,,,,,,,,3,,,57,0
44926,note_on,22,0,1,,,,,,,,,1,,,66,0
44928,note_on,2,0,1,,,,,,,,,1,,,69,45
44928,note_on,32,0,4,,,,,,,,,4,,,43,45
44952,note_on,26,0,2,,,,,,,,,2,,,60,45
44976,note_on,0,0,2,,,,,,,,,2,,,59,45
44976,note_on,24,0,2,,,,,,,,,2,,,60,0
45000,note_on,0,0,2,,,,,,,,,2,,,60,45
45000,note_on,24,0,2,,,,,,,,,2,,,59,0
45024,note_on,98,0,3,,,,,,,,,3,,,54,45
45024,note_on,24,0,2,,,,,,,,,2,,,60,0
45024,note_on,0,0,2,,,,,,,,,2,,,59,45
45048,note_on,24,0,2,,,,,,,,,2,,,59,0
45048,note_on,0,0,2,,,,,,,,,2,,,60,45
45072,note_on,0,0,2,,,,,,,,,2,,,62,45
45072,note_on,24,0,2,,,,,,,,,2,,,60,0
45096,note_on,24,0,2,,,,,,,,,2,,,62,0
45096,note_on,0,0,2,,,,,,,,,2,,,60,45
45118,note_on,22,0,2,,,,,,,,,2,,,60,0
45120,note_on,0,0,1,,,,,,,,,1,,,67,45
45120,note_on,192,0,1,,,,,,,,,1,,,69,0
45120,note_on,96,0,3,,,,,,,,,3,,,54,0
45120,note_on,0,0,3,,,,,,,,,3,,,55,45
45120,note_on,2,0,2,,,,,,,,,2,,,59,45
45144,note_on,0,0,4,,,,,,,,,4,,,43,45
45144,note_on,216,0,4,,,,,,,,,4,,,43,0
45168,note_on,0,0,4,,,,,,,,,4,,,47,45
45168,note_on,24,0,4,,,,,,,,,4,,,43,0
45192,note_on,0,0,4,,,,,,,,,4,,,50,45
45192,note_on,24,0,4,,,,,,,,,4,,,47,0
45214,note_on,94,0,2,,,,,,,,,2,,,59,0
45214,note_on,94,0,1,,,,,,,,,1,,,67,0
45214,note_on,94,0,3,,,,,,,,,3,,,55,0
45216,note_on,0,0,4,,,,,,,,,4,,,55,45
45216,note_on,24,0,4,,,,,,,,,4,,,50,0
45240,note_on,0,0,4,,,,,,,,,4,,,47,45
45240,note_on,24,0,4,,,,,,,,,4,,,55,0
45264,note_on,0,0,4,,,,,,,,,4,,,50,45
45264,note_on,24,0,4,,,,,,,,,4,,,47,0
45288,note_on,0,0,4,,,,,,,,,4,,,55,45
45288,note_on,24,0,4,,,,,,,,,4,,,50,0
45312,note_on,0,0,4,,,,,,,,,4,,,59,45
45312,note_on,98,0,1,,,,,,,,,1,,,67,45
45312,note_on,24,0,4,,,,,,,,,4,,,55,0
45336,note_on,0,0,4,,,,,,,,,4,,,50,45
45336,note_on,24,0,4,,,,,,,,,4,,,59,0
45360,note_on,0,0,4,,,,,,,,,4,,,55,45
45360,note_on,24,0,4,,,,,,,,,4,,,50,0
45380,note_on,68,0,1,,,,,,,,,1,,,67,0
45384,note_on,0,0,4,,,,,,,,,4,,,59,45
45384,note_on,24,0,4,,,,,,,,,4,,,55,0
45408,note_on,28,0,1,,,,,,,,,1,,,67,45
45408,note_on,24,0,4,,,,,,,,,4,,,59,0
45408,note_on,0,0,4,,,,,,,,,4,,,62,45
45432,note_on,0,0,4,,,,,,,,,4,,,55,45
45432,note_on,24,0,4,,,,,,,,,4,,,62,0
45440,note_on,32,0,1,,,,,,,,,1,,,67,0
45456,note_on,0,0,4,,,,,,,,,4,,,59,45
45456,note_on,24,0,4,,,,,,,,,4,,,55,0
45480,note_on,24,0,4,,,,,,,,,4,,,59,0
45480,note_on,0,0,4,,,,,,,,,4,,,62,45
45502,note_on,22,0,4,,,,,,,,,4,,,62,0
45504,note_on,290,0,3,,,,,,,,,3,,,62,45
45504,note_on,2,0,4,,,,,,,,,4,,,65,45
45504,note_on,64,0,1,,,,,,,,,1,,,71,45
45504,note_on,290,0,2,,,,,,,,,2,,,67,45
45792,note_on,0,0,4,,,,,,,,,4,,,64,67
45792,note_on,0,0,1,,,,,,,,,1,,,72,67
45792,note_on,0,0,2,,,,,,,,,2,,,67,67
45792,note_on,288,0,3,,,,,,,,,3,,,62,0
45792,note_on,0,0,3,,,,,,,,,3,,,60,67
45792,note_on,288,0,2,,,,,,,,,2,,,67,0
45792,note_on,288,0,4,,,,,,,,,4,,,65,0
45792,note_on,288,0,1,,,,,,,,,1,,,71,0
45888,note_on,96,0,2,,,,,,,,,2,,,67,0
45888,note_on,0,0,1,,,,,,,,,1,,,74,75
45888,note_on,0,0,3,,,,,,,,,3,,,65,75
45888,note_on,96,0,3,,,,,,,,,3,,,60,0
45888,note_on,96,0,1,,,,,,,,,1,,,72,0
45888,note_on,0,0,2,,,,,,,,,2,,,67,75
45888,note_on,96,0,4,,,,,,,,,4,,,64,0
45888,note_on,0,0,4,,,,,,,,,4,,,59,75
45984,note_on,0,0,4,,,,,,,,,4,,,60,60
45984,note_on,96,0,3,,,,,,,,,3,,,65,0
45984,note_on,0,0,2,,,,,,,,,2,,,67,60
45984,note_on,0,0,3,,,,,,,,,3,,,64,60
45984,note_on,96,0,2,,,,,,,,,2,,,67,0
45984,note_on,96,0,4,,,,,,,,,4,,,59,0
45984,note_on,96,0,1,,,,,,,,,1,,,74,0
45984,note_on,0,0,1,,,,,,,,,1,,,76,60
46054,note_on,70,0,2,,,,,,,,,2,,,67,0
46056,note_on,72,0,4,,,,,,,,,4,,,60,0
46056,note_on,72,0,1,,,,,,,,,1,,,76,0
46056,note_on,0,0,1,,,,,,,,,1,,,72,49
46056,note_on,0,0,4,,,,,,,,,4,,,64,49
46056,note_on,72,0,3,,,,,,,,,3,,,64,0
46056,note_on,0,0,3,,,,,,,,,3,,,67,49
46078,note_on,22,0,1,,,,,,,,,1,,,72,0
46078,note_on,22,0,4,,,,,,,,,4,,,64,0
46078,note_on,22,0,3,,,,,,,,,3,,,67,0
46080,note_on,2,0,4,,,,,,,,,4,,,67,60
46080,note_on,26,0,2,,,,,,,,,2,,,72,45
46080,note_on,2,0,1,,,,,,,,,1,,,76,45
46176,note_on,98,0,3,,,,,,,,,3,,,55,45
46200,note_on,120,0,4,,,,,,,,,4,,,67,0
46200,note_on,0,0,4,,,,,,,,,4,,,66,45
46224,note_on,0,0,4,,,,,,,,,4,,,67,45
46224,note_on,24,0,4,,,,,,,,,4,,,66,0
46248,note_on,24,0,4,,,,,,,,,4,,,67,0
46248,note_on,0,0,4,,,,,,,,,4,,,66,45
46270,note_on,94,0,3,,,,,,,,,3,,,55,0
46272,note_on,0,0,4,,,,,,,,,4,,,67,45
46272,note_on,24,0,4,,,,,,,,,4,,,66,0
46272,note_on,0,0,1,,,,,,,,,1,,,74,45
46272,note_on,192,0,1,,,,,,,,,1,,,76,0
46272,note_on,192,0,2,,,,,,,,,2,,,72,0
46272,note_on,0,0,2,,,,,,,,,2,,,71,45
46272,note_on,2,0,3,,,,,,,,,3,,,55,45
46294,note_on,22,0,4,,,,,,,,,4,,,67,0
46296,note_on,2,0,4,,,,,,,,,4,,,43,45
46320,note_on,0,0,4,,,,,,,,,4,,,47,45
46320,note_on,24,0,4,,,,,,,,,4,,,43,0
46344,note_on,0,0,4,,,,,,,,,4,,,50,45
46344,note_on,24,0,4,,,,,,,,,4,,,47,0
46366,note_on,94,0,3,,,,,,,,,3,,,55,0
46366,note_on,94,0,1,,,,,,,,,1,,,74,0
46366,note_on,94,0,2,,,,,,,,,2,,,71,0
46368,note_on,24,0,4,,,,,,,,,4,,,50,0
46368,note_on,0,0,4,,,,,,,,,4,,,55,45
46392,note_on,24,0,4,,,,,,,,,4,,,55,0
46392,note_on,0,0,4,,,,,,,,,4,,,47,45
46416,note_on,0,0,4,,,,,,,,,4,,,50,45
46416,note_on,24,0,4,,,,,,,,,4,,,47,0
46440,note_on,24,0,4,,,,,,,,,4,,,50,0
46440,note_on,0,0,4,,,,,,,,,4,,,55,45
46464,note_on,24,0,4,,,,,,,,,4,,,55,0
46464,note_on,98,0,1,,,,,,,,,1,,,79,45
46464,note_on,0,0,4,,,,,,,,,4,,,59,45
46464,note_on,98,0,2,,,,,,,,,2,,,67,45
46488,note_on,24,0,4,,,,,,,,,4,,,59,0
46488,note_on,0,0,4,,,,,,,,,4,,,50,45
46512,note_on,24,0,4,,,,,,,,,4,,,50,0
46512,note_on,0,0,4,,,,,,,,,4,,,55,45
46532,note_on,68,0,2,,,,,,,,,2,,,67,0
46532,note_on,68,0,1,,,,,,,,,1,,,79,0
46536,note_on,24,0,4,,,,,,,,,4,,,55,0
46536,note_on,0,0,4,,,,,,,,,4,,,59,45
46560,note_on,24,0,4,,,,,,,,,4,,,59,0
46560,note_on,0,0,4,,,,,,,,,4,,,62,45
46560,note_on,28,0,2,,,,,,,,,2,,,67,45
46560,note_on,28,0,1,,,,,,,,,1,,,79,45
46584,note_on,24,0,4,,,,,,,,,4,,,62,0
46584,note_on,0,0,4,,,,,,,,,4,,,55,45
46592,note_on,32,0,2,,,,,,,,,2,,,67,0
46592,note_on,32,0,1,,,,,,,,,1,,,79,0
46608,note_on,0,0,4,,,,,,,,,4,,,59,45
46608,note_on,24,0,4,,,,,,,,,4,,,55,0
46632,note_on,0,0,4,,,,,,,,,4,,,62,45
46632,note_on,24,0,4,,,,,,,,,4,,,59,0
46654,note_on,22,0,4,,,,,,,,,4,,,62,0
46656,note_on,2,0,4,,,,,,,,,4,,,65,45
46656,note_on,64,0,2,,,,,,,,,2,,,74,45
46656,note_on,290,0,3,,,,,,,,,3,,,67,45
46656,note_on,64,0,1,,,,,,,,,1,,,83,45
46912,note_on,256,0,3,,,,,,,,,3,,,67,0
46944,note_on,0,0,1,,,,,,,,,1,,,84,68
46944,note_on,288,0,4,,,,,,,,,4,,,65,0
46944,note_on,32,0,3,,,,,,,,,3,,,67,68
46944,note_on,0,0,4,,,,,,,,,4,,,64,68
46944,note_on,288,0,2,,,,,,,,,2,,,74,0
46944,note_on,288,0,1,,,,,,,,,1,,,83,0
46944,note_on,0,0,2,,,,,,,,,2,,,72,68
47038,note_on,94,0,3,,,,,,,,,3,,,67,0
47040,note_on,0,0,2,,,,,,,,,2,,,77,76
47040,note_on,0,0,1,,,,,,,,,1,,,86,76
47040,note_on,96,0,1,,,,,,,,,1,,,84,0
47040,note_on,96,0,2,,,,,,,,,2,,,72,0
47040,note_on,0,0,4,,,,,,,,,4,,,59,76
47040,note_on,96,0,4,,,,,,,,,4,,,64,0
47040,note_on,2,0,3,,,,,,,,,3,,,67,76
47134,note_on,94,0,3,,,,,,,,,3,,,67,0
47136,note_on,96,0,1,,,,,,,,,1,,,86,0
47136,note_on,96,0,2,,,,,,,,,2,,,77,0
47136,note_on,0,0,2,,,,,,,,,2,,,76,84
47136,note_on,0,0,1,,,,,,,,,1,,,88,84
47136,note_on,2,0,3,,,,,,,,,3,,,67,84
47136,note_on,0,0,4,,,,,,,,,4,,,60,84
47136,note_on,96,0,4,,,,,,,,,4,,,59,0
47208,note_on,72,0,2,,,,,,,,,2,,,76,0
47208,note_on,0,0,1,,,,,,,,,1,,,84,90
47208,note_on,72,0,1,,,,,,,,,1,,,88,0
47208,note_on,0,0,3,,,,,,,,,3,,,64,90
47208,note_on,72,0,3,,,,,,,,,3,,,67,0
47208,note_on,0,0,2,,,,,,,,,2,,,72,90
47230,note_on,22,0,1,,,,,,,,,1,,,84,0
47230,note_on,22,0,3,,,,,,,,,3,,,64,0
47230,note_on,94,0,4,,,,,,,,,4,,,60,0
47230,note_on,22,0,2,,,,,,,,,2,,,72,0
47232,note_on,2,0,1,,,,,,,,,1,,,89,92
47232,note_on,2,0,4,,,,,,,,,4,,,55,92
47232,note_on,2,0,2,,,,,,,,,2,,,77,92
47232,note_on,2,0,3,,,,,,,,,3,,,62,92
47326,note_on,94,0,4,,,,,,,,,4,,,55,0
47326,note_on,94,0,3,,,,,,,,,3,,,62,0
47424,note_on,98,0,4,,,,,,,,,4,,,43,45
47424,note_on,98,0,3,,,,,,,,,3,,,55,45
47472,note_on,240,0,2,,,,,,,,,2,,,77,0
47472,note_on,0,0,2,,,,,,,,,2,,,74,45
47472,note_on,240,0,1,,,,,,,,,1,,,89,0
47472,note_on,0,0,1,,,,,,,,,1,,,86,45
47518,note_on,94,0,3,,,,,,,,,3,,,55,0
47520,note_on,48,0,2,,,,,,,,,2,,,74,0
47520,note_on,0,0,2,,,,,,,,,2,,,71,45
47520,note_on,48,0,1,,,,,,,,,1,,,86,0
47520,note_on,0,0,1,,,,,,,,,1,,,83,45
47568,note_on,48,0,2,,,,,,,,,2,,,71,0
47568,note_on,0,0,2,,,,,,,,,2,,,67,45
47568,note_on,48,0,1,,,,,,,,,1,,,83,0
47568,note_on,0,0,1,,,,,,,,,1,,,79,45
47616,note_on,48,0,1,,,,,,,,,1,,,79,0
47616,note_on,48,0,2,,,,,,,,,2,,,67,0
47616,note_on,0,0,1,,,,,,,,,1,,,80,45
47616,note_on,0,0,2,,,,,,,,,2,,,68,45
47640,note_on,216,0,4,,,,,,,,,4,,,43,0
47640,note_on,0,0,4,,,,,,,,,4,,,42,45
47664,note_on,0,0,1,,,,,,,,,1,,,81,45
47664,note_on,0,0,2,,,,,,,,,2,,,69,45
47664,note_on,48,0,2,,,,,,,,,2,,,68,0
47664,note_on,24,0,4,,,,,,,,,4,,,42,0
47664,note_on,0,0,4,,,,,,,,,4,,,43,45
47664,note_on,48,0,1,,,,,,,,,1,,,80,0
47688,note_on,24,0,4,,,,,,,,,4,,,43,0
47688,note_on,0,0,4,,,,,,,,,4,,,42,45
47712,note_on,0,0,2,,,,,,,,,2,,,70,45
47712,note_on,48,0,2,,,,,,,,,2,,,69,0
47712,note_on,0,0,4,,,,,,,,,4,,,43,45
47712,note_on,0,0,1,,,,,,,,,1,,,82,45
47712,note_on,24,0,4,,,,,,,,,4,,,42,0
47712,note_on,48,0,1,,,,,,,,,1,,,81,0
47736,note_on,24,0,4,,,,,,,,,4,,,43,0
47736,note_on,0,0,4,,,,,,,,,4,,,41,45
47760,note_on,24,0,4,,,,,,,,,4,,,41,0
47760,note_on,0,0,4,,,,,,,,,4,,,40,45
47760,note_on,0,0,1,,,,,,,,,1,,,83,45
47760,note_on,48,0,1,,,,,,,,,1,,,82,0
47760,note_on,48,0,2,,,,,,,,,2,,,70,0
47760,note_on,0,0,2,,,,,,,,,2,,,71,45
47784,note_on,24,0,4,,,,,,,,,4,,,40,0
47784,note_on,0,0,4,,,,,,,,,4,,,38,45
47806,note_on,46,0,2,,,,,,,,,2,,,71,0
47806,note_on,46,0,1,,,,,,,,,1,,,83,0
47808,note_on,2,0,1,,,,,,,,,1,,,84,45
47808,note_on,24,0,4,,,,,,,,,4,,,38,0
47808,note_on,0,0,4,,,,,,,,,4,,,36,45
47808,note_on,0,0,2,,,,,,,,,2,,,72,45
47808,note_on,2,0,2,,,,,,,,,2,,,64,45
47824,note_on,16,0,4,,,,,,,,,4,,,36,0
47832,note_on,8,0,4,,,,,,,,,4,,,36,45
47856,note_on,24,0,4,,,,,,,,,4,,,36,0
47856,note_on,0,0,4,,,,,,,,,4,,,40,45
47880,note_on,0,0,4,,,,,,,,,4,,,43,45
47880,note_on,24,0,4,,,,,,,,,4,,,40,0
47904,note_on,24,0,4,,,,,,,,,4,,,43,0
47904,note_on,0,0,4,,,,,,,,,4,,,48,45
47928,note_on,0,0,4,,,,,,,,,4,,,43,45
47928,note_on,24,0,4,,,,,,,,,4,,,48,0
47952,note_on,24,0,4,,,,,,,,,4,,,43,0
47952,note_on,0,0,4,,,,,,,,,4,,,40,45
47976,note_on,0,0,4,,,,,,,,,4,,,36,45
47976,note_on,24,0,4,,,,,,,,,4,,,40,0
47998,note_on,22,0,4,,,,,,,,,4,,,36,0
48000,note_on,2,0,4,,,,,,,,,4,,,48,45
48024,note_on,506,0,3,,,,,,,,,3,,,48,45
48048,note_on,24,0,3,,,,,,,,,3,,,48,0
48048,note_on,0,0,3,,,,,,,,,3,,,52,45
48072,note_on,24,0,3,,,,,,,,,3,,,52,0
48072,note_on,0,0,3,,,,,,,,,3,,,55,45
48096,note_on,0,0,1,,,,,,,,,1,,,79,45
48096,note_on,288,0,1,,,,,,,,,1,,,84,0
48096,note_on,0,0,3,,,,,,,,,3,,,60,45
48096,note_on,24,0,3,,,,,,,,,3,,,55,0
48120,note_on,0,0,3,,,,,,,,,3,,,55,45
48120,note_on,24,0,3,,,,,,,,,3,,,60,0
48144,note_on,24,0,3,,,,,,,,,3,,,55,0
48144,note_on,0,0,3,,,,,,,,,3,,,52,45
48168,note_on,0,0,3,,,,,,,,,3,,,48,45
48168,note_on,24,0,3,,,,,,,,,3,,,52,0
48190,note_on,22,0,3,,,,,,,,,3,,,48,0
48192,note_on,96,0,1,,,,,,,,,1,,,79,0
48192,note_on,0,0,1,,,,,,,,,1,,,76,45
48192,note_on,2,0,3,,,,,,,,,3,,,60,45
48214,note_on,0,0,2,,,,,,,,,2,,,72,0
48214,note_on,406,0,2,,,,,,,,,2,,,64,0
48216,note_on,2,0,2,,,,,,,,,2,,,60,45
48240,note_on,0,0,2,,,,,,,,,2,,,64,45
48240,note_on,24,0,2,,,,,,,,,2,,,60,0
48264,note_on,0,0,2,,,,,,,,,2,,,67,45
48264,note_on,24,0,2,,,,,,,,,2,,,64,0
48288,note_on,96,0,1,,,,,,,,,1,,,76,0
48288,note_on,24,0,2,,,,,,,,,2,,,67,0
48288,note_on,0,0,1,,,,,,,,,1,,,72,45
48312,note_on,24,0,2,,,,,,,,,2,,,67,45
48336,note_on,24,0,2,,,,,,,,,2,,,67,0
48336,note_on,0,0,2,,,,,,,,,2,,,64,45
48360,note_on,0,0,2,,,,,,,,,2,,,60,45
48360,note_on,24,0,2,,,,,,,,,2,,,64,0
48382,note_on,22,0,2,,,,,,,,,2,,,60,0
48382,note_on,94,0,1,,,,,,,,,1,,,72,0
48384,note_on,0,0,4,,,,,,,,,4,,,46,45
48384,note_on,2,0,2,,,,,,,,,2,,,76,45
48384,note_on,2,0,1,,,,,,,,,1,,,84,45
48384,note_on,384,0,4,,,,,,,,,4,,,48,0
48400,note_on,16,0,4,,,,,,,,,4,,,46,0
48408,note_on,8,0,4,,,,,,,,,4,,,46,45
48432,note_on,24,0,4,,,,,,,,,4,,,46,0
48432,note_on,0,0,4,,,,,,,,,4,,,52,45
48456,note_on,24,0,4,,,,,,,,,4,,,52,0
48456,note_on,0,0,4,,,,,,,,,4,,,55,45
48480,note_on,0,0,4,,,,,,,,,4,,,58,45
48480,note_on,24,0,4,,,,,,,,,4,,,55,0
48504,note_on,0,0,4,,,,,,,,,4,,,55,45
48504,note_on,24,0,4,,,,,,,,,4,,,58,0
48528,note_on,0,0,4,,,,,,,,,4,,,52,45
48528,note_on,24,0,4,,,,,,,,,4,,,55,0
48552,note_on,24,0,4,,,,,,,,,4,,,52,0
48552,note_on,0,0,4,,,,,,,,,4,,,46,45
48574,note_on,22,0,4,,,,,,,,,4,,,46,0
48576,note_on,2,0,4,,,,,,,,,4,,,58,45
48598,note_on,406,0,3,,,,,,,,,3,,,60,0
48600,note_on,2,0,3,,,,,,,,,3,,,48,45
48624,note_on,24,0,3,,,,,,,,,3,,,48,0
48624,note_on,0,0,3,,,,,,,,,3,,,52,45
48648,note_on,24,0,3,,,,,,,,,3,,,52,0
48648,note_on,0,0,3,,,,,,,,,3,,,55,45
48672,note_on,288,0,1,,,,,,,,,1,,,84,0
48672,note_on,0,0,1,,,,,,,,,1,,,79,45
48672,note_on,24,0,3,,,,,,,,,3,,,55,0
48672,note_on,0,0,3,,,,,,,,,3,,,60,45
48696,note_on,0,0,3,,,,,,,,,3,,,55,45
48696,note_on,24,0,3,,,,,,,,,3,,,60,0
48720,note_on,0,0,3,,,,,,,,,3,,,52,45
48720,note_on,24,0,3,,,,,,,,,3,,,55,0
48736,note_on,160,0,4,,,,,,,,,4,,,58,0
48744,note_on,0,0,3,,,,,,,,,3,,,48,45
48744,note_on,24,0,3,,,,,,,,,3,,,52,0
48766,note_on,22,0,3,,,,,,,,,3,,,48,0
48768,note_on,0,0,1,,,,,,,,,1,,,76,45
48768,note_on,96,0,1,,,,,,,,,1,,,79,0
48768,note_on,2,0,3,,,,,,,,,3,,,60,45
48768,note_on,32,0,4,,,,,,,,,4,,,46,45
48790,note_on,406,0,2,,,,,,,,,2,,,76,0
48792,note_on,2,0,2,,,,,,,,,2,,,60,45
48816,note_on,0,0,2,,,,,,,,,2,,,64,45
48816,note_on,24,0,2,,,,,,,,,2,,,60,0
48840,note_on,0,0,2,,,,,,,,,2,,,67,45
48840,note_on,24,0,2,,,,,,,,,2,,,64,0
48864,note_on,24,0,2,,,,,,,,,2,,,67,0
48864,note_on,0,0,1,,,,,,,,,1,,,72,45
48864,note_on,96,0,1,,,,,,,,,1,,,76,0
48888,note_on,24,0,2,,,,,,,,,2,,,67,45
48912,note_on,0,0,2,,,,,,,,,2,,,64,45
48912,note_on,24,0,2,,,,,,,,,2,,,67,0
48928,note_on,160,0,4,,,,,,,,,4,,,46,0
48936,note_on,24,0,2,,,,,,,,,2,,,64,0
48936,note_on,0,0,2,,,,,,,,,2,,,60,45
48958,note_on,94,0,1,,,,,,,,,1,,,72,0
48958,note_on,22,0,2,,,,,,,,,2,,,60,0
48960,note_on,32,0,4,,,,,,,,,4,,,45,45
48960,note_on,2,0,1,,,,,,,,,1,,,84,45
48984,note_on,26,0,2,,,,,,,,,2,,,60,45
49008,note_on,24,0,2,,,,,,,,,2,,,60,0
49008,note_on,0,0,2,,,,,,,,,2,,,65,47
49032,note_on,24,0,2,,,,,,,,,2,,,65,0
49032,note_on,0,0,2,,,,,,,,,2,,,69,50
49054,note_on,286,0,3,,,,,,,,,3,,,60,0
49056,note_on,0,0,2,,,,,,,,,2,,,72,53
49056,note_on,2,0,3,,,,,,,,,3,,,48,54
49056,note_on,0,0,3,,,,,,,,,3,,,60,54
49056,note_on,24,0,2,,,,,,,,,2,,,69,0
49080,note_on,24,0,2,,,,,,,,,2,,,72,0
49080,note_on,0,0,2,,,,,,,,,2,,,69,56
49104,note_on,0,0,2,,,,,,,,,2,,,65,59
49104,note_on,24,0,2,,,,,,,,,2,,,69,0
49120,note_on,160,0,1,,,,,,,,,1,,,84,0
49120,note_on,160,0,4,,,,,,,,,4,,,45,0
49128,note_on,0,0,2,,,,,,,,,2,,,60,62
49128,note_on,24,0,2,,,,,,,,,2,,,65,0
49150,note_on,22,0,2,,,,,,,,,2,,,60,0
49152,note_on,32,0,4,,,,,,,,,4,,,45,68
49152,note_on,32,0,1,,,,,,,,,1,,,86,68
49176,note_on,26,0,2,,,,,,,,,2,,,60,68
49200,note_on,0,0,2,,,,,,,,,2,,,65,71
49200,note_on,24,0,2,,,,,,,,,2,,,60,0
49216,note_on,0,0,3,,,,,,,,,3,,,60,0
49216,note_on,160,0,3,,,,,,,,,3,,,48,0
49224,note_on,24,0,2,,,,,,,,,2,,,65,0
49224,note_on,0,0,2,,,,,,,,,2,,,69,74
49248,note_on,24,0,2,,,,,,,,,2,,,69,0
49248,note_on,0,0,3,,,,,,,,,3,,,60,73
49248,note_on,0,0,2,,,,,,,,,2,,,72,77
49248,note_on,32,0,3,,,,,,,,,3,,,48,73
49272,note_on,24,0,2,,,,,,,,,2,,,72,0
49272,note_on,0,0,2,,,,,,,,,2,,,69,80
49296,note_on,24,0,2,,,,,,,,,2,,,69,0
49296,note_on,0,0,2,,,,,,,,,2,,,65,83
49312,note_on,160,0,4,,,,,,,,,4,,,45,0
49312,note_on,160,0,1,,,,,,,,,1,,,86,0
49320,note_on,24,0,2,,,,,,,,,2,,,65,0
49320,note_on,0,0,2,,,,,,,,,2,,,60,86
49342,note_on,22,0,2,,,,,,,,,2,,,60,0
49344,note_on,32,0,4,,,,,,,,,4,,,44,92
49344,note_on,0,0,1,,,,,,,,,1,,,87,92
49344,note_on,32,0,1,,,,,,,,,1,,,75,92
49368,note_on,26,0,2,,,,,,,,,2,,,60,92
49392,note_on,24,0,2,,,,,,,,,2,,,60,0
49392,note_on,0,0,2,,,,,,,,,2,,,72,92
49408,note_on,160,0,3,,,,,,,,,3,,,48,0
49408,note_on,0,0,3,,,,,,,,,3,,,60,0
49416,note_on,24,0,2,,,,,,,,,2,,,72,0
49416,note_on,0,0,2,,,,,,,,,2,,,60,92
49440,note_on,32,0,3,,,,,,,,,3,,,54,92
49440,note_on,24,0,2,,,,,,,,,2,,,60,0
49440,note_on,0,0,2,,,,,,,,,2,,,72,92
49464,note_on,0,0,2,,,,,,,,,2,,,60,92
49464,note_on,24,0,2,,,,,,,,,2,,,72,0
49488,note_on,24,0,2,,,,,,,,,2,,,60,0
49488,note_on,0,0,2,,,,,,,,,2,,,72,92
49504,note_on,0,0,1,,,,,,,,,1,,,87,0
49504,note_on,160,0,1,,,,,,,,,1,,,75,0
49504,note_on,160,0,4,,,,,,,,,4,,,44,0
49512,note_on,24,0,2,,,,,,,,,2,,,72,0
49512,note_on,0,0,2,,,,,,,,,2,,,60,92
49534,note_on,22,0,2,,,,,,,,,2,,,60,0
49536,note_on,32,0,1,,,,,,,,,1,,,76,92
49536,note_on,0,0,3,,,,,,,,,3,,,55,92
49536,note_on,96,0,3,,,,,,,,,3,,,54,0
49536,note_on,0,0,1,,,,,,,,,1,,,88,92
49536,note_on,32,0,4,,,,,,,,,4,,,43,92
49560,note_on,26,0,2,,,,,,,,,2,,,60,45
49584,note_on,0,0,2,,,,,,,,,2,,,64,45
49584,note_on,24,0,2,,,,,,,,,2,,,60,0
49608,note_on,24,0,2,,,,,,,,,2,,,64,0
49608,note_on,0,0,2,,,,,,,,,2,,,67,45
49630,note_on,94,0,3,,,,,,,,,3,,,55,0
49632,note_on,0,0,4,,,,,,,,,4,,,48,45
49632,note_on,96,0,4,,,,,,,,,4,,,43,0
49632,note_on,24,0,2,,,,,,,,,2,,,67,0
49632,note_on,0,0,2,,,,,,,,,2,,,72,45
49632,note_on,2,0,3,,,,,,,,,3,,,55,45
49656,note_on,24,0,2,,,,,,,,,2,,,72,0
49656,note_on,0,0,2,,,,,,,,,2,,,67,45
49680,note_on,24,0,2,,,,,,,,,2,,,67,0
49680,note_on,0,0,2,,,,,,,,,2,,,64,45
49696,note_on,160,0,1,,,,,,,,,1,,,76,0
49704,note_on,24,0,2,,,,,,,,,2,,,64,0
49704,note_on,0,0,2,,,,,,,,,2,,,60,45
49726,note_on,22,0,2,,,,,,,,,2,,,60,0
49728,note_on,0,0,3,,,,,,,,,3,,,60,45
49728,note_on,96,0,3,,,,,,,,,3,,,55,0
49728,note_on,96,0,4,,,,,,,,,4,,,48,0
49728,note_on,0,0,4,,,,,,,,,4,,,52,45
49752,note_on,26,0,2,,,,,,,,,2,,,60,45
49752,note_on,56,0,1,,,,,,,,,1,,,88,0
49752,note_on,0,0,1,,,,,,,,,1,,,87,45
49776,note_on,24,0,2,,,,,,,,,2,,,60,0
49776,note_on,24,0,1,,,,,,,,,1,,,87,0
49776,note_on,0,0,1,,,,,,,,,1,,,89,45
49776,note_on,0,0,2,,,,,,,,,2,,,64,45
49800,note_on,24,0,2,,,,,,,,,2,,,64,0
49800,note_on,0,0,1,,,,,,,,,1,,,88,45
49800,note_on,24,0,1,,,,,,,,,1,,,89,0
49800,note_on,0,0,2,,,,,,,,,2,,,67,45
49824,note_on,0,0,3,,,,,,,,,3,,,64,45
49824,note_on,0,0,4,,,,,,,,,4,,,55,45
49824,note_on,96,0,3,,,,,,,,,3,,,60,0
49824,note_on,24,0,1,,,,,,,,,1,,,88,0
49824,note_on,96,0,4,,,,,,,,,4,,,52,0
49824,note_on,0,0,1,,,,,,,,,1,,,86,45
49824,note_on,24,0,2,,,,,,,,,2,,,67,0
49824,note_on,0,0,2,,,,,,,,,2,,,72,45
49848,note_on,24,0,1,,,,,,,,,1,,,86,0
49848,note_on,24,0,2,,,,,,,,,2,,,72,0
49848,note_on,0,0,1,,,,,,,,,1,,,84,45
49848,note_on,0,0,2,,,,,,,,,2,,,67,45
49872,note_on,0,0,1,,,,,,,,,1,,,83,45
49872,note_on,24,0,1,,,,,,,,,1,,,84,0
49872,note_on,0,0,2,,,,,,,,,2,,,64,45
49872,note_on,24,0,2,,,,,,,,,2,,,67,0
49896,note_on,24,0,1,,,,,,,,,1,,,83,0
49896,note_on,0,0,2,,,,,,,,,2,,,60,45
49896,note_on,24,0,2,,,,,,,,,2,,,64,0
49896,note_on,0,0,1,,,,,,,,,1,,,81,45
49918,note_on,94,0,4,,,,,,,,,4,,,55,0
49918,note_on,22,0,2,,,,,,,,,2,,,60,0
49918,note_on,22,0,1,,,,,,,,,1,,,81,0
49920,note_on,96,0,3,,,,,,,,,3,,,64,0
49920,note_on,2,0,4,,,,,,,,,4,,,43,45
49920,note_on,0,0,3,,,,,,,,,3,,,65,45
49920,note_on,2,0,1,,,,,,,,,1,,,79,45
49944,note_on,26,0,2,,,,,,,,,2,,,59,45
49944,note_on,24,0,1,,,,,,,,,1,,,79,0
49944,note_on,0,0,1,,,,,,,,,1,,,80,45
49968,note_on,24,0,1,,,,,,,,,1,,,80,0
49968,note_on,0,0,2,,,,,,,,,2,,,62,45
49968,note_on,0,0,1,,,,,,,,,1,,,83,45
49968,note_on,24,0,2,,,,,,,,,2,,,59,0
49992,note_on,0,0,2,,,,,,,,,2,,,59,45
49992,note_on,24,0,2,,,,,,,,,2,,,62,0
49992,note_on,24,0,1,,,,,,,,,1,,,83,0
49992,note_on,0,0,1,,,,,,,,,1,,,81,45
50016,note_on,0,0,1,,,,,,,,,1,,,79,45
50016,note_on,24,0,1,,,,,,,,,1,,,81,0
50016,note_on,24,0,2,,,,,,,,,2,,,59,0
50016,note_on,0,0,2,,,,,,,,,2,,,62,45
50016,note_on,0,0,3,,,,,,,,,3,,,53,45
50016,note_on,96,0,3,,,,,,,,,3,,,65,0
50040,note_on,0,0,1,,,,,,,,,1,,,77,45
50040,note_on,24,0,1,,,,,,,,,1,,,79,0
50040,note_on,24,0,2,,,,,,,,,2,,,62,0
50040,note_on,0,0,2,,,,,,,,,2,,,59,45
50064,note_on,0,0,1,,,,,,,,,1,,,76,45
50064,note_on,24,0,2,,,,,,,,,2,,,59,0
50064,note_on,24,0,1,,,,,,,,,1,,,77,0
50064,note_on,0,0,2,,,,,,,,,2,,,62,45
50080,note_on,160,0,4,,,,,,,,,4,,,43,0
50088,note_on,24,0,1,,,,,,,,,1,,,76,0
50088,note_on,0,0,1,,,,,,,,,1,,,74,45
50088,note_on,24,0,2,,,,,,,,,2,,,62,0
50088,note_on,0,0,2,,,,,,,,,2,,,59,45
50110,note_on,94,0,3,,,,,,,,,3,,,53,0
50110,note_on,22,0,2,,,,,,,,,2,,,59,0
50110,note_on,22,0,1,,,,,,,,,1,,,74,0
50112,note_on,2,0,1,,,,,,,,,1,,,72,45
50112,note_on,2,0,3,,,,,,,,,3,,,52,45
50112,note_on,2,0,2,,,,,,,,,2,,,60,45
50112,note_on,32,0,4,,,,,,,,,4,,,48,45
50206,note_on,94,0,4,,,,,,,,,4,,,48,0
50206,note_on,94,0,1,,,,,,,,,1,,,72,0
50206,note_on,94,0,2,,,,,,,,,2,,,60,0
50206,note_on,94,0,3,,,,,,,,,3,,,52,0
50496,note_on,290,0,4,,,,,,,,,4,,,53,30
50496,note_on,290,0,1,,,,,,,,,1,,,71,30
50496,note_on,290,0,3,,,,,,,,,3,,,55,30
50496,note_on,290,0,2,,,,,,,,,2,,,62,30
50530,note_on,34,0,2,,,,,,,,,2,,,62,0
50530,note_on,34,0,1,,,,,,,,,1,,,71,0
50530,note_on,34,0,3,,,,,,,,,3,,,55,0
50530,note_on,34,0,4,,,,,,,,,4,,,53,0
50544,note_on,14,0,3,,,,,,,,,3,,,55,30
50544,note_on,14,0,4,,,,,,,,,4,,,53,30
50544,note_on,14,0,2,,,,,,,,,2,,,62,30
50544,note_on,14,0,1,,,,,,,,,1,,,71,30
50578,note_on,34,0,1,,,,,,,,,1,,,71,0
50578,note_on,34,0,3,,,,,,,,,3,,,55,0
50578,note_on,34,0,4,,,,,,,,,4,,,53,0
50578,note_on,34,0,2,,,,,,,,,2,,,62,0
50592,note_on,14,0,3,,,,,,,,,3,,,55,30
50592,note_on,14,0,1,,,,,,,,,1,,,69,30
50592,note_on,14,0,2,,,,,,,,,2,,,60,30
50592,note_on,14,0,4,,,,,,,,,4,,,53,30
50626,note_on,34,0,3,,,,,,,,,3,,,55,0
50626,note_on,34,0,4,,,,,,,,,4,,,53,0
50626,note_on,34,0,1,,,,,,,,,1,,,69,0
50626,note_on,34,0,2,,,,,,,,,2,,,60,0
50640,note_on,14,0,4,,,,,,,,,4,,,53,30
50640,note_on,14,0,1,,,,,,,,,1,,,67,30
50640,note_on,14,0,2,,,,,,,,,2,,,59,30
50640,note_on,14,0,3,,,,,,,,,3,,,55,30
50672,note_on,32,0,3,,,,,,,,,3,,,55,0
50672,note_on,32,0,1,,,,,,,,,1,,,67,0
50672,note_on,32,0,4,,,,,,,,,4,,,53,0
50672,note_on,32,0,2,,,,,,,,,2,,,59,0
50688,note_on,16,0,2,,,,,,,,,2,,,60,30
50688,note_on,16,0,1,,,,,,,,,1,,,72,30
50688,note_on,16,0,4,,,,,,,,,4,,,52,30
50688,note_on,16,0,3,,,,,,,,,3,,,55,30
50782,note_on,94,0,2,,,,,,,,,2,,,60,0
50782,note_on,94,0,1,,,,,,,,,1,,,72,0
50782,note_on,94,0,4,,,,,,,,,4,,,52,0
50782,note_on,94,0,3,,,,,,,,,3,,,55,0
51072,note_on,290,0,1,,,,,,,,,1,,,67,30
51072,note_on,290,0,3,,,,,,,,,3,,,62,30
51072,note_on,290,0,2,,,,,,,,,2,,,55,30
51072,note_on,290,0,4,,,,,,,,,4,,,47,30
51072,note_on,0,0,2,,,,,,,,,2,,,65,30
51106,note_on,34,0,3,,,,,,,,,3,,,62,0
51106,note_on,34,0,2,,,,,,,,,2,,,55,0
51106,note_on,34,0,4,,,,,,,,,4,,,47,0
51106,note_on,0,0,2,,,,,,,,,2,,,65,0
51106,note_on,34,0,1,,,,,,,,,1,,,67,0
51120,note_on,0,0,2,,,,,,,,,2,,,65,30
51120,note_on,14,0,2,,,,,,,,,2,,,55,30
51120,note_on,14,0,3,,,,,,,,,3,,,62,30
51120,note_on,14,0,1,,,,,,,,,1,,,67,30
51120,note_on,14,0,4,,,,,,,,,4,,,47,30
51154,note_on,0,0,2,,,,,,,,,2,,,65,0
51154,note_on,34,0,3,,,,,,,,,3,,,62,0
51154,note_on,34,0,1,,,,,,,,,1,,,67,0
51154,note_on,34,0,2,,,,,,,,,2,,,55,0
51154,note_on,34,0,4,,,,,,,,,4,,,47,0
51168,note_on,14,0,4,,,,,,,,,4,,,45,30
51168,note_on,14,0,2,,,,,,,,,2,,,55,30
51168,note_on,14,0,3,,,,,,,,,3,,,60,30
51168,note_on,14,0,1,,,,,,,,,1,,,67,30
51168,note_on,0,0,2,,,,,,,,,2,,,65,30
51202,note_on,34,0,3,,,,,,,,,3,,,60,0
51202,note_on,0,0,2,,,,,,,,,2,,,65,0
51202,note_on,34,0,2,,,,,,,,,2,,,55,0
51202,note_on,34,0,1,,,,,,,,,1,,,67,0
51202,note_on,34,0,4,,,,,,,,,4,,,45,0
51216,note_on,14,0,3,,,,,,,,,3,,,59,30
51216,note_on,14,0,4,,,,,,,,,4,,,43,30
51216,note_on,0,0,2,,,,,,,,,2,,,65,30
51216,note_on,14,0,2,,,,,,,,,2,,,55,30
51216,note_on,14,0,1,,,,,,,,,1,,,67,30
51248,note_on,32,0,3,,,,,,,,,3,,,59,0
51248,note_on,0,0,2,,,,,,,,,2,,,65,0
51248,note_on,32,0,2,,,,,,,,,2,,,55,0
51248,note_on,32,0,4,,,,,,,,,4,,,43,0
51248,note_on,32,0,1,,,,,,,,,1,,,67,0
51264,note_on,16,0,2,,,,,,,,,2,,,55,30
51264,note_on,0,0,2,,,,,,,,,2,,,64,30
51264,note_on,16,0,3,,,,,,,,,3,,,60,30
51264,note_on,16,0,4,,,,,,,,,4,,,48,30
51264,note_on,16,0,1,,,,,,,,,1,,,67,30
51358,note_on,94,0,2,,,,,,,,,2,,,55,0
51358,note_on,94,0,3,,,,,,,,,3,,,60,0
51358,note_on,0,0,2,,,,,,,,,2,,,64,0
51358,note_on,94,0,4,,,,,,,,,4,,,48,0
51358,note_on,94,0,1,,,,,,,,,1,,,67,0
51456,note_on,98,0,3,,,,,,,,,3,,,60,30
51490,note_on,34,0,3,,,,,,,,,3,,,60,0
51504,note_on,14,0,3,,,,,,,,,3,,,60,30
51538,note_on,34,0,3,,,,,,,,,3,,,60,0
51552,note_on,14,0,3,,,,,,,,,3,,,58,30
51586,note_on,34,0,3,,,,,,,,,3,,,58,0
51600,note_on,14,0,3,,,,,,,,,3,,,56,30
51632,note_on,32,0,3,,,,,,,,,3,,,56,0
51648,note_on,290,0,1,,,,,,,,,1,,,65,30
51648,note_on,290,0,4,,,,,,,,,4,,,48,30
51648,note_on,290,0,2,,,,,,,,,2,,,60,30
51648,note_on,16,0,3,,,,,,,,,3,,,56,30
51682,note_on,34,0,2,,,,,,,,,2,,,60,0
51682,note_on,34,0,1,,,,,,,,,1,,,65,0
51682,note_on,34,0,4,,,,,,,,,4,,,48,0
51682,note_on,34,0,3,,,,,,,,,3,,,56,0
51696,note_on,14,0,1,,,,,,,,,1,,,65,33
51696,note_on,14,0,4,,,,,,,,,4,,,48,33
51696,note_on,14,0,3,,,,,,,,,3,,,56,33
51696,note_on,14,0,2,,,,,,,,,2,,,60,33
51730,note_on,34,0,4,,,,,,,,,4,,,48,0
51730,note_on,34,0,1,,,,,,,,,1,,,65,0
51730,note_on,34,0,3,,,,,,,,,3,,,56,0
51730,note_on,34,0,2,,,,,,,,,2,,,60,0
51744,note_on,14,0,2,,,,,,,,,2,,,64,37
51744,note_on,14,0,3,,,,,,,,,3,,,55,37
51744,note_on,14,0,4,,,,,,,,,4,,,48,37
51744,note_on,14,0,1,,,,,,,,,1,,,67,37
51778,note_on,34,0,2,,,,,,,,,2,,,64,0
51778,note_on,34,0,4,,,,,,,,,4,,,48,0
51778,note_on,34,0,3,,,,,,,,,3,,,55,0
51778,note_on,34,0,1,,,,,,,,,1,,,67,0
51792,note_on,14,0,3,,,,,,,,,3,,,53,41
51792,note_on,14,0,4,,,,,,,,,4,,,48,41
51792,note_on,14,0,1,,,,,,,,,1,,,68,41
51792,note_on,14,0,2,,,,,,,,,2,,,65,41
51824,note_on,32,0,4,,,,,,,,,4,,,48,0
51824,note_on,32,0,3,,,,,,,,,3,,,53,0
51824,note_on,32,0,1,,,,,,,,,1,,,68,0
51824,note_on,32,0,2,,,,,,,,,2,,,65,0
51840,note_on,16,0,2,,,,,,,,,2,,,64,45
51840,note_on,16,0,1,,,,,,,,,1,,,67,45
51840,note_on,16,0,3,,,,,,,,,3,,,60,45
51840,note_on,16,0,4,,,,,,,,,4,,,48,45
51934,note_on,94,0,4,,,,,,,,,4,,,48,0
51934,note_on,94,0,1,,,,,,,,,1,,,67,0
51934,note_on,94,0,3,,,,,,,,,3,,,60,0
51934,note_on,94,0,2,,,,,,,,,2,,,64,0
52032,note_on,98,0,4,,,,,,,,,4,,,48,45
52066,note_on,34,0,4,,,,,,,,,4,,,48,0
52080,note_on,14,0,4,,,,,,,,,4,,,48,45
52114,note_on,34,0,4,,,,,,,,,4,,,48,0
52128,note_on,14,0,4,,,,,,,,,4,,,46,45
52162,note_on,34,0,4,,,,,,,,,4,,,46,0
52176,note_on,14,0,4,,,,,,,,,4,,,44,45
52208,note_on,32,0,4,,,,,,,,,4,,,44,0
52224,note_on,290,0,1,,,,,,,,,1,,,60,45
52224,note_on,290,0,3,,,,,,,,,3,,,53,45
52224,note_on,16,0,4,,,,,,,,,4,,,44,45
52258,note_on,34,0,4,,,,,,,,,4,,,44,0
52258,note_on,34,0,1,,,,,,,,,1,,,60,0
52258,note_on,34,0,3,,,,,,,,,3,,,53,0
52272,note_on,14,0,4,,,,,,,,,4,,,44,48
52272,note_on,14,0,1,,,,,,,,,1,,,60,48
52272,note_on,14,0,3,,,,,,,,,3,,,53,48
52306,note_on,34,0,4,,,,,,,,,4,,,44,0
52306,note_on,34,0,1,,,,,,,,,1,,,60,0
52306,note_on,34,0,3,,,,,,,,,3,,,53,0
52320,note_on,14,0,1,,,,,,,,,1,,,60,52
52320,note_on,386,0,2,,,,,,,,,2,,,55,52
52320,note_on,14,0,4,,,,,,,,,4,,,43,52
52320,note_on,14,0,3,,,,,,,,,3,,,52,52
52354,note_on,34,0,2,,,,,,,,,2,,,55,0
52354,note_on,34,0,1,,,,,,,,,1,,,60,0
52354,note_on,34,0,4,,,,,,,,,4,,,43,0
52354,note_on,34,0,3,,,,,,,,,3,,,52,0
52368,note_on,14,0,3,,,,,,,,,3,,,53,56
52368,note_on,14,0,1,,,,,,,,,1,,,60,56
52368,note_on,14,0,4,,,,,,,,,4,,,41,56
52368,note_on,14,0,2,,,,,,,,,2,,,56,56
52400,note_on,32,0,1,,,,,,,,,1,,,60,0
52400,note_on,32,0,2,,,,,,,,,2,,,56,0
52400,note_on,32,0,4,,,,,,,,,4,,,41,0
52400,note_on,32,0,3,,,,,,,,,3,,,53,0
52416,note_on,16,0,2,,,,,,,,,2,,,55,45
52416,note_on,16,0,4,,,,,,,,,4,,,48,45
52416,note_on,16,0,3,,,,,,,,,3,,,52,45
52416,note_on,16,0,1,,,,,,,,,1,,,60,45
52510,note_on,94,0,3,,,,,,,,,3,,,52,0
52510,note_on,94,0,1,,,,,,,,,1,,,60,0
52510,note_on,94,0,2,,,,,,,,,2,,,55,0
52510,note_on,94,0,4,,,,,,,,,4,,,48,0
52800,note_on,290,0,3,,,,,,,,,3,,,52,30
52800,note_on,290,0,1,,,,,,,,,1,,,60,30
52800,note_on,290,0,4,,,,,,,,,4,,,36,30
52800,note_on,290,0,2,,,,,,,,,2,,,55,30
52966,note_on,166,0,4,,,,,,,,,4,,,36,0
52966,note_on,166,0,1,,,,,,,,,1,,,60,0
52966,note_on,166,0,3,,,,,,,,,3,,,52,0
52966,note_on,166,0,2,,,,,,,,,2,,,55,0
52968,note_on,2,0,2,,,,,,,,,2,,,55,30
52968,note_on,2,0,3,,,,,,,,,3,,,52,30
52968,note_on,2,0,1,,,,,,,,,1,,,60,30
52968,note_on,2,0,4,,,,,,,,,4,,,36,30
52990,note_on,22,0,2,,,,,,,,,2,,,55,0
52990,note_on,22,0,4,,,,,,,,,4,,,36,0
52990,note_on,22,0,3,,,,,,,,,3,,,52,0
52990,note_on,22,0,1,,,,,,,,,1,,,60,0
52992,note_on,2,0,4,,,,,,,,,4,,,36,30
52992,note_on,2,0,3,,,,,,,,,3,,,52,30
52992,note_on,2,0,2,,,,,,,,,2,,,55,30
52992,note_on,2,0,1,,,,,,,,,1,,,60,30
53712,note_on,720,0,2,,,,,,,,,2,,,55,0
53712,end_of_track,0,1,3,,,,,,,,,,,,,
53712,note_on,720,0,3,,,,,,,,,3,,,52,0
53712,note_on,720,0,1,,,,,,,,,1,,,60,0
53712,note_on,720,0,4,,,,,,,,,4,,,36,0
53712,end_of_track,0,1,2,,,,,,,,,,,,,
53712,end_of_track,0,1,4,,,,,,,,,,,,,
53760,control_change,48,0,1,,,,,,,,,1,7,0,,
53760,note_on,0,0,1,,,,,,,,,1,,,71,60
54480,note_on,720,0,1,,,,,,,,,1,,,71,0
54480,end_of_track,0,1,1,,,,,,,,,,,,,
