tick,type,time,meta,track,numerator,denominator,clocks_per_click,notated_32nd_notes_per_beat,key,tempo,port,program,channel,control,value,pitch,note,velocity
0,track_name,0,1,0,,,,,,,,,,,,,,
0,track_name,0,1,5,,,,,,,,,,,,,,
0,program_change,0,0,5,,,,,,,,60,4,,,,,
0,control_change,0,0,5,,,,,,,,,4,7,127,,,
0,control_change,0,0,5,,,,,,,,,4,10,30,,,
0,midi_port,0,1,6,,,,,,,0,,,,,,,
0,track_name,0,1,6,,,,,,,,,,,,,,
0,program_change,0,0,6,,,,,,,,60,5,,,,,
0,control_change,0,0,6,,,,,,,,,5,7,127,,,
0,control_change,0,0,6,,,,,,,,,5,10,40,,,
0,midi_port,0,1,7,,,,,,,0,,,,,,,
0,track_name,0,1,7,,,,,,,,,,,,,,
0,program_change,0,0,7,,,,,,,,48,10,,,,,
0,control_change,0,0,7,,,,,,,,,10,7,127,,,
0,control_change,0,0,7,,,,,,,,,10,10,24,,,
0,control_change,0,0,7,,,,,,,,,10,121,0,,,
0,midi_port,0,1,5,,,,,,,0,,,,,,,
0,control_change,0,0,4,,,,,,,,,3,10,80,,,
0,control_change,0,0,4,,,,,,,,,3,7,127,,,
0,program_change,0,0,4,,,,,,,,70,3,,,,,
0,program_change,0,0,1,,,,,,,,73,0,,,,,
0,control_change,0,0,1,,,,,,,,,0,7,127,,,
0,control_change,0,0,1,,,,,,,,,0,10,50,,,
0,control_change,0,0,1,,,,,,,,,0,121,0,,,
0,midi_port,0,1,2,,,,,,,0,,,,,,,
0,track_name,0,1,2,,,,,,,,,,,,,,
0,program_change,0,0,2,,,,,,,,68,1,,,,,
0,track_name,0,1,17,,,,,,,,,,,,,,
0,control_change,0,0,2,,,,,,,,,1,7,127,,,
0,midi_port,0,1,3,,,,,,,0,,,,,,,
0,track_name,0,1,3,,,,,,,,,,,,,,
0,program_change,0,0,3,,,,,,,,71,2,,,,,
0,control_change,0,0,3,,,,,,,,,2,7,127,,,
0,control_change,0,0,3,,,,,,,,,2,10,70,,,
0,midi_port,0,1,4,,,,,,,0,,,,,,,
0,track_name,0,1,4,,,,,,,,,,,,,,
0,control_change,0,0,2,,,,,,,,,1,10,60,,,
0,track_name,0,1,1,,,,,,,,,,,,,,
0,midi_port,0,1,8,,,,,,,0,,,,,,,
0,program_change,0,0,8,,,,,,,,48,11,,,,,
0,control_change,0,0,12,,,,,,,,,14,7,127,,,
0,control_change,0,0,12,,,,,,,,,14,10,127,,,
0,midi_port,0,1,13,,,,,,,0,,,,,,,
0,track_name,0,1,13,,,,,,,,,,,,,,
0,end_of_track,0,1,13,,,,,,,,,,,,,,
0,midi_port,0,1,14,,,,,,,0,,,,,,,
0,track_name,0,1,14,,,,,,,,,,,,,,
0,end_of_track,0,1,14,,,,,,,,,,,,,,
0,midi_port,0,1,15,,,,,,,0,,,,,,,
0,track_name,0,1,15,,,,,,,,,,,,,,
0,end_of_track,0,1,15,,,,,,,,,,,,,,
0,midi_port,0,1,16,,,,,,,0,,,,,,,
0,track_name,0,1,16,,,,,,,,,,,,,,
0,end_of_track,0,1,16,,,,,,,,,,,,,,
0,midi_port,0,1,17,,,,,,,0,,,,,,,
0,program_change,0,0,12,,,,,,,,48,14,,,,,
0,track_name,0,1,12,,,,,,,,,,,,,,
0,midi_port,0,1,12,,,,,,,0,,,,,,,
0,control_change,0,0,11,,,,,,,,,13,10,100,,,
0,control_change,0,0,8,,,,,,,,,11,7,127,,,
0,control_change,0,0,8,,,,,,,,,11,10,60,,,
0,midi_port,0,1,9,,,,,,,0,,,,,,,
0,track_name,0,1,9,,,,,,,,,,,,,,
0,program_change,0,0,9,,,,,,,,48,12,,,,,
0,control_change,0,0,9,,,,,,,,,12,7,127,,,
0,control_change,0,0,9,,,,,,,,,12,10,40,,,
0,track_name,0,1,8,,,,,,,,,,,,,,
0,midi_port,0,1,10,,,,,,,0,,,,,,,
0,program_change,0,0,10,,,,,,,,48,6,,,,,
0,control_change,0,0,10,,,,,,,,,6,7,127,,,
0,control_change,0,0,10,,,,,,,,,6,10,95,,,
0,midi_port,0,1,11,,,,,,,0,,,,,,,
0,track_name,0,1,11,,,,,,,,,,,,,,
0,program_change,0,0,11,,,,,,,,48,13,,,,,
0,control_change,0,0,11,,,,,,,,,13,7,127,,,
0,track_name,0,1,10,,,,,,,,,,,,,,
0,midi_port,0,1,1,,,,,,,0,,,,,,,
0,end_of_track,0,1,17,,,,,,,,,,,,,,
0,text,0,1,0,,,,,,,,,,,,,,
0,text,0,1,0,,,,,,,,,,,,,,
0,text,0,1,0,,,,,,,,,,,,,,
0,track_name,0,1,0,,,,,,,,,,,,,,
0,copyright,0,1,0,,,,,,,,,,,,,,
0,text,0,1,0,,,,,,,,,,,,,,
0,text,0,1,0,,,,,,,,,,,,,,
0,text,0,1,0,,,,,,,,,,,,,,
0,text,0,1,0,,,,,,,,,,,,,,
0,text,0,1,0,,,,,,,,,,,,,,
0,text,0,1,0,,,,,,,,,,,,,,
0,text,0,1,0,,,,,,,,,,,,,,
0,text,0,1,0,,,,,,,,,,,,,,
0,text,0,1,0,,,,,,,,,,,,,,
0,text,0,1,0,,,,,,,,,,,,,,
0,text,0,1,0,,,,,,,,,,,,,,
0,text,0,1,0,,,,,,,,,,,,,,
0,text,0,1,0,,,,,,,,,,,,,,
0,set_tempo,0,1,0,,,,,,250000,,,,,,,,
0,text,0,1,0,,,,,,,,,,,,,,
0,marker,0,1,0,,,,,,,,,,,,,,
0,time_signature,0,1,0,12,8,12,8,,,,,,,,,,
0,key_signature,0,1,0,,,,,Bb,,,,,,,,,
2,control_change,2,0,2,,,,,,,,,1,121,0,,,
2,control_change,2,0,8,,,,,,,,,11,121,0,,,
2,control_change,2,0,9,,,,,,,,,12,121,0,,,
3,control_change,3,0,5,,,,,,,,,4,121,0,,,
3,control_change,3,0,3,,,,,,,,,2,121,0,,,
4,control_change,4,0,10,,,,,,,,,6,121,0,,,
5,control_change,5,0,11,,,,,,,,,13,121,0,,,
5,control_change,5,0,4,,,,,,,,,3,121,0,,,
5,program_change,5,0,7,,,,,,,,48,10,,,,,
5,control_change,5,0,6,,,,,,,,,5,121,0,,,
5,program_change,5,0,1,,,,,,,,73,0,,,,,
7,program_change,5,0,2,,,,,,,,68,1,,,,,
7,program_change,5,0,9,,,,,,,,48,12,,,,,
7,program_change,5,0,8,,,,,,,,48,11,,,,,
8,program_change,5,0,3,,,,,,,,71,2,,,,,
8,program_change,5,0,5,,,,,,,,60,4,,,,,
8,control_change,8,0,12,,,,,,,,,14,121,0,,,
9,program_change,5,0,10,,,,,,,,42,6,,,,,
10,program_change,5,0,6,,,,,,,,60,5,,,,,
10,pitchwheel,5,0,7,,,,,,,,,10,,,-200,,
10,pitchwheel,5,0,1,,,,,,,,,0,,,0,,
10,program_change,5,0,11,,,,,,,,45,13,,,,,
10,program_change,5,0,4,,,,,,,,70,3,,,,,
12,pitchwheel,5,0,9,,,,,,,,,12,,,-350,,
12,pitchwheel,5,0,2,,,,,,,,,1,,,0,,
12,pitchwheel,5,0,8,,,,,,,,,11,,,200,,
13,pitchwheel,5,0,3,,,,,,,,,2,,,0,,
13,pitchwheel,5,0,5,,,,,,,,,4,,,-150,,
13,program_change,5,0,12,,,,,,,,45,14,,,,,
14,pitchwheel,5,0,10,,,,,,,,,6,,,0,,
15,control_change,5,0,7,,,,,,,,,10,11,27,,,
15,pitchwheel,5,0,6,,,,,,,,,5,,,150,,
15,pitchwheel,5,0,4,,,,,,,,,3,,,0,,
15,pitchwheel,5,0,11,,,,,,,,,13,,,300,,
15,control_change,5,0,1,,,,,,,,,0,11,47,,,
17,control_change,5,0,9,,,,,,,,,12,11,27,,,
17,control_change,5,0,8,,,,,,,,,11,11,27,,,
17,control_change,5,0,2,,,,,,,,,1,11,47,,,
18,control_change,5,0,5,,,,,,,,,4,11,42,,,
18,pitchwheel,5,0,12,,,,,,,,,14,,,0,,
18,control_change,5,0,3,,,,,,,,,2,11,47,,,
19,control_change,5,0,10,,,,,,,,,6,11,27,,,
20,control_change,5,0,1,,,,,,,,,0,10,50,,,
20,control_change,5,0,6,,,,,,,,,5,11,42,,,
20,control_change,5,0,7,,,,,,,,,10,10,24,,,
20,control_change,5,0,4,,,,,,,,,3,11,47,,,
20,control_change,5,0,11,,,,,,,,,13,11,57,,,
22,control_change,5,0,2,,,,,,,,,1,10,60,,,
22,control_change,5,0,8,,,,,,,,,11,10,60,,,
22,control_change,5,0,9,,,,,,,,,12,10,40,,,
23,control_change,5,0,3,,,,,,,,,2,10,70,,,
23,control_change,5,0,5,,,,,,,,,4,10,30,,,
23,control_change,5,0,12,,,,,,,,,14,11,30,,,
24,control_change,5,0,10,,,,,,,,,6,10,95,,,
25,control_change,5,0,7,,,,,,,,,10,7,127,,,
25,control_change,5,0,11,,,,,,,,,13,10,100,,,
25,control_change,5,0,1,,,,,,,,,0,7,127,,,
25,control_change,5,0,6,,,,,,,,,5,10,40,,,
25,control_change,5,0,4,,,,,,,,,3,10,80,,,
27,control_change,5,0,2,,,,,,,,,1,7,127,,,
27,control_change,5,0,9,,,,,,,,,12,7,127,,,
27,control_change,5,0,8,,,,,,,,,11,7,127,,,
28,control_change,5,0,3,,,,,,,,,2,7,127,,,
28,control_change,5,0,5,,,,,,,,,4,7,127,,,
28,control_change,5,0,12,,,,,,,,,14,10,127,,,
29,control_change,5,0,10,,,,,,,,,6,7,127,,,
30,control_change,5,0,11,,,,,,,,,13,7,127,,,
30,control_change,5,0,1,,,,,,,,,0,91,30,,,
30,control_change,5,0,7,,,,,,,,,10,91,30,,,
30,control_change,5,0,6,,,,,,,,,5,7,127,,,
30,control_change,5,0,4,,,,,,,,,3,7,127,,,
32,control_change,5,0,8,,,,,,,,,11,91,30,,,
32,control_change,5,0,9,,,,,,,,,12,91,20,,,
32,control_change,5,0,2,,,,,,,,,1,91,30,,,
33,control_change,5,0,12,,,,,,,,,14,7,127,,,
33,control_change,5,0,5,,,,,,,,,4,91,40,,,
33,control_change,5,0,3,,,,,,,,,2,91,30,,,
34,control_change,5,0,10,,,,,,,,,6,91,100,,,
35,control_change,5,0,11,,,,,,,,,13,91,20,,,
35,control_change,5,0,4,,,,,,,,,3,91,25,,,
35,control_change,5,0,6,,,,,,,,,5,91,40,,,
35,control_change,5,0,1,,,,,,,,,0,93,15,,,
35,control_change,5,0,7,,,,,,,,,10,93,15,,,
37,control_change,5,0,9,,,,,,,,,12,93,10,,,
37,control_change,5,0,2,,,,,,,,,1,93,15,,,
37,control_change,5,0,8,,,,,,,,,11,93,15,,,
38,control_change,5,0,12,,,,,,,,,14,91,10,,,
38,control_change,5,0,5,,,,,,,,,4,93,20,,,
38,control_change,5,0,3,,,,,,,,,2,93,15,,,
39,control_change,5,0,10,,,,,,,,,6,93,5,,,
40,control_change,5,0,4,,,,,,,,,3,93,15,,,
40,control_change,5,0,11,,,,,,,,,13,93,15,,,
40,control_change,5,0,1,,,,,,,,,0,1,10,,,
40,control_change,5,0,7,,,,,,,,,10,1,20,,,
40,control_change,5,0,6,,,,,,,,,5,93,20,,,
42,control_change,5,0,9,,,,,,,,,12,1,20,,,
42,control_change,5,0,2,,,,,,,,,1,1,20,,,
42,control_change,5,0,8,,,,,,,,,11,1,20,,,
43,control_change,5,0,5,,,,,,,,,4,1,0,,,
43,control_change,5,0,3,,,,,,,,,2,1,0,,,
43,control_change,5,0,12,,,,,,,,,14,93,5,,,
44,control_change,5,0,10,,,,,,,,,6,1,30,,,
45,control_change,5,0,4,,,,,,,,,3,1,0,,,
45,control_change,5,0,6,,,,,,,,,5,1,0,,,
45,control_change,5,0,11,,,,,,,,,13,1,20,,,
48,control_change,5,0,12,,,,,,,,,14,1,20,,,
720,set_tempo,720,1,0,,,,,,1034483,,,,,,,,
720,control_change,680,0,7,,,,,,,,,10,11,27,,,
720,note_on,0,0,7,,,,,,,,,10,,,,70,81
722,note_on,0,0,8,,,,,,,,,11,,,,58,78
722,note_on,0,0,9,,,,,,,,,12,,,,58,76
722,control_change,680,0,8,,,,,,,,,11,11,27,,,
722,control_change,680,0,9,,,,,,,,,12,11,27,,,
723,note_on,680,0,5,,,,,,,,,4,,,,58,82
724,control_change,680,0,10,,,,,,,,,6,11,27,,,
724,note_on,0,0,10,,,,,,,,,6,,,,46,62
725,note_on,0,0,11,,,,,,,,,13,,,,46,37
725,note_on,680,0,6,,,,,,,,,5,,,,46,82
725,control_change,680,0,11,,,,,,,,,13,11,100,,,
728,note_on,0,0,12,,,,,,,,,14,,,,34,30
728,control_change,680,0,12,,,,,,,,,14,11,100,,,
729,control_change,9,0,7,,,,,,,,,10,11,30,,,
731,control_change,9,0,8,,,,,,,,,11,11,30,,,
731,control_change,9,0,9,,,,,,,,,12,11,30,,,
733,control_change,9,0,10,,,,,,,,,6,11,30,,,
738,control_change,9,0,7,,,,,,,,,10,11,33,,,
740,control_change,9,0,9,,,,,,,,,12,11,33,,,
740,control_change,9,0,8,,,,,,,,,11,11,33,,,
742,control_change,9,0,10,,,,,,,,,6,11,33,,,
747,control_change,9,0,7,,,,,,,,,10,11,36,,,
749,control_change,9,0,9,,,,,,,,,12,11,36,,,
749,control_change,9,0,8,,,,,,,,,11,11,36,,,
751,control_change,9,0,10,,,,,,,,,6,11,36,,,
756,control_change,9,0,7,,,,,,,,,10,11,39,,,
758,control_change,9,0,8,,,,,,,,,11,11,39,,,
758,control_change,9,0,9,,,,,,,,,12,11,39,,,
760,control_change,9,0,10,,,,,,,,,6,11,39,,,
765,control_change,9,0,7,,,,,,,,,10,11,42,,,
767,control_change,9,0,8,,,,,,,,,11,11,42,,,
767,control_change,9,0,9,,,,,,,,,12,11,42,,,
769,control_change,9,0,10,,,,,,,,,6,11,42,,,
774,control_change,9,0,7,,,,,,,,,10,11,45,,,
776,control_change,9,0,8,,,,,,,,,11,11,45,,,
776,control_change,9,0,9,,,,,,,,,12,11,45,,,
778,control_change,9,0,10,,,,,,,,,6,11,45,,,
780,set_tempo,60,1,0,,,,,,937500,,,,,,,,
782,note_on,0,0,9,,,,,,,,,12,,,,62,72
782,note_on,6,0,9,,,,,,,,,12,,,,58,0
782,note_on,0,0,8,,,,,,,,,11,,,,65,74
782,note_on,6,0,8,,,,,,,,,11,,,,58,0
784,note_on,0,0,10,,,,,,,,,6,,,,50,58
784,note_on,0,0,10,,,,,,,,,6,,,,53,58
784,note_on,6,0,10,,,,,,,,,6,,,,46,0
837,note_on,55,0,8,,,,,,,,,11,,,,65,0
837,note_on,55,0,9,,,,,,,,,12,,,,62,0
839,note_on,55,0,10,,,,,,,,,6,,,,53,0
839,note_on,0,0,10,,,,,,,,,6,,,,50,0
840,note_on,66,0,7,,,,,,,,,10,,,,70,0
842,note_on,5,0,9,,,,,,,,,12,,,,62,76
842,note_on,5,0,8,,,,,,,,,11,,,,65,78
844,note_on,5,0,10,,,,,,,,,6,,,,53,62
844,note_on,0,0,10,,,,,,,,,6,,,,50,62
845,note_on,120,0,11,,,,,,,,,13,,,,46,0
848,note_on,120,0,12,,,,,,,,,14,,,,34,0
900,set_tempo,120,1,0,,,,,,1034483,,,,,,,,
902,note_on,0,0,8,,,,,,,,,11,,,,67,83
902,note_on,60,0,8,,,,,,,,,11,,,,65,0
902,note_on,0,0,9,,,,,,,,,12,,,,63,80
902,note_on,60,0,9,,,,,,,,,12,,,,62,0
904,note_on,60,0,10,,,,,,,,,6,,,,50,0
904,note_on,0,0,10,,,,,,,,,6,,,,53,0
904,note_on,0,0,10,,,,,,,,,6,,,,51,66
904,note_on,0,0,10,,,,,,,,,6,,,,55,66
960,set_tempo,60,1,0,,,,,,937500,,,,,,,,
962,note_on,0,0,8,,,,,,,,,11,,,,65,74
962,note_on,60,0,8,,,,,,,,,11,,,,67,0
962,note_on,0,0,9,,,,,,,,,12,,,,62,72
962,note_on,60,0,9,,,,,,,,,12,,,,63,0
964,note_on,0,0,10,,,,,,,,,6,,,,53,58
964,note_on,0,0,10,,,,,,,,,6,,,,51,0
964,note_on,60,0,10,,,,,,,,,6,,,,55,0
964,note_on,0,0,10,,,,,,,,,6,,,,50,58
1017,note_on,55,0,9,,,,,,,,,12,,,,62,0
1017,note_on,55,0,8,,,,,,,,,11,,,,65,0
1019,note_on,55,0,10,,,,,,,,,6,,,,53,0
1019,note_on,0,0,10,,,,,,,,,6,,,,50,0
1022,note_on,5,0,9,,,,,,,,,12,,,,62,76
1022,note_on,5,0,8,,,,,,,,,11,,,,65,78
1024,note_on,5,0,10,,,,,,,,,6,,,,50,62
1024,note_on,0,0,10,,,,,,,,,6,,,,53,62
1080,set_tempo,120,1,0,,,,,,1034483,,,,,,,,
1082,note_on,60,0,9,,,,,,,,,12,,,,62,0
1082,note_on,0,0,8,,,,,,,,,11,,,,63,83
1082,note_on,60,0,8,,,,,,,,,11,,,,65,0
1082,note_on,0,0,9,,,,,,,,,12,,,,60,80
1084,note_on,60,0,10,,,,,,,,,6,,,,53,0
1084,note_on,0,0,10,,,,,,,,,6,,,,48,66
1084,note_on,0,0,10,,,,,,,,,6,,,,51,66
1084,note_on,0,0,10,,,,,,,,,6,,,,50,0
1140,set_tempo,60,1,0,,,,,,937500,,,,,,,,
1142,note_on,0,0,9,,,,,,,,,12,,,,58,72
1142,note_on,60,0,8,,,,,,,,,11,,,,63,0
1142,note_on,0,0,8,,,,,,,,,11,,,,62,74
1142,note_on,60,0,9,,,,,,,,,12,,,,60,0
1144,note_on,0,0,10,,,,,,,,,6,,,,51,0
1144,note_on,0,0,10,,,,,,,,,6,,,,50,58
1144,note_on,0,0,10,,,,,,,,,6,,,,46,58
1144,note_on,60,0,10,,,,,,,,,6,,,,48,0
1197,note_on,55,0,8,,,,,,,,,11,,,,62,0
1197,note_on,55,0,9,,,,,,,,,12,,,,58,0
1199,note_on,55,0,10,,,,,,,,,6,,,,46,0
1199,note_on,0,0,10,,,,,,,,,6,,,,50,0
1202,note_on,5,0,9,,,,,,,,,12,,,,58,76
1202,note_on,5,0,8,,,,,,,,,11,,,,62,78
1204,note_on,5,0,10,,,,,,,,,6,,,,50,62
1204,note_on,0,0,10,,,,,,,,,6,,,,46,62
1260,set_tempo,120,1,0,,,,,,1034483,,,,,,,,
1262,note_on,60,0,8,,,,,,,,,11,,,,62,0
1262,note_on,0,0,8,,,,,,,,,11,,,,60,83
1262,note_on,60,0,9,,,,,,,,,12,,,,58,0
1262,note_on,0,0,9,,,,,,,,,12,,,,57,80
1264,note_on,0,0,10,,,,,,,,,6,,,,41,66
1264,note_on,0,0,10,,,,,,,,,6,,,,50,0
1264,note_on,60,0,10,,,,,,,,,6,,,,46,0
1264,note_on,0,0,10,,,,,,,,,6,,,,48,66
1320,note_on,480,0,7,,,,,,,,,10,,,,70,97
1320,set_tempo,60,1,0,,,,,,937500,,,,,,,,
1322,note_on,60,0,8,,,,,,,,,11,,,,60,0
1322,note_on,60,0,9,,,,,,,,,12,,,,57,0
1322,note_on,0,0,9,,,,,,,,,12,,,,58,72
1322,note_on,0,0,8,,,,,,,,,11,,,,58,74
1324,note_on,0,0,10,,,,,,,,,6,,,,41,0
1324,note_on,0,0,10,,,,,,,,,6,,,,50,58
1324,note_on,0,0,10,,,,,,,,,6,,,,46,58
1324,note_on,60,0,10,,,,,,,,,6,,,,48,0
1350,note_on,0,0,7,,,,,,,,,10,,,,72,116
1350,note_on,30,0,7,,,,,,,,,10,,,,70,0
1377,note_on,55,0,8,,,,,,,,,11,,,,58,0
1377,note_on,55,0,9,,,,,,,,,12,,,,58,0
1379,note_on,55,0,10,,,,,,,,,6,,,,46,0
1379,note_on,0,0,10,,,,,,,,,6,,,,50,0
1380,note_on,30,0,7,,,,,,,,,10,,,,72,0
1380,note_on,0,0,7,,,,,,,,,10,,,,74,116
1382,note_on,5,0,8,,,,,,,,,11,,,,58,78
1382,note_on,5,0,9,,,,,,,,,12,,,,58,76
1384,note_on,5,0,10,,,,,,,,,6,,,,46,62
1384,note_on,0,0,10,,,,,,,,,6,,,,50,62
1410,note_on,30,0,7,,,,,,,,,10,,,,74,0
1410,note_on,0,0,7,,,,,,,,,10,,,,72,118
1435,note_on,25,0,7,,,,,,,,,10,,,,72,0
1438,note_on,715,0,5,,,,,,,,,4,,,,58,0
1439,note_on,57,0,9,,,,,,,,,12,,,,58,0
1439,note_on,57,0,8,,,,,,,,,11,,,,58,0
1440,note_on,5,0,7,,,,,,,,,10,,,,72,118
1440,set_tempo,120,1,0,,,,,,1034483,,,,,,,,
1440,marker,0,1,0,,,,,,,,,,,,,,
1440,note_on,715,0,6,,,,,,,,,5,,,,46,0
1441,note_on,0,0,10,,,,,,,,,6,,,,46,0
1441,note_on,57,0,10,,,,,,,,,6,,,,50,0
1442,note_on,3,0,8,,,,,,,,,11,,,,58,83
1442,note_on,3,0,9,,,,,,,,,12,,,,58,80
1443,note_on,5,0,5,,,,,,,,,4,,,,58,82
1444,note_on,0,0,10,,,,,,,,,6,,,,46,66
1444,note_on,3,0,10,,,,,,,,,6,,,,50,66
1445,note_on,600,0,11,,,,,,,,,13,,,,46,43
1445,note_on,5,0,6,,,,,,,,,5,,,,46,82
1448,note_on,600,0,12,,,,,,,,,14,,,,34,36
1500,note_on,0,0,7,,,,,,,,,10,,,,70,112
1500,note_on,60,0,7,,,,,,,,,10,,,,72,0
1500,set_tempo,60,1,0,,,,,,937500,,,,,,,,
1502,note_on,0,0,8,,,,,,,,,11,,,,65,74
1502,note_on,60,0,8,,,,,,,,,11,,,,58,0
1502,note_on,60,0,9,,,,,,,,,12,,,,58,0
1502,note_on,0,0,9,,,,,,,,,12,,,,62,72
1504,note_on,0,0,10,,,,,,,,,6,,,,50,0
1504,note_on,60,0,10,,,,,,,,,6,,,,46,0
1504,note_on,0,0,10,,,,,,,,,6,,,,53,58
1504,note_on,0,0,10,,,,,,,,,6,,,,50,58
1557,note_on,55,0,9,,,,,,,,,12,,,,62,0
1557,note_on,55,0,8,,,,,,,,,11,,,,65,0
1559,note_on,55,0,10,,,,,,,,,6,,,,50,0
1559,note_on,0,0,10,,,,,,,,,6,,,,53,0
1560,control_change,60,0,7,,,,,,,,,10,11,47,,,
1562,note_on,5,0,8,,,,,,,,,11,,,,65,78
1562,note_on,5,0,9,,,,,,,,,12,,,,62,76
1564,note_on,5,0,10,,,,,,,,,6,,,,53,62
1564,note_on,0,0,10,,,,,,,,,6,,,,50,62
1565,note_on,120,0,11,,,,,,,,,13,,,,46,0
1568,note_on,120,0,12,,,,,,,,,14,,,,34,0
1571,control_change,11,0,7,,,,,,,,,10,11,44,,,
1583,control_change,12,0,7,,,,,,,,,10,11,41,,,
1595,control_change,12,0,7,,,,,,,,,10,11,38,,,
1607,control_change,12,0,7,,,,,,,,,10,11,35,,,
1619,control_change,12,0,7,,,,,,,,,10,11,32,,,
1620,set_tempo,120,1,0,,,,,,1034483,,,,,,,,
1620,note_on,1,0,7,,,,,,,,,10,,,,70,0
1622,note_on,0,0,8,,,,,,,,,11,,,,67,83
1622,note_on,60,0,9,,,,,,,,,12,,,,62,0
1622,note_on,0,0,9,,,,,,,,,12,,,,63,80
1622,note_on,60,0,8,,,,,,,,,11,,,,65,0
1624,note_on,0,0,10,,,,,,,,,6,,,,55,66
1624,note_on,0,0,10,,,,,,,,,6,,,,53,0
1624,note_on,60,0,10,,,,,,,,,6,,,,50,0
1624,note_on,0,0,10,,,,,,,,,6,,,,51,66
1680,set_tempo,60,1,0,,,,,,937500,,,,,,,,
1682,note_on,60,0,9,,,,,,,,,12,,,,63,0
1682,note_on,0,0,9,,,,,,,,,12,,,,62,72
1682,note_on,60,0,8,,,,,,,,,11,,,,67,0
1682,note_on,0,0,8,,,,,,,,,11,,,,65,74
1684,note_on,0,0,10,,,,,,,,,6,,,,55,0
1684,note_on,0,0,10,,,,,,,,,6,,,,53,58
1684,note_on,0,0,10,,,,,,,,,6,,,,50,58
1684,note_on,60,0,10,,,,,,,,,6,,,,51,0
1737,note_on,55,0,8,,,,,,,,,11,,,,65,0
1737,note_on,55,0,9,,,,,,,,,12,,,,62,0
1739,note_on,0,0,10,,,,,,,,,6,,,,50,0
1739,note_on,55,0,10,,,,,,,,,6,,,,53,0
1742,note_on,5,0,8,,,,,,,,,11,,,,65,78
1742,note_on,5,0,9,,,,,,,,,12,,,,62,76
1744,note_on,5,0,10,,,,,,,,,6,,,,50,62
1744,note_on,0,0,10,,,,,,,,,6,,,,53,62
1800,set_tempo,120,1,0,,,,,,1034483,,,,,,,,
1802,note_on,0,0,8,,,,,,,,,11,,,,63,83
1802,note_on,0,0,9,,,,,,,,,12,,,,60,80
1802,note_on,60,0,9,,,,,,,,,12,,,,62,0
1802,note_on,60,0,8,,,,,,,,,11,,,,65,0
1804,note_on,0,0,10,,,,,,,,,6,,,,48,66
1804,note_on,60,0,10,,,,,,,,,6,,,,53,0
1804,note_on,0,0,10,,,,,,,,,6,,,,50,0
1804,note_on,0,0,10,,,,,,,,,6,,,,51,66
1860,set_tempo,60,1,0,,,,,,937500,,,,,,,,
1862,note_on,60,0,8,,,,,,,,,11,,,,63,0
1862,note_on,0,0,8,,,,,,,,,11,,,,62,74
1862,note_on,60,0,9,,,,,,,,,12,,,,60,0
1862,note_on,0,0,9,,,,,,,,,12,,,,58,72
1864,note_on,60,0,10,,,,,,,,,6,,,,48,0
1864,note_on,0,0,10,,,,,,,,,6,,,,50,58
1864,note_on,0,0,10,,,,,,,,,6,,,,51,0
1864,note_on,0,0,10,,,,,,,,,6,,,,46,58
1917,note_on,55,0,8,,,,,,,,,11,,,,62,0
1917,note_on,55,0,9,,,,,,,,,12,,,,58,0
1919,note_on,0,0,10,,,,,,,,,6,,,,50,0
1919,note_on,55,0,10,,,,,,,,,6,,,,46,0
1922,note_on,5,0,9,,,,,,,,,12,,,,58,76
1922,note_on,5,0,8,,,,,,,,,11,,,,62,78
1924,note_on,5,0,10,,,,,,,,,6,,,,46,62
1924,note_on,0,0,10,,,,,,,,,6,,,,50,62
1980,set_tempo,120,1,0,,,,,,1034483,,,,,,,,
1982,note_on,60,0,9,,,,,,,,,12,,,,58,0
1982,note_on,0,0,8,,,,,,,,,11,,,,60,83
1982,note_on,60,0,8,,,,,,,,,11,,,,62,0
1982,note_on,0,0,9,,,,,,,,,12,,,,57,80
1984,note_on,0,0,10,,,,,,,,,6,,,,41,66
1984,note_on,0,0,10,,,,,,,,,6,,,,46,0
1984,note_on,0,0,10,,,,,,,,,6,,,,48,66
1984,note_on,60,0,10,,,,,,,,,6,,,,50,0
2040,note_on,0,0,7,,,,,,,,,10,,,,70,100
2040,control_change,420,0,7,,,,,,,,,10,11,47,,,
2040,set_tempo,60,1,0,,,,,,937500,,,,,,,,
2042,note_on,0,0,9,,,,,,,,,12,,,,58,72
2042,note_on,0,0,8,,,,,,,,,11,,,,62,74
2042,note_on,60,0,8,,,,,,,,,11,,,,60,0
2042,note_on,60,0,9,,,,,,,,,12,,,,57,0
2044,note_on,0,0,10,,,,,,,,,6,,,,46,58
2044,note_on,0,0,10,,,,,,,,,6,,,,50,58
2044,note_on,0,0,10,,,,,,,,,6,,,,41,0
2044,note_on,60,0,10,,,,,,,,,6,,,,48,0
2070,note_on,0,0,7,,,,,,,,,10,,,,72,120
2070,note_on,30,0,7,,,,,,,,,10,,,,70,0
2097,note_on,55,0,9,,,,,,,,,12,,,,58,0
2097,note_on,55,0,8,,,,,,,,,11,,,,62,0
2099,note_on,0,0,10,,,,,,,,,6,,,,50,0
2099,note_on,55,0,10,,,,,,,,,6,,,,46,0
2100,note_on,30,0,7,,,,,,,,,10,,,,72,0
2100,note_on,0,0,7,,,,,,,,,10,,,,74,120
2102,note_on,5,0,8,,,,,,,,,11,,,,62,78
2102,note_on,5,0,9,,,,,,,,,12,,,,58,76
2104,note_on,5,0,10,,,,,,,,,6,,,,46,62
2104,note_on,0,0,10,,,,,,,,,6,,,,50,62
2130,note_on,0,0,7,,,,,,,,,10,,,,70,120
2130,note_on,30,0,7,,,,,,,,,10,,,,74,0
2155,note_on,25,0,7,,,,,,,,,10,,,,70,0
2158,note_on,715,0,5,,,,,,,,,4,,,,58,0
2159,note_on,57,0,8,,,,,,,,,11,,,,62,0
2159,note_on,57,0,9,,,,,,,,,12,,,,58,0
2160,note_on,5,0,7,,,,,,,,,10,,,,69,120
2160,note_on,715,0,6,,,,,,,,,5,,,,46,0
2160,set_tempo,120,1,0,,,,,,1034483,,,,,,,,
2161,note_on,0,0,10,,,,,,,,,6,,,,46,0
2161,note_on,57,0,10,,,,,,,,,6,,,,50,0
2162,note_on,3,0,8,,,,,,,,,11,,,,63,83
2162,note_on,3,0,9,,,,,,,,,12,,,,57,80
2163,note_on,5,0,5,,,,,,,,,4,,,,53,82
2164,note_on,0,0,10,,,,,,,,,6,,,,41,66
2164,note_on,3,0,10,,,,,,,,,6,,,,48,66
2165,note_on,5,0,6,,,,,,,,,5,,,,41,82
2165,note_on,600,0,11,,,,,,,,,13,,,,41,43
2168,note_on,600,0,12,,,,,,,,,14,,,,29,36
2170,note_on,10,0,7,,,,,,,,,10,,,,69,0
2170,note_on,0,0,7,,,,,,,,,10,,,,70,120
2180,note_on,10,0,7,,,,,,,,,10,,,,70,0
2180,note_on,0,0,7,,,,,,,,,10,,,,72,120
2190,note_on,0,0,7,,,,,,,,,10,,,,70,120
2190,note_on,10,0,7,,,,,,,,,10,,,,72,0
2220,note_on,30,0,7,,,,,,,,,10,,,,70,0
2220,set_tempo,60,1,0,,,,,,937500,,,,,,,,
2220,note_on,0,0,7,,,,,,,,,10,,,,69,115
2222,note_on,0,0,8,,,,,,,,,11,,,,63,74
2222,note_on,60,0,8,,,,,,,,,11,,,,63,0
2222,note_on,60,0,9,,,,,,,,,12,,,,57,0
2222,note_on,0,0,9,,,,,,,,,12,,,,60,72
2224,note_on,0,0,10,,,,,,,,,6,,,,48,0
2224,note_on,0,0,10,,,,,,,,,6,,,,48,58
2224,note_on,0,0,10,,,,,,,,,6,,,,51,58
2224,note_on,60,0,10,,,,,,,,,6,,,,41,0
2277,note_on,55,0,8,,,,,,,,,11,,,,63,0
2277,note_on,55,0,9,,,,,,,,,12,,,,60,0
2279,note_on,55,0,10,,,,,,,,,6,,,,51,0
2279,note_on,0,0,10,,,,,,,,,6,,,,48,0
2280,control_change,60,0,7,,,,,,,,,10,11,47,,,
2282,note_on,5,0,8,,,,,,,,,11,,,,63,78
2282,note_on,5,0,9,,,,,,,,,12,,,,60,76
2284,note_on,0,0,10,,,,,,,,,6,,,,48,62
2284,note_on,5,0,10,,,,,,,,,6,,,,51,62
2285,note_on,120,0,11,,,,,,,,,13,,,,41,0
2288,note_on,120,0,12,,,,,,,,,14,,,,29,0
2291,control_change,11,0,7,,,,,,,,,10,11,44,,,
2303,control_change,12,0,7,,,,,,,,,10,11,41,,,
2315,control_change,12,0,7,,,,,,,,,10,11,38,,,
2327,control_change,12,0,7,,,,,,,,,10,11,35,,,
2339,note_on,57,0,8,,,,,,,,,11,,,,63,0
2339,control_change,12,0,7,,,,,,,,,10,11,32,,,
2339,note_on,57,0,9,,,,,,,,,12,,,,60,0
2340,note_on,1,0,7,,,,,,,,,10,,,,69,0
2340,set_tempo,120,1,0,,,,,,1034483,,,,,,,,
2341,note_on,57,0,10,,,,,,,,,6,,,,48,0
2341,note_on,0,0,10,,,,,,,,,6,,,,51,0
2342,note_on,3,0,9,,,,,,,,,12,,,,62,80
2342,note_on,3,0,8,,,,,,,,,11,,,,65,83
2344,note_on,0,0,10,,,,,,,,,6,,,,53,66
2344,note_on,3,0,10,,,,,,,,,6,,,,50,66
2400,set_tempo,60,1,0,,,,,,937500,,,,,,,,
2402,note_on,0,0,9,,,,,,,,,12,,,,60,72
2402,note_on,60,0,9,,,,,,,,,12,,,,62,0
2402,note_on,0,0,8,,,,,,,,,11,,,,63,74
2402,note_on,60,0,8,,,,,,,,,11,,,,65,0
2404,note_on,0,0,10,,,,,,,,,6,,,,51,58
2404,note_on,0,0,10,,,,,,,,,6,,,,48,58
2404,note_on,0,0,10,,,,,,,,,6,,,,50,0
2404,note_on,60,0,10,,,,,,,,,6,,,,53,0
2457,note_on,55,0,9,,,,,,,,,12,,,,60,0
2457,note_on,55,0,8,,,,,,,,,11,,,,63,0
2459,note_on,0,0,10,,,,,,,,,6,,,,48,0
2459,note_on,55,0,10,,,,,,,,,6,,,,51,0
2462,note_on,5,0,9,,,,,,,,,12,,,,60,76
2462,note_on,5,0,8,,,,,,,,,11,,,,63,78
2464,note_on,5,0,10,,,,,,,,,6,,,,48,62
2464,note_on,0,0,10,,,,,,,,,6,,,,51,62
2520,set_tempo,120,1,0,,,,,,1034483,,,,,,,,
2522,note_on,60,0,8,,,,,,,,,11,,,,63,0
2522,note_on,60,0,9,,,,,,,,,12,,,,60,0
2522,note_on,0,0,9,,,,,,,,,12,,,,58,80
2522,note_on,0,0,8,,,,,,,,,11,,,,62,83
2524,note_on,0,0,10,,,,,,,,,6,,,,48,0
2524,note_on,60,0,10,,,,,,,,,6,,,,51,0
2524,note_on,0,0,10,,,,,,,,,6,,,,50,66
2524,note_on,0,0,10,,,,,,,,,6,,,,46,66
2580,set_tempo,60,1,0,,,,,,937500,,,,,,,,
2582,note_on,60,0,9,,,,,,,,,12,,,,58,0
2582,note_on,0,0,9,,,,,,,,,12,,,,57,72
2582,note_on,0,0,8,,,,,,,,,11,,,,60,74
2582,note_on,60,0,8,,,,,,,,,11,,,,62,0
2584,note_on,0,0,10,,,,,,,,,6,,,,46,0
2584,note_on,60,0,10,,,,,,,,,6,,,,50,0
2584,note_on,0,0,10,,,,,,,,,6,,,,45,58
2584,note_on,0,0,10,,,,,,,,,6,,,,48,58
2637,note_on,55,0,9,,,,,,,,,12,,,,57,0
2637,note_on,55,0,8,,,,,,,,,11,,,,60,0
2639,note_on,55,0,10,,,,,,,,,6,,,,48,0
2639,note_on,0,0,10,,,,,,,,,6,,,,45,0
2642,note_on,5,0,9,,,,,,,,,12,,,,57,76
2642,note_on,5,0,8,,,,,,,,,11,,,,60,78
2644,note_on,5,0,10,,,,,,,,,6,,,,45,62
2644,note_on,0,0,10,,,,,,,,,6,,,,48,62
2700,set_tempo,120,1,0,,,,,,1034483,,,,,,,,
2702,note_on,0,0,9,,,,,,,,,12,,,,55,80
2702,note_on,0,0,8,,,,,,,,,11,,,,58,83
2702,note_on,60,0,8,,,,,,,,,11,,,,60,0
2702,note_on,60,0,9,,,,,,,,,12,,,,57,0
2704,note_on,0,0,10,,,,,,,,,6,,,,46,66
2704,note_on,0,0,10,,,,,,,,,6,,,,43,66
2704,note_on,0,0,10,,,,,,,,,6,,,,45,0
2704,note_on,60,0,10,,,,,,,,,6,,,,48,0
2760,note_on,0,0,7,,,,,,,,,10,,,,72,104
2760,control_change,420,0,7,,,,,,,,,10,11,47,,,
2760,set_tempo,60,1,0,,,,,,937500,,,,,,,,
2762,note_on,0,0,9,,,,,,,,,12,,,,57,72
2762,note_on,60,0,9,,,,,,,,,12,,,,55,0
2762,note_on,60,0,8,,,,,,,,,11,,,,58,0
2762,note_on,0,0,8,,,,,,,,,11,,,,60,74
2764,note_on,60,0,10,,,,,,,,,6,,,,46,0
2764,note_on,0,0,10,,,,,,,,,6,,,,48,58
2764,note_on,0,0,10,,,,,,,,,6,,,,41,58
2764,note_on,0,0,10,,,,,,,,,6,,,,43,0
2790,note_on,0,0,7,,,,,,,,,10,,,,74,124
2790,note_on,30,0,7,,,,,,,,,10,,,,72,0
2817,note_on,55,0,8,,,,,,,,,11,,,,60,0
2817,note_on,55,0,9,,,,,,,,,12,,,,57,0
2819,note_on,0,0,10,,,,,,,,,6,,,,48,0
2819,note_on,55,0,10,,,,,,,,,6,,,,41,0
2820,note_on,0,0,7,,,,,,,,,10,,,,75,124
2820,note_on,30,0,7,,,,,,,,,10,,,,74,0
2822,note_on,5,0,9,,,,,,,,,12,,,,57,76
2822,note_on,5,0,8,,,,,,,,,11,,,,60,78
2824,note_on,0,0,10,,,,,,,,,6,,,,41,62
2824,note_on,5,0,10,,,,,,,,,6,,,,48,62
2850,note_on,0,0,7,,,,,,,,,10,,,,74,124
2850,note_on,30,0,7,,,,,,,,,10,,,,75,0
2875,note_on,25,0,7,,,,,,,,,10,,,,74,0
2878,note_on,715,0,5,,,,,,,,,4,,,,53,0
2879,note_on,57,0,9,,,,,,,,,12,,,,57,0
2879,note_on,57,0,8,,,,,,,,,11,,,,60,0
2880,set_tempo,120,1,0,,,,,,1034483,,,,,,,,
2880,note_on,715,0,6,,,,,,,,,5,,,,41,0
2880,note_on,5,0,7,,,,,,,,,10,,,,74,114
2881,note_on,57,0,10,,,,,,,,,6,,,,41,0
2881,note_on,0,0,10,,,,,,,,,6,,,,48,0
2882,note_on,3,0,9,,,,,,,,,12,,,,57,80
2882,note_on,3,0,8,,,,,,,,,11,,,,60,83
2883,note_on,5,0,5,,,,,,,,,4,,,,53,82
2884,note_on,3,0,10,,,,,,,,,6,,,,48,66
2884,note_on,0,0,10,,,,,,,,,6,,,,41,66
2885,note_on,600,0,11,,,,,,,,,13,,,,41,43
2885,note_on,5,0,6,,,,,,,,,5,,,,41,82
2888,note_on,600,0,12,,,,,,,,,14,,,,29,36
2940,set_tempo,60,1,0,,,,,,937500,,,,,,,,
2940,note_on,0,0,7,,,,,,,,,10,,,,72,107
2940,note_on,60,0,7,,,,,,,,,10,,,,74,0
2942,note_on,60,0,9,,,,,,,,,12,,,,57,0
2942,note_on,60,0,8,,,,,,,,,11,,,,60,0
2942,note_on,0,0,8,,,,,,,,,11,,,,63,74
2942,note_on,0,0,9,,,,,,,,,12,,,,60,72
2944,note_on,60,0,10,,,,,,,,,6,,,,41,0
2944,note_on,0,0,10,,,,,,,,,6,,,,48,58
2944,note_on,0,0,10,,,,,,,,,6,,,,51,58
2944,note_on,0,0,10,,,,,,,,,6,,,,48,0
2997,note_on,55,0,8,,,,,,,,,11,,,,63,0
2997,note_on,55,0,9,,,,,,,,,12,,,,60,0
2999,note_on,55,0,10,,,,,,,,,6,,,,48,0
2999,note_on,0,0,10,,,,,,,,,6,,,,51,0
3000,control_change,60,0,7,,,,,,,,,10,11,47,,,
3002,note_on,5,0,8,,,,,,,,,11,,,,63,78
3002,note_on,5,0,9,,,,,,,,,12,,,,60,76
3004,note_on,5,0,10,,,,,,,,,6,,,,48,62
3004,note_on,0,0,10,,,,,,,,,6,,,,51,62
3005,note_on,120,0,11,,,,,,,,,13,,,,41,0
3008,note_on,120,0,12,,,,,,,,,14,,,,29,0
3011,control_change,11,0,7,,,,,,,,,10,11,44,,,
3023,control_change,12,0,7,,,,,,,,,10,11,41,,,
3035,control_change,12,0,7,,,,,,,,,10,11,38,,,
3047,control_change,12,0,7,,,,,,,,,10,11,35,,,
3059,note_on,57,0,9,,,,,,,,,12,,,,60,0
3059,note_on,57,0,8,,,,,,,,,11,,,,63,0
3059,control_change,12,0,7,,,,,,,,,10,11,32,,,
3060,note_on,1,0,7,,,,,,,,,10,,,,72,0
3060,set_tempo,120,1,0,,,,,,1034483,,,,,,,,
3061,note_on,57,0,10,,,,,,,,,6,,,,51,0
3061,note_on,0,0,10,,,,,,,,,6,,,,48,0
3062,note_on,3,0,9,,,,,,,,,12,,,,62,80
3062,note_on,3,0,8,,,,,,,,,11,,,,65,83
3064,note_on,3,0,10,,,,,,,,,6,,,,53,66
3064,note_on,0,0,10,,,,,,,,,6,,,,50,66
3120,set_tempo,60,1,0,,,,,,937500,,,,,,,,
3122,note_on,0,0,9,,,,,,,,,12,,,,60,72
3122,note_on,60,0,8,,,,,,,,,11,,,,65,0
3122,note_on,60,0,9,,,,,,,,,12,,,,62,0
3122,note_on,0,0,8,,,,,,,,,11,,,,63,74
3124,note_on,60,0,10,,,,,,,,,6,,,,50,0
3124,note_on,0,0,10,,,,,,,,,6,,,,48,58
3124,note_on,0,0,10,,,,,,,,,6,,,,51,58
3124,note_on,0,0,10,,,,,,,,,6,,,,53,0
3177,note_on,55,0,9,,,,,,,,,12,,,,60,0
3177,note_on,55,0,8,,,,,,,,,11,,,,63,0
3179,note_on,55,0,10,,,,,,,,,6,,,,51,0
3179,note_on,0,0,10,,,,,,,,,6,,,,48,0
3182,note_on,5,0,8,,,,,,,,,11,,,,63,78
3182,note_on,5,0,9,,,,,,,,,12,,,,60,76
3184,note_on,5,0,10,,,,,,,,,6,,,,51,62
3184,note_on,0,0,10,,,,,,,,,6,,,,48,62
3240,set_tempo,120,1,0,,,,,,1034483,,,,,,,,
3242,note_on,60,0,9,,,,,,,,,12,,,,60,0
3242,note_on,0,0,9,,,,,,,,,12,,,,58,80
3242,note_on,0,0,8,,,,,,,,,11,,,,62,83
3242,note_on,60,0,8,,,,,,,,,11,,,,63,0
3244,note_on,0,0,10,,,,,,,,,6,,,,51,0
3244,note_on,0,0,10,,,,,,,,,6,,,,46,66
3244,note_on,0,0,10,,,,,,,,,6,,,,50,66
3244,note_on,60,0,10,,,,,,,,,6,,,,48,0
3300,set_tempo,60,1,0,,,,,,937500,,,,,,,,
3302,note_on,60,0,8,,,,,,,,,11,,,,62,0
3302,note_on,0,0,9,,,,,,,,,12,,,,57,72
3302,note_on,60,0,9,,,,,,,,,12,,,,58,0
3302,note_on,0,0,8,,,,,,,,,11,,,,60,74
3304,note_on,0,0,10,,,,,,,,,6,,,,45,58
3304,note_on,0,0,10,,,,,,,,,6,,,,48,58
3304,note_on,0,0,10,,,,,,,,,6,,,,50,0
3304,note_on,60,0,10,,,,,,,,,6,,,,46,0
3357,note_on,55,0,8,,,,,,,,,11,,,,60,0
3357,note_on,55,0,9,,,,,,,,,12,,,,57,0
3359,note_on,0,0,10,,,,,,,,,6,,,,48,0
3359,note_on,55,0,10,,,,,,,,,6,,,,45,0
3362,note_on,5,0,8,,,,,,,,,11,,,,60,78
3362,note_on,5,0,9,,,,,,,,,12,,,,57,76
3364,note_on,0,0,10,,,,,,,,,6,,,,45,62
3364,note_on,5,0,10,,,,,,,,,6,,,,48,62
3420,set_tempo,120,1,0,,,,,,1034483,,,,,,,,
3422,note_on,0,0,8,,,,,,,,,11,,,,58,83
3422,note_on,60,0,9,,,,,,,,,12,,,,57,0
3422,note_on,0,0,9,,,,,,,,,12,,,,55,80
3422,note_on,60,0,8,,,,,,,,,11,,,,60,0
3424,note_on,60,0,10,,,,,,,,,6,,,,45,0
3424,note_on,0,0,10,,,,,,,,,6,,,,43,66
3424,note_on,0,0,10,,,,,,,,,6,,,,46,66
3424,note_on,0,0,10,,,,,,,,,6,,,,48,0
3480,set_tempo,60,1,0,,,,,,975610,,,,,,,,
3480,control_change,420,0,7,,,,,,,,,10,11,47,,,
3480,note_on,0,0,7,,,,,,,,,10,,,,72,105
3482,note_on,60,0,9,,,,,,,,,12,,,,55,0
3482,note_on,0,0,9,,,,,,,,,12,,,,57,72
3482,note_on,0,0,8,,,,,,,,,11,,,,60,74
3482,note_on,60,0,8,,,,,,,,,11,,,,58,0
3484,note_on,0,0,10,,,,,,,,,6,,,,43,0
3484,note_on,60,0,10,,,,,,,,,6,,,,46,0
3484,note_on,0,0,10,,,,,,,,,6,,,,41,58
3484,note_on,0,0,10,,,,,,,,,6,,,,48,58
3485,note_on,480,0,11,,,,,,,,,13,,,,53,43
3488,note_on,480,0,12,,,,,,,,,14,,,,41,36
3537,note_on,55,0,9,,,,,,,,,12,,,,57,0
3537,note_on,55,0,8,,,,,,,,,11,,,,60,0
3539,note_on,0,0,10,,,,,,,,,6,,,,48,0
3539,note_on,55,0,10,,,,,,,,,6,,,,41,0
3540,note_on,0,0,7,,,,,,,,,10,,,,74,115
3540,note_on,60,0,7,,,,,,,,,10,,,,72,0
3540,set_tempo,60,1,0,,,,,,1100917,,,,,,,,
3542,note_on,5,0,8,,,,,,,,,11,,,,60,78
3542,note_on,5,0,9,,,,,,,,,12,,,,57,76
3544,note_on,5,0,10,,,,,,,,,6,,,,51,62
3544,note_on,0,0,10,,,,,,,,,6,,,,48,62
3545,note_on,0,0,11,,,,,,,,,13,,,,51,43
3545,note_on,60,0,11,,,,,,,,,13,,,,53,0
3548,note_on,0,0,12,,,,,,,,,14,,,,39,36
3548,note_on,60,0,12,,,,,,,,,14,,,,41,0
3570,note_on,30,0,7,,,,,,,,,10,,,,74,0
3570,note_on,0,0,7,,,,,,,,,10,,,,75,115
3595,note_on,25,0,7,,,,,,,,,10,,,,75,0
3598,note_on,715,0,5,,,,,,,,,4,,,,53,0
3600,note_on,715,0,6,,,,,,,,,5,,,,41,0
3600,control_change,5,0,7,,,,,,,,,10,11,47,,,
3600,note_on,0,0,7,,,,,,,,,10,,,,77,115
3600,set_tempo,60,1,0,,,,,,1034483,,,,,,,,
3602,note_on,0,0,8,,,,,,,,,11,,,,62,70
3602,control_change,0,0,9,,,,,,,,,12,11,47,,,
3602,note_on,60,0,8,,,,,,,,,11,,,,60,0
3602,note_on,0,0,9,,,,,,,,,12,,,,58,68
3602,note_on,60,0,9,,,,,,,,,12,,,,57,0
3602,control_change,0,0,8,,,,,,,,,11,11,47,,,
3603,control_change,5,0,5,,,,,,,,,4,11,42,,,
3603,note_on,0,0,5,,,,,,,,,4,,,,58,82
3603,control_change,3560,0,3,,,,,,,,,2,11,47,,,
3603,note_on,0,0,3,,,,,,,,,2,,,,70,96
3604,note_on,0,0,10,,,,,,,,,6,,,,50,55
3604,control_change,0,0,10,,,,,,,,,6,11,47,,,
3604,note_on,60,0,10,,,,,,,,,6,,,,48,0
3604,note_on,0,0,10,,,,,,,,,6,,,,46,55
3604,note_on,0,0,10,,,,,,,,,6,,,,51,0
3605,note_on,60,0,11,,,,,,,,,13,,,,51,0
3605,note_on,0,0,11,,,,,,,,,13,,,,50,43
3605,control_change,0,0,6,,,,,,,,,5,11,42,,,
3605,note_on,5,0,6,,,,,,,,,5,,,,46,82
3608,note_on,60,0,12,,,,,,,,,14,,,,39,0
3608,note_on,0,0,12,,,,,,,,,14,,,,38,36
3618,control_change,18,0,7,,,,,,,,,10,11,48,,,
3620,control_change,18,0,9,,,,,,,,,12,11,48,,,
3620,control_change,18,0,8,,,,,,,,,11,11,48,,,
3622,control_change,18,0,10,,,,,,,,,6,11,48,,,
3623,control_change,20,0,3,,,,,,,,,2,11,48,,,
3623,control_change,20,0,5,,,,,,,,,4,11,43,,,
3625,control_change,20,0,6,,,,,,,,,5,11,43,,,
3632,note_on,0,0,8,,,,,,,,,11,,,,58,70
3632,note_on,12,0,8,,,,,,,,,11,,,,62,0
3632,note_on,0,0,9,,,,,,,,,12,,,,53,68
3632,note_on,12,0,9,,,,,,,,,12,,,,58,0
3634,note_on,0,0,10,,,,,,,,,6,,,,38,55
3634,note_on,0,0,10,,,,,,,,,6,,,,46,55
3634,note_on,12,0,10,,,,,,,,,6,,,,46,0
3634,note_on,0,0,10,,,,,,,,,6,,,,50,0
3636,control_change,18,0,7,,,,,,,,,10,11,49,,,
3638,control_change,6,0,8,,,,,,,,,11,11,49,,,
3638,control_change,6,0,9,,,,,,,,,12,11,49,,,
3640,control_change,6,0,10,,,,,,,,,6,11,49,,,
3644,control_change,21,0,5,,,,,,,,,4,11,44,,,
3644,control_change,21,0,3,,,,,,,,,2,11,49,,,
3646,control_change,21,0,6,,,,,,,,,5,11,44,,,
3654,control_change,18,0,7,,,,,,,,,10,11,50,,,
3656,control_change,18,0,8,,,,,,,,,11,11,50,,,
3656,control_change,18,0,9,,,,,,,,,12,11,50,,,
3658,control_change,18,0,10,,,,,,,,,6,11,50,,,
3660,set_tempo,60,1,0,,,,,,937500,,,,,,,,
3662,note_on,0,0,8,,,,,,,,,11,,,,62,70
3662,note_on,6,0,9,,,,,,,,,12,,,,53,0
3662,note_on,6,0,8,,,,,,,,,11,,,,58,0
3662,note_on,0,0,9,,,,,,,,,12,,,,58,68
3664,control_change,20,0,3,,,,,,,,,2,11,50,,,
3664,control_change,20,0,5,,,,,,,,,4,11,45,,,
3664,note_on,6,0,10,,,,,,,,,6,,,,46,0
3664,note_on,0,0,10,,,,,,,,,6,,,,38,0
3664,note_on,0,0,10,,,,,,,,,6,,,,46,55
3664,note_on,0,0,10,,,,,,,,,6,,,,50,55
3666,control_change,20,0,6,,,,,,,,,5,11,45,,,
3672,control_change,18,0,7,,,,,,,,,10,11,51,,,
3674,control_change,12,0,8,,,,,,,,,11,11,51,,,
3674,control_change,12,0,9,,,,,,,,,12,11,51,,,
3676,control_change,12,0,10,,,,,,,,,6,11,51,,,
3685,control_change,21,0,5,,,,,,,,,4,11,46,,,
3685,control_change,21,0,3,,,,,,,,,2,11,51,,,
3687,control_change,21,0,6,,,,,,,,,5,11,46,,,
3690,control_change,18,0,7,,,,,,,,,10,11,52,,,
3692,note_on,18,0,8,,,,,,,,,11,,,,62,0
3692,control_change,0,0,8,,,,,,,,,11,11,52,,,
3692,note_on,0,0,8,,,,,,,,,11,,,,58,70
3692,note_on,18,0,9,,,,,,,,,12,,,,58,0
3692,control_change,0,0,9,,,,,,,,,12,11,52,,,
3692,note_on,0,0,9,,,,,,,,,12,,,,53,68
3694,note_on,0,0,10,,,,,,,,,6,,,,46,55
3694,control_change,0,0,10,,,,,,,,,6,11,52,,,
3694,note_on,0,0,10,,,,,,,,,6,,,,46,0
3694,note_on,18,0,10,,,,,,,,,6,,,,50,0
3694,note_on,0,0,10,,,,,,,,,6,,,,38,55
3705,control_change,20,0,3,,,,,,,,,2,11,52,,,
3705,control_change,20,0,5,,,,,,,,,4,11,47,,,
3707,control_change,20,0,6,,,,,,,,,5,11,47,,,
3708,control_change,18,0,7,,,,,,,,,10,11,53,,,
3710,control_change,18,0,8,,,,,,,,,11,11,53,,,
3710,control_change,18,0,9,,,,,,,,,12,11,53,,,
3712,control_change,18,0,10,,,,,,,,,6,11,53,,,
3722,note_on,0,0,8,,,,,,,,,11,,,,62,70
3722,note_on,0,0,9,,,,,,,,,12,,,,58,68
3722,note_on,12,0,8,,,,,,,,,11,,,,58,0
3722,note_on,12,0,9,,,,,,,,,12,,,,53,0
3724,note_on,0,0,10,,,,,,,,,6,,,,50,55
3724,note_on,12,0,10,,,,,,,,,6,,,,46,0
3724,note_on,0,0,10,,,,,,,,,6,,,,46,55
3724,note_on,0,0,10,,,,,,,,,6,,,,38,0
3725,note_on,120,0,11,,,,,,,,,13,,,,50,0
3726,control_change,21,0,5,,,,,,,,,4,11,48,,,
3726,control_change,21,0,3,,,,,,,,,2,11,52,,,
3726,control_change,18,0,7,,,,,,,,,10,11,54,,,
3728,note_on,120,0,12,,,,,,,,,14,,,,38,0
3728,control_change,6,0,9,,,,,,,,,12,11,54,,,
3728,control_change,21,0,6,,,,,,,,,5,11,48,,,
3728,control_change,6,0,8,,,,,,,,,11,11,54,,,
3730,control_change,6,0,10,,,,,,,,,6,11,54,,,
3744,control_change,18,0,7,,,,,,,,,10,11,55,,,
3746,control_change,18,0,8,,,,,,,,,11,11,55,,,
3746,control_change,18,0,9,,,,,,,,,12,11,55,,,
3747,control_change,21,0,3,,,,,,,,,2,11,53,,,
3747,control_change,21,0,5,,,,,,,,,4,11,49,,,
3748,control_change,18,0,10,,,,,,,,,6,11,55,,,
3749,control_change,21,0,6,,,,,,,,,5,11,49,,,
3752,note_on,6,0,8,,,,,,,,,11,,,,62,0
3752,note_on,0,0,8,,,,,,,,,11,,,,58,70
3752,note_on,0,0,9,,,,,,,,,12,,,,53,68
3752,note_on,6,0,9,,,,,,,,,12,,,,58,0
3754,note_on,6,0,10,,,,,,,,,6,,,,46,0
3754,note_on,0,0,10,,,,,,,,,6,,,,50,0
3754,note_on,0,0,10,,,,,,,,,6,,,,46,55
3754,note_on,0,0,10,,,,,,,,,6,,,,38,55
3762,control_change,18,0,7,,,,,,,,,10,11,56,,,
3764,control_change,12,0,8,,,,,,,,,11,11,56,,,
3764,control_change,12,0,9,,,,,,,,,12,11,56,,,
3766,control_change,12,0,10,,,,,,,,,6,11,56,,,
3767,control_change,20,0,3,,,,,,,,,2,11,54,,,
3767,control_change,20,0,5,,,,,,,,,4,11,50,,,
3769,control_change,20,0,6,,,,,,,,,5,11,50,,,
3780,set_tempo,120,1,0,,,,,,1034483,,,,,,,,
3780,control_change,18,0,7,,,,,,,,,10,11,57,,,
3782,note_on,0,0,8,,,,,,,,,11,,,,62,70
3782,control_change,0,0,9,,,,,,,,,12,11,57,,,
3782,note_on,18,0,8,,,,,,,,,11,,,,58,0
3782,control_change,0,0,8,,,,,,,,,11,11,57,,,
3782,note_on,0,0,9,,,,,,,,,12,,,,58,68
3782,note_on,18,0,9,,,,,,,,,12,,,,53,0
3784,control_change,0,0,10,,,,,,,,,6,11,57,,,
3784,note_on,0,0,10,,,,,,,,,6,,,,46,55
3784,note_on,0,0,10,,,,,,,,,6,,,,50,55
3784,note_on,0,0,10,,,,,,,,,6,,,,38,0
3784,note_on,18,0,10,,,,,,,,,6,,,,46,0
3788,control_change,21,0,3,,,,,,,,,2,11,55,,,
3788,control_change,21,0,5,,,,,,,,,4,11,51,,,
3790,control_change,21,0,6,,,,,,,,,5,11,51,,,
3798,control_change,18,0,7,,,,,,,,,10,11,58,,,
3800,control_change,18,0,8,,,,,,,,,11,11,58,,,
3800,control_change,18,0,9,,,,,,,,,12,11,58,,,
3802,control_change,18,0,10,,,,,,,,,6,11,58,,,
3808,control_change,20,0,3,,,,,,,,,2,11,55,,,
3808,control_change,20,0,5,,,,,,,,,4,11,52,,,
3810,control_change,20,0,6,,,,,,,,,5,11,52,,,
3812,note_on,0,0,8,,,,,,,,,11,,,,58,70
3812,note_on,0,0,9,,,,,,,,,12,,,,53,68
3812,note_on,12,0,9,,,,,,,,,12,,,,58,0
3812,note_on,12,0,8,,,,,,,,,11,,,,62,0
3814,note_on,0,0,10,,,,,,,,,6,,,,46,55
3814,note_on,0,0,10,,,,,,,,,6,,,,38,55
3814,note_on,0,0,10,,,,,,,,,6,,,,50,0
3814,note_on,12,0,10,,,,,,,,,6,,,,46,0
3816,control_change,18,0,7,,,,,,,,,10,11,59,,,
3818,control_change,6,0,9,,,,,,,,,12,11,59,,,
3818,control_change,6,0,8,,,,,,,,,11,11,59,,,
3820,control_change,6,0,10,,,,,,,,,6,11,59,,,
3829,control_change,21,0,3,,,,,,,,,2,11,56,,,
3829,control_change,21,0,5,,,,,,,,,4,11,53,,,
3831,control_change,21,0,6,,,,,,,,,5,11,53,,,
3834,control_change,18,0,7,,,,,,,,,10,11,60,,,
3836,control_change,18,0,8,,,,,,,,,11,11,60,,,
3836,control_change,18,0,9,,,,,,,,,12,11,60,,,
3838,control_change,18,0,10,,,,,,,,,6,11,60,,,
3840,set_tempo,60,1,0,,,,,,937500,,,,,,,,
3840,note_on,0,0,7,,,,,,,,,10,,,,75,115
3840,note_on,6,0,7,,,,,,,,,10,,,,77,0
3842,note_on,0,0,9,,,,,,,,,12,,,,58,68
3842,note_on,6,0,8,,,,,,,,,11,,,,58,0
3842,note_on,6,0,9,,,,,,,,,12,,,,53,0
3842,note_on,0,0,8,,,,,,,,,11,,,,62,70
3844,note_on,0,0,10,,,,,,,,,6,,,,50,55
3844,note_on,0,0,10,,,,,,,,,6,,,,46,55
3844,note_on,0,0,10,,,,,,,,,6,,,,38,0
3844,note_on,6,0,10,,,,,,,,,6,,,,46,0
3849,control_change,20,0,3,,,,,,,,,2,11,57,,,
3849,control_change,20,0,5,,,,,,,,,4,11,54,,,
3851,control_change,20,0,6,,,,,,,,,5,11,54,,,
3852,control_change,12,0,7,,,,,,,,,10,11,61,,,
3854,control_change,12,0,9,,,,,,,,,12,11,61,,,
3854,control_change,12,0,8,,,,,,,,,11,11,61,,,
3856,control_change,12,0,10,,,,,,,,,6,11,61,,,
3870,control_change,21,0,5,,,,,,,,,4,11,55,,,
3870,control_change,21,0,3,,,,,,,,,2,11,58,,,
3870,control_change,18,0,7,,,,,,,,,10,11,62,,,
3872,note_on,18,0,9,,,,,,,,,12,,,,58,0
3872,note_on,0,0,9,,,,,,,,,12,,,,53,68
3872,note_on,18,0,8,,,,,,,,,11,,,,62,0
3872,control_change,0,0,8,,,,,,,,,11,11,62,,,
3872,control_change,21,0,6,,,,,,,,,5,11,55,,,
3872,note_on,0,0,8,,,,,,,,,11,,,,58,70
3872,control_change,0,0,9,,,,,,,,,12,11,62,,,
3874,note_on,0,0,10,,,,,,,,,6,,,,38,55
3874,note_on,18,0,10,,,,,,,,,6,,,,50,0
3874,note_on,0,0,10,,,,,,,,,6,,,,46,0
3874,control_change,0,0,10,,,,,,,,,6,11,62,,,
3874,note_on,0,0,10,,,,,,,,,6,,,,46,55
3888,control_change,18,0,7,,,,,,,,,10,11,63,,,
3890,control_change,18,0,9,,,,,,,,,12,11,63,,,
3890,control_change,18,0,8,,,,,,,,,11,11,63,,,
3891,control_change,21,0,3,,,,,,,,,2,11,59,,,
3891,control_change,21,0,5,,,,,,,,,4,11,56,,,
3892,control_change,18,0,10,,,,,,,,,6,11,63,,,
3893,control_change,21,0,6,,,,,,,,,5,11,56,,,
3900,note_on,0,0,7,,,,,,,,,10,,,,74,115
3900,note_on,12,0,7,,,,,,,,,10,,,,75,0
3902,note_on,0,0,9,,,,,,,,,12,,,,58,68
3902,note_on,0,0,8,,,,,,,,,11,,,,62,70
3902,note_on,12,0,8,,,,,,,,,11,,,,58,0
3902,note_on,12,0,9,,,,,,,,,12,,,,53,0
3904,note_on,0,0,10,,,,,,,,,6,,,,46,55
3904,note_on,0,0,10,,,,,,,,,6,,,,50,55
3904,note_on,12,0,10,,,,,,,,,6,,,,46,0
3904,note_on,0,0,10,,,,,,,,,6,,,,38,0
3906,control_change,6,0,7,,,,,,,,,10,11,64,,,
3908,control_change,6,0,9,,,,,,,,,12,11,64,,,
3908,control_change,6,0,8,,,,,,,,,11,11,64,,,
3910,control_change,6,0,10,,,,,,,,,6,11,64,,,
3911,control_change,20,0,5,,,,,,,,,4,11,57,,,
3911,control_change,20,0,3,,,,,,,,,2,11,60,,,
3913,control_change,20,0,6,,,,,,,,,5,11,57,,,
3924,control_change,18,0,7,,,,,,,,,10,11,65,,,
3926,control_change,18,0,8,,,,,,,,,11,11,65,,,
3926,control_change,18,0,9,,,,,,,,,12,11,65,,,
3928,control_change,18,0,10,,,,,,,,,6,11,65,,,
3932,note_on,0,0,9,,,,,,,,,12,,,,53,68
3932,control_change,21,0,5,,,,,,,,,4,11,58,,,
3932,note_on,6,0,8,,,,,,,,,11,,,,62,0
3932,note_on,6,0,9,,,,,,,,,12,,,,58,0
3932,control_change,21,0,3,,,,,,,,,2,11,61,,,
3932,note_on,0,0,8,,,,,,,,,11,,,,58,70
3934,note_on,6,0,10,,,,,,,,,6,,,,46,0
3934,note_on,0,0,10,,,,,,,,,6,,,,50,0
3934,note_on,0,0,10,,,,,,,,,6,,,,46,55
3934,note_on,0,0,10,,,,,,,,,6,,,,38,55
3934,control_change,21,0,6,,,,,,,,,5,11,58,,,
3942,control_change,18,0,7,,,,,,,,,10,11,66,,,
3944,control_change,12,0,9,,,,,,,,,12,11,66,,,
3944,control_change,12,0,8,,,,,,,,,11,11,66,,,
3946,control_change,12,0,10,,,,,,,,,6,11,66,,,
3952,control_change,20,0,3,,,,,,,,,2,11,61,,,
3952,control_change,20,0,5,,,,,,,,,4,11,59,,,
3954,control_change,20,0,6,,,,,,,,,5,11,59,,,
3955,note_on,13,0,7,,,,,,,,,10,,,,74,0
3957,note_on,13,0,9,,,,,,,,,12,,,,53,0
3957,note_on,13,0,8,,,,,,,,,11,,,,58,0
3959,note_on,13,0,10,,,,,,,,,6,,,,38,0
3959,note_on,0,0,10,,,,,,,,,6,,,,46,0
3960,set_tempo,120,1,0,,,,,,1034483,,,,,,,,
3960,note_on,0,0,7,,,,,,,,,10,,,,72,115
3960,control_change,5,0,7,,,,,,,,,10,11,67,,,
3962,control_change,5,0,8,,,,,,,,,11,11,67,,,
3962,note_on,0,0,8,,,,,,,,,11,,,,60,70
3962,note_on,0,0,9,,,,,,,,,12,,,,58,68
3962,control_change,5,0,9,,,,,,,,,12,11,67,,,
3963,note_on,11,0,3,,,,,,,,,2,,,,67,96
3964,note_on,0,0,10,,,,,,,,,6,,,,46,55
3964,note_on,0,0,10,,,,,,,,,6,,,,48,55
3964,control_change,5,0,10,,,,,,,,,6,11,67,,,
3965,note_on,240,0,11,,,,,,,,,13,,,,39,74
3968,note_on,240,0,12,,,,,,,,,14,,,,27,69
3973,control_change,10,0,3,,,,,,,,,2,11,62,,,
3973,control_change,21,0,5,,,,,,,,,4,11,60,,,
3975,control_change,21,0,6,,,,,,,,,5,11,60,,,
3978,control_change,18,0,7,,,,,,,,,10,11,68,,,
3980,control_change,18,0,9,,,,,,,,,12,11,68,,,
3980,control_change,18,0,8,,,,,,,,,11,11,68,,,
3982,control_change,18,0,10,,,,,,,,,6,11,68,,,
3992,note_on,0,0,8,,,,,,,,,11,,,,58,70
3992,note_on,0,0,9,,,,,,,,,12,,,,55,68
3992,note_on,12,0,9,,,,,,,,,12,,,,58,0
3992,note_on,12,0,8,,,,,,,,,11,,,,60,0
3993,control_change,20,0,5,,,,,,,,,4,11,61,,,
3993,control_change,20,0,3,,,,,,,,,2,11,63,,,
3994,note_on,0,0,10,,,,,,,,,6,,,,48,0
3994,note_on,0,0,10,,,,,,,,,6,,,,39,55
3994,note_on,12,0,10,,,,,,,,,6,,,,46,0
3994,note_on,0,0,10,,,,,,,,,6,,,,46,55
3995,control_change,20,0,6,,,,,,,,,5,11,61,,,
3996,control_change,18,0,7,,,,,,,,,10,11,69,,,
3998,control_change,6,0,9,,,,,,,,,12,11,69,,,
3998,control_change,6,0,8,,,,,,,,,11,11,69,,,
4000,control_change,6,0,10,,,,,,,,,6,11,69,,,
4014,control_change,21,0,3,,,,,,,,,2,11,64,,,
4014,control_change,21,0,5,,,,,,,,,4,11,62,,,
4014,control_change,18,0,7,,,,,,,,,10,11,70,,,
4016,control_change,21,0,6,,,,,,,,,5,11,62,,,
4016,control_change,18,0,8,,,,,,,,,11,11,70,,,
4016,control_change,18,0,9,,,,,,,,,12,11,70,,,
4018,control_change,18,0,10,,,,,,,,,6,11,70,,,
4020,set_tempo,60,1,0,,,,,,937500,,,,,,,,
4022,note_on,6,0,9,,,,,,,,,12,,,,55,0
4022,note_on,0,0,9,,,,,,,,,12,,,,58,68
4022,note_on,6,0,8,,,,,,,,,11,,,,58,0
4022,note_on,0,0,8,,,,,,,,,11,,,,60,70
4024,note_on,0,0,10,,,,,,,,,6,,,,46,55
4024,note_on,0,0,10,,,,,,,,,6,,,,48,55
4024,note_on,0,0,10,,,,,,,,,6,,,,46,0
4024,note_on,6,0,10,,,,,,,,,6,,,,39,0
4032,control_change,18,0,7,,,,,,,,,10,11,71,,,
4034,control_change,12,0,8,,,,,,,,,11,11,71,,,
4034,control_change,12,0,9,,,,,,,,,12,11,71,,,
4035,control_change,21,0,5,,,,,,,,,4,11,63,,,
4035,control_change,21,0,3,,,,,,,,,2,11,65,,,
4036,control_change,12,0,10,,,,,,,,,6,11,71,,,
4037,control_change,21,0,6,,,,,,,,,5,11,63,,,
4050,control_change,18,0,7,,,,,,,,,10,11,72,,,
4052,note_on,0,0,9,,,,,,,,,12,,,,55,68
4052,note_on,18,0,9,,,,,,,,,12,,,,58,0
4052,control_change,0,0,9,,,,,,,,,12,11,72,,,
4052,note_on,18,0,8,,,,,,,,,11,,,,60,0
4052,control_change,0,0,8,,,,,,,,,11,11,72,,,
4052,note_on,0,0,8,,,,,,,,,11,,,,58,70
4054,control_change,0,0,10,,,,,,,,,6,11,72,,,
4054,note_on,0,0,10,,,,,,,,,6,,,,46,55
4054,note_on,0,0,10,,,,,,,,,6,,,,39,55
4054,note_on,0,0,10,,,,,,,,,6,,,,48,0
4054,note_on,18,0,10,,,,,,,,,6,,,,46,0
4055,control_change,20,0,3,,,,,,,,,2,11,65,,,
4055,control_change,20,0,5,,,,,,,,,4,11,64,,,
4057,control_change,20,0,6,,,,,,,,,5,11,64,,,
4068,control_change,18,0,7,,,,,,,,,10,11,73,,,
4070,control_change,18,0,9,,,,,,,,,12,11,73,,,
4070,control_change,18,0,8,,,,,,,,,11,11,73,,,
4072,control_change,18,0,10,,,,,,,,,6,11,73,,,
4076,control_change,21,0,3,,,,,,,,,2,11,66,,,
4076,control_change,21,0,5,,,,,,,,,4,11,65,,,
4078,control_change,21,0,6,,,,,,,,,5,11,65,,,
4082,note_on,12,0,8,,,,,,,,,11,,,,58,0
4082,note_on,12,0,9,,,,,,,,,12,,,,55,0
4082,note_on,0,0,9,,,,,,,,,12,,,,58,68
4082,note_on,0,0,8,,,,,,,,,11,,,,60,70
4084,note_on,12,0,10,,,,,,,,,6,,,,46,0
4084,note_on,0,0,10,,,,,,,,,6,,,,48,55
4084,note_on,0,0,10,,,,,,,,,6,,,,46,55
4084,note_on,0,0,10,,,,,,,,,6,,,,39,0
4085,note_on,120,0,11,,,,,,,,,13,,,,39,0
4086,control_change,18,0,7,,,,,,,,,10,11,74,,,
4088,note_on,120,0,12,,,,,,,,,14,,,,27,0
4088,control_change,6,0,9,,,,,,,,,12,11,74,,,
4088,control_change,6,0,8,,,,,,,,,11,11,74,,,
4090,control_change,6,0,10,,,,,,,,,6,11,74,,,
4096,control_change,20,0,5,,,,,,,,,4,11,66,,,
4096,control_change,20,0,3,,,,,,,,,2,11,67,,,
4098,control_change,20,0,6,,,,,,,,,5,11,66,,,
4104,control_change,18,0,7,,,,,,,,,10,11,75,,,
4105,note_on,1,0,7,,,,,,,,,10,,,,72,0
4106,control_change,18,0,9,,,,,,,,,12,11,75,,,
4106,control_change,18,0,8,,,,,,,,,11,11,75,,,
4108,control_change,18,0,10,,,,,,,,,6,11,75,,,
4110,note_on,5,0,7,,,,,,,,,10,,,,74,115
4112,note_on,0,0,9,,,,,,,,,12,,,,55,68
4112,note_on,0,0,8,,,,,,,,,11,,,,58,70
4112,note_on,6,0,8,,,,,,,,,11,,,,60,0
4112,note_on,6,0,9,,,,,,,,,12,,,,58,0
4114,note_on,6,0,10,,,,,,,,,6,,,,48,0
4114,note_on,0,0,10,,,,,,,,,6,,,,46,0
4114,note_on,0,0,10,,,,,,,,,6,,,,39,55
4114,note_on,0,0,10,,,,,,,,,6,,,,46,55
4117,control_change,21,0,5,,,,,,,,,4,11,67,,,
4117,control_change,21,0,3,,,,,,,,,2,11,68,,,
4119,control_change,21,0,6,,,,,,,,,5,11,67,,,
4120,note_on,0,0,7,,,,,,,,,10,,,,72,115
4120,note_on,10,0,7,,,,,,,,,10,,,,74,0
4122,control_change,2,0,7,,,,,,,,,10,11,76,,,
4124,control_change,12,0,8,,,,,,,,,11,11,76,,,
4124,control_change,12,0,9,,,,,,,,,12,11,76,,,
4126,control_change,12,0,10,,,,,,,,,6,11,76,,,
4130,note_on,0,0,7,,,,,,,,,10,,,,71,115
4130,note_on,8,0,7,,,,,,,,,10,,,,72,0
4137,control_change,20,0,3,,,,,,,,,2,11,69,,,
4137,control_change,20,0,5,,,,,,,,,4,11,68,,,
4139,control_change,20,0,6,,,,,,,,,5,11,68,,,
4140,note_on,10,0,7,,,,,,,,,10,,,,71,0
4140,set_tempo,120,1,0,,,,,,1034483,,,,,,,,
4140,control_change,0,0,7,,,,,,,,,10,11,77,,,
4140,note_on,0,0,7,,,,,,,,,10,,,,72,115
4142,control_change,0,0,8,,,,,,,,,11,11,77,,,
4142,note_on,18,0,8,,,,,,,,,11,,,,58,0
4142,note_on,0,0,8,,,,,,,,,11,,,,60,70
4142,note_on,18,0,9,,,,,,,,,12,,,,55,0
4142,control_change,0,0,9,,,,,,,,,12,11,77,,,
4142,note_on,0,0,9,,,,,,,,,12,,,,58,68
4144,control_change,0,0,10,,,,,,,,,6,11,77,,,
4144,note_on,0,0,10,,,,,,,,,6,,,,48,55
4144,note_on,0,0,10,,,,,,,,,6,,,,46,55
4144,note_on,18,0,10,,,,,,,,,6,,,,46,0
4144,note_on,0,0,10,,,,,,,,,6,,,,39,0
4158,control_change,18,0,7,,,,,,,,,10,11,78,,,
4158,control_change,21,0,5,,,,,,,,,4,11,69,,,
4158,control_change,21,0,3,,,,,,,,,2,11,70,,,
4160,control_change,18,0,8,,,,,,,,,11,11,78,,,
4160,control_change,21,0,6,,,,,,,,,5,11,69,,,
4160,control_change,18,0,9,,,,,,,,,12,11,78,,,
4162,control_change,18,0,10,,,,,,,,,6,11,78,,,
4172,note_on,0,0,9,,,,,,,,,12,,,,55,68
4172,note_on,12,0,9,,,,,,,,,12,,,,58,0
4172,note_on,0,0,8,,,,,,,,,11,,,,58,70
4172,note_on,12,0,8,,,,,,,,,11,,,,60,0
4174,note_on,0,0,10,,,,,,,,,6,,,,39,55
4174,note_on,0,0,10,,,,,,,,,6,,,,46,55
4174,note_on,12,0,10,,,,,,,,,6,,,,48,0
4174,note_on,0,0,10,,,,,,,,,6,,,,46,0
4176,control_change,18,0,7,,,,,,,,,10,11,79,,,
4178,control_change,6,0,9,,,,,,,,,12,11,79,,,
4178,control_change,6,0,8,,,,,,,,,11,11,79,,,
4179,control_change,21,0,5,,,,,,,,,4,11,70,,,
4179,control_change,21,0,3,,,,,,,,,2,11,70,,,
4180,control_change,6,0,10,,,,,,,,,6,11,79,,,
4181,control_change,21,0,6,,,,,,,,,5,11,70,,,
4194,control_change,18,0,7,,,,,,,,,10,11,80,,,
4196,control_change,18,0,9,,,,,,,,,12,11,80,,,
4196,control_change,18,0,8,,,,,,,,,11,11,80,,,
4198,control_change,18,0,10,,,,,,,,,6,11,80,,,
4199,control_change,20,0,3,,,,,,,,,2,11,71,,,
4199,control_change,20,0,5,,,,,,,,,4,11,71,,,
4200,note_on,0,0,7,,,,,,,,,10,,,,75,115
4200,set_tempo,60,1,0,,,,,,937500,,,,,,,,
4200,note_on,6,0,7,,,,,,,,,10,,,,72,0
4201,control_change,20,0,6,,,,,,,,,5,11,71,,,
4202,note_on,0,0,9,,,,,,,,,12,,,,58,68
4202,note_on,0,0,8,,,,,,,,,11,,,,60,70
4202,note_on,6,0,8,,,,,,,,,11,,,,58,0
4202,note_on,6,0,9,,,,,,,,,12,,,,55,0
4204,note_on,0,0,10,,,,,,,,,6,,,,39,0
4204,note_on,0,0,10,,,,,,,,,6,,,,46,55
4204,note_on,0,0,10,,,,,,,,,6,,,,48,55
4204,note_on,6,0,10,,,,,,,,,6,,,,46,0
4212,control_change,12,0,7,,,,,,,,,10,11,81,,,
4214,control_change,12,0,9,,,,,,,,,12,11,81,,,
4214,control_change,12,0,8,,,,,,,,,11,11,81,,,
4216,control_change,12,0,10,,,,,,,,,6,11,81,,,
4220,control_change,21,0,3,,,,,,,,,2,11,72,,,
4220,control_change,21,0,5,,,,,,,,,4,11,72,,,
4222,control_change,21,0,6,,,,,,,,,5,11,72,,,
4230,control_change,18,0,7,,,,,,,,,10,11,82,,,
4232,note_on,18,0,8,,,,,,,,,11,,,,60,0
4232,control_change,0,0,8,,,,,,,,,11,11,82,,,
4232,note_on,0,0,8,,,,,,,,,11,,,,58,70
4232,note_on,18,0,9,,,,,,,,,12,,,,58,0
4232,control_change,0,0,9,,,,,,,,,12,11,82,,,
4232,note_on,0,0,9,,,,,,,,,12,,,,55,68
4234,note_on,0,0,10,,,,,,,,,6,,,,46,55
4234,control_change,0,0,10,,,,,,,,,6,11,82,,,
4234,note_on,18,0,10,,,,,,,,,6,,,,46,0
4234,note_on,0,0,10,,,,,,,,,6,,,,39,55
4234,note_on,0,0,10,,,,,,,,,6,,,,48,0
4240,control_change,20,0,3,,,,,,,,,2,11,73,,,
4240,control_change,20,0,5,,,,,,,,,4,11,73,,,
4242,control_change,20,0,6,,,,,,,,,5,11,73,,,
4248,control_change,18,0,7,,,,,,,,,10,11,83,,,
4250,control_change,18,0,9,,,,,,,,,12,11,83,,,
4250,control_change,18,0,8,,,,,,,,,11,11,83,,,
4252,control_change,18,0,10,,,,,,,,,6,11,83,,,
4260,note_on,12,0,7,,,,,,,,,10,,,,75,0
4260,note_on,0,0,7,,,,,,,,,10,,,,79,115
4261,control_change,21,0,3,,,,,,,,,2,11,74,,,
4261,control_change,21,0,5,,,,,,,,,4,11,74,,,
4262,note_on,12,0,9,,,,,,,,,12,,,,55,0
4262,note_on,0,0,9,,,,,,,,,12,,,,58,68
4262,note_on,12,0,8,,,,,,,,,11,,,,58,0
4262,note_on,0,0,8,,,,,,,,,11,,,,60,70
4263,control_change,21,0,6,,,,,,,,,5,11,74,,,
4264,note_on,0,0,10,,,,,,,,,6,,,,48,55
4264,note_on,0,0,10,,,,,,,,,6,,,,39,0
4264,note_on,12,0,10,,,,,,,,,6,,,,46,0
4264,note_on,0,0,10,,,,,,,,,6,,,,46,55
4266,control_change,6,0,7,,,,,,,,,10,11,84,,,
4268,control_change,6,0,9,,,,,,,,,12,11,84,,,
4268,control_change,6,0,8,,,,,,,,,11,11,84,,,
4270,control_change,6,0,10,,,,,,,,,6,11,84,,,
4281,control_change,20,0,5,,,,,,,,,4,11,75,,,
4281,control_change,20,0,3,,,,,,,,,2,11,75,,,
4283,control_change,20,0,6,,,,,,,,,5,11,75,,,
4284,control_change,18,0,7,,,,,,,,,10,11,85,,,
4286,control_change,18,0,9,,,,,,,,,12,11,85,,,
4286,control_change,18,0,8,,,,,,,,,11,11,85,,,
4288,control_change,18,0,10,,,,,,,,,6,11,85,,,
4292,note_on,0,0,8,,,,,,,,,11,,,,58,70
4292,note_on,6,0,8,,,,,,,,,11,,,,60,0
4292,note_on,0,0,9,,,,,,,,,12,,,,55,68
4292,note_on,6,0,9,,,,,,,,,12,,,,58,0
4294,note_on,0,0,10,,,,,,,,,6,,,,39,55
4294,note_on,0,0,10,,,,,,,,,6,,,,46,55
4294,note_on,6,0,10,,,,,,,,,6,,,,46,0
4294,note_on,0,0,10,,,,,,,,,6,,,,48,0
4298,note_on,14,0,7,,,,,,,,,10,,,,79,0
4302,control_change,21,0,5,,,,,,,,,4,11,76,,,
4302,control_change,4,0,7,,,,,,,,,10,11,86,,,
4302,control_change,21,0,3,,,,,,,,,2,11,76,,,
4304,control_change,12,0,9,,,,,,,,,12,11,86,,,
4304,control_change,12,0,8,,,,,,,,,11,11,86,,,
4304,control_change,21,0,6,,,,,,,,,5,11,76,,,
4305,set_tempo,105,1,0,,,,,,1304348,,,,,,,,
4306,control_change,12,0,10,,,,,,,,,6,11,86,,,
4317,note_on,13,0,9,,,,,,,,,12,,,,55,0
4317,note_on,13,0,8,,,,,,,,,11,,,,58,0
4318,note_on,0,0,3,,,,,,,,,2,,,,70,0
4318,note_on,16,0,5,,,,,,,,,4,,,,58,0
4318,note_on,16,0,3,,,,,,,,,2,,,,67,0
4319,note_on,0,0,10,,,,,,,,,6,,,,39,0
4319,note_on,13,0,10,,,,,,,,,6,,,,46,0
4320,note_on,0,0,7,,,,,,,,,10,,,,65,103
4320,note_on,16,0,6,,,,,,,,,5,,,,46,0
4320,control_change,18,0,7,,,,,,,,,10,11,87,,,
4320,set_tempo,15,1,0,,,,,,1034483,,,,,,,,
4322,control_change,5,0,8,,,,,,,,,11,11,87,,,
4322,note_on,0,0,9,,,,,,,,,12,,,,58,68
4322,note_on,0,0,8,,,,,,,,,11,,,,62,70
4322,control_change,5,0,9,,,,,,,,,12,11,87,,,
4323,note_on,0,0,3,,,,,,,,,2,,,,62,96
4323,note_on,5,0,3,,,,,,,,,2,,,,70,96
4323,control_change,0,0,3,,,,,,,,,2,11,76,,,
4323,note_on,0,0,5,,,,,,,,,4,,,,53,82
4323,control_change,5,0,5,,,,,,,,,4,11,77,,,
4324,note_on,0,0,10,,,,,,,,,6,,,,50,55
4324,control_change,5,0,10,,,,,,,,,6,11,87,,,
4324,note_on,0,0,10,,,,,,,,,6,,,,46,55
4325,note_on,5,0,6,,,,,,,,,5,,,,41,82
4325,note_on,240,0,11,,,,,,,,,13,,,,41,87
4325,control_change,0,0,6,,,,,,,,,5,11,77,,,
4328,control_change,5,0,5,,,,,,,,,4,11,74,,,
4328,note_on,240,0,12,,,,,,,,,14,,,,29,81
4329,control_change,6,0,3,,,,,,,,,2,11,73,,,
4330,control_change,5,0,6,,,,,,,,,5,11,74,,,
4333,control_change,13,0,7,,,,,,,,,10,11,84,,,
4333,control_change,5,0,5,,,,,,,,,4,11,71,,,
4335,control_change,13,0,9,,,,,,,,,12,11,84,,,
4335,control_change,5,0,6,,,,,,,,,5,11,71,,,
4335,control_change,13,0,8,,,,,,,,,11,11,84,,,
4335,control_change,6,0,3,,,,,,,,,2,11,70,,,
4337,control_change,13,0,10,,,,,,,,,6,11,84,,,
4338,control_change,5,0,5,,,,,,,,,4,11,68,,,
4340,control_change,5,0,6,,,,,,,,,5,11,68,,,
4341,control_change,6,0,3,,,,,,,,,2,11,67,,,
4343,control_change,5,0,5,,,,,,,,,4,11,65,,,
4345,control_change,5,0,6,,,,,,,,,5,11,65,,,
4347,control_change,14,0,7,,,,,,,,,10,11,81,,,
4348,control_change,5,0,5,,,,,,,,,4,11,62,,,
4348,control_change,7,0,3,,,,,,,,,2,11,64,,,
4349,control_change,14,0,9,,,,,,,,,12,11,81,,,
4349,control_change,14,0,8,,,,,,,,,11,11,81,,,
4350,control_change,5,0,6,,,,,,,,,5,11,62,,,
4351,control_change,14,0,10,,,,,,,,,6,11,81,,,
4352,note_on,3,0,8,,,,,,,,,11,,,,62,0
4352,note_on,0,0,8,,,,,,,,,11,,,,58,70
4352,note_on,0,0,9,,,,,,,,,12,,,,53,68
4352,note_on,3,0,9,,,,,,,,,12,,,,58,0
4353,control_change,5,0,5,,,,,,,,,4,11,59,,,
4353,control_change,5,0,3,,,,,,,,,2,11,61,,,
4354,note_on,0,0,10,,,,,,,,,6,,,,50,0
4354,note_on,3,0,10,,,,,,,,,6,,,,46,0
4354,note_on,0,0,10,,,,,,,,,6,,,,46,55
4354,note_on,0,0,10,,,,,,,,,6,,,,41,55
4355,control_change,5,0,6,,,,,,,,,5,11,59,,,
4359,control_change,6,0,5,,,,,,,,,4,11,56,,,
4360,control_change,7,0,3,,,,,,,,,2,11,58,,,
4360,control_change,13,0,7,,,,,,,,,10,11,78,,,
4361,control_change,6,0,6,,,,,,,,,5,11,56,,,
4362,control_change,10,0,9,,,,,,,,,12,11,78,,,
4362,control_change,10,0,8,,,,,,,,,11,11,78,,,
4364,control_change,5,0,5,,,,,,,,,4,11,53,,,
4364,control_change,10,0,10,,,,,,,,,6,11,78,,,
4365,control_change,5,0,3,,,,,,,,,2,11,55,,,
4366,control_change,5,0,6,,,,,,,,,5,11,53,,,
4369,control_change,5,0,5,,,,,,,,,4,11,50,,,
4371,control_change,5,0,6,,,,,,,,,5,11,50,,,
4372,control_change,7,0,3,,,,,,,,,2,11,52,,,
4374,control_change,14,0,7,,,,,,,,,10,11,75,,,
4374,control_change,5,0,5,,,,,,,,,4,11,47,,,
4376,control_change,14,0,8,,,,,,,,,11,11,75,,,
4376,control_change,5,0,6,,,,,,,,,5,11,47,,,
4376,control_change,14,0,9,,,,,,,,,12,11,75,,,
4378,control_change,14,0,10,,,,,,,,,6,11,75,,,
4378,note_on,4,0,5,,,,,,,,,4,,,,53,0
4379,control_change,7,0,3,,,,,,,,,2,11,49,,,
4379,control_change,1,0,5,,,,,,,,,4,11,44,,,
4380,set_tempo,60,1,0,,,,,,937500,,,,,,,,
4380,note_on,4,0,6,,,,,,,,,5,,,,41,0
4381,control_change,1,0,6,,,,,,,,,5,11,44,,,
4382,note_on,6,0,9,,,,,,,,,12,,,,53,0
4382,note_on,0,0,9,,,,,,,,,12,,,,58,68
4382,note_on,0,0,8,,,,,,,,,11,,,,62,70
4382,note_on,6,0,8,,,,,,,,,11,,,,58,0
4383,note_on,4,0,5,,,,,,,,,4,,,,53,82
4384,note_on,6,0,10,,,,,,,,,6,,,,46,0
4384,note_on,0,0,10,,,,,,,,,6,,,,41,0
4384,note_on,0,0,10,,,,,,,,,6,,,,50,55
4384,note_on,0,0,10,,,,,,,,,6,,,,46,55
4385,note_on,4,0,6,,,,,,,,,5,,,,41,82
4387,control_change,13,0,7,,,,,,,,,10,11,72,,,
4389,control_change,7,0,8,,,,,,,,,11,11,72,,,
4389,control_change,7,0,9,,,,,,,,,12,11,72,,,
4391,control_change,7,0,10,,,,,,,,,6,11,72,,,
4401,control_change,14,0,7,,,,,,,,,10,11,69,,,
4403,control_change,14,0,8,,,,,,,,,11,11,69,,,
4403,control_change,14,0,9,,,,,,,,,12,11,69,,,
4405,control_change,14,0,10,,,,,,,,,6,11,69,,,
4412,note_on,9,0,8,,,,,,,,,11,,,,62,0
4412,note_on,0,0,9,,,,,,,,,12,,,,53,68
4412,note_on,9,0,9,,,,,,,,,12,,,,58,0
4412,note_on,0,0,8,,,,,,,,,11,,,,58,70
4414,note_on,9,0,10,,,,,,,,,6,,,,46,0
4414,note_on,0,0,10,,,,,,,,,6,,,,50,0
4414,control_change,13,0,7,,,,,,,,,10,11,66,,,
4414,note_on,0,0,10,,,,,,,,,6,,,,46,55
4414,note_on,0,0,10,,,,,,,,,6,,,,41,55
4416,control_change,4,0,9,,,,,,,,,12,11,66,,,
4416,control_change,4,0,8,,,,,,,,,11,11,66,,,
4418,control_change,4,0,10,,,,,,,,,6,11,66,,,
4428,control_change,14,0,7,,,,,,,,,10,11,63,,,
4430,control_change,14,0,9,,,,,,,,,12,11,63,,,
4430,control_change,14,0,8,,,,,,,,,11,11,63,,,
4432,control_change,14,0,10,,,,,,,,,6,11,63,,,
4438,note_on,55,0,5,,,,,,,,,4,,,,53,0
4440,note_on,55,0,6,,,,,,,,,5,,,,41,0
4441,control_change,13,0,7,,,,,,,,,10,11,60,,,
4442,note_on,12,0,9,,,,,,,,,12,,,,53,0
4442,note_on,0,0,9,,,,,,,,,12,,,,58,68
4442,note_on,0,0,8,,,,,,,,,11,,,,62,70
4442,note_on,12,0,8,,,,,,,,,11,,,,58,0
4443,note_on,5,0,5,,,,,,,,,4,,,,53,82
4443,control_change,1,0,9,,,,,,,,,12,11,60,,,
4443,control_change,1,0,8,,,,,,,,,11,11,60,,,
4444,note_on,0,0,10,,,,,,,,,6,,,,50,55
4444,note_on,0,0,10,,,,,,,,,6,,,,46,55
4444,note_on,0,0,10,,,,,,,,,6,,,,46,0
4444,note_on,12,0,10,,,,,,,,,6,,,,41,0
4445,control_change,1,0,10,,,,,,,,,6,11,60,,,
4445,note_on,5,0,6,,,,,,,,,5,,,,41,82
4445,note_on,120,0,11,,,,,,,,,13,,,,41,0
4448,note_on,120,0,12,,,,,,,,,14,,,,29,0
4455,control_change,14,0,7,,,,,,,,,10,11,57,,,
4457,control_change,14,0,9,,,,,,,,,12,11,57,,,
4457,control_change,14,0,8,,,,,,,,,11,11,57,,,
4459,control_change,14,0,10,,,,,,,,,6,11,57,,,
4468,control_change,13,0,7,,,,,,,,,10,11,54,,,
4470,control_change,13,0,9,,,,,,,,,12,11,54,,,
4470,control_change,13,0,8,,,,,,,,,11,11,54,,,
4472,note_on,2,0,8,,,,,,,,,11,,,,62,0
4472,note_on,0,0,8,,,,,,,,,11,,,,58,70
4472,control_change,13,0,10,,,,,,,,,6,11,54,,,
4472,note_on,0,0,9,,,,,,,,,12,,,,53,68
4472,note_on,2,0,9,,,,,,,,,12,,,,58,0
4474,note_on,2,0,10,,,,,,,,,6,,,,50,0
4474,note_on,0,0,10,,,,,,,,,6,,,,46,0
4474,note_on,0,0,10,,,,,,,,,6,,,,41,55
4474,note_on,0,0,10,,,,,,,,,6,,,,46,55
4482,control_change,14,0,7,,,,,,,,,10,11,51,,,
4484,control_change,12,0,8,,,,,,,,,11,11,51,,,
4484,control_change,12,0,9,,,,,,,,,12,11,51,,,
4486,control_change,12,0,10,,,,,,,,,6,11,51,,,
4495,control_change,13,0,7,,,,,,,,,10,11,48,,,
4497,control_change,13,0,8,,,,,,,,,11,11,48,,,
4497,control_change,13,0,9,,,,,,,,,12,11,48,,,
4498,note_on,119,0,3,,,,,,,,,2,,,,70,0
4498,note_on,55,0,5,,,,,,,,,4,,,,53,0
4499,control_change,13,0,10,,,,,,,,,6,11,48,,,
4500,set_tempo,120,1,0,,,,,,1034483,,,,,,,,
4500,note_on,0,0,1,,,,,,,,,0,,,,82,97
4500,note_on,0,0,1,,,,,,,,,0,,,,77,97
4500,control_change,4460,0,1,,,,,,,,,0,11,47,,,
4500,note_on,55,0,6,,,,,,,,,5,,,,41,0
4502,note_on,0,0,9,,,,,,,,,12,,,,58,68
4502,note_on,5,0,8,,,,,,,,,11,,,,58,0
4502,note_on,0,0,8,,,,,,,,,11,,,,62,70
4502,control_change,4460,0,2,,,,,,,,,1,11,47,,,
4502,note_on,0,0,2,,,,,,,,,1,,,,70,96
4502,note_on,0,0,2,,,,,,,,,1,,,,74,96
4502,note_on,5,0,9,,,,,,,,,12,,,,53,0
4503,note_on,5,0,3,,,,,,,,,2,,,,65,97
4503,note_on,5,0,5,,,,,,,,,4,,,,53,82
4504,note_on,0,0,10,,,,,,,,,6,,,,46,55
4504,note_on,0,0,10,,,,,,,,,6,,,,50,55
4504,note_on,0,0,10,,,,,,,,,6,,,,46,0
4504,note_on,5,0,10,,,,,,,,,6,,,,41,0
4505,note_on,4460,0,4,,,,,,,,,3,,,,58,96
4505,control_change,0,0,4,,,,,,,,,3,11,47,,,
4505,note_on,0,0,4,,,,,,,,,3,,,,53,96
4505,note_on,5,0,6,,,,,,,,,5,,,,41,82
4532,note_on,30,0,9,,,,,,,,,12,,,,58,0
4532,note_on,0,0,9,,,,,,,,,12,,,,53,68
4532,note_on,30,0,8,,,,,,,,,11,,,,62,0
4532,note_on,0,0,8,,,,,,,,,11,,,,58,70
4534,note_on,0,0,10,,,,,,,,,6,,,,46,55
4534,note_on,0,0,10,,,,,,,,,6,,,,41,55
4534,note_on,0,0,10,,,,,,,,,6,,,,46,0
4534,note_on,30,0,10,,,,,,,,,6,,,,50,0
4558,note_on,55,0,5,,,,,,,,,4,,,,53,0
4560,note_on,55,0,6,,,,,,,,,5,,,,41,0
4560,note_on,0,0,7,,,,,,,,,10,,,,67,103
4560,note_on,65,0,7,,,,,,,,,10,,,,65,0
4560,set_tempo,60,1,0,,,,,,937500,,,,,,,,
4562,note_on,30,0,8,,,,,,,,,11,,,,58,0
4562,note_on,30,0,9,,,,,,,,,12,,,,53,0
4562,note_on,0,0,9,,,,,,,,,12,,,,58,68
4562,note_on,0,0,8,,,,,,,,,11,,,,62,70
4563,note_on,5,0,5,,,,,,,,,4,,,,53,82
4564,note_on,0,0,10,,,,,,,,,6,,,,41,0
4564,note_on,30,0,10,,,,,,,,,6,,,,46,0
4564,note_on,0,0,10,,,,,,,,,6,,,,46,55
4564,note_on,0,0,10,,,,,,,,,6,,,,50,55
4565,note_on,5,0,6,,,,,,,,,5,,,,41,82
4592,note_on,0,0,8,,,,,,,,,11,,,,58,70
4592,note_on,30,0,9,,,,,,,,,12,,,,58,0
4592,note_on,0,0,9,,,,,,,,,12,,,,53,68
4592,note_on,30,0,8,,,,,,,,,11,,,,62,0
4594,note_on,30,0,10,,,,,,,,,6,,,,46,0
4594,note_on,0,0,10,,,,,,,,,6,,,,46,55
4594,note_on,0,0,10,,,,,,,,,6,,,,41,55
4594,note_on,0,0,10,,,,,,,,,6,,,,50,0
4609,note_on,49,0,7,,,,,,,,,10,,,,67,0
4618,note_on,55,0,5,,,,,,,,,4,,,,53,0
4620,note_on,11,0,7,,,,,,,,,10,,,,69,103
4620,note_on,55,0,6,,,,,,,,,5,,,,41,0
4620,note_on,120,0,1,,,,,,,,,0,,,,82,0
4620,note_on,0,0,1,,,,,,,,,0,,,,77,0
4622,note_on,120,0,2,,,,,,,,,1,,,,74,0
4622,note_on,30,0,8,,,,,,,,,11,,,,58,0
4622,note_on,0,0,8,,,,,,,,,11,,,,62,70
4622,note_on,0,0,2,,,,,,,,,1,,,,70,0
4622,note_on,30,0,9,,,,,,,,,12,,,,53,0
4622,note_on,0,0,9,,,,,,,,,12,,,,58,68
4623,note_on,5,0,5,,,,,,,,,4,,,,53,82
4624,note_on,30,0,10,,,,,,,,,6,,,,46,0
4624,note_on,0,0,10,,,,,,,,,6,,,,41,0
4624,note_on,0,0,10,,,,,,,,,6,,,,50,55
4624,note_on,0,0,10,,,,,,,,,6,,,,46,55
4625,note_on,5,0,6,,,,,,,,,5,,,,41,82
4625,note_on,0,0,4,,,,,,,,,3,,,,58,0
4625,note_on,120,0,4,,,,,,,,,3,,,,53,0
4652,note_on,0,0,8,,,,,,,,,11,,,,58,70
4652,note_on,30,0,9,,,,,,,,,12,,,,58,0
4652,note_on,30,0,8,,,,,,,,,11,,,,62,0
4652,note_on,0,0,9,,,,,,,,,12,,,,53,68
4654,note_on,0,0,10,,,,,,,,,6,,,,50,0
4654,note_on,0,0,10,,,,,,,,,6,,,,41,55
4654,note_on,0,0,10,,,,,,,,,6,,,,46,55
4654,note_on,30,0,10,,,,,,,,,6,,,,46,0
4669,note_on,49,0,7,,,,,,,,,10,,,,69,0
4677,note_on,25,0,8,,,,,,,,,11,,,,58,0
4677,note_on,25,0,9,,,,,,,,,12,,,,53,0
4678,note_on,55,0,5,,,,,,,,,4,,,,53,0
4679,note_on,25,0,10,,,,,,,,,6,,,,46,0
4679,note_on,0,0,10,,,,,,,,,6,,,,41,0
4680,note_on,55,0,6,,,,,,,,,5,,,,41,0
4680,control_change,0,0,1,,,,,,,,,0,11,47,,,
4680,note_on,0,0,7,,,,,,,,,10,,,,70,103
4680,note_on,0,0,1,,,,,,,,,0,,,,82,97
4680,control_change,11,0,7,,,,,,,,,10,11,47,,,
4680,set_tempo,120,1,0,,,,,,1034483,,,,,,,,
4680,note_on,60,0,1,,,,,,,,,0,,,,77,97
4682,note_on,0,0,8,,,,,,,,,11,,,,62,70
4682,control_change,60,0,2,,,,,,,,,1,11,47,,,
4682,control_change,5,0,8,,,,,,,,,11,11,47,,,
4682,note_on,0,0,2,,,,,,,,,1,,,,74,96
4682,note_on,0,0,9,,,,,,,,,12,,,,58,68
4682,control_change,5,0,9,,,,,,,,,12,11,47,,,
4682,note_on,0,0,2,,,,,,,,,1,,,,70,96
4683,control_change,180,0,3,,,,,,,,,2,11,47,,,
4683,note_on,0,0,5,,,,,,,,,4,,,,53,82
4683,control_change,5,0,5,,,,,,,,,4,11,42,,,
4684,note_on,0,0,10,,,,,,,,,6,,,,50,55
4684,control_change,5,0,10,,,,,,,,,6,11,47,,,
4684,note_on,0,0,10,,,,,,,,,6,,,,46,55
4685,note_on,0,0,6,,,,,,,,,5,,,,41,82
4685,note_on,240,0,11,,,,,,,,,13,,,,41,52
4685,note_on,0,0,4,,,,,,,,,3,,,,58,96
4685,control_change,60,0,4,,,,,,,,,3,11,47,,,
4685,note_on,0,0,4,,,,,,,,,3,,,,53,96
4685,control_change,5,0,6,,,,,,,,,5,11,42,,,
4688,note_on,240,0,12,,,,,,,,,14,,,,29,45
4698,control_change,18,0,1,,,,,,,,,0,11,49,,,
4698,control_change,18,0,7,,,,,,,,,10,11,50,,,
4700,control_change,18,0,9,,,,,,,,,12,11,50,,,
4700,control_change,18,0,8,,,,,,,,,11,11,50,,,
4700,control_change,18,0,2,,,,,,,,,1,11,49,,,
4701,control_change,18,0,3,,,,,,,,,2,11,49,,,
4701,control_change,18,0,5,,,,,,,,,4,11,44,,,
4702,control_change,18,0,10,,,,,,,,,6,11,50,,,
4703,control_change,18,0,6,,,,,,,,,5,11,44,,,
4703,control_change,18,0,4,,,,,,,,,3,11,49,,,
4712,note_on,0,0,9,,,,,,,,,12,,,,53,68
4712,note_on,0,0,8,,,,,,,,,11,,,,58,70
4712,note_on,12,0,8,,,,,,,,,11,,,,62,0
4712,note_on,12,0,9,,,,,,,,,12,,,,58,0
4714,note_on,0,0,10,,,,,,,,,6,,,,46,55
4714,note_on,0,0,10,,,,,,,,,6,,,,41,55
4714,note_on,0,0,10,,,,,,,,,6,,,,46,0
4714,note_on,12,0,10,,,,,,,,,6,,,,50,0
4716,control_change,18,0,1,,,,,,,,,0,11,51,,,
4716,control_change,18,0,7,,,,,,,,,10,11,53,,,
4718,control_change,6,0,9,,,,,,,,,12,11,53,,,
4718,control_change,18,0,2,,,,,,,,,1,11,51,,,
4718,control_change,6,0,8,,,,,,,,,11,11,53,,,
4719,control_change,18,0,3,,,,,,,,,2,11,51,,,
4719,control_change,18,0,5,,,,,,,,,4,11,46,,,
4720,control_change,6,0,10,,,,,,,,,6,11,53,,,
4721,control_change,18,0,4,,,,,,,,,3,11,51,,,
4721,control_change,18,0,6,,,,,,,,,5,11,46,,,
4729,note_on,13,0,7,,,,,,,,,10,,,,70,0
4734,control_change,5,0,7,,,,,,,,,10,11,56,,,
4734,control_change,18,0,1,,,,,,,,,0,11,52,,,
4736,control_change,18,0,2,,,,,,,,,1,11,52,,,
4736,control_change,18,0,8,,,,,,,,,11,11,56,,,
4736,control_change,18,0,9,,,,,,,,,12,11,56,,,
4737,control_change,18,0,5,,,,,,,,,4,11,48,,,
4737,control_change,18,0,3,,,,,,,,,2,11,52,,,
4738,control_change,18,0,10,,,,,,,,,6,11,56,,,
4738,note_on,1,0,5,,,,,,,,,4,,,,53,0
4739,control_change,18,0,4,,,,,,,,,3,11,52,,,
4739,control_change,18,0,6,,,,,,,,,5,11,48,,,
4740,note_on,1,0,6,,,,,,,,,5,,,,41,0
4740,note_on,6,0,7,,,,,,,,,10,,,,72,103
4740,set_tempo,60,1,0,,,,,,937500,,,,,,,,
4742,note_on,6,0,8,,,,,,,,,11,,,,58,0
4742,note_on,0,0,8,,,,,,,,,11,,,,62,70
4742,note_on,0,0,9,,,,,,,,,12,,,,58,68
4742,note_on,6,0,9,,,,,,,,,12,,,,53,0
4743,note_on,5,0,5,,,,,,,,,4,,,,53,82
4744,note_on,6,0,10,,,,,,,,,6,,,,46,0
4744,note_on,0,0,10,,,,,,,,,6,,,,41,0
4744,note_on,0,0,10,,,,,,,,,6,,,,50,55
4744,note_on,0,0,10,,,,,,,,,6,,,,46,55
4745,note_on,5,0,6,,,,,,,,,5,,,,41,82
4752,control_change,18,0,1,,,,,,,,,0,11,54,,,
4752,control_change,12,0,7,,,,,,,,,10,11,59,,,
4754,control_change,18,0,2,,,,,,,,,1,11,54,,,
4754,control_change,12,0,8,,,,,,,,,11,11,59,,,
4754,control_change,12,0,9,,,,,,,,,12,11,59,,,
4755,control_change,18,0,3,,,,,,,,,2,11,54,,,
4755,control_change,12,0,5,,,,,,,,,4,11,50,,,
4756,control_change,12,0,10,,,,,,,,,6,11,59,,,
4757,control_change,18,0,4,,,,,,,,,3,11,54,,,
4757,control_change,12,0,6,,,,,,,,,5,11,50,,,
4770,control_change,18,0,7,,,,,,,,,10,11,62,,,
4770,control_change,18,0,1,,,,,,,,,0,11,55,,,
4772,control_change,18,0,2,,,,,,,,,1,11,55,,,
4772,note_on,18,0,8,,,,,,,,,11,,,,62,0
4772,control_change,0,0,8,,,,,,,,,11,11,62,,,
4772,note_on,0,0,8,,,,,,,,,11,,,,58,70
4772,note_on,18,0,9,,,,,,,,,12,,,,58,0
4772,note_on,0,0,9,,,,,,,,,12,,,,53,68
4772,control_change,0,0,9,,,,,,,,,12,11,62,,,
4773,control_change,18,0,3,,,,,,,,,2,11,55,,,
4773,control_change,18,0,5,,,,,,,,,4,11,52,,,
4774,note_on,0,0,10,,,,,,,,,6,,,,50,0
4774,note_on,0,0,10,,,,,,,,,6,,,,46,55
4774,note_on,0,0,10,,,,,,,,,6,,,,41,55
4774,control_change,0,0,10,,,,,,,,,6,11,62,,,
4774,note_on,18,0,10,,,,,,,,,6,,,,46,0
4775,control_change,18,0,6,,,,,,,,,5,11,52,,,
4775,control_change,18,0,4,,,,,,,,,3,11,55,,,
4788,control_change,18,0,7,,,,,,,,,10,11,65,,,
4788,control_change,18,0,1,,,,,,,,,0,11,57,,,
4789,note_on,1,0,7,,,,,,,,,10,,,,72,0
4790,control_change,18,0,9,,,,,,,,,12,11,65,,,
4790,control_change,18,0,2,,,,,,,,,1,11,57,,,
4790,control_change,18,0,8,,,,,,,,,11,11,65,,,
4791,control_change,18,0,5,,,,,,,,,4,11,54,,,
4791,control_change,18,0,3,,,,,,,,,2,11,57,,,
4792,control_change,18,0,10,,,,,,,,,6,11,65,,,
4793,control_change,18,0,4,,,,,,,,,3,11,57,,,
4793,control_change,18,0,6,,,,,,,,,5,11,54,,,
4798,note_on,7,0,5,,,,,,,,,4,,,,53,0
4800,note_on,0,0,1,,,,,,,,,0,,,,77,0
4800,note_on,7,0,6,,,,,,,,,5,,,,41,0
4800,note_on,11,0,7,,,,,,,,,10,,,,74,103
4800,note_on,12,0,1,,,,,,,,,0,,,,82,0
4802,note_on,12,0,2,,,,,,,,,1,,,,74,0
4802,note_on,0,0,2,,,,,,,,,1,,,,70,0
4802,note_on,12,0,9,,,,,,,,,12,,,,53,0
4802,note_on,0,0,9,,,,,,,,,12,,,,58,68
4802,note_on,12,0,8,,,,,,,,,11,,,,58,0
4802,note_on,0,0,8,,,,,,,,,11,,,,62,70
4803,note_on,5,0,5,,,,,,,,,4,,,,53,82
4804,note_on,0,0,10,,,,,,,,,6,,,,41,0
4804,note_on,12,0,10,,,,,,,,,6,,,,46,0
4804,note_on,0,0,10,,,,,,,,,6,,,,46,55
4804,note_on,0,0,10,,,,,,,,,6,,,,50,55
4805,note_on,5,0,6,,,,,,,,,5,,,,41,82
4805,note_on,0,0,4,,,,,,,,,3,,,,53,0
4805,note_on,120,0,11,,,,,,,,,13,,,,41,0
4805,note_on,12,0,4,,,,,,,,,3,,,,58,0
4806,control_change,6,0,7,,,,,,,,,10,11,68,,,
4806,control_change,6,0,1,,,,,,,,,0,11,59,,,
4808,control_change,6,0,2,,,,,,,,,1,11,59,,,
4808,control_change,6,0,9,,,,,,,,,12,11,68,,,
4808,note_on,120,0,12,,,,,,,,,14,,,,29,0
4808,control_change,6,0,8,,,,,,,,,11,11,68,,,
4809,control_change,6,0,5,,,,,,,,,4,11,56,,,
4809,control_change,18,0,3,,,,,,,,,2,11,59,,,
4810,control_change,6,0,10,,,,,,,,,6,11,68,,,
4811,control_change,6,0,6,,,,,,,,,5,11,56,,,
4811,control_change,6,0,4,,,,,,,,,3,11,59,,,
4824,control_change,18,0,7,,,,,,,,,10,11,71,,,
4824,control_change,18,0,1,,,,,,,,,0,11,61,,,
4826,control_change,18,0,9,,,,,,,,,12,11,71,,,
4826,control_change,18,0,8,,,,,,,,,11,11,71,,,
4826,control_change,18,0,2,,,,,,,,,1,11,61,,,
4827,control_change,18,0,3,,,,,,,,,2,11,61,,,
4827,control_change,18,0,5,,,,,,,,,4,11,58,,,
4828,control_change,18,0,10,,,,,,,,,6,11,71,,,
4829,control_change,18,0,6,,,,,,,,,5,11,58,,,
4829,control_change,18,0,4,,,,,,,,,3,11,61,,,
4832,note_on,6,0,9,,,,,,,,,12,,,,58,0
4832,note_on,0,0,9,,,,,,,,,12,,,,53,68
4832,note_on,6,0,8,,,,,,,,,11,,,,62,0
4832,note_on,0,0,8,,,,,,,,,11,,,,58,70
4834,note_on,0,0,10,,,,,,,,,6,,,,41,55
4834,note_on,0,0,10,,,,,,,,,6,,,,46,55
4834,note_on,0,0,10,,,,,,,,,6,,,,46,0
4834,note_on,6,0,10,,,,,,,,,6,,,,50,0
4842,control_change,18,0,1,,,,,,,,,0,11,62,,,
4842,control_change,18,0,7,,,,,,,,,10,11,74,,,
4844,control_change,12,0,8,,,,,,,,,11,11,74,,,
4844,control_change,18,0,2,,,,,,,,,1,11,62,,,
4844,control_change,12,0,9,,,,,,,,,12,11,74,,,
4845,control_change,18,0,3,,,,,,,,,2,11,62,,,
4845,control_change,18,0,5,,,,,,,,,4,11,60,,,
4846,control_change,12,0,10,,,,,,,,,6,11,74,,,
4847,control_change,18,0,4,,,,,,,,,3,11,62,,,
4847,control_change,18,0,6,,,,,,,,,5,11,60,,,
4849,note_on,7,0,7,,,,,,,,,10,,,,74,0
4857,note_on,13,0,9,,,,,,,,,12,,,,53,0
4857,note_on,13,0,8,,,,,,,,,11,,,,58,0
4858,note_on,13,0,3,,,,,,,,,2,,,,62,0
4858,note_on,13,0,5,,,,,,,,,4,,,,53,0
4859,note_on,0,0,10,,,,,,,,,6,,,,41,0
4859,note_on,13,0,10,,,,,,,,,6,,,,46,0
4860,note_on,13,0,6,,,,,,,,,5,,,,41,0
4860,control_change,11,0,7,,,,,,,,,10,11,77,,,
4860,set_tempo,120,1,0,,,,,,1034483,,,,,,,,
4860,note_on,0,0,7,,,,,,,,,10,,,,77,103
4860,note_on,18,0,1,,,,,,,,,0,,,,77,97
4860,note_on,0,0,1,,,,,,,,,0,,,,81,97
4860,control_change,0,0,1,,,,,,,,,0,11,64,,,
4862,note_on,0,0,8,,,,,,,,,11,,,,63,70
4862,control_change,5,0,8,,,,,,,,,11,11,77,,,
4862,control_change,0,0,2,,,,,,,,,1,11,64,,,
4862,note_on,0,0,2,,,,,,,,,1,,,,72,96
4862,note_on,0,0,9,,,,,,,,,12,,,,57,68
4862,control_change,5,0,9,,,,,,,,,12,11,77,,,
4862,note_on,18,0,2,,,,,,,,,1,,,,75,96
4863,note_on,0,0,5,,,,,,,,,4,,,,53,82
4863,control_change,5,0,5,,,,,,,,,4,11,62,,,
4863,control_change,5,0,3,,,,,,,,,2,11,64,,,
4863,note_on,0,0,3,,,,,,,,,2,,,,63,97
4864,note_on,0,0,10,,,,,,,,,6,,,,48,55
4864,control_change,5,0,10,,,,,,,,,6,11,77,,,
4864,note_on,0,0,10,,,,,,,,,6,,,,51,55
4865,note_on,60,0,11,,,,,,,,,13,,,,41,61
4865,note_on,5,0,6,,,,,,,,,5,,,,41,82
4865,control_change,0,0,6,,,,,,,,,5,11,62,,,
4865,note_on,18,0,4,,,,,,,,,3,,,,53,96
4865,note_on,0,0,4,,,,,,,,,3,,,,60,96
4865,control_change,0,0,4,,,,,,,,,3,11,64,,,
4868,note_on,60,0,12,,,,,,,,,14,,,,29,55
4878,control_change,18,0,1,,,,,,,,,0,11,62,,,
4878,control_change,18,0,7,,,,,,,,,10,11,74,,,
4880,control_change,18,0,2,,,,,,,,,1,11,62,,,
4880,control_change,18,0,8,,,,,,,,,11,11,74,,,
4880,control_change,18,0,9,,,,,,,,,12,11,74,,,
4881,control_change,18,0,5,,,,,,,,,4,11,60,,,
4881,control_change,18,0,3,,,,,,,,,2,11,62,,,
4882,control_change,18,0,10,,,,,,,,,6,11,74,,,
4883,control_change,18,0,6,,,,,,,,,5,11,60,,,
4883,control_change,18,0,4,,,,,,,,,3,11,62,,,
4892,note_on,12,0,9,,,,,,,,,12,,,,57,0
4892,note_on,0,0,9,,,,,,,,,12,,,,53,68
4892,note_on,12,0,8,,,,,,,,,11,,,,63,0
4892,note_on,0,0,8,,,,,,,,,11,,,,57,70
4894,note_on,0,0,10,,,,,,,,,6,,,,48,55
4894,note_on,0,0,10,,,,,,,,,6,,,,41,55
4894,note_on,0,0,10,,,,,,,,,6,,,,51,0
4894,note_on,12,0,10,,,,,,,,,6,,,,48,0
4896,control_change,18,0,1,,,,,,,,,0,11,61,,,
4896,control_change,18,0,7,,,,,,,,,10,11,71,,,
4898,control_change,6,0,8,,,,,,,,,11,11,71,,,
4898,control_change,18,0,2,,,,,,,,,1,11,61,,,
4898,control_change,6,0,9,,,,,,,,,12,11,71,,,
4899,control_change,18,0,3,,,,,,,,,2,11,61,,,
4899,control_change,18,0,5,,,,,,,,,4,11,58,,,
4900,control_change,6,0,10,,,,,,,,,6,11,71,,,
4901,control_change,18,0,4,,,,,,,,,3,11,61,,,
4901,control_change,18,0,6,,,,,,,,,5,11,58,,,
4914,control_change,18,0,7,,,,,,,,,10,11,68,,,
4914,control_change,18,0,1,,,,,,,,,0,11,59,,,
4916,control_change,18,0,9,,,,,,,,,12,11,68,,,
4916,control_change,18,0,8,,,,,,,,,11,11,68,,,
4916,control_change,18,0,2,,,,,,,,,1,11,59,,,
4917,control_change,18,0,5,,,,,,,,,4,11,56,,,
4917,control_change,18,0,3,,,,,,,,,2,11,59,,,
4918,note_on,1,0,5,,,,,,,,,4,,,,53,0
4918,control_change,18,0,10,,,,,,,,,6,11,68,,,
4919,control_change,18,0,6,,,,,,,,,5,11,56,,,
4919,control_change,18,0,4,,,,,,,,,3,11,59,,,
4920,note_on,1,0,6,,,,,,,,,5,,,,41,0
4920,set_tempo,60,1,0,,,,,,937500,,,,,,,,
4920,note_on,6,0,7,,,,,,,,,10,,,,77,0
4920,note_on,0,0,7,,,,,,,,,10,,,,75,103
4922,note_on,0,0,9,,,,,,,,,12,,,,57,68
4922,note_on,6,0,9,,,,,,,,,12,,,,53,0
4922,note_on,6,0,8,,,,,,,,,11,,,,57,0
4922,note_on,0,0,8,,,,,,,,,11,,,,63,70
4923,note_on,5,0,5,,,,,,,,,4,,,,53,82
4924,note_on,0,0,10,,,,,,,,,6,,,,51,55
4924,note_on,0,0,10,,,,,,,,,6,,,,48,55
4924,note_on,0,0,10,,,,,,,,,6,,,,41,0
4924,note_on,6,0,10,,,,,,,,,6,,,,48,0
4925,note_on,5,0,6,,,,,,,,,5,,,,41,82
4932,control_change,12,0,7,,,,,,,,,10,11,65,,,
4932,control_change,18,0,1,,,,,,,,,0,11,57,,,
4934,control_change,18,0,2,,,,,,,,,1,11,57,,,
4934,control_change,12,0,8,,,,,,,,,11,11,65,,,
4934,control_change,12,0,9,,,,,,,,,12,11,65,,,
4935,control_change,12,0,5,,,,,,,,,4,11,54,,,
4935,control_change,18,0,3,,,,,,,,,2,11,57,,,
4936,control_change,12,0,10,,,,,,,,,6,11,65,,,
4937,control_change,18,0,4,,,,,,,,,3,11,57,,,
4937,control_change,12,0,6,,,,,,,,,5,11,54,,,
4950,control_change,18,0,7,,,,,,,,,10,11,62,,,
4950,control_change,18,0,1,,,,,,,,,0,11,55,,,
4952,control_change,0,0,9,,,,,,,,,12,11,62,,,
4952,control_change,18,0,2,,,,,,,,,1,11,55,,,
4952,note_on,18,0,8,,,,,,,,,11,,,,63,0
4952,note_on,0,0,8,,,,,,,,,11,,,,57,70
4952,note_on,18,0,9,,,,,,,,,12,,,,57,0
4952,note_on,0,0,9,,,,,,,,,12,,,,53,68
4952,control_change,0,0,8,,,,,,,,,11,11,62,,,
4953,control_change,18,0,3,,,,,,,,,2,11,55,,,
4953,control_change,18,0,5,,,,,,,,,4,11,52,,,
4954,note_on,0,0,10,,,,,,,,,6,,,,51,0
4954,note_on,0,0,10,,,,,,,,,6,,,,41,55
4954,control_change,0,0,10,,,,,,,,,6,11,62,,,
4954,note_on,0,0,10,,,,,,,,,6,,,,48,55
4954,note_on,18,0,10,,,,,,,,,6,,,,48,0
4955,control_change,18,0,6,,,,,,,,,5,11,52,,,
4955,control_change,18,0,4,,,,,,,,,3,11,55,,,
4968,control_change,18,0,7,,,,,,,,,10,11,59,,,
4968,control_change,18,0,1,,,,,,,,,0,11,54,,,
4970,control_change,18,0,9,,,,,,,,,12,11,59,,,
4970,control_change,18,0,2,,,,,,,,,1,11,54,,,
4970,control_change,18,0,8,,,,,,,,,11,11,59,,,
4971,control_change,18,0,3,,,,,,,,,2,11,54,,,
4971,control_change,18,0,5,,,,,,,,,4,11,50,,,
4972,control_change,18,0,10,,,,,,,,,6,11,59,,,
4973,control_change,18,0,6,,,,,,,,,5,11,50,,,
4973,control_change,18,0,4,,,,,,,,,3,11,54,,,
4975,note_on,7,0,7,,,,,,,,,10,,,,75,0
4978,note_on,7,0,5,,,,,,,,,4,,,,53,0
4980,note_on,5,0,7,,,,,,,,,10,,,,72,103
4980,note_on,7,0,6,,,,,,,,,5,,,,41,0
4980,note_on,0,0,1,,,,,,,,,0,,,,77,0
4980,note_on,12,0,1,,,,,,,,,0,,,,81,0
4982,note_on,0,0,8,,,,,,,,,11,,,,63,70
4982,note_on,12,0,9,,,,,,,,,12,,,,53,0
4982,note_on,12,0,2,,,,,,,,,1,,,,72,0
4982,note_on,0,0,9,,,,,,,,,12,,,,57,68
4982,note_on,12,0,8,,,,,,,,,11,,,,57,0
4982,note_on,0,0,2,,,,,,,,,1,,,,75,0
4983,note_on,5,0,5,,,,,,,,,4,,,,53,82
4984,note_on,0,0,10,,,,,,,,,6,,,,51,55
4984,note_on,0,0,10,,,,,,,,,6,,,,41,0
4984,note_on,12,0,10,,,,,,,,,6,,,,48,0
4984,note_on,0,0,10,,,,,,,,,6,,,,48,55
4985,note_on,120,0,11,,,,,,,,,13,,,,41,0
4985,note_on,5,0,6,,,,,,,,,5,,,,41,82
4985,note_on,0,0,4,,,,,,,,,3,,,,53,0
4985,note_on,12,0,4,,,,,,,,,3,,,,60,0
4986,control_change,6,0,7,,,,,,,,,10,11,56,,,
4986,control_change,6,0,1,,,,,,,,,0,11,52,,,
4988,control_change,6,0,2,,,,,,,,,1,11,52,,,
4988,note_on,120,0,12,,,,,,,,,14,,,,29,0
4988,control_change,6,0,8,,,,,,,,,11,11,56,,,
4988,control_change,6,0,9,,,,,,,,,12,11,56,,,
4989,control_change,18,0,3,,,,,,,,,2,11,52,,,
4989,control_change,6,0,5,,,,,,,,,4,11,48,,,
4990,control_change,6,0,10,,,,,,,,,6,11,56,,,
4991,control_change,6,0,6,,,,,,,,,5,11,48,,,
4991,control_change,6,0,4,,,,,,,,,3,11,52,,,
5004,control_change,18,0,1,,,,,,,,,0,11,51,,,
5004,control_change,18,0,7,,,,,,,,,10,11,53,,,
5006,control_change,18,0,8,,,,,,,,,11,11,53,,,
5006,control_change,18,0,2,,,,,,,,,1,11,51,,,
5006,control_change,18,0,9,,,,,,,,,12,11,53,,,
5007,control_change,18,0,3,,,,,,,,,2,11,51,,,
5007,control_change,18,0,5,,,,,,,,,4,11,46,,,
5008,control_change,18,0,10,,,,,,,,,6,11,53,,,
5009,control_change,18,0,4,,,,,,,,,3,11,51,,,
5009,control_change,18,0,6,,,,,,,,,5,11,46,,,
5010,note_on,6,0,7,,,,,,,,,10,,,,72,0
5010,note_on,0,0,7,,,,,,,,,10,,,,74,103
5012,note_on,6,0,9,,,,,,,,,12,,,,57,0
5012,note_on,0,0,9,,,,,,,,,12,,,,53,68
5012,note_on,6,0,8,,,,,,,,,11,,,,63,0
5012,note_on,0,0,8,,,,,,,,,11,,,,57,70
5014,note_on,0,0,10,,,,,,,,,6,,,,41,55
5014,note_on,0,0,10,,,,,,,,,6,,,,48,55
5014,note_on,0,0,10,,,,,,,,,6,,,,48,0
5014,note_on,6,0,10,,,,,,,,,6,,,,51,0
5022,control_change,12,0,7,,,,,,,,,10,11,50,,,
5022,control_change,18,0,1,,,,,,,,,0,11,49,,,
5024,control_change,12,0,9,,,,,,,,,12,11,50,,,
5024,control_change,12,0,8,,,,,,,,,11,11,50,,,
5024,control_change,18,0,2,,,,,,,,,1,11,49,,,
5025,control_change,18,0,3,,,,,,,,,2,11,49,,,
5025,set_tempo,105,1,0,,,,,,1250000,,,,,,,,
5025,control_change,18,0,5,,,,,,,,,4,11,44,,,
5026,control_change,12,0,10,,,,,,,,,6,11,50,,,
5027,control_change,18,0,6,,,,,,,,,5,11,44,,,
5027,control_change,18,0,4,,,,,,,,,3,11,49,,,
5035,note_on,13,0,7,,,,,,,,,10,,,,74,0
5037,note_on,13,0,9,,,,,,,,,12,,,,53,0
5037,note_on,13,0,8,,,,,,,,,11,,,,57,0
5038,note_on,13,0,5,,,,,,,,,4,,,,53,0
5038,note_on,13,0,3,,,,,,,,,2,,,,63,0
5038,note_on,0,0,3,,,,,,,,,2,,,,65,0
5039,note_on,0,0,10,,,,,,,,,6,,,,48,0
5039,note_on,13,0,10,,,,,,,,,6,,,,41,0
5040,note_on,0,0,7,,,,,,,,,10,,,,70,88
5040,note_on,13,0,6,,,,,,,,,5,,,,41,0
5040,set_tempo,15,1,0,,,,,,1034483,,,,,,,,
5040,control_change,5,0,7,,,,,,,,,10,11,47,,,
5040,note_on,18,0,1,,,,,,,,,0,,,,77,71
5040,control_change,0,0,1,,,,,,,,,0,11,47,,,
5040,note_on,0,0,1,,,,,,,,,0,,,,82,71
5042,note_on,0,0,2,,,,,,,,,1,,,,74,70
5042,note_on,0,0,2,,,,,,,,,1,,,,70,70
5042,control_change,18,0,2,,,,,,,,,1,11,47,,,
5042,control_change,5,0,8,,,,,,,,,11,11,47,,,
5042,note_on,0,0,9,,,,,,,,,12,,,,58,66
5042,control_change,5,0,9,,,,,,,,,12,11,47,,,
5042,note_on,0,0,8,,,,,,,,,11,,,,62,68
5043,note_on,5,0,3,,,,,,,,,2,,,,62,71
5043,note_on,0,0,3,,,,,,,,,2,,,,58,96
5043,note_on,0,0,5,,,,,,,,,4,,,,58,82
5043,control_change,5,0,5,,,,,,,,,4,11,42,,,
5044,note_on,0,0,10,,,,,,,,,6,,,,50,62
5044,control_change,5,0,10,,,,,,,,,6,11,47,,,
5045,control_change,0,0,6,,,,,,,,,5,11,42,,,
5045,note_on,0,0,4,,,,,,,,,3,,,,46,95
5045,note_on,18,0,4,,,,,,,,,3,,,,58,70
5045,note_on,5,0,6,,,,,,,,,5,,,,46,82
5045,note_on,60,0,11,,,,,,,,,13,,,,46,36
5048,note_on,60,0,12,,,,,,,,,14,,,,34,29
5072,note_on,0,0,8,,,,,,,,,11,,,,58,68
5072,note_on,30,0,9,,,,,,,,,12,,,,58,0
5072,note_on,0,0,9,,,,,,,,,12,,,,62,66
5072,note_on,30,0,8,,,,,,,,,11,,,,62,0
5074,note_on,0,0,10,,,,,,,,,6,,,,53,62
5074,note_on,30,0,10,,,,,,,,,6,,,,50,0
5100,set_tempo,60,1,0,,,,,,937500,,,,,,,,
5102,note_on,0,0,8,,,,,,,,,11,,,,65,68
5102,note_on,30,0,8,,,,,,,,,11,,,,58,0
5102,note_on,0,0,9,,,,,,,,,12,,,,65,66
5102,note_on,30,0,9,,,,,,,,,12,,,,62,0
5104,note_on,0,0,10,,,,,,,,,6,,,,50,62
5104,note_on,30,0,10,,,,,,,,,6,,,,53,0
5130,control_change,90,0,7,,,,,,,,,10,11,47,,,
5132,note_on,0,0,8,,,,,,,,,11,,,,62,68
5132,note_on,30,0,8,,,,,,,,,11,,,,65,0
5132,note_on,0,0,9,,,,,,,,,12,,,,62,66
5132,note_on,30,0,9,,,,,,,,,12,,,,65,0
5134,note_on,0,0,10,,,,,,,,,6,,,,53,62
5134,note_on,30,0,10,,,,,,,,,6,,,,50,0
5135,control_change,5,0,7,,,,,,,,,10,11,44,,,
5141,control_change,6,0,7,,,,,,,,,10,11,41,,,
5147,control_change,6,0,7,,,,,,,,,10,11,38,,,
5153,control_change,6,0,7,,,,,,,,,10,11,35,,,
5159,control_change,6,0,7,,,,,,,,,10,11,32,,,
5160,note_on,120,0,1,,,,,,,,,0,,,,82,0
5160,note_on,0,0,1,,,,,,,,,0,,,,77,0
5160,note_on,1,0,7,,,,,,,,,10,,,,70,0
5162,note_on,0,0,9,,,,,,,,,12,,,,65,66
5162,note_on,30,0,8,,,,,,,,,11,,,,62,0
5162,note_on,0,0,8,,,,,,,,,11,,,,65,68
5162,note_on,0,0,2,,,,,,,,,1,,,,70,0
5162,note_on,30,0,9,,,,,,,,,12,,,,62,0
5162,note_on,120,0,2,,,,,,,,,1,,,,74,0
5163,note_on,120,0,3,,,,,,,,,2,,,,62,0
5164,note_on,30,0,10,,,,,,,,,6,,,,53,0
5164,note_on,0,0,10,,,,,,,,,6,,,,50,62
5165,note_on,120,0,11,,,,,,,,,13,,,,46,0
5165,note_on,120,0,4,,,,,,,,,3,,,,58,0
5168,note_on,120,0,12,,,,,,,,,14,,,,34,0
5192,note_on,0,0,9,,,,,,,,,12,,,,62,66
5192,note_on,30,0,9,,,,,,,,,12,,,,65,0
5192,note_on,0,0,8,,,,,,,,,11,,,,62,68
5192,note_on,30,0,8,,,,,,,,,11,,,,65,0
5194,note_on,30,0,10,,,,,,,,,6,,,,50,0
5194,note_on,0,0,10,,,,,,,,,6,,,,53,62
5220,set_tempo,120,1,0,,,,,,1034483,,,,,,,,
5222,note_on,0,0,8,,,,,,,,,11,,,,67,68
5222,note_on,30,0,8,,,,,,,,,11,,,,62,0
5222,note_on,0,0,9,,,,,,,,,12,,,,67,66
5222,note_on,30,0,9,,,,,,,,,12,,,,62,0
5224,note_on,30,0,10,,,,,,,,,6,,,,53,0
5224,note_on,0,0,10,,,,,,,,,6,,,,51,62
5252,note_on,0,0,8,,,,,,,,,11,,,,63,68
5252,note_on,30,0,9,,,,,,,,,12,,,,67,0
5252,note_on,0,0,9,,,,,,,,,12,,,,63,66
5252,note_on,30,0,8,,,,,,,,,11,,,,67,0
5254,note_on,30,0,10,,,,,,,,,6,,,,51,0
5254,note_on,0,0,10,,,,,,,,,6,,,,55,62
5280,set_tempo,60,1,0,,,,,,937500,,,,,,,,
5282,note_on,0,0,9,,,,,,,,,12,,,,65,66
5282,note_on,30,0,9,,,,,,,,,12,,,,63,0
5282,note_on,30,0,8,,,,,,,,,11,,,,63,0
5282,note_on,0,0,8,,,,,,,,,11,,,,65,68
5284,note_on,0,0,10,,,,,,,,,6,,,,50,62
5284,note_on,30,0,10,,,,,,,,,6,,,,55,0
5312,note_on,30,0,8,,,,,,,,,11,,,,65,0
5312,note_on,0,0,8,,,,,,,,,11,,,,62,68
5312,note_on,30,0,9,,,,,,,,,12,,,,65,0
5312,note_on,0,0,9,,,,,,,,,12,,,,62,66
5314,note_on,0,0,10,,,,,,,,,6,,,,53,62
5314,note_on,30,0,10,,,,,,,,,6,,,,50,0
5338,note_on,295,0,5,,,,,,,,,4,,,,58,0
5340,note_on,295,0,6,,,,,,,,,5,,,,46,0
5342,note_on,0,0,8,,,,,,,,,11,,,,65,68
5342,note_on,0,0,9,,,,,,,,,12,,,,65,66
5342,note_on,30,0,8,,,,,,,,,11,,,,62,0
5342,note_on,30,0,9,,,,,,,,,12,,,,62,0
5343,note_on,5,0,5,,,,,,,,,4,,,,58,82
5344,note_on,0,0,10,,,,,,,,,6,,,,50,62
5344,note_on,30,0,10,,,,,,,,,6,,,,53,0
5345,note_on,5,0,6,,,,,,,,,5,,,,46,82
5372,note_on,30,0,9,,,,,,,,,12,,,,65,0
5372,note_on,30,0,8,,,,,,,,,11,,,,65,0
5372,note_on,0,0,8,,,,,,,,,11,,,,62,68
5372,note_on,0,0,9,,,,,,,,,12,,,,62,66
5374,note_on,0,0,10,,,,,,,,,6,,,,53,62
5374,note_on,30,0,10,,,,,,,,,6,,,,50,0
5400,control_change,240,0,7,,,,,,,,,10,11,22,,,
5400,note_on,0,0,7,,,,,,,,,10,,,,84,103
5400,set_tempo,120,1,0,,,,,,1034483,,,,,,,,
5402,note_on,30,0,8,,,,,,,,,11,,,,62,0
5402,note_on,0,0,8,,,,,,,,,11,,,,63,68
5402,note_on,0,0,9,,,,,,,,,12,,,,63,66
5402,note_on,30,0,9,,,,,,,,,12,,,,62,0
5404,note_on,30,0,10,,,,,,,,,6,,,,53,0
5404,note_on,0,0,10,,,,,,,,,6,,,,48,62
5409,note_on,9,0,7,,,,,,,,,10,,,,82,103
5410,note_on,1,0,7,,,,,,,,,10,,,,84,0
5414,control_change,4,0,7,,,,,,,,,10,11,25,,,
5419,note_on,0,0,7,,,,,,,,,10,,,,84,104
5419,note_on,5,0,7,,,,,,,,,10,,,,82,0
5429,note_on,10,0,7,,,,,,,,,10,,,,84,0
5429,control_change,0,0,7,,,,,,,,,10,11,28,,,
5429,note_on,0,0,7,,,,,,,,,10,,,,82,104
5432,note_on,0,0,8,,,,,,,,,11,,,,60,68
5432,note_on,0,0,9,,,,,,,,,12,,,,60,66
5432,note_on,30,0,8,,,,,,,,,11,,,,63,0
5432,note_on,30,0,9,,,,,,,,,12,,,,63,0
5434,note_on,30,0,10,,,,,,,,,6,,,,48,0
5434,note_on,0,0,10,,,,,,,,,6,,,,51,62
5439,note_on,0,0,7,,,,,,,,,10,,,,84,104
5439,note_on,10,0,7,,,,,,,,,10,,,,82,0
5449,control_change,0,0,7,,,,,,,,,10,11,30,,,
5449,note_on,0,0,7,,,,,,,,,10,,,,82,104
5449,note_on,10,0,7,,,,,,,,,10,,,,84,0
5459,note_on,10,0,7,,,,,,,,,10,,,,82,0
5459,note_on,0,0,7,,,,,,,,,10,,,,84,105
5460,set_tempo,60,1,0,,,,,,937500,,,,,,,,
5462,note_on,0,0,9,,,,,,,,,12,,,,62,66
5462,note_on,30,0,9,,,,,,,,,12,,,,60,0
5462,note_on,0,0,8,,,,,,,,,11,,,,62,68
5462,note_on,30,0,8,,,,,,,,,11,,,,60,0
5464,note_on,0,0,10,,,,,,,,,6,,,,46,62
5464,note_on,30,0,10,,,,,,,,,6,,,,51,0
5467,control_change,8,0,7,,,,,,,,,10,11,31,,,
5469,note_on,0,0,7,,,,,,,,,10,,,,82,106
5469,note_on,2,0,7,,,,,,,,,10,,,,84,0
5479,note_on,0,0,7,,,,,,,,,10,,,,84,106
5479,note_on,10,0,7,,,,,,,,,10,,,,82,0
5485,control_change,6,0,7,,,,,,,,,10,11,32,,,
5489,note_on,4,0,7,,,,,,,,,10,,,,84,0
5489,note_on,0,0,7,,,,,,,,,10,,,,82,107
5492,note_on,30,0,9,,,,,,,,,12,,,,62,0
5492,note_on,0,0,9,,,,,,,,,12,,,,58,66
5492,note_on,30,0,8,,,,,,,,,11,,,,62,0
5492,note_on,0,0,8,,,,,,,,,11,,,,58,68
5494,note_on,30,0,10,,,,,,,,,6,,,,46,0
5494,note_on,0,0,10,,,,,,,,,6,,,,50,62
5499,note_on,10,0,7,,,,,,,,,10,,,,82,0
5499,note_on,0,0,7,,,,,,,,,10,,,,84,107
5503,control_change,4,0,7,,,,,,,,,10,11,33,,,
5508,note_on,5,0,7,,,,,,,,,10,,,,82,108
5509,note_on,1,0,7,,,,,,,,,10,,,,84,0
5518,note_on,0,0,7,,,,,,,,,10,,,,84,108
5518,note_on,175,0,5,,,,,,,,,4,,,,58,0
5518,note_on,9,0,7,,,,,,,,,10,,,,82,0
5520,note_on,175,0,6,,,,,,,,,5,,,,46,0
5522,note_on,30,0,9,,,,,,,,,12,,,,58,0
5522,note_on,0,0,9,,,,,,,,,12,,,,62,66
5522,control_change,4,0,7,,,,,,,,,10,11,34,,,
5522,note_on,30,0,8,,,,,,,,,11,,,,58,0
5522,note_on,0,0,8,,,,,,,,,11,,,,62,68
5523,note_on,5,0,5,,,,,,,,,4,,,,58,82
5524,note_on,0,0,10,,,,,,,,,6,,,,46,62
5524,note_on,30,0,10,,,,,,,,,6,,,,50,0
5525,note_on,5,0,6,,,,,,,,,5,,,,46,82
5528,note_on,6,0,7,,,,,,,,,10,,,,84,0
5528,note_on,0,0,7,,,,,,,,,10,,,,82,109
5538,note_on,10,0,7,,,,,,,,,10,,,,82,0
5538,note_on,0,0,7,,,,,,,,,10,,,,84,109
5540,control_change,2,0,7,,,,,,,,,10,11,35,,,
5548,note_on,8,0,7,,,,,,,,,10,,,,84,0
5548,note_on,0,0,7,,,,,,,,,10,,,,82,109
5552,note_on,0,0,8,,,,,,,,,11,,,,58,68
5552,note_on,30,0,8,,,,,,,,,11,,,,62,0
5552,note_on,30,0,9,,,,,,,,,12,,,,62,0
5552,note_on,0,0,9,,,,,,,,,12,,,,58,66
5554,note_on,0,0,10,,,,,,,,,6,,,,50,62
5554,note_on,30,0,10,,,,,,,,,6,,,,46,0
5558,note_on,10,0,7,,,,,,,,,10,,,,82,0
5558,control_change,0,0,7,,,,,,,,,10,11,36,,,
5558,note_on,0,0,7,,,,,,,,,10,,,,84,110
5568,note_on,10,0,7,,,,,,,,,10,,,,84,0
5568,note_on,0,0,7,,,,,,,,,10,,,,82,110
5577,control_change,9,0,7,,,,,,,,,10,11,37,,,
5578,note_on,0,0,7,,,,,,,,,10,,,,84,111
5578,note_on,1,0,7,,,,,,,,,10,,,,82,0
5580,set_tempo,120,1,0,,,,,,1034483,,,,,,,,
5582,note_on,30,0,8,,,,,,,,,11,,,,58,0
5582,note_on,0,0,8,,,,,,,,,11,,,,60,68
5582,note_on,0,0,9,,,,,,,,,12,,,,60,66
5582,note_on,30,0,9,,,,,,,,,12,,,,58,0
5584,note_on,0,0,10,,,,,,,,,6,,,,41,62
5584,note_on,30,0,10,,,,,,,,,6,,,,50,0
5588,note_on,10,0,7,,,,,,,,,10,,,,84,0
5588,note_on,0,0,7,,,,,,,,,10,,,,82,111
5595,control_change,7,0,7,,,,,,,,,10,11,38,,,
5598,note_on,0,0,7,,,,,,,,,10,,,,84,112
5598,note_on,3,0,7,,,,,,,,,10,,,,82,0
5607,note_on,9,0,7,,,,,,,,,10,,,,82,113
5608,note_on,1,0,7,,,,,,,,,10,,,,84,0
5612,note_on,0,0,9,,,,,,,,,12,,,,57,66
5612,note_on,30,0,9,,,,,,,,,12,,,,60,0
5612,note_on,30,0,8,,,,,,,,,11,,,,60,0
5612,note_on,0,0,8,,,,,,,,,11,,,,57,68
5613,control_change,5,0,7,,,,,,,,,10,11,39,,,
5614,note_on,0,0,10,,,,,,,,,6,,,,51,62
5614,note_on,30,0,10,,,,,,,,,6,,,,41,0
5617,note_on,4,0,7,,,,,,,,,10,,,,82,0
5617,note_on,0,0,7,,,,,,,,,10,,,,84,113
5627,note_on,10,0,7,,,,,,,,,10,,,,84,0
5627,note_on,0,0,7,,,,,,,,,10,,,,82,114
5631,control_change,4,0,7,,,,,,,,,10,11,40,,,
5637,note_on,6,0,7,,,,,,,,,10,,,,82,0
5637,note_on,0,0,7,,,,,,,,,10,,,,84,114
5640,set_tempo,60,1,0,,,,,,937500,,,,,,,,
5642,note_on,0,0,8,,,,,,,,,11,,,,62,68
5642,note_on,0,0,9,,,,,,,,,12,,,,62,66
5642,note_on,30,0,9,,,,,,,,,12,,,,57,0
5642,note_on,30,0,8,,,,,,,,,11,,,,57,0
5643,note_on,0,0,3,,,,,,,,,2,,,,70,57
5643,control_change,480,0,3,,,,,,,,,2,11,70,,,
5644,note_on,30,0,10,,,,,,,,,6,,,,51,0
5644,note_on,0,0,10,,,,,,,,,6,,,,50,62
5645,note_on,0,0,4,,,,,,,,,3,,,,58,56
5645,control_change,480,0,4,,,,,,,,,3,11,70,,,
5647,note_on,0,0,7,,,,,,,,,10,,,,82,115
5647,note_on,10,0,7,,,,,,,,,10,,,,84,0
5650,control_change,3,0,7,,,,,,,,,10,11,41,,,
5657,note_on,0,0,7,,,,,,,,,10,,,,84,115
5657,note_on,7,0,7,,,,,,,,,10,,,,82,0
5667,note_on,0,0,7,,,,,,,,,10,,,,82,115
5667,note_on,10,0,7,,,,,,,,,10,,,,84,0
5668,control_change,1,0,7,,,,,,,,,10,11,42,,,
5672,note_on,30,0,9,,,,,,,,,12,,,,62,0
5672,note_on,0,0,9,,,,,,,,,12,,,,58,66
5672,note_on,0,0,8,,,,,,,,,11,,,,58,68
5672,note_on,30,0,8,,,,,,,,,11,,,,62,0
5673,note_on,0,0,3,,,,,,,,,2,,,,72,76
5673,note_on,30,0,3,,,,,,,,,2,,,,70,0
5674,note_on,0,0,10,,,,,,,,,6,,,,53,62
5674,note_on,30,0,10,,,,,,,,,6,,,,50,0
5675,note_on,30,0,4,,,,,,,,,3,,,,58,0
5675,note_on,0,0,4,,,,,,,,,3,,,,60,75
5677,note_on,9,0,7,,,,,,,,,10,,,,82,0
5677,note_on,0,0,7,,,,,,,,,10,,,,84,116
5686,control_change,9,0,7,,,,,,,,,10,11,43,,,
5687,note_on,0,0,7,,,,,,,,,10,,,,82,116
5687,note_on,1,0,7,,,,,,,,,10,,,,84,0
5697,note_on,0,0,7,,,,,,,,,10,,,,84,117
5697,note_on,10,0,7,,,,,,,,,10,,,,82,0
5698,note_on,175,0,5,,,,,,,,,4,,,,58,0
5700,note_on,175,0,6,,,,,,,,,5,,,,46,0
5702,note_on,30,0,9,,,,,,,,,12,,,,58,0
5702,note_on,0,0,9,,,,,,,,,12,,,,62,66
5702,note_on,0,0,8,,,,,,,,,11,,,,62,68
5702,note_on,30,0,8,,,,,,,,,11,,,,58,0
5703,note_on,30,0,3,,,,,,,,,2,,,,72,0
5703,note_on,0,0,3,,,,,,,,,2,,,,74,76
5703,note_on,5,0,5,,,,,,,,,4,,,,58,82
5704,note_on,0,0,10,,,,,,,,,6,,,,50,62
5704,note_on,30,0,10,,,,,,,,,6,,,,53,0
5705,note_on,5,0,6,,,,,,,,,5,,,,46,82
5705,control_change,8,0,7,,,,,,,,,10,11,44,,,
5705,note_on,30,0,4,,,,,,,,,3,,,,60,0
5705,note_on,0,0,4,,,,,,,,,3,,,,62,75
5706,note_on,1,0,7,,,,,,,,,10,,,,82,117
5707,note_on,1,0,7,,,,,,,,,10,,,,84,0
5716,note_on,0,0,7,,,,,,,,,10,,,,84,118
5716,note_on,9,0,7,,,,,,,,,10,,,,82,0
5723,control_change,7,0,7,,,,,,,,,10,11,45,,,
5726,note_on,3,0,7,,,,,,,,,10,,,,84,0
5726,note_on,0,0,7,,,,,,,,,10,,,,82,118
5732,note_on,30,0,8,,,,,,,,,11,,,,62,0
5732,note_on,0,0,8,,,,,,,,,11,,,,58,68
5732,note_on,30,0,9,,,,,,,,,12,,,,62,0
5732,note_on,0,0,9,,,,,,,,,12,,,,58,66
5733,note_on,0,0,3,,,,,,,,,2,,,,72,76
5733,note_on,30,0,3,,,,,,,,,2,,,,74,0
5734,note_on,30,0,10,,,,,,,,,6,,,,50,0
5734,note_on,0,0,10,,,,,,,,,6,,,,53,62
5735,note_on,30,0,4,,,,,,,,,3,,,,62,0
5735,note_on,0,0,4,,,,,,,,,3,,,,60,75
5736,note_on,10,0,7,,,,,,,,,10,,,,82,0
5736,note_on,0,0,7,,,,,,,,,10,,,,84,119
5741,control_change,5,0,7,,,,,,,,,10,11,46,,,
5745,note_on,4,0,7,,,,,,,,,10,,,,81,120
5745,set_tempo,105,1,0,,,,,,1237113,,,,,,,,
5746,note_on,1,0,7,,,,,,,,,10,,,,84,0
5757,note_on,25,0,8,,,,,,,,,11,,,,58,0
5757,note_on,25,0,9,,,,,,,,,12,,,,58,0
5758,note_on,55,0,5,,,,,,,,,4,,,,58,0
5758,note_on,25,0,3,,,,,,,,,2,,,,72,0
5758,note_on,0,0,3,,,,,,,,,2,,,,58,0
5759,note_on,25,0,10,,,,,,,,,6,,,,53,0
5760,note_on,600,0,1,,,,,,,,,0,,,,74,88
5760,note_on,55,0,6,,,,,,,,,5,,,,46,0
5760,set_tempo,15,1,0,,,,,,1034483,,,,,,,,
5760,control_change,0,0,7,,,,,,,,,10,11,47,,,
5760,note_on,14,0,7,,,,,,,,,10,,,,81,0
5760,note_on,25,0,4,,,,,,,,,3,,,,60,0
5760,note_on,0,0,1,,,,,,,,,0,,,,82,88
5760,note_on,0,0,7,,,,,,,,,10,,,,82,88
5760,note_on,0,0,4,,,,,,,,,3,,,,46,0
5762,note_on,600,0,2,,,,,,,,,1,,,,74,87
5762,note_on,5,0,9,,,,,,,,,12,,,,62,66
5762,note_on,5,0,8,,,,,,,,,11,,,,62,68
5763,note_on,5,0,5,,,,,,,,,4,,,,58,82
5763,note_on,0,0,3,,,,,,,,,2,,,,58,59
5763,note_on,5,0,3,,,,,,,,,2,,,,72,76
5764,note_on,5,0,10,,,,,,,,,6,,,,46,62
5765,note_on,5,0,6,,,,,,,,,5,,,,46,82
5765,note_on,600,0,11,,,,,,,,,13,,,,46,52
5765,note_on,5,0,4,,,,,,,,,3,,,,46,58
5765,note_on,0,0,4,,,,,,,,,3,,,,60,75
5768,note_on,600,0,12,,,,,,,,,14,,,,34,45
5792,note_on,30,0,8,,,,,,,,,11,,,,62,0
5792,note_on,0,0,8,,,,,,,,,11,,,,58,68
5792,note_on,0,0,9,,,,,,,,,12,,,,58,66
5792,note_on,30,0,9,,,,,,,,,12,,,,62,0
5794,note_on,30,0,10,,,,,,,,,6,,,,46,0
5794,note_on,0,0,10,,,,,,,,,6,,,,53,62
5820,set_tempo,60,1,0,,,,,,937500,,,,,,,,
5822,note_on,30,0,9,,,,,,,,,12,,,,58,0
5822,note_on,0,0,8,,,,,,,,,11,,,,65,68
5822,note_on,30,0,8,,,,,,,,,11,,,,58,0
5822,note_on,0,0,9,,,,,,,,,12,,,,65,66
5823,note_on,60,0,3,,,,,,,,,2,,,,72,0
5823,note_on,0,0,3,,,,,,,,,2,,,,70,63
5824,note_on,30,0,10,,,,,,,,,6,,,,53,0
5824,note_on,0,0,10,,,,,,,,,6,,,,50,62
5825,note_on,0,0,4,,,,,,,,,3,,,,58,62
5825,note_on,60,0,4,,,,,,,,,3,,,,60,0
5852,note_on,0,0,8,,,,,,,,,11,,,,62,68
5852,note_on,30,0,9,,,,,,,,,12,,,,65,0
5852,note_on,30,0,8,,,,,,,,,11,,,,65,0
5852,note_on,0,0,9,,,,,,,,,12,,,,62,66
5854,note_on,30,0,10,,,,,,,,,6,,,,50,0
5854,note_on,0,0,10,,,,,,,,,6,,,,53,62
5880,note_on,120,0,7,,,,,,,,,10,,,,82,0
5880,note_on,0,0,1,,,,,,,,,0,,,,74,0
5880,note_on,120,0,1,,,,,,,,,0,,,,82,0
5882,note_on,0,0,8,,,,,,,,,11,,,,65,68
5882,note_on,30,0,9,,,,,,,,,12,,,,62,0
5882,note_on,0,0,9,,,,,,,,,12,,,,65,66
5882,note_on,30,0,8,,,,,,,,,11,,,,62,0
5884,note_on,30,0,10,,,,,,,,,6,,,,53,0
5884,note_on,0,0,10,,,,,,,,,6,,,,50,62
5885,note_on,120,0,11,,,,,,,,,13,,,,46,0
5888,note_on,120,0,12,,,,,,,,,14,,,,34,0
5912,note_on,0,0,9,,,,,,,,,12,,,,62,66
5912,note_on,30,0,9,,,,,,,,,12,,,,65,0
5912,note_on,30,0,8,,,,,,,,,11,,,,65,0
5912,note_on,0,0,8,,,,,,,,,11,,,,62,68
5914,note_on,30,0,10,,,,,,,,,6,,,,50,0
5914,note_on,0,0,10,,,,,,,,,6,,,,53,62
5940,set_tempo,120,1,0,,,,,,1034483,,,,,,,,
5942,note_on,30,0,9,,,,,,,,,12,,,,62,0
5942,note_on,30,0,8,,,,,,,,,11,,,,62,0
5942,note_on,0,0,8,,,,,,,,,11,,,,67,68
5942,note_on,0,0,9,,,,,,,,,12,,,,67,66
5943,note_on,120,0,3,,,,,,,,,2,,,,70,0
5944,note_on,30,0,10,,,,,,,,,6,,,,53,0
5944,note_on,0,0,10,,,,,,,,,6,,,,51,62
5945,note_on,120,0,4,,,,,,,,,3,,,,58,0
5972,note_on,0,0,9,,,,,,,,,12,,,,63,66
5972,note_on,30,0,8,,,,,,,,,11,,,,67,0
5972,note_on,30,0,9,,,,,,,,,12,,,,67,0
5972,note_on,0,0,8,,,,,,,,,11,,,,63,68
5974,note_on,30,0,10,,,,,,,,,6,,,,51,0
5974,note_on,0,0,10,,,,,,,,,6,,,,55,62
6000,set_tempo,60,1,0,,,,,,937500,,,,,,,,
6002,note_on,0,0,9,,,,,,,,,12,,,,65,66
6002,note_on,0,0,8,,,,,,,,,11,,,,65,68
6002,note_on,30,0,8,,,,,,,,,11,,,,63,0
6002,note_on,30,0,9,,,,,,,,,12,,,,63,0
6004,note_on,0,0,10,,,,,,,,,6,,,,50,62
6004,note_on,30,0,10,,,,,,,,,6,,,,55,0
6032,note_on,0,0,8,,,,,,,,,11,,,,62,68
6032,note_on,30,0,8,,,,,,,,,11,,,,65,0
6032,note_on,30,0,9,,,,,,,,,12,,,,65,0
6032,note_on,0,0,9,,,,,,,,,12,,,,62,66
6034,note_on,0,0,10,,,,,,,,,6,,,,53,62
6034,note_on,30,0,10,,,,,,,,,6,,,,50,0
6058,note_on,295,0,5,,,,,,,,,4,,,,58,0
6060,note_on,295,0,6,,,,,,,,,5,,,,46,0
6062,note_on,0,0,8,,,,,,,,,11,,,,65,68
6062,note_on,30,0,9,,,,,,,,,12,,,,62,0
6062,note_on,0,0,9,,,,,,,,,12,,,,65,66
6062,note_on,30,0,8,,,,,,,,,11,,,,62,0
6063,note_on,5,0,5,,,,,,,,,4,,,,58,82
6064,note_on,0,0,10,,,,,,,,,6,,,,50,62
6064,note_on,30,0,10,,,,,,,,,6,,,,53,0
6065,note_on,5,0,6,,,,,,,,,5,,,,46,82
6092,note_on,30,0,8,,,,,,,,,11,,,,65,0
6092,note_on,0,0,8,,,,,,,,,11,,,,62,68
6092,note_on,0,0,9,,,,,,,,,12,,,,62,66
6092,note_on,30,0,9,,,,,,,,,12,,,,65,0
6094,note_on,30,0,10,,,,,,,,,6,,,,50,0
6094,note_on,0,0,10,,,,,,,,,6,,,,53,62
6120,control_change,240,0,7,,,,,,,,,10,11,22,,,
6120,set_tempo,120,1,0,,,,,,1034483,,,,,,,,
6120,note_on,0,0,7,,,,,,,,,10,,,,84,103
6122,note_on,30,0,9,,,,,,,,,12,,,,62,0
6122,note_on,30,0,8,,,,,,,,,11,,,,62,0
6122,note_on,0,0,9,,,,,,,,,12,,,,63,66
6122,note_on,0,0,8,,,,,,,,,11,,,,63,68
6124,note_on,30,0,10,,,,,,,,,6,,,,53,0
6124,note_on,0,0,10,,,,,,,,,6,,,,48,62
6129,note_on,9,0,7,,,,,,,,,10,,,,82,103
6130,note_on,1,0,7,,,,,,,,,10,,,,84,0
6130,control_change,0,0,7,,,,,,,,,10,11,25,,,
6139,note_on,9,0,7,,,,,,,,,10,,,,82,0
6139,note_on,0,0,7,,,,,,,,,10,,,,84,104
6141,control_change,2,0,7,,,,,,,,,10,11,28,,,
6149,note_on,0,0,7,,,,,,,,,10,,,,82,104
6149,note_on,8,0,7,,,,,,,,,10,,,,84,0
6152,note_on,0,0,8,,,,,,,,,11,,,,60,68
6152,note_on,30,0,8,,,,,,,,,11,,,,63,0
6152,note_on,30,0,9,,,,,,,,,12,,,,63,0
6152,note_on,0,0,9,,,,,,,,,12,,,,60,66
6154,note_on,0,0,10,,,,,,,,,6,,,,51,62
6154,note_on,30,0,10,,,,,,,,,6,,,,48,0
6159,note_on,0,0,7,,,,,,,,,10,,,,84,104
6159,control_change,0,0,7,,,,,,,,,10,11,30,,,
6159,note_on,10,0,7,,,,,,,,,10,,,,82,0
6169,note_on,10,0,7,,,,,,,,,10,,,,84,0
6169,note_on,0,0,7,,,,,,,,,10,,,,82,104
6177,control_change,8,0,7,,,,,,,,,10,11,31,,,
6179,note_on,0,0,7,,,,,,,,,10,,,,84,105
6179,note_on,2,0,7,,,,,,,,,10,,,,82,0
6180,set_tempo,60,1,0,,,,,,937500,,,,,,,,
6182,note_on,0,0,9,,,,,,,,,12,,,,62,66
6182,note_on,30,0,8,,,,,,,,,11,,,,60,0
6182,note_on,30,0,9,,,,,,,,,12,,,,60,0
6182,note_on,0,0,8,,,,,,,,,11,,,,62,68
6184,note_on,0,0,10,,,,,,,,,6,,,,46,62
6184,note_on,30,0,10,,,,,,,,,6,,,,51,0
6189,note_on,10,0,7,,,,,,,,,10,,,,84,0
6189,note_on,0,0,7,,,,,,,,,10,,,,82,106
6196,control_change,7,0,7,,,,,,,,,10,11,32,,,
6199,note_on,0,0,7,,,,,,,,,10,,,,84,106
6199,note_on,3,0,7,,,,,,,,,10,,,,82,0
6209,note_on,0,0,7,,,,,,,,,10,,,,82,107
6209,note_on,10,0,7,,,,,,,,,10,,,,84,0
6212,note_on,30,0,9,,,,,,,,,12,,,,62,0
6212,note_on,30,0,8,,,,,,,,,11,,,,62,0
6212,note_on,0,0,9,,,,,,,,,12,,,,58,66
6212,note_on,0,0,8,,,,,,,,,11,,,,58,68
6214,note_on,0,0,10,,,,,,,,,6,,,,50,62
6214,note_on,30,0,10,,,,,,,,,6,,,,46,0
6215,control_change,6,0,7,,,,,,,,,10,11,33,,,
6219,note_on,0,0,7,,,,,,,,,10,,,,84,107
6219,note_on,4,0,7,,,,,,,,,10,,,,82,0
6228,note_on,9,0,7,,,,,,,,,10,,,,82,108
6229,note_on,1,0,7,,,,,,,,,10,,,,84,0
6234,control_change,5,0,7,,,,,,,,,10,11,34,,,
6238,note_on,0,0,7,,,,,,,,,10,,,,84,108
6238,note_on,4,0,7,,,,,,,,,10,,,,82,0
6238,note_on,175,0,5,,,,,,,,,4,,,,58,0
6240,note_on,175,0,6,,,,,,,,,5,,,,46,0
6242,note_on,30,0,8,,,,,,,,,11,,,,58,0
6242,note_on,30,0,9,,,,,,,,,12,,,,58,0
6242,note_on,0,0,9,,,,,,,,,12,,,,62,66
6242,note_on,0,0,8,,,,,,,,,11,,,,62,68
6243,note_on,5,0,5,,,,,,,,,4,,,,58,82
6244,note_on,0,0,10,,,,,,,,,6,,,,46,62
6244,note_on,30,0,10,,,,,,,,,6,,,,50,0
6245,note_on,5,0,6,,,,,,,,,5,,,,46,82
6248,note_on,10,0,7,,,,,,,,,10,,,,84,0
6248,note_on,0,0,7,,,,,,,,,10,,,,82,109
6253,control_change,5,0,7,,,,,,,,,10,11,35,,,
6258,note_on,0,0,7,,,,,,,,,10,,,,84,109
6258,note_on,5,0,7,,,,,,,,,10,,,,82,0
6268,note_on,0,0,7,,,,,,,,,10,,,,82,109
6268,note_on,10,0,7,,,,,,,,,10,,,,84,0
6272,note_on,30,0,9,,,,,,,,,12,,,,62,0
6272,note_on,0,0,9,,,,,,,,,12,,,,58,66
6272,note_on,30,0,8,,,,,,,,,11,,,,62,0
6272,note_on,0,0,8,,,,,,,,,11,,,,58,68
6272,control_change,4,0,7,,,,,,,,,10,11,36,,,
6274,note_on,30,0,10,,,,,,,,,6,,,,46,0
6274,note_on,0,0,10,,,,,,,,,6,,,,50,62
6278,note_on,6,0,7,,,,,,,,,10,,,,82,0
6278,note_on,0,0,7,,,,,,,,,10,,,,84,110
6288,note_on,10,0,7,,,,,,,,,10,,,,84,0
6288,note_on,0,0,7,,,,,,,,,10,,,,82,110
6291,control_change,3,0,7,,,,,,,,,10,11,37,,,
6298,note_on,7,0,7,,,,,,,,,10,,,,82,0
6298,note_on,0,0,7,,,,,,,,,10,,,,84,111
6300,set_tempo,120,1,0,,,,,,1034483,,,,,,,,
6302,note_on,0,0,9,,,,,,,,,12,,,,60,66
6302,note_on,30,0,9,,,,,,,,,12,,,,58,0
6302,note_on,0,0,8,,,,,,,,,11,,,,60,68
6302,note_on,30,0,8,,,,,,,,,11,,,,58,0
6304,note_on,0,0,10,,,,,,,,,6,,,,41,62
6304,note_on,30,0,10,,,,,,,,,6,,,,50,0
6308,note_on,10,0,7,,,,,,,,,10,,,,84,0
6308,note_on,0,0,7,,,,,,,,,10,,,,82,111
6310,control_change,2,0,7,,,,,,,,,10,11,38,,,
6318,note_on,8,0,7,,,,,,,,,10,,,,82,0
6318,note_on,0,0,7,,,,,,,,,10,,,,84,112
6327,note_on,9,0,7,,,,,,,,,10,,,,82,113
6328,control_change,0,0,7,,,,,,,,,10,11,39,,,
6328,note_on,1,0,7,,,,,,,,,10,,,,84,0
6332,note_on,0,0,8,,,,,,,,,11,,,,57,68
6332,note_on,30,0,8,,,,,,,,,11,,,,60,0
6332,note_on,0,0,9,,,,,,,,,12,,,,57,66
6332,note_on,30,0,9,,,,,,,,,12,,,,60,0
6334,note_on,30,0,10,,,,,,,,,6,,,,41,0
6334,note_on,0,0,10,,,,,,,,,6,,,,48,62
6337,note_on,9,0,7,,,,,,,,,10,,,,82,0
6337,note_on,0,0,7,,,,,,,,,10,,,,84,113
6347,note_on,0,0,7,,,,,,,,,10,,,,82,114
6347,note_on,10,0,7,,,,,,,,,10,,,,84,0
6347,control_change,0,0,7,,,,,,,,,10,11,40,,,
6357,note_on,10,0,7,,,,,,,,,10,,,,82,0
6357,note_on,0,0,7,,,,,,,,,10,,,,84,114
6360,set_tempo,60,1,0,,,,,,937500,,,,,,,,
6362,note_on,0,0,9,,,,,,,,,12,,,,62,66
6362,note_on,30,0,8,,,,,,,,,11,,,,57,0
6362,note_on,0,0,8,,,,,,,,,11,,,,62,68
6362,note_on,30,0,9,,,,,,,,,12,,,,57,0
6363,note_on,420,0,3,,,,,,,,,2,,,,70,57
6364,note_on,0,0,10,,,,,,,,,6,,,,46,62
6364,note_on,30,0,10,,,,,,,,,6,,,,48,0
6365,note_on,420,0,4,,,,,,,,,3,,,,58,56
6366,control_change,9,0,7,,,,,,,,,10,11,41,,,
6367,note_on,0,0,7,,,,,,,,,10,,,,82,115
6367,note_on,1,0,7,,,,,,,,,10,,,,84,0
6377,note_on,0,0,7,,,,,,,,,10,,,,84,115
6377,note_on,10,0,7,,,,,,,,,10,,,,82,0
6385,control_change,8,0,7,,,,,,,,,10,11,42,,,
6387,note_on,0,0,7,,,,,,,,,10,,,,82,115
6387,note_on,2,0,7,,,,,,,,,10,,,,84,0
6392,note_on,0,0,9,,,,,,,,,12,,,,58,66
6392,note_on,30,0,9,,,,,,,,,12,,,,62,0
6392,note_on,30,0,8,,,,,,,,,11,,,,62,0
6392,note_on,0,0,8,,,,,,,,,11,,,,58,68
6393,note_on,0,0,3,,,,,,,,,2,,,,72,76
6393,note_on,30,0,3,,,,,,,,,2,,,,70,0
6394,note_on,0,0,10,,,,,,,,,6,,,,50,62
6394,note_on,30,0,10,,,,,,,,,6,,,,46,0
6395,note_on,30,0,4,,,,,,,,,3,,,,58,0
6395,note_on,0,0,4,,,,,,,,,3,,,,60,75
6397,note_on,10,0,7,,,,,,,,,10,,,,82,0
6397,note_on,0,0,7,,,,,,,,,10,,,,84,116
6404,control_change,7,0,7,,,,,,,,,10,11,43,,,
6407,note_on,3,0,7,,,,,,,,,10,,,,84,0
6407,note_on,0,0,7,,,,,,,,,10,,,,82,116
6417,note_on,10,0,7,,,,,,,,,10,,,,82,0
6417,note_on,0,0,7,,,,,,,,,10,,,,84,117
6418,note_on,175,0,5,,,,,,,,,4,,,,58,0
6420,note_on,175,0,6,,,,,,,,,5,,,,46,0
6422,note_on,0,0,8,,,,,,,,,11,,,,62,68
6422,note_on,30,0,8,,,,,,,,,11,,,,58,0
6422,note_on,30,0,9,,,,,,,,,12,,,,58,0
6422,note_on,0,0,9,,,,,,,,,12,,,,62,66
6423,control_change,6,0,7,,,,,,,,,10,11,44,,,
6423,note_on,0,0,3,,,,,,,,,2,,,,74,76
6423,note_on,30,0,3,,,,,,,,,2,,,,72,0
6423,note_on,5,0,5,,,,,,,,,4,,,,58,82
6424,note_on,0,0,10,,,,,,,,,6,,,,46,62
6424,note_on,30,0,10,,,,,,,,,6,,,,50,0
6425,note_on,0,0,4,,,,,,,,,3,,,,62,75
6425,note_on,30,0,4,,,,,,,,,3,,,,60,0
6425,note_on,5,0,6,,,,,,,,,5,,,,46,82
6426,note_on,3,0,7,,,,,,,,,10,,,,82,117
6427,note_on,1,0,7,,,,,,,,,10,,,,84,0
6436,note_on,0,0,7,,,,,,,,,10,,,,84,118
6436,note_on,9,0,7,,,,,,,,,10,,,,82,0
6442,control_change,6,0,7,,,,,,,,,10,11,45,,,
6446,note_on,4,0,7,,,,,,,,,10,,,,84,0
6446,note_on,0,0,7,,,,,,,,,10,,,,82,118
6450,note_on,4,0,7,,,,,,,,,10,,,,81,119
6452,note_on,0,0,9,,,,,,,,,12,,,,58,66
6452,note_on,0,0,8,,,,,,,,,11,,,,58,68
6452,note_on,30,0,8,,,,,,,,,11,,,,62,0
6452,note_on,30,0,9,,,,,,,,,12,,,,62,0
6453,note_on,30,0,3,,,,,,,,,2,,,,74,0
6453,note_on,0,0,3,,,,,,,,,2,,,,70,76
6454,note_on,0,0,10,,,,,,,,,6,,,,50,62
6454,note_on,30,0,10,,,,,,,,,6,,,,46,0
6455,note_on,30,0,4,,,,,,,,,3,,,,62,0
6455,note_on,0,0,4,,,,,,,,,3,,,,58,75
6456,note_on,6,0,7,,,,,,,,,10,,,,82,0
6461,control_change,5,0,7,,,,,,,,,10,11,46,,,
6465,note_on,0,0,7,,,,,,,,,10,,,,82,120
6465,note_on,4,0,7,,,,,,,,,10,,,,81,0
6465,set_tempo,105,1,0,,,,,,1224490,,,,,,,,
6477,note_on,25,0,8,,,,,,,,,11,,,,58,0
6477,note_on,25,0,9,,,,,,,,,12,,,,58,0
6477,note_on,715,0,2,,,,,,,,,1,,,,74,0
6478,note_on,0,0,3,,,,,,,,,2,,,,58,0
6478,note_on,55,0,5,,,,,,,,,4,,,,58,0
6478,note_on,25,0,3,,,,,,,,,2,,,,70,0
6479,note_on,25,0,10,,,,,,,,,6,,,,50,0
6480,note_on,0,0,7,,,,,,,,,10,,,,84,88
6480,set_tempo,15,1,0,,,,,,1034483,,,,,,,,
6480,note_on,25,0,4,,,,,,,,,3,,,,58,0
6480,note_on,600,0,1,,,,,,,,,0,,,,84,88
6480,note_on,0,0,1,,,,,,,,,0,,,,81,88
6480,control_change,0,0,7,,,,,,,,,10,11,47,,,
6480,note_on,55,0,6,,,,,,,,,5,,,,46,0
6480,note_on,0,0,4,,,,,,,,,3,,,,46,0
6480,note_on,15,0,7,,,,,,,,,10,,,,82,0
6482,note_on,5,0,9,,,,,,,,,12,,,,63,66
6482,note_on,5,0,2,,,,,,,,,1,,,,77,87
6482,note_on,5,0,8,,,,,,,,,11,,,,63,68
6483,note_on,5,0,5,,,,,,,,,4,,,,53,82
6483,note_on,5,0,3,,,,,,,,,2,,,,65,59
6483,note_on,0,0,3,,,,,,,,,2,,,,69,76
6484,note_on,5,0,10,,,,,,,,,6,,,,41,62
6485,note_on,600,0,11,,,,,,,,,13,,,,41,52
6485,note_on,5,0,6,,,,,,,,,5,,,,41,82
6485,note_on,5,0,4,,,,,,,,,3,,,,57,75
6485,note_on,0,0,4,,,,,,,,,3,,,,53,58
6488,note_on,600,0,12,,,,,,,,,14,,,,29,45
6493,note_on,0,0,3,,,,,,,,,2,,,,70,76
6493,note_on,10,0,3,,,,,,,,,2,,,,69,0
6495,note_on,0,0,4,,,,,,,,,3,,,,58,75
6495,note_on,10,0,4,,,,,,,,,3,,,,57,0
6503,note_on,0,0,3,,,,,,,,,2,,,,72,76
6503,note_on,10,0,3,,,,,,,,,2,,,,70,0
6505,note_on,10,0,4,,,,,,,,,3,,,,58,0
6505,note_on,0,0,4,,,,,,,,,3,,,,60,75
6512,note_on,0,0,9,,,,,,,,,12,,,,57,66
6512,note_on,0,0,8,,,,,,,,,11,,,,57,68
6512,note_on,30,0,9,,,,,,,,,12,,,,63,0
6512,note_on,30,0,8,,,,,,,,,11,,,,63,0
6513,note_on,0,0,3,,,,,,,,,2,,,,70,76
6513,note_on,10,0,3,,,,,,,,,2,,,,72,0
6514,note_on,30,0,10,,,,,,,,,6,,,,41,0
6514,note_on,0,0,10,,,,,,,,,6,,,,48,62
6515,note_on,0,0,4,,,,,,,,,3,,,,58,75
6515,note_on,10,0,4,,,,,,,,,3,,,,60,0
6540,set_tempo,60,1,0,,,,,,937500,,,,,,,,
6542,note_on,0,0,9,,,,,,,,,12,,,,63,66
6542,note_on,0,0,8,,,,,,,,,11,,,,63,68
6542,note_on,30,0,8,,,,,,,,,11,,,,57,0
6542,note_on,30,0,9,,,,,,,,,12,,,,57,0
6543,note_on,30,0,3,,,,,,,,,2,,,,70,0
6543,note_on,0,0,3,,,,,,,,,2,,,,69,63
6544,note_on,30,0,10,,,,,,,,,6,,,,48,0
6544,note_on,0,0,10,,,,,,,,,6,,,,48,62
6545,note_on,0,0,4,,,,,,,,,3,,,,57,62
6545,note_on,30,0,4,,,,,,,,,3,,,,58,0
6572,note_on,30,0,9,,,,,,,,,12,,,,63,0
6572,note_on,0,0,9,,,,,,,,,12,,,,60,66
6572,note_on,0,0,8,,,,,,,,,11,,,,60,68
6572,note_on,30,0,8,,,,,,,,,11,,,,63,0
6574,note_on,0,0,10,,,,,,,,,6,,,,51,62
6574,note_on,30,0,10,,,,,,,,,6,,,,48,0
6600,note_on,0,0,1,,,,,,,,,0,,,,84,0
6600,note_on,120,0,7,,,,,,,,,10,,,,84,0
6600,note_on,120,0,1,,,,,,,,,0,,,,81,0
6602,note_on,0,0,9,,,,,,,,,12,,,,63,66
6602,note_on,30,0,9,,,,,,,,,12,,,,60,0
6602,note_on,0,0,8,,,,,,,,,11,,,,63,68
6602,note_on,30,0,8,,,,,,,,,11,,,,60,0
6604,note_on,0,0,10,,,,,,,,,6,,,,48,62
6604,note_on,30,0,10,,,,,,,,,6,,,,51,0
6605,note_on,120,0,11,,,,,,,,,13,,,,41,0
6608,note_on,120,0,12,,,,,,,,,14,,,,29,0
6632,note_on,30,0,9,,,,,,,,,12,,,,63,0
6632,note_on,0,0,9,,,,,,,,,12,,,,60,66
6632,note_on,0,0,8,,,,,,,,,11,,,,60,68
6632,note_on,30,0,8,,,,,,,,,11,,,,63,0
6634,note_on,30,0,10,,,,,,,,,6,,,,48,0
6634,note_on,0,0,10,,,,,,,,,6,,,,51,62
6660,set_tempo,120,1,0,,,,,,1034483,,,,,,,,
6662,note_on,30,0,9,,,,,,,,,12,,,,60,0
6662,note_on,30,0,8,,,,,,,,,11,,,,60,0
6662,note_on,0,0,8,,,,,,,,,11,,,,65,68
6662,note_on,0,0,9,,,,,,,,,12,,,,65,66
6663,note_on,120,0,3,,,,,,,,,2,,,,69,0
6664,note_on,0,0,10,,,,,,,,,6,,,,50,62
6664,note_on,30,0,10,,,,,,,,,6,,,,51,0
6665,note_on,120,0,4,,,,,,,,,3,,,,57,0
6692,note_on,0,0,8,,,,,,,,,11,,,,62,68
6692,note_on,0,0,9,,,,,,,,,12,,,,62,66
6692,note_on,30,0,9,,,,,,,,,12,,,,65,0
6692,note_on,30,0,8,,,,,,,,,11,,,,65,0
6694,note_on,0,0,10,,,,,,,,,6,,,,53,62
6694,note_on,30,0,10,,,,,,,,,6,,,,50,0
6720,set_tempo,60,1,0,,,,,,937500,,,,,,,,
6722,note_on,0,0,8,,,,,,,,,11,,,,63,68
6722,note_on,0,0,9,,,,,,,,,12,,,,63,66
6722,note_on,30,0,8,,,,,,,,,11,,,,62,0
6722,note_on,30,0,9,,,,,,,,,12,,,,62,0
6724,note_on,0,0,10,,,,,,,,,6,,,,48,62
6724,note_on,30,0,10,,,,,,,,,6,,,,53,0
6752,note_on,30,0,9,,,,,,,,,12,,,,63,0
6752,note_on,0,0,8,,,,,,,,,11,,,,60,68
6752,note_on,0,0,9,,,,,,,,,12,,,,60,66
6752,note_on,30,0,8,,,,,,,,,11,,,,63,0
6754,note_on,30,0,10,,,,,,,,,6,,,,48,0
6754,note_on,0,0,10,,,,,,,,,6,,,,51,62
6778,note_on,295,0,5,,,,,,,,,4,,,,53,0
6780,note_on,295,0,6,,,,,,,,,5,,,,41,0
6782,note_on,30,0,9,,,,,,,,,12,,,,60,0
6782,note_on,0,0,8,,,,,,,,,11,,,,63,68
6782,note_on,30,0,8,,,,,,,,,11,,,,60,0
6782,note_on,0,0,9,,,,,,,,,12,,,,63,66
6783,note_on,5,0,5,,,,,,,,,4,,,,53,82
6784,note_on,0,0,10,,,,,,,,,6,,,,48,62
6784,note_on,30,0,10,,,,,,,,,6,,,,51,0
6785,note_on,5,0,6,,,,,,,,,5,,,,41,82
6812,note_on,30,0,9,,,,,,,,,12,,,,63,0
6812,note_on,0,0,8,,,,,,,,,11,,,,60,68
6812,note_on,0,0,9,,,,,,,,,12,,,,60,66
6812,note_on,30,0,8,,,,,,,,,11,,,,63,0
6814,note_on,30,0,10,,,,,,,,,6,,,,48,0
6814,note_on,0,0,10,,,,,,,,,6,,,,51,62
6840,control_change,240,0,7,,,,,,,,,10,11,22,,,
6840,note_on,0,0,7,,,,,,,,,10,,,,86,103
6840,set_tempo,120,1,0,,,,,,1034483,,,,,,,,
6842,note_on,30,0,8,,,,,,,,,11,,,,60,0
6842,note_on,0,0,8,,,,,,,,,11,,,,62,68
6842,note_on,30,0,9,,,,,,,,,12,,,,60,0
6842,note_on,0,0,9,,,,,,,,,12,,,,62,66
6844,note_on,0,0,10,,,,,,,,,6,,,,46,62
6844,note_on,30,0,10,,,,,,,,,6,,,,51,0
6849,note_on,9,0,7,,,,,,,,,10,,,,84,103
6850,control_change,0,0,7,,,,,,,,,10,11,25,,,
6850,note_on,1,0,7,,,,,,,,,10,,,,86,0
6859,note_on,9,0,7,,,,,,,,,10,,,,84,0
6859,note_on,0,0,7,,,,,,,,,10,,,,86,104
6861,control_change,2,0,7,,,,,,,,,10,11,28,,,
6869,note_on,0,0,7,,,,,,,,,10,,,,84,104
6869,note_on,8,0,7,,,,,,,,,10,,,,86,0
6872,note_on,0,0,9,,,,,,,,,12,,,,58,66
6872,note_on,0,0,8,,,,,,,,,11,,,,58,68
6872,note_on,30,0,8,,,,,,,,,11,,,,62,0
6872,note_on,30,0,9,,,,,,,,,12,,,,62,0
6874,note_on,30,0,10,,,,,,,,,6,,,,46,0
6874,note_on,0,0,10,,,,,,,,,6,,,,50,62
6879,note_on,10,0,7,,,,,,,,,10,,,,84,0
6879,note_on,0,0,7,,,,,,,,,10,,,,86,104
6879,control_change,0,0,7,,,,,,,,,10,11,30,,,
6889,note_on,10,0,7,,,,,,,,,10,,,,86,0
6889,note_on,0,0,7,,,,,,,,,10,,,,84,104
6897,control_change,8,0,7,,,,,,,,,10,11,31,,,
6899,note_on,0,0,7,,,,,,,,,10,,,,86,105
6899,note_on,2,0,7,,,,,,,,,10,,,,84,0
6900,set_tempo,60,1,0,,,,,,937500,,,,,,,,
6902,note_on,30,0,8,,,,,,,,,11,,,,58,0
6902,note_on,0,0,9,,,,,,,,,12,,,,60,66
6902,note_on,30,0,9,,,,,,,,,12,,,,58,0
6902,note_on,0,0,8,,,,,,,,,11,,,,60,68
6904,note_on,30,0,10,,,,,,,,,6,,,,50,0
6904,note_on,0,0,10,,,,,,,,,6,,,,45,62
6909,note_on,10,0,7,,,,,,,,,10,,,,86,0
6909,note_on,0,0,7,,,,,,,,,10,,,,84,106
6916,control_change,7,0,7,,,,,,,,,10,11,32,,,
6919,note_on,3,0,7,,,,,,,,,10,,,,84,0
6919,note_on,0,0,7,,,,,,,,,10,,,,86,106
6929,note_on,10,0,7,,,,,,,,,10,,,,86,0
6929,note_on,0,0,7,,,,,,,,,10,,,,84,107
6932,note_on,30,0,9,,,,,,,,,12,,,,60,0
6932,note_on,0,0,9,,,,,,,,,12,,,,57,66
6932,note_on,30,0,8,,,,,,,,,11,,,,60,0
6932,note_on,0,0,8,,,,,,,,,11,,,,57,68
6934,note_on,0,0,10,,,,,,,,,6,,,,48,62
6934,note_on,30,0,10,,,,,,,,,6,,,,45,0
6935,control_change,6,0,7,,,,,,,,,10,11,33,,,
6939,note_on,4,0,7,,,,,,,,,10,,,,84,0
6939,note_on,0,0,7,,,,,,,,,10,,,,86,107
6948,note_on,9,0,7,,,,,,,,,10,,,,84,108
6949,note_on,1,0,7,,,,,,,,,10,,,,86,0
6954,control_change,5,0,7,,,,,,,,,10,11,34,,,
6958,note_on,4,0,7,,,,,,,,,10,,,,84,0
6958,note_on,0,0,7,,,,,,,,,10,,,,86,108
6958,note_on,175,0,5,,,,,,,,,4,,,,53,0
6960,note_on,175,0,6,,,,,,,,,5,,,,41,0
6962,note_on,0,0,9,,,,,,,,,12,,,,60,66
6962,note_on,0,0,8,,,,,,,,,11,,,,60,68
6962,note_on,30,0,8,,,,,,,,,11,,,,57,0
6962,note_on,30,0,9,,,,,,,,,12,,,,57,0
6963,note_on,5,0,5,,,,,,,,,4,,,,53,82
6964,note_on,30,0,10,,,,,,,,,6,,,,48,0
6964,note_on,0,0,10,,,,,,,,,6,,,,45,62
6965,note_on,5,0,6,,,,,,,,,5,,,,41,82
6968,note_on,10,0,7,,,,,,,,,10,,,,86,0
6968,note_on,0,0,7,,,,,,,,,10,,,,84,109
6973,control_change,5,0,7,,,,,,,,,10,11,35,,,
6978,note_on,5,0,7,,,,,,,,,10,,,,84,0
6978,note_on,0,0,7,,,,,,,,,10,,,,86,109
6988,note_on,10,0,7,,,,,,,,,10,,,,86,0
6988,note_on,0,0,7,,,,,,,,,10,,,,84,109
6991,control_change,3,0,7,,,,,,,,,10,11,36,,,
6992,note_on,0,0,9,,,,,,,,,12,,,,57,66
6992,note_on,0,0,8,,,,,,,,,11,,,,57,68
6992,note_on,30,0,9,,,,,,,,,12,,,,60,0
6992,note_on,30,0,8,,,,,,,,,11,,,,60,0
6994,note_on,30,0,10,,,,,,,,,6,,,,45,0
6994,note_on,0,0,10,,,,,,,,,6,,,,48,62
6998,note_on,7,0,7,,,,,,,,,10,,,,84,0
6998,note_on,0,0,7,,,,,,,,,10,,,,86,110
7008,note_on,10,0,7,,,,,,,,,10,,,,86,0
7008,note_on,0,0,7,,,,,,,,,10,,,,84,110
7010,control_change,2,0,7,,,,,,,,,10,11,37,,,
7018,note_on,8,0,7,,,,,,,,,10,,,,84,0
7018,note_on,0,0,7,,,,,,,,,10,,,,86,111
7020,set_tempo,120,1,0,,,,,,1034483,,,,,,,,
7022,note_on,0,0,9,,,,,,,,,12,,,,58,66
7022,note_on,30,0,9,,,,,,,,,12,,,,57,0
7022,note_on,0,0,8,,,,,,,,,11,,,,58,68
7022,note_on,30,0,8,,,,,,,,,11,,,,57,0
7024,note_on,0,0,10,,,,,,,,,6,,,,43,62
7024,note_on,30,0,10,,,,,,,,,6,,,,48,0
7028,note_on,10,0,7,,,,,,,,,10,,,,86,0
7028,note_on,0,0,7,,,,,,,,,10,,,,84,111
7029,control_change,1,0,7,,,,,,,,,10,11,38,,,
7038,note_on,9,0,7,,,,,,,,,10,,,,84,0
7038,note_on,0,0,7,,,,,,,,,10,,,,86,112
7047,note_on,9,0,7,,,,,,,,,10,,,,84,113
7048,note_on,1,0,7,,,,,,,,,10,,,,86,0
7048,control_change,0,0,7,,,,,,,,,10,11,39,,,
7052,note_on,30,0,8,,,,,,,,,11,,,,58,0
7052,note_on,0,0,8,,,,,,,,,11,,,,55,68
7052,note_on,0,0,9,,,,,,,,,12,,,,55,66
7052,note_on,30,0,9,,,,,,,,,12,,,,58,0
7054,note_on,0,0,10,,,,,,,,,6,,,,46,62
7054,note_on,30,0,10,,,,,,,,,6,,,,43,0
7057,note_on,9,0,7,,,,,,,,,10,,,,84,0
7057,note_on,0,0,7,,,,,,,,,10,,,,86,113
7067,control_change,0,0,7,,,,,,,,,10,11,40,,,
7067,note_on,10,0,7,,,,,,,,,10,,,,86,0
7067,note_on,0,0,7,,,,,,,,,10,,,,84,114
7077,note_on,0,0,7,,,,,,,,,10,,,,86,114
7077,note_on,10,0,7,,,,,,,,,10,,,,84,0
7080,set_tempo,60,1,0,,,,,,937500,,,,,,,,
7082,note_on,30,0,9,,,,,,,,,12,,,,55,0
7082,note_on,0,0,9,,,,,,,,,12,,,,60,66
7082,note_on,30,0,8,,,,,,,,,11,,,,55,0
7082,note_on,0,0,8,,,,,,,,,11,,,,60,68
7083,note_on,420,0,3,,,,,,,,,2,,,,72,57
7084,note_on,30,0,10,,,,,,,,,6,,,,46,0
7084,note_on,0,0,10,,,,,,,,,6,,,,41,62
7085,note_on,420,0,4,,,,,,,,,3,,,,60,56
7086,control_change,9,0,7,,,,,,,,,10,11,41,,,
7087,note_on,1,0,7,,,,,,,,,10,,,,86,0
7087,note_on,0,0,7,,,,,,,,,10,,,,84,115
7097,note_on,0,0,7,,,,,,,,,10,,,,86,115
7097,note_on,10,0,7,,,,,,,,,10,,,,84,0
7104,control_change,7,0,7,,,,,,,,,10,11,42,,,
7107,note_on,3,0,7,,,,,,,,,10,,,,86,0
7107,note_on,0,0,7,,,,,,,,,10,,,,84,115
7112,note_on,0,0,8,,,,,,,,,11,,,,57,68
7112,note_on,0,0,9,,,,,,,,,12,,,,57,66
7112,note_on,30,0,9,,,,,,,,,12,,,,60,0
7112,note_on,30,0,8,,,,,,,,,11,,,,60,0
7113,note_on,0,0,3,,,,,,,,,2,,,,74,76
7113,note_on,30,0,3,,,,,,,,,2,,,,72,0
7114,note_on,0,0,10,,,,,,,,,6,,,,48,62
7114,note_on,30,0,10,,,,,,,,,6,,,,41,0
7115,note_on,0,0,4,,,,,,,,,3,,,,62,75
7115,note_on,30,0,4,,,,,,,,,3,,,,60,0
7117,note_on,0,0,7,,,,,,,,,10,,,,86,116
7117,note_on,10,0,7,,,,,,,,,10,,,,84,0
7123,control_change,6,0,7,,,,,,,,,10,11,43,,,
7127,note_on,0,0,7,,,,,,,,,10,,,,84,116
7127,note_on,4,0,7,,,,,,,,,10,,,,86,0
7137,note_on,0,0,7,,,,,,,,,10,,,,86,117
7137,note_on,10,0,7,,,,,,,,,10,,,,84,0
7138,note_on,175,0,5,,,,,,,,,4,,,,53,0
7140,note_on,175,0,6,,,,,,,,,5,,,,41,0
7142,note_on,0,0,8,,,,,,,,,11,,,,60,68
7142,note_on,30,0,8,,,,,,,,,11,,,,57,0
7142,control_change,5,0,7,,,,,,,,,10,11,44,,,
7142,note_on,30,0,9,,,,,,,,,12,,,,57,0
7142,note_on,0,0,9,,,,,,,,,12,,,,60,66
7143,note_on,5,0,5,,,,,,,,,4,,,,53,82
7143,note_on,30,0,3,,,,,,,,,2,,,,74,0
7143,note_on,0,0,3,,,,,,,,,2,,,,75,76
7144,note_on,0,0,10,,,,,,,,,6,,,,41,62
7144,note_on,30,0,10,,,,,,,,,6,,,,48,0
7145,note_on,30,0,4,,,,,,,,,3,,,,62,0
7145,note_on,0,0,4,,,,,,,,,3,,,,63,75
7145,note_on,5,0,6,,,,,,,,,5,,,,41,82
7146,note_on,4,0,7,,,,,,,,,10,,,,84,117
7147,note_on,1,0,7,,,,,,,,,10,,,,86,0
7156,note_on,0,0,7,,,,,,,,,10,,,,86,118
7156,note_on,9,0,7,,,,,,,,,10,,,,84,0
7161,control_change,5,0,7,,,,,,,,,10,11,45,,,
7166,note_on,0,0,7,,,,,,,,,10,,,,84,118
7166,note_on,5,0,7,,,,,,,,,10,,,,86,0
7172,note_on,30,0,9,,,,,,,,,12,,,,60,0
7172,note_on,30,0,8,,,,,,,,,11,,,,60,0
7172,note_on,0,0,8,,,,,,,,,11,,,,57,68
7172,note_on,0,0,9,,,,,,,,,12,,,,57,66
7173,note_on,30,0,3,,,,,,,,,2,,,,75,0
7173,note_on,0,0,3,,,,,,,,,2,,,,74,76
7174,note_on,0,0,10,,,,,,,,,6,,,,48,62
7174,note_on,30,0,10,,,,,,,,,6,,,,41,0
7175,note_on,30,0,4,,,,,,,,,3,,,,63,0
7175,note_on,0,0,4,,,,,,,,,3,,,,62,75
7176,note_on,10,0,7,,,,,,,,,10,,,,84,0
7176,note_on,0,0,7,,,,,,,,,10,,,,86,119
7180,control_change,4,0,7,,,,,,,,,10,11,46,,,
7185,set_tempo,105,1,0,,,,,,1212121,,,,,,,,
7185,note_on,5,0,7,,,,,,,,,10,,,,83,120
7186,note_on,1,0,7,,,,,,,,,10,,,,86,0
7197,note_on,25,0,8,,,,,,,,,11,,,,57,0
7197,note_on,25,0,9,,,,,,,,,12,,,,57,0
7197,note_on,715,0,2,,,,,,,,,1,,,,77,0
7198,note_on,25,0,3,,,,,,,,,2,,,,74,0
7198,note_on,0,0,3,,,,,,,,,2,,,,65,0
7198,note_on,55,0,5,,,,,,,,,4,,,,53,0
7199,note_on,25,0,10,,,,,,,,,6,,,,48,0
7199,control_change,13,0,7,,,,,,,,,10,11,47,,,
7200,set_tempo,15,1,0,,,,,,1034483,,,,,,,,
7200,note_on,0,0,1,,,,,,,,,0,,,,81,88
7200,note_on,0,0,7,,,,,,,,,10,,,,84,88
7200,note_on,600,0,1,,,,,,,,,0,,,,84,88
7200,note_on,0,0,4,,,,,,,,,3,,,,53,0
7200,note_on,55,0,6,,,,,,,,,5,,,,41,0
7200,note_on,25,0,4,,,,,,,,,3,,,,62,0
7200,note_on,1,0,7,,,,,,,,,10,,,,83,0
7202,note_on,5,0,9,,,,,,,,,12,,,,60,66
7202,note_on,5,0,2,,,,,,,,,1,,,,77,87
7202,note_on,5,0,8,,,,,,,,,11,,,,60,68
7203,note_on,5,0,3,,,,,,,,,2,,,,65,59
7203,note_on,0,0,3,,,,,,,,,2,,,,74,76
7203,note_on,5,0,5,,,,,,,,,4,,,,53,82
7204,note_on,5,0,10,,,,,,,,,6,,,,41,62
7205,note_on,5,0,6,,,,,,,,,5,,,,41,82
7205,note_on,5,0,4,,,,,,,,,3,,,,53,58
7205,note_on,600,0,11,,,,,,,,,13,,,,41,52
7205,note_on,0,0,4,,,,,,,,,3,,,,62,75
7208,note_on,600,0,12,,,,,,,,,14,,,,29,45
7232,note_on,30,0,8,,,,,,,,,11,,,,60,0
7232,note_on,0,0,8,,,,,,,,,11,,,,57,68
7232,note_on,0,0,9,,,,,,,,,12,,,,57,66
7232,note_on,30,0,9,,,,,,,,,12,,,,60,0
7234,note_on,30,0,10,,,,,,,,,6,,,,41,0
7234,note_on,0,0,10,,,,,,,,,6,,,,48,62
7260,set_tempo,60,1,0,,,,,,937500,,,,,,,,
7262,note_on,0,0,8,,,,,,,,,11,,,,63,68
7262,note_on,0,0,9,,,,,,,,,12,,,,63,66
7262,note_on,30,0,9,,,,,,,,,12,,,,57,0
7262,note_on,30,0,8,,,,,,,,,11,,,,57,0
7263,note_on,0,0,3,,,,,,,,,2,,,,72,55
7263,note_on,60,0,3,,,,,,,,,2,,,,74,0
7264,note_on,0,0,10,,,,,,,,,6,,,,48,62
7264,note_on,30,0,10,,,,,,,,,6,,,,48,0
7265,note_on,0,0,4,,,,,,,,,3,,,,60,54
7265,note_on,60,0,4,,,,,,,,,3,,,,62,0
7292,note_on,30,0,9,,,,,,,,,12,,,,63,0
7292,note_on,0,0,9,,,,,,,,,12,,,,60,66
7292,note_on,0,0,8,,,,,,,,,11,,,,60,68
7292,note_on,30,0,8,,,,,,,,,11,,,,63,0
7294,note_on,30,0,10,,,,,,,,,6,,,,48,0
7294,note_on,0,0,10,,,,,,,,,6,,,,51,62
7320,note_on,120,0,7,,,,,,,,,10,,,,84,0
7320,note_on,0,0,1,,,,,,,,,0,,,,84,0
7320,note_on,120,0,1,,,,,,,,,0,,,,81,0
7322,note_on,0,0,8,,,,,,,,,11,,,,63,68
7322,note_on,30,0,8,,,,,,,,,11,,,,60,0
7322,note_on,30,0,9,,,,,,,,,12,,,,60,0
7322,note_on,0,0,9,,,,,,,,,12,,,,63,66
7324,note_on,0,0,10,,,,,,,,,6,,,,48,62
7324,note_on,30,0,10,,,,,,,,,6,,,,51,0
7325,note_on,120,0,11,,,,,,,,,13,,,,41,0
7328,note_on,120,0,12,,,,,,,,,14,,,,29,0
7352,note_on,30,0,9,,,,,,,,,12,,,,63,0
7352,note_on,30,0,8,,,,,,,,,11,,,,63,0
7352,note_on,0,0,8,,,,,,,,,11,,,,60,68
7352,note_on,0,0,9,,,,,,,,,12,,,,60,66
7354,note_on,30,0,10,,,,,,,,,6,,,,48,0
7354,note_on,0,0,10,,,,,,,,,6,,,,51,62
7380,set_tempo,120,1,0,,,,,,1034483,,,,,,,,
7382,note_on,30,0,9,,,,,,,,,12,,,,60,0
7382,note_on,0,0,8,,,,,,,,,11,,,,65,68
7382,note_on,0,0,9,,,,,,,,,12,,,,65,66
7382,note_on,30,0,8,,,,,,,,,11,,,,60,0
7383,note_on,120,0,3,,,,,,,,,2,,,,72,0
7384,note_on,30,0,10,,,,,,,,,6,,,,51,0
7384,note_on,0,0,10,,,,,,,,,6,,,,50,62
7385,note_on,120,0,4,,,,,,,,,3,,,,60,0
7412,note_on,30,0,8,,,,,,,,,11,,,,65,0
7412,note_on,0,0,9,,,,,,,,,12,,,,62,66
7412,note_on,30,0,9,,,,,,,,,12,,,,65,0
7412,note_on,0,0,8,,,,,,,,,11,,,,62,68
7414,note_on,0,0,10,,,,,,,,,6,,,,53,62
7414,note_on,30,0,10,,,,,,,,,6,,,,50,0
7440,set_tempo,60,1,0,,,,,,937500,,,,,,,,
7442,note_on,30,0,8,,,,,,,,,11,,,,62,0
7442,note_on,0,0,8,,,,,,,,,11,,,,63,68
7442,note_on,0,0,9,,,,,,,,,12,,,,63,66
7442,note_on,30,0,9,,,,,,,,,12,,,,62,0
7444,note_on,0,0,10,,,,,,,,,6,,,,48,62
7444,note_on,30,0,10,,,,,,,,,6,,,,53,0
7472,note_on,0,0,9,,,,,,,,,12,,,,60,66
7472,note_on,30,0,8,,,,,,,,,11,,,,63,0
7472,note_on,30,0,9,,,,,,,,,12,,,,63,0
7472,note_on,0,0,8,,,,,,,,,11,,,,60,68
7474,note_on,0,0,10,,,,,,,,,6,,,,51,62
7474,note_on,30,0,10,,,,,,,,,6,,,,48,0
7498,note_on,295,0,5,,,,,,,,,4,,,,53,0
7500,note_on,295,0,6,,,,,,,,,5,,,,41,0
7502,note_on,30,0,8,,,,,,,,,11,,,,60,0
7502,note_on,0,0,8,,,,,,,,,11,,,,63,68
7502,note_on,0,0,9,,,,,,,,,12,,,,63,66
7502,note_on,30,0,9,,,,,,,,,12,,,,60,0
7503,note_on,5,0,5,,,,,,,,,4,,,,53,82
7504,note_on,0,0,10,,,,,,,,,6,,,,48,62
7504,note_on,30,0,10,,,,,,,,,6,,,,51,0
7505,note_on,5,0,6,,,,,,,,,5,,,,41,82
7532,note_on,0,0,9,,,,,,,,,12,,,,60,66
7532,note_on,30,0,9,,,,,,,,,12,,,,63,0
7532,note_on,30,0,8,,,,,,,,,11,,,,63,0
7532,note_on,0,0,8,,,,,,,,,11,,,,60,68
7534,note_on,30,0,10,,,,,,,,,6,,,,48,0
7534,note_on,0,0,10,,,,,,,,,6,,,,51,62
7560,note_on,0,0,7,,,,,,,,,10,,,,86,103
7560,control_change,240,0,7,,,,,,,,,10,11,22,,,
7560,set_tempo,120,1,0,,,,,,1034483,,,,,,,,
7562,note_on,30,0,8,,,,,,,,,11,,,,60,0
7562,note_on,0,0,8,,,,,,,,,11,,,,62,68
7562,note_on,30,0,9,,,,,,,,,12,,,,60,0
7562,note_on,0,0,9,,,,,,,,,12,,,,62,66
7564,note_on,30,0,10,,,,,,,,,6,,,,51,0
7564,note_on,0,0,10,,,,,,,,,6,,,,46,62
7569,note_on,9,0,7,,,,,,,,,10,,,,84,103
7570,control_change,0,0,7,,,,,,,,,10,11,25,,,
7570,note_on,1,0,7,,,,,,,,,10,,,,86,0
7579,note_on,9,0,7,,,,,,,,,10,,,,84,0
7579,note_on,0,0,7,,,,,,,,,10,,,,86,104
7581,control_change,2,0,7,,,,,,,,,10,11,28,,,
7589,note_on,8,0,7,,,,,,,,,10,,,,86,0
7589,note_on,0,0,7,,,,,,,,,10,,,,84,104
7592,note_on,30,0,8,,,,,,,,,11,,,,62,0
7592,note_on,0,0,8,,,,,,,,,11,,,,58,68
7592,note_on,30,0,9,,,,,,,,,12,,,,62,0
7592,note_on,0,0,9,,,,,,,,,12,,,,58,66
7594,note_on,0,0,10,,,,,,,,,6,,,,50,62
7594,note_on,30,0,10,,,,,,,,,6,,,,46,0
7599,control_change,0,0,7,,,,,,,,,10,11,30,,,
7599,note_on,10,0,7,,,,,,,,,10,,,,84,0
7599,note_on,0,0,7,,,,,,,,,10,,,,86,104
7609,note_on,10,0,7,,,,,,,,,10,,,,86,0
7609,note_on,0,0,7,,,,,,,,,10,,,,84,104
7617,control_change,8,0,7,,,,,,,,,10,11,31,,,
7619,note_on,2,0,7,,,,,,,,,10,,,,84,0
7619,note_on,0,0,7,,,,,,,,,10,,,,86,105
7620,set_tempo,60,1,0,,,,,,937500,,,,,,,,
7622,note_on,0,0,8,,,,,,,,,11,,,,60,68
7622,note_on,30,0,8,,,,,,,,,11,,,,58,0
7622,note_on,30,0,9,,,,,,,,,12,,,,58,0
7622,note_on,0,0,9,,,,,,,,,12,,,,60,66
7624,note_on,0,0,10,,,,,,,,,6,,,,45,62
7624,note_on,30,0,10,,,,,,,,,6,,,,50,0
7629,note_on,10,0,7,,,,,,,,,10,,,,86,0
7629,note_on,0,0,7,,,,,,,,,10,,,,84,106
7636,control_change,7,0,7,,,,,,,,,10,11,32,,,
7639,note_on,0,0,7,,,,,,,,,10,,,,86,106
7639,note_on,3,0,7,,,,,,,,,10,,,,84,0
7649,note_on,0,0,7,,,,,,,,,10,,,,84,107
7649,note_on,10,0,7,,,,,,,,,10,,,,86,0
7652,note_on,0,0,9,,,,,,,,,12,,,,57,66
7652,note_on,30,0,9,,,,,,,,,12,,,,60,0
7652,note_on,30,0,8,,,,,,,,,11,,,,60,0
7652,note_on,0,0,8,,,,,,,,,11,,,,57,68
7654,note_on,30,0,10,,,,,,,,,6,,,,45,0
7654,note_on,0,0,10,,,,,,,,,6,,,,48,62
7655,control_change,6,0,7,,,,,,,,,10,11,33,,,
7659,note_on,4,0,7,,,,,,,,,10,,,,84,0
7659,note_on,0,0,7,,,,,,,,,10,,,,86,107
7668,note_on,9,0,7,,,,,,,,,10,,,,84,108
7669,note_on,1,0,7,,,,,,,,,10,,,,86,0
7674,control_change,5,0,7,,,,,,,,,10,11,34,,,
7678,note_on,175,0,5,,,,,,,,,4,,,,53,0
7678,note_on,4,0,7,,,,,,,,,10,,,,84,0
7678,note_on,0,0,7,,,,,,,,,10,,,,86,108
7680,note_on,175,0,6,,,,,,,,,5,,,,41,0
7682,note_on,30,0,9,,,,,,,,,12,,,,57,0
7682,note_on,30,0,8,,,,,,,,,11,,,,57,0
7682,note_on,0,0,8,,,,,,,,,11,,,,60,68
7682,note_on,0,0,9,,,,,,,,,12,,,,60,66
7683,note_on,5,0,5,,,,,,,,,4,,,,53,82
7684,note_on,30,0,10,,,,,,,,,6,,,,48,0
7684,note_on,0,0,10,,,,,,,,,6,,,,45,62
7685,note_on,5,0,6,,,,,,,,,5,,,,41,82
7688,note_on,10,0,7,,,,,,,,,10,,,,86,0
7688,note_on,0,0,7,,,,,,,,,10,,,,84,109
7693,control_change,5,0,7,,,,,,,,,10,11,35,,,
7698,note_on,5,0,7,,,,,,,,,10,,,,84,0
7698,note_on,0,0,7,,,,,,,,,10,,,,86,109
7708,note_on,0,0,7,,,,,,,,,10,,,,84,109
7708,note_on,10,0,7,,,,,,,,,10,,,,86,0
7712,note_on,30,0,9,,,,,,,,,12,,,,60,0
7712,control_change,4,0,7,,,,,,,,,10,11,36,,,
7712,note_on,0,0,8,,,,,,,,,11,,,,57,68
7712,note_on,30,0,8,,,,,,,,,11,,,,60,0
7712,note_on,0,0,9,,,,,,,,,12,,,,57,66
7714,note_on,0,0,10,,,,,,,,,6,,,,48,62
7714,note_on,30,0,10,,,,,,,,,6,,,,45,0
7718,note_on,0,0,7,,,,,,,,,10,,,,86,110
7718,note_on,6,0,7,,,,,,,,,10,,,,84,0
7728,note_on,10,0,7,,,,,,,,,10,,,,86,0
7728,note_on,0,0,7,,,,,,,,,10,,,,84,110
7731,control_change,3,0,7,,,,,,,,,10,11,37,,,
7738,note_on,7,0,7,,,,,,,,,10,,,,84,0
7738,note_on,0,0,7,,,,,,,,,10,,,,86,111
7740,set_tempo,120,1,0,,,,,,1034483,,,,,,,,
7742,note_on,0,0,9,,,,,,,,,12,,,,58,66
7742,note_on,30,0,9,,,,,,,,,12,,,,57,0
7742,note_on,0,0,8,,,,,,,,,11,,,,58,68
7742,note_on,30,0,8,,,,,,,,,11,,,,57,0
7744,note_on,30,0,10,,,,,,,,,6,,,,48,0
7744,note_on,0,0,10,,,,,,,,,6,,,,43,62
7748,note_on,10,0,7,,,,,,,,,10,,,,86,0
7748,note_on,0,0,7,,,,,,,,,10,,,,84,111
7750,control_change,2,0,7,,,,,,,,,10,11,38,,,
7758,note_on,8,0,7,,,,,,,,,10,,,,84,0
7758,note_on,0,0,7,,,,,,,,,10,,,,86,112
7767,note_on,9,0,7,,,,,,,,,10,,,,84,113
7768,control_change,0,0,7,,,,,,,,,10,11,39,,,
7768,note_on,1,0,7,,,,,,,,,10,,,,86,0
7772,note_on,0,0,9,,,,,,,,,12,,,,55,66
7772,note_on,30,0,9,,,,,,,,,12,,,,58,0
7772,note_on,30,0,8,,,,,,,,,11,,,,58,0
7772,note_on,0,0,8,,,,,,,,,11,,,,55,68
7774,note_on,0,0,10,,,,,,,,,6,,,,46,62
7774,note_on,30,0,10,,,,,,,,,6,,,,43,0
7777,note_on,9,0,7,,,,,,,,,10,,,,84,0
7777,note_on,0,0,7,,,,,,,,,10,,,,86,113
7787,note_on,10,0,7,,,,,,,,,10,,,,86,0
7787,control_change,0,0,7,,,,,,,,,10,11,40,,,
7787,note_on,0,0,7,,,,,,,,,10,,,,84,114
7797,note_on,0,0,7,,,,,,,,,10,,,,86,114
7797,note_on,10,0,7,,,,,,,,,10,,,,84,0
7800,set_tempo,60,1,0,,,,,,937500,,,,,,,,
7802,note_on,30,0,9,,,,,,,,,12,,,,55,0
7802,note_on,0,0,8,,,,,,,,,11,,,,60,68
7802,note_on,30,0,8,,,,,,,,,11,,,,55,0
7802,note_on,0,0,9,,,,,,,,,12,,,,60,66
7803,note_on,420,0,3,,,,,,,,,2,,,,72,57
7804,note_on,30,0,10,,,,,,,,,6,,,,46,0
7804,note_on,0,0,10,,,,,,,,,6,,,,41,62
7805,note_on,480,0,11,,,,,,,,,13,,,,53,55
7805,note_on,420,0,4,,,,,,,,,3,,,,60,56
7806,control_change,9,0,7,,,,,,,,,10,11,41,,,
7807,note_on,1,0,7,,,,,,,,,10,,,,86,0
7807,note_on,0,0,7,,,,,,,,,10,,,,84,115
7808,note_on,480,0,12,,,,,,,,,14,,,,41,48
7817,note_on,10,0,7,,,,,,,,,10,,,,84,0
7817,note_on,0,0,7,,,,,,,,,10,,,,86,115
7825,control_change,8,0,7,,,,,,,,,10,11,42,,,
7827,note_on,2,0,7,,,,,,,,,10,,,,86,0
7827,note_on,0,0,7,,,,,,,,,10,,,,84,115
7832,note_on,0,0,8,,,,,,,,,11,,,,57,68
7832,note_on,30,0,9,,,,,,,,,12,,,,60,0
7832,note_on,0,0,9,,,,,,,,,12,,,,57,66
7832,note_on,30,0,8,,,,,,,,,11,,,,60,0
7834,note_on,30,0,10,,,,,,,,,6,,,,41,0
7834,note_on,0,0,10,,,,,,,,,6,,,,48,62
7837,note_on,0,0,7,,,,,,,,,10,,,,86,116
7837,note_on,10,0,7,,,,,,,,,10,,,,84,0
7844,control_change,7,0,7,,,,,,,,,10,11,43,,,
7847,note_on,0,0,7,,,,,,,,,10,,,,84,116
7847,note_on,3,0,7,,,,,,,,,10,,,,86,0
7857,note_on,0,0,7,,,,,,,,,10,,,,86,117
7857,note_on,10,0,7,,,,,,,,,10,,,,84,0
7858,note_on,175,0,5,,,,,,,,,4,,,,53,0
7860,note_on,175,0,6,,,,,,,,,5,,,,41,0
7862,note_on,30,0,8,,,,,,,,,11,,,,57,0
7862,note_on,30,0,9,,,,,,,,,12,,,,57,0
7862,note_on,0,0,9,,,,,,,,,12,,,,60,66
7862,note_on,0,0,8,,,,,,,,,11,,,,60,68
7863,note_on,0,0,3,,,,,,,,,2,,,,74,76
7863,note_on,60,0,3,,,,,,,,,2,,,,72,0
7863,note_on,5,0,5,,,,,,,,,4,,,,53,82
7863,control_change,6,0,7,,,,,,,,,10,11,44,,,
7864,note_on,30,0,10,,,,,,,,,6,,,,48,0
7864,note_on,0,0,10,,,,,,,,,6,,,,41,62
7865,note_on,60,0,11,,,,,,,,,13,,,,53,0
7865,note_on,0,0,11,,,,,,,,,13,,,,51,55
7865,note_on,60,0,4,,,,,,,,,3,,,,60,0
7865,note_on,0,0,4,,,,,,,,,3,,,,62,75
7865,note_on,5,0,6,,,,,,,,,5,,,,41,82
7866,note_on,3,0,7,,,,,,,,,10,,,,84,117
7867,note_on,1,0,7,,,,,,,,,10,,,,86,0
7868,note_on,0,0,12,,,,,,,,,14,,,,39,48
7868,note_on,60,0,12,,,,,,,,,14,,,,41,0
7876,note_on,9,0,7,,,,,,,,,10,,,,84,0
7876,note_on,0,0,7,,,,,,,,,10,,,,86,118
7882,control_change,6,0,7,,,,,,,,,10,11,45,,,
7886,note_on,4,0,7,,,,,,,,,10,,,,86,0
7886,note_on,0,0,7,,,,,,,,,10,,,,84,118
7890,note_on,4,0,7,,,,,,,,,10,,,,82,119
7892,note_on,30,0,8,,,,,,,,,11,,,,60,0
7892,note_on,0,0,8,,,,,,,,,11,,,,57,68
7892,note_on,30,0,9,,,,,,,,,12,,,,60,0
7892,note_on,0,0,9,,,,,,,,,12,,,,57,66
7893,note_on,30,0,3,,,,,,,,,2,,,,74,0
7893,note_on,0,0,3,,,,,,,,,2,,,,75,76
7894,note_on,30,0,10,,,,,,,,,6,,,,41,0
7894,note_on,0,0,10,,,,,,,,,6,,,,48,62
7895,note_on,30,0,4,,,,,,,,,3,,,,62,0
7895,note_on,0,0,4,,,,,,,,,3,,,,63,75
7896,note_on,6,0,7,,,,,,,,,10,,,,84,0
7901,control_change,5,0,7,,,,,,,,,10,11,46,,,
7905,set_tempo,105,1,0,,,,,,1212121,,,,,,,,
7905,note_on,4,0,7,,,,,,,,,10,,,,82,0
7905,note_on,0,0,7,,,,,,,,,10,,,,84,120
7917,note_on,715,0,2,,,,,,,,,1,,,,77,0
7917,note_on,25,0,8,,,,,,,,,11,,,,57,0
7917,note_on,25,0,9,,,,,,,,,12,,,,57,0
7918,note_on,55,0,5,,,,,,,,,4,,,,53,0
7918,note_on,0,0,3,,,,,,,,,2,,,,65,0
7918,note_on,25,0,3,,,,,,,,,2,,,,75,0
7919,note_on,25,0,10,,,,,,,,,6,,,,48,0
7920,control_change,0,0,7,,,,,,,,,10,11,47,,,
7920,note_on,600,0,1,,,,,,,,,0,,,,82,76
7920,note_on,0,0,1,,,,,,,,,0,,,,86,76
7920,note_on,0,0,7,,,,,,,,,10,,,,86,88
7920,note_on,55,0,6,,,,,,,,,5,,,,41,0
7920,control_change,0,0,1,,,,,,,,,0,11,47,,,
7920,note_on,25,0,4,,,,,,,,,3,,,,63,0
7920,note_on,15,0,7,,,,,,,,,10,,,,84,0
7920,note_on,0,0,4,,,,,,,,,3,,,,53,0
7920,set_tempo,15,1,0,,,,,,1034483,,,,,,,,
7922,control_change,5,0,8,,,,,,,,,11,11,47,,,
7922,note_on,0,0,9,,,,,,,,,12,,,,58,66
7922,note_on,0,0,8,,,,,,,,,11,,,,62,68
7922,note_on,0,0,2,,,,,,,,,1,,,,82,87
7922,control_change,0,0,2,,,,,,,,,1,11,47,,,
7922,note_on,5,0,2,,,,,,,,,1,,,,77,87
7922,control_change,5,0,9,,,,,,,,,12,11,47,,,
7923,control_change,5,0,5,,,,,,,,,4,11,42,,,
7923,control_change,5,0,3,,,,,,,,,2,11,70,,,
7923,note_on,0,0,3,,,,,,,,,2,,,,77,76
7923,note_on,0,0,3,,,,,,,,,2,,,,70,59
7923,note_on,0,0,5,,,,,,,,,4,,,,58,82
7924,note_on,0,0,10,,,,,,,,,6,,,,50,52
7924,note_on,0,0,10,,,,,,,,,6,,,,46,52
7924,control_change,5,0,10,,,,,,,,,6,11,47,,,
7925,control_change,0,0,4,,,,,,,,,3,11,70,,,
7925,note_on,0,0,6,,,,,,,,,5,,,,46,82
7925,note_on,5,0,4,,,,,,,,,3,,,,65,75
7925,note_on,0,0,4,,,,,,,,,3,,,,58,58
7925,control_change,5,0,6,,,,,,,,,5,11,42,,,
7925,note_on,0,0,11,,,,,,,,,13,,,,50,55
7925,note_on,60,0,11,,,,,,,,,13,,,,51,0
7928,note_on,60,0,12,,,,,,,,,14,,,,39,0
7928,note_on,0,0,12,,,,,,,,,14,,,,38,48
7940,control_change,18,0,8,,,,,,,,,11,11,48,,,
7940,control_change,20,0,1,,,,,,,,,0,11,48,,,
7940,control_change,18,0,9,,,,,,,,,12,11,48,,,
7942,control_change,20,0,2,,,,,,,,,1,11,48,,,
7942,control_change,18,0,10,,,,,,,,,6,11,48,,,
7943,control_change,20,0,5,,,,,,,,,4,11,43,,,
7943,control_change,20,0,3,,,,,,,,,2,11,70,,,
7945,control_change,20,0,6,,,,,,,,,5,11,43,,,
7945,control_change,20,0,4,,,,,,,,,3,11,70,,,
7952,note_on,0,0,8,,,,,,,,,11,,,,58,68
7952,note_on,12,0,8,,,,,,,,,11,,,,62,0
7952,note_on,12,0,9,,,,,,,,,12,,,,58,0
7952,note_on,0,0,9,,,,,,,,,12,,,,53,66
7954,note_on,0,0,10,,,,,,,,,6,,,,46,52
7954,note_on,0,0,10,,,,,,,,,6,,,,46,0
7954,note_on,12,0,10,,,,,,,,,6,,,,50,0
7954,note_on,0,0,10,,,,,,,,,6,,,,38,52
7958,control_change,6,0,9,,,,,,,,,12,11,49,,,
7958,control_change,6,0,8,,,,,,,,,11,11,49,,,
7960,control_change,6,0,10,,,,,,,,,6,11,49,,,
7961,control_change,21,0,1,,,,,,,,,0,11,49,,,
7963,control_change,21,0,2,,,,,,,,,1,11,49,,,
7964,control_change,21,0,5,,,,,,,,,4,11,44,,,
7964,control_change,21,0,3,,,,,,,,,2,11,71,,,
7966,control_change,21,0,6,,,,,,,,,5,11,44,,,
7966,control_change,21,0,4,,,,,,,,,3,11,71,,,
7976,control_change,18,0,9,,,,,,,,,12,11,50,,,
7976,control_change,18,0,8,,,,,,,,,11,11,50,,,
7978,control_change,18,0,10,,,,,,,,,6,11,50,,,
7980,set_tempo,60,1,0,,,,,,937500,,,,,,,,
7981,control_change,20,0,1,,,,,,,,,0,11,50,,,
7982,note_on,0,0,9,,,,,,,,,12,,,,58,66
7982,note_on,6,0,8,,,,,,,,,11,,,,58,0
7982,note_on,0,0,8,,,,,,,,,11,,,,62,68
7982,note_on,6,0,9,,,,,,,,,12,,,,53,0
7983,control_change,20,0,2,,,,,,,,,1,11,50,,,
7984,note_on,0,0,10,,,,,,,,,6,,,,38,0
7984,note_on,0,0,10,,,,,,,,,6,,,,46,52
7984,note_on,6,0,10,,,,,,,,,6,,,,46,0
7984,control_change,20,0,5,,,,,,,,,4,11,45,,,
7984,control_change,20,0,3,,,,,,,,,2,11,72,,,
7984,note_on,0,0,10,,,,,,,,,6,,,,50,52
7986,control_change,20,0,4,,,,,,,,,3,11,72,,,
7986,control_change,20,0,6,,,,,,,,,5,11,45,,,
7994,control_change,12,0,9,,,,,,,,,12,11,51,,,
7994,control_change,12,0,8,,,,,,,,,11,11,51,,,
7996,control_change,12,0,10,,,,,,,,,6,11,51,,,
8002,control_change,21,0,1,,,,,,,,,0,11,51,,,
8004,control_change,21,0,2,,,,,,,,,1,11,51,,,
8005,control_change,21,0,5,,,,,,,,,4,11,46,,,
8005,control_change,21,0,3,,,,,,,,,2,11,73,,,
8007,control_change,21,0,6,,,,,,,,,5,11,46,,,
8007,control_change,21,0,4,,,,,,,,,3,11,73,,,
8012,note_on,0,0,8,,,,,,,,,11,,,,58,68
8012,control_change,0,0,8,,,,,,,,,11,11,52,,,
8012,note_on,18,0,9,,,,,,,,,12,,,,58,0
8012,note_on,18,0,8,,,,,,,,,11,,,,62,0
8012,control_change,0,0,9,,,,,,,,,12,11,52,,,
8012,note_on,0,0,9,,,,,,,,,12,,,,53,66
8014,note_on,0,0,10,,,,,,,,,6,,,,46,0
8014,control_change,0,0,10,,,,,,,,,6,11,52,,,
8014,note_on,0,0,10,,,,,,,,,6,,,,38,52
8014,note_on,18,0,10,,,,,,,,,6,,,,50,0
8014,note_on,0,0,10,,,,,,,,,6,,,,46,52
8022,control_change,20,0,1,,,,,,,,,0,11,52,,,
8024,control_change,20,0,2,,,,,,,,,1,11,52,,,
8025,control_change,20,0,3,,,,,,,,,2,11,74,,,
8025,control_change,20,0,5,,,,,,,,,4,11,47,,,
8027,control_change,20,0,4,,,,,,,,,3,11,74,,,
8027,control_change,20,0,6,,,,,,,,,5,11,47,,,
8030,control_change,18,0,8,,,,,,,,,11,11,53,,,
8030,control_change,18,0,9,,,,,,,,,12,11,53,,,
8032,control_change,18,0,10,,,,,,,,,6,11,53,,,
8040,note_on,18,0,1,,,,,,,,,0,,,,86,0
8040,note_on,0,0,1,,,,,,,,,0,,,,82,0
8040,note_on,120,0,7,,,,,,,,,10,,,,86,0
8042,note_on,0,0,9,,,,,,,,,12,,,,58,66
8042,note_on,12,0,9,,,,,,,,,12,,,,53,0
8042,note_on,0,0,8,,,,,,,,,11,,,,62,68
8042,note_on,12,0,8,,,,,,,,,11,,,,58,0
8043,control_change,3,0,1,,,,,,,,,0,11,52,,,
8044,note_on,0,0,10,,,,,,,,,6,,,,50,52
8044,note_on,0,0,10,,,,,,,,,6,,,,46,52
8044,note_on,0,0,10,,,,,,,,,6,,,,38,0
8044,note_on,12,0,10,,,,,,,,,6,,,,46,0
8045,control_change,21,0,2,,,,,,,,,1,11,52,,,
8045,note_on,120,0,11,,,,,,,,,13,,,,50,0
8046,control_change,21,0,5,,,,,,,,,4,11,48,,,
8046,control_change,21,0,3,,,,,,,,,2,11,75,,,
8048,control_change,21,0,4,,,,,,,,,3,11,75,,,
8048,control_change,21,0,6,,,,,,,,,5,11,48,,,
8048,control_change,6,0,8,,,,,,,,,11,11,54,,,
8048,note_on,120,0,12,,,,,,,,,14,,,,38,0
8048,control_change,6,0,9,,,,,,,,,12,11,54,,,
8050,control_change,6,0,10,,,,,,,,,6,11,54,,,
8064,control_change,21,0,1,,,,,,,,,0,11,53,,,
8066,control_change,18,0,8,,,,,,,,,11,11,55,,,
8066,control_change,18,0,9,,,,,,,,,12,11,55,,,
8066,control_change,21,0,2,,,,,,,,,1,11,53,,,
8067,control_change,21,0,3,,,,,,,,,2,11,76,,,
8067,control_change,21,0,5,,,,,,,,,4,11,49,,,
8068,control_change,18,0,10,,,,,,,,,6,11,55,,,
8069,control_change,21,0,4,,,,,,,,,3,11,76,,,
8069,control_change,21,0,6,,,,,,,,,5,11,49,,,
8072,note_on,0,0,8,,,,,,,,,11,,,,58,68
8072,note_on,0,0,9,,,,,,,,,12,,,,53,66
8072,note_on,6,0,9,,,,,,,,,12,,,,58,0
8072,note_on,6,0,8,,,,,,,,,11,,,,62,0
8074,note_on,0,0,10,,,,,,,,,6,,,,46,52
8074,note_on,0,0,10,,,,,,,,,6,,,,38,52
8074,note_on,0,0,10,,,,,,,,,6,,,,46,0
8074,note_on,6,0,10,,,,,,,,,6,,,,50,0
8084,control_change,12,0,8,,,,,,,,,11,11,56,,,
8084,control_change,12,0,9,,,,,,,,,12,11,56,,,
8084,control_change,20,0,1,,,,,,,,,0,11,54,,,
8086,control_change,20,0,2,,,,,,,,,1,11,54,,,
8086,control_change,12,0,10,,,,,,,,,6,11,56,,,
8087,control_change,20,0,3,,,,,,,,,2,11,76,,,
8087,control_change,20,0,5,,,,,,,,,4,11,50,,,
8089,control_change,20,0,6,,,,,,,,,5,11,50,,,
8089,control_change,20,0,4,,,,,,,,,3,11,76,,,
8100,note_on,0,0,7,,,,,,,,,10,,,,84,103
8100,control_change,60,0,7,,,,,,,,,10,11,37,,,
8100,set_tempo,120,1,0,,,,,,1034483,,,,,,,,
8102,control_change,0,0,9,,,,,,,,,12,11,57,,,
8102,note_on,0,0,9,,,,,,,,,12,,,,58,66
8102,note_on,0,0,8,,,,,,,,,11,,,,62,68
8102,control_change,0,0,8,,,,,,,,,11,11,57,,,
8102,note_on,18,0,8,,,,,,,,,11,,,,58,0
8102,note_on,18,0,9,,,,,,,,,12,,,,53,0
8104,note_on,18,0,10,,,,,,,,,6,,,,46,0
8104,note_on,0,0,10,,,,,,,,,6,,,,38,0
8104,note_on,0,0,10,,,,,,,,,6,,,,46,52
8104,note_on,0,0,10,,,,,,,,,6,,,,50,52
8104,control_change,0,0,10,,,,,,,,,6,11,57,,,
8105,control_change,21,0,1,,,,,,,,,0,11,55,,,
8107,control_change,21,0,2,,,,,,,,,1,11,55,,,
8108,control_change,21,0,3,,,,,,,,,2,11,77,,,
8108,control_change,21,0,5,,,,,,,,,4,11,51,,,
8109,note_on,9,0,7,,,,,,,,,10,,,,82,103
8110,control_change,21,0,4,,,,,,,,,3,11,77,,,
8110,control_change,21,0,6,,,,,,,,,5,11,51,,,
8110,note_on,1,0,7,,,,,,,,,10,,,,84,0
8119,note_on,0,0,7,,,,,,,,,10,,,,84,103
8119,note_on,9,0,7,,,,,,,,,10,,,,82,0
8120,control_change,18,0,8,,,,,,,,,11,11,58,,,
8120,control_change,18,0,9,,,,,,,,,12,11,58,,,
8122,control_change,3,0,7,,,,,,,,,10,11,39,,,
8122,control_change,18,0,10,,,,,,,,,6,11,58,,,
8125,control_change,20,0,1,,,,,,,,,0,11,55,,,
8127,control_change,20,0,2,,,,,,,,,1,11,55,,,
8128,control_change,20,0,5,,,,,,,,,4,11,52,,,
8128,control_change,20,0,3,,,,,,,,,2,11,78,,,
8129,note_on,7,0,7,,,,,,,,,10,,,,84,0
8129,note_on,0,0,7,,,,,,,,,10,,,,82,103
8130,control_change,20,0,6,,,,,,,,,5,11,52,,,
8130,control_change,20,0,4,,,,,,,,,3,11,78,,,
8132,note_on,12,0,9,,,,,,,,,12,,,,58,0
8132,note_on,0,0,9,,,,,,,,,12,,,,53,66
8132,note_on,0,0,8,,,,,,,,,11,,,,58,68
8132,note_on,12,0,8,,,,,,,,,11,,,,62,0
8134,note_on,0,0,10,,,,,,,,,6,,,,38,52
8134,note_on,0,0,10,,,,,,,,,6,,,,46,0
8134,note_on,12,0,10,,,,,,,,,6,,,,50,0
8134,note_on,0,0,10,,,,,,,,,6,,,,46,52
8138,control_change,6,0,8,,,,,,,,,11,11,59,,,
8138,control_change,6,0,9,,,,,,,,,12,11,59,,,
8139,note_on,10,0,7,,,,,,,,,10,,,,82,0
8139,note_on,0,0,7,,,,,,,,,10,,,,84,103
8140,control_change,6,0,10,,,,,,,,,6,11,59,,,
8144,control_change,5,0,7,,,,,,,,,10,11,41,,,
8146,control_change,21,0,1,,,,,,,,,0,11,56,,,
8148,control_change,21,0,2,,,,,,,,,1,11,56,,,
8149,note_on,0,0,7,,,,,,,,,10,,,,82,103
8149,control_change,21,0,3,,,,,,,,,2,11,79,,,
8149,control_change,21,0,5,,,,,,,,,4,11,53,,,
8149,note_on,5,0,7,,,,,,,,,10,,,,84,0
8151,control_change,21,0,4,,,,,,,,,3,11,79,,,
8151,control_change,21,0,6,,,,,,,,,5,11,53,,,
8156,control_change,18,0,9,,,,,,,,,12,11,60,,,
8156,control_change,18,0,8,,,,,,,,,11,11,60,,,
8158,control_change,18,0,10,,,,,,,,,6,11,60,,,
8159,note_on,10,0,7,,,,,,,,,10,,,,82,0
8159,note_on,0,0,7,,,,,,,,,10,,,,84,103
8160,set_tempo,60,1,0,,,,,,937500,,,,,,,,
8162,note_on,6,0,9,,,,,,,,,12,,,,53,0
8162,note_on,0,0,8,,,,,,,,,11,,,,62,68
8162,note_on,6,0,8,,,,,,,,,11,,,,58,0
8162,note_on,0,0,9,,,,,,,,,12,,,,58,66
8163,note_on,14,0,3,,,,,,,,,2,,,,77,0
8163,note_on,0,0,3,,,,,,,,,2,,,,75,76
8164,note_on,6,0,10,,,,,,,,,6,,,,46,0
8164,note_on,0,0,10,,,,,,,,,6,,,,38,0
8164,note_on,0,0,10,,,,,,,,,6,,,,50,52
8164,note_on,0,0,10,,,,,,,,,6,,,,46,52
8165,note_on,14,0,4,,,,,,,,,3,,,,65,0
8165,note_on,0,0,4,,,,,,,,,3,,,,63,75
8166,control_change,7,0,7,,,,,,,,,10,11,43,,,
8166,control_change,20,0,1,,,,,,,,,0,11,57,,,
8168,control_change,20,0,2,,,,,,,,,1,11,57,,,
8169,control_change,6,0,3,,,,,,,,,2,11,80,,,
8169,note_on,0,0,7,,,,,,,,,10,,,,82,103
8169,note_on,3,0,7,,,,,,,,,10,,,,84,0
8169,control_change,20,0,5,,,,,,,,,4,11,54,,,
8171,control_change,6,0,4,,,,,,,,,3,11,80,,,
8171,control_change,20,0,6,,,,,,,,,5,11,54,,,
8174,control_change,12,0,9,,,,,,,,,12,11,61,,,
8174,control_change,12,0,8,,,,,,,,,11,11,61,,,
8176,control_change,12,0,10,,,,,,,,,6,11,61,,,
8179,note_on,10,0,7,,,,,,,,,10,,,,82,0
8179,note_on,0,0,7,,,,,,,,,10,,,,84,103
8187,control_change,21,0,1,,,,,,,,,0,11,58,,,
8188,control_change,9,0,7,,,,,,,,,10,11,45,,,
8189,control_change,21,0,2,,,,,,,,,1,11,58,,,
8189,note_on,0,0,7,,,,,,,,,10,,,,82,103
8189,note_on,1,0,7,,,,,,,,,10,,,,84,0
8190,control_change,21,0,5,,,,,,,,,4,11,55,,,
8190,control_change,21,0,3,,,,,,,,,2,11,80,,,
8192,control_change,21,0,4,,,,,,,,,3,11,80,,,
8192,note_on,0,0,9,,,,,,,,,12,,,,53,66
8192,control_change,0,0,9,,,,,,,,,12,11,62,,,
8192,note_on,18,0,9,,,,,,,,,12,,,,58,0
8192,note_on,18,0,8,,,,,,,,,11,,,,62,0
8192,control_change,0,0,8,,,,,,,,,11,11,62,,,
8192,note_on,0,0,8,,,,,,,,,11,,,,58,68
8192,control_change,21,0,6,,,,,,,,,5,11,55,,,
8194,control_change,0,0,10,,,,,,,,,6,11,62,,,
8194,note_on,0,0,10,,,,,,,,,6,,,,38,52
8194,note_on,0,0,10,,,,,,,,,6,,,,46,0
8194,note_on,18,0,10,,,,,,,,,6,,,,50,0
8194,note_on,0,0,10,,,,,,,,,6,,,,46,52
8199,note_on,0,0,7,,,,,,,,,10,,,,84,103
8199,note_on,10,0,7,,,,,,,,,10,,,,82,0
8208,control_change,21,0,1,,,,,,,,,0,11,59,,,
8208,note_on,9,0,7,,,,,,,,,10,,,,82,103
8209,note_on,1,0,7,,,,,,,,,10,,,,84,0
8210,control_change,21,0,2,,,,,,,,,1,11,59,,,
8210,control_change,18,0,9,,,,,,,,,12,11,63,,,
8210,control_change,1,0,7,,,,,,,,,10,11,47,,,
8210,control_change,18,0,8,,,,,,,,,11,11,63,,,
8211,control_change,21,0,5,,,,,,,,,4,11,56,,,
8211,control_change,21,0,3,,,,,,,,,2,11,81,,,
8212,control_change,18,0,10,,,,,,,,,6,11,63,,,
8213,control_change,21,0,6,,,,,,,,,5,11,56,,,
8213,control_change,21,0,4,,,,,,,,,3,11,81,,,
8218,note_on,7,0,5,,,,,,,,,4,,,,58,0
8218,note_on,0,0,7,,,,,,,,,10,,,,84,103
8218,note_on,8,0,7,,,,,,,,,10,,,,82,0
8220,note_on,7,0,6,,,,,,,,,5,,,,46,0
8222,note_on,0,0,9,,,,,,,,,12,,,,58,66
8222,note_on,0,0,8,,,,,,,,,11,,,,62,68
8222,note_on,12,0,8,,,,,,,,,11,,,,58,0
8222,note_on,12,0,9,,,,,,,,,12,,,,53,0
8223,note_on,12,0,3,,,,,,,,,2,,,,75,0
8223,note_on,0,0,3,,,,,,,,,2,,,,74,76
8223,note_on,5,0,5,,,,,,,,,4,,,,58,82
8224,note_on,0,0,10,,,,,,,,,6,,,,46,0
8224,note_on,0,0,10,,,,,,,,,6,,,,46,52
8224,note_on,0,0,10,,,,,,,,,6,,,,50,52
8224,note_on,12,0,10,,,,,,,,,6,,,,38,0
8225,note_on,12,0,4,,,,,,,,,3,,,,63,0
8225,note_on,5,0,6,,,,,,,,,5,,,,46,82
8225,note_on,0,0,4,,,,,,,,,3,,,,62,75
8228,control_change,6,0,9,,,,,,,,,12,11,64,,,
8228,note_on,0,0,7,,,,,,,,,10,,,,82,103
8228,control_change,20,0,1,,,,,,,,,0,11,60,,,
8228,note_on,10,0,7,,,,,,,,,10,,,,84,0
8228,control_change,6,0,8,,,,,,,,,11,11,64,,,
8230,control_change,6,0,10,,,,,,,,,6,11,64,,,
8230,control_change,20,0,2,,,,,,,,,1,11,60,,,
8231,control_change,8,0,3,,,,,,,,,2,11,82,,,
8231,control_change,8,0,5,,,,,,,,,4,11,57,,,
8232,control_change,4,0,7,,,,,,,,,10,11,49,,,
8233,control_change,8,0,4,,,,,,,,,3,11,82,,,
8233,control_change,8,0,6,,,,,,,,,5,11,57,,,
8238,note_on,6,0,7,,,,,,,,,10,,,,82,0
8238,note_on,0,0,7,,,,,,,,,10,,,,84,103
8246,control_change,18,0,9,,,,,,,,,12,11,65,,,
8246,control_change,18,0,8,,,,,,,,,11,11,65,,,
8248,note_on,10,0,7,,,,,,,,,10,,,,84,0
8248,control_change,18,0,10,,,,,,,,,6,11,65,,,
8249,control_change,21,0,1,,,,,,,,,0,11,61,,,
8250,note_on,2,0,7,,,,,,,,,10,,,,81,103
8251,control_change,21,0,2,,,,,,,,,1,11,61,,,
8252,control_change,21,0,3,,,,,,,,,2,11,83,,,
8252,control_change,21,0,5,,,,,,,,,4,11,58,,,
8252,note_on,0,0,9,,,,,,,,,12,,,,53,66
8252,note_on,6,0,9,,,,,,,,,12,,,,58,0
8252,note_on,0,0,8,,,,,,,,,11,,,,58,68
8252,note_on,6,0,8,,,,,,,,,11,,,,62,0
8254,note_on,0,0,10,,,,,,,,,6,,,,38,52
8254,note_on,0,0,10,,,,,,,,,6,,,,46,0
8254,control_change,21,0,4,,,,,,,,,3,11,83,,,
8254,control_change,4,0,7,,,,,,,,,10,11,51,,,
8254,note_on,6,0,10,,,,,,,,,6,,,,50,0
8254,note_on,0,0,10,,,,,,,,,6,,,,46,52
8254,control_change,21,0,6,,,,,,,,,5,11,58,,,
8264,control_change,12,0,8,,,,,,,,,11,11,66,,,
8264,control_change,12,0,9,,,,,,,,,12,11,66,,,
8265,note_on,0,0,7,,,,,,,,,10,,,,82,103
8265,set_tempo,105,1,0,,,,,,1200000,,,,,,,,
8265,note_on,11,0,7,,,,,,,,,10,,,,81,0
8266,control_change,12,0,10,,,,,,,,,6,11,66,,,
8269,control_change,20,0,1,,,,,,,,,0,11,61,,,
8271,control_change,20,0,2,,,,,,,,,1,11,61,,,
8272,control_change,20,0,3,,,,,,,,,2,11,84,,,
8272,control_change,20,0,5,,,,,,,,,4,11,59,,,
8274,control_change,20,0,6,,,,,,,,,5,11,59,,,
8274,control_change,20,0,4,,,,,,,,,3,11,84,,,
8277,note_on,13,0,8,,,,,,,,,11,,,,58,0
8277,note_on,13,0,9,,,,,,,,,12,,,,53,0
8277,note_on,6,0,2,,,,,,,,,1,,,,77,0
8278,note_on,6,0,3,,,,,,,,,2,,,,74,0
8279,note_on,0,0,10,,,,,,,,,6,,,,38,0
8279,note_on,13,0,10,,,,,,,,,6,,,,46,0
8280,note_on,11,0,1,,,,,,,,,0,,,,82,76
8280,note_on,0,0,1,,,,,,,,,0,,,,84,76
8280,note_on,15,0,7,,,,,,,,,10,,,,82,0
8280,set_tempo,15,1,0,,,,,,1034483,,,,,,,,
8280,note_on,6,0,4,,,,,,,,,3,,,,62,0
8282,note_on,5,0,2,,,,,,,,,1,,,,79,87
8282,note_on,0,0,9,,,,,,,,,12,,,,58,66
8282,note_on,0,0,8,,,,,,,,,11,,,,60,68
8282,control_change,5,0,9,,,,,,,,,12,11,67,,,
8282,control_change,5,0,8,,,,,,,,,11,11,67,,,
8283,note_on,5,0,3,,,,,,,,,2,,,,72,76
8284,control_change,5,0,10,,,,,,,,,6,11,67,,,
8284,note_on,0,0,10,,,,,,,,,6,,,,46,52
8284,note_on,0,0,10,,,,,,,,,6,,,,48,52
8285,note_on,240,0,11,,,,,,,,,13,,,,51,61
8285,note_on,5,0,4,,,,,,,,,3,,,,60,75
8288,note_on,240,0,12,,,,,,,,,14,,,,39,55
8290,control_change,10,0,1,,,,,,,,,0,11,62,,,
8292,control_change,10,0,2,,,,,,,,,1,11,62,,,
8293,control_change,21,0,5,,,,,,,,,4,11,60,,,
8293,control_change,10,0,3,,,,,,,,,2,11,85,,,
8295,control_change,10,0,4,,,,,,,,,3,11,85,,,
8295,control_change,21,0,6,,,,,,,,,5,11,60,,,
8300,control_change,18,0,8,,,,,,,,,11,11,68,,,
8300,control_change,18,0,9,,,,,,,,,12,11,68,,,
8302,control_change,18,0,10,,,,,,,,,6,11,68,,,
8310,control_change,20,0,1,,,,,,,,,0,11,63,,,
8312,note_on,12,0,8,,,,,,,,,11,,,,60,0
8312,note_on,0,0,9,,,,,,,,,12,,,,55,66
8312,note_on,0,0,8,,,,,,,,,11,,,,58,68
8312,note_on,12,0,9,,,,,,,,,12,,,,58,0
8312,control_change,20,0,2,,,,,,,,,1,11,63,,,
8313,control_change,20,0,3,,,,,,,,,2,11,86,,,
8313,control_change,20,0,5,,,,,,,,,4,11,61,,,
8314,note_on,0,0,10,,,,,,,,,6,,,,46,52
8314,note_on,0,0,10,,,,,,,,,6,,,,46,0
8314,note_on,12,0,10,,,,,,,,,6,,,,48,0
8314,note_on,0,0,10,,,,,,,,,6,,,,39,52
8315,control_change,20,0,4,,,,,,,,,3,11,86,,,
8315,control_change,20,0,6,,,,,,,,,5,11,61,,,
8318,control_change,6,0,8,,,,,,,,,11,11,69,,,
8318,control_change,6,0,9,,,,,,,,,12,11,69,,,
8320,control_change,6,0,10,,,,,,,,,6,11,69,,,
8331,control_change,21,0,1,,,,,,,,,0,11,64,,,
8333,control_change,21,0,2,,,,,,,,,1,11,64,,,
8334,control_change,21,0,3,,,,,,,,,2,11,86,,,
8334,control_change,21,0,5,,,,,,,,,4,11,62,,,
8336,control_change,18,0,9,,,,,,,,,12,11,70,,,
8336,control_change,21,0,4,,,,,,,,,3,11,86,,,
8336,control_change,21,0,6,,,,,,,,,5,11,62,,,
8336,control_change,18,0,8,,,,,,,,,11,11,70,,,
8338,control_change,18,0,10,,,,,,,,,6,11,70,,,
8340,set_tempo,60,1,0,,,,,,937500,,,,,,,,
8342,note_on,0,0,8,,,,,,,,,11,,,,60,68
8342,note_on,0,0,9,,,,,,,,,12,,,,58,66
8342,note_on,6,0,9,,,,,,,,,12,,,,55,0
8342,note_on,6,0,8,,,,,,,,,11,,,,58,0
8344,note_on,0,0,10,,,,,,,,,6,,,,48,52
8344,note_on,6,0,10,,,,,,,,,6,,,,46,0
8344,note_on,0,0,10,,,,,,,,,6,,,,39,0
8344,note_on,0,0,10,,,,,,,,,6,,,,46,52
8352,control_change,21,0,1,,,,,,,,,0,11,65,,,
8354,control_change,12,0,8,,,,,,,,,11,11,71,,,
8354,control_change,12,0,9,,,,,,,,,12,11,71,,,
8354,control_change,21,0,2,,,,,,,,,1,11,65,,,
8355,control_change,21,0,5,,,,,,,,,4,11,63,,,
8355,control_change,21,0,3,,,,,,,,,2,11,87,,,
8356,control_change,12,0,10,,,,,,,,,6,11,71,,,
8357,control_change,21,0,4,,,,,,,,,3,11,87,,,
8357,control_change,21,0,6,,,,,,,,,5,11,63,,,
8372,note_on,0,0,9,,,,,,,,,12,,,,55,66
8372,note_on,0,0,8,,,,,,,,,11,,,,58,68
8372,note_on,18,0,8,,,,,,,,,11,,,,60,0
8372,note_on,18,0,9,,,,,,,,,12,,,,58,0
8372,control_change,0,0,9,,,,,,,,,12,11,72,,,
8372,control_change,20,0,1,,,,,,,,,0,11,65,,,
8372,control_change,0,0,8,,,,,,,,,11,11,72,,,
8374,note_on,18,0,10,,,,,,,,,6,,,,48,0
8374,note_on,0,0,10,,,,,,,,,6,,,,46,52
8374,note_on,0,0,10,,,,,,,,,6,,,,39,52
8374,note_on,0,0,10,,,,,,,,,6,,,,46,0
8374,control_change,0,0,10,,,,,,,,,6,11,72,,,
8374,control_change,20,0,2,,,,,,,,,1,11,65,,,
8375,control_change,20,0,3,,,,,,,,,2,11,88,,,
8375,control_change,20,0,5,,,,,,,,,4,11,64,,,
8377,control_change,20,0,6,,,,,,,,,5,11,64,,,
8377,control_change,20,0,4,,,,,,,,,3,11,88,,,
8390,control_change,18,0,8,,,,,,,,,11,11,73,,,
8390,control_change,18,0,9,,,,,,,,,12,11,73,,,
8392,control_change,18,0,10,,,,,,,,,6,11,73,,,
8393,control_change,21,0,1,,,,,,,,,0,11,66,,,
8395,control_change,21,0,2,,,,,,,,,1,11,66,,,
8396,control_change,21,0,3,,,,,,,,,2,11,89,,,
8396,control_change,21,0,5,,,,,,,,,4,11,65,,,
8398,control_change,21,0,4,,,,,,,,,3,11,89,,,
8398,control_change,21,0,6,,,,,,,,,5,11,65,,,
8398,note_on,2,0,5,,,,,,,,,4,,,,58,0
8400,note_on,0,0,1,,,,,,,,,0,,,,82,0
8400,note_on,7,0,1,,,,,,,,,0,,,,84,0
8400,note_on,2,0,6,,,,,,,,,5,,,,46,0
8402,note_on,0,0,8,,,,,,,,,11,,,,60,68
8402,note_on,12,0,9,,,,,,,,,12,,,,55,0
8402,note_on,0,0,9,,,,,,,,,12,,,,58,66
8402,note_on,12,0,8,,,,,,,,,11,,,,58,0
8403,note_on,5,0,5,,,,,,,,,4,,,,58,82
8404,note_on,0,0,10,,,,,,,,,6,,,,48,52
8404,note_on,0,0,10,,,,,,,,,6,,,,46,52
8404,note_on,0,0,10,,,,,,,,,6,,,,39,0
8404,note_on,12,0,10,,,,,,,,,6,,,,46,0
8405,note_on,5,0,6,,,,,,,,,5,,,,46,82
8405,note_on,120,0,11,,,,,,,,,13,,,,51,0
8408,control_change,6,0,9,,,,,,,,,12,11,74,,,
8408,control_change,6,0,8,,,,,,,,,11,11,74,,,
8408,note_on,120,0,12,,,,,,,,,14,,,,39,0
8410,control_change,6,0,10,,,,,,,,,6,11,74,,,
8413,control_change,13,0,1,,,,,,,,,0,11,67,,,
8415,control_change,20,0,2,,,,,,,,,1,11,67,,,
8416,control_change,20,0,3,,,,,,,,,2,11,89,,,
8416,control_change,13,0,5,,,,,,,,,4,11,66,,,
8418,control_change,13,0,6,,,,,,,,,5,11,66,,,
8418,control_change,20,0,4,,,,,,,,,3,11,89,,,
8426,control_change,18,0,8,,,,,,,,,11,11,75,,,
8426,control_change,18,0,9,,,,,,,,,12,11,75,,,
8428,control_change,18,0,10,,,,,,,,,6,11,75,,,
8428,note_on,12,0,3,,,,,,,,,2,,,,72,0
8430,note_on,12,0,4,,,,,,,,,3,,,,60,0
8432,note_on,6,0,9,,,,,,,,,12,,,,58,0
8432,note_on,6,0,8,,,,,,,,,11,,,,60,0
8432,note_on,0,0,8,,,,,,,,,11,,,,58,68
8432,note_on,0,0,9,,,,,,,,,12,,,,55,66
8433,note_on,5,0,3,,,,,,,,,2,,,,74,76
8434,note_on,6,0,10,,,,,,,,,6,,,,48,0
8434,note_on,0,0,10,,,,,,,,,6,,,,46,52
8434,control_change,21,0,1,,,,,,,,,0,11,68,,,
8434,note_on,0,0,10,,,,,,,,,6,,,,39,52
8434,note_on,0,0,10,,,,,,,,,6,,,,46,0
8435,note_on,5,0,4,,,,,,,,,3,,,,62,75
8436,control_change,21,0,2,,,,,,,,,1,11,68,,,
8437,control_change,21,0,5,,,,,,,,,4,11,67,,,
8437,control_change,4,0,3,,,,,,,,,2,11,90,,,
8439,control_change,21,0,6,,,,,,,,,5,11,67,,,
8439,control_change,4,0,4,,,,,,,,,3,11,90,,,
8443,note_on,0,0,3,,,,,,,,,2,,,,72,76
8443,note_on,6,0,3,,,,,,,,,2,,,,74,0
8444,control_change,12,0,9,,,,,,,,,12,11,76,,,
8444,control_change,12,0,8,,,,,,,,,11,11,76,,,
8445,note_on,6,0,4,,,,,,,,,3,,,,62,0
8445,note_on,0,0,4,,,,,,,,,3,,,,60,75
8446,control_change,12,0,10,,,,,,,,,6,11,76,,,
8453,note_on,10,0,3,,,,,,,,,2,,,,72,0
8453,note_on,0,0,3,,,,,,,,,2,,,,71,76
8454,control_change,20,0,1,,,,,,,,,0,11,69,,,
8455,note_on,10,0,4,,,,,,,,,3,,,,60,0
8455,note_on,0,0,4,,,,,,,,,3,,,,59,75
8456,control_change,20,0,2,,,,,,,,,1,11,69,,,
8457,control_change,4,0,3,,,,,,,,,2,11,91,,,
8457,control_change,20,0,5,,,,,,,,,4,11,68,,,
8459,control_change,4,0,4,,,,,,,,,3,11,91,,,
8459,control_change,20,0,6,,,,,,,,,5,11,68,,,
8460,control_change,180,0,7,,,,,,,,,10,11,50,,,
8460,set_tempo,120,1,0,,,,,,1034483,,,,,,,,
8460,note_on,0,0,7,,,,,,,,,10,,,,84,107
8462,note_on,0,0,8,,,,,,,,,11,,,,60,68
8462,control_change,0,0,8,,,,,,,,,11,11,77,,,
8462,note_on,18,0,8,,,,,,,,,11,,,,58,0
8462,note_on,18,0,9,,,,,,,,,12,,,,55,0
8462,note_on,0,0,9,,,,,,,,,12,,,,58,66
8462,control_change,0,0,9,,,,,,,,,12,11,77,,,
8463,note_on,0,0,3,,,,,,,,,2,,,,72,76
8463,note_on,6,0,3,,,,,,,,,2,,,,71,0
8464,control_change,0,0,10,,,,,,,,,6,11,77,,,
8464,note_on,0,0,10,,,,,,,,,6,,,,48,52
8464,note_on,0,0,10,,,,,,,,,6,,,,46,52
8464,note_on,0,0,10,,,,,,,,,6,,,,39,0
8464,note_on,18,0,10,,,,,,,,,6,,,,46,0
8465,note_on,0,0,4,,,,,,,,,3,,,,60,75
8465,note_on,6,0,4,,,,,,,,,3,,,,59,0
8469,note_on,9,0,7,,,,,,,,,10,,,,82,107
8470,note_on,1,0,7,,,,,,,,,10,,,,84,0
8475,control_change,21,0,1,,,,,,,,,0,11,70,,,
8477,control_change,21,0,2,,,,,,,,,1,11,70,,,
8478,control_change,21,0,5,,,,,,,,,4,11,69,,,
8478,control_change,15,0,3,,,,,,,,,2,11,84,,,
8479,note_on,9,0,7,,,,,,,,,10,,,,82,0
8479,note_on,0,0,7,,,,,,,,,10,,,,84,108
8480,control_change,18,0,9,,,,,,,,,12,11,78,,,
8480,control_change,15,0,4,,,,,,,,,3,11,84,,,
8480,control_change,21,0,6,,,,,,,,,5,11,69,,,
8480,control_change,18,0,8,,,,,,,,,11,11,78,,,
8482,control_change,3,0,7,,,,,,,,,10,11,52,,,
8482,control_change,18,0,10,,,,,,,,,6,11,78,,,
8489,note_on,0,0,7,,,,,,,,,10,,,,82,108
8489,note_on,7,0,7,,,,,,,,,10,,,,84,0
8492,note_on,0,0,9,,,,,,,,,12,,,,55,66
8492,note_on,12,0,9,,,,,,,,,12,,,,58,0
8492,note_on,12,0,8,,,,,,,,,11,,,,60,0
8492,note_on,0,0,8,,,,,,,,,11,,,,58,68
8494,note_on,0,0,10,,,,,,,,,6,,,,39,52
8494,note_on,12,0,10,,,,,,,,,6,,,,48,0
8494,note_on,0,0,10,,,,,,,,,6,,,,46,52
8494,note_on,0,0,10,,,,,,,,,6,,,,46,0
8496,control_change,21,0,1,,,,,,,,,0,11,70,,,
8498,control_change,6,0,9,,,,,,,,,12,11,79,,,
8498,control_change,21,0,2,,,,,,,,,1,11,70,,,
8498,control_change,6,0,8,,,,,,,,,11,11,79,,,
8499,control_change,21,0,3,,,,,,,,,2,11,85,,,
8499,note_on,0,0,7,,,,,,,,,10,,,,84,109
8499,control_change,21,0,5,,,,,,,,,4,11,70,,,
8499,note_on,10,0,7,,,,,,,,,10,,,,82,0
8500,control_change,6,0,10,,,,,,,,,6,11,79,,,
8501,control_change,21,0,4,,,,,,,,,3,11,85,,,
8501,control_change,21,0,6,,,,,,,,,5,11,70,,,
8504,control_change,5,0,7,,,,,,,,,10,11,54,,,
8509,note_on,5,0,7,,,,,,,,,10,,,,84,0
8509,note_on,0,0,7,,,,,,,,,10,,,,82,109
8516,control_change,20,0,1,,,,,,,,,0,11,71,,,
8516,control_change,18,0,9,,,,,,,,,12,11,80,,,
8516,control_change,18,0,8,,,,,,,,,11,11,80,,,
8518,control_change,20,0,2,,,,,,,,,1,11,71,,,
8518,control_change,18,0,10,,,,,,,,,6,11,80,,,
8519,control_change,20,0,5,,,,,,,,,4,11,71,,,
8519,control_change,20,0,3,,,,,,,,,2,11,86,,,
8519,note_on,0,0,7,,,,,,,,,10,,,,84,109
8519,note_on,10,0,7,,,,,,,,,10,,,,82,0
8520,set_tempo,60,1,0,,,,,,937500,,,,,,,,
8521,control_change,20,0,4,,,,,,,,,3,11,86,,,
8521,control_change,20,0,6,,,,,,,,,5,11,71,,,
8522,note_on,0,0,9,,,,,,,,,12,,,,58,66
8522,note_on,6,0,9,,,,,,,,,12,,,,55,0
8522,note_on,0,0,8,,,,,,,,,11,,,,60,68
8522,note_on,6,0,8,,,,,,,,,11,,,,58,0
8523,note_on,4,0,3,,,,,,,,,2,,,,72,0
8523,note_on,0,0,3,,,,,,,,,2,,,,75,76
8524,note_on,0,0,10,,,,,,,,,6,,,,46,52
8524,note_on,6,0,10,,,,,,,,,6,,,,46,0
8524,note_on,0,0,10,,,,,,,,,6,,,,39,0
8524,note_on,0,0,10,,,,,,,,,6,,,,48,52
8525,note_on,0,0,4,,,,,,,,,3,,,,63,75
8525,note_on,4,0,4,,,,,,,,,3,,,,60,0
8526,control_change,7,0,7,,,,,,,,,10,11,56,,,
8529,note_on,0,0,7,,,,,,,,,10,,,,82,110
8529,note_on,3,0,7,,,,,,,,,10,,,,84,0
8534,control_change,12,0,8,,,,,,,,,11,11,81,,,
8534,control_change,12,0,9,,,,,,,,,12,11,81,,,
8536,control_change,12,0,10,,,,,,,,,6,11,81,,,
8537,control_change,21,0,1,,,,,,,,,0,11,72,,,
8539,control_change,21,0,2,,,,,,,,,1,11,72,,,
8539,note_on,0,0,7,,,,,,,,,10,,,,84,110
8539,note_on,10,0,7,,,,,,,,,10,,,,82,0
8540,control_change,17,0,3,,,,,,,,,2,11,86,,,
8540,control_change,21,0,5,,,,,,,,,4,11,72,,,
8542,control_change,21,0,6,,,,,,,,,5,11,72,,,
8542,control_change,17,0,4,,,,,,,,,3,11,86,,,
8548,control_change,9,0,7,,,,,,,,,10,11,58,,,
8549,note_on,0,0,7,,,,,,,,,10,,,,82,111
8549,note_on,1,0,7,,,,,,,,,10,,,,84,0
8552,note_on,0,0,9,,,,,,,,,12,,,,55,66
8552,note_on,0,0,8,,,,,,,,,11,,,,58,68
8552,control_change,0,0,8,,,,,,,,,11,11,82,,,
8552,note_on,18,0,8,,,,,,,,,11,,,,60,0
8552,note_on,18,0,9,,,,,,,,,12,,,,58,0
8552,control_change,0,0,9,,,,,,,,,12,11,82,,,
8554,control_change,0,0,10,,,,,,,,,6,11,82,,,
8554,note_on,18,0,10,,,,,,,,,6,,,,48,0
8554,note_on,0,0,10,,,,,,,,,6,,,,46,0
8554,note_on,0,0,10,,,,,,,,,6,,,,39,52
8554,note_on,0,0,10,,,,,,,,,6,,,,46,52
8557,control_change,20,0,1,,,,,,,,,0,11,73,,,
8559,control_change,20,0,2,,,,,,,,,1,11,73,,,
8559,note_on,0,0,7,,,,,,,,,10,,,,84,112
8559,note_on,10,0,7,,,,,,,,,10,,,,82,0
8560,control_change,20,0,3,,,,,,,,,2,11,87,,,
8560,control_change,20,0,5,,,,,,,,,4,11,73,,,
8562,control_change,20,0,6,,,,,,,,,5,11,73,,,
8562,control_change,20,0,4,,,,,,,,,3,11,87,,,
8568,note_on,9,0,7,,,,,,,,,10,,,,82,112
8569,note_on,1,0,7,,,,,,,,,10,,,,84,0
8570,control_change,1,0,7,,,,,,,,,10,11,60,,,
8570,control_change,18,0,9,,,,,,,,,12,11,83,,,
8570,control_change,18,0,8,,,,,,,,,11,11,83,,,
8572,control_change,18,0,10,,,,,,,,,6,11,83,,,
8578,note_on,18,0,5,,,,,,,,,4,,,,58,0
8578,note_on,18,0,3,,,,,,,,,2,,,,75,0
8578,note_on,8,0,7,,,,,,,,,10,,,,82,0
8578,note_on,0,0,7,,,,,,,,,10,,,,84,113
8578,control_change,21,0,1,,,,,,,,,0,11,74,,,
8580,control_change,21,0,2,,,,,,,,,1,11,74,,,
8580,note_on,18,0,4,,,,,,,,,3,,,,63,0
8580,note_on,18,0,6,,,,,,,,,5,,,,46,0
8581,control_change,3,0,3,,,,,,,,,2,11,88,,,
8581,control_change,3,0,5,,,,,,,,,4,11,74,,,
8582,note_on,0,0,8,,,,,,,,,11,,,,60,68
8582,note_on,12,0,9,,,,,,,,,12,,,,55,0
8582,note_on,0,0,9,,,,,,,,,12,,,,58,66
8582,note_on,12,0,8,,,,,,,,,11,,,,58,0
8583,note_on,2,0,5,,,,,,,,,4,,,,58,82
8583,control_change,3,0,6,,,,,,,,,5,11,74,,,
8583,note_on,2,0,3,,,,,,,,,2,,,,79,76
8583,control_change,3,0,4,,,,,,,,,3,11,88,,,
8584,note_on,12,0,10,,,,,,,,,6,,,,46,0
8584,note_on,0,0,10,,,,,,,,,6,,,,39,0
8584,note_on,0,0,10,,,,,,,,,6,,,,46,52
8584,note_on,0,0,10,,,,,,,,,6,,,,48,52
8585,note_on,2,0,6,,,,,,,,,5,,,,46,82
8585,note_on,2,0,4,,,,,,,,,3,,,,67,75
8588,note_on,0,0,7,,,,,,,,,10,,,,82,113
8588,control_change,6,0,9,,,,,,,,,12,11,84,,,
8588,control_change,6,0,8,,,,,,,,,11,11,84,,,
8588,note_on,10,0,7,,,,,,,,,10,,,,84,0
8590,control_change,6,0,10,,,,,,,,,6,11,84,,,
8592,control_change,4,0,7,,,,,,,,,10,11,62,,,
8598,note_on,0,0,7,,,,,,,,,10,,,,84,114
8598,control_change,20,0,1,,,,,,,,,0,11,75,,,
8598,note_on,6,0,7,,,,,,,,,10,,,,82,0
8600,control_change,20,0,2,,,,,,,,,1,11,75,,,
8601,control_change,18,0,5,,,,,,,,,4,11,75,,,
8601,control_change,18,0,3,,,,,,,,,2,11,89,,,
8603,control_change,18,0,4,,,,,,,,,3,11,89,,,
8603,control_change,18,0,6,,,,,,,,,5,11,75,,,
8606,control_change,18,0,9,,,,,,,,,12,11,85,,,
8606,control_change,18,0,8,,,,,,,,,11,11,85,,,
8608,note_on,10,0,7,,,,,,,,,10,,,,84,0
8608,control_change,18,0,10,,,,,,,,,6,11,85,,,
8610,note_on,2,0,7,,,,,,,,,10,,,,81,115
8612,note_on,6,0,8,,,,,,,,,11,,,,60,0
8612,note_on,0,0,8,,,,,,,,,11,,,,58,68
8612,note_on,0,0,9,,,,,,,,,12,,,,55,66
8612,note_on,6,0,9,,,,,,,,,12,,,,58,0
8613,note_on,12,0,3,,,,,,,,,2,,,,79,0
8614,control_change,4,0,7,,,,,,,,,10,11,64,,,
8614,note_on,0,0,10,,,,,,,,,6,,,,46,52
8614,note_on,0,0,10,,,,,,,,,6,,,,39,52
8614,note_on,0,0,10,,,,,,,,,6,,,,46,0
8614,note_on,6,0,10,,,,,,,,,6,,,,48,0
8615,note_on,12,0,4,,,,,,,,,3,,,,67,0
8619,control_change,21,0,1,,,,,,,,,0,11,76,,,
8621,control_change,21,0,2,,,,,,,,,1,11,76,,,
8622,control_change,9,0,3,,,,,,,,,2,11,89,,,
8622,control_change,21,0,5,,,,,,,,,4,11,76,,,
8624,control_change,12,0,8,,,,,,,,,11,11,86,,,
8624,control_change,21,0,6,,,,,,,,,5,11,76,,,
8624,control_change,9,0,4,,,,,,,,,3,11,89,,,
8624,control_change,12,0,9,,,,,,,,,12,11,86,,,
8625,note_on,0,0,7,,,,,,,,,10,,,,82,115
8625,set_tempo,105,1,0,,,,,,1200000,,,,,,,,
8625,note_on,11,0,7,,,,,,,,,10,,,,81,0
8626,control_change,12,0,10,,,,,,,,,6,11,86,,,
8637,note_on,0,0,2,,,,,,,,,1,,,,82,0
8637,note_on,13,0,9,,,,,,,,,12,,,,55,0
8637,note_on,16,0,2,,,,,,,,,1,,,,79,0
8637,note_on,13,0,8,,,,,,,,,11,,,,58,0
8638,note_on,16,0,5,,,,,,,,,4,,,,58,0
8639,note_on,13,0,10,,,,,,,,,6,,,,46,0
8639,note_on,0,0,10,,,,,,,,,6,,,,39,0
8640,note_on,15,0,7,,,,,,,,,10,,,,82,0
8640,set_tempo,15,1,0,,,,,,1034483,,,,,,,,
8640,control_change,0,0,1,,,,,,,,,0,11,76,,,
8640,note_on,16,0,6,,,,,,,,,5,,,,46,0
8640,note_on,0,0,1,,,,,,,,,0,,,,82,76
8640,note_on,21,0,1,,,,,,,,,0,,,,86,76
8640,note_on,16,0,4,,,,,,,,,3,,,,58,0
8642,note_on,0,0,8,,,,,,,,,11,,,,62,68
8642,control_change,5,0,8,,,,,,,,,11,11,87,,,
8642,control_change,0,0,2,,,,,,,,,1,11,76,,,
8642,note_on,0,0,2,,,,,,,,,1,,,,82,87
8642,control_change,5,0,9,,,,,,,,,12,11,87,,,
8642,note_on,0,0,9,,,,,,,,,12,,,,58,66
8642,note_on,5,0,2,,,,,,,,,1,,,,74,87
8643,control_change,5,0,5,,,,,,,,,4,11,77,,,
8643,note_on,0,0,5,,,,,,,,,4,,,,53,82
8643,control_change,0,0,3,,,,,,,,,2,11,90,,,
8643,note_on,0,0,3,,,,,,,,,2,,,,65,76
8643,note_on,21,0,3,,,,,,,,,2,,,,70,0
8644,control_change,5,0,10,,,,,,,,,6,11,87,,,
8644,note_on,0,0,10,,,,,,,,,6,,,,46,52
8644,note_on,0,0,10,,,,,,,,,6,,,,50,52
8645,note_on,0,0,4,,,,,,,,,3,,,,53,75
8645,note_on,240,0,11,,,,,,,,,13,,,,53,74
8645,control_change,0,0,6,,,,,,,,,5,11,77,,,
8645,control_change,5,0,4,,,,,,,,,3,11,90,,,
8645,note_on,5,0,6,,,,,,,,,5,,,,41,82
8646,control_change,6,0,1,,,,,,,,,0,11,73,,,
8648,note_on,240,0,12,,,,,,,,,14,,,,41,69
8648,control_change,5,0,5,,,,,,,,,4,11,74,,,
8648,control_change,6,0,2,,,,,,,,,1,11,73,,,
8649,control_change,6,0,3,,,,,,,,,2,11,87,,,
8650,control_change,5,0,6,,,,,,,,,5,11,74,,,
8651,control_change,6,0,4,,,,,,,,,3,11,87,,,
8652,control_change,6,0,1,,,,,,,,,0,11,70,,,
8653,control_change,11,0,9,,,,,,,,,12,11,84,,,
8653,control_change,11,0,8,,,,,,,,,11,11,84,,,
8653,control_change,5,0,5,,,,,,,,,4,11,71,,,
8654,control_change,6,0,2,,,,,,,,,1,11,70,,,
8655,control_change,11,0,10,,,,,,,,,6,11,84,,,
8655,control_change,5,0,6,,,,,,,,,5,11,71,,,
8656,control_change,7,0,3,,,,,,,,,2,11,84,,,
8658,control_change,2,0,3,,,,,,,,,2,11,91,,,
8658,control_change,6,0,1,,,,,,,,,0,11,67,,,
8658,control_change,7,0,4,,,,,,,,,3,11,84,,,
8658,control_change,5,0,5,,,,,,,,,4,11,68,,,
8660,control_change,2,0,4,,,,,,,,,3,11,91,,,
8660,control_change,5,0,6,,,,,,,,,5,11,68,,,
8660,control_change,6,0,2,,,,,,,,,1,11,67,,,
8663,control_change,5,0,5,,,,,,,,,4,11,65,,,
8664,control_change,11,0,8,,,,,,,,,11,11,81,,,
8664,control_change,11,0,9,,,,,,,,,12,11,81,,,
8665,control_change,7,0,3,,,,,,,,,2,11,88,,,
8665,control_change,5,0,6,,,,,,,,,5,11,65,,,
8665,control_change,7,0,1,,,,,,,,,0,11,64,,,
8666,control_change,11,0,10,,,,,,,,,6,11,81,,,
8667,control_change,7,0,2,,,,,,,,,1,11,64,,,
8667,control_change,7,0,4,,,,,,,,,3,11,88,,,
8668,control_change,5,0,5,,,,,,,,,4,11,62,,,
8670,control_change,5,0,6,,,,,,,,,5,11,62,,,
8670,control_change,5,0,1,,,,,,,,,0,11,61,,,
8672,note_on,0,0,8,,,,,,,,,11,,,,58,68
8672,note_on,0,0,9,,,,,,,,,12,,,,53,66
8672,note_on,8,0,9,,,,,,,,,12,,,,58,0
8672,note_on,8,0,8,,,,,,,,,11,,,,62,0
8672,control_change,7,0,3,,,,,,,,,2,11,85,,,
8672,control_change,5,0,2,,,,,,,,,1,11,61,,,
8673,control_change,5,0,5,,,,,,,,,4,11,59,,,
8674,control_change,7,0,4,,,,,,,,,3,11,85,,,
8674,note_on,0,0,10,,,,,,,,,6,,,,46,0
8674,note_on,0,0,10,,,,,,,,,6,,,,41,52
8674,note_on,0,0,10,,,,,,,,,6,,,,46,52
8674,note_on,8,0,10,,,,,,,,,6,,,,50,0
8675,control_change,3,0,9,,,,,,,,,12,11,78,,,
8675,control_change,5,0,6,,,,,,,,,5,11,59,,,
8675,control_change,3,0,8,,,,,,,,,11,11,78,,,
8677,control_change,7,0,1,,,,,,,,,0,11,58,,,
8677,control_change,5,0,3,,,,,,,,,2,11,82,,,
8677,control_change,3,0,10,,,,,,,,,6,11,78,,,
8679,control_change,7,0,2,,,,,,,,,1,11,58,,,
8679,control_change,6,0,5,,,,,,,,,4,11,56,,,
8679,control_change,5,0,4,,,,,,,,,3,11,82,,,
8681,control_change,6,0,6,,,,,,,,,5,11,56,,,
8682,control_change,5,0,1,,,,,,,,,0,11,55,,,
8684,control_change,5,0,5,,,,,,,,,4,11,53,,,
8684,control_change,7,0,3,,,,,,,,,2,11,79,,,
8684,control_change,5,0,2,,,,,,,,,1,11,55,,,
8686,control_change,7,0,4,,,,,,,,,3,11,79,,,
8686,control_change,5,0,6,,,,,,,,,5,11,53,,,
8687,control_change,12,0,8,,,,,,,,,11,11,75,,,
8687,control_change,12,0,9,,,,,,,,,12,11,75,,,
8689,control_change,5,0,5,,,,,,,,,4,11,50,,,
8689,control_change,12,0,10,,,,,,,,,6,11,75,,,
8689,control_change,7,0,1,,,,,,,,,0,11,52,,,
8689,control_change,5,0,3,,,,,,,,,2,11,76,,,
8691,control_change,5,0,6,,,,,,,,,5,11,50,,,
8691,control_change,5,0,4,,,,,,,,,3,11,76,,,
8691,control_change,7,0,2,,,,,,,,,1,11,52,,,
8694,control_change,5,0,5,,,,,,,,,4,11,47,,,
8696,control_change,7,0,1,,,,,,,,,0,11,49,,,
8696,control_change,5,0,6,,,,,,,,,5,11,47,,,
8696,control_change,7,0,3,,,,,,,,,2,11,73,,,
8698,control_change,11,0,9,,,,,,,,,12,11,72,,,
8698,control_change,7,0,4,,,,,,,,,3,11,73,,,
8698,control_change,11,0,8,,,,,,,,,11,11,72,,,
8698,control_change,7,0,2,,,,,,,,,1,11,49,,,
8699,control_change,5,0,5,,,,,,,,,4,11,44,,,
8700,set_tempo,60,1,0,,,,,,937500,,,,,,,,
8700,control_change,11,0,10,,,,,,,,,6,11,72,,,
8701,control_change,5,0,3,,,,,,,,,2,11,70,,,
8701,control_change,5,0,6,,,,,,,,,5,11,44,,,
8702,note_on,4,0,8,,,,,,,,,11,,,,58,0
8702,note_on,4,0,9,,,,,,,,,12,,,,53,0
8702,note_on,0,0,8,,,,,,,,,11,,,,62,68
8702,note_on,0,0,9,,,,,,,,,12,,,,58,66
8703,control_change,5,0,4,,,,,,,,,3,11,70,,,
8704,note_on,0,0,10,,,,,,,,,6,,,,41,0
8704,note_on,0,0,10,,,,,,,,,6,,,,46,52
8704,note_on,0,0,10,,,,,,,,,6,,,,50,52
8704,note_on,4,0,10,,,,,,,,,6,,,,46,0
8709,control_change,7,0,9,,,,,,,,,12,11,69,,,
8709,control_change,7,0,8,,,,,,,,,11,11,69,,,
8711,control_change,7,0,10,,,,,,,,,6,11,69,,,
8720,control_change,11,0,9,,,,,,,,,12,11,66,,,
8720,control_change,11,0,8,,,,,,,,,11,11,66,,,
8722,control_change,11,0,10,,,,,,,,,6,11,66,,,
8732,control_change,0,0,8,,,,,,,,,11,11,63,,,
8732,note_on,12,0,8,,,,,,,,,11,,,,62,0
8732,note_on,12,0,9,,,,,,,,,12,,,,58,0
8732,control_change,0,0,9,,,,,,,,,12,11,63,,,
8732,note_on,0,0,9,,,,,,,,,12,,,,53,66
8732,note_on,0,0,8,,,,,,,,,11,,,,58,68
8734,note_on,0,0,10,,,,,,,,,6,,,,41,52
8734,note_on,0,0,10,,,,,,,,,6,,,,46,52
8734,control_change,0,0,10,,,,,,,,,6,11,63,,,
8734,note_on,0,0,10,,,,,,,,,6,,,,46,0
8734,note_on,12,0,10,,,,,,,,,6,,,,50,0
8743,control_change,11,0,9,,,,,,,,,12,11,60,,,
8743,control_change,11,0,8,,,,,,,,,11,11,60,,,
8745,control_change,11,0,10,,,,,,,,,6,11,60,,,
8754,control_change,11,0,9,,,,,,,,,12,11,57,,,
8754,control_change,11,0,8,,,,,,,,,11,11,57,,,
8756,control_change,11,0,10,,,,,,,,,6,11,57,,,
8758,note_on,59,0,5,,,,,,,,,4,,,,53,0
8760,note_on,0,0,1,,,,,,,,,0,,,,86,0
8760,note_on,59,0,6,,,,,,,,,5,,,,41,0
8760,note_on,64,0,1,,,,,,,,,0,,,,82,0
8762,note_on,64,0,2,,,,,,,,,1,,,,82,0
8762,note_on,0,0,2,,,,,,,,,1,,,,74,0
8762,note_on,8,0,8,,,,,,,,,11,,,,58,0
8762,note_on,0,0,8,,,,,,,,,11,,,,62,68
8762,note_on,8,0,9,,,,,,,,,12,,,,53,0
8762,note_on,0,0,9,,,,,,,,,12,,,,58,66
8763,note_on,5,0,5,,,,,,,,,4,,,,53,82
8764,note_on,0,0,10,,,,,,,,,6,,,,50,52
8764,note_on,0,0,10,,,,,,,,,6,,,,46,0
8764,note_on,0,0,10,,,,,,,,,6,,,,46,52
8764,note_on,8,0,10,,,,,,,,,6,,,,41,0
8765,control_change,3,0,9,,,,,,,,,12,11,54,,,
8765,note_on,120,0,11,,,,,,,,,13,,,,53,0
8765,note_on,5,0,6,,,,,,,,,5,,,,41,82
8765,control_change,3,0,8,,,,,,,,,11,11,54,,,
8767,control_change,3,0,10,,,,,,,,,6,11,54,,,
8768,note_on,120,0,12,,,,,,,,,14,,,,41,0
8777,control_change,12,0,9,,,,,,,,,12,11,51,,,
8777,control_change,12,0,8,,,,,,,,,11,11,51,,,
8779,control_change,12,0,10,,,,,,,,,6,11,51,,,
8788,control_change,11,0,9,,,,,,,,,12,11,48,,,
8788,control_change,11,0,8,,,,,,,,,11,11,48,,,
8790,control_change,11,0,10,,,,,,,,,6,11,48,,,
8792,note_on,4,0,9,,,,,,,,,12,,,,58,0
8792,note_on,0,0,9,,,,,,,,,12,,,,53,66
8792,note_on,0,0,8,,,,,,,,,11,,,,58,68
8792,note_on,4,0,8,,,,,,,,,11,,,,62,0
8794,note_on,0,0,10,,,,,,,,,6,,,,41,52
8794,note_on,0,0,10,,,,,,,,,6,,,,50,0
8794,note_on,4,0,10,,,,,,,,,6,,,,46,0
8794,note_on,0,0,10,,,,,,,,,6,,,,46,52
8820,control_change,180,0,7,,,,,,,,,10,11,37,,,
8820,note_on,0,0,7,,,,,,,,,10,,,,79,103
8820,note_on,60,0,1,,,,,,,,,0,,,,77,76
8820,note_on,0,0,1,,,,,,,,,0,,,,82,76
8820,set_tempo,120,1,0,,,,,,1034483,,,,,,,,
8822,note_on,30,0,8,,,,,,,,,11,,,,58,0
8822,note_on,60,0,2,,,,,,,,,1,,,,70,75
8822,note_on,0,0,9,,,,,,,,,12,,,,58,66
8822,note_on,0,0,8,,,,,,,,,11,,,,62,68
8822,note_on,30,0,9,,,,,,,,,12,,,,53,0
8822,note_on,0,0,2,,,,,,,,,1,,,,74,75
8824,note_on,0,0,10,,,,,,,,,6,,,,46,52
8824,note_on,0,0,10,,,,,,,,,6,,,,50,52
8824,note_on,0,0,10,,,,,,,,,6,,,,41,0
8824,note_on,30,0,10,,,,,,,,,6,,,,46,0
8826,note_on,0,0,7,,,,,,,,,10,,,,77,103
8826,note_on,6,0,7,,,,,,,,,10,,,,79,0
8829,control_change,3,0,7,,,,,,,,,10,11,40,,,
8832,note_on,0,0,7,,,,,,,,,10,,,,79,103
8832,note_on,3,0,7,,,,,,,,,10,,,,77,0
8838,note_on,0,0,7,,,,,,,,,10,,,,77,103
8838,control_change,0,0,7,,,,,,,,,10,11,43,,,
8838,note_on,6,0,7,,,,,,,,,10,,,,79,0
8844,note_on,0,0,7,,,,,,,,,10,,,,79,103
8844,note_on,6,0,7,,,,,,,,,10,,,,77,0
8847,control_change,3,0,7,,,,,,,,,10,11,46,,,
8850,note_on,3,0,7,,,,,,,,,10,,,,79,0
8850,note_on,0,0,7,,,,,,,,,10,,,,76,103
8852,note_on,0,0,8,,,,,,,,,11,,,,58,68
8852,note_on,30,0,8,,,,,,,,,11,,,,62,0
8852,note_on,30,0,9,,,,,,,,,12,,,,58,0
8852,note_on,0,0,9,,,,,,,,,12,,,,53,66
8854,note_on,0,0,10,,,,,,,,,6,,,,46,52
8854,note_on,0,0,10,,,,,,,,,6,,,,41,52
8854,note_on,0,0,10,,,,,,,,,6,,,,50,0
8854,note_on,30,0,10,,,,,,,,,6,,,,46,0
8856,control_change,6,0,7,,,,,,,,,10,11,49,,,
8865,control_change,0,0,7,,,,,,,,,10,11,52,,,
8865,note_on,0,0,7,,,,,,,,,10,,,,77,103
8865,note_on,9,0,7,,,,,,,,,10,,,,76,0
8878,note_on,177,0,3,,,,,,,,,2,,,,65,0
8880,note_on,15,0,7,,,,,,,,,10,,,,77,0
8880,set_tempo,60,1,0,,,,,,937500,,,,,,,,
8880,note_on,177,0,4,,,,,,,,,3,,,,53,0
8882,note_on,0,0,8,,,,,,,,,11,,,,62,68
8882,note_on,30,0,8,,,,,,,,,11,,,,58,0
8882,note_on,30,0,9,,,,,,,,,12,,,,53,0
8882,note_on,0,0,9,,,,,,,,,12,,,,58,66
8883,note_on,5,0,3,,,,,,,,,2,,,,67,76
8884,note_on,30,0,10,,,,,,,,,6,,,,46,0
8884,note_on,0,0,10,,,,,,,,,6,,,,50,52
8884,note_on,0,0,10,,,,,,,,,6,,,,41,0
8884,note_on,0,0,10,,,,,,,,,6,,,,46,52
8885,note_on,5,0,4,,,,,,,,,3,,,,55,75
8912,note_on,30,0,8,,,,,,,,,11,,,,62,0
8912,note_on,0,0,8,,,,,,,,,11,,,,58,68
8912,note_on,0,0,9,,,,,,,,,12,,,,53,66
8912,note_on,30,0,9,,,,,,,,,12,,,,58,0
8914,note_on,0,0,10,,,,,,,,,6,,,,41,52
8914,note_on,0,0,10,,,,,,,,,6,,,,46,52
8914,note_on,0,0,10,,,,,,,,,6,,,,46,0
8914,note_on,30,0,10,,,,,,,,,6,,,,50,0
8935,note_on,52,0,3,,,,,,,,,2,,,,67,0
8937,note_on,52,0,4,,,,,,,,,3,,,,55,0
8938,note_on,175,0,5,,,,,,,,,4,,,,53,0
8940,note_on,175,0,6,,,,,,,,,5,,,,41,0
8940,note_on,120,0,1,,,,,,,,,0,,,,82,0
8940,note_on,0,0,1,,,,,,,,,0,,,,77,0
8942,note_on,30,0,9,,,,,,,,,12,,,,53,0
8942,note_on,0,0,9,,,,,,,,,12,,,,58,66
8942,note_on,0,0,2,,,,,,,,,1,,,,70,0
8942,note_on,120,0,2,,,,,,,,,1,,,,74,0
8942,note_on,0,0,8,,,,,,,,,11,,,,62,68
8942,note_on,30,0,8,,,,,,,,,11,,,,58,0
8943,note_on,5,0,5,,,,,,,,,4,,,,53,82
8943,note_on,8,0,3,,,,,,,,,2,,,,69,76
8944,note_on,0,0,10,,,,,,,,,6,,,,46,0
8944,note_on,30,0,10,,,,,,,,,6,,,,41,0
8944,note_on,0,0,10,,,,,,,,,6,,,,46,52
8944,note_on,0,0,10,,,,,,,,,6,,,,50,52
8945,note_on,5,0,6,,,,,,,,,5,,,,41,82
8945,note_on,8,0,4,,,,,,,,,3,,,,57,75
8972,note_on,0,0,9,,,,,,,,,12,,,,53,66
8972,note_on,0,0,8,,,,,,,,,11,,,,58,68
8972,note_on,30,0,8,,,,,,,,,11,,,,62,0
8972,note_on,30,0,9,,,,,,,,,12,,,,58,0
8974,note_on,30,0,10,,,,,,,,,6,,,,50,0
8974,note_on,0,0,10,,,,,,,,,6,,,,46,0
8974,note_on,0,0,10,,,,,,,,,6,,,,41,52
8974,note_on,0,0,10,,,,,,,,,6,,,,46,52
8995,note_on,52,0,3,,,,,,,,,2,,,,69,0
8997,note_on,25,0,9,,,,,,,,,12,,,,53,0
8997,note_on,25,0,8,,,,,,,,,11,,,,58,0
8997,note_on,52,0,4,,,,,,,,,3,,,,57,0
8999,note_on,25,0,10,,,,,,,,,6,,,,41,0
8999,note_on,0,0,10,,,,,,,,,6,,,,46,0
9000,control_change,120,0,7,,,,,,,,,10,11,37,,,
9000,note_on,0,0,1,,,,,,,,,0,,,,77,76
9000,note_on,0,0,1,,,,,,,,,0,,,,82,76
9000,note_on,0,0,7,,,,,,,,,10,,,,79,103
9000,control_change,60,0,1,,,,,,,,,0,11,47,,,
9000,set_tempo,120,1,0,,,,,,1034483,,,,,,,,
9002,note_on,0,0,2,,,,,,,,,1,,,,70,75
9002,control_change,60,0,2,,,,,,,,,1,11,47,,,
9002,note_on,5,0,9,,,,,,,,,12,,,,58,66
9002,note_on,5,0,8,,,,,,,,,11,,,,62,68
9002,note_on,0,0,2,,,,,,,,,1,,,,74,75
9003,control_change,60,0,5,,,,,,,,,4,11,42,,,
9003,note_on,0,0,3,,,,,,,,,2,,,,70,76
9003,control_change,8,0,3,,,,,,,,,2,11,70,,,
9004,note_on,5,0,10,,,,,,,,,6,,,,50,52
9004,note_on,0,0,10,,,,,,,,,6,,,,46,52
9005,note_on,8,0,4,,,,,,,,,3,,,,58,75
9005,control_change,0,0,4,,,,,,,,,3,11,70,,,
9005,control_change,60,0,6,,,,,,,,,5,11,42,,,
9005,note_on,240,0,11,,,,,,,,,13,,,,41,43
9006,note_on,0,0,7,,,,,,,,,10,,,,77,103
9006,note_on,6,0,7,,,,,,,,,10,,,,79,0
9008,note_on,240,0,12,,,,,,,,,14,,,,29,36
9009,control_change,3,0,7,,,,,,,,,10,11,40,,,
9012,note_on,0,0,7,,,,,,,,,10,,,,79,103
9012,note_on,3,0,7,,,,,,,,,10,,,,77,0
9018,note_on,0,0,7,,,,,,,,,10,,,,77,103
9018,control_change,18,0,1,,,,,,,,,0,11,49,,,
9018,note_on,6,0,7,,,,,,,,,10,,,,79,0
9018,control_change,0,0,7,,,,,,,,,10,11,43,,,
9020,control_change,18,0,2,,,,,,,,,1,11,49,,,
9021,control_change,18,0,3,,,,,,,,,2,11,71,,,
9021,control_change,18,0,5,,,,,,,,,4,11,44,,,
9023,control_change,18,0,4,,,,,,,,,3,11,71,,,
9023,control_change,18,0,6,,,,,,,,,5,11,44,,,
9024,note_on,0,0,7,,,,,,,,,10,,,,79,103
9024,note_on,6,0,7,,,,,,,,,10,,,,77,0
9027,control_change,3,0,7,,,,,,,,,10,11,46,,,
9030,note_on,0,0,7,,,,,,,,,10,,,,76,103
9030,note_on,3,0,7,,,,,,,,,10,,,,79,0
9032,note_on,0,0,8,,,,,,,,,11,,,,58,68
9032,note_on,30,0,8,,,,,,,,,11,,,,62,0
9032,note_on,30,0,9,,,,,,,,,12,,,,58,0
9032,note_on,0,0,9,,,,,,,,,12,,,,53,66
9034,note_on,30,0,10,,,,,,,,,6,,,,46,0
9034,note_on,0,0,10,,,,,,,,,6,,,,50,0
9034,note_on,0,0,10,,,,,,,,,6,,,,41,52
9034,note_on,0,0,10,,,,,,,,,6,,,,46,52
9036,control_change,18,0,1,,,,,,,,,0,11,51,,,
9036,control_change,6,0,7,,,,,,,,,10,11,49,,,
9038,control_change,18,0,2,,,,,,,,,1,11,51,,,
9039,control_change,18,0,5,,,,,,,,,4,11,46,,,
9039,control_change,18,0,3,,,,,,,,,2,11,73,,,
9041,control_change,18,0,6,,,,,,,,,5,11,46,,,
9041,control_change,18,0,4,,,,,,,,,3,11,73,,,
9045,note_on,0,0,7,,,,,,,,,10,,,,77,103
9045,control_change,0,0,7,,,,,,,,,10,11,52,,,
9045,note_on,9,0,7,,,,,,,,,10,,,,76,0
9054,control_change,18,0,1,,,,,,,,,0,11,52,,,
9055,note_on,16,0,3,,,,,,,,,2,,,,70,0
9056,control_change,18,0,2,,,,,,,,,1,11,52,,,
9057,note_on,16,0,4,,,,,,,,,3,,,,58,0
9057,control_change,2,0,3,,,,,,,,,2,11,75,,,
9057,control_change,18,0,5,,,,,,,,,4,11,48,,,
9059,control_change,2,0,4,,,,,,,,,3,11,75,,,
9059,control_change,18,0,6,,,,,,,,,5,11,48,,,
9060,note_on,15,0,7,,,,,,,,,10,,,,77,0
9060,set_tempo,60,1,0,,,,,,937500,,,,,,,,
9062,note_on,30,0,9,,,,,,,,,12,,,,53,0
9062,note_on,30,0,8,,,,,,,,,11,,,,58,0
9062,note_on,0,0,8,,,,,,,,,11,,,,62,68
9062,note_on,0,0,9,,,,,,,,,12,,,,58,66
9063,note_on,6,0,3,,,,,,,,,2,,,,72,76
9064,note_on,0,0,10,,,,,,,,,6,,,,46,52
9064,note_on,0,0,10,,,,,,,,,6,,,,50,52
9064,note_on,30,0,10,,,,,,,,,6,,,,46,0
9064,note_on,0,0,10,,,,,,,,,6,,,,41,0
9065,note_on,6,0,4,,,,,,,,,3,,,,60,75
9072,control_change,18,0,1,,,,,,,,,0,11,54,,,
9074,control_change,18,0,2,,,,,,,,,1,11,54,,,
9075,control_change,18,0,5,,,,,,,,,4,11,50,,,
9075,control_change,12,0,3,,,,,,,,,2,11,76,,,
9077,control_change,18,0,6,,,,,,,,,5,11,50,,,
9077,control_change,12,0,4,,,,,,,,,3,11,76,,,
9090,control_change,18,0,1,,,,,,,,,0,11,55,,,
9092,note_on,30,0,9,,,,,,,,,12,,,,58,0
9092,note_on,0,0,9,,,,,,,,,12,,,,53,66
9092,control_change,18,0,2,,,,,,,,,1,11,55,,,
9092,note_on,30,0,8,,,,,,,,,11,,,,62,0
9092,note_on,0,0,8,,,,,,,,,11,,,,58,68
9093,control_change,18,0,5,,,,,,,,,4,11,52,,,
9093,control_change,18,0,3,,,,,,,,,2,11,78,,,
9094,note_on,30,0,10,,,,,,,,,6,,,,50,0
9094,note_on,0,0,10,,,,,,,,,6,,,,46,0
9094,note_on,0,0,10,,,,,,,,,6,,,,46,52
9094,note_on,0,0,10,,,,,,,,,6,,,,41,52
9095,control_change,18,0,6,,,,,,,,,5,11,52,,,
9095,control_change,18,0,4,,,,,,,,,3,11,78,,,
9108,control_change,18,0,1,,,,,,,,,0,11,57,,,
9110,control_change,18,0,2,,,,,,,,,1,11,57,,,
9111,control_change,18,0,5,,,,,,,,,4,11,54,,,
9111,control_change,18,0,3,,,,,,,,,2,11,80,,,
9113,control_change,18,0,6,,,,,,,,,5,11,54,,,
9113,control_change,18,0,4,,,,,,,,,3,11,80,,,
9115,note_on,4,0,3,,,,,,,,,2,,,,72,0
9117,note_on,4,0,4,,,,,,,,,3,,,,60,0
9118,note_on,7,0,5,,,,,,,,,4,,,,53,0
9120,note_on,0,0,1,,,,,,,,,0,,,,82,0
9120,note_on,7,0,6,,,,,,,,,5,,,,41,0
9120,note_on,12,0,1,,,,,,,,,0,,,,77,0
9122,note_on,0,0,2,,,,,,,,,1,,,,70,0
9122,note_on,0,0,9,,,,,,,,,12,,,,58,66
9122,note_on,30,0,9,,,,,,,,,12,,,,53,0
9122,note_on,30,0,8,,,,,,,,,11,,,,58,0
9122,note_on,0,0,8,,,,,,,,,11,,,,62,68
9122,note_on,12,0,2,,,,,,,,,1,,,,74,0
9123,note_on,8,0,3,,,,,,,,,2,,,,74,76
9123,note_on,5,0,5,,,,,,,,,4,,,,53,82
9124,note_on,0,0,10,,,,,,,,,6,,,,41,0
9124,note_on,0,0,10,,,,,,,,,6,,,,50,52
9124,note_on,30,0,10,,,,,,,,,6,,,,46,0
9124,note_on,0,0,10,,,,,,,,,6,,,,46,52
9125,note_on,5,0,6,,,,,,,,,5,,,,41,82
9125,note_on,8,0,4,,,,,,,,,3,,,,62,75
9125,note_on,120,0,11,,,,,,,,,13,,,,41,0
9126,control_change,6,0,1,,,,,,,,,0,11,59,,,
9128,control_change,6,0,2,,,,,,,,,1,11,59,,,
9128,note_on,120,0,12,,,,,,,,,14,,,,29,0
9129,control_change,6,0,5,,,,,,,,,4,11,56,,,
9129,control_change,6,0,3,,,,,,,,,2,11,81,,,
9131,control_change,6,0,4,,,,,,,,,3,11,81,,,
9131,control_change,6,0,6,,,,,,,,,5,11,56,,,
9144,control_change,18,0,1,,,,,,,,,0,11,61,,,
9146,control_change,18,0,2,,,,,,,,,1,11,61,,,
9147,control_change,18,0,5,,,,,,,,,4,11,58,,,
9147,control_change,18,0,3,,,,,,,,,2,11,83,,,
9149,control_change,18,0,6,,,,,,,,,5,11,58,,,
9149,control_change,18,0,4,,,,,,,,,3,11,83,,,
9152,note_on,0,0,9,,,,,,,,,12,,,,53,66
9152,note_on,30,0,9,,,,,,,,,12,,,,58,0
9152,note_on,0,0,8,,,,,,,,,11,,,,58,68
9152,note_on,30,0,8,,,,,,,,,11,,,,62,0
9154,note_on,0,0,10,,,,,,,,,6,,,,50,0
9154,note_on,0,0,10,,,,,,,,,6,,,,41,52
9154,note_on,0,0,10,,,,,,,,,6,,,,46,52
9154,note_on,30,0,10,,,,,,,,,6,,,,46,0
9162,control_change,18,0,1,,,,,,,,,0,11,62,,,
9164,control_change,18,0,2,,,,,,,,,1,11,62,,,
9165,control_change,18,0,3,,,,,,,,,2,11,85,,,
9165,control_change,18,0,5,,,,,,,,,4,11,60,,,
9167,control_change,18,0,4,,,,,,,,,3,11,85,,,
9167,control_change,18,0,6,,,,,,,,,5,11,60,,,
9175,note_on,10,0,3,,,,,,,,,2,,,,74,0
9177,note_on,25,0,9,,,,,,,,,12,,,,53,0
9177,note_on,25,0,8,,,,,,,,,11,,,,58,0
9177,note_on,10,0,4,,,,,,,,,3,,,,62,0
9179,note_on,0,0,10,,,,,,,,,6,,,,41,0
9179,note_on,25,0,10,,,,,,,,,6,,,,46,0
9180,note_on,0,0,1,,,,,,,,,0,,,,84,76
9180,control_change,120,0,7,,,,,,,,,10,11,37,,,
9180,note_on,18,0,1,,,,,,,,,0,,,,77,76
9180,set_tempo,120,1,0,,,,,,1061947,,,,,,,,
9180,note_on,0,0,7,,,,,,,,,10,,,,79,103
9180,control_change,0,0,1,,,,,,,,,0,11,64,,,
9182,note_on,18,0,2,,,,,,,,,1,,,,69,75
9182,note_on,0,0,2,,,,,,,,,1,,,,72,75
9182,control_change,0,0,2,,,,,,,,,1,11,64,,,
9182,note_on,5,0,8,,,,,,,,,11,,,,63,68
9182,note_on,5,0,9,,,,,,,,,12,,,,57,66
9183,control_change,8,0,3,,,,,,,,,2,11,86,,,
9183,control_change,18,0,5,,,,,,,,,4,11,62,,,
9183,note_on,0,0,3,,,,,,,,,2,,,,77,76
9184,note_on,0,0,10,,,,,,,,,6,,,,51,52
9184,note_on,5,0,10,,,,,,,,,6,,,,48,52
9185,note_on,0,0,4,,,,,,,,,3,,,,65,75
9185,control_change,18,0,6,,,,,,,,,5,11,62,,,
9185,note_on,60,0,11,,,,,,,,,13,,,,41,43
9185,control_change,8,0,4,,,,,,,,,3,11,86,,,
9186,note_on,6,0,7,,,,,,,,,10,,,,79,0
9186,note_on,0,0,7,,,,,,,,,10,,,,77,103
9188,note_on,60,0,12,,,,,,,,,14,,,,29,36
9189,control_change,3,0,7,,,,,,,,,10,11,40,,,
9192,note_on,0,0,7,,,,,,,,,10,,,,79,103
9192,note_on,3,0,7,,,,,,,,,10,,,,77,0
9198,note_on,6,0,7,,,,,,,,,10,,,,79,0
9198,control_change,0,0,7,,,,,,,,,10,11,43,,,
9198,note_on,0,0,7,,,,,,,,,10,,,,77,103
9198,control_change,18,0,1,,,,,,,,,0,11,62,,,
9200,control_change,18,0,2,,,,,,,,,1,11,62,,,
9201,control_change,18,0,5,,,,,,,,,4,11,60,,,
9201,control_change,18,0,3,,,,,,,,,2,11,85,,,
9203,control_change,18,0,6,,,,,,,,,5,11,60,,,
9203,control_change,18,0,4,,,,,,,,,3,11,85,,,
9204,note_on,6,0,7,,,,,,,,,10,,,,77,0
9204,note_on,0,0,7,,,,,,,,,10,,,,79,103
9207,control_change,3,0,7,,,,,,,,,10,11,46,,,
9210,note_on,0,0,7,,,,,,,,,10,,,,76,103
9210,note_on,3,0,7,,,,,,,,,10,,,,79,0
9212,note_on,30,0,8,,,,,,,,,11,,,,63,0
9212,note_on,0,0,8,,,,,,,,,11,,,,57,68
9212,note_on,30,0,9,,,,,,,,,12,,,,57,0
9212,note_on,0,0,9,,,,,,,,,12,,,,53,66
9214,note_on,0,0,10,,,,,,,,,6,,,,41,52
9214,note_on,30,0,10,,,,,,,,,6,,,,51,0
9214,note_on,0,0,10,,,,,,,,,6,,,,48,52
9214,note_on,0,0,10,,,,,,,,,6,,,,48,0
9216,control_change,18,0,1,,,,,,,,,0,11,61,,,
9216,control_change,6,0,7,,,,,,,,,10,11,49,,,
9218,control_change,18,0,2,,,,,,,,,1,11,61,,,
9219,control_change,18,0,5,,,,,,,,,4,11,58,,,
9219,control_change,18,0,3,,,,,,,,,2,11,83,,,
9221,control_change,18,0,6,,,,,,,,,5,11,58,,,
9221,control_change,18,0,4,,,,,,,,,3,11,83,,,
9225,note_on,9,0,7,,,,,,,,,10,,,,76,0
9225,note_on,0,0,7,,,,,,,,,10,,,,77,103
9225,control_change,0,0,7,,,,,,,,,10,11,52,,,
9234,control_change,18,0,1,,,,,,,,,0,11,59,,,
9236,control_change,18,0,2,,,,,,,,,1,11,59,,,
9237,control_change,18,0,5,,,,,,,,,4,11,56,,,
9237,control_change,18,0,3,,,,,,,,,2,11,81,,,
9239,control_change,18,0,4,,,,,,,,,3,11,81,,,
9239,control_change,18,0,6,,,,,,,,,5,11,56,,,
9240,note_on,15,0,7,,,,,,,,,10,,,,77,0
9240,set_tempo,60,1,0,,,,,,937500,,,,,,,,
9242,note_on,30,0,8,,,,,,,,,11,,,,57,0
9242,note_on,0,0,9,,,,,,,,,12,,,,57,66
9242,note_on,30,0,9,,,,,,,,,12,,,,53,0
9242,note_on,0,0,8,,,,,,,,,11,,,,63,68
9243,note_on,0,0,3,,,,,,,,,2,,,,75,76
9243,note_on,6,0,3,,,,,,,,,2,,,,77,0
9244,note_on,0,0,10,,,,,,,,,6,,,,41,0
9244,note_on,30,0,10,,,,,,,,,6,,,,48,0
9244,note_on,0,0,10,,,,,,,,,6,,,,51,52
9244,note_on,0,0,10,,,,,,,,,6,,,,48,52
9245,note_on,0,0,4,,,,,,,,,3,,,,63,75
9245,note_on,6,0,4,,,,,,,,,3,,,,65,0
9252,control_change,18,0,1,,,,,,,,,0,11,57,,,
9254,control_change,18,0,2,,,,,,,,,1,11,57,,,
9255,control_change,12,0,3,,,,,,,,,2,11,80,,,
9255,control_change,18,0,5,,,,,,,,,4,11,54,,,
9257,control_change,18,0,6,,,,,,,,,5,11,54,,,
9257,control_change,12,0,4,,,,,,,,,3,11,80,,,
9270,control_change,18,0,1,,,,,,,,,0,11,55,,,
9272,note_on,30,0,9,,,,,,,,,12,,,,57,0
9272,note_on,0,0,9,,,,,,,,,12,,,,53,66
9272,control_change,18,0,2,,,,,,,,,1,11,55,,,
9272,note_on,0,0,8,,,,,,,,,11,,,,57,68
9272,note_on,30,0,8,,,,,,,,,11,,,,63,0
9273,control_change,18,0,3,,,,,,,,,2,11,78,,,
9273,control_change,18,0,5,,,,,,,,,4,11,52,,,
9274,note_on,0,0,10,,,,,,,,,6,,,,41,52
9274,note_on,0,0,10,,,,,,,,,6,,,,48,52
9274,note_on,30,0,10,,,,,,,,,6,,,,48,0
9274,note_on,0,0,10,,,,,,,,,6,,,,51,0
9275,control_change,18,0,4,,,,,,,,,3,11,78,,,
9275,control_change,18,0,6,,,,,,,,,5,11,52,,,
9288,control_change,18,0,1,,,,,,,,,0,11,54,,,
9290,control_change,18,0,2,,,,,,,,,1,11,54,,,
9291,control_change,18,0,5,,,,,,,,,4,11,50,,,
9291,control_change,18,0,3,,,,,,,,,2,11,76,,,
9293,control_change,18,0,6,,,,,,,,,5,11,50,,,
9293,control_change,18,0,4,,,,,,,,,3,11,76,,,
9298,note_on,7,0,3,,,,,,,,,2,,,,75,0
9298,note_on,7,0,5,,,,,,,,,4,,,,53,0
9300,note_on,7,0,6,,,,,,,,,5,,,,41,0
9300,note_on,7,0,4,,,,,,,,,3,,,,63,0
9300,note_on,0,0,1,,,,,,,,,0,,,,77,0
9300,note_on,12,0,1,,,,,,,,,0,,,,84,0
9300,set_tempo,60,1,0,,,,,,983607,,,,,,,,
9302,note_on,30,0,9,,,,,,,,,12,,,,53,0
9302,note_on,0,0,9,,,,,,,,,12,,,,57,66
9302,note_on,12,0,2,,,,,,,,,1,,,,72,0
9302,note_on,0,0,2,,,,,,,,,1,,,,69,0
9302,note_on,0,0,8,,,,,,,,,11,,,,63,68
9302,note_on,30,0,8,,,,,,,,,11,,,,57,0
9303,note_on,5,0,5,,,,,,,,,4,,,,53,82
9303,note_on,5,0,3,,,,,,,,,2,,,,72,76
9304,note_on,0,0,10,,,,,,,,,6,,,,48,52
9304,note_on,0,0,10,,,,,,,,,6,,,,51,52
9304,note_on,30,0,10,,,,,,,,,6,,,,41,0
9304,note_on,0,0,10,,,,,,,,,6,,,,48,0
9305,note_on,5,0,6,,,,,,,,,5,,,,41,82
9305,note_on,120,0,11,,,,,,,,,13,,,,41,0
9305,note_on,5,0,4,,,,,,,,,3,,,,60,75
9306,control_change,6,0,1,,,,,,,,,0,11,52,,,
9308,note_on,120,0,12,,,,,,,,,14,,,,29,0
9308,control_change,6,0,2,,,,,,,,,1,11,52,,,
9309,control_change,6,0,5,,,,,,,,,4,11,48,,,
9309,control_change,6,0,3,,,,,,,,,2,11,75,,,
9311,control_change,6,0,4,,,,,,,,,3,11,75,,,
9311,control_change,6,0,6,,,,,,,,,5,11,48,,,
9324,control_change,18,0,1,,,,,,,,,0,11,51,,,
9326,control_change,18,0,2,,,,,,,,,1,11,51,,,
9327,control_change,18,0,5,,,,,,,,,4,11,46,,,
9327,control_change,18,0,3,,,,,,,,,2,11,73,,,
9329,control_change,18,0,6,,,,,,,,,5,11,46,,,
9329,control_change,18,0,4,,,,,,,,,3,11,73,,,
9332,note_on,0,0,9,,,,,,,,,12,,,,53,66
9332,note_on,0,0,8,,,,,,,,,11,,,,57,68
9332,note_on,30,0,8,,,,,,,,,11,,,,63,0
9332,note_on,30,0,9,,,,,,,,,12,,,,57,0
9333,note_on,6,0,3,,,,,,,,,2,,,,72,0
9333,note_on,0,0,3,,,,,,,,,2,,,,74,76
9334,note_on,30,0,10,,,,,,,,,6,,,,48,0
9334,note_on,0,0,10,,,,,,,,,6,,,,51,0
9334,note_on,0,0,10,,,,,,,,,6,,,,41,52
9334,note_on,0,0,10,,,,,,,,,6,,,,48,52
9335,note_on,0,0,4,,,,,,,,,3,,,,62,75
9335,note_on,6,0,4,,,,,,,,,3,,,,60,0
9342,control_change,18,0,1,,,,,,,,,0,11,49,,,
9344,control_change,18,0,2,,,,,,,,,1,11,49,,,
9345,control_change,12,0,3,,,,,,,,,2,11,71,,,
9345,control_change,18,0,5,,,,,,,,,4,11,44,,,
9347,control_change,18,0,6,,,,,,,,,5,11,44,,,
9347,control_change,12,0,4,,,,,,,,,3,11,71,,,
9357,note_on,25,0,8,,,,,,,,,11,,,,57,0
9357,note_on,25,0,9,,,,,,,,,12,,,,53,0
9358,note_on,13,0,3,,,,,,,,,2,,,,74,0
9358,note_on,13,0,5,,,,,,,,,4,,,,53,0
9359,note_on,25,0,10,,,,,,,,,6,,,,48,0
9359,note_on,0,0,10,,,,,,,,,6,,,,41,0
9360,note_on,13,0,6,,,,,,,,,5,,,,41,0
9360,set_tempo,60,1,0,,,,,,1034483,,,,,,,,
9360,note_on,13,0,4,,,,,,,,,3,,,,62,0
9360,control_change,120,0,7,,,,,,,,,10,11,27,,,
9360,note_on,0,0,1,,,,,,,,,0,,,,82,49
9360,control_change,0,0,1,,,,,,,,,0,11,47,,,
9360,note_on,18,0,1,,,,,,,,,0,,,,77,49
9360,note_on,0,0,7,,,,,,,,,10,,,,70,103
9362,note_on,0,0,9,,,,,,,,,12,,,,58,56
9362,note_on,0,0,2,,,,,,,,,1,,,,65,48
9362,note_on,0,0,8,,,,,,,,,11,,,,62,59
9362,control_change,5,0,9,,,,,,,,,12,11,27,,,
9362,control_change,18,0,2,,,,,,,,,1,11,47,,,
9362,note_on,0,0,2,,,,,,,,,1,,,,70,48
9362,control_change,5,0,8,,,,,,,,,11,11,27,,,
9363,control_change,5,0,3,,,,,,,,,2,11,70,,,
9363,control_change,5,0,5,,,,,,,,,4,11,42,,,
9363,note_on,0,0,5,,,,,,,,,4,,,,53,51
9363,note_on,0,0,3,,,,,,,,,2,,,,70,41
9363,note_on,0,0,3,,,,,,,,,2,,,,62,41
9364,note_on,0,0,10,,,,,,,,,6,,,,46,52
9364,control_change,5,0,10,,,,,,,,,6,11,27,,,
9365,note_on,0,0,6,,,,,,,,,5,,,,46,51
9365,note_on,60,0,11,,,,,,,,,13,,,,46,43
9365,note_on,0,0,4,,,,,,,,,3,,,,46,40
9365,control_change,5,0,6,,,,,,,,,5,11,42,,,
9365,note_on,5,0,4,,,,,,,,,3,,,,58,40
9366,control_change,4,0,9,,,,,,,,,12,11,30,,,
9366,control_change,4,0,8,,,,,,,,,11,11,30,,,
9368,note_on,60,0,12,,,,,,,,,14,,,,34,36
9368,control_change,4,0,10,,,,,,,,,6,11,30,,,
9371,control_change,5,0,9,,,,,,,,,12,11,33,,,
9371,control_change,5,0,8,,,,,,,,,11,11,33,,,
9373,control_change,5,0,10,,,,,,,,,6,11,33,,,
9375,control_change,4,0,8,,,,,,,,,11,11,36,,,
9375,control_change,4,0,9,,,,,,,,,12,11,36,,,
9376,control_change,16,0,7,,,,,,,,,10,11,30,,,
9377,control_change,4,0,10,,,,,,,,,6,11,36,,,
9380,control_change,5,0,8,,,,,,,,,11,11,39,,,
9380,control_change,5,0,9,,,,,,,,,12,11,39,,,
9382,control_change,5,0,10,,,,,,,,,6,11,39,,,
9384,control_change,4,0,8,,,,,,,,,11,11,42,,,
9384,control_change,4,0,9,,,,,,,,,12,11,42,,,
9386,control_change,4,0,10,,,,,,,,,6,11,42,,,
9389,control_change,5,0,8,,,,,,,,,11,11,45,,,
9389,control_change,5,0,9,,,,,,,,,12,11,45,,,
9391,control_change,5,0,10,,,,,,,,,6,11,45,,,
9392,note_on,0,0,8,,,,,,,,,11,,,,58,59
9392,note_on,3,0,8,,,,,,,,,11,,,,62,0
9392,note_on,3,0,9,,,,,,,,,12,,,,58,0
9392,note_on,0,0,9,,,,,,,,,12,,,,53,56
9394,note_on,3,0,10,,,,,,,,,6,,,,46,0
9394,note_on,0,0,10,,,,,,,,,6,,,,50,52
9396,control_change,20,0,7,,,,,,,,,10,11,33,,,
9412,control_change,16,0,7,,,,,,,,,10,11,36,,,
9420,set_tempo,60,1,0,,,,,,937500,,,,,,,,
9422,note_on,30,0,8,,,,,,,,,11,,,,58,0
9422,note_on,0,0,8,,,,,,,,,11,,,,62,59
9422,note_on,30,0,9,,,,,,,,,12,,,,53,0
9422,note_on,0,0,9,,,,,,,,,12,,,,58,56
9424,note_on,0,0,10,,,,,,,,,6,,,,46,52
9424,note_on,30,0,10,,,,,,,,,6,,,,50,0
9432,control_change,20,0,7,,,,,,,,,10,11,39,,,
9438,control_change,75,0,3,,,,,,,,,2,11,70,,,
9440,control_change,75,0,4,,,,,,,,,3,11,70,,,
9443,control_change,5,0,3,,,,,,,,,2,11,67,,,
9445,control_change,5,0,4,,,,,,,,,3,11,67,,,
9448,control_change,16,0,7,,,,,,,,,10,11,42,,,
9448,control_change,5,0,3,,,,,,,,,2,11,64,,,
9450,control_change,5,0,4,,,,,,,,,3,11,64,,,
9452,note_on,30,0,9,,,,,,,,,12,,,,58,0
9452,note_on,0,0,9,,,,,,,,,12,,,,53,56
9452,note_on,30,0,8,,,,,,,,,11,,,,62,0
9452,note_on,0,0,8,,,,,,,,,11,,,,58,59
9453,control_change,5,0,3,,,,,,,,,2,11,61,,,
9454,note_on,0,0,10,,,,,,,,,6,,,,50,52
9454,note_on,30,0,10,,,,,,,,,6,,,,46,0
9455,control_change,5,0,4,,,,,,,,,3,11,61,,,
9459,control_change,6,0,3,,,,,,,,,2,11,58,,,
9461,control_change,6,0,4,,,,,,,,,3,11,58,,,
9464,control_change,5,0,3,,,,,,,,,2,11,55,,,
9466,control_change,5,0,4,,,,,,,,,3,11,55,,,
9468,control_change,20,0,7,,,,,,,,,10,11,45,,,
9469,control_change,5,0,3,,,,,,,,,2,11,52,,,
9471,control_change,5,0,4,,,,,,,,,3,11,52,,,
9474,control_change,5,0,3,,,,,,,,,2,11,49,,,
9476,control_change,5,0,4,,,,,,,,,3,11,49,,,
9480,control_change,6,0,3,,,,,,,,,2,11,46,,,
9480,note_on,0,0,1,,,,,,,,,0,,,,77,0
9480,note_on,120,0,1,,,,,,,,,0,,,,82,0
9482,note_on,30,0,8,,,,,,,,,11,,,,58,0
9482,note_on,0,0,2,,,,,,,,,1,,,,65,0
9482,note_on,120,0,2,,,,,,,,,1,,,,70,0
9482,note_on,0,0,9,,,,,,,,,12,,,,58,56
9482,note_on,30,0,9,,,,,,,,,12,,,,53,0
9482,note_on,0,0,8,,,,,,,,,11,,,,62,59
9482,control_change,6,0,4,,,,,,,,,3,11,46,,,
9483,note_on,3,0,3,,,,,,,,,2,,,,70,0
9483,note_on,120,0,5,,,,,,,,,4,,,,53,0
9483,note_on,0,0,3,,,,,,,,,2,,,,62,0
9484,note_on,0,0,10,,,,,,,,,6,,,,46,52
9484,note_on,30,0,10,,,,,,,,,6,,,,50,0
9485,note_on,0,0,4,,,,,,,,,3,,,,58,0
9485,note_on,3,0,4,,,,,,,,,3,,,,46,0
9485,note_on,120,0,11,,,,,,,,,13,,,,46,0
9485,note_on,120,0,6,,,,,,,,,5,,,,46,0
9488,note_on,120,0,12,,,,,,,,,14,,,,34,0
9512,note_on,30,0,8,,,,,,,,,11,,,,62,0
9512,note_on,0,0,8,,,,,,,,,11,,,,58,59
9512,note_on,30,0,9,,,,,,,,,12,,,,58,0
9512,note_on,0,0,9,,,,,,,,,12,,,,53,56
9514,note_on,30,0,10,,,,,,,,,6,,,,46,0
9514,note_on,0,0,10,,,,,,,,,6,,,,50,52
9540,set_tempo,120,1,0,,,,,,1034483,,,,,,,,
9542,note_on,0,0,8,,,,,,,,,11,,,,62,59
9542,note_on,30,0,9,,,,,,,,,12,,,,53,0
9542,note_on,0,0,9,,,,,,,,,12,,,,58,56
9542,note_on,30,0,8,,,,,,,,,11,,,,58,0
9544,note_on,30,0,10,,,,,,,,,6,,,,50,0
9544,note_on,0,0,10,,,,,,,,,6,,,,46,52
9572,note_on,0,0,9,,,,,,,,,12,,,,53,56
9572,note_on,0,0,8,,,,,,,,,11,,,,58,59
9572,note_on,30,0,8,,,,,,,,,11,,,,62,0
9572,note_on,30,0,9,,,,,,,,,12,,,,58,0
9574,note_on,30,0,10,,,,,,,,,6,,,,46,0
9574,note_on,0,0,10,,,,,,,,,6,,,,50,52
9600,set_tempo,60,1,0,,,,,,937500,,,,,,,,
9602,note_on,30,0,9,,,,,,,,,12,,,,53,0
9602,note_on,0,0,8,,,,,,,,,11,,,,62,59
9602,note_on,0,0,9,,,,,,,,,12,,,,58,56
9602,note_on,30,0,8,,,,,,,,,11,,,,58,0
9604,note_on,0,0,10,,,,,,,,,6,,,,46,52
9604,note_on,30,0,10,,,,,,,,,6,,,,50,0
9632,note_on,0,0,8,,,,,,,,,11,,,,58,59
9632,note_on,30,0,9,,,,,,,,,12,,,,58,0
9632,note_on,0,0,9,,,,,,,,,12,,,,53,56
9632,note_on,30,0,8,,,,,,,,,11,,,,62,0
9634,note_on,0,0,10,,,,,,,,,6,,,,50,52
9634,note_on,30,0,10,,,,,,,,,6,,,,46,0
9655,note_on,187,0,7,,,,,,,,,10,,,,70,0
9660,note_on,5,0,7,,,,,,,,,10,,,,70,103
9662,note_on,30,0,9,,,,,,,,,12,,,,53,0
9662,note_on,30,0,8,,,,,,,,,11,,,,58,0
9662,note_on,0,0,8,,,,,,,,,11,,,,62,59
9662,note_on,0,0,9,,,,,,,,,12,,,,58,56
9664,note_on,30,0,10,,,,,,,,,6,,,,50,0
9664,note_on,0,0,10,,,,,,,,,6,,,,46,52
9692,note_on,0,0,8,,,,,,,,,11,,,,58,59
9692,note_on,30,0,8,,,,,,,,,11,,,,62,0
9692,note_on,0,0,9,,,,,,,,,12,,,,53,56
9692,note_on,30,0,9,,,,,,,,,12,,,,58,0
9694,note_on,30,0,10,,,,,,,,,6,,,,46,0
9694,note_on,0,0,10,,,,,,,,,6,,,,50,52
9715,note_on,55,0,7,,,,,,,,,10,,,,70,0
9717,note_on,25,0,9,,,,,,,,,12,,,,53,0
9717,note_on,25,0,8,,,,,,,,,11,,,,58,0
9719,note_on,25,0,10,,,,,,,,,6,,,,50,0
9720,note_on,5,0,7,,,,,,,,,10,,,,70,103
9720,set_tempo,120,1,0,,,,,,1034483,,,,,,,,
9722,note_on,5,0,8,,,,,,,,,11,,,,60,59
9722,note_on,5,0,9,,,,,,,,,12,,,,57,56
9724,note_on,5,0,10,,,,,,,,,6,,,,46,52
9735,note_on,0,0,7,,,,,,,,,10,,,,69,107
9735,note_on,15,0,7,,,,,,,,,10,,,,70,0
9752,note_on,30,0,9,,,,,,,,,12,,,,57,0
9752,note_on,30,0,8,,,,,,,,,11,,,,60,0
9752,note_on,0,0,8,,,,,,,,,11,,,,57,59
9752,note_on,0,0,9,,,,,,,,,12,,,,53,56
9754,note_on,0,0,10,,,,,,,,,6,,,,51,52
9754,note_on,30,0,10,,,,,,,,,6,,,,46,0
9780,note_on,0,0,7,,,,,,,,,10,,,,67,120
9780,set_tempo,60,1,0,,,,,,937500,,,,,,,,
9780,note_on,45,0,7,,,,,,,,,10,,,,69,0
9782,note_on,30,0,8,,,,,,,,,11,,,,57,0
9782,note_on,0,0,8,,,,,,,,,11,,,,60,59
9782,note_on,0,0,9,,,,,,,,,12,,,,57,56
9782,note_on,30,0,9,,,,,,,,,12,,,,53,0
9784,note_on,30,0,10,,,,,,,,,6,,,,51,0
9784,note_on,0,0,10,,,,,,,,,6,,,,46,52
9812,note_on,0,0,8,,,,,,,,,11,,,,57,59
9812,note_on,0,0,9,,,,,,,,,12,,,,53,56
9812,note_on,30,0,9,,,,,,,,,12,,,,57,0
9812,note_on,30,0,8,,,,,,,,,11,,,,60,0
9814,note_on,30,0,10,,,,,,,,,6,,,,46,0
9814,note_on,0,0,10,,,,,,,,,6,,,,51,52
9840,note_on,60,0,7,,,,,,,,,10,,,,67,0
9840,note_on,0,0,7,,,,,,,,,10,,,,65,120
9842,note_on,30,0,9,,,,,,,,,12,,,,53,0
9842,note_on,0,0,9,,,,,,,,,12,,,,57,56
9842,note_on,0,0,8,,,,,,,,,11,,,,60,59
9842,note_on,30,0,8,,,,,,,,,11,,,,57,0
9844,note_on,30,0,10,,,,,,,,,6,,,,51,0
9844,note_on,0,0,10,,,,,,,,,6,,,,46,52
9872,note_on,0,0,8,,,,,,,,,11,,,,57,59
9872,note_on,30,0,8,,,,,,,,,11,,,,60,0
9872,note_on,30,0,9,,,,,,,,,12,,,,57,0
9872,note_on,0,0,9,,,,,,,,,12,,,,53,56
9874,note_on,0,0,10,,,,,,,,,6,,,,51,52
9874,note_on,30,0,10,,,,,,,,,6,,,,46,0
9895,note_on,55,0,7,,,,,,,,,10,,,,65,0
9900,set_tempo,120,1,0,,,,,,1034483,,,,,,,,
9900,note_on,5,0,7,,,,,,,,,10,,,,65,111
9902,note_on,30,0,9,,,,,,,,,12,,,,53,0
9902,note_on,0,0,8,,,,,,,,,11,,,,60,59
9902,note_on,30,0,8,,,,,,,,,11,,,,57,0
9902,note_on,0,0,9,,,,,,,,,12,,,,57,56
9904,note_on,30,0,10,,,,,,,,,6,,,,51,0
9904,note_on,0,0,10,,,,,,,,,6,,,,46,52
9932,note_on,0,0,9,,,,,,,,,12,,,,53,56
9932,note_on,0,0,8,,,,,,,,,11,,,,57,59
9932,note_on,30,0,8,,,,,,,,,11,,,,60,0
9932,note_on,30,0,9,,,,,,,,,12,,,,57,0
9934,note_on,30,0,10,,,,,,,,,6,,,,46,0
9934,note_on,0,0,10,,,,,,,,,6,,,,51,52
9949,note_on,49,0,7,,,,,,,,,10,,,,65,0
9960,note_on,11,0,7,,,,,,,,,10,,,,67,103
9960,set_tempo,60,1,0,,,,,,937500,,,,,,,,
9962,note_on,30,0,8,,,,,,,,,11,,,,57,0
9962,note_on,0,0,8,,,,,,,,,11,,,,60,59
9962,note_on,30,0,9,,,,,,,,,12,,,,53,0
9962,note_on,0,0,9,,,,,,,,,12,,,,57,56
9964,note_on,0,0,10,,,,,,,,,6,,,,46,52
9964,note_on,30,0,10,,,,,,,,,6,,,,51,0
9992,note_on,30,0,8,,,,,,,,,11,,,,60,0
9992,note_on,0,0,8,,,,,,,,,11,,,,57,59
9992,note_on,30,0,9,,,,,,,,,12,,,,57,0
9992,note_on,0,0,9,,,,,,,,,12,,,,53,56
9994,note_on,0,0,10,,,,,,,,,6,,,,51,52
9994,note_on,30,0,10,,,,,,,,,6,,,,46,0
10009,note_on,49,0,7,,,,,,,,,10,,,,67,0
10020,note_on,11,0,7,,,,,,,,,10,,,,69,103
10022,note_on,30,0,8,,,,,,,,,11,,,,57,0
10022,note_on,0,0,8,,,,,,,,,11,,,,60,59
10022,note_on,0,0,9,,,,,,,,,12,,,,57,56
10022,note_on,30,0,9,,,,,,,,,12,,,,53,0
10024,note_on,30,0,10,,,,,,,,,6,,,,51,0
10024,note_on,0,0,10,,,,,,,,,6,,,,46,52
10052,note_on,30,0,9,,,,,,,,,12,,,,57,0
10052,note_on,30,0,8,,,,,,,,,11,,,,60,0
10052,note_on,0,0,9,,,,,,,,,12,,,,53,56
10052,note_on,0,0,8,,,,,,,,,11,,,,57,59
10054,note_on,0,0,10,,,,,,,,,6,,,,51,52
10054,note_on,30,0,10,,,,,,,,,6,,,,46,0
10069,note_on,49,0,7,,,,,,,,,10,,,,69,0
10077,note_on,25,0,8,,,,,,,,,11,,,,57,0
10077,note_on,25,0,9,,,,,,,,,12,,,,53,0
10079,note_on,25,0,10,,,,,,,,,6,,,,51,0
10080,note_on,0,0,7,,,,,,,,,10,,,,70,103
10080,control_change,11,0,7,,,,,,,,,10,11,37,,,
10080,set_tempo,120,1,0,,,,,,1034483,,,,,,,,
10082,note_on,0,0,8,,,,,,,,,11,,,,62,59
10082,control_change,5,0,9,,,,,,,,,12,11,47,,,
10082,note_on,0,0,9,,,,,,,,,12,,,,58,56
10082,control_change,5,0,8,,,,,,,,,11,11,47,,,
10083,control_change,600,0,3,,,,,,,,,2,11,40,,,
10083,note_on,0,0,3,,,,,,,,,2,,,,70,96
10084,control_change,5,0,10,,,,,,,,,6,11,47,,,
10084,note_on,0,0,10,,,,,,,,,6,,,,46,52
10085,control_change,600,0,4,,,,,,,,,3,11,40,,,
10085,note_on,0,0,4,,,,,,,,,3,,,,58,95
10097,control_change,17,0,7,,,,,,,,,10,11,40,,,
10098,control_change,15,0,3,,,,,,,,,2,11,42,,,
10100,control_change,15,0,4,,,,,,,,,3,11,42,,,
10110,control_change,28,0,9,,,,,,,,,12,11,49,,,
10110,control_change,28,0,8,,,,,,,,,11,11,49,,,
10112,note_on,0,0,9,,,,,,,,,12,,,,53,56
10112,note_on,0,0,8,,,,,,,,,11,,,,58,59
10112,note_on,2,0,8,,,,,,,,,11,,,,62,0
10112,control_change,28,0,10,,,,,,,,,6,11,49,,,
10112,note_on,2,0,9,,,,,,,,,12,,,,58,0
10113,control_change,15,0,3,,,,,,,,,2,11,44,,,
10114,note_on,0,0,10,,,,,,,,,6,,,,50,52
10114,note_on,2,0,10,,,,,,,,,6,,,,46,0
10115,control_change,15,0,4,,,,,,,,,3,11,44,,,
10115,control_change,18,0,7,,,,,,,,,10,11,43,,,
10125,control_change,13,0,8,,,,,,,,,11,11,50,,,
10125,control_change,13,0,9,,,,,,,,,12,11,50,,,
10127,control_change,13,0,10,,,,,,,,,6,11,50,,,
10128,control_change,15,0,3,,,,,,,,,2,11,46,,,
10130,control_change,15,0,4,,,,,,,,,3,11,46,,,
10132,control_change,17,0,7,,,,,,,,,10,11,46,,,
10140,set_tempo,60,1,0,,,,,,937500,,,,,,,,
10142,note_on,0,0,9,,,,,,,,,12,,,,58,56
10142,note_on,17,0,9,,,,,,,,,12,,,,53,0
10142,note_on,0,0,8,,,,,,,,,11,,,,62,59
10142,note_on,17,0,8,,,,,,,,,11,,,,58,0
10143,control_change,15,0,3,,,,,,,,,2,11,48,,,
10144,note_on,0,0,10,,,,,,,,,6,,,,46,52
10144,note_on,17,0,10,,,,,,,,,6,,,,50,0
10145,control_change,15,0,4,,,,,,,,,3,11,48,,,
10150,control_change,18,0,7,,,,,,,,,10,11,49,,,
10154,control_change,12,0,8,,,,,,,,,11,11,52,,,
10154,control_change,12,0,9,,,,,,,,,12,11,52,,,
10156,control_change,12,0,10,,,,,,,,,6,11,52,,,
10158,control_change,15,0,3,,,,,,,,,2,11,50,,,
10160,control_change,15,0,4,,,,,,,,,3,11,50,,,
10168,control_change,18,0,7,,,,,,,,,10,11,52,,,
10172,note_on,18,0,8,,,,,,,,,11,,,,62,0
10172,note_on,18,0,9,,,,,,,,,12,,,,58,0
10172,note_on,0,0,9,,,,,,,,,12,,,,53,56
10172,note_on,0,0,8,,,,,,,,,11,,,,58,59
10173,control_change,15,0,3,,,,,,,,,2,11,52,,,
10174,note_on,0,0,10,,,,,,,,,6,,,,50,52
10174,note_on,18,0,10,,,,,,,,,6,,,,46,0
10175,control_change,15,0,4,,,,,,,,,3,11,52,,,
10182,control_change,10,0,8,,,,,,,,,11,11,54,,,
10182,control_change,10,0,9,,,,,,,,,12,11,54,,,
10184,control_change,10,0,10,,,,,,,,,6,11,54,,,
10191,control_change,18,0,3,,,,,,,,,2,11,52,,,
10193,control_change,18,0,4,,,,,,,,,3,11,52,,,
10195,control_change,27,0,7,,,,,,,,,10,11,55,,,
10197,control_change,15,0,8,,,,,,,,,11,11,55,,,
10197,control_change,15,0,9,,,,,,,,,12,11,55,,,
10199,control_change,15,0,10,,,,,,,,,6,11,55,,,
10202,note_on,5,0,9,,,,,,,,,12,,,,53,0
10202,note_on,0,0,9,,,,,,,,,12,,,,58,56
10202,note_on,5,0,8,,,,,,,,,11,,,,58,0
10202,note_on,0,0,8,,,,,,,,,11,,,,62,59
10204,note_on,0,0,10,,,,,,,,,6,,,,46,52
10204,note_on,5,0,10,,,,,,,,,6,,,,50,0
10209,control_change,18,0,3,,,,,,,,,2,11,53,,,
10211,control_change,18,0,4,,,,,,,,,3,11,53,,,
10224,control_change,29,0,7,,,,,,,,,10,11,57,,,
10226,control_change,24,0,8,,,,,,,,,11,11,57,,,
10226,control_change,24,0,9,,,,,,,,,12,11,57,,,
10227,control_change,18,0,3,,,,,,,,,2,11,54,,,
10228,control_change,24,0,10,,,,,,,,,6,11,57,,,
10229,control_change,18,0,4,,,,,,,,,3,11,54,,,
10232,note_on,0,0,9,,,,,,,,,12,,,,53,56
10232,note_on,6,0,8,,,,,,,,,11,,,,62,0
10232,note_on,0,0,8,,,,,,,,,11,,,,58,59
10232,note_on,6,0,9,,,,,,,,,12,,,,58,0
10234,note_on,0,0,10,,,,,,,,,6,,,,50,52
10234,note_on,6,0,10,,,,,,,,,6,,,,46,0
10245,control_change,18,0,3,,,,,,,,,2,11,55,,,
10247,control_change,18,0,4,,,,,,,,,3,11,55,,,
10252,control_change,28,0,7,,,,,,,,,10,11,59,,,
10254,control_change,22,0,9,,,,,,,,,12,11,59,,,
10254,control_change,22,0,8,,,,,,,,,11,11,59,,,
10256,control_change,22,0,10,,,,,,,,,6,11,59,,,
10260,set_tempo,120,1,0,,,,,,1034483,,,,,,,,
10262,note_on,8,0,8,,,,,,,,,11,,,,58,0
10262,note_on,0,0,9,,,,,,,,,12,,,,58,56
10262,note_on,8,0,9,,,,,,,,,12,,,,53,0
10262,note_on,0,0,8,,,,,,,,,11,,,,62,59
10263,control_change,18,0,3,,,,,,,,,2,11,55,,,
10264,note_on,0,0,10,,,,,,,,,6,,,,46,52
10264,note_on,8,0,10,,,,,,,,,6,,,,50,0
10265,control_change,18,0,4,,,,,,,,,3,11,55,,,
10267,control_change,15,0,7,,,,,,,,,10,11,60,,,
10269,control_change,7,0,8,,,,,,,,,11,11,60,,,
10269,control_change,7,0,9,,,,,,,,,12,11,60,,,
10271,control_change,7,0,10,,,,,,,,,6,11,60,,,
10281,control_change,18,0,3,,,,,,,,,2,11,56,,,
10283,control_change,18,0,4,,,,,,,,,3,11,56,,,
10292,note_on,0,0,8,,,,,,,,,11,,,,58,59
10292,note_on,23,0,9,,,,,,,,,12,,,,58,0
10292,note_on,0,0,9,,,,,,,,,12,,,,53,56
10292,note_on,23,0,8,,,,,,,,,11,,,,62,0
10294,note_on,0,0,10,,,,,,,,,6,,,,50,52
10294,note_on,23,0,10,,,,,,,,,6,,,,46,0
10296,control_change,29,0,7,,,,,,,,,10,11,62,,,
10298,control_change,6,0,8,,,,,,,,,11,11,62,,,
10298,control_change,6,0,9,,,,,,,,,12,11,62,,,
10299,control_change,18,0,3,,,,,,,,,2,11,57,,,
10300,control_change,6,0,10,,,,,,,,,6,11,62,,,
10301,control_change,18,0,4,,,,,,,,,3,11,57,,,
10317,control_change,18,0,3,,,,,,,,,2,11,58,,,
10319,control_change,18,0,4,,,,,,,,,3,11,58,,,
10320,set_tempo,60,1,0,,,,,,937500,,,,,,,,
10320,note_on,24,0,7,,,,,,,,,10,,,,70,0
10320,note_on,0,0,7,,,,,,,,,10,,,,72,103
10322,note_on,24,0,8,,,,,,,,,11,,,,58,0
10322,note_on,0,0,8,,,,,,,,,11,,,,62,59
10322,note_on,0,0,9,,,,,,,,,12,,,,58,56
10322,note_on,24,0,9,,,,,,,,,12,,,,53,0
10323,note_on,6,0,3,,,,,,,,,2,,,,70,0
10323,note_on,0,0,3,,,,,,,,,2,,,,65,96
10324,note_on,24,0,10,,,,,,,,,6,,,,50,0
10324,control_change,4,0,7,,,,,,,,,10,11,64,,,
10324,note_on,0,0,10,,,,,,,,,6,,,,46,52
10325,note_on,6,0,4,,,,,,,,,3,,,,58,0
10325,note_on,0,0,4,,,,,,,,,3,,,,53,95
10326,control_change,4,0,8,,,,,,,,,11,11,64,,,
10326,control_change,4,0,9,,,,,,,,,12,11,64,,,
10328,control_change,4,0,10,,,,,,,,,6,11,64,,,
10335,control_change,12,0,3,,,,,,,,,2,11,59,,,
10337,control_change,12,0,4,,,,,,,,,3,11,59,,,
10339,control_change,15,0,7,,,,,,,,,10,11,65,,,
10341,control_change,15,0,8,,,,,,,,,11,11,65,,,
10341,control_change,15,0,9,,,,,,,,,12,11,65,,,
10343,control_change,15,0,10,,,,,,,,,6,11,65,,,
10352,note_on,11,0,9,,,,,,,,,12,,,,58,0
10352,note_on,0,0,9,,,,,,,,,12,,,,53,56
10352,note_on,11,0,8,,,,,,,,,11,,,,62,0
10352,note_on,0,0,8,,,,,,,,,11,,,,58,59
10353,control_change,18,0,3,,,,,,,,,2,11,60,,,
10354,note_on,11,0,10,,,,,,,,,6,,,,46,0
10354,note_on,0,0,10,,,,,,,,,6,,,,50,52
10355,control_change,18,0,4,,,,,,,,,3,11,60,,,
10368,control_change,29,0,7,,,,,,,,,10,11,67,,,
10370,control_change,18,0,9,,,,,,,,,12,11,67,,,
10370,control_change,18,0,8,,,,,,,,,11,11,67,,,
10371,control_change,18,0,3,,,,,,,,,2,11,61,,,
10372,control_change,18,0,10,,,,,,,,,6,11,67,,,
10373,control_change,18,0,4,,,,,,,,,3,11,61,,,
10380,note_on,12,0,7,,,,,,,,,10,,,,72,0
10380,note_on,0,0,7,,,,,,,,,10,,,,74,103
10382,note_on,0,0,9,,,,,,,,,12,,,,58,56
10382,note_on,12,0,9,,,,,,,,,12,,,,53,0
10382,note_on,0,0,8,,,,,,,,,11,,,,62,59
10382,note_on,12,0,8,,,,,,,,,11,,,,58,0
10383,note_on,12,0,3,,,,,,,,,2,,,,65,0
10383,note_on,0,0,3,,,,,,,,,2,,,,62,96
10384,note_on,12,0,10,,,,,,,,,6,,,,50,0
10384,note_on,0,0,10,,,,,,,,,6,,,,46,52
10385,note_on,0,0,4,,,,,,,,,3,,,,50,95
10385,note_on,12,0,4,,,,,,,,,3,,,,53,0
10389,control_change,6,0,3,,,,,,,,,2,11,61,,,
10391,control_change,6,0,4,,,,,,,,,3,11,61,,,
10396,control_change,16,0,7,,,,,,,,,10,11,69,,,
10398,control_change,16,0,9,,,,,,,,,12,11,69,,,
10398,control_change,16,0,8,,,,,,,,,11,11,69,,,
10400,control_change,16,0,10,,,,,,,,,6,11,69,,,
10407,control_change,18,0,3,,,,,,,,,2,11,62,,,
10409,control_change,18,0,4,,,,,,,,,3,11,62,,,
10411,control_change,15,0,7,,,,,,,,,10,11,70,,,
10412,note_on,0,0,8,,,,,,,,,11,,,,58,59
10412,note_on,14,0,8,,,,,,,,,11,,,,62,0
10412,note_on,0,0,9,,,,,,,,,12,,,,53,56
10412,note_on,14,0,9,,,,,,,,,12,,,,58,0
10413,control_change,1,0,8,,,,,,,,,11,11,70,,,
10413,control_change,1,0,9,,,,,,,,,12,11,70,,,
10414,note_on,0,0,10,,,,,,,,,6,,,,50,52
10414,note_on,14,0,10,,,,,,,,,6,,,,46,0
10415,control_change,1,0,10,,,,,,,,,6,11,70,,,
10425,control_change,18,0,3,,,,,,,,,2,11,63,,,
10427,control_change,18,0,4,,,,,,,,,3,11,63,,,
10435,note_on,24,0,7,,,,,,,,,10,,,,74,0
10437,note_on,24,0,8,,,,,,,,,11,,,,58,0
10437,note_on,24,0,9,,,,,,,,,12,,,,53,0
10439,note_on,24,0,10,,,,,,,,,6,,,,50,0
10440,set_tempo,120,1,0,,,,,,1034483,,,,,,,,
10440,note_on,0,0,7,,,,,,,,,10,,,,77,103
10440,control_change,5,0,7,,,,,,,,,10,11,72,,,
10442,control_change,5,0,9,,,,,,,,,12,11,72,,,
10442,note_on,0,0,9,,,,,,,,,12,,,,58,56
10442,note_on,0,0,8,,,,,,,,,11,,,,63,59
10442,control_change,5,0,8,,,,,,,,,11,11,72,,,
10443,note_on,18,0,3,,,,,,,,,2,,,,62,0
10443,control_change,0,0,3,,,,,,,,,2,11,64,,,
10443,note_on,0,0,3,,,,,,,,,2,,,,60,96
10444,control_change,5,0,10,,,,,,,,,6,11,72,,,
10444,note_on,0,0,10,,,,,,,,,6,,,,46,52
10445,note_on,0,0,4,,,,,,,,,3,,,,48,95
10445,control_change,0,0,4,,,,,,,,,3,11,64,,,
10445,note_on,18,0,4,,,,,,,,,3,,,,50,0
10461,control_change,18,0,3,,,,,,,,,2,11,63,,,
10463,control_change,18,0,4,,,,,,,,,3,11,63,,,
10468,control_change,28,0,7,,,,,,,,,10,11,70,,,
10470,control_change,28,0,9,,,,,,,,,12,11,70,,,
10470,control_change,28,0,8,,,,,,,,,11,11,70,,,
10472,note_on,2,0,9,,,,,,,,,12,,,,58,0
10472,note_on,0,0,9,,,,,,,,,12,,,,55,56
10472,control_change,28,0,10,,,,,,,,,6,11,70,,,
10472,note_on,0,0,8,,,,,,,,,11,,,,58,59
10472,note_on,2,0,8,,,,,,,,,11,,,,63,0
10474,note_on,0,0,10,,,,,,,,,6,,,,48,52
10474,note_on,2,0,10,,,,,,,,,6,,,,46,0
10479,control_change,18,0,3,,,,,,,,,2,11,62,,,
10481,control_change,18,0,4,,,,,,,,,3,11,62,,,
10483,control_change,15,0,7,,,,,,,,,10,11,69,,,
10485,control_change,13,0,9,,,,,,,,,12,11,69,,,
10485,control_change,13,0,8,,,,,,,,,11,11,69,,,
10487,control_change,13,0,10,,,,,,,,,6,11,69,,,
10497,control_change,18,0,3,,,,,,,,,2,11,61,,,
10499,control_change,18,0,4,,,,,,,,,3,11,61,,,
10500,set_tempo,60,1,0,,,,,,937500,,,,,,,,
10500,note_on,17,0,7,,,,,,,,,10,,,,77,0
10500,note_on,0,0,7,,,,,,,,,10,,,,75,103
10502,note_on,0,0,9,,,,,,,,,12,,,,58,56
10502,note_on,17,0,9,,,,,,,,,12,,,,55,0
10502,note_on,0,0,8,,,,,,,,,11,,,,63,59
10502,note_on,17,0,8,,,,,,,,,11,,,,58,0
10504,note_on,0,0,10,,,,,,,,,6,,,,46,52
10504,note_on,17,0,10,,,,,,,,,6,,,,48,0
10512,control_change,12,0,7,,,,,,,,,10,11,67,,,
10514,control_change,12,0,9,,,,,,,,,12,11,67,,,
10514,control_change,12,0,8,,,,,,,,,11,11,67,,,
10515,control_change,18,0,3,,,,,,,,,2,11,61,,,
10516,control_change,12,0,10,,,,,,,,,6,11,67,,,
10517,control_change,18,0,4,,,,,,,,,3,11,61,,,
10532,note_on,0,0,8,,,,,,,,,11,,,,58,59
10532,note_on,18,0,8,,,,,,,,,11,,,,63,0
10532,note_on,0,0,9,,,,,,,,,12,,,,55,56
10532,note_on,18,0,9,,,,,,,,,12,,,,58,0
10533,control_change,18,0,3,,,,,,,,,2,11,60,,,
10534,note_on,0,0,10,,,,,,,,,6,,,,48,52
10534,note_on,18,0,10,,,,,,,,,6,,,,46,0
10535,control_change,18,0,4,,,,,,,,,3,11,60,,,
10540,control_change,28,0,7,,,,,,,,,10,11,65,,,
10542,control_change,10,0,8,,,,,,,,,11,11,65,,,
10542,control_change,10,0,9,,,,,,,,,12,11,65,,,
10544,control_change,10,0,10,,,,,,,,,6,11,65,,,
10551,control_change,18,0,3,,,,,,,,,2,11,59,,,
10553,control_change,18,0,4,,,,,,,,,3,11,59,,,
10555,control_change,0,0,7,,,,,,,,,10,11,64,,,
10555,note_on,15,0,7,,,,,,,,,10,,,,75,0
10557,control_change,15,0,8,,,,,,,,,11,11,64,,,
10557,control_change,15,0,9,,,,,,,,,12,11,64,,,
10559,control_change,15,0,10,,,,,,,,,6,11,64,,,
10560,note_on,5,0,7,,,,,,,,,10,,,,74,93
10562,note_on,5,0,9,,,,,,,,,12,,,,55,0
10562,note_on,0,0,8,,,,,,,,,11,,,,63,59
10562,note_on,5,0,8,,,,,,,,,11,,,,58,0
10562,note_on,0,0,9,,,,,,,,,12,,,,58,56
10564,note_on,5,0,10,,,,,,,,,6,,,,48,0
10564,note_on,0,0,10,,,,,,,,,6,,,,46,52
10569,control_change,18,0,3,,,,,,,,,2,11,58,,,
10571,control_change,18,0,4,,,,,,,,,3,11,58,,,
10584,control_change,24,0,7,,,,,,,,,10,11,62,,,
10586,control_change,24,0,9,,,,,,,,,12,11,62,,,
10586,control_change,24,0,8,,,,,,,,,11,11,62,,,
10587,control_change,18,0,3,,,,,,,,,2,11,57,,,
10588,control_change,24,0,10,,,,,,,,,6,11,62,,,
10589,control_change,18,0,4,,,,,,,,,3,11,57,,,
10592,note_on,6,0,9,,,,,,,,,12,,,,58,0
10592,note_on,0,0,9,,,,,,,,,12,,,,55,56
10592,note_on,6,0,8,,,,,,,,,11,,,,63,0
10592,note_on,0,0,8,,,,,,,,,11,,,,58,59
10594,note_on,6,0,10,,,,,,,,,6,,,,46,0
10594,note_on,0,0,10,,,,,,,,,6,,,,48,52
10600,note_on,16,0,7,,,,,,,,,10,,,,74,0
10605,control_change,18,0,3,,,,,,,,,2,11,56,,,
10607,control_change,18,0,4,,,,,,,,,3,11,56,,,
10612,control_change,12,0,7,,,,,,,,,10,11,60,,,
10614,control_change,22,0,8,,,,,,,,,11,11,60,,,
10614,control_change,22,0,9,,,,,,,,,12,11,60,,,
10616,control_change,22,0,10,,,,,,,,,6,11,60,,,
10617,note_on,3,0,9,,,,,,,,,12,,,,55,0
10617,note_on,3,0,8,,,,,,,,,11,,,,58,0
10618,note_on,13,0,3,,,,,,,,,2,,,,60,0
10619,note_on,3,0,10,,,,,,,,,6,,,,48,0
10620,note_on,13,0,4,,,,,,,,,3,,,,48,0
10620,note_on,0,0,7,,,,,,,,,10,,,,72,103
10620,control_change,8,0,7,,,,,,,,,10,11,42,,,
10620,set_tempo,120,1,0,,,,,,1034483,,,,,,,,
10622,note_on,5,0,9,,,,,,,,,12,,,,60,56
10622,note_on,5,0,8,,,,,,,,,11,,,,63,59
10623,note_on,0,0,3,,,,,,,,,2,,,,65,96
10623,control_change,3,0,7,,,,,,,,,10,11,45,,,
10623,control_change,5,0,3,,,,,,,,,2,11,55,,,
10624,note_on,5,0,10,,,,,,,,,6,,,,46,52
10625,note_on,0,0,4,,,,,,,,,3,,,,53,95
10625,control_change,5,0,4,,,,,,,,,3,11,55,,,
10627,control_change,4,0,7,,,,,,,,,10,11,48,,,
10629,control_change,7,0,8,,,,,,,,,11,11,59,,,
10629,control_change,7,0,9,,,,,,,,,12,11,59,,,
10631,control_change,7,0,10,,,,,,,,,6,11,59,,,
10631,control_change,4,0,7,,,,,,,,,10,11,51,,,
10635,control_change,4,0,7,,,,,,,,,10,11,54,,,
10639,control_change,4,0,7,,,,,,,,,10,11,57,,,
10641,control_change,18,0,3,,,,,,,,,2,11,55,,,
10643,control_change,18,0,4,,,,,,,,,3,11,55,,,
10652,note_on,23,0,8,,,,,,,,,11,,,,63,0
10652,note_on,0,0,8,,,,,,,,,11,,,,60,59
10652,note_on,0,0,9,,,,,,,,,12,,,,57,56
10652,note_on,23,0,9,,,,,,,,,12,,,,60,0
10654,note_on,0,0,10,,,,,,,,,6,,,,53,52
10654,note_on,23,0,10,,,,,,,,,6,,,,46,0
10656,control_change,17,0,7,,,,,,,,,10,11,57,,,
10658,control_change,6,0,8,,,,,,,,,11,11,57,,,
10658,control_change,6,0,9,,,,,,,,,12,11,57,,,
10659,control_change,18,0,3,,,,,,,,,2,11,54,,,
10660,control_change,6,0,10,,,,,,,,,6,11,57,,,
10661,control_change,18,0,4,,,,,,,,,3,11,54,,,
10677,control_change,18,0,3,,,,,,,,,2,11,53,,,
10679,control_change,18,0,4,,,,,,,,,3,11,53,,,
10680,set_tempo,60,1,0,,,,,,937500,,,,,,,,
10682,note_on,0,0,9,,,,,,,,,12,,,,60,56
10682,note_on,24,0,9,,,,,,,,,12,,,,57,0
10682,note_on,24,0,8,,,,,,,,,11,,,,60,0
10682,note_on,0,0,8,,,,,,,,,11,,,,63,59
10684,note_on,0,0,10,,,,,,,,,6,,,,46,52
10684,control_change,28,0,7,,,,,,,,,10,11,55,,,
10684,note_on,24,0,10,,,,,,,,,6,,,,53,0
10686,control_change,4,0,9,,,,,,,,,12,11,55,,,
10686,control_change,4,0,8,,,,,,,,,11,11,55,,,
10688,control_change,4,0,10,,,,,,,,,6,11,55,,,
10695,control_change,18,0,3,,,,,,,,,2,11,52,,,
10697,control_change,18,0,4,,,,,,,,,3,11,52,,,
10699,control_change,15,0,7,,,,,,,,,10,11,54,,,
10701,control_change,15,0,8,,,,,,,,,11,11,54,,,
10701,control_change,15,0,9,,,,,,,,,12,11,54,,,
10703,control_change,15,0,10,,,,,,,,,6,11,54,,,
10712,note_on,0,0,8,,,,,,,,,11,,,,60,59
10712,note_on,11,0,9,,,,,,,,,12,,,,60,0
10712,note_on,0,0,9,,,,,,,,,12,,,,57,56
10712,note_on,11,0,8,,,,,,,,,11,,,,63,0
10713,control_change,18,0,3,,,,,,,,,2,11,52,,,
10714,note_on,11,0,10,,,,,,,,,6,,,,46,0
10714,note_on,0,0,10,,,,,,,,,6,,,,53,52
10715,control_change,18,0,4,,,,,,,,,3,11,52,,,
10728,control_change,29,0,7,,,,,,,,,10,11,52,,,
10730,control_change,18,0,8,,,,,,,,,11,11,52,,,
10730,control_change,18,0,9,,,,,,,,,12,11,52,,,
10731,control_change,18,0,3,,,,,,,,,2,11,51,,,
10732,control_change,18,0,10,,,,,,,,,6,11,52,,,
10733,control_change,18,0,4,,,,,,,,,3,11,51,,,
10740,note_on,0,0,7,,,,,,,,,10,,,,77,103
10740,note_on,12,0,7,,,,,,,,,10,,,,72,0
10742,note_on,12,0,9,,,,,,,,,12,,,,57,0
10742,note_on,0,0,9,,,,,,,,,12,,,,60,56
10742,note_on,12,0,8,,,,,,,,,11,,,,60,0
10742,note_on,0,0,8,,,,,,,,,11,,,,63,59
10744,note_on,0,0,10,,,,,,,,,6,,,,46,52
10744,note_on,12,0,10,,,,,,,,,6,,,,53,0
10749,control_change,18,0,3,,,,,,,,,2,11,50,,,
10751,control_change,18,0,4,,,,,,,,,3,11,50,,,
10756,control_change,16,0,7,,,,,,,,,10,11,50,,,
10758,control_change,16,0,9,,,,,,,,,12,11,50,,,
10758,control_change,16,0,8,,,,,,,,,11,11,50,,,
10760,control_change,16,0,10,,,,,,,,,6,11,50,,,
10767,control_change,18,0,3,,,,,,,,,2,11,49,,,
10769,control_change,18,0,4,,,,,,,,,3,11,49,,,
10771,control_change,15,0,7,,,,,,,,,10,11,49,,,
10772,note_on,14,0,8,,,,,,,,,11,,,,63,0
10772,note_on,0,0,8,,,,,,,,,11,,,,60,59
10772,note_on,14,0,9,,,,,,,,,12,,,,60,0
10772,note_on,0,0,9,,,,,,,,,12,,,,57,56
10773,control_change,1,0,8,,,,,,,,,11,11,49,,,
10773,control_change,1,0,9,,,,,,,,,12,11,49,,,
10774,note_on,14,0,10,,,,,,,,,6,,,,46,0
10774,note_on,0,0,10,,,,,,,,,6,,,,53,52
10775,control_change,1,0,10,,,,,,,,,6,11,49,,,
10785,control_change,18,0,3,,,,,,,,,2,11,48,,,
10787,control_change,18,0,4,,,,,,,,,3,11,48,,,
10795,note_on,24,0,7,,,,,,,,,10,,,,77,0
10797,note_on,24,0,9,,,,,,,,,12,,,,57,0
10797,note_on,24,0,8,,,,,,,,,11,,,,60,0
10798,note_on,13,0,3,,,,,,,,,2,,,,65,0
10799,note_on,24,0,10,,,,,,,,,6,,,,53,0
10800,control_change,5,0,7,,,,,,,,,10,11,47,,,
10800,note_on,0,0,7,,,,,,,,,10,,,,70,81
10800,set_tempo,120,1,0,,,,,,1034483,,,,,,,,
10800,note_on,13,0,4,,,,,,,,,3,,,,53,0
10802,note_on,0,0,9,,,,,,,,,12,,,,50,54
10802,control_change,5,0,9,,,,,,,,,12,11,47,,,
10802,note_on,0,0,9,,,,,,,,,12,,,,58,66
10802,control_change,5,0,8,,,,,,,,,11,11,47,,,
10802,note_on,0,0,8,,,,,,,,,11,,,,62,68
10803,control_change,5,0,3,,,,,,,,,2,11,42,,,
10803,note_on,0,0,3,,,,,,,,,2,,,,70,83
10803,note_on,0,0,3,,,,,,,,,2,,,,62,83
10803,control_change,1320,0,5,,,,,,,,,4,11,42,,,
10803,note_on,0,0,5,,,,,,,,,4,,,,46,82
10804,note_on,0,0,10,,,,,,,,,6,,,,46,88
10804,control_change,5,0,10,,,,,,,,,6,11,47,,,
10805,note_on,0,0,4,,,,,,,,,3,,,,46,82
10805,control_change,5,0,4,,,,,,,,,3,11,42,,,
10805,control_change,1320,0,6,,,,,,,,,5,11,42,,,
10805,note_on,1320,0,11,,,,,,,,,13,,,,46,43
10805,note_on,0,0,6,,,,,,,,,5,,,,46,82
10808,note_on,1320,0,12,,,,,,,,,14,,,,34,36
10812,control_change,9,0,3,,,,,,,,,2,11,45,,,
10814,control_change,9,0,4,,,,,,,,,3,11,45,,,
10822,control_change,10,0,3,,,,,,,,,2,11,48,,,
10824,control_change,10,0,4,,,,,,,,,3,11,48,,,
10831,control_change,9,0,3,,,,,,,,,2,11,51,,,
10832,note_on,30,0,9,,,,,,,,,12,,,,58,0
10832,note_on,0,0,9,,,,,,,,,12,,,,50,0
10832,note_on,0,0,8,,,,,,,,,11,,,,58,68
10832,note_on,30,0,8,,,,,,,,,11,,,,62,0
10832,note_on,0,0,9,,,,,,,,,12,,,,53,66
10833,control_change,9,0,4,,,,,,,,,3,11,51,,,
10841,control_change,10,0,3,,,,,,,,,2,11,54,,,
10843,control_change,10,0,4,,,,,,,,,3,11,54,,,
10851,control_change,10,0,3,,,,,,,,,2,11,57,,,
10853,control_change,10,0,4,,,,,,,,,3,11,57,,,
10858,note_on,55,0,5,,,,,,,,,4,,,,46,0
10860,note_on,55,0,6,,,,,,,,,5,,,,46,0
10860,set_tempo,60,1,0,,,,,,937500,,,,,,,,
10860,control_change,9,0,3,,,,,,,,,2,11,60,,,
10862,control_change,9,0,4,,,,,,,,,3,11,60,,,
10862,note_on,0,0,8,,,,,,,,,11,,,,62,68
10862,note_on,0,0,9,,,,,,,,,12,,,,50,54
10862,note_on,0,0,9,,,,,,,,,12,,,,58,66
10862,note_on,30,0,9,,,,,,,,,12,,,,53,0
10862,note_on,30,0,8,,,,,,,,,11,,,,58,0
10863,note_on,5,0,5,,,,,,,,,4,,,,46,82
10865,note_on,5,0,6,,,,,,,,,5,,,,46,82
10870,control_change,10,0,3,,,,,,,,,2,11,63,,,
10872,control_change,10,0,4,,,,,,,,,3,11,63,,,
10880,control_change,10,0,3,,,,,,,,,2,11,66,,,
10882,control_change,10,0,4,,,,,,,,,3,11,66,,,
10889,control_change,9,0,3,,,,,,,,,2,11,69,,,
10891,control_change,9,0,4,,,,,,,,,3,11,69,,,
10892,note_on,30,0,8,,,,,,,,,11,,,,62,0
10892,note_on,30,0,9,,,,,,,,,12,,,,50,0
10892,note_on,0,0,9,,,,,,,,,12,,,,58,0
10892,note_on,0,0,9,,,,,,,,,12,,,,53,66
10892,note_on,0,0,8,,,,,,,,,11,,,,58,68
10918,note_on,55,0,5,,,,,,,,,4,,,,46,0
10920,note_on,120,0,7,,,,,,,,,10,,,,70,0
10920,note_on,55,0,6,,,,,,,,,5,,,,46,0
10922,note_on,0,0,8,,,,,,,,,11,,,,62,68
10922,note_on,30,0,8,,,,,,,,,11,,,,58,0
10922,note_on,0,0,9,,,,,,,,,12,,,,50,54
10922,note_on,30,0,9,,,,,,,,,12,,,,53,0
10922,note_on,0,0,9,,,,,,,,,12,,,,58,66
10923,note_on,34,0,3,,,,,,,,,2,,,,62,0
10923,note_on,5,0,5,,,,,,,,,4,,,,46,82
10925,note_on,34,0,4,,,,,,,,,3,,,,46,0
10925,note_on,120,0,11,,,,,,,,,13,,,,46,0
10925,note_on,5,0,6,,,,,,,,,5,,,,46,82
10928,note_on,120,0,12,,,,,,,,,14,,,,34,0
10952,note_on,0,0,8,,,,,,,,,11,,,,58,68
10952,note_on,0,0,9,,,,,,,,,12,,,,50,0
10952,note_on,0,0,9,,,,,,,,,12,,,,53,66
10952,note_on,30,0,9,,,,,,,,,12,,,,58,0
10952,note_on,30,0,8,,,,,,,,,11,,,,62,0
10978,note_on,55,0,5,,,,,,,,,4,,,,46,0
10980,note_on,55,0,6,,,,,,,,,5,,,,46,0
10980,set_tempo,120,1,0,,,,,,1034483,,,,,,,,
10982,note_on,30,0,8,,,,,,,,,11,,,,58,0
10982,note_on,0,0,8,,,,,,,,,11,,,,62,68
10982,note_on,30,0,9,,,,,,,,,12,,,,53,0
10982,note_on,0,0,9,,,,,,,,,12,,,,50,54
10982,note_on,0,0,9,,,,,,,,,12,,,,58,66
10983,note_on,5,0,5,,,,,,,,,4,,,,46,82
10985,note_on,5,0,6,,,,,,,,,5,,,,46,82
11012,note_on,30,0,9,,,,,,,,,12,,,,58,0
11012,note_on,30,0,8,,,,,,,,,11,,,,62,0
11012,note_on,0,0,8,,,,,,,,,11,,,,58,68
11012,note_on,0,0,9,,,,,,,,,12,,,,53,66
11012,note_on,0,0,9,,,,,,,,,12,,,,50,0
11038,note_on,55,0,5,,,,,,,,,4,,,,46,0
11040,note_on,55,0,6,,,,,,,,,5,,,,46,0
11040,set_tempo,60,1,0,,,,,,937500,,,,,,,,
11042,note_on,0,0,9,,,,,,,,,12,,,,58,66
11042,note_on,30,0,9,,,,,,,,,12,,,,53,0
11042,note_on,0,0,8,,,,,,,,,11,,,,62,68
11042,note_on,0,0,9,,,,,,,,,12,,,,50,54
11042,note_on,30,0,8,,,,,,,,,11,,,,58,0
11043,note_on,5,0,5,,,,,,,,,4,,,,46,82
11045,note_on,5,0,6,,,,,,,,,5,,,,46,82
11072,note_on,0,0,9,,,,,,,,,12,,,,58,0
11072,note_on,30,0,9,,,,,,,,,12,,,,50,0
11072,note_on,0,0,9,,,,,,,,,12,,,,53,66
11072,note_on,0,0,8,,,,,,,,,11,,,,58,68
11072,note_on,30,0,8,,,,,,,,,11,,,,62,0
11098,note_on,175,0,3,,,,,,,,,2,,,,70,0
11098,note_on,55,0,5,,,,,,,,,4,,,,46,0
11099,note_on,295,0,10,,,,,,,,,6,,,,46,0
11100,note_on,55,0,6,,,,,,,,,5,,,,46,0
11102,note_on,30,0,9,,,,,,,,,12,,,,53,0
11102,note_on,0,0,8,,,,,,,,,11,,,,62,68
11102,note_on,30,0,8,,,,,,,,,11,,,,58,0
11102,note_on,0,0,9,,,,,,,,,12,,,,50,54
11102,note_on,0,0,9,,,,,,,,,12,,,,58,66
11103,note_on,5,0,3,,,,,,,,,2,,,,70,83
11103,note_on,5,0,5,,,,,,,,,4,,,,46,82
11104,note_on,5,0,10,,,,,,,,,6,,,,46,104
11105,note_on,5,0,6,,,,,,,,,5,,,,46,82
11132,note_on,30,0,9,,,,,,,,,12,,,,50,0
11132,note_on,0,0,9,,,,,,,,,12,,,,58,0
11132,note_on,0,0,9,,,,,,,,,12,,,,53,66
11132,note_on,0,0,8,,,,,,,,,11,,,,58,68
11132,note_on,30,0,8,,,,,,,,,11,,,,62,0
11157,note_on,25,0,9,,,,,,,,,12,,,,53,0
11157,note_on,25,0,8,,,,,,,,,11,,,,58,0
11158,note_on,55,0,5,,,,,,,,,4,,,,46,0
11158,note_on,55,0,3,,,,,,,,,2,,,,70,0
11159,note_on,55,0,10,,,,,,,,,6,,,,46,0
11160,note_on,0,0,7,,,,,,,,,10,,,,77,103
11160,note_on,55,0,6,,,,,,,,,5,,,,46,0
11160,set_tempo,120,1,0,,,,,,1034483,,,,,,,,
11160,control_change,240,0,7,,,,,,,,,10,11,27,,,
11162,note_on,5,0,9,,,,,,,,,12,,,,48,54
11162,note_on,0,0,9,,,,,,,,,12,,,,60,66
11162,note_on,5,0,8,,,,,,,,,11,,,,63,68
11163,note_on,5,0,5,,,,,,,,,4,,,,53,82
11163,note_on,5,0,3,,,,,,,,,2,,,,70,83
11164,note_on,5,0,10,,,,,,,,,6,,,,48,104
11165,note_on,5,0,6,,,,,,,,,5,,,,46,82
11165,note_on,240,0,4,,,,,,,,,3,,,,65,82
11178,control_change,18,0,7,,,,,,,,,10,11,29,,,
11178,note_on,15,0,3,,,,,,,,,2,,,,70,0
11178,note_on,0,0,3,,,,,,,,,2,,,,69,83
11179,note_on,15,0,10,,,,,,,,,6,,,,48,0
11179,note_on,0,0,10,,,,,,,,,6,,,,45,104
11192,note_on,0,0,8,,,,,,,,,11,,,,60,68
11192,note_on,30,0,9,,,,,,,,,12,,,,60,0
11192,note_on,0,0,9,,,,,,,,,12,,,,48,0
11192,note_on,0,0,9,,,,,,,,,12,,,,53,66
11192,note_on,30,0,8,,,,,,,,,11,,,,63,0
11196,control_change,18,0,7,,,,,,,,,10,11,31,,,
11214,control_change,18,0,7,,,,,,,,,10,11,33,,,
11218,note_on,55,0,5,,,,,,,,,4,,,,53,0
11220,set_tempo,60,1,0,,,,,,937500,,,,,,,,
11220,note_on,55,0,6,,,,,,,,,5,,,,46,0
11222,note_on,0,0,9,,,,,,,,,12,,,,48,54
11222,note_on,0,0,9,,,,,,,,,12,,,,60,66
11222,note_on,0,0,8,,,,,,,,,11,,,,63,68
11222,note_on,30,0,8,,,,,,,,,11,,,,60,0
11222,note_on,30,0,9,,,,,,,,,12,,,,53,0
11223,note_on,45,0,3,,,,,,,,,2,,,,69,0
11223,note_on,0,0,3,,,,,,,,,2,,,,67,83
11223,note_on,5,0,5,,,,,,,,,4,,,,53,82
11224,note_on,45,0,10,,,,,,,,,6,,,,45,0
11224,note_on,0,0,10,,,,,,,,,6,,,,43,104
11225,note_on,5,0,6,,,,,,,,,5,,,,46,82
11232,control_change,18,0,7,,,,,,,,,10,11,35,,,
11250,control_change,18,0,7,,,,,,,,,10,11,37,,,
11252,note_on,30,0,9,,,,,,,,,12,,,,60,0
11252,note_on,30,0,8,,,,,,,,,11,,,,63,0
11252,note_on,0,0,8,,,,,,,,,11,,,,60,68
11252,note_on,0,0,9,,,,,,,,,12,,,,48,0
11252,note_on,0,0,9,,,,,,,,,12,,,,53,66
11268,control_change,18,0,7,,,,,,,,,10,11,39,,,
11278,note_on,55,0,5,,,,,,,,,4,,,,53,0
11280,note_on,55,0,6,,,,,,,,,5,,,,46,0
11282,note_on,0,0,9,,,,,,,,,12,,,,48,54
11282,note_on,0,0,9,,,,,,,,,12,,,,60,66
11282,note_on,0,0,8,,,,,,,,,11,,,,63,68
11282,note_on,30,0,9,,,,,,,,,12,,,,53,0
11282,note_on,30,0,8,,,,,,,,,11,,,,60,0
11283,note_on,60,0,3,,,,,,,,,2,,,,67,0
11283,note_on,0,0,3,,,,,,,,,2,,,,65,83
11283,note_on,5,0,5,,,,,,,,,4,,,,53,82
11284,note_on,0,0,10,,,,,,,,,6,,,,41,104
11284,note_on,60,0,10,,,,,,,,,6,,,,43,0
11285,note_on,5,0,6,,,,,,,,,5,,,,46,82
11286,control_change,18,0,7,,,,,,,,,10,11,41,,,
11304,control_change,18,0,7,,,,,,,,,10,11,43,,,
11312,note_on,0,0,9,,,,,,,,,12,,,,53,66
11312,note_on,0,0,8,,,,,,,,,11,,,,60,68
11312,note_on,30,0,8,,,,,,,,,11,,,,63,0
11312,note_on,30,0,9,,,,,,,,,12,,,,60,0
11312,note_on,0,0,9,,,,,,,,,12,,,,48,0
11322,control_change,18,0,7,,,,,,,,,10,11,45,,,
11338,note_on,55,0,3,,,,,,,,,2,,,,65,0
11338,note_on,55,0,5,,,,,,,,,4,,,,53,0
11339,note_on,55,0,10,,,,,,,,,6,,,,41,0
11340,set_tempo,120,1,0,,,,,,1034483,,,,,,,,
11340,note_on,55,0,6,,,,,,,,,5,,,,46,0
11340,control_change,18,0,7,,,,,,,,,10,11,47,,,
11342,note_on,30,0,9,,,,,,,,,12,,,,53,0
11342,note_on,0,0,9,,,,,,,,,12,,,,60,66
11342,note_on,0,0,9,,,,,,,,,12,,,,48,54
11342,note_on,0,0,8,,,,,,,,,11,,,,63,68
11342,note_on,30,0,8,,,,,,,,,11,,,,60,0
11343,note_on,5,0,5,,,,,,,,,4,,,,53,82
11343,note_on,5,0,3,,,,,,,,,2,,,,65,83
11344,note_on,5,0,10,,,,,,,,,6,,,,41,104
11345,note_on,5,0,6,,,,,,,,,5,,,,46,82
11372,note_on,0,0,9,,,,,,,,,12,,,,48,0
11372,note_on,30,0,9,,,,,,,,,12,,,,60,0
11372,note_on,0,0,9,,,,,,,,,12,,,,53,66
11372,note_on,0,0,8,,,,,,,,,11,,,,60,68
11372,note_on,30,0,8,,,,,,,,,11,,,,63,0
11394,note_on,50,0,10,,,,,,,,,6,,,,41,0
11395,note_on,52,0,3,,,,,,,,,2,,,,65,0
11398,note_on,55,0,5,,,,,,,,,4,,,,53,0
11400,note_on,55,0,6,,,,,,,,,5,,,,46,0
11400,set_tempo,60,1,0,,,,,,937500,,,,,,,,
11402,note_on,30,0,9,,,,,,,,,12,,,,53,0
11402,note_on,0,0,9,,,,,,,,,12,,,,48,54
11402,note_on,0,0,8,,,,,,,,,11,,,,63,68
11402,note_on,0,0,9,,,,,,,,,12,,,,60,66
11402,note_on,30,0,8,,,,,,,,,11,,,,60,0
11403,note_on,8,0,3,,,,,,,,,2,,,,67,83
11403,note_on,5,0,5,,,,,,,,,4,,,,53,82
11404,note_on,10,0,10,,,,,,,,,6,,,,43,104
11405,note_on,5,0,6,,,,,,,,,5,,,,46,82
11432,note_on,30,0,8,,,,,,,,,11,,,,63,0
11432,note_on,0,0,9,,,,,,,,,12,,,,60,0
11432,note_on,0,0,9,,,,,,,,,12,,,,53,66
11432,note_on,30,0,9,,,,,,,,,12,,,,48,0
11432,note_on,0,0,8,,,,,,,,,11,,,,60,68
11454,note_on,50,0,10,,,,,,,,,6,,,,43,0
11455,note_on,52,0,3,,,,,,,,,2,,,,67,0
11458,note_on,55,0,5,,,,,,,,,4,,,,53,0
11460,note_on,120,0,7,,,,,,,,,10,,,,77,0
11460,note_on,55,0,6,,,,,,,,,5,,,,46,0
11460,note_on,0,0,7,,,,,,,,,10,,,,75,103
11462,note_on,0,0,9,,,,,,,,,12,,,,48,54
11462,note_on,30,0,9,,,,,,,,,12,,,,53,0
11462,note_on,0,0,8,,,,,,,,,11,,,,63,68
11462,note_on,0,0,9,,,,,,,,,12,,,,60,66
11462,note_on,30,0,8,,,,,,,,,11,,,,60,0
11463,note_on,8,0,3,,,,,,,,,2,,,,69,83
11463,note_on,5,0,5,,,,,,,,,4,,,,53,82
11464,note_on,10,0,10,,,,,,,,,6,,,,45,104
11465,note_on,5,0,6,,,,,,,,,5,,,,46,82
11465,note_on,300,0,4,,,,,,,,,3,,,,65,0
11465,note_on,0,0,4,,,,,,,,,3,,,,63,82
11492,note_on,0,0,8,,,,,,,,,11,,,,60,68
11492,note_on,0,0,9,,,,,,,,,12,,,,48,0
11492,note_on,30,0,9,,,,,,,,,12,,,,60,0
11492,note_on,30,0,8,,,,,,,,,11,,,,63,0
11492,note_on,0,0,9,,,,,,,,,12,,,,53,66
11514,note_on,50,0,10,,,,,,,,,6,,,,45,0
11515,note_on,55,0,7,,,,,,,,,10,,,,75,0
11515,note_on,52,0,3,,,,,,,,,2,,,,69,0
11517,note_on,25,0,9,,,,,,,,,12,,,,53,0
11517,note_on,25,0,8,,,,,,,,,11,,,,60,0
11518,note_on,55,0,5,,,,,,,,,4,,,,53,0
11520,note_on,55,0,6,,,,,,,,,5,,,,46,0
11520,set_tempo,120,1,0,,,,,,1034483,,,,,,,,
11520,note_on,55,0,4,,,,,,,,,3,,,,63,0
11520,note_on,0,0,7,,,,,,,,,10,,,,75,103
11520,control_change,5,0,7,,,,,,,,,10,11,47,,,
11522,note_on,0,0,8,,,,,,,,,11,,,,62,68
11522,control_change,5,0,9,,,,,,,,,12,11,47,,,
11522,control_change,5,0,8,,,,,,,,,11,11,47,,,
11522,note_on,0,0,9,,,,,,,,,12,,,,50,54
11522,note_on,0,0,9,,,,,,,,,12,,,,58,66
11523,control_change,0,0,3,,,,,,,,,2,11,70,,,
11523,note_on,8,0,3,,,,,,,,,2,,,,70,83
11523,control_change,0,0,5,,,,,,,,,4,11,42,,,
11523,note_on,5,0,5,,,,,,,,,4,,,,53,82
11524,control_change,10,0,10,,,,,,,,,6,11,47,,,
11524,note_on,0,0,10,,,,,,,,,6,,,,46,104
11525,note_on,0,0,6,,,,,,,,,5,,,,46,82
11525,control_change,5,0,6,,,,,,,,,5,11,42,,,
11525,note_on,0,0,4,,,,,,,,,3,,,,63,82
11525,control_change,5,0,4,,,,,,,,,3,11,70,,,
11525,note_on,600,0,11,,,,,,,,,13,,,,46,43
11528,note_on,600,0,12,,,,,,,,,14,,,,34,36
11535,note_on,0,0,7,,,,,,,,,10,,,,74,103
11535,note_on,15,0,7,,,,,,,,,10,,,,75,0
11540,note_on,15,0,4,,,,,,,,,3,,,,63,0
11540,note_on,0,0,4,,,,,,,,,3,,,,62,82
11541,control_change,18,0,3,,,,,,,,,2,11,70,,,
11541,control_change,18,0,5,,,,,,,,,4,11,43,,,
11543,control_change,18,0,6,,,,,,,,,5,11,43,,,
11543,control_change,3,0,4,,,,,,,,,3,11,70,,,
11548,control_change,13,0,7,,,,,,,,,10,11,49,,,
11550,control_change,28,0,8,,,,,,,,,11,11,49,,,
11550,control_change,28,0,9,,,,,,,,,12,11,49,,,
11552,note_on,0,0,9,,,,,,,,,12,,,,58,0
11552,note_on,2,0,8,,,,,,,,,11,,,,62,0
11552,note_on,0,0,8,,,,,,,,,11,,,,58,68
11552,note_on,0,0,9,,,,,,,,,12,,,,53,66
11552,control_change,28,0,10,,,,,,,,,6,11,49,,,
11552,note_on,2,0,9,,,,,,,,,12,,,,50,0
11559,control_change,18,0,3,,,,,,,,,2,11,71,,,
11559,control_change,18,0,5,,,,,,,,,4,11,44,,,
11561,control_change,18,0,4,,,,,,,,,3,11,71,,,
11561,control_change,18,0,6,,,,,,,,,5,11,44,,,
11563,control_change,15,0,7,,,,,,,,,10,11,50,,,
11565,control_change,13,0,8,,,,,,,,,11,11,50,,,
11565,control_change,13,0,9,,,,,,,,,12,11,50,,,
11567,control_change,15,0,10,,,,,,,,,6,11,50,,,
11577,control_change,18,0,3,,,,,,,,,2,11,72,,,
11577,control_change,18,0,5,,,,,,,,,4,11,45,,,
11578,note_on,1,0,5,,,,,,,,,4,,,,53,0
11579,control_change,18,0,6,,,,,,,,,5,11,45,,,
11579,control_change,18,0,4,,,,,,,,,3,11,72,,,
11580,note_on,17,0,7,,,,,,,,,10,,,,74,0
11580,note_on,1,0,6,,,,,,,,,5,,,,46,0
11580,note_on,0,0,7,,,,,,,,,10,,,,72,103
11580,set_tempo,60,1,0,,,,,,937500,,,,,,,,
11582,note_on,0,0,8,,,,,,,,,11,,,,62,68
11582,note_on,17,0,8,,,,,,,,,11,,,,58,0
11582,note_on,0,0,9,,,,,,,,,12,,,,58,66
11582,note_on,17,0,9,,,,,,,,,12,,,,53,0
11582,note_on,0,0,9,,,,,,,,,12,,,,50,54
11583,note_on,5,0,5,,,,,,,,,4,,,,53,82
11585,note_on,6,0,4,,,,,,,,,3,,,,62,0
11585,note_on,0,0,4,,,,,,,,,3,,,,60,82
11585,note_on,5,0,6,,,,,,,,,5,,,,46,82
11592,control_change,12,0,7,,,,,,,,,10,11,52,,,
11594,control_change,12,0,9,,,,,,,,,12,11,52,,,
11594,control_change,12,0,8,,,,,,,,,11,11,52,,,
11595,control_change,12,0,5,,,,,,,,,4,11,46,,,
11595,control_change,18,0,3,,,,,,,,,2,11,73,,,
11596,control_change,29,0,10,,,,,,,,,6,11,52,,,
11597,control_change,12,0,4,,,,,,,,,3,11,73,,,
11597,control_change,12,0,6,,,,,,,,,5,11,46,,,
11612,note_on,18,0,9,,,,,,,,,12,,,,58,0
11612,note_on,0,0,8,,,,,,,,,11,,,,58,68
11612,note_on,0,0,9,,,,,,,,,12,,,,53,66
11612,note_on,0,0,9,,,,,,,,,12,,,,50,0
11612,note_on,18,0,8,,,,,,,,,11,,,,62,0
11613,control_change,18,0,3,,,,,,,,,2,11,74,,,
11613,control_change,18,0,5,,,,,,,,,4,11,47,,,
11615,control_change,18,0,6,,,,,,,,,5,11,47,,,
11615,control_change,18,0,4,,,,,,,,,3,11,74,,,
11620,control_change,28,0,7,,,,,,,,,10,11,54,,,
11622,control_change,10,0,8,,,,,,,,,11,11,54,,,
11622,control_change,10,0,9,,,,,,,,,12,11,54,,,
11624,control_change,28,0,10,,,,,,,,,6,11,54,,,
11631,control_change,18,0,3,,,,,,,,,2,11,75,,,
11631,control_change,18,0,5,,,,,,,,,4,11,48,,,
11633,control_change,18,0,6,,,,,,,,,5,11,48,,,
11633,control_change,18,0,4,,,,,,,,,3,11,75,,,
11635,control_change,15,0,7,,,,,,,,,10,11,55,,,
11637,control_change,15,0,8,,,,,,,,,11,11,55,,,
11637,control_change,15,0,9,,,,,,,,,12,11,55,,,
11638,note_on,7,0,5,,,,,,,,,4,,,,53,0
11639,control_change,15,0,10,,,,,,,,,6,11,55,,,
11640,note_on,7,0,6,,,,,,,,,5,,,,46,0
11640,note_on,5,0,7,,,,,,,,,10,,,,72,0
11640,note_on,0,0,7,,,,,,,,,10,,,,70,103
11642,note_on,0,0,8,,,,,,,,,11,,,,62,68
11642,note_on,0,0,9,,,,,,,,,12,,,,50,54
11642,note_on,0,0,9,,,,,,,,,12,,,,58,66
11642,note_on,5,0,8,,,,,,,,,11,,,,58,0
11642,note_on,5,0,9,,,,,,,,,12,,,,53,0
11643,note_on,5,0,5,,,,,,,,,4,,,,53,82
11645,note_on,12,0,4,,,,,,,,,3,,,,60,0
11645,note_on,120,0,11,,,,,,,,,13,,,,46,0
11645,note_on,0,0,4,,,,,,,,,3,,,,58,82
11645,note_on,5,0,6,,,,,,,,,5,,,,46,82
11648,note_on,120,0,12,,,,,,,,,14,,,,34,0
11649,control_change,18,0,3,,,,,,,,,2,11,76,,,
11649,control_change,6,0,5,,,,,,,,,4,11,49,,,
11651,control_change,6,0,6,,,,,,,,,5,11,49,,,
11651,control_change,6,0,4,,,,,,,,,3,11,76,,,
11664,control_change,24,0,7,,,,,,,,,10,11,57,,,
11666,control_change,24,0,9,,,,,,,,,12,11,57,,,
11666,control_change,24,0,8,,,,,,,,,11,11,57,,,
11667,control_change,18,0,3,,,,,,,,,2,11,76,,,
11667,control_change,18,0,5,,,,,,,,,4,11,50,,,
11668,control_change,29,0,10,,,,,,,,,6,11,57,,,
11669,control_change,18,0,4,,,,,,,,,3,11,76,,,
11669,control_change,18,0,6,,,,,,,,,5,11,50,,,
11672,note_on,0,0,9,,,,,,,,,12,,,,50,0
11672,note_on,0,0,9,,,,,,,,,12,,,,53,66
11672,note_on,0,0,8,,,,,,,,,11,,,,58,68
11672,note_on,6,0,8,,,,,,,,,11,,,,62,0
11672,note_on,6,0,9,,,,,,,,,12,,,,58,0
11685,control_change,18,0,5,,,,,,,,,4,11,51,,,
11685,control_change,18,0,3,,,,,,,,,2,11,77,,,
11687,control_change,18,0,4,,,,,,,,,3,11,77,,,
11687,control_change,18,0,6,,,,,,,,,5,11,51,,,
11692,control_change,28,0,7,,,,,,,,,10,11,59,,,
11694,control_change,22,0,9,,,,,,,,,12,11,59,,,
11694,control_change,22,0,8,,,,,,,,,11,11,59,,,
11695,note_on,3,0,7,,,,,,,,,10,,,,70,0
11696,control_change,28,0,10,,,,,,,,,6,11,59,,,
11698,note_on,13,0,5,,,,,,,,,4,,,,53,0
11700,set_tempo,120,1,0,,,,,,1034483,,,,,,,,
11700,note_on,13,0,6,,,,,,,,,5,,,,46,0
11700,note_on,0,0,1,,,,,,,,,0,,,,84,96
11700,note_on,13,0,4,,,,,,,,,3,,,,58,0
11700,control_change,2220,0,1,,,,,,,,,0,11,64,,,
11700,note_on,5,0,7,,,,,,,,,10,,,,72,103
11702,note_on,0,0,9,,,,,,,,,12,,,,58,66
11702,note_on,0,0,9,,,,,,,,,12,,,,50,54
11702,note_on,8,0,9,,,,,,,,,12,,,,53,0
11702,note_on,0,0,8,,,,,,,,,11,,,,62,68
11702,note_on,8,0,8,,,,,,,,,11,,,,58,0
11703,note_on,0,0,5,,,,,,,,,4,,,,53,82
11703,control_change,5,0,5,,,,,,,,,4,11,52,,,
11703,control_change,18,0,3,,,,,,,,,2,11,78,,,
11705,control_change,5,0,4,,,,,,,,,3,11,78,,,
11705,control_change,0,0,6,,,,,,,,,5,11,52,,,
11705,note_on,5,0,6,,,,,,,,,5,,,,46,82
11705,note_on,0,0,4,,,,,,,,,3,,,,60,82
11707,control_change,7,0,7,,,,,,,,,10,11,60,,,
11709,control_change,7,0,8,,,,,,,,,11,11,60,,,
11709,control_change,7,0,9,,,,,,,,,12,11,60,,,
11711,control_change,15,0,10,,,,,,,,,6,11,60,,,
11715,note_on,8,0,7,,,,,,,,,10,,,,72,0
11715,note_on,0,0,7,,,,,,,,,10,,,,70,103
11715,note_on,15,0,1,,,,,,,,,0,,,,84,0
11715,note_on,0,0,1,,,,,,,,,0,,,,82,96
11718,control_change,3,0,1,,,,,,,,,0,11,65,,,
11720,note_on,0,0,4,,,,,,,,,3,,,,58,82
11720,note_on,15,0,4,,,,,,,,,3,,,,60,0
11721,control_change,18,0,3,,,,,,,,,2,11,79,,,
11721,control_change,18,0,5,,,,,,,,,4,11,53,,,
11723,control_change,3,0,4,,,,,,,,,3,11,79,,,
11723,control_change,18,0,6,,,,,,,,,5,11,53,,,
11732,note_on,0,0,8,,,,,,,,,11,,,,58,68
11732,note_on,23,0,8,,,,,,,,,11,,,,62,0
11732,note_on,23,0,9,,,,,,,,,12,,,,58,0
11732,note_on,0,0,9,,,,,,,,,12,,,,53,66
11732,note_on,0,0,9,,,,,,,,,12,,,,50,0
11736,control_change,18,0,1,,,,,,,,,0,11,65,,,
11736,control_change,21,0,7,,,,,,,,,10,11,62,,,
11738,control_change,6,0,8,,,,,,,,,11,11,62,,,
11738,control_change,6,0,9,,,,,,,,,12,11,62,,,
11739,control_change,18,0,5,,,,,,,,,4,11,54,,,
11739,control_change,18,0,3,,,,,,,,,2,11,80,,,
11740,control_change,29,0,10,,,,,,,,,6,11,62,,,
11741,control_change,18,0,6,,,,,,,,,5,11,54,,,
11741,control_change,18,0,4,,,,,,,,,3,11,80,,,
11754,control_change,18,0,1,,,,,,,,,0,11,66,,,
11757,control_change,18,0,3,,,,,,,,,2,11,80,,,
11757,control_change,18,0,5,,,,,,,,,4,11,55,,,
11758,note_on,1,0,5,,,,,,,,,4,,,,53,0
11759,control_change,18,0,6,,,,,,,,,5,11,55,,,
11759,control_change,18,0,4,,,,,,,,,3,11,80,,,
11760,set_tempo,60,1,0,,,,,,937500,,,,,,,,
11760,note_on,0,0,1,,,,,,,,,0,,,,81,96
11760,note_on,6,0,1,,,,,,,,,0,,,,82,0
11760,note_on,1,0,6,,,,,,,,,5,,,,46,0
11760,note_on,0,0,7,,,,,,,,,10,,,,69,103
11760,note_on,24,0,7,,,,,,,,,10,,,,70,0
11762,note_on,0,0,9,,,,,,,,,12,,,,50,54
11762,note_on,24,0,8,,,,,,,,,11,,,,58,0
11762,note_on,0,0,8,,,,,,,,,11,,,,62,68
11762,note_on,24,0,9,,,,,,,,,12,,,,53,0
11762,note_on,0,0,9,,,,,,,,,12,,,,58,66
11763,note_on,0,0,3,,,,,,,,,2,,,,72,83
11763,note_on,6,0,3,,,,,,,,,2,,,,70,0
11763,note_on,5,0,5,,,,,,,,,4,,,,53,82
11764,note_on,0,0,10,,,,,,,,,6,,,,48,104
11764,note_on,24,0,10,,,,,,,,,6,,,,46,0
11764,control_change,4,0,7,,,,,,,,,10,11,64,,,
11765,note_on,5,0,6,,,,,,,,,5,,,,46,82
11765,note_on,6,0,4,,,,,,,,,3,,,,58,0
11765,note_on,0,0,4,,,,,,,,,3,,,,57,82
11766,control_change,4,0,8,,,,,,,,,11,11,64,,,
11766,control_change,4,0,9,,,,,,,,,12,11,64,,,
11768,control_change,4,0,10,,,,,,,,,6,11,64,,,
11772,control_change,12,0,1,,,,,,,,,0,11,67,,,
11775,control_change,12,0,3,,,,,,,,,2,11,81,,,
11775,control_change,12,0,5,,,,,,,,,4,11,56,,,
11777,control_change,12,0,6,,,,,,,,,5,11,56,,,
11777,control_change,12,0,4,,,,,,,,,3,11,81,,,
11779,control_change,15,0,7,,,,,,,,,10,11,65,,,
11781,control_change,15,0,8,,,,,,,,,11,11,65,,,
11781,control_change,15,0,9,,,,,,,,,12,11,65,,,
11783,control_change,15,0,10,,,,,,,,,6,11,65,,,
11790,control_change,18,0,1,,,,,,,,,0,11,68,,,
11792,note_on,0,0,9,,,,,,,,,12,,,,58,0
11792,note_on,0,0,9,,,,,,,,,12,,,,53,66
11792,note_on,0,0,8,,,,,,,,,11,,,,58,68
11792,note_on,11,0,8,,,,,,,,,11,,,,62,0
11792,note_on,11,0,9,,,,,,,,,12,,,,50,0
11793,control_change,18,0,5,,,,,,,,,4,11,57,,,
11793,control_change,18,0,3,,,,,,,,,2,11,82,,,
11795,control_change,18,0,6,,,,,,,,,5,11,57,,,
11795,control_change,18,0,4,,,,,,,,,3,11,82,,,
11808,control_change,18,0,1,,,,,,,,,0,11,69,,,
11808,control_change,29,0,7,,,,,,,,,10,11,67,,,
11810,control_change,18,0,9,,,,,,,,,12,11,67,,,
11810,control_change,18,0,8,,,,,,,,,11,11,67,,,
11811,control_change,18,0,3,,,,,,,,,2,11,83,,,
11811,control_change,18,0,5,,,,,,,,,4,11,58,,,
11812,control_change,29,0,10,,,,,,,,,6,11,67,,,
11813,control_change,18,0,6,,,,,,,,,5,11,58,,,
11813,control_change,18,0,4,,,,,,,,,3,11,83,,,
11818,note_on,7,0,5,,,,,,,,,4,,,,53,0
11820,note_on,7,0,6,,,,,,,,,5,,,,46,0
11820,note_on,12,0,7,,,,,,,,,10,,,,69,0
11820,note_on,0,0,1,,,,,,,,,0,,,,79,96
11820,note_on,0,0,7,,,,,,,,,10,,,,67,103
11820,note_on,12,0,1,,,,,,,,,0,,,,81,0
11822,note_on,0,0,9,,,,,,,,,12,,,,58,66
11822,note_on,0,0,9,,,,,,,,,12,,,,50,54
11822,note_on,12,0,8,,,,,,,,,11,,,,58,0
11822,note_on,0,0,8,,,,,,,,,11,,,,62,68
11822,note_on,12,0,9,,,,,,,,,12,,,,53,0
11823,note_on,5,0,5,,,,,,,,,4,,,,53,82
11823,note_on,12,0,3,,,,,,,,,2,,,,72,0
11823,note_on,0,0,3,,,,,,,,,2,,,,74,83
11824,note_on,12,0,10,,,,,,,,,6,,,,48,0
11824,note_on,0,0,10,,,,,,,,,6,,,,50,104
11825,note_on,12,0,4,,,,,,,,,3,,,,57,0
11825,note_on,5,0,6,,,,,,,,,5,,,,46,82
11825,note_on,0,0,4,,,,,,,,,3,,,,55,82
11826,control_change,6,0,1,,,,,,,,,0,11,70,,,
11829,control_change,6,0,5,,,,,,,,,4,11,59,,,
11829,control_change,6,0,3,,,,,,,,,2,11,84,,,
11831,control_change,6,0,4,,,,,,,,,3,11,84,,,
11831,control_change,6,0,6,,,,,,,,,5,11,59,,,
11836,control_change,16,0,7,,,,,,,,,10,11,69,,,
11838,control_change,16,0,9,,,,,,,,,12,11,69,,,
11838,control_change,16,0,8,,,,,,,,,11,11,69,,,
11840,control_change,16,0,10,,,,,,,,,6,11,69,,,
11844,control_change,18,0,1,,,,,,,,,0,11,70,,,
11847,control_change,18,0,3,,,,,,,,,2,11,85,,,
11847,control_change,18,0,5,,,,,,,,,4,11,60,,,
11849,control_change,18,0,4,,,,,,,,,3,11,85,,,
11849,control_change,18,0,6,,,,,,,,,5,11,60,,,
11851,control_change,15,0,7,,,,,,,,,10,11,70,,,
11852,note_on,14,0,9,,,,,,,,,12,,,,58,0
11852,note_on,0,0,9,,,,,,,,,12,,,,50,0
11852,note_on,14,0,8,,,,,,,,,11,,,,62,0
11852,note_on,0,0,9,,,,,,,,,12,,,,53,66
11852,note_on,0,0,8,,,,,,,,,11,,,,58,68
11853,control_change,1,0,8,,,,,,,,,11,11,70,,,
11853,control_change,1,0,9,,,,,,,,,12,11,70,,,
11855,control_change,15,0,10,,,,,,,,,6,11,70,,,
11862,control_change,18,0,1,,,,,,,,,0,11,71,,,
11865,control_change,18,0,5,,,,,,,,,4,11,61,,,
11865,control_change,18,0,3,,,,,,,,,2,11,86,,,
11867,control_change,18,0,6,,,,,,,,,5,11,61,,,
11867,control_change,18,0,4,,,,,,,,,3,11,86,,,
11875,note_on,24,0,7,,,,,,,,,10,,,,67,0
11875,note_on,13,0,1,,,,,,,,,0,,,,79,0
11877,note_on,24,0,9,,,,,,,,,12,,,,53,0
11877,note_on,24,0,8,,,,,,,,,11,,,,58,0
11878,note_on,13,0,3,,,,,,,,,2,,,,74,0
11878,note_on,13,0,5,,,,,,,,,4,,,,53,0
11879,note_on,24,0,10,,,,,,,,,6,,,,50,0
11880,note_on,13,0,4,,,,,,,,,3,,,,55,0
11880,control_change,5,0,7,,,,,,,,,10,11,72,,,
11880,note_on,0,0,7,,,,,,,,,10,,,,65,103
11880,note_on,0,0,1,,,,,,,,,0,,,,77,96
11880,set_tempo,120,1,0,,,,,,1034483,,,,,,,,
11880,note_on,13,0,6,,,,,,,,,5,,,,46,0
11880,control_change,5,0,1,,,,,,,,,0,11,72,,,
11882,control_change,5,0,9,,,,,,,,,12,11,72,,,
11882,note_on,0,0,9,,,,,,,,,12,,,,57,66
11882,note_on,0,0,9,,,,,,,,,12,,,,51,54
11882,control_change,5,0,8,,,,,,,,,11,11,72,,,
11882,note_on,0,0,8,,,,,,,,,11,,,,60,68
11883,control_change,0,0,5,,,,,,,,,4,11,62,,,
11883,note_on,0,0,3,,,,,,,,,2,,,,77,83
11883,control_change,5,0,3,,,,,,,,,2,11,86,,,
11883,note_on,5,0,5,,,,,,,,,4,,,,53,82
11884,control_change,5,0,10,,,,,,,,,6,11,72,,,
11884,note_on,0,0,10,,,,,,,,,6,,,,53,104
11885,note_on,0,0,6,,,,,,,,,5,,,,46,82
11885,control_change,5,0,6,,,,,,,,,5,11,62,,,
11885,note_on,5,0,4,,,,,,,,,3,,,,53,82
11885,control_change,0,0,4,,,,,,,,,3,11,86,,,
11898,control_change,18,0,1,,,,,,,,,0,11,71,,,
11901,control_change,18,0,5,,,,,,,,,4,11,61,,,
11901,control_change,18,0,3,,,,,,,,,2,11,86,,,
11903,control_change,18,0,6,,,,,,,,,5,11,61,,,
11903,control_change,18,0,4,,,,,,,,,3,11,86,,,
11908,control_change,28,0,7,,,,,,,,,10,11,70,,,
11910,control_change,28,0,8,,,,,,,,,11,11,70,,,
11910,control_change,28,0,9,,,,,,,,,12,11,70,,,
11912,note_on,0,0,9,,,,,,,,,12,,,,57,0
11912,note_on,0,0,9,,,,,,,,,12,,,,53,66
11912,note_on,0,0,8,,,,,,,,,11,,,,57,68
11912,control_change,28,0,10,,,,,,,,,6,11,70,,,
11912,note_on,2,0,8,,,,,,,,,11,,,,60,0
11912,note_on,2,0,9,,,,,,,,,12,,,,51,0
11916,control_change,18,0,1,,,,,,,,,0,11,70,,,
11919,control_change,18,0,5,,,,,,,,,4,11,60,,,
11919,control_change,18,0,3,,,,,,,,,2,11,85,,,
11921,control_change,18,0,4,,,,,,,,,3,11,85,,,
11921,control_change,18,0,6,,,,,,,,,5,11,60,,,
11923,control_change,15,0,7,,,,,,,,,10,11,69,,,
11925,control_change,13,0,8,,,,,,,,,11,11,69,,,
11925,control_change,13,0,9,,,,,,,,,12,11,69,,,
11927,control_change,15,0,10,,,,,,,,,6,11,69,,,
11934,control_change,18,0,1,,,,,,,,,0,11,70,,,
11937,control_change,18,0,3,,,,,,,,,2,11,84,,,
11937,control_change,18,0,5,,,,,,,,,4,11,59,,,
11938,note_on,1,0,5,,,,,,,,,4,,,,53,0
11939,control_change,18,0,4,,,,,,,,,3,11,84,,,
11939,control_change,18,0,6,,,,,,,,,5,11,59,,,
11940,set_tempo,60,1,0,,,,,,937500,,,,,,,,
11940,note_on,1,0,6,,,,,,,,,5,,,,46,0
11942,note_on,0,0,8,,,,,,,,,11,,,,60,68
11942,note_on,17,0,9,,,,,,,,,12,,,,53,0
11942,note_on,17,0,8,,,,,,,,,11,,,,57,0
11942,note_on,0,0,9,,,,,,,,,12,,,,57,66
11942,note_on,0,0,9,,,,,,,,,12,,,,51,54
11943,note_on,5,0,5,,,,,,,,,4,,,,53,82
11943,note_on,6,0,3,,,,,,,,,2,,,,77,0
11943,note_on,0,0,3,,,,,,,,,2,,,,75,83
11944,note_on,17,0,10,,,,,,,,,6,,,,53,0
11944,note_on,0,0,10,,,,,,,,,6,,,,51,104
11945,note_on,5,0,6,,,,,,,,,5,,,,46,82
11952,control_change,29,0,7,,,,,,,,,10,11,67,,,
11952,control_change,18,0,1,,,,,,,,,0,11,69,,,
11954,control_change,12,0,8,,,,,,,,,11,11,67,,,
11954,control_change,12,0,9,,,,,,,,,12,11,67,,,
11955,control_change,12,0,5,,,,,,,,,4,11,58,,,
11955,control_change,12,0,3,,,,,,,,,2,11,83,,,
11956,control_change,12,0,10,,,,,,,,,6,11,67,,,
11957,control_change,18,0,4,,,,,,,,,3,11,83,,,
11957,control_change,12,0,6,,,,,,,,,5,11,58,,,
11970,control_change,18,0,1,,,,,,,,,0,11,68,,,
11972,note_on,0,0,9,,,,,,,,,12,,,,53,66
11972,note_on,0,0,9,,,,,,,,,12,,,,51,0
11972,note_on,18,0,9,,,,,,,,,12,,,,57,0
11972,note_on,0,0,8,,,,,,,,,11,,,,57,68
11972,note_on,18,0,8,,,,,,,,,11,,,,60,0
11973,control_change,18,0,3,,,,,,,,,2,11,82,,,
11973,control_change,18,0,5,,,,,,,,,4,11,57,,,
11975,control_change,18,0,4,,,,,,,,,3,11,82,,,
11975,control_change,18,0,6,,,,,,,,,5,11,57,,,
11980,control_change,28,0,7,,,,,,,,,10,11,65,,,
11982,control_change,10,0,9,,,,,,,,,12,11,65,,,
11982,control_change,10,0,8,,,,,,,,,11,11,65,,,
11984,control_change,28,0,10,,,,,,,,,6,11,65,,,
11988,control_change,18,0,1,,,,,,,,,0,11,67,,,
11991,control_change,18,0,3,,,,,,,,,2,11,81,,,
11991,control_change,18,0,5,,,,,,,,,4,11,56,,,
11993,control_change,18,0,6,,,,,,,,,5,11,56,,,
11993,control_change,18,0,4,,,,,,,,,3,11,81,,,
11995,control_change,15,0,7,,,,,,,,,10,11,64,,,
11997,control_change,15,0,8,,,,,,,,,11,11,64,,,
11997,control_change,15,0,9,,,,,,,,,12,11,64,,,
11998,note_on,7,0,3,,,,,,,,,2,,,,75,0
11998,note_on,7,0,5,,,,,,,,,4,,,,53,0
11999,note_on,15,0,10,,,,,,,,,6,,,,51,0
11999,control_change,0,0,10,,,,,,,,,6,11,64,,,
12000,note_on,7,0,6,,,,,,,,,5,,,,46,0
12002,note_on,0,0,9,,,,,,,,,12,,,,58,66
12002,note_on,5,0,9,,,,,,,,,12,,,,53,0
12002,note_on,0,0,9,,,,,,,,,12,,,,50,54
12002,note_on,5,0,8,,,,,,,,,11,,,,57,0
12002,note_on,0,0,8,,,,,,,,,11,,,,62,68
12003,note_on,5,0,3,,,,,,,,,2,,,,74,83
12003,note_on,5,0,5,,,,,,,,,4,,,,53,82
12004,note_on,5,0,10,,,,,,,,,6,,,,50,104
12005,note_on,5,0,6,,,,,,,,,5,,,,46,82
12006,control_change,18,0,1,,,,,,,,,0,11,66,,,
12009,control_change,6,0,3,,,,,,,,,2,11,80,,,
12009,control_change,6,0,5,,,,,,,,,4,11,55,,,
12011,control_change,18,0,4,,,,,,,,,3,11,80,,,
12011,control_change,6,0,6,,,,,,,,,5,11,55,,,
12024,control_change,29,0,7,,,,,,,,,10,11,62,,,
12024,control_change,18,0,1,,,,,,,,,0,11,65,,,
12026,control_change,24,0,8,,,,,,,,,11,11,62,,,
12026,control_change,24,0,9,,,,,,,,,12,11,62,,,
12027,control_change,18,0,3,,,,,,,,,2,11,80,,,
12027,control_change,18,0,5,,,,,,,,,4,11,54,,,
12028,control_change,24,0,10,,,,,,,,,6,11,62,,,
12029,control_change,18,0,6,,,,,,,,,5,11,54,,,
12029,control_change,18,0,4,,,,,,,,,3,11,80,,,
12032,note_on,0,0,9,,,,,,,,,12,,,,53,66
12032,note_on,0,0,9,,,,,,,,,12,,,,50,0
12032,note_on,6,0,9,,,,,,,,,12,,,,58,0
12032,note_on,0,0,8,,,,,,,,,11,,,,58,68
12032,note_on,6,0,8,,,,,,,,,11,,,,62,0
12034,note_on,6,0,10,,,,,,,,,6,,,,50,0
12042,control_change,18,0,1,,,,,,,,,0,11,65,,,
12045,control_change,18,0,3,,,,,,,,,2,11,79,,,
12045,control_change,18,0,5,,,,,,,,,4,11,53,,,
12047,control_change,18,0,6,,,,,,,,,5,11,53,,,
12047,control_change,18,0,4,,,,,,,,,3,11,79,,,
12052,control_change,28,0,7,,,,,,,,,10,11,60,,,
12054,control_change,22,0,8,,,,,,,,,11,11,60,,,
12054,control_change,22,0,9,,,,,,,,,12,11,60,,,
12056,control_change,22,0,10,,,,,,,,,6,11,60,,,
12057,note_on,3,0,9,,,,,,,,,12,,,,53,0
12057,note_on,3,0,8,,,,,,,,,11,,,,58,0
12058,note_on,13,0,3,,,,,,,,,2,,,,74,0
12058,note_on,13,0,5,,,,,,,,,4,,,,53,0
12060,set_tempo,120,1,0,,,,,,1034483,,,,,,,,
12060,control_change,18,0,1,,,,,,,,,0,11,64,,,
12060,note_on,13,0,6,,,,,,,,,5,,,,46,0
12062,note_on,5,0,8,,,,,,,,,11,,,,63,68
12062,note_on,5,0,9,,,,,,,,,12,,,,48,54
12062,note_on,0,0,9,,,,,,,,,12,,,,60,66
12063,control_change,5,0,3,,,,,,,,,2,11,78,,,
12063,control_change,5,0,5,,,,,,,,,4,11,52,,,
12063,note_on,0,0,5,,,,,,,,,4,,,,53,82
12063,note_on,0,0,3,,,,,,,,,2,,,,72,83
12064,note_on,8,0,10,,,,,,,,,6,,,,48,104
12065,control_change,5,0,6,,,,,,,,,5,11,52,,,
12065,control_change,18,0,4,,,,,,,,,3,11,78,,,
12065,note_on,0,0,6,,,,,,,,,5,,,,46,82
12067,control_change,15,0,7,,,,,,,,,10,11,59,,,
12069,control_change,7,0,9,,,,,,,,,12,11,59,,,
12069,control_change,7,0,8,,,,,,,,,11,11,59,,,
12071,control_change,7,0,10,,,,,,,,,6,11,59,,,
12078,control_change,18,0,1,,,,,,,,,0,11,63,,,
12081,control_change,18,0,5,,,,,,,,,4,11,51,,,
12081,control_change,18,0,3,,,,,,,,,2,11,77,,,
12083,control_change,18,0,6,,,,,,,,,5,11,51,,,
12083,control_change,18,0,4,,,,,,,,,3,11,77,,,
12092,note_on,23,0,8,,,,,,,,,11,,,,63,0
12092,note_on,0,0,8,,,,,,,,,11,,,,57,68
12092,note_on,0,0,9,,,,,,,,,12,,,,53,66
12092,note_on,0,0,9,,,,,,,,,12,,,,48,0
12092,note_on,23,0,9,,,,,,,,,12,,,,60,0
12096,control_change,18,0,1,,,,,,,,,0,11,62,,,
12096,control_change,29,0,7,,,,,,,,,10,11,57,,,
12098,control_change,6,0,8,,,,,,,,,11,11,57,,,
12098,control_change,6,0,9,,,,,,,,,12,11,57,,,
12099,control_change,18,0,3,,,,,,,,,2,11,76,,,
12099,control_change,18,0,5,,,,,,,,,4,11,50,,,
12100,control_change,29,0,10,,,,,,,,,6,11,57,,,
12101,control_change,18,0,6,,,,,,,,,5,11,50,,,
12101,control_change,18,0,4,,,,,,,,,3,11,76,,,
12114,control_change,18,0,1,,,,,,,,,0,11,61,,,
12117,control_change,18,0,3,,,,,,,,,2,11,76,,,
12117,control_change,18,0,5,,,,,,,,,4,11,49,,,
12118,note_on,1,0,5,,,,,,,,,4,,,,53,0
12119,control_change,18,0,4,,,,,,,,,3,11,76,,,
12119,control_change,18,0,6,,,,,,,,,5,11,49,,,
12120,note_on,0,0,7,,,,,,,,,10,,,,67,103
12120,note_on,24,0,7,,,,,,,,,10,,,,65,0
12120,note_on,0,0,1,,,,,,,,,0,,,,79,96
12120,note_on,1,0,6,,,,,,,,,5,,,,46,0
12120,note_on,6,0,1,,,,,,,,,0,,,,77,0
12120,set_tempo,60,1,0,,,,,,1000000,,,,,,,,
12122,note_on,0,0,8,,,,,,,,,11,,,,63,68
12122,note_on,24,0,8,,,,,,,,,11,,,,57,0
12122,note_on,24,0,9,,,,,,,,,12,,,,53,0
12122,note_on,0,0,9,,,,,,,,,12,,,,57,66
12122,note_on,0,0,9,,,,,,,,,12,,,,48,54
12123,note_on,5,0,5,,,,,,,,,4,,,,53,82
12124,control_change,4,0,7,,,,,,,,,10,11,55,,,
12125,note_on,5,0,6,,,,,,,,,5,,,,46,82
12125,note_on,0,0,4,,,,,,,,,3,,,,55,82
12125,note_on,6,0,4,,,,,,,,,3,,,,53,0
12126,control_change,4,0,9,,,,,,,,,12,11,55,,,
12126,control_change,4,0,8,,,,,,,,,11,11,55,,,
12128,control_change,28,0,10,,,,,,,,,6,11,55,,,
12132,control_change,12,0,1,,,,,,,,,0,11,61,,,
12135,control_change,12,0,5,,,,,,,,,4,11,48,,,
12135,control_change,18,0,3,,,,,,,,,2,11,75,,,
12137,control_change,12,0,6,,,,,,,,,5,11,48,,,
12137,control_change,12,0,4,,,,,,,,,3,11,75,,,
12139,control_change,15,0,7,,,,,,,,,10,11,54,,,
12141,control_change,15,0,9,,,,,,,,,12,11,54,,,
12141,control_change,15,0,8,,,,,,,,,11,11,54,,,
12143,control_change,15,0,10,,,,,,,,,6,11,54,,,
12150,control_change,18,0,1,,,,,,,,,0,11,60,,,
12152,note_on,0,0,8,,,,,,,,,11,,,,57,68
12152,note_on,11,0,8,,,,,,,,,11,,,,63,0
12152,note_on,0,0,9,,,,,,,,,12,,,,53,66
12152,note_on,0,0,9,,,,,,,,,12,,,,57,0
12152,note_on,11,0,9,,,,,,,,,12,,,,48,0
12153,control_change,18,0,5,,,,,,,,,4,11,47,,,
12153,control_change,18,0,3,,,,,,,,,2,11,74,,,
12155,control_change,18,0,6,,,,,,,,,5,11,47,,,
12155,control_change,18,0,4,,,,,,,,,3,11,74,,,
12168,control_change,29,0,7,,,,,,,,,10,11,52,,,
12168,control_change,18,0,1,,,,,,,,,0,11,59,,,
12170,control_change,18,0,8,,,,,,,,,11,11,52,,,
12170,control_change,18,0,9,,,,,,,,,12,11,52,,,
12171,control_change,18,0,5,,,,,,,,,4,11,46,,,
12171,control_change,18,0,3,,,,,,,,,2,11,73,,,
12172,control_change,29,0,10,,,,,,,,,6,11,52,,,
12173,control_change,18,0,4,,,,,,,,,3,11,73,,,
12173,control_change,18,0,6,,,,,,,,,5,11,46,,,
12178,note_on,7,0,5,,,,,,,,,4,,,,53,0
12180,note_on,7,0,6,,,,,,,,,5,,,,46,0
12180,set_tempo,60,1,0,,,,,,1071429,,,,,,,,
12180,note_on,12,0,7,,,,,,,,,10,,,,67,0
12180,note_on,0,0,1,,,,,,,,,0,,,,81,96
12180,note_on,12,0,1,,,,,,,,,0,,,,79,0
12180,note_on,0,0,7,,,,,,,,,10,,,,69,103
12182,note_on,12,0,8,,,,,,,,,11,,,,57,0
12182,note_on,0,0,8,,,,,,,,,11,,,,63,68
12182,note_on,0,0,9,,,,,,,,,12,,,,57,66
12182,note_on,12,0,9,,,,,,,,,12,,,,53,0
12182,note_on,0,0,9,,,,,,,,,12,,,,48,54
12183,note_on,12,0,3,,,,,,,,,2,,,,72,0
12183,note_on,0,0,3,,,,,,,,,2,,,,77,83
12183,note_on,5,0,5,,,,,,,,,4,,,,53,82
12184,note_on,0,0,10,,,,,,,,,6,,,,53,104
12184,note_on,12,0,10,,,,,,,,,6,,,,48,0
12185,note_on,5,0,6,,,,,,,,,5,,,,46,82
12185,note_on,12,0,4,,,,,,,,,3,,,,55,0
12185,note_on,0,0,4,,,,,,,,,3,,,,57,82
12186,control_change,6,0,1,,,,,,,,,0,11,58,,,
12189,control_change,6,0,5,,,,,,,,,4,11,45,,,
12189,control_change,6,0,3,,,,,,,,,2,11,72,,,
12191,control_change,6,0,6,,,,,,,,,5,11,45,,,
12191,control_change,6,0,4,,,,,,,,,3,11,72,,,
12196,control_change,16,0,7,,,,,,,,,10,11,50,,,
12198,control_change,16,0,8,,,,,,,,,11,11,50,,,
12198,control_change,16,0,9,,,,,,,,,12,11,50,,,
12200,control_change,16,0,10,,,,,,,,,6,11,50,,,
12204,control_change,18,0,1,,,,,,,,,0,11,57,,,
12207,control_change,18,0,3,,,,,,,,,2,11,71,,,
12207,control_change,18,0,5,,,,,,,,,4,11,44,,,
12209,control_change,18,0,4,,,,,,,,,3,11,71,,,
12209,control_change,18,0,6,,,,,,,,,5,11,44,,,
12211,control_change,15,0,7,,,,,,,,,10,11,49,,,
12212,note_on,0,0,9,,,,,,,,,12,,,,53,66
12212,note_on,14,0,8,,,,,,,,,11,,,,63,0
12212,note_on,0,0,8,,,,,,,,,11,,,,57,68
12212,note_on,14,0,9,,,,,,,,,12,,,,57,0
12212,note_on,0,0,9,,,,,,,,,12,,,,48,0
12213,control_change,1,0,8,,,,,,,,,11,11,49,,,
12213,control_change,1,0,9,,,,,,,,,12,11,49,,,
12215,control_change,15,0,10,,,,,,,,,6,11,49,,,
12222,control_change,18,0,1,,,,,,,,,0,11,56,,,
12225,control_change,18,0,5,,,,,,,,,4,11,43,,,
12225,control_change,18,0,3,,,,,,,,,2,11,70,,,
12227,control_change,18,0,6,,,,,,,,,5,11,43,,,
12227,control_change,18,0,4,,,,,,,,,3,11,70,,,
12235,note_on,13,0,1,,,,,,,,,0,,,,81,0
12235,note_on,24,0,7,,,,,,,,,10,,,,69,0
12237,note_on,24,0,9,,,,,,,,,12,,,,53,0
12237,note_on,24,0,8,,,,,,,,,11,,,,57,0
12238,note_on,13,0,3,,,,,,,,,2,,,,77,0
12238,note_on,13,0,5,,,,,,,,,4,,,,53,0
12239,note_on,24,0,10,,,,,,,,,6,,,,53,0
12240,note_on,0,0,1,,,,,,,,,0,,,,82,96
12240,control_change,5,0,1,,,,,,,,,0,11,55,,,
12240,note_on,13,0,6,,,,,,,,,5,,,,46,0
12240,note_on,0,0,7,,,,,,,,,10,,,,70,103
12240,note_on,13,0,4,,,,,,,,,3,,,,57,0
12240,control_change,5,0,7,,,,,,,,,10,11,37,,,
12240,set_tempo,60,1,0,,,,,,1090909,,,,,,,,
12242,note_on,0,0,9,,,,,,,,,12,,,,58,101
12242,control_change,5,0,8,,,,,,,,,11,11,37,,,
12242,note_on,0,0,8,,,,,,,,,11,,,,62,103
12242,control_change,5,0,9,,,,,,,,,12,11,37,,,
12243,note_on,0,0,3,,,,,,,,,2,,,,70,71
12243,control_change,5,0,3,,,,,,,,,2,11,70,,,
12243,note_on,5,0,5,,,,,,,,,4,,,,58,82
12243,control_change,0,0,5,,,,,,,,,4,11,42,,,
12244,note_on,0,0,10,,,,,,,,,6,,,,50,82
12244,note_on,0,0,10,,,,,,,,,6,,,,46,82
12244,control_change,5,0,10,,,,,,,,,6,11,37,,,
12245,note_on,0,0,4,,,,,,,,,3,,,,58,70
12245,control_change,5,0,4,,,,,,,,,3,11,70,,,
12245,note_on,5,0,6,,,,,,,,,5,,,,46,82
12245,control_change,0,0,6,,,,,,,,,5,11,42,,,
12245,note_on,600,0,11,,,,,,,,,13,,,,46,43
12248,note_on,600,0,12,,,,,,,,,14,,,,34,36
12258,control_change,18,0,7,,,,,,,,,10,11,40,,,
12260,control_change,18,0,8,,,,,,,,,11,11,40,,,
12260,control_change,18,0,9,,,,,,,,,12,11,40,,,
12262,control_change,18,0,10,,,,,,,,,6,11,40,,,
12276,control_change,18,0,7,,,,,,,,,10,11,43,,,
12278,control_change,18,0,8,,,,,,,,,11,11,43,,,
12278,control_change,18,0,9,,,,,,,,,12,11,43,,,
12280,control_change,18,0,10,,,,,,,,,6,11,43,,,
12294,control_change,18,0,7,,,,,,,,,10,11,46,,,
12296,control_change,18,0,8,,,,,,,,,11,11,46,,,
12296,control_change,18,0,9,,,,,,,,,12,11,46,,,
12298,control_change,18,0,10,,,,,,,,,6,11,46,,,
12300,set_tempo,60,1,0,,,,,,1000000,,,,,,,,
12365,note_on,120,0,11,,,,,,,,,13,,,,46,0
12368,note_on,120,0,12,,,,,,,,,14,,,,34,0
12420,set_tempo,120,1,0,,,,,,1090909,,,,,,,,
12480,set_tempo,60,1,0,,,,,,1000000,,,,,,,,
12482,note_on,186,0,8,,,,,,,,,11,,,,62,0
12482,note_on,186,0,9,,,,,,,,,12,,,,58,0
12482,note_on,0,0,8,,,,,,,,,11,,,,67,124
12482,note_on,0,0,9,,,,,,,,,12,,,,63,122
12484,note_on,0,0,10,,,,,,,,,6,,,,50,0
12484,note_on,186,0,10,,,,,,,,,6,,,,46,0
12484,note_on,0,0,10,,,,,,,,,6,,,,55,104
12484,note_on,0,0,10,,,,,,,,,6,,,,51,104
12542,note_on,60,0,8,,,,,,,,,11,,,,67,0
12542,note_on,0,0,8,,,,,,,,,11,,,,65,103
12542,note_on,0,0,9,,,,,,,,,12,,,,62,101
12542,note_on,60,0,9,,,,,,,,,12,,,,63,0
12544,note_on,0,0,10,,,,,,,,,6,,,,53,82
12544,note_on,0,0,10,,,,,,,,,6,,,,55,0
12544,note_on,60,0,10,,,,,,,,,6,,,,51,0
12544,note_on,0,0,10,,,,,,,,,6,,,,50,82
12592,note_on,50,0,8,,,,,,,,,11,,,,65,0
12592,note_on,50,0,9,,,,,,,,,12,,,,62,0
12594,note_on,0,0,10,,,,,,,,,6,,,,50,0
12594,note_on,50,0,10,,,,,,,,,6,,,,53,0
12600,set_tempo,120,1,0,,,,,,1121495,,,,,,,,
12602,note_on,10,0,9,,,,,,,,,12,,,,58,101
12602,note_on,10,0,8,,,,,,,,,11,,,,62,103
12604,note_on,0,0,10,,,,,,,,,6,,,,50,82
12604,note_on,10,0,10,,,,,,,,,6,,,,46,82
12605,note_on,240,0,11,,,,,,,,,13,,,,46,43
12608,note_on,240,0,12,,,,,,,,,14,,,,34,36
12660,set_tempo,60,1,0,,,,,,1034483,,,,,,,,
12662,note_on,60,0,8,,,,,,,,,11,,,,62,0
12662,note_on,60,0,9,,,,,,,,,12,,,,58,0
12662,note_on,0,0,9,,,,,,,,,12,,,,63,122
12662,note_on,0,0,8,,,,,,,,,11,,,,67,124
12664,note_on,0,0,10,,,,,,,,,6,,,,55,104
12664,note_on,0,0,10,,,,,,,,,6,,,,51,104
12664,note_on,0,0,10,,,,,,,,,6,,,,46,0
12664,note_on,60,0,10,,,,,,,,,6,,,,50,0
12722,note_on,60,0,9,,,,,,,,,12,,,,63,0
12722,note_on,0,0,9,,,,,,,,,12,,,,62,101
12722,note_on,60,0,8,,,,,,,,,11,,,,67,0
12722,note_on,0,0,8,,,,,,,,,11,,,,65,103
12724,note_on,0,0,10,,,,,,,,,6,,,,53,82
12724,note_on,60,0,10,,,,,,,,,6,,,,55,0
12724,note_on,0,0,10,,,,,,,,,6,,,,51,0
12724,note_on,0,0,10,,,,,,,,,6,,,,50,82
12725,note_on,120,0,11,,,,,,,,,13,,,,46,0
12728,note_on,120,0,12,,,,,,,,,14,,,,34,0
12772,note_on,50,0,8,,,,,,,,,11,,,,65,0
12772,note_on,50,0,9,,,,,,,,,12,,,,62,0
12774,note_on,50,0,10,,,,,,,,,6,,,,53,0
12774,note_on,0,0,10,,,,,,,,,6,,,,50,0
12780,set_tempo,120,1,0,,,,,,1121495,,,,,,,,
12782,note_on,10,0,9,,,,,,,,,12,,,,58,101
12782,note_on,10,0,8,,,,,,,,,11,,,,62,103
12784,note_on,10,0,10,,,,,,,,,6,,,,50,82
12784,note_on,0,0,10,,,,,,,,,6,,,,46,82
12842,note_on,60,0,9,,,,,,,,,12,,,,58,0
12842,note_on,60,0,8,,,,,,,,,11,,,,62,0
12842,note_on,0,0,8,,,,,,,,,11,,,,67,124
12842,note_on,0,0,9,,,,,,,,,12,,,,63,122
12843,note_on,0,0,3,,,,,,,,,2,,,,75,83
12843,note_on,600,0,3,,,,,,,,,2,,,,70,0
12843,note_on,0,0,3,,,,,,,,,2,,,,79,83
12844,note_on,0,0,10,,,,,,,,,6,,,,51,104
12844,note_on,0,0,10,,,,,,,,,6,,,,55,104
12844,note_on,0,0,10,,,,,,,,,6,,,,50,0
12844,note_on,60,0,10,,,,,,,,,6,,,,46,0
12845,note_on,0,0,4,,,,,,,,,3,,,,63,82
12845,note_on,0,0,4,,,,,,,,,3,,,,67,105
12845,note_on,600,0,4,,,,,,,,,3,,,,58,0
12900,set_tempo,120,1,0,,,,,,1263158,,,,,,,,
12902,note_on,60,0,8,,,,,,,,,11,,,,67,0
12902,note_on,0,0,9,,,,,,,,,12,,,,62,101
12902,note_on,60,0,9,,,,,,,,,12,,,,63,0
12902,note_on,0,0,8,,,,,,,,,11,,,,65,103
12903,note_on,0,0,3,,,,,,,,,2,,,,77,61
12903,note_on,0,0,3,,,,,,,,,2,,,,75,0
12903,note_on,60,0,3,,,,,,,,,2,,,,79,0
12903,note_on,0,0,3,,,,,,,,,2,,,,74,61
12904,note_on,0,0,10,,,,,,,,,6,,,,55,0
12904,note_on,0,0,10,,,,,,,,,6,,,,53,82
12904,note_on,0,0,10,,,,,,,,,6,,,,50,82
12904,note_on,60,0,10,,,,,,,,,6,,,,51,0
12905,note_on,60,0,4,,,,,,,,,3,,,,67,0
12905,note_on,0,0,4,,,,,,,,,3,,,,63,0
12905,note_on,0,0,4,,,,,,,,,3,,,,62,60
12905,note_on,0,0,4,,,,,,,,,3,,,,65,60
12952,note_on,50,0,9,,,,,,,,,12,,,,62,0
12952,note_on,50,0,8,,,,,,,,,11,,,,65,0
12954,note_on,0,0,10,,,,,,,,,6,,,,50,0
12954,note_on,50,0,10,,,,,,,,,6,,,,53,0
12958,note_on,55,0,3,,,,,,,,,2,,,,74,0
12958,note_on,0,0,3,,,,,,,,,2,,,,77,0
12960,set_tempo,60,1,0,,,,,,1111111,,,,,,,,
12962,note_on,10,0,9,,,,,,,,,12,,,,58,101
12962,note_on,10,0,8,,,,,,,,,11,,,,62,103
12963,note_on,5,0,3,,,,,,,,,2,,,,74,74
12963,note_on,0,0,3,,,,,,,,,2,,,,70,74
12964,note_on,10,0,10,,,,,,,,,6,,,,46,82
12964,note_on,0,0,10,,,,,,,,,6,,,,50,82
12965,note_on,240,0,11,,,,,,,,,13,,,,46,43
12965,note_on,0,0,4,,,,,,,,,3,,,,62,73
12965,note_on,0,0,4,,,,,,,,,3,,,,58,73
12965,note_on,0,0,4,,,,,,,,,3,,,,62,0
12965,note_on,60,0,4,,,,,,,,,3,,,,65,0
12968,note_on,240,0,12,,,,,,,,,14,,,,34,36
13020,control_change,780,0,1,,,,,,,,,0,11,55,,,
13023,control_change,60,0,3,,,,,,,,,2,11,70,,,
13023,control_change,780,0,5,,,,,,,,,4,11,42,,,
13025,control_change,60,0,4,,,,,,,,,3,11,70,,,
13025,control_change,780,0,6,,,,,,,,,5,11,42,,,
13030,control_change,7,0,3,,,,,,,,,2,11,67,,,
13031,control_change,11,0,1,,,,,,,,,0,11,52,,,
13032,control_change,7,0,4,,,,,,,,,3,11,67,,,
13037,control_change,7,0,3,,,,,,,,,2,11,64,,,
13037,control_change,14,0,5,,,,,,,,,4,11,39,,,
13039,control_change,14,0,6,,,,,,,,,5,11,39,,,
13039,control_change,7,0,4,,,,,,,,,3,11,64,,,
13043,control_change,12,0,1,,,,,,,,,0,11,49,,,
13044,control_change,7,0,3,,,,,,,,,2,11,61,,,
13046,control_change,7,0,4,,,,,,,,,3,11,61,,,
13050,control_change,756,0,7,,,,,,,,,10,11,47,,,
13051,control_change,7,0,3,,,,,,,,,2,11,58,,,
13052,control_change,90,0,8,,,,,,,,,11,11,47,,,
13052,control_change,15,0,5,,,,,,,,,4,11,36,,,
13052,control_change,90,0,9,,,,,,,,,12,11,47,,,
13053,control_change,7,0,4,,,,,,,,,3,11,58,,,
13054,control_change,90,0,10,,,,,,,,,6,11,47,,,
13054,control_change,15,0,6,,,,,,,,,5,11,36,,,
13055,control_change,5,0,7,,,,,,,,,10,11,44,,,
13055,control_change,12,0,1,,,,,,,,,0,11,46,,,
13057,control_change,5,0,9,,,,,,,,,12,11,44,,,
13057,control_change,5,0,8,,,,,,,,,11,11,44,,,
13058,control_change,7,0,3,,,,,,,,,2,11,55,,,
13059,control_change,5,0,10,,,,,,,,,6,11,44,,,
13060,control_change,7,0,4,,,,,,,,,3,11,55,,,
13060,control_change,5,0,7,,,,,,,,,10,11,41,,,
13062,control_change,5,0,9,,,,,,,,,12,11,41,,,
13062,control_change,5,0,8,,,,,,,,,11,11,41,,,
13064,control_change,5,0,10,,,,,,,,,6,11,41,,,
13065,control_change,7,0,3,,,,,,,,,2,11,52,,,
13065,control_change,5,0,7,,,,,,,,,10,11,38,,,
13067,control_change,15,0,5,,,,,,,,,4,11,33,,,
13067,control_change,7,0,4,,,,,,,,,3,11,52,,,
13067,control_change,5,0,9,,,,,,,,,12,11,38,,,
13067,control_change,12,0,1,,,,,,,,,0,11,43,,,
13067,control_change,5,0,8,,,,,,,,,11,11,38,,,
13069,control_change,5,0,10,,,,,,,,,6,11,38,,,
13069,control_change,15,0,6,,,,,,,,,5,11,33,,,
13070,control_change,5,0,7,,,,,,,,,10,11,35,,,
13072,control_change,7,0,3,,,,,,,,,2,11,49,,,
13072,control_change,5,0,9,,,,,,,,,12,11,35,,,
13072,control_change,5,0,8,,,,,,,,,11,11,35,,,
13074,control_change,7,0,4,,,,,,,,,3,11,49,,,
13074,control_change,5,0,10,,,,,,,,,6,11,35,,,
13075,control_change,5,0,7,,,,,,,,,10,11,32,,,
13077,control_change,5,0,8,,,,,,,,,11,11,32,,,
13077,control_change,5,0,9,,,,,,,,,12,11,32,,,
13079,control_change,12,0,1,,,,,,,,,0,11,40,,,
13079,control_change,5,0,10,,,,,,,,,6,11,32,,,
13079,control_change,7,0,3,,,,,,,,,2,11,46,,,
13080,note_on,1,0,1,,,,,,,,,0,,,,82,0
13080,note_on,5,0,7,,,,,,,,,10,,,,70,0
13081,control_change,7,0,4,,,,,,,,,3,11,46,,,
13082,control_change,15,0,5,,,,,,,,,4,11,30,,,
13082,note_on,5,0,8,,,,,,,,,11,,,,62,0
13082,note_on,5,0,9,,,,,,,,,12,,,,58,0
13083,note_on,1,0,5,,,,,,,,,4,,,,58,0
13083,note_on,4,0,3,,,,,,,,,2,,,,70,0
13083,note_on,0,0,3,,,,,,,,,2,,,,74,0
13084,note_on,0,0,10,,,,,,,,,6,,,,46,0
13084,control_change,15,0,6,,,,,,,,,5,11,30,,,
13084,note_on,5,0,10,,,,,,,,,6,,,,50,0
13085,note_on,120,0,11,,,,,,,,,13,,,,46,0
13085,note_on,4,0,4,,,,,,,,,3,,,,62,0
13085,note_on,0,0,4,,,,,,,,,3,,,,58,0
13085,note_on,1,0,6,,,,,,,,,5,,,,46,0
13088,note_on,120,0,12,,,,,,,,,14,,,,34,0
13140,set_tempo,180,1,0,,,,,,1200000,,,,,,,,
13140,control_change,60,0,7,,,,,,,,,10,11,30,,,
13140,note_on,0,0,7,,,,,,,,,10,,,,62,88
13140,control_change,60,0,1,,,,,,,,,0,11,27,,,
13140,note_on,0,0,1,,,,,,,,,0,,,,74,96
13142,note_on,0,0,8,,,,,,,,,11,,,,58,88
13142,control_change,60,0,8,,,,,,,,,11,11,30,,,
13142,control_change,3660,0,2,,,,,,,,,1,11,27,,,
13142,control_change,2,0,7,,,,,,,,,10,11,33,,,
13142,note_on,0,0,9,,,,,,,,,12,,,,58,86
13142,note_on,0,0,2,,,,,,,,,1,,,,62,95
13142,control_change,60,0,9,,,,,,,,,12,11,30,,,
13142,note_on,0,0,2,,,,,,,,,1,,,,65,95
13143,program_change,59,0,10,,,,,,,,45,6,,,,,
13143,note_on,0,0,5,,,,,,,,,4,,,,58,82
13143,control_change,60,0,5,,,,,,,,,4,11,27,,,
13143,control_change,60,0,3,,,,,,,,,2,11,27,,,
13143,note_on,0,0,3,,,,,,,,,2,,,,70,83
13143,note_on,0,0,3,,,,,,,,,2,,,,74,83
13144,control_change,2,0,8,,,,,,,,,11,11,33,,,
13144,control_change,1,0,10,,,,,,,,,6,11,30,,,
13144,note_on,0,0,10,,,,,,,,,6,,,,46,25
13144,control_change,2,0,9,,,,,,,,,12,11,33,,,
13145,control_change,60,0,6,,,,,,,,,5,11,27,,,
13145,note_on,60,0,11,,,,,,,,,13,,,,46,37
13145,control_change,5,0,1,,,,,,,,,0,11,30,,,
13145,control_change,3,0,7,,,,,,,,,10,11,37,,,
13145,note_on,0,0,6,,,,,,,,,5,,,,50,82
13145,control_change,60,0,4,,,,,,,,,3,11,27,,,
13145,note_on,0,0,4,,,,,,,,,3,,,,46,82
13146,control_change,2,0,10,,,,,,,,,6,11,33,,,
13147,control_change,3,0,9,,,,,,,,,12,11,37,,,
13147,control_change,3,0,8,,,,,,,,,11,11,37,,,
13147,control_change,5,0,2,,,,,,,,,1,11,30,,,
13148,control_change,3,0,7,,,,,,,,,10,11,40,,,
13148,control_change,5,0,3,,,,,,,,,2,11,30,,,
13148,note_on,60,0,12,,,,,,,,,14,,,,34,30
13149,control_change,3,0,10,,,,,,,,,6,11,37,,,
13150,control_change,3,0,8,,,,,,,,,11,11,40,,,
13150,control_change,3,0,9,,,,,,,,,12,11,40,,,
13150,control_change,5,0,4,,,,,,,,,3,11,30,,,
13150,control_change,2,0,7,,,,,,,,,10,11,43,,,
13151,control_change,6,0,1,,,,,,,,,0,11,33,,,
13152,control_change,2,0,8,,,,,,,,,11,11,43,,,
13152,control_change,3,0,10,,,,,,,,,6,11,40,,,
13152,control_change,9,0,5,,,,,,,,,4,11,30,,,
13152,control_change,2,0,9,,,,,,,,,12,11,43,,,
13153,control_change,3,0,7,,,,,,,,,10,11,46,,,
13153,control_change,6,0,2,,,,,,,,,1,11,33,,,
13154,control_change,2,0,10,,,,,,,,,6,11,43,,,
13154,control_change,9,0,6,,,,,,,,,5,11,30,,,
13154,control_change,6,0,3,,,,,,,,,2,11,33,,,
13155,control_change,3,0,9,,,,,,,,,12,11,46,,,
13155,control_change,3,0,8,,,,,,,,,11,11,46,,,
13156,control_change,5,0,1,,,,,,,,,0,11,36,,,
13156,control_change,6,0,4,,,,,,,,,3,11,33,,,
13157,control_change,3,0,10,,,,,,,,,6,11,46,,,
13158,control_change,5,0,2,,,,,,,,,1,11,36,,,
13159,control_change,5,0,3,,,,,,,,,2,11,36,,,
13161,control_change,9,0,5,,,,,,,,,4,11,33,,,
13161,control_change,5,0,4,,,,,,,,,3,11,36,,,
13162,control_change,6,0,1,,,,,,,,,0,11,39,,,
13163,control_change,9,0,6,,,,,,,,,5,11,33,,,
13164,control_change,6,0,2,,,,,,,,,1,11,39,,,
13165,control_change,6,0,3,,,,,,,,,2,11,39,,,
13167,control_change,6,0,4,,,,,,,,,3,11,39,,,
13168,control_change,6,0,1,,,,,,,,,0,11,42,,,
13170,control_change,6,0,2,,,,,,,,,1,11,42,,,
13170,control_change,9,0,5,,,,,,,,,4,11,36,,,
13171,control_change,6,0,3,,,,,,,,,2,11,42,,,
13172,control_change,9,0,6,,,,,,,,,5,11,36,,,
13173,control_change,6,0,4,,,,,,,,,3,11,42,,,
13230,control_change,77,0,7,,,,,,,,,10,11,47,,,
13230,control_change,62,0,1,,,,,,,,,0,11,43,,,
13232,control_change,62,0,2,,,,,,,,,1,11,43,,,
13232,control_change,77,0,8,,,,,,,,,11,11,47,,,
13232,control_change,77,0,9,,,,,,,,,12,11,47,,,
13233,control_change,62,0,3,,,,,,,,,2,11,43,,,
13233,control_change,63,0,5,,,,,,,,,4,11,37,,,
13234,control_change,77,0,10,,,,,,,,,6,11,47,,,
13235,control_change,63,0,6,,,,,,,,,5,11,37,,,
13235,control_change,62,0,4,,,,,,,,,3,11,43,,,
13235,control_change,5,0,1,,,,,,,,,0,11,40,,,
13235,control_change,5,0,7,,,,,,,,,10,11,44,,,
13237,control_change,5,0,9,,,,,,,,,12,11,44,,,
13237,control_change,5,0,8,,,,,,,,,11,11,44,,,
13237,control_change,5,0,2,,,,,,,,,1,11,40,,,
13238,control_change,5,0,3,,,,,,,,,2,11,40,,,
13239,control_change,5,0,10,,,,,,,,,6,11,44,,,
13240,control_change,5,0,7,,,,,,,,,10,11,41,,,
13240,control_change,5,0,1,,,,,,,,,0,11,37,,,
13240,control_change,5,0,4,,,,,,,,,3,11,40,,,
13241,control_change,8,0,5,,,,,,,,,4,11,34,,,
13242,control_change,5,0,9,,,,,,,,,12,11,41,,,
13242,control_change,5,0,8,,,,,,,,,11,11,41,,,
13242,control_change,5,0,2,,,,,,,,,1,11,37,,,
13243,control_change,5,0,3,,,,,,,,,2,11,37,,,
13243,control_change,8,0,6,,,,,,,,,5,11,34,,,
13244,control_change,5,0,10,,,,,,,,,6,11,41,,,
13245,control_change,5,0,7,,,,,,,,,10,11,38,,,
13245,control_change,5,0,4,,,,,,,,,3,11,37,,,
13246,control_change,6,0,1,,,,,,,,,0,11,34,,,
13247,control_change,5,0,8,,,,,,,,,11,11,38,,,
13247,control_change,5,0,9,,,,,,,,,12,11,38,,,
13248,control_change,6,0,2,,,,,,,,,1,11,34,,,
13249,control_change,6,0,3,,,,,,,,,2,11,34,,,
13249,control_change,5,0,10,,,,,,,,,6,11,38,,,
13250,control_change,9,0,5,,,,,,,,,4,11,31,,,
13250,control_change,5,0,7,,,,,,,,,10,11,35,,,
13251,control_change,5,0,1,,,,,,,,,0,11,31,,,
13251,control_change,6,0,4,,,,,,,,,3,11,34,,,
13252,control_change,9,0,6,,,,,,,,,5,11,31,,,
13252,control_change,5,0,8,,,,,,,,,11,11,35,,,
13252,control_change,5,0,9,,,,,,,,,12,11,35,,,
13253,control_change,5,0,2,,,,,,,,,1,11,31,,,
13254,control_change,5,0,3,,,,,,,,,2,11,31,,,
13254,control_change,5,0,10,,,,,,,,,6,11,35,,,
13255,control_change,5,0,7,,,,,,,,,10,11,32,,,
13256,control_change,5,0,4,,,,,,,,,3,11,31,,,
13257,control_change,5,0,9,,,,,,,,,12,11,32,,,
13257,control_change,6,0,1,,,,,,,,,0,11,28,,,
13257,control_change,5,0,8,,,,,,,,,11,11,32,,,
13259,control_change,9,0,5,,,,,,,,,4,11,28,,,
13259,control_change,6,0,2,,,,,,,,,1,11,28,,,
13259,control_change,5,0,10,,,,,,,,,6,11,32,,,
13260,control_change,6,0,3,,,,,,,,,2,11,28,,,
13260,note_on,5,0,7,,,,,,,,,10,,,,62,0
13260,note_on,3,0,1,,,,,,,,,0,,,,74,0
13261,control_change,9,0,6,,,,,,,,,5,11,28,,,
13262,note_on,5,0,9,,,,,,,,,12,,,,58,0
13262,note_on,0,0,2,,,,,,,,,1,,,,65,0
13262,control_change,6,0,4,,,,,,,,,3,11,28,,,
13262,note_on,5,0,8,,,,,,,,,11,,,,58,0
13262,note_on,3,0,2,,,,,,,,,1,,,,62,0
13263,note_on,0,0,3,,,,,,,,,2,,,,70,0
13263,note_on,3,0,3,,,,,,,,,2,,,,74,0
13263,note_on,4,0,5,,,,,,,,,4,,,,58,0
13264,note_on,5,0,10,,,,,,,,,6,,,,46,0
13265,note_on,3,0,4,,,,,,,,,3,,,,46,0
13265,note_on,120,0,11,,,,,,,,,13,,,,46,0
13265,note_on,4,0,6,,,,,,,,,5,,,,50,0
13268,note_on,120,0,12,,,,,,,,,14,,,,34,0
13320,control_change,60,0,1,,,,,,,,,0,11,27,,,
13320,note_on,0,0,1,,,,,,,,,0,,,,74,80
13320,control_change,60,0,7,,,,,,,,,10,11,30,,,
13320,note_on,0,0,7,,,,,,,,,10,,,,62,63
13322,note_on,0,0,8,,,,,,,,,11,,,,58,63
13322,control_change,2,0,7,,,,,,,,,10,11,33,,,
13322,note_on,0,0,9,,,,,,,,,12,,,,58,61
13322,note_on,0,0,2,,,,,,,,,1,,,,62,79
13322,note_on,0,0,2,,,,,,,,,1,,,,65,79
13322,control_change,60,0,8,,,,,,,,,11,11,30,,,
13322,control_change,60,0,2,,,,,,,,,1,11,27,,,
13322,control_change,60,0,9,,,,,,,,,12,11,30,,,
13323,control_change,60,0,3,,,,,,,,,2,11,27,,,
13323,note_on,0,0,3,,,,,,,,,2,,,,70,69
13323,control_change,60,0,5,,,,,,,,,4,11,27,,,
13323,note_on,0,0,3,,,,,,,,,2,,,,74,69
13323,note_on,0,0,5,,,,,,,,,4,,,,58,67
13324,control_change,2,0,9,,,,,,,,,12,11,33,,,
13324,note_on,0,0,10,,,,,,,,,6,,,,46,17
13324,control_change,60,0,10,,,,,,,,,6,11,30,,,
13324,control_change,2,0,8,,,,,,,,,11,11,33,,,
13325,control_change,60,0,4,,,,,,,,,3,11,27,,,
13325,note_on,0,0,4,,,,,,,,,3,,,,46,68
13325,control_change,3,0,7,,,,,,,,,10,11,37,,,
13325,control_change,60,0,6,,,,,,,,,5,11,27,,,
13325,note_on,0,0,6,,,,,,,,,5,,,,50,67
13325,note_on,60,0,11,,,,,,,,,13,,,,46,28
13326,control_change,2,0,10,,,,,,,,,6,11,33,,,
13327,control_change,3,0,9,,,,,,,,,12,11,37,,,
13327,control_change,7,0,1,,,,,,,,,0,11,30,,,
13327,control_change,3,0,8,,,,,,,,,11,11,37,,,
13328,control_change,3,0,7,,,,,,,,,10,11,40,,,
13328,note_on,60,0,12,,,,,,,,,14,,,,34,20
13329,control_change,3,0,10,,,,,,,,,6,11,37,,,
13329,control_change,7,0,2,,,,,,,,,1,11,30,,,
13330,control_change,7,0,3,,,,,,,,,2,11,30,,,
13330,control_change,3,0,9,,,,,,,,,12,11,40,,,
13330,control_change,3,0,8,,,,,,,,,11,11,40,,,
13330,control_change,2,0,7,,,,,,,,,10,11,43,,,
13332,control_change,2,0,8,,,,,,,,,11,11,43,,,
13332,control_change,7,0,4,,,,,,,,,3,11,30,,,
13332,control_change,2,0,9,,,,,,,,,12,11,43,,,
13332,control_change,3,0,10,,,,,,,,,6,11,40,,,
13333,control_change,3,0,7,,,,,,,,,10,11,46,,,
13334,control_change,2,0,10,,,,,,,,,6,11,43,,,
13335,control_change,3,0,9,,,,,,,,,12,11,46,,,
13335,control_change,8,0,1,,,,,,,,,0,11,33,,,
13335,control_change,3,0,8,,,,,,,,,11,11,46,,,
13337,control_change,3,0,10,,,,,,,,,6,11,46,,,
13337,control_change,8,0,2,,,,,,,,,1,11,33,,,
13338,control_change,8,0,3,,,,,,,,,2,11,33,,,
13340,control_change,8,0,4,,,,,,,,,3,11,33,,,
13341,control_change,18,0,5,,,,,,,,,4,11,30,,,
13342,control_change,7,0,1,,,,,,,,,0,11,36,,,
13343,control_change,18,0,6,,,,,,,,,5,11,30,,,
13344,control_change,7,0,2,,,,,,,,,1,11,36,,,
13345,control_change,7,0,3,,,,,,,,,2,11,36,,,
13347,control_change,7,0,4,,,,,,,,,3,11,36,,,
13350,control_change,8,0,1,,,,,,,,,0,11,39,,,
13352,control_change,8,0,2,,,,,,,,,1,11,39,,,
13353,control_change,8,0,3,,,,,,,,,2,11,39,,,
13355,control_change,8,0,4,,,,,,,,,3,11,39,,,
13410,control_change,60,0,1,,,,,,,,,0,11,39,,,
13410,control_change,77,0,7,,,,,,,,,10,11,47,,,
13412,control_change,60,0,2,,,,,,,,,1,11,39,,,
13412,control_change,77,0,9,,,,,,,,,12,11,47,,,
13412,control_change,77,0,8,,,,,,,,,11,11,47,,,
13413,control_change,72,0,5,,,,,,,,,4,11,32,,,
13413,control_change,60,0,3,,,,,,,,,2,11,39,,,
13414,control_change,77,0,10,,,,,,,,,6,11,47,,,
13415,control_change,60,0,4,,,,,,,,,3,11,39,,,
13415,control_change,5,0,7,,,,,,,,,10,11,44,,,
13415,control_change,72,0,6,,,,,,,,,5,11,32,,,
13417,control_change,7,0,1,,,,,,,,,0,11,36,,,
13417,control_change,5,0,9,,,,,,,,,12,11,44,,,
13417,control_change,5,0,8,,,,,,,,,11,11,44,,,
13419,control_change,7,0,2,,,,,,,,,1,11,36,,,
13419,control_change,5,0,10,,,,,,,,,6,11,44,,,
13420,control_change,7,0,3,,,,,,,,,2,11,36,,,
13420,control_change,5,0,7,,,,,,,,,10,11,41,,,
13422,control_change,5,0,9,,,,,,,,,12,11,41,,,
13422,control_change,5,0,8,,,,,,,,,11,11,41,,,
13422,control_change,7,0,4,,,,,,,,,3,11,36,,,
13424,control_change,5,0,10,,,,,,,,,6,11,41,,,
13424,control_change,7,0,1,,,,,,,,,0,11,33,,,
13425,control_change,5,0,7,,,,,,,,,10,11,38,,,
13426,control_change,7,0,2,,,,,,,,,1,11,33,,,
13427,control_change,7,0,3,,,,,,,,,2,11,33,,,
13427,control_change,5,0,9,,,,,,,,,12,11,38,,,
13427,control_change,5,0,8,,,,,,,,,11,11,38,,,
13429,control_change,7,0,4,,,,,,,,,3,11,33,,,
13429,control_change,5,0,10,,,,,,,,,6,11,38,,,
13430,control_change,17,0,5,,,,,,,,,4,11,29,,,
13430,control_change,5,0,7,,,,,,,,,10,11,35,,,
13431,control_change,7,0,1,,,,,,,,,0,11,30,,,
13432,control_change,17,0,6,,,,,,,,,5,11,29,,,
13432,control_change,5,0,8,,,,,,,,,11,11,35,,,
13432,control_change,5,0,9,,,,,,,,,12,11,35,,,
13433,control_change,7,0,2,,,,,,,,,1,11,30,,,
13434,control_change,5,0,10,,,,,,,,,6,11,35,,,
13434,control_change,7,0,3,,,,,,,,,2,11,30,,,
13435,control_change,5,0,7,,,,,,,,,10,11,32,,,
13436,control_change,7,0,4,,,,,,,,,3,11,30,,,
13437,control_change,5,0,9,,,,,,,,,12,11,32,,,
13437,control_change,5,0,8,,,,,,,,,11,11,32,,,
13439,control_change,8,0,1,,,,,,,,,0,11,27,,,
13439,control_change,5,0,10,,,,,,,,,6,11,32,,,
13440,note_on,1,0,1,,,,,,,,,0,,,,74,0
13440,note_on,5,0,7,,,,,,,,,10,,,,62,0
13441,control_change,8,0,2,,,,,,,,,1,11,27,,,
13442,note_on,0,0,2,,,,,,,,,1,,,,62,0
13442,note_on,5,0,8,,,,,,,,,11,,,,58,0
13442,note_on,5,0,9,,,,,,,,,12,,,,58,0
13442,control_change,8,0,3,,,,,,,,,2,11,27,,,
13442,note_on,1,0,2,,,,,,,,,1,,,,65,0
13443,note_on,1,0,3,,,,,,,,,2,,,,74,0
13443,note_on,13,0,5,,,,,,,,,4,,,,58,0
13443,note_on,0,0,3,,,,,,,,,2,,,,70,0
13444,control_change,8,0,4,,,,,,,,,3,11,27,,,
13444,note_on,5,0,10,,,,,,,,,6,,,,46,0
13445,note_on,1,0,4,,,,,,,,,3,,,,46,0
13445,note_on,120,0,11,,,,,,,,,13,,,,46,0
13445,note_on,13,0,6,,,,,,,,,5,,,,50,0
13448,note_on,120,0,12,,,,,,,,,14,,,,34,0
13500,control_change,60,0,1,,,,,,,,,0,11,39,,,
13500,set_tempo,360,1,0,,,,,,916031,,,,,,,,
13502,note_on,0,0,8,,,,,,,,,11,,,,58,85
13502,control_change,60,0,8,,,,,,,,,11,11,37,,,
13502,control_change,60,0,9,,,,,,,,,12,11,37,,,
13502,note_on,0,0,9,,,,,,,,,12,,,,50,78
13502,note_on,0,0,9,,,,,,,,,12,,,,53,78
13503,program_change,59,0,10,,,,,,,,42,6,,,,,
13504,control_change,1,0,10,,,,,,,,,6,11,37,,,
13504,note_on,0,0,10,,,,,,,,,6,,,,50,63
13522,note_on,20,0,9,,,,,,,,,12,,,,53,0
13522,note_on,0,0,9,,,,,,,,,12,,,,50,0
13522,note_on,20,0,8,,,,,,,,,11,,,,58,0
13524,note_on,20,0,10,,,,,,,,,6,,,,50,0
13532,note_on,10,0,8,,,,,,,,,11,,,,58,85
13532,note_on,10,0,9,,,,,,,,,12,,,,50,78
13532,note_on,0,0,9,,,,,,,,,12,,,,53,78
13534,note_on,10,0,10,,,,,,,,,6,,,,50,63
13552,note_on,20,0,9,,,,,,,,,12,,,,53,0
13552,note_on,0,0,9,,,,,,,,,12,,,,50,0
13552,note_on,20,0,8,,,,,,,,,11,,,,58,0
13554,note_on,20,0,10,,,,,,,,,6,,,,50,0
13562,note_on,10,0,8,,,,,,,,,11,,,,58,85
13562,note_on,10,0,9,,,,,,,,,12,,,,50,78
13562,note_on,0,0,9,,,,,,,,,12,,,,53,78
13564,note_on,10,0,10,,,,,,,,,6,,,,50,63
13582,note_on,20,0,9,,,,,,,,,12,,,,53,0
13582,note_on,0,0,9,,,,,,,,,12,,,,50,0
13582,note_on,20,0,8,,,,,,,,,11,,,,58,0
13584,note_on,20,0,10,,,,,,,,,6,,,,50,0
13592,note_on,10,0,9,,,,,,,,,12,,,,50,78
13592,note_on,0,0,9,,,,,,,,,12,,,,53,78
13592,note_on,10,0,8,,,,,,,,,11,,,,58,85
13594,note_on,10,0,10,,,,,,,,,6,,,,50,63
13612,note_on,20,0,8,,,,,,,,,11,,,,58,0
13612,note_on,0,0,9,,,,,,,,,12,,,,50,0
13612,note_on,20,0,9,,,,,,,,,12,,,,53,0
13614,note_on,20,0,10,,,,,,,,,6,,,,50,0
13622,note_on,0,0,9,,,,,,,,,12,,,,53,78
13622,note_on,10,0,8,,,,,,,,,11,,,,58,85
13622,note_on,10,0,9,,,,,,,,,12,,,,50,78
13624,note_on,10,0,10,,,,,,,,,6,,,,50,63
13642,note_on,20,0,9,,,,,,,,,12,,,,53,0
13642,note_on,20,0,8,,,,,,,,,11,,,,58,0
13642,note_on,0,0,9,,,,,,,,,12,,,,50,0
13644,note_on,20,0,10,,,,,,,,,6,,,,50,0
13652,note_on,10,0,9,,,,,,,,,12,,,,53,78
13652,note_on,0,0,9,,,,,,,,,12,,,,50,78
13652,note_on,10,0,8,,,,,,,,,11,,,,58,85
13654,note_on,10,0,10,,,,,,,,,6,,,,50,63
13672,note_on,20,0,8,,,,,,,,,11,,,,58,0
13672,note_on,20,0,9,,,,,,,,,12,,,,50,0
13672,note_on,0,0,9,,,,,,,,,12,,,,53,0
13674,note_on,20,0,10,,,,,,,,,6,,,,50,0
13680,set_tempo,180,1,0,,,,,,1000000,,,,,,,,
13680,control_change,240,0,7,,,,,,,,,10,11,37,,,
13680,note_on,0,0,7,,,,,,,,,10,,,,77,103
13682,note_on,0,0,9,,,,,,,,,12,,,,53,79
13682,note_on,10,0,8,,,,,,,,,11,,,,58,86
13682,note_on,10,0,9,,,,,,,,,12,,,,50,79
13684,note_on,10,0,10,,,,,,,,,6,,,,50,64
13698,control_change,18,0,7,,,,,,,,,10,11,40,,,
13716,control_change,18,0,7,,,,,,,,,10,11,43,,,
13734,control_change,18,0,7,,,,,,,,,10,11,46,,,
13740,note_on,0,0,7,,,,,,,,,10,,,,74,103
13740,note_on,6,0,7,,,,,,,,,10,,,,77,0
13772,control_change,90,0,8,,,,,,,,,11,11,37,,,
13772,control_change,90,0,9,,,,,,,,,12,11,37,,,
13777,control_change,5,0,8,,,,,,,,,11,11,34,,,
13777,control_change,5,0,9,,,,,,,,,12,11,34,,,
13782,control_change,5,0,8,,,,,,,,,11,11,31,,,
13782,control_change,5,0,9,,,,,,,,,12,11,31,,,
13787,control_change,5,0,9,,,,,,,,,12,11,28,,,
13787,control_change,5,0,8,,,,,,,,,11,11,28,,,
13792,control_change,5,0,9,,,,,,,,,12,11,25,,,
13792,control_change,5,0,8,,,,,,,,,11,11,25,,,
13797,control_change,5,0,9,,,,,,,,,12,11,22,,,
13797,control_change,5,0,8,,,,,,,,,11,11,22,,,
13800,note_on,0,0,7,,,,,,,,,10,,,,70,103
13800,note_on,60,0,7,,,,,,,,,10,,,,74,0
13802,note_on,5,0,9,,,,,,,,,12,,,,53,0
13802,note_on,5,0,8,,,,,,,,,11,,,,58,0
13802,note_on,0,0,9,,,,,,,,,12,,,,50,0
13804,note_on,120,0,10,,,,,,,,,6,,,,50,0
13860,set_tempo,180,1,0,,,,,,930233,,,,,,,,
13860,note_on,60,0,7,,,,,,,,,10,,,,70,0
13862,note_on,0,0,9,,,,,,,,,12,,,,57,87
13862,note_on,0,0,9,,,,,,,,,12,,,,53,87
13862,control_change,60,0,9,,,,,,,,,12,11,37,,,
13862,note_on,0,0,8,,,,,,,,,11,,,,60,94
13862,control_change,60,0,8,,,,,,,,,11,11,37,,,
13864,note_on,60,0,10,,,,,,,,,6,,,,51,70
13882,note_on,0,0,9,,,,,,,,,12,,,,53,0
13882,note_on,20,0,8,,,,,,,,,11,,,,60,0
13882,note_on,20,0,9,,,,,,,,,12,,,,57,0
13884,note_on,20,0,10,,,,,,,,,6,,,,51,0
13892,note_on,10,0,8,,,,,,,,,11,,,,60,94
13892,note_on,0,0,9,,,,,,,,,12,,,,57,87
13892,note_on,10,0,9,,,,,,,,,12,,,,53,87
13894,note_on,10,0,10,,,,,,,,,6,,,,51,70
13912,note_on,0,0,9,,,,,,,,,12,,,,53,0
13912,note_on,20,0,9,,,,,,,,,12,,,,57,0
13912,note_on,20,0,8,,,,,,,,,11,,,,60,0
13914,note_on,20,0,10,,,,,,,,,6,,,,51,0
13922,note_on,0,0,9,,,,,,,,,12,,,,53,87
13922,note_on,10,0,9,,,,,,,,,12,,,,57,87
13922,note_on,10,0,8,,,,,,,,,11,,,,60,94
13924,note_on,10,0,10,,,,,,,,,6,,,,51,70
13942,note_on,20,0,8,,,,,,,,,11,,,,60,0
13942,note_on,20,0,9,,,,,,,,,12,,,,53,0
13942,note_on,0,0,9,,,,,,,,,12,,,,57,0
13944,note_on,20,0,10,,,,,,,,,6,,,,51,0
13952,note_on,10,0,9,,,,,,,,,12,,,,57,87
13952,note_on,0,0,9,,,,,,,,,12,,,,53,87
13952,note_on,10,0,8,,,,,,,,,11,,,,60,94
13954,note_on,10,0,10,,,,,,,,,6,,,,51,70
13972,note_on,20,0,9,,,,,,,,,12,,,,53,0
13972,note_on,0,0,9,,,,,,,,,12,,,,57,0
13972,note_on,20,0,8,,,,,,,,,11,,,,60,0
13974,note_on,20,0,10,,,,,,,,,6,,,,51,0
13982,note_on,0,0,9,,,,,,,,,12,,,,53,87
13982,note_on,10,0,8,,,,,,,,,11,,,,60,94
13982,note_on,10,0,9,,,,,,,,,12,,,,57,87
13984,note_on,10,0,10,,,,,,,,,6,,,,51,70
14002,note_on,20,0,9,,,,,,,,,12,,,,53,0
14002,note_on,0,0,9,,,,,,,,,12,,,,57,0
14002,note_on,20,0,8,,,,,,,,,11,,,,60,0
14004,note_on,20,0,10,,,,,,,,,6,,,,51,0
14010,control_change,150,0,7,,,,,,,,,10,11,37,,,
14010,note_on,0,0,7,,,,,,,,,10,,,,79,115
14012,note_on,0,0,9,,,,,,,,,12,,,,53,87
14012,note_on,10,0,9,,,,,,,,,12,,,,57,87
14012,note_on,10,0,8,,,,,,,,,11,,,,60,94
14014,note_on,10,0,10,,,,,,,,,6,,,,51,70
14020,note_on,0,0,7,,,,,,,,,10,,,,77,115
14020,note_on,10,0,7,,,,,,,,,10,,,,79,0
14028,control_change,8,0,7,,,,,,,,,10,11,39,,,
14030,note_on,0,0,7,,,,,,,,,10,,,,76,115
14030,note_on,2,0,7,,,,,,,,,10,,,,77,0
14032,note_on,20,0,8,,,,,,,,,11,,,,60,0
14032,note_on,20,0,9,,,,,,,,,12,,,,53,0
14032,note_on,0,0,9,,,,,,,,,12,,,,57,0
14034,note_on,20,0,10,,,,,,,,,6,,,,51,0
14040,note_on,0,0,7,,,,,,,,,10,,,,77,103
14040,set_tempo,180,1,0,,,,,,1000000,,,,,,,,
14040,note_on,10,0,7,,,,,,,,,10,,,,76,0
14042,note_on,0,0,9,,,,,,,,,12,,,,58,79
14042,note_on,10,0,8,,,,,,,,,11,,,,62,86
14042,note_on,10,0,9,,,,,,,,,12,,,,53,79
14044,note_on,10,0,10,,,,,,,,,6,,,,50,64
14046,control_change,6,0,7,,,,,,,,,10,11,41,,,
14064,control_change,18,0,7,,,,,,,,,10,11,43,,,
14082,control_change,18,0,7,,,,,,,,,10,11,45,,,
14100,note_on,0,0,7,,,,,,,,,10,,,,74,103
14100,control_change,0,0,7,,,,,,,,,10,11,47,,,
14100,note_on,18,0,7,,,,,,,,,10,,,,77,0
14132,control_change,90,0,9,,,,,,,,,12,11,37,,,
14132,control_change,90,0,8,,,,,,,,,11,11,37,,,
14137,control_change,5,0,9,,,,,,,,,12,11,34,,,
14137,control_change,5,0,8,,,,,,,,,11,11,34,,,
14142,control_change,5,0,9,,,,,,,,,12,11,31,,,
14142,control_change,5,0,8,,,,,,,,,11,11,31,,,
14147,control_change,5,0,9,,,,,,,,,12,11,28,,,
14147,control_change,5,0,8,,,,,,,,,11,11,28,,,
14152,control_change,5,0,8,,,,,,,,,11,11,25,,,
14152,control_change,5,0,9,,,,,,,,,12,11,25,,,
14157,control_change,5,0,9,,,,,,,,,12,11,22,,,
14157,control_change,5,0,8,,,,,,,,,11,11,22,,,
14160,note_on,0,0,7,,,,,,,,,10,,,,82,103
14160,note_on,60,0,7,,,,,,,,,10,,,,74,0
14162,note_on,5,0,8,,,,,,,,,11,,,,62,0
14162,note_on,0,0,9,,,,,,,,,12,,,,53,0
14162,note_on,5,0,9,,,,,,,,,12,,,,58,0
14164,note_on,120,0,10,,,,,,,,,6,,,,50,0
14220,note_on,60,0,7,,,,,,,,,10,,,,82,0
14220,set_tempo,180,1,0,,,,,,916031,,,,,,,,
14222,note_on,0,0,9,,,,,,,,,12,,,,50,109
14222,control_change,60,0,9,,,,,,,,,12,11,37,,,
14222,note_on,0,0,8,,,,,,,,,11,,,,58,111
14222,control_change,60,0,8,,,,,,,,,11,11,37,,,
14242,note_on,20,0,8,,,,,,,,,11,,,,58,0
14242,note_on,20,0,9,,,,,,,,,12,,,,50,0
14252,note_on,10,0,8,,,,,,,,,11,,,,58,111
14252,note_on,10,0,9,,,,,,,,,12,,,,50,109
14272,note_on,20,0,9,,,,,,,,,12,,,,50,0
14272,note_on,20,0,8,,,,,,,,,11,,,,58,0
14282,note_on,10,0,8,,,,,,,,,11,,,,58,111
14282,note_on,10,0,9,,,,,,,,,12,,,,50,109
14302,note_on,20,0,8,,,,,,,,,11,,,,58,0
14302,note_on,20,0,9,,,,,,,,,12,,,,50,0
14312,note_on,10,0,8,,,,,,,,,11,,,,58,111
14312,note_on,10,0,9,,,,,,,,,12,,,,50,109
14332,note_on,20,0,9,,,,,,,,,12,,,,50,0
14332,note_on,20,0,8,,,,,,,,,11,,,,58,0
14342,note_on,10,0,8,,,,,,,,,11,,,,58,111
14342,note_on,10,0,9,,,,,,,,,12,,,,50,109
14362,note_on,20,0,9,,,,,,,,,12,,,,50,0
14362,note_on,20,0,8,,,,,,,,,11,,,,58,0
14372,note_on,10,0,9,,,,,,,,,12,,,,50,109
14372,note_on,10,0,8,,,,,,,,,11,,,,58,111
14392,note_on,20,0,9,,,,,,,,,12,,,,50,0
14392,note_on,20,0,8,,,,,,,,,11,,,,58,0
14400,set_tempo,180,1,0,,,,,,1165049,,,,,,,,
14402,note_on,10,0,9,,,,,,,,,12,,,,53,109
14402,note_on,10,0,8,,,,,,,,,11,,,,60,111
14492,control_change,90,0,9,,,,,,,,,12,11,37,,,
14492,control_change,90,0,8,,,,,,,,,11,11,37,,,
14497,control_change,5,0,8,,,,,,,,,11,11,34,,,
14497,control_change,5,0,9,,,,,,,,,12,11,34,,,
14502,control_change,5,0,8,,,,,,,,,11,11,31,,,
14502,control_change,5,0,9,,,,,,,,,12,11,31,,,
14507,control_change,5,0,8,,,,,,,,,11,11,28,,,
14507,control_change,5,0,9,,,,,,,,,12,11,28,,,
14512,control_change,5,0,8,,,,,,,,,11,11,25,,,
14512,control_change,5,0,9,,,,,,,,,12,11,25,,,
14517,control_change,5,0,9,,,,,,,,,12,11,22,,,
14517,control_change,5,0,8,,,,,,,,,11,11,22,,,
14522,note_on,5,0,9,,,,,,,,,12,,,,53,0
14522,note_on,5,0,8,,,,,,,,,11,,,,60,0
14580,set_tempo,180,1,0,,,,,,902256,,,,,,,,
14583,note_on,1140,0,5,,,,,,,,,4,,,,60,91
14583,note_on,1140,0,3,,,,,,,,,2,,,,65,88
14583,note_on,0,0,3,,,,,,,,,2,,,,72,88
14583,control_change,0,0,5,,,,,,,,,4,11,42,,,
14583,control_change,0,0,3,,,,,,,,,2,11,39,,,
14585,note_on,1140,0,6,,,,,,,,,5,,,,53,91
14585,control_change,0,0,6,,,,,,,,,5,11,42,,,
14603,note_on,0,0,3,,,,,,,,,2,,,,65,0
14603,note_on,20,0,3,,,,,,,,,2,,,,72,0
14608,note_on,25,0,5,,,,,,,,,4,,,,60,0
14610,note_on,25,0,6,,,,,,,,,5,,,,53,0
14613,note_on,0,0,3,,,,,,,,,2,,,,72,88
14613,note_on,5,0,5,,,,,,,,,4,,,,60,91
14613,note_on,10,0,3,,,,,,,,,2,,,,65,88
14615,note_on,5,0,6,,,,,,,,,5,,,,53,91
14633,note_on,20,0,3,,,,,,,,,2,,,,72,0
14633,note_on,0,0,3,,,,,,,,,2,,,,65,0
14638,note_on,25,0,5,,,,,,,,,4,,,,60,0
14640,note_on,25,0,6,,,,,,,,,5,,,,53,0
14643,note_on,10,0,3,,,,,,,,,2,,,,72,88
14643,note_on,0,0,3,,,,,,,,,2,,,,65,88
14643,note_on,5,0,5,,,,,,,,,4,,,,60,91
14645,note_on,5,0,6,,,,,,,,,5,,,,53,91
14663,note_on,20,0,3,,,,,,,,,2,,,,65,0
14663,note_on,0,0,3,,,,,,,,,2,,,,72,0
14668,note_on,25,0,5,,,,,,,,,4,,,,60,0
14670,note_on,25,0,6,,,,,,,,,5,,,,53,0
14673,note_on,0,0,3,,,,,,,,,2,,,,72,88
14673,note_on,5,0,5,,,,,,,,,4,,,,60,91
14673,note_on,10,0,3,,,,,,,,,2,,,,65,88
14675,note_on,5,0,6,,,,,,,,,5,,,,53,91
14693,note_on,0,0,3,,,,,,,,,2,,,,65,0
14693,note_on,20,0,3,,,,,,,,,2,,,,72,0
14698,note_on,25,0,5,,,,,,,,,4,,,,60,0
14700,note_on,25,0,6,,,,,,,,,5,,,,53,0
14703,note_on,0,0,3,,,,,,,,,2,,,,65,88
14703,note_on,10,0,3,,,,,,,,,2,,,,72,88
14703,note_on,5,0,5,,,,,,,,,4,,,,60,91
14705,note_on,5,0,6,,,,,,,,,5,,,,53,91
14723,note_on,20,0,3,,,,,,,,,2,,,,65,0
14723,note_on,0,0,3,,,,,,,,,2,,,,72,0
14728,note_on,25,0,5,,,,,,,,,4,,,,60,0
14730,note_on,25,0,6,,,,,,,,,5,,,,53,0
14733,note_on,10,0,3,,,,,,,,,2,,,,72,88
14733,note_on,5,0,5,,,,,,,,,4,,,,60,91
14733,note_on,0,0,3,,,,,,,,,2,,,,65,88
14735,note_on,5,0,6,,,,,,,,,5,,,,53,91
14753,note_on,0,0,3,,,,,,,,,2,,,,72,0
14753,note_on,20,0,3,,,,,,,,,2,,,,65,0
14758,note_on,25,0,5,,,,,,,,,4,,,,60,0
14760,set_tempo,180,1,0,,,,,,1165049,,,,,,,,
14760,note_on,25,0,6,,,,,,,,,5,,,,53,0
14763,note_on,0,0,3,,,,,,,,,2,,,,70,88
14763,note_on,10,0,3,,,,,,,,,2,,,,74,88
14763,note_on,5,0,5,,,,,,,,,4,,,,62,91
14765,note_on,5,0,6,,,,,,,,,5,,,,58,91
14853,control_change,90,0,3,,,,,,,,,2,11,39,,,
14853,control_change,90,0,5,,,,,,,,,4,11,42,,,
14855,control_change,90,0,6,,,,,,,,,5,11,42,,,
14856,control_change,3,0,5,,,,,,,,,4,11,39,,,
14857,control_change,4,0,3,,,,,,,,,2,11,36,,,
14858,control_change,3,0,6,,,,,,,,,5,11,39,,,
14860,control_change,4,0,5,,,,,,,,,4,11,36,,,
14862,control_change,5,0,3,,,,,,,,,2,11,33,,,
14862,control_change,4,0,6,,,,,,,,,5,11,36,,,
14864,control_change,4,0,5,,,,,,,,,4,11,33,,,
14866,control_change,4,0,3,,,,,,,,,2,11,30,,,
14866,control_change,4,0,6,,,,,,,,,5,11,33,,,
14868,control_change,4,0,5,,,,,,,,,4,11,30,,,
14870,control_change,4,0,6,,,,,,,,,5,11,30,,,
14871,control_change,5,0,3,,,,,,,,,2,11,27,,,
14872,control_change,4,0,5,,,,,,,,,4,11,27,,,
14874,control_change,4,0,6,,,,,,,,,5,11,27,,,
14875,control_change,4,0,3,,,,,,,,,2,11,24,,,
14876,control_change,4,0,5,,,,,,,,,4,11,24,,,
14878,control_change,4,0,6,,,,,,,,,5,11,24,,,
14880,control_change,4,0,5,,,,,,,,,4,11,21,,,
14880,control_change,5,0,3,,,,,,,,,2,11,21,,,
14882,control_change,4,0,6,,,,,,,,,5,11,21,,,
14883,note_on,3,0,5,,,,,,,,,4,,,,62,0
14883,note_on,0,0,3,,,,,,,,,2,,,,74,0
14883,note_on,3,0,3,,,,,,,,,2,,,,70,0
14885,note_on,3,0,6,,,,,,,,,5,,,,58,0
14940,set_tempo,180,1,0,,,,,,960000,,,,,,,,
14942,control_change,420,0,9,,,,,,,,,12,11,37,,,
14942,note_on,0,0,9,,,,,,,,,12,,,,53,88
14942,note_on,0,0,8,,,,,,,,,11,,,,65,90
14942,control_change,420,0,8,,,,,,,,,11,11,37,,,
14944,note_on,0,0,10,,,,,,,,,6,,,,53,71
14944,control_change,780,0,10,,,,,,,,,6,11,37,,,
14967,note_on,25,0,9,,,,,,,,,12,,,,53,0
14967,note_on,25,0,8,,,,,,,,,11,,,,65,0
14969,note_on,25,0,10,,,,,,,,,6,,,,53,0
14972,note_on,5,0,8,,,,,,,,,11,,,,65,96
14972,note_on,5,0,9,,,,,,,,,12,,,,53,94
14974,note_on,5,0,10,,,,,,,,,6,,,,53,76
14997,note_on,25,0,8,,,,,,,,,11,,,,65,0
14997,note_on,25,0,9,,,,,,,,,12,,,,53,0
14999,note_on,25,0,10,,,,,,,,,6,,,,53,0
15002,note_on,5,0,9,,,,,,,,,12,,,,53,101
15002,note_on,5,0,8,,,,,,,,,11,,,,65,103
15004,note_on,5,0,10,,,,,,,,,6,,,,53,82
15027,note_on,25,0,9,,,,,,,,,12,,,,53,0
15027,note_on,25,0,8,,,,,,,,,11,,,,65,0
15029,note_on,25,0,10,,,,,,,,,6,,,,53,0
15032,note_on,5,0,8,,,,,,,,,11,,,,65,103
15032,note_on,5,0,9,,,,,,,,,12,,,,53,101
15034,note_on,5,0,10,,,,,,,,,6,,,,53,82
15057,note_on,25,0,9,,,,,,,,,12,,,,53,0
15057,note_on,25,0,8,,,,,,,,,11,,,,65,0
15059,note_on,25,0,10,,,,,,,,,6,,,,53,0
15062,note_on,5,0,8,,,,,,,,,11,,,,65,103
15062,note_on,5,0,9,,,,,,,,,12,,,,53,101
15064,note_on,5,0,10,,,,,,,,,6,,,,53,82
15087,note_on,25,0,9,,,,,,,,,12,,,,53,0
15087,note_on,25,0,8,,,,,,,,,11,,,,65,0
15089,note_on,25,0,10,,,,,,,,,6,,,,53,0
15092,note_on,5,0,9,,,,,,,,,12,,,,53,101
15092,note_on,5,0,8,,,,,,,,,11,,,,65,103
15094,note_on,5,0,10,,,,,,,,,6,,,,53,82
15117,note_on,25,0,9,,,,,,,,,12,,,,53,0
15117,note_on,25,0,8,,,,,,,,,11,,,,65,0
15119,note_on,25,0,10,,,,,,,,,6,,,,53,0
15120,control_change,900,0,7,,,,,,,,,10,11,37,,,
15120,control_change,1620,0,1,,,,,,,,,0,11,47,,,
15120,set_tempo,180,1,0,,,,,,1034483,,,,,,,,
15120,note_on,0,0,7,,,,,,,,,10,,,,70,103
15122,note_on,0,0,9,,,,,,,,,12,,,,58,66
15122,control_change,5,0,9,,,,,,,,,12,11,37,,,
15122,control_change,5,0,8,,,,,,,,,11,11,37,,,
15122,note_on,0,0,8,,,,,,,,,11,,,,62,68
15123,control_change,0,0,5,,,,,,,,,4,11,42,,,
15123,note_on,240,0,5,,,,,,,,,4,,,,58,82
15124,note_on,0,0,10,,,,,,,,,6,,,,46,52
15124,control_change,5,0,10,,,,,,,,,6,11,37,,,
15125,control_change,240,0,6,,,,,,,,,5,11,42,,,
15125,note_on,0,0,6,,,,,,,,,5,,,,46,82
15125,note_on,1680,0,11,,,,,,,,,13,,,,46,36
15128,note_on,1680,0,12,,,,,,,,,14,,,,34,30
15138,control_change,18,0,7,,,,,,,,,10,11,40,,,
15140,control_change,18,0,8,,,,,,,,,11,11,40,,,
15140,control_change,18,0,9,,,,,,,,,12,11,40,,,
15142,control_change,18,0,10,,,,,,,,,6,11,40,,,
15152,note_on,0,0,8,,,,,,,,,11,,,,58,68
15152,note_on,12,0,8,,,,,,,,,11,,,,62,0
15152,note_on,12,0,9,,,,,,,,,12,,,,58,0
15152,note_on,0,0,9,,,,,,,,,12,,,,62,66
15154,note_on,12,0,10,,,,,,,,,6,,,,46,0
15154,note_on,0,0,10,,,,,,,,,6,,,,53,52
15156,control_change,18,0,7,,,,,,,,,10,11,43,,,
15158,control_change,6,0,8,,,,,,,,,11,11,43,,,
15158,control_change,6,0,9,,,,,,,,,12,11,43,,,
15160,control_change,6,0,10,,,,,,,,,6,11,43,,,
15174,control_change,18,0,7,,,,,,,,,10,11,46,,,
15176,control_change,18,0,8,,,,,,,,,11,11,46,,,
15176,control_change,18,0,9,,,,,,,,,12,11,46,,,
15178,control_change,18,0,10,,,,,,,,,6,11,46,,,
15180,set_tempo,60,1,0,,,,,,937500,,,,,,,,
15182,note_on,0,0,8,,,,,,,,,11,,,,65,68
15182,note_on,6,0,8,,,,,,,,,11,,,,58,0
15182,note_on,0,0,9,,,,,,,,,12,,,,65,66
15182,note_on,6,0,9,,,,,,,,,12,,,,62,0
15184,note_on,6,0,10,,,,,,,,,6,,,,53,0
15184,note_on,0,0,10,,,,,,,,,6,,,,50,52
15212,note_on,0,0,8,,,,,,,,,11,,,,62,68
15212,note_on,30,0,8,,,,,,,,,11,,,,65,0
15212,note_on,30,0,9,,,,,,,,,12,,,,65,0
15212,note_on,0,0,9,,,,,,,,,12,,,,62,66
15214,note_on,30,0,10,,,,,,,,,6,,,,50,0
15214,note_on,0,0,10,,,,,,,,,6,,,,53,52
15242,note_on,30,0,9,,,,,,,,,12,,,,62,0
15242,note_on,0,0,9,,,,,,,,,12,,,,65,66
15242,note_on,30,0,8,,,,,,,,,11,,,,62,0
15242,note_on,0,0,8,,,,,,,,,11,,,,65,68
15244,note_on,30,0,10,,,,,,,,,6,,,,53,0
15244,note_on,0,0,10,,,,,,,,,6,,,,50,52
15245,note_on,120,0,11,,,,,,,,,13,,,,46,0
15248,note_on,120,0,12,,,,,,,,,14,,,,34,0
15272,note_on,30,0,8,,,,,,,,,11,,,,65,0
15272,note_on,0,0,8,,,,,,,,,11,,,,62,68
15272,note_on,0,0,9,,,,,,,,,12,,,,62,66
15272,note_on,30,0,9,,,,,,,,,12,,,,65,0
15274,note_on,30,0,10,,,,,,,,,6,,,,50,0
15274,note_on,0,0,10,,,,,,,,,6,,,,53,52
15300,note_on,126,0,7,,,,,,,,,10,,,,70,0
15300,set_tempo,120,1,0,,,,,,1034483,,,,,,,,
15302,note_on,30,0,8,,,,,,,,,11,,,,62,0
15302,note_on,0,0,8,,,,,,,,,11,,,,67,68
15302,note_on,0,0,9,,,,,,,,,12,,,,67,66
15302,note_on,30,0,9,,,,,,,,,12,,,,62,0
15304,note_on,0,0,10,,,,,,,,,6,,,,51,52
15304,note_on,30,0,10,,,,,,,,,6,,,,53,0
15332,note_on,0,0,8,,,,,,,,,11,,,,63,68
15332,note_on,30,0,9,,,,,,,,,12,,,,67,0
15332,note_on,30,0,8,,,,,,,,,11,,,,67,0
15332,note_on,0,0,9,,,,,,,,,12,,,,63,66
15334,note_on,30,0,10,,,,,,,,,6,,,,51,0
15334,note_on,0,0,10,,,,,,,,,6,,,,55,52
15360,set_tempo,60,1,0,,,,,,937500,,,,,,,,
15362,note_on,30,0,8,,,,,,,,,11,,,,63,0
15362,note_on,0,0,8,,,,,,,,,11,,,,65,68
15362,note_on,30,0,9,,,,,,,,,12,,,,63,0
15362,note_on,0,0,9,,,,,,,,,12,,,,65,66
15364,note_on,30,0,10,,,,,,,,,6,,,,55,0
15364,note_on,0,0,10,,,,,,,,,6,,,,50,52
15392,note_on,0,0,8,,,,,,,,,11,,,,62,68
15392,note_on,30,0,8,,,,,,,,,11,,,,65,0
15392,note_on,30,0,9,,,,,,,,,12,,,,65,0
15392,note_on,0,0,9,,,,,,,,,12,,,,62,66
15394,note_on,0,0,10,,,,,,,,,6,,,,53,52
15394,note_on,30,0,10,,,,,,,,,6,,,,50,0
15418,note_on,295,0,5,,,,,,,,,4,,,,58,0
15420,note_on,295,0,6,,,,,,,,,5,,,,46,0
15422,note_on,0,0,8,,,,,,,,,11,,,,65,68
15422,note_on,30,0,8,,,,,,,,,11,,,,62,0
15422,note_on,30,0,9,,,,,,,,,12,,,,62,0
15422,note_on,0,0,9,,,,,,,,,12,,,,65,66
15423,note_on,5,0,5,,,,,,,,,4,,,,58,82
15424,note_on,0,0,10,,,,,,,,,6,,,,50,52
15424,note_on,30,0,10,,,,,,,,,6,,,,53,0
15425,note_on,5,0,6,,,,,,,,,5,,,,46,82
15452,note_on,30,0,8,,,,,,,,,11,,,,65,0
15452,note_on,0,0,8,,,,,,,,,11,,,,62,68
15452,note_on,30,0,9,,,,,,,,,12,,,,65,0
15452,note_on,0,0,9,,,,,,,,,12,,,,62,66
15454,note_on,0,0,10,,,,,,,,,6,,,,53,52
15454,note_on,30,0,10,,,,,,,,,6,,,,50,0
15480,set_tempo,120,1,0,,,,,,1034483,,,,,,,,
15482,note_on,30,0,9,,,,,,,,,12,,,,62,0
15482,note_on,0,0,9,,,,,,,,,12,,,,63,66
15482,note_on,30,0,8,,,,,,,,,11,,,,62,0
15482,note_on,0,0,8,,,,,,,,,11,,,,63,68
15484,note_on,0,0,10,,,,,,,,,6,,,,48,52
15484,note_on,30,0,10,,,,,,,,,6,,,,53,0
15512,note_on,0,0,8,,,,,,,,,11,,,,60,68
15512,note_on,30,0,8,,,,,,,,,11,,,,63,0
15512,note_on,30,0,9,,,,,,,,,12,,,,63,0
15512,note_on,0,0,9,,,,,,,,,12,,,,60,66
15514,note_on,30,0,10,,,,,,,,,6,,,,48,0
15514,note_on,0,0,10,,,,,,,,,6,,,,51,52
15540,set_tempo,60,1,0,,,,,,937500,,,,,,,,
15542,note_on,0,0,8,,,,,,,,,11,,,,62,68
15542,note_on,30,0,8,,,,,,,,,11,,,,60,0
15542,note_on,0,0,9,,,,,,,,,12,,,,62,66
15542,note_on,30,0,9,,,,,,,,,12,,,,60,0
15544,note_on,0,0,10,,,,,,,,,6,,,,46,52
15544,note_on,30,0,10,,,,,,,,,6,,,,51,0
15572,note_on,0,0,9,,,,,,,,,12,,,,58,66
15572,note_on,0,0,8,,,,,,,,,11,,,,58,68
15572,note_on,30,0,9,,,,,,,,,12,,,,62,0
15572,note_on,30,0,8,,,,,,,,,11,,,,62,0
15574,note_on,30,0,10,,,,,,,,,6,,,,46,0
15574,note_on,0,0,10,,,,,,,,,6,,,,50,52
15598,note_on,175,0,5,,,,,,,,,4,,,,58,0
15600,note_on,175,0,6,,,,,,,,,5,,,,46,0
15602,note_on,30,0,8,,,,,,,,,11,,,,58,0
15602,note_on,0,0,9,,,,,,,,,12,,,,62,66
15602,note_on,30,0,9,,,,,,,,,12,,,,58,0
15602,note_on,0,0,8,,,,,,,,,11,,,,62,68
15603,note_on,5,0,5,,,,,,,,,4,,,,58,82
15604,note_on,30,0,10,,,,,,,,,6,,,,50,0
15604,note_on,0,0,10,,,,,,,,,6,,,,46,52
15605,note_on,5,0,6,,,,,,,,,5,,,,46,82
15632,note_on,0,0,9,,,,,,,,,12,,,,58,66
15632,note_on,30,0,8,,,,,,,,,11,,,,62,0
15632,note_on,0,0,8,,,,,,,,,11,,,,58,68
15632,note_on,30,0,9,,,,,,,,,12,,,,62,0
15634,note_on,0,0,10,,,,,,,,,6,,,,50,52
15634,note_on,30,0,10,,,,,,,,,6,,,,46,0
15660,set_tempo,120,1,0,,,,,,1034483,,,,,,,,
15662,note_on,30,0,8,,,,,,,,,11,,,,58,0
15662,note_on,0,0,8,,,,,,,,,11,,,,60,68
15662,note_on,30,0,9,,,,,,,,,12,,,,58,0
15662,note_on,0,0,9,,,,,,,,,12,,,,60,66
15664,note_on,30,0,10,,,,,,,,,6,,,,50,0
15664,note_on,0,0,10,,,,,,,,,6,,,,41,52
15692,note_on,0,0,9,,,,,,,,,12,,,,57,66
15692,note_on,0,0,8,,,,,,,,,11,,,,57,68
15692,note_on,30,0,8,,,,,,,,,11,,,,60,0
15692,note_on,30,0,9,,,,,,,,,12,,,,60,0
15694,note_on,0,0,10,,,,,,,,,6,,,,48,52
15694,note_on,30,0,10,,,,,,,,,6,,,,41,0
15720,note_on,420,0,7,,,,,,,,,10,,,,70,93
15720,set_tempo,60,1,0,,,,,,937500,,,,,,,,
15722,note_on,30,0,9,,,,,,,,,12,,,,57,0
15722,note_on,0,0,9,,,,,,,,,12,,,,62,66
15722,note_on,0,0,8,,,,,,,,,11,,,,62,68
15722,note_on,30,0,8,,,,,,,,,11,,,,57,0
15724,note_on,0,0,10,,,,,,,,,6,,,,46,52
15724,note_on,30,0,10,,,,,,,,,6,,,,48,0
15750,note_on,0,0,7,,,,,,,,,10,,,,72,115
15750,note_on,30,0,7,,,,,,,,,10,,,,70,0
15752,note_on,30,0,8,,,,,,,,,11,,,,62,0
15752,note_on,0,0,8,,,,,,,,,11,,,,58,68
15752,note_on,30,0,9,,,,,,,,,12,,,,62,0
15752,note_on,0,0,9,,,,,,,,,12,,,,58,66
15754,note_on,0,0,10,,,,,,,,,6,,,,50,52
15754,note_on,30,0,10,,,,,,,,,6,,,,46,0
15778,note_on,175,0,5,,,,,,,,,4,,,,58,0
15780,note_on,175,0,6,,,,,,,,,5,,,,46,0
15780,note_on,30,0,7,,,,,,,,,10,,,,72,0
15780,note_on,0,0,7,,,,,,,,,10,,,,74,115
15782,note_on,30,0,8,,,,,,,,,11,,,,58,0
15782,note_on,0,0,9,,,,,,,,,12,,,,62,66
15782,note_on,30,0,9,,,,,,,,,12,,,,58,0
15782,note_on,0,0,8,,,,,,,,,11,,,,62,68
15783,note_on,5,0,5,,,,,,,,,4,,,,58,82
15784,note_on,30,0,10,,,,,,,,,6,,,,50,0
15784,note_on,0,0,10,,,,,,,,,6,,,,46,52
15785,note_on,5,0,6,,,,,,,,,5,,,,46,82
15810,note_on,30,0,7,,,,,,,,,10,,,,74,0
15810,note_on,0,0,7,,,,,,,,,10,,,,72,115
15812,note_on,0,0,8,,,,,,,,,11,,,,58,68
15812,note_on,30,0,8,,,,,,,,,11,,,,62,0
15812,note_on,0,0,9,,,,,,,,,12,,,,58,66
15812,note_on,30,0,9,,,,,,,,,12,,,,62,0
15814,note_on,0,0,10,,,,,,,,,6,,,,50,52
15814,note_on,30,0,10,,,,,,,,,6,,,,46,0
15835,note_on,25,0,7,,,,,,,,,10,,,,72,0
15837,note_on,25,0,9,,,,,,,,,12,,,,58,0
15837,note_on,25,0,8,,,,,,,,,11,,,,58,0
15838,note_on,55,0,5,,,,,,,,,4,,,,58,0
15839,note_on,25,0,10,,,,,,,,,6,,,,50,0
15840,note_on,55,0,6,,,,,,,,,5,,,,46,0
15840,note_on,5,0,7,,,,,,,,,10,,,,72,115
15840,set_tempo,120,1,0,,,,,,1034483,,,,,,,,
15842,note_on,5,0,9,,,,,,,,,12,,,,62,66
15842,note_on,5,0,8,,,,,,,,,11,,,,62,68
15843,note_on,5,0,5,,,,,,,,,4,,,,58,82
15844,note_on,5,0,10,,,,,,,,,6,,,,46,52
15845,note_on,5,0,6,,,,,,,,,5,,,,46,82
15845,note_on,600,0,11,,,,,,,,,13,,,,46,40
15848,note_on,600,0,12,,,,,,,,,14,,,,34,34
15872,note_on,0,0,8,,,,,,,,,11,,,,58,68
15872,note_on,30,0,8,,,,,,,,,11,,,,62,0
15872,note_on,0,0,9,,,,,,,,,12,,,,58,66
15872,note_on,30,0,9,,,,,,,,,12,,,,62,0
15874,note_on,0,0,10,,,,,,,,,6,,,,50,52
15874,note_on,30,0,10,,,,,,,,,6,,,,46,0
15900,note_on,60,0,7,,,,,,,,,10,,,,72,0
15900,note_on,0,0,7,,,,,,,,,10,,,,70,98
15900,set_tempo,60,1,0,,,,,,937500,,,,,,,,
15902,note_on,30,0,9,,,,,,,,,12,,,,58,0
15902,note_on,0,0,8,,,,,,,,,11,,,,65,68
15902,note_on,30,0,8,,,,,,,,,11,,,,58,0
15902,note_on,0,0,9,,,,,,,,,12,,,,65,66
15904,note_on,0,0,10,,,,,,,,,6,,,,50,52
15904,note_on,30,0,10,,,,,,,,,6,,,,50,0
15932,note_on,30,0,8,,,,,,,,,11,,,,65,0
15932,note_on,0,0,8,,,,,,,,,11,,,,62,68
15932,note_on,30,0,9,,,,,,,,,12,,,,65,0
15932,note_on,0,0,9,,,,,,,,,12,,,,62,66
15934,note_on,30,0,10,,,,,,,,,6,,,,50,0
15934,note_on,0,0,10,,,,,,,,,6,,,,53,52
15960,control_change,60,0,7,,,,,,,,,10,11,47,,,
15962,note_on,30,0,9,,,,,,,,,12,,,,62,0
15962,note_on,0,0,9,,,,,,,,,12,,,,65,66
15962,note_on,30,0,8,,,,,,,,,11,,,,62,0
15962,note_on,0,0,8,,,,,,,,,11,,,,65,68
15964,note_on,30,0,10,,,,,,,,,6,,,,53,0
15964,note_on,0,0,10,,,,,,,,,6,,,,50,52
15965,note_on,120,0,11,,,,,,,,,13,,,,46,0
15968,note_on,120,0,12,,,,,,,,,14,,,,34,0
15971,control_change,11,0,7,,,,,,,,,10,11,44,,,
15983,control_change,12,0,7,,,,,,,,,10,11,41,,,
15992,note_on,0,0,8,,,,,,,,,11,,,,62,68
15992,note_on,30,0,8,,,,,,,,,11,,,,65,0
15992,note_on,30,0,9,,,,,,,,,12,,,,65,0
15992,note_on,0,0,9,,,,,,,,,12,,,,62,66
15994,note_on,0,0,10,,,,,,,,,6,,,,53,52
15994,note_on,30,0,10,,,,,,,,,6,,,,50,0
15995,control_change,12,0,7,,,,,,,,,10,11,38,,,
16007,control_change,12,0,7,,,,,,,,,10,11,35,,,
16019,control_change,12,0,7,,,,,,,,,10,11,32,,,
16020,set_tempo,120,1,0,,,,,,1034483,,,,,,,,
16020,note_on,1,0,7,,,,,,,,,10,,,,70,0
16022,note_on,0,0,9,,,,,,,,,12,,,,67,66
16022,note_on,0,0,8,,,,,,,,,11,,,,67,68
16022,note_on,30,0,8,,,,,,,,,11,,,,62,0
16022,note_on,30,0,9,,,,,,,,,12,,,,62,0
16024,note_on,0,0,10,,,,,,,,,6,,,,51,52
16024,note_on,30,0,10,,,,,,,,,6,,,,53,0
16052,note_on,30,0,8,,,,,,,,,11,,,,67,0
16052,note_on,0,0,8,,,,,,,,,11,,,,63,68
16052,note_on,30,0,9,,,,,,,,,12,,,,67,0
16052,note_on,0,0,9,,,,,,,,,12,,,,63,66
16054,note_on,30,0,10,,,,,,,,,6,,,,51,0
16054,note_on,0,0,10,,,,,,,,,6,,,,55,52
16080,set_tempo,60,1,0,,,,,,937500,,,,,,,,
16082,note_on,0,0,8,,,,,,,,,11,,,,65,68
16082,note_on,30,0,8,,,,,,,,,11,,,,63,0
16082,note_on,0,0,9,,,,,,,,,12,,,,65,66
16082,note_on,30,0,9,,,,,,,,,12,,,,63,0
16084,note_on,30,0,10,,,,,,,,,6,,,,55,0
16084,note_on,0,0,10,,,,,,,,,6,,,,50,52
16112,note_on,30,0,9,,,,,,,,,12,,,,65,0
16112,note_on,0,0,9,,,,,,,,,12,,,,62,66
16112,note_on,30,0,8,,,,,,,,,11,,,,65,0
16112,note_on,0,0,8,,,,,,,,,11,,,,62,68
16114,note_on,30,0,10,,,,,,,,,6,,,,50,0
16114,note_on,0,0,10,,,,,,,,,6,,,,53,52
16138,note_on,295,0,5,,,,,,,,,4,,,,58,0
16140,note_on,295,0,6,,,,,,,,,5,,,,46,0
16142,note_on,0,0,8,,,,,,,,,11,,,,65,68
16142,note_on,0,0,9,,,,,,,,,12,,,,65,66
16142,note_on,30,0,9,,,,,,,,,12,,,,62,0
16142,note_on,30,0,8,,,,,,,,,11,,,,62,0
16143,note_on,5,0,5,,,,,,,,,4,,,,58,82
16144,note_on,30,0,10,,,,,,,,,6,,,,53,0
16144,note_on,0,0,10,,,,,,,,,6,,,,50,52
16145,note_on,5,0,6,,,,,,,,,5,,,,46,82
16172,note_on,30,0,8,,,,,,,,,11,,,,65,0
16172,note_on,0,0,9,,,,,,,,,12,,,,62,66
16172,note_on,0,0,8,,,,,,,,,11,,,,62,68
16172,note_on,30,0,9,,,,,,,,,12,,,,65,0
16174,note_on,30,0,10,,,,,,,,,6,,,,50,0
16174,note_on,0,0,10,,,,,,,,,6,,,,53,52
16200,set_tempo,120,1,0,,,,,,1034483,,,,,,,,
16202,note_on,0,0,8,,,,,,,,,11,,,,63,68
16202,note_on,30,0,8,,,,,,,,,11,,,,62,0
16202,note_on,30,0,9,,,,,,,,,12,,,,62,0
16202,note_on,0,0,9,,,,,,,,,12,,,,63,66
16204,note_on,0,0,10,,,,,,,,,6,,,,48,52
16204,note_on,30,0,10,,,,,,,,,6,,,,53,0
16232,note_on,30,0,8,,,,,,,,,11,,,,63,0
16232,note_on,0,0,8,,,,,,,,,11,,,,60,68
16232,note_on,30,0,9,,,,,,,,,12,,,,63,0
16232,note_on,0,0,9,,,,,,,,,12,,,,60,66
16234,note_on,30,0,10,,,,,,,,,6,,,,48,0
16234,note_on,0,0,10,,,,,,,,,6,,,,51,52
16260,set_tempo,60,1,0,,,,,,937500,,,,,,,,
16262,note_on,30,0,9,,,,,,,,,12,,,,60,0
16262,note_on,30,0,8,,,,,,,,,11,,,,60,0
16262,note_on,0,0,8,,,,,,,,,11,,,,62,68
16262,note_on,0,0,9,,,,,,,,,12,,,,62,66
16264,note_on,0,0,10,,,,,,,,,6,,,,46,52
16264,note_on,30,0,10,,,,,,,,,6,,,,51,0
16292,note_on,30,0,9,,,,,,,,,12,,,,62,0
16292,note_on,0,0,9,,,,,,,,,12,,,,58,66
16292,note_on,30,0,8,,,,,,,,,11,,,,62,0
16292,note_on,0,0,8,,,,,,,,,11,,,,58,68
16294,note_on,0,0,10,,,,,,,,,6,,,,50,52
16294,note_on,30,0,10,,,,,,,,,6,,,,46,0
16318,note_on,175,0,5,,,,,,,,,4,,,,58,0
16320,note_on,175,0,6,,,,,,,,,5,,,,46,0
16322,note_on,0,0,8,,,,,,,,,11,,,,62,68
16322,note_on,0,0,9,,,,,,,,,12,,,,62,66
16322,note_on,30,0,9,,,,,,,,,12,,,,58,0
16322,note_on,30,0,8,,,,,,,,,11,,,,58,0
16323,note_on,5,0,5,,,,,,,,,4,,,,58,82
16324,note_on,0,0,10,,,,,,,,,6,,,,46,52
16324,note_on,30,0,10,,,,,,,,,6,,,,50,0
16325,note_on,5,0,6,,,,,,,,,5,,,,46,82
16352,note_on,30,0,8,,,,,,,,,11,,,,62,0
16352,note_on,0,0,8,,,,,,,,,11,,,,58,68
16352,note_on,0,0,9,,,,,,,,,12,,,,58,66
16352,note_on,30,0,9,,,,,,,,,12,,,,62,0
16354,note_on,0,0,10,,,,,,,,,6,,,,50,52
16354,note_on,30,0,10,,,,,,,,,6,,,,46,0
16380,set_tempo,120,1,0,,,,,,1034483,,,,,,,,
16382,note_on,30,0,9,,,,,,,,,12,,,,58,0
16382,note_on,30,0,8,,,,,,,,,11,,,,58,0
16382,note_on,0,0,8,,,,,,,,,11,,,,60,68
16382,note_on,0,0,9,,,,,,,,,12,,,,60,66
16384,note_on,0,0,10,,,,,,,,,6,,,,45,52
16384,note_on,30,0,10,,,,,,,,,6,,,,50,0
16412,note_on,0,0,8,,,,,,,,,11,,,,57,68
16412,note_on,0,0,9,,,,,,,,,12,,,,57,66
16412,note_on,30,0,9,,,,,,,,,12,,,,60,0
16412,note_on,30,0,8,,,,,,,,,11,,,,60,0
16414,note_on,0,0,10,,,,,,,,,6,,,,48,52
16414,note_on,30,0,10,,,,,,,,,6,,,,45,0
16440,note_on,0,0,7,,,,,,,,,10,,,,79,102
16440,control_change,420,0,7,,,,,,,,,10,11,47,,,
16440,set_tempo,60,1,0,,,,,,937500,,,,,,,,
16442,note_on,30,0,9,,,,,,,,,12,,,,57,0
16442,note_on,0,0,8,,,,,,,,,11,,,,58,68
16442,note_on,0,0,9,,,,,,,,,12,,,,58,66
16442,note_on,30,0,8,,,,,,,,,11,,,,57,0
16444,note_on,30,0,10,,,,,,,,,6,,,,48,0
16444,note_on,0,0,10,,,,,,,,,6,,,,43,52
16470,note_on,30,0,7,,,,,,,,,10,,,,79,0
16470,note_on,0,0,7,,,,,,,,,10,,,,81,125
16472,note_on,30,0,8,,,,,,,,,11,,,,58,0
16472,note_on,0,0,8,,,,,,,,,11,,,,55,68
16472,note_on,30,0,9,,,,,,,,,12,,,,58,0
16472,note_on,0,0,9,,,,,,,,,12,,,,55,66
16474,note_on,0,0,10,,,,,,,,,6,,,,46,52
16474,note_on,30,0,10,,,,,,,,,6,,,,43,0
16498,note_on,175,0,5,,,,,,,,,4,,,,58,0
16500,note_on,30,0,7,,,,,,,,,10,,,,81,0
16500,note_on,175,0,6,,,,,,,,,5,,,,46,0
16500,note_on,0,0,7,,,,,,,,,10,,,,82,125
16502,note_on,30,0,9,,,,,,,,,12,,,,55,0
16502,note_on,0,0,8,,,,,,,,,11,,,,69,68
16502,note_on,30,0,8,,,,,,,,,11,,,,55,0
16502,note_on,0,0,9,,,,,,,,,12,,,,53,66
16503,note_on,5,0,5,,,,,,,,,4,,,,58,82
16504,note_on,30,0,10,,,,,,,,,6,,,,46,0
16504,note_on,0,0,10,,,,,,,,,6,,,,41,52
16505,note_on,5,0,6,,,,,,,,,5,,,,46,82
16530,note_on,0,0,7,,,,,,,,,10,,,,81,125
16530,note_on,30,0,7,,,,,,,,,10,,,,82,0
16532,note_on,30,0,8,,,,,,,,,11,,,,69,0
16532,note_on,0,0,8,,,,,,,,,11,,,,65,68
16532,note_on,30,0,9,,,,,,,,,12,,,,53,0
16532,note_on,0,0,9,,,,,,,,,12,,,,57,66
16534,note_on,0,0,10,,,,,,,,,6,,,,45,52
16534,note_on,30,0,10,,,,,,,,,6,,,,41,0
16555,note_on,25,0,7,,,,,,,,,10,,,,81,0
16557,note_on,25,0,9,,,,,,,,,12,,,,57,0
16557,note_on,25,0,8,,,,,,,,,11,,,,65,0
16558,note_on,55,0,5,,,,,,,,,4,,,,58,0
16559,note_on,25,0,10,,,,,,,,,6,,,,45,0
16560,note_on,5,0,7,,,,,,,,,10,,,,81,125
16560,set_tempo,120,1,0,,,,,,1034483,,,,,,,,
16560,note_on,55,0,6,,,,,,,,,5,,,,46,0
16562,note_on,5,0,8,,,,,,,,,11,,,,67,68
16562,note_on,5,0,9,,,,,,,,,12,,,,52,66
16564,note_on,5,0,10,,,,,,,,,6,,,,40,52
16565,note_on,600,0,11,,,,,,,,,13,,,,48,40
16565,control_change,3120,0,4,,,,,,,,,3,11,53,,,
16565,note_on,0,0,4,,,,,,,,,3,,,,60,82
16565,note_on,0,0,4,,,,,,,,,3,,,,58,82
16568,note_on,600,0,12,,,,,,,,,14,,,,36,34
16592,note_on,0,0,8,,,,,,,,,11,,,,64,68
16592,note_on,30,0,8,,,,,,,,,11,,,,67,0
16592,note_on,30,0,9,,,,,,,,,12,,,,52,0
16592,note_on,0,0,9,,,,,,,,,12,,,,55,66
16594,note_on,30,0,10,,,,,,,,,6,,,,40,0
16594,note_on,0,0,10,,,,,,,,,6,,,,43,52
16620,note_on,60,0,7,,,,,,,,,10,,,,81,0
16620,set_tempo,60,1,0,,,,,,937500,,,,,,,,
16620,note_on,0,0,7,,,,,,,,,10,,,,79,107
16622,note_on,0,0,8,,,,,,,,,11,,,,70,68
16622,note_on,30,0,9,,,,,,,,,12,,,,55,0
16622,note_on,0,0,9,,,,,,,,,12,,,,70,66
16622,note_on,30,0,8,,,,,,,,,11,,,,64,0
16624,note_on,0,0,10,,,,,,,,,6,,,,55,62
16624,note_on,30,0,10,,,,,,,,,6,,,,43,0
16652,note_on,30,0,8,,,,,,,,,11,,,,70,0
16652,note_on,0,0,8,,,,,,,,,11,,,,67,68
16652,note_on,0,0,9,,,,,,,,,12,,,,67,66
16652,note_on,30,0,9,,,,,,,,,12,,,,70,0
16654,note_on,0,0,10,,,,,,,,,6,,,,58,62
16654,note_on,30,0,10,,,,,,,,,6,,,,55,0
16682,note_on,0,0,9,,,,,,,,,12,,,,70,66
16682,note_on,30,0,9,,,,,,,,,12,,,,67,0
16682,note_on,30,0,8,,,,,,,,,11,,,,67,0
16682,note_on,0,0,8,,,,,,,,,11,,,,70,68
16684,note_on,0,0,10,,,,,,,,,6,,,,55,62
16684,note_on,30,0,10,,,,,,,,,6,,,,58,0
16685,note_on,120,0,11,,,,,,,,,13,,,,48,0
16688,note_on,120,0,12,,,,,,,,,14,,,,36,0
16712,note_on,30,0,8,,,,,,,,,11,,,,70,0
16712,note_on,0,0,8,,,,,,,,,11,,,,67,68
16712,note_on,0,0,9,,,,,,,,,12,,,,67,66
16712,note_on,30,0,9,,,,,,,,,12,,,,70,0
16714,note_on,30,0,10,,,,,,,,,6,,,,55,0
16714,note_on,0,0,10,,,,,,,,,6,,,,58,62
16740,set_tempo,120,1,0,,,,,,1034483,,,,,,,,
16742,note_on,0,0,8,,,,,,,,,11,,,,72,68
16742,note_on,30,0,8,,,,,,,,,11,,,,67,0
16742,note_on,30,0,9,,,,,,,,,12,,,,67,0
16742,note_on,0,0,9,,,,,,,,,12,,,,72,66
16744,note_on,30,0,10,,,,,,,,,6,,,,58,0
16744,note_on,0,0,10,,,,,,,,,6,,,,57,62
16772,note_on,0,0,8,,,,,,,,,11,,,,69,68
16772,note_on,30,0,8,,,,,,,,,11,,,,72,0
16772,note_on,0,0,9,,,,,,,,,12,,,,69,66
16772,note_on,30,0,9,,,,,,,,,12,,,,72,0
16774,note_on,30,0,10,,,,,,,,,6,,,,57,0
16774,note_on,0,0,10,,,,,,,,,6,,,,60,62
16800,set_tempo,60,1,0,,,,,,937500,,,,,,,,
16800,control_change,180,0,7,,,,,,,,,10,11,47,,,
16802,note_on,0,0,9,,,,,,,,,12,,,,70,66
16802,note_on,0,0,8,,,,,,,,,11,,,,70,68
16802,note_on,30,0,9,,,,,,,,,12,,,,69,0
16802,note_on,30,0,8,,,,,,,,,11,,,,69,0
16804,note_on,0,0,10,,,,,,,,,6,,,,55,62
16804,note_on,30,0,10,,,,,,,,,6,,,,60,0
16811,control_change,11,0,7,,,,,,,,,10,11,44,,,
16823,control_change,12,0,7,,,,,,,,,10,11,41,,,
16832,note_on,0,0,8,,,,,,,,,11,,,,67,68
16832,note_on,30,0,8,,,,,,,,,11,,,,70,0
16832,note_on,0,0,9,,,,,,,,,12,,,,67,66
16832,note_on,30,0,9,,,,,,,,,12,,,,70,0
16834,note_on,0,0,10,,,,,,,,,6,,,,58,62
16834,note_on,30,0,10,,,,,,,,,6,,,,55,0
16835,control_change,12,0,7,,,,,,,,,10,11,38,,,
16847,control_change,12,0,7,,,,,,,,,10,11,35,,,
16858,note_on,0,0,4,,,,,,,,,3,,,,58,0
16858,note_on,293,0,4,,,,,,,,,3,,,,60,0
16859,control_change,12,0,7,,,,,,,,,10,11,32,,,
16860,note_on,1,0,7,,,,,,,,,10,,,,79,0
16862,note_on,30,0,9,,,,,,,,,12,,,,67,0
16862,note_on,0,0,9,,,,,,,,,12,,,,70,66
16862,note_on,30,0,8,,,,,,,,,11,,,,67,0
16862,note_on,0,0,8,,,,,,,,,11,,,,70,68
16864,note_on,30,0,10,,,,,,,,,6,,,,58,0
16864,note_on,0,0,10,,,,,,,,,6,,,,55,62
16865,note_on,0,0,4,,,,,,,,,3,,,,58,82
16865,note_on,7,0,4,,,,,,,,,3,,,,60,82
16892,note_on,30,0,8,,,,,,,,,11,,,,70,0
16892,note_on,0,0,9,,,,,,,,,12,,,,67,66
16892,note_on,30,0,9,,,,,,,,,12,,,,70,0
16892,note_on,0,0,8,,,,,,,,,11,,,,67,68
16894,note_on,30,0,10,,,,,,,,,6,,,,55,0
16894,note_on,0,0,10,,,,,,,,,6,,,,58,62
16920,set_tempo,120,1,0,,,,,,1034483,,,,,,,,
16922,note_on,30,0,8,,,,,,,,,11,,,,67,0
16922,note_on,30,0,9,,,,,,,,,12,,,,67,0
16922,note_on,0,0,9,,,,,,,,,12,,,,69,66
16922,note_on,0,0,8,,,,,,,,,11,,,,69,68
16924,note_on,30,0,10,,,,,,,,,6,,,,58,0
16924,note_on,0,0,10,,,,,,,,,6,,,,53,62
16952,note_on,30,0,8,,,,,,,,,11,,,,69,0
16952,note_on,30,0,9,,,,,,,,,12,,,,69,0
16952,note_on,0,0,9,,,,,,,,,12,,,,65,66
16952,note_on,0,0,8,,,,,,,,,11,,,,65,68
16954,note_on,30,0,10,,,,,,,,,6,,,,53,0
16954,note_on,0,0,10,,,,,,,,,6,,,,57,62
16980,set_tempo,60,1,0,,,,,,937500,,,,,,,,
16982,note_on,0,0,8,,,,,,,,,11,,,,67,68
16982,note_on,0,0,9,,,,,,,,,12,,,,67,66
16982,note_on,30,0,9,,,,,,,,,12,,,,65,0
16982,note_on,30,0,8,,,,,,,,,11,,,,65,0
16984,note_on,0,0,10,,,,,,,,,6,,,,52,62
16984,note_on,30,0,10,,,,,,,,,6,,,,57,0
17012,note_on,0,0,9,,,,,,,,,12,,,,64,66
17012,note_on,30,0,9,,,,,,,,,12,,,,67,0
17012,note_on,0,0,8,,,,,,,,,11,,,,64,68
17012,note_on,30,0,8,,,,,,,,,11,,,,67,0
17014,note_on,0,0,10,,,,,,,,,6,,,,55,62
17014,note_on,30,0,10,,,,,,,,,6,,,,52,0
17038,note_on,0,0,4,,,,,,,,,3,,,,60,0
17038,note_on,173,0,4,,,,,,,,,3,,,,58,0
17042,note_on,30,0,8,,,,,,,,,11,,,,64,0
17042,note_on,0,0,9,,,,,,,,,12,,,,67,66
17042,note_on,30,0,9,,,,,,,,,12,,,,64,0
17042,note_on,0,0,8,,,,,,,,,11,,,,67,68
17044,note_on,0,0,10,,,,,,,,,6,,,,52,62
17044,note_on,30,0,10,,,,,,,,,6,,,,55,0
17045,note_on,0,0,4,,,,,,,,,3,,,,60,82
17045,note_on,7,0,4,,,,,,,,,3,,,,58,82
17072,note_on,30,0,8,,,,,,,,,11,,,,67,0
17072,note_on,30,0,9,,,,,,,,,12,,,,67,0
17072,note_on,0,0,9,,,,,,,,,12,,,,64,66
17072,note_on,0,0,8,,,,,,,,,11,,,,64,68
17074,note_on,30,0,10,,,,,,,,,6,,,,52,0
17074,note_on,0,0,10,,,,,,,,,6,,,,55,62
17100,set_tempo,120,1,0,,,,,,1034483,,,,,,,,
17102,note_on,30,0,8,,,,,,,,,11,,,,64,0
17102,note_on,0,0,9,,,,,,,,,12,,,,65,66
17102,note_on,30,0,9,,,,,,,,,12,,,,64,0
17102,note_on,0,0,8,,,,,,,,,11,,,,65,68
17104,note_on,0,0,10,,,,,,,,,6,,,,50,62
17104,note_on,30,0,10,,,,,,,,,6,,,,55,0
17132,note_on,0,0,8,,,,,,,,,11,,,,62,68
17132,note_on,30,0,8,,,,,,,,,11,,,,65,0
17132,note_on,0,0,9,,,,,,,,,12,,,,62,66
17132,note_on,30,0,9,,,,,,,,,12,,,,65,0
17134,note_on,30,0,10,,,,,,,,,6,,,,50,0
17134,note_on,0,0,10,,,,,,,,,6,,,,53,62
17160,control_change,300,0,7,,,,,,,,,10,11,47,,,
17160,set_tempo,60,1,0,,,,,,937500,,,,,,,,
17160,note_on,0,0,7,,,,,,,,,10,,,,79,102
17162,note_on,0,0,9,,,,,,,,,12,,,,64,66
17162,note_on,30,0,9,,,,,,,,,12,,,,62,0
17162,note_on,30,0,8,,,,,,,,,11,,,,62,0
17162,note_on,0,0,8,,,,,,,,,11,,,,64,68
17164,note_on,0,0,10,,,,,,,,,6,,,,48,62
17164,note_on,30,0,10,,,,,,,,,6,,,,53,0
17190,note_on,0,0,7,,,,,,,,,10,,,,81,125
17190,note_on,30,0,7,,,,,,,,,10,,,,79,0
17192,note_on,30,0,9,,,,,,,,,12,,,,64,0
17192,note_on,0,0,9,,,,,,,,,12,,,,60,66
17192,note_on,0,0,8,,,,,,,,,11,,,,60,68
17192,note_on,30,0,8,,,,,,,,,11,,,,64,0
17194,note_on,30,0,10,,,,,,,,,6,,,,48,0
17194,note_on,0,0,10,,,,,,,,,6,,,,52,62
17218,note_on,173,0,4,,,,,,,,,3,,,,60,0
17218,note_on,0,0,4,,,,,,,,,3,,,,58,0
17220,note_on,0,0,7,,,,,,,,,10,,,,82,125
17220,note_on,30,0,7,,,,,,,,,10,,,,81,0
17222,note_on,30,0,8,,,,,,,,,11,,,,60,0
17222,note_on,0,0,8,,,,,,,,,11,,,,64,68
17222,note_on,30,0,9,,,,,,,,,12,,,,60,0
17222,note_on,0,0,9,,,,,,,,,12,,,,64,66
17224,note_on,30,0,10,,,,,,,,,6,,,,52,0
17224,note_on,0,0,10,,,,,,,,,6,,,,48,62
17225,note_on,0,0,4,,,,,,,,,3,,,,58,82
17225,note_on,7,0,4,,,,,,,,,3,,,,60,82
17250,note_on,0,0,7,,,,,,,,,10,,,,81,125
17250,note_on,30,0,7,,,,,,,,,10,,,,82,0
17252,note_on,0,0,9,,,,,,,,,12,,,,60,66
17252,note_on,30,0,8,,,,,,,,,11,,,,64,0
17252,note_on,0,0,8,,,,,,,,,11,,,,60,68
17252,note_on,30,0,9,,,,,,,,,12,,,,64,0
17254,note_on,30,0,10,,,,,,,,,6,,,,48,0
17254,note_on,0,0,10,,,,,,,,,6,,,,52,62
17275,note_on,25,0,7,,,,,,,,,10,,,,81,0
17277,note_on,25,0,9,,,,,,,,,12,,,,60,0
17277,note_on,25,0,8,,,,,,,,,11,,,,60,0
17278,note_on,0,0,4,,,,,,,,,3,,,,60,0
17278,note_on,53,0,4,,,,,,,,,3,,,,58,0
17279,note_on,25,0,10,,,,,,,,,6,,,,52,0
17280,set_tempo,120,1,0,,,,,,1034483,,,,,,,,
17280,note_on,5,0,7,,,,,,,,,10,,,,81,125
17282,note_on,5,0,8,,,,,,,,,11,,,,64,68
17282,note_on,5,0,9,,,,,,,,,12,,,,64,66
17284,note_on,5,0,10,,,,,,,,,6,,,,48,62
17285,note_on,0,0,4,,,,,,,,,3,,,,60,82
17285,note_on,7,0,4,,,,,,,,,3,,,,58,82
17285,note_on,600,0,11,,,,,,,,,13,,,,48,40
17288,note_on,600,0,12,,,,,,,,,14,,,,36,34
17312,note_on,30,0,9,,,,,,,,,12,,,,64,0
17312,note_on,0,0,8,,,,,,,,,11,,,,60,68
17312,note_on,0,0,9,,,,,,,,,12,,,,60,66
17312,note_on,30,0,8,,,,,,,,,11,,,,64,0
17314,note_on,30,0,10,,,,,,,,,6,,,,48,0
17314,note_on,0,0,10,,,,,,,,,6,,,,52,62
17340,note_on,60,0,7,,,,,,,,,10,,,,81,0
17340,set_tempo,60,1,0,,,,,,937500,,,,,,,,
17340,note_on,0,0,7,,,,,,,,,10,,,,79,107
17342,note_on,30,0,9,,,,,,,,,12,,,,60,0
17342,note_on,30,0,8,,,,,,,,,11,,,,60,0
17342,note_on,0,0,8,,,,,,,,,11,,,,70,68
17342,note_on,0,0,9,,,,,,,,,12,,,,70,66
17344,note_on,30,0,10,,,,,,,,,6,,,,52,0
17344,note_on,0,0,10,,,,,,,,,6,,,,55,62
17372,note_on,30,0,8,,,,,,,,,11,,,,70,0
17372,note_on,0,0,8,,,,,,,,,11,,,,67,68
17372,note_on,0,0,9,,,,,,,,,12,,,,67,66
17372,note_on,30,0,9,,,,,,,,,12,,,,70,0
17374,note_on,30,0,10,,,,,,,,,6,,,,55,0
17374,note_on,0,0,10,,,,,,,,,6,,,,58,62
17402,note_on,30,0,9,,,,,,,,,12,,,,67,0
17402,note_on,0,0,8,,,,,,,,,11,,,,70,68
17402,note_on,30,0,8,,,,,,,,,11,,,,67,0
17402,note_on,0,0,9,,,,,,,,,12,,,,70,66
17404,note_on,30,0,10,,,,,,,,,6,,,,58,0
17404,note_on,0,0,10,,,,,,,,,6,,,,55,62
17405,note_on,120,0,11,,,,,,,,,13,,,,48,0
17408,note_on,120,0,12,,,,,,,,,14,,,,36,0
17432,note_on,30,0,8,,,,,,,,,11,,,,70,0
17432,note_on,0,0,8,,,,,,,,,11,,,,67,68
17432,note_on,30,0,9,,,,,,,,,12,,,,70,0
17432,note_on,0,0,9,,,,,,,,,12,,,,67,66
17434,note_on,0,0,10,,,,,,,,,6,,,,58,62
17434,note_on,30,0,10,,,,,,,,,6,,,,55,0
17460,set_tempo,120,1,0,,,,,,1034483,,,,,,,,
17462,note_on,0,0,9,,,,,,,,,12,,,,72,66
17462,note_on,30,0,9,,,,,,,,,12,,,,67,0
17462,note_on,0,0,8,,,,,,,,,11,,,,72,68
17462,note_on,30,0,8,,,,,,,,,11,,,,67,0
17464,note_on,30,0,10,,,,,,,,,6,,,,58,0
17464,note_on,0,0,10,,,,,,,,,6,,,,57,62
17492,note_on,0,0,9,,,,,,,,,12,,,,69,66
17492,note_on,30,0,9,,,,,,,,,12,,,,72,0
17492,note_on,0,0,8,,,,,,,,,11,,,,69,68
17492,note_on,30,0,8,,,,,,,,,11,,,,72,0
17494,note_on,0,0,10,,,,,,,,,6,,,,60,62
17494,note_on,30,0,10,,,,,,,,,6,,,,57,0
17520,set_tempo,60,1,0,,,,,,937500,,,,,,,,
17520,control_change,180,0,7,,,,,,,,,10,11,47,,,
17522,note_on,30,0,8,,,,,,,,,11,,,,69,0
17522,note_on,0,0,8,,,,,,,,,11,,,,70,68
17522,note_on,0,0,9,,,,,,,,,12,,,,70,66
17522,note_on,30,0,9,,,,,,,,,12,,,,69,0
17524,note_on,0,0,10,,,,,,,,,6,,,,55,62
17524,note_on,30,0,10,,,,,,,,,6,,,,60,0
17531,control_change,11,0,7,,,,,,,,,10,11,44,,,
17543,control_change,12,0,7,,,,,,,,,10,11,41,,,
17552,note_on,0,0,8,,,,,,,,,11,,,,67,68
17552,note_on,30,0,8,,,,,,,,,11,,,,70,0
17552,note_on,0,0,9,,,,,,,,,12,,,,67,66
17552,note_on,30,0,9,,,,,,,,,12,,,,70,0
17554,note_on,30,0,10,,,,,,,,,6,,,,55,0
17554,note_on,0,0,10,,,,,,,,,6,,,,58,62
17555,control_change,12,0,7,,,,,,,,,10,11,38,,,
17567,control_change,12,0,7,,,,,,,,,10,11,35,,,
17578,note_on,293,0,4,,,,,,,,,3,,,,60,0
17578,note_on,0,0,4,,,,,,,,,3,,,,58,0
17579,control_change,12,0,7,,,,,,,,,10,11,32,,,
17580,note_on,1,0,7,,,,,,,,,10,,,,79,0
17582,note_on,30,0,9,,,,,,,,,12,,,,67,0
17582,note_on,0,0,9,,,,,,,,,12,,,,69,66
17582,note_on,30,0,8,,,,,,,,,11,,,,67,0
17582,note_on,0,0,8,,,,,,,,,11,,,,69,68
17584,note_on,30,0,10,,,,,,,,,6,,,,58,0
17584,note_on,0,0,10,,,,,,,,,6,,,,53,62
17585,note_on,0,0,4,,,,,,,,,3,,,,58,82
17585,note_on,7,0,4,,,,,,,,,3,,,,60,82
17612,note_on,0,0,8,,,,,,,,,11,,,,65,68
17612,note_on,0,0,9,,,,,,,,,12,,,,65,66
17612,note_on,30,0,9,,,,,,,,,12,,,,69,0
17612,note_on,30,0,8,,,,,,,,,11,,,,69,0
17614,note_on,0,0,10,,,,,,,,,6,,,,57,62
17614,note_on,30,0,10,,,,,,,,,6,,,,53,0
17640,set_tempo,120,1,0,,,,,,1034483,,,,,,,,
17642,note_on,0,0,9,,,,,,,,,12,,,,67,66
17642,note_on,0,0,8,,,,,,,,,11,,,,67,68
17642,note_on,30,0,9,,,,,,,,,12,,,,65,0
17642,note_on,30,0,8,,,,,,,,,11,,,,65,0
17644,note_on,0,0,10,,,,,,,,,6,,,,52,62
17644,note_on,30,0,10,,,,,,,,,6,,,,57,0
17672,note_on,0,0,9,,,,,,,,,12,,,,64,66
17672,note_on,30,0,9,,,,,,,,,12,,,,67,0
17672,note_on,0,0,8,,,,,,,,,11,,,,64,68
17672,note_on,30,0,8,,,,,,,,,11,,,,67,0
17674,note_on,0,0,10,,,,,,,,,6,,,,55,62
17674,note_on,30,0,10,,,,,,,,,6,,,,52,0
17700,set_tempo,60,1,0,,,,,,937500,,,,,,,,
17702,note_on,0,0,8,,,,,,,,,11,,,,65,68
17702,note_on,30,0,8,,,,,,,,,11,,,,64,0
17702,note_on,0,0,9,,,,,,,,,12,,,,65,66
17702,note_on,30,0,9,,,,,,,,,12,,,,64,0
17704,note_on,0,0,10,,,,,,,,,6,,,,50,62
17704,note_on,30,0,10,,,,,,,,,6,,,,55,0
17732,note_on,0,0,8,,,,,,,,,11,,,,62,68
17732,note_on,30,0,8,,,,,,,,,11,,,,65,0
17732,note_on,0,0,9,,,,,,,,,12,,,,62,66
17732,note_on,30,0,9,,,,,,,,,12,,,,65,0
17734,note_on,30,0,10,,,,,,,,,6,,,,50,0
17734,note_on,0,0,10,,,,,,,,,6,,,,53,62
17758,note_on,173,0,4,,,,,,,,,3,,,,58,0
17758,note_on,0,0,4,,,,,,,,,3,,,,60,0
17762,note_on,30,0,8,,,,,,,,,11,,,,62,0
17762,note_on,0,0,8,,,,,,,,,11,,,,64,68
17762,note_on,0,0,9,,,,,,,,,12,,,,64,66
17762,note_on,30,0,9,,,,,,,,,12,,,,62,0
17764,note_on,0,0,10,,,,,,,,,6,,,,48,62
17764,note_on,30,0,10,,,,,,,,,6,,,,53,0
17765,note_on,0,0,4,,,,,,,,,3,,,,60,82
17765,note_on,7,0,4,,,,,,,,,3,,,,58,82
17792,note_on,30,0,9,,,,,,,,,12,,,,64,0
17792,note_on,0,0,9,,,,,,,,,12,,,,60,66
17792,note_on,0,0,8,,,,,,,,,11,,,,60,68
17792,note_on,30,0,8,,,,,,,,,11,,,,64,0
17794,note_on,0,0,10,,,,,,,,,6,,,,52,62
17794,note_on,30,0,10,,,,,,,,,6,,,,48,0
17820,set_tempo,120,1,0,,,,,,1034483,,,,,,,,
17822,note_on,0,0,8,,,,,,,,,11,,,,62,68
17822,note_on,30,0,8,,,,,,,,,11,,,,60,0
17822,note_on,0,0,9,,,,,,,,,12,,,,62,66
17822,note_on,30,0,9,,,,,,,,,12,,,,60,0
17824,note_on,30,0,10,,,,,,,,,6,,,,52,0
17824,note_on,0,0,10,,,,,,,,,6,,,,46,62
17852,note_on,0,0,8,,,,,,,,,11,,,,58,68
17852,note_on,30,0,8,,,,,,,,,11,,,,62,0
17852,note_on,30,0,9,,,,,,,,,12,,,,62,0
17852,note_on,0,0,9,,,,,,,,,12,,,,58,66
17854,note_on,30,0,10,,,,,,,,,6,,,,46,0
17854,note_on,0,0,10,,,,,,,,,6,,,,50,62
17880,set_tempo,60,1,0,,,,,,937500,,,,,,,,
17880,note_on,0,0,7,,,,,,,,,10,,,,79,102
17880,control_change,300,0,7,,,,,,,,,10,11,47,,,
17882,note_on,0,0,8,,,,,,,,,11,,,,60,68
17882,note_on,30,0,8,,,,,,,,,11,,,,58,0
17882,note_on,30,0,9,,,,,,,,,12,,,,58,0
17882,note_on,0,0,9,,,,,,,,,12,,,,60,66
17884,note_on,30,0,10,,,,,,,,,6,,,,50,0
17884,note_on,0,0,10,,,,,,,,,6,,,,45,62
17912,note_on,30,0,8,,,,,,,,,11,,,,60,0
17912,note_on,0,0,9,,,,,,,,,12,,,,57,66
17912,note_on,30,0,9,,,,,,,,,12,,,,60,0
17912,note_on,0,0,8,,,,,,,,,11,,,,57,68
17914,note_on,30,0,10,,,,,,,,,6,,,,45,0
17914,note_on,0,0,10,,,,,,,,,6,,,,48,62
17938,note_on,0,0,4,,,,,,,,,3,,,,58,0
17938,note_on,173,0,4,,,,,,,,,3,,,,60,0
17940,note_on,60,0,7,,,,,,,,,10,,,,79,0
17940,note_on,0,0,7,,,,,,,,,10,,,,81,125
17942,note_on,0,0,9,,,,,,,,,12,,,,58,66
17942,note_on,30,0,9,,,,,,,,,12,,,,57,0
17942,note_on,0,0,8,,,,,,,,,11,,,,58,68
17942,note_on,30,0,8,,,,,,,,,11,,,,57,0
17944,note_on,30,0,10,,,,,,,,,6,,,,48,0
17944,note_on,0,0,10,,,,,,,,,6,,,,43,62
17945,note_on,0,0,4,,,,,,,,,3,,,,60,82
17945,note_on,7,0,4,,,,,,,,,3,,,,58,82
17970,note_on,0,0,7,,,,,,,,,10,,,,82,125
17970,note_on,30,0,7,,,,,,,,,10,,,,81,0
17972,note_on,0,0,9,,,,,,,,,12,,,,55,66
17972,note_on,30,0,8,,,,,,,,,11,,,,58,0
17972,note_on,30,0,9,,,,,,,,,12,,,,58,0
17972,note_on,0,0,8,,,,,,,,,11,,,,55,68
17974,note_on,30,0,10,,,,,,,,,6,,,,43,0
17974,note_on,0,0,10,,,,,,,,,6,,,,46,62
17995,note_on,25,0,7,,,,,,,,,10,,,,82,0
17997,note_on,25,0,8,,,,,,,,,11,,,,55,0
17997,note_on,25,0,9,,,,,,,,,12,,,,55,0
17998,note_on,53,0,4,,,,,,,,,3,,,,60,0
17998,note_on,0,0,4,,,,,,,,,3,,,,58,0
17999,note_on,25,0,10,,,,,,,,,6,,,,46,0
18000,set_tempo,120,1,0,,,,,,1034483,,,,,,,,
18000,note_on,5,0,7,,,,,,,,,10,,,,84,125
18000,note_on,2880,0,1,,,,,,,,,0,,,,77,74
18000,control_change,0,0,1,,,,,,,,,0,11,53,,,
18002,note_on,5,0,9,,,,,,,,,12,,,,53,66
18002,note_on,5,0,8,,,,,,,,,11,,,,57,68
18003,note_on,0,0,3,,,,,,,,,2,,,,65,63
18003,note_on,3120,0,3,,,,,,,,,2,,,,69,63
18003,control_change,0,0,3,,,,,,,,,2,11,53,,,
18004,note_on,5,0,10,,,,,,,,,6,,,,41,62
18005,note_on,7,0,4,,,,,,,,,3,,,,60,82
18005,note_on,0,0,4,,,,,,,,,3,,,,57,82
18005,note_on,600,0,11,,,,,,,,,13,,,,41,40
18008,note_on,600,0,12,,,,,,,,,14,,,,29,34
18032,note_on,0,0,8,,,,,,,,,11,,,,69,68
18032,note_on,0,0,9,,,,,,,,,12,,,,69,66
18032,note_on,30,0,9,,,,,,,,,12,,,,53,0
18032,note_on,30,0,8,,,,,,,,,11,,,,57,0
18034,note_on,0,0,10,,,,,,,,,6,,,,60,62
18034,note_on,30,0,10,,,,,,,,,6,,,,41,0
18060,control_change,60,0,7,,,,,,,,,10,11,47,,,
18060,set_tempo,60,1,0,,,,,,937500,,,,,,,,
18062,note_on,0,0,9,,,,,,,,,12,,,,72,66
18062,note_on,30,0,8,,,,,,,,,11,,,,69,0
18062,note_on,30,0,9,,,,,,,,,12,,,,69,0
18062,note_on,0,0,8,,,,,,,,,11,,,,72,68
18064,note_on,30,0,10,,,,,,,,,6,,,,60,0
18064,note_on,0,0,10,,,,,,,,,6,,,,57,62
18071,control_change,11,0,7,,,,,,,,,10,11,44,,,
18083,control_change,12,0,7,,,,,,,,,10,11,41,,,
18092,note_on,0,0,8,,,,,,,,,11,,,,69,68
18092,note_on,30,0,9,,,,,,,,,12,,,,72,0
18092,note_on,30,0,8,,,,,,,,,11,,,,72,0
18092,note_on,0,0,9,,,,,,,,,12,,,,69,66
18094,note_on,0,0,10,,,,,,,,,6,,,,60,62
18094,note_on,30,0,10,,,,,,,,,6,,,,57,0
18095,control_change,12,0,7,,,,,,,,,10,11,38,,,
18107,control_change,12,0,7,,,,,,,,,10,11,35,,,
18118,note_on,0,0,4,,,,,,,,,3,,,,60,0
18118,note_on,113,0,4,,,,,,,,,3,,,,57,0
18119,control_change,12,0,7,,,,,,,,,10,11,32,,,
18120,note_on,1,0,7,,,,,,,,,10,,,,84,0
18122,note_on,30,0,8,,,,,,,,,11,,,,69,0
18122,note_on,0,0,9,,,,,,,,,12,,,,72,66
18122,note_on,0,0,8,,,,,,,,,11,,,,72,68
18122,note_on,30,0,9,,,,,,,,,12,,,,69,0
18124,note_on,30,0,10,,,,,,,,,6,,,,60,0
18124,note_on,0,0,10,,,,,,,,,6,,,,57,62
18125,note_on,120,0,11,,,,,,,,,13,,,,41,0
18128,note_on,120,0,12,,,,,,,,,14,,,,29,0
18152,note_on,30,0,9,,,,,,,,,12,,,,72,0
18152,note_on,30,0,8,,,,,,,,,11,,,,72,0
18152,note_on,0,0,8,,,,,,,,,11,,,,69,68
18152,note_on,0,0,9,,,,,,,,,12,,,,69,66
18154,note_on,30,0,10,,,,,,,,,6,,,,57,0
18154,note_on,0,0,10,,,,,,,,,6,,,,60,62
18180,set_tempo,120,1,0,,,,,,1034483,,,,,,,,
18182,note_on,0,0,9,,,,,,,,,12,,,,74,66
18182,note_on,30,0,9,,,,,,,,,12,,,,69,0
18182,note_on,30,0,8,,,,,,,,,11,,,,69,0
18182,note_on,0,0,8,,,,,,,,,11,,,,74,68
18184,note_on,30,0,10,,,,,,,,,6,,,,60,0
18184,note_on,0,0,10,,,,,,,,,6,,,,58,62
18212,note_on,30,0,8,,,,,,,,,11,,,,74,0
18212,note_on,0,0,8,,,,,,,,,11,,,,70,68
18212,note_on,30,0,9,,,,,,,,,12,,,,74,0
18212,note_on,0,0,9,,,,,,,,,12,,,,70,66
18214,note_on,0,0,10,,,,,,,,,6,,,,62,62
18214,note_on,30,0,10,,,,,,,,,6,,,,58,0
18240,set_tempo,60,1,0,,,,,,937500,,,,,,,,
18242,note_on,0,0,8,,,,,,,,,11,,,,72,68
18242,note_on,30,0,9,,,,,,,,,12,,,,70,0
18242,note_on,0,0,9,,,,,,,,,12,,,,72,66
18242,note_on,30,0,8,,,,,,,,,11,,,,70,0
18244,note_on,30,0,10,,,,,,,,,6,,,,62,0
18244,note_on,0,0,10,,,,,,,,,6,,,,57,62
18272,note_on,30,0,8,,,,,,,,,11,,,,72,0
18272,note_on,0,0,8,,,,,,,,,11,,,,69,68
18272,note_on,30,0,9,,,,,,,,,12,,,,72,0
18272,note_on,0,0,9,,,,,,,,,12,,,,69,66
18274,note_on,0,0,10,,,,,,,,,6,,,,60,62
18274,note_on,30,0,10,,,,,,,,,6,,,,57,0
18293,note_on,293,0,1,,,,,,,,,0,,,,77,0
18296,note_on,293,0,3,,,,,,,,,2,,,,65,0
18296,note_on,0,0,3,,,,,,,,,2,,,,69,0
18300,note_on,7,0,1,,,,,,,,,0,,,,77,74
18302,note_on,30,0,9,,,,,,,,,12,,,,69,0
18302,note_on,0,0,8,,,,,,,,,11,,,,72,68
18302,note_on,30,0,8,,,,,,,,,11,,,,69,0
18302,note_on,0,0,9,,,,,,,,,12,,,,72,66
18303,note_on,7,0,3,,,,,,,,,2,,,,69,63
18303,note_on,0,0,3,,,,,,,,,2,,,,65,63
18304,note_on,0,0,10,,,,,,,,,6,,,,57,62
18304,note_on,30,0,10,,,,,,,,,6,,,,60,0
18332,note_on,0,0,9,,,,,,,,,12,,,,69,66
18332,note_on,30,0,9,,,,,,,,,12,,,,72,0
18332,note_on,0,0,8,,,,,,,,,11,,,,69,68
18332,note_on,30,0,8,,,,,,,,,11,,,,72,0
18334,note_on,30,0,10,,,,,,,,,6,,,,57,0
18334,note_on,0,0,10,,,,,,,,,6,,,,60,62
18360,set_tempo,120,1,0,,,,,,1034483,,,,,,,,
18362,note_on,30,0,9,,,,,,,,,12,,,,69,0
18362,note_on,0,0,8,,,,,,,,,11,,,,70,68
18362,note_on,30,0,8,,,,,,,,,11,,,,69,0
18362,note_on,0,0,9,,,,,,,,,12,,,,70,66
18364,note_on,30,0,10,,,,,,,,,6,,,,60,0
18364,note_on,0,0,10,,,,,,,,,6,,,,55,62
18365,note_on,247,0,4,,,,,,,,,3,,,,41,82
18392,note_on,30,0,9,,,,,,,,,12,,,,70,0
18392,note_on,0,0,9,,,,,,,,,12,,,,67,66
18392,note_on,0,0,8,,,,,,,,,11,,,,67,68
18392,note_on,30,0,8,,,,,,,,,11,,,,70,0
18394,note_on,30,0,10,,,,,,,,,6,,,,55,0
18394,note_on,0,0,10,,,,,,,,,6,,,,58,62
18420,set_tempo,60,1,0,,,,,,937500,,,,,,,,
18422,note_on,30,0,8,,,,,,,,,11,,,,67,0
18422,note_on,0,0,8,,,,,,,,,11,,,,69,68
18422,note_on,30,0,9,,,,,,,,,12,,,,67,0
18422,note_on,0,0,9,,,,,,,,,12,,,,69,66
18424,note_on,30,0,10,,,,,,,,,6,,,,58,0
18424,note_on,0,0,10,,,,,,,,,6,,,,53,62
18452,note_on,30,0,8,,,,,,,,,11,,,,69,0
18452,note_on,0,0,8,,,,,,,,,11,,,,65,68
18452,note_on,30,0,9,,,,,,,,,12,,,,69,0
18452,note_on,0,0,9,,,,,,,,,12,,,,65,66
18454,note_on,30,0,10,,,,,,,,,6,,,,53,0
18454,note_on,0,0,10,,,,,,,,,6,,,,57,62
18473,note_on,173,0,1,,,,,,,,,0,,,,77,0
18476,note_on,0,0,3,,,,,,,,,2,,,,69,0
18476,note_on,173,0,3,,,,,,,,,2,,,,65,0
18480,note_on,7,0,1,,,,,,,,,0,,,,77,74
18482,note_on,30,0,8,,,,,,,,,11,,,,65,0
18482,note_on,0,0,9,,,,,,,,,12,,,,69,66
18482,note_on,30,0,9,,,,,,,,,12,,,,65,0
18482,note_on,0,0,8,,,,,,,,,11,,,,69,68
18483,note_on,7,0,3,,,,,,,,,2,,,,69,63
18483,note_on,0,0,3,,,,,,,,,2,,,,65,63
18484,note_on,30,0,10,,,,,,,,,6,,,,57,0
18484,note_on,0,0,10,,,,,,,,,6,,,,53,62
18512,note_on,30,0,8,,,,,,,,,11,,,,69,0
18512,note_on,30,0,9,,,,,,,,,12,,,,69,0
18512,note_on,0,0,8,,,,,,,,,11,,,,65,68
18512,note_on,0,0,9,,,,,,,,,12,,,,65,66
18514,note_on,30,0,10,,,,,,,,,6,,,,53,0
18514,note_on,0,0,10,,,,,,,,,6,,,,57,62
18540,set_tempo,120,1,0,,,,,,1034483,,,,,,,,
18542,note_on,30,0,9,,,,,,,,,12,,,,65,0
18542,note_on,30,0,8,,,,,,,,,11,,,,65,0
18542,note_on,0,0,8,,,,,,,,,11,,,,67,68
18542,note_on,0,0,9,,,,,,,,,12,,,,67,66
18544,note_on,30,0,10,,,,,,,,,6,,,,57,0
18544,note_on,0,0,10,,,,,,,,,6,,,,52,62
18572,note_on,30,0,9,,,,,,,,,12,,,,67,0
18572,note_on,0,0,9,,,,,,,,,12,,,,64,66
18572,note_on,0,0,8,,,,,,,,,11,,,,64,68
18572,note_on,30,0,8,,,,,,,,,11,,,,67,0
18574,note_on,30,0,10,,,,,,,,,6,,,,52,0
18574,note_on,0,0,10,,,,,,,,,6,,,,55,62
18600,note_on,0,0,7,,,,,,,,,10,,,,72,111
18600,set_tempo,60,1,0,,,,,,937500,,,,,,,,
18600,control_change,480,0,7,,,,,,,,,10,11,47,,,
18602,note_on,30,0,9,,,,,,,,,12,,,,64,0
18602,note_on,0,0,9,,,,,,,,,12,,,,65,66
18602,note_on,0,0,8,,,,,,,,,11,,,,65,68
18602,note_on,30,0,8,,,,,,,,,11,,,,64,0
18604,note_on,0,0,10,,,,,,,,,6,,,,50,62
18604,note_on,30,0,10,,,,,,,,,6,,,,55,0
18632,note_on,30,0,8,,,,,,,,,11,,,,65,0
18632,note_on,0,0,8,,,,,,,,,11,,,,62,68
18632,note_on,0,0,9,,,,,,,,,12,,,,62,66
18632,note_on,30,0,9,,,,,,,,,12,,,,65,0
18634,note_on,0,0,10,,,,,,,,,6,,,,53,62
18634,note_on,30,0,10,,,,,,,,,6,,,,50,0
18653,note_on,173,0,1,,,,,,,,,0,,,,77,0
18656,note_on,173,0,3,,,,,,,,,2,,,,65,0
18656,note_on,0,0,3,,,,,,,,,2,,,,69,0
18660,note_on,0,0,7,,,,,,,,,10,,,,74,111
18660,note_on,7,0,1,,,,,,,,,0,,,,77,74
18660,note_on,60,0,7,,,,,,,,,10,,,,72,0
18662,note_on,30,0,9,,,,,,,,,12,,,,62,0
18662,note_on,0,0,9,,,,,,,,,12,,,,64,66
18662,note_on,30,0,8,,,,,,,,,11,,,,62,0
18662,note_on,0,0,8,,,,,,,,,11,,,,64,68
18663,note_on,7,0,3,,,,,,,,,2,,,,65,63
18663,note_on,0,0,3,,,,,,,,,2,,,,69,63
18664,note_on,0,0,10,,,,,,,,,6,,,,48,62
18664,note_on,30,0,10,,,,,,,,,6,,,,53,0
18690,note_on,0,0,7,,,,,,,,,10,,,,76,111
18690,note_on,30,0,7,,,,,,,,,10,,,,74,0
18692,note_on,30,0,8,,,,,,,,,11,,,,64,0
18692,note_on,30,0,9,,,,,,,,,12,,,,64,0
18692,note_on,0,0,9,,,,,,,,,12,,,,60,66
18692,note_on,0,0,8,,,,,,,,,11,,,,60,68
18694,note_on,30,0,10,,,,,,,,,6,,,,48,0
18694,note_on,0,0,10,,,,,,,,,6,,,,52,62
18713,note_on,53,0,1,,,,,,,,,0,,,,77,0
18715,note_on,25,0,7,,,,,,,,,10,,,,76,0
18716,note_on,53,0,3,,,,,,,,,2,,,,69,0
18716,note_on,0,0,3,,,,,,,,,2,,,,65,0
18717,note_on,25,0,9,,,,,,,,,12,,,,60,0
18717,note_on,25,0,8,,,,,,,,,11,,,,60,0
18719,note_on,25,0,10,,,,,,,,,6,,,,52,0
18720,note_on,0,0,1,,,,,,,,,0,,,,83,74
18720,note_on,7,0,1,,,,,,,,,0,,,,77,74
18720,note_on,5,0,7,,,,,,,,,10,,,,77,111
18720,note_on,355,0,4,,,,,,,,,3,,,,41,0
18720,set_tempo,120,1,0,,,,,,1034483,,,,,,,,
18722,note_on,0,0,2,,,,,,,,,1,,,,71,73
18722,note_on,5280,0,2,,,,,,,,,1,,,,74,73
18722,note_on,5,0,9,,,,,,,,,12,,,,62,66
18722,note_on,5,0,8,,,,,,,,,11,,,,62,68
18722,control_change,0,0,2,,,,,,,,,1,11,53,,,
18723,note_on,7,0,3,,,,,,,,,2,,,,62,63
18723,note_on,0,0,3,,,,,,,,,2,,,,65,63
18724,note_on,5,0,10,,,,,,,,,6,,,,47,62
18725,note_on,5,0,4,,,,,,,,,3,,,,67,82
18725,note_on,600,0,11,,,,,,,,,13,,,,43,46
18725,note_on,0,0,4,,,,,,,,,3,,,,43,82
18728,note_on,600,0,12,,,,,,,,,14,,,,31,40
18752,note_on,0,0,9,,,,,,,,,12,,,,59,66
18752,note_on,30,0,9,,,,,,,,,12,,,,62,0
18752,note_on,0,0,8,,,,,,,,,11,,,,59,68
18752,note_on,30,0,8,,,,,,,,,11,,,,62,0
18754,note_on,0,0,10,,,,,,,,,6,,,,50,62
18754,note_on,30,0,10,,,,,,,,,6,,,,47,0
18777,note_on,25,0,8,,,,,,,,,11,,,,59,0
18780,set_tempo,60,1,0,,,,,,937500,,,,,,,,
18780,control_change,60,0,7,,,,,,,,,10,11,47,,,
18782,note_on,30,0,9,,,,,,,,,12,,,,59,0
18782,note_on,0,0,9,,,,,,,,,12,,,,62,66
18782,note_on,5,0,8,,,,,,,,,11,,,,74,68
18784,note_on,0,0,10,,,,,,,,,6,,,,59,62
18784,note_on,30,0,10,,,,,,,,,6,,,,50,0
18791,control_change,11,0,7,,,,,,,,,10,11,44,,,
18803,control_change,12,0,7,,,,,,,,,10,11,41,,,
18812,note_on,30,0,9,,,,,,,,,12,,,,62,0
18812,note_on,0,0,9,,,,,,,,,12,,,,59,66
18812,note_on,0,0,8,,,,,,,,,11,,,,71,68
18812,note_on,30,0,8,,,,,,,,,11,,,,74,0
18814,note_on,0,0,10,,,,,,,,,6,,,,62,62
18814,note_on,30,0,10,,,,,,,,,6,,,,59,0
18815,control_change,12,0,7,,,,,,,,,10,11,38,,,
18827,control_change,12,0,7,,,,,,,,,10,11,35,,,
18839,control_change,12,0,7,,,,,,,,,10,11,32,,,
18840,note_on,1,0,7,,,,,,,,,10,,,,77,0
18842,note_on,30,0,8,,,,,,,,,11,,,,71,0
18842,note_on,0,0,8,,,,,,,,,11,,,,74,68
18842,note_on,0,0,9,,,,,,,,,12,,,,62,66
18842,note_on,30,0,9,,,,,,,,,12,,,,59,0
18844,note_on,0,0,10,,,,,,,,,6,,,,59,62
18844,note_on,30,0,10,,,,,,,,,6,,,,62,0
18845,note_on,120,0,11,,,,,,,,,13,,,,43,0
18848,note_on,120,0,12,,,,,,,,,14,,,,31,0
18872,note_on,30,0,9,,,,,,,,,12,,,,62,0
18872,note_on,0,0,8,,,,,,,,,11,,,,71,68
18872,note_on,30,0,8,,,,,,,,,11,,,,74,0
18872,note_on,0,0,9,,,,,,,,,12,,,,59,66
18874,note_on,30,0,10,,,,,,,,,6,,,,59,0
18874,note_on,0,0,10,,,,,,,,,6,,,,62,62
18900,set_tempo,120,1,0,,,,,,1034483,,,,,,,,
18902,note_on,0,0,8,,,,,,,,,11,,,,76,68
18902,note_on,30,0,8,,,,,,,,,11,,,,71,0
18902,note_on,0,0,9,,,,,,,,,12,,,,64,66
18902,note_on,30,0,9,,,,,,,,,12,,,,59,0
18904,note_on,0,0,10,,,,,,,,,6,,,,60,62
18904,note_on,30,0,10,,,,,,,,,6,,,,62,0
18932,note_on,30,0,8,,,,,,,,,11,,,,76,0
18932,note_on,0,0,9,,,,,,,,,12,,,,60,66
18932,note_on,30,0,9,,,,,,,,,12,,,,64,0
18932,note_on,0,0,8,,,,,,,,,11,,,,72,68
18934,note_on,0,0,10,,,,,,,,,6,,,,64,62
18934,note_on,30,0,10,,,,,,,,,6,,,,60,0
18960,set_tempo,60,1,0,,,,,,937500,,,,,,,,
18962,note_on,0,0,8,,,,,,,,,11,,,,74,68
18962,note_on,30,0,8,,,,,,,,,11,,,,72,0
18962,note_on,0,0,9,,,,,,,,,12,,,,62,66
18962,note_on,30,0,9,,,,,,,,,12,,,,60,0
18964,note_on,0,0,10,,,,,,,,,6,,,,59,62
18964,note_on,30,0,10,,,,,,,,,6,,,,64,0
18992,note_on,0,0,9,,,,,,,,,12,,,,59,66
18992,note_on,30,0,8,,,,,,,,,11,,,,74,0
18992,note_on,30,0,9,,,,,,,,,12,,,,62,0
18992,note_on,0,0,8,,,,,,,,,11,,,,71,68
18994,note_on,30,0,10,,,,,,,,,6,,,,59,0
18994,note_on,0,0,10,,,,,,,,,6,,,,62,62
19013,note_on,0,0,1,,,,,,,,,0,,,,77,0
19013,note_on,293,0,1,,,,,,,,,0,,,,83,0
19015,note_on,293,0,2,,,,,,,,,1,,,,71,0
19015,note_on,0,0,2,,,,,,,,,1,,,,74,0
19016,note_on,293,0,3,,,,,,,,,2,,,,65,0
19016,note_on,0,0,3,,,,,,,,,2,,,,62,0
19018,note_on,293,0,4,,,,,,,,,3,,,,67,0
19020,note_on,7,0,1,,,,,,,,,0,,,,83,74
19020,note_on,0,0,1,,,,,,,,,0,,,,77,74
19022,note_on,7,0,2,,,,,,,,,1,,,,71,73
19022,note_on,0,0,2,,,,,,,,,1,,,,74,73
19022,note_on,0,0,8,,,,,,,,,11,,,,74,68
19022,note_on,30,0,8,,,,,,,,,11,,,,71,0
19022,note_on,30,0,9,,,,,,,,,12,,,,59,0
19022,note_on,0,0,9,,,,,,,,,12,,,,62,66
19023,note_on,7,0,3,,,,,,,,,2,,,,62,63
19023,note_on,0,0,3,,,,,,,,,2,,,,65,63
19024,note_on,0,0,10,,,,,,,,,6,,,,59,62
19024,note_on,30,0,10,,,,,,,,,6,,,,62,0
19025,note_on,7,0,4,,,,,,,,,3,,,,67,82
19052,note_on,30,0,8,,,,,,,,,11,,,,74,0
19052,note_on,0,0,9,,,,,,,,,12,,,,59,66
19052,note_on,0,0,8,,,,,,,,,11,,,,71,68
19052,note_on,30,0,9,,,,,,,,,12,,,,62,0
19054,note_on,0,0,10,,,,,,,,,6,,,,62,62
19054,note_on,30,0,10,,,,,,,,,6,,,,59,0
19080,set_tempo,120,1,0,,,,,,1034483,,,,,,,,
19082,note_on,0,0,8,,,,,,,,,11,,,,72,68
19082,note_on,30,0,8,,,,,,,,,11,,,,71,0
19082,note_on,30,0,9,,,,,,,,,12,,,,59,0
19082,note_on,0,0,9,,,,,,,,,12,,,,60,66
19084,note_on,30,0,10,,,,,,,,,6,,,,62,0
19084,note_on,0,0,10,,,,,,,,,6,,,,57,62
19112,note_on,0,0,9,,,,,,,,,12,,,,57,66
19112,note_on,30,0,9,,,,,,,,,12,,,,60,0
19112,note_on,0,0,8,,,,,,,,,11,,,,69,68
19112,note_on,30,0,8,,,,,,,,,11,,,,72,0
19114,note_on,0,0,10,,,,,,,,,6,,,,60,62
19114,note_on,30,0,10,,,,,,,,,6,,,,57,0
19140,set_tempo,60,1,0,,,,,,937500,,,,,,,,
19142,note_on,30,0,9,,,,,,,,,12,,,,57,0
19142,note_on,0,0,9,,,,,,,,,12,,,,59,66
19142,note_on,0,0,8,,,,,,,,,11,,,,71,68
19142,note_on,30,0,8,,,,,,,,,11,,,,69,0
19144,note_on,0,0,10,,,,,,,,,6,,,,55,62
19144,note_on,30,0,10,,,,,,,,,6,,,,60,0
19172,note_on,30,0,8,,,,,,,,,11,,,,71,0
19172,note_on,0,0,9,,,,,,,,,12,,,,55,66
19172,note_on,30,0,9,,,,,,,,,12,,,,59,0
19172,note_on,0,0,8,,,,,,,,,11,,,,67,68
19174,note_on,30,0,10,,,,,,,,,6,,,,55,0
19174,note_on,0,0,10,,,,,,,,,6,,,,59,62
19193,note_on,173,0,1,,,,,,,,,0,,,,77,0
19193,note_on,0,0,1,,,,,,,,,0,,,,83,0
19195,note_on,0,0,2,,,,,,,,,1,,,,71,0
19195,note_on,173,0,2,,,,,,,,,1,,,,74,0
19196,note_on,0,0,3,,,,,,,,,2,,,,62,0
19196,note_on,173,0,3,,,,,,,,,2,,,,65,0
19198,note_on,173,0,4,,,,,,,,,3,,,,67,0
19200,note_on,7,0,1,,,,,,,,,0,,,,77,74
19200,note_on,0,0,1,,,,,,,,,0,,,,83,74
19202,note_on,7,0,2,,,,,,,,,1,,,,74,73
19202,note_on,0,0,8,,,,,,,,,11,,,,71,68
19202,note_on,30,0,8,,,,,,,,,11,,,,67,0
19202,note_on,0,0,2,,,,,,,,,1,,,,71,73
19202,note_on,0,0,9,,,,,,,,,12,,,,71,66
19202,note_on,30,0,9,,,,,,,,,12,,,,55,0
19203,note_on,7,0,3,,,,,,,,,2,,,,62,63
19203,note_on,0,0,3,,,,,,,,,2,,,,65,63
19204,note_on,0,0,10,,,,,,,,,6,,,,55,62
19204,note_on,30,0,10,,,,,,,,,6,,,,59,0
19205,note_on,7,0,4,,,,,,,,,3,,,,67,82
19232,note_on,0,0,9,,,,,,,,,12,,,,67,66
19232,note_on,30,0,9,,,,,,,,,12,,,,71,0
19232,note_on,30,0,8,,,,,,,,,11,,,,71,0
19232,note_on,0,0,8,,,,,,,,,11,,,,67,68
19234,note_on,0,0,10,,,,,,,,,6,,,,59,62
19234,note_on,30,0,10,,,,,,,,,6,,,,55,0
19260,set_tempo,120,1,0,,,,,,1034483,,,,,,,,
19262,note_on,30,0,8,,,,,,,,,11,,,,67,0
19262,note_on,0,0,9,,,,,,,,,12,,,,69,66
19262,note_on,0,0,8,,,,,,,,,11,,,,69,68
19262,note_on,30,0,9,,,,,,,,,12,,,,67,0
19264,note_on,0,0,10,,,,,,,,,6,,,,53,62
19264,note_on,30,0,10,,,,,,,,,6,,,,59,0
19292,note_on,0,0,8,,,,,,,,,11,,,,65,68
19292,note_on,30,0,8,,,,,,,,,11,,,,69,0
19292,note_on,30,0,9,,,,,,,,,12,,,,69,0
19292,note_on,0,0,9,,,,,,,,,12,,,,65,66
19294,note_on,30,0,10,,,,,,,,,6,,,,53,0
19294,note_on,0,0,10,,,,,,,,,6,,,,57,62
19320,control_change,480,0,7,,,,,,,,,10,11,47,,,
19320,note_on,0,0,7,,,,,,,,,10,,,,79,111
19320,set_tempo,60,1,0,,,,,,937500,,,,,,,,
19322,note_on,0,0,8,,,,,,,,,11,,,,67,68
19322,note_on,30,0,8,,,,,,,,,11,,,,65,0
19322,note_on,0,0,9,,,,,,,,,12,,,,67,66
19322,note_on,30,0,9,,,,,,,,,12,,,,65,0
19324,note_on,30,0,10,,,,,,,,,6,,,,57,0
19324,note_on,0,0,10,,,,,,,,,6,,,,52,62
19352,note_on,0,0,9,,,,,,,,,12,,,,64,66
19352,note_on,0,0,8,,,,,,,,,11,,,,64,68
19352,note_on,30,0,9,,,,,,,,,12,,,,67,0
19352,note_on,30,0,8,,,,,,,,,11,,,,67,0
19354,note_on,30,0,10,,,,,,,,,6,,,,52,0
19354,note_on,0,0,10,,,,,,,,,6,,,,55,62
19373,note_on,0,0,1,,,,,,,,,0,,,,77,0
19373,note_on,173,0,1,,,,,,,,,0,,,,83,0
19375,note_on,0,0,2,,,,,,,,,1,,,,74,0
19375,note_on,173,0,2,,,,,,,,,1,,,,71,0
19376,note_on,173,0,3,,,,,,,,,2,,,,65,0
19376,note_on,0,0,3,,,,,,,,,2,,,,62,0
19378,note_on,173,0,4,,,,,,,,,3,,,,67,0
19380,note_on,60,0,7,,,,,,,,,10,,,,79,0
19380,note_on,0,0,7,,,,,,,,,10,,,,81,125
19380,note_on,0,0,1,,,,,,,,,0,,,,77,74
19380,note_on,7,0,1,,,,,,,,,0,,,,83,74
19382,note_on,7,0,2,,,,,,,,,1,,,,74,73
19382,note_on,0,0,8,,,,,,,,,11,,,,65,68
19382,note_on,30,0,9,,,,,,,,,12,,,,64,0
19382,note_on,0,0,9,,,,,,,,,12,,,,65,66
19382,note_on,30,0,8,,,,,,,,,11,,,,64,0
19382,note_on,0,0,2,,,,,,,,,1,,,,71,73
19383,note_on,7,0,3,,,,,,,,,2,,,,62,63
19383,note_on,0,0,3,,,,,,,,,2,,,,65,63
19384,note_on,0,0,10,,,,,,,,,6,,,,50,62
19384,note_on,30,0,10,,,,,,,,,6,,,,55,0
19385,note_on,7,0,4,,,,,,,,,3,,,,67,82
19410,note_on,0,0,7,,,,,,,,,10,,,,83,125
19410,note_on,30,0,7,,,,,,,,,10,,,,81,0
19412,note_on,30,0,8,,,,,,,,,11,,,,65,0
19412,note_on,0,0,8,,,,,,,,,11,,,,62,68
19412,note_on,30,0,9,,,,,,,,,12,,,,65,0
19412,note_on,0,0,9,,,,,,,,,12,,,,62,66
19414,note_on,0,0,10,,,,,,,,,6,,,,53,62
19414,note_on,30,0,10,,,,,,,,,6,,,,50,0
19433,note_on,53,0,1,,,,,,,,,0,,,,77,0
19433,note_on,0,0,1,,,,,,,,,0,,,,83,0
19435,note_on,0,0,2,,,,,,,,,1,,,,74,0
19435,note_on,25,0,7,,,,,,,,,10,,,,83,0
19435,note_on,53,0,2,,,,,,,,,1,,,,71,0
19436,note_on,53,0,3,,,,,,,,,2,,,,65,0
19436,note_on,0,0,3,,,,,,,,,2,,,,62,0
19437,note_on,25,0,8,,,,,,,,,11,,,,62,0
19437,note_on,25,0,9,,,,,,,,,12,,,,62,0
19438,note_on,53,0,4,,,,,,,,,3,,,,67,0
19439,note_on,25,0,10,,,,,,,,,6,,,,53,0
19440,note_on,0,0,1,,,,,,,,,0,,,,84,86
19440,note_on,7,0,1,,,,,,,,,0,,,,76,86
19440,note_on,5,0,7,,,,,,,,,10,,,,84,125
19440,set_tempo,120,1,0,,,,,,1034483,,,,,,,,
19440,note_on,2,0,4,,,,,,,,,3,,,,43,0
19442,note_on,7,0,2,,,,,,,,,1,,,,76,85
19442,note_on,0,0,2,,,,,,,,,1,,,,72,85
19442,note_on,5,0,8,,,,,,,,,11,,,,64,68
19442,note_on,5,0,9,,,,,,,,,12,,,,64,66
19443,note_on,7,0,3,,,,,,,,,2,,,,60,74
19443,note_on,0,0,3,,,,,,,,,2,,,,64,74
19444,note_on,5,0,10,,,,,,,,,6,,,,48,82
19445,note_on,5,0,4,,,,,,,,,3,,,,48,95
19445,note_on,600,0,11,,,,,,,,,13,,,,48,40
19448,note_on,600,0,12,,,,,,,,,14,,,,36,34
19472,note_on,30,0,8,,,,,,,,,11,,,,64,0
19472,note_on,0,0,8,,,,,,,,,11,,,,60,68
19472,note_on,30,0,9,,,,,,,,,12,,,,64,0
19472,note_on,0,0,9,,,,,,,,,12,,,,55,66
19493,note_on,0,0,1,,,,,,,,,0,,,,76,0
19493,note_on,53,0,1,,,,,,,,,0,,,,84,0
19495,note_on,0,0,2,,,,,,,,,1,,,,76,0
19495,note_on,53,0,2,,,,,,,,,1,,,,72,0
19499,note_on,55,0,10,,,,,,,,,6,,,,48,0
19500,note_on,7,0,1,,,,,,,,,0,,,,79,86
19500,set_tempo,60,1,0,,,,,,937500,,,,,,,,
19502,note_on,0,0,9,,,,,,,,,12,,,,52,66
19502,note_on,30,0,9,,,,,,,,,12,,,,55,0
19502,note_on,7,0,2,,,,,,,,,1,,,,76,85
19502,note_on,0,0,8,,,,,,,,,11,,,,67,68
19502,note_on,30,0,8,,,,,,,,,11,,,,60,0
19504,note_on,5,0,10,,,,,,,,,6,,,,48,82
19532,note_on,0,0,8,,,,,,,,,11,,,,64,68
19532,note_on,30,0,8,,,,,,,,,11,,,,67,0
19532,note_on,30,0,9,,,,,,,,,12,,,,52,0
19532,note_on,0,0,9,,,,,,,,,12,,,,55,66
19553,note_on,53,0,1,,,,,,,,,0,,,,79,0
19555,note_on,53,0,2,,,,,,,,,1,,,,76,0
19556,note_on,113,0,3,,,,,,,,,2,,,,64,0
19556,note_on,0,0,3,,,,,,,,,2,,,,60,0
19560,note_on,7,0,1,,,,,,,,,0,,,,79,86
19562,note_on,30,0,8,,,,,,,,,11,,,,64,0
19562,note_on,0,0,8,,,,,,,,,11,,,,67,68
19562,note_on,7,0,2,,,,,,,,,1,,,,76,85
19562,note_on,0,0,9,,,,,,,,,12,,,,52,66
19562,note_on,30,0,9,,,,,,,,,12,,,,55,0
19564,note_on,0,0,10,,,,,,,,,6,,,,47,82
19564,note_on,60,0,10,,,,,,,,,6,,,,48,0
19565,note_on,120,0,11,,,,,,,,,13,,,,48,0
19568,note_on,120,0,12,,,,,,,,,14,,,,36,0
19592,note_on,30,0,9,,,,,,,,,12,,,,52,0
19592,note_on,30,0,8,,,,,,,,,11,,,,67,0
19592,note_on,0,0,9,,,,,,,,,12,,,,55,66
19592,note_on,0,0,8,,,,,,,,,11,,,,64,68
19613,note_on,53,0,1,,,,,,,,,0,,,,79,0
19615,note_on,53,0,2,,,,,,,,,1,,,,76,0
19620,set_tempo,120,1,0,,,,,,1034483,,,,,,,,
19620,note_on,7,0,1,,,,,,,,,0,,,,79,86
19622,note_on,30,0,8,,,,,,,,,11,,,,64,0
19622,note_on,0,0,8,,,,,,,,,11,,,,67,68
19622,note_on,0,0,9,,,,,,,,,12,,,,52,66
19622,note_on,7,0,2,,,,,,,,,1,,,,76,85
19622,note_on,30,0,9,,,,,,,,,12,,,,55,0
19624,note_on,60,0,10,,,,,,,,,6,,,,47,0
19624,note_on,0,0,10,,,,,,,,,6,,,,48,82
19652,note_on,0,0,9,,,,,,,,,12,,,,55,66
19652,note_on,30,0,9,,,,,,,,,12,,,,52,0
19652,note_on,30,0,8,,,,,,,,,11,,,,67,0
19652,note_on,0,0,8,,,,,,,,,11,,,,64,68
19673,note_on,53,0,1,,,,,,,,,0,,,,79,0
19675,note_on,53,0,2,,,,,,,,,1,,,,76,0
19675,note_on,235,0,7,,,,,,,,,10,,,,84,0
19680,note_on,5,0,7,,,,,,,,,10,,,,84,125
19680,set_tempo,60,1,0,,,,,,937500,,,,,,,,
19682,note_on,0,0,9,,,,,,,,,12,,,,52,66
19682,note_on,30,0,9,,,,,,,,,12,,,,55,0
19682,note_on,0,0,8,,,,,,,,,11,,,,67,68
19682,note_on,30,0,8,,,,,,,,,11,,,,64,0
19683,note_on,0,0,3,,,,,,,,,2,,,,67,74
19683,note_on,127,0,3,,,,,,,,,2,,,,64,74
19710,note_on,30,0,7,,,,,,,,,10,,,,84,0
19710,note_on,0,0,7,,,,,,,,,10,,,,82,125
19712,note_on,0,0,8,,,,,,,,,11,,,,64,68
19712,note_on,30,0,9,,,,,,,,,12,,,,52,0
19712,note_on,0,0,9,,,,,,,,,12,,,,55,66
19712,note_on,30,0,8,,,,,,,,,11,,,,67,0
19736,note_on,0,0,3,,,,,,,,,2,,,,64,0
19736,note_on,53,0,3,,,,,,,,,2,,,,67,0
19740,note_on,30,0,7,,,,,,,,,10,,,,82,0
19740,note_on,0,0,7,,,,,,,,,10,,,,79,125
19742,note_on,30,0,8,,,,,,,,,11,,,,64,0
19742,note_on,30,0,9,,,,,,,,,12,,,,55,0
19742,note_on,0,0,9,,,,,,,,,12,,,,52,66
19742,note_on,0,0,8,,,,,,,,,11,,,,67,68
19743,note_on,7,0,3,,,,,,,,,2,,,,64,74
19743,note_on,0,0,3,,,,,,,,,2,,,,67,74
19770,note_on,0,0,7,,,,,,,,,10,,,,76,125
19770,note_on,30,0,7,,,,,,,,,10,,,,79,0
19772,note_on,30,0,8,,,,,,,,,11,,,,67,0
19772,note_on,0,0,8,,,,,,,,,11,,,,64,68
19772,note_on,30,0,9,,,,,,,,,12,,,,52,0
19772,note_on,0,0,9,,,,,,,,,12,,,,55,66
19795,note_on,25,0,7,,,,,,,,,10,,,,76,0
19796,note_on,53,0,3,,,,,,,,,2,,,,67,0
19796,note_on,0,0,3,,,,,,,,,2,,,,64,0
19797,note_on,25,0,9,,,,,,,,,12,,,,55,0
19797,note_on,25,0,8,,,,,,,,,11,,,,64,0
19800,note_on,355,0,4,,,,,,,,,3,,,,48,0
19800,note_on,5,0,7,,,,,,,,,10,,,,79,125
19800,set_tempo,120,1,0,,,,,,1034483,,,,,,,,
19802,note_on,5,0,8,,,,,,,,,11,,,,69,68
19802,note_on,5,0,9,,,,,,,,,12,,,,53,66
19803,note_on,7,0,3,,,,,,,,,2,,,,69,74
19803,note_on,0,0,3,,,,,,,,,2,,,,65,74
19805,note_on,5,0,4,,,,,,,,,3,,,,53,95
19805,note_on,240,0,11,,,,,,,,,13,,,,48,40
19808,note_on,240,0,12,,,,,,,,,14,,,,36,34
19832,note_on,0,0,9,,,,,,,,,12,,,,57,66
19832,note_on,30,0,8,,,,,,,,,11,,,,69,0
19832,note_on,0,0,8,,,,,,,,,11,,,,65,68
19832,note_on,30,0,9,,,,,,,,,12,,,,53,0
19859,note_on,235,0,10,,,,,,,,,6,,,,48,0
19860,set_tempo,60,1,0,,,,,,937500,,,,,,,,
19860,note_on,187,0,1,,,,,,,,,0,,,,81,86
19862,note_on,30,0,8,,,,,,,,,11,,,,65,0
19862,note_on,187,0,2,,,,,,,,,1,,,,77,85
19862,note_on,30,0,9,,,,,,,,,12,,,,57,0
19862,note_on,0,0,9,,,,,,,,,12,,,,53,66
19862,note_on,0,0,8,,,,,,,,,11,,,,69,68
19864,note_on,5,0,10,,,,,,,,,6,,,,48,82
19892,note_on,30,0,9,,,,,,,,,12,,,,53,0
19892,note_on,0,0,8,,,,,,,,,11,,,,65,68
19892,note_on,0,0,9,,,,,,,,,12,,,,57,66
19892,note_on,30,0,8,,,,,,,,,11,,,,69,0
19913,note_on,53,0,1,,,,,,,,,0,,,,81,0
19915,note_on,53,0,2,,,,,,,,,1,,,,77,0
19916,note_on,113,0,3,,,,,,,,,2,,,,65,0
19916,note_on,0,0,3,,,,,,,,,2,,,,69,0
19920,note_on,7,0,1,,,,,,,,,0,,,,81,86
19920,note_on,0,0,7,,,,,,,,,10,,,,77,125
19920,note_on,120,0,7,,,,,,,,,10,,,,79,0
19922,note_on,0,0,8,,,,,,,,,11,,,,69,68
19922,note_on,0,0,9,,,,,,,,,12,,,,53,66
19922,note_on,7,0,2,,,,,,,,,1,,,,77,85
19922,note_on,30,0,8,,,,,,,,,11,,,,65,0
19922,note_on,30,0,9,,,,,,,,,12,,,,57,0
19924,note_on,0,0,10,,,,,,,,,6,,,,47,82
19924,note_on,60,0,10,,,,,,,,,6,,,,48,0
19925,note_on,120,0,11,,,,,,,,,13,,,,48,0
19928,note_on,120,0,12,,,,,,,,,14,,,,36,0
19952,note_on,0,0,9,,,,,,,,,12,,,,57,66
19952,note_on,30,0,9,,,,,,,,,12,,,,53,0
19952,note_on,30,0,8,,,,,,,,,11,,,,69,0
19952,note_on,0,0,8,,,,,,,,,11,,,,65,68
19973,note_on,53,0,1,,,,,,,,,0,,,,81,0
19975,note_on,53,0,2,,,,,,,,,1,,,,77,0
19980,set_tempo,120,1,0,,,,,,1034483,,,,,,,,
19980,note_on,7,0,1,,,,,,,,,0,,,,81,86
19982,note_on,30,0,8,,,,,,,,,11,,,,65,0
19982,note_on,0,0,8,,,,,,,,,11,,,,69,68
19982,note_on,7,0,2,,,,,,,,,1,,,,77,85
19982,note_on,30,0,9,,,,,,,,,12,,,,57,0
19982,note_on,0,0,9,,,,,,,,,12,,,,53,66
19984,note_on,60,0,10,,,,,,,,,6,,,,47,0
19984,note_on,0,0,10,,,,,,,,,6,,,,48,82
20012,note_on,30,0,8,,,,,,,,,11,,,,69,0
20012,note_on,30,0,9,,,,,,,,,12,,,,53,0
20012,note_on,0,0,9,,,,,,,,,12,,,,57,66
20012,note_on,0,0,8,,,,,,,,,11,,,,65,68
20033,note_on,53,0,1,,,,,,,,,0,,,,81,0
20035,note_on,53,0,2,,,,,,,,,1,,,,77,0
20035,note_on,115,0,7,,,,,,,,,10,,,,77,0
20040,note_on,5,0,7,,,,,,,,,10,,,,77,125
20040,set_tempo,60,1,0,,,,,,937500,,,,,,,,
20042,note_on,30,0,8,,,,,,,,,11,,,,65,0
20042,note_on,0,0,9,,,,,,,,,12,,,,53,66
20042,note_on,30,0,9,,,,,,,,,12,,,,57,0
20042,note_on,0,0,8,,,,,,,,,11,,,,69,68
20043,note_on,0,0,3,,,,,,,,,2,,,,65,74
20043,note_on,127,0,3,,,,,,,,,2,,,,69,74
20070,note_on,0,0,7,,,,,,,,,10,,,,72,125
20070,note_on,30,0,7,,,,,,,,,10,,,,77,0
20072,note_on,0,0,9,,,,,,,,,12,,,,57,66
20072,note_on,30,0,8,,,,,,,,,11,,,,69,0
20072,note_on,0,0,8,,,,,,,,,11,,,,65,68
20072,note_on,30,0,9,,,,,,,,,12,,,,53,0
20096,note_on,53,0,3,,,,,,,,,2,,,,65,0
20096,note_on,0,0,3,,,,,,,,,2,,,,69,0
20100,note_on,0,0,7,,,,,,,,,10,,,,69,125
20100,note_on,30,0,7,,,,,,,,,10,,,,72,0
20102,note_on,0,0,9,,,,,,,,,12,,,,53,66
20102,note_on,0,0,8,,,,,,,,,11,,,,69,68
20102,note_on,30,0,9,,,,,,,,,12,,,,57,0
20102,note_on,30,0,8,,,,,,,,,11,,,,65,0
20103,note_on,7,0,3,,,,,,,,,2,,,,69,74
20103,note_on,0,0,3,,,,,,,,,2,,,,65,74
20130,note_on,0,0,7,,,,,,,,,10,,,,65,125
20130,note_on,30,0,7,,,,,,,,,10,,,,69,0
20132,note_on,0,0,8,,,,,,,,,11,,,,65,68
20132,note_on,30,0,9,,,,,,,,,12,,,,53,0
20132,note_on,0,0,9,,,,,,,,,12,,,,57,66
20132,note_on,30,0,8,,,,,,,,,11,,,,69,0
20155,note_on,25,0,7,,,,,,,,,10,,,,65,0
20156,note_on,53,0,3,,,,,,,,,2,,,,65,0
20156,note_on,0,0,3,,,,,,,,,2,,,,69,0
20157,note_on,25,0,9,,,,,,,,,12,,,,57,0
20157,note_on,25,0,8,,,,,,,,,11,,,,65,0
20160,note_on,5,0,7,,,,,,,,,10,,,,64,125
20160,note_on,355,0,4,,,,,,,,,3,,,,53,0
20160,set_tempo,120,1,0,,,,,,1034483,,,,,,,,
20162,note_on,5,0,9,,,,,,,,,12,,,,55,66
20162,note_on,5,0,8,,,,,,,,,11,,,,70,68
20163,note_on,3605,0,5,,,,,,,,,4,,,,60,82
20163,note_on,7,0,3,,,,,,,,,2,,,,64,74
20163,note_on,0,0,3,,,,,,,,,2,,,,70,74
20165,note_on,240,0,11,,,,,,,,,13,,,,48,46
20165,note_on,5,0,4,,,,,,,,,3,,,,55,95
20165,note_on,3605,0,6,,,,,,,,,5,,,,60,82
20168,note_on,240,0,12,,,,,,,,,14,,,,36,40
20170,note_on,10,0,7,,,,,,,,,10,,,,64,0
20170,note_on,0,0,7,,,,,,,,,10,,,,65,125
20180,note_on,10,0,7,,,,,,,,,10,,,,65,0
20180,note_on,0,0,7,,,,,,,,,10,,,,67,125
20190,note_on,10,0,7,,,,,,,,,10,,,,67,0
20190,note_on,0,0,7,,,,,,,,,10,,,,65,125
20192,note_on,0,0,9,,,,,,,,,12,,,,58,66
20192,note_on,30,0,9,,,,,,,,,12,,,,55,0
20192,note_on,30,0,8,,,,,,,,,11,,,,70,0
20192,note_on,0,0,8,,,,,,,,,11,,,,67,68
20219,note_on,235,0,10,,,,,,,,,6,,,,48,0
20220,set_tempo,60,1,0,,,,,,937500,,,,,,,,
20220,note_on,187,0,1,,,,,,,,,0,,,,82,86
20222,note_on,30,0,8,,,,,,,,,11,,,,67,0
20222,note_on,187,0,2,,,,,,,,,1,,,,76,85
20222,note_on,0,0,8,,,,,,,,,11,,,,70,68
20222,note_on,30,0,9,,,,,,,,,12,,,,58,0
20222,note_on,0,0,9,,,,,,,,,12,,,,55,66
20224,note_on,5,0,10,,,,,,,,,6,,,,48,82
20252,note_on,30,0,8,,,,,,,,,11,,,,70,0
20252,note_on,30,0,9,,,,,,,,,12,,,,55,0
20252,note_on,0,0,9,,,,,,,,,12,,,,58,66
20252,note_on,0,0,8,,,,,,,,,11,,,,67,68
20273,note_on,53,0,1,,,,,,,,,0,,,,82,0
20275,note_on,53,0,2,,,,,,,,,1,,,,76,0
20276,note_on,0,0,3,,,,,,,,,2,,,,64,0
20276,note_on,113,0,3,,,,,,,,,2,,,,70,0
20280,note_on,90,0,7,,,,,,,,,10,,,,65,0
20280,note_on,7,0,1,,,,,,,,,0,,,,82,86
20280,note_on,0,0,7,,,,,,,,,10,,,,64,125
20282,note_on,0,0,9,,,,,,,,,12,,,,55,66
20282,note_on,30,0,9,,,,,,,,,12,,,,58,0
20282,note_on,7,0,2,,,,,,,,,1,,,,76,85
20282,note_on,30,0,8,,,,,,,,,11,,,,67,0
20282,note_on,0,0,8,,,,,,,,,11,,,,70,68
20284,note_on,0,0,10,,,,,,,,,6,,,,47,82
20284,note_on,60,0,10,,,,,,,,,6,,,,48,0
20285,note_on,120,0,11,,,,,,,,,13,,,,48,0
20288,note_on,120,0,12,,,,,,,,,14,,,,36,0
20312,note_on,0,0,9,,,,,,,,,12,,,,58,66
20312,note_on,0,0,8,,,,,,,,,11,,,,67,68
20312,note_on,30,0,8,,,,,,,,,11,,,,70,0
20312,note_on,30,0,9,,,,,,,,,12,,,,55,0
20333,note_on,53,0,1,,,,,,,,,0,,,,82,0
20335,note_on,53,0,2,,,,,,,,,1,,,,76,0
20340,note_on,7,0,1,,,,,,,,,0,,,,82,86
20340,set_tempo,120,1,0,,,,,,1034483,,,,,,,,
20342,note_on,30,0,9,,,,,,,,,12,,,,58,0
20342,note_on,0,0,9,,,,,,,,,12,,,,55,66
20342,note_on,30,0,8,,,,,,,,,11,,,,67,0
20342,note_on,0,0,8,,,,,,,,,11,,,,70,68
20342,note_on,7,0,2,,,,,,,,,1,,,,76,85
20344,note_on,0,0,10,,,,,,,,,6,,,,48,82
20344,note_on,60,0,10,,,,,,,,,6,,,,47,0
20372,note_on,0,0,8,,,,,,,,,11,,,,67,68
20372,note_on,30,0,9,,,,,,,,,12,,,,55,0
20372,note_on,30,0,8,,,,,,,,,11,,,,70,0
20372,note_on,0,0,9,,,,,,,,,12,,,,58,66
20393,note_on,53,0,1,,,,,,,,,0,,,,82,0
20395,note_on,53,0,2,,,,,,,,,1,,,,76,0
20395,note_on,115,0,7,,,,,,,,,10,,,,64,0
20400,note_on,5,0,7,,,,,,,,,10,,,,64,111
20400,set_tempo,60,1,0,,,,,,937500,,,,,,,,
20402,note_on,30,0,9,,,,,,,,,12,,,,58,0
20402,note_on,30,0,8,,,,,,,,,11,,,,67,0
20402,note_on,0,0,9,,,,,,,,,12,,,,55,66
20402,note_on,0,0,8,,,,,,,,,11,,,,70,68
20403,note_on,127,0,3,,,,,,,,,2,,,,70,74
20403,note_on,0,0,3,,,,,,,,,2,,,,64,74
20430,note_on,30,0,7,,,,,,,,,10,,,,64,0
20430,note_on,0,0,7,,,,,,,,,10,,,,67,125
20432,note_on,0,0,9,,,,,,,,,12,,,,58,66
20432,note_on,30,0,9,,,,,,,,,12,,,,55,0
20432,note_on,30,0,8,,,,,,,,,11,,,,70,0
20432,note_on,0,0,8,,,,,,,,,11,,,,67,68
20456,note_on,53,0,3,,,,,,,,,2,,,,64,0
20456,note_on,0,0,3,,,,,,,,,2,,,,70,0
20460,note_on,30,0,7,,,,,,,,,10,,,,67,0
20460,note_on,0,0,7,,,,,,,,,10,,,,72,125
20462,note_on,30,0,9,,,,,,,,,12,,,,58,0
20462,note_on,0,0,9,,,,,,,,,12,,,,55,66
20462,note_on,30,0,8,,,,,,,,,11,,,,67,0
20462,note_on,0,0,8,,,,,,,,,11,,,,70,68
20463,note_on,0,0,3,,,,,,,,,2,,,,70,74
20463,note_on,7,0,3,,,,,,,,,2,,,,64,74
20490,note_on,30,0,7,,,,,,,,,10,,,,72,0
20490,note_on,0,0,7,,,,,,,,,10,,,,76,125
20492,note_on,0,0,8,,,,,,,,,11,,,,67,68
20492,note_on,30,0,9,,,,,,,,,12,,,,55,0
20492,note_on,0,0,9,,,,,,,,,12,,,,58,66
20492,note_on,30,0,8,,,,,,,,,11,,,,70,0
20515,note_on,25,0,7,,,,,,,,,10,,,,76,0
20516,note_on,53,0,3,,,,,,,,,2,,,,70,0
20516,note_on,0,0,3,,,,,,,,,2,,,,64,0
20517,note_on,25,0,9,,,,,,,,,12,,,,58,0
20517,note_on,25,0,8,,,,,,,,,11,,,,67,0
20518,note_on,355,0,5,,,,,,,,,4,,,,60,0
20520,set_tempo,120,1,0,,,,,,1034483,,,,,,,,
20520,note_on,5,0,7,,,,,,,,,10,,,,79,125
20520,note_on,355,0,4,,,,,,,,,3,,,,55,0
20520,note_on,355,0,6,,,,,,,,,5,,,,60,0
20522,note_on,5,0,8,,,,,,,,,11,,,,69,68
20522,note_on,5,0,9,,,,,,,,,12,,,,53,66
20523,note_on,7,0,3,,,,,,,,,2,,,,70,74
20523,note_on,0,0,3,,,,,,,,,2,,,,65,74
20523,note_on,5,0,5,,,,,,,,,4,,,,65,82
20525,note_on,5,0,4,,,,,,,,,3,,,,53,95
20525,note_on,5,0,6,,,,,,,,,5,,,,65,82
20525,note_on,240,0,11,,,,,,,,,13,,,,48,46
20528,note_on,240,0,12,,,,,,,,,14,,,,36,40
20552,note_on,0,0,9,,,,,,,,,12,,,,57,66
20552,note_on,30,0,9,,,,,,,,,12,,,,53,0
20552,note_on,0,0,8,,,,,,,,,11,,,,65,68
20552,note_on,30,0,8,,,,,,,,,11,,,,69,0
20579,note_on,235,0,10,,,,,,,,,6,,,,48,0
20580,set_tempo,60,1,0,,,,,,937500,,,,,,,,
20580,note_on,187,0,1,,,,,,,,,0,,,,81,86
20582,note_on,0,0,9,,,,,,,,,12,,,,53,66
20582,note_on,0,0,8,,,,,,,,,11,,,,69,68
20582,note_on,187,0,2,,,,,,,,,1,,,,77,85
20582,note_on,30,0,8,,,,,,,,,11,,,,65,0
20582,note_on,30,0,9,,,,,,,,,12,,,,57,0
20584,note_on,5,0,10,,,,,,,,,6,,,,48,82
20612,note_on,30,0,8,,,,,,,,,11,,,,69,0
20612,note_on,30,0,9,,,,,,,,,12,,,,53,0
20612,note_on,0,0,8,,,,,,,,,11,,,,65,68
20612,note_on,0,0,9,,,,,,,,,12,,,,57,66
20633,note_on,53,0,1,,,,,,,,,0,,,,81,0
20635,note_on,53,0,2,,,,,,,,,1,,,,77,0
20636,note_on,113,0,3,,,,,,,,,2,,,,65,0
20636,note_on,0,0,3,,,,,,,,,2,,,,70,0
20640,note_on,120,0,7,,,,,,,,,10,,,,79,0
20640,note_on,0,0,7,,,,,,,,,10,,,,77,125
20640,note_on,7,0,1,,,,,,,,,0,,,,81,86
20642,note_on,0,0,8,,,,,,,,,11,,,,69,68
20642,note_on,30,0,8,,,,,,,,,11,,,,65,0
20642,note_on,0,0,9,,,,,,,,,12,,,,53,66
20642,note_on,7,0,2,,,,,,,,,1,,,,77,85
20642,note_on,30,0,9,,,,,,,,,12,,,,57,0
20644,note_on,60,0,10,,,,,,,,,6,,,,48,0
20644,note_on,0,0,10,,,,,,,,,6,,,,47,82
20645,note_on,120,0,11,,,,,,,,,13,,,,48,0
20648,note_on,120,0,12,,,,,,,,,14,,,,36,0
20672,note_on,30,0,8,,,,,,,,,11,,,,69,0
20672,note_on,30,0,9,,,,,,,,,12,,,,53,0
20672,note_on,0,0,9,,,,,,,,,12,,,,57,66
20672,note_on,0,0,8,,,,,,,,,11,,,,65,68
20693,note_on,53,0,1,,,,,,,,,0,,,,81,0
20695,note_on,53,0,2,,,,,,,,,1,,,,77,0
20700,set_tempo,120,1,0,,,,,,1034483,,,,,,,,
20700,note_on,7,0,1,,,,,,,,,0,,,,81,86
20702,note_on,30,0,8,,,,,,,,,11,,,,65,0
20702,note_on,0,0,8,,,,,,,,,11,,,,69,68
20702,note_on,7,0,2,,,,,,,,,1,,,,77,85
20702,note_on,0,0,9,,,,,,,,,12,,,,53,66
20702,note_on,30,0,9,,,,,,,,,12,,,,57,0
20704,note_on,0,0,10,,,,,,,,,6,,,,48,82
20704,note_on,60,0,10,,,,,,,,,6,,,,47,0
20732,note_on,0,0,9,,,,,,,,,12,,,,57,66
20732,note_on,0,0,8,,,,,,,,,11,,,,65,68
20732,note_on,30,0,8,,,,,,,,,11,,,,69,0
20732,note_on,30,0,9,,,,,,,,,12,,,,53,0
20753,note_on,53,0,1,,,,,,,,,0,,,,81,0
20755,note_on,53,0,2,,,,,,,,,1,,,,77,0
20755,note_on,115,0,7,,,,,,,,,10,,,,77,0
20760,set_tempo,60,1,0,,,,,,937500,,,,,,,,
20760,note_on,5,0,7,,,,,,,,,10,,,,79,120
20762,note_on,0,0,8,,,,,,,,,11,,,,69,68
20762,note_on,30,0,8,,,,,,,,,11,,,,65,0
20762,note_on,0,0,9,,,,,,,,,12,,,,53,66
20762,note_on,30,0,9,,,,,,,,,12,,,,57,0
20763,note_on,0,0,3,,,,,,,,,2,,,,69,74
20763,note_on,127,0,3,,,,,,,,,2,,,,65,74
20775,note_on,15,0,7,,,,,,,,,10,,,,79,0
20775,note_on,0,0,7,,,,,,,,,10,,,,77,120
20790,note_on,15,0,7,,,,,,,,,10,,,,77,0
20790,note_on,0,0,7,,,,,,,,,10,,,,76,111
20792,note_on,0,0,8,,,,,,,,,11,,,,65,68
20792,note_on,0,0,9,,,,,,,,,12,,,,57,66
20792,note_on,30,0,9,,,,,,,,,12,,,,53,0
20792,note_on,30,0,8,,,,,,,,,11,,,,69,0
20816,note_on,0,0,3,,,,,,,,,2,,,,65,0
20816,note_on,53,0,3,,,,,,,,,2,,,,69,0
20820,note_on,0,0,7,,,,,,,,,10,,,,77,111
20820,note_on,30,0,7,,,,,,,,,10,,,,76,0
20822,note_on,30,0,8,,,,,,,,,11,,,,65,0
20822,note_on,0,0,9,,,,,,,,,12,,,,53,66
20822,note_on,0,0,8,,,,,,,,,11,,,,69,68
20822,note_on,30,0,9,,,,,,,,,12,,,,57,0
20823,note_on,0,0,3,,,,,,,,,2,,,,69,74
20823,note_on,7,0,3,,,,,,,,,2,,,,65,74
20850,note_on,0,0,7,,,,,,,,,10,,,,81,111
20850,note_on,30,0,7,,,,,,,,,10,,,,77,0
20852,note_on,30,0,9,,,,,,,,,12,,,,53,0
20852,note_on,0,0,9,,,,,,,,,12,,,,57,66
20852,note_on,30,0,8,,,,,,,,,11,,,,69,0
20852,note_on,0,0,8,,,,,,,,,11,,,,65,68
20875,note_on,25,0,7,,,,,,,,,10,,,,81,0
20876,note_on,53,0,3,,,,,,,,,2,,,,69,0
20876,note_on,0,0,3,,,,,,,,,2,,,,65,0
20877,note_on,25,0,8,,,,,,,,,11,,,,65,0
20877,note_on,25,0,9,,,,,,,,,12,,,,57,0
20878,note_on,355,0,5,,,,,,,,,4,,,,65,0
20879,note_on,175,0,10,,,,,,,,,6,,,,48,0
20880,note_on,355,0,6,,,,,,,,,5,,,,65,0
20880,note_on,355,0,4,,,,,,,,,3,,,,53,0
20880,set_tempo,120,1,0,,,,,,1034483,,,,,,,,
20880,control_change,127,0,1,,,,,,,,,0,11,37,,,
20880,note_on,0,0,1,,,,,,,,,0,,,,84,96
20880,note_on,0,0,7,,,,,,,,,10,,,,84,111
20880,control_change,5,0,7,,,,,,,,,10,11,47,,,
20880,note_on,0,0,1,,,,,,,,,0,,,,79,96
20882,note_on,0,0,2,,,,,,,,,1,,,,67,95
20882,control_change,127,0,2,,,,,,,,,1,11,37,,,
20882,note_on,0,0,2,,,,,,,,,1,,,,76,95
20882,control_change,5,0,8,,,,,,,,,11,11,47,,,
20882,note_on,0,0,8,,,,,,,,,11,,,,67,68
20882,note_on,0,0,9,,,,,,,,,12,,,,52,66
20882,control_change,5,0,9,,,,,,,,,12,11,47,,,
20883,note_on,0,0,3,,,,,,,,,2,,,,72,96
20883,note_on,0,0,3,,,,,,,,,2,,,,64,96
20883,control_change,7,0,3,,,,,,,,,2,11,37,,,
20883,control_change,5,0,5,,,,,,,,,4,11,42,,,
20883,note_on,0,0,5,,,,,,,,,4,,,,60,82
20884,note_on,0,0,10,,,,,,,,,6,,,,48,62
20884,control_change,5,0,10,,,,,,,,,6,11,47,,,
20885,note_on,0,0,4,,,,,,,,,3,,,,48,95
20885,control_change,5,0,4,,,,,,,,,3,11,37,,,
20885,note_on,5,0,6,,,,,,,,,5,,,,60,82
20885,control_change,0,0,6,,,,,,,,,5,11,42,,,
20885,note_on,0,0,4,,,,,,,,,3,,,,55,95
20885,note_on,240,0,11,,,,,,,,,13,,,,48,52
20888,note_on,240,0,12,,,,,,,,,14,,,,36,45
20889,control_change,9,0,1,,,,,,,,,0,11,40,,,
20891,control_change,9,0,2,,,,,,,,,1,11,40,,,
20892,control_change,9,0,3,,,,,,,,,2,11,40,,,
20894,control_change,9,0,4,,,,,,,,,3,11,40,,,
20899,control_change,10,0,1,,,,,,,,,0,11,43,,,
20901,control_change,10,0,2,,,,,,,,,1,11,43,,,
20902,control_change,10,0,3,,,,,,,,,2,11,43,,,
20904,control_change,10,0,4,,,,,,,,,3,11,43,,,
20907,control_change,24,0,5,,,,,,,,,4,11,44,,,
20908,control_change,28,0,7,,,,,,,,,10,11,49,,,
20908,control_change,9,0,1,,,,,,,,,0,11,46,,,
20909,control_change,24,0,6,,,,,,,,,5,11,44,,,
20910,control_change,28,0,8,,,,,,,,,11,11,49,,,
20910,note_on,2,0,7,,,,,,,,,10,,,,84,0
20910,note_on,0,0,7,,,,,,,,,10,,,,79,111
20910,control_change,9,0,2,,,,,,,,,1,11,46,,,
20910,control_change,28,0,9,,,,,,,,,12,11,49,,,
20911,control_change,9,0,3,,,,,,,,,2,11,46,,,
20912,note_on,0,0,8,,,,,,,,,11,,,,64,68
20912,note_on,2,0,8,,,,,,,,,11,,,,67,0
20912,note_on,2,0,9,,,,,,,,,12,,,,52,0
20912,control_change,28,0,10,,,,,,,,,6,11,49,,,
20912,note_on,0,0,9,,,,,,,,,12,,,,55,66
20913,control_change,9,0,4,,,,,,,,,3,11,46,,,
20914,note_on,0,0,10,,,,,,,,,6,,,,52,62
20914,note_on,2,0,10,,,,,,,,,6,,,,48,0
20918,control_change,10,0,1,,,,,,,,,0,11,49,,,
20920,control_change,10,0,2,,,,,,,,,1,11,49,,,
20921,control_change,10,0,3,,,,,,,,,2,11,49,,,
20923,control_change,13,0,7,,,,,,,,,10,11,50,,,
20923,control_change,10,0,4,,,,,,,,,3,11,49,,,
20925,control_change,13,0,8,,,,,,,,,11,11,50,,,
20925,control_change,13,0,9,,,,,,,,,12,11,50,,,
20927,control_change,13,0,10,,,,,,,,,6,11,50,,,
20931,control_change,24,0,5,,,,,,,,,4,11,46,,,
20933,control_change,24,0,6,,,,,,,,,5,11,46,,,
20936,control_change,18,0,1,,,,,,,,,0,11,52,,,
20938,control_change,18,0,2,,,,,,,,,1,11,52,,,
20939,control_change,18,0,3,,,,,,,,,2,11,52,,,
20940,set_tempo,60,1,0,,,,,,937500,,,,,,,,
20940,note_on,0,0,7,,,,,,,,,10,,,,76,111
20940,note_on,17,0,7,,,,,,,,,10,,,,79,0
20941,control_change,18,0,4,,,,,,,,,3,11,52,,,
20942,note_on,17,0,9,,,,,,,,,12,,,,55,0
20942,note_on,0,0,9,,,,,,,,,12,,,,52,66
20942,note_on,0,0,8,,,,,,,,,11,,,,67,68
20942,note_on,17,0,8,,,,,,,,,11,,,,64,0
20944,note_on,0,0,10,,,,,,,,,6,,,,48,62
20944,note_on,17,0,10,,,,,,,,,6,,,,52,0
20952,control_change,12,0,7,,,,,,,,,10,11,52,,,
20954,control_change,12,0,9,,,,,,,,,12,11,52,,,
20954,control_change,12,0,8,,,,,,,,,11,11,52,,,
20955,control_change,24,0,5,,,,,,,,,4,11,48,,,
20956,control_change,12,0,10,,,,,,,,,6,11,52,,,
20957,control_change,24,0,6,,,,,,,,,5,11,48,,,
20958,control_change,22,0,1,,,,,,,,,0,11,54,,,
20960,control_change,22,0,2,,,,,,,,,1,11,54,,,
20961,control_change,22,0,3,,,,,,,,,2,11,54,,,
20963,control_change,22,0,4,,,,,,,,,3,11,54,,,
20970,note_on,18,0,7,,,,,,,,,10,,,,76,0
20970,note_on,0,0,7,,,,,,,,,10,,,,72,111
20972,note_on,18,0,8,,,,,,,,,11,,,,67,0
20972,note_on,18,0,9,,,,,,,,,12,,,,52,0
20972,note_on,0,0,9,,,,,,,,,12,,,,55,66
20972,note_on,0,0,8,,,,,,,,,11,,,,64,68
20974,note_on,0,0,10,,,,,,,,,6,,,,52,62
20974,note_on,18,0,10,,,,,,,,,6,,,,48,0
20979,control_change,24,0,5,,,,,,,,,4,11,50,,,
20980,control_change,10,0,7,,,,,,,,,10,11,54,,,
20981,control_change,24,0,6,,,,,,,,,5,11,50,,,
20981,control_change,23,0,1,,,,,,,,,0,11,56,,,
20982,control_change,10,0,8,,,,,,,,,11,11,54,,,
20982,control_change,10,0,9,,,,,,,,,12,11,54,,,
20983,control_change,23,0,2,,,,,,,,,1,11,56,,,
20984,control_change,10,0,10,,,,,,,,,6,11,54,,,
20984,control_change,23,0,3,,,,,,,,,2,11,56,,,
20986,control_change,23,0,4,,,,,,,,,3,11,56,,,
20995,control_change,15,0,7,,,,,,,,,10,11,55,,,
20997,control_change,15,0,8,,,,,,,,,11,11,55,,,
20997,control_change,15,0,9,,,,,,,,,12,11,55,,,
20999,control_change,15,0,10,,,,,,,,,6,11,55,,,
21000,note_on,0,0,7,,,,,,,,,10,,,,84,111
21000,note_on,5,0,7,,,,,,,,,10,,,,72,0
21002,note_on,0,0,9,,,,,,,,,12,,,,52,66
21002,note_on,5,0,8,,,,,,,,,11,,,,64,0
21002,note_on,0,0,8,,,,,,,,,11,,,,67,68
21002,note_on,5,0,9,,,,,,,,,12,,,,55,0
21003,control_change,24,0,5,,,,,,,,,4,11,52,,,
21003,control_change,22,0,1,,,,,,,,,0,11,58,,,
21004,note_on,0,0,10,,,,,,,,,6,,,,48,62
21004,note_on,5,0,10,,,,,,,,,6,,,,52,0
21005,note_on,120,0,11,,,,,,,,,13,,,,48,0
21005,control_change,24,0,6,,,,,,,,,5,11,52,,,
21005,control_change,22,0,2,,,,,,,,,1,11,58,,,
21006,control_change,22,0,3,,,,,,,,,2,11,58,,,
21008,note_on,120,0,12,,,,,,,,,14,,,,36,0
21008,control_change,22,0,4,,,,,,,,,3,11,58,,,
21024,control_change,24,0,7,,,,,,,,,10,11,57,,,
21026,control_change,24,0,9,,,,,,,,,12,11,57,,,
21026,control_change,24,0,8,,,,,,,,,11,11,57,,,
21026,control_change,23,0,1,,,,,,,,,0,11,60,,,
21027,control_change,24,0,5,,,,,,,,,4,11,54,,,
21028,control_change,24,0,10,,,,,,,,,6,11,57,,,
21028,control_change,23,0,2,,,,,,,,,1,11,60,,,
21029,control_change,23,0,3,,,,,,,,,2,11,60,,,
21029,control_change,24,0,6,,,,,,,,,5,11,54,,,
21030,note_on,6,0,7,,,,,,,,,10,,,,84,0
21030,note_on,0,0,7,,,,,,,,,10,,,,79,111
21031,control_change,23,0,4,,,,,,,,,3,11,60,,,
21032,note_on,0,0,8,,,,,,,,,11,,,,64,68
21032,note_on,6,0,9,,,,,,,,,12,,,,52,0
21032,note_on,6,0,8,,,,,,,,,11,,,,67,0
21032,note_on,0,0,9,,,,,,,,,12,,,,55,66
21034,note_on,6,0,10,,,,,,,,,6,,,,48,0
21034,note_on,0,0,10,,,,,,,,,6,,,,52,62
21048,control_change,22,0,1,,,,,,,,,0,11,62,,,
21050,control_change,22,0,2,,,,,,,,,1,11,62,,,
21051,control_change,24,0,5,,,,,,,,,4,11,56,,,
21051,control_change,22,0,3,,,,,,,,,2,11,62,,,
21052,control_change,22,0,7,,,,,,,,,10,11,59,,,
21053,control_change,22,0,4,,,,,,,,,3,11,62,,,
21053,control_change,24,0,6,,,,,,,,,5,11,56,,,
21054,control_change,22,0,8,,,,,,,,,11,11,59,,,
21054,control_change,22,0,9,,,,,,,,,12,11,59,,,
21056,control_change,22,0,10,,,,,,,,,6,11,59,,,
21060,set_tempo,120,1,0,,,,,,1061947,,,,,,,,
21060,note_on,8,0,7,,,,,,,,,10,,,,79,0
21060,note_on,0,0,7,,,,,,,,,10,,,,76,111
21062,note_on,8,0,9,,,,,,,,,12,,,,55,0
21062,note_on,0,0,9,,,,,,,,,12,,,,52,66
21062,note_on,8,0,8,,,,,,,,,11,,,,64,0
21062,note_on,0,0,8,,,,,,,,,11,,,,67,68
21064,note_on,8,0,10,,,,,,,,,6,,,,52,0
21064,note_on,0,0,10,,,,,,,,,6,,,,48,62
21065,note_on,60,0,11,,,,,,,,,13,,,,48,61
21067,control_change,7,0,7,,,,,,,,,10,11,60,,,
21068,note_on,60,0,12,,,,,,,,,14,,,,36,55
21069,control_change,7,0,8,,,,,,,,,11,11,60,,,
21069,control_change,7,0,9,,,,,,,,,12,11,60,,,
21071,control_change,7,0,10,,,,,,,,,6,11,60,,,
21071,control_change,23,0,1,,,,,,,,,0,11,64,,,
21073,control_change,23,0,2,,,,,,,,,1,11,64,,,
21074,control_change,23,0,3,,,,,,,,,2,11,64,,,
21075,control_change,24,0,5,,,,,,,,,4,11,58,,,
21076,control_change,23,0,4,,,,,,,,,3,11,64,,,
21077,control_change,24,0,6,,,,,,,,,5,11,58,,,
21090,note_on,0,0,7,,,,,,,,,10,,,,72,111
21090,note_on,23,0,7,,,,,,,,,10,,,,76,0
21092,note_on,0,0,8,,,,,,,,,11,,,,64,68
21092,note_on,0,0,9,,,,,,,,,12,,,,55,66
21092,note_on,23,0,8,,,,,,,,,11,,,,67,0
21092,note_on,23,0,9,,,,,,,,,12,,,,52,0
21093,control_change,22,0,1,,,,,,,,,0,11,66,,,
21094,note_on,23,0,10,,,,,,,,,6,,,,48,0
21094,note_on,0,0,10,,,,,,,,,6,,,,52,62
21095,control_change,22,0,2,,,,,,,,,1,11,66,,,
21096,control_change,22,0,3,,,,,,,,,2,11,66,,,
21096,control_change,6,0,7,,,,,,,,,10,11,62,,,
21098,control_change,6,0,9,,,,,,,,,12,11,62,,,
21098,control_change,6,0,8,,,,,,,,,11,11,62,,,
21098,control_change,22,0,4,,,,,,,,,3,11,66,,,
21099,control_change,24,0,5,,,,,,,,,4,11,60,,,
21100,control_change,6,0,10,,,,,,,,,6,11,62,,,
21101,control_change,24,0,6,,,,,,,,,5,11,60,,,
21116,control_change,23,0,1,,,,,,,,,0,11,68,,,
21118,control_change,23,0,2,,,,,,,,,1,11,68,,,
21119,control_change,23,0,3,,,,,,,,,2,11,68,,,
21120,note_on,0,0,7,,,,,,,,,10,,,,84,111
21120,set_tempo,60,1,0,,,,,,960000,,,,,,,,
21120,note_on,24,0,7,,,,,,,,,10,,,,72,0
21121,control_change,23,0,4,,,,,,,,,3,11,68,,,
21122,note_on,24,0,8,,,,,,,,,11,,,,64,0
21122,note_on,24,0,9,,,,,,,,,12,,,,55,0
21122,note_on,0,0,9,,,,,,,,,12,,,,52,66
21122,note_on,0,0,8,,,,,,,,,11,,,,67,68
21123,control_change,24,0,5,,,,,,,,,4,11,62,,,
21124,note_on,24,0,10,,,,,,,,,6,,,,52,0
21124,note_on,0,0,10,,,,,,,,,6,,,,48,62
21124,control_change,4,0,7,,,,,,,,,10,11,64,,,
21125,control_change,24,0,6,,,,,,,,,5,11,62,,,
21126,control_change,4,0,8,,,,,,,,,11,11,64,,,
21126,control_change,4,0,9,,,,,,,,,12,11,64,,,
21128,control_change,4,0,10,,,,,,,,,6,11,64,,,
21138,control_change,22,0,1,,,,,,,,,0,11,70,,,
21139,control_change,15,0,7,,,,,,,,,10,11,65,,,
21140,control_change,22,0,2,,,,,,,,,1,11,70,,,
21141,control_change,15,0,8,,,,,,,,,11,11,65,,,
21141,control_change,22,0,3,,,,,,,,,2,11,70,,,
21141,control_change,15,0,9,,,,,,,,,12,11,65,,,
21143,control_change,15,0,10,,,,,,,,,6,11,65,,,
21143,control_change,22,0,4,,,,,,,,,3,11,70,,,
21147,control_change,24,0,5,,,,,,,,,4,11,64,,,
21149,control_change,24,0,6,,,,,,,,,5,11,64,,,
21150,note_on,0,0,7,,,,,,,,,10,,,,79,111
21150,note_on,11,0,7,,,,,,,,,10,,,,84,0
21152,note_on,0,0,8,,,,,,,,,11,,,,64,68
21152,note_on,11,0,8,,,,,,,,,11,,,,67,0
21152,note_on,0,0,9,,,,,,,,,12,,,,55,66
21152,note_on,11,0,9,,,,,,,,,12,,,,52,0
21154,note_on,11,0,10,,,,,,,,,6,,,,48,0
21154,note_on,0,0,10,,,,,,,,,6,,,,52,62
21161,control_change,23,0,1,,,,,,,,,0,11,72,,,
21163,control_change,23,0,2,,,,,,,,,1,11,72,,,
21164,control_change,23,0,3,,,,,,,,,2,11,72,,,
21166,control_change,23,0,4,,,,,,,,,3,11,72,,,
21168,control_change,18,0,7,,,,,,,,,10,11,67,,,
21170,control_change,18,0,8,,,,,,,,,11,11,67,,,
21170,control_change,18,0,9,,,,,,,,,12,11,67,,,
21171,control_change,24,0,5,,,,,,,,,4,11,66,,,
21172,control_change,18,0,10,,,,,,,,,6,11,67,,,
21173,control_change,24,0,6,,,,,,,,,5,11,66,,,
21180,note_on,0,0,7,,,,,,,,,10,,,,76,111
21180,note_on,12,0,7,,,,,,,,,10,,,,79,0
21182,note_on,12,0,9,,,,,,,,,12,,,,55,0
21182,note_on,0,0,9,,,,,,,,,12,,,,52,66
21182,note_on,12,0,8,,,,,,,,,11,,,,64,0
21182,note_on,0,0,8,,,,,,,,,11,,,,67,68
21183,control_change,22,0,1,,,,,,,,,0,11,74,,,
21184,note_on,0,0,10,,,,,,,,,6,,,,48,62
21184,note_on,12,0,10,,,,,,,,,6,,,,52,0
21185,control_change,22,0,2,,,,,,,,,1,11,74,,,
21185,note_on,120,0,11,,,,,,,,,13,,,,48,0
21186,control_change,22,0,3,,,,,,,,,2,11,74,,,
21188,control_change,22,0,4,,,,,,,,,3,11,74,,,
21188,note_on,120,0,12,,,,,,,,,14,,,,36,0
21195,control_change,24,0,5,,,,,,,,,4,11,68,,,
21196,control_change,16,0,7,,,,,,,,,10,11,69,,,
21197,control_change,24,0,6,,,,,,,,,5,11,68,,,
21198,control_change,16,0,8,,,,,,,,,11,11,69,,,
21198,control_change,16,0,9,,,,,,,,,12,11,69,,,
21200,control_change,16,0,10,,,,,,,,,6,11,69,,,
21206,control_change,23,0,1,,,,,,,,,0,11,76,,,
21208,control_change,23,0,2,,,,,,,,,1,11,76,,,
21209,control_change,23,0,3,,,,,,,,,2,11,76,,,
21210,note_on,0,0,7,,,,,,,,,10,,,,72,111
21210,note_on,14,0,7,,,,,,,,,10,,,,76,0
21211,control_change,23,0,4,,,,,,,,,3,11,76,,,
21211,control_change,1,0,7,,,,,,,,,10,11,70,,,
21212,note_on,0,0,9,,,,,,,,,12,,,,55,66
21212,note_on,14,0,9,,,,,,,,,12,,,,52,0
21212,note_on,0,0,8,,,,,,,,,11,,,,64,68
21212,note_on,14,0,8,,,,,,,,,11,,,,67,0
21213,control_change,1,0,8,,,,,,,,,11,11,70,,,
21213,control_change,1,0,9,,,,,,,,,12,11,70,,,
21214,note_on,14,0,10,,,,,,,,,6,,,,48,0
21214,note_on,0,0,10,,,,,,,,,6,,,,52,62
21215,control_change,1,0,10,,,,,,,,,6,11,70,,,
21219,control_change,24,0,5,,,,,,,,,4,11,70,,,
21221,control_change,24,0,6,,,,,,,,,5,11,70,,,
21228,control_change,22,0,1,,,,,,,,,0,11,78,,,
21230,control_change,22,0,2,,,,,,,,,1,11,78,,,
21231,control_change,22,0,3,,,,,,,,,2,11,78,,,
21233,control_change,22,0,4,,,,,,,,,3,11,78,,,
21235,note_on,0,0,1,,,,,,,,,0,,,,79,0
21235,note_on,7,0,1,,,,,,,,,0,,,,84,0
21237,note_on,24,0,9,,,,,,,,,12,,,,55,0
21237,note_on,7,0,2,,,,,,,,,1,,,,76,0
21237,note_on,0,0,2,,,,,,,,,1,,,,67,0
21237,note_on,24,0,8,,,,,,,,,11,,,,64,0
21238,note_on,7,0,3,,,,,,,,,2,,,,72,0
21238,note_on,19,0,5,,,,,,,,,4,,,,60,0
21238,note_on,0,0,3,,,,,,,,,2,,,,64,0
21239,note_on,24,0,10,,,,,,,,,6,,,,52,0
21240,set_tempo,120,1,0,,,,,,1081081,,,,,,,,
21240,note_on,7,0,4,,,,,,,,,3,,,,55,0
21240,note_on,0,0,1,,,,,,,,,0,,,,72,96
21240,note_on,29,0,7,,,,,,,,,10,,,,72,0
21240,note_on,0,0,4,,,,,,,,,3,,,,48,0
21240,note_on,5,0,1,,,,,,,,,0,,,,82,96
21240,note_on,0,0,7,,,,,,,,,10,,,,82,111
21240,control_change,0,0,7,,,,,,,,,10,11,72,,,
21240,note_on,19,0,6,,,,,,,,,5,,,,60,0
21242,note_on,0,0,2,,,,,,,,,1,,,,79,95
21242,note_on,0,0,8,,,,,,,,,11,,,,67,68
21242,control_change,5,0,8,,,,,,,,,11,11,72,,,
21242,note_on,5,0,2,,,,,,,,,1,,,,76,95
21242,note_on,0,0,9,,,,,,,,,12,,,,52,66
21242,control_change,5,0,9,,,,,,,,,12,11,72,,,
21243,note_on,5,0,5,,,,,,,,,4,,,,60,82
21243,control_change,0,0,5,,,,,,,,,4,11,72,,,
21243,note_on,5,0,3,,,,,,,,,2,,,,67,96
21243,note_on,0,0,3,,,,,,,,,2,,,,70,96
21244,control_change,5,0,10,,,,,,,,,6,11,72,,,
21244,note_on,0,0,10,,,,,,,,,6,,,,48,62
21245,note_on,60,0,11,,,,,,,,,13,,,,48,74
21245,note_on,5,0,4,,,,,,,,,3,,,,55,95
21245,control_change,0,0,6,,,,,,,,,5,11,72,,,
21245,note_on,5,0,6,,,,,,,,,5,,,,60,82
21245,note_on,0,0,4,,,,,,,,,3,,,,48,95
21248,note_on,60,0,12,,,,,,,,,14,,,,36,69
21249,control_change,9,0,1,,,,,,,,,0,11,78,,,
21251,control_change,9,0,2,,,,,,,,,1,11,78,,,
21252,control_change,9,0,3,,,,,,,,,2,11,78,,,
21254,control_change,9,0,4,,,,,,,,,3,11,78,,,
21267,control_change,24,0,5,,,,,,,,,4,11,70,,,
21268,control_change,19,0,1,,,,,,,,,0,11,76,,,
21268,control_change,28,0,7,,,,,,,,,10,11,70,,,
21269,control_change,24,0,6,,,,,,,,,5,11,70,,,
21270,control_change,19,0,2,,,,,,,,,1,11,76,,,
21270,control_change,28,0,8,,,,,,,,,11,11,70,,,
21270,control_change,28,0,9,,,,,,,,,12,11,70,,,
21270,note_on,2,0,7,,,,,,,,,10,,,,82,0
21270,note_on,0,0,7,,,,,,,,,10,,,,79,111
21271,control_change,19,0,3,,,,,,,,,2,11,76,,,
21272,note_on,2,0,8,,,,,,,,,11,,,,67,0
21272,note_on,0,0,8,,,,,,,,,11,,,,64,68
21272,note_on,0,0,9,,,,,,,,,12,,,,55,66
21272,control_change,28,0,10,,,,,,,,,6,11,70,,,
21272,note_on,2,0,9,,,,,,,,,12,,,,52,0
21273,control_change,19,0,4,,,,,,,,,3,11,76,,,
21274,note_on,2,0,10,,,,,,,,,6,,,,48,0
21274,note_on,0,0,10,,,,,,,,,6,,,,52,62
21283,control_change,13,0,7,,,,,,,,,10,11,69,,,
21285,control_change,13,0,8,,,,,,,,,11,11,69,,,
21285,control_change,13,0,9,,,,,,,,,12,11,69,,,
21287,control_change,13,0,10,,,,,,,,,6,11,69,,,
21287,control_change,19,0,1,,,,,,,,,0,11,75,,,
21289,control_change,19,0,2,,,,,,,,,1,11,75,,,
21290,control_change,19,0,3,,,,,,,,,2,11,75,,,
21291,control_change,24,0,5,,,,,,,,,4,11,68,,,
21292,control_change,19,0,4,,,,,,,,,3,11,75,,,
21293,control_change,24,0,6,,,,,,,,,5,11,68,,,
21300,set_tempo,60,1,0,,,,,,983607,,,,,,,,
21300,note_on,17,0,7,,,,,,,,,10,,,,79,0
21300,note_on,0,0,7,,,,,,,,,10,,,,76,111
21302,note_on,0,0,8,,,,,,,,,11,,,,67,68
21302,note_on,17,0,8,,,,,,,,,11,,,,64,0
21302,note_on,0,0,9,,,,,,,,,12,,,,52,66
21302,note_on,17,0,9,,,,,,,,,12,,,,55,0
21304,note_on,17,0,10,,,,,,,,,6,,,,52,0
21304,note_on,0,0,10,,,,,,,,,6,,,,48,62
21306,control_change,19,0,1,,,,,,,,,0,11,73,,,
21308,control_change,19,0,2,,,,,,,,,1,11,73,,,
21309,control_change,19,0,3,,,,,,,,,2,11,73,,,
21311,control_change,19,0,4,,,,,,,,,3,11,73,,,
21312,control_change,12,0,7,,,,,,,,,10,11,67,,,
21314,control_change,12,0,9,,,,,,,,,12,11,67,,,
21314,control_change,12,0,8,,,,,,,,,11,11,67,,,
21315,control_change,24,0,5,,,,,,,,,4,11,66,,,
21316,control_change,12,0,10,,,,,,,,,6,11,67,,,
21317,control_change,24,0,6,,,,,,,,,5,11,66,,,
21325,control_change,19,0,1,,,,,,,,,0,11,71,,,
21327,control_change,19,0,2,,,,,,,,,1,11,71,,,
21328,control_change,19,0,3,,,,,,,,,2,11,71,,,
21330,control_change,19,0,4,,,,,,,,,3,11,71,,,
21330,note_on,0,0,7,,,,,,,,,10,,,,72,111
21330,note_on,18,0,7,,,,,,,,,10,,,,76,0
21332,note_on,0,0,9,,,,,,,,,12,,,,55,66
21332,note_on,0,0,8,,,,,,,,,11,,,,64,68
21332,note_on,18,0,8,,,,,,,,,11,,,,67,0
21332,note_on,18,0,9,,,,,,,,,12,,,,52,0
21334,note_on,18,0,10,,,,,,,,,6,,,,48,0
21334,note_on,0,0,10,,,,,,,,,6,,,,52,62
21339,control_change,24,0,5,,,,,,,,,4,11,64,,,
21340,control_change,10,0,7,,,,,,,,,10,11,65,,,
21341,control_change,24,0,6,,,,,,,,,5,11,64,,,
21342,control_change,10,0,9,,,,,,,,,12,11,65,,,
21342,control_change,10,0,8,,,,,,,,,11,11,65,,,
21343,control_change,18,0,1,,,,,,,,,0,11,70,,,
21344,control_change,10,0,10,,,,,,,,,6,11,65,,,
21345,control_change,18,0,2,,,,,,,,,1,11,70,,,
21346,control_change,18,0,3,,,,,,,,,2,11,70,,,
21348,control_change,18,0,4,,,,,,,,,3,11,70,,,
21355,control_change,15,0,7,,,,,,,,,10,11,64,,,
21357,control_change,15,0,8,,,,,,,,,11,11,64,,,
21357,control_change,15,0,9,,,,,,,,,12,11,64,,,
21359,control_change,15,0,10,,,,,,,,,6,11,64,,,
21360,note_on,5,0,7,,,,,,,,,10,,,,72,0
21360,note_on,0,0,7,,,,,,,,,10,,,,82,111
21362,note_on,0,0,8,,,,,,,,,11,,,,67,68
21362,control_change,19,0,1,,,,,,,,,0,11,68,,,
21362,note_on,0,0,9,,,,,,,,,12,,,,52,66
21362,note_on,5,0,8,,,,,,,,,11,,,,64,0
21362,note_on,5,0,9,,,,,,,,,12,,,,55,0
21363,control_change,24,0,5,,,,,,,,,4,11,62,,,
21364,note_on,5,0,10,,,,,,,,,6,,,,52,0
21364,control_change,19,0,2,,,,,,,,,1,11,68,,,
21364,note_on,0,0,10,,,,,,,,,6,,,,48,62
21365,note_on,120,0,11,,,,,,,,,13,,,,48,0
21365,control_change,19,0,3,,,,,,,,,2,11,68,,,
21365,control_change,24,0,6,,,,,,,,,5,11,62,,,
21367,control_change,19,0,4,,,,,,,,,3,11,68,,,
21368,note_on,120,0,12,,,,,,,,,14,,,,36,0
21381,control_change,19,0,1,,,,,,,,,0,11,66,,,
21383,control_change,19,0,2,,,,,,,,,1,11,66,,,
21384,control_change,19,0,3,,,,,,,,,2,11,66,,,
21384,control_change,24,0,7,,,,,,,,,10,11,62,,,
21386,control_change,19,0,4,,,,,,,,,3,11,66,,,
21386,control_change,24,0,9,,,,,,,,,12,11,62,,,
21386,control_change,24,0,8,,,,,,,,,11,11,62,,,
21387,control_change,24,0,5,,,,,,,,,4,11,60,,,
21388,control_change,24,0,10,,,,,,,,,6,11,62,,,
21389,control_change,24,0,6,,,,,,,,,5,11,60,,,
21390,note_on,0,0,7,,,,,,,,,10,,,,79,111
21390,note_on,6,0,7,,,,,,,,,10,,,,82,0
21392,note_on,0,0,8,,,,,,,,,11,,,,64,68
21392,note_on,0,0,9,,,,,,,,,12,,,,55,66
21392,note_on,6,0,8,,,,,,,,,11,,,,67,0
21392,note_on,6,0,9,,,,,,,,,12,,,,52,0
21394,note_on,0,0,10,,,,,,,,,6,,,,52,62
21394,note_on,6,0,10,,,,,,,,,6,,,,48,0
21400,control_change,19,0,1,,,,,,,,,0,11,65,,,
21402,control_change,19,0,2,,,,,,,,,1,11,65,,,
21403,control_change,19,0,3,,,,,,,,,2,11,65,,,
21405,control_change,19,0,4,,,,,,,,,3,11,65,,,
21411,control_change,24,0,5,,,,,,,,,4,11,58,,,
21412,control_change,22,0,7,,,,,,,,,10,11,60,,,
21413,control_change,24,0,6,,,,,,,,,5,11,58,,,
21414,control_change,22,0,9,,,,,,,,,12,11,60,,,
21414,control_change,22,0,8,,,,,,,,,11,11,60,,,
21416,control_change,22,0,10,,,,,,,,,6,11,60,,,
21419,control_change,19,0,1,,,,,,,,,0,11,63,,,
21420,note_on,8,0,7,,,,,,,,,10,,,,79,0
21420,set_tempo,120,1,0,,,,,,1061947,,,,,,,,
21420,note_on,0,0,7,,,,,,,,,10,,,,76,111
21421,control_change,19,0,2,,,,,,,,,1,11,63,,,
21422,control_change,19,0,3,,,,,,,,,2,11,63,,,
21422,note_on,0,0,9,,,,,,,,,12,,,,52,66
21422,note_on,8,0,9,,,,,,,,,12,,,,55,0
21422,note_on,0,0,8,,,,,,,,,11,,,,67,68
21422,note_on,8,0,8,,,,,,,,,11,,,,64,0
21424,note_on,8,0,10,,,,,,,,,6,,,,52,0
21424,control_change,19,0,4,,,,,,,,,3,11,63,,,
21424,note_on,0,0,10,,,,,,,,,6,,,,48,62
21425,note_on,60,0,11,,,,,,,,,13,,,,48,61
21427,control_change,7,0,7,,,,,,,,,10,11,59,,,
21428,note_on,60,0,12,,,,,,,,,14,,,,36,55
21429,control_change,7,0,9,,,,,,,,,12,11,59,,,
21429,control_change,7,0,8,,,,,,,,,11,11,59,,,
21431,control_change,7,0,10,,,,,,,,,6,11,59,,,
21435,control_change,24,0,5,,,,,,,,,4,11,56,,,
21437,control_change,24,0,6,,,,,,,,,5,11,56,,,
21438,control_change,19,0,1,,,,,,,,,0,11,61,,,
21440,control_change,19,0,2,,,,,,,,,1,11,61,,,
21441,control_change,19,0,3,,,,,,,,,2,11,61,,,
21443,control_change,19,0,4,,,,,,,,,3,11,61,,,
21450,note_on,23,0,7,,,,,,,,,10,,,,76,0
21450,note_on,0,0,7,,,,,,,,,10,,,,72,111
21452,note_on,0,0,9,,,,,,,,,12,,,,55,66
21452,note_on,0,0,8,,,,,,,,,11,,,,64,68
21452,note_on,23,0,8,,,,,,,,,11,,,,67,0
21452,note_on,23,0,9,,,,,,,,,12,,,,52,0
21454,note_on,0,0,10,,,,,,,,,6,,,,52,62
21454,note_on,23,0,10,,,,,,,,,6,,,,48,0
21456,control_change,6,0,7,,,,,,,,,10,11,57,,,
21457,control_change,19,0,1,,,,,,,,,0,11,60,,,
21458,control_change,6,0,9,,,,,,,,,12,11,57,,,
21458,control_change,6,0,8,,,,,,,,,11,11,57,,,
21459,control_change,19,0,2,,,,,,,,,1,11,60,,,
21459,control_change,24,0,5,,,,,,,,,4,11,54,,,
21460,control_change,19,0,3,,,,,,,,,2,11,60,,,
21460,control_change,6,0,10,,,,,,,,,6,11,57,,,
21461,control_change,24,0,6,,,,,,,,,5,11,54,,,
21462,control_change,19,0,4,,,,,,,,,3,11,60,,,
21476,control_change,19,0,1,,,,,,,,,0,11,58,,,
21478,control_change,19,0,2,,,,,,,,,1,11,58,,,
21479,control_change,19,0,3,,,,,,,,,2,11,58,,,
21480,note_on,24,0,7,,,,,,,,,10,,,,72,0
21480,set_tempo,60,1,0,,,,,,1008403,,,,,,,,
21480,note_on,0,0,7,,,,,,,,,10,,,,70,111
21481,control_change,19,0,4,,,,,,,,,3,11,58,,,
21482,note_on,0,0,8,,,,,,,,,11,,,,67,68
21482,note_on,24,0,9,,,,,,,,,12,,,,55,0
21482,note_on,24,0,8,,,,,,,,,11,,,,64,0
21482,note_on,0,0,9,,,,,,,,,12,,,,52,66
21483,control_change,24,0,5,,,,,,,,,4,11,52,,,
21484,note_on,24,0,10,,,,,,,,,6,,,,52,0
21484,control_change,4,0,7,,,,,,,,,10,11,55,,,
21484,note_on,0,0,10,,,,,,,,,6,,,,48,62
21485,control_change,24,0,6,,,,,,,,,5,11,52,,,
21486,control_change,4,0,9,,,,,,,,,12,11,55,,,
21486,control_change,4,0,8,,,,,,,,,11,11,55,,,
21488,control_change,4,0,10,,,,,,,,,6,11,55,,,
21495,control_change,19,0,1,,,,,,,,,0,11,56,,,
21497,control_change,19,0,2,,,,,,,,,1,11,56,,,
21498,control_change,19,0,3,,,,,,,,,2,11,56,,,
21499,control_change,15,0,7,,,,,,,,,10,11,54,,,
21500,control_change,19,0,4,,,,,,,,,3,11,56,,,
21501,control_change,15,0,8,,,,,,,,,11,11,54,,,
21501,control_change,15,0,9,,,,,,,,,12,11,54,,,
21503,control_change,15,0,10,,,,,,,,,6,11,54,,,
21507,control_change,24,0,5,,,,,,,,,4,11,50,,,
21509,control_change,24,0,6,,,,,,,,,5,11,50,,,
21510,note_on,11,0,7,,,,,,,,,10,,,,70,0
21510,note_on,0,0,7,,,,,,,,,10,,,,67,111
21512,note_on,11,0,8,,,,,,,,,11,,,,67,0
21512,note_on,11,0,9,,,,,,,,,12,,,,52,0
21512,note_on,0,0,8,,,,,,,,,11,,,,64,68
21512,note_on,0,0,9,,,,,,,,,12,,,,55,66
21513,control_change,18,0,1,,,,,,,,,0,11,55,,,
21514,note_on,11,0,10,,,,,,,,,6,,,,48,0
21514,note_on,0,0,10,,,,,,,,,6,,,,52,62
21515,control_change,18,0,2,,,,,,,,,1,11,55,,,
21516,control_change,18,0,3,,,,,,,,,2,11,55,,,
21518,control_change,18,0,4,,,,,,,,,3,11,55,,,
21528,control_change,18,0,7,,,,,,,,,10,11,52,,,
21530,control_change,18,0,9,,,,,,,,,12,11,52,,,
21530,control_change,18,0,8,,,,,,,,,11,11,52,,,
21531,control_change,24,0,5,,,,,,,,,4,11,48,,,
21532,control_change,19,0,1,,,,,,,,,0,11,53,,,
21532,control_change,18,0,10,,,,,,,,,6,11,52,,,
21533,control_change,24,0,6,,,,,,,,,5,11,48,,,
21534,control_change,19,0,2,,,,,,,,,1,11,53,,,
21535,control_change,19,0,3,,,,,,,,,2,11,53,,,
21537,control_change,19,0,4,,,,,,,,,3,11,53,,,
21540,note_on,12,0,7,,,,,,,,,10,,,,67,0
21540,note_on,0,0,7,,,,,,,,,10,,,,64,111
21542,note_on,12,0,9,,,,,,,,,12,,,,55,0
21542,note_on,0,0,9,,,,,,,,,12,,,,52,66
21542,note_on,12,0,8,,,,,,,,,11,,,,64,0
21542,note_on,0,0,8,,,,,,,,,11,,,,67,68
21544,note_on,0,0,10,,,,,,,,,6,,,,48,62
21544,note_on,12,0,10,,,,,,,,,6,,,,52,0
21545,note_on,120,0,11,,,,,,,,,13,,,,48,0
21548,note_on,120,0,12,,,,,,,,,14,,,,36,0
21551,control_change,19,0,1,,,,,,,,,0,11,52,,,
21553,control_change,19,0,2,,,,,,,,,1,11,52,,,
21554,control_change,19,0,3,,,,,,,,,2,11,52,,,
21555,control_change,24,0,5,,,,,,,,,4,11,46,,,
21556,control_change,19,0,4,,,,,,,,,3,11,52,,,
21556,control_change,16,0,7,,,,,,,,,10,11,50,,,
21557,control_change,24,0,6,,,,,,,,,5,11,46,,,
21558,control_change,16,0,8,,,,,,,,,11,11,50,,,
21558,control_change,16,0,9,,,,,,,,,12,11,50,,,
21560,control_change,16,0,10,,,,,,,,,6,11,50,,,
21570,control_change,19,0,1,,,,,,,,,0,11,50,,,
21570,note_on,14,0,7,,,,,,,,,10,,,,64,0
21570,note_on,0,0,7,,,,,,,,,10,,,,60,111
21571,control_change,1,0,7,,,,,,,,,10,11,49,,,
21572,control_change,19,0,2,,,,,,,,,1,11,50,,,
21572,note_on,14,0,8,,,,,,,,,11,,,,67,0
21572,note_on,0,0,8,,,,,,,,,11,,,,64,68
21572,note_on,14,0,9,,,,,,,,,12,,,,52,0
21572,note_on,0,0,9,,,,,,,,,12,,,,55,66
21573,control_change,1,0,9,,,,,,,,,12,11,49,,,
21573,control_change,19,0,3,,,,,,,,,2,11,50,,,
21573,control_change,1,0,8,,,,,,,,,11,11,49,,,
21574,note_on,14,0,10,,,,,,,,,6,,,,48,0
21574,note_on,0,0,10,,,,,,,,,6,,,,52,62
21575,control_change,19,0,4,,,,,,,,,3,11,50,,,
21575,control_change,1,0,10,,,,,,,,,6,11,49,,,
21579,control_change,24,0,5,,,,,,,,,4,11,44,,,
21581,control_change,24,0,6,,,,,,,,,5,11,44,,,
21585,set_tempo,105,1,0,,,,,,1318681,,,,,,,,
21589,control_change,19,0,1,,,,,,,,,0,11,48,,,
21591,control_change,19,0,2,,,,,,,,,1,11,48,,,
21592,control_change,19,0,3,,,,,,,,,2,11,48,,,
21594,control_change,19,0,4,,,,,,,,,3,11,48,,,
21595,note_on,24,0,7,,,,,,,,,10,,,,60,0
21595,note_on,6,0,1,,,,,,,,,0,,,,72,0
21595,note_on,0,0,1,,,,,,,,,0,,,,82,0
21597,note_on,24,0,9,,,,,,,,,12,,,,55,0
21597,note_on,0,0,2,,,,,,,,,1,,,,76,0
21597,note_on,6,0,2,,,,,,,,,1,,,,79,0
21597,note_on,24,0,8,,,,,,,,,11,,,,64,0
21598,note_on,0,0,3,,,,,,,,,2,,,,67,0
21598,note_on,6,0,3,,,,,,,,,2,,,,70,0
21598,note_on,19,0,5,,,,,,,,,4,,,,60,0
21599,note_on,24,0,10,,,,,,,,,6,,,,52,0
21599,control_change,4,0,1,,,,,,,,,0,11,39,,,
21600,note_on,19,0,6,,,,,,,,,5,,,,60,0
21600,control_change,0,0,1,,,,,,,,,0,11,62,,,
21600,note_on,1,0,1,,,,,,,,,0,,,,81,96
21600,note_on,6,0,4,,,,,,,,,3,,,,48,0
21600,control_change,5,0,7,,,,,,,,,10,11,47,,,
21600,note_on,0,0,4,,,,,,,,,3,,,,55,0
21600,set_tempo,15,1,0,,,,,,1061947,,,,,,,,
21600,note_on,0,0,7,,,,,,,,,10,,,,57,103
21601,control_change,4,0,2,,,,,,,,,1,11,39,,,
21602,control_change,4,0,3,,,,,,,,,2,11,39,,,
21602,control_change,5,0,9,,,,,,,,,12,11,47,,,
21602,note_on,0,0,9,,,,,,,,,12,,,,57,53
21602,note_on,0,0,8,,,,,,,,,11,,,,69,55
21602,note_on,1,0,2,,,,,,,,,1,,,,72,82
21602,note_on,0,0,2,,,,,,,,,1,,,,77,82
21602,control_change,5,0,8,,,,,,,,,11,11,47,,,
21603,note_on,1,0,3,,,,,,,,,2,,,,65,83
21603,note_on,0,0,5,,,,,,,,,4,,,,60,82
21603,control_change,5,0,5,,,,,,,,,4,11,42,,,
21603,note_on,0,0,3,,,,,,,,,2,,,,69,83
21604,control_change,5,0,10,,,,,,,,,6,11,47,,,
21604,control_change,4,0,4,,,,,,,,,3,11,39,,,
21604,note_on,0,0,10,,,,,,,,,6,,,,53,55
21605,control_change,0,0,6,,,,,,,,,5,11,42,,,
21605,note_on,5,0,6,,,,,,,,,5,,,,53,82
21605,note_on,1,0,4,,,,,,,,,3,,,,53,82
21605,note_on,0,0,4,,,,,,,,,3,,,,57,82
21605,note_on,60,0,11,,,,,,,,,13,,,,53,43
21608,note_on,60,0,12,,,,,,,,,14,,,,41,38
21615,note_on,15,0,7,,,,,,,,,10,,,,57,0
21630,note_on,15,0,7,,,,,,,,,10,,,,60,103
21645,note_on,15,0,7,,,,,,,,,10,,,,60,0
21660,note_on,15,0,7,,,,,,,,,10,,,,65,103
21660,note_on,0,0,1,,,,,,,,,0,,,,77,96
21660,note_on,60,0,1,,,,,,,,,0,,,,81,0
21660,set_tempo,60,1,0,,,,,,967742,,,,,,,,
21675,note_on,15,0,7,,,,,,,,,10,,,,65,0
21690,note_on,15,0,7,,,,,,,,,10,,,,60,103
21705,note_on,15,0,7,,,,,,,,,10,,,,60,0
21720,note_on,60,0,1,,,,,,,,,0,,,,77,0
21720,note_on,0,0,1,,,,,,,,,0,,,,76,96
21720,note_on,15,0,7,,,,,,,,,10,,,,57,103
21722,note_on,120,0,9,,,,,,,,,12,,,,57,0
21722,note_on,120,0,8,,,,,,,,,11,,,,69,0
21722,note_on,0,0,2,,,,,,,,,1,,,,72,0
21722,note_on,120,0,2,,,,,,,,,1,,,,77,0
21723,note_on,120,0,3,,,,,,,,,2,,,,69,0
21723,note_on,0,0,3,,,,,,,,,2,,,,65,0
21723,note_on,120,0,5,,,,,,,,,4,,,,60,0
21724,note_on,120,0,10,,,,,,,,,6,,,,53,0
21725,note_on,120,0,6,,,,,,,,,5,,,,53,0
21725,note_on,120,0,11,,,,,,,,,13,,,,53,0
21725,note_on,0,0,4,,,,,,,,,3,,,,53,0
21725,note_on,120,0,4,,,,,,,,,3,,,,57,0
21728,note_on,120,0,12,,,,,,,,,14,,,,41,0
21735,note_on,15,0,7,,,,,,,,,10,,,,57,0
21750,note_on,15,0,7,,,,,,,,,10,,,,60,103
21765,note_on,15,0,7,,,,,,,,,10,,,,60,0
21775,note_on,55,0,1,,,,,,,,,0,,,,76,0
21780,set_tempo,120,1,0,,,,,,1034483,,,,,,,,
21780,note_on,5,0,1,,,,,,,,,0,,,,74,96
21780,note_on,15,0,7,,,,,,,,,10,,,,58,103
21781,program_change,59,0,8,,,,,,,,45,11,,,,,
21781,program_change,59,0,9,,,,,,,,45,12,,,,,
21782,note_on,0,0,2,,,,,,,,,1,,,,79,82
21782,note_on,60,0,2,,,,,,,,,1,,,,82,82
21782,note_on,0,0,9,,,,,,,,,12,,,,58,24
21782,note_on,0,0,8,,,,,,,,,11,,,,62,26
21782,control_change,1,0,8,,,,,,,,,11,11,100,,,
21782,control_change,1,0,9,,,,,,,,,12,11,100,,,
21783,note_on,0,0,3,,,,,,,,,2,,,,70,83
21783,program_change,59,0,10,,,,,,,,45,6,,,,,
21783,note_on,60,0,3,,,,,,,,,2,,,,74,83
21784,control_change,1,0,10,,,,,,,,,6,11,100,,,
21784,note_on,0,0,10,,,,,,,,,6,,,,46,26
21785,note_on,0,0,4,,,,,,,,,3,,,,58,82
21785,note_on,60,0,4,,,,,,,,,3,,,,62,82
21785,note_on,60,0,11,,,,,,,,,13,,,,46,29
21788,note_on,60,0,12,,,,,,,,,14,,,,34,23
21795,note_on,15,0,7,,,,,,,,,10,,,,58,0
21810,note_on,15,0,7,,,,,,,,,10,,,,62,103
21825,note_on,15,0,7,,,,,,,,,10,,,,62,0
21832,note_on,52,0,1,,,,,,,,,0,,,,74,0
21840,note_on,15,0,7,,,,,,,,,10,,,,67,103
21840,note_on,8,0,1,,,,,,,,,0,,,,82,96
21840,set_tempo,60,1,0,,,,,,937500,,,,,,,,
21855,note_on,15,0,7,,,,,,,,,10,,,,67,0
21870,note_on,15,0,7,,,,,,,,,10,,,,62,103
21885,note_on,15,0,7,,,,,,,,,10,,,,62,0
21892,note_on,52,0,1,,,,,,,,,0,,,,82,0
21900,note_on,15,0,7,,,,,,,,,10,,,,58,103
21900,note_on,8,0,1,,,,,,,,,0,,,,86,96
21902,note_on,120,0,9,,,,,,,,,12,,,,58,0
21902,note_on,0,0,2,,,,,,,,,1,,,,82,0
21902,note_on,120,0,2,,,,,,,,,1,,,,79,0
21902,note_on,120,0,8,,,,,,,,,11,,,,62,0
21903,note_on,0,0,3,,,,,,,,,2,,,,74,0
21903,note_on,120,0,3,,,,,,,,,2,,,,70,0
21904,note_on,120,0,10,,,,,,,,,6,,,,46,0
21905,note_on,120,0,11,,,,,,,,,13,,,,46,0
21905,note_on,120,0,4,,,,,,,,,3,,,,58,0
21905,note_on,0,0,4,,,,,,,,,3,,,,62,0
21908,note_on,120,0,12,,,,,,,,,14,,,,34,0
21915,note_on,15,0,7,,,,,,,,,10,,,,58,0
21930,note_on,15,0,7,,,,,,,,,10,,,,62,103
21945,note_on,15,0,7,,,,,,,,,10,,,,62,0
21952,note_on,52,0,1,,,,,,,,,0,,,,86,0
21960,set_tempo,120,1,0,,,,,,1034483,,,,,,,,
21960,note_on,8,0,1,,,,,,,,,0,,,,77,96
21960,note_on,15,0,7,,,,,,,,,10,,,,60,103
21962,note_on,0,0,2,,,,,,,,,1,,,,77,82
21962,note_on,60,0,2,,,,,,,,,1,,,,81,82
21962,note_on,60,0,8,,,,,,,,,11,,,,60,26
21962,note_on,60,0,9,,,,,,,,,12,,,,57,24
21963,note_on,60,0,3,,,,,,,,,2,,,,69,83
21963,note_on,0,0,3,,,,,,,,,2,,,,72,83
21964,note_on,60,0,10,,,,,,,,,6,,,,48,26
21965,note_on,0,0,4,,,,,,,,,3,,,,57,82
21965,note_on,60,0,11,,,,,,,,,13,,,,48,29
21965,note_on,60,0,4,,,,,,,,,3,,,,53,82
21968,note_on,60,0,12,,,,,,,,,14,,,,36,23
21975,note_on,15,0,7,,,,,,,,,10,,,,60,0
21990,note_on,15,0,7,,,,,,,,,10,,,,65,103
22005,note_on,15,0,7,,,,,,,,,10,,,,65,0
22020,set_tempo,60,1,0,,,,,,937500,,,,,,,,
22020,note_on,15,0,7,,,,,,,,,10,,,,69,103
22035,note_on,15,0,7,,,,,,,,,10,,,,69,0
22050,note_on,15,0,7,,,,,,,,,10,,,,65,103
22065,note_on,15,0,7,,,,,,,,,10,,,,65,0
22080,note_on,15,0,7,,,,,,,,,10,,,,60,103
22082,note_on,0,0,2,,,,,,,,,1,,,,81,0
22082,note_on,120,0,9,,,,,,,,,12,,,,57,0
22082,note_on,120,0,8,,,,,,,,,11,,,,60,0
22082,note_on,120,0,2,,,,,,,,,1,,,,77,0
22083,note_on,0,0,3,,,,,,,,,2,,,,69,0
22083,note_on,120,0,3,,,,,,,,,2,,,,72,0
22084,note_on,120,0,10,,,,,,,,,6,,,,48,0
22085,note_on,0,0,4,,,,,,,,,3,,,,53,0
22085,note_on,120,0,4,,,,,,,,,3,,,,57,0
22085,note_on,120,0,11,,,,,,,,,13,,,,48,0
22088,note_on,120,0,12,,,,,,,,,14,,,,36,0
22095,note_on,15,0,7,,,,,,,,,10,,,,60,0
22110,note_on,15,0,7,,,,,,,,,10,,,,65,103
22125,note_on,15,0,7,,,,,,,,,10,,,,65,0
22140,note_on,15,0,7,,,,,,,,,10,,,,60,103
22140,set_tempo,120,1,0,,,,,,1034483,,,,,,,,
22140,note_on,180,0,1,,,,,,,,,0,,,,77,0
22140,note_on,0,0,1,,,,,,,,,0,,,,81,96
22142,note_on,60,0,2,,,,,,,,,1,,,,76,82
22142,note_on,60,0,9,,,,,,,,,12,,,,58,24
22142,note_on,0,0,2,,,,,,,,,1,,,,79,82
22142,note_on,60,0,8,,,,,,,,,11,,,,64,26
22143,note_on,60,0,3,,,,,,,,,2,,,,67,83
22143,note_on,0,0,3,,,,,,,,,2,,,,72,83
22144,note_on,60,0,10,,,,,,,,,6,,,,48,26
22145,note_on,0,0,4,,,,,,,,,3,,,,55,82
22145,note_on,60,0,4,,,,,,,,,3,,,,58,82
22145,note_on,60,0,11,,,,,,,,,13,,,,48,29
22148,note_on,60,0,12,,,,,,,,,14,,,,36,23
22155,note_on,15,0,7,,,,,,,,,10,,,,60,0
22170,note_on,15,0,7,,,,,,,,,10,,,,64,103
22185,note_on,15,0,7,,,,,,,,,10,,,,64,0
22200,note_on,15,0,7,,,,,,,,,10,,,,67,103
22200,set_tempo,60,1,0,,,,,,937500,,,,,,,,
22215,note_on,15,0,7,,,,,,,,,10,,,,67,0
22230,note_on,15,0,7,,,,,,,,,10,,,,72,103
22245,note_on,15,0,7,,,,,,,,,10,,,,72,0
22260,note_on,120,0,1,,,,,,,,,0,,,,81,0
22260,note_on,0,0,1,,,,,,,,,0,,,,79,96
22260,note_on,15,0,7,,,,,,,,,10,,,,76,103
22262,note_on,0,0,2,,,,,,,,,1,,,,76,0
22262,note_on,120,0,9,,,,,,,,,12,,,,58,0
22262,note_on,120,0,2,,,,,,,,,1,,,,79,0
22262,note_on,120,0,8,,,,,,,,,11,,,,64,0
22263,note_on,0,0,3,,,,,,,,,2,,,,67,0
22263,note_on,120,0,3,,,,,,,,,2,,,,72,0
22264,note_on,120,0,10,,,,,,,,,6,,,,48,0
22265,note_on,120,0,11,,,,,,,,,13,,,,48,0
22265,note_on,0,0,4,,,,,,,,,3,,,,58,0
22265,note_on,120,0,4,,,,,,,,,3,,,,55,0
22268,note_on,120,0,12,,,,,,,,,14,,,,36,0
22275,note_on,15,0,7,,,,,,,,,10,,,,76,0
22290,note_on,15,0,7,,,,,,,,,10,,,,79,103
22305,note_on,15,0,7,,,,,,,,,10,,,,79,0
22315,note_on,55,0,1,,,,,,,,,0,,,,79,0
22320,note_on,0,0,7,,,,,,,,,10,,,,84,103
22320,control_change,15,0,7,,,,,,,,,10,11,47,,,
22320,set_tempo,120,1,0,,,,,,1034483,,,,,,,,
22320,control_change,5,0,1,,,,,,,,,0,11,47,,,
22321,program_change,59,0,8,,,,,,,,48,11,,,,,
22321,program_change,59,0,9,,,,,,,,48,12,,,,,
22322,control_change,1,0,8,,,,,,,,,11,11,47,,,
22322,note_on,0,0,2,,,,,,,,,1,,,,76,95
22322,note_on,0,0,2,,,,,,,,,1,,,,79,95
22322,note_on,0,0,8,,,,,,,,,11,,,,67,68
22322,control_change,60,0,2,,,,,,,,,1,11,47,,,
22322,note_on,0,0,9,,,,,,,,,12,,,,52,66
22322,control_change,1,0,9,,,,,,,,,12,11,47,,,
22323,program_change,59,0,10,,,,,,,,42,6,,,,,
22323,note_on,0,0,3,,,,,,,,,2,,,,64,96
22323,note_on,0,0,3,,,,,,,,,2,,,,67,96
22323,note_on,600,0,5,,,,,,,,,4,,,,60,82
22323,control_change,60,0,3,,,,,,,,,2,11,47,,,
22324,note_on,0,0,10,,,,,,,,,6,,,,48,62
22324,control_change,1,0,10,,,,,,,,,6,11,47,,,
22325,note_on,0,0,4,,,,,,,,,3,,,,60,95
22325,note_on,60,0,11,,,,,,,,,13,,,,48,52
22325,note_on,600,0,6,,,,,,,,,5,,,,60,82
22325,note_on,0,0,4,,,,,,,,,3,,,,48,95
22325,control_change,60,0,4,,,,,,,,,3,11,47,,,
22328,note_on,60,0,12,,,,,,,,,14,,,,36,45
22338,control_change,18,0,1,,,,,,,,,0,11,49,,,
22340,control_change,18,0,2,,,,,,,,,1,11,49,,,
22341,control_change,18,0,3,,,,,,,,,2,11,49,,,
22343,control_change,18,0,4,,,,,,,,,3,11,49,,,
22348,control_change,28,0,7,,,,,,,,,10,11,49,,,
22350,note_on,2,0,7,,,,,,,,,10,,,,84,0
22350,control_change,28,0,9,,,,,,,,,12,11,49,,,
22350,note_on,0,0,7,,,,,,,,,10,,,,79,103
22350,control_change,28,0,8,,,,,,,,,11,11,49,,,
22352,note_on,2,0,8,,,,,,,,,11,,,,67,0
22352,note_on,0,0,8,,,,,,,,,11,,,,64,68
22352,note_on,2,0,9,,,,,,,,,12,,,,52,0
22352,note_on,0,0,9,,,,,,,,,12,,,,55,66
22352,control_change,28,0,10,,,,,,,,,6,11,49,,,
22354,note_on,0,0,10,,,,,,,,,6,,,,52,62
22354,note_on,2,0,10,,,,,,,,,6,,,,48,0
22357,control_change,19,0,1,,,,,,,,,0,11,51,,,
22359,control_change,19,0,2,,,,,,,,,1,11,51,,,
22360,control_change,19,0,3,,,,,,,,,2,11,51,,,
22362,control_change,19,0,4,,,,,,,,,3,11,51,,,
22363,control_change,13,0,7,,,,,,,,,10,11,50,,,
22365,control_change,13,0,8,,,,,,,,,11,11,50,,,
22365,control_change,13,0,9,,,,,,,,,12,11,50,,,
22367,control_change,13,0,10,,,,,,,,,6,11,50,,,
22376,control_change,19,0,1,,,,,,,,,0,11,52,,,
22378,control_change,19,0,2,,,,,,,,,1,11,52,,,
22379,control_change,19,0,3,,,,,,,,,2,11,52,,,
22380,set_tempo,60,1,0,,,,,,937500,,,,,,,,
22380,note_on,17,0,7,,,,,,,,,10,,,,79,0
22380,note_on,0,0,7,,,,,,,,,10,,,,76,103
22381,control_change,19,0,4,,,,,,,,,3,11,52,,,
22382,note_on,17,0,8,,,,,,,,,11,,,,64,0
22382,note_on,0,0,9,,,,,,,,,12,,,,52,66
22382,note_on,0,0,8,,,,,,,,,11,,,,67,68
22382,note_on,17,0,9,,,,,,,,,12,,,,55,0
22384,note_on,17,0,10,,,,,,,,,6,,,,52,0
22384,note_on,0,0,10,,,,,,,,,6,,,,48,62
22392,control_change,12,0,7,,,,,,,,,10,11,52,,,
22394,control_change,12,0,9,,,,,,,,,12,11,52,,,
22394,control_change,12,0,8,,,,,,,,,11,11,52,,,
22395,control_change,19,0,1,,,,,,,,,0,11,54,,,
22396,control_change,12,0,10,,,,,,,,,6,11,52,,,
22397,control_change,19,0,2,,,,,,,,,1,11,54,,,
22398,control_change,19,0,3,,,,,,,,,2,11,54,,,
22400,control_change,19,0,4,,,,,,,,,3,11,54,,,
22410,note_on,18,0,7,,,,,,,,,10,,,,76,0
22410,note_on,0,0,7,,,,,,,,,10,,,,72,103
22412,note_on,18,0,9,,,,,,,,,12,,,,52,0
22412,note_on,0,0,9,,,,,,,,,12,,,,55,66
22412,note_on,0,0,8,,,,,,,,,11,,,,64,68
22412,note_on,18,0,8,,,,,,,,,11,,,,67,0
22414,control_change,19,0,1,,,,,,,,,0,11,55,,,
22414,note_on,0,0,10,,,,,,,,,6,,,,52,62
22414,note_on,18,0,10,,,,,,,,,6,,,,48,0
22416,control_change,19,0,2,,,,,,,,,1,11,55,,,
22417,control_change,19,0,3,,,,,,,,,2,11,55,,,
22419,control_change,19,0,4,,,,,,,,,3,11,55,,,
22420,control_change,10,0,7,,,,,,,,,10,11,54,,,
22422,control_change,10,0,8,,,,,,,,,11,11,54,,,
22422,control_change,10,0,9,,,,,,,,,12,11,54,,,
22424,control_change,10,0,10,,,,,,,,,6,11,54,,,
22433,control_change,19,0,1,,,,,,,,,0,11,57,,,
22435,control_change,15,0,7,,,,,,,,,10,11,55,,,
22435,control_change,19,0,2,,,,,,,,,1,11,57,,,
22436,control_change,19,0,3,,,,,,,,,2,11,57,,,
22437,control_change,15,0,8,,,,,,,,,11,11,55,,,
22437,control_change,15,0,9,,,,,,,,,12,11,55,,,
22438,control_change,19,0,4,,,,,,,,,3,11,57,,,
22439,control_change,15,0,10,,,,,,,,,6,11,55,,,
22440,note_on,5,0,7,,,,,,,,,10,,,,72,0
22440,note_on,0,0,7,,,,,,,,,10,,,,84,103
22442,note_on,0,0,8,,,,,,,,,11,,,,67,68
22442,note_on,5,0,8,,,,,,,,,11,,,,64,0
22442,note_on,0,0,9,,,,,,,,,12,,,,52,66
22442,note_on,5,0,9,,,,,,,,,12,,,,55,0
22444,note_on,0,0,10,,,,,,,,,6,,,,48,62
22444,note_on,5,0,10,,,,,,,,,6,,,,52,0
22445,note_on,120,0,11,,,,,,,,,13,,,,48,0
22448,note_on,120,0,12,,,,,,,,,14,,,,36,0
22452,control_change,19,0,1,,,,,,,,,0,11,59,,,
22454,control_change,19,0,2,,,,,,,,,1,11,59,,,
22455,control_change,19,0,3,,,,,,,,,2,11,59,,,
22457,control_change,19,0,4,,,,,,,,,3,11,59,,,
22464,control_change,24,0,7,,,,,,,,,10,11,57,,,
22466,control_change,24,0,9,,,,,,,,,12,11,57,,,
22466,control_change,24,0,8,,,,,,,,,11,11,57,,,
22468,control_change,24,0,10,,,,,,,,,6,11,57,,,
22470,note_on,0,0,7,,,,,,,,,10,,,,79,103
22470,note_on,6,0,7,,,,,,,,,10,,,,84,0
22471,control_change,19,0,1,,,,,,,,,0,11,61,,,
22472,note_on,6,0,8,,,,,,,,,11,,,,67,0
22472,note_on,6,0,9,,,,,,,,,12,,,,52,0
22472,note_on,0,0,9,,,,,,,,,12,,,,55,66
22472,note_on,0,0,8,,,,,,,,,11,,,,64,68
22473,control_change,19,0,2,,,,,,,,,1,11,61,,,
22474,control_change,19,0,3,,,,,,,,,2,11,61,,,
22474,note_on,0,0,10,,,,,,,,,6,,,,52,62
22474,note_on,6,0,10,,,,,,,,,6,,,,48,0
22476,control_change,19,0,4,,,,,,,,,3,11,61,,,
22490,control_change,19,0,1,,,,,,,,,0,11,62,,,
22492,control_change,22,0,7,,,,,,,,,10,11,59,,,
22492,control_change,19,0,2,,,,,,,,,1,11,62,,,
22493,control_change,19,0,3,,,,,,,,,2,11,62,,,
22494,control_change,22,0,8,,,,,,,,,11,11,59,,,
22494,control_change,22,0,9,,,,,,,,,12,11,59,,,
22495,control_change,19,0,4,,,,,,,,,3,11,62,,,
22496,control_change,22,0,10,,,,,,,,,6,11,59,,,
22500,note_on,0,0,7,,,,,,,,,10,,,,76,103
22500,set_tempo,120,1,0,,,,,,1061947,,,,,,,,
22500,note_on,8,0,7,,,,,,,,,10,,,,79,0
22502,note_on,8,0,9,,,,,,,,,12,,,,55,0
22502,note_on,0,0,9,,,,,,,,,12,,,,52,66
22502,note_on,8,0,8,,,,,,,,,11,,,,64,0
22502,note_on,0,0,8,,,,,,,,,11,,,,67,68
22504,note_on,8,0,10,,,,,,,,,6,,,,52,0
22504,note_on,0,0,10,,,,,,,,,6,,,,48,62
22505,note_on,60,0,11,,,,,,,,,13,,,,48,61
22507,control_change,7,0,7,,,,,,,,,10,11,60,,,
22508,control_change,18,0,1,,,,,,,,,0,11,64,,,
22508,note_on,60,0,12,,,,,,,,,14,,,,36,55
22509,control_change,7,0,8,,,,,,,,,11,11,60,,,
22509,control_change,7,0,9,,,,,,,,,12,11,60,,,
22510,control_change,18,0,2,,,,,,,,,1,11,64,,,
22511,control_change,18,0,3,,,,,,,,,2,11,64,,,
22511,control_change,7,0,10,,,,,,,,,6,11,60,,,
22513,control_change,18,0,4,,,,,,,,,3,11,64,,,
22527,control_change,19,0,1,,,,,,,,,0,11,65,,,
22529,control_change,19,0,2,,,,,,,,,1,11,65,,,
22530,control_change,19,0,3,,,,,,,,,2,11,65,,,
22530,note_on,0,0,7,,,,,,,,,10,,,,72,103
22530,note_on,23,0,7,,,,,,,,,10,,,,76,0
22532,note_on,0,0,9,,,,,,,,,12,,,,55,66
22532,note_on,0,0,8,,,,,,,,,11,,,,64,68
22532,note_on,23,0,8,,,,,,,,,11,,,,67,0
22532,control_change,19,0,4,,,,,,,,,3,11,65,,,
22532,note_on,23,0,9,,,,,,,,,12,,,,52,0
22534,note_on,23,0,10,,,,,,,,,6,,,,48,0
22534,note_on,0,0,10,,,,,,,,,6,,,,52,62
22536,control_change,6,0,7,,,,,,,,,10,11,62,,,
22538,control_change,6,0,8,,,,,,,,,11,11,62,,,
22538,control_change,6,0,9,,,,,,,,,12,11,62,,,
22540,control_change,6,0,10,,,,,,,,,6,11,62,,,
22546,control_change,19,0,1,,,,,,,,,0,11,67,,,
22548,control_change,19,0,2,,,,,,,,,1,11,67,,,
22549,control_change,19,0,3,,,,,,,,,2,11,67,,,
22551,control_change,19,0,4,,,,,,,,,3,11,67,,,
22560,set_tempo,60,1,0,,,,,,960000,,,,,,,,
22560,note_on,24,0,7,,,,,,,,,10,,,,72,0
22560,note_on,0,0,7,,,,,,,,,10,,,,84,103
22562,note_on,0,0,9,,,,,,,,,12,,,,52,66
22562,note_on,24,0,9,,,,,,,,,12,,,,55,0
22562,note_on,24,0,8,,,,,,,,,11,,,,64,0
22562,note_on,0,0,8,,,,,,,,,11,,,,67,68
22564,note_on,24,0,10,,,,,,,,,6,,,,52,0
22564,control_change,4,0,7,,,,,,,,,10,11,64,,,
22564,note_on,0,0,10,,,,,,,,,6,,,,48,62
22565,control_change,19,0,1,,,,,,,,,0,11,69,,,
22566,control_change,4,0,8,,,,,,,,,11,11,64,,,
22566,control_change,4,0,9,,,,,,,,,12,11,64,,,
22567,control_change,19,0,2,,,,,,,,,1,11,69,,,
22568,control_change,4,0,10,,,,,,,,,6,11,64,,,
22568,control_change,19,0,3,,,,,,,,,2,11,69,,,
22570,control_change,19,0,4,,,,,,,,,3,11,69,,,
22579,control_change,15,0,7,,,,,,,,,10,11,65,,,
22581,control_change,15,0,8,,,,,,,,,11,11,65,,,
22581,control_change,15,0,9,,,,,,,,,12,11,65,,,
22583,control_change,15,0,10,,,,,,,,,6,11,65,,,
22584,control_change,19,0,1,,,,,,,,,0,11,70,,,
22586,control_change,19,0,2,,,,,,,,,1,11,70,,,
22587,control_change,19,0,3,,,,,,,,,2,11,70,,,
22589,control_change,19,0,4,,,,,,,,,3,11,70,,,
22590,note_on,11,0,7,,,,,,,,,10,,,,84,0
22590,note_on,0,0,7,,,,,,,,,10,,,,79,103
22592,note_on,0,0,8,,,,,,,,,11,,,,64,68
22592,note_on,11,0,9,,,,,,,,,12,,,,52,0
22592,note_on,0,0,9,,,,,,,,,12,,,,55,66
22592,note_on,11,0,8,,,,,,,,,11,,,,67,0
22594,note_on,11,0,10,,,,,,,,,6,,,,48,0
22594,note_on,0,0,10,,,,,,,,,6,,,,52,62
22603,control_change,19,0,1,,,,,,,,,0,11,72,,,
22605,control_change,19,0,2,,,,,,,,,1,11,72,,,
22606,control_change,19,0,3,,,,,,,,,2,11,72,,,
22608,control_change,19,0,4,,,,,,,,,3,11,72,,,
22608,control_change,18,0,7,,,,,,,,,10,11,67,,,
22610,control_change,18,0,8,,,,,,,,,11,11,67,,,
22610,control_change,18,0,9,,,,,,,,,12,11,67,,,
22612,control_change,18,0,10,,,,,,,,,6,11,67,,,
22620,note_on,12,0,7,,,,,,,,,10,,,,79,0
22620,note_on,0,0,7,,,,,,,,,10,,,,76,103
22622,note_on,12,0,8,,,,,,,,,11,,,,64,0
22622,control_change,19,0,1,,,,,,,,,0,11,74,,,
22622,note_on,0,0,9,,,,,,,,,12,,,,52,66
22622,note_on,12,0,9,,,,,,,,,12,,,,55,0
22622,note_on,0,0,8,,,,,,,,,11,,,,67,68
22624,note_on,0,0,10,,,,,,,,,6,,,,48,62
22624,note_on,12,0,10,,,,,,,,,6,,,,52,0
22624,control_change,19,0,2,,,,,,,,,1,11,74,,,
22625,control_change,19,0,3,,,,,,,,,2,11,74,,,
22625,note_on,120,0,11,,,,,,,,,13,,,,48,0
22627,control_change,19,0,4,,,,,,,,,3,11,74,,,
22628,note_on,120,0,12,,,,,,,,,14,,,,36,0
22636,control_change,16,0,7,,,,,,,,,10,11,69,,,
22638,control_change,16,0,9,,,,,,,,,12,11,69,,,
22638,control_change,16,0,8,,,,,,,,,11,11,69,,,
22640,control_change,16,0,10,,,,,,,,,6,11,69,,,
22641,control_change,19,0,1,,,,,,,,,0,11,76,,,
22643,control_change,19,0,2,,,,,,,,,1,11,76,,,
22644,control_change,19,0,3,,,,,,,,,2,11,76,,,
22646,control_change,19,0,4,,,,,,,,,3,11,76,,,
22650,note_on,14,0,7,,,,,,,,,10,,,,76,0
22650,note_on,0,0,7,,,,,,,,,10,,,,72,103
22651,control_change,1,0,7,,,,,,,,,10,11,70,,,
22652,note_on,14,0,9,,,,,,,,,12,,,,52,0
22652,note_on,0,0,9,,,,,,,,,12,,,,55,66
22652,note_on,14,0,8,,,,,,,,,11,,,,67,0
22652,note_on,0,0,8,,,,,,,,,11,,,,64,68
22653,control_change,1,0,8,,,,,,,,,11,11,70,,,
22653,control_change,1,0,9,,,,,,,,,12,11,70,,,
22654,note_on,14,0,10,,,,,,,,,6,,,,48,0
22654,note_on,0,0,10,,,,,,,,,6,,,,52,62
22655,control_change,1,0,10,,,,,,,,,6,11,70,,,
22660,control_change,19,0,1,,,,,,,,,0,11,77,,,
22662,control_change,19,0,2,,,,,,,,,1,11,77,,,
22663,control_change,19,0,3,,,,,,,,,2,11,77,,,
22665,control_change,19,0,4,,,,,,,,,3,11,77,,,
22677,note_on,0,0,2,,,,,,,,,1,,,,76,0
22677,note_on,24,0,8,,,,,,,,,11,,,,64,0
22677,note_on,15,0,2,,,,,,,,,1,,,,79,0
22677,note_on,24,0,9,,,,,,,,,12,,,,55,0
22678,note_on,15,0,3,,,,,,,,,2,,,,64,0
22678,note_on,355,0,5,,,,,,,,,4,,,,60,0
22678,note_on,0,0,3,,,,,,,,,2,,,,67,0
22679,control_change,19,0,1,,,,,,,,,0,11,79,,,
22679,note_on,24,0,10,,,,,,,,,6,,,,52,0
22680,control_change,0,0,7,,,,,,,,,10,11,72,,,
22680,note_on,0,0,7,,,,,,,,,10,,,,84,103
22680,note_on,29,0,7,,,,,,,,,10,,,,72,0
22680,note_on,355,0,6,,,,,,,,,5,,,,60,0
22680,note_on,15,0,4,,,,,,,,,3,,,,60,0
22680,note_on,0,0,4,,,,,,,,,3,,,,48,0
22680,set_tempo,120,1,0,,,,,,1081081,,,,,,,,
22680,note_on,1,0,1,,,,,,,,,0,,,,84,96
22681,control_change,4,0,2,,,,,,,,,1,11,79,,,
22682,note_on,1,0,2,,,,,,,,,1,,,,82,95
22682,control_change,5,0,9,,,,,,,,,12,11,72,,,
22682,note_on,0,0,2,,,,,,,,,1,,,,79,95
22682,control_change,4,0,3,,,,,,,,,2,11,79,,,
22682,control_change,5,0,8,,,,,,,,,11,11,72,,,
22682,note_on,0,0,8,,,,,,,,,11,,,,67,68
22682,note_on,0,0,9,,,,,,,,,12,,,,52,66
22683,note_on,0,0,3,,,,,,,,,2,,,,70,96
22683,note_on,1,0,3,,,,,,,,,2,,,,67,96
22683,note_on,5,0,5,,,,,,,,,4,,,,60,82
22683,control_change,0,0,5,,,,,,,,,4,11,72,,,
22684,control_change,4,0,4,,,,,,,,,3,11,79,,,
22684,note_on,0,0,10,,,,,,,,,6,,,,48,62
22684,control_change,5,0,10,,,,,,,,,6,11,72,,,
22685,note_on,60,0,11,,,,,,,,,13,,,,48,74
22685,control_change,5,0,6,,,,,,,,,5,11,72,,,
22685,note_on,1,0,4,,,,,,,,,3,,,,58,95
22685,note_on,0,0,4,,,,,,,,,3,,,,48,95
22685,note_on,0,0,6,,,,,,,,,5,,,,60,82
22688,note_on,60,0,12,,,,,,,,,14,,,,36,69
22698,control_change,18,0,1,,,,,,,,,0,11,77,,,
22700,control_change,18,0,2,,,,,,,,,1,11,77,,,
22701,control_change,18,0,3,,,,,,,,,2,11,77,,,
22703,control_change,18,0,4,,,,,,,,,3,11,77,,,
22707,control_change,24,0,5,,,,,,,,,4,11,70,,,
22708,control_change,28,0,7,,,,,,,,,10,11,70,,,
22709,control_change,24,0,6,,,,,,,,,5,11,70,,,
22710,note_on,0,0,7,,,,,,,,,10,,,,79,103
22710,control_change,28,0,8,,,,,,,,,11,11,70,,,
22710,note_on,2,0,7,,,,,,,,,10,,,,84,0
22710,control_change,28,0,9,,,,,,,,,12,11,70,,,
22712,control_change,28,0,10,,,,,,,,,6,11,70,,,
22712,note_on,0,0,9,,,,,,,,,12,,,,55,66
22712,note_on,2,0,8,,,,,,,,,11,,,,67,0
22712,note_on,2,0,9,,,,,,,,,12,,,,52,0
22712,note_on,0,0,8,,,,,,,,,11,,,,64,68
22714,note_on,2,0,10,,,,,,,,,6,,,,48,0
22714,note_on,0,0,10,,,,,,,,,6,,,,52,62
22717,control_change,19,0,1,,,,,,,,,0,11,76,,,
22719,control_change,19,0,2,,,,,,,,,1,11,76,,,
22720,control_change,19,0,3,,,,,,,,,2,11,76,,,
22722,control_change,19,0,4,,,,,,,,,3,11,76,,,
22723,control_change,13,0,7,,,,,,,,,10,11,69,,,
22725,control_change,13,0,9,,,,,,,,,12,11,69,,,
22725,control_change,13,0,8,,,,,,,,,11,11,69,,,
22727,control_change,13,0,10,,,,,,,,,6,11,69,,,
22731,control_change,24,0,5,,,,,,,,,4,11,68,,,
22733,control_change,24,0,6,,,,,,,,,5,11,68,,,
22736,control_change,19,0,1,,,,,,,,,0,11,74,,,
22738,control_change,19,0,2,,,,,,,,,1,11,74,,,
22739,control_change,19,0,3,,,,,,,,,2,11,74,,,
22740,set_tempo,60,1,0,,,,,,983607,,,,,,,,
22740,note_on,0,0,7,,,,,,,,,10,,,,76,103
22740,note_on,17,0,7,,,,,,,,,10,,,,79,0
22741,control_change,19,0,4,,,,,,,,,3,11,74,,,
22742,note_on,17,0,8,,,,,,,,,11,,,,64,0
22742,note_on,0,0,9,,,,,,,,,12,,,,52,66
22742,note_on,17,0,9,,,,,,,,,12,,,,55,0
22742,note_on,0,0,8,,,,,,,,,11,,,,67,68
22744,note_on,0,0,10,,,,,,,,,6,,,,48,62
22744,note_on,17,0,10,,,,,,,,,6,,,,52,0
22752,control_change,12,0,7,,,,,,,,,10,11,67,,,
22754,control_change,12,0,9,,,,,,,,,12,11,67,,,
22754,control_change,12,0,8,,,,,,,,,11,11,67,,,
22755,control_change,24,0,5,,,,,,,,,4,11,66,,,
22755,control_change,19,0,1,,,,,,,,,0,11,72,,,
22756,control_change,12,0,10,,,,,,,,,6,11,67,,,
22757,control_change,19,0,2,,,,,,,,,1,11,72,,,
22757,control_change,24,0,6,,,,,,,,,5,11,66,,,
22758,control_change,19,0,3,,,,,,,,,2,11,72,,,
22760,control_change,19,0,4,,,,,,,,,3,11,72,,,
22770,note_on,18,0,7,,,,,,,,,10,,,,76,0
22770,note_on,0,0,7,,,,,,,,,10,,,,72,103
22772,note_on,0,0,8,,,,,,,,,11,,,,64,68
22772,note_on,0,0,9,,,,,,,,,12,,,,55,66
22772,note_on,18,0,9,,,,,,,,,12,,,,52,0
22772,note_on,18,0,8,,,,,,,,,11,,,,67,0
22774,control_change,19,0,1,,,,,,,,,0,11,70,,,
22774,note_on,0,0,10,,,,,,,,,6,,,,52,62
22774,note_on,18,0,10,,,,,,,,,6,,,,48,0
22776,control_change,19,0,2,,,,,,,,,1,11,70,,,
22777,control_change,19,0,3,,,,,,,,,2,11,70,,,
22779,control_change,24,0,5,,,,,,,,,4,11,64,,,
22779,control_change,19,0,4,,,,,,,,,3,11,70,,,
22780,control_change,10,0,7,,,,,,,,,10,11,65,,,
22781,control_change,24,0,6,,,,,,,,,5,11,64,,,
22782,control_change,10,0,9,,,,,,,,,12,11,65,,,
22782,control_change,10,0,8,,,,,,,,,11,11,65,,,
22784,control_change,10,0,10,,,,,,,,,6,11,65,,,
22793,control_change,19,0,1,,,,,,,,,0,11,69,,,
22795,control_change,19,0,2,,,,,,,,,1,11,69,,,
22795,control_change,15,0,7,,,,,,,,,10,11,64,,,
22796,control_change,19,0,3,,,,,,,,,2,11,69,,,
22797,control_change,15,0,9,,,,,,,,,12,11,64,,,
22797,control_change,15,0,8,,,,,,,,,11,11,64,,,
22798,control_change,19,0,4,,,,,,,,,3,11,69,,,
22799,control_change,15,0,10,,,,,,,,,6,11,64,,,
22800,note_on,5,0,7,,,,,,,,,10,,,,72,0
22800,note_on,0,0,7,,,,,,,,,10,,,,84,103
22802,note_on,0,0,8,,,,,,,,,11,,,,67,68
22802,note_on,5,0,8,,,,,,,,,11,,,,64,0
22802,note_on,0,0,9,,,,,,,,,12,,,,52,66
22802,note_on,5,0,9,,,,,,,,,12,,,,55,0
22803,control_change,24,0,5,,,,,,,,,4,11,62,,,
22804,note_on,5,0,10,,,,,,,,,6,,,,52,0
22804,note_on,0,0,10,,,,,,,,,6,,,,48,62
22805,note_on,120,0,11,,,,,,,,,13,,,,48,0
22805,control_change,24,0,6,,,,,,,,,5,11,62,,,
22808,note_on,120,0,12,,,,,,,,,14,,,,36,0
22812,control_change,19,0,1,,,,,,,,,0,11,67,,,
22814,control_change,19,0,2,,,,,,,,,1,11,67,,,
22815,control_change,19,0,3,,,,,,,,,2,11,67,,,
22817,control_change,19,0,4,,,,,,,,,3,11,67,,,
22824,control_change,24,0,7,,,,,,,,,10,11,62,,,
22826,control_change,24,0,9,,,,,,,,,12,11,62,,,
22826,control_change,24,0,8,,,,,,,,,11,11,62,,,
22827,control_change,24,0,5,,,,,,,,,4,11,60,,,
22828,control_change,24,0,10,,,,,,,,,6,11,62,,,
22829,control_change,24,0,6,,,,,,,,,5,11,60,,,
22830,note_on,0,0,7,,,,,,,,,10,,,,79,103
22830,note_on,6,0,7,,,,,,,,,10,,,,84,0
22831,control_change,19,0,1,,,,,,,,,0,11,65,,,
22832,note_on,6,0,8,,,,,,,,,11,,,,67,0
22832,note_on,0,0,9,,,,,,,,,12,,,,55,66
22832,note_on,0,0,8,,,,,,,,,11,,,,64,68
22832,note_on,6,0,9,,,,,,,,,12,,,,52,0
22833,control_change,19,0,2,,,,,,,,,1,11,65,,,
22834,note_on,6,0,10,,,,,,,,,6,,,,48,0
22834,note_on,0,0,10,,,,,,,,,6,,,,52,62
22834,control_change,19,0,3,,,,,,,,,2,11,65,,,
22836,control_change,19,0,4,,,,,,,,,3,11,65,,,
22850,control_change,19,0,1,,,,,,,,,0,11,64,,,
22851,control_change,24,0,5,,,,,,,,,4,11,58,,,
22852,control_change,22,0,7,,,,,,,,,10,11,60,,,
22852,control_change,19,0,2,,,,,,,,,1,11,64,,,
22853,control_change,24,0,6,,,,,,,,,5,11,58,,,
22853,control_change,19,0,3,,,,,,,,,2,11,64,,,
22854,control_change,22,0,8,,,,,,,,,11,11,60,,,
22854,control_change,22,0,9,,,,,,,,,12,11,60,,,
22855,control_change,19,0,4,,,,,,,,,3,11,64,,,
22856,control_change,22,0,10,,,,,,,,,6,11,60,,,
22860,note_on,8,0,7,,,,,,,,,10,,,,79,0
22860,note_on,0,0,7,,,,,,,,,10,,,,76,103
22860,set_tempo,120,1,0,,,,,,1061947,,,,,,,,
22862,note_on,8,0,8,,,,,,,,,11,,,,64,0
22862,note_on,8,0,9,,,,,,,,,12,,,,55,0
22862,note_on,0,0,8,,,,,,,,,11,,,,67,68
22862,note_on,0,0,9,,,,,,,,,12,,,,52,66
22864,note_on,0,0,10,,,,,,,,,6,,,,48,62
22864,note_on,8,0,10,,,,,,,,,6,,,,52,0
22865,note_on,60,0,11,,,,,,,,,13,,,,48,61
22867,control_change,7,0,7,,,,,,,,,10,11,59,,,
22868,control_change,18,0,1,,,,,,,,,0,11,62,,,
22868,note_on,60,0,12,,,,,,,,,14,,,,36,55
22869,control_change,7,0,8,,,,,,,,,11,11,59,,,
22869,control_change,7,0,9,,,,,,,,,12,11,59,,,
22870,control_change,18,0,2,,,,,,,,,1,11,62,,,
22871,control_change,18,0,3,,,,,,,,,2,11,62,,,
22871,control_change,7,0,10,,,,,,,,,6,11,59,,,
22873,control_change,18,0,4,,,,,,,,,3,11,62,,,
22875,control_change,24,0,5,,,,,,,,,4,11,56,,,
22877,control_change,24,0,6,,,,,,,,,5,11,56,,,
22887,control_change,19,0,1,,,,,,,,,0,11,61,,,
22889,control_change,19,0,2,,,,,,,,,1,11,61,,,
22890,note_on,0,0,7,,,,,,,,,10,,,,72,103
22890,note_on,23,0,7,,,,,,,,,10,,,,76,0
22890,control_change,19,0,3,,,,,,,,,2,11,61,,,
22892,control_change,19,0,4,,,,,,,,,3,11,61,,,
22892,note_on,0,0,9,,,,,,,,,12,,,,55,66
22892,note_on,23,0,9,,,,,,,,,12,,,,52,0
22892,note_on,23,0,8,,,,,,,,,11,,,,67,0
22892,note_on,0,0,8,,,,,,,,,11,,,,64,68
22894,note_on,23,0,10,,,,,,,,,6,,,,48,0
22894,note_on,0,0,10,,,,,,,,,6,,,,52,62
22896,control_change,6,0,7,,,,,,,,,10,11,57,,,
22898,control_change,6,0,9,,,,,,,,,12,11,57,,,
22898,control_change,6,0,8,,,,,,,,,11,11,57,,,
22899,control_change,24,0,5,,,,,,,,,4,11,54,,,
22900,control_change,6,0,10,,,,,,,,,6,11,57,,,
22901,control_change,24,0,6,,,,,,,,,5,11,54,,,
22906,control_change,19,0,1,,,,,,,,,0,11,59,,,
22908,control_change,19,0,2,,,,,,,,,1,11,59,,,
22909,control_change,19,0,3,,,,,,,,,2,11,59,,,
22911,control_change,19,0,4,,,,,,,,,3,11,59,,,
22920,note_on,24,0,7,,,,,,,,,10,,,,72,0
22920,note_on,0,0,7,,,,,,,,,10,,,,84,103
22920,set_tempo,60,1,0,,,,,,1008403,,,,,,,,
22922,note_on,24,0,9,,,,,,,,,12,,,,55,0
22922,note_on,0,0,9,,,,,,,,,12,,,,52,66
22922,note_on,0,0,8,,,,,,,,,11,,,,67,68
22922,note_on,24,0,8,,,,,,,,,11,,,,64,0
22923,control_change,24,0,5,,,,,,,,,4,11,52,,,
22924,control_change,4,0,7,,,,,,,,,10,11,55,,,
22924,note_on,24,0,10,,,,,,,,,6,,,,52,0
22924,note_on,0,0,10,,,,,,,,,6,,,,48,62
22925,control_change,24,0,6,,,,,,,,,5,11,52,,,
22925,control_change,19,0,1,,,,,,,,,0,11,57,,,
22926,control_change,4,0,9,,,,,,,,,12,11,55,,,
22926,control_change,4,0,8,,,,,,,,,11,11,55,,,
22927,control_change,19,0,2,,,,,,,,,1,11,57,,,
22928,control_change,4,0,10,,,,,,,,,6,11,55,,,
22928,control_change,19,0,3,,,,,,,,,2,11,57,,,
22930,control_change,19,0,4,,,,,,,,,3,11,57,,,
22939,control_change,15,0,7,,,,,,,,,10,11,54,,,
22941,control_change,15,0,9,,,,,,,,,12,11,54,,,
22941,control_change,15,0,8,,,,,,,,,11,11,54,,,
22943,control_change,15,0,10,,,,,,,,,6,11,54,,,
22944,control_change,19,0,1,,,,,,,,,0,11,55,,,
22946,control_change,19,0,2,,,,,,,,,1,11,55,,,
22947,control_change,19,0,3,,,,,,,,,2,11,55,,,
22947,control_change,24,0,5,,,,,,,,,4,11,50,,,
22949,control_change,19,0,4,,,,,,,,,3,11,55,,,
22949,control_change,24,0,6,,,,,,,,,5,11,50,,,
22950,note_on,11,0,7,,,,,,,,,10,,,,84,0
22950,note_on,0,0,7,,,,,,,,,10,,,,79,103
22952,note_on,0,0,8,,,,,,,,,11,,,,64,68
22952,note_on,11,0,9,,,,,,,,,12,,,,52,0
22952,note_on,11,0,8,,,,,,,,,11,,,,67,0
22952,note_on,0,0,9,,,,,,,,,12,,,,55,66
22954,note_on,0,0,10,,,,,,,,,6,,,,52,62
22954,note_on,11,0,10,,,,,,,,,6,,,,48,0
22963,control_change,19,0,1,,,,,,,,,0,11,54,,,
22965,control_change,19,0,2,,,,,,,,,1,11,54,,,
22966,control_change,19,0,3,,,,,,,,,2,11,54,,,
22968,control_change,18,0,7,,,,,,,,,10,11,52,,,
22968,control_change,19,0,4,,,,,,,,,3,11,54,,,
22970,control_change,18,0,9,,,,,,,,,12,11,52,,,
22970,control_change,18,0,8,,,,,,,,,11,11,52,,,
22971,control_change,24,0,5,,,,,,,,,4,11,48,,,
22972,control_change,18,0,10,,,,,,,,,6,11,52,,,
22973,control_change,24,0,6,,,,,,,,,5,11,48,,,
22980,note_on,12,0,7,,,,,,,,,10,,,,79,0
22980,note_on,0,0,7,,,,,,,,,10,,,,76,103
22982,note_on,0,0,8,,,,,,,,,11,,,,67,68
22982,control_change,19,0,1,,,,,,,,,0,11,52,,,
22982,note_on,0,0,2,,,,,,,,,1,,,,82,0
22982,note_on,17,0,2,,,,,,,,,1,,,,79,0
22982,note_on,0,0,2,,,,,,,,,1,,,,76,95
22982,note_on,0,0,2,,,,,,,,,1,,,,79,95
22982,note_on,12,0,9,,,,,,,,,12,,,,55,0
22982,note_on,12,0,8,,,,,,,,,11,,,,64,0
22982,note_on,0,0,9,,,,,,,,,12,,,,52,66
22983,note_on,0,0,3,,,,,,,,,2,,,,64,96
22983,note_on,0,0,3,,,,,,,,,2,,,,67,96
22983,note_on,0,0,3,,,,,,,,,2,,,,67,0
22983,note_on,17,0,3,,,,,,,,,2,,,,70,0
22984,note_on,0,0,10,,,,,,,,,6,,,,48,62
22984,control_change,2,0,2,,,,,,,,,1,11,52,,,
22984,note_on,12,0,10,,,,,,,,,6,,,,52,0
22985,control_change,2,0,3,,,,,,,,,2,11,52,,,
22985,note_on,120,0,11,,,,,,,,,13,,,,48,0
22987,control_change,19,0,4,,,,,,,,,3,11,52,,,
22988,note_on,120,0,12,,,,,,,,,14,,,,36,0
22995,control_change,24,0,5,,,,,,,,,4,11,46,,,
22996,control_change,16,0,7,,,,,,,,,10,11,50,,,
22997,control_change,24,0,6,,,,,,,,,5,11,46,,,
22998,control_change,16,0,8,,,,,,,,,11,11,50,,,
22998,control_change,16,0,9,,,,,,,,,12,11,50,,,
23000,control_change,16,0,10,,,,,,,,,6,11,50,,,
23001,control_change,19,0,1,,,,,,,,,0,11,51,,,
23003,control_change,19,0,2,,,,,,,,,1,11,51,,,
23004,control_change,19,0,3,,,,,,,,,2,11,51,,,
23006,control_change,19,0,4,,,,,,,,,3,11,51,,,
23010,note_on,0,0,7,,,,,,,,,10,,,,72,103
23010,note_on,14,0,7,,,,,,,,,10,,,,76,0
23011,control_change,1,0,7,,,,,,,,,10,11,49,,,
23012,note_on,0,0,8,,,,,,,,,11,,,,64,68
23012,note_on,14,0,8,,,,,,,,,11,,,,67,0
23012,note_on,0,0,9,,,,,,,,,12,,,,55,66
23012,note_on,14,0,9,,,,,,,,,12,,,,52,0
23013,control_change,1,0,8,,,,,,,,,11,11,49,,,
23013,control_change,1,0,9,,,,,,,,,12,11,49,,,
23014,note_on,0,0,10,,,,,,,,,6,,,,52,62
23014,note_on,14,0,10,,,,,,,,,6,,,,48,0
23015,control_change,1,0,10,,,,,,,,,6,11,49,,,
23019,control_change,24,0,5,,,,,,,,,4,11,44,,,
23020,control_change,19,0,1,,,,,,,,,0,11,49,,,
23021,control_change,24,0,6,,,,,,,,,5,11,44,,,
23022,control_change,19,0,2,,,,,,,,,1,11,49,,,
23023,control_change,19,0,3,,,,,,,,,2,11,49,,,
23025,set_tempo,105,1,0,,,,,,1304348,,,,,,,,
23025,control_change,19,0,4,,,,,,,,,3,11,49,,,
23035,note_on,24,0,7,,,,,,,,,10,,,,72,0
23035,note_on,15,0,1,,,,,,,,,0,,,,84,0
23037,note_on,15,0,2,,,,,,,,,1,,,,79,0
23037,note_on,0,0,2,,,,,,,,,1,,,,76,0
23037,note_on,24,0,9,,,,,,,,,12,,,,55,0
23037,note_on,24,0,8,,,,,,,,,11,,,,64,0
23038,note_on,15,0,3,,,,,,,,,2,,,,64,0
23038,note_on,0,0,3,,,,,,,,,2,,,,67,0
23038,note_on,19,0,5,,,,,,,,,4,,,,60,0
23039,note_on,24,0,10,,,,,,,,,6,,,,52,0
23039,control_change,4,0,1,,,,,,,,,0,11,47,,,
23040,note_on,15,0,4,,,,,,,,,3,,,,48,0
23040,note_on,0,0,1,,,,,,,,,0,,,,84,83
23040,set_tempo,15,1,0,,,,,,1061947,,,,,,,,
23040,note_on,0,0,4,,,,,,,,,3,,,,58,0
23040,control_change,5,0,7,,,,,,,,,10,11,47,,,
23040,note_on,19,0,6,,,,,,,,,5,,,,60,0
23040,control_change,1,0,1,,,,,,,,,0,11,39,,,
23040,note_on,0,0,7,,,,,,,,,10,,,,84,103
23041,control_change,4,0,2,,,,,,,,,1,11,47,,,
23042,note_on,0,0,2,,,,,,,,,1,,,,81,95
23042,note_on,0,0,9,,,,,,,,,12,,,,57,22
23042,control_change,1,0,2,,,,,,,,,1,11,39,,,
23042,control_change,5,0,8,,,,,,,,,11,11,47,,,
23042,note_on,0,0,8,,,,,,,,,11,,,,69,24
23042,control_change,4,0,3,,,,,,,,,2,11,47,,,
23042,note_on,0,0,2,,,,,,,,,1,,,,77,95
23042,control_change,5,0,9,,,,,,,,,12,11,47,,,
23043,control_change,0,0,5,,,,,,,,,4,11,42,,,
23043,control_change,0,0,3,,,,,,,,,2,11,39,,,
23043,note_on,0,0,3,,,,,,,,,2,,,,65,96
23043,note_on,1,0,3,,,,,,,,,2,,,,69,96
23043,note_on,5,0,5,,,,,,,,,4,,,,60,82
23044,note_on,0,0,10,,,,,,,,,6,,,,41,24
23044,control_change,4,0,4,,,,,,,,,3,11,47,,,
23044,control_change,5,0,10,,,,,,,,,6,11,47,,,
23045,note_on,1,0,4,,,,,,,,,3,,,,57,115
23045,note_on,0,0,6,,,,,,,,,5,,,,53,82
23045,control_change,5,0,6,,,,,,,,,5,11,42,,,
23045,note_on,60,0,11,,,,,,,,,13,,,,53,43
23048,note_on,60,0,12,,,,,,,,,14,,,,41,38
23070,note_on,0,0,7,,,,,,,,,10,,,,81,103
23070,note_on,30,0,7,,,,,,,,,10,,,,84,0
23100,note_on,0,0,7,,,,,,,,,10,,,,77,103
23100,note_on,30,0,7,,,,,,,,,10,,,,81,0
23100,set_tempo,60,1,0,,,,,,967742,,,,,,,,
23105,note_on,60,0,4,,,,,,,,,3,,,,57,0
23105,note_on,0,0,4,,,,,,,,,3,,,,53,115
23130,note_on,0,0,7,,,,,,,,,10,,,,72,103
23130,note_on,30,0,7,,,,,,,,,10,,,,77,0
23160,note_on,0,0,7,,,,,,,,,10,,,,69,103
23160,note_on,120,0,1,,,,,,,,,0,,,,84,0
23160,note_on,30,0,7,,,,,,,,,10,,,,72,0
23162,note_on,120,0,2,,,,,,,,,1,,,,77,0
23162,note_on,0,0,2,,,,,,,,,1,,,,81,0
23162,note_on,120,0,9,,,,,,,,,12,,,,57,0
23162,note_on,120,0,8,,,,,,,,,11,,,,69,0
23163,note_on,0,0,3,,,,,,,,,2,,,,69,0
23163,note_on,120,0,5,,,,,,,,,4,,,,60,0
23163,note_on,120,0,3,,,,,,,,,2,,,,65,0
23164,note_on,120,0,10,,,,,,,,,6,,,,41,0
23165,note_on,120,0,6,,,,,,,,,5,,,,53,0
23165,note_on,120,0,11,,,,,,,,,13,,,,53,0
23165,note_on,0,0,4,,,,,,,,,3,,,,52,115
23165,note_on,60,0,4,,,,,,,,,3,,,,53,0
23168,note_on,120,0,12,,,,,,,,,14,,,,41,0
23190,note_on,30,0,7,,,,,,,,,10,,,,69,0
23190,note_on,0,0,7,,,,,,,,,10,,,,65,103
23215,note_on,25,0,7,,,,,,,,,10,,,,65,0
23220,set_tempo,120,1,0,,,,,,1034483,,,,,,,,
23220,note_on,60,0,1,,,,,,,,,0,,,,86,83
23220,note_on,5,0,7,,,,,,,,,10,,,,62,88
23220,note_on,55,0,4,,,,,,,,,3,,,,52,0
23221,program_change,59,0,8,,,,,,,,45,11,,,,,
23221,program_change,59,0,9,,,,,,,,45,12,,,,,
23222,note_on,0,0,9,,,,,,,,,12,,,,58,24
23222,control_change,1,0,9,,,,,,,,,12,11,100,,,
23222,control_change,1,0,8,,,,,,,,,11,11,100,,,
23222,note_on,60,0,2,,,,,,,,,1,,,,82,82
23222,note_on,0,0,8,,,,,,,,,11,,,,62,26
23223,note_on,0,0,3,,,,,,,,,2,,,,70,83
23223,program_change,59,0,10,,,,,,,,45,6,,,,,
23223,note_on,60,0,3,,,,,,,,,2,,,,74,83
23224,note_on,0,0,10,,,,,,,,,6,,,,46,26
23224,control_change,1,0,10,,,,,,,,,6,11,100,,,
23225,note_on,60,0,11,,,,,,,,,13,,,,46,36
23225,note_on,5,0,4,,,,,,,,,3,,,,50,115
23228,note_on,60,0,12,,,,,,,,,14,,,,34,30
23235,note_on,15,0,7,,,,,,,,,10,,,,62,0
23250,note_on,15,0,7,,,,,,,,,10,,,,67,88
23265,note_on,15,0,7,,,,,,,,,10,,,,67,0
23277,note_on,52,0,4,,,,,,,,,3,,,,50,0
23280,note_on,15,0,7,,,,,,,,,10,,,,70,88
23280,set_tempo,60,1,0,,,,,,937500,,,,,,,,
23285,note_on,8,0,4,,,,,,,,,3,,,,58,115
23295,note_on,15,0,7,,,,,,,,,10,,,,70,0
23310,note_on,15,0,7,,,,,,,,,10,,,,67,88
23325,note_on,15,0,7,,,,,,,,,10,,,,67,0
23337,note_on,52,0,4,,,,,,,,,3,,,,58,0
23340,note_on,15,0,7,,,,,,,,,10,,,,62,88
23340,note_on,120,0,1,,,,,,,,,0,,,,86,0
23342,note_on,120,0,8,,,,,,,,,11,,,,62,0
23342,note_on,120,0,9,,,,,,,,,12,,,,58,0
23342,note_on,120,0,2,,,,,,,,,1,,,,82,0
23343,note_on,0,0,3,,,,,,,,,2,,,,74,0
23343,note_on,120,0,3,,,,,,,,,2,,,,70,0
23344,note_on,120,0,10,,,,,,,,,6,,,,46,0
23345,note_on,8,0,4,,,,,,,,,3,,,,62,115
23345,note_on,120,0,11,,,,,,,,,13,,,,46,0
23348,note_on,120,0,12,,,,,,,,,14,,,,34,0
23355,note_on,15,0,7,,,,,,,,,10,,,,62,0
23370,note_on,15,0,7,,,,,,,,,10,,,,67,88
23385,note_on,15,0,7,,,,,,,,,10,,,,67,0
23397,note_on,52,0,4,,,,,,,,,3,,,,62,0
23400,note_on,60,0,1,,,,,,,,,0,,,,81,83
23400,note_on,15,0,7,,,,,,,,,10,,,,60,88
23400,set_tempo,120,1,0,,,,,,1034483,,,,,,,,
23402,note_on,60,0,2,,,,,,,,,1,,,,77,82
23402,note_on,60,0,8,,,,,,,,,11,,,,60,26
23402,note_on,60,0,9,,,,,,,,,12,,,,57,24
23403,note_on,0,0,3,,,,,,,,,2,,,,69,83
23403,note_on,60,0,3,,,,,,,,,2,,,,72,83
23404,note_on,60,0,10,,,,,,,,,6,,,,48,26
23405,note_on,8,0,4,,,,,,,,,3,,,,53,115
23405,note_on,60,0,11,,,,,,,,,13,,,,48,36
23408,note_on,60,0,12,,,,,,,,,14,,,,36,30
23415,note_on,15,0,7,,,,,,,,,10,,,,60,0
23430,note_on,15,0,7,,,,,,,,,10,,,,65,88
23445,note_on,15,0,7,,,,,,,,,10,,,,65,0
23460,note_on,15,0,7,,,,,,,,,10,,,,69,88
23460,set_tempo,60,1,0,,,,,,937500,,,,,,,,
23475,note_on,15,0,7,,,,,,,,,10,,,,69,0
23490,note_on,15,0,7,,,,,,,,,10,,,,65,88
23505,note_on,15,0,7,,,,,,,,,10,,,,65,0
23520,note_on,15,0,7,,,,,,,,,10,,,,60,88
23520,note_on,120,0,1,,,,,,,,,0,,,,81,0
23522,note_on,120,0,9,,,,,,,,,12,,,,57,0
23522,note_on,120,0,8,,,,,,,,,11,,,,60,0
23522,note_on,120,0,2,,,,,,,,,1,,,,77,0
23523,note_on,0,0,3,,,,,,,,,2,,,,72,0
23523,note_on,120,0,3,,,,,,,,,2,,,,69,0
23524,note_on,120,0,10,,,,,,,,,6,,,,48,0
23525,note_on,120,0,11,,,,,,,,,13,,,,48,0
23528,note_on,120,0,12,,,,,,,,,14,,,,36,0
23535,note_on,15,0,7,,,,,,,,,10,,,,60,0
23550,note_on,15,0,7,,,,,,,,,10,,,,65,88
23565,note_on,15,0,7,,,,,,,,,10,,,,65,0
23580,note_on,15,0,7,,,,,,,,,10,,,,60,88
23580,note_on,60,0,1,,,,,,,,,0,,,,79,83
23580,set_tempo,120,1,0,,,,,,1034483,,,,,,,,
23582,note_on,60,0,8,,,,,,,,,11,,,,64,26
23582,note_on,60,0,9,,,,,,,,,12,,,,60,24
23582,note_on,60,0,2,,,,,,,,,1,,,,76,82
23583,note_on,0,0,3,,,,,,,,,2,,,,72,83
23583,note_on,60,0,3,,,,,,,,,2,,,,67,83
23584,note_on,60,0,10,,,,,,,,,6,,,,48,26
23585,note_on,60,0,11,,,,,,,,,13,,,,48,36
23585,note_on,180,0,4,,,,,,,,,3,,,,53,0
23585,note_on,0,0,4,,,,,,,,,3,,,,57,106
23588,note_on,60,0,12,,,,,,,,,14,,,,36,30
23595,note_on,15,0,7,,,,,,,,,10,,,,60,0
23610,note_on,15,0,7,,,,,,,,,10,,,,64,88
23625,note_on,15,0,7,,,,,,,,,10,,,,64,0
23640,note_on,15,0,7,,,,,,,,,10,,,,67,88
23640,set_tempo,60,1,0,,,,,,937500,,,,,,,,
23655,note_on,15,0,7,,,,,,,,,10,,,,67,0
23670,note_on,15,0,7,,,,,,,,,10,,,,64,88
23685,note_on,15,0,7,,,,,,,,,10,,,,64,0
23700,note_on,120,0,1,,,,,,,,,0,,,,79,0
23700,note_on,15,0,7,,,,,,,,,10,,,,60,88
23702,note_on,120,0,9,,,,,,,,,12,,,,60,0
23702,note_on,120,0,8,,,,,,,,,11,,,,64,0
23702,note_on,120,0,2,,,,,,,,,1,,,,76,0
23703,note_on,120,0,3,,,,,,,,,2,,,,72,0
23703,note_on,0,0,3,,,,,,,,,2,,,,67,0
23704,note_on,120,0,10,,,,,,,,,6,,,,48,0
23705,note_on,0,0,4,,,,,,,,,3,,,,55,99
23705,note_on,120,0,11,,,,,,,,,13,,,,48,0
23705,note_on,120,0,4,,,,,,,,,3,,,,57,0
23708,note_on,120,0,12,,,,,,,,,14,,,,36,0
23715,note_on,15,0,7,,,,,,,,,10,,,,60,0
23730,note_on,15,0,7,,,,,,,,,10,,,,64,88
23745,note_on,15,0,7,,,,,,,,,10,,,,64,0
23760,note_on,60,0,1,,,,,,,,,0,,,,81,83
23760,set_tempo,120,1,0,,,,,,1034483,,,,,,,,
23760,note_on,15,0,7,,,,,,,,,10,,,,61,88
23760,note_on,55,0,4,,,,,,,,,3,,,,55,0
23762,note_on,60,0,9,,,,,,,,,12,,,,61,24
23762,note_on,60,0,8,,,,,,,,,11,,,,64,26
23762,note_on,60,0,2,,,,,,,,,1,,,,76,82
23763,note_on,0,0,3,,,,,,,,,2,,,,73,83
23763,note_on,60,0,3,,,,,,,,,2,,,,69,83
23764,note_on,60,0,10,,,,,,,,,6,,,,57,26
23765,control_change,0,0,4,,,,,,,,,3,11,54,,,
23765,note_on,5,0,4,,,,,,,,,3,,,,57,99
23765,note_on,60,0,11,,,,,,,,,13,,,,57,36
23768,note_on,60,0,12,,,,,,,,,14,,,,45,30
23775,note_on,15,0,7,,,,,,,,,10,,,,61,0
23790,note_on,15,0,7,,,,,,,,,10,,,,64,88
23805,note_on,15,0,7,,,,,,,,,10,,,,64,0
23820,set_tempo,60,1,0,,,,,,937500,,,,,,,,
23820,note_on,15,0,7,,,,,,,,,10,,,,69,88
23835,note_on,15,0,7,,,,,,,,,10,,,,69,0
23850,note_on,15,0,7,,,,,,,,,10,,,,64,88
23865,note_on,15,0,7,,,,,,,,,10,,,,64,0
23880,note_on,15,0,7,,,,,,,,,10,,,,61,88
23880,note_on,120,0,1,,,,,,,,,0,,,,81,0
23882,note_on,120,0,2,,,,,,,,,1,,,,76,0
23882,note_on,120,0,9,,,,,,,,,12,,,,61,0
23882,note_on,120,0,8,,,,,,,,,11,,,,64,0
23883,note_on,0,0,3,,,,,,,,,2,,,,69,0
23883,note_on,120,0,3,,,,,,,,,2,,,,73,0
23884,note_on,120,0,10,,,,,,,,,6,,,,57,0
23885,note_on,120,0,11,,,,,,,,,13,,,,57,0
23888,note_on,120,0,12,,,,,,,,,14,,,,45,0
23895,note_on,15,0,7,,,,,,,,,10,,,,61,0
23910,note_on,15,0,7,,,,,,,,,10,,,,64,88
23925,note_on,15,0,7,,,,,,,,,10,,,,64,0
23940,set_tempo,120,1,0,,,,,,1034483,,,,,,,,
23940,note_on,15,0,7,,,,,,,,,10,,,,62,88
23944,note_on,60,0,10,,,,,,,,,6,,,,50,26
23945,note_on,60,0,11,,,,,,,,,13,,,,50,36
23948,note_on,60,0,12,,,,,,,,,14,,,,38,30
23955,note_on,15,0,7,,,,,,,,,10,,,,62,0
23970,note_on,15,0,7,,,,,,,,,10,,,,65,88
23985,note_on,15,0,7,,,,,,,,,10,,,,65,0
24000,set_tempo,60,1,0,,,,,,937500,,,,,,,,
24000,note_on,15,0,7,,,,,,,,,10,,,,69,88
24005,note_on,240,0,4,,,,,,,,,3,,,,57,0
24005,note_on,0,0,4,,,,,,,,,3,,,,55,99
24015,note_on,15,0,7,,,,,,,,,10,,,,69,0
24030,note_on,15,0,7,,,,,,,,,10,,,,65,88
24045,note_on,15,0,7,,,,,,,,,10,,,,65,0
24060,note_on,15,0,7,,,,,,,,,10,,,,62,88
24064,note_on,120,0,10,,,,,,,,,6,,,,50,0
24065,note_on,120,0,11,,,,,,,,,13,,,,50,0
24065,note_on,0,0,4,,,,,,,,,3,,,,57,99
24065,note_on,60,0,4,,,,,,,,,3,,,,55,0
24068,note_on,120,0,12,,,,,,,,,14,,,,38,0
24075,note_on,15,0,7,,,,,,,,,10,,,,62,0
24090,note_on,15,0,7,,,,,,,,,10,,,,65,88
24105,note_on,15,0,7,,,,,,,,,10,,,,65,0
24120,note_on,15,0,7,,,,,,,,,10,,,,62,88
24120,set_tempo,120,1,0,,,,,,1034483,,,,,,,,
24121,program_change,239,0,8,,,,,,,,48,11,,,,,
24122,control_change,1,0,8,,,,,,,,,11,11,42,,,
24122,note_on,0,0,8,,,,,,,,,11,,,,79,103
24124,note_on,60,0,10,,,,,,,,,6,,,,43,26
24125,note_on,60,0,4,,,,,,,,,3,,,,57,0
24125,note_on,0,0,4,,,,,,,,,3,,,,60,99
24125,note_on,60,0,11,,,,,,,,,13,,,,43,36
24128,note_on,60,0,12,,,,,,,,,14,,,,31,30
24128,note_on,6,0,8,,,,,,,,,11,,,,77,103
24129,note_on,1,0,8,,,,,,,,,11,,,,79,0
24135,note_on,6,0,8,,,,,,,,,11,,,,77,0
24135,note_on,0,0,8,,,,,,,,,11,,,,79,103
24135,note_on,15,0,7,,,,,,,,,10,,,,62,0
24140,note_on,15,0,4,,,,,,,,,3,,,,60,0
24140,note_on,0,0,4,,,,,,,,,3,,,,59,99
24142,note_on,0,0,8,,,,,,,,,11,,,,77,103
24142,note_on,7,0,8,,,,,,,,,11,,,,79,0
24143,control_change,1,0,8,,,,,,,,,11,11,44,,,
24148,note_on,5,0,8,,,,,,,,,11,,,,79,103
24149,note_on,1,0,8,,,,,,,,,11,,,,77,0
24150,note_on,15,0,7,,,,,,,,,10,,,,65,88
24155,note_on,0,0,8,,,,,,,,,11,,,,77,103
24155,note_on,6,0,8,,,,,,,,,11,,,,79,0
24162,note_on,7,0,8,,,,,,,,,11,,,,77,0
24162,note_on,0,0,8,,,,,,,,,11,,,,79,103
24164,control_change,2,0,8,,,,,,,,,11,11,46,,,
24165,note_on,15,0,7,,,,,,,,,10,,,,65,0
24168,note_on,4,0,8,,,,,,,,,11,,,,77,103
24169,note_on,1,0,8,,,,,,,,,11,,,,79,0
24175,note_on,0,0,8,,,,,,,,,11,,,,79,103
24175,note_on,6,0,8,,,,,,,,,11,,,,77,0
24180,note_on,15,0,7,,,,,,,,,10,,,,67,88
24180,set_tempo,60,1,0,,,,,,937500,,,,,,,,
24182,note_on,0,0,8,,,,,,,,,11,,,,77,103
24182,note_on,7,0,8,,,,,,,,,11,,,,79,0
24185,note_on,0,0,4,,,,,,,,,3,,,,57,99
24185,note_on,45,0,4,,,,,,,,,3,,,,59,0
24185,control_change,3,0,8,,,,,,,,,11,11,48,,,
24188,note_on,3,0,8,,,,,,,,,11,,,,79,103
24189,note_on,1,0,8,,,,,,,,,11,,,,77,0
24195,note_on,6,0,8,,,,,,,,,11,,,,79,0
24195,note_on,0,0,8,,,,,,,,,11,,,,77,103
24195,note_on,15,0,7,,,,,,,,,10,,,,67,0
24202,note_on,0,0,8,,,,,,,,,11,,,,79,103
24202,note_on,7,0,8,,,,,,,,,11,,,,77,0
24206,control_change,4,0,8,,,,,,,,,11,11,50,,,
24209,note_on,3,0,8,,,,,,,,,11,,,,79,0
24210,note_on,15,0,7,,,,,,,,,10,,,,65,88
24212,note_on,3,0,8,,,,,,,,,11,,,,76,83
24225,note_on,15,0,7,,,,,,,,,10,,,,65,0
24227,note_on,15,0,8,,,,,,,,,11,,,,76,0
24227,control_change,0,0,8,,,,,,,,,11,11,52,,,
24227,note_on,0,0,8,,,,,,,,,11,,,,77,83
24240,note_on,15,0,7,,,,,,,,,10,,,,62,88
24242,note_on,15,0,8,,,,,,,,,11,,,,77,0
24244,note_on,120,0,10,,,,,,,,,6,,,,43,0
24245,note_on,120,0,11,,,,,,,,,13,,,,43,0
24245,note_on,60,0,4,,,,,,,,,3,,,,57,0
24245,note_on,0,0,4,,,,,,,,,3,,,,59,99
24248,note_on,120,0,12,,,,,,,,,14,,,,31,0
24255,note_on,15,0,7,,,,,,,,,10,,,,62,0
24270,note_on,15,0,7,,,,,,,,,10,,,,65,88
24285,note_on,15,0,7,,,,,,,,,10,,,,65,0
24300,note_on,15,0,7,,,,,,,,,10,,,,60,88
24300,set_tempo,120,1,0,,,,,,1034483,,,,,,,,
24302,note_on,0,0,8,,,,,,,,,11,,,,77,103
24302,control_change,60,0,8,,,,,,,,,11,11,42,,,
24304,note_on,60,0,10,,,,,,,,,6,,,,48,33
24305,note_on,0,0,4,,,,,,,,,3,,,,60,99
24305,note_on,60,0,11,,,,,,,,,13,,,,48,36
24305,note_on,60,0,4,,,,,,,,,3,,,,59,0
24308,note_on,6,0,8,,,,,,,,,11,,,,76,103
24308,note_on,60,0,12,,,,,,,,,14,,,,36,30
24309,note_on,1,0,8,,,,,,,,,11,,,,77,0
24315,note_on,0,0,8,,,,,,,,,11,,,,77,103
24315,note_on,6,0,8,,,,,,,,,11,,,,76,0
24315,note_on,15,0,7,,,,,,,,,10,,,,60,0
24322,note_on,7,0,8,,,,,,,,,11,,,,77,0
24322,note_on,0,0,8,,,,,,,,,11,,,,76,103
24323,control_change,1,0,8,,,,,,,,,11,11,44,,,
24328,note_on,5,0,8,,,,,,,,,11,,,,77,103
24329,note_on,1,0,8,,,,,,,,,11,,,,76,0
24330,note_on,15,0,7,,,,,,,,,10,,,,64,88
24335,note_on,0,0,8,,,,,,,,,11,,,,76,103
24335,note_on,6,0,8,,,,,,,,,11,,,,77,0
24342,note_on,0,0,8,,,,,,,,,11,,,,77,103
24342,note_on,7,0,8,,,,,,,,,11,,,,76,0
24344,control_change,2,0,8,,,,,,,,,11,11,46,,,
24345,note_on,15,0,7,,,,,,,,,10,,,,64,0
24348,note_on,4,0,8,,,,,,,,,11,,,,76,103
24349,note_on,1,0,8,,,,,,,,,11,,,,77,0
24355,note_on,6,0,8,,,,,,,,,11,,,,76,0
24355,note_on,0,0,8,,,,,,,,,11,,,,77,103
24360,note_on,15,0,7,,,,,,,,,10,,,,67,88
24360,set_tempo,60,1,0,,,,,,937500,,,,,,,,
24362,note_on,7,0,8,,,,,,,,,11,,,,77,0
24362,note_on,0,0,8,,,,,,,,,11,,,,76,103
24365,control_change,3,0,8,,,,,,,,,11,11,48,,,
24368,note_on,3,0,8,,,,,,,,,11,,,,77,103
24369,note_on,1,0,8,,,,,,,,,11,,,,76,0
24375,note_on,6,0,8,,,,,,,,,11,,,,77,0
24375,note_on,0,0,8,,,,,,,,,11,,,,76,103
24375,note_on,15,0,7,,,,,,,,,10,,,,67,0
24382,note_on,0,0,8,,,,,,,,,11,,,,77,103
24382,note_on,7,0,8,,,,,,,,,11,,,,76,0
24386,control_change,4,0,8,,,,,,,,,11,11,50,,,
24389,note_on,3,0,8,,,,,,,,,11,,,,77,0
24390,note_on,15,0,7,,,,,,,,,10,,,,64,88
24392,note_on,3,0,8,,,,,,,,,11,,,,74,83
24405,note_on,15,0,7,,,,,,,,,10,,,,64,0
24407,note_on,15,0,8,,,,,,,,,11,,,,74,0
24407,control_change,0,0,8,,,,,,,,,11,11,52,,,
24407,note_on,0,0,8,,,,,,,,,11,,,,76,83
24420,note_on,15,0,7,,,,,,,,,10,,,,60,88
24422,note_on,15,0,8,,,,,,,,,11,,,,76,0
24424,note_on,120,0,10,,,,,,,,,6,,,,48,0
24425,note_on,0,0,4,,,,,,,,,3,,,,55,99
24425,note_on,120,0,4,,,,,,,,,3,,,,60,0
24425,note_on,120,0,11,,,,,,,,,13,,,,48,0
24428,note_on,120,0,12,,,,,,,,,14,,,,36,0
24435,note_on,15,0,7,,,,,,,,,10,,,,60,0
24450,note_on,15,0,7,,,,,,,,,10,,,,64,88
24465,note_on,15,0,7,,,,,,,,,10,,,,64,0
24480,note_on,15,0,7,,,,,,,,,10,,,,61,88
24480,note_on,55,0,4,,,,,,,,,3,,,,55,0
24480,set_tempo,120,1,0,,,,,,1034483,,,,,,,,
24481,program_change,599,0,9,,,,,,,,48,12,,,,,
24482,control_change,0,0,9,,,,,,,,,12,11,32,,,
24482,note_on,0,0,9,,,,,,,,,12,,,,57,96
24482,control_change,1,0,9,,,,,,,,,12,91,120,,,
24483,program_change,59,0,10,,,,,,,,42,6,,,,,
24484,control_change,1,0,10,,,,,,,,,6,91,120,,,
24484,note_on,0,0,10,,,,,,,,,6,,,,57,93
24484,control_change,0,0,10,,,,,,,,,6,11,32,,,
24485,note_on,5,0,4,,,,,,,,,3,,,,57,99
24485,note_on,60,0,11,,,,,,,,,13,,,,57,36
24488,note_on,60,0,12,,,,,,,,,14,,,,45,30
24495,note_on,15,0,7,,,,,,,,,10,,,,61,0
24500,control_change,18,0,9,,,,,,,,,12,11,35,,,
24502,control_change,18,0,10,,,,,,,,,6,11,35,,,
24510,note_on,15,0,7,,,,,,,,,10,,,,64,88
24518,control_change,18,0,9,,,,,,,,,12,11,38,,,
24520,control_change,18,0,10,,,,,,,,,6,11,38,,,
24525,note_on,15,0,7,,,,,,,,,10,,,,64,0
24536,control_change,18,0,9,,,,,,,,,12,11,41,,,
24538,control_change,18,0,10,,,,,,,,,6,11,41,,,
24540,note_on,15,0,7,,,,,,,,,10,,,,69,88
24540,set_tempo,60,1,0,,,,,,937500,,,,,,,,
24554,control_change,18,0,9,,,,,,,,,12,11,44,,,
24555,note_on,15,0,7,,,,,,,,,10,,,,69,0
24556,control_change,18,0,10,,,,,,,,,6,11,44,,,
24570,note_on,15,0,7,,,,,,,,,10,,,,64,88
24572,control_change,18,0,9,,,,,,,,,12,11,47,,,
24574,control_change,18,0,10,,,,,,,,,6,11,47,,,
24585,note_on,15,0,7,,,,,,,,,10,,,,64,0
24590,control_change,18,0,9,,,,,,,,,12,11,50,,,
24592,control_change,18,0,10,,,,,,,,,6,11,50,,,
24600,note_on,15,0,7,,,,,,,,,10,,,,61,88
24605,note_on,120,0,11,,,,,,,,,13,,,,57,0
24608,note_on,120,0,12,,,,,,,,,14,,,,45,0
24615,note_on,15,0,7,,,,,,,,,10,,,,61,0
24630,note_on,15,0,7,,,,,,,,,10,,,,64,88
24645,note_on,15,0,7,,,,,,,,,10,,,,64,0
24660,note_on,15,0,7,,,,,,,,,10,,,,62,88
24660,set_tempo,120,1,0,,,,,,1034483,,,,,,,,
24665,note_on,60,0,11,,,,,,,,,13,,,,50,36
24668,note_on,60,0,12,,,,,,,,,14,,,,38,30
24675,note_on,15,0,7,,,,,,,,,10,,,,62,0
24690,note_on,15,0,7,,,,,,,,,10,,,,65,88
24705,note_on,15,0,7,,,,,,,,,10,,,,65,0
24720,note_on,15,0,7,,,,,,,,,10,,,,69,88
24720,set_tempo,60,1,0,,,,,,937500,,,,,,,,
24722,note_on,0,0,9,,,,,,,,,12,,,,55,96
24722,note_on,132,0,9,,,,,,,,,12,,,,57,0
24724,note_on,132,0,10,,,,,,,,,6,,,,57,0
24724,note_on,0,0,10,,,,,,,,,6,,,,55,93
24725,note_on,240,0,4,,,,,,,,,3,,,,57,0
24725,note_on,0,0,4,,,,,,,,,3,,,,55,99
24735,note_on,15,0,7,,,,,,,,,10,,,,69,0
24750,note_on,15,0,7,,,,,,,,,10,,,,65,88
24765,note_on,15,0,7,,,,,,,,,10,,,,65,0
24780,note_on,15,0,7,,,,,,,,,10,,,,62,88
24782,note_on,60,0,9,,,,,,,,,12,,,,55,0
24782,note_on,0,0,9,,,,,,,,,12,,,,57,96
24784,note_on,60,0,10,,,,,,,,,6,,,,55,0
24784,note_on,0,0,10,,,,,,,,,6,,,,57,93
24785,note_on,120,0,11,,,,,,,,,13,,,,50,0
24785,note_on,60,0,4,,,,,,,,,3,,,,55,0
24785,note_on,0,0,4,,,,,,,,,3,,,,57,99
24788,note_on,120,0,12,,,,,,,,,14,,,,38,0
24795,note_on,15,0,7,,,,,,,,,10,,,,62,0
24810,note_on,15,0,7,,,,,,,,,10,,,,65,88
24825,note_on,15,0,7,,,,,,,,,10,,,,65,0
24840,set_tempo,120,1,0,,,,,,1034483,,,,,,,,
24840,note_on,15,0,7,,,,,,,,,10,,,,62,88
24842,note_on,60,0,9,,,,,,,,,12,,,,57,0
24842,note_on,0,0,8,,,,,,,,,11,,,,79,103
24842,control_change,420,0,8,,,,,,,,,11,11,42,,,
24842,note_on,0,0,9,,,,,,,,,12,,,,60,96
24844,note_on,0,0,10,,,,,,,,,6,,,,60,93
24844,note_on,60,0,10,,,,,,,,,6,,,,57,0
24845,note_on,0,0,4,,,,,,,,,3,,,,60,99
24845,note_on,60,0,11,,,,,,,,,13,,,,43,36
24845,note_on,60,0,4,,,,,,,,,3,,,,57,0
24848,note_on,6,0,8,,,,,,,,,11,,,,77,103
24848,note_on,60,0,12,,,,,,,,,14,,,,31,30
24849,note_on,1,0,8,,,,,,,,,11,,,,79,0
24855,note_on,15,0,7,,,,,,,,,10,,,,62,0
24855,note_on,6,0,8,,,,,,,,,11,,,,77,0
24855,note_on,0,0,8,,,,,,,,,11,,,,79,103
24857,note_on,0,0,9,,,,,,,,,12,,,,59,96
24857,note_on,15,0,9,,,,,,,,,12,,,,60,0
24859,note_on,15,0,10,,,,,,,,,6,,,,60,0
24859,note_on,0,0,10,,,,,,,,,6,,,,59,93
24860,note_on,0,0,4,,,,,,,,,3,,,,59,99
24860,note_on,15,0,4,,,,,,,,,3,,,,60,0
24862,note_on,0,0,8,,,,,,,,,11,,,,77,103
24862,note_on,7,0,8,,,,,,,,,11,,,,79,0
24863,control_change,1,0,8,,,,,,,,,11,11,44,,,
24868,note_on,5,0,8,,,,,,,,,11,,,,79,103
24869,note_on,1,0,8,,,,,,,,,11,,,,77,0
24870,note_on,15,0,7,,,,,,,,,10,,,,65,88
24875,note_on,6,0,8,,,,,,,,,11,,,,79,0
24875,note_on,0,0,8,,,,,,,,,11,,,,77,103
24882,note_on,7,0,8,,,,,,,,,11,,,,77,0
24882,note_on,0,0,8,,,,,,,,,11,,,,79,103
24884,control_change,2,0,8,,,,,,,,,11,11,46,,,
24885,note_on,15,0,7,,,,,,,,,10,,,,65,0
24888,note_on,4,0,8,,,,,,,,,11,,,,77,103
24889,note_on,1,0,8,,,,,,,,,11,,,,79,0
24895,note_on,0,0,8,,,,,,,,,11,,,,79,103
24895,note_on,6,0,8,,,,,,,,,11,,,,77,0
24900,set_tempo,60,1,0,,,,,,937500,,,,,,,,
24900,note_on,15,0,7,,,,,,,,,10,,,,67,88
24902,note_on,0,0,9,,,,,,,,,12,,,,57,96
24902,note_on,0,0,8,,,,,,,,,11,,,,77,103
24902,note_on,7,0,8,,,,,,,,,11,,,,79,0
24902,note_on,45,0,9,,,,,,,,,12,,,,59,0
24904,note_on,0,0,10,,,,,,,,,6,,,,57,93
24904,note_on,45,0,10,,,,,,,,,6,,,,59,0
24905,note_on,45,0,4,,,,,,,,,3,,,,59,0
24905,note_on,0,0,4,,,,,,,,,3,,,,57,99
24905,control_change,3,0,8,,,,,,,,,11,11,48,,,
24908,note_on,3,0,8,,,,,,,,,11,,,,79,103
24909,note_on,1,0,8,,,,,,,,,11,,,,77,0
24915,note_on,15,0,7,,,,,,,,,10,,,,67,0
24915,note_on,0,0,8,,,,,,,,,11,,,,77,103
24915,note_on,6,0,8,,,,,,,,,11,,,,79,0
24922,note_on,0,0,8,,,,,,,,,11,,,,79,103
24922,note_on,7,0,8,,,,,,,,,11,,,,77,0
24926,control_change,4,0,8,,,,,,,,,11,11,50,,,
24929,note_on,3,0,8,,,,,,,,,11,,,,79,0
24930,note_on,15,0,7,,,,,,,,,10,,,,65,88
24932,note_on,3,0,8,,,,,,,,,11,,,,76,83
24945,note_on,15,0,7,,,,,,,,,10,,,,65,0
24947,note_on,0,0,8,,,,,,,,,11,,,,77,83
24947,control_change,0,0,8,,,,,,,,,11,11,52,,,
24947,note_on,15,0,8,,,,,,,,,11,,,,76,0
24960,note_on,15,0,7,,,,,,,,,10,,,,62,88
24962,note_on,15,0,8,,,,,,,,,11,,,,77,0
24962,note_on,60,0,9,,,,,,,,,12,,,,57,0
24962,note_on,0,0,9,,,,,,,,,12,,,,59,96
24964,note_on,0,0,10,,,,,,,,,6,,,,59,93
24964,note_on,60,0,10,,,,,,,,,6,,,,57,0
24965,note_on,60,0,4,,,,,,,,,3,,,,57,0
24965,note_on,0,0,4,,,,,,,,,3,,,,59,99
24965,note_on,120,0,11,,,,,,,,,13,,,,43,0
24968,note_on,120,0,12,,,,,,,,,14,,,,31,0
24975,note_on,15,0,7,,,,,,,,,10,,,,62,0
24990,note_on,15,0,7,,,,,,,,,10,,,,65,88
25005,note_on,15,0,7,,,,,,,,,10,,,,65,0
25020,note_on,15,0,7,,,,,,,,,10,,,,60,88
25020,set_tempo,120,1,0,,,,,,1034483,,,,,,,,
25022,control_change,60,0,8,,,,,,,,,11,11,42,,,
25022,note_on,0,0,8,,,,,,,,,11,,,,77,103
25022,note_on,0,0,9,,,,,,,,,12,,,,60,96
25022,note_on,60,0,9,,,,,,,,,12,,,,59,0
25024,note_on,60,0,10,,,,,,,,,6,,,,59,0
25024,note_on,0,0,10,,,,,,,,,6,,,,60,93
25025,note_on,0,0,4,,,,,,,,,3,,,,60,99
25025,note_on,60,0,11,,,,,,,,,13,,,,48,36
25025,note_on,60,0,4,,,,,,,,,3,,,,59,0
25028,note_on,60,0,12,,,,,,,,,14,,,,36,30
25028,note_on,6,0,8,,,,,,,,,11,,,,76,103
25029,note_on,1,0,8,,,,,,,,,11,,,,77,0
25035,note_on,6,0,8,,,,,,,,,11,,,,76,0
25035,note_on,0,0,8,,,,,,,,,11,,,,77,103
25035,note_on,15,0,7,,,,,,,,,10,,,,60,0
25042,note_on,0,0,8,,,,,,,,,11,,,,76,103
25042,note_on,7,0,8,,,,,,,,,11,,,,77,0
25043,control_change,1,0,8,,,,,,,,,11,11,44,,,
25048,note_on,5,0,8,,,,,,,,,11,,,,77,103
25049,note_on,1,0,8,,,,,,,,,11,,,,76,0
25050,note_on,15,0,7,,,,,,,,,10,,,,64,88
25055,note_on,0,0,8,,,,,,,,,11,,,,76,103
25055,note_on,6,0,8,,,,,,,,,11,,,,77,0
25062,note_on,0,0,8,,,,,,,,,11,,,,77,103
25062,note_on,7,0,8,,,,,,,,,11,,,,76,0
25064,control_change,2,0,8,,,,,,,,,11,11,46,,,
25065,note_on,15,0,7,,,,,,,,,10,,,,64,0
25068,note_on,4,0,8,,,,,,,,,11,,,,76,103
25069,note_on,1,0,8,,,,,,,,,11,,,,77,0
25075,note_on,6,0,8,,,,,,,,,11,,,,76,0
25075,note_on,0,0,8,,,,,,,,,11,,,,77,103
25080,set_tempo,60,1,0,,,,,,937500,,,,,,,,
25080,note_on,15,0,7,,,,,,,,,10,,,,67,88
25082,note_on,0,0,8,,,,,,,,,11,,,,76,103
25082,note_on,7,0,8,,,,,,,,,11,,,,77,0
25085,control_change,3,0,8,,,,,,,,,11,11,48,,,
25088,note_on,3,0,8,,,,,,,,,11,,,,77,103
25089,note_on,1,0,8,,,,,,,,,11,,,,76,0
25095,note_on,6,0,8,,,,,,,,,11,,,,77,0
25095,note_on,0,0,8,,,,,,,,,11,,,,76,103
25095,note_on,15,0,7,,,,,,,,,10,,,,67,0
25102,note_on,7,0,8,,,,,,,,,11,,,,76,0
25102,note_on,0,0,8,,,,,,,,,11,,,,77,103
25106,control_change,4,0,8,,,,,,,,,11,11,50,,,
25109,note_on,3,0,8,,,,,,,,,11,,,,77,0
25110,note_on,15,0,7,,,,,,,,,10,,,,64,88
25112,note_on,3,0,8,,,,,,,,,11,,,,74,83
25125,note_on,15,0,7,,,,,,,,,10,,,,64,0
25127,note_on,15,0,8,,,,,,,,,11,,,,74,0
25127,control_change,0,0,8,,,,,,,,,11,11,52,,,
25127,note_on,0,0,8,,,,,,,,,11,,,,76,83
25140,note_on,15,0,7,,,,,,,,,10,,,,60,88
25142,note_on,15,0,8,,,,,,,,,11,,,,76,0
25142,note_on,0,0,9,,,,,,,,,12,,,,55,96
25142,note_on,120,0,9,,,,,,,,,12,,,,60,0
25144,note_on,120,0,10,,,,,,,,,6,,,,60,0
25144,note_on,0,0,10,,,,,,,,,6,,,,55,93
25145,note_on,0,0,4,,,,,,,,,3,,,,55,99
25145,note_on,120,0,4,,,,,,,,,3,,,,60,0
25145,note_on,120,0,11,,,,,,,,,13,,,,48,0
25148,note_on,120,0,12,,,,,,,,,14,,,,36,0
25155,note_on,15,0,7,,,,,,,,,10,,,,60,0
25170,note_on,15,0,7,,,,,,,,,10,,,,64,88
25185,note_on,15,0,7,,,,,,,,,10,,,,64,0
25197,note_on,55,0,9,,,,,,,,,12,,,,55,0
25199,note_on,55,0,10,,,,,,,,,6,,,,55,0
25200,note_on,55,0,4,,,,,,,,,3,,,,55,0
25200,set_tempo,120,1,0,,,,,,1034483,,,,,,,,
25200,note_on,15,0,7,,,,,,,,,10,,,,61,88
25202,control_change,5,0,9,,,,,,,,,12,11,42,,,
25202,note_on,0,0,9,,,,,,,,,12,,,,57,96
25204,control_change,5,0,10,,,,,,,,,6,11,42,,,
25204,note_on,0,0,10,,,,,,,,,6,,,,57,93
25205,note_on,5,0,4,,,,,,,,,3,,,,57,99
25205,note_on,60,0,11,,,,,,,,,13,,,,57,36
25208,note_on,60,0,12,,,,,,,,,14,,,,45,30
25215,note_on,15,0,7,,,,,,,,,10,,,,61,0
25226,control_change,24,0,9,,,,,,,,,12,11,44,,,
25228,control_change,24,0,10,,,,,,,,,6,11,44,,,
25230,note_on,15,0,7,,,,,,,,,10,,,,64,88
25245,note_on,15,0,7,,,,,,,,,10,,,,64,0
25250,control_change,24,0,9,,,,,,,,,12,11,46,,,
25252,control_change,24,0,10,,,,,,,,,6,11,46,,,
25260,set_tempo,60,1,0,,,,,,937500,,,,,,,,
25260,note_on,15,0,7,,,,,,,,,10,,,,69,88
25274,control_change,24,0,9,,,,,,,,,12,11,48,,,
25275,note_on,15,0,7,,,,,,,,,10,,,,69,0
25276,control_change,24,0,10,,,,,,,,,6,11,48,,,
25290,note_on,15,0,7,,,,,,,,,10,,,,64,88
25298,control_change,24,0,9,,,,,,,,,12,11,50,,,
25300,control_change,24,0,10,,,,,,,,,6,11,50,,,
25305,note_on,15,0,7,,,,,,,,,10,,,,64,0
25320,note_on,15,0,7,,,,,,,,,10,,,,61,88
25322,control_change,24,0,9,,,,,,,,,12,11,52,,,
25324,control_change,24,0,10,,,,,,,,,6,11,52,,,
25325,note_on,120,0,11,,,,,,,,,13,,,,57,0
25328,note_on,120,0,12,,,,,,,,,14,,,,45,0
25335,note_on,15,0,7,,,,,,,,,10,,,,61,0
25350,note_on,15,0,7,,,,,,,,,10,,,,64,88
25365,note_on,15,0,7,,,,,,,,,10,,,,64,0
25380,set_tempo,120,1,0,,,,,,1034483,,,,,,,,
25380,note_on,15,0,7,,,,,,,,,10,,,,62,88
25385,note_on,60,0,11,,,,,,,,,13,,,,50,36
25388,note_on,60,0,12,,,,,,,,,14,,,,38,30
25395,note_on,15,0,7,,,,,,,,,10,,,,62,0
25410,note_on,15,0,7,,,,,,,,,10,,,,65,88
25425,note_on,15,0,7,,,,,,,,,10,,,,65,0
25440,set_tempo,60,1,0,,,,,,937500,,,,,,,,
25440,note_on,15,0,7,,,,,,,,,10,,,,69,88
25442,note_on,0,0,9,,,,,,,,,12,,,,55,96
25442,note_on,120,0,9,,,,,,,,,12,,,,57,0
25444,note_on,0,0,10,,,,,,,,,6,,,,55,93
25444,note_on,120,0,10,,,,,,,,,6,,,,57,0
25445,note_on,240,0,4,,,,,,,,,3,,,,57,0
25445,note_on,0,0,4,,,,,,,,,3,,,,55,99
25455,note_on,15,0,7,,,,,,,,,10,,,,69,0
25470,note_on,15,0,7,,,,,,,,,10,,,,65,88
25485,note_on,15,0,7,,,,,,,,,10,,,,65,0
25500,note_on,15,0,7,,,,,,,,,10,,,,62,88
25502,note_on,0,0,9,,,,,,,,,12,,,,57,96
25502,note_on,60,0,9,,,,,,,,,12,,,,55,0
25504,note_on,60,0,10,,,,,,,,,6,,,,55,0
25504,note_on,0,0,10,,,,,,,,,6,,,,57,93
25505,note_on,120,0,11,,,,,,,,,13,,,,50,0
25505,note_on,0,0,4,,,,,,,,,3,,,,57,99
25505,note_on,60,0,4,,,,,,,,,3,,,,55,0
25508,note_on,120,0,12,,,,,,,,,14,,,,38,0
25515,note_on,15,0,7,,,,,,,,,10,,,,62,0
25530,note_on,15,0,7,,,,,,,,,10,,,,65,88
25545,note_on,15,0,7,,,,,,,,,10,,,,65,0
25560,note_on,15,0,7,,,,,,,,,10,,,,62,88
25560,set_tempo,120,1,0,,,,,,1034483,,,,,,,,
25562,control_change,420,0,8,,,,,,,,,11,11,42,,,
25562,note_on,60,0,9,,,,,,,,,12,,,,57,0
25562,note_on,0,0,9,,,,,,,,,12,,,,60,96
25562,note_on,0,0,8,,,,,,,,,11,,,,79,103
25564,note_on,0,0,10,,,,,,,,,6,,,,60,93
25564,note_on,60,0,10,,,,,,,,,6,,,,57,0
25565,note_on,60,0,4,,,,,,,,,3,,,,57,0
25565,note_on,0,0,4,,,,,,,,,3,,,,60,99
25565,note_on,60,0,11,,,,,,,,,13,,,,43,36
25568,note_on,60,0,12,,,,,,,,,14,,,,31,30
25568,note_on,6,0,8,,,,,,,,,11,,,,77,103
25569,note_on,1,0,8,,,,,,,,,11,,,,79,0
25575,note_on,0,0,8,,,,,,,,,11,,,,79,103
25575,note_on,15,0,7,,,,,,,,,10,,,,62,0
25575,note_on,6,0,8,,,,,,,,,11,,,,77,0
25577,note_on,0,0,9,,,,,,,,,12,,,,59,96
25577,note_on,15,0,9,,,,,,,,,12,,,,60,0
25579,note_on,0,0,10,,,,,,,,,6,,,,59,93
25579,note_on,15,0,10,,,,,,,,,6,,,,60,0
25580,note_on,0,0,4,,,,,,,,,3,,,,59,99
25580,note_on,15,0,4,,,,,,,,,3,,,,60,0
25582,note_on,0,0,8,,,,,,,,,11,,,,77,103
25582,note_on,7,0,8,,,,,,,,,11,,,,79,0
25583,control_change,1,0,8,,,,,,,,,11,11,44,,,
25588,note_on,5,0,8,,,,,,,,,11,,,,79,103
25589,note_on,1,0,8,,,,,,,,,11,,,,77,0
25590,note_on,15,0,7,,,,,,,,,10,,,,65,88
25595,note_on,0,0,8,,,,,,,,,11,,,,77,103
25595,note_on,6,0,8,,,,,,,,,11,,,,79,0
25602,note_on,0,0,8,,,,,,,,,11,,,,79,103
25602,note_on,7,0,8,,,,,,,,,11,,,,77,0
25604,control_change,2,0,8,,,,,,,,,11,11,46,,,
25605,note_on,15,0,7,,,,,,,,,10,,,,65,0
25608,note_on,4,0,8,,,,,,,,,11,,,,77,103
25609,note_on,1,0,8,,,,,,,,,11,,,,79,0
25615,note_on,6,0,8,,,,,,,,,11,,,,77,0
25615,note_on,0,0,8,,,,,,,,,11,,,,79,103
25620,note_on,15,0,7,,,,,,,,,10,,,,67,88
25620,set_tempo,60,1,0,,,,,,937500,,,,,,,,
25622,note_on,7,0,8,,,,,,,,,11,,,,79,0
25622,note_on,0,0,8,,,,,,,,,11,,,,77,103
25622,note_on,0,0,9,,,,,,,,,12,,,,57,96
25622,note_on,45,0,9,,,,,,,,,12,,,,59,0
25624,note_on,0,0,10,,,,,,,,,6,,,,57,93
25624,note_on,45,0,10,,,,,,,,,6,,,,59,0
25625,note_on,45,0,4,,,,,,,,,3,,,,59,0
25625,note_on,0,0,4,,,,,,,,,3,,,,57,99
25625,control_change,3,0,8,,,,,,,,,11,11,48,,,
25628,note_on,3,0,8,,,,,,,,,11,,,,79,103
25629,note_on,1,0,8,,,,,,,,,11,,,,77,0
25635,note_on,15,0,7,,,,,,,,,10,,,,67,0
25635,note_on,6,0,8,,,,,,,,,11,,,,79,0
25635,note_on,0,0,8,,,,,,,,,11,,,,77,103
25642,note_on,0,0,8,,,,,,,,,11,,,,79,103
25642,note_on,7,0,8,,,,,,,,,11,,,,77,0
25646,control_change,4,0,8,,,,,,,,,11,11,50,,,
25649,note_on,3,0,8,,,,,,,,,11,,,,79,0
25650,note_on,15,0,7,,,,,,,,,10,,,,65,88
25652,note_on,3,0,8,,,,,,,,,11,,,,76,90
25665,note_on,15,0,7,,,,,,,,,10,,,,65,0
25667,note_on,0,0,8,,,,,,,,,11,,,,77,90
25667,control_change,0,0,8,,,,,,,,,11,11,52,,,
25667,note_on,15,0,8,,,,,,,,,11,,,,76,0
25680,note_on,15,0,7,,,,,,,,,10,,,,62,88
25682,note_on,15,0,8,,,,,,,,,11,,,,77,0
25682,note_on,60,0,9,,,,,,,,,12,,,,57,0
25682,note_on,0,0,9,,,,,,,,,12,,,,59,96
25684,note_on,0,0,10,,,,,,,,,6,,,,59,93
25684,note_on,60,0,10,,,,,,,,,6,,,,57,0
25685,note_on,120,0,11,,,,,,,,,13,,,,43,0
25685,note_on,0,0,4,,,,,,,,,3,,,,59,99
25685,note_on,60,0,4,,,,,,,,,3,,,,57,0
25688,note_on,120,0,12,,,,,,,,,14,,,,31,0
25695,note_on,15,0,7,,,,,,,,,10,,,,62,0
25710,note_on,15,0,7,,,,,,,,,10,,,,65,88
25725,note_on,15,0,7,,,,,,,,,10,,,,65,0
25740,note_on,15,0,7,,,,,,,,,10,,,,60,88
25740,set_tempo,120,1,0,,,,,,1034483,,,,,,,,
25742,control_change,60,0,8,,,,,,,,,11,11,42,,,
25742,note_on,0,0,8,,,,,,,,,11,,,,77,103
25742,note_on,60,0,9,,,,,,,,,12,,,,59,0
25742,note_on,0,0,9,,,,,,,,,12,,,,60,96
25744,note_on,60,0,10,,,,,,,,,6,,,,59,0
25744,note_on,0,0,10,,,,,,,,,6,,,,60,93
25745,note_on,60,0,11,,,,,,,,,13,,,,48,41
25745,note_on,60,0,4,,,,,,,,,3,,,,59,0
25745,control_change,0,0,4,,,,,,,,,3,11,54,,,
25745,note_on,0,0,4,,,,,,,,,3,,,,60,99
25748,note_on,60,0,12,,,,,,,,,14,,,,36,36
25748,note_on,6,0,8,,,,,,,,,11,,,,76,103
25749,note_on,1,0,8,,,,,,,,,11,,,,77,0
25755,note_on,15,0,7,,,,,,,,,10,,,,60,0
25755,note_on,6,0,8,,,,,,,,,11,,,,76,0
25755,note_on,0,0,8,,,,,,,,,11,,,,77,103
25762,note_on,7,0,8,,,,,,,,,11,,,,77,0
25762,note_on,0,0,8,,,,,,,,,11,,,,76,103
25763,control_change,1,0,8,,,,,,,,,11,11,44,,,
25768,note_on,5,0,8,,,,,,,,,11,,,,77,103
25769,note_on,1,0,8,,,,,,,,,11,,,,76,0
25769,control_change,24,0,4,,,,,,,,,3,11,55,,,
25770,note_on,15,0,7,,,,,,,,,10,,,,64,88
25775,note_on,6,0,8,,,,,,,,,11,,,,77,0
25775,note_on,0,0,8,,,,,,,,,11,,,,76,103
25782,note_on,7,0,8,,,,,,,,,11,,,,76,0
25782,note_on,0,0,8,,,,,,,,,11,,,,77,103
25784,control_change,2,0,8,,,,,,,,,11,11,46,,,
25785,note_on,15,0,7,,,,,,,,,10,,,,64,0
25788,note_on,4,0,8,,,,,,,,,11,,,,76,103
25789,note_on,1,0,8,,,,,,,,,11,,,,77,0
25793,control_change,24,0,4,,,,,,,,,3,11,55,,,
25795,note_on,6,0,8,,,,,,,,,11,,,,76,0
25795,note_on,0,0,8,,,,,,,,,11,,,,77,103
25800,note_on,15,0,7,,,,,,,,,10,,,,67,88
25800,set_tempo,60,1,0,,,,,,937500,,,,,,,,
25802,note_on,0,0,8,,,,,,,,,11,,,,76,103
25802,note_on,7,0,8,,,,,,,,,11,,,,77,0
25805,control_change,3,0,8,,,,,,,,,11,11,48,,,
25808,note_on,3,0,8,,,,,,,,,11,,,,77,103
25809,note_on,1,0,8,,,,,,,,,11,,,,76,0
25815,note_on,6,0,8,,,,,,,,,11,,,,77,0
25815,note_on,15,0,7,,,,,,,,,10,,,,67,0
25815,note_on,0,0,8,,,,,,,,,11,,,,76,103
25818,control_change,25,0,4,,,,,,,,,3,11,56,,,
25822,note_on,0,0,8,,,,,,,,,11,,,,77,103
25822,note_on,7,0,8,,,,,,,,,11,,,,76,0
25826,control_change,4,0,8,,,,,,,,,11,11,50,,,
25829,note_on,3,0,8,,,,,,,,,11,,,,77,0
25830,note_on,15,0,7,,,,,,,,,10,,,,64,88
25832,note_on,3,0,8,,,,,,,,,11,,,,74,90
25842,control_change,24,0,4,,,,,,,,,3,11,57,,,
25845,note_on,15,0,7,,,,,,,,,10,,,,64,0
25847,note_on,15,0,8,,,,,,,,,11,,,,74,0
25847,control_change,0,0,8,,,,,,,,,11,11,52,,,
25847,note_on,0,0,8,,,,,,,,,11,,,,76,90
25860,note_on,0,0,7,,,,,,,,,10,,,,60,88
25860,control_change,15,0,7,,,,,,,,,10,11,47,,,
25862,control_change,0,0,9,,,,,,,,,12,11,52,,,
25862,note_on,15,0,8,,,,,,,,,11,,,,76,0
25862,note_on,120,0,9,,,,,,,,,12,,,,60,0
25862,note_on,0,0,9,,,,,,,,,12,,,,55,96
25864,note_on,120,0,10,,,,,,,,,6,,,,60,0
25864,control_change,0,0,10,,,,,,,,,6,11,52,,,
25864,note_on,0,0,10,,,,,,,,,6,,,,55,93
25865,note_on,120,0,11,,,,,,,,,13,,,,48,0
25865,note_on,23,0,4,,,,,,,,,3,,,,60,0
25865,note_on,0,0,4,,,,,,,,,3,,,,55,99
25867,control_change,2,0,4,,,,,,,,,3,11,58,,,
25868,note_on,120,0,12,,,,,,,,,14,,,,36,0
25875,note_on,15,0,7,,,,,,,,,10,,,,60,0
25890,note_on,15,0,7,,,,,,,,,10,,,,64,88
25891,control_change,24,0,4,,,,,,,,,3,11,59,,,
25893,control_change,3,0,7,,,,,,,,,10,11,48,,,
25899,control_change,37,0,9,,,,,,,,,12,11,53,,,
25901,control_change,37,0,10,,,,,,,,,6,11,53,,,
25905,note_on,12,0,7,,,,,,,,,10,,,,64,0
25915,control_change,24,0,4,,,,,,,,,3,11,60,,,
25917,note_on,18,0,9,,,,,,,,,12,,,,55,0
25919,note_on,18,0,10,,,,,,,,,6,,,,55,0
25920,note_on,15,0,7,,,,,,,,,10,,,,60,88
25920,note_on,5,0,4,,,,,,,,,3,,,,55,0
25920,set_tempo,120,1,0,,,,,,1034483,,,,,,,,
25922,note_on,0,0,8,,,,,,,,,11,,,,79,103
25922,control_change,60,0,8,,,,,,,,,11,11,42,,,
25922,note_on,5,0,9,,,,,,,,,12,,,,57,96
25924,note_on,5,0,10,,,,,,,,,6,,,,57,83
25925,note_on,60,0,11,,,,,,,,,13,,,,48,44
25925,note_on,5,0,4,,,,,,,,,3,,,,57,95
25926,control_change,6,0,7,,,,,,,,,10,11,49,,,
25928,note_on,6,0,8,,,,,,,,,11,,,,77,103
25928,note_on,60,0,12,,,,,,,,,14,,,,36,39
25929,note_on,1,0,8,,,,,,,,,11,,,,79,0
25935,note_on,0,0,8,,,,,,,,,11,,,,79,103
25935,note_on,9,0,7,,,,,,,,,10,,,,60,0
25935,note_on,6,0,8,,,,,,,,,11,,,,77,0
25937,control_change,15,0,9,,,,,,,,,12,11,54,,,
25939,control_change,15,0,10,,,,,,,,,6,11,54,,,
25940,control_change,15,0,4,,,,,,,,,3,11,61,,,
25942,note_on,0,0,8,,,,,,,,,11,,,,77,103
25942,note_on,7,0,8,,,,,,,,,11,,,,79,0
25943,control_change,1,0,8,,,,,,,,,11,11,44,,,
25948,note_on,5,0,8,,,,,,,,,11,,,,79,103
25949,note_on,1,0,8,,,,,,,,,11,,,,77,0
25950,note_on,15,0,7,,,,,,,,,10,,,,65,88
25955,note_on,6,0,8,,,,,,,,,11,,,,79,0
25955,note_on,0,0,8,,,,,,,,,11,,,,77,103
25959,control_change,9,0,7,,,,,,,,,10,11,50,,,
25962,note_on,7,0,8,,,,,,,,,11,,,,77,0
25962,note_on,0,0,8,,,,,,,,,11,,,,79,103
25964,control_change,24,0,4,,,,,,,,,3,11,61,,,
25964,control_change,2,0,8,,,,,,,,,11,11,46,,,
25965,note_on,6,0,7,,,,,,,,,10,,,,65,0
25968,note_on,4,0,8,,,,,,,,,11,,,,77,103
25969,note_on,1,0,8,,,,,,,,,11,,,,79,0
25975,note_on,6,0,8,,,,,,,,,11,,,,77,0
25975,control_change,38,0,9,,,,,,,,,12,11,55,,,
25975,note_on,0,0,8,,,,,,,,,11,,,,79,103
25977,control_change,38,0,10,,,,,,,,,6,11,55,,,
25980,set_tempo,60,1,0,,,,,,937500,,,,,,,,
25980,note_on,15,0,7,,,,,,,,,10,,,,69,88
25982,note_on,7,0,8,,,,,,,,,11,,,,79,0
25982,note_on,0,0,8,,,,,,,,,11,,,,77,103
25985,control_change,3,0,8,,,,,,,,,11,11,48,,,
25988,note_on,3,0,8,,,,,,,,,11,,,,79,103
25989,control_change,25,0,4,,,,,,,,,3,11,62,,,
25989,note_on,1,0,8,,,,,,,,,11,,,,77,0
25992,control_change,12,0,7,,,,,,,,,10,11,51,,,
25995,note_on,3,0,7,,,,,,,,,10,,,,69,0
25995,note_on,6,0,8,,,,,,,,,11,,,,79,0
25995,note_on,0,0,8,,,,,,,,,11,,,,77,103
26002,note_on,0,0,8,,,,,,,,,11,,,,79,103
26002,note_on,7,0,8,,,,,,,,,11,,,,77,0
26006,control_change,4,0,8,,,,,,,,,11,11,50,,,
26009,note_on,3,0,8,,,,,,,,,11,,,,79,0
26010,note_on,15,0,7,,,,,,,,,10,,,,65,88
26012,control_change,37,0,9,,,,,,,,,12,11,56,,,
26012,note_on,3,0,8,,,,,,,,,11,,,,76,90
26013,control_change,24,0,4,,,,,,,,,3,11,63,,,
26014,control_change,37,0,10,,,,,,,,,6,11,56,,,
26025,control_change,0,0,7,,,,,,,,,10,11,52,,,
26025,note_on,15,0,7,,,,,,,,,10,,,,65,0
26027,note_on,0,0,8,,,,,,,,,11,,,,77,90
26027,note_on,15,0,8,,,,,,,,,11,,,,76,0
26027,control_change,0,0,8,,,,,,,,,11,11,52,,,
26037,control_change,24,0,4,,,,,,,,,3,11,64,,,
26040,note_on,15,0,7,,,,,,,,,10,,,,60,88
26042,note_on,30,0,9,,,,,,,,,12,,,,57,0
26042,note_on,0,0,9,,,,,,,,,12,,,,53,91
26042,note_on,15,0,8,,,,,,,,,11,,,,77,0
26044,note_on,30,0,10,,,,,,,,,6,,,,57,0
26044,note_on,0,0,10,,,,,,,,,6,,,,53,81
26045,note_on,120,0,11,,,,,,,,,13,,,,48,0
26045,note_on,0,0,4,,,,,,,,,3,,,,53,95
26045,note_on,8,0,4,,,,,,,,,3,,,,57,0
26048,note_on,120,0,12,,,,,,,,,14,,,,36,0
26050,control_change,8,0,9,,,,,,,,,12,11,57,,,
26052,control_change,8,0,10,,,,,,,,,6,11,57,,,
26055,note_on,15,0,7,,,,,,,,,10,,,,60,0
26058,control_change,3,0,7,,,,,,,,,10,11,53,,,
26062,control_change,17,0,4,,,,,,,,,3,11,65,,,
26070,note_on,12,0,7,,,,,,,,,10,,,,65,88
26085,note_on,15,0,7,,,,,,,,,10,,,,65,0
26086,control_change,24,0,4,,,,,,,,,3,11,65,,,
26088,control_change,38,0,9,,,,,,,,,12,11,58,,,
26090,control_change,38,0,10,,,,,,,,,6,11,58,,,
26091,control_change,6,0,7,,,,,,,,,10,11,54,,,
26100,note_on,9,0,7,,,,,,,,,10,,,,60,88
26100,set_tempo,120,1,0,,,,,,1034483,,,,,,,,
26102,note_on,14,0,9,,,,,,,,,12,,,,53,0
26102,note_on,0,0,9,,,,,,,,,12,,,,48,91
26102,control_change,60,0,8,,,,,,,,,11,11,47,,,
26102,note_on,0,0,8,,,,,,,,,11,,,,81,103
26103,control_change,0,0,3,,,,,,,,,2,11,66,,,
26103,note_on,2220,0,3,,,,,,,,,2,,,,72,96
26104,note_on,0,0,10,,,,,,,,,6,,,,48,80
26104,note_on,14,0,10,,,,,,,,,6,,,,53,0
26105,note_on,19,0,4,,,,,,,,,3,,,,53,0
26105,note_on,60,0,11,,,,,,,,,13,,,,48,48
26105,note_on,0,0,4,,,,,,,,,3,,,,48,95
26108,note_on,6,0,8,,,,,,,,,11,,,,79,103
26108,note_on,60,0,12,,,,,,,,,14,,,,36,42
26109,note_on,1,0,8,,,,,,,,,11,,,,81,0
26111,control_change,6,0,4,,,,,,,,,3,11,66,,,
26115,note_on,6,0,8,,,,,,,,,11,,,,79,0
26115,note_on,0,0,8,,,,,,,,,11,,,,81,103
26115,note_on,15,0,7,,,,,,,,,10,,,,60,0
26122,note_on,7,0,8,,,,,,,,,11,,,,81,0
26122,note_on,0,0,8,,,,,,,,,11,,,,79,103
26123,control_change,1,0,8,,,,,,,,,11,11,49,,,
26124,control_change,9,0,7,,,,,,,,,10,11,55,,,
26126,control_change,24,0,9,,,,,,,,,12,11,59,,,
26128,control_change,24,0,10,,,,,,,,,6,11,59,,,
26128,note_on,5,0,8,,,,,,,,,11,,,,81,103
26129,note_on,1,0,8,,,,,,,,,11,,,,79,0
26130,note_on,6,0,7,,,,,,,,,10,,,,67,88
26135,control_change,24,0,4,,,,,,,,,3,11,67,,,
26135,note_on,6,0,8,,,,,,,,,11,,,,81,0
26135,note_on,0,0,8,,,,,,,,,11,,,,79,103
26139,control_change,36,0,3,,,,,,,,,2,11,66,,,
26142,note_on,7,0,8,,,,,,,,,11,,,,79,0
26142,note_on,0,0,8,,,,,,,,,11,,,,81,103
26144,control_change,2,0,8,,,,,,,,,11,11,51,,,
26145,note_on,15,0,7,,,,,,,,,10,,,,67,0
26148,note_on,4,0,8,,,,,,,,,11,,,,79,103
26149,note_on,1,0,8,,,,,,,,,11,,,,81,0
26155,note_on,6,0,8,,,,,,,,,11,,,,79,0
26155,note_on,0,0,8,,,,,,,,,11,,,,81,103
26157,control_change,12,0,7,,,,,,,,,10,11,56,,,
26159,control_change,24,0,4,,,,,,,,,3,11,68,,,
26160,note_on,3,0,7,,,,,,,,,10,,,,70,88
26160,set_tempo,60,1,0,,,,,,937500,,,,,,,,
26162,note_on,7,0,8,,,,,,,,,11,,,,81,0
26162,note_on,0,0,8,,,,,,,,,11,,,,79,103
26163,control_change,37,0,9,,,,,,,,,12,11,60,,,
26165,control_change,37,0,10,,,,,,,,,6,11,60,,,
26165,control_change,3,0,8,,,,,,,,,11,11,53,,,
26168,note_on,3,0,8,,,,,,,,,11,,,,81,103
26169,note_on,1,0,8,,,,,,,,,11,,,,79,0
26175,note_on,15,0,7,,,,,,,,,10,,,,70,0
26175,control_change,36,0,3,,,,,,,,,2,11,67,,,
26175,note_on,6,0,8,,,,,,,,,11,,,,81,0
26175,note_on,0,0,8,,,,,,,,,11,,,,79,103
26182,note_on,0,0,8,,,,,,,,,11,,,,81,103
26182,note_on,7,0,8,,,,,,,,,11,,,,79,0
26184,control_change,25,0,4,,,,,,,,,3,11,69,,,
26186,control_change,4,0,8,,,,,,,,,11,11,55,,,
26189,note_on,3,0,8,,,,,,,,,11,,,,81,0
26190,control_change,15,0,7,,,,,,,,,10,11,57,,,
26190,note_on,0,0,7,,,,,,,,,10,,,,67,88
26192,note_on,3,0,8,,,,,,,,,11,,,,77,90
26201,control_change,38,0,9,,,,,,,,,12,11,61,,,
26203,control_change,38,0,10,,,,,,,,,6,11,61,,,
26205,note_on,15,0,7,,,,,,,,,10,,,,67,0
26207,note_on,15,0,8,,,,,,,,,11,,,,77,0
26207,control_change,0,0,8,,,,,,,,,11,11,57,,,
26207,note_on,0,0,8,,,,,,,,,11,,,,79,90
26208,control_change,24,0,4,,,,,,,,,3,11,70,,,
26211,control_change,36,0,3,,,,,,,,,2,11,67,,,
26220,note_on,15,0,7,,,,,,,,,10,,,,60,88
26222,note_on,0,0,9,,,,,,,,,12,,,,52,91
26222,note_on,21,0,9,,,,,,,,,12,,,,48,0
26222,note_on,15,0,8,,,,,,,,,11,,,,79,0
26223,note_on,12,0,3,,,,,,,,,2,,,,72,0
26223,control_change,3,0,7,,,,,,,,,10,11,58,,,
26223,note_on,0,0,3,,,,,,,,,2,,,,67,96
26224,note_on,0,0,10,,,,,,,,,6,,,,52,77
26224,note_on,21,0,10,,,,,,,,,6,,,,48,0
26225,note_on,0,0,4,,,,,,,,,3,,,,52,95
26225,note_on,17,0,4,,,,,,,,,3,,,,48,0
26225,note_on,120,0,11,,,,,,,,,13,,,,48,0
26228,note_on,120,0,12,,,,,,,,,14,,,,36,0
26233,control_change,8,0,4,,,,,,,,,3,11,70,,,
26235,note_on,12,0,7,,,,,,,,,10,,,,60,0
26239,control_change,17,0,9,,,,,,,,,12,11,62,,,
26241,control_change,17,0,10,,,,,,,,,6,11,62,,,
26247,control_change,24,0,3,,,,,,,,,2,11,68,,,
26250,note_on,15,0,7,,,,,,,,,10,,,,67,88
26256,control_change,6,0,7,,,,,,,,,10,11,59,,,
26257,control_change,24,0,4,,,,,,,,,3,11,71,,,
26265,note_on,9,0,7,,,,,,,,,10,,,,67,0
26276,control_change,37,0,9,,,,,,,,,12,11,63,,,
26278,control_change,37,0,10,,,,,,,,,6,11,63,,,
26280,note_on,15,0,7,,,,,,,,,10,,,,60,88
26280,set_tempo,120,1,0,,,,,,1034483,,,,,,,,
26281,control_change,24,0,4,,,,,,,,,3,11,72,,,
26282,control_change,60,0,8,,,,,,,,,11,11,52,,,
26282,note_on,6,0,9,,,,,,,,,12,,,,52,0
26282,note_on,0,0,9,,,,,,,,,12,,,,53,91
26282,note_on,0,0,8,,,,,,,,,11,,,,79,103
26283,note_on,36,0,3,,,,,,,,,2,,,,67,0
26283,note_on,0,0,3,,,,,,,,,2,,,,69,96
26283,control_change,0,0,3,,,,,,,,,2,11,68,,,
26284,note_on,0,0,10,,,,,,,,,6,,,,53,77
26284,note_on,6,0,10,,,,,,,,,6,,,,52,0
26285,note_on,0,0,4,,,,,,,,,3,,,,53,95
26285,note_on,60,0,11,,,,,,,,,13,,,,48,52
26285,note_on,4,0,4,,,,,,,,,3,,,,52,0
26288,note_on,60,0,12,,,,,,,,,14,,,,36,46
26288,note_on,6,0,8,,,,,,,,,11,,,,77,103
26289,note_on,1,0,8,,,,,,,,,11,,,,79,0
26289,control_change,9,0,7,,,,,,,,,10,11,60,,,
26295,note_on,0,0,8,,,,,,,,,11,,,,79,103
26295,note_on,6,0,7,,,,,,,,,10,,,,60,0
26295,note_on,6,0,8,,,,,,,,,11,,,,77,0
26302,note_on,0,0,8,,,,,,,,,11,,,,77,103
26302,note_on,7,0,8,,,,,,,,,11,,,,79,0
26303,control_change,1,0,8,,,,,,,,,11,11,54,,,
26306,control_change,21,0,4,,,,,,,,,3,11,73,,,
26308,note_on,5,0,8,,,,,,,,,11,,,,79,103
26309,note_on,1,0,8,,,,,,,,,11,,,,77,0
26310,note_on,15,0,7,,,,,,,,,10,,,,65,88
26314,control_change,32,0,9,,,,,,,,,12,11,64,,,
26315,note_on,6,0,8,,,,,,,,,11,,,,79,0
26315,note_on,0,0,8,,,,,,,,,11,,,,77,103
26316,control_change,32,0,10,,,,,,,,,6,11,64,,,
26319,control_change,36,0,3,,,,,,,,,2,11,69,,,
26322,control_change,12,0,7,,,,,,,,,10,11,61,,,
26322,note_on,0,0,8,,,,,,,,,11,,,,79,103
26322,note_on,7,0,8,,,,,,,,,11,,,,77,0
26324,control_change,2,0,8,,,,,,,,,11,11,56,,,
26325,note_on,3,0,7,,,,,,,,,10,,,,65,0
26328,note_on,4,0,8,,,,,,,,,11,,,,77,103
26329,note_on,1,0,8,,,,,,,,,11,,,,79,0
26330,control_change,24,0,4,,,,,,,,,3,11,74,,,
26335,note_on,0,0,8,,,,,,,,,11,,,,79,103
26335,note_on,6,0,8,,,,,,,,,11,,,,77,0
26340,set_tempo,60,1,0,,,,,,937500,,,,,,,,
26340,note_on,15,0,7,,,,,,,,,10,,,,69,88
26342,note_on,7,0,8,,,,,,,,,11,,,,79,0
26342,note_on,0,0,8,,,,,,,,,11,,,,77,104
26345,control_change,3,0,8,,,,,,,,,11,11,58,,,
26348,note_on,3,0,8,,,,,,,,,11,,,,79,104
26349,note_on,1,0,8,,,,,,,,,11,,,,77,0
26352,control_change,38,0,9,,,,,,,,,12,11,65,,,
26354,control_change,38,0,10,,,,,,,,,6,11,65,,,
26355,control_change,0,0,7,,,,,,,,,10,11,62,,,
26355,control_change,25,0,4,,,,,,,,,3,11,75,,,
26355,note_on,15,0,7,,,,,,,,,10,,,,69,0
26355,control_change,36,0,3,,,,,,,,,2,11,69,,,
26355,note_on,0,0,8,,,,,,,,,11,,,,77,104
26355,note_on,6,0,8,,,,,,,,,11,,,,79,0
26362,note_on,0,0,8,,,,,,,,,11,,,,79,104
26362,note_on,7,0,8,,,,,,,,,11,,,,77,0
26366,control_change,4,0,8,,,,,,,,,11,11,60,,,
26369,note_on,3,0,8,,,,,,,,,11,,,,79,0
26370,note_on,15,0,7,,,,,,,,,10,,,,65,88
26372,note_on,3,0,8,,,,,,,,,11,,,,76,90
26379,control_change,24,0,4,,,,,,,,,3,11,76,,,
26385,note_on,15,0,7,,,,,,,,,10,,,,65,0
26387,note_on,0,0,8,,,,,,,,,11,,,,77,90
26387,control_change,0,0,8,,,,,,,,,11,11,62,,,
26387,note_on,15,0,8,,,,,,,,,11,,,,76,0
26388,control_change,3,0,7,,,,,,,,,10,11,63,,,
26390,control_change,38,0,9,,,,,,,,,12,11,66,,,
26391,control_change,36,0,3,,,,,,,,,2,11,70,,,
26392,control_change,38,0,10,,,,,,,,,6,11,66,,,
26400,note_on,12,0,7,,,,,,,,,10,,,,60,88
26402,note_on,0,0,9,,,,,,,,,12,,,,57,91
26402,note_on,12,0,9,,,,,,,,,12,,,,53,0
26402,note_on,15,0,8,,,,,,,,,11,,,,77,0
26403,note_on,12,0,3,,,,,,,,,2,,,,69,0
26403,note_on,0,0,3,,,,,,,,,2,,,,65,96
26403,control_change,24,0,4,,,,,,,,,3,11,76,,,
26404,note_on,12,0,10,,,,,,,,,6,,,,53,0
26404,note_on,0,0,10,,,,,,,,,6,,,,57,74
26405,note_on,120,0,11,,,,,,,,,13,,,,48,0
26405,note_on,2,0,4,,,,,,,,,3,,,,53,0
26405,note_on,0,0,4,,,,,,,,,3,,,,57,95
26408,note_on,120,0,12,,,,,,,,,14,,,,36,0
26415,note_on,15,0,7,,,,,,,,,10,,,,60,0
26421,control_change,6,0,7,,,,,,,,,10,11,64,,,
26427,control_change,25,0,9,,,,,,,,,12,11,67,,,
26427,control_change,24,0,3,,,,,,,,,2,11,70,,,
26428,control_change,23,0,4,,,,,,,,,3,11,77,,,
26429,control_change,25,0,10,,,,,,,,,6,11,67,,,
26430,note_on,9,0,7,,,,,,,,,10,,,,65,88
26445,note_on,15,0,7,,,,,,,,,10,,,,65,0
26452,control_change,24,0,4,,,,,,,,,3,11,78,,,
26454,control_change,9,0,7,,,,,,,,,10,11,65,,,
26460,note_on,6,0,7,,,,,,,,,10,,,,60,88
26460,set_tempo,120,1,0,,,,,,1034483,,,,,,,,
26462,note_on,35,0,9,,,,,,,,,12,,,,57,0
26462,note_on,0,0,9,,,,,,,,,12,,,,60,91
26462,note_on,0,0,8,,,,,,,,,11,,,,77,105
26462,control_change,60,0,8,,,,,,,,,11,11,57,,,
26463,control_change,0,0,3,,,,,,,,,2,11,70,,,
26463,note_on,36,0,3,,,,,,,,,2,,,,65,0
26463,note_on,0,0,3,,,,,,,,,2,,,,72,96
26463,note_on,0,0,3,,,,,,,,,2,,,,60,96
26464,note_on,0,0,10,,,,,,,,,6,,,,60,73
26464,note_on,35,0,10,,,,,,,,,6,,,,57,0
26465,note_on,13,0,4,,,,,,,,,3,,,,57,0
26465,control_change,3,0,9,,,,,,,,,12,11,68,,,
26465,note_on,60,0,11,,,,,,,,,13,,,,48,56
26465,note_on,0,0,4,,,,,,,,,3,,,,60,95
26467,control_change,3,0,10,,,,,,,,,6,11,68,,,
26468,note_on,6,0,8,,,,,,,,,11,,,,76,105
26468,note_on,60,0,12,,,,,,,,,14,,,,36,51
26469,note_on,1,0,8,,,,,,,,,11,,,,77,0
26475,note_on,0,0,8,,,,,,,,,11,,,,77,105
26475,note_on,6,0,8,,,,,,,,,11,,,,76,0
26475,note_on,15,0,7,,,,,,,,,10,,,,60,0
26477,control_change,12,0,4,,,,,,,,,3,11,79,,,
26482,note_on,0,0,8,,,,,,,,,11,,,,76,105
26482,note_on,7,0,8,,,,,,,,,11,,,,77,0
26483,control_change,1,0,8,,,,,,,,,11,11,59,,,
26487,control_change,12,0,7,,,,,,,,,10,11,66,,,
26488,note_on,5,0,8,,,,,,,,,11,,,,77,105
26489,note_on,1,0,8,,,,,,,,,11,,,,76,0
26490,note_on,3,0,7,,,,,,,,,10,,,,64,88
26495,note_on,6,0,8,,,,,,,,,11,,,,77,0
26495,note_on,0,0,8,,,,,,,,,11,,,,76,105
26499,control_change,36,0,3,,,,,,,,,2,11,71,,,
26501,control_change,24,0,4,,,,,,,,,3,11,80,,,
26502,note_on,7,0,8,,,,,,,,,11,,,,76,0
26502,note_on,0,0,8,,,,,,,,,11,,,,77,106
26503,control_change,38,0,9,,,,,,,,,12,11,69,,,
26504,control_change,2,0,8,,,,,,,,,11,11,61,,,
26505,control_change,38,0,10,,,,,,,,,6,11,69,,,
26505,note_on,15,0,7,,,,,,,,,10,,,,64,0
26508,note_on,4,0,8,,,,,,,,,11,,,,76,106
26509,note_on,1,0,8,,,,,,,,,11,,,,77,0
26515,note_on,0,0,8,,,,,,,,,11,,,,77,106
26515,note_on,6,0,8,,,,,,,,,11,,,,76,0
26520,set_tempo,60,1,0,,,,,,937500,,,,,,,,
26520,note_on,0,0,7,,,,,,,,,10,,,,67,88
26520,control_change,15,0,7,,,,,,,,,10,11,67,,,
26522,note_on,0,0,8,,,,,,,,,11,,,,76,106
26522,note_on,7,0,8,,,,,,,,,11,,,,77,0
26525,control_change,3,0,8,,,,,,,,,11,11,63,,,
26526,control_change,25,0,4,,,,,,,,,3,11,80,,,
26528,note_on,3,0,8,,,,,,,,,11,,,,77,106
26529,note_on,1,0,8,,,,,,,,,11,,,,76,0
26535,note_on,6,0,8,,,,,,,,,11,,,,77,0
26535,control_change,36,0,3,,,,,,,,,2,11,71,,,
26535,note_on,0,0,8,,,,,,,,,11,,,,76,106
26535,note_on,15,0,7,,,,,,,,,10,,,,67,0
26540,control_change,37,0,9,,,,,,,,,12,11,70,,,
26542,note_on,0,0,8,,,,,,,,,11,,,,77,106
26542,note_on,7,0,8,,,,,,,,,11,,,,76,0
26542,control_change,37,0,10,,,,,,,,,6,11,70,,,
26546,control_change,4,0,8,,,,,,,,,11,11,65,,,
26549,note_on,3,0,8,,,,,,,,,11,,,,77,0
26550,control_change,24,0,4,,,,,,,,,3,11,81,,,
26550,note_on,15,0,7,,,,,,,,,10,,,,64,88
26552,note_on,3,0,8,,,,,,,,,11,,,,74,93
26553,control_change,3,0,7,,,,,,,,,10,11,68,,,
26565,note_on,12,0,7,,,,,,,,,10,,,,64,0
26567,note_on,15,0,8,,,,,,,,,11,,,,74,0
26567,control_change,0,0,8,,,,,,,,,11,11,67,,,
26567,note_on,0,0,8,,,,,,,,,11,,,,76,94
26571,control_change,36,0,3,,,,,,,,,2,11,72,,,
26574,control_change,24,0,4,,,,,,,,,3,11,82,,,
26578,control_change,38,0,9,,,,,,,,,12,11,71,,,
26580,note_on,15,0,7,,,,,,,,,10,,,,60,88
26580,control_change,38,0,10,,,,,,,,,6,11,71,,,
26582,note_on,15,0,8,,,,,,,,,11,,,,76,0
26582,note_on,0,0,9,,,,,,,,,12,,,,55,91
26582,note_on,4,0,9,,,,,,,,,12,,,,60,0
26583,note_on,12,0,3,,,,,,,,,2,,,,72,0
26583,note_on,0,0,3,,,,,,,,,2,,,,60,0
26583,note_on,0,0,3,,,,,,,,,2,,,,64,96
26583,note_on,0,0,3,,,,,,,,,2,,,,67,96
26584,note_on,0,0,10,,,,,,,,,6,,,,55,71
26584,note_on,4,0,10,,,,,,,,,6,,,,60,0
26585,note_on,11,0,4,,,,,,,,,3,,,,60,0
26585,note_on,0,0,4,,,,,,,,,3,,,,55,95
26585,note_on,120,0,11,,,,,,,,,13,,,,48,0
26586,control_change,6,0,7,,,,,,,,,10,11,69,,,
26588,note_on,120,0,12,,,,,,,,,14,,,,36,0
26595,note_on,9,0,7,,,,,,,,,10,,,,60,0
26599,control_change,14,0,4,,,,,,,,,3,11,83,,,
26607,control_change,24,0,3,,,,,,,,,2,11,72,,,
26610,note_on,15,0,7,,,,,,,,,10,,,,64,88
26616,control_change,34,0,9,,,,,,,,,12,11,72,,,
26618,control_change,34,0,10,,,,,,,,,6,11,72,,,
26619,control_change,9,0,7,,,,,,,,,10,11,70,,,
26623,control_change,24,0,4,,,,,,,,,3,11,84,,,
26625,note_on,6,0,7,,,,,,,,,10,,,,64,0
26637,note_on,21,0,9,,,,,,,,,12,,,,55,0
26639,note_on,21,0,10,,,,,,,,,6,,,,55,0
26640,note_on,15,0,7,,,,,,,,,10,,,,60,88
26640,set_tempo,120,1,0,,,,,,1034483,,,,,,,,
26642,control_change,60,0,8,,,,,,,,,11,11,62,,,
26642,note_on,5,0,9,,,,,,,,,12,,,,57,91
26642,note_on,0,0,8,,,,,,,,,11,,,,79,108
26643,note_on,0,0,3,,,,,,,,,2,,,,69,96
26643,note_on,0,0,3,,,,,,,,,2,,,,64,0
26643,note_on,0,0,3,,,,,,,,,2,,,,65,96
26643,control_change,0,0,3,,,,,,,,,2,11,73,,,
26643,note_on,36,0,3,,,,,,,,,2,,,,67,0
26644,note_on,5,0,10,,,,,,,,,6,,,,57,69
26645,note_on,0,0,4,,,,,,,,,3,,,,57,95
26645,note_on,22,0,4,,,,,,,,,3,,,,55,0
26645,note_on,60,0,11,,,,,,,,,13,,,,48,61
26648,control_change,3,0,4,,,,,,,,,3,11,85,,,
26648,note_on,6,0,8,,,,,,,,,11,,,,77,108
26648,note_on,60,0,12,,,,,,,,,14,,,,36,55
26649,note_on,1,0,8,,,,,,,,,11,,,,79,0
26652,control_change,12,0,7,,,,,,,,,10,11,71,,,
26654,control_change,12,0,9,,,,,,,,,12,11,73,,,
26655,note_on,0,0,8,,,,,,,,,11,,,,79,108
26655,note_on,6,0,8,,,,,,,,,11,,,,77,0
26655,note_on,3,0,7,,,,,,,,,10,,,,60,0
26656,control_change,12,0,10,,,,,,,,,6,11,73,,,
26662,note_on,0,0,8,,,,,,,,,11,,,,77,108
26662,note_on,7,0,8,,,,,,,,,11,,,,79,0
26663,control_change,1,0,8,,,,,,,,,11,11,64,,,
26668,note_on,5,0,8,,,,,,,,,11,,,,79,109
26669,note_on,1,0,8,,,,,,,,,11,,,,77,0
26670,note_on,15,0,7,,,,,,,,,10,,,,65,88
26672,control_change,24,0,4,,,,,,,,,3,11,86,,,
26675,note_on,6,0,8,,,,,,,,,11,,,,79,0
26675,note_on,0,0,8,,,,,,,,,11,,,,77,109
26679,control_change,36,0,3,,,,,,,,,2,11,74,,,
26682,note_on,7,0,8,,,,,,,,,11,,,,77,0
26682,note_on,0,0,8,,,,,,,,,11,,,,79,109
26684,control_change,2,0,8,,,,,,,,,11,11,66,,,
26685,note_on,15,0,7,,,,,,,,,10,,,,65,0
26685,control_change,0,0,7,,,,,,,,,10,11,72,,,
26688,note_on,4,0,8,,,,,,,,,11,,,,77,109
26689,note_on,1,0,8,,,,,,,,,11,,,,79,0
26691,control_change,37,0,9,,,,,,,,,12,11,74,,,
26693,control_change,37,0,10,,,,,,,,,6,11,74,,,
26695,note_on,6,0,8,,,,,,,,,11,,,,77,0
26695,note_on,0,0,8,,,,,,,,,11,,,,79,109
26696,control_change,24,0,4,,,,,,,,,3,11,86,,,
26700,note_on,15,0,7,,,,,,,,,10,,,,69,88
26700,set_tempo,60,1,0,,,,,,937500,,,,,,,,
26702,note_on,0,0,8,,,,,,,,,11,,,,77,109
26702,note_on,7,0,8,,,,,,,,,11,,,,79,0
26705,control_change,3,0,8,,,,,,,,,11,11,68,,,
26708,note_on,3,0,8,,,,,,,,,11,,,,79,109
26709,note_on,1,0,8,,,,,,,,,11,,,,77,0
26715,control_change,36,0,3,,,,,,,,,2,11,74,,,
26715,note_on,6,0,8,,,,,,,,,11,,,,79,0
26715,note_on,15,0,7,,,,,,,,,10,,,,69,0
26715,note_on,0,0,8,,,,,,,,,11,,,,77,109
26718,control_change,3,0,7,,,,,,,,,10,11,73,,,
26721,control_change,25,0,4,,,,,,,,,3,11,87,,,
26722,note_on,0,0,8,,,,,,,,,11,,,,79,109
26722,note_on,7,0,8,,,,,,,,,11,,,,77,0
26726,control_change,4,0,8,,,,,,,,,11,11,70,,,
26729,control_change,38,0,9,,,,,,,,,12,11,75,,,
26729,note_on,3,0,8,,,,,,,,,11,,,,79,0
26730,note_on,12,0,7,,,,,,,,,10,,,,65,88
26731,control_change,38,0,10,,,,,,,,,6,11,75,,,
26732,note_on,3,0,8,,,,,,,,,11,,,,76,96
26745,control_change,24,0,4,,,,,,,,,3,11,88,,,
26745,note_on,15,0,7,,,,,,,,,10,,,,65,0
26747,note_on,15,0,8,,,,,,,,,11,,,,76,0
26747,control_change,0,0,8,,,,,,,,,11,11,72,,,
26747,note_on,0,0,8,,,,,,,,,11,,,,77,96
26751,control_change,36,0,3,,,,,,,,,2,11,75,,,
26751,control_change,6,0,7,,,,,,,,,10,11,74,,,
26760,note_on,9,0,7,,,,,,,,,10,,,,60,88
26762,note_on,15,0,8,,,,,,,,,11,,,,77,0
26762,note_on,33,0,9,,,,,,,,,12,,,,57,0
26762,note_on,0,0,9,,,,,,,,,12,,,,53,91
26763,note_on,0,0,3,,,,,,,,,2,,,,69,96
26763,note_on,0,0,3,,,,,,,,,2,,,,65,0
26763,note_on,0,0,3,,,,,,,,,2,,,,65,96
26763,note_on,12,0,3,,,,,,,,,2,,,,69,0
26764,note_on,33,0,10,,,,,,,,,6,,,,57,0
26764,note_on,0,0,10,,,,,,,,,6,,,,53,68
26765,note_on,20,0,4,,,,,,,,,3,,,,57,0
26765,note_on,0,0,4,,,,,,,,,3,,,,53,95
26765,note_on,120,0,11,,,,,,,,,13,,,,48,0
26767,control_change,5,0,9,,,,,,,,,12,11,76,,,
26768,note_on,120,0,12,,,,,,,,,14,,,,36,0
26769,control_change,5,0,10,,,,,,,,,6,11,76,,,
26770,control_change,5,0,4,,,,,,,,,3,11,89,,,
26775,note_on,15,0,7,,,,,,,,,10,,,,60,0
26784,control_change,9,0,7,,,,,,,,,10,11,75,,,
26787,control_change,24,0,3,,,,,,,,,2,11,75,,,
26790,note_on,6,0,7,,,,,,,,,10,,,,65,88
26794,control_change,24,0,4,,,,,,,,,3,11,89,,,
26804,control_change,37,0,9,,,,,,,,,12,11,77,,,
26805,note_on,15,0,7,,,,,,,,,10,,,,65,0
26806,control_change,37,0,10,,,,,,,,,6,11,77,,,
26817,control_change,12,0,7,,,,,,,,,10,11,76,,,
26818,control_change,24,0,4,,,,,,,,,3,11,90,,,
26820,set_tempo,120,1,0,,,,,,1034483,,,,,,,,
26820,note_on,3,0,7,,,,,,,,,10,,,,60,88
26822,note_on,2940,0,2,,,,,,,,,1,,,,84,95
26822,control_change,60,0,8,,,,,,,,,11,11,67,,,
26822,note_on,0,0,8,,,,,,,,,11,,,,81,110
26822,control_change,0,0,2,,,,,,,,,1,11,76,,,
26822,note_on,18,0,9,,,,,,,,,12,,,,53,0
26822,note_on,0,0,9,,,,,,,,,12,,,,48,91
26823,note_on,0,0,3,,,,,,,,,2,,,,60,96
26823,note_on,0,0,3,,,,,,,,,2,,,,72,96
26823,note_on,0,0,3,,,,,,,,,2,,,,65,0
26823,note_on,36,0,3,,,,,,,,,2,,,,69,0
26823,control_change,0,0,3,,,,,,,,,2,11,76,,,
26824,note_on,18,0,10,,,,,,,,,6,,,,53,0
26824,note_on,0,0,10,,,,,,,,,6,,,,48,67
26825,note_on,60,0,11,,,,,,,,,13,,,,48,66
26825,note_on,0,0,4,,,,,,,,,3,,,,48,95
26825,note_on,7,0,4,,,,,,,,,3,,,,53,0
26828,note_on,60,0,12,,,,,,,,,14,,,,36,61
26828,note_on,6,0,8,,,,,,,,,11,,,,79,110
26829,note_on,1,0,8,,,,,,,,,11,,,,81,0
26835,note_on,15,0,7,,,,,,,,,10,,,,60,0
26835,note_on,0,0,8,,,,,,,,,11,,,,81,111
26835,note_on,6,0,8,,,,,,,,,11,,,,79,0
26842,control_change,20,0,9,,,,,,,,,12,11,78,,,
26842,note_on,0,0,8,,,,,,,,,11,,,,79,111
26842,note_on,7,0,8,,,,,,,,,11,,,,81,0
26843,control_change,1,0,8,,,,,,,,,11,11,69,,,
26843,control_change,18,0,4,,,,,,,,,3,11,91,,,
26844,control_change,20,0,10,,,,,,,,,6,11,78,,,
26848,note_on,5,0,8,,,,,,,,,11,,,,81,111
26849,note_on,1,0,8,,,,,,,,,11,,,,79,0
26850,control_change,15,0,7,,,,,,,,,10,11,77,,,
26850,note_on,0,0,7,,,,,,,,,10,,,,67,88
26855,note_on,6,0,8,,,,,,,,,11,,,,81,0
26855,note_on,0,0,8,,,,,,,,,11,,,,79,111
26858,control_change,36,0,2,,,,,,,,,1,11,76,,,
26859,control_change,36,0,3,,,,,,,,,2,11,76,,,
26862,note_on,7,0,8,,,,,,,,,11,,,,79,0
26862,note_on,0,0,8,,,,,,,,,11,,,,81,111
26864,control_change,2,0,8,,,,,,,,,11,11,71,,,
26865,note_on,15,0,7,,,,,,,,,10,,,,67,0
26867,control_change,24,0,4,,,,,,,,,3,11,92,,,
26868,note_on,4,0,8,,,,,,,,,11,,,,79,111
26869,note_on,1,0,8,,,,,,,,,11,,,,81,0
26875,note_on,6,0,8,,,,,,,,,11,,,,79,0
26875,note_on,0,0,8,,,,,,,,,11,,,,81,111
26880,control_change,38,0,9,,,,,,,,,12,11,79,,,
26880,set_tempo,60,1,0,,,,,,937500,,,,,,,,
26880,note_on,15,0,7,,,,,,,,,10,,,,70,88
26882,note_on,7,0,8,,,,,,,,,11,,,,81,0
26882,control_change,38,0,10,,,,,,,,,6,11,79,,,
26882,note_on,0,0,8,,,,,,,,,11,,,,79,111
26883,control_change,3,0,7,,,,,,,,,10,11,78,,,
26885,control_change,3,0,8,,,,,,,,,11,11,73,,,
26888,note_on,3,0,8,,,,,,,,,11,,,,81,112
26889,note_on,1,0,8,,,,,,,,,11,,,,79,0
26892,control_change,25,0,4,,,,,,,,,3,11,93,,,
26894,control_change,36,0,2,,,,,,,,,1,11,76,,,
26895,note_on,12,0,7,,,,,,,,,10,,,,70,0
26895,note_on,6,0,8,,,,,,,,,11,,,,81,0
26895,control_change,36,0,3,,,,,,,,,2,11,76,,,
26895,note_on,0,0,8,,,,,,,,,11,,,,79,112
26902,note_on,7,0,8,,,,,,,,,11,,,,79,0
26902,note_on,0,0,8,,,,,,,,,11,,,,81,112
26906,control_change,4,0,8,,,,,,,,,11,11,75,,,
26909,note_on,3,0,8,,,,,,,,,11,,,,81,0
26910,note_on,15,0,7,,,,,,,,,10,,,,67,88
26912,note_on,3,0,8,,,,,,,,,11,,,,77,98
26916,control_change,24,0,4,,,,,,,,,3,11,94,,,
26916,control_change,6,0,7,,,,,,,,,10,11,79,,,
26918,control_change,38,0,9,,,,,,,,,12,11,80,,,
26920,control_change,38,0,10,,,,,,,,,6,11,80,,,
26925,note_on,9,0,7,,,,,,,,,10,,,,67,0
26927,note_on,15,0,8,,,,,,,,,11,,,,77,0
26927,control_change,0,0,8,,,,,,,,,11,11,77,,,
26927,note_on,0,0,8,,,,,,,,,11,,,,79,98
26930,control_change,36,0,2,,,,,,,,,1,11,77,,,
26931,control_change,36,0,3,,,,,,,,,2,11,77,,,
26940,note_on,15,0,7,,,,,,,,,10,,,,60,88
26940,control_change,24,0,4,,,,,,,,,3,11,95,,,
26942,note_on,24,0,9,,,,,,,,,12,,,,48,0
26942,note_on,0,0,9,,,,,,,,,12,,,,52,91
26942,note_on,0,0,2,,,,,,,,,1,,,,79,95
26942,note_on,12,0,2,,,,,,,,,1,,,,84,0
26942,note_on,15,0,8,,,,,,,,,11,,,,79,0
26943,note_on,0,0,3,,,,,,,,,2,,,,72,0
26943,note_on,0,0,3,,,,,,,,,2,,,,64,96
26943,note_on,0,0,3,,,,,,,,,2,,,,67,96
26943,note_on,12,0,3,,,,,,,,,2,,,,60,0
26944,note_on,24,0,10,,,,,,,,,6,,,,48,0
26944,note_on,0,0,10,,,,,,,,,6,,,,52,64
26945,note_on,0,0,4,,,,,,,,,3,,,,52,95
26945,note_on,120,0,11,,,,,,,,,13,,,,48,0
26945,note_on,5,0,4,,,,,,,,,3,,,,48,0
26948,note_on,120,0,12,,,,,,,,,14,,,,36,0
26949,control_change,9,0,7,,,,,,,,,10,11,80,,,
26955,note_on,6,0,7,,,,,,,,,10,,,,60,0
26955,control_change,13,0,9,,,,,,,,,12,11,81,,,
26957,control_change,13,0,10,,,,,,,,,6,11,81,,,
26965,control_change,20,0,4,,,,,,,,,3,11,96,,,
26966,control_change,24,0,2,,,,,,,,,1,11,77,,,
26967,control_change,24,0,3,,,,,,,,,2,11,77,,,
26970,note_on,15,0,7,,,,,,,,,10,,,,67,88
26982,control_change,12,0,7,,,,,,,,,10,11,81,,,
26985,note_on,3,0,7,,,,,,,,,10,,,,67,0
26989,control_change,24,0,4,,,,,,,,,3,11,96,,,
26993,control_change,38,0,9,,,,,,,,,12,11,82,,,
26995,control_change,38,0,10,,,,,,,,,6,11,82,,,
27000,control_change,0,0,1,,,,,,,,,0,11,78,,,
27000,note_on,15,0,7,,,,,,,,,10,,,,60,88
27000,set_tempo,120,1,0,,,,,,1034483,,,,,,,,
27000,note_on,3120,0,1,,,,,,,,,0,,,,84,96
27002,note_on,0,0,9,,,,,,,,,12,,,,53,91
27002,note_on,36,0,2,,,,,,,,,1,,,,79,0
27002,control_change,60,0,8,,,,,,,,,11,11,72,,,
27002,note_on,0,0,8,,,,,,,,,11,,,,79,114
27002,control_change,0,0,2,,,,,,,,,1,11,78,,,
27002,note_on,9,0,9,,,,,,,,,12,,,,52,0
27002,note_on,0,0,2,,,,,,,,,1,,,,81,95
27003,note_on,0,0,3,,,,,,,,,2,,,,69,96
27003,note_on,36,0,3,,,,,,,,,2,,,,64,0
27003,control_change,0,0,3,,,,,,,,,2,11,78,,,
27003,note_on,0,0,3,,,,,,,,,2,,,,67,0
27003,note_on,0,0,3,,,,,,,,,2,,,,65,96
27004,note_on,0,0,10,,,,,,,,,6,,,,53,63
27004,note_on,9,0,10,,,,,,,,,6,,,,52,0
27005,note_on,16,0,4,,,,,,,,,3,,,,52,0
27005,note_on,0,0,4,,,,,,,,,3,,,,53,95
27005,note_on,60,0,11,,,,,,,,,13,,,,48,66
27008,note_on,6,0,8,,,,,,,,,11,,,,77,114
27008,note_on,60,0,12,,,,,,,,,14,,,,36,61
27009,note_on,1,0,8,,,,,,,,,11,,,,79,0
27014,control_change,9,0,4,,,,,,,,,3,11,97,,,
27015,note_on,6,0,8,,,,,,,,,11,,,,77,0
27015,note_on,15,0,7,,,,,,,,,10,,,,60,0
27015,control_change,0,0,7,,,,,,,,,10,11,82,,,
27015,note_on,0,0,8,,,,,,,,,11,,,,79,114
27022,note_on,7,0,8,,,,,,,,,11,,,,79,0
27022,note_on,0,0,8,,,,,,,,,11,,,,77,114
27023,control_change,1,0,8,,,,,,,,,11,11,74,,,
27028,note_on,5,0,8,,,,,,,,,11,,,,79,114
27029,note_on,1,0,8,,,,,,,,,11,,,,77,0
27030,note_on,15,0,7,,,,,,,,,10,,,,65,89
27031,control_change,29,0,9,,,,,,,,,12,11,83,,,
27033,control_change,29,0,10,,,,,,,,,6,11,83,,,
27035,note_on,0,0,8,,,,,,,,,11,,,,77,114
27035,note_on,6,0,8,,,,,,,,,11,,,,79,0
27036,control_change,36,0,1,,,,,,,,,0,11,78,,,
27038,control_change,24,0,4,,,,,,,,,3,11,98,,,
27038,control_change,36,0,2,,,,,,,,,1,11,78,,,
27039,control_change,36,0,3,,,,,,,,,2,11,78,,,
27042,note_on,0,0,8,,,,,,,,,11,,,,79,114
27042,note_on,7,0,8,,,,,,,,,11,,,,77,0
27044,control_change,2,0,8,,,,,,,,,11,11,76,,,
27045,note_on,15,0,7,,,,,,,,,10,,,,65,0
27048,note_on,4,0,8,,,,,,,,,11,,,,77,114
27048,control_change,3,0,7,,,,,,,,,10,11,83,,,
27049,note_on,1,0,8,,,,,,,,,11,,,,79,0
27055,note_on,0,0,8,,,,,,,,,11,,,,79,115
27055,note_on,6,0,8,,,,,,,,,11,,,,77,0
27060,set_tempo,60,1,0,,,,,,937500,,,,,,,,
27060,note_on,12,0,7,,,,,,,,,10,,,,69,91
27062,note_on,0,0,8,,,,,,,,,11,,,,77,115
27062,note_on,7,0,8,,,,,,,,,11,,,,79,0
27062,control_change,24,0,4,,,,,,,,,3,11,98,,,
27065,control_change,3,0,8,,,,,,,,,11,11,78,,,
27068,note_on,3,0,8,,,,,,,,,11,,,,79,115
27068,control_change,37,0,9,,,,,,,,,12,11,84,,,
27069,note_on,1,0,8,,,,,,,,,11,,,,77,0
27070,control_change,37,0,10,,,,,,,,,6,11,84,,,
27072,control_change,36,0,1,,,,,,,,,0,11,79,,,
27074,control_change,36,0,2,,,,,,,,,1,11,79,,,
27075,note_on,15,0,7,,,,,,,,,10,,,,69,0
27075,control_change,36,0,3,,,,,,,,,2,11,79,,,
27075,note_on,0,0,8,,,,,,,,,11,,,,77,115
27075,note_on,6,0,8,,,,,,,,,11,,,,79,0
27081,control_change,6,0,7,,,,,,,,,10,11,84,,,
27082,note_on,7,0,8,,,,,,,,,11,,,,77,0
27082,note_on,0,0,8,,,,,,,,,11,,,,79,115
27086,control_change,4,0,8,,,,,,,,,11,11,80,,,
27087,control_change,25,0,4,,,,,,,,,3,11,99,,,
27089,note_on,3,0,8,,,,,,,,,11,,,,79,0
27090,note_on,9,0,7,,,,,,,,,10,,,,72,93
27092,note_on,3,0,8,,,,,,,,,11,,,,76,102
27105,note_on,15,0,7,,,,,,,,,10,,,,72,0
27106,control_change,38,0,9,,,,,,,,,12,11,85,,,
27107,note_on,0,0,8,,,,,,,,,11,,,,77,103
27107,control_change,0,0,8,,,,,,,,,11,11,82,,,
27107,note_on,15,0,8,,,,,,,,,11,,,,76,0
27108,control_change,36,0,1,,,,,,,,,0,11,79,,,
27108,control_change,38,0,10,,,,,,,,,6,11,85,,,
27110,control_change,36,0,2,,,,,,,,,1,11,79,,,
27111,control_change,24,0,4,,,,,,,,,3,11,100,,,
27111,control_change,36,0,3,,,,,,,,,2,11,79,,,
27114,control_change,9,0,7,,,,,,,,,10,11,85,,,
27120,note_on,0,0,1,,,,,,,,,0,,,,81,96
27120,note_on,12,0,1,,,,,,,,,0,,,,84,0
27120,note_on,6,0,7,,,,,,,,,10,,,,77,96
27122,note_on,0,0,9,,,,,,,,,12,,,,57,91
27122,note_on,0,0,2,,,,,,,,,1,,,,77,95
27122,note_on,12,0,2,,,,,,,,,1,,,,81,0
27122,note_on,15,0,8,,,,,,,,,11,,,,77,0
27122,note_on,16,0,9,,,,,,,,,12,,,,53,0
27123,note_on,0,0,3,,,,,,,,,2,,,,69,96
27123,note_on,0,0,3,,,,,,,,,2,,,,65,96
27123,note_on,0,0,3,,,,,,,,,2,,,,65,0
27123,note_on,12,0,3,,,,,,,,,2,,,,69,0
27124,note_on,16,0,10,,,,,,,,,6,,,,53,0
27124,note_on,0,0,10,,,,,,,,,6,,,,57,60
27125,note_on,0,0,4,,,,,,,,,3,,,,57,95
27125,note_on,14,0,4,,,,,,,,,3,,,,53,0
27125,note_on,120,0,11,,,,,,,,,13,,,,48,0
27128,note_on,120,0,12,,,,,,,,,14,,,,36,0
27135,note_on,15,0,7,,,,,,,,,10,,,,77,0
27136,control_change,11,0,4,,,,,,,,,3,11,101,,,
27144,control_change,22,0,9,,,,,,,,,12,11,86,,,
27144,control_change,24,0,1,,,,,,,,,0,11,80,,,
27146,control_change,22,0,10,,,,,,,,,6,11,86,,,
27146,control_change,24,0,2,,,,,,,,,1,11,80,,,
27147,control_change,24,0,3,,,,,,,,,2,11,80,,,
27147,control_change,12,0,7,,,,,,,,,10,11,86,,,
27150,note_on,3,0,7,,,,,,,,,10,,,,81,98
27160,control_change,24,0,4,,,,,,,,,3,11,102,,,
27165,note_on,15,0,7,,,,,,,,,10,,,,81,0
27175,note_on,31,0,1,,,,,,,,,0,,,,81,0
27177,note_on,31,0,2,,,,,,,,,1,,,,77,0
27177,note_on,33,0,9,,,,,,,,,12,,,,57,0
27178,note_on,31,0,3,,,,,,,,,2,,,,69,0
27178,note_on,0,0,3,,,,,,,,,2,,,,65,0
27179,note_on,33,0,10,,,,,,,,,6,,,,57,0
27180,note_on,5,0,1,,,,,,,,,0,,,,84,96
27180,set_tempo,120,1,0,,,,,,1034483,,,,,,,,
27180,control_change,0,0,1,,,,,,,,,0,11,80,,,
27180,note_on,0,0,1,,,,,,,,,0,,,,72,96
27180,note_on,20,0,4,,,,,,,,,3,,,,57,0
27180,control_change,15,0,7,,,,,,,,,10,11,87,,,
27180,note_on,0,0,7,,,,,,,,,10,,,,84,103
27182,note_on,0,0,2,,,,,,,,,1,,,,76,95
27182,note_on,0,0,2,,,,,,,,,1,,,,79,95
27182,note_on,0,0,8,,,,,,,,,11,,,,67,78
27182,control_change,60,0,8,,,,,,,,,11,11,87,,,
27182,control_change,5,0,2,,,,,,,,,1,11,80,,,
27182,control_change,5,0,9,,,,,,,,,12,91,42,,,
27182,control_change,0,0,9,,,,,,,,,12,11,87,,,
27182,note_on,0,0,9,,,,,,,,,12,,,,64,76
27183,note_on,0,0,3,,,,,,,,,2,,,,64,96
27183,control_change,0,0,3,,,,,,,,,2,11,80,,,
27183,note_on,5,0,3,,,,,,,,,2,,,,67,96
27183,control_change,4020,0,5,,,,,,,,,4,11,82,,,
27183,note_on,0,0,5,,,,,,,,,4,,,,60,82
27184,control_change,5,0,10,,,,,,,,,6,91,100,,,
27184,note_on,0,0,10,,,,,,,,,6,,,,48,62
27184,note_on,0,0,10,,,,,,,,,6,,,,52,62
27184,control_change,0,0,10,,,,,,,,,6,11,87,,,
27185,note_on,0,0,6,,,,,,,,,5,,,,60,82
27185,control_change,4020,0,6,,,,,,,,,5,11,82,,,
27185,note_on,0,0,4,,,,,,,,,3,,,,52,95
27185,control_change,5,0,4,,,,,,,,,3,11,103,,,
27185,note_on,60,0,11,,,,,,,,,13,,,,48,66
27185,note_on,0,0,4,,,,,,,,,3,,,,55,95
27188,note_on,60,0,12,,,,,,,,,14,,,,36,61
27212,note_on,0,0,8,,,,,,,,,11,,,,64,78
27212,note_on,30,0,9,,,,,,,,,12,,,,64,0
27212,note_on,0,0,9,,,,,,,,,12,,,,60,76
27212,note_on,30,0,8,,,,,,,,,11,,,,67,0
27214,note_on,0,0,10,,,,,,,,,6,,,,48,0
27214,note_on,0,0,10,,,,,,,,,6,,,,55,62
27214,note_on,0,0,10,,,,,,,,,6,,,,52,62
27214,note_on,30,0,10,,,,,,,,,6,,,,52,0
27240,set_tempo,60,1,0,,,,,,937500,,,,,,,,
27242,note_on,30,0,9,,,,,,,,,12,,,,60,0
27242,note_on,0,0,8,,,,,,,,,11,,,,67,78
27242,note_on,30,0,8,,,,,,,,,11,,,,64,0
27242,note_on,0,0,9,,,,,,,,,12,,,,64,76
27244,note_on,0,0,10,,,,,,,,,6,,,,55,0
27244,note_on,30,0,10,,,,,,,,,6,,,,52,0
27244,note_on,0,0,10,,,,,,,,,6,,,,48,62
27244,note_on,0,0,10,,,,,,,,,6,,,,52,62
27272,note_on,0,0,9,,,,,,,,,12,,,,60,76
27272,note_on,0,0,8,,,,,,,,,11,,,,64,78
27272,note_on,30,0,8,,,,,,,,,11,,,,67,0
27272,note_on,30,0,9,,,,,,,,,12,,,,64,0
27274,note_on,0,0,10,,,,,,,,,6,,,,52,62
27274,note_on,0,0,10,,,,,,,,,6,,,,48,0
27274,note_on,0,0,10,,,,,,,,,6,,,,55,62
27274,note_on,30,0,10,,,,,,,,,6,,,,52,0
27295,note_on,115,0,1,,,,,,,,,0,,,,72,0
27297,note_on,0,0,2,,,,,,,,,1,,,,79,0
27297,note_on,115,0,2,,,,,,,,,1,,,,76,0
27298,note_on,115,0,3,,,,,,,,,2,,,,64,0
27298,note_on,0,0,3,,,,,,,,,2,,,,67,0
27298,note_on,115,0,5,,,,,,,,,4,,,,60,0
27300,note_on,115,0,6,,,,,,,,,5,,,,60,0
27300,note_on,120,0,7,,,,,,,,,10,,,,84,0
27300,note_on,0,0,7,,,,,,,,,10,,,,79,103
27300,note_on,0,0,4,,,,,,,,,3,,,,52,0
27300,note_on,5,0,1,,,,,,,,,0,,,,84,0
27300,note_on,0,0,1,,,,,,,,,0,,,,72,96
27300,note_on,115,0,4,,,,,,,,,3,,,,55,0
27300,note_on,0,0,1,,,,,,,,,0,,,,79,96
27302,note_on,30,0,8,,,,,,,,,11,,,,64,0
27302,note_on,30,0,9,,,,,,,,,12,,,,60,0
27302,note_on,0,0,8,,,,,,,,,11,,,,67,78
27302,note_on,0,0,9,,,,,,,,,12,,,,64,76
27302,note_on,5,0,2,,,,,,,,,1,,,,76,95
27302,note_on,0,0,2,,,,,,,,,1,,,,79,95
27303,note_on,0,0,3,,,,,,,,,2,,,,64,96
27303,note_on,5,0,5,,,,,,,,,4,,,,60,82
27303,note_on,5,0,3,,,,,,,,,2,,,,67,96
27304,note_on,0,0,10,,,,,,,,,6,,,,52,62
27304,note_on,0,0,10,,,,,,,,,6,,,,48,62
27304,note_on,30,0,10,,,,,,,,,6,,,,55,0
27304,note_on,0,0,10,,,,,,,,,6,,,,52,0
27305,note_on,5,0,6,,,,,,,,,5,,,,60,82
27305,note_on,0,0,4,,,,,,,,,3,,,,55,95
27305,note_on,5,0,4,,,,,,,,,3,,,,52,95
27305,note_on,120,0,11,,,,,,,,,13,,,,48,0
27308,note_on,120,0,12,,,,,,,,,14,,,,36,0
27332,note_on,0,0,9,,,,,,,,,12,,,,60,76
27332,note_on,30,0,9,,,,,,,,,12,,,,64,0
27332,note_on,30,0,8,,,,,,,,,11,,,,67,0
27332,note_on,0,0,8,,,,,,,,,11,,,,64,78
27334,note_on,0,0,10,,,,,,,,,6,,,,52,62
27334,note_on,0,0,10,,,,,,,,,6,,,,52,0
27334,note_on,30,0,10,,,,,,,,,6,,,,48,0
27334,note_on,0,0,10,,,,,,,,,6,,,,55,62
27355,note_on,55,0,1,,,,,,,,,0,,,,79,0
27355,note_on,0,0,1,,,,,,,,,0,,,,72,0
27355,note_on,55,0,7,,,,,,,,,10,,,,79,0
27357,note_on,0,0,2,,,,,,,,,1,,,,76,0
27357,note_on,25,0,8,,,,,,,,,11,,,,64,0
27357,note_on,25,0,9,,,,,,,,,12,,,,60,0
27357,note_on,55,0,2,,,,,,,,,1,,,,79,0
27358,note_on,55,0,5,,,,,,,,,4,,,,60,0
27358,note_on,55,0,3,,,,,,,,,2,,,,64,0
27358,note_on,0,0,3,,,,,,,,,2,,,,67,0
27359,note_on,0,0,10,,,,,,,,,6,,,,52,0
27359,note_on,25,0,10,,,,,,,,,6,,,,55,0
27360,note_on,55,0,6,,,,,,,,,5,,,,60,0
27360,set_tempo,120,1,0,,,,,,1034483,,,,,,,,
27360,note_on,5,0,7,,,,,,,,,10,,,,81,103
27360,note_on,5,0,1,,,,,,,,,0,,,,81,96
27360,note_on,0,0,1,,,,,,,,,0,,,,72,96
27360,note_on,0,0,4,,,,,,,,,3,,,,52,0
27360,note_on,55,0,4,,,,,,,,,3,,,,55,0
27362,note_on,5,0,8,,,,,,,,,11,,,,69,78
27362,note_on,5,0,2,,,,,,,,,1,,,,81,95
27362,note_on,5,0,9,,,,,,,,,12,,,,65,76
27362,note_on,0,0,2,,,,,,,,,1,,,,77,95
27363,note_on,5,0,3,,,,,,,,,2,,,,69,96
27363,note_on,5,0,5,,,,,,,,,4,,,,60,82
27363,note_on,0,0,3,,,,,,,,,2,,,,65,96
27364,note_on,5,0,10,,,,,,,,,6,,,,53,62
27364,note_on,0,0,10,,,,,,,,,6,,,,48,62
27364,program_change,59,0,11,,,,,,,,48,13,,,,,
27365,control_change,1,0,11,,,,,,,,,13,11,87,,,
27365,note_on,0,0,4,,,,,,,,,3,,,,53,95
27365,note_on,5,0,6,,,,,,,,,5,,,,60,82
27365,note_on,5,0,4,,,,,,,,,3,,,,57,95
27365,note_on,0,0,11,,,,,,,,,13,,,,48,100
27367,program_change,59,0,12,,,,,,,,48,14,,,,,
27368,control_change,1,0,12,,,,,,,,,14,11,87,,,
27368,note_on,0,0,12,,,,,,,,,14,,,,36,96
27392,note_on,30,0,8,,,,,,,,,11,,,,69,0
27392,note_on,0,0,8,,,,,,,,,11,,,,65,78
27392,note_on,30,0,9,,,,,,,,,12,,,,65,0
27392,note_on,0,0,9,,,,,,,,,12,,,,60,76
27394,note_on,30,0,10,,,,,,,,,6,,,,48,0
27394,note_on,0,0,10,,,,,,,,,6,,,,53,0
27394,note_on,0,0,10,,,,,,,,,6,,,,57,62
27394,note_on,0,0,10,,,,,,,,,6,,,,53,62
27420,note_on,55,0,11,,,,,,,,,13,,,,48,0
27420,set_tempo,60,1,0,,,,,,937500,,,,,,,,
27422,note_on,30,0,9,,,,,,,,,12,,,,60,0
27422,note_on,0,0,8,,,,,,,,,11,,,,69,78
27422,note_on,0,0,9,,,,,,,,,12,,,,65,76
27422,note_on,30,0,8,,,,,,,,,11,,,,65,0
27423,note_on,55,0,12,,,,,,,,,14,,,,36,0
27424,note_on,30,0,10,,,,,,,,,6,,,,53,0
27424,note_on,0,0,10,,,,,,,,,6,,,,57,0
27424,note_on,0,0,10,,,,,,,,,6,,,,48,62
27424,note_on,0,0,10,,,,,,,,,6,,,,53,62
27425,note_on,5,0,11,,,,,,,,,13,,,,48,100
27428,note_on,5,0,12,,,,,,,,,14,,,,36,96
27452,note_on,30,0,8,,,,,,,,,11,,,,69,0
27452,note_on,0,0,8,,,,,,,,,11,,,,65,78
27452,note_on,30,0,9,,,,,,,,,12,,,,65,0
27452,note_on,0,0,9,,,,,,,,,12,,,,60,76
27454,note_on,0,0,10,,,,,,,,,6,,,,57,62
27454,note_on,30,0,10,,,,,,,,,6,,,,53,0
27454,note_on,0,0,10,,,,,,,,,6,,,,48,0
27454,note_on,0,0,10,,,,,,,,,6,,,,53,62
27480,note_on,120,0,7,,,,,,,,,10,,,,81,0
27480,note_on,120,0,1,,,,,,,,,0,,,,81,0
27480,note_on,0,0,1,,,,,,,,,0,,,,77,96
27480,note_on,55,0,11,,,,,,,,,13,,,,48,0
27480,note_on,0,0,7,,,,,,,,,10,,,,77,103
27482,note_on,0,0,9,,,,,,,,,12,,,,65,76
27482,note_on,30,0,8,,,,,,,,,11,,,,65,0
27482,note_on,30,0,9,,,,,,,,,12,,,,60,0
27482,note_on,0,0,8,,,,,,,,,11,,,,69,78
27483,note_on,55,0,12,,,,,,,,,14,,,,36,0
27484,note_on,0,0,10,,,,,,,,,6,,,,57,0
27484,note_on,30,0,10,,,,,,,,,6,,,,53,0
27484,note_on,0,0,10,,,,,,,,,6,,,,48,62
27484,note_on,0,0,10,,,,,,,,,6,,,,53,62
27485,note_on,5,0,11,,,,,,,,,13,,,,48,100
27488,note_on,5,0,12,,,,,,,,,14,,,,36,96
27512,note_on,0,0,9,,,,,,,,,12,,,,60,76
27512,note_on,30,0,9,,,,,,,,,12,,,,65,0
27512,note_on,0,0,8,,,,,,,,,11,,,,65,78
27512,note_on,30,0,8,,,,,,,,,11,,,,69,0
27514,note_on,0,0,10,,,,,,,,,6,,,,48,0
27514,note_on,30,0,10,,,,,,,,,6,,,,53,0
27514,note_on,0,0,10,,,,,,,,,6,,,,57,62
27514,note_on,0,0,10,,,,,,,,,6,,,,53,62
27540,note_on,0,0,1,,,,,,,,,0,,,,72,96
27540,note_on,60,0,1,,,,,,,,,0,,,,77,0
27540,set_tempo,120,1,0,,,,,,1034483,,,,,,,,
27540,note_on,0,0,7,,,,,,,,,10,,,,72,103
27540,note_on,60,0,7,,,,,,,,,10,,,,77,0
27540,note_on,55,0,11,,,,,,,,,13,,,,48,0
27542,note_on,0,0,8,,,,,,,,,11,,,,69,78
27542,note_on,30,0,9,,,,,,,,,12,,,,60,0
27542,note_on,0,0,9,,,,,,,,,12,,,,65,76
27542,note_on,30,0,8,,,,,,,,,11,,,,65,0
27543,note_on,55,0,12,,,,,,,,,14,,,,36,0
27544,note_on,30,0,10,,,,,,,,,6,,,,53,0
27544,note_on,0,0,10,,,,,,,,,6,,,,48,62
27544,note_on,0,0,10,,,,,,,,,6,,,,53,62
27544,note_on,0,0,10,,,,,,,,,6,,,,57,0
27545,note_on,5,0,11,,,,,,,,,13,,,,48,100
27548,note_on,5,0,12,,,,,,,,,14,,,,36,96
27572,note_on,30,0,8,,,,,,,,,11,,,,69,0
27572,note_on,0,0,8,,,,,,,,,11,,,,65,78
27572,note_on,0,0,9,,,,,,,,,12,,,,60,76
27572,note_on,30,0,9,,,,,,,,,12,,,,65,0
27574,note_on,0,0,10,,,,,,,,,6,,,,57,62
27574,note_on,30,0,10,,,,,,,,,6,,,,53,0
27574,note_on,0,0,10,,,,,,,,,6,,,,53,62
27574,note_on,0,0,10,,,,,,,,,6,,,,48,0
27600,set_tempo,60,1,0,,,,,,937500,,,,,,,,
27600,note_on,0,0,7,,,,,,,,,10,,,,77,103
27600,note_on,60,0,7,,,,,,,,,10,,,,72,0
27600,note_on,55,0,11,,,,,,,,,13,,,,48,0
27600,note_on,60,0,1,,,,,,,,,0,,,,77,96
27602,note_on,0,0,8,,,,,,,,,11,,,,69,78
27602,note_on,30,0,8,,,,,,,,,11,,,,65,0
27602,note_on,30,0,9,,,,,,,,,12,,,,60,0
27602,note_on,0,0,9,,,,,,,,,12,,,,65,76
27603,note_on,55,0,12,,,,,,,,,14,,,,36,0
27604,note_on,30,0,10,,,,,,,,,6,,,,53,0
27604,note_on,0,0,10,,,,,,,,,6,,,,48,62
27604,note_on,0,0,10,,,,,,,,,6,,,,53,62
27604,note_on,0,0,10,,,,,,,,,6,,,,57,0
27605,note_on,5,0,11,,,,,,,,,13,,,,48,100
27608,note_on,5,0,12,,,,,,,,,14,,,,36,96
27632,note_on,30,0,8,,,,,,,,,11,,,,69,0
27632,note_on,0,0,9,,,,,,,,,12,,,,60,76
27632,note_on,0,0,8,,,,,,,,,11,,,,65,78
27632,note_on,30,0,9,,,,,,,,,12,,,,65,0
27634,note_on,0,0,10,,,,,,,,,6,,,,57,62
27634,note_on,0,0,10,,,,,,,,,6,,,,53,62
27634,note_on,30,0,10,,,,,,,,,6,,,,53,0
27634,note_on,0,0,10,,,,,,,,,6,,,,48,0
27660,note_on,55,0,11,,,,,,,,,13,,,,48,0
27660,note_on,60,0,7,,,,,,,,,10,,,,77,0
27660,note_on,0,0,7,,,,,,,,,10,,,,81,103
27660,note_on,60,0,1,,,,,,,,,0,,,,77,0
27660,note_on,0,0,1,,,,,,,,,0,,,,81,96
27662,note_on,0,0,8,,,,,,,,,11,,,,69,78
27662,note_on,0,0,9,,,,,,,,,12,,,,65,76
27662,note_on,30,0,8,,,,,,,,,11,,,,65,0
27662,note_on,30,0,9,,,,,,,,,12,,,,60,0
27663,note_on,55,0,12,,,,,,,,,14,,,,36,0
27664,note_on,0,0,10,,,,,,,,,6,,,,53,0
27664,note_on,0,0,10,,,,,,,,,6,,,,48,62
27664,note_on,0,0,10,,,,,,,,,6,,,,53,62
27664,note_on,30,0,10,,,,,,,,,6,,,,57,0
27665,note_on,5,0,11,,,,,,,,,13,,,,48,100
27668,note_on,5,0,12,,,,,,,,,14,,,,36,96
27692,note_on,0,0,8,,,,,,,,,11,,,,65,78
27692,note_on,30,0,8,,,,,,,,,11,,,,69,0
27692,note_on,0,0,9,,,,,,,,,12,,,,60,76
27692,note_on,30,0,9,,,,,,,,,12,,,,65,0
27694,note_on,30,0,10,,,,,,,,,6,,,,53,0
27694,note_on,0,0,10,,,,,,,,,6,,,,48,0
27694,note_on,0,0,10,,,,,,,,,6,,,,57,62
27694,note_on,0,0,10,,,,,,,,,6,,,,53,62
27715,note_on,55,0,7,,,,,,,,,10,,,,81,0
27715,note_on,55,0,1,,,,,,,,,0,,,,81,0
27717,note_on,25,0,8,,,,,,,,,11,,,,65,0
27717,note_on,25,0,9,,,,,,,,,12,,,,60,0
27719,note_on,25,0,10,,,,,,,,,6,,,,53,0
27719,note_on,0,0,10,,,,,,,,,6,,,,57,0
27720,set_tempo,120,1,0,,,,,,1034483,,,,,,,,
27720,note_on,5,0,7,,,,,,,,,10,,,,84,103
27720,note_on,5,0,1,,,,,,,,,0,,,,84,96
27720,note_on,55,0,11,,,,,,,,,13,,,,48,0
27722,note_on,5,0,9,,,,,,,,,12,,,,65,76
27722,note_on,5,0,8,,,,,,,,,11,,,,69,78
27723,note_on,55,0,12,,,,,,,,,14,,,,36,0
27724,note_on,5,0,10,,,,,,,,,6,,,,48,62
27724,note_on,0,0,10,,,,,,,,,6,,,,53,62
27725,note_on,5,0,11,,,,,,,,,13,,,,48,100
27728,note_on,5,0,12,,,,,,,,,14,,,,36,96
27752,note_on,0,0,8,,,,,,,,,11,,,,65,78
27752,note_on,30,0,8,,,,,,,,,11,,,,69,0
27752,note_on,0,0,9,,,,,,,,,12,,,,60,76
27752,note_on,30,0,9,,,,,,,,,12,,,,65,0
27754,note_on,0,0,10,,,,,,,,,6,,,,57,62
27754,note_on,0,0,10,,,,,,,,,6,,,,53,62
27754,note_on,30,0,10,,,,,,,,,6,,,,53,0
27754,note_on,0,0,10,,,,,,,,,6,,,,48,0
27780,set_tempo,60,1,0,,,,,,937500,,,,,,,,
27780,note_on,55,0,11,,,,,,,,,13,,,,48,0
27782,note_on,30,0,9,,,,,,,,,12,,,,60,0
27782,note_on,0,0,9,,,,,,,,,12,,,,65,76
27782,note_on,30,0,8,,,,,,,,,11,,,,65,0
27782,note_on,0,0,8,,,,,,,,,11,,,,69,78
27783,note_on,55,0,12,,,,,,,,,14,,,,36,0
27784,note_on,0,0,10,,,,,,,,,6,,,,48,62
27784,note_on,0,0,10,,,,,,,,,6,,,,53,62
27784,note_on,0,0,10,,,,,,,,,6,,,,57,0
27784,note_on,30,0,10,,,,,,,,,6,,,,53,0
27785,note_on,5,0,11,,,,,,,,,13,,,,48,100
27788,note_on,5,0,12,,,,,,,,,14,,,,36,96
27812,note_on,30,0,9,,,,,,,,,12,,,,65,0
27812,note_on,30,0,8,,,,,,,,,11,,,,69,0
27812,note_on,0,0,9,,,,,,,,,12,,,,60,76
27812,note_on,0,0,8,,,,,,,,,11,,,,65,78
27814,note_on,0,0,10,,,,,,,,,6,,,,53,0
27814,note_on,30,0,10,,,,,,,,,6,,,,48,0
27814,note_on,0,0,10,,,,,,,,,6,,,,57,62
27814,note_on,0,0,10,,,,,,,,,6,,,,53,62
27835,note_on,115,0,1,,,,,,,,,0,,,,84,0
27840,note_on,0,0,7,,,,,,,,,10,,,,81,103
27840,note_on,55,0,11,,,,,,,,,13,,,,48,0
27840,note_on,120,0,7,,,,,,,,,10,,,,84,0
27840,note_on,5,0,1,,,,,,,,,0,,,,81,96
27842,note_on,0,0,8,,,,,,,,,11,,,,69,78
27842,note_on,30,0,8,,,,,,,,,11,,,,65,0
27842,note_on,0,0,9,,,,,,,,,12,,,,65,76
27842,note_on,30,0,9,,,,,,,,,12,,,,60,0
27843,note_on,55,0,12,,,,,,,,,14,,,,36,0
27844,note_on,0,0,10,,,,,,,,,6,,,,48,62
27844,note_on,30,0,10,,,,,,,,,6,,,,57,0
27844,note_on,0,0,10,,,,,,,,,6,,,,53,62
27844,note_on,0,0,10,,,,,,,,,6,,,,53,0
27845,note_on,5,0,11,,,,,,,,,13,,,,48,100
27848,note_on,5,0,12,,,,,,,,,14,,,,36,96
27872,note_on,30,0,8,,,,,,,,,11,,,,69,0
27872,note_on,30,0,9,,,,,,,,,12,,,,65,0
27872,note_on,0,0,8,,,,,,,,,11,,,,65,78
27872,note_on,0,0,9,,,,,,,,,12,,,,60,76
27874,note_on,0,0,10,,,,,,,,,6,,,,57,62
27874,note_on,0,0,10,,,,,,,,,6,,,,53,62
27874,note_on,0,0,10,,,,,,,,,6,,,,53,0
27874,note_on,30,0,10,,,,,,,,,6,,,,48,0
27900,note_on,0,0,7,,,,,,,,,10,,,,77,103
27900,note_on,55,0,11,,,,,,,,,13,,,,48,0
27900,note_on,0,0,1,,,,,,,,,0,,,,77,96
27900,set_tempo,120,1,0,,,,,,1034483,,,,,,,,
27900,note_on,60,0,1,,,,,,,,,0,,,,81,0
27900,note_on,60,0,7,,,,,,,,,10,,,,81,0
27902,note_on,30,0,9,,,,,,,,,12,,,,60,0
27902,note_on,0,0,8,,,,,,,,,11,,,,69,78
27902,note_on,30,0,8,,,,,,,,,11,,,,65,0
27902,note_on,0,0,9,,,,,,,,,12,,,,65,76
27903,note_on,55,0,12,,,,,,,,,14,,,,36,0
27904,note_on,0,0,10,,,,,,,,,6,,,,48,62
27904,note_on,30,0,10,,,,,,,,,6,,,,57,0
27904,note_on,0,0,10,,,,,,,,,6,,,,53,62
27904,note_on,0,0,10,,,,,,,,,6,,,,53,0
27905,note_on,5,0,11,,,,,,,,,13,,,,48,100
27908,note_on,5,0,12,,,,,,,,,14,,,,36,96
27932,note_on,0,0,8,,,,,,,,,11,,,,65,78
27932,note_on,30,0,8,,,,,,,,,11,,,,69,0
27932,note_on,30,0,9,,,,,,,,,12,,,,65,0
27932,note_on,0,0,9,,,,,,,,,12,,,,60,76
27934,note_on,0,0,10,,,,,,,,,6,,,,53,62
27934,note_on,30,0,10,,,,,,,,,6,,,,53,0
27934,note_on,0,0,10,,,,,,,,,6,,,,57,62
27934,note_on,0,0,10,,,,,,,,,6,,,,48,0
27960,note_on,0,0,1,,,,,,,,,0,,,,81,96
27960,note_on,60,0,1,,,,,,,,,0,,,,77,0
27960,note_on,55,0,11,,,,,,,,,13,,,,48,0
27960,note_on,0,0,7,,,,,,,,,10,,,,81,103
27960,note_on,60,0,7,,,,,,,,,10,,,,77,0
27960,set_tempo,60,1,0,,,,,,937500,,,,,,,,
27962,note_on,0,0,8,,,,,,,,,11,,,,69,78
27962,note_on,30,0,8,,,,,,,,,11,,,,65,0
27962,note_on,30,0,9,,,,,,,,,12,,,,60,0
27962,note_on,0,0,9,,,,,,,,,12,,,,65,76
27963,note_on,55,0,12,,,,,,,,,14,,,,36,0
27964,note_on,30,0,10,,,,,,,,,6,,,,53,0
27964,note_on,0,0,10,,,,,,,,,6,,,,57,0
27964,note_on,0,0,10,,,,,,,,,6,,,,48,62
27964,note_on,0,0,10,,,,,,,,,6,,,,53,62
27965,note_on,5,0,11,,,,,,,,,13,,,,48,100
27968,note_on,5,0,12,,,,,,,,,14,,,,36,96
27992,note_on,0,0,9,,,,,,,,,12,,,,60,76
27992,note_on,30,0,8,,,,,,,,,11,,,,69,0
27992,note_on,30,0,9,,,,,,,,,12,,,,65,0
27992,note_on,0,0,8,,,,,,,,,11,,,,65,78
27994,note_on,30,0,10,,,,,,,,,6,,,,53,0
27994,note_on,0,0,10,,,,,,,,,6,,,,48,0
27994,note_on,0,0,10,,,,,,,,,6,,,,57,62
27994,note_on,0,0,10,,,,,,,,,6,,,,53,62
28020,note_on,0,0,7,,,,,,,,,10,,,,84,103
28020,note_on,60,0,1,,,,,,,,,0,,,,81,0
28020,note_on,60,0,7,,,,,,,,,10,,,,81,0
28020,note_on,55,0,11,,,,,,,,,13,,,,48,0
28020,note_on,0,0,1,,,,,,,,,0,,,,84,96
28022,note_on,30,0,9,,,,,,,,,12,,,,60,0
28022,note_on,0,0,9,,,,,,,,,12,,,,65,76
28022,note_on,30,0,8,,,,,,,,,11,,,,65,0
28022,note_on,0,0,8,,,,,,,,,11,,,,69,78
28023,note_on,55,0,12,,,,,,,,,14,,,,36,0
28024,note_on,0,0,10,,,,,,,,,6,,,,53,62
28024,note_on,0,0,10,,,,,,,,,6,,,,48,62
28024,note_on,0,0,10,,,,,,,,,6,,,,57,0
28024,note_on,30,0,10,,,,,,,,,6,,,,53,0
28025,note_on,5,0,11,,,,,,,,,13,,,,48,100
28028,note_on,5,0,12,,,,,,,,,14,,,,36,96
28052,note_on,30,0,8,,,,,,,,,11,,,,69,0
28052,note_on,0,0,8,,,,,,,,,11,,,,65,78
28052,note_on,30,0,9,,,,,,,,,12,,,,65,0
28052,note_on,0,0,9,,,,,,,,,12,,,,60,76
28054,note_on,0,0,10,,,,,,,,,6,,,,53,62
28054,note_on,0,0,10,,,,,,,,,6,,,,57,62
28054,note_on,0,0,10,,,,,,,,,6,,,,48,0
28054,note_on,30,0,10,,,,,,,,,6,,,,53,0
28075,note_on,55,0,7,,,,,,,,,10,,,,84,0
28075,note_on,0,0,1,,,,,,,,,0,,,,72,0
28075,note_on,55,0,1,,,,,,,,,0,,,,84,0
28077,note_on,25,0,9,,,,,,,,,12,,,,60,0
28077,note_on,0,0,2,,,,,,,,,1,,,,81,0
28077,note_on,25,0,8,,,,,,,,,11,,,,65,0
28077,note_on,715,0,2,,,,,,,,,1,,,,77,0
28078,note_on,715,0,5,,,,,,,,,4,,,,60,0
28078,note_on,715,0,3,,,,,,,,,2,,,,65,0
28078,note_on,0,0,3,,,,,,,,,2,,,,69,0
28079,note_on,25,0,10,,,,,,,,,6,,,,53,0
28079,note_on,0,0,10,,,,,,,,,6,,,,57,0
28080,note_on,0,0,7,,,,,,,,,10,,,,89,115
28080,note_on,715,0,6,,,,,,,,,5,,,,60,0
28080,note_on,0,0,4,,,,,,,,,3,,,,57,0
28080,note_on,715,0,4,,,,,,,,,3,,,,53,0
28080,control_change,5,0,7,,,,,,,,,10,11,87,,,
28080,set_tempo,120,1,0,,,,,,1000000,,,,,,,,
28080,note_on,55,0,11,,,,,,,,,13,,,,48,0
28080,control_change,0,0,1,,,,,,,,,0,11,80,,,
28080,note_on,0,0,1,,,,,,,,,0,,,,72,96
28080,note_on,5,0,1,,,,,,,,,0,,,,72,0
28080,note_on,0,0,1,,,,,,,,,0,,,,89,96
28082,note_on,0,0,8,,,,,,,,,11,,,,69,115
28082,control_change,5,0,8,,,,,,,,,11,11,87,,,
28082,control_change,5,0,9,,,,,,,,,12,11,87,,,
28082,note_on,0,0,9,,,,,,,,,12,,,,65,113
28082,control_change,5,0,2,,,,,,,,,1,11,80,,,
28082,note_on,0,0,2,,,,,,,,,1,,,,77,95
28082,note_on,0,0,2,,,,,,,,,1,,,,81,95
28083,note_on,0,0,5,,,,,,,,,4,,,,60,82
28083,control_change,5,0,5,,,,,,,,,4,11,82,,,
28083,note_on,55,0,12,,,,,,,,,14,,,,36,0
28083,note_on,0,0,3,,,,,,,,,2,,,,69,96
28083,control_change,0,0,3,,,,,,,,,2,11,80,,,
28083,note_on,5,0,3,,,,,,,,,2,,,,65,96
28084,note_on,0,0,10,,,,,,,,,6,,,,53,95
28084,note_on,0,0,10,,,,,,,,,6,,,,48,95
28084,control_change,5,0,10,,,,,,,,,6,11,87,,,
28085,note_on,0,0,4,,,,,,,,,3,,,,53,95
28085,control_change,5,0,11,,,,,,,,,13,11,87,,,
28085,note_on,0,0,11,,,,,,,,,13,,,,48,100
28085,control_change,0,0,4,,,,,,,,,3,11,80,,,
28085,note_on,5,0,4,,,,,,,,,3,,,,57,95
28085,note_on,0,0,6,,,,,,,,,5,,,,60,82
28085,control_change,5,0,6,,,,,,,,,5,11,82,,,
28088,control_change,5,0,12,,,,,,,,,14,11,87,,,
28088,note_on,0,0,12,,,,,,,,,14,,,,36,96
28098,control_change,18,0,1,,,,,,,,,0,11,80,,,
28098,control_change,18,0,7,,,,,,,,,10,11,86,,,
28100,control_change,18,0,9,,,,,,,,,12,11,86,,,
28100,control_change,18,0,8,,,,,,,,,11,11,86,,,
28100,control_change,18,0,2,,,,,,,,,1,11,80,,,
28101,control_change,18,0,5,,,,,,,,,4,11,81,,,
28101,control_change,18,0,3,,,,,,,,,2,11,80,,,
28102,control_change,18,0,10,,,,,,,,,6,11,86,,,
28103,control_change,18,0,4,,,,,,,,,3,11,80,,,
28103,control_change,18,0,11,,,,,,,,,13,11,86,,,
28103,control_change,18,0,6,,,,,,,,,5,11,81,,,
28106,control_change,18,0,12,,,,,,,,,14,11,86,,,
28116,control_change,18,0,1,,,,,,,,,0,11,79,,,
28116,control_change,18,0,7,,,,,,,,,10,11,85,,,
28118,control_change,18,0,2,,,,,,,,,1,11,79,,,
28118,control_change,18,0,9,,,,,,,,,12,11,85,,,
28118,control_change,18,0,8,,,,,,,,,11,11,85,,,
28119,control_change,18,0,3,,,,,,,,,2,11,79,,,
28119,control_change,18,0,5,,,,,,,,,4,11,80,,,
28120,control_change,18,0,10,,,,,,,,,6,11,85,,,
28121,control_change,18,0,4,,,,,,,,,3,11,79,,,
28121,control_change,18,0,11,,,,,,,,,13,11,85,,,
28121,control_change,18,0,6,,,,,,,,,5,11,80,,,
28124,control_change,18,0,12,,,,,,,,,14,11,85,,,
28134,control_change,18,0,7,,,,,,,,,10,11,84,,,
28134,control_change,18,0,1,,,,,,,,,0,11,78,,,
28136,control_change,18,0,8,,,,,,,,,11,11,84,,,
28136,control_change,18,0,2,,,,,,,,,1,11,78,,,
28136,control_change,18,0,9,,,,,,,,,12,11,84,,,
28137,control_change,18,0,3,,,,,,,,,2,11,78,,,
28137,control_change,18,0,5,,,,,,,,,4,11,79,,,
28138,control_change,18,0,10,,,,,,,,,6,11,84,,,
28139,control_change,18,0,4,,,,,,,,,3,11,78,,,
28139,control_change,18,0,11,,,,,,,,,13,11,84,,,
28139,control_change,18,0,6,,,,,,,,,5,11,79,,,
28140,note_on,6,0,1,,,,,,,,,0,,,,89,0
28140,note_on,0,0,7,,,,,,,,,10,,,,84,103
28140,set_tempo,60,1,0,,,,,,937500,,,,,,,,
28140,note_on,6,0,7,,,,,,,,,10,,,,89,0
28142,note_on,0,0,8,,,,,,,,,11,,,,65,103
28142,note_on,0,0,9,,,,,,,,,12,,,,60,101
28142,note_on,6,0,8,,,,,,,,,11,,,,69,0
28142,control_change,18,0,12,,,,,,,,,14,11,84,,,
28142,note_on,6,0,9,,,,,,,,,12,,,,65,0
28144,note_on,0,0,10,,,,,,,,,6,,,,53,82
28144,note_on,6,0,10,,,,,,,,,6,,,,53,0
28144,note_on,0,0,10,,,,,,,,,6,,,,48,0
28144,note_on,0,0,10,,,,,,,,,6,,,,57,82
28152,control_change,12,0,1,,,,,,,,,0,11,77,,,
28152,control_change,12,0,7,,,,,,,,,10,11,83,,,
28154,control_change,12,0,9,,,,,,,,,12,11,83,,,
28154,control_change,12,0,8,,,,,,,,,11,11,83,,,
28154,control_change,18,0,2,,,,,,,,,1,11,77,,,
28155,control_change,18,0,3,,,,,,,,,2,11,77,,,
28155,control_change,18,0,5,,,,,,,,,4,11,78,,,
28156,control_change,12,0,10,,,,,,,,,6,11,83,,,
28157,control_change,18,0,4,,,,,,,,,3,11,77,,,
28157,control_change,18,0,6,,,,,,,,,5,11,78,,,
28157,control_change,18,0,11,,,,,,,,,13,11,83,,,
28160,control_change,18,0,12,,,,,,,,,14,11,83,,,
28170,control_change,18,0,7,,,,,,,,,10,11,82,,,
28170,control_change,18,0,1,,,,,,,,,0,11,76,,,
28172,control_change,18,0,9,,,,,,,,,12,11,82,,,
28172,control_change,18,0,2,,,,,,,,,1,11,76,,,
28172,control_change,18,0,8,,,,,,,,,11,11,82,,,
28173,control_change,18,0,5,,,,,,,,,4,11,77,,,
28173,control_change,18,0,3,,,,,,,,,2,11,76,,,
28174,control_change,18,0,10,,,,,,,,,6,11,82,,,
28175,control_change,18,0,6,,,,,,,,,5,11,77,,,
28175,control_change,18,0,4,,,,,,,,,3,11,76,,,
28175,control_change,18,0,11,,,,,,,,,13,11,82,,,
28178,control_change,18,0,12,,,,,,,,,14,11,82,,,
28188,control_change,18,0,1,,,,,,,,,0,11,76,,,
28188,control_change,18,0,7,,,,,,,,,10,11,81,,,
28190,control_change,18,0,8,,,,,,,,,11,11,81,,,
28190,control_change,18,0,9,,,,,,,,,12,11,81,,,
28190,control_change,18,0,2,,,,,,,,,1,11,76,,,
28191,control_change,18,0,5,,,,,,,,,4,11,76,,,
28191,control_change,18,0,3,,,,,,,,,2,11,76,,,
28192,note_on,4,0,7,,,,,,,,,10,,,,84,0
28192,control_change,18,0,10,,,,,,,,,6,11,81,,,
28193,control_change,18,0,4,,,,,,,,,3,11,76,,,
28193,control_change,18,0,11,,,,,,,,,13,11,81,,,
28193,control_change,18,0,6,,,,,,,,,5,11,76,,,
28194,note_on,4,0,8,,,,,,,,,11,,,,65,0
28194,note_on,4,0,9,,,,,,,,,12,,,,60,0
28196,control_change,18,0,12,,,,,,,,,14,11,81,,,
28196,note_on,0,0,10,,,,,,,,,6,,,,53,0
28196,note_on,4,0,10,,,,,,,,,6,,,,57,0
28200,set_tempo,60,1,0,,,,,,1061947,,,,,,,,
28200,note_on,7,0,11,,,,,,,,,13,,,,48,0
28200,note_on,12,0,1,,,,,,,,,0,,,,72,0
28200,note_on,8,0,7,,,,,,,,,10,,,,84,115
28200,note_on,0,0,1,,,,,,,,,0,,,,84,96
28202,note_on,0,0,2,,,,,,,,,1,,,,77,0
28202,note_on,12,0,2,,,,,,,,,1,,,,81,0
28202,note_on,8,0,8,,,,,,,,,11,,,,69,115
28202,note_on,8,0,9,,,,,,,,,12,,,,65,113
28203,note_on,12,0,5,,,,,,,,,4,,,,60,0
28203,note_on,12,0,3,,,,,,,,,2,,,,69,0
28203,note_on,7,0,12,,,,,,,,,14,,,,36,0
28203,note_on,0,0,3,,,,,,,,,2,,,,65,0
28204,note_on,0,0,10,,,,,,,,,6,,,,53,95
28204,note_on,8,0,10,,,,,,,,,6,,,,48,95
28205,note_on,12,0,4,,,,,,,,,3,,,,53,0
28205,note_on,5,0,11,,,,,,,,,13,,,,48,100
28205,note_on,12,0,6,,,,,,,,,5,,,,60,0
28205,note_on,0,0,4,,,,,,,,,3,,,,57,0
28206,control_change,6,0,7,,,,,,,,,10,11,80,,,
28206,control_change,6,0,1,,,,,,,,,0,11,75,,,
28208,control_change,6,0,9,,,,,,,,,12,11,80,,,
28208,note_on,5,0,12,,,,,,,,,14,,,,36,96
28208,control_change,6,0,8,,,,,,,,,11,11,80,,,
28210,control_change,6,0,10,,,,,,,,,6,11,80,,,
28211,control_change,6,0,11,,,,,,,,,13,11,80,,,
28214,control_change,6,0,12,,,,,,,,,14,11,80,,,
28224,control_change,18,0,1,,,,,,,,,0,11,74,,,
28224,control_change,18,0,7,,,,,,,,,10,11,79,,,
28226,control_change,18,0,9,,,,,,,,,12,11,79,,,
28226,control_change,18,0,8,,,,,,,,,11,11,79,,,
28228,control_change,18,0,10,,,,,,,,,6,11,79,,,
28229,control_change,18,0,11,,,,,,,,,13,11,79,,,
28232,control_change,18,0,12,,,,,,,,,14,11,79,,,
28242,control_change,18,0,1,,,,,,,,,0,11,73,,,
28242,control_change,18,0,7,,,,,,,,,10,11,78,,,
28244,control_change,18,0,8,,,,,,,,,11,11,78,,,
28244,control_change,18,0,9,,,,,,,,,12,11,78,,,
28246,control_change,18,0,10,,,,,,,,,6,11,78,,,
28247,control_change,18,0,11,,,,,,,,,13,11,78,,,
28250,control_change,18,0,12,,,,,,,,,14,11,78,,,
28260,note_on,18,0,7,,,,,,,,,10,,,,84,0
28260,control_change,0,0,7,,,,,,,,,10,11,77,,,
28260,note_on,0,0,7,,,,,,,,,10,,,,81,103
28260,set_tempo,60,1,0,,,,,,983607,,,,,,,,
28260,note_on,18,0,1,,,,,,,,,0,,,,84,0
28262,control_change,0,0,8,,,,,,,,,11,11,77,,,
28262,note_on,0,0,8,,,,,,,,,11,,,,65,103
28262,note_on,18,0,8,,,,,,,,,11,,,,69,0
28262,note_on,18,0,9,,,,,,,,,12,,,,65,0
28262,control_change,0,0,9,,,,,,,,,12,11,77,,,
28262,note_on,0,0,9,,,,,,,,,12,,,,60,101
28264,note_on,18,0,10,,,,,,,,,6,,,,53,0
28264,note_on,0,0,10,,,,,,,,,6,,,,48,0
28264,note_on,0,0,10,,,,,,,,,6,,,,57,82
28264,note_on,0,0,10,,,,,,,,,6,,,,53,82
28264,control_change,0,0,10,,,,,,,,,6,11,77,,,
28265,control_change,18,0,11,,,,,,,,,13,11,77,,,
28268,control_change,18,0,12,,,,,,,,,14,11,77,,,
28278,control_change,18,0,7,,,,,,,,,10,11,76,,,
28280,control_change,18,0,8,,,,,,,,,11,11,76,,,
28280,control_change,18,0,9,,,,,,,,,12,11,76,,,
28282,control_change,18,0,10,,,,,,,,,6,11,76,,,
28283,control_change,18,0,11,,,,,,,,,13,11,76,,,
28286,control_change,18,0,12,,,,,,,,,14,11,76,,,
28296,control_change,18,0,7,,,,,,,,,10,11,75,,,
28298,control_change,18,0,9,,,,,,,,,12,11,75,,,
28298,control_change,18,0,8,,,,,,,,,11,11,75,,,
28300,control_change,18,0,10,,,,,,,,,6,11,75,,,
28301,control_change,18,0,11,,,,,,,,,13,11,75,,,
28304,control_change,18,0,12,,,,,,,,,14,11,75,,,
28312,note_on,16,0,7,,,,,,,,,10,,,,81,0
28314,note_on,16,0,9,,,,,,,,,12,,,,60,0
28314,note_on,16,0,8,,,,,,,,,11,,,,65,0
28314,control_change,2,0,7,,,,,,,,,10,11,74,,,
28316,control_change,2,0,8,,,,,,,,,11,11,74,,,
28316,note_on,0,0,10,,,,,,,,,6,,,,57,0
28316,control_change,2,0,9,,,,,,,,,12,11,74,,,
28316,note_on,16,0,10,,,,,,,,,6,,,,53,0
28318,control_change,2,0,10,,,,,,,,,6,11,74,,,
28319,control_change,18,0,11,,,,,,,,,13,11,74,,,
28320,note_on,6,0,7,,,,,,,,,10,,,,84,115
28320,note_on,1,0,11,,,,,,,,,13,,,,48,0
28320,set_tempo,60,1,0,,,,,,1071429,,,,,,,,
28322,control_change,18,0,12,,,,,,,,,14,11,74,,,
28322,note_on,6,0,9,,,,,,,,,12,,,,65,113
28322,note_on,6,0,8,,,,,,,,,11,,,,69,115
28323,note_on,1,0,12,,,,,,,,,14,,,,36,0
28324,note_on,6,0,10,,,,,,,,,6,,,,53,95
28324,note_on,0,0,10,,,,,,,,,6,,,,48,95
28325,note_on,5,0,11,,,,,,,,,13,,,,48,100
28328,note_on,5,0,12,,,,,,,,,14,,,,36,96
28332,control_change,12,0,7,,,,,,,,,10,11,73,,,
28334,control_change,12,0,8,,,,,,,,,11,11,73,,,
28334,control_change,12,0,9,,,,,,,,,12,11,73,,,
28336,control_change,12,0,10,,,,,,,,,6,11,73,,,
28337,control_change,12,0,11,,,,,,,,,13,11,73,,,
28340,control_change,12,0,12,,,,,,,,,14,11,73,,,
28350,control_change,18,0,7,,,,,,,,,10,11,72,,,
28352,control_change,18,0,8,,,,,,,,,11,11,72,,,
28352,control_change,18,0,9,,,,,,,,,12,11,72,,,
28354,control_change,18,0,10,,,,,,,,,6,11,72,,,
28355,control_change,18,0,11,,,,,,,,,13,11,72,,,
28358,control_change,18,0,12,,,,,,,,,14,11,72,,,
28368,control_change,18,0,7,,,,,,,,,10,11,71,,,
28370,control_change,18,0,8,,,,,,,,,11,11,71,,,
28370,control_change,18,0,9,,,,,,,,,12,11,71,,,
28372,control_change,18,0,10,,,,,,,,,6,11,71,,,
28373,control_change,18,0,11,,,,,,,,,13,11,71,,,
28376,control_change,18,0,12,,,,,,,,,14,11,71,,,
28380,set_tempo,60,1,0,,,,,,1000000,,,,,,,,
28380,note_on,0,0,7,,,,,,,,,10,,,,81,103
28380,note_on,12,0,7,,,,,,,,,10,,,,84,0
28382,note_on,12,0,8,,,,,,,,,11,,,,69,0
28382,note_on,0,0,8,,,,,,,,,11,,,,65,103
28382,note_on,0,0,9,,,,,,,,,12,,,,60,101
28382,note_on,12,0,9,,,,,,,,,12,,,,65,0
28384,note_on,12,0,10,,,,,,,,,6,,,,48,0
28384,note_on,0,0,10,,,,,,,,,6,,,,53,0
28384,note_on,0,0,10,,,,,,,,,6,,,,57,82
28384,note_on,0,0,10,,,,,,,,,6,,,,53,82
28386,control_change,6,0,7,,,,,,,,,10,11,70,,,
28388,control_change,6,0,8,,,,,,,,,11,11,70,,,
28388,control_change,6,0,9,,,,,,,,,12,11,70,,,
28390,control_change,6,0,10,,,,,,,,,6,11,70,,,
28391,control_change,18,0,11,,,,,,,,,13,11,70,,,
28394,control_change,18,0,12,,,,,,,,,14,11,70,,,
28404,control_change,18,0,7,,,,,,,,,10,11,69,,,
28406,control_change,18,0,8,,,,,,,,,11,11,69,,,
28406,control_change,18,0,9,,,,,,,,,12,11,69,,,
28408,control_change,18,0,10,,,,,,,,,6,11,69,,,
28409,control_change,18,0,11,,,,,,,,,13,11,69,,,
28412,control_change,18,0,12,,,,,,,,,14,11,69,,,
28422,control_change,18,0,7,,,,,,,,,10,11,68,,,
28424,control_change,18,0,9,,,,,,,,,12,11,68,,,
28424,control_change,18,0,8,,,,,,,,,11,11,68,,,
28426,control_change,18,0,10,,,,,,,,,6,11,68,,,
28427,control_change,18,0,11,,,,,,,,,13,11,68,,,
28430,control_change,18,0,12,,,,,,,,,14,11,68,,,
28432,note_on,10,0,7,,,,,,,,,10,,,,81,0
28434,note_on,10,0,9,,,,,,,,,12,,,,60,0
28434,note_on,10,0,8,,,,,,,,,11,,,,65,0
28436,note_on,10,0,10,,,,,,,,,6,,,,57,0
28436,note_on,0,0,10,,,,,,,,,6,,,,53,0
28440,note_on,13,0,11,,,,,,,,,13,,,,48,0
28440,control_change,8,0,7,,,,,,,,,10,11,67,,,
28440,set_tempo,60,1,0,,,,,,1090909,,,,,,,,
28440,note_on,0,0,7,,,,,,,,,10,,,,84,115
28442,note_on,0,0,8,,,,,,,,,11,,,,69,115
28442,control_change,8,0,8,,,,,,,,,11,11,67,,,
28442,control_change,8,0,9,,,,,,,,,12,11,67,,,
28442,note_on,0,0,9,,,,,,,,,12,,,,65,113
28443,note_on,13,0,12,,,,,,,,,14,,,,36,0
28444,note_on,0,0,10,,,,,,,,,6,,,,53,95
28444,note_on,0,0,10,,,,,,,,,6,,,,48,95
28444,control_change,8,0,10,,,,,,,,,6,11,67,,,
28445,control_change,5,0,11,,,,,,,,,13,11,67,,,
28445,note_on,0,0,11,,,,,,,,,13,,,,48,100
28448,control_change,5,0,12,,,,,,,,,14,11,67,,,
28448,note_on,0,0,12,,,,,,,,,14,,,,36,96
28458,control_change,18,0,7,,,,,,,,,10,11,66,,,
28460,control_change,18,0,9,,,,,,,,,12,11,66,,,
28460,control_change,18,0,8,,,,,,,,,11,11,66,,,
28462,control_change,18,0,10,,,,,,,,,6,11,66,,,
28463,control_change,18,0,11,,,,,,,,,13,11,66,,,
28466,control_change,18,0,12,,,,,,,,,14,11,66,,,
28476,control_change,18,0,7,,,,,,,,,10,11,65,,,
28478,control_change,18,0,9,,,,,,,,,12,11,65,,,
28478,control_change,18,0,8,,,,,,,,,11,11,65,,,
28480,control_change,18,0,10,,,,,,,,,6,11,65,,,
28481,control_change,18,0,11,,,,,,,,,13,11,65,,,
28484,control_change,18,0,12,,,,,,,,,14,11,65,,,
28494,control_change,18,0,7,,,,,,,,,10,11,64,,,
28496,control_change,18,0,8,,,,,,,,,11,11,64,,,
28496,control_change,18,0,9,,,,,,,,,12,11,64,,,
28498,control_change,18,0,10,,,,,,,,,6,11,64,,,
28499,control_change,18,0,11,,,,,,,,,13,11,64,,,
28500,note_on,6,0,7,,,,,,,,,10,,,,84,0
28500,set_tempo,60,1,0,,,,,,1034483,,,,,,,,
28500,note_on,0,0,7,,,,,,,,,10,,,,81,103
28502,note_on,0,0,8,,,,,,,,,11,,,,65,103
28502,note_on,6,0,8,,,,,,,,,11,,,,69,0
28502,note_on,6,0,9,,,,,,,,,12,,,,65,0
28502,control_change,18,0,12,,,,,,,,,14,11,64,,,
28502,note_on,0,0,9,,,,,,,,,12,,,,60,101
28504,note_on,0,0,10,,,,,,,,,6,,,,57,82
28504,note_on,6,0,10,,,,,,,,,6,,,,53,0
28504,note_on,0,0,10,,,,,,,,,6,,,,48,0
28504,note_on,0,0,10,,,,,,,,,6,,,,53,82
28512,control_change,12,0,7,,,,,,,,,10,11,63,,,
28514,control_change,12,0,8,,,,,,,,,11,11,63,,,
28514,control_change,12,0,9,,,,,,,,,12,11,63,,,
28516,control_change,12,0,10,,,,,,,,,6,11,63,,,
28517,control_change,18,0,11,,,,,,,,,13,11,63,,,
28520,control_change,18,0,12,,,,,,,,,14,11,63,,,
28530,control_change,18,0,7,,,,,,,,,10,11,62,,,
28532,control_change,18,0,8,,,,,,,,,11,11,62,,,
28532,control_change,18,0,9,,,,,,,,,12,11,62,,,
28534,control_change,18,0,10,,,,,,,,,6,11,62,,,
28535,control_change,18,0,11,,,,,,,,,13,11,62,,,
28538,control_change,18,0,12,,,,,,,,,14,11,62,,,
28548,control_change,18,0,7,,,,,,,,,10,11,61,,,
28550,control_change,18,0,8,,,,,,,,,11,11,61,,,
28550,control_change,18,0,9,,,,,,,,,12,11,61,,,
28552,note_on,4,0,7,,,,,,,,,10,,,,81,0
28552,control_change,18,0,10,,,,,,,,,6,11,61,,,
28553,control_change,18,0,11,,,,,,,,,13,11,61,,,
28554,note_on,4,0,8,,,,,,,,,11,,,,65,0
28554,note_on,4,0,9,,,,,,,,,12,,,,60,0
28556,note_on,4,0,10,,,,,,,,,6,,,,53,0
28556,note_on,0,0,10,,,,,,,,,6,,,,57,0
28556,control_change,18,0,12,,,,,,,,,14,11,61,,,
28560,note_on,8,0,7,,,,,,,,,10,,,,84,115
28560,set_tempo,60,1,0,,,,,,1100917,,,,,,,,
28560,note_on,7,0,11,,,,,,,,,13,,,,48,0
28562,note_on,8,0,8,,,,,,,,,11,,,,69,115
28562,note_on,8,0,9,,,,,,,,,12,,,,65,113
28563,note_on,7,0,12,,,,,,,,,14,,,,36,0
28564,note_on,0,0,10,,,,,,,,,6,,,,53,95
28564,note_on,8,0,10,,,,,,,,,6,,,,48,95
28565,note_on,5,0,11,,,,,,,,,13,,,,48,100
28566,control_change,6,0,7,,,,,,,,,10,11,60,,,
28568,control_change,6,0,8,,,,,,,,,11,11,60,,,
28568,note_on,5,0,12,,,,,,,,,14,,,,36,96
28568,control_change,6,0,9,,,,,,,,,12,11,60,,,
28570,control_change,6,0,10,,,,,,,,,6,11,60,,,
28571,control_change,6,0,11,,,,,,,,,13,11,60,,,
28574,control_change,6,0,12,,,,,,,,,14,11,60,,,
28584,control_change,18,0,7,,,,,,,,,10,11,59,,,
28586,control_change,18,0,9,,,,,,,,,12,11,59,,,
28586,control_change,18,0,8,,,,,,,,,11,11,59,,,
28588,control_change,18,0,10,,,,,,,,,6,11,59,,,
28589,control_change,18,0,11,,,,,,,,,13,11,59,,,
28592,control_change,18,0,12,,,,,,,,,14,11,59,,,
28602,control_change,18,0,7,,,,,,,,,10,11,58,,,
28604,control_change,18,0,8,,,,,,,,,11,11,58,,,
28604,control_change,18,0,9,,,,,,,,,12,11,58,,,
28606,control_change,18,0,10,,,,,,,,,6,11,58,,,
28607,control_change,18,0,11,,,,,,,,,13,11,58,,,
28610,control_change,18,0,12,,,,,,,,,14,11,58,,,
28620,set_tempo,60,1,0,,,,,,1071429,,,,,,,,
28620,note_on,18,0,7,,,,,,,,,10,,,,84,0
28620,note_on,0,0,7,,,,,,,,,10,,,,81,103
28620,control_change,0,0,7,,,,,,,,,10,11,57,,,
28622,control_change,0,0,9,,,,,,,,,12,11,57,,,
28622,note_on,0,0,9,,,,,,,,,12,,,,60,101
28622,note_on,18,0,9,,,,,,,,,12,,,,65,0
28622,note_on,0,0,8,,,,,,,,,11,,,,65,103
28622,control_change,0,0,8,,,,,,,,,11,11,57,,,
28622,note_on,18,0,8,,,,,,,,,11,,,,69,0
28624,note_on,0,0,10,,,,,,,,,6,,,,57,82
28624,control_change,0,0,10,,,,,,,,,6,11,57,,,
28624,note_on,0,0,10,,,,,,,,,6,,,,53,82
28624,note_on,0,0,10,,,,,,,,,6,,,,48,0
28624,note_on,18,0,10,,,,,,,,,6,,,,53,0
28625,control_change,18,0,11,,,,,,,,,13,11,57,,,
28628,control_change,18,0,12,,,,,,,,,14,11,57,,,
28638,control_change,18,0,7,,,,,,,,,10,11,56,,,
28640,control_change,18,0,8,,,,,,,,,11,11,56,,,
28640,control_change,18,0,9,,,,,,,,,12,11,56,,,
28642,control_change,18,0,10,,,,,,,,,6,11,56,,,
28643,control_change,18,0,11,,,,,,,,,13,11,56,,,
28646,control_change,18,0,12,,,,,,,,,14,11,56,,,
28656,control_change,18,0,7,,,,,,,,,10,11,55,,,
28658,control_change,18,0,8,,,,,,,,,11,11,55,,,
28658,control_change,18,0,9,,,,,,,,,12,11,55,,,
28660,control_change,18,0,10,,,,,,,,,6,11,55,,,
28661,control_change,18,0,11,,,,,,,,,13,11,55,,,
28664,control_change,18,0,12,,,,,,,,,14,11,55,,,
28672,note_on,16,0,7,,,,,,,,,10,,,,81,0
28674,note_on,16,0,8,,,,,,,,,11,,,,65,0
28674,control_change,2,0,7,,,,,,,,,10,11,54,,,
28674,note_on,16,0,9,,,,,,,,,12,,,,60,0
28676,control_change,2,0,9,,,,,,,,,12,11,54,,,
28676,note_on,0,0,10,,,,,,,,,6,,,,57,0
28676,note_on,16,0,10,,,,,,,,,6,,,,53,0
28676,control_change,2,0,8,,,,,,,,,11,11,54,,,
28678,control_change,2,0,10,,,,,,,,,6,11,54,,,
28679,control_change,18,0,11,,,,,,,,,13,11,54,,,
28680,note_on,6,0,7,,,,,,,,,10,,,,82,115
28680,control_change,0,0,1,,,,,,,,,0,11,53,,,
28680,note_on,420,0,1,,,,,,,,,0,,,,82,96
28680,note_on,1,0,11,,,,,,,,,13,,,,48,0
28680,set_tempo,60,1,0,,,,,,1132075,,,,,,,,
28682,note_on,6,0,9,,,,,,,,,12,,,,65,113
28682,note_on,6,0,8,,,,,,,,,11,,,,67,115
28682,control_change,18,0,12,,,,,,,,,14,11,54,,,
28683,note_on,1,0,12,,,,,,,,,14,,,,36,0
28684,note_on,0,0,10,,,,,,,,,6,,,,53,95
28684,note_on,6,0,10,,,,,,,,,6,,,,48,95
28685,note_on,5,0,11,,,,,,,,,13,,,,48,100
28688,note_on,5,0,12,,,,,,,,,14,,,,36,96
28692,control_change,12,0,7,,,,,,,,,10,11,53,,,
28694,control_change,12,0,9,,,,,,,,,12,11,53,,,
28694,control_change,12,0,8,,,,,,,,,11,11,53,,,
28696,control_change,12,0,10,,,,,,,,,6,11,53,,,
28697,control_change,12,0,11,,,,,,,,,13,11,53,,,
28700,control_change,12,0,12,,,,,,,,,14,11,53,,,
28710,control_change,18,0,7,,,,,,,,,10,11,52,,,
28710,control_change,30,0,1,,,,,,,,,0,11,52,,,
28712,control_change,18,0,9,,,,,,,,,12,11,52,,,
28712,control_change,18,0,8,,,,,,,,,11,11,52,,,
28714,control_change,18,0,10,,,,,,,,,6,11,52,,,
28715,control_change,18,0,11,,,,,,,,,13,11,52,,,
28718,control_change,18,0,12,,,,,,,,,14,11,52,,,
28728,control_change,18,0,7,,,,,,,,,10,11,51,,,
28728,control_change,18,0,1,,,,,,,,,0,11,51,,,
28730,control_change,18,0,8,,,,,,,,,11,11,51,,,
28730,control_change,18,0,9,,,,,,,,,12,11,51,,,
28732,control_change,18,0,10,,,,,,,,,6,11,51,,,
28733,control_change,18,0,11,,,,,,,,,13,11,51,,,
28736,control_change,18,0,12,,,,,,,,,14,11,51,,,
28740,set_tempo,60,1,0,,,,,,1200000,,,,,,,,
28740,note_on,0,0,7,,,,,,,,,10,,,,79,103
28740,note_on,12,0,7,,,,,,,,,10,,,,82,0
28740,note_on,0,0,1,,,,,,,,,0,,,,79,96
28740,note_on,12,0,1,,,,,,,,,0,,,,82,0
28742,note_on,12,0,8,,,,,,,,,11,,,,67,0
28742,note_on,0,0,8,,,,,,,,,11,,,,65,103
28742,note_on,12,0,9,,,,,,,,,12,,,,65,0
28742,note_on,0,0,9,,,,,,,,,12,,,,60,101
28744,note_on,12,0,10,,,,,,,,,6,,,,53,0
28744,note_on,0,0,10,,,,,,,,,6,,,,48,0
28744,note_on,0,0,10,,,,,,,,,6,,,,53,82
28744,note_on,0,0,10,,,,,,,,,6,,,,55,82
28746,control_change,6,0,1,,,,,,,,,0,11,50,,,
28748,control_change,6,0,9,,,,,,,,,12,11,50,,,
28748,control_change,6,0,8,,,,,,,,,11,11,50,,,
28750,control_change,6,0,10,,,,,,,,,6,11,50,,,
28751,control_change,18,0,11,,,,,,,,,13,11,50,,,
28754,control_change,18,0,12,,,,,,,,,14,11,50,,,
28764,control_change,18,0,1,,,,,,,,,0,11,49,,,
28766,control_change,18,0,9,,,,,,,,,12,11,49,,,
28766,control_change,18,0,8,,,,,,,,,11,11,49,,,
28768,control_change,18,0,10,,,,,,,,,6,11,49,,,
28769,control_change,18,0,11,,,,,,,,,13,11,49,,,
28772,control_change,18,0,12,,,,,,,,,14,11,49,,,
28782,control_change,18,0,1,,,,,,,,,0,11,48,,,
28784,control_change,18,0,9,,,,,,,,,12,11,48,,,
28784,control_change,18,0,8,,,,,,,,,11,11,48,,,
28786,control_change,18,0,10,,,,,,,,,6,11,48,,,
28787,control_change,18,0,11,,,,,,,,,13,11,48,,,
28790,control_change,18,0,12,,,,,,,,,14,11,48,,,
28792,note_on,52,0,7,,,,,,,,,10,,,,79,0
28794,note_on,10,0,8,,,,,,,,,11,,,,65,0
28794,note_on,10,0,9,,,,,,,,,12,,,,60,0
28795,note_on,13,0,1,,,,,,,,,0,,,,79,0
28796,note_on,0,0,10,,,,,,,,,6,,,,53,0
28796,note_on,10,0,10,,,,,,,,,6,,,,55,0
28800,note_on,0,0,1,,,,,,,,,0,,,,72,77
28800,control_change,8,0,7,,,,,,,,,10,11,37,,,
28800,set_tempo,60,1,0,,,,,,1276596,,,,,,,,
28800,note_on,0,0,7,,,,,,,,,10,,,,81,103
28800,note_on,13,0,11,,,,,,,,,13,,,,48,0
28800,control_change,5,0,1,,,,,,,,,0,11,47,,,
28800,note_on,0,0,1,,,,,,,,,0,,,,79,77
28802,control_change,600,0,2,,,,,,,,,1,11,47,,,
28802,note_on,0,0,2,,,,,,,,,1,,,,79,76
28802,control_change,8,0,8,,,,,,,,,11,11,47,,,
28802,note_on,0,0,8,,,,,,,,,11,,,,65,83
28802,note_on,0,0,2,,,,,,,,,1,,,,77,76
28802,control_change,8,0,9,,,,,,,,,12,11,47,,,
28802,note_on,0,0,9,,,,,,,,,12,,,,60,80
28803,note_on,13,0,12,,,,,,,,,14,,,,36,0
28803,note_on,0,0,3,,,,,,,,,2,,,,67,77
28803,note_on,0,0,3,,,,,,,,,2,,,,65,77
28803,control_change,600,0,3,,,,,,,,,2,11,47,,,
28804,control_change,8,0,10,,,,,,,,,6,11,47,,,
28804,note_on,0,0,10,,,,,,,,,6,,,,48,66
28805,note_on,0,0,4,,,,,,,,,3,,,,60,95
28805,control_change,5,0,11,,,,,,,,,13,11,47,,,
28805,note_on,0,0,11,,,,,,,,,13,,,,48,82
28805,control_change,600,0,4,,,,,,,,,3,11,47,,,
28808,control_change,5,0,12,,,,,,,,,14,11,47,,,
28808,note_on,0,0,12,,,,,,,,,14,,,,36,76
28810,note_on,10,0,7,,,,,,,,,10,,,,81,0
28810,note_on,0,0,7,,,,,,,,,10,,,,79,103
28819,control_change,9,0,7,,,,,,,,,10,11,38,,,
28820,note_on,1,0,7,,,,,,,,,10,,,,79,0
28820,note_on,0,0,7,,,,,,,,,10,,,,81,103
28830,note_on,10,0,7,,,,,,,,,10,,,,81,0
28830,note_on,0,0,7,,,,,,,,,10,,,,79,103
28839,control_change,9,0,7,,,,,,,,,10,11,39,,,
28840,note_on,1,0,7,,,,,,,,,10,,,,79,0
28840,note_on,0,0,7,,,,,,,,,10,,,,81,103
28850,note_on,10,0,7,,,,,,,,,10,,,,81,0
28850,note_on,0,0,7,,,,,,,,,10,,,,79,103
28858,control_change,8,0,7,,,,,,,,,10,11,40,,,
28860,set_tempo,60,1,0,,,,,,975610,,,,,,,,
28860,note_on,0,0,7,,,,,,,,,10,,,,81,103
28860,note_on,2,0,7,,,,,,,,,10,,,,79,0
28870,note_on,0,0,7,,,,,,,,,10,,,,79,103
28870,note_on,10,0,7,,,,,,,,,10,,,,81,0
28877,control_change,72,0,4,,,,,,,,,3,11,46,,,
28878,control_change,8,0,7,,,,,,,,,10,11,41,,,
28880,note_on,0,0,7,,,,,,,,,10,,,,81,103
28880,note_on,2,0,7,,,,,,,,,10,,,,79,0
28881,control_change,81,0,1,,,,,,,,,0,11,47,,,
28883,control_change,81,0,2,,,,,,,,,1,11,47,,,
28884,control_change,81,0,3,,,,,,,,,2,11,47,,,
28885,control_change,4,0,1,,,,,,,,,0,11,44,,,
28887,control_change,4,0,2,,,,,,,,,1,11,44,,,
28888,control_change,4,0,3,,,,,,,,,2,11,44,,,
28890,note_on,0,0,7,,,,,,,,,10,,,,79,103
28890,note_on,10,0,7,,,,,,,,,10,,,,81,0
28890,control_change,5,0,1,,,,,,,,,0,11,41,,,
28892,control_change,5,0,2,,,,,,,,,1,11,41,,,
28893,control_change,5,0,3,,,,,,,,,2,11,41,,,
28894,control_change,4,0,1,,,,,,,,,0,11,38,,,
28896,control_change,4,0,2,,,,,,,,,1,11,38,,,
28897,control_change,7,0,7,,,,,,,,,10,11,42,,,
28897,control_change,4,0,3,,,,,,,,,2,11,38,,,
28899,control_change,5,0,1,,,,,,,,,0,11,35,,,
28900,note_on,3,0,7,,,,,,,,,10,,,,79,0
28900,note_on,0,0,7,,,,,,,,,10,,,,81,103
28901,control_change,5,0,2,,,,,,,,,1,11,35,,,
28902,control_change,5,0,3,,,,,,,,,2,11,35,,,
28903,control_change,4,0,1,,,,,,,,,0,11,32,,,
28905,control_change,4,0,2,,,,,,,,,1,11,32,,,
28906,control_change,4,0,3,,,,,,,,,2,11,32,,,
28908,control_change,5,0,1,,,,,,,,,0,11,29,,,
28910,control_change,5,0,2,,,,,,,,,1,11,29,,,
28910,note_on,0,0,7,,,,,,,,,10,,,,79,103
28910,note_on,10,0,7,,,,,,,,,10,,,,81,0
28911,control_change,5,0,3,,,,,,,,,2,11,29,,,
28912,control_change,4,0,1,,,,,,,,,0,11,26,,,
28914,control_change,4,0,2,,,,,,,,,1,11,26,,,
28915,control_change,4,0,3,,,,,,,,,2,11,26,,,
28917,control_change,7,0,7,,,,,,,,,10,11,43,,,
28917,control_change,5,0,1,,,,,,,,,0,11,23,,,
28919,control_change,5,0,2,,,,,,,,,1,11,23,,,
28920,note_on,0,0,1,,,,,,,,,0,,,,72,0
28920,control_change,5,0,3,,,,,,,,,2,11,23,,,
28920,note_on,3,0,1,,,,,,,,,0,,,,79,0
28920,note_on,0,0,7,,,,,,,,,10,,,,81,103
28920,note_on,3,0,7,,,,,,,,,10,,,,79,0
28922,note_on,120,0,9,,,,,,,,,12,,,,60,0
28922,note_on,120,0,8,,,,,,,,,11,,,,65,0
28922,note_on,3,0,2,,,,,,,,,1,,,,77,0
28922,note_on,0,0,2,,,,,,,,,1,,,,79,0
28923,note_on,0,0,3,,,,,,,,,2,,,,65,0
28923,note_on,3,0,3,,,,,,,,,2,,,,67,0
28924,note_on,120,0,10,,,,,,,,,6,,,,48,0
28925,note_on,48,0,4,,,,,,,,,3,,,,60,0
28925,note_on,120,0,11,,,,,,,,,13,,,,48,0
28928,note_on,120,0,12,,,,,,,,,14,,,,36,0
28930,note_on,10,0,7,,,,,,,,,10,,,,81,0
28930,note_on,0,0,7,,,,,,,,,10,,,,79,103
28936,control_change,6,0,7,,,,,,,,,10,11,44,,,
28940,note_on,0,0,7,,,,,,,,,10,,,,81,103
28940,note_on,4,0,7,,,,,,,,,10,,,,79,0
28949,control_change,24,0,4,,,,,,,,,3,11,45,,,
28950,note_on,0,0,7,,,,,,,,,10,,,,79,103
28950,note_on,10,0,7,,,,,,,,,10,,,,81,0
28956,control_change,6,0,7,,,,,,,,,10,11,45,,,
28960,note_on,4,0,7,,,,,,,,,10,,,,79,0
28960,note_on,0,0,7,,,,,,,,,10,,,,81,103
28970,note_on,0,0,7,,,,,,,,,10,,,,79,103
28970,note_on,10,0,7,,,,,,,,,10,,,,81,0
28980,note_on,0,0,7,,,,,,,,,10,,,,81,103
28980,note_on,10,0,7,,,,,,,,,10,,,,79,0
28990,note_on,0,0,7,,,,,,,,,10,,,,79,103
28990,note_on,10,0,7,,,,,,,,,10,,,,81,0
29000,note_on,0,0,7,,,,,,,,,10,,,,81,103
29000,control_change,0,0,7,,,,,,,,,10,11,44,,,
29000,note_on,10,0,7,,,,,,,,,10,,,,79,0
29010,note_on,0,0,7,,,,,,,,,10,,,,79,103
29010,note_on,10,0,7,,,,,,,,,10,,,,81,0
29020,note_on,10,0,7,,,,,,,,,10,,,,79,0
29020,note_on,0,0,7,,,,,,,,,10,,,,81,103
29021,control_change,72,0,4,,,,,,,,,3,11,45,,,
29030,note_on,10,0,7,,,,,,,,,10,,,,81,0
29030,note_on,0,0,7,,,,,,,,,10,,,,79,103
29040,note_on,0,0,7,,,,,,,,,10,,,,81,103
29040,note_on,10,0,7,,,,,,,,,10,,,,79,0
29043,control_change,3,0,7,,,,,,,,,10,11,43,,,
29050,note_on,7,0,7,,,,,,,,,10,,,,81,0
29050,note_on,0,0,7,,,,,,,,,10,,,,79,103
29060,note_on,10,0,7,,,,,,,,,10,,,,79,0
29060,note_on,0,0,7,,,,,,,,,10,,,,81,103
29070,note_on,10,0,7,,,,,,,,,10,,,,81,0
29070,note_on,0,0,7,,,,,,,,,10,,,,79,103
29080,note_on,10,0,7,,,,,,,,,10,,,,79,0
29080,note_on,0,0,7,,,,,,,,,10,,,,81,103
29086,control_change,6,0,7,,,,,,,,,10,11,42,,,
29090,note_on,4,0,7,,,,,,,,,10,,,,81,0
29090,note_on,0,0,7,,,,,,,,,10,,,,79,103
29093,control_change,72,0,4,,,,,,,,,3,11,44,,,
29100,note_on,10,0,7,,,,,,,,,10,,,,79,0
29100,note_on,0,0,7,,,,,,,,,10,,,,81,103
29110,note_on,10,0,7,,,,,,,,,10,,,,81,0
29110,note_on,0,0,7,,,,,,,,,10,,,,79,103
29120,note_on,10,0,7,,,,,,,,,10,,,,79,0
29120,note_on,0,0,7,,,,,,,,,10,,,,81,103
29130,control_change,0,0,7,,,,,,,,,10,11,41,,,
29130,note_on,10,0,7,,,,,,,,,10,,,,81,0
29130,note_on,0,0,7,,,,,,,,,10,,,,79,103
29140,note_on,10,0,7,,,,,,,,,10,,,,79,0
29140,note_on,0,0,7,,,,,,,,,10,,,,81,103
29150,note_on,10,0,7,,,,,,,,,10,,,,81,0
29150,note_on,0,0,7,,,,,,,,,10,,,,79,103
29156,control_change,236,0,1,,,,,,,,,0,11,47,,,
29158,control_change,236,0,2,,,,,,,,,1,11,47,,,
29159,control_change,236,0,3,,,,,,,,,2,11,47,,,
29160,note_on,10,0,7,,,,,,,,,10,,,,79,0
29160,note_on,0,0,7,,,,,,,,,10,,,,81,103
29160,note_on,4,0,1,,,,,,,,,0,,,,84,60
29160,set_tempo,300,1,0,,,,,,991736,,,,,,,,
29160,note_on,0,0,1,,,,,,,,,0,,,,72,60
29162,note_on,0,0,8,,,,,,,,,11,,,,64,66
29162,control_change,240,0,9,,,,,,,,,12,11,40,,,
29162,note_on,0,0,9,,,,,,,,,12,,,,60,64
29162,control_change,240,0,8,,,,,,,,,11,11,40,,,
29162,note_on,4,0,2,,,,,,,,,1,,,,76,59
29162,note_on,0,0,2,,,,,,,,,1,,,,79,59
29163,note_on,0,0,3,,,,,,,,,2,,,,67,60
29163,note_on,4,0,3,,,,,,,,,2,,,,64,60
29164,control_change,240,0,10,,,,,,,,,6,11,40,,,
29164,note_on,0,0,10,,,,,,,,,6,,,,60,66
29165,note_on,0,0,11,,,,,,,,,13,,,,48,67
29165,control_change,240,0,11,,,,,,,,,13,11,40,,,
29165,note_on,0,0,4,,,,,,,,,3,,,,48,67
29165,control_change,0,0,4,,,,,,,,,3,11,43,,,
29165,note_on,72,0,4,,,,,,,,,3,,,,60,67
29168,note_on,0,0,12,,,,,,,,,14,,,,36,61
29168,control_change,240,0,12,,,,,,,,,14,11,40,,,
29170,note_on,10,0,7,,,,,,,,,10,,,,81,0
29170,note_on,0,0,7,,,,,,,,,10,,,,79,103
29173,control_change,3,0,7,,,,,,,,,10,11,40,,,
29180,note_on,7,0,7,,,,,,,,,10,,,,79,0
29180,note_on,0,0,7,,,,,,,,,10,,,,81,103
29190,note_on,10,0,7,,,,,,,,,10,,,,81,0
29190,note_on,0,0,7,,,,,,,,,10,,,,79,103
29200,note_on,10,0,7,,,,,,,,,10,,,,79,0
29200,note_on,0,0,7,,,,,,,,,10,,,,81,103
29210,note_on,0,0,7,,,,,,,,,10,,,,79,103
29210,note_on,10,0,7,,,,,,,,,10,,,,81,0
29216,control_change,6,0,7,,,,,,,,,10,11,39,,,
29220,note_on,4,0,7,,,,,,,,,10,,,,79,0
29220,note_on,0,0,7,,,,,,,,,10,,,,81,103
29220,set_tempo,60,1,0,,,,,,937500,,,,,,,,
29230,note_on,10,0,7,,,,,,,,,10,,,,81,0
29230,note_on,0,0,7,,,,,,,,,10,,,,79,103
29237,control_change,72,0,4,,,,,,,,,3,11,43,,,
29240,note_on,10,0,7,,,,,,,,,10,,,,79,0
29240,note_on,0,0,7,,,,,,,,,10,,,,81,103
29241,control_change,81,0,1,,,,,,,,,0,11,47,,,
29243,control_change,81,0,2,,,,,,,,,1,11,47,,,
29244,control_change,81,0,3,,,,,,,,,2,11,47,,,
29246,control_change,5,0,1,,,,,,,,,0,11,44,,,
29248,control_change,5,0,2,,,,,,,,,1,11,44,,,
29249,control_change,5,0,3,,,,,,,,,2,11,44,,,
29250,note_on,0,0,7,,,,,,,,,10,,,,79,103
29250,note_on,10,0,7,,,,,,,,,10,,,,81,0
29251,control_change,5,0,1,,,,,,,,,0,11,41,,,
29253,control_change,5,0,2,,,,,,,,,1,11,41,,,
29254,control_change,5,0,3,,,,,,,,,2,11,41,,,
29256,control_change,5,0,1,,,,,,,,,0,11,38,,,
29258,control_change,5,0,2,,,,,,,,,1,11,38,,,
29259,control_change,5,0,3,,,,,,,,,2,11,38,,,
29260,note_on,0,0,7,,,,,,,,,10,,,,81,103
29260,control_change,0,0,7,,,,,,,,,10,11,38,,,
29260,note_on,10,0,7,,,,,,,,,10,,,,79,0
29261,control_change,5,0,1,,,,,,,,,0,11,35,,,
29263,control_change,5,0,2,,,,,,,,,1,11,35,,,
29264,control_change,5,0,3,,,,,,,,,2,11,35,,,
29266,control_change,5,0,1,,,,,,,,,0,11,32,,,
29268,control_change,5,0,2,,,,,,,,,1,11,32,,,
29269,control_change,5,0,3,,,,,,,,,2,11,32,,,
29270,note_on,10,0,7,,,,,,,,,10,,,,81,0
29270,note_on,0,0,7,,,,,,,,,10,,,,79,103
29271,control_change,5,0,1,,,,,,,,,0,11,29,,,
29273,control_change,5,0,2,,,,,,,,,1,11,29,,,
29274,control_change,5,0,3,,,,,,,,,2,11,29,,,
29276,control_change,5,0,1,,,,,,,,,0,11,26,,,
29278,control_change,5,0,2,,,,,,,,,1,11,26,,,
29279,control_change,5,0,3,,,,,,,,,2,11,26,,,
29280,note_on,0,0,7,,,,,,,,,10,,,,81,103
29280,note_on,0,0,1,,,,,,,,,0,,,,84,0
29280,note_on,4,0,1,,,,,,,,,0,,,,72,0
29280,note_on,10,0,7,,,,,,,,,10,,,,79,0
29281,control_change,1,0,1,,,,,,,,,0,11,23,,,
29282,note_on,120,0,8,,,,,,,,,11,,,,64,0
29282,note_on,4,0,2,,,,,,,,,1,,,,79,0
29282,note_on,0,0,2,,,,,,,,,1,,,,76,0
29282,note_on,120,0,9,,,,,,,,,12,,,,60,0
29283,note_on,0,0,3,,,,,,,,,2,,,,64,0
29283,control_change,1,0,2,,,,,,,,,1,11,23,,,
29283,note_on,4,0,3,,,,,,,,,2,,,,67,0
29284,note_on,120,0,10,,,,,,,,,6,,,,60,0
29284,control_change,1,0,3,,,,,,,,,2,11,23,,,
29285,note_on,120,0,11,,,,,,,,,13,,,,48,0
29285,note_on,0,0,4,,,,,,,,,3,,,,60,0
29285,note_on,48,0,4,,,,,,,,,3,,,,48,0
29288,note_on,120,0,12,,,,,,,,,14,,,,36,0
29290,note_on,0,0,7,,,,,,,,,10,,,,79,103
29290,note_on,10,0,7,,,,,,,,,10,,,,81,0
29300,note_on,0,0,7,,,,,,,,,10,,,,81,103
29300,note_on,10,0,7,,,,,,,,,10,,,,79,0
29303,control_change,3,0,7,,,,,,,,,10,11,37,,,
29310,note_on,0,0,7,,,,,,,,,10,,,,79,103
29310,note_on,7,0,7,,,,,,,,,10,,,,81,0
29320,note_on,0,0,7,,,,,,,,,10,,,,81,103
29320,note_on,10,0,7,,,,,,,,,10,,,,79,0
29330,note_on,10,0,7,,,,,,,,,10,,,,81,0
29330,note_on,0,0,7,,,,,,,,,10,,,,79,103
29340,note_on,10,0,7,,,,,,,,,10,,,,79,0
29340,set_tempo,120,1,0,,,,,,1034483,,,,,,,,
29340,note_on,0,0,7,,,,,,,,,10,,,,81,103
29346,control_change,6,0,7,,,,,,,,,10,11,36,,,
29350,note_on,0,0,7,,,,,,,,,10,,,,79,103
29350,note_on,4,0,7,,,,,,,,,10,,,,81,0
29360,note_on,0,0,7,,,,,,,,,10,,,,81,103
29360,note_on,10,0,7,,,,,,,,,10,,,,79,0
29370,note_on,0,0,7,,,,,,,,,10,,,,79,103
29370,note_on,10,0,7,,,,,,,,,10,,,,81,0
29380,note_on,10,0,7,,,,,,,,,10,,,,79,0
29380,note_on,0,0,7,,,,,,,,,10,,,,81,103
29390,note_on,10,0,7,,,,,,,,,10,,,,81,0
29390,control_change,0,0,7,,,,,,,,,10,11,35,,,
29390,note_on,0,0,7,,,,,,,,,10,,,,79,103
29400,note_on,10,0,7,,,,,,,,,10,,,,79,0
29400,note_on,0,0,7,,,,,,,,,10,,,,81,103
29400,set_tempo,60,1,0,,,,,,937500,,,,,,,,
29410,note_on,10,0,7,,,,,,,,,10,,,,81,0
29410,note_on,0,0,7,,,,,,,,,10,,,,79,103
29420,note_on,10,0,7,,,,,,,,,10,,,,79,0
29420,note_on,0,0,7,,,,,,,,,10,,,,81,103
29430,note_on,10,0,7,,,,,,,,,10,,,,81,0
29430,note_on,0,0,7,,,,,,,,,10,,,,79,103
29433,control_change,3,0,7,,,,,,,,,10,11,34,,,
29440,note_on,7,0,7,,,,,,,,,10,,,,79,0
29440,note_on,0,0,7,,,,,,,,,10,,,,81,103
29450,note_on,0,0,7,,,,,,,,,10,,,,79,103
29450,note_on,10,0,7,,,,,,,,,10,,,,81,0
29460,note_on,0,0,7,,,,,,,,,10,,,,81,103
29460,note_on,10,0,7,,,,,,,,,10,,,,79,0
29469,note_on,9,0,7,,,,,,,,,10,,,,79,103
29470,note_on,1,0,7,,,,,,,,,10,,,,81,0
29476,control_change,6,0,7,,,,,,,,,10,11,33,,,
29479,note_on,0,0,7,,,,,,,,,10,,,,81,103
29479,note_on,3,0,7,,,,,,,,,10,,,,79,0
29488,note_on,9,0,7,,,,,,,,,10,,,,79,103
29489,note_on,1,0,7,,,,,,,,,10,,,,81,0
29498,note_on,9,0,7,,,,,,,,,10,,,,79,0
29498,note_on,0,0,7,,,,,,,,,10,,,,81,103
29499,control_change,1,0,7,,,,,,,,,10,11,35,,,
29505,set_tempo,105,1,0,,,,,,1445783,,,,,,,,
29507,note_on,8,0,7,,,,,,,,,10,,,,79,103
29508,note_on,1,0,7,,,,,,,,,10,,,,81,0
29517,note_on,9,0,7,,,,,,,,,10,,,,79,0
29520,note_on,0,0,1,,,,,,,,,0,,,,81,96
29520,set_tempo,15,1,0,,,,,,1034483,,,,,,,,
29520,control_change,239,0,1,,,,,,,,,0,11,39,,,
29520,note_on,0,0,7,,,,,,,,,10,,,,81,111
29520,control_change,3,0,7,,,,,,,,,10,11,32,,,
29522,note_on,0,0,2,,,,,,,,,1,,,,76,95
29522,note_on,0,0,2,,,,,,,,,1,,,,73,95
29522,control_change,239,0,2,,,,,,,,,1,11,39,,,
29523,program_change,239,0,10,,,,,,,,45,6,,,,,
29524,note_on,0,0,10,,,,,,,,,6,,,,57,24
29524,control_change,1,0,10,,,,,,,,,6,11,100,,,
29524,program_change,239,0,11,,,,,,,,45,13,,,,,
29525,note_on,0,0,11,,,,,,,,,13,,,,57,32
29525,control_change,1,0,11,,,,,,,,,13,11,100,,,
29527,program_change,239,0,12,,,,,,,,45,14,,,,,
29528,control_change,1,0,12,,,,,,,,,14,11,100,,,
29528,note_on,0,0,12,,,,,,,,,14,,,,45,24
29538,control_change,18,0,7,,,,,,,,,10,11,35,,,
29556,control_change,18,0,7,,,,,,,,,10,11,38,,,
29574,control_change,18,0,7,,,,,,,,,10,11,41,,,
29580,set_tempo,60,1,0,,,,,,937500,,,,,,,,
29582,control_change,300,0,9,,,,,,,,,12,11,37,,,
29582,note_on,0,0,9,,,,,,,,,12,,,,61,101
29584,note_on,60,0,10,,,,,,,,,6,,,,57,0
29584,note_on,0,0,10,,,,,,,,,6,,,,69,24
29612,note_on,30,0,9,,,,,,,,,12,,,,61,0
29612,note_on,0,0,9,,,,,,,,,12,,,,62,101
29642,note_on,0,0,9,,,,,,,,,12,,,,64,101
29642,note_on,30,0,9,,,,,,,,,12,,,,62,0
29644,note_on,60,0,10,,,,,,,,,6,,,,69,0
29644,note_on,0,0,10,,,,,,,,,6,,,,67,24
29645,note_on,120,0,11,,,,,,,,,13,,,,57,0
29648,note_on,120,0,12,,,,,,,,,14,,,,45,0
29672,note_on,30,0,9,,,,,,,,,12,,,,64,0
29672,note_on,0,0,9,,,,,,,,,12,,,,61,101
29700,set_tempo,120,1,0,,,,,,1034483,,,,,,,,
29702,note_on,180,0,2,,,,,,,,,1,,,,76,0
29702,note_on,0,0,2,,,,,,,,,1,,,,73,0
29702,note_on,0,0,2,,,,,,,,,1,,,,77,95
29702,note_on,30,0,9,,,,,,,,,12,,,,61,0
29702,note_on,0,0,2,,,,,,,,,1,,,,74,95
29704,note_on,60,0,10,,,,,,,,,6,,,,67,0
29704,note_on,0,0,10,,,,,,,,,6,,,,65,24
29705,note_on,60,0,11,,,,,,,,,13,,,,50,32
29708,note_on,60,0,12,,,,,,,,,14,,,,38,24
29760,set_tempo,60,1,0,,,,,,937500,,,,,,,,
29760,note_on,0,0,1,,,,,,,,,0,,,,79,96
29760,note_on,0,0,7,,,,,,,,,10,,,,79,111
29760,note_on,240,0,1,,,,,,,,,0,,,,81,0
29760,note_on,186,0,7,,,,,,,,,10,,,,81,0
29762,note_on,60,0,9,,,,,,,,,12,,,,62,101
29764,note_on,60,0,10,,,,,,,,,6,,,,65,0
29764,note_on,0,0,10,,,,,,,,,6,,,,62,24
29792,note_on,30,0,9,,,,,,,,,12,,,,62,0
29792,note_on,0,0,9,,,,,,,,,12,,,,64,101
29820,note_on,60,0,7,,,,,,,,,10,,,,79,0
29820,note_on,60,0,1,,,,,,,,,0,,,,79,0
29820,note_on,0,0,1,,,,,,,,,0,,,,81,96
29820,note_on,0,0,7,,,,,,,,,10,,,,81,111
29822,note_on,30,0,9,,,,,,,,,12,,,,64,0
29822,note_on,0,0,9,,,,,,,,,12,,,,65,101
29824,note_on,0,0,10,,,,,,,,,6,,,,60,24
29824,note_on,60,0,10,,,,,,,,,6,,,,62,0
29825,note_on,120,0,11,,,,,,,,,13,,,,50,0
29828,note_on,120,0,12,,,,,,,,,14,,,,38,0
29852,note_on,30,0,9,,,,,,,,,12,,,,65,0
29852,note_on,0,0,9,,,,,,,,,12,,,,62,101
29880,note_on,60,0,7,,,,,,,,,10,,,,81,0
29880,note_on,0,0,7,,,,,,,,,10,,,,83,111
29880,note_on,60,0,1,,,,,,,,,0,,,,81,0
29880,note_on,0,0,1,,,,,,,,,0,,,,83,96
29880,set_tempo,120,1,0,,,,,,1034483,,,,,,,,
29882,note_on,30,0,9,,,,,,,,,12,,,,62,0
29884,note_on,0,0,10,,,,,,,,,6,,,,59,24
29884,note_on,60,0,10,,,,,,,,,6,,,,60,0
29885,note_on,60,0,11,,,,,,,,,13,,,,43,32
29888,note_on,60,0,12,,,,,,,,,14,,,,31,24
29940,note_on,60,0,1,,,,,,,,,0,,,,83,0
29940,set_tempo,60,1,0,,,,,,937500,,,,,,,,
29940,note_on,0,0,1,,,,,,,,,0,,,,81,96
29940,note_on,0,0,7,,,,,,,,,10,,,,81,111
29940,note_on,60,0,7,,,,,,,,,10,,,,83,0
29942,control_change,660,0,8,,,,,,,,,11,11,37,,,
29942,note_on,0,0,8,,,,,,,,,11,,,,71,103
29944,note_on,0,0,10,,,,,,,,,6,,,,55,24
29944,note_on,60,0,10,,,,,,,,,6,,,,59,0
29972,note_on,0,0,8,,,,,,,,,11,,,,72,103
29972,note_on,30,0,8,,,,,,,,,11,,,,71,0
30000,note_on,60,0,1,,,,,,,,,0,,,,81,0
30000,note_on,0,0,1,,,,,,,,,0,,,,83,96
30000,note_on,60,0,7,,,,,,,,,10,,,,81,0
30000,note_on,0,0,7,,,,,,,,,10,,,,83,111
30002,note_on,300,0,2,,,,,,,,,1,,,,74,0
30002,note_on,0,0,2,,,,,,,,,1,,,,74,95
30002,note_on,0,0,2,,,,,,,,,1,,,,71,95
30002,note_on,0,0,2,,,,,,,,,1,,,,77,0
30002,note_on,0,0,8,,,,,,,,,11,,,,74,103
30002,note_on,30,0,8,,,,,,,,,11,,,,72,0
30003,note_on,719,0,3,,,,,,,,,2,,,,65,96
30003,control_change,0,0,3,,,,,,,,,2,11,39,,,
30003,note_on,0,0,3,,,,,,,,,2,,,,62,96
30004,note_on,0,0,10,,,,,,,,,6,,,,53,24
30004,note_on,60,0,10,,,,,,,,,6,,,,55,0
30005,note_on,120,0,11,,,,,,,,,13,,,,43,0
30008,note_on,120,0,12,,,,,,,,,14,,,,31,0
30032,note_on,30,0,8,,,,,,,,,11,,,,74,0
30032,note_on,0,0,8,,,,,,,,,11,,,,71,103
30060,set_tempo,120,1,0,,,,,,1034483,,,,,,,,
30060,note_on,60,0,1,,,,,,,,,0,,,,83,0
30060,note_on,0,0,1,,,,,,,,,0,,,,84,96
30060,note_on,0,0,7,,,,,,,,,10,,,,84,111
30060,note_on,60,0,7,,,,,,,,,10,,,,83,0
30062,note_on,0,0,2,,,,,,,,,1,,,,72,95
30062,note_on,30,0,8,,,,,,,,,11,,,,71,0
30062,note_on,60,0,2,,,,,,,,,1,,,,74,0
30062,note_on,0,0,2,,,,,,,,,1,,,,76,95
30062,note_on,0,0,2,,,,,,,,,1,,,,71,0
30063,note_on,0,0,3,,,,,,,,,2,,,,65,0
30063,note_on,60,0,3,,,,,,,,,2,,,,62,0
30064,note_on,0,0,10,,,,,,,,,6,,,,52,24
30064,note_on,60,0,10,,,,,,,,,6,,,,53,0
30065,note_on,60,0,11,,,,,,,,,13,,,,48,32
30068,note_on,60,0,12,,,,,,,,,14,,,,36,24
30120,set_tempo,60,1,0,,,,,,937500,,,,,,,,
30122,note_on,60,0,8,,,,,,,,,11,,,,72,103
30124,note_on,60,0,10,,,,,,,,,6,,,,52,0
30124,note_on,0,0,10,,,,,,,,,6,,,,48,24
30152,note_on,30,0,8,,,,,,,,,11,,,,72,0
30152,note_on,0,0,8,,,,,,,,,11,,,,74,103
30180,note_on,0,0,1,,,,,,,,,0,,,,79,96
30180,note_on,0,0,7,,,,,,,,,10,,,,79,111
30180,note_on,120,0,7,,,,,,,,,10,,,,84,0
30180,note_on,120,0,1,,,,,,,,,0,,,,84,0
30182,note_on,0,0,8,,,,,,,,,11,,,,76,103
30182,note_on,30,0,8,,,,,,,,,11,,,,74,0
30183,note_on,0,0,3,,,,,,,,,2,,,,64,96
30183,note_on,120,0,3,,,,,,,,,2,,,,60,96
30184,note_on,0,0,10,,,,,,,,,6,,,,46,24
30184,note_on,60,0,10,,,,,,,,,6,,,,48,0
30185,note_on,120,0,11,,,,,,,,,13,,,,48,0
30188,note_on,120,0,12,,,,,,,,,14,,,,36,0
30212,note_on,30,0,8,,,,,,,,,11,,,,76,0
30212,note_on,0,0,8,,,,,,,,,11,,,,72,103
30235,note_on,55,0,7,,,,,,,,,10,,,,79,0
30235,note_on,55,0,1,,,,,,,,,0,,,,79,0
30237,note_on,175,0,2,,,,,,,,,1,,,,72,0
30237,note_on,0,0,2,,,,,,,,,1,,,,76,0
30240,note_on,5,0,7,,,,,,,,,10,,,,81,111
30240,set_tempo,120,1,0,,,,,,1034483,,,,,,,,
30240,note_on,5,0,1,,,,,,,,,0,,,,81,96
30242,note_on,30,0,8,,,,,,,,,11,,,,72,0
30242,note_on,5,0,2,,,,,,,,,1,,,,73,95
30242,note_on,0,0,2,,,,,,,,,1,,,,76,95
30243,note_on,0,0,3,,,,,,,,,2,,,,60,0
30243,note_on,60,0,3,,,,,,,,,2,,,,64,0
30244,note_on,60,0,10,,,,,,,,,6,,,,46,0
30244,note_on,0,0,10,,,,,,,,,6,,,,45,24
30245,note_on,60,0,11,,,,,,,,,13,,,,57,32
30248,note_on,60,0,12,,,,,,,,,14,,,,45,24
30300,set_tempo,60,1,0,,,,,,937500,,,,,,,,
30302,note_on,420,0,9,,,,,,,,,12,,,,61,101
30304,note_on,60,0,10,,,,,,,,,6,,,,45,0
30304,note_on,0,0,10,,,,,,,,,6,,,,69,24
30332,note_on,0,0,9,,,,,,,,,12,,,,62,101
30332,note_on,30,0,9,,,,,,,,,12,,,,61,0
30362,note_on,30,0,9,,,,,,,,,12,,,,62,0
30362,note_on,0,0,9,,,,,,,,,12,,,,64,101
30363,note_on,0,0,3,,,,,,,,,2,,,,61,96
30363,note_on,120,0,3,,,,,,,,,2,,,,64,96
30364,note_on,60,0,10,,,,,,,,,6,,,,69,0
30364,note_on,0,0,10,,,,,,,,,6,,,,67,24
30365,note_on,120,0,11,,,,,,,,,13,,,,57,0
30368,note_on,120,0,12,,,,,,,,,14,,,,45,0
30392,note_on,0,0,9,,,,,,,,,12,,,,61,101
30392,note_on,30,0,9,,,,,,,,,12,,,,64,0
30420,set_tempo,120,1,0,,,,,,1034483,,,,,,,,
30422,note_on,180,0,2,,,,,,,,,1,,,,76,0
30422,note_on,0,0,2,,,,,,,,,1,,,,73,0
30422,note_on,30,0,9,,,,,,,,,12,,,,61,0
30422,note_on,0,0,2,,,,,,,,,1,,,,74,95
30422,note_on,0,0,2,,,,,,,,,1,,,,77,95
30423,note_on,60,0,3,,,,,,,,,2,,,,61,0
30423,note_on,0,0,3,,,,,,,,,2,,,,64,0
30424,note_on,0,0,10,,,,,,,,,6,,,,65,24
30424,note_on,60,0,10,,,,,,,,,6,,,,67,0
30425,note_on,60,0,11,,,,,,,,,13,,,,50,32
30428,note_on,60,0,12,,,,,,,,,14,,,,38,24
30480,note_on,0,0,7,,,,,,,,,10,,,,79,111
30480,note_on,240,0,1,,,,,,,,,0,,,,81,0
30480,note_on,0,0,1,,,,,,,,,0,,,,79,96
30480,set_tempo,60,1,0,,,,,,937500,,,,,,,,
30480,note_on,240,0,7,,,,,,,,,10,,,,81,0
30482,note_on,60,0,9,,,,,,,,,12,,,,62,101
30484,note_on,0,0,10,,,,,,,,,6,,,,62,24
30484,note_on,60,0,10,,,,,,,,,6,,,,65,0
30512,note_on,30,0,9,,,,,,,,,12,,,,62,0
30512,note_on,0,0,9,,,,,,,,,12,,,,64,101
30540,note_on,60,0,1,,,,,,,,,0,,,,79,0
30540,note_on,0,0,1,,,,,,,,,0,,,,81,96
30540,note_on,60,0,7,,,,,,,,,10,,,,79,0
30540,note_on,0,0,7,,,,,,,,,10,,,,81,111
30542,note_on,0,0,9,,,,,,,,,12,,,,65,101
30542,note_on,30,0,9,,,,,,,,,12,,,,64,0
30543,note_on,0,0,3,,,,,,,,,2,,,,62,96
30543,note_on,120,0,3,,,,,,,,,2,,,,65,96
30544,note_on,0,0,10,,,,,,,,,6,,,,60,24
30544,note_on,60,0,10,,,,,,,,,6,,,,62,0
30545,note_on,120,0,11,,,,,,,,,13,,,,50,0
30548,note_on,120,0,12,,,,,,,,,14,,,,38,0
30572,note_on,30,0,9,,,,,,,,,12,,,,65,0
30572,note_on,0,0,9,,,,,,,,,12,,,,62,101
30600,set_tempo,120,1,0,,,,,,1034483,,,,,,,,
30600,note_on,0,0,7,,,,,,,,,10,,,,83,111
30600,note_on,60,0,7,,,,,,,,,10,,,,81,0
30600,note_on,0,0,1,,,,,,,,,0,,,,83,96
30600,note_on,60,0,1,,,,,,,,,0,,,,81,0
30602,note_on,30,0,9,,,,,,,,,12,,,,62,0
30603,note_on,60,0,3,,,,,,,,,2,,,,62,0
30603,note_on,0,0,3,,,,,,,,,2,,,,65,0
30604,note_on,0,0,10,,,,,,,,,6,,,,59,24
30604,note_on,60,0,10,,,,,,,,,6,,,,60,0
30605,note_on,60,0,11,,,,,,,,,13,,,,43,32
30608,note_on,60,0,12,,,,,,,,,14,,,,31,24
30660,note_on,0,0,7,,,,,,,,,10,,,,81,111
30660,note_on,60,0,7,,,,,,,,,10,,,,83,0
30660,note_on,60,0,1,,,,,,,,,0,,,,83,0
30660,note_on,0,0,1,,,,,,,,,0,,,,81,96
30660,set_tempo,60,1,0,,,,,,937500,,,,,,,,
30662,note_on,420,0,8,,,,,,,,,11,,,,71,103
30664,note_on,0,0,10,,,,,,,,,6,,,,55,24
30664,note_on,60,0,10,,,,,,,,,6,,,,59,0
30692,note_on,0,0,8,,,,,,,,,11,,,,72,103
30692,note_on,30,0,8,,,,,,,,,11,,,,71,0
30720,note_on,0,0,7,,,,,,,,,10,,,,83,111
30720,note_on,60,0,7,,,,,,,,,10,,,,81,0
30720,note_on,0,0,1,,,,,,,,,0,,,,83,96
30720,note_on,60,0,1,,,,,,,,,0,,,,81,0
30722,note_on,0,0,2,,,,,,,,,1,,,,71,95
30722,note_on,0,0,2,,,,,,,,,1,,,,74,95
30722,note_on,300,0,2,,,,,,,,,1,,,,74,0
30722,note_on,0,0,8,,,,,,,,,11,,,,74,103
30722,note_on,30,0,8,,,,,,,,,11,,,,72,0
30722,note_on,0,0,2,,,,,,,,,1,,,,77,0
30723,note_on,120,0,3,,,,,,,,,2,,,,62,96
30723,note_on,0,0,3,,,,,,,,,2,,,,65,96
30724,note_on,60,0,10,,,,,,,,,6,,,,55,0
30724,note_on,0,0,10,,,,,,,,,6,,,,53,24
30725,note_on,120,0,11,,,,,,,,,13,,,,43,0
30728,note_on,120,0,12,,,,,,,,,14,,,,31,0
30752,note_on,30,0,8,,,,,,,,,11,,,,74,0
30752,note_on,0,0,8,,,,,,,,,11,,,,71,103
30775,note_on,55,0,7,,,,,,,,,10,,,,83,0
30775,note_on,55,0,1,,,,,,,,,0,,,,83,0
30780,control_change,5,0,1,,,,,,,,,0,11,39,,,
30780,note_on,0,0,1,,,,,,,,,0,,,,84,96
30780,set_tempo,120,1,0,,,,,,1034483,,,,,,,,
30780,control_change,5,0,7,,,,,,,,,10,11,42,,,
30780,note_on,0,0,7,,,,,,,,,10,,,,84,111
30782,control_change,180,0,9,,,,,,,,,12,11,37,,,
30782,note_on,60,0,2,,,,,,,,,1,,,,74,0
30782,control_change,0,0,8,,,,,,,,,11,11,37,,,
30782,note_on,30,0,8,,,,,,,,,11,,,,71,0
30782,note_on,0,0,2,,,,,,,,,1,,,,76,95
30782,control_change,0,0,2,,,,,,,,,1,11,39,,,
30782,note_on,0,0,8,,,,,,,,,11,,,,72,103
30782,note_on,0,0,2,,,,,,,,,1,,,,72,95
30782,note_on,0,0,2,,,,,,,,,1,,,,71,0
30783,note_on,60,0,3,,,,,,,,,2,,,,65,0
30783,note_on,0,0,3,,,,,,,,,2,,,,62,0
30783,control_change,0,0,3,,,,,,,,,2,11,39,,,
30784,note_on,0,0,10,,,,,,,,,6,,,,52,24
30784,note_on,60,0,10,,,,,,,,,6,,,,53,0
30785,note_on,0,0,4,,,,,,,,,3,,,,52,95
30785,note_on,60,0,11,,,,,,,,,13,,,,48,29
30785,note_on,1500,0,4,,,,,,,,,3,,,,55,95
30785,control_change,0,0,4,,,,,,,,,3,11,39,,,
30788,note_on,60,0,12,,,,,,,,,14,,,,36,22
30798,control_change,18,0,7,,,,,,,,,10,11,43,,,
30808,control_change,28,0,1,,,,,,,,,0,11,41,,,
30810,control_change,28,0,2,,,,,,,,,1,11,41,,,
30810,control_change,28,0,9,,,,,,,,,12,11,39,,,
30810,control_change,28,0,8,,,,,,,,,11,11,39,,,
30811,control_change,28,0,3,,,,,,,,,2,11,41,,,
30813,control_change,28,0,4,,,,,,,,,3,11,41,,,
30816,control_change,18,0,7,,,,,,,,,10,11,44,,,
30823,control_change,15,0,1,,,,,,,,,0,11,42,,,
30825,control_change,15,0,8,,,,,,,,,11,11,40,,,
30825,control_change,15,0,2,,,,,,,,,1,11,42,,,
30825,control_change,15,0,9,,,,,,,,,12,11,40,,,
30826,control_change,15,0,3,,,,,,,,,2,11,42,,,
30828,control_change,15,0,4,,,,,,,,,3,11,42,,,
30834,control_change,18,0,7,,,,,,,,,10,11,45,,,
30840,set_tempo,60,1,0,,,,,,937500,,,,,,,,
30844,note_on,0,0,10,,,,,,,,,6,,,,48,25
30844,note_on,60,0,10,,,,,,,,,6,,,,52,0
30852,control_change,18,0,7,,,,,,,,,10,11,46,,,
30852,control_change,29,0,1,,,,,,,,,0,11,43,,,
30854,control_change,29,0,9,,,,,,,,,12,11,42,,,
30854,control_change,29,0,8,,,,,,,,,11,11,42,,,
30854,control_change,29,0,2,,,,,,,,,1,11,43,,,
30855,control_change,29,0,3,,,,,,,,,2,11,43,,,
30857,control_change,29,0,4,,,,,,,,,3,11,43,,,
30870,control_change,18,0,7,,,,,,,,,10,11,47,,,
30880,control_change,28,0,1,,,,,,,,,0,11,45,,,
30882,control_change,28,0,8,,,,,,,,,11,11,44,,,
30882,control_change,28,0,9,,,,,,,,,12,11,44,,,
30882,control_change,28,0,2,,,,,,,,,1,11,45,,,
30883,control_change,28,0,3,,,,,,,,,2,11,45,,,
30885,control_change,28,0,4,,,,,,,,,3,11,45,,,
30888,control_change,18,0,7,,,,,,,,,10,11,48,,,
30895,control_change,15,0,1,,,,,,,,,0,11,45,,,
30897,control_change,15,0,8,,,,,,,,,11,11,45,,,
30897,control_change,15,0,2,,,,,,,,,1,11,45,,,
30897,control_change,15,0,9,,,,,,,,,12,11,45,,,
30898,control_change,15,0,3,,,,,,,,,2,11,45,,,
30900,note_on,12,0,7,,,,,,,,,10,,,,84,0
30900,note_on,0,0,7,,,,,,,,,10,,,,79,96
30900,note_on,15,0,4,,,,,,,,,3,,,,52,0
30900,note_on,0,0,4,,,,,,,,,3,,,,55,0
30900,control_change,0,0,4,,,,,,,,,3,11,45,,,
30900,note_on,5,0,1,,,,,,,,,0,,,,84,0
30900,note_on,0,0,1,,,,,,,,,0,,,,79,96
30902,note_on,5,0,8,,,,,,,,,11,,,,72,0
30902,note_on,0,0,8,,,,,,,,,11,,,,67,88
30903,note_on,5,0,3,,,,,,,,,2,,,,64,96
30903,note_on,0,0,3,,,,,,,,,2,,,,60,96
30904,note_on,60,0,10,,,,,,,,,6,,,,48,0
30904,note_on,0,0,10,,,,,,,,,6,,,,55,25
30905,note_on,0,0,4,,,,,,,,,3,,,,52,95
30905,note_on,5,0,4,,,,,,,,,3,,,,55,95
30905,note_on,120,0,11,,,,,,,,,13,,,,48,0
30906,control_change,6,0,7,,,,,,,,,10,11,49,,,
30908,note_on,120,0,12,,,,,,,,,14,,,,36,0
30924,control_change,24,0,1,,,,,,,,,0,11,47,,,
30924,control_change,18,0,7,,,,,,,,,10,11,50,,,
30926,control_change,24,0,8,,,,,,,,,11,11,47,,,
30926,control_change,29,0,9,,,,,,,,,12,11,47,,,
30926,control_change,29,0,2,,,,,,,,,1,11,47,,,
30927,control_change,24,0,3,,,,,,,,,2,11,47,,,
30929,control_change,24,0,4,,,,,,,,,3,11,47,,,
30942,control_change,18,0,7,,,,,,,,,10,11,51,,,
30952,control_change,28,0,1,,,,,,,,,0,11,49,,,
30954,control_change,28,0,2,,,,,,,,,1,11,49,,,
30954,control_change,28,0,8,,,,,,,,,11,11,49,,,
30954,control_change,28,0,9,,,,,,,,,12,11,49,,,
30955,control_change,28,0,3,,,,,,,,,2,11,49,,,
30957,note_on,3,0,2,,,,,,,,,1,,,,76,0
30957,control_change,28,0,4,,,,,,,,,3,11,49,,,
30960,set_tempo,120,1,0,,,,,,1000000,,,,,,,,
30960,note_on,18,0,7,,,,,,,,,10,,,,79,0
30960,note_on,0,0,7,,,,,,,,,10,,,,81,103
30960,control_change,0,0,7,,,,,,,,,10,11,52,,,
30960,note_on,0,0,1,,,,,,,,,0,,,,81,96
30960,note_on,8,0,1,,,,,,,,,0,,,,79,0
30960,note_on,3,0,4,,,,,,,,,3,,,,52,0
30960,note_on,0,0,4,,,,,,,,,3,,,,55,0
30962,note_on,0,0,8,,,,,,,,,11,,,,69,103
30962,note_on,5,0,2,,,,,,,,,1,,,,77,95
30962,note_on,8,0,8,,,,,,,,,11,,,,67,0
30963,note_on,0,0,3,,,,,,,,,2,,,,64,0
30963,note_on,8,0,3,,,,,,,,,2,,,,60,0
30964,note_on,0,0,10,,,,,,,,,6,,,,48,26
30964,note_on,60,0,10,,,,,,,,,6,,,,55,0
30965,note_on,5,0,4,,,,,,,,,3,,,,53,95
30965,note_on,60,0,11,,,,,,,,,13,,,,48,33
30965,note_on,0,0,4,,,,,,,,,3,,,,57,95
30967,control_change,7,0,1,,,,,,,,,0,11,50,,,
30968,note_on,60,0,12,,,,,,,,,14,,,,36,25
30969,control_change,15,0,9,,,,,,,,,12,11,50,,,
30969,control_change,7,0,2,,,,,,,,,1,11,50,,,
30969,control_change,7,0,8,,,,,,,,,11,11,50,,,
30970,control_change,7,0,3,,,,,,,,,2,11,50,,,
30972,control_change,7,0,4,,,,,,,,,3,11,50,,,
30975,control_change,15,0,7,,,,,,,,,10,11,53,,,
30990,control_change,15,0,7,,,,,,,,,10,11,54,,,
30996,control_change,29,0,1,,,,,,,,,0,11,52,,,
30998,control_change,29,0,2,,,,,,,,,1,11,52,,,
30998,control_change,29,0,9,,,,,,,,,12,11,52,,,
30998,control_change,29,0,8,,,,,,,,,11,11,52,,,
30999,control_change,29,0,3,,,,,,,,,2,11,52,,,
31001,control_change,29,0,4,,,,,,,,,3,11,52,,,
31006,control_change,16,0,7,,,,,,,,,10,11,55,,,
31020,set_tempo,60,1,0,,,,,,937500,,,,,,,,
31021,control_change,15,0,7,,,,,,,,,10,11,56,,,
31024,control_change,28,0,1,,,,,,,,,0,11,53,,,
31024,note_on,60,0,10,,,,,,,,,6,,,,48,0
31024,note_on,0,0,10,,,,,,,,,6,,,,53,28
31026,control_change,28,0,9,,,,,,,,,12,11,54,,,
31026,control_change,28,0,2,,,,,,,,,1,11,53,,,
31026,control_change,28,0,8,,,,,,,,,11,11,54,,,
31027,control_change,28,0,3,,,,,,,,,2,11,53,,,
31029,control_change,28,0,4,,,,,,,,,3,11,53,,,
31037,control_change,16,0,7,,,,,,,,,10,11,57,,,
31039,control_change,15,0,1,,,,,,,,,0,11,54,,,
31041,control_change,15,0,8,,,,,,,,,11,11,55,,,
31041,control_change,15,0,2,,,,,,,,,1,11,54,,,
31041,control_change,15,0,9,,,,,,,,,12,11,55,,,
31042,control_change,15,0,3,,,,,,,,,2,11,54,,,
31044,control_change,15,0,4,,,,,,,,,3,11,54,,,
31052,control_change,15,0,7,,,,,,,,,10,11,58,,,
31067,control_change,15,0,7,,,,,,,,,10,11,59,,,
31068,control_change,29,0,1,,,,,,,,,0,11,55,,,
31070,control_change,29,0,8,,,,,,,,,11,11,57,,,
31070,control_change,29,0,2,,,,,,,,,1,11,55,,,
31070,control_change,29,0,9,,,,,,,,,12,11,57,,,
31071,control_change,29,0,3,,,,,,,,,2,11,55,,,
31073,control_change,29,0,4,,,,,,,,,3,11,55,,,
31080,note_on,0,0,7,,,,,,,,,10,,,,77,103
31080,note_on,0,0,1,,,,,,,,,0,,,,77,96
31080,note_on,12,0,1,,,,,,,,,0,,,,81,0
31080,note_on,13,0,7,,,,,,,,,10,,,,81,0
31082,note_on,12,0,8,,,,,,,,,11,,,,69,0
31082,note_on,0,0,8,,,,,,,,,11,,,,65,103
31083,note_on,0,0,3,,,,,,,,,2,,,,60,96
31083,note_on,12,0,3,,,,,,,,,2,,,,65,96
31083,control_change,3,0,7,,,,,,,,,10,11,60,,,
31084,note_on,60,0,10,,,,,,,,,6,,,,53,0
31084,note_on,0,0,10,,,,,,,,,6,,,,57,29
31085,note_on,120,0,11,,,,,,,,,13,,,,48,0
31088,note_on,120,0,12,,,,,,,,,14,,,,36,0
31096,control_change,16,0,1,,,,,,,,,0,11,57,,,
31098,control_change,28,0,2,,,,,,,,,1,11,57,,,
31098,control_change,28,0,9,,,,,,,,,12,11,59,,,
31098,control_change,15,0,7,,,,,,,,,10,11,61,,,
31098,control_change,16,0,8,,,,,,,,,11,11,59,,,
31099,control_change,16,0,3,,,,,,,,,2,11,57,,,
31101,control_change,28,0,4,,,,,,,,,3,11,57,,,
31111,control_change,15,0,1,,,,,,,,,0,11,58,,,
31113,control_change,15,0,2,,,,,,,,,1,11,58,,,
31113,control_change,15,0,8,,,,,,,,,11,11,60,,,
31113,control_change,15,0,9,,,,,,,,,12,11,60,,,
31114,control_change,15,0,3,,,,,,,,,2,11,58,,,
31114,control_change,16,0,7,,,,,,,,,10,11,62,,,
31116,control_change,15,0,4,,,,,,,,,3,11,58,,,
31129,control_change,15,0,7,,,,,,,,,10,11,63,,,
31140,note_on,0,0,1,,,,,,,,,0,,,,72,96
31140,note_on,29,0,1,,,,,,,,,0,,,,77,0
31140,control_change,0,0,1,,,,,,,,,0,11,60,,,
31140,note_on,11,0,7,,,,,,,,,10,,,,77,0
31140,note_on,0,0,7,,,,,,,,,10,,,,72,103
31140,note_on,24,0,4,,,,,,,,,3,,,,57,0
31140,note_on,0,0,4,,,,,,,,,3,,,,53,0
31140,set_tempo,120,1,0,,,,,,1000000,,,,,,,,
31142,control_change,0,0,2,,,,,,,,,1,11,60,,,
31142,note_on,29,0,2,,,,,,,,,1,,,,77,0
31142,note_on,0,0,8,,,,,,,,,11,,,,60,103
31142,control_change,0,0,8,,,,,,,,,11,11,62,,,
31142,note_on,29,0,8,,,,,,,,,11,,,,65,0
31142,note_on,0,0,9,,,,,,,,,12,,,,60,101
31142,control_change,29,0,9,,,,,,,,,12,11,62,,,
31142,note_on,0,0,2,,,,,,,,,1,,,,79,95
31143,note_on,0,0,3,,,,,,,,,2,,,,65,0
31143,control_change,0,0,3,,,,,,,,,2,11,60,,,
31143,note_on,29,0,3,,,,,,,,,2,,,,60,0
31144,control_change,4,0,7,,,,,,,,,10,11,64,,,
31144,note_on,0,0,10,,,,,,,,,6,,,,48,30
31144,note_on,60,0,10,,,,,,,,,6,,,,57,0
31145,note_on,0,0,4,,,,,,,,,3,,,,58,95
31145,note_on,60,0,11,,,,,,,,,13,,,,48,36
31145,control_change,5,0,4,,,,,,,,,3,11,60,,,
31145,note_on,0,0,4,,,,,,,,,3,,,,55,95
31148,note_on,60,0,12,,,,,,,,,14,,,,36,29
31160,control_change,16,0,7,,,,,,,,,10,11,65,,,
31168,control_change,28,0,1,,,,,,,,,0,11,61,,,
31170,control_change,28,0,8,,,,,,,,,11,11,64,,,
31170,control_change,28,0,2,,,,,,,,,1,11,61,,,
31170,control_change,28,0,9,,,,,,,,,12,11,64,,,
31171,control_change,28,0,3,,,,,,,,,2,11,61,,,
31173,control_change,28,0,4,,,,,,,,,3,11,61,,,
31175,control_change,15,0,7,,,,,,,,,10,11,66,,,
31183,control_change,15,0,1,,,,,,,,,0,11,62,,,
31185,control_change,15,0,9,,,,,,,,,12,11,65,,,
31185,control_change,15,0,8,,,,,,,,,11,11,65,,,
31185,control_change,15,0,2,,,,,,,,,1,11,62,,,
31186,control_change,15,0,3,,,,,,,,,2,11,62,,,
31188,control_change,15,0,4,,,,,,,,,3,11,62,,,
31191,control_change,16,0,7,,,,,,,,,10,11,67,,,
31200,set_tempo,60,1,0,,,,,,923077,,,,,,,,
31204,note_on,60,0,10,,,,,,,,,6,,,,48,0
31204,note_on,0,0,10,,,,,,,,,6,,,,55,31
31206,control_change,15,0,7,,,,,,,,,10,11,68,,,
31212,control_change,29,0,1,,,,,,,,,0,11,64,,,
31214,control_change,29,0,8,,,,,,,,,11,11,67,,,
31214,control_change,29,0,9,,,,,,,,,12,11,67,,,
31214,control_change,29,0,2,,,,,,,,,1,11,64,,,
31215,control_change,29,0,3,,,,,,,,,2,11,64,,,
31217,control_change,29,0,4,,,,,,,,,3,11,64,,,
31221,control_change,15,0,7,,,,,,,,,10,11,69,,,
31237,control_change,16,0,7,,,,,,,,,10,11,70,,,
31240,control_change,28,0,1,,,,,,,,,0,11,65,,,
31242,control_change,28,0,8,,,,,,,,,11,11,69,,,
31242,control_change,28,0,9,,,,,,,,,12,11,69,,,
31242,control_change,28,0,2,,,,,,,,,1,11,65,,,
31243,control_change,28,0,3,,,,,,,,,2,11,65,,,
31245,control_change,28,0,4,,,,,,,,,3,11,65,,,
31252,control_change,15,0,7,,,,,,,,,10,11,71,,,
31255,control_change,15,0,1,,,,,,,,,0,11,66,,,
31257,control_change,15,0,8,,,,,,,,,11,11,70,,,
31257,control_change,15,0,2,,,,,,,,,1,11,66,,,
31257,control_change,15,0,9,,,,,,,,,12,11,70,,,
31258,control_change,15,0,3,,,,,,,,,2,11,66,,,
31260,note_on,0,0,1,,,,,,,,,0,,,,76,96
31260,note_on,8,0,7,,,,,,,,,10,,,,72,0
31260,note_on,15,0,4,,,,,,,,,3,,,,58,0
31260,note_on,0,0,4,,,,,,,,,3,,,,55,0
31260,control_change,0,0,4,,,,,,,,,3,11,66,,,
31260,note_on,5,0,1,,,,,,,,,0,,,,72,0
31260,note_on,0,0,7,,,,,,,,,10,,,,76,103
31262,note_on,0,0,9,,,,,,,,,12,,,,55,101
31262,note_on,0,0,8,,,,,,,,,11,,,,64,103
31262,note_on,5,0,8,,,,,,,,,11,,,,60,0
31262,note_on,5,0,9,,,,,,,,,12,,,,60,0
31263,note_on,5,0,3,,,,,,,,,2,,,,60,96
31263,note_on,0,0,3,,,,,,,,,2,,,,67,96
31264,note_on,60,0,10,,,,,,,,,6,,,,55,0
31264,note_on,0,0,10,,,,,,,,,6,,,,58,31
31265,note_on,120,0,11,,,,,,,,,13,,,,48,0
31265,note_on,5,0,4,,,,,,,,,3,,,,58,95
31265,note_on,0,0,4,,,,,,,,,3,,,,55,95
31268,control_change,8,0,7,,,,,,,,,10,11,72,,,
31268,note_on,120,0,12,,,,,,,,,14,,,,36,0
31283,control_change,15,0,7,,,,,,,,,10,11,73,,,
31284,control_change,24,0,1,,,,,,,,,0,11,68,,,
31286,control_change,29,0,2,,,,,,,,,1,11,68,,,
31286,control_change,24,0,9,,,,,,,,,12,11,72,,,
31286,control_change,24,0,8,,,,,,,,,11,11,72,,,
31287,control_change,24,0,3,,,,,,,,,2,11,68,,,
31289,control_change,24,0,4,,,,,,,,,3,11,68,,,
31298,control_change,15,0,7,,,,,,,,,10,11,74,,,
31312,control_change,28,0,1,,,,,,,,,0,11,70,,,
31314,control_change,28,0,9,,,,,,,,,12,11,74,,,
31314,control_change,16,0,7,,,,,,,,,10,11,75,,,
31314,control_change,28,0,2,,,,,,,,,1,11,70,,,
31314,control_change,28,0,8,,,,,,,,,11,11,74,,,
31315,control_change,28,0,3,,,,,,,,,2,11,70,,,
31317,control_change,28,0,4,,,,,,,,,3,11,70,,,
31320,note_on,8,0,1,,,,,,,,,0,,,,76,0
31320,note_on,0,0,4,,,,,,,,,3,,,,58,0
31320,note_on,3,0,4,,,,,,,,,3,,,,55,0
31320,set_tempo,120,1,0,,,,,,991736,,,,,,,,
31320,note_on,0,0,1,,,,,,,,,0,,,,77,96
31320,note_on,0,0,7,,,,,,,,,10,,,,77,103
31320,note_on,6,0,7,,,,,,,,,10,,,,76,0
31322,note_on,0,0,2,,,,,,,,,1,,,,77,95
31322,note_on,8,0,2,,,,,,,,,1,,,,79,0
31322,note_on,8,0,8,,,,,,,,,11,,,,64,0
31322,note_on,0,0,8,,,,,,,,,11,,,,65,103
31322,note_on,0,0,9,,,,,,,,,12,,,,57,101
31322,note_on,8,0,9,,,,,,,,,12,,,,55,0
31323,note_on,0,0,3,,,,,,,,,2,,,,60,0
31323,note_on,8,0,3,,,,,,,,,2,,,,67,0
31324,note_on,60,0,10,,,,,,,,,6,,,,58,0
31324,note_on,0,0,10,,,,,,,,,6,,,,48,32
31325,note_on,60,0,11,,,,,,,,,13,,,,48,39
31325,note_on,0,0,4,,,,,,,,,3,,,,57,95
31325,note_on,5,0,4,,,,,,,,,3,,,,53,95
31327,control_change,7,0,1,,,,,,,,,0,11,70,,,
31328,note_on,60,0,12,,,,,,,,,14,,,,36,32
31329,control_change,7,0,9,,,,,,,,,12,11,75,,,
31329,control_change,7,0,2,,,,,,,,,1,11,70,,,
31329,control_change,7,0,8,,,,,,,,,11,11,75,,,
31329,control_change,9,0,7,,,,,,,,,10,11,76,,,
31330,control_change,7,0,3,,,,,,,,,2,11,70,,,
31332,control_change,7,0,4,,,,,,,,,3,11,70,,,
31345,control_change,16,0,7,,,,,,,,,10,11,77,,,
31356,control_change,29,0,1,,,,,,,,,0,11,72,,,
31358,control_change,29,0,9,,,,,,,,,12,11,77,,,
31358,control_change,29,0,8,,,,,,,,,11,11,77,,,
31358,control_change,29,0,2,,,,,,,,,1,11,72,,,
31359,control_change,29,0,3,,,,,,,,,2,11,72,,,
31360,control_change,15,0,7,,,,,,,,,10,11,78,,,
31361,control_change,29,0,4,,,,,,,,,3,11,72,,,
31375,control_change,15,0,7,,,,,,,,,10,11,79,,,
31380,set_tempo,60,1,0,,,,,,916031,,,,,,,,
31384,note_on,0,0,10,,,,,,,,,6,,,,53,33
31384,note_on,60,0,10,,,,,,,,,6,,,,48,0
31384,control_change,28,0,1,,,,,,,,,0,11,74,,,
31386,control_change,28,0,8,,,,,,,,,11,11,79,,,
31386,control_change,28,0,2,,,,,,,,,1,11,74,,,
31386,control_change,28,0,9,,,,,,,,,12,11,79,,,
31387,control_change,28,0,3,,,,,,,,,2,11,74,,,
31389,control_change,28,0,4,,,,,,,,,3,11,74,,,
31391,control_change,16,0,7,,,,,,,,,10,11,80,,,
31399,control_change,15,0,1,,,,,,,,,0,11,75,,,
31401,control_change,15,0,9,,,,,,,,,12,11,80,,,
31401,control_change,15,0,8,,,,,,,,,11,11,80,,,
31401,control_change,15,0,2,,,,,,,,,1,11,75,,,
31402,control_change,15,0,3,,,,,,,,,2,11,75,,,
31404,control_change,15,0,4,,,,,,,,,3,11,75,,,
31406,control_change,15,0,7,,,,,,,,,10,11,81,,,
31422,control_change,16,0,7,,,,,,,,,10,11,82,,,
31428,control_change,29,0,1,,,,,,,,,0,11,76,,,
31430,control_change,29,0,2,,,,,,,,,1,11,76,,,
31430,control_change,29,0,9,,,,,,,,,12,11,82,,,
31430,control_change,29,0,8,,,,,,,,,11,11,82,,,
31431,control_change,29,0,3,,,,,,,,,2,11,76,,,
31433,control_change,29,0,4,,,,,,,,,3,11,76,,,
31437,control_change,15,0,7,,,,,,,,,10,11,83,,,
31440,note_on,3,0,7,,,,,,,,,10,,,,77,0
31440,note_on,0,0,7,,,,,,,,,10,,,,81,103
31440,note_on,12,0,1,,,,,,,,,0,,,,77,0
31440,note_on,0,0,1,,,,,,,,,0,,,,81,96
31442,note_on,12,0,8,,,,,,,,,11,,,,65,0
31442,note_on,12,0,9,,,,,,,,,12,,,,57,0
31442,note_on,0,0,9,,,,,,,,,12,,,,53,101
31442,note_on,0,0,8,,,,,,,,,11,,,,69,103
31443,note_on,12,0,3,,,,,,,,,2,,,,65,96
31443,note_on,0,0,3,,,,,,,,,2,,,,60,96
31444,note_on,60,0,10,,,,,,,,,6,,,,53,0
31444,note_on,0,0,10,,,,,,,,,6,,,,57,35
31445,note_on,120,0,11,,,,,,,,,13,,,,48,0
31448,note_on,120,0,12,,,,,,,,,14,,,,36,0
31452,control_change,12,0,7,,,,,,,,,10,11,84,,,
31456,control_change,16,0,1,,,,,,,,,0,11,78,,,
31458,control_change,16,0,8,,,,,,,,,11,11,84,,,
31458,control_change,28,0,2,,,,,,,,,1,11,78,,,
31458,control_change,16,0,9,,,,,,,,,12,11,84,,,
31459,control_change,16,0,3,,,,,,,,,2,11,78,,,
31461,control_change,28,0,4,,,,,,,,,3,11,78,,,
31468,control_change,16,0,7,,,,,,,,,10,11,85,,,
31471,control_change,15,0,1,,,,,,,,,0,11,79,,,
31473,control_change,15,0,9,,,,,,,,,12,11,85,,,
31473,control_change,15,0,2,,,,,,,,,1,11,79,,,
31473,control_change,15,0,8,,,,,,,,,11,11,85,,,
31474,control_change,15,0,3,,,,,,,,,2,11,79,,,
31476,control_change,15,0,4,,,,,,,,,3,11,79,,,
31483,control_change,15,0,7,,,,,,,,,10,11,86,,,
31497,note_on,0,0,2,,,,,,,,,1,,,,72,0
31497,note_on,24,0,2,,,,,,,,,1,,,,77,0
31497,note_on,24,0,8,,,,,,,,,11,,,,69,0
31497,note_on,24,0,9,,,,,,,,,12,,,,53,0
31498,note_on,24,0,3,,,,,,,,,2,,,,60,0
31498,note_on,0,0,3,,,,,,,,,2,,,,65,0
31499,control_change,16,0,7,,,,,,,,,10,11,87,,,
31500,note_on,24,0,4,,,,,,,,,3,,,,57,0
31500,note_on,0,0,4,,,,,,,,,3,,,,53,0
31500,note_on,1,0,7,,,,,,,,,10,,,,81,0
31500,note_on,0,0,7,,,,,,,,,10,,,,84,103
31500,note_on,29,0,1,,,,,,,,,0,,,,81,0
31500,control_change,0,0,1,,,,,,,,,0,11,80,,,
31500,note_on,0,0,1,,,,,,,,,0,,,,84,96
31500,set_tempo,120,1,0,,,,,,991736,,,,,,,,
31502,note_on,0,0,8,,,,,,,,,11,,,,67,78
31502,note_on,0,0,9,,,,,,,,,12,,,,64,76
31502,note_on,0,0,2,,,,,,,,,1,,,,76,95
31502,control_change,5,0,9,,,,,,,,,12,11,87,,,
31502,note_on,0,0,2,,,,,,,,,1,,,,79,95
31502,control_change,5,0,8,,,,,,,,,11,11,87,,,
31502,control_change,5,0,2,,,,,,,,,1,11,80,,,
31503,control_change,3300,0,5,,,,,,,,,4,11,82,,,
31503,note_on,0,0,5,,,,,,,,,4,,,,60,82
31503,program_change,59,0,10,,,,,,,,42,6,,,,,
31503,note_on,0,0,3,,,,,,,,,2,,,,64,96
31503,note_on,0,0,3,,,,,,,,,2,,,,72,96
31503,control_change,5,0,3,,,,,,,,,2,11,80,,,
31504,note_on,0,0,10,,,,,,,,,6,,,,52,62
31504,note_on,1,0,10,,,,,,,,,6,,,,57,0
31504,control_change,0,0,10,,,,,,,,,6,11,87,,,
31504,note_on,0,0,10,,,,,,,,,6,,,,48,62
31505,note_on,0,0,6,,,,,,,,,5,,,,60,82
31505,control_change,0,0,4,,,,,,,,,3,11,80,,,
31505,note_on,0,0,4,,,,,,,,,3,,,,55,95
31505,note_on,5,0,4,,,,,,,,,3,,,,52,95
31505,control_change,3300,0,6,,,,,,,,,5,11,82,,,
31505,note_on,60,0,11,,,,,,,,,13,,,,48,43
31508,note_on,60,0,12,,,,,,,,,14,,,,36,36
31532,note_on,0,0,8,,,,,,,,,11,,,,64,78
31532,note_on,0,0,9,,,,,,,,,12,,,,60,76
31532,note_on,30,0,9,,,,,,,,,12,,,,64,0
31532,note_on,30,0,8,,,,,,,,,11,,,,67,0
31534,note_on,0,0,10,,,,,,,,,6,,,,52,0
31534,note_on,0,0,10,,,,,,,,,6,,,,55,62
31534,note_on,30,0,10,,,,,,,,,6,,,,48,0
31534,note_on,0,0,10,,,,,,,,,6,,,,52,62
31560,set_tempo,60,1,0,,,,,,909091,,,,,,,,
31562,note_on,0,0,9,,,,,,,,,12,,,,64,76
31562,note_on,30,0,9,,,,,,,,,12,,,,60,0
31562,note_on,30,0,8,,,,,,,,,11,,,,64,0
31562,note_on,0,0,8,,,,,,,,,11,,,,67,78
31564,note_on,0,0,10,,,,,,,,,6,,,,55,0
31564,note_on,0,0,10,,,,,,,,,6,,,,48,62
31564,note_on,0,0,10,,,,,,,,,6,,,,52,62
31564,note_on,30,0,10,,,,,,,,,6,,,,52,0
31592,note_on,0,0,9,,,,,,,,,12,,,,60,76
31592,note_on,30,0,8,,,,,,,,,11,,,,67,0
31592,note_on,0,0,8,,,,,,,,,11,,,,64,78
31592,note_on,30,0,9,,,,,,,,,12,,,,64,0
31594,note_on,0,0,10,,,,,,,,,6,,,,52,62
31594,note_on,0,0,10,,,,,,,,,6,,,,55,62
31594,note_on,0,0,10,,,,,,,,,6,,,,48,0
31594,note_on,30,0,10,,,,,,,,,6,,,,52,0
31617,note_on,115,0,2,,,,,,,,,1,,,,76,0
31617,note_on,0,0,2,,,,,,,,,1,,,,79,0
31618,note_on,115,0,3,,,,,,,,,2,,,,64,0
31618,note_on,0,0,3,,,,,,,,,2,,,,72,0
31618,note_on,115,0,5,,,,,,,,,4,,,,60,0
31620,note_on,115,0,6,,,,,,,,,5,,,,60,0
31620,note_on,120,0,1,,,,,,,,,0,,,,84,0
31620,note_on,0,0,4,,,,,,,,,3,,,,52,0
31620,note_on,120,0,7,,,,,,,,,10,,,,84,0
31620,note_on,0,0,7,,,,,,,,,10,,,,79,103
31620,note_on,0,0,1,,,,,,,,,0,,,,79,96
31620,note_on,115,0,4,,,,,,,,,3,,,,55,0
31622,note_on,0,0,9,,,,,,,,,12,,,,64,76
31622,note_on,30,0,9,,,,,,,,,12,,,,60,0
31622,note_on,0,0,8,,,,,,,,,11,,,,67,78
31622,note_on,5,0,2,,,,,,,,,1,,,,79,95
31622,note_on,0,0,2,,,,,,,,,1,,,,76,95
31622,note_on,30,0,8,,,,,,,,,11,,,,64,0
31623,note_on,5,0,5,,,,,,,,,4,,,,60,82
31623,note_on,0,0,3,,,,,,,,,2,,,,67,96
31623,note_on,5,0,3,,,,,,,,,2,,,,64,96
31624,note_on,0,0,10,,,,,,,,,6,,,,52,62
31624,note_on,30,0,10,,,,,,,,,6,,,,52,0
31624,note_on,0,0,10,,,,,,,,,6,,,,48,62
31624,note_on,0,0,10,,,,,,,,,6,,,,55,0
31625,note_on,0,0,4,,,,,,,,,3,,,,55,95
31625,note_on,5,0,6,,,,,,,,,5,,,,60,82
31625,note_on,120,0,11,,,,,,,,,13,,,,48,0
31625,note_on,5,0,4,,,,,,,,,3,,,,52,95
31628,note_on,120,0,12,,,,,,,,,14,,,,36,0
31652,note_on,30,0,8,,,,,,,,,11,,,,67,0
31652,note_on,30,0,9,,,,,,,,,12,,,,64,0
31652,note_on,0,0,8,,,,,,,,,11,,,,64,78
31652,note_on,0,0,9,,,,,,,,,12,,,,60,76
31654,note_on,0,0,10,,,,,,,,,6,,,,52,62
31654,note_on,0,0,10,,,,,,,,,6,,,,55,62
31654,note_on,30,0,10,,,,,,,,,6,,,,52,0
31654,note_on,0,0,10,,,,,,,,,6,,,,48,0
31675,note_on,55,0,7,,,,,,,,,10,,,,79,0
31675,note_on,55,0,1,,,,,,,,,0,,,,79,0
31677,note_on,25,0,9,,,,,,,,,12,,,,60,0
31677,note_on,25,0,8,,,,,,,,,11,,,,64,0
31678,note_on,55,0,5,,,,,,,,,4,,,,60,0
31679,note_on,0,0,10,,,,,,,,,6,,,,55,0
31679,note_on,25,0,10,,,,,,,,,6,,,,52,0
31680,note_on,55,0,6,,,,,,,,,5,,,,60,0
31680,note_on,5,0,7,,,,,,,,,10,,,,81,103
31680,set_tempo,120,1,0,,,,,,1000000,,,,,,,,
31680,note_on,5,0,1,,,,,,,,,0,,,,81,96
31682,note_on,0,0,2,,,,,,,,,1,,,,81,95
31682,note_on,0,0,2,,,,,,,,,1,,,,79,0
31682,note_on,60,0,2,,,,,,,,,1,,,,76,0
31682,note_on,5,0,9,,,,,,,,,12,,,,65,76
31682,note_on,0,0,2,,,,,,,,,1,,,,77,95
31682,note_on,5,0,8,,,,,,,,,11,,,,69,78
31683,note_on,0,0,3,,,,,,,,,2,,,,65,96
31683,note_on,0,0,3,,,,,,,,,2,,,,69,96
31683,note_on,0,0,3,,,,,,,,,2,,,,64,0
31683,note_on,5,0,5,,,,,,,,,4,,,,60,82
31683,note_on,60,0,3,,,,,,,,,2,,,,67,0
31684,program_change,59,0,11,,,,,,,,48,13,,,,,
31684,note_on,5,0,10,,,,,,,,,6,,,,48,62
31684,note_on,0,0,10,,,,,,,,,6,,,,53,62
31685,note_on,0,0,11,,,,,,,,,13,,,,48,100
31685,control_change,1,0,11,,,,,,,,,13,11,87,,,
31685,note_on,5,0,6,,,,,,,,,5,,,,60,82
31685,note_on,60,0,4,,,,,,,,,3,,,,55,0
31685,note_on,0,0,4,,,,,,,,,3,,,,57,95
31685,note_on,0,0,4,,,,,,,,,3,,,,52,0
31685,note_on,0,0,4,,,,,,,,,3,,,,53,95
31687,program_change,59,0,12,,,,,,,,48,14,,,,,
31688,control_change,1,0,12,,,,,,,,,14,11,87,,,
31688,note_on,0,0,12,,,,,,,,,14,,,,36,96
31712,note_on,0,0,8,,,,,,,,,11,,,,65,78
31712,note_on,30,0,8,,,,,,,,,11,,,,69,0
31712,note_on,0,0,9,,,,,,,,,12,,,,60,76
31712,note_on,30,0,9,,,,,,,,,12,,,,65,0
31714,note_on,0,0,10,,,,,,,,,6,,,,53,62
31714,note_on,0,0,10,,,,,,,,,6,,,,48,0
31714,note_on,30,0,10,,,,,,,,,6,,,,53,0
31714,note_on,0,0,10,,,,,,,,,6,,,,57,62
31740,note_on,55,0,11,,,,,,,,,13,,,,48,0
31740,set_tempo,60,1,0,,,,,,909091,,,,,,,,
31742,note_on,0,0,9,,,,,,,,,12,,,,65,76
31742,note_on,0,0,8,,,,,,,,,11,,,,69,78
31742,note_on,30,0,8,,,,,,,,,11,,,,65,0
31742,note_on,30,0,9,,,,,,,,,12,,,,60,0
31743,note_on,55,0,12,,,,,,,,,14,,,,36,0
31744,note_on,30,0,10,,,,,,,,,6,,,,53,0
31744,note_on,0,0,10,,,,,,,,,6,,,,57,0
31744,note_on,0,0,10,,,,,,,,,6,,,,53,62
31744,note_on,0,0,10,,,,,,,,,6,,,,48,62
31745,note_on,5,0,11,,,,,,,,,13,,,,48,100
31748,note_on,5,0,12,,,,,,,,,14,,,,36,96
31772,note_on,0,0,8,,,,,,,,,11,,,,65,78
31772,note_on,30,0,8,,,,,,,,,11,,,,69,0
31772,note_on,30,0,9,,,,,,,,,12,,,,65,0
31772,note_on,0,0,9,,,,,,,,,12,,,,60,76
31774,note_on,0,0,10,,,,,,,,,6,,,,53,0
31774,note_on,0,0,10,,,,,,,,,6,,,,53,62
31774,note_on,0,0,10,,,,,,,,,6,,,,57,62
31774,note_on,30,0,10,,,,,,,,,6,,,,48,0
31798,note_on,0,0,3,,,,,,,,,2,,,,69,0
31798,note_on,115,0,3,,,,,,,,,2,,,,65,0
31800,note_on,55,0,11,,,,,,,,,13,,,,48,0
31800,note_on,0,0,1,,,,,,,,,0,,,,77,96
31800,note_on,0,0,7,,,,,,,,,10,,,,77,103
31800,note_on,120,0,7,,,,,,,,,10,,,,81,0
31800,note_on,120,0,1,,,,,,,,,0,,,,81,0
31800,note_on,115,0,4,,,,,,,,,3,,,,57,0
31800,note_on,0,0,4,,,,,,,,,3,,,,53,0
31802,note_on,30,0,9,,,,,,,,,12,,,,60,0
31802,note_on,0,0,8,,,,,,,,,11,,,,69,78
31802,note_on,30,0,8,,,,,,,,,11,,,,65,0
31802,note_on,0,0,9,,,,,,,,,12,,,,65,76
31803,note_on,5,0,3,,,,,,,,,2,,,,65,96
31803,note_on,55,0,12,,,,,,,,,14,,,,36,0
31804,note_on,0,0,10,,,,,,,,,6,,,,57,0
31804,note_on,0,0,10,,,,,,,,,6,,,,48,62
31804,note_on,0,0,10,,,,,,,,,6,,,,53,62
31804,note_on,30,0,10,,,,,,,,,6,,,,53,0
31805,note_on,5,0,11,,,,,,,,,13,,,,48,100
31805,note_on,5,0,4,,,,,,,,,3,,,,53,95
31808,note_on,5,0,12,,,,,,,,,14,,,,36,96
31832,note_on,0,0,8,,,,,,,,,11,,,,65,78
31832,note_on,30,0,9,,,,,,,,,12,,,,65,0
31832,note_on,30,0,8,,,,,,,,,11,,,,69,0
31832,note_on,0,0,9,,,,,,,,,12,,,,60,76
31834,note_on,0,0,10,,,,,,,,,6,,,,53,62
31834,note_on,0,0,10,,,,,,,,,6,,,,48,0
31834,note_on,0,0,10,,,,,,,,,6,,,,57,62
31834,note_on,30,0,10,,,,,,,,,6,,,,53,0
31860,set_tempo,120,1,0,,,,,,975610,,,,,,,,
31860,note_on,0,0,1,,,,,,,,,0,,,,72,96
31860,note_on,60,0,1,,,,,,,,,0,,,,77,0
31860,note_on,55,0,11,,,,,,,,,13,,,,48,0
31860,note_on,0,0,7,,,,,,,,,10,,,,72,103
31860,note_on,60,0,7,,,,,,,,,10,,,,77,0
31862,note_on,0,0,9,,,,,,,,,12,,,,65,76
31862,note_on,30,0,9,,,,,,,,,12,,,,60,0
31862,note_on,30,0,8,,,,,,,,,11,,,,65,0
31862,note_on,0,0,8,,,,,,,,,11,,,,69,78
31863,note_on,60,0,3,,,,,,,,,2,,,,65,0
31863,note_on,55,0,12,,,,,,,,,14,,,,36,0
31863,note_on,0,0,3,,,,,,,,,2,,,,60,96
31864,note_on,0,0,10,,,,,,,,,6,,,,53,62
31864,note_on,0,0,10,,,,,,,,,6,,,,48,62
31864,note_on,0,0,10,,,,,,,,,6,,,,57,0
31864,note_on,30,0,10,,,,,,,,,6,,,,53,0
31865,note_on,60,0,4,,,,,,,,,3,,,,53,0
31865,note_on,5,0,11,,,,,,,,,13,,,,48,100
31865,note_on,0,0,4,,,,,,,,,3,,,,48,95
31868,note_on,5,0,12,,,,,,,,,14,,,,36,96
31892,note_on,30,0,8,,,,,,,,,11,,,,69,0
31892,note_on,0,0,8,,,,,,,,,11,,,,65,78
31892,note_on,30,0,9,,,,,,,,,12,,,,65,0
31892,note_on,0,0,9,,,,,,,,,12,,,,60,76
31894,note_on,30,0,10,,,,,,,,,6,,,,53,0
31894,note_on,0,0,10,,,,,,,,,6,,,,48,0
31894,note_on,0,0,10,,,,,,,,,6,,,,53,62
31894,note_on,0,0,10,,,,,,,,,6,,,,57,62
31920,note_on,0,0,7,,,,,,,,,10,,,,77,103
31920,note_on,60,0,7,,,,,,,,,10,,,,72,0
31920,set_tempo,60,1,0,,,,,,902256,,,,,,,,
31920,note_on,55,0,11,,,,,,,,,13,,,,48,0
31920,note_on,0,0,1,,,,,,,,,0,,,,77,96
31920,note_on,60,0,1,,,,,,,,,0,,,,72,0
31922,note_on,30,0,9,,,,,,,,,12,,,,60,0
31922,note_on,0,0,9,,,,,,,,,12,,,,65,76
31922,note_on,0,0,8,,,,,,,,,11,,,,69,78
31922,note_on,30,0,8,,,,,,,,,11,,,,65,0
31923,note_on,60,0,3,,,,,,,,,2,,,,60,0
31923,note_on,0,0,3,,,,,,,,,2,,,,65,96
31923,note_on,55,0,12,,,,,,,,,14,,,,36,0
31924,note_on,0,0,10,,,,,,,,,6,,,,53,62
31924,note_on,0,0,10,,,,,,,,,6,,,,53,0
31924,note_on,0,0,10,,,,,,,,,6,,,,48,62
31924,note_on,30,0,10,,,,,,,,,6,,,,57,0
31925,note_on,5,0,11,,,,,,,,,13,,,,48,100
31925,note_on,60,0,4,,,,,,,,,3,,,,48,0
31925,note_on,0,0,4,,,,,,,,,3,,,,53,95
31928,note_on,5,0,12,,,,,,,,,14,,,,36,96
31952,note_on,30,0,8,,,,,,,,,11,,,,69,0
31952,note_on,0,0,8,,,,,,,,,11,,,,65,78
31952,note_on,0,0,9,,,,,,,,,12,,,,60,76
31952,note_on,30,0,9,,,,,,,,,12,,,,65,0
31954,note_on,30,0,10,,,,,,,,,6,,,,48,0
31954,note_on,0,0,10,,,,,,,,,6,,,,53,0
31954,note_on,0,0,10,,,,,,,,,6,,,,53,62
31954,note_on,0,0,10,,,,,,,,,6,,,,57,62
31980,note_on,60,0,7,,,,,,,,,10,,,,77,0
31980,note_on,0,0,7,,,,,,,,,10,,,,81,103
31980,note_on,0,0,1,,,,,,,,,0,,,,81,96
31980,note_on,55,0,11,,,,,,,,,13,,,,48,0
31980,note_on,60,0,1,,,,,,,,,0,,,,77,0
31982,note_on,30,0,8,,,,,,,,,11,,,,65,0
31982,note_on,30,0,9,,,,,,,,,12,,,,60,0
31982,note_on,0,0,8,,,,,,,,,11,,,,69,78
31982,note_on,0,0,9,,,,,,,,,12,,,,65,76
31983,note_on,60,0,3,,,,,,,,,2,,,,65,0
31983,note_on,0,0,3,,,,,,,,,2,,,,69,96
31983,note_on,55,0,12,,,,,,,,,14,,,,36,0
31984,note_on,0,0,10,,,,,,,,,6,,,,48,62
31984,note_on,30,0,10,,,,,,,,,6,,,,57,0
31984,note_on,0,0,10,,,,,,,,,6,,,,53,0
31984,note_on,0,0,10,,,,,,,,,6,,,,53,62
31985,note_on,60,0,4,,,,,,,,,3,,,,53,0
31985,note_on,0,0,4,,,,,,,,,3,,,,57,95
31985,note_on,5,0,11,,,,,,,,,13,,,,48,100
31988,note_on,5,0,12,,,,,,,,,14,,,,36,96
32012,note_on,0,0,8,,,,,,,,,11,,,,65,78
32012,note_on,30,0,9,,,,,,,,,12,,,,65,0
32012,note_on,0,0,9,,,,,,,,,12,,,,60,76
32012,note_on,30,0,8,,,,,,,,,11,,,,69,0
32014,note_on,0,0,10,,,,,,,,,6,,,,57,62
32014,note_on,0,0,10,,,,,,,,,6,,,,53,0
32014,note_on,0,0,10,,,,,,,,,6,,,,53,62
32014,note_on,30,0,10,,,,,,,,,6,,,,48,0
32035,note_on,55,0,7,,,,,,,,,10,,,,81,0
32035,note_on,55,0,1,,,,,,,,,0,,,,81,0
32037,note_on,355,0,2,,,,,,,,,1,,,,81,0
32037,note_on,25,0,8,,,,,,,,,11,,,,65,0
32037,note_on,25,0,9,,,,,,,,,12,,,,60,0
32037,note_on,0,0,2,,,,,,,,,1,,,,77,0
32038,note_on,55,0,3,,,,,,,,,2,,,,69,0
32039,note_on,25,0,10,,,,,,,,,6,,,,53,0
32039,note_on,0,0,10,,,,,,,,,6,,,,57,0
32040,note_on,55,0,4,,,,,,,,,3,,,,57,0
32040,set_tempo,120,1,0,,,,,,983607,,,,,,,,
32040,note_on,55,0,11,,,,,,,,,13,,,,48,0
32040,note_on,5,0,7,,,,,,,,,10,,,,84,103
32040,note_on,5,0,1,,,,,,,,,0,,,,84,96
32042,note_on,5,0,8,,,,,,,,,11,,,,72,78
32042,note_on,5,0,9,,,,,,,,,12,,,,69,76
32042,note_on,5,0,2,,,,,,,,,1,,,,72,95
32043,note_on,5,0,3,,,,,,,,,2,,,,72,96
32043,note_on,55,0,12,,,,,,,,,14,,,,36,0
32044,note_on,0,0,10,,,,,,,,,6,,,,53,62
32044,note_on,5,0,10,,,,,,,,,6,,,,48,62
32045,note_on,5,0,11,,,,,,,,,13,,,,48,100
32045,note_on,5,0,4,,,,,,,,,3,,,,60,95
32048,note_on,5,0,12,,,,,,,,,14,,,,36,96
32072,note_on,30,0,8,,,,,,,,,11,,,,72,0
32072,note_on,0,0,8,,,,,,,,,11,,,,69,78
32072,note_on,0,0,9,,,,,,,,,12,,,,65,76
32072,note_on,30,0,9,,,,,,,,,12,,,,69,0
32074,note_on,0,0,10,,,,,,,,,6,,,,53,62
32074,note_on,30,0,10,,,,,,,,,6,,,,53,0
32074,note_on,0,0,10,,,,,,,,,6,,,,48,0
32074,note_on,0,0,10,,,,,,,,,6,,,,57,62
32100,note_on,55,0,11,,,,,,,,,13,,,,48,0
32100,set_tempo,60,1,0,,,,,,895522,,,,,,,,
32102,note_on,0,0,8,,,,,,,,,11,,,,72,78
32102,note_on,0,0,9,,,,,,,,,12,,,,69,76
32102,note_on,30,0,9,,,,,,,,,12,,,,65,0
32102,note_on,30,0,8,,,,,,,,,11,,,,69,0
32103,note_on,55,0,12,,,,,,,,,14,,,,36,0
32104,note_on,30,0,10,,,,,,,,,6,,,,53,0
32104,note_on,0,0,10,,,,,,,,,6,,,,53,62
32104,note_on,0,0,10,,,,,,,,,6,,,,57,0
32104,note_on,0,0,10,,,,,,,,,6,,,,48,62
32105,note_on,5,0,11,,,,,,,,,13,,,,48,100
32108,note_on,5,0,12,,,,,,,,,14,,,,36,96
32132,note_on,0,0,9,,,,,,,,,12,,,,65,76
32132,note_on,30,0,8,,,,,,,,,11,,,,72,0
32132,note_on,30,0,9,,,,,,,,,12,,,,69,0
32132,note_on,0,0,8,,,,,,,,,11,,,,69,78
32134,note_on,30,0,10,,,,,,,,,6,,,,53,0
32134,note_on,0,0,10,,,,,,,,,6,,,,48,0
32134,note_on,0,0,10,,,,,,,,,6,,,,57,62
32134,note_on,0,0,10,,,,,,,,,6,,,,53,62
32160,note_on,120,0,1,,,,,,,,,0,,,,84,0
32160,note_on,0,0,7,,,,,,,,,10,,,,81,103
32160,note_on,120,0,7,,,,,,,,,10,,,,84,0
32160,note_on,0,0,1,,,,,,,,,0,,,,81,96
32160,note_on,55,0,11,,,,,,,,,13,,,,48,0
32162,note_on,30,0,9,,,,,,,,,12,,,,65,0
32162,note_on,0,0,9,,,,,,,,,12,,,,69,76
32162,note_on,30,0,8,,,,,,,,,11,,,,69,0
32162,note_on,0,0,8,,,,,,,,,11,,,,72,78
32162,note_on,0,0,2,,,,,,,,,1,,,,69,95
32162,note_on,120,0,2,,,,,,,,,1,,,,72,0
32163,note_on,0,0,3,,,,,,,,,2,,,,69,96
32163,note_on,120,0,3,,,,,,,,,2,,,,72,0
32163,note_on,55,0,12,,,,,,,,,14,,,,36,0
32164,note_on,30,0,10,,,,,,,,,6,,,,53,0
32164,note_on,0,0,10,,,,,,,,,6,,,,57,0
32164,note_on,0,0,10,,,,,,,,,6,,,,53,62
32164,note_on,0,0,10,,,,,,,,,6,,,,48,62
32165,note_on,5,0,11,,,,,,,,,13,,,,48,100
32165,note_on,0,0,4,,,,,,,,,3,,,,57,95
32165,note_on,120,0,4,,,,,,,,,3,,,,60,0
32168,note_on,5,0,12,,,,,,,,,14,,,,36,96
32192,note_on,0,0,9,,,,,,,,,12,,,,65,76
32192,note_on,30,0,9,,,,,,,,,12,,,,69,0
32192,note_on,0,0,8,,,,,,,,,11,,,,69,78
32192,note_on,30,0,8,,,,,,,,,11,,,,72,0
32194,note_on,30,0,10,,,,,,,,,6,,,,53,0
32194,note_on,0,0,10,,,,,,,,,6,,,,48,0
32194,note_on,0,0,10,,,,,,,,,6,,,,57,62
32194,note_on,0,0,10,,,,,,,,,6,,,,53,62
32220,note_on,0,0,1,,,,,,,,,0,,,,77,96
32220,note_on,60,0,7,,,,,,,,,10,,,,81,0
32220,note_on,55,0,11,,,,,,,,,13,,,,48,0
32220,note_on,60,0,1,,,,,,,,,0,,,,81,0
32220,set_tempo,120,1,0,,,,,,983607,,,,,,,,
32220,note_on,0,0,7,,,,,,,,,10,,,,77,103
32222,note_on,0,0,8,,,,,,,,,11,,,,72,78
32222,note_on,0,0,2,,,,,,,,,1,,,,65,95
32222,note_on,60,0,2,,,,,,,,,1,,,,69,0
32222,note_on,0,0,9,,,,,,,,,12,,,,69,76
32222,note_on,30,0,9,,,,,,,,,12,,,,65,0
32222,note_on,30,0,8,,,,,,,,,11,,,,69,0
32223,note_on,55,0,12,,,,,,,,,14,,,,36,0
32223,note_on,0,0,3,,,,,,,,,2,,,,65,96
32223,note_on,60,0,3,,,,,,,,,2,,,,69,0
32224,note_on,0,0,10,,,,,,,,,6,,,,57,0
32224,note_on,0,0,10,,,,,,,,,6,,,,53,62
32224,note_on,30,0,10,,,,,,,,,6,,,,53,0
32224,note_on,0,0,10,,,,,,,,,6,,,,48,62
32225,note_on,5,0,11,,,,,,,,,13,,,,48,100
32225,note_on,0,0,4,,,,,,,,,3,,,,53,95
32225,note_on,60,0,4,,,,,,,,,3,,,,57,0
32228,note_on,5,0,12,,,,,,,,,14,,,,36,96
32252,note_on,30,0,8,,,,,,,,,11,,,,72,0
32252,note_on,30,0,9,,,,,,,,,12,,,,69,0
32252,note_on,0,0,9,,,,,,,,,12,,,,65,76
32252,note_on,0,0,8,,,,,,,,,11,,,,69,78
32254,note_on,30,0,10,,,,,,,,,6,,,,48,0
32254,note_on,0,0,10,,,,,,,,,6,,,,57,62
32254,note_on,0,0,10,,,,,,,,,6,,,,53,62
32254,note_on,0,0,10,,,,,,,,,6,,,,53,0
32280,set_tempo,60,1,0,,,,,,895522,,,,,,,,
32280,note_on,0,0,1,,,,,,,,,0,,,,81,96
32280,note_on,60,0,1,,,,,,,,,0,,,,77,0
32280,note_on,60,0,7,,,,,,,,,10,,,,77,0
32280,note_on,55,0,11,,,,,,,,,13,,,,48,0
32280,note_on,0,0,7,,,,,,,,,10,,,,81,103
32282,note_on,30,0,8,,,,,,,,,11,,,,69,0
32282,note_on,0,0,8,,,,,,,,,11,,,,72,78
32282,note_on,0,0,9,,,,,,,,,12,,,,69,76
32282,note_on,0,0,2,,,,,,,,,1,,,,69,95
32282,note_on,60,0,2,,,,,,,,,1,,,,65,0
32282,note_on,30,0,9,,,,,,,,,12,,,,65,0
32283,note_on,55,0,12,,,,,,,,,14,,,,36,0
32283,note_on,0,0,3,,,,,,,,,2,,,,69,96
32283,note_on,60,0,3,,,,,,,,,2,,,,65,0
32284,note_on,0,0,10,,,,,,,,,6,,,,48,62
32284,note_on,30,0,10,,,,,,,,,6,,,,53,0
32284,note_on,0,0,10,,,,,,,,,6,,,,57,0
32284,note_on,0,0,10,,,,,,,,,6,,,,53,62
32285,note_on,5,0,11,,,,,,,,,13,,,,48,100
32285,note_on,0,0,4,,,,,,,,,3,,,,57,95
32285,note_on,60,0,4,,,,,,,,,3,,,,53,0
32288,note_on,5,0,12,,,,,,,,,14,,,,36,96
32312,note_on,0,0,9,,,,,,,,,12,,,,65,76
32312,note_on,30,0,9,,,,,,,,,12,,,,69,0
32312,note_on,0,0,8,,,,,,,,,11,,,,69,78
32312,note_on,30,0,8,,,,,,,,,11,,,,72,0
32314,note_on,0,0,10,,,,,,,,,6,,,,53,62
32314,note_on,30,0,10,,,,,,,,,6,,,,48,0
32314,note_on,0,0,10,,,,,,,,,6,,,,53,0
32314,note_on,0,0,10,,,,,,,,,6,,,,57,62
32340,note_on,60,0,7,,,,,,,,,10,,,,81,0
32340,note_on,0,0,7,,,,,,,,,10,,,,84,103
32340,note_on,0,0,1,,,,,,,,,0,,,,84,96
32340,note_on,60,0,1,,,,,,,,,0,,,,81,0
32340,note_on,55,0,11,,,,,,,,,13,,,,48,0
32342,note_on,30,0,8,,,,,,,,,11,,,,69,0
32342,note_on,0,0,9,,,,,,,,,12,,,,69,76
32342,note_on,30,0,9,,,,,,,,,12,,,,65,0
32342,note_on,60,0,2,,,,,,,,,1,,,,69,0
32342,note_on,0,0,2,,,,,,,,,1,,,,72,95
32342,note_on,0,0,8,,,,,,,,,11,,,,72,78
32343,note_on,0,0,3,,,,,,,,,2,,,,72,96
32343,note_on,60,0,3,,,,,,,,,2,,,,69,0
32343,note_on,55,0,12,,,,,,,,,14,,,,36,0
32344,note_on,0,0,10,,,,,,,,,6,,,,53,62
32344,note_on,0,0,10,,,,,,,,,6,,,,48,62
32344,note_on,0,0,10,,,,,,,,,6,,,,57,0
32344,note_on,30,0,10,,,,,,,,,6,,,,53,0
32345,note_on,5,0,11,,,,,,,,,13,,,,48,100
32345,note_on,0,0,4,,,,,,,,,3,,,,60,95
32345,note_on,60,0,4,,,,,,,,,3,,,,57,0
32348,note_on,5,0,12,,,,,,,,,14,,,,36,96
32372,note_on,0,0,9,,,,,,,,,12,,,,65,76
32372,note_on,0,0,8,,,,,,,,,11,,,,69,78
32372,note_on,30,0,9,,,,,,,,,12,,,,69,0
32372,note_on,30,0,8,,,,,,,,,11,,,,72,0
32374,note_on,0,0,10,,,,,,,,,6,,,,53,62
32374,note_on,0,0,10,,,,,,,,,6,,,,48,0
32374,note_on,30,0,10,,,,,,,,,6,,,,53,0
32374,note_on,0,0,10,,,,,,,,,6,,,,57,62
32395,note_on,55,0,1,,,,,,,,,0,,,,84,0
32395,note_on,55,0,7,,,,,,,,,10,,,,84,0
32397,note_on,25,0,9,,,,,,,,,12,,,,65,0
32397,note_on,25,0,8,,,,,,,,,11,,,,69,0
32397,note_on,55,0,2,,,,,,,,,1,,,,72,0
32398,note_on,55,0,3,,,,,,,,,2,,,,72,0
32398,note_on,715,0,5,,,,,,,,,4,,,,60,0
32399,note_on,0,0,10,,,,,,,,,6,,,,57,0
32399,note_on,25,0,10,,,,,,,,,6,,,,53,0
32400,note_on,55,0,11,,,,,,,,,13,,,,48,0
32400,set_tempo,120,1,0,,,,,,1000000,,,,,,,,
32400,note_on,715,0,6,,,,,,,,,5,,,,60,0
32400,note_on,55,0,4,,,,,,,,,3,,,,60,0
32400,control_change,5,0,7,,,,,,,,,10,11,87,,,
32400,note_on,0,0,7,,,,,,,,,10,,,,89,111
32402,note_on,0,0,9,,,,,,,,,12,,,,69,76
32402,note_on,0,0,2,,,,,,,,,1,,,,77,95
32402,note_on,0,0,2,,,,,,,,,1,,,,69,95
32402,control_change,5,0,2,,,,,,,,,1,11,89,,,
32402,control_change,5,0,9,,,,,,,,,12,11,87,,,
32402,control_change,5,0,8,,,,,,,,,11,11,87,,,
32402,note_on,0,0,8,,,,,,,,,11,,,,77,78
32403,note_on,0,0,3,,,,,,,,,2,,,,77,88
32403,note_on,55,0,12,,,,,,,,,14,,,,36,0
32403,note_on,5,0,3,,,,,,,,,2,,,,69,88
32403,control_change,5,0,5,,,,,,,,,4,11,92,,,
32403,note_on,0,0,5,,,,,,,,,4,,,,60,82
32403,control_change,0,0,3,,,,,,,,,2,11,89,,,
32404,note_on,0,0,10,,,,,,,,,6,,,,53,62
32404,note_on,0,0,10,,,,,,,,,6,,,,48,62
32404,control_change,5,0,10,,,,,,,,,6,11,87,,,
32405,control_change,5,0,11,,,,,,,,,13,11,87,,,
32405,note_on,0,0,11,,,,,,,,,13,,,,48,100
32405,control_change,5,0,6,,,,,,,,,5,11,92,,,
32405,note_on,0,0,6,,,,,,,,,5,,,,60,82
32405,note_on,0,0,4,,,,,,,,,3,,,,48,95
32405,control_change,0,0,4,,,,,,,,,3,11,89,,,
32405,note_on,5,0,4,,,,,,,,,3,,,,65,87
32407,control_change,7,0,7,,,,,,,,,10,11,90,,,
32408,note_on,0,0,12,,,,,,,,,14,,,,36,96
32408,control_change,5,0,12,,,,,,,,,14,11,87,,,
32409,control_change,7,0,9,,,,,,,,,12,11,90,,,
32409,control_change,7,0,8,,,,,,,,,11,11,90,,,
32411,control_change,7,0,10,,,,,,,,,6,11,90,,,
32412,control_change,7,0,11,,,,,,,,,13,11,90,,,
32414,control_change,7,0,7,,,,,,,,,10,11,93,,,
32415,control_change,7,0,12,,,,,,,,,14,11,90,,,
32416,control_change,7,0,8,,,,,,,,,11,11,93,,,
32416,control_change,7,0,9,,,,,,,,,12,11,93,,,
32418,control_change,7,0,10,,,,,,,,,6,11,93,,,
32419,control_change,7,0,11,,,,,,,,,13,11,93,,,
32421,control_change,7,0,7,,,,,,,,,10,11,96,,,
32422,control_change,7,0,12,,,,,,,,,14,11,93,,,
32423,control_change,7,0,8,,,,,,,,,11,11,96,,,
32423,control_change,21,0,2,,,,,,,,,1,11,86,,,
32423,control_change,7,0,9,,,,,,,,,12,11,96,,,
32424,control_change,21,0,5,,,,,,,,,4,11,89,,,
32424,control_change,21,0,3,,,,,,,,,2,11,86,,,
32425,control_change,7,0,10,,,,,,,,,6,11,96,,,
32426,control_change,21,0,4,,,,,,,,,3,11,86,,,
32426,control_change,7,0,11,,,,,,,,,13,11,96,,,
32426,control_change,21,0,6,,,,,,,,,5,11,89,,,
32428,control_change,7,0,7,,,,,,,,,10,11,99,,,
32429,control_change,7,0,12,,,,,,,,,14,11,96,,,
32430,control_change,7,0,9,,,,,,,,,12,11,99,,,
32430,control_change,7,0,8,,,,,,,,,11,11,99,,,
32432,note_on,0,0,8,,,,,,,,,11,,,,69,78
32432,note_on,2,0,8,,,,,,,,,11,,,,77,0
32432,control_change,7,0,10,,,,,,,,,6,11,99,,,
32432,note_on,0,0,9,,,,,,,,,12,,,,65,76
32432,note_on,2,0,9,,,,,,,,,12,,,,69,0
32433,control_change,7,0,11,,,,,,,,,13,11,99,,,
32434,note_on,2,0,10,,,,,,,,,6,,,,53,0
32434,note_on,0,0,10,,,,,,,,,6,,,,48,0
32434,note_on,0,0,10,,,,,,,,,6,,,,57,62
32434,note_on,0,0,10,,,,,,,,,6,,,,53,62
32435,control_change,7,0,7,,,,,,,,,10,11,102,,,
32436,control_change,7,0,12,,,,,,,,,14,11,99,,,
32437,control_change,5,0,9,,,,,,,,,12,11,102,,,
32437,control_change,5,0,8,,,,,,,,,11,11,102,,,
32438,control_change,15,0,2,,,,,,,,,1,11,85,,,
32439,control_change,5,0,10,,,,,,,,,6,11,102,,,
32439,control_change,15,0,3,,,,,,,,,2,11,85,,,
32439,control_change,15,0,5,,,,,,,,,4,11,87,,,
32440,control_change,7,0,11,,,,,,,,,13,11,102,,,
32441,control_change,15,0,4,,,,,,,,,3,11,85,,,
32441,control_change,15,0,6,,,,,,,,,5,11,87,,,
32443,control_change,7,0,12,,,,,,,,,14,11,102,,,
32451,control_change,16,0,7,,,,,,,,,10,11,101,,,
32453,control_change,16,0,8,,,,,,,,,11,11,101,,,
32453,control_change,16,0,9,,,,,,,,,12,11,101,,,
32455,control_change,16,0,10,,,,,,,,,6,11,101,,,
32456,control_change,16,0,11,,,,,,,,,13,11,101,,,
32457,note_on,0,0,2,,,,,,,,,1,,,,69,0
32457,note_on,19,0,2,,,,,,,,,1,,,,77,0
32458,note_on,19,0,5,,,,,,,,,4,,,,60,0
32459,control_change,2,0,2,,,,,,,,,1,11,82,,,
32459,control_change,16,0,12,,,,,,,,,14,11,101,,,
32460,note_on,19,0,6,,,,,,,,,5,,,,60,0
32460,control_change,21,0,3,,,,,,,,,2,11,82,,,
32460,set_tempo,60,1,0,,,,,,888889,,,,,,,,
32460,note_on,19,0,4,,,,,,,,,3,,,,48,0
32460,control_change,2,0,5,,,,,,,,,4,11,84,,,
32460,note_on,4,0,11,,,,,,,,,13,,,,48,0
32461,control_change,10,0,7,,,,,,,,,10,11,98,,,
32462,note_on,9,0,8,,,,,,,,,11,,,,69,0
32462,control_change,2,0,6,,,,,,,,,5,11,84,,,
32462,note_on,9,0,9,,,,,,,,,12,,,,65,0
32462,note_on,0,0,9,,,,,,,,,12,,,,69,71
32462,note_on,0,0,2,,,,,,,,,1,,,,81,85
32462,control_change,2,0,4,,,,,,,,,3,11,82,,,
32462,note_on,3,0,2,,,,,,,,,1,,,,77,85
32462,note_on,0,0,8,,,,,,,,,11,,,,77,72
32463,note_on,4,0,12,,,,,,,,,14,,,,36,0
32463,control_change,1,0,9,,,,,,,,,12,11,98,,,
32463,control_change,1,0,8,,,,,,,,,11,11,98,,,
32463,note_on,3,0,5,,,,,,,,,4,,,,60,64
32464,note_on,0,0,10,,,,,,,,,6,,,,53,57
32464,note_on,0,0,10,,,,,,,,,6,,,,57,0
32464,note_on,9,0,10,,,,,,,,,6,,,,53,0
32464,note_on,0,0,10,,,,,,,,,6,,,,48,57
32465,note_on,3,0,4,,,,,,,,,3,,,,48,85
32465,note_on,5,0,11,,,,,,,,,13,,,,48,96
32465,note_on,3,0,6,,,,,,,,,5,,,,60,64
32465,control_change,1,0,10,,,,,,,,,6,11,98,,,
32466,control_change,1,0,11,,,,,,,,,13,11,98,,,
32468,note_on,5,0,12,,,,,,,,,14,,,,36,90
32469,control_change,1,0,12,,,,,,,,,14,11,98,,,
32472,control_change,11,0,7,,,,,,,,,10,11,95,,,
32474,control_change,11,0,8,,,,,,,,,11,11,95,,,
32474,control_change,11,0,9,,,,,,,,,12,11,95,,,
32474,control_change,12,0,2,,,,,,,,,1,11,80,,,
32475,control_change,15,0,3,,,,,,,,,2,11,80,,,
32475,control_change,12,0,5,,,,,,,,,4,11,82,,,
32476,control_change,11,0,10,,,,,,,,,6,11,95,,,
32477,control_change,12,0,6,,,,,,,,,5,11,82,,,
32477,control_change,11,0,11,,,,,,,,,13,11,95,,,
32477,control_change,12,0,4,,,,,,,,,3,11,80,,,
32480,control_change,11,0,12,,,,,,,,,14,11,95,,,
32482,control_change,10,0,7,,,,,,,,,10,11,92,,,
32484,control_change,10,0,9,,,,,,,,,12,11,92,,,
32484,control_change,10,0,8,,,,,,,,,11,11,92,,,
32486,control_change,10,0,10,,,,,,,,,6,11,92,,,
32487,control_change,10,0,11,,,,,,,,,13,11,92,,,
32490,control_change,10,0,12,,,,,,,,,14,11,92,,,
32492,note_on,8,0,9,,,,,,,,,12,,,,69,0
32492,note_on,0,0,9,,,,,,,,,12,,,,65,67
32492,note_on,0,0,8,,,,,,,,,11,,,,69,69
32492,note_on,8,0,8,,,,,,,,,11,,,,77,0
32493,control_change,11,0,7,,,,,,,,,10,11,89,,,
32494,note_on,0,0,10,,,,,,,,,6,,,,57,54
32494,note_on,8,0,10,,,,,,,,,6,,,,53,0
32494,note_on,0,0,10,,,,,,,,,6,,,,48,0
32494,note_on,0,0,10,,,,,,,,,6,,,,53,54
32495,control_change,3,0,9,,,,,,,,,12,11,89,,,
32495,control_change,3,0,8,,,,,,,,,11,11,89,,,
32495,control_change,21,0,2,,,,,,,,,1,11,78,,,
32496,control_change,21,0,5,,,,,,,,,4,11,79,,,
32496,control_change,21,0,3,,,,,,,,,2,11,78,,,
32497,control_change,3,0,10,,,,,,,,,6,11,89,,,
32498,control_change,21,0,6,,,,,,,,,5,11,79,,,
32498,control_change,11,0,11,,,,,,,,,13,11,89,,,
32498,control_change,21,0,4,,,,,,,,,3,11,78,,,
32501,control_change,11,0,12,,,,,,,,,14,11,89,,,
32503,control_change,10,0,7,,,,,,,,,10,11,86,,,
32505,control_change,10,0,8,,,,,,,,,11,11,86,,,
32505,control_change,10,0,9,,,,,,,,,12,11,86,,,
32507,control_change,10,0,10,,,,,,,,,6,11,86,,,
32508,control_change,10,0,11,,,,,,,,,13,11,86,,,
32510,control_change,15,0,2,,,,,,,,,1,11,76,,,
32511,control_change,10,0,12,,,,,,,,,14,11,86,,,
32511,control_change,15,0,3,,,,,,,,,2,11,76,,,
32511,control_change,15,0,5,,,,,,,,,4,11,77,,,
32513,control_change,15,0,4,,,,,,,,,3,11,76,,,
32513,control_change,15,0,6,,,,,,,,,5,11,77,,,
32514,control_change,11,0,7,,,,,,,,,10,11,83,,,
32516,control_change,11,0,8,,,,,,,,,11,11,83,,,
32516,control_change,11,0,9,,,,,,,,,12,11,83,,,
32517,note_on,0,0,2,,,,,,,,,1,,,,77,0
32517,note_on,7,0,2,,,,,,,,,1,,,,81,0
32518,control_change,11,0,10,,,,,,,,,6,11,83,,,
32518,note_on,7,0,5,,,,,,,,,4,,,,60,0
32519,control_change,11,0,11,,,,,,,,,13,11,83,,,
32520,note_on,1,0,11,,,,,,,,,13,,,,48,0
32520,note_on,7,0,6,,,,,,,,,5,,,,60,0
32520,note_on,7,0,4,,,,,,,,,3,,,,48,0
32522,control_change,11,0,12,,,,,,,,,14,11,83,,,
32522,note_on,6,0,8,,,,,,,,,11,,,,69,0
32522,note_on,0,0,9,,,,,,,,,12,,,,69,62
32522,note_on,0,0,8,,,,,,,,,11,,,,77,64
32522,note_on,6,0,9,,,,,,,,,12,,,,65,0
32522,note_on,5,0,2,,,,,,,,,1,,,,81,85
32522,note_on,0,0,2,,,,,,,,,1,,,,77,85
32523,note_on,5,0,5,,,,,,,,,4,,,,60,64
32523,note_on,1,0,12,,,,,,,,,14,,,,36,0
32524,note_on,0,0,10,,,,,,,,,6,,,,53,0
32524,control_change,10,0,7,,,,,,,,,10,11,80,,,
32524,note_on,6,0,10,,,,,,,,,6,,,,57,0
32524,note_on,0,0,10,,,,,,,,,6,,,,53,49
32524,note_on,0,0,10,,,,,,,,,6,,,,48,49
32525,note_on,5,0,6,,,,,,,,,5,,,,60,64
32525,note_on,5,0,11,,,,,,,,,13,,,,48,84
32525,note_on,5,0,4,,,,,,,,,3,,,,48,85
32526,control_change,4,0,9,,,,,,,,,12,11,80,,,
32526,control_change,4,0,8,,,,,,,,,11,11,80,,,
32528,note_on,5,0,12,,,,,,,,,14,,,,36,78
32528,control_change,4,0,10,,,,,,,,,6,11,80,,,
32529,control_change,4,0,11,,,,,,,,,13,11,80,,,
32531,control_change,9,0,2,,,,,,,,,1,11,74,,,
32532,control_change,4,0,12,,,,,,,,,14,11,80,,,
32532,control_change,9,0,5,,,,,,,,,4,11,74,,,
32532,control_change,21,0,3,,,,,,,,,2,11,74,,,
32534,control_change,9,0,4,,,,,,,,,3,11,74,,,
32534,control_change,9,0,6,,,,,,,,,5,11,74,,,
32535,control_change,11,0,7,,,,,,,,,10,11,77,,,
32537,control_change,11,0,8,,,,,,,,,11,11,77,,,
32537,control_change,11,0,9,,,,,,,,,12,11,77,,,
32539,control_change,11,0,10,,,,,,,,,6,11,77,,,
32540,control_change,11,0,11,,,,,,,,,13,11,77,,,
32543,control_change,11,0,12,,,,,,,,,14,11,77,,,
32545,control_change,10,0,7,,,,,,,,,10,11,74,,,
32546,control_change,15,0,2,,,,,,,,,1,11,72,,,
32547,control_change,10,0,8,,,,,,,,,11,11,74,,,
32547,control_change,15,0,3,,,,,,,,,2,11,72,,,
32547,control_change,10,0,9,,,,,,,,,12,11,74,,,
32547,control_change,15,0,5,,,,,,,,,4,11,72,,,
32549,control_change,15,0,4,,,,,,,,,3,11,72,,,
32549,control_change,15,0,6,,,,,,,,,5,11,72,,,
32549,control_change,10,0,10,,,,,,,,,6,11,74,,,
32550,control_change,10,0,11,,,,,,,,,13,11,74,,,
32552,note_on,5,0,8,,,,,,,,,11,,,,77,0
32552,note_on,0,0,8,,,,,,,,,11,,,,69,60
32552,note_on,0,0,9,,,,,,,,,12,,,,65,58
32552,note_on,5,0,9,,,,,,,,,12,,,,69,0
32553,control_change,10,0,12,,,,,,,,,14,11,74,,,
32554,note_on,5,0,10,,,,,,,,,6,,,,48,0
32554,note_on,0,0,10,,,,,,,,,6,,,,53,0
32554,note_on,0,0,10,,,,,,,,,6,,,,53,47
32554,note_on,0,0,10,,,,,,,,,6,,,,57,47
32556,control_change,11,0,7,,,,,,,,,10,11,71,,,
32558,control_change,6,0,9,,,,,,,,,12,11,71,,,
32558,control_change,6,0,8,,,,,,,,,11,11,71,,,
32560,control_change,6,0,10,,,,,,,,,6,11,71,,,
32561,control_change,11,0,11,,,,,,,,,13,11,71,,,
32564,control_change,11,0,12,,,,,,,,,14,11,71,,,
32566,control_change,10,0,7,,,,,,,,,10,11,68,,,
32567,control_change,21,0,2,,,,,,,,,1,11,70,,,
32568,control_change,21,0,3,,,,,,,,,2,11,70,,,
32568,control_change,21,0,5,,,,,,,,,4,11,69,,,
32568,control_change,10,0,8,,,,,,,,,11,11,68,,,
32568,control_change,10,0,9,,,,,,,,,12,11,68,,,
32570,control_change,21,0,6,,,,,,,,,5,11,69,,,
32570,control_change,21,0,4,,,,,,,,,3,11,70,,,
32570,control_change,10,0,10,,,,,,,,,6,11,68,,,
32571,control_change,10,0,11,,,,,,,,,13,11,68,,,
32574,control_change,10,0,12,,,,,,,,,14,11,68,,,
32577,note_on,9,0,8,,,,,,,,,11,,,,69,0
32577,control_change,11,0,7,,,,,,,,,10,11,65,,,
32577,note_on,9,0,9,,,,,,,,,12,,,,65,0
32577,note_on,0,0,2,,,,,,,,,1,,,,81,0
32577,note_on,10,0,2,,,,,,,,,1,,,,77,0
32578,note_on,10,0,5,,,,,,,,,4,,,,60,0
32579,control_change,2,0,8,,,,,,,,,11,11,65,,,
32579,control_change,2,0,9,,,,,,,,,12,11,65,,,
32579,note_on,0,0,10,,,,,,,,,6,,,,53,0
32579,note_on,9,0,10,,,,,,,,,6,,,,57,0
32580,note_on,10,0,4,,,,,,,,,3,,,,48,0
32580,note_on,10,0,6,,,,,,,,,5,,,,60,0
32580,set_tempo,120,1,0,,,,,,1250000,,,,,,,,
32580,note_on,9,0,11,,,,,,,,,13,,,,48,0
32581,control_change,2,0,10,,,,,,,,,6,11,65,,,
32582,note_on,3,0,8,,,,,,,,,11,,,,77,55
32582,note_on,0,0,8,,,,,,,,,11,,,,69,55
32582,note_on,0,0,2,,,,,,,,,1,,,,77,63
32582,note_on,0,0,2,,,,,,,,,1,,,,81,63
32582,control_change,5,0,2,,,,,,,,,1,11,68,,,
32582,control_change,2,0,11,,,,,,,,,13,11,65,,,
32582,note_on,3,0,9,,,,,,,,,12,,,,60,53
32582,note_on,0,0,9,,,,,,,,,12,,,,69,53
32583,control_change,15,0,3,,,,,,,,,2,11,68,,,
32583,note_on,0,0,5,,,,,,,,,4,,,,60,46
32583,note_on,9,0,12,,,,,,,,,14,,,,36,0
32583,control_change,5,0,5,,,,,,,,,4,11,67,,,
32584,note_on,3,0,10,,,,,,,,,6,,,,48,42
32585,note_on,3,0,11,,,,,,,,,13,,,,48,73
32585,control_change,5,0,6,,,,,,,,,5,11,67,,,
32585,note_on,0,0,6,,,,,,,,,5,,,,60,46
32585,note_on,0,0,4,,,,,,,,,3,,,,48,63
32585,control_change,5,0,4,,,,,,,,,3,11,68,,,
32585,control_change,2,0,12,,,,,,,,,14,11,65,,,
32587,control_change,10,0,7,,,,,,,,,10,11,62,,,
32588,note_on,3,0,12,,,,,,,,,14,,,,36,67
32589,control_change,7,0,9,,,,,,,,,12,11,62,,,
32589,control_change,7,0,8,,,,,,,,,11,11,62,,,
32591,control_change,7,0,10,,,,,,,,,6,11,62,,,
32592,control_change,7,0,11,,,,,,,,,13,11,62,,,
32595,control_change,7,0,12,,,,,,,,,14,11,62,,,
32598,control_change,11,0,7,,,,,,,,,10,11,59,,,
32600,control_change,11,0,8,,,,,,,,,11,11,59,,,
32600,control_change,11,0,9,,,,,,,,,12,11,59,,,
32602,control_change,11,0,10,,,,,,,,,6,11,59,,,
32603,control_change,11,0,11,,,,,,,,,13,11,59,,,
32603,control_change,21,0,2,,,,,,,,,1,11,65,,,
32604,control_change,21,0,5,,,,,,,,,4,11,64,,,
32604,control_change,21,0,3,,,,,,,,,2,11,65,,,
32606,control_change,11,0,12,,,,,,,,,14,11,59,,,
32606,control_change,21,0,4,,,,,,,,,3,11,65,,,
32606,control_change,21,0,6,,,,,,,,,5,11,64,,,
32608,control_change,10,0,7,,,,,,,,,10,11,56,,,
32610,control_change,10,0,9,,,,,,,,,12,11,56,,,
32610,control_change,10,0,8,,,,,,,,,11,11,56,,,
32612,control_change,10,0,10,,,,,,,,,6,11,56,,,
32613,control_change,10,0,11,,,,,,,,,13,11,56,,,
32616,control_change,10,0,12,,,,,,,,,14,11,56,,,
32618,control_change,15,0,2,,,,,,,,,1,11,64,,,
32619,control_change,11,0,7,,,,,,,,,10,11,53,,,
32619,control_change,15,0,5,,,,,,,,,4,11,62,,,
32619,control_change,15,0,3,,,,,,,,,2,11,64,,,
32621,control_change,11,0,8,,,,,,,,,11,11,53,,,
32621,control_change,15,0,4,,,,,,,,,3,11,64,,,
32621,control_change,11,0,9,,,,,,,,,12,11,53,,,
32621,control_change,15,0,6,,,,,,,,,5,11,62,,,
32623,control_change,11,0,10,,,,,,,,,6,11,53,,,
32624,control_change,11,0,11,,,,,,,,,13,11,53,,,
32627,control_change,11,0,12,,,,,,,,,14,11,53,,,
32629,control_change,10,0,7,,,,,,,,,10,11,50,,,
32631,control_change,10,0,9,,,,,,,,,12,11,50,,,
32631,control_change,10,0,8,,,,,,,,,11,11,50,,,
32633,control_change,10,0,10,,,,,,,,,6,11,50,,,
32634,control_change,10,0,11,,,,,,,,,13,11,50,,,
32635,note_on,6,0,7,,,,,,,,,10,,,,89,0
32637,control_change,10,0,12,,,,,,,,,14,11,50,,,
32639,control_change,21,0,2,,,,,,,,,1,11,61,,,
32640,set_tempo,60,1,0,,,,,,923077,,,,,,,,
32640,control_change,21,0,5,,,,,,,,,4,11,59,,,
32640,note_on,0,0,7,,,,,,,,,10,,,,84,103
32640,note_on,19,0,4,,,,,,,,,3,,,,48,0
32640,note_on,0,0,4,,,,,,,,,3,,,,65,0
32640,control_change,5,0,7,,,,,,,,,10,11,47,,,
32640,control_change,21,0,3,,,,,,,,,2,11,61,,,
32642,note_on,11,0,9,,,,,,,,,12,,,,69,0
32642,note_on,3,0,2,,,,,,,,,1,,,,77,0
32642,note_on,0,0,2,,,,,,,,,1,,,,81,0
32642,control_change,2,0,4,,,,,,,,,3,11,61,,,
32642,note_on,11,0,8,,,,,,,,,11,,,,69,0
32642,note_on,0,0,8,,,,,,,,,11,,,,77,0
32642,control_change,0,0,8,,,,,,,,,11,11,47,,,
32642,control_change,21,0,6,,,,,,,,,5,11,59,,,
32642,note_on,0,0,9,,,,,,,,,12,,,,60,0
32642,control_change,0,0,9,,,,,,,,,12,11,47,,,
32643,note_on,0,0,3,,,,,,,,,2,,,,69,0
32643,note_on,3,0,5,,,,,,,,,4,,,,60,0
32643,note_on,3,0,3,,,,,,,,,2,,,,77,0
32644,note_on,11,0,10,,,,,,,,,6,,,,48,0
32644,control_change,0,0,10,,,,,,,,,6,11,47,,,
32645,note_on,3,0,6,,,,,,,,,5,,,,60,0
32645,control_change,0,0,11,,,,,,,,,13,11,47,,,
32645,note_on,11,0,11,,,,,,,,,13,,,,48,0
32645,note_on,3,0,4,,,,,,,,,3,,,,60,95
32648,control_change,0,0,12,,,,,,,,,14,11,47,,,
32648,note_on,11,0,12,,,,,,,,,14,,,,36,0
32657,control_change,12,0,4,,,,,,,,,3,11,60,,,
32670,note_on,30,0,7,,,,,,,,,10,,,,84,0
32675,note_on,18,0,4,,,,,,,,,3,,,,60,0
32678,control_change,3,0,4,,,,,,,,,3,11,57,,,
32693,control_change,15,0,4,,,,,,,,,3,11,55,,,
32700,note_on,30,0,7,,,,,,,,,10,,,,81,103
32705,note_on,12,0,4,,,,,,,,,3,,,,57,95
32714,control_change,9,0,4,,,,,,,,,3,11,53,,,
32729,control_change,15,0,4,,,,,,,,,3,11,52,,,
32730,note_on,30,0,7,,,,,,,,,10,,,,81,0
32735,note_on,6,0,4,,,,,,,,,3,,,,57,0
32750,control_change,15,0,4,,,,,,,,,3,11,49,,,
32760,note_on,30,0,7,,,,,,,,,10,,,,84,103
32765,control_change,15,0,4,,,,,,,,,3,11,47,,,
32765,note_on,0,0,4,,,,,,,,,3,,,,60,95
32790,note_on,30,0,7,,,,,,,,,10,,,,84,0
32795,note_on,30,0,4,,,,,,,,,3,,,,60,0
32820,note_on,30,0,7,,,,,,,,,10,,,,81,103
32825,note_on,30,0,4,,,,,,,,,3,,,,57,95
32850,note_on,30,0,7,,,,,,,,,10,,,,81,0
32855,note_on,30,0,4,,,,,,,,,3,,,,57,0
32880,note_on,30,0,7,,,,,,,,,10,,,,77,103
32885,note_on,30,0,4,,,,,,,,,3,,,,53,95
32910,note_on,30,0,7,,,,,,,,,10,,,,77,0
32915,note_on,30,0,4,,,,,,,,,3,,,,53,0
32940,note_on,30,0,7,,,,,,,,,10,,,,72,103
32945,note_on,30,0,4,,,,,,,,,3,,,,48,95
32970,note_on,30,0,7,,,,,,,,,10,,,,72,0
32975,note_on,30,0,4,,,,,,,,,3,,,,48,0
33000,note_on,30,0,7,,,,,,,,,10,,,,77,103
33005,note_on,30,0,4,,,,,,,,,3,,,,53,95
33030,note_on,30,0,7,,,,,,,,,10,,,,77,0
33035,note_on,30,0,4,,,,,,,,,3,,,,53,0
33060,note_on,30,0,7,,,,,,,,,10,,,,81,103
33065,note_on,30,0,4,,,,,,,,,3,,,,57,95
33090,note_on,30,0,7,,,,,,,,,10,,,,81,0
33095,note_on,30,0,4,,,,,,,,,3,,,,57,0
33120,note_on,30,0,7,,,,,,,,,10,,,,77,103
33120,note_on,0,0,1,,,,,,,,,0,,,,77,96
33120,control_change,725,0,1,,,,,,,,,0,11,47,,,
33125,note_on,30,0,4,,,,,,,,,3,,,,53,95
33150,note_on,30,0,1,,,,,,,,,0,,,,77,0
33150,note_on,30,0,7,,,,,,,,,10,,,,77,0
33155,note_on,30,0,4,,,,,,,,,3,,,,53,0
33180,note_on,30,0,1,,,,,,,,,0,,,,72,96
33180,note_on,30,0,7,,,,,,,,,10,,,,72,103
33185,note_on,30,0,4,,,,,,,,,3,,,,48,95
33210,note_on,30,0,1,,,,,,,,,0,,,,72,0
33210,note_on,30,0,7,,,,,,,,,10,,,,72,0
33215,note_on,30,0,4,,,,,,,,,3,,,,48,0
33240,note_on,30,0,1,,,,,,,,,0,,,,69,96
33240,note_on,30,0,7,,,,,,,,,10,,,,69,103
33245,note_on,30,0,4,,,,,,,,,3,,,,45,95
33270,note_on,30,0,1,,,,,,,,,0,,,,69,0
33270,note_on,30,0,7,,,,,,,,,10,,,,69,0
33275,note_on,30,0,4,,,,,,,,,3,,,,45,0
33300,note_on,30,0,1,,,,,,,,,0,,,,65,96
33300,note_on,30,0,7,,,,,,,,,10,,,,65,103
33300,set_tempo,660,1,0,,,,,,916031,,,,,,,,
33305,note_on,30,0,4,,,,,,,,,3,,,,41,95
33330,note_on,30,0,1,,,,,,,,,0,,,,65,0
33330,note_on,30,0,7,,,,,,,,,10,,,,65,0
33335,note_on,30,0,4,,,,,,,,,3,,,,41,0
33360,note_on,30,0,1,,,,,,,,,0,,,,69,96
33360,note_on,30,0,7,,,,,,,,,10,,,,69,103
33365,note_on,30,0,4,,,,,,,,,3,,,,45,95
33390,note_on,30,0,1,,,,,,,,,0,,,,69,0
33390,note_on,30,0,7,,,,,,,,,10,,,,69,0
33395,note_on,30,0,4,,,,,,,,,3,,,,45,0
33420,note_on,30,0,1,,,,,,,,,0,,,,72,96
33420,note_on,30,0,7,,,,,,,,,10,,,,72,103
33420,set_tempo,120,1,0,,,,,,909091,,,,,,,,
33425,note_on,30,0,4,,,,,,,,,3,,,,48,95
33450,note_on,30,0,1,,,,,,,,,0,,,,72,0
33450,note_on,30,0,7,,,,,,,,,10,,,,72,0
33455,note_on,30,0,4,,,,,,,,,3,,,,48,0
33480,note_on,30,0,7,,,,,,,,,10,,,,77,103
33480,note_on,30,0,1,,,,,,,,,0,,,,77,96
33485,note_on,30,0,4,,,,,,,,,3,,,,53,95
33510,note_on,30,0,1,,,,,,,,,0,,,,77,0
33510,note_on,30,0,7,,,,,,,,,10,,,,77,0
33515,note_on,30,0,4,,,,,,,,,3,,,,53,0
33540,note_on,30,0,1,,,,,,,,,0,,,,81,96
33540,note_on,30,0,7,,,,,,,,,10,,,,81,103
33540,set_tempo,120,1,0,,,,,,902256,,,,,,,,
33545,note_on,30,0,4,,,,,,,,,3,,,,57,95
33570,note_on,30,0,1,,,,,,,,,0,,,,81,0
33570,note_on,30,0,7,,,,,,,,,10,,,,81,0
33575,note_on,30,0,4,,,,,,,,,3,,,,57,0
33600,set_tempo,60,1,0,,,,,,967742,,,,,,,,
33600,note_on,30,0,1,,,,,,,,,0,,,,84,96
33600,note_on,30,0,7,,,,,,,,,10,,,,84,103
33605,note_on,30,0,4,,,,,,,,,3,,,,60,95
33630,note_on,30,0,7,,,,,,,,,10,,,,84,0
33630,note_on,30,0,1,,,,,,,,,0,,,,84,0
33635,note_on,30,0,4,,,,,,,,,3,,,,60,0
33660,set_tempo,60,1,0,,,,,,1052632,,,,,,,,
33660,note_on,30,0,7,,,,,,,,,10,,,,89,103
33660,note_on,30,0,1,,,,,,,,,0,,,,89,96
33665,note_on,30,0,4,,,,,,,,,3,,,,65,95
33690,note_on,30,0,7,,,,,,,,,10,,,,89,0
33690,note_on,30,0,1,,,,,,,,,0,,,,89,0
33695,note_on,30,0,4,,,,,,,,,3,,,,65,0
33720,note_on,30,0,7,,,,,,,,,10,,,,65,103
33720,note_on,30,0,1,,,,,,,,,0,,,,77,96
33720,set_tempo,60,1,0,,,,,,1121495,,,,,,,,
33722,note_on,0,0,8,,,,,,,,,11,,,,69,103
33722,note_on,0,0,2,,,,,,,,,1,,,,77,95
33722,note_on,0,0,2,,,,,,,,,1,,,,81,95
33722,control_change,1080,0,8,,,,,,,,,11,11,47,,,
33722,control_change,1080,0,9,,,,,,,,,12,11,47,,,
33722,note_on,0,0,9,,,,,,,,,12,,,,57,101
33722,control_change,1080,0,2,,,,,,,,,1,11,47,,,
33723,note_on,0,0,3,,,,,,,,,2,,,,69,96
33723,note_on,0,0,3,,,,,,,,,2,,,,65,96
33723,control_change,1080,0,3,,,,,,,,,2,11,47,,,
33723,control_change,1080,0,5,,,,,,,,,4,11,42,,,
33723,note_on,0,0,5,,,,,,,,,4,,,,65,82
33723,program_change,1079,0,10,,,,,,,,45,6,,,,,
33724,note_on,0,0,10,,,,,,,,,6,,,,53,39
33724,control_change,1,0,10,,,,,,,,,6,11,100,,,
33724,program_change,1079,0,11,,,,,,,,45,13,,,,,
33725,control_change,1,0,11,,,,,,,,,13,11,100,,,
33725,note_on,0,0,11,,,,,,,,,13,,,,53,43
33725,note_on,30,0,4,,,,,,,,,3,,,,53,95
33725,note_on,0,0,6,,,,,,,,,5,,,,53,82
33725,control_change,1080,0,6,,,,,,,,,5,11,42,,,
33727,program_change,1079,0,12,,,,,,,,45,14,,,,,
33728,control_change,1,0,12,,,,,,,,,14,11,100,,,
33728,note_on,0,0,12,,,,,,,,,14,,,,41,36
33750,note_on,30,0,1,,,,,,,,,0,,,,77,0
33750,note_on,30,0,7,,,,,,,,,10,,,,65,0
33752,note_on,30,0,8,,,,,,,,,11,,,,69,0
33752,note_on,30,0,2,,,,,,,,,1,,,,77,0
33752,note_on,0,0,2,,,,,,,,,1,,,,81,0
33752,note_on,30,0,9,,,,,,,,,12,,,,57,0
33753,note_on,30,0,3,,,,,,,,,2,,,,69,0
33753,note_on,0,0,3,,,,,,,,,2,,,,65,0
33755,note_on,30,0,4,,,,,,,,,3,,,,53,0
33778,note_on,55,0,5,,,,,,,,,4,,,,65,0
33780,note_on,30,0,7,,,,,,,,,10,,,,70,103
33780,note_on,30,0,1,,,,,,,,,0,,,,82,96
33780,set_tempo,60,1,0,,,,,,1200000,,,,,,,,
33780,note_on,55,0,6,,,,,,,,,5,,,,53,0
33782,note_on,0,0,2,,,,,,,,,1,,,,79,95
33782,note_on,30,0,9,,,,,,,,,12,,,,50,101
33782,note_on,30,0,8,,,,,,,,,11,,,,74,103
33782,note_on,30,0,2,,,,,,,,,1,,,,77,95
33783,note_on,5,0,5,,,,,,,,,4,,,,65,82
33783,note_on,30,0,3,,,,,,,,,2,,,,65,96
33783,note_on,0,0,3,,,,,,,,,2,,,,67,96
33784,note_on,60,0,10,,,,,,,,,6,,,,53,0
33784,note_on,0,0,10,,,,,,,,,6,,,,46,39
33785,note_on,5,0,6,,,,,,,,,5,,,,53,82
33785,note_on,30,0,4,,,,,,,,,3,,,,58,95
33785,note_on,60,0,11,,,,,,,,,13,,,,53,0
33785,note_on,0,0,4,,,,,,,,,3,,,,46,95
33785,note_on,0,0,11,,,,,,,,,13,,,,46,43
33788,note_on,60,0,12,,,,,,,,,14,,,,41,0
33788,note_on,0,0,12,,,,,,,,,14,,,,34,36
33810,set_tempo,30,1,0,,,,,,1428571,,,,,,,,
33810,note_on,30,0,1,,,,,,,,,0,,,,82,0
33810,note_on,30,0,7,,,,,,,,,10,,,,70,0
33812,note_on,30,0,8,,,,,,,,,11,,,,74,0
33812,note_on,30,0,9,,,,,,,,,12,,,,50,0
33812,note_on,30,0,2,,,,,,,,,1,,,,79,0
33812,note_on,0,0,2,,,,,,,,,1,,,,77,0
33813,note_on,0,0,3,,,,,,,,,2,,,,65,0
33813,note_on,30,0,3,,,,,,,,,2,,,,67,0
33815,note_on,30,0,4,,,,,,,,,3,,,,46,0
33815,note_on,0,0,4,,,,,,,,,3,,,,58,0
33838,note_on,55,0,5,,,,,,,,,4,,,,65,0
33840,note_on,55,0,6,,,,,,,,,5,,,,53,0
33840,control_change,30,0,7,,,,,,,,,10,11,42,,,
33840,note_on,30,0,1,,,,,,,,,0,,,,70,96
33840,set_tempo,30,1,0,,,,,,1000000,,,,,,,,
33840,note_on,0,0,7,,,,,,,,,10,,,,69,103
33840,note_on,0,0,1,,,,,,,,,0,,,,79,96
33842,note_on,30,0,2,,,,,,,,,1,,,,79,95
33842,note_on,0,0,2,,,,,,,,,1,,,,77,95
33842,note_on,30,0,9,,,,,,,,,12,,,,65,86
33842,note_on,30,0,8,,,,,,,,,11,,,,70,88
33843,note_on,0,0,3,,,,,,,,,2,,,,67,96
33843,note_on,5,0,5,,,,,,,,,4,,,,60,82
33843,note_on,30,0,3,,,,,,,,,2,,,,65,96
33844,note_on,60,0,10,,,,,,,,,6,,,,46,0
33844,note_on,0,0,10,,,,,,,,,6,,,,48,39
33845,note_on,5,0,6,,,,,,,,,5,,,,60,82
33845,note_on,30,0,4,,,,,,,,,3,,,,55,95
33845,note_on,0,0,4,,,,,,,,,3,,,,48,95
33845,note_on,60,0,11,,,,,,,,,13,,,,46,0
33845,note_on,0,0,11,,,,,,,,,13,,,,48,43
33848,note_on,60,0,12,,,,,,,,,14,,,,34,0
33848,note_on,0,0,12,,,,,,,,,14,,,,36,36
33850,note_on,10,0,7,,,,,,,,,10,,,,69,0
33850,note_on,0,0,7,,,,,,,,,10,,,,67,103
33860,note_on,0,0,7,,,,,,,,,10,,,,69,103
33860,note_on,10,0,7,,,,,,,,,10,,,,67,0
33870,note_on,10,0,7,,,,,,,,,10,,,,69,0
33870,note_on,0,0,7,,,,,,,,,10,,,,67,103
33874,control_change,4,0,7,,,,,,,,,10,11,43,,,
33880,note_on,6,0,7,,,,,,,,,10,,,,67,0
33880,note_on,0,0,7,,,,,,,,,10,,,,69,103
33890,note_on,10,0,7,,,,,,,,,10,,,,69,0
33890,note_on,0,0,7,,,,,,,,,10,,,,67,103
33900,note_on,10,0,7,,,,,,,,,10,,,,67,0
33900,note_on,0,0,7,,,,,,,,,10,,,,69,103
33900,set_tempo,60,1,0,,,,,,1100917,,,,,,,,
33907,control_change,67,0,1,,,,,,,,,0,11,47,,,
33909,control_change,9,0,7,,,,,,,,,10,11,44,,,
33909,control_change,67,0,2,,,,,,,,,1,11,47,,,
33910,note_on,1,0,7,,,,,,,,,10,,,,69,0
33910,note_on,0,0,7,,,,,,,,,10,,,,67,103
33910,control_change,67,0,3,,,,,,,,,2,11,47,,,
33914,control_change,7,0,1,,,,,,,,,0,11,44,,,
33916,control_change,7,0,2,,,,,,,,,1,11,44,,,
33917,control_change,7,0,3,,,,,,,,,2,11,44,,,
33920,note_on,10,0,7,,,,,,,,,10,,,,67,0
33920,note_on,0,0,7,,,,,,,,,10,,,,69,103
33922,control_change,8,0,1,,,,,,,,,0,11,41,,,
33924,control_change,8,0,2,,,,,,,,,1,11,41,,,
33925,control_change,8,0,3,,,,,,,,,2,11,41,,,
33929,control_change,7,0,1,,,,,,,,,0,11,38,,,
33930,note_on,10,0,7,,,,,,,,,10,,,,69,0
33930,note_on,0,0,7,,,,,,,,,10,,,,67,103
33931,control_change,7,0,2,,,,,,,,,1,11,38,,,
33932,control_change,7,0,3,,,,,,,,,2,11,38,,,
33937,control_change,8,0,1,,,,,,,,,0,11,35,,,
33939,control_change,8,0,2,,,,,,,,,1,11,35,,,
33940,note_on,10,0,7,,,,,,,,,10,,,,67,0
33940,note_on,0,0,7,,,,,,,,,10,,,,69,103
33940,control_change,8,0,3,,,,,,,,,2,11,35,,,
33943,control_change,3,0,7,,,,,,,,,10,11,45,,,
33944,control_change,7,0,1,,,,,,,,,0,11,32,,,
33946,control_change,7,0,2,,,,,,,,,1,11,32,,,
33947,control_change,7,0,3,,,,,,,,,2,11,32,,,
33950,note_on,7,0,7,,,,,,,,,10,,,,69,0
33950,note_on,0,0,7,,,,,,,,,10,,,,67,103
33952,control_change,8,0,1,,,,,,,,,0,11,29,,,
33954,control_change,8,0,2,,,,,,,,,1,11,29,,,
33955,control_change,8,0,3,,,,,,,,,2,11,29,,,
33959,control_change,7,0,1,,,,,,,,,0,11,26,,,
33960,note_on,10,0,7,,,,,,,,,10,,,,67,0
33960,note_on,0,0,1,,,,,,,,,0,,,,70,0
33960,note_on,1,0,1,,,,,,,,,0,,,,79,0
33960,note_on,0,0,7,,,,,,,,,10,,,,69,103
33961,control_change,7,0,2,,,,,,,,,1,11,26,,,
33962,note_on,120,0,8,,,,,,,,,11,,,,70,0
33962,note_on,0,0,2,,,,,,,,,1,,,,79,0
33962,control_change,7,0,3,,,,,,,,,2,11,26,,,
33962,note_on,1,0,2,,,,,,,,,1,,,,77,0
33962,note_on,120,0,9,,,,,,,,,12,,,,65,0
33963,note_on,120,0,5,,,,,,,,,4,,,,60,0
33963,note_on,0,0,3,,,,,,,,,2,,,,65,0
33963,note_on,1,0,3,,,,,,,,,2,,,,67,0
33964,note_on,120,0,10,,,,,,,,,6,,,,48,0
33965,note_on,120,0,11,,,,,,,,,13,,,,48,0
33965,note_on,0,0,4,,,,,,,,,3,,,,55,0
33965,note_on,120,0,4,,,,,,,,,3,,,,48,0
33965,note_on,120,0,6,,,,,,,,,5,,,,60,0
33967,control_change,7,0,1,,,,,,,,,0,11,23,,,
33968,note_on,120,0,12,,,,,,,,,14,,,,36,0
33969,control_change,7,0,2,,,,,,,,,1,11,23,,,
33970,control_change,7,0,3,,,,,,,,,2,11,23,,,
33970,note_on,0,0,7,,,,,,,,,10,,,,67,103
33970,note_on,10,0,7,,,,,,,,,10,,,,69,0
33978,control_change,8,0,7,,,,,,,,,10,11,46,,,
33980,note_on,2,0,7,,,,,,,,,10,,,,67,0
33980,note_on,0,0,7,,,,,,,,,10,,,,69,103
33990,note_on,10,0,7,,,,,,,,,10,,,,69,0
33990,note_on,0,0,7,,,,,,,,,10,,,,67,103
34000,note_on,0,0,7,,,,,,,,,10,,,,69,103
34000,note_on,10,0,7,,,,,,,,,10,,,,67,0
34010,note_on,0,0,7,,,,,,,,,10,,,,67,103
34010,note_on,10,0,7,,,,,,,,,10,,,,69,0
34012,control_change,2,0,7,,,,,,,,,10,11,47,,,
34020,set_tempo,120,1,0,,,,,,1034483,,,,,,,,
34020,note_on,8,0,7,,,,,,,,,10,,,,67,0
34020,note_on,0,0,7,,,,,,,,,10,,,,69,103
34030,note_on,0,0,7,,,,,,,,,10,,,,67,103
34030,note_on,10,0,7,,,,,,,,,10,,,,69,0
34040,note_on,0,0,7,,,,,,,,,10,,,,69,103
34040,note_on,10,0,7,,,,,,,,,10,,,,67,0
34047,control_change,7,0,7,,,,,,,,,10,11,48,,,
34050,note_on,0,0,7,,,,,,,,,10,,,,67,103
34050,note_on,3,0,7,,,,,,,,,10,,,,69,0
34060,note_on,10,0,7,,,,,,,,,10,,,,67,0
34060,note_on,0,0,7,,,,,,,,,10,,,,69,103
34070,note_on,10,0,7,,,,,,,,,10,,,,69,0
34070,note_on,0,0,7,,,,,,,,,10,,,,67,103
34080,set_tempo,60,1,0,,,,,,937500,,,,,,,,
34080,note_on,10,0,7,,,,,,,,,10,,,,67,0
34080,note_on,0,0,7,,,,,,,,,10,,,,69,103
34081,control_change,1,0,7,,,,,,,,,10,11,49,,,
34090,note_on,9,0,7,,,,,,,,,10,,,,69,0
34090,note_on,0,0,7,,,,,,,,,10,,,,67,103
34100,note_on,0,0,7,,,,,,,,,10,,,,69,103
34100,note_on,10,0,7,,,,,,,,,10,,,,67,0
34110,note_on,10,0,7,,,,,,,,,10,,,,69,0
34110,note_on,0,0,7,,,,,,,,,10,,,,67,103
34116,control_change,6,0,7,,,,,,,,,10,11,50,,,
34120,note_on,4,0,7,,,,,,,,,10,,,,67,0
34120,note_on,0,0,7,,,,,,,,,10,,,,69,103
34130,note_on,10,0,7,,,,,,,,,10,,,,69,0
34130,note_on,0,0,7,,,,,,,,,10,,,,67,103
34140,note_on,0,0,7,,,,,,,,,10,,,,69,103
34140,note_on,10,0,7,,,,,,,,,10,,,,67,0
34142,note_on,0,0,9,,,,,,,,,12,,,,53,101
34142,control_change,180,0,9,,,,,,,,,12,11,42,,,
34143,program_change,179,0,10,,,,,,,,42,6,,,,,
34144,note_on,0,0,10,,,,,,,,,6,,,,53,104
34144,control_change,1,0,10,,,,,,,,,6,11,42,,,
34150,note_on,10,0,7,,,,,,,,,10,,,,69,0
34150,control_change,0,0,7,,,,,,,,,10,11,51,,,
34150,note_on,0,0,7,,,,,,,,,10,,,,67,103
34157,control_change,15,0,9,,,,,,,,,12,11,44,,,
34159,control_change,15,0,10,,,,,,,,,6,11,44,,,
34160,note_on,10,0,7,,,,,,,,,10,,,,67,0
34160,note_on,0,0,7,,,,,,,,,10,,,,69,103
34170,note_on,0,0,7,,,,,,,,,10,,,,65,103
34170,note_on,10,0,7,,,,,,,,,10,,,,69,0
34172,control_change,15,0,9,,,,,,,,,12,11,46,,,
34174,control_change,15,0,10,,,,,,,,,6,11,46,,,
34185,set_tempo,105,1,0,,,,,,1318681,,,,,,,,
34185,note_on,15,0,7,,,,,,,,,10,,,,65,0
34185,note_on,0,0,7,,,,,,,,,10,,,,67,103
34185,control_change,0,0,7,,,,,,,,,10,11,52,,,
34187,control_change,15,0,9,,,,,,,,,12,11,48,,,
34189,control_change,15,0,10,,,,,,,,,6,11,48,,,
34197,note_on,10,0,9,,,,,,,,,12,,,,53,0
34199,note_on,10,0,10,,,,,,,,,6,,,,53,0
34200,note_on,0,0,7,,,,,,,,,10,,,,81,103
34200,control_change,0,0,7,,,,,,,,,10,11,42,,,
34200,control_change,233,0,1,,,,,,,,,0,11,47,,,
34200,note_on,0,0,1,,,,,,,,,0,,,,70,96
34200,note_on,0,0,1,,,,,,,,,0,,,,84,96
34200,set_tempo,15,1,0,,,,,,1111111,,,,,,,,
34200,note_on,15,0,7,,,,,,,,,10,,,,67,0
34201,program_change,239,0,8,,,,,,,,45,11,,,,,
34202,note_on,0,0,9,,,,,,,,,12,,,,53,101
34202,control_change,5,0,9,,,,,,,,,12,11,50,,,
34202,control_change,233,0,2,,,,,,,,,1,11,47,,,
34202,note_on,0,0,2,,,,,,,,,1,,,,72,95
34202,control_change,1,0,8,,,,,,,,,11,11,100,,,
34202,note_on,0,0,8,,,,,,,,,11,,,,58,47
34202,note_on,0,0,2,,,,,,,,,1,,,,79,95
34203,control_change,233,0,3,,,,,,,,,2,11,47,,,
34203,note_on,0,0,5,,,,,,,,,4,,,,60,82
34203,control_change,240,0,5,,,,,,,,,4,11,42,,,
34203,note_on,0,0,3,,,,,,,,,2,,,,67,96
34203,note_on,0,0,3,,,,,,,,,2,,,,64,96
34204,program_change,239,0,11,,,,,,,,48,13,,,,,
34204,note_on,0,0,10,,,,,,,,,6,,,,53,104
34204,control_change,5,0,10,,,,,,,,,6,11,50,,,
34205,control_change,1,0,11,,,,,,,,,13,11,47,,,
34205,note_on,0,0,11,,,,,,,,,13,,,,48,100
34205,control_change,0,0,6,,,,,,,,,5,11,42,,,
34205,note_on,240,0,6,,,,,,,,,5,,,,60,82
34205,note_on,0,0,4,,,,,,,,,3,,,,55,95
34205,control_change,0,0,4,,,,,,,,,3,11,47,,,
34205,note_on,240,0,4,,,,,,,,,3,,,,36,95
34207,program_change,239,0,12,,,,,,,,48,14,,,,,
34208,control_change,1,0,12,,,,,,,,,14,11,47,,,
34208,note_on,0,0,12,,,,,,,,,14,,,,36,96
34210,note_on,10,0,7,,,,,,,,,10,,,,81,0
34210,note_on,0,0,7,,,,,,,,,10,,,,79,103
34217,control_change,15,0,8,,,,,,,,,11,11,52,,,
34217,note_on,15,0,9,,,,,,,,,12,,,,53,0
34217,control_change,0,0,9,,,,,,,,,12,11,52,,,
34217,note_on,0,0,9,,,,,,,,,12,,,,52,101
34219,note_on,15,0,10,,,,,,,,,6,,,,53,0
34219,control_change,0,0,10,,,,,,,,,6,11,52,,,
34219,note_on,0,0,10,,,,,,,,,6,,,,52,104
34220,note_on,10,0,7,,,,,,,,,10,,,,79,0
34220,note_on,0,0,7,,,,,,,,,10,,,,81,103
34228,control_change,28,0,1,,,,,,,,,0,11,48,,,
34230,note_on,10,0,7,,,,,,,,,10,,,,81,0
34230,note_on,0,0,7,,,,,,,,,10,,,,79,103
34230,control_change,28,0,2,,,,,,,,,1,11,48,,,
34231,control_change,28,0,5,,,,,,,,,4,11,43,,,
34231,control_change,28,0,3,,,,,,,,,2,11,48,,,
34233,control_change,28,0,6,,,,,,,,,5,11,43,,,
34233,control_change,28,0,4,,,,,,,,,3,11,48,,,
34236,control_change,6,0,7,,,,,,,,,10,11,43,,,
34240,note_on,0,0,7,,,,,,,,,10,,,,81,103
34240,note_on,4,0,7,,,,,,,,,10,,,,79,0
34250,note_on,0,0,7,,,,,,,,,10,,,,79,103
34250,note_on,10,0,7,,,,,,,,,10,,,,81,0
34257,control_change,29,0,1,,,,,,,,,0,11,49,,,
34259,control_change,29,0,2,,,,,,,,,1,11,49,,,
34260,control_change,29,0,5,,,,,,,,,4,11,44,,,
34260,set_tempo,60,1,0,,,,,,937500,,,,,,,,
34260,note_on,0,0,7,,,,,,,,,10,,,,81,103
34260,note_on,10,0,7,,,,,,,,,10,,,,79,0
34260,control_change,29,0,3,,,,,,,,,2,11,49,,,
34262,note_on,0,0,9,,,,,,,,,12,,,,50,101
34262,control_change,57,0,11,,,,,,,,,13,11,48,,,
34262,control_change,29,0,6,,,,,,,,,5,11,44,,,
34262,control_change,29,0,4,,,,,,,,,3,11,49,,,
34262,note_on,45,0,9,,,,,,,,,12,,,,52,0
34264,note_on,45,0,10,,,,,,,,,6,,,,52,0
34264,note_on,0,0,10,,,,,,,,,6,,,,50,104
34265,control_change,57,0,12,,,,,,,,,14,11,48,,,
34269,control_change,12,0,1,,,,,,,,,0,11,46,,,
34270,note_on,10,0,7,,,,,,,,,10,,,,79,103
34271,note_on,1,0,7,,,,,,,,,10,,,,81,0
34271,control_change,12,0,2,,,,,,,,,1,11,46,,,
34272,control_change,1,0,7,,,,,,,,,10,11,44,,,
34272,control_change,12,0,3,,,,,,,,,2,11,46,,,
34275,control_change,6,0,1,,,,,,,,,0,11,43,,,
34277,control_change,6,0,2,,,,,,,,,1,11,43,,,
34278,control_change,6,0,3,,,,,,,,,2,11,43,,,
34280,note_on,8,0,7,,,,,,,,,10,,,,81,103
34281,control_change,6,0,1,,,,,,,,,0,11,40,,,
34281,note_on,1,0,7,,,,,,,,,10,,,,79,0
34283,control_change,6,0,2,,,,,,,,,1,11,40,,,
34284,control_change,6,0,3,,,,,,,,,2,11,40,,,
34287,control_change,6,0,1,,,,,,,,,0,11,37,,,
34288,control_change,71,0,8,,,,,,,,,11,11,53,,,
34288,control_change,26,0,9,,,,,,,,,12,11,53,,,
34289,control_change,29,0,5,,,,,,,,,4,11,45,,,
34289,control_change,6,0,2,,,,,,,,,1,11,37,,,
34290,control_change,26,0,10,,,,,,,,,6,11,53,,,
34290,note_on,9,0,7,,,,,,,,,10,,,,79,103
34290,control_change,6,0,3,,,,,,,,,2,11,37,,,
34291,control_change,29,0,6,,,,,,,,,5,11,45,,,
34291,note_on,1,0,7,,,,,,,,,10,,,,81,0
34291,control_change,29,0,4,,,,,,,,,3,11,50,,,
34294,control_change,7,0,1,,,,,,,,,0,11,34,,,
34296,control_change,7,0,2,,,,,,,,,1,11,34,,,
34297,control_change,7,0,3,,,,,,,,,2,11,34,,,
34300,note_on,9,0,7,,,,,,,,,10,,,,81,103
34300,control_change,6,0,1,,,,,,,,,0,11,31,,,
34301,note_on,1,0,7,,,,,,,,,10,,,,79,0
34302,control_change,6,0,2,,,,,,,,,1,11,31,,,
34303,control_change,6,0,3,,,,,,,,,2,11,31,,,
34306,control_change,6,0,1,,,,,,,,,0,11,28,,,
34308,control_change,7,0,7,,,,,,,,,10,11,45,,,
34308,control_change,6,0,2,,,,,,,,,1,11,28,,,
34309,control_change,6,0,3,,,,,,,,,2,11,28,,,
34310,note_on,2,0,7,,,,,,,,,10,,,,79,103
34311,note_on,1,0,7,,,,,,,,,10,,,,81,0
34312,control_change,6,0,1,,,,,,,,,0,11,25,,,
34314,control_change,6,0,2,,,,,,,,,1,11,25,,,
34315,control_change,6,0,3,,,,,,,,,2,11,25,,,
34318,control_change,29,0,5,,,,,,,,,4,11,46,,,
34319,control_change,7,0,1,,,,,,,,,0,11,22,,,
34320,control_change,29,0,4,,,,,,,,,3,11,51,,,
34320,note_on,9,0,7,,,,,,,,,10,,,,81,103
34320,note_on,1,0,1,,,,,,,,,0,,,,84,0
34320,note_on,0,0,1,,,,,,,,,0,,,,70,0
34320,control_change,29,0,6,,,,,,,,,5,11,46,,,
34320,control_change,58,0,11,,,,,,,,,13,11,49,,,
34321,note_on,1,0,7,,,,,,,,,10,,,,79,0
34321,control_change,7,0,2,,,,,,,,,1,11,22,,,
34322,note_on,0,0,9,,,,,,,,,12,,,,48,101
34322,note_on,34,0,9,,,,,,,,,12,,,,50,0
34322,control_change,7,0,3,,,,,,,,,2,11,22,,,
34322,note_on,1,0,2,,,,,,,,,1,,,,72,0
34322,note_on,0,0,2,,,,,,,,,1,,,,79,0
34322,note_on,34,0,8,,,,,,,,,11,,,,58,0
34323,note_on,5,0,5,,,,,,,,,4,,,,60,0
34323,control_change,58,0,12,,,,,,,,,14,11,49,,,
34323,note_on,0,0,3,,,,,,,,,2,,,,67,0
34323,note_on,1,0,3,,,,,,,,,2,,,,64,0
34324,note_on,34,0,10,,,,,,,,,6,,,,50,0
34324,note_on,0,0,10,,,,,,,,,6,,,,48,104
34325,note_on,0,0,4,,,,,,,,,3,,,,36,0
34325,note_on,5,0,6,,,,,,,,,5,,,,60,0
34325,note_on,5,0,4,,,,,,,,,3,,,,55,0
34330,note_on,9,0,7,,,,,,,,,10,,,,79,103
34331,note_on,1,0,7,,,,,,,,,10,,,,81,0
34340,note_on,9,0,7,,,,,,,,,10,,,,81,103
34341,note_on,1,0,7,,,,,,,,,10,,,,79,0
34344,control_change,3,0,7,,,,,,,,,10,11,46,,,
34347,control_change,24,0,5,,,,,,,,,4,11,47,,,
34349,control_change,24,0,6,,,,,,,,,5,11,47,,,
34350,note_on,6,0,7,,,,,,,,,10,,,,79,103
34351,note_on,1,0,7,,,,,,,,,10,,,,81,0
34359,control_change,37,0,8,,,,,,,,,11,11,54,,,
34359,control_change,37,0,9,,,,,,,,,12,11,54,,,
34360,note_on,9,0,7,,,,,,,,,10,,,,81,103
34361,note_on,1,0,7,,,,,,,,,10,,,,79,0
34361,control_change,37,0,10,,,,,,,,,6,11,54,,,
34370,note_on,9,0,7,,,,,,,,,10,,,,79,103
34371,note_on,1,0,7,,,,,,,,,10,,,,81,0
34375,control_change,28,0,5,,,,,,,,,4,11,48,,,
34377,control_change,28,0,6,,,,,,,,,5,11,48,,,
34377,control_change,57,0,11,,,,,,,,,13,11,50,,,
34377,note_on,18,0,9,,,,,,,,,12,,,,48,0
34379,note_on,18,0,10,,,,,,,,,6,,,,48,0
34380,set_tempo,120,1,0,,,,,,1034483,,,,,,,,
34380,control_change,57,0,12,,,,,,,,,14,11,50,,,
34380,control_change,9,0,7,,,,,,,,,10,11,47,,,
34380,note_on,0,0,7,,,,,,,,,10,,,,81,103
34381,note_on,1,0,7,,,,,,,,,10,,,,79,0
34382,note_on,5,0,9,,,,,,,,,12,,,,48,101
34384,note_on,5,0,10,,,,,,,,,6,,,,48,104
34390,note_on,9,0,7,,,,,,,,,10,,,,79,103
34391,note_on,1,0,7,,,,,,,,,10,,,,81,0
34400,note_on,9,0,7,,,,,,,,,10,,,,81,103
34401,note_on,1,0,7,,,,,,,,,10,,,,79,0
34404,control_change,29,0,5,,,,,,,,,4,11,49,,,
34406,control_change,29,0,6,,,,,,,,,5,11,49,,,
34410,note_on,9,0,7,,,,,,,,,10,,,,79,103
34411,note_on,1,0,7,,,,,,,,,10,,,,81,0
34416,control_change,5,0,7,,,,,,,,,10,11,48,,,
34420,note_on,4,0,7,,,,,,,,,10,,,,81,103
34421,note_on,1,0,7,,,,,,,,,10,,,,79,0
34430,note_on,9,0,7,,,,,,,,,10,,,,79,103
34430,control_change,71,0,8,,,,,,,,,11,11,55,,,
34430,control_change,48,0,9,,,,,,,,,12,11,55,,,
34431,note_on,1,0,7,,,,,,,,,10,,,,81,0
34432,control_change,48,0,10,,,,,,,,,6,11,55,,,
34433,control_change,29,0,5,,,,,,,,,4,11,50,,,
34435,control_change,58,0,11,,,,,,,,,13,11,51,,,
34435,control_change,29,0,6,,,,,,,,,5,11,50,,,
34438,control_change,58,0,12,,,,,,,,,14,11,51,,,
34440,set_tempo,60,1,0,,,,,,937500,,,,,,,,
34440,note_on,9,0,7,,,,,,,,,10,,,,81,103
34441,note_on,1,0,7,,,,,,,,,10,,,,79,0
34442,note_on,12,0,9,,,,,,,,,12,,,,48,0
34442,note_on,0,0,9,,,,,,,,,12,,,,50,101
34444,note_on,0,0,10,,,,,,,,,6,,,,50,104
34444,note_on,12,0,10,,,,,,,,,6,,,,48,0
34450,note_on,9,0,7,,,,,,,,,10,,,,79,103
34451,note_on,1,0,7,,,,,,,,,10,,,,81,0
34452,control_change,1,0,7,,,,,,,,,10,11,49,,,
34460,note_on,8,0,7,,,,,,,,,10,,,,81,103
34461,note_on,1,0,7,,,,,,,,,10,,,,79,0
34462,control_change,29,0,5,,,,,,,,,4,11,51,,,
34464,control_change,29,0,6,,,,,,,,,5,11,51,,,
34470,note_on,9,0,7,,,,,,,,,10,,,,79,103
34471,note_on,1,0,7,,,,,,,,,10,,,,81,0
34480,note_on,9,0,7,,,,,,,,,10,,,,81,103
34481,note_on,1,0,7,,,,,,,,,10,,,,79,0
34488,control_change,7,0,7,,,,,,,,,10,11,50,,,
34490,note_on,2,0,7,,,,,,,,,10,,,,79,103
34491,note_on,1,0,7,,,,,,,,,10,,,,81,0
34491,control_change,29,0,5,,,,,,,,,4,11,52,,,
34493,control_change,58,0,11,,,,,,,,,13,11,52,,,
34493,control_change,29,0,6,,,,,,,,,5,11,52,,,
34496,control_change,58,0,12,,,,,,,,,14,11,52,,,
34500,note_on,9,0,7,,,,,,,,,10,,,,81,103
34501,note_on,1,0,7,,,,,,,,,10,,,,79,0
34502,control_change,72,0,8,,,,,,,,,11,11,56,,,
34502,control_change,0,0,9,,,,,,,,,12,11,56,,,
34502,note_on,60,0,9,,,,,,,,,12,,,,50,0
34502,note_on,0,0,9,,,,,,,,,12,,,,52,101
34504,note_on,60,0,10,,,,,,,,,6,,,,50,0
34504,note_on,0,0,10,,,,,,,,,6,,,,52,104
34504,control_change,0,0,10,,,,,,,,,6,11,56,,,
34510,note_on,9,0,7,,,,,,,,,10,,,,79,103
34511,note_on,1,0,7,,,,,,,,,10,,,,81,0
34519,control_change,28,0,5,,,,,,,,,4,11,53,,,
34520,note_on,9,0,7,,,,,,,,,10,,,,81,103
34521,control_change,28,0,6,,,,,,,,,5,11,53,,,
34521,note_on,1,0,7,,,,,,,,,10,,,,79,0
34524,control_change,3,0,7,,,,,,,,,10,11,51,,,
34530,note_on,6,0,7,,,,,,,,,10,,,,77,103
34531,note_on,1,0,7,,,,,,,,,10,,,,81,0
34545,note_on,0,0,7,,,,,,,,,10,,,,79,103
34545,note_on,14,0,7,,,,,,,,,10,,,,77,0
34545,set_tempo,105,1,0,,,,,,1304348,,,,,,,,
34548,control_change,29,0,5,,,,,,,,,4,11,54,,,
34550,control_change,57,0,11,,,,,,,,,13,11,53,,,
34550,control_change,29,0,6,,,,,,,,,5,11,54,,,
34553,control_change,57,0,12,,,,,,,,,14,11,53,,,
34557,note_on,55,0,9,,,,,,,,,12,,,,52,0
34559,note_on,55,0,10,,,,,,,,,6,,,,52,0
34560,note_on,10,0,11,,,,,,,,,13,,,,48,0
34560,set_tempo,15,1,0,,,,,,1034483,,,,,,,,
34560,note_on,15,0,7,,,,,,,,,10,,,,79,0
34560,note_on,0,0,1,,,,,,,,,0,,,,77,96
34560,note_on,0,0,1,,,,,,,,,0,,,,69,96
34560,note_on,0,0,7,,,,,,,,,10,,,,77,90
34560,control_change,0,0,7,,,,,,,,,10,11,52,,,
34560,control_change,240,0,1,,,,,,,,,0,11,47,,,
34562,note_on,0,0,2,,,,,,,,,1,,,,69,95
34562,note_on,5,0,9,,,,,,,,,12,,,,53,101
34562,note_on,60,0,8,,,,,,,,,11,,,,57,57
34562,note_on,0,0,2,,,,,,,,,1,,,,77,95
34562,control_change,240,0,2,,,,,,,,,1,11,47,,,
34563,note_on,0,0,5,,,,,,,,,4,,,,60,82
34563,control_change,240,0,3,,,,,,,,,2,11,47,,,
34563,note_on,15,0,5,,,,,,,,,4,,,,53,82
34563,note_on,0,0,3,,,,,,,,,2,,,,65,83
34563,note_on,0,0,3,,,,,,,,,2,,,,69,83
34563,note_on,10,0,12,,,,,,,,,14,,,,36,0
34564,note_on,5,0,10,,,,,,,,,6,,,,53,104
34565,control_change,0,0,4,,,,,,,,,3,11,57,,,
34565,note_on,0,0,4,,,,,,,,,3,,,,41,95
34565,note_on,240,0,4,,,,,,,,,3,,,,53,95
34565,note_on,5,0,11,,,,,,,,,13,,,,53,100
34568,note_on,5,0,12,,,,,,,,,14,,,,41,96
34573,control_change,11,0,9,,,,,,,,,12,11,57,,,
34573,control_change,11,0,8,,,,,,,,,11,11,57,,,
34574,control_change,14,0,1,,,,,,,,,0,11,58,,,
34575,control_change,11,0,10,,,,,,,,,6,11,57,,,
34576,control_change,14,0,2,,,,,,,,,1,11,58,,,
34577,control_change,14,0,5,,,,,,,,,4,11,55,,,
34577,control_change,14,0,3,,,,,,,,,2,11,58,,,
34579,control_change,29,0,6,,,,,,,,,5,11,55,,,
34603,control_change,29,0,1,,,,,,,,,0,11,59,,,
34605,control_change,29,0,2,,,,,,,,,1,11,59,,,
34606,control_change,29,0,3,,,,,,,,,2,11,59,,,
34606,control_change,29,0,5,,,,,,,,,4,11,56,,,
34608,control_change,43,0,4,,,,,,,,,3,11,59,,,
34608,control_change,43,0,11,,,,,,,,,13,11,54,,,
34608,control_change,29,0,6,,,,,,,,,5,11,56,,,
34611,control_change,43,0,12,,,,,,,,,14,11,54,,,
34620,set_tempo,60,1,0,,,,,,937500,,,,,,,,
34632,control_change,29,0,1,,,,,,,,,0,11,60,,,
34634,control_change,29,0,2,,,,,,,,,1,11,60,,,
34635,control_change,29,0,3,,,,,,,,,2,11,60,,,
34635,control_change,29,0,5,,,,,,,,,4,11,57,,,
34637,control_change,29,0,6,,,,,,,,,5,11,57,,,
34637,control_change,29,0,4,,,,,,,,,3,11,60,,,
34638,control_change,6,0,1,,,,,,,,,0,11,47,,,
34640,control_change,6,0,2,,,,,,,,,1,11,47,,,
34641,control_change,6,0,3,,,,,,,,,2,11,47,,,
34642,control_change,4,0,1,,,,,,,,,0,11,44,,,
34644,control_change,4,0,2,,,,,,,,,1,11,44,,,
34644,control_change,71,0,9,,,,,,,,,12,11,58,,,
34644,control_change,71,0,8,,,,,,,,,11,11,58,,,
34645,control_change,4,0,3,,,,,,,,,2,11,44,,,
34646,control_change,71,0,10,,,,,,,,,6,11,58,,,
34646,control_change,4,0,1,,,,,,,,,0,11,41,,,
34648,control_change,4,0,2,,,,,,,,,1,11,41,,,
34649,control_change,4,0,3,,,,,,,,,2,11,41,,,
34650,control_change,90,0,7,,,,,,,,,10,11,52,,,
34651,control_change,5,0,1,,,,,,,,,0,11,38,,,
34653,control_change,5,0,2,,,,,,,,,1,11,38,,,
34654,control_change,5,0,3,,,,,,,,,2,11,38,,,
34654,control_change,4,0,7,,,,,,,,,10,11,49,,,
34655,control_change,4,0,1,,,,,,,,,0,11,35,,,
34657,control_change,4,0,2,,,,,,,,,1,11,35,,,
34658,control_change,4,0,3,,,,,,,,,2,11,35,,,
34658,control_change,4,0,7,,,,,,,,,10,11,46,,,
34660,control_change,5,0,1,,,,,,,,,0,11,32,,,
34662,control_change,5,0,2,,,,,,,,,1,11,32,,,
34663,control_change,5,0,3,,,,,,,,,2,11,32,,,
34663,control_change,28,0,5,,,,,,,,,4,11,58,,,
34663,control_change,5,0,7,,,,,,,,,10,11,43,,,
34664,control_change,4,0,1,,,,,,,,,0,11,29,,,
34665,control_change,28,0,4,,,,,,,,,3,11,61,,,
34665,control_change,28,0,6,,,,,,,,,5,11,58,,,
34665,control_change,57,0,11,,,,,,,,,13,11,55,,,
34666,control_change,4,0,2,,,,,,,,,1,11,29,,,
34667,control_change,4,0,3,,,,,,,,,2,11,29,,,
34667,control_change,4,0,7,,,,,,,,,10,11,40,,,
34668,control_change,57,0,12,,,,,,,,,14,11,55,,,
34669,control_change,5,0,1,,,,,,,,,0,11,26,,,
34671,control_change,5,0,2,,,,,,,,,1,11,26,,,
34671,control_change,4,0,7,,,,,,,,,10,11,37,,,
34672,control_change,5,0,3,,,,,,,,,2,11,26,,,
34673,control_change,4,0,1,,,,,,,,,0,11,23,,,
34675,control_change,4,0,2,,,,,,,,,1,11,23,,,
34676,control_change,5,0,7,,,,,,,,,10,11,34,,,
34676,control_change,4,0,3,,,,,,,,,2,11,23,,,
34680,note_on,4,0,7,,,,,,,,,10,,,,77,0
34680,note_on,0,0,1,,,,,,,,,0,,,,77,0
34680,note_on,7,0,1,,,,,,,,,0,,,,69,0
34682,note_on,38,0,8,,,,,,,,,11,,,,57,0
34682,note_on,7,0,2,,,,,,,,,1,,,,77,0
34682,note_on,0,0,2,,,,,,,,,1,,,,69,0
34683,note_on,20,0,5,,,,,,,,,4,,,,60,0
34683,note_on,0,0,3,,,,,,,,,2,,,,69,0
34683,note_on,7,0,3,,,,,,,,,2,,,,65,0
34683,note_on,0,0,5,,,,,,,,,4,,,,53,0
34685,note_on,0,0,4,,,,,,,,,3,,,,53,0
34685,note_on,20,0,4,,,,,,,,,3,,,,41,0
34692,control_change,9,0,5,,,,,,,,,4,11,59,,,
34694,control_change,29,0,6,,,,,,,,,5,11,59,,,
34715,control_change,71,0,9,,,,,,,,,12,11,59,,,
34715,control_change,33,0,8,,,,,,,,,11,11,59,,,
34717,control_change,71,0,10,,,,,,,,,6,11,59,,,
34721,control_change,29,0,5,,,,,,,,,4,11,60,,,
34723,control_change,29,0,6,,,,,,,,,5,11,60,,,
34723,control_change,58,0,11,,,,,,,,,13,11,56,,,
34726,control_change,58,0,12,,,,,,,,,14,11,56,,,
34740,set_tempo,120,1,0,,,,,,1034483,,,,,,,,
34750,control_change,29,0,5,,,,,,,,,4,11,61,,,
34752,control_change,29,0,6,,,,,,,,,5,11,61,,,
34779,control_change,29,0,5,,,,,,,,,4,11,62,,,
34781,control_change,29,0,6,,,,,,,,,5,11,62,,,
34781,control_change,58,0,11,,,,,,,,,13,11,57,,,
34784,control_change,58,0,12,,,,,,,,,14,11,57,,,
34787,control_change,72,0,9,,,,,,,,,12,11,60,,,
34787,control_change,72,0,8,,,,,,,,,11,11,60,,,
34789,control_change,72,0,10,,,,,,,,,6,11,60,,,
34800,set_tempo,60,1,0,,,,,,937500,,,,,,,,
34802,note_on,15,0,9,,,,,,,,,12,,,,53,0
34802,note_on,0,0,9,,,,,,,,,12,,,,55,101
34804,note_on,15,0,10,,,,,,,,,6,,,,53,0
34804,note_on,0,0,10,,,,,,,,,6,,,,55,104
34807,control_change,28,0,5,,,,,,,,,4,11,63,,,
34809,control_change,28,0,6,,,,,,,,,5,11,63,,,
34836,control_change,29,0,5,,,,,,,,,4,11,64,,,
34838,control_change,57,0,11,,,,,,,,,13,11,58,,,
34838,control_change,29,0,6,,,,,,,,,5,11,64,,,
34841,control_change,57,0,12,,,,,,,,,14,11,58,,,
34858,control_change,56,0,9,,,,,,,,,12,11,61,,,
34858,control_change,71,0,8,,,,,,,,,11,11,61,,,
34860,note_on,0,0,7,,,,,,,,,10,,,,65,103
34860,control_change,56,0,10,,,,,,,,,6,11,61,,,
34860,control_change,180,0,7,,,,,,,,,10,11,62,,,
34862,note_on,0,0,9,,,,,,,,,12,,,,57,101
34862,note_on,4,0,9,,,,,,,,,12,,,,55,0
34864,note_on,4,0,10,,,,,,,,,6,,,,55,0
34864,note_on,0,0,10,,,,,,,,,6,,,,57,104
34865,control_change,29,0,5,,,,,,,,,4,11,65,,,
34867,control_change,29,0,6,,,,,,,,,5,11,65,,,
34894,control_change,29,0,5,,,,,,,,,4,11,66,,,
34896,control_change,58,0,11,,,,,,,,,13,11,59,,,
34896,control_change,29,0,6,,,,,,,,,5,11,66,,,
34899,control_change,58,0,12,,,,,,,,,14,11,59,,,
34915,note_on,55,0,7,,,,,,,,,10,,,,65,0
34917,note_on,55,0,9,,,,,,,,,12,,,,57,0
34919,note_on,55,0,10,,,,,,,,,6,,,,57,0
34920,set_tempo,120,1,0,,,,,,1034483,,,,,,,,
34920,note_on,24,0,11,,,,,,,,,13,,,,53,0
34920,note_on,5,0,7,,,,,,,,,10,,,,65,103
34922,note_on,5,0,9,,,,,,,,,12,,,,60,101
34923,control_change,240,0,3,,,,,,,,,2,11,68,,,
34923,control_change,29,0,5,,,,,,,,,4,11,67,,,
34923,note_on,0,0,3,,,,,,,,,2,,,,72,83
34923,note_on,0,0,5,,,,,,,,,4,,,,60,82
34923,note_on,24,0,12,,,,,,,,,14,,,,41,0
34923,note_on,0,0,3,,,,,,,,,2,,,,60,83
34924,note_on,5,0,10,,,,,,,,,6,,,,60,104
34925,note_on,5,0,11,,,,,,,,,13,,,,48,100
34925,control_change,0,0,6,,,,,,,,,5,11,67,,,
34925,note_on,29,0,6,,,,,,,,,5,,,,60,82
34928,note_on,5,0,12,,,,,,,,,14,,,,36,96
34929,control_change,7,0,9,,,,,,,,,12,11,62,,,
34929,control_change,71,0,8,,,,,,,,,11,11,62,,,
34931,control_change,7,0,10,,,,,,,,,6,11,62,,,
34935,note_on,15,0,7,,,,,,,,,10,,,,65,0
34935,note_on,0,0,7,,,,,,,,,10,,,,64,103
34937,note_on,8,0,9,,,,,,,,,12,,,,60,0
34937,note_on,0,0,9,,,,,,,,,12,,,,58,101
34938,control_change,3,0,7,,,,,,,,,10,11,63,,,
34939,note_on,8,0,10,,,,,,,,,6,,,,60,0
34939,note_on,0,0,10,,,,,,,,,6,,,,58,104
34951,control_change,28,0,5,,,,,,,,,4,11,68,,,
34951,control_change,28,0,3,,,,,,,,,2,11,69,,,
34953,control_change,28,0,11,,,,,,,,,13,11,60,,,
34953,control_change,28,0,6,,,,,,,,,5,11,68,,,
34956,control_change,28,0,12,,,,,,,,,14,11,60,,,
34980,set_tempo,60,1,0,,,,,,937500,,,,,,,,
34980,note_on,0,0,7,,,,,,,,,10,,,,62,103
34980,control_change,29,0,5,,,,,,,,,4,11,69,,,
34980,note_on,42,0,7,,,,,,,,,10,,,,64,0
34980,control_change,29,0,3,,,,,,,,,2,11,70,,,
34982,control_change,29,0,6,,,,,,,,,5,11,69,,,
35000,control_change,63,0,9,,,,,,,,,12,11,63,,,
35000,control_change,71,0,8,,,,,,,,,11,11,63,,,
35002,control_change,63,0,10,,,,,,,,,6,11,63,,,
35009,control_change,29,0,3,,,,,,,,,2,11,70,,,
35009,control_change,29,0,5,,,,,,,,,4,11,70,,,
35011,control_change,58,0,11,,,,,,,,,13,11,61,,,
35011,control_change,29,0,6,,,,,,,,,5,11,70,,,
35014,control_change,58,0,12,,,,,,,,,14,11,61,,,
35016,control_change,36,0,7,,,,,,,,,10,11,64,,,
35038,control_change,29,0,3,,,,,,,,,2,11,71,,,
35038,control_change,29,0,5,,,,,,,,,4,11,71,,,
35040,note_on,24,0,7,,,,,,,,,10,,,,62,0
35040,note_on,0,0,7,,,,,,,,,10,,,,60,103
35040,control_change,29,0,6,,,,,,,,,5,11,71,,,
35042,note_on,42,0,9,,,,,,,,,12,,,,58,0
35042,note_on,0,0,9,,,,,,,,,12,,,,57,101
35044,note_on,0,0,10,,,,,,,,,6,,,,57,104
35044,note_on,42,0,10,,,,,,,,,6,,,,58,0
35067,control_change,29,0,3,,,,,,,,,2,11,72,,,
35067,control_change,29,0,5,,,,,,,,,4,11,72,,,
35069,control_change,29,0,6,,,,,,,,,5,11,72,,,
35069,control_change,58,0,11,,,,,,,,,13,11,62,,,
35072,control_change,30,0,9,,,,,,,,,12,11,64,,,
35072,control_change,58,0,12,,,,,,,,,14,11,62,,,
35072,control_change,72,0,8,,,,,,,,,11,11,64,,,
35074,control_change,30,0,10,,,,,,,,,6,11,64,,,
35094,control_change,54,0,7,,,,,,,,,10,11,65,,,
35095,control_change,28,0,5,,,,,,,,,4,11,73,,,
35095,control_change,28,0,3,,,,,,,,,2,11,73,,,
35095,note_on,1,0,7,,,,,,,,,10,,,,60,0
35097,control_change,28,0,6,,,,,,,,,5,11,73,,,
35097,note_on,25,0,9,,,,,,,,,12,,,,57,0
35099,note_on,25,0,10,,,,,,,,,6,,,,57,0
35100,set_tempo,120,1,0,,,,,,1034483,,,,,,,,
35100,note_on,5,0,7,,,,,,,,,10,,,,60,103
35102,note_on,5,0,9,,,,,,,,,12,,,,55,101
35104,note_on,5,0,10,,,,,,,,,6,,,,55,104
35124,control_change,29,0,3,,,,,,,,,2,11,74,,,
35124,control_change,29,0,5,,,,,,,,,4,11,74,,,
35126,control_change,29,0,6,,,,,,,,,5,11,74,,,
35126,control_change,57,0,11,,,,,,,,,13,11,63,,,
35129,control_change,57,0,12,,,,,,,,,14,11,63,,,
35143,control_change,41,0,9,,,,,,,,,12,11,65,,,
35143,control_change,71,0,8,,,,,,,,,11,11,65,,,
35145,control_change,41,0,10,,,,,,,,,6,11,65,,,
35153,control_change,29,0,5,,,,,,,,,4,11,75,,,
35153,control_change,29,0,3,,,,,,,,,2,11,75,,,
35155,control_change,29,0,6,,,,,,,,,5,11,75,,,
35160,note_on,60,0,7,,,,,,,,,10,,,,60,0
35160,note_on,0,0,7,,,,,,,,,10,,,,62,103
35160,set_tempo,60,1,0,,,,,,937500,,,,,,,,
35172,control_change,12,0,7,,,,,,,,,10,11,66,,,
35182,control_change,29,0,3,,,,,,,,,2,11,76,,,
35182,control_change,29,0,5,,,,,,,,,4,11,76,,,
35184,control_change,29,0,6,,,,,,,,,5,11,76,,,
35184,control_change,58,0,11,,,,,,,,,13,11,64,,,
35187,control_change,58,0,12,,,,,,,,,14,11,64,,,
35211,control_change,29,0,5,,,,,,,,,4,11,77,,,
35211,control_change,29,0,3,,,,,,,,,2,11,76,,,
35213,control_change,29,0,6,,,,,,,,,5,11,77,,,
35214,control_change,71,0,8,,,,,,,,,11,11,66,,,
35214,control_change,71,0,9,,,,,,,,,12,11,66,,,
35216,control_change,71,0,10,,,,,,,,,6,11,66,,,
35220,note_on,0,0,7,,,,,,,,,10,,,,64,103
35220,note_on,48,0,7,,,,,,,,,10,,,,62,0
35221,program_change,7,0,8,,,,,,,,48,11,,,,,
35222,note_on,1,0,8,,,,,,,,,11,,,,72,103
35222,note_on,8,0,9,,,,,,,,,12,,,,55,0
35222,note_on,0,0,9,,,,,,,,,12,,,,60,101
35224,note_on,8,0,10,,,,,,,,,6,,,,55,0
35224,note_on,0,0,10,,,,,,,,,6,,,,60,104
35239,control_change,28,0,3,,,,,,,,,2,11,77,,,
35239,control_change,28,0,5,,,,,,,,,4,11,78,,,
35241,control_change,57,0,11,,,,,,,,,13,11,65,,,
35241,control_change,28,0,6,,,,,,,,,5,11,78,,,
35244,control_change,57,0,12,,,,,,,,,14,11,65,,,
35250,control_change,30,0,7,,,,,,,,,10,11,67,,,
35268,control_change,29,0,5,,,,,,,,,4,11,79,,,
35268,control_change,29,0,3,,,,,,,,,2,11,78,,,
35270,control_change,29,0,6,,,,,,,,,5,11,79,,,
35277,note_on,55,0,8,,,,,,,,,11,,,,72,0
35277,note_on,55,0,9,,,,,,,,,12,,,,60,0
35278,note_on,10,0,5,,,,,,,,,4,,,,60,0
35279,note_on,55,0,10,,,,,,,,,6,,,,60,0
35280,set_tempo,120,1,0,,,,,,1034483,,,,,,,,
35280,note_on,39,0,11,,,,,,,,,13,,,,48,0
35280,note_on,10,0,6,,,,,,,,,5,,,,60,0
35280,note_on,0,0,7,,,,,,,,,10,,,,65,103
35280,note_on,30,0,7,,,,,,,,,10,,,,64,0
35282,note_on,5,0,8,,,,,,,,,11,,,,74,103
35282,note_on,5,0,9,,,,,,,,,12,,,,57,101
35283,note_on,5,0,5,,,,,,,,,4,,,,60,82
35283,note_on,39,0,12,,,,,,,,,14,,,,36,0
35284,note_on,5,0,10,,,,,,,,,6,,,,57,104
35285,note_on,5,0,6,,,,,,,,,5,,,,60,82
35285,note_on,5,0,11,,,,,,,,,13,,,,53,100
35285,control_change,3,0,9,,,,,,,,,12,11,67,,,
35285,control_change,3,0,8,,,,,,,,,11,11,67,,,
35287,control_change,3,0,10,,,,,,,,,6,11,67,,,
35288,note_on,5,0,12,,,,,,,,,14,,,,41,96
35297,note_on,0,0,8,,,,,,,,,11,,,,72,103
35297,control_change,29,0,3,,,,,,,,,2,11,79,,,
35297,control_change,14,0,5,,,,,,,,,4,11,80,,,
35297,note_on,12,0,8,,,,,,,,,11,,,,74,0
35299,control_change,14,0,11,,,,,,,,,13,11,66,,,
35299,control_change,14,0,6,,,,,,,,,5,11,80,,,
35302,control_change,14,0,12,,,,,,,,,14,11,66,,,
35326,control_change,29,0,5,,,,,,,,,4,11,81,,,
35326,control_change,29,0,3,,,,,,,,,2,11,80,,,
35328,control_change,29,0,6,,,,,,,,,5,11,81,,,
35328,control_change,48,0,7,,,,,,,,,10,11,68,,,
35340,set_tempo,60,1,0,,,,,,937500,,,,,,,,
35342,note_on,0,0,8,,,,,,,,,11,,,,70,103
35342,note_on,45,0,8,,,,,,,,,11,,,,72,0
35355,control_change,29,0,5,,,,,,,,,4,11,82,,,
35355,control_change,29,0,3,,,,,,,,,2,11,80,,,
35357,control_change,58,0,11,,,,,,,,,13,11,67,,,
35357,control_change,72,0,9,,,,,,,,,12,11,68,,,
35357,control_change,29,0,6,,,,,,,,,5,11,82,,,
35357,control_change,15,0,8,,,,,,,,,11,11,68,,,
35359,control_change,72,0,10,,,,,,,,,6,11,68,,,
35360,control_change,58,0,12,,,,,,,,,14,11,67,,,
35383,control_change,28,0,3,,,,,,,,,2,11,81,,,
35383,control_change,28,0,5,,,,,,,,,4,11,83,,,
35385,control_change,28,0,6,,,,,,,,,5,11,83,,,
35402,note_on,45,0,8,,,,,,,,,11,,,,70,0
35402,note_on,0,0,8,,,,,,,,,11,,,,69,103
35406,control_change,78,0,7,,,,,,,,,10,11,69,,,
35412,control_change,29,0,3,,,,,,,,,2,11,82,,,
35412,control_change,29,0,5,,,,,,,,,4,11,84,,,
35414,control_change,29,0,6,,,,,,,,,5,11,84,,,
35414,control_change,57,0,11,,,,,,,,,13,11,68,,,
35417,control_change,57,0,12,,,,,,,,,14,11,68,,,
35428,control_change,26,0,8,,,,,,,,,11,11,69,,,
35428,control_change,71,0,9,,,,,,,,,12,11,69,,,
35430,control_change,71,0,10,,,,,,,,,6,11,69,,,
35441,control_change,29,0,5,,,,,,,,,4,11,85,,,
35441,control_change,29,0,3,,,,,,,,,2,11,83,,,
35443,control_change,29,0,6,,,,,,,,,5,11,85,,,
35457,note_on,29,0,8,,,,,,,,,11,,,,69,0
35460,set_tempo,120,1,0,,,,,,1034483,,,,,,,,
35462,note_on,5,0,8,,,,,,,,,11,,,,70,103
35470,control_change,29,0,5,,,,,,,,,4,11,86,,,
35470,control_change,29,0,3,,,,,,,,,2,11,84,,,
35472,control_change,29,0,6,,,,,,,,,5,11,86,,,
35472,control_change,58,0,11,,,,,,,,,13,11,69,,,
35475,control_change,58,0,12,,,,,,,,,14,11,69,,,
35477,note_on,0,0,8,,,,,,,,,11,,,,69,103
35477,note_on,15,0,8,,,,,,,,,11,,,,70,0
35484,control_change,78,0,7,,,,,,,,,10,11,70,,,
35499,control_change,22,0,8,,,,,,,,,11,11,70,,,
35499,control_change,29,0,3,,,,,,,,,2,11,85,,,
35499,control_change,71,0,9,,,,,,,,,12,11,70,,,
35499,control_change,29,0,5,,,,,,,,,4,11,87,,,
35501,control_change,71,0,10,,,,,,,,,6,11,70,,,
35501,control_change,29,0,6,,,,,,,,,5,11,87,,,
35520,note_on,0,0,7,,,,,,,,,10,,,,67,103
35520,set_tempo,60,1,0,,,,,,937500,,,,,,,,
35520,note_on,36,0,7,,,,,,,,,10,,,,65,0
35522,note_on,23,0,9,,,,,,,,,12,,,,57,0
35522,note_on,0,0,8,,,,,,,,,11,,,,67,103
35522,note_on,23,0,8,,,,,,,,,11,,,,69,0
35522,note_on,0,0,9,,,,,,,,,12,,,,55,101
35524,note_on,0,0,10,,,,,,,,,6,,,,55,104
35524,note_on,23,0,10,,,,,,,,,6,,,,57,0
35527,control_change,28,0,5,,,,,,,,,4,11,88,,,
35527,control_change,28,0,3,,,,,,,,,2,11,86,,,
35529,control_change,57,0,11,,,,,,,,,13,11,70,,,
35529,control_change,28,0,6,,,,,,,,,5,11,88,,,
35532,control_change,57,0,12,,,,,,,,,14,11,70,,,
35556,control_change,29,0,3,,,,,,,,,2,11,86,,,
35556,control_change,29,0,5,,,,,,,,,4,11,89,,,
35558,control_change,29,0,6,,,,,,,,,5,11,89,,,
35562,control_change,42,0,7,,,,,,,,,10,11,71,,,
35570,control_change,48,0,8,,,,,,,,,11,11,71,,,
35570,control_change,48,0,9,,,,,,,,,12,11,71,,,
35572,control_change,48,0,10,,,,,,,,,6,11,71,,,
35578,note_on,22,0,3,,,,,,,,,2,,,,72,0
35578,note_on,0,0,3,,,,,,,,,2,,,,60,0
35578,note_on,22,0,5,,,,,,,,,4,,,,60,0
35580,note_on,18,0,7,,,,,,,,,10,,,,67,0
35580,note_on,0,0,7,,,,,,,,,10,,,,69,103
35580,note_on,51,0,11,,,,,,,,,13,,,,53,0
35580,note_on,22,0,6,,,,,,,,,5,,,,60,0
35580,control_change,900,0,1,,,,,,,,,0,11,86,,,
35580,note_on,0,0,1,,,,,,,,,0,,,,89,96
35582,note_on,0,0,2,,,,,,,,,1,,,,77,95
35582,note_on,12,0,8,,,,,,,,,11,,,,67,0
35582,note_on,0,0,8,,,,,,,,,11,,,,65,103
35582,control_change,900,0,2,,,,,,,,,1,11,86,,,
35582,note_on,0,0,2,,,,,,,,,1,,,,72,95
35582,note_on,12,0,9,,,,,,,,,12,,,,55,0
35582,note_on,0,0,9,,,,,,,,,12,,,,53,101
35583,note_on,5,0,5,,,,,,,,,4,,,,60,82
35583,note_on,51,0,12,,,,,,,,,14,,,,41,0
35583,note_on,0,0,3,,,,,,,,,2,,,,65,96
35583,note_on,5,0,3,,,,,,,,,2,,,,69,96
35584,note_on,12,0,10,,,,,,,,,6,,,,55,0
35584,note_on,0,0,10,,,,,,,,,6,,,,53,104
35585,control_change,2,0,3,,,,,,,,,2,11,87,,,
35585,control_change,2,0,5,,,,,,,,,4,11,90,,,
35585,note_on,0,0,4,,,,,,,,,3,,,,48,95
35585,note_on,5,0,11,,,,,,,,,13,,,,48,100
35585,control_change,900,0,4,,,,,,,,,3,11,86,,,
35585,note_on,5,0,6,,,,,,,,,5,,,,60,82
35585,note_on,0,0,4,,,,,,,,,3,,,,60,95
35587,control_change,2,0,6,,,,,,,,,5,11,90,,,
35587,control_change,2,0,11,,,,,,,,,13,11,71,,,
35588,note_on,5,0,12,,,,,,,,,14,,,,36,96
35590,control_change,2,0,12,,,,,,,,,14,11,71,,,
35611,control_change,31,0,1,,,,,,,,,0,11,88,,,
35613,control_change,31,0,2,,,,,,,,,1,11,88,,,
35614,control_change,29,0,5,,,,,,,,,4,11,91,,,
35614,control_change,29,0,3,,,,,,,,,2,11,88,,,
35616,control_change,31,0,4,,,,,,,,,3,11,88,,,
35616,control_change,29,0,6,,,,,,,,,5,11,91,,,
35635,note_on,55,0,7,,,,,,,,,10,,,,69,0
35635,note_on,24,0,1,,,,,,,,,0,,,,89,0
35637,note_on,55,0,9,,,,,,,,,12,,,,53,0
35637,note_on,24,0,2,,,,,,,,,1,,,,77,0
35637,note_on,0,0,2,,,,,,,,,1,,,,72,0
35638,note_on,24,0,3,,,,,,,,,2,,,,65,0
35638,note_on,0,0,3,,,,,,,,,2,,,,69,0
35639,note_on,55,0,10,,,,,,,,,6,,,,53,0
35640,note_on,24,0,4,,,,,,,,,3,,,,60,0
35640,note_on,53,0,11,,,,,,,,,13,,,,48,0
35640,note_on,0,0,4,,,,,,,,,3,,,,48,0
35640,note_on,0,0,7,,,,,,,,,10,,,,72,103
35640,control_change,5,0,7,,,,,,,,,10,11,72,,,
35640,note_on,0,0,1,,,,,,,,,0,,,,89,96
35640,control_change,5,0,1,,,,,,,,,0,11,89,,,
35640,set_tempo,120,1,0,,,,,,1034483,,,,,,,,
35642,note_on,0,0,9,,,,,,,,,12,,,,55,76
35642,control_change,5,0,9,,,,,,,,,12,11,72,,,
35642,note_on,0,0,8,,,,,,,,,11,,,,67,78
35642,note_on,60,0,8,,,,,,,,,11,,,,65,0
35642,control_change,0,0,8,,,,,,,,,11,11,72,,,
35642,note_on,5,0,2,,,,,,,,,1,,,,77,95
35642,control_change,0,0,2,,,,,,,,,1,11,89,,,
35642,note_on,0,0,2,,,,,,,,,1,,,,72,95
35643,control_change,0,0,3,,,,,,,,,2,11,89,,,
35643,note_on,5,0,3,,,,,,,,,2,,,,70,96
35643,control_change,3,0,7,,,,,,,,,10,11,75,,,
35643,note_on,53,0,12,,,,,,,,,14,,,,36,0
35643,control_change,29,0,5,,,,,,,,,4,11,92,,,
35643,note_on,0,0,3,,,,,,,,,2,,,,67,96
35644,control_change,5,0,10,,,,,,,,,6,11,72,,,
35644,note_on,0,0,10,,,,,,,,,6,,,,48,104
35645,control_change,29,0,6,,,,,,,,,5,11,92,,,
35645,note_on,0,0,11,,,,,,,,,13,,,,48,100
35645,note_on,0,0,4,,,,,,,,,3,,,,60,95
35645,control_change,0,0,4,,,,,,,,,3,11,89,,,
35645,note_on,5,0,4,,,,,,,,,3,,,,48,95
35645,control_change,5,0,11,,,,,,,,,13,11,72,,,
35645,control_change,3,0,9,,,,,,,,,12,11,75,,,
35645,control_change,3,0,8,,,,,,,,,11,11,75,,,
35646,control_change,3,0,7,,,,,,,,,10,11,78,,,
35647,control_change,3,0,10,,,,,,,,,6,11,75,,,
35648,control_change,3,0,11,,,,,,,,,13,11,75,,,
35648,control_change,3,0,9,,,,,,,,,12,11,78,,,
35648,control_change,3,0,8,,,,,,,,,11,11,78,,,
35648,note_on,0,0,12,,,,,,,,,14,,,,36,96
35648,control_change,5,0,12,,,,,,,,,14,11,72,,,
35649,control_change,3,0,7,,,,,,,,,10,11,81,,,
35650,control_change,3,0,10,,,,,,,,,6,11,78,,,
35651,control_change,3,0,8,,,,,,,,,11,11,81,,,
35651,control_change,3,0,11,,,,,,,,,13,11,78,,,
35651,control_change,3,0,9,,,,,,,,,12,11,81,,,
35651,control_change,3,0,12,,,,,,,,,14,11,75,,,
35652,control_change,3,0,7,,,,,,,,,10,11,84,,,
35653,control_change,3,0,10,,,,,,,,,6,11,81,,,
35654,control_change,3,0,12,,,,,,,,,14,11,78,,,
35654,control_change,3,0,8,,,,,,,,,11,11,84,,,
35654,control_change,3,0,11,,,,,,,,,13,11,81,,,
35654,control_change,3,0,9,,,,,,,,,12,11,84,,,
35655,note_on,15,0,1,,,,,,,,,0,,,,89,0
35655,note_on,0,0,7,,,,,,,,,10,,,,70,103
35655,note_on,3,0,7,,,,,,,,,10,,,,72,0
35655,control_change,0,0,7,,,,,,,,,10,11,87,,,
35655,note_on,0,0,1,,,,,,,,,0,,,,88,96
35656,control_change,3,0,10,,,,,,,,,6,11,84,,,
35657,control_change,3,0,11,,,,,,,,,13,11,84,,,
35657,control_change,3,0,9,,,,,,,,,12,11,87,,,
35657,note_on,0,0,2,,,,,,,,,1,,,,76,95
35657,control_change,3,0,8,,,,,,,,,11,11,87,,,
35657,control_change,3,0,12,,,,,,,,,14,11,81,,,
35657,note_on,15,0,2,,,,,,,,,1,,,,77,0
35658,control_change,3,0,1,,,,,,,,,0,11,86,,,
35659,control_change,3,0,10,,,,,,,,,6,11,87,,,
35660,control_change,3,0,2,,,,,,,,,1,11,86,,,
35660,control_change,3,0,11,,,,,,,,,13,11,87,,,
35660,control_change,3,0,12,,,,,,,,,14,11,84,,,
35661,control_change,18,0,3,,,,,,,,,2,11,86,,,
35661,control_change,18,0,5,,,,,,,,,4,11,89,,,
35663,control_change,18,0,4,,,,,,,,,3,11,86,,,
35663,control_change,18,0,6,,,,,,,,,5,11,89,,,
35663,control_change,3,0,12,,,,,,,,,14,11,87,,,
35672,note_on,15,0,9,,,,,,,,,12,,,,55,0
35672,note_on,0,0,8,,,,,,,,,11,,,,60,78
35672,note_on,15,0,8,,,,,,,,,11,,,,67,0
35672,note_on,0,0,9,,,,,,,,,12,,,,48,76
35676,control_change,18,0,1,,,,,,,,,0,11,84,,,
35677,control_change,22,0,7,,,,,,,,,10,11,85,,,
35678,control_change,18,0,2,,,,,,,,,1,11,84,,,
35679,control_change,7,0,8,,,,,,,,,11,11,85,,,
35679,control_change,18,0,5,,,,,,,,,4,11,86,,,
35679,control_change,18,0,3,,,,,,,,,2,11,84,,,
35679,control_change,7,0,9,,,,,,,,,12,11,85,,,
35681,control_change,18,0,6,,,,,,,,,5,11,86,,,
35681,control_change,18,0,4,,,,,,,,,3,11,84,,,
35681,control_change,22,0,10,,,,,,,,,6,11,85,,,
35682,control_change,22,0,11,,,,,,,,,13,11,85,,,
35685,control_change,22,0,12,,,,,,,,,14,11,85,,,
35694,control_change,18,0,1,,,,,,,,,0,11,81,,,
35696,control_change,18,0,2,,,,,,,,,1,11,81,,,
35697,control_change,18,0,5,,,,,,,,,4,11,83,,,
35697,control_change,18,0,3,,,,,,,,,2,11,81,,,
35699,control_change,18,0,4,,,,,,,,,3,11,81,,,
35699,control_change,22,0,7,,,,,,,,,10,11,83,,,
35699,control_change,18,0,6,,,,,,,,,5,11,83,,,
35700,note_on,0,0,1,,,,,,,,,0,,,,86,96
35700,note_on,6,0,1,,,,,,,,,0,,,,88,0
35700,set_tempo,60,1,0,,,,,,937500,,,,,,,,
35701,control_change,22,0,9,,,,,,,,,12,11,83,,,
35701,control_change,22,0,8,,,,,,,,,11,11,83,,,
35702,note_on,1,0,9,,,,,,,,,12,,,,48,0
35702,note_on,0,0,9,,,,,,,,,12,,,,55,76
35702,note_on,6,0,2,,,,,,,,,1,,,,76,0
35702,note_on,1,0,8,,,,,,,,,11,,,,60,0
35702,note_on,0,0,8,,,,,,,,,11,,,,67,78
35702,note_on,0,0,2,,,,,,,,,1,,,,74,95
35703,control_change,22,0,10,,,,,,,,,6,11,83,,,
35703,note_on,0,0,3,,,,,,,,,2,,,,67,96
35703,note_on,6,0,3,,,,,,,,,2,,,,67,0
35703,note_on,0,0,3,,,,,,,,,2,,,,64,96
35703,note_on,0,0,3,,,,,,,,,2,,,,70,0
35704,control_change,22,0,11,,,,,,,,,13,11,83,,,
35707,control_change,22,0,12,,,,,,,,,14,11,83,,,
35715,control_change,15,0,1,,,,,,,,,0,11,79,,,
35717,control_change,15,0,2,,,,,,,,,1,11,79,,,
35718,control_change,15,0,3,,,,,,,,,2,11,79,,,
35718,control_change,21,0,5,,,,,,,,,4,11,80,,,
35720,control_change,21,0,6,,,,,,,,,5,11,80,,,
35720,control_change,21,0,4,,,,,,,,,3,11,79,,,
35721,control_change,22,0,7,,,,,,,,,10,11,81,,,
35723,control_change,21,0,8,,,,,,,,,11,11,81,,,
35723,control_change,21,0,9,,,,,,,,,12,11,81,,,
35725,control_change,22,0,10,,,,,,,,,6,11,81,,,
35726,control_change,22,0,11,,,,,,,,,13,11,81,,,
35729,control_change,22,0,12,,,,,,,,,14,11,81,,,
35730,control_change,15,0,1,,,,,,,,,0,11,77,,,
35732,note_on,9,0,9,,,,,,,,,12,,,,55,0
35732,note_on,0,0,9,,,,,,,,,12,,,,48,76
35732,note_on,9,0,8,,,,,,,,,11,,,,67,0
35732,note_on,0,0,8,,,,,,,,,11,,,,60,78
35732,control_change,15,0,2,,,,,,,,,1,11,77,,,
35733,control_change,15,0,3,,,,,,,,,2,11,77,,,
35733,control_change,15,0,5,,,,,,,,,4,11,78,,,
35735,control_change,15,0,4,,,,,,,,,3,11,77,,,
35735,control_change,15,0,6,,,,,,,,,5,11,78,,,
35743,control_change,22,0,7,,,,,,,,,10,11,79,,,
35745,control_change,13,0,9,,,,,,,,,12,11,79,,,
35745,control_change,15,0,1,,,,,,,,,0,11,76,,,
35745,control_change,13,0,8,,,,,,,,,11,11,79,,,
35747,control_change,22,0,10,,,,,,,,,6,11,79,,,
35747,control_change,15,0,2,,,,,,,,,1,11,76,,,
35748,control_change,15,0,3,,,,,,,,,2,11,76,,,
35748,control_change,22,0,11,,,,,,,,,13,11,79,,,
35748,control_change,15,0,5,,,,,,,,,4,11,76,,,
35750,control_change,15,0,4,,,,,,,,,3,11,76,,,
35750,control_change,15,0,6,,,,,,,,,5,11,76,,,
35751,control_change,22,0,12,,,,,,,,,14,11,79,,,
35758,note_on,10,0,5,,,,,,,,,4,,,,60,0
35759,note_on,12,0,10,,,,,,,,,6,,,,48,0
35760,note_on,17,0,7,,,,,,,,,10,,,,70,0
35760,note_on,10,0,4,,,,,,,,,3,,,,60,0
35760,note_on,0,0,7,,,,,,,,,10,,,,69,103
35760,note_on,0,0,4,,,,,,,,,3,,,,48,0
35760,note_on,12,0,11,,,,,,,,,13,,,,48,0
35760,control_change,0,0,1,,,,,,,,,0,11,74,,,
35760,note_on,10,0,6,,,,,,,,,5,,,,60,0
35760,note_on,0,0,1,,,,,,,,,0,,,,84,96
35760,note_on,15,0,1,,,,,,,,,0,,,,86,0
35762,note_on,15,0,2,,,,,,,,,1,,,,74,0
35762,control_change,0,0,2,,,,,,,,,1,11,74,,,
35762,note_on,0,0,8,,,,,,,,,11,,,,65,78
35762,note_on,17,0,8,,,,,,,,,11,,,,60,0
35762,note_on,17,0,9,,,,,,,,,12,,,,48,0
35762,note_on,0,0,9,,,,,,,,,12,,,,55,76
35762,note_on,0,0,2,,,,,,,,,1,,,,72,95
35763,note_on,0,0,5,,,,,,,,,4,,,,60,82
35763,note_on,0,0,3,,,,,,,,,2,,,,65,96
35763,note_on,0,0,3,,,,,,,,,2,,,,69,96
35763,note_on,0,0,3,,,,,,,,,2,,,,67,0
35763,note_on,15,0,3,,,,,,,,,2,,,,64,0
35763,note_on,12,0,12,,,,,,,,,14,,,,36,0
35763,control_change,0,0,3,,,,,,,,,2,11,74,,,
35763,control_change,5,0,5,,,,,,,,,4,11,74,,,
35764,note_on,5,0,10,,,,,,,,,6,,,,48,104
35765,control_change,5,0,7,,,,,,,,,10,11,77,,,
35765,control_change,5,0,6,,,,,,,,,5,11,74,,,
35765,note_on,0,0,6,,,,,,,,,5,,,,60,82
35765,control_change,0,0,4,,,,,,,,,3,11,74,,,
35765,note_on,5,0,4,,,,,,,,,3,,,,60,95
35765,note_on,0,0,4,,,,,,,,,3,,,,48,95
35765,note_on,5,0,11,,,,,,,,,13,,,,48,100
35767,control_change,5,0,9,,,,,,,,,12,11,77,,,
35767,control_change,5,0,8,,,,,,,,,11,11,77,,,
35768,note_on,5,0,12,,,,,,,,,14,,,,36,96
35769,control_change,5,0,10,,,,,,,,,6,11,77,,,
35770,control_change,5,0,11,,,,,,,,,13,11,77,,,
35773,control_change,5,0,12,,,,,,,,,14,11,77,,,
35775,control_change,15,0,1,,,,,,,,,0,11,72,,,
35777,control_change,15,0,2,,,,,,,,,1,11,72,,,
35778,control_change,15,0,5,,,,,,,,,4,11,72,,,
35778,control_change,15,0,3,,,,,,,,,2,11,72,,,
35780,control_change,15,0,6,,,,,,,,,5,11,72,,,
35780,control_change,15,0,4,,,,,,,,,3,11,72,,,
35787,control_change,22,0,7,,,,,,,,,10,11,75,,,
35789,control_change,22,0,9,,,,,,,,,12,11,75,,,
35789,control_change,22,0,8,,,,,,,,,11,11,75,,,
35790,control_change,15,0,1,,,,,,,,,0,11,70,,,
35791,control_change,22,0,10,,,,,,,,,6,11,75,,,
35792,control_change,15,0,2,,,,,,,,,1,11,70,,,
35792,control_change,22,0,11,,,,,,,,,13,11,75,,,
35792,note_on,3,0,9,,,,,,,,,12,,,,55,0
35792,note_on,0,0,9,,,,,,,,,12,,,,48,76
35792,note_on,3,0,8,,,,,,,,,11,,,,65,0
35792,note_on,0,0,8,,,,,,,,,11,,,,60,78
35793,control_change,15,0,3,,,,,,,,,2,11,70,,,
35793,control_change,15,0,5,,,,,,,,,4,11,70,,,
35795,control_change,15,0,6,,,,,,,,,5,11,70,,,
35795,control_change,22,0,12,,,,,,,,,14,11,75,,,
35795,control_change,15,0,4,,,,,,,,,3,11,70,,,
35805,control_change,15,0,1,,,,,,,,,0,11,69,,,
35807,control_change,15,0,2,,,,,,,,,1,11,69,,,
35808,control_change,15,0,5,,,,,,,,,4,11,68,,,
35808,control_change,15,0,3,,,,,,,,,2,11,69,,,
35809,control_change,22,0,7,,,,,,,,,10,11,73,,,
35810,control_change,15,0,4,,,,,,,,,3,11,69,,,
35810,control_change,15,0,6,,,,,,,,,5,11,68,,,
35811,control_change,19,0,8,,,,,,,,,11,11,73,,,
35811,control_change,19,0,9,,,,,,,,,12,11,73,,,
35813,control_change,22,0,10,,,,,,,,,6,11,73,,,
35814,control_change,22,0,11,,,,,,,,,13,11,73,,,
35815,note_on,10,0,1,,,,,,,,,0,,,,84,0
35817,control_change,22,0,12,,,,,,,,,14,11,73,,,
35817,note_on,10,0,2,,,,,,,,,1,,,,72,0
35818,note_on,10,0,5,,,,,,,,,4,,,,60,0
35820,note_on,0,0,7,,,,,,,,,10,,,,67,103
35820,control_change,0,0,1,,,,,,,,,0,11,67,,,
35820,note_on,5,0,1,,,,,,,,,0,,,,84,96
35820,note_on,10,0,6,,,,,,,,,5,,,,60,0
35820,set_tempo,120,1,0,,,,,,1034483,,,,,,,,
35820,note_on,11,0,7,,,,,,,,,10,,,,69,0
35822,note_on,0,0,2,,,,,,,,,1,,,,72,95
35822,control_change,0,0,2,,,,,,,,,1,11,67,,,
35822,note_on,5,0,2,,,,,,,,,1,,,,72,0
35822,note_on,0,0,8,,,,,,,,,11,,,,64,78
35822,note_on,0,0,9,,,,,,,,,12,,,,52,76
35822,note_on,11,0,9,,,,,,,,,12,,,,48,0
35822,note_on,11,0,8,,,,,,,,,11,,,,60,0
35823,note_on,0,0,5,,,,,,,,,4,,,,60,82
35823,control_change,0,0,3,,,,,,,,,2,11,67,,,
35823,note_on,0,0,3,,,,,,,,,2,,,,64,96
35823,note_on,0,0,3,,,,,,,,,2,,,,67,96
35823,control_change,5,0,5,,,,,,,,,4,11,66,,,
35823,note_on,0,0,3,,,,,,,,,2,,,,69,0
35823,note_on,15,0,3,,,,,,,,,2,,,,65,0
35824,note_on,11,0,10,,,,,,,,,6,,,,48,0
35824,note_on,0,0,10,,,,,,,,,6,,,,46,104
35825,control_change,0,0,4,,,,,,,,,3,11,67,,,
35825,note_on,0,0,4,,,,,,,,,3,,,,46,95
35825,note_on,0,0,4,,,,,,,,,3,,,,58,95
35825,note_on,0,0,4,,,,,,,,,3,,,,60,0
35825,note_on,0,0,6,,,,,,,,,5,,,,60,82
35825,note_on,0,0,11,,,,,,,,,13,,,,46,100
35825,note_on,11,0,11,,,,,,,,,13,,,,48,0
35825,control_change,5,0,6,,,,,,,,,5,11,66,,,
35825,note_on,15,0,4,,,,,,,,,3,,,,48,0
35827,control_change,7,0,7,,,,,,,,,10,11,71,,,
35828,note_on,0,0,12,,,,,,,,,14,,,,34,96
35828,note_on,11,0,12,,,,,,,,,14,,,,36,0
35829,control_change,7,0,8,,,,,,,,,11,11,71,,,
35829,control_change,7,0,9,,,,,,,,,12,11,71,,,
35831,control_change,7,0,10,,,,,,,,,6,11,71,,,
35832,control_change,7,0,11,,,,,,,,,13,11,71,,,
35835,control_change,7,0,12,,,,,,,,,14,11,71,,,
35835,control_change,15,0,1,,,,,,,,,0,11,65,,,
35837,control_change,15,0,2,,,,,,,,,1,11,65,,,
35838,control_change,15,0,5,,,,,,,,,4,11,64,,,
35838,control_change,15,0,3,,,,,,,,,2,11,65,,,
35840,control_change,15,0,6,,,,,,,,,5,11,64,,,
35840,control_change,15,0,4,,,,,,,,,3,11,65,,,
35848,control_change,21,0,7,,,,,,,,,10,11,68,,,
35850,control_change,21,0,8,,,,,,,,,11,11,68,,,
35850,control_change,15,0,1,,,,,,,,,0,11,64,,,
35850,control_change,21,0,9,,,,,,,,,12,11,68,,,
35852,control_change,15,0,2,,,,,,,,,1,11,64,,,
35852,note_on,0,0,8,,,,,,,,,11,,,,60,78
35852,note_on,2,0,8,,,,,,,,,11,,,,64,0
35852,control_change,21,0,10,,,,,,,,,6,11,68,,,
35852,note_on,0,0,9,,,,,,,,,12,,,,48,76
35852,note_on,2,0,9,,,,,,,,,12,,,,52,0
35853,control_change,21,0,11,,,,,,,,,13,11,68,,,
35853,control_change,15,0,5,,,,,,,,,4,11,62,,,
35853,control_change,15,0,3,,,,,,,,,2,11,64,,,
35855,control_change,15,0,6,,,,,,,,,5,11,62,,,
35855,control_change,15,0,4,,,,,,,,,3,11,64,,,
35856,control_change,21,0,12,,,,,,,,,14,11,68,,,
35863,control_change,15,0,7,,,,,,,,,10,11,66,,,
35865,control_change,13,0,9,,,,,,,,,12,11,66,,,
35865,control_change,13,0,8,,,,,,,,,11,11,66,,,
35865,control_change,15,0,1,,,,,,,,,0,11,62,,,
35867,control_change,15,0,2,,,,,,,,,1,11,62,,,
35867,control_change,15,0,10,,,,,,,,,6,11,66,,,
35868,control_change,15,0,3,,,,,,,,,2,11,62,,,
35868,control_change,15,0,5,,,,,,,,,4,11,60,,,
35868,control_change,15,0,11,,,,,,,,,13,11,66,,,
35870,control_change,15,0,4,,,,,,,,,3,11,62,,,
35870,control_change,15,0,6,,,,,,,,,5,11,60,,,
35871,control_change,15,0,12,,,,,,,,,14,11,66,,,
35878,note_on,10,0,5,,,,,,,,,4,,,,60,0
35880,set_tempo,60,1,0,,,,,,937500,,,,,,,,
35880,note_on,15,0,1,,,,,,,,,0,,,,84,0
35880,control_change,0,0,1,,,,,,,,,0,11,61,,,
35880,note_on,0,0,1,,,,,,,,,0,,,,86,96
35880,note_on,10,0,6,,,,,,,,,5,,,,60,0
35882,note_on,0,0,2,,,,,,,,,1,,,,72,95
35882,note_on,0,0,8,,,,,,,,,11,,,,65,78
35882,note_on,17,0,8,,,,,,,,,11,,,,60,0
35882,control_change,0,0,2,,,,,,,,,1,11,61,,,
35882,note_on,15,0,2,,,,,,,,,1,,,,72,0
35882,note_on,0,0,9,,,,,,,,,12,,,,53,76
35882,note_on,17,0,9,,,,,,,,,12,,,,48,0
35882,note_on,0,0,2,,,,,,,,,1,,,,74,95
35883,control_change,0,0,3,,,,,,,,,2,11,61,,,
35883,note_on,0,0,3,,,,,,,,,2,,,,65,96
35883,control_change,5,0,5,,,,,,,,,4,11,58,,,
35883,note_on,15,0,3,,,,,,,,,2,,,,64,0
35883,note_on,0,0,5,,,,,,,,,4,,,,60,82
35883,note_on,0,0,3,,,,,,,,,2,,,,67,0
35883,note_on,0,0,3,,,,,,,,,2,,,,69,96
35884,note_on,0,0,10,,,,,,,,,6,,,,45,104
35884,note_on,17,0,10,,,,,,,,,6,,,,46,0
35884,control_change,21,0,7,,,,,,,,,10,11,63,,,
35885,control_change,0,0,4,,,,,,,,,3,11,61,,,
35885,note_on,15,0,4,,,,,,,,,3,,,,46,0
35885,note_on,17,0,11,,,,,,,,,13,,,,46,0
35885,note_on,0,0,11,,,,,,,,,13,,,,45,100
35885,note_on,0,0,4,,,,,,,,,3,,,,57,95
35885,control_change,5,0,6,,,,,,,,,5,11,58,,,
35885,note_on,0,0,4,,,,,,,,,3,,,,45,95
35885,note_on,0,0,4,,,,,,,,,3,,,,58,0
35885,note_on,0,0,6,,,,,,,,,5,,,,60,82
35886,control_change,4,0,9,,,,,,,,,12,11,63,,,
35886,control_change,4,0,8,,,,,,,,,11,11,63,,,
35888,note_on,0,0,12,,,,,,,,,14,,,,33,96
35888,control_change,4,0,10,,,,,,,,,6,11,63,,,
35888,note_on,17,0,12,,,,,,,,,14,,,,34,0
35889,control_change,4,0,11,,,,,,,,,13,11,63,,,
35892,control_change,4,0,12,,,,,,,,,14,11,63,,,
35895,control_change,15,0,1,,,,,,,,,0,11,59,,,
35897,control_change,15,0,2,,,,,,,,,1,11,59,,,
35898,control_change,15,0,3,,,,,,,,,2,11,59,,,
35898,control_change,15,0,5,,,,,,,,,4,11,56,,,
35899,control_change,15,0,7,,,,,,,,,10,11,61,,,
35900,control_change,15,0,6,,,,,,,,,5,11,56,,,
35900,control_change,15,0,4,,,,,,,,,3,11,59,,,
35901,control_change,15,0,8,,,,,,,,,11,11,61,,,
35901,control_change,15,0,9,,,,,,,,,12,11,61,,,
35903,control_change,15,0,10,,,,,,,,,6,11,61,,,
35904,control_change,15,0,11,,,,,,,,,13,11,61,,,
35907,control_change,15,0,12,,,,,,,,,14,11,61,,,
35910,control_change,15,0,1,,,,,,,,,0,11,57,,,
35912,note_on,11,0,8,,,,,,,,,11,,,,65,0
35912,note_on,11,0,9,,,,,,,,,12,,,,53,0
35912,note_on,0,0,9,,,,,,,,,12,,,,48,76
35912,note_on,0,0,8,,,,,,,,,11,,,,60,78
35912,control_change,15,0,2,,,,,,,,,1,11,57,,,
35913,control_change,15,0,3,,,,,,,,,2,11,57,,,
35913,control_change,15,0,5,,,,,,,,,4,11,54,,,
35915,control_change,15,0,4,,,,,,,,,3,11,57,,,
35915,control_change,15,0,6,,,,,,,,,5,11,54,,,
35920,control_change,21,0,7,,,,,,,,,10,11,58,,,
35922,control_change,10,0,9,,,,,,,,,12,11,58,,,
35922,control_change,10,0,8,,,,,,,,,11,11,58,,,
35924,control_change,21,0,10,,,,,,,,,6,11,58,,,
35925,control_change,21,0,11,,,,,,,,,13,11,58,,,
35925,control_change,15,0,1,,,,,,,,,0,11,55,,,
35927,control_change,15,0,2,,,,,,,,,1,11,55,,,
35928,control_change,21,0,12,,,,,,,,,14,11,58,,,
35928,control_change,15,0,5,,,,,,,,,4,11,52,,,
35928,control_change,15,0,3,,,,,,,,,2,11,55,,,
35930,control_change,15,0,4,,,,,,,,,3,11,55,,,
35930,control_change,15,0,6,,,,,,,,,5,11,52,,,
35935,control_change,15,0,7,,,,,,,,,10,11,56,,,
35937,control_change,15,0,9,,,,,,,,,12,11,56,,,
35937,control_change,15,0,8,,,,,,,,,11,11,56,,,
35938,note_on,10,0,5,,,,,,,,,4,,,,60,0
35939,control_change,15,0,10,,,,,,,,,6,11,56,,,
35940,control_change,15,0,11,,,,,,,,,13,11,56,,,
35940,note_on,15,0,1,,,,,,,,,0,,,,86,0
35940,note_on,0,0,1,,,,,,,,,0,,,,88,96
35940,control_change,0,0,1,,,,,,,,,0,11,54,,,
35940,note_on,10,0,6,,,,,,,,,5,,,,60,0
35940,note_on,5,0,7,,,,,,,,,10,,,,67,0
35940,note_on,0,0,7,,,,,,,,,10,,,,72,103
35942,note_on,0,0,9,,,,,,,,,12,,,,55,76
35942,control_change,0,0,2,,,,,,,,,1,11,54,,,
35942,note_on,0,0,2,,,,,,,,,1,,,,72,95
35942,note_on,0,0,2,,,,,,,,,1,,,,76,95
35942,note_on,0,0,2,,,,,,,,,1,,,,74,0
35942,note_on,15,0,2,,,,,,,,,1,,,,72,0
35942,note_on,5,0,9,,,,,,,,,12,,,,48,0
35942,note_on,0,0,8,,,,,,,,,11,,,,67,78
35942,note_on,5,0,8,,,,,,,,,11,,,,60,0
35943,note_on,0,0,3,,,,,,,,,2,,,,64,96
35943,note_on,0,0,5,,,,,,,,,4,,,,60,82
35943,control_change,5,0,5,,,,,,,,,4,11,50,,,
35943,control_change,0,0,3,,,,,,,,,2,11,54,,,
35943,note_on,0,0,3,,,,,,,,,2,,,,70,96
35943,note_on,15,0,3,,,,,,,,,2,,,,65,0
35943,control_change,15,0,12,,,,,,,,,14,11,56,,,
35943,note_on,0,0,3,,,,,,,,,2,,,,69,0
35944,note_on,5,0,10,,,,,,,,,6,,,,45,0
35944,note_on,0,0,10,,,,,,,,,6,,,,43,104
35945,note_on,0,0,6,,,,,,,,,5,,,,60,82
35945,control_change,0,0,4,,,,,,,,,3,11,54,,,
35945,note_on,5,0,11,,,,,,,,,13,,,,45,0
35945,note_on,0,0,4,,,,,,,,,3,,,,43,95
35945,control_change,5,0,6,,,,,,,,,5,11,50,,,
35945,note_on,0,0,11,,,,,,,,,13,,,,43,100
35945,note_on,0,0,4,,,,,,,,,3,,,,57,0
35945,note_on,15,0,4,,,,,,,,,3,,,,45,0
35945,note_on,0,0,4,,,,,,,,,3,,,,55,95
35948,note_on,0,0,12,,,,,,,,,14,,,,31,96
35948,note_on,5,0,12,,,,,,,,,14,,,,33,0
35955,control_change,15,0,1,,,,,,,,,0,11,52,,,
35956,control_change,16,0,7,,,,,,,,,10,11,53,,,
35957,control_change,15,0,2,,,,,,,,,1,11,52,,,
35958,control_change,15,0,5,,,,,,,,,4,11,48,,,
35958,control_change,16,0,9,,,,,,,,,12,11,53,,,
35958,control_change,16,0,8,,,,,,,,,11,11,53,,,
35958,control_change,15,0,3,,,,,,,,,2,11,52,,,
35960,control_change,15,0,4,,,,,,,,,3,11,52,,,
35960,control_change,16,0,10,,,,,,,,,6,11,53,,,
35960,control_change,15,0,6,,,,,,,,,5,11,48,,,
35961,control_change,16,0,11,,,,,,,,,13,11,53,,,
35964,control_change,16,0,12,,,,,,,,,14,11,53,,,
35970,control_change,15,0,1,,,,,,,,,0,11,51,,,
35971,control_change,15,0,7,,,,,,,,,10,11,51,,,
35972,control_change,15,0,2,,,,,,,,,1,11,51,,,
35972,note_on,14,0,8,,,,,,,,,11,,,,67,0
35972,note_on,14,0,9,,,,,,,,,12,,,,55,0
35972,note_on,0,0,9,,,,,,,,,12,,,,48,76
35972,note_on,0,0,8,,,,,,,,,11,,,,60,78
35973,control_change,15,0,3,,,,,,,,,2,11,51,,,
35973,control_change,1,0,8,,,,,,,,,11,11,51,,,
35973,control_change,1,0,9,,,,,,,,,12,11,51,,,
35973,control_change,15,0,5,,,,,,,,,4,11,46,,,
35975,control_change,15,0,10,,,,,,,,,6,11,51,,,
35975,control_change,15,0,6,,,,,,,,,5,11,46,,,
35975,control_change,15,0,4,,,,,,,,,3,11,51,,,
35976,control_change,15,0,11,,,,,,,,,13,11,51,,,
35979,control_change,15,0,12,,,,,,,,,14,11,51,,,
35985,control_change,15,0,1,,,,,,,,,0,11,49,,,
35987,control_change,15,0,2,,,,,,,,,1,11,49,,,
35988,control_change,15,0,3,,,,,,,,,2,11,49,,,
35988,control_change,15,0,5,,,,,,,,,4,11,44,,,
35990,control_change,15,0,4,,,,,,,,,3,11,49,,,
35990,control_change,15,0,6,,,,,,,,,5,11,44,,,
35992,control_change,21,0,7,,,,,,,,,10,11,48,,,
35994,control_change,21,0,9,,,,,,,,,12,11,48,,,
35994,control_change,21,0,8,,,,,,,,,11,11,48,,,
35995,note_on,3,0,7,,,,,,,,,10,,,,72,0
35995,note_on,10,0,1,,,,,,,,,0,,,,88,0
35996,control_change,21,0,10,,,,,,,,,6,11,48,,,
35997,note_on,0,0,2,,,,,,,,,1,,,,76,0
35997,note_on,3,0,9,,,,,,,,,12,,,,48,0
35997,control_change,21,0,11,,,,,,,,,13,11,48,,,
35997,note_on,3,0,8,,,,,,,,,11,,,,60,0
35997,note_on,10,0,2,,,,,,,,,1,,,,72,0
35998,note_on,10,0,3,,,,,,,,,2,,,,70,0
35998,note_on,0,0,3,,,,,,,,,2,,,,64,0
35998,note_on,10,0,5,,,,,,,,,4,,,,60,0
35999,note_on,3,0,10,,,,,,,,,6,,,,43,0
36000,note_on,10,0,6,,,,,,,,,5,,,,60,0
36000,note_on,0,0,4,,,,,,,,,3,,,,55,0
36000,note_on,10,0,4,,,,,,,,,3,,,,43,0
36000,note_on,3,0,11,,,,,,,,,13,,,,43,0
36000,control_change,0,0,1,,,,,,,,,0,11,47,,,
36000,note_on,5,0,1,,,,,,,,,0,,,,89,96
36000,note_on,5,0,7,,,,,,,,,10,,,,65,103
36000,control_change,21,0,12,,,,,,,,,14,11,48,,,
36000,set_tempo,120,1,0,,,,,,1034483,,,,,,,,
36002,note_on,5,0,8,,,,,,,,,11,,,,69,68
36002,note_on,5,0,9,,,,,,,,,12,,,,57,66
36002,note_on,0,0,2,,,,,,,,,1,,,,77,95
36002,note_on,0,0,2,,,,,,,,,1,,,,72,95
36002,control_change,5,0,2,,,,,,,,,1,11,47,,,
36003,note_on,5,0,3,,,,,,,,,2,,,,69,96
36003,note_on,0,0,3,,,,,,,,,2,,,,65,96
36003,control_change,0,0,3,,,,,,,,,2,11,47,,,
36003,note_on,3,0,12,,,,,,,,,14,,,,31,0
36003,note_on,0,0,5,,,,,,,,,4,,,,65,82
36003,control_change,5,0,5,,,,,,,,,4,11,42,,,
36004,note_on,5,0,10,,,,,,,,,6,,,,41,82
36005,note_on,0,0,4,,,,,,,,,3,,,,53,95
36005,note_on,5,0,4,,,,,,,,,3,,,,41,95
36005,control_change,5,0,6,,,,,,,,,5,11,42,,,
36005,control_change,0,0,4,,,,,,,,,3,11,47,,,
36005,note_on,0,0,6,,,,,,,,,5,,,,53,82
36005,note_on,5,0,11,,,,,,,,,13,,,,41,100
36008,note_on,5,0,12,,,,,,,,,14,,,,29,96
36032,note_on,0,0,9,,,,,,,,,12,,,,60,66
36032,note_on,30,0,9,,,,,,,,,12,,,,57,0
36032,note_on,30,0,8,,,,,,,,,11,,,,69,0
36032,note_on,0,0,8,,,,,,,,,11,,,,65,68
36034,note_on,0,0,10,,,,,,,,,6,,,,60,62
36034,note_on,30,0,10,,,,,,,,,6,,,,41,0
36060,control_change,60,0,7,,,,,,,,,10,11,47,,,
36060,set_tempo,60,1,0,,,,,,937500,,,,,,,,
36062,note_on,0,0,8,,,,,,,,,11,,,,72,68
36062,note_on,0,0,9,,,,,,,,,12,,,,57,66
36062,note_on,30,0,9,,,,,,,,,12,,,,60,0
36062,note_on,30,0,8,,,,,,,,,11,,,,65,0
36063,note_on,0,0,3,,,,,,,,,2,,,,69,0
36063,note_on,0,0,3,,,,,,,,,2,,,,72,83
36063,note_on,0,0,3,,,,,,,,,2,,,,69,83
36063,note_on,60,0,3,,,,,,,,,2,,,,65,0
36064,note_on,30,0,10,,,,,,,,,6,,,,60,0
36064,note_on,0,0,10,,,,,,,,,6,,,,57,62
36065,note_on,0,0,4,,,,,,,,,3,,,,60,95
36065,note_on,0,0,4,,,,,,,,,3,,,,41,0
36065,note_on,0,0,4,,,,,,,,,3,,,,57,95
36065,note_on,60,0,4,,,,,,,,,3,,,,53,0
36068,control_change,8,0,7,,,,,,,,,10,11,44,,,
36077,control_change,9,0,7,,,,,,,,,10,11,41,,,
36086,control_change,9,0,7,,,,,,,,,10,11,38,,,
36092,note_on,30,0,8,,,,,,,,,11,,,,72,0
36092,note_on,30,0,9,,,,,,,,,12,,,,57,0
36092,note_on,0,0,9,,,,,,,,,12,,,,60,66
36092,note_on,0,0,8,,,,,,,,,11,,,,69,68
36094,note_on,30,0,10,,,,,,,,,6,,,,57,0
36094,note_on,0,0,10,,,,,,,,,6,,,,60,62
36095,control_change,9,0,7,,,,,,,,,10,11,35,,,
36104,control_change,9,0,7,,,,,,,,,10,11,32,,,
36113,control_change,9,0,7,,,,,,,,,10,11,29,,,
36118,note_on,55,0,3,,,,,,,,,2,,,,69,0
36118,note_on,0,0,3,,,,,,,,,2,,,,72,0
36120,note_on,120,0,1,,,,,,,,,0,,,,89,0
36120,note_on,55,0,4,,,,,,,,,3,,,,57,0
36120,note_on,0,0,4,,,,,,,,,3,,,,60,0
36120,note_on,7,0,7,,,,,,,,,10,,,,65,0
36122,note_on,0,0,9,,,,,,,,,12,,,,57,66
36122,note_on,120,0,2,,,,,,,,,1,,,,77,0
36122,note_on,0,0,2,,,,,,,,,1,,,,72,0
36122,note_on,30,0,9,,,,,,,,,12,,,,60,0
36122,note_on,30,0,8,,,,,,,,,11,,,,69,0
36122,note_on,0,0,8,,,,,,,,,11,,,,72,68
36123,note_on,0,0,3,,,,,,,,,2,,,,69,83
36123,note_on,5,0,3,,,,,,,,,2,,,,72,83
36124,note_on,30,0,10,,,,,,,,,6,,,,60,0
36124,note_on,0,0,10,,,,,,,,,6,,,,57,62
36125,note_on,5,0,4,,,,,,,,,3,,,,60,95
36125,note_on,0,0,4,,,,,,,,,3,,,,57,95
36125,note_on,120,0,11,,,,,,,,,13,,,,41,0
36128,note_on,120,0,12,,,,,,,,,14,,,,29,0
36152,note_on,0,0,9,,,,,,,,,12,,,,60,66
36152,note_on,30,0,9,,,,,,,,,12,,,,57,0
36152,note_on,30,0,8,,,,,,,,,11,,,,72,0
36152,note_on,0,0,8,,,,,,,,,11,,,,69,68
36154,note_on,30,0,10,,,,,,,,,6,,,,57,0
36154,note_on,0,0,10,,,,,,,,,6,,,,60,62
36180,set_tempo,120,1,0,,,,,,1034483,,,,,,,,
36182,note_on,30,0,9,,,,,,,,,12,,,,60,0
36182,note_on,0,0,8,,,,,,,,,11,,,,74,68
36182,note_on,30,0,8,,,,,,,,,11,,,,69,0
36182,note_on,0,0,9,,,,,,,,,12,,,,58,66
36183,note_on,0,0,3,,,,,,,,,2,,,,70,83
36183,note_on,0,0,3,,,,,,,,,2,,,,74,83
36183,note_on,0,0,3,,,,,,,,,2,,,,72,0
36183,note_on,60,0,3,,,,,,,,,2,,,,69,0
36184,note_on,30,0,10,,,,,,,,,6,,,,60,0
36184,note_on,0,0,10,,,,,,,,,6,,,,58,62
36185,note_on,0,0,4,,,,,,,,,3,,,,62,95
36185,note_on,0,0,4,,,,,,,,,3,,,,58,95
36185,note_on,60,0,4,,,,,,,,,3,,,,57,0
36185,note_on,0,0,4,,,,,,,,,3,,,,60,0
36212,note_on,30,0,9,,,,,,,,,12,,,,58,0
36212,note_on,30,0,8,,,,,,,,,11,,,,74,0
36212,note_on,0,0,9,,,,,,,,,12,,,,62,66
36212,note_on,0,0,8,,,,,,,,,11,,,,70,68
36214,note_on,0,0,10,,,,,,,,,6,,,,62,62
36214,note_on,30,0,10,,,,,,,,,6,,,,58,0
36240,control_change,120,0,1,,,,,,,,,0,11,64,,,
36240,set_tempo,60,1,0,,,,,,937500,,,,,,,,
36242,note_on,30,0,8,,,,,,,,,11,,,,70,0
36242,control_change,0,0,2,,,,,,,,,1,11,64,,,
36242,note_on,120,0,2,,,,,,,,,1,,,,81,80
36242,note_on,30,0,9,,,,,,,,,12,,,,62,0
36242,note_on,0,0,9,,,,,,,,,12,,,,57,66
36242,note_on,0,0,8,,,,,,,,,11,,,,72,68
36243,note_on,0,0,3,,,,,,,,,2,,,,69,83
36243,note_on,0,0,3,,,,,,,,,2,,,,72,83
36243,note_on,60,0,3,,,,,,,,,2,,,,74,0
36243,note_on,0,0,3,,,,,,,,,2,,,,70,0
36244,note_on,30,0,10,,,,,,,,,6,,,,62,0
36244,note_on,0,0,10,,,,,,,,,6,,,,57,62
36245,note_on,0,0,4,,,,,,,,,3,,,,60,95
36245,note_on,0,0,4,,,,,,,,,3,,,,57,95
36245,note_on,60,0,4,,,,,,,,,3,,,,62,0
36245,note_on,0,0,4,,,,,,,,,3,,,,58,0
36272,note_on,30,0,8,,,,,,,,,11,,,,72,0
36272,note_on,30,0,9,,,,,,,,,12,,,,57,0
36272,note_on,0,0,8,,,,,,,,,11,,,,69,68
36272,note_on,0,0,9,,,,,,,,,12,,,,60,66
36274,note_on,0,0,10,,,,,,,,,6,,,,60,62
36274,note_on,30,0,10,,,,,,,,,6,,,,57,0
36297,note_on,55,0,2,,,,,,,,,1,,,,81,0
36298,note_on,55,0,3,,,,,,,,,2,,,,72,0
36298,note_on,0,0,3,,,,,,,,,2,,,,69,0
36298,note_on,295,0,5,,,,,,,,,4,,,,65,0
36300,note_on,55,0,4,,,,,,,,,3,,,,57,0
36300,note_on,295,0,6,,,,,,,,,5,,,,53,0
36300,note_on,0,0,4,,,,,,,,,3,,,,60,0
36302,note_on,30,0,9,,,,,,,,,12,,,,60,0
36302,note_on,0,0,9,,,,,,,,,12,,,,57,66
36302,note_on,0,0,8,,,,,,,,,11,,,,72,68
36302,note_on,30,0,8,,,,,,,,,11,,,,69,0
36302,note_on,5,0,2,,,,,,,,,1,,,,81,80
36303,note_on,0,0,3,,,,,,,,,2,,,,69,83
36303,note_on,5,0,3,,,,,,,,,2,,,,72,83
36303,note_on,5,0,5,,,,,,,,,4,,,,60,82
36304,note_on,30,0,10,,,,,,,,,6,,,,60,0
36304,note_on,0,0,10,,,,,,,,,6,,,,57,62
36305,note_on,0,0,4,,,,,,,,,3,,,,60,95
36305,note_on,5,0,4,,,,,,,,,3,,,,57,95
36305,note_on,5,0,6,,,,,,,,,5,,,,60,82
36332,note_on,30,0,8,,,,,,,,,11,,,,72,0
36332,note_on,0,0,8,,,,,,,,,11,,,,69,68
36332,note_on,30,0,9,,,,,,,,,12,,,,57,0
36332,note_on,0,0,9,,,,,,,,,12,,,,60,66
36334,note_on,30,0,10,,,,,,,,,6,,,,57,0
36334,note_on,0,0,10,,,,,,,,,6,,,,60,62
36357,note_on,55,0,2,,,,,,,,,1,,,,81,0
36360,set_tempo,120,1,0,,,,,,1034483,,,,,,,,
36362,note_on,0,0,9,,,,,,,,,12,,,,55,66
36362,note_on,30,0,9,,,,,,,,,12,,,,60,0
36362,note_on,30,0,8,,,,,,,,,11,,,,69,0
36362,note_on,5,0,2,,,,,,,,,1,,,,82,80
36362,note_on,0,0,8,,,,,,,,,11,,,,70,68
36363,note_on,0,0,3,,,,,,,,,2,,,,67,83
36363,note_on,0,0,3,,,,,,,,,2,,,,70,83
36363,note_on,0,0,3,,,,,,,,,2,,,,72,0
36363,note_on,60,0,3,,,,,,,,,2,,,,69,0
36364,note_on,30,0,10,,,,,,,,,6,,,,60,0
36364,note_on,0,0,10,,,,,,,,,6,,,,55,62
36365,note_on,0,0,4,,,,,,,,,3,,,,58,95
36365,note_on,0,0,4,,,,,,,,,3,,,,55,95
36365,note_on,0,0,4,,,,,,,,,3,,,,57,0
36365,note_on,60,0,4,,,,,,,,,3,,,,60,0
36392,note_on,0,0,8,,,,,,,,,11,,,,67,68
36392,note_on,0,0,9,,,,,,,,,12,,,,58,66
36392,note_on,30,0,9,,,,,,,,,12,,,,55,0
36392,note_on,30,0,8,,,,,,,,,11,,,,70,0
36394,note_on,0,0,10,,,,,,,,,6,,,,58,62
36394,note_on,30,0,10,,,,,,,,,6,,,,55,0
36420,note_on,180,0,1,,,,,,,,,0,,,,83,81
36420,set_tempo,60,1,0,,,,,,937500,,,,,,,,
36422,note_on,30,0,8,,,,,,,,,11,,,,67,0
36422,note_on,0,0,8,,,,,,,,,11,,,,69,68
36422,note_on,30,0,9,,,,,,,,,12,,,,58,0
36422,note_on,0,0,9,,,,,,,,,12,,,,53,66
36422,note_on,60,0,2,,,,,,,,,1,,,,82,0
36423,note_on,0,0,3,,,,,,,,,2,,,,70,0
36423,note_on,60,0,3,,,,,,,,,2,,,,67,0
36423,note_on,0,0,3,,,,,,,,,2,,,,69,83
36423,note_on,0,0,3,,,,,,,,,2,,,,65,83
36424,note_on,30,0,10,,,,,,,,,6,,,,58,0
36424,note_on,0,0,10,,,,,,,,,6,,,,53,62
36425,note_on,0,0,4,,,,,,,,,3,,,,57,95
36425,note_on,0,0,4,,,,,,,,,3,,,,55,0
36425,note_on,60,0,4,,,,,,,,,3,,,,58,0
36425,note_on,0,0,4,,,,,,,,,3,,,,53,95
36452,note_on,0,0,8,,,,,,,,,11,,,,65,68
36452,note_on,30,0,8,,,,,,,,,11,,,,69,0
36452,note_on,0,0,9,,,,,,,,,12,,,,57,66
36452,note_on,30,0,9,,,,,,,,,12,,,,53,0
36454,note_on,0,0,10,,,,,,,,,6,,,,57,62
36454,note_on,30,0,10,,,,,,,,,6,,,,53,0
36478,note_on,55,0,3,,,,,,,,,2,,,,69,0
36478,note_on,175,0,5,,,,,,,,,4,,,,60,0
36478,note_on,0,0,3,,,,,,,,,2,,,,65,0
36480,note_on,55,0,4,,,,,,,,,3,,,,57,0
36480,note_on,0,0,4,,,,,,,,,3,,,,53,0
36480,note_on,0,0,1,,,,,,,,,0,,,,84,81
36480,note_on,60,0,1,,,,,,,,,0,,,,83,0
36480,note_on,175,0,6,,,,,,,,,5,,,,60,0
36482,note_on,30,0,9,,,,,,,,,12,,,,57,0
36482,note_on,30,0,8,,,,,,,,,11,,,,65,0
36482,note_on,0,0,9,,,,,,,,,12,,,,53,66
36482,note_on,0,0,8,,,,,,,,,11,,,,69,68
36483,note_on,5,0,3,,,,,,,,,2,,,,65,83
36483,note_on,5,0,5,,,,,,,,,4,,,,60,82
36483,note_on,0,0,3,,,,,,,,,2,,,,69,83
36484,note_on,30,0,10,,,,,,,,,6,,,,57,0
36484,note_on,0,0,10,,,,,,,,,6,,,,53,62
36485,note_on,0,0,4,,,,,,,,,3,,,,53,95
36485,note_on,5,0,4,,,,,,,,,3,,,,57,95
36485,note_on,5,0,6,,,,,,,,,5,,,,60,82
36512,note_on,30,0,8,,,,,,,,,11,,,,69,0
36512,note_on,0,0,8,,,,,,,,,11,,,,65,68
36512,note_on,0,0,9,,,,,,,,,12,,,,57,66
36512,note_on,30,0,9,,,,,,,,,12,,,,53,0
36514,note_on,0,0,10,,,,,,,,,6,,,,57,62
36514,note_on,30,0,10,,,,,,,,,6,,,,53,0
36535,note_on,55,0,1,,,,,,,,,0,,,,84,0
36540,note_on,0,0,1,,,,,,,,,0,,,,84,81
36540,control_change,5,0,1,,,,,,,,,0,11,64,,,
36540,control_change,420,0,7,,,,,,,,,10,11,52,,,
36540,note_on,0,0,7,,,,,,,,,10,,,,76,104
36540,set_tempo,120,1,0,,,,,,1034483,,,,,,,,
36542,control_change,0,0,8,,,,,,,,,11,11,52,,,
36542,note_on,0,0,8,,,,,,,,,11,,,,70,68
36542,control_change,0,0,9,,,,,,,,,12,11,52,,,
36542,note_on,30,0,9,,,,,,,,,12,,,,57,0
36542,note_on,30,0,8,,,,,,,,,11,,,,65,0
36542,note_on,0,0,9,,,,,,,,,12,,,,55,66
36543,control_change,60,0,5,,,,,,,,,4,11,62,,,
36543,note_on,0,0,3,,,,,,,,,2,,,,67,83
36543,control_change,0,0,3,,,,,,,,,2,11,64,,,
36543,note_on,0,0,3,,,,,,,,,2,,,,70,83
36543,note_on,60,0,3,,,,,,,,,2,,,,69,0
36543,note_on,0,0,3,,,,,,,,,2,,,,65,0
36544,note_on,30,0,10,,,,,,,,,6,,,,57,0
36544,control_change,0,0,10,,,,,,,,,6,11,52,,,
36544,note_on,0,0,10,,,,,,,,,6,,,,55,62
36545,note_on,420,0,11,,,,,,,,,13,,,,48,100
36545,note_on,0,0,4,,,,,,,,,3,,,,55,95
36545,control_change,60,0,6,,,,,,,,,5,11,62,,,
36545,control_change,0,0,4,,,,,,,,,3,11,64,,,
36545,note_on,0,0,4,,,,,,,,,3,,,,58,95
36545,note_on,0,0,4,,,,,,,,,3,,,,57,0
36545,note_on,60,0,4,,,,,,,,,3,,,,53,0
36548,note_on,420,0,12,,,,,,,,,14,,,,36,96
36558,control_change,18,0,7,,,,,,,,,10,11,51,,,
36558,control_change,18,0,1,,,,,,,,,0,11,62,,,
36560,control_change,18,0,8,,,,,,,,,11,11,51,,,
36560,control_change,18,0,9,,,,,,,,,12,11,51,,,
36561,control_change,18,0,5,,,,,,,,,4,11,60,,,
36561,control_change,18,0,3,,,,,,,,,2,11,62,,,
36562,control_change,18,0,10,,,,,,,,,6,11,51,,,
36563,control_change,18,0,6,,,,,,,,,5,11,60,,,
36563,control_change,18,0,4,,,,,,,,,3,11,62,,,
36570,note_on,0,0,7,,,,,,,,,10,,,,79,111
36570,note_on,12,0,7,,,,,,,,,10,,,,76,0
36572,note_on,12,0,9,,,,,,,,,12,,,,55,0
36572,note_on,12,0,8,,,,,,,,,11,,,,70,0
36572,note_on,0,0,8,,,,,,,,,11,,,,67,68
36572,note_on,0,0,9,,,,,,,,,12,,,,58,66
36574,note_on,0,0,10,,,,,,,,,6,,,,58,62
36574,note_on,12,0,10,,,,,,,,,6,,,,55,0
36576,control_change,18,0,1,,,,,,,,,0,11,61,,,
36576,control_change,6,0,7,,,,,,,,,10,11,50,,,
36578,control_change,6,0,9,,,,,,,,,12,11,50,,,
36578,control_change,6,0,8,,,,,,,,,11,11,50,,,
36579,control_change,18,0,5,,,,,,,,,4,11,58,,,
36579,control_change,18,0,3,,,,,,,,,2,11,61,,,
36580,control_change,6,0,10,,,,,,,,,6,11,50,,,
36581,control_change,18,0,6,,,,,,,,,5,11,58,,,
36581,control_change,18,0,4,,,,,,,,,3,11,61,,,
36594,control_change,18,0,7,,,,,,,,,10,11,49,,,
36594,control_change,18,0,1,,,,,,,,,0,11,59,,,
36596,control_change,18,0,8,,,,,,,,,11,11,49,,,
36596,control_change,18,0,9,,,,,,,,,12,11,49,,,
36597,control_change,18,0,3,,,,,,,,,2,11,59,,,
36597,control_change,18,0,5,,,,,,,,,4,11,56,,,
36598,control_change,18,0,10,,,,,,,,,6,11,49,,,
36599,control_change,18,0,4,,,,,,,,,3,11,59,,,
36599,control_change,18,0,6,,,,,,,,,5,11,56,,,
36600,note_on,0,0,7,,,,,,,,,10,,,,82,111
36600,set_tempo,60,1,0,,,,,,937500,,,,,,,,
36600,note_on,6,0,1,,,,,,,,,0,,,,84,0
36600,note_on,6,0,7,,,,,,,,,10,,,,79,0
36602,note_on,0,0,8,,,,,,,,,11,,,,67,68
36602,note_on,6,0,8,,,,,,,,,11,,,,67,0
36602,note_on,180,0,2,,,,,,,,,1,,,,79,80
36602,control_change,0,0,2,,,,,,,,,1,11,59,,,
36602,note_on,0,0,9,,,,,,,,,12,,,,52,66
36602,note_on,0,0,2,,,,,,,,,1,,,,82,80
36602,note_on,6,0,9,,,,,,,,,12,,,,58,0
36603,note_on,0,0,3,,,,,,,,,2,,,,64,83
36603,note_on,6,0,3,,,,,,,,,2,,,,67,0
36603,note_on,0,0,3,,,,,,,,,2,,,,70,0
36603,note_on,0,0,3,,,,,,,,,2,,,,67,83
36604,note_on,6,0,10,,,,,,,,,6,,,,58,0
36604,note_on,0,0,10,,,,,,,,,6,,,,52,62
36605,note_on,0,0,4,,,,,,,,,3,,,,55,95
36605,note_on,6,0,4,,,,,,,,,3,,,,58,0
36605,note_on,0,0,4,,,,,,,,,3,,,,55,0
36605,note_on,0,0,4,,,,,,,,,3,,,,52,95
36612,control_change,12,0,7,,,,,,,,,10,11,48,,,
36614,control_change,12,0,9,,,,,,,,,12,11,48,,,
36614,control_change,12,0,8,,,,,,,,,11,11,48,,,
36615,control_change,12,0,3,,,,,,,,,2,11,57,,,
36615,control_change,18,0,5,,,,,,,,,4,11,54,,,
36616,control_change,12,0,10,,,,,,,,,6,11,48,,,
36617,control_change,12,0,4,,,,,,,,,3,11,57,,,
36617,control_change,18,0,6,,,,,,,,,5,11,54,,,
36623,control_change,21,0,2,,,,,,,,,1,11,56,,,
36630,note_on,18,0,7,,,,,,,,,10,,,,82,0
36630,note_on,0,0,7,,,,,,,,,10,,,,79,111
36630,control_change,0,0,7,,,,,,,,,10,11,47,,,
36632,note_on,18,0,9,,,,,,,,,12,,,,52,0
36632,note_on,0,0,9,,,,,,,,,12,,,,55,66
36632,note_on,0,0,8,,,,,,,,,11,,,,64,68
36632,control_change,0,0,8,,,,,,,,,11,11,47,,,
36632,note_on,18,0,8,,,,,,,,,11,,,,67,0
36632,control_change,0,0,9,,,,,,,,,12,11,47,,,
36633,control_change,18,0,5,,,,,,,,,4,11,52,,,
36633,control_change,18,0,3,,,,,,,,,2,11,55,,,
36634,control_change,0,0,10,,,,,,,,,6,11,47,,,
36634,note_on,18,0,10,,,,,,,,,6,,,,52,0
36634,note_on,0,0,10,,,,,,,,,6,,,,55,62
36635,control_change,18,0,4,,,,,,,,,3,11,55,,,
36635,control_change,18,0,6,,,,,,,,,5,11,52,,,
36641,control_change,18,0,2,,,,,,,,,1,11,55,,,
36648,control_change,18,0,7,,,,,,,,,10,11,46,,,
36650,control_change,18,0,8,,,,,,,,,11,11,46,,,
36650,control_change,18,0,9,,,,,,,,,12,11,46,,,
36651,control_change,18,0,3,,,,,,,,,2,11,54,,,
36651,control_change,18,0,5,,,,,,,,,4,11,50,,,
36652,control_change,18,0,10,,,,,,,,,6,11,46,,,
36653,control_change,18,0,4,,,,,,,,,3,11,54,,,
36653,control_change,18,0,6,,,,,,,,,5,11,50,,,
36658,note_on,7,0,5,,,,,,,,,4,,,,60,0
36658,note_on,7,0,3,,,,,,,,,2,,,,64,0
36658,note_on,0,0,3,,,,,,,,,2,,,,67,0
36659,control_change,18,0,2,,,,,,,,,1,11,53,,,
36660,note_on,7,0,6,,,,,,,,,5,,,,60,0
36660,note_on,12,0,7,,,,,,,,,10,,,,79,0
36660,note_on,7,0,4,,,,,,,,,3,,,,55,0
36660,note_on,0,0,7,,,,,,,,,10,,,,76,111
36660,note_on,0,0,4,,,,,,,,,3,,,,52,0
36662,note_on,0,0,8,,,,,,,,,11,,,,67,68
36662,note_on,12,0,8,,,,,,,,,11,,,,64,0
36662,note_on,12,0,9,,,,,,,,,12,,,,55,0
36662,note_on,0,0,2,,,,,,,,,1,,,,70,80
36662,note_on,0,0,9,,,,,,,,,12,,,,55,66
36662,note_on,3,0,2,,,,,,,,,1,,,,82,0
36662,note_on,0,0,2,,,,,,,,,1,,,,79,0
36662,note_on,0,0,2,,,,,,,,,1,,,,79,80
36663,note_on,0,0,3,,,,,,,,,2,,,,67,83
36663,note_on,5,0,3,,,,,,,,,2,,,,64,83
36663,note_on,5,0,5,,,,,,,,,4,,,,60,82
36664,note_on,0,0,10,,,,,,,,,6,,,,55,62
36664,note_on,12,0,10,,,,,,,,,6,,,,55,0
36665,note_on,5,0,6,,,,,,,,,5,,,,60,82
36665,note_on,5,0,4,,,,,,,,,3,,,,52,95
36665,note_on,0,0,4,,,,,,,,,3,,,,55,95
36666,control_change,6,0,7,,,,,,,,,10,11,45,,,
36668,control_change,6,0,9,,,,,,,,,12,11,45,,,
36668,control_change,6,0,8,,,,,,,,,11,11,45,,,
36669,control_change,6,0,3,,,,,,,,,2,11,52,,,
36669,control_change,6,0,5,,,,,,,,,4,11,48,,,
36670,control_change,6,0,10,,,,,,,,,6,11,45,,,
36671,control_change,6,0,4,,,,,,,,,3,11,52,,,
36671,control_change,6,0,6,,,,,,,,,5,11,48,,,
36677,control_change,15,0,2,,,,,,,,,1,11,52,,,
36684,control_change,18,0,7,,,,,,,,,10,11,44,,,
36686,control_change,18,0,8,,,,,,,,,11,11,44,,,
36686,control_change,18,0,9,,,,,,,,,12,11,44,,,
36687,control_change,18,0,5,,,,,,,,,4,11,46,,,
36687,control_change,18,0,3,,,,,,,,,2,11,51,,,
36688,control_change,18,0,10,,,,,,,,,6,11,44,,,
36689,control_change,18,0,4,,,,,,,,,3,11,51,,,
36689,control_change,18,0,6,,,,,,,,,5,11,46,,,
36690,note_on,6,0,7,,,,,,,,,10,,,,76,0
36690,note_on,0,0,7,,,,,,,,,10,,,,79,111
36692,note_on,6,0,9,,,,,,,,,12,,,,55,0
36692,note_on,0,0,9,,,,,,,,,12,,,,58,66
36692,note_on,0,0,8,,,,,,,,,11,,,,64,68
36692,note_on,6,0,8,,,,,,,,,11,,,,67,0
36694,note_on,6,0,10,,,,,,,,,6,,,,55,0
36694,note_on,0,0,10,,,,,,,,,6,,,,58,62
36695,control_change,18,0,2,,,,,,,,,1,11,50,,,
36702,control_change,12,0,7,,,,,,,,,10,11,43,,,
36704,control_change,12,0,9,,,,,,,,,12,11,43,,,
36704,control_change,12,0,8,,,,,,,,,11,11,43,,,
36705,control_change,18,0,5,,,,,,,,,4,11,44,,,
36705,control_change,18,0,3,,,,,,,,,2,11,49,,,
36706,control_change,12,0,10,,,,,,,,,6,11,43,,,
36707,control_change,18,0,6,,,,,,,,,5,11,44,,,
36707,control_change,18,0,4,,,,,,,,,3,11,49,,,
36713,control_change,18,0,2,,,,,,,,,1,11,48,,,
36715,note_on,13,0,7,,,,,,,,,10,,,,79,0
36717,note_on,0,0,2,,,,,,,,,1,,,,70,0
36717,note_on,4,0,2,,,,,,,,,1,,,,79,0
36717,note_on,13,0,9,,,,,,,,,12,,,,58,0
36717,note_on,13,0,8,,,,,,,,,11,,,,64,0
36718,note_on,13,0,5,,,,,,,,,4,,,,60,0
36719,note_on,13,0,10,,,,,,,,,6,,,,58,0
36720,note_on,175,0,11,,,,,,,,,13,,,,48,0
36720,note_on,0,0,7,,,,,,,,,10,,,,79,111
36720,control_change,5,0,7,,,,,,,,,10,11,47,,,
36720,set_tempo,120,1,0,,,,,,1034483,,,,,,,,
36720,note_on,13,0,6,,,,,,,,,5,,,,60,0
36722,note_on,0,0,2,,,,,,,,,1,,,,69,80
36722,note_on,5,0,2,,,,,,,,,1,,,,77,80
36722,note_on,0,0,8,,,,,,,,,11,,,,69,68
36722,control_change,5,0,8,,,,,,,,,11,11,47,,,
36722,note_on,0,0,9,,,,,,,,,12,,,,53,66
36722,control_change,5,0,9,,,,,,,,,12,11,47,,,
36723,note_on,5,0,5,,,,,,,,,4,,,,65,82
36723,note_on,0,0,3,,,,,,,,,2,,,,64,0
36723,note_on,0,0,3,,,,,,,,,2,,,,65,83
36723,control_change,0,0,3,,,,,,,,,2,11,47,,,
36723,note_on,175,0,12,,,,,,,,,14,,,,36,0
36723,control_change,0,0,5,,,,,,,,,4,11,42,,,
36723,note_on,0,0,3,,,,,,,,,2,,,,69,83
36723,note_on,18,0,3,,,,,,,,,2,,,,67,0
36724,control_change,5,0,10,,,,,,,,,6,11,47,,,
36724,note_on,0,0,10,,,,,,,,,6,,,,53,62
36725,note_on,18,0,4,,,,,,,,,3,,,,55,0
36725,note_on,0,0,6,,,,,,,,,5,,,,53,82
36725,note_on,0,0,4,,,,,,,,,3,,,,52,0
36725,note_on,0,0,4,,,,,,,,,3,,,,53,95
36725,note_on,0,0,4,,,,,,,,,3,,,,57,95
36725,control_change,5,0,6,,,,,,,,,5,11,42,,,
36725,note_on,5,0,11,,,,,,,,,13,,,,41,100
36725,control_change,0,0,4,,,,,,,,,3,11,47,,,
36728,note_on,5,0,12,,,,,,,,,14,,,,29,96
36752,note_on,30,0,8,,,,,,,,,11,,,,69,0
36752,note_on,0,0,8,,,,,,,,,11,,,,65,68
36752,note_on,30,0,9,,,,,,,,,12,,,,53,0
36752,note_on,0,0,9,,,,,,,,,12,,,,57,66
36754,note_on,30,0,10,,,,,,,,,6,,,,53,0
36754,note_on,0,0,10,,,,,,,,,6,,,,57,62
36780,note_on,60,0,7,,,,,,,,,10,,,,79,0
36780,set_tempo,60,1,0,,,,,,937500,,,,,,,,
36780,note_on,0,0,7,,,,,,,,,10,,,,77,96
36782,note_on,0,0,8,,,,,,,,,11,,,,72,68
36782,note_on,0,0,9,,,,,,,,,12,,,,57,66
36782,note_on,30,0,8,,,,,,,,,11,,,,65,0
36782,note_on,30,0,9,,,,,,,,,12,,,,57,0
36783,note_on,0,0,3,,,,,,,,,2,,,,69,0
36783,note_on,60,0,3,,,,,,,,,2,,,,65,0
36783,note_on,0,0,3,,,,,,,,,2,,,,72,83
36783,note_on,0,0,3,,,,,,,,,2,,,,69,83
36784,note_on,0,0,10,,,,,,,,,6,,,,57,62
36784,note_on,30,0,10,,,,,,,,,6,,,,57,0
36785,note_on,60,0,4,,,,,,,,,3,,,,57,0
36785,note_on,0,0,4,,,,,,,,,3,,,,53,0
36785,note_on,0,0,4,,,,,,,,,3,,,,57,95
36785,note_on,0,0,4,,,,,,,,,3,,,,60,95
36812,note_on,30,0,9,,,,,,,,,12,,,,57,0
36812,note_on,0,0,8,,,,,,,,,11,,,,69,68
36812,note_on,30,0,8,,,,,,,,,11,,,,72,0
36812,note_on,0,0,9,,,,,,,,,12,,,,60,66
36814,note_on,0,0,10,,,,,,,,,6,,,,60,62
36814,note_on,30,0,10,,,,,,,,,6,,,,57,0
36838,note_on,0,0,3,,,,,,,,,2,,,,69,0
36838,note_on,55,0,3,,,,,,,,,2,,,,72,0
36840,note_on,0,0,4,,,,,,,,,3,,,,60,0
36840,note_on,55,0,4,,,,,,,,,3,,,,57,0
36840,control_change,60,0,7,,,,,,,,,10,11,47,,,
36842,note_on,0,0,9,,,,,,,,,12,,,,57,66
36842,note_on,0,0,8,,,,,,,,,11,,,,72,68
36842,note_on,30,0,9,,,,,,,,,12,,,,60,0
36842,note_on,0,0,2,,,,,,,,,1,,,,77,0
36842,note_on,120,0,2,,,,,,,,,1,,,,69,0
36842,note_on,30,0,8,,,,,,,,,11,,,,69,0
36843,note_on,0,0,3,,,,,,,,,2,,,,72,83
36843,note_on,5,0,3,,,,,,,,,2,,,,69,83
36844,note_on,30,0,10,,,,,,,,,6,,,,60,0
36844,note_on,0,0,10,,,,,,,,,6,,,,57,62
36845,note_on,0,0,4,,,,,,,,,3,,,,57,95
36845,note_on,120,0,11,,,,,,,,,13,,,,41,0
36845,note_on,5,0,4,,,,,,,,,3,,,,60,95
36848,note_on,120,0,12,,,,,,,,,14,,,,29,0
36848,control_change,8,0,7,,,,,,,,,10,11,44,,,
36857,control_change,9,0,7,,,,,,,,,10,11,41,,,
36866,control_change,9,0,7,,,,,,,,,10,11,38,,,
36872,note_on,30,0,8,,,,,,,,,11,,,,72,0
36872,note_on,0,0,8,,,,,,,,,11,,,,69,68
36872,note_on,30,0,9,,,,,,,,,12,,,,57,0
36872,note_on,0,0,9,,,,,,,,,12,,,,60,66
36874,note_on,0,0,10,,,,,,,,,6,,,,60,62
36874,note_on,30,0,10,,,,,,,,,6,,,,57,0
36875,control_change,9,0,7,,,,,,,,,10,11,35,,,
36884,control_change,9,0,7,,,,,,,,,10,11,32,,,
36893,control_change,9,0,7,,,,,,,,,10,11,29,,,
36900,set_tempo,120,1,0,,,,,,1034483,,,,,,,,
36900,note_on,7,0,7,,,,,,,,,10,,,,77,0
36902,note_on,30,0,8,,,,,,,,,11,,,,69,0
36902,note_on,0,0,8,,,,,,,,,11,,,,74,68
36902,note_on,0,0,9,,,,,,,,,12,,,,58,66
36902,note_on,30,0,9,,,,,,,,,12,,,,60,0
36903,note_on,0,0,3,,,,,,,,,2,,,,70,83
36903,note_on,60,0,3,,,,,,,,,2,,,,72,0
36903,note_on,0,0,3,,,,,,,,,2,,,,69,0
36903,note_on,0,0,3,,,,,,,,,2,,,,74,83
36904,note_on,0,0,10,,,,,,,,,6,,,,58,62
36904,note_on,30,0,10,,,,,,,,,6,,,,60,0
36905,note_on,60,0,4,,,,,,,,,3,,,,57,0
36905,note_on,0,0,4,,,,,,,,,3,,,,60,0
36905,note_on,0,0,4,,,,,,,,,3,,,,58,95
36905,note_on,0,0,4,,,,,,,,,3,,,,62,95
36932,note_on,30,0,8,,,,,,,,,11,,,,74,0
36932,note_on,0,0,8,,,,,,,,,11,,,,70,68
36932,note_on,0,0,9,,,,,,,,,12,,,,62,66
36932,note_on,30,0,9,,,,,,,,,12,,,,58,0
36934,note_on,0,0,10,,,,,,,,,6,,,,62,62
36934,note_on,30,0,10,,,,,,,,,6,,,,58,0
36960,set_tempo,60,1,0,,,,,,937500,,,,,,,,
36960,control_change,360,0,1,,,,,,,,,0,11,64,,,
36962,note_on,120,0,2,,,,,,,,,1,,,,81,80
36962,control_change,0,0,2,,,,,,,,,1,11,64,,,
36962,note_on,30,0,8,,,,,,,,,11,,,,70,0
36962,note_on,0,0,8,,,,,,,,,11,,,,72,68
36962,note_on,30,0,9,,,,,,,,,12,,,,62,0
36962,note_on,0,0,9,,,,,,,,,12,,,,57,66
36963,note_on,0,0,3,,,,,,,,,2,,,,72,83
36963,note_on,0,0,3,,,,,,,,,2,,,,74,0
36963,note_on,60,0,3,,,,,,,,,2,,,,70,0
36963,note_on,0,0,3,,,,,,,,,2,,,,69,83
36964,note_on,0,0,10,,,,,,,,,6,,,,57,62
36964,note_on,30,0,10,,,,,,,,,6,,,,62,0
36965,note_on,60,0,4,,,,,,,,,3,,,,58,0
36965,note_on,0,0,4,,,,,,,,,3,,,,62,0
36965,note_on,0,0,4,,,,,,,,,3,,,,60,95
36965,note_on,0,0,4,,,,,,,,,3,,,,57,95
36992,note_on,0,0,8,,,,,,,,,11,,,,69,68
36992,note_on,30,0,9,,,,,,,,,12,,,,57,0
36992,note_on,30,0,8,,,,,,,,,11,,,,72,0
36992,note_on,0,0,9,,,,,,,,,12,,,,60,66
36994,note_on,0,0,10,,,,,,,,,6,,,,60,62
36994,note_on,30,0,10,,,,,,,,,6,,,,57,0
37017,note_on,55,0,2,,,,,,,,,1,,,,81,0
37018,note_on,295,0,5,,,,,,,,,4,,,,65,0
37018,note_on,55,0,3,,,,,,,,,2,,,,69,0
37018,note_on,0,0,3,,,,,,,,,2,,,,72,0
37020,note_on,295,0,6,,,,,,,,,5,,,,53,0
37020,note_on,0,0,4,,,,,,,,,3,,,,60,0
37020,note_on,55,0,4,,,,,,,,,3,,,,57,0
37022,note_on,0,0,9,,,,,,,,,12,,,,57,66
37022,note_on,30,0,9,,,,,,,,,12,,,,60,0
37022,note_on,5,0,2,,,,,,,,,1,,,,81,80
37022,note_on,30,0,8,,,,,,,,,11,,,,69,0
37022,note_on,0,0,8,,,,,,,,,11,,,,72,68
37023,note_on,0,0,3,,,,,,,,,2,,,,69,83
37023,note_on,5,0,3,,,,,,,,,2,,,,72,83
37023,note_on,5,0,5,,,,,,,,,4,,,,60,82
37024,note_on,30,0,10,,,,,,,,,6,,,,60,0
37024,note_on,0,0,10,,,,,,,,,6,,,,57,62
37025,note_on,5,0,6,,,,,,,,,5,,,,60,82
37025,note_on,0,0,4,,,,,,,,,3,,,,57,95
37025,note_on,5,0,4,,,,,,,,,3,,,,60,95
37052,note_on,0,0,9,,,,,,,,,12,,,,60,66
37052,note_on,30,0,9,,,,,,,,,12,,,,57,0
37052,note_on,30,0,8,,,,,,,,,11,,,,72,0
37052,note_on,0,0,8,,,,,,,,,11,,,,69,68
37054,note_on,30,0,10,,,,,,,,,6,,,,57,0
37054,note_on,0,0,10,,,,,,,,,6,,,,60,62
37077,note_on,55,0,2,,,,,,,,,1,,,,81,0
37080,set_tempo,120,1,0,,,,,,1034483,,,,,,,,
37082,note_on,0,0,8,,,,,,,,,11,,,,70,68
37082,note_on,0,0,9,,,,,,,,,12,,,,55,66
37082,note_on,30,0,9,,,,,,,,,12,,,,60,0
37082,note_on,5,0,2,,,,,,,,,1,,,,82,80
37082,note_on,30,0,8,,,,,,,,,11,,,,69,0
37083,note_on,0,0,3,,,,,,,,,2,,,,72,0
37083,note_on,0,0,3,,,,,,,,,2,,,,70,83
37083,note_on,60,0,3,,,,,,,,,2,,,,69,0
37083,note_on,0,0,3,,,,,,,,,2,,,,67,83
37084,note_on,0,0,10,,,,,,,,,6,,,,55,62
37084,note_on,30,0,10,,,,,,,,,6,,,,60,0
37085,note_on,0,0,4,,,,,,,,,3,,,,58,95
37085,note_on,0,0,4,,,,,,,,,3,,,,60,0
37085,note_on,0,0,4,,,,,,,,,3,,,,55,95
37085,note_on,60,0,4,,,,,,,,,3,,,,57,0
37112,note_on,0,0,8,,,,,,,,,11,,,,67,68
37112,note_on,30,0,8,,,,,,,,,11,,,,70,0
37112,note_on,30,0,9,,,,,,,,,12,,,,55,0
37112,note_on,0,0,9,,,,,,,,,12,,,,58,66
37114,note_on,30,0,10,,,,,,,,,6,,,,55,0
37114,note_on,0,0,10,,,,,,,,,6,,,,58,62
37140,note_on,180,0,1,,,,,,,,,0,,,,83,81
37140,set_tempo,60,1,0,,,,,,937500,,,,,,,,
37142,note_on,0,0,8,,,,,,,,,11,,,,69,68
37142,note_on,30,0,8,,,,,,,,,11,,,,67,0
37142,note_on,60,0,2,,,,,,,,,1,,,,82,0
37142,note_on,30,0,9,,,,,,,,,12,,,,58,0
37142,note_on,0,0,9,,,,,,,,,12,,,,53,66
37143,note_on,0,0,3,,,,,,,,,2,,,,67,0
37143,note_on,60,0,3,,,,,,,,,2,,,,70,0
37143,note_on,0,0,3,,,,,,,,,2,,,,69,83
37143,note_on,0,0,3,,,,,,,,,2,,,,65,83
37144,note_on,30,0,10,,,,,,,,,6,,,,58,0
37144,note_on,0,0,10,,,,,,,,,6,,,,53,62
37145,note_on,60,0,4,,,,,,,,,3,,,,58,0
37145,note_on,0,0,4,,,,,,,,,3,,,,55,0
37145,note_on,0,0,4,,,,,,,,,3,,,,57,95
37145,note_on,0,0,4,,,,,,,,,3,,,,53,95
37172,note_on,30,0,9,,,,,,,,,12,,,,53,0
37172,note_on,0,0,9,,,,,,,,,12,,,,57,66
37172,note_on,0,0,8,,,,,,,,,11,,,,65,68
37172,note_on,30,0,8,,,,,,,,,11,,,,69,0
37174,note_on,30,0,10,,,,,,,,,6,,,,53,0
37174,note_on,0,0,10,,,,,,,,,6,,,,57,62
37198,note_on,175,0,5,,,,,,,,,4,,,,60,0
37198,note_on,0,0,3,,,,,,,,,2,,,,65,0
37198,note_on,55,0,3,,,,,,,,,2,,,,69,0
37200,note_on,55,0,4,,,,,,,,,3,,,,53,0
37200,note_on,175,0,6,,,,,,,,,5,,,,60,0
37200,note_on,60,0,1,,,,,,,,,0,,,,83,0
37200,note_on,0,0,4,,,,,,,,,3,,,,57,0
37200,note_on,0,0,1,,,,,,,,,0,,,,84,81
37202,note_on,0,0,8,,,,,,,,,11,,,,69,68
37202,note_on,30,0,8,,,,,,,,,11,,,,65,0
37202,note_on,30,0,9,,,,,,,,,12,,,,57,0
37202,note_on,0,0,9,,,,,,,,,12,,,,53,66
37203,note_on,5,0,3,,,,,,,,,2,,,,69,83
37203,note_on,0,0,3,,,,,,,,,2,,,,65,83
37203,note_on,5,0,5,,,,,,,,,4,,,,60,82
37204,note_on,0,0,10,,,,,,,,,6,,,,53,62
37204,note_on,30,0,10,,,,,,,,,6,,,,57,0
37205,note_on,5,0,4,,,,,,,,,3,,,,53,95
37205,note_on,0,0,4,,,,,,,,,3,,,,57,95
37205,note_on,5,0,6,,,,,,,,,5,,,,60,82
37232,note_on,30,0,8,,,,,,,,,11,,,,69,0
37232,note_on,0,0,8,,,,,,,,,11,,,,65,68
37232,note_on,30,0,9,,,,,,,,,12,,,,53,0
37232,note_on,0,0,9,,,,,,,,,12,,,,57,66
37234,note_on,30,0,10,,,,,,,,,6,,,,53,0
37234,note_on,0,0,10,,,,,,,,,6,,,,57,62
37255,note_on,55,0,1,,,,,,,,,0,,,,84,0
37260,note_on,0,0,1,,,,,,,,,0,,,,84,81
37260,note_on,0,0,7,,,,,,,,,10,,,,76,104
37260,control_change,360,0,7,,,,,,,,,10,11,52,,,
37260,control_change,5,0,1,,,,,,,,,0,11,64,,,
37260,set_tempo,120,1,0,,,,,,1034483,,,,,,,,
37262,note_on,30,0,8,,,,,,,,,11,,,,65,0
37262,control_change,0,0,9,,,,,,,,,12,11,52,,,
37262,note_on,0,0,9,,,,,,,,,12,,,,55,66
37262,control_change,0,0,8,,,,,,,,,11,11,52,,,
37262,note_on,0,0,8,,,,,,,,,11,,,,70,68
37262,note_on,30,0,9,,,,,,,,,12,,,,57,0
37263,note_on,60,0,3,,,,,,,,,2,,,,65,0
37263,control_change,60,0,5,,,,,,,,,4,11,62,,,
37263,control_change,0,0,3,,,,,,,,,2,11,64,,,
37263,note_on,0,0,3,,,,,,,,,2,,,,70,83
37263,note_on,0,0,3,,,,,,,,,2,,,,67,83
37263,note_on,0,0,3,,,,,,,,,2,,,,69,0
37264,note_on,0,0,10,,,,,,,,,6,,,,55,62
37264,note_on,30,0,10,,,,,,,,,6,,,,57,0
37264,control_change,0,0,10,,,,,,,,,6,11,52,,,
37265,note_on,60,0,4,,,,,,,,,3,,,,57,0
37265,note_on,0,0,4,,,,,,,,,3,,,,53,0
37265,note_on,420,0,11,,,,,,,,,13,,,,48,100
37265,note_on,0,0,4,,,,,,,,,3,,,,58,95
37265,control_change,0,0,4,,,,,,,,,3,11,64,,,
37265,control_change,60,0,6,,,,,,,,,5,11,62,,,
37265,note_on,0,0,4,,,,,,,,,3,,,,55,95
37268,note_on,420,0,12,,,,,,,,,14,,,,36,96
37278,control_change,18,0,7,,,,,,,,,10,11,51,,,
37278,control_change,18,0,1,,,,,,,,,0,11,62,,,
37280,control_change,18,0,8,,,,,,,,,11,11,51,,,
37280,control_change,18,0,9,,,,,,,,,12,11,51,,,
37281,control_change,18,0,5,,,,,,,,,4,11,60,,,
37281,control_change,18,0,3,,,,,,,,,2,11,62,,,
37282,control_change,18,0,10,,,,,,,,,6,11,51,,,
37283,control_change,18,0,6,,,,,,,,,5,11,60,,,
37283,control_change,18,0,4,,,,,,,,,3,11,62,,,
37290,note_on,0,0,7,,,,,,,,,10,,,,79,111
37290,note_on,12,0,7,,,,,,,,,10,,,,76,0
37292,note_on,0,0,9,,,,,,,,,12,,,,58,66
37292,note_on,12,0,8,,,,,,,,,11,,,,70,0
37292,note_on,12,0,9,,,,,,,,,12,,,,55,0
37292,note_on,0,0,8,,,,,,,,,11,,,,67,68
37294,note_on,0,0,10,,,,,,,,,6,,,,58,62
37294,note_on,12,0,10,,,,,,,,,6,,,,55,0
37296,control_change,18,0,1,,,,,,,,,0,11,61,,,
37296,control_change,6,0,7,,,,,,,,,10,11,50,,,
37298,control_change,6,0,9,,,,,,,,,12,11,50,,,
37298,control_change,6,0,8,,,,,,,,,11,11,50,,,
37299,control_change,18,0,5,,,,,,,,,4,11,58,,,
37299,control_change,18,0,3,,,,,,,,,2,11,61,,,
37300,control_change,6,0,10,,,,,,,,,6,11,50,,,
37301,control_change,18,0,4,,,,,,,,,3,11,61,,,
37301,control_change,18,0,6,,,,,,,,,5,11,58,,,
37314,control_change,18,0,1,,,,,,,,,0,11,59,,,
37314,control_change,18,0,7,,,,,,,,,10,11,49,,,
37316,control_change,18,0,8,,,,,,,,,11,11,49,,,
37316,control_change,18,0,9,,,,,,,,,12,11,49,,,
37317,control_change,18,0,3,,,,,,,,,2,11,59,,,
37317,control_change,18,0,5,,,,,,,,,4,11,56,,,
37318,control_change,18,0,10,,,,,,,,,6,11,49,,,
37319,control_change,18,0,6,,,,,,,,,5,11,56,,,
37319,control_change,18,0,4,,,,,,,,,3,11,59,,,
37320,note_on,6,0,1,,,,,,,,,0,,,,84,0
37320,note_on,0,0,7,,,,,,,,,10,,,,82,111
37320,set_tempo,60,1,0,,,,,,937500,,,,,,,,
37320,note_on,6,0,7,,,,,,,,,10,,,,79,0
37322,control_change,180,0,2,,,,,,,,,1,11,59,,,
37322,note_on,0,0,8,,,,,,,,,11,,,,67,68
37322,note_on,0,0,2,,,,,,,,,1,,,,82,80
37322,note_on,0,0,2,,,,,,,,,1,,,,79,80
37322,note_on,6,0,9,,,,,,,,,12,,,,58,0
37322,note_on,0,0,9,,,,,,,,,12,,,,52,66
37322,note_on,6,0,8,,,,,,,,,11,,,,67,0
37323,note_on,6,0,3,,,,,,,,,2,,,,70,0
37323,note_on,0,0,3,,,,,,,,,2,,,,67,0
37323,note_on,0,0,3,,,,,,,,,2,,,,64,83
37323,note_on,0,0,3,,,,,,,,,2,,,,67,83
37324,note_on,0,0,10,,,,,,,,,6,,,,52,62
37324,note_on,6,0,10,,,,,,,,,6,,,,58,0
37325,note_on,0,0,4,,,,,,,,,3,,,,52,95
37325,note_on,6,0,4,,,,,,,,,3,,,,58,0
37325,note_on,0,0,4,,,,,,,,,3,,,,55,0
37325,note_on,0,0,4,,,,,,,,,3,,,,55,95
37332,control_change,12,0,7,,,,,,,,,10,11,48,,,
37334,control_change,12,0,8,,,,,,,,,11,11,48,,,
37334,control_change,12,0,9,,,,,,,,,12,11,48,,,
37335,control_change,18,0,5,,,,,,,,,4,11,54,,,
37335,control_change,12,0,3,,,,,,,,,2,11,57,,,
37336,control_change,12,0,10,,,,,,,,,6,11,48,,,
37337,control_change,18,0,6,,,,,,,,,5,11,54,,,
37337,control_change,12,0,4,,,,,,,,,3,11,57,,,
37343,control_change,21,0,2,,,,,,,,,1,11,56,,,
37350,note_on,18,0,7,,,,,,,,,10,,,,82,0
37350,control_change,0,0,7,,,,,,,,,10,11,47,,,
37350,note_on,0,0,7,,,,,,,,,10,,,,79,111
37352,note_on,18,0,8,,,,,,,,,11,,,,67,0
37352,control_change,0,0,8,,,,,,,,,11,11,47,,,
37352,note_on,0,0,8,,,,,,,,,11,,,,64,68
37352,note_on,18,0,9,,,,,,,,,12,,,,52,0
37352,control_change,0,0,9,,,,,,,,,12,11,47,,,
37352,note_on,0,0,9,,,,,,,,,12,,,,55,66
37353,control_change,18,0,5,,,,,,,,,4,11,52,,,
37353,control_change,18,0,3,,,,,,,,,2,11,55,,,
37354,note_on,18,0,10,,,,,,,,,6,,,,52,0
37354,control_change,0,0,10,,,,,,,,,6,11,47,,,
37354,note_on,0,0,10,,,,,,,,,6,,,,55,62
37355,control_change,18,0,6,,,,,,,,,5,11,52,,,
37355,control_change,18,0,4,,,,,,,,,3,11,55,,,
37361,control_change,18,0,2,,,,,,,,,1,11,55,,,
37368,control_change,18,0,7,,,,,,,,,10,11,46,,,
37370,control_change,18,0,9,,,,,,,,,12,11,46,,,
37370,control_change,18,0,8,,,,,,,,,11,11,46,,,
37371,control_change,18,0,5,,,,,,,,,4,11,50,,,
37371,control_change,18,0,3,,,,,,,,,2,11,54,,,
37372,control_change,18,0,10,,,,,,,,,6,11,46,,,
37373,control_change,18,0,6,,,,,,,,,5,11,50,,,
37373,control_change,18,0,4,,,,,,,,,3,11,54,,,
37378,note_on,0,0,3,,,,,,,,,2,,,,64,0
37378,note_on,7,0,3,,,,,,,,,2,,,,67,0
37378,note_on,7,0,5,,,,,,,,,4,,,,60,0
37379,control_change,18,0,2,,,,,,,,,1,11,53,,,
37380,note_on,7,0,6,,,,,,,,,5,,,,60,0
37380,note_on,0,0,4,,,,,,,,,3,,,,55,0
37380,note_on,12,0,7,,,,,,,,,10,,,,79,0
37380,note_on,0,0,7,,,,,,,,,10,,,,76,111
37380,note_on,7,0,4,,,,,,,,,3,,,,52,0
37382,note_on,12,0,8,,,,,,,,,11,,,,64,0
37382,note_on,0,0,8,,,,,,,,,11,,,,67,68
37382,note_on,0,0,2,,,,,,,,,1,,,,79,80
37382,note_on,3,0,2,,,,,,,,,1,,,,82,0
37382,note_on,12,0,9,,,,,,,,,12,,,,55,0
37382,note_on,0,0,9,,,,,,,,,12,,,,52,66
37382,note_on,0,0,2,,,,,,,,,1,,,,70,80
37382,note_on,0,0,2,,,,,,,,,1,,,,79,0
37383,note_on,5,0,3,,,,,,,,,2,,,,67,83
37383,note_on,0,0,3,,,,,,,,,2,,,,64,83
37383,note_on,5,0,5,,,,,,,,,4,,,,60,82
37384,note_on,0,0,10,,,,,,,,,6,,,,52,62
37384,note_on,12,0,10,,,,,,,,,6,,,,55,0
37385,note_on,5,0,4,,,,,,,,,3,,,,55,95
37385,note_on,5,0,6,,,,,,,,,5,,,,60,82
37385,note_on,0,0,4,,,,,,,,,3,,,,52,95
37386,control_change,6,0,7,,,,,,,,,10,11,45,,,
37388,control_change,6,0,9,,,,,,,,,12,11,45,,,
37388,control_change,6,0,8,,,,,,,,,11,11,45,,,
37389,control_change,6,0,3,,,,,,,,,2,11,52,,,
37389,control_change,6,0,5,,,,,,,,,4,11,48,,,
37390,control_change,6,0,10,,,,,,,,,6,11,45,,,
37391,control_change,6,0,4,,,,,,,,,3,11,52,,,
37391,control_change,6,0,6,,,,,,,,,5,11,48,,,
37397,control_change,15,0,2,,,,,,,,,1,11,52,,,
37404,control_change,18,0,7,,,,,,,,,10,11,44,,,
37406,control_change,18,0,8,,,,,,,,,11,11,44,,,
37406,control_change,18,0,9,,,,,,,,,12,11,44,,,
37407,control_change,18,0,5,,,,,,,,,4,11,46,,,
37407,control_change,18,0,3,,,,,,,,,2,11,51,,,
37408,control_change,18,0,10,,,,,,,,,6,11,44,,,
37409,control_change,18,0,4,,,,,,,,,3,11,51,,,
37409,control_change,18,0,6,,,,,,,,,5,11,46,,,
37410,note_on,0,0,7,,,,,,,,,10,,,,79,111
37410,note_on,6,0,7,,,,,,,,,10,,,,76,0
37412,note_on,6,0,9,,,,,,,,,12,,,,52,0
37412,note_on,6,0,8,,,,,,,,,11,,,,67,0
37412,note_on,0,0,9,,,,,,,,,12,,,,55,66
37412,note_on,0,0,8,,,,,,,,,11,,,,64,68
37414,note_on,6,0,10,,,,,,,,,6,,,,52,0
37414,note_on,0,0,10,,,,,,,,,6,,,,55,62
37415,control_change,18,0,2,,,,,,,,,1,11,50,,,
37422,control_change,12,0,7,,,,,,,,,10,11,43,,,
37424,control_change,12,0,9,,,,,,,,,12,11,43,,,
37424,control_change,12,0,8,,,,,,,,,11,11,43,,,
37425,control_change,18,0,3,,,,,,,,,2,11,49,,,
37425,control_change,18,0,5,,,,,,,,,4,11,44,,,
37426,control_change,12,0,10,,,,,,,,,6,11,43,,,
37427,control_change,18,0,4,,,,,,,,,3,11,49,,,
37427,control_change,18,0,6,,,,,,,,,5,11,44,,,
37433,control_change,18,0,2,,,,,,,,,1,11,48,,,
37435,note_on,13,0,7,,,,,,,,,10,,,,79,0
37437,note_on,4,0,2,,,,,,,,,1,,,,79,0
37437,note_on,0,0,2,,,,,,,,,1,,,,70,0
37437,note_on,13,0,9,,,,,,,,,12,,,,55,0
37437,note_on,13,0,8,,,,,,,,,11,,,,64,0
37438,note_on,13,0,5,,,,,,,,,4,,,,60,0
37439,note_on,13,0,10,,,,,,,,,6,,,,55,0
37440,note_on,13,0,6,,,,,,,,,5,,,,60,0
37440,note_on,175,0,11,,,,,,,,,13,,,,48,0
37440,note_on,0,0,7,,,,,,,,,10,,,,77,102
37440,set_tempo,120,1,0,,,,,,1034483,,,,,,,,
37440,control_change,5,0,7,,,,,,,,,10,11,47,,,
37442,control_change,5,0,8,,,,,,,,,11,11,47,,,
37442,note_on,0,0,9,,,,,,,,,12,,,,53,66
37442,note_on,0,0,2,,,,,,,,,1,,,,77,80
37442,note_on,5,0,2,,,,,,,,,1,,,,69,80
37442,control_change,5,0,9,,,,,,,,,12,11,47,,,
37442,note_on,0,0,8,,,,,,,,,11,,,,69,68
37443,control_change,5,0,5,,,,,,,,,4,11,42,,,
37443,note_on,175,0,12,,,,,,,,,14,,,,36,0
37443,note_on,0,0,5,,,,,,,,,4,,,,60,82
37443,note_on,18,0,3,,,,,,,,,2,,,,64,0
37443,note_on,0,0,3,,,,,,,,,2,,,,65,83
37443,note_on,0,0,3,,,,,,,,,2,,,,67,0
37443,note_on,0,0,3,,,,,,,,,2,,,,69,83
37443,control_change,0,0,3,,,,,,,,,2,11,47,,,
37444,control_change,5,0,10,,,,,,,,,6,11,47,,,
37444,note_on,0,0,10,,,,,,,,,6,,,,53,62
37445,note_on,5,0,11,,,,,,,,,13,,,,41,100
37445,note_on,0,0,4,,,,,,,,,3,,,,55,0
37445,note_on,18,0,4,,,,,,,,,3,,,,52,0
37445,control_change,0,0,4,,,,,,,,,3,11,47,,,
37445,note_on,0,0,4,,,,,,,,,3,,,,53,95
37445,note_on,0,0,4,,,,,,,,,3,,,,57,95
37445,note_on,0,0,6,,,,,,,,,5,,,,53,82
37445,control_change,5,0,6,,,,,,,,,5,11,42,,,
37448,note_on,5,0,12,,,,,,,,,14,,,,29,96
37472,note_on,0,0,8,,,,,,,,,11,,,,65,68
37472,note_on,30,0,9,,,,,,,,,12,,,,53,0
37472,note_on,0,0,9,,,,,,,,,12,,,,57,66
37472,note_on,30,0,8,,,,,,,,,11,,,,69,0
37474,note_on,30,0,10,,,,,,,,,6,,,,53,0
37474,note_on,0,0,10,,,,,,,,,6,,,,57,62
37500,control_change,60,0,7,,,,,,,,,10,11,47,,,
37500,set_tempo,60,1,0,,,,,,937500,,,,,,,,
37502,note_on,30,0,8,,,,,,,,,11,,,,65,0
37502,note_on,0,0,9,,,,,,,,,12,,,,57,66
37502,note_on,30,0,9,,,,,,,,,12,,,,57,0
37502,note_on,0,0,8,,,,,,,,,11,,,,72,68
37503,note_on,60,0,3,,,,,,,,,2,,,,69,0
37503,note_on,0,0,3,,,,,,,,,2,,,,65,0
37503,note_on,0,0,3,,,,,,,,,2,,,,72,83
37503,note_on,0,0,3,,,,,,,,,2,,,,69,83
37504,note_on,30,0,10,,,,,,,,,6,,,,57,0
37504,note_on,0,0,10,,,,,,,,,6,,,,57,62
37505,note_on,0,0,4,,,,,,,,,3,,,,60,95
37505,note_on,0,0,4,,,,,,,,,3,,,,57,0
37505,note_on,0,0,4,,,,,,,,,3,,,,57,95
37505,note_on,60,0,4,,,,,,,,,3,,,,53,0
37511,control_change,11,0,7,,,,,,,,,10,11,44,,,
37523,control_change,12,0,7,,,,,,,,,10,11,41,,,
37532,note_on,0,0,8,,,,,,,,,11,,,,69,68
37532,note_on,30,0,9,,,,,,,,,12,,,,57,0
37532,note_on,30,0,8,,,,,,,,,11,,,,72,0
37532,note_on,0,0,9,,,,,,,,,12,,,,60,66
37534,note_on,30,0,10,,,,,,,,,6,,,,57,0
37534,note_on,0,0,10,,,,,,,,,6,,,,60,62
37535,control_change,12,0,7,,,,,,,,,10,11,38,,,
37547,control_change,12,0,7,,,,,,,,,10,11,35,,,
37558,note_on,55,0,3,,,,,,,,,2,,,,69,0
37558,note_on,0,0,3,,,,,,,,,2,,,,72,0
37559,control_change,12,0,7,,,,,,,,,10,11,32,,,
37560,note_on,1,0,7,,,,,,,,,10,,,,77,0
37560,note_on,55,0,4,,,,,,,,,3,,,,57,0
37560,note_on,0,0,4,,,,,,,,,3,,,,60,0
37562,note_on,120,0,2,,,,,,,,,1,,,,77,0
37562,note_on,30,0,9,,,,,,,,,12,,,,60,0
37562,note_on,0,0,9,,,,,,,,,12,,,,57,66
37562,note_on,30,0,8,,,,,,,,,11,,,,69,0
37562,note_on,0,0,2,,,,,,,,,1,,,,69,0
37562,note_on,0,0,8,,,,,,,,,11,,,,72,68
37563,note_on,5,0,3,,,,,,,,,2,,,,72,83
37563,note_on,0,0,3,,,,,,,,,2,,,,69,83
37564,note_on,0,0,10,,,,,,,,,6,,,,57,62
37564,note_on,30,0,10,,,,,,,,,6,,,,60,0
37565,note_on,0,0,4,,,,,,,,,3,,,,57,95
37565,note_on,5,0,4,,,,,,,,,3,,,,60,95
37565,note_on,120,0,11,,,,,,,,,13,,,,41,0
37568,note_on,120,0,12,,,,,,,,,14,,,,29,0
37586,control_change,24,0,2,,,,,,,,,1,11,46,,,
37587,control_change,24,0,3,,,,,,,,,2,11,46,,,
37587,control_change,144,0,5,,,,,,,,,4,11,41,,,
37589,control_change,24,0,4,,,,,,,,,3,11,46,,,
37589,control_change,144,0,6,,,,,,,,,5,11,41,,,
37592,note_on,0,0,8,,,,,,,,,11,,,,69,68
37592,note_on,30,0,8,,,,,,,,,11,,,,72,0
37592,note_on,30,0,9,,,,,,,,,12,,,,57,0
37592,note_on,0,0,9,,,,,,,,,12,,,,60,66
37594,note_on,30,0,10,,,,,,,,,6,,,,57,0
37594,note_on,0,0,10,,,,,,,,,6,,,,60,62
37620,set_tempo,120,1,0,,,,,,1034483,,,,,,,,
37620,note_on,0,0,7,,,,,,,,,10,,,,74,103
37620,control_change,60,0,7,,,,,,,,,10,11,47,,,
37622,note_on,30,0,9,,,,,,,,,12,,,,60,0
37622,control_change,0,0,9,,,,,,,,,12,11,47,,,
37622,note_on,0,0,8,,,,,,,,,11,,,,74,68
37622,control_change,0,0,8,,,,,,,,,11,11,47,,,
37622,note_on,0,0,9,,,,,,,,,12,,,,58,66
37622,note_on,30,0,8,,,,,,,,,11,,,,69,0
37623,note_on,36,0,3,,,,,,,,,2,,,,69,0
37623,note_on,0,0,3,,,,,,,,,2,,,,74,83
37623,note_on,0,0,3,,,,,,,,,2,,,,70,83
37623,note_on,0,0,3,,,,,,,,,2,,,,72,0
37624,note_on,30,0,10,,,,,,,,,6,,,,60,0
37624,control_change,0,0,10,,,,,,,,,6,11,47,,,
37624,note_on,0,0,10,,,,,,,,,6,,,,58,62
37625,note_on,0,0,4,,,,,,,,,3,,,,58,95
37625,note_on,36,0,4,,,,,,,,,3,,,,57,0
37625,note_on,0,0,4,,,,,,,,,3,,,,60,0
37625,note_on,0,0,4,,,,,,,,,3,,,,62,95
37630,note_on,0,0,7,,,,,,,,,10,,,,72,103
37630,note_on,10,0,7,,,,,,,,,10,,,,74,0
37640,note_on,10,0,7,,,,,,,,,10,,,,72,0
37640,note_on,0,0,7,,,,,,,,,10,,,,71,103
37650,note_on,10,0,7,,,,,,,,,10,,,,71,0
37650,note_on,0,0,7,,,,,,,,,10,,,,72,103
37652,note_on,30,0,9,,,,,,,,,12,,,,58,0
37652,note_on,0,0,9,,,,,,,,,12,,,,62,66
37652,note_on,30,0,8,,,,,,,,,11,,,,74,0
37652,note_on,0,0,8,,,,,,,,,11,,,,70,68
37654,note_on,0,0,10,,,,,,,,,6,,,,62,62
37654,note_on,30,0,10,,,,,,,,,6,,,,58,0
37680,set_tempo,60,1,0,,,,,,944882,,,,,,,,
37682,note_on,30,0,9,,,,,,,,,12,,,,62,0
37682,note_on,30,0,8,,,,,,,,,11,,,,70,0
37682,note_on,0,0,9,,,,,,,,,12,,,,57,66
37682,note_on,0,0,8,,,,,,,,,11,,,,72,68
37683,note_on,0,0,3,,,,,,,,,2,,,,69,83
37683,note_on,0,0,3,,,,,,,,,2,,,,72,83
37683,note_on,0,0,3,,,,,,,,,2,,,,74,0
37683,note_on,60,0,3,,,,,,,,,2,,,,70,0
37684,note_on,0,0,10,,,,,,,,,6,,,,57,62
37684,note_on,30,0,10,,,,,,,,,6,,,,62,0
37685,note_on,0,0,4,,,,,,,,,3,,,,60,95
37685,note_on,60,0,4,,,,,,,,,3,,,,62,0
37685,note_on,0,0,4,,,,,,,,,3,,,,57,95
37685,note_on,0,0,4,,,,,,,,,3,,,,58,0
37704,control_change,54,0,7,,,,,,,,,10,11,46,,,
37706,control_change,24,0,8,,,,,,,,,11,11,46,,,
37706,control_change,24,0,9,,,,,,,,,12,11,46,,,
37708,control_change,24,0,10,,,,,,,,,6,11,46,,,
37712,note_on,6,0,8,,,,,,,,,11,,,,72,0
37712,note_on,0,0,8,,,,,,,,,11,,,,69,68
37712,note_on,6,0,9,,,,,,,,,12,,,,57,0
37712,note_on,0,0,9,,,,,,,,,12,,,,60,66
37714,note_on,6,0,10,,,,,,,,,6,,,,57,0
37714,note_on,0,0,10,,,,,,,,,6,,,,60,62
37730,control_change,144,0,2,,,,,,,,,1,11,45,,,
37731,control_change,48,0,3,,,,,,,,,2,11,45,,,
37731,control_change,144,0,5,,,,,,,,,4,11,40,,,
37733,control_change,144,0,6,,,,,,,,,5,11,40,,,
37733,control_change,48,0,4,,,,,,,,,3,11,45,,,
37738,note_on,7,0,3,,,,,,,,,2,,,,72,0
37738,note_on,0,0,3,,,,,,,,,2,,,,69,0
37740,note_on,36,0,7,,,,,,,,,10,,,,72,0
37740,note_on,0,0,4,,,,,,,,,3,,,,57,0
37740,note_on,7,0,4,,,,,,,,,3,,,,60,0
37742,note_on,30,0,8,,,,,,,,,11,,,,69,0
37742,note_on,0,0,8,,,,,,,,,11,,,,72,68
37742,note_on,0,0,9,,,,,,,,,12,,,,57,66
37742,note_on,30,0,9,,,,,,,,,12,,,,60,0
37743,note_on,5,0,3,,,,,,,,,2,,,,72,83
37743,note_on,0,0,3,,,,,,,,,2,,,,69,83
37744,note_on,0,0,10,,,,,,,,,6,,,,57,62
37744,note_on,30,0,10,,,,,,,,,6,,,,60,0
37745,note_on,5,0,4,,,,,,,,,3,,,,57,95
37745,note_on,0,0,4,,,,,,,,,3,,,,60,95
37772,note_on,30,0,9,,,,,,,,,12,,,,57,0
37772,note_on,0,0,9,,,,,,,,,12,,,,60,66
37772,note_on,0,0,8,,,,,,,,,11,,,,69,68
37772,note_on,30,0,8,,,,,,,,,11,,,,72,0
37774,note_on,30,0,10,,,,,,,,,6,,,,57,0
37774,note_on,0,0,10,,,,,,,,,6,,,,60,62
37788,control_change,48,0,7,,,,,,,,,10,11,45,,,
37790,control_change,18,0,8,,,,,,,,,11,11,45,,,
37790,control_change,18,0,9,,,,,,,,,12,11,45,,,
37792,control_change,18,0,10,,,,,,,,,6,11,45,,,
37797,note_on,7,0,9,,,,,,,,,12,,,,60,0
37797,note_on,7,0,8,,,,,,,,,11,,,,69,0
37798,note_on,67,0,5,,,,,,,,,4,,,,60,0
37799,note_on,7,0,10,,,,,,,,,6,,,,60,0
37800,control_change,0,0,1,,,,,,,,,0,11,45,,,
37800,note_on,0,0,1,,,,,,,,,0,,,,81,96
37800,note_on,480,0,1,,,,,,,,,0,,,,84,96
37800,note_on,67,0,6,,,,,,,,,5,,,,53,0
37800,set_tempo,120,1,0,,,,,,1034483,,,,,,,,
37802,note_on,5,0,9,,,,,,,,,12,,,,53,66
37802,note_on,0,0,2,,,,,,,,,1,,,,77,95
37802,note_on,5,0,8,,,,,,,,,11,,,,69,68
37802,note_on,72,0,2,,,,,,,,,1,,,,72,95
37803,note_on,60,0,3,,,,,,,,,2,,,,69,0
37803,note_on,0,0,3,,,,,,,,,2,,,,72,0
37803,note_on,5,0,5,,,,,,,,,4,,,,53,82
37804,program_change,239,0,11,,,,,,,,45,13,,,,,
37804,note_on,5,0,10,,,,,,,,,6,,,,53,62
37805,control_change,1,0,11,,,,,,,,,13,11,100,,,
37805,note_on,0,0,4,,,,,,,,,3,,,,57,0
37805,note_on,5,0,6,,,,,,,,,5,,,,53,82
37805,note_on,60,0,4,,,,,,,,,3,,,,60,0
37805,note_on,0,0,11,,,,,,,,,13,,,,41,40
37807,program_change,239,0,12,,,,,,,,45,14,,,,,
37808,control_change,1,0,12,,,,,,,,,14,11,100,,,
37808,note_on,0,0,12,,,,,,,,,14,,,,29,33
37832,note_on,0,0,9,,,,,,,,,12,,,,57,66
37832,note_on,30,0,9,,,,,,,,,12,,,,53,0
37832,note_on,30,0,8,,,,,,,,,11,,,,69,0
37832,note_on,0,0,8,,,,,,,,,11,,,,65,68
37834,note_on,30,0,10,,,,,,,,,6,,,,53,0
37834,note_on,0,0,10,,,,,,,,,6,,,,57,62
37860,set_tempo,60,1,0,,,,,,960000,,,,,,,,
37862,note_on,30,0,9,,,,,,,,,12,,,,57,0
37862,note_on,0,0,8,,,,,,,,,11,,,,69,68
37862,note_on,0,0,9,,,,,,,,,12,,,,53,66
37862,note_on,30,0,8,,,,,,,,,11,,,,65,0
37863,note_on,0,0,3,,,,,,,,,2,,,,65,83
37863,note_on,60,0,3,,,,,,,,,2,,,,69,83
37864,note_on,30,0,10,,,,,,,,,6,,,,57,0
37864,note_on,0,0,10,,,,,,,,,6,,,,53,62
37865,note_on,0,0,4,,,,,,,,,3,,,,57,95
37865,note_on,60,0,4,,,,,,,,,3,,,,53,95
37872,control_change,84,0,7,,,,,,,,,10,11,44,,,
37872,control_change,72,0,1,,,,,,,,,0,11,45,,,
37874,control_change,12,0,8,,,,,,,,,11,11,44,,,
37874,control_change,12,0,9,,,,,,,,,12,11,44,,,
37874,control_change,72,0,2,,,,,,,,,1,11,45,,,
37875,control_change,72,0,5,,,,,,,,,4,11,39,,,
37875,control_change,12,0,3,,,,,,,,,2,11,45,,,
37876,control_change,12,0,10,,,,,,,,,6,11,44,,,
37877,control_change,12,0,4,,,,,,,,,3,11,45,,,
37877,control_change,72,0,6,,,,,,,,,5,11,39,,,
37892,note_on,0,0,9,,,,,,,,,12,,,,57,66
37892,note_on,18,0,9,,,,,,,,,12,,,,53,0
37892,note_on,18,0,8,,,,,,,,,11,,,,69,0
37892,note_on,0,0,8,,,,,,,,,11,,,,65,68
37894,note_on,0,0,10,,,,,,,,,6,,,,57,62
37894,note_on,18,0,10,,,,,,,,,6,,,,53,0
37918,note_on,43,0,3,,,,,,,,,2,,,,65,0
37918,note_on,0,0,3,,,,,,,,,2,,,,69,0
37920,note_on,0,0,4,,,,,,,,,3,,,,53,0
37920,note_on,43,0,4,,,,,,,,,3,,,,57,0
37920,note_on,0,0,1,,,,,,,,,0,,,,84,0
37920,note_on,48,0,1,,,,,,,,,0,,,,81,0
37922,note_on,48,0,2,,,,,,,,,1,,,,77,0
37922,note_on,0,0,9,,,,,,,,,12,,,,53,66
37922,note_on,0,0,8,,,,,,,,,11,,,,69,68
37922,note_on,30,0,8,,,,,,,,,11,,,,65,0
37922,note_on,30,0,9,,,,,,,,,12,,,,57,0
37922,note_on,0,0,2,,,,,,,,,1,,,,72,0
37923,note_on,0,0,3,,,,,,,,,2,,,,65,83
37923,note_on,5,0,3,,,,,,,,,2,,,,69,83
37924,note_on,30,0,10,,,,,,,,,6,,,,57,0
37924,note_on,0,0,10,,,,,,,,,6,,,,53,62
37925,note_on,5,0,4,,,,,,,,,3,,,,53,95
37925,note_on,0,0,4,,,,,,,,,3,,,,57,95
37925,note_on,120,0,11,,,,,,,,,13,,,,41,0
37928,note_on,120,0,12,,,,,,,,,14,,,,29,0
37952,note_on,0,0,9,,,,,,,,,12,,,,57,66
37952,note_on,30,0,9,,,,,,,,,12,,,,53,0
37952,note_on,30,0,8,,,,,,,,,11,,,,69,0
37952,note_on,0,0,8,,,,,,,,,11,,,,65,68
37954,note_on,0,0,10,,,,,,,,,6,,,,57,62
37954,note_on,30,0,10,,,,,,,,,6,,,,53,0
37956,control_change,84,0,7,,,,,,,,,10,11,43,,,
37958,control_change,6,0,9,,,,,,,,,12,11,43,,,
37958,control_change,6,0,8,,,,,,,,,11,11,43,,,
37960,control_change,6,0,10,,,,,,,,,6,11,43,,,
37980,set_tempo,120,1,0,,,,,,1034483,,,,,,,,
37980,note_on,24,0,7,,,,,,,,,10,,,,70,103
37982,note_on,0,0,8,,,,,,,,,11,,,,70,68
37982,note_on,0,0,9,,,,,,,,,12,,,,55,66
37982,note_on,24,0,8,,,,,,,,,11,,,,65,0
37982,note_on,24,0,9,,,,,,,,,12,,,,57,0
37983,note_on,60,0,3,,,,,,,,,2,,,,65,0
37983,note_on,0,0,3,,,,,,,,,2,,,,69,0
37983,note_on,0,0,3,,,,,,,,,2,,,,70,83
37983,note_on,0,0,3,,,,,,,,,2,,,,67,83
37984,note_on,24,0,10,,,,,,,,,6,,,,57,0
37984,note_on,0,0,10,,,,,,,,,6,,,,55,62
37985,note_on,60,0,4,,,,,,,,,3,,,,57,0
37985,note_on,0,0,4,,,,,,,,,3,,,,53,0
37985,note_on,0,0,4,,,,,,,,,3,,,,58,95
37985,note_on,0,0,4,,,,,,,,,3,,,,55,95
37990,note_on,10,0,7,,,,,,,,,10,,,,70,0
37990,note_on,0,0,7,,,,,,,,,10,,,,69,103
38000,note_on,10,0,7,,,,,,,,,10,,,,69,0
38000,note_on,0,0,7,,,,,,,,,10,,,,67,103
38010,note_on,0,0,7,,,,,,,,,10,,,,69,103
38010,note_on,10,0,7,,,,,,,,,10,,,,67,0
38012,note_on,30,0,8,,,,,,,,,11,,,,70,0
38012,note_on,0,0,8,,,,,,,,,11,,,,67,68
38012,note_on,0,0,9,,,,,,,,,12,,,,58,66
38012,note_on,30,0,9,,,,,,,,,12,,,,55,0
38014,note_on,0,0,10,,,,,,,,,6,,,,58,62
38014,note_on,30,0,10,,,,,,,,,6,,,,55,0
38016,control_change,96,0,1,,,,,,,,,0,11,44,,,
38018,control_change,96,0,2,,,,,,,,,1,11,44,,,
38019,control_change,144,0,5,,,,,,,,,4,11,38,,,
38019,control_change,36,0,3,,,,,,,,,2,11,44,,,
38021,control_change,36,0,4,,,,,,,,,3,11,44,,,
38021,control_change,144,0,6,,,,,,,,,5,11,38,,,
38040,control_change,30,0,7,,,,,,,,,10,11,42,,,
38040,set_tempo,60,1,0,,,,,,960000,,,,,,,,
38042,note_on,30,0,9,,,,,,,,,12,,,,58,0
38042,note_on,0,0,8,,,,,,,,,11,,,,69,68
38042,control_change,0,0,8,,,,,,,,,11,11,42,,,
38042,control_change,0,0,9,,,,,,,,,12,11,42,,,
38042,note_on,0,0,9,,,,,,,,,12,,,,53,66
38042,note_on,30,0,8,,,,,,,,,11,,,,67,0
38043,note_on,0,0,3,,,,,,,,,2,,,,69,83
38043,note_on,0,0,3,,,,,,,,,2,,,,70,0
38043,note_on,24,0,3,,,,,,,,,2,,,,67,0
38043,note_on,0,0,3,,,,,,,,,2,,,,65,83
38044,note_on,0,0,10,,,,,,,,,6,,,,53,62
38044,control_change,0,0,10,,,,,,,,,6,11,42,,,
38044,note_on,30,0,10,,,,,,,,,6,,,,58,0
38045,note_on,0,0,4,,,,,,,,,3,,,,58,0
38045,note_on,0,0,4,,,,,,,,,3,,,,57,95
38045,note_on,0,0,4,,,,,,,,,3,,,,53,95
38045,note_on,24,0,4,,,,,,,,,3,,,,55,0
38072,note_on,30,0,9,,,,,,,,,12,,,,53,0
38072,note_on,0,0,9,,,,,,,,,12,,,,57,66
38072,note_on,0,0,8,,,,,,,,,11,,,,65,68
38072,note_on,30,0,8,,,,,,,,,11,,,,69,0
38074,note_on,0,0,10,,,,,,,,,6,,,,57,62
38074,note_on,30,0,10,,,,,,,,,6,,,,53,0
38098,note_on,0,0,3,,,,,,,,,2,,,,69,0
38098,note_on,55,0,3,,,,,,,,,2,,,,65,0
38100,note_on,60,0,7,,,,,,,,,10,,,,69,0
38100,note_on,0,0,4,,,,,,,,,3,,,,57,0
38100,note_on,55,0,4,,,,,,,,,3,,,,53,0
38102,note_on,0,0,9,,,,,,,,,12,,,,53,66
38102,note_on,30,0,8,,,,,,,,,11,,,,65,0
38102,note_on,30,0,9,,,,,,,,,12,,,,57,0
38102,note_on,0,0,8,,,,,,,,,11,,,,69,68
38103,note_on,0,0,3,,,,,,,,,2,,,,69,83
38103,note_on,5,0,3,,,,,,,,,2,,,,65,83
38104,note_on,0,0,10,,,,,,,,,6,,,,53,62
38104,note_on,30,0,10,,,,,,,,,6,,,,57,0
38105,note_on,5,0,4,,,,,,,,,3,,,,57,95
38105,note_on,0,0,4,,,,,,,,,3,,,,53,95
38124,control_change,24,0,7,,,,,,,,,10,11,41,,,
38126,control_change,24,0,9,,,,,,,,,12,11,41,,,
38126,control_change,24,0,8,,,,,,,,,11,11,41,,,
38128,control_change,24,0,10,,,,,,,,,6,11,41,,,
38132,note_on,6,0,8,,,,,,,,,11,,,,69,0
38132,note_on,0,0,8,,,,,,,,,11,,,,65,68
38132,note_on,0,0,9,,,,,,,,,12,,,,57,66
38132,note_on,6,0,9,,,,,,,,,12,,,,53,0
38134,note_on,6,0,10,,,,,,,,,6,,,,53,0
38134,note_on,0,0,10,,,,,,,,,6,,,,57,62
38157,note_on,25,0,9,,,,,,,,,12,,,,57,0
38157,note_on,25,0,8,,,,,,,,,11,,,,65,0
38158,note_on,139,0,5,,,,,,,,,4,,,,53,0
38159,note_on,25,0,10,,,,,,,,,6,,,,57,0
38160,note_on,139,0,6,,,,,,,,,5,,,,53,0
38160,note_on,0,0,1,,,,,,,,,0,,,,81,96
38160,note_on,144,0,1,,,,,,,,,0,,,,77,96
38160,set_tempo,120,1,0,,,,,,1025641,,,,,,,,
38160,control_change,0,0,1,,,,,,,,,0,11,43,,,
38162,note_on,0,0,2,,,,,,,,,1,,,,69,95
38162,note_on,0,0,2,,,,,,,,,1,,,,72,95
38162,control_change,144,0,2,,,,,,,,,1,11,43,,,
38162,note_on,5,0,9,,,,,,,,,12,,,,57,66
38162,note_on,5,0,8,,,,,,,,,11,,,,65,68
38163,control_change,0,0,3,,,,,,,,,2,11,43,,,
38163,control_change,5,0,5,,,,,,,,,4,11,37,,,
38163,note_on,0,0,5,,,,,,,,,4,,,,53,82
38163,note_on,0,0,3,,,,,,,,,2,,,,65,0
38163,note_on,60,0,3,,,,,,,,,2,,,,69,0
38164,note_on,5,0,10,,,,,,,,,6,,,,45,52
38165,control_change,0,0,4,,,,,,,,,3,11,43,,,
38165,control_change,5,0,6,,,,,,,,,5,11,37,,,
38165,note_on,0,0,4,,,,,,,,,3,,,,57,0
38165,note_on,60,0,4,,,,,,,,,3,,,,53,0
38165,note_on,0,0,6,,,,,,,,,5,,,,41,82
38165,note_on,240,0,11,,,,,,,,,13,,,,41,38
38168,note_on,240,0,12,,,,,,,,,14,,,,29,31
38192,note_on,0,0,8,,,,,,,,,11,,,,57,68
38192,note_on,0,0,9,,,,,,,,,12,,,,53,66
38192,note_on,30,0,8,,,,,,,,,11,,,,65,0
38192,note_on,30,0,9,,,,,,,,,12,,,,57,0
38194,note_on,30,0,10,,,,,,,,,6,,,,45,0
38194,note_on,0,0,10,,,,,,,,,6,,,,53,52
38208,control_change,84,0,7,,,,,,,,,10,11,40,,,
38210,control_change,18,0,8,,,,,,,,,11,11,40,,,
38210,control_change,18,0,9,,,,,,,,,12,11,40,,,
38212,control_change,18,0,10,,,,,,,,,6,11,40,,,
38220,set_tempo,60,1,0,,,,,,967742,,,,,,,,
38222,note_on,0,0,8,,,,,,,,,11,,,,65,67
38222,note_on,12,0,8,,,,,,,,,11,,,,57,0
38222,note_on,12,0,9,,,,,,,,,12,,,,53,0
38222,note_on,0,0,9,,,,,,,,,12,,,,57,65
38223,note_on,0,0,3,,,,,,,,,2,,,,57,81
38223,note_on,60,0,3,,,,,,,,,2,,,,65,81
38224,note_on,0,0,10,,,,,,,,,6,,,,45,51
38224,note_on,12,0,10,,,,,,,,,6,,,,53,0
38225,note_on,0,0,4,,,,,,,,,3,,,,45,93
38225,note_on,60,0,4,,,,,,,,,3,,,,53,93
38252,note_on,30,0,9,,,,,,,,,12,,,,57,0
38252,note_on,0,0,8,,,,,,,,,11,,,,57,67
38252,note_on,30,0,8,,,,,,,,,11,,,,65,0
38252,note_on,0,0,9,,,,,,,,,12,,,,53,65
38254,note_on,0,0,10,,,,,,,,,6,,,,53,51
38254,note_on,30,0,10,,,,,,,,,6,,,,45,0
38278,note_on,55,0,3,,,,,,,,,2,,,,57,0
38278,note_on,0,0,3,,,,,,,,,2,,,,65,0
38280,note_on,120,0,1,,,,,,,,,0,,,,81,0
38280,note_on,0,0,1,,,,,,,,,0,,,,77,0
38280,note_on,0,0,4,,,,,,,,,3,,,,53,0
38280,note_on,55,0,4,,,,,,,,,3,,,,45,0
38282,note_on,30,0,9,,,,,,,,,12,,,,53,0
38282,note_on,0,0,8,,,,,,,,,11,,,,65,66
38282,note_on,30,0,8,,,,,,,,,11,,,,57,0
38282,note_on,0,0,9,,,,,,,,,12,,,,57,64
38282,note_on,0,0,2,,,,,,,,,1,,,,72,0
38282,note_on,120,0,2,,,,,,,,,1,,,,69,0
38283,note_on,0,0,3,,,,,,,,,2,,,,65,79
38283,note_on,5,0,3,,,,,,,,,2,,,,57,79
38284,note_on,0,0,10,,,,,,,,,6,,,,45,50
38284,note_on,30,0,10,,,,,,,,,6,,,,53,0
38285,note_on,5,0,4,,,,,,,,,3,,,,45,91
38285,note_on,0,0,4,,,,,,,,,3,,,,53,91
38285,note_on,120,0,11,,,,,,,,,13,,,,41,0
38288,note_on,120,0,12,,,,,,,,,14,,,,29,0
38292,control_change,84,0,7,,,,,,,,,10,11,39,,,
38294,control_change,12,0,8,,,,,,,,,11,11,39,,,
38294,control_change,12,0,9,,,,,,,,,12,11,39,,,
38296,control_change,12,0,10,,,,,,,,,6,11,39,,,
38304,control_change,24,0,1,,,,,,,,,0,11,43,,,
38306,control_change,24,0,2,,,,,,,,,1,11,43,,,
38307,control_change,24,0,3,,,,,,,,,2,11,43,,,
38307,control_change,144,0,5,,,,,,,,,4,11,36,,,
38309,control_change,24,0,4,,,,,,,,,3,11,43,,,
38309,control_change,144,0,6,,,,,,,,,5,11,36,,,
38312,note_on,18,0,8,,,,,,,,,11,,,,65,0
38312,note_on,18,0,9,,,,,,,,,12,,,,57,0
38312,note_on,0,0,9,,,,,,,,,12,,,,53,64
38312,note_on,0,0,8,,,,,,,,,11,,,,57,66
38314,note_on,0,0,10,,,,,,,,,6,,,,53,50
38314,note_on,18,0,10,,,,,,,,,6,,,,45,0
38340,set_tempo,120,1,0,,,,,,1034483,,,,,,,,
38340,note_on,36,0,1,,,,,,,,,0,,,,77,80
38340,note_on,0,0,1,,,,,,,,,0,,,,81,80
38340,note_on,48,0,7,,,,,,,,,10,,,,67,111
38342,note_on,30,0,8,,,,,,,,,11,,,,57,0
38342,note_on,0,0,9,,,,,,,,,12,,,,58,63
38342,note_on,30,0,9,,,,,,,,,12,,,,53,0
38342,note_on,36,0,2,,,,,,,,,1,,,,69,79
38342,note_on,0,0,2,,,,,,,,,1,,,,72,79
38342,note_on,0,0,8,,,,,,,,,11,,,,67,65
38343,note_on,36,0,3,,,,,,,,,2,,,,65,0
38343,note_on,0,0,3,,,,,,,,,2,,,,58,77
38343,note_on,0,0,3,,,,,,,,,2,,,,57,0
38343,note_on,0,0,3,,,,,,,,,2,,,,67,77
38344,note_on,0,0,10,,,,,,,,,6,,,,46,50
38344,note_on,30,0,10,,,,,,,,,6,,,,53,0
38345,note_on,36,0,4,,,,,,,,,3,,,,53,0
38345,note_on,60,0,11,,,,,,,,,13,,,,41,35
38345,note_on,0,0,4,,,,,,,,,3,,,,45,0
38345,note_on,0,0,4,,,,,,,,,3,,,,55,89
38345,note_on,0,0,4,,,,,,,,,3,,,,46,89
38348,note_on,60,0,12,,,,,,,,,14,,,,29,28
38350,note_on,0,0,7,,,,,,,,,10,,,,65,111
38350,note_on,10,0,7,,,,,,,,,10,,,,67,0
38360,note_on,0,0,7,,,,,,,,,10,,,,64,111
38360,note_on,10,0,7,,,,,,,,,10,,,,65,0
38370,note_on,10,0,7,,,,,,,,,10,,,,64,0
38370,note_on,0,0,7,,,,,,,,,10,,,,65,99
38372,note_on,0,0,8,,,,,,,,,11,,,,58,65
38372,note_on,30,0,9,,,,,,,,,12,,,,58,0
38372,note_on,0,0,9,,,,,,,,,12,,,,55,63
38372,note_on,30,0,8,,,,,,,,,11,,,,67,0
38374,note_on,30,0,10,,,,,,,,,6,,,,46,0
38374,note_on,0,0,10,,,,,,,,,6,,,,55,50
38376,control_change,6,0,7,,,,,,,,,10,11,38,,,
38378,control_change,6,0,8,,,,,,,,,11,11,38,,,
38378,control_change,6,0,9,,,,,,,,,12,11,38,,,
38380,control_change,6,0,10,,,,,,,,,6,11,38,,,
38400,set_tempo,60,1,0,,,,,,967742,,,,,,,,
38402,note_on,24,0,8,,,,,,,,,11,,,,58,0
38402,note_on,0,0,8,,,,,,,,,11,,,,65,65
38402,note_on,0,0,9,,,,,,,,,12,,,,57,63
38402,note_on,24,0,9,,,,,,,,,12,,,,55,0
38403,note_on,0,0,3,,,,,,,,,2,,,,58,0
38403,note_on,60,0,3,,,,,,,,,2,,,,67,0
38403,note_on,0,0,3,,,,,,,,,2,,,,65,75
38403,note_on,0,0,3,,,,,,,,,2,,,,57,75
38404,note_on,24,0,10,,,,,,,,,6,,,,55,0
38404,note_on,0,0,10,,,,,,,,,6,,,,45,49
38405,note_on,60,0,4,,,,,,,,,3,,,,55,0
38405,note_on,0,0,4,,,,,,,,,3,,,,53,87
38405,note_on,0,0,4,,,,,,,,,3,,,,46,0
38405,note_on,0,0,4,,,,,,,,,3,,,,45,87
38432,note_on,30,0,9,,,,,,,,,12,,,,57,0
38432,note_on,0,0,9,,,,,,,,,12,,,,53,63
38432,note_on,30,0,8,,,,,,,,,11,,,,65,0
38432,note_on,0,0,8,,,,,,,,,11,,,,57,65
38434,note_on,30,0,10,,,,,,,,,6,,,,45,0
38434,note_on,0,0,10,,,,,,,,,6,,,,53,49
38448,control_change,108,0,1,,,,,,,,,0,11,42,,,
38450,control_change,108,0,2,,,,,,,,,1,11,42,,,
38451,control_change,144,0,5,,,,,,,,,4,11,35,,,
38451,control_change,48,0,3,,,,,,,,,2,11,42,,,
38453,control_change,48,0,4,,,,,,,,,3,11,42,,,
38453,control_change,144,0,6,,,,,,,,,5,11,35,,,
38458,note_on,0,0,3,,,,,,,,,2,,,,57,0
38458,note_on,7,0,3,,,,,,,,,2,,,,65,0
38460,note_on,84,0,7,,,,,,,,,10,,,,65,0
38460,note_on,0,0,4,,,,,,,,,3,,,,45,0
38460,note_on,7,0,4,,,,,,,,,3,,,,53,0
38460,control_change,0,0,7,,,,,,,,,10,11,37,,,
38460,note_on,12,0,1,,,,,,,,,0,,,,81,0
38460,note_on,0,0,1,,,,,,,,,0,,,,77,0
38462,note_on,0,0,8,,,,,,,,,11,,,,65,64
38462,control_change,0,0,8,,,,,,,,,11,11,37,,,
38462,note_on,30,0,8,,,,,,,,,11,,,,57,0
38462,note_on,0,0,2,,,,,,,,,1,,,,69,0
38462,note_on,0,0,9,,,,,,,,,12,,,,57,62
38462,note_on,30,0,9,,,,,,,,,12,,,,53,0
38462,control_change,0,0,9,,,,,,,,,12,11,37,,,
38462,note_on,12,0,2,,,,,,,,,1,,,,72,0
38463,note_on,5,0,3,,,,,,,,,2,,,,65,73
38463,note_on,0,0,3,,,,,,,,,2,,,,57,73
38464,note_on,30,0,10,,,,,,,,,6,,,,53,0
38464,control_change,0,0,10,,,,,,,,,6,11,37,,,
38464,note_on,0,0,10,,,,,,,,,6,,,,45,49
38465,note_on,0,0,4,,,,,,,,,3,,,,45,85
38465,note_on,120,0,11,,,,,,,,,13,,,,41,0
38465,note_on,5,0,4,,,,,,,,,3,,,,53,85
38468,note_on,120,0,12,,,,,,,,,14,,,,29,0
38492,note_on,30,0,9,,,,,,,,,12,,,,57,0
38492,note_on,0,0,9,,,,,,,,,12,,,,53,62
38492,note_on,30,0,8,,,,,,,,,11,,,,65,0
38492,note_on,0,0,8,,,,,,,,,11,,,,57,64
38494,note_on,30,0,10,,,,,,,,,6,,,,45,0
38494,note_on,0,0,10,,,,,,,,,6,,,,53,49
38520,note_on,0,0,1,,,,,,,,,0,,,,77,74
38520,note_on,60,0,1,,,,,,,,,0,,,,81,74
38520,set_tempo,120,1,0,,,,,,1034483,,,,,,,,
38520,note_on,60,0,7,,,,,,,,,10,,,,67,108
38522,note_on,0,0,8,,,,,,,,,11,,,,67,63
38522,note_on,30,0,8,,,,,,,,,11,,,,57,0
38522,note_on,30,0,9,,,,,,,,,12,,,,53,0
38522,note_on,0,0,2,,,,,,,,,1,,,,72,73
38522,note_on,0,0,9,,,,,,,,,12,,,,58,61
38522,note_on,60,0,2,,,,,,,,,1,,,,69,73
38523,note_on,0,0,3,,,,,,,,,2,,,,58,72
38523,note_on,0,0,3,,,,,,,,,2,,,,67,72
38523,note_on,0,0,3,,,,,,,,,2,,,,65,0
38523,note_on,60,0,3,,,,,,,,,2,,,,57,0
38524,note_on,30,0,10,,,,,,,,,6,,,,53,0
38524,note_on,0,0,10,,,,,,,,,6,,,,46,48
38525,note_on,0,0,4,,,,,,,,,3,,,,46,83
38525,note_on,0,0,4,,,,,,,,,3,,,,53,0
38525,note_on,60,0,4,,,,,,,,,3,,,,45,0
38525,note_on,60,0,11,,,,,,,,,13,,,,41,34
38525,note_on,0,0,4,,,,,,,,,3,,,,55,83
38528,note_on,60,0,12,,,,,,,,,14,,,,29,27
38530,note_on,10,0,7,,,,,,,,,10,,,,67,0
38530,note_on,0,0,7,,,,,,,,,10,,,,65,108
38540,note_on,10,0,7,,,,,,,,,10,,,,65,0
38540,note_on,0,0,7,,,,,,,,,10,,,,64,108
38544,control_change,4,0,7,,,,,,,,,10,11,36,,,
38546,control_change,24,0,9,,,,,,,,,12,11,36,,,
38546,control_change,24,0,8,,,,,,,,,11,11,36,,,
38548,control_change,24,0,10,,,,,,,,,6,11,36,,,
38550,note_on,0,0,7,,,,,,,,,10,,,,65,95
38550,note_on,6,0,7,,,,,,,,,10,,,,64,0
38552,note_on,6,0,8,,,,,,,,,11,,,,67,0
38552,note_on,0,0,8,,,,,,,,,11,,,,58,63
38552,note_on,6,0,9,,,,,,,,,12,,,,58,0
38552,note_on,0,0,9,,,,,,,,,12,,,,55,61
38554,note_on,6,0,10,,,,,,,,,6,,,,46,0
38554,note_on,0,0,10,,,,,,,,,6,,,,55,48
38580,set_tempo,60,1,0,,,,,,960000,,,,,,,,
38582,note_on,30,0,9,,,,,,,,,12,,,,55,0
38582,note_on,0,0,9,,,,,,,,,12,,,,57,61
38582,note_on,0,0,8,,,,,,,,,11,,,,65,63
38582,note_on,30,0,8,,,,,,,,,11,,,,58,0
38583,note_on,0,0,3,,,,,,,,,2,,,,65,70
38583,note_on,60,0,3,,,,,,,,,2,,,,58,0
38583,note_on,0,0,3,,,,,,,,,2,,,,67,0
38583,note_on,0,0,3,,,,,,,,,2,,,,57,70
38584,note_on,30,0,10,,,,,,,,,6,,,,55,0
38584,note_on,0,0,10,,,,,,,,,6,,,,45,48
38585,note_on,0,0,4,,,,,,,,,3,,,,53,81
38585,note_on,60,0,4,,,,,,,,,3,,,,46,0
38585,note_on,0,0,4,,,,,,,,,3,,,,55,0
38585,note_on,0,0,4,,,,,,,,,3,,,,45,81
38592,control_change,72,0,1,,,,,,,,,0,11,41,,,
38594,control_change,72,0,2,,,,,,,,,1,11,41,,,
38595,control_change,144,0,5,,,,,,,,,4,11,34,,,
38595,control_change,12,0,3,,,,,,,,,2,11,41,,,
38597,control_change,12,0,4,,,,,,,,,3,11,41,,,
38597,control_change,144,0,6,,,,,,,,,5,11,34,,,
38612,note_on,30,0,8,,,,,,,,,11,,,,65,0
38612,note_on,30,0,9,,,,,,,,,12,,,,57,0
38612,note_on,0,0,8,,,,,,,,,11,,,,57,62
38612,note_on,0,0,9,,,,,,,,,12,,,,53,60
38614,note_on,0,0,10,,,,,,,,,6,,,,53,47
38614,note_on,30,0,10,,,,,,,,,6,,,,45,0
38628,control_change,78,0,7,,,,,,,,,10,11,35,,,
38630,control_change,18,0,9,,,,,,,,,12,11,35,,,
38630,control_change,18,0,8,,,,,,,,,11,11,35,,,
38632,control_change,18,0,10,,,,,,,,,6,11,35,,,
38638,note_on,0,0,3,,,,,,,,,2,,,,57,0
38638,note_on,43,0,3,,,,,,,,,2,,,,65,0
38640,note_on,0,0,4,,,,,,,,,3,,,,53,0
38640,note_on,12,0,7,,,,,,,,,10,,,,65,0
38640,note_on,48,0,1,,,,,,,,,0,,,,77,0
38640,note_on,43,0,4,,,,,,,,,3,,,,45,0
38640,note_on,0,0,1,,,,,,,,,0,,,,81,0
38642,note_on,12,0,8,,,,,,,,,11,,,,57,0
38642,note_on,12,0,9,,,,,,,,,12,,,,53,0
38642,note_on,48,0,2,,,,,,,,,1,,,,72,0
38642,note_on,0,0,2,,,,,,,,,1,,,,69,0
38642,note_on,0,0,8,,,,,,,,,11,,,,65,62
38642,note_on,0,0,9,,,,,,,,,12,,,,57,60
38643,note_on,0,0,3,,,,,,,,,2,,,,57,69
38643,note_on,5,0,3,,,,,,,,,2,,,,65,69
38644,note_on,12,0,10,,,,,,,,,6,,,,53,0
38644,note_on,0,0,10,,,,,,,,,6,,,,45,47
38645,note_on,5,0,4,,,,,,,,,3,,,,45,79
38645,note_on,0,0,4,,,,,,,,,3,,,,53,79
38645,note_on,120,0,11,,,,,,,,,13,,,,41,0
38648,note_on,120,0,12,,,,,,,,,14,,,,29,0
38672,note_on,30,0,8,,,,,,,,,11,,,,65,0
38672,note_on,30,0,9,,,,,,,,,12,,,,57,0
38672,note_on,0,0,8,,,,,,,,,11,,,,57,61
38672,note_on,0,0,9,,,,,,,,,12,,,,53,59
38674,note_on,30,0,10,,,,,,,,,6,,,,45,0
38674,note_on,0,0,10,,,,,,,,,6,,,,53,46
38700,set_tempo,120,1,0,,,,,,1034483,,,,,,,,
38700,note_on,60,0,7,,,,,,,,,10,,,,67,104
38700,note_on,60,0,1,,,,,,,,,0,,,,81,69
38700,note_on,0,0,1,,,,,,,,,0,,,,77,69
38702,note_on,60,0,2,,,,,,,,,1,,,,69,68
38702,note_on,0,0,8,,,,,,,,,11,,,,67,61
38702,note_on,0,0,9,,,,,,,,,12,,,,58,59
38702,note_on,30,0,9,,,,,,,,,12,,,,53,0
38702,note_on,30,0,8,,,,,,,,,11,,,,57,0
38702,note_on,0,0,2,,,,,,,,,1,,,,72,68
38703,note_on,60,0,3,,,,,,,,,2,,,,57,0
38703,note_on,0,0,3,,,,,,,,,2,,,,67,67
38703,note_on,0,0,3,,,,,,,,,2,,,,58,67
38703,note_on,0,0,3,,,,,,,,,2,,,,65,0
38704,note_on,30,0,10,,,,,,,,,6,,,,53,0
38704,note_on,0,0,10,,,,,,,,,6,,,,46,46
38705,note_on,0,0,4,,,,,,,,,3,,,,45,0
38705,note_on,0,0,4,,,,,,,,,3,,,,46,77
38705,note_on,0,0,4,,,,,,,,,3,,,,55,77
38705,note_on,60,0,11,,,,,,,,,13,,,,41,32
38705,note_on,60,0,4,,,,,,,,,3,,,,53,0
38708,note_on,60,0,12,,,,,,,,,14,,,,29,25
38710,note_on,0,0,7,,,,,,,,,10,,,,65,104
38710,note_on,10,0,7,,,,,,,,,10,,,,67,0
38712,control_change,2,0,7,,,,,,,,,10,11,34,,,
38714,control_change,12,0,8,,,,,,,,,11,11,34,,,
38714,control_change,12,0,9,,,,,,,,,12,11,34,,,
38716,control_change,12,0,10,,,,,,,,,6,11,34,,,
38720,note_on,0,0,7,,,,,,,,,10,,,,64,103
38720,note_on,8,0,7,,,,,,,,,10,,,,65,0
38730,note_on,0,0,7,,,,,,,,,10,,,,65,92
38730,note_on,10,0,7,,,,,,,,,10,,,,64,0
38732,note_on,0,0,9,,,,,,,,,12,,,,55,59
38732,note_on,0,0,8,,,,,,,,,11,,,,58,61
38732,note_on,18,0,8,,,,,,,,,11,,,,67,0
38732,note_on,18,0,9,,,,,,,,,12,,,,58,0
38734,note_on,18,0,10,,,,,,,,,6,,,,46,0
38734,note_on,0,0,10,,,,,,,,,6,,,,55,46
38736,control_change,36,0,1,,,,,,,,,0,11,40,,,
38738,control_change,36,0,2,,,,,,,,,1,11,40,,,
38739,control_change,144,0,5,,,,,,,,,4,11,33,,,
38739,control_change,36,0,3,,,,,,,,,2,11,40,,,
38741,control_change,36,0,4,,,,,,,,,3,11,40,,,
38741,control_change,144,0,6,,,,,,,,,5,11,33,,,
38760,set_tempo,60,1,0,,,,,,983607,,,,,,,,
38762,note_on,30,0,9,,,,,,,,,12,,,,55,0
38762,note_on,0,0,8,,,,,,,,,11,,,,65,61
38762,note_on,30,0,8,,,,,,,,,11,,,,58,0
38762,note_on,0,0,9,,,,,,,,,12,,,,57,59
38763,note_on,0,0,3,,,,,,,,,2,,,,57,66
38763,note_on,0,0,3,,,,,,,,,2,,,,65,66
38763,note_on,0,0,3,,,,,,,,,2,,,,58,0
38763,note_on,24,0,3,,,,,,,,,2,,,,67,0
38764,note_on,30,0,10,,,,,,,,,6,,,,55,0
38764,note_on,0,0,10,,,,,,,,,6,,,,45,46
38765,note_on,0,0,4,,,,,,,,,3,,,,53,76
38765,note_on,0,0,4,,,,,,,,,3,,,,45,76
38765,note_on,0,0,4,,,,,,,,,3,,,,55,0
38765,note_on,24,0,4,,,,,,,,,3,,,,46,0
38792,note_on,30,0,9,,,,,,,,,12,,,,57,0
38792,note_on,30,0,8,,,,,,,,,11,,,,65,0
38792,note_on,0,0,8,,,,,,,,,11,,,,57,60
38792,note_on,0,0,9,,,,,,,,,12,,,,53,58
38794,note_on,30,0,10,,,,,,,,,6,,,,45,0
38794,note_on,0,0,10,,,,,,,,,6,,,,53,45
38796,control_change,66,0,7,,,,,,,,,10,11,33,,,
38798,control_change,6,0,9,,,,,,,,,12,11,33,,,
38798,control_change,6,0,8,,,,,,,,,11,11,33,,,
38800,control_change,6,0,10,,,,,,,,,6,11,33,,,
38818,note_on,0,0,3,,,,,,,,,2,,,,65,0
38818,note_on,55,0,3,,,,,,,,,2,,,,57,0
38820,note_on,24,0,7,,,,,,,,,10,,,,65,0
38820,note_on,84,0,1,,,,,,,,,0,,,,77,0
38820,note_on,55,0,4,,,,,,,,,3,,,,53,0
38820,note_on,0,0,4,,,,,,,,,3,,,,45,0
38820,note_on,0,0,1,,,,,,,,,0,,,,81,0
38822,note_on,0,0,2,,,,,,,,,1,,,,69,0
38822,note_on,24,0,9,,,,,,,,,12,,,,53,0
38822,note_on,84,0,2,,,,,,,,,1,,,,72,0
38822,note_on,24,0,8,,,,,,,,,11,,,,57,0
38822,note_on,0,0,8,,,,,,,,,11,,,,65,60
38822,note_on,0,0,9,,,,,,,,,12,,,,57,58
38823,note_on,5,0,3,,,,,,,,,2,,,,65,64
38823,note_on,0,0,3,,,,,,,,,2,,,,57,64
38824,note_on,0,0,10,,,,,,,,,6,,,,45,45
38824,note_on,24,0,10,,,,,,,,,6,,,,53,0
38825,note_on,0,0,4,,,,,,,,,3,,,,53,74
38825,note_on,5,0,4,,,,,,,,,3,,,,45,74
38825,note_on,120,0,11,,,,,,,,,13,,,,41,0
38828,note_on,120,0,12,,,,,,,,,14,,,,29,0
38852,note_on,0,0,8,,,,,,,,,11,,,,57,59
38852,note_on,0,0,9,,,,,,,,,12,,,,53,57
38852,note_on,30,0,8,,,,,,,,,11,,,,65,0
38852,note_on,30,0,9,,,,,,,,,12,,,,57,0
38854,note_on,0,0,10,,,,,,,,,6,,,,53,45
38854,note_on,30,0,10,,,,,,,,,6,,,,45,0
38877,note_on,25,0,9,,,,,,,,,12,,,,53,0
38877,note_on,25,0,8,,,,,,,,,11,,,,57,0
38878,note_on,139,0,5,,,,,,,,,4,,,,53,0
38879,note_on,25,0,10,,,,,,,,,6,,,,53,0
38880,set_tempo,120,1,0,,,,,,1153846,,,,,,,,
38880,control_change,60,0,7,,,,,,,,,10,11,32,,,
38880,control_change,0,0,1,,,,,,,,,0,11,39,,,
38880,note_on,0,0,7,,,,,,,,,10,,,,57,103
38880,note_on,60,0,1,,,,,,,,,0,,,,81,71
38880,note_on,139,0,6,,,,,,,,,5,,,,41,0
38880,note_on,0,0,1,,,,,,,,,0,,,,77,71
38882,note_on,0,0,2,,,,,,,,,1,,,,72,70
38882,control_change,5,0,8,,,,,,,,,11,11,32,,,
38882,control_change,60,0,2,,,,,,,,,1,11,39,,,
38882,note_on,0,0,2,,,,,,,,,1,,,,69,70
38882,note_on,0,0,8,,,,,,,,,11,,,,65,76
38882,control_change,5,0,9,,,,,,,,,12,11,32,,,
38882,note_on,0,0,9,,,,,,,,,12,,,,57,74
38883,control_change,0,0,5,,,,,,,,,4,11,32,,,
38883,note_on,5,0,5,,,,,,,,,4,,,,53,59
38883,control_change,0,0,3,,,,,,,,,2,11,39,,,
38883,note_on,0,0,3,,,,,,,,,2,,,,65,116
38883,note_on,0,0,3,,,,,,,,,2,,,,65,0
38883,note_on,60,0,3,,,,,,,,,2,,,,57,0
38884,note_on,0,0,10,,,,,,,,,6,,,,45,63
38884,control_change,5,0,10,,,,,,,,,6,11,32,,,
38885,control_change,0,0,4,,,,,,,,,3,11,39,,,
38885,note_on,0,0,4,,,,,,,,,3,,,,53,70
38885,note_on,0,0,4,,,,,,,,,3,,,,45,70
38885,note_on,0,0,4,,,,,,,,,3,,,,45,0
38885,note_on,60,0,11,,,,,,,,,13,,,,41,29
38885,control_change,5,0,6,,,,,,,,,5,11,32,,,
38885,note_on,60,0,4,,,,,,,,,3,,,,53,0
38885,note_on,0,0,6,,,,,,,,,5,,,,41,59
38888,note_on,60,0,12,,,,,,,,,14,,,,29,21
38895,note_on,15,0,7,,,,,,,,,10,,,,57,0
38910,note_on,15,0,7,,,,,,,,,10,,,,60,103
38910,set_tempo,30,1,0,,,,,,1016949,,,,,,,,
38925,note_on,15,0,7,,,,,,,,,10,,,,60,0
38940,set_tempo,30,1,0,,,,,,937500,,,,,,,,
38940,note_on,15,0,7,,,,,,,,,10,,,,65,103
38951,control_change,71,0,1,,,,,,,,,0,11,39,,,
38953,control_change,71,0,2,,,,,,,,,1,11,39,,,
38955,note_on,15,0,7,,,,,,,,,10,,,,65,0
38959,control_change,8,0,1,,,,,,,,,0,11,36,,,
38961,control_change,8,0,2,,,,,,,,,1,11,36,,,
38967,control_change,8,0,1,,,,,,,,,0,11,33,,,
38969,control_change,8,0,2,,,,,,,,,1,11,33,,,
38970,note_on,15,0,7,,,,,,,,,10,,,,60,103
38976,control_change,9,0,1,,,,,,,,,0,11,30,,,
38978,control_change,9,0,2,,,,,,,,,1,11,30,,,
38984,control_change,8,0,1,,,,,,,,,0,11,27,,,
38985,note_on,15,0,7,,,,,,,,,10,,,,60,0
38986,control_change,8,0,2,,,,,,,,,1,11,27,,,
38993,control_change,9,0,1,,,,,,,,,0,11,24,,,
38995,control_change,9,0,2,,,,,,,,,1,11,24,,,
39000,note_on,15,0,7,,,,,,,,,10,,,,57,103
39000,note_on,0,0,1,,,,,,,,,0,,,,81,0
39000,note_on,7,0,1,,,,,,,,,0,,,,77,0
39002,note_on,0,0,2,,,,,,,,,1,,,,69,0
39002,note_on,120,0,9,,,,,,,,,12,,,,57,0
39002,note_on,7,0,2,,,,,,,,,1,,,,72,0
39002,note_on,120,0,8,,,,,,,,,11,,,,65,0
39003,note_on,120,0,5,,,,,,,,,4,,,,53,0
39004,note_on,120,0,10,,,,,,,,,6,,,,45,0
39005,note_on,120,0,6,,,,,,,,,5,,,,41,0
39005,note_on,120,0,4,,,,,,,,,3,,,,53,0
39005,note_on,0,0,4,,,,,,,,,3,,,,45,0
39005,note_on,120,0,11,,,,,,,,,13,,,,41,0
39008,note_on,120,0,12,,,,,,,,,14,,,,29,0
39015,note_on,15,0,7,,,,,,,,,10,,,,57,0
39030,note_on,15,0,7,,,,,,,,,10,,,,60,103
39045,note_on,15,0,7,,,,,,,,,10,,,,60,0
39060,set_tempo,120,1,0,,,,,,1000000,,,,,,,,
39060,note_on,15,0,7,,,,,,,,,10,,,,57,103
39063,program_change,59,0,10,,,,,,,,45,6,,,,,
39064,note_on,0,0,10,,,,,,,,,6,,,,53,29
39064,control_change,1,0,10,,,,,,,,,6,11,100,,,
39075,note_on,15,0,7,,,,,,,,,10,,,,57,0
39090,note_on,15,0,7,,,,,,,,,10,,,,60,103
39105,note_on,15,0,7,,,,,,,,,10,,,,60,0
39120,set_tempo,60,1,0,,,,,,937500,,,,,,,,
39120,note_on,15,0,7,,,,,,,,,10,,,,65,103
39135,note_on,15,0,7,,,,,,,,,10,,,,65,0
39150,note_on,15,0,7,,,,,,,,,10,,,,60,103
39165,note_on,15,0,7,,,,,,,,,10,,,,60,0
39180,note_on,15,0,7,,,,,,,,,10,,,,57,103
39184,note_on,120,0,10,,,,,,,,,6,,,,53,0
39195,note_on,15,0,7,,,,,,,,,10,,,,57,0
39210,note_on,15,0,7,,,,,,,,,10,,,,60,103
39225,note_on,15,0,7,,,,,,,,,10,,,,60,0
39240,set_tempo,120,1,0,,,,,,983607,,,,,,,,
39240,note_on,15,0,7,,,,,,,,,10,,,,57,103
39243,note_on,360,0,3,,,,,,,,,2,,,,69,123
39244,note_on,60,0,10,,,,,,,,,6,,,,53,29
39255,note_on,15,0,7,,,,,,,,,10,,,,57,0
39270,note_on,15,0,7,,,,,,,,,10,,,,60,103
39285,note_on,15,0,7,,,,,,,,,10,,,,60,0
39300,note_on,15,0,7,,,,,,,,,10,,,,65,103
39300,set_tempo,60,1,0,,,,,,937500,,,,,,,,
39315,note_on,15,0,7,,,,,,,,,10,,,,65,0
39330,note_on,15,0,7,,,,,,,,,10,,,,60,103
39345,note_on,15,0,7,,,,,,,,,10,,,,60,0
39360,note_on,15,0,7,,,,,,,,,10,,,,57,103
39364,note_on,120,0,10,,,,,,,,,6,,,,53,0
39375,note_on,15,0,7,,,,,,,,,10,,,,57,0
39390,note_on,15,0,7,,,,,,,,,10,,,,60,103
39405,note_on,15,0,7,,,,,,,,,10,,,,60,0
39420,note_on,15,0,7,,,,,,,,,10,,,,57,103
39420,set_tempo,120,1,0,,,,,,991736,,,,,,,,
39424,note_on,60,0,10,,,,,,,,,6,,,,53,29
39435,note_on,15,0,7,,,,,,,,,10,,,,57,0
39450,note_on,15,0,7,,,,,,,,,10,,,,60,103
39465,note_on,15,0,7,,,,,,,,,10,,,,60,0
39480,note_on,15,0,7,,,,,,,,,10,,,,65,103
39480,set_tempo,60,1,0,,,,,,937500,,,,,,,,
39495,note_on,15,0,7,,,,,,,,,10,,,,65,0
39510,note_on,15,0,7,,,,,,,,,10,,,,60,103
39525,note_on,15,0,7,,,,,,,,,10,,,,60,0
39540,note_on,15,0,7,,,,,,,,,10,,,,57,103
39544,note_on,120,0,10,,,,,,,,,6,,,,53,0
39555,note_on,15,0,7,,,,,,,,,10,,,,57,0
39570,note_on,15,0,7,,,,,,,,,10,,,,60,103
39585,note_on,15,0,7,,,,,,,,,10,,,,60,0
39598,note_on,355,0,3,,,,,,,,,2,,,,69,0
39600,note_on,15,0,7,,,,,,,,,10,,,,55,103
39600,note_on,0,0,1,,,,,,,,,0,,,,72,96
39600,set_tempo,120,1,0,,,,,,1000000,,,,,,,,
39600,control_change,600,0,1,,,,,,,,,0,11,39,,,
39602,control_change,600,0,9,,,,,,,,,12,11,32,,,
39602,note_on,0,0,9,,,,,,,,,12,,,,58,101
39602,control_change,600,0,8,,,,,,,,,11,11,32,,,
39602,note_on,0,0,8,,,,,,,,,11,,,,70,103
39603,note_on,5,0,3,,,,,,,,,2,,,,65,0
39603,note_on,0,0,3,,,,,,,,,2,,,,70,96
39603,note_on,0,0,3,,,,,,,,,2,,,,67,96
39604,note_on,60,0,10,,,,,,,,,6,,,,48,29
39605,note_on,600,0,11,,,,,,,,,13,,,,48,34
39605,note_on,600,0,4,,,,,,,,,3,,,,55,95
39605,note_on,0,0,4,,,,,,,,,3,,,,58,95
39608,note_on,600,0,12,,,,,,,,,14,,,,36,26
39615,note_on,15,0,7,,,,,,,,,10,,,,55,0
39620,control_change,18,0,9,,,,,,,,,12,11,35,,,
39620,control_change,18,0,8,,,,,,,,,11,11,35,,,
39630,note_on,15,0,7,,,,,,,,,10,,,,58,103
39638,control_change,18,0,9,,,,,,,,,12,11,38,,,
39638,control_change,18,0,8,,,,,,,,,11,11,38,,,
39645,note_on,15,0,7,,,,,,,,,10,,,,58,0
39656,control_change,18,0,8,,,,,,,,,11,11,41,,,
39656,control_change,18,0,9,,,,,,,,,12,11,41,,,
39660,set_tempo,60,1,0,,,,,,937500,,,,,,,,
39660,note_on,15,0,7,,,,,,,,,10,,,,64,103
39674,control_change,18,0,9,,,,,,,,,12,11,44,,,
39674,control_change,18,0,8,,,,,,,,,11,11,44,,,
39675,note_on,15,0,7,,,,,,,,,10,,,,64,0
39690,note_on,15,0,7,,,,,,,,,10,,,,58,103
39692,control_change,18,0,8,,,,,,,,,11,11,47,,,
39692,control_change,18,0,9,,,,,,,,,12,11,47,,,
39705,note_on,15,0,7,,,,,,,,,10,,,,58,0
39710,control_change,18,0,8,,,,,,,,,11,11,50,,,
39710,control_change,18,0,9,,,,,,,,,12,11,50,,,
39720,note_on,15,0,7,,,,,,,,,10,,,,55,103
39724,note_on,120,0,10,,,,,,,,,6,,,,48,0
39725,note_on,120,0,11,,,,,,,,,13,,,,48,0
39728,note_on,120,0,12,,,,,,,,,14,,,,36,0
39735,note_on,15,0,7,,,,,,,,,10,,,,55,0
39750,note_on,15,0,7,,,,,,,,,10,,,,58,103
39765,note_on,15,0,7,,,,,,,,,10,,,,58,0
39780,note_on,15,0,7,,,,,,,,,10,,,,55,103
39780,set_tempo,120,1,0,,,,,,1008403,,,,,,,,
39784,note_on,60,0,10,,,,,,,,,6,,,,48,29
39785,note_on,60,0,11,,,,,,,,,13,,,,48,34
39788,note_on,60,0,12,,,,,,,,,14,,,,36,26
39795,note_on,15,0,7,,,,,,,,,10,,,,55,0
39810,note_on,15,0,7,,,,,,,,,10,,,,58,103
39825,note_on,15,0,7,,,,,,,,,10,,,,58,0
39840,note_on,15,0,7,,,,,,,,,10,,,,64,103
39840,set_tempo,60,1,0,,,,,,937500,,,,,,,,
39842,note_on,132,0,9,,,,,,,,,12,,,,58,0
39842,note_on,0,0,9,,,,,,,,,12,,,,55,101
39842,note_on,132,0,8,,,,,,,,,11,,,,70,0
39842,note_on,0,0,8,,,,,,,,,11,,,,67,103
39855,note_on,15,0,7,,,,,,,,,10,,,,64,0
39870,note_on,15,0,7,,,,,,,,,10,,,,58,103
39885,note_on,15,0,7,,,,,,,,,10,,,,58,0
39900,note_on,15,0,7,,,,,,,,,10,,,,55,103
39902,note_on,60,0,9,,,,,,,,,12,,,,55,0
39902,note_on,0,0,9,,,,,,,,,12,,,,53,101
39902,note_on,0,0,8,,,,,,,,,11,,,,65,103
39902,note_on,60,0,8,,,,,,,,,11,,,,67,0
39904,note_on,120,0,10,,,,,,,,,6,,,,48,0
39905,note_on,120,0,11,,,,,,,,,13,,,,48,0
39908,note_on,120,0,12,,,,,,,,,14,,,,36,0
39915,note_on,15,0,7,,,,,,,,,10,,,,55,0
39930,note_on,15,0,7,,,,,,,,,10,,,,58,103
39937,note_on,35,0,9,,,,,,,,,12,,,,53,0
39937,note_on,35,0,8,,,,,,,,,11,,,,65,0
39945,note_on,15,0,7,,,,,,,,,10,,,,58,0
39960,set_tempo,120,1,0,,,,,,1000000,,,,,,,,
39960,note_on,15,0,7,,,,,,,,,10,,,,55,103
39960,note_on,0,0,1,,,,,,,,,0,,,,82,96
39960,note_on,360,0,1,,,,,,,,,0,,,,72,0
39962,note_on,25,0,8,,,,,,,,,11,,,,64,103
39962,note_on,25,0,9,,,,,,,,,12,,,,52,101
39964,note_on,60,0,10,,,,,,,,,6,,,,48,29
39965,note_on,60,0,11,,,,,,,,,13,,,,48,34
39968,note_on,60,0,12,,,,,,,,,14,,,,36,26
39975,note_on,15,0,7,,,,,,,,,10,,,,55,0
39990,note_on,15,0,7,,,,,,,,,10,,,,58,103
40005,note_on,15,0,7,,,,,,,,,10,,,,58,0
40014,note_on,52,0,8,,,,,,,,,11,,,,64,0
40014,note_on,52,0,9,,,,,,,,,12,,,,52,0
40020,set_tempo,60,1,0,,,,,,937500,,,,,,,,
40020,note_on,15,0,7,,,,,,,,,10,,,,64,103
40022,note_on,8,0,8,,,,,,,,,11,,,,67,103
40022,note_on,8,0,9,,,,,,,,,12,,,,55,101
40035,note_on,15,0,7,,,,,,,,,10,,,,64,0
40050,note_on,15,0,7,,,,,,,,,10,,,,58,103
40065,note_on,15,0,7,,,,,,,,,10,,,,58,0
40074,note_on,52,0,9,,,,,,,,,12,,,,55,0
40074,note_on,52,0,8,,,,,,,,,11,,,,67,0
40080,note_on,15,0,7,,,,,,,,,10,,,,55,103
40082,note_on,8,0,8,,,,,,,,,11,,,,64,103
40082,note_on,8,0,9,,,,,,,,,12,,,,52,101
40084,note_on,120,0,10,,,,,,,,,6,,,,48,0
40085,note_on,120,0,11,,,,,,,,,13,,,,48,0
40088,note_on,120,0,12,,,,,,,,,14,,,,36,0
40095,note_on,15,0,7,,,,,,,,,10,,,,55,0
40110,note_on,15,0,7,,,,,,,,,10,,,,58,103
40125,note_on,15,0,7,,,,,,,,,10,,,,58,0
40134,note_on,52,0,9,,,,,,,,,12,,,,52,0
40134,note_on,52,0,8,,,,,,,,,11,,,,64,0
40140,note_on,15,0,7,,,,,,,,,10,,,,55,103
40140,set_tempo,120,1,0,,,,,,1000000,,,,,,,,
40142,note_on,8,0,8,,,,,,,,,11,,,,60,103
40142,note_on,8,0,9,,,,,,,,,12,,,,48,101
40144,note_on,60,0,10,,,,,,,,,6,,,,48,29
40145,note_on,0,0,4,,,,,,,,,3,,,,55,0
40145,note_on,540,0,4,,,,,,,,,3,,,,58,0
40145,note_on,0,0,4,,,,,,,,,3,,,,55,95
40145,note_on,0,0,4,,,,,,,,,3,,,,52,95
40145,note_on,60,0,11,,,,,,,,,13,,,,48,34
40148,note_on,60,0,12,,,,,,,,,14,,,,36,26
40155,note_on,15,0,7,,,,,,,,,10,,,,55,0
40170,note_on,15,0,7,,,,,,,,,10,,,,58,103
40185,note_on,15,0,7,,,,,,,,,10,,,,58,0
40194,note_on,52,0,8,,,,,,,,,11,,,,60,0
40194,note_on,52,0,9,,,,,,,,,12,,,,48,0
40200,note_on,15,0,7,,,,,,,,,10,,,,64,103
40200,set_tempo,60,1,0,,,,,,937500,,,,,,,,
40202,note_on,8,0,8,,,,,,,,,11,,,,72,103
40202,note_on,8,0,9,,,,,,,,,12,,,,60,101
40215,note_on,15,0,7,,,,,,,,,10,,,,64,0
40230,note_on,15,0,7,,,,,,,,,10,,,,58,103
40245,note_on,15,0,7,,,,,,,,,10,,,,58,0
40254,note_on,52,0,8,,,,,,,,,11,,,,72,0
40254,note_on,52,0,9,,,,,,,,,12,,,,60,0
40260,note_on,15,0,7,,,,,,,,,10,,,,55,103
40262,note_on,8,0,8,,,,,,,,,11,,,,67,103
40262,note_on,8,0,9,,,,,,,,,12,,,,55,101
40264,note_on,120,0,10,,,,,,,,,6,,,,48,0
40265,note_on,120,0,11,,,,,,,,,13,,,,48,0
40268,note_on,120,0,12,,,,,,,,,14,,,,36,0
40275,note_on,15,0,7,,,,,,,,,10,,,,55,0
40290,note_on,15,0,7,,,,,,,,,10,,,,58,103
40305,note_on,15,0,7,,,,,,,,,10,,,,58,0
40314,note_on,52,0,9,,,,,,,,,12,,,,55,0
40314,note_on,52,0,8,,,,,,,,,11,,,,67,0
40315,note_on,355,0,1,,,,,,,,,0,,,,82,0
40318,note_on,0,0,3,,,,,,,,,2,,,,70,0
40318,note_on,715,0,3,,,,,,,,,2,,,,67,0
40320,note_on,175,0,4,,,,,,,,,3,,,,52,0
40320,note_on,0,0,4,,,,,,,,,3,,,,55,0
40320,note_on,5,0,1,,,,,,,,,0,,,,81,96
40320,set_tempo,120,1,0,,,,,,1000000,,,,,,,,
40320,note_on,15,0,7,,,,,,,,,10,,,,57,103
40322,note_on,8,0,8,,,,,,,,,11,,,,69,90
40322,note_on,8,0,9,,,,,,,,,12,,,,57,88
40323,note_on,5,0,3,,,,,,,,,2,,,,65,116
40324,note_on,60,0,10,,,,,,,,,6,,,,53,29
40325,note_on,60,0,11,,,,,,,,,13,,,,53,34
40325,note_on,0,0,4,,,,,,,,,3,,,,53,95
40325,note_on,5,0,4,,,,,,,,,3,,,,57,95
40328,note_on,60,0,12,,,,,,,,,14,,,,41,26
40335,note_on,15,0,7,,,,,,,,,10,,,,57,0
40350,note_on,15,0,7,,,,,,,,,10,,,,60,103
40365,note_on,15,0,7,,,,,,,,,10,,,,60,0
40380,set_tempo,60,1,0,,,,,,937500,,,,,,,,
40380,note_on,15,0,7,,,,,,,,,10,,,,65,103
40395,note_on,15,0,7,,,,,,,,,10,,,,65,0
40402,control_change,80,0,9,,,,,,,,,12,11,52,,,
40402,control_change,80,0,8,,,,,,,,,11,11,52,,,
40407,control_change,5,0,8,,,,,,,,,11,11,49,,,
40407,control_change,5,0,9,,,,,,,,,12,11,49,,,
40410,note_on,15,0,7,,,,,,,,,10,,,,60,103
40413,control_change,6,0,9,,,,,,,,,12,11,46,,,
40413,control_change,6,0,8,,,,,,,,,11,11,46,,,
40419,control_change,6,0,9,,,,,,,,,12,11,43,,,
40419,control_change,6,0,8,,,,,,,,,11,11,43,,,
40425,control_change,6,0,9,,,,,,,,,12,11,40,,,
40425,note_on,15,0,7,,,,,,,,,10,,,,60,0
40425,control_change,6,0,8,,,,,,,,,11,11,40,,,
40431,control_change,6,0,8,,,,,,,,,11,11,37,,,
40431,control_change,6,0,9,,,,,,,,,12,11,37,,,
40437,control_change,6,0,8,,,,,,,,,11,11,34,,,
40437,control_change,6,0,9,,,,,,,,,12,11,34,,,
40440,note_on,120,0,1,,,,,,,,,0,,,,81,0
40440,note_on,15,0,7,,,,,,,,,10,,,,57,103
40442,note_on,5,0,8,,,,,,,,,11,,,,69,0
40442,note_on,5,0,9,,,,,,,,,12,,,,57,0
40444,note_on,120,0,10,,,,,,,,,6,,,,53,0
40445,note_on,0,0,4,,,,,,,,,3,,,,57,0
40445,note_on,120,0,4,,,,,,,,,3,,,,53,0
40445,note_on,120,0,11,,,,,,,,,13,,,,53,0
40448,note_on,120,0,12,,,,,,,,,14,,,,41,0
40455,note_on,15,0,7,,,,,,,,,10,,,,57,0
40470,note_on,15,0,7,,,,,,,,,10,,,,60,103
40485,note_on,15,0,7,,,,,,,,,10,,,,60,0
40500,set_tempo,120,1,0,,,,,,1008403,,,,,,,,
40500,note_on,15,0,7,,,,,,,,,10,,,,57,103
40504,note_on,60,0,10,,,,,,,,,6,,,,53,29
40515,note_on,15,0,7,,,,,,,,,10,,,,57,0
40530,note_on,15,0,7,,,,,,,,,10,,,,60,103
40545,note_on,15,0,7,,,,,,,,,10,,,,60,0
40560,note_on,15,0,7,,,,,,,,,10,,,,65,103
40560,set_tempo,60,1,0,,,,,,937500,,,,,,,,
40575,note_on,15,0,7,,,,,,,,,10,,,,65,0
40590,note_on,15,0,7,,,,,,,,,10,,,,60,103
40605,note_on,15,0,7,,,,,,,,,10,,,,60,0
40620,note_on,15,0,7,,,,,,,,,10,,,,57,103
40624,note_on,120,0,10,,,,,,,,,6,,,,53,0
40635,note_on,15,0,7,,,,,,,,,10,,,,57,0
40650,note_on,15,0,7,,,,,,,,,10,,,,60,103
40665,note_on,15,0,7,,,,,,,,,10,,,,60,0
40680,set_tempo,120,1,0,,,,,,1000000,,,,,,,,
40680,note_on,15,0,7,,,,,,,,,10,,,,57,103
40683,note_on,360,0,3,,,,,,,,,2,,,,69,123
40684,note_on,60,0,10,,,,,,,,,6,,,,53,29
40695,note_on,15,0,7,,,,,,,,,10,,,,57,0
40710,note_on,15,0,7,,,,,,,,,10,,,,60,103
40725,note_on,15,0,7,,,,,,,,,10,,,,60,0
40740,note_on,15,0,7,,,,,,,,,10,,,,65,103
40740,set_tempo,60,1,0,,,,,,937500,,,,,,,,
40755,note_on,15,0,7,,,,,,,,,10,,,,65,0
40770,note_on,15,0,7,,,,,,,,,10,,,,60,103
40785,note_on,15,0,7,,,,,,,,,10,,,,60,0
40800,note_on,15,0,7,,,,,,,,,10,,,,57,103
40804,note_on,120,0,10,,,,,,,,,6,,,,53,0
40815,note_on,15,0,7,,,,,,,,,10,,,,57,0
40830,note_on,15,0,7,,,,,,,,,10,,,,60,103
40845,note_on,15,0,7,,,,,,,,,10,,,,60,0
40860,set_tempo,120,1,0,,,,,,1000000,,,,,,,,
40860,note_on,15,0,7,,,,,,,,,10,,,,57,103
40864,note_on,60,0,10,,,,,,,,,6,,,,53,29
40875,note_on,15,0,7,,,,,,,,,10,,,,57,0
40890,note_on,15,0,7,,,,,,,,,10,,,,60,103
40905,note_on,15,0,7,,,,,,,,,10,,,,60,0
40920,note_on,15,0,7,,,,,,,,,10,,,,65,103
40920,set_tempo,60,1,0,,,,,,937500,,,,,,,,
40935,note_on,15,0,7,,,,,,,,,10,,,,65,0
40950,note_on,15,0,7,,,,,,,,,10,,,,60,103
40965,note_on,15,0,7,,,,,,,,,10,,,,60,0
40980,note_on,15,0,7,,,,,,,,,10,,,,57,103
40984,note_on,120,0,10,,,,,,,,,6,,,,53,0
40995,note_on,15,0,7,,,,,,,,,10,,,,57,0
41010,note_on,15,0,7,,,,,,,,,10,,,,60,103
41025,note_on,15,0,7,,,,,,,,,10,,,,60,0
41038,note_on,355,0,3,,,,,,,,,2,,,,69,0
41038,note_on,0,0,3,,,,,,,,,2,,,,65,0
41040,note_on,0,0,7,,,,,,,,,10,,,,57,103
41040,control_change,15,0,7,,,,,,,,,10,11,32,,,
41040,set_tempo,120,1,0,,,,,,1000000,,,,,,,,
41040,note_on,600,0,1,,,,,,,,,0,,,,84,96
41040,control_change,0,0,1,,,,,,,,,0,11,52,,,
41042,note_on,0,0,2,,,,,,,,,1,,,,69,95
41042,control_change,0,0,2,,,,,,,,,1,11,39,,,
41042,note_on,2040,0,2,,,,,,,,,1,,,,78,95
41043,note_on,0,0,3,,,,,,,,,2,,,,69,96
41043,note_on,5,0,3,,,,,,,,,2,,,,72,96
41043,control_change,0,0,3,,,,,,,,,2,11,39,,,
41044,note_on,60,0,10,,,,,,,,,6,,,,50,29
41045,note_on,600,0,11,,,,,,,,,13,,,,50,34
41045,note_on,600,0,4,,,,,,,,,3,,,,60,95
41045,note_on,0,0,4,,,,,,,,,3,,,,57,95
41045,control_change,0,0,4,,,,,,,,,3,11,39,,,
41048,note_on,600,0,12,,,,,,,,,14,,,,38,26
41055,note_on,15,0,7,,,,,,,,,10,,,,57,0
41070,note_on,15,0,7,,,,,,,,,10,,,,60,103
41085,note_on,15,0,7,,,,,,,,,10,,,,60,0
41088,control_change,3,0,7,,,,,,,,,10,11,33,,,
41100,note_on,12,0,7,,,,,,,,,10,,,,66,103
41100,set_tempo,60,1,0,,,,,,937500,,,,,,,,
41112,control_change,72,0,1,,,,,,,,,0,11,52,,,
41114,control_change,72,0,2,,,,,,,,,1,11,40,,,
41115,control_change,72,0,3,,,,,,,,,2,11,40,,,
41115,note_on,15,0,7,,,,,,,,,10,,,,66,0
41117,control_change,72,0,4,,,,,,,,,3,11,40,,,
41130,note_on,15,0,7,,,,,,,,,10,,,,60,103
41136,control_change,6,0,7,,,,,,,,,10,11,34,,,
41145,note_on,9,0,7,,,,,,,,,10,,,,60,0
41160,note_on,15,0,7,,,,,,,,,10,,,,57,103
41164,note_on,120,0,10,,,,,,,,,6,,,,50,0
41165,note_on,120,0,11,,,,,,,,,13,,,,50,0
41168,note_on,120,0,12,,,,,,,,,14,,,,38,0
41175,note_on,15,0,7,,,,,,,,,10,,,,57,0
41184,control_change,72,0,1,,,,,,,,,0,11,53,,,
41184,control_change,9,0,7,,,,,,,,,10,11,35,,,
41186,control_change,72,0,2,,,,,,,,,1,11,41,,,
41187,control_change,72,0,3,,,,,,,,,2,11,41,,,
41189,control_change,72,0,4,,,,,,,,,3,11,41,,,
41190,note_on,6,0,7,,,,,,,,,10,,,,60,103
41205,note_on,15,0,7,,,,,,,,,10,,,,60,0
41220,set_tempo,120,1,0,,,,,,1008403,,,,,,,,
41220,note_on,15,0,7,,,,,,,,,10,,,,57,103
41224,note_on,60,0,10,,,,,,,,,6,,,,50,29
41225,note_on,60,0,11,,,,,,,,,13,,,,50,34
41228,note_on,60,0,12,,,,,,,,,14,,,,38,26
41232,control_change,12,0,7,,,,,,,,,10,11,36,,,
41235,note_on,3,0,7,,,,,,,,,10,,,,57,0
41250,note_on,15,0,7,,,,,,,,,10,,,,60,103
41256,control_change,72,0,1,,,,,,,,,0,11,54,,,
41258,control_change,72,0,2,,,,,,,,,1,11,42,,,
41259,control_change,72,0,3,,,,,,,,,2,11,42,,,
41261,control_change,72,0,4,,,,,,,,,3,11,42,,,
41265,note_on,15,0,7,,,,,,,,,10,,,,60,0
41280,note_on,24,0,1,,,,,,,,,0,,,,84,0
41280,note_on,0,0,1,,,,,,,,,0,,,,81,96
41280,set_tempo,60,1,0,,,,,,937500,,,,,,,,
41280,note_on,0,0,7,,,,,,,,,10,,,,66,103
41280,control_change,15,0,7,,,,,,,,,10,11,37,,,
41295,note_on,15,0,7,,,,,,,,,10,,,,66,0
41310,note_on,15,0,7,,,,,,,,,10,,,,60,103
41325,note_on,15,0,7,,,,,,,,,10,,,,60,0
41328,control_change,48,0,1,,,,,,,,,0,11,55,,,
41328,control_change,3,0,7,,,,,,,,,10,11,38,,,
41330,control_change,72,0,2,,,,,,,,,1,11,43,,,
41331,control_change,72,0,3,,,,,,,,,2,11,43,,,
41333,control_change,72,0,4,,,,,,,,,3,11,43,,,
41340,note_on,0,0,1,,,,,,,,,0,,,,79,96
41340,note_on,12,0,1,,,,,,,,,0,,,,81,0
41340,note_on,12,0,7,,,,,,,,,10,,,,57,103
41344,note_on,120,0,10,,,,,,,,,6,,,,50,0
41345,note_on,120,0,11,,,,,,,,,13,,,,50,0
41348,note_on,120,0,12,,,,,,,,,14,,,,38,0
41355,note_on,15,0,7,,,,,,,,,10,,,,57,0
41370,note_on,15,0,7,,,,,,,,,10,,,,60,103
41370,note_on,30,0,1,,,,,,,,,0,,,,79,0
41376,control_change,6,0,7,,,,,,,,,10,11,39,,,
41385,note_on,9,0,7,,,,,,,,,10,,,,60,0
41400,note_on,15,0,7,,,,,,,,,10,,,,57,103
41400,set_tempo,120,1,0,,,,,,1000000,,,,,,,,
41400,control_change,0,0,1,,,,,,,,,0,11,55,,,
41400,note_on,30,0,1,,,,,,,,,0,,,,78,96
41402,note_on,72,0,2,,,,,,,,,1,,,,69,0
41402,note_on,0,0,2,,,,,,,,,1,,,,72,95
41402,control_change,0,0,2,,,,,,,,,1,11,43,,,
41402,note_on,0,0,2,,,,,,,,,1,,,,81,95
41402,note_on,0,0,2,,,,,,,,,1,,,,78,0
41403,control_change,72,0,3,,,,,,,,,2,11,43,,,
41404,note_on,60,0,10,,,,,,,,,6,,,,50,29
41405,control_change,72,0,4,,,,,,,,,3,11,43,,,
41405,note_on,60,0,11,,,,,,,,,13,,,,50,34
41408,note_on,60,0,12,,,,,,,,,14,,,,38,26
41415,note_on,15,0,7,,,,,,,,,10,,,,57,0
41424,control_change,9,0,7,,,,,,,,,10,11,40,,,
41430,note_on,6,0,7,,,,,,,,,10,,,,60,103
41445,note_on,15,0,7,,,,,,,,,10,,,,60,0
41452,note_on,52,0,1,,,,,,,,,0,,,,78,0
41460,note_on,15,0,7,,,,,,,,,10,,,,66,103
41460,set_tempo,60,1,0,,,,,,937500,,,,,,,,
41460,note_on,8,0,1,,,,,,,,,0,,,,81,96
41472,control_change,12,0,7,,,,,,,,,10,11,41,,,
41472,control_change,12,0,1,,,,,,,,,0,11,56,,,
41474,control_change,72,0,2,,,,,,,,,1,11,44,,,
41475,note_on,3,0,7,,,,,,,,,10,,,,66,0
41475,control_change,72,0,3,,,,,,,,,2,11,44,,,
41477,control_change,72,0,4,,,,,,,,,3,11,44,,,
41490,note_on,15,0,7,,,,,,,,,10,,,,60,103
41505,note_on,15,0,7,,,,,,,,,10,,,,60,0
41512,note_on,40,0,1,,,,,,,,,0,,,,81,0
41520,control_change,15,0,7,,,,,,,,,10,11,42,,,
41520,note_on,0,0,7,,,,,,,,,10,,,,57,103
41520,note_on,8,0,1,,,,,,,,,0,,,,78,96
41524,note_on,120,0,10,,,,,,,,,6,,,,50,0
41525,note_on,120,0,11,,,,,,,,,13,,,,50,0
41528,note_on,120,0,12,,,,,,,,,14,,,,38,0
41535,note_on,15,0,7,,,,,,,,,10,,,,57,0
41544,control_change,24,0,1,,,,,,,,,0,11,57,,,
41546,control_change,72,0,2,,,,,,,,,1,11,45,,,
41547,control_change,72,0,3,,,,,,,,,2,11,45,,,
41549,control_change,72,0,4,,,,,,,,,3,11,45,,,
41550,note_on,15,0,7,,,,,,,,,10,,,,60,103
41565,note_on,15,0,7,,,,,,,,,10,,,,60,0
41568,control_change,3,0,7,,,,,,,,,10,11,43,,,
41572,note_on,28,0,1,,,,,,,,,0,,,,78,0
41580,note_on,8,0,1,,,,,,,,,0,,,,74,96
41580,note_on,12,0,7,,,,,,,,,10,,,,57,103
41580,set_tempo,120,1,0,,,,,,1000000,,,,,,,,
41583,note_on,0,0,5,,,,,,,,,4,,,,62,82
41583,control_change,2580,0,5,,,,,,,,,4,11,39,,,
41584,note_on,60,0,10,,,,,,,,,6,,,,50,29
41585,note_on,36,0,4,,,,,,,,,3,,,,57,0
41585,control_change,2580,0,6,,,,,,,,,5,11,39,,,
41585,note_on,0,0,4,,,,,,,,,3,,,,54,95
41585,note_on,0,0,4,,,,,,,,,3,,,,60,0
41585,note_on,60,0,11,,,,,,,,,13,,,,50,34
41585,note_on,0,0,6,,,,,,,,,5,,,,50,82
41585,note_on,0,0,4,,,,,,,,,3,,,,57,95
41588,note_on,60,0,12,,,,,,,,,14,,,,38,26
41595,note_on,15,0,7,,,,,,,,,10,,,,57,0
41610,note_on,15,0,7,,,,,,,,,10,,,,60,103
41616,control_change,36,0,1,,,,,,,,,0,11,58,,,
41616,control_change,6,0,7,,,,,,,,,10,11,44,,,
41618,control_change,72,0,2,,,,,,,,,1,11,45,,,
41619,control_change,72,0,3,,,,,,,,,2,11,45,,,
41619,control_change,36,0,5,,,,,,,,,4,11,40,,,
41621,control_change,36,0,4,,,,,,,,,3,11,45,,,
41621,control_change,36,0,6,,,,,,,,,5,11,40,,,
41625,note_on,9,0,7,,,,,,,,,10,,,,60,0
41632,note_on,16,0,1,,,,,,,,,0,,,,74,0
41640,note_on,15,0,7,,,,,,,,,10,,,,66,103
41640,set_tempo,60,1,0,,,,,,937500,,,,,,,,
41640,note_on,8,0,1,,,,,,,,,0,,,,86,96
41655,note_on,15,0,7,,,,,,,,,10,,,,66,0
41664,control_change,9,0,7,,,,,,,,,10,11,45,,,
41670,note_on,6,0,7,,,,,,,,,10,,,,60,103
41685,note_on,15,0,7,,,,,,,,,10,,,,60,0
41688,control_change,48,0,1,,,,,,,,,0,11,59,,,
41690,control_change,72,0,2,,,,,,,,,1,11,46,,,
41691,control_change,72,0,3,,,,,,,,,2,11,46,,,
41691,control_change,72,0,5,,,,,,,,,4,11,41,,,
41692,note_on,4,0,1,,,,,,,,,0,,,,86,0
41693,control_change,72,0,4,,,,,,,,,3,11,46,,,
41693,control_change,72,0,6,,,,,,,,,5,11,41,,,
41700,note_on,8,0,1,,,,,,,,,0,,,,81,96
41700,note_on,15,0,7,,,,,,,,,10,,,,57,103
41704,note_on,120,0,10,,,,,,,,,6,,,,50,0
41705,note_on,120,0,11,,,,,,,,,13,,,,50,0
41708,note_on,120,0,12,,,,,,,,,14,,,,38,0
41712,control_change,12,0,7,,,,,,,,,10,11,46,,,
41715,note_on,3,0,7,,,,,,,,,10,,,,57,0
41730,note_on,15,0,7,,,,,,,,,10,,,,66,103
41745,note_on,15,0,7,,,,,,,,,10,,,,66,0
41752,note_on,52,0,1,,,,,,,,,0,,,,81,0
41757,note_on,0,0,2,,,,,,,,,1,,,,81,0
41757,note_on,67,0,2,,,,,,,,,1,,,,72,0
41758,note_on,67,0,3,,,,,,,,,2,,,,69,0
41758,note_on,0,0,3,,,,,,,,,2,,,,72,0
41760,note_on,67,0,4,,,,,,,,,3,,,,54,0
41760,note_on,0,0,7,,,,,,,,,10,,,,67,93
41760,control_change,15,0,7,,,,,,,,,10,11,32,,,
41760,control_change,0,0,1,,,,,,,,,0,11,55,,,
41760,note_on,8,0,1,,,,,,,,,0,,,,83,96
41760,set_tempo,120,1,0,,,,,,1000000,,,,,,,,
41760,note_on,0,0,4,,,,,,,,,3,,,,57,0
41762,control_change,5,0,2,,,,,,,,,1,11,47,,,
41762,note_on,0,0,2,,,,,,,,,1,,,,71,95
41762,note_on,0,0,2,,,,,,,,,1,,,,79,95
41762,note_on,0,0,8,,,,,,,,,11,,,,55,103
41762,control_change,1320,0,8,,,,,,,,,11,11,32,,,
41763,program_change,59,0,10,,,,,,,,42,6,,,,,
41763,note_on,5,0,3,,,,,,,,,2,,,,71,96
41763,control_change,72,0,5,,,,,,,,,4,11,42,,,
41763,control_change,0,0,3,,,,,,,,,2,11,47,,,
41763,note_on,0,0,3,,,,,,,,,2,,,,67,96
41764,note_on,0,0,10,,,,,,,,,6,,,,55,82
41764,control_change,1,0,10,,,,,,,,,6,11,32,,,
41765,note_on,60,0,11,,,,,,,,,13,,,,43,43
41765,control_change,72,0,6,,,,,,,,,5,11,42,,,
41765,note_on,0,0,4,,,,,,,,,3,,,,55,95
41765,control_change,0,0,4,,,,,,,,,3,11,47,,,
41765,note_on,5,0,4,,,,,,,,,3,,,,59,95
41766,control_change,6,0,7,,,,,,,,,10,11,35,,,
41768,note_on,60,0,12,,,,,,,,,14,,,,31,36
41768,control_change,6,0,8,,,,,,,,,11,11,35,,,
41770,control_change,6,0,10,,,,,,,,,6,11,35,,,
41772,control_change,6,0,7,,,,,,,,,10,11,38,,,
41774,control_change,6,0,8,,,,,,,,,11,11,38,,,
41775,note_on,15,0,1,,,,,,,,,0,,,,83,0
41776,control_change,6,0,10,,,,,,,,,6,11,38,,,
41778,control_change,6,0,7,,,,,,,,,10,11,41,,,
41780,control_change,6,0,8,,,,,,,,,11,11,41,,,
41782,control_change,6,0,10,,,,,,,,,6,11,41,,,
41784,control_change,6,0,7,,,,,,,,,10,11,44,,,
41786,control_change,6,0,8,,,,,,,,,11,11,44,,,
41788,control_change,6,0,10,,,,,,,,,6,11,44,,,
41790,control_change,6,0,7,,,,,,,,,10,11,47,,,
41790,note_on,15,0,1,,,,,,,,,0,,,,71,83
41792,note_on,0,0,8,,,,,,,,,11,,,,71,78
41792,note_on,6,0,8,,,,,,,,,11,,,,55,0
41792,control_change,0,0,8,,,,,,,,,11,11,47,,,
41794,note_on,0,0,10,,,,,,,,,6,,,,59,62
41794,control_change,0,0,10,,,,,,,,,6,11,47,,,
41794,note_on,6,0,10,,,,,,,,,6,,,,55,0
41805,note_on,15,0,1,,,,,,,,,0,,,,71,0
41820,set_tempo,60,1,0,,,,,,937500,,,,,,,,
41820,note_on,15,0,1,,,,,,,,,0,,,,74,83
41822,note_on,30,0,8,,,,,,,,,11,,,,71,0
41822,note_on,0,0,8,,,,,,,,,11,,,,74,78
41824,note_on,0,0,10,,,,,,,,,6,,,,62,62
41824,note_on,30,0,10,,,,,,,,,6,,,,59,0
41835,note_on,15,0,1,,,,,,,,,0,,,,74,0
41850,note_on,15,0,1,,,,,,,,,0,,,,79,83
41852,note_on,30,0,8,,,,,,,,,11,,,,74,0
41852,note_on,0,0,8,,,,,,,,,11,,,,71,78
41854,note_on,30,0,10,,,,,,,,,6,,,,62,0
41854,note_on,0,0,10,,,,,,,,,6,,,,59,62
41865,note_on,15,0,1,,,,,,,,,0,,,,79,0
41880,note_on,90,0,7,,,,,,,,,10,,,,67,0
41880,note_on,15,0,1,,,,,,,,,0,,,,83,83
41882,note_on,120,0,2,,,,,,,,,1,,,,71,0
41882,note_on,30,0,8,,,,,,,,,11,,,,71,0
41882,note_on,0,0,8,,,,,,,,,11,,,,74,78
41883,note_on,120,0,3,,,,,,,,,2,,,,67,0
41883,note_on,0,0,3,,,,,,,,,2,,,,71,0
41884,note_on,0,0,10,,,,,,,,,6,,,,62,62
41884,note_on,30,0,10,,,,,,,,,6,,,,59,0
41885,note_on,120,0,4,,,,,,,,,3,,,,55,0
41885,note_on,120,0,11,,,,,,,,,13,,,,43,0
41885,note_on,0,0,4,,,,,,,,,3,,,,59,0
41888,note_on,120,0,12,,,,,,,,,14,,,,31,0
41895,note_on,15,0,1,,,,,,,,,0,,,,83,0
41910,note_on,15,0,1,,,,,,,,,0,,,,86,83
41912,note_on,0,0,8,,,,,,,,,11,,,,71,78
41912,note_on,30,0,8,,,,,,,,,11,,,,74,0
41914,note_on,30,0,10,,,,,,,,,6,,,,62,0
41914,note_on,0,0,10,,,,,,,,,6,,,,59,62
41925,note_on,15,0,1,,,,,,,,,0,,,,86,0
41940,set_tempo,120,1,0,,,,,,1008403,,,,,,,,
41940,note_on,15,0,1,,,,,,,,,0,,,,91,83
41940,control_change,60,0,7,,,,,,,,,10,11,32,,,
41940,note_on,0,0,7,,,,,,,,,10,,,,71,103
41942,note_on,60,0,2,,,,,,,,,1,,,,79,0
41942,note_on,0,0,8,,,,,,,,,11,,,,76,78
41942,note_on,30,0,8,,,,,,,,,11,,,,71,0
41942,note_on,0,0,9,,,,,,,,,12,,,,59,101
41942,control_change,1500,0,9,,,,,,,,,12,11,32,,,
41944,note_on,30,0,10,,,,,,,,,6,,,,59,0
41944,note_on,0,0,10,,,,,,,,,6,,,,60,62
41951,control_change,11,0,7,,,,,,,,,10,11,35,,,
41953,control_change,11,0,9,,,,,,,,,12,11,35,,,
41963,control_change,12,0,7,,,,,,,,,10,11,38,,,
41965,control_change,12,0,9,,,,,,,,,12,11,38,,,
41972,note_on,30,0,8,,,,,,,,,11,,,,76,0
41972,note_on,0,0,8,,,,,,,,,11,,,,72,78
41974,note_on,0,0,10,,,,,,,,,6,,,,64,62
41974,note_on,30,0,10,,,,,,,,,6,,,,60,0
41975,control_change,12,0,7,,,,,,,,,10,11,41,,,
41977,control_change,12,0,9,,,,,,,,,12,11,41,,,
41987,control_change,12,0,7,,,,,,,,,10,11,44,,,
41989,control_change,12,0,9,,,,,,,,,12,11,44,,,
41999,control_change,12,0,7,,,,,,,,,10,11,47,,,
42000,set_tempo,60,1,0,,,,,,937500,,,,,,,,
42001,control_change,12,0,9,,,,,,,,,12,11,47,,,
42002,note_on,0,0,8,,,,,,,,,11,,,,74,78
42002,note_on,30,0,8,,,,,,,,,11,,,,72,0
42004,note_on,0,0,10,,,,,,,,,6,,,,59,62
42004,note_on,30,0,10,,,,,,,,,6,,,,64,0
42030,control_change,90,0,1,,,,,,,,,0,11,55,,,
42032,note_on,0,0,8,,,,,,,,,11,,,,71,78
42032,note_on,30,0,8,,,,,,,,,11,,,,74,0
42034,control_change,4,0,1,,,,,,,,,0,11,52,,,
42034,note_on,30,0,10,,,,,,,,,6,,,,59,0
42034,note_on,0,0,10,,,,,,,,,6,,,,62,62
42038,control_change,4,0,1,,,,,,,,,0,11,49,,,
42043,control_change,5,0,1,,,,,,,,,0,11,46,,,
42047,control_change,4,0,1,,,,,,,,,0,11,43,,,
42051,control_change,4,0,1,,,,,,,,,0,11,40,,,
42056,control_change,5,0,1,,,,,,,,,0,11,37,,,
42058,note_on,295,0,5,,,,,,,,,4,,,,62,0
42060,note_on,4,0,1,,,,,,,,,0,,,,91,0
42060,note_on,295,0,6,,,,,,,,,5,,,,50,0
42060,control_change,61,0,7,,,,,,,,,10,11,47,,,
42062,note_on,30,0,8,,,,,,,,,11,,,,71,0
42062,note_on,0,0,8,,,,,,,,,11,,,,74,78
42062,control_change,61,0,9,,,,,,,,,12,11,47,,,
42063,note_on,5,0,5,,,,,,,,,4,,,,62,82
42064,note_on,0,0,10,,,,,,,,,6,,,,59,62
42064,note_on,30,0,10,,,,,,,,,6,,,,62,0
42065,note_on,5,0,6,,,,,,,,,5,,,,50,82
42077,control_change,17,0,7,,,,,,,,,10,11,45,,,
42079,control_change,17,0,9,,,,,,,,,12,11,45,,,
42092,note_on,30,0,8,,,,,,,,,11,,,,74,0
42092,note_on,0,0,8,,,,,,,,,11,,,,71,78
42094,note_on,30,0,10,,,,,,,,,6,,,,59,0
42094,note_on,0,0,10,,,,,,,,,6,,,,62,62
42095,control_change,18,0,7,,,,,,,,,10,11,43,,,
42097,control_change,18,0,9,,,,,,,,,12,11,43,,,
42113,control_change,18,0,7,,,,,,,,,10,11,41,,,
42115,control_change,18,0,9,,,,,,,,,12,11,41,,,
42120,set_tempo,120,1,0,,,,,,1000000,,,,,,,,
42120,note_on,7,0,7,,,,,,,,,10,,,,71,0
42120,control_change,0,0,7,,,,,,,,,10,11,32,,,
42120,note_on,0,0,7,,,,,,,,,10,,,,67,103
42122,note_on,7,0,9,,,,,,,,,12,,,,59,0
42122,control_change,0,0,9,,,,,,,,,12,11,32,,,
42122,note_on,0,0,9,,,,,,,,,12,,,,55,101
42122,note_on,30,0,8,,,,,,,,,11,,,,71,0
42122,note_on,0,0,8,,,,,,,,,11,,,,72,78
42124,note_on,0,0,10,,,,,,,,,6,,,,57,62
42124,note_on,30,0,10,,,,,,,,,6,,,,62,0
42131,control_change,11,0,7,,,,,,,,,10,11,35,,,
42133,control_change,11,0,9,,,,,,,,,12,11,35,,,
42143,control_change,12,0,7,,,,,,,,,10,11,38,,,
42145,control_change,12,0,9,,,,,,,,,12,11,38,,,
42152,note_on,30,0,8,,,,,,,,,11,,,,72,0
42152,note_on,0,0,8,,,,,,,,,11,,,,69,78
42154,note_on,0,0,10,,,,,,,,,6,,,,60,62
42154,note_on,30,0,10,,,,,,,,,6,,,,57,0
42155,control_change,12,0,7,,,,,,,,,10,11,41,,,
42157,control_change,12,0,9,,,,,,,,,12,11,41,,,
42167,control_change,12,0,7,,,,,,,,,10,11,44,,,
42169,control_change,12,0,9,,,,,,,,,12,11,44,,,
42179,control_change,12,0,7,,,,,,,,,10,11,47,,,
42180,set_tempo,60,1,0,,,,,,937500,,,,,,,,
42181,control_change,12,0,9,,,,,,,,,12,11,47,,,
42182,note_on,0,0,8,,,,,,,,,11,,,,71,78
42182,note_on,30,0,8,,,,,,,,,11,,,,69,0
42184,note_on,30,0,10,,,,,,,,,6,,,,60,0
42184,note_on,0,0,10,,,,,,,,,6,,,,55,62
42212,note_on,0,0,8,,,,,,,,,11,,,,67,78
42212,note_on,30,0,8,,,,,,,,,11,,,,71,0
42214,note_on,30,0,10,,,,,,,,,6,,,,55,0
42214,note_on,0,0,10,,,,,,,,,6,,,,59,62
42238,note_on,175,0,5,,,,,,,,,4,,,,62,0
42240,control_change,61,0,7,,,,,,,,,10,11,47,,,
42240,note_on,175,0,6,,,,,,,,,5,,,,50,0
42242,control_change,61,0,9,,,,,,,,,12,11,47,,,
42242,note_on,30,0,8,,,,,,,,,11,,,,67,0
42242,note_on,0,0,8,,,,,,,,,11,,,,71,78
42243,note_on,5,0,5,,,,,,,,,4,,,,62,82
42244,note_on,30,0,10,,,,,,,,,6,,,,59,0
42244,note_on,0,0,10,,,,,,,,,6,,,,55,62
42245,note_on,5,0,6,,,,,,,,,5,,,,50,82
42257,control_change,17,0,7,,,,,,,,,10,11,45,,,
42259,control_change,17,0,9,,,,,,,,,12,11,45,,,
42272,note_on,30,0,8,,,,,,,,,11,,,,71,0
42272,note_on,0,0,8,,,,,,,,,11,,,,67,78
42274,note_on,0,0,10,,,,,,,,,6,,,,59,62
42274,note_on,30,0,10,,,,,,,,,6,,,,55,0
42275,control_change,18,0,7,,,,,,,,,10,11,43,,,
42277,control_change,18,0,9,,,,,,,,,12,11,43,,,
42293,control_change,18,0,7,,,,,,,,,10,11,41,,,
42295,control_change,18,0,9,,,,,,,,,12,11,41,,,
42300,note_on,7,0,7,,,,,,,,,10,,,,67,0
42300,set_tempo,120,1,0,,,,,,1000000,,,,,,,,
42300,control_change,0,0,7,,,,,,,,,10,11,32,,,
42300,note_on,0,0,7,,,,,,,,,10,,,,62,103
42302,note_on,0,0,9,,,,,,,,,12,,,,50,101
42302,control_change,0,0,9,,,,,,,,,12,11,32,,,
42302,note_on,7,0,9,,,,,,,,,12,,,,55,0
42302,note_on,30,0,8,,,,,,,,,11,,,,67,0
42302,note_on,0,0,8,,,,,,,,,11,,,,69,78
42304,note_on,30,0,10,,,,,,,,,6,,,,59,0
42304,note_on,0,0,10,,,,,,,,,6,,,,54,62
42311,control_change,11,0,7,,,,,,,,,10,11,35,,,
42313,control_change,11,0,9,,,,,,,,,12,11,35,,,
42323,control_change,12,0,7,,,,,,,,,10,11,38,,,
42325,control_change,12,0,9,,,,,,,,,12,11,38,,,
42332,note_on,0,0,8,,,,,,,,,11,,,,66,78
42332,note_on,30,0,8,,,,,,,,,11,,,,69,0
42334,note_on,0,0,10,,,,,,,,,6,,,,57,62
42334,note_on,30,0,10,,,,,,,,,6,,,,54,0
42335,control_change,12,0,7,,,,,,,,,10,11,41,,,
42337,control_change,12,0,9,,,,,,,,,12,11,41,,,
42347,control_change,12,0,7,,,,,,,,,10,11,44,,,
42349,control_change,12,0,9,,,,,,,,,12,11,44,,,
42359,control_change,12,0,7,,,,,,,,,10,11,47,,,
42360,set_tempo,60,1,0,,,,,,937500,,,,,,,,
42361,control_change,12,0,9,,,,,,,,,12,11,47,,,
42362,note_on,0,0,8,,,,,,,,,11,,,,71,78
42362,note_on,420,0,2,,,,,,,,,1,,,,79,85
42362,note_on,30,0,8,,,,,,,,,11,,,,66,0
42362,control_change,0,0,2,,,,,,,,,1,11,60,,,
42364,note_on,0,0,10,,,,,,,,,6,,,,55,62
42364,note_on,30,0,10,,,,,,,,,6,,,,57,0
42392,note_on,30,0,2,,,,,,,,,1,,,,79,0
42392,note_on,0,0,2,,,,,,,,,1,,,,81,95
42392,note_on,30,0,8,,,,,,,,,11,,,,71,0
42392,note_on,0,0,8,,,,,,,,,11,,,,67,78
42394,note_on,0,0,10,,,,,,,,,6,,,,59,62
42394,note_on,30,0,10,,,,,,,,,6,,,,55,0
42418,note_on,175,0,5,,,,,,,,,4,,,,62,0
42420,control_change,61,0,7,,,,,,,,,10,11,47,,,
42420,note_on,175,0,6,,,,,,,,,5,,,,50,0
42422,control_change,61,0,9,,,,,,,,,12,11,47,,,
42422,note_on,30,0,8,,,,,,,,,11,,,,67,0
42422,note_on,0,0,8,,,,,,,,,11,,,,71,78
42422,note_on,30,0,2,,,,,,,,,1,,,,81,0
42422,note_on,0,0,2,,,,,,,,,1,,,,83,95
42423,note_on,5,0,5,,,,,,,,,4,,,,62,82
42424,note_on,30,0,10,,,,,,,,,6,,,,59,0
42424,note_on,0,0,10,,,,,,,,,6,,,,55,62
42425,note_on,5,0,6,,,,,,,,,5,,,,50,82
42437,control_change,17,0,7,,,,,,,,,10,11,45,,,
42439,control_change,17,0,9,,,,,,,,,12,11,45,,,
42452,note_on,0,0,8,,,,,,,,,11,,,,67,78
42452,note_on,30,0,2,,,,,,,,,1,,,,83,0
42452,note_on,0,0,2,,,,,,,,,1,,,,81,95
42452,note_on,30,0,8,,,,,,,,,11,,,,71,0
42454,note_on,30,0,10,,,,,,,,,6,,,,55,0
42454,note_on,0,0,10,,,,,,,,,6,,,,59,62
42455,control_change,18,0,7,,,,,,,,,10,11,43,,,
42457,control_change,18,0,9,,,,,,,,,12,11,43,,,
42473,control_change,18,0,7,,,,,,,,,10,11,41,,,
42475,note_on,2,0,7,,,,,,,,,10,,,,62,0
42475,control_change,18,0,9,,,,,,,,,12,11,41,,,
42477,note_on,2,0,9,,,,,,,,,12,,,,50,0
42477,note_on,25,0,2,,,,,,,,,1,,,,81,0
42477,note_on,25,0,8,,,,,,,,,11,,,,67,0
42478,note_on,55,0,5,,,,,,,,,4,,,,62,0
42479,note_on,25,0,10,,,,,,,,,6,,,,59,0
42480,note_on,0,0,1,,,,,,,,,0,,,,67,83
42480,control_change,420,0,1,,,,,,,,,0,11,55,,,
42480,set_tempo,120,1,0,,,,,,1000000,,,,,,,,
42480,note_on,55,0,6,,,,,,,,,5,,,,50,0
42482,note_on,5,0,8,,,,,,,,,11,,,,71,78
42482,note_on,5,0,2,,,,,,,,,1,,,,81,95
42483,note_on,5,0,5,,,,,,,,,4,,,,62,82
42484,note_on,5,0,10,,,,,,,,,6,,,,55,62
42485,note_on,600,0,11,,,,,,,,,13,,,,43,43
42485,note_on,5,0,6,,,,,,,,,5,,,,50,82
42488,note_on,600,0,12,,,,,,,,,14,,,,31,36
42495,note_on,15,0,1,,,,,,,,,0,,,,67,0
42510,note_on,15,0,1,,,,,,,,,0,,,,71,83
42512,note_on,30,0,8,,,,,,,,,11,,,,71,0
42512,note_on,0,0,8,,,,,,,,,11,,,,67,78
42514,note_on,30,0,10,,,,,,,,,6,,,,55,0
42514,note_on,0,0,10,,,,,,,,,6,,,,59,62
42525,note_on,15,0,1,,,,,,,,,0,,,,71,0
42540,note_on,15,0,1,,,,,,,,,0,,,,74,83
42540,set_tempo,60,1,0,,,,,,937500,,,,,,,,
42542,note_on,0,0,8,,,,,,,,,11,,,,74,78
42542,note_on,0,0,2,,,,,,,,,1,,,,79,80
42542,note_on,30,0,8,,,,,,,,,11,,,,67,0
42542,note_on,60,0,2,,,,,,,,,1,,,,81,0
42544,note_on,0,0,10,,,,,,,,,6,,,,59,62
42544,note_on,30,0,10,,,,,,,,,6,,,,59,0
42555,note_on,15,0,1,,,,,,,,,0,,,,74,0
42570,note_on,15,0,1,,,,,,,,,0,,,,79,83
42572,note_on,30,0,8,,,,,,,,,11,,,,74,0
42572,note_on,0,0,8,,,,,,,,,11,,,,71,78
42574,note_on,0,0,10,,,,,,,,,6,,,,62,62
42574,note_on,30,0,10,,,,,,,,,6,,,,59,0
42585,note_on,15,0,1,,,,,,,,,0,,,,79,0
42600,note_on,15,0,1,,,,,,,,,0,,,,83,83
42602,note_on,30,0,8,,,,,,,,,11,,,,71,0
42602,note_on,0,0,8,,,,,,,,,11,,,,74,78
42602,control_change,60,0,2,,,,,,,,,1,11,60,,,
42604,note_on,30,0,10,,,,,,,,,6,,,,62,0
42604,note_on,0,0,10,,,,,,,,,6,,,,59,62
42605,note_on,120,0,11,,,,,,,,,13,,,,43,0
42608,control_change,6,0,2,,,,,,,,,1,11,57,,,
42608,note_on,120,0,12,,,,,,,,,14,,,,31,0
42614,control_change,6,0,2,,,,,,,,,1,11,54,,,
42615,note_on,15,0,1,,,,,,,,,0,,,,83,0
42620,control_change,6,0,2,,,,,,,,,1,11,51,,,
42627,control_change,7,0,2,,,,,,,,,1,11,48,,,
42630,note_on,15,0,1,,,,,,,,,0,,,,86,83
42632,note_on,30,0,8,,,,,,,,,11,,,,74,0
42632,note_on,0,0,8,,,,,,,,,11,,,,71,78
42633,control_change,6,0,2,,,,,,,,,1,11,45,,,
42634,note_on,0,0,10,,,,,,,,,6,,,,62,62
42634,note_on,30,0,10,,,,,,,,,6,,,,59,0
42639,control_change,6,0,2,,,,,,,,,1,11,42,,,
42645,note_on,15,0,1,,,,,,,,,0,,,,86,0
42646,control_change,7,0,2,,,,,,,,,1,11,39,,,
42652,control_change,6,0,2,,,,,,,,,1,11,36,,,
42658,control_change,6,0,2,,,,,,,,,1,11,33,,,
42660,set_tempo,120,1,0,,,,,,1008403,,,,,,,,
42660,note_on,0,0,7,,,,,,,,,10,,,,71,103
42660,note_on,15,0,1,,,,,,,,,0,,,,91,83
42660,control_change,185,0,7,,,,,,,,,10,11,32,,,
42662,note_on,0,0,8,,,,,,,,,11,,,,76,78
42662,note_on,30,0,8,,,,,,,,,11,,,,71,0
42662,note_on,4,0,2,,,,,,,,,1,,,,79,0
42662,control_change,185,0,9,,,,,,,,,12,11,32,,,
42662,note_on,0,0,9,,,,,,,,,12,,,,59,101
42664,note_on,30,0,10,,,,,,,,,6,,,,62,0
42664,note_on,0,0,10,,,,,,,,,6,,,,60,62
42671,control_change,11,0,7,,,,,,,,,10,11,35,,,
42673,control_change,11,0,9,,,,,,,,,12,11,35,,,
42683,control_change,12,0,7,,,,,,,,,10,11,38,,,
42685,control_change,12,0,9,,,,,,,,,12,11,38,,,
42692,note_on,0,0,8,,,,,,,,,11,,,,72,78
42692,note_on,30,0,8,,,,,,,,,11,,,,76,0
42694,note_on,0,0,10,,,,,,,,,6,,,,64,62
42694,note_on,30,0,10,,,,,,,,,6,,,,60,0
42695,control_change,12,0,7,,,,,,,,,10,11,41,,,
42697,control_change,12,0,9,,,,,,,,,12,11,41,,,
42707,control_change,12,0,7,,,,,,,,,10,11,44,,,
42709,control_change,12,0,9,,,,,,,,,12,11,44,,,
42719,control_change,12,0,7,,,,,,,,,10,11,47,,,
42720,set_tempo,60,1,0,,,,,,937500,,,,,,,,
42721,control_change,12,0,9,,,,,,,,,12,11,47,,,
42722,note_on,30,0,8,,,,,,,,,11,,,,72,0
42722,note_on,0,0,8,,,,,,,,,11,,,,74,78
42724,note_on,30,0,10,,,,,,,,,6,,,,64,0
42724,note_on,0,0,10,,,,,,,,,6,,,,59,62
42750,control_change,90,0,1,,,,,,,,,0,11,55,,,
42752,note_on,30,0,8,,,,,,,,,11,,,,74,0
42752,note_on,0,0,8,,,,,,,,,11,,,,71,78
42754,control_change,4,0,1,,,,,,,,,0,11,52,,,
42754,note_on,30,0,10,,,,,,,,,6,,,,59,0
42754,note_on,0,0,10,,,,,,,,,6,,,,62,62
42758,control_change,4,0,1,,,,,,,,,0,11,49,,,
42763,control_change,5,0,1,,,,,,,,,0,11,46,,,
42767,control_change,4,0,1,,,,,,,,,0,11,43,,,
42771,control_change,4,0,1,,,,,,,,,0,11,40,,,
42776,control_change,5,0,1,,,,,,,,,0,11,37,,,
42778,note_on,295,0,5,,,,,,,,,4,,,,62,0
42780,note_on,4,0,1,,,,,,,,,0,,,,91,0
42780,control_change,61,0,7,,,,,,,,,10,11,47,,,
42780,note_on,295,0,6,,,,,,,,,5,,,,50,0
42782,control_change,61,0,9,,,,,,,,,12,11,47,,,
42782,note_on,0,0,8,,,,,,,,,11,,,,74,78
42782,note_on,30,0,8,,,,,,,,,11,,,,71,0
42783,note_on,5,0,5,,,,,,,,,4,,,,62,82
42784,note_on,0,0,10,,,,,,,,,6,,,,59,62
42784,note_on,30,0,10,,,,,,,,,6,,,,62,0
42785,note_on,5,0,6,,,,,,,,,5,,,,50,82
42797,control_change,17,0,7,,,,,,,,,10,11,45,,,
42799,control_change,17,0,9,,,,,,,,,12,11,45,,,
42812,note_on,0,0,8,,,,,,,,,11,,,,71,78
42812,note_on,30,0,8,,,,,,,,,11,,,,74,0
42814,note_on,30,0,10,,,,,,,,,6,,,,59,0
42814,note_on,0,0,10,,,,,,,,,6,,,,62,62
42815,control_change,18,0,7,,,,,,,,,10,11,43,,,
42817,control_change,18,0,9,,,,,,,,,12,11,43,,,
42833,control_change,18,0,7,,,,,,,,,10,11,41,,,
42835,control_change,18,0,9,,,,,,,,,12,11,41,,,
42840,set_tempo,120,1,0,,,,,,1000000,,,,,,,,
42840,note_on,7,0,7,,,,,,,,,10,,,,71,0
42840,control_change,0,0,7,,,,,,,,,10,11,32,,,
42840,note_on,0,0,7,,,,,,,,,10,,,,67,103
42842,note_on,7,0,9,,,,,,,,,12,,,,59,0
42842,note_on,0,0,8,,,,,,,,,11,,,,72,78
42842,note_on,30,0,8,,,,,,,,,11,,,,71,0
42842,control_change,0,0,9,,,,,,,,,12,11,32,,,
42842,note_on,0,0,9,,,,,,,,,12,,,,55,101
42844,note_on,0,0,10,,,,,,,,,6,,,,57,62
42844,note_on,30,0,10,,,,,,,,,6,,,,62,0
42851,control_change,11,0,7,,,,,,,,,10,11,35,,,
42853,control_change,11,0,9,,,,,,,,,12,11,35,,,
42863,control_change,12,0,7,,,,,,,,,10,11,38,,,
42865,control_change,12,0,9,,,,,,,,,12,11,38,,,
42872,note_on,30,0,8,,,,,,,,,11,,,,72,0
42872,note_on,0,0,8,,,,,,,,,11,,,,69,78
42874,note_on,0,0,10,,,,,,,,,6,,,,60,62
42874,note_on,30,0,10,,,,,,,,,6,,,,57,0
42875,control_change,12,0,7,,,,,,,,,10,11,41,,,
42877,control_change,12,0,9,,,,,,,,,12,11,41,,,
42887,control_change,12,0,7,,,,,,,,,10,11,44,,,
42889,control_change,12,0,9,,,,,,,,,12,11,44,,,
42899,control_change,12,0,7,,,,,,,,,10,11,47,,,
42900,set_tempo,60,1,0,,,,,,937500,,,,,,,,
42901,control_change,12,0,9,,,,,,,,,12,11,47,,,
42902,note_on,30,0,8,,,,,,,,,11,,,,69,0
42902,note_on,0,0,8,,,,,,,,,11,,,,71,78
42904,note_on,30,0,10,,,,,,,,,6,,,,60,0
42904,note_on,0,0,10,,,,,,,,,6,,,,55,62
42932,note_on,0,0,8,,,,,,,,,11,,,,67,78
42932,note_on,30,0,8,,,,,,,,,11,,,,71,0
42934,note_on,0,0,10,,,,,,,,,6,,,,59,62
42934,note_on,30,0,10,,,,,,,,,6,,,,55,0
42958,note_on,175,0,5,,,,,,,,,4,,,,62,0
42960,control_change,61,0,7,,,,,,,,,10,11,47,,,
42960,note_on,175,0,6,,,,,,,,,5,,,,50,0
42962,control_change,61,0,9,,,,,,,,,12,11,47,,,
42962,note_on,30,0,8,,,,,,,,,11,,,,67,0
42962,note_on,0,0,8,,,,,,,,,11,,,,71,78
42963,note_on,5,0,5,,,,,,,,,4,,,,62,82
42964,note_on,0,0,10,,,,,,,,,6,,,,55,62
42964,note_on,30,0,10,,,,,,,,,6,,,,59,0
42965,note_on,5,0,6,,,,,,,,,5,,,,50,82
42977,control_change,17,0,7,,,,,,,,,10,11,45,,,
42979,control_change,17,0,9,,,,,,,,,12,11,45,,,
42992,note_on,0,0,8,,,,,,,,,11,,,,67,78
42992,note_on,30,0,8,,,,,,,,,11,,,,71,0
42994,note_on,0,0,10,,,,,,,,,6,,,,59,62
42994,note_on,30,0,10,,,,,,,,,6,,,,55,0
42995,control_change,18,0,7,,,,,,,,,10,11,43,,,
42997,control_change,18,0,9,,,,,,,,,12,11,43,,,
43013,control_change,18,0,7,,,,,,,,,10,11,41,,,
43015,control_change,18,0,9,,,,,,,,,12,11,41,,,
43020,note_on,0,0,7,,,,,,,,,10,,,,62,103
43020,control_change,0,0,7,,,,,,,,,10,11,32,,,
43020,note_on,7,0,7,,,,,,,,,10,,,,67,0
43020,set_tempo,120,1,0,,,,,,1000000,,,,,,,,
43022,note_on,0,0,9,,,,,,,,,12,,,,50,101
43022,control_change,0,0,9,,,,,,,,,12,11,32,,,
43022,note_on,7,0,9,,,,,,,,,12,,,,55,0
43022,note_on,0,0,8,,,,,,,,,11,,,,69,78
43022,note_on,30,0,8,,,,,,,,,11,,,,67,0
43024,note_on,30,0,10,,,,,,,,,6,,,,59,0
43024,note_on,0,0,10,,,,,,,,,6,,,,54,62
43031,control_change,11,0,7,,,,,,,,,10,11,35,,,
43033,control_change,11,0,9,,,,,,,,,12,11,35,,,
43043,control_change,12,0,7,,,,,,,,,10,11,38,,,
43045,control_change,12,0,9,,,,,,,,,12,11,38,,,
43052,note_on,30,0,8,,,,,,,,,11,,,,69,0
43052,note_on,0,0,8,,,,,,,,,11,,,,66,78
43054,note_on,30,0,10,,,,,,,,,6,,,,54,0
43054,note_on,0,0,10,,,,,,,,,6,,,,57,62
43055,control_change,12,0,7,,,,,,,,,10,11,41,,,
43057,control_change,12,0,9,,,,,,,,,12,11,41,,,
43067,control_change,12,0,7,,,,,,,,,10,11,44,,,
43069,control_change,12,0,9,,,,,,,,,12,11,44,,,
43079,control_change,12,0,7,,,,,,,,,10,11,47,,,
43080,set_tempo,60,1,0,,,,,,937500,,,,,,,,
43081,control_change,12,0,9,,,,,,,,,12,11,47,,,
43082,note_on,0,0,2,,,,,,,,,1,,,,79,85
43082,note_on,0,0,8,,,,,,,,,11,,,,71,78
43082,control_change,420,0,2,,,,,,,,,1,11,60,,,
43082,note_on,30,0,8,,,,,,,,,11,,,,66,0
43084,note_on,0,0,10,,,,,,,,,6,,,,55,62
43084,note_on,30,0,10,,,,,,,,,6,,,,57,0
43112,note_on,30,0,8,,,,,,,,,11,,,,71,0
43112,note_on,0,0,8,,,,,,,,,11,,,,67,78
43112,note_on,30,0,2,,,,,,,,,1,,,,79,0
43112,note_on,0,0,2,,,,,,,,,1,,,,81,95
43114,note_on,0,0,10,,,,,,,,,6,,,,59,62
43114,note_on,30,0,10,,,,,,,,,6,,,,55,0
43138,note_on,175,0,5,,,,,,,,,4,,,,62,0
43140,control_change,61,0,7,,,,,,,,,10,11,47,,,
43140,note_on,175,0,6,,,,,,,,,5,,,,50,0
43142,control_change,61,0,9,,,,,,,,,12,11,47,,,
43142,note_on,30,0,8,,,,,,,,,11,,,,67,0
43142,note_on,0,0,2,,,,,,,,,1,,,,83,95
43142,note_on,0,0,8,,,,,,,,,11,,,,71,78
43142,note_on,30,0,2,,,,,,,,,1,,,,81,0
43143,note_on,5,0,5,,,,,,,,,4,,,,62,82
43144,note_on,0,0,10,,,,,,,,,6,,,,55,62
43144,note_on,30,0,10,,,,,,,,,6,,,,59,0
43145,note_on,5,0,6,,,,,,,,,5,,,,50,82
43157,control_change,17,0,7,,,,,,,,,10,11,45,,,
43159,control_change,17,0,9,,,,,,,,,12,11,45,,,
43172,note_on,0,0,2,,,,,,,,,1,,,,79,95
43172,note_on,30,0,2,,,,,,,,,1,,,,83,0
43172,note_on,30,0,8,,,,,,,,,11,,,,71,0
43172,note_on,0,0,8,,,,,,,,,11,,,,67,78
43174,note_on,30,0,10,,,,,,,,,6,,,,55,0
43174,note_on,0,0,10,,,,,,,,,6,,,,59,62
43175,control_change,18,0,7,,,,,,,,,10,11,43,,,
43177,control_change,18,0,9,,,,,,,,,12,11,43,,,
43193,control_change,18,0,7,,,,,,,,,10,11,41,,,
43195,control_change,18,0,9,,,,,,,,,12,11,41,,,
43195,note_on,2,0,7,,,,,,,,,10,,,,62,0
43197,note_on,2,0,9,,,,,,,,,12,,,,50,0
43197,note_on,25,0,2,,,,,,,,,1,,,,79,0
43197,note_on,25,0,8,,,,,,,,,11,,,,67,0
43198,note_on,55,0,5,,,,,,,,,4,,,,62,0
43199,note_on,25,0,10,,,,,,,,,6,,,,59,0
43200,set_tempo,120,1,0,,,,,,1000000,,,,,,,,
43200,note_on,55,0,6,,,,,,,,,5,,,,50,0
43200,control_change,420,0,1,,,,,,,,,0,11,55,,,
43200,note_on,0,0,1,,,,,,,,,0,,,,62,83
43202,note_on,5,0,2,,,,,,,,,1,,,,78,95
43202,note_on,5,0,8,,,,,,,,,11,,,,72,78
43203,note_on,5,0,5,,,,,,,,,4,,,,62,82
43204,note_on,5,0,10,,,,,,,,,6,,,,57,62
43205,note_on,5,0,6,,,,,,,,,5,,,,50,82
43205,note_on,600,0,11,,,,,,,,,13,,,,50,43
43208,note_on,600,0,12,,,,,,,,,14,,,,38,36
43212,note_on,0,0,2,,,,,,,,,1,,,,79,95
43212,note_on,10,0,2,,,,,,,,,1,,,,78,0
43215,note_on,15,0,1,,,,,,,,,0,,,,62,0
43222,note_on,10,0,2,,,,,,,,,1,,,,79,0
43222,note_on,0,0,2,,,,,,,,,1,,,,81,95
43230,note_on,15,0,1,,,,,,,,,0,,,,69,83
43232,note_on,0,0,8,,,,,,,,,11,,,,69,78
43232,note_on,10,0,2,,,,,,,,,1,,,,81,0
43232,note_on,0,0,2,,,,,,,,,1,,,,79,95
43232,note_on,30,0,8,,,,,,,,,11,,,,72,0
43234,note_on,30,0,10,,,,,,,,,6,,,,57,0
43234,note_on,0,0,10,,,,,,,,,6,,,,60,62
43245,note_on,15,0,1,,,,,,,,,0,,,,69,0
43260,note_on,15,0,1,,,,,,,,,0,,,,72,83
43260,set_tempo,60,1,0,,,,,,937500,,,,,,,,
43262,note_on,0,0,8,,,,,,,,,11,,,,72,78
43262,note_on,30,0,2,,,,,,,,,1,,,,79,0
43262,note_on,0,0,2,,,,,,,,,1,,,,78,80
43262,note_on,30,0,8,,,,,,,,,11,,,,69,0
43264,note_on,0,0,10,,,,,,,,,6,,,,57,62
43264,note_on,30,0,10,,,,,,,,,6,,,,60,0
43275,note_on,15,0,1,,,,,,,,,0,,,,72,0
43290,note_on,15,0,1,,,,,,,,,0,,,,74,83
43292,note_on,30,0,8,,,,,,,,,11,,,,72,0
43292,note_on,0,0,8,,,,,,,,,11,,,,69,78
43294,note_on,30,0,10,,,,,,,,,6,,,,57,0
43294,note_on,0,0,10,,,,,,,,,6,,,,60,62
43305,note_on,15,0,1,,,,,,,,,0,,,,74,0
43320,note_on,15,0,1,,,,,,,,,0,,,,81,83
43322,note_on,0,0,8,,,,,,,,,11,,,,72,78
43322,control_change,60,0,2,,,,,,,,,1,11,60,,,
43322,note_on,30,0,8,,,,,,,,,11,,,,69,0
43324,note_on,30,0,10,,,,,,,,,6,,,,60,0
43324,note_on,0,0,10,,,,,,,,,6,,,,57,62
43325,note_on,120,0,11,,,,,,,,,13,,,,50,0
43328,note_on,120,0,12,,,,,,,,,14,,,,38,0
43328,control_change,6,0,2,,,,,,,,,1,11,57,,,
43334,control_change,6,0,2,,,,,,,,,1,11,54,,,
43335,note_on,15,0,1,,,,,,,,,0,,,,81,0
43340,control_change,6,0,2,,,,,,,,,1,11,51,,,
43347,control_change,7,0,2,,,,,,,,,1,11,48,,,
43350,note_on,15,0,1,,,,,,,,,0,,,,84,83
43352,note_on,30,0,8,,,,,,,,,11,,,,72,0
43352,note_on,0,0,8,,,,,,,,,11,,,,69,78
43353,control_change,6,0,2,,,,,,,,,1,11,45,,,
43354,note_on,0,0,10,,,,,,,,,6,,,,60,62
43354,note_on,30,0,10,,,,,,,,,6,,,,57,0
43359,control_change,6,0,2,,,,,,,,,1,11,42,,,
43365,note_on,15,0,1,,,,,,,,,0,,,,84,0
43366,control_change,7,0,2,,,,,,,,,1,11,39,,,
43372,control_change,6,0,2,,,,,,,,,1,11,36,,,
43378,control_change,6,0,2,,,,,,,,,1,11,33,,,
43380,control_change,185,0,7,,,,,,,,,10,11,32,,,
43380,note_on,0,0,7,,,,,,,,,10,,,,72,103
43380,set_tempo,120,1,0,,,,,,1008403,,,,,,,,
43380,note_on,15,0,1,,,,,,,,,0,,,,86,83
43382,control_change,185,0,9,,,,,,,,,12,11,32,,,
43382,note_on,30,0,8,,,,,,,,,11,,,,69,0
43382,note_on,0,0,9,,,,,,,,,12,,,,60,101
43382,note_on,4,0,2,,,,,,,,,1,,,,78,0
43382,note_on,0,0,8,,,,,,,,,11,,,,74,78
43384,note_on,30,0,10,,,,,,,,,6,,,,60,0
43384,note_on,0,0,10,,,,,,,,,6,,,,59,62
43391,control_change,11,0,7,,,,,,,,,10,11,35,,,
43393,control_change,11,0,9,,,,,,,,,12,11,35,,,
43403,control_change,12,0,7,,,,,,,,,10,11,38,,,
43405,control_change,12,0,9,,,,,,,,,12,11,38,,,
43412,note_on,0,0,8,,,,,,,,,11,,,,71,78
43412,note_on,30,0,8,,,,,,,,,11,,,,74,0
43414,note_on,0,0,10,,,,,,,,,6,,,,62,62
43414,note_on,30,0,10,,,,,,,,,6,,,,59,0
43415,control_change,12,0,7,,,,,,,,,10,11,41,,,
43417,control_change,12,0,9,,,,,,,,,12,11,41,,,
43427,control_change,12,0,7,,,,,,,,,10,11,44,,,
43429,control_change,12,0,9,,,,,,,,,12,11,44,,,
43439,control_change,12,0,7,,,,,,,,,10,11,47,,,
43440,set_tempo,60,1,0,,,,,,937500,,,,,,,,
43441,control_change,12,0,9,,,,,,,,,12,11,47,,,
43442,note_on,30,0,8,,,,,,,,,11,,,,71,0
43442,note_on,0,0,8,,,,,,,,,11,,,,72,78
43444,note_on,0,0,10,,,,,,,,,6,,,,57,62
43444,note_on,30,0,10,,,,,,,,,6,,,,62,0
43470,control_change,90,0,1,,,,,,,,,0,11,55,,,
43472,note_on,30,0,8,,,,,,,,,11,,,,72,0
43472,note_on,0,0,8,,,,,,,,,11,,,,69,78
43474,note_on,30,0,10,,,,,,,,,6,,,,57,0
43474,note_on,0,0,10,,,,,,,,,6,,,,60,62
43474,control_change,4,0,1,,,,,,,,,0,11,52,,,
43478,control_change,4,0,1,,,,,,,,,0,11,49,,,
43483,control_change,5,0,1,,,,,,,,,0,11,46,,,
43487,control_change,4,0,1,,,,,,,,,0,11,43,,,
43491,control_change,4,0,1,,,,,,,,,0,11,40,,,
43496,control_change,5,0,1,,,,,,,,,0,11,37,,,
43498,note_on,295,0,5,,,,,,,,,4,,,,62,0
43500,note_on,295,0,6,,,,,,,,,5,,,,50,0
43500,note_on,4,0,1,,,,,,,,,0,,,,86,0
43500,control_change,61,0,7,,,,,,,,,10,11,47,,,
43502,note_on,0,0,8,,,,,,,,,11,,,,72,78
43502,note_on,30,0,8,,,,,,,,,11,,,,69,0
43502,control_change,61,0,9,,,,,,,,,12,11,47,,,
43503,note_on,5,0,5,,,,,,,,,4,,,,62,82
43504,note_on,30,0,10,,,,,,,,,6,,,,60,0
43504,note_on,0,0,10,,,,,,,,,6,,,,57,62
43505,note_on,5,0,6,,,,,,,,,5,,,,50,82
43517,control_change,17,0,7,,,,,,,,,10,11,45,,,
43519,control_change,17,0,9,,,,,,,,,12,11,45,,,
43532,note_on,30,0,8,,,,,,,,,11,,,,72,0
43532,note_on,0,0,8,,,,,,,,,11,,,,69,78
43534,note_on,30,0,10,,,,,,,,,6,,,,57,0
43534,note_on,0,0,10,,,,,,,,,6,,,,60,62
43535,control_change,18,0,7,,,,,,,,,10,11,43,,,
43537,control_change,18,0,9,,,,,,,,,12,11,43,,,
43553,control_change,18,0,7,,,,,,,,,10,11,41,,,
43555,control_change,18,0,9,,,,,,,,,12,11,41,,,
43560,control_change,0,0,7,,,,,,,,,10,11,32,,,
43560,note_on,0,0,7,,,,,,,,,10,,,,69,103
43560,set_tempo,120,1,0,,,,,,1000000,,,,,,,,
43560,note_on,7,0,7,,,,,,,,,10,,,,72,0
43562,note_on,0,0,8,,,,,,,,,11,,,,71,78
43562,note_on,30,0,8,,,,,,,,,11,,,,69,0
43562,note_on,0,0,9,,,,,,,,,12,,,,57,101
43562,control_change,0,0,9,,,,,,,,,12,11,32,,,
43562,note_on,7,0,9,,,,,,,,,12,,,,60,0
43564,note_on,0,0,10,,,,,,,,,6,,,,55,62
43564,note_on,30,0,10,,,,,,,,,6,,,,60,0
43571,control_change,11,0,7,,,,,,,,,10,11,35,,,
43573,control_change,11,0,9,,,,,,,,,12,11,35,,,
43583,control_change,12,0,7,,,,,,,,,10,11,38,,,
43585,control_change,12,0,9,,,,,,,,,12,11,38,,,
43592,note_on,30,0,8,,,,,,,,,11,,,,71,0
43592,note_on,0,0,8,,,,,,,,,11,,,,67,78
43594,note_on,0,0,10,,,,,,,,,6,,,,59,62
43594,note_on,30,0,10,,,,,,,,,6,,,,55,0
43595,control_change,12,0,7,,,,,,,,,10,11,41,,,
43597,control_change,12,0,9,,,,,,,,,12,11,41,,,
43607,control_change,12,0,7,,,,,,,,,10,11,44,,,
43609,control_change,12,0,9,,,,,,,,,12,11,44,,,
43619,control_change,12,0,7,,,,,,,,,10,11,47,,,
43620,set_tempo,60,1,0,,,,,,937500,,,,,,,,
43621,control_change,12,0,9,,,,,,,,,12,11,47,,,
43622,note_on,0,0,8,,,,,,,,,11,,,,69,78
43622,note_on,30,0,8,,,,,,,,,11,,,,67,0
43624,note_on,0,0,10,,,,,,,,,6,,,,54,62
43624,note_on,30,0,10,,,,,,,,,6,,,,59,0
43652,note_on,30,0,8,,,,,,,,,11,,,,69,0
43652,note_on,0,0,8,,,,,,,,,11,,,,66,78
43654,note_on,30,0,10,,,,,,,,,6,,,,54,0
43654,note_on,0,0,10,,,,,,,,,6,,,,57,62
43678,note_on,175,0,5,,,,,,,,,4,,,,62,0
43680,note_on,175,0,6,,,,,,,,,5,,,,50,0
43680,control_change,61,0,7,,,,,,,,,10,11,47,,,
43682,note_on,0,0,8,,,,,,,,,11,,,,69,78
43682,control_change,61,0,9,,,,,,,,,12,11,47,,,
43682,note_on,30,0,8,,,,,,,,,11,,,,66,0
43683,note_on,5,0,5,,,,,,,,,4,,,,62,82
43684,note_on,30,0,10,,,,,,,,,6,,,,57,0
43684,note_on,0,0,10,,,,,,,,,6,,,,54,62
43685,note_on,5,0,6,,,,,,,,,5,,,,50,82
43697,control_change,17,0,7,,,,,,,,,10,11,45,,,
43699,control_change,17,0,9,,,,,,,,,12,11,45,,,
43712,note_on,30,0,8,,,,,,,,,11,,,,69,0
43712,note_on,0,0,8,,,,,,,,,11,,,,66,78
43714,note_on,0,0,10,,,,,,,,,6,,,,57,62
43714,note_on,30,0,10,,,,,,,,,6,,,,54,0
43715,control_change,18,0,7,,,,,,,,,10,11,43,,,
43717,control_change,18,0,9,,,,,,,,,12,11,43,,,
43733,control_change,18,0,7,,,,,,,,,10,11,41,,,
43735,control_change,18,0,9,,,,,,,,,12,11,41,,,
43740,set_tempo,120,1,0,,,,,,1000000,,,,,,,,
43740,note_on,7,0,7,,,,,,,,,10,,,,69,0
43740,note_on,0,0,7,,,,,,,,,10,,,,62,103
43740,control_change,0,0,7,,,,,,,,,10,11,32,,,
43742,note_on,7,0,9,,,,,,,,,12,,,,57,0
43742,control_change,0,0,9,,,,,,,,,12,11,32,,,
43742,note_on,0,0,9,,,,,,,,,12,,,,50,101
43742,note_on,0,0,8,,,,,,,,,11,,,,67,78
43742,note_on,30,0,8,,,,,,,,,11,,,,66,0
43744,note_on,30,0,10,,,,,,,,,6,,,,57,0
43744,note_on,0,0,10,,,,,,,,,6,,,,52,62
43751,control_change,11,0,7,,,,,,,,,10,11,35,,,
43753,control_change,11,0,9,,,,,,,,,12,11,35,,,
43763,control_change,12,0,7,,,,,,,,,10,11,38,,,
43765,control_change,12,0,9,,,,,,,,,12,11,38,,,
43772,note_on,30,0,8,,,,,,,,,11,,,,67,0
43772,note_on,0,0,8,,,,,,,,,11,,,,64,78
43774,note_on,30,0,10,,,,,,,,,6,,,,52,0
43774,note_on,0,0,10,,,,,,,,,6,,,,55,62
43775,control_change,12,0,7,,,,,,,,,10,11,41,,,
43777,control_change,12,0,9,,,,,,,,,12,11,41,,,
43787,control_change,12,0,7,,,,,,,,,10,11,44,,,
43789,control_change,12,0,9,,,,,,,,,12,11,44,,,
43799,control_change,12,0,7,,,,,,,,,10,11,47,,,
43800,set_tempo,60,1,0,,,,,,937500,,,,,,,,
43801,control_change,12,0,9,,,,,,,,,12,11,47,,,
43802,note_on,0,0,8,,,,,,,,,11,,,,69,78
43802,control_change,420,0,2,,,,,,,,,1,11,60,,,
43802,note_on,0,0,2,,,,,,,,,1,,,,81,85
43802,note_on,30,0,8,,,,,,,,,11,,,,64,0
43804,note_on,0,0,10,,,,,,,,,6,,,,54,62
43804,note_on,30,0,10,,,,,,,,,6,,,,55,0
43832,note_on,30,0,8,,,,,,,,,11,,,,69,0
43832,note_on,30,0,2,,,,,,,,,1,,,,81,0
43832,note_on,0,0,8,,,,,,,,,11,,,,66,78
43832,note_on,0,0,2,,,,,,,,,1,,,,83,95
43834,note_on,30,0,10,,,,,,,,,6,,,,54,0
43834,note_on,0,0,10,,,,,,,,,6,,,,57,62
43858,note_on,175,0,5,,,,,,,,,4,,,,62,0
43860,note_on,175,0,6,,,,,,,,,5,,,,50,0
43860,control_change,61,0,7,,,,,,,,,10,11,47,,,
43862,note_on,30,0,2,,,,,,,,,1,,,,83,0
43862,note_on,0,0,8,,,,,,,,,11,,,,69,78
43862,note_on,30,0,8,,,,,,,,,11,,,,66,0
43862,control_change,61,0,9,,,,,,,,,12,11,47,,,
43862,note_on,0,0,2,,,,,,,,,1,,,,84,95
43863,note_on,5,0,5,,,,,,,,,4,,,,62,82
43864,note_on,0,0,10,,,,,,,,,6,,,,54,62
43864,note_on,30,0,10,,,,,,,,,6,,,,57,0
43865,note_on,5,0,6,,,,,,,,,5,,,,50,82
43877,control_change,17,0,7,,,,,,,,,10,11,45,,,
43879,control_change,17,0,9,,,,,,,,,12,11,45,,,
43892,note_on,0,0,8,,,,,,,,,11,,,,66,78
43892,note_on,30,0,8,,,,,,,,,11,,,,69,0
43892,note_on,30,0,2,,,,,,,,,1,,,,84,0
43892,note_on,0,0,2,,,,,,,,,1,,,,83,95
43894,note_on,30,0,10,,,,,,,,,6,,,,54,0
43894,note_on,0,0,10,,,,,,,,,6,,,,57,62
43895,control_change,18,0,7,,,,,,,,,10,11,43,,,
43897,control_change,18,0,9,,,,,,,,,12,11,43,,,
43913,control_change,18,0,7,,,,,,,,,10,11,41,,,
43915,control_change,18,0,9,,,,,,,,,12,11,41,,,
43915,note_on,2,0,7,,,,,,,,,10,,,,62,0
43917,note_on,2,0,9,,,,,,,,,12,,,,50,0
43917,note_on,25,0,2,,,,,,,,,1,,,,83,0
43917,note_on,25,0,8,,,,,,,,,11,,,,66,0
43918,note_on,55,0,5,,,,,,,,,4,,,,62,0
43919,note_on,25,0,10,,,,,,,,,6,,,,57,0
43920,set_tempo,120,1,0,,,,,,1000000,,,,,,,,
43920,note_on,0,0,1,,,,,,,,,0,,,,62,83
43920,control_change,420,0,1,,,,,,,,,0,11,55,,,
43920,note_on,55,0,6,,,,,,,,,5,,,,50,0
43922,note_on,5,0,8,,,,,,,,,11,,,,69,78
43922,note_on,5,0,2,,,,,,,,,1,,,,83,95
43923,note_on,5,0,5,,,,,,,,,4,,,,62,82
43924,note_on,5,0,10,,,,,,,,,6,,,,54,62
43925,note_on,600,0,11,,,,,,,,,13,,,,50,43
43925,note_on,5,0,6,,,,,,,,,5,,,,50,82
43928,note_on,600,0,12,,,,,,,,,14,,,,38,36
43935,note_on,15,0,1,,,,,,,,,0,,,,62,0
43950,note_on,15,0,1,,,,,,,,,0,,,,69,83
43952,note_on,30,0,8,,,,,,,,,11,,,,69,0
43952,note_on,0,0,8,,,,,,,,,11,,,,66,78
43954,note_on,30,0,10,,,,,,,,,6,,,,54,0
43954,note_on,0,0,10,,,,,,,,,6,,,,57,62
43965,note_on,15,0,1,,,,,,,,,0,,,,69,0
43980,note_on,15,0,1,,,,,,,,,0,,,,72,83
43980,set_tempo,60,1,0,,,,,,937500,,,,,,,,
43982,note_on,0,0,8,,,,,,,,,11,,,,72,78
43982,note_on,60,0,2,,,,,,,,,1,,,,83,0
43982,note_on,30,0,8,,,,,,,,,11,,,,66,0
43982,note_on,0,0,2,,,,,,,,,1,,,,81,80
43984,note_on,0,0,10,,,,,,,,,6,,,,57,62
43984,note_on,30,0,10,,,,,,,,,6,,,,57,0
43995,note_on,15,0,1,,,,,,,,,0,,,,72,0
44010,note_on,15,0,1,,,,,,,,,0,,,,74,83
44012,note_on,30,0,8,,,,,,,,,11,,,,72,0
44012,note_on,0,0,8,,,,,,,,,11,,,,69,78
44014,note_on,0,0,10,,,,,,,,,6,,,,60,62
44014,note_on,30,0,10,,,,,,,,,6,,,,57,0
44025,note_on,15,0,1,,,,,,,,,0,,,,74,0
44040,note_on,15,0,1,,,,,,,,,0,,,,81,83
44042,note_on,30,0,8,,,,,,,,,11,,,,69,0
44042,control_change,60,0,2,,,,,,,,,1,11,60,,,
44042,note_on,0,0,8,,,,,,,,,11,,,,72,78
44044,note_on,0,0,10,,,,,,,,,6,,,,57,62
44044,note_on,30,0,10,,,,,,,,,6,,,,60,0
44045,note_on,120,0,11,,,,,,,,,13,,,,50,0
44048,control_change,6,0,2,,,,,,,,,1,11,57,,,
44048,note_on,120,0,12,,,,,,,,,14,,,,38,0
44054,control_change,6,0,2,,,,,,,,,1,11,54,,,
44055,note_on,15,0,1,,,,,,,,,0,,,,81,0
44060,control_change,6,0,2,,,,,,,,,1,11,51,,,
44067,control_change,7,0,2,,,,,,,,,1,11,48,,,
44070,note_on,15,0,1,,,,,,,,,0,,,,84,83
44072,note_on,0,0,8,,,,,,,,,11,,,,69,78
44072,note_on,30,0,8,,,,,,,,,11,,,,72,0
44073,control_change,6,0,2,,,,,,,,,1,11,45,,,
44074,note_on,0,0,10,,,,,,,,,6,,,,60,62
44074,note_on,30,0,10,,,,,,,,,6,,,,57,0
44079,control_change,6,0,2,,,,,,,,,1,11,42,,,
44085,note_on,15,0,1,,,,,,,,,0,,,,84,0
44086,control_change,7,0,2,,,,,,,,,1,11,39,,,
44092,control_change,6,0,2,,,,,,,,,1,11,36,,,
44098,control_change,6,0,2,,,,,,,,,1,11,33,,,
44100,note_on,0,0,7,,,,,,,,,10,,,,72,103
44100,note_on,15,0,1,,,,,,,,,0,,,,86,83
44100,set_tempo,120,1,0,,,,,,1008403,,,,,,,,
44100,control_change,185,0,7,,,,,,,,,10,11,32,,,
44102,control_change,185,0,9,,,,,,,,,12,11,32,,,
44102,note_on,4,0,2,,,,,,,,,1,,,,81,0
44102,note_on,0,0,8,,,,,,,,,11,,,,74,78
44102,note_on,30,0,8,,,,,,,,,11,,,,69,0
44102,note_on,0,0,9,,,,,,,,,12,,,,60,101
44104,note_on,0,0,10,,,,,,,,,6,,,,59,62
44104,note_on,30,0,10,,,,,,,,,6,,,,60,0
44111,control_change,11,0,7,,,,,,,,,10,11,35,,,
44113,control_change,11,0,9,,,,,,,,,12,11,35,,,
44123,control_change,12,0,7,,,,,,,,,10,11,38,,,
44125,control_change,12,0,9,,,,,,,,,12,11,38,,,
44132,note_on,30,0,8,,,,,,,,,11,,,,74,0
44132,note_on,0,0,8,,,,,,,,,11,,,,71,78
44134,note_on,30,0,10,,,,,,,,,6,,,,59,0
44134,note_on,0,0,10,,,,,,,,,6,,,,62,62
44135,control_change,12,0,7,,,,,,,,,10,11,41,,,
44137,control_change,12,0,9,,,,,,,,,12,11,41,,,
44147,control_change,12,0,7,,,,,,,,,10,11,44,,,
44149,control_change,12,0,9,,,,,,,,,12,11,44,,,
44159,control_change,12,0,7,,,,,,,,,10,11,47,,,
44160,set_tempo,60,1,0,,,,,,937500,,,,,,,,
44161,control_change,12,0,9,,,,,,,,,12,11,47,,,
44162,note_on,30,0,8,,,,,,,,,11,,,,71,0
44162,note_on,0,0,8,,,,,,,,,11,,,,72,78
44164,note_on,0,0,10,,,,,,,,,6,,,,57,62
44164,note_on,30,0,10,,,,,,,,,6,,,,62,0
44190,control_change,90,0,1,,,,,,,,,0,11,55,,,
44192,note_on,30,0,8,,,,,,,,,11,,,,72,0
44192,note_on,0,0,8,,,,,,,,,11,,,,69,78
44194,note_on,0,0,10,,,,,,,,,6,,,,60,62
44194,note_on,30,0,10,,,,,,,,,6,,,,57,0
44194,control_change,4,0,1,,,,,,,,,0,11,52,,,
44198,control_change,4,0,1,,,,,,,,,0,11,49,,,
44203,control_change,5,0,1,,,,,,,,,0,11,46,,,
44207,control_change,4,0,1,,,,,,,,,0,11,43,,,
44211,control_change,4,0,1,,,,,,,,,0,11,40,,,
44216,control_change,5,0,1,,,,,,,,,0,11,37,,,
44218,note_on,295,0,5,,,,,,,,,4,,,,62,0
44220,control_change,61,0,7,,,,,,,,,10,11,47,,,
44220,note_on,295,0,6,,,,,,,,,5,,,,50,0
44220,note_on,4,0,1,,,,,,,,,0,,,,86,0
44222,note_on,0,0,8,,,,,,,,,11,,,,71,78
44222,note_on,30,0,8,,,,,,,,,11,,,,69,0
44222,control_change,61,0,9,,,,,,,,,12,11,47,,,
44223,note_on,5,0,5,,,,,,,,,4,,,,62,82
44224,note_on,30,0,10,,,,,,,,,6,,,,60,0
44224,note_on,0,0,10,,,,,,,,,6,,,,57,62
44225,note_on,5,0,6,,,,,,,,,5,,,,50,82
44237,control_change,17,0,7,,,,,,,,,10,11,45,,,
44239,control_change,17,0,9,,,,,,,,,12,11,45,,,
44252,note_on,0,0,8,,,,,,,,,11,,,,67,78
44252,note_on,30,0,8,,,,,,,,,11,,,,71,0
44254,note_on,0,0,10,,,,,,,,,6,,,,60,62
44254,note_on,30,0,10,,,,,,,,,6,,,,57,0
44255,control_change,18,0,7,,,,,,,,,10,11,43,,,
44257,control_change,18,0,9,,,,,,,,,12,11,43,,,
44273,control_change,18,0,7,,,,,,,,,10,11,41,,,
44275,control_change,18,0,9,,,,,,,,,12,11,41,,,
44280,note_on,7,0,7,,,,,,,,,10,,,,72,0
44280,control_change,0,0,7,,,,,,,,,10,11,32,,,
44280,note_on,0,0,7,,,,,,,,,10,,,,69,103
44280,set_tempo,120,1,0,,,,,,1000000,,,,,,,,
44282,note_on,0,0,8,,,,,,,,,11,,,,69,78
44282,note_on,7,0,9,,,,,,,,,12,,,,60,0
44282,note_on,0,0,9,,,,,,,,,12,,,,57,101
44282,note_on,30,0,8,,,,,,,,,11,,,,67,0
44282,control_change,0,0,9,,,,,,,,,12,11,32,,,
44284,note_on,0,0,10,,,,,,,,,6,,,,54,62
44284,note_on,30,0,10,,,,,,,,,6,,,,60,0
44291,control_change,11,0,7,,,,,,,,,10,11,35,,,
44293,control_change,11,0,9,,,,,,,,,12,11,35,,,
44303,control_change,12,0,7,,,,,,,,,10,11,38,,,
44305,control_change,12,0,9,,,,,,,,,12,11,38,,,
44312,note_on,30,0,8,,,,,,,,,11,,,,69,0
44312,note_on,0,0,8,,,,,,,,,11,,,,66,78
44314,note_on,30,0,10,,,,,,,,,6,,,,54,0
44314,note_on,0,0,10,,,,,,,,,6,,,,57,62
44315,control_change,12,0,7,,,,,,,,,10,11,41,,,
44317,control_change,12,0,9,,,,,,,,,12,11,41,,,
44327,control_change,12,0,7,,,,,,,,,10,11,44,,,
44329,control_change,12,0,9,,,,,,,,,12,11,44,,,
44339,control_change,12,0,7,,,,,,,,,10,11,47,,,
44340,set_tempo,60,1,0,,,,,,937500,,,,,,,,
44341,control_change,12,0,9,,,,,,,,,12,11,47,,,
44342,note_on,30,0,8,,,,,,,,,11,,,,66,0
44342,note_on,0,0,8,,,,,,,,,11,,,,67,78
44344,note_on,0,0,10,,,,,,,,,6,,,,52,62
44344,note_on,30,0,10,,,,,,,,,6,,,,57,0
44372,note_on,0,0,8,,,,,,,,,11,,,,64,78
44372,note_on,30,0,8,,,,,,,,,11,,,,67,0
44374,note_on,30,0,10,,,,,,,,,6,,,,52,0
44374,note_on,0,0,10,,,,,,,,,6,,,,55,62
44398,note_on,175,0,5,,,,,,,,,4,,,,62,0
44400,control_change,61,0,7,,,,,,,,,10,11,47,,,
44400,note_on,175,0,6,,,,,,,,,5,,,,50,0
44402,note_on,0,0,8,,,,,,,,,11,,,,66,78
44402,note_on,30,0,8,,,,,,,,,11,,,,64,0
44402,control_change,61,0,9,,,,,,,,,12,11,47,,,
44403,note_on,5,0,5,,,,,,,,,4,,,,62,82
44404,note_on,0,0,10,,,,,,,,,6,,,,50,62
44404,note_on,30,0,10,,,,,,,,,6,,,,55,0
44405,note_on,5,0,6,,,,,,,,,5,,,,50,82
44417,control_change,17,0,7,,,,,,,,,10,11,45,,,
44419,control_change,17,0,9,,,,,,,,,12,11,45,,,
44432,note_on,0,0,8,,,,,,,,,11,,,,62,78
44432,note_on,30,0,8,,,,,,,,,11,,,,66,0
44434,note_on,30,0,10,,,,,,,,,6,,,,50,0
44434,note_on,0,0,10,,,,,,,,,6,,,,54,62
44435,control_change,18,0,7,,,,,,,,,10,11,43,,,
44437,control_change,18,0,9,,,,,,,,,12,11,43,,,
44453,control_change,18,0,7,,,,,,,,,10,11,41,,,
44455,control_change,18,0,9,,,,,,,,,12,11,41,,,
44460,note_on,0,0,7,,,,,,,,,10,,,,62,103
44460,note_on,7,0,7,,,,,,,,,10,,,,69,0
44460,control_change,0,0,7,,,,,,,,,10,11,32,,,
44460,set_tempo,120,1,0,,,,,,1000000,,,,,,,,
44462,note_on,30,0,8,,,,,,,,,11,,,,62,0
44462,note_on,0,0,8,,,,,,,,,11,,,,64,78
44462,note_on,0,0,9,,,,,,,,,12,,,,50,101
44462,control_change,0,0,9,,,,,,,,,12,11,32,,,
44462,note_on,7,0,9,,,,,,,,,12,,,,57,0
44464,note_on,0,0,10,,,,,,,,,6,,,,48,62
44464,note_on,30,0,10,,,,,,,,,6,,,,54,0
44471,control_change,11,0,7,,,,,,,,,10,11,35,,,
44473,control_change,11,0,9,,,,,,,,,12,11,35,,,
44483,control_change,12,0,7,,,,,,,,,10,11,38,,,
44485,control_change,12,0,9,,,,,,,,,12,11,38,,,
44492,note_on,30,0,8,,,,,,,,,11,,,,64,0
44492,note_on,0,0,8,,,,,,,,,11,,,,60,78
44494,note_on,30,0,10,,,,,,,,,6,,,,48,0
44494,note_on,0,0,10,,,,,,,,,6,,,,52,62
44495,control_change,12,0,7,,,,,,,,,10,11,41,,,
44497,control_change,12,0,9,,,,,,,,,12,11,41,,,
44507,control_change,12,0,7,,,,,,,,,10,11,44,,,
44509,control_change,12,0,9,,,,,,,,,12,11,44,,,
44519,control_change,12,0,7,,,,,,,,,10,11,47,,,
44520,note_on,0,0,1,,,,,,,,,0,,,,81,99
44520,control_change,300,0,1,,,,,,,,,0,11,55,,,
44520,set_tempo,60,1,0,,,,,,937500,,,,,,,,
44521,control_change,12,0,9,,,,,,,,,12,11,47,,,
44522,note_on,30,0,8,,,,,,,,,11,,,,60,0
44522,note_on,0,0,8,,,,,,,,,11,,,,62,78
44524,note_on,0,0,10,,,,,,,,,6,,,,47,62
44524,note_on,30,0,10,,,,,,,,,6,,,,52,0
44552,note_on,0,0,8,,,,,,,,,11,,,,59,78
44552,note_on,30,0,8,,,,,,,,,11,,,,62,0
44554,note_on,0,0,10,,,,,,,,,6,,,,50,62
44554,note_on,30,0,10,,,,,,,,,6,,,,47,0
44578,note_on,175,0,5,,,,,,,,,4,,,,62,0
44580,note_on,0,0,1,,,,,,,,,0,,,,83,111
44580,note_on,60,0,1,,,,,,,,,0,,,,81,0
44580,control_change,61,0,7,,,,,,,,,10,11,47,,,
44580,note_on,175,0,6,,,,,,,,,5,,,,50,0
44582,note_on,0,0,8,,,,,,,,,11,,,,60,78
44582,note_on,30,0,8,,,,,,,,,11,,,,59,0
44582,control_change,61,0,9,,,,,,,,,12,11,47,,,
44583,note_on,5,0,5,,,,,,,,,4,,,,62,82
44584,note_on,0,0,10,,,,,,,,,6,,,,45,62
44584,note_on,30,0,10,,,,,,,,,6,,,,50,0
44585,note_on,5,0,6,,,,,,,,,5,,,,50,82
44597,control_change,17,0,7,,,,,,,,,10,11,45,,,
44599,control_change,17,0,9,,,,,,,,,12,11,45,,,
44610,note_on,0,0,1,,,,,,,,,0,,,,84,111
44610,note_on,30,0,1,,,,,,,,,0,,,,83,0
44612,note_on,30,0,8,,,,,,,,,11,,,,60,0
44612,note_on,0,0,8,,,,,,,,,11,,,,57,78
44614,note_on,30,0,10,,,,,,,,,6,,,,45,0
44614,note_on,0,0,10,,,,,,,,,6,,,,48,62
44615,control_change,18,0,7,,,,,,,,,10,11,43,,,
44617,control_change,18,0,9,,,,,,,,,12,11,43,,,
44633,control_change,18,0,7,,,,,,,,,10,11,41,,,
44635,note_on,25,0,1,,,,,,,,,0,,,,84,0
44635,note_on,2,0,7,,,,,,,,,10,,,,62,0
44635,control_change,18,0,9,,,,,,,,,12,11,41,,,
44637,note_on,25,0,8,,,,,,,,,11,,,,57,0
44637,note_on,2,0,9,,,,,,,,,12,,,,50,0
44638,note_on,55,0,5,,,,,,,,,4,,,,62,0
44639,note_on,25,0,10,,,,,,,,,6,,,,48,0
44640,note_on,5,0,1,,,,,,,,,0,,,,86,111
44640,set_tempo,120,1,0,,,,,,1000000,,,,,,,,
44640,note_on,55,0,6,,,,,,,,,5,,,,50,0
44642,note_on,5,0,8,,,,,,,,,11,,,,62,78
44643,note_on,0,0,3,,,,,,,,,2,,,,55,96
44643,note_on,0,0,3,,,,,,,,,2,,,,67,96
44643,control_change,2760,0,3,,,,,,,,,2,11,32,,,
44644,note_on,5,0,10,,,,,,,,,6,,,,47,62
44645,note_on,2760,0,4,,,,,,,,,3,,,,50,95
44645,note_on,0,0,4,,,,,,,,,3,,,,47,95
44661,control_change,18,0,3,,,,,,,,,2,11,35,,,
44672,note_on,0,0,8,,,,,,,,,11,,,,59,78
44672,note_on,30,0,8,,,,,,,,,11,,,,62,0
44674,note_on,0,0,10,,,,,,,,,6,,,,43,56
44674,note_on,30,0,10,,,,,,,,,6,,,,47,0
44679,control_change,18,0,3,,,,,,,,,2,11,38,,,
44697,control_change,18,0,3,,,,,,,,,2,11,41,,,
44700,set_tempo,60,1,0,,,,,,937500,,,,,,,,
44702,note_on,0,0,8,,,,,,,,,11,,,,62,78
44702,note_on,30,0,8,,,,,,,,,11,,,,59,0
44704,note_on,30,0,10,,,,,,,,,6,,,,43,0
44704,note_on,0,0,10,,,,,,,,,6,,,,47,62
44715,control_change,18,0,3,,,,,,,,,2,11,44,,,
44732,note_on,0,0,8,,,,,,,,,11,,,,59,78
44732,note_on,30,0,8,,,,,,,,,11,,,,62,0
44733,control_change,18,0,3,,,,,,,,,2,11,47,,,
44734,note_on,30,0,10,,,,,,,,,6,,,,47,0
44734,note_on,0,0,10,,,,,,,,,6,,,,43,56
44762,note_on,0,0,8,,,,,,,,,11,,,,62,78
44762,note_on,30,0,8,,,,,,,,,11,,,,59,0
44764,note_on,0,0,10,,,,,,,,,6,,,,47,62
44764,note_on,30,0,10,,,,,,,,,6,,,,43,0
44792,note_on,30,0,8,,,,,,,,,11,,,,62,0
44792,note_on,0,0,8,,,,,,,,,11,,,,59,78
44794,note_on,30,0,10,,,,,,,,,6,,,,47,0
44794,note_on,0,0,10,,,,,,,,,6,,,,43,56
44820,control_change,185,0,7,,,,,,,,,10,11,27,,,
44820,note_on,0,0,7,,,,,,,,,10,,,,74,103
44820,set_tempo,120,1,0,,,,,,1008403,,,,,,,,
44822,control_change,185,0,9,,,,,,,,,12,11,27,,,
44822,note_on,0,0,9,,,,,,,,,12,,,,62,101
44822,note_on,30,0,8,,,,,,,,,11,,,,59,0
44822,note_on,0,0,8,,,,,,,,,11,,,,62,78
44824,note_on,0,0,10,,,,,,,,,6,,,,47,62
44824,note_on,30,0,10,,,,,,,,,6,,,,43,0
44828,control_change,8,0,7,,,,,,,,,10,11,30,,,
44830,control_change,8,0,9,,,,,,,,,12,11,30,,,
44837,control_change,9,0,7,,,,,,,,,10,11,33,,,
44839,control_change,9,0,9,,,,,,,,,12,11,33,,,
44846,control_change,9,0,7,,,,,,,,,10,11,36,,,
44848,control_change,9,0,9,,,,,,,,,12,11,36,,,
44850,note_on,0,0,1,,,,,,,,,0,,,,79,111
44850,note_on,210,0,1,,,,,,,,,0,,,,86,0
44852,note_on,30,0,8,,,,,,,,,11,,,,62,0
44852,note_on,0,0,8,,,,,,,,,11,,,,59,78
44854,note_on,30,0,10,,,,,,,,,6,,,,47,0
44854,note_on,0,0,10,,,,,,,,,6,,,,43,56
44855,control_change,9,0,7,,,,,,,,,10,11,39,,,
44857,control_change,9,0,9,,,,,,,,,12,11,39,,,
44864,control_change,9,0,7,,,,,,,,,10,11,42,,,
44866,control_change,9,0,9,,,,,,,,,12,11,42,,,
44873,control_change,9,0,7,,,,,,,,,10,11,45,,,
44875,control_change,9,0,9,,,,,,,,,12,11,45,,,
44880,set_tempo,60,1,0,,,,,,937500,,,,,,,,
44880,note_on,0,0,1,,,,,,,,,0,,,,83,111
44880,note_on,30,0,1,,,,,,,,,0,,,,79,0
44882,note_on,0,0,8,,,,,,,,,11,,,,62,78
44882,note_on,30,0,8,,,,,,,,,11,,,,59,0
44884,note_on,0,0,10,,,,,,,,,6,,,,47,62
44884,note_on,30,0,10,,,,,,,,,6,,,,43,0
44910,note_on,0,0,1,,,,,,,,,0,,,,86,111
44910,note_on,30,0,1,,,,,,,,,0,,,,83,0
44912,note_on,0,0,8,,,,,,,,,11,,,,59,78
44912,note_on,30,0,8,,,,,,,,,11,,,,62,0
44914,note_on,30,0,10,,,,,,,,,6,,,,47,0
44914,note_on,0,0,10,,,,,,,,,6,,,,43,56
44940,note_on,30,0,1,,,,,,,,,0,,,,86,0
44940,note_on,0,0,1,,,,,,,,,0,,,,91,111
44940,control_change,67,0,7,,,,,,,,,10,11,47,,,
44942,control_change,67,0,9,,,,,,,,,12,11,47,,,
44942,note_on,30,0,8,,,,,,,,,11,,,,59,0
44942,note_on,0,0,8,,,,,,,,,11,,,,62,78
44944,note_on,0,0,10,,,,,,,,,6,,,,47,62
44944,note_on,30,0,10,,,,,,,,,6,,,,43,0
44957,control_change,17,0,7,,,,,,,,,10,11,45,,,
44959,control_change,17,0,9,,,,,,,,,12,11,45,,,
44970,note_on,0,0,1,,,,,,,,,0,,,,86,111
44970,note_on,30,0,1,,,,,,,,,0,,,,91,0
44972,note_on,30,0,8,,,,,,,,,11,,,,62,0
44972,note_on,0,0,8,,,,,,,,,11,,,,59,78
44974,note_on,30,0,10,,,,,,,,,6,,,,47,0
44974,note_on,0,0,10,,,,,,,,,6,,,,43,56
44975,control_change,18,0,7,,,,,,,,,10,11,43,,,
44977,control_change,18,0,9,,,,,,,,,12,11,43,,,
44993,control_change,18,0,7,,,,,,,,,10,11,41,,,
44995,note_on,25,0,1,,,,,,,,,0,,,,86,0
44995,control_change,18,0,9,,,,,,,,,12,11,41,,,
44997,note_on,25,0,8,,,,,,,,,11,,,,59,0
44999,note_on,25,0,10,,,,,,,,,6,,,,43,0
45000,note_on,5,0,1,,,,,,,,,0,,,,88,111
45000,control_change,0,0,7,,,,,,,,,10,11,32,,,
45000,set_tempo,120,1,0,,,,,,1000000,,,,,,,,
45000,note_on,7,0,7,,,,,,,,,10,,,,74,0
45000,note_on,0,0,7,,,,,,,,,10,,,,67,103
45002,note_on,7,0,9,,,,,,,,,12,,,,62,0
45002,note_on,5,0,8,,,,,,,,,11,,,,64,78
45002,control_change,0,0,9,,,,,,,,,12,11,32,,,
45002,note_on,0,0,9,,,,,,,,,12,,,,55,101
45004,note_on,5,0,10,,,,,,,,,6,,,,48,62
45005,note_on,0,0,4,,,,,,,,,3,,,,48,95
45005,note_on,0,0,4,,,,,,,,,3,,,,52,95
45005,note_on,0,0,4,,,,,,,,,3,,,,50,0
45005,note_on,360,0,4,,,,,,,,,3,,,,47,0
45011,control_change,11,0,7,,,,,,,,,10,11,35,,,
45013,control_change,11,0,9,,,,,,,,,12,11,35,,,
45023,control_change,12,0,7,,,,,,,,,10,11,38,,,
45025,control_change,12,0,9,,,,,,,,,12,11,38,,,
45032,note_on,30,0,8,,,,,,,,,11,,,,64,0
45032,note_on,0,0,8,,,,,,,,,11,,,,60,78
45034,note_on,0,0,10,,,,,,,,,6,,,,43,56
45034,note_on,30,0,10,,,,,,,,,6,,,,48,0
45035,control_change,12,0,7,,,,,,,,,10,11,41,,,
45037,control_change,12,0,9,,,,,,,,,12,11,41,,,
45047,control_change,12,0,7,,,,,,,,,10,11,44,,,
45049,control_change,12,0,9,,,,,,,,,12,11,44,,,
45059,control_change,12,0,7,,,,,,,,,10,11,47,,,
45060,set_tempo,60,1,0,,,,,,937500,,,,,,,,
45061,control_change,12,0,9,,,,,,,,,12,11,47,,,
45062,note_on,30,0,8,,,,,,,,,11,,,,60,0
45062,note_on,0,0,8,,,,,,,,,11,,,,64,78
45064,note_on,0,0,10,,,,,,,,,6,,,,48,62
45064,note_on,30,0,10,,,,,,,,,6,,,,43,0
45092,note_on,30,0,8,,,,,,,,,11,,,,64,0
45092,note_on,0,0,8,,,,,,,,,11,,,,60,78
45094,note_on,0,0,10,,,,,,,,,6,,,,43,56
45094,note_on,30,0,10,,,,,,,,,6,,,,48,0
45120,control_change,61,0,7,,,,,,,,,10,11,47,,,
45122,note_on,0,0,8,,,,,,,,,11,,,,64,78
45122,control_change,61,0,9,,,,,,,,,12,11,47,,,
45122,note_on,30,0,8,,,,,,,,,11,,,,60,0
45124,note_on,30,0,10,,,,,,,,,6,,,,43,0
45124,note_on,0,0,10,,,,,,,,,6,,,,48,62
45137,control_change,17,0,7,,,,,,,,,10,11,45,,,
45139,control_change,17,0,9,,,,,,,,,12,11,45,,,
45152,note_on,0,0,8,,,,,,,,,11,,,,60,78
45152,note_on,30,0,8,,,,,,,,,11,,,,64,0
45154,note_on,0,0,10,,,,,,,,,6,,,,43,56
45154,note_on,30,0,10,,,,,,,,,6,,,,48,0
45155,control_change,18,0,7,,,,,,,,,10,11,43,,,
45157,control_change,18,0,9,,,,,,,,,12,11,43,,,
45173,control_change,18,0,7,,,,,,,,,10,11,41,,,
45175,control_change,18,0,9,,,,,,,,,12,11,41,,,
45180,note_on,0,0,7,,,,,,,,,10,,,,76,103
45180,control_change,0,0,7,,,,,,,,,10,11,32,,,
45180,note_on,7,0,7,,,,,,,,,10,,,,67,0
45180,set_tempo,120,1,0,,,,,,1000000,,,,,,,,
45182,note_on,0,0,9,,,,,,,,,12,,,,64,101
45182,note_on,7,0,9,,,,,,,,,12,,,,55,0
45182,control_change,0,0,9,,,,,,,,,12,11,32,,,
45182,note_on,0,0,8,,,,,,,,,11,,,,64,78
45182,note_on,30,0,8,,,,,,,,,11,,,,60,0
45184,note_on,30,0,10,,,,,,,,,6,,,,43,0
45184,note_on,0,0,10,,,,,,,,,6,,,,48,62
45191,control_change,11,0,7,,,,,,,,,10,11,35,,,
45193,control_change,11,0,9,,,,,,,,,12,11,35,,,
45203,control_change,12,0,7,,,,,,,,,10,11,38,,,
45205,control_change,12,0,9,,,,,,,,,12,11,38,,,
45210,note_on,210,0,1,,,,,,,,,0,,,,88,0
45210,note_on,0,0,1,,,,,,,,,0,,,,79,111
45212,note_on,0,0,8,,,,,,,,,11,,,,60,78
45212,note_on,30,0,8,,,,,,,,,11,,,,64,0
45214,note_on,0,0,10,,,,,,,,,6,,,,43,56
45214,note_on,30,0,10,,,,,,,,,6,,,,48,0
45215,control_change,12,0,7,,,,,,,,,10,11,41,,,
45217,control_change,12,0,9,,,,,,,,,12,11,41,,,
45227,control_change,12,0,7,,,,,,,,,10,11,44,,,
45229,control_change,12,0,9,,,,,,,,,12,11,44,,,
45239,control_change,12,0,7,,,,,,,,,10,11,47,,,
45240,set_tempo,60,1,0,,,,,,937500,,,,,,,,
45240,note_on,30,0,1,,,,,,,,,0,,,,79,0
45240,note_on,0,0,1,,,,,,,,,0,,,,84,111
45241,control_change,12,0,9,,,,,,,,,12,11,47,,,
45242,note_on,30,0,8,,,,,,,,,11,,,,60,0
45242,note_on,0,0,8,,,,,,,,,11,,,,64,78
45244,note_on,30,0,10,,,,,,,,,6,,,,43,0
45244,note_on,0,0,10,,,,,,,,,6,,,,48,62
45270,note_on,30,0,1,,,,,,,,,0,,,,84,0
45270,note_on,0,0,1,,,,,,,,,0,,,,88,111
45272,note_on,0,0,8,,,,,,,,,11,,,,60,78
45272,note_on,30,0,8,,,,,,,,,11,,,,64,0
45274,note_on,0,0,10,,,,,,,,,6,,,,43,56
45274,note_on,30,0,10,,,,,,,,,6,,,,48,0
45300,control_change,61,0,7,,,,,,,,,10,11,47,,,
45300,note_on,30,0,1,,,,,,,,,0,,,,88,0
45300,note_on,0,0,1,,,,,,,,,0,,,,91,111
45302,note_on,0,0,8,,,,,,,,,11,,,,64,78
45302,note_on,30,0,8,,,,,,,,,11,,,,60,0
45302,control_change,61,0,9,,,,,,,,,12,11,47,,,
45304,note_on,30,0,10,,,,,,,,,6,,,,43,0
45304,note_on,0,0,10,,,,,,,,,6,,,,48,62
45317,control_change,17,0,7,,,,,,,,,10,11,45,,,
45319,control_change,17,0,9,,,,,,,,,12,11,45,,,
45330,note_on,30,0,1,,,,,,,,,0,,,,91,0
45330,note_on,0,0,1,,,,,,,,,0,,,,88,111
45332,note_on,30,0,8,,,,,,,,,11,,,,64,0
45332,note_on,0,0,8,,,,,,,,,11,,,,60,78
45334,note_on,30,0,10,,,,,,,,,6,,,,48,0
45334,note_on,0,0,10,,,,,,,,,6,,,,43,56
45335,control_change,18,0,7,,,,,,,,,10,11,43,,,
45337,control_change,18,0,9,,,,,,,,,12,11,43,,,
45353,control_change,18,0,7,,,,,,,,,10,11,41,,,
45355,control_change,18,0,9,,,,,,,,,12,11,41,,,
45355,note_on,25,0,1,,,,,,,,,0,,,,88,0
45355,note_on,2,0,7,,,,,,,,,10,,,,76,0
45357,note_on,2,0,9,,,,,,,,,12,,,,64,0
45357,note_on,25,0,8,,,,,,,,,11,,,,60,0
45359,note_on,25,0,10,,,,,,,,,6,,,,43,0
45360,note_on,0,0,4,,,,,,,,,3,,,,52,0
45360,note_on,355,0,4,,,,,,,,,3,,,,48,0
45360,set_tempo,120,1,0,,,,,,1000000,,,,,,,,
45360,note_on,5,0,1,,,,,,,,,0,,,,86,111
45362,note_on,0,0,2,,,,,,,,,1,,,,74,85
45362,control_change,1260,0,2,,,,,,,,,1,11,70,,,
45362,note_on,5,0,8,,,,,,,,,11,,,,62,78
45364,note_on,5,0,10,,,,,,,,,6,,,,47,62
45365,note_on,0,0,4,,,,,,,,,3,,,,47,95
45365,note_on,5,0,4,,,,,,,,,3,,,,50,95
45392,note_on,30,0,8,,,,,,,,,11,,,,62,0
45392,note_on,0,0,8,,,,,,,,,11,,,,59,78
45394,note_on,0,0,10,,,,,,,,,6,,,,43,56
45394,note_on,30,0,10,,,,,,,,,6,,,,47,0
45420,set_tempo,60,1,0,,,,,,937500,,,,,,,,
45422,note_on,30,0,8,,,,,,,,,11,,,,59,0
45422,note_on,0,0,8,,,,,,,,,11,,,,62,78
45424,note_on,0,0,10,,,,,,,,,6,,,,47,62
45424,note_on,30,0,10,,,,,,,,,6,,,,43,0
45452,note_on,0,0,8,,,,,,,,,11,,,,59,78
45452,note_on,30,0,8,,,,,,,,,11,,,,62,0
45454,note_on,30,0,10,,,,,,,,,6,,,,47,0
45454,note_on,0,0,10,,,,,,,,,6,,,,43,56
45480,note_on,120,0,1,,,,,,,,,0,,,,86,0
45482,note_on,0,0,8,,,,,,,,,11,,,,62,78
45482,note_on,30,0,8,,,,,,,,,11,,,,59,0
45484,note_on,30,0,10,,,,,,,,,6,,,,43,0
45484,note_on,0,0,10,,,,,,,,,6,,,,47,62
45512,note_on,30,0,8,,,,,,,,,11,,,,62,0
45512,note_on,0,0,8,,,,,,,,,11,,,,59,78
45514,note_on,30,0,10,,,,,,,,,6,,,,47,0
45514,note_on,0,0,10,,,,,,,,,6,,,,43,56
45540,set_tempo,120,1,0,,,,,,1008403,,,,,,,,
45540,control_change,185,0,7,,,,,,,,,10,11,32,,,
45540,note_on,0,0,7,,,,,,,,,10,,,,74,103
45542,note_on,0,0,8,,,,,,,,,11,,,,62,78
45542,control_change,185,0,9,,,,,,,,,12,11,32,,,
45542,note_on,0,0,9,,,,,,,,,12,,,,62,101
45542,note_on,30,0,8,,,,,,,,,11,,,,59,0
45544,note_on,30,0,10,,,,,,,,,6,,,,43,0
45544,note_on,0,0,10,,,,,,,,,6,,,,47,62
45551,control_change,11,0,7,,,,,,,,,10,11,35,,,
45553,control_change,11,0,9,,,,,,,,,12,11,35,,,
45563,control_change,12,0,7,,,,,,,,,10,11,38,,,
45565,control_change,12,0,9,,,,,,,,,12,11,38,,,
45572,note_on,30,0,8,,,,,,,,,11,,,,62,0
45572,note_on,0,0,8,,,,,,,,,11,,,,59,78
45572,note_on,0,0,2,,,,,,,,,1,,,,67,85
45572,note_on,210,0,2,,,,,,,,,1,,,,74,0
45574,note_on,0,0,10,,,,,,,,,6,,,,43,56
45574,note_on,30,0,10,,,,,,,,,6,,,,47,0
45575,control_change,12,0,7,,,,,,,,,10,11,41,,,
45577,control_change,12,0,9,,,,,,,,,12,11,41,,,
45587,control_change,12,0,7,,,,,,,,,10,11,44,,,
45589,control_change,12,0,9,,,,,,,,,12,11,44,,,
45599,control_change,12,0,7,,,,,,,,,10,11,47,,,
45600,set_tempo,60,1,0,,,,,,937500,,,,,,,,
45601,control_change,12,0,9,,,,,,,,,12,11,47,,,
45602,note_on,0,0,8,,,,,,,,,11,,,,62,78
45602,note_on,30,0,2,,,,,,,,,1,,,,67,0
45602,note_on,0,0,2,,,,,,,,,1,,,,71,85
45602,note_on,30,0,8,,,,,,,,,11,,,,59,0
45604,note_on,30,0,10,,,,,,,,,6,,,,43,0
45604,note_on,0,0,10,,,,,,,,,6,,,,47,62
45632,note_on,30,0,2,,,,,,,,,1,,,,71,0
45632,note_on,30,0,8,,,,,,,,,11,,,,62,0
45632,note_on,0,0,8,,,,,,,,,11,,,,59,78
45632,note_on,0,0,2,,,,,,,,,1,,,,74,85
45634,note_on,30,0,10,,,,,,,,,6,,,,47,0
45634,note_on,0,0,10,,,,,,,,,6,,,,43,56
45660,control_change,61,0,7,,,,,,,,,10,11,47,,,
45662,note_on,30,0,8,,,,,,,,,11,,,,59,0
45662,note_on,0,0,8,,,,,,,,,11,,,,62,78
45662,note_on,0,0,2,,,,,,,,,1,,,,79,85
45662,control_change,61,0,9,,,,,,,,,12,11,47,,,
45662,note_on,30,0,2,,,,,,,,,1,,,,74,0
45664,note_on,0,0,10,,,,,,,,,6,,,,47,62
45664,note_on,30,0,10,,,,,,,,,6,,,,43,0
45677,control_change,17,0,7,,,,,,,,,10,11,45,,,
45679,control_change,17,0,9,,,,,,,,,12,11,45,,,
45692,note_on,30,0,2,,,,,,,,,1,,,,79,0
45692,note_on,0,0,2,,,,,,,,,1,,,,74,85
45692,note_on,0,0,8,,,,,,,,,11,,,,59,78
45692,note_on,30,0,8,,,,,,,,,11,,,,62,0
45694,note_on,30,0,10,,,,,,,,,6,,,,47,0
45694,note_on,0,0,10,,,,,,,,,6,,,,43,56
45695,control_change,18,0,7,,,,,,,,,10,11,43,,,
45697,control_change,18,0,9,,,,,,,,,12,11,43,,,
45713,control_change,18,0,7,,,,,,,,,10,11,41,,,
45715,control_change,18,0,9,,,,,,,,,12,11,41,,,
45717,note_on,25,0,2,,,,,,,,,1,,,,74,0
45717,note_on,25,0,8,,,,,,,,,11,,,,59,0
45719,note_on,25,0,10,,,,,,,,,6,,,,43,0
45720,note_on,0,0,7,,,,,,,,,10,,,,67,103
45720,set_tempo,120,1,0,,,,,,1000000,,,,,,,,
45720,note_on,7,0,7,,,,,,,,,10,,,,74,0
45720,control_change,0,0,7,,,,,,,,,10,11,32,,,
45722,note_on,5,0,8,,,,,,,,,11,,,,64,78
45722,note_on,5,0,2,,,,,,,,,1,,,,76,85
45722,note_on,0,0,9,,,,,,,,,12,,,,55,101
45722,control_change,0,0,9,,,,,,,,,12,11,32,,,
45722,note_on,7,0,9,,,,,,,,,12,,,,62,0
45724,note_on,5,0,10,,,,,,,,,6,,,,48,62
45725,note_on,0,0,4,,,,,,,,,3,,,,52,95
45725,note_on,0,0,4,,,,,,,,,3,,,,48,95
45725,note_on,0,0,4,,,,,,,,,3,,,,50,0
45725,note_on,360,0,4,,,,,,,,,3,,,,47,0
45731,control_change,11,0,7,,,,,,,,,10,11,35,,,
45733,control_change,11,0,9,,,,,,,,,12,11,35,,,
45743,control_change,12,0,7,,,,,,,,,10,11,38,,,
45745,control_change,12,0,9,,,,,,,,,12,11,38,,,
45752,note_on,0,0,8,,,,,,,,,11,,,,60,78
45752,note_on,30,0,8,,,,,,,,,11,,,,64,0
45754,note_on,0,0,10,,,,,,,,,6,,,,43,56
45754,note_on,30,0,10,,,,,,,,,6,,,,48,0
45755,control_change,12,0,7,,,,,,,,,10,11,41,,,
45757,control_change,12,0,9,,,,,,,,,12,11,41,,,
45767,control_change,12,0,7,,,,,,,,,10,11,44,,,
45769,control_change,12,0,9,,,,,,,,,12,11,44,,,
45779,control_change,12,0,7,,,,,,,,,10,11,47,,,
45780,set_tempo,60,1,0,,,,,,937500,,,,,,,,
45781,control_change,12,0,9,,,,,,,,,12,11,47,,,
45782,note_on,0,0,8,,,,,,,,,11,,,,64,78
45782,note_on,30,0,8,,,,,,,,,11,,,,60,0
45784,note_on,0,0,10,,,,,,,,,6,,,,48,62
45784,note_on,30,0,10,,,,,,,,,6,,,,43,0
45812,note_on,30,0,8,,,,,,,,,11,,,,64,0
45812,note_on,0,0,8,,,,,,,,,11,,,,60,78
45814,note_on,0,0,10,,,,,,,,,6,,,,43,56
45814,note_on,30,0,10,,,,,,,,,6,,,,48,0
45840,control_change,61,0,7,,,,,,,,,10,11,47,,,
45842,note_on,0,0,8,,,,,,,,,11,,,,64,78
45842,control_change,61,0,9,,,,,,,,,12,11,47,,,
45842,note_on,30,0,8,,,,,,,,,11,,,,60,0
45844,note_on,0,0,10,,,,,,,,,6,,,,48,62
45844,note_on,30,0,10,,,,,,,,,6,,,,43,0
45857,control_change,17,0,7,,,,,,,,,10,11,45,,,
45859,control_change,17,0,9,,,,,,,,,12,11,45,,,
45872,note_on,30,0,8,,,,,,,,,11,,,,64,0
45872,note_on,0,0,8,,,,,,,,,11,,,,60,78
45874,note_on,0,0,10,,,,,,,,,6,,,,43,56
45874,note_on,30,0,10,,,,,,,,,6,,,,48,0
45875,control_change,18,0,7,,,,,,,,,10,11,43,,,
45877,control_change,18,0,9,,,,,,,,,12,11,43,,,
45893,control_change,18,0,7,,,,,,,,,10,11,41,,,
45895,control_change,18,0,9,,,,,,,,,12,11,41,,,
45900,control_change,0,0,7,,,,,,,,,10,11,32,,,
45900,note_on,7,0,7,,,,,,,,,10,,,,67,0
45900,set_tempo,120,1,0,,,,,,1000000,,,,,,,,
45900,note_on,0,0,7,,,,,,,,,10,,,,76,103
45902,note_on,0,0,8,,,,,,,,,11,,,,64,78
45902,control_change,0,0,9,,,,,,,,,12,11,32,,,
45902,note_on,0,0,9,,,,,,,,,12,,,,64,101
45902,note_on,7,0,9,,,,,,,,,12,,,,55,0
45902,note_on,30,0,8,,,,,,,,,11,,,,60,0
45904,note_on,30,0,10,,,,,,,,,6,,,,43,0
45904,note_on,0,0,10,,,,,,,,,6,,,,48,62
45911,control_change,11,0,7,,,,,,,,,10,11,35,,,
45913,control_change,11,0,9,,,,,,,,,12,11,35,,,
45923,control_change,12,0,7,,,,,,,,,10,11,38,,,
45925,control_change,12,0,9,,,,,,,,,12,11,38,,,
45932,note_on,0,0,2,,,,,,,,,1,,,,67,85
45932,note_on,30,0,8,,,,,,,,,11,,,,64,0
45932,note_on,0,0,8,,,,,,,,,11,,,,60,78
45932,note_on,210,0,2,,,,,,,,,1,,,,76,0
45934,note_on,30,0,10,,,,,,,,,6,,,,48,0
45934,note_on,0,0,10,,,,,,,,,6,,,,43,56
45935,control_change,12,0,7,,,,,,,,,10,11,41,,,
45937,control_change,12,0,9,,,,,,,,,12,11,41,,,
45947,control_change,12,0,7,,,,,,,,,10,11,44,,,
45949,control_change,12,0,9,,,,,,,,,12,11,44,,,
45959,control_change,12,0,7,,,,,,,,,10,11,47,,,
45960,set_tempo,60,1,0,,,,,,937500,,,,,,,,
45961,control_change,12,0,9,,,,,,,,,12,11,47,,,
45962,note_on,30,0,2,,,,,,,,,1,,,,67,0
45962,note_on,0,0,2,,,,,,,,,1,,,,72,85
45962,note_on,0,0,8,,,,,,,,,11,,,,64,78
45962,note_on,30,0,8,,,,,,,,,11,,,,60,0
45964,note_on,30,0,10,,,,,,,,,6,,,,43,0
45964,note_on,0,0,10,,,,,,,,,6,,,,48,62
45992,note_on,30,0,2,,,,,,,,,1,,,,72,0
45992,note_on,0,0,2,,,,,,,,,1,,,,76,85
45992,note_on,0,0,8,,,,,,,,,11,,,,60,78
45992,note_on,30,0,8,,,,,,,,,11,,,,64,0
45994,note_on,30,0,10,,,,,,,,,6,,,,48,0
45994,note_on,0,0,10,,,,,,,,,6,,,,43,56
46020,control_change,61,0,7,,,,,,,,,10,11,47,,,
46022,note_on,0,0,8,,,,,,,,,11,,,,64,78
46022,note_on,30,0,8,,,,,,,,,11,,,,60,0
46022,note_on,30,0,2,,,,,,,,,1,,,,76,0
46022,note_on,0,0,2,,,,,,,,,1,,,,79,85
46022,control_change,61,0,9,,,,,,,,,12,11,47,,,
46024,note_on,0,0,10,,,,,,,,,6,,,,48,62
46024,note_on,30,0,10,,,,,,,,,6,,,,43,0
46037,control_change,17,0,7,,,,,,,,,10,11,45,,,
46039,control_change,17,0,9,,,,,,,,,12,11,45,,,
46052,note_on,0,0,2,,,,,,,,,1,,,,76,85
46052,note_on,30,0,2,,,,,,,,,1,,,,79,0
46052,note_on,30,0,8,,,,,,,,,11,,,,64,0
46052,note_on,0,0,8,,,,,,,,,11,,,,60,78
46054,note_on,30,0,10,,,,,,,,,6,,,,48,0
46054,note_on,0,0,10,,,,,,,,,6,,,,43,56
46055,control_change,18,0,7,,,,,,,,,10,11,43,,,
46057,control_change,18,0,9,,,,,,,,,12,11,43,,,
46073,control_change,18,0,7,,,,,,,,,10,11,41,,,
46075,control_change,18,0,9,,,,,,,,,12,11,41,,,
46075,note_on,2,0,7,,,,,,,,,10,,,,76,0
46077,note_on,2,0,9,,,,,,,,,12,,,,64,0
46077,note_on,25,0,2,,,,,,,,,1,,,,76,0
46077,note_on,25,0,8,,,,,,,,,11,,,,60,0
46079,note_on,25,0,10,,,,,,,,,6,,,,43,0
46080,control_change,5,0,7,,,,,,,,,10,11,37,,,
46080,set_tempo,120,1,0,,,,,,1000000,,,,,,,,
46080,control_change,600,0,1,,,,,,,,,0,11,55,,,
46080,note_on,0,0,4,,,,,,,,,3,,,,48,0
46080,note_on,355,0,4,,,,,,,,,3,,,,52,0
46080,note_on,0,0,7,,,,,,,,,10,,,,74,103
46082,control_change,0,0,2,,,,,,,,,1,11,70,,,
46082,note_on,0,0,8,,,,,,,,,11,,,,62,103
46082,control_change,5,0,8,,,,,,,,,11,11,47,,,
46082,control_change,5,0,9,,,,,,,,,12,11,37,,,
46082,note_on,5,0,2,,,,,,,,,1,,,,74,85
46082,note_on,0,0,9,,,,,,,,,12,,,,55,101
46083,control_change,1350,0,3,,,,,,,,,2,11,47,,,
46084,note_on,5,0,10,,,,,,,,,6,,,,47,104
46085,note_on,5,0,4,,,,,,,,,3,,,,50,95
46085,control_change,0,0,4,,,,,,,,,3,11,47,,,
46085,note_on,2040,0,11,,,,,,,,,13,,,,47,43
46085,note_on,0,0,4,,,,,,,,,3,,,,47,95
46088,note_on,2040,0,12,,,,,,,,,14,,,,35,36
46102,control_change,22,0,7,,,,,,,,,10,11,39,,,
46104,control_change,22,0,9,,,,,,,,,12,11,39,,,
46110,note_on,30,0,1,,,,,,,,,0,,,,79,111
46116,control_change,6,0,1,,,,,,,,,0,11,56,,,
46118,control_change,36,0,2,,,,,,,,,1,11,70,,,
46119,control_change,36,0,3,,,,,,,,,2,11,48,,,
46121,control_change,36,0,4,,,,,,,,,3,11,48,,,
46124,control_change,22,0,7,,,,,,,,,10,11,41,,,
46126,control_change,22,0,9,,,,,,,,,12,11,41,,,
46130,control_change,48,0,8,,,,,,,,,11,11,48,,,
46140,note_on,0,0,1,,,,,,,,,0,,,,83,111
46140,note_on,24,0,1,,,,,,,,,0,,,,79,0
46140,set_tempo,60,1,0,,,,,,937500,,,,,,,,
46146,control_change,22,0,7,,,,,,,,,10,11,43,,,
46148,control_change,22,0,9,,,,,,,,,12,11,43,,,
46152,control_change,12,0,1,,,,,,,,,0,11,57,,,
46154,control_change,36,0,2,,,,,,,,,1,11,71,,,
46155,control_change,36,0,3,,,,,,,,,2,11,49,,,
46157,control_change,36,0,4,,,,,,,,,3,11,49,,,
46168,control_change,22,0,7,,,,,,,,,10,11,45,,,
46170,note_on,0,0,1,,,,,,,,,0,,,,86,111
46170,note_on,18,0,1,,,,,,,,,0,,,,83,0
46170,control_change,22,0,9,,,,,,,,,12,11,45,,,
46178,control_change,48,0,8,,,,,,,,,11,11,49,,,
46188,control_change,18,0,1,,,,,,,,,0,11,58,,,
46190,control_change,36,0,2,,,,,,,,,1,11,72,,,
46190,control_change,22,0,7,,,,,,,,,10,11,47,,,
46191,control_change,36,0,3,,,,,,,,,2,11,50,,,
46192,control_change,22,0,9,,,,,,,,,12,11,47,,,
46193,control_change,36,0,4,,,,,,,,,3,11,50,,,
46200,note_on,0,0,1,,,,,,,,,0,,,,83,111
46200,note_on,12,0,1,,,,,,,,,0,,,,86,0
46202,note_on,12,0,2,,,,,,,,,1,,,,74,0
46203,note_on,0,0,3,,,,,,,,,2,,,,67,0
46203,note_on,12,0,3,,,,,,,,,2,,,,55,0
46204,note_on,120,0,10,,,,,,,,,6,,,,47,0
46205,note_on,12,0,4,,,,,,,,,3,,,,47,0
46205,note_on,0,0,4,,,,,,,,,3,,,,50,0
46205,note_on,120,0,11,,,,,,,,,13,,,,47,0
46208,note_on,120,0,12,,,,,,,,,14,,,,35,0
46212,control_change,22,0,7,,,,,,,,,10,11,49,,,
46214,control_change,22,0,9,,,,,,,,,12,11,49,,,
46224,control_change,24,0,1,,,,,,,,,0,11,59,,,
46226,control_change,48,0,8,,,,,,,,,11,11,50,,,
46226,control_change,24,0,2,,,,,,,,,1,11,73,,,
46230,note_on,6,0,1,,,,,,,,,0,,,,83,0
46230,note_on,0,0,1,,,,,,,,,0,,,,79,111
46255,note_on,25,0,1,,,,,,,,,0,,,,79,0
46260,set_tempo,120,1,0,,,,,,1008403,,,,,,,,
46260,note_on,0,0,7,,,,,,,,,10,,,,76,103
46260,note_on,0,0,1,,,,,,,,,0,,,,85,111
46260,control_change,5,0,1,,,,,,,,,0,11,60,,,
46260,note_on,48,0,7,,,,,,,,,10,,,,74,0
46262,control_change,36,0,2,,,,,,,,,1,11,74,,,
46262,note_on,0,0,8,,,,,,,,,11,,,,64,103
46262,note_on,36,0,8,,,,,,,,,11,,,,62,0
46263,program_change,59,0,10,,,,,,,,45,6,,,,,
46264,note_on,0,0,10,,,,,,,,,6,,,,45,42
46264,control_change,1,0,10,,,,,,,,,6,11,100,,,
46265,note_on,60,0,11,,,,,,,,,13,,,,45,45
46268,note_on,60,0,12,,,,,,,,,14,,,,33,39
46272,control_change,12,0,7,,,,,,,,,10,11,51,,,
46274,control_change,12,0,8,,,,,,,,,11,11,51,,,
46274,control_change,60,0,9,,,,,,,,,12,11,51,,,
46292,note_on,30,0,2,,,,,,,,,1,,,,79,85
46296,control_change,36,0,1,,,,,,,,,0,11,61,,,
46298,control_change,6,0,2,,,,,,,,,1,11,75,,,
46320,control_change,48,0,7,,,,,,,,,10,11,52,,,
46320,set_tempo,60,1,0,,,,,,937500,,,,,,,,
46322,note_on,0,0,2,,,,,,,,,1,,,,76,85
46322,note_on,24,0,2,,,,,,,,,1,,,,79,0
46322,control_change,48,0,9,,,,,,,,,12,11,52,,,
46322,control_change,48,0,8,,,,,,,,,11,11,52,,,
46332,control_change,36,0,1,,,,,,,,,0,11,61,,,
46334,control_change,12,0,2,,,,,,,,,1,11,76,,,
46352,note_on,0,0,2,,,,,,,,,1,,,,79,85
46352,note_on,18,0,2,,,,,,,,,1,,,,76,0
46368,control_change,36,0,1,,,,,,,,,0,11,62,,,
46368,control_change,48,0,7,,,,,,,,,10,11,53,,,
46370,control_change,18,0,2,,,,,,,,,1,11,76,,,
46370,control_change,48,0,9,,,,,,,,,12,11,53,,,
46370,control_change,48,0,8,,,,,,,,,11,11,53,,,
46382,note_on,12,0,2,,,,,,,,,1,,,,79,0
46382,note_on,0,0,2,,,,,,,,,1,,,,81,85
46384,note_on,120,0,10,,,,,,,,,6,,,,45,0
46385,note_on,120,0,11,,,,,,,,,13,,,,45,0
46388,note_on,120,0,12,,,,,,,,,14,,,,33,0
46404,control_change,36,0,1,,,,,,,,,0,11,63,,,
46406,control_change,24,0,2,,,,,,,,,1,11,77,,,
46412,note_on,6,0,2,,,,,,,,,1,,,,81,0
46412,note_on,0,0,2,,,,,,,,,1,,,,79,85
46416,control_change,48,0,7,,,,,,,,,10,11,54,,,
46418,control_change,48,0,9,,,,,,,,,12,11,54,,,
46418,control_change,48,0,8,,,,,,,,,11,11,54,,,
46435,note_on,31,0,1,,,,,,,,,0,,,,85,0
46437,note_on,25,0,2,,,,,,,,,1,,,,79,0
46440,set_tempo,120,1,0,,,,,,1000000,,,,,,,,
46440,note_on,0,0,1,,,,,,,,,0,,,,84,111
46440,control_change,5,0,1,,,,,,,,,0,11,64,,,
46440,note_on,24,0,7,,,,,,,,,10,,,,76,0
46440,note_on,0,0,7,,,,,,,,,10,,,,78,103
46442,note_on,0,0,8,,,,,,,,,11,,,,66,103
46442,control_change,0,0,2,,,,,,,,,1,11,78,,,
46442,note_on,5,0,2,,,,,,,,,1,,,,78,85
46442,note_on,24,0,9,,,,,,,,,12,,,,55,0
46442,note_on,0,0,9,,,,,,,,,12,,,,57,101
46442,note_on,24,0,8,,,,,,,,,11,,,,64,0
46443,note_on,0,0,5,,,,,,,,,4,,,,62,82
46443,control_change,1805,0,5,,,,,,,,,4,11,52,,,
46444,note_on,60,0,10,,,,,,,,,6,,,,50,47
46445,control_change,1805,0,6,,,,,,,,,5,11,52,,,
46445,note_on,0,0,6,,,,,,,,,5,,,,50,82
46445,note_on,60,0,11,,,,,,,,,13,,,,50,50
46448,note_on,60,0,12,,,,,,,,,14,,,,38,43
46464,control_change,24,0,7,,,,,,,,,10,11,55,,,
46466,control_change,24,0,9,,,,,,,,,12,11,55,,,
46466,control_change,24,0,8,,,,,,,,,11,11,55,,,
46470,note_on,0,0,1,,,,,,,,,0,,,,78,111
46470,note_on,30,0,1,,,,,,,,,0,,,,84,0
46476,control_change,6,0,1,,,,,,,,,0,11,65,,,
46478,control_change,36,0,2,,,,,,,,,1,11,79,,,
46479,control_change,36,0,5,,,,,,,,,4,11,53,,,
46481,control_change,36,0,6,,,,,,,,,5,11,53,,,
46500,set_tempo,60,1,0,,,,,,937500,,,,,,,,
46500,note_on,0,0,1,,,,,,,,,0,,,,81,111
46500,note_on,24,0,1,,,,,,,,,0,,,,78,0
46512,control_change,12,0,1,,,,,,,,,0,11,65,,,
46512,control_change,48,0,7,,,,,,,,,10,11,56,,,
46514,control_change,48,0,9,,,,,,,,,12,11,56,,,
46514,control_change,48,0,8,,,,,,,,,11,11,56,,,
46514,control_change,36,0,2,,,,,,,,,1,11,80,,,
46515,control_change,36,0,5,,,,,,,,,4,11,54,,,
46517,control_change,36,0,6,,,,,,,,,5,11,54,,,
46530,note_on,18,0,1,,,,,,,,,0,,,,81,0
46530,note_on,0,0,1,,,,,,,,,0,,,,84,111
46548,control_change,18,0,1,,,,,,,,,0,11,66,,,
46550,control_change,36,0,2,,,,,,,,,1,11,80,,,
46551,control_change,36,0,5,,,,,,,,,4,11,55,,,
46553,control_change,36,0,6,,,,,,,,,5,11,55,,,
46560,note_on,12,0,1,,,,,,,,,0,,,,84,0
46560,control_change,48,0,7,,,,,,,,,10,11,57,,,
46560,note_on,0,0,1,,,,,,,,,0,,,,81,111
46562,control_change,48,0,9,,,,,,,,,12,11,57,,,
46562,control_change,48,0,8,,,,,,,,,11,11,57,,,
46564,note_on,120,0,10,,,,,,,,,6,,,,50,0
46565,note_on,120,0,11,,,,,,,,,13,,,,50,0
46568,note_on,120,0,12,,,,,,,,,14,,,,38,0
46584,control_change,24,0,1,,,,,,,,,0,11,67,,,
46586,control_change,36,0,2,,,,,,,,,1,11,81,,,
46587,control_change,36,0,5,,,,,,,,,4,11,56,,,
46589,control_change,36,0,6,,,,,,,,,5,11,56,,,
46590,note_on,6,0,1,,,,,,,,,0,,,,81,0
46590,note_on,0,0,1,,,,,,,,,0,,,,78,111
46608,control_change,48,0,7,,,,,,,,,10,11,58,,,
46610,control_change,48,0,8,,,,,,,,,11,11,58,,,
46610,control_change,48,0,9,,,,,,,,,12,11,58,,,
46615,note_on,25,0,1,,,,,,,,,0,,,,78,0
46620,control_change,5,0,1,,,,,,,,,0,11,68,,,
46620,note_on,0,0,1,,,,,,,,,0,,,,83,111
46620,set_tempo,120,1,0,,,,,,1000000,,,,,,,,
46620,note_on,0,0,7,,,,,,,,,10,,,,79,103
46620,note_on,12,0,7,,,,,,,,,10,,,,78,0
46622,note_on,12,0,8,,,,,,,,,11,,,,66,0
46622,note_on,0,0,8,,,,,,,,,11,,,,67,103
46622,control_change,0,0,2,,,,,,,,,1,11,82,,,
46622,note_on,36,0,2,,,,,,,,,1,,,,78,0
46622,note_on,0,0,9,,,,,,,,,12,,,,59,101
46622,note_on,12,0,9,,,,,,,,,12,,,,57,0
46623,control_change,36,0,5,,,,,,,,,4,11,57,,,
46624,note_on,60,0,10,,,,,,,,,6,,,,43,50
46625,control_change,36,0,6,,,,,,,,,5,11,57,,,
46625,note_on,60,0,11,,,,,,,,,13,,,,43,53
46628,note_on,60,0,12,,,,,,,,,14,,,,31,46
46652,note_on,30,0,2,,,,,,,,,1,,,,74,85
46656,control_change,36,0,7,,,,,,,,,10,11,59,,,
46656,control_change,36,0,1,,,,,,,,,0,11,69,,,
46658,control_change,6,0,2,,,,,,,,,1,11,83,,,
46658,control_change,36,0,8,,,,,,,,,11,11,59,,,
46658,control_change,36,0,9,,,,,,,,,12,11,59,,,
46659,control_change,36,0,5,,,,,,,,,4,11,58,,,
46661,control_change,36,0,6,,,,,,,,,5,11,58,,,
46680,control_change,24,0,7,,,,,,,,,10,11,57,,,
46680,set_tempo,60,1,0,,,,,,937500,,,,,,,,
46682,control_change,24,0,9,,,,,,,,,12,11,57,,,
46682,note_on,0,0,2,,,,,,,,,1,,,,71,85
46682,control_change,24,0,8,,,,,,,,,11,11,57,,,
46682,note_on,24,0,2,,,,,,,,,1,,,,74,0
46692,control_change,36,0,1,,,,,,,,,0,11,70,,,
46694,control_change,12,0,2,,,,,,,,,1,11,84,,,
46695,control_change,36,0,5,,,,,,,,,4,11,59,,,
46697,control_change,36,0,6,,,,,,,,,5,11,59,,,
46704,control_change,24,0,7,,,,,,,,,10,11,55,,,
46706,control_change,24,0,9,,,,,,,,,12,11,55,,,
46706,control_change,24,0,8,,,,,,,,,11,11,55,,,
46712,note_on,0,0,2,,,,,,,,,1,,,,74,85
46712,note_on,18,0,2,,,,,,,,,1,,,,71,0
46728,control_change,24,0,7,,,,,,,,,10,11,53,,,
46728,control_change,36,0,1,,,,,,,,,0,11,70,,,
46730,control_change,24,0,8,,,,,,,,,11,11,53,,,
46730,control_change,18,0,2,,,,,,,,,1,11,85,,,
46730,control_change,24,0,9,,,,,,,,,12,11,53,,,
46731,control_change,36,0,5,,,,,,,,,4,11,60,,,
46733,control_change,36,0,6,,,,,,,,,5,11,60,,,
46742,note_on,0,0,2,,,,,,,,,1,,,,79,85
46742,note_on,12,0,2,,,,,,,,,1,,,,74,0
46744,note_on,120,0,10,,,,,,,,,6,,,,43,0
46745,note_on,120,0,11,,,,,,,,,13,,,,43,0
46748,note_on,120,0,12,,,,,,,,,14,,,,31,0
46752,control_change,24,0,7,,,,,,,,,10,11,51,,,
46754,control_change,24,0,9,,,,,,,,,12,11,51,,,
46754,control_change,24,0,8,,,,,,,,,11,11,51,,,
46764,control_change,36,0,1,,,,,,,,,0,11,71,,,
46766,control_change,24,0,2,,,,,,,,,1,11,86,,,
46767,control_change,36,0,5,,,,,,,,,4,11,61,,,
46769,control_change,36,0,6,,,,,,,,,5,11,61,,,
46772,note_on,0,0,2,,,,,,,,,1,,,,74,85
46772,note_on,6,0,2,,,,,,,,,1,,,,79,0
46776,control_change,24,0,7,,,,,,,,,10,11,49,,,
46778,control_change,24,0,9,,,,,,,,,12,11,49,,,
46778,control_change,24,0,8,,,,,,,,,11,11,49,,,
46795,note_on,19,0,7,,,,,,,,,10,,,,79,0
46795,note_on,31,0,1,,,,,,,,,0,,,,83,0
46797,note_on,19,0,9,,,,,,,,,12,,,,59,0
46797,note_on,19,0,8,,,,,,,,,11,,,,67,0
46797,note_on,25,0,2,,,,,,,,,1,,,,74,0
46798,note_on,31,0,5,,,,,,,,,4,,,,62,0
46800,note_on,0,0,7,,,,,,,,,10,,,,69,90
46800,control_change,5,0,7,,,,,,,,,10,11,47,,,
46800,control_change,0,0,1,,,,,,,,,0,11,47,,,
46800,note_on,31,0,6,,,,,,,,,5,,,,50,0
46800,note_on,5,0,1,,,,,,,,,0,,,,81,111
46800,set_tempo,120,1,0,,,,,,1034483,,,,,,,,
46802,note_on,0,0,2,,,,,,,,,1,,,,76,85
46802,control_change,5,0,9,,,,,,,,,12,11,47,,,
46802,note_on,0,0,9,,,,,,,,,12,,,,60,88
46802,control_change,5,0,8,,,,,,,,,11,11,47,,,
46802,note_on,0,0,8,,,,,,,,,11,,,,64,90
46802,control_change,5,0,2,,,,,,,,,1,11,70,,,
46803,note_on,0,0,5,,,,,,,,,4,,,,60,82
46803,control_change,5,0,5,,,,,,,,,4,11,42,,,
46804,note_on,60,0,10,,,,,,,,,6,,,,48,39
46805,note_on,0,0,6,,,,,,,,,5,,,,60,82
46805,control_change,5,0,6,,,,,,,,,5,11,42,,,
46805,note_on,60,0,11,,,,,,,,,13,,,,48,43
46808,note_on,60,0,12,,,,,,,,,14,,,,36,36
46830,note_on,0,0,1,,,,,,,,,0,,,,80,111
46830,note_on,30,0,1,,,,,,,,,0,,,,81,0
46860,note_on,30,0,1,,,,,,,,,0,,,,80,0
46860,note_on,0,0,1,,,,,,,,,0,,,,81,111
46860,set_tempo,60,1,0,,,,,,944882,,,,,,,,
46890,note_on,30,0,1,,,,,,,,,0,,,,81,0
46890,note_on,0,0,1,,,,,,,,,0,,,,83,111
46917,note_on,115,0,2,,,,,,,,,1,,,,76,0
46920,note_on,0,0,1,,,,,,,,,0,,,,84,111
46920,note_on,30,0,1,,,,,,,,,0,,,,83,0
46920,note_on,120,0,7,,,,,,,,,10,,,,69,0
46922,note_on,5,0,2,,,,,,,,,1,,,,81,76
46922,note_on,120,0,9,,,,,,,,,12,,,,60,0
46922,note_on,120,0,8,,,,,,,,,11,,,,64,0
46923,note_on,120,0,5,,,,,,,,,4,,,,60,0
46924,note_on,120,0,10,,,,,,,,,6,,,,48,0
46925,note_on,120,0,6,,,,,,,,,5,,,,60,0
46925,note_on,120,0,11,,,,,,,,,13,,,,48,0
46928,note_on,120,0,12,,,,,,,,,14,,,,36,0
46950,note_on,0,0,1,,,,,,,,,0,,,,83,111
46950,note_on,30,0,1,,,,,,,,,0,,,,84,0
46952,note_on,0,0,2,,,,,,,,,1,,,,80,76
46952,note_on,30,0,2,,,,,,,,,1,,,,81,0
46980,note_on,0,0,1,,,,,,,,,0,,,,84,111
46980,note_on,30,0,1,,,,,,,,,0,,,,83,0
46980,set_tempo,120,1,0,,,,,,975610,,,,,,,,
46982,note_on,30,0,2,,,,,,,,,1,,,,80,0
46982,note_on,0,0,2,,,,,,,,,1,,,,81,76
47010,note_on,0,0,1,,,,,,,,,0,,,,83,111
47010,note_on,30,0,1,,,,,,,,,0,,,,84,0
47012,note_on,30,0,2,,,,,,,,,1,,,,81,0
47012,note_on,0,0,2,,,,,,,,,1,,,,80,76
47040,note_on,0,0,1,,,,,,,,,0,,,,84,111
47040,set_tempo,60,1,0,,,,,,960000,,,,,,,,
47040,note_on,30,0,1,,,,,,,,,0,,,,83,0
47042,note_on,0,0,2,,,,,,,,,1,,,,81,76
47042,note_on,30,0,2,,,,,,,,,1,,,,80,0
47070,note_on,0,0,1,,,,,,,,,0,,,,86,111
47070,note_on,30,0,1,,,,,,,,,0,,,,84,0
47072,note_on,30,0,2,,,,,,,,,1,,,,81,0
47072,note_on,0,0,2,,,,,,,,,1,,,,83,76
47100,note_on,0,0,1,,,,,,,,,0,,,,88,111
47100,note_on,30,0,1,,,,,,,,,0,,,,86,0
47102,note_on,0,0,2,,,,,,,,,1,,,,84,76
47102,note_on,30,0,2,,,,,,,,,1,,,,83,0
47130,note_on,30,0,1,,,,,,,,,0,,,,88,0
47130,note_on,0,0,1,,,,,,,,,0,,,,86,111
47132,note_on,0,0,2,,,,,,,,,1,,,,83,76
47132,note_on,30,0,2,,,,,,,,,1,,,,84,0
47155,note_on,25,0,1,,,,,,,,,0,,,,86,0
47157,note_on,25,0,2,,,,,,,,,1,,,,83,0
47160,note_on,5,0,1,,,,,,,,,0,,,,88,111
47160,set_tempo,120,1,0,,,,,,967742,,,,,,,,
47162,note_on,5,0,2,,,,,,,,,1,,,,84,76
47190,note_on,30,0,1,,,,,,,,,0,,,,88,0
47192,note_on,30,0,2,,,,,,,,,1,,,,84,0
47220,set_tempo,60,1,0,,,,,,983607,,,,,,,,
47220,note_on,30,0,1,,,,,,,,,0,,,,86,111
47222,note_on,30,0,2,,,,,,,,,1,,,,83,76
47250,note_on,30,0,1,,,,,,,,,0,,,,86,0
47252,note_on,30,0,2,,,,,,,,,1,,,,83,0
47280,note_on,30,0,1,,,,,,,,,0,,,,84,111
47280,set_tempo,60,1,0,,,,,,1008403,,,,,,,,
47282,note_on,30,0,2,,,,,,,,,1,,,,81,76
47310,note_on,30,0,1,,,,,,,,,0,,,,84,0
47312,note_on,30,0,2,,,,,,,,,1,,,,81,0
47340,note_on,30,0,1,,,,,,,,,0,,,,88,104
47340,set_tempo,60,1,0,,,,,,1071429,,,,,,,,
47342,note_on,30,0,2,,,,,,,,,1,,,,84,70
47370,note_on,30,0,1,,,,,,,,,0,,,,88,0
47372,note_on,30,0,2,,,,,,,,,1,,,,84,0
47400,note_on,30,0,1,,,,,,,,,0,,,,84,96
47400,set_tempo,60,1,0,,,,,,1188119,,,,,,,,
47400,note_on,0,0,7,,,,,,,,,10,,,,60,103
47400,control_change,480,0,7,,,,,,,,,10,11,32,,,
47402,note_on,30,0,2,,,,,,,,,1,,,,81,65
47402,note_on,0,0,8,,,,,,,,,11,,,,67,103
47402,note_on,0,0,9,,,,,,,,,12,,,,48,101
47402,note_on,0,0,8,,,,,,,,,11,,,,55,103
47402,control_change,480,0,9,,,,,,,,,12,11,32,,,
47402,control_change,480,0,8,,,,,,,,,11,11,32,,,
47404,note_on,480,0,10,,,,,,,,,6,,,,48,39
47405,note_on,480,0,11,,,,,,,,,13,,,,48,43
47408,note_on,480,0,12,,,,,,,,,14,,,,36,36
47412,control_change,12,0,7,,,,,,,,,10,11,35,,,
47414,control_change,12,0,9,,,,,,,,,12,11,35,,,
47414,control_change,12,0,8,,,,,,,,,11,11,35,,,
47424,control_change,12,0,7,,,,,,,,,10,11,38,,,
47426,control_change,12,0,9,,,,,,,,,12,11,38,,,
47426,control_change,12,0,8,,,,,,,,,11,11,38,,,
47430,note_on,30,0,1,,,,,,,,,0,,,,84,0
47432,note_on,30,0,2,,,,,,,,,1,,,,81,0
47436,control_change,12,0,7,,,,,,,,,10,11,41,,,
47438,control_change,12,0,8,,,,,,,,,11,11,41,,,
47438,control_change,12,0,9,,,,,,,,,12,11,41,,,
47455,note_on,19,0,7,,,,,,,,,10,,,,60,0
47457,note_on,0,0,8,,,,,,,,,11,,,,55,0
47457,note_on,19,0,9,,,,,,,,,12,,,,48,0
47457,note_on,19,0,8,,,,,,,,,11,,,,67,0
47459,note_on,55,0,10,,,,,,,,,6,,,,48,0
47460,note_on,30,0,1,,,,,,,,,0,,,,83,88
47460,note_on,55,0,11,,,,,,,,,13,,,,48,0
47460,set_tempo,60,1,0,,,,,,1318681,,,,,,,,
47460,note_on,5,0,7,,,,,,,,,10,,,,61,103
47462,note_on,5,0,9,,,,,,,,,12,,,,49,101
47462,note_on,0,0,8,,,,,,,,,11,,,,67,103
47462,note_on,30,0,2,,,,,,,,,1,,,,79,59
47462,note_on,5,0,8,,,,,,,,,11,,,,55,103
47463,note_on,55,0,12,,,,,,,,,14,,,,36,0
47464,note_on,5,0,10,,,,,,,,,6,,,,49,39
47465,note_on,5,0,11,,,,,,,,,13,,,,49,43
47468,note_on,5,0,12,,,,,,,,,14,,,,37,36
47490,note_on,30,0,1,,,,,,,,,0,,,,83,0
47492,note_on,30,0,2,,,,,,,,,1,,,,79,0
47515,note_on,55,0,7,,,,,,,,,10,,,,61,0
47517,note_on,0,0,8,,,,,,,,,11,,,,55,0
47517,note_on,55,0,9,,,,,,,,,12,,,,49,0
47517,note_on,55,0,8,,,,,,,,,11,,,,67,0
47519,note_on,55,0,10,,,,,,,,,6,,,,49,0
47520,set_tempo,60,1,0,,,,,,2142857,,,,,,,,
47520,note_on,30,0,1,,,,,,,,,0,,,,83,111
47520,note_on,55,0,11,,,,,,,,,13,,,,49,0
47520,note_on,5,0,7,,,,,,,,,10,,,,62,93
47522,note_on,5,0,8,,,,,,,,,11,,,,67,93
47522,note_on,5,0,9,,,,,,,,,12,,,,50,91
47522,note_on,0,0,8,,,,,,,,,11,,,,55,93
47523,note_on,55,0,12,,,,,,,,,14,,,,37,0
47524,note_on,5,0,10,,,,,,,,,6,,,,50,35
47525,note_on,5,0,11,,,,,,,,,13,,,,50,39
47528,note_on,5,0,12,,,,,,,,,14,,,,38,32
47530,note_on,10,0,1,,,,,,,,,0,,,,83,0
47530,set_tempo,10,1,0,,,,,,1714286,,,,,,,,
47530,note_on,0,0,1,,,,,,,,,0,,,,81,111
47540,note_on,0,0,1,,,,,,,,,0,,,,83,111
47540,note_on,10,0,1,,,,,,,,,0,,,,81,0
47540,set_tempo,10,1,0,,,,,,1395349,,,,,,,,
47550,note_on,0,0,1,,,,,,,,,0,,,,81,111
47550,set_tempo,10,1,0,,,,,,1200000,,,,,,,,
47550,note_on,10,0,1,,,,,,,,,0,,,,83,0
47560,note_on,10,0,1,,,,,,,,,0,,,,81,0
47560,set_tempo,10,1,0,,,,,,1081081,,,,,,,,
47560,note_on,0,0,1,,,,,,,,,0,,,,83,111
47570,note_on,10,0,1,,,,,,,,,0,,,,83,0
47570,note_on,0,0,1,,,,,,,,,0,,,,81,111
47570,set_tempo,10,1,0,,,,,,1016949,,,,,,,,
47580,note_on,10,0,1,,,,,,,,,0,,,,81,0
47580,note_on,0,0,1,,,,,,,,,0,,,,83,111
47580,control_change,60,0,7,,,,,,,,,10,11,42,,,
47580,set_tempo,10,1,0,,,,,,937500,,,,,,,,
47582,control_change,60,0,9,,,,,,,,,12,11,42,,,
47582,control_change,60,0,8,,,,,,,,,11,11,42,,,
47590,note_on,0,0,1,,,,,,,,,0,,,,81,111
47590,note_on,10,0,1,,,,,,,,,0,,,,83,0
47597,control_change,17,0,7,,,,,,,,,10,11,39,,,
47599,control_change,17,0,8,,,,,,,,,11,11,39,,,
47599,control_change,17,0,9,,,,,,,,,12,11,39,,,
47600,note_on,0,0,1,,,,,,,,,0,,,,83,111
47600,note_on,10,0,1,,,,,,,,,0,,,,81,0
47610,note_on,10,0,1,,,,,,,,,0,,,,83,0
47610,note_on,0,0,1,,,,,,,,,0,,,,81,111
47615,control_change,18,0,7,,,,,,,,,10,11,36,,,
47617,control_change,18,0,8,,,,,,,,,11,11,36,,,
47617,control_change,18,0,9,,,,,,,,,12,11,36,,,
47620,note_on,0,0,1,,,,,,,,,0,,,,83,111
47620,note_on,10,0,1,,,,,,,,,0,,,,81,0
47630,note_on,10,0,1,,,,,,,,,0,,,,83,0
47630,note_on,0,0,1,,,,,,,,,0,,,,81,111
47633,control_change,18,0,7,,,,,,,,,10,11,33,,,
47635,control_change,18,0,9,,,,,,,,,12,11,33,,,
47635,control_change,18,0,8,,,,,,,,,11,11,33,,,
47640,note_on,7,0,7,,,,,,,,,10,,,,62,0
47640,note_on,10,0,1,,,,,,,,,0,,,,81,0
47640,note_on,0,0,1,,,,,,,,,0,,,,83,111
47642,note_on,0,0,8,,,,,,,,,11,,,,67,0
47642,note_on,7,0,8,,,,,,,,,11,,,,55,0
47642,note_on,7,0,9,,,,,,,,,12,,,,50,0
47644,note_on,120,0,10,,,,,,,,,6,,,,50,0
47645,note_on,120,0,11,,,,,,,,,13,,,,50,0
47648,note_on,120,0,12,,,,,,,,,14,,,,38,0
47650,note_on,10,0,1,,,,,,,,,0,,,,83,0
47650,note_on,0,0,1,,,,,,,,,0,,,,81,111
47660,note_on,10,0,1,,,,,,,,,0,,,,81,0
47660,note_on,0,0,1,,,,,,,,,0,,,,83,111
47670,note_on,10,0,1,,,,,,,,,0,,,,83,0
47670,note_on,0,0,1,,,,,,,,,0,,,,81,111
47680,note_on,10,0,1,,,,,,,,,0,,,,81,0
47680,note_on,0,0,1,,,,,,,,,0,,,,83,111
47690,note_on,10,0,1,,,,,,,,,0,,,,83,0
47690,note_on,0,0,1,,,,,,,,,0,,,,81,111
47700,note_on,10,0,1,,,,,,,,,0,,,,81,0
47700,note_on,0,0,1,,,,,,,,,0,,,,83,111
47700,set_tempo,120,1,0,,,,,,1034483,,,,,,,,
47710,note_on,10,0,1,,,,,,,,,0,,,,83,0
47710,note_on,0,0,1,,,,,,,,,0,,,,81,111
47720,note_on,10,0,1,,,,,,,,,0,,,,81,0
47720,note_on,0,0,1,,,,,,,,,0,,,,83,111
47730,note_on,10,0,1,,,,,,,,,0,,,,83,0
47730,note_on,0,0,1,,,,,,,,,0,,,,81,111
47740,note_on,10,0,1,,,,,,,,,0,,,,81,0
47740,note_on,0,0,1,,,,,,,,,0,,,,83,111
47750,note_on,10,0,1,,,,,,,,,0,,,,83,0
47750,note_on,0,0,1,,,,,,,,,0,,,,81,111
47760,note_on,0,0,1,,,,,,,,,0,,,,83,111
47760,note_on,10,0,1,,,,,,,,,0,,,,81,0
47760,set_tempo,60,1,0,,,,,,937500,,,,,,,,
47770,note_on,0,0,1,,,,,,,,,0,,,,81,111
47770,note_on,10,0,1,,,,,,,,,0,,,,83,0
47780,note_on,10,0,1,,,,,,,,,0,,,,81,0
47780,note_on,0,0,1,,,,,,,,,0,,,,83,111
47790,note_on,10,0,1,,,,,,,,,0,,,,83,0
47790,note_on,0,0,1,,,,,,,,,0,,,,81,111
47800,note_on,10,0,1,,,,,,,,,0,,,,81,0
47800,note_on,0,0,1,,,,,,,,,0,,,,83,111
47810,note_on,10,0,1,,,,,,,,,0,,,,83,0
47810,note_on,0,0,1,,,,,,,,,0,,,,81,111
47820,note_on,0,0,1,,,,,,,,,0,,,,83,111
47820,note_on,10,0,1,,,,,,,,,0,,,,81,0
47822,control_change,180,0,9,,,,,,,,,12,11,32,,,
47822,note_on,0,0,9,,,,,,,,,12,,,,55,101
47823,program_change,179,0,10,,,,,,,,42,6,,,,,
47824,note_on,0,0,10,,,,,,,,,6,,,,55,104
47824,control_change,1,0,10,,,,,,,,,6,11,32,,,
47830,note_on,0,0,1,,,,,,,,,0,,,,81,111
47830,note_on,10,0,1,,,,,,,,,0,,,,83,0
47838,control_change,16,0,9,,,,,,,,,12,11,35,,,
47840,control_change,16,0,10,,,,,,,,,6,11,35,,,
47840,note_on,0,0,1,,,,,,,,,0,,,,83,111
47840,note_on,10,0,1,,,,,,,,,0,,,,81,0
47850,note_on,0,0,1,,,,,,,,,0,,,,81,111
47850,note_on,10,0,1,,,,,,,,,0,,,,83,0
47854,control_change,16,0,9,,,,,,,,,12,11,38,,,
47856,control_change,16,0,10,,,,,,,,,6,11,38,,,
47860,note_on,0,0,1,,,,,,,,,0,,,,83,111
47860,note_on,10,0,1,,,,,,,,,0,,,,81,0
47870,note_on,0,0,1,,,,,,,,,0,,,,81,111
47870,note_on,10,0,1,,,,,,,,,0,,,,83,0
47871,control_change,17,0,9,,,,,,,,,12,11,41,,,
47873,control_change,17,0,10,,,,,,,,,6,11,41,,,
47877,note_on,6,0,9,,,,,,,,,12,,,,55,0
47879,note_on,6,0,10,,,,,,,,,6,,,,55,0
47880,set_tempo,120,1,0,,,,,,1034483,,,,,,,,
47880,note_on,10,0,1,,,,,,,,,0,,,,81,0
47880,note_on,0,0,1,,,,,,,,,0,,,,83,111
47880,control_change,0,0,1,,,,,,,,,0,11,47,,,
47882,control_change,390,0,2,,,,,,,,,1,11,70,,,
47882,note_on,5,0,9,,,,,,,,,12,,,,55,101
47882,note_on,0,0,8,,,,,,,,,11,,,,60,103
47882,note_on,0,0,8,,,,,,,,,11,,,,62,103
47882,control_change,240,0,8,,,,,,,,,11,11,37,,,
47882,note_on,0,0,2,,,,,,,,,1,,,,74,71
47884,program_change,239,0,11,,,,,,,,48,13,,,,,
47884,note_on,5,0,10,,,,,,,,,6,,,,55,104
47885,control_change,1,0,11,,,,,,,,,13,11,37,,,
47885,note_on,0,0,11,,,,,,,,,13,,,,50,100
47887,program_change,239,0,12,,,,,,,,48,14,,,,,
47888,control_change,1,0,12,,,,,,,,,14,11,37,,,
47888,note_on,0,0,12,,,,,,,,,14,,,,38,96
47890,note_on,10,0,1,,,,,,,,,0,,,,83,0
47890,note_on,0,0,1,,,,,,,,,0,,,,81,111
47892,note_on,0,0,2,,,,,,,,,1,,,,72,72
47892,note_on,10,0,2,,,,,,,,,1,,,,74,0
47897,note_on,0,0,9,,,,,,,,,12,,,,54,101
47897,note_on,15,0,9,,,,,,,,,12,,,,55,0
47898,control_change,1,0,9,,,,,,,,,12,11,45,,,
47899,note_on,15,0,10,,,,,,,,,6,,,,55,0
47899,note_on,0,0,10,,,,,,,,,6,,,,54,104
47900,control_change,1,0,10,,,,,,,,,6,11,45,,,
47900,note_on,10,0,1,,,,,,,,,0,,,,81,0
47900,note_on,0,0,1,,,,,,,,,0,,,,83,111
47902,note_on,0,0,2,,,,,,,,,1,,,,74,73
47902,note_on,10,0,2,,,,,,,,,1,,,,72,0
47903,control_change,21,0,8,,,,,,,,,11,11,39,,,
47906,control_change,21,0,11,,,,,,,,,13,11,39,,,
47907,control_change,7,0,1,,,,,,,,,0,11,48,,,
47909,control_change,7,0,2,,,,,,,,,1,11,70,,,
47909,control_change,21,0,12,,,,,,,,,14,11,39,,,
47910,note_on,0,0,1,,,,,,,,,0,,,,81,111
47910,note_on,3,0,1,,,,,,,,,0,,,,83,0
47912,note_on,0,0,2,,,,,,,,,1,,,,72,74
47912,note_on,3,0,2,,,,,,,,,1,,,,74,0
47920,note_on,10,0,1,,,,,,,,,0,,,,81,0
47920,note_on,0,0,1,,,,,,,,,0,,,,83,111
47922,note_on,0,0,2,,,,,,,,,1,,,,74,76
47922,note_on,10,0,2,,,,,,,,,1,,,,72,0
47923,control_change,25,0,9,,,,,,,,,12,11,46,,,
47925,control_change,25,0,10,,,,,,,,,6,11,46,,,
47925,control_change,22,0,8,,,,,,,,,11,11,41,,,
47928,control_change,22,0,11,,,,,,,,,13,11,41,,,
47930,note_on,10,0,1,,,,,,,,,0,,,,83,0
47930,note_on,0,0,1,,,,,,,,,0,,,,81,111
47931,control_change,22,0,12,,,,,,,,,14,11,41,,,
47932,note_on,10,0,2,,,,,,,,,1,,,,74,0
47932,note_on,0,0,2,,,,,,,,,1,,,,72,76
47934,control_change,4,0,1,,,,,,,,,0,11,49,,,
47936,control_change,4,0,2,,,,,,,,,1,11,71,,,
47940,note_on,0,0,1,,,,,,,,,0,,,,83,111
47940,note_on,6,0,1,,,,,,,,,0,,,,81,0
47940,set_tempo,60,1,0,,,,,,937500,,,,,,,,
47942,note_on,0,0,2,,,,,,,,,1,,,,74,77
47942,note_on,19,0,9,,,,,,,,,12,,,,54,0
47942,note_on,0,0,9,,,,,,,,,12,,,,52,101
47942,note_on,6,0,2,,,,,,,,,1,,,,72,0
47944,note_on,0,0,10,,,,,,,,,6,,,,52,104
47944,note_on,19,0,10,,,,,,,,,6,,,,54,0
47947,control_change,22,0,8,,,,,,,,,11,11,43,,,
47948,control_change,6,0,9,,,,,,,,,12,11,47,,,
47950,control_change,6,0,10,,,,,,,,,6,11,47,,,
47950,control_change,22,0,11,,,,,,,,,13,11,43,,,
47950,note_on,10,0,1,,,,,,,,,0,,,,83,0
47950,note_on,0,0,1,,,,,,,,,0,,,,81,111
47952,note_on,0,0,2,,,,,,,,,1,,,,72,78
47952,note_on,10,0,2,,,,,,,,,1,,,,74,0
47953,control_change,22,0,12,,,,,,,,,14,11,43,,,
47960,note_on,0,0,1,,,,,,,,,0,,,,83,111
47960,note_on,10,0,1,,,,,,,,,0,,,,81,0
47961,control_change,1,0,1,,,,,,,,,0,11,50,,,
47962,note_on,0,0,2,,,,,,,,,1,,,,74,80
47962,note_on,10,0,2,,,,,,,,,1,,,,72,0
47963,control_change,1,0,2,,,,,,,,,1,11,72,,,
47969,control_change,22,0,8,,,,,,,,,11,11,45,,,
47970,note_on,0,0,1,,,,,,,,,0,,,,81,111
47970,note_on,9,0,1,,,,,,,,,0,,,,83,0
47972,note_on,0,0,2,,,,,,,,,1,,,,72,81
47972,control_change,22,0,11,,,,,,,,,13,11,45,,,
47972,note_on,9,0,2,,,,,,,,,1,,,,74,0
47974,control_change,26,0,9,,,,,,,,,12,11,48,,,
47975,control_change,22,0,12,,,,,,,,,14,11,45,,,
47976,control_change,26,0,10,,,,,,,,,6,11,48,,,
47980,note_on,10,0,1,,,,,,,,,0,,,,81,0
47980,note_on,0,0,1,,,,,,,,,0,,,,83,111
47982,note_on,10,0,2,,,,,,,,,1,,,,72,0
47982,note_on,0,0,2,,,,,,,,,1,,,,74,82
47988,control_change,8,0,1,,,,,,,,,0,11,51,,,
47990,note_on,0,0,1,,,,,,,,,0,,,,81,111
47990,control_change,8,0,2,,,,,,,,,1,11,73,,,
47990,note_on,2,0,1,,,,,,,,,0,,,,83,0
47991,control_change,22,0,8,,,,,,,,,11,11,47,,,
47992,note_on,0,0,2,,,,,,,,,1,,,,72,83
47992,note_on,2,0,2,,,,,,,,,1,,,,74,0
47994,control_change,22,0,11,,,,,,,,,13,11,47,,,
47997,control_change,22,0,12,,,,,,,,,14,11,47,,,
47999,control_change,25,0,9,,,,,,,,,12,11,49,,,
48000,note_on,10,0,1,,,,,,,,,0,,,,81,0
48000,note_on,0,0,1,,,,,,,,,0,,,,83,111
48001,control_change,25,0,10,,,,,,,,,6,11,49,,,
48002,note_on,0,0,2,,,,,,,,,1,,,,74,85
48002,note_on,10,0,2,,,,,,,,,1,,,,72,0
48002,note_on,0,0,9,,,,,,,,,12,,,,50,101
48002,note_on,3,0,9,,,,,,,,,12,,,,52,0
48004,note_on,3,0,10,,,,,,,,,6,,,,52,0
48004,note_on,0,0,10,,,,,,,,,6,,,,50,104
48010,note_on,10,0,1,,,,,,,,,0,,,,83,0
48010,note_on,0,0,1,,,,,,,,,0,,,,81,111
48012,note_on,0,0,2,,,,,,,,,1,,,,72,85
48012,note_on,10,0,2,,,,,,,,,1,,,,74,0
48013,control_change,22,0,8,,,,,,,,,11,11,49,,,
48015,control_change,5,0,1,,,,,,,,,0,11,52,,,
48016,control_change,22,0,11,,,,,,,,,13,11,49,,,
48017,control_change,5,0,2,,,,,,,,,1,11,74,,,
48019,control_change,22,0,12,,,,,,,,,14,11,49,,,
48020,note_on,0,0,1,,,,,,,,,0,,,,83,111
48020,note_on,5,0,1,,,,,,,,,0,,,,81,0
48022,note_on,5,0,2,,,,,,,,,1,,,,72,0
48022,note_on,0,0,2,,,,,,,,,1,,,,74,85
48024,control_change,22,0,9,,,,,,,,,12,11,50,,,
48026,control_change,22,0,10,,,,,,,,,6,11,50,,,
48030,note_on,0,0,1,,,,,,,,,0,,,,81,111
48030,note_on,10,0,1,,,,,,,,,0,,,,83,0
48032,note_on,0,0,2,,,,,,,,,1,,,,72,85
48032,note_on,10,0,2,,,,,,,,,1,,,,74,0
48040,note_on,10,0,1,,,,,,,,,0,,,,81,0
48040,note_on,0,0,1,,,,,,,,,0,,,,83,111
48042,note_on,10,0,2,,,,,,,,,1,,,,72,0
48042,note_on,0,0,2,,,,,,,,,1,,,,74,85
48042,control_change,2,0,1,,,,,,,,,0,11,52,,,
48044,control_change,2,0,2,,,,,,,,,1,11,75,,,
48050,note_on,8,0,1,,,,,,,,,0,,,,83,0
48050,control_change,37,0,8,,,,,,,,,11,11,51,,,
48050,note_on,0,0,1,,,,,,,,,0,,,,81,111
48050,control_change,26,0,9,,,,,,,,,12,11,51,,,
48052,control_change,26,0,10,,,,,,,,,6,11,51,,,
48052,note_on,0,0,2,,,,,,,,,1,,,,72,85
48052,note_on,8,0,2,,,,,,,,,1,,,,74,0
48053,control_change,37,0,11,,,,,,,,,13,11,51,,,
48056,control_change,37,0,12,,,,,,,,,14,11,51,,,
48057,note_on,7,0,9,,,,,,,,,12,,,,50,0
48059,note_on,7,0,10,,,,,,,,,6,,,,50,0
48060,note_on,10,0,1,,,,,,,,,0,,,,81,0
48060,note_on,0,0,1,,,,,,,,,0,,,,83,111
48060,set_tempo,120,1,0,,,,,,1034483,,,,,,,,
48062,note_on,10,0,2,,,,,,,,,1,,,,72,0
48062,note_on,0,0,2,,,,,,,,,1,,,,74,85
48062,note_on,5,0,9,,,,,,,,,12,,,,50,101
48064,note_on,5,0,10,,,,,,,,,6,,,,50,104
48069,control_change,9,0,1,,,,,,,,,0,11,53,,,
48070,note_on,0,0,1,,,,,,,,,0,,,,81,111
48070,note_on,1,0,1,,,,,,,,,0,,,,83,0
48071,control_change,9,0,2,,,,,,,,,1,11,76,,,
48072,note_on,0,0,2,,,,,,,,,1,,,,72,85
48072,note_on,1,0,2,,,,,,,,,1,,,,74,0
48075,control_change,13,0,9,,,,,,,,,12,11,52,,,
48075,control_change,25,0,8,,,,,,,,,11,11,52,,,
48077,control_change,13,0,10,,,,,,,,,6,11,52,,,
48078,control_change,25,0,11,,,,,,,,,13,11,52,,,
48080,note_on,10,0,1,,,,,,,,,0,,,,81,0
48080,note_on,0,0,1,,,,,,,,,0,,,,83,111
48081,control_change,25,0,12,,,,,,,,,14,11,52,,,
48082,note_on,0,0,2,,,,,,,,,1,,,,74,85
48082,note_on,10,0,2,,,,,,,,,1,,,,72,0
48090,note_on,10,0,1,,,,,,,,,0,,,,83,0
48090,note_on,0,0,1,,,,,,,,,0,,,,81,111
48092,note_on,10,0,2,,,,,,,,,1,,,,74,0
48092,note_on,0,0,2,,,,,,,,,1,,,,72,85
48096,control_change,6,0,1,,,,,,,,,0,11,54,,,
48098,control_change,6,0,2,,,,,,,,,1,11,76,,,
48100,control_change,25,0,8,,,,,,,,,11,11,53,,,
48100,note_on,0,0,1,,,,,,,,,0,,,,83,111
48100,note_on,4,0,1,,,,,,,,,0,,,,81,0
48100,control_change,25,0,9,,,,,,,,,12,11,53,,,
48102,note_on,0,0,2,,,,,,,,,1,,,,74,85
48102,control_change,25,0,10,,,,,,,,,6,11,53,,,
48102,note_on,4,0,2,,,,,,,,,1,,,,72,0
48103,control_change,25,0,11,,,,,,,,,13,11,53,,,
48106,control_change,25,0,12,,,,,,,,,14,11,53,,,
48110,note_on,0,0,1,,,,,,,,,0,,,,81,111
48110,note_on,10,0,1,,,,,,,,,0,,,,83,0
48112,note_on,0,0,2,,,,,,,,,1,,,,72,85
48112,note_on,10,0,2,,,,,,,,,1,,,,74,0
48120,note_on,0,0,1,,,,,,,,,0,,,,83,111
48120,set_tempo,60,1,0,,,,,,937500,,,,,,,,
48120,note_on,10,0,1,,,,,,,,,0,,,,81,0
48122,note_on,22,0,9,,,,,,,,,12,,,,50,0
48122,note_on,0,0,9,,,,,,,,,12,,,,52,101
48122,note_on,10,0,2,,,,,,,,,1,,,,72,0
48122,note_on,0,0,2,,,,,,,,,1,,,,74,85
48123,control_change,3,0,1,,,,,,,,,0,11,55,,,
48124,note_on,22,0,10,,,,,,,,,6,,,,50,0
48124,note_on,0,0,10,,,,,,,,,6,,,,52,104
48125,control_change,3,0,2,,,,,,,,,1,11,77,,,
48126,control_change,26,0,8,,,,,,,,,11,11,54,,,
48126,control_change,4,0,9,,,,,,,,,12,11,54,,,
48128,control_change,4,0,10,,,,,,,,,6,11,54,,,
48129,control_change,26,0,11,,,,,,,,,13,11,54,,,
48130,note_on,7,0,1,,,,,,,,,0,,,,83,0
48130,note_on,0,0,1,,,,,,,,,0,,,,81,111
48132,note_on,7,0,2,,,,,,,,,1,,,,74,0
48132,control_change,26,0,12,,,,,,,,,14,11,54,,,
48132,note_on,0,0,2,,,,,,,,,1,,,,72,85
48140,note_on,0,0,1,,,,,,,,,0,,,,83,111
48140,note_on,10,0,1,,,,,,,,,0,,,,81,0
48142,note_on,0,0,2,,,,,,,,,1,,,,74,85
48142,note_on,10,0,2,,,,,,,,,1,,,,72,0
48150,note_on,0,0,1,,,,,,,,,0,,,,81,111
48150,control_change,0,0,1,,,,,,,,,0,11,55,,,
48150,note_on,10,0,1,,,,,,,,,0,,,,83,0
48151,control_change,25,0,8,,,,,,,,,11,11,55,,,
48151,control_change,25,0,9,,,,,,,,,12,11,55,,,
48152,control_change,0,0,2,,,,,,,,,1,11,78,,,
48152,note_on,10,0,2,,,,,,,,,1,,,,74,0
48152,note_on,0,0,2,,,,,,,,,1,,,,72,85
48153,control_change,25,0,10,,,,,,,,,6,11,55,,,
48154,control_change,25,0,11,,,,,,,,,13,11,55,,,
48157,control_change,25,0,12,,,,,,,,,14,11,55,,,
48160,note_on,10,0,1,,,,,,,,,0,,,,81,0
48160,note_on,0,0,1,,,,,,,,,0,,,,83,111
48162,note_on,0,0,2,,,,,,,,,1,,,,74,85
48162,note_on,10,0,2,,,,,,,,,1,,,,72,0
48170,note_on,10,0,1,,,,,,,,,0,,,,83,0
48170,note_on,0,0,1,,,,,,,,,0,,,,81,111
48172,note_on,0,0,2,,,,,,,,,1,,,,72,85
48172,note_on,10,0,2,,,,,,,,,1,,,,74,0
48176,control_change,25,0,9,,,,,,,,,12,11,56,,,
48176,control_change,25,0,8,,,,,,,,,11,11,56,,,
48177,control_change,7,0,1,,,,,,,,,0,11,56,,,
48178,control_change,25,0,10,,,,,,,,,6,11,56,,,
48179,control_change,7,0,2,,,,,,,,,1,11,79,,,
48179,control_change,25,0,11,,,,,,,,,13,11,56,,,
48180,note_on,0,0,1,,,,,,,,,0,,,,83,111
48180,note_on,3,0,1,,,,,,,,,0,,,,81,0
48182,note_on,0,0,2,,,,,,,,,1,,,,74,85
48182,note_on,0,0,9,,,,,,,,,12,,,,54,101
48182,note_on,3,0,2,,,,,,,,,1,,,,72,0
48182,control_change,25,0,12,,,,,,,,,14,11,56,,,
48182,note_on,6,0,9,,,,,,,,,12,,,,52,0
48184,note_on,0,0,10,,,,,,,,,6,,,,54,104
48184,note_on,6,0,10,,,,,,,,,6,,,,52,0
48190,note_on,10,0,1,,,,,,,,,0,,,,83,0
48190,note_on,0,0,1,,,,,,,,,0,,,,81,111
48192,note_on,0,0,2,,,,,,,,,1,,,,72,85
48192,note_on,10,0,2,,,,,,,,,1,,,,74,0
48200,note_on,0,0,1,,,,,,,,,0,,,,83,111
48200,note_on,10,0,1,,,,,,,,,0,,,,81,0
48202,note_on,0,0,2,,,,,,,,,1,,,,74,85
48202,control_change,20,0,9,,,,,,,,,12,11,57,,,
48202,note_on,10,0,2,,,,,,,,,1,,,,72,0
48202,control_change,26,0,8,,,,,,,,,11,11,57,,,
48204,control_change,4,0,1,,,,,,,,,0,11,57,,,
48204,control_change,20,0,10,,,,,,,,,6,11,57,,,
48205,control_change,26,0,11,,,,,,,,,13,11,57,,,
48206,control_change,4,0,2,,,,,,,,,1,11,80,,,
48208,control_change,26,0,12,,,,,,,,,14,11,57,,,
48210,note_on,6,0,1,,,,,,,,,0,,,,83,0
48210,note_on,0,0,1,,,,,,,,,0,,,,81,111
48212,note_on,0,0,2,,,,,,,,,1,,,,72,85
48212,note_on,6,0,2,,,,,,,,,1,,,,74,0
48220,note_on,10,0,1,,,,,,,,,0,,,,81,0
48220,note_on,0,0,1,,,,,,,,,0,,,,83,111
48222,note_on,0,0,2,,,,,,,,,1,,,,74,85
48222,note_on,10,0,2,,,,,,,,,1,,,,72,0
48227,control_change,25,0,8,,,,,,,,,11,11,58,,,
48227,control_change,25,0,9,,,,,,,,,12,11,58,,,
48229,control_change,25,0,10,,,,,,,,,6,11,58,,,
48230,control_change,25,0,11,,,,,,,,,13,11,58,,,
48230,note_on,0,0,1,,,,,,,,,0,,,,81,111
48230,note_on,10,0,1,,,,,,,,,0,,,,83,0
48231,control_change,1,0,1,,,,,,,,,0,11,58,,,
48232,note_on,10,0,2,,,,,,,,,1,,,,74,0
48232,note_on,0,0,2,,,,,,,,,1,,,,72,85
48233,control_change,1,0,2,,,,,,,,,1,11,80,,,
48233,control_change,25,0,12,,,,,,,,,14,11,58,,,
48237,note_on,10,0,8,,,,,,,,,11,,,,60,0
48237,note_on,0,0,8,,,,,,,,,11,,,,62,0
48237,note_on,10,0,9,,,,,,,,,12,,,,54,0
48239,note_on,10,0,10,,,,,,,,,6,,,,54,0
48240,note_on,10,0,11,,,,,,,,,13,,,,50,0
48240,note_on,9,0,1,,,,,,,,,0,,,,81,0
48240,set_tempo,120,1,0,,,,,,1034483,,,,,,,,
48240,note_on,0,0,1,,,,,,,,,0,,,,79,111
48242,note_on,0,0,8,,,,,,,,,11,,,,62,103
48242,note_on,5,0,8,,,,,,,,,11,,,,59,103
48242,note_on,9,0,2,,,,,,,,,1,,,,72,0
48242,note_on,0,0,2,,,,,,,,,1,,,,71,85
48242,note_on,5,0,9,,,,,,,,,12,,,,55,101
48243,note_on,10,0,12,,,,,,,,,14,,,,38,0
48244,note_on,5,0,10,,,,,,,,,6,,,,55,104
48245,note_on,5,0,11,,,,,,,,,13,,,,55,100
48248,note_on,5,0,12,,,,,,,,,14,,,,43,96
48252,control_change,10,0,8,,,,,,,,,11,11,59,,,
48252,control_change,10,0,9,,,,,,,,,12,11,59,,,
48254,control_change,10,0,10,,,,,,,,,6,11,59,,,
48255,control_change,10,0,11,,,,,,,,,13,11,59,,,
48258,control_change,10,0,12,,,,,,,,,14,11,59,,,
48258,control_change,18,0,1,,,,,,,,,0,11,59,,,
48260,control_change,18,0,2,,,,,,,,,1,11,81,,,
48278,control_change,26,0,8,,,,,,,,,11,11,60,,,
48278,control_change,26,0,9,,,,,,,,,12,11,60,,,
48280,control_change,26,0,10,,,,,,,,,6,11,60,,,
48281,control_change,26,0,11,,,,,,,,,13,11,60,,,
48284,control_change,26,0,12,,,,,,,,,14,11,60,,,
48285,control_change,27,0,1,,,,,,,,,0,11,60,,,
48287,control_change,27,0,2,,,,,,,,,1,11,82,,,
48300,set_tempo,60,1,0,,,,,,937500,,,,,,,,
48303,control_change,25,0,8,,,,,,,,,11,11,61,,,
48303,control_change,25,0,9,,,,,,,,,12,11,61,,,
48305,control_change,25,0,10,,,,,,,,,6,11,61,,,
48306,control_change,25,0,11,,,,,,,,,13,11,61,,,
48309,control_change,25,0,12,,,,,,,,,14,11,61,,,
48312,control_change,27,0,1,,,,,,,,,0,11,61,,,
48314,control_change,27,0,2,,,,,,,,,1,11,83,,,
48328,control_change,25,0,8,,,,,,,,,11,11,62,,,
48328,control_change,25,0,9,,,,,,,,,12,11,62,,,
48330,control_change,25,0,10,,,,,,,,,6,11,62,,,
48331,control_change,25,0,11,,,,,,,,,13,11,62,,,
48334,control_change,25,0,12,,,,,,,,,14,11,62,,,
48339,control_change,27,0,1,,,,,,,,,0,11,61,,,
48341,control_change,27,0,2,,,,,,,,,1,11,84,,,
48354,control_change,26,0,8,,,,,,,,,11,11,63,,,
48354,control_change,26,0,9,,,,,,,,,12,11,63,,,
48356,control_change,26,0,10,,,,,,,,,6,11,63,,,
48357,control_change,26,0,11,,,,,,,,,13,11,63,,,
48360,note_on,21,0,1,,,,,,,,,0,,,,79,0
48360,control_change,26,0,12,,,,,,,,,14,11,63,,,
48362,note_on,21,0,2,,,,,,,,,1,,,,71,0
48379,control_change,25,0,9,,,,,,,,,12,11,64,,,
48379,control_change,25,0,8,,,,,,,,,11,11,64,,,
48381,control_change,25,0,10,,,,,,,,,6,11,64,,,
48382,control_change,25,0,11,,,,,,,,,13,11,64,,,
48385,control_change,25,0,12,,,,,,,,,14,11,64,,,
48404,control_change,25,0,9,,,,,,,,,12,11,65,,,
48404,control_change,25,0,8,,,,,,,,,11,11,65,,,
48406,control_change,25,0,10,,,,,,,,,6,11,65,,,
48407,control_change,25,0,11,,,,,,,,,13,11,65,,,
48410,control_change,25,0,12,,,,,,,,,14,11,65,,,
48420,set_tempo,120,1,0,,,,,,1034483,,,,,,,,
48430,control_change,26,0,8,,,,,,,,,11,11,66,,,
48430,control_change,26,0,9,,,,,,,,,12,11,66,,,
48432,control_change,26,0,10,,,,,,,,,6,11,66,,,
48433,control_change,26,0,11,,,,,,,,,13,11,66,,,
48436,control_change,26,0,12,,,,,,,,,14,11,66,,,
48455,control_change,25,0,8,,,,,,,,,11,11,67,,,
48455,control_change,25,0,9,,,,,,,,,12,11,67,,,
48457,control_change,25,0,10,,,,,,,,,6,11,67,,,
48458,control_change,25,0,11,,,,,,,,,13,11,67,,,
48461,control_change,25,0,12,,,,,,,,,14,11,67,,,
48480,set_tempo,60,1,0,,,,,,937500,,,,,,,,
48480,control_change,25,0,9,,,,,,,,,12,11,68,,,
48480,control_change,25,0,8,,,,,,,,,11,11,68,,,
48482,control_change,25,0,10,,,,,,,,,6,11,68,,,
48482,note_on,2,0,9,,,,,,,,,12,,,,55,0
48482,note_on,0,0,9,,,,,,,,,12,,,,57,101
48483,control_change,25,0,11,,,,,,,,,13,11,68,,,
48484,note_on,2,0,10,,,,,,,,,6,,,,55,0
48484,note_on,0,0,10,,,,,,,,,6,,,,57,104
48486,control_change,25,0,12,,,,,,,,,14,11,68,,,
48506,control_change,26,0,8,,,,,,,,,11,11,69,,,
48506,control_change,24,0,9,,,,,,,,,12,11,69,,,
48508,control_change,24,0,10,,,,,,,,,6,11,69,,,
48509,control_change,26,0,11,,,,,,,,,13,11,69,,,
48512,control_change,26,0,12,,,,,,,,,14,11,69,,,
48531,control_change,25,0,9,,,,,,,,,12,11,70,,,
48531,control_change,25,0,8,,,,,,,,,11,11,70,,,
48533,control_change,25,0,10,,,,,,,,,6,11,70,,,
48534,control_change,25,0,11,,,,,,,,,13,11,70,,,
48537,control_change,25,0,12,,,,,,,,,14,11,70,,,
48540,control_change,900,0,7,,,,,,,,,10,11,70,,,
48540,note_on,0,0,7,,,,,,,,,10,,,,67,103
48542,note_on,0,0,9,,,,,,,,,12,,,,59,101
48542,note_on,11,0,9,,,,,,,,,12,,,,57,0
48544,note_on,0,0,10,,,,,,,,,6,,,,59,104
48544,note_on,11,0,10,,,,,,,,,6,,,,57,0
48556,control_change,14,0,9,,,,,,,,,12,11,71,,,
48556,control_change,25,0,8,,,,,,,,,11,11,71,,,
48558,control_change,14,0,10,,,,,,,,,6,11,71,,,
48559,control_change,25,0,11,,,,,,,,,13,11,71,,,
48562,control_change,25,0,12,,,,,,,,,14,11,71,,,
48580,control_change,40,0,7,,,,,,,,,10,11,72,,,
48582,control_change,26,0,9,,,,,,,,,12,11,72,,,
48582,control_change,26,0,8,,,,,,,,,11,11,72,,,
48584,control_change,26,0,10,,,,,,,,,6,11,72,,,
48585,control_change,26,0,11,,,,,,,,,13,11,72,,,
48588,control_change,26,0,12,,,,,,,,,14,11,72,,,
48595,note_on,15,0,7,,,,,,,,,10,,,,67,0
48597,note_on,0,0,8,,,,,,,,,11,,,,59,0
48597,note_on,15,0,8,,,,,,,,,11,,,,62,0
48597,note_on,15,0,9,,,,,,,,,12,,,,59,0
48599,note_on,15,0,10,,,,,,,,,6,,,,59,0
48600,note_on,5,0,7,,,,,,,,,10,,,,67,103
48600,note_on,15,0,11,,,,,,,,,13,,,,55,0
48600,set_tempo,120,1,0,,,,,,1034483,,,,,,,,
48602,note_on,0,0,8,,,,,,,,,11,,,,60,103
48602,note_on,5,0,9,,,,,,,,,12,,,,62,101
48602,note_on,5,0,8,,,,,,,,,11,,,,62,103
48603,note_on,15,0,12,,,,,,,,,14,,,,43,0
48603,control_change,1680,0,5,,,,,,,,,4,11,68,,,
48603,note_on,0,0,5,,,,,,,,,4,,,,62,82
48604,note_on,5,0,10,,,,,,,,,6,,,,62,104
48605,control_change,1680,0,6,,,,,,,,,5,11,68,,,
48605,note_on,0,0,6,,,,,,,,,5,,,,50,82
48605,control_change,5,0,7,,,,,,,,,10,11,73,,,
48605,note_on,5,0,11,,,,,,,,,13,,,,50,100
48607,control_change,5,0,8,,,,,,,,,11,11,73,,,
48607,control_change,5,0,9,,,,,,,,,12,11,73,,,
48608,note_on,5,0,12,,,,,,,,,14,,,,38,96
48609,control_change,5,0,10,,,,,,,,,6,11,73,,,
48610,control_change,5,0,11,,,,,,,,,13,11,73,,,
48613,control_change,5,0,12,,,,,,,,,14,11,73,,,
48615,note_on,10,0,7,,,,,,,,,10,,,,67,0
48615,note_on,0,0,7,,,,,,,,,10,,,,66,103
48617,note_on,10,0,9,,,,,,,,,12,,,,62,0
48617,note_on,0,0,9,,,,,,,,,12,,,,60,101
48619,note_on,10,0,10,,,,,,,,,6,,,,62,0
48619,note_on,0,0,10,,,,,,,,,6,,,,60,104
48630,control_change,15,0,7,,,,,,,,,10,11,74,,,
48632,control_change,25,0,8,,,,,,,,,11,11,74,,,
48632,control_change,15,0,9,,,,,,,,,12,11,74,,,
48634,control_change,15,0,10,,,,,,,,,6,11,74,,,
48635,control_change,25,0,11,,,,,,,,,13,11,74,,,
48638,control_change,25,0,12,,,,,,,,,14,11,74,,,
48639,control_change,36,0,5,,,,,,,,,4,11,70,,,
48641,control_change,36,0,6,,,,,,,,,5,11,70,,,
48656,control_change,26,0,7,,,,,,,,,10,11,75,,,
48658,control_change,26,0,8,,,,,,,,,11,11,75,,,
48658,control_change,26,0,9,,,,,,,,,12,11,75,,,
48660,set_tempo,60,1,0,,,,,,937500,,,,,,,,
48660,control_change,26,0,10,,,,,,,,,6,11,75,,,
48660,note_on,4,0,7,,,,,,,,,10,,,,66,0
48660,note_on,0,0,7,,,,,,,,,10,,,,64,103
48661,control_change,26,0,11,,,,,,,,,13,11,75,,,
48664,control_change,26,0,12,,,,,,,,,14,11,75,,,
48666,control_change,27,0,5,,,,,,,,,4,11,71,,,
48668,control_change,27,0,6,,,,,,,,,5,11,71,,,
48681,control_change,21,0,7,,,,,,,,,10,11,76,,,
48683,control_change,25,0,9,,,,,,,,,12,11,76,,,
48683,control_change,25,0,8,,,,,,,,,11,11,76,,,
48685,control_change,25,0,10,,,,,,,,,6,11,76,,,
48686,control_change,25,0,11,,,,,,,,,13,11,76,,,
48689,control_change,25,0,12,,,,,,,,,14,11,76,,,
48693,control_change,27,0,5,,,,,,,,,4,11,72,,,
48695,control_change,27,0,6,,,,,,,,,5,11,72,,,
48706,control_change,25,0,7,,,,,,,,,10,11,77,,,
48708,control_change,25,0,9,,,,,,,,,12,11,77,,,
48708,control_change,25,0,8,,,,,,,,,11,11,77,,,
48710,control_change,25,0,10,,,,,,,,,6,11,77,,,
48711,control_change,25,0,11,,,,,,,,,13,11,77,,,
48714,control_change,25,0,12,,,,,,,,,14,11,77,,,
48720,note_on,0,0,7,,,,,,,,,10,,,,62,103
48720,control_change,27,0,5,,,,,,,,,4,11,73,,,
48720,note_on,14,0,7,,,,,,,,,10,,,,64,0
48722,control_change,27,0,6,,,,,,,,,5,11,73,,,
48722,note_on,14,0,9,,,,,,,,,12,,,,60,0
48722,note_on,0,0,9,,,,,,,,,12,,,,59,101
48724,note_on,14,0,10,,,,,,,,,6,,,,60,0
48724,note_on,0,0,10,,,,,,,,,6,,,,59,104
48732,control_change,12,0,7,,,,,,,,,10,11,78,,,
48734,control_change,26,0,8,,,,,,,,,11,11,78,,,
48734,control_change,12,0,9,,,,,,,,,12,11,78,,,
48736,control_change,12,0,10,,,,,,,,,6,11,78,,,
48737,control_change,26,0,11,,,,,,,,,13,11,78,,,
48740,control_change,26,0,12,,,,,,,,,14,11,78,,,
48747,control_change,27,0,5,,,,,,,,,4,11,74,,,
48749,control_change,27,0,6,,,,,,,,,5,11,74,,,
48757,control_change,25,0,7,,,,,,,,,10,11,79,,,
48759,control_change,25,0,9,,,,,,,,,12,11,79,,,
48759,control_change,25,0,8,,,,,,,,,11,11,79,,,
48761,control_change,25,0,10,,,,,,,,,6,11,79,,,
48762,control_change,25,0,11,,,,,,,,,13,11,79,,,
48765,control_change,25,0,12,,,,,,,,,14,11,79,,,
48774,control_change,27,0,5,,,,,,,,,4,11,75,,,
48775,note_on,18,0,7,,,,,,,,,10,,,,62,0
48776,control_change,27,0,6,,,,,,,,,5,11,75,,,
48780,note_on,5,0,7,,,,,,,,,10,,,,62,103
48780,set_tempo,120,1,0,,,,,,1034483,,,,,,,,
48782,note_on,23,0,9,,,,,,,,,12,,,,59,0
48782,control_change,2,0,7,,,,,,,,,10,11,80,,,
48782,note_on,0,0,9,,,,,,,,,12,,,,57,101
48784,control_change,25,0,8,,,,,,,,,11,11,80,,,
48784,control_change,2,0,9,,,,,,,,,12,11,80,,,
48784,note_on,0,0,10,,,,,,,,,6,,,,57,104
48784,note_on,23,0,10,,,,,,,,,6,,,,59,0
48786,control_change,2,0,10,,,,,,,,,6,11,80,,,
48787,control_change,25,0,11,,,,,,,,,13,11,80,,,
48790,control_change,25,0,12,,,,,,,,,14,11,80,,,
48801,control_change,27,0,5,,,,,,,,,4,11,76,,,
48803,control_change,27,0,6,,,,,,,,,5,11,76,,,
48808,control_change,26,0,7,,,,,,,,,10,11,81,,,
48810,control_change,26,0,8,,,,,,,,,11,11,81,,,
48810,control_change,26,0,9,,,,,,,,,12,11,81,,,
48812,control_change,26,0,10,,,,,,,,,6,11,81,,,
48813,control_change,26,0,11,,,,,,,,,13,11,81,,,
48816,control_change,26,0,12,,,,,,,,,14,11,81,,,
48828,control_change,27,0,5,,,,,,,,,4,11,77,,,
48830,control_change,27,0,6,,,,,,,,,5,11,77,,,
48833,control_change,25,0,7,,,,,,,,,10,11,82,,,
48835,control_change,25,0,8,,,,,,,,,11,11,82,,,
48835,control_change,25,0,9,,,,,,,,,12,11,82,,,
48837,control_change,25,0,10,,,,,,,,,6,11,82,,,
48838,control_change,25,0,11,,,,,,,,,13,11,82,,,
48840,note_on,0,0,7,,,,,,,,,10,,,,64,103
48840,set_tempo,60,1,0,,,,,,937500,,,,,,,,
48840,note_on,7,0,7,,,,,,,,,10,,,,62,0
48841,control_change,25,0,12,,,,,,,,,14,11,82,,,
48855,control_change,27,0,5,,,,,,,,,4,11,78,,,
48857,control_change,27,0,6,,,,,,,,,5,11,78,,,
48858,control_change,18,0,7,,,,,,,,,10,11,83,,,
48860,control_change,25,0,8,,,,,,,,,11,11,83,,,
48860,control_change,25,0,9,,,,,,,,,12,11,83,,,
48862,control_change,25,0,10,,,,,,,,,6,11,83,,,
48863,control_change,25,0,11,,,,,,,,,13,11,83,,,
48866,control_change,25,0,12,,,,,,,,,14,11,83,,,
48882,control_change,27,0,5,,,,,,,,,4,11,79,,,
48884,control_change,26,0,7,,,,,,,,,10,11,84,,,
48884,control_change,27,0,6,,,,,,,,,5,11,79,,,
48886,control_change,26,0,8,,,,,,,,,11,11,84,,,
48886,control_change,26,0,9,,,,,,,,,12,11,84,,,
48888,control_change,26,0,10,,,,,,,,,6,11,84,,,
48889,control_change,26,0,11,,,,,,,,,13,11,84,,,
48892,control_change,26,0,12,,,,,,,,,14,11,84,,,
48897,note_on,0,0,8,,,,,,,,,11,,,,62,0
48897,note_on,11,0,8,,,,,,,,,11,,,,60,0
48900,note_on,16,0,7,,,,,,,,,10,,,,64,0
48900,note_on,0,0,7,,,,,,,,,10,,,,66,103
48902,note_on,0,0,9,,,,,,,,,12,,,,62,101
48902,note_on,16,0,9,,,,,,,,,12,,,,57,0
48902,note_on,5,0,8,,,,,,,,,11,,,,74,103
48904,note_on,16,0,10,,,,,,,,,6,,,,57,0
48904,note_on,0,0,10,,,,,,,,,6,,,,62,104
48909,control_change,9,0,7,,,,,,,,,10,11,85,,,
48909,control_change,27,0,5,,,,,,,,,4,11,80,,,
48911,control_change,9,0,9,,,,,,,,,12,11,85,,,
48911,control_change,27,0,6,,,,,,,,,5,11,80,,,
48911,control_change,9,0,8,,,,,,,,,11,11,85,,,
48913,control_change,9,0,10,,,,,,,,,6,11,85,,,
48914,control_change,25,0,11,,,,,,,,,13,11,85,,,
48917,control_change,25,0,12,,,,,,,,,14,11,85,,,
48934,control_change,25,0,7,,,,,,,,,10,11,86,,,
48936,control_change,27,0,5,,,,,,,,,4,11,81,,,
48936,control_change,25,0,8,,,,,,,,,11,11,86,,,
48936,control_change,25,0,9,,,,,,,,,12,11,86,,,
48938,control_change,27,0,6,,,,,,,,,5,11,81,,,
48938,control_change,25,0,10,,,,,,,,,6,11,86,,,
48939,control_change,25,0,11,,,,,,,,,13,11,86,,,
48942,control_change,25,0,12,,,,,,,,,14,11,86,,,
48957,note_on,21,0,8,,,,,,,,,11,,,,74,0
48957,note_on,21,0,9,,,,,,,,,12,,,,62,0
48958,note_on,22,0,5,,,,,,,,,4,,,,62,0
48959,note_on,21,0,10,,,,,,,,,6,,,,62,0
48960,set_tempo,120,1,0,,,,,,1034483,,,,,,,,
48960,note_on,22,0,6,,,,,,,,,5,,,,50,0
48960,note_on,26,0,7,,,,,,,,,10,,,,66,0
48960,note_on,0,0,7,,,,,,,,,10,,,,67,103
48960,control_change,0,0,7,,,,,,,,,10,11,87,,,
48960,note_on,21,0,11,,,,,,,,,13,,,,50,0
48962,control_change,5,0,9,,,,,,,,,12,11,87,,,
48962,note_on,0,0,9,,,,,,,,,12,,,,58,101
48962,note_on,0,0,8,,,,,,,,,11,,,,75,103
48962,control_change,5,0,8,,,,,,,,,11,11,87,,,
48963,control_change,2760,0,3,,,,,,,,,2,11,80,,,
48963,note_on,0,0,5,,,,,,,,,4,,,,58,82
48963,control_change,5,0,5,,,,,,,,,4,11,82,,,
48963,note_on,21,0,12,,,,,,,,,14,,,,38,0
48964,note_on,0,0,10,,,,,,,,,6,,,,58,104
48964,control_change,5,0,10,,,,,,,,,6,11,87,,,
48965,note_on,0,0,6,,,,,,,,,5,,,,46,82
48965,note_on,0,0,11,,,,,,,,,13,,,,55,100
48965,control_change,5,0,6,,,,,,,,,5,11,82,,,
48965,control_change,5,0,11,,,,,,,,,13,11,87,,,
48968,control_change,5,0,12,,,,,,,,,14,11,87,,,
48968,note_on,0,0,12,,,,,,,,,14,,,,43,96
48977,note_on,15,0,8,,,,,,,,,11,,,,75,0
48977,note_on,0,0,8,,,,,,,,,11,,,,74,103
49020,set_tempo,60,1,0,,,,,,937500,,,,,,,,
49022,note_on,45,0,8,,,,,,,,,11,,,,74,0
49022,note_on,0,0,8,,,,,,,,,11,,,,72,103
49082,note_on,0,0,8,,,,,,,,,11,,,,70,103
49082,note_on,60,0,8,,,,,,,,,11,,,,72,0
49135,note_on,175,0,7,,,,,,,,,10,,,,67,0
49137,note_on,55,0,8,,,,,,,,,11,,,,70,0
49140,set_tempo,120,1,0,,,,,,1034483,,,,,,,,
49140,note_on,0,0,7,,,,,,,,,10,,,,79,103
49140,control_change,5,0,7,,,,,,,,,10,11,57,,,
49142,note_on,5,0,8,,,,,,,,,11,,,,72,103
49142,note_on,0,0,9,,,,,,,,,12,,,,55,101
49142,note_on,180,0,9,,,,,,,,,12,,,,58,0
49143,note_on,0,0,3,,,,,,,,,2,,,,75,96
49143,note_on,180,0,3,,,,,,,,,2,,,,67,96
49144,note_on,180,0,10,,,,,,,,,6,,,,58,0
49144,note_on,0,0,10,,,,,,,,,6,,,,55,104
49145,control_change,0,0,4,,,,,,,,,3,11,80,,,
49145,note_on,2940,0,4,,,,,,,,,3,,,,63,95
49146,control_change,6,0,7,,,,,,,,,10,11,60,,,
49152,control_change,6,0,7,,,,,,,,,10,11,63,,,
49157,note_on,0,0,8,,,,,,,,,11,,,,70,103
49157,note_on,15,0,8,,,,,,,,,11,,,,72,0
49158,control_change,6,0,7,,,,,,,,,10,11,66,,,
49164,control_change,6,0,7,,,,,,,,,10,11,69,,,
49170,control_change,6,0,7,,,,,,,,,10,11,72,,,
49176,control_change,6,0,7,,,,,,,,,10,11,75,,,
49182,control_change,6,0,7,,,,,,,,,10,11,78,,,
49188,control_change,6,0,7,,,,,,,,,10,11,81,,,
49194,control_change,6,0,7,,,,,,,,,10,11,84,,,
49200,control_change,6,0,7,,,,,,,,,10,11,87,,,
49200,set_tempo,60,1,0,,,,,,937500,,,,,,,,
49202,note_on,45,0,8,,,,,,,,,11,,,,70,0
49202,note_on,0,0,8,,,,,,,,,11,,,,69,103
49260,note_on,0,0,1,,,,,,,,,0,,,,87,116
49260,control_change,900,0,1,,,,,,,,,0,11,97,,,
49262,note_on,60,0,8,,,,,,,,,11,,,,69,0
49262,note_on,0,0,8,,,,,,,,,11,,,,67,103
49315,note_on,115,0,7,,,,,,,,,10,,,,79,0
49315,note_on,55,0,1,,,,,,,,,0,,,,87,0
49317,note_on,55,0,8,,,,,,,,,11,,,,67,0
49318,note_on,355,0,5,,,,,,,,,4,,,,58,0
49320,note_on,355,0,6,,,,,,,,,5,,,,46,0
49320,set_tempo,120,1,0,,,,,,1034483,,,,,,,,
49320,control_change,5,0,7,,,,,,,,,10,11,87,,,
49320,note_on,355,0,11,,,,,,,,,13,,,,55,0
49320,control_change,5,0,1,,,,,,,,,0,11,97,,,
49320,note_on,0,0,1,,,,,,,,,0,,,,87,116
49320,note_on,0,0,7,,,,,,,,,10,,,,80,103
49322,note_on,180,0,9,,,,,,,,,12,,,,55,0
49322,control_change,960,0,2,,,,,,,,,1,11,103,,,
49322,note_on,5,0,8,,,,,,,,,11,,,,68,103
49322,note_on,0,0,2,,,,,,,,,1,,,,82,95
49322,note_on,0,0,2,,,,,,,,,1,,,,70,95
49322,note_on,0,0,9,,,,,,,,,12,,,,53,101
49323,note_on,180,0,3,,,,,,,,,2,,,,75,0
49323,control_change,5,0,5,,,,,,,,,4,11,82,,,
49323,note_on,0,0,3,,,,,,,,,2,,,,74,96
49323,note_on,0,0,3,,,,,,,,,2,,,,62,96
49323,control_change,0,0,3,,,,,,,,,2,11,80,,,
49323,note_on,355,0,12,,,,,,,,,14,,,,43,0
49323,note_on,0,0,3,,,,,,,,,2,,,,67,0
49323,note_on,0,0,5,,,,,,,,,4,,,,58,82
49324,note_on,0,0,10,,,,,,,,,6,,,,53,104
49324,note_on,180,0,10,,,,,,,,,6,,,,55,0
49325,note_on,5,0,11,,,,,,,,,13,,,,53,100
49325,note_on,0,0,6,,,,,,,,,5,,,,46,82
49325,control_change,0,0,4,,,,,,,,,3,11,80,,,
49325,note_on,0,0,4,,,,,,,,,3,,,,62,95
49325,note_on,180,0,4,,,,,,,,,3,,,,63,0
49325,control_change,5,0,6,,,,,,,,,5,11,82,,,
49328,note_on,5,0,12,,,,,,,,,14,,,,41,96
49335,note_on,0,0,1,,,,,,,,,0,,,,86,116
49335,note_on,15,0,1,,,,,,,,,0,,,,87,0
49336,control_change,16,0,7,,,,,,,,,10,11,85,,,
49338,control_change,3,0,1,,,,,,,,,0,11,96,,,
49340,control_change,18,0,2,,,,,,,,,1,11,101,,,
49341,control_change,18,0,3,,,,,,,,,2,11,79,,,
49341,control_change,18,0,5,,,,,,,,,4,11,80,,,
49343,control_change,18,0,6,,,,,,,,,5,11,80,,,
49343,control_change,18,0,4,,,,,,,,,3,11,79,,,
49352,control_change,16,0,7,,,,,,,,,10,11,83,,,
49356,control_change,18,0,1,,,,,,,,,0,11,94,,,
49358,control_change,18,0,2,,,,,,,,,1,11,99,,,
49359,control_change,18,0,5,,,,,,,,,4,11,78,,,
49359,control_change,18,0,3,,,,,,,,,2,11,77,,,
49361,control_change,18,0,4,,,,,,,,,3,11,77,,,
49361,control_change,18,0,6,,,,,,,,,5,11,78,,,
49368,control_change,16,0,7,,,,,,,,,10,11,81,,,
49374,control_change,18,0,1,,,,,,,,,0,11,92,,,
49376,control_change,18,0,2,,,,,,,,,1,11,98,,,
49377,control_change,18,0,3,,,,,,,,,2,11,76,,,
49377,control_change,18,0,5,,,,,,,,,4,11,76,,,
49379,control_change,18,0,6,,,,,,,,,5,11,76,,,
49379,control_change,18,0,4,,,,,,,,,3,11,76,,,
49380,set_tempo,60,1,0,,,,,,937500,,,,,,,,
49380,note_on,6,0,1,,,,,,,,,0,,,,86,0
49380,note_on,0,0,1,,,,,,,,,0,,,,84,116
49384,control_change,16,0,7,,,,,,,,,10,11,79,,,
49392,control_change,12,0,1,,,,,,,,,0,11,90,,,
49394,control_change,18,0,2,,,,,,,,,1,11,96,,,
49395,control_change,18,0,5,,,,,,,,,4,11,74,,,
49395,control_change,18,0,3,,,,,,,,,2,11,74,,,
49397,control_change,18,0,4,,,,,,,,,3,11,74,,,
49397,control_change,18,0,6,,,,,,,,,5,11,74,,,
49400,control_change,16,0,7,,,,,,,,,10,11,77,,,
49410,control_change,18,0,1,,,,,,,,,0,11,89,,,
49412,control_change,18,0,2,,,,,,,,,1,11,95,,,
49413,control_change,18,0,3,,,,,,,,,2,11,72,,,
49413,control_change,18,0,5,,,,,,,,,4,11,72,,,
49415,control_change,18,0,4,,,,,,,,,3,11,72,,,
49415,control_change,18,0,6,,,,,,,,,5,11,72,,,
49416,control_change,16,0,7,,,,,,,,,10,11,75,,,
49428,control_change,18,0,1,,,,,,,,,0,11,87,,,
49430,control_change,18,0,2,,,,,,,,,1,11,93,,,
49431,control_change,18,0,5,,,,,,,,,4,11,70,,,
49431,control_change,18,0,3,,,,,,,,,2,11,70,,,
49432,control_change,16,0,7,,,,,,,,,10,11,73,,,
49433,control_change,18,0,4,,,,,,,,,3,11,70,,,
49433,control_change,18,0,6,,,,,,,,,5,11,70,,,
49440,note_on,0,0,1,,,,,,,,,0,,,,82,116
49440,note_on,12,0,1,,,,,,,,,0,,,,84,0
49446,control_change,6,0,1,,,,,,,,,0,11,86,,,
49448,control_change,18,0,2,,,,,,,,,1,11,91,,,
49448,control_change,16,0,7,,,,,,,,,10,11,71,,,
49449,control_change,18,0,5,,,,,,,,,4,11,68,,,
49449,control_change,18,0,3,,,,,,,,,2,11,69,,,
49451,control_change,18,0,6,,,,,,,,,5,11,68,,,
49451,control_change,18,0,4,,,,,,,,,3,11,69,,,
49464,control_change,16,0,7,,,,,,,,,10,11,69,,,
49464,control_change,18,0,1,,,,,,,,,0,11,84,,,
49466,control_change,18,0,2,,,,,,,,,1,11,89,,,
49467,control_change,18,0,5,,,,,,,,,4,11,66,,,
49467,control_change,18,0,3,,,,,,,,,2,11,67,,,
49469,control_change,18,0,6,,,,,,,,,5,11,66,,,
49469,control_change,18,0,4,,,,,,,,,3,11,67,,,
49480,control_change,16,0,7,,,,,,,,,10,11,67,,,
49482,control_change,18,0,1,,,,,,,,,0,11,82,,,
49484,control_change,18,0,2,,,,,,,,,1,11,88,,,
49485,control_change,18,0,5,,,,,,,,,4,11,64,,,
49485,control_change,18,0,3,,,,,,,,,2,11,65,,,
49487,control_change,18,0,4,,,,,,,,,3,11,65,,,
49487,control_change,18,0,6,,,,,,,,,5,11,64,,,
49495,note_on,13,0,1,,,,,,,,,0,,,,82,0
49496,control_change,16,0,7,,,,,,,,,10,11,65,,,
49500,control_change,5,0,1,,,,,,,,,0,11,80,,,
49500,note_on,175,0,11,,,,,,,,,13,,,,53,0
49500,set_tempo,120,1,0,,,,,,1034483,,,,,,,,
49500,note_on,0,0,1,,,,,,,,,0,,,,82,116
49502,note_on,180,0,9,,,,,,,,,12,,,,53,0
49502,control_change,18,0,2,,,,,,,,,1,11,86,,,
49502,note_on,0,0,9,,,,,,,,,12,,,,58,101
49502,control_change,0,0,9,,,,,,,,,12,11,87,,,
49502,note_on,0,0,8,,,,,,,,,11,,,,58,103
49502,control_change,180,0,8,,,,,,,,,11,11,87,,,
49503,note_on,175,0,12,,,,,,,,,14,,,,41,0
49503,note_on,0,0,3,,,,,,,,,2,,,,74,0
49503,note_on,0,0,3,,,,,,,,,2,,,,80,96
49503,control_change,18,0,5,,,,,,,,,4,11,62,,,
49503,note_on,0,0,3,,,,,,,,,2,,,,68,96
49503,control_change,0,0,3,,,,,,,,,2,11,64,,,
49503,note_on,18,0,3,,,,,,,,,2,,,,62,0
49504,control_change,0,0,10,,,,,,,,,6,11,87,,,
49504,note_on,180,0,10,,,,,,,,,6,,,,53,0
49504,note_on,0,0,10,,,,,,,,,6,,,,46,104
49505,note_on,0,0,11,,,,,,,,,13,,,,46,100
49505,note_on,0,0,4,,,,,,,,,3,,,,65,95
49505,note_on,18,0,4,,,,,,,,,3,,,,62,0
49505,control_change,5,0,11,,,,,,,,,13,11,87,,,
49505,control_change,18,0,6,,,,,,,,,5,11,62,,,
49505,control_change,0,0,4,,,,,,,,,3,11,64,,,
49508,control_change,5,0,12,,,,,,,,,14,11,87,,,
49508,note_on,0,0,12,,,,,,,,,14,,,,34,96
49512,control_change,16,0,7,,,,,,,,,10,11,63,,,
49514,control_change,12,0,9,,,,,,,,,12,11,84,,,
49514,control_change,12,0,8,,,,,,,,,11,11,84,,,
49516,control_change,12,0,10,,,,,,,,,6,11,84,,,
49517,control_change,12,0,11,,,,,,,,,13,11,84,,,
49518,control_change,18,0,1,,,,,,,,,0,11,79,,,
49520,control_change,18,0,2,,,,,,,,,1,11,85,,,
49520,control_change,12,0,12,,,,,,,,,14,11,84,,,
49521,control_change,18,0,5,,,,,,,,,4,11,60,,,
49521,control_change,18,0,3,,,,,,,,,2,11,62,,,
49523,control_change,18,0,4,,,,,,,,,3,11,62,,,
49523,control_change,18,0,6,,,,,,,,,5,11,60,,,
49526,control_change,12,0,8,,,,,,,,,11,11,81,,,
49526,control_change,12,0,9,,,,,,,,,12,11,81,,,
49528,control_change,12,0,10,,,,,,,,,6,11,81,,,
49528,control_change,16,0,7,,,,,,,,,10,11,61,,,
49529,control_change,12,0,11,,,,,,,,,13,11,81,,,
49530,note_on,0,0,7,,,,,,,,,10,,,,77,103
49530,note_on,2,0,7,,,,,,,,,10,,,,80,0
49532,control_change,12,0,12,,,,,,,,,14,11,81,,,
49536,control_change,18,0,1,,,,,,,,,0,11,77,,,
49538,control_change,12,0,8,,,,,,,,,11,11,78,,,
49538,control_change,18,0,2,,,,,,,,,1,11,83,,,
49538,control_change,12,0,9,,,,,,,,,12,11,78,,,
49539,control_change,18,0,5,,,,,,,,,4,11,58,,,
49539,control_change,18,0,3,,,,,,,,,2,11,61,,,
49540,control_change,12,0,10,,,,,,,,,6,11,78,,,
49541,control_change,12,0,11,,,,,,,,,13,11,78,,,
49541,control_change,18,0,6,,,,,,,,,5,11,58,,,
49541,control_change,18,0,4,,,,,,,,,3,11,61,,,
49544,control_change,12,0,12,,,,,,,,,14,11,78,,,
49544,control_change,14,0,7,,,,,,,,,10,11,59,,,
49550,control_change,12,0,9,,,,,,,,,12,11,75,,,
49550,control_change,12,0,8,,,,,,,,,11,11,75,,,
49552,control_change,12,0,10,,,,,,,,,6,11,75,,,
49553,control_change,12,0,11,,,,,,,,,13,11,75,,,
49554,control_change,18,0,1,,,,,,,,,0,11,76,,,
49556,control_change,18,0,2,,,,,,,,,1,11,81,,,
49556,control_change,12,0,12,,,,,,,,,14,11,75,,,
49557,control_change,18,0,3,,,,,,,,,2,11,59,,,
49557,control_change,18,0,5,,,,,,,,,4,11,56,,,
49559,control_change,18,0,6,,,,,,,,,5,11,56,,,
49559,control_change,18,0,4,,,,,,,,,3,11,59,,,
49560,note_on,0,0,7,,,,,,,,,10,,,,74,103
49560,note_on,0,0,1,,,,,,,,,0,,,,84,116
49560,note_on,16,0,7,,,,,,,,,10,,,,77,0
49560,control_change,0,0,7,,,,,,,,,10,11,57,,,
49560,note_on,6,0,1,,,,,,,,,0,,,,82,0
49560,set_tempo,60,1,0,,,,,,937500,,,,,,,,
49562,control_change,12,0,9,,,,,,,,,12,11,72,,,
49562,control_change,12,0,8,,,,,,,,,11,11,72,,,
49564,control_change,12,0,10,,,,,,,,,6,11,72,,,
49565,control_change,12,0,11,,,,,,,,,13,11,72,,,
49568,control_change,12,0,12,,,,,,,,,14,11,72,,,
49572,control_change,12,0,1,,,,,,,,,0,11,74,,,
49574,control_change,12,0,8,,,,,,,,,11,11,69,,,
49574,control_change,12,0,9,,,,,,,,,12,11,69,,,
49574,control_change,18,0,2,,,,,,,,,1,11,80,,,
49575,control_change,18,0,5,,,,,,,,,4,11,54,,,
49575,control_change,18,0,3,,,,,,,,,2,11,57,,,
49576,control_change,12,0,10,,,,,,,,,6,11,69,,,
49576,control_change,16,0,7,,,,,,,,,10,11,55,,,
49577,control_change,18,0,4,,,,,,,,,3,11,57,,,
49577,control_change,12,0,11,,,,,,,,,13,11,69,,,
49577,control_change,18,0,6,,,,,,,,,5,11,54,,,
49580,control_change,12,0,12,,,,,,,,,14,11,69,,,
49586,control_change,12,0,8,,,,,,,,,11,11,66,,,
49586,control_change,12,0,9,,,,,,,,,12,11,66,,,
49588,control_change,12,0,10,,,,,,,,,6,11,66,,,
49589,control_change,12,0,11,,,,,,,,,13,11,66,,,
49590,note_on,14,0,7,,,,,,,,,10,,,,74,0
49590,control_change,18,0,1,,,,,,,,,0,11,72,,,
49590,note_on,0,0,7,,,,,,,,,10,,,,70,103
49592,control_change,12,0,12,,,,,,,,,14,11,66,,,
49592,control_change,18,0,2,,,,,,,,,1,11,78,,,
49592,control_change,2,0,7,,,,,,,,,10,11,53,,,
49593,control_change,18,0,3,,,,,,,,,2,11,55,,,
49593,control_change,18,0,5,,,,,,,,,4,11,52,,,
49595,control_change,18,0,6,,,,,,,,,5,11,52,,,
49595,control_change,18,0,4,,,,,,,,,3,11,55,,,
49598,control_change,12,0,8,,,,,,,,,11,11,63,,,
49598,control_change,12,0,9,,,,,,,,,12,11,63,,,
49600,control_change,12,0,10,,,,,,,,,6,11,63,,,
49601,control_change,12,0,11,,,,,,,,,13,11,63,,,
49604,control_change,12,0,12,,,,,,,,,14,11,63,,,
49608,control_change,16,0,7,,,,,,,,,10,11,51,,,
49608,control_change,18,0,1,,,,,,,,,0,11,70,,,
49610,control_change,12,0,9,,,,,,,,,12,11,60,,,
49610,control_change,12,0,8,,,,,,,,,11,11,60,,,
49610,control_change,18,0,2,,,,,,,,,1,11,76,,,
49611,control_change,18,0,5,,,,,,,,,4,11,50,,,
49611,control_change,18,0,3,,,,,,,,,2,11,54,,,
49612,control_change,12,0,10,,,,,,,,,6,11,60,,,
49613,control_change,12,0,11,,,,,,,,,13,11,60,,,
49613,control_change,18,0,6,,,,,,,,,5,11,50,,,
49613,control_change,18,0,4,,,,,,,,,3,11,54,,,
49616,control_change,12,0,12,,,,,,,,,14,11,60,,,
49617,note_on,7,0,2,,,,,,,,,1,,,,82,0
49620,note_on,12,0,7,,,,,,,,,10,,,,70,0
49620,note_on,0,0,7,,,,,,,,,10,,,,68,103
49620,note_on,0,0,1,,,,,,,,,0,,,,86,116
49620,note_on,12,0,1,,,,,,,,,0,,,,84,0
49622,note_on,5,0,2,,,,,,,,,1,,,,80,85
49622,control_change,12,0,8,,,,,,,,,11,11,57,,,
49622,control_change,12,0,9,,,,,,,,,12,11,57,,,
49623,note_on,0,0,3,,,,,,,,,2,,,,65,86
49623,note_on,0,0,3,,,,,,,,,2,,,,77,86
49623,note_on,0,0,3,,,,,,,,,2,,,,80,0
49623,note_on,12,0,3,,,,,,,,,2,,,,68,0
49624,control_change,12,0,10,,,,,,,,,6,11,57,,,
49624,control_change,4,0,7,,,,,,,,,10,11,49,,,
49625,note_on,0,0,4,,,,,,,,,3,,,,62,85
49625,control_change,12,0,11,,,,,,,,,13,11,57,,,
49625,note_on,12,0,4,,,,,,,,,3,,,,65,0
49626,control_change,6,0,1,,,,,,,,,0,11,69,,,
49628,control_change,12,0,12,,,,,,,,,14,11,57,,,
49628,control_change,6,0,2,,,,,,,,,1,11,75,,,
49629,control_change,18,0,5,,,,,,,,,4,11,48,,,
49629,control_change,6,0,3,,,,,,,,,2,11,52,,,
49631,control_change,18,0,6,,,,,,,,,5,11,48,,,
49631,control_change,6,0,4,,,,,,,,,3,11,52,,,
49634,control_change,12,0,9,,,,,,,,,12,11,54,,,
49634,control_change,12,0,8,,,,,,,,,11,11,54,,,
49636,control_change,12,0,10,,,,,,,,,6,11,54,,,
49637,control_change,12,0,11,,,,,,,,,13,11,54,,,
49640,control_change,12,0,12,,,,,,,,,14,11,54,,,
49640,control_change,16,0,7,,,,,,,,,10,11,47,,,
49644,control_change,18,0,1,,,,,,,,,0,11,67,,,
49646,control_change,12,0,8,,,,,,,,,11,11,51,,,
49646,control_change,18,0,2,,,,,,,,,1,11,73,,,
49646,control_change,12,0,9,,,,,,,,,12,11,51,,,
49647,control_change,18,0,3,,,,,,,,,2,11,51,,,
49647,control_change,18,0,5,,,,,,,,,4,11,46,,,
49648,control_change,12,0,10,,,,,,,,,6,11,51,,,
49649,control_change,18,0,4,,,,,,,,,3,11,51,,,
49649,control_change,18,0,6,,,,,,,,,5,11,46,,,
49649,control_change,12,0,11,,,,,,,,,13,11,51,,,
49650,note_on,10,0,7,,,,,,,,,10,,,,68,0
49650,note_on,0,0,7,,,,,,,,,10,,,,65,103
49652,control_change,12,0,12,,,,,,,,,14,11,51,,,
49656,control_change,6,0,7,,,,,,,,,10,11,45,,,
49658,control_change,12,0,9,,,,,,,,,12,11,48,,,
49658,control_change,12,0,8,,,,,,,,,11,11,48,,,
49660,control_change,12,0,10,,,,,,,,,6,11,48,,,
49661,control_change,12,0,11,,,,,,,,,13,11,48,,,
49662,control_change,18,0,1,,,,,,,,,0,11,65,,,
49664,control_change,12,0,12,,,,,,,,,14,11,48,,,
49664,control_change,18,0,2,,,,,,,,,1,11,71,,,
49665,control_change,18,0,3,,,,,,,,,2,11,49,,,
49665,control_change,18,0,5,,,,,,,,,4,11,44,,,
49667,control_change,18,0,4,,,,,,,,,3,11,49,,,
49667,control_change,18,0,6,,,,,,,,,5,11,44,,,
49670,control_change,12,0,8,,,,,,,,,11,11,45,,,
49670,control_change,12,0,9,,,,,,,,,12,11,45,,,
49672,control_change,12,0,10,,,,,,,,,6,11,45,,,
49672,control_change,16,0,7,,,,,,,,,10,11,43,,,
49673,control_change,12,0,11,,,,,,,,,13,11,45,,,
49675,note_on,13,0,1,,,,,,,,,0,,,,86,0
49675,note_on,3,0,7,,,,,,,,,10,,,,65,0
49676,control_change,12,0,12,,,,,,,,,14,11,45,,,
49677,note_on,13,0,2,,,,,,,,,1,,,,80,0
49677,note_on,7,0,9,,,,,,,,,12,,,,58,0
49678,note_on,13,0,3,,,,,,,,,2,,,,77,0
49678,note_on,13,0,5,,,,,,,,,4,,,,58,0
49678,note_on,0,0,3,,,,,,,,,2,,,,65,0
49679,note_on,7,0,10,,,,,,,,,6,,,,46,0
49680,note_on,5,0,7,,,,,,,,,10,,,,63,103
49680,set_tempo,120,1,0,,,,,,1034483,,,,,,,,
49680,control_change,0,0,1,,,,,,,,,0,11,64,,,
49680,note_on,13,0,4,,,,,,,,,3,,,,62,0
49680,note_on,13,0,6,,,,,,,,,5,,,,46,0
49680,note_on,7,0,11,,,,,,,,,13,,,,46,0
49680,note_on,5,0,1,,,,,,,,,0,,,,87,104
49682,note_on,0,0,9,,,,,,,,,12,,,,51,76
49682,control_change,5,0,9,,,,,,,,,12,11,52,,,
49682,control_change,5,0,2,,,,,,,,,1,11,70,,,
49682,note_on,12,0,8,,,,,,,,,11,,,,68,0
49682,control_change,0,0,8,,,,,,,,,11,11,42,,,
49682,note_on,0,0,8,,,,,,,,,11,,,,67,103
49682,note_on,0,0,2,,,,,,,,,1,,,,79,85
49683,note_on,0,0,3,,,,,,,,,2,,,,63,86
49683,note_on,7,0,12,,,,,,,,,14,,,,34,0
49683,note_on,5,0,3,,,,,,,,,2,,,,75,86
49683,note_on,0,0,5,,,,,,,,,4,,,,63,82
49683,control_change,5,0,5,,,,,,,,,4,11,42,,,
49683,control_change,0,0,3,,,,,,,,,2,11,47,,,
49684,control_change,5,0,10,,,,,,,,,6,11,42,,,
49684,note_on,0,0,10,,,,,,,,,6,,,,51,82
49685,note_on,0,0,11,,,,,,,,,13,,,,51,100
49685,control_change,5,0,11,,,,,,,,,13,11,42,,,
49685,control_change,5,0,4,,,,,,,,,3,11,47,,,
49685,note_on,0,0,4,,,,,,,,,3,,,,63,85
49685,note_on,0,0,6,,,,,,,,,5,,,,63,82
49685,control_change,5,0,6,,,,,,,,,5,11,42,,,
49688,control_change,5,0,12,,,,,,,,,14,11,42,,,
49688,note_on,0,0,12,,,,,,,,,14,,,,39,96
49697,note_on,15,0,9,,,,,,,,,12,,,,51,0
49707,note_on,25,0,8,,,,,,,,,11,,,,67,0
49709,note_on,25,0,10,,,,,,,,,6,,,,51,0
49712,note_on,15,0,9,,,,,,,,,12,,,,55,62
49712,note_on,5,0,8,,,,,,,,,11,,,,58,0
49712,note_on,0,0,8,,,,,,,,,11,,,,67,74
49714,note_on,5,0,10,,,,,,,,,6,,,,58,62
49727,note_on,15,0,9,,,,,,,,,12,,,,55,0
49740,set_tempo,60,1,0,,,,,,937500,,,,,,,,
49742,note_on,15,0,9,,,,,,,,,12,,,,58,64
49742,note_on,30,0,8,,,,,,,,,11,,,,67,0
49742,note_on,0,0,8,,,,,,,,,11,,,,70,74
49744,note_on,30,0,10,,,,,,,,,6,,,,58,0
49744,note_on,0,0,10,,,,,,,,,6,,,,55,62
49757,note_on,15,0,9,,,,,,,,,12,,,,58,0
49759,control_change,79,0,1,,,,,,,,,0,11,64,,,
49761,control_change,79,0,2,,,,,,,,,1,11,70,,,
49762,control_change,79,0,3,,,,,,,,,2,11,47,,,
49764,control_change,5,0,1,,,,,,,,,0,11,61,,,
49764,control_change,79,0,4,,,,,,,,,3,11,47,,,
49765,control_change,4,0,2,,,,,,,,,1,11,67,,,
49766,control_change,4,0,3,,,,,,,,,2,11,44,,,
49768,control_change,4,0,4,,,,,,,,,3,11,44,,,
49769,control_change,4,0,2,,,,,,,,,1,11,64,,,
49769,control_change,5,0,1,,,,,,,,,0,11,58,,,
49771,control_change,5,0,3,,,,,,,,,2,11,41,,,
49772,note_on,0,0,8,,,,,,,,,11,,,,67,74
49772,note_on,30,0,8,,,,,,,,,11,,,,70,0
49772,note_on,15,0,9,,,,,,,,,12,,,,63,66
49773,control_change,5,0,4,,,,,,,,,3,11,41,,,
49773,control_change,4,0,2,,,,,,,,,1,11,61,,,
49774,note_on,30,0,10,,,,,,,,,6,,,,55,0
49774,note_on,0,0,10,,,,,,,,,6,,,,58,62
49774,control_change,5,0,1,,,,,,,,,0,11,55,,,
49776,control_change,5,0,3,,,,,,,,,2,11,38,,,
49778,control_change,5,0,2,,,,,,,,,1,11,58,,,
49778,control_change,5,0,4,,,,,,,,,3,11,38,,,
49779,control_change,5,0,1,,,,,,,,,0,11,52,,,
49781,control_change,5,0,3,,,,,,,,,2,11,35,,,
49782,control_change,4,0,2,,,,,,,,,1,11,55,,,
49783,control_change,5,0,4,,,,,,,,,3,11,35,,,
49784,control_change,5,0,1,,,,,,,,,0,11,49,,,
49786,control_change,5,0,3,,,,,,,,,2,11,32,,,
49786,control_change,4,0,2,,,,,,,,,1,11,52,,,
49787,note_on,15,0,9,,,,,,,,,12,,,,63,0
49788,control_change,5,0,4,,,,,,,,,3,11,32,,,
49789,control_change,5,0,1,,,,,,,,,0,11,46,,,
49790,control_change,4,0,3,,,,,,,,,2,11,29,,,
49791,control_change,5,0,2,,,,,,,,,1,11,49,,,
49792,control_change,4,0,4,,,,,,,,,3,11,29,,,
49794,control_change,5,0,1,,,,,,,,,0,11,43,,,
49795,control_change,5,0,3,,,,,,,,,2,11,26,,,
49795,control_change,4,0,2,,,,,,,,,1,11,46,,,
49797,control_change,5,0,4,,,,,,,,,3,11,26,,,
49799,control_change,4,0,2,,,,,,,,,1,11,43,,,
49799,control_change,5,0,1,,,,,,,,,0,11,40,,,
49800,note_on,120,0,7,,,,,,,,,10,,,,63,0
49800,note_on,1,0,1,,,,,,,,,0,,,,87,0
49800,control_change,5,0,3,,,,,,,,,2,11,23,,,
49802,note_on,0,0,8,,,,,,,,,11,,,,70,74
49802,note_on,30,0,8,,,,,,,,,11,,,,67,0
49802,note_on,15,0,9,,,,,,,,,12,,,,67,66
49802,note_on,0,0,2,,,,,,,,,1,,,,70,0
49802,control_change,5,0,4,,,,,,,,,3,11,23,,,
49802,note_on,3,0,2,,,,,,,,,1,,,,79,0
49803,note_on,0,0,3,,,,,,,,,2,,,,75,0
49803,note_on,3,0,3,,,,,,,,,2,,,,63,0
49804,note_on,30,0,10,,,,,,,,,6,,,,58,0
49804,note_on,0,0,10,,,,,,,,,6,,,,55,62
49805,note_on,3,0,4,,,,,,,,,3,,,,63,0
49805,note_on,120,0,11,,,,,,,,,13,,,,51,0
49808,note_on,120,0,12,,,,,,,,,14,,,,39,0
49817,note_on,15,0,9,,,,,,,,,12,,,,67,0
49832,note_on,30,0,8,,,,,,,,,11,,,,70,0
49832,note_on,0,0,8,,,,,,,,,11,,,,67,74
49832,note_on,15,0,9,,,,,,,,,12,,,,70,67
49834,note_on,0,0,10,,,,,,,,,6,,,,58,62
49834,note_on,30,0,10,,,,,,,,,6,,,,55,0
49847,note_on,15,0,9,,,,,,,,,12,,,,70,0
49860,set_tempo,120,1,0,,,,,,1034483,,,,,,,,
49862,note_on,30,0,8,,,,,,,,,11,,,,67,0
49862,note_on,0,0,8,,,,,,,,,11,,,,72,74
49862,note_on,15,0,9,,,,,,,,,12,,,,75,68
49864,note_on,30,0,10,,,,,,,,,6,,,,58,0
49864,note_on,0,0,10,,,,,,,,,6,,,,56,62
49865,note_on,60,0,4,,,,,,,,,3,,,,67,95
49865,note_on,0,0,4,,,,,,,,,3,,,,55,95
49892,note_on,0,0,8,,,,,,,,,11,,,,68,74
49892,note_on,30,0,8,,,,,,,,,11,,,,72,0
49894,note_on,0,0,10,,,,,,,,,6,,,,60,62
49894,note_on,30,0,10,,,,,,,,,6,,,,56,0
49920,set_tempo,60,1,0,,,,,,937500,,,,,,,,
49922,note_on,0,0,8,,,,,,,,,11,,,,70,74
49922,note_on,30,0,8,,,,,,,,,11,,,,68,0
49924,note_on,0,0,10,,,,,,,,,6,,,,55,62
49924,note_on,30,0,10,,,,,,,,,6,,,,60,0
49952,control_change,90,0,9,,,,,,,,,12,11,52,,,
49952,note_on,30,0,8,,,,,,,,,11,,,,70,0
49952,note_on,0,0,8,,,,,,,,,11,,,,67,74
49954,note_on,0,0,10,,,,,,,,,6,,,,58,62
49954,note_on,30,0,10,,,,,,,,,6,,,,55,0
49956,control_change,4,0,9,,,,,,,,,12,11,49,,,
49960,control_change,4,0,9,,,,,,,,,12,11,46,,,
49965,control_change,5,0,9,,,,,,,,,12,11,43,,,
49969,control_change,4,0,9,,,,,,,,,12,11,40,,,
49973,control_change,4,0,9,,,,,,,,,12,11,37,,,
49978,note_on,295,0,5,,,,,,,,,4,,,,63,0
49978,control_change,5,0,9,,,,,,,,,12,11,34,,,
49980,note_on,295,0,6,,,,,,,,,5,,,,63,0
49982,note_on,0,0,8,,,,,,,,,11,,,,70,74
49982,note_on,4,0,9,,,,,,,,,12,,,,75,0
49982,note_on,30,0,8,,,,,,,,,11,,,,67,0
49983,note_on,5,0,5,,,,,,,,,4,,,,63,82
49984,note_on,30,0,10,,,,,,,,,6,,,,58,0
49984,note_on,0,0,10,,,,,,,,,6,,,,55,62
49985,note_on,5,0,6,,,,,,,,,5,,,,63,82
50012,note_on,0,0,8,,,,,,,,,11,,,,67,74
50012,note_on,30,0,8,,,,,,,,,11,,,,70,0
50014,note_on,0,0,10,,,,,,,,,6,,,,58,62
50014,note_on,30,0,10,,,,,,,,,6,,,,55,0
50040,set_tempo,120,1,0,,,,,,1034483,,,,,,,,
50042,note_on,0,0,8,,,,,,,,,11,,,,68,74
50042,note_on,30,0,8,,,,,,,,,11,,,,67,0
50044,note_on,0,0,10,,,,,,,,,6,,,,53,62
50044,note_on,30,0,10,,,,,,,,,6,,,,58,0
50045,note_on,0,0,4,,,,,,,,,3,,,,67,0
50045,note_on,0,0,4,,,,,,,,,3,,,,63,95
50045,note_on,0,0,4,,,,,,,,,3,,,,51,95
50045,note_on,180,0,4,,,,,,,,,3,,,,55,0
50072,note_on,0,0,8,,,,,,,,,11,,,,65,74
50072,note_on,30,0,8,,,,,,,,,11,,,,68,0
50074,note_on,30,0,10,,,,,,,,,6,,,,53,0
50074,note_on,0,0,10,,,,,,,,,6,,,,56,62
50100,set_tempo,60,1,0,,,,,,937500,,,,,,,,
50102,note_on,30,0,8,,,,,,,,,11,,,,65,0
50102,note_on,0,0,8,,,,,,,,,11,,,,67,74
50104,note_on,0,0,10,,,,,,,,,6,,,,51,62
50104,note_on,30,0,10,,,,,,,,,6,,,,56,0
50132,note_on,30,0,8,,,,,,,,,11,,,,67,0
50132,note_on,0,0,8,,,,,,,,,11,,,,63,74
50134,note_on,0,0,10,,,,,,,,,6,,,,55,62
50134,note_on,30,0,10,,,,,,,,,6,,,,51,0
50158,note_on,175,0,5,,,,,,,,,4,,,,63,0
50160,note_on,175,0,6,,,,,,,,,5,,,,63,0
50162,note_on,0,0,8,,,,,,,,,11,,,,67,74
50162,note_on,30,0,8,,,,,,,,,11,,,,63,0
50163,note_on,5,0,5,,,,,,,,,4,,,,63,82
50164,note_on,0,0,10,,,,,,,,,6,,,,51,62
50164,note_on,30,0,10,,,,,,,,,6,,,,55,0
50165,note_on,5,0,6,,,,,,,,,5,,,,63,82
50192,note_on,30,0,8,,,,,,,,,11,,,,67,0
50192,note_on,0,0,8,,,,,,,,,11,,,,63,74
50194,note_on,30,0,10,,,,,,,,,6,,,,51,0
50194,note_on,0,0,10,,,,,,,,,6,,,,55,62
50220,control_change,420,0,7,,,,,,,,,10,11,22,,,
50220,note_on,0,0,7,,,,,,,,,10,,,,70,90
50220,set_tempo,120,1,0,,,,,,1034483,,,,,,,,
50222,note_on,30,0,8,,,,,,,,,11,,,,63,0
50222,note_on,0,0,8,,,,,,,,,11,,,,65,74
50224,note_on,30,0,10,,,,,,,,,6,,,,55,0
50224,note_on,0,0,10,,,,,,,,,6,,,,50,62
50225,note_on,180,0,4,,,,,,,,,3,,,,63,0
50225,note_on,0,0,4,,,,,,,,,3,,,,58,95
50225,note_on,0,0,4,,,,,,,,,3,,,,46,95
50225,note_on,0,0,4,,,,,,,,,3,,,,51,0
50231,control_change,11,0,7,,,,,,,,,10,11,27,,,
50243,control_change,12,0,7,,,,,,,,,10,11,32,,,
50252,note_on,0,0,8,,,,,,,,,11,,,,62,74
50252,note_on,30,0,8,,,,,,,,,11,,,,65,0
50254,note_on,0,0,10,,,,,,,,,6,,,,53,62
50254,note_on,30,0,10,,,,,,,,,6,,,,50,0
50255,control_change,12,0,7,,,,,,,,,10,11,37,,,
50267,control_change,12,0,7,,,,,,,,,10,11,42,,,
50279,control_change,12,0,7,,,,,,,,,10,11,47,,,
50280,set_tempo,60,1,0,,,,,,937500,,,,,,,,
50282,note_on,30,0,8,,,,,,,,,11,,,,62,0
50282,note_on,0,0,8,,,,,,,,,11,,,,67,74
50283,control_change,0,0,3,,,,,,,,,2,11,70,,,
50283,note_on,480,0,3,,,,,,,,,2,,,,75,74
50284,note_on,0,0,10,,,,,,,,,6,,,,51,62
50284,note_on,30,0,10,,,,,,,,,6,,,,53,0
50312,note_on,30,0,8,,,,,,,,,11,,,,67,0
50312,note_on,0,0,8,,,,,,,,,11,,,,63,74
50313,note_on,30,0,3,,,,,,,,,2,,,,75,0
50313,note_on,0,0,3,,,,,,,,,2,,,,77,96
50314,note_on,0,0,10,,,,,,,,,6,,,,55,62
50314,note_on,30,0,10,,,,,,,,,6,,,,51,0
50338,note_on,175,0,5,,,,,,,,,4,,,,63,0
50340,note_on,175,0,6,,,,,,,,,5,,,,63,0
50340,control_change,61,0,7,,,,,,,,,10,11,47,,,
50342,note_on,30,0,8,,,,,,,,,11,,,,63,0
50342,note_on,0,0,8,,,,,,,,,11,,,,67,74
50343,note_on,0,0,3,,,,,,,,,2,,,,79,96
50343,note_on,5,0,5,,,,,,,,,4,,,,63,82
50343,note_on,30,0,3,,,,,,,,,2,,,,77,0
50344,note_on,30,0,10,,,,,,,,,6,,,,55,0
50344,note_on,0,0,10,,,,,,,,,6,,,,51,62
50345,note_on,5,0,6,,,,,,,,,5,,,,63,82
50357,control_change,17,0,7,,,,,,,,,10,11,44,,,
50372,note_on,0,0,8,,,,,,,,,11,,,,63,74
50372,note_on,30,0,8,,,,,,,,,11,,,,67,0
50373,note_on,0,0,3,,,,,,,,,2,,,,77,96
50373,note_on,30,0,3,,,,,,,,,2,,,,79,0
50374,note_on,0,0,10,,,,,,,,,6,,,,55,62
50374,note_on,30,0,10,,,,,,,,,6,,,,51,0
50375,control_change,18,0,7,,,,,,,,,10,11,41,,,
50393,control_change,18,0,7,,,,,,,,,10,11,38,,,
50397,note_on,25,0,8,,,,,,,,,11,,,,63,0
50398,note_on,55,0,5,,,,,,,,,4,,,,63,0
50398,note_on,25,0,3,,,,,,,,,2,,,,77,0
50399,note_on,25,0,10,,,,,,,,,6,,,,55,0
50400,note_on,0,0,7,,,,,,,,,10,,,,75,90
50400,control_change,0,0,7,,,,,,,,,10,11,22,,,
50400,note_on,7,0,7,,,,,,,,,10,,,,70,0
50400,set_tempo,120,1,0,,,,,,1034483,,,,,,,,
50400,note_on,55,0,6,,,,,,,,,5,,,,63,0
50402,note_on,5,0,8,,,,,,,,,11,,,,67,74
50402,note_on,0,0,9,,,,,,,,,12,,,,51,61
50402,control_change,420,0,9,,,,,,,,,12,11,52,,,
50403,note_on,5,0,3,,,,,,,,,2,,,,77,96
50403,note_on,5,0,5,,,,,,,,,4,,,,63,82
50404,note_on,5,0,10,,,,,,,,,6,,,,51,62
50405,note_on,600,0,11,,,,,,,,,13,,,,51,100
50405,note_on,5,0,6,,,,,,,,,5,,,,63,82
50405,note_on,0,0,4,,,,,,,,,3,,,,58,0
50405,note_on,180,0,4,,,,,,,,,3,,,,46,0
50408,note_on,600,0,12,,,,,,,,,14,,,,39,96
50411,control_change,11,0,7,,,,,,,,,10,11,27,,,
50417,note_on,15,0,9,,,,,,,,,12,,,,51,0
50423,control_change,12,0,7,,,,,,,,,10,11,32,,,
50432,note_on,30,0,8,,,,,,,,,11,,,,67,0
50432,note_on,0,0,8,,,,,,,,,11,,,,63,74
50432,note_on,15,0,9,,,,,,,,,12,,,,55,62
50434,note_on,30,0,10,,,,,,,,,6,,,,51,0
50434,note_on,0,0,10,,,,,,,,,6,,,,55,62
50435,control_change,12,0,7,,,,,,,,,10,11,37,,,
50447,note_on,15,0,9,,,,,,,,,12,,,,55,0
50447,control_change,12,0,7,,,,,,,,,10,11,42,,,
50459,control_change,12,0,7,,,,,,,,,10,11,47,,,
50460,set_tempo,60,1,0,,,,,,937500,,,,,,,,
50462,note_on,0,0,8,,,,,,,,,11,,,,70,74
50462,note_on,30,0,8,,,,,,,,,11,,,,63,0
50462,note_on,15,0,9,,,,,,,,,12,,,,58,64
50463,note_on,0,0,3,,,,,,,,,2,,,,75,81
50463,note_on,60,0,3,,,,,,,,,2,,,,77,0
50464,note_on,30,0,10,,,,,,,,,6,,,,55,0
50464,note_on,0,0,10,,,,,,,,,6,,,,55,62
50477,note_on,15,0,9,,,,,,,,,12,,,,58,0
50492,note_on,30,0,8,,,,,,,,,11,,,,70,0
50492,note_on,0,0,8,,,,,,,,,11,,,,67,74
50492,note_on,15,0,9,,,,,,,,,12,,,,63,66
50494,note_on,0,0,10,,,,,,,,,6,,,,58,62
50494,note_on,30,0,10,,,,,,,,,6,,,,55,0
50507,note_on,15,0,9,,,,,,,,,12,,,,63,0
50520,control_change,61,0,7,,,,,,,,,10,11,47,,,
50522,note_on,15,0,9,,,,,,,,,12,,,,67,66
50522,note_on,30,0,8,,,,,,,,,11,,,,67,0
50522,note_on,0,0,8,,,,,,,,,11,,,,70,74
50524,note_on,0,0,10,,,,,,,,,6,,,,55,62
50524,note_on,30,0,10,,,,,,,,,6,,,,58,0
50525,note_on,120,0,11,,,,,,,,,13,,,,51,0
50528,note_on,120,0,12,,,,,,,,,14,,,,39,0
50537,note_on,15,0,9,,,,,,,,,12,,,,67,0
50537,control_change,17,0,7,,,,,,,,,10,11,44,,,
50538,control_change,75,0,3,,,,,,,,,2,11,70,,,
50541,control_change,3,0,3,,,,,,,,,2,11,67,,,
50544,control_change,3,0,3,,,,,,,,,2,11,64,,,
50548,control_change,4,0,3,,,,,,,,,2,11,61,,,
50551,control_change,3,0,3,,,,,,,,,2,11,58,,,
50552,note_on,0,0,8,,,,,,,,,11,,,,67,74
50552,note_on,15,0,9,,,,,,,,,12,,,,70,67
50552,note_on,30,0,8,,,,,,,,,11,,,,70,0
50554,note_on,0,0,10,,,,,,,,,6,,,,58,62
50554,note_on,30,0,10,,,,,,,,,6,,,,55,0
50555,control_change,18,0,7,,,,,,,,,10,11,41,,,
50555,control_change,4,0,3,,,,,,,,,2,11,55,,,
50558,control_change,3,0,3,,,,,,,,,2,11,52,,,
50562,control_change,4,0,3,,,,,,,,,2,11,49,,,
50565,control_change,3,0,3,,,,,,,,,2,11,46,,,
50567,note_on,15,0,9,,,,,,,,,12,,,,70,0
50569,control_change,4,0,3,,,,,,,,,2,11,43,,,
50572,control_change,3,0,3,,,,,,,,,2,11,40,,,
50573,control_change,18,0,7,,,,,,,,,10,11,38,,,
50576,control_change,4,0,3,,,,,,,,,2,11,37,,,
50579,control_change,3,0,3,,,,,,,,,2,11,34,,,
50580,set_tempo,120,1,0,,,,,,1034483,,,,,,,,
50580,note_on,7,0,7,,,,,,,,,10,,,,75,0
50580,control_change,0,0,7,,,,,,,,,10,11,22,,,
50580,note_on,0,0,7,,,,,,,,,10,,,,79,90
50582,note_on,15,0,9,,,,,,,,,12,,,,75,68
50582,note_on,0,0,8,,,,,,,,,11,,,,72,74
50582,note_on,30,0,8,,,,,,,,,11,,,,67,0
50583,note_on,4,0,3,,,,,,,,,2,,,,75,0
50584,note_on,0,0,10,,,,,,,,,6,,,,56,62
50584,note_on,30,0,10,,,,,,,,,6,,,,58,0
50585,note_on,180,0,4,,,,,,,,,3,,,,55,95
50585,note_on,0,0,4,,,,,,,,,3,,,,67,95
50591,control_change,11,0,7,,,,,,,,,10,11,27,,,
50603,control_change,12,0,7,,,,,,,,,10,11,32,,,
50612,note_on,30,0,8,,,,,,,,,11,,,,72,0
50612,note_on,0,0,8,,,,,,,,,11,,,,68,74
50614,note_on,30,0,10,,,,,,,,,6,,,,56,0
50614,note_on,0,0,10,,,,,,,,,6,,,,60,62
50615,control_change,12,0,7,,,,,,,,,10,11,37,,,
50627,control_change,12,0,7,,,,,,,,,10,11,42,,,
50639,control_change,12,0,7,,,,,,,,,10,11,47,,,
50640,set_tempo,60,1,0,,,,,,937500,,,,,,,,
50642,note_on,30,0,8,,,,,,,,,11,,,,68,0
50642,note_on,0,0,8,,,,,,,,,11,,,,70,74
50644,note_on,0,0,10,,,,,,,,,6,,,,55,62
50644,note_on,30,0,10,,,,,,,,,6,,,,60,0
50672,note_on,30,0,8,,,,,,,,,11,,,,70,0
50672,note_on,0,0,8,,,,,,,,,11,,,,67,74
50672,control_change,90,0,9,,,,,,,,,12,11,52,,,
50674,note_on,30,0,10,,,,,,,,,6,,,,55,0
50674,note_on,0,0,10,,,,,,,,,6,,,,58,62
50676,control_change,4,0,9,,,,,,,,,12,11,49,,,
50680,control_change,4,0,9,,,,,,,,,12,11,46,,,
50685,control_change,5,0,9,,,,,,,,,12,11,43,,,
50689,control_change,4,0,9,,,,,,,,,12,11,40,,,
50693,control_change,4,0,9,,,,,,,,,12,11,37,,,
50698,note_on,295,0,5,,,,,,,,,4,,,,63,0
50698,control_change,5,0,9,,,,,,,,,12,11,34,,,
50700,control_change,61,0,7,,,,,,,,,10,11,47,,,
50700,note_on,295,0,6,,,,,,,,,5,,,,63,0
50702,note_on,0,0,8,,,,,,,,,11,,,,70,74
50702,note_on,30,0,8,,,,,,,,,11,,,,67,0
50702,note_on,4,0,9,,,,,,,,,12,,,,75,0
50703,note_on,5,0,5,,,,,,,,,4,,,,63,82
50704,note_on,30,0,10,,,,,,,,,6,,,,58,0
50704,note_on,0,0,10,,,,,,,,,6,,,,55,62
50705,note_on,5,0,6,,,,,,,,,5,,,,63,82
50717,control_change,17,0,7,,,,,,,,,10,11,44,,,
50732,note_on,0,0,8,,,,,,,,,11,,,,67,74
50732,note_on,30,0,8,,,,,,,,,11,,,,70,0
50734,note_on,30,0,10,,,,,,,,,6,,,,55,0
50734,note_on,0,0,10,,,,,,,,,6,,,,58,62
50735,control_change,18,0,7,,,,,,,,,10,11,41,,,
50753,control_change,18,0,7,,,,,,,,,10,11,38,,,
50760,set_tempo,120,1,0,,,,,,1034483,,,,,,,,
50760,note_on,7,0,7,,,,,,,,,10,,,,79,0
50762,note_on,0,0,8,,,,,,,,,11,,,,68,74
50762,note_on,30,0,8,,,,,,,,,11,,,,67,0
50764,note_on,0,0,10,,,,,,,,,6,,,,53,62
50764,note_on,30,0,10,,,,,,,,,6,,,,58,0
50765,note_on,0,0,4,,,,,,,,,3,,,,63,95
50765,note_on,0,0,4,,,,,,,,,3,,,,51,95
50765,note_on,0,0,4,,,,,,,,,3,,,,55,0
50765,note_on,180,0,4,,,,,,,,,3,,,,67,0
50792,note_on,30,0,8,,,,,,,,,11,,,,68,0
50792,note_on,0,0,8,,,,,,,,,11,,,,65,74
50794,note_on,0,0,10,,,,,,,,,6,,,,56,62
50794,note_on,30,0,10,,,,,,,,,6,,,,53,0
50820,set_tempo,60,1,0,,,,,,937500,,,,,,,,
50822,note_on,0,0,8,,,,,,,,,11,,,,67,74
50822,note_on,30,0,8,,,,,,,,,11,,,,65,0
50824,note_on,0,0,10,,,,,,,,,6,,,,51,62
50824,note_on,30,0,10,,,,,,,,,6,,,,56,0
50852,note_on,30,0,8,,,,,,,,,11,,,,67,0
50852,note_on,0,0,8,,,,,,,,,11,,,,63,74
50854,note_on,0,0,10,,,,,,,,,6,,,,55,62
50854,note_on,30,0,10,,,,,,,,,6,,,,51,0
50878,note_on,175,0,5,,,,,,,,,4,,,,63,0
50880,note_on,175,0,6,,,,,,,,,5,,,,63,0
50882,note_on,30,0,8,,,,,,,,,11,,,,63,0
50882,note_on,0,0,8,,,,,,,,,11,,,,67,74
50883,note_on,5,0,5,,,,,,,,,4,,,,63,82
50884,note_on,30,0,10,,,,,,,,,6,,,,55,0
50884,note_on,0,0,10,,,,,,,,,6,,,,51,62
50885,note_on,5,0,6,,,,,,,,,5,,,,63,82
50912,note_on,0,0,8,,,,,,,,,11,,,,63,74
50912,note_on,30,0,8,,,,,,,,,11,,,,67,0
50914,note_on,30,0,10,,,,,,,,,6,,,,51,0
50914,note_on,0,0,10,,,,,,,,,6,,,,55,62
50940,note_on,0,0,7,,,,,,,,,10,,,,70,90
50940,set_tempo,120,1,0,,,,,,1034483,,,,,,,,
50940,control_change,180,0,7,,,,,,,,,10,11,22,,,
50942,note_on,0,0,8,,,,,,,,,11,,,,65,74
50942,note_on,30,0,8,,,,,,,,,11,,,,63,0
50944,note_on,0,0,10,,,,,,,,,6,,,,50,62
50944,note_on,30,0,10,,,,,,,,,6,,,,55,0
50945,note_on,0,0,4,,,,,,,,,3,,,,58,95
50945,note_on,0,0,4,,,,,,,,,3,,,,51,0
50945,note_on,0,0,4,,,,,,,,,3,,,,46,95
50945,note_on,180,0,4,,,,,,,,,3,,,,63,0
50951,control_change,11,0,7,,,,,,,,,10,11,27,,,
50963,control_change,12,0,7,,,,,,,,,10,11,32,,,
50972,note_on,0,0,8,,,,,,,,,11,,,,62,74
50972,note_on,30,0,8,,,,,,,,,11,,,,65,0
50974,note_on,30,0,10,,,,,,,,,6,,,,50,0
50974,note_on,0,0,10,,,,,,,,,6,,,,53,62
50975,control_change,12,0,7,,,,,,,,,10,11,37,,,
50987,control_change,12,0,7,,,,,,,,,10,11,42,,,
50999,control_change,12,0,7,,,,,,,,,10,11,47,,,
51000,set_tempo,60,1,0,,,,,,937500,,,,,,,,
51002,note_on,0,0,8,,,,,,,,,11,,,,67,74
51002,note_on,30,0,8,,,,,,,,,11,,,,62,0
51003,note_on,0,0,3,,,,,,,,,2,,,,75,74
51003,control_change,420,0,3,,,,,,,,,2,11,70,,,
51004,note_on,0,0,10,,,,,,,,,6,,,,51,62
51004,note_on,30,0,10,,,,,,,,,6,,,,53,0
51032,note_on,30,0,8,,,,,,,,,11,,,,67,0
51032,note_on,0,0,8,,,,,,,,,11,,,,63,74
51033,note_on,0,0,3,,,,,,,,,2,,,,77,96
51033,note_on,30,0,3,,,,,,,,,2,,,,75,0
51034,note_on,30,0,10,,,,,,,,,6,,,,51,0
51034,note_on,0,0,10,,,,,,,,,6,,,,55,62
51058,note_on,175,0,5,,,,,,,,,4,,,,63,0
51060,control_change,61,0,7,,,,,,,,,10,11,47,,,
51060,note_on,175,0,6,,,,,,,,,5,,,,63,0
51062,note_on,30,0,8,,,,,,,,,11,,,,63,0
51062,note_on,0,0,8,,,,,,,,,11,,,,67,74
51063,note_on,5,0,5,,,,,,,,,4,,,,63,82
51063,note_on,0,0,3,,,,,,,,,2,,,,79,96
51063,note_on,30,0,3,,,,,,,,,2,,,,77,0
51064,note_on,30,0,10,,,,,,,,,6,,,,55,0
51064,note_on,0,0,10,,,,,,,,,6,,,,51,62
51065,note_on,5,0,6,,,,,,,,,5,,,,63,82
51077,control_change,17,0,7,,,,,,,,,10,11,44,,,
51092,note_on,0,0,8,,,,,,,,,11,,,,63,74
51092,note_on,30,0,8,,,,,,,,,11,,,,67,0
51093,note_on,0,0,3,,,,,,,,,2,,,,75,96
51093,note_on,30,0,3,,,,,,,,,2,,,,79,0
51094,note_on,30,0,10,,,,,,,,,6,,,,51,0
51094,note_on,0,0,10,,,,,,,,,6,,,,55,62
51095,control_change,18,0,7,,,,,,,,,10,11,41,,,
51113,control_change,18,0,7,,,,,,,,,10,11,38,,,
51117,note_on,25,0,8,,,,,,,,,11,,,,63,0
51118,note_on,25,0,3,,,,,,,,,2,,,,75,0
51118,note_on,55,0,5,,,,,,,,,4,,,,63,0
51119,note_on,25,0,10,,,,,,,,,6,,,,55,0
51120,control_change,0,0,7,,,,,,,,,10,11,22,,,
51120,note_on,0,0,7,,,,,,,,,10,,,,77,90
51120,set_tempo,120,1,0,,,,,,1034483,,,,,,,,
51120,note_on,55,0,6,,,,,,,,,5,,,,63,0
51120,note_on,7,0,7,,,,,,,,,10,,,,70,0
51122,control_change,420,0,9,,,,,,,,,12,11,52,,,
51122,note_on,0,0,9,,,,,,,,,12,,,,58,61
51122,note_on,5,0,8,,,,,,,,,11,,,,68,74
51123,note_on,5,0,3,,,,,,,,,2,,,,74,96
51123,note_on,5,0,5,,,,,,,,,4,,,,65,82
51124,note_on,5,0,10,,,,,,,,,6,,,,53,62
51125,note_on,600,0,11,,,,,,,,,13,,,,46,100
51125,note_on,5,0,6,,,,,,,,,5,,,,58,82
51125,note_on,0,0,4,,,,,,,,,3,,,,58,0
51125,note_on,180,0,4,,,,,,,,,3,,,,46,0
51128,note_on,600,0,12,,,,,,,,,14,,,,34,96
51131,control_change,11,0,7,,,,,,,,,10,11,27,,,
51133,note_on,0,0,3,,,,,,,,,2,,,,75,96
51133,note_on,10,0,3,,,,,,,,,2,,,,74,0
51137,note_on,15,0,9,,,,,,,,,12,,,,58,0
51143,control_change,12,0,7,,,,,,,,,10,11,32,,,
51143,note_on,10,0,3,,,,,,,,,2,,,,75,0
51143,note_on,0,0,3,,,,,,,,,2,,,,77,96
51152,note_on,15,0,9,,,,,,,,,12,,,,62,62
51152,note_on,30,0,8,,,,,,,,,11,,,,68,0
51152,note_on,0,0,8,,,,,,,,,11,,,,65,74
51153,note_on,0,0,3,,,,,,,,,2,,,,75,96
51153,note_on,10,0,3,,,,,,,,,2,,,,77,0
51154,note_on,30,0,10,,,,,,,,,6,,,,53,0
51154,note_on,0,0,10,,,,,,,,,6,,,,56,62
51155,control_change,12,0,7,,,,,,,,,10,11,37,,,
51167,note_on,15,0,9,,,,,,,,,12,,,,62,0
51167,control_change,12,0,7,,,,,,,,,10,11,42,,,
51179,control_change,12,0,7,,,,,,,,,10,11,47,,,
51180,set_tempo,60,1,0,,,,,,937500,,,,,,,,
51182,note_on,0,0,8,,,,,,,,,11,,,,68,74
51182,note_on,30,0,8,,,,,,,,,11,,,,65,0
51182,note_on,15,0,9,,,,,,,,,12,,,,65,64
51183,note_on,0,0,3,,,,,,,,,2,,,,74,81
51183,note_on,30,0,3,,,,,,,,,2,,,,75,0
51184,note_on,30,0,10,,,,,,,,,6,,,,56,0
51184,note_on,0,0,10,,,,,,,,,6,,,,53,62
51197,note_on,15,0,9,,,,,,,,,12,,,,65,0
51212,note_on,15,0,9,,,,,,,,,12,,,,68,66
51212,note_on,0,0,8,,,,,,,,,11,,,,65,74
51212,note_on,30,0,8,,,,,,,,,11,,,,68,0
51214,note_on,0,0,10,,,,,,,,,6,,,,56,62
51214,note_on,30,0,10,,,,,,,,,6,,,,53,0
51227,note_on,15,0,9,,,,,,,,,12,,,,68,0
51240,control_change,61,0,7,,,,,,,,,10,11,47,,,
51242,note_on,15,0,9,,,,,,,,,12,,,,70,66
51242,note_on,30,0,8,,,,,,,,,11,,,,65,0
51242,note_on,0,0,8,,,,,,,,,11,,,,68,74
51244,note_on,30,0,10,,,,,,,,,6,,,,56,0
51244,note_on,0,0,10,,,,,,,,,6,,,,53,62
51245,note_on,120,0,11,,,,,,,,,13,,,,46,0
51248,note_on,120,0,12,,,,,,,,,14,,,,34,0
51257,note_on,15,0,9,,,,,,,,,12,,,,70,0
51257,control_change,17,0,7,,,,,,,,,10,11,44,,,
51258,control_change,75,0,3,,,,,,,,,2,11,70,,,
51261,control_change,3,0,3,,,,,,,,,2,11,67,,,
51264,control_change,3,0,3,,,,,,,,,2,11,64,,,
51268,control_change,4,0,3,,,,,,,,,2,11,61,,,
51271,control_change,3,0,3,,,,,,,,,2,11,58,,,
51272,note_on,30,0,8,,,,,,,,,11,,,,68,0
51272,note_on,0,0,8,,,,,,,,,11,,,,65,74
51272,note_on,15,0,9,,,,,,,,,12,,,,74,67
51274,note_on,30,0,10,,,,,,,,,6,,,,53,0
51274,note_on,0,0,10,,,,,,,,,6,,,,56,62
51275,control_change,4,0,3,,,,,,,,,2,11,55,,,
51275,control_change,18,0,7,,,,,,,,,10,11,41,,,
51278,control_change,3,0,3,,,,,,,,,2,11,52,,,
51282,control_change,4,0,3,,,,,,,,,2,11,49,,,
51285,control_change,3,0,3,,,,,,,,,2,11,46,,,
51287,note_on,15,0,9,,,,,,,,,12,,,,74,0
51289,control_change,4,0,3,,,,,,,,,2,11,43,,,
51292,control_change,3,0,3,,,,,,,,,2,11,40,,,
51293,control_change,18,0,7,,,,,,,,,10,11,38,,,
51296,control_change,4,0,3,,,,,,,,,2,11,37,,,
51299,control_change,3,0,3,,,,,,,,,2,11,34,,,
51300,note_on,0,0,7,,,,,,,,,10,,,,80,90
51300,control_change,0,0,7,,,,,,,,,10,11,22,,,
51300,note_on,7,0,7,,,,,,,,,10,,,,77,0
51300,set_tempo,120,1,0,,,,,,1034483,,,,,,,,
51302,note_on,0,0,8,,,,,,,,,11,,,,70,74
51302,note_on,15,0,9,,,,,,,,,12,,,,77,68
51302,note_on,30,0,8,,,,,,,,,11,,,,65,0
51303,note_on,4,0,3,,,,,,,,,2,,,,74,0
51304,note_on,30,0,10,,,,,,,,,6,,,,56,0
51304,note_on,0,0,10,,,,,,,,,6,,,,55,62
51305,note_on,180,0,4,,,,,,,,,3,,,,68,95
51305,note_on,0,0,4,,,,,,,,,3,,,,56,95
51311,control_change,11,0,7,,,,,,,,,10,11,27,,,
51323,control_change,12,0,7,,,,,,,,,10,11,32,,,
51332,note_on,30,0,8,,,,,,,,,11,,,,70,0
51332,note_on,0,0,8,,,,,,,,,11,,,,67,74
51334,note_on,30,0,10,,,,,,,,,6,,,,55,0
51334,note_on,0,0,10,,,,,,,,,6,,,,58,62
51335,control_change,12,0,7,,,,,,,,,10,11,37,,,
51347,control_change,12,0,7,,,,,,,,,10,11,42,,,
51359,control_change,12,0,7,,,,,,,,,10,11,47,,,
51360,set_tempo,60,1,0,,,,,,937500,,,,,,,,
51362,note_on,0,0,8,,,,,,,,,11,,,,68,74
51362,note_on,30,0,8,,,,,,,,,11,,,,67,0
51364,note_on,0,0,10,,,,,,,,,6,,,,53,62
51364,note_on,30,0,10,,,,,,,,,6,,,,58,0
51392,control_change,90,0,9,,,,,,,,,12,11,52,,,
51392,note_on,0,0,8,,,,,,,,,11,,,,65,74
51392,note_on,30,0,8,,,,,,,,,11,,,,68,0
51394,note_on,30,0,10,,,,,,,,,6,,,,53,0
51394,note_on,0,0,10,,,,,,,,,6,,,,56,62
51396,control_change,4,0,9,,,,,,,,,12,11,49,,,
51400,control_change,4,0,9,,,,,,,,,12,11,46,,,
51405,control_change,5,0,9,,,,,,,,,12,11,43,,,
51409,control_change,4,0,9,,,,,,,,,12,11,40,,,
51413,control_change,4,0,9,,,,,,,,,12,11,37,,,
51418,note_on,295,0,5,,,,,,,,,4,,,,65,0
51418,control_change,5,0,9,,,,,,,,,12,11,34,,,
51420,control_change,61,0,7,,,,,,,,,10,11,47,,,
51420,note_on,295,0,6,,,,,,,,,5,,,,58,0
51422,note_on,4,0,9,,,,,,,,,12,,,,77,0
51422,note_on,30,0,8,,,,,,,,,11,,,,65,0
51422,note_on,0,0,8,,,,,,,,,11,,,,68,74
51423,note_on,5,0,5,,,,,,,,,4,,,,65,82
51424,note_on,30,0,10,,,,,,,,,6,,,,56,0
51424,note_on,0,0,10,,,,,,,,,6,,,,53,62
51425,note_on,5,0,6,,,,,,,,,5,,,,58,82
51437,control_change,17,0,7,,,,,,,,,10,11,44,,,
51452,note_on,0,0,8,,,,,,,,,11,,,,65,74
51452,note_on,30,0,8,,,,,,,,,11,,,,68,0
51454,note_on,0,0,10,,,,,,,,,6,,,,56,62
51454,note_on,30,0,10,,,,,,,,,6,,,,53,0
51455,control_change,18,0,7,,,,,,,,,10,11,41,,,
51473,control_change,18,0,7,,,,,,,,,10,11,38,,,
51480,note_on,7,0,7,,,,,,,,,10,,,,80,0
51480,set_tempo,120,1,0,,,,,,1034483,,,,,,,,
51482,note_on,30,0,8,,,,,,,,,11,,,,65,0
51482,note_on,0,0,8,,,,,,,,,11,,,,67,74
51484,note_on,0,0,10,,,,,,,,,6,,,,51,62
51484,note_on,30,0,10,,,,,,,,,6,,,,56,0
51485,note_on,0,0,4,,,,,,,,,3,,,,65,95
51485,note_on,0,0,4,,,,,,,,,3,,,,68,0
51485,note_on,0,0,4,,,,,,,,,3,,,,53,95
51485,note_on,180,0,4,,,,,,,,,3,,,,56,0
51512,note_on,0,0,8,,,,,,,,,11,,,,63,74
51512,note_on,30,0,8,,,,,,,,,11,,,,67,0
51514,note_on,30,0,10,,,,,,,,,6,,,,51,0
51514,note_on,0,0,10,,,,,,,,,6,,,,55,62
51540,set_tempo,60,1,0,,,,,,937500,,,,,,,,
51542,note_on,30,0,8,,,,,,,,,11,,,,63,0
51542,note_on,0,0,8,,,,,,,,,11,,,,65,74
51544,note_on,30,0,10,,,,,,,,,6,,,,55,0
51544,note_on,0,0,10,,,,,,,,,6,,,,50,62
51572,note_on,0,0,8,,,,,,,,,11,,,,62,74
51572,note_on,30,0,8,,,,,,,,,11,,,,65,0
51574,note_on,30,0,10,,,,,,,,,6,,,,50,0
51574,note_on,0,0,10,,,,,,,,,6,,,,53,62
51598,note_on,175,0,5,,,,,,,,,4,,,,65,0
51600,note_on,175,0,6,,,,,,,,,5,,,,58,0
51602,note_on,30,0,8,,,,,,,,,11,,,,62,0
51602,note_on,0,0,8,,,,,,,,,11,,,,65,74
51603,note_on,5,0,5,,,,,,,,,4,,,,65,82
51604,note_on,0,0,10,,,,,,,,,6,,,,50,62
51604,note_on,30,0,10,,,,,,,,,6,,,,53,0
51605,note_on,5,0,6,,,,,,,,,5,,,,58,82
51632,note_on,0,0,8,,,,,,,,,11,,,,62,74
51632,note_on,30,0,8,,,,,,,,,11,,,,65,0
51634,note_on,0,0,10,,,,,,,,,6,,,,53,62
51634,note_on,30,0,10,,,,,,,,,6,,,,50,0
51660,note_on,0,0,7,,,,,,,,,10,,,,70,90
51660,set_tempo,120,1,0,,,,,,1034483,,,,,,,,
51660,control_change,180,0,7,,,,,,,,,10,11,22,,,
51662,note_on,0,0,8,,,,,,,,,11,,,,63,74
51662,note_on,30,0,8,,,,,,,,,11,,,,62,0
51664,note_on,30,0,10,,,,,,,,,6,,,,53,0
51664,note_on,0,0,10,,,,,,,,,6,,,,48,62
51665,note_on,0,0,4,,,,,,,,,3,,,,53,0
51665,note_on,180,0,4,,,,,,,,,3,,,,65,0
51665,note_on,0,0,4,,,,,,,,,3,,,,46,95
51665,note_on,0,0,4,,,,,,,,,3,,,,58,95
51671,control_change,11,0,7,,,,,,,,,10,11,27,,,
51683,control_change,12,0,7,,,,,,,,,10,11,32,,,
51692,note_on,30,0,8,,,,,,,,,11,,,,63,0
51692,note_on,0,0,8,,,,,,,,,11,,,,60,74
51694,note_on,30,0,10,,,,,,,,,6,,,,48,0
51694,note_on,0,0,10,,,,,,,,,6,,,,51,62
51695,control_change,12,0,7,,,,,,,,,10,11,37,,,
51707,control_change,12,0,7,,,,,,,,,10,11,42,,,
51719,control_change,12,0,7,,,,,,,,,10,11,47,,,
51720,set_tempo,60,1,0,,,,,,937500,,,,,,,,
51722,note_on,0,0,8,,,,,,,,,11,,,,65,74
51722,note_on,30,0,8,,,,,,,,,11,,,,60,0
51723,note_on,0,0,3,,,,,,,,,2,,,,77,74
51723,control_change,420,0,3,,,,,,,,,2,11,70,,,
51724,note_on,30,0,10,,,,,,,,,6,,,,51,0
51724,note_on,0,0,10,,,,,,,,,6,,,,50,62
51752,note_on,30,0,8,,,,,,,,,11,,,,65,0
51752,note_on,0,0,8,,,,,,,,,11,,,,62,74
51753,note_on,0,0,3,,,,,,,,,2,,,,79,96
51753,note_on,30,0,3,,,,,,,,,2,,,,77,0
51754,note_on,0,0,10,,,,,,,,,6,,,,53,62
51754,note_on,30,0,10,,,,,,,,,6,,,,50,0
51778,note_on,175,0,5,,,,,,,,,4,,,,65,0
51780,control_change,61,0,7,,,,,,,,,10,11,47,,,
51780,note_on,175,0,6,,,,,,,,,5,,,,58,0
51782,note_on,0,0,8,,,,,,,,,11,,,,65,74
51782,note_on,30,0,8,,,,,,,,,11,,,,62,0
51783,note_on,0,0,3,,,,,,,,,2,,,,80,96
51783,note_on,30,0,3,,,,,,,,,2,,,,79,0
51783,note_on,5,0,5,,,,,,,,,4,,,,65,82
51784,note_on,30,0,10,,,,,,,,,6,,,,53,0
51784,note_on,0,0,10,,,,,,,,,6,,,,50,62
51785,note_on,5,0,6,,,,,,,,,5,,,,58,82
51797,control_change,17,0,7,,,,,,,,,10,11,44,,,
51812,note_on,30,0,8,,,,,,,,,11,,,,65,0
51812,note_on,0,0,8,,,,,,,,,11,,,,62,74
51813,note_on,30,0,3,,,,,,,,,2,,,,80,0
51813,note_on,0,0,3,,,,,,,,,2,,,,79,96
51814,note_on,0,0,10,,,,,,,,,6,,,,53,62
51814,note_on,30,0,10,,,,,,,,,6,,,,50,0
51815,control_change,18,0,7,,,,,,,,,10,11,41,,,
51833,control_change,18,0,7,,,,,,,,,10,11,38,,,
51837,note_on,25,0,8,,,,,,,,,11,,,,62,0
51838,note_on,25,0,3,,,,,,,,,2,,,,79,0
51838,note_on,55,0,5,,,,,,,,,4,,,,65,0
51839,note_on,25,0,10,,,,,,,,,6,,,,53,0
51840,note_on,55,0,6,,,,,,,,,5,,,,58,0
51840,set_tempo,120,1,0,,,,,,1034483,,,,,,,,
51840,note_on,7,0,7,,,,,,,,,10,,,,70,0
51840,control_change,0,0,7,,,,,,,,,10,11,22,,,
51840,note_on,0,0,7,,,,,,,,,10,,,,77,90
51842,note_on,0,0,9,,,,,,,,,12,,,,58,61
51842,control_change,420,0,9,,,,,,,,,12,11,52,,,
51842,note_on,5,0,8,,,,,,,,,11,,,,65,74
51843,note_on,5,0,3,,,,,,,,,2,,,,79,96
51843,note_on,5,0,5,,,,,,,,,4,,,,65,82
51844,note_on,5,0,10,,,,,,,,,6,,,,50,62
51845,note_on,5,0,6,,,,,,,,,5,,,,58,82
51845,note_on,180,0,4,,,,,,,,,3,,,,58,0
51845,note_on,0,0,4,,,,,,,,,3,,,,46,0
51845,note_on,600,0,11,,,,,,,,,13,,,,46,100
51848,note_on,600,0,12,,,,,,,,,14,,,,34,96
51851,control_change,11,0,7,,,,,,,,,10,11,27,,,
51857,note_on,15,0,9,,,,,,,,,12,,,,58,0
51863,control_change,12,0,7,,,,,,,,,10,11,32,,,
51872,note_on,15,0,9,,,,,,,,,12,,,,62,62
51872,note_on,30,0,8,,,,,,,,,11,,,,65,0
51872,note_on,0,0,8,,,,,,,,,11,,,,62,74
51874,note_on,0,0,10,,,,,,,,,6,,,,53,62
51874,note_on,30,0,10,,,,,,,,,6,,,,50,0
51875,control_change,12,0,7,,,,,,,,,10,11,37,,,
51887,note_on,15,0,9,,,,,,,,,12,,,,62,0
51887,control_change,12,0,7,,,,,,,,,10,11,42,,,
51899,control_change,12,0,7,,,,,,,,,10,11,47,,,
51900,set_tempo,60,1,0,,,,,,937500,,,,,,,,
51902,note_on,0,0,8,,,,,,,,,11,,,,68,74
51902,note_on,30,0,8,,,,,,,,,11,,,,62,0
51902,note_on,15,0,9,,,,,,,,,12,,,,65,64
51903,note_on,0,0,3,,,,,,,,,2,,,,77,81
51903,note_on,60,0,3,,,,,,,,,2,,,,79,0
51904,note_on,30,0,10,,,,,,,,,6,,,,53,0
51904,note_on,0,0,10,,,,,,,,,6,,,,53,62
51917,note_on,15,0,9,,,,,,,,,12,,,,65,0
51932,note_on,30,0,8,,,,,,,,,11,,,,68,0
51932,note_on,15,0,9,,,,,,,,,12,,,,68,66
51932,note_on,0,0,8,,,,,,,,,11,,,,65,74
51934,note_on,30,0,10,,,,,,,,,6,,,,53,0
51934,note_on,0,0,10,,,,,,,,,6,,,,56,62
51947,note_on,15,0,9,,,,,,,,,12,,,,68,0
51960,control_change,61,0,7,,,,,,,,,10,11,47,,,
51962,note_on,15,0,9,,,,,,,,,12,,,,70,66
51962,note_on,0,0,8,,,,,,,,,11,,,,68,74
51962,note_on,30,0,8,,,,,,,,,11,,,,65,0
51964,note_on,30,0,10,,,,,,,,,6,,,,56,0
51964,note_on,0,0,10,,,,,,,,,6,,,,53,62
51965,note_on,120,0,11,,,,,,,,,13,,,,46,0
51968,note_on,120,0,12,,,,,,,,,14,,,,34,0
51977,note_on,15,0,9,,,,,,,,,12,,,,70,0
51977,control_change,17,0,7,,,,,,,,,10,11,44,,,
51978,control_change,75,0,3,,,,,,,,,2,11,70,,,
51982,control_change,4,0,3,,,,,,,,,2,11,67,,,
51987,control_change,5,0,3,,,,,,,,,2,11,64,,,
51992,note_on,15,0,9,,,,,,,,,12,,,,74,67
51992,note_on,0,0,8,,,,,,,,,11,,,,65,74
51992,control_change,5,0,3,,,,,,,,,2,11,61,,,
51992,note_on,30,0,8,,,,,,,,,11,,,,68,0
51994,note_on,30,0,10,,,,,,,,,6,,,,53,0
51994,note_on,0,0,10,,,,,,,,,6,,,,56,62
51995,control_change,18,0,7,,,,,,,,,10,11,41,,,
51996,control_change,4,0,3,,,,,,,,,2,11,58,,,
52001,control_change,5,0,3,,,,,,,,,2,11,55,,,
52006,control_change,5,0,3,,,,,,,,,2,11,52,,,
52007,note_on,15,0,9,,,,,,,,,12,,,,74,0
52011,control_change,5,0,3,,,,,,,,,2,11,49,,,
52013,control_change,18,0,7,,,,,,,,,10,11,38,,,
52015,control_change,4,0,3,,,,,,,,,2,11,46,,,
52020,note_on,7,0,7,,,,,,,,,10,,,,77,0
52020,control_change,5,0,3,,,,,,,,,2,11,43,,,
52020,set_tempo,120,1,0,,,,,,1034483,,,,,,,,
52020,note_on,0,0,7,,,,,,,,,10,,,,80,90
52020,control_change,0,0,7,,,,,,,,,10,11,22,,,
52022,note_on,15,0,9,,,,,,,,,12,,,,77,68
52022,note_on,30,0,8,,,,,,,,,11,,,,65,0
52022,note_on,0,0,8,,,,,,,,,11,,,,70,74
52023,note_on,3,0,3,,,,,,,,,2,,,,77,0
52024,note_on,0,0,10,,,,,,,,,6,,,,55,62
52024,note_on,30,0,10,,,,,,,,,6,,,,56,0
52025,note_on,180,0,4,,,,,,,,,3,,,,68,95
52025,note_on,0,0,4,,,,,,,,,3,,,,56,95
52031,control_change,11,0,7,,,,,,,,,10,11,27,,,
52043,control_change,12,0,7,,,,,,,,,10,11,32,,,
52052,note_on,30,0,8,,,,,,,,,11,,,,70,0
52052,note_on,0,0,8,,,,,,,,,11,,,,67,74
52054,note_on,0,0,10,,,,,,,,,6,,,,58,62
52054,note_on,30,0,10,,,,,,,,,6,,,,55,0
52055,control_change,12,0,7,,,,,,,,,10,11,37,,,
52067,control_change,12,0,7,,,,,,,,,10,11,42,,,
52079,control_change,12,0,7,,,,,,,,,10,11,47,,,
52080,set_tempo,60,1,0,,,,,,937500,,,,,,,,
52082,note_on,30,0,8,,,,,,,,,11,,,,67,0
52082,note_on,0,0,8,,,,,,,,,11,,,,68,74
52084,note_on,30,0,10,,,,,,,,,6,,,,58,0
52084,note_on,0,0,10,,,,,,,,,6,,,,53,62
52112,note_on,0,0,8,,,,,,,,,11,,,,65,74
52112,control_change,90,0,9,,,,,,,,,12,11,52,,,
52112,note_on,30,0,8,,,,,,,,,11,,,,68,0
52114,note_on,0,0,10,,,,,,,,,6,,,,56,62
52114,note_on,30,0,10,,,,,,,,,6,,,,53,0
52116,control_change,4,0,9,,,,,,,,,12,11,49,,,
52120,control_change,4,0,9,,,,,,,,,12,11,46,,,
52125,control_change,5,0,9,,,,,,,,,12,11,43,,,
52129,control_change,4,0,9,,,,,,,,,12,11,40,,,
52133,control_change,4,0,9,,,,,,,,,12,11,37,,,
52138,note_on,295,0,5,,,,,,,,,4,,,,65,0
52138,control_change,5,0,9,,,,,,,,,12,11,34,,,
52140,note_on,295,0,6,,,,,,,,,5,,,,58,0
52142,note_on,0,0,8,,,,,,,,,11,,,,67,74
52142,note_on,30,0,8,,,,,,,,,11,,,,65,0
52142,note_on,4,0,9,,,,,,,,,12,,,,77,0
52143,note_on,5,0,5,,,,,,,,,4,,,,65,82
52144,note_on,0,0,10,,,,,,,,,6,,,,51,62
52144,note_on,30,0,10,,,,,,,,,6,,,,56,0
52145,note_on,5,0,6,,,,,,,,,5,,,,58,82
52172,note_on,30,0,8,,,,,,,,,11,,,,67,0
52172,note_on,0,0,8,,,,,,,,,11,,,,63,74
52174,note_on,0,0,10,,,,,,,,,6,,,,55,62
52174,note_on,30,0,10,,,,,,,,,6,,,,51,0
52200,set_tempo,120,1,0,,,,,,1034483,,,,,,,,
52200,note_on,121,0,7,,,,,,,,,10,,,,80,0
52202,note_on,30,0,8,,,,,,,,,11,,,,63,0
52202,note_on,0,0,8,,,,,,,,,11,,,,65,74
52204,note_on,0,0,10,,,,,,,,,6,,,,50,62
52204,note_on,30,0,10,,,,,,,,,6,,,,55,0
52205,note_on,0,0,4,,,,,,,,,3,,,,68,0
52205,note_on,180,0,4,,,,,,,,,3,,,,56,0
52205,note_on,0,0,4,,,,,,,,,3,,,,53,95
52205,note_on,0,0,4,,,,,,,,,3,,,,65,95
52232,note_on,30,0,8,,,,,,,,,11,,,,65,0
52232,note_on,0,0,8,,,,,,,,,11,,,,62,74
52234,note_on,30,0,10,,,,,,,,,6,,,,50,0
52234,note_on,0,0,10,,,,,,,,,6,,,,53,62
52260,set_tempo,60,1,0,,,,,,937500,,,,,,,,
52262,note_on,0,0,8,,,,,,,,,11,,,,63,74
52262,note_on,30,0,8,,,,,,,,,11,,,,62,0
52264,note_on,30,0,10,,,,,,,,,6,,,,53,0
52264,note_on,0,0,10,,,,,,,,,6,,,,48,62
52292,note_on,30,0,8,,,,,,,,,11,,,,63,0
52292,note_on,0,0,8,,,,,,,,,11,,,,60,74
52294,note_on,30,0,10,,,,,,,,,6,,,,48,0
52294,note_on,0,0,10,,,,,,,,,6,,,,51,62
52318,note_on,175,0,5,,,,,,,,,4,,,,65,0
52320,note_on,175,0,6,,,,,,,,,5,,,,58,0
52322,note_on,30,0,8,,,,,,,,,11,,,,60,0
52322,note_on,0,0,8,,,,,,,,,11,,,,62,74
52323,note_on,5,0,5,,,,,,,,,4,,,,65,82
52324,note_on,0,0,10,,,,,,,,,6,,,,46,62
52324,note_on,30,0,10,,,,,,,,,6,,,,51,0
52325,note_on,5,0,6,,,,,,,,,5,,,,58,82
52352,note_on,30,0,8,,,,,,,,,11,,,,62,0
52352,note_on,0,0,8,,,,,,,,,11,,,,58,74
52354,note_on,0,0,10,,,,,,,,,6,,,,50,62
52354,note_on,30,0,10,,,,,,,,,6,,,,46,0
52380,control_change,180,0,7,,,,,,,,,10,11,22,,,
52380,set_tempo,120,1,0,,,,,,1034483,,,,,,,,
52380,note_on,0,0,7,,,,,,,,,10,,,,70,90
52382,note_on,30,0,8,,,,,,,,,11,,,,58,0
52382,note_on,0,0,8,,,,,,,,,11,,,,60,74
52384,note_on,0,0,10,,,,,,,,,6,,,,44,62
52384,note_on,30,0,10,,,,,,,,,6,,,,50,0
52385,note_on,180,0,4,,,,,,,,,3,,,,65,0
52385,note_on,0,0,4,,,,,,,,,3,,,,53,0
52385,note_on,0,0,4,,,,,,,,,3,,,,58,95
52385,note_on,0,0,4,,,,,,,,,3,,,,46,95
52391,control_change,11,0,7,,,,,,,,,10,11,27,,,
52403,control_change,12,0,7,,,,,,,,,10,11,32,,,
52412,note_on,30,0,8,,,,,,,,,11,,,,60,0
52412,note_on,0,0,8,,,,,,,,,11,,,,56,74
52414,note_on,30,0,10,,,,,,,,,6,,,,44,0
52414,note_on,0,0,10,,,,,,,,,6,,,,48,62
52415,control_change,12,0,7,,,,,,,,,10,11,37,,,
52427,control_change,12,0,7,,,,,,,,,10,11,42,,,
52439,control_change,12,0,7,,,,,,,,,10,11,47,,,
52440,set_tempo,60,1,0,,,,,,937500,,,,,,,,
52442,note_on,0,0,8,,,,,,,,,11,,,,58,74
52442,note_on,30,0,8,,,,,,,,,11,,,,56,0
52443,note_on,0,0,3,,,,,,,,,2,,,,77,74
52443,control_change,420,0,3,,,,,,,,,2,11,70,,,
52444,note_on,0,0,10,,,,,,,,,6,,,,43,62
52444,note_on,30,0,10,,,,,,,,,6,,,,48,0
52472,note_on,0,0,8,,,,,,,,,11,,,,55,74
52472,note_on,30,0,8,,,,,,,,,11,,,,58,0
52474,note_on,0,0,10,,,,,,,,,6,,,,46,62
52474,note_on,30,0,10,,,,,,,,,6,,,,43,0
52498,note_on,175,0,5,,,,,,,,,4,,,,65,0
52500,note_on,175,0,6,,,,,,,,,5,,,,58,0
52500,control_change,61,0,7,,,,,,,,,10,11,47,,,
52502,note_on,30,0,8,,,,,,,,,11,,,,55,0
52502,note_on,0,0,8,,,,,,,,,11,,,,58,74
52503,note_on,60,0,3,,,,,,,,,2,,,,77,0
52503,note_on,0,0,3,,,,,,,,,2,,,,79,96
52503,note_on,5,0,5,,,,,,,,,4,,,,58,82
52504,note_on,30,0,10,,,,,,,,,6,,,,46,0
52504,note_on,0,0,10,,,,,,,,,6,,,,41,62
52505,note_on,5,0,6,,,,,,,,,5,,,,58,82
52517,control_change,17,0,7,,,,,,,,,10,11,44,,,
52532,note_on,30,0,8,,,,,,,,,11,,,,58,0
52532,note_on,0,0,8,,,,,,,,,11,,,,56,74
52533,note_on,30,0,3,,,,,,,,,2,,,,79,0
52533,note_on,0,0,3,,,,,,,,,2,,,,80,96
52534,note_on,30,0,10,,,,,,,,,6,,,,41,0
52534,note_on,0,0,10,,,,,,,,,6,,,,44,62
52535,control_change,18,0,7,,,,,,,,,10,11,41,,,
52553,control_change,18,0,7,,,,,,,,,10,11,38,,,
52557,note_on,25,0,8,,,,,,,,,11,,,,56,0
52558,note_on,55,0,5,,,,,,,,,4,,,,58,0
52558,note_on,25,0,3,,,,,,,,,2,,,,80,0
52559,note_on,25,0,10,,,,,,,,,6,,,,44,0
52560,note_on,55,0,6,,,,,,,,,5,,,,58,0
52560,set_tempo,120,1,0,,,,,,1034483,,,,,,,,
52560,control_change,0,0,7,,,,,,,,,10,11,22,,,
52560,note_on,0,0,7,,,,,,,,,10,,,,75,90
52560,note_on,7,0,7,,,,,,,,,10,,,,70,0
52562,control_change,420,0,9,,,,,,,,,12,11,52,,,
52562,note_on,5,0,8,,,,,,,,,11,,,,58,74
52562,note_on,0,0,9,,,,,,,,,12,,,,55,72
52563,note_on,5,0,5,,,,,,,,,4,,,,63,82
52563,note_on,0,0,3,,,,,,,,,2,,,,82,86
52563,note_on,5,0,3,,,,,,,,,2,,,,51,66
52564,note_on,0,0,10,,,,,,,,,6,,,,43,52
52564,note_on,5,0,10,,,,,,,,,6,,,,46,52
52565,note_on,0,0,4,,,,,,,,,3,,,,46,0
52565,note_on,5,0,6,,,,,,,,,5,,,,63,82
52565,note_on,180,0,4,,,,,,,,,3,,,,58,0
52571,control_change,11,0,7,,,,,,,,,10,11,27,,,
52583,control_change,12,0,7,,,,,,,,,10,11,32,,,
52592,note_on,30,0,9,,,,,,,,,12,,,,55,0
52592,note_on,0,0,9,,,,,,,,,12,,,,51,72
52592,note_on,30,0,8,,,,,,,,,11,,,,58,0
52592,note_on,0,0,8,,,,,,,,,11,,,,55,74
52594,note_on,30,0,10,,,,,,,,,6,,,,43,0
52594,note_on,0,0,10,,,,,,,,,6,,,,43,52
52594,note_on,0,0,10,,,,,,,,,6,,,,39,52
52594,note_on,0,0,10,,,,,,,,,6,,,,46,0
52595,control_change,12,0,7,,,,,,,,,10,11,37,,,
52607,control_change,12,0,7,,,,,,,,,10,11,42,,,
52619,control_change,12,0,7,,,,,,,,,10,11,47,,,
52620,set_tempo,60,1,0,,,,,,937500,,,,,,,,
52622,note_on,0,0,9,,,,,,,,,12,,,,55,72
52622,note_on,30,0,9,,,,,,,,,12,,,,51,0
52622,note_on,0,0,8,,,,,,,,,11,,,,58,74
52622,note_on,30,0,8,,,,,,,,,11,,,,55,0
52624,note_on,0,0,10,,,,,,,,,6,,,,46,52
52624,note_on,0,0,10,,,,,,,,,6,,,,43,52
52624,note_on,0,0,10,,,,,,,,,6,,,,39,0
52624,note_on,30,0,10,,,,,,,,,6,,,,43,0
52652,note_on,30,0,9,,,,,,,,,12,,,,55,0
52652,note_on,0,0,9,,,,,,,,,12,,,,51,72
52652,note_on,0,0,8,,,,,,,,,11,,,,55,74
52652,note_on,30,0,8,,,,,,,,,11,,,,58,0
52654,note_on,0,0,10,,,,,,,,,6,,,,43,0
52654,note_on,0,0,10,,,,,,,,,6,,,,43,52
52654,note_on,0,0,10,,,,,,,,,6,,,,39,52
52654,note_on,30,0,10,,,,,,,,,6,,,,46,0
52680,control_change,61,0,7,,,,,,,,,10,11,47,,,
52682,note_on,30,0,9,,,,,,,,,12,,,,51,0
52682,note_on,0,0,8,,,,,,,,,11,,,,58,74
52682,note_on,30,0,8,,,,,,,,,11,,,,55,0
52682,note_on,0,0,9,,,,,,,,,12,,,,55,72
52684,note_on,30,0,10,,,,,,,,,6,,,,43,0
52684,note_on,0,0,10,,,,,,,,,6,,,,39,0
52684,note_on,0,0,10,,,,,,,,,6,,,,46,52
52684,note_on,0,0,10,,,,,,,,,6,,,,43,52
52697,control_change,17,0,7,,,,,,,,,10,11,44,,,
52712,note_on,0,0,9,,,,,,,,,12,,,,51,72
52712,note_on,0,0,8,,,,,,,,,11,,,,55,74
52712,note_on,30,0,8,,,,,,,,,11,,,,58,0
52712,note_on,30,0,9,,,,,,,,,12,,,,55,0
52714,note_on,0,0,10,,,,,,,,,6,,,,39,52
52714,note_on,0,0,10,,,,,,,,,6,,,,43,52
52714,note_on,0,0,10,,,,,,,,,6,,,,46,0
52714,note_on,30,0,10,,,,,,,,,6,,,,43,0
52715,control_change,18,0,7,,,,,,,,,10,11,41,,,
52733,control_change,18,0,7,,,,,,,,,10,11,38,,,
52740,set_tempo,120,1,0,,,,,,1034483,,,,,,,,
52740,control_change,0,0,7,,,,,,,,,10,11,22,,,
52740,note_on,0,0,7,,,,,,,,,10,,,,63,90
52740,note_on,7,0,7,,,,,,,,,10,,,,75,0
52742,note_on,30,0,9,,,,,,,,,12,,,,51,0
52742,note_on,30,0,8,,,,,,,,,11,,,,55,0
52742,note_on,0,0,8,,,,,,,,,11,,,,58,74
52742,note_on,0,0,9,,,,,,,,,12,,,,55,72
52744,note_on,0,0,10,,,,,,,,,6,,,,43,52
52744,note_on,30,0,10,,,,,,,,,6,,,,43,0
52744,note_on,0,0,10,,,,,,,,,6,,,,39,0
52744,note_on,0,0,10,,,,,,,,,6,,,,46,52
52745,note_on,180,0,4,,,,,,,,,3,,,,58,95
52751,control_change,11,0,7,,,,,,,,,10,11,27,,,
52763,control_change,12,0,7,,,,,,,,,10,11,32,,,
52772,note_on,0,0,9,,,,,,,,,12,,,,51,72
52772,note_on,0,0,8,,,,,,,,,11,,,,55,74
52772,note_on,30,0,8,,,,,,,,,11,,,,58,0
52772,note_on,30,0,9,,,,,,,,,12,,,,55,0
52774,note_on,0,0,10,,,,,,,,,6,,,,46,0
52774,note_on,30,0,10,,,,,,,,,6,,,,43,0
52774,note_on,0,0,10,,,,,,,,,6,,,,39,52
52774,note_on,0,0,10,,,,,,,,,6,,,,43,52
52775,control_change,12,0,7,,,,,,,,,10,11,37,,,
52787,control_change,12,0,7,,,,,,,,,10,11,42,,,
52799,control_change,12,0,7,,,,,,,,,10,11,47,,,
52800,set_tempo,60,1,0,,,,,,937500,,,,,,,,
52802,note_on,0,0,9,,,,,,,,,12,,,,55,72
52802,note_on,30,0,9,,,,,,,,,12,,,,51,0
52802,note_on,0,0,8,,,,,,,,,11,,,,58,74
52802,note_on,30,0,8,,,,,,,,,11,,,,55,0
52803,note_on,0,0,3,,,,,,,,,2,,,,79,86
52803,note_on,240,0,3,,,,,,,,,2,,,,82,0
52804,note_on,0,0,10,,,,,,,,,6,,,,39,0
52804,note_on,30,0,10,,,,,,,,,6,,,,43,0
52804,note_on,0,0,10,,,,,,,,,6,,,,46,52
52804,note_on,0,0,10,,,,,,,,,6,,,,43,52
52832,note_on,30,0,9,,,,,,,,,12,,,,55,0
52832,note_on,0,0,9,,,,,,,,,12,,,,51,72
52832,note_on,0,0,8,,,,,,,,,11,,,,55,74
52832,note_on,30,0,8,,,,,,,,,11,,,,58,0
52834,note_on,0,0,10,,,,,,,,,6,,,,39,52
52834,note_on,30,0,10,,,,,,,,,6,,,,43,0
52834,note_on,0,0,10,,,,,,,,,6,,,,46,0
52834,note_on,0,0,10,,,,,,,,,6,,,,43,52
52860,control_change,61,0,7,,,,,,,,,10,11,47,,,
52862,note_on,30,0,9,,,,,,,,,12,,,,51,0
52862,note_on,0,0,9,,,,,,,,,12,,,,55,72
52862,note_on,0,0,8,,,,,,,,,11,,,,58,74
52862,note_on,30,0,8,,,,,,,,,11,,,,55,0
52863,note_on,60,0,3,,,,,,,,,2,,,,79,0
52863,note_on,0,0,3,,,,,,,,,2,,,,75,86
52864,note_on,30,0,10,,,,,,,,,6,,,,43,0
52864,note_on,0,0,10,,,,,,,,,6,,,,39,0
52864,note_on,0,0,10,,,,,,,,,6,,,,43,52
52864,note_on,0,0,10,,,,,,,,,6,,,,46,52
52877,control_change,17,0,7,,,,,,,,,10,11,44,,,
52892,note_on,0,0,9,,,,,,,,,12,,,,51,72
52892,note_on,30,0,9,,,,,,,,,12,,,,55,0
52892,note_on,0,0,8,,,,,,,,,11,,,,55,74
52892,note_on,30,0,8,,,,,,,,,11,,,,58,0
52894,note_on,0,0,10,,,,,,,,,6,,,,43,0
52894,note_on,30,0,10,,,,,,,,,6,,,,46,0
52894,note_on,0,0,10,,,,,,,,,6,,,,43,52
52894,note_on,0,0,10,,,,,,,,,6,,,,39,52
52895,control_change,18,0,7,,,,,,,,,10,11,41,,,
52913,control_change,18,0,7,,,,,,,,,10,11,38,,,
52917,note_on,25,0,9,,,,,,,,,12,,,,51,0
52917,note_on,25,0,8,,,,,,,,,11,,,,55,0
52918,note_on,55,0,3,,,,,,,,,2,,,,75,0
52919,note_on,0,0,10,,,,,,,,,6,,,,43,0
52919,note_on,25,0,10,,,,,,,,,6,,,,39,0
52920,set_tempo,120,1,0,,,,,,1034483,,,,,,,,
52920,note_on,7,0,7,,,,,,,,,10,,,,63,0
52922,note_on,5,0,8,,,,,,,,,11,,,,60,74
52922,note_on,5,0,9,,,,,,,,,12,,,,56,72
52923,note_on,5,0,3,,,,,,,,,2,,,,75,86
52924,note_on,5,0,10,,,,,,,,,6,,,,48,52
52924,note_on,0,0,10,,,,,,,,,6,,,,44,52
52925,note_on,0,0,4,,,,,,,,,3,,,,51,95
52925,note_on,180,0,4,,,,,,,,,3,,,,58,0
52952,note_on,30,0,8,,,,,,,,,11,,,,60,0
52952,note_on,0,0,8,,,,,,,,,11,,,,56,74
52952,note_on,30,0,9,,,,,,,,,12,,,,56,0
52952,note_on,0,0,9,,,,,,,,,12,,,,51,72
52954,note_on,30,0,10,,,,,,,,,6,,,,44,0
52954,note_on,0,0,10,,,,,,,,,6,,,,48,0
52954,note_on,0,0,10,,,,,,,,,6,,,,39,52
52954,note_on,0,0,10,,,,,,,,,6,,,,44,52
52980,set_tempo,60,1,0,,,,,,937500,,,,,,,,
52982,note_on,30,0,9,,,,,,,,,12,,,,51,0
52982,note_on,0,0,9,,,,,,,,,12,,,,56,72
52982,note_on,30,0,8,,,,,,,,,11,,,,56,0
52982,note_on,0,0,8,,,,,,,,,11,,,,60,74
52984,note_on,0,0,10,,,,,,,,,6,,,,39,0
52984,note_on,30,0,10,,,,,,,,,6,,,,44,0
52984,note_on,0,0,10,,,,,,,,,6,,,,48,52
52984,note_on,0,0,10,,,,,,,,,6,,,,44,52
53012,note_on,0,0,9,,,,,,,,,12,,,,51,72
53012,note_on,0,0,8,,,,,,,,,11,,,,56,74
53012,note_on,30,0,9,,,,,,,,,12,,,,56,0
53012,note_on,30,0,8,,,,,,,,,11,,,,60,0
53014,note_on,0,0,10,,,,,,,,,6,,,,48,0
53014,note_on,30,0,10,,,,,,,,,6,,,,44,0
53014,note_on,0,0,10,,,,,,,,,6,,,,39,52
53014,note_on,0,0,10,,,,,,,,,6,,,,44,52
53042,note_on,0,0,9,,,,,,,,,12,,,,56,72
53042,note_on,30,0,9,,,,,,,,,12,,,,51,0
53042,note_on,30,0,8,,,,,,,,,11,,,,56,0
53042,note_on,0,0,8,,,,,,,,,11,,,,60,74
53044,note_on,30,0,10,,,,,,,,,6,,,,44,0
53044,note_on,0,0,10,,,,,,,,,6,,,,48,52
53044,note_on,0,0,10,,,,,,,,,6,,,,39,0
53044,note_on,0,0,10,,,,,,,,,6,,,,44,52
53068,note_on,145,0,3,,,,,,,,,2,,,,75,0
53072,note_on,30,0,8,,,,,,,,,11,,,,60,0
53072,note_on,30,0,9,,,,,,,,,12,,,,56,0
53072,note_on,0,0,9,,,,,,,,,12,,,,51,72
53072,note_on,0,0,8,,,,,,,,,11,,,,56,74
53073,note_on,5,0,3,,,,,,,,,2,,,,77,86
53074,note_on,0,0,10,,,,,,,,,6,,,,39,52
53074,note_on,30,0,10,,,,,,,,,6,,,,48,0
53074,note_on,0,0,10,,,,,,,,,6,,,,44,0
53074,note_on,0,0,10,,,,,,,,,6,,,,44,52
53083,note_on,10,0,3,,,,,,,,,2,,,,77,0
53083,note_on,0,0,3,,,,,,,,,2,,,,75,86
53093,note_on,10,0,3,,,,,,,,,2,,,,75,0
53093,note_on,0,0,3,,,,,,,,,2,,,,74,86
53100,note_on,0,0,7,,,,,,,,,10,,,,63,90
53100,control_change,180,0,7,,,,,,,,,10,11,22,,,
53100,set_tempo,120,1,0,,,,,,1034483,,,,,,,,
53102,note_on,0,0,8,,,,,,,,,11,,,,60,74
53102,note_on,30,0,8,,,,,,,,,11,,,,56,0
53102,note_on,30,0,9,,,,,,,,,12,,,,51,0
53102,note_on,0,0,9,,,,,,,,,12,,,,56,72
53103,note_on,0,0,3,,,,,,,,,2,,,,75,86
53103,note_on,10,0,3,,,,,,,,,2,,,,74,0
53104,note_on,0,0,10,,,,,,,,,6,,,,44,52
53104,note_on,0,0,10,,,,,,,,,6,,,,48,52
53104,note_on,30,0,10,,,,,,,,,6,,,,39,0
53104,note_on,0,0,10,,,,,,,,,6,,,,44,0
53105,note_on,180,0,4,,,,,,,,,3,,,,51,0
53105,note_on,0,0,4,,,,,,,,,3,,,,60,95
53111,control_change,11,0,7,,,,,,,,,10,11,27,,,
53123,control_change,12,0,7,,,,,,,,,10,11,32,,,
53132,note_on,30,0,9,,,,,,,,,12,,,,56,0
53132,note_on,0,0,8,,,,,,,,,11,,,,56,74
53132,note_on,0,0,9,,,,,,,,,12,,,,51,72
53132,note_on,30,0,8,,,,,,,,,11,,,,60,0
53134,note_on,30,0,10,,,,,,,,,6,,,,48,0
53134,note_on,0,0,10,,,,,,,,,6,,,,44,0
53134,note_on,0,0,10,,,,,,,,,6,,,,44,52
53134,note_on,0,0,10,,,,,,,,,6,,,,39,52
53135,control_change,12,0,7,,,,,,,,,10,11,37,,,
53147,control_change,12,0,7,,,,,,,,,10,11,42,,,
53159,control_change,12,0,7,,,,,,,,,10,11,47,,,
53160,set_tempo,60,1,0,,,,,,937500,,,,,,,,
53162,note_on,0,0,9,,,,,,,,,12,,,,56,72
53162,note_on,30,0,9,,,,,,,,,12,,,,51,0
53162,note_on,0,0,8,,,,,,,,,11,,,,60,74
53162,note_on,30,0,8,,,,,,,,,11,,,,56,0
53163,note_on,60,0,3,,,,,,,,,2,,,,75,0
53163,note_on,0,0,3,,,,,,,,,2,,,,80,86
53164,note_on,0,0,10,,,,,,,,,6,,,,44,52
53164,note_on,30,0,10,,,,,,,,,6,,,,39,0
53164,note_on,0,0,10,,,,,,,,,6,,,,48,52
53164,note_on,0,0,10,,,,,,,,,6,,,,44,0
53192,note_on,0,0,9,,,,,,,,,12,,,,51,72
53192,note_on,30,0,9,,,,,,,,,12,,,,56,0
53192,note_on,30,0,8,,,,,,,,,11,,,,60,0
53192,note_on,0,0,8,,,,,,,,,11,,,,56,74
53194,note_on,0,0,10,,,,,,,,,6,,,,44,52
53194,note_on,0,0,10,,,,,,,,,6,,,,48,0
53194,note_on,0,0,10,,,,,,,,,6,,,,39,52
53194,note_on,30,0,10,,,,,,,,,6,,,,44,0
53220,control_change,61,0,7,,,,,,,,,10,11,47,,,
53222,note_on,0,0,9,,,,,,,,,12,,,,56,72
53222,note_on,30,0,9,,,,,,,,,12,,,,51,0
53222,note_on,0,0,8,,,,,,,,,11,,,,60,74
53222,note_on,30,0,8,,,,,,,,,11,,,,56,0
53223,note_on,0,0,3,,,,,,,,,2,,,,84,86
53223,note_on,60,0,3,,,,,,,,,2,,,,80,0
53224,note_on,0,0,10,,,,,,,,,6,,,,48,52
53224,note_on,30,0,10,,,,,,,,,6,,,,44,0
53224,note_on,0,0,10,,,,,,,,,6,,,,39,0
53224,note_on,0,0,10,,,,,,,,,6,,,,44,52
53237,control_change,17,0,7,,,,,,,,,10,11,44,,,
53252,note_on,0,0,9,,,,,,,,,12,,,,51,72
53252,note_on,30,0,9,,,,,,,,,12,,,,56,0
53252,note_on,0,0,8,,,,,,,,,11,,,,56,74
53252,note_on,30,0,8,,,,,,,,,11,,,,60,0
53253,note_on,30,0,3,,,,,,,,,2,,,,84,0
53253,note_on,0,0,3,,,,,,,,,2,,,,82,86
53254,note_on,30,0,10,,,,,,,,,6,,,,44,0
53254,note_on,0,0,10,,,,,,,,,6,,,,48,0
53254,note_on,0,0,10,,,,,,,,,6,,,,39,52
53254,note_on,0,0,10,,,,,,,,,6,,,,44,52
53255,control_change,18,0,7,,,,,,,,,10,11,41,,,
53273,control_change,18,0,7,,,,,,,,,10,11,38,,,
53277,note_on,25,0,8,,,,,,,,,11,,,,56,0
53277,note_on,25,0,9,,,,,,,,,12,,,,51,0
53278,note_on,25,0,3,,,,,,,,,2,,,,82,0
53279,note_on,25,0,10,,,,,,,,,6,,,,44,0
53279,note_on,0,0,10,,,,,,,,,6,,,,39,0
53280,note_on,7,0,7,,,,,,,,,10,,,,63,0
53280,control_change,0,0,7,,,,,,,,,10,11,22,,,
53280,note_on,0,0,7,,,,,,,,,10,,,,75,90
53280,set_tempo,120,1,0,,,,,,1034483,,,,,,,,
53282,note_on,5,0,9,,,,,,,,,12,,,,55,72
53282,note_on,5,0,8,,,,,,,,,11,,,,58,74
53283,note_on,5,0,3,,,,,,,,,2,,,,82,86
53284,note_on,5,0,10,,,,,,,,,6,,,,46,52
53284,note_on,0,0,10,,,,,,,,,6,,,,43,52
53285,note_on,180,0,4,,,,,,,,,3,,,,60,0
53291,control_change,11,0,7,,,,,,,,,10,11,27,,,
53303,control_change,12,0,7,,,,,,,,,10,11,32,,,
53312,note_on,0,0,9,,,,,,,,,12,,,,51,72
53312,note_on,30,0,9,,,,,,,,,12,,,,55,0
53312,note_on,0,0,8,,,,,,,,,11,,,,55,74
53312,note_on,30,0,8,,,,,,,,,11,,,,58,0
53314,note_on,0,0,10,,,,,,,,,6,,,,39,52
53314,note_on,0,0,10,,,,,,,,,6,,,,43,52
53314,note_on,30,0,10,,,,,,,,,6,,,,43,0
53314,note_on,0,0,10,,,,,,,,,6,,,,46,0
53315,control_change,12,0,7,,,,,,,,,10,11,37,,,
53327,control_change,12,0,7,,,,,,,,,10,11,42,,,
53339,control_change,12,0,7,,,,,,,,,10,11,47,,,
53340,set_tempo,60,1,0,,,,,,937500,,,,,,,,
53342,note_on,0,0,9,,,,,,,,,12,,,,55,72
53342,note_on,30,0,9,,,,,,,,,12,,,,51,0
53342,note_on,30,0,8,,,,,,,,,11,,,,55,0
53342,note_on,0,0,8,,,,,,,,,11,,,,58,74
53344,note_on,0,0,10,,,,,,,,,6,,,,46,52
53344,note_on,0,0,10,,,,,,,,,6,,,,39,0
53344,note_on,30,0,10,,,,,,,,,6,,,,43,0
53344,note_on,0,0,10,,,,,,,,,6,,,,43,52
53372,note_on,0,0,8,,,,,,,,,11,,,,55,74
53372,note_on,30,0,9,,,,,,,,,12,,,,55,0
53372,note_on,0,0,9,,,,,,,,,12,,,,51,72
53372,note_on,30,0,8,,,,,,,,,11,,,,58,0
53374,note_on,30,0,10,,,,,,,,,6,,,,43,0
53374,note_on,0,0,10,,,,,,,,,6,,,,43,52
53374,note_on,0,0,10,,,,,,,,,6,,,,39,52
53374,note_on,0,0,10,,,,,,,,,6,,,,46,0
53400,control_change,61,0,7,,,,,,,,,10,11,47,,,
53402,note_on,30,0,9,,,,,,,,,12,,,,51,0
53402,note_on,0,0,8,,,,,,,,,11,,,,58,74
53402,note_on,30,0,8,,,,,,,,,11,,,,55,0
53402,note_on,0,0,9,,,,,,,,,12,,,,55,72
53404,note_on,30,0,10,,,,,,,,,6,,,,43,0
53404,note_on,0,0,10,,,,,,,,,6,,,,39,0
53404,note_on,0,0,10,,,,,,,,,6,,,,43,52
53404,note_on,0,0,10,,,,,,,,,6,,,,46,52
53417,control_change,17,0,7,,,,,,,,,10,11,44,,,
53432,note_on,30,0,9,,,,,,,,,12,,,,55,0
53432,note_on,0,0,8,,,,,,,,,11,,,,55,74
53432,note_on,30,0,8,,,,,,,,,11,,,,58,0
53432,note_on,0,0,9,,,,,,,,,12,,,,51,72
53434,note_on,0,0,10,,,,,,,,,6,,,,43,52
53434,note_on,0,0,10,,,,,,,,,6,,,,39,52
53434,note_on,30,0,10,,,,,,,,,6,,,,46,0
53434,note_on,0,0,10,,,,,,,,,6,,,,43,0
53435,control_change,18,0,7,,,,,,,,,10,11,41,,,
53453,control_change,18,0,7,,,,,,,,,10,11,38,,,
53460,note_on,0,0,7,,,,,,,,,10,,,,63,90
53460,control_change,0,0,7,,,,,,,,,10,11,22,,,
53460,note_on,7,0,7,,,,,,,,,10,,,,75,0
53460,set_tempo,120,1,0,,,,,,1034483,,,,,,,,
53462,note_on,30,0,9,,,,,,,,,12,,,,51,0
53462,note_on,0,0,9,,,,,,,,,12,,,,55,72
53462,note_on,30,0,8,,,,,,,,,11,,,,55,0
53462,note_on,0,0,8,,,,,,,,,11,,,,58,74
53464,note_on,30,0,10,,,,,,,,,6,,,,43,0
53464,note_on,0,0,10,,,,,,,,,6,,,,39,0
53464,note_on,0,0,10,,,,,,,,,6,,,,46,52
53464,note_on,0,0,10,,,,,,,,,6,,,,43,52
53465,note_on,180,0,4,,,,,,,,,3,,,,58,95
53471,control_change,11,0,7,,,,,,,,,10,11,27,,,
53483,control_change,12,0,7,,,,,,,,,10,11,32,,,
53492,note_on,30,0,9,,,,,,,,,12,,,,55,0
53492,note_on,0,0,9,,,,,,,,,12,,,,51,72
53492,note_on,30,0,8,,,,,,,,,11,,,,58,0
53492,note_on,0,0,8,,,,,,,,,11,,,,55,74
53493,note_on,210,0,3,,,,,,,,,2,,,,82,0
53493,note_on,0,0,3,,,,,,,,,2,,,,79,86
53494,note_on,0,0,10,,,,,,,,,6,,,,43,52
53494,note_on,0,0,10,,,,,,,,,6,,,,46,0
53494,note_on,30,0,10,,,,,,,,,6,,,,43,0
53494,note_on,0,0,10,,,,,,,,,6,,,,39,52
53495,control_change,12,0,7,,,,,,,,,10,11,37,,,
53507,control_change,12,0,7,,,,,,,,,10,11,42,,,
53519,control_change,12,0,7,,,,,,,,,10,11,47,,,
53520,set_tempo,60,1,0,,,,,,937500,,,,,,,,
53522,note_on,30,0,9,,,,,,,,,12,,,,51,0
53522,note_on,30,0,8,,,,,,,,,11,,,,55,0
53522,note_on,0,0,8,,,,,,,,,11,,,,58,74
53522,note_on,0,0,9,,,,,,,,,12,,,,55,72
53523,note_on,0,0,3,,,,,,,,,2,,,,82,87
53523,note_on,30,0,3,,,,,,,,,2,,,,79,0
53524,note_on,0,0,10,,,,,,,,,6,,,,46,52
53524,note_on,0,0,10,,,,,,,,,6,,,,39,0
53524,note_on,30,0,10,,,,,,,,,6,,,,43,0
53524,note_on,0,0,10,,,,,,,,,6,,,,43,52
53552,note_on,30,0,9,,,,,,,,,12,,,,55,0
53552,note_on,0,0,9,,,,,,,,,12,,,,51,72
53552,note_on,30,0,8,,,,,,,,,11,,,,58,0
53552,note_on,0,0,8,,,,,,,,,11,,,,55,74
53553,note_on,30,0,3,,,,,,,,,2,,,,82,0
53553,note_on,0,0,3,,,,,,,,,2,,,,79,89
53554,note_on,30,0,10,,,,,,,,,6,,,,43,0
53554,note_on,0,0,10,,,,,,,,,6,,,,43,52
53554,note_on,0,0,10,,,,,,,,,6,,,,46,0
53554,note_on,0,0,10,,,,,,,,,6,,,,39,52
53580,control_change,61,0,7,,,,,,,,,10,11,47,,,
53582,note_on,30,0,9,,,,,,,,,12,,,,51,0
53582,note_on,0,0,9,,,,,,,,,12,,,,55,72
53582,note_on,30,0,8,,,,,,,,,11,,,,55,0
53582,note_on,0,0,8,,,,,,,,,11,,,,58,74
53583,note_on,0,0,3,,,,,,,,,2,,,,75,92
53583,note_on,30,0,3,,,,,,,,,2,,,,79,0
53584,note_on,0,0,10,,,,,,,,,6,,,,43,0
53584,note_on,0,0,10,,,,,,,,,6,,,,43,52
53584,note_on,30,0,10,,,,,,,,,6,,,,39,0
53584,note_on,0,0,10,,,,,,,,,6,,,,46,52
53597,control_change,17,0,7,,,,,,,,,10,11,44,,,
53608,note_on,25,0,3,,,,,,,,,2,,,,75,0
53612,note_on,30,0,9,,,,,,,,,12,,,,55,0
53612,note_on,30,0,8,,,,,,,,,11,,,,58,0
53612,note_on,0,0,9,,,,,,,,,12,,,,51,72
53612,note_on,0,0,8,,,,,,,,,11,,,,55,74
53613,note_on,5,0,3,,,,,,,,,2,,,,75,94
53614,note_on,0,0,10,,,,,,,,,6,,,,39,52
53614,note_on,0,0,10,,,,,,,,,6,,,,43,52
53614,note_on,0,0,10,,,,,,,,,6,,,,43,0
53614,note_on,30,0,10,,,,,,,,,6,,,,46,0
53615,control_change,18,0,7,,,,,,,,,10,11,41,,,
53633,control_change,18,0,7,,,,,,,,,10,11,38,,,
53637,note_on,25,0,9,,,,,,,,,12,,,,51,0
53637,note_on,25,0,8,,,,,,,,,11,,,,55,0
53638,note_on,25,0,3,,,,,,,,,2,,,,75,0
53639,note_on,25,0,10,,,,,,,,,6,,,,39,0
53639,note_on,0,0,10,,,,,,,,,6,,,,43,0
53640,set_tempo,120,1,0,,,,,,1034483,,,,,,,,
53640,note_on,7,0,7,,,,,,,,,10,,,,63,0
53642,note_on,5,0,9,,,,,,,,,12,,,,56,72
53642,note_on,5,0,8,,,,,,,,,11,,,,60,74
53643,note_on,5,0,3,,,,,,,,,2,,,,75,93
53644,note_on,0,0,10,,,,,,,,,6,,,,48,52
53644,note_on,5,0,10,,,,,,,,,6,,,,44,52
53645,note_on,180,0,4,,,,,,,,,3,,,,58,0
53645,note_on,0,0,4,,,,,,,,,3,,,,51,95
53672,note_on,30,0,8,,,,,,,,,11,,,,60,0
53672,note_on,0,0,8,,,,,,,,,11,,,,56,74
53672,note_on,30,0,9,,,,,,,,,12,,,,56,0
53672,note_on,0,0,9,,,,,,,,,12,,,,51,72
53674,note_on,30,0,10,,,,,,,,,6,,,,48,0
53674,note_on,0,0,10,,,,,,,,,6,,,,44,0
53674,note_on,0,0,10,,,,,,,,,6,,,,39,52
53674,note_on,0,0,10,,,,,,,,,6,,,,44,52
53700,set_tempo,60,1,0,,,,,,937500,,,,,,,,
53702,note_on,0,0,9,,,,,,,,,12,,,,56,72
53702,note_on,30,0,9,,,,,,,,,12,,,,51,0
53702,note_on,0,0,8,,,,,,,,,11,,,,60,74
53702,note_on,30,0,8,,,,,,,,,11,,,,56,0
53704,note_on,0,0,10,,,,,,,,,6,,,,48,52
53704,note_on,30,0,10,,,,,,,,,6,,,,44,0
53704,note_on,0,0,10,,,,,,,,,6,,,,44,52
53704,note_on,0,0,10,,,,,,,,,6,,,,39,0
53732,note_on,0,0,8,,,,,,,,,11,,,,56,74
53732,note_on,30,0,8,,,,,,,,,11,,,,60,0
53732,note_on,30,0,9,,,,,,,,,12,,,,56,0
53732,note_on,0,0,9,,,,,,,,,12,,,,51,72
53734,note_on,30,0,10,,,,,,,,,6,,,,44,0
53734,note_on,0,0,10,,,,,,,,,6,,,,39,52
53734,note_on,0,0,10,,,,,,,,,6,,,,44,52
53734,note_on,0,0,10,,,,,,,,,6,,,,48,0
53762,note_on,0,0,8,,,,,,,,,11,,,,60,74
53762,note_on,30,0,9,,,,,,,,,12,,,,51,0
53762,note_on,0,0,9,,,,,,,,,12,,,,56,72
53762,note_on,30,0,8,,,,,,,,,11,,,,56,0
53764,note_on,0,0,10,,,,,,,,,6,,,,48,52
53764,note_on,0,0,10,,,,,,,,,6,,,,44,52
53764,note_on,30,0,10,,,,,,,,,6,,,,44,0
53764,note_on,0,0,10,,,,,,,,,6,,,,39,0
53792,note_on,0,0,8,,,,,,,,,11,,,,56,74
53792,note_on,0,0,9,,,,,,,,,12,,,,51,72
53792,note_on,30,0,8,,,,,,,,,11,,,,60,0
53792,note_on,30,0,9,,,,,,,,,12,,,,56,0
53794,note_on,0,0,10,,,,,,,,,6,,,,39,52
53794,note_on,0,0,10,,,,,,,,,6,,,,44,52
53794,note_on,30,0,10,,,,,,,,,6,,,,44,0
53794,note_on,0,0,10,,,,,,,,,6,,,,48,0
53818,note_on,175,0,3,,,,,,,,,2,,,,75,0
53820,note_on,0,0,7,,,,,,,,,10,,,,63,90
53820,control_change,180,0,7,,,,,,,,,10,11,22,,,
53820,set_tempo,120,1,0,,,,,,1034483,,,,,,,,
53822,note_on,0,0,9,,,,,,,,,12,,,,56,72
53822,note_on,30,0,9,,,,,,,,,12,,,,51,0
53822,note_on,0,0,8,,,,,,,,,11,,,,60,74
53822,note_on,30,0,8,,,,,,,,,11,,,,56,0
53823,note_on,5,0,3,,,,,,,,,2,,,,77,96
53824,note_on,0,0,10,,,,,,,,,6,,,,48,52
53824,note_on,0,0,10,,,,,,,,,6,,,,44,52
53824,note_on,0,0,10,,,,,,,,,6,,,,39,0
53824,note_on,30,0,10,,,,,,,,,6,,,,44,0
53825,note_on,0,0,4,,,,,,,,,3,,,,60,95
53825,control_change,5,0,7,,,,,,,,,10,11,38,,,
53825,note_on,180,0,4,,,,,,,,,3,,,,51,0
53833,note_on,10,0,3,,,,,,,,,2,,,,77,0
53833,note_on,0,0,3,,,,,,,,,2,,,,75,96
53843,control_change,18,0,7,,,,,,,,,10,11,41,,,
53852,note_on,30,0,8,,,,,,,,,11,,,,60,0
53852,note_on,0,0,8,,,,,,,,,11,,,,56,74
53852,note_on,30,0,9,,,,,,,,,12,,,,56,0
53852,note_on,0,0,9,,,,,,,,,12,,,,51,72
53853,note_on,0,0,3,,,,,,,,,2,,,,74,95
53853,note_on,20,0,3,,,,,,,,,2,,,,75,0
53854,note_on,0,0,10,,,,,,,,,6,,,,44,52
53854,note_on,0,0,10,,,,,,,,,6,,,,39,52
53854,note_on,0,0,10,,,,,,,,,6,,,,48,0
53854,note_on,30,0,10,,,,,,,,,6,,,,44,0
53861,control_change,18,0,7,,,,,,,,,10,11,44,,,
53879,control_change,18,0,7,,,,,,,,,10,11,47,,,
53880,set_tempo,60,1,0,,,,,,937500,,,,,,,,
53882,note_on,30,0,8,,,,,,,,,11,,,,56,0
53882,note_on,0,0,9,,,,,,,,,12,,,,56,72
53882,note_on,30,0,9,,,,,,,,,12,,,,51,0
53882,note_on,0,0,8,,,,,,,,,11,,,,60,74
53883,note_on,30,0,3,,,,,,,,,2,,,,74,0
53883,note_on,0,0,3,,,,,,,,,2,,,,75,93
53884,note_on,0,0,10,,,,,,,,,6,,,,48,52
53884,note_on,0,0,10,,,,,,,,,6,,,,44,52
53884,note_on,0,0,10,,,,,,,,,6,,,,39,0
53884,note_on,30,0,10,,,,,,,,,6,,,,44,0
53912,note_on,0,0,9,,,,,,,,,12,,,,51,72
53912,note_on,0,0,8,,,,,,,,,11,,,,56,74
53912,note_on,30,0,9,,,,,,,,,12,,,,56,0
53912,note_on,30,0,8,,,,,,,,,11,,,,60,0
53913,note_on,30,0,3,,,,,,,,,2,,,,75,0
53913,note_on,0,0,3,,,,,,,,,2,,,,80,91
53914,note_on,30,0,10,,,,,,,,,6,,,,48,0
53914,note_on,0,0,10,,,,,,,,,6,,,,44,0
53914,note_on,0,0,10,,,,,,,,,6,,,,44,52
53914,note_on,0,0,10,,,,,,,,,6,,,,39,52
53940,control_change,61,0,7,,,,,,,,,10,11,47,,,
53942,note_on,0,0,9,,,,,,,,,12,,,,56,72
53942,note_on,30,0,9,,,,,,,,,12,,,,51,0
53942,note_on,30,0,8,,,,,,,,,11,,,,56,0
53942,note_on,0,0,8,,,,,,,,,11,,,,60,74
53943,note_on,0,0,3,,,,,,,,,2,,,,84,89
53943,note_on,30,0,3,,,,,,,,,2,,,,80,0
53944,note_on,0,0,10,,,,,,,,,6,,,,39,0
53944,note_on,0,0,10,,,,,,,,,6,,,,48,52
53944,note_on,0,0,10,,,,,,,,,6,,,,44,52
53944,note_on,30,0,10,,,,,,,,,6,,,,44,0
53957,control_change,17,0,7,,,,,,,,,10,11,44,,,
53972,note_on,0,0,8,,,,,,,,,11,,,,56,74
53972,note_on,30,0,8,,,,,,,,,11,,,,60,0
53972,note_on,30,0,9,,,,,,,,,12,,,,56,0
53972,note_on,0,0,9,,,,,,,,,12,,,,51,72
53973,note_on,0,0,3,,,,,,,,,2,,,,82,87
53973,note_on,30,0,3,,,,,,,,,2,,,,84,0
53974,note_on,30,0,10,,,,,,,,,6,,,,48,0
53974,note_on,0,0,10,,,,,,,,,6,,,,44,0
53974,note_on,0,0,10,,,,,,,,,6,,,,39,52
53974,note_on,0,0,10,,,,,,,,,6,,,,44,52
53975,control_change,18,0,7,,,,,,,,,10,11,41,,,
53993,control_change,18,0,7,,,,,,,,,10,11,38,,,
53997,note_on,25,0,9,,,,,,,,,12,,,,51,0
53997,note_on,25,0,8,,,,,,,,,11,,,,56,0
53998,note_on,1435,0,5,,,,,,,,,4,,,,63,0
53998,note_on,25,0,3,,,,,,,,,2,,,,82,0
53998,note_on,0,0,3,,,,,,,,,2,,,,51,0
53999,note_on,25,0,10,,,,,,,,,6,,,,44,0
53999,note_on,0,0,10,,,,,,,,,6,,,,39,0
54000,note_on,1435,0,6,,,,,,,,,5,,,,63,0
54000,set_tempo,120,1,0,,,,,,1034483,,,,,,,,
54000,note_on,7,0,7,,,,,,,,,10,,,,63,0
54000,note_on,0,0,7,,,,,,,,,10,,,,75,103
54000,note_on,175,0,4,,,,,,,,,3,,,,60,0
54002,control_change,5,0,8,,,,,,,,,11,11,47,,,
54002,note_on,0,0,8,,,,,,,,,11,,,,58,103
54002,note_on,0,0,9,,,,,,,,,12,,,,51,101
54002,control_change,5,0,9,,,,,,,,,12,11,47,,,
54003,control_change,5,0,5,,,,,,,,,4,11,42,,,
54003,note_on,0,0,5,,,,,,,,,4,,,,63,82
54003,note_on,0,0,3,,,,,,,,,2,,,,82,96
54003,control_change,5,0,3,,,,,,,,,2,11,70,,,
54004,control_change,5,0,10,,,,,,,,,6,11,47,,,
54004,note_on,0,0,10,,,,,,,,,6,,,,43,104
54004,program_change,2039,0,11,,,,,,,,45,13,,,,,
54005,note_on,0,0,11,,,,,,,,,13,,,,43,45
54005,control_change,5,0,4,,,,,,,,,3,11,47,,,
54005,note_on,0,0,4,,,,,,,,,3,,,,58,95
54005,note_on,5,0,6,,,,,,,,,5,,,,63,82
54005,control_change,0,0,6,,,,,,,,,5,11,42,,,
54005,control_change,1,0,11,,,,,,,,,13,11,100,,,
54007,program_change,2039,0,12,,,,,,,,45,14,,,,,
54008,note_on,0,0,12,,,,,,,,,14,,,,31,39
54008,control_change,1,0,12,,,,,,,,,14,11,100,,,
54013,control_change,13,0,7,,,,,,,,,10,11,39,,,
54018,note_on,15,0,3,,,,,,,,,2,,,,82,0
54030,control_change,28,0,8,,,,,,,,,11,11,48,,,
54030,control_change,28,0,9,,,,,,,,,12,11,48,,,
54032,control_change,28,0,10,,,,,,,,,6,11,48,,,
54033,note_on,15,0,3,,,,,,,,,2,,,,79,96
54033,control_change,20,0,7,,,,,,,,,10,11,42,,,
54039,control_change,6,0,3,,,,,,,,,2,11,70,,,
54039,control_change,36,0,5,,,,,,,,,4,11,43,,,
54041,control_change,36,0,4,,,,,,,,,3,11,48,,,
54041,control_change,36,0,6,,,,,,,,,5,11,43,,,
54048,note_on,9,0,3,,,,,,,,,2,,,,79,0
54052,control_change,19,0,7,,,,,,,,,10,11,45,,,
54059,control_change,29,0,8,,,,,,,,,11,11,49,,,
54059,control_change,29,0,9,,,,,,,,,12,11,49,,,
54060,set_tempo,60,1,0,,,,,,937500,,,,,,,,
54061,control_change,29,0,10,,,,,,,,,6,11,49,,,
54063,note_on,15,0,3,,,,,,,,,2,,,,75,96
54072,control_change,20,0,7,,,,,,,,,10,11,48,,,
54075,control_change,12,0,3,,,,,,,,,2,11,71,,,
54075,control_change,36,0,5,,,,,,,,,4,11,44,,,
54077,control_change,36,0,6,,,,,,,,,5,11,44,,,
54077,control_change,36,0,4,,,,,,,,,3,11,49,,,
54078,note_on,3,0,3,,,,,,,,,2,,,,75,0
54088,control_change,29,0,9,,,,,,,,,12,11,50,,,
54088,control_change,29,0,8,,,,,,,,,11,11,50,,,
54090,control_change,29,0,10,,,,,,,,,6,11,50,,,
54093,note_on,15,0,3,,,,,,,,,2,,,,70,96
54108,note_on,15,0,3,,,,,,,,,2,,,,70,0
54111,control_change,3,0,3,,,,,,,,,2,11,72,,,
54111,control_change,36,0,5,,,,,,,,,4,11,45,,,
54113,control_change,36,0,4,,,,,,,,,3,11,50,,,
54113,control_change,36,0,6,,,,,,,,,5,11,45,,,
54115,control_change,43,0,7,,,,,,,,,10,11,51,,,
54117,control_change,29,0,8,,,,,,,,,11,11,51,,,
54117,control_change,29,0,9,,,,,,,,,12,11,51,,,
54119,control_change,29,0,10,,,,,,,,,6,11,51,,,
54123,note_on,12,0,3,,,,,,,,,2,,,,67,96
54125,note_on,120,0,11,,,,,,,,,13,,,,43,0
54128,note_on,120,0,12,,,,,,,,,14,,,,31,0
54138,note_on,15,0,3,,,,,,,,,2,,,,67,0
54144,control_change,29,0,7,,,,,,,,,10,11,52,,,
54146,control_change,29,0,8,,,,,,,,,11,11,52,,,
54146,control_change,29,0,9,,,,,,,,,12,11,52,,,
54147,control_change,9,0,3,,,,,,,,,2,11,73,,,
54147,control_change,36,0,5,,,,,,,,,4,11,46,,,
54148,control_change,29,0,10,,,,,,,,,6,11,52,,,
54149,control_change,36,0,6,,,,,,,,,5,11,46,,,
54149,control_change,36,0,4,,,,,,,,,3,11,51,,,
54153,note_on,6,0,3,,,,,,,,,2,,,,63,96
54168,note_on,15,0,3,,,,,,,,,2,,,,63,0
54172,control_change,28,0,7,,,,,,,,,10,11,53,,,
54174,control_change,28,0,9,,,,,,,,,12,11,53,,,
54174,control_change,28,0,8,,,,,,,,,11,11,53,,,
54176,control_change,28,0,10,,,,,,,,,6,11,53,,,
54180,set_tempo,120,1,0,,,,,,1034483,,,,,,,,
54180,note_on,0,0,7,,,,,,,,,10,,,,72,103
54180,note_on,8,0,7,,,,,,,,,10,,,,75,0
54182,note_on,8,0,8,,,,,,,,,11,,,,58,0
54182,note_on,0,0,8,,,,,,,,,11,,,,60,103
54183,control_change,0,0,3,,,,,,,,,2,11,74,,,
54183,control_change,36,0,5,,,,,,,,,4,11,47,,,
54183,note_on,15,0,3,,,,,,,,,2,,,,60,96
54184,note_on,8,0,10,,,,,,,,,6,,,,43,0
54184,note_on,0,0,10,,,,,,,,,6,,,,41,104
54185,control_change,0,0,4,,,,,,,,,3,11,52,,,
54185,note_on,0,0,4,,,,,,,,,3,,,,60,95
54185,note_on,60,0,11,,,,,,,,,13,,,,41,50
54185,note_on,36,0,4,,,,,,,,,3,,,,58,0
54185,control_change,36,0,6,,,,,,,,,5,11,47,,,
54188,note_on,60,0,12,,,,,,,,,14,,,,29,43
54198,note_on,15,0,3,,,,,,,,,2,,,,60,0
54201,control_change,21,0,7,,,,,,,,,10,11,54,,,
54203,control_change,21,0,8,,,,,,,,,11,11,54,,,
54203,control_change,29,0,9,,,,,,,,,12,11,54,,,
54205,control_change,21,0,10,,,,,,,,,6,11,54,,,
54213,note_on,15,0,3,,,,,,,,,2,,,,63,96
54219,control_change,6,0,3,,,,,,,,,2,11,75,,,
54219,control_change,36,0,5,,,,,,,,,4,11,48,,,
54221,control_change,36,0,6,,,,,,,,,5,11,48,,,
54221,control_change,36,0,4,,,,,,,,,3,11,52,,,
54228,note_on,9,0,3,,,,,,,,,2,,,,63,0
54230,control_change,29,0,7,,,,,,,,,10,11,55,,,
54232,control_change,29,0,9,,,,,,,,,12,11,55,,,
54232,control_change,29,0,8,,,,,,,,,11,11,55,,,
54234,control_change,29,0,10,,,,,,,,,6,11,55,,,
54240,set_tempo,60,1,0,,,,,,937500,,,,,,,,
54243,note_on,15,0,3,,,,,,,,,2,,,,69,96
54255,control_change,36,0,5,,,,,,,,,4,11,49,,,
54255,control_change,12,0,3,,,,,,,,,2,11,76,,,
54257,control_change,36,0,6,,,,,,,,,5,11,49,,,
54257,control_change,36,0,4,,,,,,,,,3,11,53,,,
54258,note_on,3,0,3,,,,,,,,,2,,,,69,0
54259,control_change,29,0,7,,,,,,,,,10,11,56,,,
54261,control_change,29,0,8,,,,,,,,,11,11,56,,,
54261,control_change,29,0,9,,,,,,,,,12,11,56,,,
54263,control_change,29,0,10,,,,,,,,,6,11,56,,,
54273,note_on,15,0,3,,,,,,,,,2,,,,72,96
54288,note_on,15,0,3,,,,,,,,,2,,,,72,0
54288,control_change,29,0,7,,,,,,,,,10,11,57,,,
54290,control_change,29,0,9,,,,,,,,,12,11,57,,,
54290,control_change,29,0,8,,,,,,,,,11,11,57,,,
54291,control_change,3,0,3,,,,,,,,,2,11,76,,,
54291,control_change,36,0,5,,,,,,,,,4,11,50,,,
54292,control_change,29,0,10,,,,,,,,,6,11,57,,,
54293,control_change,36,0,4,,,,,,,,,3,11,54,,,
54293,control_change,36,0,6,,,,,,,,,5,11,50,,,
54303,note_on,12,0,3,,,,,,,,,2,,,,75,96
54305,note_on,120,0,11,,,,,,,,,13,,,,41,0
54308,note_on,120,0,12,,,,,,,,,14,,,,29,0
54316,control_change,28,0,7,,,,,,,,,10,11,58,,,
54318,note_on,15,0,3,,,,,,,,,2,,,,75,0
54318,control_change,28,0,9,,,,,,,,,12,11,58,,,
54318,control_change,28,0,8,,,,,,,,,11,11,58,,,
54320,control_change,28,0,10,,,,,,,,,6,11,58,,,
54327,control_change,36,0,5,,,,,,,,,4,11,51,,,
54327,control_change,9,0,3,,,,,,,,,2,11,77,,,
54329,control_change,36,0,4,,,,,,,,,3,11,55,,,
54329,control_change,36,0,6,,,,,,,,,5,11,51,,,
54333,note_on,6,0,3,,,,,,,,,2,,,,81,96
54345,control_change,29,0,7,,,,,,,,,10,11,59,,,
54347,control_change,29,0,9,,,,,,,,,12,11,59,,,
54347,control_change,29,0,8,,,,,,,,,11,11,59,,,
54348,note_on,15,0,3,,,,,,,,,2,,,,81,0
54349,control_change,29,0,10,,,,,,,,,6,11,59,,,
54358,note_on,31,0,5,,,,,,,,,4,,,,63,0
54360,set_tempo,120,1,0,,,,,,1034483,,,,,,,,
54360,note_on,0,0,1,,,,,,,,,0,,,,80,96
54360,note_on,31,0,6,,,,,,,,,5,,,,63,0
54360,note_on,0,0,7,,,,,,,,,10,,,,74,103
54360,note_on,15,0,7,,,,,,,,,10,,,,72,0
54360,control_change,4560,0,1,,,,,,,,,0,11,55,,,
54360,note_on,0,0,1,,,,,,,,,0,,,,77,96
54362,note_on,0,0,8,,,,,,,,,11,,,,62,103
54362,note_on,15,0,8,,,,,,,,,11,,,,60,0
54362,control_change,4560,0,2,,,,,,,,,1,11,55,,,
54362,note_on,0,0,2,,,,,,,,,1,,,,74,95
54362,note_on,0,0,9,,,,,,,,,12,,,,53,101
54362,note_on,15,0,9,,,,,,,,,12,,,,51,0
54363,note_on,0,0,3,,,,,,,,,2,,,,80,96
54363,note_on,0,0,5,,,,,,,,,4,,,,58,82
54363,control_change,15,0,3,,,,,,,,,2,11,78,,,
54363,control_change,5,0,5,,,,,,,,,4,11,52,,,
54364,note_on,15,0,10,,,,,,,,,6,,,,41,0
54364,note_on,0,0,10,,,,,,,,,6,,,,46,104
54365,note_on,60,0,11,,,,,,,,,13,,,,46,53
54365,note_on,0,0,4,,,,,,,,,3,,,,62,95
54365,control_change,0,0,4,,,,,,,,,3,11,55,,,
54365,note_on,5,0,6,,,,,,,,,5,,,,46,82
54365,note_on,36,0,4,,,,,,,,,3,,,,60,0
54365,control_change,0,0,6,,,,,,,,,5,11,52,,,
54368,note_on,60,0,12,,,,,,,,,14,,,,34,46
54374,control_change,14,0,7,,,,,,,,,10,11,60,,,
54376,control_change,14,0,8,,,,,,,,,11,11,60,,,
54376,control_change,14,0,9,,,,,,,,,12,11,60,,,
54378,note_on,15,0,3,,,,,,,,,2,,,,80,0
54378,control_change,14,0,10,,,,,,,,,6,11,60,,,
54393,note_on,15,0,3,,,,,,,,,2,,,,77,96
54396,control_change,36,0,1,,,,,,,,,0,11,56,,,
54398,control_change,36,0,2,,,,,,,,,1,11,56,,,
54399,control_change,6,0,3,,,,,,,,,2,11,79,,,
54399,control_change,36,0,5,,,,,,,,,4,11,53,,,
54401,control_change,36,0,4,,,,,,,,,3,11,56,,,
54401,control_change,36,0,6,,,,,,,,,5,11,53,,,
54403,control_change,29,0,7,,,,,,,,,10,11,61,,,
54405,control_change,29,0,8,,,,,,,,,11,11,61,,,
54405,control_change,29,0,9,,,,,,,,,12,11,61,,,
54407,control_change,29,0,10,,,,,,,,,6,11,61,,,
54408,note_on,9,0,3,,,,,,,,,2,,,,77,0
54420,set_tempo,60,1,0,,,,,,937500,,,,,,,,
54423,note_on,15,0,3,,,,,,,,,2,,,,74,96
54432,control_change,36,0,1,,,,,,,,,0,11,57,,,
54432,control_change,29,0,7,,,,,,,,,10,11,62,,,
54434,control_change,29,0,8,,,,,,,,,11,11,62,,,
54434,control_change,36,0,2,,,,,,,,,1,11,57,,,
54434,control_change,29,0,9,,,,,,,,,12,11,62,,,
54435,control_change,36,0,5,,,,,,,,,4,11,54,,,
54435,control_change,12,0,3,,,,,,,,,2,11,80,,,
54436,control_change,29,0,10,,,,,,,,,6,11,62,,,
54437,control_change,36,0,4,,,,,,,,,3,11,57,,,
54437,control_change,36,0,6,,,,,,,,,5,11,54,,,
54438,note_on,3,0,3,,,,,,,,,2,,,,74,0
54453,note_on,15,0,3,,,,,,,,,2,,,,68,96
54460,control_change,28,0,7,,,,,,,,,10,11,63,,,
54462,control_change,28,0,8,,,,,,,,,11,11,63,,,
54462,control_change,28,0,9,,,,,,,,,12,11,63,,,
54464,control_change,28,0,10,,,,,,,,,6,11,63,,,
54468,control_change,36,0,1,,,,,,,,,0,11,58,,,
54468,note_on,15,0,3,,,,,,,,,2,,,,68,0
54470,control_change,36,0,2,,,,,,,,,1,11,58,,,
54471,control_change,36,0,5,,,,,,,,,4,11,55,,,
54471,control_change,3,0,3,,,,,,,,,2,11,80,,,
54473,control_change,36,0,6,,,,,,,,,5,11,55,,,
54473,control_change,36,0,4,,,,,,,,,3,11,58,,,
54483,note_on,12,0,3,,,,,,,,,2,,,,65,96
54485,note_on,120,0,11,,,,,,,,,13,,,,46,0
54488,note_on,120,0,12,,,,,,,,,14,,,,34,0
54489,control_change,29,0,7,,,,,,,,,10,11,64,,,
54491,control_change,29,0,9,,,,,,,,,12,11,64,,,
54491,control_change,29,0,8,,,,,,,,,11,11,64,,,
54493,control_change,29,0,10,,,,,,,,,6,11,64,,,
54498,note_on,15,0,3,,,,,,,,,2,,,,65,0
54504,control_change,36,0,1,,,,,,,,,0,11,59,,,
54506,control_change,36,0,2,,,,,,,,,1,11,59,,,
54507,control_change,9,0,3,,,,,,,,,2,11,81,,,
54507,control_change,36,0,5,,,,,,,,,4,11,56,,,
54509,control_change,36,0,4,,,,,,,,,3,11,59,,,
54509,control_change,36,0,6,,,,,,,,,5,11,56,,,
54513,note_on,6,0,3,,,,,,,,,2,,,,62,96
54518,control_change,29,0,7,,,,,,,,,10,11,65,,,
54520,control_change,29,0,9,,,,,,,,,12,11,65,,,
54520,control_change,29,0,8,,,,,,,,,11,11,65,,,
54522,control_change,29,0,10,,,,,,,,,6,11,65,,,
54528,note_on,15,0,3,,,,,,,,,2,,,,62,0
54540,note_on,0,0,1,,,,,,,,,0,,,,75,96
54540,note_on,22,0,7,,,,,,,,,10,,,,74,0
54540,note_on,0,0,7,,,,,,,,,10,,,,75,103
54540,control_change,0,0,1,,,,,,,,,0,11,60,,,
54540,note_on,36,0,1,,,,,,,,,0,,,,80,0
54540,note_on,0,0,1,,,,,,,,,0,,,,79,96
54540,note_on,0,0,1,,,,,,,,,0,,,,77,0
54540,set_tempo,120,1,0,,,,,,1034483,,,,,,,,
54542,note_on,0,0,8,,,,,,,,,11,,,,63,103
54542,note_on,22,0,8,,,,,,,,,11,,,,62,0
54542,note_on,36,0,2,,,,,,,,,1,,,,74,0
54542,note_on,22,0,9,,,,,,,,,12,,,,53,0
54542,note_on,0,0,9,,,,,,,,,12,,,,55,101
54542,note_on,0,0,2,,,,,,,,,1,,,,75,95
54542,control_change,0,0,2,,,,,,,,,1,11,60,,,
54543,note_on,15,0,3,,,,,,,,,2,,,,58,96
54543,control_change,36,0,5,,,,,,,,,4,11,57,,,
54543,control_change,0,0,3,,,,,,,,,2,11,82,,,
54544,note_on,22,0,10,,,,,,,,,6,,,,46,0
54544,note_on,0,0,10,,,,,,,,,6,,,,51,104
54545,note_on,60,0,11,,,,,,,,,13,,,,51,57
54545,control_change,36,0,6,,,,,,,,,5,11,57,,,
54545,note_on,36,0,4,,,,,,,,,3,,,,62,0
54545,note_on,0,0,4,,,,,,,,,3,,,,63,95
54545,control_change,0,0,4,,,,,,,,,3,11,60,,,
54547,control_change,7,0,7,,,,,,,,,10,11,66,,,
54548,note_on,60,0,12,,,,,,,,,14,,,,39,50
54549,control_change,7,0,9,,,,,,,,,12,11,66,,,
54549,control_change,7,0,8,,,,,,,,,11,11,66,,,
54551,control_change,7,0,10,,,,,,,,,6,11,66,,,
54558,note_on,15,0,3,,,,,,,,,2,,,,58,0
54573,note_on,15,0,3,,,,,,,,,2,,,,63,96
54576,control_change,29,0,7,,,,,,,,,10,11,67,,,
54576,control_change,36,0,1,,,,,,,,,0,11,61,,,
54578,control_change,36,0,2,,,,,,,,,1,11,61,,,
54578,control_change,29,0,9,,,,,,,,,12,11,67,,,
54578,control_change,29,0,8,,,,,,,,,11,11,67,,,
54579,control_change,6,0,3,,,,,,,,,2,11,83,,,
54579,control_change,36,0,5,,,,,,,,,4,11,58,,,
54580,control_change,29,0,10,,,,,,,,,6,11,67,,,
54581,control_change,36,0,6,,,,,,,,,5,11,58,,,
54581,control_change,36,0,4,,,,,,,,,3,11,61,,,
54588,note_on,9,0,3,,,,,,,,,2,,,,63,0
54600,set_tempo,60,1,0,,,,,,937500,,,,,,,,
54603,note_on,15,0,3,,,,,,,,,2,,,,67,96
54604,control_change,28,0,7,,,,,,,,,10,11,68,,,
54606,control_change,28,0,9,,,,,,,,,12,11,68,,,
54606,control_change,28,0,8,,,,,,,,,11,11,68,,,
54608,control_change,28,0,10,,,,,,,,,6,11,68,,,
54612,control_change,36,0,1,,,,,,,,,0,11,61,,,
54614,control_change,36,0,2,,,,,,,,,1,11,61,,,
54615,control_change,36,0,5,,,,,,,,,4,11,59,,,
54615,control_change,12,0,3,,,,,,,,,2,11,84,,,
54617,control_change,36,0,4,,,,,,,,,3,11,61,,,
54617,control_change,36,0,6,,,,,,,,,5,11,59,,,
54618,note_on,3,0,3,,,,,,,,,2,,,,67,0
54633,control_change,29,0,7,,,,,,,,,10,11,69,,,
54633,note_on,15,0,3,,,,,,,,,2,,,,70,96
54635,control_change,29,0,9,,,,,,,,,12,11,69,,,
54635,control_change,29,0,8,,,,,,,,,11,11,69,,,
54637,control_change,29,0,10,,,,,,,,,6,11,69,,,
54648,note_on,15,0,3,,,,,,,,,2,,,,70,0
54648,control_change,36,0,1,,,,,,,,,0,11,62,,,
54650,control_change,36,0,2,,,,,,,,,1,11,62,,,
54651,control_change,36,0,5,,,,,,,,,4,11,60,,,
54651,control_change,3,0,3,,,,,,,,,2,11,85,,,
54653,control_change,36,0,4,,,,,,,,,3,11,62,,,
54653,control_change,36,0,6,,,,,,,,,5,11,60,,,
54660,control_change,27,0,7,,,,,,,,,10,11,70,,,
54662,control_change,27,0,8,,,,,,,,,11,11,70,,,
54662,control_change,27,0,9,,,,,,,,,12,11,70,,,
54663,note_on,12,0,3,,,,,,,,,2,,,,75,96
54664,control_change,27,0,10,,,,,,,,,6,11,70,,,
54665,note_on,120,0,11,,,,,,,,,13,,,,51,0
54667,control_change,7,0,7,,,,,,,,,10,11,67,,,
54668,note_on,120,0,12,,,,,,,,,14,,,,39,0
54669,control_change,7,0,8,,,,,,,,,11,11,67,,,
54669,control_change,7,0,9,,,,,,,,,12,11,67,,,
54671,control_change,7,0,10,,,,,,,,,6,11,67,,,
54675,control_change,8,0,7,,,,,,,,,10,11,64,,,
54677,control_change,8,0,9,,,,,,,,,12,11,64,,,
54677,control_change,8,0,8,,,,,,,,,11,11,64,,,
54678,note_on,15,0,3,,,,,,,,,2,,,,75,0
54679,control_change,8,0,10,,,,,,,,,6,11,64,,,
54683,control_change,8,0,7,,,,,,,,,10,11,61,,,
54684,control_change,36,0,1,,,,,,,,,0,11,63,,,
54685,control_change,8,0,9,,,,,,,,,12,11,61,,,
54685,control_change,8,0,8,,,,,,,,,11,11,61,,,
54686,control_change,36,0,2,,,,,,,,,1,11,63,,,
54687,control_change,8,0,10,,,,,,,,,6,11,61,,,
54687,control_change,36,0,5,,,,,,,,,4,11,61,,,
54687,control_change,9,0,3,,,,,,,,,2,11,86,,,
54689,control_change,36,0,6,,,,,,,,,5,11,61,,,
54689,control_change,36,0,4,,,,,,,,,3,11,63,,,
54690,control_change,7,0,7,,,,,,,,,10,11,58,,,
54690,set_tempo,90,1,0,,,,,,1111111,,,,,,,,
54692,control_change,7,0,9,,,,,,,,,12,11,58,,,
54692,control_change,7,0,8,,,,,,,,,11,11,58,,,
54693,note_on,6,0,3,,,,,,,,,2,,,,79,96
54694,control_change,7,0,10,,,,,,,,,6,11,58,,,
54698,control_change,8,0,7,,,,,,,,,10,11,55,,,
54700,control_change,8,0,9,,,,,,,,,12,11,55,,,
54700,control_change,8,0,8,,,,,,,,,11,11,55,,,
54702,control_change,8,0,10,,,,,,,,,6,11,55,,,
54706,control_change,8,0,7,,,,,,,,,10,11,52,,,
54708,control_change,8,0,8,,,,,,,,,11,11,52,,,
54708,note_on,15,0,3,,,,,,,,,2,,,,79,0
54708,control_change,8,0,9,,,,,,,,,12,11,52,,,
54710,control_change,8,0,10,,,,,,,,,6,11,52,,,
54713,control_change,7,0,7,,,,,,,,,10,11,49,,,
54715,control_change,7,0,8,,,,,,,,,11,11,49,,,
54715,control_change,7,0,9,,,,,,,,,12,11,49,,,
54715,note_on,2,0,7,,,,,,,,,10,,,,75,0
54717,control_change,7,0,10,,,,,,,,,6,11,49,,,
54717,note_on,2,0,9,,,,,,,,,12,,,,55,0
54717,note_on,2,0,8,,,,,,,,,11,,,,63,0
54718,note_on,31,0,5,,,,,,,,,4,,,,58,0
54719,note_on,2,0,10,,,,,,,,,6,,,,51,0
54720,set_tempo,30,1,0,,,,,,1304348,,,,,,,,
54720,note_on,31,0,4,,,,,,,,,3,,,,63,0
54720,note_on,36,0,1,,,,,,,,,0,,,,75,0
54720,note_on,0,0,1,,,,,,,,,0,,,,79,0
54720,note_on,0,0,1,,,,,,,,,0,,,,84,96
54720,note_on,0,0,1,,,,,,,,,0,,,,80,96
54720,control_change,0,0,1,,,,,,,,,0,11,47,,,
54720,note_on,31,0,6,,,,,,,,,5,,,,46,0
54720,note_on,5,0,7,,,,,,,,,10,,,,65,90
54722,control_change,0,0,2,,,,,,,,,1,11,47,,,
54722,note_on,0,0,2,,,,,,,,,1,,,,72,95
54722,note_on,5,0,9,,,,,,,,,12,,,,56,88
54722,note_on,36,0,2,,,,,,,,,1,,,,75,0
54722,note_on,5,0,8,,,,,,,,,11,,,,60,90
54723,control_change,5,0,5,,,,,,,,,4,11,42,,,
54723,note_on,0,0,5,,,,,,,,,4,,,,60,82
54723,note_on,0,0,3,,,,,,,,,2,,,,60,96
54723,control_change,15,0,3,,,,,,,,,2,11,70,,,
54724,note_on,5,0,10,,,,,,,,,6,,,,44,89
54725,control_change,0,0,4,,,,,,,,,3,11,47,,,
54725,control_change,5,0,6,,,,,,,,,5,11,42,,,
54725,note_on,0,0,6,,,,,,,,,5,,,,60,82
54725,note_on,5,0,4,,,,,,,,,3,,,,60,95
54725,note_on,60,0,11,,,,,,,,,13,,,,44,43
54728,note_on,60,0,12,,,,,,,,,14,,,,32,36
54738,note_on,15,0,3,,,,,,,,,2,,,,60,0
54750,set_tempo,30,1,0,,,,,,937500,,,,,,,,
54753,note_on,15,0,3,,,,,,,,,2,,,,65,96
54768,note_on,15,0,3,,,,,,,,,2,,,,65,0
54780,set_tempo,30,1,0,,,,,,944882,,,,,,,,
54783,note_on,15,0,3,,,,,,,,,2,,,,68,96
54798,note_on,15,0,3,,,,,,,,,2,,,,68,0
54813,note_on,15,0,3,,,,,,,,,2,,,,72,96
54828,note_on,15,0,3,,,,,,,,,2,,,,72,0
54840,note_on,120,0,1,,,,,,,,,0,,,,80,0
54840,note_on,120,0,7,,,,,,,,,10,,,,65,0
54840,set_tempo,60,1,0,,,,,,960000,,,,,,,,
54840,note_on,0,0,1,,,,,,,,,0,,,,84,0
54842,note_on,120,0,9,,,,,,,,,12,,,,56,0
54842,note_on,120,0,2,,,,,,,,,1,,,,72,0
54842,note_on,120,0,8,,,,,,,,,11,,,,60,0
54843,note_on,15,0,3,,,,,,,,,2,,,,77,96
54843,note_on,120,0,5,,,,,,,,,4,,,,60,0
54844,note_on,120,0,10,,,,,,,,,6,,,,44,0
54845,note_on,120,0,11,,,,,,,,,13,,,,44,0
54845,note_on,120,0,6,,,,,,,,,5,,,,60,0
54845,note_on,120,0,4,,,,,,,,,3,,,,60,0
54848,note_on,120,0,12,,,,,,,,,14,,,,32,0
54858,note_on,15,0,3,,,,,,,,,2,,,,77,0
54873,note_on,15,0,3,,,,,,,,,2,,,,80,96
54888,note_on,15,0,3,,,,,,,,,2,,,,80,0
54903,note_on,15,0,3,,,,,,,,,2,,,,84,96
54918,note_on,15,0,3,,,,,,,,,2,,,,84,0
54933,note_on,15,0,3,,,,,,,,,2,,,,82,96
54948,note_on,15,0,3,,,,,,,,,2,,,,82,0
54960,set_tempo,120,1,0,,,,,,975610,,,,,,,,
54963,note_on,15,0,3,,,,,,,,,2,,,,80,96
54978,note_on,15,0,3,,,,,,,,,2,,,,80,0
54993,note_on,15,0,3,,,,,,,,,2,,,,79,96
55008,note_on,15,0,3,,,,,,,,,2,,,,79,0
55023,note_on,15,0,3,,,,,,,,,2,,,,77,96
55038,note_on,15,0,3,,,,,,,,,2,,,,77,0
55053,note_on,15,0,3,,,,,,,,,2,,,,79,96
55068,note_on,15,0,3,,,,,,,,,2,,,,79,0
55080,set_tempo,120,1,0,,,,,,983607,,,,,,,,
55083,note_on,15,0,3,,,,,,,,,2,,,,80,96
55113,note_on,30,0,3,,,,,,,,,2,,,,80,0
55140,set_tempo,60,1,0,,,,,,1000000,,,,,,,,
55143,note_on,30,0,3,,,,,,,,,2,,,,82,96
55173,note_on,30,0,3,,,,,,,,,2,,,,82,0
55200,set_tempo,60,1,0,,,,,,1025641,,,,,,,,
55203,note_on,30,0,3,,,,,,,,,2,,,,84,96
55233,note_on,30,0,3,,,,,,,,,2,,,,84,0
55260,set_tempo,60,1,0,,,,,,1069519,,,,,,,,
55263,note_on,30,0,3,,,,,,,,,2,,,,72,96
55293,note_on,30,0,3,,,,,,,,,2,,,,72,0
55320,set_tempo,60,1,0,,,,,,1142857,,,,,,,,
55323,program_change,479,0,10,,,,,,,,45,6,,,,,
55323,note_on,30,0,3,,,,,,,,,2,,,,80,96
55324,note_on,0,0,10,,,,,,,,,6,,,,53,39
55324,control_change,1,0,10,,,,,,,,,6,11,100,,,
55325,note_on,480,0,11,,,,,,,,,13,,,,53,43
55328,note_on,480,0,12,,,,,,,,,14,,,,41,36
55353,note_on,30,0,3,,,,,,,,,2,,,,80,0
55380,set_tempo,60,1,0,,,,,,1290323,,,,,,,,
55383,note_on,30,0,3,,,,,,,,,2,,,,77,96
55384,note_on,0,0,10,,,,,,,,,6,,,,56,39
55384,note_on,60,0,10,,,,,,,,,6,,,,53,0
55385,note_on,60,0,11,,,,,,,,,13,,,,53,0
55385,note_on,0,0,11,,,,,,,,,13,,,,56,43
55388,note_on,60,0,12,,,,,,,,,14,,,,41,0
55388,note_on,0,0,12,,,,,,,,,14,,,,44,36
55413,note_on,30,0,3,,,,,,,,,2,,,,77,0
55440,note_on,600,0,1,,,,,,,,,0,,,,80,96
55440,set_tempo,60,1,0,,,,,,2297090,,,,,,,,
55442,note_on,600,0,2,,,,,,,,,1,,,,77,95
55443,note_on,30,0,3,,,,,,,,,2,,,,79,83
55444,note_on,60,0,10,,,,,,,,,6,,,,56,0
55444,note_on,0,0,10,,,,,,,,,6,,,,46,39
55445,note_on,60,0,11,,,,,,,,,13,,,,56,0
55445,note_on,0,0,11,,,,,,,,,13,,,,46,43
55448,note_on,0,0,12,,,,,,,,,14,,,,34,36
55448,note_on,60,0,12,,,,,,,,,14,,,,44,0
55450,set_tempo,10,1,0,,,,,,1666667,,,,,,,,
55453,note_on,0,0,3,,,,,,,,,2,,,,77,87
55453,note_on,10,0,3,,,,,,,,,2,,,,79,0
55460,set_tempo,10,1,0,,,,,,1363636,,,,,,,,
55463,note_on,0,0,3,,,,,,,,,2,,,,79,91
55463,note_on,10,0,3,,,,,,,,,2,,,,77,0
55470,set_tempo,10,1,0,,,,,,1224490,,,,,,,,
55473,note_on,10,0,3,,,,,,,,,2,,,,79,0
55473,note_on,0,0,3,,,,,,,,,2,,,,77,96
55480,set_tempo,10,1,0,,,,,,1081081,,,,,,,,
55483,note_on,10,0,3,,,,,,,,,2,,,,77,0
55483,note_on,0,0,3,,,,,,,,,2,,,,79,96
55490,set_tempo,10,1,0,,,,,,991736,,,,,,,,
55493,note_on,10,0,3,,,,,,,,,2,,,,79,0
55493,note_on,0,0,3,,,,,,,,,2,,,,77,96
55500,set_tempo,10,1,0,,,,,,937500,,,,,,,,
55503,note_on,0,0,3,,,,,,,,,2,,,,79,96
55503,note_on,10,0,3,,,,,,,,,2,,,,77,0
55513,note_on,0,0,3,,,,,,,,,2,,,,77,96
55513,note_on,10,0,3,,,,,,,,,2,,,,79,0
55523,note_on,0,0,3,,,,,,,,,2,,,,79,96
55523,note_on,10,0,3,,,,,,,,,2,,,,77,0
55533,note_on,0,0,3,,,,,,,,,2,,,,77,96
55533,note_on,10,0,3,,,,,,,,,2,,,,79,0
55543,note_on,0,0,3,,,,,,,,,2,,,,79,96
55543,note_on,10,0,3,,,,,,,,,2,,,,77,0
55553,note_on,0,0,3,,,,,,,,,2,,,,77,96
55553,note_on,10,0,3,,,,,,,,,2,,,,79,0
55560,note_on,120,0,1,,,,,,,,,0,,,,80,0
55562,note_on,120,0,2,,,,,,,,,1,,,,77,0
55563,note_on,0,0,3,,,,,,,,,2,,,,79,96
55563,note_on,10,0,3,,,,,,,,,2,,,,77,0
55564,note_on,120,0,10,,,,,,,,,6,,,,46,0
55565,note_on,120,0,11,,,,,,,,,13,,,,46,0
55568,note_on,120,0,12,,,,,,,,,14,,,,34,0
55573,note_on,0,0,3,,,,,,,,,2,,,,77,96
55573,note_on,10,0,3,,,,,,,,,2,,,,79,0
55583,note_on,0,0,3,,,,,,,,,2,,,,79,96
55583,note_on,10,0,3,,,,,,,,,2,,,,77,0
55593,note_on,10,0,3,,,,,,,,,2,,,,79,0
55593,note_on,0,0,3,,,,,,,,,2,,,,77,96
55603,note_on,10,0,3,,,,,,,,,2,,,,77,0
55603,note_on,0,0,3,,,,,,,,,2,,,,79,96
55613,note_on,10,0,3,,,,,,,,,2,,,,79,0
55613,note_on,0,0,3,,,,,,,,,2,,,,77,96
55620,set_tempo,120,1,0,,,,,,960000,,,,,,,,
55623,note_on,0,0,3,,,,,,,,,2,,,,79,96
55623,note_on,10,0,3,,,,,,,,,2,,,,77,0
55633,note_on,10,0,3,,,,,,,,,2,,,,79,0
55633,note_on,0,0,3,,,,,,,,,2,,,,77,96
55643,note_on,0,0,3,,,,,,,,,2,,,,79,96
55643,note_on,10,0,3,,,,,,,,,2,,,,77,0
55653,note_on,10,0,3,,,,,,,,,2,,,,79,0
55653,note_on,0,0,3,,,,,,,,,2,,,,77,96
55663,note_on,0,0,3,,,,,,,,,2,,,,79,96
55663,note_on,10,0,3,,,,,,,,,2,,,,77,0
55673,note_on,0,0,3,,,,,,,,,2,,,,77,96
55673,note_on,10,0,3,,,,,,,,,2,,,,79,0
55680,set_tempo,60,1,0,,,,,,937500,,,,,,,,
55683,program_change,119,0,10,,,,,,,,42,6,,,,,
55683,note_on,10,0,3,,,,,,,,,2,,,,77,0
55683,note_on,0,0,3,,,,,,,,,2,,,,79,96
55693,note_on,0,0,3,,,,,,,,,2,,,,77,96
55693,note_on,10,0,3,,,,,,,,,2,,,,79,0
55703,note_on,0,0,3,,,,,,,,,2,,,,79,96
55703,note_on,10,0,3,,,,,,,,,2,,,,77,0
55713,note_on,0,0,3,,,,,,,,,2,,,,77,96
55713,note_on,10,0,3,,,,,,,,,2,,,,79,0
55723,note_on,0,0,3,,,,,,,,,2,,,,79,96
55723,note_on,10,0,3,,,,,,,,,2,,,,77,0
55733,note_on,10,0,3,,,,,,,,,2,,,,79,0
55733,note_on,0,0,3,,,,,,,,,2,,,,77,96
55742,control_change,900,0,9,,,,,,,,,12,11,37,,,
55742,note_on,0,0,9,,,,,,,,,12,,,,63,101
55743,note_on,0,0,3,,,,,,,,,2,,,,79,96
55743,note_on,10,0,3,,,,,,,,,2,,,,77,0
55744,control_change,61,0,10,,,,,,,,,6,11,37,,,
55744,note_on,0,0,10,,,,,,,,,6,,,,63,104
55753,note_on,0,0,3,,,,,,,,,2,,,,77,96
55753,note_on,10,0,3,,,,,,,,,2,,,,79,0
55754,control_change,12,0,9,,,,,,,,,12,11,40,,,
55756,control_change,12,0,10,,,,,,,,,6,11,40,,,
55763,note_on,10,0,3,,,,,,,,,2,,,,77,0
55763,note_on,0,0,3,,,,,,,,,2,,,,79,96
55766,control_change,12,0,9,,,,,,,,,12,11,43,,,
55768,control_change,12,0,10,,,,,,,,,6,11,43,,,
55773,note_on,0,0,3,,,,,,,,,2,,,,77,95
55773,note_on,10,0,3,,,,,,,,,2,,,,79,0
55778,control_change,12,0,9,,,,,,,,,12,11,46,,,
55780,control_change,12,0,10,,,,,,,,,6,11,46,,,
55783,note_on,10,0,3,,,,,,,,,2,,,,77,0
55783,note_on,0,0,3,,,,,,,,,2,,,,79,95
55790,control_change,12,0,9,,,,,,,,,12,11,49,,,
55792,control_change,12,0,10,,,,,,,,,6,11,49,,,
55793,note_on,10,0,3,,,,,,,,,2,,,,79,0
55793,note_on,0,0,3,,,,,,,,,2,,,,77,95
55797,note_on,7,0,9,,,,,,,,,12,,,,63,0
55799,note_on,7,0,10,,,,,,,,,6,,,,63,0
55800,note_on,0,0,7,,,,,,,,,10,,,,58,103
55800,note_on,0,0,1,,,,,,,,,0,,,,80,96
55800,control_change,240,0,1,,,,,,,,,0,11,47,,,
55800,note_on,0,0,7,,,,,,,,,10,,,,68,103
55800,set_tempo,120,1,0,,,,,,1034483,,,,,,,,
55800,control_change,960,0,7,,,,,,,,,10,11,32,,,
55802,note_on,0,0,9,,,,,,,,,12,,,,63,101
55802,control_change,5,0,9,,,,,,,,,12,11,52,,,
55802,note_on,0,0,2,,,,,,,,,1,,,,77,95
55802,control_change,240,0,2,,,,,,,,,1,11,47,,,
55803,note_on,10,0,3,,,,,,,,,2,,,,77,0
55803,note_on,0,0,5,,,,,,,,,4,,,,58,82
55803,control_change,960,0,5,,,,,,,,,4,11,42,,,
55803,note_on,0,0,3,,,,,,,,,2,,,,79,94
55804,control_change,5,0,10,,,,,,,,,6,11,52,,,
55804,note_on,0,0,10,,,,,,,,,6,,,,63,104
55804,program_change,239,0,11,,,,,,,,48,13,,,,,
55805,control_change,960,0,6,,,,,,,,,5,11,42,,,
55805,note_on,0,0,6,,,,,,,,,5,,,,46,82
55805,note_on,0,0,11,,,,,,,,,13,,,,46,100
55805,control_change,1,0,11,,,,,,,,,13,11,32,,,
55807,program_change,239,0,12,,,,,,,,48,14,,,,,
55808,note_on,0,0,12,,,,,,,,,14,,,,34,96
55808,control_change,1,0,12,,,,,,,,,14,11,32,,,
55813,note_on,10,0,3,,,,,,,,,2,,,,79,0
55813,note_on,0,0,3,,,,,,,,,2,,,,77,94
55817,note_on,15,0,9,,,,,,,,,12,,,,63,0
55817,note_on,0,0,9,,,,,,,,,12,,,,62,101
55818,control_change,18,0,7,,,,,,,,,10,11,35,,,
55818,control_change,18,0,1,,,,,,,,,0,11,48,,,
55819,note_on,15,0,10,,,,,,,,,6,,,,63,0
55819,note_on,0,0,10,,,,,,,,,6,,,,62,104
55820,control_change,18,0,2,,,,,,,,,1,11,48,,,
55821,control_change,18,0,5,,,,,,,,,4,11,43,,,
55823,note_on,10,0,3,,,,,,,,,2,,,,77,0
55823,control_change,18,0,11,,,,,,,,,13,11,35,,,
55823,control_change,18,0,6,,,,,,,,,5,11,43,,,
55823,note_on,0,0,3,,,,,,,,,2,,,,79,94
55826,control_change,18,0,12,,,,,,,,,14,11,35,,,
55833,note_on,0,0,3,,,,,,,,,2,,,,77,93
55833,note_on,10,0,3,,,,,,,,,2,,,,79,0
55836,control_change,18,0,7,,,,,,,,,10,11,38,,,
55836,control_change,18,0,1,,,,,,,,,0,11,49,,,
55838,control_change,18,0,2,,,,,,,,,1,11,49,,,
55839,control_change,18,0,5,,,,,,,,,4,11,44,,,
55841,control_change,18,0,6,,,,,,,,,5,11,44,,,
55841,control_change,18,0,11,,,,,,,,,13,11,38,,,
55843,note_on,0,0,3,,,,,,,,,2,,,,79,93
55843,note_on,10,0,3,,,,,,,,,2,,,,77,0
55844,control_change,18,0,12,,,,,,,,,14,11,38,,,
55853,note_on,10,0,3,,,,,,,,,2,,,,79,0
55853,note_on,0,0,3,,,,,,,,,2,,,,77,92
55854,control_change,18,0,7,,,,,,,,,10,11,41,,,
55854,control_change,18,0,1,,,,,,,,,0,11,50,,,
55856,control_change,18,0,2,,,,,,,,,1,11,50,,,
55857,control_change,18,0,5,,,,,,,,,4,11,45,,,
55859,control_change,18,0,11,,,,,,,,,13,11,41,,,
55859,control_change,18,0,6,,,,,,,,,5,11,45,,,
55860,set_tempo,60,1,0,,,,,,937500,,,,,,,,
55862,control_change,18,0,12,,,,,,,,,14,11,41,,,
55862,note_on,45,0,9,,,,,,,,,12,,,,62,0
55862,note_on,0,0,9,,,,,,,,,12,,,,60,101
55863,note_on,0,0,3,,,,,,,,,2,,,,79,92
55863,note_on,10,0,3,,,,,,,,,2,,,,77,0
55864,note_on,0,0,10,,,,,,,,,6,,,,60,104
55864,note_on,45,0,10,,,,,,,,,6,,,,62,0
55872,control_change,18,0,1,,,,,,,,,0,11,51,,,
55872,control_change,18,0,7,,,,,,,,,10,11,44,,,
55873,note_on,10,0,3,,,,,,,,,2,,,,79,0
55873,note_on,0,0,3,,,,,,,,,2,,,,77,92
55874,control_change,18,0,2,,,,,,,,,1,11,51,,,
55875,control_change,18,0,5,,,,,,,,,4,11,46,,,
55877,control_change,18,0,6,,,,,,,,,5,11,46,,,
55877,control_change,18,0,11,,,,,,,,,13,11,44,,,
55880,control_change,18,0,12,,,,,,,,,14,11,44,,,
55883,note_on,0,0,3,,,,,,,,,2,,,,79,91
55883,note_on,10,0,3,,,,,,,,,2,,,,77,0
55890,control_change,18,0,7,,,,,,,,,10,11,47,,,
55890,control_change,18,0,1,,,,,,,,,0,11,52,,,
55892,control_change,18,0,2,,,,,,,,,1,11,52,,,
55893,control_change,18,0,5,,,,,,,,,4,11,47,,,
55893,note_on,0,0,3,,,,,,,,,2,,,,77,91
55893,note_on,10,0,3,,,,,,,,,2,,,,79,0
55895,control_change,18,0,6,,,,,,,,,5,11,47,,,
55895,control_change,18,0,11,,,,,,,,,13,11,47,,,
55898,control_change,18,0,12,,,,,,,,,14,11,47,,,
55903,note_on,10,0,3,,,,,,,,,2,,,,77,0
55903,note_on,0,0,3,,,,,,,,,2,,,,79,91
55908,control_change,18,0,1,,,,,,,,,0,11,52,,,
55910,control_change,18,0,2,,,,,,,,,1,11,52,,,
55911,control_change,18,0,5,,,,,,,,,4,11,48,,,
55913,note_on,0,0,3,,,,,,,,,2,,,,77,90
55913,note_on,10,0,3,,,,,,,,,2,,,,79,0
55913,control_change,18,0,6,,,,,,,,,5,11,48,,,
55922,note_on,0,0,9,,,,,,,,,12,,,,58,101
55922,note_on,60,0,9,,,,,,,,,12,,,,60,0
55923,note_on,0,0,3,,,,,,,,,2,,,,79,90
55923,note_on,10,0,3,,,,,,,,,2,,,,77,0
55924,note_on,0,0,10,,,,,,,,,6,,,,58,104
55924,note_on,60,0,10,,,,,,,,,6,,,,60,0
55926,control_change,18,0,1,,,,,,,,,0,11,53,,,
55928,control_change,18,0,2,,,,,,,,,1,11,53,,,
55929,control_change,18,0,5,,,,,,,,,4,11,49,,,
55931,control_change,18,0,6,,,,,,,,,5,11,49,,,
55933,note_on,0,0,3,,,,,,,,,2,,,,77,89
55933,note_on,10,0,3,,,,,,,,,2,,,,79,0
55943,note_on,0,0,3,,,,,,,,,2,,,,79,89
55943,note_on,10,0,3,,,,,,,,,2,,,,77,0
55944,control_change,18,0,1,,,,,,,,,0,11,54,,,
55946,control_change,18,0,2,,,,,,,,,1,11,54,,,
55947,control_change,18,0,5,,,,,,,,,4,11,50,,,
55949,control_change,18,0,6,,,,,,,,,5,11,50,,,
55953,note_on,0,0,3,,,,,,,,,2,,,,77,89
55953,note_on,10,0,3,,,,,,,,,2,,,,79,0
55962,control_change,18,0,1,,,,,,,,,0,11,55,,,
55963,note_on,0,0,3,,,,,,,,,2,,,,79,88
55963,note_on,10,0,3,,,,,,,,,2,,,,77,0
55964,control_change,18,0,2,,,,,,,,,1,11,55,,,
55965,control_change,18,0,5,,,,,,,,,4,11,51,,,
55967,control_change,18,0,6,,,,,,,,,5,11,51,,,
55973,note_on,0,0,3,,,,,,,,,2,,,,77,88
55973,note_on,10,0,3,,,,,,,,,2,,,,79,0
55977,note_on,55,0,9,,,,,,,,,12,,,,58,0
55979,note_on,55,0,10,,,,,,,,,6,,,,58,0
55980,set_tempo,120,1,0,,,,,,1034483,,,,,,,,
55980,control_change,18,0,1,,,,,,,,,0,11,55,,,
55982,note_on,5,0,9,,,,,,,,,12,,,,58,101
55982,control_change,18,0,2,,,,,,,,,1,11,55,,,
55983,control_change,18,0,5,,,,,,,,,4,11,52,,,
55983,note_on,0,0,3,,,,,,,,,2,,,,79,88
55983,note_on,10,0,3,,,,,,,,,2,,,,77,0
55984,note_on,5,0,10,,,,,,,,,6,,,,58,104
55985,control_change,18,0,6,,,,,,,,,5,11,52,,,
55993,note_on,10,0,3,,,,,,,,,2,,,,79,0
55993,note_on,0,0,3,,,,,,,,,2,,,,77,87
55998,control_change,18,0,1,,,,,,,,,0,11,56,,,
56000,control_change,18,0,2,,,,,,,,,1,11,56,,,
56001,control_change,18,0,5,,,,,,,,,4,11,53,,,
56003,control_change,18,0,6,,,,,,,,,5,11,53,,,
56003,note_on,0,0,3,,,,,,,,,2,,,,79,87
56003,note_on,10,0,3,,,,,,,,,2,,,,77,0
56013,note_on,10,0,3,,,,,,,,,2,,,,79,0
56013,note_on,0,0,3,,,,,,,,,2,,,,77,86
56016,control_change,18,0,1,,,,,,,,,0,11,57,,,
56018,control_change,18,0,2,,,,,,,,,1,11,57,,,
56019,control_change,18,0,5,,,,,,,,,4,11,54,,,
56021,control_change,18,0,6,,,,,,,,,5,11,54,,,
56023,note_on,10,0,3,,,,,,,,,2,,,,77,0
56023,note_on,0,0,3,,,,,,,,,2,,,,79,86
56033,note_on,10,0,3,,,,,,,,,2,,,,79,0
56033,note_on,0,0,3,,,,,,,,,2,,,,77,86
56034,control_change,18,0,1,,,,,,,,,0,11,58,,,
56036,control_change,18,0,2,,,,,,,,,1,11,58,,,
56037,control_change,18,0,5,,,,,,,,,4,11,55,,,
56039,control_change,18,0,6,,,,,,,,,5,11,55,,,
56040,set_tempo,60,1,0,,,,,,937500,,,,,,,,
56042,note_on,0,0,9,,,,,,,,,12,,,,60,101
56042,note_on,60,0,9,,,,,,,,,12,,,,58,0
56043,note_on,10,0,3,,,,,,,,,2,,,,77,0
56043,note_on,0,0,3,,,,,,,,,2,,,,79,85
56044,note_on,0,0,10,,,,,,,,,6,,,,60,104
56044,note_on,60,0,10,,,,,,,,,6,,,,58,0
56052,control_change,18,0,1,,,,,,,,,0,11,59,,,
56053,note_on,10,0,3,,,,,,,,,2,,,,79,0
56053,note_on,0,0,3,,,,,,,,,2,,,,77,85
56054,control_change,18,0,2,,,,,,,,,1,11,59,,,
56055,control_change,18,0,5,,,,,,,,,4,11,56,,,
56057,control_change,18,0,6,,,,,,,,,5,11,56,,,
56063,note_on,10,0,3,,,,,,,,,2,,,,77,0
56063,note_on,0,0,3,,,,,,,,,2,,,,79,85
56070,control_change,18,0,1,,,,,,,,,0,11,60,,,
56072,control_change,18,0,2,,,,,,,,,1,11,60,,,
56073,control_change,18,0,5,,,,,,,,,4,11,57,,,
56073,note_on,10,0,3,,,,,,,,,2,,,,79,0
56073,note_on,0,0,3,,,,,,,,,2,,,,77,84
56075,control_change,18,0,6,,,,,,,,,5,11,57,,,
56083,note_on,0,0,3,,,,,,,,,2,,,,79,84
56083,note_on,10,0,3,,,,,,,,,2,,,,77,0
56088,control_change,18,0,1,,,,,,,,,0,11,61,,,
56090,control_change,18,0,2,,,,,,,,,1,11,61,,,
56091,control_change,18,0,5,,,,,,,,,4,11,58,,,
56093,control_change,18,0,6,,,,,,,,,5,11,58,,,
56093,note_on,0,0,3,,,,,,,,,2,,,,77,84
56093,note_on,10,0,3,,,,,,,,,2,,,,79,0
56102,note_on,0,0,8,,,,,,,,,11,,,,70,113
56102,note_on,0,0,9,,,,,,,,,12,,,,62,101
56102,note_on,60,0,9,,,,,,,,,12,,,,60,0
56102,control_change,1260,0,8,,,,,,,,,11,11,47,,,
56103,note_on,0,0,3,,,,,,,,,2,,,,79,83
56103,note_on,10,0,3,,,,,,,,,2,,,,77,0
56104,note_on,0,0,10,,,,,,,,,6,,,,62,104
56104,note_on,60,0,10,,,,,,,,,6,,,,60,0
56106,control_change,18,0,1,,,,,,,,,0,11,61,,,
56108,control_change,18,0,2,,,,,,,,,1,11,61,,,
56109,control_change,18,0,5,,,,,,,,,4,11,59,,,
56111,control_change,18,0,6,,,,,,,,,5,11,59,,,
56113,note_on,10,0,3,,,,,,,,,2,,,,79,0
56113,note_on,0,0,3,,,,,,,,,2,,,,77,83
56123,note_on,10,0,3,,,,,,,,,2,,,,77,0
56123,note_on,0,0,3,,,,,,,,,2,,,,79,82
56124,control_change,18,0,1,,,,,,,,,0,11,62,,,
56126,control_change,18,0,2,,,,,,,,,1,11,62,,,
56127,control_change,18,0,5,,,,,,,,,4,11,60,,,
56129,control_change,18,0,6,,,,,,,,,5,11,60,,,
56133,note_on,10,0,3,,,,,,,,,2,,,,79,0
56133,note_on,0,0,3,,,,,,,,,2,,,,75,82
56142,control_change,18,0,1,,,,,,,,,0,11,63,,,
56144,control_change,18,0,2,,,,,,,,,1,11,63,,,
56145,control_change,18,0,5,,,,,,,,,4,11,61,,,
56147,control_change,18,0,6,,,,,,,,,5,11,61,,,
56148,note_on,0,0,3,,,,,,,,,2,,,,77,81
56148,note_on,15,0,3,,,,,,,,,2,,,,75,0
56155,note_on,265,0,7,,,,,,,,,10,,,,68,0
56155,note_on,0,0,7,,,,,,,,,10,,,,58,0
56155,note_on,13,0,1,,,,,,,,,0,,,,80,0
56157,note_on,13,0,2,,,,,,,,,1,,,,77,0
56157,note_on,55,0,9,,,,,,,,,12,,,,62,0
56157,note_on,55,0,8,,,,,,,,,11,,,,70,0
56159,note_on,55,0,10,,,,,,,,,6,,,,62,0
56160,control_change,5,0,1,,,,,,,,,0,11,64,,,
56160,note_on,0,0,7,,,,,,,,,10,,,,58,103
56160,control_change,5,0,7,,,,,,,,,10,11,47,,,
56160,set_tempo,120,1,0,,,,,,1034483,,,,,,,,
56160,note_on,0,0,1,,,,,,,,,0,,,,78,96
56160,note_on,265,0,11,,,,,,,,,13,,,,46,0
56160,note_on,0,0,7,,,,,,,,,10,,,,66,103
56162,note_on,0,0,9,,,,,,,,,12,,,,63,101
56162,note_on,0,0,8,,,,,,,,,11,,,,71,113
56162,note_on,0,0,2,,,,,,,,,1,,,,75,95
56162,control_change,5,0,9,,,,,,,,,12,11,47,,,
56162,control_change,5,0,2,,,,,,,,,1,11,64,,,
56162,control_change,5,0,8,,,,,,,,,11,11,47,,,
56163,control_change,18,0,5,,,,,,,,,4,11,62,,,
56163,note_on,265,0,12,,,,,,,,,14,,,,34,0
56163,note_on,15,0,3,,,,,,,,,2,,,,77,0
56164,note_on,0,0,10,,,,,,,,,6,,,,63,104
56164,control_change,5,0,10,,,,,,,,,6,11,47,,,
56165,control_change,18,0,6,,,,,,,,,5,11,62,,,
56165,note_on,0,0,11,,,,,,,,,13,,,,51,100
56165,control_change,5,0,11,,,,,,,,,13,11,47,,,
56168,note_on,0,0,12,,,,,,,,,14,,,,39,96
56168,control_change,5,0,12,,,,,,,,,14,11,47,,,
56177,control_change,17,0,7,,,,,,,,,10,11,49,,,
56177,note_on,0,0,8,,,,,,,,,11,,,,70,113
56177,note_on,15,0,8,,,,,,,,,11,,,,71,0
56178,control_change,18,0,1,,,,,,,,,0,11,65,,,
56179,control_change,2,0,8,,,,,,,,,11,11,49,,,
56179,control_change,17,0,9,,,,,,,,,12,11,49,,,
56180,control_change,18,0,2,,,,,,,,,1,11,65,,,
56181,control_change,18,0,5,,,,,,,,,4,11,63,,,
56181,control_change,17,0,10,,,,,,,,,6,11,49,,,
56182,control_change,17,0,11,,,,,,,,,13,11,49,,,
56183,control_change,18,0,6,,,,,,,,,5,11,63,,,
56185,control_change,17,0,12,,,,,,,,,14,11,49,,,
56195,control_change,18,0,7,,,,,,,,,10,11,51,,,
56196,control_change,18,0,1,,,,,,,,,0,11,65,,,
56197,control_change,18,0,9,,,,,,,,,12,11,51,,,
56197,control_change,18,0,8,,,,,,,,,11,11,51,,,
56198,control_change,18,0,2,,,,,,,,,1,11,65,,,
56199,control_change,18,0,5,,,,,,,,,4,11,64,,,
56199,control_change,18,0,10,,,,,,,,,6,11,51,,,
56200,control_change,18,0,11,,,,,,,,,13,11,51,,,
56201,control_change,18,0,6,,,,,,,,,5,11,64,,,
56203,control_change,18,0,12,,,,,,,,,14,11,51,,,
56213,control_change,18,0,7,,,,,,,,,10,11,53,,,
56214,control_change,18,0,1,,,,,,,,,0,11,66,,,
56215,control_change,18,0,9,,,,,,,,,12,11,53,,,
56215,control_change,18,0,8,,,,,,,,,11,11,53,,,
56216,control_change,18,0,2,,,,,,,,,1,11,66,,,
56217,control_change,18,0,5,,,,,,,,,4,11,65,,,
56217,control_change,18,0,10,,,,,,,,,6,11,53,,,
56218,control_change,18,0,11,,,,,,,,,13,11,53,,,
56219,control_change,18,0,6,,,,,,,,,5,11,65,,,
56220,set_tempo,60,1,0,,,,,,937500,,,,,,,,
56221,control_change,18,0,12,,,,,,,,,14,11,53,,,
56222,note_on,7,0,8,,,,,,,,,11,,,,70,0
56222,note_on,0,0,8,,,,,,,,,11,,,,68,113
56231,control_change,18,0,7,,,,,,,,,10,11,55,,,
56232,control_change,18,0,1,,,,,,,,,0,11,67,,,
56233,control_change,11,0,8,,,,,,,,,11,11,55,,,
56233,control_change,18,0,9,,,,,,,,,12,11,55,,,
56234,control_change,18,0,2,,,,,,,,,1,11,67,,,
56235,control_change,18,0,5,,,,,,,,,4,11,66,,,
56235,control_change,18,0,10,,,,,,,,,6,11,55,,,
56236,control_change,18,0,11,,,,,,,,,13,11,55,,,
56237,control_change,18,0,6,,,,,,,,,5,11,66,,,
56239,control_change,18,0,12,,,,,,,,,14,11,55,,,
56249,control_change,18,0,7,,,,,,,,,10,11,57,,,
56250,control_change,18,0,1,,,,,,,,,0,11,68,,,
56251,control_change,18,0,8,,,,,,,,,11,11,57,,,
56251,control_change,18,0,9,,,,,,,,,12,11,57,,,
56252,control_change,18,0,2,,,,,,,,,1,11,68,,,
56253,control_change,18,0,5,,,,,,,,,4,11,67,,,
56253,control_change,18,0,10,,,,,,,,,6,11,57,,,
56254,control_change,18,0,11,,,,,,,,,13,11,57,,,
56255,control_change,18,0,6,,,,,,,,,5,11,67,,,
56257,control_change,18,0,12,,,,,,,,,14,11,57,,,
56267,control_change,18,0,7,,,,,,,,,10,11,59,,,
56268,control_change,18,0,1,,,,,,,,,0,11,69,,,
56269,control_change,18,0,9,,,,,,,,,12,11,59,,,
56269,control_change,18,0,8,,,,,,,,,11,11,59,,,
56270,control_change,18,0,2,,,,,,,,,1,11,69,,,
56271,control_change,18,0,5,,,,,,,,,4,11,68,,,
56271,control_change,18,0,10,,,,,,,,,6,11,59,,,
56272,control_change,18,0,11,,,,,,,,,13,11,59,,,
56273,control_change,18,0,6,,,,,,,,,5,11,68,,,
56275,control_change,18,0,12,,,,,,,,,14,11,59,,,
56282,note_on,0,0,8,,,,,,,,,11,,,,66,113
56282,note_on,13,0,8,,,,,,,,,11,,,,68,0
56285,control_change,18,0,7,,,,,,,,,10,11,61,,,
56286,control_change,18,0,1,,,,,,,,,0,11,70,,,
56287,control_change,5,0,8,,,,,,,,,11,11,61,,,
56287,control_change,18,0,9,,,,,,,,,12,11,61,,,
56288,control_change,18,0,2,,,,,,,,,1,11,70,,,
56289,control_change,18,0,5,,,,,,,,,4,11,69,,,
56289,control_change,18,0,10,,,,,,,,,6,11,61,,,
56290,control_change,18,0,11,,,,,,,,,13,11,61,,,
56291,control_change,18,0,6,,,,,,,,,5,11,69,,,
56293,control_change,18,0,12,,,,,,,,,14,11,61,,,
56303,control_change,18,0,7,,,,,,,,,10,11,63,,,
56304,control_change,18,0,1,,,,,,,,,0,11,70,,,
56305,control_change,18,0,8,,,,,,,,,11,11,63,,,
56305,control_change,18,0,9,,,,,,,,,12,11,63,,,
56306,control_change,18,0,2,,,,,,,,,1,11,70,,,
56307,control_change,18,0,10,,,,,,,,,6,11,63,,,
56307,control_change,18,0,5,,,,,,,,,4,11,70,,,
56308,control_change,18,0,11,,,,,,,,,13,11,63,,,
56309,control_change,18,0,6,,,,,,,,,5,11,70,,,
56311,control_change,18,0,12,,,,,,,,,14,11,63,,,
56321,control_change,18,0,7,,,,,,,,,10,11,65,,,
56322,control_change,18,0,1,,,,,,,,,0,11,71,,,
56323,control_change,18,0,8,,,,,,,,,11,11,65,,,
56323,control_change,18,0,9,,,,,,,,,12,11,65,,,
56324,control_change,18,0,2,,,,,,,,,1,11,71,,,
56325,control_change,18,0,5,,,,,,,,,4,11,71,,,
56325,control_change,18,0,10,,,,,,,,,6,11,65,,,
56326,control_change,18,0,11,,,,,,,,,13,11,65,,,
56327,control_change,18,0,6,,,,,,,,,5,11,71,,,
56329,control_change,18,0,12,,,,,,,,,14,11,65,,,
56337,note_on,14,0,8,,,,,,,,,11,,,,66,0
56339,control_change,18,0,7,,,,,,,,,10,11,67,,,
56340,set_tempo,120,1,0,,,,,,1034483,,,,,,,,
56340,control_change,18,0,1,,,,,,,,,0,11,72,,,
56341,control_change,18,0,9,,,,,,,,,12,11,67,,,
56341,control_change,4,0,8,,,,,,,,,11,11,67,,,
56342,note_on,1,0,9,,,,,,,,,12,,,,63,0
56342,control_change,18,0,2,,,,,,,,,1,11,72,,,
56342,note_on,1,0,8,,,,,,,,,11,,,,68,113
56342,note_on,0,0,9,,,,,,,,,12,,,,58,101
56343,control_change,18,0,5,,,,,,,,,4,11,72,,,
56343,control_change,18,0,10,,,,,,,,,6,11,67,,,
56344,control_change,18,0,11,,,,,,,,,13,11,67,,,
56344,note_on,0,0,10,,,,,,,,,6,,,,58,104
56344,note_on,1,0,10,,,,,,,,,6,,,,63,0
56345,control_change,18,0,6,,,,,,,,,5,11,72,,,
56347,control_change,18,0,12,,,,,,,,,14,11,67,,,
56357,control_change,18,0,7,,,,,,,,,10,11,69,,,
56357,note_on,0,0,8,,,,,,,,,11,,,,66,113
56357,note_on,15,0,8,,,,,,,,,11,,,,68,0
56358,control_change,18,0,1,,,,,,,,,0,11,73,,,
56359,control_change,2,0,8,,,,,,,,,11,11,69,,,
56359,control_change,17,0,9,,,,,,,,,12,11,69,,,
56360,control_change,18,0,2,,,,,,,,,1,11,73,,,
56361,control_change,17,0,10,,,,,,,,,6,11,69,,,
56361,control_change,18,0,5,,,,,,,,,4,11,73,,,
56362,control_change,18,0,11,,,,,,,,,13,11,69,,,
56363,control_change,18,0,6,,,,,,,,,5,11,73,,,
56365,control_change,18,0,12,,,,,,,,,14,11,69,,,
56375,control_change,18,0,7,,,,,,,,,10,11,71,,,
56376,control_change,18,0,1,,,,,,,,,0,11,74,,,
56377,control_change,18,0,8,,,,,,,,,11,11,71,,,
56377,control_change,18,0,9,,,,,,,,,12,11,71,,,
56378,control_change,18,0,2,,,,,,,,,1,11,74,,,
56379,control_change,18,0,10,,,,,,,,,6,11,71,,,
56379,control_change,18,0,5,,,,,,,,,4,11,74,,,
56380,control_change,18,0,11,,,,,,,,,13,11,71,,,
56381,control_change,18,0,6,,,,,,,,,5,11,74,,,
56383,control_change,18,0,12,,,,,,,,,14,11,71,,,
56393,control_change,18,0,7,,,,,,,,,10,11,73,,,
56394,control_change,18,0,1,,,,,,,,,0,11,75,,,
56395,control_change,18,0,8,,,,,,,,,11,11,73,,,
56395,control_change,18,0,9,,,,,,,,,12,11,73,,,
56396,control_change,18,0,2,,,,,,,,,1,11,75,,,
56397,control_change,18,0,10,,,,,,,,,6,11,73,,,
56397,control_change,18,0,5,,,,,,,,,4,11,75,,,
56398,control_change,18,0,11,,,,,,,,,13,11,73,,,
56399,control_change,18,0,6,,,,,,,,,5,11,75,,,
56400,set_tempo,60,1,0,,,,,,937500,,,,,,,,
56401,control_change,18,0,12,,,,,,,,,14,11,73,,,
56402,note_on,7,0,8,,,,,,,,,11,,,,66,0
56402,note_on,0,0,8,,,,,,,,,11,,,,65,113
56411,control_change,18,0,7,,,,,,,,,10,11,75,,,
56412,control_change,18,0,1,,,,,,,,,0,11,76,,,
56413,control_change,18,0,9,,,,,,,,,12,11,75,,,
56413,control_change,11,0,8,,,,,,,,,11,11,75,,,
56414,control_change,18,0,2,,,,,,,,,1,11,76,,,
56415,control_change,18,0,5,,,,,,,,,4,11,76,,,
56415,control_change,18,0,10,,,,,,,,,6,11,75,,,
56416,control_change,18,0,11,,,,,,,,,13,11,75,,,
56417,control_change,18,0,6,,,,,,,,,5,11,76,,,
56419,control_change,18,0,12,,,,,,,,,14,11,75,,,
56429,control_change,18,0,7,,,,,,,,,10,11,77,,,
56430,control_change,18,0,1,,,,,,,,,0,11,76,,,
56431,control_change,18,0,8,,,,,,,,,11,11,77,,,
56431,control_change,18,0,9,,,,,,,,,12,11,77,,,
56432,control_change,18,0,2,,,,,,,,,1,11,76,,,
56433,control_change,18,0,10,,,,,,,,,6,11,77,,,
56433,control_change,18,0,5,,,,,,,,,4,11,77,,,
56434,control_change,18,0,11,,,,,,,,,13,11,77,,,
56435,control_change,18,0,6,,,,,,,,,5,11,77,,,
56437,control_change,18,0,12,,,,,,,,,14,11,77,,,
56447,control_change,18,0,7,,,,,,,,,10,11,79,,,
56448,control_change,18,0,1,,,,,,,,,0,11,77,,,
56449,control_change,18,0,8,,,,,,,,,11,11,79,,,
56449,control_change,18,0,9,,,,,,,,,12,11,79,,,
56450,control_change,18,0,2,,,,,,,,,1,11,77,,,
56451,control_change,18,0,5,,,,,,,,,4,11,78,,,
56451,control_change,18,0,10,,,,,,,,,6,11,79,,,
56452,control_change,18,0,11,,,,,,,,,13,11,79,,,
56453,control_change,18,0,6,,,,,,,,,5,11,78,,,
56455,note_on,8,0,7,,,,,,,,,10,,,,66,0
56455,note_on,0,0,7,,,,,,,,,10,,,,58,0
56455,control_change,18,0,12,,,,,,,,,14,11,79,,,
56460,note_on,5,0,7,,,,,,,,,10,,,,78,103
56462,note_on,0,0,8,,,,,,,,,11,,,,66,113
56462,note_on,13,0,8,,,,,,,,,11,,,,65,0
56465,control_change,5,0,7,,,,,,,,,10,11,81,,,
56466,control_change,18,0,1,,,,,,,,,0,11,78,,,
56467,control_change,18,0,9,,,,,,,,,12,11,81,,,
56467,control_change,5,0,8,,,,,,,,,11,11,81,,,
56468,control_change,18,0,2,,,,,,,,,1,11,78,,,
56469,control_change,18,0,10,,,,,,,,,6,11,81,,,
56469,control_change,18,0,5,,,,,,,,,4,11,79,,,
56470,control_change,18,0,11,,,,,,,,,13,11,81,,,
56471,control_change,18,0,6,,,,,,,,,5,11,79,,,
56473,control_change,18,0,12,,,,,,,,,14,11,81,,,
56483,control_change,18,0,7,,,,,,,,,10,11,83,,,
56484,control_change,18,0,1,,,,,,,,,0,11,79,,,
56485,control_change,18,0,8,,,,,,,,,11,11,83,,,
56485,control_change,18,0,9,,,,,,,,,12,11,83,,,
56486,control_change,18,0,2,,,,,,,,,1,11,79,,,
56487,control_change,18,0,5,,,,,,,,,4,11,80,,,
56487,control_change,18,0,10,,,,,,,,,6,11,83,,,
56488,control_change,18,0,11,,,,,,,,,13,11,83,,,
56489,control_change,18,0,6,,,,,,,,,5,11,80,,,
56491,control_change,18,0,12,,,,,,,,,14,11,83,,,
56501,control_change,18,0,7,,,,,,,,,10,11,85,,,
56502,control_change,18,0,1,,,,,,,,,0,11,80,,,
56503,control_change,18,0,9,,,,,,,,,12,11,85,,,
56503,control_change,18,0,8,,,,,,,,,11,11,85,,,
56504,control_change,18,0,2,,,,,,,,,1,11,80,,,
56505,control_change,18,0,10,,,,,,,,,6,11,85,,,
56505,control_change,18,0,5,,,,,,,,,4,11,81,,,
56506,control_change,18,0,11,,,,,,,,,13,11,85,,,
56507,control_change,18,0,6,,,,,,,,,5,11,81,,,
56509,control_change,18,0,12,,,,,,,,,14,11,85,,,
56515,note_on,14,0,7,,,,,,,,,10,,,,78,0
56515,note_on,13,0,1,,,,,,,,,0,,,,78,0
56517,note_on,14,0,8,,,,,,,,,11,,,,66,0
56517,note_on,13,0,2,,,,,,,,,1,,,,75,0
56519,control_change,4,0,7,,,,,,,,,10,11,87,,,
56520,note_on,1,0,7,,,,,,,,,10,,,,78,103
56520,control_change,0,0,1,,,,,,,,,0,11,80,,,
56520,note_on,14,0,11,,,,,,,,,13,,,,51,0
56520,set_tempo,120,1,0,,,,,,1034483,,,,,,,,
56520,note_on,5,0,1,,,,,,,,,0,,,,80,96
56521,control_change,4,0,8,,,,,,,,,11,11,87,,,
56521,control_change,18,0,9,,,,,,,,,12,11,87,,,
56522,control_change,5,0,2,,,,,,,,,1,11,80,,,
56522,note_on,0,0,9,,,,,,,,,12,,,,59,101
56522,note_on,0,0,2,,,,,,,,,1,,,,77,95
56522,note_on,1,0,9,,,,,,,,,12,,,,58,0
56522,note_on,1,0,8,,,,,,,,,11,,,,68,113
56523,control_change,18,0,10,,,,,,,,,6,11,87,,,
56523,note_on,18,0,5,,,,,,,,,4,,,,58,0
56523,note_on,14,0,12,,,,,,,,,14,,,,39,0
56524,note_on,1,0,10,,,,,,,,,6,,,,58,0
56524,control_change,4,0,11,,,,,,,,,13,11,87,,,
56524,note_on,0,0,10,,,,,,,,,6,,,,59,104
56525,note_on,0,0,4,,,,,,,,,3,,,,61,95
56525,note_on,1680,0,4,,,,,,,,,3,,,,49,95
56525,note_on,18,0,6,,,,,,,,,5,,,,46,0
56525,control_change,0,0,4,,,,,,,,,3,11,80,,,
56525,note_on,1,0,11,,,,,,,,,13,,,,49,100
56527,control_change,4,0,12,,,,,,,,,14,11,87,,,
56528,note_on,1,0,12,,,,,,,,,14,,,,37,96
56535,note_on,15,0,7,,,,,,,,,10,,,,78,0
56535,note_on,0,0,7,,,,,,,,,10,,,,77,103
56537,control_change,2,0,7,,,,,,,,,10,11,85,,,
56538,control_change,18,0,1,,,,,,,,,0,11,79,,,
56539,control_change,17,0,9,,,,,,,,,12,11,85,,,
56539,control_change,17,0,8,,,,,,,,,11,11,85,,,
56540,control_change,18,0,2,,,,,,,,,1,11,79,,,
56541,control_change,17,0,10,,,,,,,,,6,11,85,,,
56542,control_change,17,0,11,,,,,,,,,13,11,85,,,
56543,control_change,18,0,4,,,,,,,,,3,11,79,,,
56545,control_change,17,0,12,,,,,,,,,14,11,85,,,
56555,control_change,18,0,7,,,,,,,,,10,11,83,,,
56556,control_change,18,0,1,,,,,,,,,0,11,77,,,
56557,control_change,18,0,9,,,,,,,,,12,11,83,,,
56557,control_change,18,0,8,,,,,,,,,11,11,83,,,
56558,control_change,18,0,2,,,,,,,,,1,11,77,,,
56559,control_change,18,0,10,,,,,,,,,6,11,83,,,
56560,control_change,18,0,11,,,,,,,,,13,11,83,,,
56561,control_change,18,0,4,,,,,,,,,3,11,77,,,
56563,control_change,18,0,12,,,,,,,,,14,11,83,,,
56573,control_change,18,0,7,,,,,,,,,10,11,81,,,
56574,control_change,18,0,1,,,,,,,,,0,11,76,,,
56575,control_change,18,0,8,,,,,,,,,11,11,81,,,
56575,control_change,18,0,9,,,,,,,,,12,11,81,,,
56576,control_change,18,0,2,,,,,,,,,1,11,76,,,
56577,control_change,18,0,10,,,,,,,,,6,11,81,,,
56578,control_change,18,0,11,,,,,,,,,13,11,81,,,
56579,control_change,18,0,4,,,,,,,,,3,11,76,,,
56580,note_on,7,0,7,,,,,,,,,10,,,,77,0
56580,note_on,0,0,7,,,,,,,,,10,,,,75,103
56580,set_tempo,60,1,0,,,,,,937500,,,,,,,,
56581,control_change,18,0,12,,,,,,,,,14,11,81,,,
56591,control_change,11,0,7,,,,,,,,,10,11,79,,,
56592,control_change,18,0,1,,,,,,,,,0,11,74,,,
56593,control_change,18,0,8,,,,,,,,,11,11,79,,,
56593,control_change,18,0,9,,,,,,,,,12,11,79,,,
56594,control_change,18,0,2,,,,,,,,,1,11,74,,,
56595,control_change,18,0,10,,,,,,,,,6,11,79,,,
56596,control_change,18,0,11,,,,,,,,,13,11,79,,,
56597,control_change,18,0,4,,,,,,,,,3,11,74,,,
56599,control_change,18,0,12,,,,,,,,,14,11,79,,,
56609,control_change,18,0,7,,,,,,,,,10,11,77,,,
56610,control_change,18,0,1,,,,,,,,,0,11,72,,,
56611,control_change,18,0,9,,,,,,,,,12,11,77,,,
56611,control_change,18,0,8,,,,,,,,,11,11,77,,,
56612,control_change,18,0,2,,,,,,,,,1,11,72,,,
56613,control_change,18,0,10,,,,,,,,,6,11,77,,,
56614,control_change,18,0,11,,,,,,,,,13,11,77,,,
56615,control_change,18,0,4,,,,,,,,,3,11,72,,,
56617,control_change,18,0,12,,,,,,,,,14,11,77,,,
56627,control_change,18,0,7,,,,,,,,,10,11,75,,,
56628,control_change,18,0,1,,,,,,,,,0,11,70,,,
56629,control_change,18,0,9,,,,,,,,,12,11,75,,,
56629,control_change,18,0,8,,,,,,,,,11,11,75,,,
56630,control_change,18,0,2,,,,,,,,,1,11,70,,,
56631,control_change,18,0,10,,,,,,,,,6,11,75,,,
56632,control_change,18,0,11,,,,,,,,,13,11,75,,,
56633,control_change,18,0,4,,,,,,,,,3,11,70,,,
56635,control_change,18,0,12,,,,,,,,,14,11,75,,,
56640,note_on,13,0,7,,,,,,,,,10,,,,75,0
56640,note_on,0,0,7,,,,,,,,,10,,,,73,103
56645,control_change,5,0,7,,,,,,,,,10,11,73,,,
56646,control_change,18,0,1,,,,,,,,,0,11,69,,,
56647,control_change,18,0,8,,,,,,,,,11,11,73,,,
56647,control_change,18,0,9,,,,,,,,,12,11,73,,,
56648,control_change,18,0,2,,,,,,,,,1,11,69,,,
56649,control_change,18,0,10,,,,,,,,,6,11,73,,,
56650,control_change,18,0,11,,,,,,,,,13,11,73,,,
56651,control_change,18,0,4,,,,,,,,,3,11,69,,,
56653,control_change,18,0,12,,,,,,,,,14,11,73,,,
56663,control_change,18,0,7,,,,,,,,,10,11,71,,,
56664,control_change,18,0,1,,,,,,,,,0,11,67,,,
56665,control_change,18,0,8,,,,,,,,,11,11,71,,,
56665,control_change,18,0,9,,,,,,,,,12,11,71,,,
56666,control_change,18,0,2,,,,,,,,,1,11,67,,,
56667,control_change,18,0,10,,,,,,,,,6,11,71,,,
56668,control_change,18,0,11,,,,,,,,,13,11,71,,,
56669,control_change,18,0,4,,,,,,,,,3,11,67,,,
56671,control_change,18,0,12,,,,,,,,,14,11,71,,,
56681,control_change,18,0,7,,,,,,,,,10,11,69,,,
56682,control_change,18,0,1,,,,,,,,,0,11,65,,,
56683,control_change,18,0,8,,,,,,,,,11,11,69,,,
56683,control_change,18,0,9,,,,,,,,,12,11,69,,,
56684,control_change,18,0,2,,,,,,,,,1,11,65,,,
56685,control_change,18,0,10,,,,,,,,,6,11,69,,,
56686,control_change,18,0,11,,,,,,,,,13,11,69,,,
56687,control_change,18,0,4,,,,,,,,,3,11,65,,,
56689,control_change,18,0,12,,,,,,,,,14,11,69,,,
56695,note_on,14,0,7,,,,,,,,,10,,,,73,0
56699,control_change,4,0,7,,,,,,,,,10,11,67,,,
56700,control_change,18,0,1,,,,,,,,,0,11,64,,,
56700,set_tempo,120,1,0,,,,,,1034483,,,,,,,,
56700,note_on,1,0,7,,,,,,,,,10,,,,73,103
56701,control_change,18,0,8,,,,,,,,,11,11,67,,,
56701,control_change,18,0,9,,,,,,,,,12,11,67,,,
56702,note_on,1,0,9,,,,,,,,,12,,,,59,0
56702,note_on,1,0,8,,,,,,,,,11,,,,68,0
56702,control_change,18,0,2,,,,,,,,,1,11,64,,,
56702,note_on,0,0,9,,,,,,,,,12,,,,56,101
56702,note_on,0,0,8,,,,,,,,,11,,,,71,113
56703,note_on,0,0,3,,,,,,,,,2,,,,61,96
56703,note_on,0,0,3,,,,,,,,,2,,,,73,96
56703,control_change,540,0,3,,,,,,,,,2,11,64,,,
56703,control_change,18,0,10,,,,,,,,,6,11,67,,,
56704,note_on,0,0,10,,,,,,,,,6,,,,56,104
56704,note_on,1,0,10,,,,,,,,,6,,,,59,0
56704,control_change,18,0,11,,,,,,,,,13,11,67,,,
56705,control_change,18,0,4,,,,,,,,,3,11,64,,,
56707,control_change,18,0,12,,,,,,,,,14,11,67,,,
56717,control_change,17,0,7,,,,,,,,,10,11,65,,,
56718,control_change,18,0,1,,,,,,,,,0,11,62,,,
56719,control_change,17,0,9,,,,,,,,,12,11,65,,,
56719,control_change,17,0,8,,,,,,,,,11,11,65,,,
56720,control_change,18,0,2,,,,,,,,,1,11,62,,,
56721,control_change,18,0,3,,,,,,,,,2,11,62,,,
56721,control_change,17,0,10,,,,,,,,,6,11,65,,,
56722,control_change,18,0,11,,,,,,,,,13,11,65,,,
56723,control_change,18,0,4,,,,,,,,,3,11,62,,,
56725,control_change,18,0,12,,,,,,,,,14,11,65,,,
56735,control_change,18,0,7,,,,,,,,,10,11,63,,,
56736,control_change,18,0,1,,,,,,,,,0,11,61,,,
56737,control_change,18,0,8,,,,,,,,,11,11,63,,,
56737,control_change,18,0,9,,,,,,,,,12,11,63,,,
56738,control_change,18,0,2,,,,,,,,,1,11,61,,,
56739,control_change,18,0,3,,,,,,,,,2,11,61,,,
56739,control_change,18,0,10,,,,,,,,,6,11,63,,,
56740,control_change,18,0,11,,,,,,,,,13,11,63,,,
56741,control_change,18,0,4,,,,,,,,,3,11,61,,,
56743,control_change,18,0,12,,,,,,,,,14,11,63,,,
56753,control_change,18,0,7,,,,,,,,,10,11,61,,,
56754,control_change,18,0,1,,,,,,,,,0,11,59,,,
56755,control_change,18,0,9,,,,,,,,,12,11,61,,,
56755,control_change,18,0,8,,,,,,,,,11,11,61,,,
56756,control_change,18,0,2,,,,,,,,,1,11,59,,,
56757,control_change,18,0,3,,,,,,,,,2,11,59,,,
56757,control_change,18,0,10,,,,,,,,,6,11,61,,,
56758,control_change,18,0,11,,,,,,,,,13,11,61,,,
56759,control_change,18,0,4,,,,,,,,,3,11,59,,,
56760,note_on,7,0,7,,,,,,,,,10,,,,73,0
56760,set_tempo,60,1,0,,,,,,937500,,,,,,,,
56760,note_on,0,0,7,,,,,,,,,10,,,,75,103
56761,control_change,18,0,12,,,,,,,,,14,11,61,,,
56771,control_change,11,0,7,,,,,,,,,10,11,59,,,
56772,control_change,18,0,1,,,,,,,,,0,11,57,,,
56773,control_change,18,0,8,,,,,,,,,11,11,59,,,
56773,control_change,18,0,9,,,,,,,,,12,11,59,,,
56774,control_change,18,0,2,,,,,,,,,1,11,57,,,
56775,control_change,18,0,10,,,,,,,,,6,11,59,,,
56775,control_change,18,0,3,,,,,,,,,2,11,57,,,
56776,control_change,18,0,11,,,,,,,,,13,11,59,,,
56777,control_change,18,0,4,,,,,,,,,3,11,57,,,
56779,control_change,18,0,12,,,,,,,,,14,11,59,,,
56789,control_change,18,0,7,,,,,,,,,10,11,57,,,
56790,control_change,18,0,1,,,,,,,,,0,11,55,,,
56791,control_change,18,0,8,,,,,,,,,11,11,57,,,
56791,control_change,18,0,9,,,,,,,,,12,11,57,,,
56792,control_change,18,0,2,,,,,,,,,1,11,55,,,
56793,control_change,18,0,3,,,,,,,,,2,11,55,,,
56793,control_change,18,0,10,,,,,,,,,6,11,57,,,
56794,control_change,18,0,11,,,,,,,,,13,11,57,,,
56795,control_change,18,0,4,,,,,,,,,3,11,55,,,
56797,control_change,18,0,12,,,,,,,,,14,11,57,,,
56807,control_change,18,0,7,,,,,,,,,10,11,55,,,
56808,control_change,18,0,1,,,,,,,,,0,11,54,,,
56809,control_change,18,0,9,,,,,,,,,12,11,55,,,
56809,control_change,18,0,8,,,,,,,,,11,11,55,,,
56810,control_change,18,0,2,,,,,,,,,1,11,54,,,
56811,control_change,18,0,10,,,,,,,,,6,11,55,,,
56811,control_change,18,0,3,,,,,,,,,2,11,54,,,
56812,control_change,18,0,11,,,,,,,,,13,11,55,,,
56813,control_change,18,0,4,,,,,,,,,3,11,54,,,
56815,control_change,18,0,12,,,,,,,,,14,11,55,,,
56820,note_on,0,0,7,,,,,,,,,10,,,,77,103
56820,note_on,13,0,7,,,,,,,,,10,,,,75,0
56822,note_on,13,0,9,,,,,,,,,12,,,,56,0
56822,note_on,13,0,8,,,,,,,,,11,,,,71,0
56822,note_on,0,0,9,,,,,,,,,12,,,,59,101
56822,note_on,0,0,8,,,,,,,,,11,,,,68,113
56824,note_on,0,0,10,,,,,,,,,6,,,,59,104
56824,note_on,13,0,10,,,,,,,,,6,,,,56,0
56825,control_change,5,0,7,,,,,,,,,10,11,53,,,
56826,control_change,18,0,1,,,,,,,,,0,11,52,,,
56827,control_change,5,0,8,,,,,,,,,11,11,53,,,
56827,control_change,5,0,9,,,,,,,,,12,11,53,,,
56828,control_change,18,0,2,,,,,,,,,1,11,52,,,
56829,control_change,18,0,3,,,,,,,,,2,11,52,,,
56829,control_change,5,0,10,,,,,,,,,6,11,53,,,
56830,control_change,18,0,11,,,,,,,,,13,11,53,,,
56831,control_change,18,0,4,,,,,,,,,3,11,52,,,
56833,control_change,18,0,12,,,,,,,,,14,11,53,,,
56843,control_change,18,0,7,,,,,,,,,10,11,51,,,
56844,control_change,18,0,1,,,,,,,,,0,11,51,,,
56845,control_change,18,0,8,,,,,,,,,11,11,51,,,
56845,control_change,18,0,9,,,,,,,,,12,11,51,,,
56846,control_change,18,0,2,,,,,,,,,1,11,51,,,
56847,control_change,18,0,3,,,,,,,,,2,11,51,,,
56847,control_change,18,0,10,,,,,,,,,6,11,51,,,
56848,control_change,18,0,11,,,,,,,,,13,11,51,,,
56849,control_change,18,0,4,,,,,,,,,3,11,51,,,
56851,control_change,18,0,12,,,,,,,,,14,11,51,,,
56861,control_change,18,0,7,,,,,,,,,10,11,49,,,
56862,control_change,18,0,1,,,,,,,,,0,11,49,,,
56863,control_change,18,0,9,,,,,,,,,12,11,49,,,
56863,control_change,18,0,8,,,,,,,,,11,11,49,,,
56864,control_change,18,0,2,,,,,,,,,1,11,49,,,
56865,control_change,18,0,3,,,,,,,,,2,11,49,,,
56865,control_change,18,0,10,,,,,,,,,6,11,49,,,
56866,control_change,18,0,11,,,,,,,,,13,11,49,,,
56867,control_change,18,0,4,,,,,,,,,3,11,49,,,
56869,control_change,18,0,12,,,,,,,,,14,11,49,,,
56875,note_on,13,0,1,,,,,,,,,0,,,,80,0
56875,note_on,14,0,7,,,,,,,,,10,,,,77,0
56877,note_on,14,0,8,,,,,,,,,11,,,,68,0
56877,note_on,13,0,2,,,,,,,,,1,,,,77,0
56877,note_on,14,0,9,,,,,,,,,12,,,,59,0
56879,note_on,14,0,10,,,,,,,,,6,,,,59,0
56879,control_change,4,0,7,,,,,,,,,10,11,47,,,
56880,note_on,14,0,11,,,,,,,,,13,,,,49,0
56880,set_tempo,120,1,0,,,,,,1034483,,,,,,,,
56880,control_change,5,0,1,,,,,,,,,0,11,47,,,
56880,note_on,1,0,7,,,,,,,,,10,,,,78,90
56880,note_on,0,0,1,,,,,,,,,0,,,,82,96
56881,control_change,4,0,8,,,,,,,,,11,11,47,,,
56881,control_change,4,0,9,,,,,,,,,12,11,47,,,
56882,note_on,1,0,9,,,,,,,,,12,,,,58,91
56882,note_on,1,0,8,,,,,,,,,11,,,,70,103
56882,note_on,0,0,2,,,,,,,,,1,,,,78,95
56882,control_change,5,0,2,,,,,,,,,1,11,47,,,
56883,note_on,14,0,12,,,,,,,,,14,,,,37,0
56883,control_change,18,0,3,,,,,,,,,2,11,47,,,
56883,control_change,4,0,10,,,,,,,,,6,11,47,,,
56884,note_on,1,0,10,,,,,,,,,6,,,,58,89
56884,control_change,4,0,11,,,,,,,,,13,11,47,,,
56885,note_on,1,0,11,,,,,,,,,13,,,,42,89
56885,control_change,18,0,4,,,,,,,,,3,11,47,,,
56887,control_change,4,0,12,,,,,,,,,14,11,47,,,
56888,note_on,1,0,12,,,,,,,,,14,,,,30,83
56900,control_change,18,0,9,,,,,,,,,12,11,44,,,
56900,control_change,18,0,8,,,,,,,,,11,11,44,,,
56912,note_on,0,0,8,,,,,,,,,11,,,,61,65
56912,note_on,12,0,8,,,,,,,,,11,,,,70,0
56912,note_on,0,0,9,,,,,,,,,12,,,,49,64
56912,note_on,12,0,9,,,,,,,,,12,,,,58,0
56938,note_on,0,0,3,,,,,,,,,2,,,,61,0
56938,note_on,55,0,3,,,,,,,,,2,,,,73,0
56940,set_tempo,60,1,0,,,,,,937500,,,,,,,,
56942,note_on,30,0,9,,,,,,,,,12,,,,49,0
56942,note_on,0,0,8,,,,,,,,,11,,,,58,65
56942,note_on,30,0,8,,,,,,,,,11,,,,61,0
56942,note_on,0,0,9,,,,,,,,,12,,,,54,64
56943,note_on,5,0,3,,,,,,,,,2,,,,73,96
56970,control_change,90,0,7,,,,,,,,,10,11,47,,,
56972,note_on,30,0,8,,,,,,,,,11,,,,58,0
56972,note_on,0,0,8,,,,,,,,,11,,,,61,65
56972,note_on,30,0,9,,,,,,,,,12,,,,54,0
56972,note_on,0,0,9,,,,,,,,,12,,,,49,64
56974,control_change,4,0,7,,,,,,,,,10,11,44,,,
56978,control_change,4,0,7,,,,,,,,,10,11,41,,,
56983,control_change,5,0,7,,,,,,,,,10,11,38,,,
56987,control_change,4,0,7,,,,,,,,,10,11,35,,,
56991,control_change,4,0,7,,,,,,,,,10,11,32,,,
56996,control_change,5,0,7,,,,,,,,,10,11,29,,,
56998,note_on,55,0,3,,,,,,,,,2,,,,73,0
57000,note_on,120,0,1,,,,,,,,,0,,,,82,0
57000,note_on,4,0,7,,,,,,,,,10,,,,78,0
57002,note_on,30,0,9,,,,,,,,,12,,,,49,0
57002,note_on,0,0,9,,,,,,,,,12,,,,54,64
57002,note_on,30,0,8,,,,,,,,,11,,,,61,0
57002,note_on,0,0,8,,,,,,,,,11,,,,58,65
57002,note_on,120,0,2,,,,,,,,,1,,,,78,0
57003,note_on,5,0,3,,,,,,,,,2,,,,73,96
57004,note_on,120,0,10,,,,,,,,,6,,,,58,0
57005,note_on,120,0,11,,,,,,,,,13,,,,42,0
57005,note_on,120,0,4,,,,,,,,,3,,,,61,0
57005,note_on,0,0,4,,,,,,,,,3,,,,49,0
57008,note_on,120,0,12,,,,,,,,,14,,,,30,0
57024,control_change,24,0,1,,,,,,,,,0,11,46,,,
57027,control_change,24,0,3,,,,,,,,,2,11,46,,,
57032,note_on,30,0,8,,,,,,,,,11,,,,58,0
57032,note_on,0,0,8,,,,,,,,,11,,,,61,65
57032,note_on,0,0,9,,,,,,,,,12,,,,49,64
57032,note_on,30,0,9,,,,,,,,,12,,,,54,0
57060,set_tempo,120,1,0,,,,,,1034483,,,,,,,,
57060,note_on,36,0,1,,,,,,,,,0,,,,78,96
57062,note_on,0,0,9,,,,,,,,,12,,,,54,64
57062,note_on,30,0,9,,,,,,,,,12,,,,49,0
57062,control_change,0,0,8,,,,,,,,,11,11,42,,,
57062,note_on,30,0,8,,,,,,,,,11,,,,61,0
57062,control_change,0,0,9,,,,,,,,,12,11,42,,,
57062,note_on,0,0,8,,,,,,,,,11,,,,58,65
57063,note_on,0,0,3,,,,,,,,,2,,,,75,96
57063,note_on,36,0,3,,,,,,,,,2,,,,73,0
57092,note_on,30,0,8,,,,,,,,,11,,,,58,0
57092,note_on,30,0,9,,,,,,,,,12,,,,54,0
57092,note_on,0,0,9,,,,,,,,,12,,,,49,64
57092,note_on,0,0,8,,,,,,,,,11,,,,61,65
57120,set_tempo,60,1,0,,,,,,937500,,,,,,,,
57122,note_on,0,0,9,,,,,,,,,12,,,,54,64
57122,note_on,30,0,9,,,,,,,,,12,,,,49,0
57122,note_on,30,0,8,,,,,,,,,11,,,,61,0
57122,note_on,0,0,8,,,,,,,,,11,,,,58,65
57123,note_on,60,0,3,,,,,,,,,2,,,,75,0
57123,note_on,0,0,3,,,,,,,,,2,,,,73,96
57152,note_on,0,0,8,,,,,,,,,11,,,,61,65
57152,note_on,30,0,8,,,,,,,,,11,,,,58,0
57152,note_on,30,0,9,,,,,,,,,12,,,,54,0
57152,note_on,0,0,9,,,,,,,,,12,,,,49,64
57168,control_change,108,0,1,,,,,,,,,0,11,45,,,
57171,control_change,48,0,3,,,,,,,,,2,11,45,,,
57178,note_on,7,0,3,,,,,,,,,2,,,,73,0
57182,note_on,0,0,9,,,,,,,,,12,,,,54,64
57182,note_on,30,0,8,,,,,,,,,11,,,,61,0
57182,note_on,0,0,8,,,,,,,,,11,,,,58,65
57182,note_on,30,0,9,,,,,,,,,12,,,,49,0
57183,note_on,5,0,3,,,,,,,,,2,,,,73,96
57188,control_change,6,0,8,,,,,,,,,11,11,41,,,
57188,control_change,6,0,9,,,,,,,,,12,11,41,,,
57212,note_on,0,0,9,,,,,,,,,12,,,,49,64
57212,note_on,0,0,8,,,,,,,,,11,,,,61,65
57212,note_on,24,0,8,,,,,,,,,11,,,,58,0
57212,note_on,24,0,9,,,,,,,,,12,,,,54,0
57237,note_on,25,0,9,,,,,,,,,12,,,,49,0
57237,note_on,25,0,8,,,,,,,,,11,,,,61,0
57240,note_on,0,0,1,,,,,,,,,0,,,,73,96
57240,note_on,72,0,1,,,,,,,,,0,,,,78,0
57240,set_tempo,120,1,0,,,,,,1034483,,,,,,,,
57242,note_on,5,0,8,,,,,,,,,11,,,,58,65
57242,note_on,5,0,9,,,,,,,,,12,,,,54,64
57243,note_on,0,0,3,,,,,,,,,2,,,,71,96
57243,note_on,60,0,3,,,,,,,,,2,,,,73,0
57272,note_on,0,0,8,,,,,,,,,11,,,,61,65
57272,note_on,0,0,9,,,,,,,,,12,,,,49,64
57272,note_on,30,0,9,,,,,,,,,12,,,,54,0
57272,note_on,30,0,8,,,,,,,,,11,,,,58,0
57300,set_tempo,60,1,0,,,,,,937500,,,,,,,,
57302,note_on,30,0,8,,,,,,,,,11,,,,61,0
57302,note_on,30,0,9,,,,,,,,,12,,,,49,0
57302,note_on,0,0,9,,,,,,,,,12,,,,54,64
57302,note_on,0,0,8,,,,,,,,,11,,,,58,65
57303,note_on,0,0,3,,,,,,,,,2,,,,70,96
57303,note_on,60,0,3,,,,,,,,,2,,,,71,0
57312,control_change,72,0,1,,,,,,,,,0,11,45,,,
57314,control_change,12,0,9,,,,,,,,,12,11,40,,,
57314,control_change,12,0,8,,,,,,,,,11,11,40,,,
57315,control_change,12,0,3,,,,,,,,,2,11,45,,,
57332,note_on,18,0,9,,,,,,,,,12,,,,54,0
57332,note_on,0,0,8,,,,,,,,,11,,,,61,65
57332,note_on,18,0,8,,,,,,,,,11,,,,58,0
57332,note_on,0,0,9,,,,,,,,,12,,,,49,64
57358,note_on,43,0,3,,,,,,,,,2,,,,70,0
57362,note_on,30,0,8,,,,,,,,,11,,,,61,0
57362,note_on,30,0,9,,,,,,,,,12,,,,49,0
57362,note_on,0,0,9,,,,,,,,,12,,,,54,64
57362,note_on,0,0,8,,,,,,,,,11,,,,58,65
57363,note_on,5,0,3,,,,,,,,,2,,,,70,96
57392,note_on,0,0,8,,,,,,,,,11,,,,61,65
57392,note_on,30,0,8,,,,,,,,,11,,,,58,0
57392,note_on,30,0,9,,,,,,,,,12,,,,54,0
57392,note_on,0,0,9,,,,,,,,,12,,,,49,64
57420,note_on,0,0,1,,,,,,,,,0,,,,70,96
57420,note_on,108,0,1,,,,,,,,,0,,,,73,0
57420,set_tempo,120,1,0,,,,,,1034483,,,,,,,,
57422,note_on,0,0,9,,,,,,,,,12,,,,54,64
57422,note_on,30,0,8,,,,,,,,,11,,,,61,0
57422,note_on,30,0,9,,,,,,,,,12,,,,49,0
57422,note_on,0,0,8,,,,,,,,,11,,,,58,65
57423,note_on,60,0,3,,,,,,,,,2,,,,70,0
57423,note_on,0,0,3,,,,,,,,,2,,,,68,96
57440,control_change,18,0,8,,,,,,,,,11,11,39,,,
57440,control_change,18,0,9,,,,,,,,,12,11,39,,,
57452,note_on,0,0,8,,,,,,,,,11,,,,61,65
57452,note_on,12,0,8,,,,,,,,,11,,,,58,0
57452,note_on,12,0,9,,,,,,,,,12,,,,54,0
57452,note_on,0,0,9,,,,,,,,,12,,,,49,64
57456,control_change,36,0,1,,,,,,,,,0,11,44,,,
57459,control_change,36,0,3,,,,,,,,,2,11,44,,,
57480,set_tempo,60,1,0,,,,,,937500,,,,,,,,
57480,note_on,0,0,7,,,,,,,,,10,,,,70,98
57480,control_change,480,0,7,,,,,,,,,10,11,47,,,
57482,note_on,30,0,9,,,,,,,,,12,,,,49,0
57482,note_on,30,0,8,,,,,,,,,11,,,,61,0
57482,note_on,0,0,9,,,,,,,,,12,,,,54,64
57482,note_on,0,0,8,,,,,,,,,11,,,,58,65
57483,note_on,0,0,3,,,,,,,,,2,,,,66,96
57483,note_on,24,0,3,,,,,,,,,2,,,,68,0
57510,note_on,0,0,7,,,,,,,,,10,,,,71,122
57510,note_on,30,0,7,,,,,,,,,10,,,,70,0
57512,note_on,0,0,8,,,,,,,,,11,,,,61,65
57512,note_on,30,0,8,,,,,,,,,11,,,,58,0
57512,note_on,0,0,9,,,,,,,,,12,,,,49,64
57512,note_on,30,0,9,,,,,,,,,12,,,,54,0
57538,note_on,55,0,3,,,,,,,,,2,,,,66,0
57540,note_on,30,0,7,,,,,,,,,10,,,,71,0
57540,note_on,0,0,7,,,,,,,,,10,,,,73,122
57542,note_on,30,0,8,,,,,,,,,11,,,,61,0
57542,note_on,0,0,8,,,,,,,,,11,,,,58,65
57542,note_on,0,0,9,,,,,,,,,12,,,,54,64
57542,note_on,30,0,9,,,,,,,,,12,,,,49,0
57543,note_on,5,0,3,,,,,,,,,2,,,,66,96
57550,control_change,10,0,7,,,,,,,,,10,11,46,,,
57566,control_change,24,0,9,,,,,,,,,12,11,38,,,
57566,control_change,24,0,8,,,,,,,,,11,11,38,,,
57570,note_on,0,0,7,,,,,,,,,10,,,,71,122
57570,note_on,20,0,7,,,,,,,,,10,,,,73,0
57572,note_on,6,0,8,,,,,,,,,11,,,,58,0
57572,note_on,0,0,9,,,,,,,,,12,,,,49,64
57572,note_on,6,0,9,,,,,,,,,12,,,,54,0
57572,note_on,0,0,8,,,,,,,,,11,,,,61,65
57595,note_on,25,0,7,,,,,,,,,10,,,,71,0
57597,note_on,25,0,8,,,,,,,,,11,,,,61,0
57597,note_on,25,0,9,,,,,,,,,12,,,,49,0
57600,set_tempo,120,1,0,,,,,,1034483,,,,,,,,
57600,control_change,0,0,1,,,,,,,,,0,11,43,,,
57600,note_on,144,0,1,,,,,,,,,0,,,,70,0
57600,note_on,5,0,7,,,,,,,,,10,,,,71,122
57602,note_on,5,0,9,,,,,,,,,12,,,,54,64
57602,note_on,5,0,8,,,,,,,,,11,,,,58,65
57603,note_on,0,0,3,,,,,,,,,2,,,,64,96
57603,program_change,599,0,10,,,,,,,,45,6,,,,,
57603,control_change,0,0,3,,,,,,,,,2,11,43,,,
57603,note_on,60,0,3,,,,,,,,,2,,,,66,0
57604,control_change,1,0,10,,,,,,,,,6,11,100,,,
57604,program_change,599,0,11,,,,,,,,45,13,,,,,
57604,note_on,0,0,10,,,,,,,,,6,,,,42,39
57605,control_change,1,0,11,,,,,,,,,13,11,100,,,
57605,note_on,0,0,11,,,,,,,,,13,,,,42,43
57605,note_on,600,0,4,,,,,,,,,3,,,,42,95
57605,control_change,0,0,4,,,,,,,,,3,11,43,,,
57607,program_change,599,0,12,,,,,,,,45,14,,,,,
57608,note_on,0,0,12,,,,,,,,,14,,,,30,36
57608,control_change,1,0,12,,,,,,,,,14,11,100,,,
57620,control_change,20,0,7,,,,,,,,,10,11,45,,,
57632,note_on,30,0,8,,,,,,,,,11,,,,58,0
57632,note_on,30,0,9,,,,,,,,,12,,,,54,0
57632,note_on,0,0,9,,,,,,,,,12,,,,49,64
57632,note_on,0,0,8,,,,,,,,,11,,,,61,65
57660,set_tempo,60,1,0,,,,,,937500,,,,,,,,
57660,note_on,40,0,7,,,,,,,,,10,,,,71,0
57660,note_on,0,0,7,,,,,,,,,10,,,,70,122
57662,note_on,30,0,8,,,,,,,,,11,,,,61,0
57662,note_on,30,0,9,,,,,,,,,12,,,,49,0
57662,note_on,0,0,9,,,,,,,,,12,,,,54,64
57662,note_on,0,0,8,,,,,,,,,11,,,,58,65
57665,note_on,60,0,4,,,,,,,,,3,,,,64,95
57690,control_change,30,0,7,,,,,,,,,10,11,44,,,
57692,control_change,0,0,8,,,,,,,,,11,11,37,,,
57692,note_on,0,0,8,,,,,,,,,11,,,,61,65
57692,note_on,30,0,9,,,,,,,,,12,,,,54,0
57692,control_change,0,0,9,,,,,,,,,12,11,37,,,
57692,note_on,0,0,9,,,,,,,,,12,,,,49,64
57692,note_on,30,0,8,,,,,,,,,11,,,,58,0
57720,note_on,55,0,4,,,,,,,,,3,,,,64,0
57720,control_change,30,0,7,,,,,,,,,10,11,43,,,
57722,note_on,0,0,9,,,,,,,,,12,,,,54,64
57722,note_on,0,0,8,,,,,,,,,11,,,,58,65
57722,note_on,30,0,9,,,,,,,,,12,,,,49,0
57722,note_on,30,0,8,,,,,,,,,11,,,,61,0
57723,note_on,120,0,3,,,,,,,,,2,,,,64,0
57724,note_on,120,0,10,,,,,,,,,6,,,,42,0
57725,note_on,5,0,4,,,,,,,,,3,,,,64,95
57725,note_on,120,0,11,,,,,,,,,13,,,,42,0
57728,note_on,120,0,12,,,,,,,,,14,,,,30,0
57728,control_change,8,0,7,,,,,,,,,10,11,40,,,
57737,control_change,9,0,7,,,,,,,,,10,11,37,,,
57744,control_change,144,0,1,,,,,,,,,0,11,43,,,
57746,control_change,9,0,7,,,,,,,,,10,11,34,,,
57749,control_change,24,0,4,,,,,,,,,3,11,43,,,
57752,note_on,30,0,8,,,,,,,,,11,,,,58,0
57752,note_on,0,0,8,,,,,,,,,11,,,,61,65
57752,note_on,0,0,9,,,,,,,,,12,,,,49,64
57752,note_on,30,0,9,,,,,,,,,12,,,,54,0
57755,control_change,9,0,7,,,,,,,,,10,11,31,,,
57764,control_change,9,0,7,,,,,,,,,10,11,28,,,
57773,control_change,9,0,7,,,,,,,,,10,11,25,,,
57780,set_tempo,120,1,0,,,,,,1034483,,,,,,,,
57780,note_on,36,0,1,,,,,,,,,0,,,,78,96
57780,note_on,7,0,7,,,,,,,,,10,,,,70,0
57782,note_on,0,0,9,,,,,,,,,12,,,,54,64
57782,note_on,0,0,8,,,,,,,,,11,,,,58,65
57782,note_on,30,0,9,,,,,,,,,12,,,,49,0
57782,note_on,30,0,8,,,,,,,,,11,,,,61,0
57785,note_on,0,0,4,,,,,,,,,3,,,,66,95
57785,note_on,36,0,4,,,,,,,,,3,,,,64,0
57812,note_on,30,0,8,,,,,,,,,11,,,,58,0
57812,note_on,0,0,8,,,,,,,,,11,,,,61,65
57812,note_on,30,0,9,,,,,,,,,12,,,,54,0
57812,note_on,0,0,9,,,,,,,,,12,,,,49,64
57818,control_change,6,0,8,,,,,,,,,11,11,36,,,
57818,control_change,6,0,9,,,,,,,,,12,11,36,,,
57840,set_tempo,60,1,0,,,,,,937500,,,,,,,,
57842,note_on,0,0,8,,,,,,,,,11,,,,58,65
57842,note_on,24,0,8,,,,,,,,,11,,,,61,0
57842,note_on,24,0,9,,,,,,,,,12,,,,49,0
57842,note_on,0,0,9,,,,,,,,,12,,,,54,64
57845,note_on,0,0,4,,,,,,,,,3,,,,64,95
57845,note_on,60,0,4,,,,,,,,,3,,,,66,0
57872,note_on,0,0,8,,,,,,,,,11,,,,61,65
57872,note_on,30,0,8,,,,,,,,,11,,,,58,0
57872,note_on,30,0,9,,,,,,,,,12,,,,54,0
57872,note_on,0,0,9,,,,,,,,,12,,,,49,64
57888,control_change,108,0,1,,,,,,,,,0,11,42,,,
57893,control_change,48,0,4,,,,,,,,,3,11,42,,,
57900,note_on,7,0,4,,,,,,,,,3,,,,64,0
57902,note_on,30,0,8,,,,,,,,,11,,,,61,0
57902,note_on,0,0,9,,,,,,,,,12,,,,54,64
57902,note_on,0,0,8,,,,,,,,,11,,,,58,65
57902,note_on,30,0,9,,,,,,,,,12,,,,49,0
57905,note_on,5,0,4,,,,,,,,,3,,,,64,95
57932,note_on,30,0,9,,,,,,,,,12,,,,54,0
57932,note_on,0,0,9,,,,,,,,,12,,,,49,64
57932,note_on,30,0,8,,,,,,,,,11,,,,58,0
57932,note_on,0,0,8,,,,,,,,,11,,,,61,65
57944,control_change,12,0,9,,,,,,,,,12,11,35,,,
57944,control_change,12,0,8,,,,,,,,,11,11,35,,,
57957,note_on,13,0,9,,,,,,,,,12,,,,49,0
57957,note_on,13,0,8,,,,,,,,,11,,,,61,0
57960,note_on,0,0,1,,,,,,,,,0,,,,73,96
57960,note_on,72,0,1,,,,,,,,,0,,,,78,0
57960,set_tempo,120,1,0,,,,,,1034483,,,,,,,,
57962,note_on,5,0,8,,,,,,,,,11,,,,58,65
57962,note_on,5,0,9,,,,,,,,,12,,,,54,64
57965,note_on,0,0,4,,,,,,,,,3,,,,63,95
57965,note_on,60,0,4,,,,,,,,,3,,,,64,0
57992,note_on,0,0,8,,,,,,,,,11,,,,61,65
57992,note_on,0,0,9,,,,,,,,,12,,,,49,64
57992,note_on,30,0,9,,,,,,,,,12,,,,54,0
57992,note_on,30,0,8,,,,,,,,,11,,,,58,0
58020,set_tempo,60,1,0,,,,,,937500,,,,,,,,
58022,note_on,30,0,9,,,,,,,,,12,,,,49,0
58022,note_on,0,0,9,,,,,,,,,12,,,,54,64
58022,note_on,0,0,8,,,,,,,,,11,,,,58,65
58022,note_on,30,0,8,,,,,,,,,11,,,,61,0
58025,note_on,0,0,4,,,,,,,,,3,,,,61,95
58025,note_on,60,0,4,,,,,,,,,3,,,,63,0
58032,control_change,72,0,1,,,,,,,,,0,11,41,,,
58037,control_change,12,0,4,,,,,,,,,3,11,41,,,
58052,note_on,30,0,9,,,,,,,,,12,,,,54,0
58052,note_on,30,0,8,,,,,,,,,11,,,,58,0
58052,note_on,0,0,8,,,,,,,,,11,,,,61,65
58052,note_on,0,0,9,,,,,,,,,12,,,,49,64
58070,control_change,18,0,8,,,,,,,,,11,11,34,,,
58070,control_change,18,0,9,,,,,,,,,12,11,34,,,
58080,note_on,43,0,4,,,,,,,,,3,,,,61,0
58082,note_on,12,0,9,,,,,,,,,12,,,,49,0
58082,note_on,0,0,8,,,,,,,,,11,,,,58,65
58082,note_on,0,0,9,,,,,,,,,12,,,,54,64
58082,note_on,12,0,8,,,,,,,,,11,,,,61,0
58085,note_on,5,0,4,,,,,,,,,3,,,,61,95
58112,note_on,0,0,8,,,,,,,,,11,,,,61,65
58112,note_on,30,0,8,,,,,,,,,11,,,,58,0
58112,note_on,0,0,9,,,,,,,,,12,,,,49,64
58112,note_on,30,0,9,,,,,,,,,12,,,,54,0
58140,note_on,0,0,1,,,,,,,,,0,,,,70,96
58140,note_on,108,0,1,,,,,,,,,0,,,,73,0
58140,set_tempo,120,1,0,,,,,,1034483,,,,,,,,
58142,note_on,30,0,8,,,,,,,,,11,,,,61,0
58142,note_on,0,0,8,,,,,,,,,11,,,,58,65
58142,note_on,30,0,9,,,,,,,,,12,,,,49,0
58142,note_on,0,0,9,,,,,,,,,12,,,,54,64
58145,note_on,60,0,4,,,,,,,,,3,,,,61,0
58145,note_on,0,0,4,,,,,,,,,3,,,,59,95
58172,note_on,30,0,8,,,,,,,,,11,,,,58,0
58172,note_on,0,0,8,,,,,,,,,11,,,,61,65
58172,note_on,0,0,9,,,,,,,,,12,,,,49,64
58172,note_on,30,0,9,,,,,,,,,12,,,,54,0
58176,control_change,36,0,1,,,,,,,,,0,11,40,,,
58180,control_change,400,0,7,,,,,,,,,10,11,37,,,
58181,control_change,36,0,4,,,,,,,,,3,11,40,,,
58196,control_change,24,0,9,,,,,,,,,12,11,33,,,
58196,control_change,24,0,8,,,,,,,,,11,11,33,,,
58200,set_tempo,60,1,0,,,,,,937500,,,,,,,,
58200,note_on,20,0,7,,,,,,,,,10,,,,73,98
58202,note_on,0,0,8,,,,,,,,,11,,,,58,65
58202,note_on,6,0,8,,,,,,,,,11,,,,61,0
58202,note_on,6,0,9,,,,,,,,,12,,,,49,0
58202,note_on,0,0,9,,,,,,,,,12,,,,54,64
58205,note_on,0,0,4,,,,,,,,,3,,,,58,95
58205,note_on,24,0,4,,,,,,,,,3,,,,59,0
58230,note_on,0,0,7,,,,,,,,,10,,,,75,122
58230,note_on,30,0,7,,,,,,,,,10,,,,73,0
58232,note_on,0,0,8,,,,,,,,,11,,,,61,65
58232,note_on,30,0,8,,,,,,,,,11,,,,58,0
58232,note_on,30,0,9,,,,,,,,,12,,,,54,0
58232,note_on,0,0,9,,,,,,,,,12,,,,49,64
58250,control_change,20,0,7,,,,,,,,,10,11,36,,,
58260,note_on,55,0,4,,,,,,,,,3,,,,58,0
58260,note_on,0,0,7,,,,,,,,,10,,,,76,122
58260,note_on,10,0,7,,,,,,,,,10,,,,75,0
58262,note_on,0,0,8,,,,,,,,,11,,,,58,65
58262,note_on,30,0,8,,,,,,,,,11,,,,61,0
58262,note_on,30,0,9,,,,,,,,,12,,,,49,0
58262,note_on,0,0,9,,,,,,,,,12,,,,54,64
58265,note_on,5,0,4,,,,,,,,,3,,,,58,95
58290,note_on,0,0,7,,,,,,,,,10,,,,75,122
58290,note_on,30,0,7,,,,,,,,,10,,,,76,0
58292,note_on,0,0,8,,,,,,,,,11,,,,61,65
58292,note_on,0,0,9,,,,,,,,,12,,,,49,64
58292,note_on,30,0,8,,,,,,,,,11,,,,58,0
58292,note_on,30,0,9,,,,,,,,,12,,,,54,0
58315,note_on,25,0,7,,,,,,,,,10,,,,75,0
58317,note_on,25,0,9,,,,,,,,,12,,,,49,0
58317,note_on,25,0,8,,,,,,,,,11,,,,61,0
58320,note_on,0,0,4,,,,,,,,,3,,,,42,0
58320,note_on,55,0,4,,,,,,,,,3,,,,58,0
58320,set_tempo,120,1,0,,,,,,1034483,,,,,,,,
58320,control_change,5,0,7,,,,,,,,,10,11,35,,,
58320,control_change,0,0,1,,,,,,,,,0,11,39,,,
58320,note_on,144,0,1,,,,,,,,,0,,,,70,0
58320,note_on,0,0,7,,,,,,,,,10,,,,75,122
58322,control_change,5,0,9,,,,,,,,,12,11,32,,,
58322,control_change,5,0,8,,,,,,,,,11,11,32,,,
58322,note_on,0,0,8,,,,,,,,,11,,,,59,65
58322,note_on,0,0,9,,,,,,,,,12,,,,54,64
58323,program_change,599,0,10,,,,,,,,42,6,,,,,
58324,note_on,0,0,10,,,,,,,,,6,,,,47,47
58324,control_change,1,0,10,,,,,,,,,6,11,32,,,
58325,note_on,600,0,11,,,,,,,,,13,,,,47,43
58325,control_change,0,0,4,,,,,,,,,3,11,39,,,
58325,note_on,5,0,4,,,,,,,,,3,,,,47,95
58325,note_on,0,0,4,,,,,,,,,3,,,,59,95
58328,note_on,600,0,12,,,,,,,,,14,,,,35,36
58352,note_on,0,0,9,,,,,,,,,12,,,,51,64
58352,note_on,30,0,9,,,,,,,,,12,,,,54,0
58352,note_on,30,0,8,,,,,,,,,11,,,,59,0
58352,note_on,0,0,8,,,,,,,,,11,,,,63,65
58354,note_on,0,0,10,,,,,,,,,6,,,,42,47
58354,note_on,30,0,10,,,,,,,,,6,,,,47,0
58380,set_tempo,60,1,0,,,,,,937500,,,,,,,,
58382,note_on,30,0,8,,,,,,,,,11,,,,63,0
58382,note_on,0,0,9,,,,,,,,,12,,,,54,64
58382,note_on,30,0,9,,,,,,,,,12,,,,51,0
58382,note_on,0,0,8,,,,,,,,,11,,,,59,65
58383,control_change,660,0,3,,,,,,,,,2,11,39,,,
58383,note_on,0,0,3,,,,,,,,,2,,,,78,96
58384,note_on,0,0,10,,,,,,,,,6,,,,47,47
58384,note_on,30,0,10,,,,,,,,,6,,,,42,0
58412,note_on,30,0,8,,,,,,,,,11,,,,59,0
58412,note_on,30,0,9,,,,,,,,,12,,,,54,0
58412,note_on,0,0,8,,,,,,,,,11,,,,63,65
58412,note_on,0,0,9,,,,,,,,,12,,,,51,64
58414,note_on,30,0,10,,,,,,,,,6,,,,47,0
58414,note_on,0,0,10,,,,,,,,,6,,,,42,47
58438,note_on,55,0,3,,,,,,,,,2,,,,78,0
58440,control_change,120,0,7,,,,,,,,,10,11,35,,,
58442,note_on,30,0,9,,,,,,,,,12,,,,51,0
58442,note_on,30,0,8,,,,,,,,,11,,,,63,0
58442,note_on,0,0,9,,,,,,,,,12,,,,54,64
58442,note_on,0,0,8,,,,,,,,,11,,,,59,65
58443,note_on,5,0,3,,,,,,,,,2,,,,78,96
58444,note_on,0,0,10,,,,,,,,,6,,,,47,47
58444,note_on,30,0,10,,,,,,,,,6,,,,42,0
58445,note_on,120,0,4,,,,,,,,,3,,,,59,0
58445,note_on,120,0,11,,,,,,,,,13,,,,47,0
58448,note_on,120,0,12,,,,,,,,,14,,,,35,0
58451,control_change,11,0,7,,,,,,,,,10,11,32,,,
58463,control_change,12,0,7,,,,,,,,,10,11,29,,,
58472,note_on,0,0,9,,,,,,,,,12,,,,51,64
58472,note_on,30,0,9,,,,,,,,,12,,,,54,0
58472,note_on,0,0,8,,,,,,,,,11,,,,63,65
58472,note_on,30,0,8,,,,,,,,,11,,,,59,0
58474,note_on,0,0,10,,,,,,,,,6,,,,42,47
58474,note_on,30,0,10,,,,,,,,,6,,,,47,0
58475,control_change,12,0,7,,,,,,,,,10,11,26,,,
58487,control_change,12,0,7,,,,,,,,,10,11,23,,,
58499,control_change,12,0,7,,,,,,,,,10,11,20,,,
58500,set_tempo,120,1,0,,,,,,1034483,,,,,,,,
58500,note_on,180,0,1,,,,,,,,,0,,,,78,96
58500,control_change,0,0,1,,,,,,,,,0,11,43,,,
58500,note_on,1,0,7,,,,,,,,,10,,,,75,0
58502,note_on,30,0,9,,,,,,,,,12,,,,51,0
58502,note_on,0,0,9,,,,,,,,,12,,,,54,64
58502,note_on,30,0,8,,,,,,,,,11,,,,63,0
58502,note_on,0,0,8,,,,,,,,,11,,,,59,65
58503,note_on,0,0,3,,,,,,,,,2,,,,80,96
58503,note_on,60,0,3,,,,,,,,,2,,,,78,0
58504,note_on,0,0,10,,,,,,,,,6,,,,47,47
58504,note_on,30,0,10,,,,,,,,,6,,,,42,0
58532,note_on,30,0,8,,,,,,,,,11,,,,59,0
58532,note_on,30,0,9,,,,,,,,,12,,,,54,0
58532,note_on,0,0,9,,,,,,,,,12,,,,51,64
58532,note_on,0,0,8,,,,,,,,,11,,,,63,65
58534,note_on,0,0,10,,,,,,,,,6,,,,42,47
58534,note_on,30,0,10,,,,,,,,,6,,,,47,0
58560,set_tempo,60,1,0,,,,,,937500,,,,,,,,
58562,note_on,0,0,9,,,,,,,,,12,,,,54,64
58562,note_on,30,0,9,,,,,,,,,12,,,,51,0
58562,note_on,0,0,8,,,,,,,,,11,,,,59,65
58562,note_on,30,0,8,,,,,,,,,11,,,,63,0
58563,note_on,60,0,3,,,,,,,,,2,,,,80,0
58563,note_on,0,0,3,,,,,,,,,2,,,,78,96
58564,note_on,0,0,10,,,,,,,,,6,,,,47,47
58564,note_on,30,0,10,,,,,,,,,6,,,,42,0
58592,note_on,0,0,8,,,,,,,,,11,,,,63,65
58592,note_on,30,0,8,,,,,,,,,11,,,,59,0
58592,note_on,0,0,9,,,,,,,,,12,,,,51,64
58592,note_on,30,0,9,,,,,,,,,12,,,,54,0
58594,note_on,30,0,10,,,,,,,,,6,,,,47,0
58594,note_on,0,0,10,,,,,,,,,6,,,,42,47
58618,note_on,55,0,3,,,,,,,,,2,,,,78,0
58622,note_on,0,0,9,,,,,,,,,12,,,,54,64
58622,note_on,0,0,8,,,,,,,,,11,,,,59,65
58622,note_on,30,0,9,,,,,,,,,12,,,,51,0
58622,note_on,30,0,8,,,,,,,,,11,,,,63,0
58623,note_on,5,0,3,,,,,,,,,2,,,,78,96
58624,note_on,0,0,10,,,,,,,,,6,,,,47,47
58624,note_on,30,0,10,,,,,,,,,6,,,,42,0
58652,note_on,30,0,8,,,,,,,,,11,,,,59,0
58652,note_on,0,0,8,,,,,,,,,11,,,,63,65
58652,note_on,30,0,9,,,,,,,,,12,,,,54,0
58652,note_on,0,0,9,,,,,,,,,12,,,,51,64
58654,note_on,30,0,10,,,,,,,,,6,,,,47,0
58654,note_on,0,0,10,,,,,,,,,6,,,,42,47
58677,note_on,25,0,9,,,,,,,,,12,,,,51,0
58677,note_on,25,0,8,,,,,,,,,11,,,,63,0
58679,note_on,25,0,10,,,,,,,,,6,,,,42,0
58680,note_on,0,0,1,,,,,,,,,0,,,,75,96
58680,note_on,180,0,1,,,,,,,,,0,,,,78,0
58680,set_tempo,120,1,0,,,,,,1034483,,,,,,,,
58682,note_on,5,0,8,,,,,,,,,11,,,,59,65
58682,note_on,5,0,9,,,,,,,,,12,,,,54,64
58683,note_on,60,0,3,,,,,,,,,2,,,,78,0
58683,note_on,0,0,3,,,,,,,,,2,,,,76,96
58684,note_on,5,0,10,,,,,,,,,6,,,,47,47
58712,note_on,30,0,9,,,,,,,,,12,,,,54,0
58712,note_on,0,0,8,,,,,,,,,11,,,,63,65
58712,note_on,0,0,9,,,,,,,,,12,,,,51,64
58712,note_on,30,0,8,,,,,,,,,11,,,,59,0
58714,note_on,0,0,10,,,,,,,,,6,,,,42,47
58714,note_on,30,0,10,,,,,,,,,6,,,,47,0
58740,set_tempo,60,1,0,,,,,,937500,,,,,,,,
58742,note_on,0,0,8,,,,,,,,,11,,,,59,65
58742,note_on,0,0,9,,,,,,,,,12,,,,54,64
58742,note_on,30,0,9,,,,,,,,,12,,,,51,0
58742,note_on,30,0,8,,,,,,,,,11,,,,63,0
58743,note_on,0,0,3,,,,,,,,,2,,,,75,96
58743,note_on,60,0,3,,,,,,,,,2,,,,76,0
58744,note_on,30,0,10,,,,,,,,,6,,,,42,0
58744,note_on,0,0,10,,,,,,,,,6,,,,47,47
58772,note_on,30,0,8,,,,,,,,,11,,,,59,0
58772,note_on,0,0,9,,,,,,,,,12,,,,51,64
58772,note_on,0,0,8,,,,,,,,,11,,,,63,65
58772,note_on,30,0,9,,,,,,,,,12,,,,54,0
58774,note_on,30,0,10,,,,,,,,,6,,,,47,0
58774,note_on,0,0,10,,,,,,,,,6,,,,42,47
58798,note_on,55,0,3,,,,,,,,,2,,,,75,0
58802,note_on,30,0,8,,,,,,,,,11,,,,63,0
58802,note_on,0,0,8,,,,,,,,,11,,,,59,65
58802,note_on,30,0,9,,,,,,,,,12,,,,51,0
58802,note_on,0,0,9,,,,,,,,,12,,,,54,64
58803,note_on,5,0,3,,,,,,,,,2,,,,75,96
58804,note_on,30,0,10,,,,,,,,,6,,,,42,0
58804,note_on,0,0,10,,,,,,,,,6,,,,47,47
58832,note_on,0,0,8,,,,,,,,,11,,,,63,65
58832,note_on,30,0,8,,,,,,,,,11,,,,59,0
58832,note_on,30,0,9,,,,,,,,,12,,,,54,0
58832,note_on,0,0,9,,,,,,,,,12,,,,51,64
58834,note_on,30,0,10,,,,,,,,,6,,,,47,0
58834,note_on,0,0,10,,,,,,,,,6,,,,42,47
58860,note_on,180,0,1,,,,,,,,,0,,,,75,0
58860,set_tempo,120,1,0,,,,,,1034483,,,,,,,,
58860,note_on,0,0,1,,,,,,,,,0,,,,71,96
58862,note_on,0,0,8,,,,,,,,,11,,,,59,65
58862,note_on,30,0,8,,,,,,,,,11,,,,63,0
58862,note_on,0,0,9,,,,,,,,,12,,,,54,64
58862,note_on,30,0,9,,,,,,,,,12,,,,51,0
58863,note_on,0,0,3,,,,,,,,,2,,,,73,96
58863,note_on,60,0,3,,,,,,,,,2,,,,75,0
58864,note_on,0,0,10,,,,,,,,,6,,,,47,47
58864,note_on,30,0,10,,,,,,,,,6,,,,42,0
58892,note_on,0,0,9,,,,,,,,,12,,,,51,64
58892,note_on,0,0,8,,,,,,,,,11,,,,63,65
58892,note_on,30,0,8,,,,,,,,,11,,,,59,0
58892,note_on,30,0,9,,,,,,,,,12,,,,54,0
58894,note_on,30,0,10,,,,,,,,,6,,,,47,0
58894,note_on,0,0,10,,,,,,,,,6,,,,42,47
58920,control_change,420,0,7,,,,,,,,,10,11,35,,,
58920,set_tempo,60,1,0,,,,,,937500,,,,,,,,
58920,note_on,0,0,7,,,,,,,,,10,,,,71,98
58922,note_on,30,0,9,,,,,,,,,12,,,,51,0
58922,note_on,0,0,9,,,,,,,,,12,,,,54,64
58922,note_on,0,0,8,,,,,,,,,11,,,,59,65
58922,note_on,30,0,8,,,,,,,,,11,,,,63,0
58923,note_on,60,0,3,,,,,,,,,2,,,,73,0
58923,note_on,0,0,3,,,,,,,,,2,,,,71,96
58924,note_on,0,0,10,,,,,,,,,6,,,,47,47
58924,note_on,30,0,10,,,,,,,,,6,,,,42,0
58950,note_on,0,0,7,,,,,,,,,10,,,,73,122
58950,note_on,30,0,7,,,,,,,,,10,,,,71,0
58952,note_on,0,0,9,,,,,,,,,12,,,,51,64
58952,note_on,30,0,8,,,,,,,,,11,,,,59,0
58952,note_on,0,0,8,,,,,,,,,11,,,,63,65
58952,note_on,30,0,9,,,,,,,,,12,,,,54,0
58954,note_on,30,0,10,,,,,,,,,6,,,,47,0
58954,note_on,0,0,10,,,,,,,,,6,,,,42,47
58978,note_on,55,0,3,,,,,,,,,2,,,,71,0
58980,note_on,30,0,7,,,,,,,,,10,,,,73,0
58980,note_on,0,0,7,,,,,,,,,10,,,,75,122
58982,note_on,0,0,9,,,,,,,,,12,,,,54,64
58982,note_on,0,0,8,,,,,,,,,11,,,,59,65
58982,note_on,30,0,8,,,,,,,,,11,,,,63,0
58982,note_on,30,0,9,,,,,,,,,12,,,,51,0
58983,note_on,5,0,3,,,,,,,,,2,,,,71,96
58984,note_on,30,0,10,,,,,,,,,6,,,,42,0
58984,note_on,0,0,10,,,,,,,,,6,,,,47,47
59010,note_on,30,0,7,,,,,,,,,10,,,,75,0
59010,note_on,0,0,7,,,,,,,,,10,,,,71,122
59012,note_on,30,0,9,,,,,,,,,12,,,,54,0
59012,note_on,0,0,9,,,,,,,,,12,,,,51,64
59012,note_on,30,0,8,,,,,,,,,11,,,,59,0
59012,note_on,0,0,8,,,,,,,,,11,,,,63,65
59014,note_on,30,0,10,,,,,,,,,6,,,,47,0
59014,note_on,0,0,10,,,,,,,,,6,,,,42,47
59035,note_on,25,0,7,,,,,,,,,10,,,,71,0
59037,note_on,25,0,8,,,,,,,,,11,,,,63,0
59037,note_on,25,0,9,,,,,,,,,12,,,,51,0
59039,note_on,25,0,10,,,,,,,,,6,,,,42,0
59040,note_on,595,0,4,,,,,,,,,3,,,,47,0
59040,note_on,5,0,7,,,,,,,,,10,,,,70,122
59040,note_on,180,0,1,,,,,,,,,0,,,,71,0
59040,set_tempo,120,1,0,,,,,,1034483,,,,,,,,
59042,note_on,5,0,9,,,,,,,,,12,,,,54,64
59042,note_on,5,0,8,,,,,,,,,11,,,,61,65
59043,note_on,0,0,3,,,,,,,,,2,,,,70,96
59043,note_on,60,0,3,,,,,,,,,2,,,,71,0
59044,note_on,5,0,10,,,,,,,,,6,,,,46,47
59045,note_on,5,0,4,,,,,,,,,3,,,,42,95
59045,note_on,600,0,11,,,,,,,,,13,,,,42,43
59048,note_on,600,0,12,,,,,,,,,14,,,,30,36
59050,note_on,0,0,7,,,,,,,,,10,,,,71,122
59050,note_on,10,0,7,,,,,,,,,10,,,,70,0
59060,note_on,0,0,7,,,,,,,,,10,,,,73,122
59060,note_on,10,0,7,,,,,,,,,10,,,,71,0
59070,note_on,0,0,7,,,,,,,,,10,,,,71,122
59070,note_on,10,0,7,,,,,,,,,10,,,,73,0
59072,note_on,0,0,9,,,,,,,,,12,,,,52,64
59072,note_on,30,0,8,,,,,,,,,11,,,,61,0
59072,note_on,0,0,8,,,,,,,,,11,,,,64,65
59072,note_on,30,0,9,,,,,,,,,12,,,,54,0
59074,note_on,30,0,10,,,,,,,,,6,,,,46,0
59074,note_on,0,0,10,,,,,,,,,6,,,,42,47
59100,note_on,0,0,7,,,,,,,,,10,,,,70,122
59100,set_tempo,60,1,0,,,,,,937500,,,,,,,,
59100,note_on,30,0,7,,,,,,,,,10,,,,71,0
59102,note_on,0,0,9,,,,,,,,,12,,,,54,64
59102,note_on,30,0,9,,,,,,,,,12,,,,52,0
59102,note_on,0,0,8,,,,,,,,,11,,,,61,65
59102,note_on,30,0,8,,,,,,,,,11,,,,64,0
59103,note_on,60,0,3,,,,,,,,,2,,,,70,0
59104,note_on,30,0,10,,,,,,,,,6,,,,42,0
59104,note_on,0,0,10,,,,,,,,,6,,,,46,47
59105,note_on,60,0,4,,,,,,,,,3,,,,64,95
59132,note_on,0,0,9,,,,,,,,,12,,,,52,64
59132,note_on,30,0,8,,,,,,,,,11,,,,61,0
59132,note_on,0,0,8,,,,,,,,,11,,,,64,65
59132,note_on,30,0,9,,,,,,,,,12,,,,54,0
59134,note_on,0,0,10,,,,,,,,,6,,,,42,47
59134,note_on,30,0,10,,,,,,,,,6,,,,46,0
59160,note_on,55,0,4,,,,,,,,,3,,,,64,0
59160,control_change,60,0,7,,,,,,,,,10,11,35,,,
59162,note_on,30,0,8,,,,,,,,,11,,,,64,0
59162,note_on,0,0,8,,,,,,,,,11,,,,61,65
59162,note_on,0,0,9,,,,,,,,,12,,,,54,64
59162,note_on,30,0,9,,,,,,,,,12,,,,52,0
59164,note_on,30,0,10,,,,,,,,,6,,,,42,0
59164,note_on,0,0,10,,,,,,,,,6,,,,46,47
59165,note_on,120,0,11,,,,,,,,,13,,,,42,0
59165,note_on,5,0,4,,,,,,,,,3,,,,64,95
59168,note_on,120,0,12,,,,,,,,,14,,,,30,0
59171,control_change,11,0,7,,,,,,,,,10,11,32,,,
59183,control_change,12,0,7,,,,,,,,,10,11,29,,,
59192,note_on,30,0,9,,,,,,,,,12,,,,54,0
59192,note_on,0,0,9,,,,,,,,,12,,,,52,64
59192,note_on,0,0,8,,,,,,,,,11,,,,64,65
59192,note_on,30,0,8,,,,,,,,,11,,,,61,0
59194,note_on,0,0,10,,,,,,,,,6,,,,42,47
59194,note_on,30,0,10,,,,,,,,,6,,,,46,0
59195,control_change,12,0,7,,,,,,,,,10,11,26,,,
59207,control_change,12,0,7,,,,,,,,,10,11,23,,,
59219,control_change,12,0,7,,,,,,,,,10,11,20,,,
59220,note_on,1,0,7,,,,,,,,,10,,,,70,0
59220,note_on,180,0,1,,,,,,,,,0,,,,78,96
59220,set_tempo,120,1,0,,,,,,1034483,,,,,,,,
59222,note_on,0,0,9,,,,,,,,,12,,,,54,64
59222,note_on,0,0,8,,,,,,,,,11,,,,61,65
59222,note_on,30,0,9,,,,,,,,,12,,,,52,0
59222,note_on,30,0,8,,,,,,,,,11,,,,64,0
59224,note_on,0,0,10,,,,,,,,,6,,,,46,47
59224,note_on,30,0,10,,,,,,,,,6,,,,42,0
59225,note_on,0,0,4,,,,,,,,,3,,,,66,95
59225,note_on,60,0,4,,,,,,,,,3,,,,64,0
59252,note_on,30,0,9,,,,,,,,,12,,,,54,0
59252,note_on,0,0,9,,,,,,,,,12,,,,52,64
59252,note_on,0,0,8,,,,,,,,,11,,,,64,65
59252,note_on,30,0,8,,,,,,,,,11,,,,61,0
59254,note_on,0,0,10,,,,,,,,,6,,,,42,47
59254,note_on,30,0,10,,,,,,,,,6,,,,46,0
59280,set_tempo,60,1,0,,,,,,937500,,,,,,,,
59282,note_on,30,0,8,,,,,,,,,11,,,,64,0
59282,note_on,0,0,8,,,,,,,,,11,,,,61,65
59282,note_on,30,0,9,,,,,,,,,12,,,,52,0
59282,note_on,0,0,9,,,,,,,,,12,,,,54,64
59284,note_on,30,0,10,,,,,,,,,6,,,,42,0
59284,note_on,0,0,10,,,,,,,,,6,,,,46,47
59285,note_on,60,0,4,,,,,,,,,3,,,,66,0
59285,note_on,0,0,4,,,,,,,,,3,,,,64,95
59312,note_on,0,0,9,,,,,,,,,12,,,,52,64
59312,note_on,30,0,8,,,,,,,,,11,,,,61,0
59312,note_on,0,0,8,,,,,,,,,11,,,,64,65
59312,note_on,30,0,9,,,,,,,,,12,,,,54,0
59314,note_on,30,0,10,,,,,,,,,6,,,,46,0
59314,note_on,0,0,10,,,,,,,,,6,,,,42,47
59340,note_on,55,0,4,,,,,,,,,3,,,,64,0
59342,note_on,30,0,9,,,,,,,,,12,,,,52,0
59342,note_on,0,0,9,,,,,,,,,12,,,,54,64
59342,note_on,0,0,8,,,,,,,,,11,,,,61,65
59342,note_on,30,0,8,,,,,,,,,11,,,,64,0
59344,note_on,30,0,10,,,,,,,,,6,,,,42,0
59344,note_on,0,0,10,,,,,,,,,6,,,,46,47
59345,note_on,5,0,4,,,,,,,,,3,,,,64,95
59372,note_on,0,0,8,,,,,,,,,11,,,,64,65
59372,note_on,30,0,8,,,,,,,,,11,,,,61,0
59372,note_on,30,0,9,,,,,,,,,12,,,,54,0
59372,note_on,0,0,9,,,,,,,,,12,,,,52,64
59374,note_on,0,0,10,,,,,,,,,6,,,,42,47
59374,note_on,30,0,10,,,,,,,,,6,,,,46,0
59397,note_on,25,0,8,,,,,,,,,11,,,,64,0
59397,note_on,25,0,9,,,,,,,,,12,,,,52,0
59399,note_on,25,0,10,,,,,,,,,6,,,,42,0
59400,set_tempo,120,1,0,,,,,,1034483,,,,,,,,
59400,note_on,0,0,1,,,,,,,,,0,,,,76,96
59400,note_on,180,0,1,,,,,,,,,0,,,,78,0
59402,note_on,5,0,9,,,,,,,,,12,,,,54,64
59402,note_on,5,0,8,,,,,,,,,11,,,,61,65
59404,note_on,5,0,10,,,,,,,,,6,,,,46,47
59405,note_on,0,0,4,,,,,,,,,3,,,,63,95
59405,note_on,60,0,4,,,,,,,,,3,,,,64,0
59432,note_on,30,0,8,,,,,,,,,11,,,,61,0
59432,note_on,0,0,8,,,,,,,,,11,,,,64,65
59432,note_on,0,0,9,,,,,,,,,12,,,,52,64
59432,note_on,30,0,9,,,,,,,,,12,,,,54,0
59434,note_on,0,0,10,,,,,,,,,6,,,,42,47
59434,note_on,30,0,10,,,,,,,,,6,,,,46,0
59460,set_tempo,60,1,0,,,,,,937500,,,,,,,,
59462,note_on,30,0,9,,,,,,,,,12,,,,52,0
59462,note_on,0,0,9,,,,,,,,,12,,,,54,64
59462,note_on,30,0,8,,,,,,,,,11,,,,64,0
59462,note_on,0,0,8,,,,,,,,,11,,,,61,65
59464,note_on,30,0,10,,,,,,,,,6,,,,42,0
59464,note_on,0,0,10,,,,,,,,,6,,,,46,47
59465,note_on,60,0,4,,,,,,,,,3,,,,63,0
59465,note_on,0,0,4,,,,,,,,,3,,,,61,95
59492,note_on,0,0,8,,,,,,,,,11,,,,64,65
59492,note_on,0,0,9,,,,,,,,,12,,,,52,64
59492,note_on,30,0,9,,,,,,,,,12,,,,54,0
59492,note_on,30,0,8,,,,,,,,,11,,,,61,0
59494,note_on,0,0,10,,,,,,,,,6,,,,42,47
59494,note_on,30,0,10,,,,,,,,,6,,,,46,0
59520,note_on,55,0,4,,,,,,,,,3,,,,61,0
59522,note_on,30,0,9,,,,,,,,,12,,,,52,0
59522,note_on,0,0,9,,,,,,,,,12,,,,54,64
59522,note_on,0,0,8,,,,,,,,,11,,,,61,65
59522,note_on,30,0,8,,,,,,,,,11,,,,64,0
59524,note_on,30,0,10,,,,,,,,,6,,,,42,0
59524,note_on,0,0,10,,,,,,,,,6,,,,46,47
59525,note_on,5,0,4,,,,,,,,,3,,,,61,95
59552,note_on,0,0,8,,,,,,,,,11,,,,64,65
59552,note_on,0,0,9,,,,,,,,,12,,,,52,64
59552,note_on,30,0,8,,,,,,,,,11,,,,61,0
59552,note_on,30,0,9,,,,,,,,,12,,,,54,0
59554,note_on,30,0,10,,,,,,,,,6,,,,46,0
59554,note_on,0,0,10,,,,,,,,,6,,,,42,47
59580,note_on,180,0,1,,,,,,,,,0,,,,76,0
59580,note_on,0,0,1,,,,,,,,,0,,,,73,96
59580,set_tempo,120,1,0,,,,,,1034483,,,,,,,,
59582,note_on,0,0,9,,,,,,,,,12,,,,54,64
59582,note_on,0,0,8,,,,,,,,,11,,,,61,65
59582,note_on,30,0,8,,,,,,,,,11,,,,64,0
59582,note_on,30,0,9,,,,,,,,,12,,,,52,0
59584,note_on,0,0,10,,,,,,,,,6,,,,46,47
59584,note_on,30,0,10,,,,,,,,,6,,,,42,0
59585,note_on,60,0,4,,,,,,,,,3,,,,61,0
59585,note_on,0,0,4,,,,,,,,,3,,,,59,95
59612,note_on,30,0,8,,,,,,,,,11,,,,61,0
59612,note_on,0,0,8,,,,,,,,,11,,,,64,65
59612,note_on,0,0,9,,,,,,,,,12,,,,52,64
59612,note_on,30,0,9,,,,,,,,,12,,,,54,0
59614,note_on,30,0,10,,,,,,,,,6,,,,46,0
59614,note_on,0,0,10,,,,,,,,,6,,,,42,47
59640,note_on,0,0,7,,,,,,,,,10,,,,73,98
59640,set_tempo,60,1,0,,,,,,937500,,,,,,,,
59640,control_change,420,0,7,,,,,,,,,10,11,35,,,
59642,note_on,30,0,9,,,,,,,,,12,,,,52,0
59642,note_on,0,0,9,,,,,,,,,12,,,,54,64
59642,note_on,30,0,8,,,,,,,,,11,,,,64,0
59642,note_on,0,0,8,,,,,,,,,11,,,,61,65
59644,note_on,30,0,10,,,,,,,,,6,,,,42,0
59644,note_on,0,0,10,,,,,,,,,6,,,,46,47
59645,note_on,0,0,4,,,,,,,,,3,,,,58,95
59645,note_on,60,0,4,,,,,,,,,3,,,,59,0
59672,note_on,30,0,8,,,,,,,,,11,,,,61,0
59672,note_on,30,0,9,,,,,,,,,12,,,,54,0
59672,note_on,0,0,9,,,,,,,,,12,,,,52,64
59672,note_on,0,0,8,,,,,,,,,11,,,,64,65
59674,note_on,30,0,10,,,,,,,,,6,,,,46,0
59674,note_on,0,0,10,,,,,,,,,6,,,,42,47
59700,note_on,60,0,7,,,,,,,,,10,,,,73,0
59700,note_on,0,0,7,,,,,,,,,10,,,,75,116
59700,note_on,55,0,4,,,,,,,,,3,,,,58,0
59702,note_on,0,0,9,,,,,,,,,12,,,,54,64
59702,note_on,30,0,9,,,,,,,,,12,,,,52,0
59702,note_on,30,0,8,,,,,,,,,11,,,,64,0
59702,note_on,0,0,8,,,,,,,,,11,,,,61,65
59704,note_on,30,0,10,,,,,,,,,6,,,,42,0
59704,note_on,0,0,10,,,,,,,,,6,,,,46,47
59705,note_on,5,0,4,,,,,,,,,3,,,,58,95
59730,note_on,0,0,7,,,,,,,,,10,,,,76,109
59730,note_on,30,0,7,,,,,,,,,10,,,,75,0
59732,note_on,30,0,9,,,,,,,,,12,,,,54,0
59732,note_on,30,0,8,,,,,,,,,11,,,,61,0
59732,note_on,0,0,8,,,,,,,,,11,,,,64,65
59732,note_on,0,0,9,,,,,,,,,12,,,,52,64
59734,note_on,0,0,10,,,,,,,,,6,,,,42,47
59734,note_on,30,0,10,,,,,,,,,6,,,,46,0
59755,note_on,25,0,7,,,,,,,,,10,,,,76,0
59757,note_on,25,0,8,,,,,,,,,11,,,,64,0
59757,note_on,25,0,9,,,,,,,,,12,,,,52,0
59759,note_on,25,0,10,,,,,,,,,6,,,,42,0
59760,note_on,55,0,4,,,,,,,,,3,,,,58,0
59760,set_tempo,120,1,0,,,,,,1034483,,,,,,,,
59760,control_change,5,0,7,,,,,,,,,10,11,30,,,
59760,note_on,0,0,4,,,,,,,,,3,,,,42,0
59760,note_on,0,0,7,,,,,,,,,10,,,,78,122
59760,note_on,180,0,1,,,,,,,,,0,,,,73,0
59762,note_on,0,0,9,,,,,,,,,12,,,,54,64
59762,note_on,5,0,9,,,,,,,,,12,,,,59,64
59762,note_on,5,0,8,,,,,,,,,11,,,,59,65
59763,note_on,660,0,3,,,,,,,,,2,,,,78,96
59764,note_on,5,0,10,,,,,,,,,6,,,,51,47
59765,note_on,5,0,4,,,,,,,,,3,,,,47,95
59765,note_on,0,0,4,,,,,,,,,3,,,,59,95
59765,note_on,600,0,11,,,,,,,,,13,,,,47,43
59768,note_on,600,0,12,,,,,,,,,14,,,,35,36
59792,note_on,30,0,8,,,,,,,,,11,,,,59,0
59792,note_on,0,0,8,,,,,,,,,11,,,,66,65
59792,note_on,30,0,9,,,,,,,,,12,,,,54,0
59792,note_on,0,0,9,,,,,,,,,12,,,,59,0
59792,note_on,0,0,9,,,,,,,,,12,,,,51,64
59792,note_on,0,0,9,,,,,,,,,12,,,,54,64
59794,note_on,30,0,10,,,,,,,,,6,,,,51,0
59794,note_on,0,0,10,,,,,,,,,6,,,,47,47
59806,control_change,46,0,7,,,,,,,,,10,11,31,,,
59820,set_tempo,60,1,0,,,,,,937500,,,,,,,,
59822,note_on,0,0,8,,,,,,,,,11,,,,59,65
59822,note_on,30,0,8,,,,,,,,,11,,,,66,0
59822,note_on,0,0,9,,,,,,,,,12,,,,59,64
59822,note_on,0,0,9,,,,,,,,,12,,,,54,64
59822,note_on,0,0,9,,,,,,,,,12,,,,51,0
59822,note_on,30,0,9,,,,,,,,,12,,,,54,0
59824,note_on,0,0,10,,,,,,,,,6,,,,51,47
59824,note_on,30,0,10,,,,,,,,,6,,,,47,0
59852,note_on,30,0,8,,,,,,,,,11,,,,59,0
59852,control_change,46,0,7,,,,,,,,,10,11,32,,,
59852,note_on,0,0,8,,,,,,,,,11,,,,66,65
59852,note_on,0,0,9,,,,,,,,,12,,,,54,0
59852,note_on,30,0,9,,,,,,,,,12,,,,59,0
59852,note_on,0,0,9,,,,,,,,,12,,,,51,64
59852,note_on,0,0,9,,,,,,,,,12,,,,54,64
59854,note_on,30,0,10,,,,,,,,,6,,,,51,0
59854,note_on,0,0,10,,,,,,,,,6,,,,47,47
59882,note_on,30,0,9,,,,,,,,,12,,,,51,0
59882,note_on,30,0,8,,,,,,,,,11,,,,66,0
59882,note_on,0,0,8,,,,,,,,,11,,,,59,65
59882,note_on,0,0,9,,,,,,,,,12,,,,59,64
59882,note_on,0,0,9,,,,,,,,,12,,,,54,64
59882,note_on,0,0,9,,,,,,,,,12,,,,54,0
59884,note_on,30,0,10,,,,,,,,,6,,,,47,0
59884,note_on,0,0,10,,,,,,,,,6,,,,51,47
59885,note_on,120,0,11,,,,,,,,,13,,,,47,0
59885,note_on,0,0,4,,,,,,,,,3,,,,47,0
59885,note_on,120,0,4,,,,,,,,,3,,,,59,0
59888,note_on,120,0,12,,,,,,,,,14,,,,35,0
59898,control_change,46,0,7,,,,,,,,,10,11,33,,,
59912,note_on,0,0,9,,,,,,,,,12,,,,54,64
59912,note_on,0,0,9,,,,,,,,,12,,,,51,64
59912,note_on,30,0,9,,,,,,,,,12,,,,54,0
59912,note_on,30,0,8,,,,,,,,,11,,,,59,0
59912,note_on,0,0,8,,,,,,,,,11,,,,66,65
59912,note_on,0,0,9,,,,,,,,,12,,,,59,0
59914,note_on,30,0,10,,,,,,,,,6,,,,51,0
59914,note_on,0,0,10,,,,,,,,,6,,,,47,47
59940,set_tempo,120,1,0,,,,,,1034483,,,,,,,,
59942,note_on,30,0,8,,,,,,,,,11,,,,66,0
59942,note_on,0,0,8,,,,,,,,,11,,,,59,65
59942,note_on,30,0,9,,,,,,,,,12,,,,54,0
59942,note_on,0,0,9,,,,,,,,,12,,,,51,0
59942,note_on,0,0,9,,,,,,,,,12,,,,59,64
59942,note_on,0,0,9,,,,,,,,,12,,,,54,64
59944,control_change,46,0,7,,,,,,,,,10,11,34,,,
59944,note_on,0,0,10,,,,,,,,,6,,,,51,47
59944,note_on,30,0,10,,,,,,,,,6,,,,47,0
59972,note_on,30,0,8,,,,,,,,,11,,,,59,0
59972,note_on,0,0,8,,,,,,,,,11,,,,66,65
59972,note_on,30,0,9,,,,,,,,,12,,,,54,0
59972,note_on,0,0,9,,,,,,,,,12,,,,59,0
59972,note_on,0,0,9,,,,,,,,,12,,,,51,64
59972,note_on,0,0,9,,,,,,,,,12,,,,54,64
59974,note_on,30,0,10,,,,,,,,,6,,,,51,0
59974,note_on,0,0,10,,,,,,,,,6,,,,47,47
59990,control_change,46,0,7,,,,,,,,,10,11,35,,,
60000,set_tempo,60,1,0,,,,,,937500,,,,,,,,
60000,note_on,10,0,7,,,,,,,,,10,,,,78,0
60000,note_on,0,0,7,,,,,,,,,10,,,,75,122
60002,note_on,0,0,9,,,,,,,,,12,,,,59,64
60002,note_on,0,0,9,,,,,,,,,12,,,,54,64
60002,note_on,0,0,9,,,,,,,,,12,,,,51,0
60002,note_on,30,0,9,,,,,,,,,12,,,,54,0
60002,note_on,30,0,8,,,,,,,,,11,,,,66,0
60002,note_on,0,0,8,,,,,,,,,11,,,,59,65
60004,note_on,30,0,10,,,,,,,,,6,,,,47,0
60004,note_on,0,0,10,,,,,,,,,6,,,,51,47
60013,control_change,13,0,7,,,,,,,,,10,11,36,,,
60032,note_on,0,0,8,,,,,,,,,11,,,,66,65
60032,note_on,30,0,8,,,,,,,,,11,,,,59,0
60032,note_on,0,0,9,,,,,,,,,12,,,,54,0
60032,note_on,30,0,9,,,,,,,,,12,,,,59,0
60032,note_on,0,0,9,,,,,,,,,12,,,,51,64
60032,note_on,0,0,9,,,,,,,,,12,,,,54,64
60034,note_on,30,0,10,,,,,,,,,6,,,,51,0
60034,note_on,0,0,10,,,,,,,,,6,,,,47,47
60036,control_change,23,0,7,,,,,,,,,10,11,37,,,
60059,control_change,23,0,7,,,,,,,,,10,11,38,,,
60060,note_on,1,0,7,,,,,,,,,10,,,,75,0
60060,note_on,0,0,7,,,,,,,,,10,,,,71,122
60062,note_on,30,0,8,,,,,,,,,11,,,,66,0
60062,note_on,0,0,9,,,,,,,,,12,,,,54,0
60062,note_on,0,0,9,,,,,,,,,12,,,,59,64
60062,note_on,0,0,9,,,,,,,,,12,,,,54,64
60062,note_on,0,0,8,,,,,,,,,11,,,,59,65
60062,note_on,30,0,9,,,,,,,,,12,,,,51,0
60064,note_on,30,0,10,,,,,,,,,6,,,,47,0
60064,note_on,0,0,10,,,,,,,,,6,,,,51,47
60082,control_change,22,0,7,,,,,,,,,10,11,39,,,
60092,note_on,30,0,8,,,,,,,,,11,,,,59,0
60092,note_on,0,0,8,,,,,,,,,11,,,,66,65
60092,note_on,30,0,9,,,,,,,,,12,,,,59,0
60092,note_on,0,0,9,,,,,,,,,12,,,,54,0
60092,note_on,0,0,9,,,,,,,,,12,,,,54,64
60092,note_on,0,0,9,,,,,,,,,12,,,,51,64
60094,note_on,0,0,10,,,,,,,,,6,,,,47,47
60094,note_on,30,0,10,,,,,,,,,6,,,,51,0
60105,control_change,23,0,7,,,,,,,,,10,11,40,,,
60115,note_on,10,0,7,,,,,,,,,10,,,,71,0
60117,note_on,25,0,9,,,,,,,,,12,,,,51,0
60117,note_on,25,0,8,,,,,,,,,11,,,,66,0
60117,note_on,0,0,9,,,,,,,,,12,,,,54,0
60119,note_on,25,0,10,,,,,,,,,6,,,,47,0
60120,note_on,5,0,7,,,,,,,,,10,,,,71,122
60120,set_tempo,120,1,0,,,,,,1034483,,,,,,,,
60122,note_on,0,0,9,,,,,,,,,12,,,,59,64
60122,note_on,5,0,9,,,,,,,,,12,,,,55,64
60122,note_on,5,0,8,,,,,,,,,11,,,,59,65
60123,note_on,0,0,3,,,,,,,,,2,,,,79,96
60123,note_on,360,0,3,,,,,,,,,2,,,,78,0
60124,note_on,5,0,10,,,,,,,,,6,,,,52,47
60125,note_on,240,0,11,,,,,,,,,13,,,,47,43
60128,control_change,8,0,7,,,,,,,,,10,11,41,,,
60128,note_on,240,0,12,,,,,,,,,14,,,,35,36
60151,control_change,23,0,7,,,,,,,,,10,11,42,,,
60152,note_on,0,0,8,,,,,,,,,11,,,,67,65
60152,note_on,30,0,8,,,,,,,,,11,,,,59,0
60152,note_on,0,0,9,,,,,,,,,12,,,,55,0
60152,note_on,0,0,9,,,,,,,,,12,,,,55,64
60152,note_on,0,0,9,,,,,,,,,12,,,,51,64
60152,note_on,30,0,9,,,,,,,,,12,,,,59,0
60154,note_on,30,0,10,,,,,,,,,6,,,,52,0
60154,note_on,0,0,10,,,,,,,,,6,,,,47,47
60174,control_change,23,0,7,,,,,,,,,10,11,43,,,
60180,set_tempo,60,1,0,,,,,,937500,,,,,,,,
60182,note_on,0,0,9,,,,,,,,,12,,,,55,64
60182,note_on,0,0,9,,,,,,,,,12,,,,59,64
60182,note_on,30,0,8,,,,,,,,,11,,,,67,0
60182,note_on,0,0,8,,,,,,,,,11,,,,59,65
60182,note_on,0,0,9,,,,,,,,,12,,,,55,0
60182,note_on,30,0,9,,,,,,,,,12,,,,51,0
60184,note_on,0,0,10,,,,,,,,,6,,,,52,47
60184,note_on,30,0,10,,,,,,,,,6,,,,47,0
60197,control_change,23,0,7,,,,,,,,,10,11,44,,,
60212,note_on,0,0,8,,,,,,,,,11,,,,67,65
60212,note_on,30,0,8,,,,,,,,,11,,,,59,0
60212,note_on,30,0,9,,,,,,,,,12,,,,59,0
60212,note_on,0,0,9,,,,,,,,,12,,,,55,0
60212,note_on,0,0,9,,,,,,,,,12,,,,55,64
60212,note_on,0,0,9,,,,,,,,,12,,,,51,64
60214,note_on,30,0,10,,,,,,,,,6,,,,52,0
60214,note_on,0,0,10,,,,,,,,,6,,,,47,47
60220,control_change,23,0,7,,,,,,,,,10,11,45,,,
60242,note_on,30,0,8,,,,,,,,,11,,,,67,0
60242,note_on,0,0,8,,,,,,,,,11,,,,59,65
60242,note_on,30,0,9,,,,,,,,,12,,,,51,0
60242,note_on,0,0,9,,,,,,,,,12,,,,55,0
60242,note_on,0,0,9,,,,,,,,,12,,,,55,64
60242,note_on,0,0,9,,,,,,,,,12,,,,59,64
60243,control_change,23,0,7,,,,,,,,,10,11,46,,,
60244,note_on,0,0,10,,,,,,,,,6,,,,52,47
60244,note_on,30,0,10,,,,,,,,,6,,,,47,0
60245,note_on,120,0,11,,,,,,,,,13,,,,47,0
60248,note_on,120,0,12,,,,,,,,,14,,,,35,0
60266,control_change,23,0,7,,,,,,,,,10,11,47,,,
60270,note_on,4,0,7,,,,,,,,,10,,,,71,0
60270,note_on,0,0,7,,,,,,,,,10,,,,73,122
60272,note_on,0,0,8,,,,,,,,,11,,,,67,65
60272,note_on,30,0,9,,,,,,,,,12,,,,59,0
60272,note_on,0,0,9,,,,,,,,,12,,,,55,0
60272,note_on,0,0,9,,,,,,,,,12,,,,55,64
60272,note_on,0,0,9,,,,,,,,,12,,,,51,64
60272,note_on,30,0,8,,,,,,,,,11,,,,59,0
60274,note_on,0,0,10,,,,,,,,,6,,,,47,47
60274,note_on,30,0,10,,,,,,,,,6,,,,52,0
60280,note_on,10,0,7,,,,,,,,,10,,,,73,0
60280,note_on,0,0,7,,,,,,,,,10,,,,71,122
60289,control_change,9,0,7,,,,,,,,,10,11,48,,,
60290,note_on,0,0,7,,,,,,,,,10,,,,70,122
60290,note_on,1,0,7,,,,,,,,,10,,,,71,0
60300,note_on,10,0,7,,,,,,,,,10,,,,70,0
60300,note_on,0,0,7,,,,,,,,,10,,,,71,122
60300,set_tempo,120,1,0,,,,,,1034483,,,,,,,,
60302,note_on,0,0,8,,,,,,,,,11,,,,59,65
60302,note_on,0,0,9,,,,,,,,,12,,,,55,64
60302,note_on,30,0,8,,,,,,,,,11,,,,67,0
60302,note_on,0,0,9,,,,,,,,,12,,,,59,64
60302,note_on,0,0,9,,,,,,,,,12,,,,55,0
60302,note_on,30,0,9,,,,,,,,,12,,,,51,0
60304,note_on,30,0,10,,,,,,,,,6,,,,47,0
60304,note_on,0,0,10,,,,,,,,,6,,,,52,47
60312,control_change,12,0,7,,,,,,,,,10,11,49,,,
60332,note_on,0,0,8,,,,,,,,,11,,,,67,65
60332,note_on,30,0,8,,,,,,,,,11,,,,59,0
60332,note_on,0,0,9,,,,,,,,,12,,,,51,64
60332,note_on,0,0,9,,,,,,,,,12,,,,55,64
60332,note_on,0,0,9,,,,,,,,,12,,,,59,0
60332,note_on,30,0,9,,,,,,,,,12,,,,55,0
60334,note_on,30,0,10,,,,,,,,,6,,,,52,0
60334,note_on,0,0,10,,,,,,,,,6,,,,47,47
60335,control_change,23,0,7,,,,,,,,,10,11,50,,,
60358,control_change,23,0,7,,,,,,,,,10,11,51,,,
60360,note_on,0,0,7,,,,,,,,,10,,,,76,122
60360,note_on,2,0,7,,,,,,,,,10,,,,71,0
60360,set_tempo,60,1,0,,,,,,937500,,,,,,,,
60362,note_on,0,0,9,,,,,,,,,12,,,,55,64
60362,note_on,0,0,9,,,,,,,,,12,,,,55,0
60362,note_on,0,0,9,,,,,,,,,12,,,,59,64
60362,note_on,30,0,9,,,,,,,,,12,,,,51,0
60362,note_on,30,0,8,,,,,,,,,11,,,,67,0
60362,note_on,0,0,8,,,,,,,,,11,,,,59,65
60364,note_on,0,0,10,,,,,,,,,6,,,,52,47
60364,note_on,30,0,10,,,,,,,,,6,,,,47,0
60381,control_change,21,0,7,,,,,,,,,10,11,52,,,
60392,note_on,30,0,9,,,,,,,,,12,,,,55,0
60392,note_on,0,0,9,,,,,,,,,12,,,,59,0
60392,note_on,0,0,9,,,,,,,,,12,,,,51,64
60392,note_on,30,0,8,,,,,,,,,11,,,,59,0
60392,note_on,0,0,9,,,,,,,,,12,,,,55,64
60392,note_on,0,0,8,,,,,,,,,11,,,,67,65
60394,note_on,30,0,10,,,,,,,,,6,,,,52,0
60394,note_on,0,0,10,,,,,,,,,6,,,,47,47
60404,control_change,23,0,7,,,,,,,,,10,11,53,,,
60420,note_on,16,0,7,,,,,,,,,10,,,,76,0
60420,note_on,0,0,7,,,,,,,,,10,,,,79,122
60422,note_on,0,0,9,,,,,,,,,12,,,,55,64
60422,note_on,0,0,9,,,,,,,,,12,,,,55,0
60422,note_on,30,0,8,,,,,,,,,11,,,,67,0
60422,note_on,0,0,8,,,,,,,,,11,,,,59,65
60422,note_on,0,0,9,,,,,,,,,12,,,,59,64
60422,note_on,30,0,9,,,,,,,,,12,,,,51,0
60424,note_on,30,0,10,,,,,,,,,6,,,,47,0
60424,note_on,0,0,10,,,,,,,,,6,,,,52,47
60427,control_change,7,0,7,,,,,,,,,10,11,54,,,
60445,note_on,18,0,7,,,,,,,,,10,,,,79,0
60450,control_change,5,0,7,,,,,,,,,10,11,55,,,
60450,note_on,0,0,7,,,,,,,,,10,,,,79,122
60452,note_on,0,0,9,,,,,,,,,12,,,,51,64
60452,note_on,0,0,8,,,,,,,,,11,,,,67,65
60452,note_on,30,0,8,,,,,,,,,11,,,,59,0
60452,note_on,30,0,9,,,,,,,,,12,,,,59,0
60452,note_on,0,0,9,,,,,,,,,12,,,,55,0
60452,note_on,0,0,9,,,,,,,,,12,,,,55,64
60454,note_on,30,0,10,,,,,,,,,6,,,,52,0
60454,note_on,0,0,10,,,,,,,,,6,,,,47,47
60475,note_on,25,0,7,,,,,,,,,10,,,,79,0
60477,note_on,25,0,8,,,,,,,,,11,,,,67,0
60477,note_on,0,0,9,,,,,,,,,12,,,,51,0
60477,note_on,25,0,9,,,,,,,,,12,,,,55,0
60479,note_on,25,0,10,,,,,,,,,6,,,,47,0
60480,set_tempo,120,1,0,,,,,,1034483,,,,,,,,
60480,note_on,0,0,7,,,,,,,,,10,,,,79,109
60480,control_change,5,0,7,,,,,,,,,10,11,50,,,
60482,control_change,3480,0,2,,,,,,,,,1,11,39,,,
60482,note_on,0,0,2,,,,,,,,,1,,,,83,95
60482,note_on,0,0,9,,,,,,,,,12,,,,55,64
60482,control_change,5,0,9,,,,,,,,,12,11,32,,,
60482,note_on,0,0,8,,,,,,,,,11,,,,59,65
60482,control_change,5,0,8,,,,,,,,,11,11,32,,,
60482,note_on,0,0,9,,,,,,,,,12,,,,53,64
60483,control_change,360,0,3,,,,,,,,,2,11,39,,,
60484,program_change,239,0,11,,,,,,,,48,13,,,,,
60484,note_on,0,0,10,,,,,,,,,6,,,,50,56
60484,control_change,5,0,10,,,,,,,,,6,11,32,,,
60485,control_change,1,0,11,,,,,,,,,13,11,32,,,
60485,note_on,0,0,11,,,,,,,,,13,,,,47,100
60487,program_change,239,0,12,,,,,,,,48,14,,,,,
60488,note_on,0,0,12,,,,,,,,,14,,,,35,96
60488,control_change,1,0,12,,,,,,,,,14,11,32,,,
60499,control_change,19,0,7,,,,,,,,,10,11,51,,,
60508,control_change,26,0,8,,,,,,,,,11,11,34,,,
60508,control_change,26,0,9,,,,,,,,,12,11,34,,,
60510,control_change,26,0,10,,,,,,,,,6,11,34,,,
60510,control_change,28,0,2,,,,,,,,,1,11,41,,,
60511,control_change,28,0,3,,,,,,,,,2,11,41,,,
60511,control_change,26,0,11,,,,,,,,,13,11,34,,,
60512,note_on,0,0,8,,,,,,,,,11,,,,67,65
60512,note_on,4,0,8,,,,,,,,,11,,,,59,0
60512,note_on,0,0,9,,,,,,,,,12,,,,53,64
60512,note_on,0,0,9,,,,,,,,,12,,,,55,0
60512,note_on,4,0,9,,,,,,,,,12,,,,53,0
60512,note_on,0,0,9,,,,,,,,,12,,,,50,64
60514,control_change,26,0,12,,,,,,,,,14,11,34,,,
60514,note_on,4,0,10,,,,,,,,,6,,,,50,0
60514,note_on,0,0,10,,,,,,,,,6,,,,47,56
60518,control_change,19,0,7,,,,,,,,,10,11,52,,,
60525,control_change,15,0,2,,,,,,,,,1,11,42,,,
60526,control_change,15,0,3,,,,,,,,,2,11,42,,,
60534,control_change,22,0,9,,,,,,,,,12,11,36,,,
60534,control_change,22,0,8,,,,,,,,,11,11,36,,,
60536,control_change,22,0,10,,,,,,,,,6,11,36,,,
60537,control_change,26,0,11,,,,,,,,,13,11,36,,,
60538,control_change,20,0,7,,,,,,,,,10,11,53,,,
60540,set_tempo,60,1,0,,,,,,937500,,,,,,,,
60540,control_change,26,0,12,,,,,,,,,14,11,36,,,
60542,note_on,8,0,8,,,,,,,,,11,,,,67,0
60542,note_on,0,0,9,,,,,,,,,12,,,,55,64
60542,note_on,0,0,9,,,,,,,,,12,,,,53,0
60542,note_on,8,0,9,,,,,,,,,12,,,,50,0
60542,note_on,0,0,8,,,,,,,,,11,,,,59,65
60542,note_on,0,0,9,,,,,,,,,12,,,,53,64
60544,note_on,0,0,10,,,,,,,,,6,,,,50,56
60544,note_on,8,0,10,,,,,,,,,6,,,,47,0
60554,control_change,29,0,2,,,,,,,,,1,11,43,,,
60555,control_change,29,0,3,,,,,,,,,2,11,43,,,
60557,control_change,19,0,7,,,,,,,,,10,11,54,,,
60560,control_change,18,0,9,,,,,,,,,12,11,38,,,
60560,control_change,18,0,8,,,,,,,,,11,11,38,,,
60562,control_change,18,0,10,,,,,,,,,6,11,38,,,
60563,control_change,26,0,11,,,,,,,,,13,11,38,,,
60566,control_change,26,0,12,,,,,,,,,14,11,38,,,
60572,note_on,0,0,8,,,,,,,,,11,,,,67,65
60572,note_on,0,0,9,,,,,,,,,12,,,,53,64
60572,note_on,12,0,8,,,,,,,,,11,,,,59,0
60572,note_on,0,0,9,,,,,,,,,12,,,,53,0
60572,note_on,12,0,9,,,,,,,,,12,,,,55,0
60572,note_on,0,0,9,,,,,,,,,12,,,,50,64
60574,note_on,0,0,10,,,,,,,,,6,,,,47,56
60574,note_on,12,0,10,,,,,,,,,6,,,,50,0
60577,control_change,20,0,7,,,,,,,,,10,11,55,,,
60582,control_change,28,0,2,,,,,,,,,1,11,45,,,
60583,control_change,28,0,3,,,,,,,,,2,11,45,,,
60586,control_change,14,0,9,,,,,,,,,12,11,40,,,
60586,control_change,14,0,8,,,,,,,,,11,11,40,,,
60588,control_change,14,0,10,,,,,,,,,6,11,40,,,
60589,control_change,26,0,11,,,,,,,,,13,11,40,,,
60592,control_change,26,0,12,,,,,,,,,14,11,40,,,
60596,control_change,19,0,7,,,,,,,,,10,11,56,,,
60597,control_change,15,0,2,,,,,,,,,1,11,45,,,
60598,control_change,15,0,3,,,,,,,,,2,11,45,,,
60602,note_on,16,0,9,,,,,,,,,12,,,,53,0
60602,note_on,0,0,9,,,,,,,,,12,,,,53,64
60602,note_on,0,0,9,,,,,,,,,12,,,,55,64
60602,note_on,0,0,8,,,,,,,,,11,,,,59,65
60602,note_on,16,0,8,,,,,,,,,11,,,,67,0
60602,note_on,0,0,9,,,,,,,,,12,,,,50,0
60604,note_on,16,0,10,,,,,,,,,6,,,,47,0
60604,note_on,0,0,10,,,,,,,,,6,,,,50,56
60612,control_change,10,0,9,,,,,,,,,12,11,42,,,
60612,control_change,10,0,8,,,,,,,,,11,11,42,,,
60614,control_change,10,0,10,,,,,,,,,6,11,42,,,
60615,control_change,26,0,11,,,,,,,,,13,11,42,,,
60616,control_change,20,0,7,,,,,,,,,10,11,57,,,
60618,control_change,26,0,12,,,,,,,,,14,11,42,,,
60626,control_change,29,0,2,,,,,,,,,1,11,47,,,
60627,control_change,29,0,3,,,,,,,,,2,11,47,,,
60632,note_on,0,0,9,,,,,,,,,12,,,,53,64
60632,note_on,0,0,8,,,,,,,,,11,,,,67,65
60632,note_on,20,0,8,,,,,,,,,11,,,,59,0
60632,note_on,0,0,9,,,,,,,,,12,,,,50,64
60632,note_on,0,0,9,,,,,,,,,12,,,,55,0
60632,note_on,20,0,9,,,,,,,,,12,,,,53,0
60634,note_on,0,0,10,,,,,,,,,6,,,,47,56
60634,note_on,20,0,10,,,,,,,,,6,,,,50,0
60635,control_change,19,0,7,,,,,,,,,10,11,58,,,
60639,control_change,7,0,9,,,,,,,,,12,11,44,,,
60639,control_change,7,0,8,,,,,,,,,11,11,44,,,
60641,control_change,7,0,10,,,,,,,,,6,11,44,,,
60642,control_change,27,0,11,,,,,,,,,13,11,44,,,
60645,control_change,27,0,12,,,,,,,,,14,11,44,,,
60654,control_change,28,0,2,,,,,,,,,1,11,49,,,
60655,control_change,20,0,7,,,,,,,,,10,11,59,,,
60655,control_change,28,0,3,,,,,,,,,2,11,49,,,
60660,set_tempo,120,1,0,,,,,,1034483,,,,,,,,
60662,note_on,0,0,9,,,,,,,,,12,,,,55,64
60662,note_on,0,0,9,,,,,,,,,12,,,,53,0
60662,note_on,23,0,9,,,,,,,,,12,,,,50,0
60662,note_on,23,0,8,,,,,,,,,11,,,,67,0
60662,note_on,0,0,8,,,,,,,,,11,,,,59,65
60662,note_on,0,0,9,,,,,,,,,12,,,,53,64
60664,note_on,0,0,10,,,,,,,,,6,,,,47,56
60664,note_on,23,0,10,,,,,,,,,6,,,,47,0
60665,note_on,0,0,11,,,,,,,,,13,,,,43,100
60665,note_on,23,0,11,,,,,,,,,13,,,,47,0
60665,control_change,3,0,9,,,,,,,,,12,11,46,,,
60665,control_change,3,0,8,,,,,,,,,11,11,46,,,
60667,control_change,3,0,10,,,,,,,,,6,11,46,,,
60668,note_on,23,0,12,,,,,,,,,14,,,,35,0
60668,control_change,3,0,11,,,,,,,,,13,11,46,,,
60668,note_on,0,0,12,,,,,,,,,14,,,,31,96
60669,control_change,15,0,2,,,,,,,,,1,11,50,,,
60670,control_change,15,0,3,,,,,,,,,2,11,50,,,
60671,control_change,3,0,12,,,,,,,,,14,11,46,,,
60674,control_change,19,0,7,,,,,,,,,10,11,60,,,
60691,control_change,26,0,8,,,,,,,,,11,11,48,,,
60691,control_change,26,0,9,,,,,,,,,12,11,48,,,
60692,note_on,0,0,8,,,,,,,,,11,,,,67,65
60692,note_on,1,0,9,,,,,,,,,12,,,,53,0
60692,note_on,0,0,9,,,,,,,,,12,,,,55,0
60692,note_on,0,0,9,,,,,,,,,12,,,,53,64
60692,note_on,0,0,9,,,,,,,,,12,,,,50,64
60692,note_on,1,0,8,,,,,,,,,11,,,,59,0
60693,control_change,26,0,10,,,,,,,,,6,11,48,,,
60694,control_change,20,0,7,,,,,,,,,10,11,61,,,
60694,note_on,0,0,10,,,,,,,,,6,,,,43,56
60694,note_on,1,0,10,,,,,,,,,6,,,,47,0
60694,control_change,26,0,11,,,,,,,,,13,11,48,,,
60697,control_change,26,0,12,,,,,,,,,14,11,48,,,
60698,control_change,29,0,2,,,,,,,,,1,11,52,,,
60699,control_change,29,0,3,,,,,,,,,2,11,52,,,
60713,control_change,19,0,7,,,,,,,,,10,11,62,,,
60717,control_change,25,0,9,,,,,,,,,12,11,50,,,
60717,control_change,25,0,8,,,,,,,,,11,11,50,,,
60719,control_change,25,0,10,,,,,,,,,6,11,50,,,
60720,control_change,26,0,11,,,,,,,,,13,11,50,,,
60720,set_tempo,60,1,0,,,,,,937500,,,,,,,,
60722,note_on,5,0,9,,,,,,,,,12,,,,53,0
60722,note_on,0,0,9,,,,,,,,,12,,,,50,0
60722,note_on,0,0,9,,,,,,,,,12,,,,53,64
60722,note_on,5,0,8,,,,,,,,,11,,,,67,0
60722,note_on,0,0,8,,,,,,,,,11,,,,59,65
60722,note_on,0,0,9,,,,,,,,,12,,,,55,64
60723,control_change,26,0,12,,,,,,,,,14,11,50,,,
60724,note_on,0,0,10,,,,,,,,,6,,,,47,56
60724,note_on,5,0,10,,,,,,,,,6,,,,43,0
60726,control_change,28,0,2,,,,,,,,,1,11,53,,,
60727,control_change,28,0,3,,,,,,,,,2,11,53,,,
60732,control_change,19,0,7,,,,,,,,,10,11,63,,,
60741,control_change,15,0,2,,,,,,,,,1,11,54,,,
60742,control_change,15,0,3,,,,,,,,,2,11,54,,,
60743,control_change,21,0,8,,,,,,,,,11,11,52,,,
60743,control_change,21,0,9,,,,,,,,,12,11,52,,,
60745,control_change,21,0,10,,,,,,,,,6,11,52,,,
60746,control_change,26,0,11,,,,,,,,,13,11,52,,,
60749,control_change,26,0,12,,,,,,,,,14,11,52,,,
60752,note_on,9,0,9,,,,,,,,,12,,,,55,0
60752,control_change,20,0,7,,,,,,,,,10,11,64,,,
60752,note_on,0,0,8,,,,,,,,,11,,,,67,65
60752,note_on,0,0,9,,,,,,,,,12,,,,53,64
60752,note_on,0,0,9,,,,,,,,,12,,,,50,64
60752,note_on,0,0,9,,,,,,,,,12,,,,53,0
60752,note_on,9,0,8,,,,,,,,,11,,,,59,0
60754,note_on,9,0,10,,,,,,,,,6,,,,47,0
60754,note_on,0,0,10,,,,,,,,,6,,,,43,56
60770,control_change,29,0,2,,,,,,,,,1,11,55,,,
60770,control_change,18,0,8,,,,,,,,,11,11,54,,,
60770,control_change,18,0,9,,,,,,,,,12,11,54,,,
60771,control_change,19,0,7,,,,,,,,,10,11,65,,,
60771,control_change,29,0,3,,,,,,,,,2,11,55,,,
60772,control_change,18,0,10,,,,,,,,,6,11,54,,,
60773,control_change,27,0,11,,,,,,,,,13,11,54,,,
60776,control_change,27,0,12,,,,,,,,,14,11,54,,,
60782,note_on,0,0,8,,,,,,,,,11,,,,59,65
60782,note_on,12,0,9,,,,,,,,,12,,,,50,0
60782,note_on,0,0,9,,,,,,,,,12,,,,53,0
60782,note_on,0,0,9,,,,,,,,,12,,,,55,64
60782,note_on,0,0,9,,,,,,,,,12,,,,53,64
60782,note_on,12,0,8,,,,,,,,,11,,,,67,0
60784,note_on,0,0,10,,,,,,,,,6,,,,55,56
60784,note_on,12,0,10,,,,,,,,,6,,,,43,0
60791,control_change,20,0,7,,,,,,,,,10,11,66,,,
60796,control_change,14,0,9,,,,,,,,,12,11,56,,,
60796,control_change,14,0,8,,,,,,,,,11,11,56,,,
60798,control_change,28,0,2,,,,,,,,,1,11,57,,,
60798,control_change,14,0,10,,,,,,,,,6,11,56,,,
60799,control_change,26,0,11,,,,,,,,,13,11,56,,,
60799,control_change,28,0,3,,,,,,,,,2,11,57,,,
60802,control_change,26,0,12,,,,,,,,,14,11,56,,,
60810,control_change,19,0,7,,,,,,,,,10,11,67,,,
60812,note_on,16,0,9,,,,,,,,,12,,,,53,0
60812,note_on,0,0,9,,,,,,,,,12,,,,55,0
60812,note_on,0,0,9,,,,,,,,,12,,,,50,64
60812,note_on,0,0,9,,,,,,,,,12,,,,53,64
60812,note_on,16,0,8,,,,,,,,,11,,,,59,0
60812,note_on,0,0,8,,,,,,,,,11,,,,67,65
60813,control_change,15,0,2,,,,,,,,,1,11,58,,,
60814,note_on,0,0,10,,,,,,,,,6,,,,43,56
60814,note_on,16,0,10,,,,,,,,,6,,,,55,0
60814,control_change,15,0,3,,,,,,,,,2,11,58,,,
60822,control_change,10,0,8,,,,,,,,,11,11,58,,,
60822,control_change,10,0,9,,,,,,,,,12,11,58,,,
60824,control_change,10,0,10,,,,,,,,,6,11,58,,,
60825,control_change,26,0,11,,,,,,,,,13,11,58,,,
60828,control_change,26,0,12,,,,,,,,,14,11,58,,,
60830,control_change,20,0,7,,,,,,,,,10,11,68,,,
60837,note_on,15,0,8,,,,,,,,,11,,,,67,0
60837,note_on,24,0,2,,,,,,,,,1,,,,83,0
60837,note_on,15,0,9,,,,,,,,,12,,,,53,0
60837,note_on,0,0,9,,,,,,,,,12,,,,50,0
60839,note_on,15,0,10,,,,,,,,,6,,,,43,0
60840,set_tempo,120,1,0,,,,,,1034483,,,,,,,,
60842,note_on,5,0,8,,,,,,,,,11,,,,60,65
60842,note_on,0,0,2,,,,,,,,,1,,,,84,95
60842,note_on,5,0,9,,,,,,,,,12,,,,55,64
60842,control_change,5,0,2,,,,,,,,,1,11,60,,,
60842,note_on,0,0,9,,,,,,,,,12,,,,51,64
60843,note_on,29,0,3,,,,,,,,,2,,,,75,96
60843,control_change,4320,0,5,,,,,,,,,4,11,57,,,
60843,control_change,0,0,3,,,,,,,,,2,11,60,,,
60844,note_on,5,0,10,,,,,,,,,6,,,,48,104
60845,note_on,0,0,4,,,,,,,,,3,,,,60,95
60845,note_on,0,0,6,,,,,,,,,5,,,,60,82
60845,note_on,20,0,11,,,,,,,,,13,,,,43,0
60845,note_on,0,0,11,,,,,,,,,13,,,,48,100
60845,control_change,4320,0,6,,,,,,,,,5,11,57,,,
60845,control_change,0,0,4,,,,,,,,,3,11,60,,,
60845,note_on,960,0,4,,,,,,,,,3,,,,48,95
60848,note_on,0,0,12,,,,,,,,,14,,,,36,96
60848,control_change,6,0,8,,,,,,,,,11,11,60,,,
60848,note_on,20,0,12,,,,,,,,,14,,,,31,0
60848,control_change,6,0,9,,,,,,,,,12,11,60,,,
60849,control_change,19,0,7,,,,,,,,,10,11,69,,,
60850,control_change,6,0,10,,,,,,,,,6,11,60,,,
60851,control_change,6,0,11,,,,,,,,,13,11,60,,,
60854,control_change,6,0,12,,,,,,,,,14,11,60,,,
60869,control_change,20,0,7,,,,,,,,,10,11,70,,,
60870,control_change,28,0,2,,,,,,,,,1,11,61,,,
60871,control_change,28,0,3,,,,,,,,,2,11,61,,,
60871,control_change,28,0,5,,,,,,,,,4,11,59,,,
60872,note_on,24,0,8,,,,,,,,,11,,,,60,0
60872,note_on,0,0,9,,,,,,,,,12,,,,51,64
60872,note_on,0,0,9,,,,,,,,,12,,,,48,64
60872,note_on,0,0,9,,,,,,,,,12,,,,55,0
60872,note_on,24,0,9,,,,,,,,,12,,,,51,0
60872,note_on,0,0,8,,,,,,,,,11,,,,67,65
60873,control_change,28,0,6,,,,,,,,,5,11,59,,,
60873,control_change,28,0,4,,,,,,,,,3,11,61,,,
60874,control_change,2,0,9,,,,,,,,,12,11,62,,,
60874,control_change,2,0,8,,,,,,,,,11,11,62,,,
60876,control_change,26,0,10,,,,,,,,,6,11,62,,,
60877,control_change,26,0,11,,,,,,,,,13,11,62,,,
60880,control_change,26,0,12,,,,,,,,,14,11,62,,,
60885,control_change,15,0,2,,,,,,,,,1,11,62,,,
60886,control_change,15,0,5,,,,,,,,,4,11,60,,,
60886,control_change,15,0,3,,,,,,,,,2,11,62,,,
60888,control_change,19,0,7,,,,,,,,,10,11,71,,,
60888,control_change,15,0,4,,,,,,,,,3,11,62,,,
60888,control_change,15,0,6,,,,,,,,,5,11,60,,,
60900,control_change,26,0,9,,,,,,,,,12,11,64,,,
60900,set_tempo,60,1,0,,,,,,937500,,,,,,,,
60900,control_change,26,0,8,,,,,,,,,11,11,64,,,
60902,note_on,2,0,9,,,,,,,,,12,,,,51,0
60902,note_on,0,0,9,,,,,,,,,12,,,,51,64
60902,note_on,0,0,9,,,,,,,,,12,,,,55,64
60902,control_change,26,0,10,,,,,,,,,6,11,64,,,
60902,note_on,0,0,8,,,,,,,,,11,,,,60,65
60902,note_on,2,0,8,,,,,,,,,11,,,,67,0
60902,note_on,0,0,9,,,,,,,,,12,,,,48,0
60903,control_change,26,0,11,,,,,,,,,13,11,64,,,
60906,control_change,26,0,12,,,,,,,,,14,11,64,,,
60908,control_change,20,0,7,,,,,,,,,10,11,72,,,
60914,control_change,29,0,2,,,,,,,,,1,11,64,,,
60915,control_change,29,0,3,,,,,,,,,2,11,64,,,
60915,control_change,29,0,5,,,,,,,,,4,11,62,,,
60917,control_change,29,0,6,,,,,,,,,5,11,62,,,
60917,control_change,29,0,4,,,,,,,,,3,11,64,,,
60927,control_change,19,0,7,,,,,,,,,10,11,73,,,
60927,control_change,25,0,8,,,,,,,,,11,11,66,,,
60927,control_change,25,0,9,,,,,,,,,12,11,66,,,
60929,control_change,27,0,10,,,,,,,,,6,11,66,,,
60930,control_change,27,0,11,,,,,,,,,13,11,66,,,
60932,note_on,0,0,9,,,,,,,,,12,,,,51,64
60932,note_on,0,0,9,,,,,,,,,12,,,,48,64
60932,note_on,5,0,9,,,,,,,,,12,,,,55,0
60932,note_on,0,0,9,,,,,,,,,12,,,,51,0
60932,note_on,0,0,8,,,,,,,,,11,,,,67,65
60932,note_on,5,0,8,,,,,,,,,11,,,,60,0
60933,control_change,27,0,12,,,,,,,,,14,11,66,,,
60942,control_change,28,0,2,,,,,,,,,1,11,65,,,
60943,control_change,28,0,5,,,,,,,,,4,11,64,,,
60943,control_change,28,0,3,,,,,,,,,2,11,65,,,
60945,control_change,28,0,4,,,,,,,,,3,11,65,,,
60945,control_change,28,0,6,,,,,,,,,5,11,64,,,
60947,control_change,20,0,7,,,,,,,,,10,11,74,,,
60953,control_change,21,0,8,,,,,,,,,11,11,68,,,
60953,control_change,21,0,9,,,,,,,,,12,11,68,,,
60955,control_change,26,0,10,,,,,,,,,6,11,68,,,
60956,control_change,26,0,11,,,,,,,,,13,11,68,,,
60957,control_change,15,0,2,,,,,,,,,1,11,66,,,
60958,control_change,15,0,3,,,,,,,,,2,11,66,,,
60958,control_change,15,0,5,,,,,,,,,4,11,65,,,
60959,control_change,26,0,12,,,,,,,,,14,11,68,,,
60960,control_change,15,0,6,,,,,,,,,5,11,65,,,
60960,control_change,15,0,4,,,,,,,,,3,11,66,,,
60962,note_on,0,0,9,,,,,,,,,12,,,,51,0
60962,note_on,0,0,9,,,,,,,,,12,,,,51,64
60962,note_on,0,0,9,,,,,,,,,12,,,,55,64
60962,note_on,0,0,8,,,,,,,,,11,,,,60,65
60962,note_on,9,0,9,,,,,,,,,12,,,,48,0
60962,note_on,9,0,8,,,,,,,,,11,,,,67,0
60966,control_change,19,0,7,,,,,,,,,10,11,75,,,
60979,control_change,17,0,9,,,,,,,,,12,11,70,,,
60979,control_change,17,0,8,,,,,,,,,11,11,70,,,
60981,control_change,26,0,10,,,,,,,,,6,11,70,,,
60982,control_change,26,0,11,,,,,,,,,13,11,70,,,
60985,control_change,19,0,7,,,,,,,,,10,11,76,,,
60985,control_change,26,0,12,,,,,,,,,14,11,70,,,
60986,control_change,29,0,2,,,,,,,,,1,11,68,,,
60987,control_change,29,0,5,,,,,,,,,4,11,67,,,
60987,control_change,29,0,3,,,,,,,,,2,11,68,,,
60989,control_change,29,0,4,,,,,,,,,3,11,68,,,
60989,control_change,29,0,6,,,,,,,,,5,11,67,,,
60992,note_on,0,0,9,,,,,,,,,12,,,,51,64
60992,note_on,13,0,9,,,,,,,,,12,,,,55,0
60992,note_on,0,0,9,,,,,,,,,12,,,,51,0
60992,note_on,0,0,8,,,,,,,,,11,,,,67,65
60992,note_on,0,0,9,,,,,,,,,12,,,,48,64
60992,note_on,13,0,8,,,,,,,,,11,,,,60,0
61005,control_change,13,0,9,,,,,,,,,12,11,72,,,
61005,control_change,20,0,7,,,,,,,,,10,11,77,,,
61005,control_change,13,0,8,,,,,,,,,11,11,72,,,
61007,control_change,26,0,10,,,,,,,,,6,11,72,,,
61008,control_change,26,0,11,,,,,,,,,13,11,72,,,
61011,control_change,26,0,12,,,,,,,,,14,11,72,,,
61014,control_change,28,0,2,,,,,,,,,1,11,70,,,
61015,control_change,28,0,3,,,,,,,,,2,11,70,,,
61015,control_change,28,0,5,,,,,,,,,4,11,69,,,
61017,control_change,28,0,4,,,,,,,,,3,11,70,,,
61017,control_change,28,0,6,,,,,,,,,5,11,69,,,
61018,note_on,3,0,3,,,,,,,,,2,,,,75,0
61018,note_on,0,0,3,,,,,,,,,2,,,,79,0
61020,set_tempo,120,1,0,,,,,,1034483,,,,,,,,
61022,note_on,0,0,8,,,,,,,,,11,,,,60,65
61022,note_on,17,0,8,,,,,,,,,11,,,,67,0
61022,note_on,0,0,9,,,,,,,,,12,,,,51,64
61022,note_on,0,0,9,,,,,,,,,12,,,,55,64
61022,note_on,0,0,9,,,,,,,,,12,,,,48,0
61022,note_on,17,0,9,,,,,,,,,12,,,,51,0
61022,note_on,8,0,2,,,,,,,,,1,,,,79,95
61023,note_on,5,0,3,,,,,,,,,2,,,,72,96
61023,note_on,0,0,3,,,,,,,,,2,,,,75,96
61023,note_on,8,0,5,,,,,,,,,4,,,,63,64
61024,control_change,19,0,7,,,,,,,,,10,11,78,,,
61024,note_on,17,0,10,,,,,,,,,6,,,,48,0
61024,note_on,0,0,10,,,,,,,,,6,,,,46,104
61025,note_on,0,0,4,,,,,,,,,3,,,,48,0
61025,note_on,8,0,4,,,,,,,,,3,,,,60,0
61025,note_on,0,0,4,,,,,,,,,3,,,,58,95
61025,note_on,0,0,4,,,,,,,,,3,,,,46,95
61025,note_on,0,0,11,,,,,,,,,13,,,,46,100
61025,note_on,17,0,11,,,,,,,,,13,,,,48,0
61028,note_on,0,0,12,,,,,,,,,14,,,,34,96
61028,note_on,17,0,12,,,,,,,,,14,,,,36,0
61029,control_change,7,0,2,,,,,,,,,1,11,70,,,
61030,control_change,7,0,3,,,,,,,,,2,11,70,,,
61030,control_change,7,0,5,,,,,,,,,4,11,70,,,
61031,control_change,9,0,8,,,,,,,,,11,11,74,,,
61031,control_change,9,0,9,,,,,,,,,12,11,74,,,
61032,control_change,15,0,6,,,,,,,,,5,11,70,,,
61032,control_change,7,0,4,,,,,,,,,3,11,70,,,
61033,control_change,9,0,10,,,,,,,,,6,11,74,,,
61034,control_change,9,0,11,,,,,,,,,13,11,74,,,
61037,control_change,9,0,12,,,,,,,,,14,11,74,,,
61044,control_change,20,0,7,,,,,,,,,10,11,79,,,
61052,note_on,0,0,9,,,,,,,,,12,,,,51,64
61052,note_on,0,0,9,,,,,,,,,12,,,,48,64
61052,note_on,0,0,9,,,,,,,,,12,,,,55,0
61052,note_on,0,0,8,,,,,,,,,11,,,,67,65
61052,note_on,21,0,8,,,,,,,,,11,,,,60,0
61052,note_on,21,0,9,,,,,,,,,12,,,,51,0
61058,control_change,6,0,9,,,,,,,,,12,11,76,,,
61058,control_change,6,0,8,,,,,,,,,11,11,76,,,
61058,control_change,29,0,2,,,,,,,,,1,11,72,,,
61059,control_change,29,0,5,,,,,,,,,4,11,72,,,
61059,control_change,29,0,3,,,,,,,,,2,11,72,,,
61060,control_change,27,0,10,,,,,,,,,6,11,76,,,
61061,control_change,29,0,4,,,,,,,,,3,11,72,,,
61061,control_change,29,0,6,,,,,,,,,5,11,72,,,
61061,control_change,27,0,11,,,,,,,,,13,11,76,,,
61063,control_change,19,0,7,,,,,,,,,10,11,80,,,
61064,control_change,27,0,12,,,,,,,,,14,11,76,,,
61080,set_tempo,60,1,0,,,,,,937500,,,,,,,,
61082,note_on,0,0,9,,,,,,,,,12,,,,51,64
61082,note_on,0,0,9,,,,,,,,,12,,,,48,0
61082,note_on,24,0,8,,,,,,,,,11,,,,67,0
61082,note_on,24,0,9,,,,,,,,,12,,,,51,0
61082,note_on,0,0,8,,,,,,,,,11,,,,60,65
61082,note_on,0,0,9,,,,,,,,,12,,,,55,64
61083,control_change,20,0,7,,,,,,,,,10,11,81,,,
61084,control_change,2,0,9,,,,,,,,,12,11,78,,,
61084,control_change,2,0,8,,,,,,,,,11,11,78,,,
61086,control_change,28,0,2,,,,,,,,,1,11,74,,,
61086,control_change,26,0,10,,,,,,,,,6,11,78,,,
61087,control_change,28,0,3,,,,,,,,,2,11,74,,,
61087,control_change,28,0,5,,,,,,,,,4,11,74,,,
61087,control_change,26,0,11,,,,,,,,,13,11,78,,,
61089,control_change,28,0,6,,,,,,,,,5,11,74,,,
61089,control_change,28,0,4,,,,,,,,,3,11,74,,,
61090,control_change,26,0,12,,,,,,,,,14,11,78,,,
61101,control_change,15,0,2,,,,,,,,,1,11,75,,,
61102,control_change,19,0,7,,,,,,,,,10,11,82,,,
61102,control_change,15,0,3,,,,,,,,,2,11,75,,,
61102,control_change,15,0,5,,,,,,,,,4,11,75,,,
61104,control_change,15,0,4,,,,,,,,,3,11,75,,,
61104,control_change,15,0,6,,,,,,,,,5,11,75,,,
61110,control_change,26,0,8,,,,,,,,,11,11,80,,,
61110,control_change,26,0,9,,,,,,,,,12,11,80,,,
61112,note_on,0,0,9,,,,,,,,,12,,,,51,64
61112,note_on,2,0,9,,,,,,,,,12,,,,55,0
61112,note_on,0,0,8,,,,,,,,,11,,,,67,65
61112,note_on,2,0,8,,,,,,,,,11,,,,60,0
61112,note_on,0,0,9,,,,,,,,,12,,,,51,0
61112,note_on,0,0,9,,,,,,,,,12,,,,48,64
61112,control_change,26,0,10,,,,,,,,,6,11,80,,,
61113,control_change,26,0,11,,,,,,,,,13,11,80,,,
61116,control_change,26,0,12,,,,,,,,,14,11,80,,,
61122,control_change,20,0,7,,,,,,,,,10,11,83,,,
61130,control_change,29,0,2,,,,,,,,,1,11,76,,,
61131,control_change,29,0,3,,,,,,,,,2,11,76,,,
61131,control_change,29,0,5,,,,,,,,,4,11,77,,,
61133,control_change,29,0,4,,,,,,,,,3,11,76,,,
61133,control_change,29,0,6,,,,,,,,,5,11,77,,,
61136,control_change,24,0,9,,,,,,,,,12,11,82,,,
61136,control_change,24,0,8,,,,,,,,,11,11,82,,,
61138,control_change,26,0,10,,,,,,,,,6,11,82,,,
61139,control_change,26,0,11,,,,,,,,,13,11,82,,,
61141,control_change,19,0,7,,,,,,,,,10,11,84,,,
61142,note_on,6,0,8,,,,,,,,,11,,,,67,0
61142,control_change,26,0,12,,,,,,,,,14,11,82,,,
61142,note_on,0,0,9,,,,,,,,,12,,,,48,0
61142,note_on,0,0,8,,,,,,,,,11,,,,60,65
61142,note_on,6,0,9,,,,,,,,,12,,,,51,0
61142,note_on,0,0,9,,,,,,,,,12,,,,55,64
61142,note_on,0,0,9,,,,,,,,,12,,,,51,64
61158,control_change,28,0,2,,,,,,,,,1,11,78,,,
61159,control_change,28,0,5,,,,,,,,,4,11,79,,,
61159,control_change,28,0,3,,,,,,,,,2,11,78,,,
61161,control_change,28,0,4,,,,,,,,,3,11,78,,,
61161,control_change,28,0,6,,,,,,,,,5,11,79,,,
61161,control_change,20,0,7,,,,,,,,,10,11,85,,,
61162,control_change,20,0,9,,,,,,,,,12,11,84,,,
61162,control_change,20,0,8,,,,,,,,,11,11,84,,,
61164,control_change,26,0,10,,,,,,,,,6,11,84,,,
61165,control_change,26,0,11,,,,,,,,,13,11,84,,,
61168,control_change,26,0,12,,,,,,,,,14,11,84,,,
61172,note_on,0,0,9,,,,,,,,,12,,,,51,64
61172,note_on,0,0,9,,,,,,,,,12,,,,48,64
61172,note_on,0,0,8,,,,,,,,,11,,,,67,65
61172,note_on,0,0,9,,,,,,,,,12,,,,55,0
61172,note_on,10,0,8,,,,,,,,,11,,,,60,0
61172,note_on,10,0,9,,,,,,,,,12,,,,51,0
61173,control_change,15,0,2,,,,,,,,,1,11,79,,,
61174,control_change,15,0,5,,,,,,,,,4,11,80,,,
61174,control_change,15,0,3,,,,,,,,,2,11,79,,,
61176,control_change,15,0,6,,,,,,,,,5,11,80,,,
61176,control_change,15,0,4,,,,,,,,,3,11,79,,,
61180,control_change,19,0,7,,,,,,,,,10,11,86,,,
61188,control_change,16,0,8,,,,,,,,,11,11,86,,,
61188,control_change,16,0,9,,,,,,,,,12,11,86,,,
61190,control_change,26,0,10,,,,,,,,,6,11,86,,,
61191,control_change,26,0,11,,,,,,,,,13,11,86,,,
61194,control_change,26,0,12,,,,,,,,,14,11,86,,,
61195,note_on,15,0,7,,,,,,,,,10,,,,79,0
61197,note_on,0,0,9,,,,,,,,,12,,,,51,0
61197,note_on,9,0,9,,,,,,,,,12,,,,48,0
61197,note_on,24,0,2,,,,,,,,,1,,,,79,0
61197,note_on,0,0,2,,,,,,,,,1,,,,84,0
61197,note_on,9,0,8,,,,,,,,,11,,,,67,0
61198,note_on,24,0,3,,,,,,,,,2,,,,75,0
61198,note_on,0,0,3,,,,,,,,,2,,,,72,0
61198,note_on,24,0,5,,,,,,,,,4,,,,63,0
61200,note_on,0,0,7,,,,,,,,,10,,,,77,103
61200,note_on,24,0,4,,,,,,,,,3,,,,46,0
61200,note_on,0,0,4,,,,,,,,,3,,,,58,0
61200,set_tempo,120,1,0,,,,,,1034483,,,,,,,,
61200,note_on,0,0,1,,,,,,,,,0,,,,84,96
61200,control_change,0,0,1,,,,,,,,,0,11,80,,,
61200,control_change,5,0,7,,,,,,,,,10,11,87,,,
61200,note_on,24,0,6,,,,,,,,,5,,,,60,0
61200,note_on,1440,0,1,,,,,,,,,0,,,,81,96
61202,note_on,0,0,9,,,,,,,,,12,,,,51,64
61202,note_on,5,0,9,,,,,,,,,12,,,,53,64
61202,control_change,5,0,2,,,,,,,,,1,11,80,,,
61202,note_on,5,0,8,,,,,,,,,11,,,,60,65
61202,note_on,0,0,2,,,,,,,,,1,,,,77,95
61202,note_on,0,0,2,,,,,,,,,1,,,,84,95
61203,note_on,0,0,3,,,,,,,,,2,,,,72,96
61203,note_on,0,0,3,,,,,,,,,2,,,,75,96
61203,note_on,0,0,5,,,,,,,,,4,,,,63,82
61203,control_change,5,0,3,,,,,,,,,2,11,80,,,
61203,control_change,5,0,5,,,,,,,,,4,11,82,,,
61204,note_on,14,0,10,,,,,,,,,6,,,,46,0
61204,note_on,0,0,10,,,,,,,,,6,,,,45,104
61205,note_on,5,0,6,,,,,,,,,5,,,,60,82
61205,control_change,0,0,6,,,,,,,,,5,11,82,,,
61205,note_on,0,0,4,,,,,,,,,3,,,,57,95
61205,control_change,0,0,4,,,,,,,,,3,11,80,,,
61205,note_on,14,0,11,,,,,,,,,13,,,,46,0
61205,note_on,0,0,11,,,,,,,,,13,,,,45,100
61205,note_on,5,0,4,,,,,,,,,3,,,,45,95
61208,note_on,0,0,12,,,,,,,,,14,,,,33,96
61208,note_on,14,0,12,,,,,,,,,14,,,,34,0
61232,note_on,30,0,8,,,,,,,,,11,,,,60,0
61232,note_on,0,0,8,,,,,,,,,11,,,,65,65
61232,note_on,0,0,9,,,,,,,,,12,,,,53,0
61232,note_on,0,0,9,,,,,,,,,12,,,,48,64
61232,note_on,0,0,9,,,,,,,,,12,,,,51,64
61232,note_on,30,0,9,,,,,,,,,12,,,,51,0
61260,set_tempo,60,1,0,,,,,,937500,,,,,,,,
61262,note_on,0,0,9,,,,,,,,,12,,,,48,0
61262,note_on,0,0,8,,,,,,,,,11,,,,60,65
61262,note_on,30,0,8,,,,,,,,,11,,,,65,0
61262,note_on,30,0,9,,,,,,,,,12,,,,51,0
61262,note_on,0,0,9,,,,,,,,,12,,,,53,64
61262,note_on,0,0,9,,,,,,,,,12,,,,51,64
61292,note_on,0,0,8,,,,,,,,,11,,,,65,65
61292,note_on,30,0,8,,,,,,,,,11,,,,60,0
61292,note_on,0,0,9,,,,,,,,,12,,,,51,64
61292,note_on,0,0,9,,,,,,,,,12,,,,48,64
61292,note_on,0,0,9,,,,,,,,,12,,,,51,0
61292,note_on,30,0,9,,,,,,,,,12,,,,53,0
61322,note_on,0,0,8,,,,,,,,,11,,,,60,65
61322,note_on,30,0,8,,,,,,,,,11,,,,65,0
61322,note_on,0,0,9,,,,,,,,,12,,,,48,0
61322,note_on,0,0,9,,,,,,,,,12,,,,53,64
61322,note_on,0,0,9,,,,,,,,,12,,,,51,64
61322,note_on,30,0,9,,,,,,,,,12,,,,51,0
61352,note_on,0,0,8,,,,,,,,,11,,,,65,65
61352,note_on,30,0,9,,,,,,,,,12,,,,51,0
61352,note_on,0,0,9,,,,,,,,,12,,,,53,0
61352,note_on,0,0,9,,,,,,,,,12,,,,48,64
61352,note_on,30,0,8,,,,,,,,,11,,,,60,0
61352,note_on,0,0,9,,,,,,,,,12,,,,51,64
61378,note_on,175,0,5,,,,,,,,,4,,,,63,0
61378,note_on,175,0,3,,,,,,,,,2,,,,72,0
61379,note_on,175,0,10,,,,,,,,,6,,,,45,0
61380,note_on,0,0,4,,,,,,,,,3,,,,45,0
61380,note_on,175,0,11,,,,,,,,,13,,,,45,0
61380,set_tempo,120,1,0,,,,,,1034483,,,,,,,,
61380,note_on,175,0,4,,,,,,,,,3,,,,57,0
61380,note_on,175,0,6,,,,,,,,,5,,,,60,0
61382,note_on,0,0,9,,,,,,,,,12,,,,48,0
61382,note_on,30,0,8,,,,,,,,,11,,,,65,0
61382,note_on,30,0,9,,,,,,,,,12,,,,51,0
61382,note_on,0,0,9,,,,,,,,,12,,,,53,64
61382,note_on,0,0,8,,,,,,,,,11,,,,60,65
61382,note_on,0,0,9,,,,,,,,,12,,,,51,64
61383,note_on,5,0,5,,,,,,,,,4,,,,60,82
61383,note_on,5,0,3,,,,,,,,,2,,,,69,96
61383,note_on,175,0,12,,,,,,,,,14,,,,33,0
61384,note_on,5,0,10,,,,,,,,,6,,,,41,104
61385,note_on,0,0,4,,,,,,,,,3,,,,41,95
61385,note_on,5,0,11,,,,,,,,,13,,,,41,100
61385,note_on,5,0,4,,,,,,,,,3,,,,53,95
61385,note_on,5,0,6,,,,,,,,,5,,,,53,82
61388,note_on,5,0,12,,,,,,,,,14,,,,29,96
61412,note_on,30,0,8,,,,,,,,,11,,,,60,0
61412,note_on,0,0,8,,,,,,,,,11,,,,65,65
61412,note_on,0,0,9,,,,,,,,,12,,,,48,64
61412,note_on,0,0,9,,,,,,,,,12,,,,51,64
61412,note_on,0,0,9,,,,,,,,,12,,,,53,0
61412,note_on,30,0,9,,,,,,,,,12,,,,51,0
61440,set_tempo,60,1,0,,,,,,937500,,,,,,,,
61442,note_on,30,0,8,,,,,,,,,11,,,,65,0
61442,note_on,0,0,8,,,,,,,,,11,,,,60,65
61442,note_on,0,0,9,,,,,,,,,12,,,,51,64
61442,note_on,0,0,9,,,,,,,,,12,,,,51,0
61442,note_on,30,0,9,,,,,,,,,12,,,,48,0
61442,note_on,0,0,9,,,,,,,,,12,,,,53,64
61472,note_on,30,0,8,,,,,,,,,11,,,,60,0
61472,note_on,0,0,9,,,,,,,,,12,,,,51,64
61472,note_on,0,0,9,,,,,,,,,12,,,,48,64
61472,note_on,0,0,9,,,,,,,,,12,,,,51,0
61472,note_on,30,0,9,,,,,,,,,12,,,,53,0
61472,note_on,0,0,8,,,,,,,,,11,,,,65,65
61502,note_on,0,0,9,,,,,,,,,12,,,,51,64
61502,note_on,0,0,9,,,,,,,,,12,,,,53,64
61502,note_on,0,0,9,,,,,,,,,12,,,,48,0
61502,note_on,30,0,9,,,,,,,,,12,,,,51,0
61502,note_on,0,0,8,,,,,,,,,11,,,,60,65
61502,note_on,30,0,8,,,,,,,,,11,,,,65,0
61532,note_on,0,0,8,,,,,,,,,11,,,,65,65
61532,note_on,30,0,8,,,,,,,,,11,,,,60,0
61532,note_on,30,0,9,,,,,,,,,12,,,,51,0
61532,note_on,0,0,9,,,,,,,,,12,,,,53,0
61532,note_on,0,0,9,,,,,,,,,12,,,,51,64
61532,note_on,0,0,9,,,,,,,,,12,,,,48,64
61555,note_on,355,0,1,,,,,,,,,0,,,,84,0
61555,note_on,0,0,1,,,,,,,,,0,,,,81,0
61557,note_on,25,0,8,,,,,,,,,11,,,,65,0
61557,note_on,355,0,2,,,,,,,,,1,,,,84,0
61557,note_on,25,0,9,,,,,,,,,12,,,,48,0
61557,note_on,0,0,9,,,,,,,,,12,,,,51,0
61558,note_on,175,0,3,,,,,,,,,2,,,,69,0
61558,note_on,0,0,3,,,,,,,,,2,,,,75,0
61558,note_on,175,0,5,,,,,,,,,4,,,,60,0
61559,note_on,175,0,10,,,,,,,,,6,,,,41,0
61560,note_on,0,0,4,,,,,,,,,3,,,,53,0
61560,note_on,0,0,1,,,,,,,,,0,,,,82,96
61560,note_on,5,0,1,,,,,,,,,0,,,,86,96
61560,set_tempo,120,1,0,,,,,,1034483,,,,,,,,
61560,note_on,175,0,11,,,,,,,,,13,,,,41,0
61560,note_on,175,0,4,,,,,,,,,3,,,,41,0
61560,note_on,175,0,6,,,,,,,,,5,,,,53,0
61562,note_on,5,0,2,,,,,,,,,1,,,,86,95
61562,note_on,5,0,8,,,,,,,,,11,,,,58,65
61562,note_on,5,0,9,,,,,,,,,12,,,,53,64
61563,note_on,175,0,12,,,,,,,,,14,,,,29,0
61563,note_on,5,0,3,,,,,,,,,2,,,,74,96
61563,note_on,0,0,3,,,,,,,,,2,,,,70,96
61563,note_on,5,0,5,,,,,,,,,4,,,,62,82
61564,control_change,5,0,10,,,,,,,,,6,11,102,,,
61564,note_on,0,0,10,,,,,,,,,6,,,,46,104
61565,note_on,0,0,11,,,,,,,,,13,,,,46,100
61565,control_change,5,0,11,,,,,,,,,13,11,102,,,
61565,note_on,5,0,6,,,,,,,,,5,,,,58,82
61565,note_on,5,0,4,,,,,,,,,3,,,,46,95
61565,note_on,0,0,4,,,,,,,,,3,,,,58,95
61568,control_change,5,0,12,,,,,,,,,14,11,102,,,
61568,note_on,0,0,12,,,,,,,,,14,,,,34,96
61576,control_change,12,0,10,,,,,,,,,6,11,99,,,
61577,control_change,12,0,11,,,,,,,,,13,11,99,,,
61580,control_change,12,0,12,,,,,,,,,14,11,99,,,
61588,control_change,12,0,10,,,,,,,,,6,11,96,,,
61589,control_change,12,0,11,,,,,,,,,13,11,96,,,
61592,note_on,0,0,9,,,,,,,,,12,,,,50,64
61592,control_change,12,0,12,,,,,,,,,14,11,96,,,
61592,note_on,30,0,9,,,,,,,,,12,,,,53,0
61592,note_on,30,0,8,,,,,,,,,11,,,,58,0
61592,note_on,0,0,8,,,,,,,,,11,,,,65,65
61600,control_change,12,0,10,,,,,,,,,6,11,93,,,
61601,control_change,12,0,11,,,,,,,,,13,11,93,,,
61604,control_change,12,0,12,,,,,,,,,14,11,93,,,
61612,control_change,12,0,10,,,,,,,,,6,11,90,,,
61613,control_change,12,0,11,,,,,,,,,13,11,90,,,
61616,control_change,12,0,12,,,,,,,,,14,11,90,,,
61620,set_tempo,60,1,0,,,,,,937500,,,,,,,,
61622,note_on,0,0,8,,,,,,,,,11,,,,58,65
61622,note_on,30,0,8,,,,,,,,,11,,,,65,0
61622,note_on,0,0,9,,,,,,,,,12,,,,55,64
61622,note_on,30,0,9,,,,,,,,,12,,,,50,0
61624,control_change,12,0,10,,,,,,,,,6,11,87,,,
61625,control_change,12,0,11,,,,,,,,,13,11,87,,,
61628,control_change,12,0,12,,,,,,,,,14,11,87,,,
61652,note_on,0,0,9,,,,,,,,,12,,,,50,64
61652,note_on,30,0,9,,,,,,,,,12,,,,55,0
61652,note_on,30,0,8,,,,,,,,,11,,,,58,0
61652,note_on,0,0,8,,,,,,,,,11,,,,67,65
61682,note_on,30,0,9,,,,,,,,,12,,,,50,0
61682,note_on,0,0,8,,,,,,,,,11,,,,58,65
61682,note_on,0,0,9,,,,,,,,,12,,,,55,64
61682,note_on,30,0,8,,,,,,,,,11,,,,67,0
61712,note_on,0,0,8,,,,,,,,,11,,,,67,65
61712,note_on,0,0,9,,,,,,,,,12,,,,50,64
61712,note_on,30,0,9,,,,,,,,,12,,,,55,0
61712,note_on,30,0,8,,,,,,,,,11,,,,58,0
61735,note_on,175,0,1,,,,,,,,,0,,,,86,0
61735,note_on,535,0,7,,,,,,,,,10,,,,77,0
61737,note_on,0,0,2,,,,,,,,,1,,,,77,0
61737,note_on,175,0,2,,,,,,,,,1,,,,86,0
61737,note_on,25,0,9,,,,,,,,,12,,,,50,0
61737,note_on,25,0,8,,,,,,,,,11,,,,67,0
61738,note_on,175,0,5,,,,,,,,,4,,,,62,0
61738,note_on,0,0,3,,,,,,,,,2,,,,74,0
61738,note_on,175,0,3,,,,,,,,,2,,,,70,0
61739,note_on,115,0,10,,,,,,,,,6,,,,46,0
61740,note_on,115,0,11,,,,,,,,,13,,,,46,0
61740,note_on,5,0,7,,,,,,,,,10,,,,76,103
61740,set_tempo,120,1,0,,,,,,1034483,,,,,,,,
61740,note_on,175,0,6,,,,,,,,,5,,,,58,0
61740,note_on,0,0,4,,,,,,,,,3,,,,46,0
61740,note_on,175,0,4,,,,,,,,,3,,,,58,0
61740,note_on,5,0,1,,,,,,,,,0,,,,84,96
61742,note_on,5,0,2,,,,,,,,,1,,,,76,95
61742,note_on,0,0,2,,,,,,,,,1,,,,79,95
61742,note_on,5,0,8,,,,,,,,,11,,,,67,65
61742,note_on,0,0,9,,,,,,,,,12,,,,58,64
61742,note_on,5,0,9,,,,,,,,,12,,,,55,64
61743,note_on,115,0,12,,,,,,,,,14,,,,34,0
61743,note_on,0,0,3,,,,,,,,,2,,,,76,96
61743,note_on,5,0,3,,,,,,,,,2,,,,67,96
61743,note_on,5,0,5,,,,,,,,,4,,,,60,82
61744,control_change,5,0,10,,,,,,,,,6,11,102,,,
61744,note_on,0,0,10,,,,,,,,,6,,,,48,104
61745,control_change,5,0,11,,,,,,,,,13,11,102,,,
61745,note_on,5,0,4,,,,,,,,,3,,,,60,95
61745,note_on,0,0,4,,,,,,,,,3,,,,48,95
61745,note_on,5,0,6,,,,,,,,,5,,,,60,82
61745,note_on,0,0,11,,,,,,,,,13,,,,48,100
61748,control_change,5,0,12,,,,,,,,,14,11,102,,,
61748,note_on,0,0,12,,,,,,,,,14,,,,36,96
61756,control_change,12,0,10,,,,,,,,,6,11,99,,,
61757,control_change,12,0,11,,,,,,,,,13,11,99,,,
61760,control_change,12,0,12,,,,,,,,,14,11,99,,,
61768,control_change,12,0,10,,,,,,,,,6,11,96,,,
61769,control_change,12,0,11,,,,,,,,,13,11,96,,,
61772,note_on,0,0,9,,,,,,,,,12,,,,55,0
61772,control_change,12,0,12,,,,,,,,,14,11,96,,,
61772,note_on,30,0,8,,,,,,,,,11,,,,67,0
61772,note_on,0,0,8,,,,,,,,,11,,,,70,65
61772,note_on,0,0,9,,,,,,,,,12,,,,55,64
61772,note_on,30,0,9,,,,,,,,,12,,,,58,0
61772,note_on,0,0,9,,,,,,,,,12,,,,48,64
61780,control_change,12,0,10,,,,,,,,,6,11,93,,,
61781,control_change,12,0,11,,,,,,,,,13,11,93,,,
61784,control_change,12,0,12,,,,,,,,,14,11,93,,,
61792,control_change,12,0,10,,,,,,,,,6,11,90,,,
61793,control_change,12,0,11,,,,,,,,,13,11,90,,,
61796,control_change,12,0,12,,,,,,,,,14,11,90,,,
61800,set_tempo,60,1,0,,,,,,937500,,,,,,,,
61802,note_on,30,0,9,,,,,,,,,12,,,,48,0
61802,note_on,0,0,9,,,,,,,,,12,,,,55,64
61802,note_on,0,0,9,,,,,,,,,12,,,,55,0
61802,note_on,0,0,8,,,,,,,,,11,,,,67,65
61802,note_on,0,0,9,,,,,,,,,12,,,,58,64
61802,note_on,30,0,8,,,,,,,,,11,,,,70,0
61804,control_change,12,0,10,,,,,,,,,6,11,87,,,
61805,control_change,12,0,11,,,,,,,,,13,11,87,,,
61808,control_change,12,0,12,,,,,,,,,14,11,87,,,
61832,note_on,0,0,9,,,,,,,,,12,,,,58,0
61832,note_on,0,0,9,,,,,,,,,12,,,,55,64
61832,note_on,0,0,9,,,,,,,,,12,,,,48,64
61832,note_on,30,0,8,,,,,,,,,11,,,,67,0
61832,note_on,30,0,9,,,,,,,,,12,,,,55,0
61832,note_on,0,0,8,,,,,,,,,11,,,,70,65
61862,note_on,30,0,9,,,,,,,,,12,,,,48,0
61862,note_on,0,0,8,,,,,,,,,11,,,,67,65
61862,note_on,30,0,8,,,,,,,,,11,,,,70,0
61862,note_on,0,0,9,,,,,,,,,12,,,,55,64
61862,note_on,0,0,9,,,,,,,,,12,,,,58,64
61862,note_on,0,0,9,,,,,,,,,12,,,,55,0
61892,note_on,0,0,9,,,,,,,,,12,,,,55,64
61892,note_on,0,0,9,,,,,,,,,12,,,,48,64
61892,note_on,0,0,9,,,,,,,,,12,,,,58,0
61892,note_on,30,0,9,,,,,,,,,12,,,,55,0
61892,note_on,0,0,8,,,,,,,,,11,,,,70,65
61892,note_on,30,0,8,,,,,,,,,11,,,,67,0
61915,note_on,175,0,7,,,,,,,,,10,,,,76,0
61915,note_on,0,0,1,,,,,,,,,0,,,,82,0
61915,note_on,175,0,1,,,,,,,,,0,,,,84,0
61917,note_on,25,0,8,,,,,,,,,11,,,,70,0
61917,note_on,25,0,9,,,,,,,,,12,,,,55,0
61917,note_on,0,0,9,,,,,,,,,12,,,,48,0
61917,note_on,0,0,2,,,,,,,,,1,,,,76,0
61917,note_on,175,0,2,,,,,,,,,1,,,,79,0
61918,note_on,0,0,3,,,,,,,,,2,,,,67,0
61918,note_on,175,0,3,,,,,,,,,2,,,,76,0
61918,note_on,175,0,5,,,,,,,,,4,,,,60,0
61919,note_on,115,0,10,,,,,,,,,6,,,,48,0
61920,note_on,175,0,6,,,,,,,,,5,,,,60,0
61920,note_on,5,0,7,,,,,,,,,10,,,,75,103
61920,set_tempo,120,1,0,,,,,,1034483,,,,,,,,
61920,note_on,115,0,11,,,,,,,,,13,,,,48,0
61920,note_on,0,0,1,,,,,,,,,0,,,,84,96
61920,control_change,0,0,1,,,,,,,,,0,11,80,,,
61920,note_on,5,0,1,,,,,,,,,0,,,,81,96
61920,note_on,0,0,4,,,,,,,,,3,,,,60,0
61920,note_on,175,0,4,,,,,,,,,3,,,,48,0
61922,control_change,5,0,2,,,,,,,,,1,11,80,,,
61922,note_on,0,0,2,,,,,,,,,1,,,,75,95
61922,note_on,0,0,9,,,,,,,,,12,,,,57,72
61922,control_change,5,0,9,,,,,,,,,12,11,87,,,
61922,note_on,0,0,2,,,,,,,,,1,,,,81,95
61922,note_on,0,0,8,,,,,,,,,11,,,,69,74
61922,control_change,5,0,8,,,,,,,,,11,11,87,,,
61923,note_on,0,0,3,,,,,,,,,2,,,,72,96
61923,note_on,0,0,5,,,,,,,,,4,,,,60,82
61923,control_change,5,0,3,,,,,,,,,2,11,80,,,
61923,note_on,0,0,3,,,,,,,,,2,,,,75,96
61923,control_change,5,0,5,,,,,,,,,4,11,82,,,
61923,note_on,115,0,12,,,,,,,,,14,,,,36,0
61924,control_change,5,0,10,,,,,,,,,6,11,87,,,
61924,note_on,0,0,10,,,,,,,,,6,,,,41,104
61925,note_on,0,0,6,,,,,,,,,5,,,,53,82
61925,control_change,5,0,6,,,,,,,,,5,11,82,,,
61925,note_on,5,0,4,,,,,,,,,3,,,,41,95
61925,control_change,0,0,4,,,,,,,,,3,11,80,,,
61925,note_on,0,0,4,,,,,,,,,3,,,,53,95
61925,note_on,5,0,11,,,,,,,,,13,,,,41,100
61928,note_on,5,0,12,,,,,,,,,14,,,,29,96
61938,control_change,16,0,8,,,,,,,,,11,11,86,,,
61938,control_change,16,0,9,,,,,,,,,12,11,86,,,
61940,control_change,16,0,10,,,,,,,,,6,11,86,,,
61952,note_on,14,0,9,,,,,,,,,12,,,,57,0
61952,note_on,0,0,9,,,,,,,,,12,,,,60,72
61952,note_on,14,0,8,,,,,,,,,11,,,,69,0
61952,note_on,0,0,8,,,,,,,,,11,,,,72,74
61954,control_change,2,0,9,,,,,,,,,12,11,85,,,
61954,control_change,2,0,8,,,,,,,,,11,11,85,,,
61956,control_change,16,0,10,,,,,,,,,6,11,85,,,
61956,control_change,36,0,1,,,,,,,,,0,11,80,,,
61958,control_change,36,0,2,,,,,,,,,1,11,80,,,
61959,control_change,36,0,5,,,,,,,,,4,11,81,,,
61959,control_change,36,0,3,,,,,,,,,2,11,80,,,
61961,control_change,36,0,4,,,,,,,,,3,11,80,,,
61961,control_change,36,0,6,,,,,,,,,5,11,81,,,
61970,control_change,16,0,8,,,,,,,,,11,11,84,,,
61970,control_change,16,0,9,,,,,,,,,12,11,84,,,
61972,control_change,16,0,10,,,,,,,,,6,11,84,,,
61979,note_on,7,0,10,,,,,,,,,6,,,,41,0
61980,set_tempo,60,1,0,,,,,,937500,,,,,,,,
61982,note_on,12,0,9,,,,,,,,,12,,,,60,0
61982,note_on,12,0,8,,,,,,,,,11,,,,72,0
61982,note_on,0,0,9,,,,,,,,,12,,,,60,72
61982,note_on,0,0,8,,,,,,,,,11,,,,75,74
61984,note_on,5,0,10,,,,,,,,,6,,,,60,62
61986,control_change,4,0,9,,,,,,,,,12,11,83,,,
61986,control_change,4,0,8,,,,,,,,,11,11,83,,,
61988,control_change,4,0,10,,,,,,,,,6,11,83,,,
61992,control_change,36,0,1,,,,,,,,,0,11,79,,,
61994,control_change,36,0,2,,,,,,,,,1,11,79,,,
61995,control_change,36,0,3,,,,,,,,,2,11,79,,,
61995,control_change,36,0,5,,,,,,,,,4,11,80,,,
61997,control_change,36,0,4,,,,,,,,,3,11,79,,,
61997,control_change,36,0,6,,,,,,,,,5,11,80,,,
62002,control_change,16,0,8,,,,,,,,,11,11,82,,,
62002,control_change,16,0,9,,,,,,,,,12,11,82,,,
62004,control_change,16,0,10,,,,,,,,,6,11,82,,,
62012,note_on,10,0,8,,,,,,,,,11,,,,75,0
62012,note_on,0,0,8,,,,,,,,,11,,,,72,74
62012,note_on,10,0,9,,,,,,,,,12,,,,60,0
62012,note_on,0,0,9,,,,,,,,,12,,,,63,72
62014,note_on,10,0,10,,,,,,,,,6,,,,60,0
62014,note_on,0,0,10,,,,,,,,,6,,,,63,62
62018,control_change,6,0,9,,,,,,,,,12,11,81,,,
62018,control_change,6,0,8,,,,,,,,,11,11,81,,,
62020,control_change,6,0,10,,,,,,,,,6,11,81,,,
62028,control_change,36,0,1,,,,,,,,,0,11,78,,,
62030,control_change,36,0,2,,,,,,,,,1,11,78,,,
62031,control_change,36,0,5,,,,,,,,,4,11,79,,,
62031,control_change,36,0,3,,,,,,,,,2,11,78,,,
62033,control_change,36,0,4,,,,,,,,,3,11,78,,,
62033,control_change,36,0,6,,,,,,,,,5,11,79,,,
62034,control_change,16,0,8,,,,,,,,,11,11,80,,,
62034,control_change,16,0,9,,,,,,,,,12,11,80,,,
62036,control_change,16,0,10,,,,,,,,,6,11,80,,,
62040,note_on,12,0,1,,,,,,,,,0,,,,84,0
62040,note_on,0,0,1,,,,,,,,,0,,,,81,0
62040,control_change,120,0,7,,,,,,,,,10,11,87,,,
62042,note_on,12,0,2,,,,,,,,,1,,,,75,0
62042,note_on,0,0,2,,,,,,,,,1,,,,81,0
62042,note_on,8,0,8,,,,,,,,,11,,,,72,0
62042,note_on,0,0,9,,,,,,,,,12,,,,60,72
62042,note_on,0,0,8,,,,,,,,,11,,,,75,74
62042,note_on,8,0,9,,,,,,,,,12,,,,63,0
62044,note_on,0,0,10,,,,,,,,,6,,,,60,62
62044,note_on,8,0,10,,,,,,,,,6,,,,63,0
62045,note_on,0,0,4,,,,,,,,,3,,,,41,0
62045,note_on,12,0,4,,,,,,,,,3,,,,53,0
62045,note_on,120,0,11,,,,,,,,,13,,,,41,0
62048,control_change,8,0,7,,,,,,,,,10,11,84,,,
62048,note_on,120,0,12,,,,,,,,,14,,,,29,0
62050,control_change,8,0,9,,,,,,,,,12,11,79,,,
62050,control_change,8,0,8,,,,,,,,,11,11,79,,,
62052,control_change,8,0,10,,,,,,,,,6,11,79,,,
62057,control_change,9,0,7,,,,,,,,,10,11,81,,,
62064,control_change,24,0,1,,,,,,,,,0,11,77,,,
62066,control_change,16,0,9,,,,,,,,,12,11,78,,,
62066,control_change,9,0,7,,,,,,,,,10,11,78,,,
62066,control_change,24,0,2,,,,,,,,,1,11,77,,,
62066,control_change,16,0,8,,,,,,,,,11,11,78,,,
62067,control_change,36,0,3,,,,,,,,,2,11,77,,,
62067,control_change,36,0,5,,,,,,,,,4,11,78,,,
62068,control_change,16,0,10,,,,,,,,,6,11,78,,,
62069,control_change,36,0,6,,,,,,,,,5,11,78,,,
62072,note_on,6,0,8,,,,,,,,,11,,,,75,0
62072,note_on,0,0,8,,,,,,,,,11,,,,72,74
62072,note_on,6,0,9,,,,,,,,,12,,,,60,0
62072,note_on,0,0,9,,,,,,,,,12,,,,63,72
62074,note_on,6,0,10,,,,,,,,,6,,,,60,0
62074,note_on,0,0,10,,,,,,,,,6,,,,63,62
62075,control_change,9,0,7,,,,,,,,,10,11,75,,,
62082,control_change,10,0,9,,,,,,,,,12,11,77,,,
62082,control_change,10,0,8,,,,,,,,,11,11,77,,,
62084,control_change,9,0,7,,,,,,,,,10,11,72,,,
62084,control_change,10,0,10,,,,,,,,,6,11,77,,,
62093,control_change,9,0,7,,,,,,,,,10,11,69,,,
62098,control_change,16,0,9,,,,,,,,,12,11,76,,,
62098,control_change,16,0,8,,,,,,,,,11,11,76,,,
62100,set_tempo,120,1,0,,,,,,1034483,,,,,,,,
62100,note_on,7,0,7,,,,,,,,,10,,,,75,0
62100,control_change,16,0,10,,,,,,,,,6,11,76,,,
62100,control_change,36,0,1,,,,,,,,,0,11,76,,,
62102,note_on,0,0,9,,,,,,,,,12,,,,60,72
62102,control_change,36,0,2,,,,,,,,,1,11,76,,,
62102,note_on,4,0,9,,,,,,,,,12,,,,63,0
62102,note_on,0,0,8,,,,,,,,,11,,,,75,74
62102,note_on,4,0,8,,,,,,,,,11,,,,72,0
62103,control_change,36,0,3,,,,,,,,,2,11,76,,,
62103,control_change,36,0,5,,,,,,,,,4,11,77,,,
62104,note_on,0,0,10,,,,,,,,,6,,,,60,62
62104,note_on,4,0,10,,,,,,,,,6,,,,63,0
62105,control_change,36,0,6,,,,,,,,,5,11,77,,,
62114,control_change,12,0,9,,,,,,,,,12,11,75,,,
62114,control_change,12,0,8,,,,,,,,,11,11,75,,,
62116,control_change,12,0,10,,,,,,,,,6,11,75,,,
62130,control_change,16,0,9,,,,,,,,,12,11,74,,,
62130,control_change,16,0,8,,,,,,,,,11,11,74,,,
62132,note_on,2,0,8,,,,,,,,,11,,,,75,0
62132,control_change,16,0,10,,,,,,,,,6,11,74,,,
62132,note_on,2,0,9,,,,,,,,,12,,,,60,0
62132,note_on,0,0,8,,,,,,,,,11,,,,72,74
62132,note_on,0,0,9,,,,,,,,,12,,,,63,72
62134,note_on,2,0,10,,,,,,,,,6,,,,60,0
62134,note_on,0,0,10,,,,,,,,,6,,,,63,62
62136,control_change,36,0,1,,,,,,,,,0,11,76,,,
62138,control_change,36,0,2,,,,,,,,,1,11,76,,,
62139,control_change,36,0,5,,,,,,,,,4,11,76,,,
62139,control_change,36,0,3,,,,,,,,,2,11,76,,,
62141,control_change,36,0,6,,,,,,,,,5,11,76,,,
62146,control_change,14,0,9,,,,,,,,,12,11,73,,,
62146,control_change,14,0,8,,,,,,,,,11,11,73,,,
62148,control_change,14,0,10,,,,,,,,,6,11,73,,,
62160,control_change,60,0,7,,,,,,,,,10,11,87,,,
62160,set_tempo,60,1,0,,,,,,937500,,,,,,,,
62160,note_on,0,0,7,,,,,,,,,10,,,,65,83
62162,note_on,16,0,8,,,,,,,,,11,,,,72,0
62162,control_change,0,0,9,,,,,,,,,12,11,72,,,
62162,note_on,16,0,9,,,,,,,,,12,,,,63,0
62162,note_on,0,0,9,,,,,,,,,12,,,,62,72
62162,control_change,0,0,8,,,,,,,,,11,11,72,,,
62162,note_on,0,0,8,,,,,,,,,11,,,,77,74
62163,note_on,24,0,3,,,,,,,,,2,,,,72,0
62163,note_on,0,0,3,,,,,,,,,2,,,,75,0
62163,note_on,0,0,3,,,,,,,,,2,,,,77,96
62163,note_on,0,0,3,,,,,,,,,2,,,,74,96
62164,control_change,0,0,10,,,,,,,,,6,11,72,,,
62164,note_on,16,0,10,,,,,,,,,6,,,,63,0
62164,note_on,0,0,10,,,,,,,,,6,,,,62,62
62172,control_change,36,0,1,,,,,,,,,0,11,75,,,
62174,control_change,36,0,2,,,,,,,,,1,11,75,,,
62175,control_change,12,0,3,,,,,,,,,2,11,75,,,
62175,control_change,36,0,5,,,,,,,,,4,11,75,,,
62177,control_change,36,0,6,,,,,,,,,5,11,75,,,
62178,control_change,16,0,8,,,,,,,,,11,11,71,,,
62178,control_change,16,0,9,,,,,,,,,12,11,71,,,
62180,control_change,16,0,10,,,,,,,,,6,11,71,,,
62184,control_change,24,0,7,,,,,,,,,10,11,81,,,
62192,note_on,0,0,9,,,,,,,,,12,,,,65,72
62192,note_on,14,0,9,,,,,,,,,12,,,,62,0
62192,note_on,0,0,8,,,,,,,,,11,,,,74,74
62192,note_on,14,0,8,,,,,,,,,11,,,,77,0
62194,control_change,2,0,8,,,,,,,,,11,11,70,,,
62194,note_on,14,0,10,,,,,,,,,6,,,,62,0
62194,control_change,2,0,9,,,,,,,,,12,11,70,,,
62194,note_on,0,0,10,,,,,,,,,6,,,,65,62
62196,control_change,2,0,10,,,,,,,,,6,11,70,,,
62208,control_change,36,0,1,,,,,,,,,0,11,74,,,
62208,control_change,24,0,7,,,,,,,,,10,11,82,,,
62210,control_change,16,0,8,,,,,,,,,11,11,69,,,
62210,control_change,36,0,2,,,,,,,,,1,11,74,,,
62210,control_change,16,0,9,,,,,,,,,12,11,69,,,
62211,control_change,36,0,3,,,,,,,,,2,11,74,,,
62211,control_change,36,0,5,,,,,,,,,4,11,74,,,
62212,control_change,16,0,10,,,,,,,,,6,11,69,,,
62212,note_on,4,0,7,,,,,,,,,10,,,,65,0
62213,control_change,36,0,6,,,,,,,,,5,11,74,,,
62220,note_on,8,0,7,,,,,,,,,10,,,,67,95
62222,note_on,0,0,8,,,,,,,,,11,,,,75,74
62222,note_on,0,0,9,,,,,,,,,12,,,,60,72
62222,note_on,12,0,9,,,,,,,,,12,,,,65,0
62222,note_on,12,0,8,,,,,,,,,11,,,,74,0
62223,note_on,0,0,3,,,,,,,,,2,,,,75,96
62223,note_on,12,0,3,,,,,,,,,2,,,,74,0
62223,note_on,0,0,3,,,,,,,,,2,,,,77,0
62223,note_on,0,0,3,,,,,,,,,2,,,,72,96
62224,note_on,12,0,10,,,,,,,,,6,,,,65,0
62224,note_on,0,0,10,,,,,,,,,6,,,,60,62
62226,control_change,4,0,9,,,,,,,,,12,11,68,,,
62226,control_change,4,0,8,,,,,,,,,11,11,68,,,
62228,control_change,4,0,10,,,,,,,,,6,11,68,,,
62230,note_on,10,0,7,,,,,,,,,10,,,,67,0
62230,note_on,0,0,7,,,,,,,,,10,,,,65,95
62232,control_change,2,0,7,,,,,,,,,10,11,83,,,
62240,note_on,8,0,7,,,,,,,,,10,,,,65,0
62240,note_on,0,0,7,,,,,,,,,10,,,,67,95
62242,control_change,16,0,8,,,,,,,,,11,11,67,,,
62242,control_change,16,0,9,,,,,,,,,12,11,67,,,
62244,control_change,16,0,10,,,,,,,,,6,11,67,,,
62244,control_change,36,0,1,,,,,,,,,0,11,73,,,
62246,control_change,36,0,2,,,,,,,,,1,11,73,,,
62247,control_change,24,0,3,,,,,,,,,2,11,73,,,
62247,control_change,36,0,5,,,,,,,,,4,11,73,,,
62249,control_change,36,0,6,,,,,,,,,5,11,73,,,
62250,note_on,0,0,7,,,,,,,,,10,,,,65,95
62250,note_on,10,0,7,,,,,,,,,10,,,,67,0
62252,note_on,0,0,9,,,,,,,,,12,,,,63,72
62252,note_on,10,0,9,,,,,,,,,12,,,,60,0
62252,note_on,0,0,8,,,,,,,,,11,,,,72,74
62252,note_on,10,0,8,,,,,,,,,11,,,,75,0
62254,note_on,10,0,10,,,,,,,,,6,,,,60,0
62254,note_on,0,0,10,,,,,,,,,6,,,,63,62
62256,control_change,6,0,7,,,,,,,,,10,11,84,,,
62258,control_change,6,0,8,,,,,,,,,11,11,66,,,
62258,control_change,6,0,9,,,,,,,,,12,11,66,,,
62260,control_change,6,0,10,,,,,,,,,6,11,66,,,
62260,note_on,0,0,7,,,,,,,,,10,,,,64,95
62260,note_on,4,0,7,,,,,,,,,10,,,,65,0
62270,note_on,0,0,7,,,,,,,,,10,,,,65,95
62270,note_on,10,0,7,,,,,,,,,10,,,,64,0
62274,control_change,16,0,8,,,,,,,,,11,11,65,,,
62274,control_change,16,0,9,,,,,,,,,12,11,65,,,
62276,control_change,16,0,10,,,,,,,,,6,11,65,,,
62278,note_on,31,0,5,,,,,,,,,4,,,,60,0
62278,note_on,0,0,3,,,,,,,,,2,,,,72,0
62278,note_on,31,0,3,,,,,,,,,2,,,,75,0
62280,control_change,0,0,7,,,,,,,,,10,11,85,,,
62280,note_on,0,0,1,,,,,,,,,0,,,,86,96
62280,control_change,36,0,1,,,,,,,,,0,11,72,,,
62280,note_on,10,0,7,,,,,,,,,10,,,,65,0
62280,note_on,31,0,6,,,,,,,,,5,,,,53,0
62280,note_on,0,0,7,,,,,,,,,10,,,,77,81
62280,set_tempo,120,1,0,,,,,,1034483,,,,,,,,
62282,note_on,0,0,2,,,,,,,,,1,,,,82,95
62282,note_on,8,0,9,,,,,,,,,12,,,,63,0
62282,note_on,0,0,9,,,,,,,,,12,,,,58,72
62282,control_change,36,0,2,,,,,,,,,1,11,72,,,
62282,note_on,0,0,8,,,,,,,,,11,,,,74,74
62282,note_on,8,0,8,,,,,,,,,11,,,,72,0
62283,note_on,0,0,3,,,,,,,,,2,,,,74,96
62283,note_on,5,0,3,,,,,,,,,2,,,,70,96
62283,note_on,0,0,5,,,,,,,,,4,,,,53,82
62283,control_change,0,0,3,,,,,,,,,2,11,72,,,
62283,control_change,5,0,5,,,,,,,,,4,11,72,,,
62284,note_on,8,0,10,,,,,,,,,6,,,,63,0
62284,note_on,0,0,10,,,,,,,,,6,,,,58,62
62285,control_change,5,0,6,,,,,,,,,5,11,72,,,
62285,note_on,0,0,6,,,,,,,,,5,,,,41,82
62290,control_change,8,0,8,,,,,,,,,11,11,64,,,
62290,control_change,8,0,9,,,,,,,,,12,11,64,,,
62292,control_change,8,0,10,,,,,,,,,6,11,64,,,
62306,control_change,16,0,9,,,,,,,,,12,11,63,,,
62306,control_change,16,0,8,,,,,,,,,11,11,63,,,
62308,control_change,16,0,10,,,,,,,,,6,11,63,,,
62312,note_on,6,0,9,,,,,,,,,12,,,,58,0
62312,note_on,0,0,9,,,,,,,,,12,,,,62,72
62312,note_on,6,0,8,,,,,,,,,11,,,,74,0
62312,note_on,0,0,8,,,,,,,,,11,,,,70,74
62314,note_on,0,0,10,,,,,,,,,6,,,,62,62
62314,note_on,6,0,10,,,,,,,,,6,,,,58,0
62316,control_change,36,0,1,,,,,,,,,0,11,71,,,
62318,control_change,36,0,2,,,,,,,,,1,11,71,,,
62319,control_change,36,0,5,,,,,,,,,4,11,71,,,
62319,control_change,36,0,3,,,,,,,,,2,11,71,,,
62321,control_change,36,0,6,,,,,,,,,5,11,71,,,
62322,control_change,10,0,8,,,,,,,,,11,11,62,,,
62322,control_change,10,0,9,,,,,,,,,12,11,62,,,
62324,control_change,10,0,10,,,,,,,,,6,11,62,,,
62338,control_change,16,0,9,,,,,,,,,12,11,61,,,
62338,control_change,16,0,8,,,,,,,,,11,11,61,,,
62340,control_change,16,0,10,,,,,,,,,6,11,61,,,
62340,set_tempo,60,1,0,,,,,,937500,,,,,,,,
62340,control_change,60,0,7,,,,,,,,,10,11,85,,,
62342,note_on,0,0,9,,,,,,,,,12,,,,58,72
62342,note_on,4,0,8,,,,,,,,,11,,,,70,0
62342,note_on,0,0,8,,,,,,,,,11,,,,74,74
62342,note_on,4,0,9,,,,,,,,,12,,,,62,0
62344,note_on,4,0,10,,,,,,,,,6,,,,62,0
62344,note_on,0,0,10,,,,,,,,,6,,,,58,62
62348,control_change,8,0,7,,,,,,,,,10,11,82,,,
62352,control_change,36,0,1,,,,,,,,,0,11,70,,,
62354,control_change,12,0,9,,,,,,,,,12,11,60,,,
62354,control_change,12,0,8,,,,,,,,,11,11,60,,,
62354,control_change,36,0,2,,,,,,,,,1,11,70,,,
62355,control_change,36,0,3,,,,,,,,,2,11,70,,,
62355,control_change,36,0,5,,,,,,,,,4,11,70,,,
62356,control_change,12,0,10,,,,,,,,,6,11,60,,,
62357,control_change,36,0,6,,,,,,,,,5,11,70,,,
62357,control_change,9,0,7,,,,,,,,,10,11,79,,,
62366,control_change,9,0,7,,,,,,,,,10,11,76,,,
62370,control_change,16,0,8,,,,,,,,,11,11,59,,,
62370,control_change,16,0,9,,,,,,,,,12,11,59,,,
62372,control_change,16,0,10,,,,,,,,,6,11,59,,,
62372,note_on,2,0,9,,,,,,,,,12,,,,58,0
62372,note_on,2,0,8,,,,,,,,,11,,,,74,0
62372,note_on,0,0,8,,,,,,,,,11,,,,70,74
62372,note_on,0,0,9,,,,,,,,,12,,,,62,72
62374,note_on,0,0,10,,,,,,,,,6,,,,62,62
62374,note_on,2,0,10,,,,,,,,,6,,,,58,0
62375,control_change,9,0,7,,,,,,,,,10,11,73,,,
62384,control_change,9,0,7,,,,,,,,,10,11,70,,,
62386,control_change,14,0,9,,,,,,,,,12,11,58,,,
62386,control_change,14,0,8,,,,,,,,,11,11,58,,,
62388,control_change,36,0,1,,,,,,,,,0,11,70,,,
62388,control_change,14,0,10,,,,,,,,,6,11,58,,,
62390,control_change,36,0,2,,,,,,,,,1,11,70,,,
62391,control_change,36,0,5,,,,,,,,,4,11,69,,,
62391,control_change,36,0,3,,,,,,,,,2,11,70,,,
62393,control_change,9,0,7,,,,,,,,,10,11,67,,,
62393,control_change,36,0,6,,,,,,,,,5,11,69,,,
62400,note_on,7,0,7,,,,,,,,,10,,,,77,0
62400,note_on,12,0,1,,,,,,,,,0,,,,86,0
62402,control_change,0,0,9,,,,,,,,,12,11,57,,,
62402,note_on,0,0,8,,,,,,,,,11,,,,74,74
62402,control_change,0,0,8,,,,,,,,,11,11,57,,,
62402,note_on,0,0,9,,,,,,,,,12,,,,58,72
62402,note_on,16,0,8,,,,,,,,,11,,,,70,0
62402,note_on,16,0,9,,,,,,,,,12,,,,62,0
62402,note_on,12,0,2,,,,,,,,,1,,,,82,0
62404,note_on,0,0,10,,,,,,,,,6,,,,58,62
62404,note_on,16,0,10,,,,,,,,,6,,,,62,0
62404,control_change,0,0,10,,,,,,,,,6,11,57,,,
62418,control_change,16,0,9,,,,,,,,,12,11,56,,,
62418,control_change,16,0,8,,,,,,,,,11,11,56,,,
62420,control_change,16,0,10,,,,,,,,,6,11,56,,,
62424,control_change,24,0,1,,,,,,,,,0,11,69,,,
62426,control_change,24,0,2,,,,,,,,,1,11,69,,,
62427,control_change,36,0,3,,,,,,,,,2,11,69,,,
62427,control_change,36,0,5,,,,,,,,,4,11,68,,,
62429,control_change,36,0,6,,,,,,,,,5,11,68,,,
62432,note_on,14,0,9,,,,,,,,,12,,,,58,0
62432,note_on,0,0,9,,,,,,,,,12,,,,62,72
62432,note_on,14,0,8,,,,,,,,,11,,,,74,0
62432,note_on,0,0,8,,,,,,,,,11,,,,70,74
62434,note_on,14,0,10,,,,,,,,,6,,,,58,0
62434,control_change,2,0,9,,,,,,,,,12,11,55,,,
62434,control_change,2,0,8,,,,,,,,,11,11,55,,,
62434,note_on,0,0,10,,,,,,,,,6,,,,62,62
62436,control_change,2,0,10,,,,,,,,,6,11,55,,,
62450,control_change,16,0,8,,,,,,,,,11,11,54,,,
62450,control_change,16,0,9,,,,,,,,,12,11,54,,,
62452,control_change,16,0,10,,,,,,,,,6,11,54,,,
62460,set_tempo,120,1,0,,,,,,1034483,,,,,,,,
62460,control_change,36,0,1,,,,,,,,,0,11,68,,,
62462,note_on,12,0,9,,,,,,,,,12,,,,62,0
62462,note_on,0,0,9,,,,,,,,,12,,,,58,72
62462,note_on,0,0,8,,,,,,,,,11,,,,74,74
62462,note_on,12,0,8,,,,,,,,,11,,,,70,0
62462,control_change,36,0,2,,,,,,,,,1,11,68,,,
62463,control_change,36,0,3,,,,,,,,,2,11,68,,,
62463,control_change,36,0,5,,,,,,,,,4,11,67,,,
62464,note_on,12,0,10,,,,,,,,,6,,,,62,0
62464,note_on,0,0,10,,,,,,,,,6,,,,58,62
62465,control_change,36,0,6,,,,,,,,,5,11,67,,,
62466,control_change,4,0,8,,,,,,,,,11,11,53,,,
62466,control_change,4,0,9,,,,,,,,,12,11,53,,,
62468,control_change,4,0,10,,,,,,,,,6,11,53,,,
62482,control_change,16,0,9,,,,,,,,,12,11,52,,,
62482,control_change,16,0,8,,,,,,,,,11,11,52,,,
62484,control_change,16,0,10,,,,,,,,,6,11,52,,,
62492,note_on,10,0,8,,,,,,,,,11,,,,74,0
62492,note_on,0,0,8,,,,,,,,,11,,,,70,74
62492,note_on,10,0,9,,,,,,,,,12,,,,58,0
62492,note_on,0,0,9,,,,,,,,,12,,,,62,72
62494,note_on,0,0,10,,,,,,,,,6,,,,62,62
62494,note_on,10,0,10,,,,,,,,,6,,,,58,0
62496,control_change,36,0,1,,,,,,,,,0,11,67,,,
62498,control_change,36,0,2,,,,,,,,,1,11,67,,,
62498,control_change,6,0,8,,,,,,,,,11,11,51,,,
62498,control_change,6,0,9,,,,,,,,,12,11,51,,,
62499,control_change,36,0,3,,,,,,,,,2,11,67,,,
62499,control_change,36,0,5,,,,,,,,,4,11,66,,,
62500,control_change,6,0,10,,,,,,,,,6,11,51,,,
62501,control_change,36,0,6,,,,,,,,,5,11,66,,,
62514,control_change,16,0,9,,,,,,,,,12,11,50,,,
62514,control_change,16,0,8,,,,,,,,,11,11,50,,,
62516,control_change,16,0,10,,,,,,,,,6,11,50,,,
62520,set_tempo,60,1,0,,,,,,937500,,,,,,,,
62520,note_on,0,0,7,,,,,,,,,10,,,,65,83
62520,control_change,120,0,7,,,,,,,,,10,11,74,,,
62522,note_on,0,0,9,,,,,,,,,12,,,,60,72
62522,note_on,8,0,9,,,,,,,,,12,,,,62,0
62522,note_on,8,0,8,,,,,,,,,11,,,,70,0
62522,note_on,0,0,8,,,,,,,,,11,,,,75,74
62523,note_on,0,0,3,,,,,,,,,2,,,,72,96
62523,note_on,0,0,3,,,,,,,,,2,,,,75,96
62523,note_on,0,0,3,,,,,,,,,2,,,,70,0
62523,note_on,24,0,3,,,,,,,,,2,,,,74,0
62524,note_on,0,0,10,,,,,,,,,6,,,,60,62
62524,note_on,8,0,10,,,,,,,,,6,,,,62,0
62530,control_change,8,0,8,,,,,,,,,11,11,49,,,
62530,control_change,8,0,9,,,,,,,,,12,11,49,,,
62532,control_change,36,0,1,,,,,,,,,0,11,66,,,
62532,control_change,8,0,10,,,,,,,,,6,11,49,,,
62534,control_change,36,0,2,,,,,,,,,1,11,66,,,
62535,control_change,36,0,5,,,,,,,,,4,11,65,,,
62535,control_change,12,0,3,,,,,,,,,2,11,66,,,
62537,control_change,36,0,6,,,,,,,,,5,11,65,,,
62544,control_change,24,0,7,,,,,,,,,10,11,75,,,
62546,control_change,16,0,8,,,,,,,,,11,11,48,,,
62546,control_change,16,0,9,,,,,,,,,12,11,48,,,
62548,control_change,16,0,10,,,,,,,,,6,11,48,,,
62552,note_on,0,0,9,,,,,,,,,12,,,,63,72
62552,note_on,6,0,8,,,,,,,,,11,,,,75,0
62552,note_on,0,0,8,,,,,,,,,11,,,,72,74
62552,note_on,6,0,9,,,,,,,,,12,,,,60,0
62554,note_on,6,0,10,,,,,,,,,6,,,,60,0
62554,note_on,0,0,10,,,,,,,,,6,,,,63,62
62562,control_change,10,0,9,,,,,,,,,12,11,47,,,
62562,control_change,10,0,8,,,,,,,,,11,11,47,,,
62564,control_change,10,0,10,,,,,,,,,6,11,47,,,
62568,control_change,24,0,7,,,,,,,,,10,11,76,,,
62568,control_change,36,0,1,,,,,,,,,0,11,65,,,
62570,control_change,36,0,2,,,,,,,,,1,11,65,,,
62571,control_change,36,0,5,,,,,,,,,4,11,64,,,
62571,control_change,36,0,3,,,,,,,,,2,11,65,,,
62572,note_on,4,0,7,,,,,,,,,10,,,,65,0
62573,control_change,36,0,6,,,,,,,,,5,11,64,,,
62578,control_change,16,0,9,,,,,,,,,12,11,46,,,
62578,control_change,16,0,8,,,,,,,,,11,11,46,,,
62580,control_change,16,0,10,,,,,,,,,6,11,46,,,
62580,note_on,8,0,7,,,,,,,,,10,,,,67,95
62582,note_on,0,0,8,,,,,,,,,11,,,,74,74
62582,note_on,0,0,9,,,,,,,,,12,,,,58,72
62582,note_on,4,0,9,,,,,,,,,12,,,,63,0
62582,note_on,4,0,8,,,,,,,,,11,,,,72,0
62583,note_on,0,0,3,,,,,,,,,2,,,,75,0
62583,note_on,12,0,3,,,,,,,,,2,,,,72,0
62583,note_on,0,0,3,,,,,,,,,2,,,,74,96
62583,note_on,0,0,3,,,,,,,,,2,,,,70,96
62584,note_on,0,0,10,,,,,,,,,6,,,,58,62
62584,note_on,4,0,10,,,,,,,,,6,,,,63,0
62590,note_on,10,0,7,,,,,,,,,10,,,,67,0
62590,note_on,0,0,7,,,,,,,,,10,,,,65,95
62592,control_change,2,0,7,,,,,,,,,10,11,77,,,
62594,control_change,12,0,8,,,,,,,,,11,11,45,,,
62594,control_change,12,0,9,,,,,,,,,12,11,45,,,
62596,control_change,12,0,10,,,,,,,,,6,11,45,,,
62600,note_on,0,0,7,,,,,,,,,10,,,,67,95
62600,note_on,8,0,7,,,,,,,,,10,,,,65,0
62604,control_change,36,0,1,,,,,,,,,0,11,65,,,
62606,control_change,36,0,2,,,,,,,,,1,11,65,,,
62607,control_change,36,0,5,,,,,,,,,4,11,63,,,
62607,control_change,24,0,3,,,,,,,,,2,11,65,,,
62609,control_change,36,0,6,,,,,,,,,5,11,63,,,
62610,note_on,0,0,7,,,,,,,,,10,,,,65,95
62610,note_on,10,0,7,,,,,,,,,10,,,,67,0
62610,control_change,16,0,8,,,,,,,,,11,11,44,,,
62610,control_change,16,0,9,,,,,,,,,12,11,44,,,
62612,control_change,16,0,10,,,,,,,,,6,11,44,,,
62612,note_on,0,0,8,,,,,,,,,11,,,,70,74
62612,note_on,2,0,9,,,,,,,,,12,,,,58,0
62612,note_on,0,0,9,,,,,,,,,12,,,,62,72
62612,note_on,2,0,8,,,,,,,,,11,,,,74,0
62614,note_on,0,0,10,,,,,,,,,6,,,,62,62
62614,note_on,2,0,10,,,,,,,,,6,,,,58,0
62616,control_change,6,0,7,,,,,,,,,10,11,78,,,
62620,note_on,4,0,7,,,,,,,,,10,,,,65,0
62620,note_on,0,0,7,,,,,,,,,10,,,,64,95
62626,control_change,14,0,8,,,,,,,,,11,11,43,,,
62626,control_change,14,0,9,,,,,,,,,12,11,43,,,
62628,control_change,14,0,10,,,,,,,,,6,11,43,,,
62630,note_on,10,0,7,,,,,,,,,10,,,,64,0
62630,note_on,0,0,7,,,,,,,,,10,,,,65,95
62637,note_on,11,0,8,,,,,,,,,11,,,,70,0
62637,note_on,11,0,9,,,,,,,,,12,,,,62,0
62638,note_on,31,0,3,,,,,,,,,2,,,,74,0
62638,note_on,0,0,3,,,,,,,,,2,,,,70,0
62638,note_on,31,0,5,,,,,,,,,4,,,,53,0
62639,note_on,11,0,10,,,,,,,,,6,,,,62,0
62640,note_on,10,0,7,,,,,,,,,10,,,,65,0
62640,note_on,31,0,6,,,,,,,,,5,,,,41,0
62640,control_change,0,0,1,,,,,,,,,0,11,64,,,
62640,note_on,0,0,7,,,,,,,,,10,,,,77,81
62640,control_change,0,0,7,,,,,,,,,10,11,79,,,
62640,set_tempo,120,1,0,,,,,,1034483,,,,,,,,
62640,note_on,36,0,1,,,,,,,,,0,,,,84,96
62642,note_on,0,0,8,,,,,,,,,11,,,,72,74
62642,control_change,5,0,8,,,,,,,,,11,11,42,,,
62642,control_change,36,0,2,,,,,,,,,1,11,64,,,
62642,note_on,0,0,2,,,,,,,,,1,,,,81,95
62642,control_change,5,0,9,,,,,,,,,12,11,42,,,
62642,note_on,0,0,9,,,,,,,,,12,,,,57,72
62643,control_change,5,0,5,,,,,,,,,4,11,62,,,
62643,note_on,0,0,5,,,,,,,,,4,,,,53,82
62643,note_on,5,0,3,,,,,,,,,2,,,,69,96
62643,note_on,0,0,3,,,,,,,,,2,,,,72,96
62643,control_change,0,0,3,,,,,,,,,2,11,64,,,
62644,note_on,0,0,10,,,,,,,,,6,,,,57,62
62644,program_change,599,0,11,,,,,,,,45,13,,,,,
62644,control_change,5,0,10,,,,,,,,,6,11,42,,,
62645,note_on,0,0,11,,,,,,,,,13,,,,41,43
62645,control_change,5,0,6,,,,,,,,,5,11,62,,,
62645,control_change,1,0,11,,,,,,,,,13,11,100,,,
62645,note_on,0,0,6,,,,,,,,,5,,,,41,82
62645,note_on,600,0,4,,,,,,,,,3,,,,60,95
62645,note_on,0,0,4,,,,,,,,,3,,,,57,95
62645,control_change,0,0,4,,,,,,,,,3,11,64,,,
62647,program_change,599,0,12,,,,,,,,45,14,,,,,
62648,note_on,0,0,12,,,,,,,,,14,,,,29,36
62648,control_change,1,0,12,,,,,,,,,14,11,100,,,
62672,note_on,30,0,8,,,,,,,,,11,,,,72,0
62672,note_on,0,0,8,,,,,,,,,11,,,,69,74
62672,note_on,0,0,9,,,,,,,,,12,,,,60,72
62672,note_on,30,0,9,,,,,,,,,12,,,,57,0
62674,note_on,0,0,10,,,,,,,,,6,,,,60,62
62674,note_on,30,0,10,,,,,,,,,6,,,,57,0
62676,control_change,36,0,1,,,,,,,,,0,11,63,,,
62678,control_change,36,0,2,,,,,,,,,1,11,63,,,
62679,control_change,36,0,5,,,,,,,,,4,11,61,,,
62679,control_change,36,0,3,,,,,,,,,2,11,63,,,
62681,control_change,36,0,6,,,,,,,,,5,11,61,,,
62681,control_change,36,0,4,,,,,,,,,3,11,63,,,
62700,set_tempo,60,1,0,,,,,,937500,,,,,,,,
62700,control_change,60,0,7,,,,,,,,,10,11,79,,,
62702,note_on,30,0,8,,,,,,,,,11,,,,69,0
62702,note_on,0,0,9,,,,,,,,,12,,,,72,72
62702,note_on,30,0,9,,,,,,,,,12,,,,60,0
62702,note_on,0,0,8,,,,,,,,,11,,,,72,74
62704,note_on,30,0,10,,,,,,,,,6,,,,60,0
62704,note_on,0,0,10,,,,,,,,,6,,,,57,62
62707,control_change,7,0,7,,,,,,,,,10,11,76,,,
62712,control_change,36,0,1,,,,,,,,,0,11,62,,,
62714,control_change,7,0,7,,,,,,,,,10,11,73,,,
62714,control_change,36,0,2,,,,,,,,,1,11,62,,,
62715,control_change,36,0,5,,,,,,,,,4,11,60,,,
62715,control_change,36,0,3,,,,,,,,,2,11,62,,,
62717,control_change,36,0,4,,,,,,,,,3,11,62,,,
62717,control_change,36,0,6,,,,,,,,,5,11,60,,,
62722,control_change,8,0,7,,,,,,,,,10,11,70,,,
62729,control_change,7,0,7,,,,,,,,,10,11,67,,,
62732,note_on,0,0,8,,,,,,,,,11,,,,69,74
62732,note_on,30,0,8,,,,,,,,,11,,,,72,0
62732,note_on,30,0,9,,,,,,,,,12,,,,72,0
62732,note_on,0,0,9,,,,,,,,,12,,,,69,72
62734,note_on,0,0,10,,,,,,,,,6,,,,60,62
62734,note_on,30,0,10,,,,,,,,,6,,,,57,0
62736,control_change,7,0,7,,,,,,,,,10,11,64,,,
62744,control_change,8,0,7,,,,,,,,,10,11,61,,,
62748,control_change,36,0,1,,,,,,,,,0,11,61,,,
62750,control_change,36,0,2,,,,,,,,,1,11,61,,,
62751,control_change,7,0,7,,,,,,,,,10,11,58,,,
62751,control_change,36,0,3,,,,,,,,,2,11,61,,,
62751,control_change,36,0,5,,,,,,,,,4,11,59,,,
62753,control_change,36,0,6,,,,,,,,,5,11,59,,,
62753,control_change,36,0,4,,,,,,,,,3,11,61,,,
62759,control_change,8,0,7,,,,,,,,,10,11,55,,,
62760,note_on,12,0,1,,,,,,,,,0,,,,84,0
62760,note_on,1,0,7,,,,,,,,,10,,,,77,0
62762,note_on,30,0,9,,,,,,,,,12,,,,69,0
62762,note_on,0,0,9,,,,,,,,,12,,,,72,72
62762,note_on,0,0,8,,,,,,,,,11,,,,72,74
62762,note_on,12,0,2,,,,,,,,,1,,,,81,0
62762,note_on,30,0,8,,,,,,,,,11,,,,69,0
62764,note_on,30,0,10,,,,,,,,,6,,,,60,0
62764,note_on,0,0,10,,,,,,,,,6,,,,57,62
62765,note_on,120,0,11,,,,,,,,,13,,,,41,0
62768,note_on,120,0,12,,,,,,,,,14,,,,29,0
62784,control_change,24,0,1,,,,,,,,,0,11,61,,,
62786,control_change,24,0,2,,,,,,,,,1,11,61,,,
62787,control_change,36,0,5,,,,,,,,,4,11,58,,,
62787,control_change,36,0,3,,,,,,,,,2,11,61,,,
62789,control_change,36,0,6,,,,,,,,,5,11,58,,,
62789,control_change,36,0,4,,,,,,,,,3,11,61,,,
62792,note_on,0,0,9,,,,,,,,,12,,,,69,72
62792,note_on,30,0,9,,,,,,,,,12,,,,72,0
62792,note_on,0,0,8,,,,,,,,,11,,,,69,74
62792,note_on,30,0,8,,,,,,,,,11,,,,72,0
62794,note_on,0,0,10,,,,,,,,,6,,,,60,62
62794,note_on,30,0,10,,,,,,,,,6,,,,57,0
62820,control_change,36,0,1,,,,,,,,,0,11,60,,,
62820,set_tempo,120,1,0,,,,,,1034483,,,,,,,,
62822,note_on,0,0,8,,,,,,,,,11,,,,72,74
62822,note_on,30,0,8,,,,,,,,,11,,,,69,0
62822,control_change,36,0,2,,,,,,,,,1,11,60,,,
62822,note_on,0,0,9,,,,,,,,,12,,,,72,72
62822,note_on,30,0,9,,,,,,,,,12,,,,69,0
62823,control_change,36,0,5,,,,,,,,,4,11,57,,,
62823,control_change,36,0,3,,,,,,,,,2,11,60,,,
62824,note_on,0,0,10,,,,,,,,,6,,,,57,62
62824,note_on,30,0,10,,,,,,,,,6,,,,60,0
62825,control_change,36,0,6,,,,,,,,,5,11,57,,,
62825,control_change,36,0,4,,,,,,,,,3,11,60,,,
62852,note_on,0,0,8,,,,,,,,,11,,,,69,74
62852,note_on,30,0,9,,,,,,,,,12,,,,72,0
62852,note_on,0,0,9,,,,,,,,,12,,,,69,72
62852,note_on,30,0,8,,,,,,,,,11,,,,72,0
62854,note_on,0,0,10,,,,,,,,,6,,,,60,62
62854,note_on,30,0,10,,,,,,,,,6,,,,57,0
62856,control_change,36,0,1,,,,,,,,,0,11,59,,,
62858,control_change,36,0,2,,,,,,,,,1,11,59,,,
62859,control_change,36,0,5,,,,,,,,,4,11,56,,,
62859,control_change,36,0,3,,,,,,,,,2,11,59,,,
62861,control_change,36,0,6,,,,,,,,,5,11,56,,,
62861,control_change,36,0,4,,,,,,,,,3,11,59,,,
62880,control_change,120,0,7,,,,,,,,,10,11,68,,,
62880,note_on,0,0,7,,,,,,,,,10,,,,65,83
62880,set_tempo,60,1,0,,,,,,937500,,,,,,,,
62882,note_on,30,0,9,,,,,,,,,12,,,,69,0
62882,note_on,30,0,8,,,,,,,,,11,,,,69,0
62882,note_on,0,0,8,,,,,,,,,11,,,,74,74
62882,note_on,0,0,9,,,,,,,,,12,,,,74,72
62883,note_on,0,0,3,,,,,,,,,2,,,,69,0
62883,note_on,24,0,3,,,,,,,,,2,,,,72,0
62883,note_on,0,0,3,,,,,,,,,2,,,,74,96
62883,note_on,0,0,3,,,,,,,,,2,,,,70,96
62884,note_on,0,0,10,,,,,,,,,6,,,,58,62
62884,note_on,30,0,10,,,,,,,,,6,,,,60,0
62885,note_on,0,0,4,,,,,,,,,3,,,,58,95
62885,note_on,0,0,4,,,,,,,,,3,,,,62,95
62885,note_on,24,0,4,,,,,,,,,3,,,,57,0
62885,note_on,0,0,4,,,,,,,,,3,,,,60,0
62892,control_change,36,0,1,,,,,,,,,0,11,58,,,
62894,control_change,36,0,2,,,,,,,,,1,11,58,,,
62895,control_change,36,0,5,,,,,,,,,4,11,55,,,
62895,control_change,12,0,3,,,,,,,,,2,11,58,,,
62897,control_change,12,0,4,,,,,,,,,3,11,58,,,
62897,control_change,36,0,6,,,,,,,,,5,11,55,,,
62904,control_change,24,0,7,,,,,,,,,10,11,69,,,
62912,note_on,0,0,8,,,,,,,,,11,,,,70,74
62912,note_on,0,0,9,,,,,,,,,12,,,,70,72
62912,note_on,30,0,8,,,,,,,,,11,,,,74,0
62912,note_on,30,0,9,,,,,,,,,12,,,,74,0
62914,note_on,30,0,10,,,,,,,,,6,,,,58,0
62914,note_on,0,0,10,,,,,,,,,6,,,,62,62
62928,control_change,36,0,1,,,,,,,,,0,11,57,,,
62928,control_change,24,0,7,,,,,,,,,10,11,70,,,
62930,control_change,36,0,2,,,,,,,,,1,11,57,,,
62931,control_change,36,0,5,,,,,,,,,4,11,54,,,
62931,control_change,36,0,3,,,,,,,,,2,11,57,,,
62932,note_on,4,0,7,,,,,,,,,10,,,,65,0
62933,control_change,36,0,4,,,,,,,,,3,11,57,,,
62933,control_change,36,0,6,,,,,,,,,5,11,54,,,
62940,note_on,8,0,7,,,,,,,,,10,,,,67,95
62942,note_on,0,0,9,,,,,,,,,12,,,,72,72
62942,note_on,30,0,8,,,,,,,,,11,,,,70,0
62942,note_on,0,0,8,,,,,,,,,11,,,,72,74
62942,note_on,30,0,9,,,,,,,,,12,,,,70,0
62943,note_on,0,0,3,,,,,,,,,2,,,,72,96
62943,note_on,12,0,3,,,,,,,,,2,,,,70,0
62943,note_on,0,0,3,,,,,,,,,2,,,,69,96
62943,note_on,0,0,3,,,,,,,,,2,,,,74,0
62944,note_on,30,0,10,,,,,,,,,6,,,,62,0
62944,note_on,0,0,10,,,,,,,,,6,,,,57,62
62945,note_on,12,0,4,,,,,,,,,3,,,,58,0
62945,note_on,0,0,4,,,,,,,,,3,,,,62,0
62945,note_on,0,0,4,,,,,,,,,3,,,,60,95
62945,note_on,0,0,4,,,,,,,,,3,,,,57,95
62950,note_on,10,0,7,,,,,,,,,10,,,,67,0
62950,note_on,0,0,7,,,,,,,,,10,,,,65,95
62952,control_change,2,0,7,,,,,,,,,10,11,71,,,
62960,note_on,8,0,7,,,,,,,,,10,,,,65,0
62960,note_on,0,0,7,,,,,,,,,10,,,,67,95
62964,control_change,36,0,1,,,,,,,,,0,11,56,,,
62966,control_change,36,0,2,,,,,,,,,1,11,56,,,
62967,control_change,36,0,5,,,,,,,,,4,11,53,,,
62967,control_change,24,0,3,,,,,,,,,2,11,56,,,
62969,control_change,36,0,6,,,,,,,,,5,11,53,,,
62969,control_change,24,0,4,,,,,,,,,3,11,56,,,
62970,note_on,0,0,7,,,,,,,,,10,,,,65,95
62970,note_on,10,0,7,,,,,,,,,10,,,,67,0
62972,note_on,0,0,8,,,,,,,,,11,,,,69,74
62972,note_on,30,0,8,,,,,,,,,11,,,,72,0
62972,note_on,0,0,9,,,,,,,,,12,,,,69,72
62972,note_on,30,0,9,,,,,,,,,12,,,,72,0
62974,note_on,0,0,10,,,,,,,,,6,,,,60,62
62974,note_on,30,0,10,,,,,,,,,6,,,,57,0
62976,control_change,6,0,7,,,,,,,,,10,11,72,,,
62980,note_on,0,0,7,,,,,,,,,10,,,,64,95
62980,note_on,4,0,7,,,,,,,,,10,,,,65,0
62990,note_on,0,0,7,,,,,,,,,10,,,,65,95
62990,note_on,10,0,7,,,,,,,,,10,,,,64,0
62998,note_on,31,0,5,,,,,,,,,4,,,,53,0
62998,note_on,31,0,3,,,,,,,,,2,,,,69,0
62998,note_on,0,0,3,,,,,,,,,2,,,,72,0
63000,note_on,0,0,7,,,,,,,,,10,,,,77,81
63000,note_on,31,0,4,,,,,,,,,3,,,,57,0
63000,control_change,0,0,1,,,,,,,,,0,11,55,,,
63000,note_on,10,0,7,,,,,,,,,10,,,,65,0
63000,control_change,0,0,7,,,,,,,,,10,11,73,,,
63000,set_tempo,120,1,0,,,,,,1034483,,,,,,,,
63000,note_on,0,0,4,,,,,,,,,3,,,,60,0
63000,note_on,36,0,1,,,,,,,,,0,,,,82,96
63000,note_on,31,0,6,,,,,,,,,5,,,,41,0
63002,note_on,0,0,9,,,,,,,,,12,,,,70,72
63002,note_on,0,0,8,,,,,,,,,11,,,,70,74
63002,note_on,30,0,9,,,,,,,,,12,,,,69,0
63002,note_on,30,0,8,,,,,,,,,11,,,,69,0
63002,note_on,0,0,2,,,,,,,,,1,,,,79,95
63002,control_change,36,0,2,,,,,,,,,1,11,55,,,
63003,note_on,5,0,3,,,,,,,,,2,,,,67,96
63003,control_change,0,0,3,,,,,,,,,2,11,55,,,
63003,note_on,0,0,3,,,,,,,,,2,,,,70,96
63003,control_change,5,0,5,,,,,,,,,4,11,52,,,
63003,note_on,0,0,5,,,,,,,,,4,,,,53,82
63004,note_on,30,0,10,,,,,,,,,6,,,,60,0
63004,note_on,0,0,10,,,,,,,,,6,,,,55,62
63005,control_change,5,0,6,,,,,,,,,5,11,52,,,
63005,note_on,0,0,6,,,,,,,,,5,,,,41,82
63005,note_on,5,0,4,,,,,,,,,3,,,,58,95
63005,control_change,0,0,4,,,,,,,,,3,11,55,,,
63005,note_on,0,0,4,,,,,,,,,3,,,,55,95
63032,note_on,30,0,8,,,,,,,,,11,,,,70,0
63032,note_on,0,0,9,,,,,,,,,12,,,,67,72
63032,note_on,30,0,9,,,,,,,,,12,,,,70,0
63032,note_on,0,0,8,,,,,,,,,11,,,,67,74
63034,note_on,30,0,10,,,,,,,,,6,,,,55,0
63034,note_on,0,0,10,,,,,,,,,6,,,,58,62
63036,control_change,36,0,1,,,,,,,,,0,11,55,,,
63038,control_change,36,0,2,,,,,,,,,1,11,55,,,
63039,control_change,36,0,3,,,,,,,,,2,11,55,,,
63039,control_change,36,0,5,,,,,,,,,4,11,51,,,
63041,control_change,36,0,4,,,,,,,,,3,11,55,,,
63041,control_change,36,0,6,,,,,,,,,5,11,51,,,
63060,set_tempo,60,1,0,,,,,,937500,,,,,,,,
63060,control_change,60,0,7,,,,,,,,,10,11,73,,,
63062,note_on,30,0,9,,,,,,,,,12,,,,67,0
63062,note_on,0,0,9,,,,,,,,,12,,,,70,72
63062,note_on,30,0,8,,,,,,,,,11,,,,67,0
63062,note_on,0,0,8,,,,,,,,,11,,,,70,74
63064,note_on,30,0,10,,,,,,,,,6,,,,58,0
63064,note_on,0,0,10,,,,,,,,,6,,,,55,62
63067,control_change,7,0,7,,,,,,,,,10,11,70,,,
63072,control_change,36,0,1,,,,,,,,,0,11,54,,,
63074,control_change,36,0,2,,,,,,,,,1,11,54,,,
63075,control_change,36,0,5,,,,,,,,,4,11,50,,,
63075,control_change,36,0,3,,,,,,,,,2,11,54,,,
63075,control_change,8,0,7,,,,,,,,,10,11,67,,,
63077,control_change,36,0,4,,,,,,,,,3,11,54,,,
63077,control_change,36,0,6,,,,,,,,,5,11,50,,,
63083,control_change,8,0,7,,,,,,,,,10,11,64,,,
63090,control_change,7,0,7,,,,,,,,,10,11,61,,,
63092,note_on,30,0,8,,,,,,,,,11,,,,70,0
63092,note_on,30,0,9,,,,,,,,,12,,,,70,0
63092,note_on,0,0,9,,,,,,,,,12,,,,67,72
63092,note_on,0,0,8,,,,,,,,,11,,,,67,74
63094,note_on,0,0,10,,,,,,,,,6,,,,58,62
63094,note_on,30,0,10,,,,,,,,,6,,,,55,0
63098,control_change,8,0,7,,,,,,,,,10,11,58,,,
63106,control_change,8,0,7,,,,,,,,,10,11,55,,,
63108,control_change,36,0,1,,,,,,,,,0,11,53,,,
63110,control_change,36,0,2,,,,,,,,,1,11,53,,,
63111,control_change,36,0,3,,,,,,,,,2,11,53,,,
63111,control_change,36,0,5,,,,,,,,,4,11,49,,,
63113,control_change,36,0,6,,,,,,,,,5,11,49,,,
63113,control_change,7,0,7,,,,,,,,,10,11,52,,,
63113,control_change,36,0,4,,,,,,,,,3,11,53,,,
63120,note_on,12,0,1,,,,,,,,,0,,,,82,0
63120,note_on,7,0,7,,,,,,,,,10,,,,77,0
63122,note_on,30,0,8,,,,,,,,,11,,,,67,0
63122,note_on,12,0,2,,,,,,,,,1,,,,79,0
63122,note_on,30,0,9,,,,,,,,,12,,,,67,0
63122,note_on,0,0,9,,,,,,,,,12,,,,70,72
63122,note_on,0,0,8,,,,,,,,,11,,,,70,74
63124,note_on,30,0,10,,,,,,,,,6,,,,58,0
63124,note_on,0,0,10,,,,,,,,,6,,,,55,62
63144,control_change,24,0,1,,,,,,,,,0,11,52,,,
63146,control_change,24,0,2,,,,,,,,,1,11,52,,,
63147,control_change,36,0,5,,,,,,,,,4,11,48,,,
63147,control_change,36,0,3,,,,,,,,,2,11,52,,,
63149,control_change,36,0,6,,,,,,,,,5,11,48,,,
63149,control_change,36,0,4,,,,,,,,,3,11,52,,,
63152,note_on,30,0,8,,,,,,,,,11,,,,70,0
63152,note_on,0,0,9,,,,,,,,,12,,,,67,72
63152,note_on,30,0,9,,,,,,,,,12,,,,70,0
63152,note_on,0,0,8,,,,,,,,,11,,,,67,74
63154,note_on,30,0,10,,,,,,,,,6,,,,55,0
63154,note_on,0,0,10,,,,,,,,,6,,,,58,62
63180,set_tempo,120,1,0,,,,,,1034483,,,,,,,,
63180,control_change,36,0,1,,,,,,,,,0,11,52,,,
63182,note_on,0,0,8,,,,,,,,,11,,,,70,74
63182,control_change,36,0,2,,,,,,,,,1,11,52,,,
63182,note_on,30,0,9,,,,,,,,,12,,,,67,0
63182,note_on,0,0,9,,,,,,,,,12,,,,70,72
63182,note_on,30,0,8,,,,,,,,,11,,,,67,0
63183,control_change,36,0,5,,,,,,,,,4,11,47,,,
63183,control_change,36,0,3,,,,,,,,,2,11,52,,,
63184,note_on,0,0,10,,,,,,,,,6,,,,55,62
63184,note_on,30,0,10,,,,,,,,,6,,,,58,0
63185,control_change,36,0,4,,,,,,,,,3,11,52,,,
63185,control_change,36,0,6,,,,,,,,,5,11,47,,,
63212,note_on,0,0,9,,,,,,,,,12,,,,67,72
63212,note_on,30,0,8,,,,,,,,,11,,,,70,0
63212,note_on,0,0,8,,,,,,,,,11,,,,67,74
63212,note_on,30,0,9,,,,,,,,,12,,,,70,0
63214,note_on,30,0,10,,,,,,,,,6,,,,55,0
63214,note_on,0,0,10,,,,,,,,,6,,,,58,62
63216,control_change,36,0,1,,,,,,,,,0,11,51,,,
63218,control_change,36,0,2,,,,,,,,,1,11,51,,,
63219,control_change,36,0,3,,,,,,,,,2,11,51,,,
63219,control_change,36,0,5,,,,,,,,,4,11,46,,,
63221,control_change,36,0,6,,,,,,,,,5,11,46,,,
63221,control_change,36,0,4,,,,,,,,,3,11,51,,,
63240,control_change,120,0,7,,,,,,,,,10,11,62,,,
63240,set_tempo,60,1,0,,,,,,937500,,,,,,,,
63240,note_on,0,0,7,,,,,,,,,10,,,,65,83
63242,note_on,30,0,8,,,,,,,,,11,,,,67,0
63242,note_on,0,0,8,,,,,,,,,11,,,,72,74
63242,note_on,30,0,9,,,,,,,,,12,,,,67,0
63242,note_on,0,0,9,,,,,,,,,12,,,,72,72
63243,note_on,0,0,3,,,,,,,,,2,,,,67,0
63243,note_on,24,0,3,,,,,,,,,2,,,,70,0
63243,note_on,0,0,3,,,,,,,,,2,,,,72,96
63243,note_on,0,0,3,,,,,,,,,2,,,,69,96
63244,note_on,0,0,10,,,,,,,,,6,,,,57,62
63244,note_on,30,0,10,,,,,,,,,6,,,,58,0
63245,note_on,0,0,4,,,,,,,,,3,,,,57,95
63245,note_on,0,0,4,,,,,,,,,3,,,,58,0
63245,note_on,24,0,4,,,,,,,,,3,,,,55,0
63245,note_on,0,0,4,,,,,,,,,3,,,,60,95
63252,control_change,36,0,1,,,,,,,,,0,11,50,,,
63254,control_change,36,0,2,,,,,,,,,1,11,50,,,
63255,control_change,12,0,3,,,,,,,,,2,11,50,,,
63255,control_change,36,0,5,,,,,,,,,4,11,45,,,
63257,control_change,12,0,4,,,,,,,,,3,11,50,,,
63257,control_change,36,0,6,,,,,,,,,5,11,45,,,
63262,control_change,22,0,7,,,,,,,,,10,11,63,,,
63272,note_on,0,0,8,,,,,,,,,11,,,,69,74
63272,note_on,30,0,8,,,,,,,,,11,,,,72,0
63272,note_on,30,0,9,,,,,,,,,12,,,,72,0
63272,note_on,0,0,9,,,,,,,,,12,,,,69,72
63274,note_on,30,0,10,,,,,,,,,6,,,,57,0
63274,note_on,0,0,10,,,,,,,,,6,,,,60,62
63284,control_change,22,0,7,,,,,,,,,10,11,64,,,
63288,control_change,36,0,1,,,,,,,,,0,11,49,,,
63290,control_change,36,0,2,,,,,,,,,1,11,49,,,
63291,control_change,36,0,5,,,,,,,,,4,11,44,,,
63291,control_change,36,0,3,,,,,,,,,2,11,49,,,
63292,note_on,8,0,7,,,,,,,,,10,,,,65,0
63293,control_change,36,0,4,,,,,,,,,3,11,49,,,
63293,control_change,36,0,6,,,,,,,,,5,11,44,,,
63300,note_on,8,0,7,,,,,,,,,10,,,,67,95
63302,note_on,0,0,9,,,,,,,,,12,,,,70,72
63302,note_on,30,0,9,,,,,,,,,12,,,,69,0
63302,note_on,30,0,8,,,,,,,,,11,,,,69,0
63302,note_on,0,0,8,,,,,,,,,11,,,,70,74
63303,note_on,0,0,3,,,,,,,,,2,,,,70,96
63303,note_on,0,0,3,,,,,,,,,2,,,,67,96
63303,note_on,0,0,3,,,,,,,,,2,,,,69,0
63303,note_on,12,0,3,,,,,,,,,2,,,,72,0
63304,note_on,30,0,10,,,,,,,,,6,,,,60,0
63304,note_on,0,0,10,,,,,,,,,6,,,,55,62
63305,note_on,0,0,4,,,,,,,,,3,,,,58,95
63305,note_on,0,0,4,,,,,,,,,3,,,,55,95
63305,note_on,0,0,4,,,,,,,,,3,,,,60,0
63305,note_on,12,0,4,,,,,,,,,3,,,,57,0
63306,control_change,6,0,7,,,,,,,,,10,11,65,,,
63310,note_on,4,0,7,,,,,,,,,10,,,,67,0
63310,note_on,0,0,7,,,,,,,,,10,,,,65,95
63320,note_on,10,0,7,,,,,,,,,10,,,,65,0
63320,note_on,0,0,7,,,,,,,,,10,,,,67,95
63324,control_change,36,0,1,,,,,,,,,0,11,48,,,
63326,control_change,36,0,2,,,,,,,,,1,11,48,,,
63327,control_change,24,0,3,,,,,,,,,2,11,48,,,
63327,control_change,36,0,5,,,,,,,,,4,11,43,,,
63328,control_change,8,0,7,,,,,,,,,10,11,66,,,
63329,control_change,36,0,6,,,,,,,,,5,11,43,,,
63329,control_change,24,0,4,,,,,,,,,3,11,48,,,
63330,note_on,0,0,7,,,,,,,,,10,,,,65,95
63330,note_on,2,0,7,,,,,,,,,10,,,,67,0
63332,note_on,0,0,8,,,,,,,,,11,,,,67,74
63332,note_on,30,0,8,,,,,,,,,11,,,,70,0
63332,note_on,0,0,9,,,,,,,,,12,,,,67,72
63332,note_on,30,0,9,,,,,,,,,12,,,,70,0
63334,note_on,30,0,10,,,,,,,,,6,,,,55,0
63334,note_on,0,0,10,,,,,,,,,6,,,,58,62
63340,note_on,10,0,7,,,,,,,,,10,,,,65,0
63340,note_on,0,0,7,,,,,,,,,10,,,,64,95
63350,control_change,0,0,7,,,,,,,,,10,11,67,,,
63350,note_on,0,0,7,,,,,,,,,10,,,,65,87
63350,note_on,10,0,7,,,,,,,,,10,,,,64,0
63357,note_on,25,0,8,,,,,,,,,11,,,,67,0
63357,note_on,25,0,9,,,,,,,,,12,,,,67,0
63358,note_on,31,0,3,,,,,,,,,2,,,,70,0
63358,note_on,0,0,3,,,,,,,,,2,,,,67,0
63358,note_on,31,0,5,,,,,,,,,4,,,,53,0
63359,note_on,25,0,10,,,,,,,,,6,,,,58,0
63360,note_on,31,0,6,,,,,,,,,5,,,,41,0
63360,note_on,0,0,1,,,,,,,,,0,,,,81,96
63360,note_on,31,0,4,,,,,,,,,3,,,,58,0
63360,note_on,0,0,4,,,,,,,,,3,,,,55,0
63360,control_change,36,0,1,,,,,,,,,0,11,47,,,
63360,set_tempo,120,1,0,,,,,,1034483,,,,,,,,
63360,note_on,10,0,7,,,,,,,,,10,,,,65,0
63362,note_on,5,0,8,,,,,,,,,11,,,,69,74
63362,control_change,36,0,2,,,,,,,,,1,11,47,,,
63362,note_on,5,0,9,,,,,,,,,12,,,,69,72
63363,note_on,0,0,3,,,,,,,,,2,,,,65,96
63363,note_on,0,0,3,,,,,,,,,2,,,,69,96
63363,control_change,5,0,3,,,,,,,,,2,11,47,,,
63363,control_change,5,0,5,,,,,,,,,4,11,42,,,
63363,note_on,0,0,5,,,,,,,,,4,,,,53,82
63364,note_on,5,0,10,,,,,,,,,6,,,,53,62
63365,note_on,600,0,11,,,,,,,,,13,,,,41,43
63365,control_change,0,0,6,,,,,,,,,5,11,42,,,
63365,note_on,5,0,6,,,,,,,,,5,,,,41,82
63365,note_on,5,0,4,,,,,,,,,3,,,,57,95
63365,note_on,0,0,4,,,,,,,,,3,,,,53,95
63365,control_change,0,0,4,,,,,,,,,3,11,47,,,
63368,note_on,600,0,12,,,,,,,,,14,,,,29,36
63392,note_on,30,0,9,,,,,,,,,12,,,,69,0
63392,note_on,30,0,8,,,,,,,,,11,,,,69,0
63392,note_on,0,0,8,,,,,,,,,11,,,,65,74
63392,note_on,0,0,9,,,,,,,,,12,,,,65,72
63394,note_on,30,0,10,,,,,,,,,6,,,,53,0
63394,note_on,0,0,10,,,,,,,,,6,,,,57,62
63420,control_change,60,0,7,,,,,,,,,10,11,59,,,
63420,note_on,60,0,1,,,,,,,,,0,,,,81,0
63420,note_on,0,0,1,,,,,,,,,0,,,,82,96
63420,set_tempo,60,1,0,,,,,,937500,,,,,,,,
63420,note_on,0,0,7,,,,,,,,,10,,,,77,83
63422,note_on,0,0,8,,,,,,,,,11,,,,70,74
63422,note_on,30,0,8,,,,,,,,,11,,,,65,0
63422,note_on,0,0,9,,,,,,,,,12,,,,70,72
63422,note_on,30,0,9,,,,,,,,,12,,,,65,0
63423,note_on,0,0,3,,,,,,,,,2,,,,70,96
63423,note_on,0,0,3,,,,,,,,,2,,,,67,96
63423,note_on,0,0,3,,,,,,,,,2,,,,65,0
63423,note_on,60,0,3,,,,,,,,,2,,,,69,0
63424,note_on,30,0,10,,,,,,,,,6,,,,57,0
63424,note_on,0,0,10,,,,,,,,,6,,,,55,62
63425,note_on,60,0,4,,,,,,,,,3,,,,53,0
63425,note_on,0,0,4,,,,,,,,,3,,,,58,95
63425,note_on,0,0,4,,,,,,,,,3,,,,55,95
63425,note_on,0,0,4,,,,,,,,,3,,,,57,0
63442,control_change,22,0,7,,,,,,,,,10,11,60,,,
63452,note_on,30,0,8,,,,,,,,,11,,,,70,0
63452,note_on,0,0,8,,,,,,,,,11,,,,67,74
63452,note_on,0,0,9,,,,,,,,,12,,,,67,72
63452,note_on,30,0,9,,,,,,,,,12,,,,70,0
63454,note_on,0,0,10,,,,,,,,,6,,,,58,62
63454,note_on,30,0,10,,,,,,,,,6,,,,55,0
63464,control_change,22,0,7,,,,,,,,,10,11,61,,,
63472,note_on,8,0,7,,,,,,,,,10,,,,77,0
63480,note_on,60,0,1,,,,,,,,,0,,,,82,0
63480,note_on,0,0,1,,,,,,,,,0,,,,79,96
63480,note_on,8,0,7,,,,,,,,,10,,,,79,95
63482,note_on,30,0,8,,,,,,,,,11,,,,67,0
63482,note_on,0,0,9,,,,,,,,,12,,,,67,72
63482,note_on,30,0,9,,,,,,,,,12,,,,67,0
63482,note_on,0,0,8,,,,,,,,,11,,,,67,74
63483,note_on,0,0,3,,,,,,,,,2,,,,67,96
63483,note_on,60,0,3,,,,,,,,,2,,,,70,0
63483,note_on,0,0,3,,,,,,,,,2,,,,67,0
63483,note_on,0,0,3,,,,,,,,,2,,,,63,96
63484,note_on,0,0,10,,,,,,,,,6,,,,51,62
63484,note_on,30,0,10,,,,,,,,,6,,,,58,0
63485,note_on,0,0,4,,,,,,,,,3,,,,51,95
63485,note_on,0,0,4,,,,,,,,,3,,,,55,95
63485,note_on,120,0,11,,,,,,,,,13,,,,41,0
63485,note_on,0,0,4,,,,,,,,,3,,,,58,0
63485,note_on,60,0,4,,,,,,,,,3,,,,55,0
63486,control_change,6,0,7,,,,,,,,,10,11,62,,,
63488,note_on,120,0,12,,,,,,,,,14,,,,29,0
63490,note_on,4,0,7,,,,,,,,,10,,,,79,0
63490,note_on,0,0,7,,,,,,,,,10,,,,77,95
63500,note_on,10,0,7,,,,,,,,,10,,,,77,0
63500,note_on,0,0,7,,,,,,,,,10,,,,79,95
63508,control_change,8,0,7,,,,,,,,,10,11,63,,,
63510,note_on,2,0,7,,,,,,,,,10,,,,79,0
63510,note_on,0,0,7,,,,,,,,,10,,,,77,95
63512,note_on,30,0,9,,,,,,,,,12,,,,67,0
63512,note_on,30,0,8,,,,,,,,,11,,,,67,0
63512,note_on,0,0,8,,,,,,,,,11,,,,63,74
63512,note_on,0,0,9,,,,,,,,,12,,,,63,72
63514,note_on,0,0,10,,,,,,,,,6,,,,55,62
63514,note_on,30,0,10,,,,,,,,,6,,,,51,0
63520,note_on,10,0,7,,,,,,,,,10,,,,77,0
63520,note_on,0,0,7,,,,,,,,,10,,,,79,95
63530,note_on,10,0,7,,,,,,,,,10,,,,79,0
63530,note_on,0,0,7,,,,,,,,,10,,,,77,87
63530,control_change,0,0,7,,,,,,,,,10,11,64,,,
63540,set_tempo,120,1,0,,,,,,1034483,,,,,,,,
63540,note_on,60,0,1,,,,,,,,,0,,,,79,0
63540,note_on,10,0,7,,,,,,,,,10,,,,77,0
63542,note_on,30,0,8,,,,,,,,,11,,,,63,0
63542,note_on,0,0,8,,,,,,,,,11,,,,69,74
63542,note_on,0,0,9,,,,,,,,,12,,,,69,72
63542,note_on,30,0,9,,,,,,,,,12,,,,63,0
63542,note_on,180,0,2,,,,,,,,,1,,,,81,95
63543,note_on,60,0,3,,,,,,,,,2,,,,67,0
63543,note_on,0,0,3,,,,,,,,,2,,,,63,0
63543,note_on,0,0,3,,,,,,,,,2,,,,65,96
63543,note_on,0,0,3,,,,,,,,,2,,,,69,96
63544,note_on,30,0,10,,,,,,,,,6,,,,55,0
63544,note_on,0,0,10,,,,,,,,,6,,,,53,62
63545,note_on,0,0,4,,,,,,,,,3,,,,53,95
63545,note_on,0,0,4,,,,,,,,,3,,,,57,95
63545,note_on,0,0,4,,,,,,,,,3,,,,55,0
63545,note_on,60,0,4,,,,,,,,,3,,,,51,0
63572,note_on,0,0,8,,,,,,,,,11,,,,65,74
63572,note_on,30,0,8,,,,,,,,,11,,,,69,0
63572,note_on,0,0,9,,,,,,,,,12,,,,65,72
63572,note_on,30,0,9,,,,,,,,,12,,,,69,0
63574,note_on,30,0,10,,,,,,,,,6,,,,53,0
63574,note_on,0,0,10,,,,,,,,,6,,,,57,62
63600,note_on,0,0,7,,,,,,,,,10,,,,65,83
63600,set_tempo,60,1,0,,,,,,937500,,,,,,,,
63600,control_change,60,0,7,,,,,,,,,10,11,56,,,
63602,note_on,0,0,8,,,,,,,,,11,,,,65,74
63602,note_on,0,0,2,,,,,,,,,1,,,,77,95
63602,note_on,30,0,9,,,,,,,,,12,,,,65,0
63602,note_on,0,0,9,,,,,,,,,12,,,,65,72
63602,note_on,30,0,8,,,,,,,,,11,,,,65,0
63602,note_on,60,0,2,,,,,,,,,1,,,,81,0
63603,note_on,0,0,3,,,,,,,,,2,,,,69,0
63603,note_on,0,0,3,,,,,,,,,2,,,,62,96
63603,note_on,0,0,3,,,,,,,,,2,,,,65,96
63603,note_on,60,0,3,,,,,,,,,2,,,,65,0
63604,note_on,0,0,10,,,,,,,,,6,,,,50,62
63604,note_on,30,0,10,,,,,,,,,6,,,,57,0
63605,note_on,60,0,4,,,,,,,,,3,,,,53,0
63605,note_on,0,0,4,,,,,,,,,3,,,,57,0
63605,note_on,0,0,4,,,,,,,,,3,,,,50,95
63605,note_on,0,0,4,,,,,,,,,3,,,,53,95
63622,control_change,22,0,7,,,,,,,,,10,11,57,,,
63632,note_on,30,0,9,,,,,,,,,12,,,,65,0
63632,note_on,0,0,9,,,,,,,,,12,,,,62,72
63632,note_on,30,0,8,,,,,,,,,11,,,,65,0
63632,note_on,0,0,8,,,,,,,,,11,,,,62,74
63634,note_on,0,0,10,,,,,,,,,6,,,,53,62
63634,note_on,30,0,10,,,,,,,,,6,,,,50,0
63644,control_change,22,0,7,,,,,,,,,10,11,58,,,
63652,note_on,8,0,7,,,,,,,,,10,,,,65,0
63660,note_on,8,0,7,,,,,,,,,10,,,,67,95
63662,note_on,0,0,2,,,,,,,,,1,,,,79,95
63662,note_on,60,0,2,,,,,,,,,1,,,,77,0
63662,note_on,0,0,8,,,,,,,,,11,,,,67,74
63662,note_on,0,0,9,,,,,,,,,12,,,,67,72
63662,note_on,30,0,9,,,,,,,,,12,,,,62,0
63662,note_on,30,0,8,,,,,,,,,11,,,,62,0
63663,note_on,60,0,3,,,,,,,,,2,,,,65,0
63663,note_on,0,0,3,,,,,,,,,2,,,,67,96
63663,note_on,0,0,3,,,,,,,,,2,,,,62,0
63663,note_on,0,0,3,,,,,,,,,2,,,,63,96
63664,note_on,0,0,10,,,,,,,,,6,,,,51,62
63664,note_on,30,0,10,,,,,,,,,6,,,,53,0
63665,note_on,0,0,4,,,,,,,,,3,,,,55,95
63665,note_on,0,0,4,,,,,,,,,3,,,,50,0
63665,note_on,0,0,4,,,,,,,,,3,,,,51,95
63665,note_on,60,0,4,,,,,,,,,3,,,,53,0
63666,control_change,6,0,7,,,,,,,,,10,11,59,,,
63670,note_on,4,0,7,,,,,,,,,10,,,,67,0
63670,note_on,0,0,7,,,,,,,,,10,,,,65,95
63680,note_on,0,0,7,,,,,,,,,10,,,,67,95
63680,note_on,10,0,7,,,,,,,,,10,,,,65,0
63688,control_change,8,0,7,,,,,,,,,10,11,60,,,
63690,note_on,2,0,7,,,,,,,,,10,,,,67,0
63690,note_on,0,0,7,,,,,,,,,10,,,,65,95
63692,note_on,30,0,8,,,,,,,,,11,,,,67,0
63692,note_on,0,0,8,,,,,,,,,11,,,,63,74
63692,note_on,30,0,9,,,,,,,,,12,,,,67,0
63692,note_on,0,0,9,,,,,,,,,12,,,,63,72
63694,note_on,0,0,10,,,,,,,,,6,,,,55,62
63694,note_on,30,0,10,,,,,,,,,6,,,,51,0
63700,note_on,10,0,7,,,,,,,,,10,,,,65,0
63700,note_on,0,0,7,,,,,,,,,10,,,,67,95
63710,note_on,10,0,7,,,,,,,,,10,,,,67,0
63710,note_on,0,0,7,,,,,,,,,10,,,,65,87
63710,control_change,0,0,7,,,,,,,,,10,11,61,,,
63720,note_on,10,0,7,,,,,,,,,10,,,,65,0
63720,set_tempo,120,1,0,,,,,,1034483,,,,,,,,
63720,note_on,180,0,1,,,,,,,,,0,,,,75,96
63722,note_on,30,0,8,,,,,,,,,11,,,,63,0
63722,note_on,60,0,2,,,,,,,,,1,,,,79,0
63722,note_on,0,0,8,,,,,,,,,11,,,,63,74
63722,note_on,0,0,9,,,,,,,,,12,,,,63,72
63722,note_on,30,0,9,,,,,,,,,12,,,,63,0
63723,note_on,0,0,3,,,,,,,,,2,,,,60,96
63723,note_on,0,0,3,,,,,,,,,2,,,,63,96
63723,note_on,0,0,3,,,,,,,,,2,,,,63,0
63723,note_on,60,0,3,,,,,,,,,2,,,,67,0
63724,note_on,30,0,10,,,,,,,,,6,,,,55,0
63724,note_on,0,0,10,,,,,,,,,6,,,,48,62
63725,note_on,0,0,4,,,,,,,,,3,,,,48,95
63725,note_on,0,0,4,,,,,,,,,3,,,,51,95
63725,note_on,0,0,4,,,,,,,,,3,,,,55,0
63725,note_on,60,0,4,,,,,,,,,3,,,,51,0
63725,note_on,240,0,11,,,,,,,,,13,,,,41,43
63728,note_on,240,0,12,,,,,,,,,14,,,,29,36
63752,note_on,30,0,9,,,,,,,,,12,,,,63,0
63752,note_on,0,0,9,,,,,,,,,12,,,,60,72
63752,note_on,30,0,8,,,,,,,,,11,,,,63,0
63752,note_on,0,0,8,,,,,,,,,11,,,,60,74
63754,note_on,0,0,10,,,,,,,,,6,,,,51,62
63754,note_on,30,0,10,,,,,,,,,6,,,,48,0
63780,note_on,0,0,7,,,,,,,,,10,,,,77,83
63780,note_on,0,0,1,,,,,,,,,0,,,,77,96
63780,note_on,60,0,1,,,,,,,,,0,,,,75,0
63780,control_change,60,0,7,,,,,,,,,10,11,53,,,
63780,set_tempo,60,1,0,,,,,,937500,,,,,,,,
63782,note_on,30,0,9,,,,,,,,,12,,,,60,0
63782,note_on,30,0,8,,,,,,,,,11,,,,60,0
63782,note_on,0,0,9,,,,,,,,,12,,,,65,72
63782,note_on,0,0,8,,,,,,,,,11,,,,65,74
63783,note_on,0,0,3,,,,,,,,,2,,,,63,0
63783,note_on,60,0,3,,,,,,,,,2,,,,60,0
63783,note_on,0,0,3,,,,,,,,,2,,,,62,96
63783,note_on,0,0,3,,,,,,,,,2,,,,65,96
63784,note_on,30,0,10,,,,,,,,,6,,,,51,0
63784,note_on,0,0,10,,,,,,,,,6,,,,50,62
63785,note_on,0,0,4,,,,,,,,,3,,,,50,95
63785,note_on,0,0,4,,,,,,,,,3,,,,53,95
63785,note_on,0,0,4,,,,,,,,,3,,,,51,0
63785,note_on,60,0,4,,,,,,,,,3,,,,48,0
63802,control_change,22,0,7,,,,,,,,,10,11,54,,,
63812,note_on,0,0,9,,,,,,,,,12,,,,62,72
63812,note_on,30,0,8,,,,,,,,,11,,,,65,0
63812,note_on,30,0,9,,,,,,,,,12,,,,65,0
63812,note_on,0,0,8,,,,,,,,,11,,,,62,74
63814,note_on,30,0,10,,,,,,,,,6,,,,50,0
63814,note_on,0,0,10,,,,,,,,,6,,,,53,62
63824,control_change,22,0,7,,,,,,,,,10,11,55,,,
63832,note_on,8,0,7,,,,,,,,,10,,,,77,0
63840,note_on,60,0,1,,,,,,,,,0,,,,77,0
63840,note_on,8,0,7,,,,,,,,,10,,,,79,95
63840,note_on,0,0,1,,,,,,,,,0,,,,74,96
63842,note_on,30,0,8,,,,,,,,,11,,,,62,0
63842,note_on,0,0,9,,,,,,,,,12,,,,62,72
63842,note_on,30,0,9,,,,,,,,,12,,,,62,0
63842,note_on,0,0,8,,,,,,,,,11,,,,62,74
63843,note_on,0,0,3,,,,,,,,,2,,,,62,0
63843,note_on,0,0,3,,,,,,,,,2,,,,58,96
63843,note_on,0,0,3,,,,,,,,,2,,,,62,96
63843,note_on,60,0,3,,,,,,,,,2,,,,65,0
63844,note_on,0,0,10,,,,,,,,,6,,,,46,62
63844,note_on,30,0,10,,,,,,,,,6,,,,53,0
63845,note_on,60,0,4,,,,,,,,,3,,,,50,0
63845,note_on,0,0,4,,,,,,,,,3,,,,53,0
63845,note_on,0,0,4,,,,,,,,,3,,,,50,95
63845,note_on,0,0,4,,,,,,,,,3,,,,46,95
63845,note_on,120,0,11,,,,,,,,,13,,,,41,0
63846,control_change,6,0,7,,,,,,,,,10,11,56,,,
63848,note_on,120,0,12,,,,,,,,,14,,,,29,0
63850,note_on,0,0,7,,,,,,,,,10,,,,77,95
63850,note_on,4,0,7,,,,,,,,,10,,,,79,0
63860,note_on,10,0,7,,,,,,,,,10,,,,77,0
63860,note_on,0,0,7,,,,,,,,,10,,,,79,95
63868,control_change,8,0,7,,,,,,,,,10,11,57,,,
63870,note_on,2,0,7,,,,,,,,,10,,,,79,0
63870,note_on,0,0,7,,,,,,,,,10,,,,77,95
63872,note_on,30,0,8,,,,,,,,,11,,,,62,0
63872,note_on,0,0,9,,,,,,,,,12,,,,58,72
63872,note_on,30,0,9,,,,,,,,,12,,,,62,0
63872,note_on,0,0,8,,,,,,,,,11,,,,58,74
63874,note_on,30,0,10,,,,,,,,,6,,,,46,0
63874,note_on,0,0,10,,,,,,,,,6,,,,50,62
63880,note_on,0,0,7,,,,,,,,,10,,,,79,95
63880,note_on,10,0,7,,,,,,,,,10,,,,77,0
63890,note_on,0,0,7,,,,,,,,,10,,,,77,87
63890,note_on,10,0,7,,,,,,,,,10,,,,79,0
63890,control_change,0,0,7,,,,,,,,,10,11,58,,,
63900,note_on,10,0,7,,,,,,,,,10,,,,77,0
63900,note_on,60,0,1,,,,,,,,,0,,,,74,0
63900,set_tempo,120,1,0,,,,,,1034483,,,,,,,,
63902,note_on,30,0,9,,,,,,,,,12,,,,58,0
63902,note_on,180,0,2,,,,,,,,,1,,,,75,95
63902,note_on,30,0,8,,,,,,,,,11,,,,58,0
63902,note_on,0,0,9,,,,,,,,,12,,,,63,72
63902,note_on,0,0,8,,,,,,,,,11,,,,63,74
63903,note_on,0,0,3,,,,,,,,,2,,,,62,0
63903,note_on,0,0,3,,,,,,,,,2,,,,63,96
63903,note_on,0,0,3,,,,,,,,,2,,,,60,96
63903,note_on,60,0,3,,,,,,,,,2,,,,58,0
63904,note_on,30,0,10,,,,,,,,,6,,,,50,0
63904,note_on,0,0,10,,,,,,,,,6,,,,48,62
63905,note_on,0,0,4,,,,,,,,,3,,,,51,95
63905,note_on,0,0,4,,,,,,,,,3,,,,48,95
63905,note_on,60,0,4,,,,,,,,,3,,,,50,0
63905,note_on,0,0,4,,,,,,,,,3,,,,46,0
63932,note_on,30,0,9,,,,,,,,,12,,,,63,0
63932,note_on,0,0,8,,,,,,,,,11,,,,60,74
63932,note_on,0,0,9,,,,,,,,,12,,,,60,72
63932,note_on,30,0,8,,,,,,,,,11,,,,63,0
63934,note_on,0,0,10,,,,,,,,,6,,,,51,62
63934,note_on,30,0,10,,,,,,,,,6,,,,48,0
63960,control_change,60,0,7,,,,,,,,,10,11,50,,,
63960,note_on,0,0,7,,,,,,,,,10,,,,65,83
63960,set_tempo,60,1,0,,,,,,937500,,,,,,,,
63962,note_on,0,0,8,,,,,,,,,11,,,,60,74
63962,note_on,30,0,8,,,,,,,,,11,,,,60,0
63962,note_on,30,0,9,,,,,,,,,12,,,,60,0
63962,note_on,60,0,2,,,,,,,,,1,,,,75,0
63962,note_on,0,0,9,,,,,,,,,12,,,,60,72
63962,note_on,0,0,2,,,,,,,,,1,,,,72,95
63963,note_on,0,0,3,,,,,,,,,2,,,,60,0
63963,note_on,0,0,3,,,,,,,,,2,,,,57,96
63963,note_on,60,0,3,,,,,,,,,2,,,,63,0
63963,note_on,0,0,3,,,,,,,,,2,,,,60,96
63964,note_on,0,0,10,,,,,,,,,6,,,,45,62
63964,note_on,30,0,10,,,,,,,,,6,,,,51,0
63965,note_on,0,0,4,,,,,,,,,3,,,,48,95
63965,note_on,60,0,4,,,,,,,,,3,,,,51,0
63965,note_on,0,0,4,,,,,,,,,3,,,,48,0
63965,note_on,0,0,4,,,,,,,,,3,,,,45,95
63982,control_change,22,0,7,,,,,,,,,10,11,51,,,
63992,note_on,0,0,9,,,,,,,,,12,,,,57,72
63992,note_on,30,0,8,,,,,,,,,11,,,,60,0
63992,note_on,30,0,9,,,,,,,,,12,,,,60,0
63992,note_on,0,0,8,,,,,,,,,11,,,,57,74
63994,note_on,0,0,10,,,,,,,,,6,,,,48,62
63994,note_on,30,0,10,,,,,,,,,6,,,,45,0
64004,control_change,22,0,7,,,,,,,,,10,11,52,,,
64012,note_on,8,0,7,,,,,,,,,10,,,,65,0
64020,note_on,8,0,7,,,,,,,,,10,,,,67,95
64022,note_on,30,0,9,,,,,,,,,12,,,,57,0
64022,note_on,0,0,9,,,,,,,,,12,,,,62,72
64022,note_on,60,0,2,,,,,,,,,1,,,,72,0
64022,note_on,0,0,2,,,,,,,,,1,,,,74,95
64022,note_on,30,0,8,,,,,,,,,11,,,,57,0
64022,note_on,0,0,8,,,,,,,,,11,,,,62,74
64023,note_on,0,0,3,,,,,,,,,2,,,,58,96
64023,note_on,60,0,3,,,,,,,,,2,,,,57,0
64023,note_on,0,0,3,,,,,,,,,2,,,,60,0
64023,note_on,0,0,3,,,,,,,,,2,,,,62,96
64024,note_on,0,0,10,,,,,,,,,6,,,,46,62
64024,note_on,30,0,10,,,,,,,,,6,,,,48,0
64025,note_on,0,0,4,,,,,,,,,3,,,,50,95
64025,note_on,60,0,4,,,,,,,,,3,,,,48,0
64025,note_on,0,0,4,,,,,,,,,3,,,,45,0
64025,note_on,0,0,4,,,,,,,,,3,,,,46,95
64026,control_change,6,0,7,,,,,,,,,10,11,53,,,
64030,note_on,0,0,7,,,,,,,,,10,,,,65,95
64030,note_on,4,0,7,,,,,,,,,10,,,,67,0
64040,note_on,0,0,7,,,,,,,,,10,,,,67,95
64040,note_on,10,0,7,,,,,,,,,10,,,,65,0
64048,control_change,8,0,7,,,,,,,,,10,11,54,,,
64050,note_on,0,0,7,,,,,,,,,10,,,,65,95
64050,note_on,2,0,7,,,,,,,,,10,,,,67,0
64052,note_on,30,0,9,,,,,,,,,12,,,,62,0
64052,note_on,0,0,9,,,,,,,,,12,,,,58,72
64052,note_on,30,0,8,,,,,,,,,11,,,,62,0
64052,note_on,0,0,8,,,,,,,,,11,,,,58,74
64054,note_on,0,0,10,,,,,,,,,6,,,,50,62
64054,note_on,30,0,10,,,,,,,,,6,,,,46,0
64060,note_on,0,0,7,,,,,,,,,10,,,,67,87
64060,note_on,10,0,7,,,,,,,,,10,,,,65,0
64070,note_on,10,0,7,,,,,,,,,10,,,,67,0
64070,control_change,0,0,7,,,,,,,,,10,11,55,,,
64070,note_on,0,0,7,,,,,,,,,10,,,,65,95
64077,note_on,25,0,9,,,,,,,,,12,,,,58,0
64077,note_on,25,0,8,,,,,,,,,11,,,,58,0
64078,note_on,55,0,3,,,,,,,,,2,,,,62,0
64078,note_on,0,0,3,,,,,,,,,2,,,,58,0
64079,note_on,25,0,10,,,,,,,,,6,,,,50,0
64080,note_on,180,0,1,,,,,,,,,0,,,,75,96
64080,set_tempo,120,1,0,,,,,,1034483,,,,,,,,
64080,note_on,0,0,4,,,,,,,,,3,,,,46,0
64080,note_on,55,0,4,,,,,,,,,3,,,,50,0
64080,note_on,10,0,7,,,,,,,,,10,,,,65,0
64082,note_on,5,0,8,,,,,,,,,11,,,,63,74
64082,note_on,5,0,9,,,,,,,,,12,,,,63,72
64082,note_on,60,0,2,,,,,,,,,1,,,,74,0
64083,note_on,5,0,3,,,,,,,,,2,,,,63,96
64083,note_on,0,0,3,,,,,,,,,2,,,,60,96
64084,note_on,5,0,10,,,,,,,,,6,,,,48,62
64085,note_on,0,0,4,,,,,,,,,3,,,,51,95
64085,note_on,5,0,4,,,,,,,,,3,,,,48,95
64085,note_on,240,0,11,,,,,,,,,13,,,,41,43
64088,note_on,240,0,12,,,,,,,,,14,,,,29,36
64112,note_on,0,0,8,,,,,,,,,11,,,,60,74
64112,note_on,0,0,9,,,,,,,,,12,,,,60,72
64112,note_on,30,0,9,,,,,,,,,12,,,,63,0
64112,note_on,30,0,8,,,,,,,,,11,,,,63,0
64114,note_on,0,0,10,,,,,,,,,6,,,,51,62
64114,note_on,30,0,10,,,,,,,,,6,,,,48,0
64140,set_tempo,60,1,0,,,,,,937500,,,,,,,,
64140,note_on,0,0,1,,,,,,,,,0,,,,77,96
64140,note_on,60,0,1,,,,,,,,,0,,,,75,0
64140,control_change,60,0,7,,,,,,,,,10,11,47,,,
64140,note_on,0,0,7,,,,,,,,,10,,,,77,83
64142,note_on,30,0,9,,,,,,,,,12,,,,60,0
64142,note_on,30,0,8,,,,,,,,,11,,,,60,0
64142,note_on,0,0,8,,,,,,,,,11,,,,65,74
64142,note_on,0,0,9,,,,,,,,,12,,,,65,72
64143,note_on,0,0,3,,,,,,,,,2,,,,65,96
64143,note_on,0,0,3,,,,,,,,,2,,,,62,96
64143,note_on,60,0,3,,,,,,,,,2,,,,60,0
64143,note_on,0,0,3,,,,,,,,,2,,,,63,0
64144,note_on,30,0,10,,,,,,,,,6,,,,51,0
64144,note_on,0,0,10,,,,,,,,,6,,,,50,62
64145,note_on,0,0,4,,,,,,,,,3,,,,50,95
64145,note_on,0,0,4,,,,,,,,,3,,,,53,95
64145,note_on,60,0,4,,,,,,,,,3,,,,51,0
64145,note_on,0,0,4,,,,,,,,,3,,,,48,0
64162,control_change,22,0,7,,,,,,,,,10,11,48,,,
64172,note_on,30,0,8,,,,,,,,,11,,,,65,0
64172,note_on,0,0,8,,,,,,,,,11,,,,62,74
64172,note_on,30,0,9,,,,,,,,,12,,,,65,0
64172,note_on,0,0,9,,,,,,,,,12,,,,62,72
64174,note_on,30,0,10,,,,,,,,,6,,,,50,0
64174,note_on,0,0,10,,,,,,,,,6,,,,53,62
64184,control_change,22,0,7,,,,,,,,,10,11,49,,,
64192,note_on,8,0,7,,,,,,,,,10,,,,77,0
64200,note_on,60,0,1,,,,,,,,,0,,,,77,0
64200,note_on,8,0,7,,,,,,,,,10,,,,79,95
64200,note_on,0,0,1,,,,,,,,,0,,,,79,96
64202,note_on,0,0,8,,,,,,,,,11,,,,67,74
64202,note_on,30,0,8,,,,,,,,,11,,,,62,0
64202,note_on,0,0,9,,,,,,,,,12,,,,67,72
64202,note_on,30,0,9,,,,,,,,,12,,,,62,0
64203,note_on,60,0,3,,,,,,,,,2,,,,62,0
64203,note_on,0,0,3,,,,,,,,,2,,,,65,0
64203,note_on,0,0,3,,,,,,,,,2,,,,67,96
64203,note_on,0,0,3,,,,,,,,,2,,,,63,96
64204,note_on,0,0,10,,,,,,,,,6,,,,51,62
64204,note_on,30,0,10,,,,,,,,,6,,,,53,0
64205,note_on,0,0,4,,,,,,,,,3,,,,55,95
64205,note_on,0,0,4,,,,,,,,,3,,,,51,95
64205,note_on,0,0,4,,,,,,,,,3,,,,53,0
64205,note_on,120,0,11,,,,,,,,,13,,,,41,0
64205,note_on,60,0,4,,,,,,,,,3,,,,50,0
64206,control_change,6,0,7,,,,,,,,,10,11,50,,,
64208,note_on,120,0,12,,,,,,,,,14,,,,29,0
64210,note_on,4,0,7,,,,,,,,,10,,,,79,0
64210,note_on,0,0,7,,,,,,,,,10,,,,77,95
64220,note_on,10,0,7,,,,,,,,,10,,,,77,0
64220,note_on,0,0,7,,,,,,,,,10,,,,79,95
64228,control_change,8,0,7,,,,,,,,,10,11,51,,,
64230,note_on,0,0,7,,,,,,,,,10,,,,77,95
64230,note_on,2,0,7,,,,,,,,,10,,,,79,0
64232,note_on,30,0,9,,,,,,,,,12,,,,67,0
64232,note_on,30,0,8,,,,,,,,,11,,,,67,0
64232,note_on,0,0,8,,,,,,,,,11,,,,63,74
64232,note_on,0,0,9,,,,,,,,,12,,,,63,72
64234,note_on,0,0,10,,,,,,,,,6,,,,55,62
64234,note_on,30,0,10,,,,,,,,,6,,,,51,0
64240,note_on,10,0,7,,,,,,,,,10,,,,77,0
64240,note_on,0,0,7,,,,,,,,,10,,,,79,95
64250,note_on,10,0,7,,,,,,,,,10,,,,79,0
64250,control_change,0,0,7,,,,,,,,,10,11,52,,,
64250,note_on,0,0,7,,,,,,,,,10,,,,77,87
64260,note_on,10,0,7,,,,,,,,,10,,,,77,0
64260,set_tempo,120,1,0,,,,,,1034483,,,,,,,,
64260,note_on,60,0,1,,,,,,,,,0,,,,79,0
64262,note_on,30,0,9,,,,,,,,,12,,,,63,0
64262,note_on,0,0,9,,,,,,,,,12,,,,65,72
64262,note_on,30,0,8,,,,,,,,,11,,,,63,0
64262,note_on,0,0,8,,,,,,,,,11,,,,65,74
64262,note_on,180,0,2,,,,,,,,,1,,,,77,95
64263,note_on,0,0,3,,,,,,,,,2,,,,65,96
64263,note_on,0,0,3,,,,,,,,,2,,,,62,96
64263,note_on,60,0,3,,,,,,,,,2,,,,63,0
64263,note_on,0,0,3,,,,,,,,,2,,,,67,0
64264,note_on,0,0,10,,,,,,,,,6,,,,50,62
64264,note_on,30,0,10,,,,,,,,,6,,,,55,0
64265,note_on,0,0,4,,,,,,,,,3,,,,53,95
64265,note_on,0,0,4,,,,,,,,,3,,,,50,95
64265,note_on,0,0,4,,,,,,,,,3,,,,51,0
64265,note_on,60,0,4,,,,,,,,,3,,,,55,0
64292,note_on,30,0,8,,,,,,,,,11,,,,65,0
64292,note_on,0,0,8,,,,,,,,,11,,,,62,74
64292,note_on,30,0,9,,,,,,,,,12,,,,65,0
64292,note_on,0,0,9,,,,,,,,,12,,,,62,72
64294,note_on,30,0,10,,,,,,,,,6,,,,50,0
64294,note_on,0,0,10,,,,,,,,,6,,,,53,62
64320,control_change,60,0,7,,,,,,,,,10,11,47,,,
64320,note_on,0,0,7,,,,,,,,,10,,,,65,83
64320,set_tempo,60,1,0,,,,,,937500,,,,,,,,
64322,note_on,0,0,2,,,,,,,,,1,,,,74,95
64322,note_on,60,0,2,,,,,,,,,1,,,,77,0
64322,note_on,0,0,9,,,,,,,,,12,,,,62,72
64322,note_on,0,0,8,,,,,,,,,11,,,,62,74
64322,note_on,30,0,8,,,,,,,,,11,,,,62,0
64322,note_on,30,0,9,,,,,,,,,12,,,,62,0
64323,note_on,60,0,3,,,,,,,,,2,,,,65,0
64323,note_on,0,0,3,,,,,,,,,2,,,,62,0
64323,note_on,0,0,3,,,,,,,,,2,,,,62,96
64323,note_on,0,0,3,,,,,,,,,2,,,,58,96
64324,note_on,30,0,10,,,,,,,,,6,,,,53,0
64324,note_on,0,0,10,,,,,,,,,6,,,,46,62
64325,note_on,0,0,4,,,,,,,,,3,,,,50,95
64325,note_on,60,0,4,,,,,,,,,3,,,,53,0
64325,note_on,0,0,4,,,,,,,,,3,,,,50,0
64325,note_on,0,0,4,,,,,,,,,3,,,,46,95
64342,control_change,22,0,7,,,,,,,,,10,11,48,,,
64352,note_on,30,0,8,,,,,,,,,11,,,,62,0
64352,note_on,0,0,8,,,,,,,,,11,,,,58,74
64352,note_on,30,0,9,,,,,,,,,12,,,,62,0
64352,note_on,0,0,9,,,,,,,,,12,,,,58,72
64354,note_on,30,0,10,,,,,,,,,6,,,,46,0
64354,note_on,0,0,10,,,,,,,,,6,,,,50,62
64364,control_change,22,0,7,,,,,,,,,10,11,49,,,
64372,note_on,8,0,7,,,,,,,,,10,,,,65,0
64378,note_on,1015,0,5,,,,,,,,,4,,,,53,0
64380,note_on,8,0,7,,,,,,,,,10,,,,67,95
64380,note_on,1015,0,6,,,,,,,,,5,,,,41,0
64382,note_on,0,0,8,,,,,,,,,11,,,,63,74
64382,note_on,0,0,9,,,,,,,,,12,,,,63,72
64382,note_on,30,0,9,,,,,,,,,12,,,,58,0
64382,note_on,0,0,2,,,,,,,,,1,,,,75,95
64382,note_on,60,0,2,,,,,,,,,1,,,,74,0
64382,note_on,30,0,8,,,,,,,,,11,,,,58,0
64383,note_on,0,0,3,,,,,,,,,2,,,,63,96
64383,note_on,0,0,3,,,,,,,,,2,,,,62,0
64383,note_on,60,0,3,,,,,,,,,2,,,,58,0
64383,note_on,5,0,5,,,,,,,,,4,,,,53,82
64383,note_on,0,0,3,,,,,,,,,2,,,,60,96
64384,note_on,30,0,10,,,,,,,,,6,,,,50,0
64384,note_on,0,0,10,,,,,,,,,6,,,,48,62
64385,note_on,60,0,4,,,,,,,,,3,,,,50,0
64385,note_on,0,0,4,,,,,,,,,3,,,,46,0
64385,note_on,0,0,4,,,,,,,,,3,,,,51,95
64385,note_on,0,0,4,,,,,,,,,3,,,,48,95
64385,note_on,5,0,6,,,,,,,,,5,,,,41,82
64386,control_change,6,0,7,,,,,,,,,10,11,50,,,
64390,note_on,4,0,7,,,,,,,,,10,,,,67,0
64390,note_on,0,0,7,,,,,,,,,10,,,,65,95
64400,note_on,0,0,7,,,,,,,,,10,,,,67,95
64400,note_on,10,0,7,,,,,,,,,10,,,,65,0
64408,control_change,8,0,7,,,,,,,,,10,11,51,,,
64410,note_on,0,0,7,,,,,,,,,10,,,,65,95
64410,note_on,2,0,7,,,,,,,,,10,,,,67,0
64412,note_on,0,0,8,,,,,,,,,11,,,,60,74
64412,note_on,30,0,9,,,,,,,,,12,,,,63,0
64412,note_on,0,0,9,,,,,,,,,12,,,,60,72
64412,note_on,30,0,8,,,,,,,,,11,,,,63,0
64414,note_on,30,0,10,,,,,,,,,6,,,,48,0
64414,note_on,0,0,10,,,,,,,,,6,,,,51,62
64420,note_on,10,0,7,,,,,,,,,10,,,,65,0
64420,note_on,0,0,7,,,,,,,,,10,,,,67,95
64430,note_on,10,0,7,,,,,,,,,10,,,,67,0
64430,control_change,0,0,7,,,,,,,,,10,11,52,,,
64430,note_on,0,0,7,,,,,,,,,10,,,,65,87
64440,note_on,180,0,1,,,,,,,,,0,,,,72,96
64440,set_tempo,120,1,0,,,,,,1034483,,,,,,,,
64440,note_on,10,0,7,,,,,,,,,10,,,,65,0
64442,note_on,0,0,9,,,,,,,,,12,,,,60,72
64442,note_on,30,0,9,,,,,,,,,12,,,,60,0
64442,note_on,60,0,2,,,,,,,,,1,,,,75,0
64442,note_on,30,0,8,,,,,,,,,11,,,,60,0
64442,note_on,0,0,8,,,,,,,,,11,,,,60,74
64443,note_on,0,0,3,,,,,,,,,2,,,,60,96
64443,note_on,60,0,3,,,,,,,,,2,,,,63,0
64443,note_on,0,0,3,,,,,,,,,2,,,,60,0
64443,note_on,0,0,3,,,,,,,,,2,,,,57,96
64444,note_on,0,0,10,,,,,,,,,6,,,,45,62
64444,note_on,30,0,10,,,,,,,,,6,,,,51,0
64445,note_on,240,0,11,,,,,,,,,13,,,,41,43
64445,note_on,0,0,4,,,,,,,,,3,,,,48,95
64445,note_on,0,0,4,,,,,,,,,3,,,,45,95
64445,note_on,0,0,4,,,,,,,,,3,,,,51,0
64445,note_on,60,0,4,,,,,,,,,3,,,,48,0
64448,note_on,240,0,12,,,,,,,,,14,,,,29,36
64472,note_on,30,0,9,,,,,,,,,12,,,,60,0
64472,note_on,30,0,8,,,,,,,,,11,,,,60,0
64472,note_on,0,0,9,,,,,,,,,12,,,,57,72
64472,note_on,0,0,8,,,,,,,,,11,,,,57,74
64474,note_on,0,0,10,,,,,,,,,6,,,,48,62
64474,note_on,30,0,10,,,,,,,,,6,,,,45,0
64500,note_on,60,0,1,,,,,,,,,0,,,,72,0
64500,note_on,0,0,7,,,,,,,,,10,,,,77,83
64500,control_change,60,0,7,,,,,,,,,10,11,47,,,
64500,note_on,0,0,1,,,,,,,,,0,,,,74,96
64500,set_tempo,60,1,0,,,,,,937500,,,,,,,,
64502,note_on,0,0,9,,,,,,,,,12,,,,62,72
64502,note_on,30,0,8,,,,,,,,,11,,,,57,0
64502,note_on,30,0,9,,,,,,,,,12,,,,57,0
64502,note_on,0,0,8,,,,,,,,,11,,,,62,74
64503,note_on,0,0,3,,,,,,,,,2,,,,57,0
64503,note_on,60,0,3,,,,,,,,,2,,,,60,0
64503,note_on,0,0,3,,,,,,,,,2,,,,62,96
64503,note_on,0,0,3,,,,,,,,,2,,,,58,96
64504,note_on,0,0,10,,,,,,,,,6,,,,46,62
64504,note_on,30,0,10,,,,,,,,,6,,,,48,0
64505,note_on,0,0,4,,,,,,,,,3,,,,50,95
64505,note_on,60,0,4,,,,,,,,,3,,,,48,0
64505,note_on,0,0,4,,,,,,,,,3,,,,45,0
64505,note_on,0,0,4,,,,,,,,,3,,,,46,95
64520,control_change,20,0,7,,,,,,,,,10,11,48,,,
64532,note_on,0,0,8,,,,,,,,,11,,,,58,74
64532,note_on,30,0,8,,,,,,,,,11,,,,62,0
64532,note_on,0,0,9,,,,,,,,,12,,,,58,72
64532,note_on,30,0,9,,,,,,,,,12,,,,62,0
64534,note_on,30,0,10,,,,,,,,,6,,,,46,0
64534,note_on,0,0,10,,,,,,,,,6,,,,50,62
64540,control_change,20,0,7,,,,,,,,,10,11,49,,,
64552,note_on,12,0,7,,,,,,,,,10,,,,77,0
64560,note_on,60,0,1,,,,,,,,,0,,,,74,0
64560,note_on,0,0,1,,,,,,,,,0,,,,75,96
64560,control_change,8,0,7,,,,,,,,,10,11,50,,,
64560,note_on,0,0,7,,,,,,,,,10,,,,79,95
64562,note_on,0,0,9,,,,,,,,,12,,,,63,72
64562,note_on,30,0,9,,,,,,,,,12,,,,58,0
64562,note_on,0,0,8,,,,,,,,,11,,,,63,74
64562,note_on,30,0,8,,,,,,,,,11,,,,58,0
64563,note_on,60,0,3,,,,,,,,,2,,,,58,0
64563,note_on,0,0,3,,,,,,,,,2,,,,62,0
64563,note_on,0,0,3,,,,,,,,,2,,,,60,96
64563,note_on,0,0,3,,,,,,,,,2,,,,63,96
64564,note_on,0,0,10,,,,,,,,,6,,,,48,62
64564,note_on,30,0,10,,,,,,,,,6,,,,50,0
64565,note_on,120,0,11,,,,,,,,,13,,,,41,0
64565,note_on,60,0,4,,,,,,,,,3,,,,46,0
64565,note_on,0,0,4,,,,,,,,,3,,,,50,0
64565,note_on,0,0,4,,,,,,,,,3,,,,51,95
64565,note_on,0,0,4,,,,,,,,,3,,,,48,95
64568,note_on,120,0,12,,,,,,,,,14,,,,29,0
64570,note_on,0,0,7,,,,,,,,,10,,,,77,95
64570,note_on,10,0,7,,,,,,,,,10,,,,79,0
64580,note_on,0,0,7,,,,,,,,,10,,,,79,95
64580,note_on,10,0,7,,,,,,,,,10,,,,77,0
64580,control_change,0,0,7,,,,,,,,,10,11,51,,,
64590,note_on,0,0,7,,,,,,,,,10,,,,77,95
64590,note_on,10,0,7,,,,,,,,,10,,,,79,0
64592,note_on,0,0,8,,,,,,,,,11,,,,60,74
64592,note_on,30,0,9,,,,,,,,,12,,,,63,0
64592,note_on,0,0,9,,,,,,,,,12,,,,60,72
64592,note_on,30,0,8,,,,,,,,,11,,,,63,0
64594,note_on,30,0,10,,,,,,,,,6,,,,48,0
64594,note_on,0,0,10,,,,,,,,,6,,,,51,62
64600,note_on,0,0,7,,,,,,,,,10,,,,79,95
64600,control_change,0,0,7,,,,,,,,,10,11,52,,,
64600,note_on,10,0,7,,,,,,,,,10,,,,77,0
64610,note_on,0,0,7,,,,,,,,,10,,,,77,87
64610,note_on,10,0,7,,,,,,,,,10,,,,79,0
64620,note_on,10,0,7,,,,,,,,,10,,,,77,0
64620,set_tempo,120,1,0,,,,,,1034483,,,,,,,,
64620,note_on,60,0,1,,,,,,,,,0,,,,75,0
64622,note_on,30,0,9,,,,,,,,,12,,,,60,0
64622,note_on,30,0,8,,,,,,,,,11,,,,60,0
64622,note_on,0,0,9,,,,,,,,,12,,,,65,72
64622,note_on,180,0,2,,,,,,,,,1,,,,77,95
64622,note_on,0,0,8,,,,,,,,,11,,,,65,74
64623,note_on,0,0,3,,,,,,,,,2,,,,65,96
64623,note_on,0,0,3,,,,,,,,,2,,,,62,96
64623,note_on,0,0,3,,,,,,,,,2,,,,63,0
64623,note_on,60,0,3,,,,,,,,,2,,,,60,0
64624,note_on,30,0,10,,,,,,,,,6,,,,51,0
64624,note_on,0,0,10,,,,,,,,,6,,,,50,62
64625,note_on,0,0,4,,,,,,,,,3,,,,51,0
64625,note_on,60,0,4,,,,,,,,,3,,,,48,0
64625,note_on,0,0,4,,,,,,,,,3,,,,50,95
64625,note_on,0,0,4,,,,,,,,,3,,,,53,95
64652,note_on,30,0,9,,,,,,,,,12,,,,65,0
64652,note_on,0,0,9,,,,,,,,,12,,,,62,72
64652,note_on,30,0,8,,,,,,,,,11,,,,65,0
64652,note_on,0,0,8,,,,,,,,,11,,,,62,74
64654,note_on,0,0,10,,,,,,,,,6,,,,53,62
64654,note_on,30,0,10,,,,,,,,,6,,,,50,0
64680,control_change,60,0,7,,,,,,,,,10,11,47,,,
64680,set_tempo,60,1,0,,,,,,937500,,,,,,,,
64680,note_on,0,0,7,,,,,,,,,10,,,,65,83
64682,note_on,0,0,8,,,,,,,,,11,,,,67,74
64682,note_on,30,0,9,,,,,,,,,12,,,,62,0
64682,note_on,30,0,8,,,,,,,,,11,,,,62,0
64682,note_on,0,0,2,,,,,,,,,1,,,,79,95
64682,note_on,60,0,2,,,,,,,,,1,,,,77,0
64682,note_on,0,0,9,,,,,,,,,12,,,,67,72
64683,note_on,60,0,3,,,,,,,,,2,,,,65,0
64683,note_on,0,0,3,,,,,,,,,2,,,,67,96
64683,note_on,0,0,3,,,,,,,,,2,,,,62,0
64683,note_on,0,0,3,,,,,,,,,2,,,,63,96
64684,note_on,0,0,10,,,,,,,,,6,,,,51,62
64684,note_on,30,0,10,,,,,,,,,6,,,,53,0
64685,note_on,0,0,4,,,,,,,,,3,,,,51,95
64685,note_on,60,0,4,,,,,,,,,3,,,,50,0
64685,note_on,0,0,4,,,,,,,,,3,,,,53,0
64685,note_on,0,0,4,,,,,,,,,3,,,,55,95
64702,control_change,22,0,7,,,,,,,,,10,11,48,,,
64712,note_on,0,0,8,,,,,,,,,11,,,,63,74
64712,note_on,0,0,9,,,,,,,,,12,,,,63,72
64712,note_on,30,0,9,,,,,,,,,12,,,,67,0
64712,note_on,30,0,8,,,,,,,,,11,,,,67,0
64714,note_on,30,0,10,,,,,,,,,6,,,,51,0
64714,note_on,0,0,10,,,,,,,,,6,,,,55,62
64724,control_change,22,0,7,,,,,,,,,10,11,49,,,
64732,note_on,8,0,7,,,,,,,,,10,,,,65,0
64738,note_on,355,0,5,,,,,,,,,4,,,,53,0
64740,note_on,8,0,7,,,,,,,,,10,,,,67,95
64740,note_on,355,0,6,,,,,,,,,5,,,,41,0
64742,note_on,30,0,9,,,,,,,,,12,,,,63,0
64742,note_on,0,0,8,,,,,,,,,11,,,,63,74
64742,note_on,30,0,8,,,,,,,,,11,,,,63,0
64742,note_on,0,0,2,,,,,,,,,1,,,,75,95
64742,note_on,60,0,2,,,,,,,,,1,,,,79,0
64742,note_on,0,0,9,,,,,,,,,12,,,,63,72
64743,note_on,0,0,3,,,,,,,,,2,,,,60,96
64743,note_on,0,0,3,,,,,,,,,2,,,,63,96
64743,note_on,60,0,3,,,,,,,,,2,,,,67,0
64743,note_on,5,0,5,,,,,,,,,4,,,,53,82
64743,note_on,0,0,3,,,,,,,,,2,,,,63,0
64744,note_on,0,0,10,,,,,,,,,6,,,,48,62
64744,note_on,30,0,10,,,,,,,,,6,,,,55,0
64745,note_on,0,0,4,,,,,,,,,3,,,,48,95
64745,note_on,0,0,4,,,,,,,,,3,,,,51,95
64745,note_on,0,0,4,,,,,,,,,3,,,,55,0
64745,note_on,60,0,4,,,,,,,,,3,,,,51,0
64745,note_on,5,0,6,,,,,,,,,5,,,,41,82
64746,control_change,6,0,7,,,,,,,,,10,11,50,,,
64750,note_on,0,0,7,,,,,,,,,10,,,,65,95
64750,note_on,4,0,7,,,,,,,,,10,,,,67,0
64760,note_on,0,0,7,,,,,,,,,10,,,,67,95
64760,note_on,10,0,7,,,,,,,,,10,,,,65,0
64768,control_change,8,0,7,,,,,,,,,10,11,51,,,
64770,note_on,0,0,7,,,,,,,,,10,,,,65,95
64770,note_on,2,0,7,,,,,,,,,10,,,,67,0
64772,note_on,0,0,8,,,,,,,,,11,,,,60,74
64772,note_on,30,0,8,,,,,,,,,11,,,,63,0
64772,note_on,30,0,9,,,,,,,,,12,,,,63,0
64772,note_on,0,0,9,,,,,,,,,12,,,,60,72
64774,note_on,0,0,10,,,,,,,,,6,,,,51,62
64774,note_on,30,0,10,,,,,,,,,6,,,,48,0
64780,note_on,10,0,7,,,,,,,,,10,,,,65,0
64780,note_on,0,0,7,,,,,,,,,10,,,,67,87
64790,note_on,10,0,7,,,,,,,,,10,,,,67,0
64790,control_change,0,0,7,,,,,,,,,10,11,52,,,
64790,note_on,0,0,7,,,,,,,,,10,,,,65,95
64797,note_on,25,0,8,,,,,,,,,11,,,,60,0
64797,note_on,25,0,9,,,,,,,,,12,,,,60,0
64798,note_on,55,0,3,,,,,,,,,2,,,,60,0
64798,note_on,0,0,3,,,,,,,,,2,,,,63,0
64799,note_on,25,0,10,,,,,,,,,6,,,,51,0
64800,set_tempo,120,1,0,,,,,,975610,,,,,,,,
64800,note_on,55,0,4,,,,,,,,,3,,,,48,0
64800,note_on,180,0,1,,,,,,,,,0,,,,77,96
64800,note_on,0,0,4,,,,,,,,,3,,,,51,0
64800,note_on,10,0,7,,,,,,,,,10,,,,65,0
64802,note_on,60,0,2,,,,,,,,,1,,,,75,0
64802,note_on,5,0,8,,,,,,,,,11,,,,65,74
64802,note_on,5,0,9,,,,,,,,,12,,,,65,72
64803,note_on,0,0,3,,,,,,,,,2,,,,62,96
64803,note_on,5,0,3,,,,,,,,,2,,,,65,96
64804,note_on,5,0,10,,,,,,,,,6,,,,50,62
64805,note_on,0,0,4,,,,,,,,,3,,,,53,95
64805,note_on,240,0,11,,,,,,,,,13,,,,41,43
64805,note_on,5,0,4,,,,,,,,,3,,,,50,95
64808,note_on,240,0,12,,,,,,,,,14,,,,29,36
64830,note_on,0,0,7,,,,,,,,,10,,,,77,103
64830,control_change,30,0,7,,,,,,,,,10,11,42,,,
64832,note_on,0,0,9,,,,,,,,,12,,,,62,72
64832,note_on,0,0,8,,,,,,,,,11,,,,62,74
64832,note_on,30,0,8,,,,,,,,,11,,,,65,0
64832,note_on,30,0,9,,,,,,,,,12,,,,65,0
64834,note_on,0,0,10,,,,,,,,,6,,,,53,62
64834,note_on,30,0,10,,,,,,,,,6,,,,50,0
64845,control_change,15,0,7,,,,,,,,,10,11,43,,,
64850,note_on,5,0,7,,,,,,,,,10,,,,77,0
64860,set_tempo,60,1,0,,,,,,937500,,,,,,,,
64860,control_change,10,0,7,,,,,,,,,10,11,44,,,
64860,note_on,0,0,7,,,,,,,,,10,,,,77,103
64860,note_on,0,0,1,,,,,,,,,0,,,,74,96
64860,note_on,60,0,1,,,,,,,,,0,,,,77,0
64862,note_on,30,0,9,,,,,,,,,12,,,,62,0
64862,note_on,0,0,8,,,,,,,,,11,,,,62,74
64862,note_on,30,0,8,,,,,,,,,11,,,,62,0
64862,note_on,0,0,9,,,,,,,,,12,,,,62,72
64863,note_on,0,0,3,,,,,,,,,2,,,,58,96
64863,note_on,60,0,3,,,,,,,,,2,,,,62,0
64863,note_on,0,0,3,,,,,,,,,2,,,,65,0
64863,note_on,0,0,3,,,,,,,,,2,,,,62,96
64864,note_on,0,0,10,,,,,,,,,6,,,,46,62
64864,note_on,30,0,10,,,,,,,,,6,,,,53,0
64865,note_on,60,0,4,,,,,,,,,3,,,,53,0
64865,note_on,0,0,4,,,,,,,,,3,,,,50,0
64865,note_on,0,0,4,,,,,,,,,3,,,,46,95
64865,note_on,0,0,4,,,,,,,,,3,,,,50,95
64875,control_change,15,0,7,,,,,,,,,10,11,45,,,
64880,note_on,5,0,7,,,,,,,,,10,,,,77,0
64890,note_on,0,0,7,,,,,,,,,10,,,,77,103
64890,control_change,10,0,7,,,,,,,,,10,11,46,,,
64892,note_on,0,0,9,,,,,,,,,12,,,,58,72
64892,note_on,0,0,8,,,,,,,,,11,,,,58,74
64892,note_on,30,0,8,,,,,,,,,11,,,,62,0
64892,note_on,30,0,9,,,,,,,,,12,,,,62,0
64894,note_on,30,0,10,,,,,,,,,6,,,,46,0
64894,note_on,0,0,10,,,,,,,,,6,,,,50,62
64905,control_change,15,0,7,,,,,,,,,10,11,47,,,
64910,note_on,5,0,7,,,,,,,,,10,,,,77,0
64918,note_on,175,0,5,,,,,,,,,4,,,,53,0
64920,note_on,175,0,6,,,,,,,,,5,,,,41,0
64920,note_on,0,0,7,,,,,,,,,10,,,,77,103
64920,note_on,60,0,1,,,,,,,,,0,,,,74,0
64920,note_on,0,0,1,,,,,,,,,0,,,,75,96
64920,control_change,10,0,7,,,,,,,,,10,11,48,,,
64922,note_on,30,0,8,,,,,,,,,11,,,,58,0
64922,note_on,0,0,9,,,,,,,,,12,,,,63,72
64922,note_on,0,0,8,,,,,,,,,11,,,,63,74
64922,note_on,30,0,9,,,,,,,,,12,,,,58,0
64923,note_on,60,0,3,,,,,,,,,2,,,,62,0
64923,note_on,5,0,5,,,,,,,,,4,,,,53,82
64923,note_on,0,0,3,,,,,,,,,2,,,,60,96
64923,note_on,0,0,3,,,,,,,,,2,,,,63,96
64923,note_on,0,0,3,,,,,,,,,2,,,,58,0
64924,note_on,0,0,10,,,,,,,,,6,,,,48,62
64924,note_on,30,0,10,,,,,,,,,6,,,,50,0
64925,note_on,60,0,4,,,,,,,,,3,,,,50,0
64925,note_on,0,0,4,,,,,,,,,3,,,,48,95
64925,note_on,5,0,6,,,,,,,,,5,,,,41,82
64925,note_on,0,0,4,,,,,,,,,3,,,,46,0
64925,note_on,120,0,11,,,,,,,,,13,,,,41,0
64925,note_on,0,0,4,,,,,,,,,3,,,,51,95
64928,note_on,120,0,12,,,,,,,,,14,,,,29,0
64935,control_change,15,0,7,,,,,,,,,10,11,49,,,
64940,note_on,5,0,7,,,,,,,,,10,,,,77,0
64950,control_change,10,0,7,,,,,,,,,10,11,50,,,
64950,note_on,0,0,7,,,,,,,,,10,,,,77,103
64952,note_on,0,0,8,,,,,,,,,11,,,,60,74
64952,note_on,30,0,8,,,,,,,,,11,,,,63,0
64952,note_on,0,0,9,,,,,,,,,12,,,,60,72
64952,note_on,30,0,9,,,,,,,,,12,,,,63,0
64954,note_on,0,0,10,,,,,,,,,6,,,,51,62
64954,note_on,30,0,10,,,,,,,,,6,,,,48,0
64965,control_change,15,0,7,,,,,,,,,10,11,51,,,
64970,note_on,5,0,7,,,,,,,,,10,,,,77,0
64980,note_on,0,0,7,,,,,,,,,10,,,,77,103
64980,note_on,60,0,1,,,,,,,,,0,,,,75,0
64980,set_tempo,120,1,0,,,,,,975610,,,,,,,,
64980,control_change,10,0,7,,,,,,,,,10,11,52,,,
64982,note_on,180,0,2,,,,,,,,,1,,,,72,95
64982,note_on,30,0,9,,,,,,,,,12,,,,60,0
64982,note_on,30,0,8,,,,,,,,,11,,,,60,0
64982,note_on,0,0,8,,,,,,,,,11,,,,60,74
64982,note_on,0,0,9,,,,,,,,,12,,,,60,72
64983,note_on,60,0,3,,,,,,,,,2,,,,63,0
64983,note_on,0,0,3,,,,,,,,,2,,,,60,96
64983,note_on,0,0,3,,,,,,,,,2,,,,57,96
64983,note_on,0,0,3,,,,,,,,,2,,,,60,0
64984,note_on,0,0,10,,,,,,,,,6,,,,45,62
64984,note_on,30,0,10,,,,,,,,,6,,,,51,0
64985,note_on,0,0,4,,,,,,,,,3,,,,45,95
64985,note_on,60,0,4,,,,,,,,,3,,,,51,0
64985,note_on,60,0,11,,,,,,,,,13,,,,41,43
64985,note_on,0,0,4,,,,,,,,,3,,,,48,0
64985,note_on,0,0,4,,,,,,,,,3,,,,48,95
64988,note_on,60,0,12,,,,,,,,,14,,,,29,36
65000,note_on,20,0,7,,,,,,,,,10,,,,77,0
65010,note_on,10,0,7,,,,,,,,,10,,,,77,103
65012,note_on,30,0,8,,,,,,,,,11,,,,60,0
65012,note_on,0,0,9,,,,,,,,,12,,,,57,72
65012,note_on,30,0,9,,,,,,,,,12,,,,60,0
65012,note_on,0,0,8,,,,,,,,,11,,,,57,74
65014,note_on,30,0,10,,,,,,,,,6,,,,45,0
65014,note_on,0,0,10,,,,,,,,,6,,,,48,62
65030,note_on,20,0,7,,,,,,,,,10,,,,77,0
65040,note_on,10,0,7,,,,,,,,,10,,,,77,103
65040,set_tempo,60,1,0,,,,,,937500,,,,,,,,
65042,note_on,30,0,9,,,,,,,,,12,,,,57,0
65042,note_on,60,0,2,,,,,,,,,1,,,,72,0
65042,note_on,0,0,2,,,,,,,,,1,,,,74,95
65042,note_on,0,0,9,,,,,,,,,12,,,,62,72
65042,note_on,30,0,8,,,,,,,,,11,,,,57,0
65042,note_on,0,0,8,,,,,,,,,11,,,,62,74
65043,note_on,0,0,3,,,,,,,,,2,,,,62,96
65043,note_on,0,0,3,,,,,,,,,2,,,,60,0
65043,note_on,60,0,3,,,,,,,,,2,,,,57,0
65043,note_on,0,0,3,,,,,,,,,2,,,,58,96
65044,note_on,30,0,10,,,,,,,,,6,,,,48,0
65044,note_on,0,0,10,,,,,,,,,6,,,,46,62
65045,note_on,60,0,4,,,,,,,,,3,,,,48,0
65045,note_on,0,0,4,,,,,,,,,3,,,,45,0
65045,note_on,0,0,4,,,,,,,,,3,,,,46,95
65045,note_on,0,0,4,,,,,,,,,3,,,,50,95
65060,note_on,20,0,7,,,,,,,,,10,,,,77,0
65070,note_on,10,0,7,,,,,,,,,10,,,,77,103
65072,note_on,0,0,9,,,,,,,,,12,,,,58,72
65072,note_on,0,0,8,,,,,,,,,11,,,,58,74
65072,note_on,30,0,8,,,,,,,,,11,,,,62,0
65072,note_on,30,0,9,,,,,,,,,12,,,,62,0
65074,note_on,30,0,10,,,,,,,,,6,,,,46,0
65074,note_on,0,0,10,,,,,,,,,6,,,,50,62
65090,note_on,20,0,7,,,,,,,,,10,,,,77,0
65098,note_on,175,0,5,,,,,,,,,4,,,,53,0
65100,note_on,175,0,6,,,,,,,,,5,,,,41,0
65100,note_on,10,0,7,,,,,,,,,10,,,,77,103
65102,note_on,30,0,9,,,,,,,,,12,,,,58,0
65102,note_on,0,0,9,,,,,,,,,12,,,,63,72
65102,note_on,0,0,2,,,,,,,,,1,,,,75,95
65102,note_on,30,0,8,,,,,,,,,11,,,,58,0
65102,note_on,0,0,8,,,,,,,,,11,,,,63,74
65102,note_on,60,0,2,,,,,,,,,1,,,,74,0
65103,note_on,0,0,3,,,,,,,,,2,,,,62,0
65103,note_on,0,0,3,,,,,,,,,2,,,,60,96
65103,note_on,0,0,3,,,,,,,,,2,,,,63,96
65103,note_on,5,0,5,,,,,,,,,4,,,,53,82
65103,note_on,60,0,3,,,,,,,,,2,,,,58,0
65104,note_on,30,0,10,,,,,,,,,6,,,,50,0
65104,note_on,0,0,10,,,,,,,,,6,,,,48,62
65105,note_on,60,0,4,,,,,,,,,3,,,,50,0
65105,note_on,5,0,6,,,,,,,,,5,,,,41,82
65105,note_on,0,0,4,,,,,,,,,3,,,,46,0
65105,note_on,120,0,11,,,,,,,,,13,,,,41,0
65105,note_on,0,0,4,,,,,,,,,3,,,,48,95
65105,note_on,0,0,4,,,,,,,,,3,,,,51,95
65108,note_on,120,0,12,,,,,,,,,14,,,,29,0
65120,note_on,20,0,7,,,,,,,,,10,,,,77,0
65130,note_on,10,0,7,,,,,,,,,10,,,,77,103
65132,note_on,0,0,8,,,,,,,,,11,,,,60,74
65132,note_on,30,0,8,,,,,,,,,11,,,,63,0
65132,note_on,30,0,9,,,,,,,,,12,,,,63,0
65132,note_on,0,0,9,,,,,,,,,12,,,,60,72
65134,note_on,0,0,10,,,,,,,,,6,,,,51,62
65134,note_on,30,0,10,,,,,,,,,6,,,,48,0
65150,note_on,20,0,7,,,,,,,,,10,,,,77,0
65157,note_on,55,0,2,,,,,,,,,1,,,,75,0
65160,control_change,10,0,7,,,,,,,,,10,11,52,,,
65160,note_on,0,0,7,,,,,,,,,10,,,,77,103
65160,control_change,180,0,1,,,,,,,,,0,11,47,,,
65160,note_on,0,0,1,,,,,,,,,0,,,,89,96
65160,set_tempo,120,1,0,,,,,,967742,,,,,,,,
65160,note_on,0,0,1,,,,,,,,,0,,,,86,96
65162,control_change,0,0,9,,,,,,,,,12,11,37,,,
65162,note_on,0,0,9,,,,,,,,,12,,,,65,72
65162,control_change,5,0,2,,,,,,,,,1,11,47,,,
65162,note_on,30,0,8,,,,,,,,,11,,,,60,0
65162,control_change,0,0,8,,,,,,,,,11,11,37,,,
65162,note_on,0,0,8,,,,,,,,,11,,,,65,74
65162,note_on,0,0,2,,,,,,,,,1,,,,74,95
65162,note_on,30,0,9,,,,,,,,,12,,,,60,0
65162,note_on,0,0,2,,,,,,,,,1,,,,77,95
65163,note_on,0,0,3,,,,,,,,,2,,,,60,0
65163,note_on,60,0,3,,,,,,,,,2,,,,63,0
65163,control_change,60,0,5,,,,,,,,,4,11,42,,,
65163,note_on,0,0,3,,,,,,,,,2,,,,65,96
65163,note_on,0,0,3,,,,,,,,,2,,,,62,96
65163,control_change,0,0,3,,,,,,,,,2,11,47,,,
65164,note_on,0,0,10,,,,,,,,,6,,,,50,62
65164,control_change,0,0,10,,,,,,,,,6,11,37,,,
65164,note_on,30,0,10,,,,,,,,,6,,,,51,0
65165,note_on,0,0,4,,,,,,,,,3,,,,53,95
65165,control_change,0,0,4,,,,,,,,,3,11,47,,,
65165,note_on,60,0,4,,,,,,,,,3,,,,51,0
65165,note_on,0,0,4,,,,,,,,,3,,,,50,95
65165,note_on,60,0,11,,,,,,,,,13,,,,41,43
65165,control_change,60,0,6,,,,,,,,,5,11,42,,,
65165,note_on,0,0,4,,,,,,,,,3,,,,48,0
65168,note_on,60,0,12,,,,,,,,,14,,,,29,36
65178,control_change,16,0,8,,,,,,,,,11,11,39,,,
65178,control_change,18,0,1,,,,,,,,,0,11,48,,,
65178,control_change,16,0,9,,,,,,,,,12,11,39,,,
65180,note_on,20,0,7,,,,,,,,,10,,,,77,0
65180,control_change,16,0,10,,,,,,,,,6,11,39,,,
65180,control_change,18,0,2,,,,,,,,,1,11,48,,,
65181,control_change,18,0,3,,,,,,,,,2,11,48,,,
65181,control_change,18,0,5,,,,,,,,,4,11,43,,,
65183,control_change,18,0,6,,,,,,,,,5,11,43,,,
65183,control_change,18,0,4,,,,,,,,,3,11,48,,,
65186,control_change,6,0,7,,,,,,,,,10,11,54,,,
65190,note_on,4,0,7,,,,,,,,,10,,,,77,103
65192,note_on,0,0,9,,,,,,,,,12,,,,62,72
65192,note_on,14,0,9,,,,,,,,,12,,,,65,0
65192,note_on,14,0,8,,,,,,,,,11,,,,65,0
65192,note_on,0,0,8,,,,,,,,,11,,,,62,74
65194,note_on,14,0,10,,,,,,,,,6,,,,50,0
65194,note_on,0,0,10,,,,,,,,,6,,,,53,62
65195,control_change,3,0,9,,,,,,,,,12,11,41,,,
65195,control_change,3,0,8,,,,,,,,,11,11,41,,,
65197,control_change,3,0,10,,,,,,,,,6,11,41,,,
65210,note_on,20,0,7,,,,,,,,,10,,,,77,0
65211,control_change,16,0,9,,,,,,,,,12,11,43,,,
65211,control_change,16,0,8,,,,,,,,,11,11,43,,,
65212,control_change,2,0,7,,,,,,,,,10,11,56,,,
65213,control_change,16,0,10,,,,,,,,,6,11,43,,,
65214,control_change,36,0,1,,,,,,,,,0,11,50,,,
65216,control_change,36,0,2,,,,,,,,,1,11,50,,,
65217,control_change,36,0,5,,,,,,,,,4,11,45,,,
65217,control_change,36,0,3,,,,,,,,,2,11,50,,,
65219,control_change,36,0,6,,,,,,,,,5,11,45,,,
65219,control_change,36,0,4,,,,,,,,,3,11,50,,,
65220,note_on,6,0,1,,,,,,,,,0,,,,89,0
65220,note_on,8,0,7,,,,,,,,,10,,,,77,103
65220,note_on,0,0,1,,,,,,,,,0,,,,82,96
65220,set_tempo,60,1,0,,,,,,937500,,,,,,,,
65220,note_on,0,0,1,,,,,,,,,0,,,,86,0
65220,note_on,0,0,1,,,,,,,,,0,,,,86,96
65222,note_on,0,0,2,,,,,,,,,1,,,,74,0
65222,note_on,6,0,2,,,,,,,,,1,,,,77,0
65222,note_on,0,0,2,,,,,,,,,1,,,,74,95
65222,note_on,0,0,9,,,,,,,,,12,,,,62,72
65222,note_on,11,0,8,,,,,,,,,11,,,,62,0
65222,note_on,0,0,8,,,,,,,,,11,,,,62,74
65222,note_on,0,0,2,,,,,,,,,1,,,,70,95
65222,note_on,11,0,9,,,,,,,,,12,,,,62,0
65223,note_on,6,0,3,,,,,,,,,2,,,,62,0
65223,note_on,0,0,3,,,,,,,,,2,,,,65,0
65223,note_on,0,0,3,,,,,,,,,2,,,,62,96
65223,note_on,0,0,3,,,,,,,,,2,,,,58,96
65224,note_on,11,0,10,,,,,,,,,6,,,,53,0
65224,note_on,0,0,10,,,,,,,,,6,,,,46,62
65225,note_on,0,0,4,,,,,,,,,3,,,,53,0
65225,note_on,6,0,4,,,,,,,,,3,,,,50,0
65225,note_on,0,0,4,,,,,,,,,3,,,,50,95
65225,note_on,0,0,4,,,,,,,,,3,,,,46,95
65228,control_change,6,0,8,,,,,,,,,11,11,45,,,
65228,control_change,6,0,9,,,,,,,,,12,11,45,,,
65230,control_change,6,0,10,,,,,,,,,6,11,45,,,
65239,control_change,19,0,7,,,,,,,,,10,11,58,,,
65240,note_on,1,0,7,,,,,,,,,10,,,,77,0
65244,control_change,16,0,8,,,,,,,,,11,11,47,,,
65244,control_change,16,0,9,,,,,,,,,12,11,47,,,
65246,control_change,16,0,10,,,,,,,,,6,11,47,,,
65250,note_on,10,0,7,,,,,,,,,10,,,,77,103
65250,control_change,30,0,1,,,,,,,,,0,11,52,,,
65252,note_on,8,0,9,,,,,,,,,12,,,,62,0
65252,control_change,30,0,2,,,,,,,,,1,11,52,,,
65252,note_on,8,0,8,,,,,,,,,11,,,,62,0
65252,note_on,0,0,8,,,,,,,,,11,,,,58,74
65252,note_on,0,0,9,,,,,,,,,12,,,,58,72
65253,control_change,30,0,3,,,,,,,,,2,11,52,,,
65253,control_change,36,0,5,,,,,,,,,4,11,47,,,
65254,note_on,0,0,10,,,,,,,,,6,,,,50,62
65254,note_on,8,0,10,,,,,,,,,6,,,,46,0
65255,control_change,36,0,6,,,,,,,,,5,11,47,,,
65255,control_change,30,0,4,,,,,,,,,3,11,52,,,
65261,control_change,9,0,8,,,,,,,,,11,11,49,,,
65261,control_change,9,0,9,,,,,,,,,12,11,49,,,
65263,control_change,9,0,10,,,,,,,,,6,11,49,,,
65265,control_change,15,0,7,,,,,,,,,10,11,60,,,
65270,note_on,5,0,7,,,,,,,,,10,,,,77,0
65277,control_change,16,0,8,,,,,,,,,11,11,51,,,
65277,control_change,16,0,9,,,,,,,,,12,11,51,,,
65278,note_on,25,0,5,,,,,,,,,4,,,,53,0
65279,control_change,16,0,10,,,,,,,,,6,11,51,,,
65280,set_tempo,60,1,0,,,,,,975610,,,,,,,,
65280,note_on,0,0,1,,,,,,,,,0,,,,82,0
65280,note_on,30,0,1,,,,,,,,,0,,,,86,0
65280,note_on,0,0,1,,,,,,,,,0,,,,84,96
65280,note_on,0,0,1,,,,,,,,,0,,,,87,96
65280,note_on,25,0,6,,,,,,,,,5,,,,41,0
65280,note_on,10,0,7,,,,,,,,,10,,,,77,103
65282,note_on,0,0,2,,,,,,,,,1,,,,72,95
65282,note_on,5,0,9,,,,,,,,,12,,,,58,0
65282,note_on,5,0,8,,,,,,,,,11,,,,58,0
65282,note_on,0,0,9,,,,,,,,,12,,,,63,72
65282,note_on,0,0,2,,,,,,,,,1,,,,70,0
65282,note_on,0,0,2,,,,,,,,,1,,,,75,95
65282,note_on,0,0,8,,,,,,,,,11,,,,63,74
65282,note_on,30,0,2,,,,,,,,,1,,,,74,0
65283,note_on,0,0,3,,,,,,,,,2,,,,60,96
65283,note_on,0,0,3,,,,,,,,,2,,,,63,96
65283,note_on,5,0,5,,,,,,,,,4,,,,53,82
65283,note_on,30,0,3,,,,,,,,,2,,,,58,0
65283,note_on,0,0,3,,,,,,,,,2,,,,62,0
65284,note_on,5,0,10,,,,,,,,,6,,,,50,0
65284,note_on,0,0,10,,,,,,,,,6,,,,48,62
65285,note_on,0,0,4,,,,,,,,,3,,,,50,0
65285,note_on,30,0,4,,,,,,,,,3,,,,46,0
65285,note_on,5,0,6,,,,,,,,,5,,,,41,82
65285,note_on,120,0,11,,,,,,,,,13,,,,41,0
65285,note_on,0,0,4,,,,,,,,,3,,,,51,95
65285,note_on,0,0,4,,,,,,,,,3,,,,48,95
65286,control_change,6,0,1,,,,,,,,,0,11,53,,,
65288,note_on,120,0,12,,,,,,,,,14,,,,29,0
65288,control_change,6,0,2,,,,,,,,,1,11,53,,,
65289,control_change,6,0,3,,,,,,,,,2,11,53,,,
65289,control_change,6,0,5,,,,,,,,,4,11,49,,,
65291,control_change,6,0,4,,,,,,,,,3,11,53,,,
65291,control_change,6,0,6,,,,,,,,,5,11,49,,,
65292,control_change,12,0,7,,,,,,,,,10,11,62,,,
65294,control_change,12,0,8,,,,,,,,,11,11,53,,,
65294,control_change,12,0,9,,,,,,,,,12,11,53,,,
65296,control_change,12,0,10,,,,,,,,,6,11,53,,,
65300,note_on,8,0,7,,,,,,,,,10,,,,77,0
65310,control_change,16,0,8,,,,,,,,,11,11,55,,,
65310,control_change,16,0,9,,,,,,,,,12,11,55,,,
65310,note_on,10,0,7,,,,,,,,,10,,,,77,103
65312,note_on,0,0,8,,,,,,,,,11,,,,60,74
65312,control_change,16,0,10,,,,,,,,,6,11,55,,,
65312,note_on,0,0,9,,,,,,,,,12,,,,60,72
65312,note_on,2,0,9,,,,,,,,,12,,,,63,0
65312,note_on,2,0,8,,,,,,,,,11,,,,63,0
65314,note_on,2,0,10,,,,,,,,,6,,,,48,0
65314,note_on,0,0,10,,,,,,,,,6,,,,51,62
65318,control_change,8,0,7,,,,,,,,,10,11,64,,,
65322,control_change,36,0,1,,,,,,,,,0,11,55,,,
65324,control_change,36,0,2,,,,,,,,,1,11,55,,,
65325,control_change,36,0,5,,,,,,,,,4,11,51,,,
65325,control_change,36,0,3,,,,,,,,,2,11,55,,,
65327,control_change,15,0,9,,,,,,,,,12,11,57,,,
65327,control_change,36,0,6,,,,,,,,,5,11,51,,,
65327,control_change,15,0,8,,,,,,,,,11,11,57,,,
65327,control_change,36,0,4,,,,,,,,,3,11,55,,,
65329,control_change,15,0,10,,,,,,,,,6,11,57,,,
65330,note_on,12,0,7,,,,,,,,,10,,,,77,0
65340,note_on,18,0,1,,,,,,,,,0,,,,84,0
65340,note_on,0,0,1,,,,,,,,,0,,,,87,0
65340,note_on,0,0,1,,,,,,,,,0,,,,84,96
65340,note_on,0,0,1,,,,,,,,,0,,,,81,96
65340,note_on,10,0,7,,,,,,,,,10,,,,77,103
65340,set_tempo,60,1,0,,,,,,1000000,,,,,,,,
65342,note_on,18,0,2,,,,,,,,,1,,,,72,0
65342,note_on,0,0,2,,,,,,,,,1,,,,75,0
65342,note_on,0,0,2,,,,,,,,,1,,,,69,95
65342,note_on,0,0,2,,,,,,,,,1,,,,72,95
65342,note_on,15,0,9,,,,,,,,,12,,,,60,0
65342,note_on,0,0,8,,,,,,,,,11,,,,60,74
65342,note_on,15,0,8,,,,,,,,,11,,,,60,0
65342,note_on,0,0,9,,,,,,,,,12,,,,60,72
65343,note_on,0,0,3,,,,,,,,,2,,,,60,0
65343,note_on,0,0,3,,,,,,,,,2,,,,57,96
65343,note_on,18,0,3,,,,,,,,,2,,,,63,0
65343,note_on,0,0,3,,,,,,,,,2,,,,60,96
65343,control_change,1,0,9,,,,,,,,,12,11,59,,,
65343,control_change,1,0,8,,,,,,,,,11,11,59,,,
65344,control_change,4,0,7,,,,,,,,,10,11,66,,,
65344,note_on,15,0,10,,,,,,,,,6,,,,51,0
65344,note_on,0,0,10,,,,,,,,,6,,,,41,62
65345,note_on,0,0,4,,,,,,,,,3,,,,48,0
65345,note_on,18,0,4,,,,,,,,,3,,,,51,0
65345,note_on,0,0,4,,,,,,,,,3,,,,41,95
65345,control_change,1,0,10,,,,,,,,,6,11,59,,,
65345,note_on,0,0,4,,,,,,,,,3,,,,48,95
65345,note_on,60,0,11,,,,,,,,,13,,,,41,43
65348,note_on,60,0,12,,,,,,,,,14,,,,29,36
65358,control_change,18,0,1,,,,,,,,,0,11,56,,,
65360,control_change,17,0,8,,,,,,,,,11,11,61,,,
65360,control_change,17,0,9,,,,,,,,,12,11,61,,,
65360,control_change,18,0,2,,,,,,,,,1,11,56,,,
65360,note_on,16,0,7,,,,,,,,,10,,,,77,0
65361,control_change,18,0,3,,,,,,,,,2,11,56,,,
65361,control_change,36,0,5,,,,,,,,,4,11,53,,,
65362,control_change,17,0,10,,,,,,,,,6,11,61,,,
65363,control_change,36,0,6,,,,,,,,,5,11,53,,,
65363,control_change,18,0,4,,,,,,,,,3,11,56,,,
65370,note_on,10,0,7,,,,,,,,,10,,,,77,103
65371,control_change,1,0,7,,,,,,,,,10,11,68,,,
65372,note_on,0,0,8,,,,,,,,,11,,,,57,74
65372,note_on,12,0,9,,,,,,,,,12,,,,60,0
65372,note_on,0,0,9,,,,,,,,,12,,,,57,72
65372,note_on,12,0,8,,,,,,,,,11,,,,60,0
65374,note_on,0,0,10,,,,,,,,,6,,,,48,62
65374,note_on,12,0,10,,,,,,,,,6,,,,41,0
65376,control_change,4,0,9,,,,,,,,,12,11,63,,,
65376,control_change,4,0,8,,,,,,,,,11,11,63,,,
65378,control_change,4,0,10,,,,,,,,,6,11,63,,,
65390,note_on,19,0,7,,,,,,,,,10,,,,77,0
65393,control_change,17,0,9,,,,,,,,,12,11,65,,,
65393,control_change,17,0,8,,,,,,,,,11,11,65,,,
65394,control_change,36,0,1,,,,,,,,,0,11,58,,,
65395,control_change,17,0,10,,,,,,,,,6,11,65,,,
65396,control_change,36,0,2,,,,,,,,,1,11,58,,,
65397,control_change,36,0,5,,,,,,,,,4,11,55,,,
65397,control_change,7,0,7,,,,,,,,,10,11,70,,,
65397,control_change,36,0,3,,,,,,,,,2,11,58,,,
65399,control_change,36,0,6,,,,,,,,,5,11,55,,,
65399,control_change,36,0,4,,,,,,,,,3,11,58,,,
65400,note_on,3,0,7,,,,,,,,,10,,,,77,103
65400,set_tempo,60,1,0,,,,,,967742,,,,,,,,
65400,note_on,0,0,1,,,,,,,,,0,,,,86,96
65400,note_on,0,0,1,,,,,,,,,0,,,,84,0
65400,note_on,0,0,1,,,,,,,,,0,,,,82,96
65400,note_on,6,0,1,,,,,,,,,0,,,,81,0
65402,note_on,0,0,2,,,,,,,,,1,,,,70,95
65402,note_on,0,0,8,,,,,,,,,11,,,,62,74
65402,note_on,9,0,8,,,,,,,,,11,,,,57,0
65402,note_on,9,0,9,,,,,,,,,12,,,,57,0
65402,note_on,0,0,9,,,,,,,,,12,,,,62,72
65402,note_on,0,0,2,,,,,,,,,1,,,,74,95
65402,note_on,0,0,2,,,,,,,,,1,,,,69,0
65402,note_on,6,0,2,,,,,,,,,1,,,,72,0
65403,note_on,0,0,3,,,,,,,,,2,,,,57,0
65403,note_on,6,0,3,,,,,,,,,2,,,,60,0
65403,note_on,0,0,3,,,,,,,,,2,,,,58,96
65403,note_on,0,0,3,,,,,,,,,2,,,,62,96
65404,note_on,9,0,10,,,,,,,,,6,,,,48,0
65404,note_on,0,0,10,,,,,,,,,6,,,,46,62
65405,note_on,0,0,4,,,,,,,,,3,,,,41,0
65405,note_on,0,0,4,,,,,,,,,3,,,,50,95
65405,note_on,0,0,4,,,,,,,,,3,,,,46,95
65405,note_on,6,0,4,,,,,,,,,3,,,,48,0
65409,control_change,7,0,8,,,,,,,,,11,11,67,,,
65409,control_change,7,0,9,,,,,,,,,12,11,67,,,
65411,control_change,7,0,10,,,,,,,,,6,11,67,,,
65420,note_on,20,0,7,,,,,,,,,10,,,,77,0
65424,control_change,4,0,7,,,,,,,,,10,11,72,,,
65426,control_change,17,0,8,,,,,,,,,11,11,69,,,
65426,control_change,17,0,9,,,,,,,,,12,11,69,,,
65428,control_change,17,0,10,,,,,,,,,6,11,69,,,
65430,note_on,6,0,7,,,,,,,,,10,,,,77,103
65430,control_change,30,0,1,,,,,,,,,0,11,60,,,
65432,control_change,30,0,2,,,,,,,,,1,11,60,,,
65432,note_on,6,0,9,,,,,,,,,12,,,,62,0
65432,note_on,0,0,9,,,,,,,,,12,,,,58,72
65432,note_on,6,0,8,,,,,,,,,11,,,,62,0
65432,note_on,0,0,8,,,,,,,,,11,,,,58,74
65433,control_change,30,0,3,,,,,,,,,2,11,60,,,
65433,control_change,36,0,5,,,,,,,,,4,11,57,,,
65434,note_on,0,0,10,,,,,,,,,6,,,,50,62
65434,note_on,6,0,10,,,,,,,,,6,,,,46,0
65435,control_change,36,0,6,,,,,,,,,5,11,57,,,
65435,control_change,30,0,4,,,,,,,,,3,11,60,,,
65442,control_change,10,0,8,,,,,,,,,11,11,71,,,
65442,control_change,10,0,9,,,,,,,,,12,11,71,,,
65444,control_change,10,0,10,,,,,,,,,6,11,71,,,
65450,control_change,0,0,7,,,,,,,,,10,11,74,,,
65450,note_on,20,0,7,,,,,,,,,10,,,,77,0
65458,note_on,25,0,5,,,,,,,,,4,,,,53,0
65459,control_change,17,0,9,,,,,,,,,12,11,73,,,
65459,control_change,17,0,8,,,,,,,,,11,11,73,,,
65460,note_on,30,0,1,,,,,,,,,0,,,,82,0
65460,note_on,0,0,1,,,,,,,,,0,,,,81,96
65460,note_on,0,0,1,,,,,,,,,0,,,,84,96
65460,note_on,25,0,6,,,,,,,,,5,,,,41,0
65460,note_on,10,0,7,,,,,,,,,10,,,,79,103
65460,note_on,0,0,1,,,,,,,,,0,,,,86,0
65461,control_change,17,0,10,,,,,,,,,6,11,73,,,
65462,note_on,0,0,8,,,,,,,,,11,,,,60,74
65462,note_on,3,0,8,,,,,,,,,11,,,,58,0
65462,note_on,30,0,2,,,,,,,,,1,,,,70,0
65462,note_on,0,0,2,,,,,,,,,1,,,,74,0
65462,note_on,0,0,2,,,,,,,,,1,,,,69,95
65462,note_on,0,0,2,,,,,,,,,1,,,,72,95
65462,note_on,0,0,9,,,,,,,,,12,,,,60,72
65462,note_on,3,0,9,,,,,,,,,12,,,,58,0
65463,note_on,0,0,3,,,,,,,,,2,,,,60,96
65463,note_on,0,0,3,,,,,,,,,2,,,,69,96
65463,note_on,30,0,3,,,,,,,,,2,,,,62,0
65463,note_on,0,0,3,,,,,,,,,2,,,,58,0
65463,note_on,5,0,5,,,,,,,,,4,,,,53,82
65464,note_on,0,0,10,,,,,,,,,6,,,,41,62
65464,note_on,3,0,10,,,,,,,,,6,,,,50,0
65465,note_on,0,0,4,,,,,,,,,3,,,,41,95
65465,note_on,0,0,4,,,,,,,,,3,,,,48,95
65465,note_on,0,0,4,,,,,,,,,3,,,,50,0
65465,note_on,120,0,11,,,,,,,,,13,,,,41,0
65465,note_on,30,0,4,,,,,,,,,3,,,,46,0
65465,note_on,5,0,6,,,,,,,,,5,,,,41,82
65465,note_on,0,0,11,,,,,,,,,13,,,,41,43
65466,control_change,6,0,1,,,,,,,,,0,11,61,,,
65468,control_change,6,0,2,,,,,,,,,1,11,61,,,
65468,note_on,120,0,12,,,,,,,,,14,,,,29,0
65468,note_on,0,0,12,,,,,,,,,14,,,,29,36
65469,control_change,6,0,3,,,,,,,,,2,11,61,,,
65469,control_change,6,0,5,,,,,,,,,4,11,59,,,
65471,control_change,6,0,6,,,,,,,,,5,11,59,,,
65471,control_change,6,0,4,,,,,,,,,3,11,61,,,
65475,control_change,13,0,8,,,,,,,,,11,11,75,,,
65475,control_change,13,0,9,,,,,,,,,12,11,75,,,
65476,control_change,16,0,7,,,,,,,,,10,11,76,,,
65477,control_change,13,0,10,,,,,,,,,6,11,75,,,
65480,note_on,4,0,7,,,,,,,,,10,,,,79,0
65490,note_on,10,0,7,,,,,,,,,10,,,,81,90
65491,control_change,1,0,7,,,,,,,,,10,11,76,,,
65492,note_on,0,0,8,,,,,,,,,11,,,,57,74
65492,note_on,17,0,8,,,,,,,,,11,,,,60,0
65492,control_change,0,0,8,,,,,,,,,11,11,77,,,
65492,note_on,0,0,9,,,,,,,,,12,,,,57,72
65492,control_change,0,0,9,,,,,,,,,12,11,77,,,
65492,note_on,17,0,9,,,,,,,,,12,,,,60,0
65494,note_on,17,0,10,,,,,,,,,6,,,,41,0
65494,note_on,0,0,10,,,,,,,,,6,,,,48,62
65494,control_change,0,0,10,,,,,,,,,6,11,77,,,
65496,control_change,5,0,7,,,,,,,,,10,11,73,,,
65497,control_change,5,0,9,,,,,,,,,12,11,74,,,
65497,control_change,5,0,8,,,,,,,,,11,11,74,,,
65499,control_change,5,0,10,,,,,,,,,6,11,74,,,
65502,control_change,6,0,7,,,,,,,,,10,11,70,,,
65502,control_change,5,0,9,,,,,,,,,12,11,71,,,
65502,control_change,36,0,1,,,,,,,,,0,11,63,,,
65502,control_change,5,0,8,,,,,,,,,11,11,71,,,
65504,control_change,36,0,2,,,,,,,,,1,11,63,,,
65504,control_change,5,0,10,,,,,,,,,6,11,71,,,
65505,control_change,36,0,3,,,,,,,,,2,11,63,,,
65505,control_change,36,0,5,,,,,,,,,4,11,61,,,
65507,control_change,5,0,9,,,,,,,,,12,11,68,,,
65507,control_change,5,0,8,,,,,,,,,11,11,68,,,
65507,control_change,36,0,4,,,,,,,,,3,11,63,,,
65507,control_change,36,0,6,,,,,,,,,5,11,61,,,
65507,control_change,5,0,7,,,,,,,,,10,11,67,,,
65509,control_change,5,0,10,,,,,,,,,6,11,68,,,
65510,note_on,3,0,7,,,,,,,,,10,,,,81,0
65512,control_change,5,0,8,,,,,,,,,11,11,65,,,
65512,control_change,2,0,7,,,,,,,,,10,11,64,,,
65512,control_change,5,0,9,,,,,,,,,12,11,65,,,
65514,control_change,5,0,10,,,,,,,,,6,11,65,,,
65515,note_on,13,0,1,,,,,,,,,0,,,,84,0
65515,note_on,0,0,1,,,,,,,,,0,,,,81,0
65517,control_change,5,0,7,,,,,,,,,10,11,61,,,
65517,note_on,13,0,2,,,,,,,,,1,,,,72,0
65517,note_on,0,0,2,,,,,,,,,1,,,,69,0
65517,control_change,0,0,8,,,,,,,,,11,11,62,,,
65517,note_on,5,0,8,,,,,,,,,11,,,,57,0
65517,control_change,0,0,9,,,,,,,,,12,11,62,,,
65517,note_on,5,0,9,,,,,,,,,12,,,,57,0
65518,note_on,13,0,5,,,,,,,,,4,,,,53,0
65518,note_on,13,0,3,,,,,,,,,2,,,,69,0
65518,note_on,0,0,3,,,,,,,,,2,,,,60,0
65519,note_on,5,0,10,,,,,,,,,6,,,,48,0
65519,control_change,0,0,10,,,,,,,,,6,11,62,,,
65520,control_change,5,0,1,,,,,,,,,0,11,47,,,
65520,note_on,0,0,1,,,,,,,,,0,,,,82,96
65520,set_tempo,120,1,0,,,,,,1034483,,,,,,,,
65520,note_on,0,0,4,,,,,,,,,3,,,,48,0
65520,note_on,3,0,7,,,,,,,,,10,,,,82,90
65520,note_on,13,0,6,,,,,,,,,5,,,,41,0
65520,note_on,13,0,4,,,,,,,,,3,,,,41,0
65522,note_on,0,0,2,,,,,,,,,1,,,,70,95
65522,control_change,2,0,7,,,,,,,,,10,11,58,,,
65522,note_on,0,0,8,,,,,,,,,11,,,,62,78
65522,control_change,5,0,8,,,,,,,,,11,11,59,,,
65522,note_on,0,0,9,,,,,,,,,12,,,,58,76
65522,control_change,5,0,9,,,,,,,,,12,11,59,,,
65522,control_change,5,0,2,,,,,,,,,1,11,47,,,
65523,note_on,0,0,5,,,,,,,,,4,,,,58,82
65523,control_change,5,0,5,,,,,,,,,4,11,42,,,
65523,note_on,0,0,3,,,,,,,,,2,,,,70,96
65523,note_on,0,0,3,,,,,,,,,2,,,,62,96
65523,control_change,5,0,3,,,,,,,,,2,11,47,,,
65524,note_on,0,0,10,,,,,,,,,6,,,,46,62
65524,control_change,5,0,10,,,,,,,,,6,11,59,,,
65525,control_change,5,0,4,,,,,,,,,3,11,70,,,
65525,note_on,0,0,4,,,,,,,,,3,,,,46,95
65525,note_on,60,0,11,,,,,,,,,13,,,,41,0
65525,note_on,0,0,11,,,,,,,,,13,,,,46,43
65525,control_change,5,0,6,,,,,,,,,5,11,42,,,
65525,note_on,0,0,6,,,,,,,,,5,,,,46,82
65527,control_change,5,0,7,,,,,,,,,10,11,55,,,
65528,control_change,6,0,8,,,,,,,,,11,11,56,,,
65528,control_change,6,0,9,,,,,,,,,12,11,56,,,
65528,note_on,60,0,12,,,,,,,,,14,,,,29,0
65528,note_on,0,0,12,,,,,,,,,14,,,,34,36
65530,control_change,6,0,10,,,,,,,,,6,11,56,,,
65532,control_change,5,0,7,,,,,,,,,10,11,52,,,
65533,control_change,5,0,8,,,,,,,,,11,11,53,,,
65533,control_change,5,0,9,,,,,,,,,12,11,53,,,
65535,control_change,5,0,10,,,,,,,,,6,11,53,,,
65538,control_change,6,0,7,,,,,,,,,10,11,49,,,
65538,control_change,5,0,9,,,,,,,,,12,11,50,,,
65538,control_change,5,0,8,,,,,,,,,11,11,50,,,
65540,control_change,5,0,10,,,,,,,,,6,11,50,,,
65543,control_change,5,0,8,,,,,,,,,11,11,47,,,
65543,control_change,5,0,9,,,,,,,,,12,11,47,,,
65543,control_change,5,0,7,,,,,,,,,10,11,46,,,
65545,control_change,5,0,10,,,,,,,,,6,11,47,,,
65548,control_change,5,0,9,,,,,,,,,12,11,44,,,
65548,control_change,5,0,8,,,,,,,,,11,11,44,,,
65548,control_change,5,0,7,,,,,,,,,10,11,43,,,
65550,control_change,5,0,10,,,,,,,,,6,11,44,,,
65552,note_on,4,0,8,,,,,,,,,11,,,,62,0
65552,note_on,0,0,8,,,,,,,,,11,,,,62,78
65552,note_on,0,0,9,,,,,,,,,12,,,,62,76
65552,note_on,4,0,9,,,,,,,,,12,,,,58,0
65554,note_on,4,0,10,,,,,,,,,6,,,,46,0
65554,note_on,0,0,10,,,,,,,,,6,,,,53,62
65555,note_on,30,0,4,,,,,,,,,3,,,,50,82
65570,note_on,15,0,4,,,,,,,,,3,,,,50,0
65580,set_tempo,60,1,0,,,,,,937500,,,,,,,,
65582,note_on,30,0,9,,,,,,,,,12,,,,62,0
65582,note_on,30,0,8,,,,,,,,,11,,,,62,0
65582,note_on,0,0,8,,,,,,,,,11,,,,65,78
65582,note_on,0,0,9,,,,,,,,,12,,,,65,76
65584,note_on,0,0,10,,,,,,,,,6,,,,50,62
65584,note_on,30,0,10,,,,,,,,,6,,,,53,0
65585,note_on,15,0,4,,,,,,,,,3,,,,53,82
65600,note_on,15,0,4,,,,,,,,,3,,,,53,0
65612,note_on,0,0,9,,,,,,,,,12,,,,62,76
65612,note_on,30,0,9,,,,,,,,,12,,,,65,0
65612,note_on,0,0,8,,,,,,,,,11,,,,62,78
65612,note_on,30,0,8,,,,,,,,,11,,,,65,0
65614,note_on,0,0,10,,,,,,,,,6,,,,53,62
65614,note_on,30,0,10,,,,,,,,,6,,,,50,0
65615,note_on,15,0,4,,,,,,,,,3,,,,58,82
65630,note_on,15,0,4,,,,,,,,,3,,,,58,0
65640,note_on,92,0,7,,,,,,,,,10,,,,82,0
65642,note_on,30,0,9,,,,,,,,,12,,,,62,0
65642,note_on,0,0,9,,,,,,,,,12,,,,65,76
65642,note_on,0,0,8,,,,,,,,,11,,,,65,78
65642,note_on,30,0,8,,,,,,,,,11,,,,62,0
65642,note_on,120,0,2,,,,,,,,,1,,,,70,0
65643,note_on,0,0,3,,,,,,,,,2,,,,62,0
65643,note_on,120,0,3,,,,,,,,,2,,,,70,0
65644,note_on,30,0,10,,,,,,,,,6,,,,53,0
65644,note_on,0,0,10,,,,,,,,,6,,,,50,62
65645,note_on,15,0,4,,,,,,,,,3,,,,62,82
65645,note_on,120,0,11,,,,,,,,,13,,,,46,0
65648,note_on,120,0,12,,,,,,,,,14,,,,34,0
65660,note_on,15,0,4,,,,,,,,,3,,,,62,0
65672,note_on,30,0,9,,,,,,,,,12,,,,65,0
65672,note_on,0,0,9,,,,,,,,,12,,,,62,76
65672,note_on,30,0,8,,,,,,,,,11,,,,65,0
65672,note_on,0,0,8,,,,,,,,,11,,,,62,78
65674,note_on,0,0,10,,,,,,,,,6,,,,53,62
65674,note_on,30,0,10,,,,,,,,,6,,,,50,0
65675,note_on,15,0,4,,,,,,,,,3,,,,65,82
65690,note_on,15,0,4,,,,,,,,,3,,,,65,0
65698,note_on,175,0,5,,,,,,,,,4,,,,58,0
65700,set_tempo,120,1,0,,,,,,1034483,,,,,,,,
65700,note_on,175,0,6,,,,,,,,,5,,,,46,0
65702,note_on,30,0,8,,,,,,,,,11,,,,62,0
65702,note_on,30,0,9,,,,,,,,,12,,,,62,0
65702,note_on,0,0,9,,,,,,,,,12,,,,67,76
65702,note_on,0,0,8,,,,,,,,,11,,,,67,78
65703,control_change,0,0,3,,,,,,,,,2,11,70,,,
65703,note_on,0,0,3,,,,,,,,,2,,,,74,76
65703,note_on,60,0,3,,,,,,,,,2,,,,58,76
65703,note_on,5,0,5,,,,,,,,,4,,,,62,82
65704,note_on,30,0,10,,,,,,,,,6,,,,53,0
65704,note_on,0,0,10,,,,,,,,,6,,,,51,62
65705,note_on,15,0,4,,,,,,,,,3,,,,58,95
65705,note_on,5,0,6,,,,,,,,,5,,,,50,82
65718,note_on,15,0,3,,,,,,,,,2,,,,58,0
65732,note_on,30,0,9,,,,,,,,,12,,,,67,0
65732,note_on,0,0,8,,,,,,,,,11,,,,63,78
65732,note_on,30,0,8,,,,,,,,,11,,,,67,0
65732,note_on,0,0,9,,,,,,,,,12,,,,63,76
65733,note_on,15,0,3,,,,,,,,,2,,,,62,76
65734,note_on,30,0,10,,,,,,,,,6,,,,51,0
65734,note_on,0,0,10,,,,,,,,,6,,,,55,62
65748,note_on,15,0,3,,,,,,,,,2,,,,62,0
65760,set_tempo,60,1,0,,,,,,937500,,,,,,,,
65760,note_on,240,0,1,,,,,,,,,0,,,,82,0
65762,note_on,30,0,9,,,,,,,,,12,,,,63,0
65762,note_on,0,0,9,,,,,,,,,12,,,,65,76
65762,note_on,0,0,8,,,,,,,,,11,,,,65,78
65762,note_on,30,0,8,,,,,,,,,11,,,,63,0
65763,note_on,15,0,3,,,,,,,,,2,,,,65,76
65764,note_on,0,0,10,,,,,,,,,6,,,,50,62
65764,note_on,30,0,10,,,,,,,,,6,,,,55,0
65778,note_on,15,0,3,,,,,,,,,2,,,,65,0
65792,note_on,0,0,8,,,,,,,,,11,,,,62,78
65792,note_on,0,0,9,,,,,,,,,12,,,,62,76
65792,note_on,30,0,9,,,,,,,,,12,,,,65,0
65792,note_on,30,0,8,,,,,,,,,11,,,,65,0
65793,note_on,15,0,3,,,,,,,,,2,,,,70,76
65794,note_on,30,0,10,,,,,,,,,6,,,,50,0
65794,note_on,0,0,10,,,,,,,,,6,,,,53,62
65808,note_on,15,0,3,,,,,,,,,2,,,,70,0
65820,note_on,0,0,4,,,,,,,,,3,,,,46,0
65820,note_on,115,0,4,,,,,,,,,3,,,,58,0
65822,note_on,30,0,8,,,,,,,,,11,,,,62,0
65822,note_on,30,0,9,,,,,,,,,12,,,,62,0
65822,note_on,0,0,9,,,,,,,,,12,,,,65,76
65822,note_on,0,0,8,,,,,,,,,11,,,,65,78
65823,note_on,15,0,3,,,,,,,,,2,,,,74,76
65824,note_on,30,0,10,,,,,,,,,6,,,,53,0
65824,note_on,0,0,10,,,,,,,,,6,,,,50,62
65825,note_on,5,0,4,,,,,,,,,3,,,,46,95
65838,note_on,15,0,3,,,,,,,,,2,,,,74,0
65852,note_on,30,0,9,,,,,,,,,12,,,,65,0
65852,note_on,30,0,8,,,,,,,,,11,,,,65,0
65852,note_on,0,0,8,,,,,,,,,11,,,,62,78
65852,note_on,0,0,9,,,,,,,,,12,,,,62,76
65853,note_on,15,0,3,,,,,,,,,2,,,,77,76
65854,note_on,30,0,10,,,,,,,,,6,,,,50,0
65854,note_on,0,0,10,,,,,,,,,6,,,,53,62
65868,note_on,15,0,3,,,,,,,,,2,,,,77,0
65878,note_on,175,0,5,,,,,,,,,4,,,,62,0
65880,note_on,0,0,7,,,,,,,,,10,,,,62,77
65880,control_change,240,0,7,,,,,,,,,10,11,52,,,
65880,note_on,175,0,6,,,,,,,,,5,,,,50,0
65880,set_tempo,120,1,0,,,,,,1034483,,,,,,,,
65882,note_on,240,0,2,,,,,,,,,1,,,,74,95
65882,note_on,30,0,9,,,,,,,,,12,,,,62,0
65882,note_on,0,0,9,,,,,,,,,12,,,,63,76
65882,note_on,30,0,8,,,,,,,,,11,,,,62,0
65882,note_on,0,0,8,,,,,,,,,11,,,,63,78
65882,note_on,0,0,2,,,,,,,,,1,,,,77,95
65883,note_on,15,0,3,,,,,,,,,2,,,,74,0
65883,note_on,5,0,5,,,,,,,,,4,,,,58,82
65883,note_on,0,0,3,,,,,,,,,2,,,,82,74
65883,note_on,0,0,3,,,,,,,,,2,,,,70,68
65884,note_on,30,0,10,,,,,,,,,6,,,,53,0
65884,note_on,0,0,10,,,,,,,,,6,,,,48,62
65885,note_on,5,0,6,,,,,,,,,5,,,,46,82
65895,note_on,15,0,7,,,,,,,,,10,,,,62,0
65910,note_on,15,0,7,,,,,,,,,10,,,,65,77
65912,note_on,0,0,9,,,,,,,,,12,,,,60,76
65912,note_on,0,0,8,,,,,,,,,11,,,,60,78
65912,note_on,30,0,9,,,,,,,,,12,,,,63,0
65912,note_on,30,0,8,,,,,,,,,11,,,,63,0
65914,note_on,30,0,10,,,,,,,,,6,,,,48,0
65914,note_on,0,0,10,,,,,,,,,6,,,,51,62
65925,note_on,15,0,7,,,,,,,,,10,,,,65,0
65937,note_on,55,0,2,,,,,,,,,1,,,,77,0
65937,note_on,0,0,2,,,,,,,,,1,,,,74,0
65940,set_tempo,60,1,0,,,,,,937500,,,,,,,,
65940,note_on,15,0,7,,,,,,,,,10,,,,70,77
65942,note_on,30,0,8,,,,,,,,,11,,,,60,0
65942,note_on,0,0,8,,,,,,,,,11,,,,62,78
65942,note_on,0,0,2,,,,,,,,,1,,,,77,95
65942,note_on,0,0,9,,,,,,,,,12,,,,62,76
65942,note_on,30,0,9,,,,,,,,,12,,,,60,0
65942,note_on,5,0,2,,,,,,,,,1,,,,74,95
65944,note_on,0,0,10,,,,,,,,,6,,,,46,62
65944,note_on,30,0,10,,,,,,,,,6,,,,51,0
65955,note_on,15,0,7,,,,,,,,,10,,,,70,0
65970,note_on,15,0,7,,,,,,,,,10,,,,74,77
65972,note_on,30,0,8,,,,,,,,,11,,,,62,0
65972,note_on,0,0,8,,,,,,,,,11,,,,58,78
65972,note_on,0,0,9,,,,,,,,,12,,,,58,76
65972,note_on,30,0,9,,,,,,,,,12,,,,62,0
65974,note_on,30,0,10,,,,,,,,,6,,,,46,0
65974,note_on,0,0,10,,,,,,,,,6,,,,50,62
65985,note_on,15,0,7,,,,,,,,,10,,,,74,0
65997,note_on,55,0,2,,,,,,,,,1,,,,77,0
65997,note_on,0,0,2,,,,,,,,,1,,,,74,0
66000,note_on,15,0,7,,,,,,,,,10,,,,77,77
66000,note_on,175,0,4,,,,,,,,,3,,,,46,0
66002,note_on,30,0,8,,,,,,,,,11,,,,58,0
66002,note_on,0,0,8,,,,,,,,,11,,,,62,78
66002,note_on,0,0,2,,,,,,,,,1,,,,77,95
66002,note_on,5,0,2,,,,,,,,,1,,,,74,95
66002,note_on,0,0,9,,,,,,,,,12,,,,62,76
66002,note_on,30,0,9,,,,,,,,,12,,,,58,0
66003,note_on,120,0,3,,,,,,,,,2,,,,82,0
66004,note_on,0,0,10,,,,,,,,,6,,,,46,62
66004,note_on,30,0,10,,,,,,,,,6,,,,50,0
66005,note_on,5,0,4,,,,,,,,,3,,,,46,95
66015,note_on,15,0,7,,,,,,,,,10,,,,77,0
66030,note_on,15,0,7,,,,,,,,,10,,,,82,77
66032,note_on,0,0,8,,,,,,,,,11,,,,58,78
66032,note_on,0,0,9,,,,,,,,,12,,,,58,76
66032,note_on,30,0,9,,,,,,,,,12,,,,62,0
66032,note_on,30,0,8,,,,,,,,,11,,,,62,0
66034,note_on,30,0,10,,,,,,,,,6,,,,46,0
66034,note_on,0,0,10,,,,,,,,,6,,,,50,62
66045,note_on,15,0,7,,,,,,,,,10,,,,82,0
66057,note_on,0,0,2,,,,,,,,,1,,,,74,0
66057,note_on,55,0,2,,,,,,,,,1,,,,77,0
66058,note_on,175,0,5,,,,,,,,,4,,,,58,0
66060,note_on,175,0,6,,,,,,,,,5,,,,46,0
66060,control_change,0,0,1,,,,,,,,,0,11,68,,,
66060,note_on,15,0,7,,,,,,,,,10,,,,58,103
66060,set_tempo,120,1,0,,,,,,1034483,,,,,,,,
66060,note_on,300,0,1,,,,,,,,,0,,,,65,83
66062,note_on,0,0,2,,,,,,,,,1,,,,77,95
66062,note_on,30,0,8,,,,,,,,,11,,,,58,0
66062,note_on,5,0,2,,,,,,,,,1,,,,74,95
66062,note_on,0,0,8,,,,,,,,,11,,,,60,78
66062,note_on,30,0,9,,,,,,,,,12,,,,58,0
66062,note_on,0,0,9,,,,,,,,,12,,,,60,76
66063,note_on,60,0,3,,,,,,,,,2,,,,70,0
66063,note_on,5,0,5,,,,,,,,,4,,,,53,82
66063,note_on,0,0,3,,,,,,,,,2,,,,65,76
66064,note_on,30,0,10,,,,,,,,,6,,,,50,0
66064,note_on,0,0,10,,,,,,,,,6,,,,41,62
66065,note_on,5,0,6,,,,,,,,,5,,,,41,82
66092,note_on,0,0,9,,,,,,,,,12,,,,57,76
66092,note_on,30,0,9,,,,,,,,,12,,,,60,0
66092,note_on,0,0,8,,,,,,,,,11,,,,57,78
66092,note_on,30,0,8,,,,,,,,,11,,,,60,0
66094,note_on,30,0,10,,,,,,,,,6,,,,41,0
66094,note_on,0,0,10,,,,,,,,,6,,,,48,62
66117,note_on,55,0,2,,,,,,,,,1,,,,77,0
66117,note_on,0,0,2,,,,,,,,,1,,,,74,0
66120,note_on,60,0,1,,,,,,,,,0,,,,82,99
66120,set_tempo,60,1,0,,,,,,937500,,,,,,,,
66122,note_on,0,0,2,,,,,,,,,1,,,,77,95
66122,note_on,0,0,8,,,,,,,,,11,,,,62,78
66122,note_on,5,0,2,,,,,,,,,1,,,,74,95
66122,note_on,0,0,9,,,,,,,,,12,,,,62,76
66122,note_on,30,0,9,,,,,,,,,12,,,,57,0
66122,note_on,30,0,8,,,,,,,,,11,,,,57,0
66124,note_on,30,0,10,,,,,,,,,6,,,,48,0
66124,note_on,0,0,10,,,,,,,,,6,,,,46,62
66150,note_on,0,0,1,,,,,,,,,0,,,,84,111
66150,note_on,30,0,1,,,,,,,,,0,,,,82,0
66152,note_on,0,0,9,,,,,,,,,12,,,,58,76
66152,note_on,30,0,9,,,,,,,,,12,,,,62,0
66152,note_on,0,0,8,,,,,,,,,11,,,,58,78
66152,note_on,30,0,8,,,,,,,,,11,,,,62,0
66154,note_on,0,0,10,,,,,,,,,6,,,,50,62
66154,note_on,30,0,10,,,,,,,,,6,,,,46,0
66177,note_on,0,0,2,,,,,,,,,1,,,,74,0
66177,note_on,55,0,2,,,,,,,,,1,,,,77,0
66180,note_on,175,0,4,,,,,,,,,3,,,,46,0
66180,note_on,120,0,7,,,,,,,,,10,,,,58,0
66180,note_on,30,0,1,,,,,,,,,0,,,,84,0
66180,note_on,0,0,1,,,,,,,,,0,,,,86,111
66182,note_on,5,0,2,,,,,,,,,1,,,,77,95
66182,note_on,0,0,2,,,,,,,,,1,,,,74,95
66182,note_on,0,0,9,,,,,,,,,12,,,,62,76
66182,note_on,0,0,8,,,,,,,,,11,,,,62,78
66182,note_on,30,0,8,,,,,,,,,11,,,,58,0
66182,note_on,30,0,9,,,,,,,,,12,,,,58,0
66184,note_on,0,0,10,,,,,,,,,6,,,,46,62
66184,note_on,30,0,10,,,,,,,,,6,,,,50,0
66185,note_on,5,0,4,,,,,,,,,3,,,,46,95
66210,note_on,0,0,1,,,,,,,,,0,,,,84,111
66210,note_on,30,0,1,,,,,,,,,0,,,,86,0
66212,note_on,30,0,8,,,,,,,,,11,,,,62,0
66212,note_on,0,0,9,,,,,,,,,12,,,,58,76
66212,note_on,0,0,8,,,,,,,,,11,,,,58,78
66212,note_on,30,0,9,,,,,,,,,12,,,,62,0
66214,note_on,30,0,10,,,,,,,,,6,,,,46,0
66214,note_on,0,0,10,,,,,,,,,6,,,,50,62
66225,set_tempo,105,1,0,,,,,,1121495,,,,,,,,
66235,note_on,25,0,1,,,,,,,,,0,,,,84,0
66237,note_on,25,0,9,,,,,,,,,12,,,,58,0
66237,note_on,25,0,8,,,,,,,,,11,,,,58,0
66237,note_on,0,0,2,,,,,,,,,1,,,,77,0
66237,note_on,55,0,2,,,,,,,,,1,,,,74,0
66238,note_on,175,0,5,,,,,,,,,4,,,,53,0
66239,note_on,25,0,10,,,,,,,,,6,,,,50,0
66240,note_on,175,0,6,,,,,,,,,5,,,,41,0
66240,set_tempo,15,1,0,,,,,,1034483,,,,,,,,
66240,note_on,5,0,1,,,,,,,,,0,,,,65,0
66240,note_on,0,0,1,,,,,,,,,0,,,,70,83
66240,note_on,0,0,1,,,,,,,,,0,,,,84,111
66240,note_on,55,0,4,,,,,,,,,3,,,,46,0
66242,note_on,5,0,2,,,,,,,,,1,,,,74,95
66242,note_on,0,0,2,,,,,,,,,1,,,,77,95
66242,note_on,5,0,8,,,,,,,,,11,,,,62,78
66242,note_on,5,0,9,,,,,,,,,12,,,,62,76
66243,note_on,180,0,3,,,,,,,,,2,,,,65,0
66244,note_on,5,0,10,,,,,,,,,6,,,,46,62
66245,note_on,600,0,11,,,,,,,,,13,,,,46,43
66245,note_on,5,0,4,,,,,,,,,3,,,,46,95
66248,note_on,600,0,12,,,,,,,,,14,,,,34,36
66272,note_on,30,0,9,,,,,,,,,12,,,,62,0
66272,note_on,0,0,9,,,,,,,,,12,,,,58,76
66272,note_on,0,0,8,,,,,,,,,11,,,,58,78
66272,note_on,30,0,8,,,,,,,,,11,,,,62,0
66274,note_on,0,0,10,,,,,,,,,6,,,,50,62
66274,note_on,30,0,10,,,,,,,,,6,,,,46,0
66275,note_on,30,0,4,,,,,,,,,3,,,,50,82
66290,note_on,15,0,4,,,,,,,,,3,,,,50,0
66300,note_on,0,0,1,,,,,,,,,0,,,,82,93
66300,set_tempo,60,1,0,,,,,,937500,,,,,,,,
66300,note_on,60,0,1,,,,,,,,,0,,,,84,0
66302,note_on,30,0,8,,,,,,,,,11,,,,58,0
66302,note_on,0,0,8,,,,,,,,,11,,,,65,78
66302,note_on,0,0,9,,,,,,,,,12,,,,65,76
66302,note_on,30,0,9,,,,,,,,,12,,,,58,0
66304,note_on,0,0,10,,,,,,,,,6,,,,50,62
66304,note_on,30,0,10,,,,,,,,,6,,,,50,0
66305,note_on,15,0,4,,,,,,,,,3,,,,53,82
66320,note_on,15,0,4,,,,,,,,,3,,,,53,0
66332,note_on,0,0,8,,,,,,,,,11,,,,62,78
66332,note_on,30,0,8,,,,,,,,,11,,,,65,0
66332,note_on,0,0,9,,,,,,,,,12,,,,62,76
66332,note_on,30,0,9,,,,,,,,,12,,,,65,0
66334,note_on,30,0,10,,,,,,,,,6,,,,50,0
66334,note_on,0,0,10,,,,,,,,,6,,,,53,62
66335,note_on,15,0,4,,,,,,,,,3,,,,58,82
66350,note_on,15,0,4,,,,,,,,,3,,,,58,0
66362,note_on,30,0,9,,,,,,,,,12,,,,62,0
66362,note_on,0,0,9,,,,,,,,,12,,,,65,76
66362,note_on,0,0,2,,,,,,,,,1,,,,74,0
66362,note_on,120,0,2,,,,,,,,,1,,,,77,0
66362,note_on,0,0,8,,,,,,,,,11,,,,65,78
66362,note_on,30,0,8,,,,,,,,,11,,,,62,0
66364,note_on,30,0,10,,,,,,,,,6,,,,53,0
66364,note_on,0,0,10,,,,,,,,,6,,,,50,62
66365,note_on,120,0,11,,,,,,,,,13,,,,46,0
66365,note_on,15,0,4,,,,,,,,,3,,,,62,82
66368,note_on,120,0,12,,,,,,,,,14,,,,34,0
66380,note_on,15,0,4,,,,,,,,,3,,,,62,0
66392,note_on,30,0,8,,,,,,,,,11,,,,65,0
66392,note_on,0,0,8,,,,,,,,,11,,,,62,78
66392,note_on,30,0,9,,,,,,,,,12,,,,65,0
66392,note_on,0,0,9,,,,,,,,,12,,,,62,76
66394,note_on,0,0,10,,,,,,,,,6,,,,53,62
66394,note_on,30,0,10,,,,,,,,,6,,,,50,0
66395,note_on,15,0,4,,,,,,,,,3,,,,65,82
66410,note_on,15,0,4,,,,,,,,,3,,,,65,0
66420,note_on,120,0,1,,,,,,,,,0,,,,82,0
66420,set_tempo,120,1,0,,,,,,1034483,,,,,,,,
66420,note_on,0,0,1,,,,,,,,,0,,,,70,0
66420,note_on,0,0,1,,,,,,,,,0,,,,74,65
66422,note_on,0,0,8,,,,,,,,,11,,,,67,78
66422,note_on,30,0,8,,,,,,,,,11,,,,62,0
66422,note_on,0,0,9,,,,,,,,,12,,,,67,76
66422,note_on,30,0,9,,,,,,,,,12,,,,62,0
66423,note_on,185,0,5,,,,,,,,,4,,,,62,82
66423,note_on,180,0,3,,,,,,,,,2,,,,74,76
66423,note_on,0,0,3,,,,,,,,,2,,,,58,76
66424,note_on,0,0,10,,,,,,,,,6,,,,51,62
66424,note_on,30,0,10,,,,,,,,,6,,,,53,0
66425,note_on,185,0,6,,,,,,,,,5,,,,50,82
66425,note_on,15,0,4,,,,,,,,,3,,,,58,95
66438,note_on,15,0,3,,,,,,,,,2,,,,58,0
66452,note_on,30,0,8,,,,,,,,,11,,,,67,0
66452,note_on,0,0,9,,,,,,,,,12,,,,63,76
66452,note_on,30,0,9,,,,,,,,,12,,,,67,0
66452,note_on,0,0,8,,,,,,,,,11,,,,63,78
66453,note_on,15,0,3,,,,,,,,,2,,,,62,76
66454,note_on,30,0,10,,,,,,,,,6,,,,51,0
66454,note_on,0,0,10,,,,,,,,,6,,,,55,62
66468,note_on,15,0,3,,,,,,,,,2,,,,62,0
66480,set_tempo,60,1,0,,,,,,937500,,,,,,,,
66482,note_on,30,0,8,,,,,,,,,11,,,,63,0
66482,note_on,0,0,9,,,,,,,,,12,,,,65,76
66482,note_on,0,0,8,,,,,,,,,11,,,,65,78
66482,note_on,30,0,9,,,,,,,,,12,,,,63,0
66483,note_on,15,0,3,,,,,,,,,2,,,,65,76
66484,note_on,0,0,10,,,,,,,,,6,,,,50,62
66484,note_on,30,0,10,,,,,,,,,6,,,,55,0
66498,note_on,15,0,3,,,,,,,,,2,,,,65,0
66512,note_on,0,0,9,,,,,,,,,12,,,,62,76
66512,note_on,30,0,8,,,,,,,,,11,,,,65,0
66512,note_on,0,0,8,,,,,,,,,11,,,,62,78
66512,note_on,30,0,9,,,,,,,,,12,,,,65,0
66513,note_on,15,0,3,,,,,,,,,2,,,,70,76
66514,note_on,0,0,10,,,,,,,,,6,,,,53,62
66514,note_on,30,0,10,,,,,,,,,6,,,,50,0
66528,note_on,15,0,3,,,,,,,,,2,,,,70,0
66540,note_on,115,0,4,,,,,,,,,3,,,,58,0
66540,note_on,0,0,4,,,,,,,,,3,,,,46,0
66542,note_on,30,0,9,,,,,,,,,12,,,,62,0
66542,note_on,30,0,8,,,,,,,,,11,,,,62,0
66542,note_on,0,0,8,,,,,,,,,11,,,,65,78
66542,note_on,0,0,9,,,,,,,,,12,,,,65,76
66543,note_on,15,0,3,,,,,,,,,2,,,,74,76
66544,note_on,0,0,10,,,,,,,,,6,,,,50,62
66544,note_on,30,0,10,,,,,,,,,6,,,,53,0
66545,note_on,5,0,4,,,,,,,,,3,,,,46,95
66558,note_on,15,0,3,,,,,,,,,2,,,,74,0
66572,note_on,0,0,8,,,,,,,,,11,,,,62,78
66572,note_on,30,0,8,,,,,,,,,11,,,,65,0
66572,note_on,0,0,9,,,,,,,,,12,,,,62,76
66572,note_on,30,0,9,,,,,,,,,12,,,,65,0
66573,note_on,15,0,3,,,,,,,,,2,,,,77,76
66574,note_on,30,0,10,,,,,,,,,6,,,,50,0
66574,note_on,0,0,10,,,,,,,,,6,,,,53,62
66588,note_on,15,0,3,,,,,,,,,2,,,,77,0
66598,note_on,175,0,5,,,,,,,,,4,,,,62,0
66600,set_tempo,120,1,0,,,,,,1034483,,,,,,,,
66600,note_on,420,0,7,,,,,,,,,10,,,,62,77
66600,note_on,175,0,6,,,,,,,,,5,,,,50,0
66600,note_on,180,0,1,,,,,,,,,0,,,,74,0
66602,note_on,0,0,8,,,,,,,,,11,,,,63,78
66602,note_on,30,0,8,,,,,,,,,11,,,,62,0
66602,note_on,0,0,9,,,,,,,,,12,,,,63,76
66602,note_on,0,0,2,,,,,,,,,1,,,,77,95
66602,note_on,240,0,2,,,,,,,,,1,,,,74,95
66602,note_on,30,0,9,,,,,,,,,12,,,,62,0
66603,note_on,15,0,3,,,,,,,,,2,,,,74,0
66603,note_on,0,0,3,,,,,,,,,2,,,,70,68
66603,note_on,0,0,3,,,,,,,,,2,,,,82,74
66603,note_on,5,0,5,,,,,,,,,4,,,,58,82
66604,note_on,30,0,10,,,,,,,,,6,,,,53,0
66604,note_on,0,0,10,,,,,,,,,6,,,,48,62
66605,note_on,5,0,6,,,,,,,,,5,,,,46,82
66615,note_on,15,0,7,,,,,,,,,10,,,,62,0
66630,note_on,15,0,7,,,,,,,,,10,,,,65,77
66632,note_on,0,0,8,,,,,,,,,11,,,,60,78
66632,note_on,30,0,9,,,,,,,,,12,,,,63,0
66632,note_on,30,0,8,,,,,,,,,11,,,,63,0
66632,note_on,0,0,9,,,,,,,,,12,,,,60,76
66634,note_on,30,0,10,,,,,,,,,6,,,,48,0
66634,note_on,0,0,10,,,,,,,,,6,,,,51,62
66645,note_on,15,0,7,,,,,,,,,10,,,,65,0
66657,note_on,0,0,2,,,,,,,,,1,,,,74,0
66657,note_on,55,0,2,,,,,,,,,1,,,,77,0
66660,note_on,15,0,7,,,,,,,,,10,,,,70,77
66660,set_tempo,60,1,0,,,,,,937500,,,,,,,,
66662,note_on,0,0,8,,,,,,,,,11,,,,62,78
66662,note_on,0,0,2,,,,,,,,,1,,,,77,95
66662,note_on,30,0,9,,,,,,,,,12,,,,60,0
66662,note_on,0,0,9,,,,,,,,,12,,,,62,76
66662,note_on,30,0,8,,,,,,,,,11,,,,60,0
66662,note_on,5,0,2,,,,,,,,,1,,,,74,95
66664,note_on,30,0,10,,,,,,,,,6,,,,51,0
66664,note_on,0,0,10,,,,,,,,,6,,,,46,62
66675,note_on,15,0,7,,,,,,,,,10,,,,70,0
66690,note_on,15,0,7,,,,,,,,,10,,,,74,77
66692,note_on,30,0,9,,,,,,,,,12,,,,62,0
66692,note_on,30,0,8,,,,,,,,,11,,,,62,0
66692,note_on,0,0,9,,,,,,,,,12,,,,58,76
66692,note_on,0,0,8,,,,,,,,,11,,,,58,78
66694,note_on,0,0,10,,,,,,,,,6,,,,50,62
66694,note_on,30,0,10,,,,,,,,,6,,,,46,0
66705,note_on,15,0,7,,,,,,,,,10,,,,74,0
66717,note_on,55,0,2,,,,,,,,,1,,,,77,0
66717,note_on,0,0,2,,,,,,,,,1,,,,74,0
66720,note_on,15,0,7,,,,,,,,,10,,,,77,77
66720,note_on,175,0,4,,,,,,,,,3,,,,46,0
66722,note_on,0,0,9,,,,,,,,,12,,,,62,76
66722,note_on,5,0,2,,,,,,,,,1,,,,74,95
66722,note_on,0,0,2,,,,,,,,,1,,,,77,95
66722,note_on,0,0,8,,,,,,,,,11,,,,62,78
66722,note_on,30,0,8,,,,,,,,,11,,,,58,0
66722,note_on,30,0,9,,,,,,,,,12,,,,58,0
66723,note_on,120,0,3,,,,,,,,,2,,,,82,0
66724,note_on,30,0,10,,,,,,,,,6,,,,50,0
66724,note_on,0,0,10,,,,,,,,,6,,,,46,62
66725,note_on,5,0,4,,,,,,,,,3,,,,46,95
66735,note_on,15,0,7,,,,,,,,,10,,,,77,0
66750,note_on,15,0,7,,,,,,,,,10,,,,82,77
66752,note_on,0,0,8,,,,,,,,,11,,,,58,78
66752,note_on,30,0,8,,,,,,,,,11,,,,62,0
66752,note_on,30,0,9,,,,,,,,,12,,,,62,0
66752,note_on,0,0,9,,,,,,,,,12,,,,58,76
66754,note_on,30,0,10,,,,,,,,,6,,,,46,0
66754,note_on,0,0,10,,,,,,,,,6,,,,50,62
66765,note_on,15,0,7,,,,,,,,,10,,,,82,0
66777,note_on,0,0,2,,,,,,,,,1,,,,74,0
66777,note_on,55,0,2,,,,,,,,,1,,,,77,0
66778,note_on,175,0,5,,,,,,,,,4,,,,58,0
66780,note_on,180,0,1,,,,,,,,,0,,,,65,83
66780,note_on,15,0,7,,,,,,,,,10,,,,58,103
66780,set_tempo,120,1,0,,,,,,1034483,,,,,,,,
66780,note_on,175,0,6,,,,,,,,,5,,,,46,0
66782,note_on,30,0,8,,,,,,,,,11,,,,58,0
66782,note_on,0,0,9,,,,,,,,,12,,,,60,76
66782,note_on,5,0,2,,,,,,,,,1,,,,77,95
66782,note_on,0,0,2,,,,,,,,,1,,,,74,95
66782,note_on,30,0,9,,,,,,,,,12,,,,58,0
66782,note_on,0,0,8,,,,,,,,,11,,,,60,78
66783,note_on,0,0,3,,,,,,,,,2,,,,65,76
66783,note_on,60,0,3,,,,,,,,,2,,,,70,0
66783,note_on,5,0,5,,,,,,,,,4,,,,53,82
66784,note_on,30,0,10,,,,,,,,,6,,,,50,0
66784,note_on,0,0,10,,,,,,,,,6,,,,41,62
66785,note_on,5,0,6,,,,,,,,,5,,,,41,82
66812,note_on,30,0,8,,,,,,,,,11,,,,60,0
66812,note_on,0,0,8,,,,,,,,,11,,,,57,78
66812,note_on,0,0,9,,,,,,,,,12,,,,57,76
66812,note_on,30,0,9,,,,,,,,,12,,,,60,0
66814,note_on,0,0,10,,,,,,,,,6,,,,48,62
66814,note_on,30,0,10,,,,,,,,,6,,,,41,0
66837,note_on,55,0,2,,,,,,,,,1,,,,74,0
66837,note_on,0,0,2,,,,,,,,,1,,,,77,0
66840,set_tempo,60,1,0,,,,,,937500,,,,,,,,
66840,note_on,60,0,1,,,,,,,,,0,,,,82,99
66842,note_on,0,0,8,,,,,,,,,11,,,,62,78
66842,note_on,5,0,2,,,,,,,,,1,,,,74,95
66842,note_on,0,0,2,,,,,,,,,1,,,,77,95
66842,note_on,0,0,9,,,,,,,,,12,,,,62,76
66842,note_on,30,0,8,,,,,,,,,11,,,,57,0
66842,note_on,30,0,9,,,,,,,,,12,,,,57,0
66844,note_on,30,0,10,,,,,,,,,6,,,,48,0
66844,note_on,0,0,10,,,,,,,,,6,,,,46,62
66870,note_on,30,0,1,,,,,,,,,0,,,,82,0
66870,note_on,0,0,1,,,,,,,,,0,,,,84,111
66872,note_on,30,0,8,,,,,,,,,11,,,,62,0
66872,note_on,0,0,8,,,,,,,,,11,,,,58,78
66872,note_on,0,0,9,,,,,,,,,12,,,,58,76
66872,note_on,30,0,9,,,,,,,,,12,,,,62,0
66874,note_on,30,0,10,,,,,,,,,6,,,,46,0
66874,note_on,0,0,10,,,,,,,,,6,,,,50,62
66897,note_on,55,0,2,,,,,,,,,1,,,,77,0
66897,note_on,0,0,2,,,,,,,,,1,,,,74,0
66900,note_on,0,0,1,,,,,,,,,0,,,,86,111
66900,note_on,30,0,1,,,,,,,,,0,,,,84,0
66900,note_on,120,0,7,,,,,,,,,10,,,,58,0
66900,note_on,175,0,4,,,,,,,,,3,,,,46,0
66902,note_on,0,0,8,,,,,,,,,11,,,,62,78
66902,note_on,30,0,8,,,,,,,,,11,,,,58,0
66902,note_on,30,0,9,,,,,,,,,12,,,,58,0
66902,note_on,0,0,9,,,,,,,,,12,,,,62,76
66902,note_on,5,0,2,,,,,,,,,1,,,,74,95
66902,note_on,0,0,2,,,,,,,,,1,,,,77,95
66904,note_on,0,0,10,,,,,,,,,6,,,,46,62
66904,note_on,30,0,10,,,,,,,,,6,,,,50,0
66905,note_on,5,0,4,,,,,,,,,3,,,,46,95
66930,note_on,0,0,1,,,,,,,,,0,,,,82,111
66930,note_on,30,0,1,,,,,,,,,0,,,,86,0
66932,note_on,0,0,8,,,,,,,,,11,,,,58,78
66932,note_on,30,0,8,,,,,,,,,11,,,,62,0
66932,note_on,0,0,9,,,,,,,,,12,,,,58,76
66932,note_on,30,0,9,,,,,,,,,12,,,,62,0
66934,note_on,0,0,10,,,,,,,,,6,,,,50,62
66934,note_on,30,0,10,,,,,,,,,6,,,,46,0
66945,set_tempo,105,1,0,,,,,,1132075,,,,,,,,
66955,note_on,25,0,1,,,,,,,,,0,,,,82,0
66957,note_on,25,0,8,,,,,,,,,11,,,,58,0
66957,note_on,55,0,2,,,,,,,,,1,,,,77,0
66957,note_on,25,0,9,,,,,,,,,12,,,,58,0
66957,note_on,0,0,2,,,,,,,,,1,,,,74,0
66958,note_on,175,0,5,,,,,,,,,4,,,,53,0
66959,note_on,25,0,10,,,,,,,,,6,,,,50,0
66960,note_on,5,0,1,,,,,,,,,0,,,,65,0
66960,note_on,175,0,6,,,,,,,,,5,,,,41,0
66960,note_on,55,0,4,,,,,,,,,3,,,,46,0
66960,set_tempo,15,1,0,,,,,,1034483,,,,,,,,
66960,note_on,0,0,1,,,,,,,,,0,,,,81,111
66960,note_on,0,0,1,,,,,,,,,0,,,,72,83
66962,note_on,5,0,8,,,,,,,,,11,,,,63,78
66962,note_on,0,0,2,,,,,,,,,1,,,,75,95
66962,note_on,5,0,9,,,,,,,,,12,,,,63,76
66962,note_on,5,0,2,,,,,,,,,1,,,,77,95
66963,note_on,180,0,3,,,,,,,,,2,,,,65,0
66964,note_on,5,0,10,,,,,,,,,6,,,,41,62
66965,note_on,5,0,4,,,,,,,,,3,,,,41,95
66965,note_on,600,0,11,,,,,,,,,13,,,,41,43
66968,note_on,600,0,12,,,,,,,,,14,,,,29,36
66970,note_on,10,0,1,,,,,,,,,0,,,,81,0
66970,note_on,0,0,1,,,,,,,,,0,,,,82,111
66980,note_on,0,0,1,,,,,,,,,0,,,,84,111
66980,note_on,10,0,1,,,,,,,,,0,,,,82,0
66990,note_on,0,0,1,,,,,,,,,0,,,,82,111
66990,note_on,10,0,1,,,,,,,,,0,,,,84,0
66992,note_on,0,0,9,,,,,,,,,12,,,,57,76
66992,note_on,30,0,9,,,,,,,,,12,,,,63,0
66992,note_on,30,0,8,,,,,,,,,11,,,,63,0
66992,note_on,0,0,8,,,,,,,,,11,,,,57,78
66994,note_on,0,0,10,,,,,,,,,6,,,,48,62
66994,note_on,30,0,10,,,,,,,,,6,,,,41,0
66995,note_on,30,0,4,,,,,,,,,3,,,,45,82
67015,note_on,20,0,4,,,,,,,,,3,,,,45,0
67020,note_on,30,0,1,,,,,,,,,0,,,,82,0
67020,set_tempo,60,1,0,,,,,,937500,,,,,,,,
67020,note_on,0,0,1,,,,,,,,,0,,,,81,93
67022,note_on,0,0,8,,,,,,,,,11,,,,63,78
67022,note_on,0,0,9,,,,,,,,,12,,,,63,76
67022,note_on,30,0,9,,,,,,,,,12,,,,57,0
67022,note_on,30,0,8,,,,,,,,,11,,,,57,0
67024,note_on,0,0,10,,,,,,,,,6,,,,48,62
67024,note_on,30,0,10,,,,,,,,,6,,,,48,0
67025,note_on,10,0,4,,,,,,,,,3,,,,48,82
67045,note_on,20,0,4,,,,,,,,,3,,,,48,0
67052,note_on,30,0,8,,,,,,,,,11,,,,63,0
67052,note_on,0,0,8,,,,,,,,,11,,,,60,78
67052,note_on,30,0,9,,,,,,,,,12,,,,63,0
67052,note_on,0,0,9,,,,,,,,,12,,,,60,76
67054,note_on,0,0,10,,,,,,,,,6,,,,51,62
67054,note_on,30,0,10,,,,,,,,,6,,,,48,0
67055,note_on,10,0,4,,,,,,,,,3,,,,53,82
67075,note_on,20,0,4,,,,,,,,,3,,,,53,0
67082,note_on,30,0,9,,,,,,,,,12,,,,60,0
67082,note_on,0,0,2,,,,,,,,,1,,,,77,0
67082,note_on,120,0,2,,,,,,,,,1,,,,75,0
67082,note_on,0,0,8,,,,,,,,,11,,,,63,78
67082,note_on,0,0,9,,,,,,,,,12,,,,63,76
67082,note_on,30,0,8,,,,,,,,,11,,,,60,0
67084,note_on,30,0,10,,,,,,,,,6,,,,51,0
67084,note_on,0,0,10,,,,,,,,,6,,,,48,62
67085,note_on,120,0,11,,,,,,,,,13,,,,41,0
67085,note_on,10,0,4,,,,,,,,,3,,,,57,82
67088,note_on,120,0,12,,,,,,,,,14,,,,29,0
67105,note_on,20,0,4,,,,,,,,,3,,,,57,0
67112,note_on,0,0,8,,,,,,,,,11,,,,60,78
67112,note_on,30,0,8,,,,,,,,,11,,,,63,0
67112,note_on,30,0,9,,,,,,,,,12,,,,63,0
67112,note_on,0,0,9,,,,,,,,,12,,,,60,76
67114,note_on,0,0,10,,,,,,,,,6,,,,51,62
67114,note_on,30,0,10,,,,,,,,,6,,,,48,0
67115,note_on,10,0,4,,,,,,,,,3,,,,60,82
67135,note_on,20,0,4,,,,,,,,,3,,,,60,0
67140,set_tempo,120,1,0,,,,,,1034483,,,,,,,,
67140,note_on,0,0,1,,,,,,,,,0,,,,75,65
67140,note_on,0,0,1,,,,,,,,,0,,,,72,0
67140,note_on,120,0,1,,,,,,,,,0,,,,81,0
67142,note_on,0,0,8,,,,,,,,,11,,,,65,78
67142,note_on,30,0,9,,,,,,,,,12,,,,60,0
67142,note_on,0,0,9,,,,,,,,,12,,,,65,76
67142,note_on,30,0,8,,,,,,,,,11,,,,60,0
67143,note_on,0,0,3,,,,,,,,,2,,,,75,76
67143,note_on,180,0,3,,,,,,,,,2,,,,53,76
67143,note_on,185,0,5,,,,,,,,,4,,,,63,82
67144,note_on,30,0,10,,,,,,,,,6,,,,51,0
67144,note_on,0,0,10,,,,,,,,,6,,,,50,62
67145,note_on,10,0,4,,,,,,,,,3,,,,65,82
67145,note_on,185,0,6,,,,,,,,,5,,,,63,82
67163,note_on,20,0,3,,,,,,,,,2,,,,53,0
67172,note_on,0,0,9,,,,,,,,,12,,,,62,76
67172,note_on,30,0,9,,,,,,,,,12,,,,65,0
67172,note_on,0,0,8,,,,,,,,,11,,,,62,78
67172,note_on,30,0,8,,,,,,,,,11,,,,65,0
67173,note_on,10,0,3,,,,,,,,,2,,,,57,76
67174,note_on,0,0,10,,,,,,,,,6,,,,53,62
67174,note_on,30,0,10,,,,,,,,,6,,,,50,0
67193,note_on,20,0,3,,,,,,,,,2,,,,57,0
67200,set_tempo,60,1,0,,,,,,937500,,,,,,,,
67202,note_on,30,0,8,,,,,,,,,11,,,,62,0
67202,note_on,0,0,8,,,,,,,,,11,,,,63,78
67202,note_on,30,0,9,,,,,,,,,12,,,,62,0
67202,note_on,0,0,9,,,,,,,,,12,,,,63,76
67203,note_on,10,0,3,,,,,,,,,2,,,,60,76
67204,note_on,0,0,10,,,,,,,,,6,,,,48,62
67204,note_on,30,0,10,,,,,,,,,6,,,,53,0
67223,note_on,20,0,3,,,,,,,,,2,,,,60,0
67232,note_on,0,0,8,,,,,,,,,11,,,,60,78
67232,note_on,0,0,9,,,,,,,,,12,,,,60,76
67232,note_on,30,0,9,,,,,,,,,12,,,,63,0
67232,note_on,30,0,8,,,,,,,,,11,,,,63,0
67233,note_on,10,0,3,,,,,,,,,2,,,,65,76
67234,note_on,30,0,10,,,,,,,,,6,,,,48,0
67234,note_on,0,0,10,,,,,,,,,6,,,,51,62
67253,note_on,20,0,3,,,,,,,,,2,,,,65,0
67260,note_on,115,0,4,,,,,,,,,3,,,,65,0
67260,note_on,0,0,4,,,,,,,,,3,,,,41,0
67262,note_on,30,0,8,,,,,,,,,11,,,,60,0
67262,note_on,30,0,9,,,,,,,,,12,,,,60,0
67262,note_on,0,0,8,,,,,,,,,11,,,,63,78
67262,note_on,0,0,9,,,,,,,,,12,,,,63,76
67263,note_on,10,0,3,,,,,,,,,2,,,,69,76
67264,note_on,0,0,10,,,,,,,,,6,,,,48,62
67264,note_on,30,0,10,,,,,,,,,6,,,,51,0
67265,note_on,5,0,4,,,,,,,,,3,,,,41,95
67283,note_on,20,0,3,,,,,,,,,2,,,,69,0
67292,note_on,30,0,9,,,,,,,,,12,,,,63,0
67292,note_on,30,0,8,,,,,,,,,11,,,,63,0
67292,note_on,0,0,8,,,,,,,,,11,,,,60,78
67292,note_on,0,0,9,,,,,,,,,12,,,,60,76
67293,note_on,10,0,3,,,,,,,,,2,,,,72,76
67294,note_on,30,0,10,,,,,,,,,6,,,,48,0
67294,note_on,0,0,10,,,,,,,,,6,,,,51,62
67313,note_on,20,0,3,,,,,,,,,2,,,,72,0
67318,note_on,175,0,5,,,,,,,,,4,,,,63,0
67320,note_on,180,0,1,,,,,,,,,0,,,,75,0
67320,note_on,420,0,7,,,,,,,,,10,,,,65,77
67320,set_tempo,120,1,0,,,,,,1034483,,,,,,,,
67320,note_on,175,0,6,,,,,,,,,5,,,,63,0
67322,note_on,0,0,2,,,,,,,,,1,,,,77,95
67322,note_on,240,0,2,,,,,,,,,1,,,,75,95
67322,note_on,30,0,8,,,,,,,,,11,,,,60,0
67322,note_on,0,0,9,,,,,,,,,12,,,,62,76
67322,note_on,30,0,9,,,,,,,,,12,,,,60,0
67322,note_on,0,0,8,,,,,,,,,11,,,,62,78
67323,note_on,0,0,3,,,,,,,,,2,,,,72,68
67323,note_on,0,0,3,,,,,,,,,2,,,,75,74
67323,note_on,5,0,5,,,,,,,,,4,,,,60,82
67323,note_on,10,0,3,,,,,,,,,2,,,,75,0
67324,note_on,30,0,10,,,,,,,,,6,,,,51,0
67324,note_on,0,0,10,,,,,,,,,6,,,,46,62
67325,note_on,5,0,6,,,,,,,,,5,,,,60,82
67340,note_on,20,0,7,,,,,,,,,10,,,,65,0
67350,note_on,10,0,7,,,,,,,,,10,,,,69,77
67352,note_on,0,0,9,,,,,,,,,12,,,,58,76
67352,note_on,0,0,8,,,,,,,,,11,,,,58,78
67352,note_on,30,0,8,,,,,,,,,11,,,,62,0
67352,note_on,30,0,9,,,,,,,,,12,,,,62,0
67354,note_on,0,0,10,,,,,,,,,6,,,,50,62
67354,note_on,30,0,10,,,,,,,,,6,,,,46,0
67370,note_on,20,0,7,,,,,,,,,10,,,,69,0
67377,note_on,0,0,2,,,,,,,,,1,,,,75,0
67377,note_on,55,0,2,,,,,,,,,1,,,,77,0
67380,set_tempo,60,1,0,,,,,,937500,,,,,,,,
67380,note_on,10,0,7,,,,,,,,,10,,,,72,77
67382,note_on,0,0,2,,,,,,,,,1,,,,77,95
67382,note_on,5,0,2,,,,,,,,,1,,,,75,95
67382,note_on,0,0,9,,,,,,,,,12,,,,60,76
67382,note_on,30,0,9,,,,,,,,,12,,,,58,0
67382,note_on,0,0,8,,,,,,,,,11,,,,60,78
67382,note_on,30,0,8,,,,,,,,,11,,,,58,0
67384,note_on,30,0,10,,,,,,,,,6,,,,50,0
67384,note_on,0,0,10,,,,,,,,,6,,,,45,62
67400,note_on,20,0,7,,,,,,,,,10,,,,72,0
67410,note_on,10,0,7,,,,,,,,,10,,,,77,77
67412,note_on,0,0,8,,,,,,,,,11,,,,57,78
67412,note_on,30,0,8,,,,,,,,,11,,,,60,0
67412,note_on,30,0,9,,,,,,,,,12,,,,60,0
67412,note_on,0,0,9,,,,,,,,,12,,,,57,76
67414,note_on,30,0,10,,,,,,,,,6,,,,45,0
67414,note_on,0,0,10,,,,,,,,,6,,,,48,62
67430,note_on,20,0,7,,,,,,,,,10,,,,77,0
67437,note_on,0,0,2,,,,,,,,,1,,,,75,0
67437,note_on,55,0,2,,,,,,,,,1,,,,77,0
67440,note_on,175,0,4,,,,,,,,,3,,,,41,0
67440,note_on,10,0,7,,,,,,,,,10,,,,81,77
67442,note_on,0,0,9,,,,,,,,,12,,,,60,76
67442,note_on,30,0,9,,,,,,,,,12,,,,57,0
67442,note_on,0,0,2,,,,,,,,,1,,,,77,95
67442,note_on,30,0,8,,,,,,,,,11,,,,57,0
67442,note_on,5,0,2,,,,,,,,,1,,,,75,95
67442,note_on,0,0,8,,,,,,,,,11,,,,60,78
67443,note_on,120,0,3,,,,,,,,,2,,,,75,0
67444,note_on,0,0,10,,,,,,,,,6,,,,45,62
67444,note_on,30,0,10,,,,,,,,,6,,,,48,0
67445,note_on,5,0,4,,,,,,,,,3,,,,41,95
67460,note_on,20,0,7,,,,,,,,,10,,,,81,0
67470,note_on,10,0,7,,,,,,,,,10,,,,84,77
67472,note_on,30,0,9,,,,,,,,,12,,,,60,0
67472,note_on,0,0,8,,,,,,,,,11,,,,57,78
67472,note_on,0,0,9,,,,,,,,,12,,,,57,76
67472,note_on,30,0,8,,,,,,,,,11,,,,60,0
67474,note_on,0,0,10,,,,,,,,,6,,,,48,62
67474,note_on,30,0,10,,,,,,,,,6,,,,45,0
67490,note_on,20,0,7,,,,,,,,,10,,,,84,0
67497,note_on,55,0,2,,,,,,,,,1,,,,77,0
67497,note_on,0,0,2,,,,,,,,,1,,,,75,0
67498,note_on,175,0,5,,,,,,,,,4,,,,60,0
67500,note_on,175,0,6,,,,,,,,,5,,,,60,0
67500,note_on,10,0,7,,,,,,,,,10,,,,65,103
67500,set_tempo,120,1,0,,,,,,1034483,,,,,,,,
67500,note_on,180,0,1,,,,,,,,,0,,,,65,83
67502,note_on,30,0,9,,,,,,,,,12,,,,57,0
67502,note_on,0,0,9,,,,,,,,,12,,,,58,76
67502,note_on,0,0,2,,,,,,,,,1,,,,77,95
67502,note_on,30,0,8,,,,,,,,,11,,,,57,0
67502,note_on,0,0,8,,,,,,,,,11,,,,58,78
67502,note_on,5,0,2,,,,,,,,,1,,,,75,95
67503,note_on,0,0,3,,,,,,,,,2,,,,65,96
67503,note_on,60,0,3,,,,,,,,,2,,,,72,0
67503,note_on,5,0,5,,,,,,,,,4,,,,53,82
67504,note_on,0,0,10,,,,,,,,,6,,,,43,62
67504,note_on,30,0,10,,,,,,,,,6,,,,48,0
67505,note_on,5,0,6,,,,,,,,,5,,,,53,82
67532,note_on,30,0,8,,,,,,,,,11,,,,58,0
67532,note_on,0,0,8,,,,,,,,,11,,,,55,78
67532,note_on,30,0,9,,,,,,,,,12,,,,58,0
67532,note_on,0,0,9,,,,,,,,,12,,,,55,76
67534,note_on,30,0,10,,,,,,,,,6,,,,43,0
67534,note_on,0,0,10,,,,,,,,,6,,,,46,62
67557,note_on,0,0,2,,,,,,,,,1,,,,75,0
67557,note_on,55,0,2,,,,,,,,,1,,,,77,0
67560,set_tempo,60,1,0,,,,,,937500,,,,,,,,
67560,note_on,60,0,1,,,,,,,,,0,,,,84,99
67562,note_on,0,0,9,,,,,,,,,12,,,,60,76
67562,note_on,0,0,8,,,,,,,,,11,,,,60,78
67562,note_on,30,0,8,,,,,,,,,11,,,,55,0
67562,note_on,30,0,9,,,,,,,,,12,,,,55,0
67562,note_on,0,0,2,,,,,,,,,1,,,,77,95
67562,note_on,5,0,2,,,,,,,,,1,,,,75,95
67564,note_on,30,0,10,,,,,,,,,6,,,,46,0
67564,note_on,0,0,10,,,,,,,,,6,,,,45,62
67590,note_on,30,0,1,,,,,,,,,0,,,,84,0
67590,note_on,0,0,1,,,,,,,,,0,,,,86,111
67592,note_on,30,0,8,,,,,,,,,11,,,,60,0
67592,note_on,0,0,8,,,,,,,,,11,,,,57,78
67592,note_on,30,0,9,,,,,,,,,12,,,,60,0
67592,note_on,0,0,9,,,,,,,,,12,,,,57,76
67594,note_on,0,0,10,,,,,,,,,6,,,,48,62
67594,note_on,30,0,10,,,,,,,,,6,,,,45,0
67617,note_on,55,0,2,,,,,,,,,1,,,,77,0
67617,note_on,0,0,2,,,,,,,,,1,,,,75,0
67620,note_on,175,0,4,,,,,,,,,3,,,,41,0
67620,note_on,30,0,1,,,,,,,,,0,,,,86,0
67620,note_on,0,0,1,,,,,,,,,0,,,,87,111
67620,note_on,120,0,7,,,,,,,,,10,,,,65,0
67622,note_on,5,0,2,,,,,,,,,1,,,,75,95
67622,note_on,0,0,2,,,,,,,,,1,,,,77,95
67622,note_on,0,0,8,,,,,,,,,11,,,,60,78
67622,note_on,30,0,8,,,,,,,,,11,,,,57,0
67622,note_on,30,0,9,,,,,,,,,12,,,,57,0
67622,note_on,0,0,9,,,,,,,,,12,,,,60,76
67624,note_on,0,0,10,,,,,,,,,6,,,,45,62
67624,note_on,30,0,10,,,,,,,,,6,,,,48,0
67625,note_on,5,0,4,,,,,,,,,3,,,,41,95
67650,note_on,0,0,1,,,,,,,,,0,,,,86,111
67650,note_on,30,0,1,,,,,,,,,0,,,,87,0
67652,note_on,30,0,8,,,,,,,,,11,,,,60,0
67652,note_on,30,0,9,,,,,,,,,12,,,,60,0
67652,note_on,0,0,8,,,,,,,,,11,,,,57,78
67652,note_on,0,0,9,,,,,,,,,12,,,,57,76
67654,note_on,30,0,10,,,,,,,,,6,,,,45,0
67654,note_on,0,0,10,,,,,,,,,6,,,,48,62
67665,set_tempo,105,1,0,,,,,,1142857,,,,,,,,
67675,note_on,25,0,1,,,,,,,,,0,,,,86,0
67677,note_on,0,0,2,,,,,,,,,1,,,,75,0
67677,note_on,25,0,8,,,,,,,,,11,,,,57,0
67677,note_on,55,0,2,,,,,,,,,1,,,,77,0
67677,note_on,25,0,9,,,,,,,,,12,,,,57,0
67678,note_on,175,0,5,,,,,,,,,4,,,,53,0
67679,note_on,25,0,10,,,,,,,,,6,,,,48,0
67680,set_tempo,15,1,0,,,,,,1034483,,,,,,,,
67680,note_on,0,0,1,,,,,,,,,0,,,,86,111
67680,note_on,0,0,1,,,,,,,,,0,,,,72,83
67680,note_on,175,0,6,,,,,,,,,5,,,,53,0
67680,note_on,55,0,4,,,,,,,,,3,,,,41,0
67680,note_on,5,0,1,,,,,,,,,0,,,,65,0
67682,note_on,5,0,2,,,,,,,,,1,,,,75,95
67682,note_on,0,0,2,,,,,,,,,1,,,,77,95
67682,note_on,5,0,8,,,,,,,,,11,,,,60,78
67682,note_on,5,0,9,,,,,,,,,12,,,,60,76
67683,note_on,180,0,3,,,,,,,,,2,,,,65,0
67684,note_on,5,0,10,,,,,,,,,6,,,,45,62
67685,note_on,600,0,11,,,,,,,,,13,,,,41,43
67685,note_on,5,0,4,,,,,,,,,3,,,,41,95
67688,note_on,600,0,12,,,,,,,,,14,,,,29,36
67712,note_on,0,0,9,,,,,,,,,12,,,,57,76
67712,note_on,30,0,8,,,,,,,,,11,,,,60,0
67712,note_on,30,0,9,,,,,,,,,12,,,,60,0
67712,note_on,0,0,8,,,,,,,,,11,,,,57,78
67714,note_on,30,0,10,,,,,,,,,6,,,,45,0
67714,note_on,0,0,10,,,,,,,,,6,,,,48,62
67715,note_on,30,0,4,,,,,,,,,3,,,,45,82
67735,note_on,20,0,4,,,,,,,,,3,,,,45,0
67740,set_tempo,60,1,0,,,,,,937500,,,,,,,,
67740,note_on,60,0,1,,,,,,,,,0,,,,86,0
67740,note_on,0,0,1,,,,,,,,,0,,,,84,96
67742,note_on,30,0,9,,,,,,,,,12,,,,57,0
67742,note_on,0,0,8,,,,,,,,,11,,,,63,78
67742,note_on,0,0,9,,,,,,,,,12,,,,63,76
67742,note_on,30,0,8,,,,,,,,,11,,,,57,0
67744,note_on,30,0,10,,,,,,,,,6,,,,48,0
67744,note_on,0,0,10,,,,,,,,,6,,,,48,62
67745,note_on,10,0,4,,,,,,,,,3,,,,48,82
67765,note_on,20,0,4,,,,,,,,,3,,,,48,0
67772,note_on,30,0,8,,,,,,,,,11,,,,63,0
67772,note_on,0,0,8,,,,,,,,,11,,,,60,78
67772,note_on,0,0,9,,,,,,,,,12,,,,60,76
67772,note_on,30,0,9,,,,,,,,,12,,,,63,0
67774,note_on,30,0,10,,,,,,,,,6,,,,48,0
67774,note_on,0,0,10,,,,,,,,,6,,,,51,62
67775,note_on,10,0,4,,,,,,,,,3,,,,53,82
67795,note_on,20,0,4,,,,,,,,,3,,,,53,0
67802,note_on,30,0,9,,,,,,,,,12,,,,60,0
67802,note_on,0,0,9,,,,,,,,,12,,,,63,76
67802,note_on,120,0,2,,,,,,,,,1,,,,77,0
67802,note_on,30,0,8,,,,,,,,,11,,,,60,0
67802,note_on,0,0,8,,,,,,,,,11,,,,63,78
67802,note_on,0,0,2,,,,,,,,,1,,,,75,0
67804,note_on,30,0,10,,,,,,,,,6,,,,51,0
67804,note_on,0,0,10,,,,,,,,,6,,,,48,62
67805,note_on,10,0,4,,,,,,,,,3,,,,57,82
67805,note_on,120,0,11,,,,,,,,,13,,,,41,0
67808,note_on,120,0,12,,,,,,,,,14,,,,29,0
67825,note_on,20,0,4,,,,,,,,,3,,,,57,0
67832,note_on,30,0,8,,,,,,,,,11,,,,63,0
67832,note_on,0,0,8,,,,,,,,,11,,,,60,78
67832,note_on,0,0,9,,,,,,,,,12,,,,60,76
67832,note_on,30,0,9,,,,,,,,,12,,,,63,0
67834,note_on,30,0,10,,,,,,,,,6,,,,48,0
67834,note_on,0,0,10,,,,,,,,,6,,,,51,62
67835,note_on,10,0,4,,,,,,,,,3,,,,60,82
67855,note_on,20,0,4,,,,,,,,,3,,,,60,0
67860,set_tempo,120,1,0,,,,,,1034483,,,,,,,,
67860,note_on,0,0,1,,,,,,,,,0,,,,75,65
67860,note_on,120,0,1,,,,,,,,,0,,,,84,0
67860,note_on,0,0,1,,,,,,,,,0,,,,72,0
67862,note_on,0,0,9,,,,,,,,,12,,,,65,76
67862,note_on,30,0,9,,,,,,,,,12,,,,60,0
67862,note_on,30,0,8,,,,,,,,,11,,,,60,0
67862,note_on,0,0,8,,,,,,,,,11,,,,65,78
67863,note_on,185,0,5,,,,,,,,,4,,,,63,82
67863,note_on,180,0,3,,,,,,,,,2,,,,75,76
67863,note_on,0,0,3,,,,,,,,,2,,,,53,76
67864,note_on,0,0,10,,,,,,,,,6,,,,50,62
67864,note_on,30,0,10,,,,,,,,,6,,,,51,0
67865,note_on,10,0,4,,,,,,,,,3,,,,65,82
67865,note_on,185,0,6,,,,,,,,,5,,,,63,82
67883,note_on,20,0,3,,,,,,,,,2,,,,53,0
67892,note_on,0,0,9,,,,,,,,,12,,,,62,76
67892,note_on,0,0,8,,,,,,,,,11,,,,62,78
67892,note_on,30,0,8,,,,,,,,,11,,,,65,0
67892,note_on,30,0,9,,,,,,,,,12,,,,65,0
67893,note_on,10,0,3,,,,,,,,,2,,,,57,76
67894,note_on,30,0,10,,,,,,,,,6,,,,50,0
67894,note_on,0,0,10,,,,,,,,,6,,,,53,62
67913,note_on,20,0,3,,,,,,,,,2,,,,57,0
67920,set_tempo,60,1,0,,,,,,937500,,,,,,,,
67922,note_on,0,0,8,,,,,,,,,11,,,,63,78
67922,note_on,30,0,8,,,,,,,,,11,,,,62,0
67922,note_on,0,0,9,,,,,,,,,12,,,,63,76
67922,note_on,30,0,9,,,,,,,,,12,,,,62,0
67923,note_on,10,0,3,,,,,,,,,2,,,,60,76
67924,note_on,0,0,10,,,,,,,,,6,,,,48,62
67924,note_on,30,0,10,,,,,,,,,6,,,,53,0
67943,note_on,20,0,3,,,,,,,,,2,,,,60,0
67952,note_on,0,0,8,,,,,,,,,11,,,,60,78
67952,note_on,30,0,8,,,,,,,,,11,,,,63,0
67952,note_on,30,0,9,,,,,,,,,12,,,,63,0
67952,note_on,0,0,9,,,,,,,,,12,,,,60,76
67953,note_on,10,0,3,,,,,,,,,2,,,,65,76
67954,note_on,30,0,10,,,,,,,,,6,,,,48,0
67954,note_on,0,0,10,,,,,,,,,6,,,,51,62
67973,note_on,20,0,3,,,,,,,,,2,,,,65,0
67980,note_on,115,0,4,,,,,,,,,3,,,,65,0
67980,note_on,0,0,4,,,,,,,,,3,,,,41,0
67982,note_on,30,0,8,,,,,,,,,11,,,,60,0
67982,note_on,0,0,8,,,,,,,,,11,,,,63,78
67982,note_on,0,0,9,,,,,,,,,12,,,,63,76
67982,note_on,30,0,9,,,,,,,,,12,,,,60,0
67983,note_on,10,0,3,,,,,,,,,2,,,,69,76
67984,note_on,0,0,10,,,,,,,,,6,,,,48,62
67984,note_on,30,0,10,,,,,,,,,6,,,,51,0
67985,note_on,5,0,4,,,,,,,,,3,,,,41,95
68003,note_on,20,0,3,,,,,,,,,2,,,,69,0
68012,note_on,0,0,9,,,,,,,,,12,,,,60,76
68012,note_on,30,0,9,,,,,,,,,12,,,,63,0
68012,note_on,0,0,8,,,,,,,,,11,,,,60,78
68012,note_on,30,0,8,,,,,,,,,11,,,,63,0
68013,note_on,10,0,3,,,,,,,,,2,,,,72,76
68014,note_on,0,0,10,,,,,,,,,6,,,,51,62
68014,note_on,30,0,10,,,,,,,,,6,,,,48,0
68033,note_on,20,0,3,,,,,,,,,2,,,,72,0
68038,note_on,175,0,5,,,,,,,,,4,,,,63,0
68040,note_on,175,0,6,,,,,,,,,5,,,,63,0
68040,note_on,420,0,7,,,,,,,,,10,,,,65,89
68040,note_on,180,0,1,,,,,,,,,0,,,,75,0
68040,set_tempo,120,1,0,,,,,,1034483,,,,,,,,
68042,note_on,0,0,9,,,,,,,,,12,,,,62,76
68042,note_on,0,0,2,,,,,,,,,1,,,,77,95
68042,note_on,240,0,2,,,,,,,,,1,,,,72,95
68042,note_on,30,0,9,,,,,,,,,12,,,,60,0
68042,note_on,0,0,8,,,,,,,,,11,,,,62,78
68042,note_on,30,0,8,,,,,,,,,11,,,,60,0
68043,note_on,0,0,3,,,,,,,,,2,,,,72,68
68043,note_on,10,0,3,,,,,,,,,2,,,,75,0
68043,note_on,5,0,5,,,,,,,,,4,,,,60,82
68043,note_on,0,0,3,,,,,,,,,2,,,,77,74
68044,note_on,0,0,10,,,,,,,,,6,,,,46,62
68044,note_on,30,0,10,,,,,,,,,6,,,,51,0
68045,note_on,5,0,6,,,,,,,,,5,,,,60,82
68060,note_on,20,0,7,,,,,,,,,10,,,,65,0
68070,note_on,10,0,7,,,,,,,,,10,,,,69,89
68072,note_on,30,0,8,,,,,,,,,11,,,,62,0
68072,note_on,30,0,9,,,,,,,,,12,,,,62,0
68072,note_on,0,0,9,,,,,,,,,12,,,,58,76
68072,note_on,0,0,8,,,,,,,,,11,,,,58,78
68074,note_on,30,0,10,,,,,,,,,6,,,,46,0
68074,note_on,0,0,10,,,,,,,,,6,,,,50,62
68090,note_on,20,0,7,,,,,,,,,10,,,,69,0
68097,note_on,55,0,2,,,,,,,,,1,,,,77,0
68097,note_on,0,0,2,,,,,,,,,1,,,,72,0
68100,set_tempo,60,1,0,,,,,,937500,,,,,,,,
68100,note_on,10,0,7,,,,,,,,,10,,,,72,89
68102,note_on,5,0,2,,,,,,,,,1,,,,72,95
68102,note_on,0,0,8,,,,,,,,,11,,,,60,78
68102,note_on,30,0,8,,,,,,,,,11,,,,58,0
68102,note_on,30,0,9,,,,,,,,,12,,,,58,0
68102,note_on,0,0,9,,,,,,,,,12,,,,60,76
68102,note_on,0,0,2,,,,,,,,,1,,,,77,95
68104,note_on,30,0,10,,,,,,,,,6,,,,50,0
68104,note_on,0,0,10,,,,,,,,,6,,,,45,62
68120,note_on,20,0,7,,,,,,,,,10,,,,72,0
68130,note_on,10,0,7,,,,,,,,,10,,,,77,89
68132,note_on,30,0,8,,,,,,,,,11,,,,60,0
68132,note_on,0,0,8,,,,,,,,,11,,,,57,78
68132,note_on,30,0,9,,,,,,,,,12,,,,60,0
68132,note_on,0,0,9,,,,,,,,,12,,,,57,76
68134,note_on,0,0,10,,,,,,,,,6,,,,48,62
68134,note_on,30,0,10,,,,,,,,,6,,,,45,0
68150,note_on,20,0,7,,,,,,,,,10,,,,77,0
68157,note_on,0,0,2,,,,,,,,,1,,,,72,0
68157,note_on,55,0,2,,,,,,,,,1,,,,77,0
68160,note_on,10,0,7,,,,,,,,,10,,,,81,89
68160,note_on,175,0,4,,,,,,,,,3,,,,41,0
68162,note_on,5,0,2,,,,,,,,,1,,,,72,95
68162,note_on,0,0,2,,,,,,,,,1,,,,77,95
68162,note_on,30,0,9,,,,,,,,,12,,,,57,0
68162,note_on,0,0,8,,,,,,,,,11,,,,60,78
68162,note_on,30,0,8,,,,,,,,,11,,,,57,0
68162,note_on,0,0,9,,,,,,,,,12,,,,60,76
68163,note_on,120,0,3,,,,,,,,,2,,,,77,0
68164,note_on,30,0,10,,,,,,,,,6,,,,48,0
68164,note_on,0,0,10,,,,,,,,,6,,,,45,62
68165,note_on,5,0,4,,,,,,,,,3,,,,41,95
68180,note_on,20,0,7,,,,,,,,,10,,,,81,0
68190,note_on,10,0,7,,,,,,,,,10,,,,84,89
68192,note_on,0,0,9,,,,,,,,,12,,,,57,76
68192,note_on,0,0,8,,,,,,,,,11,,,,57,78
68192,note_on,30,0,9,,,,,,,,,12,,,,60,0
68192,note_on,30,0,8,,,,,,,,,11,,,,60,0
68194,note_on,0,0,10,,,,,,,,,6,,,,48,62
68194,note_on,30,0,10,,,,,,,,,6,,,,45,0
68210,note_on,20,0,7,,,,,,,,,10,,,,84,0
68217,note_on,0,0,2,,,,,,,,,1,,,,72,0
68217,note_on,55,0,2,,,,,,,,,1,,,,77,0
68218,note_on,175,0,5,,,,,,,,,4,,,,60,0
68220,note_on,10,0,7,,,,,,,,,10,,,,65,103
68220,set_tempo,120,1,0,,,,,,1034483,,,,,,,,
68220,note_on,175,0,6,,,,,,,,,5,,,,60,0
68222,note_on,0,0,2,,,,,,,,,1,,,,77,95
68222,note_on,5,0,2,,,,,,,,,1,,,,72,95
68222,note_on,0,0,8,,,,,,,,,11,,,,58,78
68222,note_on,30,0,9,,,,,,,,,12,,,,57,0
68222,note_on,0,0,9,,,,,,,,,12,,,,58,76
68222,note_on,30,0,8,,,,,,,,,11,,,,57,0
68223,note_on,60,0,3,,,,,,,,,2,,,,72,0
68223,note_on,0,0,3,,,,,,,,,2,,,,65,76
68223,note_on,5,0,5,,,,,,,,,4,,,,53,82
68224,note_on,30,0,10,,,,,,,,,6,,,,48,0
68224,note_on,0,0,10,,,,,,,,,6,,,,43,62
68225,note_on,5,0,6,,,,,,,,,5,,,,53,82
68252,note_on,30,0,8,,,,,,,,,11,,,,58,0
68252,note_on,0,0,8,,,,,,,,,11,,,,55,78
68252,note_on,0,0,9,,,,,,,,,12,,,,55,76
68252,note_on,30,0,9,,,,,,,,,12,,,,58,0
68254,note_on,30,0,10,,,,,,,,,6,,,,43,0
68254,note_on,0,0,10,,,,,,,,,6,,,,46,62
68275,note_on,55,0,7,,,,,,,,,10,,,,65,0
68277,note_on,0,0,2,,,,,,,,,1,,,,72,0
68277,note_on,55,0,2,,,,,,,,,1,,,,77,0
68280,note_on,240,0,1,,,,,,,,,0,,,,84,85
68280,note_on,0,0,7,,,,,,,,,10,,,,72,103
68280,control_change,5,0,7,,,,,,,,,10,11,42,,,
68280,note_on,0,0,1,,,,,,,,,0,,,,72,85
68280,set_tempo,60,1,0,,,,,,937500,,,,,,,,
68282,note_on,5,0,2,,,,,,,,,1,,,,72,95
68282,note_on,0,0,2,,,,,,,,,1,,,,77,95
68282,note_on,30,0,8,,,,,,,,,11,,,,55,0
68282,note_on,30,0,9,,,,,,,,,12,,,,55,0
68282,note_on,0,0,9,,,,,,,,,12,,,,57,76
68282,note_on,0,0,8,,,,,,,,,11,,,,60,78
68284,note_on,30,0,10,,,,,,,,,6,,,,46,0
68284,note_on,0,0,10,,,,,,,,,6,,,,41,62
68285,note_on,480,0,11,,,,,,,,,13,,,,53,43
68288,note_on,480,0,12,,,,,,,,,14,,,,41,36
68304,control_change,24,0,7,,,,,,,,,10,11,44,,,
68312,note_on,30,0,8,,,,,,,,,11,,,,60,0
68312,note_on,0,0,8,,,,,,,,,11,,,,57,78
68312,note_on,0,0,9,,,,,,,,,12,,,,53,76
68312,note_on,30,0,9,,,,,,,,,12,,,,57,0
68314,note_on,30,0,10,,,,,,,,,6,,,,41,0
68314,note_on,0,0,10,,,,,,,,,6,,,,48,62
68328,control_change,24,0,7,,,,,,,,,10,11,46,,,
68337,note_on,55,0,2,,,,,,,,,1,,,,77,0
68337,note_on,0,0,2,,,,,,,,,1,,,,72,0
68340,note_on,0,0,7,,,,,,,,,10,,,,74,103
68340,note_on,175,0,4,,,,,,,,,3,,,,41,0
68340,note_on,0,0,1,,,,,,,,,0,,,,84,0
68340,note_on,12,0,7,,,,,,,,,10,,,,72,0
68340,note_on,60,0,1,,,,,,,,,0,,,,72,0
68340,note_on,0,0,1,,,,,,,,,0,,,,86,96
68340,note_on,0,0,1,,,,,,,,,0,,,,74,96
68342,note_on,0,0,8,,,,,,,,,11,,,,60,78
68342,note_on,30,0,9,,,,,,,,,12,,,,53,0
68342,note_on,0,0,9,,,,,,,,,12,,,,57,76
68342,note_on,30,0,8,,,,,,,,,11,,,,57,0
68342,note_on,0,0,2,,,,,,,,,1,,,,72,95
68342,note_on,5,0,2,,,,,,,,,1,,,,77,95
68344,note_on,30,0,10,,,,,,,,,6,,,,48,0
68344,note_on,0,0,10,,,,,,,,,6,,,,41,62
68345,note_on,5,0,4,,,,,,,,,3,,,,41,95
68345,note_on,60,0,11,,,,,,,,,13,,,,53,0
68345,note_on,0,0,11,,,,,,,,,13,,,,51,43
68348,note_on,0,0,12,,,,,,,,,14,,,,39,36
68348,note_on,60,0,12,,,,,,,,,14,,,,41,0
68352,control_change,12,0,7,,,,,,,,,10,11,48,,,
68370,note_on,0,0,7,,,,,,,,,10,,,,75,103
68370,note_on,18,0,7,,,,,,,,,10,,,,74,0
68370,note_on,0,0,1,,,,,,,,,0,,,,86,0
68370,note_on,30,0,1,,,,,,,,,0,,,,74,0
68370,note_on,0,0,1,,,,,,,,,0,,,,87,96
68370,note_on,0,0,1,,,,,,,,,0,,,,75,96
68372,note_on,0,0,8,,,,,,,,,11,,,,57,78
68372,note_on,30,0,8,,,,,,,,,11,,,,60,0
68372,note_on,30,0,9,,,,,,,,,12,,,,57,0
68372,note_on,0,0,9,,,,,,,,,12,,,,53,76
68374,note_on,0,0,10,,,,,,,,,6,,,,48,62
68374,note_on,30,0,10,,,,,,,,,6,,,,41,0
68376,control_change,6,0,7,,,,,,,,,10,11,50,,,
68385,set_tempo,105,1,0,,,,,,1132075,,,,,,,,
68395,note_on,25,0,1,,,,,,,,,0,,,,75,0
68395,note_on,0,0,1,,,,,,,,,0,,,,87,0
68395,note_on,19,0,7,,,,,,,,,10,,,,75,0
68397,note_on,55,0,2,,,,,,,,,1,,,,72,0
68397,note_on,25,0,8,,,,,,,,,11,,,,57,0
68397,note_on,25,0,9,,,,,,,,,12,,,,53,0
68397,note_on,0,0,2,,,,,,,,,1,,,,77,0
68398,note_on,175,0,5,,,,,,,,,4,,,,53,0
68399,note_on,25,0,10,,,,,,,,,6,,,,48,0
68400,set_tempo,15,1,0,,,,,,1034483,,,,,,,,
68400,note_on,175,0,6,,,,,,,,,5,,,,53,0
68400,note_on,55,0,4,,,,,,,,,3,,,,41,0
68400,control_change,5,0,1,,,,,,,,,0,11,68,,,
68400,note_on,0,0,1,,,,,,,,,0,,,,89,96
68400,control_change,5,0,7,,,,,,,,,10,11,52,,,
68400,note_on,0,0,7,,,,,,,,,10,,,,77,103
68400,note_on,0,0,1,,,,,,,,,0,,,,77,96
68402,control_change,5,0,9,,,,,,,,,12,11,37,,,
68402,note_on,0,0,9,,,,,,,,,12,,,,58,76
68402,control_change,0,0,2,,,,,,,,,1,11,47,,,
68402,control_change,5,0,8,,,,,,,,,11,11,37,,,
68402,note_on,0,0,8,,,,,,,,,11,,,,62,78
68402,note_on,0,0,2,,,,,,,,,1,,,,70,87
68402,note_on,5,0,2,,,,,,,,,1,,,,77,87
68403,note_on,0,0,3,,,,,,,,,2,,,,65,76
68403,note_on,180,0,3,,,,,,,,,2,,,,65,0
68403,control_change,5,0,5,,,,,,,,,4,11,42,,,
68403,note_on,0,0,5,,,,,,,,,4,,,,58,82
68403,control_change,0,0,3,,,,,,,,,2,11,70,,,
68403,note_on,0,0,3,,,,,,,,,2,,,,70,76
68404,control_change,5,0,10,,,,,,,,,6,11,37,,,
68404,note_on,0,0,10,,,,,,,,,6,,,,50,52
68404,note_on,0,0,10,,,,,,,,,6,,,,46,52
68405,control_change,0,0,4,,,,,,,,,3,11,70,,,
68405,note_on,60,0,11,,,,,,,,,13,,,,51,0
68405,note_on,5,0,6,,,,,,,,,5,,,,46,82
68405,note_on,5,0,4,,,,,,,,,3,,,,50,95
68405,control_change,0,0,6,,,,,,,,,5,11,42,,,
68405,note_on,0,0,11,,,,,,,,,13,,,,50,43
68408,note_on,60,0,12,,,,,,,,,14,,,,39,0
68408,note_on,0,0,12,,,,,,,,,14,,,,38,36
68418,control_change,18,0,1,,,,,,,,,0,11,69,,,
68420,control_change,20,0,7,,,,,,,,,10,11,53,,,
68420,control_change,18,0,2,,,,,,,,,1,11,48,,,
68421,control_change,18,0,3,,,,,,,,,2,11,70,,,
68421,control_change,18,0,5,,,,,,,,,4,11,43,,,
68423,control_change,18,0,6,,,,,,,,,5,11,43,,,
68423,control_change,18,0,4,,,,,,,,,3,11,70,,,
68429,control_change,27,0,9,,,,,,,,,12,11,39,,,
68429,control_change,27,0,8,,,,,,,,,11,11,39,,,
68431,control_change,27,0,10,,,,,,,,,6,11,39,,,
68432,note_on,3,0,8,,,,,,,,,11,,,,62,0
68432,note_on,0,0,8,,,,,,,,,11,,,,58,78
68432,note_on,0,0,9,,,,,,,,,12,,,,53,76
68432,note_on,3,0,9,,,,,,,,,12,,,,58,0
68434,note_on,0,0,10,,,,,,,,,6,,,,50,0
68434,note_on,3,0,10,,,,,,,,,6,,,,46,0
68434,note_on,0,0,10,,,,,,,,,6,,,,46,52
68434,note_on,0,0,10,,,,,,,,,6,,,,38,52
68436,control_change,18,0,1,,,,,,,,,0,11,70,,,
68438,control_change,18,0,2,,,,,,,,,1,11,49,,,
68439,control_change,18,0,5,,,,,,,,,4,11,44,,,
68439,control_change,18,0,3,,,,,,,,,2,11,71,,,
68441,control_change,18,0,4,,,,,,,,,3,11,71,,,
68441,control_change,21,0,7,,,,,,,,,10,11,54,,,
68441,control_change,18,0,6,,,,,,,,,5,11,44,,,
68454,control_change,18,0,1,,,,,,,,,0,11,70,,,
68456,control_change,18,0,2,,,,,,,,,1,11,50,,,
68457,note_on,1,0,2,,,,,,,,,1,,,,70,0
68457,note_on,0,0,2,,,,,,,,,1,,,,77,0
68457,control_change,25,0,9,,,,,,,,,12,11,41,,,
68457,control_change,25,0,8,,,,,,,,,11,11,41,,,
68457,control_change,18,0,3,,,,,,,,,2,11,72,,,
68457,control_change,18,0,5,,,,,,,,,4,11,45,,,
68458,note_on,1,0,3,,,,,,,,,2,,,,70,0
68458,note_on,0,0,3,,,,,,,,,2,,,,65,0
68458,note_on,1,0,5,,,,,,,,,4,,,,58,0
68459,control_change,18,0,6,,,,,,,,,5,11,45,,,
68459,control_change,18,0,4,,,,,,,,,3,11,72,,,
68459,control_change,25,0,10,,,,,,,,,6,11,41,,,
68460,set_tempo,60,1,0,,,,,,937500,,,,,,,,
68460,note_on,1,0,6,,,,,,,,,5,,,,46,0
68461,control_change,20,0,7,,,,,,,,,10,11,55,,,
68462,note_on,0,0,8,,,,,,,,,11,,,,62,78
68462,note_on,5,0,8,,,,,,,,,11,,,,58,0
68462,note_on,5,0,9,,,,,,,,,12,,,,53,0
68462,note_on,0,0,2,,,,,,,,,1,,,,70,87
68462,note_on,5,0,2,,,,,,,,,1,,,,77,87
68462,note_on,0,0,9,,,,,,,,,12,,,,58,76
68463,note_on,5,0,3,,,,,,,,,2,,,,70,76
68463,note_on,0,0,3,,,,,,,,,2,,,,65,76
68463,note_on,5,0,5,,,,,,,,,4,,,,58,82
68464,note_on,5,0,10,,,,,,,,,6,,,,46,0
68464,note_on,0,0,10,,,,,,,,,6,,,,38,0
68464,note_on,0,0,10,,,,,,,,,6,,,,50,52
68464,note_on,0,0,10,,,,,,,,,6,,,,46,52
68465,note_on,5,0,6,,,,,,,,,5,,,,46,82
68472,control_change,18,0,1,,,,,,,,,0,11,71,,,
68474,control_change,12,0,2,,,,,,,,,1,11,51,,,
68475,control_change,12,0,5,,,,,,,,,4,11,46,,,
68475,control_change,12,0,3,,,,,,,,,2,11,73,,,
68477,control_change,18,0,4,,,,,,,,,3,11,73,,,
68477,control_change,12,0,6,,,,,,,,,5,11,46,,,
68482,control_change,21,0,7,,,,,,,,,10,11,56,,,
68484,control_change,22,0,8,,,,,,,,,11,11,43,,,
68484,control_change,22,0,9,,,,,,,,,12,11,43,,,
68486,control_change,22,0,10,,,,,,,,,6,11,43,,,
68490,control_change,18,0,1,,,,,,,,,0,11,72,,,
68492,note_on,8,0,8,,,,,,,,,11,,,,62,0
68492,note_on,0,0,9,,,,,,,,,12,,,,53,76
68492,note_on,8,0,9,,,,,,,,,12,,,,58,0
68492,control_change,18,0,2,,,,,,,,,1,11,52,,,
68492,note_on,0,0,8,,,,,,,,,11,,,,58,78
68493,control_change,18,0,5,,,,,,,,,4,11,47,,,
68493,control_change,18,0,3,,,,,,,,,2,11,74,,,
68494,note_on,0,0,10,,,,,,,,,6,,,,46,52
68494,note_on,0,0,10,,,,,,,,,6,,,,38,52
68494,note_on,0,0,10,,,,,,,,,6,,,,50,0
68494,note_on,8,0,10,,,,,,,,,6,,,,46,0
68495,control_change,18,0,6,,,,,,,,,5,11,47,,,
68495,control_change,18,0,4,,,,,,,,,3,11,74,,,
68502,control_change,20,0,7,,,,,,,,,10,11,57,,,
68508,control_change,18,0,1,,,,,,,,,0,11,73,,,
68510,control_change,18,0,2,,,,,,,,,1,11,52,,,
68511,control_change,18,0,5,,,,,,,,,4,11,48,,,
68511,control_change,18,0,3,,,,,,,,,2,11,75,,,
68512,control_change,20,0,9,,,,,,,,,12,11,45,,,
68512,control_change,20,0,8,,,,,,,,,11,11,45,,,
68513,control_change,18,0,4,,,,,,,,,3,11,75,,,
68513,control_change,18,0,6,,,,,,,,,5,11,48,,,
68514,control_change,20,0,10,,,,,,,,,6,11,45,,,
68517,note_on,0,0,2,,,,,,,,,1,,,,77,0
68517,note_on,7,0,2,,,,,,,,,1,,,,70,0
68518,note_on,7,0,5,,,,,,,,,4,,,,58,0
68518,note_on,0,0,3,,,,,,,,,2,,,,70,0
68518,note_on,7,0,3,,,,,,,,,2,,,,65,0
68520,note_on,7,0,6,,,,,,,,,5,,,,46,0
68522,note_on,0,0,9,,,,,,,,,12,,,,58,76
68522,note_on,10,0,9,,,,,,,,,12,,,,53,0
68522,note_on,0,0,8,,,,,,,,,11,,,,62,78
68522,note_on,5,0,2,,,,,,,,,1,,,,77,87
68522,note_on,0,0,2,,,,,,,,,1,,,,70,87
68522,note_on,10,0,8,,,,,,,,,11,,,,58,0
68523,note_on,5,0,3,,,,,,,,,2,,,,70,76
68523,note_on,0,0,3,,,,,,,,,2,,,,65,76
68523,note_on,5,0,5,,,,,,,,,4,,,,58,82
68523,control_change,21,0,7,,,,,,,,,10,11,58,,,
68524,note_on,0,0,10,,,,,,,,,6,,,,46,52
68524,note_on,0,0,10,,,,,,,,,6,,,,38,0
68524,note_on,10,0,10,,,,,,,,,6,,,,46,0
68524,note_on,0,0,10,,,,,,,,,6,,,,50,52
68525,note_on,5,0,6,,,,,,,,,5,,,,46,82
68525,note_on,120,0,11,,,,,,,,,13,,,,50,0
68526,control_change,18,0,1,,,,,,,,,0,11,74,,,
68528,note_on,120,0,12,,,,,,,,,14,,,,38,0
68528,control_change,6,0,2,,,,,,,,,1,11,53,,,
68529,control_change,6,0,5,,,,,,,,,4,11,49,,,
68529,control_change,6,0,3,,,,,,,,,2,11,76,,,
68531,control_change,18,0,4,,,,,,,,,3,11,76,,,
68531,control_change,6,0,6,,,,,,,,,5,11,49,,,
68539,control_change,17,0,9,,,,,,,,,12,11,47,,,
68539,control_change,17,0,8,,,,,,,,,11,11,47,,,
68541,control_change,17,0,10,,,,,,,,,6,11,47,,,
68544,control_change,18,0,1,,,,,,,,,0,11,75,,,
68544,control_change,21,0,7,,,,,,,,,10,11,59,,,
68546,control_change,18,0,2,,,,,,,,,1,11,54,,,
68547,control_change,18,0,5,,,,,,,,,4,11,50,,,
68547,control_change,18,0,3,,,,,,,,,2,11,76,,,
68549,control_change,18,0,6,,,,,,,,,5,11,50,,,
68549,control_change,18,0,4,,,,,,,,,3,11,76,,,
68552,note_on,13,0,8,,,,,,,,,11,,,,62,0
68552,note_on,13,0,9,,,,,,,,,12,,,,58,0
68552,note_on,0,0,9,,,,,,,,,12,,,,53,76
68552,note_on,0,0,8,,,,,,,,,11,,,,58,78
68554,note_on,0,0,10,,,,,,,,,6,,,,38,52
68554,note_on,0,0,10,,,,,,,,,6,,,,46,0
68554,note_on,13,0,10,,,,,,,,,6,,,,50,0
68554,note_on,0,0,10,,,,,,,,,6,,,,46,52
68562,control_change,18,0,1,,,,,,,,,0,11,76,,,
68564,control_change,20,0,7,,,,,,,,,10,11,60,,,
68564,control_change,18,0,2,,,,,,,,,1,11,55,,,
68565,control_change,18,0,5,,,,,,,,,4,11,51,,,
68565,control_change,18,0,3,,,,,,,,,2,11,77,,,
68567,control_change,15,0,9,,,,,,,,,12,11,49,,,
68567,control_change,15,0,8,,,,,,,,,11,11,49,,,
68567,control_change,18,0,4,,,,,,,,,3,11,77,,,
68567,control_change,18,0,6,,,,,,,,,5,11,51,,,
68569,control_change,15,0,10,,,,,,,,,6,11,49,,,
68577,note_on,0,0,2,,,,,,,,,1,,,,77,0
68577,note_on,13,0,2,,,,,,,,,1,,,,70,0
68578,note_on,13,0,5,,,,,,,,,4,,,,58,0
68578,note_on,0,0,3,,,,,,,,,2,,,,70,0
68578,note_on,13,0,3,,,,,,,,,2,,,,65,0
68580,control_change,18,0,1,,,,,,,,,0,11,76,,,
68580,note_on,13,0,6,,,,,,,,,5,,,,46,0
68580,set_tempo,120,1,0,,,,,,1034483,,,,,,,,
68582,control_change,5,0,2,,,,,,,,,1,11,55,,,
68582,note_on,0,0,2,,,,,,,,,1,,,,70,87
68582,note_on,0,0,2,,,,,,,,,1,,,,77,87
68582,note_on,15,0,8,,,,,,,,,11,,,,58,0
68582,note_on,15,0,9,,,,,,,,,12,,,,53,0
68582,note_on,0,0,9,,,,,,,,,12,,,,58,76
68582,note_on,0,0,8,,,,,,,,,11,,,,62,78
68583,note_on,0,0,5,,,,,,,,,4,,,,58,82
68583,note_on,0,0,3,,,,,,,,,2,,,,70,76
68583,note_on,5,0,3,,,,,,,,,2,,,,65,76
68583,control_change,5,0,5,,,,,,,,,4,11,52,,,
68583,control_change,0,0,3,,,,,,,,,2,11,78,,,
68584,note_on,15,0,10,,,,,,,,,6,,,,46,0
68584,note_on,0,0,10,,,,,,,,,6,,,,38,0
68584,note_on,0,0,10,,,,,,,,,6,,,,50,52
68584,note_on,0,0,10,,,,,,,,,6,,,,46,52
68585,control_change,5,0,6,,,,,,,,,5,11,52,,,
68585,note_on,18,0,4,,,,,,,,,3,,,,58,95
68585,control_change,0,0,4,,,,,,,,,3,11,78,,,
68585,control_change,21,0,7,,,,,,,,,10,11,61,,,
68585,note_on,0,0,6,,,,,,,,,5,,,,46,82
68594,control_change,12,0,8,,,,,,,,,11,11,51,,,
68594,control_change,12,0,9,,,,,,,,,12,11,51,,,
68596,control_change,12,0,10,,,,,,,,,6,11,51,,,
68598,control_change,18,0,1,,,,,,,,,0,11,77,,,
68600,control_change,18,0,2,,,,,,,,,1,11,56,,,
68601,control_change,18,0,5,,,,,,,,,4,11,53,,,
68601,control_change,18,0,3,,,,,,,,,2,11,79,,,
68603,control_change,18,0,4,,,,,,,,,3,11,79,,,
68603,control_change,18,0,6,,,,,,,,,5,11,53,,,
68605,control_change,20,0,7,,,,,,,,,10,11,62,,,
68612,note_on,0,0,9,,,,,,,,,12,,,,53,76
68612,note_on,18,0,9,,,,,,,,,12,,,,58,0
68612,note_on,18,0,8,,,,,,,,,11,,,,62,0
68612,note_on,0,0,8,,,,,,,,,11,,,,58,78
68614,note_on,18,0,10,,,,,,,,,6,,,,46,0
68614,note_on,0,0,10,,,,,,,,,6,,,,50,0
68614,note_on,0,0,10,,,,,,,,,6,,,,46,52
68614,note_on,0,0,10,,,,,,,,,6,,,,38,52
68616,control_change,18,0,1,,,,,,,,,0,11,78,,,
68618,control_change,18,0,2,,,,,,,,,1,11,57,,,
68619,control_change,18,0,5,,,,,,,,,4,11,54,,,
68619,control_change,18,0,3,,,,,,,,,2,11,80,,,
68621,control_change,18,0,6,,,,,,,,,5,11,54,,,
68621,control_change,18,0,4,,,,,,,,,3,11,80,,,
68622,control_change,10,0,9,,,,,,,,,12,11,53,,,
68622,control_change,10,0,8,,,,,,,,,11,11,53,,,
68624,control_change,10,0,10,,,,,,,,,6,11,53,,,
68626,control_change,21,0,7,,,,,,,,,10,11,63,,,
68634,control_change,18,0,1,,,,,,,,,0,11,79,,,
68636,control_change,18,0,2,,,,,,,,,1,11,58,,,
68637,note_on,0,0,2,,,,,,,,,1,,,,70,0
68637,note_on,1,0,2,,,,,,,,,1,,,,77,0
68637,control_change,18,0,5,,,,,,,,,4,11,55,,,
68637,control_change,18,0,3,,,,,,,,,2,11,80,,,
68638,note_on,0,0,3,,,,,,,,,2,,,,65,0
68638,note_on,1,0,3,,,,,,,,,2,,,,70,0
68638,note_on,1,0,5,,,,,,,,,4,,,,58,0
68639,control_change,18,0,6,,,,,,,,,5,11,55,,,
68639,control_change,18,0,4,,,,,,,,,3,11,80,,,
68640,note_on,14,0,7,,,,,,,,,10,,,,77,0
68640,note_on,1,0,6,,,,,,,,,5,,,,46,0
68640,note_on,6,0,1,,,,,,,,,0,,,,89,0
68640,note_on,0,0,1,,,,,,,,,0,,,,77,0
68640,note_on,0,0,1,,,,,,,,,0,,,,87,96
68640,note_on,0,0,1,,,,,,,,,0,,,,75,96
68640,set_tempo,60,1,0,,,,,,937500,,,,,,,,
68640,note_on,0,0,7,,,,,,,,,10,,,,75,103
68642,note_on,0,0,9,,,,,,,,,12,,,,58,76
68642,note_on,20,0,9,,,,,,,,,12,,,,53,0
68642,note_on,5,0,2,,,,,,,,,1,,,,70,87
68642,note_on,0,0,2,,,,,,,,,1,,,,77,87
68642,note_on,20,0,8,,,,,,,,,11,,,,58,0
68642,note_on,0,0,8,,,,,,,,,11,,,,62,78
68643,note_on,0,0,3,,,,,,,,,2,,,,70,76
68643,note_on,5,0,3,,,,,,,,,2,,,,65,76
68643,note_on,5,0,5,,,,,,,,,4,,,,58,82
68644,note_on,20,0,10,,,,,,,,,6,,,,38,0
68644,note_on,0,0,10,,,,,,,,,6,,,,46,0
68644,note_on,0,0,10,,,,,,,,,6,,,,46,52
68644,note_on,0,0,10,,,,,,,,,6,,,,50,52
68645,note_on,5,0,6,,,,,,,,,5,,,,46,82
68646,control_change,6,0,7,,,,,,,,,10,11,64,,,
68650,control_change,8,0,9,,,,,,,,,12,11,55,,,
68650,control_change,8,0,8,,,,,,,,,11,11,55,,,
68652,control_change,8,0,10,,,,,,,,,6,11,55,,,
68652,control_change,12,0,1,,,,,,,,,0,11,80,,,
68654,control_change,12,0,2,,,,,,,,,1,11,59,,,
68655,control_change,12,0,3,,,,,,,,,2,11,81,,,
68655,control_change,12,0,5,,,,,,,,,4,11,56,,,
68657,control_change,12,0,6,,,,,,,,,5,11,56,,,
68657,control_change,18,0,4,,,,,,,,,3,11,81,,,
68667,control_change,21,0,7,,,,,,,,,10,11,65,,,
68670,control_change,18,0,1,,,,,,,,,0,11,80,,,
68672,control_change,18,0,2,,,,,,,,,1,11,60,,,
68672,note_on,22,0,8,,,,,,,,,11,,,,62,0
68672,note_on,22,0,9,,,,,,,,,12,,,,58,0
68672,note_on,0,0,9,,,,,,,,,12,,,,53,76
68672,note_on,0,0,8,,,,,,,,,11,,,,58,78
68673,control_change,18,0,3,,,,,,,,,2,11,82,,,
68673,control_change,18,0,5,,,,,,,,,4,11,57,,,
68674,note_on,0,0,10,,,,,,,,,6,,,,46,52
68674,note_on,0,0,10,,,,,,,,,6,,,,38,52
68674,note_on,0,0,10,,,,,,,,,6,,,,46,0
68674,note_on,22,0,10,,,,,,,,,6,,,,50,0
68675,control_change,18,0,4,,,,,,,,,3,11,82,,,
68675,control_change,18,0,6,,,,,,,,,5,11,57,,,
68677,control_change,5,0,9,,,,,,,,,12,11,57,,,
68677,control_change,5,0,8,,,,,,,,,11,11,57,,,
68679,control_change,5,0,10,,,,,,,,,6,11,57,,,
68688,control_change,18,0,1,,,,,,,,,0,11,81,,,
68688,control_change,21,0,7,,,,,,,,,10,11,66,,,
68690,control_change,18,0,2,,,,,,,,,1,11,61,,,
68691,control_change,18,0,3,,,,,,,,,2,11,83,,,
68691,control_change,18,0,5,,,,,,,,,4,11,58,,,
68693,control_change,18,0,4,,,,,,,,,3,11,83,,,
68693,control_change,18,0,6,,,,,,,,,5,11,58,,,
68697,note_on,7,0,2,,,,,,,,,1,,,,77,0
68697,note_on,0,0,2,,,,,,,,,1,,,,70,0
68698,note_on,7,0,3,,,,,,,,,2,,,,70,0
68698,note_on,7,0,5,,,,,,,,,4,,,,58,0
68698,note_on,0,0,3,,,,,,,,,2,,,,65,0
68700,note_on,12,0,1,,,,,,,,,0,,,,75,0
68700,note_on,0,0,1,,,,,,,,,0,,,,87,0
68700,note_on,0,0,7,,,,,,,,,10,,,,74,103
68700,note_on,7,0,6,,,,,,,,,5,,,,46,0
68700,note_on,0,0,1,,,,,,,,,0,,,,74,96
68700,note_on,0,0,1,,,,,,,,,0,,,,86,96
68700,note_on,12,0,7,,,,,,,,,10,,,,75,0
68702,note_on,25,0,8,,,,,,,,,11,,,,58,0
68702,note_on,0,0,8,,,,,,,,,11,,,,62,78
68702,note_on,0,0,9,,,,,,,,,12,,,,58,76
68702,note_on,0,0,2,,,,,,,,,1,,,,77,87
68702,note_on,5,0,2,,,,,,,,,1,,,,70,87
68702,note_on,25,0,9,,,,,,,,,12,,,,53,0
68703,note_on,5,0,5,,,,,,,,,4,,,,58,82
68703,note_on,5,0,3,,,,,,,,,2,,,,65,76
68703,note_on,0,0,3,,,,,,,,,2,,,,70,76
68704,note_on,0,0,10,,,,,,,,,6,,,,46,52
68704,note_on,0,0,10,,,,,,,,,6,,,,50,52
68704,note_on,0,0,10,,,,,,,,,6,,,,38,0
68704,note_on,25,0,10,,,,,,,,,6,,,,46,0
68705,note_on,5,0,6,,,,,,,,,5,,,,46,82
68705,control_change,3,0,9,,,,,,,,,12,11,59,,,
68705,control_change,3,0,8,,,,,,,,,11,11,59,,,
68706,control_change,6,0,1,,,,,,,,,0,11,82,,,
68707,control_change,3,0,10,,,,,,,,,6,11,59,,,
68708,control_change,8,0,7,,,,,,,,,10,11,67,,,
68708,control_change,6,0,2,,,,,,,,,1,11,61,,,
68709,control_change,6,0,5,,,,,,,,,4,11,59,,,
68709,control_change,6,0,3,,,,,,,,,2,11,84,,,
68711,control_change,18,0,4,,,,,,,,,3,11,84,,,
68711,control_change,6,0,6,,,,,,,,,5,11,59,,,
68724,control_change,18,0,1,,,,,,,,,0,11,83,,,
68726,control_change,18,0,2,,,,,,,,,1,11,62,,,
68727,control_change,18,0,5,,,,,,,,,4,11,60,,,
68727,control_change,18,0,3,,,,,,,,,2,11,85,,,
68729,control_change,21,0,7,,,,,,,,,10,11,68,,,
68729,control_change,18,0,4,,,,,,,,,3,11,85,,,
68729,control_change,18,0,6,,,,,,,,,5,11,60,,,
68732,note_on,0,0,8,,,,,,,,,11,,,,58,78
68732,note_on,27,0,9,,,,,,,,,12,,,,58,0
68732,note_on,27,0,8,,,,,,,,,11,,,,62,0
68732,control_change,0,0,8,,,,,,,,,11,11,61,,,
68732,note_on,0,0,9,,,,,,,,,12,,,,53,76
68732,control_change,0,0,9,,,,,,,,,12,11,61,,,
68734,note_on,27,0,10,,,,,,,,,6,,,,46,0
68734,note_on,0,0,10,,,,,,,,,6,,,,50,0
68734,note_on,0,0,10,,,,,,,,,6,,,,38,52
68734,note_on,0,0,10,,,,,,,,,6,,,,46,52
68734,control_change,0,0,10,,,,,,,,,6,11,61,,,
68742,control_change,18,0,1,,,,,,,,,0,11,84,,,
68744,control_change,18,0,2,,,,,,,,,1,11,63,,,
68745,control_change,18,0,3,,,,,,,,,2,11,86,,,
68745,control_change,18,0,5,,,,,,,,,4,11,61,,,
68747,control_change,18,0,4,,,,,,,,,3,11,86,,,
68747,control_change,18,0,6,,,,,,,,,5,11,61,,,
68749,control_change,20,0,7,,,,,,,,,10,11,69,,,
68755,note_on,13,0,1,,,,,,,,,0,,,,86,0
68755,note_on,0,0,1,,,,,,,,,0,,,,74,0
68755,note_on,6,0,7,,,,,,,,,10,,,,74,0
68757,note_on,25,0,9,,,,,,,,,12,,,,53,0
68757,note_on,25,0,8,,,,,,,,,11,,,,58,0
68757,note_on,13,0,2,,,,,,,,,1,,,,77,0
68757,note_on,0,0,2,,,,,,,,,1,,,,70,0
68758,note_on,13,0,3,,,,,,,,,2,,,,70,0
68758,note_on,0,0,3,,,,,,,,,2,,,,65,0
68758,note_on,13,0,5,,,,,,,,,4,,,,58,0
68759,note_on,0,0,10,,,,,,,,,6,,,,38,0
68759,note_on,25,0,10,,,,,,,,,6,,,,46,0
68760,control_change,3,0,9,,,,,,,,,12,11,63,,,
68760,control_change,3,0,8,,,,,,,,,11,11,63,,,
68760,set_tempo,120,1,0,,,,,,1034483,,,,,,,,
68760,note_on,5,0,1,,,,,,,,,0,,,,84,96
68760,note_on,5,0,7,,,,,,,,,10,,,,72,103
68760,note_on,13,0,4,,,,,,,,,3,,,,50,0
68760,note_on,13,0,6,,,,,,,,,5,,,,46,0
68760,control_change,0,0,1,,,,,,,,,0,11,85,,,
68760,note_on,0,0,1,,,,,,,,,0,,,,72,96
68762,note_on,5,0,2,,,,,,,,,1,,,,79,87
68762,control_change,3,0,10,,,,,,,,,6,11,63,,,
68762,control_change,0,0,2,,,,,,,,,1,11,64,,,
68762,note_on,0,0,2,,,,,,,,,1,,,,70,87
68762,note_on,2,0,9,,,,,,,,,12,,,,58,76
68762,note_on,2,0,8,,,,,,,,,11,,,,70,78
68763,note_on,0,0,3,,,,,,,,,2,,,,70,76
68763,note_on,0,0,3,,,,,,,,,2,,,,67,76
68763,control_change,5,0,3,,,,,,,,,2,11,86,,,
68763,control_change,5,0,5,,,,,,,,,4,11,62,,,
68763,note_on,0,0,5,,,,,,,,,4,,,,58,82
68764,note_on,0,0,10,,,,,,,,,6,,,,48,52
68764,note_on,2,0,10,,,,,,,,,6,,,,46,52
68765,note_on,0,0,4,,,,,,,,,3,,,,55,95
68765,note_on,0,0,4,,,,,,,,,3,,,,51,95
68765,note_on,5,0,4,,,,,,,,,3,,,,58,0
68765,control_change,5,0,6,,,,,,,,,5,11,62,,,
68765,note_on,240,0,11,,,,,,,,,13,,,,51,43
68765,control_change,0,0,4,,,,,,,,,3,11,86,,,
68765,note_on,0,0,6,,,,,,,,,5,,,,46,82
68768,note_on,240,0,12,,,,,,,,,14,,,,39,36
68770,control_change,10,0,7,,,,,,,,,10,11,70,,,
68778,control_change,18,0,1,,,,,,,,,0,11,86,,,
68780,control_change,18,0,2,,,,,,,,,1,11,65,,,
68781,control_change,18,0,5,,,,,,,,,4,11,63,,,
68781,control_change,18,0,3,,,,,,,,,2,11,87,,,
68783,control_change,18,0,4,,,,,,,,,3,11,87,,,
68783,control_change,18,0,6,,,,,,,,,5,11,63,,,
68787,control_change,25,0,9,,,,,,,,,12,11,65,,,
68787,control_change,25,0,8,,,,,,,,,11,11,65,,,
68789,control_change,25,0,10,,,,,,,,,6,11,65,,,
68790,control_change,20,0,7,,,,,,,,,10,11,71,,,
68792,note_on,5,0,8,,,,,,,,,11,,,,70,0
68792,note_on,0,0,8,,,,,,,,,11,,,,58,78
68792,note_on,0,0,9,,,,,,,,,12,,,,55,76
68792,note_on,5,0,9,,,,,,,,,12,,,,58,0
68794,note_on,0,0,10,,,,,,,,,6,,,,46,0
68794,note_on,5,0,10,,,,,,,,,6,,,,48,0
68794,note_on,0,0,10,,,,,,,,,6,,,,36,52
68794,note_on,0,0,10,,,,,,,,,6,,,,46,52
68796,control_change,18,0,1,,,,,,,,,0,11,86,,,
68798,control_change,18,0,2,,,,,,,,,1,11,65,,,
68799,control_change,18,0,3,,,,,,,,,2,11,88,,,
68799,control_change,18,0,5,,,,,,,,,4,11,64,,,
68801,control_change,18,0,4,,,,,,,,,3,11,88,,,
68801,control_change,18,0,6,,,,,,,,,5,11,64,,,
68811,control_change,21,0,7,,,,,,,,,10,11,72,,,
68814,control_change,18,0,1,,,,,,,,,0,11,87,,,
68815,control_change,23,0,9,,,,,,,,,12,11,67,,,
68815,control_change,23,0,8,,,,,,,,,11,11,67,,,
68816,control_change,18,0,2,,,,,,,,,1,11,66,,,
68817,control_change,18,0,3,,,,,,,,,2,11,89,,,
68817,note_on,1,0,2,,,,,,,,,1,,,,70,0
68817,control_change,18,0,5,,,,,,,,,4,11,65,,,
68817,control_change,23,0,10,,,,,,,,,6,11,67,,,
68817,note_on,0,0,2,,,,,,,,,1,,,,79,0
68818,note_on,0,0,3,,,,,,,,,2,,,,67,0
68818,note_on,1,0,5,,,,,,,,,4,,,,58,0
68818,note_on,1,0,3,,,,,,,,,2,,,,70,0
68819,control_change,18,0,4,,,,,,,,,3,11,89,,,
68819,control_change,18,0,6,,,,,,,,,5,11,65,,,
68820,note_on,1,0,6,,,,,,,,,5,,,,46,0
68820,set_tempo,60,1,0,,,,,,937500,,,,,,,,
68822,note_on,7,0,8,,,,,,,,,11,,,,58,0
68822,note_on,7,0,9,,,,,,,,,12,,,,55,0
68822,note_on,0,0,9,,,,,,,,,12,,,,58,76
68822,note_on,5,0,2,,,,,,,,,1,,,,70,87
68822,note_on,0,0,2,,,,,,,,,1,,,,79,87
68822,note_on,0,0,8,,,,,,,,,11,,,,70,78
68823,note_on,5,0,3,,,,,,,,,2,,,,67,76
68823,note_on,0,0,3,,,,,,,,,2,,,,70,76
68823,note_on,5,0,5,,,,,,,,,4,,,,58,82
68824,note_on,0,0,10,,,,,,,,,6,,,,46,52
68824,note_on,0,0,10,,,,,,,,,6,,,,48,52
68824,note_on,0,0,10,,,,,,,,,6,,,,36,0
68824,note_on,7,0,10,,,,,,,,,6,,,,46,0
68825,note_on,5,0,6,,,,,,,,,5,,,,46,82
68832,control_change,18,0,1,,,,,,,,,0,11,88,,,
68832,control_change,21,0,7,,,,,,,,,10,11,73,,,
68834,control_change,12,0,2,,,,,,,,,1,11,67,,,
68835,control_change,12,0,3,,,,,,,,,2,11,89,,,
68835,control_change,12,0,5,,,,,,,,,4,11,66,,,
68837,control_change,18,0,4,,,,,,,,,3,11,89,,,
68837,control_change,12,0,6,,,,,,,,,5,11,66,,,
68842,control_change,20,0,9,,,,,,,,,12,11,69,,,
68842,control_change,20,0,8,,,,,,,,,11,11,69,,,
68844,control_change,20,0,10,,,,,,,,,6,11,69,,,
68850,control_change,18,0,1,,,,,,,,,0,11,89,,,
68852,note_on,10,0,8,,,,,,,,,11,,,,70,0
68852,control_change,20,0,7,,,,,,,,,10,11,74,,,
68852,note_on,0,0,8,,,,,,,,,11,,,,58,78
68852,control_change,18,0,2,,,,,,,,,1,11,68,,,
68852,note_on,10,0,9,,,,,,,,,12,,,,58,0
68852,note_on,0,0,9,,,,,,,,,12,,,,55,76
68853,control_change,18,0,3,,,,,,,,,2,11,90,,,
68853,control_change,18,0,5,,,,,,,,,4,11,67,,,
68854,note_on,10,0,10,,,,,,,,,6,,,,46,0
68854,note_on,0,0,10,,,,,,,,,6,,,,48,0
68854,note_on,0,0,10,,,,,,,,,6,,,,46,52
68854,note_on,0,0,10,,,,,,,,,6,,,,36,52
68855,control_change,18,0,6,,,,,,,,,5,11,67,,,
68855,control_change,18,0,4,,,,,,,,,3,11,90,,,
68868,control_change,18,0,1,,,,,,,,,0,11,89,,,
68870,control_change,18,0,9,,,,,,,,,12,11,71,,,
68870,control_change,18,0,8,,,,,,,,,11,11,71,,,
68870,control_change,18,0,2,,,,,,,,,1,11,69,,,
68871,control_change,18,0,5,,,,,,,,,4,11,68,,,
68871,control_change,18,0,3,,,,,,,,,2,11,91,,,
68872,control_change,18,0,10,,,,,,,,,6,11,71,,,
68873,control_change,18,0,4,,,,,,,,,3,11,91,,,
68873,control_change,18,0,6,,,,,,,,,5,11,68,,,
68873,control_change,21,0,7,,,,,,,,,10,11,75,,,
68877,note_on,7,0,2,,,,,,,,,1,,,,79,0
68877,note_on,0,0,2,,,,,,,,,1,,,,70,0
68878,note_on,7,0,5,,,,,,,,,4,,,,58,0
68878,note_on,0,0,3,,,,,,,,,2,,,,67,0
68878,note_on,7,0,3,,,,,,,,,2,,,,70,0
68880,note_on,7,0,6,,,,,,,,,5,,,,46,0
68882,note_on,12,0,9,,,,,,,,,12,,,,55,0
68882,note_on,0,0,9,,,,,,,,,12,,,,58,76
68882,note_on,0,0,8,,,,,,,,,11,,,,70,78
68882,note_on,5,0,2,,,,,,,,,1,,,,70,87
68882,note_on,12,0,8,,,,,,,,,11,,,,58,0
68882,note_on,0,0,2,,,,,,,,,1,,,,79,87
68883,note_on,5,0,5,,,,,,,,,4,,,,58,82
68883,note_on,5,0,3,,,,,,,,,2,,,,70,76
68883,note_on,0,0,3,,,,,,,,,2,,,,67,76
68884,note_on,0,0,10,,,,,,,,,6,,,,46,52
68884,note_on,0,0,10,,,,,,,,,6,,,,48,52
68884,note_on,0,0,10,,,,,,,,,6,,,,36,0
68884,note_on,12,0,10,,,,,,,,,6,,,,46,0
68885,note_on,120,0,11,,,,,,,,,13,,,,51,0
68885,note_on,5,0,6,,,,,,,,,5,,,,46,82
68886,control_change,18,0,1,,,,,,,,,0,11,90,,,
68888,note_on,120,0,12,,,,,,,,,14,,,,39,0
68888,control_change,6,0,2,,,,,,,,,1,11,70,,,
68889,control_change,6,0,3,,,,,,,,,2,11,92,,,
68889,control_change,6,0,5,,,,,,,,,4,11,69,,,
68891,control_change,18,0,4,,,,,,,,,3,11,92,,,
68891,control_change,6,0,6,,,,,,,,,5,11,69,,,
68893,control_change,20,0,7,,,,,,,,,10,11,76,,,
68898,control_change,16,0,9,,,,,,,,,12,11,73,,,
68898,control_change,16,0,8,,,,,,,,,11,11,73,,,
68900,control_change,16,0,10,,,,,,,,,6,11,73,,,
68904,control_change,18,0,1,,,,,,,,,0,11,91,,,
68905,note_on,0,0,1,,,,,,,,,0,,,,84,0
68905,note_on,1,0,1,,,,,,,,,0,,,,72,0
68905,note_on,12,0,7,,,,,,,,,10,,,,72,0
68906,control_change,18,0,2,,,,,,,,,1,11,70,,,
68907,control_change,18,0,5,,,,,,,,,4,11,70,,,
68907,control_change,18,0,3,,,,,,,,,2,11,93,,,
68909,control_change,18,0,4,,,,,,,,,3,11,93,,,
68909,control_change,18,0,6,,,,,,,,,5,11,70,,,
68910,note_on,0,0,1,,,,,,,,,0,,,,86,96
68910,note_on,5,0,1,,,,,,,,,0,,,,74,96
68910,note_on,5,0,7,,,,,,,,,10,,,,74,103
68912,note_on,0,0,9,,,,,,,,,12,,,,55,76
68912,note_on,14,0,8,,,,,,,,,11,,,,70,0
68912,note_on,0,0,8,,,,,,,,,11,,,,58,78
68912,note_on,14,0,9,,,,,,,,,12,,,,58,0
68914,note_on,0,0,10,,,,,,,,,6,,,,36,52
68914,note_on,0,0,10,,,,,,,,,6,,,,46,52
68914,control_change,4,0,7,,,,,,,,,10,11,77,,,
68914,note_on,14,0,10,,,,,,,,,6,,,,46,0
68914,note_on,0,0,10,,,,,,,,,6,,,,48,0
68920,note_on,0,0,7,,,,,,,,,10,,,,72,103
68920,note_on,0,0,1,,,,,,,,,0,,,,84,96
68920,note_on,0,0,1,,,,,,,,,0,,,,72,96
68920,note_on,6,0,7,,,,,,,,,10,,,,74,0
68920,note_on,10,0,1,,,,,,,,,0,,,,86,0
68920,note_on,0,0,1,,,,,,,,,0,,,,74,0
68922,control_change,2,0,1,,,,,,,,,0,11,92,,,
68924,control_change,18,0,2,,,,,,,,,1,11,71,,,
68925,control_change,18,0,3,,,,,,,,,2,11,94,,,
68925,control_change,13,0,9,,,,,,,,,12,11,75,,,
68925,control_change,18,0,5,,,,,,,,,4,11,71,,,
68925,control_change,13,0,8,,,,,,,,,11,11,75,,,
68927,control_change,18,0,6,,,,,,,,,5,11,71,,,
68927,control_change,13,0,10,,,,,,,,,6,11,75,,,
68927,control_change,18,0,4,,,,,,,,,3,11,94,,,
68930,note_on,0,0,1,,,,,,,,,0,,,,83,96
68930,note_on,0,0,1,,,,,,,,,0,,,,71,96
68930,note_on,0,0,7,,,,,,,,,10,,,,71,103
68930,note_on,0,0,1,,,,,,,,,0,,,,72,0
68930,note_on,8,0,1,,,,,,,,,0,,,,84,0
68930,note_on,10,0,7,,,,,,,,,10,,,,72,0
68934,control_change,4,0,7,,,,,,,,,10,11,78,,,
68937,note_on,0,0,2,,,,,,,,,1,,,,70,0
68937,note_on,13,0,2,,,,,,,,,1,,,,79,0
68938,note_on,13,0,5,,,,,,,,,4,,,,58,0
68938,note_on,13,0,3,,,,,,,,,2,,,,67,0
68938,note_on,0,0,3,,,,,,,,,2,,,,70,0
68940,note_on,6,0,7,,,,,,,,,10,,,,71,0
68940,set_tempo,120,1,0,,,,,,1034483,,,,,,,,
68940,note_on,0,0,1,,,,,,,,,0,,,,71,0
68940,note_on,0,0,1,,,,,,,,,0,,,,84,96
68940,note_on,0,0,1,,,,,,,,,0,,,,72,96
68940,control_change,0,0,1,,,,,,,,,0,11,93,,,
68940,note_on,0,0,7,,,,,,,,,10,,,,72,103
68940,note_on,13,0,6,,,,,,,,,5,,,,46,0
68940,note_on,10,0,1,,,,,,,,,0,,,,83,0
68942,note_on,17,0,9,,,,,,,,,12,,,,55,0
68942,note_on,0,0,2,,,,,,,,,1,,,,79,87
68942,note_on,17,0,8,,,,,,,,,11,,,,58,0
68942,note_on,0,0,8,,,,,,,,,11,,,,70,78
68942,note_on,0,0,2,,,,,,,,,1,,,,70,87
68942,control_change,5,0,2,,,,,,,,,1,11,72,,,
68942,note_on,0,0,9,,,,,,,,,12,,,,58,76
68943,control_change,5,0,5,,,,,,,,,4,11,72,,,
68943,note_on,0,0,3,,,,,,,,,2,,,,70,76
68943,control_change,0,0,3,,,,,,,,,2,11,95,,,
68943,note_on,5,0,3,,,,,,,,,2,,,,67,76
68943,note_on,0,0,5,,,,,,,,,4,,,,58,82
68944,note_on,0,0,10,,,,,,,,,6,,,,46,52
68944,note_on,0,0,10,,,,,,,,,6,,,,48,52
68944,note_on,17,0,10,,,,,,,,,6,,,,46,0
68944,note_on,0,0,10,,,,,,,,,6,,,,36,0
68945,note_on,5,0,6,,,,,,,,,5,,,,46,82
68945,control_change,0,0,6,,,,,,,,,5,11,72,,,
68945,note_on,0,0,4,,,,,,,,,3,,,,63,95
68945,control_change,0,0,4,,,,,,,,,3,11,95,,,
68945,note_on,18,0,4,,,,,,,,,3,,,,55,0
68953,control_change,11,0,8,,,,,,,,,11,11,77,,,
68953,control_change,11,0,9,,,,,,,,,12,11,77,,,
68955,control_change,15,0,7,,,,,,,,,10,11,79,,,
68955,control_change,11,0,10,,,,,,,,,6,11,77,,,
68958,control_change,18,0,1,,,,,,,,,0,11,94,,,
68960,control_change,18,0,2,,,,,,,,,1,11,73,,,
68961,control_change,18,0,3,,,,,,,,,2,11,96,,,
68961,control_change,18,0,5,,,,,,,,,4,11,73,,,
68963,control_change,18,0,4,,,,,,,,,3,11,96,,,
68963,control_change,18,0,6,,,,,,,,,5,11,73,,,
68972,note_on,19,0,8,,,,,,,,,11,,,,70,0
68972,note_on,0,0,8,,,,,,,,,11,,,,58,78
68972,note_on,0,0,9,,,,,,,,,12,,,,55,76
68972,note_on,19,0,9,,,,,,,,,12,,,,58,0
68974,note_on,0,0,10,,,,,,,,,6,,,,46,52
68974,note_on,0,0,10,,,,,,,,,6,,,,36,52
68974,note_on,0,0,10,,,,,,,,,6,,,,46,0
68974,note_on,19,0,10,,,,,,,,,6,,,,48,0
68976,control_change,18,0,1,,,,,,,,,0,11,95,,,
68976,control_change,21,0,7,,,,,,,,,10,11,80,,,
68978,control_change,18,0,2,,,,,,,,,1,11,74,,,
68979,control_change,18,0,5,,,,,,,,,4,11,74,,,
68979,control_change,18,0,3,,,,,,,,,2,11,96,,,
68980,control_change,8,0,9,,,,,,,,,12,11,79,,,
68980,control_change,8,0,8,,,,,,,,,11,11,79,,,
68981,control_change,18,0,6,,,,,,,,,5,11,74,,,
68981,control_change,18,0,4,,,,,,,,,3,11,96,,,
68982,control_change,8,0,10,,,,,,,,,6,11,79,,,
68994,control_change,18,0,1,,,,,,,,,0,11,96,,,
68996,control_change,20,0,7,,,,,,,,,10,11,81,,,
68996,control_change,18,0,2,,,,,,,,,1,11,75,,,
68997,note_on,0,0,2,,,,,,,,,1,,,,70,0
68997,control_change,18,0,5,,,,,,,,,4,11,75,,,
68997,control_change,18,0,3,,,,,,,,,2,11,97,,,
68997,note_on,1,0,2,,,,,,,,,1,,,,79,0
68998,note_on,0,0,3,,,,,,,,,2,,,,67,0
68998,note_on,1,0,3,,,,,,,,,2,,,,70,0
68998,note_on,1,0,5,,,,,,,,,4,,,,58,0
68999,control_change,18,0,6,,,,,,,,,5,11,75,,,
68999,control_change,18,0,4,,,,,,,,,3,11,97,,,
69000,note_on,4,0,7,,,,,,,,,10,,,,72,0
69000,note_on,0,0,7,,,,,,,,,10,,,,75,103
69000,set_tempo,60,1,0,,,,,,937500,,,,,,,,
69000,note_on,0,0,1,,,,,,,,,0,,,,87,96
69000,note_on,0,0,1,,,,,,,,,0,,,,84,0
69000,note_on,6,0,1,,,,,,,,,0,,,,72,0
69000,note_on,1,0,6,,,,,,,,,5,,,,46,0
69000,note_on,0,0,1,,,,,,,,,0,,,,75,96
69002,note_on,22,0,8,,,,,,,,,11,,,,58,0
69002,note_on,0,0,8,,,,,,,,,11,,,,70,78
69002,note_on,5,0,2,,,,,,,,,1,,,,70,87
69002,note_on,0,0,2,,,,,,,,,1,,,,79,87
69002,note_on,22,0,9,,,,,,,,,12,,,,55,0
69002,note_on,0,0,9,,,,,,,,,12,,,,58,76
69003,note_on,5,0,3,,,,,,,,,2,,,,67,76
69003,note_on,5,0,5,,,,,,,,,4,,,,58,82
69003,note_on,0,0,3,,,,,,,,,2,,,,70,76
69004,note_on,0,0,10,,,,,,,,,6,,,,46,52
69004,note_on,0,0,10,,,,,,,,,6,,,,48,52
69004,note_on,0,0,10,,,,,,,,,6,,,,36,0
69004,note_on,22,0,10,,,,,,,,,6,,,,46,0
69005,note_on,5,0,6,,,,,,,,,5,,,,46,82
69008,control_change,6,0,8,,,,,,,,,11,11,81,,,
69008,control_change,6,0,9,,,,,,,,,12,11,81,,,
69010,control_change,6,0,10,,,,,,,,,6,11,81,,,
69012,control_change,12,0,1,,,,,,,,,0,11,96,,,
69014,control_change,12,0,2,,,,,,,,,1,11,76,,,
69015,control_change,12,0,5,,,,,,,,,4,11,76,,,
69015,control_change,12,0,3,,,,,,,,,2,11,98,,,
69017,control_change,12,0,6,,,,,,,,,5,11,76,,,
69017,control_change,17,0,7,,,,,,,,,10,11,82,,,
69017,control_change,18,0,4,,,,,,,,,3,11,98,,,
69030,control_change,18,0,1,,,,,,,,,0,11,97,,,
69032,note_on,0,0,8,,,,,,,,,11,,,,58,78
69032,note_on,24,0,9,,,,,,,,,12,,,,58,0
69032,note_on,24,0,8,,,,,,,,,11,,,,70,0
69032,note_on,0,0,9,,,,,,,,,12,,,,55,76
69032,control_change,18,0,2,,,,,,,,,1,11,76,,,
69033,control_change,18,0,3,,,,,,,,,2,11,98,,,
69033,control_change,18,0,5,,,,,,,,,4,11,77,,,
69034,note_on,0,0,10,,,,,,,,,6,,,,46,52
69034,note_on,0,0,10,,,,,,,,,6,,,,48,0
69034,note_on,0,0,10,,,,,,,,,6,,,,36,52
69034,note_on,24,0,10,,,,,,,,,6,,,,46,0
69035,control_change,18,0,6,,,,,,,,,5,11,77,,,
69035,control_change,18,0,4,,,,,,,,,3,11,98,,,
69035,control_change,3,0,9,,,,,,,,,12,11,83,,,
69035,control_change,3,0,8,,,,,,,,,11,11,83,,,
69037,control_change,20,0,7,,,,,,,,,10,11,83,,,
69037,control_change,3,0,10,,,,,,,,,6,11,83,,,
69048,control_change,18,0,1,,,,,,,,,0,11,98,,,
69050,control_change,18,0,2,,,,,,,,,1,11,77,,,
69051,control_change,18,0,5,,,,,,,,,4,11,78,,,
69051,control_change,18,0,3,,,,,,,,,2,11,99,,,
69053,control_change,18,0,6,,,,,,,,,5,11,78,,,
69053,control_change,18,0,4,,,,,,,,,3,11,99,,,
69055,note_on,18,0,7,,,,,,,,,10,,,,75,0
69057,note_on,7,0,2,,,,,,,,,1,,,,79,0
69057,note_on,0,0,2,,,,,,,,,1,,,,70,0
69058,note_on,7,0,3,,,,,,,,,2,,,,70,0
69058,note_on,7,0,5,,,,,,,,,4,,,,58,0
69058,note_on,0,0,3,,,,,,,,,2,,,,67,0
69058,control_change,3,0,7,,,,,,,,,10,11,84,,,
69060,note_on,7,0,6,,,,,,,,,5,,,,46,0
69060,note_on,0,0,1,,,,,,,,,0,,,,79,96
69060,note_on,0,0,1,,,,,,,,,0,,,,91,96
69060,note_on,12,0,1,,,,,,,,,0,,,,75,0
69060,note_on,0,0,1,,,,,,,,,0,,,,87,0
69060,note_on,2,0,7,,,,,,,,,10,,,,79,103
69062,note_on,0,0,9,,,,,,,,,12,,,,58,76
69062,note_on,5,0,2,,,,,,,,,1,,,,79,87
69062,note_on,0,0,2,,,,,,,,,1,,,,70,87
69062,note_on,27,0,9,,,,,,,,,12,,,,55,0
69062,note_on,27,0,8,,,,,,,,,11,,,,58,0
69062,note_on,0,0,8,,,,,,,,,11,,,,70,78
69063,note_on,5,0,5,,,,,,,,,4,,,,58,82
69063,control_change,1,0,9,,,,,,,,,12,11,85,,,
69063,note_on,5,0,3,,,,,,,,,2,,,,70,76
69063,note_on,0,0,3,,,,,,,,,2,,,,67,76
69063,control_change,1,0,8,,,,,,,,,11,11,85,,,
69064,note_on,0,0,10,,,,,,,,,6,,,,48,52
69064,note_on,0,0,10,,,,,,,,,6,,,,46,52
69064,note_on,0,0,10,,,,,,,,,6,,,,46,0
69064,note_on,27,0,10,,,,,,,,,6,,,,36,0
69065,control_change,1,0,10,,,,,,,,,6,11,85,,,
69065,note_on,5,0,6,,,,,,,,,5,,,,46,82
69066,control_change,6,0,1,,,,,,,,,0,11,98,,,
69068,control_change,6,0,2,,,,,,,,,1,11,78,,,
69069,control_change,6,0,5,,,,,,,,,4,11,79,,,
69069,control_change,6,0,3,,,,,,,,,2,11,100,,,
69071,control_change,18,0,4,,,,,,,,,3,11,100,,,
69071,control_change,6,0,6,,,,,,,,,5,11,79,,,
69078,control_change,18,0,7,,,,,,,,,10,11,85,,,
69084,control_change,18,0,1,,,,,,,,,0,11,99,,,
69086,control_change,18,0,2,,,,,,,,,1,11,79,,,
69087,control_change,18,0,5,,,,,,,,,4,11,80,,,
69087,control_change,18,0,3,,,,,,,,,2,11,101,,,
69089,control_change,18,0,6,,,,,,,,,5,11,80,,,
69089,control_change,18,0,4,,,,,,,,,3,11,101,,,
69090,note_on,0,0,1,,,,,,,,,0,,,,79,0
69090,note_on,6,0,1,,,,,,,,,0,,,,91,0
69091,control_change,28,0,9,,,,,,,,,12,11,87,,,
69091,control_change,28,0,8,,,,,,,,,11,11,87,,,
69092,note_on,1,0,9,,,,,,,,,12,,,,58,0
69092,note_on,0,0,9,,,,,,,,,12,,,,55,76
69092,note_on,1,0,8,,,,,,,,,11,,,,70,0
69092,note_on,0,0,8,,,,,,,,,11,,,,58,78
69093,control_change,28,0,10,,,,,,,,,6,11,87,,,
69094,note_on,1,0,10,,,,,,,,,6,,,,46,0
69094,control_change,16,0,7,,,,,,,,,10,11,85,,,
69094,note_on,0,0,10,,,,,,,,,6,,,,48,0
69094,note_on,0,0,10,,,,,,,,,6,,,,36,52
69094,note_on,0,0,10,,,,,,,,,6,,,,46,52
69098,control_change,6,0,9,,,,,,,,,12,11,84,,,
69098,control_change,6,0,8,,,,,,,,,11,11,84,,,
69098,note_on,4,0,7,,,,,,,,,10,,,,79,0
69100,control_change,6,0,10,,,,,,,,,6,11,84,,,
69101,control_change,3,0,7,,,,,,,,,10,11,82,,,
69102,control_change,12,0,1,,,,,,,,,0,11,100,,,
69104,control_change,18,0,2,,,,,,,,,1,11,80,,,
69105,control_change,18,0,3,,,,,,,,,2,11,102,,,
69105,set_tempo,105,1,0,,,,,,1212121,,,,,,,,
69105,control_change,7,0,9,,,,,,,,,12,11,81,,,
69105,control_change,7,0,8,,,,,,,,,11,11,81,,,
69105,control_change,18,0,5,,,,,,,,,4,11,81,,,
69107,control_change,18,0,4,,,,,,,,,3,11,102,,,
69107,control_change,7,0,10,,,,,,,,,6,11,81,,,
69107,control_change,18,0,6,,,,,,,,,5,11,81,,,
69108,control_change,7,0,7,,,,,,,,,10,11,79,,,
69112,control_change,7,0,8,,,,,,,,,11,11,78,,,
69112,control_change,7,0,9,,,,,,,,,12,11,78,,,
69114,control_change,6,0,7,,,,,,,,,10,11,76,,,
69114,control_change,7,0,10,,,,,,,,,6,11,78,,,
69117,note_on,5,0,8,,,,,,,,,11,,,,58,0
69117,note_on,5,0,9,,,,,,,,,12,,,,55,0
69117,note_on,13,0,2,,,,,,,,,1,,,,70,0
69117,note_on,0,0,2,,,,,,,,,1,,,,79,0
69118,note_on,0,0,3,,,,,,,,,2,,,,70,0
69118,note_on,13,0,5,,,,,,,,,4,,,,58,0
69118,note_on,13,0,3,,,,,,,,,2,,,,67,0
69119,control_change,2,0,8,,,,,,,,,11,11,75,,,
69119,note_on,5,0,10,,,,,,,,,6,,,,36,0
69119,note_on,0,0,10,,,,,,,,,6,,,,46,0
69119,control_change,2,0,9,,,,,,,,,12,11,75,,,
69120,set_tempo,15,1,0,,,,,,1034483,,,,,,,,
69120,control_change,0,0,1,,,,,,,,,0,11,101,,,
69120,note_on,0,0,1,,,,,,,,,0,,,,77,96
69120,note_on,18,0,1,,,,,,,,,0,,,,65,96
69120,note_on,13,0,6,,,,,,,,,5,,,,46,0
69120,note_on,0,0,4,,,,,,,,,3,,,,51,0
69120,note_on,13,0,4,,,,,,,,,3,,,,63,0
69120,note_on,6,0,7,,,,,,,,,10,,,,65,103
69121,control_change,2,0,10,,,,,,,,,6,11,75,,,
69121,control_change,1,0,7,,,,,,,,,10,11,73,,,
69122,note_on,3,0,9,,,,,,,,,12,,,,58,76
69122,note_on,0,0,2,,,,,,,,,1,,,,74,87
69122,control_change,0,0,2,,,,,,,,,1,11,80,,,
69122,note_on,3,0,8,,,,,,,,,11,,,,62,78
69122,note_on,5,0,2,,,,,,,,,1,,,,70,87
69123,control_change,5,0,5,,,,,,,,,4,11,82,,,
69123,control_change,0,0,3,,,,,,,,,2,11,103,,,
69123,note_on,0,0,3,,,,,,,,,2,,,,70,76
69123,note_on,5,0,3,,,,,,,,,2,,,,65,76
69123,note_on,0,0,5,,,,,,,,,4,,,,53,82
69124,note_on,0,0,10,,,,,,,,,6,,,,46,52
69124,control_change,4,0,1,,,,,,,,,0,11,98,,,
69124,note_on,3,0,10,,,,,,,,,6,,,,50,52
69125,note_on,0,0,4,,,,,,,,,3,,,,65,95
69125,control_change,3,0,9,,,,,,,,,12,11,72,,,
69125,note_on,0,0,4,,,,,,,,,3,,,,53,95
69125,note_on,0,0,6,,,,,,,,,5,,,,41,82
69125,control_change,5,0,6,,,,,,,,,5,11,82,,,
69125,control_change,5,0,4,,,,,,,,,3,11,103,,,
69125,control_change,3,0,8,,,,,,,,,11,11,72,,,
69125,note_on,240,0,11,,,,,,,,,13,,,,53,43
69127,control_change,3,0,10,,,,,,,,,6,11,72,,,
69127,control_change,4,0,5,,,,,,,,,4,11,79,,,
69127,control_change,4,0,3,,,,,,,,,2,11,100,,,
69128,note_on,240,0,12,,,,,,,,,14,,,,41,36
69128,control_change,6,0,2,,,,,,,,,1,11,77,,,
69128,control_change,7,0,7,,,,,,,,,10,11,70,,,
69129,control_change,4,0,6,,,,,,,,,5,11,79,,,
69129,control_change,4,0,4,,,,,,,,,3,11,100,,,
69132,control_change,7,0,8,,,,,,,,,11,11,69,,,
69132,control_change,5,0,5,,,,,,,,,4,11,76,,,
69132,control_change,8,0,1,,,,,,,,,0,11,95,,,
69132,control_change,7,0,9,,,,,,,,,12,11,69,,,
69133,control_change,6,0,3,,,,,,,,,2,11,97,,,
69134,control_change,6,0,2,,,,,,,,,1,11,74,,,
69134,control_change,7,0,10,,,,,,,,,6,11,69,,,
69134,control_change,5,0,6,,,,,,,,,5,11,76,,,
69135,control_change,6,0,4,,,,,,,,,3,11,97,,,
69135,control_change,7,0,7,,,,,,,,,10,11,67,,,
69136,control_change,4,0,5,,,,,,,,,4,11,73,,,
69136,control_change,4,0,1,,,,,,,,,0,11,92,,,
69138,control_change,4,0,6,,,,,,,,,5,11,73,,,
69138,control_change,4,0,2,,,,,,,,,1,11,71,,,
69139,control_change,6,0,3,,,,,,,,,2,11,94,,,
69139,control_change,7,0,9,,,,,,,,,12,11,66,,,
69139,control_change,7,0,8,,,,,,,,,11,11,66,,,
69141,control_change,5,0,5,,,,,,,,,4,11,70,,,
69141,control_change,6,0,4,,,,,,,,,3,11,94,,,
69141,control_change,6,0,7,,,,,,,,,10,11,64,,,
69141,control_change,5,0,1,,,,,,,,,0,11,89,,,
69141,control_change,7,0,10,,,,,,,,,6,11,66,,,
69143,control_change,5,0,6,,,,,,,,,5,11,70,,,
69144,control_change,5,0,3,,,,,,,,,2,11,91,,,
69144,control_change,6,0,2,,,,,,,,,1,11,68,,,
69145,control_change,4,0,5,,,,,,,,,4,11,67,,,
69146,control_change,5,0,4,,,,,,,,,3,11,91,,,
69146,control_change,7,0,8,,,,,,,,,11,11,63,,,
69146,control_change,7,0,9,,,,,,,,,12,11,63,,,
69147,control_change,4,0,6,,,,,,,,,5,11,67,,,
69147,control_change,6,0,1,,,,,,,,,0,11,86,,,
69148,control_change,7,0,10,,,,,,,,,6,11,63,,,
69148,control_change,7,0,7,,,,,,,,,10,11,61,,,
69149,control_change,5,0,2,,,,,,,,,1,11,65,,,
69150,control_change,6,0,3,,,,,,,,,2,11,88,,,
69150,control_change,5,0,5,,,,,,,,,4,11,64,,,
69152,note_on,0,0,8,,,,,,,,,11,,,,58,78
69152,control_change,5,0,6,,,,,,,,,5,11,64,,,
69152,note_on,6,0,8,,,,,,,,,11,,,,62,0
69152,control_change,0,0,8,,,,,,,,,11,11,60,,,
69152,control_change,6,0,4,,,,,,,,,3,11,88,,,
69152,note_on,6,0,9,,,,,,,,,12,,,,58,0
69152,control_change,0,0,9,,,,,,,,,12,11,60,,,
69152,note_on,0,0,9,,,,,,,,,12,,,,53,76
69153,control_change,6,0,1,,,,,,,,,0,11,83,,,
69154,note_on,0,0,10,,,,,,,,,6,,,,41,52
69154,control_change,4,0,5,,,,,,,,,4,11,61,,,
69154,note_on,6,0,10,,,,,,,,,6,,,,46,0
69154,note_on,0,0,10,,,,,,,,,6,,,,50,0
69154,control_change,0,0,10,,,,,,,,,6,11,60,,,
69154,note_on,0,0,10,,,,,,,,,6,,,,46,52
69155,control_change,7,0,7,,,,,,,,,10,11,58,,,
69155,control_change,6,0,2,,,,,,,,,1,11,62,,,
69156,control_change,4,0,6,,,,,,,,,5,11,61,,,
69156,control_change,6,0,3,,,,,,,,,2,11,85,,,
69157,control_change,4,0,1,,,,,,,,,0,11,80,,,
69158,control_change,6,0,4,,,,,,,,,3,11,85,,,
69159,control_change,7,0,8,,,,,,,,,11,11,57,,,
69159,control_change,5,0,5,,,,,,,,,4,11,58,,,
69159,control_change,7,0,9,,,,,,,,,12,11,57,,,
69160,control_change,4,0,3,,,,,,,,,2,11,82,,,
69161,control_change,6,0,2,,,,,,,,,1,11,59,,,
69161,control_change,5,0,6,,,,,,,,,5,11,58,,,
69161,control_change,7,0,10,,,,,,,,,6,11,57,,,
69162,control_change,7,0,7,,,,,,,,,10,11,55,,,
69162,control_change,4,0,4,,,,,,,,,3,11,82,,,
69163,control_change,6,0,1,,,,,,,,,0,11,77,,,
69163,control_change,4,0,5,,,,,,,,,4,11,55,,,
69165,control_change,4,0,2,,,,,,,,,1,11,56,,,
69165,control_change,4,0,6,,,,,,,,,5,11,55,,,
69166,control_change,6,0,3,,,,,,,,,2,11,79,,,
69166,control_change,7,0,9,,,,,,,,,12,11,54,,,
69166,control_change,7,0,8,,,,,,,,,11,11,54,,,
69168,control_change,5,0,5,,,,,,,,,4,11,52,,,
69168,control_change,6,0,7,,,,,,,,,10,11,52,,,
69168,control_change,6,0,4,,,,,,,,,3,11,79,,,
69168,control_change,7,0,10,,,,,,,,,6,11,54,,,
69169,control_change,6,0,1,,,,,,,,,0,11,74,,,
69170,control_change,5,0,6,,,,,,,,,5,11,52,,,
69171,control_change,6,0,2,,,,,,,,,1,11,53,,,
69171,control_change,5,0,3,,,,,,,,,2,11,76,,,
69172,control_change,4,0,5,,,,,,,,,4,11,49,,,
69173,control_change,7,0,8,,,,,,,,,11,11,51,,,
69173,control_change,5,0,4,,,,,,,,,3,11,76,,,
69173,control_change,7,0,9,,,,,,,,,12,11,51,,,
69174,control_change,5,0,1,,,,,,,,,0,11,71,,,
69174,control_change,4,0,6,,,,,,,,,5,11,49,,,
69175,control_change,7,0,7,,,,,,,,,10,11,49,,,
69175,control_change,7,0,10,,,,,,,,,6,11,51,,,
69177,note_on,0,0,2,,,,,,,,,1,,,,70,0
69177,control_change,6,0,3,,,,,,,,,2,11,73,,,
69177,control_change,0,0,2,,,,,,,,,1,11,50,,,
69177,note_on,6,0,2,,,,,,,,,1,,,,74,0
69177,control_change,5,0,5,,,,,,,,,4,11,46,,,
69178,note_on,0,0,3,,,,,,,,,2,,,,65,0
69178,note_on,1,0,5,,,,,,,,,4,,,,53,0
69178,note_on,1,0,3,,,,,,,,,2,,,,70,0
69179,control_change,6,0,9,,,,,,,,,12,11,48,,,
69179,control_change,5,0,6,,,,,,,,,5,11,46,,,
69179,control_change,6,0,8,,,,,,,,,11,11,48,,,
69179,control_change,6,0,4,,,,,,,,,3,11,73,,,
69180,note_on,1,0,6,,,,,,,,,5,,,,41,0
69180,control_change,6,0,1,,,,,,,,,0,11,68,,,
69180,set_tempo,60,1,0,,,,,,937500,,,,,,,,
69181,control_change,6,0,10,,,,,,,,,6,11,48,,,
69181,control_change,3,0,5,,,,,,,,,4,11,43,,,
69181,control_change,3,0,3,,,,,,,,,2,11,70,,,
69182,control_change,5,0,2,,,,,,,,,1,11,47,,,
69182,note_on,0,0,9,,,,,,,,,12,,,,58,76
69182,note_on,3,0,9,,,,,,,,,12,,,,53,0
69182,note_on,0,0,2,,,,,,,,,1,,,,74,87
69182,note_on,0,0,8,,,,,,,,,11,,,,62,78
69182,note_on,3,0,8,,,,,,,,,11,,,,58,0
69182,note_on,0,0,2,,,,,,,,,1,,,,77,87
69183,control_change,4,0,4,,,,,,,,,3,11,70,,,
69183,control_change,3,0,6,,,,,,,,,5,11,43,,,
69183,note_on,2,0,5,,,,,,,,,4,,,,58,82
69183,note_on,2,0,3,,,,,,,,,2,,,,65,76
69183,note_on,0,0,3,,,,,,,,,2,,,,70,76
69184,note_on,0,0,10,,,,,,,,,6,,,,50,52
69184,note_on,0,0,10,,,,,,,,,6,,,,41,0
69184,note_on,3,0,10,,,,,,,,,6,,,,46,0
69184,note_on,0,0,10,,,,,,,,,6,,,,46,52
69185,note_on,2,0,6,,,,,,,,,5,,,,50,82
69212,note_on,30,0,9,,,,,,,,,12,,,,58,0
69212,note_on,30,0,8,,,,,,,,,11,,,,62,0
69212,note_on,0,0,8,,,,,,,,,11,,,,58,78
69212,note_on,0,0,9,,,,,,,,,12,,,,53,76
69214,note_on,0,0,10,,,,,,,,,6,,,,41,52
69214,note_on,30,0,10,,,,,,,,,6,,,,50,0
69214,note_on,0,0,10,,,,,,,,,6,,,,46,0
69214,note_on,0,0,10,,,,,,,,,6,,,,46,52
69237,note_on,0,0,2,,,,,,,,,1,,,,77,0
69237,note_on,55,0,2,,,,,,,,,1,,,,74,0
69238,note_on,55,0,3,,,,,,,,,2,,,,70,0
69238,note_on,0,0,3,,,,,,,,,2,,,,65,0
69238,note_on,55,0,5,,,,,,,,,4,,,,58,0
69240,note_on,55,0,6,,,,,,,,,5,,,,50,0
69242,note_on,0,0,9,,,,,,,,,12,,,,58,76
69242,note_on,0,0,8,,,,,,,,,11,,,,62,78
69242,note_on,5,0,2,,,,,,,,,1,,,,74,87
69242,note_on,30,0,8,,,,,,,,,11,,,,58,0
69242,note_on,0,0,2,,,,,,,,,1,,,,77,87
69242,note_on,30,0,9,,,,,,,,,12,,,,53,0
69243,note_on,5,0,5,,,,,,,,,4,,,,58,82
69243,note_on,0,0,3,,,,,,,,,2,,,,70,76
69243,note_on,5,0,3,,,,,,,,,2,,,,65,76
69244,note_on,0,0,10,,,,,,,,,6,,,,50,52
69244,note_on,0,0,10,,,,,,,,,6,,,,46,52
69244,note_on,30,0,10,,,,,,,,,6,,,,41,0
69244,note_on,0,0,10,,,,,,,,,6,,,,46,0
69245,note_on,120,0,11,,,,,,,,,13,,,,53,0
69245,note_on,5,0,6,,,,,,,,,5,,,,50,82
69248,note_on,120,0,12,,,,,,,,,14,,,,41,0
69272,note_on,30,0,9,,,,,,,,,12,,,,58,0
69272,note_on,30,0,8,,,,,,,,,11,,,,62,0
69272,note_on,0,0,8,,,,,,,,,11,,,,58,78
69272,note_on,0,0,9,,,,,,,,,12,,,,53,76
69274,note_on,0,0,10,,,,,,,,,6,,,,46,52
69274,note_on,0,0,10,,,,,,,,,6,,,,41,52
69274,note_on,0,0,10,,,,,,,,,6,,,,50,0
69274,note_on,30,0,10,,,,,,,,,6,,,,46,0
69297,note_on,55,0,2,,,,,,,,,1,,,,77,0
69297,note_on,0,0,2,,,,,,,,,1,,,,74,0
69298,note_on,55,0,3,,,,,,,,,2,,,,70,0
69298,note_on,0,0,3,,,,,,,,,2,,,,65,0
69298,note_on,55,0,5,,,,,,,,,4,,,,58,0
69300,note_on,55,0,6,,,,,,,,,5,,,,50,0
69300,note_on,117,0,4,,,,,,,,,3,,,,65,0
69300,set_tempo,120,1,0,,,,,,1034483,,,,,,,,
69300,note_on,0,0,4,,,,,,,,,3,,,,53,0
69302,note_on,30,0,9,,,,,,,,,12,,,,53,0
69302,note_on,0,0,9,,,,,,,,,12,,,,58,76
69302,note_on,5,0,2,,,,,,,,,1,,,,74,87
69302,note_on,0,0,2,,,,,,,,,1,,,,77,87
69302,note_on,30,0,8,,,,,,,,,11,,,,58,0
69302,note_on,0,0,8,,,,,,,,,11,,,,62,78
69303,note_on,5,0,3,,,,,,,,,2,,,,70,76
69303,note_on,0,0,3,,,,,,,,,2,,,,65,76
69303,note_on,5,0,5,,,,,,,,,4,,,,58,82
69304,note_on,30,0,10,,,,,,,,,6,,,,46,0
69304,note_on,0,0,10,,,,,,,,,6,,,,50,52
69304,note_on,0,0,10,,,,,,,,,6,,,,46,52
69304,note_on,0,0,10,,,,,,,,,6,,,,41,0
69305,note_on,0,0,4,,,,,,,,,3,,,,41,95
69305,note_on,5,0,4,,,,,,,,,3,,,,53,95
69305,note_on,5,0,6,,,,,,,,,5,,,,50,82
69332,note_on,30,0,8,,,,,,,,,11,,,,62,0
69332,note_on,30,0,9,,,,,,,,,12,,,,58,0
69332,note_on,0,0,9,,,,,,,,,12,,,,53,76
69332,note_on,0,0,8,,,,,,,,,11,,,,58,78
69334,note_on,30,0,10,,,,,,,,,6,,,,46,0
69334,note_on,0,0,10,,,,,,,,,6,,,,46,52
69334,note_on,0,0,10,,,,,,,,,6,,,,41,52
69334,note_on,0,0,10,,,,,,,,,6,,,,50,0
69355,note_on,0,0,1,,,,,,,,,0,,,,65,0
69355,note_on,175,0,1,,,,,,,,,0,,,,77,0
69357,note_on,0,0,2,,,,,,,,,1,,,,74,0
69357,note_on,55,0,2,,,,,,,,,1,,,,77,0
69358,note_on,0,0,3,,,,,,,,,2,,,,70,0
69358,note_on,55,0,5,,,,,,,,,4,,,,58,0
69358,note_on,55,0,3,,,,,,,,,2,,,,65,0
69360,note_on,5,0,1,,,,,,,,,0,,,,67,96
69360,note_on,0,0,1,,,,,,,,,0,,,,79,96
69360,set_tempo,60,1,0,,,,,,937500,,,,,,,,
69360,note_on,185,0,7,,,,,,,,,10,,,,65,0
69360,note_on,55,0,6,,,,,,,,,5,,,,50,0
69360,note_on,0,0,7,,,,,,,,,10,,,,67,103
69362,note_on,0,0,2,,,,,,,,,1,,,,74,87
69362,note_on,5,0,2,,,,,,,,,1,,,,77,87
69362,note_on,30,0,8,,,,,,,,,11,,,,58,0
69362,note_on,0,0,8,,,,,,,,,11,,,,62,78
69362,note_on,0,0,9,,,,,,,,,12,,,,58,76
69362,note_on,30,0,9,,,,,,,,,12,,,,53,0
69363,note_on,5,0,3,,,,,,,,,2,,,,65,76
69363,note_on,0,0,3,,,,,,,,,2,,,,70,76
69363,note_on,5,0,5,,,,,,,,,4,,,,58,82
69364,note_on,30,0,10,,,,,,,,,6,,,,46,0
69364,note_on,0,0,10,,,,,,,,,6,,,,41,0
69364,note_on,0,0,10,,,,,,,,,6,,,,50,52
69364,note_on,0,0,10,,,,,,,,,6,,,,46,52
69365,note_on,5,0,6,,,,,,,,,5,,,,50,82
69392,note_on,30,0,9,,,,,,,,,12,,,,58,0
69392,note_on,0,0,9,,,,,,,,,12,,,,53,76
69392,note_on,30,0,8,,,,,,,,,11,,,,62,0
69392,note_on,0,0,8,,,,,,,,,11,,,,58,78
69394,note_on,0,0,10,,,,,,,,,6,,,,46,52
69394,note_on,0,0,10,,,,,,,,,6,,,,41,52
69394,note_on,0,0,10,,,,,,,,,6,,,,50,0
69394,note_on,30,0,10,,,,,,,,,6,,,,46,0
69412,note_on,0,0,1,,,,,,,,,0,,,,67,0
69412,note_on,52,0,7,,,,,,,,,10,,,,67,0
69412,note_on,52,0,1,,,,,,,,,0,,,,79,0
69417,note_on,55,0,2,,,,,,,,,1,,,,74,0
69417,note_on,0,0,2,,,,,,,,,1,,,,77,0
69418,note_on,55,0,5,,,,,,,,,4,,,,58,0
69418,note_on,55,0,3,,,,,,,,,2,,,,70,0
69418,note_on,0,0,3,,,,,,,,,2,,,,65,0
69420,note_on,0,0,1,,,,,,,,,0,,,,69,96
69420,note_on,8,0,1,,,,,,,,,0,,,,81,96
69420,note_on,8,0,7,,,,,,,,,10,,,,69,103
69420,note_on,55,0,6,,,,,,,,,5,,,,50,0
69422,note_on,0,0,2,,,,,,,,,1,,,,77,87
69422,note_on,30,0,9,,,,,,,,,12,,,,53,0
69422,note_on,5,0,2,,,,,,,,,1,,,,74,87
69422,note_on,30,0,8,,,,,,,,,11,,,,58,0
69422,note_on,0,0,9,,,,,,,,,12,,,,58,76
69422,note_on,0,0,8,,,,,,,,,11,,,,62,78
69423,note_on,5,0,3,,,,,,,,,2,,,,70,76
69423,note_on,5,0,5,,,,,,,,,4,,,,58,82
69423,note_on,0,0,3,,,,,,,,,2,,,,65,76
69424,note_on,30,0,10,,,,,,,,,6,,,,46,0
69424,note_on,0,0,10,,,,,,,,,6,,,,41,0
69424,note_on,0,0,10,,,,,,,,,6,,,,50,52
69424,note_on,0,0,10,,,,,,,,,6,,,,46,52
69425,note_on,5,0,6,,,,,,,,,5,,,,50,82
69452,note_on,30,0,8,,,,,,,,,11,,,,62,0
69452,note_on,0,0,9,,,,,,,,,12,,,,53,76
69452,note_on,30,0,9,,,,,,,,,12,,,,58,0
69452,note_on,0,0,8,,,,,,,,,11,,,,58,78
69454,note_on,0,0,10,,,,,,,,,6,,,,50,0
69454,note_on,30,0,10,,,,,,,,,6,,,,46,0
69454,note_on,0,0,10,,,,,,,,,6,,,,41,52
69454,note_on,0,0,10,,,,,,,,,6,,,,46,52
69472,note_on,52,0,7,,,,,,,,,10,,,,69,0
69472,note_on,0,0,1,,,,,,,,,0,,,,81,0
69472,note_on,52,0,1,,,,,,,,,0,,,,69,0
69477,note_on,55,0,2,,,,,,,,,1,,,,77,0
69477,note_on,0,0,2,,,,,,,,,1,,,,74,0
69477,note_on,25,0,9,,,,,,,,,12,,,,53,0
69477,note_on,25,0,8,,,,,,,,,11,,,,58,0
69478,note_on,55,0,3,,,,,,,,,2,,,,65,0
69478,note_on,0,0,3,,,,,,,,,2,,,,70,0
69478,note_on,55,0,5,,,,,,,,,4,,,,58,0
69479,note_on,0,0,10,,,,,,,,,6,,,,41,0
69479,note_on,25,0,10,,,,,,,,,6,,,,46,0
69480,note_on,0,0,1,,,,,,,,,0,,,,82,96
69480,set_tempo,120,1,0,,,,,,1034483,,,,,,,,
69480,control_change,8,0,7,,,,,,,,,10,11,47,,,
69480,note_on,0,0,7,,,,,,,,,10,,,,70,103
69480,note_on,8,0,1,,,,,,,,,0,,,,70,96
69480,control_change,0,0,1,,,,,,,,,0,11,68,,,
69480,note_on,0,0,4,,,,,,,,,3,,,,53,0
69480,note_on,175,0,4,,,,,,,,,3,,,,41,0
69480,note_on,55,0,6,,,,,,,,,5,,,,50,0
69482,note_on,0,0,8,,,,,,,,,11,,,,62,78
69482,control_change,5,0,8,,,,,,,,,11,11,47,,,
69482,note_on,0,0,2,,,,,,,,,1,,,,74,87
69482,note_on,0,0,2,,,,,,,,,1,,,,77,87
69482,control_change,5,0,2,,,,,,,,,1,11,47,,,
69482,note_on,0,0,9,,,,,,,,,12,,,,58,76
69482,control_change,5,0,9,,,,,,,,,12,11,47,,,
69483,note_on,0,0,5,,,,,,,,,4,,,,58,82
69483,note_on,0,0,3,,,,,,,,,2,,,,70,76
69483,control_change,5,0,5,,,,,,,,,4,11,42,,,
69483,note_on,0,0,3,,,,,,,,,2,,,,65,76
69483,control_change,5,0,3,,,,,,,,,2,11,70,,,
69484,control_change,5,0,10,,,,,,,,,6,11,47,,,
69484,note_on,0,0,10,,,,,,,,,6,,,,46,52
69484,note_on,0,0,10,,,,,,,,,6,,,,50,52
69485,control_change,5,0,6,,,,,,,,,5,11,42,,,
69485,note_on,240,0,11,,,,,,,,,13,,,,41,43
69485,note_on,0,0,6,,,,,,,,,5,,,,50,82
69485,control_change,0,0,4,,,,,,,,,3,11,70,,,
69485,note_on,5,0,4,,,,,,,,,3,,,,41,95
69485,note_on,0,0,4,,,,,,,,,3,,,,53,95
69488,note_on,240,0,12,,,,,,,,,14,,,,29,36
69498,control_change,18,0,7,,,,,,,,,10,11,50,,,
69498,control_change,18,0,1,,,,,,,,,0,11,70,,,
69500,control_change,18,0,2,,,,,,,,,1,11,49,,,
69500,control_change,18,0,8,,,,,,,,,11,11,50,,,
69500,control_change,18,0,9,,,,,,,,,12,11,50,,,
69501,control_change,18,0,5,,,,,,,,,4,11,44,,,
69501,control_change,18,0,3,,,,,,,,,2,11,71,,,
69502,control_change,18,0,10,,,,,,,,,6,11,50,,,
69503,control_change,18,0,4,,,,,,,,,3,11,71,,,
69503,control_change,18,0,6,,,,,,,,,5,11,44,,,
69512,note_on,12,0,9,,,,,,,,,12,,,,58,0
69512,note_on,0,0,8,,,,,,,,,11,,,,58,78
69512,note_on,12,0,8,,,,,,,,,11,,,,62,0
69512,note_on,0,0,9,,,,,,,,,12,,,,53,76
69514,note_on,0,0,10,,,,,,,,,6,,,,46,52
69514,note_on,0,0,10,,,,,,,,,6,,,,41,52
69514,note_on,0,0,10,,,,,,,,,6,,,,46,0
69514,note_on,12,0,10,,,,,,,,,6,,,,50,0
69516,control_change,18,0,7,,,,,,,,,10,11,53,,,
69516,control_change,18,0,1,,,,,,,,,0,11,71,,,
69518,control_change,18,0,2,,,,,,,,,1,11,51,,,
69518,control_change,6,0,8,,,,,,,,,11,11,53,,,
69518,control_change,6,0,9,,,,,,,,,12,11,53,,,
69519,control_change,18,0,5,,,,,,,,,4,11,46,,,
69519,control_change,18,0,3,,,,,,,,,2,11,73,,,
69520,control_change,6,0,10,,,,,,,,,6,11,53,,,
69521,control_change,18,0,6,,,,,,,,,5,11,46,,,
69521,control_change,18,0,4,,,,,,,,,3,11,73,,,
69532,note_on,16,0,1,,,,,,,,,0,,,,82,0
69532,note_on,0,0,1,,,,,,,,,0,,,,70,0
69532,note_on,16,0,7,,,,,,,,,10,,,,70,0
69534,control_change,2,0,1,,,,,,,,,0,11,73,,,
69534,control_change,2,0,7,,,,,,,,,10,11,56,,,
69536,control_change,18,0,9,,,,,,,,,12,11,56,,,
69536,control_change,18,0,8,,,,,,,,,11,11,56,,,
69536,control_change,18,0,2,,,,,,,,,1,11,52,,,
69537,control_change,18,0,3,,,,,,,,,2,11,75,,,
69537,note_on,0,0,2,,,,,,,,,1,,,,74,0
69537,control_change,18,0,5,,,,,,,,,4,11,48,,,
69537,note_on,1,0,2,,,,,,,,,1,,,,77,0
69538,note_on,1,0,5,,,,,,,,,4,,,,58,0
69538,note_on,1,0,3,,,,,,,,,2,,,,65,0
69538,note_on,0,0,3,,,,,,,,,2,,,,70,0
69538,control_change,18,0,10,,,,,,,,,6,11,56,,,
69539,control_change,18,0,4,,,,,,,,,3,11,75,,,
69539,control_change,18,0,6,,,,,,,,,5,11,48,,,
69540,note_on,6,0,7,,,,,,,,,10,,,,72,103
69540,set_tempo,60,1,0,,,,,,937500,,,,,,,,
69540,note_on,0,0,1,,,,,,,,,0,,,,72,96
69540,note_on,1,0,6,,,,,,,,,5,,,,50,0
69540,note_on,6,0,1,,,,,,,,,0,,,,84,96
69542,note_on,6,0,9,,,,,,,,,12,,,,53,0
69542,note_on,0,0,8,,,,,,,,,11,,,,62,78
69542,note_on,6,0,8,,,,,,,,,11,,,,58,0
69542,note_on,0,0,9,,,,,,,,,12,,,,58,76
69542,note_on,0,0,2,,,,,,,,,1,,,,77,87
69542,note_on,5,0,2,,,,,,,,,1,,,,74,87
69543,note_on,0,0,3,,,,,,,,,2,,,,65,76
69543,note_on,5,0,3,,,,,,,,,2,,,,70,76
69543,note_on,5,0,5,,,,,,,,,4,,,,58,82
69544,note_on,6,0,10,,,,,,,,,6,,,,46,0
69544,note_on,0,0,10,,,,,,,,,6,,,,46,52
69544,note_on,0,0,10,,,,,,,,,6,,,,50,52
69544,note_on,0,0,10,,,,,,,,,6,,,,41,0
69545,note_on,5,0,6,,,,,,,,,5,,,,50,82
69552,control_change,12,0,7,,,,,,,,,10,11,59,,,
69552,control_change,12,0,1,,,,,,,,,0,11,75,,,
69554,control_change,12,0,9,,,,,,,,,12,11,59,,,
69554,control_change,12,0,8,,,,,,,,,11,11,59,,,
69554,control_change,12,0,2,,,,,,,,,1,11,54,,,
69555,control_change,12,0,3,,,,,,,,,2,11,76,,,
69555,control_change,12,0,5,,,,,,,,,4,11,50,,,
69556,control_change,12,0,10,,,,,,,,,6,11,59,,,
69557,control_change,18,0,4,,,,,,,,,3,11,76,,,
69557,control_change,12,0,6,,,,,,,,,5,11,50,,,
69570,control_change,18,0,7,,,,,,,,,10,11,62,,,
69570,control_change,18,0,1,,,,,,,,,0,11,76,,,
69572,note_on,18,0,8,,,,,,,,,11,,,,62,0
69572,note_on,0,0,8,,,,,,,,,11,,,,58,78
69572,control_change,0,0,8,,,,,,,,,11,11,62,,,
69572,note_on,18,0,9,,,,,,,,,12,,,,58,0
69572,control_change,0,0,9,,,,,,,,,12,11,62,,,
69572,note_on,0,0,9,,,,,,,,,12,,,,53,76
69572,control_change,18,0,2,,,,,,,,,1,11,55,,,
69573,control_change,18,0,5,,,,,,,,,4,11,52,,,
69573,control_change,18,0,3,,,,,,,,,2,11,78,,,
69574,note_on,0,0,10,,,,,,,,,6,,,,41,52
69574,control_change,0,0,10,,,,,,,,,6,11,62,,,
69574,note_on,0,0,10,,,,,,,,,6,,,,46,52
69574,note_on,0,0,10,,,,,,,,,6,,,,50,0
69574,note_on,18,0,10,,,,,,,,,6,,,,46,0
69575,control_change,18,0,4,,,,,,,,,3,11,78,,,
69575,control_change,18,0,6,,,,,,,,,5,11,52,,,
69588,control_change,18,0,1,,,,,,,,,0,11,78,,,
69588,control_change,18,0,7,,,,,,,,,10,11,65,,,
69590,control_change,18,0,9,,,,,,,,,12,11,65,,,
69590,control_change,18,0,8,,,,,,,,,11,11,65,,,
69590,control_change,18,0,2,,,,,,,,,1,11,57,,,
69591,control_change,18,0,5,,,,,,,,,4,11,54,,,
69591,control_change,18,0,3,,,,,,,,,2,11,80,,,
69592,note_on,4,0,7,,,,,,,,,10,,,,72,0
69592,note_on,0,0,1,,,,,,,,,0,,,,84,0
69592,note_on,4,0,1,,,,,,,,,0,,,,72,0
69592,control_change,18,0,10,,,,,,,,,6,11,65,,,
69593,control_change,18,0,4,,,,,,,,,3,11,80,,,
69593,control_change,18,0,6,,,,,,,,,5,11,54,,,
69597,note_on,7,0,2,,,,,,,,,1,,,,77,0
69597,note_on,0,0,2,,,,,,,,,1,,,,74,0
69598,note_on,0,0,3,,,,,,,,,2,,,,70,0
69598,note_on,7,0,3,,,,,,,,,2,,,,65,0
69598,note_on,7,0,5,,,,,,,,,4,,,,58,0
69600,note_on,0,0,1,,,,,,,,,0,,,,74,96
69600,note_on,8,0,7,,,,,,,,,10,,,,74,103
69600,note_on,7,0,6,,,,,,,,,5,,,,50,0
69600,note_on,8,0,1,,,,,,,,,0,,,,86,96
69602,note_on,0,0,8,,,,,,,,,11,,,,62,78
69602,note_on,5,0,2,,,,,,,,,1,,,,74,87
69602,note_on,12,0,9,,,,,,,,,12,,,,53,0
69602,note_on,12,0,8,,,,,,,,,11,,,,58,0
69602,note_on,0,0,9,,,,,,,,,12,,,,58,76
69602,note_on,0,0,2,,,,,,,,,1,,,,77,87
69603,note_on,5,0,5,,,,,,,,,4,,,,58,82
69603,note_on,0,0,3,,,,,,,,,2,,,,70,76
69603,note_on,5,0,3,,,,,,,,,2,,,,65,76
69604,note_on,0,0,10,,,,,,,,,6,,,,46,52
69604,note_on,0,0,10,,,,,,,,,6,,,,50,52
69604,note_on,0,0,10,,,,,,,,,6,,,,41,0
69604,note_on,12,0,10,,,,,,,,,6,,,,46,0
69605,note_on,120,0,11,,,,,,,,,13,,,,41,0
69605,note_on,5,0,6,,,,,,,,,5,,,,50,82
69606,control_change,6,0,7,,,,,,,,,10,11,68,,,
69606,control_change,6,0,1,,,,,,,,,0,11,80,,,
69608,note_on,120,0,12,,,,,,,,,14,,,,29,0
69608,control_change,6,0,2,,,,,,,,,1,11,59,,,
69608,control_change,6,0,9,,,,,,,,,12,11,68,,,
69608,control_change,6,0,8,,,,,,,,,11,11,68,,,
69609,control_change,6,0,5,,,,,,,,,4,11,56,,,
69609,control_change,6,0,3,,,,,,,,,2,11,81,,,
69610,control_change,6,0,10,,,,,,,,,6,11,68,,,
69611,control_change,18,0,4,,,,,,,,,3,11,81,,,
69611,control_change,6,0,6,,,,,,,,,5,11,56,,,
69624,control_change,18,0,1,,,,,,,,,0,11,81,,,
69624,control_change,18,0,7,,,,,,,,,10,11,71,,,
69626,control_change,18,0,9,,,,,,,,,12,11,71,,,
69626,control_change,18,0,8,,,,,,,,,11,11,71,,,
69626,control_change,18,0,2,,,,,,,,,1,11,61,,,
69627,control_change,18,0,5,,,,,,,,,4,11,58,,,
69627,control_change,18,0,3,,,,,,,,,2,11,83,,,
69628,control_change,18,0,10,,,,,,,,,6,11,71,,,
69629,control_change,18,0,6,,,,,,,,,5,11,58,,,
69629,control_change,18,0,4,,,,,,,,,3,11,83,,,
69632,note_on,6,0,8,,,,,,,,,11,,,,62,0
69632,note_on,6,0,9,,,,,,,,,12,,,,58,0
69632,note_on,0,0,9,,,,,,,,,12,,,,53,76
69632,note_on,0,0,8,,,,,,,,,11,,,,58,78
69634,note_on,0,0,10,,,,,,,,,6,,,,41,52
69634,note_on,0,0,10,,,,,,,,,6,,,,50,0
69634,note_on,6,0,10,,,,,,,,,6,,,,46,0
69634,note_on,0,0,10,,,,,,,,,6,,,,46,52
69642,control_change,18,0,1,,,,,,,,,0,11,83,,,
69642,control_change,18,0,7,,,,,,,,,10,11,74,,,
69644,control_change,12,0,8,,,,,,,,,11,11,74,,,
69644,control_change,18,0,2,,,,,,,,,1,11,62,,,
69644,control_change,12,0,9,,,,,,,,,12,11,74,,,
69645,control_change,18,0,3,,,,,,,,,2,11,85,,,
69645,control_change,18,0,5,,,,,,,,,4,11,60,,,
69646,control_change,12,0,10,,,,,,,,,6,11,74,,,
69647,control_change,18,0,6,,,,,,,,,5,11,60,,,
69647,control_change,18,0,4,,,,,,,,,3,11,85,,,
69652,note_on,10,0,7,,,,,,,,,10,,,,74,0
69652,note_on,0,0,1,,,,,,,,,0,,,,86,0
69652,note_on,10,0,1,,,,,,,,,0,,,,74,0
69657,note_on,0,0,2,,,,,,,,,1,,,,74,0
69657,note_on,13,0,9,,,,,,,,,12,,,,53,0
69657,note_on,13,0,2,,,,,,,,,1,,,,77,0
69657,note_on,13,0,8,,,,,,,,,11,,,,58,0
69658,note_on,13,0,5,,,,,,,,,4,,,,58,0
69658,note_on,13,0,3,,,,,,,,,2,,,,70,0
69658,note_on,0,0,3,,,,,,,,,2,,,,65,0
69659,note_on,0,0,10,,,,,,,,,6,,,,41,0
69659,note_on,13,0,10,,,,,,,,,6,,,,46,0
69660,note_on,13,0,6,,,,,,,,,5,,,,50,0
69660,control_change,0,0,1,,,,,,,,,0,11,85,,,
69660,note_on,13,0,4,,,,,,,,,3,,,,53,0
69660,note_on,0,0,1,,,,,,,,,0,,,,89,96
69660,note_on,8,0,1,,,,,,,,,0,,,,77,96
69660,set_tempo,120,1,0,,,,,,1034483,,,,,,,,
69660,note_on,0,0,7,,,,,,,,,10,,,,77,103
69660,control_change,8,0,7,,,,,,,,,10,11,77,,,
69660,note_on,0,0,4,,,,,,,,,3,,,,41,0
69662,note_on,0,0,2,,,,,,,,,1,,,,77,87
69662,control_change,5,0,2,,,,,,,,,1,11,64,,,
69662,control_change,5,0,8,,,,,,,,,11,11,77,,,
69662,note_on,0,0,8,,,,,,,,,11,,,,63,78
69662,note_on,0,0,9,,,,,,,,,12,,,,57,76
69662,note_on,0,0,2,,,,,,,,,1,,,,75,87
69662,control_change,5,0,9,,,,,,,,,12,11,77,,,
69663,control_change,5,0,5,,,,,,,,,4,11,62,,,
69663,note_on,0,0,5,,,,,,,,,4,,,,60,82
69663,control_change,5,0,3,,,,,,,,,2,11,86,,,
69663,note_on,0,0,3,,,,,,,,,2,,,,65,76
69663,note_on,0,0,3,,,,,,,,,2,,,,69,76
69664,note_on,0,0,10,,,,,,,,,6,,,,48,52
69664,note_on,0,0,10,,,,,,,,,6,,,,51,52
69664,control_change,5,0,10,,,,,,,,,6,11,77,,,
69665,control_change,5,0,4,,,,,,,,,3,11,86,,,
69665,note_on,0,0,4,,,,,,,,,3,,,,41,95
69665,note_on,0,0,4,,,,,,,,,3,,,,53,95
69665,control_change,0,0,6,,,,,,,,,5,11,62,,,
69665,note_on,5,0,6,,,,,,,,,5,,,,53,82
69665,note_on,60,0,11,,,,,,,,,13,,,,41,43
69668,note_on,60,0,12,,,,,,,,,14,,,,29,36
69673,control_change,13,0,7,,,,,,,,,10,11,74,,,
69675,control_change,13,0,9,,,,,,,,,12,11,74,,,
69675,control_change,13,0,8,,,,,,,,,11,11,74,,,
69677,control_change,13,0,10,,,,,,,,,6,11,74,,,
69678,control_change,18,0,1,,,,,,,,,0,11,83,,,
69680,control_change,18,0,2,,,,,,,,,1,11,62,,,
69681,control_change,18,0,3,,,,,,,,,2,11,85,,,
69681,control_change,18,0,5,,,,,,,,,4,11,60,,,
69683,control_change,18,0,6,,,,,,,,,5,11,60,,,
69683,control_change,18,0,4,,,,,,,,,3,11,85,,,
69687,control_change,14,0,7,,,,,,,,,10,11,71,,,
69689,control_change,14,0,9,,,,,,,,,12,11,71,,,
69689,control_change,14,0,8,,,,,,,,,11,11,71,,,
69691,control_change,14,0,10,,,,,,,,,6,11,71,,,
69692,note_on,3,0,9,,,,,,,,,12,,,,57,0
69692,note_on,3,0,8,,,,,,,,,11,,,,63,0
69692,note_on,0,0,8,,,,,,,,,11,,,,57,78
69692,note_on,0,0,9,,,,,,,,,12,,,,53,76
69694,note_on,0,0,10,,,,,,,,,6,,,,48,52
69694,note_on,0,0,10,,,,,,,,,6,,,,48,0
69694,note_on,3,0,10,,,,,,,,,6,,,,51,0
69694,note_on,0,0,10,,,,,,,,,6,,,,41,52
69696,control_change,18,0,1,,,,,,,,,0,11,81,,,
69698,control_change,18,0,2,,,,,,,,,1,11,61,,,
69699,control_change,18,0,5,,,,,,,,,4,11,58,,,
69699,control_change,18,0,3,,,,,,,,,2,11,83,,,
69700,control_change,13,0,7,,,,,,,,,10,11,68,,,
69701,control_change,18,0,6,,,,,,,,,5,11,58,,,
69701,control_change,18,0,4,,,,,,,,,3,11,83,,,
69702,control_change,10,0,9,,,,,,,,,12,11,68,,,
69702,control_change,10,0,8,,,,,,,,,11,11,68,,,
69704,control_change,10,0,10,,,,,,,,,6,11,68,,,
69714,control_change,18,0,1,,,,,,,,,0,11,80,,,
69714,control_change,14,0,7,,,,,,,,,10,11,65,,,
69716,control_change,14,0,8,,,,,,,,,11,11,65,,,
69716,control_change,18,0,2,,,,,,,,,1,11,59,,,
69716,control_change,14,0,9,,,,,,,,,12,11,65,,,
69717,note_on,0,0,2,,,,,,,,,1,,,,77,0
69717,note_on,1,0,2,,,,,,,,,1,,,,75,0
69717,control_change,18,0,3,,,,,,,,,2,11,81,,,
69717,control_change,18,0,5,,,,,,,,,4,11,56,,,
69718,control_change,14,0,10,,,,,,,,,6,11,65,,,
69718,note_on,0,0,3,,,,,,,,,2,,,,65,0
69718,note_on,1,0,3,,,,,,,,,2,,,,69,0
69718,note_on,1,0,5,,,,,,,,,4,,,,60,0
69719,control_change,18,0,6,,,,,,,,,5,11,56,,,
69719,control_change,18,0,4,,,,,,,,,3,11,81,,,
69720,note_on,0,0,1,,,,,,,,,0,,,,75,96
69720,note_on,0,0,1,,,,,,,,,0,,,,77,0
69720,note_on,0,0,1,,,,,,,,,0,,,,87,96
69720,note_on,6,0,1,,,,,,,,,0,,,,89,0
69720,set_tempo,60,1,0,,,,,,937500,,,,,,,,
69720,note_on,0,0,7,,,,,,,,,10,,,,75,103
69720,note_on,1,0,6,,,,,,,,,5,,,,53,0
69720,note_on,6,0,7,,,,,,,,,10,,,,77,0
69722,note_on,6,0,9,,,,,,,,,12,,,,53,0
69722,note_on,0,0,9,,,,,,,,,12,,,,57,76
69722,note_on,5,0,2,,,,,,,,,1,,,,77,87
69722,note_on,0,0,2,,,,,,,,,1,,,,75,87
69722,note_on,6,0,8,,,,,,,,,11,,,,57,0
69722,note_on,0,0,8,,,,,,,,,11,,,,63,78
69723,note_on,5,0,3,,,,,,,,,2,,,,65,76
69723,note_on,5,0,5,,,,,,,,,4,,,,60,82
69723,note_on,0,0,3,,,,,,,,,2,,,,69,76
69724,note_on,6,0,10,,,,,,,,,6,,,,48,0
69724,note_on,0,0,10,,,,,,,,,6,,,,41,0
69724,note_on,0,0,10,,,,,,,,,6,,,,51,52
69724,note_on,0,0,10,,,,,,,,,6,,,,48,52
69725,note_on,5,0,6,,,,,,,,,5,,,,53,82
69727,control_change,7,0,7,,,,,,,,,10,11,62,,,
69729,control_change,7,0,9,,,,,,,,,12,11,62,,,
69729,control_change,7,0,8,,,,,,,,,11,11,62,,,
69731,control_change,7,0,10,,,,,,,,,6,11,62,,,
69732,control_change,12,0,1,,,,,,,,,0,11,78,,,
69734,control_change,12,0,2,,,,,,,,,1,11,57,,,
69735,control_change,12,0,5,,,,,,,,,4,11,54,,,
69735,control_change,12,0,3,,,,,,,,,2,11,80,,,
69737,control_change,18,0,4,,,,,,,,,3,11,80,,,
69737,control_change,12,0,6,,,,,,,,,5,11,54,,,
69741,control_change,14,0,7,,,,,,,,,10,11,59,,,
69743,control_change,14,0,8,,,,,,,,,11,11,59,,,
69743,control_change,14,0,9,,,,,,,,,12,11,59,,,
69745,control_change,14,0,10,,,,,,,,,6,11,59,,,
69750,control_change,18,0,1,,,,,,,,,0,11,76,,,
69752,note_on,9,0,9,,,,,,,,,12,,,,57,0
69752,note_on,0,0,9,,,,,,,,,12,,,,53,76
69752,control_change,18,0,2,,,,,,,,,1,11,55,,,
69752,note_on,0,0,8,,,,,,,,,11,,,,57,78
69752,note_on,9,0,8,,,,,,,,,11,,,,63,0
69753,control_change,18,0,5,,,,,,,,,4,11,52,,,
69753,control_change,18,0,3,,,,,,,,,2,11,78,,,
69754,note_on,0,0,10,,,,,,,,,6,,,,41,52
69754,note_on,0,0,10,,,,,,,,,6,,,,51,0
69754,note_on,9,0,10,,,,,,,,,6,,,,48,0
69754,control_change,13,0,7,,,,,,,,,10,11,56,,,
69754,note_on,0,0,10,,,,,,,,,6,,,,48,52
69755,control_change,18,0,6,,,,,,,,,5,11,52,,,
69755,control_change,18,0,4,,,,,,,,,3,11,78,,,
69756,control_change,4,0,9,,,,,,,,,12,11,56,,,
69756,control_change,4,0,8,,,,,,,,,11,11,56,,,
69758,control_change,4,0,10,,,,,,,,,6,11,56,,,
69768,control_change,18,0,1,,,,,,,,,0,11,75,,,
69768,control_change,14,0,7,,,,,,,,,10,11,53,,,
69770,control_change,14,0,9,,,,,,,,,12,11,53,,,
69770,control_change,18,0,2,,,,,,,,,1,11,54,,,
69770,control_change,14,0,8,,,,,,,,,11,11,53,,,
69771,control_change,18,0,3,,,,,,,,,2,11,76,,,
69771,control_change,18,0,5,,,,,,,,,4,11,50,,,
69772,control_change,14,0,10,,,,,,,,,6,11,53,,,
69773,control_change,18,0,4,,,,,,,,,3,11,76,,,
69773,control_change,18,0,6,,,,,,,,,5,11,50,,,
69775,note_on,7,0,7,,,,,,,,,10,,,,75,0
69775,note_on,0,0,1,,,,,,,,,0,,,,87,0
69775,note_on,7,0,1,,,,,,,,,0,,,,75,0
69777,note_on,7,0,2,,,,,,,,,1,,,,75,0
69777,note_on,0,0,2,,,,,,,,,1,,,,77,0
69778,note_on,0,0,3,,,,,,,,,2,,,,65,0
69778,note_on,7,0,3,,,,,,,,,2,,,,69,0
69778,note_on,7,0,5,,,,,,,,,4,,,,60,0
69780,note_on,0,0,1,,,,,,,,,0,,,,72,96
69780,note_on,5,0,7,,,,,,,,,10,,,,72,103
69780,note_on,5,0,1,,,,,,,,,0,,,,84,96
69780,note_on,7,0,6,,,,,,,,,5,,,,53,0
69781,control_change,1,0,7,,,,,,,,,10,11,50,,,
69782,note_on,12,0,8,,,,,,,,,11,,,,57,0
69782,note_on,12,0,9,,,,,,,,,12,,,,53,0
69782,note_on,0,0,2,,,,,,,,,1,,,,77,87
69782,note_on,5,0,2,,,,,,,,,1,,,,75,87
69782,note_on,0,0,8,,,,,,,,,11,,,,63,78
69782,note_on,0,0,9,,,,,,,,,12,,,,57,76
69783,note_on,5,0,3,,,,,,,,,2,,,,69,76
69783,note_on,0,0,3,,,,,,,,,2,,,,65,76
69783,note_on,5,0,5,,,,,,,,,4,,,,60,82
69783,control_change,1,0,8,,,,,,,,,11,11,50,,,
69783,control_change,1,0,9,,,,,,,,,12,11,50,,,
69784,note_on,12,0,10,,,,,,,,,6,,,,48,0
69784,note_on,0,0,10,,,,,,,,,6,,,,41,0
69784,note_on,0,0,10,,,,,,,,,6,,,,48,52
69784,note_on,0,0,10,,,,,,,,,6,,,,51,52
69785,note_on,5,0,6,,,,,,,,,5,,,,53,82
69785,note_on,120,0,11,,,,,,,,,13,,,,41,0
69785,control_change,1,0,10,,,,,,,,,6,11,50,,,
69786,control_change,6,0,1,,,,,,,,,0,11,73,,,
69788,control_change,6,0,2,,,,,,,,,1,11,52,,,
69788,note_on,120,0,12,,,,,,,,,14,,,,29,0
69789,control_change,6,0,5,,,,,,,,,4,11,48,,,
69789,control_change,6,0,3,,,,,,,,,2,11,75,,,
69791,control_change,6,0,6,,,,,,,,,5,11,48,,,
69791,control_change,18,0,4,,,,,,,,,3,11,75,,,
69795,control_change,14,0,7,,,,,,,,,10,11,47,,,
69797,control_change,14,0,9,,,,,,,,,12,11,47,,,
69797,control_change,14,0,8,,,,,,,,,11,11,47,,,
69799,control_change,14,0,10,,,,,,,,,6,11,47,,,
69804,control_change,18,0,1,,,,,,,,,0,11,71,,,
69806,control_change,18,0,2,,,,,,,,,1,11,51,,,
69807,control_change,18,0,5,,,,,,,,,4,11,46,,,
69807,control_change,18,0,3,,,,,,,,,2,11,73,,,
69808,control_change,13,0,7,,,,,,,,,10,11,44,,,
69809,control_change,18,0,6,,,,,,,,,5,11,46,,,
69809,control_change,18,0,4,,,,,,,,,3,11,73,,,
69810,note_on,6,0,1,,,,,,,,,0,,,,72,0
69810,note_on,0,0,1,,,,,,,,,0,,,,84,0
69810,note_on,0,0,1,,,,,,,,,0,,,,74,96
69810,note_on,0,0,1,,,,,,,,,0,,,,86,96
69810,control_change,13,0,8,,,,,,,,,11,11,44,,,
69810,note_on,0,0,7,,,,,,,,,10,,,,74,103
69810,control_change,13,0,9,,,,,,,,,12,11,44,,,
69810,note_on,2,0,7,,,,,,,,,10,,,,72,0
69812,control_change,13,0,10,,,,,,,,,6,11,44,,,
69812,note_on,0,0,8,,,,,,,,,11,,,,57,78
69812,note_on,0,0,9,,,,,,,,,12,,,,53,76
69812,note_on,2,0,8,,,,,,,,,11,,,,63,0
69812,note_on,2,0,9,,,,,,,,,12,,,,57,0
69814,note_on,0,0,10,,,,,,,,,6,,,,41,52
69814,note_on,0,0,10,,,,,,,,,6,,,,48,52
69814,note_on,2,0,10,,,,,,,,,6,,,,51,0
69814,note_on,0,0,10,,,,,,,,,6,,,,48,0
69822,control_change,12,0,1,,,,,,,,,0,11,70,,,
69822,control_change,12,0,7,,,,,,,,,10,11,41,,,
69824,control_change,18,0,2,,,,,,,,,1,11,49,,,
69824,control_change,12,0,9,,,,,,,,,12,11,41,,,
69824,control_change,12,0,8,,,,,,,,,11,11,41,,,
69825,set_tempo,105,1,0,,,,,,1153846,,,,,,,,
69825,control_change,18,0,3,,,,,,,,,2,11,71,,,
69825,control_change,18,0,5,,,,,,,,,4,11,44,,,
69826,control_change,12,0,10,,,,,,,,,6,11,41,,,
69827,control_change,18,0,4,,,,,,,,,3,11,71,,,
69827,control_change,18,0,6,,,,,,,,,5,11,44,,,
69835,note_on,13,0,1,,,,,,,,,0,,,,86,0
69835,note_on,13,0,7,,,,,,,,,10,,,,74,0
69835,note_on,0,0,1,,,,,,,,,0,,,,74,0
69835,control_change,0,0,7,,,,,,,,,10,11,38,,,
69837,note_on,13,0,8,,,,,,,,,11,,,,57,0
69837,control_change,0,0,9,,,,,,,,,12,11,38,,,
69837,note_on,13,0,9,,,,,,,,,12,,,,53,0
69837,control_change,0,0,8,,,,,,,,,11,11,38,,,
69837,note_on,13,0,2,,,,,,,,,1,,,,77,0
69837,note_on,0,0,2,,,,,,,,,1,,,,75,0
69838,note_on,0,0,3,,,,,,,,,2,,,,69,0
69838,note_on,13,0,3,,,,,,,,,2,,,,65,0
69838,note_on,13,0,5,,,,,,,,,4,,,,60,0
69839,note_on,13,0,10,,,,,,,,,6,,,,48,0
69839,control_change,0,0,10,,,,,,,,,6,11,38,,,
69839,note_on,0,0,10,,,,,,,,,6,,,,41,0
69840,note_on,0,0,4,,,,,,,,,3,,,,41,0
69840,note_on,0,0,1,,,,,,,,,0,,,,82,74
69840,control_change,0,0,1,,,,,,,,,0,11,68,,,
69840,note_on,5,0,1,,,,,,,,,0,,,,70,74
69840,note_on,5,0,7,,,,,,,,,10,,,,70,71
69840,set_tempo,15,1,0,,,,,,1034483,,,,,,,,
69840,note_on,13,0,4,,,,,,,,,3,,,,53,0
69840,note_on,13,0,6,,,,,,,,,5,,,,53,0
69842,note_on,5,0,9,,,,,,,,,12,,,,58,76
69842,note_on,0,0,2,,,,,,,,,1,,,,70,63
69842,note_on,0,0,2,,,,,,,,,1,,,,74,63
69842,note_on,5,0,8,,,,,,,,,11,,,,62,78
69842,control_change,5,0,2,,,,,,,,,1,11,47,,,
69843,note_on,0,0,3,,,,,,,,,2,,,,62,54
69843,control_change,0,0,3,,,,,,,,,2,11,47,,,
69843,control_change,5,0,5,,,,,,,,,4,11,42,,,
69843,note_on,5,0,3,,,,,,,,,2,,,,70,54
69843,note_on,0,0,5,,,,,,,,,4,,,,58,53
69844,note_on,5,0,10,,,,,,,,,6,,,,43,62
69845,note_on,0,0,4,,,,,,,,,3,,,,43,95
69845,control_change,5,0,4,,,,,,,,,3,11,47,,,
69845,control_change,0,0,6,,,,,,,,,5,11,42,,,
69845,note_on,5,0,6,,,,,,,,,5,,,,50,53
69845,note_on,60,0,11,,,,,,,,,13,,,,43,43
69845,note_on,0,0,4,,,,,,,,,3,,,,55,95
69848,note_on,60,0,12,,,,,,,,,14,,,,31,36
69872,note_on,30,0,8,,,,,,,,,11,,,,62,0
69872,note_on,30,0,9,,,,,,,,,12,,,,58,0
69872,note_on,0,0,9,,,,,,,,,12,,,,55,76
69872,note_on,0,0,8,,,,,,,,,11,,,,58,78
69874,note_on,0,0,10,,,,,,,,,6,,,,62,62
69874,note_on,30,0,10,,,,,,,,,6,,,,43,0
69900,note_on,55,0,4,,,,,,,,,3,,,,55,0
69900,set_tempo,60,1,0,,,,,,937500,,,,,,,,
69900,control_change,60,0,7,,,,,,,,,10,11,47,,,
69900,note_on,0,0,4,,,,,,,,,3,,,,43,0
69902,control_change,0,0,9,,,,,,,,,12,11,47,,,
69902,note_on,0,0,9,,,,,,,,,12,,,,62,76
69902,note_on,0,0,8,,,,,,,,,11,,,,74,78
69902,control_change,0,0,8,,,,,,,,,11,11,47,,,
69902,note_on,30,0,8,,,,,,,,,11,,,,58,0
69902,note_on,30,0,9,,,,,,,,,12,,,,55,0
69904,control_change,0,0,10,,,,,,,,,6,11,47,,,
69904,note_on,30,0,10,,,,,,,,,6,,,,62,0
69904,note_on,0,0,10,,,,,,,,,6,,,,58,62
69905,note_on,5,0,4,,,,,,,,,3,,,,62,82
69905,note_on,0,0,4,,,,,,,,,3,,,,58,82
69916,control_change,16,0,7,,,,,,,,,10,11,48,,,
69918,control_change,16,0,9,,,,,,,,,12,11,48,,,
69918,control_change,16,0,8,,,,,,,,,11,11,48,,,
69920,control_change,16,0,10,,,,,,,,,6,11,48,,,
69932,note_on,0,0,8,,,,,,,,,11,,,,70,78
69932,note_on,0,0,9,,,,,,,,,12,,,,58,76
69932,note_on,14,0,9,,,,,,,,,12,,,,62,0
69932,note_on,14,0,8,,,,,,,,,11,,,,74,0
69933,control_change,17,0,7,,,,,,,,,10,11,49,,,
69934,note_on,0,0,10,,,,,,,,,6,,,,62,62
69934,note_on,14,0,10,,,,,,,,,6,,,,58,0
69935,control_change,3,0,9,,,,,,,,,12,11,49,,,
69935,control_change,3,0,8,,,,,,,,,11,11,49,,,
69937,control_change,3,0,10,,,,,,,,,6,11,49,,,
69949,control_change,16,0,7,,,,,,,,,10,11,50,,,
69951,control_change,16,0,8,,,,,,,,,11,11,50,,,
69951,control_change,16,0,9,,,,,,,,,12,11,50,,,
69953,control_change,16,0,10,,,,,,,,,6,11,50,,,
69960,note_on,0,0,4,,,,,,,,,3,,,,62,0
69960,note_on,11,0,7,,,,,,,,,10,,,,70,0
69960,note_on,0,0,1,,,,,,,,,0,,,,70,0
69960,note_on,120,0,1,,,,,,,,,0,,,,82,0
69960,note_on,55,0,4,,,,,,,,,3,,,,58,0
69962,note_on,0,0,2,,,,,,,,,1,,,,74,0
69962,note_on,0,0,8,,,,,,,,,11,,,,74,78
69962,note_on,11,0,8,,,,,,,,,11,,,,70,0
69962,note_on,11,0,9,,,,,,,,,12,,,,58,0
69962,note_on,0,0,9,,,,,,,,,12,,,,62,76
69962,note_on,120,0,2,,,,,,,,,1,,,,70,0
69963,note_on,120,0,5,,,,,,,,,4,,,,58,0
69963,note_on,0,0,3,,,,,,,,,2,,,,70,0
69963,note_on,120,0,3,,,,,,,,,2,,,,62,0
69964,note_on,11,0,10,,,,,,,,,6,,,,62,0
69964,note_on,0,0,10,,,,,,,,,6,,,,58,62
69965,note_on,120,0,6,,,,,,,,,5,,,,50,0
69965,note_on,0,0,4,,,,,,,,,3,,,,62,82
69965,note_on,120,0,11,,,,,,,,,13,,,,43,0
69965,note_on,5,0,4,,,,,,,,,3,,,,58,82
69966,control_change,6,0,7,,,,,,,,,10,11,51,,,
69968,note_on,120,0,12,,,,,,,,,14,,,,31,0
69968,control_change,6,0,8,,,,,,,,,11,11,51,,,
69968,control_change,6,0,9,,,,,,,,,12,11,51,,,
69970,control_change,6,0,10,,,,,,,,,6,11,51,,,
69982,control_change,16,0,7,,,,,,,,,10,11,52,,,
69984,control_change,16,0,9,,,,,,,,,12,11,52,,,
69984,control_change,16,0,8,,,,,,,,,11,11,52,,,
69986,control_change,16,0,10,,,,,,,,,6,11,52,,,
69992,note_on,0,0,8,,,,,,,,,11,,,,70,78
69992,note_on,8,0,9,,,,,,,,,12,,,,62,0
69992,note_on,8,0,8,,,,,,,,,11,,,,74,0
69992,note_on,0,0,9,,,,,,,,,12,,,,58,76
69994,note_on,8,0,10,,,,,,,,,6,,,,58,0
69994,note_on,0,0,10,,,,,,,,,6,,,,62,62
69999,control_change,17,0,7,,,,,,,,,10,11,53,,,
70001,control_change,9,0,8,,,,,,,,,11,11,53,,,
70001,control_change,9,0,9,,,,,,,,,12,11,53,,,
70003,control_change,9,0,10,,,,,,,,,6,11,53,,,
70015,control_change,16,0,7,,,,,,,,,10,11,54,,,
70017,control_change,16,0,9,,,,,,,,,12,11,54,,,
70017,control_change,16,0,8,,,,,,,,,11,11,54,,,
70019,control_change,16,0,10,,,,,,,,,6,11,54,,,
70020,set_tempo,120,1,0,,,,,,1034483,,,,,,,,
70022,note_on,5,0,8,,,,,,,,,11,,,,70,0
70022,note_on,0,0,8,,,,,,,,,11,,,,75,78
70022,note_on,0,0,9,,,,,,,,,12,,,,63,76
70022,note_on,5,0,9,,,,,,,,,12,,,,58,0
70024,note_on,5,0,10,,,,,,,,,6,,,,62,0
70024,note_on,0,0,10,,,,,,,,,6,,,,60,62
70025,note_on,0,0,4,,,,,,,,,3,,,,60,82
70025,note_on,0,0,4,,,,,,,,,3,,,,58,0
70025,note_on,60,0,4,,,,,,,,,3,,,,62,0
70025,note_on,0,0,4,,,,,,,,,3,,,,63,82
70032,control_change,17,0,7,,,,,,,,,10,11,55,,,
70034,control_change,12,0,8,,,,,,,,,11,11,55,,,
70034,control_change,12,0,9,,,,,,,,,12,11,55,,,
70036,control_change,12,0,10,,,,,,,,,6,11,55,,,
70048,control_change,16,0,7,,,,,,,,,10,11,56,,,
70050,control_change,16,0,9,,,,,,,,,12,11,56,,,
70050,control_change,16,0,8,,,,,,,,,11,11,56,,,
70052,control_change,16,0,10,,,,,,,,,6,11,56,,,
70052,note_on,2,0,9,,,,,,,,,12,,,,63,0
70052,note_on,0,0,9,,,,,,,,,12,,,,60,76
70052,note_on,0,0,8,,,,,,,,,11,,,,72,78
70052,note_on,2,0,8,,,,,,,,,11,,,,75,0
70054,note_on,2,0,10,,,,,,,,,6,,,,60,0
70054,note_on,0,0,10,,,,,,,,,6,,,,63,62
70065,control_change,17,0,7,,,,,,,,,10,11,57,,,
70067,control_change,15,0,9,,,,,,,,,12,11,57,,,
70067,control_change,15,0,8,,,,,,,,,11,11,57,,,
70069,control_change,15,0,10,,,,,,,,,6,11,57,,,
70080,note_on,15,0,7,,,,,,,,,10,,,,70,93
70080,set_tempo,60,1,0,,,,,,937500,,,,,,,,
70081,control_change,1,0,7,,,,,,,,,10,11,58,,,
70082,note_on,15,0,8,,,,,,,,,11,,,,72,0
70082,note_on,15,0,9,,,,,,,,,12,,,,60,0
70082,note_on,0,0,9,,,,,,,,,12,,,,62,76
70082,note_on,0,0,8,,,,,,,,,11,,,,74,78
70083,control_change,120,0,3,,,,,,,,,2,11,47,,,
70083,note_on,0,0,3,,,,,,,,,2,,,,70,71
70083,note_on,0,0,3,,,,,,,,,2,,,,74,71
70083,control_change,1,0,9,,,,,,,,,12,11,58,,,
70083,control_change,1,0,8,,,,,,,,,11,11,58,,,
70084,note_on,0,0,10,,,,,,,,,6,,,,58,62
70084,note_on,15,0,10,,,,,,,,,6,,,,63,0
70085,note_on,0,0,4,,,,,,,,,3,,,,60,0
70085,control_change,1,0,10,,,,,,,,,6,11,58,,,
70085,note_on,60,0,4,,,,,,,,,3,,,,63,0
70085,control_change,0,0,4,,,,,,,,,3,11,47,,,
70085,note_on,0,0,4,,,,,,,,,3,,,,62,82
70085,note_on,0,0,4,,,,,,,,,3,,,,58,82
70098,control_change,17,0,7,,,,,,,,,10,11,59,,,
70100,control_change,17,0,9,,,,,,,,,12,11,59,,,
70100,control_change,17,0,8,,,,,,,,,11,11,59,,,
70102,control_change,17,0,10,,,,,,,,,6,11,59,,,
70102,control_change,19,0,3,,,,,,,,,2,11,49,,,
70104,control_change,19,0,4,,,,,,,,,3,11,49,,,
70110,note_on,12,0,7,,,,,,,,,10,,,,70,0
70110,note_on,0,0,7,,,,,,,,,10,,,,72,115
70112,note_on,12,0,9,,,,,,,,,12,,,,62,0
70112,note_on,0,0,8,,,,,,,,,11,,,,70,78
70112,note_on,12,0,8,,,,,,,,,11,,,,74,0
70112,note_on,0,0,9,,,,,,,,,12,,,,58,76
70114,control_change,4,0,7,,,,,,,,,10,11,60,,,
70114,note_on,12,0,10,,,,,,,,,6,,,,58,0
70114,note_on,0,0,10,,,,,,,,,6,,,,62,62
70116,control_change,4,0,9,,,,,,,,,12,11,60,,,
70116,control_change,4,0,8,,,,,,,,,11,11,60,,,
70118,control_change,4,0,10,,,,,,,,,6,11,60,,,
70121,control_change,19,0,3,,,,,,,,,2,11,51,,,
70123,control_change,19,0,4,,,,,,,,,3,11,51,,,
70131,control_change,17,0,7,,,,,,,,,10,11,61,,,
70133,control_change,17,0,8,,,,,,,,,11,11,61,,,
70133,control_change,17,0,9,,,,,,,,,12,11,61,,,
70135,control_change,17,0,10,,,,,,,,,6,11,61,,,
70138,note_on,0,0,3,,,,,,,,,2,,,,74,0
70138,note_on,17,0,3,,,,,,,,,2,,,,70,0
70140,control_change,2,0,3,,,,,,,,,2,11,52,,,
70140,note_on,0,0,7,,,,,,,,,10,,,,74,115
70140,note_on,9,0,7,,,,,,,,,10,,,,72,0
70142,control_change,19,0,4,,,,,,,,,3,11,52,,,
70142,note_on,0,0,9,,,,,,,,,12,,,,62,76
70142,note_on,0,0,8,,,,,,,,,11,,,,74,78
70142,note_on,9,0,8,,,,,,,,,11,,,,70,0
70142,note_on,9,0,9,,,,,,,,,12,,,,58,0
70143,note_on,3,0,3,,,,,,,,,2,,,,70,71
70143,note_on,0,0,3,,,,,,,,,2,,,,74,71
70144,note_on,9,0,10,,,,,,,,,6,,,,62,0
70144,note_on,0,0,10,,,,,,,,,6,,,,58,62
70145,note_on,3,0,4,,,,,,,,,3,,,,62,0
70145,note_on,0,0,4,,,,,,,,,3,,,,58,0
70147,control_change,7,0,7,,,,,,,,,10,11,62,,,
70149,control_change,7,0,8,,,,,,,,,11,11,62,,,
70149,control_change,7,0,9,,,,,,,,,12,11,62,,,
70151,control_change,7,0,10,,,,,,,,,6,11,62,,,
70159,control_change,16,0,3,,,,,,,,,2,11,54,,,
70164,control_change,17,0,7,,,,,,,,,10,11,63,,,
70166,control_change,17,0,8,,,,,,,,,11,11,63,,,
70166,control_change,17,0,9,,,,,,,,,12,11,63,,,
70168,control_change,17,0,10,,,,,,,,,6,11,63,,,
70170,note_on,0,0,7,,,,,,,,,10,,,,72,115
70170,note_on,6,0,7,,,,,,,,,10,,,,74,0
70172,note_on,0,0,8,,,,,,,,,11,,,,70,78
70172,note_on,6,0,8,,,,,,,,,11,,,,74,0
70172,note_on,0,0,9,,,,,,,,,12,,,,58,76
70172,note_on,6,0,9,,,,,,,,,12,,,,62,0
70174,note_on,0,0,10,,,,,,,,,6,,,,62,62
70174,note_on,6,0,10,,,,,,,,,6,,,,58,0
70179,control_change,20,0,3,,,,,,,,,2,11,55,,,
70180,control_change,10,0,7,,,,,,,,,10,11,64,,,
70182,control_change,10,0,9,,,,,,,,,12,11,64,,,
70182,control_change,10,0,8,,,,,,,,,11,11,64,,,
70184,control_change,10,0,10,,,,,,,,,6,11,64,,,
70195,note_on,15,0,7,,,,,,,,,10,,,,72,0
70197,control_change,2,0,7,,,,,,,,,10,11,65,,,
70198,control_change,19,0,3,,,,,,,,,2,11,57,,,
70199,control_change,17,0,8,,,,,,,,,11,11,65,,,
70199,control_change,17,0,9,,,,,,,,,12,11,65,,,
70200,set_tempo,120,1,0,,,,,,1034483,,,,,,,,
70200,note_on,3,0,7,,,,,,,,,10,,,,72,115
70200,note_on,0,0,1,,,,,,,,,0,,,,79,83
70200,note_on,240,0,1,,,,,,,,,0,,,,82,83
70201,control_change,17,0,10,,,,,,,,,6,11,65,,,
70202,note_on,3,0,8,,,,,,,,,11,,,,70,0
70202,note_on,3,0,9,,,,,,,,,12,,,,58,0
70202,note_on,0,0,2,,,,,,,,,1,,,,70,82
70202,note_on,0,0,2,,,,,,,,,1,,,,74,82
70202,control_change,240,0,2,,,,,,,,,1,11,57,,,
70203,note_on,0,0,3,,,,,,,,,2,,,,75,71
70203,note_on,0,0,3,,,,,,,,,2,,,,70,0
70203,note_on,5,0,3,,,,,,,,,2,,,,74,0
70203,note_on,0,0,3,,,,,,,,,2,,,,72,71
70204,note_on,3,0,10,,,,,,,,,6,,,,62,0
70204,control_change,4,0,1,,,,,,,,,0,11,58,,,
70205,note_on,240,0,11,,,,,,,,,13,,,,55,43
70208,note_on,240,0,12,,,,,,,,,14,,,,43,36
70213,control_change,13,0,7,,,,,,,,,10,11,66,,,
70215,control_change,13,0,8,,,,,,,,,11,11,66,,,
70215,control_change,13,0,9,,,,,,,,,12,11,66,,,
70217,control_change,14,0,3,,,,,,,,,2,11,59,,,
70217,control_change,13,0,10,,,,,,,,,6,11,66,,,
70224,control_change,20,0,1,,,,,,,,,0,11,60,,,
70226,control_change,24,0,2,,,,,,,,,1,11,60,,,
70230,control_change,17,0,7,,,,,,,,,10,11,67,,,
70232,control_change,17,0,8,,,,,,,,,11,11,67,,,
70232,control_change,17,0,9,,,,,,,,,12,11,67,,,
70234,control_change,17,0,10,,,,,,,,,6,11,67,,,
70236,control_change,19,0,3,,,,,,,,,2,11,61,,,
70243,control_change,19,0,1,,,,,,,,,0,11,61,,,
70245,control_change,19,0,2,,,,,,,,,1,11,61,,,
70246,control_change,16,0,7,,,,,,,,,10,11,68,,,
70248,control_change,16,0,9,,,,,,,,,12,11,68,,,
70248,control_change,16,0,8,,,,,,,,,11,11,68,,,
70250,control_change,16,0,10,,,,,,,,,6,11,68,,,
70255,control_change,19,0,3,,,,,,,,,2,11,62,,,
70260,note_on,14,0,7,,,,,,,,,10,,,,72,0
70260,set_tempo,60,1,0,,,,,,937500,,,,,,,,
70260,note_on,0,0,7,,,,,,,,,10,,,,70,100
70262,control_change,19,0,1,,,,,,,,,0,11,63,,,
70262,note_on,14,0,8,,,,,,,,,11,,,,70,78
70262,note_on,14,0,9,,,,,,,,,12,,,,70,76
70263,control_change,3,0,7,,,,,,,,,10,11,69,,,
70263,note_on,0,0,3,,,,,,,,,2,,,,72,0
70263,note_on,0,0,3,,,,,,,,,2,,,,74,71
70263,note_on,0,0,3,,,,,,,,,2,,,,70,71
70263,note_on,8,0,3,,,,,,,,,2,,,,75,0
70264,control_change,19,0,2,,,,,,,,,1,11,63,,,
70264,note_on,14,0,10,,,,,,,,,6,,,,55,62
70265,control_change,3,0,8,,,,,,,,,11,11,69,,,
70265,note_on,0,0,4,,,,,,,,,3,,,,55,82
70265,control_change,120,0,4,,,,,,,,,3,11,62,,,
70265,note_on,0,0,4,,,,,,,,,3,,,,58,82
70265,control_change,3,0,9,,,,,,,,,12,11,69,,,
70267,control_change,3,0,10,,,,,,,,,6,11,69,,,
70275,control_change,12,0,3,,,,,,,,,2,11,64,,,
70279,control_change,16,0,7,,,,,,,,,10,11,70,,,
70281,control_change,16,0,8,,,,,,,,,11,11,70,,,
70281,control_change,16,0,9,,,,,,,,,12,11,70,,,
70281,control_change,19,0,1,,,,,,,,,0,11,65,,,
70283,control_change,19,0,2,,,,,,,,,1,11,65,,,
70283,control_change,16,0,10,,,,,,,,,6,11,70,,,
70286,control_change,21,0,4,,,,,,,,,3,11,65,,,
70292,note_on,11,0,9,,,,,,,,,12,,,,70,0
70292,note_on,0,0,9,,,,,,,,,12,,,,67,76
70292,note_on,11,0,8,,,,,,,,,11,,,,70,0
70292,note_on,0,0,8,,,,,,,,,11,,,,67,78
70294,note_on,11,0,10,,,,,,,,,6,,,,55,0
70294,note_on,0,0,10,,,,,,,,,6,,,,58,62
70294,control_change,19,0,3,,,,,,,,,2,11,65,,,
70296,control_change,17,0,7,,,,,,,,,10,11,71,,,
70298,control_change,6,0,8,,,,,,,,,11,11,71,,,
70298,control_change,6,0,9,,,,,,,,,12,11,71,,,
70300,control_change,6,0,10,,,,,,,,,6,11,71,,,
70300,control_change,19,0,1,,,,,,,,,0,11,66,,,
70302,control_change,19,0,2,,,,,,,,,1,11,66,,,
70305,control_change,19,0,4,,,,,,,,,3,11,66,,,
70312,control_change,16,0,7,,,,,,,,,10,11,72,,,
70313,control_change,19,0,3,,,,,,,,,2,11,67,,,
70314,control_change,16,0,9,,,,,,,,,12,11,72,,,
70314,control_change,16,0,8,,,,,,,,,11,11,72,,,
70316,control_change,16,0,10,,,,,,,,,6,11,72,,,
70320,note_on,15,0,4,,,,,,,,,3,,,,55,0
70320,note_on,0,0,4,,,,,,,,,3,,,,58,0
70320,note_on,20,0,1,,,,,,,,,0,,,,79,0
70320,note_on,0,0,1,,,,,,,,,0,,,,82,0
70322,note_on,0,0,9,,,,,,,,,12,,,,70,76
70322,note_on,0,0,8,,,,,,,,,11,,,,70,78
70322,note_on,8,0,8,,,,,,,,,11,,,,67,0
70322,note_on,8,0,9,,,,,,,,,12,,,,67,0
70322,note_on,20,0,2,,,,,,,,,1,,,,70,0
70322,note_on,0,0,2,,,,,,,,,1,,,,74,0
70323,note_on,0,0,3,,,,,,,,,2,,,,70,0
70323,note_on,10,0,3,,,,,,,,,2,,,,74,0
70324,note_on,8,0,10,,,,,,,,,6,,,,58,0
70324,note_on,0,0,10,,,,,,,,,6,,,,55,62
70325,note_on,5,0,4,,,,,,,,,3,,,,55,82
70325,note_on,120,0,11,,,,,,,,,13,,,,55,0
70325,note_on,0,0,4,,,,,,,,,3,,,,58,82
70325,control_change,0,0,4,,,,,,,,,3,11,68,,,
70328,note_on,120,0,12,,,,,,,,,14,,,,43,0
70329,control_change,17,0,7,,,,,,,,,10,11,73,,,
70331,control_change,9,0,9,,,,,,,,,12,11,73,,,
70331,control_change,9,0,8,,,,,,,,,11,11,73,,,
70332,control_change,9,0,3,,,,,,,,,2,11,69,,,
70333,control_change,9,0,10,,,,,,,,,6,11,73,,,
70344,control_change,19,0,4,,,,,,,,,3,11,70,,,
70345,control_change,16,0,7,,,,,,,,,10,11,74,,,
70347,control_change,16,0,9,,,,,,,,,12,11,74,,,
70347,control_change,16,0,8,,,,,,,,,11,11,74,,,
70349,control_change,16,0,10,,,,,,,,,6,11,74,,,
70351,control_change,19,0,3,,,,,,,,,2,11,70,,,
70352,note_on,0,0,8,,,,,,,,,11,,,,67,78
70352,note_on,5,0,8,,,,,,,,,11,,,,70,0
70352,note_on,0,0,9,,,,,,,,,12,,,,67,76
70352,note_on,5,0,9,,,,,,,,,12,,,,70,0
70354,note_on,0,0,10,,,,,,,,,6,,,,58,62
70354,note_on,5,0,10,,,,,,,,,6,,,,55,0
70362,control_change,17,0,7,,,,,,,,,10,11,75,,,
70363,control_change,19,0,4,,,,,,,,,3,11,71,,,
70364,control_change,12,0,9,,,,,,,,,12,11,75,,,
70364,control_change,12,0,8,,,,,,,,,11,11,75,,,
70366,control_change,12,0,10,,,,,,,,,6,11,75,,,
70371,control_change,20,0,3,,,,,,,,,2,11,72,,,
70378,control_change,16,0,7,,,,,,,,,10,11,76,,,
70380,control_change,16,0,9,,,,,,,,,12,11,76,,,
70380,set_tempo,120,1,0,,,,,,1034483,,,,,,,,
70380,note_on,2,0,7,,,,,,,,,10,,,,70,0
70380,control_change,16,0,8,,,,,,,,,11,11,76,,,
70382,note_on,2,0,9,,,,,,,,,12,,,,67,0
70382,note_on,0,0,9,,,,,,,,,12,,,,72,76
70382,control_change,19,0,4,,,,,,,,,3,11,73,,,
70382,note_on,2,0,8,,,,,,,,,11,,,,67,0
70382,control_change,16,0,10,,,,,,,,,6,11,76,,,
70382,note_on,0,0,8,,,,,,,,,11,,,,72,78
70384,note_on,2,0,10,,,,,,,,,6,,,,58,0
70384,note_on,0,0,10,,,,,,,,,6,,,,57,62
70385,note_on,0,0,4,,,,,,,,,3,,,,57,82
70385,note_on,0,0,4,,,,,,,,,3,,,,60,82
70385,note_on,0,0,4,,,,,,,,,3,,,,55,0
70385,note_on,3,0,4,,,,,,,,,3,,,,58,0
70390,control_change,19,0,3,,,,,,,,,2,11,74,,,
70395,control_change,15,0,7,,,,,,,,,10,11,77,,,
70397,control_change,15,0,8,,,,,,,,,11,11,77,,,
70397,control_change,15,0,9,,,,,,,,,12,11,77,,,
70399,control_change,15,0,10,,,,,,,,,6,11,77,,,
70401,control_change,16,0,4,,,,,,,,,3,11,75,,,
70409,control_change,19,0,3,,,,,,,,,2,11,76,,,
70411,control_change,16,0,7,,,,,,,,,10,11,78,,,
70412,note_on,0,0,8,,,,,,,,,11,,,,69,78
70412,note_on,15,0,8,,,,,,,,,11,,,,72,0
70412,note_on,0,0,9,,,,,,,,,12,,,,69,76
70412,note_on,15,0,9,,,,,,,,,12,,,,72,0
70413,control_change,1,0,8,,,,,,,,,11,11,78,,,
70413,control_change,1,0,9,,,,,,,,,12,11,78,,,
70414,note_on,0,0,10,,,,,,,,,6,,,,60,62
70414,note_on,15,0,10,,,,,,,,,6,,,,57,0
70415,control_change,1,0,10,,,,,,,,,6,11,78,,,
70421,control_change,20,0,4,,,,,,,,,3,11,76,,,
70428,control_change,17,0,7,,,,,,,,,10,11,79,,,
70428,control_change,19,0,3,,,,,,,,,2,11,77,,,
70430,control_change,17,0,9,,,,,,,,,12,11,79,,,
70430,control_change,17,0,8,,,,,,,,,11,11,79,,,
70432,control_change,17,0,10,,,,,,,,,6,11,79,,,
70440,set_tempo,60,1,0,,,,,,937500,,,,,,,,
70440,control_change,19,0,4,,,,,,,,,3,11,78,,,
70440,note_on,12,0,7,,,,,,,,,10,,,,79,93
70442,note_on,12,0,8,,,,,,,,,11,,,,69,0
70442,note_on,12,0,9,,,,,,,,,12,,,,69,0
70442,note_on,0,0,9,,,,,,,,,12,,,,70,76
70442,note_on,0,0,8,,,,,,,,,11,,,,70,78
70443,note_on,0,0,3,,,,,,,,,2,,,,67,71
70443,note_on,15,0,3,,,,,,,,,2,,,,70,71
70444,note_on,12,0,10,,,,,,,,,6,,,,60,0
70444,note_on,0,0,10,,,,,,,,,6,,,,55,62
70444,control_change,4,0,7,,,,,,,,,10,11,80,,,
70445,note_on,0,0,4,,,,,,,,,3,,,,60,0
70445,note_on,5,0,4,,,,,,,,,3,,,,57,0
70445,note_on,0,0,4,,,,,,,,,3,,,,55,82
70445,note_on,0,0,4,,,,,,,,,3,,,,58,82
70446,control_change,4,0,8,,,,,,,,,11,11,80,,,
70446,control_change,4,0,9,,,,,,,,,12,11,80,,,
70447,control_change,4,0,3,,,,,,,,,2,11,79,,,
70448,control_change,4,0,10,,,,,,,,,6,11,80,,,
70459,control_change,14,0,4,,,,,,,,,3,11,80,,,
70461,control_change,17,0,7,,,,,,,,,10,11,81,,,
70463,control_change,17,0,8,,,,,,,,,11,11,81,,,
70463,control_change,17,0,9,,,,,,,,,12,11,81,,,
70465,control_change,17,0,10,,,,,,,,,6,11,81,,,
70467,control_change,20,0,3,,,,,,,,,2,11,80,,,
70470,note_on,0,0,7,,,,,,,,,10,,,,81,115
70470,note_on,9,0,7,,,,,,,,,10,,,,79,0
70472,note_on,0,0,8,,,,,,,,,11,,,,67,78
70472,note_on,9,0,8,,,,,,,,,11,,,,70,0
70472,note_on,0,0,9,,,,,,,,,12,,,,67,76
70472,note_on,9,0,9,,,,,,,,,12,,,,70,0
70474,note_on,0,0,10,,,,,,,,,6,,,,58,62
70474,note_on,9,0,10,,,,,,,,,6,,,,55,0
70477,control_change,7,0,7,,,,,,,,,10,11,82,,,
70478,control_change,19,0,4,,,,,,,,,3,11,81,,,
70479,control_change,7,0,8,,,,,,,,,11,11,82,,,
70479,control_change,7,0,9,,,,,,,,,12,11,82,,,
70481,control_change,7,0,10,,,,,,,,,6,11,82,,,
70486,control_change,19,0,3,,,,,,,,,2,11,82,,,
70494,control_change,17,0,7,,,,,,,,,10,11,83,,,
70496,control_change,17,0,9,,,,,,,,,12,11,83,,,
70496,control_change,17,0,8,,,,,,,,,11,11,83,,,
70497,control_change,19,0,4,,,,,,,,,3,11,83,,,
70498,note_on,12,0,3,,,,,,,,,2,,,,67,0
70498,control_change,17,0,10,,,,,,,,,6,11,83,,,
70498,note_on,0,0,3,,,,,,,,,2,,,,70,0
70500,note_on,6,0,7,,,,,,,,,10,,,,81,0
70500,note_on,0,0,7,,,,,,,,,10,,,,82,115
70502,note_on,6,0,9,,,,,,,,,12,,,,67,0
70502,note_on,6,0,8,,,,,,,,,11,,,,67,0
70502,note_on,0,0,9,,,,,,,,,12,,,,70,76
70502,note_on,0,0,8,,,,,,,,,11,,,,70,78
70503,note_on,0,0,3,,,,,,,,,2,,,,67,71
70503,note_on,5,0,3,,,,,,,,,2,,,,70,71
70504,note_on,6,0,10,,,,,,,,,6,,,,58,0
70504,note_on,0,0,10,,,,,,,,,6,,,,55,62
70505,control_change,2,0,3,,,,,,,,,2,11,84,,,
70505,note_on,8,0,4,,,,,,,,,3,,,,58,0
70505,note_on,0,0,4,,,,,,,,,3,,,,55,0
70510,control_change,10,0,7,,,,,,,,,10,11,84,,,
70512,control_change,10,0,9,,,,,,,,,12,11,84,,,
70512,control_change,10,0,8,,,,,,,,,11,11,84,,,
70514,control_change,10,0,10,,,,,,,,,6,11,84,,,
70524,control_change,19,0,3,,,,,,,,,2,11,86,,,
70527,control_change,17,0,7,,,,,,,,,10,11,85,,,
70529,control_change,17,0,8,,,,,,,,,11,11,85,,,
70529,control_change,17,0,9,,,,,,,,,12,11,85,,,
70530,note_on,3,0,7,,,,,,,,,10,,,,82,0
70530,note_on,0,0,7,,,,,,,,,10,,,,81,115
70531,control_change,17,0,10,,,,,,,,,6,11,85,,,
70532,note_on,3,0,9,,,,,,,,,12,,,,70,0
70532,note_on,0,0,9,,,,,,,,,12,,,,67,76
70532,note_on,0,0,8,,,,,,,,,11,,,,67,78
70532,note_on,3,0,8,,,,,,,,,11,,,,70,0
70534,note_on,3,0,10,,,,,,,,,6,,,,55,0
70534,note_on,0,0,10,,,,,,,,,6,,,,58,62
70543,control_change,13,0,7,,,,,,,,,10,11,86,,,
70543,control_change,19,0,3,,,,,,,,,2,11,87,,,
70545,control_change,13,0,8,,,,,,,,,11,11,86,,,
70545,control_change,13,0,9,,,,,,,,,12,11,86,,,
70547,control_change,13,0,10,,,,,,,,,6,11,86,,,
70555,note_on,12,0,7,,,,,,,,,10,,,,81,0
70560,note_on,0,0,7,,,,,,,,,10,,,,81,115
70560,note_on,0,0,1,,,,,,,,,0,,,,82,83
70560,note_on,0,0,1,,,,,,,,,0,,,,79,83
70560,control_change,240,0,1,,,,,,,,,0,11,89,,,
70560,set_tempo,120,1,0,,,,,,1034483,,,,,,,,
70560,control_change,5,0,7,,,,,,,,,10,11,87,,,
70562,note_on,17,0,8,,,,,,,,,11,,,,67,0
70562,control_change,0,0,9,,,,,,,,,12,11,87,,,
70562,control_change,0,0,8,,,,,,,,,11,11,87,,,
70562,note_on,17,0,9,,,,,,,,,12,,,,67,0
70563,control_change,0,0,3,,,,,,,,,2,11,89,,,
70563,note_on,0,0,3,,,,,,,,,2,,,,69,71
70563,note_on,0,0,3,,,,,,,,,2,,,,72,71
70563,note_on,0,0,3,,,,,,,,,2,,,,70,0
70563,note_on,20,0,3,,,,,,,,,2,,,,67,0
70563,note_on,0,0,5,,,,,,,,,4,,,,60,82
70563,control_change,600,0,5,,,,,,,,,4,11,92,,,
70564,control_change,0,0,10,,,,,,,,,6,11,87,,,
70564,note_on,17,0,10,,,,,,,,,6,,,,58,0
70564,program_change,239,0,11,,,,,,,,48,13,,,,,
70565,control_change,1,0,11,,,,,,,,,13,11,87,,,
70565,note_on,0,0,11,,,,,,,,,13,,,,48,100
70565,control_change,600,0,6,,,,,,,,,5,11,92,,,
70565,note_on,0,0,6,,,,,,,,,5,,,,60,82
70567,program_change,239,0,12,,,,,,,,48,14,,,,,
70568,control_change,1,0,12,,,,,,,,,14,11,87,,,
70568,note_on,0,0,12,,,,,,,,,14,,,,36,96
70583,control_change,18,0,11,,,,,,,,,13,11,86,,,
70586,control_change,18,0,12,,,,,,,,,14,11,86,,,
70601,control_change,18,0,11,,,,,,,,,13,11,85,,,
70604,control_change,18,0,12,,,,,,,,,14,11,85,,,
70619,control_change,18,0,11,,,,,,,,,13,11,84,,,
70620,note_on,0,0,7,,,,,,,,,10,,,,79,115
70620,set_tempo,60,1,0,,,,,,937500,,,,,,,,
70620,note_on,60,0,7,,,,,,,,,10,,,,81,0
70622,note_on,60,0,8,,,,,,,,,11,,,,67,78
70622,note_on,60,0,9,,,,,,,,,12,,,,67,76
70622,note_on,0,0,2,,,,,,,,,1,,,,79,82
70622,note_on,0,0,2,,,,,,,,,1,,,,76,82
70622,control_change,18,0,12,,,,,,,,,14,11,84,,,
70622,control_change,300,0,2,,,,,,,,,1,11,89,,,
70623,note_on,0,0,3,,,,,,,,,2,,,,70,71
70623,note_on,0,0,3,,,,,,,,,2,,,,67,71
70623,note_on,0,0,3,,,,,,,,,2,,,,72,0
70623,note_on,60,0,3,,,,,,,,,2,,,,69,0
70624,note_on,60,0,10,,,,,,,,,6,,,,55,62
70625,note_on,0,0,4,,,,,,,,,3,,,,55,82
70625,note_on,120,0,4,,,,,,,,,3,,,,52,82
70625,control_change,0,0,4,,,,,,,,,3,11,89,,,
70637,control_change,18,0,11,,,,,,,,,13,11,83,,,
70640,control_change,18,0,12,,,,,,,,,14,11,83,,,
70652,note_on,30,0,8,,,,,,,,,11,,,,67,0
70652,note_on,0,0,8,,,,,,,,,11,,,,64,78
70652,note_on,0,0,9,,,,,,,,,12,,,,64,76
70652,note_on,30,0,9,,,,,,,,,12,,,,67,0
70654,note_on,0,0,10,,,,,,,,,6,,,,52,62
70654,note_on,30,0,10,,,,,,,,,6,,,,55,0
70655,control_change,18,0,11,,,,,,,,,13,11,82,,,
70658,control_change,18,0,12,,,,,,,,,14,11,82,,,
70673,control_change,18,0,11,,,,,,,,,13,11,81,,,
70676,control_change,18,0,12,,,,,,,,,14,11,81,,,
70677,note_on,0,0,2,,,,,,,,,1,,,,79,0
70677,note_on,55,0,2,,,,,,,,,1,,,,76,0
70680,note_on,55,0,4,,,,,,,,,3,,,,55,0
70680,note_on,0,0,4,,,,,,,,,3,,,,52,0
70682,note_on,0,0,8,,,,,,,,,11,,,,67,78
70682,note_on,30,0,8,,,,,,,,,11,,,,64,0
70682,note_on,0,0,9,,,,,,,,,12,,,,67,76
70682,note_on,30,0,9,,,,,,,,,12,,,,64,0
70682,note_on,5,0,2,,,,,,,,,1,,,,76,82
70682,note_on,0,0,2,,,,,,,,,1,,,,79,82
70683,note_on,60,0,3,,,,,,,,,2,,,,70,0
70683,note_on,0,0,3,,,,,,,,,2,,,,67,0
70684,note_on,30,0,10,,,,,,,,,6,,,,52,0
70684,note_on,0,0,10,,,,,,,,,6,,,,55,62
70685,note_on,0,0,4,,,,,,,,,3,,,,55,82
70685,note_on,5,0,4,,,,,,,,,3,,,,52,82
70691,control_change,18,0,11,,,,,,,,,13,11,80,,,
70694,control_change,18,0,12,,,,,,,,,14,11,80,,,
70709,control_change,18,0,11,,,,,,,,,13,11,79,,,
70712,note_on,30,0,8,,,,,,,,,11,,,,67,0
70712,note_on,0,0,9,,,,,,,,,12,,,,64,76
70712,control_change,18,0,12,,,,,,,,,14,11,79,,,
70712,note_on,30,0,9,,,,,,,,,12,,,,67,0
70712,note_on,0,0,8,,,,,,,,,11,,,,64,78
70714,note_on,0,0,10,,,,,,,,,6,,,,52,62
70714,note_on,30,0,10,,,,,,,,,6,,,,55,0
70727,control_change,18,0,11,,,,,,,,,13,11,78,,,
70730,control_change,18,0,12,,,,,,,,,14,11,78,,,
70740,set_tempo,120,1,0,,,,,,1034483,,,,,,,,
70742,note_on,0,0,2,,,,,,,,,1,,,,76,0
70742,note_on,0,0,2,,,,,,,,,1,,,,77,82
70742,note_on,0,0,2,,,,,,,,,1,,,,81,82
70742,note_on,60,0,2,,,,,,,,,1,,,,79,0
70742,note_on,0,0,8,,,,,,,,,11,,,,69,78
70742,note_on,0,0,9,,,,,,,,,12,,,,69,76
70742,note_on,30,0,9,,,,,,,,,12,,,,64,0
70742,note_on,30,0,8,,,,,,,,,11,,,,64,0
70744,note_on,30,0,10,,,,,,,,,6,,,,52,0
70744,note_on,0,0,10,,,,,,,,,6,,,,57,62
70745,note_on,60,0,4,,,,,,,,,3,,,,55,0
70745,note_on,0,0,4,,,,,,,,,3,,,,52,0
70745,note_on,0,0,4,,,,,,,,,3,,,,53,82
70745,note_on,0,0,4,,,,,,,,,3,,,,57,82
70745,control_change,18,0,11,,,,,,,,,13,11,77,,,
70748,control_change,18,0,12,,,,,,,,,14,11,77,,,
70763,control_change,18,0,11,,,,,,,,,13,11,76,,,
70766,control_change,18,0,12,,,,,,,,,14,11,76,,,
70772,note_on,30,0,9,,,,,,,,,12,,,,69,0
70772,note_on,0,0,9,,,,,,,,,12,,,,65,76
70772,note_on,0,0,8,,,,,,,,,11,,,,65,78
70772,note_on,30,0,8,,,,,,,,,11,,,,69,0
70774,note_on,0,0,10,,,,,,,,,6,,,,53,62
70774,note_on,30,0,10,,,,,,,,,6,,,,57,0
70781,control_change,18,0,11,,,,,,,,,13,11,75,,,
70784,control_change,18,0,12,,,,,,,,,14,11,75,,,
70795,note_on,175,0,7,,,,,,,,,10,,,,79,0
70799,control_change,18,0,11,,,,,,,,,13,11,74,,,
70800,note_on,5,0,7,,,,,,,,,10,,,,79,93
70800,set_tempo,60,1,0,,,,,,937500,,,,,,,,
70802,note_on,0,0,2,,,,,,,,,1,,,,76,82
70802,note_on,0,0,8,,,,,,,,,11,,,,67,78
70802,note_on,60,0,2,,,,,,,,,1,,,,81,0
70802,note_on,0,0,9,,,,,,,,,12,,,,67,76
70802,note_on,30,0,9,,,,,,,,,12,,,,65,0
70802,control_change,18,0,12,,,,,,,,,14,11,74,,,
70802,note_on,0,0,2,,,,,,,,,1,,,,79,82
70802,note_on,30,0,8,,,,,,,,,11,,,,65,0
70802,note_on,0,0,2,,,,,,,,,1,,,,77,0
70804,note_on,30,0,10,,,,,,,,,6,,,,53,0
70804,note_on,0,0,10,,,,,,,,,6,,,,55,62
70805,note_on,0,0,4,,,,,,,,,3,,,,52,82
70805,note_on,0,0,4,,,,,,,,,3,,,,55,82
70805,note_on,60,0,4,,,,,,,,,3,,,,53,0
70805,note_on,0,0,4,,,,,,,,,3,,,,57,0
70817,control_change,18,0,11,,,,,,,,,13,11,73,,,
70820,control_change,18,0,12,,,,,,,,,14,11,73,,,
70830,note_on,30,0,7,,,,,,,,,10,,,,79,0
70830,note_on,0,0,7,,,,,,,,,10,,,,81,115
70832,note_on,30,0,8,,,,,,,,,11,,,,67,0
70832,note_on,0,0,9,,,,,,,,,12,,,,64,76
70832,note_on,30,0,9,,,,,,,,,12,,,,67,0
70832,note_on,0,0,8,,,,,,,,,11,,,,64,78
70834,note_on,0,0,10,,,,,,,,,6,,,,52,62
70834,note_on,30,0,10,,,,,,,,,6,,,,55,0
70835,control_change,18,0,11,,,,,,,,,13,11,72,,,
70838,control_change,18,0,12,,,,,,,,,14,11,72,,,
70853,control_change,18,0,11,,,,,,,,,13,11,71,,,
70856,control_change,18,0,12,,,,,,,,,14,11,71,,,
70857,note_on,0,0,2,,,,,,,,,1,,,,79,0
70857,note_on,55,0,2,,,,,,,,,1,,,,76,0
70860,note_on,30,0,7,,,,,,,,,10,,,,81,0
70860,note_on,0,0,4,,,,,,,,,3,,,,52,0
70860,note_on,55,0,4,,,,,,,,,3,,,,55,0
70860,note_on,0,0,7,,,,,,,,,10,,,,82,115
70862,note_on,0,0,2,,,,,,,,,1,,,,76,82
70862,note_on,30,0,9,,,,,,,,,12,,,,64,0
70862,note_on,0,0,9,,,,,,,,,12,,,,67,76
70862,note_on,30,0,8,,,,,,,,,11,,,,64,0
70862,note_on,0,0,8,,,,,,,,,11,,,,67,78
70862,note_on,5,0,2,,,,,,,,,1,,,,79,82
70864,note_on,0,0,10,,,,,,,,,6,,,,55,62
70864,note_on,30,0,10,,,,,,,,,6,,,,52,0
70865,note_on,0,0,4,,,,,,,,,3,,,,55,82
70865,note_on,5,0,4,,,,,,,,,3,,,,52,82
70871,control_change,18,0,11,,,,,,,,,13,11,70,,,
70874,control_change,18,0,12,,,,,,,,,14,11,70,,,
70889,control_change,18,0,11,,,,,,,,,13,11,69,,,
70890,note_on,0,0,7,,,,,,,,,10,,,,83,115
70890,note_on,30,0,7,,,,,,,,,10,,,,82,0
70892,note_on,30,0,8,,,,,,,,,11,,,,67,0
70892,note_on,0,0,9,,,,,,,,,12,,,,64,76
70892,control_change,18,0,12,,,,,,,,,14,11,69,,,
70892,note_on,0,0,8,,,,,,,,,11,,,,64,78
70892,note_on,30,0,9,,,,,,,,,12,,,,67,0
70894,note_on,0,0,10,,,,,,,,,6,,,,52,62
70894,note_on,30,0,10,,,,,,,,,6,,,,55,0
70907,control_change,18,0,11,,,,,,,,,13,11,68,,,
70910,control_change,18,0,12,,,,,,,,,14,11,68,,,
70915,note_on,25,0,7,,,,,,,,,10,,,,83,0
70915,note_on,355,0,1,,,,,,,,,0,,,,82,0
70920,set_tempo,120,1,0,,,,,,1034483,,,,,,,,
70920,note_on,5,0,7,,,,,,,,,10,,,,83,115
70920,note_on,5,0,1,,,,,,,,,0,,,,88,83
70922,note_on,0,0,2,,,,,,,,,1,,,,74,82
70922,note_on,0,0,2,,,,,,,,,1,,,,77,82
70922,note_on,0,0,2,,,,,,,,,1,,,,79,0
70922,note_on,60,0,2,,,,,,,,,1,,,,76,0
70922,note_on,0,0,8,,,,,,,,,11,,,,65,78
70922,note_on,30,0,9,,,,,,,,,12,,,,64,0
70922,note_on,30,0,8,,,,,,,,,11,,,,64,0
70922,note_on,0,0,9,,,,,,,,,12,,,,65,76
70924,note_on,0,0,10,,,,,,,,,6,,,,53,62
70924,note_on,30,0,10,,,,,,,,,6,,,,52,0
70925,note_on,0,0,4,,,,,,,,,3,,,,52,0
70925,control_change,18,0,11,,,,,,,,,13,11,67,,,
70925,note_on,60,0,4,,,,,,,,,3,,,,55,0
70925,note_on,0,0,4,,,,,,,,,3,,,,50,82
70925,note_on,0,0,4,,,,,,,,,3,,,,53,82
70928,control_change,18,0,12,,,,,,,,,14,11,67,,,
70943,control_change,18,0,11,,,,,,,,,13,11,66,,,
70946,control_change,18,0,12,,,,,,,,,14,11,66,,,
70952,note_on,30,0,9,,,,,,,,,12,,,,65,0
70952,note_on,0,0,8,,,,,,,,,11,,,,62,78
70952,note_on,30,0,8,,,,,,,,,11,,,,65,0
70952,note_on,0,0,9,,,,,,,,,12,,,,62,76
70954,note_on,30,0,10,,,,,,,,,6,,,,53,0
70954,note_on,0,0,10,,,,,,,,,6,,,,50,62
70961,control_change,18,0,11,,,,,,,,,13,11,65,,,
70964,control_change,18,0,12,,,,,,,,,14,11,65,,,
70979,control_change,18,0,11,,,,,,,,,13,11,64,,,
70980,note_on,60,0,7,,,,,,,,,10,,,,83,0
70980,set_tempo,60,1,0,,,,,,937500,,,,,,,,
70980,note_on,0,0,7,,,,,,,,,10,,,,84,115
70982,note_on,0,0,9,,,,,,,,,12,,,,64,76
70982,note_on,0,0,2,,,,,,,,,1,,,,76,82
70982,note_on,0,0,2,,,,,,,,,1,,,,72,82
70982,note_on,0,0,2,,,,,,,,,1,,,,77,0
70982,note_on,60,0,2,,,,,,,,,1,,,,74,0
70982,control_change,18,0,12,,,,,,,,,14,11,64,,,
70982,note_on,30,0,8,,,,,,,,,11,,,,62,0
70982,note_on,0,0,8,,,,,,,,,11,,,,64,78
70982,note_on,30,0,9,,,,,,,,,12,,,,62,0
70984,note_on,0,0,10,,,,,,,,,6,,,,52,62
70984,note_on,30,0,10,,,,,,,,,6,,,,50,0
70985,note_on,0,0,4,,,,,,,,,3,,,,52,82
70985,note_on,0,0,4,,,,,,,,,3,,,,48,82
70985,note_on,0,0,4,,,,,,,,,3,,,,50,0
70985,note_on,60,0,4,,,,,,,,,3,,,,53,0
70997,control_change,18,0,11,,,,,,,,,13,11,63,,,
71000,control_change,18,0,12,,,,,,,,,14,11,63,,,
71012,note_on,30,0,8,,,,,,,,,11,,,,64,0
71012,note_on,0,0,9,,,,,,,,,12,,,,60,76
71012,note_on,0,0,8,,,,,,,,,11,,,,60,78
71012,note_on,30,0,9,,,,,,,,,12,,,,64,0
71014,note_on,0,0,10,,,,,,,,,6,,,,48,62
71014,note_on,30,0,10,,,,,,,,,6,,,,52,0
71015,control_change,18,0,11,,,,,,,,,13,11,62,,,
71018,control_change,18,0,12,,,,,,,,,14,11,62,,,
71033,control_change,18,0,11,,,,,,,,,13,11,61,,,
71036,control_change,18,0,12,,,,,,,,,14,11,61,,,
71037,note_on,55,0,2,,,,,,,,,1,,,,76,0
71037,note_on,0,0,2,,,,,,,,,1,,,,72,0
71040,note_on,55,0,4,,,,,,,,,3,,,,52,0
71040,note_on,0,0,4,,,,,,,,,3,,,,48,0
71042,note_on,0,0,2,,,,,,,,,1,,,,76,82
71042,note_on,0,0,9,,,,,,,,,12,,,,64,76
71042,note_on,30,0,9,,,,,,,,,12,,,,60,0
71042,note_on,5,0,2,,,,,,,,,1,,,,72,82
71042,note_on,30,0,8,,,,,,,,,11,,,,60,0
71042,note_on,0,0,8,,,,,,,,,11,,,,64,78
71043,note_on,360,0,3,,,,,,,,,2,,,,64,83
71043,note_on,0,0,3,,,,,,,,,2,,,,60,83
71044,note_on,0,0,10,,,,,,,,,6,,,,52,62
71044,note_on,30,0,10,,,,,,,,,6,,,,48,0
71045,note_on,5,0,4,,,,,,,,,3,,,,48,82
71045,note_on,0,0,4,,,,,,,,,3,,,,52,82
71051,control_change,18,0,11,,,,,,,,,13,11,60,,,
71054,control_change,18,0,12,,,,,,,,,14,11,60,,,
71069,control_change,18,0,11,,,,,,,,,13,11,59,,,
71070,control_change,90,0,7,,,,,,,,,10,11,87,,,
71072,control_change,18,0,12,,,,,,,,,14,11,59,,,
71072,note_on,0,0,9,,,,,,,,,12,,,,60,76
71072,note_on,30,0,8,,,,,,,,,11,,,,64,0
71072,control_change,0,0,8,,,,,,,,,11,11,87,,,
71072,note_on,30,0,9,,,,,,,,,12,,,,64,0
71072,control_change,0,0,9,,,,,,,,,12,11,87,,,
71072,note_on,0,0,8,,,,,,,,,11,,,,60,78
71074,note_on,30,0,10,,,,,,,,,6,,,,52,0
71074,note_on,0,0,10,,,,,,,,,6,,,,48,62
71074,control_change,0,0,10,,,,,,,,,6,11,87,,,
71085,control_change,15,0,7,,,,,,,,,10,11,84,,,
71087,control_change,15,0,9,,,,,,,,,12,11,84,,,
71087,control_change,18,0,11,,,,,,,,,13,11,58,,,
71087,control_change,15,0,8,,,,,,,,,11,11,84,,,
71089,control_change,15,0,10,,,,,,,,,6,11,84,,,
71090,control_change,18,0,12,,,,,,,,,14,11,58,,,
71100,set_tempo,120,1,0,,,,,,1034483,,,,,,,,
71100,control_change,180,0,1,,,,,,,,,0,11,89,,,
71101,control_change,16,0,7,,,,,,,,,10,11,81,,,
71102,note_on,15,0,9,,,,,,,,,12,,,,60,0
71102,note_on,0,0,9,,,,,,,,,12,,,,62,76
71102,note_on,0,0,8,,,,,,,,,11,,,,62,78
71102,note_on,15,0,8,,,,,,,,,11,,,,60,0
71102,control_change,0,0,2,,,,,,,,,1,11,89,,,
71102,note_on,0,0,2,,,,,,,,,1,,,,74,82
71102,note_on,60,0,2,,,,,,,,,1,,,,76,0
71102,note_on,0,0,2,,,,,,,,,1,,,,70,82
71102,note_on,0,0,2,,,,,,,,,1,,,,72,0
71103,control_change,1,0,9,,,,,,,,,12,11,81,,,
71103,control_change,0,0,3,,,,,,,,,2,11,89,,,
71103,note_on,0,0,3,,,,,,,,,2,,,,62,83
71103,note_on,0,0,3,,,,,,,,,2,,,,58,83
71103,note_on,60,0,3,,,,,,,,,2,,,,60,0
71103,note_on,0,0,3,,,,,,,,,2,,,,64,0
71103,control_change,540,0,5,,,,,,,,,4,11,92,,,
71103,control_change,1,0,8,,,,,,,,,11,11,81,,,
71104,note_on,15,0,10,,,,,,,,,6,,,,48,0
71104,note_on,0,0,10,,,,,,,,,6,,,,50,62
71105,control_change,1,0,10,,,,,,,,,6,11,81,,,
71105,control_change,18,0,11,,,,,,,,,13,11,57,,,
71105,note_on,0,0,4,,,,,,,,,3,,,,50,82
71105,control_change,0,0,4,,,,,,,,,3,11,89,,,
71105,note_on,0,0,4,,,,,,,,,3,,,,46,82
71105,note_on,0,0,4,,,,,,,,,3,,,,48,0
71105,note_on,60,0,4,,,,,,,,,3,,,,52,0
71105,control_change,540,0,6,,,,,,,,,5,11,92,,,
71108,control_change,18,0,12,,,,,,,,,14,11,57,,,
71112,control_change,12,0,1,,,,,,,,,0,11,86,,,
71113,control_change,10,0,5,,,,,,,,,4,11,89,,,
71114,control_change,12,0,2,,,,,,,,,1,11,86,,,
71115,control_change,10,0,6,,,,,,,,,5,11,89,,,
71115,control_change,12,0,3,,,,,,,,,2,11,86,,,
71117,control_change,16,0,7,,,,,,,,,10,11,78,,,
71117,control_change,12,0,4,,,,,,,,,3,11,86,,,
71119,control_change,16,0,9,,,,,,,,,12,11,78,,,
71119,control_change,16,0,8,,,,,,,,,11,11,78,,,
71121,control_change,16,0,10,,,,,,,,,6,11,78,,,
71123,control_change,18,0,11,,,,,,,,,13,11,56,,,
71124,control_change,11,0,5,,,,,,,,,4,11,86,,,
71126,control_change,11,0,6,,,,,,,,,5,11,86,,,
71126,control_change,18,0,12,,,,,,,,,14,11,56,,,
71129,control_change,17,0,1,,,,,,,,,0,11,83,,,
71131,control_change,17,0,2,,,,,,,,,1,11,83,,,
71132,note_on,0,0,9,,,,,,,,,12,,,,58,76
71132,note_on,13,0,9,,,,,,,,,12,,,,62,0
71132,note_on,13,0,8,,,,,,,,,11,,,,62,0
71132,control_change,17,0,3,,,,,,,,,2,11,83,,,
71132,note_on,0,0,8,,,,,,,,,11,,,,58,78
71133,control_change,16,0,7,,,,,,,,,10,11,75,,,
71134,note_on,13,0,10,,,,,,,,,6,,,,50,0
71134,note_on,0,0,10,,,,,,,,,6,,,,46,62
71134,control_change,17,0,4,,,,,,,,,3,11,83,,,
71135,control_change,11,0,5,,,,,,,,,4,11,83,,,
71135,control_change,3,0,8,,,,,,,,,11,11,75,,,
71135,control_change,3,0,9,,,,,,,,,12,11,75,,,
71137,control_change,11,0,6,,,,,,,,,5,11,83,,,
71137,control_change,3,0,10,,,,,,,,,6,11,75,,,
71141,control_change,18,0,11,,,,,,,,,13,11,55,,,
71142,control_change,13,0,1,,,,,,,,,0,11,80,,,
71144,control_change,18,0,12,,,,,,,,,14,11,55,,,
71144,control_change,13,0,2,,,,,,,,,1,11,80,,,
71145,control_change,13,0,3,,,,,,,,,2,11,80,,,
71146,control_change,11,0,5,,,,,,,,,4,11,80,,,
71147,control_change,13,0,4,,,,,,,,,3,11,80,,,
71148,control_change,15,0,7,,,,,,,,,10,11,72,,,
71148,control_change,11,0,6,,,,,,,,,5,11,80,,,
71150,control_change,15,0,8,,,,,,,,,11,11,72,,,
71150,control_change,15,0,9,,,,,,,,,12,11,72,,,
71152,control_change,15,0,10,,,,,,,,,6,11,72,,,
71155,note_on,7,0,7,,,,,,,,,10,,,,84,0
71157,control_change,11,0,5,,,,,,,,,4,11,77,,,
71159,control_change,11,0,6,,,,,,,,,5,11,77,,,
71159,control_change,18,0,11,,,,,,,,,13,11,54,,,
71159,control_change,17,0,1,,,,,,,,,0,11,77,,,
71160,set_tempo,60,1,0,,,,,,937500,,,,,,,,
71160,note_on,5,0,7,,,,,,,,,10,,,,72,70
71161,control_change,17,0,2,,,,,,,,,1,11,77,,,
71162,note_on,0,0,2,,,,,,,,,1,,,,72,82
71162,note_on,0,0,2,,,,,,,,,1,,,,70,0
71162,note_on,1,0,2,,,,,,,,,1,,,,74,0
71162,control_change,18,0,12,,,,,,,,,14,11,54,,,
71162,note_on,0,0,2,,,,,,,,,1,,,,69,82
71162,note_on,12,0,8,,,,,,,,,11,,,,58,0
71162,note_on,0,0,8,,,,,,,,,11,,,,60,78
71162,note_on,0,0,9,,,,,,,,,12,,,,60,76
71162,control_change,17,0,3,,,,,,,,,2,11,77,,,
71162,note_on,12,0,9,,,,,,,,,12,,,,58,0
71163,note_on,0,0,3,,,,,,,,,2,,,,60,83
71163,note_on,0,0,3,,,,,,,,,2,,,,57,83
71163,note_on,1,0,3,,,,,,,,,2,,,,62,0
71163,note_on,0,0,3,,,,,,,,,2,,,,58,0
71164,note_on,0,0,10,,,,,,,,,6,,,,48,62
71164,note_on,12,0,10,,,,,,,,,6,,,,46,0
71164,control_change,17,0,4,,,,,,,,,3,11,77,,,
71164,control_change,4,0,7,,,,,,,,,10,11,69,,,
71165,note_on,1,0,4,,,,,,,,,3,,,,50,0
71165,note_on,0,0,4,,,,,,,,,3,,,,46,0
71165,note_on,0,0,4,,,,,,,,,3,,,,48,82
71165,note_on,0,0,4,,,,,,,,,3,,,,45,82
71166,control_change,4,0,8,,,,,,,,,11,11,69,,,
71166,control_change,4,0,9,,,,,,,,,12,11,69,,,
71167,control_change,10,0,5,,,,,,,,,4,11,74,,,
71168,control_change,4,0,10,,,,,,,,,6,11,69,,,
71169,control_change,10,0,6,,,,,,,,,5,11,74,,,
71176,control_change,17,0,1,,,,,,,,,0,11,74,,,
71177,control_change,18,0,11,,,,,,,,,13,11,53,,,
71178,control_change,16,0,2,,,,,,,,,1,11,74,,,
71178,control_change,11,0,5,,,,,,,,,4,11,71,,,
71179,control_change,16,0,3,,,,,,,,,2,11,74,,,
71180,control_change,16,0,7,,,,,,,,,10,11,66,,,
71180,control_change,18,0,12,,,,,,,,,14,11,53,,,
71180,control_change,11,0,6,,,,,,,,,5,11,71,,,
71181,control_change,16,0,4,,,,,,,,,3,11,74,,,
71182,control_change,16,0,8,,,,,,,,,11,11,66,,,
71182,control_change,16,0,9,,,,,,,,,12,11,66,,,
71184,control_change,16,0,10,,,,,,,,,6,11,66,,,
71189,control_change,13,0,1,,,,,,,,,0,11,71,,,
71189,control_change,11,0,5,,,,,,,,,4,11,68,,,
71191,control_change,11,0,6,,,,,,,,,5,11,68,,,
71191,control_change,13,0,2,,,,,,,,,1,11,71,,,
71192,note_on,10,0,8,,,,,,,,,11,,,,60,0
71192,control_change,13,0,3,,,,,,,,,2,11,71,,,
71192,note_on,0,0,8,,,,,,,,,11,,,,57,78
71192,note_on,10,0,9,,,,,,,,,12,,,,60,0
71192,note_on,0,0,9,,,,,,,,,12,,,,57,76
71194,control_change,13,0,4,,,,,,,,,3,11,71,,,
71194,note_on,10,0,10,,,,,,,,,6,,,,48,0
71194,note_on,0,0,10,,,,,,,,,6,,,,45,62
71195,control_change,18,0,11,,,,,,,,,13,11,52,,,
71196,control_change,16,0,7,,,,,,,,,10,11,63,,,
71198,control_change,18,0,12,,,,,,,,,14,11,52,,,
71198,control_change,6,0,9,,,,,,,,,12,11,63,,,
71198,control_change,6,0,8,,,,,,,,,11,11,63,,,
71200,control_change,11,0,5,,,,,,,,,4,11,65,,,
71200,control_change,6,0,10,,,,,,,,,6,11,63,,,
71202,control_change,11,0,6,,,,,,,,,5,11,65,,,
71206,control_change,17,0,1,,,,,,,,,0,11,68,,,
71208,control_change,17,0,2,,,,,,,,,1,11,68,,,
71209,control_change,17,0,3,,,,,,,,,2,11,68,,,
71211,control_change,15,0,7,,,,,,,,,10,11,60,,,
71211,control_change,11,0,5,,,,,,,,,4,11,62,,,
71211,control_change,17,0,4,,,,,,,,,3,11,68,,,
71213,control_change,11,0,6,,,,,,,,,5,11,62,,,
71213,control_change,15,0,8,,,,,,,,,11,11,60,,,
71213,control_change,15,0,9,,,,,,,,,12,11,60,,,
71213,control_change,18,0,11,,,,,,,,,13,11,51,,,
71215,control_change,15,0,10,,,,,,,,,6,11,60,,,
71216,control_change,18,0,12,,,,,,,,,14,11,51,,,
71217,note_on,0,0,2,,,,,,,,,1,,,,69,0
71217,note_on,9,0,2,,,,,,,,,1,,,,72,0
71219,control_change,13,0,1,,,,,,,,,0,11,65,,,
71220,note_on,0,0,7,,,,,,,,,10,,,,74,106
71220,note_on,9,0,7,,,,,,,,,10,,,,72,0
71221,control_change,4,0,2,,,,,,,,,1,11,65,,,
71221,control_change,10,0,5,,,,,,,,,4,11,59,,,
71222,note_on,9,0,9,,,,,,,,,12,,,,57,0
71222,note_on,0,0,2,,,,,,,,,1,,,,70,82
71222,note_on,9,0,8,,,,,,,,,11,,,,57,0
71222,note_on,0,0,8,,,,,,,,,11,,,,58,78
71222,control_change,13,0,3,,,,,,,,,2,11,65,,,
71222,note_on,1,0,2,,,,,,,,,1,,,,67,82
71222,note_on,0,0,9,,,,,,,,,12,,,,58,76
71223,control_change,10,0,6,,,,,,,,,5,11,59,,,
71223,note_on,1,0,3,,,,,,,,,2,,,,57,0
71223,note_on,0,0,3,,,,,,,,,2,,,,55,83
71223,note_on,0,0,3,,,,,,,,,2,,,,58,83
71223,note_on,0,0,3,,,,,,,,,2,,,,60,0
71224,note_on,0,0,10,,,,,,,,,6,,,,46,62
71224,note_on,9,0,10,,,,,,,,,6,,,,45,0
71224,control_change,13,0,4,,,,,,,,,3,11,65,,,
71225,note_on,0,0,4,,,,,,,,,3,,,,43,82
71225,note_on,0,0,4,,,,,,,,,3,,,,46,82
71225,note_on,1,0,4,,,,,,,,,3,,,,45,0
71225,note_on,0,0,4,,,,,,,,,3,,,,48,0
71227,control_change,7,0,7,,,,,,,,,10,11,57,,,
71229,control_change,7,0,8,,,,,,,,,11,11,57,,,
71229,control_change,7,0,9,,,,,,,,,12,11,57,,,
71231,control_change,18,0,11,,,,,,,,,13,11,50,,,
71231,control_change,7,0,10,,,,,,,,,6,11,57,,,
71232,control_change,11,0,5,,,,,,,,,4,11,56,,,
71234,control_change,18,0,12,,,,,,,,,14,11,50,,,
71234,control_change,11,0,6,,,,,,,,,5,11,56,,,
71236,control_change,17,0,1,,,,,,,,,0,11,62,,,
71238,control_change,16,0,2,,,,,,,,,1,11,62,,,
71239,control_change,16,0,3,,,,,,,,,2,11,62,,,
71241,control_change,16,0,4,,,,,,,,,3,11,62,,,
71243,control_change,11,0,5,,,,,,,,,4,11,53,,,
71243,control_change,16,0,7,,,,,,,,,10,11,54,,,
71245,control_change,16,0,8,,,,,,,,,11,11,54,,,
71245,control_change,11,0,6,,,,,,,,,5,11,53,,,
71245,control_change,16,0,9,,,,,,,,,12,11,54,,,
71247,control_change,16,0,10,,,,,,,,,6,11,54,,,
71249,control_change,18,0,11,,,,,,,,,13,11,49,,,
71250,note_on,7,0,7,,,,,,,,,10,,,,74,0
71250,note_on,0,0,7,,,,,,,,,10,,,,76,115
71252,control_change,18,0,12,,,,,,,,,14,11,49,,,
71252,note_on,0,0,9,,,,,,,,,12,,,,55,76
71252,note_on,0,0,8,,,,,,,,,11,,,,55,78
71252,note_on,7,0,9,,,,,,,,,12,,,,58,0
71252,note_on,7,0,8,,,,,,,,,11,,,,58,0
71253,control_change,17,0,1,,,,,,,,,0,11,59,,,
71254,control_change,11,0,5,,,,,,,,,4,11,50,,,
71254,note_on,7,0,10,,,,,,,,,6,,,,46,0
71254,note_on,0,0,10,,,,,,,,,6,,,,43,62
71255,control_change,17,0,2,,,,,,,,,1,11,59,,,
71256,control_change,17,0,3,,,,,,,,,2,11,59,,,
71256,control_change,11,0,6,,,,,,,,,5,11,50,,,
71258,control_change,17,0,4,,,,,,,,,3,11,59,,,
71259,control_change,9,0,7,,,,,,,,,10,11,51,,,
71261,control_change,9,0,8,,,,,,,,,11,11,51,,,
71261,control_change,9,0,9,,,,,,,,,12,11,51,,,
71263,control_change,9,0,10,,,,,,,,,6,11,51,,,
71265,control_change,11,0,5,,,,,,,,,4,11,47,,,
71266,control_change,13,0,1,,,,,,,,,0,11,56,,,
71267,control_change,11,0,6,,,,,,,,,5,11,47,,,
71267,control_change,18,0,11,,,,,,,,,13,11,48,,,
71268,control_change,13,0,2,,,,,,,,,1,11,56,,,
71269,control_change,13,0,3,,,,,,,,,2,11,56,,,
71270,control_change,18,0,12,,,,,,,,,14,11,48,,,
71271,control_change,13,0,4,,,,,,,,,3,11,56,,,
71274,control_change,15,0,7,,,,,,,,,10,11,48,,,
71275,note_on,1,0,7,,,,,,,,,10,,,,76,0
71275,control_change,10,0,5,,,,,,,,,4,11,44,,,
71275,note_on,9,0,1,,,,,,,,,0,,,,88,0
71275,note_on,0,0,1,,,,,,,,,0,,,,79,0
71276,control_change,15,0,8,,,,,,,,,11,11,48,,,
71276,control_change,15,0,9,,,,,,,,,12,11,48,,,
71277,note_on,1,0,8,,,,,,,,,11,,,,55,0
71277,note_on,0,0,2,,,,,,,,,1,,,,67,0
71277,control_change,10,0,6,,,,,,,,,5,11,44,,,
71277,note_on,9,0,2,,,,,,,,,1,,,,70,0
71277,note_on,1,0,9,,,,,,,,,12,,,,55,0
71278,note_on,9,0,3,,,,,,,,,2,,,,58,0
71278,note_on,0,0,3,,,,,,,,,2,,,,55,0
71278,control_change,15,0,10,,,,,,,,,6,11,48,,,
71279,note_on,1,0,10,,,,,,,,,6,,,,43,0
71280,note_on,9,0,4,,,,,,,,,3,,,,43,0
71280,note_on,0,0,4,,,,,,,,,3,,,,46,0
71280,note_on,5,0,7,,,,,,,,,10,,,,77,115
71280,note_on,13,0,11,,,,,,,,,13,,,,48,0
71280,note_on,0,0,1,,,,,,,,,0,,,,81,83
71280,note_on,5,0,1,,,,,,,,,0,,,,89,83
71280,set_tempo,120,1,0,,,,,,1034483,,,,,,,,
71282,note_on,0,0,2,,,,,,,,,1,,,,69,82
71282,note_on,5,0,2,,,,,,,,,1,,,,65,82
71282,note_on,5,0,8,,,,,,,,,11,,,,60,74
71282,note_on,5,0,9,,,,,,,,,12,,,,57,72
71283,note_on,0,0,5,,,,,,,,,4,,,,60,82
71283,note_on,13,0,12,,,,,,,,,14,,,,36,0
71283,note_on,8,0,5,,,,,,,,,4,,,,60,0
71283,note_on,0,0,3,,,,,,,,,2,,,,57,83
71283,note_on,5,0,3,,,,,,,,,2,,,,53,83
71284,note_on,5,0,10,,,,,,,,,6,,,,41,104
71285,note_on,0,0,6,,,,,,,,,5,,,,53,82
71285,note_on,5,0,4,,,,,,,,,3,,,,41,82
71285,note_on,8,0,6,,,,,,,,,5,,,,60,0
71285,note_on,0,0,11,,,,,,,,,13,,,,41,86
71285,control_change,5,0,11,,,,,,,,,13,11,47,,,
71288,control_change,5,0,12,,,,,,,,,14,11,47,,,
71288,note_on,0,0,12,,,,,,,,,14,,,,29,81
71312,note_on,30,0,9,,,,,,,,,12,,,,57,0
71312,note_on,0,0,9,,,,,,,,,12,,,,53,72
71312,note_on,30,0,8,,,,,,,,,11,,,,60,0
71312,note_on,0,0,8,,,,,,,,,11,,,,57,74
71314,note_on,30,0,10,,,,,,,,,6,,,,48,62
71337,note_on,0,0,2,,,,,,,,,1,,,,65,0
71337,note_on,55,0,2,,,,,,,,,1,,,,69,0
71339,note_on,25,0,10,,,,,,,,,6,,,,41,0
71340,set_tempo,60,1,0,,,,,,937500,,,,,,,,
71342,note_on,0,0,2,,,,,,,,,1,,,,69,82
71342,note_on,0,0,8,,,,,,,,,11,,,,60,74
71342,note_on,30,0,8,,,,,,,,,11,,,,57,0
71342,note_on,5,0,2,,,,,,,,,1,,,,72,82
71342,note_on,30,0,9,,,,,,,,,12,,,,53,0
71342,note_on,0,0,9,,,,,,,,,12,,,,57,72
71344,note_on,0,0,10,,,,,,,,,6,,,,41,104
71344,note_on,0,0,10,,,,,,,,,6,,,,45,62
71344,note_on,5,0,10,,,,,,,,,6,,,,48,0
71372,note_on,0,0,8,,,,,,,,,11,,,,57,74
71372,note_on,0,0,9,,,,,,,,,12,,,,53,72
71372,note_on,30,0,8,,,,,,,,,11,,,,60,0
71372,note_on,30,0,9,,,,,,,,,12,,,,57,0
71374,note_on,0,0,10,,,,,,,,,6,,,,48,62
71374,note_on,30,0,10,,,,,,,,,6,,,,45,0
71395,note_on,53,0,2,,,,,,,,,1,,,,69,0
71395,note_on,0,0,2,,,,,,,,,1,,,,72,0
71400,note_on,120,0,1,,,,,,,,,0,,,,81,0
71400,note_on,0,0,1,,,,,,,,,0,,,,89,0
71402,note_on,0,0,9,,,,,,,,,12,,,,57,72
71402,note_on,30,0,8,,,,,,,,,11,,,,57,0
71402,note_on,0,0,8,,,,,,,,,11,,,,60,74
71402,note_on,30,0,9,,,,,,,,,12,,,,53,0
71402,note_on,7,0,2,,,,,,,,,1,,,,69,82
71402,note_on,0,0,2,,,,,,,,,1,,,,72,82
71403,note_on,0,0,3,,,,,,,,,2,,,,53,0
71403,note_on,120,0,3,,,,,,,,,2,,,,57,0
71403,note_on,120,0,5,,,,,,,,,4,,,,60,0
71404,note_on,0,0,10,,,,,,,,,6,,,,40,104
71404,note_on,0,0,10,,,,,,,,,6,,,,45,62
71404,note_on,0,0,10,,,,,,,,,6,,,,41,0
71404,note_on,30,0,10,,,,,,,,,6,,,,48,0
71405,note_on,120,0,6,,,,,,,,,5,,,,53,0
71405,note_on,120,0,11,,,,,,,,,13,,,,41,0
71408,note_on,120,0,12,,,,,,,,,14,,,,29,0
71432,note_on,30,0,9,,,,,,,,,12,,,,57,0
71432,note_on,0,0,9,,,,,,,,,12,,,,53,72
71432,note_on,0,0,8,,,,,,,,,11,,,,57,74
71432,note_on,30,0,8,,,,,,,,,11,,,,60,0
71434,note_on,0,0,10,,,,,,,,,6,,,,48,62
71434,note_on,30,0,10,,,,,,,,,6,,,,45,0
71455,note_on,53,0,2,,,,,,,,,1,,,,72,0
71455,note_on,0,0,2,,,,,,,,,1,,,,69,0
71460,set_tempo,120,1,0,,,,,,1034483,,,,,,,,
71462,note_on,7,0,2,,,,,,,,,1,,,,69,82
71462,note_on,30,0,9,,,,,,,,,12,,,,53,0
71462,note_on,0,0,9,,,,,,,,,12,,,,57,72
71462,note_on,0,0,2,,,,,,,,,1,,,,72,82
71462,note_on,0,0,8,,,,,,,,,11,,,,60,74
71462,note_on,30,0,8,,,,,,,,,11,,,,57,0
71464,note_on,30,0,10,,,,,,,,,6,,,,48,0
71464,note_on,0,0,10,,,,,,,,,6,,,,40,0
71464,note_on,0,0,10,,,,,,,,,6,,,,45,62
71464,note_on,0,0,10,,,,,,,,,6,,,,41,104
71492,note_on,30,0,8,,,,,,,,,11,,,,60,0
71492,note_on,0,0,8,,,,,,,,,11,,,,57,74
71492,note_on,30,0,9,,,,,,,,,12,,,,57,0
71492,note_on,0,0,9,,,,,,,,,12,,,,53,72
71494,note_on,0,0,10,,,,,,,,,6,,,,48,62
71494,note_on,30,0,10,,,,,,,,,6,,,,45,0
71515,note_on,235,0,7,,,,,,,,,10,,,,77,0
71520,note_on,5,0,7,,,,,,,,,10,,,,77,103
71520,set_tempo,60,1,0,,,,,,937500,,,,,,,,
71522,note_on,30,0,8,,,,,,,,,11,,,,57,0
71522,note_on,0,0,8,,,,,,,,,11,,,,60,74
71522,note_on,30,0,9,,,,,,,,,12,,,,53,0
71522,note_on,0,0,9,,,,,,,,,12,,,,57,72
71523,note_on,120,0,3,,,,,,,,,2,,,,57,83
71523,note_on,0,0,3,,,,,,,,,2,,,,60,83
71523,note_on,120,0,5,,,,,,,,,4,,,,53,82
71524,note_on,0,0,10,,,,,,,,,6,,,,45,62
71524,note_on,30,0,10,,,,,,,,,6,,,,48,0
71525,note_on,120,0,6,,,,,,,,,5,,,,41,82
71550,note_on,30,0,7,,,,,,,,,10,,,,77,0
71550,note_on,0,0,7,,,,,,,,,10,,,,75,115
71552,note_on,30,0,8,,,,,,,,,11,,,,60,0
71552,note_on,0,0,8,,,,,,,,,11,,,,57,74
71552,note_on,0,0,9,,,,,,,,,12,,,,53,72
71552,note_on,30,0,9,,,,,,,,,12,,,,57,0
71554,note_on,0,0,10,,,,,,,,,6,,,,48,62
71554,note_on,30,0,10,,,,,,,,,6,,,,45,0
71576,note_on,0,0,3,,,,,,,,,2,,,,57,0
71576,note_on,53,0,3,,,,,,,,,2,,,,60,0
71578,note_on,55,0,5,,,,,,,,,4,,,,53,0
71580,note_on,30,0,7,,,,,,,,,10,,,,75,0
71580,note_on,0,0,7,,,,,,,,,10,,,,72,115
71580,note_on,55,0,6,,,,,,,,,5,,,,41,0
71582,note_on,120,0,2,,,,,,,,,1,,,,72,0
71582,note_on,0,0,2,,,,,,,,,1,,,,69,0
71582,note_on,0,0,8,,,,,,,,,11,,,,60,74
71582,note_on,0,0,9,,,,,,,,,12,,,,57,72
71582,note_on,30,0,8,,,,,,,,,11,,,,57,0
71582,note_on,30,0,9,,,,,,,,,12,,,,53,0
71583,note_on,7,0,3,,,,,,,,,2,,,,57,83
71583,note_on,0,0,3,,,,,,,,,2,,,,60,83
71583,note_on,5,0,5,,,,,,,,,4,,,,53,82
71584,note_on,0,0,10,,,,,,,,,6,,,,45,62
71584,note_on,30,0,10,,,,,,,,,6,,,,48,0
71585,note_on,5,0,6,,,,,,,,,5,,,,41,82
71610,note_on,0,0,7,,,,,,,,,10,,,,69,115
71610,note_on,30,0,7,,,,,,,,,10,,,,72,0
71612,note_on,30,0,9,,,,,,,,,12,,,,57,0
71612,note_on,0,0,9,,,,,,,,,12,,,,53,72
71612,note_on,0,0,8,,,,,,,,,11,,,,57,74
71612,note_on,30,0,8,,,,,,,,,11,,,,60,0
71614,note_on,30,0,10,,,,,,,,,6,,,,45,0
71614,note_on,0,0,10,,,,,,,,,6,,,,48,62
71635,note_on,25,0,7,,,,,,,,,10,,,,69,0
71636,note_on,0,0,3,,,,,,,,,2,,,,57,0
71636,note_on,53,0,3,,,,,,,,,2,,,,60,0
71637,note_on,25,0,9,,,,,,,,,12,,,,53,0
71637,note_on,25,0,8,,,,,,,,,11,,,,57,0
71638,note_on,55,0,5,,,,,,,,,4,,,,53,0
71639,note_on,25,0,10,,,,,,,,,6,,,,48,0
71640,note_on,240,0,1,,,,,,,,,0,,,,86,83
71640,set_tempo,120,1,0,,,,,,1034483,,,,,,,,
71640,note_on,355,0,4,,,,,,,,,3,,,,41,0
71640,note_on,55,0,6,,,,,,,,,5,,,,41,0
71640,note_on,0,0,1,,,,,,,,,0,,,,82,83
71640,note_on,5,0,7,,,,,,,,,10,,,,72,115
71642,note_on,5,0,8,,,,,,,,,11,,,,62,74
71642,note_on,5,0,9,,,,,,,,,12,,,,58,72
71643,note_on,0,0,3,,,,,,,,,2,,,,62,83
71643,note_on,7,0,3,,,,,,,,,2,,,,58,83
71643,note_on,5,0,5,,,,,,,,,4,,,,53,82
71644,note_on,5,0,10,,,,,,,,,6,,,,46,62
71644,program_change,239,0,11,,,,,,,,45,13,,,,,
71645,note_on,5,0,6,,,,,,,,,5,,,,41,82
71645,note_on,5,0,4,,,,,,,,,3,,,,46,82
71645,note_on,0,0,11,,,,,,,,,13,,,,41,36
71645,control_change,1,0,11,,,,,,,,,13,11,100,,,
71647,program_change,239,0,12,,,,,,,,45,14,,,,,
71648,control_change,1,0,12,,,,,,,,,14,11,100,,,
71648,note_on,0,0,12,,,,,,,,,14,,,,29,30
71672,note_on,30,0,8,,,,,,,,,11,,,,62,0
71672,note_on,0,0,8,,,,,,,,,11,,,,58,74
71672,note_on,30,0,9,,,,,,,,,12,,,,58,0
71672,note_on,0,0,9,,,,,,,,,12,,,,53,72
71674,note_on,0,0,10,,,,,,,,,6,,,,50,62
71674,note_on,30,0,10,,,,,,,,,6,,,,46,0
71699,note_on,25,0,10,,,,,,,,,6,,,,41,0
71700,set_tempo,60,1,0,,,,,,937500,,,,,,,,
71702,note_on,30,0,9,,,,,,,,,12,,,,53,0
71702,note_on,0,0,8,,,,,,,,,11,,,,62,74
71702,note_on,30,0,8,,,,,,,,,11,,,,58,0
71702,note_on,0,0,9,,,,,,,,,12,,,,58,72
71702,note_on,120,0,2,,,,,,,,,1,,,,74,82
71702,note_on,0,0,2,,,,,,,,,1,,,,70,82
71704,note_on,0,0,10,,,,,,,,,6,,,,41,104
71704,note_on,0,0,10,,,,,,,,,6,,,,46,62
71704,note_on,5,0,10,,,,,,,,,6,,,,50,0
71732,note_on,30,0,8,,,,,,,,,11,,,,62,0
71732,note_on,30,0,9,,,,,,,,,12,,,,58,0
71732,note_on,0,0,9,,,,,,,,,12,,,,53,72
71732,note_on,0,0,8,,,,,,,,,11,,,,58,74
71734,note_on,0,0,10,,,,,,,,,6,,,,50,62
71734,note_on,30,0,10,,,,,,,,,6,,,,46,0
71755,note_on,53,0,2,,,,,,,,,1,,,,70,0
71755,note_on,0,0,2,,,,,,,,,1,,,,74,0
71760,note_on,120,0,7,,,,,,,,,10,,,,72,0
71760,note_on,120,0,1,,,,,,,,,0,,,,82,0
71760,note_on,0,0,7,,,,,,,,,10,,,,70,103
71760,note_on,0,0,1,,,,,,,,,0,,,,86,0
71762,note_on,7,0,2,,,,,,,,,1,,,,70,82
71762,note_on,0,0,8,,,,,,,,,11,,,,62,74
71762,note_on,30,0,8,,,,,,,,,11,,,,58,0
71762,note_on,30,0,9,,,,,,,,,12,,,,53,0
71762,note_on,0,0,9,,,,,,,,,12,,,,58,72
71762,note_on,0,0,2,,,,,,,,,1,,,,74,82
71763,note_on,120,0,5,,,,,,,,,4,,,,53,0
71763,note_on,0,0,3,,,,,,,,,2,,,,58,0
71763,note_on,120,0,3,,,,,,,,,2,,,,62,0
71764,note_on,30,0,10,,,,,,,,,6,,,,50,0
71764,note_on,0,0,10,,,,,,,,,6,,,,41,0
71764,note_on,0,0,10,,,,,,,,,6,,,,46,62
71764,note_on,0,0,10,,,,,,,,,6,,,,40,104
71765,note_on,120,0,6,,,,,,,,,5,,,,41,0
71765,note_on,120,0,11,,,,,,,,,13,,,,41,0
71768,note_on,120,0,12,,,,,,,,,14,,,,29,0
71792,note_on,0,0,8,,,,,,,,,11,,,,58,74
71792,note_on,30,0,8,,,,,,,,,11,,,,62,0
71792,note_on,0,0,9,,,,,,,,,12,,,,53,72
71792,note_on,30,0,9,,,,,,,,,12,,,,58,0
71794,note_on,0,0,10,,,,,,,,,6,,,,50,62
71794,note_on,30,0,10,,,,,,,,,6,,,,46,0
71815,note_on,53,0,2,,,,,,,,,1,,,,74,0
71815,note_on,0,0,2,,,,,,,,,1,,,,70,0
71820,set_tempo,120,1,0,,,,,,1034483,,,,,,,,
71822,note_on,0,0,2,,,,,,,,,1,,,,74,82
71822,note_on,0,0,8,,,,,,,,,11,,,,62,74
71822,note_on,30,0,8,,,,,,,,,11,,,,58,0
71822,note_on,0,0,9,,,,,,,,,12,,,,58,72
71822,note_on,7,0,2,,,,,,,,,1,,,,70,82
71822,note_on,30,0,9,,,,,,,,,12,,,,53,0
71824,note_on,0,0,10,,,,,,,,,6,,,,41,104
71824,note_on,0,0,10,,,,,,,,,6,,,,46,62
71824,note_on,30,0,10,,,,,,,,,6,,,,50,0
71824,note_on,0,0,10,,,,,,,,,6,,,,40,0
71852,note_on,0,0,9,,,,,,,,,12,,,,53,72
71852,note_on,30,0,9,,,,,,,,,12,,,,58,0
71852,note_on,30,0,8,,,,,,,,,11,,,,62,0
71852,note_on,0,0,8,,,,,,,,,11,,,,58,74
71854,note_on,0,0,10,,,,,,,,,6,,,,50,62
71854,note_on,30,0,10,,,,,,,,,6,,,,46,0
71875,note_on,115,0,7,,,,,,,,,10,,,,70,0
71880,set_tempo,60,1,0,,,,,,937500,,,,,,,,
71880,note_on,5,0,7,,,,,,,,,10,,,,70,103
71882,note_on,30,0,9,,,,,,,,,12,,,,53,0
71882,note_on,30,0,8,,,,,,,,,11,,,,58,0
71882,note_on,0,0,8,,,,,,,,,11,,,,62,74
71882,note_on,0,0,9,,,,,,,,,12,,,,58,72
71883,note_on,0,0,3,,,,,,,,,2,,,,62,83
71883,note_on,120,0,3,,,,,,,,,2,,,,58,83
71883,note_on,120,0,5,,,,,,,,,4,,,,53,82
71884,note_on,0,0,10,,,,,,,,,6,,,,46,62
71884,note_on,30,0,10,,,,,,,,,6,,,,50,0
71885,note_on,120,0,6,,,,,,,,,5,,,,41,82
71910,note_on,30,0,7,,,,,,,,,10,,,,70,0
71910,note_on,0,0,7,,,,,,,,,10,,,,65,115
71912,note_on,0,0,8,,,,,,,,,11,,,,58,74
71912,note_on,0,0,9,,,,,,,,,12,,,,53,72
71912,note_on,30,0,9,,,,,,,,,12,,,,58,0
71912,note_on,30,0,8,,,,,,,,,11,,,,62,0
71914,note_on,0,0,10,,,,,,,,,6,,,,50,62
71914,note_on,30,0,10,,,,,,,,,6,,,,46,0
71936,note_on,53,0,3,,,,,,,,,2,,,,62,0
71936,note_on,0,0,3,,,,,,,,,2,,,,58,0
71938,note_on,55,0,5,,,,,,,,,4,,,,53,0
71940,note_on,0,0,7,,,,,,,,,10,,,,62,115
71940,note_on,55,0,6,,,,,,,,,5,,,,41,0
71940,note_on,30,0,7,,,,,,,,,10,,,,65,0
71942,note_on,0,0,2,,,,,,,,,1,,,,70,0
71942,note_on,0,0,8,,,,,,,,,11,,,,62,74
71942,note_on,30,0,8,,,,,,,,,11,,,,58,0
71942,note_on,120,0,2,,,,,,,,,1,,,,74,0
71942,note_on,0,0,9,,,,,,,,,12,,,,58,72
71942,note_on,30,0,9,,,,,,,,,12,,,,53,0
71943,note_on,7,0,3,,,,,,,,,2,,,,62,83
71943,note_on,0,0,3,,,,,,,,,2,,,,58,83
71943,note_on,5,0,5,,,,,,,,,4,,,,53,82
71944,note_on,0,0,10,,,,,,,,,6,,,,46,62
71944,note_on,30,0,10,,,,,,,,,6,,,,50,0
71945,note_on,5,0,6,,,,,,,,,5,,,,41,82
71970,note_on,0,0,7,,,,,,,,,10,,,,58,115
71970,note_on,30,0,7,,,,,,,,,10,,,,62,0
71972,note_on,30,0,8,,,,,,,,,11,,,,62,0
71972,note_on,30,0,9,,,,,,,,,12,,,,58,0
71972,note_on,0,0,8,,,,,,,,,11,,,,58,74
71972,note_on,0,0,9,,,,,,,,,12,,,,53,72
71974,note_on,0,0,10,,,,,,,,,6,,,,50,62
71974,note_on,30,0,10,,,,,,,,,6,,,,46,0
71995,note_on,25,0,7,,,,,,,,,10,,,,58,0
71996,note_on,0,0,3,,,,,,,,,2,,,,62,0
71996,note_on,53,0,3,,,,,,,,,2,,,,58,0
71997,note_on,25,0,8,,,,,,,,,11,,,,58,0
71997,note_on,25,0,9,,,,,,,,,12,,,,53,0
71998,note_on,55,0,5,,,,,,,,,4,,,,53,0
71999,note_on,25,0,10,,,,,,,,,6,,,,50,0
72000,note_on,240,0,1,,,,,,,,,0,,,,84,83
72000,note_on,5,0,7,,,,,,,,,10,,,,57,123
72000,set_tempo,120,1,0,,,,,,1034483,,,,,,,,
72000,note_on,55,0,6,,,,,,,,,5,,,,41,0
72000,note_on,355,0,4,,,,,,,,,3,,,,46,0
72000,note_on,0,0,1,,,,,,,,,0,,,,77,83
72002,note_on,5,0,8,,,,,,,,,11,,,,63,74
72002,note_on,5,0,9,,,,,,,,,12,,,,60,72
72003,note_on,7,0,3,,,,,,,,,2,,,,60,83
72003,note_on,0,0,3,,,,,,,,,2,,,,63,83
72003,note_on,5,0,5,,,,,,,,,4,,,,53,82
72005,note_on,240,0,11,,,,,,,,,13,,,,41,36
72005,note_on,5,0,4,,,,,,,,,3,,,,48,82
72005,note_on,5,0,6,,,,,,,,,5,,,,41,82
72008,note_on,240,0,12,,,,,,,,,14,,,,29,30
72010,note_on,10,0,7,,,,,,,,,10,,,,57,0
72010,note_on,0,0,7,,,,,,,,,10,,,,58,123
72020,note_on,10,0,7,,,,,,,,,10,,,,58,0
72020,note_on,0,0,7,,,,,,,,,10,,,,60,123
72030,note_on,10,0,7,,,,,,,,,10,,,,60,0
72030,note_on,0,0,7,,,,,,,,,10,,,,58,115
72032,note_on,0,0,9,,,,,,,,,12,,,,53,72
72032,note_on,30,0,8,,,,,,,,,11,,,,63,0
72032,note_on,0,0,8,,,,,,,,,11,,,,60,74
72032,note_on,30,0,9,,,,,,,,,12,,,,60,0
72034,note_on,35,0,10,,,,,,,,,6,,,,48,62
72059,note_on,25,0,10,,,,,,,,,6,,,,41,0
72060,set_tempo,60,1,0,,,,,,937500,,,,,,,,
72062,note_on,30,0,8,,,,,,,,,11,,,,60,0
72062,note_on,120,0,2,,,,,,,,,1,,,,75,82
72062,note_on,0,0,2,,,,,,,,,1,,,,69,82
72062,note_on,30,0,9,,,,,,,,,12,,,,53,0
72062,note_on,0,0,9,,,,,,,,,12,,,,60,72
72062,note_on,0,0,8,,,,,,,,,11,,,,63,74
72064,note_on,0,0,10,,,,,,,,,6,,,,41,104
72064,note_on,0,0,10,,,,,,,,,6,,,,45,62
72064,note_on,5,0,10,,,,,,,,,6,,,,48,0
72092,note_on,0,0,9,,,,,,,,,12,,,,53,72
72092,note_on,30,0,9,,,,,,,,,12,,,,60,0
72092,note_on,0,0,8,,,,,,,,,11,,,,60,74
72092,note_on,30,0,8,,,,,,,,,11,,,,63,0
72094,note_on,0,0,10,,,,,,,,,6,,,,48,62
72094,note_on,30,0,10,,,,,,,,,6,,,,45,0
72115,note_on,0,0,2,,,,,,,,,1,,,,75,0
72115,note_on,53,0,2,,,,,,,,,1,,,,69,0
72120,note_on,90,0,7,,,,,,,,,10,,,,58,0
72120,note_on,0,0,1,,,,,,,,,0,,,,84,0
72120,note_on,120,0,1,,,,,,,,,0,,,,77,0
72120,note_on,0,0,7,,,,,,,,,10,,,,57,115
72122,note_on,30,0,9,,,,,,,,,12,,,,53,0
72122,note_on,30,0,8,,,,,,,,,11,,,,60,0
72122,note_on,0,0,2,,,,,,,,,1,,,,69,82
72122,note_on,7,0,2,,,,,,,,,1,,,,75,82
72122,note_on,0,0,9,,,,,,,,,12,,,,60,72
72122,note_on,0,0,8,,,,,,,,,11,,,,63,74
72123,note_on,120,0,3,,,,,,,,,2,,,,63,0
72123,note_on,0,0,3,,,,,,,,,2,,,,60,0
72124,note_on,30,0,10,,,,,,,,,6,,,,48,0
72124,note_on,0,0,10,,,,,,,,,6,,,,41,0
72124,note_on,0,0,10,,,,,,,,,6,,,,45,62
72124,note_on,0,0,10,,,,,,,,,6,,,,40,104
72125,note_on,120,0,11,,,,,,,,,13,,,,41,0
72128,note_on,120,0,12,,,,,,,,,14,,,,29,0
72152,note_on,30,0,8,,,,,,,,,11,,,,63,0
72152,note_on,30,0,9,,,,,,,,,12,,,,60,0
72152,note_on,0,0,9,,,,,,,,,12,,,,53,72
72152,note_on,0,0,8,,,,,,,,,11,,,,60,74
72154,note_on,30,0,10,,,,,,,,,6,,,,45,0
72154,note_on,0,0,10,,,,,,,,,6,,,,48,62
72175,note_on,0,0,2,,,,,,,,,1,,,,75,0
72175,note_on,53,0,2,,,,,,,,,1,,,,69,0
72180,set_tempo,120,1,0,,,,,,1034483,,,,,,,,
72182,note_on,30,0,8,,,,,,,,,11,,,,60,0
72182,note_on,0,0,2,,,,,,,,,1,,,,75,82
72182,note_on,0,0,8,,,,,,,,,11,,,,63,74
72182,note_on,30,0,9,,,,,,,,,12,,,,53,0
72182,note_on,7,0,2,,,,,,,,,1,,,,69,82
72182,note_on,0,0,9,,,,,,,,,12,,,,60,72
72184,note_on,0,0,10,,,,,,,,,6,,,,40,0
72184,note_on,30,0,10,,,,,,,,,6,,,,48,0
72184,note_on,0,0,10,,,,,,,,,6,,,,41,104
72184,note_on,0,0,10,,,,,,,,,6,,,,45,62
72212,note_on,0,0,9,,,,,,,,,12,,,,53,72
72212,note_on,0,0,8,,,,,,,,,11,,,,60,74
72212,note_on,30,0,8,,,,,,,,,11,,,,63,0
72212,note_on,30,0,9,,,,,,,,,12,,,,60,0
72214,note_on,30,0,10,,,,,,,,,6,,,,45,0
72214,note_on,0,0,10,,,,,,,,,6,,,,48,62
72235,note_on,115,0,7,,,,,,,,,10,,,,57,0
72240,note_on,5,0,7,,,,,,,,,10,,,,57,103
72240,set_tempo,60,1,0,,,,,,937500,,,,,,,,
72242,note_on,0,0,8,,,,,,,,,11,,,,63,74
72242,note_on,0,0,9,,,,,,,,,12,,,,60,72
72242,note_on,30,0,9,,,,,,,,,12,,,,53,0
72242,note_on,30,0,8,,,,,,,,,11,,,,60,0
72243,note_on,0,0,3,,,,,,,,,2,,,,60,83
72243,note_on,120,0,3,,,,,,,,,2,,,,63,83
72244,note_on,0,0,10,,,,,,,,,6,,,,45,62
72244,note_on,30,0,10,,,,,,,,,6,,,,48,0
72270,note_on,0,0,7,,,,,,,,,10,,,,60,115
72270,note_on,30,0,7,,,,,,,,,10,,,,57,0
72272,note_on,0,0,9,,,,,,,,,12,,,,53,72
72272,note_on,30,0,9,,,,,,,,,12,,,,60,0
72272,note_on,0,0,8,,,,,,,,,11,,,,60,74
72272,note_on,30,0,8,,,,,,,,,11,,,,63,0
72274,note_on,30,0,10,,,,,,,,,6,,,,45,0
72274,note_on,0,0,10,,,,,,,,,6,,,,48,62
72296,note_on,0,0,3,,,,,,,,,2,,,,63,0
72296,note_on,53,0,3,,,,,,,,,2,,,,60,0
72300,note_on,30,0,7,,,,,,,,,10,,,,60,0
72300,note_on,0,0,7,,,,,,,,,10,,,,65,115
72302,note_on,0,0,8,,,,,,,,,11,,,,63,74
72302,note_on,30,0,8,,,,,,,,,11,,,,60,0
72302,note_on,30,0,9,,,,,,,,,12,,,,53,0
72302,note_on,0,0,9,,,,,,,,,12,,,,60,72
72302,note_on,0,0,2,,,,,,,,,1,,,,69,0
72302,note_on,120,0,2,,,,,,,,,1,,,,75,0
72303,note_on,7,0,3,,,,,,,,,2,,,,60,83
72303,note_on,0,0,3,,,,,,,,,2,,,,63,83
72304,note_on,0,0,10,,,,,,,,,6,,,,45,62
72304,note_on,30,0,10,,,,,,,,,6,,,,48,0
72330,note_on,0,0,7,,,,,,,,,10,,,,69,115
72330,note_on,30,0,7,,,,,,,,,10,,,,65,0
72332,note_on,0,0,9,,,,,,,,,12,,,,53,72
72332,note_on,30,0,8,,,,,,,,,11,,,,63,0
72332,note_on,0,0,8,,,,,,,,,11,,,,60,74
72332,note_on,30,0,9,,,,,,,,,12,,,,60,0
72334,note_on,0,0,10,,,,,,,,,6,,,,48,62
72334,note_on,30,0,10,,,,,,,,,6,,,,45,0
72355,note_on,25,0,7,,,,,,,,,10,,,,69,0
72356,note_on,0,0,3,,,,,,,,,2,,,,60,0
72356,note_on,53,0,3,,,,,,,,,2,,,,63,0
72357,note_on,25,0,9,,,,,,,,,12,,,,53,0
72357,note_on,25,0,8,,,,,,,,,11,,,,60,0
72358,note_on,355,0,5,,,,,,,,,4,,,,53,0
72359,note_on,25,0,10,,,,,,,,,6,,,,48,0
72360,note_on,355,0,4,,,,,,,,,3,,,,48,0
72360,note_on,355,0,6,,,,,,,,,5,,,,41,0
72360,note_on,240,0,1,,,,,,,,,0,,,,82,83
72360,note_on,0,0,1,,,,,,,,,0,,,,74,83
72360,note_on,5,0,7,,,,,,,,,10,,,,72,115
72360,set_tempo,120,1,0,,,,,,1034483,,,,,,,,
72362,note_on,5,0,8,,,,,,,,,11,,,,62,74
72362,note_on,5,0,9,,,,,,,,,12,,,,58,72
72363,note_on,5,0,5,,,,,,,,,4,,,,58,82
72363,note_on,0,0,3,,,,,,,,,2,,,,58,83
72363,note_on,7,0,3,,,,,,,,,2,,,,62,83
72364,note_on,5,0,10,,,,,,,,,6,,,,46,62
72365,note_on,240,0,11,,,,,,,,,13,,,,41,36
72365,note_on,5,0,4,,,,,,,,,3,,,,46,82
72365,note_on,5,0,6,,,,,,,,,5,,,,46,82
72368,note_on,240,0,12,,,,,,,,,14,,,,29,30
72392,note_on,0,0,8,,,,,,,,,11,,,,58,74
72392,note_on,30,0,8,,,,,,,,,11,,,,62,0
72392,note_on,0,0,9,,,,,,,,,12,,,,53,72
72392,note_on,30,0,9,,,,,,,,,12,,,,58,0
72394,note_on,30,0,10,,,,,,,,,6,,,,46,0
72394,note_on,0,0,10,,,,,,,,,6,,,,50,62
72419,note_on,25,0,10,,,,,,,,,6,,,,41,0
72420,set_tempo,60,1,0,,,,,,937500,,,,,,,,
72422,note_on,30,0,8,,,,,,,,,11,,,,58,0
72422,note_on,0,0,8,,,,,,,,,11,,,,62,74
72422,note_on,120,0,2,,,,,,,,,1,,,,70,82
72422,note_on,0,0,2,,,,,,,,,1,,,,74,82
72422,note_on,0,0,9,,,,,,,,,12,,,,58,72
72422,note_on,30,0,9,,,,,,,,,12,,,,53,0
72424,note_on,0,0,10,,,,,,,,,6,,,,41,104
72424,note_on,0,0,10,,,,,,,,,6,,,,46,62
72424,note_on,5,0,10,,,,,,,,,6,,,,50,0
72452,note_on,30,0,9,,,,,,,,,12,,,,58,0
72452,note_on,0,0,8,,,,,,,,,11,,,,58,74
72452,note_on,30,0,8,,,,,,,,,11,,,,62,0
72452,note_on,0,0,9,,,,,,,,,12,,,,53,72
72454,note_on,30,0,10,,,,,,,,,6,,,,46,0
72454,note_on,0,0,10,,,,,,,,,6,,,,50,62
72475,note_on,0,0,2,,,,,,,,,1,,,,70,0
72475,note_on,53,0,2,,,,,,,,,1,,,,74,0
72480,note_on,120,0,1,,,,,,,,,0,,,,74,0
72480,note_on,0,0,1,,,,,,,,,0,,,,82,0
72480,note_on,0,0,7,,,,,,,,,10,,,,70,115
72480,note_on,120,0,7,,,,,,,,,10,,,,72,0
72482,note_on,0,0,9,,,,,,,,,12,,,,58,72
72482,note_on,0,0,2,,,,,,,,,1,,,,74,82
72482,note_on,30,0,9,,,,,,,,,12,,,,53,0
72482,note_on,30,0,8,,,,,,,,,11,,,,58,0
72482,note_on,0,0,8,,,,,,,,,11,,,,62,74
72482,note_on,7,0,2,,,,,,,,,1,,,,70,82
72483,note_on,0,0,3,,,,,,,,,2,,,,62,0
72483,note_on,120,0,3,,,,,,,,,2,,,,58,0
72484,note_on,0,0,10,,,,,,,,,6,,,,41,0
72484,note_on,0,0,10,,,,,,,,,6,,,,40,104
72484,note_on,0,0,10,,,,,,,,,6,,,,46,62
72484,note_on,30,0,10,,,,,,,,,6,,,,50,0
72485,note_on,120,0,11,,,,,,,,,13,,,,41,0
72488,note_on,120,0,12,,,,,,,,,14,,,,29,0
72512,note_on,0,0,8,,,,,,,,,11,,,,58,74
72512,note_on,30,0,8,,,,,,,,,11,,,,62,0
72512,note_on,30,0,9,,,,,,,,,12,,,,58,0
72512,note_on,0,0,9,,,,,,,,,12,,,,53,72
72514,note_on,0,0,10,,,,,,,,,6,,,,50,62
72514,note_on,30,0,10,,,,,,,,,6,,,,46,0
72535,note_on,53,0,2,,,,,,,,,1,,,,74,0
72535,note_on,0,0,2,,,,,,,,,1,,,,70,0
72540,set_tempo,120,1,0,,,,,,1034483,,,,,,,,
72542,note_on,0,0,9,,,,,,,,,12,,,,58,72
72542,note_on,7,0,2,,,,,,,,,1,,,,70,82
72542,note_on,0,0,2,,,,,,,,,1,,,,74,82
72542,note_on,30,0,9,,,,,,,,,12,,,,53,0
72542,note_on,0,0,8,,,,,,,,,11,,,,62,74
72542,note_on,30,0,8,,,,,,,,,11,,,,58,0
72544,note_on,0,0,10,,,,,,,,,6,,,,41,104
72544,note_on,30,0,10,,,,,,,,,6,,,,50,0
72544,note_on,0,0,10,,,,,,,,,6,,,,40,0
72544,note_on,0,0,10,,,,,,,,,6,,,,46,62
72572,note_on,30,0,8,,,,,,,,,11,,,,62,0
72572,note_on,0,0,8,,,,,,,,,11,,,,58,74
72572,note_on,0,0,9,,,,,,,,,12,,,,53,72
72572,note_on,30,0,9,,,,,,,,,12,,,,58,0
72574,note_on,0,0,10,,,,,,,,,6,,,,50,62
72574,note_on,30,0,10,,,,,,,,,6,,,,46,0
72595,note_on,115,0,7,,,,,,,,,10,,,,70,0
72600,note_on,5,0,7,,,,,,,,,10,,,,72,103
72600,set_tempo,60,1,0,,,,,,937500,,,,,,,,
72602,note_on,30,0,9,,,,,,,,,12,,,,53,0
72602,note_on,0,0,9,,,,,,,,,12,,,,58,72
72602,note_on,30,0,8,,,,,,,,,11,,,,58,0
72602,note_on,0,0,8,,,,,,,,,11,,,,62,74
72603,note_on,120,0,3,,,,,,,,,2,,,,62,83
72603,note_on,0,0,3,,,,,,,,,2,,,,58,83
72604,note_on,0,0,10,,,,,,,,,6,,,,46,62
72604,note_on,30,0,10,,,,,,,,,6,,,,50,0
72615,note_on,15,0,7,,,,,,,,,10,,,,72,0
72615,note_on,0,0,7,,,,,,,,,10,,,,70,103
72630,note_on,15,0,7,,,,,,,,,10,,,,70,0
72630,note_on,0,0,7,,,,,,,,,10,,,,69,103
72632,note_on,0,0,8,,,,,,,,,11,,,,58,74
72632,note_on,0,0,9,,,,,,,,,12,,,,53,72
72632,note_on,30,0,8,,,,,,,,,11,,,,62,0
72632,note_on,30,0,9,,,,,,,,,12,,,,58,0
72634,note_on,30,0,10,,,,,,,,,6,,,,46,0
72634,note_on,0,0,10,,,,,,,,,6,,,,50,62
72656,note_on,0,0,3,,,,,,,,,2,,,,62,0
72656,note_on,53,0,3,,,,,,,,,2,,,,58,0
72660,note_on,0,0,7,,,,,,,,,10,,,,70,103
72660,note_on,30,0,7,,,,,,,,,10,,,,69,0
72662,note_on,0,0,9,,,,,,,,,12,,,,58,72
72662,note_on,120,0,2,,,,,,,,,1,,,,74,0
72662,note_on,0,0,2,,,,,,,,,1,,,,70,0
72662,note_on,30,0,8,,,,,,,,,11,,,,58,0
72662,note_on,30,0,9,,,,,,,,,12,,,,53,0
72662,note_on,0,0,8,,,,,,,,,11,,,,62,74
72663,note_on,7,0,3,,,,,,,,,2,,,,62,83
72663,note_on,0,0,3,,,,,,,,,2,,,,58,83
72664,note_on,0,0,10,,,,,,,,,6,,,,46,62
72664,note_on,30,0,10,,,,,,,,,6,,,,50,0
72690,note_on,30,0,7,,,,,,,,,10,,,,70,0
72690,note_on,0,0,7,,,,,,,,,10,,,,74,103
72692,note_on,30,0,9,,,,,,,,,12,,,,58,0
72692,note_on,30,0,8,,,,,,,,,11,,,,62,0
72692,note_on,0,0,8,,,,,,,,,11,,,,58,74
72692,note_on,0,0,9,,,,,,,,,12,,,,53,72
72694,note_on,30,0,10,,,,,,,,,6,,,,46,0
72694,note_on,0,0,10,,,,,,,,,6,,,,50,62
72715,note_on,25,0,7,,,,,,,,,10,,,,74,0
72716,note_on,0,0,3,,,,,,,,,2,,,,62,0
72716,note_on,53,0,3,,,,,,,,,2,,,,58,0
72717,note_on,25,0,8,,,,,,,,,11,,,,58,0
72717,note_on,25,0,9,,,,,,,,,12,,,,53,0
72718,note_on,355,0,5,,,,,,,,,4,,,,58,0
72719,note_on,25,0,10,,,,,,,,,6,,,,50,0
72719,note_on,0,0,10,,,,,,,,,6,,,,41,0
72720,note_on,355,0,6,,,,,,,,,5,,,,46,0
72720,note_on,0,0,7,,,,,,,,,10,,,,77,103
72720,control_change,240,0,1,,,,,,,,,0,11,54,,,
72720,note_on,0,0,1,,,,,,,,,0,,,,81,83
72720,control_change,5,0,7,,,,,,,,,10,11,47,,,
72720,set_tempo,120,1,0,,,,,,1034483,,,,,,,,
72720,note_on,355,0,4,,,,,,,,,3,,,,46,0
72720,note_on,0,0,1,,,,,,,,,0,,,,84,83
72722,note_on,0,0,9,,,,,,,,,12,,,,57,72
72722,control_change,5,0,8,,,,,,,,,11,11,47,,,
72722,note_on,0,0,8,,,,,,,,,11,,,,60,74
72722,control_change,5,0,9,,,,,,,,,12,11,47,,,
72722,note_on,0,0,2,,,,,,,,,1,,,,77,82
72722,control_change,60,0,2,,,,,,,,,1,11,54,,,
72722,note_on,0,0,2,,,,,,,,,1,,,,69,82
72723,note_on,0,0,5,,,,,,,,,4,,,,53,82
72723,control_change,5,0,5,,,,,,,,,4,11,42,,,
72723,note_on,0,0,3,,,,,,,,,2,,,,57,83
72723,note_on,0,0,3,,,,,,,,,2,,,,65,83
72723,control_change,7,0,3,,,,,,,,,2,11,54,,,
72724,note_on,0,0,10,,,,,,,,,6,,,,45,52
72724,note_on,0,0,10,,,,,,,,,6,,,,41,52
72724,control_change,5,0,10,,,,,,,,,6,11,47,,,
72725,control_change,5,0,6,,,,,,,,,5,11,42,,,
72725,note_on,0,0,6,,,,,,,,,5,,,,41,82
72725,control_change,5,0,4,,,,,,,,,3,11,54,,,
72725,note_on,240,0,11,,,,,,,,,13,,,,41,36
72728,note_on,240,0,12,,,,,,,,,14,,,,29,30
72742,control_change,22,0,1,,,,,,,,,0,11,55,,,
72744,control_change,22,0,2,,,,,,,,,1,11,55,,,
72745,control_change,22,0,3,,,,,,,,,2,11,55,,,
72747,control_change,22,0,4,,,,,,,,,3,11,55,,,
72747,control_change,24,0,5,,,,,,,,,4,11,44,,,
72748,control_change,28,0,7,,,,,,,,,10,11,49,,,
72749,control_change,24,0,6,,,,,,,,,5,11,44,,,
72750,control_change,28,0,9,,,,,,,,,12,11,49,,,
72750,note_on,2,0,7,,,,,,,,,10,,,,77,0
72750,note_on,0,0,7,,,,,,,,,10,,,,72,103
72750,control_change,28,0,8,,,,,,,,,11,11,49,,,
72752,note_on,2,0,9,,,,,,,,,12,,,,57,0
72752,control_change,28,0,10,,,,,,,,,6,11,49,,,
72752,note_on,0,0,8,,,,,,,,,11,,,,57,74
72752,note_on,2,0,8,,,,,,,,,11,,,,60,0
72752,note_on,0,0,9,,,,,,,,,12,,,,53,72
72754,note_on,0,0,10,,,,,,,,,6,,,,41,0
72754,note_on,0,0,10,,,,,,,,,6,,,,48,52
72754,note_on,0,0,10,,,,,,,,,6,,,,45,52
72754,note_on,2,0,10,,,,,,,,,6,,,,45,0
72763,control_change,13,0,7,,,,,,,,,10,11,50,,,
72764,control_change,22,0,1,,,,,,,,,0,11,57,,,
72765,control_change,13,0,8,,,,,,,,,11,11,50,,,
72765,control_change,13,0,9,,,,,,,,,12,11,50,,,
72766,control_change,22,0,2,,,,,,,,,1,11,57,,,
72767,control_change,13,0,10,,,,,,,,,6,11,50,,,
72767,control_change,22,0,3,,,,,,,,,2,11,57,,,
72769,control_change,22,0,4,,,,,,,,,3,11,57,,,
72771,control_change,24,0,5,,,,,,,,,4,11,46,,,
72773,control_change,24,0,6,,,,,,,,,5,11,46,,,
72780,set_tempo,60,1,0,,,,,,937500,,,,,,,,
72780,note_on,17,0,7,,,,,,,,,10,,,,72,0
72780,note_on,0,0,7,,,,,,,,,10,,,,69,103
72782,note_on,17,0,8,,,,,,,,,11,,,,57,0
72782,note_on,0,0,8,,,,,,,,,11,,,,60,74
72782,note_on,0,0,9,,,,,,,,,12,,,,57,72
72782,note_on,17,0,9,,,,,,,,,12,,,,53,0
72784,note_on,0,0,10,,,,,,,,,6,,,,45,52
72784,note_on,0,0,10,,,,,,,,,6,,,,41,52
72784,note_on,0,0,10,,,,,,,,,6,,,,45,0
72784,note_on,17,0,10,,,,,,,,,6,,,,48,0
72787,control_change,23,0,1,,,,,,,,,0,11,59,,,
72789,control_change,23,0,2,,,,,,,,,1,11,59,,,
72790,control_change,23,0,3,,,,,,,,,2,11,59,,,
72792,control_change,23,0,4,,,,,,,,,3,11,59,,,
72792,control_change,12,0,7,,,,,,,,,10,11,52,,,
72794,control_change,12,0,9,,,,,,,,,12,11,52,,,
72794,control_change,12,0,8,,,,,,,,,11,11,52,,,
72795,control_change,24,0,5,,,,,,,,,4,11,48,,,
72796,control_change,12,0,10,,,,,,,,,6,11,52,,,
72797,control_change,24,0,6,,,,,,,,,5,11,48,,,
72809,control_change,22,0,1,,,,,,,,,0,11,61,,,
72810,note_on,18,0,7,,,,,,,,,10,,,,69,0
72810,note_on,0,0,7,,,,,,,,,10,,,,65,103
72811,control_change,22,0,2,,,,,,,,,1,11,61,,,
72812,note_on,0,0,9,,,,,,,,,12,,,,53,72
72812,note_on,18,0,9,,,,,,,,,12,,,,57,0
72812,note_on,18,0,8,,,,,,,,,11,,,,60,0
72812,control_change,22,0,3,,,,,,,,,2,11,61,,,
72812,note_on,0,0,8,,,,,,,,,11,,,,57,74
72814,note_on,0,0,10,,,,,,,,,6,,,,45,0
72814,note_on,0,0,10,,,,,,,,,6,,,,45,52
72814,note_on,0,0,10,,,,,,,,,6,,,,48,52
72814,note_on,18,0,10,,,,,,,,,6,,,,41,0
72814,control_change,22,0,4,,,,,,,,,3,11,61,,,
72819,control_change,24,0,5,,,,,,,,,4,11,50,,,
72820,control_change,10,0,7,,,,,,,,,10,11,54,,,
72821,control_change,24,0,6,,,,,,,,,5,11,50,,,
72822,control_change,10,0,9,,,,,,,,,12,11,54,,,
72822,control_change,10,0,8,,,,,,,,,11,11,54,,,
72824,control_change,10,0,10,,,,,,,,,6,11,54,,,
72832,control_change,23,0,1,,,,,,,,,0,11,62,,,
72834,control_change,23,0,2,,,,,,,,,1,11,62,,,
72835,control_change,15,0,7,,,,,,,,,10,11,55,,,
72835,control_change,23,0,3,,,,,,,,,2,11,62,,,
72837,control_change,15,0,8,,,,,,,,,11,11,55,,,
72837,control_change,15,0,9,,,,,,,,,12,11,55,,,
72837,control_change,23,0,4,,,,,,,,,3,11,62,,,
72839,control_change,15,0,10,,,,,,,,,6,11,55,,,
72840,note_on,5,0,7,,,,,,,,,10,,,,65,0
72840,note_on,0,0,7,,,,,,,,,10,,,,77,103
72842,note_on,5,0,8,,,,,,,,,11,,,,57,0
72842,note_on,5,0,9,,,,,,,,,12,,,,53,0
72842,note_on,0,0,9,,,,,,,,,12,,,,57,72
72842,note_on,0,0,8,,,,,,,,,11,,,,60,74
72843,control_change,24,0,5,,,,,,,,,4,11,52,,,
72844,note_on,5,0,10,,,,,,,,,6,,,,45,0
72844,note_on,0,0,10,,,,,,,,,6,,,,48,0
72844,note_on,0,0,10,,,,,,,,,6,,,,41,52
72844,note_on,0,0,10,,,,,,,,,6,,,,45,52
72845,control_change,24,0,6,,,,,,,,,5,11,52,,,
72845,note_on,120,0,11,,,,,,,,,13,,,,41,0
72848,note_on,120,0,12,,,,,,,,,14,,,,29,0
72854,control_change,22,0,1,,,,,,,,,0,11,64,,,
72856,control_change,22,0,2,,,,,,,,,1,11,64,,,
72857,control_change,22,0,3,,,,,,,,,2,11,64,,,
72859,control_change,22,0,4,,,,,,,,,3,11,64,,,
72864,control_change,24,0,7,,,,,,,,,10,11,57,,,
72866,control_change,24,0,8,,,,,,,,,11,11,57,,,
72866,control_change,24,0,9,,,,,,,,,12,11,57,,,
72867,control_change,24,0,5,,,,,,,,,4,11,54,,,
72868,control_change,24,0,10,,,,,,,,,6,11,57,,,
72869,control_change,24,0,6,,,,,,,,,5,11,54,,,
72870,note_on,0,0,7,,,,,,,,,10,,,,72,103
72870,note_on,6,0,7,,,,,,,,,10,,,,77,0
72872,note_on,0,0,8,,,,,,,,,11,,,,57,74
72872,note_on,0,0,9,,,,,,,,,12,,,,53,72
72872,note_on,6,0,9,,,,,,,,,12,,,,57,0
72872,note_on,6,0,8,,,,,,,,,11,,,,60,0
72874,note_on,6,0,10,,,,,,,,,6,,,,45,0
72874,note_on,0,0,10,,,,,,,,,6,,,,41,0
72874,note_on,0,0,10,,,,,,,,,6,,,,48,52
72874,note_on,0,0,10,,,,,,,,,6,,,,45,52
72877,control_change,23,0,1,,,,,,,,,0,11,65,,,
72879,control_change,23,0,2,,,,,,,,,1,11,65,,,
72880,control_change,23,0,3,,,,,,,,,2,11,65,,,
72882,control_change,23,0,4,,,,,,,,,3,11,65,,,
72891,control_change,24,0,5,,,,,,,,,4,11,56,,,
72892,control_change,22,0,7,,,,,,,,,10,11,59,,,
72893,control_change,24,0,6,,,,,,,,,5,11,56,,,
72894,control_change,22,0,9,,,,,,,,,12,11,59,,,
72894,control_change,22,0,8,,,,,,,,,11,11,59,,,
72896,control_change,22,0,10,,,,,,,,,6,11,59,,,
72899,control_change,22,0,1,,,,,,,,,0,11,67,,,
72900,note_on,8,0,7,,,,,,,,,10,,,,72,0
72900,set_tempo,120,1,0,,,,,,1061947,,,,,,,,
72900,note_on,0,0,7,,,,,,,,,10,,,,69,103
72901,control_change,22,0,2,,,,,,,,,1,11,67,,,
72902,note_on,8,0,9,,,,,,,,,12,,,,53,0
72902,note_on,0,0,9,,,,,,,,,12,,,,57,72
72902,control_change,22,0,3,,,,,,,,,2,11,67,,,
72902,note_on,8,0,8,,,,,,,,,11,,,,57,0
72902,note_on,0,0,8,,,,,,,,,11,,,,60,74
72904,note_on,0,0,10,,,,,,,,,6,,,,45,52
72904,note_on,0,0,10,,,,,,,,,6,,,,41,52
72904,note_on,8,0,10,,,,,,,,,6,,,,45,0
72904,control_change,22,0,4,,,,,,,,,3,11,67,,,
72904,note_on,0,0,10,,,,,,,,,6,,,,48,0
72905,note_on,0,0,4,,,,,,,,,3,,,,57,82
72905,note_on,1,0,4,,,,,,,,,3,,,,60,82
72905,note_on,60,0,11,,,,,,,,,13,,,,53,36
72907,control_change,7,0,7,,,,,,,,,10,11,60,,,
72908,note_on,60,0,12,,,,,,,,,14,,,,41,30
72909,control_change,7,0,9,,,,,,,,,12,11,60,,,
72909,control_change,7,0,8,,,,,,,,,11,11,60,,,
72911,control_change,7,0,10,,,,,,,,,6,11,60,,,
72915,control_change,24,0,5,,,,,,,,,4,11,58,,,
72917,control_change,24,0,6,,,,,,,,,5,11,58,,,
72921,control_change,22,0,1,,,,,,,,,0,11,69,,,
72923,control_change,22,0,2,,,,,,,,,1,11,69,,,
72924,control_change,22,0,3,,,,,,,,,2,11,69,,,
72926,control_change,21,0,4,,,,,,,,,3,11,69,,,
72930,note_on,23,0,7,,,,,,,,,10,,,,69,0
72930,note_on,0,0,7,,,,,,,,,10,,,,65,103
72932,note_on,23,0,9,,,,,,,,,12,,,,57,0
72932,note_on,0,0,9,,,,,,,,,12,,,,53,72
72932,note_on,0,0,8,,,,,,,,,11,,,,57,74
72932,note_on,23,0,8,,,,,,,,,11,,,,60,0
72934,note_on,0,0,10,,,,,,,,,6,,,,48,52
72934,note_on,0,0,10,,,,,,,,,6,,,,41,0
72934,note_on,0,0,10,,,,,,,,,6,,,,45,52
72934,note_on,23,0,10,,,,,,,,,6,,,,45,0
72936,control_change,6,0,7,,,,,,,,,10,11,62,,,
72938,control_change,6,0,8,,,,,,,,,11,11,62,,,
72938,control_change,6,0,9,,,,,,,,,12,11,62,,,
72939,control_change,24,0,5,,,,,,,,,4,11,60,,,
72940,control_change,6,0,10,,,,,,,,,6,11,62,,,
72941,control_change,24,0,6,,,,,,,,,5,11,60,,,
72944,control_change,23,0,1,,,,,,,,,0,11,70,,,
72946,control_change,23,0,2,,,,,,,,,1,11,70,,,
72947,control_change,23,0,3,,,,,,,,,2,11,70,,,
72949,control_change,23,0,4,,,,,,,,,3,11,70,,,
72960,set_tempo,60,1,0,,,,,,960000,,,,,,,,
72960,note_on,0,0,7,,,,,,,,,10,,,,77,103
72960,note_on,24,0,7,,,,,,,,,10,,,,65,0
72962,note_on,24,0,8,,,,,,,,,11,,,,57,0
72962,note_on,0,0,9,,,,,,,,,12,,,,57,72
72962,note_on,24,0,9,,,,,,,,,12,,,,53,0
72962,note_on,0,0,8,,,,,,,,,11,,,,60,74
72963,control_change,24,0,5,,,,,,,,,4,11,62,,,
72964,note_on,0,0,10,,,,,,,,,6,,,,41,52
72964,note_on,0,0,10,,,,,,,,,6,,,,45,52
72964,note_on,0,0,10,,,,,,,,,6,,,,48,0
72964,note_on,24,0,10,,,,,,,,,6,,,,45,0
72964,control_change,4,0,7,,,,,,,,,10,11,64,,,
72965,control_change,24,0,6,,,,,,,,,5,11,62,,,
72966,control_change,22,0,1,,,,,,,,,0,11,72,,,
72966,control_change,4,0,9,,,,,,,,,12,11,64,,,
72966,control_change,4,0,8,,,,,,,,,11,11,64,,,
72968,control_change,4,0,10,,,,,,,,,6,11,64,,,
72968,control_change,22,0,2,,,,,,,,,1,11,72,,,
72969,control_change,22,0,3,,,,,,,,,2,11,72,,,
72971,control_change,22,0,4,,,,,,,,,3,11,72,,,
72979,control_change,15,0,7,,,,,,,,,10,11,65,,,
72981,control_change,15,0,8,,,,,,,,,11,11,65,,,
72981,control_change,15,0,9,,,,,,,,,12,11,65,,,
72983,control_change,15,0,10,,,,,,,,,6,11,65,,,
72987,control_change,24,0,5,,,,,,,,,4,11,64,,,
72989,control_change,23,0,1,,,,,,,,,0,11,74,,,
72989,control_change,24,0,6,,,,,,,,,5,11,64,,,
72990,note_on,11,0,7,,,,,,,,,10,,,,77,0
72990,note_on,0,0,7,,,,,,,,,10,,,,72,103
72991,control_change,23,0,2,,,,,,,,,1,11,74,,,
72992,note_on,0,0,9,,,,,,,,,12,,,,53,72
72992,control_change,23,0,3,,,,,,,,,2,11,74,,,
72992,note_on,11,0,9,,,,,,,,,12,,,,57,0
72992,note_on,11,0,8,,,,,,,,,11,,,,60,0
72992,note_on,0,0,8,,,,,,,,,11,,,,57,74
72994,note_on,0,0,10,,,,,,,,,6,,,,45,0
72994,note_on,0,0,10,,,,,,,,,6,,,,45,52
72994,note_on,0,0,10,,,,,,,,,6,,,,48,52
72994,control_change,23,0,4,,,,,,,,,3,11,74,,,
72994,note_on,11,0,10,,,,,,,,,6,,,,41,0
73008,control_change,18,0,7,,,,,,,,,10,11,67,,,
73010,control_change,18,0,8,,,,,,,,,11,11,67,,,
73010,control_change,18,0,9,,,,,,,,,12,11,67,,,
73011,control_change,24,0,5,,,,,,,,,4,11,66,,,
73011,control_change,22,0,1,,,,,,,,,0,11,76,,,
73012,control_change,18,0,10,,,,,,,,,6,11,67,,,
73013,control_change,22,0,2,,,,,,,,,1,11,76,,,
73013,control_change,24,0,6,,,,,,,,,5,11,66,,,
73014,control_change,22,0,3,,,,,,,,,2,11,76,,,
73016,control_change,22,0,4,,,,,,,,,3,11,76,,,
73020,note_on,0,0,7,,,,,,,,,10,,,,69,103
73020,note_on,12,0,7,,,,,,,,,10,,,,72,0
73022,note_on,0,0,8,,,,,,,,,11,,,,60,74
73022,note_on,0,0,9,,,,,,,,,12,,,,57,72
73022,note_on,12,0,8,,,,,,,,,11,,,,57,0
73022,note_on,12,0,9,,,,,,,,,12,,,,53,0
73024,note_on,12,0,10,,,,,,,,,6,,,,48,0
73024,note_on,0,0,10,,,,,,,,,6,,,,45,0
73024,note_on,0,0,10,,,,,,,,,6,,,,45,52
73024,note_on,0,0,10,,,,,,,,,6,,,,41,52
73025,note_on,120,0,11,,,,,,,,,13,,,,53,0
73028,note_on,120,0,12,,,,,,,,,14,,,,41,0
73034,control_change,23,0,1,,,,,,,,,0,11,77,,,
73035,control_change,24,0,5,,,,,,,,,4,11,68,,,
73036,control_change,16,0,7,,,,,,,,,10,11,69,,,
73036,control_change,23,0,2,,,,,,,,,1,11,77,,,
73037,control_change,24,0,6,,,,,,,,,5,11,68,,,
73037,control_change,23,0,3,,,,,,,,,2,11,77,,,
73038,control_change,16,0,8,,,,,,,,,11,11,69,,,
73038,control_change,16,0,9,,,,,,,,,12,11,69,,,
73039,control_change,23,0,4,,,,,,,,,3,11,77,,,
73040,control_change,16,0,10,,,,,,,,,6,11,69,,,
73050,note_on,0,0,7,,,,,,,,,10,,,,65,103
73050,note_on,14,0,7,,,,,,,,,10,,,,69,0
73051,control_change,1,0,7,,,,,,,,,10,11,70,,,
73052,note_on,14,0,8,,,,,,,,,11,,,,60,0
73052,note_on,0,0,8,,,,,,,,,11,,,,57,74
73052,note_on,14,0,9,,,,,,,,,12,,,,57,0
73052,note_on,0,0,9,,,,,,,,,12,,,,53,72
73053,control_change,1,0,8,,,,,,,,,11,11,70,,,
73053,control_change,1,0,9,,,,,,,,,12,11,70,,,
73054,note_on,0,0,10,,,,,,,,,6,,,,48,52
73054,note_on,0,0,10,,,,,,,,,6,,,,45,52
73054,note_on,0,0,10,,,,,,,,,6,,,,41,0
73054,note_on,14,0,10,,,,,,,,,6,,,,45,0
73055,control_change,1,0,10,,,,,,,,,6,11,70,,,
73056,control_change,22,0,1,,,,,,,,,0,11,79,,,
73058,control_change,22,0,2,,,,,,,,,1,11,79,,,
73059,control_change,22,0,3,,,,,,,,,2,11,79,,,
73059,control_change,24,0,5,,,,,,,,,4,11,70,,,
73061,control_change,24,0,6,,,,,,,,,5,11,70,,,
73061,control_change,22,0,4,,,,,,,,,3,11,79,,,
73075,note_on,0,0,1,,,,,,,,,0,,,,84,0
73075,note_on,19,0,1,,,,,,,,,0,,,,81,0
73077,note_on,24,0,9,,,,,,,,,12,,,,53,0
73077,note_on,24,0,8,,,,,,,,,11,,,,57,0
73077,note_on,0,0,2,,,,,,,,,1,,,,69,0
73077,note_on,19,0,2,,,,,,,,,1,,,,77,0
73078,note_on,19,0,5,,,,,,,,,4,,,,53,0
73078,note_on,19,0,3,,,,,,,,,2,,,,57,0
73078,note_on,0,0,3,,,,,,,,,2,,,,65,0
73079,note_on,24,0,10,,,,,,,,,6,,,,45,0
73079,note_on,0,0,10,,,,,,,,,6,,,,48,0
73079,control_change,4,0,1,,,,,,,,,0,11,80,,,
73080,note_on,0,0,7,,,,,,,,,10,,,,75,103
73080,note_on,1,0,1,,,,,,,,,0,,,,84,83
73080,note_on,19,0,6,,,,,,,,,5,,,,41,0
73080,note_on,0,0,1,,,,,,,,,0,,,,87,83
73080,set_tempo,120,1,0,,,,,,1081081,,,,,,,,
73080,control_change,0,0,7,,,,,,,,,10,11,72,,,
73080,note_on,29,0,7,,,,,,,,,10,,,,65,0
73081,control_change,4,0,2,,,,,,,,,1,11,80,,,
73082,note_on,1,0,2,,,,,,,,,1,,,,72,82
73082,note_on,0,0,2,,,,,,,,,1,,,,75,82
73082,control_change,5,0,9,,,,,,,,,12,11,72,,,
73082,note_on,0,0,9,,,,,,,,,12,,,,57,72
73082,note_on,0,0,8,,,,,,,,,11,,,,60,74
73082,control_change,5,0,8,,,,,,,,,11,11,72,,,
73082,control_change,4,0,3,,,,,,,,,2,11,80,,,
73083,note_on,0,0,5,,,,,,,,,4,,,,60,82
73083,note_on,1,0,3,,,,,,,,,2,,,,72,83
73083,note_on,0,0,3,,,,,,,,,2,,,,69,83
73083,control_change,5,0,5,,,,,,,,,4,11,72,,,
73084,note_on,0,0,10,,,,,,,,,6,,,,41,52
73084,note_on,0,0,10,,,,,,,,,6,,,,48,52
73084,control_change,5,0,10,,,,,,,,,6,11,72,,,
73084,control_change,23,0,4,,,,,,,,,3,11,80,,,
73085,note_on,0,0,6,,,,,,,,,5,,,,53,82
73085,control_change,5,0,6,,,,,,,,,5,11,72,,,
73085,note_on,60,0,11,,,,,,,,,13,,,,53,36
73088,note_on,60,0,12,,,,,,,,,14,,,,41,30
73097,control_change,17,0,1,,,,,,,,,0,11,79,,,
73099,control_change,17,0,2,,,,,,,,,1,11,79,,,
73100,control_change,17,0,3,,,,,,,,,2,11,79,,,
73102,control_change,18,0,4,,,,,,,,,3,11,79,,,
73107,control_change,24,0,5,,,,,,,,,4,11,70,,,
73108,control_change,28,0,7,,,,,,,,,10,11,70,,,
73109,control_change,24,0,6,,,,,,,,,5,11,70,,,
73110,control_change,28,0,8,,,,,,,,,11,11,70,,,
73110,note_on,0,0,7,,,,,,,,,10,,,,72,103
73110,note_on,2,0,7,,,,,,,,,10,,,,75,0
73110,control_change,28,0,9,,,,,,,,,12,11,70,,,
73112,note_on,2,0,9,,,,,,,,,12,,,,57,0
73112,note_on,0,0,9,,,,,,,,,12,,,,53,72
73112,control_change,28,0,10,,,,,,,,,6,11,70,,,
73112,note_on,0,0,8,,,,,,,,,11,,,,57,74
73112,note_on,2,0,8,,,,,,,,,11,,,,60,0
73114,note_on,2,0,10,,,,,,,,,6,,,,41,0
73114,note_on,0,0,10,,,,,,,,,6,,,,48,52
73114,note_on,0,0,10,,,,,,,,,6,,,,51,52
73114,note_on,0,0,10,,,,,,,,,6,,,,48,0
73115,control_change,18,0,1,,,,,,,,,0,11,77,,,
73117,control_change,18,0,2,,,,,,,,,1,11,77,,,
73118,control_change,18,0,3,,,,,,,,,2,11,77,,,
73120,control_change,18,0,4,,,,,,,,,3,11,77,,,
73123,control_change,13,0,7,,,,,,,,,10,11,69,,,
73125,control_change,13,0,9,,,,,,,,,12,11,69,,,
73125,control_change,13,0,8,,,,,,,,,11,11,69,,,
73127,control_change,13,0,10,,,,,,,,,6,11,69,,,
73131,control_change,24,0,5,,,,,,,,,4,11,68,,,
73133,control_change,24,0,6,,,,,,,,,5,11,68,,,
73133,control_change,18,0,1,,,,,,,,,0,11,76,,,
73135,control_change,18,0,2,,,,,,,,,1,11,76,,,
73136,control_change,18,0,3,,,,,,,,,2,11,76,,,
73138,control_change,18,0,4,,,,,,,,,3,11,76,,,
73140,set_tempo,60,1,0,,,,,,983607,,,,,,,,
73140,note_on,0,0,7,,,,,,,,,10,,,,69,103
73140,note_on,17,0,7,,,,,,,,,10,,,,72,0
73142,note_on,17,0,8,,,,,,,,,11,,,,57,0
73142,note_on,0,0,8,,,,,,,,,11,,,,60,74
73142,note_on,17,0,9,,,,,,,,,12,,,,53,0
73142,note_on,0,0,9,,,,,,,,,12,,,,57,72
73144,note_on,0,0,10,,,,,,,,,6,,,,41,52
73144,note_on,0,0,10,,,,,,,,,6,,,,51,0
73144,note_on,0,0,10,,,,,,,,,6,,,,48,52
73144,note_on,17,0,10,,,,,,,,,6,,,,48,0
73151,control_change,18,0,1,,,,,,,,,0,11,74,,,
73152,control_change,12,0,7,,,,,,,,,10,11,67,,,
73153,control_change,18,0,2,,,,,,,,,1,11,74,,,
73154,control_change,12,0,8,,,,,,,,,11,11,67,,,
73154,control_change,12,0,9,,,,,,,,,12,11,67,,,
73154,control_change,18,0,3,,,,,,,,,2,11,74,,,
73155,control_change,24,0,5,,,,,,,,,4,11,66,,,
73156,control_change,18,0,4,,,,,,,,,3,11,74,,,
73156,control_change,12,0,10,,,,,,,,,6,11,67,,,
73157,control_change,24,0,6,,,,,,,,,5,11,66,,,
73169,control_change,18,0,1,,,,,,,,,0,11,72,,,
73170,note_on,0,0,7,,,,,,,,,10,,,,65,103
73170,note_on,18,0,7,,,,,,,,,10,,,,69,0
73171,control_change,18,0,2,,,,,,,,,1,11,72,,,
73172,control_change,18,0,3,,,,,,,,,2,11,72,,,
73172,note_on,18,0,8,,,,,,,,,11,,,,60,0
73172,note_on,0,0,8,,,,,,,,,11,,,,57,74
73172,note_on,18,0,9,,,,,,,,,12,,,,57,0
73172,note_on,0,0,9,,,,,,,,,12,,,,53,72
73174,control_change,18,0,4,,,,,,,,,3,11,72,,,
73174,note_on,0,0,10,,,,,,,,,6,,,,48,52
73174,note_on,0,0,10,,,,,,,,,6,,,,51,52
73174,note_on,18,0,10,,,,,,,,,6,,,,48,0
73174,note_on,0,0,10,,,,,,,,,6,,,,41,0
73179,control_change,24,0,5,,,,,,,,,4,11,64,,,
73180,control_change,10,0,7,,,,,,,,,10,11,65,,,
73181,control_change,24,0,6,,,,,,,,,5,11,64,,,
73182,control_change,10,0,8,,,,,,,,,11,11,65,,,
73182,control_change,10,0,9,,,,,,,,,12,11,65,,,
73184,control_change,10,0,10,,,,,,,,,6,11,65,,,
73187,control_change,18,0,1,,,,,,,,,0,11,70,,,
73189,control_change,18,0,2,,,,,,,,,1,11,70,,,
73190,control_change,18,0,3,,,,,,,,,2,11,70,,,
73192,control_change,18,0,4,,,,,,,,,3,11,70,,,
73195,control_change,15,0,7,,,,,,,,,10,11,64,,,
73197,control_change,15,0,8,,,,,,,,,11,11,64,,,
73197,control_change,15,0,9,,,,,,,,,12,11,64,,,
73199,control_change,15,0,10,,,,,,,,,6,11,64,,,
73200,note_on,0,0,7,,,,,,,,,10,,,,75,103
73200,note_on,5,0,7,,,,,,,,,10,,,,65,0
73202,note_on,0,0,8,,,,,,,,,11,,,,60,74
73202,note_on,5,0,9,,,,,,,,,12,,,,53,0
73202,note_on,0,0,9,,,,,,,,,12,,,,57,72
73202,note_on,5,0,8,,,,,,,,,11,,,,57,0
73203,control_change,24,0,5,,,,,,,,,4,11,62,,,
73204,note_on,0,0,10,,,,,,,,,6,,,,48,52
73204,note_on,5,0,10,,,,,,,,,6,,,,48,0
73204,note_on,0,0,10,,,,,,,,,6,,,,41,52
73204,note_on,0,0,10,,,,,,,,,6,,,,51,0
73205,control_change,24,0,6,,,,,,,,,5,11,62,,,
73205,control_change,18,0,1,,,,,,,,,0,11,69,,,
73205,note_on,120,0,11,,,,,,,,,13,,,,53,0
73207,control_change,18,0,2,,,,,,,,,1,11,69,,,
73208,control_change,18,0,3,,,,,,,,,2,11,69,,,
73208,note_on,120,0,12,,,,,,,,,14,,,,41,0
73210,control_change,18,0,4,,,,,,,,,3,11,69,,,
73223,control_change,18,0,1,,,,,,,,,0,11,67,,,
73224,control_change,24,0,7,,,,,,,,,10,11,62,,,
73225,control_change,18,0,2,,,,,,,,,1,11,67,,,
73226,control_change,24,0,8,,,,,,,,,11,11,62,,,
73226,control_change,18,0,3,,,,,,,,,2,11,67,,,
73226,control_change,24,0,9,,,,,,,,,12,11,62,,,
73227,control_change,24,0,5,,,,,,,,,4,11,60,,,
73228,control_change,24,0,10,,,,,,,,,6,11,62,,,
73228,control_change,18,0,4,,,,,,,,,3,11,67,,,
73229,control_change,24,0,6,,,,,,,,,5,11,60,,,
73230,note_on,6,0,7,,,,,,,,,10,,,,75,0
73230,note_on,0,0,7,,,,,,,,,10,,,,72,103
73232,note_on,6,0,9,,,,,,,,,12,,,,57,0
73232,note_on,0,0,8,,,,,,,,,11,,,,57,74
73232,note_on,0,0,9,,,,,,,,,12,,,,53,72
73232,note_on,6,0,8,,,,,,,,,11,,,,60,0
73234,note_on,6,0,10,,,,,,,,,6,,,,48,0
73234,note_on,0,0,10,,,,,,,,,6,,,,41,0
73234,note_on,0,0,10,,,,,,,,,6,,,,51,52
73234,note_on,0,0,10,,,,,,,,,6,,,,48,52
73241,control_change,18,0,1,,,,,,,,,0,11,65,,,
73243,control_change,18,0,2,,,,,,,,,1,11,65,,,
73244,control_change,18,0,3,,,,,,,,,2,11,65,,,
73246,control_change,18,0,4,,,,,,,,,3,11,65,,,
73251,control_change,24,0,5,,,,,,,,,4,11,58,,,
73252,control_change,22,0,7,,,,,,,,,10,11,60,,,
73253,control_change,24,0,6,,,,,,,,,5,11,58,,,
73254,control_change,22,0,8,,,,,,,,,11,11,60,,,
73254,control_change,22,0,9,,,,,,,,,12,11,60,,,
73256,control_change,22,0,10,,,,,,,,,6,11,60,,,
73259,control_change,18,0,1,,,,,,,,,0,11,64,,,
73260,set_tempo,120,1,0,,,,,,1061947,,,,,,,,
73260,note_on,8,0,7,,,,,,,,,10,,,,72,0
73260,note_on,0,0,7,,,,,,,,,10,,,,69,103
73261,control_change,18,0,2,,,,,,,,,1,11,64,,,
73262,note_on,0,0,8,,,,,,,,,11,,,,60,74
73262,note_on,0,0,9,,,,,,,,,12,,,,57,72
73262,note_on,8,0,9,,,,,,,,,12,,,,53,0
73262,note_on,8,0,8,,,,,,,,,11,,,,57,0
73262,control_change,18,0,3,,,,,,,,,2,11,64,,,
73264,note_on,0,0,10,,,,,,,,,6,,,,48,52
73264,note_on,0,0,10,,,,,,,,,6,,,,41,52
73264,control_change,18,0,4,,,,,,,,,3,11,64,,,
73264,note_on,8,0,10,,,,,,,,,6,,,,48,0
73264,note_on,0,0,10,,,,,,,,,6,,,,51,0
73265,note_on,60,0,11,,,,,,,,,13,,,,53,36
73267,control_change,7,0,7,,,,,,,,,10,11,59,,,
73268,note_on,60,0,12,,,,,,,,,14,,,,41,30
73269,control_change,7,0,9,,,,,,,,,12,11,59,,,
73269,control_change,7,0,8,,,,,,,,,11,11,59,,,
73271,control_change,7,0,10,,,,,,,,,6,11,59,,,
73275,control_change,24,0,5,,,,,,,,,4,11,56,,,
73277,control_change,18,0,1,,,,,,,,,0,11,62,,,
73277,control_change,24,0,6,,,,,,,,,5,11,56,,,
73279,control_change,18,0,2,,,,,,,,,1,11,62,,,
73280,control_change,18,0,3,,,,,,,,,2,11,62,,,
73282,control_change,18,0,4,,,,,,,,,3,11,62,,,
73290,note_on,23,0,7,,,,,,,,,10,,,,69,0
73290,note_on,0,0,7,,,,,,,,,10,,,,65,103
73292,note_on,23,0,8,,,,,,,,,11,,,,60,0
73292,note_on,0,0,8,,,,,,,,,11,,,,57,74
73292,note_on,23,0,9,,,,,,,,,12,,,,57,0
73292,note_on,0,0,9,,,,,,,,,12,,,,53,72
73294,note_on,23,0,10,,,,,,,,,6,,,,48,0
73294,note_on,0,0,10,,,,,,,,,6,,,,48,52
73294,note_on,0,0,10,,,,,,,,,6,,,,41,0
73294,note_on,0,0,10,,,,,,,,,6,,,,51,52
73295,control_change,18,0,1,,,,,,,,,0,11,61,,,
73296,control_change,6,0,7,,,,,,,,,10,11,57,,,
73297,control_change,18,0,2,,,,,,,,,1,11,61,,,
73298,control_change,6,0,8,,,,,,,,,11,11,57,,,
73298,control_change,6,0,9,,,,,,,,,12,11,57,,,
73298,control_change,18,0,3,,,,,,,,,2,11,61,,,
73299,control_change,24,0,5,,,,,,,,,4,11,54,,,
73300,control_change,6,0,10,,,,,,,,,6,11,57,,,
73300,control_change,18,0,4,,,,,,,,,3,11,61,,,
73301,control_change,24,0,6,,,,,,,,,5,11,54,,,
73313,control_change,18,0,1,,,,,,,,,0,11,59,,,
73315,control_change,18,0,2,,,,,,,,,1,11,59,,,
73316,control_change,18,0,3,,,,,,,,,2,11,59,,,
73318,control_change,18,0,4,,,,,,,,,3,11,59,,,
73320,set_tempo,60,1,0,,,,,,1008403,,,,,,,,
73320,note_on,24,0,7,,,,,,,,,10,,,,65,0
73320,note_on,0,0,7,,,,,,,,,10,,,,63,103
73322,note_on,24,0,8,,,,,,,,,11,,,,57,0
73322,note_on,0,0,9,,,,,,,,,12,,,,57,72
73322,note_on,24,0,9,,,,,,,,,12,,,,53,0
73322,note_on,0,0,8,,,,,,,,,11,,,,60,74
73323,control_change,24,0,5,,,,,,,,,4,11,52,,,
73324,note_on,0,0,10,,,,,,,,,6,,,,51,0
73324,note_on,0,0,10,,,,,,,,,6,,,,48,52
73324,note_on,24,0,10,,,,,,,,,6,,,,48,0
73324,note_on,0,0,10,,,,,,,,,6,,,,41,52
73324,control_change,4,0,7,,,,,,,,,10,11,55,,,
73325,control_change,24,0,6,,,,,,,,,5,11,52,,,
73326,control_change,4,0,9,,,,,,,,,12,11,55,,,
73326,control_change,4,0,8,,,,,,,,,11,11,55,,,
73328,control_change,4,0,10,,,,,,,,,6,11,55,,,
73331,control_change,18,0,1,,,,,,,,,0,11,57,,,
73333,control_change,18,0,2,,,,,,,,,1,11,57,,,
73334,control_change,18,0,3,,,,,,,,,2,11,57,,,
73336,control_change,18,0,4,,,,,,,,,3,11,57,,,
73339,control_change,15,0,7,,,,,,,,,10,11,54,,,
73341,control_change,15,0,9,,,,,,,,,12,11,54,,,
73341,control_change,15,0,8,,,,,,,,,11,11,54,,,
73343,control_change,15,0,10,,,,,,,,,6,11,54,,,
73347,control_change,24,0,5,,,,,,,,,4,11,50,,,
73349,control_change,18,0,1,,,,,,,,,0,11,55,,,
73349,control_change,24,0,6,,,,,,,,,5,11,50,,,
73350,note_on,0,0,7,,,,,,,,,10,,,,60,103
73350,note_on,11,0,7,,,,,,,,,10,,,,63,0
73351,control_change,18,0,2,,,,,,,,,1,11,55,,,
73352,note_on,11,0,9,,,,,,,,,12,,,,57,0
73352,note_on,0,0,9,,,,,,,,,12,,,,53,72
73352,note_on,0,0,8,,,,,,,,,11,,,,57,74
73352,control_change,18,0,3,,,,,,,,,2,11,55,,,
73352,note_on,11,0,8,,,,,,,,,11,,,,60,0
73354,note_on,0,0,10,,,,,,,,,6,,,,48,52
73354,note_on,11,0,10,,,,,,,,,6,,,,41,0
73354,note_on,0,0,10,,,,,,,,,6,,,,48,0
73354,note_on,0,0,10,,,,,,,,,6,,,,51,52
73354,control_change,18,0,4,,,,,,,,,3,11,55,,,
73367,control_change,18,0,1,,,,,,,,,0,11,54,,,
73368,control_change,18,0,7,,,,,,,,,10,11,52,,,
73369,control_change,18,0,2,,,,,,,,,1,11,54,,,
73370,control_change,18,0,9,,,,,,,,,12,11,52,,,
73370,control_change,18,0,3,,,,,,,,,2,11,54,,,
73370,control_change,18,0,8,,,,,,,,,11,11,52,,,
73371,control_change,24,0,5,,,,,,,,,4,11,48,,,
73372,control_change,18,0,4,,,,,,,,,3,11,54,,,
73372,control_change,18,0,10,,,,,,,,,6,11,52,,,
73373,control_change,24,0,6,,,,,,,,,5,11,48,,,
73380,note_on,0,0,7,,,,,,,,,10,,,,57,103
73380,note_on,12,0,7,,,,,,,,,10,,,,60,0
73382,note_on,0,0,8,,,,,,,,,11,,,,60,74
73382,note_on,12,0,8,,,,,,,,,11,,,,57,0
73382,note_on,12,0,9,,,,,,,,,12,,,,53,0
73382,note_on,0,0,9,,,,,,,,,12,,,,57,72
73384,note_on,0,0,10,,,,,,,,,6,,,,48,52
73384,note_on,12,0,10,,,,,,,,,6,,,,51,0
73384,note_on,0,0,10,,,,,,,,,6,,,,48,0
73384,note_on,0,0,10,,,,,,,,,6,,,,41,52
73385,note_on,120,0,11,,,,,,,,,13,,,,53,0
73385,control_change,18,0,1,,,,,,,,,0,11,52,,,
73387,control_change,18,0,2,,,,,,,,,1,11,52,,,
73388,note_on,120,0,12,,,,,,,,,14,,,,41,0
73388,control_change,18,0,3,,,,,,,,,2,11,52,,,
73390,control_change,18,0,4,,,,,,,,,3,11,52,,,
73395,control_change,24,0,5,,,,,,,,,4,11,46,,,
73396,control_change,16,0,7,,,,,,,,,10,11,50,,,
73397,control_change,24,0,6,,,,,,,,,5,11,46,,,
73398,control_change,16,0,8,,,,,,,,,11,11,50,,,
73398,control_change,16,0,9,,,,,,,,,12,11,50,,,
73400,control_change,16,0,10,,,,,,,,,6,11,50,,,
73403,control_change,18,0,1,,,,,,,,,0,11,51,,,
73405,control_change,18,0,2,,,,,,,,,1,11,51,,,
73406,control_change,18,0,3,,,,,,,,,2,11,51,,,
73408,control_change,18,0,4,,,,,,,,,3,11,51,,,
73410,note_on,0,0,7,,,,,,,,,10,,,,75,103
73410,note_on,14,0,7,,,,,,,,,10,,,,57,0
73411,control_change,1,0,7,,,,,,,,,10,11,49,,,
73412,note_on,0,0,8,,,,,,,,,11,,,,57,74
73412,note_on,14,0,8,,,,,,,,,11,,,,60,0
73412,note_on,14,0,9,,,,,,,,,12,,,,57,0
73412,note_on,0,0,9,,,,,,,,,12,,,,53,72
73413,control_change,1,0,8,,,,,,,,,11,11,49,,,
73413,control_change,1,0,9,,,,,,,,,12,11,49,,,
73414,note_on,14,0,10,,,,,,,,,6,,,,48,0
73414,note_on,0,0,10,,,,,,,,,6,,,,41,0
73414,note_on,0,0,10,,,,,,,,,6,,,,51,52
73414,note_on,0,0,10,,,,,,,,,6,,,,48,52
73415,control_change,1,0,10,,,,,,,,,6,11,49,,,
73419,control_change,24,0,5,,,,,,,,,4,11,44,,,
73421,control_change,24,0,6,,,,,,,,,5,11,44,,,
73421,control_change,18,0,1,,,,,,,,,0,11,49,,,
73423,control_change,18,0,2,,,,,,,,,1,11,49,,,
73424,control_change,18,0,3,,,,,,,,,2,11,49,,,
73426,control_change,18,0,4,,,,,,,,,3,11,49,,,
73435,note_on,24,0,7,,,,,,,,,10,,,,75,0
73435,note_on,0,0,1,,,,,,,,,0,,,,84,0
73435,note_on,14,0,1,,,,,,,,,0,,,,87,0
73437,note_on,24,0,8,,,,,,,,,11,,,,57,0
73437,note_on,14,0,2,,,,,,,,,1,,,,75,0
73437,note_on,24,0,9,,,,,,,,,12,,,,53,0
73437,note_on,0,0,2,,,,,,,,,1,,,,72,0
73438,note_on,0,0,3,,,,,,,,,2,,,,72,0
73438,note_on,14,0,3,,,,,,,,,2,,,,69,0
73438,note_on,19,0,5,,,,,,,,,4,,,,60,0
73439,note_on,24,0,10,,,,,,,,,6,,,,48,0
73439,note_on,0,0,10,,,,,,,,,6,,,,51,0
73439,control_change,4,0,1,,,,,,,,,0,11,47,,,
73440,note_on,19,0,6,,,,,,,,,5,,,,53,0
73440,note_on,0,0,4,,,,,,,,,3,,,,60,0
73440,note_on,14,0,4,,,,,,,,,3,,,,57,0
73440,note_on,0,0,7,,,,,,,,,10,,,,74,88
73440,control_change,5,0,7,,,,,,,,,10,11,47,,,
73440,note_on,1,0,1,,,,,,,,,0,,,,86,96
73440,set_tempo,120,1,0,,,,,,1061947,,,,,,,,
73440,note_on,0,0,1,,,,,,,,,0,,,,82,83
73441,control_change,4,0,2,,,,,,,,,1,11,47,,,
73442,note_on,0,0,9,,,,,,,,,12,,,,58,86
73442,control_change,5,0,8,,,,,,,,,11,11,47,,,
73442,note_on,0,0,8,,,,,,,,,11,,,,62,88
73442,control_change,5,0,9,,,,,,,,,12,11,47,,,
73442,control_change,4,0,3,,,,,,,,,2,11,47,,,
73442,note_on,0,0,2,,,,,,,,,1,,,,70,82
73442,note_on,1,0,2,,,,,,,,,1,,,,74,95
73443,note_on,0,0,5,,,,,,,,,4,,,,62,82
73443,control_change,5,0,5,,,,,,,,,4,11,42,,,
73443,note_on,1,0,3,,,,,,,,,2,,,,74,83
73443,control_change,0,0,3,,,,,,,,,2,11,39,,,
73443,note_on,0,0,3,,,,,,,,,2,,,,70,83
73444,control_change,5,0,10,,,,,,,,,6,11,47,,,
73444,note_on,0,0,10,,,,,,,,,6,,,,46,88
73444,control_change,4,0,4,,,,,,,,,3,11,47,,,
73445,control_change,0,0,4,,,,,,,,,3,11,39,,,
73445,control_change,5,0,6,,,,,,,,,5,11,42,,,
73445,note_on,0,0,4,,,,,,,,,3,,,,62,82
73445,note_on,60,0,11,,,,,,,,,13,,,,46,36
73445,note_on,0,0,6,,,,,,,,,5,,,,58,82
73445,note_on,1,0,4,,,,,,,,,3,,,,58,82
73448,note_on,60,0,12,,,,,,,,,14,,,,34,30
73455,note_on,15,0,7,,,,,,,,,10,,,,74,0
73470,note_on,15,0,7,,,,,,,,,10,,,,65,88
73485,note_on,15,0,7,,,,,,,,,10,,,,65,0
73500,note_on,60,0,1,,,,,,,,,0,,,,82,0
73500,set_tempo,60,1,0,,,,,,967742,,,,,,,,
73500,note_on,0,0,1,,,,,,,,,0,,,,86,0
73500,note_on,0,0,1,,,,,,,,,0,,,,82,96
73500,note_on,15,0,7,,,,,,,,,10,,,,70,88
73502,note_on,0,0,2,,,,,,,,,1,,,,74,0
73502,note_on,60,0,2,,,,,,,,,1,,,,70,0
73502,note_on,0,0,2,,,,,,,,,1,,,,70,95
73515,note_on,15,0,7,,,,,,,,,10,,,,70,0
73530,note_on,15,0,7,,,,,,,,,10,,,,65,88
73545,note_on,15,0,7,,,,,,,,,10,,,,65,0
73560,note_on,15,0,7,,,,,,,,,10,,,,62,88
73560,note_on,0,0,1,,,,,,,,,0,,,,81,96
73560,note_on,60,0,1,,,,,,,,,0,,,,82,0
73562,note_on,120,0,9,,,,,,,,,12,,,,58,0
73562,note_on,120,0,8,,,,,,,,,11,,,,62,0
73562,note_on,60,0,2,,,,,,,,,1,,,,70,0
73562,note_on,0,0,2,,,,,,,,,1,,,,69,95
73563,note_on,120,0,3,,,,,,,,,2,,,,70,0
73563,note_on,0,0,3,,,,,,,,,2,,,,74,0
73563,note_on,120,0,5,,,,,,,,,4,,,,62,0
73564,note_on,120,0,10,,,,,,,,,6,,,,46,0
73565,note_on,120,0,6,,,,,,,,,5,,,,58,0
73565,note_on,0,0,4,,,,,,,,,3,,,,58,0
73565,note_on,120,0,11,,,,,,,,,13,,,,46,0
73565,note_on,120,0,4,,,,,,,,,3,,,,62,0
73568,note_on,120,0,12,,,,,,,,,14,,,,34,0
73575,note_on,15,0,7,,,,,,,,,10,,,,62,0
73590,note_on,15,0,7,,,,,,,,,10,,,,65,88
73605,note_on,15,0,7,,,,,,,,,10,,,,65,0
73615,note_on,55,0,1,,,,,,,,,0,,,,81,0
73617,note_on,55,0,2,,,,,,,,,1,,,,69,0
73620,set_tempo,120,1,0,,,,,,1034483,,,,,,,,
73620,note_on,15,0,7,,,,,,,,,10,,,,63,88
73620,note_on,5,0,1,,,,,,,,,0,,,,79,96
73621,program_change,59,0,8,,,,,,,,45,11,,,,,
73621,program_change,59,0,9,,,,,,,,45,12,,,,,
73622,control_change,1,0,9,,,,,,,,,12,11,100,,,
73622,note_on,5,0,2,,,,,,,,,1,,,,67,95
73622,control_change,1,0,8,,,,,,,,,11,11,100,,,
73622,note_on,0,0,8,,,,,,,,,11,,,,67,33
73622,note_on,0,0,9,,,,,,,,,12,,,,63,31
73623,note_on,60,0,3,,,,,,,,,2,,,,70,96
73623,note_on,60,0,5,,,,,,,,,4,,,,60,82
73623,program_change,59,0,10,,,,,,,,45,6,,,,,
73623,note_on,0,0,3,,,,,,,,,2,,,,72,96
73624,note_on,0,0,10,,,,,,,,,6,,,,51,33
73624,control_change,1,0,10,,,,,,,,,6,11,100,,,
73625,note_on,60,0,11,,,,,,,,,13,,,,51,36
73625,note_on,60,0,6,,,,,,,,,5,,,,58,82
73628,note_on,60,0,12,,,,,,,,,14,,,,39,30
73635,note_on,15,0,7,,,,,,,,,10,,,,63,0
73650,note_on,15,0,7,,,,,,,,,10,,,,67,88
73665,note_on,15,0,7,,,,,,,,,10,,,,67,0
73672,note_on,52,0,1,,,,,,,,,0,,,,79,0
73674,note_on,52,0,2,,,,,,,,,1,,,,67,0
73680,note_on,8,0,1,,,,,,,,,0,,,,87,96
73680,note_on,15,0,7,,,,,,,,,10,,,,72,88
73680,set_tempo,60,1,0,,,,,,937500,,,,,,,,
73682,note_on,8,0,2,,,,,,,,,1,,,,75,95
73695,note_on,15,0,7,,,,,,,,,10,,,,72,0
73710,note_on,15,0,7,,,,,,,,,10,,,,67,88
73725,note_on,15,0,7,,,,,,,,,10,,,,67,0
73732,note_on,52,0,1,,,,,,,,,0,,,,87,0
73734,note_on,52,0,2,,,,,,,,,1,,,,75,0
73740,note_on,8,0,1,,,,,,,,,0,,,,91,96
73740,note_on,15,0,7,,,,,,,,,10,,,,63,88
73742,note_on,120,0,8,,,,,,,,,11,,,,67,0
73742,note_on,8,0,2,,,,,,,,,1,,,,79,95
73742,note_on,120,0,9,,,,,,,,,12,,,,63,0
73743,note_on,0,0,3,,,,,,,,,2,,,,70,0
73743,note_on,120,0,5,,,,,,,,,4,,,,60,0
73743,note_on,120,0,3,,,,,,,,,2,,,,72,0
73744,note_on,120,0,10,,,,,,,,,6,,,,51,0
73745,note_on,120,0,6,,,,,,,,,5,,,,58,0
73745,note_on,120,0,11,,,,,,,,,13,,,,51,0
73748,note_on,120,0,12,,,,,,,,,14,,,,39,0
73755,note_on,15,0,7,,,,,,,,,10,,,,63,0
73770,note_on,15,0,7,,,,,,,,,10,,,,67,88
73785,note_on,15,0,7,,,,,,,,,10,,,,67,0
73792,note_on,52,0,1,,,,,,,,,0,,,,91,0
73794,note_on,52,0,2,,,,,,,,,1,,,,79,0
73800,note_on,15,0,7,,,,,,,,,10,,,,62,88
73800,note_on,8,0,1,,,,,,,,,0,,,,82,96
73800,set_tempo,120,1,0,,,,,,1034483,,,,,,,,
73802,note_on,8,0,2,,,,,,,,,1,,,,70,95
73802,note_on,60,0,8,,,,,,,,,11,,,,65,33
73802,note_on,60,0,9,,,,,,,,,12,,,,62,31
73803,note_on,0,0,3,,,,,,,,,2,,,,74,96
73803,note_on,60,0,5,,,,,,,,,4,,,,62,82
73803,note_on,60,0,3,,,,,,,,,2,,,,70,96
73804,note_on,60,0,10,,,,,,,,,6,,,,53,33
73805,note_on,60,0,11,,,,,,,,,13,,,,53,36
73805,note_on,60,0,6,,,,,,,,,5,,,,58,82
73808,note_on,60,0,12,,,,,,,,,14,,,,41,30
73815,note_on,15,0,7,,,,,,,,,10,,,,62,0
73830,note_on,15,0,7,,,,,,,,,10,,,,65,88
73845,note_on,15,0,7,,,,,,,,,10,,,,65,0
73860,note_on,15,0,7,,,,,,,,,10,,,,70,88
73860,set_tempo,60,1,0,,,,,,937500,,,,,,,,
73875,note_on,15,0,7,,,,,,,,,10,,,,70,0
73890,note_on,15,0,7,,,,,,,,,10,,,,65,88
73905,note_on,15,0,7,,,,,,,,,10,,,,65,0
73920,note_on,15,0,7,,,,,,,,,10,,,,62,88
73922,note_on,120,0,9,,,,,,,,,12,,,,62,0
73922,note_on,120,0,8,,,,,,,,,11,,,,65,0
73923,note_on,0,0,3,,,,,,,,,2,,,,70,0
73923,note_on,120,0,5,,,,,,,,,4,,,,62,0
73923,note_on,120,0,3,,,,,,,,,2,,,,74,0
73924,note_on,120,0,10,,,,,,,,,6,,,,53,0
73925,note_on,120,0,6,,,,,,,,,5,,,,58,0
73925,note_on,120,0,11,,,,,,,,,13,,,,53,0
73928,note_on,120,0,12,,,,,,,,,14,,,,41,0
73935,note_on,15,0,7,,,,,,,,,10,,,,62,0
73950,note_on,15,0,7,,,,,,,,,10,,,,65,88
73965,note_on,15,0,7,,,,,,,,,10,,,,65,0
73980,note_on,0,0,1,,,,,,,,,0,,,,86,96
73980,set_tempo,120,1,0,,,,,,1034483,,,,,,,,
73980,note_on,15,0,7,,,,,,,,,10,,,,65,88
73980,note_on,180,0,1,,,,,,,,,0,,,,82,0
73982,note_on,60,0,8,,,,,,,,,11,,,,65,33
73982,note_on,60,0,9,,,,,,,,,12,,,,57,31
73982,note_on,0,0,2,,,,,,,,,1,,,,74,95
73982,note_on,180,0,2,,,,,,,,,1,,,,70,0
73983,note_on,60,0,3,,,,,,,,,2,,,,69,96
73983,note_on,0,0,3,,,,,,,,,2,,,,65,96
73983,note_on,60,0,5,,,,,,,,,4,,,,60,82
73984,note_on,60,0,10,,,,,,,,,6,,,,41,33
73985,note_on,60,0,11,,,,,,,,,13,,,,41,36
73985,note_on,60,0,6,,,,,,,,,5,,,,53,82
73988,note_on,60,0,12,,,,,,,,,14,,,,29,30
73995,note_on,15,0,7,,,,,,,,,10,,,,65,0
74010,note_on,15,0,7,,,,,,,,,10,,,,69,88
74025,note_on,15,0,7,,,,,,,,,10,,,,69,0
74040,note_on,15,0,7,,,,,,,,,10,,,,72,88
74040,set_tempo,60,1,0,,,,,,937500,,,,,,,,
74055,note_on,15,0,7,,,,,,,,,10,,,,72,0
74070,note_on,15,0,7,,,,,,,,,10,,,,69,88
74085,note_on,15,0,7,,,,,,,,,10,,,,69,0
74100,note_on,15,0,7,,,,,,,,,10,,,,72,88
74100,note_on,120,0,1,,,,,,,,,0,,,,86,0
74100,note_on,0,0,1,,,,,,,,,0,,,,84,96
74102,note_on,0,0,2,,,,,,,,,1,,,,72,95
74102,note_on,120,0,9,,,,,,,,,12,,,,57,0
74102,note_on,120,0,2,,,,,,,,,1,,,,74,0
74102,note_on,120,0,8,,,,,,,,,11,,,,65,0
74103,note_on,0,0,3,,,,,,,,,2,,,,69,0
74103,note_on,120,0,3,,,,,,,,,2,,,,65,0
74103,note_on,120,0,5,,,,,,,,,4,,,,60,0
74104,note_on,120,0,10,,,,,,,,,6,,,,41,0
74105,note_on,120,0,11,,,,,,,,,13,,,,41,0
74105,note_on,120,0,6,,,,,,,,,5,,,,53,0
74108,note_on,120,0,12,,,,,,,,,14,,,,29,0
74115,note_on,15,0,7,,,,,,,,,10,,,,72,0
74130,note_on,15,0,7,,,,,,,,,10,,,,76,88
74145,note_on,15,0,7,,,,,,,,,10,,,,76,0
74155,note_on,55,0,1,,,,,,,,,0,,,,84,0
74157,note_on,55,0,2,,,,,,,,,1,,,,72,0
74160,control_change,15,0,7,,,,,,,,,10,11,47,,,
74160,control_change,5,0,1,,,,,,,,,0,11,47,,,
74160,note_on,0,0,1,,,,,,,,,0,,,,81,96
74160,note_on,0,0,1,,,,,,,,,0,,,,77,96
74160,set_tempo,120,1,0,,,,,,1034483,,,,,,,,
74160,note_on,0,0,7,,,,,,,,,10,,,,77,103
74161,program_change,59,0,8,,,,,,,,48,11,,,,,
74161,program_change,59,0,9,,,,,,,,48,12,,,,,
74162,control_change,5,0,2,,,,,,,,,1,11,47,,,
74162,note_on,0,0,8,,,,,,,,,11,,,,60,78
74162,control_change,1,0,9,,,,,,,,,12,11,47,,,
74162,note_on,0,0,9,,,,,,,,,12,,,,57,76
74162,control_change,1,0,8,,,,,,,,,11,11,47,,,
74162,note_on,0,0,2,,,,,,,,,1,,,,77,95
74162,note_on,0,0,2,,,,,,,,,1,,,,69,95
74163,control_change,60,0,3,,,,,,,,,2,11,47,,,
74163,control_change,60,0,5,,,,,,,,,4,11,42,,,
74163,note_on,0,0,5,,,,,,,,,4,,,,53,82
74163,note_on,0,0,3,,,,,,,,,2,,,,65,96
74163,program_change,59,0,10,,,,,,,,42,6,,,,,
74163,note_on,0,0,3,,,,,,,,,2,,,,69,96
74164,note_on,0,0,10,,,,,,,,,6,,,,45,52
74164,note_on,0,0,10,,,,,,,,,6,,,,41,52
74164,control_change,1,0,10,,,,,,,,,6,11,47,,,
74165,control_change,0,0,6,,,,,,,,,5,11,42,,,
74165,note_on,60,0,6,,,,,,,,,5,,,,41,82
74165,control_change,600,0,4,,,,,,,,,3,11,47,,,
74165,note_on,0,0,4,,,,,,,,,3,,,,65,95
74165,note_on,60,0,11,,,,,,,,,13,,,,41,36
74168,note_on,60,0,12,,,,,,,,,14,,,,29,30
74177,control_change,17,0,1,,,,,,,,,0,11,49,,,
74179,control_change,17,0,2,,,,,,,,,1,11,49,,,
74180,control_change,17,0,3,,,,,,,,,2,11,49,,,
74182,control_change,17,0,4,,,,,,,,,3,11,49,,,
74187,control_change,24,0,5,,,,,,,,,4,11,44,,,
74188,control_change,28,0,7,,,,,,,,,10,11,49,,,
74189,control_change,24,0,6,,,,,,,,,5,11,44,,,
74190,control_change,28,0,8,,,,,,,,,11,11,49,,,
74190,note_on,2,0,7,,,,,,,,,10,,,,77,0
74190,control_change,28,0,9,,,,,,,,,12,11,49,,,
74190,note_on,0,0,7,,,,,,,,,10,,,,72,103
74192,note_on,0,0,9,,,,,,,,,12,,,,53,76
74192,control_change,28,0,10,,,,,,,,,6,11,49,,,
74192,note_on,2,0,8,,,,,,,,,11,,,,60,0
74192,note_on,2,0,9,,,,,,,,,12,,,,57,0
74192,note_on,0,0,8,,,,,,,,,11,,,,57,78
74194,note_on,0,0,10,,,,,,,,,6,,,,41,0
74194,note_on,2,0,10,,,,,,,,,6,,,,45,0
74194,note_on,0,0,10,,,,,,,,,6,,,,48,52
74194,note_on,0,0,10,,,,,,,,,6,,,,45,52
74195,control_change,18,0,1,,,,,,,,,0,11,51,,,
74197,control_change,18,0,2,,,,,,,,,1,11,51,,,
74198,control_change,18,0,3,,,,,,,,,2,11,51,,,
74200,control_change,18,0,4,,,,,,,,,3,11,51,,,
74203,control_change,13,0,7,,,,,,,,,10,11,50,,,
74205,control_change,13,0,8,,,,,,,,,11,11,50,,,
74205,control_change,13,0,9,,,,,,,,,12,11,50,,,
74207,control_change,13,0,10,,,,,,,,,6,11,50,,,
74211,control_change,24,0,5,,,,,,,,,4,11,46,,,
74213,control_change,24,0,6,,,,,,,,,5,11,46,,,
74213,control_change,18,0,1,,,,,,,,,0,11,52,,,
74215,control_change,18,0,2,,,,,,,,,1,11,52,,,
74216,control_change,18,0,3,,,,,,,,,2,11,52,,,
74218,control_change,18,0,4,,,,,,,,,3,11,52,,,
74220,note_on,17,0,7,,,,,,,,,10,,,,72,0
74220,note_on,0,0,7,,,,,,,,,10,,,,69,103
74220,set_tempo,60,1,0,,,,,,937500,,,,,,,,
74222,note_on,0,0,9,,,,,,,,,12,,,,57,76
74222,note_on,0,0,8,,,,,,,,,11,,,,60,78
74222,note_on,17,0,8,,,,,,,,,11,,,,57,0
74222,note_on,17,0,9,,,,,,,,,12,,,,53,0
74224,note_on,0,0,10,,,,,,,,,6,,,,45,52
74224,note_on,0,0,10,,,,,,,,,6,,,,41,52
74224,note_on,17,0,10,,,,,,,,,6,,,,45,0
74224,note_on,0,0,10,,,,,,,,,6,,,,48,0
74231,control_change,18,0,1,,,,,,,,,0,11,54,,,
74232,control_change,12,0,7,,,,,,,,,10,11,52,,,
74233,control_change,18,0,2,,,,,,,,,1,11,54,,,
74234,control_change,12,0,8,,,,,,,,,11,11,52,,,
74234,control_change,12,0,9,,,,,,,,,12,11,52,,,
74234,control_change,18,0,3,,,,,,,,,2,11,54,,,
74235,control_change,24,0,5,,,,,,,,,4,11,48,,,
74236,control_change,12,0,10,,,,,,,,,6,11,52,,,
74236,control_change,18,0,4,,,,,,,,,3,11,54,,,
74237,control_change,24,0,6,,,,,,,,,5,11,48,,,
74249,control_change,18,0,1,,,,,,,,,0,11,55,,,
74250,note_on,0,0,7,,,,,,,,,10,,,,65,103
74250,note_on,18,0,7,,,,,,,,,10,,,,69,0
74251,control_change,18,0,2,,,,,,,,,1,11,55,,,
74252,note_on,18,0,8,,,,,,,,,11,,,,60,0
74252,note_on,0,0,8,,,,,,,,,11,,,,57,78
74252,note_on,0,0,9,,,,,,,,,12,,,,53,76
74252,control_change,18,0,3,,,,,,,,,2,11,55,,,
74252,note_on,18,0,9,,,,,,,,,12,,,,57,0
74254,note_on,18,0,10,,,,,,,,,6,,,,41,0
74254,control_change,18,0,4,,,,,,,,,3,11,55,,,
74254,note_on,0,0,10,,,,,,,,,6,,,,45,0
74254,note_on,0,0,10,,,,,,,,,6,,,,48,52
74254,note_on,0,0,10,,,,,,,,,6,,,,45,52
74259,control_change,24,0,5,,,,,,,,,4,11,50,,,
74260,control_change,10,0,7,,,,,,,,,10,11,54,,,
74261,control_change,24,0,6,,,,,,,,,5,11,50,,,
74262,control_change,10,0,8,,,,,,,,,11,11,54,,,
74262,control_change,10,0,9,,,,,,,,,12,11,54,,,
74264,control_change,10,0,10,,,,,,,,,6,11,54,,,
74267,control_change,18,0,1,,,,,,,,,0,11,57,,,
74269,control_change,18,0,2,,,,,,,,,1,11,57,,,
74270,control_change,18,0,3,,,,,,,,,2,11,57,,,
74272,control_change,18,0,4,,,,,,,,,3,11,57,,,
74275,control_change,15,0,7,,,,,,,,,10,11,55,,,
74277,control_change,15,0,8,,,,,,,,,11,11,55,,,
74277,control_change,15,0,9,,,,,,,,,12,11,55,,,
74279,control_change,15,0,10,,,,,,,,,6,11,55,,,
74280,note_on,0,0,7,,,,,,,,,10,,,,77,103
74280,note_on,5,0,7,,,,,,,,,10,,,,65,0
74282,note_on,5,0,9,,,,,,,,,12,,,,53,0
74282,note_on,0,0,8,,,,,,,,,11,,,,60,78
74282,note_on,5,0,8,,,,,,,,,11,,,,57,0
74282,note_on,0,0,9,,,,,,,,,12,,,,57,76
74283,control_change,24,0,5,,,,,,,,,4,11,52,,,
74284,note_on,5,0,10,,,,,,,,,6,,,,45,0
74284,note_on,0,0,10,,,,,,,,,6,,,,41,52
74284,note_on,0,0,10,,,,,,,,,6,,,,45,52
74284,note_on,0,0,10,,,,,,,,,6,,,,48,0
74285,control_change,24,0,6,,,,,,,,,5,11,52,,,
74285,control_change,18,0,1,,,,,,,,,0,11,59,,,
74285,note_on,120,0,11,,,,,,,,,13,,,,41,0
74287,control_change,18,0,2,,,,,,,,,1,11,59,,,
74288,control_change,18,0,3,,,,,,,,,2,11,59,,,
74288,note_on,120,0,12,,,,,,,,,14,,,,29,0
74290,control_change,18,0,4,,,,,,,,,3,11,59,,,
74303,control_change,18,0,1,,,,,,,,,0,11,61,,,
74304,control_change,24,0,7,,,,,,,,,10,11,57,,,
74305,control_change,18,0,2,,,,,,,,,1,11,61,,,
74306,control_change,24,0,9,,,,,,,,,12,11,57,,,
74306,control_change,18,0,3,,,,,,,,,2,11,61,,,
74306,control_change,24,0,8,,,,,,,,,11,11,57,,,
74307,control_change,24,0,5,,,,,,,,,4,11,54,,,
74308,control_change,18,0,4,,,,,,,,,3,11,61,,,
74308,control_change,24,0,10,,,,,,,,,6,11,57,,,
74309,control_change,24,0,6,,,,,,,,,5,11,54,,,
74310,note_on,0,0,7,,,,,,,,,10,,,,72,103
74310,note_on,6,0,7,,,,,,,,,10,,,,77,0
74312,note_on,6,0,9,,,,,,,,,12,,,,57,0
74312,note_on,6,0,8,,,,,,,,,11,,,,60,0
74312,note_on,0,0,8,,,,,,,,,11,,,,57,78
74312,note_on,0,0,9,,,,,,,,,12,,,,53,76
74314,note_on,0,0,10,,,,,,,,,6,,,,48,52
74314,note_on,0,0,10,,,,,,,,,6,,,,45,52
74314,note_on,0,0,10,,,,,,,,,6,,,,41,0
74314,note_on,6,0,10,,,,,,,,,6,,,,45,0
74321,control_change,18,0,1,,,,,,,,,0,11,62,,,
74323,control_change,18,0,2,,,,,,,,,1,11,62,,,
74324,control_change,18,0,3,,,,,,,,,2,11,62,,,
74326,control_change,18,0,4,,,,,,,,,3,11,62,,,
74331,control_change,24,0,5,,,,,,,,,4,11,56,,,
74332,control_change,22,0,7,,,,,,,,,10,11,59,,,
74333,control_change,24,0,6,,,,,,,,,5,11,56,,,
74334,control_change,22,0,9,,,,,,,,,12,11,59,,,
74334,control_change,22,0,8,,,,,,,,,11,11,59,,,
74336,control_change,22,0,10,,,,,,,,,6,11,59,,,
74339,control_change,18,0,1,,,,,,,,,0,11,64,,,
74340,note_on,8,0,7,,,,,,,,,10,,,,72,0
74340,set_tempo,120,1,0,,,,,,1061947,,,,,,,,
74340,note_on,0,0,7,,,,,,,,,10,,,,69,103
74341,control_change,18,0,2,,,,,,,,,1,11,64,,,
74342,note_on,0,0,9,,,,,,,,,12,,,,57,76
74342,note_on,8,0,9,,,,,,,,,12,,,,53,0
74342,note_on,0,0,8,,,,,,,,,11,,,,60,78
74342,control_change,18,0,3,,,,,,,,,2,11,64,,,
74342,note_on,8,0,8,,,,,,,,,11,,,,57,0
74344,note_on,0,0,10,,,,,,,,,6,,,,48,0
74344,control_change,18,0,4,,,,,,,,,3,11,64,,,
74344,note_on,8,0,10,,,,,,,,,6,,,,45,0
74344,note_on,0,0,10,,,,,,,,,6,,,,45,52
74344,note_on,0,0,10,,,,,,,,,6,,,,41,52
74345,note_on,60,0,11,,,,,,,,,13,,,,41,36
74347,control_change,7,0,7,,,,,,,,,10,11,60,,,
74348,note_on,60,0,12,,,,,,,,,14,,,,29,30
74349,control_change,7,0,9,,,,,,,,,12,11,60,,,
74349,control_change,7,0,8,,,,,,,,,11,11,60,,,
74351,control_change,7,0,10,,,,,,,,,6,11,60,,,
74355,control_change,24,0,5,,,,,,,,,4,11,58,,,
74357,control_change,18,0,1,,,,,,,,,0,11,65,,,
74357,control_change,24,0,6,,,,,,,,,5,11,58,,,
74359,control_change,18,0,2,,,,,,,,,1,11,65,,,
74360,control_change,18,0,3,,,,,,,,,2,11,65,,,
74362,control_change,18,0,4,,,,,,,,,3,11,65,,,
74370,note_on,23,0,7,,,,,,,,,10,,,,69,0
74370,note_on,0,0,7,,,,,,,,,10,,,,65,103
74372,note_on,0,0,8,,,,,,,,,11,,,,57,78
74372,note_on,23,0,8,,,,,,,,,11,,,,60,0
74372,note_on,0,0,9,,,,,,,,,12,,,,53,76
74372,note_on,23,0,9,,,,,,,,,12,,,,57,0
74374,note_on,0,0,10,,,,,,,,,6,,,,48,52
74374,note_on,0,0,10,,,,,,,,,6,,,,41,0
74374,note_on,23,0,10,,,,,,,,,6,,,,45,0
74374,note_on,0,0,10,,,,,,,,,6,,,,45,52
74375,control_change,18,0,1,,,,,,,,,0,11,67,,,
74376,control_change,6,0,7,,,,,,,,,10,11,62,,,
74377,control_change,18,0,2,,,,,,,,,1,11,67,,,
74378,control_change,6,0,8,,,,,,,,,11,11,62,,,
74378,control_change,6,0,9,,,,,,,,,12,11,62,,,
74378,control_change,18,0,3,,,,,,,,,2,11,67,,,
74379,control_change,24,0,5,,,,,,,,,4,11,60,,,
74380,control_change,18,0,4,,,,,,,,,3,11,67,,,
74380,control_change,6,0,10,,,,,,,,,6,11,62,,,
74381,control_change,24,0,6,,,,,,,,,5,11,60,,,
74393,control_change,18,0,1,,,,,,,,,0,11,69,,,
74395,control_change,18,0,2,,,,,,,,,1,11,69,,,
74396,control_change,18,0,3,,,,,,,,,2,11,69,,,
74398,control_change,18,0,4,,,,,,,,,3,11,69,,,
74400,set_tempo,60,1,0,,,,,,960000,,,,,,,,
74400,note_on,24,0,7,,,,,,,,,10,,,,65,0
74400,note_on,0,0,7,,,,,,,,,10,,,,77,103
74402,note_on,24,0,8,,,,,,,,,11,,,,57,0
74402,note_on,0,0,8,,,,,,,,,11,,,,60,78
74402,note_on,24,0,9,,,,,,,,,12,,,,53,0
74402,note_on,0,0,9,,,,,,,,,12,,,,57,76
74403,control_change,24,0,5,,,,,,,,,4,11,62,,,
74404,note_on,24,0,10,,,,,,,,,6,,,,48,0
74404,note_on,0,0,10,,,,,,,,,6,,,,45,0
74404,note_on,0,0,10,,,,,,,,,6,,,,41,52
74404,note_on,0,0,10,,,,,,,,,6,,,,45,52
74404,control_change,4,0,7,,,,,,,,,10,11,64,,,
74405,control_change,24,0,6,,,,,,,,,5,11,62,,,
74406,control_change,4,0,9,,,,,,,,,12,11,64,,,
74406,control_change,4,0,8,,,,,,,,,11,11,64,,,
74408,control_change,4,0,10,,,,,,,,,6,11,64,,,
74411,control_change,18,0,1,,,,,,,,,0,11,70,,,
74413,control_change,18,0,2,,,,,,,,,1,11,70,,,
74414,control_change,18,0,3,,,,,,,,,2,11,70,,,
74416,control_change,18,0,4,,,,,,,,,3,11,70,,,
74419,control_change,15,0,7,,,,,,,,,10,11,65,,,
74421,control_change,15,0,8,,,,,,,,,11,11,65,,,
74421,control_change,15,0,9,,,,,,,,,12,11,65,,,
74423,control_change,15,0,10,,,,,,,,,6,11,65,,,
74427,control_change,24,0,5,,,,,,,,,4,11,64,,,
74429,control_change,24,0,6,,,,,,,,,5,11,64,,,
74429,control_change,18,0,1,,,,,,,,,0,11,72,,,
74430,note_on,0,0,7,,,,,,,,,10,,,,72,103
74430,note_on,11,0,7,,,,,,,,,10,,,,77,0
74431,control_change,18,0,2,,,,,,,,,1,11,72,,,
74432,note_on,11,0,9,,,,,,,,,12,,,,57,0
74432,note_on,0,0,9,,,,,,,,,12,,,,53,76
74432,note_on,11,0,8,,,,,,,,,11,,,,60,0
74432,control_change,18,0,3,,,,,,,,,2,11,72,,,
74432,note_on,0,0,8,,,,,,,,,11,,,,57,78
74434,note_on,0,0,10,,,,,,,,,6,,,,48,52
74434,note_on,0,0,10,,,,,,,,,6,,,,41,0
74434,note_on,11,0,10,,,,,,,,,6,,,,45,0
74434,control_change,18,0,4,,,,,,,,,3,11,72,,,
74434,note_on,0,0,10,,,,,,,,,6,,,,45,52
74447,control_change,18,0,1,,,,,,,,,0,11,74,,,
74448,control_change,18,0,7,,,,,,,,,10,11,67,,,
74449,control_change,18,0,2,,,,,,,,,1,11,74,,,
74450,control_change,18,0,9,,,,,,,,,12,11,67,,,
74450,control_change,18,0,8,,,,,,,,,11,11,67,,,
74450,control_change,18,0,3,,,,,,,,,2,11,74,,,
74451,control_change,24,0,5,,,,,,,,,4,11,66,,,
74452,control_change,18,0,4,,,,,,,,,3,11,74,,,
74452,control_change,18,0,10,,,,,,,,,6,11,67,,,
74453,control_change,24,0,6,,,,,,,,,5,11,66,,,
74460,note_on,0,0,7,,,,,,,,,10,,,,69,103
74460,note_on,12,0,7,,,,,,,,,10,,,,72,0
74462,note_on,0,0,9,,,,,,,,,12,,,,57,76
74462,note_on,12,0,9,,,,,,,,,12,,,,53,0
74462,note_on,12,0,8,,,,,,,,,11,,,,57,0
74462,note_on,0,0,8,,,,,,,,,11,,,,60,78
74464,note_on,12,0,10,,,,,,,,,6,,,,45,0
74464,note_on,0,0,10,,,,,,,,,6,,,,48,0
74464,note_on,0,0,10,,,,,,,,,6,,,,45,52
74464,note_on,0,0,10,,,,,,,,,6,,,,41,52
74465,control_change,18,0,1,,,,,,,,,0,11,76,,,
74465,note_on,120,0,11,,,,,,,,,13,,,,41,0
74467,control_change,18,0,2,,,,,,,,,1,11,76,,,
74468,note_on,120,0,12,,,,,,,,,14,,,,29,0
74468,control_change,18,0,3,,,,,,,,,2,11,76,,,
74470,control_change,18,0,4,,,,,,,,,3,11,76,,,
74475,control_change,24,0,5,,,,,,,,,4,11,68,,,
74476,control_change,16,0,7,,,,,,,,,10,11,69,,,
74477,control_change,24,0,6,,,,,,,,,5,11,68,,,
74478,control_change,16,0,9,,,,,,,,,12,11,69,,,
74478,control_change,16,0,8,,,,,,,,,11,11,69,,,
74480,control_change,16,0,10,,,,,,,,,6,11,69,,,
74483,control_change,18,0,1,,,,,,,,,0,11,77,,,
74485,control_change,18,0,2,,,,,,,,,1,11,77,,,
74486,control_change,18,0,3,,,,,,,,,2,11,77,,,
74488,control_change,18,0,4,,,,,,,,,3,11,77,,,
74490,note_on,14,0,7,,,,,,,,,10,,,,69,0
74490,note_on,0,0,7,,,,,,,,,10,,,,65,103
74491,control_change,1,0,7,,,,,,,,,10,11,70,,,
74492,note_on,14,0,9,,,,,,,,,12,,,,57,0
74492,note_on,0,0,9,,,,,,,,,12,,,,53,76
74492,note_on,14,0,8,,,,,,,,,11,,,,60,0
74492,note_on,0,0,8,,,,,,,,,11,,,,57,78
74493,control_change,1,0,9,,,,,,,,,12,11,70,,,
74493,control_change,1,0,8,,,,,,,,,11,11,70,,,
74494,note_on,14,0,10,,,,,,,,,6,,,,41,0
74494,note_on,0,0,10,,,,,,,,,6,,,,48,52
74494,note_on,0,0,10,,,,,,,,,6,,,,45,52
74494,note_on,0,0,10,,,,,,,,,6,,,,45,0
74495,control_change,1,0,10,,,,,,,,,6,11,70,,,
74499,control_change,24,0,5,,,,,,,,,4,11,70,,,
74501,control_change,18,0,1,,,,,,,,,0,11,79,,,
74501,control_change,24,0,6,,,,,,,,,5,11,70,,,
74503,control_change,18,0,2,,,,,,,,,1,11,79,,,
74504,control_change,18,0,3,,,,,,,,,2,11,79,,,
74506,control_change,18,0,4,,,,,,,,,3,11,79,,,
74515,note_on,0,0,1,,,,,,,,,0,,,,81,0
74515,note_on,14,0,1,,,,,,,,,0,,,,77,0
74517,note_on,0,0,2,,,,,,,,,1,,,,69,0
74517,note_on,14,0,2,,,,,,,,,1,,,,77,0
74517,note_on,24,0,9,,,,,,,,,12,,,,53,0
74517,note_on,24,0,8,,,,,,,,,11,,,,57,0
74518,note_on,19,0,5,,,,,,,,,4,,,,53,0
74518,note_on,14,0,3,,,,,,,,,2,,,,65,0
74518,note_on,0,0,3,,,,,,,,,2,,,,69,0
74519,control_change,4,0,1,,,,,,,,,0,11,80,,,
74519,note_on,24,0,10,,,,,,,,,6,,,,45,0
74519,note_on,0,0,10,,,,,,,,,6,,,,48,0
74520,note_on,19,0,6,,,,,,,,,5,,,,41,0
74520,note_on,14,0,4,,,,,,,,,3,,,,65,0
74520,note_on,1,0,1,,,,,,,,,0,,,,81,96
74520,set_tempo,120,1,0,,,,,,1081081,,,,,,,,
74520,note_on,0,0,1,,,,,,,,,0,,,,84,96
74520,note_on,29,0,7,,,,,,,,,10,,,,65,0
74520,control_change,0,0,7,,,,,,,,,10,11,72,,,
74520,note_on,0,0,7,,,,,,,,,10,,,,77,103
74521,control_change,4,0,2,,,,,,,,,1,11,80,,,
74522,note_on,1,0,2,,,,,,,,,1,,,,77,95
74522,control_change,4,0,3,,,,,,,,,2,11,80,,,
74522,control_change,5,0,9,,,,,,,,,12,11,72,,,
74522,note_on,0,0,8,,,,,,,,,11,,,,63,78
74522,control_change,5,0,8,,,,,,,,,11,11,72,,,
74522,note_on,0,0,2,,,,,,,,,1,,,,69,95
74522,note_on,0,0,9,,,,,,,,,12,,,,60,76
74523,control_change,5,0,5,,,,,,,,,4,11,72,,,
74523,note_on,0,0,5,,,,,,,,,4,,,,60,82
74523,note_on,1,0,3,,,,,,,,,2,,,,72,96
74523,note_on,0,0,3,,,,,,,,,2,,,,63,96
74524,note_on,0,0,10,,,,,,,,,6,,,,48,52
74524,note_on,0,0,10,,,,,,,,,6,,,,41,52
74524,control_change,5,0,10,,,,,,,,,6,11,72,,,
74524,control_change,4,0,4,,,,,,,,,3,11,80,,,
74525,note_on,60,0,11,,,,,,,,,13,,,,41,36
74525,note_on,1,0,4,,,,,,,,,3,,,,63,95
74525,note_on,0,0,4,,,,,,,,,3,,,,41,95
74525,note_on,5,0,6,,,,,,,,,5,,,,53,82
74525,control_change,0,0,6,,,,,,,,,5,11,72,,,
74528,note_on,60,0,12,,,,,,,,,14,,,,29,30
74537,control_change,17,0,1,,,,,,,,,0,11,79,,,
74539,control_change,17,0,2,,,,,,,,,1,11,79,,,
74540,control_change,17,0,3,,,,,,,,,2,11,79,,,
74542,control_change,17,0,4,,,,,,,,,3,11,79,,,
74547,control_change,24,0,5,,,,,,,,,4,11,70,,,
74548,control_change,28,0,7,,,,,,,,,10,11,70,,,
74549,control_change,24,0,6,,,,,,,,,5,11,70,,,
74550,note_on,0,0,7,,,,,,,,,10,,,,72,103
74550,note_on,2,0,7,,,,,,,,,10,,,,77,0
74550,control_change,28,0,8,,,,,,,,,11,11,70,,,
74550,control_change,28,0,9,,,,,,,,,12,11,70,,,
74552,note_on,2,0,9,,,,,,,,,12,,,,60,0
74552,note_on,2,0,8,,,,,,,,,11,,,,63,0
74552,note_on,0,0,8,,,,,,,,,11,,,,60,78
74552,note_on,0,0,9,,,,,,,,,12,,,,57,76
74552,control_change,28,0,10,,,,,,,,,6,11,70,,,
74554,note_on,0,0,10,,,,,,,,,6,,,,41,0
74554,note_on,0,0,10,,,,,,,,,6,,,,51,52
74554,note_on,0,0,10,,,,,,,,,6,,,,48,52
74554,note_on,2,0,10,,,,,,,,,6,,,,48,0
74555,control_change,18,0,1,,,,,,,,,0,11,77,,,
74557,control_change,18,0,2,,,,,,,,,1,11,77,,,
74558,control_change,18,0,3,,,,,,,,,2,11,77,,,
74560,control_change,18,0,4,,,,,,,,,3,11,77,,,
74563,control_change,13,0,7,,,,,,,,,10,11,69,,,
74565,control_change,13,0,8,,,,,,,,,11,11,69,,,
74565,control_change,13,0,9,,,,,,,,,12,11,69,,,
74567,control_change,13,0,10,,,,,,,,,6,11,69,,,
74571,control_change,24,0,5,,,,,,,,,4,11,68,,,
74573,control_change,18,0,1,,,,,,,,,0,11,76,,,
74573,control_change,24,0,6,,,,,,,,,5,11,68,,,
74575,control_change,18,0,2,,,,,,,,,1,11,76,,,
74576,control_change,18,0,3,,,,,,,,,2,11,76,,,
74578,control_change,18,0,4,,,,,,,,,3,11,76,,,
74580,note_on,17,0,7,,,,,,,,,10,,,,72,0
74580,set_tempo,60,1,0,,,,,,983607,,,,,,,,
74580,note_on,0,0,7,,,,,,,,,10,,,,69,103
74582,note_on,17,0,9,,,,,,,,,12,,,,57,0
74582,note_on,17,0,8,,,,,,,,,11,,,,60,0
74582,note_on,0,0,9,,,,,,,,,12,,,,60,76
74582,note_on,0,0,8,,,,,,,,,11,,,,63,78
74584,note_on,0,0,10,,,,,,,,,6,,,,41,52
74584,note_on,0,0,10,,,,,,,,,6,,,,48,52
74584,note_on,17,0,10,,,,,,,,,6,,,,51,0
74584,note_on,0,0,10,,,,,,,,,6,,,,48,0
74591,control_change,18,0,1,,,,,,,,,0,11,74,,,
74592,control_change,12,0,7,,,,,,,,,10,11,67,,,
74593,control_change,18,0,2,,,,,,,,,1,11,74,,,
74594,control_change,12,0,9,,,,,,,,,12,11,67,,,
74594,control_change,18,0,3,,,,,,,,,2,11,74,,,
74594,control_change,12,0,8,,,,,,,,,11,11,67,,,
74595,control_change,24,0,5,,,,,,,,,4,11,66,,,
74596,control_change,18,0,4,,,,,,,,,3,11,74,,,
74596,control_change,12,0,10,,,,,,,,,6,11,67,,,
74597,control_change,24,0,6,,,,,,,,,5,11,66,,,
74609,control_change,18,0,1,,,,,,,,,0,11,72,,,
74610,note_on,18,0,7,,,,,,,,,10,,,,69,0
74610,note_on,0,0,7,,,,,,,,,10,,,,65,103
74611,control_change,18,0,2,,,,,,,,,1,11,72,,,
74612,control_change,18,0,3,,,,,,,,,2,11,72,,,
74612,note_on,18,0,9,,,,,,,,,12,,,,60,0
74612,note_on,18,0,8,,,,,,,,,11,,,,63,0
74612,note_on,0,0,9,,,,,,,,,12,,,,57,76
74612,note_on,0,0,8,,,,,,,,,11,,,,60,78
74614,note_on,18,0,10,,,,,,,,,6,,,,48,0
74614,note_on,0,0,10,,,,,,,,,6,,,,41,0
74614,control_change,18,0,4,,,,,,,,,3,11,72,,,
74614,note_on,0,0,10,,,,,,,,,6,,,,48,52
74614,note_on,0,0,10,,,,,,,,,6,,,,51,52
74619,control_change,24,0,5,,,,,,,,,4,11,64,,,
74620,control_change,10,0,7,,,,,,,,,10,11,65,,,
74621,control_change,24,0,6,,,,,,,,,5,11,64,,,
74622,control_change,10,0,9,,,,,,,,,12,11,65,,,
74622,control_change,10,0,8,,,,,,,,,11,11,65,,,
74624,control_change,10,0,10,,,,,,,,,6,11,65,,,
74627,control_change,18,0,1,,,,,,,,,0,11,70,,,
74629,control_change,18,0,2,,,,,,,,,1,11,70,,,
74630,control_change,18,0,3,,,,,,,,,2,11,70,,,
74632,control_change,18,0,4,,,,,,,,,3,11,70,,,
74635,control_change,15,0,7,,,,,,,,,10,11,64,,,
74637,control_change,15,0,8,,,,,,,,,11,11,64,,,
74637,control_change,15,0,9,,,,,,,,,12,11,64,,,
74639,control_change,15,0,10,,,,,,,,,6,11,64,,,
74640,note_on,0,0,7,,,,,,,,,10,,,,77,103
74640,note_on,5,0,7,,,,,,,,,10,,,,65,0
74642,note_on,0,0,8,,,,,,,,,11,,,,63,78
74642,note_on,5,0,9,,,,,,,,,12,,,,57,0
74642,note_on,5,0,8,,,,,,,,,11,,,,60,0
74642,note_on,0,0,9,,,,,,,,,12,,,,60,76
74643,control_change,24,0,5,,,,,,,,,4,11,62,,,
74644,note_on,0,0,10,,,,,,,,,6,,,,48,52
74644,note_on,5,0,10,,,,,,,,,6,,,,48,0
74644,note_on,0,0,10,,,,,,,,,6,,,,51,0
74644,note_on,0,0,10,,,,,,,,,6,,,,41,52
74645,control_change,18,0,1,,,,,,,,,0,11,69,,,
74645,control_change,24,0,6,,,,,,,,,5,11,62,,,
74645,note_on,120,0,11,,,,,,,,,13,,,,41,0
74647,control_change,18,0,2,,,,,,,,,1,11,69,,,
74648,note_on,120,0,12,,,,,,,,,14,,,,29,0
74648,control_change,18,0,3,,,,,,,,,2,11,69,,,
74650,control_change,18,0,4,,,,,,,,,3,11,69,,,
74663,control_change,18,0,1,,,,,,,,,0,11,67,,,
74664,control_change,24,0,7,,,,,,,,,10,11,62,,,
74665,control_change,18,0,2,,,,,,,,,1,11,67,,,
74666,control_change,18,0,3,,,,,,,,,2,11,67,,,
74666,control_change,24,0,9,,,,,,,,,12,11,62,,,
74666,control_change,24,0,8,,,,,,,,,11,11,62,,,
74667,control_change,24,0,5,,,,,,,,,4,11,60,,,
74668,control_change,24,0,10,,,,,,,,,6,11,62,,,
74668,control_change,18,0,4,,,,,,,,,3,11,67,,,
74669,control_change,24,0,6,,,,,,,,,5,11,60,,,
74670,note_on,0,0,7,,,,,,,,,10,,,,72,103
74670,note_on,6,0,7,,,,,,,,,10,,,,77,0
74672,note_on,6,0,8,,,,,,,,,11,,,,63,0
74672,note_on,0,0,8,,,,,,,,,11,,,,60,78
74672,note_on,6,0,9,,,,,,,,,12,,,,60,0
74672,note_on,0,0,9,,,,,,,,,12,,,,57,76
74674,note_on,6,0,10,,,,,,,,,6,,,,48,0
74674,note_on,0,0,10,,,,,,,,,6,,,,48,52
74674,note_on,0,0,10,,,,,,,,,6,,,,41,0
74674,note_on,0,0,10,,,,,,,,,6,,,,51,52
74681,control_change,18,0,1,,,,,,,,,0,11,65,,,
74683,control_change,18,0,2,,,,,,,,,1,11,65,,,
74684,control_change,18,0,3,,,,,,,,,2,11,65,,,
74686,control_change,18,0,4,,,,,,,,,3,11,65,,,
74691,control_change,24,0,5,,,,,,,,,4,11,58,,,
74692,control_change,22,0,7,,,,,,,,,10,11,60,,,
74693,control_change,24,0,6,,,,,,,,,5,11,58,,,
74694,control_change,22,0,9,,,,,,,,,12,11,60,,,
74694,control_change,22,0,8,,,,,,,,,11,11,60,,,
74696,control_change,22,0,10,,,,,,,,,6,11,60,,,
74699,control_change,18,0,1,,,,,,,,,0,11,64,,,
74700,note_on,0,0,7,,,,,,,,,10,,,,69,103
74700,set_tempo,120,1,0,,,,,,1061947,,,,,,,,
74700,note_on,8,0,7,,,,,,,,,10,,,,72,0
74701,control_change,18,0,2,,,,,,,,,1,11,64,,,
74702,control_change,18,0,3,,,,,,,,,2,11,64,,,
74702,note_on,8,0,8,,,,,,,,,11,,,,60,0
74702,note_on,8,0,9,,,,,,,,,12,,,,57,0
74702,note_on,0,0,9,,,,,,,,,12,,,,60,76
74702,note_on,0,0,8,,,,,,,,,11,,,,63,78
74704,note_on,0,0,10,,,,,,,,,6,,,,51,0
74704,note_on,0,0,10,,,,,,,,,6,,,,48,52
74704,note_on,8,0,10,,,,,,,,,6,,,,48,0
74704,control_change,18,0,4,,,,,,,,,3,11,64,,,
74704,note_on,0,0,10,,,,,,,,,6,,,,41,52
74705,note_on,60,0,11,,,,,,,,,13,,,,41,36
74707,control_change,7,0,7,,,,,,,,,10,11,59,,,
74708,note_on,60,0,12,,,,,,,,,14,,,,29,30
74709,control_change,7,0,8,,,,,,,,,11,11,59,,,
74709,control_change,7,0,9,,,,,,,,,12,11,59,,,
74711,control_change,7,0,10,,,,,,,,,6,11,59,,,
74715,control_change,24,0,5,,,,,,,,,4,11,56,,,
74717,control_change,24,0,6,,,,,,,,,5,11,56,,,
74717,control_change,18,0,1,,,,,,,,,0,11,62,,,
74719,control_change,18,0,2,,,,,,,,,1,11,62,,,
74720,control_change,18,0,3,,,,,,,,,2,11,62,,,
74722,control_change,18,0,4,,,,,,,,,3,11,62,,,
74730,note_on,0,0,7,,,,,,,,,10,,,,65,103
74730,note_on,23,0,7,,,,,,,,,10,,,,69,0
74732,note_on,23,0,8,,,,,,,,,11,,,,63,0
74732,note_on,23,0,9,,,,,,,,,12,,,,60,0
74732,note_on,0,0,8,,,,,,,,,11,,,,60,78
74732,note_on,0,0,9,,,,,,,,,12,,,,57,76
74734,note_on,0,0,10,,,,,,,,,6,,,,51,52
74734,note_on,0,0,10,,,,,,,,,6,,,,48,52
74734,note_on,0,0,10,,,,,,,,,6,,,,48,0
74734,note_on,23,0,10,,,,,,,,,6,,,,41,0
74735,control_change,18,0,1,,,,,,,,,0,11,61,,,
74736,control_change,6,0,7,,,,,,,,,10,11,57,,,
74737,control_change,18,0,2,,,,,,,,,1,11,61,,,
74738,control_change,18,0,3,,,,,,,,,2,11,61,,,
74738,control_change,6,0,9,,,,,,,,,12,11,57,,,
74738,control_change,6,0,8,,,,,,,,,11,11,57,,,
74739,control_change,24,0,5,,,,,,,,,4,11,54,,,
74740,control_change,6,0,10,,,,,,,,,6,11,57,,,
74740,control_change,18,0,4,,,,,,,,,3,11,61,,,
74741,control_change,24,0,6,,,,,,,,,5,11,54,,,
74753,control_change,18,0,1,,,,,,,,,0,11,59,,,
74755,control_change,18,0,2,,,,,,,,,1,11,59,,,
74756,control_change,18,0,3,,,,,,,,,2,11,59,,,
74758,control_change,18,0,4,,,,,,,,,3,11,59,,,
74760,set_tempo,60,1,0,,,,,,1008403,,,,,,,,
74760,note_on,0,0,7,,,,,,,,,10,,,,77,103
74760,note_on,24,0,7,,,,,,,,,10,,,,65,0
74762,note_on,24,0,8,,,,,,,,,11,,,,60,0
74762,note_on,0,0,8,,,,,,,,,11,,,,63,78
74762,note_on,24,0,9,,,,,,,,,12,,,,57,0
74762,note_on,0,0,9,,,,,,,,,12,,,,60,76
74763,control_change,24,0,5,,,,,,,,,4,11,52,,,
74764,note_on,0,0,10,,,,,,,,,6,,,,41,52
74764,control_change,4,0,7,,,,,,,,,10,11,55,,,
74764,note_on,0,0,10,,,,,,,,,6,,,,48,52
74764,note_on,0,0,10,,,,,,,,,6,,,,51,0
74764,note_on,24,0,10,,,,,,,,,6,,,,48,0
74765,control_change,24,0,6,,,,,,,,,5,11,52,,,
74766,control_change,4,0,9,,,,,,,,,12,11,55,,,
74766,control_change,4,0,8,,,,,,,,,11,11,55,,,
74768,control_change,4,0,10,,,,,,,,,6,11,55,,,
74771,control_change,18,0,1,,,,,,,,,0,11,57,,,
74773,control_change,18,0,2,,,,,,,,,1,11,57,,,
74774,control_change,18,0,3,,,,,,,,,2,11,57,,,
74776,control_change,18,0,4,,,,,,,,,3,11,57,,,
74779,control_change,15,0,7,,,,,,,,,10,11,54,,,
74781,control_change,15,0,8,,,,,,,,,11,11,54,,,
74781,control_change,15,0,9,,,,,,,,,12,11,54,,,
74783,control_change,15,0,10,,,,,,,,,6,11,54,,,
74787,control_change,24,0,5,,,,,,,,,4,11,50,,,
74789,control_change,24,0,6,,,,,,,,,5,11,50,,,
74789,control_change,18,0,1,,,,,,,,,0,11,55,,,
74790,note_on,0,0,7,,,,,,,,,10,,,,72,103
74790,note_on,11,0,7,,,,,,,,,10,,,,77,0
74791,control_change,18,0,2,,,,,,,,,1,11,55,,,
74792,control_change,18,0,3,,,,,,,,,2,11,55,,,
74792,note_on,11,0,9,,,,,,,,,12,,,,60,0
74792,note_on,0,0,9,,,,,,,,,12,,,,57,76
74792,note_on,0,0,8,,,,,,,,,11,,,,60,78
74792,note_on,11,0,8,,,,,,,,,11,,,,63,0
74794,note_on,0,0,10,,,,,,,,,6,,,,51,52
74794,note_on,0,0,10,,,,,,,,,6,,,,48,52
74794,note_on,0,0,10,,,,,,,,,6,,,,41,0
74794,note_on,11,0,10,,,,,,,,,6,,,,48,0
74794,control_change,18,0,4,,,,,,,,,3,11,55,,,
74807,control_change,18,0,1,,,,,,,,,0,11,54,,,
74808,control_change,18,0,7,,,,,,,,,10,11,52,,,
74809,control_change,18,0,2,,,,,,,,,1,11,54,,,
74810,control_change,18,0,3,,,,,,,,,2,11,54,,,
74810,control_change,18,0,8,,,,,,,,,11,11,52,,,
74810,control_change,18,0,9,,,,,,,,,12,11,52,,,
74811,control_change,24,0,5,,,,,,,,,4,11,48,,,
74812,control_change,18,0,4,,,,,,,,,3,11,54,,,
74812,control_change,18,0,10,,,,,,,,,6,11,52,,,
74813,control_change,24,0,6,,,,,,,,,5,11,48,,,
74820,note_on,12,0,7,,,,,,,,,10,,,,72,0
74820,note_on,0,0,7,,,,,,,,,10,,,,69,103
74822,note_on,0,0,8,,,,,,,,,11,,,,63,78
74822,note_on,12,0,9,,,,,,,,,12,,,,57,0
74822,note_on,12,0,8,,,,,,,,,11,,,,60,0
74822,note_on,0,0,9,,,,,,,,,12,,,,60,76
74824,note_on,0,0,10,,,,,,,,,6,,,,41,52
74824,note_on,0,0,10,,,,,,,,,6,,,,51,0
74824,note_on,0,0,10,,,,,,,,,6,,,,48,52
74824,note_on,12,0,10,,,,,,,,,6,,,,48,0
74825,control_change,18,0,1,,,,,,,,,0,11,52,,,
74825,note_on,120,0,11,,,,,,,,,13,,,,41,0
74827,control_change,18,0,2,,,,,,,,,1,11,52,,,
74828,note_on,120,0,12,,,,,,,,,14,,,,29,0
74828,control_change,18,0,3,,,,,,,,,2,11,52,,,
74830,control_change,18,0,4,,,,,,,,,3,11,52,,,
74835,control_change,24,0,5,,,,,,,,,4,11,46,,,
74836,control_change,16,0,7,,,,,,,,,10,11,50,,,
74837,control_change,24,0,6,,,,,,,,,5,11,46,,,
74838,control_change,16,0,8,,,,,,,,,11,11,50,,,
74838,control_change,16,0,9,,,,,,,,,12,11,50,,,
74840,control_change,16,0,10,,,,,,,,,6,11,50,,,
74843,control_change,18,0,1,,,,,,,,,0,11,51,,,
74845,control_change,18,0,2,,,,,,,,,1,11,51,,,
74846,control_change,18,0,3,,,,,,,,,2,11,51,,,
74848,control_change,18,0,4,,,,,,,,,3,11,51,,,
74850,note_on,14,0,7,,,,,,,,,10,,,,69,0
74850,note_on,0,0,7,,,,,,,,,10,,,,65,103
74851,control_change,1,0,7,,,,,,,,,10,11,49,,,
74852,note_on,0,0,9,,,,,,,,,12,,,,57,76
74852,note_on,14,0,9,,,,,,,,,12,,,,60,0
74852,note_on,0,0,8,,,,,,,,,11,,,,60,78
74852,note_on,14,0,8,,,,,,,,,11,,,,63,0
74853,control_change,1,0,8,,,,,,,,,11,11,49,,,
74853,control_change,1,0,9,,,,,,,,,12,11,49,,,
74854,note_on,0,0,10,,,,,,,,,6,,,,51,52
74854,note_on,0,0,10,,,,,,,,,6,,,,48,52
74854,note_on,14,0,10,,,,,,,,,6,,,,41,0
74854,note_on,0,0,10,,,,,,,,,6,,,,48,0
74855,control_change,1,0,10,,,,,,,,,6,11,49,,,
74859,control_change,24,0,5,,,,,,,,,4,11,44,,,
74861,control_change,24,0,6,,,,,,,,,5,11,44,,,
74861,control_change,18,0,1,,,,,,,,,0,11,49,,,
74863,control_change,18,0,2,,,,,,,,,1,11,49,,,
74864,control_change,18,0,3,,,,,,,,,2,11,49,,,
74866,control_change,18,0,4,,,,,,,,,3,11,49,,,
74875,note_on,14,0,1,,,,,,,,,0,,,,84,0
74875,note_on,0,0,1,,,,,,,,,0,,,,81,0
74875,note_on,24,0,7,,,,,,,,,10,,,,65,0
74877,note_on,0,0,2,,,,,,,,,1,,,,77,0
74877,note_on,14,0,2,,,,,,,,,1,,,,69,0
74877,note_on,24,0,8,,,,,,,,,11,,,,60,0
74877,note_on,24,0,9,,,,,,,,,12,,,,57,0
74878,note_on,19,0,5,,,,,,,,,4,,,,60,0
74878,note_on,0,0,3,,,,,,,,,2,,,,72,0
74878,note_on,14,0,3,,,,,,,,,2,,,,63,0
74879,control_change,4,0,1,,,,,,,,,0,11,47,,,
74879,note_on,0,0,10,,,,,,,,,6,,,,51,0
74879,note_on,24,0,10,,,,,,,,,6,,,,48,0
74880,note_on,14,0,4,,,,,,,,,3,,,,41,0
74880,note_on,0,0,7,,,,,,,,,10,,,,77,103
74880,note_on,0,0,1,,,,,,,,,0,,,,82,96
74880,note_on,1,0,1,,,,,,,,,0,,,,86,96
74880,set_tempo,120,1,0,,,,,,1061947,,,,,,,,
74880,note_on,19,0,6,,,,,,,,,5,,,,53,0
74880,note_on,0,0,4,,,,,,,,,3,,,,63,0
74880,control_change,5,0,7,,,,,,,,,10,11,47,,,
74881,control_change,4,0,2,,,,,,,,,1,11,47,,,
74882,note_on,0,0,2,,,,,,,,,1,,,,77,95
74882,note_on,1,0,2,,,,,,,,,1,,,,70,95
74882,note_on,0,0,9,,,,,,,,,12,,,,58,86
74882,control_change,5,0,9,,,,,,,,,12,11,47,,,
74882,control_change,4,0,3,,,,,,,,,2,11,47,,,
74882,control_change,5,0,8,,,,,,,,,11,11,47,,,
74882,note_on,0,0,8,,,,,,,,,11,,,,62,88
74883,note_on,1,0,3,,,,,,,,,2,,,,62,96
74883,note_on,0,0,3,,,,,,,,,2,,,,70,96
74883,note_on,0,0,5,,,,,,,,,4,,,,62,82
74883,control_change,5,0,5,,,,,,,,,4,11,42,,,
74884,note_on,0,0,10,,,,,,,,,6,,,,46,88
74884,control_change,4,0,4,,,,,,,,,3,11,47,,,
74884,control_change,5,0,10,,,,,,,,,6,11,47,,,
74885,note_on,60,0,11,,,,,,,,,13,,,,46,36
74885,note_on,0,0,6,,,,,,,,,5,,,,58,82
74885,control_change,5,0,6,,,,,,,,,5,11,42,,,
74885,note_on,0,0,4,,,,,,,,,3,,,,46,95
74885,note_on,1,0,4,,,,,,,,,3,,,,62,95
74888,note_on,60,0,12,,,,,,,,,14,,,,34,30
74910,note_on,30,0,7,,,,,,,,,10,,,,77,0
74910,note_on,0,0,7,,,,,,,,,10,,,,74,103
74940,set_tempo,60,1,0,,,,,,967742,,,,,,,,
74940,note_on,30,0,7,,,,,,,,,10,,,,74,0
74940,note_on,0,0,7,,,,,,,,,10,,,,70,103
74945,note_on,60,0,4,,,,,,,,,3,,,,62,0
74945,note_on,0,0,4,,,,,,,,,3,,,,58,95
74970,note_on,0,0,7,,,,,,,,,10,,,,65,103
74970,note_on,30,0,7,,,,,,,,,10,,,,70,0
75000,note_on,0,0,1,,,,,,,,,0,,,,86,0
75000,note_on,30,0,7,,,,,,,,,10,,,,65,0
75000,note_on,120,0,1,,,,,,,,,0,,,,82,0
75000,note_on,0,0,7,,,,,,,,,10,,,,62,103
75002,note_on,0,0,2,,,,,,,,,1,,,,70,0
75002,note_on,120,0,2,,,,,,,,,1,,,,77,0
75002,note_on,120,0,9,,,,,,,,,12,,,,58,0
75002,note_on,120,0,8,,,,,,,,,11,,,,62,0
75003,note_on,120,0,5,,,,,,,,,4,,,,62,0
75003,note_on,0,0,3,,,,,,,,,2,,,,62,0
75003,note_on,120,0,3,,,,,,,,,2,,,,70,0
75004,note_on,120,0,10,,,,,,,,,6,,,,46,0
75005,note_on,120,0,11,,,,,,,,,13,,,,46,0
75005,note_on,120,0,6,,,,,,,,,5,,,,58,0
75005,note_on,0,0,4,,,,,,,,,3,,,,57,95
75005,note_on,0,0,4,,,,,,,,,3,,,,46,0
75005,note_on,60,0,4,,,,,,,,,3,,,,58,0
75008,note_on,120,0,12,,,,,,,,,14,,,,34,0
75030,note_on,0,0,7,,,,,,,,,10,,,,58,103
75030,note_on,30,0,7,,,,,,,,,10,,,,62,0
75055,note_on,25,0,7,,,,,,,,,10,,,,58,0
75060,note_on,60,0,1,,,,,,,,,0,,,,82,86
75060,note_on,5,0,7,,,,,,,,,10,,,,55,88
75060,note_on,55,0,4,,,,,,,,,3,,,,57,0
75060,set_tempo,120,1,0,,,,,,1034483,,,,,,,,
75061,program_change,59,0,8,,,,,,,,45,11,,,,,
75061,program_change,59,0,9,,,,,,,,45,12,,,,,
75062,note_on,60,0,2,,,,,,,,,1,,,,70,85
75062,note_on,0,0,8,,,,,,,,,11,,,,67,33
75062,control_change,1,0,8,,,,,,,,,11,11,100,,,
75062,control_change,1,0,9,,,,,,,,,12,11,100,,,
75062,note_on,0,0,9,,,,,,,,,12,,,,63,31
75062,note_on,0,0,2,,,,,,,,,1,,,,79,85
75063,note_on,60,0,5,,,,,,,,,4,,,,60,82
75063,program_change,59,0,10,,,,,,,,45,6,,,,,
75064,note_on,0,0,10,,,,,,,,,6,,,,51,33
75064,control_change,1,0,10,,,,,,,,,6,11,100,,,
75065,note_on,5,0,4,,,,,,,,,3,,,,55,95
75065,note_on,60,0,6,,,,,,,,,5,,,,58,82
75065,note_on,60,0,11,,,,,,,,,13,,,,51,36
75068,note_on,60,0,12,,,,,,,,,14,,,,39,30
75075,note_on,15,0,7,,,,,,,,,10,,,,55,0
75090,note_on,15,0,7,,,,,,,,,10,,,,70,88
75105,note_on,15,0,7,,,,,,,,,10,,,,70,0
75117,note_on,52,0,4,,,,,,,,,3,,,,55,0
75120,set_tempo,60,1,0,,,,,,937500,,,,,,,,
75120,note_on,15,0,7,,,,,,,,,10,,,,75,88
75125,note_on,8,0,4,,,,,,,,,3,,,,63,95
75135,note_on,15,0,7,,,,,,,,,10,,,,75,0
75150,note_on,15,0,7,,,,,,,,,10,,,,70,88
75165,note_on,15,0,7,,,,,,,,,10,,,,70,0
75177,note_on,52,0,4,,,,,,,,,3,,,,63,0
75180,note_on,120,0,1,,,,,,,,,0,,,,82,0
75180,note_on,15,0,7,,,,,,,,,10,,,,67,88
75182,note_on,120,0,8,,,,,,,,,11,,,,67,0
75182,note_on,120,0,2,,,,,,,,,1,,,,79,0
75182,note_on,0,0,2,,,,,,,,,1,,,,70,0
75182,note_on,120,0,9,,,,,,,,,12,,,,63,0
75183,note_on,120,0,5,,,,,,,,,4,,,,60,0
75184,note_on,120,0,10,,,,,,,,,6,,,,51,0
75185,note_on,8,0,4,,,,,,,,,3,,,,67,95
75185,note_on,120,0,11,,,,,,,,,13,,,,51,0
75185,note_on,120,0,6,,,,,,,,,5,,,,58,0
75188,note_on,120,0,12,,,,,,,,,14,,,,39,0
75195,note_on,15,0,7,,,,,,,,,10,,,,67,0
75210,note_on,15,0,7,,,,,,,,,10,,,,70,88
75225,note_on,15,0,7,,,,,,,,,10,,,,70,0
75237,note_on,52,0,4,,,,,,,,,3,,,,67,0
75240,note_on,60,0,1,,,,,,,,,0,,,,82,86
75240,note_on,15,0,7,,,,,,,,,10,,,,65,88
75240,note_on,0,0,1,,,,,,,,,0,,,,77,86
75240,set_tempo,120,1,0,,,,,,1034483,,,,,,,,
75242,note_on,0,0,2,,,,,,,,,1,,,,74,85
75242,note_on,60,0,8,,,,,,,,,11,,,,62,33
75242,note_on,60,0,2,,,,,,,,,1,,,,70,85
75242,note_on,60,0,9,,,,,,,,,12,,,,58,31
75243,note_on,60,0,5,,,,,,,,,4,,,,62,82
75244,note_on,60,0,10,,,,,,,,,6,,,,53,33
75245,note_on,60,0,11,,,,,,,,,13,,,,53,36
75245,note_on,60,0,6,,,,,,,,,5,,,,58,82
75245,note_on,8,0,4,,,,,,,,,3,,,,58,95
75248,note_on,60,0,12,,,,,,,,,14,,,,41,30
75255,note_on,15,0,7,,,,,,,,,10,,,,65,0
75270,note_on,15,0,7,,,,,,,,,10,,,,70,88
75285,note_on,15,0,7,,,,,,,,,10,,,,70,0
75300,note_on,15,0,7,,,,,,,,,10,,,,74,88
75300,set_tempo,60,1,0,,,,,,937500,,,,,,,,
75315,note_on,15,0,7,,,,,,,,,10,,,,74,0
75330,note_on,15,0,7,,,,,,,,,10,,,,70,88
75345,note_on,15,0,7,,,,,,,,,10,,,,70,0
75360,note_on,15,0,7,,,,,,,,,10,,,,65,88
75360,note_on,120,0,1,,,,,,,,,0,,,,77,0
75360,note_on,0,0,1,,,,,,,,,0,,,,82,0
75362,note_on,120,0,8,,,,,,,,,11,,,,62,0
75362,note_on,0,0,2,,,,,,,,,1,,,,70,0
75362,note_on,120,0,2,,,,,,,,,1,,,,74,0
75362,note_on,120,0,9,,,,,,,,,12,,,,58,0
75363,note_on,120,0,5,,,,,,,,,4,,,,62,0
75364,note_on,120,0,10,,,,,,,,,6,,,,53,0
75365,note_on,120,0,11,,,,,,,,,13,,,,53,0
75365,note_on,120,0,6,,,,,,,,,5,,,,58,0
75368,note_on,120,0,12,,,,,,,,,14,,,,41,0
75375,note_on,15,0,7,,,,,,,,,10,,,,65,0
75390,note_on,15,0,7,,,,,,,,,10,,,,70,88
75405,note_on,15,0,7,,,,,,,,,10,,,,70,0
75420,note_on,15,0,7,,,,,,,,,10,,,,65,88
75420,set_tempo,120,1,0,,,,,,1034483,,,,,,,,
75420,note_on,0,0,1,,,,,,,,,0,,,,81,86
75420,note_on,60,0,1,,,,,,,,,0,,,,77,86
75422,note_on,60,0,8,,,,,,,,,11,,,,65,33
75422,note_on,60,0,2,,,,,,,,,1,,,,72,85
75422,note_on,0,0,2,,,,,,,,,1,,,,69,85
75422,note_on,60,0,9,,,,,,,,,12,,,,53,31
75423,note_on,60,0,5,,,,,,,,,4,,,,60,82
75424,note_on,60,0,10,,,,,,,,,6,,,,53,33
75425,note_on,60,0,11,,,,,,,,,13,,,,53,36
75425,note_on,60,0,6,,,,,,,,,5,,,,53,82
75425,note_on,180,0,4,,,,,,,,,3,,,,58,0
75425,note_on,0,0,4,,,,,,,,,3,,,,62,95
75428,note_on,60,0,12,,,,,,,,,14,,,,41,30
75435,note_on,15,0,7,,,,,,,,,10,,,,65,0
75450,note_on,15,0,7,,,,,,,,,10,,,,69,88
75465,note_on,15,0,7,,,,,,,,,10,,,,69,0
75480,note_on,15,0,7,,,,,,,,,10,,,,72,88
75480,set_tempo,60,1,0,,,,,,937500,,,,,,,,
75495,note_on,15,0,7,,,,,,,,,10,,,,72,0
75510,note_on,15,0,7,,,,,,,,,10,,,,69,88
75525,note_on,15,0,7,,,,,,,,,10,,,,69,0
75540,note_on,15,0,7,,,,,,,,,10,,,,65,88
75540,note_on,0,0,1,,,,,,,,,0,,,,77,0
75540,note_on,120,0,1,,,,,,,,,0,,,,81,0
75542,note_on,120,0,9,,,,,,,,,12,,,,53,0
75542,note_on,0,0,2,,,,,,,,,1,,,,72,0
75542,note_on,120,0,8,,,,,,,,,11,,,,65,0
75542,note_on,120,0,2,,,,,,,,,1,,,,69,0
75543,note_on,120,0,5,,,,,,,,,4,,,,60,0
75544,note_on,120,0,10,,,,,,,,,6,,,,53,0
75545,note_on,120,0,6,,,,,,,,,5,,,,53,0
75545,note_on,120,0,11,,,,,,,,,13,,,,53,0
75545,note_on,0,0,4,,,,,,,,,3,,,,60,95
75545,note_on,120,0,4,,,,,,,,,3,,,,62,0
75548,note_on,120,0,12,,,,,,,,,14,,,,41,0
75555,note_on,15,0,7,,,,,,,,,10,,,,65,0
75570,note_on,15,0,7,,,,,,,,,10,,,,69,88
75585,note_on,15,0,7,,,,,,,,,10,,,,69,0
75600,set_tempo,120,1,0,,,,,,1034483,,,,,,,,
75600,note_on,60,0,1,,,,,,,,,0,,,,81,86
75600,note_on,0,0,1,,,,,,,,,0,,,,78,86
75600,note_on,55,0,4,,,,,,,,,3,,,,60,0
75600,note_on,15,0,7,,,,,,,,,10,,,,66,88
75602,note_on,0,0,8,,,,,,,,,11,,,,57,26
75602,note_on,60,0,8,,,,,,,,,11,,,,66,26
75602,note_on,0,0,2,,,,,,,,,1,,,,69,85
75602,note_on,60,0,2,,,,,,,,,1,,,,74,85
75602,note_on,60,0,9,,,,,,,,,12,,,,62,24
75603,note_on,60,0,5,,,,,,,,,4,,,,62,82
75604,note_on,60,0,10,,,,,,,,,6,,,,62,28
75605,note_on,60,0,11,,,,,,,,,13,,,,62,29
75605,note_on,5,0,4,,,,,,,,,3,,,,62,109
75605,note_on,60,0,6,,,,,,,,,5,,,,50,82
75605,control_change,0,0,4,,,,,,,,,3,11,54,,,
75608,note_on,60,0,12,,,,,,,,,14,,,,50,24
75615,note_on,15,0,7,,,,,,,,,10,,,,66,0
75630,note_on,15,0,7,,,,,,,,,10,,,,69,88
75645,note_on,15,0,7,,,,,,,,,10,,,,69,0
75660,set_tempo,60,1,0,,,,,,937500,,,,,,,,
75660,note_on,15,0,7,,,,,,,,,10,,,,74,88
75675,note_on,15,0,7,,,,,,,,,10,,,,74,0
75690,note_on,15,0,7,,,,,,,,,10,,,,69,88
75705,note_on,15,0,7,,,,,,,,,10,,,,69,0
75720,note_on,0,0,1,,,,,,,,,0,,,,81,0
75720,note_on,15,0,7,,,,,,,,,10,,,,66,88
75720,note_on,120,0,1,,,,,,,,,0,,,,78,0
75722,note_on,120,0,9,,,,,,,,,12,,,,62,0
75722,note_on,120,0,8,,,,,,,,,11,,,,57,0
75722,note_on,0,0,8,,,,,,,,,11,,,,66,0
75722,note_on,0,0,2,,,,,,,,,1,,,,74,0
75722,note_on,120,0,2,,,,,,,,,1,,,,69,0
75723,note_on,120,0,5,,,,,,,,,4,,,,62,0
75724,note_on,120,0,10,,,,,,,,,6,,,,62,0
75725,note_on,120,0,6,,,,,,,,,5,,,,50,0
75725,note_on,120,0,11,,,,,,,,,13,,,,62,0
75728,note_on,120,0,12,,,,,,,,,14,,,,50,0
75735,note_on,15,0,7,,,,,,,,,10,,,,66,0
75750,note_on,15,0,7,,,,,,,,,10,,,,69,88
75765,note_on,15,0,7,,,,,,,,,10,,,,69,0
75780,set_tempo,120,1,0,,,,,,1034483,,,,,,,,
75780,note_on,15,0,7,,,,,,,,,10,,,,67,88
75784,note_on,60,0,10,,,,,,,,,6,,,,55,33
75785,note_on,60,0,11,,,,,,,,,13,,,,55,36
75788,note_on,60,0,12,,,,,,,,,14,,,,43,30
75795,note_on,15,0,7,,,,,,,,,10,,,,67,0
75810,note_on,15,0,7,,,,,,,,,10,,,,70,88
75825,note_on,15,0,7,,,,,,,,,10,,,,70,0
75840,set_tempo,60,1,0,,,,,,937500,,,,,,,,
75840,note_on,15,0,7,,,,,,,,,10,,,,74,88
75845,note_on,0,0,4,,,,,,,,,3,,,,60,109
75845,note_on,240,0,4,,,,,,,,,3,,,,62,0
75855,note_on,15,0,7,,,,,,,,,10,,,,74,0
75870,note_on,15,0,7,,,,,,,,,10,,,,70,88
75885,note_on,15,0,7,,,,,,,,,10,,,,70,0
75900,note_on,15,0,7,,,,,,,,,10,,,,67,88
75904,note_on,120,0,10,,,,,,,,,6,,,,55,0
75905,note_on,0,0,4,,,,,,,,,3,,,,62,109
75905,note_on,60,0,4,,,,,,,,,3,,,,60,0
75905,note_on,120,0,11,,,,,,,,,13,,,,55,0
75908,note_on,120,0,12,,,,,,,,,14,,,,43,0
75915,note_on,15,0,7,,,,,,,,,10,,,,67,0
75930,note_on,15,0,7,,,,,,,,,10,,,,70,88
75945,note_on,15,0,7,,,,,,,,,10,,,,70,0
75960,note_on,15,0,7,,,,,,,,,10,,,,67,88
75960,set_tempo,120,1,0,,,,,,1034483,,,,,,,,
75961,program_change,239,0,8,,,,,,,,48,11,,,,,
75962,note_on,0,0,8,,,,,,,,,11,,,,84,103
75962,control_change,1,0,8,,,,,,,,,11,11,52,,,
75964,note_on,60,0,10,,,,,,,,,6,,,,48,33
75965,note_on,60,0,11,,,,,,,,,13,,,,48,36
75965,note_on,0,0,4,,,,,,,,,3,,,,65,109
75965,note_on,60,0,4,,,,,,,,,3,,,,62,0
75968,note_on,60,0,12,,,,,,,,,14,,,,36,30
75972,note_on,0,0,8,,,,,,,,,11,,,,82,103
75972,note_on,10,0,8,,,,,,,,,11,,,,84,0
75975,note_on,15,0,7,,,,,,,,,10,,,,67,0
75980,note_on,15,0,4,,,,,,,,,3,,,,65,0
75980,note_on,0,0,4,,,,,,,,,3,,,,64,109
75982,note_on,0,0,8,,,,,,,,,11,,,,84,103
75982,note_on,10,0,8,,,,,,,,,11,,,,82,0
75983,control_change,1,0,8,,,,,,,,,11,11,50,,,
75990,note_on,15,0,7,,,,,,,,,10,,,,70,88
75992,note_on,0,0,8,,,,,,,,,11,,,,82,103
75992,note_on,9,0,8,,,,,,,,,11,,,,84,0
76002,note_on,10,0,8,,,,,,,,,11,,,,82,0
76002,note_on,0,0,8,,,,,,,,,11,,,,84,103
76004,control_change,2,0,8,,,,,,,,,11,11,48,,,
76005,note_on,15,0,7,,,,,,,,,10,,,,70,0
76012,note_on,8,0,8,,,,,,,,,11,,,,84,0
76012,note_on,0,0,8,,,,,,,,,11,,,,82,103
76020,set_tempo,60,1,0,,,,,,937500,,,,,,,,
76020,note_on,15,0,7,,,,,,,,,10,,,,72,88
76022,note_on,0,0,8,,,,,,,,,11,,,,84,103
76022,note_on,10,0,8,,,,,,,,,11,,,,82,0
76025,note_on,0,0,4,,,,,,,,,3,,,,62,106
76025,note_on,45,0,4,,,,,,,,,3,,,,64,0
76025,control_change,3,0,8,,,,,,,,,11,11,46,,,
76032,note_on,0,0,8,,,,,,,,,11,,,,82,103
76032,note_on,7,0,8,,,,,,,,,11,,,,84,0
76035,note_on,15,0,7,,,,,,,,,10,,,,72,0
76042,note_on,10,0,8,,,,,,,,,11,,,,82,0
76042,note_on,0,0,8,,,,,,,,,11,,,,84,103
76046,control_change,4,0,8,,,,,,,,,11,11,44,,,
76050,note_on,15,0,7,,,,,,,,,10,,,,70,88
76052,note_on,0,0,8,,,,,,,,,11,,,,81,103
76052,note_on,6,0,8,,,,,,,,,11,,,,84,0
76065,note_on,15,0,7,,,,,,,,,10,,,,70,0
76067,note_on,0,0,8,,,,,,,,,11,,,,82,103
76067,control_change,0,0,8,,,,,,,,,11,11,42,,,
76067,note_on,15,0,8,,,,,,,,,11,,,,81,0
76080,note_on,15,0,7,,,,,,,,,10,,,,67,88
76082,note_on,15,0,8,,,,,,,,,11,,,,82,0
76084,note_on,120,0,10,,,,,,,,,6,,,,48,0
76085,note_on,60,0,4,,,,,,,,,3,,,,62,0
76085,note_on,0,0,4,,,,,,,,,3,,,,64,103
76085,note_on,120,0,11,,,,,,,,,13,,,,48,0
76088,note_on,120,0,12,,,,,,,,,14,,,,36,0
76095,note_on,15,0,7,,,,,,,,,10,,,,67,0
76110,note_on,15,0,7,,,,,,,,,10,,,,70,88
76125,note_on,15,0,7,,,,,,,,,10,,,,70,0
76140,note_on,15,0,7,,,,,,,,,10,,,,65,88
76140,set_tempo,120,1,0,,,,,,1034483,,,,,,,,
76142,control_change,60,0,8,,,,,,,,,11,11,52,,,
76142,note_on,0,0,8,,,,,,,,,11,,,,82,103
76144,note_on,60,0,10,,,,,,,,,6,,,,41,33
76145,note_on,60,0,4,,,,,,,,,3,,,,64,0
76145,note_on,0,0,4,,,,,,,,,3,,,,65,101
76145,note_on,60,0,11,,,,,,,,,13,,,,41,36
76148,note_on,60,0,12,,,,,,,,,14,,,,29,30
76152,note_on,10,0,8,,,,,,,,,11,,,,82,0
76152,note_on,0,0,8,,,,,,,,,11,,,,81,103
76155,note_on,15,0,7,,,,,,,,,10,,,,65,0
76162,note_on,10,0,8,,,,,,,,,11,,,,81,0
76162,note_on,0,0,8,,,,,,,,,11,,,,82,103
76163,control_change,1,0,8,,,,,,,,,11,11,50,,,
76170,note_on,15,0,7,,,,,,,,,10,,,,69,88
76172,note_on,9,0,8,,,,,,,,,11,,,,82,0
76172,note_on,0,0,8,,,,,,,,,11,,,,81,103
76182,note_on,10,0,8,,,,,,,,,11,,,,81,0
76182,note_on,0,0,8,,,,,,,,,11,,,,82,103
76184,control_change,2,0,8,,,,,,,,,11,11,48,,,
76185,note_on,15,0,7,,,,,,,,,10,,,,69,0
76192,note_on,8,0,8,,,,,,,,,11,,,,82,0
76192,note_on,0,0,8,,,,,,,,,11,,,,81,103
76200,set_tempo,60,1,0,,,,,,937500,,,,,,,,
76200,note_on,15,0,7,,,,,,,,,10,,,,72,88
76202,note_on,10,0,8,,,,,,,,,11,,,,81,0
76202,note_on,0,0,8,,,,,,,,,11,,,,82,103
76205,control_change,3,0,8,,,,,,,,,11,11,46,,,
76212,note_on,0,0,8,,,,,,,,,11,,,,81,103
76212,note_on,7,0,8,,,,,,,,,11,,,,82,0
76215,note_on,15,0,7,,,,,,,,,10,,,,72,0
76222,note_on,0,0,8,,,,,,,,,11,,,,82,103
76222,note_on,10,0,8,,,,,,,,,11,,,,81,0
76226,control_change,4,0,8,,,,,,,,,11,11,44,,,
76230,note_on,15,0,7,,,,,,,,,10,,,,69,88
76232,note_on,0,0,8,,,,,,,,,11,,,,79,103
76232,note_on,6,0,8,,,,,,,,,11,,,,82,0
76245,note_on,15,0,7,,,,,,,,,10,,,,69,0
76247,note_on,0,0,8,,,,,,,,,11,,,,81,103
76247,control_change,0,0,8,,,,,,,,,11,11,42,,,
76247,note_on,15,0,8,,,,,,,,,11,,,,79,0
76260,note_on,15,0,7,,,,,,,,,10,,,,65,88
76262,note_on,15,0,8,,,,,,,,,11,,,,81,0
76264,note_on,120,0,10,,,,,,,,,6,,,,41,0
76265,note_on,0,0,4,,,,,,,,,3,,,,60,94
76265,note_on,120,0,4,,,,,,,,,3,,,,65,0
76265,note_on,120,0,11,,,,,,,,,13,,,,41,0
76268,note_on,120,0,12,,,,,,,,,14,,,,29,0
76275,note_on,15,0,7,,,,,,,,,10,,,,65,0
76290,note_on,15,0,7,,,,,,,,,10,,,,69,88
76305,note_on,15,0,7,,,,,,,,,10,,,,69,0
76320,note_on,55,0,4,,,,,,,,,3,,,,60,0
76320,note_on,15,0,7,,,,,,,,,10,,,,66,88
76320,set_tempo,120,1,0,,,,,,1034483,,,,,,,,
76321,program_change,599,0,9,,,,,,,,48,12,,,,,
76322,control_change,0,0,9,,,,,,,,,12,91,120,,,
76322,control_change,1,0,9,,,,,,,,,12,11,37,,,
76322,note_on,0,0,9,,,,,,,,,12,,,,62,96
76323,program_change,59,0,10,,,,,,,,42,6,,,,,
76324,control_change,1,0,10,,,,,,,,,6,11,37,,,
76324,control_change,0,0,10,,,,,,,,,6,91,120,,,
76324,note_on,0,0,10,,,,,,,,,6,,,,62,93
76325,note_on,60,0,11,,,,,,,,,13,,,,62,36
76325,note_on,5,0,4,,,,,,,,,3,,,,62,109
76328,note_on,60,0,12,,,,,,,,,14,,,,50,30
76335,note_on,15,0,7,,,,,,,,,10,,,,66,0
76338,control_change,16,0,9,,,,,,,,,12,11,39,,,
76340,control_change,16,0,10,,,,,,,,,6,11,39,,,
76350,note_on,15,0,7,,,,,,,,,10,,,,69,88
76354,control_change,16,0,9,,,,,,,,,12,11,41,,,
76356,control_change,16,0,10,,,,,,,,,6,11,41,,,
76365,note_on,15,0,7,,,,,,,,,10,,,,69,0
76370,control_change,16,0,9,,,,,,,,,12,11,43,,,
76372,control_change,16,0,10,,,,,,,,,6,11,43,,,
76380,note_on,15,0,7,,,,,,,,,10,,,,74,88
76380,set_tempo,60,1,0,,,,,,937500,,,,,,,,
76386,control_change,16,0,9,,,,,,,,,12,11,45,,,
76388,control_change,16,0,10,,,,,,,,,6,11,45,,,
76395,note_on,15,0,7,,,,,,,,,10,,,,74,0
76402,control_change,16,0,9,,,,,,,,,12,11,47,,,
76404,control_change,16,0,10,,,,,,,,,6,11,47,,,
76410,note_on,15,0,7,,,,,,,,,10,,,,69,88
76418,control_change,16,0,9,,,,,,,,,12,11,49,,,
76420,control_change,16,0,10,,,,,,,,,6,11,49,,,
76425,note_on,15,0,7,,,,,,,,,10,,,,69,0
76434,control_change,16,0,9,,,,,,,,,12,11,51,,,
76436,control_change,16,0,10,,,,,,,,,6,11,51,,,
76440,note_on,15,0,7,,,,,,,,,10,,,,66,88
76445,note_on,120,0,11,,,,,,,,,13,,,,62,0
76448,note_on,120,0,12,,,,,,,,,14,,,,50,0
76455,note_on,15,0,7,,,,,,,,,10,,,,66,0
76470,note_on,15,0,7,,,,,,,,,10,,,,69,88
76485,note_on,15,0,7,,,,,,,,,10,,,,69,0
76500,set_tempo,120,1,0,,,,,,1034483,,,,,,,,
76500,note_on,15,0,7,,,,,,,,,10,,,,67,88
76505,note_on,60,0,11,,,,,,,,,13,,,,55,36
76508,note_on,60,0,12,,,,,,,,,14,,,,43,30
76515,note_on,15,0,7,,,,,,,,,10,,,,67,0
76530,note_on,15,0,7,,,,,,,,,10,,,,70,88
76545,note_on,15,0,7,,,,,,,,,10,,,,70,0
76557,note_on,123,0,9,,,,,,,,,12,,,,62,0
76559,note_on,123,0,10,,,,,,,,,6,,,,62,0
76560,note_on,15,0,7,,,,,,,,,10,,,,74,88
76560,set_tempo,60,1,0,,,,,,937500,,,,,,,,
76562,note_on,5,0,9,,,,,,,,,12,,,,60,96
76564,note_on,5,0,10,,,,,,,,,6,,,,60,93
76565,note_on,240,0,4,,,,,,,,,3,,,,62,0
76565,note_on,0,0,4,,,,,,,,,3,,,,60,109
76575,note_on,15,0,7,,,,,,,,,10,,,,74,0
76590,note_on,15,0,7,,,,,,,,,10,,,,70,88
76605,note_on,15,0,7,,,,,,,,,10,,,,70,0
76620,note_on,15,0,7,,,,,,,,,10,,,,67,88
76622,note_on,60,0,9,,,,,,,,,12,,,,60,0
76622,note_on,0,0,9,,,,,,,,,12,,,,62,96
76624,note_on,0,0,10,,,,,,,,,6,,,,62,93
76624,note_on,60,0,10,,,,,,,,,6,,,,60,0
76625,note_on,120,0,11,,,,,,,,,13,,,,55,0
76625,note_on,60,0,4,,,,,,,,,3,,,,60,0
76625,note_on,0,0,4,,,,,,,,,3,,,,62,109
76628,note_on,120,0,12,,,,,,,,,14,,,,43,0
76635,note_on,15,0,7,,,,,,,,,10,,,,67,0
76650,note_on,15,0,7,,,,,,,,,10,,,,70,88
76665,note_on,15,0,7,,,,,,,,,10,,,,70,0
76680,note_on,15,0,7,,,,,,,,,10,,,,67,88
76680,set_tempo,120,1,0,,,,,,1034483,,,,,,,,
76682,note_on,60,0,9,,,,,,,,,12,,,,62,0
76682,note_on,0,0,9,,,,,,,,,12,,,,65,96
76682,control_change,420,0,8,,,,,,,,,11,11,52,,,
76682,note_on,0,0,8,,,,,,,,,11,,,,84,103
76684,note_on,0,0,10,,,,,,,,,6,,,,65,93
76684,note_on,60,0,10,,,,,,,,,6,,,,62,0
76685,note_on,0,0,4,,,,,,,,,3,,,,65,109
76685,note_on,60,0,11,,,,,,,,,13,,,,48,36
76685,note_on,60,0,4,,,,,,,,,3,,,,62,0
76688,note_on,60,0,12,,,,,,,,,14,,,,36,30
76692,note_on,10,0,8,,,,,,,,,11,,,,84,0
76692,note_on,0,0,8,,,,,,,,,11,,,,82,103
76695,note_on,15,0,7,,,,,,,,,10,,,,67,0
76697,note_on,15,0,9,,,,,,,,,12,,,,65,0
76697,note_on,0,0,9,,,,,,,,,12,,,,64,96
76699,note_on,0,0,10,,,,,,,,,6,,,,64,93
76699,note_on,15,0,10,,,,,,,,,6,,,,65,0
76700,note_on,15,0,4,,,,,,,,,3,,,,65,0
76700,note_on,0,0,4,,,,,,,,,3,,,,64,109
76702,note_on,10,0,8,,,,,,,,,11,,,,82,0
76702,note_on,0,0,8,,,,,,,,,11,,,,84,103
76703,control_change,1,0,8,,,,,,,,,11,11,50,,,
76710,note_on,15,0,7,,,,,,,,,10,,,,70,88
76712,note_on,9,0,8,,,,,,,,,11,,,,84,0
76712,note_on,0,0,8,,,,,,,,,11,,,,82,103
76722,note_on,10,0,8,,,,,,,,,11,,,,82,0
76722,note_on,0,0,8,,,,,,,,,11,,,,84,103
76724,control_change,2,0,8,,,,,,,,,11,11,48,,,
76725,note_on,15,0,7,,,,,,,,,10,,,,70,0
76732,note_on,0,0,8,,,,,,,,,11,,,,82,103
76732,note_on,8,0,8,,,,,,,,,11,,,,84,0
76740,note_on,15,0,7,,,,,,,,,10,,,,72,88
76740,set_tempo,60,1,0,,,,,,937500,,,,,,,,
76742,note_on,0,0,8,,,,,,,,,11,,,,84,103
76742,note_on,0,0,9,,,,,,,,,12,,,,62,96
76742,note_on,45,0,9,,,,,,,,,12,,,,64,0
76742,note_on,10,0,8,,,,,,,,,11,,,,82,0
76744,note_on,45,0,10,,,,,,,,,6,,,,64,0
76744,note_on,0,0,10,,,,,,,,,6,,,,62,93
76745,control_change,3,0,8,,,,,,,,,11,11,46,,,
76745,note_on,45,0,4,,,,,,,,,3,,,,64,0
76745,note_on,0,0,4,,,,,,,,,3,,,,62,109
76752,note_on,7,0,8,,,,,,,,,11,,,,84,0
76752,note_on,0,0,8,,,,,,,,,11,,,,82,103
76755,note_on,15,0,7,,,,,,,,,10,,,,72,0
76762,note_on,10,0,8,,,,,,,,,11,,,,82,0
76762,note_on,0,0,8,,,,,,,,,11,,,,84,103
76766,control_change,4,0,8,,,,,,,,,11,11,44,,,
76770,note_on,15,0,7,,,,,,,,,10,,,,70,88
76772,note_on,0,0,8,,,,,,,,,11,,,,81,103
76772,note_on,6,0,8,,,,,,,,,11,,,,84,0
76785,note_on,15,0,7,,,,,,,,,10,,,,70,0
76787,note_on,0,0,8,,,,,,,,,11,,,,82,103
76787,control_change,0,0,8,,,,,,,,,11,11,42,,,
76787,note_on,15,0,8,,,,,,,,,11,,,,81,0
76800,note_on,15,0,7,,,,,,,,,10,,,,67,88
76802,note_on,0,0,9,,,,,,,,,12,,,,64,96
76802,note_on,15,0,8,,,,,,,,,11,,,,82,0
76802,note_on,60,0,9,,,,,,,,,12,,,,62,0
76804,note_on,60,0,10,,,,,,,,,6,,,,62,0
76804,note_on,0,0,10,,,,,,,,,6,,,,64,93
76805,note_on,0,0,4,,,,,,,,,3,,,,64,109
76805,note_on,60,0,4,,,,,,,,,3,,,,62,0
76805,note_on,120,0,11,,,,,,,,,13,,,,48,0
76808,note_on,120,0,12,,,,,,,,,14,,,,36,0
76815,note_on,15,0,7,,,,,,,,,10,,,,67,0
76830,note_on,15,0,7,,,,,,,,,10,,,,70,88
76845,note_on,15,0,7,,,,,,,,,10,,,,70,0
76860,note_on,15,0,7,,,,,,,,,10,,,,65,88
76860,set_tempo,120,1,0,,,,,,1034483,,,,,,,,
76862,note_on,0,0,9,,,,,,,,,12,,,,65,96
76862,control_change,60,0,8,,,,,,,,,11,11,52,,,
76862,note_on,60,0,9,,,,,,,,,12,,,,64,0
76862,note_on,0,0,8,,,,,,,,,11,,,,82,103
76864,note_on,60,0,10,,,,,,,,,6,,,,64,0
76864,note_on,0,0,10,,,,,,,,,6,,,,65,93
76865,note_on,0,0,4,,,,,,,,,3,,,,65,109
76865,note_on,60,0,11,,,,,,,,,13,,,,41,36
76865,note_on,60,0,4,,,,,,,,,3,,,,64,0
76868,note_on,60,0,12,,,,,,,,,14,,,,29,30
76872,note_on,0,0,8,,,,,,,,,11,,,,81,103
76872,note_on,10,0,8,,,,,,,,,11,,,,82,0
76875,note_on,15,0,7,,,,,,,,,10,,,,65,0
76882,note_on,0,0,8,,,,,,,,,11,,,,82,103
76882,note_on,10,0,8,,,,,,,,,11,,,,81,0
76883,control_change,1,0,8,,,,,,,,,11,11,50,,,
76890,note_on,15,0,7,,,,,,,,,10,,,,69,88
76892,note_on,0,0,8,,,,,,,,,11,,,,81,103
76892,note_on,9,0,8,,,,,,,,,11,,,,82,0
76902,note_on,0,0,8,,,,,,,,,11,,,,82,103
76902,note_on,10,0,8,,,,,,,,,11,,,,81,0
76904,control_change,2,0,8,,,,,,,,,11,11,48,,,
76905,note_on,15,0,7,,,,,,,,,10,,,,69,0
76912,note_on,8,0,8,,,,,,,,,11,,,,82,0
76912,note_on,0,0,8,,,,,,,,,11,,,,81,103
76920,note_on,15,0,7,,,,,,,,,10,,,,72,88
76920,set_tempo,60,1,0,,,,,,937500,,,,,,,,
76922,note_on,0,0,8,,,,,,,,,11,,,,82,103
76922,note_on,10,0,8,,,,,,,,,11,,,,81,0
76925,control_change,3,0,8,,,,,,,,,11,11,46,,,
76932,note_on,0,0,8,,,,,,,,,11,,,,81,103
76932,note_on,7,0,8,,,,,,,,,11,,,,82,0
76935,note_on,15,0,7,,,,,,,,,10,,,,72,0
76942,note_on,0,0,8,,,,,,,,,11,,,,82,103
76942,note_on,10,0,8,,,,,,,,,11,,,,81,0
76946,control_change,4,0,8,,,,,,,,,11,11,44,,,
76950,note_on,15,0,7,,,,,,,,,10,,,,69,88
76952,note_on,0,0,8,,,,,,,,,11,,,,79,103
76952,note_on,6,0,8,,,,,,,,,11,,,,82,0
76965,note_on,15,0,7,,,,,,,,,10,,,,69,0
76967,note_on,0,0,8,,,,,,,,,11,,,,81,103
76967,control_change,0,0,8,,,,,,,,,11,11,42,,,
76967,note_on,15,0,8,,,,,,,,,11,,,,79,0
76980,note_on,15,0,7,,,,,,,,,10,,,,65,88
76982,note_on,120,0,9,,,,,,,,,12,,,,65,0
76982,note_on,0,0,9,,,,,,,,,12,,,,60,96
76982,note_on,15,0,8,,,,,,,,,11,,,,81,0
76984,note_on,120,0,10,,,,,,,,,6,,,,65,0
76984,note_on,0,0,10,,,,,,,,,6,,,,60,93
76985,note_on,120,0,11,,,,,,,,,13,,,,41,0
76985,note_on,120,0,4,,,,,,,,,3,,,,65,0
76985,note_on,0,0,4,,,,,,,,,3,,,,60,109
76988,note_on,120,0,12,,,,,,,,,14,,,,29,0
76995,note_on,15,0,7,,,,,,,,,10,,,,65,0
77010,note_on,15,0,7,,,,,,,,,10,,,,69,88
77025,note_on,15,0,7,,,,,,,,,10,,,,69,0
77037,note_on,55,0,9,,,,,,,,,12,,,,60,0
77039,note_on,55,0,10,,,,,,,,,6,,,,60,0
77040,note_on,15,0,7,,,,,,,,,10,,,,66,88
77040,note_on,55,0,4,,,,,,,,,3,,,,60,0
77040,set_tempo,120,1,0,,,,,,1034483,,,,,,,,
77042,note_on,5,0,9,,,,,,,,,12,,,,62,96
77044,note_on,5,0,10,,,,,,,,,6,,,,62,93
77045,note_on,60,0,11,,,,,,,,,13,,,,62,36
77045,note_on,5,0,4,,,,,,,,,3,,,,62,109
77048,note_on,60,0,12,,,,,,,,,14,,,,50,30
77055,note_on,15,0,7,,,,,,,,,10,,,,66,0
77070,note_on,15,0,7,,,,,,,,,10,,,,69,88
77085,note_on,15,0,7,,,,,,,,,10,,,,69,0
77100,note_on,15,0,7,,,,,,,,,10,,,,74,88
77100,set_tempo,60,1,0,,,,,,937500,,,,,,,,
77115,note_on,15,0,7,,,,,,,,,10,,,,74,0
77130,note_on,15,0,7,,,,,,,,,10,,,,69,88
77145,note_on,15,0,7,,,,,,,,,10,,,,69,0
77160,note_on,15,0,7,,,,,,,,,10,,,,66,88
77165,note_on,120,0,11,,,,,,,,,13,,,,62,0
77168,note_on,120,0,12,,,,,,,,,14,,,,50,0
77175,note_on,15,0,7,,,,,,,,,10,,,,66,0
77190,note_on,15,0,7,,,,,,,,,10,,,,69,88
77205,note_on,15,0,7,,,,,,,,,10,,,,69,0
77220,set_tempo,120,1,0,,,,,,1034483,,,,,,,,
77220,note_on,15,0,7,,,,,,,,,10,,,,67,88
77222,note_on,0,0,8,,,,,,,,,11,,,,84,103
77222,control_change,240,0,8,,,,,,,,,11,11,52,,,
77225,note_on,60,0,11,,,,,,,,,13,,,,55,36
77228,note_on,60,0,12,,,,,,,,,14,,,,43,30
77232,note_on,10,0,8,,,,,,,,,11,,,,84,0
77232,note_on,0,0,8,,,,,,,,,11,,,,82,103
77235,note_on,15,0,7,,,,,,,,,10,,,,67,0
77242,note_on,10,0,8,,,,,,,,,11,,,,82,0
77242,note_on,0,0,8,,,,,,,,,11,,,,84,103
77243,control_change,1,0,8,,,,,,,,,11,11,50,,,
77250,note_on,15,0,7,,,,,,,,,10,,,,70,88
77252,note_on,9,0,8,,,,,,,,,11,,,,84,0
77252,note_on,0,0,8,,,,,,,,,11,,,,82,103
77262,note_on,0,0,8,,,,,,,,,11,,,,84,103
77262,note_on,10,0,8,,,,,,,,,11,,,,82,0
77264,control_change,2,0,8,,,,,,,,,11,11,48,,,
77265,note_on,15,0,7,,,,,,,,,10,,,,70,0
77272,note_on,0,0,8,,,,,,,,,11,,,,82,103
77272,note_on,8,0,8,,,,,,,,,11,,,,84,0
77280,note_on,15,0,7,,,,,,,,,10,,,,74,88
77280,set_tempo,60,1,0,,,,,,937500,,,,,,,,
77282,note_on,0,0,8,,,,,,,,,11,,,,84,103
77282,note_on,10,0,8,,,,,,,,,11,,,,82,0
77282,note_on,0,0,9,,,,,,,,,12,,,,60,96
77282,note_on,240,0,9,,,,,,,,,12,,,,62,0
77284,note_on,0,0,10,,,,,,,,,6,,,,60,93
77284,note_on,240,0,10,,,,,,,,,6,,,,62,0
77285,note_on,0,0,4,,,,,,,,,3,,,,60,109
77285,note_on,240,0,4,,,,,,,,,3,,,,62,0
77285,control_change,3,0,8,,,,,,,,,11,11,46,,,
77292,note_on,7,0,8,,,,,,,,,11,,,,84,0
77292,note_on,0,0,8,,,,,,,,,11,,,,82,103
77295,note_on,15,0,7,,,,,,,,,10,,,,74,0
77302,note_on,10,0,8,,,,,,,,,11,,,,82,0
77302,note_on,0,0,8,,,,,,,,,11,,,,84,103
77306,control_change,4,0,8,,,,,,,,,11,11,44,,,
77310,note_on,15,0,7,,,,,,,,,10,,,,70,88
77312,note_on,6,0,8,,,,,,,,,11,,,,84,0
77312,note_on,0,0,8,,,,,,,,,11,,,,81,103
77325,note_on,15,0,7,,,,,,,,,10,,,,70,0
77327,note_on,15,0,8,,,,,,,,,11,,,,81,0
77327,control_change,0,0,8,,,,,,,,,11,11,42,,,
77327,note_on,0,0,8,,,,,,,,,11,,,,82,103
77340,note_on,15,0,7,,,,,,,,,10,,,,67,88
77342,note_on,0,0,9,,,,,,,,,12,,,,62,96
77342,note_on,15,0,8,,,,,,,,,11,,,,82,0
77342,note_on,60,0,9,,,,,,,,,12,,,,60,0
77344,note_on,0,0,10,,,,,,,,,6,,,,62,93
77344,note_on,60,0,10,,,,,,,,,6,,,,60,0
77345,note_on,0,0,4,,,,,,,,,3,,,,62,109
77345,note_on,120,0,11,,,,,,,,,13,,,,55,0
77345,note_on,60,0,4,,,,,,,,,3,,,,60,0
77348,note_on,120,0,12,,,,,,,,,14,,,,43,0
77355,note_on,15,0,7,,,,,,,,,10,,,,67,0
77370,note_on,15,0,7,,,,,,,,,10,,,,70,88
77385,note_on,15,0,7,,,,,,,,,10,,,,70,0
77400,set_tempo,120,1,0,,,,,,1034483,,,,,,,,
77400,note_on,15,0,7,,,,,,,,,10,,,,67,88
77402,note_on,0,0,8,,,,,,,,,11,,,,84,103
77402,note_on,0,0,9,,,,,,,,,12,,,,65,96
77402,note_on,60,0,9,,,,,,,,,12,,,,62,0
77402,control_change,60,0,8,,,,,,,,,11,11,52,,,
77404,note_on,60,0,10,,,,,,,,,6,,,,62,0
77404,note_on,0,0,10,,,,,,,,,6,,,,65,93
77405,note_on,60,0,11,,,,,,,,,13,,,,48,36
77405,note_on,60,0,4,,,,,,,,,3,,,,62,0
77405,note_on,0,0,4,,,,,,,,,3,,,,65,109
77408,note_on,60,0,12,,,,,,,,,14,,,,36,30
77412,note_on,10,0,8,,,,,,,,,11,,,,84,0
77412,note_on,0,0,8,,,,,,,,,11,,,,82,103
77415,note_on,15,0,7,,,,,,,,,10,,,,67,0
77417,note_on,0,0,9,,,,,,,,,12,,,,64,96
77417,note_on,15,0,9,,,,,,,,,12,,,,65,0
77419,note_on,15,0,10,,,,,,,,,6,,,,65,0
77419,note_on,0,0,10,,,,,,,,,6,,,,64,93
77420,note_on,15,0,4,,,,,,,,,3,,,,65,0
77420,note_on,0,0,4,,,,,,,,,3,,,,64,109
77422,note_on,0,0,8,,,,,,,,,11,,,,84,103
77422,note_on,10,0,8,,,,,,,,,11,,,,82,0
77423,control_change,1,0,8,,,,,,,,,11,11,50,,,
77430,note_on,15,0,7,,,,,,,,,10,,,,70,88
77432,note_on,9,0,8,,,,,,,,,11,,,,84,0
77432,note_on,0,0,8,,,,,,,,,11,,,,82,103
77442,note_on,10,0,8,,,,,,,,,11,,,,82,0
77442,note_on,0,0,8,,,,,,,,,11,,,,84,103
77444,control_change,2,0,8,,,,,,,,,11,11,48,,,
77445,note_on,15,0,7,,,,,,,,,10,,,,70,0
77452,note_on,0,0,8,,,,,,,,,11,,,,82,103
77452,note_on,8,0,8,,,,,,,,,11,,,,84,0
77460,set_tempo,60,1,0,,,,,,937500,,,,,,,,
77460,note_on,15,0,7,,,,,,,,,10,,,,72,88
77462,note_on,45,0,9,,,,,,,,,12,,,,64,0
77462,note_on,10,0,8,,,,,,,,,11,,,,82,0
77462,note_on,0,0,9,,,,,,,,,12,,,,62,96
77462,note_on,0,0,8,,,,,,,,,11,,,,84,103
77464,note_on,0,0,10,,,,,,,,,6,,,,62,93
77464,note_on,45,0,10,,,,,,,,,6,,,,64,0
77465,note_on,0,0,4,,,,,,,,,3,,,,62,109
77465,note_on,45,0,4,,,,,,,,,3,,,,64,0
77465,control_change,3,0,8,,,,,,,,,11,11,46,,,
77472,note_on,0,0,8,,,,,,,,,11,,,,82,103
77472,note_on,7,0,8,,,,,,,,,11,,,,84,0
77475,note_on,15,0,7,,,,,,,,,10,,,,72,0
77482,note_on,0,0,8,,,,,,,,,11,,,,84,103
77482,note_on,10,0,8,,,,,,,,,11,,,,82,0
77486,control_change,4,0,8,,,,,,,,,11,11,44,,,
77490,note_on,15,0,7,,,,,,,,,10,,,,70,88
77492,note_on,0,0,8,,,,,,,,,11,,,,81,103
77492,note_on,6,0,8,,,,,,,,,11,,,,84,0
77505,note_on,15,0,7,,,,,,,,,10,,,,70,0
77507,control_change,0,0,8,,,,,,,,,11,11,42,,,
77507,note_on,15,0,8,,,,,,,,,11,,,,81,0
77507,note_on,0,0,8,,,,,,,,,11,,,,82,103
77520,note_on,15,0,7,,,,,,,,,10,,,,67,88
77522,note_on,0,0,9,,,,,,,,,12,,,,64,96
77522,note_on,15,0,8,,,,,,,,,11,,,,82,0
77522,note_on,60,0,9,,,,,,,,,12,,,,62,0
77524,note_on,0,0,10,,,,,,,,,6,,,,64,93
77524,note_on,60,0,10,,,,,,,,,6,,,,62,0
77525,note_on,60,0,4,,,,,,,,,3,,,,62,0
77525,note_on,0,0,4,,,,,,,,,3,,,,64,109
77525,note_on,120,0,11,,,,,,,,,13,,,,48,0
77528,note_on,120,0,12,,,,,,,,,14,,,,36,0
77535,note_on,15,0,7,,,,,,,,,10,,,,67,0
77550,note_on,15,0,7,,,,,,,,,10,,,,70,88
77565,note_on,15,0,7,,,,,,,,,10,,,,70,0
77577,note_on,55,0,9,,,,,,,,,12,,,,64,0
77579,note_on,55,0,10,,,,,,,,,6,,,,64,0
77580,note_on,0,0,7,,,,,,,,,10,,,,65,88
77580,control_change,15,0,7,,,,,,,,,10,11,47,,,
77580,set_tempo,120,1,0,,,,,,1034483,,,,,,,,
77580,note_on,55,0,4,,,,,,,,,3,,,,64,0
77582,control_change,60,0,8,,,,,,,,,11,11,56,,,
77582,control_change,5,0,9,,,,,,,,,12,11,52,,,
77582,note_on,0,0,8,,,,,,,,,11,,,,82,103
77582,note_on,0,0,9,,,,,,,,,12,,,,65,96
77584,control_change,5,0,10,,,,,,,,,6,11,52,,,
77584,note_on,0,0,10,,,,,,,,,6,,,,65,93
77585,note_on,0,0,4,,,,,,,,,3,,,,65,109
77585,note_on,60,0,11,,,,,,,,,13,,,,41,36
77585,control_change,5,0,4,,,,,,,,,3,11,54,,,
77588,note_on,60,0,12,,,,,,,,,14,,,,29,30
77592,note_on,10,0,8,,,,,,,,,11,,,,82,0
77592,note_on,0,0,8,,,,,,,,,11,,,,81,103
77595,note_on,15,0,7,,,,,,,,,10,,,,65,0
77602,note_on,0,0,8,,,,,,,,,11,,,,82,103
77602,note_on,10,0,8,,,,,,,,,11,,,,81,0
77603,control_change,1,0,8,,,,,,,,,11,11,54,,,
77609,control_change,24,0,4,,,,,,,,,3,11,55,,,
77610,note_on,15,0,7,,,,,,,,,10,,,,69,88
77612,note_on,0,0,8,,,,,,,,,11,,,,81,103
77612,note_on,9,0,8,,,,,,,,,11,,,,82,0
77616,control_change,6,0,7,,,,,,,,,10,11,48,,,
77622,note_on,10,0,8,,,,,,,,,11,,,,81,0
77622,note_on,0,0,8,,,,,,,,,11,,,,82,103
77623,control_change,41,0,9,,,,,,,,,12,11,53,,,
77624,control_change,2,0,8,,,,,,,,,11,11,52,,,
77625,note_on,9,0,7,,,,,,,,,10,,,,69,0
77625,control_change,41,0,10,,,,,,,,,6,11,53,,,
77632,note_on,8,0,8,,,,,,,,,11,,,,82,0
77632,note_on,0,0,8,,,,,,,,,11,,,,81,103
77633,control_change,24,0,4,,,,,,,,,3,11,55,,,
77640,set_tempo,60,1,0,,,,,,937500,,,,,,,,
77640,note_on,15,0,7,,,,,,,,,10,,,,72,88
77642,note_on,10,0,8,,,,,,,,,11,,,,81,0
77642,note_on,0,0,8,,,,,,,,,11,,,,82,103
77645,control_change,3,0,8,,,,,,,,,11,11,50,,,
77652,note_on,7,0,8,,,,,,,,,11,,,,82,0
77652,note_on,0,0,8,,,,,,,,,11,,,,81,103
77652,control_change,12,0,7,,,,,,,,,10,11,49,,,
77655,note_on,3,0,7,,,,,,,,,10,,,,72,0
77658,control_change,25,0,4,,,,,,,,,3,11,56,,,
77662,note_on,10,0,8,,,,,,,,,11,,,,81,0
77662,note_on,0,0,8,,,,,,,,,11,,,,82,103
77664,control_change,41,0,9,,,,,,,,,12,11,54,,,
77666,control_change,41,0,10,,,,,,,,,6,11,54,,,
77666,control_change,4,0,8,,,,,,,,,11,11,48,,,
77670,note_on,15,0,7,,,,,,,,,10,,,,69,88
77672,note_on,6,0,8,,,,,,,,,11,,,,82,0
77672,note_on,0,0,8,,,,,,,,,11,,,,79,103
77682,control_change,24,0,4,,,,,,,,,3,11,57,,,
77685,note_on,15,0,7,,,,,,,,,10,,,,69,0
77687,note_on,15,0,8,,,,,,,,,11,,,,79,0
77687,control_change,0,0,8,,,,,,,,,11,11,46,,,
77687,note_on,0,0,8,,,,,,,,,11,,,,81,103
77688,control_change,3,0,7,,,,,,,,,10,11,50,,,
77700,note_on,12,0,7,,,,,,,,,10,,,,65,88
77702,note_on,15,0,8,,,,,,,,,11,,,,81,0
77702,note_on,38,0,9,,,,,,,,,12,,,,65,0
77702,note_on,0,0,9,,,,,,,,,12,,,,60,96
77704,note_on,0,0,10,,,,,,,,,6,,,,60,93
77704,note_on,38,0,10,,,,,,,,,6,,,,65,0
77705,control_change,3,0,9,,,,,,,,,12,11,55,,,
77705,note_on,120,0,11,,,,,,,,,13,,,,41,0
77705,note_on,23,0,4,,,,,,,,,3,,,,65,0
77705,note_on,0,0,4,,,,,,,,,3,,,,60,109
77707,control_change,3,0,10,,,,,,,,,6,11,55,,,
77707,control_change,2,0,4,,,,,,,,,3,11,58,,,
77708,note_on,120,0,12,,,,,,,,,14,,,,29,0
77715,note_on,15,0,7,,,,,,,,,10,,,,65,0
77724,control_change,9,0,7,,,,,,,,,10,11,51,,,
77730,note_on,6,0,7,,,,,,,,,10,,,,69,88
77731,control_change,24,0,4,,,,,,,,,3,11,59,,,
77745,note_on,15,0,7,,,,,,,,,10,,,,69,0
77746,control_change,41,0,9,,,,,,,,,12,11,56,,,
77748,control_change,41,0,10,,,,,,,,,6,11,56,,,
77755,control_change,24,0,4,,,,,,,,,3,11,60,,,
77760,set_tempo,120,1,0,,,,,,1034483,,,,,,,,
77760,control_change,15,0,7,,,,,,,,,10,11,52,,,
77760,note_on,0,0,7,,,,,,,,,10,,,,65,88
77762,note_on,0,0,8,,,,,,,,,11,,,,84,103
77762,note_on,0,0,9,,,,,,,,,12,,,,62,81
77762,control_change,60,0,8,,,,,,,,,11,11,60,,,
77762,note_on,16,0,9,,,,,,,,,12,,,,60,0
77764,note_on,16,0,10,,,,,,,,,6,,,,60,0
77764,note_on,0,0,10,,,,,,,,,6,,,,62,83
77765,note_on,0,0,4,,,,,,,,,3,,,,62,115
77765,note_on,10,0,4,,,,,,,,,3,,,,60,0
77765,note_on,60,0,11,,,,,,,,,13,,,,53,39
77768,note_on,60,0,12,,,,,,,,,14,,,,41,33
77772,note_on,10,0,8,,,,,,,,,11,,,,84,0
77772,note_on,0,0,8,,,,,,,,,11,,,,82,103
77775,note_on,15,0,7,,,,,,,,,10,,,,65,0
77780,control_change,15,0,4,,,,,,,,,3,11,61,,,
77782,note_on,0,0,8,,,,,,,,,11,,,,84,103
77782,note_on,10,0,8,,,,,,,,,11,,,,82,0
77783,control_change,1,0,8,,,,,,,,,11,11,58,,,
77787,control_change,25,0,9,,,,,,,,,12,11,57,,,
77789,control_change,25,0,10,,,,,,,,,6,11,57,,,
77790,note_on,15,0,7,,,,,,,,,10,,,,70,88
77792,note_on,9,0,8,,,,,,,,,11,,,,84,0
77792,note_on,0,0,8,,,,,,,,,11,,,,82,103
77796,control_change,6,0,7,,,,,,,,,10,11,53,,,
77802,note_on,10,0,8,,,,,,,,,11,,,,82,0
77802,note_on,0,0,8,,,,,,,,,11,,,,84,103
77804,control_change,2,0,8,,,,,,,,,11,11,56,,,
77804,control_change,24,0,4,,,,,,,,,3,11,61,,,
77805,note_on,9,0,7,,,,,,,,,10,,,,70,0
77812,note_on,8,0,8,,,,,,,,,11,,,,84,0
77812,note_on,0,0,8,,,,,,,,,11,,,,82,103
77820,set_tempo,60,1,0,,,,,,937500,,,,,,,,
77820,note_on,15,0,7,,,,,,,,,10,,,,74,88
77822,note_on,10,0,8,,,,,,,,,11,,,,82,0
77822,note_on,0,0,8,,,,,,,,,11,,,,84,103
77825,control_change,3,0,8,,,,,,,,,11,11,54,,,
77828,control_change,41,0,9,,,,,,,,,12,11,58,,,
77829,control_change,25,0,4,,,,,,,,,3,11,62,,,
77830,control_change,41,0,10,,,,,,,,,6,11,58,,,
77832,note_on,0,0,8,,,,,,,,,11,,,,82,103
77832,note_on,7,0,8,,,,,,,,,11,,,,84,0
77832,control_change,12,0,7,,,,,,,,,10,11,54,,,
77835,note_on,3,0,7,,,,,,,,,10,,,,74,0
77842,note_on,10,0,8,,,,,,,,,11,,,,82,0
77842,note_on,0,0,8,,,,,,,,,11,,,,84,103
77846,control_change,4,0,8,,,,,,,,,11,11,52,,,
77850,note_on,15,0,7,,,,,,,,,10,,,,70,88
77852,note_on,6,0,8,,,,,,,,,11,,,,84,0
77852,note_on,0,0,8,,,,,,,,,11,,,,81,103
77853,control_change,24,0,4,,,,,,,,,3,11,63,,,
77865,note_on,15,0,7,,,,,,,,,10,,,,70,0
77867,note_on,15,0,8,,,,,,,,,11,,,,81,0
77867,note_on,0,0,8,,,,,,,,,11,,,,82,103
77867,control_change,0,0,8,,,,,,,,,11,11,50,,,
77868,control_change,3,0,7,,,,,,,,,10,11,55,,,
77870,control_change,42,0,9,,,,,,,,,12,11,59,,,
77872,control_change,42,0,10,,,,,,,,,6,11,59,,,
77877,control_change,24,0,4,,,,,,,,,3,11,64,,,
77880,note_on,12,0,7,,,,,,,,,10,,,,65,88
77882,note_on,15,0,8,,,,,,,,,11,,,,82,0
77882,note_on,12,0,9,,,,,,,,,12,,,,62,0
77882,note_on,0,0,9,,,,,,,,,12,,,,58,79
77884,note_on,12,0,10,,,,,,,,,6,,,,62,0
77884,note_on,0,0,10,,,,,,,,,6,,,,58,81
77885,note_on,0,0,4,,,,,,,,,3,,,,58,95
77885,note_on,8,0,4,,,,,,,,,3,,,,62,0
77885,note_on,120,0,11,,,,,,,,,13,,,,53,0
77888,note_on,120,0,12,,,,,,,,,14,,,,41,0
77895,note_on,15,0,7,,,,,,,,,10,,,,65,0
77902,control_change,17,0,4,,,,,,,,,3,11,65,,,
77904,control_change,9,0,7,,,,,,,,,10,11,56,,,
77910,note_on,6,0,7,,,,,,,,,10,,,,70,88
77911,control_change,29,0,9,,,,,,,,,12,11,60,,,
77913,control_change,29,0,10,,,,,,,,,6,11,60,,,
77925,note_on,15,0,7,,,,,,,,,10,,,,70,0
77926,control_change,24,0,4,,,,,,,,,3,11,65,,,
77940,set_tempo,120,1,0,,,,,,1034483,,,,,,,,
77940,control_change,15,0,7,,,,,,,,,10,11,57,,,
77940,note_on,0,0,7,,,,,,,,,10,,,,65,88
77942,note_on,0,0,9,,,,,,,,,12,,,,53,79
77942,note_on,31,0,9,,,,,,,,,12,,,,58,0
77942,control_change,60,0,8,,,,,,,,,11,11,64,,,
77942,note_on,0,0,8,,,,,,,,,11,,,,86,103
77943,control_change,0,0,3,,,,,,,,,2,11,66,,,
77943,note_on,2940,0,3,,,,,,,,,2,,,,77,96
77944,note_on,0,0,10,,,,,,,,,6,,,,53,80
77944,note_on,31,0,10,,,,,,,,,6,,,,58,0
77945,note_on,60,0,11,,,,,,,,,13,,,,53,43
77945,note_on,19,0,4,,,,,,,,,3,,,,58,0
77945,note_on,0,0,4,,,,,,,,,3,,,,53,95
77948,note_on,60,0,12,,,,,,,,,14,,,,41,38
77951,control_change,6,0,4,,,,,,,,,3,11,66,,,
77952,control_change,10,0,9,,,,,,,,,12,11,61,,,
77952,note_on,10,0,8,,,,,,,,,11,,,,86,0
77952,note_on,0,0,8,,,,,,,,,11,,,,84,103
77954,control_change,10,0,10,,,,,,,,,6,11,61,,,
77955,note_on,15,0,7,,,,,,,,,10,,,,65,0
77962,note_on,10,0,8,,,,,,,,,11,,,,84,0
77962,note_on,0,0,8,,,,,,,,,11,,,,86,103
77963,control_change,1,0,8,,,,,,,,,11,11,62,,,
77970,note_on,15,0,7,,,,,,,,,10,,,,72,88
77972,note_on,0,0,8,,,,,,,,,11,,,,84,103
77972,note_on,9,0,8,,,,,,,,,11,,,,86,0
77975,control_change,24,0,4,,,,,,,,,3,11,67,,,
77976,control_change,6,0,7,,,,,,,,,10,11,58,,,
77979,control_change,36,0,3,,,,,,,,,2,11,66,,,
77982,note_on,10,0,8,,,,,,,,,11,,,,84,0
77982,note_on,0,0,8,,,,,,,,,11,,,,86,103
77984,control_change,2,0,8,,,,,,,,,11,11,60,,,
77985,note_on,9,0,7,,,,,,,,,10,,,,72,0
77992,note_on,8,0,8,,,,,,,,,11,,,,86,0
77992,note_on,0,0,8,,,,,,,,,11,,,,84,103
77993,control_change,41,0,9,,,,,,,,,12,11,62,,,
77995,control_change,41,0,10,,,,,,,,,6,11,62,,,
77999,control_change,24,0,4,,,,,,,,,3,11,68,,,
78000,note_on,15,0,7,,,,,,,,,10,,,,75,88
78000,set_tempo,60,1,0,,,,,,937500,,,,,,,,
78002,note_on,10,0,8,,,,,,,,,11,,,,84,0
78002,note_on,0,0,8,,,,,,,,,11,,,,86,103
78005,control_change,3,0,8,,,,,,,,,11,11,58,,,
78012,control_change,12,0,7,,,,,,,,,10,11,59,,,
78012,note_on,0,0,8,,,,,,,,,11,,,,84,103
78012,note_on,7,0,8,,,,,,,,,11,,,,86,0
78015,note_on,3,0,7,,,,,,,,,10,,,,75,0
78015,control_change,36,0,3,,,,,,,,,2,11,67,,,
78022,note_on,10,0,8,,,,,,,,,11,,,,84,0
78022,note_on,0,0,8,,,,,,,,,11,,,,86,103
78024,control_change,25,0,4,,,,,,,,,3,11,69,,,
78026,control_change,4,0,8,,,,,,,,,11,11,56,,,
78030,note_on,15,0,7,,,,,,,,,10,,,,72,88
78032,note_on,6,0,8,,,,,,,,,11,,,,86,0
78032,note_on,0,0,8,,,,,,,,,11,,,,82,103
78034,control_change,41,0,9,,,,,,,,,12,11,63,,,
78036,control_change,41,0,10,,,,,,,,,6,11,63,,,
78045,note_on,15,0,7,,,,,,,,,10,,,,72,0
78047,note_on,0,0,8,,,,,,,,,11,,,,84,103
78047,note_on,15,0,8,,,,,,,,,11,,,,82,0
78047,control_change,0,0,8,,,,,,,,,11,11,54,,,
78048,control_change,3,0,7,,,,,,,,,10,11,60,,,
78048,control_change,24,0,4,,,,,,,,,3,11,70,,,
78051,control_change,36,0,3,,,,,,,,,2,11,67,,,
78060,note_on,12,0,7,,,,,,,,,10,,,,65,88
78062,note_on,15,0,8,,,,,,,,,11,,,,84,0
78062,note_on,0,0,9,,,,,,,,,12,,,,57,76
78062,note_on,28,0,9,,,,,,,,,12,,,,53,0
78063,note_on,12,0,3,,,,,,,,,2,,,,77,0
78063,note_on,0,0,3,,,,,,,,,2,,,,72,96
78064,note_on,0,0,10,,,,,,,,,6,,,,57,77
78064,note_on,28,0,10,,,,,,,,,6,,,,53,0
78065,note_on,17,0,4,,,,,,,,,3,,,,53,0
78065,note_on,0,0,4,,,,,,,,,3,,,,57,95
78065,note_on,120,0,11,,,,,,,,,13,,,,53,0
78068,note_on,120,0,12,,,,,,,,,14,,,,41,0
78073,control_change,8,0,4,,,,,,,,,3,11,70,,,
78075,note_on,15,0,7,,,,,,,,,10,,,,65,0
78075,control_change,13,0,9,,,,,,,,,12,11,64,,,
78077,control_change,13,0,10,,,,,,,,,6,11,64,,,
78084,control_change,9,0,7,,,,,,,,,10,11,61,,,
78087,control_change,24,0,3,,,,,,,,,2,11,68,,,
78090,note_on,6,0,7,,,,,,,,,10,,,,72,88
78097,control_change,24,0,4,,,,,,,,,3,11,71,,,
78105,note_on,15,0,7,,,,,,,,,10,,,,72,0
78116,control_change,41,0,9,,,,,,,,,12,11,65,,,
78118,control_change,41,0,10,,,,,,,,,6,11,65,,,
78120,control_change,15,0,7,,,,,,,,,10,11,62,,,
78120,set_tempo,120,1,0,,,,,,1034483,,,,,,,,
78120,note_on,0,0,7,,,,,,,,,10,,,,65,88
78121,control_change,24,0,4,,,,,,,,,3,11,72,,,
78122,note_on,6,0,9,,,,,,,,,12,,,,57,0
78122,note_on,0,0,9,,,,,,,,,12,,,,58,75
78122,control_change,60,0,8,,,,,,,,,11,11,68,,,
78122,note_on,0,0,8,,,,,,,,,11,,,,84,103
78123,control_change,0,0,3,,,,,,,,,2,11,68,,,
78123,note_on,0,0,3,,,,,,,,,2,,,,74,96
78123,note_on,36,0,3,,,,,,,,,2,,,,72,0
78124,note_on,0,0,10,,,,,,,,,6,,,,58,77
78124,note_on,6,0,10,,,,,,,,,6,,,,57,0
78125,note_on,0,0,4,,,,,,,,,3,,,,58,95
78125,note_on,4,0,4,,,,,,,,,3,,,,57,0
78125,note_on,60,0,11,,,,,,,,,13,,,,53,48
78128,note_on,60,0,12,,,,,,,,,14,,,,41,41
78132,note_on,0,0,8,,,,,,,,,11,,,,82,103
78132,note_on,10,0,8,,,,,,,,,11,,,,84,0
78135,note_on,15,0,7,,,,,,,,,10,,,,65,0
78142,note_on,0,0,8,,,,,,,,,11,,,,84,103
78142,note_on,10,0,8,,,,,,,,,11,,,,82,0
78143,control_change,1,0,8,,,,,,,,,11,11,66,,,
78146,control_change,21,0,4,,,,,,,,,3,11,73,,,
78150,note_on,15,0,7,,,,,,,,,10,,,,70,88
78152,note_on,0,0,8,,,,,,,,,11,,,,82,103
78152,note_on,9,0,8,,,,,,,,,11,,,,84,0
78156,control_change,6,0,7,,,,,,,,,10,11,63,,,
78158,control_change,36,0,9,,,,,,,,,12,11,66,,,
78159,control_change,36,0,3,,,,,,,,,2,11,69,,,
78160,control_change,36,0,10,,,,,,,,,6,11,66,,,
78162,note_on,0,0,8,,,,,,,,,11,,,,84,103
78162,note_on,10,0,8,,,,,,,,,11,,,,82,0
78164,control_change,2,0,8,,,,,,,,,11,11,64,,,
78165,note_on,9,0,7,,,,,,,,,10,,,,70,0
78170,control_change,24,0,4,,,,,,,,,3,11,74,,,
78172,note_on,8,0,8,,,,,,,,,11,,,,84,0
78172,note_on,0,0,8,,,,,,,,,11,,,,82,103
78180,set_tempo,60,1,0,,,,,,937500,,,,,,,,
78180,note_on,15,0,7,,,,,,,,,10,,,,74,88
78182,note_on,0,0,8,,,,,,,,,11,,,,84,103
78182,note_on,10,0,8,,,,,,,,,11,,,,82,0
78185,control_change,3,0,8,,,,,,,,,11,11,62,,,
78192,note_on,7,0,8,,,,,,,,,11,,,,84,0
78192,note_on,0,0,8,,,,,,,,,11,,,,82,103
78192,control_change,12,0,7,,,,,,,,,10,11,64,,,
78195,note_on,3,0,7,,,,,,,,,10,,,,74,0
78195,control_change,25,0,4,,,,,,,,,3,11,75,,,
78195,control_change,36,0,3,,,,,,,,,2,11,69,,,
78199,control_change,41,0,9,,,,,,,,,12,11,67,,,
78201,control_change,41,0,10,,,,,,,,,6,11,67,,,
78202,note_on,10,0,8,,,,,,,,,11,,,,82,0
78202,note_on,0,0,8,,,,,,,,,11,,,,84,103
78206,control_change,4,0,8,,,,,,,,,11,11,60,,,
78210,note_on,15,0,7,,,,,,,,,10,,,,70,88
78212,note_on,6,0,8,,,,,,,,,11,,,,84,0
78212,note_on,0,0,8,,,,,,,,,11,,,,81,103
78219,control_change,24,0,4,,,,,,,,,3,11,76,,,
78225,note_on,15,0,7,,,,,,,,,10,,,,70,0
78227,note_on,15,0,8,,,,,,,,,11,,,,81,0
78227,control_change,0,0,8,,,,,,,,,11,11,58,,,
78227,note_on,0,0,8,,,,,,,,,11,,,,82,103
78228,control_change,3,0,7,,,,,,,,,10,11,65,,,
78231,control_change,36,0,3,,,,,,,,,2,11,70,,,
78240,note_on,12,0,7,,,,,,,,,10,,,,65,88
78240,control_change,41,0,9,,,,,,,,,12,11,68,,,
78242,note_on,0,0,9,,,,,,,,,12,,,,62,72
78242,control_change,41,0,10,,,,,,,,,6,11,68,,,
78242,note_on,2,0,9,,,,,,,,,12,,,,58,0
78242,note_on,15,0,8,,,,,,,,,11,,,,82,0
78243,note_on,12,0,3,,,,,,,,,2,,,,74,0
78243,note_on,0,0,3,,,,,,,,,2,,,,70,96
78243,control_change,24,0,4,,,,,,,,,3,11,76,,,
78244,note_on,2,0,10,,,,,,,,,6,,,,58,0
78244,note_on,0,0,10,,,,,,,,,6,,,,62,74
78245,note_on,2,0,4,,,,,,,,,3,,,,58,0
78245,note_on,0,0,4,,,,,,,,,3,,,,62,95
78245,note_on,120,0,11,,,,,,,,,13,,,,53,0
78248,note_on,120,0,12,,,,,,,,,14,,,,41,0
78255,note_on,15,0,7,,,,,,,,,10,,,,65,0
78264,control_change,9,0,7,,,,,,,,,10,11,66,,,
78267,control_change,24,0,3,,,,,,,,,2,11,70,,,
78268,control_change,23,0,4,,,,,,,,,3,11,77,,,
78270,note_on,6,0,7,,,,,,,,,10,,,,70,88
78281,control_change,39,0,9,,,,,,,,,12,11,69,,,
78283,control_change,39,0,10,,,,,,,,,6,11,69,,,
78285,note_on,15,0,7,,,,,,,,,10,,,,70,0
78292,control_change,24,0,4,,,,,,,,,3,11,78,,,
78300,note_on,0,0,7,,,,,,,,,10,,,,65,88
78300,set_tempo,120,1,0,,,,,,1034483,,,,,,,,
78300,control_change,15,0,7,,,,,,,,,10,11,67,,,
78302,control_change,60,0,8,,,,,,,,,11,11,72,,,
78302,note_on,0,0,2,,,,,,,,,1,,,,77,95
78302,note_on,0,0,8,,,,,,,,,11,,,,82,103
78302,note_on,0,0,9,,,,,,,,,12,,,,65,71
78302,note_on,21,0,9,,,,,,,,,12,,,,62,0
78302,control_change,2580,0,2,,,,,,,,,1,11,70,,,
78303,control_change,0,0,3,,,,,,,,,2,11,70,,,
78303,note_on,0,0,3,,,,,,,,,2,,,,65,96
78303,note_on,36,0,3,,,,,,,,,2,,,,70,0
78304,note_on,0,0,10,,,,,,,,,6,,,,65,73
78304,note_on,21,0,10,,,,,,,,,6,,,,62,0
78305,note_on,60,0,11,,,,,,,,,13,,,,53,51
78305,note_on,13,0,4,,,,,,,,,3,,,,62,0
78305,note_on,0,0,4,,,,,,,,,3,,,,65,95
78308,note_on,60,0,12,,,,,,,,,14,,,,41,46
78312,note_on,10,0,8,,,,,,,,,11,,,,82,0
78312,note_on,0,0,8,,,,,,,,,11,,,,81,103
78315,note_on,15,0,7,,,,,,,,,10,,,,65,0
78317,control_change,12,0,4,,,,,,,,,3,11,79,,,
78322,control_change,20,0,9,,,,,,,,,12,11,70,,,
78322,note_on,10,0,8,,,,,,,,,11,,,,81,0
78322,note_on,0,0,8,,,,,,,,,11,,,,82,103
78323,control_change,1,0,8,,,,,,,,,11,11,70,,,
78324,control_change,20,0,10,,,,,,,,,6,11,70,,,
78330,note_on,15,0,7,,,,,,,,,10,,,,69,88
78332,note_on,0,0,8,,,,,,,,,11,,,,81,103
78332,note_on,9,0,8,,,,,,,,,11,,,,82,0
78336,control_change,6,0,7,,,,,,,,,10,11,68,,,
78338,control_change,36,0,2,,,,,,,,,1,11,71,,,
78339,control_change,36,0,3,,,,,,,,,2,11,71,,,
78341,control_change,24,0,4,,,,,,,,,3,11,80,,,
78342,note_on,0,0,8,,,,,,,,,11,,,,82,103
78342,note_on,10,0,8,,,,,,,,,11,,,,81,0
78344,control_change,2,0,8,,,,,,,,,11,11,68,,,
78345,note_on,9,0,7,,,,,,,,,10,,,,69,0
78352,note_on,0,0,8,,,,,,,,,11,,,,81,103
78352,note_on,8,0,8,,,,,,,,,11,,,,82,0
78360,note_on,15,0,7,,,,,,,,,10,,,,72,88
78360,set_tempo,60,1,0,,,,,,937500,,,,,,,,
78362,note_on,10,0,8,,,,,,,,,11,,,,81,0
78362,note_on,0,0,8,,,,,,,,,11,,,,82,103
78363,control_change,41,0,9,,,,,,,,,12,11,71,,,
78365,control_change,41,0,10,,,,,,,,,6,11,71,,,
78365,control_change,3,0,8,,,,,,,,,11,11,66,,,
78366,control_change,25,0,4,,,,,,,,,3,11,80,,,
78372,control_change,12,0,7,,,,,,,,,10,11,69,,,
78372,note_on,7,0,8,,,,,,,,,11,,,,82,0
78372,note_on,0,0,8,,,,,,,,,11,,,,81,103
78374,control_change,36,0,2,,,,,,,,,1,11,71,,,
78375,control_change,36,0,3,,,,,,,,,2,11,71,,,
78375,note_on,3,0,7,,,,,,,,,10,,,,72,0
78382,note_on,10,0,8,,,,,,,,,11,,,,81,0
78382,note_on,0,0,8,,,,,,,,,11,,,,82,103
78386,control_change,4,0,8,,,,,,,,,11,11,64,,,
78390,control_change,24,0,4,,,,,,,,,3,11,81,,,
78390,note_on,15,0,7,,,,,,,,,10,,,,69,88
78392,note_on,6,0,8,,,,,,,,,11,,,,82,0
78392,note_on,0,0,8,,,,,,,,,11,,,,79,103
78404,control_change,41,0,9,,,,,,,,,12,11,72,,,
78405,note_on,15,0,7,,,,,,,,,10,,,,69,0
78406,control_change,41,0,10,,,,,,,,,6,11,72,,,
78407,note_on,15,0,8,,,,,,,,,11,,,,79,0
78407,control_change,0,0,8,,,,,,,,,11,11,62,,,
78407,note_on,0,0,8,,,,,,,,,11,,,,81,103
78408,control_change,3,0,7,,,,,,,,,10,11,70,,,
78410,control_change,36,0,2,,,,,,,,,1,11,72,,,
78411,control_change,36,0,3,,,,,,,,,2,11,72,,,
78414,control_change,24,0,4,,,,,,,,,3,11,82,,,
78420,note_on,12,0,7,,,,,,,,,10,,,,65,88
78422,note_on,18,0,9,,,,,,,,,12,,,,65,0
78422,note_on,0,0,9,,,,,,,,,12,,,,60,70
78422,note_on,15,0,8,,,,,,,,,11,,,,81,0
78422,note_on,0,0,2,,,,,,,,,1,,,,72,95
78422,note_on,12,0,2,,,,,,,,,1,,,,77,0
78423,note_on,0,0,3,,,,,,,,,2,,,,69,96
78423,note_on,12,0,3,,,,,,,,,2,,,,65,0
78424,note_on,0,0,10,,,,,,,,,6,,,,60,71
78424,note_on,18,0,10,,,,,,,,,6,,,,65,0
78425,note_on,0,0,4,,,,,,,,,3,,,,60,95
78425,note_on,120,0,11,,,,,,,,,13,,,,53,0
78425,note_on,11,0,4,,,,,,,,,3,,,,65,0
78428,note_on,120,0,12,,,,,,,,,14,,,,41,0
78435,note_on,15,0,7,,,,,,,,,10,,,,65,0
78439,control_change,14,0,4,,,,,,,,,3,11,83,,,
78444,control_change,9,0,7,,,,,,,,,10,11,71,,,
78446,control_change,24,0,9,,,,,,,,,12,11,73,,,
78446,control_change,24,0,2,,,,,,,,,1,11,72,,,
78447,control_change,24,0,3,,,,,,,,,2,11,72,,,
78448,control_change,24,0,10,,,,,,,,,6,11,73,,,
78450,note_on,6,0,7,,,,,,,,,10,,,,69,88
78463,control_change,24,0,4,,,,,,,,,3,11,84,,,
78465,note_on,15,0,7,,,,,,,,,10,,,,69,0
78477,note_on,31,0,9,,,,,,,,,12,,,,60,0
78477,note_on,31,0,2,,,,,,,,,1,,,,72,0
78478,note_on,31,0,3,,,,,,,,,2,,,,69,0
78479,note_on,31,0,10,,,,,,,,,6,,,,60,0
78480,note_on,0,0,7,,,,,,,,,10,,,,65,88
78480,set_tempo,120,1,0,,,,,,1034483,,,,,,,,
78480,note_on,17,0,4,,,,,,,,,3,,,,60,0
78480,control_change,15,0,7,,,,,,,,,10,11,72,,,
78482,note_on,5,0,9,,,,,,,,,12,,,,62,69
78482,note_on,0,0,2,,,,,,,,,1,,,,74,95
78482,control_change,5,0,2,,,,,,,,,1,11,73,,,
78482,control_change,60,0,8,,,,,,,,,11,11,76,,,
78482,note_on,0,0,8,,,,,,,,,11,,,,84,103
78483,note_on,5,0,3,,,,,,,,,2,,,,70,96
78483,control_change,0,0,3,,,,,,,,,2,11,73,,,
78484,note_on,5,0,10,,,,,,,,,6,,,,62,69
78485,note_on,5,0,4,,,,,,,,,3,,,,62,95
78485,note_on,60,0,11,,,,,,,,,13,,,,53,55
78487,control_change,5,0,9,,,,,,,,,12,11,74,,,
78488,note_on,60,0,12,,,,,,,,,14,,,,41,49
78488,control_change,3,0,4,,,,,,,,,3,11,85,,,
78489,control_change,5,0,10,,,,,,,,,6,11,74,,,
78492,note_on,0,0,8,,,,,,,,,11,,,,82,103
78492,note_on,10,0,8,,,,,,,,,11,,,,84,0
78495,note_on,15,0,7,,,,,,,,,10,,,,65,0
78502,note_on,10,0,8,,,,,,,,,11,,,,82,0
78502,note_on,0,0,8,,,,,,,,,11,,,,84,103
78503,control_change,1,0,8,,,,,,,,,11,11,74,,,
78510,note_on,15,0,7,,,,,,,,,10,,,,70,88
78512,note_on,9,0,8,,,,,,,,,11,,,,84,0
78512,note_on,0,0,8,,,,,,,,,11,,,,82,103
78512,control_change,24,0,4,,,,,,,,,3,11,86,,,
78516,control_change,6,0,7,,,,,,,,,10,11,73,,,
78518,control_change,36,0,2,,,,,,,,,1,11,74,,,
78519,control_change,36,0,3,,,,,,,,,2,11,74,,,
78522,note_on,10,0,8,,,,,,,,,11,,,,82,0
78522,note_on,0,0,8,,,,,,,,,11,,,,84,103
78524,control_change,2,0,8,,,,,,,,,11,11,72,,,
78525,note_on,9,0,7,,,,,,,,,10,,,,70,0
78528,control_change,41,0,9,,,,,,,,,12,11,75,,,
78530,control_change,41,0,10,,,,,,,,,6,11,75,,,
78532,note_on,8,0,8,,,,,,,,,11,,,,84,0
78532,note_on,0,0,8,,,,,,,,,11,,,,82,103
78536,control_change,24,0,4,,,,,,,,,3,11,86,,,
78540,set_tempo,60,1,0,,,,,,937500,,,,,,,,
78540,note_on,15,0,7,,,,,,,,,10,,,,74,88
78542,note_on,10,0,8,,,,,,,,,11,,,,82,0
78542,note_on,0,0,8,,,,,,,,,11,,,,84,103
78545,control_change,3,0,8,,,,,,,,,11,11,70,,,
78552,note_on,7,0,8,,,,,,,,,11,,,,84,0
78552,note_on,0,0,8,,,,,,,,,11,,,,82,103
78552,control_change,12,0,7,,,,,,,,,10,11,74,,,
78554,control_change,36,0,2,,,,,,,,,1,11,74,,,
78555,note_on,3,0,7,,,,,,,,,10,,,,74,0
78555,control_change,36,0,3,,,,,,,,,2,11,74,,,
78561,control_change,25,0,4,,,,,,,,,3,11,87,,,
78562,note_on,10,0,8,,,,,,,,,11,,,,82,0
78562,note_on,0,0,8,,,,,,,,,11,,,,84,103
78566,control_change,4,0,8,,,,,,,,,11,11,68,,,
78569,control_change,41,0,9,,,,,,,,,12,11,76,,,
78570,note_on,15,0,7,,,,,,,,,10,,,,70,88
78571,control_change,41,0,10,,,,,,,,,6,11,76,,,
78572,note_on,0,0,8,,,,,,,,,11,,,,81,103
78572,note_on,6,0,8,,,,,,,,,11,,,,84,0
78585,note_on,15,0,7,,,,,,,,,10,,,,70,0
78585,control_change,24,0,4,,,,,,,,,3,11,88,,,
78587,control_change,0,0,8,,,,,,,,,11,11,66,,,
78587,note_on,15,0,8,,,,,,,,,11,,,,81,0
78587,note_on,0,0,8,,,,,,,,,11,,,,82,103
78588,control_change,3,0,7,,,,,,,,,10,11,75,,,
78590,control_change,36,0,2,,,,,,,,,1,11,75,,,
78591,control_change,36,0,3,,,,,,,,,2,11,75,,,
78600,note_on,12,0,7,,,,,,,,,10,,,,65,88
78602,note_on,12,0,2,,,,,,,,,1,,,,74,0
78602,note_on,33,0,9,,,,,,,,,12,,,,62,0
78602,note_on,0,0,2,,,,,,,,,1,,,,70,95
78602,note_on,0,0,9,,,,,,,,,12,,,,58,67
78602,note_on,15,0,8,,,,,,,,,11,,,,82,0
78603,note_on,0,0,3,,,,,,,,,2,,,,74,96
78603,note_on,12,0,3,,,,,,,,,2,,,,70,0
78604,note_on,33,0,10,,,,,,,,,6,,,,62,0
78604,note_on,0,0,10,,,,,,,,,6,,,,58,68
78605,note_on,0,0,4,,,,,,,,,3,,,,58,95
78605,note_on,120,0,11,,,,,,,,,13,,,,53,0
78605,note_on,20,0,4,,,,,,,,,3,,,,62,0
78608,note_on,120,0,12,,,,,,,,,14,,,,41,0
78610,control_change,8,0,9,,,,,,,,,12,11,77,,,
78610,control_change,5,0,4,,,,,,,,,3,11,89,,,
78612,control_change,8,0,10,,,,,,,,,6,11,77,,,
78615,note_on,15,0,7,,,,,,,,,10,,,,65,0
78624,control_change,9,0,7,,,,,,,,,10,11,76,,,
78626,control_change,24,0,2,,,,,,,,,1,11,75,,,
78627,control_change,24,0,3,,,,,,,,,2,11,75,,,
78630,note_on,6,0,7,,,,,,,,,10,,,,70,88
78634,control_change,24,0,4,,,,,,,,,3,11,89,,,
78645,note_on,15,0,7,,,,,,,,,10,,,,70,0
78651,control_change,41,0,9,,,,,,,,,12,11,78,,,
78653,control_change,41,0,10,,,,,,,,,6,11,78,,,
78658,control_change,24,0,4,,,,,,,,,3,11,90,,,
78660,set_tempo,120,1,0,,,,,,1034483,,,,,,,,
78660,note_on,0,0,7,,,,,,,,,10,,,,65,88
78660,control_change,15,0,7,,,,,,,,,10,11,77,,,
78662,note_on,0,0,8,,,,,,,,,11,,,,86,103
78662,note_on,0,0,9,,,,,,,,,12,,,,53,66
78662,note_on,36,0,2,,,,,,,,,1,,,,70,0
78662,note_on,0,0,2,,,,,,,,,1,,,,77,95
78662,note_on,11,0,9,,,,,,,,,12,,,,58,0
78662,note_on,0,0,2,,,,,,,,,1,,,,65,95
78662,control_change,0,0,2,,,,,,,,,1,11,76,,,
78662,control_change,60,0,8,,,,,,,,,11,11,80,,,
78663,note_on,36,0,3,,,,,,,,,2,,,,74,0
78663,note_on,0,0,3,,,,,,,,,2,,,,77,96
78663,control_change,0,0,3,,,,,,,,,2,11,76,,,
78664,note_on,0,0,10,,,,,,,,,6,,,,53,67
78664,note_on,11,0,10,,,,,,,,,6,,,,58,0
78665,note_on,60,0,11,,,,,,,,,13,,,,53,58
78665,note_on,7,0,4,,,,,,,,,3,,,,58,0
78665,note_on,0,0,4,,,,,,,,,3,,,,53,95
78668,note_on,60,0,12,,,,,,,,,14,,,,41,53
78672,note_on,0,0,8,,,,,,,,,11,,,,84,103
78672,note_on,10,0,8,,,,,,,,,11,,,,86,0
78675,note_on,15,0,7,,,,,,,,,10,,,,65,0
78682,note_on,0,0,8,,,,,,,,,11,,,,86,103
78682,note_on,10,0,8,,,,,,,,,11,,,,84,0
78683,control_change,18,0,4,,,,,,,,,3,11,91,,,
78683,control_change,1,0,8,,,,,,,,,11,11,78,,,
78690,note_on,15,0,7,,,,,,,,,10,,,,72,88
78692,control_change,30,0,9,,,,,,,,,12,11,79,,,
78692,note_on,9,0,8,,,,,,,,,11,,,,86,0
78692,note_on,0,0,8,,,,,,,,,11,,,,84,103
78694,control_change,30,0,10,,,,,,,,,6,11,79,,,
78696,control_change,6,0,7,,,,,,,,,10,11,78,,,
78698,control_change,36,0,2,,,,,,,,,1,11,76,,,
78699,control_change,36,0,3,,,,,,,,,2,11,76,,,
78702,note_on,0,0,8,,,,,,,,,11,,,,86,103
78702,note_on,10,0,8,,,,,,,,,11,,,,84,0
78704,control_change,2,0,8,,,,,,,,,11,11,76,,,
78705,note_on,9,0,7,,,,,,,,,10,,,,72,0
78707,control_change,24,0,4,,,,,,,,,3,11,92,,,
78712,note_on,0,0,8,,,,,,,,,11,,,,84,103
78712,note_on,8,0,8,,,,,,,,,11,,,,86,0
78720,note_on,15,0,7,,,,,,,,,10,,,,75,88
78720,set_tempo,60,1,0,,,,,,937500,,,,,,,,
78722,note_on,0,0,8,,,,,,,,,11,,,,86,103
78722,note_on,10,0,8,,,,,,,,,11,,,,84,0
78725,control_change,3,0,8,,,,,,,,,11,11,74,,,
78732,control_change,12,0,7,,,,,,,,,10,11,79,,,
78732,control_change,25,0,4,,,,,,,,,3,11,93,,,
78732,note_on,7,0,8,,,,,,,,,11,,,,86,0
78732,note_on,0,0,8,,,,,,,,,11,,,,84,103
78734,control_change,36,0,2,,,,,,,,,1,11,76,,,
78734,control_change,42,0,9,,,,,,,,,12,11,80,,,
78735,note_on,3,0,7,,,,,,,,,10,,,,75,0
78735,control_change,36,0,3,,,,,,,,,2,11,76,,,
78736,control_change,42,0,10,,,,,,,,,6,11,80,,,
78742,note_on,0,0,8,,,,,,,,,11,,,,86,103
78742,note_on,10,0,8,,,,,,,,,11,,,,84,0
78746,control_change,4,0,8,,,,,,,,,11,11,72,,,
78750,note_on,15,0,7,,,,,,,,,10,,,,72,88
78752,note_on,0,0,8,,,,,,,,,11,,,,82,103
78752,note_on,6,0,8,,,,,,,,,11,,,,86,0
78756,control_change,24,0,4,,,,,,,,,3,11,94,,,
78765,note_on,15,0,7,,,,,,,,,10,,,,72,0
78767,note_on,15,0,8,,,,,,,,,11,,,,82,0
78767,control_change,0,0,8,,,,,,,,,11,11,70,,,
78767,note_on,0,0,8,,,,,,,,,11,,,,84,103
78768,control_change,3,0,7,,,,,,,,,10,11,80,,,
78770,control_change,36,0,2,,,,,,,,,1,11,77,,,
78771,control_change,36,0,3,,,,,,,,,2,11,77,,,
78775,control_change,41,0,9,,,,,,,,,12,11,81,,,
78777,control_change,41,0,10,,,,,,,,,6,11,81,,,
78780,control_change,24,0,4,,,,,,,,,3,11,95,,,
78780,note_on,12,0,7,,,,,,,,,10,,,,65,88
78782,note_on,7,0,9,,,,,,,,,12,,,,53,0
78782,note_on,0,0,9,,,,,,,,,12,,,,57,63
78782,note_on,0,0,2,,,,,,,,,1,,,,72,95
78782,note_on,0,0,2,,,,,,,,,1,,,,65,0
78782,note_on,12,0,2,,,,,,,,,1,,,,77,0
78782,note_on,0,0,2,,,,,,,,,1,,,,69,95
78782,note_on,15,0,8,,,,,,,,,11,,,,84,0
78783,note_on,0,0,3,,,,,,,,,2,,,,72,96
78783,note_on,12,0,3,,,,,,,,,2,,,,77,0
78784,note_on,0,0,10,,,,,,,,,6,,,,57,64
78784,note_on,7,0,10,,,,,,,,,6,,,,53,0
78785,note_on,120,0,11,,,,,,,,,13,,,,53,0
78785,note_on,5,0,4,,,,,,,,,3,,,,53,0
78785,note_on,0,0,4,,,,,,,,,3,,,,57,95
78788,note_on,120,0,12,,,,,,,,,14,,,,41,0
78795,note_on,15,0,7,,,,,,,,,10,,,,65,0
78804,control_change,9,0,7,,,,,,,,,10,11,81,,,
78805,control_change,20,0,4,,,,,,,,,3,11,96,,,
78806,control_change,24,0,2,,,,,,,,,1,11,77,,,
78807,control_change,24,0,3,,,,,,,,,2,11,77,,,
78810,note_on,6,0,7,,,,,,,,,10,,,,72,88
78816,control_change,34,0,9,,,,,,,,,12,11,82,,,
78818,control_change,34,0,10,,,,,,,,,6,11,82,,,
78825,note_on,15,0,7,,,,,,,,,10,,,,72,0
78829,control_change,24,0,4,,,,,,,,,3,11,96,,,
78840,note_on,0,0,7,,,,,,,,,10,,,,65,88
78840,set_tempo,120,1,0,,,,,,1034483,,,,,,,,
78840,note_on,0,0,1,,,,,,,,,0,,,,86,96
78840,control_change,3120,0,1,,,,,,,,,0,11,78,,,
78840,control_change,15,0,7,,,,,,,,,10,11,82,,,
78842,note_on,26,0,9,,,,,,,,,12,,,,57,0
78842,note_on,0,0,9,,,,,,,,,12,,,,58,62
78842,note_on,36,0,2,,,,,,,,,1,,,,69,0
78842,note_on,0,0,2,,,,,,,,,1,,,,74,95
78842,note_on,0,0,8,,,,,,,,,11,,,,84,103
78842,control_change,0,0,2,,,,,,,,,1,11,78,,,
78842,control_change,60,0,8,,,,,,,,,11,11,84,,,
78842,note_on,0,0,2,,,,,,,,,1,,,,72,0
78842,note_on,0,0,2,,,,,,,,,1,,,,70,95
78843,note_on,0,0,5,,,,,,,,,4,,,,65,82
78843,control_change,0,0,3,,,,,,,,,2,11,78,,,
78843,note_on,0,0,3,,,,,,,,,2,,,,74,96
78843,note_on,36,0,3,,,,,,,,,2,,,,72,0
78843,control_change,3120,0,5,,,,,,,,,4,11,77,,,
78844,note_on,0,0,10,,,,,,,,,6,,,,58,63
78844,note_on,26,0,10,,,,,,,,,6,,,,57,0
78845,note_on,0,0,4,,,,,,,,,3,,,,58,95
78845,note_on,16,0,4,,,,,,,,,3,,,,57,0
78845,note_on,0,0,6,,,,,,,,,5,,,,62,82
78845,control_change,3120,0,6,,,,,,,,,5,11,77,,,
78845,note_on,60,0,11,,,,,,,,,13,,,,53,62
78848,note_on,60,0,12,,,,,,,,,14,,,,41,57
78852,note_on,10,0,8,,,,,,,,,11,,,,84,0
78852,note_on,0,0,8,,,,,,,,,11,,,,82,103
78854,control_change,9,0,4,,,,,,,,,3,11,97,,,
78855,note_on,15,0,7,,,,,,,,,10,,,,65,0
78857,control_change,15,0,9,,,,,,,,,12,11,83,,,
78859,control_change,15,0,10,,,,,,,,,6,11,83,,,
78862,note_on,10,0,8,,,,,,,,,11,,,,82,0
78862,note_on,0,0,8,,,,,,,,,11,,,,84,103
78863,control_change,1,0,8,,,,,,,,,11,11,82,,,
78870,note_on,15,0,7,,,,,,,,,10,,,,70,88
78872,note_on,9,0,8,,,,,,,,,11,,,,84,0
78872,note_on,0,0,8,,,,,,,,,11,,,,82,103
78876,control_change,6,0,7,,,,,,,,,10,11,83,,,
78876,control_change,36,0,1,,,,,,,,,0,11,78,,,
78878,control_change,24,0,4,,,,,,,,,3,11,98,,,
78878,control_change,36,0,2,,,,,,,,,1,11,78,,,
78879,control_change,36,0,3,,,,,,,,,2,11,78,,,
78879,control_change,36,0,5,,,,,,,,,4,11,78,,,
78881,control_change,36,0,6,,,,,,,,,5,11,78,,,
78882,note_on,10,0,8,,,,,,,,,11,,,,82,0
78882,note_on,0,0,8,,,,,,,,,11,,,,84,103
78884,control_change,2,0,8,,,,,,,,,11,11,80,,,
78885,note_on,9,0,7,,,,,,,,,10,,,,70,0
78892,note_on,8,0,8,,,,,,,,,11,,,,84,0
78892,note_on,0,0,8,,,,,,,,,11,,,,82,103
78898,control_change,41,0,9,,,,,,,,,12,11,84,,,
78900,note_on,15,0,7,,,,,,,,,10,,,,74,88
78900,control_change,41,0,10,,,,,,,,,6,11,84,,,
78900,set_tempo,60,1,0,,,,,,937500,,,,,,,,
78902,note_on,10,0,8,,,,,,,,,11,,,,82,0
78902,note_on,0,0,8,,,,,,,,,11,,,,84,103
78902,control_change,24,0,4,,,,,,,,,3,11,98,,,
78905,control_change,3,0,8,,,,,,,,,11,11,78,,,
78912,note_on,7,0,8,,,,,,,,,11,,,,84,0
78912,note_on,0,0,8,,,,,,,,,11,,,,82,103
78912,control_change,12,0,7,,,,,,,,,10,11,84,,,
78912,control_change,36,0,1,,,,,,,,,0,11,79,,,
78914,control_change,36,0,2,,,,,,,,,1,11,79,,,
78915,note_on,3,0,7,,,,,,,,,10,,,,74,0
78915,control_change,36,0,5,,,,,,,,,4,11,79,,,
78915,control_change,36,0,3,,,,,,,,,2,11,79,,,
78917,control_change,36,0,6,,,,,,,,,5,11,79,,,
78922,note_on,0,0,8,,,,,,,,,11,,,,84,103
78922,note_on,10,0,8,,,,,,,,,11,,,,82,0
78926,control_change,4,0,8,,,,,,,,,11,11,76,,,
78927,control_change,25,0,4,,,,,,,,,3,11,99,,,
78930,note_on,15,0,7,,,,,,,,,10,,,,65,88
78932,note_on,6,0,8,,,,,,,,,11,,,,84,0
78932,note_on,0,0,8,,,,,,,,,11,,,,81,103
78939,control_change,41,0,9,,,,,,,,,12,11,85,,,
78941,control_change,41,0,10,,,,,,,,,6,11,85,,,
78945,note_on,15,0,7,,,,,,,,,10,,,,65,0
78947,note_on,15,0,8,,,,,,,,,11,,,,81,0
78947,note_on,0,0,8,,,,,,,,,11,,,,82,103
78947,control_change,0,0,8,,,,,,,,,11,11,74,,,
78948,control_change,36,0,1,,,,,,,,,0,11,79,,,
78948,control_change,3,0,7,,,,,,,,,10,11,85,,,
78950,control_change,36,0,2,,,,,,,,,1,11,79,,,
78951,control_change,24,0,4,,,,,,,,,3,11,100,,,
78951,control_change,36,0,3,,,,,,,,,2,11,79,,,
78951,control_change,36,0,5,,,,,,,,,4,11,80,,,
78953,control_change,36,0,6,,,,,,,,,5,11,80,,,
78960,note_on,0,0,1,,,,,,,,,0,,,,82,96
78960,note_on,12,0,7,,,,,,,,,10,,,,70,88
78960,note_on,12,0,1,,,,,,,,,0,,,,86,0
78962,note_on,12,0,2,,,,,,,,,1,,,,70,0
78962,note_on,23,0,9,,,,,,,,,12,,,,58,0
78962,note_on,0,0,2,,,,,,,,,1,,,,74,0
78962,note_on,0,0,2,,,,,,,,,1,,,,70,95
78962,note_on,15,0,8,,,,,,,,,11,,,,82,0
78962,note_on,0,0,9,,,,,,,,,12,,,,62,60
78962,note_on,0,0,2,,,,,,,,,1,,,,74,95
78963,note_on,12,0,5,,,,,,,,,4,,,,65,0
78963,note_on,0,0,3,,,,,,,,,2,,,,70,96
78963,note_on,0,0,5,,,,,,,,,4,,,,62,82
78963,note_on,12,0,3,,,,,,,,,2,,,,74,0
78964,note_on,0,0,10,,,,,,,,,6,,,,62,60
78964,note_on,23,0,10,,,,,,,,,6,,,,58,0
78965,note_on,120,0,11,,,,,,,,,13,,,,53,0
78965,note_on,12,0,6,,,,,,,,,5,,,,62,0
78965,note_on,0,0,6,,,,,,,,,5,,,,58,82
78965,note_on,0,0,4,,,,,,,,,3,,,,62,95
78965,note_on,14,0,4,,,,,,,,,3,,,,58,0
78968,note_on,120,0,12,,,,,,,,,14,,,,41,0
78975,note_on,15,0,7,,,,,,,,,10,,,,70,0
78976,control_change,11,0,4,,,,,,,,,3,11,101,,,
78980,control_change,18,0,9,,,,,,,,,12,11,86,,,
78982,control_change,18,0,10,,,,,,,,,6,11,86,,,
78984,control_change,9,0,7,,,,,,,,,10,11,86,,,
78984,control_change,24,0,1,,,,,,,,,0,11,80,,,
78986,control_change,24,0,2,,,,,,,,,1,11,80,,,
78987,control_change,24,0,3,,,,,,,,,2,11,80,,,
78987,control_change,24,0,5,,,,,,,,,4,11,81,,,
78989,control_change,24,0,6,,,,,,,,,5,11,81,,,
78990,note_on,6,0,7,,,,,,,,,10,,,,74,88
79000,control_change,24,0,4,,,,,,,,,3,11,102,,,
79005,note_on,15,0,7,,,,,,,,,10,,,,74,0
79015,note_on,31,0,1,,,,,,,,,0,,,,82,0
79017,note_on,0,0,2,,,,,,,,,1,,,,74,0
79017,note_on,37,0,9,,,,,,,,,12,,,,62,0
79017,note_on,31,0,2,,,,,,,,,1,,,,70,0
79018,note_on,31,0,3,,,,,,,,,2,,,,70,0
79018,note_on,31,0,5,,,,,,,,,4,,,,62,0
79019,note_on,37,0,10,,,,,,,,,6,,,,62,0
79020,note_on,0,0,7,,,,,,,,,10,,,,77,103
79020,control_change,15,0,7,,,,,,,,,10,11,87,,,
79020,control_change,5,0,1,,,,,,,,,0,11,80,,,
79020,note_on,0,0,1,,,,,,,,,0,,,,84,96
79020,note_on,0,0,1,,,,,,,,,0,,,,89,96
79020,note_on,20,0,4,,,,,,,,,3,,,,62,0
79020,note_on,31,0,6,,,,,,,,,5,,,,58,0
79020,set_tempo,120,1,0,,,,,,1034483,,,,,,,,
79022,note_on,0,0,9,,,,,,,,,12,,,,60,76
79022,control_change,0,0,9,,,,,,,,,12,11,87,,,
79022,control_change,5,0,2,,,,,,,,,1,11,80,,,
79022,control_change,5,0,9,,,,,,,,,12,91,42,,,
79022,note_on,0,0,2,,,,,,,,,1,,,,77,95
79022,note_on,0,0,2,,,,,,,,,1,,,,69,95
79022,note_on,60,0,8,,,,,,,,,11,,,,65,78
79023,note_on,0,0,5,,,,,,,,,4,,,,60,82
79023,note_on,0,0,3,,,,,,,,,2,,,,69,96
79023,note_on,5,0,3,,,,,,,,,2,,,,72,96
79023,control_change,0,0,3,,,,,,,,,2,11,80,,,
79023,control_change,5,0,5,,,,,,,,,4,11,82,,,
79024,note_on,0,0,10,,,,,,,,,6,,,,45,62
79024,note_on,0,0,10,,,,,,,,,6,,,,41,62
79024,control_change,0,0,10,,,,,,,,,6,11,87,,,
79024,control_change,5,0,10,,,,,,,,,6,91,100,,,
79025,note_on,0,0,6,,,,,,,,,5,,,,53,82
79025,control_change,5,0,6,,,,,,,,,5,11,82,,,
79025,control_change,5,0,4,,,,,,,,,3,11,103,,,
79025,note_on,0,0,4,,,,,,,,,3,,,,60,95
79025,note_on,60,0,11,,,,,,,,,13,,,,41,67
79025,note_on,0,0,4,,,,,,,,,3,,,,57,95
79028,note_on,60,0,12,,,,,,,,,14,,,,29,62
79052,note_on,0,0,8,,,,,,,,,11,,,,60,78
79052,note_on,30,0,8,,,,,,,,,11,,,,65,0
79052,note_on,0,0,9,,,,,,,,,12,,,,57,76
79052,note_on,30,0,9,,,,,,,,,12,,,,60,0
79054,note_on,0,0,10,,,,,,,,,6,,,,48,62
79054,note_on,0,0,10,,,,,,,,,6,,,,41,0
79054,note_on,30,0,10,,,,,,,,,6,,,,45,0
79054,note_on,0,0,10,,,,,,,,,6,,,,45,62
79080,set_tempo,60,1,0,,,,,,937500,,,,,,,,
79082,note_on,30,0,9,,,,,,,,,12,,,,57,0
79082,note_on,0,0,9,,,,,,,,,12,,,,60,76
79082,note_on,30,0,8,,,,,,,,,11,,,,60,0
79082,note_on,0,0,8,,,,,,,,,11,,,,65,78
79084,note_on,0,0,10,,,,,,,,,6,,,,45,62
79084,note_on,0,0,10,,,,,,,,,6,,,,41,62
79084,note_on,0,0,10,,,,,,,,,6,,,,48,0
79084,note_on,30,0,10,,,,,,,,,6,,,,45,0
79112,note_on,30,0,9,,,,,,,,,12,,,,60,0
79112,note_on,0,0,8,,,,,,,,,11,,,,60,78
79112,note_on,0,0,9,,,,,,,,,12,,,,57,76
79112,note_on,30,0,8,,,,,,,,,11,,,,65,0
79114,note_on,0,0,10,,,,,,,,,6,,,,41,0
79114,note_on,0,0,10,,,,,,,,,6,,,,48,62
79114,note_on,0,0,10,,,,,,,,,6,,,,45,62
79114,note_on,30,0,10,,,,,,,,,6,,,,45,0
79138,note_on,115,0,5,,,,,,,,,4,,,,60,0
79140,note_on,115,0,6,,,,,,,,,5,,,,53,0
79140,note_on,115,0,4,,,,,,,,,3,,,,57,0
79140,note_on,0,0,1,,,,,,,,,0,,,,84,96
79140,note_on,0,0,7,,,,,,,,,10,,,,72,103
79140,note_on,120,0,7,,,,,,,,,10,,,,77,0
79140,note_on,0,0,1,,,,,,,,,0,,,,84,0
79140,note_on,120,0,1,,,,,,,,,0,,,,89,0
79140,note_on,0,0,4,,,,,,,,,3,,,,60,0
79140,note_on,0,0,1,,,,,,,,,0,,,,81,96
79142,note_on,120,0,2,,,,,,,,,1,,,,69,0
79142,note_on,0,0,2,,,,,,,,,1,,,,72,95
79142,note_on,30,0,9,,,,,,,,,12,,,,57,0
79142,note_on,30,0,8,,,,,,,,,11,,,,60,0
79142,note_on,0,0,8,,,,,,,,,11,,,,65,78
79142,note_on,0,0,2,,,,,,,,,1,,,,77,0
79142,note_on,0,0,9,,,,,,,,,12,,,,60,76
79142,note_on,0,0,2,,,,,,,,,1,,,,69,95
79143,note_on,5,0,5,,,,,,,,,4,,,,60,82
79143,note_on,0,0,3,,,,,,,,,2,,,,72,0
79143,note_on,0,0,3,,,,,,,,,2,,,,69,96
79143,note_on,0,0,3,,,,,,,,,2,,,,72,96
79143,note_on,120,0,3,,,,,,,,,2,,,,69,0
79144,note_on,0,0,10,,,,,,,,,6,,,,45,62
79144,note_on,0,0,10,,,,,,,,,6,,,,41,62
79144,note_on,0,0,10,,,,,,,,,6,,,,48,0
79144,note_on,30,0,10,,,,,,,,,6,,,,45,0
79145,note_on,5,0,4,,,,,,,,,3,,,,57,95
79145,note_on,120,0,11,,,,,,,,,13,,,,41,0
79145,note_on,5,0,6,,,,,,,,,5,,,,53,82
79145,note_on,0,0,4,,,,,,,,,3,,,,60,95
79148,note_on,120,0,12,,,,,,,,,14,,,,29,0
79172,note_on,0,0,8,,,,,,,,,11,,,,60,78
79172,note_on,30,0,9,,,,,,,,,12,,,,60,0
79172,note_on,0,0,9,,,,,,,,,12,,,,57,76
79172,note_on,30,0,8,,,,,,,,,11,,,,65,0
79174,note_on,0,0,10,,,,,,,,,6,,,,48,62
79174,note_on,0,0,10,,,,,,,,,6,,,,45,62
79174,note_on,30,0,10,,,,,,,,,6,,,,45,0
79174,note_on,0,0,10,,,,,,,,,6,,,,41,0
79195,note_on,55,0,7,,,,,,,,,10,,,,72,0
79195,note_on,0,0,1,,,,,,,,,0,,,,81,0
79195,note_on,55,0,1,,,,,,,,,0,,,,84,0
79197,note_on,25,0,9,,,,,,,,,12,,,,57,0
79197,note_on,0,0,2,,,,,,,,,1,,,,69,0
79197,note_on,25,0,8,,,,,,,,,11,,,,60,0
79197,note_on,55,0,2,,,,,,,,,1,,,,72,0
79198,note_on,55,0,3,,,,,,,,,2,,,,72,0
79198,note_on,0,0,3,,,,,,,,,2,,,,69,0
79198,note_on,55,0,5,,,,,,,,,4,,,,60,0
79199,note_on,0,0,10,,,,,,,,,6,,,,45,0
79199,note_on,25,0,10,,,,,,,,,6,,,,48,0
79200,note_on,5,0,1,,,,,,,,,0,,,,82,96
79200,note_on,0,0,1,,,,,,,,,0,,,,86,96
79200,note_on,55,0,4,,,,,,,,,3,,,,60,0
79200,set_tempo,120,1,0,,,,,,1034483,,,,,,,,
79200,note_on,55,0,6,,,,,,,,,5,,,,53,0
79200,note_on,0,0,4,,,,,,,,,3,,,,57,0
79200,note_on,5,0,7,,,,,,,,,10,,,,74,103
79202,note_on,5,0,9,,,,,,,,,12,,,,62,76
79202,note_on,0,0,2,,,,,,,,,1,,,,74,95
79202,note_on,5,0,8,,,,,,,,,11,,,,65,78
79202,note_on,5,0,2,,,,,,,,,1,,,,70,95
79203,note_on,5,0,5,,,,,,,,,4,,,,62,82
79203,note_on,0,0,3,,,,,,,,,2,,,,74,96
79203,note_on,5,0,3,,,,,,,,,2,,,,70,96
79204,program_change,59,0,11,,,,,,,,48,13,,,,,
79204,note_on,5,0,10,,,,,,,,,6,,,,41,62
79204,note_on,0,0,10,,,,,,,,,6,,,,46,62
79205,control_change,1,0,11,,,,,,,,,13,11,87,,,
79205,note_on,0,0,4,,,,,,,,,3,,,,58,95
79205,note_on,5,0,6,,,,,,,,,5,,,,58,82
79205,note_on,5,0,4,,,,,,,,,3,,,,62,95
79205,note_on,0,0,11,,,,,,,,,13,,,,41,100
79207,program_change,59,0,12,,,,,,,,48,14,,,,,
79208,note_on,0,0,12,,,,,,,,,14,,,,29,96
79208,control_change,1,0,12,,,,,,,,,14,11,87,,,
79232,note_on,0,0,8,,,,,,,,,11,,,,62,78
79232,note_on,30,0,8,,,,,,,,,11,,,,65,0
79232,note_on,30,0,9,,,,,,,,,12,,,,62,0
79232,note_on,0,0,9,,,,,,,,,12,,,,58,76
79234,note_on,30,0,10,,,,,,,,,6,,,,46,0
79234,note_on,0,0,10,,,,,,,,,6,,,,41,0
79234,note_on,0,0,10,,,,,,,,,6,,,,50,62
79234,note_on,0,0,10,,,,,,,,,6,,,,46,62
79260,note_on,55,0,11,,,,,,,,,13,,,,41,0
79260,set_tempo,60,1,0,,,,,,937500,,,,,,,,
79262,note_on,0,0,9,,,,,,,,,12,,,,62,76
79262,note_on,0,0,8,,,,,,,,,11,,,,65,78
79262,note_on,30,0,8,,,,,,,,,11,,,,62,0
79262,note_on,30,0,9,,,,,,,,,12,,,,58,0
79263,note_on,55,0,12,,,,,,,,,14,,,,29,0
79264,note_on,0,0,10,,,,,,,,,6,,,,46,62
79264,note_on,0,0,10,,,,,,,,,6,,,,50,0
79264,note_on,0,0,10,,,,,,,,,6,,,,41,62
79264,note_on,30,0,10,,,,,,,,,6,,,,46,0
79265,note_on,5,0,11,,,,,,,,,13,,,,41,100
79268,note_on,5,0,12,,,,,,,,,14,,,,29,96
79292,note_on,0,0,9,,,,,,,,,12,,,,58,76
79292,note_on,30,0,9,,,,,,,,,12,,,,62,0
79292,note_on,0,0,8,,,,,,,,,11,,,,62,78
79292,note_on,30,0,8,,,,,,,,,11,,,,65,0
79294,note_on,30,0,10,,,,,,,,,6,,,,46,0
79294,note_on,0,0,10,,,,,,,,,6,,,,41,0
79294,note_on,0,0,10,,,,,,,,,6,,,,46,62
79294,note_on,0,0,10,,,,,,,,,6,,,,50,62
79320,note_on,0,0,7,,,,,,,,,10,,,,70,103
79320,note_on,55,0,11,,,,,,,,,13,,,,41,0
79320,note_on,120,0,7,,,,,,,,,10,,,,74,0
79322,note_on,30,0,9,,,,,,,,,12,,,,58,0
79322,note_on,30,0,8,,,,,,,,,11,,,,62,0
79322,note_on,0,0,8,,,,,,,,,11,,,,65,78
79322,note_on,0,0,9,,,,,,,,,12,,,,62,76
79323,note_on,55,0,12,,,,,,,,,14,,,,29,0
79324,note_on,0,0,10,,,,,,,,,6,,,,50,0
79324,note_on,0,0,10,,,,,,,,,6,,,,46,62
79324,note_on,0,0,10,,,,,,,,,6,,,,41,62
79324,note_on,30,0,10,,,,,,,,,6,,,,46,0
79325,note_on,5,0,11,,,,,,,,,13,,,,41,100
79328,note_on,5,0,12,,,,,,,,,14,,,,29,96
79352,note_on,30,0,9,,,,,,,,,12,,,,62,0
79352,note_on,30,0,8,,,,,,,,,11,,,,65,0
79352,note_on,0,0,9,,,,,,,,,12,,,,58,76
79352,note_on,0,0,8,,,,,,,,,11,,,,62,78
79354,note_on,0,0,10,,,,,,,,,6,,,,41,0
79354,note_on,30,0,10,,,,,,,,,6,,,,46,0
79354,note_on,0,0,10,,,,,,,,,6,,,,50,62
79354,note_on,0,0,10,,,,,,,,,6,,,,46,62
79380,note_on,0,0,7,,,,,,,,,10,,,,65,103
79380,set_tempo,120,1,0,,,,,,1034483,,,,,,,,
79380,note_on,55,0,11,,,,,,,,,13,,,,41,0
79380,note_on,60,0,7,,,,,,,,,10,,,,70,0
79380,note_on,175,0,4,,,,,,,,,3,,,,58,0
79380,note_on,0,0,4,,,,,,,,,3,,,,62,0
79382,note_on,0,0,8,,,,,,,,,11,,,,65,78
79382,note_on,30,0,8,,,,,,,,,11,,,,62,0
79382,note_on,30,0,9,,,,,,,,,12,,,,58,0
79382,note_on,0,0,9,,,,,,,,,12,,,,62,76
79383,note_on,55,0,12,,,,,,,,,14,,,,29,0
79384,note_on,0,0,10,,,,,,,,,6,,,,46,62
79384,note_on,0,0,10,,,,,,,,,6,,,,41,62
79384,note_on,0,0,10,,,,,,,,,6,,,,50,0
79384,note_on,30,0,10,,,,,,,,,6,,,,46,0
79385,note_on,0,0,4,,,,,,,,,3,,,,46,95
79385,note_on,5,0,11,,,,,,,,,13,,,,41,100
79385,note_on,5,0,4,,,,,,,,,3,,,,50,95
79388,note_on,5,0,12,,,,,,,,,14,,,,29,96
79412,note_on,0,0,9,,,,,,,,,12,,,,58,76
79412,note_on,30,0,9,,,,,,,,,12,,,,62,0
79412,note_on,0,0,8,,,,,,,,,11,,,,62,78
79412,note_on,30,0,8,,,,,,,,,11,,,,65,0
79414,note_on,0,0,10,,,,,,,,,6,,,,50,62
79414,note_on,0,0,10,,,,,,,,,6,,,,46,62
79414,note_on,0,0,10,,,,,,,,,6,,,,41,0
79414,note_on,30,0,10,,,,,,,,,6,,,,46,0
79440,note_on,55,0,11,,,,,,,,,13,,,,41,0
79440,note_on,0,0,7,,,,,,,,,10,,,,70,103
79440,note_on,60,0,7,,,,,,,,,10,,,,65,0
79440,set_tempo,60,1,0,,,,,,937500,,,,,,,,
79442,note_on,0,0,9,,,,,,,,,12,,,,62,76
79442,note_on,30,0,9,,,,,,,,,12,,,,58,0
79442,note_on,0,0,8,,,,,,,,,11,,,,65,78
79442,note_on,30,0,8,,,,,,,,,11,,,,62,0
79443,note_on,55,0,12,,,,,,,,,14,,,,29,0
79444,note_on,0,0,10,,,,,,,,,6,,,,46,62
79444,note_on,0,0,10,,,,,,,,,6,,,,46,0
79444,note_on,30,0,10,,,,,,,,,6,,,,50,0
79444,note_on,0,0,10,,,,,,,,,6,,,,41,62
79445,note_on,5,0,11,,,,,,,,,13,,,,41,100
79448,note_on,5,0,12,,,,,,,,,14,,,,29,96
79472,note_on,0,0,9,,,,,,,,,12,,,,58,76
79472,note_on,0,0,8,,,,,,,,,11,,,,62,78
79472,note_on,30,0,8,,,,,,,,,11,,,,65,0
79472,note_on,30,0,9,,,,,,,,,12,,,,62,0
79474,note_on,0,0,10,,,,,,,,,6,,,,46,62
79474,note_on,30,0,10,,,,,,,,,6,,,,41,0
79474,note_on,0,0,10,,,,,,,,,6,,,,50,62
79474,note_on,0,0,10,,,,,,,,,6,,,,46,0
79500,note_on,55,0,11,,,,,,,,,13,,,,41,0
79500,note_on,60,0,7,,,,,,,,,10,,,,70,0
79500,note_on,0,0,7,,,,,,,,,10,,,,74,103
79502,note_on,30,0,8,,,,,,,,,11,,,,62,0
79502,note_on,0,0,8,,,,,,,,,11,,,,65,78
79502,note_on,30,0,9,,,,,,,,,12,,,,58,0
79502,note_on,0,0,9,,,,,,,,,12,,,,62,76
79503,note_on,55,0,12,,,,,,,,,14,,,,29,0
79504,note_on,0,0,10,,,,,,,,,6,,,,46,62
79504,note_on,0,0,10,,,,,,,,,6,,,,41,62
79504,note_on,0,0,10,,,,,,,,,6,,,,50,0
79504,note_on,30,0,10,,,,,,,,,6,,,,46,0
79505,note_on,5,0,11,,,,,,,,,13,,,,41,100
79508,note_on,5,0,12,,,,,,,,,14,,,,29,96
79532,note_on,30,0,8,,,,,,,,,11,,,,65,0
79532,note_on,0,0,8,,,,,,,,,11,,,,62,78
79532,note_on,30,0,9,,,,,,,,,12,,,,62,0
79532,note_on,0,0,9,,,,,,,,,12,,,,58,76
79534,note_on,30,0,10,,,,,,,,,6,,,,46,0
79534,note_on,0,0,10,,,,,,,,,6,,,,50,62
79534,note_on,0,0,10,,,,,,,,,6,,,,46,62
79534,note_on,0,0,10,,,,,,,,,6,,,,41,0
79555,note_on,55,0,7,,,,,,,,,10,,,,74,0
79557,note_on,0,0,2,,,,,,,,,1,,,,70,0
79557,note_on,25,0,8,,,,,,,,,11,,,,62,0
79557,note_on,25,0,9,,,,,,,,,12,,,,58,0
79557,note_on,355,0,2,,,,,,,,,1,,,,74,0
79558,note_on,355,0,5,,,,,,,,,4,,,,62,0
79559,note_on,25,0,10,,,,,,,,,6,,,,46,0
79559,note_on,0,0,10,,,,,,,,,6,,,,50,0
79560,set_tempo,120,1,0,,,,,,1034483,,,,,,,,
79560,note_on,5,0,7,,,,,,,,,10,,,,77,103
79560,note_on,355,0,6,,,,,,,,,5,,,,58,0
79560,note_on,55,0,11,,,,,,,,,13,,,,41,0
79562,note_on,5,0,9,,,,,,,,,12,,,,62,76
79562,note_on,5,0,2,,,,,,,,,1,,,,82,95
79562,note_on,0,0,2,,,,,,,,,1,,,,74,95
79562,note_on,5,0,8,,,,,,,,,11,,,,65,78
79563,note_on,5,0,5,,,,,,,,,4,,,,62,82
79563,note_on,55,0,12,,,,,,,,,14,,,,29,0
79564,note_on,0,0,10,,,,,,,,,6,,,,46,62
79564,note_on,5,0,10,,,,,,,,,6,,,,41,62
79565,note_on,5,0,11,,,,,,,,,13,,,,41,100
79565,note_on,5,0,6,,,,,,,,,5,,,,50,82
79568,note_on,5,0,12,,,,,,,,,14,,,,29,96
79592,note_on,30,0,9,,,,,,,,,12,,,,62,0
79592,note_on,30,0,8,,,,,,,,,11,,,,65,0
79592,note_on,0,0,8,,,,,,,,,11,,,,62,78
79592,note_on,0,0,9,,,,,,,,,12,,,,58,76
79594,note_on,0,0,10,,,,,,,,,6,,,,50,62
79594,note_on,0,0,10,,,,,,,,,6,,,,46,62
79594,note_on,0,0,10,,,,,,,,,6,,,,41,0
79594,note_on,30,0,10,,,,,,,,,6,,,,46,0
79620,note_on,55,0,11,,,,,,,,,13,,,,41,0
79620,set_tempo,60,1,0,,,,,,937500,,,,,,,,
79622,note_on,30,0,9,,,,,,,,,12,,,,58,0
79622,note_on,0,0,9,,,,,,,,,12,,,,62,76
79622,note_on,30,0,8,,,,,,,,,11,,,,62,0
79622,note_on,0,0,8,,,,,,,,,11,,,,65,78
79623,note_on,55,0,12,,,,,,,,,14,,,,29,0
79624,note_on,0,0,10,,,,,,,,,6,,,,46,62
79624,note_on,0,0,10,,,,,,,,,6,,,,41,62
79624,note_on,30,0,10,,,,,,,,,6,,,,50,0
79624,note_on,0,0,10,,,,,,,,,6,,,,46,0
79625,note_on,5,0,11,,,,,,,,,13,,,,41,100
79628,note_on,5,0,12,,,,,,,,,14,,,,29,96
79652,note_on,30,0,8,,,,,,,,,11,,,,65,0
79652,note_on,0,0,8,,,,,,,,,11,,,,62,78
79652,note_on,30,0,9,,,,,,,,,12,,,,62,0
79652,note_on,0,0,9,,,,,,,,,12,,,,58,76
79654,note_on,0,0,10,,,,,,,,,6,,,,46,0
79654,note_on,0,0,10,,,,,,,,,6,,,,46,62
79654,note_on,30,0,10,,,,,,,,,6,,,,41,0
79654,note_on,0,0,10,,,,,,,,,6,,,,50,62
79678,note_on,115,0,5,,,,,,,,,4,,,,62,0
79680,note_on,120,0,7,,,,,,,,,10,,,,77,0
79680,note_on,0,0,7,,,,,,,,,10,,,,74,103
79680,note_on,115,0,6,,,,,,,,,5,,,,50,0
79680,note_on,55,0,11,,,,,,,,,13,,,,41,0
79682,note_on,30,0,9,,,,,,,,,12,,,,58,0
79682,note_on,0,0,9,,,,,,,,,12,,,,62,76
79682,note_on,0,0,8,,,,,,,,,11,,,,65,78
79682,note_on,30,0,8,,,,,,,,,11,,,,62,0
79683,note_on,55,0,12,,,,,,,,,14,,,,29,0
79683,note_on,5,0,5,,,,,,,,,4,,,,58,82
79684,note_on,0,0,10,,,,,,,,,6,,,,41,62
79684,note_on,0,0,10,,,,,,,,,6,,,,46,0
79684,note_on,0,0,10,,,,,,,,,6,,,,46,62
79684,note_on,30,0,10,,,,,,,,,6,,,,50,0
79685,note_on,5,0,6,,,,,,,,,5,,,,46,82
79685,note_on,5,0,11,,,,,,,,,13,,,,41,100
79688,note_on,5,0,12,,,,,,,,,14,,,,29,96
79712,note_on,30,0,9,,,,,,,,,12,,,,62,0
79712,note_on,0,0,9,,,,,,,,,12,,,,58,76
79712,note_on,30,0,8,,,,,,,,,11,,,,65,0
79712,note_on,0,0,8,,,,,,,,,11,,,,62,78
79714,note_on,0,0,10,,,,,,,,,6,,,,50,62
79714,note_on,0,0,10,,,,,,,,,6,,,,46,0
79714,note_on,30,0,10,,,,,,,,,6,,,,41,0
79714,note_on,0,0,10,,,,,,,,,6,,,,46,62
79738,note_on,55,0,5,,,,,,,,,4,,,,58,0
79740,set_tempo,120,1,0,,,,,,1034483,,,,,,,,
79740,note_on,60,0,7,,,,,,,,,10,,,,74,0
79740,note_on,55,0,11,,,,,,,,,13,,,,41,0
79740,note_on,55,0,6,,,,,,,,,5,,,,46,0
79740,note_on,0,0,7,,,,,,,,,10,,,,70,103
79742,note_on,30,0,9,,,,,,,,,12,,,,58,0
79742,note_on,0,0,9,,,,,,,,,12,,,,62,76
79742,note_on,0,0,8,,,,,,,,,11,,,,65,78
79742,note_on,30,0,8,,,,,,,,,11,,,,62,0
79743,note_on,55,0,12,,,,,,,,,14,,,,29,0
79743,note_on,5,0,5,,,,,,,,,4,,,,53,82
79744,note_on,0,0,10,,,,,,,,,6,,,,41,62
79744,note_on,0,0,10,,,,,,,,,6,,,,50,0
79744,note_on,30,0,10,,,,,,,,,6,,,,46,0
79744,note_on,0,0,10,,,,,,,,,6,,,,46,62
79745,note_on,5,0,11,,,,,,,,,13,,,,41,100
79745,note_on,5,0,6,,,,,,,,,5,,,,41,82
79748,note_on,5,0,12,,,,,,,,,14,,,,29,96
79772,note_on,30,0,8,,,,,,,,,11,,,,65,0
79772,note_on,0,0,8,,,,,,,,,11,,,,62,78
79772,note_on,30,0,9,,,,,,,,,12,,,,62,0
79772,note_on,0,0,9,,,,,,,,,12,,,,58,76
79774,note_on,30,0,10,,,,,,,,,6,,,,46,0
79774,note_on,0,0,10,,,,,,,,,6,,,,41,0
79774,note_on,0,0,10,,,,,,,,,6,,,,50,62
79774,note_on,0,0,10,,,,,,,,,6,,,,46,62
79798,note_on,55,0,5,,,,,,,,,4,,,,53,0
79800,note_on,60,0,7,,,,,,,,,10,,,,70,0
79800,note_on,0,0,7,,,,,,,,,10,,,,74,103
79800,note_on,55,0,11,,,,,,,,,13,,,,41,0
79800,set_tempo,60,1,0,,,,,,937500,,,,,,,,
79800,note_on,55,0,6,,,,,,,,,5,,,,41,0
79802,note_on,0,0,9,,,,,,,,,12,,,,62,76
79802,note_on,0,0,8,,,,,,,,,11,,,,65,78
79802,note_on,30,0,9,,,,,,,,,12,,,,58,0
79802,note_on,30,0,8,,,,,,,,,11,,,,62,0
79803,note_on,5,0,5,,,,,,,,,4,,,,58,82
79803,note_on,55,0,12,,,,,,,,,14,,,,29,0
79804,note_on,30,0,10,,,,,,,,,6,,,,46,0
79804,note_on,0,0,10,,,,,,,,,6,,,,50,0
79804,note_on,0,0,10,,,,,,,,,6,,,,46,62
79804,note_on,0,0,10,,,,,,,,,6,,,,41,62
79805,note_on,5,0,11,,,,,,,,,13,,,,41,100
79805,note_on,5,0,6,,,,,,,,,5,,,,46,82
79808,note_on,5,0,12,,,,,,,,,14,,,,29,96
79832,note_on,0,0,9,,,,,,,,,12,,,,58,76
79832,note_on,30,0,8,,,,,,,,,11,,,,65,0
79832,note_on,30,0,9,,,,,,,,,12,,,,62,0
79832,note_on,0,0,8,,,,,,,,,11,,,,62,78
79834,note_on,30,0,10,,,,,,,,,6,,,,46,0
79834,note_on,0,0,10,,,,,,,,,6,,,,50,62
79834,note_on,0,0,10,,,,,,,,,6,,,,46,62
79834,note_on,0,0,10,,,,,,,,,6,,,,41,0
79858,note_on,55,0,5,,,,,,,,,4,,,,58,0
79860,note_on,55,0,6,,,,,,,,,5,,,,46,0
79860,note_on,0,0,7,,,,,,,,,10,,,,77,103
79860,note_on,60,0,7,,,,,,,,,10,,,,74,0
79860,note_on,55,0,11,,,,,,,,,13,,,,41,0
79862,note_on,30,0,8,,,,,,,,,11,,,,62,0
79862,note_on,30,0,9,,,,,,,,,12,,,,58,0
79862,note_on,0,0,9,,,,,,,,,12,,,,62,76
79862,note_on,0,0,8,,,,,,,,,11,,,,65,78
79863,note_on,5,0,5,,,,,,,,,4,,,,62,82
79863,note_on,55,0,12,,,,,,,,,14,,,,29,0
79864,note_on,30,0,10,,,,,,,,,6,,,,46,0
79864,note_on,0,0,10,,,,,,,,,6,,,,50,0
79864,note_on,0,0,10,,,,,,,,,6,,,,41,62
79864,note_on,0,0,10,,,,,,,,,6,,,,46,62
79865,note_on,5,0,11,,,,,,,,,13,,,,41,100
79865,note_on,5,0,6,,,,,,,,,5,,,,50,82
79868,note_on,5,0,12,,,,,,,,,14,,,,29,96
79892,note_on,0,0,8,,,,,,,,,11,,,,62,78
79892,note_on,0,0,9,,,,,,,,,12,,,,58,76
79892,note_on,30,0,9,,,,,,,,,12,,,,62,0
79892,note_on,30,0,8,,,,,,,,,11,,,,65,0
79894,note_on,0,0,10,,,,,,,,,6,,,,46,62
79894,note_on,30,0,10,,,,,,,,,6,,,,46,0
79894,note_on,0,0,10,,,,,,,,,6,,,,41,0
79894,note_on,0,0,10,,,,,,,,,6,,,,50,62
79915,note_on,0,0,1,,,,,,,,,0,,,,82,0
79915,note_on,55,0,7,,,,,,,,,10,,,,77,0
79915,note_on,715,0,1,,,,,,,,,0,,,,86,0
79917,note_on,25,0,8,,,,,,,,,11,,,,62,0
79917,note_on,25,0,9,,,,,,,,,12,,,,58,0
79917,note_on,0,0,2,,,,,,,,,1,,,,82,0
79917,note_on,355,0,2,,,,,,,,,1,,,,74,0
79918,note_on,55,0,5,,,,,,,,,4,,,,62,0
79918,note_on,0,0,3,,,,,,,,,2,,,,70,0
79918,note_on,715,0,3,,,,,,,,,2,,,,74,0
79919,note_on,25,0,10,,,,,,,,,6,,,,46,0
79919,note_on,0,0,10,,,,,,,,,6,,,,50,0
79920,note_on,55,0,11,,,,,,,,,13,,,,41,0
79920,control_change,0,0,1,,,,,,,,,0,11,80,,,
79920,note_on,0,0,4,,,,,,,,,3,,,,50,0
79920,note_on,55,0,6,,,,,,,,,5,,,,50,0
79920,note_on,0,0,1,,,,,,,,,0,,,,86,96
79920,control_change,5,0,7,,,,,,,,,10,11,87,,,
79920,note_on,0,0,7,,,,,,,,,10,,,,82,103
79920,note_on,5,0,1,,,,,,,,,0,,,,82,96
79920,set_tempo,120,1,0,,,,,,1000000,,,,,,,,
79920,note_on,535,0,4,,,,,,,,,3,,,,46,0
79922,note_on,0,0,8,,,,,,,,,11,,,,65,103
79922,control_change,5,0,9,,,,,,,,,12,11,87,,,
79922,control_change,5,0,8,,,,,,,,,11,11,87,,,
79922,note_on,0,0,2,,,,,,,,,1,,,,82,95
79922,note_on,0,0,9,,,,,,,,,12,,,,62,101
79922,control_change,5,0,2,,,,,,,,,1,11,80,,,
79922,note_on,0,0,2,,,,,,,,,1,,,,74,95
79923,note_on,0,0,3,,,,,,,,,2,,,,70,96
79923,note_on,5,0,3,,,,,,,,,2,,,,74,96
79923,note_on,55,0,12,,,,,,,,,14,,,,29,0
79923,control_change,0,0,3,,,,,,,,,2,11,80,,,
79923,control_change,5,0,5,,,,,,,,,4,11,82,,,
79923,note_on,0,0,5,,,,,,,,,4,,,,65,82
79924,note_on,0,0,10,,,,,,,,,6,,,,41,82
79924,note_on,0,0,10,,,,,,,,,6,,,,46,82
79924,control_change,5,0,10,,,,,,,,,6,11,87,,,
79925,control_change,5,0,6,,,,,,,,,5,11,82,,,
79925,note_on,0,0,6,,,,,,,,,5,,,,53,82
79925,note_on,5,0,4,,,,,,,,,3,,,,50,95
79925,control_change,0,0,4,,,,,,,,,3,11,80,,,
79925,note_on,0,0,4,,,,,,,,,3,,,,46,95
79925,control_change,5,0,11,,,,,,,,,13,11,87,,,
79925,note_on,0,0,11,,,,,,,,,13,,,,41,100
79928,control_change,5,0,12,,,,,,,,,14,11,87,,,
79928,note_on,0,0,12,,,,,,,,,14,,,,29,96
79938,control_change,18,0,1,,,,,,,,,0,11,80,,,
79938,control_change,18,0,7,,,,,,,,,10,11,86,,,
79940,control_change,18,0,9,,,,,,,,,12,11,86,,,
79940,control_change,18,0,2,,,,,,,,,1,11,80,,,
79940,control_change,18,0,8,,,,,,,,,11,11,86,,,
79941,control_change,18,0,5,,,,,,,,,4,11,81,,,
79941,control_change,18,0,3,,,,,,,,,2,11,80,,,
79942,control_change,18,0,10,,,,,,,,,6,11,86,,,
79943,control_change,18,0,4,,,,,,,,,3,11,80,,,
79943,control_change,18,0,6,,,,,,,,,5,11,81,,,
79943,control_change,18,0,11,,,,,,,,,13,11,86,,,
79946,control_change,18,0,12,,,,,,,,,14,11,86,,,
79956,control_change,18,0,7,,,,,,,,,10,11,85,,,
79956,control_change,18,0,1,,,,,,,,,0,11,79,,,
79958,control_change,18,0,9,,,,,,,,,12,11,85,,,
79958,control_change,18,0,2,,,,,,,,,1,11,79,,,
79958,control_change,18,0,8,,,,,,,,,11,11,85,,,
79959,control_change,18,0,5,,,,,,,,,4,11,80,,,
79959,control_change,18,0,3,,,,,,,,,2,11,79,,,
79960,control_change,18,0,10,,,,,,,,,6,11,85,,,
79961,control_change,18,0,11,,,,,,,,,13,11,85,,,
79961,control_change,18,0,4,,,,,,,,,3,11,79,,,
79961,control_change,18,0,6,,,,,,,,,5,11,80,,,
79964,control_change,18,0,12,,,,,,,,,14,11,85,,,
79974,control_change,18,0,7,,,,,,,,,10,11,84,,,
79974,control_change,18,0,1,,,,,,,,,0,11,78,,,
79976,control_change,18,0,9,,,,,,,,,12,11,84,,,
79976,control_change,18,0,8,,,,,,,,,11,11,84,,,
79976,control_change,18,0,2,,,,,,,,,1,11,78,,,
79977,control_change,18,0,3,,,,,,,,,2,11,78,,,
79977,control_change,18,0,5,,,,,,,,,4,11,79,,,
79978,control_change,18,0,10,,,,,,,,,6,11,84,,,
79979,control_change,18,0,6,,,,,,,,,5,11,79,,,
79979,control_change,18,0,11,,,,,,,,,13,11,84,,,
79979,control_change,18,0,4,,,,,,,,,3,11,78,,,
79980,note_on,6,0,7,,,,,,,,,10,,,,82,0
79980,note_on,0,0,7,,,,,,,,,10,,,,77,103
79980,set_tempo,60,1,0,,,,,,937500,,,,,,,,
79982,note_on,6,0,9,,,,,,,,,12,,,,62,0
79982,note_on,0,0,9,,,,,,,,,12,,,,58,101
79982,note_on,0,0,8,,,,,,,,,11,,,,62,103
79982,note_on,6,0,8,,,,,,,,,11,,,,65,0
79982,control_change,18,0,12,,,,,,,,,14,11,84,,,
79984,note_on,0,0,10,,,,,,,,,6,,,,46,82
79984,note_on,0,0,10,,,,,,,,,6,,,,50,82
79984,note_on,0,0,10,,,,,,,,,6,,,,46,0
79984,note_on,6,0,10,,,,,,,,,6,,,,41,0
79992,control_change,18,0,1,,,,,,,,,0,11,77,,,
79992,control_change,12,0,7,,,,,,,,,10,11,83,,,
79994,control_change,18,0,2,,,,,,,,,1,11,77,,,
79994,control_change,12,0,8,,,,,,,,,11,11,83,,,
79994,control_change,12,0,9,,,,,,,,,12,11,83,,,
79995,control_change,18,0,3,,,,,,,,,2,11,77,,,
79995,control_change,18,0,5,,,,,,,,,4,11,78,,,
79996,control_change,12,0,10,,,,,,,,,6,11,83,,,
79997,control_change,18,0,11,,,,,,,,,13,11,83,,,
79997,control_change,18,0,4,,,,,,,,,3,11,77,,,
79997,control_change,18,0,6,,,,,,,,,5,11,78,,,
80000,control_change,18,0,12,,,,,,,,,14,11,83,,,
80010,control_change,18,0,7,,,,,,,,,10,11,82,,,
80010,control_change,18,0,1,,,,,,,,,0,11,76,,,
80012,control_change,18,0,9,,,,,,,,,12,11,82,,,
80012,control_change,18,0,2,,,,,,,,,1,11,76,,,
80012,control_change,18,0,8,,,,,,,,,11,11,82,,,
80013,control_change,18,0,3,,,,,,,,,2,11,76,,,
80013,control_change,18,0,5,,,,,,,,,4,11,77,,,
80014,control_change,18,0,10,,,,,,,,,6,11,82,,,
80015,control_change,18,0,4,,,,,,,,,3,11,76,,,
80015,control_change,18,0,6,,,,,,,,,5,11,77,,,
80015,control_change,18,0,11,,,,,,,,,13,11,82,,,
80018,control_change,18,0,12,,,,,,,,,14,11,82,,,
80028,control_change,18,0,1,,,,,,,,,0,11,76,,,
80028,control_change,18,0,7,,,,,,,,,10,11,81,,,
80030,control_change,18,0,2,,,,,,,,,1,11,76,,,
80030,control_change,18,0,8,,,,,,,,,11,11,81,,,
80030,control_change,18,0,9,,,,,,,,,12,11,81,,,
80031,control_change,18,0,3,,,,,,,,,2,11,76,,,
80031,control_change,18,0,5,,,,,,,,,4,11,76,,,
80032,note_on,4,0,7,,,,,,,,,10,,,,77,0
80032,control_change,18,0,10,,,,,,,,,6,11,81,,,
80033,control_change,18,0,4,,,,,,,,,3,11,76,,,
80033,control_change,18,0,11,,,,,,,,,13,11,81,,,
80033,control_change,18,0,6,,,,,,,,,5,11,76,,,
80034,note_on,4,0,9,,,,,,,,,12,,,,58,0
80034,note_on,4,0,8,,,,,,,,,11,,,,62,0
80036,control_change,18,0,12,,,,,,,,,14,11,81,,,
80036,note_on,0,0,10,,,,,,,,,6,,,,50,0
80036,note_on,4,0,10,,,,,,,,,6,,,,46,0
80040,set_tempo,60,1,0,,,,,,1061947,,,,,,,,
80040,note_on,8,0,7,,,,,,,,,10,,,,77,115
80040,note_on,12,0,1,,,,,,,,,0,,,,86,0
80040,note_on,0,0,1,,,,,,,,,0,,,,82,0
80040,note_on,7,0,11,,,,,,,,,13,,,,41,0
80042,note_on,8,0,9,,,,,,,,,12,,,,62,113
80042,note_on,0,0,2,,,,,,,,,1,,,,74,0
80042,note_on,12,0,2,,,,,,,,,1,,,,82,0
80042,note_on,8,0,8,,,,,,,,,11,,,,65,115
80043,note_on,0,0,3,,,,,,,,,2,,,,74,0
80043,note_on,7,0,12,,,,,,,,,14,,,,29,0
80043,note_on,12,0,5,,,,,,,,,4,,,,65,0
80043,note_on,12,0,3,,,,,,,,,2,,,,70,0
80044,note_on,8,0,10,,,,,,,,,6,,,,41,95
80044,note_on,0,0,10,,,,,,,,,6,,,,46,95
80045,note_on,0,0,4,,,,,,,,,3,,,,50,0
80045,note_on,12,0,6,,,,,,,,,5,,,,53,0
80045,note_on,12,0,4,,,,,,,,,3,,,,46,0
80045,note_on,5,0,11,,,,,,,,,13,,,,41,100
80046,control_change,6,0,7,,,,,,,,,10,11,80,,,
80048,control_change,6,0,8,,,,,,,,,11,11,80,,,
80048,note_on,5,0,12,,,,,,,,,14,,,,29,96
80048,control_change,6,0,9,,,,,,,,,12,11,80,,,
80050,control_change,6,0,10,,,,,,,,,6,11,80,,,
80051,control_change,6,0,11,,,,,,,,,13,11,80,,,
80054,control_change,6,0,12,,,,,,,,,14,11,80,,,
80064,control_change,18,0,7,,,,,,,,,10,11,79,,,
80066,control_change,18,0,9,,,,,,,,,12,11,79,,,
80066,control_change,18,0,8,,,,,,,,,11,11,79,,,
80068,control_change,18,0,10,,,,,,,,,6,11,79,,,
80069,control_change,18,0,11,,,,,,,,,13,11,79,,,
80072,control_change,18,0,12,,,,,,,,,14,11,79,,,
80082,control_change,18,0,7,,,,,,,,,10,11,78,,,
80084,control_change,18,0,8,,,,,,,,,11,11,78,,,
80084,control_change,18,0,9,,,,,,,,,12,11,78,,,
80086,control_change,18,0,10,,,,,,,,,6,11,78,,,
80087,control_change,18,0,11,,,,,,,,,13,11,78,,,
80090,control_change,18,0,12,,,,,,,,,14,11,78,,,
80100,control_change,0,0,7,,,,,,,,,10,11,77,,,
80100,set_tempo,60,1,0,,,,,,983607,,,,,,,,
80100,note_on,18,0,7,,,,,,,,,10,,,,77,0
80100,note_on,0,0,7,,,,,,,,,10,,,,74,103
80102,note_on,0,0,9,,,,,,,,,12,,,,58,101
80102,note_on,18,0,9,,,,,,,,,12,,,,62,0
80102,note_on,0,0,8,,,,,,,,,11,,,,62,103
80102,control_change,0,0,9,,,,,,,,,12,11,77,,,
80102,note_on,18,0,8,,,,,,,,,11,,,,65,0
80102,control_change,0,0,8,,,,,,,,,11,11,77,,,
80104,note_on,0,0,10,,,,,,,,,6,,,,46,82
80104,control_change,0,0,10,,,,,,,,,6,11,77,,,
80104,note_on,0,0,10,,,,,,,,,6,,,,50,82
80104,note_on,18,0,10,,,,,,,,,6,,,,46,0
80104,note_on,0,0,10,,,,,,,,,6,,,,41,0
80105,control_change,18,0,11,,,,,,,,,13,11,77,,,
80108,control_change,18,0,12,,,,,,,,,14,11,77,,,
80118,control_change,18,0,7,,,,,,,,,10,11,76,,,
80120,control_change,18,0,8,,,,,,,,,11,11,76,,,
80120,control_change,18,0,9,,,,,,,,,12,11,76,,,
80122,control_change,18,0,10,,,,,,,,,6,11,76,,,
80123,control_change,18,0,11,,,,,,,,,13,11,76,,,
80126,control_change,18,0,12,,,,,,,,,14,11,76,,,
80136,control_change,18,0,7,,,,,,,,,10,11,75,,,
80138,control_change,18,0,8,,,,,,,,,11,11,75,,,
80138,control_change,18,0,9,,,,,,,,,12,11,75,,,
80140,control_change,18,0,10,,,,,,,,,6,11,75,,,
80141,control_change,18,0,11,,,,,,,,,13,11,75,,,
80144,control_change,18,0,12,,,,,,,,,14,11,75,,,
80152,note_on,16,0,7,,,,,,,,,10,,,,74,0
80154,control_change,2,0,7,,,,,,,,,10,11,74,,,
80154,note_on,16,0,9,,,,,,,,,12,,,,58,0
80154,note_on,16,0,8,,,,,,,,,11,,,,62,0
80156,control_change,2,0,9,,,,,,,,,12,11,74,,,
80156,note_on,16,0,10,,,,,,,,,6,,,,46,0
80156,note_on,0,0,10,,,,,,,,,6,,,,50,0
80156,control_change,2,0,8,,,,,,,,,11,11,74,,,
80158,control_change,2,0,10,,,,,,,,,6,11,74,,,
80159,control_change,18,0,11,,,,,,,,,13,11,74,,,
80160,note_on,1,0,11,,,,,,,,,13,,,,41,0
80160,note_on,6,0,7,,,,,,,,,10,,,,77,115
80160,set_tempo,60,1,0,,,,,,1071429,,,,,,,,
80162,note_on,6,0,9,,,,,,,,,12,,,,62,113
80162,control_change,18,0,12,,,,,,,,,14,11,74,,,
80162,note_on,6,0,8,,,,,,,,,11,,,,65,115
80163,note_on,1,0,12,,,,,,,,,14,,,,29,0
80164,note_on,0,0,10,,,,,,,,,6,,,,46,95
80164,note_on,6,0,10,,,,,,,,,6,,,,41,95
80165,note_on,5,0,11,,,,,,,,,13,,,,41,100
80168,note_on,5,0,12,,,,,,,,,14,,,,29,96
80172,control_change,12,0,7,,,,,,,,,10,11,73,,,
80174,control_change,12,0,8,,,,,,,,,11,11,73,,,
80174,control_change,12,0,9,,,,,,,,,12,11,73,,,
80176,control_change,12,0,10,,,,,,,,,6,11,73,,,
80177,control_change,12,0,11,,,,,,,,,13,11,73,,,
80180,control_change,12,0,12,,,,,,,,,14,11,73,,,
80190,control_change,18,0,7,,,,,,,,,10,11,72,,,
80192,control_change,18,0,9,,,,,,,,,12,11,72,,,
80192,control_change,18,0,8,,,,,,,,,11,11,72,,,
80194,control_change,18,0,10,,,,,,,,,6,11,72,,,
80195,control_change,18,0,11,,,,,,,,,13,11,72,,,
80198,control_change,18,0,12,,,,,,,,,14,11,72,,,
80208,control_change,18,0,7,,,,,,,,,10,11,71,,,
80210,control_change,18,0,8,,,,,,,,,11,11,71,,,
80210,control_change,18,0,9,,,,,,,,,12,11,71,,,
80212,control_change,18,0,10,,,,,,,,,6,11,71,,,
80213,control_change,18,0,11,,,,,,,,,13,11,71,,,
80216,control_change,18,0,12,,,,,,,,,14,11,71,,,
80220,set_tempo,60,1,0,,,,,,1000000,,,,,,,,
80220,note_on,12,0,7,,,,,,,,,10,,,,77,0
80220,note_on,0,0,7,,,,,,,,,10,,,,74,103
80222,note_on,12,0,8,,,,,,,,,11,,,,65,0
80222,note_on,0,0,8,,,,,,,,,11,,,,62,103
80222,note_on,12,0,9,,,,,,,,,12,,,,62,0
80222,note_on,0,0,9,,,,,,,,,12,,,,58,101
80224,note_on,12,0,10,,,,,,,,,6,,,,46,0
80224,note_on,0,0,10,,,,,,,,,6,,,,46,82
80224,note_on,0,0,10,,,,,,,,,6,,,,50,82
80224,note_on,0,0,10,,,,,,,,,6,,,,41,0
80226,control_change,6,0,7,,,,,,,,,10,11,70,,,
80228,control_change,6,0,8,,,,,,,,,11,11,70,,,
80228,control_change,6,0,9,,,,,,,,,12,11,70,,,
80230,control_change,6,0,10,,,,,,,,,6,11,70,,,
80231,control_change,18,0,11,,,,,,,,,13,11,70,,,
80234,control_change,18,0,12,,,,,,,,,14,11,70,,,
80244,control_change,18,0,7,,,,,,,,,10,11,69,,,
80246,control_change,18,0,9,,,,,,,,,12,11,69,,,
80246,control_change,18,0,8,,,,,,,,,11,11,69,,,
80248,control_change,18,0,10,,,,,,,,,6,11,69,,,
80249,control_change,18,0,11,,,,,,,,,13,11,69,,,
80252,control_change,18,0,12,,,,,,,,,14,11,69,,,
80262,control_change,18,0,7,,,,,,,,,10,11,68,,,
80264,control_change,18,0,9,,,,,,,,,12,11,68,,,
80264,control_change,18,0,8,,,,,,,,,11,11,68,,,
80266,control_change,18,0,10,,,,,,,,,6,11,68,,,
80267,control_change,18,0,11,,,,,,,,,13,11,68,,,
80270,control_change,18,0,12,,,,,,,,,14,11,68,,,
80272,note_on,10,0,7,,,,,,,,,10,,,,74,0
80274,note_on,10,0,8,,,,,,,,,11,,,,62,0
80274,note_on,10,0,9,,,,,,,,,12,,,,58,0
80276,note_on,10,0,10,,,,,,,,,6,,,,46,0
80276,note_on,0,0,10,,,,,,,,,6,,,,50,0
80280,set_tempo,60,1,0,,,,,,1061947,,,,,,,,
80280,control_change,8,0,7,,,,,,,,,10,11,67,,,
80280,note_on,13,0,11,,,,,,,,,13,,,,41,0
80280,note_on,0,0,7,,,,,,,,,10,,,,77,115
80282,control_change,8,0,8,,,,,,,,,11,11,67,,,
80282,note_on,0,0,8,,,,,,,,,11,,,,65,115
80282,note_on,0,0,9,,,,,,,,,12,,,,62,113
80282,control_change,8,0,9,,,,,,,,,12,11,67,,,
80283,note_on,13,0,12,,,,,,,,,14,,,,29,0
80284,control_change,8,0,10,,,,,,,,,6,11,67,,,
80284,note_on,0,0,10,,,,,,,,,6,,,,46,95
80284,note_on,0,0,10,,,,,,,,,6,,,,41,95
80285,note_on,0,0,11,,,,,,,,,13,,,,41,100
80285,control_change,5,0,11,,,,,,,,,13,11,67,,,
80288,control_change,5,0,12,,,,,,,,,14,11,67,,,
80288,note_on,0,0,12,,,,,,,,,14,,,,29,96
80298,control_change,18,0,7,,,,,,,,,10,11,66,,,
80300,control_change,18,0,8,,,,,,,,,11,11,66,,,
80300,control_change,18,0,9,,,,,,,,,12,11,66,,,
80302,control_change,18,0,10,,,,,,,,,6,11,66,,,
80303,control_change,18,0,11,,,,,,,,,13,11,66,,,
80306,control_change,18,0,12,,,,,,,,,14,11,66,,,
80316,control_change,18,0,7,,,,,,,,,10,11,65,,,
80318,control_change,18,0,8,,,,,,,,,11,11,65,,,
80318,control_change,18,0,9,,,,,,,,,12,11,65,,,
80320,control_change,18,0,10,,,,,,,,,6,11,65,,,
80321,control_change,18,0,11,,,,,,,,,13,11,65,,,
80324,control_change,18,0,12,,,,,,,,,14,11,65,,,
80334,control_change,18,0,7,,,,,,,,,10,11,64,,,
80336,control_change,18,0,9,,,,,,,,,12,11,64,,,
80336,control_change,18,0,8,,,,,,,,,11,11,64,,,
80338,control_change,18,0,10,,,,,,,,,6,11,64,,,
80339,control_change,18,0,11,,,,,,,,,13,11,64,,,
80340,set_tempo,60,1,0,,,,,,1000000,,,,,,,,
80340,note_on,0,0,7,,,,,,,,,10,,,,74,103
80340,note_on,6,0,7,,,,,,,,,10,,,,77,0
80342,note_on,0,0,9,,,,,,,,,12,,,,58,101
80342,note_on,6,0,9,,,,,,,,,12,,,,62,0
80342,note_on,0,0,8,,,,,,,,,11,,,,62,103
80342,control_change,18,0,12,,,,,,,,,14,11,64,,,
80342,note_on,6,0,8,,,,,,,,,11,,,,65,0
80344,note_on,0,0,10,,,,,,,,,6,,,,50,82
80344,note_on,0,0,10,,,,,,,,,6,,,,46,82
80344,note_on,6,0,10,,,,,,,,,6,,,,41,0
80344,note_on,0,0,10,,,,,,,,,6,,,,46,0
80352,control_change,12,0,7,,,,,,,,,10,11,63,,,
80354,control_change,12,0,9,,,,,,,,,12,11,63,,,
80354,control_change,12,0,8,,,,,,,,,11,11,63,,,
80356,control_change,12,0,10,,,,,,,,,6,11,63,,,
80357,control_change,18,0,11,,,,,,,,,13,11,63,,,
80360,control_change,18,0,12,,,,,,,,,14,11,63,,,
80370,control_change,18,0,7,,,,,,,,,10,11,62,,,
80372,control_change,18,0,9,,,,,,,,,12,11,62,,,
80372,control_change,18,0,8,,,,,,,,,11,11,62,,,
80374,control_change,18,0,10,,,,,,,,,6,11,62,,,
80375,control_change,18,0,11,,,,,,,,,13,11,62,,,
80378,control_change,18,0,12,,,,,,,,,14,11,62,,,
80388,control_change,18,0,7,,,,,,,,,10,11,61,,,
80390,control_change,18,0,8,,,,,,,,,11,11,61,,,
80390,control_change,18,0,9,,,,,,,,,12,11,61,,,
80392,control_change,18,0,10,,,,,,,,,6,11,61,,,
80392,note_on,4,0,7,,,,,,,,,10,,,,74,0
80393,control_change,18,0,11,,,,,,,,,13,11,61,,,
80394,note_on,4,0,8,,,,,,,,,11,,,,62,0
80394,note_on,4,0,9,,,,,,,,,12,,,,58,0
80396,control_change,18,0,12,,,,,,,,,14,11,61,,,
80396,note_on,4,0,10,,,,,,,,,6,,,,50,0
80396,note_on,0,0,10,,,,,,,,,6,,,,46,0
80400,set_tempo,60,1,0,,,,,,1071429,,,,,,,,
80400,note_on,7,0,11,,,,,,,,,13,,,,41,0
80400,note_on,8,0,7,,,,,,,,,10,,,,77,115
80402,note_on,8,0,9,,,,,,,,,12,,,,62,113
80402,note_on,8,0,8,,,,,,,,,11,,,,65,115
80403,note_on,7,0,12,,,,,,,,,14,,,,29,0
80404,note_on,0,0,10,,,,,,,,,6,,,,46,95
80404,note_on,8,0,10,,,,,,,,,6,,,,41,95
80405,note_on,5,0,11,,,,,,,,,13,,,,41,100
80406,control_change,6,0,7,,,,,,,,,10,11,60,,,
80408,control_change,6,0,8,,,,,,,,,11,11,60,,,
80408,control_change,6,0,9,,,,,,,,,12,11,60,,,
80408,note_on,5,0,12,,,,,,,,,14,,,,29,96
80410,control_change,6,0,10,,,,,,,,,6,11,60,,,
80411,control_change,6,0,11,,,,,,,,,13,11,60,,,
80414,control_change,6,0,12,,,,,,,,,14,11,60,,,
80424,control_change,18,0,7,,,,,,,,,10,11,59,,,
80426,control_change,18,0,8,,,,,,,,,11,11,59,,,
80426,control_change,18,0,9,,,,,,,,,12,11,59,,,
80428,control_change,18,0,10,,,,,,,,,6,11,59,,,
80429,control_change,18,0,11,,,,,,,,,13,11,59,,,
80432,control_change,18,0,12,,,,,,,,,14,11,59,,,
80442,control_change,18,0,7,,,,,,,,,10,11,58,,,
80444,control_change,18,0,8,,,,,,,,,11,11,58,,,
80444,control_change,18,0,9,,,,,,,,,12,11,58,,,
80446,control_change,18,0,10,,,,,,,,,6,11,58,,,
80447,control_change,18,0,11,,,,,,,,,13,11,58,,,
80450,control_change,18,0,12,,,,,,,,,14,11,58,,,
80460,note_on,18,0,7,,,,,,,,,10,,,,77,0
80460,set_tempo,60,1,0,,,,,,1000000,,,,,,,,
80460,control_change,0,0,7,,,,,,,,,10,11,57,,,
80460,note_on,0,0,7,,,,,,,,,10,,,,74,103
80462,note_on,18,0,9,,,,,,,,,12,,,,62,0
80462,control_change,0,0,9,,,,,,,,,12,11,57,,,
80462,note_on,0,0,8,,,,,,,,,11,,,,62,103
80462,control_change,0,0,8,,,,,,,,,11,11,57,,,
80462,note_on,18,0,8,,,,,,,,,11,,,,65,0
80462,note_on,0,0,9,,,,,,,,,12,,,,58,101
80464,note_on,0,0,10,,,,,,,,,6,,,,50,82
80464,note_on,0,0,10,,,,,,,,,6,,,,46,82
80464,note_on,0,0,10,,,,,,,,,6,,,,41,0
80464,note_on,18,0,10,,,,,,,,,6,,,,46,0
80464,control_change,0,0,10,,,,,,,,,6,11,57,,,
80465,control_change,18,0,11,,,,,,,,,13,11,57,,,
80468,control_change,18,0,12,,,,,,,,,14,11,57,,,
80478,control_change,18,0,7,,,,,,,,,10,11,56,,,
80480,control_change,18,0,8,,,,,,,,,11,11,56,,,
80480,control_change,18,0,9,,,,,,,,,12,11,56,,,
80482,control_change,18,0,10,,,,,,,,,6,11,56,,,
80483,control_change,18,0,11,,,,,,,,,13,11,56,,,
80486,control_change,18,0,12,,,,,,,,,14,11,56,,,
80496,control_change,18,0,7,,,,,,,,,10,11,55,,,
80498,control_change,18,0,8,,,,,,,,,11,11,55,,,
80498,control_change,18,0,9,,,,,,,,,12,11,55,,,
80500,control_change,18,0,10,,,,,,,,,6,11,55,,,
80501,control_change,18,0,11,,,,,,,,,13,11,55,,,
80504,control_change,18,0,12,,,,,,,,,14,11,55,,,
80512,note_on,16,0,7,,,,,,,,,10,,,,74,0
80514,note_on,16,0,9,,,,,,,,,12,,,,58,0
80514,control_change,2,0,7,,,,,,,,,10,11,54,,,
80514,note_on,16,0,8,,,,,,,,,11,,,,62,0
80516,control_change,2,0,8,,,,,,,,,11,11,54,,,
80516,note_on,16,0,10,,,,,,,,,6,,,,46,0
80516,note_on,0,0,10,,,,,,,,,6,,,,50,0
80516,control_change,2,0,9,,,,,,,,,12,11,54,,,
80518,control_change,2,0,10,,,,,,,,,6,11,54,,,
80519,control_change,18,0,11,,,,,,,,,13,11,54,,,
80520,set_tempo,60,1,0,,,,,,1081081,,,,,,,,
80520,note_on,1,0,11,,,,,,,,,13,,,,41,0
80520,note_on,6,0,7,,,,,,,,,10,,,,75,115
80522,control_change,18,0,12,,,,,,,,,14,11,54,,,
80522,note_on,6,0,8,,,,,,,,,11,,,,63,115
80522,note_on,6,0,9,,,,,,,,,12,,,,60,113
80523,note_on,1,0,12,,,,,,,,,14,,,,29,0
80524,note_on,6,0,10,,,,,,,,,6,,,,46,95
80524,note_on,0,0,10,,,,,,,,,6,,,,41,95
80525,note_on,5,0,11,,,,,,,,,13,,,,41,100
80528,note_on,5,0,12,,,,,,,,,14,,,,29,96
80532,control_change,12,0,7,,,,,,,,,10,11,53,,,
80534,control_change,12,0,9,,,,,,,,,12,11,53,,,
80534,control_change,12,0,8,,,,,,,,,11,11,53,,,
80536,control_change,12,0,10,,,,,,,,,6,11,53,,,
80537,control_change,12,0,11,,,,,,,,,13,11,53,,,
80540,control_change,12,0,12,,,,,,,,,14,11,53,,,
80550,control_change,18,0,7,,,,,,,,,10,11,52,,,
80552,control_change,18,0,9,,,,,,,,,12,11,52,,,
80552,control_change,18,0,8,,,,,,,,,11,11,52,,,
80554,control_change,18,0,10,,,,,,,,,6,11,52,,,
80555,control_change,18,0,11,,,,,,,,,13,11,52,,,
80558,control_change,18,0,12,,,,,,,,,14,11,52,,,
80568,control_change,18,0,7,,,,,,,,,10,11,51,,,
80570,control_change,18,0,8,,,,,,,,,11,11,51,,,
80570,control_change,18,0,9,,,,,,,,,12,11,51,,,
80572,control_change,18,0,10,,,,,,,,,6,11,51,,,
80573,control_change,18,0,11,,,,,,,,,13,11,51,,,
80576,control_change,18,0,12,,,,,,,,,14,11,51,,,
80580,note_on,12,0,7,,,,,,,,,10,,,,75,0
80580,note_on,0,0,7,,,,,,,,,10,,,,72,103
80580,set_tempo,60,1,0,,,,,,1153846,,,,,,,,
80582,note_on,0,0,8,,,,,,,,,11,,,,60,103
80582,note_on,0,0,9,,,,,,,,,12,,,,58,101
80582,note_on,12,0,9,,,,,,,,,12,,,,60,0
80582,note_on,12,0,8,,,,,,,,,11,,,,63,0
80584,note_on,0,0,10,,,,,,,,,6,,,,46,82
80584,note_on,12,0,10,,,,,,,,,6,,,,41,0
80584,note_on,0,0,10,,,,,,,,,6,,,,46,0
80584,note_on,0,0,10,,,,,,,,,6,,,,48,82
80586,control_change,6,0,7,,,,,,,,,10,11,50,,,
80588,control_change,6,0,9,,,,,,,,,12,11,50,,,
80588,control_change,6,0,8,,,,,,,,,11,11,50,,,
80590,control_change,6,0,10,,,,,,,,,6,11,50,,,
80591,control_change,18,0,11,,,,,,,,,13,11,50,,,
80594,control_change,18,0,12,,,,,,,,,14,11,50,,,
80604,control_change,18,0,7,,,,,,,,,10,11,49,,,
80606,control_change,18,0,9,,,,,,,,,12,11,49,,,
80606,control_change,18,0,8,,,,,,,,,11,11,49,,,
80608,control_change,18,0,10,,,,,,,,,6,11,49,,,
80609,control_change,18,0,11,,,,,,,,,13,11,49,,,
80612,control_change,18,0,12,,,,,,,,,14,11,49,,,
80622,control_change,18,0,7,,,,,,,,,10,11,48,,,
80624,control_change,18,0,8,,,,,,,,,11,11,48,,,
80624,control_change,18,0,9,,,,,,,,,12,11,48,,,
80625,set_tempo,45,1,0,,,,,,1518987,,,,,,,,
80626,control_change,18,0,10,,,,,,,,,6,11,48,,,
80627,control_change,18,0,11,,,,,,,,,13,11,48,,,
80630,control_change,18,0,12,,,,,,,,,14,11,48,,,
80632,note_on,10,0,7,,,,,,,,,10,,,,72,0
80634,note_on,10,0,8,,,,,,,,,11,,,,60,0
80634,note_on,10,0,9,,,,,,,,,12,,,,58,0
80636,note_on,0,0,10,,,,,,,,,6,,,,48,0
80636,note_on,10,0,10,,,,,,,,,6,,,,46,0
80640,set_tempo,15,1,0,,,,,,1000000,,,,,,,,
80640,control_change,600,0,1,,,,,,,,,0,11,47,,,
80640,note_on,13,0,11,,,,,,,,,13,,,,41,0
80640,note_on,0,0,1,,,,,,,,,0,,,,84,83
80640,note_on,0,0,7,,,,,,,,,10,,,,74,103
80640,note_on,0,0,1,,,,,,,,,0,,,,72,83
80640,control_change,8,0,7,,,,,,,,,10,11,47,,,
80642,note_on,0,0,2,,,,,,,,,1,,,,72,82
80642,control_change,600,0,2,,,,,,,,,1,11,47,,,
80642,control_change,8,0,8,,,,,,,,,11,11,47,,,
80642,note_on,0,0,2,,,,,,,,,1,,,,75,82
80642,note_on,0,0,8,,,,,,,,,11,,,,60,103
80642,control_change,8,0,9,,,,,,,,,12,11,47,,,
80642,note_on,0,0,9,,,,,,,,,12,,,,58,101
80643,control_change,0,0,5,,,,,,,,,4,11,42,,,
80643,note_on,600,0,5,,,,,,,,,4,,,,60,82
80643,note_on,0,0,3,,,,,,,,,2,,,,70,83
80643,note_on,13,0,12,,,,,,,,,14,,,,29,0
80643,note_on,0,0,3,,,,,,,,,2,,,,65,83
80643,control_change,600,0,3,,,,,,,,,2,11,47,,,
80644,note_on,0,0,10,,,,,,,,,6,,,,41,104
80644,control_change,8,0,10,,,,,,,,,6,11,47,,,
80645,control_change,5,0,11,,,,,,,,,13,11,47,,,
80645,note_on,0,0,11,,,,,,,,,13,,,,41,100
80645,note_on,0,0,6,,,,,,,,,5,,,,53,82
80645,control_change,600,0,6,,,,,,,,,5,11,42,,,
80648,control_change,5,0,12,,,,,,,,,14,11,47,,,
80648,note_on,0,0,12,,,,,,,,,14,,,,29,96
80650,note_on,10,0,7,,,,,,,,,10,,,,74,0
80650,note_on,0,0,7,,,,,,,,,10,,,,72,103
80660,note_on,0,0,7,,,,,,,,,10,,,,74,103
80660,note_on,10,0,7,,,,,,,,,10,,,,72,0
80670,note_on,0,0,7,,,,,,,,,10,,,,72,103
80670,note_on,10,0,7,,,,,,,,,10,,,,74,0
80680,note_on,0,0,7,,,,,,,,,10,,,,74,103
80680,note_on,10,0,7,,,,,,,,,10,,,,72,0
80690,note_on,10,0,7,,,,,,,,,10,,,,74,0
80690,note_on,0,0,7,,,,,,,,,10,,,,72,103
80700,set_tempo,60,1,0,,,,,,937500,,,,,,,,
80700,note_on,10,0,7,,,,,,,,,10,,,,72,0
80700,note_on,0,0,7,,,,,,,,,10,,,,74,103
80710,note_on,10,0,7,,,,,,,,,10,,,,72,103
80712,note_on,2,0,7,,,,,,,,,10,,,,74,0
80712,control_change,0,0,7,,,,,,,,,10,11,46,,,
80714,control_change,74,0,1,,,,,,,,,0,11,47,,,
80715,control_change,72,0,5,,,,,,,,,4,11,41,,,
80716,control_change,74,0,2,,,,,,,,,1,11,47,,,
80717,control_change,74,0,3,,,,,,,,,2,11,47,,,
80717,control_change,72,0,6,,,,,,,,,5,11,41,,,
80719,control_change,5,0,1,,,,,,,,,0,11,44,,,
80720,note_on,8,0,7,,,,,,,,,10,,,,74,103
80721,control_change,5,0,2,,,,,,,,,1,11,44,,,
80722,note_on,2,0,7,,,,,,,,,10,,,,72,0
80722,control_change,5,0,3,,,,,,,,,2,11,44,,,
80724,control_change,5,0,1,,,,,,,,,0,11,41,,,
80726,control_change,5,0,2,,,,,,,,,1,11,41,,,
80727,control_change,5,0,3,,,,,,,,,2,11,41,,,
80730,control_change,6,0,1,,,,,,,,,0,11,38,,,
80730,note_on,8,0,7,,,,,,,,,10,,,,72,103
80732,note_on,2,0,7,,,,,,,,,10,,,,74,0
80732,control_change,6,0,2,,,,,,,,,1,11,38,,,
80733,control_change,6,0,3,,,,,,,,,2,11,38,,,
80735,control_change,5,0,1,,,,,,,,,0,11,35,,,
80737,control_change,5,0,2,,,,,,,,,1,11,35,,,
80738,control_change,5,0,3,,,,,,,,,2,11,35,,,
80740,note_on,8,0,7,,,,,,,,,10,,,,74,103
80741,control_change,6,0,1,,,,,,,,,0,11,32,,,
80742,note_on,2,0,7,,,,,,,,,10,,,,72,0
80743,control_change,6,0,2,,,,,,,,,1,11,32,,,
80744,control_change,6,0,3,,,,,,,,,2,11,32,,,
80746,control_change,5,0,1,,,,,,,,,0,11,29,,,
80748,control_change,5,0,2,,,,,,,,,1,11,29,,,
80749,control_change,5,0,3,,,,,,,,,2,11,29,,,
80750,note_on,8,0,7,,,,,,,,,10,,,,72,103
80751,control_change,5,0,1,,,,,,,,,0,11,26,,,
80752,note_on,2,0,7,,,,,,,,,10,,,,74,0
80753,control_change,5,0,2,,,,,,,,,1,11,26,,,
80754,control_change,5,0,3,,,,,,,,,2,11,26,,,
80757,control_change,6,0,1,,,,,,,,,0,11,23,,,
80759,control_change,6,0,2,,,,,,,,,1,11,23,,,
80760,note_on,0,0,1,,,,,,,,,0,,,,72,0
80760,note_on,8,0,7,,,,,,,,,10,,,,74,103
80760,control_change,6,0,3,,,,,,,,,2,11,23,,,
80760,note_on,3,0,1,,,,,,,,,0,,,,84,0
80762,note_on,120,0,9,,,,,,,,,12,,,,58,0
80762,note_on,2,0,7,,,,,,,,,10,,,,72,0
80762,note_on,120,0,8,,,,,,,,,11,,,,60,0
80762,note_on,3,0,2,,,,,,,,,1,,,,75,0
80762,note_on,0,0,2,,,,,,,,,1,,,,72,0
80763,note_on,48,0,5,,,,,,,,,4,,,,60,0
80763,note_on,3,0,3,,,,,,,,,2,,,,70,0
80763,note_on,0,0,3,,,,,,,,,2,,,,65,0
80764,note_on,120,0,10,,,,,,,,,6,,,,41,0
80765,note_on,48,0,6,,,,,,,,,5,,,,53,0
80765,note_on,120,0,11,,,,,,,,,13,,,,41,0
80768,note_on,120,0,12,,,,,,,,,14,,,,29,0
80770,note_on,8,0,7,,,,,,,,,10,,,,72,103
80772,note_on,2,0,7,,,,,,,,,10,,,,74,0
80780,note_on,8,0,7,,,,,,,,,10,,,,74,103
80782,note_on,2,0,7,,,,,,,,,10,,,,72,0
80784,control_change,2,0,7,,,,,,,,,10,11,45,,,
80787,control_change,24,0,5,,,,,,,,,4,11,40,,,
80789,control_change,24,0,6,,,,,,,,,5,11,40,,,
80790,note_on,6,0,7,,,,,,,,,10,,,,72,103
80792,note_on,2,0,7,,,,,,,,,10,,,,74,0
80800,note_on,8,0,7,,,,,,,,,10,,,,74,103
80802,note_on,2,0,7,,,,,,,,,10,,,,72,0
80810,note_on,8,0,7,,,,,,,,,10,,,,72,102
80812,note_on,2,0,7,,,,,,,,,10,,,,74,0
80820,note_on,8,0,7,,,,,,,,,10,,,,74,102
80822,note_on,2,0,7,,,,,,,,,10,,,,72,0
80830,note_on,8,0,7,,,,,,,,,10,,,,72,102
80832,note_on,2,0,7,,,,,,,,,10,,,,74,0
80840,note_on,8,0,7,,,,,,,,,10,,,,74,102
80842,note_on,2,0,7,,,,,,,,,10,,,,72,0
80850,note_on,8,0,7,,,,,,,,,10,,,,72,101
80852,note_on,2,0,7,,,,,,,,,10,,,,74,0
80856,control_change,4,0,7,,,,,,,,,10,11,44,,,
80859,control_change,72,0,5,,,,,,,,,4,11,39,,,
80860,note_on,4,0,7,,,,,,,,,10,,,,74,101
80861,control_change,72,0,6,,,,,,,,,5,11,39,,,
80862,note_on,2,0,7,,,,,,,,,10,,,,72,0
80870,note_on,8,0,7,,,,,,,,,10,,,,72,101
80872,note_on,2,0,7,,,,,,,,,10,,,,74,0
80880,note_on,8,0,7,,,,,,,,,10,,,,74,101
80882,note_on,2,0,7,,,,,,,,,10,,,,72,0
80890,note_on,8,0,7,,,,,,,,,10,,,,72,101
80892,note_on,2,0,7,,,,,,,,,10,,,,74,0
80900,note_on,8,0,7,,,,,,,,,10,,,,74,100
80902,note_on,2,0,7,,,,,,,,,10,,,,72,0
80910,note_on,8,0,7,,,,,,,,,10,,,,72,100
80912,note_on,2,0,7,,,,,,,,,10,,,,74,0
80920,note_on,8,0,7,,,,,,,,,10,,,,74,100
80922,note_on,2,0,7,,,,,,,,,10,,,,72,0
80928,control_change,6,0,7,,,,,,,,,10,11,43,,,
80930,note_on,2,0,7,,,,,,,,,10,,,,72,100
80931,control_change,72,0,5,,,,,,,,,4,11,38,,,
80932,note_on,2,0,7,,,,,,,,,10,,,,74,0
80933,control_change,72,0,6,,,,,,,,,5,11,38,,,
80940,note_on,8,0,7,,,,,,,,,10,,,,74,98
80942,note_on,2,0,7,,,,,,,,,10,,,,72,0
80950,note_on,8,0,7,,,,,,,,,10,,,,72,98
80952,note_on,2,0,7,,,,,,,,,10,,,,74,0
80960,note_on,8,0,7,,,,,,,,,10,,,,74,98
80962,note_on,2,0,7,,,,,,,,,10,,,,72,0
80970,note_on,8,0,7,,,,,,,,,10,,,,72,98
80972,note_on,2,0,7,,,,,,,,,10,,,,74,0
80980,note_on,8,0,7,,,,,,,,,10,,,,74,98
80982,note_on,2,0,7,,,,,,,,,10,,,,72,0
80990,note_on,8,0,7,,,,,,,,,10,,,,72,98
80992,note_on,2,0,7,,,,,,,,,10,,,,74,0
81000,control_change,8,0,7,,,,,,,,,10,11,42,,,
81000,note_on,0,0,1,,,,,,,,,0,,,,77,83
81000,control_change,240,0,1,,,,,,,,,0,11,47,,,
81000,note_on,0,0,1,,,,,,,,,0,,,,84,83
81000,note_on,0,0,7,,,,,,,,,10,,,,74,98
81002,note_on,0,0,2,,,,,,,,,1,,,,69,82
81002,note_on,0,0,2,,,,,,,,,1,,,,72,82
81002,control_change,240,0,2,,,,,,,,,1,11,47,,,
81002,control_change,240,0,8,,,,,,,,,11,11,37,,,
81002,note_on,0,0,8,,,,,,,,,11,,,,60,78
81002,note_on,0,0,9,,,,,,,,,12,,,,53,76
81002,note_on,0,0,9,,,,,,,,,12,,,,57,76
81002,control_change,240,0,9,,,,,,,,,12,11,37,,,
81002,note_on,2,0,7,,,,,,,,,10,,,,72,0
81003,note_on,72,0,5,,,,,,,,,4,,,,65,82
81003,control_change,0,0,5,,,,,,,,,4,11,37,,,
81003,note_on,0,0,3,,,,,,,,,2,,,,65,83
81003,control_change,240,0,3,,,,,,,,,2,11,47,,,
81003,note_on,0,0,3,,,,,,,,,2,,,,69,83
81004,note_on,0,0,10,,,,,,,,,6,,,,53,77
81004,control_change,240,0,10,,,,,,,,,6,11,37,,,
81005,control_change,72,0,6,,,,,,,,,5,11,37,,,
81005,control_change,240,0,11,,,,,,,,,13,11,37,,,
81005,note_on,0,0,11,,,,,,,,,13,,,,53,77
81005,note_on,0,0,6,,,,,,,,,5,,,,53,82
81008,control_change,240,0,12,,,,,,,,,14,11,37,,,
81008,note_on,0,0,12,,,,,,,,,14,,,,41,72
81010,note_on,8,0,7,,,,,,,,,10,,,,72,98
81012,note_on,2,0,7,,,,,,,,,10,,,,74,0
81020,note_on,8,0,7,,,,,,,,,10,,,,74,98
81022,note_on,2,0,7,,,,,,,,,10,,,,72,0
81030,note_on,8,0,7,,,,,,,,,10,,,,72,97
81032,note_on,2,0,7,,,,,,,,,10,,,,74,0
81040,note_on,8,0,7,,,,,,,,,10,,,,74,97
81042,note_on,2,0,7,,,,,,,,,10,,,,72,0
81050,note_on,8,0,7,,,,,,,,,10,,,,72,97
81052,note_on,2,0,7,,,,,,,,,10,,,,74,0
81060,note_on,8,0,7,,,,,,,,,10,,,,74,97
81062,note_on,2,0,7,,,,,,,,,10,,,,72,0
81070,note_on,8,0,7,,,,,,,,,10,,,,72,97
81072,control_change,0,0,7,,,,,,,,,10,11,41,,,
81072,note_on,2,0,7,,,,,,,,,10,,,,74,0
81075,control_change,72,0,5,,,,,,,,,4,11,36,,,
81077,control_change,72,0,6,,,,,,,,,5,11,36,,,
81080,note_on,8,0,7,,,,,,,,,10,,,,74,96
81082,note_on,2,0,7,,,,,,,,,10,,,,72,0
81090,note_on,8,0,7,,,,,,,,,10,,,,72,96
81090,control_change,90,0,1,,,,,,,,,0,11,47,,,
81092,control_change,90,0,2,,,,,,,,,1,11,47,,,
81092,note_on,2,0,7,,,,,,,,,10,,,,74,0
81093,control_change,3,0,1,,,,,,,,,0,11,44,,,
81093,control_change,90,0,3,,,,,,,,,2,11,47,,,
81095,control_change,3,0,2,,,,,,,,,1,11,44,,,
81096,control_change,3,0,1,,,,,,,,,0,11,41,,,
81096,control_change,3,0,3,,,,,,,,,2,11,44,,,
81098,control_change,3,0,2,,,,,,,,,1,11,41,,,
81099,control_change,3,0,3,,,,,,,,,2,11,41,,,
81100,control_change,4,0,1,,,,,,,,,0,11,38,,,
81100,note_on,8,0,7,,,,,,,,,10,,,,74,96
81102,control_change,4,0,2,,,,,,,,,1,11,38,,,
81102,note_on,2,0,7,,,,,,,,,10,,,,72,0
81103,control_change,3,0,1,,,,,,,,,0,11,35,,,
81103,control_change,4,0,3,,,,,,,,,2,11,38,,,
81105,control_change,3,0,2,,,,,,,,,1,11,35,,,
81106,control_change,3,0,3,,,,,,,,,2,11,35,,,
81107,control_change,4,0,1,,,,,,,,,0,11,32,,,
81109,control_change,4,0,2,,,,,,,,,1,11,32,,,
81110,control_change,3,0,1,,,,,,,,,0,11,29,,,
81110,note_on,8,0,7,,,,,,,,,10,,,,72,96
81110,control_change,4,0,3,,,,,,,,,2,11,32,,,
81112,control_change,3,0,2,,,,,,,,,1,11,29,,,
81112,note_on,2,0,7,,,,,,,,,10,,,,74,0
81113,control_change,3,0,3,,,,,,,,,2,11,29,,,
81114,control_change,4,0,1,,,,,,,,,0,11,26,,,
81116,control_change,4,0,2,,,,,,,,,1,11,26,,,
81117,control_change,4,0,3,,,,,,,,,2,11,26,,,
81117,control_change,3,0,1,,,,,,,,,0,11,23,,,
81119,control_change,3,0,2,,,,,,,,,1,11,23,,,
81120,note_on,8,0,7,,,,,,,,,10,,,,74,95
81120,note_on,0,0,1,,,,,,,,,0,,,,84,0
81120,control_change,3,0,3,,,,,,,,,2,11,23,,,
81120,note_on,3,0,1,,,,,,,,,0,,,,77,0
81122,note_on,2,0,7,,,,,,,,,10,,,,72,0
81122,note_on,120,0,8,,,,,,,,,11,,,,60,0
81122,note_on,0,0,9,,,,,,,,,12,,,,57,0
81122,note_on,3,0,2,,,,,,,,,1,,,,69,0
81122,note_on,0,0,2,,,,,,,,,1,,,,72,0
81122,note_on,120,0,9,,,,,,,,,12,,,,53,0
81123,note_on,3,0,3,,,,,,,,,2,,,,65,0
81123,note_on,0,0,3,,,,,,,,,2,,,,69,0
81123,note_on,48,0,5,,,,,,,,,4,,,,65,0
81124,note_on,120,0,10,,,,,,,,,6,,,,53,0
81125,note_on,120,0,11,,,,,,,,,13,,,,53,0
81125,note_on,48,0,6,,,,,,,,,5,,,,53,0
81128,note_on,120,0,12,,,,,,,,,14,,,,41,0
81130,note_on,8,0,7,,,,,,,,,10,,,,72,95
81132,note_on,2,0,7,,,,,,,,,10,,,,74,0
81140,note_on,8,0,7,,,,,,,,,10,,,,74,95
81142,note_on,2,0,7,,,,,,,,,10,,,,72,0
81144,control_change,2,0,7,,,,,,,,,10,11,40,,,
81147,control_change,24,0,5,,,,,,,,,4,11,35,,,
81149,control_change,24,0,6,,,,,,,,,5,11,35,,,
81150,note_on,6,0,7,,,,,,,,,10,,,,72,95
81152,note_on,2,0,7,,,,,,,,,10,,,,74,0
81160,note_on,8,0,7,,,,,,,,,10,,,,74,95
81162,note_on,2,0,7,,,,,,,,,10,,,,72,0
81170,note_on,8,0,7,,,,,,,,,10,,,,72,94
81172,note_on,2,0,7,,,,,,,,,10,,,,74,0
81180,note_on,8,0,7,,,,,,,,,10,,,,74,94
81182,note_on,2,0,7,,,,,,,,,10,,,,72,0
81190,note_on,8,0,7,,,,,,,,,10,,,,72,94
81192,note_on,2,0,7,,,,,,,,,10,,,,74,0
81200,note_on,8,0,7,,,,,,,,,10,,,,74,94
81202,note_on,2,0,7,,,,,,,,,10,,,,72,0
81210,note_on,8,0,7,,,,,,,,,10,,,,72,93
81212,note_on,2,0,7,,,,,,,,,10,,,,74,0
81216,control_change,4,0,7,,,,,,,,,10,11,39,,,
81219,control_change,72,0,5,,,,,,,,,4,11,34,,,
81220,note_on,4,0,7,,,,,,,,,10,,,,74,93
81221,control_change,72,0,6,,,,,,,,,5,11,34,,,
81222,note_on,2,0,7,,,,,,,,,10,,,,72,0
81230,note_on,8,0,7,,,,,,,,,10,,,,72,93
81232,note_on,2,0,7,,,,,,,,,10,,,,74,0
81240,note_on,8,0,7,,,,,,,,,10,,,,74,93
81242,note_on,2,0,7,,,,,,,,,10,,,,72,0
81250,note_on,8,0,7,,,,,,,,,10,,,,72,91
81252,note_on,2,0,7,,,,,,,,,10,,,,74,0
81260,note_on,8,0,7,,,,,,,,,10,,,,74,91
81262,note_on,2,0,7,,,,,,,,,10,,,,72,0
81270,note_on,8,0,7,,,,,,,,,10,,,,72,91
81272,note_on,2,0,7,,,,,,,,,10,,,,74,0
81280,note_on,8,0,7,,,,,,,,,10,,,,74,91
81282,note_on,2,0,7,,,,,,,,,10,,,,72,0
81288,control_change,6,0,7,,,,,,,,,10,11,38,,,
81290,note_on,2,0,7,,,,,,,,,10,,,,72,91
81291,control_change,72,0,5,,,,,,,,,4,11,33,,,
81292,note_on,2,0,7,,,,,,,,,10,,,,74,0
81293,control_change,72,0,6,,,,,,,,,5,11,33,,,
81300,note_on,8,0,7,,,,,,,,,10,,,,74,91
81300,set_tempo,600,1,0,,,,,,967742,,,,,,,,
81302,note_on,2,0,7,,,,,,,,,10,,,,72,0
81310,note_on,8,0,7,,,,,,,,,10,,,,72,91
81312,note_on,2,0,7,,,,,,,,,10,,,,74,0
81320,note_on,8,0,7,,,,,,,,,10,,,,74,91
81322,note_on,2,0,7,,,,,,,,,10,,,,72,0
81330,note_on,8,0,7,,,,,,,,,10,,,,72,91
81332,note_on,2,0,7,,,,,,,,,10,,,,74,0
81340,note_on,8,0,7,,,,,,,,,10,,,,72,0
81340,note_on,0,0,7,,,,,,,,,10,,,,74,90
81345,set_tempo,45,1,0,,,,,,1304348,,,,,,,,
81350,note_on,10,0,7,,,,,,,,,10,,,,74,0
81360,set_tempo,15,1,0,,,,,,1000000,,,,,,,,
81360,control_change,10,0,7,,,,,,,,,10,11,37,,,
81360,note_on,0,0,7,,,,,,,,,10,,,,74,111
81362,note_on,0,0,2,,,,,,,,,1,,,,74,82
81362,control_change,240,0,2,,,,,,,,,1,11,55,,,
81363,note_on,0,0,3,,,,,,,,,2,,,,69,96
81363,control_change,72,0,5,,,,,,,,,4,11,32,,,
81363,program_change,239,0,10,,,,,,,,45,6,,,,,
81363,note_on,0,0,3,,,,,,,,,2,,,,66,96
81363,control_change,240,0,3,,,,,,,,,2,11,30,,,
81364,note_on,0,0,10,,,,,,,,,6,,,,50,31
81364,control_change,1,0,10,,,,,,,,,6,11,100,,,
81364,program_change,239,0,11,,,,,,,,45,13,,,,,
81365,control_change,72,0,6,,,,,,,,,5,11,32,,,
81365,control_change,1,0,11,,,,,,,,,13,11,100,,,
81365,note_on,0,0,11,,,,,,,,,13,,,,50,43
81365,control_change,1320,0,4,,,,,,,,,3,11,30,,,
81365,note_on,0,0,4,,,,,,,,,3,,,,54,95
81365,note_on,0,0,4,,,,,,,,,3,,,,57,95
81367,program_change,239,0,12,,,,,,,,45,14,,,,,
81368,note_on,0,0,12,,,,,,,,,14,,,,38,36
81368,control_change,1,0,12,,,,,,,,,14,11,100,,,
81383,control_change,20,0,3,,,,,,,,,2,11,32,,,
81385,control_change,20,0,4,,,,,,,,,3,11,32,,,
81403,control_change,20,0,3,,,,,,,,,2,11,34,,,
81405,control_change,20,0,4,,,,,,,,,3,11,34,,,
81420,set_tempo,60,1,0,,,,,,937500,,,,,,,,
81422,note_on,0,0,8,,,,,,,,,11,,,,66,103
81422,control_change,300,0,8,,,,,,,,,11,11,37,,,
81423,control_change,20,0,3,,,,,,,,,2,11,36,,,
81424,note_on,0,0,10,,,,,,,,,6,,,,62,31
81424,note_on,60,0,10,,,,,,,,,6,,,,50,0
81425,control_change,20,0,4,,,,,,,,,3,11,36,,,
81443,control_change,20,0,3,,,,,,,,,2,11,38,,,
81445,control_change,20,0,4,,,,,,,,,3,11,38,,,
81452,note_on,0,0,8,,,,,,,,,11,,,,67,103
81452,note_on,30,0,8,,,,,,,,,11,,,,66,0
81480,note_on,0,0,1,,,,,,,,,0,,,,78,96
81480,note_on,0,0,1,,,,,,,,,0,,,,81,96
81480,control_change,360,0,1,,,,,,,,,0,11,37,,,
81482,note_on,0,0,8,,,,,,,,,11,,,,69,103
81482,note_on,30,0,8,,,,,,,,,11,,,,67,0
81484,note_on,60,0,10,,,,,,,,,6,,,,62,0
81484,note_on,0,0,10,,,,,,,,,6,,,,60,31
81485,note_on,120,0,11,,,,,,,,,13,,,,50,0
81488,note_on,120,0,12,,,,,,,,,14,,,,38,0
81512,note_on,0,0,8,,,,,,,,,11,,,,66,103
81512,note_on,30,0,8,,,,,,,,,11,,,,69,0
81538,note_on,95,0,3,,,,,,,,,2,,,,66,0
81538,note_on,0,0,3,,,,,,,,,2,,,,69,0
81540,note_on,0,0,1,,,,,,,,,0,,,,81,0
81540,note_on,60,0,1,,,,,,,,,0,,,,78,0
81540,note_on,95,0,4,,,,,,,,,3,,,,57,0
81540,set_tempo,120,1,0,,,,,,1034483,,,,,,,,
81540,note_on,0,0,4,,,,,,,,,3,,,,54,0
81542,note_on,30,0,8,,,,,,,,,11,,,,66,0
81543,note_on,5,0,3,,,,,,,,,2,,,,70,96
81543,note_on,0,0,3,,,,,,,,,2,,,,67,96
81544,note_on,0,0,10,,,,,,,,,6,,,,58,31
81544,note_on,60,0,10,,,,,,,,,6,,,,60,0
81545,note_on,5,0,4,,,,,,,,,3,,,,55,95
81545,note_on,0,0,4,,,,,,,,,3,,,,58,95
81545,note_on,60,0,11,,,,,,,,,13,,,,43,43
81548,note_on,60,0,12,,,,,,,,,14,,,,31,36
81600,set_tempo,60,1,0,,,,,,937500,,,,,,,,
81600,note_on,0,0,7,,,,,,,,,10,,,,72,111
81600,note_on,240,0,7,,,,,,,,,10,,,,74,0
81602,note_on,60,0,8,,,,,,,,,11,,,,67,103
81602,note_on,0,0,2,,,,,,,,,1,,,,72,82
81602,note_on,240,0,2,,,,,,,,,1,,,,74,0
81604,note_on,0,0,10,,,,,,,,,6,,,,55,31
81604,note_on,60,0,10,,,,,,,,,6,,,,58,0
81632,note_on,0,0,8,,,,,,,,,11,,,,69,103
81632,note_on,30,0,8,,,,,,,,,11,,,,67,0
81660,note_on,0,0,1,,,,,,,,,0,,,,79,96
81660,note_on,120,0,1,,,,,,,,,0,,,,82,96
81660,note_on,60,0,7,,,,,,,,,10,,,,72,0
81660,note_on,0,0,7,,,,,,,,,10,,,,74,111
81662,note_on,0,0,2,,,,,,,,,1,,,,74,82
81662,note_on,0,0,8,,,,,,,,,11,,,,70,103
81662,note_on,30,0,8,,,,,,,,,11,,,,69,0
81662,note_on,60,0,2,,,,,,,,,1,,,,72,0
81664,note_on,0,0,10,,,,,,,,,6,,,,53,31
81664,note_on,60,0,10,,,,,,,,,6,,,,55,0
81665,note_on,120,0,11,,,,,,,,,13,,,,43,0
81668,note_on,120,0,12,,,,,,,,,14,,,,31,0
81692,note_on,0,0,8,,,,,,,,,11,,,,67,103
81692,note_on,30,0,8,,,,,,,,,11,,,,70,0
81720,note_on,0,0,7,,,,,,,,,10,,,,77,111
81720,note_on,60,0,7,,,,,,,,,10,,,,74,0
81720,note_on,0,0,1,,,,,,,,,0,,,,82,0
81720,note_on,60,0,1,,,,,,,,,0,,,,79,0
81720,set_tempo,120,1,0,,,,,,1034483,,,,,,,,
81722,note_on,30,0,8,,,,,,,,,11,,,,67,0
81722,note_on,60,0,2,,,,,,,,,1,,,,74,0
81722,note_on,0,0,2,,,,,,,,,1,,,,77,82
81724,note_on,0,0,10,,,,,,,,,6,,,,52,31
81724,note_on,60,0,10,,,,,,,,,6,,,,53,0
81725,note_on,60,0,11,,,,,,,,,13,,,,48,43
81728,note_on,60,0,12,,,,,,,,,14,,,,36,36
81730,note_on,0,0,7,,,,,,,,,10,,,,76,111
81730,note_on,10,0,7,,,,,,,,,10,,,,77,0
81732,note_on,10,0,2,,,,,,,,,1,,,,77,0
81732,note_on,0,0,2,,,,,,,,,1,,,,76,82
81780,set_tempo,60,1,0,,,,,,937500,,,,,,,,
81780,note_on,0,0,7,,,,,,,,,10,,,,74,111
81780,note_on,50,0,7,,,,,,,,,10,,,,76,0
81782,note_on,0,0,9,,,,,,,,,12,,,,55,101
81782,control_change,660,0,9,,,,,,,,,12,11,37,,,
81782,note_on,0,0,2,,,,,,,,,1,,,,74,82
81782,note_on,50,0,2,,,,,,,,,1,,,,76,0
81784,note_on,60,0,10,,,,,,,,,6,,,,52,0
81784,note_on,0,0,10,,,,,,,,,6,,,,48,31
81812,note_on,0,0,9,,,,,,,,,12,,,,57,101
81812,note_on,30,0,9,,,,,,,,,12,,,,55,0
81840,note_on,0,0,1,,,,,,,,,0,,,,79,96
81840,note_on,60,0,7,,,,,,,,,10,,,,74,0
81840,note_on,120,0,1,,,,,,,,,0,,,,82,96
81840,note_on,0,0,7,,,,,,,,,10,,,,76,111
81842,note_on,60,0,2,,,,,,,,,1,,,,74,0
81842,note_on,0,0,2,,,,,,,,,1,,,,76,82
81842,note_on,0,0,9,,,,,,,,,12,,,,58,101
81842,note_on,30,0,9,,,,,,,,,12,,,,57,0
81843,note_on,300,0,3,,,,,,,,,2,,,,67,0
81843,note_on,0,0,3,,,,,,,,,2,,,,70,0
81843,note_on,480,0,5,,,,,,,,,4,,,,60,82
81843,note_on,0,0,3,,,,,,,,,2,,,,67,96
81843,note_on,0,0,3,,,,,,,,,2,,,,64,96
81844,note_on,60,0,10,,,,,,,,,6,,,,48,0
81844,note_on,0,0,10,,,,,,,,,6,,,,46,31
81845,note_on,0,0,4,,,,,,,,,3,,,,55,0
81845,note_on,300,0,4,,,,,,,,,3,,,,58,0
81845,note_on,120,0,11,,,,,,,,,13,,,,48,0
81845,note_on,480,0,6,,,,,,,,,5,,,,60,82
81845,note_on,0,0,4,,,,,,,,,3,,,,55,95
81845,note_on,0,0,4,,,,,,,,,3,,,,52,95
81848,note_on,120,0,12,,,,,,,,,14,,,,36,0
81872,note_on,0,0,9,,,,,,,,,12,,,,55,101
81872,note_on,30,0,9,,,,,,,,,12,,,,58,0
81900,note_on,60,0,1,,,,,,,,,0,,,,79,0
81900,note_on,0,0,1,,,,,,,,,0,,,,82,0
81900,note_on,0,0,7,,,,,,,,,10,,,,77,111
81900,note_on,60,0,7,,,,,,,,,10,,,,76,0
81900,set_tempo,120,1,0,,,,,,1034483,,,,,,,,
81902,note_on,60,0,2,,,,,,,,,1,,,,76,0
81902,note_on,30,0,9,,,,,,,,,12,,,,55,0
81902,note_on,0,0,2,,,,,,,,,1,,,,77,82
81903,note_on,60,0,3,,,,,,,,,2,,,,64,0
81903,note_on,0,0,3,,,,,,,,,2,,,,67,0
81903,note_on,0,0,3,,,,,,,,,2,,,,65,96
81903,note_on,60,0,5,,,,,,,,,4,,,,60,0
81903,note_on,0,0,3,,,,,,,,,2,,,,69,96
81904,note_on,60,0,10,,,,,,,,,6,,,,46,0
81904,note_on,0,0,10,,,,,,,,,6,,,,45,31
81905,note_on,0,0,4,,,,,,,,,3,,,,57,95
81905,note_on,60,0,11,,,,,,,,,13,,,,41,43
81905,note_on,60,0,6,,,,,,,,,5,,,,60,0
81905,note_on,60,0,4,,,,,,,,,3,,,,55,0
81905,note_on,0,0,4,,,,,,,,,3,,,,52,0
81905,note_on,0,0,4,,,,,,,,,3,,,,53,95
81908,note_on,60,0,12,,,,,,,,,14,,,,29,36
81960,set_tempo,60,1,0,,,,,,937500,,,,,,,,
81962,note_on,60,0,9,,,,,,,,,12,,,,57,101
81964,note_on,0,0,10,,,,,,,,,6,,,,41,31
81964,note_on,60,0,10,,,,,,,,,6,,,,45,0
81992,note_on,30,0,9,,,,,,,,,12,,,,57,0
81992,note_on,0,0,9,,,,,,,,,12,,,,58,101
82018,note_on,115,0,3,,,,,,,,,2,,,,65,0
82018,note_on,0,0,3,,,,,,,,,2,,,,69,0
82020,note_on,120,0,7,,,,,,,,,10,,,,77,0
82020,note_on,0,0,4,,,,,,,,,3,,,,53,0
82020,note_on,115,0,4,,,,,,,,,3,,,,57,0
82020,note_on,120,0,1,,,,,,,,,0,,,,79,96
82020,note_on,0,0,1,,,,,,,,,0,,,,76,96
82020,note_on,0,0,7,,,,,,,,,10,,,,72,111
82022,note_on,120,0,2,,,,,,,,,1,,,,77,0
82022,note_on,0,0,9,,,,,,,,,12,,,,60,101
82022,note_on,0,0,2,,,,,,,,,1,,,,72,82
82022,note_on,30,0,9,,,,,,,,,12,,,,58,0
82023,note_on,0,0,3,,,,,,,,,2,,,,65,96
82023,note_on,120,0,5,,,,,,,,,4,,,,60,82
82023,note_on,5,0,3,,,,,,,,,2,,,,69,96
82024,note_on,60,0,10,,,,,,,,,6,,,,41,0
82024,note_on,0,0,10,,,,,,,,,6,,,,39,31
82025,note_on,120,0,11,,,,,,,,,13,,,,41,0
82025,note_on,0,0,4,,,,,,,,,3,,,,57,95
82025,note_on,120,0,6,,,,,,,,,5,,,,53,82
82025,note_on,5,0,4,,,,,,,,,3,,,,53,95
82028,note_on,120,0,12,,,,,,,,,14,,,,29,0
82052,note_on,0,0,9,,,,,,,,,12,,,,57,101
82052,note_on,30,0,9,,,,,,,,,12,,,,60,0
82075,note_on,55,0,7,,,,,,,,,10,,,,72,0
82077,note_on,55,0,2,,,,,,,,,1,,,,72,0
82078,note_on,55,0,3,,,,,,,,,2,,,,65,0
82078,note_on,0,0,3,,,,,,,,,2,,,,69,0
82080,note_on,55,0,4,,,,,,,,,3,,,,57,0
82080,note_on,0,0,4,,,,,,,,,3,,,,53,0
82080,note_on,5,0,7,,,,,,,,,10,,,,74,111
82080,note_on,60,0,1,,,,,,,,,0,,,,76,0
82080,note_on,0,0,1,,,,,,,,,0,,,,79,0
82080,set_tempo,120,1,0,,,,,,1000000,,,,,,,,
82082,note_on,30,0,9,,,,,,,,,12,,,,57,0
82082,note_on,5,0,2,,,,,,,,,1,,,,74,82
82083,note_on,60,0,5,,,,,,,,,4,,,,60,0
82083,note_on,0,0,3,,,,,,,,,2,,,,69,96
82083,note_on,5,0,3,,,,,,,,,2,,,,66,96
82084,note_on,0,0,10,,,,,,,,,6,,,,38,31
82084,note_on,60,0,10,,,,,,,,,6,,,,39,0
82085,note_on,5,0,4,,,,,,,,,3,,,,57,95
82085,note_on,0,0,4,,,,,,,,,3,,,,54,95
82085,note_on,60,0,11,,,,,,,,,13,,,,50,43
82085,note_on,60,0,6,,,,,,,,,5,,,,53,0
82088,note_on,60,0,12,,,,,,,,,14,,,,38,36
82140,set_tempo,60,1,0,,,,,,937500,,,,,,,,
82142,note_on,420,0,8,,,,,,,,,11,,,,66,103
82144,note_on,60,0,10,,,,,,,,,6,,,,38,0
82144,note_on,0,0,10,,,,,,,,,6,,,,62,31
82172,note_on,0,0,8,,,,,,,,,11,,,,67,103
82172,note_on,30,0,8,,,,,,,,,11,,,,66,0
82200,note_on,120,0,1,,,,,,,,,0,,,,81,96
82200,note_on,0,0,1,,,,,,,,,0,,,,78,96
82202,note_on,0,0,8,,,,,,,,,11,,,,69,103
82202,note_on,30,0,8,,,,,,,,,11,,,,67,0
82204,note_on,60,0,10,,,,,,,,,6,,,,62,0
82204,note_on,0,0,10,,,,,,,,,6,,,,60,31
82205,note_on,120,0,11,,,,,,,,,13,,,,50,0
82208,note_on,120,0,12,,,,,,,,,14,,,,38,0
82232,note_on,30,0,8,,,,,,,,,11,,,,69,0
82232,note_on,0,0,8,,,,,,,,,11,,,,66,103
82258,note_on,175,0,3,,,,,,,,,2,,,,69,0
82258,note_on,0,0,3,,,,,,,,,2,,,,66,0
82260,note_on,0,0,1,,,,,,,,,0,,,,81,0
82260,note_on,0,0,4,,,,,,,,,3,,,,57,0
82260,note_on,175,0,4,,,,,,,,,3,,,,54,0
82260,set_tempo,120,1,0,,,,,,1034483,,,,,,,,
82260,note_on,60,0,1,,,,,,,,,0,,,,78,0
82262,note_on,30,0,8,,,,,,,,,11,,,,66,0
82263,note_on,0,0,3,,,,,,,,,2,,,,70,96
82263,note_on,5,0,3,,,,,,,,,2,,,,67,96
82264,note_on,60,0,10,,,,,,,,,6,,,,60,0
82264,note_on,0,0,10,,,,,,,,,6,,,,58,31
82265,note_on,60,0,11,,,,,,,,,13,,,,43,43
82265,note_on,5,0,4,,,,,,,,,3,,,,58,95
82265,note_on,0,0,4,,,,,,,,,3,,,,55,95
82268,note_on,60,0,12,,,,,,,,,14,,,,31,36
82320,note_on,0,0,7,,,,,,,,,10,,,,72,111
82320,set_tempo,60,1,0,,,,,,937500,,,,,,,,
82320,note_on,240,0,7,,,,,,,,,10,,,,74,0
82322,note_on,0,0,2,,,,,,,,,1,,,,72,82
82322,note_on,240,0,2,,,,,,,,,1,,,,74,0
82322,note_on,60,0,8,,,,,,,,,11,,,,67,103
82324,note_on,60,0,10,,,,,,,,,6,,,,58,0
82324,note_on,0,0,10,,,,,,,,,6,,,,55,31
82352,note_on,0,0,8,,,,,,,,,11,,,,69,103
82352,note_on,30,0,8,,,,,,,,,11,,,,67,0
82380,note_on,120,0,1,,,,,,,,,0,,,,82,96
82380,note_on,0,0,1,,,,,,,,,0,,,,79,96
82380,note_on,60,0,7,,,,,,,,,10,,,,72,0
82380,note_on,0,0,7,,,,,,,,,10,,,,74,111
82382,note_on,0,0,2,,,,,,,,,1,,,,74,82
82382,note_on,60,0,2,,,,,,,,,1,,,,72,0
82382,note_on,30,0,8,,,,,,,,,11,,,,69,0
82382,note_on,0,0,8,,,,,,,,,11,,,,70,103
82384,note_on,60,0,10,,,,,,,,,6,,,,55,0
82384,note_on,0,0,10,,,,,,,,,6,,,,53,31
82385,note_on,120,0,11,,,,,,,,,13,,,,43,0
82388,note_on,120,0,12,,,,,,,,,14,,,,31,0
82412,note_on,0,0,8,,,,,,,,,11,,,,67,103
82412,note_on,30,0,8,,,,,,,,,11,,,,70,0
82440,note_on,60,0,1,,,,,,,,,0,,,,79,0
82440,note_on,0,0,7,,,,,,,,,10,,,,77,111
82440,note_on,0,0,1,,,,,,,,,0,,,,82,0
82440,set_tempo,120,1,0,,,,,,1034483,,,,,,,,
82440,note_on,60,0,7,,,,,,,,,10,,,,74,0
82442,note_on,30,0,8,,,,,,,,,11,,,,67,0
82442,note_on,60,0,2,,,,,,,,,1,,,,74,0
82442,note_on,0,0,2,,,,,,,,,1,,,,77,82
82444,note_on,60,0,10,,,,,,,,,6,,,,53,0
82444,note_on,0,0,10,,,,,,,,,6,,,,52,31
82445,note_on,60,0,11,,,,,,,,,13,,,,48,43
82448,note_on,60,0,12,,,,,,,,,14,,,,36,36
82450,note_on,0,0,7,,,,,,,,,10,,,,76,111
82450,note_on,10,0,7,,,,,,,,,10,,,,77,0
82452,note_on,10,0,2,,,,,,,,,1,,,,77,0
82452,note_on,0,0,2,,,,,,,,,1,,,,76,82
82500,set_tempo,60,1,0,,,,,,937500,,,,,,,,
82500,note_on,50,0,7,,,,,,,,,10,,,,76,0
82500,note_on,0,0,7,,,,,,,,,10,,,,74,111
82502,note_on,420,0,9,,,,,,,,,12,,,,55,101
82502,note_on,50,0,2,,,,,,,,,1,,,,76,0
82502,note_on,0,0,2,,,,,,,,,1,,,,74,82
82504,note_on,0,0,10,,,,,,,,,6,,,,48,31
82504,note_on,60,0,10,,,,,,,,,6,,,,52,0
82532,note_on,0,0,9,,,,,,,,,12,,,,57,101
82532,note_on,30,0,9,,,,,,,,,12,,,,55,0
82560,note_on,0,0,1,,,,,,,,,0,,,,79,96
82560,note_on,0,0,7,,,,,,,,,10,,,,76,111
82560,note_on,60,0,7,,,,,,,,,10,,,,74,0
82560,note_on,120,0,1,,,,,,,,,0,,,,82,96
82562,note_on,60,0,2,,,,,,,,,1,,,,74,0
82562,note_on,0,0,2,,,,,,,,,1,,,,76,82
82562,note_on,30,0,9,,,,,,,,,12,,,,57,0
82562,note_on,0,0,9,,,,,,,,,12,,,,58,101
82563,note_on,480,0,5,,,,,,,,,4,,,,60,82
82563,note_on,0,0,3,,,,,,,,,2,,,,67,0
82563,note_on,300,0,3,,,,,,,,,2,,,,70,0
82563,note_on,0,0,3,,,,,,,,,2,,,,64,96
82563,note_on,0,0,3,,,,,,,,,2,,,,67,96
82564,note_on,60,0,10,,,,,,,,,6,,,,48,0
82564,note_on,0,0,10,,,,,,,,,6,,,,46,31
82565,note_on,300,0,4,,,,,,,,,3,,,,55,0
82565,note_on,0,0,4,,,,,,,,,3,,,,58,0
82565,note_on,0,0,4,,,,,,,,,3,,,,55,95
82565,note_on,0,0,4,,,,,,,,,3,,,,52,95
82565,note_on,120,0,11,,,,,,,,,13,,,,48,0
82565,note_on,480,0,6,,,,,,,,,5,,,,60,82
82568,note_on,120,0,12,,,,,,,,,14,,,,36,0
82592,note_on,30,0,9,,,,,,,,,12,,,,58,0
82592,note_on,0,0,9,,,,,,,,,12,,,,55,101
82615,note_on,55,0,7,,,,,,,,,10,,,,76,0
82617,note_on,25,0,9,,,,,,,,,12,,,,55,0
82617,note_on,55,0,2,,,,,,,,,1,,,,76,0
82618,note_on,55,0,5,,,,,,,,,4,,,,60,0
82620,control_change,5,0,7,,,,,,,,,10,11,37,,,
82620,note_on,0,0,7,,,,,,,,,10,,,,77,111
82620,note_on,0,0,1,,,,,,,,,0,,,,82,0
82620,control_change,0,0,1,,,,,,,,,0,11,39,,,
82620,set_tempo,120,1,0,,,,,,1034483,,,,,,,,
82620,note_on,60,0,1,,,,,,,,,0,,,,79,0
82620,note_on,55,0,6,,,,,,,,,5,,,,60,0
82622,note_on,0,0,9,,,,,,,,,12,,,,65,101
82622,note_on,0,0,2,,,,,,,,,1,,,,77,82
82622,control_change,5,0,9,,,,,,,,,12,11,37,,,
82622,control_change,5,0,2,,,,,,,,,1,11,55,,,
82622,control_change,180,0,8,,,,,,,,,11,11,37,,,
82623,note_on,0,0,5,,,,,,,,,4,,,,60,82
82623,control_change,5,0,5,,,,,,,,,4,11,32,,,
82623,note_on,0,0,3,,,,,,,,,2,,,,64,0
82623,note_on,60,0,3,,,,,,,,,2,,,,67,0
82623,control_change,0,0,3,,,,,,,,,2,11,39,,,
82623,note_on,0,0,3,,,,,,,,,2,,,,65,96
82623,note_on,0,0,3,,,,,,,,,2,,,,69,96
82624,note_on,60,0,10,,,,,,,,,6,,,,46,0
82624,note_on,0,0,10,,,,,,,,,6,,,,45,31
82625,note_on,0,0,6,,,,,,,,,5,,,,53,82
82625,note_on,0,0,4,,,,,,,,,3,,,,53,95
82625,note_on,0,0,4,,,,,,,,,3,,,,55,0
82625,note_on,0,0,4,,,,,,,,,3,,,,45,95
82625,note_on,60,0,11,,,,,,,,,13,,,,41,43
82625,note_on,60,0,4,,,,,,,,,3,,,,52,0
82625,control_change,0,0,4,,,,,,,,,3,11,39,,,
82625,control_change,5,0,6,,,,,,,,,5,11,32,,,
82628,note_on,60,0,12,,,,,,,,,14,,,,29,36
82648,control_change,28,0,7,,,,,,,,,10,11,39,,,
82648,control_change,28,0,1,,,,,,,,,0,11,41,,,
82650,control_change,28,0,8,,,,,,,,,11,11,39,,,
82650,control_change,28,0,9,,,,,,,,,12,11,39,,,
82650,control_change,28,0,2,,,,,,,,,1,11,57,,,
82651,control_change,28,0,3,,,,,,,,,2,11,41,,,
82651,control_change,28,0,5,,,,,,,,,4,11,34,,,
82653,control_change,28,0,6,,,,,,,,,5,11,34,,,
82653,control_change,28,0,4,,,,,,,,,3,11,41,,,
82663,control_change,15,0,7,,,,,,,,,10,11,40,,,
82663,control_change,15,0,1,,,,,,,,,0,11,42,,,
82665,control_change,15,0,2,,,,,,,,,1,11,58,,,
82665,control_change,15,0,8,,,,,,,,,11,11,40,,,
82665,control_change,15,0,9,,,,,,,,,12,11,40,,,
82666,control_change,15,0,3,,,,,,,,,2,11,42,,,
82666,control_change,15,0,5,,,,,,,,,4,11,35,,,
82668,control_change,15,0,4,,,,,,,,,3,11,42,,,
82668,control_change,15,0,6,,,,,,,,,5,11,35,,,
82680,set_tempo,60,1,0,,,,,,937500,,,,,,,,
82684,note_on,0,0,10,,,,,,,,,6,,,,41,33
82684,note_on,60,0,10,,,,,,,,,6,,,,45,0
82692,control_change,29,0,7,,,,,,,,,10,11,42,,,
82692,control_change,29,0,1,,,,,,,,,0,11,43,,,
82694,control_change,29,0,9,,,,,,,,,12,11,42,,,
82694,control_change,29,0,2,,,,,,,,,1,11,60,,,
82694,control_change,29,0,8,,,,,,,,,11,11,42,,,
82695,control_change,29,0,5,,,,,,,,,4,11,37,,,
82695,control_change,29,0,3,,,,,,,,,2,11,43,,,
82697,control_change,29,0,4,,,,,,,,,3,11,43,,,
82697,control_change,29,0,6,,,,,,,,,5,11,37,,,
82720,control_change,28,0,1,,,,,,,,,0,11,45,,,
82720,control_change,28,0,7,,,,,,,,,10,11,44,,,
82722,control_change,28,0,9,,,,,,,,,12,11,44,,,
82722,control_change,28,0,2,,,,,,,,,1,11,61,,,
82722,control_change,28,0,8,,,,,,,,,11,11,44,,,
82723,control_change,28,0,5,,,,,,,,,4,11,39,,,
82723,control_change,28,0,3,,,,,,,,,2,11,45,,,
82725,control_change,28,0,4,,,,,,,,,3,11,45,,,
82725,control_change,28,0,6,,,,,,,,,5,11,39,,,
82735,control_change,15,0,7,,,,,,,,,10,11,45,,,
82735,control_change,15,0,1,,,,,,,,,0,11,45,,,
82737,control_change,15,0,2,,,,,,,,,1,11,62,,,
82737,control_change,15,0,8,,,,,,,,,11,11,45,,,
82737,control_change,15,0,9,,,,,,,,,12,11,45,,,
82738,note_on,15,0,5,,,,,,,,,4,,,,60,0
82738,control_change,0,0,5,,,,,,,,,4,11,40,,,
82738,note_on,0,0,3,,,,,,,,,2,,,,69,0
82738,note_on,15,0,3,,,,,,,,,2,,,,65,0
82738,control_change,0,0,3,,,,,,,,,2,11,45,,,
82740,note_on,0,0,4,,,,,,,,,3,,,,53,0
82740,note_on,0,0,7,,,,,,,,,10,,,,72,111
82740,control_change,0,0,4,,,,,,,,,3,11,45,,,
82740,note_on,0,0,1,,,,,,,,,0,,,,79,96
82740,note_on,15,0,4,,,,,,,,,3,,,,45,0
82740,note_on,5,0,1,,,,,,,,,0,,,,76,96
82740,control_change,0,0,6,,,,,,,,,5,11,40,,,
82740,note_on,15,0,6,,,,,,,,,5,,,,53,0
82740,note_on,5,0,7,,,,,,,,,10,,,,77,0
82742,note_on,5,0,9,,,,,,,,,12,,,,65,0
82742,note_on,5,0,2,,,,,,,,,1,,,,77,0
82742,note_on,0,0,9,,,,,,,,,12,,,,60,101
82742,note_on,0,0,2,,,,,,,,,1,,,,72,82
82743,note_on,0,0,3,,,,,,,,,2,,,,65,96
82743,note_on,5,0,5,,,,,,,,,4,,,,53,82
82743,note_on,5,0,3,,,,,,,,,2,,,,69,96
82744,note_on,60,0,10,,,,,,,,,6,,,,41,0
82744,note_on,0,0,10,,,,,,,,,6,,,,48,38
82745,note_on,5,0,6,,,,,,,,,5,,,,41,82
82745,note_on,5,0,4,,,,,,,,,3,,,,45,95
82745,note_on,0,0,4,,,,,,,,,3,,,,48,95
82745,note_on,120,0,11,,,,,,,,,13,,,,41,0
82748,note_on,120,0,12,,,,,,,,,14,,,,29,0
82764,control_change,24,0,1,,,,,,,,,0,11,47,,,
82764,control_change,24,0,7,,,,,,,,,10,11,47,,,
82766,control_change,24,0,9,,,,,,,,,12,11,47,,,
82766,control_change,29,0,8,,,,,,,,,11,11,47,,,
82766,control_change,24,0,2,,,,,,,,,1,11,64,,,
82767,control_change,24,0,5,,,,,,,,,4,11,42,,,
82767,control_change,24,0,3,,,,,,,,,2,11,47,,,
82769,control_change,24,0,4,,,,,,,,,3,11,47,,,
82769,control_change,24,0,6,,,,,,,,,5,11,42,,,
82792,control_change,28,0,1,,,,,,,,,0,11,49,,,
82792,control_change,28,0,7,,,,,,,,,10,11,49,,,
82794,control_change,28,0,8,,,,,,,,,11,11,49,,,
82794,control_change,28,0,9,,,,,,,,,12,11,49,,,
82794,control_change,28,0,2,,,,,,,,,1,11,65,,,
82795,control_change,28,0,5,,,,,,,,,4,11,44,,,
82795,control_change,28,0,3,,,,,,,,,2,11,49,,,
82797,control_change,28,0,4,,,,,,,,,3,11,49,,,
82797,control_change,28,0,6,,,,,,,,,5,11,44,,,
82798,note_on,0,0,3,,,,,,,,,2,,,,69,0
82798,note_on,3,0,3,,,,,,,,,2,,,,65,0
82798,note_on,3,0,5,,,,,,,,,4,,,,53,0
82800,note_on,0,0,7,,,,,,,,,10,,,,74,103
82800,note_on,8,0,7,,,,,,,,,10,,,,72,0
82800,note_on,3,0,4,,,,,,,,,3,,,,48,0
82800,note_on,3,0,6,,,,,,,,,5,,,,41,0
82800,note_on,0,0,4,,,,,,,,,3,,,,45,0
82800,set_tempo,120,1,0,,,,,,1000000,,,,,,,,
82800,note_on,0,0,1,,,,,,,,,0,,,,76,0
82800,note_on,8,0,1,,,,,,,,,0,,,,79,0
82802,note_on,8,0,9,,,,,,,,,12,,,,60,0
82802,note_on,8,0,2,,,,,,,,,1,,,,72,0
82802,note_on,0,0,9,,,,,,,,,12,,,,62,101
82802,note_on,0,0,2,,,,,,,,,1,,,,74,95
82803,note_on,0,0,3,,,,,,,,,2,,,,70,96
82803,note_on,5,0,3,,,,,,,,,2,,,,65,96
82803,note_on,5,0,5,,,,,,,,,4,,,,53,82
82804,note_on,0,0,10,,,,,,,,,6,,,,41,42
82804,note_on,60,0,10,,,,,,,,,6,,,,48,0
82805,note_on,5,0,4,,,,,,,,,3,,,,50,95
82805,note_on,5,0,6,,,,,,,,,5,,,,41,82
82805,note_on,60,0,11,,,,,,,,,13,,,,41,43
82805,note_on,0,0,4,,,,,,,,,3,,,,46,95
82807,control_change,7,0,7,,,,,,,,,10,11,50,,,
82807,control_change,7,0,1,,,,,,,,,0,11,50,,,
82808,note_on,60,0,12,,,,,,,,,14,,,,29,36
82809,control_change,7,0,9,,,,,,,,,12,11,50,,,
82809,control_change,7,0,2,,,,,,,,,1,11,66,,,
82809,control_change,15,0,8,,,,,,,,,11,11,50,,,
82810,control_change,7,0,5,,,,,,,,,4,11,45,,,
82810,control_change,7,0,3,,,,,,,,,2,11,50,,,
82812,control_change,7,0,4,,,,,,,,,3,11,50,,,
82812,control_change,7,0,6,,,,,,,,,5,11,45,,,
82836,control_change,29,0,7,,,,,,,,,10,11,52,,,
82836,control_change,29,0,1,,,,,,,,,0,11,52,,,
82838,control_change,29,0,2,,,,,,,,,1,11,68,,,
82838,control_change,29,0,8,,,,,,,,,11,11,52,,,
82838,control_change,29,0,9,,,,,,,,,12,11,52,,,
82839,control_change,29,0,3,,,,,,,,,2,11,52,,,
82839,control_change,29,0,5,,,,,,,,,4,11,47,,,
82841,control_change,29,0,4,,,,,,,,,3,11,52,,,
82841,control_change,29,0,6,,,,,,,,,5,11,47,,,
82860,set_tempo,60,1,0,,,,,,937500,,,,,,,,
82864,control_change,28,0,1,,,,,,,,,0,11,53,,,
82864,note_on,0,0,10,,,,,,,,,6,,,,46,47
82864,note_on,60,0,10,,,,,,,,,6,,,,41,0
82864,control_change,28,0,7,,,,,,,,,10,11,54,,,
82866,control_change,28,0,9,,,,,,,,,12,11,54,,,
82866,control_change,28,0,8,,,,,,,,,11,11,54,,,
82866,control_change,28,0,2,,,,,,,,,1,11,70,,,
82867,control_change,28,0,5,,,,,,,,,4,11,49,,,
82867,control_change,28,0,3,,,,,,,,,2,11,53,,,
82869,control_change,28,0,6,,,,,,,,,5,11,49,,,
82869,control_change,28,0,4,,,,,,,,,3,11,53,,,
82879,control_change,15,0,7,,,,,,,,,10,11,55,,,
82879,control_change,15,0,1,,,,,,,,,0,11,54,,,
82881,control_change,15,0,2,,,,,,,,,1,11,70,,,
82881,control_change,15,0,9,,,,,,,,,12,11,55,,,
82881,control_change,15,0,8,,,,,,,,,11,11,55,,,
82882,control_change,15,0,5,,,,,,,,,4,11,50,,,
82882,control_change,15,0,3,,,,,,,,,2,11,54,,,
82884,control_change,15,0,4,,,,,,,,,3,11,54,,,
82884,control_change,15,0,6,,,,,,,,,5,11,50,,,
82908,control_change,29,0,1,,,,,,,,,0,11,55,,,
82908,control_change,29,0,7,,,,,,,,,10,11,57,,,
82910,control_change,29,0,2,,,,,,,,,1,11,72,,,
82910,control_change,29,0,9,,,,,,,,,12,11,57,,,
82910,control_change,29,0,8,,,,,,,,,11,11,57,,,
82911,control_change,29,0,5,,,,,,,,,4,11,52,,,
82911,control_change,29,0,3,,,,,,,,,2,11,55,,,
82913,control_change,29,0,6,,,,,,,,,5,11,52,,,
82913,control_change,29,0,4,,,,,,,,,3,11,55,,,
82920,note_on,0,0,1,,,,,,,,,0,,,,77,96
82920,note_on,12,0,7,,,,,,,,,10,,,,74,0
82920,note_on,12,0,1,,,,,,,,,0,,,,82,96
82920,note_on,0,0,7,,,,,,,,,10,,,,70,103
82922,note_on,0,0,9,,,,,,,,,12,,,,58,101
82922,note_on,12,0,9,,,,,,,,,12,,,,62,0
82922,note_on,12,0,2,,,,,,,,,1,,,,74,0
82922,note_on,0,0,2,,,,,,,,,1,,,,70,95
82924,note_on,0,0,10,,,,,,,,,6,,,,50,49
82924,note_on,60,0,10,,,,,,,,,6,,,,46,0
82925,note_on,120,0,11,,,,,,,,,13,,,,41,0
82928,note_on,120,0,12,,,,,,,,,14,,,,29,0
82936,control_change,16,0,1,,,,,,,,,0,11,57,,,
82936,control_change,16,0,7,,,,,,,,,10,11,59,,,
82938,control_change,16,0,2,,,,,,,,,1,11,74,,,
82938,control_change,16,0,9,,,,,,,,,12,11,59,,,
82938,control_change,28,0,8,,,,,,,,,11,11,59,,,
82939,control_change,28,0,5,,,,,,,,,4,11,54,,,
82939,control_change,28,0,3,,,,,,,,,2,11,57,,,
82941,control_change,28,0,6,,,,,,,,,5,11,54,,,
82941,control_change,28,0,4,,,,,,,,,3,11,57,,,
82951,control_change,15,0,1,,,,,,,,,0,11,58,,,
82951,control_change,15,0,7,,,,,,,,,10,11,60,,,
82953,control_change,15,0,8,,,,,,,,,11,11,60,,,
82953,control_change,15,0,9,,,,,,,,,12,11,60,,,
82953,control_change,15,0,2,,,,,,,,,1,11,75,,,
82954,control_change,15,0,5,,,,,,,,,4,11,55,,,
82954,control_change,15,0,3,,,,,,,,,2,11,58,,,
82956,control_change,15,0,6,,,,,,,,,5,11,55,,,
82956,control_change,15,0,4,,,,,,,,,3,11,58,,,
82978,note_on,0,0,3,,,,,,,,,2,,,,65,0
82978,note_on,24,0,5,,,,,,,,,4,,,,53,0
82978,note_on,24,0,3,,,,,,,,,2,,,,70,0
82980,note_on,29,0,1,,,,,,,,,0,,,,77,0
82980,note_on,0,0,1,,,,,,,,,0,,,,82,0
82980,note_on,24,0,4,,,,,,,,,3,,,,46,0
82980,note_on,0,0,4,,,,,,,,,3,,,,50,0
82980,set_tempo,120,1,0,,,,,,1000000,,,,,,,,
82980,control_change,0,0,1,,,,,,,,,0,11,60,,,
82980,note_on,29,0,7,,,,,,,,,10,,,,70,0
82980,note_on,24,0,6,,,,,,,,,5,,,,41,0
82980,control_change,0,0,7,,,,,,,,,10,11,62,,,
82980,note_on,0,0,7,,,,,,,,,10,,,,65,103
82982,note_on,29,0,9,,,,,,,,,12,,,,58,0
82982,note_on,0,0,2,,,,,,,,,1,,,,65,95
82982,control_change,0,0,9,,,,,,,,,12,11,62,,,
82982,control_change,29,0,8,,,,,,,,,11,11,62,,,
82982,note_on,0,0,9,,,,,,,,,12,,,,53,101
82982,note_on,0,0,8,,,,,,,,,11,,,,77,103
82982,control_change,0,0,2,,,,,,,,,1,11,76,,,
82982,note_on,29,0,2,,,,,,,,,1,,,,70,0
82983,note_on,0,0,5,,,,,,,,,4,,,,53,82
82983,note_on,5,0,3,,,,,,,,,2,,,,69,96
82983,control_change,5,0,5,,,,,,,,,4,11,57,,,
82983,control_change,0,0,3,,,,,,,,,2,11,60,,,
82983,note_on,0,0,3,,,,,,,,,2,,,,65,96
82984,note_on,60,0,10,,,,,,,,,6,,,,50,0
82984,note_on,0,0,10,,,,,,,,,6,,,,41,54
82985,control_change,5,0,6,,,,,,,,,5,11,57,,,
82985,note_on,5,0,4,,,,,,,,,3,,,,48,95
82985,note_on,60,0,11,,,,,,,,,13,,,,41,59
82985,note_on,0,0,4,,,,,,,,,3,,,,51,95
82985,control_change,0,0,4,,,,,,,,,3,11,60,,,
82985,note_on,0,0,6,,,,,,,,,5,,,,41,82
82988,note_on,60,0,12,,,,,,,,,14,,,,29,52
83008,control_change,28,0,7,,,,,,,,,10,11,64,,,
83008,control_change,28,0,1,,,,,,,,,0,11,61,,,
83010,control_change,28,0,8,,,,,,,,,11,11,64,,,
83010,control_change,28,0,2,,,,,,,,,1,11,78,,,
83010,control_change,28,0,9,,,,,,,,,12,11,64,,,
83011,control_change,28,0,5,,,,,,,,,4,11,59,,,
83011,control_change,28,0,3,,,,,,,,,2,11,61,,,
83013,control_change,28,0,6,,,,,,,,,5,11,59,,,
83013,control_change,28,0,4,,,,,,,,,3,11,61,,,
83023,control_change,15,0,1,,,,,,,,,0,11,62,,,
83023,control_change,15,0,7,,,,,,,,,10,11,65,,,
83025,control_change,15,0,9,,,,,,,,,12,11,65,,,
83025,control_change,15,0,2,,,,,,,,,1,11,79,,,
83025,control_change,15,0,8,,,,,,,,,11,11,65,,,
83026,control_change,15,0,3,,,,,,,,,2,11,62,,,
83026,control_change,15,0,5,,,,,,,,,4,11,60,,,
83028,control_change,15,0,4,,,,,,,,,3,11,62,,,
83028,control_change,15,0,6,,,,,,,,,5,11,60,,,
83040,set_tempo,60,1,0,,,,,,923077,,,,,,,,
83044,note_on,60,0,10,,,,,,,,,6,,,,41,0
83044,note_on,0,0,10,,,,,,,,,6,,,,48,57
83052,control_change,29,0,1,,,,,,,,,0,11,64,,,
83052,control_change,29,0,7,,,,,,,,,10,11,67,,,
83054,control_change,29,0,2,,,,,,,,,1,11,80,,,
83054,control_change,29,0,9,,,,,,,,,12,11,67,,,
83054,control_change,29,0,8,,,,,,,,,11,11,67,,,
83055,control_change,29,0,3,,,,,,,,,2,11,64,,,
83055,control_change,29,0,5,,,,,,,,,4,11,62,,,
83057,control_change,29,0,6,,,,,,,,,5,11,62,,,
83057,control_change,29,0,4,,,,,,,,,3,11,64,,,
83080,control_change,28,0,7,,,,,,,,,10,11,69,,,
83080,control_change,28,0,1,,,,,,,,,0,11,65,,,
83082,control_change,28,0,8,,,,,,,,,11,11,69,,,
83082,control_change,28,0,2,,,,,,,,,1,11,82,,,
83082,control_change,28,0,9,,,,,,,,,12,11,69,,,
83083,control_change,28,0,3,,,,,,,,,2,11,65,,,
83083,control_change,28,0,5,,,,,,,,,4,11,64,,,
83085,control_change,28,0,4,,,,,,,,,3,11,65,,,
83085,control_change,28,0,6,,,,,,,,,5,11,64,,,
83095,control_change,15,0,1,,,,,,,,,0,11,66,,,
83095,control_change,15,0,7,,,,,,,,,10,11,70,,,
83097,control_change,15,0,9,,,,,,,,,12,11,70,,,
83097,control_change,15,0,8,,,,,,,,,11,11,70,,,
83097,control_change,15,0,2,,,,,,,,,1,11,83,,,
83098,control_change,0,0,5,,,,,,,,,4,11,65,,,
83098,control_change,0,0,3,,,,,,,,,2,11,66,,,
83098,note_on,0,0,3,,,,,,,,,2,,,,69,0
83098,note_on,15,0,3,,,,,,,,,2,,,,65,0
83098,note_on,15,0,5,,,,,,,,,4,,,,53,0
83100,note_on,5,0,7,,,,,,,,,10,,,,65,0
83100,note_on,15,0,6,,,,,,,,,5,,,,41,0
83100,control_change,0,0,6,,,,,,,,,5,11,65,,,
83100,control_change,0,0,4,,,,,,,,,3,11,66,,,
83100,note_on,0,0,4,,,,,,,,,3,,,,48,0
83100,note_on,0,0,7,,,,,,,,,10,,,,69,103
83100,note_on,5,0,1,,,,,,,,,0,,,,81,96
83100,note_on,0,0,1,,,,,,,,,0,,,,77,96
83100,note_on,15,0,4,,,,,,,,,3,,,,51,0
83102,note_on,0,0,8,,,,,,,,,11,,,,72,103
83102,note_on,5,0,8,,,,,,,,,11,,,,77,0
83102,note_on,5,0,9,,,,,,,,,12,,,,53,0
83102,note_on,0,0,9,,,,,,,,,12,,,,57,101
83102,note_on,0,0,2,,,,,,,,,1,,,,69,95
83102,note_on,5,0,2,,,,,,,,,1,,,,65,0
83103,note_on,5,0,5,,,,,,,,,4,,,,53,82
83103,note_on,0,0,3,,,,,,,,,2,,,,65,96
83103,note_on,5,0,3,,,,,,,,,2,,,,69,96
83104,note_on,60,0,10,,,,,,,,,6,,,,48,0
83104,note_on,0,0,10,,,,,,,,,6,,,,51,62
83105,note_on,5,0,6,,,,,,,,,5,,,,41,82
83105,note_on,120,0,11,,,,,,,,,13,,,,41,0
83105,note_on,5,0,4,,,,,,,,,3,,,,51,95
83105,note_on,0,0,4,,,,,,,,,3,,,,48,95
83108,note_on,120,0,12,,,,,,,,,14,,,,29,0
83124,control_change,24,0,7,,,,,,,,,10,11,72,,,
83124,control_change,24,0,1,,,,,,,,,0,11,68,,,
83126,control_change,24,0,9,,,,,,,,,12,11,72,,,
83126,control_change,24,0,2,,,,,,,,,1,11,85,,,
83126,control_change,24,0,8,,,,,,,,,11,11,72,,,
83127,control_change,24,0,3,,,,,,,,,2,11,68,,,
83127,control_change,24,0,5,,,,,,,,,4,11,67,,,
83129,control_change,24,0,6,,,,,,,,,5,11,67,,,
83129,control_change,24,0,4,,,,,,,,,3,11,68,,,
83152,control_change,28,0,7,,,,,,,,,10,11,74,,,
83152,control_change,28,0,1,,,,,,,,,0,11,70,,,
83154,control_change,28,0,8,,,,,,,,,11,11,74,,,
83154,control_change,28,0,9,,,,,,,,,12,11,74,,,
83154,control_change,28,0,2,,,,,,,,,1,11,86,,,
83155,control_change,28,0,5,,,,,,,,,4,11,69,,,
83155,control_change,28,0,3,,,,,,,,,2,11,70,,,
83157,control_change,28,0,4,,,,,,,,,3,11,70,,,
83157,control_change,28,0,6,,,,,,,,,5,11,69,,,
83158,note_on,3,0,3,,,,,,,,,2,,,,65,0
83158,note_on,3,0,5,,,,,,,,,4,,,,53,0
83158,note_on,0,0,3,,,,,,,,,2,,,,69,0
83160,note_on,0,0,4,,,,,,,,,3,,,,51,0
83160,note_on,3,0,4,,,,,,,,,3,,,,48,0
83160,note_on,8,0,1,,,,,,,,,0,,,,77,0
83160,note_on,0,0,1,,,,,,,,,0,,,,81,0
83160,set_tempo,120,1,0,,,,,,991736,,,,,,,,
83160,note_on,0,0,7,,,,,,,,,10,,,,70,103
83160,note_on,8,0,7,,,,,,,,,10,,,,69,0
83160,note_on,3,0,6,,,,,,,,,5,,,,41,0
83162,note_on,0,0,8,,,,,,,,,11,,,,74,103
83162,note_on,0,0,9,,,,,,,,,12,,,,58,101
83162,note_on,8,0,9,,,,,,,,,12,,,,57,0
83162,note_on,8,0,2,,,,,,,,,1,,,,69,0
83162,note_on,8,0,8,,,,,,,,,11,,,,72,0
83162,note_on,0,0,2,,,,,,,,,1,,,,70,95
83163,note_on,5,0,5,,,,,,,,,4,,,,53,82
83163,note_on,0,0,3,,,,,,,,,2,,,,70,96
83163,note_on,5,0,3,,,,,,,,,2,,,,65,96
83164,note_on,0,0,10,,,,,,,,,6,,,,41,66
83164,note_on,60,0,10,,,,,,,,,6,,,,51,0
83165,note_on,5,0,4,,,,,,,,,3,,,,50,95
83165,note_on,0,0,4,,,,,,,,,3,,,,46,95
83165,note_on,60,0,11,,,,,,,,,13,,,,41,75
83165,note_on,5,0,6,,,,,,,,,5,,,,41,82
83167,control_change,7,0,1,,,,,,,,,0,11,70,,,
83167,control_change,7,0,7,,,,,,,,,10,11,75,,,
83168,note_on,60,0,12,,,,,,,,,14,,,,29,70
83169,control_change,7,0,2,,,,,,,,,1,11,87,,,
83169,control_change,7,0,9,,,,,,,,,12,11,75,,,
83169,control_change,7,0,8,,,,,,,,,11,11,75,,,
83170,control_change,7,0,3,,,,,,,,,2,11,70,,,
83170,control_change,7,0,5,,,,,,,,,4,11,70,,,
83172,control_change,7,0,4,,,,,,,,,3,11,70,,,
83172,control_change,7,0,6,,,,,,,,,5,11,70,,,
83196,control_change,29,0,1,,,,,,,,,0,11,72,,,
83196,control_change,29,0,7,,,,,,,,,10,11,77,,,
83198,control_change,29,0,8,,,,,,,,,11,11,77,,,
83198,control_change,29,0,9,,,,,,,,,12,11,77,,,
83198,control_change,29,0,2,,,,,,,,,1,11,89,,,
83199,control_change,29,0,3,,,,,,,,,2,11,72,,,
83199,control_change,29,0,5,,,,,,,,,4,11,72,,,
83201,control_change,29,0,4,,,,,,,,,3,11,72,,,
83201,control_change,29,0,6,,,,,,,,,5,11,72,,,
83220,set_tempo,60,1,0,,,,,,916031,,,,,,,,
83224,control_change,28,0,1,,,,,,,,,0,11,74,,,
83224,note_on,60,0,10,,,,,,,,,6,,,,41,0
83224,note_on,0,0,10,,,,,,,,,6,,,,46,70
83224,control_change,28,0,7,,,,,,,,,10,11,79,,,
83226,control_change,28,0,8,,,,,,,,,11,11,79,,,
83226,control_change,28,0,9,,,,,,,,,12,11,79,,,
83226,control_change,28,0,2,,,,,,,,,1,11,90,,,
83227,control_change,28,0,3,,,,,,,,,2,11,74,,,
83227,control_change,28,0,5,,,,,,,,,4,11,74,,,
83229,control_change,28,0,4,,,,,,,,,3,11,74,,,
83229,control_change,28,0,6,,,,,,,,,5,11,74,,,
83239,control_change,15,0,1,,,,,,,,,0,11,75,,,
83239,control_change,15,0,7,,,,,,,,,10,11,80,,,
83241,control_change,15,0,9,,,,,,,,,12,11,80,,,
83241,control_change,15,0,2,,,,,,,,,1,11,91,,,
83241,control_change,15,0,8,,,,,,,,,11,11,80,,,
83242,control_change,15,0,3,,,,,,,,,2,11,75,,,
83242,control_change,15,0,5,,,,,,,,,4,11,75,,,
83244,control_change,15,0,6,,,,,,,,,5,11,75,,,
83244,control_change,15,0,4,,,,,,,,,3,11,75,,,
83268,control_change,29,0,7,,,,,,,,,10,11,82,,,
83268,control_change,29,0,1,,,,,,,,,0,11,76,,,
83270,control_change,29,0,9,,,,,,,,,12,11,82,,,
83270,control_change,29,0,8,,,,,,,,,11,11,82,,,
83270,control_change,29,0,2,,,,,,,,,1,11,93,,,
83271,control_change,29,0,3,,,,,,,,,2,11,76,,,
83271,control_change,29,0,5,,,,,,,,,4,11,77,,,
83273,control_change,29,0,4,,,,,,,,,3,11,76,,,
83273,control_change,29,0,6,,,,,,,,,5,11,77,,,
83280,note_on,12,0,7,,,,,,,,,10,,,,70,0
83280,note_on,0,0,7,,,,,,,,,10,,,,74,103
83280,note_on,12,0,1,,,,,,,,,0,,,,77,96
83280,note_on,0,0,1,,,,,,,,,0,,,,82,96
83282,note_on,12,0,8,,,,,,,,,11,,,,74,0
83282,note_on,0,0,9,,,,,,,,,12,,,,62,101
83282,note_on,0,0,2,,,,,,,,,1,,,,74,95
83282,note_on,12,0,9,,,,,,,,,12,,,,58,0
83282,note_on,0,0,8,,,,,,,,,11,,,,70,103
83282,note_on,12,0,2,,,,,,,,,1,,,,70,0
83284,note_on,0,0,10,,,,,,,,,6,,,,50,74
83284,note_on,60,0,10,,,,,,,,,6,,,,46,0
83285,note_on,120,0,11,,,,,,,,,13,,,,41,0
83288,note_on,120,0,12,,,,,,,,,14,,,,29,0
83296,control_change,16,0,1,,,,,,,,,0,11,78,,,
83296,control_change,16,0,7,,,,,,,,,10,11,84,,,
83298,control_change,16,0,9,,,,,,,,,12,11,84,,,
83298,control_change,16,0,2,,,,,,,,,1,11,95,,,
83298,control_change,16,0,8,,,,,,,,,11,11,84,,,
83299,control_change,28,0,5,,,,,,,,,4,11,79,,,
83299,control_change,28,0,3,,,,,,,,,2,11,78,,,
83301,control_change,28,0,6,,,,,,,,,5,11,79,,,
83301,control_change,28,0,4,,,,,,,,,3,11,78,,,
83311,control_change,15,0,1,,,,,,,,,0,11,79,,,
83311,control_change,15,0,7,,,,,,,,,10,11,85,,,
83313,control_change,15,0,8,,,,,,,,,11,11,85,,,
83313,control_change,15,0,9,,,,,,,,,12,11,85,,,
83313,control_change,15,0,2,,,,,,,,,1,11,96,,,
83314,control_change,15,0,5,,,,,,,,,4,11,80,,,
83314,control_change,15,0,3,,,,,,,,,2,11,79,,,
83316,control_change,15,0,4,,,,,,,,,3,11,79,,,
83316,control_change,15,0,6,,,,,,,,,5,11,80,,,
83335,note_on,0,0,1,,,,,,,,,0,,,,77,0
83335,note_on,24,0,1,,,,,,,,,0,,,,82,0
83337,note_on,24,0,8,,,,,,,,,11,,,,70,0
83337,note_on,24,0,9,,,,,,,,,12,,,,62,0
83338,note_on,0,0,3,,,,,,,,,2,,,,65,0
83338,note_on,24,0,3,,,,,,,,,2,,,,70,0
83338,note_on,24,0,5,,,,,,,,,4,,,,53,0
83340,note_on,0,0,1,,,,,,,,,0,,,,81,96
83340,note_on,0,0,1,,,,,,,,,0,,,,84,96
83340,note_on,24,0,6,,,,,,,,,5,,,,41,0
83340,control_change,5,0,1,,,,,,,,,0,11,80,,,
83340,note_on,29,0,7,,,,,,,,,10,,,,74,0
83340,note_on,24,0,4,,,,,,,,,3,,,,46,0
83340,note_on,0,0,4,,,,,,,,,3,,,,50,0
83340,note_on,0,0,7,,,,,,,,,10,,,,77,103
83340,control_change,0,0,7,,,,,,,,,10,11,87,,,
83340,set_tempo,120,1,0,,,,,,991736,,,,,,,,
83342,note_on,0,0,8,,,,,,,,,11,,,,65,78
83342,control_change,5,0,8,,,,,,,,,11,11,87,,,
83342,note_on,29,0,2,,,,,,,,,1,,,,74,0
83342,note_on,0,0,2,,,,,,,,,1,,,,77,95
83342,note_on,0,0,2,,,,,,,,,1,,,,69,95
83342,control_change,0,0,2,,,,,,,,,1,11,97,,,
83342,note_on,0,0,9,,,,,,,,,12,,,,60,76
83342,control_change,5,0,9,,,,,,,,,12,11,87,,,
83343,control_change,5,0,5,,,,,,,,,4,11,82,,,
83343,control_change,5,0,3,,,,,,,,,2,11,80,,,
83343,note_on,0,0,3,,,,,,,,,2,,,,69,96
83343,note_on,0,0,5,,,,,,,,,4,,,,65,82
83343,program_change,59,0,10,,,,,,,,42,6,,,,,
83343,note_on,0,0,3,,,,,,,,,2,,,,65,96
83344,note_on,1,0,10,,,,,,,,,6,,,,50,0
83344,control_change,0,0,10,,,,,,,,,6,11,47,,,
83344,note_on,0,0,10,,,,,,,,,6,,,,45,62
83344,note_on,0,0,10,,,,,,,,,6,,,,41,62
83345,note_on,0,0,4,,,,,,,,,3,,,,48,95
83345,control_change,5,0,4,,,,,,,,,3,11,80,,,
83345,note_on,60,0,11,,,,,,,,,13,,,,41,92
83345,note_on,5,0,6,,,,,,,,,5,,,,53,82
83345,control_change,0,0,6,,,,,,,,,5,11,82,,,
83345,note_on,0,0,4,,,,,,,,,3,,,,45,95
83348,note_on,60,0,12,,,,,,,,,14,,,,29,87
83372,note_on,30,0,8,,,,,,,,,11,,,,65,0
83372,note_on,30,0,9,,,,,,,,,12,,,,60,0
83372,note_on,0,0,9,,,,,,,,,12,,,,57,76
83372,note_on,0,0,8,,,,,,,,,11,,,,60,78
83374,note_on,30,0,10,,,,,,,,,6,,,,41,0
83374,note_on,0,0,10,,,,,,,,,6,,,,45,0
83374,note_on,0,0,10,,,,,,,,,6,,,,48,62
83374,note_on,0,0,10,,,,,,,,,6,,,,45,62
83400,set_tempo,60,1,0,,,,,,909091,,,,,,,,
83402,note_on,30,0,8,,,,,,,,,11,,,,60,0
83402,note_on,0,0,9,,,,,,,,,12,,,,60,76
83402,note_on,30,0,9,,,,,,,,,12,,,,57,0
83402,note_on,0,0,8,,,,,,,,,11,,,,65,78
83404,note_on,0,0,10,,,,,,,,,6,,,,45,62
83404,note_on,0,0,10,,,,,,,,,6,,,,41,62
83404,note_on,0,0,10,,,,,,,,,6,,,,48,0
83404,note_on,30,0,10,,,,,,,,,6,,,,45,0
83432,note_on,0,0,8,,,,,,,,,11,,,,60,78
83432,note_on,30,0,8,,,,,,,,,11,,,,65,0
83432,note_on,30,0,9,,,,,,,,,12,,,,60,0
83432,note_on,0,0,9,,,,,,,,,12,,,,57,76
83434,note_on,0,0,10,,,,,,,,,6,,,,45,62
83434,note_on,0,0,10,,,,,,,,,6,,,,48,62
83434,note_on,0,0,10,,,,,,,,,6,,,,41,0
83434,note_on,30,0,10,,,,,,,,,6,,,,45,0
83455,note_on,115,0,1,,,,,,,,,0,,,,81,0
83455,note_on,0,0,1,,,,,,,,,0,,,,84,0
83458,note_on,115,0,3,,,,,,,,,2,,,,65,0
83458,note_on,0,0,3,,,,,,,,,2,,,,69,0
83458,note_on,115,0,5,,,,,,,,,4,,,,65,0
83460,note_on,115,0,4,,,,,,,,,3,,,,45,0
83460,note_on,120,0,7,,,,,,,,,10,,,,77,0
83460,note_on,0,0,7,,,,,,,,,10,,,,72,103
83460,note_on,5,0,1,,,,,,,,,0,,,,81,96
83460,note_on,0,0,1,,,,,,,,,0,,,,84,96
83460,note_on,115,0,6,,,,,,,,,5,,,,53,0
83460,note_on,0,0,4,,,,,,,,,3,,,,48,0
83462,note_on,0,0,2,,,,,,,,,1,,,,69,95
83462,note_on,0,0,2,,,,,,,,,1,,,,72,95
83462,note_on,30,0,9,,,,,,,,,12,,,,57,0
83462,note_on,0,0,2,,,,,,,,,1,,,,69,0
83462,note_on,0,0,8,,,,,,,,,11,,,,65,78
83462,note_on,0,0,9,,,,,,,,,12,,,,60,76
83462,note_on,30,0,8,,,,,,,,,11,,,,60,0
83462,note_on,120,0,2,,,,,,,,,1,,,,77,0
83463,note_on,5,0,3,,,,,,,,,2,,,,65,96
83463,note_on,0,0,3,,,,,,,,,2,,,,69,96
83463,note_on,5,0,5,,,,,,,,,4,,,,60,82
83464,note_on,30,0,10,,,,,,,,,6,,,,45,0
83464,note_on,0,0,10,,,,,,,,,6,,,,48,0
83464,note_on,0,0,10,,,,,,,,,6,,,,41,62
83464,note_on,0,0,10,,,,,,,,,6,,,,45,62
83465,note_on,5,0,4,,,,,,,,,3,,,,48,95
83465,note_on,5,0,6,,,,,,,,,5,,,,53,82
83465,note_on,120,0,11,,,,,,,,,13,,,,41,0
83465,note_on,0,0,4,,,,,,,,,3,,,,45,95
83468,note_on,120,0,12,,,,,,,,,14,,,,29,0
83492,note_on,0,0,9,,,,,,,,,12,,,,57,76
83492,note_on,30,0,9,,,,,,,,,12,,,,60,0
83492,note_on,0,0,8,,,,,,,,,11,,,,60,78
83492,note_on,30,0,8,,,,,,,,,11,,,,65,0
83494,note_on,0,0,10,,,,,,,,,6,,,,48,62
83494,note_on,30,0,10,,,,,,,,,6,,,,45,0
83494,note_on,0,0,10,,,,,,,,,6,,,,41,0
83494,note_on,0,0,10,,,,,,,,,6,,,,45,62
83515,note_on,0,0,1,,,,,,,,,0,,,,81,0
83515,note_on,55,0,1,,,,,,,,,0,,,,84,0
83515,note_on,55,0,7,,,,,,,,,10,,,,72,0
83517,note_on,0,0,2,,,,,,,,,1,,,,69,0
83517,note_on,55,0,2,,,,,,,,,1,,,,72,0
83517,note_on,25,0,8,,,,,,,,,11,,,,60,0
83517,note_on,25,0,9,,,,,,,,,12,,,,57,0
83518,note_on,55,0,3,,,,,,,,,2,,,,69,0
83518,note_on,55,0,5,,,,,,,,,4,,,,60,0
83518,note_on,0,0,3,,,,,,,,,2,,,,65,0
83519,note_on,0,0,10,,,,,,,,,6,,,,48,0
83519,note_on,25,0,10,,,,,,,,,6,,,,45,0
83520,note_on,0,0,4,,,,,,,,,3,,,,48,0
83520,note_on,0,0,1,,,,,,,,,0,,,,82,96
83520,note_on,5,0,1,,,,,,,,,0,,,,86,96
83520,note_on,5,0,7,,,,,,,,,10,,,,74,103
83520,note_on,55,0,6,,,,,,,,,5,,,,53,0
83520,set_tempo,120,1,0,,,,,,1000000,,,,,,,,
83520,note_on,55,0,4,,,,,,,,,3,,,,45,0
83522,note_on,5,0,8,,,,,,,,,11,,,,65,78
83522,note_on,5,0,9,,,,,,,,,12,,,,62,76
83522,note_on,5,0,2,,,,,,,,,1,,,,70,95
83522,note_on,0,0,2,,,,,,,,,1,,,,74,95
83523,note_on,0,0,3,,,,,,,,,2,,,,65,96
83523,note_on,5,0,3,,,,,,,,,2,,,,70,96
83523,note_on,5,0,5,,,,,,,,,4,,,,62,82
83524,note_on,5,0,10,,,,,,,,,6,,,,50,62
83524,program_change,59,0,11,,,,,,,,48,13,,,,,
83524,note_on,0,0,10,,,,,,,,,6,,,,46,62
83525,note_on,0,0,11,,,,,,,,,13,,,,41,100
83525,note_on,5,0,6,,,,,,,,,5,,,,58,82
83525,note_on,5,0,4,,,,,,,,,3,,,,46,95
83525,note_on,0,0,4,,,,,,,,,3,,,,50,95
83525,control_change,1,0,11,,,,,,,,,13,11,87,,,
83527,program_change,59,0,12,,,,,,,,48,14,,,,,
83528,control_change,1,0,12,,,,,,,,,14,11,87,,,
83528,note_on,0,0,12,,,,,,,,,14,,,,29,96
83552,note_on,0,0,9,,,,,,,,,12,,,,58,76
83552,note_on,30,0,9,,,,,,,,,12,,,,62,0
83552,note_on,30,0,8,,,,,,,,,11,,,,65,0
83552,note_on,0,0,8,,,,,,,,,11,,,,62,78
83554,note_on,30,0,10,,,,,,,,,6,,,,46,0
83554,note_on,0,0,10,,,,,,,,,6,,,,41,62
83554,note_on,0,0,10,,,,,,,,,6,,,,46,62
83554,note_on,0,0,10,,,,,,,,,6,,,,50,0
83578,note_on,55,0,5,,,,,,,,,4,,,,62,0
83580,note_on,55,0,11,,,,,,,,,13,,,,41,0
83580,set_tempo,60,1,0,,,,,,909091,,,,,,,,
83580,note_on,55,0,6,,,,,,,,,5,,,,58,0
83580,note_on,55,0,4,,,,,,,,,3,,,,46,0
83582,note_on,0,0,9,,,,,,,,,12,,,,62,76
83582,note_on,0,0,8,,,,,,,,,11,,,,65,78
83582,note_on,30,0,8,,,,,,,,,11,,,,62,0
83582,note_on,30,0,9,,,,,,,,,12,,,,58,0
83583,note_on,5,0,5,,,,,,,,,4,,,,58,82
83583,note_on,55,0,12,,,,,,,,,14,,,,29,0
83584,note_on,0,0,10,,,,,,,,,6,,,,46,62
83584,note_on,0,0,10,,,,,,,,,6,,,,50,62
83584,note_on,30,0,10,,,,,,,,,6,,,,41,0
83584,note_on,0,0,10,,,,,,,,,6,,,,46,0
83585,note_on,5,0,11,,,,,,,,,13,,,,41,100
83585,note_on,5,0,6,,,,,,,,,5,,,,50,82
83585,note_on,5,0,4,,,,,,,,,3,,,,41,95
83588,note_on,5,0,12,,,,,,,,,14,,,,29,96
83612,note_on,30,0,9,,,,,,,,,12,,,,62,0
83612,note_on,0,0,9,,,,,,,,,12,,,,58,76
83612,note_on,0,0,8,,,,,,,,,11,,,,62,78
83612,note_on,30,0,8,,,,,,,,,11,,,,65,0
83614,note_on,30,0,10,,,,,,,,,6,,,,46,0
83614,note_on,0,0,10,,,,,,,,,6,,,,50,0
83614,note_on,0,0,10,,,,,,,,,6,,,,46,62
83614,note_on,0,0,10,,,,,,,,,6,,,,41,62
83638,note_on,55,0,5,,,,,,,,,4,,,,58,0
83640,note_on,0,0,7,,,,,,,,,10,,,,70,103
83640,note_on,55,0,11,,,,,,,,,13,,,,41,0
83640,note_on,120,0,7,,,,,,,,,10,,,,74,0
83640,note_on,55,0,4,,,,,,,,,3,,,,41,0
83640,note_on,55,0,6,,,,,,,,,5,,,,50,0
83642,note_on,30,0,8,,,,,,,,,11,,,,62,0
83642,note_on,0,0,9,,,,,,,,,12,,,,62,76
83642,note_on,30,0,9,,,,,,,,,12,,,,58,0
83642,note_on,0,0,8,,,,,,,,,11,,,,65,78
83643,note_on,0,0,3,,,,,,,,,2,,,,58,96
83643,note_on,0,0,3,,,,,,,,,2,,,,70,0
83643,note_on,0,0,3,,,,,,,,,2,,,,70,96
83643,note_on,55,0,12,,,,,,,,,14,,,,29,0
83643,note_on,120,0,3,,,,,,,,,2,,,,65,0
83643,note_on,5,0,5,,,,,,,,,4,,,,58,82
83644,note_on,0,0,10,,,,,,,,,6,,,,50,62
83644,note_on,0,0,10,,,,,,,,,6,,,,46,62
83644,note_on,0,0,10,,,,,,,,,6,,,,46,0
83644,note_on,30,0,10,,,,,,,,,6,,,,41,0
83645,note_on,5,0,11,,,,,,,,,13,,,,41,100
83645,note_on,0,0,4,,,,,,,,,3,,,,41,95
83645,note_on,0,0,4,,,,,,,,,3,,,,46,95
83645,note_on,5,0,6,,,,,,,,,5,,,,50,82
83645,note_on,5,0,4,,,,,,,,,3,,,,50,0
83648,note_on,5,0,12,,,,,,,,,14,,,,29,96
83672,note_on,30,0,9,,,,,,,,,12,,,,62,0
83672,note_on,0,0,9,,,,,,,,,12,,,,58,76
83672,note_on,0,0,8,,,,,,,,,11,,,,62,78
83672,note_on,30,0,8,,,,,,,,,11,,,,65,0
83674,note_on,0,0,10,,,,,,,,,6,,,,46,62
83674,note_on,30,0,10,,,,,,,,,6,,,,46,0
83674,note_on,0,0,10,,,,,,,,,6,,,,41,62
83674,note_on,0,0,10,,,,,,,,,6,,,,50,0
83698,note_on,55,0,5,,,,,,,,,4,,,,58,0
83700,note_on,55,0,6,,,,,,,,,5,,,,50,0
83700,note_on,55,0,4,,,,,,,,,3,,,,41,0
83700,note_on,55,0,11,,,,,,,,,13,,,,41,0
83700,note_on,0,0,7,,,,,,,,,10,,,,65,103
83700,note_on,60,0,7,,,,,,,,,10,,,,70,0
83700,set_tempo,120,1,0,,,,,,975610,,,,,,,,
83702,note_on,30,0,8,,,,,,,,,11,,,,62,0
83702,note_on,0,0,9,,,,,,,,,12,,,,62,76
83702,note_on,30,0,9,,,,,,,,,12,,,,58,0
83702,note_on,0,0,8,,,,,,,,,11,,,,65,78
83703,note_on,55,0,12,,,,,,,,,14,,,,29,0
83703,note_on,0,0,3,,,,,,,,,2,,,,65,96
83703,note_on,0,0,3,,,,,,,,,2,,,,53,96
83703,note_on,0,0,3,,,,,,,,,2,,,,70,0
83703,note_on,60,0,3,,,,,,,,,2,,,,58,0
83703,note_on,5,0,5,,,,,,,,,4,,,,58,82
83704,note_on,30,0,10,,,,,,,,,6,,,,46,0
83704,note_on,0,0,10,,,,,,,,,6,,,,41,0
83704,note_on,0,0,10,,,,,,,,,6,,,,50,62
83704,note_on,0,0,10,,,,,,,,,6,,,,46,62
83705,note_on,0,0,4,,,,,,,,,3,,,,41,95
83705,note_on,5,0,4,,,,,,,,,3,,,,46,0
83705,note_on,5,0,6,,,,,,,,,5,,,,50,82
83705,note_on,5,0,11,,,,,,,,,13,,,,41,100
83708,note_on,5,0,12,,,,,,,,,14,,,,29,96
83732,note_on,30,0,9,,,,,,,,,12,,,,62,0
83732,note_on,0,0,8,,,,,,,,,11,,,,62,78
83732,note_on,30,0,8,,,,,,,,,11,,,,65,0
83732,note_on,0,0,9,,,,,,,,,12,,,,58,76
83734,note_on,30,0,10,,,,,,,,,6,,,,46,0
83734,note_on,0,0,10,,,,,,,,,6,,,,50,0
83734,note_on,0,0,10,,,,,,,,,6,,,,41,62
83734,note_on,0,0,10,,,,,,,,,6,,,,46,62
83758,note_on,55,0,5,,,,,,,,,4,,,,58,0
83760,note_on,55,0,6,,,,,,,,,5,,,,50,0
83760,note_on,0,0,7,,,,,,,,,10,,,,70,103
83760,note_on,55,0,4,,,,,,,,,3,,,,41,0
83760,note_on,60,0,7,,,,,,,,,10,,,,65,0
83760,set_tempo,60,1,0,,,,,,902256,,,,,,,,
83760,note_on,55,0,11,,,,,,,,,13,,,,41,0
83762,note_on,0,0,8,,,,,,,,,11,,,,65,78
83762,note_on,30,0,8,,,,,,,,,11,,,,62,0
83762,note_on,30,0,9,,,,,,,,,12,,,,58,0
83762,note_on,0,0,9,,,,,,,,,12,,,,62,76
83763,note_on,5,0,5,,,,,,,,,4,,,,58,82
83763,note_on,0,0,3,,,,,,,,,2,,,,53,0
83763,note_on,0,0,3,,,,,,,,,2,,,,58,96
83763,note_on,60,0,3,,,,,,,,,2,,,,65,0
83763,note_on,0,0,3,,,,,,,,,2,,,,70,96
83763,note_on,55,0,12,,,,,,,,,14,,,,29,0
83764,note_on,30,0,10,,,,,,,,,6,,,,46,0
83764,note_on,0,0,10,,,,,,,,,6,,,,41,0
83764,note_on,0,0,10,,,,,,,,,6,,,,46,62
83764,note_on,0,0,10,,,,,,,,,6,,,,50,62
83765,note_on,5,0,6,,,,,,,,,5,,,,50,82
83765,note_on,5,0,11,,,,,,,,,13,,,,41,100
83765,note_on,0,0,4,,,,,,,,,3,,,,41,95
83765,note_on,5,0,4,,,,,,,,,3,,,,46,95
83768,note_on,5,0,12,,,,,,,,,14,,,,29,96
83792,note_on,30,0,9,,,,,,,,,12,,,,62,0
83792,note_on,0,0,9,,,,,,,,,12,,,,58,76
83792,note_on,0,0,8,,,,,,,,,11,,,,62,78
83792,note_on,30,0,8,,,,,,,,,11,,,,65,0
83794,note_on,0,0,10,,,,,,,,,6,,,,41,62
83794,note_on,0,0,10,,,,,,,,,6,,,,46,0
83794,note_on,30,0,10,,,,,,,,,6,,,,50,0
83794,note_on,0,0,10,,,,,,,,,6,,,,46,62
83818,note_on,55,0,5,,,,,,,,,4,,,,58,0
83820,note_on,55,0,6,,,,,,,,,5,,,,50,0
83820,note_on,55,0,4,,,,,,,,,3,,,,41,0
83820,note_on,0,0,7,,,,,,,,,10,,,,74,103
83820,note_on,60,0,7,,,,,,,,,10,,,,70,0
83820,note_on,55,0,11,,,,,,,,,13,,,,41,0
83822,note_on,30,0,9,,,,,,,,,12,,,,58,0
83822,note_on,0,0,9,,,,,,,,,12,,,,62,76
83822,note_on,30,0,8,,,,,,,,,11,,,,62,0
83822,note_on,0,0,8,,,,,,,,,11,,,,65,78
83823,note_on,60,0,3,,,,,,,,,2,,,,58,0
83823,note_on,0,0,3,,,,,,,,,2,,,,74,96
83823,note_on,0,0,3,,,,,,,,,2,,,,70,0
83823,note_on,5,0,5,,,,,,,,,4,,,,58,82
83823,note_on,0,0,3,,,,,,,,,2,,,,62,96
83823,note_on,55,0,12,,,,,,,,,14,,,,29,0
83824,note_on,30,0,10,,,,,,,,,6,,,,41,0
83824,note_on,0,0,10,,,,,,,,,6,,,,46,0
83824,note_on,0,0,10,,,,,,,,,6,,,,46,62
83824,note_on,0,0,10,,,,,,,,,6,,,,50,62
83825,note_on,0,0,4,,,,,,,,,3,,,,41,95
83825,note_on,0,0,4,,,,,,,,,3,,,,50,95
83825,note_on,5,0,4,,,,,,,,,3,,,,46,0
83825,note_on,5,0,6,,,,,,,,,5,,,,50,82
83825,note_on,5,0,11,,,,,,,,,13,,,,41,100
83828,note_on,5,0,12,,,,,,,,,14,,,,29,96
83852,note_on,30,0,9,,,,,,,,,12,,,,62,0
83852,note_on,0,0,9,,,,,,,,,12,,,,58,76
83852,note_on,0,0,8,,,,,,,,,11,,,,62,78
83852,note_on,30,0,8,,,,,,,,,11,,,,65,0
83854,note_on,30,0,10,,,,,,,,,6,,,,50,0
83854,note_on,0,0,10,,,,,,,,,6,,,,46,62
83854,note_on,0,0,10,,,,,,,,,6,,,,41,62
83854,note_on,0,0,10,,,,,,,,,6,,,,46,0
83875,note_on,55,0,7,,,,,,,,,10,,,,74,0
83877,note_on,25,0,9,,,,,,,,,12,,,,58,0
83877,note_on,355,0,2,,,,,,,,,1,,,,74,0
83877,note_on,0,0,2,,,,,,,,,1,,,,70,0
83877,note_on,25,0,8,,,,,,,,,11,,,,62,0
83878,note_on,55,0,5,,,,,,,,,4,,,,58,0
83878,note_on,55,0,3,,,,,,,,,2,,,,74,0
83878,note_on,0,0,3,,,,,,,,,2,,,,62,0
83879,note_on,25,0,10,,,,,,,,,6,,,,41,0
83879,note_on,0,0,10,,,,,,,,,6,,,,46,0
83880,note_on,55,0,4,,,,,,,,,3,,,,41,0
83880,note_on,55,0,6,,,,,,,,,5,,,,50,0
83880,set_tempo,120,1,0,,,,,,983607,,,,,,,,
83880,note_on,55,0,11,,,,,,,,,13,,,,41,0
83880,note_on,5,0,7,,,,,,,,,10,,,,77,103
83880,note_on,0,0,4,,,,,,,,,3,,,,50,0
83882,note_on,5,0,9,,,,,,,,,12,,,,62,76
83882,note_on,5,0,8,,,,,,,,,11,,,,65,78
83882,note_on,0,0,2,,,,,,,,,1,,,,74,95
83882,note_on,5,0,2,,,,,,,,,1,,,,82,95
83883,note_on,5,0,3,,,,,,,,,2,,,,65,96
83883,note_on,55,0,12,,,,,,,,,14,,,,29,0
83883,note_on,5,0,5,,,,,,,,,4,,,,58,82
83883,note_on,0,0,3,,,,,,,,,2,,,,77,96
83884,note_on,5,0,10,,,,,,,,,6,,,,50,62
83884,note_on,0,0,10,,,,,,,,,6,,,,46,62
83885,note_on,5,0,4,,,,,,,,,3,,,,53,95
83885,note_on,5,0,6,,,,,,,,,5,,,,50,82
83885,note_on,0,0,4,,,,,,,,,3,,,,41,95
83885,note_on,5,0,11,,,,,,,,,13,,,,41,100
83888,note_on,5,0,12,,,,,,,,,14,,,,29,96
83912,note_on,0,0,9,,,,,,,,,12,,,,58,76
83912,note_on,30,0,9,,,,,,,,,12,,,,62,0
83912,note_on,30,0,8,,,,,,,,,11,,,,65,0
83912,note_on,0,0,8,,,,,,,,,11,,,,62,78
83914,note_on,0,0,10,,,,,,,,,6,,,,46,62
83914,note_on,0,0,10,,,,,,,,,6,,,,41,62
83914,note_on,0,0,10,,,,,,,,,6,,,,50,0
83914,note_on,30,0,10,,,,,,,,,6,,,,46,0
83938,note_on,55,0,5,,,,,,,,,4,,,,58,0
83940,note_on,55,0,11,,,,,,,,,13,,,,41,0
83940,note_on,55,0,6,,,,,,,,,5,,,,50,0
83940,set_tempo,60,1,0,,,,,,895522,,,,,,,,
83940,note_on,55,0,4,,,,,,,,,3,,,,41,0
83942,note_on,0,0,8,,,,,,,,,11,,,,65,78
83942,note_on,30,0,8,,,,,,,,,11,,,,62,0
83942,note_on,0,0,9,,,,,,,,,12,,,,62,76
83942,note_on,30,0,9,,,,,,,,,12,,,,58,0
83943,note_on,5,0,5,,,,,,,,,4,,,,58,82
83943,note_on,55,0,12,,,,,,,,,14,,,,29,0
83944,note_on,0,0,10,,,,,,,,,6,,,,41,0
83944,note_on,30,0,10,,,,,,,,,6,,,,46,0
83944,note_on,0,0,10,,,,,,,,,6,,,,50,62
83944,note_on,0,0,10,,,,,,,,,6,,,,46,62
83945,note_on,5,0,11,,,,,,,,,13,,,,41,100
83945,note_on,5,0,4,,,,,,,,,3,,,,41,95
83945,note_on,5,0,6,,,,,,,,,5,,,,50,82
83948,note_on,5,0,12,,,,,,,,,14,,,,29,96
83972,note_on,0,0,8,,,,,,,,,11,,,,62,78
83972,note_on,30,0,9,,,,,,,,,12,,,,62,0
83972,note_on,30,0,8,,,,,,,,,11,,,,65,0
83972,note_on,0,0,9,,,,,,,,,12,,,,58,76
83974,note_on,0,0,10,,,,,,,,,6,,,,41,62
83974,note_on,0,0,10,,,,,,,,,6,,,,50,0
83974,note_on,0,0,10,,,,,,,,,6,,,,46,62
83974,note_on,30,0,10,,,,,,,,,6,,,,46,0
83998,note_on,55,0,5,,,,,,,,,4,,,,58,0
84000,note_on,0,0,7,,,,,,,,,10,,,,74,103
84000,note_on,120,0,7,,,,,,,,,10,,,,77,0
84000,note_on,55,0,6,,,,,,,,,5,,,,50,0
84000,note_on,55,0,4,,,,,,,,,3,,,,41,0
84000,note_on,55,0,11,,,,,,,,,13,,,,41,0
84002,note_on,0,0,9,,,,,,,,,12,,,,62,76
84002,note_on,30,0,8,,,,,,,,,11,,,,62,0
84002,note_on,0,0,8,,,,,,,,,11,,,,65,78
84002,note_on,30,0,9,,,,,,,,,12,,,,58,0
84003,note_on,55,0,12,,,,,,,,,14,,,,29,0
84003,note_on,120,0,3,,,,,,,,,2,,,,77,0
84003,note_on,5,0,5,,,,,,,,,4,,,,58,82
84003,note_on,0,0,3,,,,,,,,,2,,,,74,96
84003,note_on,0,0,3,,,,,,,,,2,,,,65,0
84003,note_on,0,0,3,,,,,,,,,2,,,,62,96
84004,note_on,30,0,10,,,,,,,,,6,,,,46,0
84004,note_on,0,0,10,,,,,,,,,6,,,,41,0
84004,note_on,0,0,10,,,,,,,,,6,,,,50,62
84004,note_on,0,0,10,,,,,,,,,6,,,,46,62
84005,note_on,0,0,4,,,,,,,,,3,,,,50,95
84005,note_on,5,0,11,,,,,,,,,13,,,,41,100
84005,note_on,5,0,6,,,,,,,,,5,,,,50,82
84005,note_on,5,0,4,,,,,,,,,3,,,,53,0
84005,note_on,0,0,4,,,,,,,,,3,,,,41,95
84008,note_on,5,0,12,,,,,,,,,14,,,,29,96
84032,note_on,30,0,9,,,,,,,,,12,,,,62,0
84032,note_on,0,0,8,,,,,,,,,11,,,,62,78
84032,note_on,30,0,8,,,,,,,,,11,,,,65,0
84032,note_on,0,0,9,,,,,,,,,12,,,,58,76
84034,note_on,0,0,10,,,,,,,,,6,,,,50,0
84034,note_on,0,0,10,,,,,,,,,6,,,,41,62
84034,note_on,0,0,10,,,,,,,,,6,,,,46,62
84034,note_on,30,0,10,,,,,,,,,6,,,,46,0
84058,note_on,55,0,5,,,,,,,,,4,,,,58,0
84060,set_tempo,120,1,0,,,,,,983607,,,,,,,,
84060,note_on,55,0,11,,,,,,,,,13,,,,41,0
84060,note_on,55,0,6,,,,,,,,,5,,,,50,0
84060,note_on,55,0,4,,,,,,,,,3,,,,41,0
84060,note_on,60,0,7,,,,,,,,,10,,,,74,0
84060,note_on,0,0,7,,,,,,,,,10,,,,70,103
84062,note_on,30,0,9,,,,,,,,,12,,,,58,0
84062,note_on,0,0,9,,,,,,,,,12,,,,62,76
84062,note_on,30,0,8,,,,,,,,,11,,,,62,0
84062,note_on,0,0,8,,,,,,,,,11,,,,65,78
84063,note_on,60,0,3,,,,,,,,,2,,,,62,0
84063,note_on,0,0,3,,,,,,,,,2,,,,74,0
84063,note_on,0,0,3,,,,,,,,,2,,,,58,96
84063,note_on,0,0,3,,,,,,,,,2,,,,70,96
84063,note_on,5,0,5,,,,,,,,,4,,,,58,82
84063,note_on,55,0,12,,,,,,,,,14,,,,29,0
84064,note_on,30,0,10,,,,,,,,,6,,,,46,0
84064,note_on,0,0,10,,,,,,,,,6,,,,41,0
84064,note_on,0,0,10,,,,,,,,,6,,,,46,62
84064,note_on,0,0,10,,,,,,,,,6,,,,50,62
84065,note_on,5,0,4,,,,,,,,,3,,,,50,0
84065,note_on,0,0,4,,,,,,,,,3,,,,41,95
84065,note_on,0,0,4,,,,,,,,,3,,,,46,95
84065,note_on,5,0,11,,,,,,,,,13,,,,41,100
84065,note_on,5,0,6,,,,,,,,,5,,,,50,82
84068,note_on,5,0,12,,,,,,,,,14,,,,29,96
84092,note_on,0,0,8,,,,,,,,,11,,,,62,78
84092,note_on,30,0,8,,,,,,,,,11,,,,65,0
84092,note_on,0,0,9,,,,,,,,,12,,,,58,76
84092,note_on,30,0,9,,,,,,,,,12,,,,62,0
84094,note_on,0,0,10,,,,,,,,,6,,,,41,62
84094,note_on,30,0,10,,,,,,,,,6,,,,46,0
84094,note_on,0,0,10,,,,,,,,,6,,,,50,0
84094,note_on,0,0,10,,,,,,,,,6,,,,46,62
84118,note_on,55,0,5,,,,,,,,,4,,,,58,0
84120,note_on,55,0,4,,,,,,,,,3,,,,41,0
84120,note_on,60,0,7,,,,,,,,,10,,,,70,0
84120,note_on,0,0,7,,,,,,,,,10,,,,74,103
84120,note_on,55,0,6,,,,,,,,,5,,,,50,0
84120,set_tempo,60,1,0,,,,,,895522,,,,,,,,
84120,note_on,55,0,11,,,,,,,,,13,,,,41,0
84122,note_on,0,0,8,,,,,,,,,11,,,,65,78
84122,note_on,0,0,9,,,,,,,,,12,,,,62,76
84122,note_on,30,0,9,,,,,,,,,12,,,,58,0
84122,note_on,30,0,8,,,,,,,,,11,,,,62,0
84123,note_on,0,0,3,,,,,,,,,2,,,,74,96
84123,note_on,5,0,5,,,,,,,,,4,,,,58,82
84123,note_on,0,0,3,,,,,,,,,2,,,,62,96
84123,note_on,0,0,3,,,,,,,,,2,,,,58,0
84123,note_on,60,0,3,,,,,,,,,2,,,,70,0
84123,note_on,55,0,12,,,,,,,,,14,,,,29,0
84124,note_on,0,0,10,,,,,,,,,6,,,,46,62
84124,note_on,0,0,10,,,,,,,,,6,,,,50,62
84124,note_on,0,0,10,,,,,,,,,6,,,,41,0
84124,note_on,30,0,10,,,,,,,,,6,,,,46,0
84125,note_on,5,0,4,,,,,,,,,3,,,,46,0
84125,note_on,5,0,11,,,,,,,,,13,,,,41,100
84125,note_on,0,0,4,,,,,,,,,3,,,,41,95
84125,note_on,0,0,4,,,,,,,,,3,,,,50,95
84125,note_on,5,0,6,,,,,,,,,5,,,,50,82
84128,note_on,5,0,12,,,,,,,,,14,,,,29,96
84152,note_on,0,0,9,,,,,,,,,12,,,,58,76
84152,note_on,30,0,9,,,,,,,,,12,,,,62,0
84152,note_on,0,0,8,,,,,,,,,11,,,,62,78
84152,note_on,30,0,8,,,,,,,,,11,,,,65,0
84154,note_on,0,0,10,,,,,,,,,6,,,,46,0
84154,note_on,0,0,10,,,,,,,,,6,,,,46,62
84154,note_on,0,0,10,,,,,,,,,6,,,,41,62
84154,note_on,30,0,10,,,,,,,,,6,,,,50,0
84178,note_on,55,0,5,,,,,,,,,4,,,,58,0
84180,note_on,55,0,6,,,,,,,,,5,,,,50,0
84180,note_on,55,0,11,,,,,,,,,13,,,,41,0
84180,note_on,0,0,7,,,,,,,,,10,,,,77,103
84180,note_on,60,0,7,,,,,,,,,10,,,,74,0
84180,note_on,55,0,4,,,,,,,,,3,,,,41,0
84182,note_on,30,0,9,,,,,,,,,12,,,,58,0
84182,note_on,0,0,9,,,,,,,,,12,,,,62,76
84182,note_on,30,0,8,,,,,,,,,11,,,,62,0
84182,note_on,0,0,8,,,,,,,,,11,,,,65,78
84183,note_on,5,0,5,,,,,,,,,4,,,,58,82
84183,note_on,0,0,3,,,,,,,,,2,,,,62,0
84183,note_on,0,0,3,,,,,,,,,2,,,,65,96
84183,note_on,0,0,3,,,,,,,,,2,,,,77,96
84183,note_on,55,0,12,,,,,,,,,14,,,,29,0
84183,note_on,60,0,3,,,,,,,,,2,,,,74,0
84184,note_on,0,0,10,,,,,,,,,6,,,,46,62
84184,note_on,0,0,10,,,,,,,,,6,,,,50,62
84184,note_on,0,0,10,,,,,,,,,6,,,,41,0
84184,note_on,30,0,10,,,,,,,,,6,,,,46,0
84185,note_on,5,0,6,,,,,,,,,5,,,,50,82
84185,note_on,5,0,11,,,,,,,,,13,,,,41,100
84185,note_on,0,0,4,,,,,,,,,3,,,,53,95
84185,note_on,0,0,4,,,,,,,,,3,,,,41,95
84185,note_on,5,0,4,,,,,,,,,3,,,,50,0
84188,note_on,5,0,12,,,,,,,,,14,,,,29,96
84212,note_on,0,0,9,,,,,,,,,12,,,,58,76
84212,note_on,0,0,8,,,,,,,,,11,,,,62,78
84212,note_on,30,0,9,,,,,,,,,12,,,,62,0
84212,note_on,30,0,8,,,,,,,,,11,,,,65,0
84214,note_on,30,0,10,,,,,,,,,6,,,,46,0
84214,note_on,0,0,10,,,,,,,,,6,,,,50,0
84214,note_on,0,0,10,,,,,,,,,6,,,,41,62
84214,note_on,0,0,10,,,,,,,,,6,,,,46,62
84235,note_on,715,0,1,,,,,,,,,0,,,,82,0
84235,note_on,0,0,1,,,,,,,,,0,,,,86,0
84235,note_on,55,0,7,,,,,,,,,10,,,,77,0
84237,note_on,25,0,8,,,,,,,,,11,,,,62,0
84237,note_on,25,0,9,,,,,,,,,12,,,,58,0
84237,note_on,355,0,2,,,,,,,,,1,,,,74,0
84237,note_on,0,0,2,,,,,,,,,1,,,,82,0
84238,note_on,55,0,5,,,,,,,,,4,,,,58,0
84238,note_on,55,0,3,,,,,,,,,2,,,,77,0
84238,note_on,0,0,3,,,,,,,,,2,,,,65,0
84239,note_on,0,0,10,,,,,,,,,6,,,,41,0
84239,note_on,25,0,10,,,,,,,,,6,,,,46,0
84240,note_on,0,0,1,,,,,,,,,0,,,,82,88
84240,note_on,55,0,11,,,,,,,,,13,,,,41,0
84240,note_on,55,0,4,,,,,,,,,3,,,,53,0
84240,note_on,0,0,7,,,,,,,,,10,,,,82,95
84240,control_change,5,0,7,,,,,,,,,10,11,87,,,
84240,note_on,0,0,4,,,,,,,,,3,,,,41,0
84240,note_on,0,0,1,,,,,,,,,0,,,,86,88
84240,set_tempo,120,1,0,,,,,,1000000,,,,,,,,
84240,note_on,55,0,6,,,,,,,,,5,,,,50,0
84240,control_change,5,0,1,,,,,,,,,0,11,89,,,
84242,note_on,0,0,2,,,,,,,,,1,,,,74,87
84242,control_change,5,0,2,,,,,,,,,1,11,106,,,
84242,control_change,5,0,9,,,,,,,,,12,11,87,,,
84242,note_on,0,0,8,,,,,,,,,11,,,,65,78
84242,control_change,2,0,7,,,,,,,,,10,11,90,,,
84242,control_change,5,0,8,,,,,,,,,11,11,87,,,
84242,note_on,0,0,2,,,,,,,,,1,,,,82,87
84242,note_on,0,0,9,,,,,,,,,12,,,,62,76
84243,note_on,55,0,12,,,,,,,,,14,,,,29,0
84243,control_change,5,0,5,,,,,,,,,4,11,92,,,
84243,note_on,5,0,3,,,,,,,,,2,,,,74,88
84243,note_on,0,0,3,,,,,,,,,2,,,,77,88
84243,control_change,0,0,3,,,,,,,,,2,11,89,,,
84243,note_on,0,0,5,,,,,,,,,4,,,,58,73
84244,note_on,0,0,10,,,,,,,,,6,,,,50,62
84244,control_change,2,0,8,,,,,,,,,11,11,90,,,
84244,control_change,2,0,9,,,,,,,,,12,11,90,,,
84244,note_on,0,0,10,,,,,,,,,6,,,,46,62
84244,control_change,5,0,10,,,,,,,,,6,11,87,,,
84245,note_on,0,0,11,,,,,,,,,13,,,,41,100
84245,control_change,5,0,11,,,,,,,,,13,11,87,,,
84245,control_change,3,0,7,,,,,,,,,10,11,93,,,
84245,note_on,5,0,4,,,,,,,,,3,,,,58,87
84245,control_change,0,0,4,,,,,,,,,3,11,89,,,
84245,note_on,0,0,6,,,,,,,,,5,,,,50,73
84245,note_on,0,0,4,,,,,,,,,3,,,,41,85
84245,control_change,5,0,6,,,,,,,,,5,11,92,,,
84246,control_change,2,0,10,,,,,,,,,6,11,90,,,
84247,control_change,3,0,8,,,,,,,,,11,11,93,,,
84247,control_change,3,0,9,,,,,,,,,12,11,93,,,
84247,control_change,2,0,11,,,,,,,,,13,11,90,,,
84248,note_on,0,0,12,,,,,,,,,14,,,,29,96
84248,control_change,5,0,12,,,,,,,,,14,11,87,,,
84248,control_change,3,0,7,,,,,,,,,10,11,96,,,
84249,control_change,3,0,10,,,,,,,,,6,11,93,,,
84250,control_change,3,0,9,,,,,,,,,12,11,96,,,
84250,control_change,3,0,11,,,,,,,,,13,11,93,,,
84250,control_change,2,0,12,,,,,,,,,14,11,90,,,
84250,control_change,3,0,8,,,,,,,,,11,11,96,,,
84251,control_change,3,0,7,,,,,,,,,10,11,99,,,
84252,control_change,3,0,10,,,,,,,,,6,11,96,,,
84253,control_change,3,0,9,,,,,,,,,12,11,99,,,
84253,control_change,3,0,8,,,,,,,,,11,11,99,,,
84253,control_change,3,0,12,,,,,,,,,14,11,93,,,
84253,control_change,3,0,11,,,,,,,,,13,11,96,,,
84254,control_change,3,0,7,,,,,,,,,10,11,102,,,
84255,control_change,3,0,10,,,,,,,,,6,11,99,,,
84256,control_change,3,0,9,,,,,,,,,12,11,102,,,
84256,control_change,3,0,12,,,,,,,,,14,11,96,,,
84256,control_change,3,0,8,,,,,,,,,11,11,102,,,
84256,control_change,3,0,11,,,,,,,,,13,11,99,,,
84258,control_change,3,0,10,,,,,,,,,6,11,102,,,
84258,control_change,18,0,1,,,,,,,,,0,11,86,,,
84259,control_change,3,0,11,,,,,,,,,13,11,102,,,
84259,control_change,3,0,12,,,,,,,,,14,11,99,,,
84260,control_change,18,0,2,,,,,,,,,1,11,103,,,
84261,control_change,18,0,3,,,,,,,,,2,11,86,,,
84261,control_change,18,0,5,,,,,,,,,4,11,89,,,
84262,control_change,3,0,12,,,,,,,,,14,11,102,,,
84263,control_change,18,0,4,,,,,,,,,3,11,86,,,
84263,control_change,9,0,7,,,,,,,,,10,11,99,,,
84263,control_change,18,0,6,,,,,,,,,5,11,89,,,
84265,control_change,9,0,8,,,,,,,,,11,11,99,,,
84265,control_change,9,0,9,,,,,,,,,12,11,99,,,
84267,control_change,9,0,10,,,,,,,,,6,11,99,,,
84268,control_change,9,0,11,,,,,,,,,13,11,99,,,
84271,control_change,9,0,12,,,,,,,,,14,11,99,,,
84272,note_on,7,0,8,,,,,,,,,11,,,,65,0
84272,note_on,0,0,9,,,,,,,,,12,,,,58,76
84272,control_change,9,0,7,,,,,,,,,10,11,96,,,
84272,note_on,0,0,8,,,,,,,,,11,,,,62,78
84272,note_on,7,0,9,,,,,,,,,12,,,,62,0
84274,control_change,2,0,9,,,,,,,,,12,11,96,,,
84274,note_on,0,0,10,,,,,,,,,6,,,,41,62
84274,note_on,0,0,10,,,,,,,,,6,,,,46,62
84274,note_on,0,0,10,,,,,,,,,6,,,,50,0
84274,note_on,7,0,10,,,,,,,,,6,,,,46,0
84274,control_change,2,0,8,,,,,,,,,11,11,96,,,
84276,control_change,18,0,1,,,,,,,,,0,11,84,,,
84276,control_change,2,0,10,,,,,,,,,6,11,96,,,
84277,control_change,9,0,11,,,,,,,,,13,11,96,,,
84278,control_change,18,0,2,,,,,,,,,1,11,100,,,
84279,control_change,18,0,3,,,,,,,,,2,11,84,,,
84279,control_change,18,0,5,,,,,,,,,4,11,86,,,
84280,control_change,9,0,12,,,,,,,,,14,11,96,,,
84281,control_change,18,0,4,,,,,,,,,3,11,84,,,
84281,control_change,9,0,7,,,,,,,,,10,11,93,,,
84281,control_change,18,0,6,,,,,,,,,5,11,86,,,
84283,control_change,9,0,8,,,,,,,,,11,11,93,,,
84283,control_change,9,0,9,,,,,,,,,12,11,93,,,
84285,control_change,9,0,10,,,,,,,,,6,11,93,,,
84286,control_change,9,0,11,,,,,,,,,13,11,93,,,
84289,control_change,9,0,12,,,,,,,,,14,11,93,,,
84290,control_change,9,0,7,,,,,,,,,10,11,90,,,
84292,control_change,9,0,9,,,,,,,,,12,11,90,,,
84292,control_change,9,0,8,,,,,,,,,11,11,90,,,
84294,control_change,18,0,1,,,,,,,,,0,11,81,,,
84294,control_change,9,0,10,,,,,,,,,6,11,90,,,
84295,control_change,9,0,11,,,,,,,,,13,11,90,,,
84296,control_change,18,0,2,,,,,,,,,1,11,98,,,
84297,control_change,18,0,3,,,,,,,,,2,11,81,,,
84297,control_change,18,0,5,,,,,,,,,4,11,83,,,
84298,note_on,1,0,5,,,,,,,,,4,,,,58,0
84298,control_change,9,0,12,,,,,,,,,14,11,90,,,
84299,control_change,18,0,4,,,,,,,,,3,11,81,,,
84299,control_change,9,0,7,,,,,,,,,10,11,87,,,
84299,control_change,18,0,6,,,,,,,,,5,11,83,,,
84300,note_on,5,0,11,,,,,,,,,13,,,,41,0
84300,note_on,1,0,4,,,,,,,,,3,,,,41,0
84300,note_on,1,0,6,,,,,,,,,5,,,,50,0
84300,set_tempo,60,1,0,,,,,,888889,,,,,,,,
84301,control_change,9,0,9,,,,,,,,,12,11,87,,,
84301,control_change,9,0,8,,,,,,,,,11,11,87,,,
84302,note_on,0,0,9,,,,,,,,,12,,,,62,76
84302,note_on,1,0,9,,,,,,,,,12,,,,58,0
84302,note_on,0,0,8,,,,,,,,,11,,,,65,78
84302,note_on,1,0,8,,,,,,,,,11,,,,62,0
84303,note_on,5,0,5,,,,,,,,,4,,,,58,73
84303,control_change,9,0,10,,,,,,,,,6,11,87,,,
84303,note_on,5,0,12,,,,,,,,,14,,,,29,0
84304,note_on,0,0,10,,,,,,,,,6,,,,50,62
84304,note_on,1,0,10,,,,,,,,,6,,,,41,0
84304,note_on,0,0,10,,,,,,,,,6,,,,46,62
84304,note_on,0,0,10,,,,,,,,,6,,,,46,0
84304,control_change,4,0,11,,,,,,,,,13,11,87,,,
84305,note_on,5,0,6,,,,,,,,,5,,,,50,73
84305,note_on,5,0,4,,,,,,,,,3,,,,41,85
84305,note_on,1,0,11,,,,,,,,,13,,,,41,100
84307,control_change,4,0,12,,,,,,,,,14,11,87,,,
84308,control_change,9,0,7,,,,,,,,,10,11,84,,,
84308,note_on,1,0,12,,,,,,,,,14,,,,29,96
84309,control_change,15,0,1,,,,,,,,,0,11,78,,,
84309,control_change,6,0,5,,,,,,,,,4,11,80,,,
84310,control_change,8,0,9,,,,,,,,,12,11,84,,,
84310,control_change,8,0,8,,,,,,,,,11,11,84,,,
84311,control_change,15,0,2,,,,,,,,,1,11,95,,,
84311,control_change,6,0,6,,,,,,,,,5,11,80,,,
84312,control_change,8,0,10,,,,,,,,,6,11,84,,,
84312,control_change,15,0,3,,,,,,,,,2,11,78,,,
84313,control_change,8,0,11,,,,,,,,,13,11,84,,,
84314,control_change,9,0,4,,,,,,,,,3,11,78,,,
84316,control_change,8,0,12,,,,,,,,,14,11,84,,,
84317,control_change,9,0,7,,,,,,,,,10,11,81,,,
84318,control_change,9,0,5,,,,,,,,,4,11,77,,,
84319,control_change,9,0,9,,,,,,,,,12,11,81,,,
84319,control_change,9,0,8,,,,,,,,,11,11,81,,,
84320,control_change,9,0,2,,,,,,,,,1,11,92,,,
84320,control_change,9,0,6,,,,,,,,,5,11,77,,,
84321,control_change,9,0,10,,,,,,,,,6,11,81,,,
84321,control_change,12,0,1,,,,,,,,,0,11,75,,,
84322,control_change,9,0,11,,,,,,,,,13,11,81,,,
84324,control_change,12,0,3,,,,,,,,,2,11,75,,,
84325,control_change,9,0,12,,,,,,,,,14,11,81,,,
84326,control_change,12,0,4,,,,,,,,,3,11,75,,,
84326,control_change,9,0,7,,,,,,,,,10,11,78,,,
84327,control_change,9,0,5,,,,,,,,,4,11,74,,,
84328,control_change,9,0,8,,,,,,,,,11,11,78,,,
84328,control_change,9,0,9,,,,,,,,,12,11,78,,,
84329,control_change,9,0,6,,,,,,,,,5,11,74,,,
84329,control_change,9,0,2,,,,,,,,,1,11,89,,,
84330,control_change,9,0,1,,,,,,,,,0,11,72,,,
84330,control_change,9,0,10,,,,,,,,,6,11,78,,,
84331,control_change,9,0,11,,,,,,,,,13,11,78,,,
84332,note_on,4,0,8,,,,,,,,,11,,,,65,0
84332,note_on,0,0,8,,,,,,,,,11,,,,62,78
84332,note_on,0,0,9,,,,,,,,,12,,,,58,76
84332,note_on,4,0,9,,,,,,,,,12,,,,62,0
84333,control_change,9,0,3,,,,,,,,,2,11,72,,,
84334,control_change,9,0,12,,,,,,,,,14,11,78,,,
84334,note_on,4,0,10,,,,,,,,,6,,,,46,0
84334,note_on,0,0,10,,,,,,,,,6,,,,41,62
84334,note_on,0,0,10,,,,,,,,,6,,,,50,0
84334,note_on,0,0,10,,,,,,,,,6,,,,46,62
84335,control_change,9,0,4,,,,,,,,,3,11,72,,,
84336,control_change,9,0,5,,,,,,,,,4,11,71,,,
84338,control_change,9,0,6,,,,,,,,,5,11,71,,,
84341,control_change,12,0,2,,,,,,,,,1,11,86,,,
84342,control_change,12,0,1,,,,,,,,,0,11,69,,,
84343,control_change,17,0,7,,,,,,,,,10,11,75,,,
84345,control_change,13,0,8,,,,,,,,,11,11,75,,,
84345,control_change,12,0,3,,,,,,,,,2,11,69,,,
84345,control_change,9,0,5,,,,,,,,,4,11,68,,,
84345,control_change,13,0,9,,,,,,,,,12,11,75,,,
84347,control_change,9,0,6,,,,,,,,,5,11,68,,,
84347,control_change,13,0,10,,,,,,,,,6,11,75,,,
84347,control_change,12,0,4,,,,,,,,,3,11,69,,,
84348,control_change,17,0,11,,,,,,,,,13,11,75,,,
84351,control_change,17,0,12,,,,,,,,,14,11,75,,,
84351,control_change,9,0,1,,,,,,,,,0,11,66,,,
84353,control_change,12,0,2,,,,,,,,,1,11,83,,,
84354,control_change,9,0,3,,,,,,,,,2,11,66,,,
84354,control_change,9,0,5,,,,,,,,,4,11,65,,,
84356,control_change,9,0,6,,,,,,,,,5,11,65,,,
84356,control_change,9,0,4,,,,,,,,,3,11,66,,,
84358,note_on,4,0,5,,,,,,,,,4,,,,58,0
84360,note_on,4,0,6,,,,,,,,,5,,,,50,0
84360,note_on,12,0,11,,,,,,,,,13,,,,41,0
84360,note_on,4,0,4,,,,,,,,,3,,,,41,0
84362,note_on,17,0,8,,,,,,,,,11,,,,62,0
84362,note_on,0,0,9,,,,,,,,,12,,,,62,76
84362,control_change,9,0,2,,,,,,,,,1,11,80,,,
84362,note_on,17,0,9,,,,,,,,,12,,,,58,0
84362,note_on,0,0,8,,,,,,,,,11,,,,65,78
84363,note_on,12,0,12,,,,,,,,,14,,,,29,0
84363,control_change,5,0,5,,,,,,,,,4,11,62,,,
84363,note_on,0,0,5,,,,,,,,,4,,,,58,73
84363,control_change,12,0,1,,,,,,,,,0,11,63,,,
84364,note_on,17,0,10,,,,,,,,,6,,,,41,0
84364,note_on,0,0,10,,,,,,,,,6,,,,50,62
84364,control_change,21,0,7,,,,,,,,,10,11,72,,,
84364,note_on,0,0,10,,,,,,,,,6,,,,46,62
84364,note_on,0,0,10,,,,,,,,,6,,,,46,0
84365,note_on,5,0,11,,,,,,,,,13,,,,41,100
84365,note_on,0,0,6,,,,,,,,,5,,,,50,73
84365,control_change,5,0,6,,,,,,,,,5,11,62,,,
84365,note_on,5,0,4,,,,,,,,,3,,,,41,85
84366,control_change,12,0,3,,,,,,,,,2,11,63,,,
84366,control_change,4,0,9,,,,,,,,,12,11,72,,,
84366,control_change,4,0,8,,,,,,,,,11,11,72,,,
84368,control_change,3,0,4,,,,,,,,,3,11,63,,,
84368,note_on,5,0,12,,,,,,,,,14,,,,29,96
84368,control_change,4,0,10,,,,,,,,,6,11,72,,,
84369,control_change,4,0,11,,,,,,,,,13,11,72,,,
84372,control_change,4,0,12,,,,,,,,,14,11,72,,,
84372,control_change,9,0,5,,,,,,,,,4,11,59,,,
84374,control_change,9,0,6,,,,,,,,,5,11,59,,,
84374,control_change,12,0,2,,,,,,,,,1,11,77,,,
84375,control_change,12,0,1,,,,,,,,,0,11,60,,,
84378,control_change,12,0,3,,,,,,,,,2,11,60,,,
84380,control_change,12,0,4,,,,,,,,,3,11,60,,,
84381,control_change,9,0,5,,,,,,,,,4,11,56,,,
84383,control_change,9,0,6,,,,,,,,,5,11,56,,,
84384,control_change,9,0,1,,,,,,,,,0,11,57,,,
84385,control_change,21,0,7,,,,,,,,,10,11,69,,,
84386,control_change,12,0,2,,,,,,,,,1,11,74,,,
84387,control_change,9,0,3,,,,,,,,,2,11,57,,,
84387,control_change,21,0,8,,,,,,,,,11,11,69,,,
84387,control_change,21,0,9,,,,,,,,,12,11,69,,,
84389,control_change,21,0,10,,,,,,,,,6,11,69,,,
84389,control_change,9,0,4,,,,,,,,,3,11,57,,,
84390,control_change,9,0,5,,,,,,,,,4,11,53,,,
84390,control_change,21,0,11,,,,,,,,,13,11,69,,,
84392,note_on,0,0,8,,,,,,,,,11,,,,62,78
84392,note_on,5,0,8,,,,,,,,,11,,,,65,0
84392,control_change,9,0,6,,,,,,,,,5,11,53,,,
84392,note_on,0,0,9,,,,,,,,,12,,,,58,76
84392,note_on,5,0,9,,,,,,,,,12,,,,62,0
84393,control_change,21,0,12,,,,,,,,,14,11,69,,,
84394,note_on,0,0,10,,,,,,,,,6,,,,41,62
84394,note_on,5,0,10,,,,,,,,,6,,,,50,0
84394,note_on,0,0,10,,,,,,,,,6,,,,46,0
84394,note_on,0,0,10,,,,,,,,,6,,,,46,62
84395,control_change,9,0,2,,,,,,,,,1,11,71,,,
84396,control_change,12,0,1,,,,,,,,,0,11,54,,,
84399,control_change,9,0,5,,,,,,,,,4,11,50,,,
84399,control_change,12,0,3,,,,,,,,,2,11,54,,,
84401,control_change,9,0,6,,,,,,,,,5,11,50,,,
84401,control_change,12,0,4,,,,,,,,,3,11,54,,,
84406,control_change,21,0,7,,,,,,,,,10,11,66,,,
84407,control_change,12,0,2,,,,,,,,,1,11,68,,,
84408,control_change,9,0,5,,,,,,,,,4,11,47,,,
84408,control_change,16,0,9,,,,,,,,,12,11,66,,,
84408,control_change,16,0,8,,,,,,,,,11,11,66,,,
84408,control_change,12,0,1,,,,,,,,,0,11,51,,,
84410,control_change,9,0,6,,,,,,,,,5,11,47,,,
84410,control_change,16,0,10,,,,,,,,,6,11,66,,,
84411,control_change,12,0,3,,,,,,,,,2,11,51,,,
84411,control_change,21,0,11,,,,,,,,,13,11,66,,,
84413,control_change,12,0,4,,,,,,,,,3,11,51,,,
84414,control_change,21,0,12,,,,,,,,,14,11,66,,,
84416,control_change,9,0,2,,,,,,,,,1,11,65,,,
84417,note_on,9,0,8,,,,,,,,,11,,,,62,0
84417,control_change,9,0,1,,,,,,,,,0,11,48,,,
84417,note_on,9,0,9,,,,,,,,,12,,,,58,0
84417,control_change,9,0,5,,,,,,,,,4,11,44,,,
84418,note_on,1,0,5,,,,,,,,,4,,,,58,0
84419,note_on,0,0,10,,,,,,,,,6,,,,41,0
84419,note_on,9,0,10,,,,,,,,,6,,,,46,0
84419,control_change,9,0,6,,,,,,,,,5,11,44,,,
84420,note_on,1,0,6,,,,,,,,,5,,,,50,0
84420,note_on,7,0,4,,,,,,,,,3,,,,41,0
84420,note_on,9,0,11,,,,,,,,,13,,,,41,0
84420,set_tempo,120,1,0,,,,,,1250000,,,,,,,,
84420,control_change,9,0,3,,,,,,,,,2,11,48,,,
84422,control_change,2,0,4,,,,,,,,,3,11,48,,,
84422,note_on,5,0,9,,,,,,,,,12,,,,65,64
84422,note_on,5,0,8,,,,,,,,,11,,,,70,66
84422,note_on,0,0,8,,,,,,,,,11,,,,62,66
84423,note_on,5,0,5,,,,,,,,,4,,,,58,64
84423,note_on,9,0,12,,,,,,,,,14,,,,29,0
84424,note_on,5,0,10,,,,,,,,,6,,,,53,64
84424,note_on,0,0,10,,,,,,,,,6,,,,41,64
84425,note_on,3,0,4,,,,,,,,,3,,,,41,76
84425,note_on,5,0,6,,,,,,,,,5,,,,50,64
84425,note_on,5,0,11,,,,,,,,,13,,,,41,77
84427,control_change,21,0,7,,,,,,,,,10,11,63,,,
84428,note_on,5,0,12,,,,,,,,,14,,,,29,72
84429,control_change,7,0,9,,,,,,,,,12,11,63,,,
84429,control_change,7,0,8,,,,,,,,,11,11,63,,,
84431,control_change,7,0,10,,,,,,,,,6,11,63,,,
84432,control_change,7,0,11,,,,,,,,,13,11,63,,,
84435,control_change,7,0,12,,,,,,,,,14,11,63,,,
84448,control_change,21,0,7,,,,,,,,,10,11,60,,,
84450,control_change,21,0,8,,,,,,,,,11,11,60,,,
84450,control_change,21,0,9,,,,,,,,,12,11,60,,,
84452,control_change,21,0,10,,,,,,,,,6,11,60,,,
84453,control_change,21,0,11,,,,,,,,,13,11,60,,,
84456,control_change,21,0,12,,,,,,,,,14,11,60,,,
84469,control_change,21,0,7,,,,,,,,,10,11,57,,,
84471,control_change,21,0,8,,,,,,,,,11,11,57,,,
84471,control_change,21,0,9,,,,,,,,,12,11,57,,,
84473,control_change,21,0,10,,,,,,,,,6,11,57,,,
84474,control_change,21,0,11,,,,,,,,,13,11,57,,,
84475,note_on,6,0,7,,,,,,,,,10,,,,82,0
84477,control_change,21,0,12,,,,,,,,,14,11,57,,,
84480,note_on,0,0,1,,,,,,,,,0,,,,82,0
84480,note_on,63,0,1,,,,,,,,,0,,,,86,0
84480,note_on,55,0,4,,,,,,,,,3,,,,58,0
84480,set_tempo,60,1,0,,,,,,923077,,,,,,,,
84480,note_on,5,0,7,,,,,,,,,10,,,,77,103
84482,note_on,0,0,8,,,,,,,,,11,,,,70,0
84482,note_on,11,0,8,,,,,,,,,11,,,,62,0
84482,note_on,0,0,2,,,,,,,,,1,,,,74,0
84482,note_on,11,0,9,,,,,,,,,12,,,,65,0
84482,note_on,66,0,2,,,,,,,,,1,,,,82,0
84483,note_on,60,0,5,,,,,,,,,4,,,,58,0
84483,note_on,63,0,3,,,,,,,,,2,,,,77,0
84483,note_on,0,0,3,,,,,,,,,2,,,,74,0
84484,note_on,11,0,10,,,,,,,,,6,,,,41,0
84484,note_on,0,0,10,,,,,,,,,6,,,,53,0
84485,note_on,5,0,4,,,,,,,,,3,,,,41,0
84485,note_on,0,0,4,,,,,,,,,3,,,,53,95
84485,note_on,60,0,6,,,,,,,,,5,,,,50,0
84485,note_on,11,0,11,,,,,,,,,13,,,,41,0
84488,note_on,11,0,12,,,,,,,,,14,,,,29,0
84490,control_change,10,0,7,,,,,,,,,10,11,54,,,
84492,control_change,10,0,8,,,,,,,,,11,11,54,,,
84492,control_change,10,0,9,,,,,,,,,12,11,54,,,
84494,control_change,10,0,10,,,,,,,,,6,11,54,,,
84495,control_change,10,0,11,,,,,,,,,13,11,54,,,
84498,control_change,10,0,12,,,,,,,,,14,11,54,,,
84510,note_on,20,0,7,,,,,,,,,10,,,,77,0
84511,control_change,1,0,7,,,,,,,,,10,11,51,,,
84513,control_change,21,0,8,,,,,,,,,11,11,51,,,
84513,control_change,21,0,9,,,,,,,,,12,11,51,,,
84515,control_change,21,0,10,,,,,,,,,6,11,51,,,
84515,note_on,30,0,4,,,,,,,,,3,,,,53,0
84516,control_change,21,0,11,,,,,,,,,13,11,51,,,
84519,control_change,21,0,12,,,,,,,,,14,11,51,,,
84532,control_change,21,0,7,,,,,,,,,10,11,48,,,
84534,control_change,21,0,9,,,,,,,,,12,11,48,,,
84534,control_change,21,0,8,,,,,,,,,11,11,48,,,
84536,control_change,21,0,10,,,,,,,,,6,11,48,,,
84537,control_change,21,0,11,,,,,,,,,13,11,48,,,
84540,note_on,8,0,7,,,,,,,,,10,,,,74,103
84540,control_change,21,0,12,,,,,,,,,14,11,48,,,
84545,note_on,30,0,4,,,,,,,,,3,,,,50,95
84570,note_on,30,0,7,,,,,,,,,10,,,,74,0
84575,note_on,30,0,4,,,,,,,,,3,,,,50,0
84600,note_on,30,0,7,,,,,,,,,10,,,,77,103
84605,note_on,30,0,4,,,,,,,,,3,,,,53,95
84630,note_on,30,0,7,,,,,,,,,10,,,,77,0
84635,note_on,30,0,4,,,,,,,,,3,,,,53,0
84660,note_on,30,0,7,,,,,,,,,10,,,,74,103
84665,note_on,30,0,4,,,,,,,,,3,,,,50,95
84690,note_on,30,0,7,,,,,,,,,10,,,,74,0
84695,note_on,30,0,4,,,,,,,,,3,,,,50,0
84720,note_on,30,0,7,,,,,,,,,10,,,,70,103
84725,note_on,30,0,4,,,,,,,,,3,,,,46,95
84750,note_on,30,0,7,,,,,,,,,10,,,,70,0
84755,note_on,30,0,4,,,,,,,,,3,,,,46,0
84780,note_on,30,0,7,,,,,,,,,10,,,,65,103
84785,note_on,30,0,4,,,,,,,,,3,,,,41,95
84810,note_on,30,0,7,,,,,,,,,10,,,,65,0
84815,note_on,30,0,4,,,,,,,,,3,,,,41,0
84840,note_on,30,0,7,,,,,,,,,10,,,,70,103
84845,note_on,30,0,4,,,,,,,,,3,,,,46,95
84870,note_on,30,0,7,,,,,,,,,10,,,,70,0
84875,note_on,30,0,4,,,,,,,,,3,,,,46,0
84900,note_on,30,0,7,,,,,,,,,10,,,,74,103
84905,note_on,30,0,4,,,,,,,,,3,,,,50,95
84930,note_on,30,0,7,,,,,,,,,10,,,,74,0
84935,note_on,30,0,4,,,,,,,,,3,,,,50,0
84960,note_on,30,0,7,,,,,,,,,10,,,,77,103
84965,note_on,30,0,4,,,,,,,,,3,,,,53,95
84990,note_on,30,0,7,,,,,,,,,10,,,,77,0
84995,note_on,30,0,4,,,,,,,,,3,,,,53,0
85020,note_on,30,0,7,,,,,,,,,10,,,,74,103
85025,note_on,30,0,4,,,,,,,,,3,,,,50,95
85050,note_on,30,0,7,,,,,,,,,10,,,,74,0
85055,note_on,30,0,4,,,,,,,,,3,,,,50,0
85080,note_on,30,0,7,,,,,,,,,10,,,,70,103
85085,note_on,30,0,4,,,,,,,,,3,,,,46,95
85110,note_on,30,0,7,,,,,,,,,10,,,,70,0
85115,note_on,30,0,4,,,,,,,,,3,,,,46,0
85140,note_on,660,0,1,,,,,,,,,0,,,,65,96
85140,set_tempo,660,1,0,,,,,,916031,,,,,,,,
85140,note_on,30,0,7,,,,,,,,,10,,,,65,103
85145,note_on,30,0,4,,,,,,,,,3,,,,41,95
85170,note_on,30,0,7,,,,,,,,,10,,,,65,0
85170,note_on,30,0,1,,,,,,,,,0,,,,65,0
85175,note_on,30,0,4,,,,,,,,,3,,,,41,0
85200,note_on,30,0,1,,,,,,,,,0,,,,70,96
85200,note_on,30,0,7,,,,,,,,,10,,,,70,103
85205,note_on,30,0,4,,,,,,,,,3,,,,46,95
85230,note_on,30,0,7,,,,,,,,,10,,,,70,0
85230,note_on,30,0,1,,,,,,,,,0,,,,70,0
85235,note_on,30,0,4,,,,,,,,,3,,,,46,0
85260,note_on,30,0,7,,,,,,,,,10,,,,74,103
85260,set_tempo,120,1,0,,,,,,909091,,,,,,,,
85260,note_on,30,0,1,,,,,,,,,0,,,,74,96
85265,note_on,30,0,4,,,,,,,,,3,,,,50,95
85290,note_on,30,0,7,,,,,,,,,10,,,,74,0
85290,note_on,30,0,1,,,,,,,,,0,,,,74,0
85295,note_on,30,0,4,,,,,,,,,3,,,,50,0
85320,note_on,30,0,1,,,,,,,,,0,,,,77,96
85320,note_on,30,0,7,,,,,,,,,10,,,,77,103
85323,note_on,840,0,3,,,,,,,,,2,,,,65,96
85325,note_on,30,0,4,,,,,,,,,3,,,,53,95
85350,note_on,30,0,7,,,,,,,,,10,,,,77,0
85350,note_on,30,0,1,,,,,,,,,0,,,,77,0
85353,note_on,30,0,3,,,,,,,,,2,,,,65,0
85355,note_on,30,0,4,,,,,,,,,3,,,,53,0
85380,set_tempo,120,1,0,,,,,,902256,,,,,,,,
85380,note_on,30,0,1,,,,,,,,,0,,,,82,96
85380,note_on,30,0,7,,,,,,,,,10,,,,82,103
85383,note_on,30,0,3,,,,,,,,,2,,,,70,96
85385,note_on,30,0,4,,,,,,,,,3,,,,58,95
85410,note_on,30,0,1,,,,,,,,,0,,,,82,0
85410,note_on,30,0,7,,,,,,,,,10,,,,82,0
85413,note_on,30,0,3,,,,,,,,,2,,,,70,0
85415,note_on,30,0,4,,,,,,,,,3,,,,58,0
85440,note_on,30,0,1,,,,,,,,,0,,,,86,96
85440,note_on,30,0,7,,,,,,,,,10,,,,86,103
85440,set_tempo,60,1,0,,,,,,960000,,,,,,,,
85443,note_on,30,0,3,,,,,,,,,2,,,,74,96
85445,note_on,30,0,4,,,,,,,,,3,,,,62,95
85470,note_on,30,0,7,,,,,,,,,10,,,,86,0
85470,note_on,30,0,1,,,,,,,,,0,,,,86,0
85473,note_on,30,0,3,,,,,,,,,2,,,,74,0
85475,note_on,30,0,4,,,,,,,,,3,,,,62,0
85500,set_tempo,60,1,0,,,,,,1052632,,,,,,,,
85500,note_on,30,0,7,,,,,,,,,10,,,,89,103
85500,note_on,30,0,1,,,,,,,,,0,,,,89,96
85503,note_on,30,0,3,,,,,,,,,2,,,,77,96
85505,note_on,30,0,4,,,,,,,,,3,,,,65,95
85530,note_on,30,0,1,,,,,,,,,0,,,,89,0
85530,note_on,30,0,7,,,,,,,,,10,,,,89,0
85533,note_on,30,0,3,,,,,,,,,2,,,,77,0
85535,note_on,30,0,4,,,,,,,,,3,,,,65,0
85560,set_tempo,60,1,0,,,,,,1121495,,,,,,,,
85560,note_on,30,0,7,,,,,,,,,10,,,,58,103
85562,note_on,1028,0,8,,,,,,,,,11,,,,74,103
85562,note_on,1028,0,9,,,,,,,,,12,,,,62,101
85563,program_change,1027,0,10,,,,,,,,45,6,,,,,
85564,control_change,1,0,10,,,,,,,,,6,11,100,,,
85564,note_on,0,0,10,,,,,,,,,6,,,,46,39
85564,program_change,1027,0,11,,,,,,,,45,13,,,,,
85565,note_on,0,0,11,,,,,,,,,13,,,,46,43
85565,note_on,30,0,4,,,,,,,,,3,,,,46,95
85565,control_change,1,0,11,,,,,,,,,13,11,100,,,
85567,program_change,1027,0,12,,,,,,,,45,14,,,,,
85568,note_on,0,0,12,,,,,,,,,14,,,,34,36
85568,control_change,1,0,12,,,,,,,,,14,11,100,,,
85590,note_on,30,0,7,,,,,,,,,10,,,,58,0
85592,note_on,30,0,9,,,,,,,,,12,,,,62,0
85592,note_on,30,0,8,,,,,,,,,11,,,,74,0
85595,note_on,30,0,4,,,,,,,,,3,,,,46,0
85620,note_on,90,0,1,,,,,,,,,0,,,,84,77
85620,set_tempo,60,1,0,,,,,,1200000,,,,,,,,
85620,note_on,30,0,7,,,,,,,,,10,,,,63,103
85622,note_on,0,0,2,,,,,,,,,1,,,,79,76
85622,note_on,30,0,8,,,,,,,,,11,,,,79,103
85622,note_on,1140,0,2,,,,,,,,,1,,,,70,76
85622,note_on,30,0,9,,,,,,,,,12,,,,67,101
85623,note_on,0,0,3,,,,,,,,,2,,,,70,77
85623,note_on,1140,0,5,,,,,,,,,4,,,,60,82
85623,note_on,90,0,3,,,,,,,,,2,,,,72,77
85624,note_on,0,0,10,,,,,,,,,6,,,,39,39
85624,note_on,60,0,10,,,,,,,,,6,,,,46,0
85625,note_on,1140,0,6,,,,,,,,,5,,,,58,82
85625,note_on,0,0,11,,,,,,,,,13,,,,39,43
85625,note_on,60,0,11,,,,,,,,,13,,,,46,0
85625,note_on,30,0,4,,,,,,,,,3,,,,39,95
85625,note_on,0,0,4,,,,,,,,,3,,,,51,95
85628,note_on,60,0,12,,,,,,,,,14,,,,34,0
85628,note_on,0,0,12,,,,,,,,,14,,,,27,36
85650,set_tempo,30,1,0,,,,,,1428571,,,,,,,,
85650,note_on,30,0,7,,,,,,,,,10,,,,63,0
85652,note_on,30,0,9,,,,,,,,,12,,,,67,0
85652,note_on,30,0,8,,,,,,,,,11,,,,79,0
85655,note_on,0,0,4,,,,,,,,,3,,,,39,0
85655,note_on,30,0,4,,,,,,,,,3,,,,51,0
85670,note_on,50,0,1,,,,,,,,,0,,,,84,0
85672,note_on,0,0,2,,,,,,,,,1,,,,70,0
85672,note_on,50,0,2,,,,,,,,,1,,,,79,0
85673,note_on,0,0,3,,,,,,,,,2,,,,72,0
85673,note_on,50,0,3,,,,,,,,,2,,,,70,0
85678,note_on,55,0,5,,,,,,,,,4,,,,60,0
85680,note_on,30,0,7,,,,,,,,,10,,,,62,103
85680,set_tempo,30,1,0,,,,,,1000000,,,,,,,,
85680,note_on,55,0,6,,,,,,,,,5,,,,58,0
85680,note_on,10,0,1,,,,,,,,,0,,,,84,77
85682,note_on,0,0,2,,,,,,,,,1,,,,75,76
85682,note_on,30,0,9,,,,,,,,,12,,,,58,101
85682,note_on,30,0,8,,,,,,,,,11,,,,60,103
85682,note_on,10,0,2,,,,,,,,,1,,,,70,76
85683,note_on,10,0,3,,,,,,,,,2,,,,70,77
85683,note_on,0,0,3,,,,,,,,,2,,,,72,77
85683,note_on,5,0,5,,,,,,,,,4,,,,60,82
85684,note_on,60,0,10,,,,,,,,,6,,,,39,0
85684,note_on,0,0,10,,,,,,,,,6,,,,41,39
85685,note_on,60,0,11,,,,,,,,,13,,,,39,0
85685,note_on,0,0,11,,,,,,,,,13,,,,41,43
85685,note_on,5,0,6,,,,,,,,,5,,,,58,82
85685,note_on,0,0,4,,,,,,,,,3,,,,41,95
85685,note_on,30,0,4,,,,,,,,,3,,,,48,95
85688,note_on,60,0,12,,,,,,,,,14,,,,27,0
85688,note_on,0,0,12,,,,,,,,,14,,,,29,36
85690,note_on,10,0,7,,,,,,,,,10,,,,62,0
85690,note_on,0,0,7,,,,,,,,,10,,,,60,103
85700,note_on,10,0,7,,,,,,,,,10,,,,60,0
85700,note_on,0,0,7,,,,,,,,,10,,,,62,103
85710,note_on,10,0,7,,,,,,,,,10,,,,62,0
85710,note_on,0,0,7,,,,,,,,,10,,,,60,103
85720,note_on,10,0,7,,,,,,,,,10,,,,60,0
85720,note_on,0,0,7,,,,,,,,,10,,,,62,103
85730,note_on,0,0,7,,,,,,,,,10,,,,60,103
85730,note_on,10,0,7,,,,,,,,,10,,,,62,0
85740,note_on,10,0,7,,,,,,,,,10,,,,62,103
85740,set_tempo,60,1,0,,,,,,937500,,,,,,,,
85742,note_on,2,0,7,,,,,,,,,10,,,,60,0
85750,note_on,8,0,7,,,,,,,,,10,,,,60,103
85752,note_on,2,0,7,,,,,,,,,10,,,,62,0
85760,note_on,8,0,7,,,,,,,,,10,,,,62,103
85762,note_on,2,0,7,,,,,,,,,10,,,,60,0
85770,control_change,90,0,1,,,,,,,,,0,11,47,,,
85770,note_on,8,0,7,,,,,,,,,10,,,,60,103
85772,note_on,2,0,7,,,,,,,,,10,,,,62,0
85772,control_change,90,0,2,,,,,,,,,1,11,47,,,
85773,control_change,3,0,1,,,,,,,,,0,11,44,,,
85773,control_change,90,0,3,,,,,,,,,2,11,47,,,
85775,control_change,3,0,2,,,,,,,,,1,11,44,,,
85776,control_change,3,0,1,,,,,,,,,0,11,41,,,
85776,control_change,3,0,3,,,,,,,,,2,11,44,,,
85778,control_change,3,0,2,,,,,,,,,1,11,41,,,
85779,control_change,3,0,3,,,,,,,,,2,11,41,,,
85780,control_change,4,0,1,,,,,,,,,0,11,38,,,
85780,note_on,8,0,7,,,,,,,,,10,,,,62,103
85782,note_on,2,0,7,,,,,,,,,10,,,,60,0
85782,control_change,4,0,2,,,,,,,,,1,11,38,,,
85783,control_change,4,0,3,,,,,,,,,2,11,38,,,
85783,control_change,3,0,1,,,,,,,,,0,11,35,,,
85785,control_change,3,0,2,,,,,,,,,1,11,35,,,
85786,control_change,3,0,3,,,,,,,,,2,11,35,,,
85787,control_change,4,0,1,,,,,,,,,0,11,32,,,
85789,control_change,4,0,2,,,,,,,,,1,11,32,,,
85790,control_change,3,0,1,,,,,,,,,0,11,29,,,
85790,control_change,4,0,3,,,,,,,,,2,11,32,,,
85790,note_on,8,0,7,,,,,,,,,10,,,,60,103
85792,control_change,3,0,2,,,,,,,,,1,11,29,,,
85792,note_on,2,0,7,,,,,,,,,10,,,,62,0
85793,control_change,3,0,3,,,,,,,,,2,11,29,,,
85794,control_change,4,0,1,,,,,,,,,0,11,26,,,
85796,control_change,4,0,2,,,,,,,,,1,11,26,,,
85797,control_change,4,0,3,,,,,,,,,2,11,26,,,
85797,control_change,3,0,1,,,,,,,,,0,11,23,,,
85799,control_change,3,0,2,,,,,,,,,1,11,23,,,
85800,note_on,8,0,7,,,,,,,,,10,,,,62,103
85800,control_change,3,0,3,,,,,,,,,2,11,23,,,
85800,note_on,3,0,1,,,,,,,,,0,,,,84,0
85802,note_on,2,0,7,,,,,,,,,10,,,,60,0
85802,note_on,120,0,8,,,,,,,,,11,,,,60,0
85802,note_on,120,0,9,,,,,,,,,12,,,,58,0
85802,note_on,0,0,2,,,,,,,,,1,,,,70,0
85802,note_on,3,0,2,,,,,,,,,1,,,,75,0
85803,note_on,3,0,3,,,,,,,,,2,,,,72,0
85803,note_on,120,0,5,,,,,,,,,4,,,,60,0
85803,note_on,0,0,3,,,,,,,,,2,,,,70,0
85804,note_on,120,0,10,,,,,,,,,6,,,,41,0
85805,note_on,120,0,11,,,,,,,,,13,,,,41,0
85805,note_on,0,0,4,,,,,,,,,3,,,,48,0
85805,note_on,120,0,6,,,,,,,,,5,,,,58,0
85805,note_on,120,0,4,,,,,,,,,3,,,,41,0
85808,note_on,120,0,12,,,,,,,,,14,,,,29,0
85810,note_on,8,0,7,,,,,,,,,10,,,,60,103
85812,note_on,2,0,7,,,,,,,,,10,,,,62,0
85820,note_on,8,0,7,,,,,,,,,10,,,,62,103
85822,note_on,2,0,7,,,,,,,,,10,,,,60,0
85830,note_on,8,0,7,,,,,,,,,10,,,,60,103
85832,note_on,2,0,7,,,,,,,,,10,,,,62,0
85840,note_on,8,0,7,,,,,,,,,10,,,,62,103
85842,note_on,2,0,7,,,,,,,,,10,,,,60,0
85850,note_on,8,0,7,,,,,,,,,10,,,,60,103
85852,note_on,2,0,7,,,,,,,,,10,,,,62,0
85860,set_tempo,120,1,0,,,,,,1200000,,,,,,,,
85860,note_on,8,0,7,,,,,,,,,10,,,,74,103
85862,note_on,2,0,7,,,,,,,,,10,,,,60,0
85870,note_on,0,0,7,,,,,,,,,10,,,,72,103
85870,note_on,8,0,7,,,,,,,,,10,,,,74,0
85880,note_on,0,0,7,,,,,,,,,10,,,,74,103
85880,note_on,10,0,7,,,,,,,,,10,,,,72,0
85890,note_on,10,0,7,,,,,,,,,10,,,,74,0
85890,note_on,0,0,7,,,,,,,,,10,,,,72,103
85900,note_on,10,0,7,,,,,,,,,10,,,,72,0
85900,note_on,0,0,7,,,,,,,,,10,,,,74,103
85910,note_on,0,0,7,,,,,,,,,10,,,,72,103
85910,note_on,10,0,7,,,,,,,,,10,,,,74,0
85920,set_tempo,60,1,0,,,,,,937500,,,,,,,,
85920,note_on,10,0,7,,,,,,,,,10,,,,74,103
85922,note_on,2,0,7,,,,,,,,,10,,,,72,0
85930,note_on,8,0,7,,,,,,,,,10,,,,72,103
85932,note_on,2,0,7,,,,,,,,,10,,,,74,0
85940,note_on,8,0,7,,,,,,,,,10,,,,74,103
85942,note_on,2,0,7,,,,,,,,,10,,,,72,0
85950,note_on,8,0,7,,,,,,,,,10,,,,72,103
85952,note_on,2,0,7,,,,,,,,,10,,,,74,0
85960,note_on,8,0,7,,,,,,,,,10,,,,74,103
85962,note_on,2,0,7,,,,,,,,,10,,,,72,0
85970,note_on,8,0,7,,,,,,,,,10,,,,72,103
85972,note_on,2,0,7,,,,,,,,,10,,,,74,0
85980,note_on,8,0,7,,,,,,,,,10,,,,74,103
85982,control_change,180,0,9,,,,,,,,,12,11,42,,,
85982,note_on,0,0,9,,,,,,,,,12,,,,58,101
85982,note_on,2,0,7,,,,,,,,,10,,,,72,0
85983,program_change,179,0,10,,,,,,,,42,6,,,,,
85984,control_change,1,0,10,,,,,,,,,6,11,42,,,
85984,note_on,0,0,10,,,,,,,,,6,,,,58,104
85990,note_on,8,0,7,,,,,,,,,10,,,,72,103
85992,note_on,2,0,7,,,,,,,,,10,,,,74,0
86000,note_on,8,0,7,,,,,,,,,10,,,,74,103
86000,control_change,18,0,9,,,,,,,,,12,11,45,,,
86002,note_on,2,0,7,,,,,,,,,10,,,,72,0
86002,control_change,18,0,10,,,,,,,,,6,11,45,,,
86010,note_on,8,0,7,,,,,,,,,10,,,,72,103
86012,note_on,2,0,7,,,,,,,,,10,,,,74,0
86018,control_change,18,0,9,,,,,,,,,12,11,48,,,
86020,note_on,8,0,7,,,,,,,,,10,,,,74,103
86020,control_change,18,0,10,,,,,,,,,6,11,48,,,
86027,note_on,7,0,7,,,,,,,,,10,,,,72,0
86030,note_on,3,0,7,,,,,,,,,10,,,,72,103
86036,control_change,18,0,9,,,,,,,,,12,11,51,,,
86037,note_on,7,0,7,,,,,,,,,10,,,,74,0
86037,note_on,1,0,9,,,,,,,,,12,,,,58,0
86038,control_change,18,0,10,,,,,,,,,6,11,51,,,
86039,note_on,1,0,10,,,,,,,,,6,,,,58,0
86040,note_on,0,0,7,,,,,,,,,10,,,,74,103
86040,control_change,3,0,7,,,,,,,,,10,11,47,,,
86040,set_tempo,120,1,0,,,,,,1034483,,,,,,,,
86040,note_on,0,0,1,,,,,,,,,0,,,,84,83
86040,control_change,240,0,1,,,,,,,,,0,11,52,,,
86041,program_change,239,0,8,,,,,,,,45,11,,,,,
86042,control_change,240,0,2,,,,,,,,,1,11,52,,,
86042,control_change,1,0,8,,,,,,,,,11,11,100,,,
86042,note_on,0,0,8,,,,,,,,,11,,,,57,41
86042,note_on,0,0,8,,,,,,,,,11,,,,65,41
86042,note_on,0,0,2,,,,,,,,,1,,,,75,82
86042,note_on,0,0,2,,,,,,,,,1,,,,69,82
86042,note_on,5,0,9,,,,,,,,,12,,,,58,101
86043,control_change,240,0,5,,,,,,,,,4,11,42,,,
86043,note_on,0,0,3,,,,,,,,,2,,,,72,83
86043,note_on,0,0,3,,,,,,,,,2,,,,69,83
86043,control_change,240,0,3,,,,,,,,,2,11,52,,,
86043,note_on,0,0,5,,,,,,,,,4,,,,60,82
86044,program_change,239,0,11,,,,,,,,48,13,,,,,
86044,note_on,5,0,10,,,,,,,,,6,,,,58,104
86045,control_change,0,0,4,,,,,,,,,3,11,47,,,
86045,control_change,0,0,6,,,,,,,,,5,11,42,,,
86045,note_on,240,0,6,,,,,,,,,5,,,,53,82
86045,note_on,0,0,4,,,,,,,,,3,,,,41,82
86045,note_on,240,0,4,,,,,,,,,3,,,,53,82
86045,control_change,1,0,11,,,,,,,,,13,11,52,,,
86045,note_on,0,0,11,,,,,,,,,13,,,,53,100
86047,program_change,239,0,12,,,,,,,,48,14,,,,,
86047,note_on,7,0,7,,,,,,,,,10,,,,72,0
86048,control_change,1,0,12,,,,,,,,,14,11,52,,,
86048,note_on,0,0,12,,,,,,,,,14,,,,41,96
86050,note_on,3,0,7,,,,,,,,,10,,,,72,103
86052,note_on,2,0,7,,,,,,,,,10,,,,74,0
86057,note_on,0,0,9,,,,,,,,,12,,,,57,101
86057,note_on,15,0,9,,,,,,,,,12,,,,58,0
86059,note_on,0,0,10,,,,,,,,,6,,,,57,104
86059,note_on,15,0,10,,,,,,,,,6,,,,58,0
86060,note_on,8,0,7,,,,,,,,,10,,,,74,103
86062,note_on,2,0,7,,,,,,,,,10,,,,72,0
86064,control_change,2,0,7,,,,,,,,,10,11,48,,,
86070,note_on,6,0,7,,,,,,,,,10,,,,72,103
86072,note_on,2,0,7,,,,,,,,,10,,,,74,0
86078,control_change,21,0,9,,,,,,,,,12,11,53,,,
86079,control_change,36,0,5,,,,,,,,,4,11,43,,,
86080,note_on,8,0,7,,,,,,,,,10,,,,74,103
86080,control_change,21,0,10,,,,,,,,,6,11,53,,,
86081,control_change,36,0,4,,,,,,,,,3,11,48,,,
86081,control_change,36,0,6,,,,,,,,,5,11,43,,,
86081,control_change,36,0,11,,,,,,,,,13,11,53,,,
86082,note_on,2,0,7,,,,,,,,,10,,,,72,0
86084,control_change,36,0,12,,,,,,,,,14,11,53,,,
86088,control_change,6,0,7,,,,,,,,,10,11,49,,,
86090,note_on,2,0,7,,,,,,,,,10,,,,72,103
86092,note_on,2,0,7,,,,,,,,,10,,,,74,0
86100,note_on,8,0,7,,,,,,,,,10,,,,74,103
86100,set_tempo,60,1,0,,,,,,937500,,,,,,,,
86102,note_on,24,0,9,,,,,,,,,12,,,,57,0
86102,note_on,0,0,9,,,,,,,,,12,,,,55,101
86102,note_on,2,0,7,,,,,,,,,10,,,,72,0
86104,note_on,24,0,10,,,,,,,,,6,,,,57,0
86104,note_on,0,0,10,,,,,,,,,6,,,,55,104
86110,note_on,8,0,7,,,,,,,,,10,,,,72,103
86112,note_on,2,0,7,,,,,,,,,10,,,,74,0
86112,control_change,0,0,7,,,,,,,,,10,11,50,,,
86114,control_change,12,0,9,,,,,,,,,12,11,54,,,
86115,control_change,36,0,5,,,,,,,,,4,11,44,,,
86116,control_change,12,0,10,,,,,,,,,6,11,54,,,
86117,control_change,36,0,6,,,,,,,,,5,11,44,,,
86117,control_change,36,0,4,,,,,,,,,3,11,49,,,
86117,control_change,36,0,11,,,,,,,,,13,11,54,,,
86120,control_change,36,0,12,,,,,,,,,14,11,54,,,
86120,note_on,8,0,7,,,,,,,,,10,,,,74,103
86122,note_on,2,0,7,,,,,,,,,10,,,,72,0
86130,note_on,8,0,7,,,,,,,,,10,,,,72,103
86130,control_change,90,0,1,,,,,,,,,0,11,52,,,
86132,note_on,2,0,7,,,,,,,,,10,,,,74,0
86132,control_change,90,0,2,,,,,,,,,1,11,52,,,
86133,control_change,3,0,1,,,,,,,,,0,11,49,,,
86133,control_change,90,0,3,,,,,,,,,2,11,52,,,
86135,control_change,3,0,2,,,,,,,,,1,11,49,,,
86136,control_change,3,0,1,,,,,,,,,0,11,46,,,
86136,control_change,3,0,3,,,,,,,,,2,11,49,,,
86136,control_change,4,0,7,,,,,,,,,10,11,51,,,
86138,control_change,3,0,2,,,,,,,,,1,11,46,,,
86139,control_change,3,0,3,,,,,,,,,2,11,46,,,
86140,control_change,4,0,1,,,,,,,,,0,11,43,,,
86140,note_on,4,0,7,,,,,,,,,10,,,,74,103
86142,control_change,4,0,2,,,,,,,,,1,11,43,,,
86142,note_on,2,0,7,,,,,,,,,10,,,,72,0
86143,control_change,4,0,3,,,,,,,,,2,11,43,,,
86143,control_change,3,0,1,,,,,,,,,0,11,40,,,
86145,control_change,3,0,2,,,,,,,,,1,11,40,,,
86146,control_change,3,0,3,,,,,,,,,2,11,40,,,
86147,control_change,4,0,1,,,,,,,,,0,11,37,,,
86149,control_change,4,0,2,,,,,,,,,1,11,37,,,
86150,note_on,8,0,7,,,,,,,,,10,,,,72,103
86150,control_change,3,0,1,,,,,,,,,0,11,34,,,
86150,control_change,4,0,3,,,,,,,,,2,11,37,,,
86150,control_change,36,0,9,,,,,,,,,12,11,55,,,
86151,control_change,36,0,5,,,,,,,,,4,11,45,,,
86152,control_change,3,0,2,,,,,,,,,1,11,34,,,
86152,note_on,2,0,7,,,,,,,,,10,,,,74,0
86152,control_change,36,0,10,,,,,,,,,6,11,55,,,
86153,control_change,36,0,6,,,,,,,,,5,11,45,,,
86153,control_change,36,0,11,,,,,,,,,13,11,55,,,
86153,control_change,3,0,3,,,,,,,,,2,11,34,,,
86153,control_change,36,0,4,,,,,,,,,3,11,50,,,
86154,control_change,4,0,1,,,,,,,,,0,11,31,,,
86156,control_change,36,0,12,,,,,,,,,14,11,55,,,
86156,control_change,4,0,2,,,,,,,,,1,11,31,,,
86157,control_change,3,0,1,,,,,,,,,0,11,28,,,
86157,control_change,4,0,3,,,,,,,,,2,11,31,,,
86159,control_change,3,0,2,,,,,,,,,1,11,28,,,
86160,control_change,3,0,3,,,,,,,,,2,11,28,,,
86160,control_change,8,0,7,,,,,,,,,10,11,52,,,
86160,note_on,3,0,1,,,,,,,,,0,,,,84,0
86160,note_on,0,0,7,,,,,,,,,10,,,,74,103
86162,note_on,0,0,8,,,,,,,,,11,,,,57,0
86162,note_on,0,0,9,,,,,,,,,12,,,,53,101
86162,note_on,12,0,9,,,,,,,,,12,,,,55,0
86162,note_on,0,0,2,,,,,,,,,1,,,,69,0
86162,note_on,2,0,7,,,,,,,,,10,,,,72,0
86162,note_on,120,0,8,,,,,,,,,11,,,,65,0
86162,note_on,3,0,2,,,,,,,,,1,,,,75,0
86163,note_on,12,0,5,,,,,,,,,4,,,,60,0
86163,note_on,0,0,3,,,,,,,,,2,,,,69,0
86163,note_on,3,0,3,,,,,,,,,2,,,,72,0
86164,note_on,12,0,10,,,,,,,,,6,,,,55,0
86164,note_on,0,0,10,,,,,,,,,6,,,,53,104
86165,note_on,12,0,6,,,,,,,,,5,,,,53,0
86165,note_on,12,0,4,,,,,,,,,3,,,,41,0
86165,note_on,0,0,4,,,,,,,,,3,,,,53,0
86170,note_on,8,0,7,,,,,,,,,10,,,,72,103
86172,note_on,2,0,7,,,,,,,,,10,,,,74,0
86180,note_on,8,0,7,,,,,,,,,10,,,,74,103
86182,note_on,2,0,7,,,,,,,,,10,,,,72,0
86184,control_change,2,0,7,,,,,,,,,10,11,53,,,
86186,control_change,24,0,9,,,,,,,,,12,11,56,,,
86187,control_change,24,0,5,,,,,,,,,4,11,46,,,
86188,control_change,24,0,10,,,,,,,,,6,11,56,,,
86189,control_change,24,0,6,,,,,,,,,5,11,46,,,
86189,control_change,36,0,11,,,,,,,,,13,11,56,,,
86190,note_on,6,0,7,,,,,,,,,10,,,,72,103
86192,control_change,36,0,12,,,,,,,,,14,11,56,,,
86192,note_on,2,0,7,,,,,,,,,10,,,,74,0
86200,note_on,8,0,7,,,,,,,,,10,,,,74,103
86202,note_on,2,0,7,,,,,,,,,10,,,,72,0
86208,control_change,6,0,7,,,,,,,,,10,11,54,,,
86210,note_on,2,0,7,,,,,,,,,10,,,,72,103
86212,note_on,2,0,7,,,,,,,,,10,,,,74,0
86217,note_on,31,0,9,,,,,,,,,12,,,,53,0
86219,note_on,31,0,10,,,,,,,,,6,,,,53,0
86220,note_on,8,0,7,,,,,,,,,10,,,,74,103
86220,set_tempo,120,1,0,,,,,,1034483,,,,,,,,
86222,note_on,0,0,9,,,,,,,,,12,,,,53,101
86222,note_on,2,0,7,,,,,,,,,10,,,,72,0
86222,control_change,5,0,9,,,,,,,,,12,11,57,,,
86223,control_change,36,0,5,,,,,,,,,4,11,47,,,
86224,note_on,0,0,10,,,,,,,,,6,,,,53,104
86224,control_change,5,0,10,,,,,,,,,6,11,57,,,
86225,control_change,36,0,6,,,,,,,,,5,11,47,,,
86225,control_change,36,0,11,,,,,,,,,13,11,57,,,
86228,control_change,36,0,12,,,,,,,,,14,11,57,,,
86230,note_on,8,0,7,,,,,,,,,10,,,,72,103
86232,note_on,2,0,7,,,,,,,,,10,,,,74,0
86232,control_change,0,0,7,,,,,,,,,10,11,55,,,
86240,note_on,8,0,7,,,,,,,,,10,,,,74,103
86242,note_on,2,0,7,,,,,,,,,10,,,,72,0
86250,note_on,8,0,7,,,,,,,,,10,,,,72,103
86252,note_on,2,0,7,,,,,,,,,10,,,,74,0
86256,control_change,4,0,7,,,,,,,,,10,11,56,,,
86258,control_change,36,0,9,,,,,,,,,12,11,58,,,
86259,control_change,36,0,5,,,,,,,,,4,11,48,,,
86260,note_on,4,0,7,,,,,,,,,10,,,,74,103
86260,control_change,36,0,10,,,,,,,,,6,11,58,,,
86261,control_change,36,0,11,,,,,,,,,13,11,58,,,
86261,control_change,36,0,6,,,,,,,,,5,11,48,,,
86262,note_on,2,0,7,,,,,,,,,10,,,,72,0
86264,control_change,36,0,12,,,,,,,,,14,11,58,,,
86270,note_on,8,0,7,,,,,,,,,10,,,,72,103
86272,note_on,2,0,7,,,,,,,,,10,,,,74,0
86280,control_change,8,0,7,,,,,,,,,10,11,57,,,
86280,set_tempo,60,1,0,,,,,,937500,,,,,,,,
86280,note_on,0,0,7,,,,,,,,,10,,,,74,103
86282,note_on,2,0,7,,,,,,,,,10,,,,72,0
86282,note_on,0,0,9,,,,,,,,,12,,,,55,101
86282,note_on,24,0,9,,,,,,,,,12,,,,53,0
86284,note_on,0,0,10,,,,,,,,,6,,,,55,104
86284,note_on,24,0,10,,,,,,,,,6,,,,53,0
86290,note_on,8,0,7,,,,,,,,,10,,,,72,103
86292,note_on,2,0,7,,,,,,,,,10,,,,74,0
86294,control_change,12,0,9,,,,,,,,,12,11,59,,,
86295,control_change,36,0,5,,,,,,,,,4,11,49,,,
86296,control_change,12,0,10,,,,,,,,,6,11,59,,,
86297,control_change,36,0,6,,,,,,,,,5,11,49,,,
86297,control_change,36,0,11,,,,,,,,,13,11,59,,,
86300,control_change,36,0,12,,,,,,,,,14,11,59,,,
86300,note_on,8,0,7,,,,,,,,,10,,,,74,103
86302,note_on,2,0,7,,,,,,,,,10,,,,72,0
86304,control_change,2,0,7,,,,,,,,,10,11,58,,,
86310,note_on,6,0,7,,,,,,,,,10,,,,72,103
86312,note_on,2,0,7,,,,,,,,,10,,,,74,0
86320,note_on,8,0,7,,,,,,,,,10,,,,74,103
86322,note_on,2,0,7,,,,,,,,,10,,,,72,0
86328,control_change,6,0,7,,,,,,,,,10,11,59,,,
86330,note_on,2,0,7,,,,,,,,,10,,,,72,103
86330,control_change,36,0,9,,,,,,,,,12,11,60,,,
86331,control_change,36,0,5,,,,,,,,,4,11,50,,,
86332,control_change,36,0,10,,,,,,,,,6,11,60,,,
86332,note_on,2,0,7,,,,,,,,,10,,,,74,0
86333,control_change,36,0,11,,,,,,,,,13,11,60,,,
86333,control_change,36,0,6,,,,,,,,,5,11,50,,,
86336,control_change,36,0,12,,,,,,,,,14,11,60,,,
86340,note_on,8,0,7,,,,,,,,,10,,,,74,103
86342,note_on,0,0,9,,,,,,,,,12,,,,57,101
86342,note_on,2,0,7,,,,,,,,,10,,,,72,0
86342,note_on,12,0,9,,,,,,,,,12,,,,55,0
86344,note_on,12,0,10,,,,,,,,,6,,,,55,0
86344,note_on,0,0,10,,,,,,,,,6,,,,57,104
86349,note_on,7,0,7,,,,,,,,,10,,,,72,103
86351,note_on,2,0,7,,,,,,,,,10,,,,74,0
86352,control_change,1,0,7,,,,,,,,,10,11,60,,,
86359,note_on,7,0,7,,,,,,,,,10,,,,74,103
86360,note_on,1,0,7,,,,,,,,,10,,,,72,0
86366,control_change,24,0,9,,,,,,,,,12,11,61,,,
86367,control_change,36,0,5,,,,,,,,,4,11,51,,,
86368,control_change,24,0,10,,,,,,,,,6,11,61,,,
86368,note_on,8,0,7,,,,,,,,,10,,,,72,103
86369,control_change,36,0,6,,,,,,,,,5,11,51,,,
86369,control_change,36,0,11,,,,,,,,,13,11,61,,,
86370,note_on,2,0,7,,,,,,,,,10,,,,74,0
86372,control_change,36,0,12,,,,,,,,,14,11,61,,,
86376,control_change,6,0,7,,,,,,,,,10,11,61,,,
86378,note_on,2,0,7,,,,,,,,,10,,,,74,103
86379,note_on,1,0,7,,,,,,,,,10,,,,72,0
86385,set_tempo,105,1,0,,,,,,1263158,,,,,,,,
86387,note_on,8,0,7,,,,,,,,,10,,,,72,103
86388,note_on,1,0,7,,,,,,,,,10,,,,74,0
86397,note_on,9,0,7,,,,,,,,,10,,,,72,0
86397,note_on,31,0,9,,,,,,,,,12,,,,57,0
86399,note_on,31,0,10,,,,,,,,,6,,,,57,0
86400,set_tempo,15,1,0,,,,,,1034483,,,,,,,,
86400,note_on,0,0,7,,,,,,,,,10,,,,70,85
86400,control_change,3,0,7,,,,,,,,,10,11,62,,,
86400,control_change,240,0,1,,,,,,,,,0,11,57,,,
86400,note_on,0,0,1,,,,,,,,,0,,,,82,83
86400,note_on,31,0,11,,,,,,,,,13,,,,53,0
86402,control_change,240,0,2,,,,,,,,,1,11,57,,,
86402,note_on,0,0,2,,,,,,,,,1,,,,65,82
86402,note_on,240,0,8,,,,,,,,,11,,,,62,41
86402,control_change,5,0,9,,,,,,,,,12,11,62,,,
86402,note_on,0,0,9,,,,,,,,,12,,,,58,101
86402,note_on,0,0,2,,,,,,,,,1,,,,74,82
86402,note_on,0,0,8,,,,,,,,,11,,,,65,41
86403,control_change,36,0,5,,,,,,,,,4,11,52,,,
86403,note_on,0,0,3,,,,,,,,,2,,,,70,83
86403,note_on,31,0,12,,,,,,,,,14,,,,41,0
86403,control_change,240,0,3,,,,,,,,,2,11,57,,,
86403,note_on,0,0,3,,,,,,,,,2,,,,65,83
86403,note_on,0,0,5,,,,,,,,,4,,,,58,82
86404,note_on,0,0,10,,,,,,,,,6,,,,58,104
86404,control_change,5,0,10,,,,,,,,,6,11,62,,,
86405,note_on,0,0,11,,,,,,,,,13,,,,58,100
86405,control_change,0,0,4,,,,,,,,,3,11,55,,,
86405,control_change,0,0,6,,,,,,,,,5,11,52,,,
86405,note_on,36,0,6,,,,,,,,,5,,,,50,82
86405,control_change,5,0,11,,,,,,,,,13,11,62,,,
86405,note_on,240,0,4,,,,,,,,,3,,,,46,82
86408,note_on,0,0,12,,,,,,,,,14,,,,46,96
86408,control_change,5,0,12,,,,,,,,,14,11,62,,,
86439,control_change,36,0,5,,,,,,,,,4,11,53,,,
86441,control_change,36,0,6,,,,,,,,,5,11,53,,,
86441,control_change,36,0,4,,,,,,,,,3,11,56,,,
86454,control_change,54,0,7,,,,,,,,,10,11,63,,,
86456,control_change,54,0,9,,,,,,,,,12,11,63,,,
86458,control_change,54,0,10,,,,,,,,,6,11,63,,,
86459,control_change,54,0,11,,,,,,,,,13,11,63,,,
86460,set_tempo,60,1,0,,,,,,937500,,,,,,,,
86462,control_change,54,0,12,,,,,,,,,14,11,63,,,
86475,control_change,36,0,5,,,,,,,,,4,11,54,,,
86477,control_change,36,0,4,,,,,,,,,3,11,57,,,
86477,control_change,36,0,6,,,,,,,,,5,11,54,,,
86490,control_change,90,0,1,,,,,,,,,0,11,57,,,
86492,control_change,90,0,2,,,,,,,,,1,11,57,,,
86493,control_change,90,0,3,,,,,,,,,2,11,57,,,
86493,control_change,3,0,1,,,,,,,,,0,11,54,,,
86495,control_change,3,0,2,,,,,,,,,1,11,54,,,
86496,control_change,3,0,3,,,,,,,,,2,11,54,,,
86496,control_change,3,0,1,,,,,,,,,0,11,51,,,
86498,control_change,3,0,2,,,,,,,,,1,11,51,,,
86499,control_change,3,0,3,,,,,,,,,2,11,51,,,
86500,control_change,4,0,1,,,,,,,,,0,11,48,,,
86502,control_change,4,0,2,,,,,,,,,1,11,48,,,
86503,control_change,4,0,3,,,,,,,,,2,11,48,,,
86503,control_change,3,0,1,,,,,,,,,0,11,45,,,
86505,control_change,3,0,2,,,,,,,,,1,11,45,,,
86506,control_change,3,0,3,,,,,,,,,2,11,45,,,
86507,control_change,4,0,1,,,,,,,,,0,11,42,,,
86508,control_change,54,0,7,,,,,,,,,10,11,64,,,
86509,control_change,4,0,2,,,,,,,,,1,11,42,,,
86510,control_change,4,0,3,,,,,,,,,2,11,42,,,
86510,control_change,3,0,1,,,,,,,,,0,11,39,,,
86510,control_change,54,0,9,,,,,,,,,12,11,64,,,
86511,control_change,36,0,5,,,,,,,,,4,11,55,,,
86512,control_change,54,0,10,,,,,,,,,6,11,64,,,
86512,control_change,3,0,2,,,,,,,,,1,11,39,,,
86513,control_change,36,0,4,,,,,,,,,3,11,58,,,
86513,control_change,36,0,6,,,,,,,,,5,11,55,,,
86513,control_change,54,0,11,,,,,,,,,13,11,64,,,
86513,control_change,3,0,3,,,,,,,,,2,11,39,,,
86514,control_change,4,0,1,,,,,,,,,0,11,36,,,
86516,control_change,54,0,12,,,,,,,,,14,11,64,,,
86516,control_change,4,0,2,,,,,,,,,1,11,36,,,
86517,control_change,4,0,3,,,,,,,,,2,11,36,,,
86517,control_change,3,0,1,,,,,,,,,0,11,33,,,
86519,control_change,3,0,2,,,,,,,,,1,11,33,,,
86520,note_on,3,0,1,,,,,,,,,0,,,,82,0
86520,note_on,12,0,7,,,,,,,,,10,,,,70,0
86520,control_change,3,0,3,,,,,,,,,2,11,33,,,
86522,note_on,0,0,8,,,,,,,,,11,,,,62,0
86522,note_on,120,0,8,,,,,,,,,11,,,,65,0
86522,note_on,3,0,2,,,,,,,,,1,,,,74,0
86522,note_on,0,0,2,,,,,,,,,1,,,,65,0
86523,note_on,0,0,3,,,,,,,,,2,,,,65,0
86523,note_on,3,0,3,,,,,,,,,2,,,,70,0
86523,note_on,12,0,5,,,,,,,,,4,,,,58,0
86525,note_on,12,0,6,,,,,,,,,5,,,,50,0
86525,note_on,12,0,4,,,,,,,,,3,,,,46,0
86547,control_change,24,0,5,,,,,,,,,4,11,56,,,
86549,control_change,24,0,6,,,,,,,,,5,11,56,,,
86562,control_change,42,0,7,,,,,,,,,10,11,65,,,
86564,control_change,54,0,9,,,,,,,,,12,11,65,,,
86566,control_change,54,0,10,,,,,,,,,6,11,65,,,
86567,control_change,54,0,11,,,,,,,,,13,11,65,,,
86570,control_change,54,0,12,,,,,,,,,14,11,65,,,
86580,set_tempo,120,1,0,,,,,,1034483,,,,,,,,
86583,control_change,36,0,5,,,,,,,,,4,11,57,,,
86585,control_change,36,0,6,,,,,,,,,5,11,57,,,
86616,control_change,54,0,7,,,,,,,,,10,11,66,,,
86618,control_change,54,0,9,,,,,,,,,12,11,66,,,
86619,control_change,36,0,5,,,,,,,,,4,11,58,,,
86620,control_change,54,0,10,,,,,,,,,6,11,66,,,
86621,control_change,36,0,6,,,,,,,,,5,11,58,,,
86621,control_change,54,0,11,,,,,,,,,13,11,66,,,
86624,control_change,54,0,12,,,,,,,,,14,11,66,,,
86640,set_tempo,60,1,0,,,,,,937500,,,,,,,,
86642,note_on,24,0,9,,,,,,,,,12,,,,58,0
86642,note_on,0,0,9,,,,,,,,,12,,,,60,101
86644,note_on,0,0,10,,,,,,,,,6,,,,60,104
86644,note_on,24,0,10,,,,,,,,,6,,,,58,0
86655,control_change,36,0,5,,,,,,,,,4,11,59,,,
86657,control_change,36,0,6,,,,,,,,,5,11,59,,,
86670,control_change,54,0,7,,,,,,,,,10,11,67,,,
86672,control_change,30,0,9,,,,,,,,,12,11,67,,,
86674,control_change,30,0,10,,,,,,,,,6,11,67,,,
86675,control_change,54,0,11,,,,,,,,,13,11,67,,,
86678,control_change,54,0,12,,,,,,,,,14,11,67,,,
86691,control_change,36,0,5,,,,,,,,,4,11,60,,,
86693,control_change,36,0,6,,,,,,,,,5,11,60,,,
86700,note_on,30,0,7,,,,,,,,,10,,,,70,103
86702,note_on,0,0,9,,,,,,,,,12,,,,62,101
86702,note_on,30,0,9,,,,,,,,,12,,,,60,0
86704,note_on,30,0,10,,,,,,,,,6,,,,60,0
86704,note_on,0,0,10,,,,,,,,,6,,,,62,104
86724,control_change,24,0,7,,,,,,,,,10,11,68,,,
86726,control_change,24,0,9,,,,,,,,,12,11,68,,,
86727,control_change,36,0,5,,,,,,,,,4,11,61,,,
86728,control_change,24,0,10,,,,,,,,,6,11,68,,,
86729,control_change,54,0,11,,,,,,,,,13,11,68,,,
86729,control_change,36,0,6,,,,,,,,,5,11,61,,,
86732,control_change,54,0,12,,,,,,,,,14,11,68,,,
86755,note_on,31,0,7,,,,,,,,,10,,,,70,0
86757,note_on,31,0,9,,,,,,,,,12,,,,62,0
86759,note_on,31,0,10,,,,,,,,,6,,,,62,0
86760,note_on,5,0,7,,,,,,,,,10,,,,70,103
86760,note_on,31,0,11,,,,,,,,,13,,,,58,0
86760,set_tempo,120,1,0,,,,,,1034483,,,,,,,,
86762,note_on,5,0,9,,,,,,,,,12,,,,65,101
86763,note_on,0,0,5,,,,,,,,,4,,,,65,82
86763,control_change,36,0,5,,,,,,,,,4,11,62,,,
86763,note_on,31,0,12,,,,,,,,,14,,,,46,0
86764,note_on,5,0,10,,,,,,,,,6,,,,65,104
86765,note_on,5,0,11,,,,,,,,,13,,,,53,100
86765,control_change,36,0,6,,,,,,,,,5,11,62,,,
86765,note_on,0,0,6,,,,,,,,,5,,,,65,82
86768,note_on,5,0,12,,,,,,,,,14,,,,41,96
86775,note_on,15,0,7,,,,,,,,,10,,,,70,0
86775,note_on,0,0,7,,,,,,,,,10,,,,69,103
86777,note_on,15,0,9,,,,,,,,,12,,,,65,0
86777,note_on,0,0,9,,,,,,,,,12,,,,63,101
86778,control_change,3,0,7,,,,,,,,,10,11,69,,,
86779,note_on,0,0,10,,,,,,,,,6,,,,63,104
86779,note_on,15,0,10,,,,,,,,,6,,,,65,0
86780,control_change,3,0,9,,,,,,,,,12,11,69,,,
86782,control_change,3,0,10,,,,,,,,,6,11,69,,,
86783,control_change,18,0,11,,,,,,,,,13,11,69,,,
86786,control_change,18,0,12,,,,,,,,,14,11,69,,,
86799,control_change,36,0,5,,,,,,,,,4,11,63,,,
86801,control_change,36,0,6,,,,,,,,,5,11,63,,,
86820,note_on,42,0,7,,,,,,,,,10,,,,69,0
86820,set_tempo,60,1,0,,,,,,937500,,,,,,,,
86820,note_on,0,0,7,,,,,,,,,10,,,,67,103
86832,control_change,12,0,7,,,,,,,,,10,11,70,,,
86834,control_change,54,0,9,,,,,,,,,12,11,70,,,
86835,control_change,36,0,5,,,,,,,,,4,11,64,,,
86836,control_change,54,0,10,,,,,,,,,6,11,70,,,
86837,control_change,36,0,6,,,,,,,,,5,11,64,,,
86837,control_change,54,0,11,,,,,,,,,13,11,70,,,
86840,control_change,54,0,12,,,,,,,,,14,11,70,,,
86871,control_change,36,0,5,,,,,,,,,4,11,65,,,
86873,control_change,36,0,6,,,,,,,,,5,11,65,,,
86880,note_on,48,0,7,,,,,,,,,10,,,,67,0
86880,note_on,0,0,7,,,,,,,,,10,,,,65,103
86882,note_on,48,0,9,,,,,,,,,12,,,,63,0
86882,note_on,0,0,9,,,,,,,,,12,,,,62,101
86884,note_on,0,0,10,,,,,,,,,6,,,,62,104
86884,note_on,48,0,10,,,,,,,,,6,,,,63,0
86886,control_change,6,0,7,,,,,,,,,10,11,71,,,
86888,control_change,6,0,9,,,,,,,,,12,11,71,,,
86890,control_change,6,0,10,,,,,,,,,6,11,71,,,
86891,control_change,54,0,11,,,,,,,,,13,11,71,,,
86894,control_change,54,0,12,,,,,,,,,14,11,71,,,
86907,control_change,36,0,5,,,,,,,,,4,11,66,,,
86909,control_change,36,0,6,,,,,,,,,5,11,66,,,
86935,note_on,49,0,7,,,,,,,,,10,,,,65,0
86937,note_on,49,0,9,,,,,,,,,12,,,,62,0
86939,note_on,49,0,10,,,,,,,,,6,,,,62,0
86940,set_tempo,120,1,0,,,,,,1034483,,,,,,,,
86940,note_on,0,0,7,,,,,,,,,10,,,,65,103
86940,control_change,5,0,7,,,,,,,,,10,11,72,,,
86942,control_change,5,0,9,,,,,,,,,12,11,72,,,
86942,note_on,0,0,9,,,,,,,,,12,,,,60,101
86943,control_change,36,0,5,,,,,,,,,4,11,67,,,
86944,control_change,5,0,10,,,,,,,,,6,11,72,,,
86944,note_on,0,0,10,,,,,,,,,6,,,,60,104
86945,control_change,54,0,11,,,,,,,,,13,11,72,,,
86945,control_change,36,0,6,,,,,,,,,5,11,67,,,
86948,control_change,54,0,12,,,,,,,,,14,11,72,,,
86979,control_change,36,0,5,,,,,,,,,4,11,68,,,
86981,control_change,36,0,6,,,,,,,,,5,11,68,,,
86994,control_change,54,0,7,,,,,,,,,10,11,73,,,
86996,control_change,54,0,9,,,,,,,,,12,11,73,,,
86998,control_change,54,0,10,,,,,,,,,6,11,73,,,
86999,control_change,54,0,11,,,,,,,,,13,11,73,,,
87000,set_tempo,60,1,0,,,,,,937500,,,,,,,,
87000,note_on,6,0,7,,,,,,,,,10,,,,65,0
87000,note_on,0,0,7,,,,,,,,,10,,,,67,103
87002,control_change,54,0,12,,,,,,,,,14,11,73,,,
87015,control_change,36,0,5,,,,,,,,,4,11,69,,,
87017,control_change,36,0,6,,,,,,,,,5,11,69,,,
87048,control_change,48,0,7,,,,,,,,,10,11,74,,,
87050,control_change,54,0,9,,,,,,,,,12,11,74,,,
87051,control_change,36,0,5,,,,,,,,,4,11,70,,,
87052,control_change,54,0,10,,,,,,,,,6,11,74,,,
87053,control_change,36,0,6,,,,,,,,,5,11,70,,,
87053,control_change,54,0,11,,,,,,,,,13,11,74,,,
87056,control_change,54,0,12,,,,,,,,,14,11,74,,,
87060,note_on,12,0,7,,,,,,,,,10,,,,67,0
87060,note_on,0,0,7,,,,,,,,,10,,,,69,103
87061,program_change,539,0,8,,,,,,,,48,11,,,,,
87062,note_on,12,0,9,,,,,,,,,12,,,,60,0
87062,note_on,0,0,9,,,,,,,,,12,,,,65,101
87062,note_on,0,0,8,,,,,,,,,11,,,,77,103
87062,control_change,1,0,8,,,,,,,,,11,11,72,,,
87064,note_on,0,0,10,,,,,,,,,6,,,,65,104
87064,note_on,12,0,10,,,,,,,,,6,,,,60,0
87087,control_change,36,0,5,,,,,,,,,4,11,71,,,
87089,control_change,36,0,6,,,,,,,,,5,11,71,,,
87102,control_change,42,0,7,,,,,,,,,10,11,75,,,
87104,control_change,42,0,9,,,,,,,,,12,11,75,,,
87104,control_change,42,0,8,,,,,,,,,11,11,73,,,
87106,control_change,42,0,10,,,,,,,,,6,11,75,,,
87107,control_change,54,0,11,,,,,,,,,13,11,75,,,
87110,control_change,54,0,12,,,,,,,,,14,11,75,,,
87115,note_on,13,0,7,,,,,,,,,10,,,,69,0
87117,note_on,13,0,9,,,,,,,,,12,,,,65,0
87117,note_on,13,0,8,,,,,,,,,11,,,,77,0
87118,note_on,31,0,5,,,,,,,,,4,,,,65,0
87119,note_on,13,0,10,,,,,,,,,6,,,,65,0
87120,note_on,31,0,6,,,,,,,,,5,,,,65,0
87120,note_on,13,0,11,,,,,,,,,13,,,,53,0
87120,note_on,5,0,7,,,,,,,,,10,,,,70,103
87120,set_tempo,120,1,0,,,,,,1034483,,,,,,,,
87122,note_on,5,0,9,,,,,,,,,12,,,,62,101
87122,note_on,5,0,8,,,,,,,,,11,,,,79,103
87123,note_on,13,0,12,,,,,,,,,14,,,,41,0
87123,control_change,0,0,5,,,,,,,,,4,11,72,,,
87123,note_on,5,0,5,,,,,,,,,4,,,,65,82
87124,note_on,5,0,10,,,,,,,,,6,,,,62,104
87125,note_on,5,0,11,,,,,,,,,13,,,,46,100
87125,control_change,5,0,6,,,,,,,,,5,11,72,,,
87125,note_on,0,0,6,,,,,,,,,5,,,,53,82
87128,note_on,5,0,12,,,,,,,,,14,,,,34,96
87137,note_on,15,0,8,,,,,,,,,11,,,,79,0
87137,note_on,0,0,8,,,,,,,,,11,,,,77,103
87146,control_change,9,0,8,,,,,,,,,11,11,74,,,
87156,control_change,36,0,7,,,,,,,,,10,11,76,,,
87158,control_change,36,0,9,,,,,,,,,12,11,76,,,
87159,control_change,36,0,5,,,,,,,,,4,11,73,,,
87160,control_change,36,0,10,,,,,,,,,6,11,76,,,
87161,control_change,36,0,6,,,,,,,,,5,11,73,,,
87161,control_change,36,0,11,,,,,,,,,13,11,76,,,
87164,control_change,36,0,12,,,,,,,,,14,11,76,,,
87180,set_tempo,60,1,0,,,,,,937500,,,,,,,,
87182,note_on,0,0,8,,,,,,,,,11,,,,75,103
87182,note_on,36,0,8,,,,,,,,,11,,,,77,0
87188,control_change,6,0,8,,,,,,,,,11,11,75,,,
87195,control_change,36,0,5,,,,,,,,,4,11,74,,,
87197,control_change,36,0,6,,,,,,,,,5,11,74,,,
87210,control_change,54,0,7,,,,,,,,,10,11,77,,,
87212,control_change,54,0,9,,,,,,,,,12,11,77,,,
87214,control_change,54,0,10,,,,,,,,,6,11,77,,,
87215,control_change,54,0,11,,,,,,,,,13,11,77,,,
87218,control_change,54,0,12,,,,,,,,,14,11,77,,,
87230,control_change,42,0,8,,,,,,,,,11,11,76,,,
87231,control_change,36,0,5,,,,,,,,,4,11,75,,,
87233,control_change,36,0,6,,,,,,,,,5,11,75,,,
87242,note_on,12,0,8,,,,,,,,,11,,,,75,0
87242,note_on,0,0,8,,,,,,,,,11,,,,74,103
87264,control_change,54,0,7,,,,,,,,,10,11,78,,,
87266,control_change,54,0,9,,,,,,,,,12,11,78,,,
87267,control_change,36,0,5,,,,,,,,,4,11,76,,,
87268,control_change,54,0,10,,,,,,,,,6,11,78,,,
87269,control_change,54,0,11,,,,,,,,,13,11,78,,,
87269,control_change,36,0,6,,,,,,,,,5,11,76,,,
87270,note_on,6,0,7,,,,,,,,,10,,,,70,0
87270,note_on,0,0,7,,,,,,,,,10,,,,72,103
87272,control_change,30,0,8,,,,,,,,,11,11,77,,,
87272,control_change,54,0,12,,,,,,,,,14,11,78,,,
87280,note_on,10,0,7,,,,,,,,,10,,,,72,0
87280,note_on,0,0,7,,,,,,,,,10,,,,70,103
87290,note_on,0,0,7,,,,,,,,,10,,,,69,103
87290,note_on,10,0,7,,,,,,,,,10,,,,70,0
87297,note_on,25,0,8,,,,,,,,,11,,,,74,0
87300,note_on,0,0,7,,,,,,,,,10,,,,70,103
87300,note_on,10,0,7,,,,,,,,,10,,,,69,0
87300,set_tempo,120,1,0,,,,,,1034483,,,,,,,,
87302,note_on,5,0,8,,,,,,,,,11,,,,75,103
87303,control_change,36,0,5,,,,,,,,,4,11,77,,,
87305,control_change,36,0,6,,,,,,,,,5,11,77,,,
87314,control_change,12,0,8,,,,,,,,,11,11,78,,,
87317,note_on,3,0,8,,,,,,,,,11,,,,75,0
87317,note_on,0,0,8,,,,,,,,,11,,,,74,103
87318,control_change,18,0,7,,,,,,,,,10,11,79,,,
87320,control_change,54,0,9,,,,,,,,,12,11,79,,,
87322,control_change,54,0,10,,,,,,,,,6,11,79,,,
87323,control_change,54,0,11,,,,,,,,,13,11,79,,,
87326,control_change,54,0,12,,,,,,,,,14,11,79,,,
87339,control_change,36,0,5,,,,,,,,,4,11,78,,,
87341,control_change,36,0,6,,,,,,,,,5,11,78,,,
87356,control_change,39,0,8,,,,,,,,,11,11,79,,,
87360,set_tempo,60,1,0,,,,,,937500,,,,,,,,
87360,note_on,42,0,7,,,,,,,,,10,,,,70,0
87360,note_on,0,0,7,,,,,,,,,10,,,,72,103
87362,note_on,6,0,8,,,,,,,,,11,,,,74,0
87362,note_on,0,0,9,,,,,,,,,12,,,,60,101
87362,note_on,42,0,9,,,,,,,,,12,,,,62,0
87362,note_on,0,0,8,,,,,,,,,11,,,,72,103
87364,note_on,0,0,10,,,,,,,,,6,,,,60,104
87364,note_on,42,0,10,,,,,,,,,6,,,,62,0
87372,control_change,12,0,7,,,,,,,,,10,11,80,,,
87374,control_change,12,0,9,,,,,,,,,12,11,80,,,
87375,control_change,36,0,5,,,,,,,,,4,11,79,,,
87376,control_change,12,0,10,,,,,,,,,6,11,80,,,
87377,control_change,36,0,6,,,,,,,,,5,11,79,,,
87377,control_change,54,0,11,,,,,,,,,13,11,80,,,
87380,control_change,54,0,12,,,,,,,,,14,11,80,,,
87398,control_change,36,0,8,,,,,,,,,11,11,80,,,
87411,control_change,36,0,5,,,,,,,,,4,11,80,,,
87413,control_change,36,0,6,,,,,,,,,5,11,80,,,
87418,note_on,7,0,5,,,,,,,,,4,,,,65,0
87420,note_on,0,0,1,,,,,,,,,0,,,,65,96
87420,note_on,0,0,1,,,,,,,,,0,,,,77,96
87420,note_on,0,0,7,,,,,,,,,10,,,,74,103
87420,note_on,48,0,7,,,,,,,,,10,,,,72,0
87420,note_on,7,0,6,,,,,,,,,5,,,,53,0
87420,note_on,43,0,11,,,,,,,,,13,,,,46,0
87420,control_change,900,0,1,,,,,,,,,0,11,79,,,
87422,note_on,48,0,9,,,,,,,,,12,,,,60,0
87422,note_on,0,0,2,,,,,,,,,1,,,,82,95
87422,note_on,0,0,9,,,,,,,,,12,,,,58,101
87422,note_on,24,0,8,,,,,,,,,11,,,,72,0
87422,note_on,0,0,8,,,,,,,,,11,,,,70,103
87422,control_change,900,0,2,,,,,,,,,1,11,79,,,
87423,control_change,900,0,3,,,,,,,,,2,11,79,,,
87423,note_on,0,0,3,,,,,,,,,2,,,,70,96
87423,note_on,0,0,3,,,,,,,,,2,,,,74,96
87423,note_on,43,0,12,,,,,,,,,14,,,,34,0
87423,note_on,5,0,5,,,,,,,,,4,,,,65,82
87424,note_on,48,0,10,,,,,,,,,6,,,,60,0
87424,note_on,0,0,10,,,,,,,,,6,,,,58,104
87425,note_on,0,0,4,,,,,,,,,3,,,,58,95
87425,control_change,0,0,4,,,,,,,,,3,11,79,,,
87425,note_on,5,0,6,,,,,,,,,5,,,,53,82
87425,note_on,5,0,11,,,,,,,,,13,,,,53,100
87425,note_on,900,0,4,,,,,,,,,3,,,,62,95
87426,control_change,6,0,7,,,,,,,,,10,11,81,,,
87428,control_change,6,0,9,,,,,,,,,12,11,81,,,
87428,note_on,5,0,12,,,,,,,,,14,,,,41,96
87430,control_change,6,0,10,,,,,,,,,6,11,81,,,
87431,control_change,6,0,11,,,,,,,,,13,11,81,,,
87434,control_change,6,0,12,,,,,,,,,14,11,81,,,
87440,control_change,18,0,8,,,,,,,,,11,11,81,,,
87444,control_change,24,0,1,,,,,,,,,0,11,80,,,
87446,control_change,24,0,2,,,,,,,,,1,11,80,,,
87447,control_change,24,0,3,,,,,,,,,2,11,80,,,
87447,control_change,24,0,5,,,,,,,,,4,11,81,,,
87449,control_change,24,0,6,,,,,,,,,5,11,81,,,
87449,control_change,24,0,4,,,,,,,,,3,11,80,,,
87475,note_on,31,0,1,,,,,,,,,0,,,,77,0
87475,note_on,0,0,1,,,,,,,,,0,,,,65,0
87475,note_on,49,0,7,,,,,,,,,10,,,,74,0
87477,note_on,49,0,9,,,,,,,,,12,,,,58,0
87477,note_on,37,0,8,,,,,,,,,11,,,,70,0
87477,note_on,31,0,2,,,,,,,,,1,,,,82,0
87478,note_on,31,0,5,,,,,,,,,4,,,,65,0
87479,note_on,49,0,10,,,,,,,,,6,,,,58,0
87480,note_on,5,0,1,,,,,,,,,0,,,,65,96
87480,control_change,0,0,1,,,,,,,,,0,11,89,,,
87480,note_on,0,0,1,,,,,,,,,0,,,,77,96
87480,note_on,49,0,11,,,,,,,,,13,,,,53,0
87480,control_change,5,0,7,,,,,,,,,10,11,82,,,
87480,note_on,0,0,7,,,,,,,,,10,,,,77,103
87480,set_tempo,120,1,0,,,,,,1034483,,,,,,,,
87480,note_on,31,0,6,,,,,,,,,5,,,,53,0
87482,note_on,0,0,8,,,,,,,,,11,,,,75,103
87482,control_change,5,0,9,,,,,,,,,12,11,82,,,
87482,control_change,5,0,2,,,,,,,,,1,11,89,,,
87482,note_on,0,0,2,,,,,,,,,1,,,,82,95
87482,control_change,2,0,7,,,,,,,,,10,11,85,,,
87482,note_on,0,0,9,,,,,,,,,12,,,,63,101
87482,control_change,5,0,8,,,,,,,,,11,11,82,,,
87483,note_on,49,0,12,,,,,,,,,14,,,,41,0
87483,note_on,0,0,3,,,,,,,,,2,,,,70,0
87483,note_on,0,0,5,,,,,,,,,4,,,,65,82
87483,note_on,0,0,3,,,,,,,,,2,,,,72,96
87483,control_change,5,0,5,,,,,,,,,4,11,92,,,
87483,note_on,0,0,3,,,,,,,,,2,,,,75,96
87483,note_on,36,0,3,,,,,,,,,2,,,,74,0
87483,control_change,0,0,3,,,,,,,,,2,11,89,,,
87484,control_change,2,0,9,,,,,,,,,12,11,85,,,
87484,note_on,0,0,10,,,,,,,,,6,,,,53,104
87484,control_change,5,0,10,,,,,,,,,6,11,82,,,
87484,control_change,2,0,8,,,,,,,,,11,11,85,,,
87485,control_change,5,0,6,,,,,,,,,5,11,92,,,
87485,control_change,5,0,11,,,,,,,,,13,11,82,,,
87485,note_on,0,0,6,,,,,,,,,5,,,,53,82
87485,control_change,3,0,7,,,,,,,,,10,11,88,,,
87485,control_change,0,0,4,,,,,,,,,3,11,89,,,
87485,note_on,0,0,4,,,,,,,,,3,,,,60,95
87485,note_on,0,0,11,,,,,,,,,13,,,,41,100
87485,note_on,0,0,4,,,,,,,,,3,,,,62,0
87485,note_on,0,0,4,,,,,,,,,3,,,,63,95
87485,note_on,36,0,4,,,,,,,,,3,,,,58,0
87486,control_change,2,0,10,,,,,,,,,6,11,85,,,
87487,control_change,3,0,8,,,,,,,,,11,11,88,,,
87487,control_change,3,0,9,,,,,,,,,12,11,88,,,
87487,control_change,2,0,11,,,,,,,,,13,11,85,,,
87488,control_change,3,0,7,,,,,,,,,10,11,91,,,
87488,note_on,0,0,12,,,,,,,,,14,,,,29,96
87488,control_change,5,0,12,,,,,,,,,14,11,82,,,
87489,control_change,3,0,10,,,,,,,,,6,11,88,,,
87490,control_change,3,0,8,,,,,,,,,11,11,91,,,
87490,control_change,3,0,11,,,,,,,,,13,11,88,,,
87490,control_change,3,0,9,,,,,,,,,12,11,91,,,
87490,control_change,2,0,12,,,,,,,,,14,11,85,,,
87491,control_change,3,0,7,,,,,,,,,10,11,94,,,
87492,control_change,3,0,10,,,,,,,,,6,11,91,,,
87493,control_change,3,0,9,,,,,,,,,12,11,94,,,
87493,control_change,3,0,11,,,,,,,,,13,11,91,,,
87493,control_change,3,0,12,,,,,,,,,14,11,88,,,
87493,control_change,3,0,8,,,,,,,,,11,11,94,,,
87494,control_change,3,0,7,,,,,,,,,10,11,97,,,
87495,note_on,0,0,7,,,,,,,,,10,,,,75,103
87495,control_change,3,0,10,,,,,,,,,6,11,94,,,
87495,note_on,1,0,7,,,,,,,,,10,,,,77,0
87496,control_change,3,0,8,,,,,,,,,11,11,97,,,
87496,control_change,3,0,11,,,,,,,,,13,11,94,,,
87496,control_change,3,0,9,,,,,,,,,12,11,97,,,
87496,control_change,3,0,12,,,,,,,,,14,11,91,,,
87497,note_on,0,0,2,,,,,,,,,1,,,,81,95
87497,note_on,15,0,2,,,,,,,,,1,,,,82,0
87498,control_change,18,0,1,,,,,,,,,0,11,86,,,
87498,control_change,3,0,10,,,,,,,,,6,11,97,,,
87499,control_change,3,0,12,,,,,,,,,14,11,94,,,
87499,control_change,3,0,11,,,,,,,,,13,11,97,,,
87500,control_change,3,0,2,,,,,,,,,1,11,86,,,
87501,control_change,18,0,3,,,,,,,,,2,11,86,,,
87501,control_change,18,0,5,,,,,,,,,4,11,89,,,
87502,control_change,3,0,12,,,,,,,,,14,11,97,,,
87503,control_change,18,0,4,,,,,,,,,3,11,86,,,
87503,control_change,18,0,6,,,,,,,,,5,11,89,,,
87505,control_change,10,0,7,,,,,,,,,10,11,94,,,
87507,control_change,11,0,8,,,,,,,,,11,11,94,,,
87507,control_change,11,0,9,,,,,,,,,12,11,94,,,
87509,control_change,11,0,10,,,,,,,,,6,11,94,,,
87510,control_change,11,0,11,,,,,,,,,13,11,94,,,
87513,control_change,11,0,12,,,,,,,,,14,11,94,,,
87515,control_change,10,0,7,,,,,,,,,10,11,91,,,
87516,control_change,18,0,1,,,,,,,,,0,11,84,,,
87517,control_change,10,0,8,,,,,,,,,11,11,91,,,
87517,control_change,10,0,9,,,,,,,,,12,11,91,,,
87518,control_change,18,0,2,,,,,,,,,1,11,84,,,
87519,control_change,18,0,3,,,,,,,,,2,11,84,,,
87519,control_change,18,0,5,,,,,,,,,4,11,86,,,
87519,control_change,10,0,10,,,,,,,,,6,11,91,,,
87520,control_change,10,0,11,,,,,,,,,13,11,91,,,
87521,control_change,18,0,4,,,,,,,,,3,11,84,,,
87521,control_change,18,0,6,,,,,,,,,5,11,86,,,
87523,control_change,10,0,12,,,,,,,,,14,11,91,,,
87526,control_change,11,0,7,,,,,,,,,10,11,88,,,
87528,control_change,11,0,9,,,,,,,,,12,11,88,,,
87528,control_change,11,0,8,,,,,,,,,11,11,88,,,
87530,control_change,11,0,10,,,,,,,,,6,11,88,,,
87531,control_change,11,0,11,,,,,,,,,13,11,88,,,
87534,control_change,11,0,12,,,,,,,,,14,11,88,,,
87534,control_change,18,0,1,,,,,,,,,0,11,81,,,
87536,control_change,18,0,2,,,,,,,,,1,11,81,,,
87536,control_change,10,0,7,,,,,,,,,10,11,85,,,
87537,control_change,18,0,3,,,,,,,,,2,11,81,,,
87537,note_on,9,0,9,,,,,,,,,12,,,,63,0
87537,control_change,18,0,5,,,,,,,,,4,11,83,,,
87537,note_on,9,0,8,,,,,,,,,11,,,,75,0
87538,control_change,1,0,9,,,,,,,,,12,11,85,,,
87538,control_change,1,0,8,,,,,,,,,11,11,85,,,
87539,control_change,18,0,4,,,,,,,,,3,11,81,,,
87539,control_change,18,0,6,,,,,,,,,5,11,83,,,
87540,set_tempo,60,1,0,,,,,,937500,,,,,,,,
87540,control_change,10,0,10,,,,,,,,,6,11,85,,,
87541,control_change,10,0,11,,,,,,,,,13,11,85,,,
87542,note_on,6,0,2,,,,,,,,,1,,,,81,0
87542,note_on,4,0,9,,,,,,,,,12,,,,57,76
87542,note_on,4,0,8,,,,,,,,,11,,,,57,78
87542,note_on,0,0,2,,,,,,,,,1,,,,79,95
87543,note_on,0,0,3,,,,,,,,,2,,,,69,96
87543,note_on,0,0,3,,,,,,,,,2,,,,72,0
87543,note_on,6,0,3,,,,,,,,,2,,,,75,0
87543,note_on,0,0,3,,,,,,,,,2,,,,65,96
87544,control_change,10,0,12,,,,,,,,,14,11,85,,,
87545,note_on,0,0,4,,,,,,,,,3,,,,57,95
87545,note_on,0,0,4,,,,,,,,,3,,,,63,0
87545,note_on,6,0,4,,,,,,,,,3,,,,60,0
87545,note_on,0,0,4,,,,,,,,,3,,,,53,95
87547,control_change,11,0,7,,,,,,,,,10,11,82,,,
87549,control_change,7,0,8,,,,,,,,,11,11,82,,,
87549,control_change,7,0,9,,,,,,,,,12,11,82,,,
87551,control_change,11,0,10,,,,,,,,,6,11,82,,,
87552,control_change,11,0,11,,,,,,,,,13,11,82,,,
87555,control_change,21,0,1,,,,,,,,,0,11,79,,,
87555,control_change,11,0,12,,,,,,,,,14,11,82,,,
87557,control_change,15,0,2,,,,,,,,,1,11,79,,,
87557,control_change,10,0,7,,,,,,,,,10,11,79,,,
87558,control_change,15,0,3,,,,,,,,,2,11,79,,,
87558,control_change,21,0,5,,,,,,,,,4,11,80,,,
87559,control_change,10,0,9,,,,,,,,,12,11,79,,,
87559,control_change,10,0,8,,,,,,,,,11,11,79,,,
87560,control_change,21,0,6,,,,,,,,,5,11,80,,,
87560,control_change,15,0,4,,,,,,,,,3,11,79,,,
87561,control_change,10,0,10,,,,,,,,,6,11,79,,,
87562,control_change,10,0,11,,,,,,,,,13,11,79,,,
87565,control_change,10,0,12,,,,,,,,,14,11,79,,,
87567,control_change,10,0,7,,,,,,,,,10,11,76,,,
87569,control_change,10,0,9,,,,,,,,,12,11,76,,,
87569,control_change,10,0,8,,,,,,,,,11,11,76,,,
87570,control_change,15,0,1,,,,,,,,,0,11,77,,,
87571,control_change,10,0,10,,,,,,,,,6,11,76,,,
87572,control_change,15,0,2,,,,,,,,,1,11,77,,,
87572,note_on,3,0,8,,,,,,,,,11,,,,57,0
87572,note_on,0,0,8,,,,,,,,,11,,,,65,78
87572,control_change,10,0,11,,,,,,,,,13,11,76,,,
87572,note_on,3,0,9,,,,,,,,,12,,,,57,0
87572,note_on,0,0,9,,,,,,,,,12,,,,53,76
87573,control_change,15,0,5,,,,,,,,,4,11,78,,,
87573,control_change,15,0,3,,,,,,,,,2,11,77,,,
87575,control_change,15,0,4,,,,,,,,,3,11,77,,,
87575,control_change,10,0,12,,,,,,,,,14,11,76,,,
87575,control_change,15,0,6,,,,,,,,,5,11,78,,,
87578,control_change,11,0,7,,,,,,,,,10,11,73,,,
87580,control_change,8,0,9,,,,,,,,,12,11,73,,,
87580,control_change,8,0,8,,,,,,,,,11,11,73,,,
87582,control_change,11,0,10,,,,,,,,,6,11,73,,,
87583,control_change,11,0,11,,,,,,,,,13,11,73,,,
87585,control_change,15,0,1,,,,,,,,,0,11,76,,,
87586,control_change,11,0,12,,,,,,,,,14,11,73,,,
87587,control_change,15,0,2,,,,,,,,,1,11,76,,,
87588,control_change,15,0,5,,,,,,,,,4,11,76,,,
87588,control_change,15,0,3,,,,,,,,,2,11,76,,,
87588,control_change,10,0,7,,,,,,,,,10,11,70,,,
87590,control_change,10,0,9,,,,,,,,,12,11,70,,,
87590,control_change,10,0,8,,,,,,,,,11,11,70,,,
87590,control_change,15,0,6,,,,,,,,,5,11,76,,,
87590,control_change,15,0,4,,,,,,,,,3,11,76,,,
87592,control_change,10,0,10,,,,,,,,,6,11,70,,,
87593,control_change,10,0,11,,,,,,,,,13,11,70,,,
87595,note_on,10,0,1,,,,,,,,,0,,,,77,0
87595,note_on,0,0,1,,,,,,,,,0,,,,65,0
87596,control_change,10,0,12,,,,,,,,,14,11,70,,,
87598,note_on,10,0,5,,,,,,,,,4,,,,65,0
87599,control_change,11,0,7,,,,,,,,,10,11,67,,,
87599,note_on,7,0,10,,,,,,,,,6,,,,53,0
87600,note_on,7,0,11,,,,,,,,,13,,,,41,0
87600,note_on,1,0,7,,,,,,,,,10,,,,75,0
87600,note_on,0,0,7,,,,,,,,,10,,,,74,103
87600,note_on,5,0,1,,,,,,,,,0,,,,77,96
87600,control_change,0,0,1,,,,,,,,,0,11,74,,,
87600,note_on,10,0,6,,,,,,,,,5,,,,53,0
87600,note_on,0,0,1,,,,,,,,,0,,,,65,96
87601,control_change,11,0,8,,,,,,,,,11,11,67,,,
87601,control_change,11,0,9,,,,,,,,,12,11,67,,,
87602,note_on,1,0,9,,,,,,,,,12,,,,53,0
87602,note_on,15,0,2,,,,,,,,,1,,,,79,0
87602,note_on,0,0,2,,,,,,,,,1,,,,77,95
87602,control_change,0,0,2,,,,,,,,,1,11,74,,,
87602,note_on,1,0,8,,,,,,,,,11,,,,65,0
87602,note_on,0,0,8,,,,,,,,,11,,,,58,78
87602,note_on,0,0,9,,,,,,,,,12,,,,55,76
87603,note_on,5,0,5,,,,,,,,,4,,,,65,82
87603,control_change,0,0,5,,,,,,,,,4,11,74,,,
87603,note_on,0,0,3,,,,,,,,,2,,,,69,0
87603,note_on,7,0,12,,,,,,,,,14,,,,29,0
87603,control_change,0,0,3,,,,,,,,,2,11,74,,,
87603,note_on,0,0,3,,,,,,,,,2,,,,70,96
87603,note_on,0,0,3,,,,,,,,,2,,,,67,96
87603,control_change,4,0,10,,,,,,,,,6,11,67,,,
87603,note_on,15,0,3,,,,,,,,,2,,,,65,0
87604,note_on,1,0,10,,,,,,,,,6,,,,53,104
87604,control_change,4,0,11,,,,,,,,,13,11,67,,,
87605,note_on,0,0,4,,,,,,,,,3,,,,58,95
87605,note_on,15,0,4,,,,,,,,,3,,,,53,0
87605,control_change,0,0,4,,,,,,,,,3,11,74,,,
87605,note_on,0,0,4,,,,,,,,,3,,,,57,0
87605,note_on,0,0,4,,,,,,,,,3,,,,55,95
87605,note_on,1,0,11,,,,,,,,,13,,,,53,100
87605,note_on,0,0,6,,,,,,,,,5,,,,53,82
87605,control_change,5,0,6,,,,,,,,,5,11,74,,,
87607,control_change,4,0,12,,,,,,,,,14,11,67,,,
87608,note_on,1,0,12,,,,,,,,,14,,,,41,96
87615,control_change,15,0,1,,,,,,,,,0,11,72,,,
87617,control_change,15,0,2,,,,,,,,,1,11,72,,,
87618,control_change,15,0,5,,,,,,,,,4,11,72,,,
87618,control_change,15,0,3,,,,,,,,,2,11,72,,,
87620,control_change,15,0,6,,,,,,,,,5,11,72,,,
87620,control_change,15,0,4,,,,,,,,,3,11,72,,,
87623,control_change,23,0,7,,,,,,,,,10,11,65,,,
87625,control_change,23,0,8,,,,,,,,,11,11,65,,,
87625,control_change,23,0,9,,,,,,,,,12,11,65,,,
87627,control_change,23,0,10,,,,,,,,,6,11,65,,,
87628,control_change,23,0,11,,,,,,,,,13,11,65,,,
87630,control_change,15,0,1,,,,,,,,,0,11,70,,,
87631,control_change,23,0,12,,,,,,,,,14,11,65,,,
87632,note_on,7,0,8,,,,,,,,,11,,,,58,0
87632,note_on,0,0,8,,,,,,,,,11,,,,65,78
87632,control_change,15,0,2,,,,,,,,,1,11,70,,,
87632,note_on,7,0,9,,,,,,,,,12,,,,55,0
87632,note_on,0,0,9,,,,,,,,,12,,,,53,76
87633,control_change,15,0,5,,,,,,,,,4,11,70,,,
87633,control_change,15,0,3,,,,,,,,,2,11,70,,,
87635,control_change,15,0,4,,,,,,,,,3,11,70,,,
87635,control_change,15,0,6,,,,,,,,,5,11,70,,,
87645,control_change,15,0,1,,,,,,,,,0,11,69,,,
87647,control_change,15,0,2,,,,,,,,,1,11,69,,,
87647,control_change,24,0,7,,,,,,,,,10,11,63,,,
87648,control_change,15,0,3,,,,,,,,,2,11,69,,,
87648,control_change,15,0,5,,,,,,,,,4,11,68,,,
87649,control_change,17,0,9,,,,,,,,,12,11,63,,,
87649,control_change,17,0,8,,,,,,,,,11,11,63,,,
87650,control_change,15,0,4,,,,,,,,,3,11,69,,,
87650,control_change,15,0,6,,,,,,,,,5,11,68,,,
87651,control_change,24,0,10,,,,,,,,,6,11,63,,,
87652,control_change,24,0,11,,,,,,,,,13,11,63,,,
87655,control_change,24,0,12,,,,,,,,,14,11,63,,,
87655,note_on,0,0,1,,,,,,,,,0,,,,77,0
87655,note_on,10,0,1,,,,,,,,,0,,,,65,0
87657,note_on,10,0,2,,,,,,,,,1,,,,77,0
87657,note_on,8,0,8,,,,,,,,,11,,,,65,0
87657,note_on,8,0,9,,,,,,,,,12,,,,53,0
87658,note_on,10,0,5,,,,,,,,,4,,,,65,0
87660,control_change,0,0,1,,,,,,,,,0,11,67,,,
87660,set_tempo,120,1,0,,,,,,1034483,,,,,,,,
87660,note_on,5,0,1,,,,,,,,,0,,,,77,96
87660,note_on,13,0,7,,,,,,,,,10,,,,74,0
87660,note_on,0,0,7,,,,,,,,,10,,,,72,103
87660,note_on,0,0,1,,,,,,,,,0,,,,65,96
87660,note_on,10,0,6,,,,,,,,,5,,,,53,0
87662,note_on,0,0,2,,,,,,,,,1,,,,77,95
87662,note_on,5,0,9,,,,,,,,,12,,,,57,76
87662,note_on,5,0,8,,,,,,,,,11,,,,60,78
87662,control_change,5,0,2,,,,,,,,,1,11,67,,,
87663,control_change,5,0,5,,,,,,,,,4,11,66,,,
87663,control_change,0,0,3,,,,,,,,,2,11,67,,,
87663,note_on,0,0,3,,,,,,,,,2,,,,69,96
87663,note_on,0,0,3,,,,,,,,,2,,,,72,96
87663,note_on,15,0,3,,,,,,,,,2,,,,67,0
87663,note_on,0,0,5,,,,,,,,,4,,,,65,82
87663,note_on,0,0,3,,,,,,,,,2,,,,70,0
87664,note_on,0,0,10,,,,,,,,,6,,,,51,104
87664,note_on,13,0,10,,,,,,,,,6,,,,53,0
87665,note_on,0,0,4,,,,,,,,,3,,,,57,95
87665,note_on,15,0,4,,,,,,,,,3,,,,58,0
87665,note_on,0,0,4,,,,,,,,,3,,,,55,0
87665,note_on,0,0,4,,,,,,,,,3,,,,60,95
87665,control_change,0,0,4,,,,,,,,,3,11,67,,,
87665,note_on,0,0,11,,,,,,,,,13,,,,51,100
87665,note_on,13,0,11,,,,,,,,,13,,,,53,0
87665,note_on,0,0,6,,,,,,,,,5,,,,53,82
87665,control_change,5,0,6,,,,,,,,,5,11,66,,,
87668,note_on,0,0,12,,,,,,,,,14,,,,39,96
87668,note_on,13,0,12,,,,,,,,,14,,,,41,0
87671,control_change,11,0,7,,,,,,,,,10,11,61,,,
87673,control_change,11,0,8,,,,,,,,,11,11,61,,,
87673,control_change,11,0,9,,,,,,,,,12,11,61,,,
87675,control_change,15,0,1,,,,,,,,,0,11,65,,,
87675,control_change,11,0,10,,,,,,,,,6,11,61,,,
87676,control_change,11,0,11,,,,,,,,,13,11,61,,,
87677,control_change,15,0,2,,,,,,,,,1,11,65,,,
87678,control_change,15,0,3,,,,,,,,,2,11,65,,,
87678,control_change,15,0,5,,,,,,,,,4,11,64,,,
87679,control_change,11,0,12,,,,,,,,,14,11,61,,,
87680,control_change,15,0,6,,,,,,,,,5,11,64,,,
87680,control_change,15,0,4,,,,,,,,,3,11,65,,,
87690,control_change,15,0,1,,,,,,,,,0,11,64,,,
87692,note_on,0,0,8,,,,,,,,,11,,,,65,78
87692,note_on,19,0,8,,,,,,,,,11,,,,60,0
87692,note_on,19,0,9,,,,,,,,,12,,,,57,0
87692,note_on,0,0,9,,,,,,,,,12,,,,53,76
87692,control_change,15,0,2,,,,,,,,,1,11,64,,,
87693,control_change,15,0,5,,,,,,,,,4,11,62,,,
87693,control_change,15,0,3,,,,,,,,,2,11,64,,,
87695,control_change,24,0,7,,,,,,,,,10,11,59,,,
87695,control_change,15,0,4,,,,,,,,,3,11,64,,,
87695,control_change,15,0,6,,,,,,,,,5,11,62,,,
87697,control_change,5,0,9,,,,,,,,,12,11,59,,,
87697,control_change,5,0,8,,,,,,,,,11,11,59,,,
87699,control_change,24,0,10,,,,,,,,,6,11,59,,,
87700,control_change,24,0,11,,,,,,,,,13,11,59,,,
87703,control_change,24,0,12,,,,,,,,,14,11,59,,,
87705,control_change,15,0,1,,,,,,,,,0,11,62,,,
87707,control_change,15,0,2,,,,,,,,,1,11,62,,,
87708,control_change,15,0,5,,,,,,,,,4,11,60,,,
87708,control_change,15,0,3,,,,,,,,,2,11,62,,,
87710,control_change,15,0,4,,,,,,,,,3,11,62,,,
87710,control_change,15,0,6,,,,,,,,,5,11,60,,,
87715,note_on,0,0,1,,,,,,,,,0,,,,77,0
87715,note_on,10,0,1,,,,,,,,,0,,,,65,0
87718,note_on,10,0,5,,,,,,,,,4,,,,65,0
87719,control_change,24,0,7,,,,,,,,,10,11,57,,,
87720,note_on,0,0,1,,,,,,,,,0,,,,77,96
87720,control_change,0,0,1,,,,,,,,,0,11,61,,,
87720,note_on,5,0,1,,,,,,,,,0,,,,65,96
87720,set_tempo,60,1,0,,,,,,937500,,,,,,,,
87720,note_on,10,0,6,,,,,,,,,5,,,,53,0
87721,control_change,24,0,9,,,,,,,,,12,11,57,,,
87721,control_change,24,0,8,,,,,,,,,11,11,57,,,
87722,note_on,0,0,2,,,,,,,,,1,,,,79,95
87722,note_on,0,0,2,,,,,,,,,1,,,,70,95
87722,control_change,0,0,2,,,,,,,,,1,11,61,,,
87722,note_on,15,0,2,,,,,,,,,1,,,,77,0
87722,note_on,1,0,9,,,,,,,,,12,,,,53,0
87722,note_on,0,0,8,,,,,,,,,11,,,,62,78
87722,note_on,1,0,8,,,,,,,,,11,,,,65,0
87722,note_on,0,0,9,,,,,,,,,12,,,,58,76
87723,control_change,24,0,10,,,,,,,,,6,11,57,,,
87723,control_change,0,0,3,,,,,,,,,2,11,61,,,
87723,note_on,0,0,3,,,,,,,,,2,,,,70,96
87723,note_on,0,0,3,,,,,,,,,2,,,,74,96
87723,note_on,15,0,3,,,,,,,,,2,,,,69,0
87723,control_change,5,0,5,,,,,,,,,4,11,58,,,
87723,note_on,0,0,5,,,,,,,,,4,,,,65,82
87723,note_on,0,0,3,,,,,,,,,2,,,,72,0
87724,note_on,1,0,10,,,,,,,,,6,,,,51,0
87724,control_change,24,0,11,,,,,,,,,13,11,57,,,
87724,note_on,0,0,10,,,,,,,,,6,,,,50,104
87725,note_on,0,0,11,,,,,,,,,13,,,,50,100
87725,note_on,0,0,4,,,,,,,,,3,,,,57,0
87725,note_on,15,0,4,,,,,,,,,3,,,,60,0
87725,note_on,0,0,6,,,,,,,,,5,,,,53,82
87725,control_change,5,0,6,,,,,,,,,5,11,58,,,
87725,note_on,0,0,4,,,,,,,,,3,,,,58,95
87725,note_on,0,0,4,,,,,,,,,3,,,,62,95
87725,control_change,0,0,4,,,,,,,,,3,11,61,,,
87725,note_on,1,0,11,,,,,,,,,13,,,,51,0
87727,control_change,24,0,12,,,,,,,,,14,11,57,,,
87728,note_on,0,0,12,,,,,,,,,14,,,,38,96
87728,note_on,1,0,12,,,,,,,,,14,,,,39,0
87735,control_change,15,0,1,,,,,,,,,0,11,59,,,
87737,control_change,15,0,2,,,,,,,,,1,11,59,,,
87738,control_change,15,0,5,,,,,,,,,4,11,56,,,
87738,control_change,15,0,3,,,,,,,,,2,11,59,,,
87740,control_change,15,0,6,,,,,,,,,5,11,56,,,
87740,control_change,15,0,4,,,,,,,,,3,11,59,,,
87743,control_change,24,0,7,,,,,,,,,10,11,55,,,
87745,control_change,23,0,9,,,,,,,,,12,11,55,,,
87745,control_change,23,0,8,,,,,,,,,11,11,55,,,
87747,control_change,23,0,10,,,,,,,,,6,11,55,,,
87748,control_change,23,0,11,,,,,,,,,13,11,55,,,
87750,control_change,15,0,1,,,,,,,,,0,11,57,,,
87751,control_change,23,0,12,,,,,,,,,14,11,55,,,
87752,note_on,7,0,8,,,,,,,,,11,,,,62,0
87752,control_change,15,0,2,,,,,,,,,1,11,57,,,
87752,note_on,0,0,8,,,,,,,,,11,,,,65,78
87752,note_on,0,0,9,,,,,,,,,12,,,,53,76
87752,note_on,7,0,9,,,,,,,,,12,,,,58,0
87753,control_change,15,0,3,,,,,,,,,2,11,57,,,
87753,control_change,15,0,5,,,,,,,,,4,11,54,,,
87755,control_change,15,0,4,,,,,,,,,3,11,57,,,
87755,control_change,15,0,6,,,,,,,,,5,11,54,,,
87765,control_change,15,0,1,,,,,,,,,0,11,55,,,
87767,control_change,15,0,2,,,,,,,,,1,11,55,,,
87767,control_change,24,0,7,,,,,,,,,10,11,53,,,
87768,control_change,15,0,3,,,,,,,,,2,11,55,,,
87768,control_change,15,0,5,,,,,,,,,4,11,52,,,
87769,control_change,17,0,8,,,,,,,,,11,11,53,,,
87769,control_change,17,0,9,,,,,,,,,12,11,53,,,
87770,control_change,15,0,4,,,,,,,,,3,11,55,,,
87770,control_change,15,0,6,,,,,,,,,5,11,52,,,
87771,control_change,24,0,10,,,,,,,,,6,11,53,,,
87772,control_change,24,0,11,,,,,,,,,13,11,53,,,
87775,control_change,24,0,12,,,,,,,,,14,11,53,,,
87775,note_on,10,0,1,,,,,,,,,0,,,,77,0
87775,note_on,0,0,1,,,,,,,,,0,,,,65,0
87778,note_on,10,0,5,,,,,,,,,4,,,,65,0
87780,note_on,0,0,1,,,,,,,,,0,,,,65,96
87780,note_on,0,0,1,,,,,,,,,0,,,,77,96
87780,control_change,5,0,1,,,,,,,,,0,11,54,,,
87780,note_on,10,0,6,,,,,,,,,5,,,,53,0
87780,note_on,0,0,7,,,,,,,,,10,,,,77,103
87780,note_on,13,0,7,,,,,,,,,10,,,,72,0
87782,note_on,0,0,9,,,,,,,,,12,,,,57,76
87782,note_on,15,0,2,,,,,,,,,1,,,,79,0
87782,note_on,0,0,2,,,,,,,,,1,,,,70,0
87782,note_on,0,0,2,,,,,,,,,1,,,,72,95
87782,control_change,0,0,2,,,,,,,,,1,11,54,,,
87782,note_on,0,0,2,,,,,,,,,1,,,,81,95
87782,note_on,0,0,8,,,,,,,,,11,,,,63,78
87782,note_on,13,0,8,,,,,,,,,11,,,,65,0
87782,note_on,13,0,9,,,,,,,,,12,,,,53,0
87783,note_on,15,0,3,,,,,,,,,2,,,,70,0
87783,note_on,0,0,3,,,,,,,,,2,,,,74,0
87783,note_on,0,0,5,,,,,,,,,4,,,,65,82
87783,control_change,5,0,5,,,,,,,,,4,11,50,,,
87783,note_on,0,0,3,,,,,,,,,2,,,,75,96
87783,note_on,0,0,3,,,,,,,,,2,,,,69,96
87783,control_change,0,0,3,,,,,,,,,2,11,54,,,
87784,note_on,13,0,10,,,,,,,,,6,,,,50,0
87784,note_on,0,0,10,,,,,,,,,6,,,,48,104
87785,note_on,0,0,4,,,,,,,,,3,,,,58,0
87785,note_on,0,0,4,,,,,,,,,3,,,,57,95
87785,note_on,0,0,4,,,,,,,,,3,,,,63,95
87785,note_on,15,0,4,,,,,,,,,3,,,,62,0
87785,control_change,0,0,4,,,,,,,,,3,11,54,,,
87785,note_on,5,0,6,,,,,,,,,5,,,,53,82
87785,control_change,0,0,6,,,,,,,,,5,11,50,,,
87785,note_on,13,0,11,,,,,,,,,13,,,,50,0
87785,note_on,0,0,11,,,,,,,,,13,,,,48,100
87788,note_on,0,0,12,,,,,,,,,14,,,,36,96
87788,note_on,13,0,12,,,,,,,,,14,,,,38,0
87791,control_change,11,0,7,,,,,,,,,10,11,51,,,
87793,control_change,11,0,9,,,,,,,,,12,11,51,,,
87793,control_change,11,0,8,,,,,,,,,11,11,51,,,
87795,control_change,11,0,10,,,,,,,,,6,11,51,,,
87795,control_change,15,0,1,,,,,,,,,0,11,52,,,
87796,control_change,11,0,11,,,,,,,,,13,11,51,,,
87797,control_change,15,0,2,,,,,,,,,1,11,52,,,
87798,control_change,15,0,3,,,,,,,,,2,11,52,,,
87798,control_change,15,0,5,,,,,,,,,4,11,48,,,
87799,control_change,11,0,12,,,,,,,,,14,11,51,,,
87800,control_change,15,0,4,,,,,,,,,3,11,52,,,
87800,control_change,15,0,6,,,,,,,,,5,11,48,,,
87810,control_change,15,0,1,,,,,,,,,0,11,51,,,
87812,note_on,0,0,9,,,,,,,,,12,,,,53,76
87812,note_on,19,0,9,,,,,,,,,12,,,,57,0
87812,note_on,19,0,8,,,,,,,,,11,,,,63,0
87812,note_on,0,0,8,,,,,,,,,11,,,,65,78
87812,control_change,15,0,2,,,,,,,,,1,11,51,,,
87813,control_change,15,0,3,,,,,,,,,2,11,51,,,
87813,control_change,15,0,5,,,,,,,,,4,11,46,,,
87815,control_change,15,0,6,,,,,,,,,5,11,46,,,
87815,control_change,24,0,7,,,,,,,,,10,11,49,,,
87815,control_change,15,0,4,,,,,,,,,3,11,51,,,
87817,control_change,5,0,8,,,,,,,,,11,11,49,,,
87817,control_change,5,0,9,,,,,,,,,12,11,49,,,
87819,control_change,24,0,10,,,,,,,,,6,11,49,,,
87820,control_change,24,0,11,,,,,,,,,13,11,49,,,
87823,control_change,24,0,12,,,,,,,,,14,11,49,,,
87825,control_change,15,0,1,,,,,,,,,0,11,49,,,
87827,control_change,15,0,2,,,,,,,,,1,11,49,,,
87828,control_change,15,0,5,,,,,,,,,4,11,44,,,
87828,control_change,15,0,3,,,,,,,,,2,11,49,,,
87830,control_change,15,0,4,,,,,,,,,3,11,49,,,
87830,control_change,15,0,6,,,,,,,,,5,11,44,,,
87835,note_on,20,0,7,,,,,,,,,10,,,,77,0
87835,note_on,0,0,1,,,,,,,,,0,,,,77,0
87835,note_on,10,0,1,,,,,,,,,0,,,,65,0
87837,note_on,0,0,2,,,,,,,,,1,,,,72,0
87837,note_on,10,0,2,,,,,,,,,1,,,,81,0
87837,note_on,20,0,9,,,,,,,,,12,,,,53,0
87837,note_on,20,0,8,,,,,,,,,11,,,,65,0
87838,note_on,10,0,5,,,,,,,,,4,,,,65,0
87838,note_on,10,0,3,,,,,,,,,2,,,,69,0
87838,note_on,0,0,3,,,,,,,,,2,,,,75,0
87839,control_change,4,0,7,,,,,,,,,10,11,47,,,
87839,note_on,20,0,10,,,,,,,,,6,,,,48,0
87840,note_on,1,0,7,,,,,,,,,10,,,,70,103
87840,note_on,0,0,4,,,,,,,,,3,,,,57,0
87840,note_on,10,0,4,,,,,,,,,3,,,,63,0
87840,note_on,5,0,1,,,,,,,,,0,,,,70,96
87840,note_on,10,0,6,,,,,,,,,5,,,,53,0
87840,control_change,0,0,1,,,,,,,,,0,11,47,,,
87840,set_tempo,120,1,0,,,,,,1034483,,,,,,,,
87840,note_on,0,0,1,,,,,,,,,0,,,,74,96
87840,note_on,20,0,11,,,,,,,,,13,,,,48,0
87841,control_change,4,0,9,,,,,,,,,12,11,47,,,
87841,control_change,4,0,8,,,,,,,,,11,11,47,,,
87842,note_on,1,0,8,,,,,,,,,11,,,,62,74
87842,note_on,1,0,9,,,,,,,,,12,,,,58,72
87842,note_on,0,0,2,,,,,,,,,1,,,,82,95
87842,note_on,0,0,2,,,,,,,,,1,,,,74,95
87842,control_change,5,0,2,,,,,,,,,1,11,47,,,
87843,note_on,0,0,5,,,,,,,,,4,,,,65,82
87843,note_on,5,0,3,,,,,,,,,2,,,,70,96
87843,note_on,20,0,12,,,,,,,,,14,,,,36,0
87843,control_change,0,0,3,,,,,,,,,2,11,47,,,
87843,note_on,0,0,3,,,,,,,,,2,,,,74,96
87843,control_change,4,0,10,,,,,,,,,6,11,47,,,
87843,control_change,5,0,5,,,,,,,,,4,11,37,,,
87844,control_change,4,0,11,,,,,,,,,13,11,47,,,
87844,note_on,1,0,10,,,,,,,,,6,,,,46,62
87845,note_on,0,0,4,,,,,,,,,3,,,,58,95
87845,control_change,5,0,6,,,,,,,,,5,11,37,,,
87845,note_on,0,0,6,,,,,,,,,5,,,,53,82
87845,control_change,0,0,4,,,,,,,,,3,11,47,,,
87845,note_on,5,0,4,,,,,,,,,3,,,,62,95
87845,note_on,1,0,11,,,,,,,,,13,,,,46,100
87847,control_change,4,0,12,,,,,,,,,14,11,47,,,
87848,note_on,1,0,12,,,,,,,,,14,,,,34,96
87872,note_on,30,0,9,,,,,,,,,12,,,,58,0
87872,note_on,0,0,8,,,,,,,,,11,,,,62,74
87872,note_on,30,0,8,,,,,,,,,11,,,,62,0
87872,note_on,0,0,9,,,,,,,,,12,,,,62,72
87874,note_on,0,0,10,,,,,,,,,6,,,,53,62
87874,note_on,30,0,10,,,,,,,,,6,,,,46,0
87898,note_on,55,0,5,,,,,,,,,4,,,,65,0
87900,set_tempo,60,1,0,,,,,,937500,,,,,,,,
87900,note_on,55,0,6,,,,,,,,,5,,,,53,0
87900,control_change,60,0,7,,,,,,,,,10,11,47,,,
87900,note_on,0,0,4,,,,,,,,,3,,,,62,0
87900,note_on,55,0,4,,,,,,,,,3,,,,58,0
87902,note_on,0,0,2,,,,,,,,,1,,,,82,0
87902,note_on,30,0,8,,,,,,,,,11,,,,62,0
87902,note_on,0,0,8,,,,,,,,,11,,,,65,74
87902,note_on,30,0,9,,,,,,,,,12,,,,62,0
87902,note_on,0,0,9,,,,,,,,,12,,,,65,72
87902,note_on,60,0,2,,,,,,,,,1,,,,74,0
87903,note_on,5,0,5,,,,,,,,,4,,,,65,82
87903,note_on,60,0,3,,,,,,,,,2,,,,74,0
87903,note_on,0,0,3,,,,,,,,,2,,,,70,0
87904,note_on,0,0,10,,,,,,,,,6,,,,50,62
87904,note_on,30,0,10,,,,,,,,,6,,,,53,0
87905,note_on,5,0,6,,,,,,,,,5,,,,62,82
87905,note_on,5,0,4,,,,,,,,,3,,,,53,95
87905,note_on,0,0,4,,,,,,,,,3,,,,50,95
87908,control_change,8,0,7,,,,,,,,,10,11,44,,,
87917,control_change,9,0,7,,,,,,,,,10,11,41,,,
87926,control_change,9,0,7,,,,,,,,,10,11,38,,,
87932,note_on,0,0,8,,,,,,,,,11,,,,62,74
87932,note_on,30,0,9,,,,,,,,,12,,,,65,0
87932,note_on,0,0,9,,,,,,,,,12,,,,62,72
87932,note_on,30,0,8,,,,,,,,,11,,,,65,0
87934,note_on,0,0,10,,,,,,,,,6,,,,53,62
87934,note_on,30,0,10,,,,,,,,,6,,,,50,0
87935,control_change,9,0,7,,,,,,,,,10,11,35,,,
87944,control_change,9,0,7,,,,,,,,,10,11,32,,,
87953,control_change,9,0,7,,,,,,,,,10,11,29,,,
87958,note_on,55,0,5,,,,,,,,,4,,,,65,0
87960,note_on,0,0,1,,,,,,,,,0,,,,70,0
87960,note_on,55,0,4,,,,,,,,,3,,,,50,0
87960,note_on,120,0,1,,,,,,,,,0,,,,74,0
87960,note_on,55,0,6,,,,,,,,,5,,,,62,0
87960,note_on,0,0,4,,,,,,,,,3,,,,53,0
87960,note_on,7,0,7,,,,,,,,,10,,,,70,0
87962,note_on,30,0,8,,,,,,,,,11,,,,62,0
87962,note_on,30,0,9,,,,,,,,,12,,,,62,0
87962,note_on,0,0,8,,,,,,,,,11,,,,65,74
87962,note_on,0,0,9,,,,,,,,,12,,,,65,72
87963,note_on,5,0,5,,,,,,,,,4,,,,65,82
87964,note_on,0,0,10,,,,,,,,,6,,,,50,62
87964,note_on,30,0,10,,,,,,,,,6,,,,53,0
87965,note_on,0,0,4,,,,,,,,,3,,,,53,95
87965,note_on,120,0,11,,,,,,,,,13,,,,46,0
87965,note_on,5,0,4,,,,,,,,,3,,,,50,95
87965,note_on,5,0,6,,,,,,,,,5,,,,62,82
87968,note_on,120,0,12,,,,,,,,,14,,,,34,0
87992,note_on,30,0,8,,,,,,,,,11,,,,65,0
87992,note_on,0,0,8,,,,,,,,,11,,,,62,74
87992,note_on,30,0,9,,,,,,,,,12,,,,65,0
87992,note_on,0,0,9,,,,,,,,,12,,,,62,72
87994,note_on,0,0,10,,,,,,,,,6,,,,53,62
87994,note_on,30,0,10,,,,,,,,,6,,,,50,0
88020,set_tempo,120,1,0,,,,,,1034483,,,,,,,,
88022,note_on,0,0,9,,,,,,,,,12,,,,67,72
88022,note_on,30,0,8,,,,,,,,,11,,,,62,0
88022,note_on,0,0,8,,,,,,,,,11,,,,67,74
88022,note_on,30,0,9,,,,,,,,,12,,,,62,0
88023,note_on,60,0,5,,,,,,,,,4,,,,65,0
88023,note_on,0,0,5,,,,,,,,,4,,,,67,82
88024,note_on,0,0,10,,,,,,,,,6,,,,51,62
88024,note_on,30,0,10,,,,,,,,,6,,,,53,0
88025,note_on,0,0,4,,,,,,,,,3,,,,50,0
88025,note_on,0,0,6,,,,,,,,,5,,,,63,82
88025,note_on,60,0,4,,,,,,,,,3,,,,53,0
88025,note_on,60,0,6,,,,,,,,,5,,,,62,0
88025,note_on,0,0,4,,,,,,,,,3,,,,51,95
88025,note_on,0,0,4,,,,,,,,,3,,,,55,95
88052,note_on,30,0,8,,,,,,,,,11,,,,67,0
88052,note_on,0,0,8,,,,,,,,,11,,,,63,74
88052,note_on,30,0,9,,,,,,,,,12,,,,67,0
88052,note_on,0,0,9,,,,,,,,,12,,,,63,72
88054,note_on,0,0,10,,,,,,,,,6,,,,55,62
88054,note_on,30,0,10,,,,,,,,,6,,,,51,0
88080,set_tempo,60,1,0,,,,,,937500,,,,,,,,
88082,note_on,30,0,9,,,,,,,,,12,,,,63,0
88082,note_on,0,0,9,,,,,,,,,12,,,,65,72
88082,note_on,30,0,8,,,,,,,,,11,,,,63,0
88082,note_on,0,0,8,,,,,,,,,11,,,,65,74
88083,note_on,0,0,5,,,,,,,,,4,,,,65,82
88083,note_on,60,0,5,,,,,,,,,4,,,,67,0
88083,note_on,180,0,3,,,,,,,,,2,,,,74,96
88084,note_on,0,0,10,,,,,,,,,6,,,,50,62
88084,note_on,30,0,10,,,,,,,,,6,,,,55,0
88085,note_on,60,0,4,,,,,,,,,3,,,,55,0
88085,note_on,0,0,4,,,,,,,,,3,,,,51,0
88085,note_on,0,0,4,,,,,,,,,3,,,,53,95
88085,note_on,0,0,4,,,,,,,,,3,,,,50,95
88085,note_on,60,0,6,,,,,,,,,5,,,,63,0
88085,note_on,0,0,6,,,,,,,,,5,,,,62,82
88112,note_on,30,0,9,,,,,,,,,12,,,,65,0
88112,note_on,0,0,9,,,,,,,,,12,,,,62,72
88112,note_on,0,0,8,,,,,,,,,11,,,,62,74
88112,note_on,30,0,8,,,,,,,,,11,,,,65,0
88114,note_on,30,0,10,,,,,,,,,6,,,,50,0
88114,note_on,0,0,10,,,,,,,,,6,,,,53,62
88138,note_on,55,0,5,,,,,,,,,4,,,,65,0
88138,note_on,55,0,3,,,,,,,,,2,,,,74,0
88140,note_on,0,0,4,,,,,,,,,3,,,,53,0
88140,note_on,55,0,4,,,,,,,,,3,,,,50,0
88140,note_on,55,0,6,,,,,,,,,5,,,,62,0
88142,note_on,30,0,9,,,,,,,,,12,,,,62,0
88142,note_on,30,0,8,,,,,,,,,11,,,,62,0
88142,note_on,0,0,8,,,,,,,,,11,,,,65,74
88142,note_on,0,0,9,,,,,,,,,12,,,,65,72
88143,note_on,5,0,5,,,,,,,,,4,,,,65,82
88143,note_on,5,0,3,,,,,,,,,2,,,,74,96
88144,note_on,30,0,10,,,,,,,,,6,,,,53,0
88144,note_on,0,0,10,,,,,,,,,6,,,,50,62
88145,note_on,5,0,4,,,,,,,,,3,,,,50,95
88145,note_on,0,0,4,,,,,,,,,3,,,,53,95
88145,note_on,5,0,6,,,,,,,,,5,,,,62,82
88172,note_on,0,0,8,,,,,,,,,11,,,,62,74
88172,note_on,30,0,8,,,,,,,,,11,,,,65,0
88172,note_on,30,0,9,,,,,,,,,12,,,,65,0
88172,note_on,0,0,9,,,,,,,,,12,,,,62,72
88174,note_on,0,0,10,,,,,,,,,6,,,,53,62
88174,note_on,30,0,10,,,,,,,,,6,,,,50,0
88198,note_on,55,0,3,,,,,,,,,2,,,,74,0
88200,set_tempo,120,1,0,,,,,,1034483,,,,,,,,
88202,note_on,0,0,9,,,,,,,,,12,,,,63,72
88202,note_on,30,0,8,,,,,,,,,11,,,,62,0
88202,note_on,0,0,8,,,,,,,,,11,,,,63,74
88202,note_on,30,0,9,,,,,,,,,12,,,,62,0
88203,note_on,0,0,5,,,,,,,,,4,,,,63,82
88203,note_on,60,0,5,,,,,,,,,4,,,,65,0
88203,note_on,5,0,3,,,,,,,,,2,,,,75,96
88204,note_on,30,0,10,,,,,,,,,6,,,,53,0
88204,note_on,0,0,10,,,,,,,,,6,,,,48,62
88205,note_on,0,0,4,,,,,,,,,3,,,,51,95
88205,note_on,0,0,4,,,,,,,,,3,,,,48,95
88205,note_on,0,0,4,,,,,,,,,3,,,,50,0
88205,note_on,60,0,4,,,,,,,,,3,,,,53,0
88205,note_on,0,0,6,,,,,,,,,5,,,,60,82
88205,note_on,60,0,6,,,,,,,,,5,,,,62,0
88232,note_on,0,0,8,,,,,,,,,11,,,,60,74
88232,note_on,30,0,8,,,,,,,,,11,,,,63,0
88232,note_on,0,0,9,,,,,,,,,12,,,,60,72
88232,note_on,30,0,9,,,,,,,,,12,,,,63,0
88234,note_on,30,0,10,,,,,,,,,6,,,,48,0
88234,note_on,0,0,10,,,,,,,,,6,,,,51,62
88260,set_tempo,60,1,0,,,,,,937500,,,,,,,,
88262,note_on,0,0,9,,,,,,,,,12,,,,62,72
88262,note_on,360,0,2,,,,,,,,,1,,,,76,95
88262,note_on,30,0,9,,,,,,,,,12,,,,60,0
88262,note_on,0,0,8,,,,,,,,,11,,,,62,74
88262,note_on,30,0,8,,,,,,,,,11,,,,60,0
88263,note_on,60,0,5,,,,,,,,,4,,,,63,0
88263,note_on,0,0,5,,,,,,,,,4,,,,62,82
88263,note_on,60,0,3,,,,,,,,,2,,,,75,0
88264,note_on,0,0,10,,,,,,,,,6,,,,46,62
88264,note_on,30,0,10,,,,,,,,,6,,,,51,0
88265,note_on,0,0,4,,,,,,,,,3,,,,51,0
88265,note_on,0,0,6,,,,,,,,,5,,,,58,82
88265,note_on,60,0,6,,,,,,,,,5,,,,60,0
88265,note_on,60,0,4,,,,,,,,,3,,,,48,0
88265,note_on,0,0,4,,,,,,,,,3,,,,50,95
88265,note_on,0,0,4,,,,,,,,,3,,,,46,95
88292,note_on,30,0,9,,,,,,,,,12,,,,62,0
88292,note_on,30,0,8,,,,,,,,,11,,,,62,0
88292,note_on,0,0,8,,,,,,,,,11,,,,58,74
88292,note_on,0,0,9,,,,,,,,,12,,,,58,72
88294,note_on,0,0,10,,,,,,,,,6,,,,50,62
88294,note_on,30,0,10,,,,,,,,,6,,,,46,0
88318,note_on,55,0,5,,,,,,,,,4,,,,62,0
88320,note_on,0,0,4,,,,,,,,,3,,,,50,0
88320,note_on,55,0,6,,,,,,,,,5,,,,58,0
88320,note_on,55,0,4,,,,,,,,,3,,,,46,0
88322,note_on,30,0,8,,,,,,,,,11,,,,58,0
88322,note_on,0,0,8,,,,,,,,,11,,,,62,74
88322,note_on,0,0,9,,,,,,,,,12,,,,62,72
88322,note_on,30,0,9,,,,,,,,,12,,,,58,0
88322,note_on,60,0,2,,,,,,,,,1,,,,76,0
88322,note_on,0,0,2,,,,,,,,,1,,,,77,95
88323,note_on,5,0,5,,,,,,,,,4,,,,62,82
88324,note_on,30,0,10,,,,,,,,,6,,,,50,0
88324,note_on,0,0,10,,,,,,,,,6,,,,46,62
88325,note_on,5,0,4,,,,,,,,,3,,,,50,95
88325,note_on,5,0,6,,,,,,,,,5,,,,58,82
88325,note_on,0,0,4,,,,,,,,,3,,,,46,95
88352,note_on,30,0,8,,,,,,,,,11,,,,62,0
88352,note_on,0,0,8,,,,,,,,,11,,,,58,74
88352,note_on,30,0,9,,,,,,,,,12,,,,62,0
88352,note_on,0,0,9,,,,,,,,,12,,,,58,72
88354,note_on,0,0,10,,,,,,,,,6,,,,50,62
88354,note_on,30,0,10,,,,,,,,,6,,,,46,0
88377,note_on,55,0,2,,,,,,,,,1,,,,77,0
88380,control_change,420,0,7,,,,,,,,,10,11,57,,,
88380,note_on,0,0,7,,,,,,,,,10,,,,69,104
88380,set_tempo,120,1,0,,,,,,1034483,,,,,,,,
88382,note_on,0,0,8,,,,,,,,,11,,,,63,74
88382,control_change,0,0,8,,,,,,,,,11,11,57,,,
88382,note_on,30,0,8,,,,,,,,,11,,,,58,0
88382,control_change,0,0,9,,,,,,,,,12,11,57,,,
88382,note_on,0,0,9,,,,,,,,,12,,,,63,72
88382,note_on,5,0,2,,,,,,,,,1,,,,77,95
88382,control_change,0,0,2,,,,,,,,,1,11,64,,,
88382,note_on,30,0,9,,,,,,,,,12,,,,58,0
88383,control_change,120,0,3,,,,,,,,,2,11,64,,,
88383,note_on,60,0,5,,,,,,,,,4,,,,62,0
88383,control_change,0,0,5,,,,,,,,,4,11,62,,,
88383,note_on,0,0,5,,,,,,,,,4,,,,63,82
88384,note_on,0,0,10,,,,,,,,,6,,,,48,62
88384,control_change,0,0,10,,,,,,,,,6,11,57,,,
88384,note_on,30,0,10,,,,,,,,,6,,,,50,0
88385,note_on,0,0,4,,,,,,,,,3,,,,48,95
88385,note_on,60,0,4,,,,,,,,,3,,,,46,0
88385,control_change,420,0,11,,,,,,,,,13,11,57,,,
88385,note_on,0,0,11,,,,,,,,,13,,,,41,100
88385,note_on,0,0,4,,,,,,,,,3,,,,51,95
88385,control_change,0,0,4,,,,,,,,,3,11,64,,,
88385,control_change,0,0,6,,,,,,,,,5,11,62,,,
88385,note_on,0,0,6,,,,,,,,,5,,,,60,82
88385,note_on,60,0,6,,,,,,,,,5,,,,58,0
88385,note_on,0,0,4,,,,,,,,,3,,,,50,0
88388,note_on,0,0,12,,,,,,,,,14,,,,29,96
88388,control_change,420,0,12,,,,,,,,,14,11,57,,,
88398,control_change,18,0,7,,,,,,,,,10,11,56,,,
88400,control_change,18,0,8,,,,,,,,,11,11,56,,,
88400,control_change,18,0,2,,,,,,,,,1,11,62,,,
88400,control_change,18,0,9,,,,,,,,,12,11,56,,,
88401,control_change,18,0,5,,,,,,,,,4,11,60,,,
88401,control_change,18,0,3,,,,,,,,,2,11,62,,,
88402,control_change,18,0,10,,,,,,,,,6,11,56,,,
88403,control_change,18,0,4,,,,,,,,,3,11,62,,,
88403,control_change,18,0,11,,,,,,,,,13,11,56,,,
88403,control_change,18,0,6,,,,,,,,,5,11,60,,,
88406,control_change,18,0,12,,,,,,,,,14,11,56,,,
88410,note_on,0,0,7,,,,,,,,,10,,,,72,111
88410,note_on,12,0,7,,,,,,,,,10,,,,69,0
88412,note_on,0,0,8,,,,,,,,,11,,,,60,74
88412,note_on,12,0,8,,,,,,,,,11,,,,63,0
88412,note_on,12,0,9,,,,,,,,,12,,,,63,0
88412,note_on,0,0,9,,,,,,,,,12,,,,60,72
88414,note_on,12,0,10,,,,,,,,,6,,,,48,0
88414,note_on,0,0,10,,,,,,,,,6,,,,51,62
88416,control_change,6,0,7,,,,,,,,,10,11,55,,,
88418,control_change,6,0,8,,,,,,,,,11,11,55,,,
88418,control_change,6,0,9,,,,,,,,,12,11,55,,,
88418,control_change,18,0,2,,,,,,,,,1,11,61,,,
88419,control_change,18,0,5,,,,,,,,,4,11,58,,,
88419,control_change,18,0,3,,,,,,,,,2,11,61,,,
88420,control_change,6,0,10,,,,,,,,,6,11,55,,,
88421,control_change,18,0,6,,,,,,,,,5,11,58,,,
88421,control_change,18,0,4,,,,,,,,,3,11,61,,,
88421,control_change,18,0,11,,,,,,,,,13,11,55,,,
88424,control_change,18,0,12,,,,,,,,,14,11,55,,,
88434,control_change,18,0,7,,,,,,,,,10,11,54,,,
88436,control_change,18,0,2,,,,,,,,,1,11,59,,,
88436,control_change,18,0,8,,,,,,,,,11,11,54,,,
88436,control_change,18,0,9,,,,,,,,,12,11,54,,,
88437,control_change,18,0,5,,,,,,,,,4,11,56,,,
88437,control_change,18,0,3,,,,,,,,,2,11,59,,,
88438,control_change,18,0,10,,,,,,,,,6,11,54,,,
88439,control_change,18,0,4,,,,,,,,,3,11,59,,,
88439,control_change,18,0,11,,,,,,,,,13,11,54,,,
88439,control_change,18,0,6,,,,,,,,,5,11,56,,,
88440,note_on,0,0,7,,,,,,,,,10,,,,75,111
88440,note_on,6,0,7,,,,,,,,,10,,,,72,0
88440,control_change,480,0,1,,,,,,,,,0,11,59,,,
88440,set_tempo,60,1,0,,,,,,937500,,,,,,,,
88440,note_on,0,0,1,,,,,,,,,0,,,,84,96
88442,control_change,18,0,12,,,,,,,,,14,11,54,,,
88442,note_on,0,0,9,,,,,,,,,12,,,,60,72
88442,note_on,6,0,2,,,,,,,,,1,,,,77,0
88442,note_on,6,0,9,,,,,,,,,12,,,,60,0
88442,note_on,0,0,2,,,,,,,,,1,,,,75,95
88442,note_on,0,0,8,,,,,,,,,11,,,,60,74
88442,note_on,6,0,8,,,,,,,,,11,,,,60,0
88443,note_on,0,0,5,,,,,,,,,4,,,,60,82
88443,note_on,6,0,5,,,,,,,,,4,,,,63,0
88444,note_on,6,0,10,,,,,,,,,6,,,,51,0
88444,note_on,0,0,10,,,,,,,,,6,,,,41,62
88445,note_on,0,0,4,,,,,,,,,3,,,,41,95
88445,note_on,0,0,6,,,,,,,,,5,,,,53,82
88445,note_on,0,0,4,,,,,,,,,3,,,,48,0
88445,note_on,0,0,4,,,,,,,,,3,,,,48,95
88445,note_on,6,0,6,,,,,,,,,5,,,,60,0
88445,note_on,6,0,4,,,,,,,,,3,,,,51,0
88452,control_change,12,0,7,,,,,,,,,10,11,53,,,
88454,control_change,12,0,8,,,,,,,,,11,11,53,,,
88454,control_change,12,0,2,,,,,,,,,1,11,57,,,
88454,control_change,12,0,9,,,,,,,,,12,11,53,,,
88455,control_change,12,0,5,,,,,,,,,4,11,54,,,
88455,control_change,18,0,3,,,,,,,,,2,11,57,,,
88456,control_change,12,0,10,,,,,,,,,6,11,53,,,
88457,control_change,12,0,4,,,,,,,,,3,11,57,,,
88457,control_change,18,0,11,,,,,,,,,13,11,53,,,
88457,control_change,12,0,6,,,,,,,,,5,11,54,,,
88460,control_change,18,0,12,,,,,,,,,14,11,53,,,
88461,control_change,21,0,1,,,,,,,,,0,11,56,,,
88470,control_change,0,0,7,,,,,,,,,10,11,52,,,
88470,note_on,18,0,7,,,,,,,,,10,,,,75,0
88470,note_on,0,0,7,,,,,,,,,10,,,,72,111
88472,control_change,0,0,8,,,,,,,,,11,11,52,,,
88472,note_on,0,0,8,,,,,,,,,11,,,,57,74
88472,control_change,0,0,9,,,,,,,,,12,11,52,,,
88472,note_on,0,0,9,,,,,,,,,12,,,,57,72
88472,note_on,18,0,8,,,,,,,,,11,,,,60,0
88472,note_on,18,0,9,,,,,,,,,12,,,,60,0
88472,control_change,18,0,2,,,,,,,,,1,11,55,,,
88473,control_change,18,0,3,,,,,,,,,2,11,55,,,
88473,control_change,18,0,5,,,,,,,,,4,11,52,,,
88474,note_on,18,0,10,,,,,,,,,6,,,,41,0
88474,note_on,0,0,10,,,,,,,,,6,,,,48,62
88474,control_change,0,0,10,,,,,,,,,6,11,52,,,
88475,control_change,18,0,11,,,,,,,,,13,11,52,,,
88475,control_change,18,0,6,,,,,,,,,5,11,52,,,
88475,control_change,18,0,4,,,,,,,,,3,11,55,,,
88478,control_change,18,0,12,,,,,,,,,14,11,52,,,
88479,control_change,18,0,1,,,,,,,,,0,11,55,,,
88488,control_change,18,0,7,,,,,,,,,10,11,51,,,
88490,control_change,18,0,2,,,,,,,,,1,11,54,,,
88490,control_change,18,0,8,,,,,,,,,11,11,51,,,
88490,control_change,18,0,9,,,,,,,,,12,11,51,,,
88491,control_change,18,0,3,,,,,,,,,2,11,54,,,
88491,control_change,18,0,5,,,,,,,,,4,11,50,,,
88492,control_change,18,0,10,,,,,,,,,6,11,51,,,
88493,control_change,18,0,6,,,,,,,,,5,11,50,,,
88493,control_change,18,0,11,,,,,,,,,13,11,51,,,
88493,control_change,18,0,4,,,,,,,,,3,11,54,,,
88496,control_change,18,0,12,,,,,,,,,14,11,51,,,
88497,control_change,18,0,1,,,,,,,,,0,11,53,,,
88498,note_on,7,0,5,,,,,,,,,4,,,,60,0
88500,note_on,0,0,1,,,,,,,,,0,,,,81,96
88500,note_on,12,0,7,,,,,,,,,10,,,,72,0
88500,note_on,7,0,4,,,,,,,,,3,,,,48,0
88500,note_on,7,0,6,,,,,,,,,5,,,,53,0
88500,note_on,0,0,4,,,,,,,,,3,,,,41,0
88500,note_on,3,0,1,,,,,,,,,0,,,,84,0
88500,note_on,0,0,7,,,,,,,,,10,,,,69,111
88502,note_on,12,0,9,,,,,,,,,12,,,,57,0
88502,note_on,0,0,8,,,,,,,,,11,,,,60,74
88502,note_on,0,0,2,,,,,,,,,1,,,,72,95
88502,note_on,12,0,2,,,,,,,,,1,,,,75,0
88502,note_on,0,0,9,,,,,,,,,12,,,,60,72
88502,note_on,12,0,8,,,,,,,,,11,,,,57,0
88503,note_on,0,0,3,,,,,,,,,2,,,,69,96
88503,note_on,12,0,3,,,,,,,,,2,,,,65,96
88503,note_on,5,0,5,,,,,,,,,4,,,,60,82
88504,note_on,0,0,10,,,,,,,,,6,,,,41,62
88504,note_on,12,0,10,,,,,,,,,6,,,,48,0
88505,note_on,5,0,4,,,,,,,,,3,,,,48,95
88505,note_on,0,0,4,,,,,,,,,3,,,,41,95
88505,note_on,5,0,6,,,,,,,,,5,,,,53,82
88506,control_change,6,0,7,,,,,,,,,10,11,50,,,
88508,control_change,6,0,8,,,,,,,,,11,11,50,,,
88508,control_change,6,0,9,,,,,,,,,12,11,50,,,
88508,control_change,6,0,2,,,,,,,,,1,11,52,,,
88509,control_change,6,0,3,,,,,,,,,2,11,52,,,
88509,control_change,6,0,5,,,,,,,,,4,11,48,,,
88510,control_change,6,0,10,,,,,,,,,6,11,50,,,
88511,control_change,6,0,4,,,,,,,,,3,11,52,,,
88511,control_change,6,0,6,,,,,,,,,5,11,48,,,
88511,control_change,18,0,11,,,,,,,,,13,11,50,,,
88514,control_change,18,0,12,,,,,,,,,14,11,50,,,
88515,control_change,15,0,1,,,,,,,,,0,11,52,,,
88524,control_change,18,0,7,,,,,,,,,10,11,49,,,
88526,control_change,18,0,8,,,,,,,,,11,11,49,,,
88526,control_change,18,0,2,,,,,,,,,1,11,51,,,
88526,control_change,18,0,9,,,,,,,,,12,11,49,,,
88527,control_change,18,0,5,,,,,,,,,4,11,46,,,
88527,control_change,18,0,3,,,,,,,,,2,11,51,,,
88528,control_change,18,0,10,,,,,,,,,6,11,49,,,
88529,control_change,18,0,11,,,,,,,,,13,11,49,,,
88529,control_change,18,0,6,,,,,,,,,5,11,46,,,
88529,control_change,18,0,4,,,,,,,,,3,11,51,,,
88530,note_on,6,0,7,,,,,,,,,10,,,,69,0
88530,note_on,0,0,7,,,,,,,,,10,,,,72,111
88532,note_on,0,0,9,,,,,,,,,12,,,,57,72
88532,note_on,6,0,9,,,,,,,,,12,,,,60,0
88532,note_on,6,0,8,,,,,,,,,11,,,,60,0
88532,note_on,0,0,8,,,,,,,,,11,,,,57,74
88532,control_change,18,0,12,,,,,,,,,14,11,49,,,
88533,control_change,18,0,1,,,,,,,,,0,11,50,,,
88534,note_on,6,0,10,,,,,,,,,6,,,,41,0
88534,note_on,0,0,10,,,,,,,,,6,,,,48,62
88542,control_change,12,0,7,,,,,,,,,10,11,48,,,
88544,control_change,18,0,2,,,,,,,,,1,11,49,,,
88544,control_change,12,0,8,,,,,,,,,11,11,48,,,
88544,control_change,12,0,9,,,,,,,,,12,11,48,,,
88545,control_change,18,0,3,,,,,,,,,2,11,49,,,
88545,control_change,18,0,5,,,,,,,,,4,11,44,,,
88546,control_change,12,0,10,,,,,,,,,6,11,48,,,
88547,control_change,18,0,11,,,,,,,,,13,11,48,,,
88547,control_change,18,0,6,,,,,,,,,5,11,44,,,
88547,control_change,18,0,4,,,,,,,,,3,11,49,,,
88550,control_change,18,0,12,,,,,,,,,14,11,48,,,
88551,control_change,18,0,1,,,,,,,,,0,11,48,,,
88555,note_on,13,0,7,,,,,,,,,10,,,,72,0
88557,note_on,13,0,8,,,,,,,,,11,,,,57,0
88557,note_on,13,0,2,,,,,,,,,1,,,,72,0
88557,note_on,13,0,9,,,,,,,,,12,,,,57,0
88559,note_on,13,0,10,,,,,,,,,6,,,,48,0
88560,note_on,0,0,1,,,,,,,,,0,,,,82,96
88560,set_tempo,120,1,0,,,,,,1034483,,,,,,,,
88560,note_on,9,0,1,,,,,,,,,0,,,,81,0
88560,note_on,0,0,7,,,,,,,,,10,,,,72,111
88560,control_change,5,0,7,,,,,,,,,10,11,47,,,
88562,control_change,5,0,2,,,,,,,,,1,11,47,,,
88562,note_on,0,0,9,,,,,,,,,12,,,,62,72
88562,note_on,0,0,8,,,,,,,,,11,,,,62,74
88562,note_on,0,0,2,,,,,,,,,1,,,,74,95
88562,control_change,5,0,9,,,,,,,,,12,11,47,,,
88562,control_change,5,0,8,,,,,,,,,11,11,47,,,
88563,note_on,0,0,3,,,,,,,,,2,,,,62,96
88563,control_change,0,0,3,,,,,,,,,2,11,47,,,
88563,control_change,0,0,5,,,,,,,,,4,11,37,,,
88563,note_on,0,0,3,,,,,,,,,2,,,,70,96
88563,note_on,0,0,3,,,,,,,,,2,,,,65,0
88563,note_on,18,0,3,,,,,,,,,2,,,,69,0
88563,note_on,18,0,5,,,,,,,,,4,,,,60,0
88563,note_on,0,0,5,,,,,,,,,4,,,,62,82
88564,note_on,0,0,10,,,,,,,,,6,,,,46,62
88564,control_change,5,0,10,,,,,,,,,6,11,47,,,
88565,control_change,0,0,4,,,,,,,,,3,11,47,,,
88565,note_on,0,0,4,,,,,,,,,3,,,,50,95
88565,note_on,0,0,6,,,,,,,,,5,,,,58,82
88565,note_on,18,0,4,,,,,,,,,3,,,,41,0
88565,note_on,0,0,4,,,,,,,,,3,,,,48,0
88565,note_on,18,0,6,,,,,,,,,5,,,,53,0
88565,note_on,18,0,11,,,,,,,,,13,,,,41,0
88565,control_change,0,0,11,,,,,,,,,13,11,47,,,
88565,note_on,0,0,11,,,,,,,,,13,,,,46,100
88565,control_change,0,0,6,,,,,,,,,5,11,37,,,
88565,note_on,0,0,4,,,,,,,,,3,,,,46,95
88568,note_on,0,0,12,,,,,,,,,14,,,,34,96
88568,control_change,0,0,12,,,,,,,,,14,11,47,,,
88568,note_on,18,0,12,,,,,,,,,14,,,,29,0
88592,note_on,30,0,9,,,,,,,,,12,,,,62,0
88592,note_on,30,0,8,,,,,,,,,11,,,,62,0
88592,note_on,0,0,8,,,,,,,,,11,,,,58,74
88592,note_on,0,0,9,,,,,,,,,12,,,,58,72
88594,note_on,30,0,10,,,,,,,,,6,,,,46,0
88594,note_on,0,0,10,,,,,,,,,6,,,,50,62
88620,note_on,60,0,7,,,,,,,,,10,,,,72,0
88620,set_tempo,60,1,0,,,,,,937500,,,,,,,,
88620,note_on,0,0,7,,,,,,,,,10,,,,70,111
88620,note_on,60,0,1,,,,,,,,,0,,,,82,0
88622,note_on,0,0,9,,,,,,,,,12,,,,65,72
88622,note_on,0,0,8,,,,,,,,,11,,,,65,74
88622,note_on,30,0,8,,,,,,,,,11,,,,58,0
88622,note_on,30,0,9,,,,,,,,,12,,,,58,0
88623,note_on,0,0,5,,,,,,,,,4,,,,65,82
88623,note_on,0,0,3,,,,,,,,,2,,,,70,0
88623,note_on,60,0,5,,,,,,,,,4,,,,62,0
88623,note_on,60,0,3,,,,,,,,,2,,,,62,0
88624,note_on,0,0,10,,,,,,,,,6,,,,50,62
88624,note_on,30,0,10,,,,,,,,,6,,,,50,0
88625,note_on,0,0,4,,,,,,,,,3,,,,53,95
88625,note_on,60,0,6,,,,,,,,,5,,,,58,0
88625,note_on,0,0,4,,,,,,,,,3,,,,50,0
88625,note_on,0,0,4,,,,,,,,,3,,,,50,95
88625,note_on,60,0,4,,,,,,,,,3,,,,46,0
88625,note_on,0,0,6,,,,,,,,,5,,,,62,82
88652,note_on,0,0,9,,,,,,,,,12,,,,62,72
88652,note_on,0,0,8,,,,,,,,,11,,,,62,74
88652,note_on,30,0,8,,,,,,,,,11,,,,65,0
88652,note_on,30,0,9,,,,,,,,,12,,,,65,0
88654,note_on,30,0,10,,,,,,,,,6,,,,50,0
88654,note_on,0,0,10,,,,,,,,,6,,,,53,62
88678,note_on,55,0,5,,,,,,,,,4,,,,65,0
88680,control_change,60,0,7,,,,,,,,,10,11,47,,,
88680,note_on,0,0,4,,,,,,,,,3,,,,53,0
88680,note_on,55,0,4,,,,,,,,,3,,,,50,0
88680,note_on,55,0,6,,,,,,,,,5,,,,62,0
88682,note_on,30,0,9,,,,,,,,,12,,,,62,0
88682,note_on,0,0,9,,,,,,,,,12,,,,65,72
88682,note_on,30,0,8,,,,,,,,,11,,,,62,0
88682,note_on,0,0,8,,,,,,,,,11,,,,65,74
88682,note_on,120,0,2,,,,,,,,,1,,,,74,0
88683,note_on,5,0,5,,,,,,,,,4,,,,65,82
88684,note_on,30,0,10,,,,,,,,,6,,,,53,0
88684,note_on,0,0,10,,,,,,,,,6,,,,50,62
88685,note_on,5,0,6,,,,,,,,,5,,,,62,82
88685,note_on,120,0,11,,,,,,,,,13,,,,46,0
88685,note_on,0,0,4,,,,,,,,,3,,,,53,95
88685,note_on,5,0,4,,,,,,,,,3,,,,50,95
88688,note_on,120,0,12,,,,,,,,,14,,,,34,0
88688,control_change,8,0,7,,,,,,,,,10,11,44,,,
88697,control_change,9,0,7,,,,,,,,,10,11,41,,,
88706,control_change,9,0,7,,,,,,,,,10,11,38,,,
88712,note_on,30,0,8,,,,,,,,,11,,,,65,0
88712,note_on,30,0,9,,,,,,,,,12,,,,65,0
88712,note_on,0,0,9,,,,,,,,,12,,,,62,72
88712,note_on,0,0,8,,,,,,,,,11,,,,62,74
88714,note_on,30,0,10,,,,,,,,,6,,,,50,0
88714,note_on,0,0,10,,,,,,,,,6,,,,53,62
88715,control_change,9,0,7,,,,,,,,,10,11,35,,,
88724,control_change,9,0,7,,,,,,,,,10,11,32,,,
88733,control_change,9,0,7,,,,,,,,,10,11,29,,,
88740,note_on,7,0,7,,,,,,,,,10,,,,70,0
88740,set_tempo,120,1,0,,,,,,1034483,,,,,,,,
88742,note_on,0,0,9,,,,,,,,,12,,,,67,72
88742,note_on,0,0,8,,,,,,,,,11,,,,67,74
88742,note_on,30,0,8,,,,,,,,,11,,,,62,0
88742,note_on,30,0,9,,,,,,,,,12,,,,62,0
88743,note_on,0,0,5,,,,,,,,,4,,,,67,82
88743,note_on,60,0,5,,,,,,,,,4,,,,65,0
88744,note_on,30,0,10,,,,,,,,,6,,,,53,0
88744,note_on,0,0,10,,,,,,,,,6,,,,51,62
88745,note_on,0,0,6,,,,,,,,,5,,,,63,82
88745,note_on,60,0,4,,,,,,,,,3,,,,53,0
88745,note_on,0,0,4,,,,,,,,,3,,,,50,0
88745,note_on,0,0,4,,,,,,,,,3,,,,51,95
88745,note_on,0,0,4,,,,,,,,,3,,,,55,95
88745,note_on,60,0,6,,,,,,,,,5,,,,62,0
88772,note_on,30,0,9,,,,,,,,,12,,,,67,0
88772,note_on,0,0,9,,,,,,,,,12,,,,63,72
88772,note_on,30,0,8,,,,,,,,,11,,,,67,0
88772,note_on,0,0,8,,,,,,,,,11,,,,63,74
88774,note_on,0,0,10,,,,,,,,,6,,,,55,62
88774,note_on,30,0,10,,,,,,,,,6,,,,51,0
88800,set_tempo,60,1,0,,,,,,937500,,,,,,,,
88802,note_on,0,0,8,,,,,,,,,11,,,,65,74
88802,note_on,30,0,9,,,,,,,,,12,,,,63,0
88802,note_on,0,0,9,,,,,,,,,12,,,,65,72
88802,note_on,30,0,8,,,,,,,,,11,,,,63,0
88803,note_on,60,0,5,,,,,,,,,4,,,,67,0
88803,note_on,0,0,5,,,,,,,,,4,,,,65,82
88803,note_on,180,0,3,,,,,,,,,2,,,,74,96
88804,note_on,30,0,10,,,,,,,,,6,,,,55,0
88804,note_on,0,0,10,,,,,,,,,6,,,,50,62
88805,note_on,60,0,4,,,,,,,,,3,,,,55,0
88805,note_on,0,0,4,,,,,,,,,3,,,,51,0
88805,note_on,0,0,6,,,,,,,,,5,,,,62,82
88805,note_on,0,0,4,,,,,,,,,3,,,,50,95
88805,note_on,0,0,4,,,,,,,,,3,,,,53,95
88805,note_on,60,0,6,,,,,,,,,5,,,,63,0
88832,note_on,30,0,8,,,,,,,,,11,,,,65,0
88832,note_on,0,0,9,,,,,,,,,12,,,,62,72
88832,note_on,0,0,8,,,,,,,,,11,,,,62,74
88832,note_on,30,0,9,,,,,,,,,12,,,,65,0
88834,note_on,0,0,10,,,,,,,,,6,,,,53,62
88834,note_on,30,0,10,,,,,,,,,6,,,,50,0
88858,note_on,55,0,3,,,,,,,,,2,,,,74,0
88858,note_on,55,0,5,,,,,,,,,4,,,,65,0
88860,note_on,55,0,4,,,,,,,,,3,,,,53,0
88860,note_on,0,0,4,,,,,,,,,3,,,,50,0
88860,note_on,55,0,6,,,,,,,,,5,,,,62,0
88862,note_on,30,0,9,,,,,,,,,12,,,,62,0
88862,note_on,0,0,9,,,,,,,,,12,,,,65,72
88862,note_on,30,0,8,,,,,,,,,11,,,,62,0
88862,note_on,0,0,8,,,,,,,,,11,,,,65,74
88863,note_on,5,0,3,,,,,,,,,2,,,,74,96
88863,note_on,5,0,5,,,,,,,,,4,,,,65,82
88864,note_on,30,0,10,,,,,,,,,6,,,,53,0
88864,note_on,0,0,10,,,,,,,,,6,,,,50,62
88865,note_on,5,0,4,,,,,,,,,3,,,,50,95
88865,note_on,5,0,6,,,,,,,,,5,,,,62,82
88865,note_on,0,0,4,,,,,,,,,3,,,,53,95
88892,note_on,30,0,8,,,,,,,,,11,,,,65,0
88892,note_on,0,0,8,,,,,,,,,11,,,,62,74
88892,note_on,0,0,9,,,,,,,,,12,,,,62,72
88892,note_on,30,0,9,,,,,,,,,12,,,,65,0
88894,note_on,30,0,10,,,,,,,,,6,,,,50,0
88894,note_on,0,0,10,,,,,,,,,6,,,,53,62
88918,note_on,55,0,3,,,,,,,,,2,,,,74,0
88920,set_tempo,120,1,0,,,,,,1034483,,,,,,,,
88922,note_on,0,0,9,,,,,,,,,12,,,,63,72
88922,note_on,30,0,9,,,,,,,,,12,,,,62,0
88922,note_on,0,0,8,,,,,,,,,11,,,,63,74
88922,note_on,30,0,8,,,,,,,,,11,,,,62,0
88923,note_on,5,0,3,,,,,,,,,2,,,,75,96
88923,note_on,0,0,5,,,,,,,,,4,,,,63,82
88923,note_on,60,0,5,,,,,,,,,4,,,,65,0
88924,note_on,30,0,10,,,,,,,,,6,,,,53,0
88924,note_on,0,0,10,,,,,,,,,6,,,,48,62
88925,note_on,60,0,6,,,,,,,,,5,,,,62,0
88925,note_on,0,0,6,,,,,,,,,5,,,,60,82
88925,note_on,60,0,4,,,,,,,,,3,,,,53,0
88925,note_on,0,0,4,,,,,,,,,3,,,,51,95
88925,note_on,0,0,4,,,,,,,,,3,,,,50,0
88925,note_on,0,0,4,,,,,,,,,3,,,,48,95
88952,note_on,0,0,9,,,,,,,,,12,,,,60,72
88952,note_on,30,0,9,,,,,,,,,12,,,,63,0
88952,note_on,30,0,8,,,,,,,,,11,,,,63,0
88952,note_on,0,0,8,,,,,,,,,11,,,,60,74
88954,note_on,0,0,10,,,,,,,,,6,,,,51,62
88954,note_on,30,0,10,,,,,,,,,6,,,,48,0
88980,set_tempo,60,1,0,,,,,,937500,,,,,,,,
88982,note_on,30,0,8,,,,,,,,,11,,,,60,0
88982,note_on,0,0,8,,,,,,,,,11,,,,62,74
88982,note_on,0,0,9,,,,,,,,,12,,,,62,72
88982,note_on,300,0,2,,,,,,,,,1,,,,76,95
88982,note_on,30,0,9,,,,,,,,,12,,,,60,0
88983,note_on,0,0,5,,,,,,,,,4,,,,62,82
88983,note_on,60,0,3,,,,,,,,,2,,,,75,0
88983,note_on,60,0,5,,,,,,,,,4,,,,63,0
88984,note_on,0,0,10,,,,,,,,,6,,,,46,62
88984,note_on,30,0,10,,,,,,,,,6,,,,51,0
88985,note_on,0,0,4,,,,,,,,,3,,,,46,95
88985,note_on,60,0,6,,,,,,,,,5,,,,60,0
88985,note_on,0,0,6,,,,,,,,,5,,,,58,82
88985,note_on,0,0,4,,,,,,,,,3,,,,50,95
88985,note_on,0,0,4,,,,,,,,,3,,,,48,0
88985,note_on,60,0,4,,,,,,,,,3,,,,51,0
89012,note_on,30,0,8,,,,,,,,,11,,,,62,0
89012,note_on,0,0,9,,,,,,,,,12,,,,58,72
89012,note_on,30,0,9,,,,,,,,,12,,,,62,0
89012,note_on,0,0,8,,,,,,,,,11,,,,58,74
89014,note_on,0,0,10,,,,,,,,,6,,,,50,62
89014,note_on,30,0,10,,,,,,,,,6,,,,46,0
89038,note_on,55,0,5,,,,,,,,,4,,,,62,0
89040,note_on,55,0,6,,,,,,,,,5,,,,58,0
89040,note_on,55,0,4,,,,,,,,,3,,,,46,0
89040,note_on,0,0,4,,,,,,,,,3,,,,50,0
89042,note_on,60,0,2,,,,,,,,,1,,,,76,0
89042,note_on,0,0,2,,,,,,,,,1,,,,77,95
89042,note_on,30,0,9,,,,,,,,,12,,,,58,0
89042,note_on,0,0,9,,,,,,,,,12,,,,62,72
89042,note_on,30,0,8,,,,,,,,,11,,,,58,0
89042,note_on,0,0,8,,,,,,,,,11,,,,62,74
89043,note_on,5,0,5,,,,,,,,,4,,,,62,82
89044,note_on,30,0,10,,,,,,,,,6,,,,50,0
89044,note_on,0,0,10,,,,,,,,,6,,,,46,62
89045,note_on,0,0,4,,,,,,,,,3,,,,50,95
89045,note_on,5,0,6,,,,,,,,,5,,,,58,82
89045,note_on,5,0,4,,,,,,,,,3,,,,46,95
89072,note_on,30,0,8,,,,,,,,,11,,,,62,0
89072,note_on,0,0,8,,,,,,,,,11,,,,58,74
89072,note_on,0,0,9,,,,,,,,,12,,,,58,72
89072,note_on,30,0,9,,,,,,,,,12,,,,62,0
89074,note_on,30,0,10,,,,,,,,,6,,,,46,0
89074,note_on,0,0,10,,,,,,,,,6,,,,50,62
89097,note_on,55,0,2,,,,,,,,,1,,,,77,0
89100,set_tempo,120,1,0,,,,,,1034483,,,,,,,,
89100,note_on,0,0,7,,,,,,,,,10,,,,69,104
89100,control_change,360,0,7,,,,,,,,,10,11,57,,,
89102,note_on,0,0,2,,,,,,,,,1,,,,77,95
89102,note_on,0,0,9,,,,,,,,,12,,,,63,72
89102,control_change,5,0,2,,,,,,,,,1,11,64,,,
89102,control_change,0,0,9,,,,,,,,,12,11,57,,,
89102,note_on,0,0,8,,,,,,,,,11,,,,63,74
89102,note_on,30,0,9,,,,,,,,,12,,,,58,0
89102,note_on,30,0,8,,,,,,,,,11,,,,58,0
89102,control_change,0,0,8,,,,,,,,,11,11,57,,,
89103,note_on,0,0,5,,,,,,,,,4,,,,63,82
89103,control_change,0,0,5,,,,,,,,,4,11,62,,,
89103,control_change,120,0,3,,,,,,,,,2,11,64,,,
89103,note_on,60,0,5,,,,,,,,,4,,,,62,0
89104,note_on,0,0,10,,,,,,,,,6,,,,48,62
89104,control_change,0,0,10,,,,,,,,,6,11,57,,,
89104,note_on,30,0,10,,,,,,,,,6,,,,50,0
89105,control_change,0,0,4,,,,,,,,,3,11,64,,,
89105,note_on,0,0,4,,,,,,,,,3,,,,46,0
89105,note_on,60,0,4,,,,,,,,,3,,,,50,0
89105,control_change,420,0,11,,,,,,,,,13,11,57,,,
89105,note_on,0,0,11,,,,,,,,,13,,,,41,100
89105,note_on,0,0,4,,,,,,,,,3,,,,48,95
89105,note_on,0,0,4,,,,,,,,,3,,,,51,95
89105,note_on,60,0,6,,,,,,,,,5,,,,58,0
89105,note_on,0,0,6,,,,,,,,,5,,,,60,82
89105,control_change,0,0,6,,,,,,,,,5,11,62,,,
89108,note_on,0,0,12,,,,,,,,,14,,,,29,96
89108,control_change,420,0,12,,,,,,,,,14,11,57,,,
89118,control_change,18,0,7,,,,,,,,,10,11,56,,,
89120,control_change,18,0,8,,,,,,,,,11,11,56,,,
89120,control_change,18,0,2,,,,,,,,,1,11,62,,,
89120,control_change,18,0,9,,,,,,,,,12,11,56,,,
89121,control_change,18,0,5,,,,,,,,,4,11,60,,,
89121,control_change,18,0,3,,,,,,,,,2,11,62,,,
89122,control_change,18,0,10,,,,,,,,,6,11,56,,,
89123,control_change,18,0,4,,,,,,,,,3,11,62,,,
89123,control_change,18,0,11,,,,,,,,,13,11,56,,,
89123,control_change,18,0,6,,,,,,,,,5,11,60,,,
89126,control_change,18,0,12,,,,,,,,,14,11,56,,,
89130,note_on,0,0,7,,,,,,,,,10,,,,72,111
89130,note_on,12,0,7,,,,,,,,,10,,,,69,0
89132,note_on,12,0,9,,,,,,,,,12,,,,63,0
89132,note_on,0,0,9,,,,,,,,,12,,,,60,72
89132,note_on,12,0,8,,,,,,,,,11,,,,63,0
89132,note_on,0,0,8,,,,,,,,,11,,,,60,74
89134,note_on,12,0,10,,,,,,,,,6,,,,48,0
89134,note_on,0,0,10,,,,,,,,,6,,,,51,62
89136,control_change,6,0,7,,,,,,,,,10,11,55,,,
89138,control_change,18,0,2,,,,,,,,,1,11,61,,,
89138,control_change,6,0,8,,,,,,,,,11,11,55,,,
89138,control_change,6,0,9,,,,,,,,,12,11,55,,,
89139,control_change,18,0,5,,,,,,,,,4,11,58,,,
89139,control_change,18,0,3,,,,,,,,,2,11,61,,,
89140,control_change,6,0,10,,,,,,,,,6,11,55,,,
89141,control_change,18,0,4,,,,,,,,,3,11,61,,,
89141,control_change,18,0,11,,,,,,,,,13,11,55,,,
89141,control_change,18,0,6,,,,,,,,,5,11,58,,,
89144,control_change,18,0,12,,,,,,,,,14,11,55,,,
89154,control_change,18,0,7,,,,,,,,,10,11,54,,,
89156,control_change,18,0,9,,,,,,,,,12,11,54,,,
89156,control_change,18,0,8,,,,,,,,,11,11,54,,,
89156,control_change,18,0,2,,,,,,,,,1,11,59,,,
89157,control_change,18,0,5,,,,,,,,,4,11,56,,,
89157,control_change,18,0,3,,,,,,,,,2,11,59,,,
89158,control_change,18,0,10,,,,,,,,,6,11,54,,,
89159,control_change,18,0,6,,,,,,,,,5,11,56,,,
89159,control_change,18,0,11,,,,,,,,,13,11,54,,,
89159,control_change,18,0,4,,,,,,,,,3,11,59,,,
89160,control_change,0,0,1,,,,,,,,,0,11,59,,,
89160,note_on,540,0,1,,,,,,,,,0,,,,84,96
89160,note_on,6,0,7,,,,,,,,,10,,,,72,0
89160,note_on,0,0,7,,,,,,,,,10,,,,75,111
89160,set_tempo,60,1,0,,,,,,937500,,,,,,,,
89162,note_on,6,0,2,,,,,,,,,1,,,,77,0
89162,control_change,18,0,12,,,,,,,,,14,11,54,,,
89162,note_on,0,0,9,,,,,,,,,12,,,,60,72
89162,note_on,0,0,2,,,,,,,,,1,,,,75,95
89162,note_on,6,0,8,,,,,,,,,11,,,,60,0
89162,note_on,0,0,8,,,,,,,,,11,,,,60,74
89162,note_on,6,0,9,,,,,,,,,12,,,,60,0
89163,note_on,6,0,5,,,,,,,,,4,,,,63,0
89163,note_on,0,0,5,,,,,,,,,4,,,,60,82
89164,note_on,0,0,10,,,,,,,,,6,,,,41,62
89164,note_on,6,0,10,,,,,,,,,6,,,,51,0
89165,note_on,6,0,4,,,,,,,,,3,,,,51,0
89165,note_on,0,0,4,,,,,,,,,3,,,,48,0
89165,note_on,0,0,4,,,,,,,,,3,,,,41,95
89165,note_on,0,0,6,,,,,,,,,5,,,,53,82
89165,note_on,6,0,6,,,,,,,,,5,,,,60,0
89165,note_on,0,0,4,,,,,,,,,3,,,,48,95
89172,control_change,12,0,7,,,,,,,,,10,11,53,,,
89174,control_change,12,0,9,,,,,,,,,12,11,53,,,
89174,control_change,12,0,2,,,,,,,,,1,11,57,,,
89174,control_change,12,0,8,,,,,,,,,11,11,53,,,
89175,control_change,18,0,3,,,,,,,,,2,11,57,,,
89175,control_change,12,0,5,,,,,,,,,4,11,54,,,
89176,control_change,12,0,10,,,,,,,,,6,11,53,,,
89177,control_change,18,0,11,,,,,,,,,13,11,53,,,
89177,control_change,12,0,4,,,,,,,,,3,11,57,,,
89177,control_change,12,0,6,,,,,,,,,5,11,54,,,
89180,control_change,18,0,12,,,,,,,,,14,11,53,,,
89181,control_change,21,0,1,,,,,,,,,0,11,56,,,
89190,note_on,18,0,7,,,,,,,,,10,,,,75,0
89190,control_change,0,0,7,,,,,,,,,10,11,52,,,
89190,note_on,0,0,7,,,,,,,,,10,,,,72,111
89192,note_on,18,0,9,,,,,,,,,12,,,,60,0
89192,control_change,0,0,9,,,,,,,,,12,11,52,,,
89192,note_on,18,0,8,,,,,,,,,11,,,,60,0
89192,control_change,0,0,8,,,,,,,,,11,11,52,,,
89192,note_on,0,0,8,,,,,,,,,11,,,,57,74
89192,control_change,18,0,2,,,,,,,,,1,11,55,,,
89192,note_on,0,0,9,,,,,,,,,12,,,,57,72
89193,control_change,18,0,3,,,,,,,,,2,11,55,,,
89193,control_change,18,0,5,,,,,,,,,4,11,52,,,
89194,note_on,18,0,10,,,,,,,,,6,,,,41,0
89194,control_change,0,0,10,,,,,,,,,6,11,52,,,
89194,note_on,0,0,10,,,,,,,,,6,,,,48,62
89195,control_change,18,0,6,,,,,,,,,5,11,52,,,
89195,control_change,18,0,11,,,,,,,,,13,11,52,,,
89195,control_change,18,0,4,,,,,,,,,3,11,55,,,
89198,control_change,18,0,12,,,,,,,,,14,11,52,,,
89199,control_change,18,0,1,,,,,,,,,0,11,55,,,
89208,control_change,18,0,7,,,,,,,,,10,11,51,,,
89210,control_change,18,0,8,,,,,,,,,11,11,51,,,
89210,control_change,18,0,2,,,,,,,,,1,11,54,,,
89210,control_change,18,0,9,,,,,,,,,12,11,51,,,
89211,control_change,18,0,5,,,,,,,,,4,11,50,,,
89211,control_change,18,0,3,,,,,,,,,2,11,54,,,
89212,control_change,18,0,10,,,,,,,,,6,11,51,,,
89213,control_change,18,0,4,,,,,,,,,3,11,54,,,
89213,control_change,18,0,6,,,,,,,,,5,11,50,,,
89213,control_change,18,0,11,,,,,,,,,13,11,51,,,
89216,control_change,18,0,12,,,,,,,,,14,11,51,,,
89217,control_change,18,0,1,,,,,,,,,0,11,53,,,
89218,note_on,7,0,5,,,,,,,,,4,,,,60,0
89220,note_on,12,0,7,,,,,,,,,10,,,,72,0
89220,note_on,0,0,7,,,,,,,,,10,,,,69,111
89220,note_on,7,0,6,,,,,,,,,5,,,,53,0
89220,note_on,7,0,4,,,,,,,,,3,,,,48,0
89220,note_on,0,0,4,,,,,,,,,3,,,,41,0
89220,note_on,0,0,1,,,,,,,,,0,,,,81,96
89220,note_on,3,0,1,,,,,,,,,0,,,,84,0
89222,note_on,12,0,9,,,,,,,,,12,,,,57,0
89222,note_on,0,0,2,,,,,,,,,1,,,,72,95
89222,note_on,0,0,8,,,,,,,,,11,,,,60,74
89222,note_on,12,0,8,,,,,,,,,11,,,,57,0
89222,note_on,12,0,2,,,,,,,,,1,,,,75,0
89222,note_on,0,0,9,,,,,,,,,12,,,,60,72
89223,note_on,0,0,3,,,,,,,,,2,,,,65,96
89223,note_on,12,0,3,,,,,,,,,2,,,,69,96
89223,note_on,5,0,5,,,,,,,,,4,,,,60,82
89224,note_on,0,0,10,,,,,,,,,6,,,,41,62
89224,note_on,12,0,10,,,,,,,,,6,,,,48,0
89225,note_on,5,0,4,,,,,,,,,3,,,,48,95
89225,note_on,0,0,4,,,,,,,,,3,,,,41,95
89225,note_on,5,0,6,,,,,,,,,5,,,,53,82
89226,control_change,6,0,7,,,,,,,,,10,11,50,,,
89228,control_change,6,0,9,,,,,,,,,12,11,50,,,
89228,control_change,6,0,8,,,,,,,,,11,11,50,,,
89228,control_change,6,0,2,,,,,,,,,1,11,52,,,
89229,control_change,6,0,3,,,,,,,,,2,11,52,,,
89229,control_change,6,0,5,,,,,,,,,4,11,48,,,
89230,control_change,6,0,10,,,,,,,,,6,11,50,,,
89231,control_change,18,0,11,,,,,,,,,13,11,50,,,
89231,control_change,6,0,4,,,,,,,,,3,11,52,,,
89231,control_change,6,0,6,,,,,,,,,5,11,48,,,
89234,control_change,18,0,12,,,,,,,,,14,11,50,,,
89235,control_change,15,0,1,,,,,,,,,0,11,52,,,
89244,control_change,18,0,7,,,,,,,,,10,11,49,,,
89246,control_change,18,0,8,,,,,,,,,11,11,49,,,
89246,control_change,18,0,2,,,,,,,,,1,11,51,,,
89246,control_change,18,0,9,,,,,,,,,12,11,49,,,
89247,control_change,18,0,5,,,,,,,,,4,11,46,,,
89247,control_change,18,0,3,,,,,,,,,2,11,51,,,
89248,control_change,18,0,10,,,,,,,,,6,11,49,,,
89249,control_change,18,0,11,,,,,,,,,13,11,49,,,
89249,control_change,18,0,6,,,,,,,,,5,11,46,,,
89249,control_change,18,0,4,,,,,,,,,3,11,51,,,
89250,note_on,6,0,7,,,,,,,,,10,,,,69,0
89250,note_on,0,0,7,,,,,,,,,10,,,,72,98
89252,control_change,18,0,12,,,,,,,,,14,11,49,,,
89252,note_on,0,0,8,,,,,,,,,11,,,,57,74
89252,note_on,6,0,9,,,,,,,,,12,,,,60,0
89252,note_on,0,0,9,,,,,,,,,12,,,,57,72
89252,note_on,6,0,8,,,,,,,,,11,,,,60,0
89253,control_change,18,0,1,,,,,,,,,0,11,50,,,
89254,note_on,6,0,10,,,,,,,,,6,,,,41,0
89254,note_on,0,0,10,,,,,,,,,6,,,,48,62
89262,control_change,12,0,7,,,,,,,,,10,11,48,,,
89264,control_change,12,0,8,,,,,,,,,11,11,48,,,
89264,control_change,18,0,2,,,,,,,,,1,11,49,,,
89264,control_change,12,0,9,,,,,,,,,12,11,48,,,
89265,control_change,18,0,3,,,,,,,,,2,11,49,,,
89265,control_change,18,0,5,,,,,,,,,4,11,44,,,
89266,control_change,12,0,10,,,,,,,,,6,11,48,,,
89267,control_change,18,0,4,,,,,,,,,3,11,49,,,
89267,control_change,18,0,11,,,,,,,,,13,11,48,,,
89267,control_change,18,0,6,,,,,,,,,5,11,44,,,
89270,control_change,18,0,12,,,,,,,,,14,11,48,,,
89271,control_change,18,0,1,,,,,,,,,0,11,48,,,
89275,note_on,4,0,1,,,,,,,,,0,,,,81,0
89275,note_on,13,0,7,,,,,,,,,10,,,,72,0
89277,note_on,13,0,9,,,,,,,,,12,,,,57,0
89277,note_on,13,0,2,,,,,,,,,1,,,,72,0
89277,note_on,13,0,8,,,,,,,,,11,,,,57,0
89278,note_on,13,0,5,,,,,,,,,4,,,,60,0
89279,note_on,13,0,10,,,,,,,,,6,,,,48,0
89280,control_change,5,0,7,,,,,,,,,10,11,32,,,
89280,note_on,0,0,7,,,,,,,,,10,,,,70,103
89280,note_on,13,0,4,,,,,,,,,3,,,,41,0
89280,note_on,13,0,6,,,,,,,,,5,,,,53,0
89280,set_tempo,120,1,0,,,,,,1034483,,,,,,,,
89280,note_on,5,0,1,,,,,,,,,0,,,,82,88
89280,note_on,0,0,4,,,,,,,,,3,,,,48,0
89282,control_change,5,0,9,,,,,,,,,12,11,47,,,
89282,control_change,5,0,2,,,,,,,,,1,11,47,,,
89282,control_change,5,0,8,,,,,,,,,11,11,47,,,
89282,note_on,0,0,2,,,,,,,,,1,,,,70,87
89282,note_on,0,0,8,,,,,,,,,11,,,,62,74
89282,note_on,0,0,9,,,,,,,,,12,,,,62,72
89283,control_change,5,0,5,,,,,,,,,4,11,42,,,
89283,note_on,0,0,5,,,,,,,,,4,,,,58,82
89283,note_on,18,0,3,,,,,,,,,2,,,,65,0
89283,note_on,0,0,3,,,,,,,,,2,,,,69,0
89283,note_on,0,0,3,,,,,,,,,2,,,,70,96
89283,control_change,0,0,3,,,,,,,,,2,11,47,,,
89283,note_on,0,0,3,,,,,,,,,2,,,,62,96
89284,control_change,5,0,10,,,,,,,,,6,11,47,,,
89284,note_on,0,0,10,,,,,,,,,6,,,,46,62
89285,control_change,0,0,11,,,,,,,,,13,11,47,,,
89285,note_on,0,0,11,,,,,,,,,13,,,,46,100
89285,note_on,5,0,6,,,,,,,,,5,,,,46,82
89285,control_change,0,0,6,,,,,,,,,5,11,42,,,
89285,note_on,18,0,11,,,,,,,,,13,,,,41,0
89285,note_on,0,0,4,,,,,,,,,3,,,,50,95
89285,control_change,0,0,4,,,,,,,,,3,11,47,,,
89285,note_on,5,0,4,,,,,,,,,3,,,,46,95
89288,control_change,0,0,12,,,,,,,,,14,11,47,,,
89288,note_on,0,0,12,,,,,,,,,14,,,,34,96
89288,note_on,18,0,12,,,,,,,,,14,,,,29,0
89298,control_change,18,0,7,,,,,,,,,10,11,33,,,
89312,note_on,30,0,9,,,,,,,,,12,,,,62,0
89312,note_on,0,0,9,,,,,,,,,12,,,,58,72
89312,note_on,0,0,8,,,,,,,,,11,,,,58,74
89312,note_on,30,0,8,,,,,,,,,11,,,,62,0
89314,note_on,0,0,10,,,,,,,,,6,,,,50,62
89314,note_on,30,0,10,,,,,,,,,6,,,,46,0
89316,control_change,18,0,7,,,,,,,,,10,11,34,,,
89334,control_change,18,0,7,,,,,,,,,10,11,35,,,
89340,set_tempo,60,1,0,,,,,,937500,,,,,,,,
89342,note_on,30,0,8,,,,,,,,,11,,,,58,0
89342,note_on,30,0,9,,,,,,,,,12,,,,58,0
89342,note_on,0,0,8,,,,,,,,,11,,,,62,74
89342,note_on,0,0,9,,,,,,,,,12,,,,62,72
89344,note_on,30,0,10,,,,,,,,,6,,,,50,0
89344,note_on,0,0,10,,,,,,,,,6,,,,46,62
89352,control_change,18,0,7,,,,,,,,,10,11,36,,,
89370,control_change,18,0,7,,,,,,,,,10,11,37,,,
89372,note_on,0,0,9,,,,,,,,,12,,,,58,72
89372,note_on,30,0,9,,,,,,,,,12,,,,62,0
89372,note_on,30,0,8,,,,,,,,,11,,,,62,0
89372,note_on,0,0,8,,,,,,,,,11,,,,58,74
89374,note_on,0,0,10,,,,,,,,,6,,,,50,62
89374,note_on,30,0,10,,,,,,,,,6,,,,46,0
89402,note_on,30,0,9,,,,,,,,,12,,,,58,0
89402,note_on,0,0,8,,,,,,,,,11,,,,62,74
89402,note_on,30,0,8,,,,,,,,,11,,,,58,0
89402,note_on,0,0,9,,,,,,,,,12,,,,62,72
89403,note_on,0,0,3,,,,,,,,,2,,,,62,0
89403,note_on,120,0,3,,,,,,,,,2,,,,70,0
89404,note_on,30,0,10,,,,,,,,,6,,,,50,0
89404,note_on,0,0,10,,,,,,,,,6,,,,46,62
89405,note_on,0,0,4,,,,,,,,,3,,,,46,0
89405,note_on,120,0,4,,,,,,,,,3,,,,50,0
89405,note_on,120,0,11,,,,,,,,,13,,,,46,0
89408,note_on,120,0,12,,,,,,,,,14,,,,34,0
89432,note_on,0,0,9,,,,,,,,,12,,,,58,72
89432,note_on,30,0,9,,,,,,,,,12,,,,62,0
89432,note_on,30,0,8,,,,,,,,,11,,,,62,0
89432,note_on,0,0,8,,,,,,,,,11,,,,58,74
89434,note_on,30,0,10,,,,,,,,,6,,,,46,0
89434,note_on,0,0,10,,,,,,,,,6,,,,50,62
89460,set_tempo,120,1,0,,,,,,1034483,,,,,,,,
89462,note_on,0,0,9,,,,,,,,,12,,,,63,72
89462,note_on,30,0,9,,,,,,,,,12,,,,58,0
89462,note_on,30,0,8,,,,,,,,,11,,,,58,0
89462,note_on,0,0,8,,,,,,,,,11,,,,63,74
89464,note_on,0,0,10,,,,,,,,,6,,,,48,62
89464,note_on,30,0,10,,,,,,,,,6,,,,50,0
89492,note_on,0,0,8,,,,,,,,,11,,,,60,74
89492,note_on,30,0,8,,,,,,,,,11,,,,63,0
89492,note_on,30,0,9,,,,,,,,,12,,,,63,0
89492,note_on,0,0,9,,,,,,,,,12,,,,60,72
89494,note_on,0,0,10,,,,,,,,,6,,,,51,62
89494,note_on,30,0,10,,,,,,,,,6,,,,48,0
89520,set_tempo,60,1,0,,,,,,937500,,,,,,,,
89522,note_on,0,0,8,,,,,,,,,11,,,,63,74
89522,note_on,30,0,9,,,,,,,,,12,,,,60,0
89522,note_on,0,0,9,,,,,,,,,12,,,,63,72
89522,note_on,30,0,8,,,,,,,,,11,,,,60,0
89524,note_on,0,0,10,,,,,,,,,6,,,,48,62
89524,note_on,30,0,10,,,,,,,,,6,,,,51,0
89552,note_on,0,0,8,,,,,,,,,11,,,,60,74
89552,note_on,0,0,9,,,,,,,,,12,,,,60,72
89552,note_on,30,0,9,,,,,,,,,12,,,,63,0
89552,note_on,30,0,8,,,,,,,,,11,,,,63,0
89554,note_on,30,0,10,,,,,,,,,6,,,,48,0
89554,note_on,0,0,10,,,,,,,,,6,,,,51,62
89582,note_on,0,0,9,,,,,,,,,12,,,,62,72
89582,note_on,30,0,8,,,,,,,,,11,,,,60,0
89582,note_on,0,0,8,,,,,,,,,11,,,,62,74
89582,note_on,30,0,9,,,,,,,,,12,,,,60,0
89584,note_on,30,0,10,,,,,,,,,6,,,,51,0
89584,note_on,0,0,10,,,,,,,,,6,,,,46,62
89612,note_on,0,0,8,,,,,,,,,11,,,,58,74
89612,note_on,30,0,9,,,,,,,,,12,,,,62,0
89612,note_on,0,0,9,,,,,,,,,12,,,,58,72
89612,note_on,30,0,8,,,,,,,,,11,,,,62,0
89614,note_on,0,0,10,,,,,,,,,6,,,,50,62
89614,note_on,30,0,10,,,,,,,,,6,,,,46,0
89640,control_change,270,0,7,,,,,,,,,10,11,37,,,
89640,set_tempo,120,1,0,,,,,,1034483,,,,,,,,
89642,note_on,30,0,9,,,,,,,,,12,,,,58,0
89642,note_on,0,0,9,,,,,,,,,12,,,,60,72
89642,note_on,30,0,8,,,,,,,,,11,,,,58,0
89642,note_on,0,0,8,,,,,,,,,11,,,,60,74
89644,program_change,239,0,11,,,,,,,,45,13,,,,,
89644,note_on,0,0,10,,,,,,,,,6,,,,45,62
89644,note_on,30,0,10,,,,,,,,,6,,,,50,0
89645,control_change,1,0,11,,,,,,,,,13,11,100,,,
89645,note_on,0,0,11,,,,,,,,,13,,,,46,43
89647,program_change,239,0,12,,,,,,,,45,14,,,,,
89648,control_change,1,0,12,,,,,,,,,14,11,100,,,
89648,note_on,0,0,12,,,,,,,,,14,,,,34,36
89670,control_change,30,0,7,,,,,,,,,10,11,38,,,
89672,note_on,0,0,9,,,,,,,,,12,,,,57,72
89672,note_on,30,0,8,,,,,,,,,11,,,,60,0
89672,note_on,0,0,8,,,,,,,,,11,,,,57,74
89672,note_on,30,0,9,,,,,,,,,12,,,,60,0
89674,note_on,0,0,10,,,,,,,,,6,,,,48,62
89674,note_on,30,0,10,,,,,,,,,6,,,,45,0
89700,set_tempo,60,1,0,,,,,,937500,,,,,,,,
89700,control_change,30,0,7,,,,,,,,,10,11,39,,,
89702,note_on,0,0,8,,,,,,,,,11,,,,63,74
89702,note_on,30,0,8,,,,,,,,,11,,,,57,0
89702,note_on,30,0,9,,,,,,,,,12,,,,57,0
89702,note_on,0,0,9,,,,,,,,,12,,,,63,72
89704,note_on,30,0,10,,,,,,,,,6,,,,48,0
89704,note_on,0,0,10,,,,,,,,,6,,,,48,62
89730,control_change,30,0,7,,,,,,,,,10,11,40,,,
89732,note_on,30,0,8,,,,,,,,,11,,,,63,0
89732,note_on,30,0,9,,,,,,,,,12,,,,63,0
89732,note_on,0,0,9,,,,,,,,,12,,,,60,72
89732,note_on,0,0,8,,,,,,,,,11,,,,60,74
89734,note_on,0,0,10,,,,,,,,,6,,,,51,62
89734,note_on,30,0,10,,,,,,,,,6,,,,48,0
89760,control_change,30,0,7,,,,,,,,,10,11,41,,,
89762,note_on,30,0,9,,,,,,,,,12,,,,60,0
89762,note_on,0,0,9,,,,,,,,,12,,,,63,72
89762,note_on,0,0,8,,,,,,,,,11,,,,63,74
89762,note_on,30,0,8,,,,,,,,,11,,,,60,0
89764,note_on,0,0,10,,,,,,,,,6,,,,48,62
89764,note_on,30,0,10,,,,,,,,,6,,,,51,0
89765,note_on,120,0,11,,,,,,,,,13,,,,46,0
89768,note_on,120,0,12,,,,,,,,,14,,,,34,0
89790,control_change,30,0,7,,,,,,,,,10,11,42,,,
89792,note_on,30,0,9,,,,,,,,,12,,,,63,0
89792,note_on,30,0,8,,,,,,,,,11,,,,63,0
89792,note_on,0,0,8,,,,,,,,,11,,,,60,74
89792,note_on,0,0,9,,,,,,,,,12,,,,60,72
89794,note_on,0,0,10,,,,,,,,,6,,,,51,62
89794,note_on,30,0,10,,,,,,,,,6,,,,48,0
89820,control_change,30,0,7,,,,,,,,,10,11,43,,,
89820,set_tempo,120,1,0,,,,,,1034483,,,,,,,,
89822,note_on,30,0,8,,,,,,,,,11,,,,60,0
89822,note_on,0,0,8,,,,,,,,,11,,,,65,74
89822,note_on,0,0,9,,,,,,,,,12,,,,65,72
89822,note_on,30,0,9,,,,,,,,,12,,,,60,0
89824,note_on,30,0,10,,,,,,,,,6,,,,51,0
89824,note_on,0,0,10,,,,,,,,,6,,,,50,62
89850,control_change,30,0,7,,,,,,,,,10,11,44,,,
89852,note_on,0,0,9,,,,,,,,,12,,,,62,72
89852,note_on,30,0,9,,,,,,,,,12,,,,65,0
89852,note_on,30,0,8,,,,,,,,,11,,,,65,0
89852,note_on,0,0,8,,,,,,,,,11,,,,62,74
89854,note_on,0,0,10,,,,,,,,,6,,,,53,62
89854,note_on,30,0,10,,,,,,,,,6,,,,50,0
89880,control_change,30,0,7,,,,,,,,,10,11,45,,,
89880,set_tempo,60,1,0,,,,,,937500,,,,,,,,
89882,note_on,0,0,9,,,,,,,,,12,,,,65,72
89882,note_on,30,0,9,,,,,,,,,12,,,,62,0
89882,note_on,30,0,8,,,,,,,,,11,,,,62,0
89882,note_on,0,0,8,,,,,,,,,11,,,,65,74
89884,note_on,0,0,10,,,,,,,,,6,,,,50,62
89884,note_on,30,0,10,,,,,,,,,6,,,,53,0
89910,control_change,30,0,7,,,,,,,,,10,11,46,,,
89912,note_on,30,0,8,,,,,,,,,11,,,,65,0
89912,note_on,0,0,8,,,,,,,,,11,,,,62,74
89912,note_on,0,0,9,,,,,,,,,12,,,,62,72
89912,note_on,30,0,9,,,,,,,,,12,,,,65,0
89914,note_on,30,0,10,,,,,,,,,6,,,,50,0
89914,note_on,0,0,10,,,,,,,,,6,,,,53,62
89940,control_change,30,0,7,,,,,,,,,10,11,47,,,
89942,note_on,0,0,8,,,,,,,,,11,,,,63,74
89942,note_on,30,0,8,,,,,,,,,11,,,,62,0
89942,note_on,0,0,9,,,,,,,,,12,,,,63,72
89942,note_on,30,0,9,,,,,,,,,12,,,,62,0
89944,note_on,30,0,10,,,,,,,,,6,,,,53,0
89944,note_on,0,0,10,,,,,,,,,6,,,,48,62
89947,control_change,7,0,7,,,,,,,,,10,11,44,,,
89955,control_change,8,0,7,,,,,,,,,10,11,41,,,
89962,control_change,7,0,7,,,,,,,,,10,11,38,,,
89970,control_change,8,0,7,,,,,,,,,10,11,35,,,
89972,note_on,0,0,9,,,,,,,,,12,,,,60,72
89972,note_on,30,0,9,,,,,,,,,12,,,,63,0
89972,note_on,30,0,8,,,,,,,,,11,,,,63,0
89972,note_on,0,0,8,,,,,,,,,11,,,,60,74
89974,note_on,30,0,10,,,,,,,,,6,,,,48,0
89974,note_on,0,0,10,,,,,,,,,6,,,,51,62
89977,control_change,7,0,7,,,,,,,,,10,11,32,,,
89985,control_change,8,0,7,,,,,,,,,10,11,29,,,
89992,control_change,7,0,7,,,,,,,,,10,11,26,,,
89995,note_on,3,0,7,,,,,,,,,10,,,,70,0
89997,note_on,25,0,8,,,,,,,,,11,,,,60,0
89997,note_on,25,0,9,,,,,,,,,12,,,,60,0
89999,note_on,25,0,10,,,,,,,,,6,,,,51,0
90000,control_change,5,0,7,,,,,,,,,10,11,20,,,
90000,control_change,720,0,1,,,,,,,,,0,11,47,,,
90000,set_tempo,120,1,0,,,,,,1034483,,,,,,,,
90000,note_on,0,0,7,,,,,,,,,10,,,,82,115
90002,control_change,5,0,9,,,,,,,,,12,11,47,,,
90002,note_on,0,0,9,,,,,,,,,12,,,,62,72
90002,control_change,5,0,8,,,,,,,,,11,11,47,,,
90002,control_change,720,0,2,,,,,,,,,1,11,47,,,
90002,note_on,0,0,8,,,,,,,,,11,,,,62,74
90003,control_change,720,0,5,,,,,,,,,4,11,42,,,
90004,control_change,5,0,10,,,,,,,,,6,11,47,,,
90004,note_on,0,0,10,,,,,,,,,6,,,,46,62
90005,note_on,240,0,11,,,,,,,,,13,,,,46,43
90005,control_change,720,0,6,,,,,,,,,5,11,42,,,
90008,note_on,240,0,12,,,,,,,,,14,,,,34,36
90015,control_change,15,0,7,,,,,,,,,10,11,23,,,
90031,control_change,16,0,7,,,,,,,,,10,11,26,,,
90032,note_on,30,0,8,,,,,,,,,11,,,,62,0
90032,note_on,0,0,8,,,,,,,,,11,,,,58,74
90032,note_on,0,0,9,,,,,,,,,12,,,,58,72
90032,note_on,30,0,9,,,,,,,,,12,,,,62,0
90034,note_on,0,0,10,,,,,,,,,6,,,,50,62
90034,note_on,30,0,10,,,,,,,,,6,,,,46,0
90036,control_change,36,0,1,,,,,,,,,0,11,48,,,
90038,control_change,36,0,2,,,,,,,,,1,11,48,,,
90039,control_change,36,0,5,,,,,,,,,4,11,43,,,
90041,control_change,36,0,6,,,,,,,,,5,11,43,,,
90047,control_change,16,0,7,,,,,,,,,10,11,29,,,
90050,control_change,18,0,9,,,,,,,,,12,11,48,,,
90050,control_change,18,0,8,,,,,,,,,11,11,48,,,
90052,control_change,18,0,10,,,,,,,,,6,11,48,,,
90060,set_tempo,60,1,0,,,,,,937500,,,,,,,,
90062,note_on,0,0,9,,,,,,,,,12,,,,65,72
90062,note_on,12,0,9,,,,,,,,,12,,,,58,0
90062,note_on,12,0,8,,,,,,,,,11,,,,58,0
90062,note_on,0,0,8,,,,,,,,,11,,,,65,74
90063,control_change,16,0,7,,,,,,,,,10,11,32,,,
90064,note_on,0,0,10,,,,,,,,,6,,,,50,62
90064,note_on,12,0,10,,,,,,,,,6,,,,50,0
90072,control_change,36,0,1,,,,,,,,,0,11,49,,,
90074,control_change,36,0,2,,,,,,,,,1,11,49,,,
90075,control_change,36,0,5,,,,,,,,,4,11,44,,,
90077,control_change,36,0,6,,,,,,,,,5,11,44,,,
90079,control_change,16,0,7,,,,,,,,,10,11,35,,,
90092,note_on,30,0,9,,,,,,,,,12,,,,65,0
90092,note_on,0,0,9,,,,,,,,,12,,,,62,72
90092,note_on,0,0,8,,,,,,,,,11,,,,62,74
90092,note_on,30,0,8,,,,,,,,,11,,,,65,0
90094,note_on,30,0,10,,,,,,,,,6,,,,50,0
90094,note_on,0,0,10,,,,,,,,,6,,,,53,62
90098,control_change,6,0,8,,,,,,,,,11,11,49,,,
90098,control_change,6,0,9,,,,,,,,,12,11,49,,,
90100,control_change,6,0,10,,,,,,,,,6,11,49,,,
90108,control_change,36,0,1,,,,,,,,,0,11,50,,,
90110,control_change,36,0,2,,,,,,,,,1,11,50,,,
90111,control_change,36,0,5,,,,,,,,,4,11,45,,,
90112,control_change,33,0,7,,,,,,,,,10,11,38,,,
90113,control_change,36,0,6,,,,,,,,,5,11,45,,,
90122,note_on,0,0,9,,,,,,,,,12,,,,65,72
90122,note_on,0,0,8,,,,,,,,,11,,,,65,74
90122,note_on,24,0,8,,,,,,,,,11,,,,62,0
90122,note_on,24,0,9,,,,,,,,,12,,,,62,0
90124,note_on,0,0,10,,,,,,,,,6,,,,50,62
90124,note_on,24,0,10,,,,,,,,,6,,,,53,0
90125,note_on,120,0,11,,,,,,,,,13,,,,46,0
90128,note_on,120,0,12,,,,,,,,,14,,,,34,0
90135,control_change,23,0,7,,,,,,,,,10,11,39,,,
90144,control_change,36,0,1,,,,,,,,,0,11,51,,,
90146,control_change,24,0,9,,,,,,,,,12,11,50,,,
90146,control_change,36,0,2,,,,,,,,,1,11,51,,,
90146,control_change,24,0,8,,,,,,,,,11,11,50,,,
90147,control_change,36,0,5,,,,,,,,,4,11,46,,,
90148,control_change,24,0,10,,,,,,,,,6,11,50,,,
90149,control_change,36,0,6,,,,,,,,,5,11,46,,,
90152,note_on,0,0,8,,,,,,,,,11,,,,62,74
90152,note_on,6,0,8,,,,,,,,,11,,,,65,0
90152,note_on,0,0,9,,,,,,,,,12,,,,62,72
90152,note_on,6,0,9,,,,,,,,,12,,,,65,0
90154,note_on,6,0,10,,,,,,,,,6,,,,50,0
90154,note_on,0,0,10,,,,,,,,,6,,,,53,62
90158,control_change,23,0,7,,,,,,,,,10,11,40,,,
90180,control_change,36,0,1,,,,,,,,,0,11,52,,,
90180,set_tempo,120,1,0,,,,,,1034483,,,,,,,,
90181,control_change,23,0,7,,,,,,,,,10,11,41,,,
90182,control_change,36,0,2,,,,,,,,,1,11,52,,,
90182,note_on,0,0,9,,,,,,,,,12,,,,67,72
90182,note_on,30,0,9,,,,,,,,,12,,,,62,0
90182,note_on,30,0,8,,,,,,,,,11,,,,62,0
90182,note_on,0,0,8,,,,,,,,,11,,,,67,74
90183,control_change,36,0,5,,,,,,,,,4,11,47,,,
90184,note_on,0,0,10,,,,,,,,,6,,,,51,62
90184,note_on,30,0,10,,,,,,,,,6,,,,53,0
90185,control_change,36,0,6,,,,,,,,,5,11,47,,,
90194,control_change,12,0,9,,,,,,,,,12,11,51,,,
90194,control_change,12,0,8,,,,,,,,,11,11,51,,,
90196,control_change,12,0,10,,,,,,,,,6,11,51,,,
90204,control_change,23,0,7,,,,,,,,,10,11,42,,,
90212,note_on,18,0,8,,,,,,,,,11,,,,67,0
90212,note_on,18,0,9,,,,,,,,,12,,,,67,0
90212,note_on,0,0,9,,,,,,,,,12,,,,63,72
90212,note_on,0,0,8,,,,,,,,,11,,,,63,74
90214,note_on,0,0,10,,,,,,,,,6,,,,55,62
90214,note_on,18,0,10,,,,,,,,,6,,,,51,0
90216,control_change,36,0,1,,,,,,,,,0,11,52,,,
90218,control_change,36,0,2,,,,,,,,,1,11,52,,,
90219,control_change,36,0,5,,,,,,,,,4,11,48,,,
90221,control_change,36,0,6,,,,,,,,,5,11,48,,,
90226,control_change,22,0,7,,,,,,,,,10,11,43,,,
90240,set_tempo,60,1,0,,,,,,937500,,,,,,,,
90242,note_on,0,0,8,,,,,,,,,11,,,,67,74
90242,control_change,0,0,8,,,,,,,,,11,11,52,,,
90242,control_change,0,0,9,,,,,,,,,12,11,52,,,
90242,note_on,30,0,8,,,,,,,,,11,,,,63,0
90242,note_on,0,0,9,,,,,,,,,12,,,,67,72
90242,note_on,30,0,9,,,,,,,,,12,,,,63,0
90244,note_on,30,0,10,,,,,,,,,6,,,,55,0
90244,control_change,0,0,10,,,,,,,,,6,11,52,,,
90244,note_on,0,0,10,,,,,,,,,6,,,,51,62
90249,control_change,23,0,7,,,,,,,,,10,11,44,,,
90252,control_change,36,0,1,,,,,,,,,0,11,53,,,
90254,control_change,36,0,2,,,,,,,,,1,11,53,,,
90255,control_change,36,0,5,,,,,,,,,4,11,49,,,
90257,control_change,36,0,6,,,,,,,,,5,11,49,,,
90272,note_on,0,0,8,,,,,,,,,11,,,,63,74
90272,note_on,30,0,8,,,,,,,,,11,,,,67,0
90272,note_on,0,0,9,,,,,,,,,12,,,,63,72
90272,note_on,30,0,9,,,,,,,,,12,,,,67,0
90272,control_change,23,0,7,,,,,,,,,10,11,45,,,
90274,note_on,30,0,10,,,,,,,,,6,,,,51,0
90274,note_on,0,0,10,,,,,,,,,6,,,,55,62
90288,control_change,36,0,1,,,,,,,,,0,11,54,,,
90290,control_change,18,0,9,,,,,,,,,12,11,53,,,
90290,control_change,18,0,8,,,,,,,,,11,11,53,,,
90290,control_change,36,0,2,,,,,,,,,1,11,54,,,
90291,control_change,36,0,5,,,,,,,,,4,11,50,,,
90292,control_change,18,0,10,,,,,,,,,6,11,53,,,
90293,control_change,36,0,6,,,,,,,,,5,11,50,,,
90295,control_change,23,0,7,,,,,,,,,10,11,46,,,
90302,note_on,12,0,8,,,,,,,,,11,,,,63,0
90302,note_on,0,0,8,,,,,,,,,11,,,,65,74
90302,note_on,0,0,9,,,,,,,,,12,,,,65,72
90302,note_on,12,0,9,,,,,,,,,12,,,,63,0
90304,note_on,12,0,10,,,,,,,,,6,,,,55,0
90304,note_on,0,0,10,,,,,,,,,6,,,,50,62
90318,control_change,23,0,7,,,,,,,,,10,11,47,,,
90324,control_change,36,0,1,,,,,,,,,0,11,55,,,
90326,control_change,36,0,2,,,,,,,,,1,11,55,,,
90327,control_change,36,0,5,,,,,,,,,4,11,51,,,
90329,control_change,36,0,6,,,,,,,,,5,11,51,,,
90332,note_on,0,0,9,,,,,,,,,12,,,,62,72
90332,note_on,0,0,8,,,,,,,,,11,,,,62,74
90332,note_on,30,0,8,,,,,,,,,11,,,,65,0
90332,note_on,30,0,9,,,,,,,,,12,,,,65,0
90334,note_on,0,0,10,,,,,,,,,6,,,,53,62
90334,note_on,30,0,10,,,,,,,,,6,,,,50,0
90338,control_change,6,0,9,,,,,,,,,12,11,54,,,
90338,control_change,6,0,8,,,,,,,,,11,11,54,,,
90340,control_change,22,0,7,,,,,,,,,10,11,48,,,
90340,control_change,6,0,10,,,,,,,,,6,11,54,,,
90360,set_tempo,120,1,0,,,,,,1034483,,,,,,,,
90360,control_change,36,0,1,,,,,,,,,0,11,55,,,
90362,note_on,0,0,9,,,,,,,,,12,,,,68,72
90362,control_change,36,0,2,,,,,,,,,1,11,55,,,
90362,note_on,24,0,8,,,,,,,,,11,,,,62,0
90362,note_on,0,0,8,,,,,,,,,11,,,,68,74
90362,note_on,24,0,9,,,,,,,,,12,,,,62,0
90363,control_change,36,0,5,,,,,,,,,4,11,52,,,
90363,control_change,23,0,7,,,,,,,,,10,11,49,,,
90364,note_on,0,0,10,,,,,,,,,6,,,,53,62
90364,note_on,24,0,10,,,,,,,,,6,,,,53,0
90365,control_change,36,0,6,,,,,,,,,5,11,52,,,
90386,control_change,24,0,8,,,,,,,,,11,11,55,,,
90386,control_change,23,0,7,,,,,,,,,10,11,50,,,
90386,control_change,24,0,9,,,,,,,,,12,11,55,,,
90388,control_change,24,0,10,,,,,,,,,6,11,55,,,
90392,note_on,6,0,9,,,,,,,,,12,,,,68,0
90392,note_on,0,0,9,,,,,,,,,12,,,,65,72
90392,note_on,0,0,8,,,,,,,,,11,,,,65,74
90392,note_on,6,0,8,,,,,,,,,11,,,,68,0
90394,note_on,6,0,10,,,,,,,,,6,,,,53,0
90394,note_on,0,0,10,,,,,,,,,6,,,,56,62
90396,control_change,36,0,1,,,,,,,,,0,11,56,,,
90398,control_change,36,0,2,,,,,,,,,1,11,56,,,
90399,control_change,36,0,5,,,,,,,,,4,11,53,,,
90401,control_change,36,0,6,,,,,,,,,5,11,53,,,
90409,control_change,23,0,7,,,,,,,,,10,11,51,,,
90420,set_tempo,60,1,0,,,,,,937500,,,,,,,,
90422,note_on,0,0,8,,,,,,,,,11,,,,68,74
90422,note_on,30,0,8,,,,,,,,,11,,,,65,0
90422,note_on,30,0,9,,,,,,,,,12,,,,65,0
90422,note_on,0,0,9,,,,,,,,,12,,,,68,72
90424,note_on,0,0,10,,,,,,,,,6,,,,53,62
90424,note_on,30,0,10,,,,,,,,,6,,,,56,0
90432,control_change,36,0,1,,,,,,,,,0,11,57,,,
90432,control_change,23,0,7,,,,,,,,,10,11,52,,,
90434,control_change,12,0,9,,,,,,,,,12,11,56,,,
90434,control_change,12,0,8,,,,,,,,,11,11,56,,,
90434,control_change,36,0,2,,,,,,,,,1,11,57,,,
90435,control_change,36,0,5,,,,,,,,,4,11,54,,,
90436,control_change,12,0,10,,,,,,,,,6,11,56,,,
90437,control_change,36,0,6,,,,,,,,,5,11,54,,,
90452,note_on,0,0,9,,,,,,,,,12,,,,65,72
90452,note_on,18,0,9,,,,,,,,,12,,,,68,0
90452,note_on,18,0,8,,,,,,,,,11,,,,68,0
90452,note_on,0,0,8,,,,,,,,,11,,,,65,74
90454,control_change,22,0,7,,,,,,,,,10,11,53,,,
90454,note_on,0,0,10,,,,,,,,,6,,,,56,62
90454,note_on,18,0,10,,,,,,,,,6,,,,53,0
90468,control_change,36,0,1,,,,,,,,,0,11,58,,,
90470,control_change,36,0,2,,,,,,,,,1,11,58,,,
90471,control_change,36,0,5,,,,,,,,,4,11,55,,,
90473,control_change,36,0,6,,,,,,,,,5,11,55,,,
90477,control_change,23,0,7,,,,,,,,,10,11,54,,,
90482,note_on,30,0,9,,,,,,,,,12,,,,65,0
90482,control_change,0,0,9,,,,,,,,,12,11,57,,,
90482,note_on,0,0,8,,,,,,,,,11,,,,67,74
90482,control_change,0,0,8,,,,,,,,,11,11,57,,,
90482,note_on,0,0,9,,,,,,,,,12,,,,67,72
90482,note_on,30,0,8,,,,,,,,,11,,,,65,0
90484,note_on,30,0,10,,,,,,,,,6,,,,56,0
90484,note_on,0,0,10,,,,,,,,,6,,,,51,62
90484,control_change,0,0,10,,,,,,,,,6,11,57,,,
90500,control_change,23,0,7,,,,,,,,,10,11,55,,,
90504,control_change,36,0,1,,,,,,,,,0,11,59,,,
90506,control_change,36,0,2,,,,,,,,,1,11,59,,,
90507,control_change,36,0,5,,,,,,,,,4,11,56,,,
90509,control_change,36,0,6,,,,,,,,,5,11,56,,,
90512,note_on,0,0,9,,,,,,,,,12,,,,63,72
90512,note_on,30,0,9,,,,,,,,,12,,,,67,0
90512,note_on,0,0,8,,,,,,,,,11,,,,63,74
90512,note_on,30,0,8,,,,,,,,,11,,,,67,0
90514,note_on,0,0,10,,,,,,,,,6,,,,55,62
90514,note_on,30,0,10,,,,,,,,,6,,,,51,0
90523,control_change,23,0,7,,,,,,,,,10,11,56,,,
90530,control_change,18,0,9,,,,,,,,,12,11,58,,,
90530,control_change,18,0,8,,,,,,,,,11,11,58,,,
90532,control_change,18,0,10,,,,,,,,,6,11,58,,,
90540,control_change,36,0,1,,,,,,,,,0,11,60,,,
90540,set_tempo,120,1,0,,,,,,1034483,,,,,,,,
90542,note_on,0,0,9,,,,,,,,,12,,,,70,72
90542,note_on,12,0,9,,,,,,,,,12,,,,63,0
90542,control_change,36,0,2,,,,,,,,,1,11,60,,,
90542,note_on,12,0,8,,,,,,,,,11,,,,63,0
90542,note_on,0,0,8,,,,,,,,,11,,,,70,74
90543,control_change,36,0,5,,,,,,,,,4,11,57,,,
90544,note_on,12,0,10,,,,,,,,,6,,,,55,0
90544,note_on,0,0,10,,,,,,,,,6,,,,55,62
90545,note_on,420,0,11,,,,,,,,,13,,,,58,43
90545,control_change,36,0,6,,,,,,,,,5,11,57,,,
90546,control_change,23,0,7,,,,,,,,,10,11,57,,,
90548,note_on,420,0,12,,,,,,,,,14,,,,46,36
90568,control_change,22,0,7,,,,,,,,,10,11,58,,,
90572,note_on,30,0,9,,,,,,,,,12,,,,70,0
90572,note_on,0,0,9,,,,,,,,,12,,,,67,72
90572,note_on,0,0,8,,,,,,,,,11,,,,67,74
90572,note_on,30,0,8,,,,,,,,,11,,,,70,0
90574,note_on,0,0,10,,,,,,,,,6,,,,58,62
90574,note_on,30,0,10,,,,,,,,,6,,,,55,0
90576,control_change,36,0,1,,,,,,,,,0,11,61,,,
90578,control_change,36,0,2,,,,,,,,,1,11,61,,,
90578,control_change,6,0,9,,,,,,,,,12,11,59,,,
90578,control_change,6,0,8,,,,,,,,,11,11,59,,,
90579,control_change,36,0,5,,,,,,,,,4,11,58,,,
90580,control_change,6,0,10,,,,,,,,,6,11,59,,,
90581,control_change,36,0,6,,,,,,,,,5,11,58,,,
90591,control_change,23,0,7,,,,,,,,,10,11,59,,,
90600,set_tempo,60,1,0,,,,,,937500,,,,,,,,
90602,note_on,24,0,8,,,,,,,,,11,,,,67,0
90602,note_on,24,0,9,,,,,,,,,12,,,,67,0
90602,note_on,0,0,9,,,,,,,,,12,,,,70,72
90602,note_on,0,0,8,,,,,,,,,11,,,,70,74
90604,note_on,24,0,10,,,,,,,,,6,,,,58,0
90604,note_on,0,0,10,,,,,,,,,6,,,,55,62
90612,control_change,36,0,1,,,,,,,,,0,11,61,,,
90614,control_change,23,0,7,,,,,,,,,10,11,60,,,
90614,control_change,36,0,2,,,,,,,,,1,11,61,,,
90615,control_change,36,0,5,,,,,,,,,4,11,59,,,
90617,control_change,36,0,6,,,,,,,,,5,11,59,,,
90626,control_change,24,0,8,,,,,,,,,11,11,60,,,
90626,control_change,24,0,9,,,,,,,,,12,11,60,,,
90628,control_change,24,0,10,,,,,,,,,6,11,60,,,
90632,note_on,0,0,9,,,,,,,,,12,,,,67,72
90632,note_on,6,0,9,,,,,,,,,12,,,,70,0
90632,note_on,6,0,8,,,,,,,,,11,,,,70,0
90632,note_on,0,0,8,,,,,,,,,11,,,,67,74
90634,note_on,6,0,10,,,,,,,,,6,,,,55,0
90634,note_on,0,0,10,,,,,,,,,6,,,,58,62
90637,control_change,23,0,7,,,,,,,,,10,11,61,,,
90648,control_change,36,0,1,,,,,,,,,0,11,62,,,
90650,control_change,36,0,2,,,,,,,,,1,11,62,,,
90651,control_change,36,0,5,,,,,,,,,4,11,60,,,
90653,control_change,36,0,6,,,,,,,,,5,11,60,,,
90655,note_on,18,0,7,,,,,,,,,10,,,,82,0
90660,control_change,5,0,7,,,,,,,,,10,11,62,,,
90660,note_on,0,0,7,,,,,,,,,10,,,,80,103
90662,note_on,30,0,8,,,,,,,,,11,,,,67,0
90662,note_on,0,0,8,,,,,,,,,11,,,,68,74
90662,note_on,0,0,9,,,,,,,,,12,,,,68,72
90662,note_on,30,0,9,,,,,,,,,12,,,,67,0
90664,note_on,0,0,10,,,,,,,,,6,,,,53,62
90664,note_on,30,0,10,,,,,,,,,6,,,,58,0
90665,note_on,120,0,11,,,,,,,,,13,,,,58,0
90668,note_on,120,0,12,,,,,,,,,14,,,,46,0
90674,control_change,12,0,9,,,,,,,,,12,11,61,,,
90674,control_change,12,0,8,,,,,,,,,11,11,61,,,
90676,control_change,12,0,10,,,,,,,,,6,11,61,,,
90684,control_change,36,0,1,,,,,,,,,0,11,63,,,
90686,control_change,36,0,2,,,,,,,,,1,11,63,,,
90687,control_change,36,0,5,,,,,,,,,4,11,61,,,
90689,control_change,36,0,6,,,,,,,,,5,11,61,,,
90692,note_on,0,0,8,,,,,,,,,11,,,,65,74
90692,note_on,18,0,8,,,,,,,,,11,,,,68,0
90692,note_on,0,0,9,,,,,,,,,12,,,,65,72
90692,note_on,18,0,9,,,,,,,,,12,,,,68,0
90694,note_on,18,0,10,,,,,,,,,6,,,,53,0
90694,note_on,0,0,10,,,,,,,,,6,,,,56,62
90715,note_on,55,0,7,,,,,,,,,10,,,,80,0
90715,note_on,31,0,1,,,,,,,,,0,,,,82,0
90717,note_on,25,0,8,,,,,,,,,11,,,,65,0
90717,note_on,31,0,2,,,,,,,,,1,,,,70,0
90717,note_on,25,0,9,,,,,,,,,12,,,,65,0
90718,note_on,31,0,5,,,,,,,,,4,,,,58,0
90719,note_on,25,0,10,,,,,,,,,6,,,,56,0
90720,set_tempo,120,1,0,,,,,,1395349,,,,,,,,
90720,note_on,31,0,6,,,,,,,,,5,,,,46,0
90720,control_change,5,0,7,,,,,,,,,10,11,62,,,
90720,note_on,0,0,7,,,,,,,,,10,,,,79,103
90720,control_change,5,0,1,,,,,,,,,0,11,57,,,
90720,note_on,0,0,1,,,,,,,,,0,,,,82,88
90722,note_on,0,0,8,,,,,,,,,11,,,,72,74
90722,control_change,5,0,8,,,,,,,,,11,11,62,,,
90722,control_change,5,0,2,,,,,,,,,1,11,57,,,
90722,note_on,0,0,9,,,,,,,,,12,,,,72,72
90722,note_on,0,0,2,,,,,,,,,1,,,,79,87
90722,control_change,5,0,9,,,,,,,,,12,11,62,,,
90722,note_on,0,0,2,,,,,,,,,1,,,,70,87
90723,control_change,1320,0,3,,,,,,,,,2,11,57,,,
90723,note_on,0,0,3,,,,,,,,,2,,,,79,96
90723,note_on,0,0,5,,,,,,,,,4,,,,58,82
90723,control_change,5,0,5,,,,,,,,,4,11,62,,,
90723,note_on,0,0,3,,,,,,,,,2,,,,82,96
90724,note_on,0,0,10,,,,,,,,,6,,,,56,62
90724,control_change,5,0,10,,,,,,,,,6,11,62,,,
90725,note_on,60,0,11,,,,,,,,,13,,,,51,43
90725,note_on,0,0,4,,,,,,,,,3,,,,58,95
90725,control_change,5,0,6,,,,,,,,,5,11,62,,,
90725,note_on,0,0,6,,,,,,,,,5,,,,46,82
90725,control_change,1320,0,4,,,,,,,,,3,11,57,,,
90725,note_on,0,0,4,,,,,,,,,3,,,,55,95
90728,note_on,60,0,12,,,,,,,,,14,,,,39,36
90730,note_on,0,0,7,,,,,,,,,10,,,,80,103
90730,note_on,10,0,7,,,,,,,,,10,,,,79,0
90740,note_on,0,0,7,,,,,,,,,10,,,,82,103
90740,note_on,10,0,7,,,,,,,,,10,,,,80,0
90748,control_change,28,0,1,,,,,,,,,0,11,59,,,
90750,note_on,0,0,7,,,,,,,,,10,,,,80,103
90750,set_tempo,30,1,0,,,,,,1025641,,,,,,,,
90750,control_change,28,0,2,,,,,,,,,1,11,59,,,
90750,note_on,10,0,7,,,,,,,,,10,,,,82,0
90751,control_change,28,0,3,,,,,,,,,2,11,59,,,
90752,note_on,0,0,9,,,,,,,,,12,,,,68,72
90752,note_on,30,0,8,,,,,,,,,11,,,,72,0
90752,note_on,0,0,8,,,,,,,,,11,,,,68,74
90752,note_on,30,0,9,,,,,,,,,12,,,,72,0
90753,control_change,28,0,4,,,,,,,,,3,11,59,,,
90754,note_on,0,0,10,,,,,,,,,6,,,,60,62
90754,note_on,30,0,10,,,,,,,,,6,,,,56,0
90759,control_change,36,0,5,,,,,,,,,4,11,61,,,
90761,control_change,36,0,6,,,,,,,,,5,11,61,,,
90763,control_change,15,0,1,,,,,,,,,0,11,60,,,
90765,control_change,15,0,2,,,,,,,,,1,11,60,,,
90766,control_change,15,0,3,,,,,,,,,2,11,60,,,
90768,control_change,15,0,4,,,,,,,,,3,11,60,,,
90768,control_change,18,0,7,,,,,,,,,10,11,61,,,
90770,control_change,18,0,9,,,,,,,,,12,11,61,,,
90770,control_change,18,0,8,,,,,,,,,11,11,61,,,
90772,control_change,18,0,10,,,,,,,,,6,11,61,,,
90780,set_tempo,30,1,0,,,,,,937500,,,,,,,,
90782,note_on,12,0,8,,,,,,,,,11,,,,68,0
90782,note_on,12,0,9,,,,,,,,,12,,,,68,0
90782,note_on,0,0,8,,,,,,,,,11,,,,72,74
90782,note_on,0,0,9,,,,,,,,,12,,,,72,72
90784,note_on,0,0,10,,,,,,,,,6,,,,56,62
90784,note_on,12,0,10,,,,,,,,,6,,,,60,0
90792,control_change,29,0,1,,,,,,,,,0,11,62,,,
90794,control_change,29,0,2,,,,,,,,,1,11,62,,,
90795,control_change,36,0,5,,,,,,,,,4,11,60,,,
90795,control_change,29,0,3,,,,,,,,,2,11,62,,,
90797,control_change,36,0,6,,,,,,,,,5,11,60,,,
90797,control_change,29,0,4,,,,,,,,,3,11,62,,,
90812,note_on,0,0,8,,,,,,,,,11,,,,68,74
90812,note_on,30,0,8,,,,,,,,,11,,,,72,0
90812,note_on,30,0,9,,,,,,,,,12,,,,72,0
90812,note_on,0,0,9,,,,,,,,,12,,,,68,72
90814,note_on,0,0,10,,,,,,,,,6,,,,60,62
90814,note_on,30,0,10,,,,,,,,,6,,,,56,0
90816,control_change,48,0,7,,,,,,,,,10,11,60,,,
90818,control_change,6,0,8,,,,,,,,,11,11,60,,,
90818,control_change,6,0,9,,,,,,,,,12,11,60,,,
90820,control_change,6,0,10,,,,,,,,,6,11,60,,,
90828,control_change,36,0,1,,,,,,,,,0,11,61,,,
90830,control_change,36,0,2,,,,,,,,,1,11,61,,,
90831,control_change,36,0,5,,,,,,,,,4,11,59,,,
90831,control_change,36,0,3,,,,,,,,,2,11,61,,,
90833,control_change,36,0,6,,,,,,,,,5,11,59,,,
90833,control_change,36,0,4,,,,,,,,,3,11,61,,,
90840,note_on,24,0,7,,,,,,,,,10,,,,80,0
90840,note_on,0,0,7,,,,,,,,,10,,,,79,103
90842,note_on,0,0,9,,,,,,,,,12,,,,70,72
90842,note_on,0,0,8,,,,,,,,,11,,,,70,74
90842,note_on,24,0,8,,,,,,,,,11,,,,68,0
90842,note_on,24,0,9,,,,,,,,,12,,,,68,0
90844,note_on,0,0,10,,,,,,,,,6,,,,55,62
90844,note_on,24,0,10,,,,,,,,,6,,,,60,0
90845,note_on,120,0,11,,,,,,,,,13,,,,51,0
90848,note_on,120,0,12,,,,,,,,,14,,,,39,0
90864,control_change,36,0,1,,,,,,,,,0,11,61,,,
90864,control_change,24,0,7,,,,,,,,,10,11,59,,,
90866,control_change,24,0,9,,,,,,,,,12,11,59,,,
90866,control_change,36,0,2,,,,,,,,,1,11,61,,,
90866,control_change,24,0,8,,,,,,,,,11,11,59,,,
90867,control_change,36,0,3,,,,,,,,,2,11,61,,,
90867,control_change,36,0,5,,,,,,,,,4,11,58,,,
90868,control_change,24,0,10,,,,,,,,,6,11,59,,,
90869,control_change,36,0,4,,,,,,,,,3,11,61,,,
90869,control_change,36,0,6,,,,,,,,,5,11,58,,,
90872,note_on,0,0,8,,,,,,,,,11,,,,67,74
90872,note_on,6,0,9,,,,,,,,,12,,,,70,0
90872,note_on,6,0,8,,,,,,,,,11,,,,70,0
90872,note_on,0,0,9,,,,,,,,,12,,,,67,72
90874,note_on,0,0,10,,,,,,,,,6,,,,58,62
90874,note_on,6,0,10,,,,,,,,,6,,,,55,0
90894,control_change,30,0,7,,,,,,,,,10,11,58,,,
90900,control_change,36,0,1,,,,,,,,,0,11,60,,,
90900,set_tempo,120,1,0,,,,,,1034483,,,,,,,,
90902,note_on,30,0,9,,,,,,,,,12,,,,67,0
90902,note_on,0,0,9,,,,,,,,,12,,,,68,72
90902,control_change,36,0,2,,,,,,,,,1,11,60,,,
90902,note_on,0,0,8,,,,,,,,,11,,,,68,74
90902,note_on,30,0,8,,,,,,,,,11,,,,67,0
90903,control_change,36,0,5,,,,,,,,,4,11,57,,,
90903,control_change,36,0,3,,,,,,,,,2,11,60,,,
90904,note_on,0,0,10,,,,,,,,,6,,,,53,62
90904,note_on,30,0,10,,,,,,,,,6,,,,58,0
90905,control_change,36,0,6,,,,,,,,,5,11,57,,,
90905,control_change,36,0,4,,,,,,,,,3,11,60,,,
90914,control_change,12,0,8,,,,,,,,,11,11,58,,,
90914,control_change,12,0,9,,,,,,,,,12,11,58,,,
90916,control_change,12,0,10,,,,,,,,,6,11,58,,,
90924,control_change,30,0,7,,,,,,,,,10,11,57,,,
90932,note_on,18,0,9,,,,,,,,,12,,,,68,0
90932,note_on,0,0,9,,,,,,,,,12,,,,65,72
90932,note_on,18,0,8,,,,,,,,,11,,,,68,0
90932,note_on,0,0,8,,,,,,,,,11,,,,65,74
90934,note_on,0,0,10,,,,,,,,,6,,,,56,62
90934,note_on,18,0,10,,,,,,,,,6,,,,53,0
90936,control_change,36,0,1,,,,,,,,,0,11,59,,,
90938,control_change,36,0,2,,,,,,,,,1,11,59,,,
90939,control_change,36,0,3,,,,,,,,,2,11,59,,,
90939,control_change,36,0,5,,,,,,,,,4,11,56,,,
90941,control_change,36,0,4,,,,,,,,,3,11,59,,,
90941,control_change,36,0,6,,,,,,,,,5,11,56,,,
90954,control_change,30,0,7,,,,,,,,,10,11,56,,,
90960,set_tempo,60,1,0,,,,,,937500,,,,,,,,
90962,control_change,0,0,9,,,,,,,,,12,11,57,,,
90962,note_on,30,0,9,,,,,,,,,12,,,,65,0
90962,note_on,30,0,8,,,,,,,,,11,,,,65,0
90962,control_change,0,0,8,,,,,,,,,11,11,57,,,
90962,note_on,0,0,8,,,,,,,,,11,,,,68,74
90962,note_on,0,0,9,,,,,,,,,12,,,,68,72
90964,control_change,0,0,10,,,,,,,,,6,11,57,,,
90964,note_on,0,0,10,,,,,,,,,6,,,,53,62
90964,note_on,30,0,10,,,,,,,,,6,,,,56,0
90972,control_change,36,0,1,,,,,,,,,0,11,58,,,
90974,control_change,36,0,2,,,,,,,,,1,11,58,,,
90975,control_change,36,0,3,,,,,,,,,2,11,58,,,
90975,control_change,36,0,5,,,,,,,,,4,11,55,,,
90977,control_change,36,0,6,,,,,,,,,5,11,55,,,
90977,control_change,36,0,4,,,,,,,,,3,11,58,,,
90985,control_change,31,0,7,,,,,,,,,10,11,55,,,
90992,note_on,30,0,8,,,,,,,,,11,,,,68,0
90992,note_on,0,0,8,,,,,,,,,11,,,,65,74
90992,note_on,0,0,9,,,,,,,,,12,,,,65,72
90992,note_on,30,0,9,,,,,,,,,12,,,,68,0
90994,note_on,0,0,10,,,,,,,,,6,,,,56,62
90994,note_on,30,0,10,,,,,,,,,6,,,,53,0
91008,control_change,36,0,1,,,,,,,,,0,11,57,,,
91010,control_change,36,0,2,,,,,,,,,1,11,57,,,
91010,control_change,18,0,9,,,,,,,,,12,11,56,,,
91010,control_change,18,0,8,,,,,,,,,11,11,56,,,
91011,control_change,36,0,5,,,,,,,,,4,11,54,,,
91011,control_change,36,0,3,,,,,,,,,2,11,57,,,
91012,control_change,18,0,10,,,,,,,,,6,11,56,,,
91013,control_change,36,0,6,,,,,,,,,5,11,54,,,
91013,control_change,36,0,4,,,,,,,,,3,11,57,,,
91015,control_change,30,0,7,,,,,,,,,10,11,54,,,
91022,note_on,12,0,8,,,,,,,,,11,,,,65,0
91022,note_on,12,0,9,,,,,,,,,12,,,,65,0
91022,note_on,0,0,9,,,,,,,,,12,,,,67,72
91022,note_on,0,0,8,,,,,,,,,11,,,,67,74
91024,note_on,0,0,10,,,,,,,,,6,,,,51,62
91024,note_on,12,0,10,,,,,,,,,6,,,,56,0
91044,control_change,36,0,1,,,,,,,,,0,11,56,,,
91045,control_change,30,0,7,,,,,,,,,10,11,53,,,
91046,control_change,36,0,2,,,,,,,,,1,11,56,,,
91047,control_change,36,0,5,,,,,,,,,4,11,53,,,
91047,control_change,36,0,3,,,,,,,,,2,11,56,,,
91049,control_change,36,0,4,,,,,,,,,3,11,56,,,
91049,control_change,36,0,6,,,,,,,,,5,11,53,,,
91052,note_on,0,0,9,,,,,,,,,12,,,,63,72
91052,note_on,30,0,9,,,,,,,,,12,,,,67,0
91052,note_on,30,0,8,,,,,,,,,11,,,,67,0
91052,note_on,0,0,8,,,,,,,,,11,,,,63,74
91054,note_on,30,0,10,,,,,,,,,6,,,,51,0
91054,note_on,0,0,10,,,,,,,,,6,,,,55,62
91058,control_change,6,0,8,,,,,,,,,11,11,55,,,
91058,control_change,6,0,9,,,,,,,,,12,11,55,,,
91060,control_change,6,0,10,,,,,,,,,6,11,55,,,
91076,control_change,31,0,7,,,,,,,,,10,11,52,,,
91080,control_change,36,0,1,,,,,,,,,0,11,55,,,
91080,set_tempo,120,1,0,,,,,,1034483,,,,,,,,
91082,note_on,0,0,9,,,,,,,,,12,,,,65,72
91082,note_on,24,0,8,,,,,,,,,11,,,,63,0
91082,note_on,0,0,8,,,,,,,,,11,,,,65,74
91082,control_change,36,0,2,,,,,,,,,1,11,55,,,
91082,note_on,24,0,9,,,,,,,,,12,,,,63,0
91083,control_change,36,0,3,,,,,,,,,2,11,55,,,
91083,control_change,36,0,5,,,,,,,,,4,11,52,,,
91084,note_on,24,0,10,,,,,,,,,6,,,,55,0
91084,note_on,0,0,10,,,,,,,,,6,,,,50,62
91085,control_change,36,0,4,,,,,,,,,3,11,55,,,
91085,control_change,36,0,6,,,,,,,,,5,11,52,,,
91106,control_change,24,0,8,,,,,,,,,11,11,54,,,
91106,control_change,30,0,7,,,,,,,,,10,11,51,,,
91106,control_change,24,0,9,,,,,,,,,12,11,54,,,
91108,control_change,24,0,10,,,,,,,,,6,11,54,,,
91112,note_on,6,0,9,,,,,,,,,12,,,,65,0
91112,note_on,0,0,9,,,,,,,,,12,,,,62,72
91112,note_on,6,0,8,,,,,,,,,11,,,,65,0
91112,note_on,0,0,8,,,,,,,,,11,,,,62,74
91114,note_on,6,0,10,,,,,,,,,6,,,,50,0
91114,note_on,0,0,10,,,,,,,,,6,,,,53,62
91116,control_change,36,0,1,,,,,,,,,0,11,55,,,
91118,control_change,36,0,2,,,,,,,,,1,11,55,,,
91119,control_change,36,0,3,,,,,,,,,2,11,55,,,
91119,control_change,36,0,5,,,,,,,,,4,11,51,,,
91121,control_change,36,0,4,,,,,,,,,3,11,55,,,
91121,control_change,36,0,6,,,,,,,,,5,11,51,,,
91136,control_change,30,0,7,,,,,,,,,10,11,50,,,
91140,set_tempo,60,1,0,,,,,,937500,,,,,,,,
91142,note_on,30,0,9,,,,,,,,,12,,,,62,0
91142,note_on,0,0,9,,,,,,,,,12,,,,65,72
91142,note_on,30,0,8,,,,,,,,,11,,,,62,0
91142,note_on,0,0,8,,,,,,,,,11,,,,65,74
91144,note_on,0,0,10,,,,,,,,,6,,,,50,62
91144,note_on,30,0,10,,,,,,,,,6,,,,53,0
91152,control_change,36,0,1,,,,,,,,,0,11,54,,,
91154,control_change,36,0,2,,,,,,,,,1,11,54,,,
91154,control_change,12,0,8,,,,,,,,,11,11,53,,,
91154,control_change,12,0,9,,,,,,,,,12,11,53,,,
91155,control_change,36,0,5,,,,,,,,,4,11,50,,,
91155,control_change,36,0,3,,,,,,,,,2,11,54,,,
91156,control_change,12,0,10,,,,,,,,,6,11,53,,,
91157,control_change,36,0,4,,,,,,,,,3,11,54,,,
91157,control_change,36,0,6,,,,,,,,,5,11,50,,,
91167,control_change,31,0,7,,,,,,,,,10,11,49,,,
91172,note_on,0,0,9,,,,,,,,,12,,,,62,72
91172,note_on,18,0,9,,,,,,,,,12,,,,65,0
91172,note_on,0,0,8,,,,,,,,,11,,,,62,74
91172,note_on,18,0,8,,,,,,,,,11,,,,65,0
91174,note_on,0,0,10,,,,,,,,,6,,,,53,62
91174,note_on,18,0,10,,,,,,,,,6,,,,50,0
91188,control_change,36,0,1,,,,,,,,,0,11,53,,,
91190,control_change,36,0,2,,,,,,,,,1,11,53,,,
91191,control_change,36,0,3,,,,,,,,,2,11,53,,,
91191,control_change,36,0,5,,,,,,,,,4,11,49,,,
91193,control_change,36,0,6,,,,,,,,,5,11,49,,,
91193,control_change,36,0,4,,,,,,,,,3,11,53,,,
91197,control_change,30,0,7,,,,,,,,,10,11,48,,,
91202,control_change,0,0,9,,,,,,,,,12,11,52,,,
91202,note_on,0,0,9,,,,,,,,,12,,,,67,72
91202,note_on,30,0,9,,,,,,,,,12,,,,62,0
91202,note_on,30,0,8,,,,,,,,,11,,,,62,0
91202,control_change,0,0,8,,,,,,,,,11,11,52,,,
91202,note_on,0,0,8,,,,,,,,,11,,,,67,74
91204,control_change,0,0,10,,,,,,,,,6,11,52,,,
91204,note_on,30,0,10,,,,,,,,,6,,,,53,0
91204,note_on,0,0,10,,,,,,,,,6,,,,51,62
91224,control_change,36,0,1,,,,,,,,,0,11,52,,,
91226,control_change,36,0,2,,,,,,,,,1,11,52,,,
91227,control_change,36,0,3,,,,,,,,,2,11,52,,,
91227,control_change,36,0,5,,,,,,,,,4,11,48,,,
91227,control_change,30,0,7,,,,,,,,,10,11,47,,,
91229,control_change,36,0,4,,,,,,,,,3,11,52,,,
91229,control_change,36,0,6,,,,,,,,,5,11,48,,,
91232,note_on,0,0,8,,,,,,,,,11,,,,63,74
91232,note_on,30,0,9,,,,,,,,,12,,,,67,0
91232,note_on,0,0,9,,,,,,,,,12,,,,63,72
91232,note_on,30,0,8,,,,,,,,,11,,,,67,0
91234,note_on,0,0,10,,,,,,,,,6,,,,55,62
91234,note_on,30,0,10,,,,,,,,,6,,,,51,0
91250,control_change,18,0,8,,,,,,,,,11,11,51,,,
91250,control_change,18,0,9,,,,,,,,,12,11,51,,,
91252,control_change,18,0,10,,,,,,,,,6,11,51,,,
91258,control_change,31,0,7,,,,,,,,,10,11,46,,,
91260,control_change,36,0,1,,,,,,,,,0,11,52,,,
91260,set_tempo,120,1,0,,,,,,1034483,,,,,,,,
91262,note_on,0,0,9,,,,,,,,,12,,,,68,72
91262,note_on,0,0,8,,,,,,,,,11,,,,68,74
91262,note_on,12,0,9,,,,,,,,,12,,,,63,0
91262,note_on,12,0,8,,,,,,,,,11,,,,63,0
91262,control_change,36,0,2,,,,,,,,,1,11,52,,,
91263,control_change,36,0,3,,,,,,,,,2,11,52,,,
91263,control_change,36,0,5,,,,,,,,,4,11,47,,,
91264,note_on,0,0,10,,,,,,,,,6,,,,53,62
91264,note_on,12,0,10,,,,,,,,,6,,,,55,0
91265,control_change,36,0,6,,,,,,,,,5,11,47,,,
91265,note_on,420,0,11,,,,,,,,,13,,,,51,43
91265,control_change,36,0,4,,,,,,,,,3,11,52,,,
91268,note_on,420,0,12,,,,,,,,,14,,,,39,36
91288,control_change,30,0,7,,,,,,,,,10,11,45,,,
91292,note_on,30,0,8,,,,,,,,,11,,,,68,0
91292,note_on,0,0,8,,,,,,,,,11,,,,65,74
91292,note_on,0,0,9,,,,,,,,,12,,,,65,72
91292,note_on,30,0,9,,,,,,,,,12,,,,68,0
91294,note_on,30,0,10,,,,,,,,,6,,,,53,0
91294,note_on,0,0,10,,,,,,,,,6,,,,56,62
91296,control_change,36,0,1,,,,,,,,,0,11,51,,,
91298,control_change,6,0,9,,,,,,,,,12,11,50,,,
91298,control_change,6,0,8,,,,,,,,,11,11,50,,,
91298,control_change,36,0,2,,,,,,,,,1,11,51,,,
91299,control_change,36,0,3,,,,,,,,,2,11,51,,,
91299,control_change,36,0,5,,,,,,,,,4,11,46,,,
91300,control_change,6,0,10,,,,,,,,,6,11,50,,,
91301,control_change,36,0,6,,,,,,,,,5,11,46,,,
91301,control_change,36,0,4,,,,,,,,,3,11,51,,,
91315,note_on,27,0,7,,,,,,,,,10,,,,79,0
91318,control_change,3,0,7,,,,,,,,,10,11,44,,,
91320,note_on,2,0,7,,,,,,,,,10,,,,79,103
91320,set_tempo,60,1,0,,,,,,937500,,,,,,,,
91322,note_on,24,0,9,,,,,,,,,12,,,,65,0
91322,note_on,0,0,9,,,,,,,,,12,,,,68,72
91322,note_on,0,0,8,,,,,,,,,11,,,,68,74
91322,note_on,24,0,8,,,,,,,,,11,,,,65,0
91324,note_on,24,0,10,,,,,,,,,6,,,,56,0
91324,note_on,0,0,10,,,,,,,,,6,,,,53,62
91332,control_change,36,0,1,,,,,,,,,0,11,50,,,
91334,control_change,36,0,2,,,,,,,,,1,11,50,,,
91335,control_change,36,0,3,,,,,,,,,2,11,50,,,
91335,control_change,36,0,5,,,,,,,,,4,11,45,,,
91337,control_change,36,0,6,,,,,,,,,5,11,45,,,
91337,control_change,36,0,4,,,,,,,,,3,11,50,,,
91346,control_change,24,0,9,,,,,,,,,12,11,49,,,
91346,control_change,24,0,8,,,,,,,,,11,11,49,,,
91348,control_change,24,0,10,,,,,,,,,6,11,49,,,
91349,control_change,29,0,7,,,,,,,,,10,11,43,,,
91350,note_on,0,0,7,,,,,,,,,10,,,,80,103
91350,note_on,1,0,7,,,,,,,,,10,,,,79,0
91352,note_on,0,0,9,,,,,,,,,12,,,,65,72
91352,note_on,6,0,9,,,,,,,,,12,,,,68,0
91352,note_on,6,0,8,,,,,,,,,11,,,,68,0
91352,note_on,0,0,8,,,,,,,,,11,,,,65,74
91354,note_on,0,0,10,,,,,,,,,6,,,,56,62
91354,note_on,6,0,10,,,,,,,,,6,,,,53,0
91368,control_change,36,0,1,,,,,,,,,0,11,49,,,
91370,control_change,36,0,2,,,,,,,,,1,11,49,,,
91371,control_change,36,0,5,,,,,,,,,4,11,44,,,
91371,control_change,36,0,3,,,,,,,,,2,11,49,,,
91373,control_change,36,0,6,,,,,,,,,5,11,44,,,
91373,control_change,36,0,4,,,,,,,,,3,11,49,,,
91379,control_change,29,0,7,,,,,,,,,10,11,42,,,
91380,note_on,1,0,7,,,,,,,,,10,,,,80,0
91380,note_on,0,0,1,,,,,,,,,0,,,,79,88
91380,note_on,0,0,7,,,,,,,,,10,,,,82,103
91380,note_on,12,0,1,,,,,,,,,0,,,,82,0
91382,note_on,12,0,2,,,,,,,,,1,,,,79,0
91382,note_on,30,0,9,,,,,,,,,12,,,,65,0
91382,note_on,0,0,9,,,,,,,,,12,,,,67,72
91382,note_on,0,0,2,,,,,,,,,1,,,,75,87
91382,note_on,0,0,8,,,,,,,,,11,,,,67,74
91382,note_on,30,0,8,,,,,,,,,11,,,,65,0
91383,note_on,0,0,3,,,,,,,,,2,,,,79,96
91383,note_on,12,0,3,,,,,,,,,2,,,,82,0
91383,note_on,0,0,3,,,,,,,,,2,,,,79,0
91383,note_on,0,0,3,,,,,,,,,2,,,,75,96
91384,note_on,30,0,10,,,,,,,,,6,,,,56,0
91384,note_on,0,0,10,,,,,,,,,6,,,,51,62
91385,note_on,0,0,4,,,,,,,,,3,,,,51,95
91385,note_on,0,0,4,,,,,,,,,3,,,,55,0
91385,note_on,12,0,4,,,,,,,,,3,,,,58,0
91385,note_on,120,0,11,,,,,,,,,13,,,,51,0
91385,note_on,0,0,4,,,,,,,,,3,,,,55,95
91388,note_on,120,0,12,,,,,,,,,14,,,,39,0
91394,control_change,12,0,8,,,,,,,,,11,11,48,,,
91394,control_change,12,0,9,,,,,,,,,12,11,48,,,
91396,control_change,12,0,10,,,,,,,,,6,11,48,,,
91404,control_change,24,0,1,,,,,,,,,0,11,48,,,
91406,control_change,24,0,2,,,,,,,,,1,11,48,,,
91407,control_change,36,0,5,,,,,,,,,4,11,43,,,
91407,control_change,24,0,3,,,,,,,,,2,11,48,,,
91409,control_change,36,0,6,,,,,,,,,5,11,43,,,
91409,control_change,24,0,4,,,,,,,,,3,11,48,,,
91409,control_change,29,0,7,,,,,,,,,10,11,41,,,
91410,note_on,0,0,7,,,,,,,,,10,,,,79,103
91410,note_on,1,0,7,,,,,,,,,10,,,,82,0
91412,note_on,0,0,8,,,,,,,,,11,,,,63,74
91412,note_on,18,0,9,,,,,,,,,12,,,,67,0
91412,note_on,0,0,9,,,,,,,,,12,,,,63,72
91412,note_on,18,0,8,,,,,,,,,11,,,,67,0
91414,note_on,0,0,10,,,,,,,,,6,,,,55,62
91414,note_on,18,0,10,,,,,,,,,6,,,,51,0
91435,note_on,31,0,1,,,,,,,,,0,,,,79,0
91435,note_on,25,0,7,,,,,,,,,10,,,,79,0
91437,note_on,25,0,9,,,,,,,,,12,,,,63,0
91437,note_on,31,0,2,,,,,,,,,1,,,,75,0
91437,note_on,25,0,8,,,,,,,,,11,,,,63,0
91438,note_on,31,0,5,,,,,,,,,4,,,,58,0
91439,note_on,25,0,10,,,,,,,,,6,,,,55,0
91440,control_change,5,0,7,,,,,,,,,10,11,32,,,
91440,note_on,0,0,7,,,,,,,,,10,,,,77,103
91440,control_change,0,0,1,,,,,,,,,0,11,47,,,
91440,note_on,5,0,1,,,,,,,,,0,,,,77,88
91440,set_tempo,120,1,0,,,,,,1034483,,,,,,,,
91440,note_on,31,0,6,,,,,,,,,5,,,,46,0
91442,note_on,0,0,8,,,,,,,,,11,,,,65,74
91442,control_change,5,0,8,,,,,,,,,11,11,47,,,
91442,note_on,0,0,9,,,,,,,,,12,,,,65,72
91442,control_change,5,0,9,,,,,,,,,12,11,47,,,
91442,note_on,0,0,2,,,,,,,,,1,,,,74,87
91442,note_on,0,0,2,,,,,,,,,1,,,,70,87
91442,note_on,5,0,2,,,,,,,,,1,,,,70,0
91442,control_change,0,0,2,,,,,,,,,1,11,47,,,
91443,note_on,0,0,5,,,,,,,,,4,,,,58,82
91443,note_on,0,0,3,,,,,,,,,2,,,,75,0
91443,note_on,0,0,3,,,,,,,,,2,,,,77,96
91443,note_on,0,0,3,,,,,,,,,2,,,,74,96
91443,control_change,0,0,3,,,,,,,,,2,11,47,,,
91443,control_change,5,0,5,,,,,,,,,4,11,42,,,
91443,note_on,36,0,3,,,,,,,,,2,,,,79,0
91444,note_on,0,0,10,,,,,,,,,6,,,,50,62
91444,control_change,5,0,10,,,,,,,,,6,11,47,,,
91445,note_on,36,0,4,,,,,,,,,3,,,,55,0
91445,note_on,0,0,4,,,,,,,,,3,,,,51,0
91445,note_on,0,0,4,,,,,,,,,3,,,,53,95
91445,note_on,0,0,4,,,,,,,,,3,,,,50,95
91445,control_change,0,0,4,,,,,,,,,3,11,47,,,
91445,control_change,5,0,6,,,,,,,,,5,11,42,,,
91445,note_on,0,0,6,,,,,,,,,5,,,,46,82
91445,note_on,60,0,11,,,,,,,,,13,,,,46,43
91448,note_on,60,0,12,,,,,,,,,14,,,,34,36
91458,control_change,18,0,7,,,,,,,,,10,11,33,,,
91472,note_on,0,0,8,,,,,,,,,11,,,,62,74
91472,note_on,30,0,8,,,,,,,,,11,,,,65,0
91472,note_on,0,0,9,,,,,,,,,12,,,,62,72
91472,note_on,30,0,9,,,,,,,,,12,,,,65,0
91474,note_on,0,0,10,,,,,,,,,6,,,,53,62
91474,note_on,30,0,10,,,,,,,,,6,,,,50,0
91476,control_change,18,0,7,,,,,,,,,10,11,34,,,
91476,control_change,36,0,1,,,,,,,,,0,11,48,,,
91478,control_change,6,0,8,,,,,,,,,11,11,48,,,
91478,control_change,6,0,9,,,,,,,,,12,11,48,,,
91478,control_change,36,0,2,,,,,,,,,1,11,48,,,
91479,control_change,36,0,5,,,,,,,,,4,11,43,,,
91479,control_change,36,0,3,,,,,,,,,2,11,48,,,
91480,control_change,6,0,10,,,,,,,,,6,11,48,,,
91481,control_change,36,0,4,,,,,,,,,3,11,48,,,
91481,control_change,36,0,6,,,,,,,,,5,11,43,,,
91494,control_change,18,0,7,,,,,,,,,10,11,35,,,
91500,note_on,0,0,1,,,,,,,,,0,,,,82,88
91500,note_on,24,0,1,,,,,,,,,0,,,,77,0
91500,set_tempo,60,1,0,,,,,,937500,,,,,,,,
91502,note_on,0,0,8,,,,,,,,,11,,,,65,74
91502,note_on,24,0,8,,,,,,,,,11,,,,62,0
91502,note_on,0,0,9,,,,,,,,,12,,,,65,72
91502,note_on,24,0,2,,,,,,,,,1,,,,74,0
91502,note_on,0,0,2,,,,,,,,,1,,,,70,0
91502,note_on,24,0,9,,,,,,,,,12,,,,62,0
91502,note_on,0,0,2,,,,,,,,,1,,,,70,87
91504,note_on,0,0,10,,,,,,,,,6,,,,50,62
91504,note_on,24,0,10,,,,,,,,,6,,,,53,0
91512,control_change,18,0,7,,,,,,,,,10,11,36,,,
91512,control_change,12,0,1,,,,,,,,,0,11,49,,,
91514,control_change,12,0,2,,,,,,,,,1,11,49,,,
91514,control_change,12,0,8,,,,,,,,,11,11,49,,,
91514,control_change,12,0,9,,,,,,,,,12,11,49,,,
91515,control_change,36,0,3,,,,,,,,,2,11,49,,,
91515,control_change,36,0,5,,,,,,,,,4,11,44,,,
91516,control_change,12,0,10,,,,,,,,,6,11,49,,,
91517,control_change,36,0,6,,,,,,,,,5,11,44,,,
91517,control_change,36,0,4,,,,,,,,,3,11,49,,,
91530,control_change,18,0,7,,,,,,,,,10,11,37,,,
91532,note_on,0,0,8,,,,,,,,,11,,,,62,74
91532,note_on,18,0,8,,,,,,,,,11,,,,65,0
91532,note_on,0,0,9,,,,,,,,,12,,,,62,72
91532,note_on,18,0,9,,,,,,,,,12,,,,65,0
91534,note_on,0,0,10,,,,,,,,,6,,,,53,62
91534,note_on,18,0,10,,,,,,,,,6,,,,50,0
91548,control_change,18,0,7,,,,,,,,,10,11,38,,,
91548,control_change,36,0,1,,,,,,,,,0,11,50,,,
91550,control_change,18,0,8,,,,,,,,,11,11,50,,,
91550,control_change,18,0,9,,,,,,,,,12,11,50,,,
91550,control_change,36,0,2,,,,,,,,,1,11,50,,,
91551,control_change,36,0,5,,,,,,,,,4,11,45,,,
91551,control_change,36,0,3,,,,,,,,,2,11,50,,,
91552,control_change,18,0,10,,,,,,,,,6,11,50,,,
91553,control_change,36,0,6,,,,,,,,,5,11,45,,,
91553,control_change,36,0,4,,,,,,,,,3,11,50,,,
91558,note_on,7,0,3,,,,,,,,,2,,,,74,0
91558,note_on,0,0,3,,,,,,,,,2,,,,77,0
91560,note_on,7,0,4,,,,,,,,,3,,,,50,0
91560,note_on,0,0,4,,,,,,,,,3,,,,53,0
91560,note_on,0,0,7,,,,,,,,,10,,,,70,103
91560,note_on,12,0,7,,,,,,,,,10,,,,77,0
91562,note_on,12,0,8,,,,,,,,,11,,,,62,0
91562,note_on,0,0,9,,,,,,,,,12,,,,65,72
91562,note_on,12,0,9,,,,,,,,,12,,,,62,0
91562,note_on,0,0,8,,,,,,,,,11,,,,65,74
91563,note_on,0,0,3,,,,,,,,,2,,,,77,96
91563,note_on,5,0,3,,,,,,,,,2,,,,74,96
91564,note_on,0,0,10,,,,,,,,,6,,,,50,62
91564,note_on,12,0,10,,,,,,,,,6,,,,53,0
91565,note_on,5,0,4,,,,,,,,,3,,,,50,95
91565,note_on,120,0,11,,,,,,,,,13,,,,46,0
91565,note_on,0,0,4,,,,,,,,,3,,,,53,95
91566,control_change,6,0,7,,,,,,,,,10,11,39,,,
91568,note_on,120,0,12,,,,,,,,,14,,,,34,0
91584,control_change,18,0,7,,,,,,,,,10,11,40,,,
91584,control_change,36,0,1,,,,,,,,,0,11,51,,,
91586,control_change,36,0,2,,,,,,,,,1,11,51,,,
91586,control_change,24,0,9,,,,,,,,,12,11,51,,,
91586,control_change,24,0,8,,,,,,,,,11,11,51,,,
91587,control_change,36,0,5,,,,,,,,,4,11,46,,,
91587,control_change,24,0,3,,,,,,,,,2,11,51,,,
91588,control_change,24,0,10,,,,,,,,,6,11,51,,,
91589,control_change,36,0,6,,,,,,,,,5,11,46,,,
91589,control_change,24,0,4,,,,,,,,,3,11,51,,,
91592,note_on,0,0,9,,,,,,,,,12,,,,62,72
91592,note_on,0,0,8,,,,,,,,,11,,,,62,74
91592,note_on,6,0,9,,,,,,,,,12,,,,65,0
91592,note_on,6,0,8,,,,,,,,,11,,,,65,0
91594,note_on,6,0,10,,,,,,,,,6,,,,50,0
91594,note_on,0,0,10,,,,,,,,,6,,,,53,62
91602,control_change,18,0,7,,,,,,,,,10,11,41,,,
91615,note_on,13,0,7,,,,,,,,,10,,,,70,0
91620,control_change,5,0,7,,,,,,,,,10,11,22,,,
91620,note_on,0,0,7,,,,,,,,,10,,,,82,115
91620,set_tempo,120,1,0,,,,,,1034483,,,,,,,,
91620,control_change,36,0,1,,,,,,,,,0,11,52,,,
91622,control_change,36,0,2,,,,,,,,,1,11,52,,,
91622,note_on,30,0,8,,,,,,,,,11,,,,62,0
91622,control_change,0,0,8,,,,,,,,,11,11,52,,,
91622,note_on,0,0,8,,,,,,,,,11,,,,67,74
91622,note_on,0,0,9,,,,,,,,,12,,,,67,72
91622,note_on,30,0,9,,,,,,,,,12,,,,62,0
91622,control_change,0,0,9,,,,,,,,,12,11,52,,,
91623,note_on,36,0,3,,,,,,,,,2,,,,77,0
91623,note_on,0,0,3,,,,,,,,,2,,,,74,0
91623,note_on,0,0,3,,,,,,,,,2,,,,79,96
91623,note_on,0,0,3,,,,,,,,,2,,,,75,96
91623,control_change,36,0,5,,,,,,,,,4,11,47,,,
91623,control_change,0,0,3,,,,,,,,,2,11,52,,,
91624,note_on,0,0,10,,,,,,,,,6,,,,51,62
91624,control_change,0,0,10,,,,,,,,,6,11,52,,,
91624,note_on,30,0,10,,,,,,,,,6,,,,53,0
91625,note_on,0,0,4,,,,,,,,,3,,,,50,0
91625,control_change,36,0,6,,,,,,,,,5,11,47,,,
91625,note_on,0,0,4,,,,,,,,,3,,,,51,95
91625,note_on,0,0,4,,,,,,,,,3,,,,55,95
91625,control_change,0,0,4,,,,,,,,,3,11,52,,,
91625,note_on,36,0,4,,,,,,,,,3,,,,53,0
91629,control_change,9,0,7,,,,,,,,,10,11,25,,,
91638,control_change,9,0,7,,,,,,,,,10,11,28,,,
91647,control_change,9,0,7,,,,,,,,,10,11,31,,,
91652,note_on,0,0,8,,,,,,,,,11,,,,63,74
91652,note_on,30,0,8,,,,,,,,,11,,,,67,0
91652,note_on,30,0,9,,,,,,,,,12,,,,67,0
91652,note_on,0,0,9,,,,,,,,,12,,,,63,72
91654,note_on,0,0,10,,,,,,,,,6,,,,55,62
91654,note_on,30,0,10,,,,,,,,,6,,,,51,0
91656,control_change,36,0,1,,,,,,,,,0,11,52,,,
91656,control_change,9,0,7,,,,,,,,,10,11,34,,,
91658,control_change,6,0,8,,,,,,,,,11,11,53,,,
91658,control_change,36,0,2,,,,,,,,,1,11,52,,,
91658,control_change,6,0,9,,,,,,,,,12,11,53,,,
91659,control_change,36,0,5,,,,,,,,,4,11,48,,,
91659,control_change,36,0,3,,,,,,,,,2,11,52,,,
91660,control_change,6,0,10,,,,,,,,,6,11,53,,,
91661,control_change,36,0,4,,,,,,,,,3,11,52,,,
91661,control_change,36,0,6,,,,,,,,,5,11,48,,,
91673,control_change,17,0,7,,,,,,,,,10,11,36,,,
91680,set_tempo,60,1,0,,,,,,937500,,,,,,,,
91682,note_on,0,0,9,,,,,,,,,12,,,,67,72
91682,note_on,24,0,9,,,,,,,,,12,,,,63,0
91682,note_on,24,0,8,,,,,,,,,11,,,,63,0
91682,note_on,0,0,8,,,,,,,,,11,,,,67,74
91684,note_on,0,0,10,,,,,,,,,6,,,,51,62
91684,note_on,24,0,10,,,,,,,,,6,,,,55,0
91692,control_change,36,0,1,,,,,,,,,0,11,53,,,
91694,control_change,12,0,9,,,,,,,,,12,11,54,,,
91694,control_change,12,0,8,,,,,,,,,11,11,54,,,
91694,control_change,36,0,2,,,,,,,,,1,11,53,,,
91695,control_change,36,0,3,,,,,,,,,2,11,53,,,
91695,control_change,36,0,5,,,,,,,,,4,11,49,,,
91696,control_change,12,0,10,,,,,,,,,6,11,54,,,
91697,control_change,36,0,4,,,,,,,,,3,11,53,,,
91697,control_change,36,0,6,,,,,,,,,5,11,49,,,
91700,control_change,27,0,7,,,,,,,,,10,11,38,,,
91712,note_on,18,0,8,,,,,,,,,11,,,,67,0
91712,note_on,0,0,8,,,,,,,,,11,,,,63,74
91712,note_on,18,0,9,,,,,,,,,12,,,,67,0
91712,note_on,0,0,9,,,,,,,,,12,,,,63,72
91714,note_on,18,0,10,,,,,,,,,6,,,,51,0
91714,note_on,0,0,10,,,,,,,,,6,,,,55,62
91727,control_change,27,0,7,,,,,,,,,10,11,40,,,
91728,control_change,36,0,1,,,,,,,,,0,11,54,,,
91730,control_change,18,0,9,,,,,,,,,12,11,55,,,
91730,control_change,36,0,2,,,,,,,,,1,11,54,,,
91730,control_change,18,0,8,,,,,,,,,11,11,55,,,
91731,control_change,36,0,3,,,,,,,,,2,11,54,,,
91731,control_change,36,0,5,,,,,,,,,4,11,50,,,
91732,control_change,18,0,10,,,,,,,,,6,11,55,,,
91733,control_change,36,0,6,,,,,,,,,5,11,50,,,
91733,control_change,36,0,4,,,,,,,,,3,11,54,,,
91742,note_on,0,0,9,,,,,,,,,12,,,,65,72
91742,note_on,12,0,9,,,,,,,,,12,,,,63,0
91742,note_on,0,0,8,,,,,,,,,11,,,,65,74
91742,note_on,12,0,8,,,,,,,,,11,,,,63,0
91743,note_on,12,0,3,,,,,,,,,2,,,,75,0
91743,note_on,0,0,3,,,,,,,,,2,,,,74,96
91743,note_on,0,0,3,,,,,,,,,2,,,,77,96
91743,note_on,0,0,3,,,,,,,,,2,,,,79,0
91744,note_on,0,0,10,,,,,,,,,6,,,,50,62
91744,note_on,12,0,10,,,,,,,,,6,,,,55,0
91745,note_on,0,0,4,,,,,,,,,3,,,,53,95
91745,note_on,12,0,4,,,,,,,,,3,,,,55,0
91745,note_on,0,0,4,,,,,,,,,3,,,,51,0
91745,note_on,0,0,4,,,,,,,,,3,,,,50,95
91754,control_change,27,0,7,,,,,,,,,10,11,42,,,
91764,control_change,36,0,1,,,,,,,,,0,11,55,,,
91766,control_change,24,0,8,,,,,,,,,11,11,56,,,
91766,control_change,36,0,2,,,,,,,,,1,11,55,,,
91766,control_change,24,0,9,,,,,,,,,12,11,56,,,
91767,control_change,24,0,3,,,,,,,,,2,11,55,,,
91767,control_change,36,0,5,,,,,,,,,4,11,51,,,
91768,control_change,24,0,10,,,,,,,,,6,11,56,,,
91769,control_change,36,0,6,,,,,,,,,5,11,51,,,
91769,control_change,24,0,4,,,,,,,,,3,11,55,,,
91772,note_on,0,0,8,,,,,,,,,11,,,,62,74
91772,note_on,6,0,8,,,,,,,,,11,,,,65,0
91772,note_on,0,0,9,,,,,,,,,12,,,,62,72
91772,note_on,6,0,9,,,,,,,,,12,,,,65,0
91774,note_on,0,0,10,,,,,,,,,6,,,,53,62
91774,note_on,6,0,10,,,,,,,,,6,,,,50,0
91781,control_change,27,0,7,,,,,,,,,10,11,44,,,
91800,set_tempo,120,1,0,,,,,,1034483,,,,,,,,
91800,control_change,36,0,1,,,,,,,,,0,11,55,,,
91802,note_on,0,0,9,,,,,,,,,12,,,,68,72
91802,control_change,0,0,9,,,,,,,,,12,11,57,,,
91802,control_change,0,0,8,,,,,,,,,11,11,57,,,
91802,note_on,0,0,8,,,,,,,,,11,,,,68,74
91802,note_on,30,0,8,,,,,,,,,11,,,,62,0
91802,note_on,30,0,9,,,,,,,,,12,,,,62,0
91802,control_change,36,0,2,,,,,,,,,1,11,55,,,
91803,note_on,0,0,3,,,,,,,,,2,,,,80,96
91803,note_on,0,0,3,,,,,,,,,2,,,,77,96
91803,note_on,0,0,3,,,,,,,,,2,,,,74,0
91803,note_on,36,0,3,,,,,,,,,2,,,,77,0
91803,control_change,36,0,5,,,,,,,,,4,11,52,,,
91803,control_change,0,0,3,,,,,,,,,2,11,55,,,
91804,note_on,30,0,10,,,,,,,,,6,,,,53,0
91804,note_on,0,0,10,,,,,,,,,6,,,,53,62
91804,control_change,0,0,10,,,,,,,,,6,11,57,,,
91805,control_change,0,0,4,,,,,,,,,3,11,55,,,
91805,note_on,36,0,4,,,,,,,,,3,,,,50,0
91805,note_on,0,0,4,,,,,,,,,3,,,,53,0
91805,note_on,0,0,4,,,,,,,,,3,,,,53,95
91805,note_on,0,0,4,,,,,,,,,3,,,,56,95
91805,control_change,36,0,6,,,,,,,,,5,11,52,,,
91808,control_change,27,0,7,,,,,,,,,10,11,46,,,
91832,note_on,0,0,8,,,,,,,,,11,,,,65,74
91832,note_on,30,0,8,,,,,,,,,11,,,,68,0
91832,note_on,0,0,9,,,,,,,,,12,,,,65,72
91832,note_on,30,0,9,,,,,,,,,12,,,,68,0
91834,note_on,30,0,10,,,,,,,,,6,,,,53,0
91834,note_on,0,0,10,,,,,,,,,6,,,,56,62
91835,control_change,27,0,7,,,,,,,,,10,11,48,,,
91836,control_change,36,0,1,,,,,,,,,0,11,56,,,
91838,control_change,6,0,8,,,,,,,,,11,11,58,,,
91838,control_change,36,0,2,,,,,,,,,1,11,56,,,
91838,control_change,6,0,9,,,,,,,,,12,11,58,,,
91839,control_change,36,0,5,,,,,,,,,4,11,53,,,
91839,control_change,36,0,3,,,,,,,,,2,11,56,,,
91840,control_change,6,0,10,,,,,,,,,6,11,58,,,
91841,control_change,36,0,6,,,,,,,,,5,11,53,,,
91841,control_change,36,0,4,,,,,,,,,3,11,56,,,
91860,set_tempo,60,1,0,,,,,,937500,,,,,,,,
91862,note_on,0,0,8,,,,,,,,,11,,,,68,74
91862,note_on,24,0,8,,,,,,,,,11,,,,65,0
91862,note_on,24,0,9,,,,,,,,,12,,,,65,0
91862,note_on,0,0,9,,,,,,,,,12,,,,68,72
91862,control_change,27,0,7,,,,,,,,,10,11,50,,,
91864,note_on,24,0,10,,,,,,,,,6,,,,56,0
91864,note_on,0,0,10,,,,,,,,,6,,,,53,62
91872,control_change,36,0,1,,,,,,,,,0,11,57,,,
91874,control_change,36,0,2,,,,,,,,,1,11,57,,,
91874,control_change,12,0,9,,,,,,,,,12,11,59,,,
91874,control_change,12,0,8,,,,,,,,,11,11,59,,,
91875,control_change,36,0,3,,,,,,,,,2,11,57,,,
91875,control_change,36,0,5,,,,,,,,,4,11,54,,,
91876,control_change,12,0,10,,,,,,,,,6,11,59,,,
91877,control_change,36,0,4,,,,,,,,,3,11,57,,,
91877,control_change,36,0,6,,,,,,,,,5,11,54,,,
91889,control_change,27,0,7,,,,,,,,,10,11,52,,,
91892,note_on,0,0,8,,,,,,,,,11,,,,65,74
91892,note_on,18,0,8,,,,,,,,,11,,,,68,0
91892,note_on,0,0,9,,,,,,,,,12,,,,65,72
91892,note_on,18,0,9,,,,,,,,,12,,,,68,0
91894,note_on,0,0,10,,,,,,,,,6,,,,56,62
91894,note_on,18,0,10,,,,,,,,,6,,,,53,0
91908,control_change,36,0,1,,,,,,,,,0,11,58,,,
91910,control_change,18,0,9,,,,,,,,,12,11,60,,,
91910,control_change,36,0,2,,,,,,,,,1,11,58,,,
91910,control_change,18,0,8,,,,,,,,,11,11,60,,,
91911,control_change,36,0,5,,,,,,,,,4,11,55,,,
91911,control_change,36,0,3,,,,,,,,,2,11,58,,,
91912,control_change,18,0,10,,,,,,,,,6,11,60,,,
91913,control_change,36,0,6,,,,,,,,,5,11,55,,,
91913,control_change,36,0,4,,,,,,,,,3,11,58,,,
91916,control_change,27,0,7,,,,,,,,,10,11,54,,,
91922,note_on,12,0,9,,,,,,,,,12,,,,65,0
91922,note_on,12,0,8,,,,,,,,,11,,,,65,0
91922,note_on,0,0,8,,,,,,,,,11,,,,67,74
91922,note_on,0,0,9,,,,,,,,,12,,,,67,72
91923,note_on,0,0,3,,,,,,,,,2,,,,79,96
91923,note_on,0,0,3,,,,,,,,,2,,,,77,0
91923,note_on,0,0,3,,,,,,,,,2,,,,75,96
91923,note_on,12,0,3,,,,,,,,,2,,,,80,0
91924,note_on,12,0,10,,,,,,,,,6,,,,56,0
91924,note_on,0,0,10,,,,,,,,,6,,,,51,62
91925,note_on,0,0,4,,,,,,,,,3,,,,51,95
91925,note_on,0,0,4,,,,,,,,,3,,,,55,95
91925,note_on,12,0,4,,,,,,,,,3,,,,56,0
91925,note_on,0,0,4,,,,,,,,,3,,,,53,0
91943,control_change,27,0,7,,,,,,,,,10,11,56,,,
91944,control_change,36,0,1,,,,,,,,,0,11,59,,,
91946,control_change,24,0,9,,,,,,,,,12,11,61,,,
91946,control_change,36,0,2,,,,,,,,,1,11,59,,,
91946,control_change,24,0,8,,,,,,,,,11,11,61,,,
91947,control_change,24,0,3,,,,,,,,,2,11,59,,,
91947,control_change,36,0,5,,,,,,,,,4,11,56,,,
91948,control_change,24,0,10,,,,,,,,,6,11,61,,,
91949,control_change,24,0,4,,,,,,,,,3,11,59,,,
91949,control_change,36,0,6,,,,,,,,,5,11,56,,,
91952,note_on,0,0,9,,,,,,,,,12,,,,63,72
91952,note_on,6,0,8,,,,,,,,,11,,,,67,0
91952,note_on,0,0,8,,,,,,,,,11,,,,63,74
91952,note_on,6,0,9,,,,,,,,,12,,,,67,0
91954,note_on,0,0,10,,,,,,,,,6,,,,55,62
91954,note_on,6,0,10,,,,,,,,,6,,,,51,0
91970,control_change,27,0,7,,,,,,,,,10,11,58,,,
91980,set_tempo,120,1,0,,,,,,1034483,,,,,,,,
91980,control_change,36,0,1,,,,,,,,,0,11,60,,,
91982,note_on,30,0,8,,,,,,,,,11,,,,63,0
91982,control_change,36,0,2,,,,,,,,,1,11,60,,,
91982,control_change,0,0,8,,,,,,,,,11,11,62,,,
91982,note_on,0,0,8,,,,,,,,,11,,,,70,74
91982,note_on,0,0,9,,,,,,,,,12,,,,70,72
91982,note_on,30,0,9,,,,,,,,,12,,,,63,0
91982,control_change,0,0,9,,,,,,,,,12,11,62,,,
91983,note_on,0,0,3,,,,,,,,,2,,,,79,96
91983,note_on,0,0,3,,,,,,,,,2,,,,79,0
91983,note_on,36,0,3,,,,,,,,,2,,,,75,0
91983,control_change,0,0,3,,,,,,,,,2,11,60,,,
91983,control_change,36,0,5,,,,,,,,,4,11,57,,,
91983,note_on,0,0,3,,,,,,,,,2,,,,82,96
91984,note_on,0,0,10,,,,,,,,,6,,,,55,62
91984,control_change,0,0,10,,,,,,,,,6,11,62,,,
91984,note_on,30,0,10,,,,,,,,,6,,,,55,0
91985,control_change,36,0,6,,,,,,,,,5,11,57,,,
91985,note_on,0,0,4,,,,,,,,,3,,,,58,95
91985,control_change,0,0,4,,,,,,,,,3,11,60,,,
91985,note_on,36,0,4,,,,,,,,,3,,,,55,0
91985,note_on,420,0,11,,,,,,,,,13,,,,58,43
91985,note_on,0,0,4,,,,,,,,,3,,,,51,0
91985,note_on,0,0,4,,,,,,,,,3,,,,55,95
91988,note_on,420,0,12,,,,,,,,,14,,,,46,36
91997,control_change,27,0,7,,,,,,,,,10,11,60,,,
92012,note_on,0,0,9,,,,,,,,,12,,,,67,72
92012,note_on,30,0,9,,,,,,,,,12,,,,70,0
92012,note_on,30,0,8,,,,,,,,,11,,,,70,0
92012,note_on,0,0,8,,,,,,,,,11,,,,67,74
92014,note_on,0,0,10,,,,,,,,,6,,,,58,62
92014,note_on,30,0,10,,,,,,,,,6,,,,55,0
92016,control_change,36,0,1,,,,,,,,,0,11,61,,,
92018,control_change,36,0,2,,,,,,,,,1,11,61,,,
92018,control_change,6,0,8,,,,,,,,,11,11,63,,,
92018,control_change,6,0,9,,,,,,,,,12,11,63,,,
92019,control_change,36,0,3,,,,,,,,,2,11,61,,,
92019,control_change,36,0,5,,,,,,,,,4,11,58,,,
92020,control_change,6,0,10,,,,,,,,,6,11,63,,,
92021,control_change,36,0,4,,,,,,,,,3,11,61,,,
92021,control_change,36,0,6,,,,,,,,,5,11,58,,,
92024,control_change,27,0,7,,,,,,,,,10,11,62,,,
92040,set_tempo,60,1,0,,,,,,937500,,,,,,,,
92042,note_on,24,0,9,,,,,,,,,12,,,,67,0
92042,note_on,0,0,9,,,,,,,,,12,,,,70,72
92042,note_on,0,0,8,,,,,,,,,11,,,,70,74
92042,note_on,24,0,8,,,,,,,,,11,,,,67,0
92044,note_on,24,0,10,,,,,,,,,6,,,,58,0
92044,note_on,0,0,10,,,,,,,,,6,,,,55,62
92051,control_change,27,0,7,,,,,,,,,10,11,64,,,
92052,control_change,36,0,1,,,,,,,,,0,11,61,,,
92054,control_change,36,0,2,,,,,,,,,1,11,61,,,
92054,control_change,12,0,9,,,,,,,,,12,11,64,,,
92054,control_change,12,0,8,,,,,,,,,11,11,64,,,
92055,control_change,36,0,5,,,,,,,,,4,11,59,,,
92055,control_change,36,0,3,,,,,,,,,2,11,61,,,
92056,control_change,12,0,10,,,,,,,,,6,11,64,,,
92057,control_change,36,0,4,,,,,,,,,3,11,61,,,
92057,control_change,36,0,6,,,,,,,,,5,11,59,,,
92072,note_on,0,0,9,,,,,,,,,12,,,,67,72
92072,note_on,18,0,9,,,,,,,,,12,,,,70,0
92072,note_on,0,0,8,,,,,,,,,11,,,,67,74
92072,note_on,18,0,8,,,,,,,,,11,,,,70,0
92074,note_on,0,0,10,,,,,,,,,6,,,,58,62
92074,note_on,18,0,10,,,,,,,,,6,,,,55,0
92078,control_change,27,0,7,,,,,,,,,10,11,66,,,
92088,control_change,36,0,1,,,,,,,,,0,11,62,,,
92090,control_change,18,0,9,,,,,,,,,12,11,65,,,
92090,control_change,18,0,8,,,,,,,,,11,11,65,,,
92090,control_change,36,0,2,,,,,,,,,1,11,62,,,
92091,control_change,36,0,3,,,,,,,,,2,11,62,,,
92091,control_change,36,0,5,,,,,,,,,4,11,60,,,
92092,control_change,18,0,10,,,,,,,,,6,11,65,,,
92093,control_change,36,0,4,,,,,,,,,3,11,62,,,
92093,control_change,36,0,6,,,,,,,,,5,11,60,,,
92095,note_on,17,0,7,,,,,,,,,10,,,,82,0
92100,note_on,5,0,7,,,,,,,,,10,,,,80,103
92102,note_on,12,0,8,,,,,,,,,11,,,,67,0
92102,note_on,0,0,9,,,,,,,,,12,,,,68,72
92102,note_on,12,0,9,,,,,,,,,12,,,,67,0
92102,note_on,0,0,8,,,,,,,,,11,,,,68,74
92103,note_on,0,0,3,,,,,,,,,2,,,,77,96
92103,note_on,0,0,3,,,,,,,,,2,,,,80,96
92103,note_on,0,0,3,,,,,,,,,2,,,,79,0
92103,note_on,12,0,3,,,,,,,,,2,,,,82,0
92104,note_on,12,0,10,,,,,,,,,6,,,,58,0
92104,note_on,0,0,10,,,,,,,,,6,,,,53,62
92105,note_on,12,0,4,,,,,,,,,3,,,,58,0
92105,control_change,5,0,7,,,,,,,,,10,11,68,,,
92105,note_on,120,0,11,,,,,,,,,13,,,,58,0
92105,note_on,0,0,4,,,,,,,,,3,,,,53,95
92105,note_on,0,0,4,,,,,,,,,3,,,,56,95
92105,note_on,0,0,4,,,,,,,,,3,,,,55,0
92108,note_on,120,0,12,,,,,,,,,14,,,,46,0
92124,control_change,36,0,1,,,,,,,,,0,11,63,,,
92126,control_change,24,0,8,,,,,,,,,11,11,66,,,
92126,control_change,36,0,2,,,,,,,,,1,11,63,,,
92126,control_change,24,0,9,,,,,,,,,12,11,66,,,
92127,control_change,36,0,5,,,,,,,,,4,11,61,,,
92127,control_change,24,0,3,,,,,,,,,2,11,63,,,
92128,control_change,24,0,10,,,,,,,,,6,11,66,,,
92129,control_change,24,0,4,,,,,,,,,3,11,63,,,
92129,control_change,36,0,6,,,,,,,,,5,11,61,,,
92132,note_on,0,0,9,,,,,,,,,12,,,,65,72
92132,note_on,0,0,8,,,,,,,,,11,,,,65,74
92132,note_on,6,0,8,,,,,,,,,11,,,,68,0
92132,note_on,6,0,9,,,,,,,,,12,,,,68,0
92132,control_change,27,0,7,,,,,,,,,10,11,70,,,
92134,note_on,6,0,10,,,,,,,,,6,,,,53,0
92134,note_on,0,0,10,,,,,,,,,6,,,,56,62
92155,note_on,23,0,7,,,,,,,,,10,,,,80,0
92155,note_on,31,0,1,,,,,,,,,0,,,,82,0
92157,note_on,25,0,8,,,,,,,,,11,,,,65,0
92157,note_on,25,0,9,,,,,,,,,12,,,,65,0
92157,note_on,31,0,2,,,,,,,,,1,,,,70,0
92158,note_on,31,0,5,,,,,,,,,4,,,,58,0
92158,note_on,31,0,3,,,,,,,,,2,,,,77,0
92158,note_on,0,0,3,,,,,,,,,2,,,,80,0
92159,note_on,25,0,10,,,,,,,,,6,,,,56,0
92159,control_change,4,0,7,,,,,,,,,10,11,72,,,
92160,note_on,0,0,4,,,,,,,,,3,,,,53,0
92160,control_change,0,0,1,,,,,,,,,0,11,64,,,
92160,note_on,5,0,1,,,,,,,,,0,,,,82,88
92160,note_on,31,0,6,,,,,,,,,5,,,,46,0
92160,set_tempo,120,1,0,,,,,,1395349,,,,,,,,
92160,note_on,1,0,7,,,,,,,,,10,,,,79,103
92160,note_on,31,0,4,,,,,,,,,3,,,,56,0
92162,note_on,0,0,2,,,,,,,,,1,,,,79,87
92162,note_on,0,0,8,,,,,,,,,11,,,,72,74
92162,note_on,0,0,2,,,,,,,,,1,,,,70,87
92162,control_change,5,0,8,,,,,,,,,11,11,67,,,
92162,control_change,5,0,9,,,,,,,,,12,11,67,,,
92162,note_on,0,0,9,,,,,,,,,12,,,,72,72
92162,control_change,5,0,2,,,,,,,,,1,11,64,,,
92163,note_on,0,0,3,,,,,,,,,2,,,,80,96
92163,note_on,0,0,5,,,,,,,,,4,,,,58,82
92163,note_on,0,0,3,,,,,,,,,2,,,,84,96
92163,control_change,5,0,5,,,,,,,,,4,11,62,,,
92163,control_change,5,0,3,,,,,,,,,2,11,64,,,
92164,control_change,5,0,10,,,,,,,,,6,11,67,,,
92164,note_on,0,0,10,,,,,,,,,6,,,,56,62
92165,note_on,60,0,11,,,,,,,,,13,,,,51,43
92165,control_change,0,0,4,,,,,,,,,3,11,64,,,
92165,note_on,5,0,4,,,,,,,,,3,,,,60,95
92165,control_change,0,0,6,,,,,,,,,5,11,62,,,
92165,note_on,5,0,6,,,,,,,,,5,,,,46,82
92165,note_on,0,0,4,,,,,,,,,3,,,,56,95
92168,note_on,60,0,12,,,,,,,,,14,,,,39,36
92170,note_on,10,0,7,,,,,,,,,10,,,,79,0
92170,note_on,0,0,7,,,,,,,,,10,,,,80,103
92180,note_on,10,0,7,,,,,,,,,10,,,,80,0
92180,note_on,0,0,7,,,,,,,,,10,,,,82,103
92190,note_on,0,0,7,,,,,,,,,10,,,,80,103
92190,note_on,10,0,7,,,,,,,,,10,,,,82,0
92190,set_tempo,30,1,0,,,,,,1025641,,,,,,,,
92192,note_on,30,0,8,,,,,,,,,11,,,,72,0
92192,note_on,0,0,8,,,,,,,,,11,,,,68,74
92192,note_on,30,0,9,,,,,,,,,12,,,,72,0
92192,note_on,0,0,9,,,,,,,,,12,,,,68,72
92194,note_on,0,0,10,,,,,,,,,6,,,,60,62
92194,note_on,30,0,10,,,,,,,,,6,,,,56,0
92196,control_change,36,0,1,,,,,,,,,0,11,63,,,
92198,control_change,36,0,2,,,,,,,,,1,11,63,,,
92198,control_change,6,0,8,,,,,,,,,11,11,66,,,
92198,control_change,6,0,9,,,,,,,,,12,11,66,,,
92199,control_change,36,0,5,,,,,,,,,4,11,61,,,
92199,control_change,36,0,3,,,,,,,,,2,11,63,,,
92200,control_change,6,0,10,,,,,,,,,6,11,66,,,
92201,control_change,36,0,4,,,,,,,,,3,11,63,,,
92201,control_change,36,0,6,,,,,,,,,5,11,61,,,
92220,set_tempo,30,1,0,,,,,,937500,,,,,,,,
92222,note_on,24,0,9,,,,,,,,,12,,,,68,0
92222,note_on,0,0,9,,,,,,,,,12,,,,72,72
92222,note_on,24,0,8,,,,,,,,,11,,,,68,0
92222,note_on,0,0,8,,,,,,,,,11,,,,72,74
92224,note_on,24,0,10,,,,,,,,,6,,,,60,0
92224,note_on,0,0,10,,,,,,,,,6,,,,56,62
92232,control_change,36,0,1,,,,,,,,,0,11,62,,,
92234,control_change,36,0,2,,,,,,,,,1,11,62,,,
92234,control_change,12,0,8,,,,,,,,,11,11,65,,,
92234,control_change,12,0,9,,,,,,,,,12,11,65,,,
92235,control_change,36,0,5,,,,,,,,,4,11,60,,,
92235,control_change,36,0,3,,,,,,,,,2,11,62,,,
92236,control_change,12,0,10,,,,,,,,,6,11,65,,,
92237,control_change,36,0,4,,,,,,,,,3,11,62,,,
92237,control_change,36,0,6,,,,,,,,,5,11,60,,,
92252,note_on,18,0,9,,,,,,,,,12,,,,72,0
92252,note_on,0,0,9,,,,,,,,,12,,,,68,72
92252,note_on,0,0,8,,,,,,,,,11,,,,68,74
92252,note_on,18,0,8,,,,,,,,,11,,,,72,0
92254,note_on,0,0,10,,,,,,,,,6,,,,60,62
92254,note_on,18,0,10,,,,,,,,,6,,,,56,0
92265,control_change,75,0,7,,,,,,,,,10,11,72,,,
92268,control_change,36,0,1,,,,,,,,,0,11,61,,,
92269,control_change,4,0,7,,,,,,,,,10,11,69,,,
92270,control_change,18,0,8,,,,,,,,,11,11,64,,,
92270,control_change,18,0,9,,,,,,,,,12,11,64,,,
92270,control_change,36,0,2,,,,,,,,,1,11,61,,,
92271,control_change,36,0,3,,,,,,,,,2,11,61,,,
92271,control_change,36,0,5,,,,,,,,,4,11,59,,,
92272,control_change,18,0,10,,,,,,,,,6,11,64,,,
92273,control_change,36,0,6,,,,,,,,,5,11,59,,,
92273,control_change,4,0,7,,,,,,,,,10,11,66,,,
92273,control_change,36,0,4,,,,,,,,,3,11,61,,,
92277,control_change,4,0,7,,,,,,,,,10,11,63,,,
92280,note_on,0,0,7,,,,,,,,,10,,,,79,103
92280,note_on,3,0,7,,,,,,,,,10,,,,80,0
92282,note_on,12,0,9,,,,,,,,,12,,,,68,0
92282,note_on,0,0,9,,,,,,,,,12,,,,70,72
92282,note_on,0,0,8,,,,,,,,,11,,,,70,74
92282,note_on,12,0,8,,,,,,,,,11,,,,68,0
92283,note_on,0,0,3,,,,,,,,,2,,,,79,96
92283,note_on,0,0,3,,,,,,,,,2,,,,82,96
92283,note_on,0,0,3,,,,,,,,,2,,,,80,0
92283,note_on,12,0,3,,,,,,,,,2,,,,84,0
92284,note_on,12,0,10,,,,,,,,,6,,,,60,0
92284,note_on,0,0,10,,,,,,,,,6,,,,55,62
92285,note_on,120,0,11,,,,,,,,,13,,,,51,0
92285,note_on,0,0,4,,,,,,,,,3,,,,55,95
92285,note_on,0,0,4,,,,,,,,,3,,,,60,0
92285,note_on,0,0,4,,,,,,,,,3,,,,58,95
92285,note_on,12,0,4,,,,,,,,,3,,,,56,0
92288,note_on,120,0,12,,,,,,,,,14,,,,39,0
92302,control_change,22,0,7,,,,,,,,,10,11,61,,,
92304,control_change,36,0,1,,,,,,,,,0,11,61,,,
92306,control_change,36,0,2,,,,,,,,,1,11,61,,,
92306,control_change,24,0,8,,,,,,,,,11,11,63,,,
92306,control_change,24,0,9,,,,,,,,,12,11,63,,,
92307,control_change,24,0,3,,,,,,,,,2,11,61,,,
92307,control_change,36,0,5,,,,,,,,,4,11,58,,,
92308,control_change,24,0,10,,,,,,,,,6,11,63,,,
92309,control_change,24,0,4,,,,,,,,,3,11,61,,,
92309,control_change,36,0,6,,,,,,,,,5,11,58,,,
92312,note_on,0,0,8,,,,,,,,,11,,,,67,74
92312,note_on,0,0,9,,,,,,,,,12,,,,67,72
92312,note_on,6,0,9,,,,,,,,,12,,,,70,0
92312,note_on,6,0,8,,,,,,,,,11,,,,70,0
92314,note_on,0,0,10,,,,,,,,,6,,,,58,62
92314,note_on,6,0,10,,,,,,,,,6,,,,55,0
92324,control_change,22,0,7,,,,,,,,,10,11,60,,,
92340,control_change,36,0,1,,,,,,,,,0,11,60,,,
92340,set_tempo,120,1,0,,,,,,1034483,,,,,,,,
92342,note_on,0,0,8,,,,,,,,,11,,,,68,74
92342,note_on,30,0,9,,,,,,,,,12,,,,67,0
92342,control_change,0,0,8,,,,,,,,,11,11,62,,,
92342,note_on,0,0,9,,,,,,,,,12,,,,68,72
92342,control_change,0,0,9,,,,,,,,,12,11,62,,,
92342,control_change,36,0,2,,,,,,,,,1,11,60,,,
92342,note_on,30,0,8,,,,,,,,,11,,,,67,0
92343,note_on,0,0,3,,,,,,,,,2,,,,77,96
92343,note_on,0,0,3,,,,,,,,,2,,,,80,96
92343,control_change,0,0,3,,,,,,,,,2,11,60,,,
92343,note_on,0,0,3,,,,,,,,,2,,,,82,0
92343,control_change,36,0,5,,,,,,,,,4,11,57,,,
92343,note_on,36,0,3,,,,,,,,,2,,,,79,0
92344,note_on,0,0,10,,,,,,,,,6,,,,53,62
92344,note_on,30,0,10,,,,,,,,,6,,,,58,0
92344,control_change,0,0,10,,,,,,,,,6,11,62,,,
92345,note_on,36,0,4,,,,,,,,,3,,,,58,0
92345,note_on,0,0,4,,,,,,,,,3,,,,56,95
92345,control_change,36,0,6,,,,,,,,,5,11,57,,,
92345,note_on,0,0,4,,,,,,,,,3,,,,53,95
92345,control_change,0,0,4,,,,,,,,,3,11,60,,,
92345,note_on,0,0,4,,,,,,,,,3,,,,55,0
92347,control_change,23,0,7,,,,,,,,,10,11,59,,,
92369,control_change,22,0,7,,,,,,,,,10,11,58,,,
92372,note_on,30,0,8,,,,,,,,,11,,,,68,0
92372,note_on,0,0,9,,,,,,,,,12,,,,65,72
92372,note_on,0,0,8,,,,,,,,,11,,,,65,74
92372,note_on,30,0,9,,,,,,,,,12,,,,68,0
92374,note_on,0,0,10,,,,,,,,,6,,,,56,62
92374,note_on,30,0,10,,,,,,,,,6,,,,53,0
92376,control_change,36,0,1,,,,,,,,,0,11,59,,,
92378,control_change,6,0,9,,,,,,,,,12,11,61,,,
92378,control_change,6,0,8,,,,,,,,,11,11,61,,,
92378,control_change,36,0,2,,,,,,,,,1,11,59,,,
92379,control_change,36,0,3,,,,,,,,,2,11,59,,,
92379,control_change,36,0,5,,,,,,,,,4,11,56,,,
92380,control_change,6,0,10,,,,,,,,,6,11,61,,,
92381,control_change,36,0,6,,,,,,,,,5,11,56,,,
92381,control_change,36,0,4,,,,,,,,,3,11,59,,,
92392,control_change,23,0,7,,,,,,,,,10,11,57,,,
92400,set_tempo,60,1,0,,,,,,967742,,,,,,,,
92402,note_on,0,0,9,,,,,,,,,12,,,,68,72
92402,note_on,24,0,8,,,,,,,,,11,,,,65,0
92402,note_on,24,0,9,,,,,,,,,12,,,,65,0
92402,note_on,0,0,8,,,,,,,,,11,,,,68,74
92404,note_on,0,0,10,,,,,,,,,6,,,,53,62
92404,note_on,24,0,10,,,,,,,,,6,,,,56,0
92412,control_change,36,0,1,,,,,,,,,0,11,58,,,
92414,control_change,36,0,2,,,,,,,,,1,11,58,,,
92414,control_change,12,0,9,,,,,,,,,12,11,60,,,
92414,control_change,22,0,7,,,,,,,,,10,11,56,,,
92414,control_change,12,0,8,,,,,,,,,11,11,60,,,
92415,control_change,36,0,3,,,,,,,,,2,11,58,,,
92415,control_change,36,0,5,,,,,,,,,4,11,55,,,
92416,control_change,12,0,10,,,,,,,,,6,11,60,,,
92417,control_change,36,0,4,,,,,,,,,3,11,58,,,
92417,control_change,36,0,6,,,,,,,,,5,11,55,,,
92432,note_on,0,0,9,,,,,,,,,12,,,,65,72
92432,note_on,0,0,8,,,,,,,,,11,,,,65,74
92432,note_on,18,0,8,,,,,,,,,11,,,,68,0
92432,note_on,18,0,9,,,,,,,,,12,,,,68,0
92434,note_on,18,0,10,,,,,,,,,6,,,,53,0
92434,note_on,0,0,10,,,,,,,,,6,,,,56,62
92437,control_change,23,0,7,,,,,,,,,10,11,55,,,
92448,control_change,36,0,1,,,,,,,,,0,11,57,,,
92450,control_change,18,0,8,,,,,,,,,11,11,59,,,
92450,control_change,36,0,2,,,,,,,,,1,11,57,,,
92450,control_change,18,0,9,,,,,,,,,12,11,59,,,
92451,control_change,36,0,3,,,,,,,,,2,11,57,,,
92451,control_change,36,0,5,,,,,,,,,4,11,54,,,
92452,control_change,18,0,10,,,,,,,,,6,11,59,,,
92453,control_change,36,0,4,,,,,,,,,3,11,57,,,
92453,control_change,36,0,6,,,,,,,,,5,11,54,,,
92459,control_change,22,0,7,,,,,,,,,10,11,54,,,
92462,note_on,12,0,9,,,,,,,,,12,,,,65,0
92462,note_on,0,0,9,,,,,,,,,12,,,,67,72
92462,note_on,0,0,8,,,,,,,,,11,,,,67,74
92462,note_on,12,0,8,,,,,,,,,11,,,,65,0
92463,note_on,0,0,3,,,,,,,,,2,,,,75,96
92463,note_on,0,0,3,,,,,,,,,2,,,,79,96
92463,note_on,0,0,3,,,,,,,,,2,,,,77,0
92463,note_on,12,0,3,,,,,,,,,2,,,,80,0
92464,note_on,0,0,10,,,,,,,,,6,,,,51,62
92464,note_on,12,0,10,,,,,,,,,6,,,,56,0
92465,note_on,0,0,4,,,,,,,,,3,,,,56,0
92465,note_on,0,0,4,,,,,,,,,3,,,,51,95
92465,note_on,0,0,4,,,,,,,,,3,,,,55,95
92465,note_on,12,0,4,,,,,,,,,3,,,,53,0
92482,control_change,23,0,7,,,,,,,,,10,11,53,,,
92484,control_change,36,0,1,,,,,,,,,0,11,56,,,
92486,control_change,24,0,8,,,,,,,,,11,11,58,,,
92486,control_change,36,0,2,,,,,,,,,1,11,56,,,
92486,control_change,24,0,9,,,,,,,,,12,11,58,,,
92487,control_change,36,0,5,,,,,,,,,4,11,53,,,
92487,control_change,24,0,3,,,,,,,,,2,11,56,,,
92488,control_change,24,0,10,,,,,,,,,6,11,58,,,
92489,control_change,36,0,6,,,,,,,,,5,11,53,,,
92489,control_change,24,0,4,,,,,,,,,3,11,56,,,
92492,note_on,0,0,9,,,,,,,,,12,,,,63,72
92492,note_on,6,0,8,,,,,,,,,11,,,,67,0
92492,note_on,0,0,8,,,,,,,,,11,,,,63,74
92492,note_on,6,0,9,,,,,,,,,12,,,,67,0
92494,note_on,0,0,10,,,,,,,,,6,,,,55,62
92494,note_on,6,0,10,,,,,,,,,6,,,,51,0
92504,control_change,22,0,7,,,,,,,,,10,11,52,,,
92520,set_tempo,120,1,0,,,,,,1034483,,,,,,,,
92520,control_change,36,0,1,,,,,,,,,0,11,55,,,
92522,note_on,30,0,8,,,,,,,,,11,,,,63,0
92522,note_on,0,0,8,,,,,,,,,11,,,,65,74
92522,control_change,0,0,8,,,,,,,,,11,11,57,,,
92522,note_on,30,0,9,,,,,,,,,12,,,,63,0
92522,control_change,36,0,2,,,,,,,,,1,11,55,,,
92522,note_on,0,0,9,,,,,,,,,12,,,,65,72
92522,control_change,0,0,9,,,,,,,,,12,11,57,,,
92523,control_change,36,0,5,,,,,,,,,4,11,52,,,
92523,note_on,36,0,3,,,,,,,,,2,,,,75,0
92523,note_on,0,0,3,,,,,,,,,2,,,,79,0
92523,note_on,0,0,3,,,,,,,,,2,,,,74,96
92523,note_on,0,0,3,,,,,,,,,2,,,,77,96
92523,control_change,0,0,3,,,,,,,,,2,11,55,,,
92524,note_on,0,0,10,,,,,,,,,6,,,,50,62
92524,note_on,30,0,10,,,,,,,,,6,,,,55,0
92524,control_change,0,0,10,,,,,,,,,6,11,57,,,
92525,control_change,0,0,4,,,,,,,,,3,11,55,,,
92525,note_on,0,0,4,,,,,,,,,3,,,,50,95
92525,note_on,0,0,4,,,,,,,,,3,,,,53,95
92525,note_on,0,0,4,,,,,,,,,3,,,,55,0
92525,note_on,36,0,4,,,,,,,,,3,,,,51,0
92525,control_change,36,0,6,,,,,,,,,5,11,52,,,
92526,control_change,22,0,7,,,,,,,,,10,11,51,,,
92549,control_change,23,0,7,,,,,,,,,10,11,50,,,
92552,note_on,0,0,8,,,,,,,,,11,,,,62,74
92552,note_on,30,0,8,,,,,,,,,11,,,,65,0
92552,note_on,30,0,9,,,,,,,,,12,,,,65,0
92552,note_on,0,0,9,,,,,,,,,12,,,,62,72
92554,note_on,0,0,10,,,,,,,,,6,,,,53,62
92554,note_on,30,0,10,,,,,,,,,6,,,,50,0
92556,control_change,36,0,1,,,,,,,,,0,11,55,,,
92558,control_change,6,0,8,,,,,,,,,11,11,56,,,
92558,control_change,36,0,2,,,,,,,,,1,11,55,,,
92558,control_change,6,0,9,,,,,,,,,12,11,56,,,
92559,control_change,36,0,5,,,,,,,,,4,11,51,,,
92559,control_change,36,0,3,,,,,,,,,2,11,55,,,
92560,control_change,6,0,10,,,,,,,,,6,11,56,,,
92561,control_change,36,0,4,,,,,,,,,3,11,55,,,
92561,control_change,36,0,6,,,,,,,,,5,11,51,,,
92571,control_change,22,0,7,,,,,,,,,10,11,49,,,
92580,set_tempo,60,1,0,,,,,,1000000,,,,,,,,
92582,note_on,0,0,9,,,,,,,,,12,,,,65,72
92582,note_on,24,0,9,,,,,,,,,12,,,,62,0
92582,note_on,0,0,8,,,,,,,,,11,,,,65,74
92582,note_on,24,0,8,,,,,,,,,11,,,,62,0
92584,note_on,24,0,10,,,,,,,,,6,,,,53,0
92584,note_on,0,0,10,,,,,,,,,6,,,,50,62
92592,control_change,36,0,1,,,,,,,,,0,11,54,,,
92594,control_change,23,0,7,,,,,,,,,10,11,48,,,
92594,control_change,12,0,8,,,,,,,,,11,11,55,,,
92594,control_change,12,0,9,,,,,,,,,12,11,55,,,
92594,control_change,36,0,2,,,,,,,,,1,11,54,,,
92595,control_change,36,0,3,,,,,,,,,2,11,54,,,
92595,control_change,36,0,5,,,,,,,,,4,11,50,,,
92596,control_change,12,0,10,,,,,,,,,6,11,55,,,
92597,control_change,36,0,4,,,,,,,,,3,11,54,,,
92597,control_change,36,0,6,,,,,,,,,5,11,50,,,
92612,note_on,18,0,8,,,,,,,,,11,,,,65,0
92612,note_on,0,0,9,,,,,,,,,12,,,,62,72
92612,note_on,0,0,8,,,,,,,,,11,,,,62,74
92612,note_on,18,0,9,,,,,,,,,12,,,,65,0
92614,note_on,18,0,10,,,,,,,,,6,,,,50,0
92614,note_on,0,0,10,,,,,,,,,6,,,,53,62
92616,control_change,22,0,7,,,,,,,,,10,11,47,,,
92628,control_change,36,0,1,,,,,,,,,0,11,53,,,
92630,control_change,18,0,8,,,,,,,,,11,11,54,,,
92630,control_change,18,0,9,,,,,,,,,12,11,54,,,
92630,control_change,36,0,2,,,,,,,,,1,11,53,,,
92631,control_change,36,0,5,,,,,,,,,4,11,49,,,
92631,control_change,36,0,3,,,,,,,,,2,11,53,,,
92632,control_change,18,0,10,,,,,,,,,6,11,54,,,
92633,control_change,36,0,6,,,,,,,,,5,11,49,,,
92633,control_change,36,0,4,,,,,,,,,3,11,53,,,
92639,control_change,23,0,7,,,,,,,,,10,11,46,,,
92642,note_on,0,0,9,,,,,,,,,12,,,,67,72
92642,note_on,12,0,8,,,,,,,,,11,,,,62,0
92642,note_on,0,0,8,,,,,,,,,11,,,,67,74
92642,note_on,12,0,9,,,,,,,,,12,,,,62,0
92643,note_on,0,0,3,,,,,,,,,2,,,,74,0
92643,note_on,0,0,3,,,,,,,,,2,,,,79,96
92643,note_on,0,0,3,,,,,,,,,2,,,,75,96
92643,note_on,12,0,3,,,,,,,,,2,,,,77,0
92644,note_on,0,0,10,,,,,,,,,6,,,,51,62
92644,note_on,12,0,10,,,,,,,,,6,,,,53,0
92645,note_on,0,0,4,,,,,,,,,3,,,,55,95
92645,note_on,0,0,4,,,,,,,,,3,,,,51,95
92645,note_on,0,0,4,,,,,,,,,3,,,,53,0
92645,note_on,12,0,4,,,,,,,,,3,,,,50,0
92661,control_change,22,0,7,,,,,,,,,10,11,45,,,
92664,control_change,36,0,1,,,,,,,,,0,11,52,,,
92666,control_change,24,0,8,,,,,,,,,11,11,53,,,
92666,control_change,24,0,9,,,,,,,,,12,11,53,,,
92666,control_change,36,0,2,,,,,,,,,1,11,52,,,
92667,control_change,24,0,3,,,,,,,,,2,11,52,,,
92667,control_change,36,0,5,,,,,,,,,4,11,48,,,
92668,control_change,24,0,10,,,,,,,,,6,11,53,,,
92669,control_change,36,0,6,,,,,,,,,5,11,48,,,
92669,control_change,24,0,4,,,,,,,,,3,11,52,,,
92672,note_on,6,0,9,,,,,,,,,12,,,,67,0
92672,note_on,0,0,9,,,,,,,,,12,,,,63,72
92672,note_on,6,0,8,,,,,,,,,11,,,,67,0
92672,note_on,0,0,8,,,,,,,,,11,,,,63,74
92674,note_on,6,0,10,,,,,,,,,6,,,,51,0
92674,note_on,0,0,10,,,,,,,,,6,,,,55,62
92684,control_change,23,0,7,,,,,,,,,10,11,44,,,
92700,set_tempo,120,1,0,,,,,,1111111,,,,,,,,
92700,control_change,36,0,1,,,,,,,,,0,11,52,,,
92702,note_on,0,0,9,,,,,,,,,12,,,,68,72
92702,note_on,30,0,9,,,,,,,,,12,,,,63,0
92702,control_change,0,0,9,,,,,,,,,12,11,52,,,
92702,control_change,36,0,2,,,,,,,,,1,11,52,,,
92702,note_on,30,0,8,,,,,,,,,11,,,,63,0
92702,control_change,0,0,8,,,,,,,,,11,11,52,,,
92702,note_on,0,0,8,,,,,,,,,11,,,,68,74
92703,note_on,36,0,3,,,,,,,,,2,,,,75,0
92703,note_on,0,0,3,,,,,,,,,2,,,,80,96
92703,note_on,0,0,3,,,,,,,,,2,,,,79,0
92703,control_change,0,0,3,,,,,,,,,2,11,52,,,
92703,note_on,0,0,3,,,,,,,,,2,,,,77,96
92703,control_change,36,0,5,,,,,,,,,4,11,47,,,
92704,note_on,30,0,10,,,,,,,,,6,,,,55,0
92704,control_change,0,0,10,,,,,,,,,6,11,52,,,
92704,note_on,0,0,10,,,,,,,,,6,,,,53,62
92705,note_on,0,0,4,,,,,,,,,3,,,,56,95
92705,note_on,0,0,4,,,,,,,,,3,,,,53,95
92705,note_on,420,0,11,,,,,,,,,13,,,,51,43
92705,note_on,0,0,4,,,,,,,,,3,,,,51,0
92705,control_change,36,0,6,,,,,,,,,5,11,47,,,
92705,note_on,36,0,4,,,,,,,,,3,,,,55,0
92705,control_change,0,0,4,,,,,,,,,3,11,52,,,
92706,control_change,22,0,7,,,,,,,,,10,11,43,,,
92708,note_on,420,0,12,,,,,,,,,14,,,,39,36
92729,control_change,23,0,7,,,,,,,,,10,11,42,,,
92732,note_on,30,0,8,,,,,,,,,11,,,,68,0
92732,note_on,0,0,9,,,,,,,,,12,,,,65,72
92732,note_on,0,0,8,,,,,,,,,11,,,,65,74
92732,note_on,30,0,9,,,,,,,,,12,,,,68,0
92734,note_on,30,0,10,,,,,,,,,6,,,,53,0
92734,note_on,0,0,10,,,,,,,,,6,,,,56,62
92736,control_change,36,0,1,,,,,,,,,0,11,51,,,
92738,control_change,9,0,7,,,,,,,,,10,11,39,,,
92738,control_change,36,0,2,,,,,,,,,1,11,51,,,
92738,control_change,6,0,9,,,,,,,,,12,11,51,,,
92738,control_change,6,0,8,,,,,,,,,11,11,51,,,
92739,control_change,36,0,5,,,,,,,,,4,11,46,,,
92739,control_change,36,0,3,,,,,,,,,2,11,51,,,
92740,control_change,6,0,10,,,,,,,,,6,11,51,,,
92741,control_change,36,0,4,,,,,,,,,3,11,51,,,
92741,control_change,36,0,6,,,,,,,,,5,11,46,,,
92747,control_change,9,0,7,,,,,,,,,10,11,36,,,
92755,note_on,8,0,7,,,,,,,,,10,,,,79,0
92756,control_change,1,0,7,,,,,,,,,10,11,33,,,
92760,control_change,4,0,7,,,,,,,,,10,11,42,,,
92760,set_tempo,60,1,0,,,,,,1071429,,,,,,,,
92760,note_on,0,0,7,,,,,,,,,10,,,,79,103
92762,note_on,0,0,8,,,,,,,,,11,,,,68,74
92762,note_on,24,0,8,,,,,,,,,11,,,,65,0
92762,note_on,0,0,9,,,,,,,,,12,,,,68,72
92762,note_on,24,0,9,,,,,,,,,12,,,,65,0
92764,note_on,0,0,10,,,,,,,,,6,,,,53,62
92764,note_on,24,0,10,,,,,,,,,6,,,,56,0
92772,control_change,36,0,1,,,,,,,,,0,11,50,,,
92773,control_change,13,0,7,,,,,,,,,10,11,45,,,
92774,control_change,12,0,8,,,,,,,,,11,11,50,,,
92774,control_change,36,0,2,,,,,,,,,1,11,50,,,
92774,control_change,12,0,9,,,,,,,,,12,11,50,,,
92775,control_change,36,0,5,,,,,,,,,4,11,45,,,
92775,control_change,36,0,3,,,,,,,,,2,11,50,,,
92776,control_change,12,0,10,,,,,,,,,6,11,50,,,
92777,control_change,36,0,6,,,,,,,,,5,11,45,,,
92777,control_change,36,0,4,,,,,,,,,3,11,50,,,
92786,control_change,13,0,7,,,,,,,,,10,11,48,,,
92790,note_on,4,0,7,,,,,,,,,10,,,,79,0
92790,note_on,0,0,7,,,,,,,,,10,,,,80,103
92792,note_on,18,0,8,,,,,,,,,11,,,,68,0
92792,note_on,0,0,8,,,,,,,,,11,,,,65,74
92792,note_on,0,0,9,,,,,,,,,12,,,,65,72
92792,note_on,18,0,9,,,,,,,,,12,,,,68,0
92794,note_on,0,0,10,,,,,,,,,6,,,,56,62
92794,note_on,18,0,10,,,,,,,,,6,,,,53,0
92800,control_change,10,0,7,,,,,,,,,10,11,51,,,
92808,control_change,36,0,1,,,,,,,,,0,11,49,,,
92810,control_change,18,0,8,,,,,,,,,11,11,49,,,
92810,control_change,36,0,2,,,,,,,,,1,11,49,,,
92810,control_change,18,0,9,,,,,,,,,12,11,49,,,
92811,control_change,36,0,3,,,,,,,,,2,11,49,,,
92811,control_change,36,0,5,,,,,,,,,4,11,44,,,
92812,control_change,18,0,10,,,,,,,,,6,11,49,,,
92813,control_change,36,0,4,,,,,,,,,3,11,49,,,
92813,control_change,36,0,6,,,,,,,,,5,11,44,,,
92813,control_change,13,0,7,,,,,,,,,10,11,54,,,
92820,note_on,0,0,1,,,,,,,,,0,,,,79,88
92820,note_on,12,0,1,,,,,,,,,0,,,,82,0
92820,note_on,7,0,7,,,,,,,,,10,,,,80,0
92820,note_on,0,0,7,,,,,,,,,10,,,,82,103
92820,set_tempo,60,1,0,,,,,,1290323,,,,,,,,
92822,note_on,0,0,2,,,,,,,,,1,,,,75,87
92822,note_on,12,0,8,,,,,,,,,11,,,,65,0
92822,note_on,0,0,8,,,,,,,,,11,,,,67,74
92822,note_on,12,0,2,,,,,,,,,1,,,,79,0
92822,note_on,12,0,9,,,,,,,,,12,,,,65,0
92822,note_on,0,0,9,,,,,,,,,12,,,,67,72
92823,note_on,0,0,3,,,,,,,,,2,,,,79,96
92823,note_on,12,0,3,,,,,,,,,2,,,,77,0
92823,note_on,0,0,3,,,,,,,,,2,,,,75,96
92823,note_on,0,0,3,,,,,,,,,2,,,,80,0
92824,note_on,0,0,10,,,,,,,,,6,,,,51,62
92824,note_on,12,0,10,,,,,,,,,6,,,,56,0
92825,note_on,120,0,11,,,,,,,,,13,,,,51,0
92825,note_on,12,0,4,,,,,,,,,3,,,,56,0
92825,note_on,0,0,4,,,,,,,,,3,,,,53,0
92825,note_on,0,0,4,,,,,,,,,3,,,,51,95
92825,note_on,0,0,4,,,,,,,,,3,,,,55,95
92826,control_change,6,0,7,,,,,,,,,10,11,57,,,
92828,note_on,120,0,12,,,,,,,,,14,,,,39,0
92840,control_change,14,0,7,,,,,,,,,10,11,60,,,
92844,control_change,24,0,1,,,,,,,,,0,11,48,,,
92846,control_change,24,0,2,,,,,,,,,1,11,48,,,
92846,control_change,24,0,9,,,,,,,,,12,11,48,,,
92846,control_change,24,0,8,,,,,,,,,11,11,48,,,
92847,control_change,36,0,5,,,,,,,,,4,11,43,,,
92847,control_change,24,0,3,,,,,,,,,2,11,48,,,
92848,control_change,24,0,10,,,,,,,,,6,11,48,,,
92849,control_change,36,0,6,,,,,,,,,5,11,43,,,
92849,control_change,24,0,4,,,,,,,,,3,11,48,,,
92850,note_on,0,0,7,,,,,,,,,10,,,,79,103
92850,note_on,10,0,7,,,,,,,,,10,,,,82,0
92852,note_on,6,0,9,,,,,,,,,12,,,,67,0
92852,note_on,6,0,8,,,,,,,,,11,,,,67,0
92852,note_on,0,0,9,,,,,,,,,12,,,,63,72
92852,note_on,0,0,8,,,,,,,,,11,,,,63,74
92854,note_on,6,0,10,,,,,,,,,6,,,,51,0
92854,note_on,0,0,10,,,,,,,,,6,,,,55,62
92855,control_change,5,0,7,,,,,,,,,10,11,58,,,
92860,control_change,5,0,7,,,,,,,,,10,11,55,,,
92864,control_change,4,0,7,,,,,,,,,10,11,52,,,
92868,control_change,4,0,7,,,,,,,,,10,11,49,,,
92873,control_change,5,0,7,,,,,,,,,10,11,46,,,
92875,note_on,31,0,1,,,,,,,,,0,,,,79,0
92875,note_on,2,0,7,,,,,,,,,10,,,,79,0
92877,note_on,25,0,8,,,,,,,,,11,,,,63,0
92877,note_on,25,0,9,,,,,,,,,12,,,,63,0
92877,note_on,31,0,2,,,,,,,,,1,,,,75,0
92877,control_change,2,0,7,,,,,,,,,10,11,43,,,
92878,note_on,31,0,3,,,,,,,,,2,,,,79,0
92878,note_on,0,0,3,,,,,,,,,2,,,,75,0
92878,note_on,31,0,5,,,,,,,,,4,,,,58,0
92879,note_on,25,0,10,,,,,,,,,6,,,,55,0
92880,note_on,31,0,4,,,,,,,,,3,,,,55,0
92880,note_on,0,0,4,,,,,,,,,3,,,,51,0
92880,note_on,3,0,7,,,,,,,,,10,,,,77,71
92880,set_tempo,60,1,0,,,,,,1363636,,,,,,,,
92880,control_change,5,0,1,,,,,,,,,0,11,47,,,
92880,note_on,0,0,1,,,,,,,,,0,,,,77,72
92880,note_on,31,0,6,,,,,,,,,5,,,,46,0
92882,note_on,0,0,2,,,,,,,,,1,,,,70,71
92882,control_change,0,0,2,,,,,,,,,1,11,47,,,
92882,note_on,5,0,2,,,,,,,,,1,,,,70,0
92882,control_change,5,0,9,,,,,,,,,12,11,47,,,
92882,control_change,5,0,8,,,,,,,,,11,11,47,,,
92882,note_on,0,0,9,,,,,,,,,12,,,,62,92
92882,note_on,0,0,2,,,,,,,,,1,,,,74,71
92882,note_on,0,0,8,,,,,,,,,11,,,,65,94
92883,note_on,0,0,3,,,,,,,,,2,,,,74,79
92883,control_change,0,0,3,,,,,,,,,2,11,47,,,
92883,note_on,5,0,3,,,,,,,,,2,,,,77,79
92883,note_on,0,0,5,,,,,,,,,4,,,,58,73
92883,control_change,5,0,5,,,,,,,,,4,11,42,,,
92884,control_change,5,0,10,,,,,,,,,6,11,47,,,
92885,note_on,0,0,4,,,,,,,,,3,,,,53,78
92885,control_change,0,0,4,,,,,,,,,3,11,47,,,
92885,note_on,5,0,6,,,,,,,,,5,,,,46,73
92885,control_change,0,0,6,,,,,,,,,5,11,42,,,
92885,note_on,60,0,11,,,,,,,,,13,,,,46,39
92885,note_on,5,0,4,,,,,,,,,3,,,,50,78
92888,note_on,60,0,12,,,,,,,,,14,,,,34,32
92970,control_change,90,0,1,,,,,,,,,0,11,47,,,
92970,set_tempo,90,1,0,,,,,,1791045,,,,,,,,
92970,control_change,90,0,7,,,,,,,,,10,11,42,,,
92972,control_change,90,0,2,,,,,,,,,1,11,47,,,
92972,control_change,90,0,8,,,,,,,,,11,11,47,,,
92972,control_change,90,0,9,,,,,,,,,12,11,47,,,
92973,control_change,90,0,3,,,,,,,,,2,11,47,,,
92973,control_change,90,0,5,,,,,,,,,4,11,42,,,
92974,control_change,4,0,1,,,,,,,,,0,11,44,,,
92974,control_change,4,0,7,,,,,,,,,10,11,39,,,
92975,control_change,90,0,4,,,,,,,,,3,11,47,,,
92975,control_change,3,0,8,,,,,,,,,11,11,44,,,
92975,control_change,90,0,6,,,,,,,,,5,11,42,,,
92975,control_change,3,0,9,,,,,,,,,12,11,44,,,
92976,control_change,4,0,2,,,,,,,,,1,11,44,,,
92977,control_change,4,0,5,,,,,,,,,4,11,38,,,
92977,control_change,4,0,3,,,,,,,,,2,11,44,,,
92978,control_change,3,0,9,,,,,,,,,12,11,41,,,
92978,control_change,4,0,1,,,,,,,,,0,11,41,,,
92978,control_change,3,0,8,,,,,,,,,11,11,41,,,
92978,control_change,4,0,7,,,,,,,,,10,11,36,,,
92979,control_change,4,0,4,,,,,,,,,3,11,44,,,
92979,control_change,4,0,6,,,,,,,,,5,11,38,,,
92980,control_change,4,0,2,,,,,,,,,1,11,41,,,
92981,control_change,4,0,5,,,,,,,,,4,11,34,,,
92981,control_change,4,0,3,,,,,,,,,2,11,41,,,
92982,control_change,4,0,8,,,,,,,,,11,11,38,,,
92982,control_change,4,0,9,,,,,,,,,12,11,38,,,
92982,control_change,4,0,1,,,,,,,,,0,11,37,,,
92983,control_change,5,0,7,,,,,,,,,10,11,33,,,
92983,control_change,4,0,4,,,,,,,,,3,11,41,,,
92983,control_change,4,0,6,,,,,,,,,5,11,34,,,
92984,control_change,4,0,2,,,,,,,,,1,11,37,,,
92985,control_change,3,0,9,,,,,,,,,12,11,35,,,
92985,control_change,3,0,8,,,,,,,,,11,11,35,,,
92985,control_change,4,0,3,,,,,,,,,2,11,37,,,
92985,control_change,4,0,5,,,,,,,,,4,11,30,,,
92987,control_change,4,0,6,,,,,,,,,5,11,30,,,
92987,control_change,5,0,1,,,,,,,,,0,11,34,,,
92987,control_change,4,0,4,,,,,,,,,3,11,37,,,
92987,control_change,4,0,7,,,,,,,,,10,11,30,,,
92989,control_change,5,0,2,,,,,,,,,1,11,34,,,
92989,control_change,4,0,8,,,,,,,,,11,11,32,,,
92989,control_change,2,0,1,,,,,,,,,0,11,14,,,
92989,control_change,4,0,9,,,,,,,,,12,11,32,,,
92990,control_change,5,0,3,,,,,,,,,2,11,34,,,
92990,control_change,5,0,5,,,,,,,,,4,11,26,,,
92991,control_change,4,0,7,,,,,,,,,10,11,27,,,
92991,control_change,2,0,2,,,,,,,,,1,11,14,,,
92992,control_change,3,0,8,,,,,,,,,11,11,29,,,
92992,control_change,2,0,3,,,,,,,,,2,11,14,,,
92992,control_change,5,0,4,,,,,,,,,3,11,34,,,
92992,control_change,5,0,6,,,,,,,,,5,11,26,,,
92992,control_change,3,0,9,,,,,,,,,12,11,29,,,
92993,control_change,4,0,1,,,,,,,,,0,11,10,,,
92994,control_change,2,0,4,,,,,,,,,3,11,14,,,
92994,control_change,4,0,5,,,,,,,,,4,11,22,,,
92995,control_change,4,0,2,,,,,,,,,1,11,10,,,
92996,control_change,4,0,8,,,,,,,,,11,11,26,,,
92996,control_change,5,0,7,,,,,,,,,10,11,24,,,
92996,control_change,4,0,3,,,,,,,,,2,11,10,,,
92996,control_change,4,0,6,,,,,,,,,5,11,22,,,
92996,control_change,4,0,9,,,,,,,,,12,11,26,,,
92997,control_change,4,0,1,,,,,,,,,0,11,6,,,
92998,control_change,4,0,5,,,,,,,,,4,11,18,,,
92998,control_change,4,0,4,,,,,,,,,3,11,10,,,
92999,control_change,4,0,2,,,,,,,,,1,11,6,,,
92999,control_change,3,0,8,,,,,,,,,11,11,23,,,
92999,control_change,3,0,9,,,,,,,,,12,11,23,,,
93000,note_on,3,0,1,,,,,,,,,0,,,,77,0
93000,control_change,4,0,6,,,,,,,,,5,11,18,,,
93000,set_tempo,30,1,0,,,,,,1176471,,,,,,,,
93000,control_change,4,0,3,,,,,,,,,2,11,6,,,
93000,note_on,4,0,7,,,,,,,,,10,,,,77,0
93002,control_change,4,0,4,,,,,,,,,3,11,6,,,
93002,note_on,3,0,8,,,,,,,,,11,,,,65,0
93002,note_on,3,0,2,,,,,,,,,1,,,,74,0
93002,note_on,0,0,2,,,,,,,,,1,,,,70,0
93002,note_on,3,0,9,,,,,,,,,12,,,,62,0
93003,note_on,5,0,5,,,,,,,,,4,,,,58,0
93003,note_on,0,0,3,,,,,,,,,2,,,,77,0
93003,note_on,3,0,3,,,,,,,,,2,,,,74,0
93005,note_on,0,0,4,,,,,,,,,3,,,,50,0
93005,note_on,3,0,4,,,,,,,,,3,,,,53,0
93005,note_on,120,0,11,,,,,,,,,13,,,,46,0
93005,note_on,5,0,6,,,,,,,,,5,,,,46,0
93008,note_on,120,0,12,,,,,,,,,14,,,,34,0
93180,note_on,0,0,1,,,,,,,,,0,,,,77,88
93180,control_change,180,0,1,,,,,,,,,0,11,35,,,
93180,set_tempo,180,1,0,,,,,,937500,,,,,,,,
93186,control_change,6,0,1,,,,,,,,,0,11,38,,,
93193,control_change,7,0,1,,,,,,,,,0,11,41,,,
93200,control_change,7,0,1,,,,,,,,,0,11,44,,,
93207,control_change,7,0,1,,,,,,,,,0,11,47,,,
93270,control_change,63,0,1,,,,,,,,,0,11,48,,,
93276,control_change,6,0,1,,,,,,,,,0,11,45,,,
93283,control_change,7,0,1,,,,,,,,,0,11,42,,,
93290,control_change,7,0,1,,,,,,,,,0,11,39,,,
93296,control_change,6,0,1,,,,,,,,,0,11,36,,,
93300,note_on,4,0,1,,,,,,,,,0,,,,77,0
93360,note_on,0,0,1,,,,,,,,,0,,,,77,88
93360,control_change,60,0,1,,,,,,,,,0,11,35,,,
93366,control_change,6,0,1,,,,,,,,,0,11,38,,,
93372,control_change,6,0,1,,,,,,,,,0,11,41,,,
93379,control_change,7,0,1,,,,,,,,,0,11,44,,,
93385,control_change,6,0,1,,,,,,,,,0,11,47,,,
93450,control_change,65,0,1,,,,,,,,,0,11,49,,,
93457,control_change,7,0,1,,,,,,,,,0,11,46,,,
93464,control_change,7,0,1,,,,,,,,,0,11,43,,,
93471,control_change,7,0,1,,,,,,,,,0,11,40,,,
93479,control_change,8,0,1,,,,,,,,,0,11,37,,,
93480,note_on,1,0,1,,,,,,,,,0,,,,77,0
93540,control_change,60,0,1,,,,,,,,,0,11,37,,,
93540,note_on,0,0,1,,,,,,,,,0,,,,77,96
93545,control_change,5,0,1,,,,,,,,,0,11,40,,,
93551,control_change,6,0,1,,,,,,,,,0,11,43,,,
93557,control_change,6,0,1,,,,,,,,,0,11,46,,,
93563,control_change,6,0,1,,,,,,,,,0,11,49,,,
93569,control_change,6,0,1,,,,,,,,,0,11,52,,,
93600,note_on,31,0,1,,,,,,,,,0,,,,77,0
93600,note_on,0,0,1,,,,,,,,,0,,,,79,101
93600,set_tempo,420,1,0,,,,,,1034483,,,,,,,,
93636,control_change,36,0,1,,,,,,,,,0,11,50,,,
93660,note_on,0,0,1,,,,,,,,,0,,,,77,76
93660,note_on,24,0,1,,,,,,,,,0,,,,79,0
93720,note_on,60,0,1,,,,,,,,,0,,,,77,0
93780,note_on,60,0,1,,,,,,,,,0,,,,79,101
93788,control_change,8,0,1,,,,,,,,,0,11,51,,,
93840,note_on,0,0,1,,,,,,,,,0,,,,77,76
93840,note_on,52,0,1,,,,,,,,,0,,,,79,0
93900,note_on,60,0,1,,,,,,,,,0,,,,77,0
93940,control_change,40,0,1,,,,,,,,,0,11,52,,,
93960,note_on,20,0,1,,,,,,,,,0,,,,79,101
94020,note_on,0,0,1,,,,,,,,,0,,,,77,76
94020,note_on,60,0,1,,,,,,,,,0,,,,79,0
94080,note_on,60,0,1,,,,,,,,,0,,,,77,0
94080,note_on,0,0,1,,,,,,,,,0,,,,79,103
94080,set_tempo,480,1,0,,,,,,1200000,,,,,,,,
94085,set_tempo,5,1,0,,,,,,1188119,,,,,,,,
94090,set_tempo,5,1,0,,,,,,1176471,,,,,,,,
94092,control_change,12,0,1,,,,,,,,,0,11,52,,,
94095,set_tempo,5,1,0,,,,,,1165049,,,,,,,,
94100,set_tempo,5,1,0,,,,,,1142857,,,,,,,,
94105,set_tempo,5,1,0,,,,,,1132075,,,,,,,,
94110,note_on,18,0,1,,,,,,,,,0,,,,79,0
94110,set_tempo,5,1,0,,,,,,1121495,,,,,,,,
94110,note_on,0,0,1,,,,,,,,,0,,,,77,76
94115,set_tempo,5,1,0,,,,,,1100917,,,,,,,,
94120,set_tempo,5,1,0,,,,,,1090909,,,,,,,,
94125,set_tempo,5,1,0,,,,,,1081081,,,,,,,,
94130,set_tempo,5,1,0,,,,,,1071429,,,,,,,,
94135,set_tempo,5,1,0,,,,,,1052632,,,,,,,,
94140,set_tempo,5,1,0,,,,,,1043478,,,,,,,,
94140,note_on,0,0,1,,,,,,,,,0,,,,79,103
94140,note_on,30,0,1,,,,,,,,,0,,,,77,0
94145,set_tempo,5,1,0,,,,,,1034483,,,,,,,,
94150,set_tempo,5,1,0,,,,,,1016949,,,,,,,,
94155,set_tempo,5,1,0,,,,,,1008403,,,,,,,,
94160,set_tempo,5,1,0,,,,,,1000000,,,,,,,,
94165,set_tempo,5,1,0,,,,,,991736,,,,,,,,
94168,control_change,28,0,1,,,,,,,,,0,11,53,,,
94170,set_tempo,5,1,0,,,,,,975610,,,,,,,,
94170,note_on,0,0,1,,,,,,,,,0,,,,77,76
94170,note_on,2,0,1,,,,,,,,,0,,,,79,0
94175,set_tempo,5,1,0,,,,,,967742,,,,,,,,
94180,set_tempo,5,1,0,,,,,,960000,,,,,,,,
94185,set_tempo,5,1,0,,,,,,944882,,,,,,,,
94190,set_tempo,5,1,0,,,,,,937500,,,,,,,,
94195,set_tempo,5,1,0,,,,,,930233,,,,,,,,
94200,note_on,30,0,1,,,,,,,,,0,,,,77,0
94200,note_on,0,0,1,,,,,,,,,0,,,,79,103
94200,set_tempo,5,1,0,,,,,,916031,,,,,,,,
94205,set_tempo,5,1,0,,,,,,909091,,,,,,,,
94210,set_tempo,5,1,0,,,,,,902256,,,,,,,,
94215,set_tempo,5,1,0,,,,,,895522,,,,,,,,
94220,set_tempo,5,1,0,,,,,,882353,,,,,,,,
94225,set_tempo,5,1,0,,,,,,875912,,,,,,,,
94230,note_on,30,0,1,,,,,,,,,0,,,,79,0
94230,set_tempo,5,1,0,,,,,,869565,,,,,,,,
94230,note_on,0,0,1,,,,,,,,,0,,,,77,76
94235,set_tempo,5,1,0,,,,,,857143,,,,,,,,
94240,set_tempo,5,1,0,,,,,,851064,,,,,,,,
94244,control_change,14,0,1,,,,,,,,,0,11,54,,,
94245,set_tempo,5,1,0,,,,,,845070,,,,,,,,
94250,set_tempo,5,1,0,,,,,,839161,,,,,,,,
94255,set_tempo,5,1,0,,,,,,827586,,,,,,,,
94260,note_on,16,0,1,,,,,,,,,0,,,,77,0
94260,note_on,0,0,1,,,,,,,,,0,,,,79,103
94260,set_tempo,5,1,0,,,,,,821918,,,,,,,,
94262,control_change,0,0,2,,,,,,,,,1,11,35,,,
94262,note_on,1260,0,2,,,,,,,,,1,,,,86,95
94265,set_tempo,5,1,0,,,,,,816327,,,,,,,,
94270,set_tempo,5,1,0,,,,,,805369,,,,,,,,
94275,set_tempo,5,1,0,,,,,,800000,,,,,,,,
94280,set_tempo,5,1,0,,,,,,794702,,,,,,,,
94285,set_tempo,5,1,0,,,,,,789474,,,,,,,,
94290,set_tempo,5,1,0,,,,,,779221,,,,,,,,
94290,note_on,0,0,1,,,,,,,,,0,,,,77,76
94290,note_on,30,0,1,,,,,,,,,0,,,,79,0
94295,set_tempo,5,1,0,,,,,,774194,,,,,,,,
94297,note_on,35,0,2,,,,,,,,,1,,,,86,0
94304,note_on,7,0,2,,,,,,,,,1,,,,86,104
94314,note_on,10,0,2,,,,,,,,,1,,,,86,0
94320,note_on,0,0,1,,,,,,,,,0,,,,79,88
94320,set_tempo,25,1,0,,,,,,1043478,,,,,,,,
94320,control_change,0,0,1,,,,,,,,,0,11,55,,,
94320,note_on,30,0,1,,,,,,,,,0,,,,77,0
94322,note_on,8,0,2,,,,,,,,,1,,,,86,95
94323,control_change,1320,0,3,,,,,,,,,2,11,55,,,
94323,note_on,0,0,3,,,,,,,,,2,,,,74,111
94335,note_on,0,0,1,,,,,,,,,0,,,,77,88
94335,note_on,15,0,1,,,,,,,,,0,,,,79,0
94350,note_on,0,0,1,,,,,,,,,0,,,,79,88
94350,note_on,15,0,1,,,,,,,,,0,,,,77,0
94363,note_on,40,0,3,,,,,,,,,2,,,,74,0
94365,note_on,15,0,1,,,,,,,,,0,,,,79,0
94365,note_on,0,0,1,,,,,,,,,0,,,,77,88
94377,note_on,55,0,2,,,,,,,,,1,,,,86,0
94380,note_on,0,0,1,,,,,,,,,0,,,,79,88
94380,note_on,15,0,1,,,,,,,,,0,,,,77,0
94383,note_on,20,0,3,,,,,,,,,2,,,,70,96
94392,note_on,0,0,1,,,,,,,,,0,,,,77,88
94392,note_on,12,0,1,,,,,,,,,0,,,,79,0
94395,set_tempo,75,1,0,,,,,,1052632,,,,,,,,
94402,set_tempo,7,1,0,,,,,,1050788,,,,,,,,
94404,note_on,12,0,1,,,,,,,,,0,,,,77,0
94404,note_on,0,0,1,,,,,,,,,0,,,,79,88
94410,set_tempo,8,1,0,,,,,,1048951,,,,,,,,
94416,note_on,0,0,1,,,,,,,,,0,,,,77,88
94416,note_on,12,0,1,,,,,,,,,0,,,,79,0
94417,set_tempo,7,1,0,,,,,,1047120,,,,,,,,
94422,set_tempo,5,1,0,,,,,,1045296,,,,,,,,
94423,note_on,40,0,3,,,,,,,,,2,,,,70,0
94428,note_on,0,0,1,,,,,,,,,0,,,,79,88
94428,note_on,12,0,1,,,,,,,,,0,,,,77,0
94430,set_tempo,8,1,0,,,,,,1043478,,,,,,,,
94437,set_tempo,7,1,0,,,,,,1041667,,,,,,,,
94440,note_on,12,0,1,,,,,,,,,0,,,,79,0
94440,note_on,0,0,1,,,,,,,,,0,,,,77,88
94445,set_tempo,8,1,0,,,,,,1039861,,,,,,,,
94452,note_on,12,0,1,,,,,,,,,0,,,,77,0
94452,note_on,0,0,1,,,,,,,,,0,,,,79,88
94452,set_tempo,7,1,0,,,,,,1038062,,,,,,,,
94460,set_tempo,8,1,0,,,,,,1036269,,,,,,,,
94464,note_on,12,0,1,,,,,,,,,0,,,,79,0
94464,note_on,0,0,1,,,,,,,,,0,,,,77,88
94467,set_tempo,7,1,0,,,,,,1034483,,,,,,,,
94475,set_tempo,8,1,0,,,,,,1032702,,,,,,,,
94476,note_on,0,0,1,,,,,,,,,0,,,,79,88
94476,note_on,12,0,1,,,,,,,,,0,,,,77,0
94482,set_tempo,7,1,0,,,,,,1030928,,,,,,,,
94488,note_on,0,0,1,,,,,,,,,0,,,,77,88
94488,note_on,12,0,1,,,,,,,,,0,,,,79,0
94490,set_tempo,8,1,0,,,,,,1029160,,,,,,,,
94497,set_tempo,7,1,0,,,,,,1027397,,,,,,,,
94500,note_on,0,0,1,,,,,,,,,0,,,,79,88
94500,note_on,12,0,1,,,,,,,,,0,,,,77,0
94505,set_tempo,8,1,0,,,,,,1025641,,,,,,,,
94510,note_on,0,0,1,,,,,,,,,0,,,,77,88
94510,note_on,10,0,1,,,,,,,,,0,,,,79,0
94512,set_tempo,7,1,0,,,,,,1023891,,,,,,,,
94520,set_tempo,8,1,0,,,,,,1022147,,,,,,,,
94520,note_on,0,0,1,,,,,,,,,0,,,,79,88
94520,note_on,10,0,1,,,,,,,,,0,,,,77,0
94525,set_tempo,5,1,0,,,,,,1020408,,,,,,,,
94530,note_on,10,0,1,,,,,,,,,0,,,,79,0
94530,note_on,0,0,1,,,,,,,,,0,,,,77,88
94532,set_tempo,7,1,0,,,,,,1018676,,,,,,,,
94540,set_tempo,8,1,0,,,,,,1016949,,,,,,,,
94540,note_on,10,0,1,,,,,,,,,0,,,,77,0
94540,note_on,0,0,1,,,,,,,,,0,,,,79,88
94547,set_tempo,7,1,0,,,,,,1015228,,,,,,,,
94550,note_on,10,0,1,,,,,,,,,0,,,,79,0
94550,note_on,0,0,1,,,,,,,,,0,,,,77,88
94555,set_tempo,8,1,0,,,,,,1013514,,,,,,,,
94560,note_on,10,0,1,,,,,,,,,0,,,,77,0
94560,note_on,0,0,1,,,,,,,,,0,,,,79,88
94562,set_tempo,7,1,0,,,,,,1011804,,,,,,,,
94570,note_on,0,0,1,,,,,,,,,0,,,,77,88
94570,set_tempo,8,1,0,,,,,,1010101,,,,,,,,
94570,note_on,10,0,1,,,,,,,,,0,,,,79,0
94577,set_tempo,7,1,0,,,,,,1008403,,,,,,,,
94580,note_on,0,0,1,,,,,,,,,0,,,,79,88
94580,note_on,10,0,1,,,,,,,,,0,,,,77,0
94585,set_tempo,8,1,0,,,,,,1006711,,,,,,,,
94590,note_on,10,0,1,,,,,,,,,0,,,,79,0
94590,note_on,0,0,1,,,,,,,,,0,,,,77,88
94592,set_tempo,7,1,0,,,,,,1005025,,,,,,,,
94600,set_tempo,8,1,0,,,,,,1003344,,,,,,,,
94600,note_on,0,0,1,,,,,,,,,0,,,,79,88
94600,note_on,10,0,1,,,,,,,,,0,,,,77,0
94607,set_tempo,7,1,0,,,,,,1001669,,,,,,,,
94610,note_on,0,0,1,,,,,,,,,0,,,,77,88
94610,note_on,10,0,1,,,,,,,,,0,,,,79,0
94615,set_tempo,8,1,0,,,,,,1000000,,,,,,,,
94620,note_on,10,0,1,,,,,,,,,0,,,,77,0
94620,note_on,0,0,1,,,,,,,,,0,,,,79,88
94620,set_tempo,5,1,0,,,,,,998336,,,,,,,,
94622,note_on,245,0,2,,,,,,,,,1,,,,86,95
94627,set_tempo,7,1,0,,,,,,998336,,,,,,,,
94630,note_on,10,0,1,,,,,,,,,0,,,,79,0
94630,note_on,0,0,1,,,,,,,,,0,,,,77,88
94635,set_tempo,8,1,0,,,,,,996678,,,,,,,,
94640,note_on,0,0,1,,,,,,,,,0,,,,79,88
94640,note_on,10,0,1,,,,,,,,,0,,,,77,0
94642,set_tempo,7,1,0,,,,,,995025,,,,,,,,
94650,note_on,10,0,1,,,,,,,,,0,,,,79,0
94650,note_on,0,0,1,,,,,,,,,0,,,,77,88
94650,set_tempo,8,1,0,,,,,,993377,,,,,,,,
94657,set_tempo,7,1,0,,,,,,991736,,,,,,,,
94657,note_on,35,0,2,,,,,,,,,1,,,,86,0
94660,note_on,10,0,1,,,,,,,,,0,,,,77,0
94660,note_on,0,0,1,,,,,,,,,0,,,,79,88
94664,note_on,7,0,2,,,,,,,,,1,,,,86,104
94665,set_tempo,8,1,0,,,,,,990099,,,,,,,,
94670,note_on,10,0,1,,,,,,,,,0,,,,79,0
94670,note_on,0,0,1,,,,,,,,,0,,,,77,88
94672,set_tempo,7,1,0,,,,,,988468,,,,,,,,
94674,note_on,10,0,2,,,,,,,,,1,,,,86,0
94680,set_tempo,8,1,0,,,,,,986842,,,,,,,,
94680,note_on,10,0,1,,,,,,,,,0,,,,77,0
94680,note_on,0,0,1,,,,,,,,,0,,,,79,88
94682,note_on,8,0,2,,,,,,,,,1,,,,86,95
94683,note_on,260,0,3,,,,,,,,,2,,,,74,111
94687,set_tempo,7,1,0,,,,,,985222,,,,,,,,
94690,note_on,10,0,1,,,,,,,,,0,,,,79,0
94690,note_on,0,0,1,,,,,,,,,0,,,,77,88
94695,set_tempo,8,1,0,,,,,,983607,,,,,,,,
94700,note_on,10,0,1,,,,,,,,,0,,,,77,0
94700,note_on,0,0,1,,,,,,,,,0,,,,79,88
94702,set_tempo,7,1,0,,,,,,981997,,,,,,,,
94710,note_on,10,0,1,,,,,,,,,0,,,,79,0
94710,note_on,0,0,1,,,,,,,,,0,,,,77,88
94710,set_tempo,8,1,0,,,,,,980392,,,,,,,,
94717,set_tempo,7,1,0,,,,,,978793,,,,,,,,
94720,note_on,0,0,1,,,,,,,,,0,,,,79,88
94720,note_on,10,0,1,,,,,,,,,0,,,,77,0
94723,note_on,40,0,3,,,,,,,,,2,,,,74,0
94725,set_tempo,8,1,0,,,,,,977199,,,,,,,,
94730,note_on,10,0,1,,,,,,,,,0,,,,79,0
94730,note_on,0,0,1,,,,,,,,,0,,,,77,88
94732,set_tempo,7,1,0,,,,,,975610,,,,,,,,
94737,note_on,55,0,2,,,,,,,,,1,,,,86,0
94740,note_on,10,0,1,,,,,,,,,0,,,,77,0
94740,note_on,0,0,1,,,,,,,,,0,,,,79,88
94740,set_tempo,8,1,0,,,,,,974026,,,,,,,,
94743,note_on,20,0,3,,,,,,,,,2,,,,70,96
94747,set_tempo,7,1,0,,,,,,972447,,,,,,,,
94750,note_on,10,0,1,,,,,,,,,0,,,,79,0
94750,note_on,0,0,1,,,,,,,,,0,,,,77,88
94755,set_tempo,8,1,0,,,,,,970874,,,,,,,,
94760,note_on,0,0,1,,,,,,,,,0,,,,79,88
94760,note_on,10,0,1,,,,,,,,,0,,,,77,0
94762,set_tempo,7,1,0,,,,,,969305,,,,,,,,
94770,set_tempo,8,1,0,,,,,,967742,,,,,,,,
94770,note_on,10,0,1,,,,,,,,,0,,,,79,0
94770,note_on,0,0,1,,,,,,,,,0,,,,77,88
94777,set_tempo,7,1,0,,,,,,966184,,,,,,,,
94780,note_on,0,0,1,,,,,,,,,0,,,,79,88
94780,note_on,10,0,1,,,,,,,,,0,,,,77,0
94783,note_on,40,0,3,,,,,,,,,2,,,,70,0
94785,set_tempo,8,1,0,,,,,,964630,,,,,,,,
94790,note_on,0,0,1,,,,,,,,,0,,,,77,88
94790,note_on,10,0,1,,,,,,,,,0,,,,79,0
94792,set_tempo,7,1,0,,,,,,963082,,,,,,,,
94800,set_tempo,8,1,0,,,,,,961538,,,,,,,,
94800,note_on,0,0,1,,,,,,,,,0,,,,79,88
94800,note_on,10,0,1,,,,,,,,,0,,,,77,0
94807,set_tempo,7,1,0,,,,,,960000,,,,,,,,
94810,note_on,10,0,1,,,,,,,,,0,,,,79,0
94810,note_on,0,0,1,,,,,,,,,0,,,,77,88
94815,set_tempo,8,1,0,,,,,,958466,,,,,,,,
94820,note_on,10,0,1,,,,,,,,,0,,,,77,0
94820,note_on,0,0,1,,,,,,,,,0,,,,79,88
94822,set_tempo,7,1,0,,,,,,956938,,,,,,,,
94830,note_on,10,0,1,,,,,,,,,0,,,,79,0
94830,note_on,0,0,1,,,,,,,,,0,,,,77,88
94830,set_tempo,8,1,0,,,,,,955414,,,,,,,,
94837,set_tempo,7,1,0,,,,,,953895,,,,,,,,
94840,note_on,0,0,1,,,,,,,,,0,,,,79,88
94840,note_on,10,0,1,,,,,,,,,0,,,,77,0
94845,set_tempo,8,1,0,,,,,,952381,,,,,,,,
94850,note_on,10,0,1,,,,,,,,,0,,,,79,0
94850,note_on,0,0,1,,,,,,,,,0,,,,77,88
94852,set_tempo,7,1,0,,,,,,950872,,,,,,,,
94860,note_on,0,0,1,,,,,,,,,0,,,,79,88
94860,note_on,10,0,1,,,,,,,,,0,,,,77,0
94860,set_tempo,8,1,0,,,,,,949367,,,,,,,,
94867,set_tempo,7,1,0,,,,,,947867,,,,,,,,
94870,note_on,0,0,1,,,,,,,,,0,,,,77,88
94870,note_on,10,0,1,,,,,,,,,0,,,,79,0
94875,set_tempo,8,1,0,,,,,,946372,,,,,,,,
94880,note_on,0,0,1,,,,,,,,,0,,,,79,88
94880,note_on,10,0,1,,,,,,,,,0,,,,77,0
94882,set_tempo,7,1,0,,,,,,944882,,,,,,,,
94890,note_on,0,0,1,,,,,,,,,0,,,,77,88
94890,set_tempo,8,1,0,,,,,,943396,,,,,,,,
94890,note_on,10,0,1,,,,,,,,,0,,,,79,0
94897,set_tempo,7,1,0,,,,,,941915,,,,,,,,
94900,note_on,10,0,1,,,,,,,,,0,,,,77,0
94900,note_on,0,0,1,,,,,,,,,0,,,,79,88
94905,set_tempo,8,1,0,,,,,,940439,,,,,,,,
94910,note_on,0,0,1,,,,,,,,,0,,,,77,88
94910,note_on,10,0,1,,,,,,,,,0,,,,79,0
94912,set_tempo,7,1,0,,,,,,938967,,,,,,,,
94920,note_on,10,0,1,,,,,,,,,0,,,,77,0
94920,note_on,0,0,1,,,,,,,,,0,,,,79,88
94920,set_tempo,8,1,0,,,,,,937500,,,,,,,,
94930,note_on,0,0,1,,,,,,,,,0,,,,77,88
94930,note_on,10,0,1,,,,,,,,,0,,,,79,0
94940,note_on,0,0,1,,,,,,,,,0,,,,79,88
94940,note_on,10,0,1,,,,,,,,,0,,,,77,0
94950,note_on,10,0,1,,,,,,,,,0,,,,79,0
94950,note_on,0,0,1,,,,,,,,,0,,,,77,88
94960,note_on,10,0,1,,,,,,,,,0,,,,77,0
94960,note_on,0,0,1,,,,,,,,,0,,,,79,88
94970,note_on,10,0,1,,,,,,,,,0,,,,79,0
94970,note_on,0,0,1,,,,,,,,,0,,,,77,88
94980,note_on,10,0,1,,,,,,,,,0,,,,77,0
94980,note_on,0,0,1,,,,,,,,,0,,,,79,88
94982,note_on,245,0,2,,,,,,,,,1,,,,86,95
94990,note_on,10,0,1,,,,,,,,,0,,,,79,0
94990,note_on,0,0,1,,,,,,,,,0,,,,77,88
95000,note_on,10,0,1,,,,,,,,,0,,,,77,0
95000,note_on,0,0,1,,,,,,,,,0,,,,79,88
95010,note_on,0,0,1,,,,,,,,,0,,,,77,88
95010,note_on,10,0,1,,,,,,,,,0,,,,79,0
95017,note_on,35,0,2,,,,,,,,,1,,,,86,0
95020,note_on,10,0,1,,,,,,,,,0,,,,77,0
95020,note_on,0,0,1,,,,,,,,,0,,,,79,88
95024,note_on,7,0,2,,,,,,,,,1,,,,86,104
95030,note_on,10,0,1,,,,,,,,,0,,,,79,0
95030,note_on,0,0,1,,,,,,,,,0,,,,77,88
95034,note_on,10,0,2,,,,,,,,,1,,,,86,0
95040,note_on,10,0,1,,,,,,,,,0,,,,77,0
95040,note_on,0,0,1,,,,,,,,,0,,,,79,88
95040,set_tempo,120,1,0,,,,,,1034483,,,,,,,,
95042,note_on,8,0,2,,,,,,,,,1,,,,86,95
95043,note_on,260,0,3,,,,,,,,,2,,,,74,111
95050,note_on,0,0,1,,,,,,,,,0,,,,77,88
95050,note_on,10,0,1,,,,,,,,,0,,,,79,0
95060,note_on,10,0,1,,,,,,,,,0,,,,77,0
95060,note_on,0,0,1,,,,,,,,,0,,,,79,88
95070,note_on,10,0,1,,,,,,,,,0,,,,79,0
95070,note_on,0,0,1,,,,,,,,,0,,,,77,88
95080,note_on,10,0,1,,,,,,,,,0,,,,77,0
95080,note_on,0,0,1,,,,,,,,,0,,,,79,88
95083,note_on,40,0,3,,,,,,,,,2,,,,74,0
95090,note_on,10,0,1,,,,,,,,,0,,,,79,0
95090,note_on,0,0,1,,,,,,,,,0,,,,77,88
95097,note_on,55,0,2,,,,,,,,,1,,,,86,0
95100,note_on,0,0,1,,,,,,,,,0,,,,79,88
95100,note_on,10,0,1,,,,,,,,,0,,,,77,0
95103,note_on,20,0,3,,,,,,,,,2,,,,70,96
95110,note_on,10,0,1,,,,,,,,,0,,,,79,0
95110,note_on,0,0,1,,,,,,,,,0,,,,77,88
95120,note_on,10,0,1,,,,,,,,,0,,,,77,0
95120,note_on,0,0,1,,,,,,,,,0,,,,79,88
95130,note_on,10,0,1,,,,,,,,,0,,,,79,0
95130,note_on,0,0,1,,,,,,,,,0,,,,77,88
95140,note_on,10,0,1,,,,,,,,,0,,,,77,0
95140,note_on,0,0,1,,,,,,,,,0,,,,79,88
95143,note_on,40,0,3,,,,,,,,,2,,,,70,0
95150,note_on,0,0,1,,,,,,,,,0,,,,77,88
95150,note_on,10,0,1,,,,,,,,,0,,,,79,0
95160,note_on,0,0,1,,,,,,,,,0,,,,79,88
95160,note_on,10,0,1,,,,,,,,,0,,,,77,0
95162,note_on,65,0,2,,,,,,,,,1,,,,86,95
95170,note_on,10,0,1,,,,,,,,,0,,,,79,0
95170,note_on,0,0,1,,,,,,,,,0,,,,77,88
95180,note_on,10,0,1,,,,,,,,,0,,,,77,0
95180,note_on,0,0,1,,,,,,,,,0,,,,79,88
95190,note_on,10,0,1,,,,,,,,,0,,,,79,0
95190,note_on,0,0,1,,,,,,,,,0,,,,77,88
95197,note_on,35,0,2,,,,,,,,,1,,,,86,0
95200,note_on,10,0,1,,,,,,,,,0,,,,77,0
95200,note_on,0,0,1,,,,,,,,,0,,,,79,88
95204,note_on,7,0,2,,,,,,,,,1,,,,86,104
95210,note_on,0,0,1,,,,,,,,,0,,,,77,88
95210,note_on,10,0,1,,,,,,,,,0,,,,79,0
95214,note_on,10,0,2,,,,,,,,,1,,,,86,0
95220,note_on,0,0,1,,,,,,,,,0,,,,79,88
95220,note_on,10,0,1,,,,,,,,,0,,,,77,0
95222,note_on,8,0,2,,,,,,,,,1,,,,86,95
95223,note_on,80,0,3,,,,,,,,,2,,,,74,111
95230,note_on,10,0,1,,,,,,,,,0,,,,79,0
95230,note_on,0,0,1,,,,,,,,,0,,,,77,88
95240,note_on,10,0,1,,,,,,,,,0,,,,77,0
95250,note_on,10,0,1,,,,,,,,,0,,,,76,88
95263,note_on,40,0,3,,,,,,,,,2,,,,74,0
95277,note_on,55,0,2,,,,,,,,,1,,,,86,0
95280,note_on,30,0,1,,,,,,,,,0,,,,76,0
95280,note_on,0,0,1,,,,,,,,,0,,,,77,60
95283,note_on,20,0,3,,,,,,,,,2,,,,70,66
95310,set_tempo,270,1,0,,,,,,3157895,,,,,,,,
95315,note_on,35,0,1,,,,,,,,,0,,,,77,0
95318,note_on,35,0,3,,,,,,,,,2,,,,70,0
95340,set_tempo,30,1,0,,,,,,937500,,,,,,,,
95340,control_change,2340,0,7,,,,,,,,,10,11,37,,,
95340,note_on,0,0,7,,,,,,,,,10,,,,70,95
95358,control_change,18,0,7,,,,,,,,,10,11,40,,,
95376,control_change,18,0,7,,,,,,,,,10,11,43,,,
95394,control_change,18,0,7,,,,,,,,,10,11,46,,,
95395,note_on,1,0,7,,,,,,,,,10,,,,70,0
95400,note_on,5,0,7,,,,,,,,,10,,,,70,103
95402,control_change,2400,0,8,,,,,,,,,11,11,22,,,
95402,note_on,0,0,9,,,,,,,,,12,,,,51,101
95402,control_change,2400,0,9,,,,,,,,,12,11,22,,,
95402,note_on,0,0,8,,,,,,,,,11,,,,63,103
95402,note_on,0,0,8,,,,,,,,,11,,,,60,103
95403,note_on,0,0,5,,,,,,,,,4,,,,60,82
95403,control_change,2400,0,5,,,,,,,,,4,11,32,,,
95404,program_change,2399,0,11,,,,,,,,48,13,,,,,
95405,control_change,1,0,11,,,,,,,,,13,11,22,,,
95405,note_on,0,0,11,,,,,,,,,13,,,,41,100
95405,note_on,0,0,6,,,,,,,,,5,,,,53,82
95405,control_change,2400,0,6,,,,,,,,,5,11,32,,,
95407,program_change,2399,0,12,,,,,,,,48,14,,,,,
95408,control_change,1,0,12,,,,,,,,,14,11,22,,,
95408,note_on,0,0,12,,,,,,,,,14,,,,29,96
95411,control_change,9,0,9,,,,,,,,,12,11,25,,,
95411,control_change,9,0,8,,,,,,,,,11,11,25,,,
95414,control_change,9,0,11,,,,,,,,,13,11,25,,,
95415,note_on,15,0,7,,,,,,,,,10,,,,70,0
95415,note_on,0,0,7,,,,,,,,,10,,,,69,103
95417,control_change,9,0,12,,,,,,,,,14,11,25,,,
95420,control_change,9,0,8,,,,,,,,,11,11,28,,,
95420,control_change,9,0,9,,,,,,,,,12,11,28,,,
95421,control_change,18,0,5,,,,,,,,,4,11,35,,,
95423,control_change,9,0,11,,,,,,,,,13,11,28,,,
95423,control_change,18,0,6,,,,,,,,,5,11,35,,,
95426,control_change,9,0,12,,,,,,,,,14,11,28,,,
95429,control_change,9,0,9,,,,,,,,,12,11,31,,,
95429,control_change,9,0,8,,,,,,,,,11,11,31,,,
95432,control_change,9,0,11,,,,,,,,,13,11,31,,,
95435,control_change,9,0,12,,,,,,,,,14,11,31,,,
95438,control_change,9,0,9,,,,,,,,,12,11,34,,,
95438,control_change,9,0,8,,,,,,,,,11,11,34,,,
95439,control_change,18,0,5,,,,,,,,,4,11,38,,,
95441,control_change,9,0,11,,,,,,,,,13,11,34,,,
95441,control_change,18,0,6,,,,,,,,,5,11,38,,,
95444,control_change,9,0,12,,,,,,,,,14,11,34,,,
95447,control_change,9,0,8,,,,,,,,,11,11,37,,,
95447,control_change,9,0,9,,,,,,,,,12,11,37,,,
95450,control_change,9,0,11,,,,,,,,,13,11,37,,,
95453,control_change,9,0,12,,,,,,,,,14,11,37,,,
95456,control_change,9,0,9,,,,,,,,,12,11,40,,,
95456,control_change,9,0,8,,,,,,,,,11,11,40,,,
95457,control_change,18,0,5,,,,,,,,,4,11,41,,,
95459,control_change,9,0,11,,,,,,,,,13,11,40,,,
95459,control_change,18,0,6,,,,,,,,,5,11,41,,,
95460,set_tempo,120,1,0,,,,,,1034483,,,,,,,,
95460,note_on,0,0,7,,,,,,,,,10,,,,67,103
95460,note_on,45,0,7,,,,,,,,,10,,,,69,0
95462,control_change,9,0,12,,,,,,,,,14,11,40,,,
95474,control_change,18,0,9,,,,,,,,,12,11,43,,,
95474,control_change,18,0,8,,,,,,,,,11,11,43,,,
95477,control_change,18,0,11,,,,,,,,,13,11,43,,,
95480,control_change,18,0,12,,,,,,,,,14,11,43,,,
95498,control_change,24,0,8,,,,,,,,,11,11,45,,,
95498,control_change,24,0,9,,,,,,,,,12,11,45,,,
95501,control_change,24,0,11,,,,,,,,,13,11,45,,,
95504,control_change,24,0,12,,,,,,,,,14,11,45,,,
95520,set_tempo,60,1,0,,,,,,937500,,,,,,,,
95520,note_on,60,0,7,,,,,,,,,10,,,,67,0
95520,note_on,0,0,7,,,,,,,,,10,,,,65,103
95522,control_change,24,0,9,,,,,,,,,12,11,47,,,
95522,control_change,24,0,8,,,,,,,,,11,11,47,,,
95525,control_change,24,0,11,,,,,,,,,13,11,47,,,
95528,control_change,24,0,12,,,,,,,,,14,11,47,,,
95575,note_on,55,0,7,,,,,,,,,10,,,,65,0
95580,note_on,5,0,7,,,,,,,,,10,,,,65,103
95640,set_tempo,120,1,0,,,,,,1090909,,,,,,,,
95640,note_on,60,0,7,,,,,,,,,10,,,,65,0
95640,note_on,0,0,7,,,,,,,,,10,,,,67,103
95700,note_on,0,0,7,,,,,,,,,10,,,,69,103
95700,note_on,60,0,7,,,,,,,,,10,,,,67,0
95700,set_tempo,60,1,0,,,,,,1200000,,,,,,,,
95705,control_change,0,0,4,,,,,,,,,3,11,47,,,
95705,note_on,2700,0,4,,,,,,,,,3,,,,65,95
95705,note_on,0,0,4,,,,,,,,,3,,,,53,95
95755,note_on,55,0,7,,,,,,,,,10,,,,69,0
95757,note_on,0,0,8,,,,,,,,,11,,,,63,0
95757,note_on,235,0,8,,,,,,,,,11,,,,60,0
95757,note_on,235,0,9,,,,,,,,,12,,,,51,0
95758,note_on,301,0,5,,,,,,,,,4,,,,60,0
95760,note_on,5,0,7,,,,,,,,,10,,,,70,85
95760,note_on,235,0,11,,,,,,,,,13,,,,41,0
95760,note_on,301,0,6,,,,,,,,,5,,,,53,0
95760,set_tempo,60,1,0,,,,,,1000000,,,,,,,,
95762,note_on,5,0,8,,,,,,,,,11,,,,58,85
95762,note_on,5,0,9,,,,,,,,,12,,,,50,83
95762,note_on,0,0,8,,,,,,,,,11,,,,62,85
95763,note_on,235,0,12,,,,,,,,,14,,,,29,0
95763,note_on,5,0,5,,,,,,,,,4,,,,58,82
95765,note_on,5,0,6,,,,,,,,,5,,,,50,82
95765,note_on,0,0,4,,,,,,,,,3,,,,58,95
95765,note_on,5,0,11,,,,,,,,,13,,,,46,84
95765,note_on,0,0,4,,,,,,,,,3,,,,62,95
95765,note_on,0,0,4,,,,,,,,,3,,,,65,0
95765,note_on,60,0,4,,,,,,,,,3,,,,53,0
95768,note_on,5,0,12,,,,,,,,,14,,,,34,78
95790,set_tempo,30,1,0,,,,,,2307692,,,,,,,,
95805,control_change,45,0,7,,,,,,,,,10,11,47,,,
95807,control_change,45,0,9,,,,,,,,,12,11,47,,,
95807,control_change,45,0,8,,,,,,,,,11,11,47,,,
95810,control_change,45,0,11,,,,,,,,,13,11,47,,,
95810,control_change,5,0,7,,,,,,,,,10,11,44,,,
95812,control_change,5,0,8,,,,,,,,,11,11,44,,,
95812,control_change,5,0,9,,,,,,,,,12,11,44,,,
95813,control_change,45,0,12,,,,,,,,,14,11,47,,,
95815,control_change,5,0,11,,,,,,,,,13,11,44,,,
95815,control_change,5,0,7,,,,,,,,,10,11,41,,,
95817,control_change,5,0,8,,,,,,,,,11,11,41,,,
95817,control_change,5,0,9,,,,,,,,,12,11,41,,,
95818,control_change,5,0,12,,,,,,,,,14,11,44,,,
95820,control_change,5,0,11,,,,,,,,,13,11,41,,,
95820,control_change,5,0,7,,,,,,,,,10,11,38,,,
95822,control_change,5,0,9,,,,,,,,,12,11,38,,,
95822,control_change,5,0,8,,,,,,,,,11,11,38,,,
95823,control_change,5,0,12,,,,,,,,,14,11,41,,,
95823,control_change,60,0,5,,,,,,,,,4,11,42,,,
95825,control_change,0,0,4,,,,,,,,,3,11,47,,,
95825,note_on,0,0,4,,,,,,,,,3,,,,58,0
95825,note_on,60,0,4,,,,,,,,,3,,,,62,0
95825,control_change,60,0,6,,,,,,,,,5,11,42,,,
95825,control_change,5,0,11,,,,,,,,,13,11,38,,,
95826,control_change,6,0,7,,,,,,,,,10,11,35,,,
95828,control_change,6,0,9,,,,,,,,,12,11,35,,,
95828,control_change,6,0,8,,,,,,,,,11,11,35,,,
95828,control_change,5,0,12,,,,,,,,,14,11,38,,,
95829,control_change,6,0,5,,,,,,,,,4,11,39,,,
95831,control_change,6,0,6,,,,,,,,,5,11,39,,,
95831,control_change,6,0,11,,,,,,,,,13,11,35,,,
95831,control_change,5,0,7,,,,,,,,,10,11,32,,,
95833,control_change,5,0,8,,,,,,,,,11,11,32,,,
95833,control_change,5,0,9,,,,,,,,,12,11,32,,,
95833,control_change,8,0,4,,,,,,,,,3,11,44,,,
95834,control_change,6,0,12,,,,,,,,,14,11,35,,,
95835,control_change,6,0,5,,,,,,,,,4,11,36,,,
95836,control_change,5,0,7,,,,,,,,,10,11,29,,,
95836,control_change,5,0,11,,,,,,,,,13,11,32,,,
95837,control_change,6,0,6,,,,,,,,,5,11,36,,,
95838,control_change,5,0,8,,,,,,,,,11,11,29,,,
95838,control_change,5,0,9,,,,,,,,,12,11,29,,,
95839,control_change,5,0,12,,,,,,,,,14,11,32,,,
95841,control_change,8,0,4,,,,,,,,,3,11,41,,,
95841,control_change,6,0,5,,,,,,,,,4,11,33,,,
95841,control_change,5,0,11,,,,,,,,,13,11,29,,,
95841,control_change,5,0,7,,,,,,,,,10,11,26,,,
95843,control_change,6,0,6,,,,,,,,,5,11,33,,,
95843,control_change,5,0,9,,,,,,,,,12,11,26,,,
95843,control_change,5,0,8,,,,,,,,,11,11,26,,,
95844,control_change,5,0,12,,,,,,,,,14,11,29,,,
95846,control_change,5,0,11,,,,,,,,,13,11,26,,,
95847,control_change,6,0,4,,,,,,,,,3,11,38,,,
95847,control_change,6,0,5,,,,,,,,,4,11,30,,,
95847,control_change,6,0,7,,,,,,,,,10,11,23,,,
95849,control_change,6,0,8,,,,,,,,,11,11,23,,,
95849,control_change,6,0,6,,,,,,,,,5,11,30,,,
95849,control_change,6,0,9,,,,,,,,,12,11,23,,,
95849,control_change,5,0,12,,,,,,,,,14,11,26,,,
95850,note_on,3,0,7,,,,,,,,,10,,,,70,0
95852,note_on,3,0,8,,,,,,,,,11,,,,62,0
95852,control_change,6,0,11,,,,,,,,,13,11,23,,,
95852,note_on,0,0,8,,,,,,,,,11,,,,58,0
95852,note_on,3,0,9,,,,,,,,,12,,,,50,0
95853,note_on,6,0,5,,,,,,,,,4,,,,58,0
95853,control_change,0,0,5,,,,,,,,,4,11,27,,,
95853,control_change,6,0,4,,,,,,,,,3,11,35,,,
95855,control_change,6,0,12,,,,,,,,,14,11,23,,,
95855,note_on,3,0,11,,,,,,,,,13,,,,46,0
95855,control_change,0,0,6,,,,,,,,,5,11,27,,,
95855,note_on,6,0,6,,,,,,,,,5,,,,50,0
95858,note_on,3,0,12,,,,,,,,,14,,,,34,0
95865,set_tempo,75,1,0,,,,,,4000000,,,,,,,,
95880,set_tempo,15,1,0,,,,,,937500,,,,,,,,
95880,note_on,0,0,1,,,,,,,,,0,,,,77,88
95880,control_change,565,0,1,,,,,,,,,0,11,35,,,
95885,control_change,32,0,4,,,,,,,,,3,11,47,,,
95886,control_change,6,0,1,,,,,,,,,0,11,38,,,
95893,control_change,7,0,1,,,,,,,,,0,11,41,,,
95900,control_change,7,0,1,,,,,,,,,0,11,44,,,
95907,control_change,7,0,1,,,,,,,,,0,11,47,,,
95970,control_change,63,0,1,,,,,,,,,0,11,48,,,
95976,control_change,6,0,1,,,,,,,,,0,11,45,,,
95983,control_change,7,0,1,,,,,,,,,0,11,42,,,
95990,control_change,7,0,1,,,,,,,,,0,11,39,,,
95996,control_change,6,0,1,,,,,,,,,0,11,36,,,
96000,note_on,4,0,1,,,,,,,,,0,,,,77,0
96060,note_on,0,0,1,,,,,,,,,0,,,,77,88
96060,control_change,60,0,1,,,,,,,,,0,11,35,,,
96066,control_change,6,0,1,,,,,,,,,0,11,38,,,
96072,control_change,6,0,1,,,,,,,,,0,11,41,,,
96079,control_change,7,0,1,,,,,,,,,0,11,44,,,
96085,control_change,6,0,1,,,,,,,,,0,11,47,,,
96144,control_change,59,0,1,,,,,,,,,0,11,49,,,
96157,control_change,13,0,1,,,,,,,,,0,11,46,,,
96164,control_change,7,0,1,,,,,,,,,0,11,43,,,
96171,control_change,7,0,1,,,,,,,,,0,11,40,,,
96179,control_change,8,0,1,,,,,,,,,0,11,37,,,
96180,note_on,1,0,1,,,,,,,,,0,,,,77,0
96240,control_change,390,0,7,,,,,,,,,10,11,37,,,
96240,note_on,0,0,1,,,,,,,,,0,,,,77,96
96240,control_change,60,0,1,,,,,,,,,0,11,37,,,
96242,control_change,965,0,2,,,,,,,,,1,11,37,,,
96242,control_change,390,0,9,,,,,,,,,12,11,37,,,
96242,control_change,390,0,8,,,,,,,,,11,11,37,,,
96243,control_change,390,0,5,,,,,,,,,4,11,37,,,
96243,control_change,925,0,3,,,,,,,,,2,11,37,,,
96244,control_change,3360,0,10,,,,,,,,,6,11,37,,,
96245,control_change,360,0,4,,,,,,,,,3,11,37,,,
96245,control_change,390,0,6,,,,,,,,,5,11,37,,,
96245,control_change,390,0,11,,,,,,,,,13,11,37,,,
96245,control_change,5,0,1,,,,,,,,,0,11,40,,,
96245,control_change,5,0,7,,,,,,,,,10,11,40,,,
96247,control_change,5,0,9,,,,,,,,,12,11,40,,,
96247,control_change,5,0,2,,,,,,,,,1,11,40,,,
96247,control_change,5,0,8,,,,,,,,,11,11,40,,,
96248,control_change,390,0,12,,,,,,,,,14,11,37,,,
96248,control_change,5,0,5,,,,,,,,,4,11,40,,,
96248,control_change,5,0,3,,,,,,,,,2,11,40,,,
96249,control_change,5,0,10,,,,,,,,,6,11,40,,,
96250,control_change,5,0,6,,,,,,,,,5,11,40,,,
96250,control_change,5,0,11,,,,,,,,,13,11,40,,,
96250,control_change,5,0,4,,,,,,,,,3,11,40,,,
96251,control_change,6,0,1,,,,,,,,,0,11,43,,,
96251,control_change,6,0,7,,,,,,,,,10,11,43,,,
96253,control_change,6,0,9,,,,,,,,,12,11,43,,,
96253,control_change,6,0,2,,,,,,,,,1,11,43,,,
96253,control_change,5,0,12,,,,,,,,,14,11,40,,,
96253,control_change,6,0,8,,,,,,,,,11,11,43,,,
96254,control_change,6,0,5,,,,,,,,,4,11,43,,,
96254,control_change,6,0,3,,,,,,,,,2,11,43,,,
96255,control_change,6,0,10,,,,,,,,,6,11,43,,,
96256,control_change,6,0,6,,,,,,,,,5,11,43,,,
96256,control_change,6,0,11,,,,,,,,,13,11,43,,,
96256,control_change,6,0,4,,,,,,,,,3,11,43,,,
96257,control_change,6,0,7,,,,,,,,,10,11,46,,,
96257,control_change,6,0,1,,,,,,,,,0,11,46,,,
96259,control_change,6,0,8,,,,,,,,,11,11,46,,,
96259,control_change,6,0,2,,,,,,,,,1,11,46,,,
96259,control_change,6,0,9,,,,,,,,,12,11,46,,,
96259,control_change,6,0,12,,,,,,,,,14,11,43,,,
96260,control_change,6,0,5,,,,,,,,,4,11,46,,,
96260,control_change,6,0,3,,,,,,,,,2,11,46,,,
96261,control_change,6,0,10,,,,,,,,,6,11,46,,,
96262,control_change,6,0,11,,,,,,,,,13,11,46,,,
96262,control_change,6,0,4,,,,,,,,,3,11,46,,,
96262,control_change,6,0,6,,,,,,,,,5,11,46,,,
96263,control_change,6,0,7,,,,,,,,,10,11,49,,,
96263,control_change,6,0,1,,,,,,,,,0,11,49,,,
96265,control_change,6,0,9,,,,,,,,,12,11,49,,,
96265,control_change,6,0,12,,,,,,,,,14,11,46,,,
96265,control_change,6,0,2,,,,,,,,,1,11,49,,,
96265,control_change,6,0,8,,,,,,,,,11,11,49,,,
96266,control_change,6,0,3,,,,,,,,,2,11,49,,,
96266,control_change,6,0,5,,,,,,,,,4,11,49,,,
96267,control_change,6,0,10,,,,,,,,,6,11,49,,,
96268,control_change,6,0,4,,,,,,,,,3,11,49,,,
96268,control_change,6,0,6,,,,,,,,,5,11,49,,,
96268,control_change,6,0,11,,,,,,,,,13,11,49,,,
96269,control_change,6,0,7,,,,,,,,,10,11,52,,,
96269,control_change,6,0,1,,,,,,,,,0,11,52,,,
96271,control_change,6,0,9,,,,,,,,,12,11,52,,,
96271,control_change,6,0,8,,,,,,,,,11,11,52,,,
96271,control_change,6,0,2,,,,,,,,,1,11,52,,,
96271,control_change,6,0,12,,,,,,,,,14,11,49,,,
96272,control_change,6,0,5,,,,,,,,,4,11,52,,,
96272,control_change,6,0,3,,,,,,,,,2,11,52,,,
96273,control_change,6,0,10,,,,,,,,,6,11,52,,,
96274,control_change,6,0,4,,,,,,,,,3,11,52,,,
96274,control_change,6,0,6,,,,,,,,,5,11,52,,,
96274,control_change,6,0,11,,,,,,,,,13,11,52,,,
96277,control_change,6,0,12,,,,,,,,,14,11,52,,,
96300,note_on,0,0,1,,,,,,,,,0,,,,79,101
96300,note_on,31,0,1,,,,,,,,,0,,,,77,0
96360,note_on,0,0,1,,,,,,,,,0,,,,77,76
96360,note_on,60,0,1,,,,,,,,,0,,,,79,0
96408,control_change,48,0,1,,,,,,,,,0,11,50,,,
96420,note_on,12,0,1,,,,,,,,,0,,,,77,0
96480,note_on,60,0,1,,,,,,,,,0,,,,79,101
96540,note_on,60,0,1,,,,,,,,,0,,,,79,0
96540,note_on,0,0,1,,,,,,,,,0,,,,77,76
96600,note_on,60,0,1,,,,,,,,,0,,,,77,0
96660,note_on,60,0,1,,,,,,,,,0,,,,79,101
96672,control_change,12,0,1,,,,,,,,,0,11,51,,,
96720,note_on,48,0,1,,,,,,,,,0,,,,79,0
96720,note_on,0,0,1,,,,,,,,,0,,,,77,76
96780,note_on,60,0,1,,,,,,,,,0,,,,77,0
96780,note_on,0,0,1,,,,,,,,,0,,,,79,111
96780,set_tempo,900,1,0,,,,,,1034483,,,,,,,,
96782,set_tempo,2,1,0,,,,,,1032702,,,,,,,,
96785,set_tempo,3,1,0,,,,,,1030928,,,,,,,,
96787,set_tempo,2,1,0,,,,,,1027397,,,,,,,,
96790,set_tempo,3,1,0,,,,,,1025641,,,,,,,,
96792,set_tempo,2,1,0,,,,,,1022147,,,,,,,,
96795,set_tempo,3,1,0,,,,,,1020408,,,,,,,,
96797,set_tempo,2,1,0,,,,,,1016949,,,,,,,,
96800,set_tempo,3,1,0,,,,,,1015228,,,,,,,,
96802,set_tempo,2,1,0,,,,,,1013514,,,,,,,,
96805,set_tempo,3,1,0,,,,,,1010101,,,,,,,,
96807,set_tempo,2,1,0,,,,,,1008403,,,,,,,,
96810,note_on,30,0,1,,,,,,,,,0,,,,79,0
96810,set_tempo,3,1,0,,,,,,1005025,,,,,,,,
96810,note_on,0,0,1,,,,,,,,,0,,,,77,76
96812,set_tempo,2,1,0,,,,,,1003344,,,,,,,,
96815,set_tempo,3,1,0,,,,,,1000000,,,,,,,,
96817,set_tempo,2,1,0,,,,,,998336,,,,,,,,
96820,set_tempo,3,1,0,,,,,,996678,,,,,,,,
96822,set_tempo,2,1,0,,,,,,993377,,,,,,,,
96825,set_tempo,3,1,0,,,,,,991736,,,,,,,,
96827,set_tempo,2,1,0,,,,,,988468,,,,,,,,
96830,set_tempo,3,1,0,,,,,,986842,,,,,,,,
96832,set_tempo,2,1,0,,,,,,983607,,,,,,,,
96835,set_tempo,3,1,0,,,,,,981997,,,,,,,,
96837,set_tempo,2,1,0,,,,,,980392,,,,,,,,
96840,set_tempo,3,1,0,,,,,,977199,,,,,,,,
96840,note_on,30,0,1,,,,,,,,,0,,,,77,0
96840,note_on,0,0,1,,,,,,,,,0,,,,79,111
96842,set_tempo,2,1,0,,,,,,975610,,,,,,,,
96845,set_tempo,3,1,0,,,,,,972447,,,,,,,,
96847,set_tempo,2,1,0,,,,,,970874,,,,,,,,
96850,set_tempo,3,1,0,,,,,,967742,,,,,,,,
96852,set_tempo,2,1,0,,,,,,966184,,,,,,,,
96855,set_tempo,3,1,0,,,,,,964630,,,,,,,,
96857,set_tempo,2,1,0,,,,,,961538,,,,,,,,
96860,set_tempo,3,1,0,,,,,,960000,,,,,,,,
96862,set_tempo,2,1,0,,,,,,956938,,,,,,,,
96865,set_tempo,3,1,0,,,,,,955414,,,,,,,,
96867,set_tempo,2,1,0,,,,,,952381,,,,,,,,
96870,set_tempo,3,1,0,,,,,,950872,,,,,,,,
96870,note_on,0,0,1,,,,,,,,,0,,,,77,76
96870,note_on,30,0,1,,,,,,,,,0,,,,79,0
96872,set_tempo,2,1,0,,,,,,949367,,,,,,,,
96875,set_tempo,3,1,0,,,,,,946372,,,,,,,,
96877,set_tempo,2,1,0,,,,,,944882,,,,,,,,
96880,set_tempo,3,1,0,,,,,,941915,,,,,,,,
96882,set_tempo,2,1,0,,,,,,940439,,,,,,,,
96885,set_tempo,3,1,0,,,,,,937500,,,,,,,,
96887,set_tempo,2,1,0,,,,,,936037,,,,,,,,
96890,set_tempo,3,1,0,,,,,,934579,,,,,,,,
96892,set_tempo,2,1,0,,,,,,931677,,,,,,,,
96895,set_tempo,3,1,0,,,,,,930233,,,,,,,,
96897,set_tempo,2,1,0,,,,,,927357,,,,,,,,
96900,set_tempo,3,1,0,,,,,,925926,,,,,,,,
96900,note_on,0,0,1,,,,,,,,,0,,,,79,111
96900,note_on,30,0,1,,,,,,,,,0,,,,77,0
96902,set_tempo,2,1,0,,,,,,923077,,,,,,,,
96905,set_tempo,3,1,0,,,,,,921659,,,,,,,,
96907,set_tempo,2,1,0,,,,,,920245,,,,,,,,
96910,set_tempo,3,1,0,,,,,,917431,,,,,,,,
96912,set_tempo,2,1,0,,,,,,916031,,,,,,,,
96915,set_tempo,3,1,0,,,,,,913242,,,,,,,,
96917,set_tempo,2,1,0,,,,,,911854,,,,,,,,
96920,set_tempo,3,1,0,,,,,,909091,,,,,,,,
96922,set_tempo,2,1,0,,,,,,907716,,,,,,,,
96925,set_tempo,3,1,0,,,,,,906344,,,,,,,,
96927,set_tempo,2,1,0,,,,,,903614,,,,,,,,
96930,note_on,30,0,1,,,,,,,,,0,,,,79,0
96930,note_on,0,0,1,,,,,,,,,0,,,,77,76
96930,set_tempo,3,1,0,,,,,,902256,,,,,,,,
96932,set_tempo,2,1,0,,,,,,899550,,,,,,,,
96935,set_tempo,3,1,0,,,,,,898204,,,,,,,,
96936,control_change,6,0,1,,,,,,,,,0,11,52,,,
96937,set_tempo,2,1,0,,,,,,895522,,,,,,,,
96940,set_tempo,3,1,0,,,,,,894188,,,,,,,,
96942,set_tempo,2,1,0,,,,,,892857,,,,,,,,
96945,set_tempo,3,1,0,,,,,,890208,,,,,,,,
96947,set_tempo,2,1,0,,,,,,888889,,,,,,,,
96950,set_tempo,3,1,0,,,,,,886263,,,,,,,,
96952,set_tempo,2,1,0,,,,,,884956,,,,,,,,
96955,set_tempo,3,1,0,,,,,,882353,,,,,,,,
96957,set_tempo,2,1,0,,,,,,881057,,,,,,,,
96960,note_on,24,0,1,,,,,,,,,0,,,,77,0
96960,note_on,0,0,1,,,,,,,,,0,,,,79,111
96960,set_tempo,3,1,0,,,,,,879765,,,,,,,,
96962,set_tempo,2,1,0,,,,,,877193,,,,,,,,
96965,set_tempo,3,1,0,,,,,,875912,,,,,,,,
96967,set_tempo,2,1,0,,,,,,873362,,,,,,,,
96970,set_tempo,3,1,0,,,,,,872093,,,,,,,,
96972,set_tempo,2,1,0,,,,,,869565,,,,,,,,
96975,set_tempo,3,1,0,,,,,,868307,,,,,,,,
96977,set_tempo,2,1,0,,,,,,867052,,,,,,,,
96980,set_tempo,3,1,0,,,,,,864553,,,,,,,,
96982,set_tempo,2,1,0,,,,,,863309,,,,,,,,
96985,set_tempo,3,1,0,,,,,,860832,,,,,,,,
96987,set_tempo,2,1,0,,,,,,859599,,,,,,,,
96990,note_on,30,0,1,,,,,,,,,0,,,,79,0
96990,set_tempo,3,1,0,,,,,,857143,,,,,,,,
96990,note_on,0,0,1,,,,,,,,,0,,,,77,76
96992,set_tempo,2,1,0,,,,,,855920,,,,,,,,
96995,set_tempo,3,1,0,,,,,,854701,,,,,,,,
96997,set_tempo,2,1,0,,,,,,852273,,,,,,,,
97000,set_tempo,3,1,0,,,,,,851064,,,,,,,,
97002,set_tempo,2,1,0,,,,,,848656,,,,,,,,
97005,set_tempo,3,1,0,,,,,,847458,,,,,,,,
97007,set_tempo,2,1,0,,,,,,845070,,,,,,,,
97010,set_tempo,3,1,0,,,,,,843882,,,,,,,,
97012,set_tempo,2,1,0,,,,,,842697,,,,,,,,
97015,set_tempo,3,1,0,,,,,,840336,,,,,,,,
97017,set_tempo,2,1,0,,,,,,839161,,,,,,,,
97020,set_tempo,3,1,0,,,,,,836820,,,,,,,,
97020,note_on,0,0,1,,,,,,,,,0,,,,79,111
97020,note_on,30,0,1,,,,,,,,,0,,,,77,0
97022,set_tempo,2,1,0,,,,,,835655,,,,,,,,
97025,set_tempo,3,1,0,,,,,,833333,,,,,,,,
97027,set_tempo,2,1,0,,,,,,832178,,,,,,,,
97030,set_tempo,3,1,0,,,,,,831025,,,,,,,,
97032,set_tempo,2,1,0,,,,,,828729,,,,,,,,
97035,set_tempo,3,1,0,,,,,,827586,,,,,,,,
97037,set_tempo,2,1,0,,,,,,825309,,,,,,,,
97040,set_tempo,3,1,0,,,,,,824176,,,,,,,,
97042,set_tempo,2,1,0,,,,,,821918,,,,,,,,
97045,set_tempo,3,1,0,,,,,,820793,,,,,,,,
97047,set_tempo,2,1,0,,,,,,819672,,,,,,,,
97050,note_on,0,0,1,,,,,,,,,0,,,,77,76
97050,note_on,30,0,1,,,,,,,,,0,,,,79,0
97050,set_tempo,3,1,0,,,,,,817439,,,,,,,,
97052,set_tempo,2,1,0,,,,,,816327,,,,,,,,
97055,set_tempo,3,1,0,,,,,,814111,,,,,,,,
97057,set_tempo,2,1,0,,,,,,813008,,,,,,,,
97060,set_tempo,3,1,0,,,,,,810811,,,,,,,,
97062,set_tempo,2,1,0,,,,,,809717,,,,,,,,
97065,set_tempo,3,1,0,,,,,,808625,,,,,,,,
97067,set_tempo,2,1,0,,,,,,806452,,,,,,,,
97068,control_change,18,0,1,,,,,,,,,0,11,52,,,
97070,set_tempo,3,1,0,,,,,,805369,,,,,,,,
97072,set_tempo,2,1,0,,,,,,803213,,,,,,,,
97075,set_tempo,3,1,0,,,,,,802139,,,,,,,,
97077,set_tempo,2,1,0,,,,,,800000,,,,,,,,
97080,note_on,12,0,1,,,,,,,,,0,,,,77,0
97080,note_on,0,0,1,,,,,,,,,0,,,,79,111
97080,set_tempo,3,1,0,,,,,,798935,,,,,,,,
97082,set_tempo,2,1,0,,,,,,797872,,,,,,,,
97085,set_tempo,3,1,0,,,,,,795756,,,,,,,,
97087,set_tempo,2,1,0,,,,,,794702,,,,,,,,
97090,set_tempo,3,1,0,,,,,,792602,,,,,,,,
97092,set_tempo,2,1,0,,,,,,791557,,,,,,,,
97095,set_tempo,3,1,0,,,,,,789474,,,,,,,,
97097,set_tempo,2,1,0,,,,,,788436,,,,,,,,
97100,set_tempo,3,1,0,,,,,,787402,,,,,,,,
97102,set_tempo,2,1,0,,,,,,785340,,,,,,,,
97105,set_tempo,3,1,0,,,,,,784314,,,,,,,,
97107,set_tempo,2,1,0,,,,,,782269,,,,,,,,
97110,set_tempo,3,1,0,,,,,,781250,,,,,,,,
97110,note_on,30,0,1,,,,,,,,,0,,,,79,0
97110,note_on,0,0,1,,,,,,,,,0,,,,77,76
97112,set_tempo,2,1,0,,,,,,779221,,,,,,,,
97115,set_tempo,3,1,0,,,,,,778210,,,,,,,,
97117,set_tempo,2,1,0,,,,,,777202,,,,,,,,
97120,set_tempo,3,1,0,,,,,,775194,,,,,,,,
97122,set_tempo,2,1,0,,,,,,774194,,,,,,,,
97125,set_tempo,3,1,0,,,,,,772201,,,,,,,,
97127,set_tempo,2,1,0,,,,,,771208,,,,,,,,
97130,set_tempo,3,1,0,,,,,,769231,,,,,,,,
97132,set_tempo,2,1,0,,,,,,768246,,,,,,,,
97135,set_tempo,3,1,0,,,,,,767263,,,,,,,,
97137,set_tempo,2,1,0,,,,,,765306,,,,,,,,
97140,note_on,0,0,1,,,,,,,,,0,,,,79,111
97140,note_on,30,0,1,,,,,,,,,0,,,,77,0
97140,set_tempo,3,1,0,,,,,,764331,,,,,,,,
97142,set_tempo,2,1,0,,,,,,762389,,,,,,,,
97142,note_on,871,0,2,,,,,,,,,1,,,,86,82
97145,set_tempo,3,1,0,,,,,,761421,,,,,,,,
97147,set_tempo,2,1,0,,,,,,759494,,,,,,,,
97150,set_tempo,3,1,0,,,,,,758534,,,,,,,,
97152,set_tempo,2,1,0,,,,,,757576,,,,,,,,
97155,set_tempo,3,1,0,,,,,,755668,,,,,,,,
97157,set_tempo,2,1,0,,,,,,754717,,,,,,,,
97160,set_tempo,3,1,0,,,,,,752823,,,,,,,,
97162,set_tempo,2,1,0,,,,,,751880,,,,,,,,
97165,set_tempo,3,1,0,,,,,,750000,,,,,,,,
97167,set_tempo,2,1,0,,,,,,749064,,,,,,,,
97170,set_tempo,3,1,0,,,,,,748130,,,,,,,,
97170,note_on,30,0,1,,,,,,,,,0,,,,79,0
97170,note_on,0,0,1,,,,,,,,,0,,,,77,76
97172,set_tempo,2,1,0,,,,,,746269,,,,,,,,
97175,set_tempo,3,1,0,,,,,,745342,,,,,,,,
97177,note_on,35,0,2,,,,,,,,,1,,,,86,0
97177,set_tempo,2,1,0,,,,,,743494,,,,,,,,
97180,set_tempo,3,1,0,,,,,,742574,,,,,,,,
97182,set_tempo,2,1,0,,,,,,740741,,,,,,,,
97184,note_on,7,0,2,,,,,,,,,1,,,,86,89
97185,set_tempo,3,1,0,,,,,,739827,,,,,,,,
97187,set_tempo,2,1,0,,,,,,738916,,,,,,,,
97190,set_tempo,3,1,0,,,,,,737101,,,,,,,,
97192,set_tempo,2,1,0,,,,,,736196,,,,,,,,
97194,note_on,10,0,2,,,,,,,,,1,,,,86,0
97200,control_change,0,0,1,,,,,,,,,0,11,53,,,
97200,set_tempo,8,1,0,,,,,,1000000,,,,,,,,
97200,note_on,30,0,1,,,,,,,,,0,,,,77,0
97200,note_on,0,0,1,,,,,,,,,0,,,,79,88
97202,note_on,8,0,2,,,,,,,,,1,,,,86,82
97203,note_on,931,0,3,,,,,,,,,2,,,,74,96
97215,note_on,15,0,1,,,,,,,,,0,,,,79,0
97215,note_on,0,0,1,,,,,,,,,0,,,,77,88
97230,note_on,15,0,1,,,,,,,,,0,,,,77,0
97230,note_on,0,0,1,,,,,,,,,0,,,,79,88
97243,note_on,40,0,3,,,,,,,,,2,,,,74,0
97245,note_on,0,0,1,,,,,,,,,0,,,,77,88
97245,note_on,15,0,1,,,,,,,,,0,,,,79,0
97257,note_on,55,0,2,,,,,,,,,1,,,,86,0
97260,note_on,0,0,1,,,,,,,,,0,,,,79,88
97260,note_on,15,0,1,,,,,,,,,0,,,,77,0
97263,note_on,20,0,3,,,,,,,,,2,,,,70,86
97272,note_on,0,0,1,,,,,,,,,0,,,,77,88
97272,note_on,12,0,1,,,,,,,,,0,,,,79,0
97284,note_on,0,0,1,,,,,,,,,0,,,,79,88
97284,note_on,12,0,1,,,,,,,,,0,,,,77,0
97296,note_on,0,0,1,,,,,,,,,0,,,,77,88
97296,note_on,12,0,1,,,,,,,,,0,,,,79,0
97303,note_on,40,0,3,,,,,,,,,2,,,,70,0
97308,note_on,12,0,1,,,,,,,,,0,,,,77,0
97308,note_on,0,0,1,,,,,,,,,0,,,,79,88
97320,note_on,12,0,1,,,,,,,,,0,,,,79,0
97320,note_on,0,0,1,,,,,,,,,0,,,,77,88
97332,note_on,0,0,1,,,,,,,,,0,,,,79,88
97332,note_on,12,0,1,,,,,,,,,0,,,,77,0
97344,note_on,12,0,1,,,,,,,,,0,,,,79,0
97344,note_on,0,0,1,,,,,,,,,0,,,,77,88
97356,note_on,12,0,1,,,,,,,,,0,,,,77,0
97356,note_on,0,0,1,,,,,,,,,0,,,,79,88
97368,note_on,0,0,1,,,,,,,,,0,,,,77,88
97368,note_on,12,0,1,,,,,,,,,0,,,,79,0
97380,note_on,12,0,1,,,,,,,,,0,,,,77,0
97380,note_on,0,0,1,,,,,,,,,0,,,,79,88
97390,note_on,10,0,1,,,,,,,,,0,,,,79,0
97390,note_on,0,0,1,,,,,,,,,0,,,,77,88
97400,note_on,10,0,1,,,,,,,,,0,,,,77,0
97400,note_on,0,0,1,,,,,,,,,0,,,,79,88
97410,note_on,0,0,1,,,,,,,,,0,,,,77,88
97410,note_on,10,0,1,,,,,,,,,0,,,,79,0
97420,note_on,0,0,1,,,,,,,,,0,,,,79,88
97420,note_on,10,0,1,,,,,,,,,0,,,,77,0
97430,note_on,0,0,1,,,,,,,,,0,,,,77,88
97430,note_on,10,0,1,,,,,,,,,0,,,,79,0
97440,note_on,0,0,1,,,,,,,,,0,,,,79,88
97440,note_on,10,0,1,,,,,,,,,0,,,,77,0
97450,note_on,0,0,1,,,,,,,,,0,,,,77,88
97450,note_on,10,0,1,,,,,,,,,0,,,,79,0
97460,note_on,10,0,1,,,,,,,,,0,,,,77,0
97460,note_on,0,0,1,,,,,,,,,0,,,,79,88
97470,note_on,10,0,1,,,,,,,,,0,,,,79,0
97470,note_on,0,0,1,,,,,,,,,0,,,,77,88
97477,set_tempo,277,1,0,,,,,,1005025,,,,,,,,
97480,note_on,10,0,1,,,,,,,,,0,,,,77,0
97480,note_on,0,0,1,,,,,,,,,0,,,,79,88
97490,note_on,0,0,1,,,,,,,,,0,,,,77,88
97490,note_on,10,0,1,,,,,,,,,0,,,,79,0
97492,set_tempo,15,1,0,,,,,,1001669,,,,,,,,
97500,note_on,0,0,1,,,,,,,,,0,,,,79,88
97500,set_tempo,8,1,0,,,,,,1000000,,,,,,,,
97500,note_on,10,0,1,,,,,,,,,0,,,,77,0
97502,note_on,245,0,2,,,,,,,,,1,,,,86,82
97507,set_tempo,7,1,0,,,,,,998336,,,,,,,,
97510,note_on,10,0,1,,,,,,,,,0,,,,79,0
97510,note_on,0,0,1,,,,,,,,,0,,,,77,88
97515,set_tempo,8,1,0,,,,,,996678,,,,,,,,
97520,note_on,0,0,1,,,,,,,,,0,,,,79,88
97520,note_on,10,0,1,,,,,,,,,0,,,,77,0
97522,set_tempo,7,1,0,,,,,,995025,,,,,,,,
97530,note_on,10,0,1,,,,,,,,,0,,,,79,0
97530,note_on,0,0,1,,,,,,,,,0,,,,77,88
97530,set_tempo,8,1,0,,,,,,993377,,,,,,,,
97537,note_on,35,0,2,,,,,,,,,1,,,,86,0
97537,set_tempo,7,1,0,,,,,,991736,,,,,,,,
97540,note_on,10,0,1,,,,,,,,,0,,,,77,0
97540,note_on,0,0,1,,,,,,,,,0,,,,79,88
97544,note_on,7,0,2,,,,,,,,,1,,,,86,89
97545,set_tempo,8,1,0,,,,,,990099,,,,,,,,
97550,note_on,0,0,1,,,,,,,,,0,,,,77,88
97550,note_on,10,0,1,,,,,,,,,0,,,,79,0
97552,set_tempo,7,1,0,,,,,,988468,,,,,,,,
97554,note_on,10,0,2,,,,,,,,,1,,,,86,0
97560,note_on,10,0,1,,,,,,,,,0,,,,77,0
97560,set_tempo,8,1,0,,,,,,986842,,,,,,,,
97560,note_on,0,0,1,,,,,,,,,0,,,,79,88
97562,note_on,8,0,2,,,,,,,,,1,,,,86,82
97563,note_on,260,0,3,,,,,,,,,2,,,,74,96
97567,set_tempo,7,1,0,,,,,,985222,,,,,,,,
97570,note_on,10,0,1,,,,,,,,,0,,,,79,0
97570,note_on,0,0,1,,,,,,,,,0,,,,77,88
97575,set_tempo,8,1,0,,,,,,983607,,,,,,,,
97580,note_on,10,0,1,,,,,,,,,0,,,,77,0
97580,note_on,0,0,1,,,,,,,,,0,,,,79,88
97582,set_tempo,7,1,0,,,,,,981997,,,,,,,,
97590,note_on,10,0,1,,,,,,,,,0,,,,79,0
97590,set_tempo,8,1,0,,,,,,980392,,,,,,,,
97590,note_on,0,0,1,,,,,,,,,0,,,,77,88
97597,set_tempo,7,1,0,,,,,,978793,,,,,,,,
97600,note_on,10,0,1,,,,,,,,,0,,,,77,0
97600,note_on,0,0,1,,,,,,,,,0,,,,79,88
97603,note_on,40,0,3,,,,,,,,,2,,,,74,0
97605,set_tempo,8,1,0,,,,,,977199,,,,,,,,
97610,note_on,0,0,1,,,,,,,,,0,,,,77,88
97610,note_on,10,0,1,,,,,,,,,0,,,,79,0
97612,set_tempo,7,1,0,,,,,,975610,,,,,,,,
97617,note_on,55,0,2,,,,,,,,,1,,,,86,0
97620,set_tempo,8,1,0,,,,,,974026,,,,,,,,
97620,note_on,0,0,1,,,,,,,,,0,,,,79,88
97620,note_on,10,0,1,,,,,,,,,0,,,,77,0
97623,note_on,20,0,3,,,,,,,,,2,,,,70,86
97627,set_tempo,7,1,0,,,,,,972447,,,,,,,,
97630,note_on,10,0,1,,,,,,,,,0,,,,79,0
97630,note_on,0,0,1,,,,,,,,,0,,,,77,88
97635,set_tempo,8,1,0,,,,,,970874,,,,,,,,
97640,note_on,0,0,1,,,,,,,,,0,,,,79,88
97640,note_on,10,0,1,,,,,,,,,0,,,,77,0
97642,set_tempo,7,1,0,,,,,,969305,,,,,,,,
97650,set_tempo,8,1,0,,,,,,967742,,,,,,,,
97650,note_on,0,0,1,,,,,,,,,0,,,,77,88
97650,note_on,10,0,1,,,,,,,,,0,,,,79,0
97657,set_tempo,7,1,0,,,,,,966184,,,,,,,,
97660,note_on,10,0,1,,,,,,,,,0,,,,77,0
97660,note_on,0,0,1,,,,,,,,,0,,,,79,88
97663,note_on,40,0,3,,,,,,,,,2,,,,70,0
97665,set_tempo,8,1,0,,,,,,964630,,,,,,,,
97670,note_on,10,0,1,,,,,,,,,0,,,,79,0
97670,note_on,0,0,1,,,,,,,,,0,,,,77,88
97672,set_tempo,7,1,0,,,,,,963082,,,,,,,,
97680,note_on,10,0,1,,,,,,,,,0,,,,77,0
97680,note_on,0,0,1,,,,,,,,,0,,,,79,88
97680,set_tempo,8,1,0,,,,,,961538,,,,,,,,
97687,set_tempo,7,1,0,,,,,,960000,,,,,,,,
97690,note_on,10,0,1,,,,,,,,,0,,,,79,0
97690,note_on,0,0,1,,,,,,,,,0,,,,77,88
97695,set_tempo,8,1,0,,,,,,958466,,,,,,,,
97700,note_on,10,0,1,,,,,,,,,0,,,,77,0
97700,note_on,0,0,1,,,,,,,,,0,,,,79,88
97702,set_tempo,7,1,0,,,,,,956938,,,,,,,,
97710,set_tempo,8,1,0,,,,,,955414,,,,,,,,
97710,note_on,10,0,1,,,,,,,,,0,,,,79,0
97710,note_on,0,0,1,,,,,,,,,0,,,,77,88
97717,set_tempo,7,1,0,,,,,,953895,,,,,,,,
97720,note_on,0,0,1,,,,,,,,,0,,,,79,88
97720,note_on,10,0,1,,,,,,,,,0,,,,77,0
97725,set_tempo,8,1,0,,,,,,952381,,,,,,,,
97730,note_on,10,0,1,,,,,,,,,0,,,,79,0
97730,note_on,0,0,1,,,,,,,,,0,,,,77,88
97732,set_tempo,7,1,0,,,,,,950872,,,,,,,,
97740,note_on,10,0,1,,,,,,,,,0,,,,77,0
97740,set_tempo,8,1,0,,,,,,949367,,,,,,,,
97740,note_on,0,0,1,,,,,,,,,0,,,,79,88
97747,set_tempo,7,1,0,,,,,,947867,,,,,,,,
97750,note_on,10,0,1,,,,,,,,,0,,,,79,0
97750,note_on,0,0,1,,,,,,,,,0,,,,77,88
97755,set_tempo,8,1,0,,,,,,946372,,,,,,,,
97760,note_on,0,0,1,,,,,,,,,0,,,,79,88
97760,note_on,10,0,1,,,,,,,,,0,,,,77,0
97762,set_tempo,7,1,0,,,,,,944882,,,,,,,,
97770,note_on,0,0,1,,,,,,,,,0,,,,77,88
97770,set_tempo,8,1,0,,,,,,943396,,,,,,,,
97770,note_on,10,0,1,,,,,,,,,0,,,,79,0
97777,set_tempo,7,1,0,,,,,,941915,,,,,,,,
97780,note_on,10,0,1,,,,,,,,,0,,,,77,0
97780,note_on,0,0,1,,,,,,,,,0,,,,79,88
97785,set_tempo,8,1,0,,,,,,940439,,,,,,,,
97790,note_on,10,0,1,,,,,,,,,0,,,,79,0
97790,note_on,0,0,1,,,,,,,,,0,,,,77,88
97792,set_tempo,7,1,0,,,,,,938967,,,,,,,,
97800,note_on,0,0,1,,,,,,,,,0,,,,79,88
97800,note_on,10,0,1,,,,,,,,,0,,,,77,0
97800,set_tempo,8,1,0,,,,,,937500,,,,,,,,
97810,note_on,0,0,1,,,,,,,,,0,,,,77,88
97810,note_on,10,0,1,,,,,,,,,0,,,,79,0
97820,note_on,10,0,1,,,,,,,,,0,,,,77,0
97820,note_on,0,0,1,,,,,,,,,0,,,,79,88
97830,note_on,0,0,1,,,,,,,,,0,,,,77,88
97830,note_on,10,0,1,,,,,,,,,0,,,,79,0
97840,note_on,10,0,1,,,,,,,,,0,,,,77,0
97840,note_on,0,0,1,,,,,,,,,0,,,,79,88
97850,note_on,0,0,1,,,,,,,,,0,,,,77,88
97850,note_on,10,0,1,,,,,,,,,0,,,,79,0
97860,note_on,10,0,1,,,,,,,,,0,,,,77,0
97860,note_on,0,0,1,,,,,,,,,0,,,,79,88
97862,note_on,245,0,2,,,,,,,,,1,,,,86,82
97870,note_on,10,0,1,,,,,,,,,0,,,,79,0
97870,note_on,0,0,1,,,,,,,,,0,,,,77,88
97880,note_on,0,0,1,,,,,,,,,0,,,,79,88
97880,note_on,10,0,1,,,,,,,,,0,,,,77,0
97890,note_on,10,0,1,,,,,,,,,0,,,,79,0
97890,note_on,0,0,1,,,,,,,,,0,,,,77,88
97897,note_on,35,0,2,,,,,,,,,1,,,,86,0
97900,note_on,10,0,1,,,,,,,,,0,,,,77,0
97900,note_on,0,0,1,,,,,,,,,0,,,,79,88
97904,note_on,7,0,2,,,,,,,,,1,,,,86,89
97910,note_on,0,0,1,,,,,,,,,0,,,,77,88
97910,note_on,10,0,1,,,,,,,,,0,,,,79,0
97914,note_on,10,0,2,,,,,,,,,1,,,,86,0
97920,note_on,10,0,1,,,,,,,,,0,,,,77,0
97920,note_on,0,0,1,,,,,,,,,0,,,,79,88
97922,note_on,8,0,2,,,,,,,,,1,,,,86,82
97923,note_on,260,0,3,,,,,,,,,2,,,,74,96
97930,note_on,0,0,1,,,,,,,,,0,,,,77,88
97930,note_on,10,0,1,,,,,,,,,0,,,,79,0
97940,note_on,0,0,1,,,,,,,,,0,,,,79,88
97940,note_on,10,0,1,,,,,,,,,0,,,,77,0
97950,note_on,10,0,1,,,,,,,,,0,,,,79,0
97950,note_on,0,0,1,,,,,,,,,0,,,,77,88
97960,note_on,10,0,1,,,,,,,,,0,,,,77,0
97960,note_on,0,0,1,,,,,,,,,0,,,,79,88
97963,note_on,40,0,3,,,,,,,,,2,,,,74,0
97970,note_on,10,0,1,,,,,,,,,0,,,,79,0
97970,note_on,0,0,1,,,,,,,,,0,,,,77,88
97977,note_on,55,0,2,,,,,,,,,1,,,,86,0
97980,note_on,10,0,1,,,,,,,,,0,,,,77,0
97980,note_on,0,0,1,,,,,,,,,0,,,,79,88
97983,note_on,20,0,3,,,,,,,,,2,,,,70,86
97990,note_on,10,0,1,,,,,,,,,0,,,,79,0
97990,note_on,0,0,1,,,,,,,,,0,,,,77,88
98000,note_on,10,0,1,,,,,,,,,0,,,,77,0
98000,note_on,0,0,1,,,,,,,,,0,,,,79,88
98010,note_on,0,0,1,,,,,,,,,0,,,,77,88
98010,note_on,10,0,1,,,,,,,,,0,,,,79,0
98020,note_on,10,0,1,,,,,,,,,0,,,,77,0
98020,note_on,0,0,1,,,,,,,,,0,,,,79,88
98023,note_on,40,0,3,,,,,,,,,2,,,,70,0
98030,note_on,10,0,1,,,,,,,,,0,,,,79,0
98030,note_on,0,0,1,,,,,,,,,0,,,,77,88
98040,note_on,10,0,1,,,,,,,,,0,,,,77,0
98040,note_on,0,0,1,,,,,,,,,0,,,,79,88
98042,note_on,65,0,2,,,,,,,,,1,,,,86,82
98050,note_on,10,0,1,,,,,,,,,0,,,,79,0
98050,note_on,0,0,1,,,,,,,,,0,,,,77,88
98060,note_on,0,0,1,,,,,,,,,0,,,,79,88
98060,note_on,10,0,1,,,,,,,,,0,,,,77,0
98070,note_on,10,0,1,,,,,,,,,0,,,,79,0
98070,note_on,0,0,1,,,,,,,,,0,,,,77,88
98077,note_on,35,0,2,,,,,,,,,1,,,,86,0
98080,note_on,10,0,1,,,,,,,,,0,,,,77,0
98080,note_on,0,0,1,,,,,,,,,0,,,,79,88
98084,note_on,7,0,2,,,,,,,,,1,,,,86,89
98090,note_on,10,0,1,,,,,,,,,0,,,,79,0
98090,note_on,0,0,1,,,,,,,,,0,,,,77,88
98094,note_on,10,0,2,,,,,,,,,1,,,,86,0
98100,note_on,10,0,1,,,,,,,,,0,,,,77,0
98100,note_on,0,0,1,,,,,,,,,0,,,,79,88
98102,note_on,8,0,2,,,,,,,,,1,,,,86,82
98103,note_on,80,0,3,,,,,,,,,2,,,,74,96
98110,note_on,0,0,1,,,,,,,,,0,,,,77,88
98110,note_on,10,0,1,,,,,,,,,0,,,,79,0
98120,note_on,10,0,1,,,,,,,,,0,,,,77,0
98130,note_on,10,0,1,,,,,,,,,0,,,,76,88
98143,note_on,40,0,3,,,,,,,,,2,,,,74,0
98157,note_on,55,0,2,,,,,,,,,1,,,,86,0
98160,note_on,30,0,1,,,,,,,,,0,,,,76,0
98160,note_on,0,0,1,,,,,,,,,0,,,,77,53
98163,note_on,20,0,3,,,,,,,,,2,,,,70,66
98190,set_tempo,390,1,0,,,,,,2448980,,,,,,,,
98203,note_on,40,0,3,,,,,,,,,2,,,,70,0
98205,note_on,45,0,1,,,,,,,,,0,,,,77,0
98220,set_tempo,30,1,0,,,,,,937500,,,,,,,,
98220,control_change,1951,0,7,,,,,,,,,10,11,32,,,
98220,note_on,0,0,7,,,,,,,,,10,,,,70,95
98238,control_change,18,0,7,,,,,,,,,10,11,35,,,
98256,control_change,18,0,7,,,,,,,,,10,11,38,,,
98274,control_change,18,0,7,,,,,,,,,10,11,41,,,
98275,note_on,1,0,7,,,,,,,,,10,,,,70,0
98280,note_on,5,0,7,,,,,,,,,10,,,,70,103
98280,set_tempo,60,1,0,,,,,,1034483,,,,,,,,
98282,control_change,2011,0,8,,,,,,,,,11,11,22,,,
98282,note_on,0,0,8,,,,,,,,,11,,,,63,103
98282,note_on,0,0,8,,,,,,,,,11,,,,60,103
98282,note_on,0,0,9,,,,,,,,,12,,,,51,101
98282,control_change,2011,0,9,,,,,,,,,12,11,22,,,
98283,note_on,2011,0,5,,,,,,,,,4,,,,60,82
98283,control_change,0,0,5,,,,,,,,,4,11,32,,,
98285,note_on,2011,0,6,,,,,,,,,5,,,,53,82
98285,control_change,2011,0,11,,,,,,,,,13,11,22,,,
98285,note_on,0,0,11,,,,,,,,,13,,,,41,100
98285,control_change,0,0,6,,,,,,,,,5,11,32,,,
98288,control_change,2011,0,12,,,,,,,,,14,11,22,,,
98288,note_on,0,0,12,,,,,,,,,14,,,,29,96
98294,control_change,12,0,8,,,,,,,,,11,11,25,,,
98294,control_change,12,0,9,,,,,,,,,12,11,25,,,
98295,note_on,0,0,7,,,,,,,,,10,,,,69,103
98295,note_on,15,0,7,,,,,,,,,10,,,,70,0
98297,control_change,12,0,11,,,,,,,,,13,11,25,,,
98300,control_change,12,0,12,,,,,,,,,14,11,25,,,
98301,control_change,18,0,5,,,,,,,,,4,11,35,,,
98303,control_change,18,0,6,,,,,,,,,5,11,35,,,
98306,control_change,12,0,9,,,,,,,,,12,11,28,,,
98306,control_change,12,0,8,,,,,,,,,11,11,28,,,
98309,control_change,12,0,11,,,,,,,,,13,11,28,,,
98312,control_change,12,0,12,,,,,,,,,14,11,28,,,
98318,control_change,12,0,9,,,,,,,,,12,11,31,,,
98318,control_change,12,0,8,,,,,,,,,11,11,31,,,
98319,control_change,18,0,5,,,,,,,,,4,11,38,,,
98321,control_change,18,0,6,,,,,,,,,5,11,38,,,
98321,control_change,12,0,11,,,,,,,,,13,11,31,,,
98324,control_change,12,0,12,,,,,,,,,14,11,31,,,
98330,control_change,12,0,8,,,,,,,,,11,11,34,,,
98330,control_change,12,0,9,,,,,,,,,12,11,34,,,
98333,control_change,12,0,11,,,,,,,,,13,11,34,,,
98336,control_change,12,0,12,,,,,,,,,14,11,34,,,
98337,control_change,18,0,5,,,,,,,,,4,11,41,,,
98339,control_change,18,0,6,,,,,,,,,5,11,41,,,
98340,note_on,0,0,7,,,,,,,,,10,,,,67,103
98340,note_on,45,0,7,,,,,,,,,10,,,,69,0
98340,set_tempo,60,1,0,,,,,,937500,,,,,,,,
98342,control_change,12,0,9,,,,,,,,,12,11,37,,,
98342,control_change,12,0,8,,,,,,,,,11,11,37,,,
98345,control_change,12,0,11,,,,,,,,,13,11,37,,,
98348,control_change,12,0,12,,,,,,,,,14,11,37,,,
98366,control_change,24,0,9,,,,,,,,,12,11,39,,,
98366,control_change,24,0,8,,,,,,,,,11,11,39,,,
98369,control_change,24,0,11,,,,,,,,,13,11,39,,,
98372,control_change,24,0,12,,,,,,,,,14,11,39,,,
98390,control_change,24,0,8,,,,,,,,,11,11,41,,,
98390,control_change,24,0,9,,,,,,,,,12,11,41,,,
98393,control_change,24,0,11,,,,,,,,,13,11,41,,,
98396,control_change,24,0,12,,,,,,,,,14,11,41,,,
98400,note_on,60,0,7,,,,,,,,,10,,,,67,0
98400,note_on,0,0,7,,,,,,,,,10,,,,65,103
98455,note_on,55,0,7,,,,,,,,,10,,,,65,0
98460,note_on,5,0,7,,,,,,,,,10,,,,65,103
98460,set_tempo,120,1,0,,,,,,1034483,,,,,,,,
98520,set_tempo,60,1,0,,,,,,983607,,,,,,,,
98520,note_on,60,0,7,,,,,,,,,10,,,,65,0
98520,note_on,0,0,7,,,,,,,,,10,,,,67,103
98580,note_on,60,0,7,,,,,,,,,10,,,,67,0
98580,set_tempo,60,1,0,,,,,,1153846,,,,,,,,
98580,note_on,0,0,7,,,,,,,,,10,,,,69,103
98583,control_change,380,0,3,,,,,,,,,2,11,47,,,
98585,note_on,2311,0,4,,,,,,,,,3,,,,63,115
98585,control_change,0,0,4,,,,,,,,,3,11,55,,,
98635,note_on,55,0,7,,,,,,,,,10,,,,69,0
98637,note_on,247,0,9,,,,,,,,,12,,,,51,0
98637,note_on,247,0,8,,,,,,,,,11,,,,60,0
98637,note_on,0,0,8,,,,,,,,,11,,,,63,0
98638,note_on,301,0,5,,,,,,,,,4,,,,60,0
98640,note_on,301,0,6,,,,,,,,,5,,,,53,0
98640,note_on,55,0,4,,,,,,,,,3,,,,63,0
98640,set_tempo,60,1,0,,,,,,1058201,,,,,,,,
98640,note_on,5,0,7,,,,,,,,,10,,,,70,85
98640,note_on,247,0,11,,,,,,,,,13,,,,41,0
98642,note_on,5,0,9,,,,,,,,,12,,,,50,83
98642,note_on,5,0,8,,,,,,,,,11,,,,62,85
98642,note_on,0,0,8,,,,,,,,,11,,,,58,85
98643,note_on,247,0,12,,,,,,,,,14,,,,29,0
98643,note_on,5,0,5,,,,,,,,,4,,,,58,82
98645,note_on,5,0,11,,,,,,,,,13,,,,43,84
98645,note_on,5,0,4,,,,,,,,,3,,,,62,115
98645,note_on,5,0,6,,,,,,,,,5,,,,50,82
98648,note_on,5,0,12,,,,,,,,,14,,,,31,78
98700,set_tempo,60,1,0,,,,,,983607,,,,,,,,
98705,note_on,0,0,4,,,,,,,,,3,,,,60,115
98705,note_on,60,0,4,,,,,,,,,3,,,,62,0
98760,control_change,120,0,7,,,,,,,,,10,11,42,,,
98762,control_change,120,0,8,,,,,,,,,11,11,42,,,
98762,control_change,120,0,9,,,,,,,,,12,11,42,,,
98763,control_change,120,0,5,,,,,,,,,4,11,42,,,
98765,note_on,60,0,4,,,,,,,,,3,,,,60,0
98765,control_change,120,0,6,,,,,,,,,5,11,42,,,
98765,control_change,120,0,11,,,,,,,,,13,11,42,,,
98765,note_on,0,0,4,,,,,,,,,3,,,,58,115
98768,control_change,120,0,12,,,,,,,,,14,11,42,,,
98769,control_change,6,0,5,,,,,,,,,4,11,39,,,
98771,control_change,6,0,6,,,,,,,,,5,11,39,,,
98775,control_change,6,0,5,,,,,,,,,4,11,36,,,
98776,control_change,16,0,7,,,,,,,,,10,11,40,,,
98776,control_change,14,0,9,,,,,,,,,12,11,39,,,
98776,control_change,14,0,8,,,,,,,,,11,11,39,,,
98777,control_change,6,0,6,,,,,,,,,5,11,36,,,
98779,control_change,14,0,11,,,,,,,,,13,11,39,,,
98781,control_change,6,0,5,,,,,,,,,4,11,33,,,
98782,control_change,14,0,12,,,,,,,,,14,11,39,,,
98783,control_change,6,0,6,,,,,,,,,5,11,33,,,
98787,control_change,6,0,5,,,,,,,,,4,11,30,,,
98789,control_change,6,0,6,,,,,,,,,5,11,30,,,
98791,control_change,15,0,8,,,,,,,,,11,11,36,,,
98791,control_change,15,0,9,,,,,,,,,12,11,36,,,
98793,control_change,6,0,5,,,,,,,,,4,11,27,,,
98793,control_change,17,0,7,,,,,,,,,10,11,38,,,
98794,control_change,15,0,11,,,,,,,,,13,11,36,,,
98795,control_change,6,0,6,,,,,,,,,5,11,27,,,
98797,control_change,15,0,12,,,,,,,,,14,11,36,,,
98806,control_change,15,0,8,,,,,,,,,11,11,33,,,
98806,control_change,15,0,9,,,,,,,,,12,11,33,,,
98809,control_change,15,0,11,,,,,,,,,13,11,33,,,
98810,control_change,17,0,7,,,,,,,,,10,11,36,,,
98812,control_change,15,0,12,,,,,,,,,14,11,33,,,
98820,set_tempo,120,1,0,,,,,,1083032,,,,,,,,
98820,note_on,55,0,4,,,,,,,,,3,,,,58,0
98820,note_on,10,0,7,,,,,,,,,10,,,,70,0
98821,control_change,15,0,9,,,,,,,,,12,11,30,,,
98821,control_change,15,0,8,,,,,,,,,11,11,30,,,
98822,note_on,1,0,9,,,,,,,,,12,,,,50,0
98822,note_on,1,0,8,,,,,,,,,11,,,,58,0
98822,note_on,0,0,8,,,,,,,,,11,,,,62,0
98823,note_on,30,0,5,,,,,,,,,4,,,,58,0
98824,control_change,15,0,11,,,,,,,,,13,11,30,,,
98825,note_on,1,0,11,,,,,,,,,13,,,,43,0
98825,note_on,30,0,6,,,,,,,,,5,,,,50,0
98825,note_on,5,0,4,,,,,,,,,3,,,,60,115
98827,control_change,15,0,12,,,,,,,,,14,11,30,,,
98828,note_on,1,0,12,,,,,,,,,14,,,,31,0
98840,note_on,15,0,4,,,,,,,,,3,,,,60,0
98840,note_on,0,0,4,,,,,,,,,3,,,,58,115
98880,set_tempo,60,1,0,,,,,,1061947,,,,,,,,
98885,note_on,0,0,4,,,,,,,,,3,,,,57,115
98885,note_on,45,0,4,,,,,,,,,3,,,,58,0
98940,set_tempo,60,1,0,,,,,,1153846,,,,,,,,
98943,note_on,360,0,3,,,,,,,,,2,,,,79,101
98945,note_on,60,0,4,,,,,,,,,3,,,,57,0
98945,note_on,0,0,4,,,,,,,,,3,,,,55,115
98998,note_on,55,0,3,,,,,,,,,2,,,,79,0
99000,set_tempo,60,1,0,,,,,,1104972,,,,,,,,
99000,control_change,180,0,7,,,,,,,,,10,11,35,,,
99000,note_on,0,0,7,,,,,,,,,10,,,,72,65
99002,control_change,180,0,8,,,,,,,,,11,11,35,,,
99002,note_on,0,0,9,,,,,,,,,12,,,,63,63
99002,note_on,0,0,8,,,,,,,,,11,,,,67,65
99002,control_change,180,0,9,,,,,,,,,12,11,35,,,
99003,note_on,5,0,3,,,,,,,,,2,,,,79,101
99005,note_on,0,0,11,,,,,,,,,13,,,,51,74
99005,control_change,180,0,11,,,,,,,,,13,11,35,,,
99005,note_on,60,0,4,,,,,,,,,3,,,,55,0
99008,note_on,0,0,12,,,,,,,,,14,,,,39,69
99008,control_change,180,0,12,,,,,,,,,14,11,35,,,
99012,control_change,12,0,7,,,,,,,,,10,11,38,,,
99014,control_change,12,0,9,,,,,,,,,12,11,38,,,
99014,control_change,12,0,8,,,,,,,,,11,11,38,,,
99017,control_change,12,0,11,,,,,,,,,13,11,38,,,
99020,control_change,12,0,12,,,,,,,,,14,11,38,,,
99025,control_change,13,0,7,,,,,,,,,10,11,41,,,
99027,control_change,13,0,9,,,,,,,,,12,11,41,,,
99027,control_change,13,0,8,,,,,,,,,11,11,41,,,
99030,control_change,13,0,11,,,,,,,,,13,11,41,,,
99033,control_change,13,0,12,,,,,,,,,14,11,41,,,
99060,set_tempo,60,1,0,,,,,,1034483,,,,,,,,
99063,note_on,60,0,3,,,,,,,,,2,,,,79,0
99063,note_on,0,0,3,,,,,,,,,2,,,,77,101
99120,control_change,95,0,7,,,,,,,,,10,11,42,,,
99122,control_change,95,0,8,,,,,,,,,11,11,42,,,
99122,control_change,95,0,9,,,,,,,,,12,11,42,,,
99123,note_on,0,0,3,,,,,,,,,2,,,,75,101
99123,note_on,60,0,3,,,,,,,,,2,,,,77,0
99125,control_change,95,0,11,,,,,,,,,13,11,42,,,
99128,control_change,95,0,12,,,,,,,,,14,11,42,,,
99137,control_change,17,0,7,,,,,,,,,10,11,39,,,
99139,control_change,17,0,8,,,,,,,,,11,11,39,,,
99139,control_change,17,0,9,,,,,,,,,12,11,39,,,
99142,control_change,17,0,11,,,,,,,,,13,11,39,,,
99145,control_change,17,0,12,,,,,,,,,14,11,39,,,
99155,control_change,18,0,7,,,,,,,,,10,11,36,,,
99157,control_change,18,0,9,,,,,,,,,12,11,36,,,
99157,control_change,18,0,8,,,,,,,,,11,11,36,,,
99160,control_change,18,0,11,,,,,,,,,13,11,36,,,
99163,control_change,18,0,12,,,,,,,,,14,11,36,,,
99173,control_change,18,0,7,,,,,,,,,10,11,33,,,
99175,control_change,18,0,9,,,,,,,,,12,11,33,,,
99175,control_change,18,0,8,,,,,,,,,11,11,33,,,
99178,note_on,55,0,3,,,,,,,,,2,,,,75,0
99178,control_change,18,0,11,,,,,,,,,13,11,33,,,
99180,set_tempo,120,1,0,,,,,,1123596,,,,,,,,
99180,note_on,7,0,7,,,,,,,,,10,,,,72,0
99181,control_change,18,0,12,,,,,,,,,14,11,33,,,
99182,note_on,7,0,9,,,,,,,,,12,,,,63,0
99182,note_on,7,0,8,,,,,,,,,11,,,,67,0
99183,note_on,5,0,3,,,,,,,,,2,,,,77,101
99185,note_on,7,0,11,,,,,,,,,13,,,,51,0
99188,note_on,7,0,12,,,,,,,,,14,,,,39,0
99198,note_on,0,0,3,,,,,,,,,2,,,,75,101
99198,note_on,15,0,3,,,,,,,,,2,,,,77,0
99240,set_tempo,60,1,0,,,,,,1071429,,,,,,,,
99243,note_on,45,0,3,,,,,,,,,2,,,,75,0
99243,note_on,0,0,3,,,,,,,,,2,,,,74,101
99300,set_tempo,60,1,0,,,,,,1212121,,,,,,,,
99300,control_change,0,0,1,,,,,,,,,0,11,55,,,
99300,note_on,1095,0,1,,,,,,,,,0,,,,87,111
99303,note_on,60,0,3,,,,,,,,,2,,,,74,0
99303,note_on,0,0,3,,,,,,,,,2,,,,72,101
99330,set_tempo,30,1,0,,,,,,1290323,,,,,,,,
99355,note_on,55,0,1,,,,,,,,,0,,,,87,0
99358,note_on,55,0,3,,,,,,,,,2,,,,72,0
99360,note_on,0,0,1,,,,,,,,,0,,,,87,111
99360,control_change,5,0,1,,,,,,,,,0,11,55,,,
99360,note_on,0,0,7,,,,,,,,,10,,,,69,103
99360,control_change,180,0,7,,,,,,,,,10,11,32,,,
99360,set_tempo,30,1,0,,,,,,1156069,,,,,,,,
99362,note_on,0,0,8,,,,,,,,,11,,,,63,103
99362,note_on,0,0,8,,,,,,,,,11,,,,60,103
99362,control_change,180,0,8,,,,,,,,,11,11,32,,,
99362,note_on,0,0,9,,,,,,,,,12,,,,53,101
99362,control_change,180,0,9,,,,,,,,,12,11,32,,,
99365,note_on,0,0,11,,,,,,,,,13,,,,53,100
99365,control_change,180,0,11,,,,,,,,,13,11,32,,,
99368,note_on,0,0,12,,,,,,,,,14,,,,41,96
99368,control_change,180,0,12,,,,,,,,,14,11,32,,,
99377,control_change,17,0,7,,,,,,,,,10,11,35,,,
99379,control_change,17,0,8,,,,,,,,,11,11,35,,,
99379,control_change,17,0,9,,,,,,,,,12,11,35,,,
99382,control_change,17,0,11,,,,,,,,,13,11,35,,,
99384,control_change,24,0,1,,,,,,,,,0,11,56,,,
99385,control_change,17,0,12,,,,,,,,,14,11,35,,,
99395,control_change,18,0,7,,,,,,,,,10,11,38,,,
99397,control_change,18,0,9,,,,,,,,,12,11,38,,,
99397,control_change,18,0,8,,,,,,,,,11,11,38,,,
99400,control_change,18,0,11,,,,,,,,,13,11,38,,,
99403,control_change,18,0,12,,,,,,,,,14,11,38,,,
99408,control_change,24,0,1,,,,,,,,,0,11,57,,,
99413,control_change,18,0,7,,,,,,,,,10,11,41,,,
99415,control_change,18,0,9,,,,,,,,,12,11,41,,,
99415,control_change,18,0,8,,,,,,,,,11,11,41,,,
99418,control_change,18,0,11,,,,,,,,,13,11,41,,,
99420,set_tempo,60,1,0,,,,,,1061947,,,,,,,,
99420,note_on,12,0,1,,,,,,,,,0,,,,87,0
99420,note_on,0,0,1,,,,,,,,,0,,,,86,111
99421,control_change,18,0,12,,,,,,,,,14,11,41,,,
99432,control_change,12,0,1,,,,,,,,,0,11,58,,,
99434,control_change,21,0,7,,,,,,,,,10,11,43,,,
99436,control_change,21,0,9,,,,,,,,,12,11,43,,,
99436,control_change,21,0,8,,,,,,,,,11,11,43,,,
99439,control_change,21,0,11,,,,,,,,,13,11,43,,,
99442,control_change,21,0,12,,,,,,,,,14,11,43,,,
99449,control_change,15,0,7,,,,,,,,,10,11,44,,,
99451,control_change,15,0,9,,,,,,,,,12,11,44,,,
99451,control_change,15,0,8,,,,,,,,,11,11,44,,,
99454,control_change,15,0,11,,,,,,,,,13,11,44,,,
99456,control_change,24,0,1,,,,,,,,,0,11,60,,,
99457,control_change,15,0,12,,,,,,,,,14,11,44,,,
99464,control_change,15,0,7,,,,,,,,,10,11,45,,,
99466,control_change,15,0,8,,,,,,,,,11,11,45,,,
99466,control_change,15,0,9,,,,,,,,,12,11,45,,,
99469,control_change,15,0,11,,,,,,,,,13,11,45,,,
99472,control_change,15,0,12,,,,,,,,,14,11,45,,,
99479,control_change,15,0,7,,,,,,,,,10,11,46,,,
99480,note_on,24,0,1,,,,,,,,,0,,,,86,0
99480,note_on,0,0,1,,,,,,,,,0,,,,84,111
99480,control_change,0,0,1,,,,,,,,,0,11,61,,,
99481,control_change,15,0,8,,,,,,,,,11,11,46,,,
99481,control_change,15,0,9,,,,,,,,,12,11,46,,,
99482,note_on,0,0,2,,,,,,,,,1,,,,75,110
99482,control_change,0,0,2,,,,,,,,,1,11,61,,,
99482,note_on,1325,0,2,,,,,,,,,1,,,,72,110
99483,note_on,0,0,5,,,,,,,,,4,,,,63,82
99483,control_change,660,0,5,,,,,,,,,4,11,72,,,
99484,control_change,15,0,11,,,,,,,,,13,11,46,,,
99485,note_on,660,0,6,,,,,,,,,5,,,,60,82
99485,control_change,0,0,6,,,,,,,,,5,11,72,,,
99487,control_change,15,0,12,,,,,,,,,14,11,46,,,
99494,control_change,15,0,7,,,,,,,,,10,11,47,,,
99496,control_change,15,0,8,,,,,,,,,11,11,47,,,
99496,control_change,15,0,9,,,,,,,,,12,11,47,,,
99499,control_change,15,0,11,,,,,,,,,13,11,47,,,
99502,control_change,15,0,12,,,,,,,,,14,11,47,,,
99504,control_change,24,0,1,,,,,,,,,0,11,61,,,
99506,control_change,24,0,2,,,,,,,,,1,11,61,,,
99507,control_change,24,0,5,,,,,,,,,4,11,74,,,
99509,control_change,15,0,7,,,,,,,,,10,11,48,,,
99509,control_change,24,0,6,,,,,,,,,5,11,74,,,
99511,control_change,15,0,8,,,,,,,,,11,11,48,,,
99511,control_change,15,0,9,,,,,,,,,12,11,48,,,
99514,control_change,15,0,11,,,,,,,,,13,11,48,,,
99517,control_change,15,0,12,,,,,,,,,14,11,48,,,
99524,control_change,15,0,7,,,,,,,,,10,11,49,,,
99526,control_change,15,0,9,,,,,,,,,12,11,49,,,
99526,control_change,15,0,8,,,,,,,,,11,11,49,,,
99528,control_change,24,0,1,,,,,,,,,0,11,63,,,
99529,control_change,15,0,11,,,,,,,,,13,11,49,,,
99530,control_change,24,0,2,,,,,,,,,1,11,63,,,
99531,control_change,24,0,5,,,,,,,,,4,11,76,,,
99532,control_change,15,0,12,,,,,,,,,14,11,49,,,
99533,control_change,24,0,6,,,,,,,,,5,11,76,,,
99535,note_on,7,0,1,,,,,,,,,0,,,,84,0
99537,note_on,7,0,2,,,,,,,,,1,,,,75,0
99537,note_on,0,0,2,,,,,,,,,1,,,,72,0
99538,note_on,7,0,5,,,,,,,,,4,,,,63,0
99539,control_change,15,0,7,,,,,,,,,10,11,50,,,
99540,note_on,7,0,6,,,,,,,,,5,,,,60,0
99540,note_on,5,0,1,,,,,,,,,0,,,,86,111
99540,set_tempo,120,1,0,,,,,,1224490,,,,,,,,
99541,control_change,15,0,8,,,,,,,,,11,11,50,,,
99541,control_change,15,0,9,,,,,,,,,12,11,50,,,
99542,note_on,5,0,2,,,,,,,,,1,,,,72,110
99542,note_on,0,0,2,,,,,,,,,1,,,,75,110
99543,note_on,5,0,5,,,,,,,,,4,,,,63,82
99544,control_change,15,0,11,,,,,,,,,13,11,50,,,
99545,note_on,5,0,6,,,,,,,,,5,,,,60,82
99547,control_change,15,0,12,,,,,,,,,14,11,50,,,
99552,control_change,12,0,1,,,,,,,,,0,11,64,,,
99554,control_change,15,0,7,,,,,,,,,10,11,51,,,
99554,control_change,12,0,2,,,,,,,,,1,11,64,,,
99555,control_change,12,0,5,,,,,,,,,4,11,78,,,
99555,note_on,3,0,1,,,,,,,,,0,,,,86,0
99555,note_on,0,0,1,,,,,,,,,0,,,,84,111
99556,control_change,15,0,8,,,,,,,,,11,11,51,,,
99556,control_change,15,0,9,,,,,,,,,12,11,51,,,
99557,control_change,12,0,6,,,,,,,,,5,11,78,,,
99559,control_change,15,0,11,,,,,,,,,13,11,51,,,
99562,control_change,15,0,12,,,,,,,,,14,11,51,,,
99569,control_change,15,0,7,,,,,,,,,10,11,52,,,
99571,control_change,15,0,8,,,,,,,,,11,11,52,,,
99571,control_change,15,0,9,,,,,,,,,12,11,52,,,
99574,control_change,15,0,11,,,,,,,,,13,11,52,,,
99576,control_change,21,0,1,,,,,,,,,0,11,65,,,
99577,control_change,15,0,12,,,,,,,,,14,11,52,,,
99578,control_change,24,0,2,,,,,,,,,1,11,65,,,
99579,control_change,24,0,5,,,,,,,,,4,11,80,,,
99581,control_change,24,0,6,,,,,,,,,5,11,80,,,
99584,control_change,15,0,7,,,,,,,,,10,11,53,,,
99586,control_change,15,0,9,,,,,,,,,12,11,53,,,
99586,control_change,15,0,8,,,,,,,,,11,11,53,,,
99589,control_change,15,0,11,,,,,,,,,13,11,53,,,
99592,control_change,15,0,12,,,,,,,,,14,11,53,,,
99599,control_change,15,0,7,,,,,,,,,10,11,54,,,
99600,note_on,24,0,1,,,,,,,,,0,,,,84,0
99600,note_on,0,0,1,,,,,,,,,0,,,,82,111
99600,control_change,0,0,1,,,,,,,,,0,11,66,,,
99600,set_tempo,60,1,0,,,,,,1142857,,,,,,,,
99601,control_change,15,0,8,,,,,,,,,11,11,54,,,
99601,control_change,15,0,9,,,,,,,,,12,11,54,,,
99602,note_on,24,0,2,,,,,,,,,1,,,,75,0
99602,note_on,0,0,2,,,,,,,,,1,,,,72,0
99602,note_on,0,0,2,,,,,,,,,1,,,,70,110
99602,note_on,0,0,2,,,,,,,,,1,,,,74,110
99602,control_change,0,0,2,,,,,,,,,1,11,66,,,
99603,note_on,0,0,5,,,,,,,,,4,,,,62,82
99603,control_change,0,0,5,,,,,,,,,4,11,82,,,
99603,note_on,24,0,5,,,,,,,,,4,,,,63,0
99604,control_change,15,0,11,,,,,,,,,13,11,54,,,
99605,control_change,0,0,6,,,,,,,,,5,11,82,,,
99605,note_on,24,0,6,,,,,,,,,5,,,,60,0
99605,note_on,0,0,6,,,,,,,,,5,,,,58,82
99607,control_change,15,0,12,,,,,,,,,14,11,54,,,
99614,control_change,15,0,7,,,,,,,,,10,11,55,,,
99616,control_change,15,0,9,,,,,,,,,12,11,55,,,
99616,control_change,15,0,8,,,,,,,,,11,11,55,,,
99619,control_change,15,0,11,,,,,,,,,13,11,55,,,
99622,control_change,15,0,12,,,,,,,,,14,11,55,,,
99624,control_change,24,0,1,,,,,,,,,0,11,67,,,
99626,control_change,24,0,2,,,,,,,,,1,11,67,,,
99627,control_change,24,0,5,,,,,,,,,4,11,84,,,
99629,control_change,15,0,7,,,,,,,,,10,11,56,,,
99629,control_change,24,0,6,,,,,,,,,5,11,84,,,
99631,control_change,15,0,9,,,,,,,,,12,11,56,,,
99631,control_change,15,0,8,,,,,,,,,11,11,56,,,
99634,control_change,15,0,11,,,,,,,,,13,11,56,,,
99637,control_change,15,0,12,,,,,,,,,14,11,56,,,
99644,control_change,15,0,7,,,,,,,,,10,11,57,,,
99646,control_change,15,0,9,,,,,,,,,12,11,57,,,
99646,control_change,15,0,8,,,,,,,,,11,11,57,,,
99648,control_change,24,0,1,,,,,,,,,0,11,68,,,
99649,control_change,15,0,11,,,,,,,,,13,11,57,,,
99650,control_change,24,0,2,,,,,,,,,1,11,68,,,
99651,control_change,24,0,5,,,,,,,,,4,11,86,,,
99652,control_change,15,0,12,,,,,,,,,14,11,57,,,
99653,control_change,24,0,6,,,,,,,,,5,11,86,,,
99659,control_change,15,0,7,,,,,,,,,10,11,58,,,
99660,note_on,0,0,1,,,,,,,,,0,,,,81,111
99660,note_on,0,0,1,,,,,,,,,0,,,,77,111
99660,note_on,12,0,1,,,,,,,,,0,,,,82,0
99661,control_change,15,0,8,,,,,,,,,11,11,58,,,
99661,control_change,15,0,9,,,,,,,,,12,11,58,,,
99662,note_on,0,0,2,,,,,,,,,1,,,,69,110
99662,note_on,0,0,2,,,,,,,,,1,,,,72,110
99662,note_on,0,0,2,,,,,,,,,1,,,,70,0
99662,note_on,12,0,2,,,,,,,,,1,,,,74,0
99663,control_change,305,0,3,,,,,,,,,2,11,69,,,
99663,note_on,0,0,3,,,,,,,,,2,,,,65,96
99663,note_on,0,0,3,,,,,,,,,2,,,,69,96
99663,note_on,12,0,5,,,,,,,,,4,,,,62,0
99663,note_on,0,0,5,,,,,,,,,4,,,,60,82
99664,control_change,15,0,11,,,,,,,,,13,11,58,,,
99665,control_change,0,0,4,,,,,,,,,3,11,69,,,
99665,note_on,0,0,4,,,,,,,,,3,,,,41,95
99665,note_on,660,0,4,,,,,,,,,3,,,,53,95
99665,note_on,0,0,6,,,,,,,,,5,,,,53,82
99665,note_on,12,0,6,,,,,,,,,5,,,,58,0
99667,control_change,15,0,12,,,,,,,,,14,11,58,,,
99672,control_change,12,0,1,,,,,,,,,0,11,70,,,
99674,control_change,15,0,7,,,,,,,,,10,11,59,,,
99674,control_change,12,0,2,,,,,,,,,1,11,70,,,
99675,control_change,12,0,5,,,,,,,,,4,11,88,,,
99676,control_change,15,0,8,,,,,,,,,11,11,59,,,
99676,control_change,15,0,9,,,,,,,,,12,11,59,,,
99677,control_change,12,0,6,,,,,,,,,5,11,88,,,
99679,control_change,15,0,11,,,,,,,,,13,11,59,,,
99682,control_change,15,0,12,,,,,,,,,14,11,59,,,
99687,control_change,24,0,3,,,,,,,,,2,11,70,,,
99689,control_change,15,0,7,,,,,,,,,10,11,60,,,
99689,control_change,24,0,4,,,,,,,,,3,11,70,,,
99690,set_tempo,90,1,0,,,,,,1518987,,,,,,,,
99691,control_change,15,0,9,,,,,,,,,12,11,60,,,
99691,control_change,15,0,8,,,,,,,,,11,11,60,,,
99694,control_change,15,0,11,,,,,,,,,13,11,60,,,
99696,control_change,24,0,1,,,,,,,,,0,11,70,,,
99697,control_change,15,0,12,,,,,,,,,14,11,60,,,
99698,control_change,24,0,2,,,,,,,,,1,11,70,,,
99699,control_change,24,0,5,,,,,,,,,4,11,90,,,
99701,control_change,24,0,6,,,,,,,,,5,11,90,,,
99704,control_change,15,0,7,,,,,,,,,10,11,61,,,
99706,control_change,15,0,9,,,,,,,,,12,11,61,,,
99706,control_change,15,0,8,,,,,,,,,11,11,61,,,
99709,control_change,15,0,11,,,,,,,,,13,11,61,,,
99711,control_change,24,0,3,,,,,,,,,2,11,71,,,
99712,control_change,15,0,12,,,,,,,,,14,11,61,,,
99713,control_change,24,0,4,,,,,,,,,3,11,71,,,
99715,note_on,11,0,7,,,,,,,,,10,,,,69,0
99715,note_on,0,0,1,,,,,,,,,0,,,,81,0
99715,note_on,19,0,1,,,,,,,,,0,,,,77,0
99717,note_on,11,0,9,,,,,,,,,12,,,,53,0
99717,note_on,0,0,2,,,,,,,,,1,,,,72,0
99717,note_on,0,0,8,,,,,,,,,11,,,,60,0
99717,note_on,11,0,8,,,,,,,,,11,,,,63,0
99717,note_on,19,0,2,,,,,,,,,1,,,,69,0
99718,note_on,19,0,5,,,,,,,,,4,,,,60,0
99718,note_on,7,0,3,,,,,,,,,2,,,,69,0
99718,note_on,0,0,3,,,,,,,,,2,,,,65,0
99719,control_change,4,0,7,,,,,,,,,10,11,62,,,
99720,note_on,1,0,7,,,,,,,,,10,,,,70,103
99720,note_on,11,0,11,,,,,,,,,13,,,,53,0
99720,note_on,0,0,4,,,,,,,,,3,,,,53,0
99720,note_on,7,0,4,,,,,,,,,3,,,,41,0
99720,control_change,5,0,1,,,,,,,,,0,11,80,,,
99720,note_on,0,0,1,,,,,,,,,0,,,,82,96
99720,note_on,0,0,1,,,,,,,,,0,,,,77,96
99720,set_tempo,30,1,0,,,,,,1214575,,,,,,,,
99720,note_on,19,0,6,,,,,,,,,5,,,,53,0
99721,control_change,4,0,8,,,,,,,,,11,11,62,,,
99721,control_change,4,0,9,,,,,,,,,12,11,62,,,
99722,note_on,1,0,8,,,,,,,,,11,,,,58,103
99722,note_on,1,0,9,,,,,,,,,12,,,,53,101
99722,note_on,0,0,2,,,,,,,,,1,,,,70,95
99722,control_change,0,0,2,,,,,,,,,1,11,80,,,
99722,note_on,5,0,2,,,,,,,,,1,,,,74,95
99722,note_on,0,0,8,,,,,,,,,11,,,,62,103
99723,note_on,11,0,12,,,,,,,,,14,,,,41,0
99723,note_on,0,0,3,,,,,,,,,2,,,,65,96
99723,control_change,0,0,3,,,,,,,,,2,11,80,,,
99723,note_on,5,0,3,,,,,,,,,2,,,,70,96
99723,note_on,5,0,5,,,,,,,,,4,,,,58,82
99723,control_change,0,0,5,,,,,,,,,4,11,102,,,
99724,control_change,4,0,7,,,,,,,,,10,11,65,,,
99724,control_change,4,0,11,,,,,,,,,13,11,62,,,
99725,control_change,5,0,4,,,,,,,,,3,11,80,,,
99725,note_on,0,0,4,,,,,,,,,3,,,,53,95
99725,note_on,0,0,4,,,,,,,,,3,,,,46,95
99725,control_change,0,0,6,,,,,,,,,5,11,102,,,
99725,note_on,5,0,6,,,,,,,,,5,,,,50,82
99725,note_on,1,0,11,,,,,,,,,13,,,,46,100
99726,control_change,4,0,9,,,,,,,,,12,11,65,,,
99726,control_change,4,0,8,,,,,,,,,11,11,65,,,
99727,control_change,4,0,12,,,,,,,,,14,11,62,,,
99728,note_on,1,0,12,,,,,,,,,14,,,,34,96
99729,control_change,4,0,11,,,,,,,,,13,11,65,,,
99729,control_change,5,0,7,,,,,,,,,10,11,68,,,
99731,control_change,5,0,8,,,,,,,,,11,11,68,,,
99731,control_change,5,0,9,,,,,,,,,12,11,68,,,
99732,control_change,4,0,12,,,,,,,,,14,11,65,,,
99734,control_change,5,0,11,,,,,,,,,13,11,68,,,
99737,control_change,5,0,12,,,,,,,,,14,11,68,,,
99738,control_change,18,0,1,,,,,,,,,0,11,78,,,
99740,control_change,18,0,2,,,,,,,,,1,11,78,,,
99741,control_change,18,0,5,,,,,,,,,4,11,99,,,
99741,control_change,18,0,3,,,,,,,,,2,11,78,,,
99743,control_change,14,0,7,,,,,,,,,10,11,65,,,
99743,control_change,18,0,6,,,,,,,,,5,11,99,,,
99743,control_change,18,0,4,,,,,,,,,3,11,78,,,
99745,control_change,14,0,8,,,,,,,,,11,11,65,,,
99745,control_change,14,0,9,,,,,,,,,12,11,65,,,
99748,control_change,14,0,11,,,,,,,,,13,11,65,,,
99749,control_change,6,0,7,,,,,,,,,10,11,62,,,
99751,control_change,6,0,9,,,,,,,,,12,11,62,,,
99751,control_change,14,0,12,,,,,,,,,14,11,65,,,
99751,control_change,6,0,8,,,,,,,,,11,11,62,,,
99754,control_change,6,0,11,,,,,,,,,13,11,62,,,
99756,control_change,18,0,1,,,,,,,,,0,11,76,,,
99757,control_change,6,0,12,,,,,,,,,14,11,62,,,
99758,control_change,9,0,7,,,,,,,,,10,11,59,,,
99758,control_change,18,0,2,,,,,,,,,1,11,76,,,
99759,control_change,18,0,3,,,,,,,,,2,11,76,,,
99759,control_change,18,0,5,,,,,,,,,4,11,96,,,
99760,control_change,9,0,9,,,,,,,,,12,11,59,,,
99760,control_change,9,0,8,,,,,,,,,11,11,59,,,
99761,control_change,18,0,4,,,,,,,,,3,11,76,,,
99761,control_change,18,0,6,,,,,,,,,5,11,96,,,
99763,control_change,9,0,11,,,,,,,,,13,11,59,,,
99766,control_change,9,0,12,,,,,,,,,14,11,59,,,
99767,control_change,9,0,7,,,,,,,,,10,11,56,,,
99769,control_change,9,0,8,,,,,,,,,11,11,56,,,
99769,control_change,9,0,9,,,,,,,,,12,11,56,,,
99772,control_change,9,0,11,,,,,,,,,13,11,56,,,
99774,control_change,18,0,1,,,,,,,,,0,11,73,,,
99775,control_change,9,0,12,,,,,,,,,14,11,56,,,
99776,control_change,18,0,2,,,,,,,,,1,11,73,,,
99776,control_change,9,0,7,,,,,,,,,10,11,53,,,
99777,control_change,18,0,3,,,,,,,,,2,11,73,,,
99777,control_change,18,0,5,,,,,,,,,4,11,93,,,
99778,control_change,9,0,9,,,,,,,,,12,11,53,,,
99778,control_change,9,0,8,,,,,,,,,11,11,53,,,
99779,control_change,18,0,6,,,,,,,,,5,11,93,,,
99779,control_change,18,0,4,,,,,,,,,3,11,73,,,
99780,set_tempo,60,1,0,,,,,,1100917,,,,,,,,
99781,control_change,9,0,11,,,,,,,,,13,11,53,,,
99784,control_change,9,0,12,,,,,,,,,14,11,53,,,
99785,control_change,9,0,7,,,,,,,,,10,11,50,,,
99787,control_change,9,0,9,,,,,,,,,12,11,50,,,
99787,control_change,9,0,8,,,,,,,,,11,11,50,,,
99790,control_change,9,0,11,,,,,,,,,13,11,50,,,
99793,control_change,9,0,12,,,,,,,,,14,11,50,,,
99794,control_change,9,0,7,,,,,,,,,10,11,47,,,
99795,control_change,21,0,1,,,,,,,,,0,11,70,,,
99796,control_change,9,0,8,,,,,,,,,11,11,47,,,
99796,control_change,9,0,9,,,,,,,,,12,11,47,,,
99797,control_change,21,0,2,,,,,,,,,1,11,70,,,
99798,control_change,21,0,3,,,,,,,,,2,11,70,,,
99798,control_change,21,0,5,,,,,,,,,4,11,90,,,
99799,control_change,9,0,11,,,,,,,,,13,11,47,,,
99800,control_change,21,0,4,,,,,,,,,3,11,70,,,
99800,control_change,21,0,6,,,,,,,,,5,11,90,,,
99802,control_change,9,0,12,,,,,,,,,14,11,47,,,
99803,control_change,9,0,7,,,,,,,,,10,11,44,,,
99805,control_change,9,0,8,,,,,,,,,11,11,44,,,
99805,control_change,9,0,9,,,,,,,,,12,11,44,,,
99808,control_change,9,0,11,,,,,,,,,13,11,44,,,
99810,control_change,15,0,1,,,,,,,,,0,11,69,,,
99811,control_change,9,0,12,,,,,,,,,14,11,44,,,
99812,control_change,15,0,2,,,,,,,,,1,11,69,,,
99812,control_change,9,0,7,,,,,,,,,10,11,41,,,
99813,control_change,15,0,3,,,,,,,,,2,11,69,,,
99813,control_change,15,0,5,,,,,,,,,4,11,88,,,
99814,control_change,9,0,8,,,,,,,,,11,11,41,,,
99814,control_change,9,0,9,,,,,,,,,12,11,41,,,
99815,control_change,15,0,4,,,,,,,,,3,11,69,,,
99815,control_change,15,0,6,,,,,,,,,5,11,88,,,
99817,control_change,9,0,11,,,,,,,,,13,11,41,,,
99820,control_change,9,0,12,,,,,,,,,14,11,41,,,
99821,control_change,9,0,7,,,,,,,,,10,11,38,,,
99823,control_change,9,0,8,,,,,,,,,11,11,38,,,
99823,control_change,9,0,9,,,,,,,,,12,11,38,,,
99825,control_change,15,0,1,,,,,,,,,0,11,67,,,
99826,control_change,9,0,11,,,,,,,,,13,11,38,,,
99827,control_change,15,0,2,,,,,,,,,1,11,67,,,
99828,control_change,15,0,3,,,,,,,,,2,11,67,,,
99828,control_change,15,0,5,,,,,,,,,4,11,86,,,
99829,control_change,9,0,12,,,,,,,,,14,11,38,,,
99830,control_change,15,0,6,,,,,,,,,5,11,86,,,
99830,control_change,9,0,7,,,,,,,,,10,11,35,,,
99830,control_change,15,0,4,,,,,,,,,3,11,67,,,
99832,control_change,9,0,9,,,,,,,,,12,11,35,,,
99832,control_change,9,0,8,,,,,,,,,11,11,35,,,
99835,control_change,9,0,11,,,,,,,,,13,11,35,,,
99838,control_change,9,0,12,,,,,,,,,14,11,35,,,
99839,control_change,9,0,7,,,,,,,,,10,11,32,,,
99840,note_on,1,0,7,,,,,,,,,10,,,,70,0
99840,control_change,15,0,1,,,,,,,,,0,11,65,,,
99841,control_change,9,0,8,,,,,,,,,11,11,32,,,
99841,control_change,9,0,9,,,,,,,,,12,11,32,,,
99842,note_on,1,0,8,,,,,,,,,11,,,,62,0
99842,control_change,15,0,2,,,,,,,,,1,11,65,,,
99842,note_on,0,0,8,,,,,,,,,11,,,,58,0
99842,note_on,1,0,9,,,,,,,,,12,,,,53,0
99843,control_change,15,0,3,,,,,,,,,2,11,65,,,
99843,control_change,15,0,5,,,,,,,,,4,11,84,,,
99844,control_change,9,0,11,,,,,,,,,13,11,32,,,
99845,control_change,15,0,6,,,,,,,,,5,11,84,,,
99845,note_on,1,0,11,,,,,,,,,13,,,,46,0
99845,control_change,15,0,4,,,,,,,,,3,11,65,,,
99847,control_change,9,0,12,,,,,,,,,14,11,32,,,
99848,note_on,1,0,12,,,,,,,,,14,,,,34,0
99855,control_change,15,0,1,,,,,,,,,0,11,64,,,
99857,control_change,15,0,2,,,,,,,,,1,11,64,,,
99858,control_change,15,0,5,,,,,,,,,4,11,82,,,
99858,control_change,15,0,3,,,,,,,,,2,11,64,,,
99860,control_change,15,0,4,,,,,,,,,3,11,64,,,
99860,control_change,15,0,6,,,,,,,,,5,11,82,,,
99870,control_change,15,0,1,,,,,,,,,0,11,62,,,
99872,control_change,15,0,2,,,,,,,,,1,11,62,,,
99873,control_change,15,0,3,,,,,,,,,2,11,62,,,
99873,control_change,15,0,5,,,,,,,,,4,11,80,,,
99875,control_change,15,0,6,,,,,,,,,5,11,80,,,
99875,control_change,15,0,4,,,,,,,,,3,11,62,,,
99885,control_change,15,0,1,,,,,,,,,0,11,61,,,
99887,control_change,15,0,2,,,,,,,,,1,11,61,,,
99888,control_change,15,0,5,,,,,,,,,4,11,78,,,
99888,control_change,15,0,3,,,,,,,,,2,11,61,,,
99890,control_change,15,0,6,,,,,,,,,5,11,78,,,
99890,control_change,15,0,4,,,,,,,,,3,11,61,,,
99900,control_change,15,0,1,,,,,,,,,0,11,59,,,
99902,control_change,15,0,2,,,,,,,,,1,11,59,,,
99903,control_change,15,0,5,,,,,,,,,4,11,76,,,
99903,control_change,15,0,3,,,,,,,,,2,11,59,,,
99905,control_change,15,0,4,,,,,,,,,3,11,59,,,
99905,control_change,15,0,6,,,,,,,,,5,11,76,,,
99915,control_change,15,0,1,,,,,,,,,0,11,57,,,
99917,control_change,15,0,2,,,,,,,,,1,11,57,,,
99918,control_change,15,0,3,,,,,,,,,2,11,57,,,
99918,control_change,15,0,5,,,,,,,,,4,11,74,,,
99920,control_change,15,0,4,,,,,,,,,3,11,57,,,
99920,control_change,15,0,6,,,,,,,,,5,11,74,,,
99930,control_change,15,0,1,,,,,,,,,0,11,55,,,
99932,control_change,15,0,2,,,,,,,,,1,11,55,,,
99933,control_change,15,0,3,,,,,,,,,2,11,55,,,
99933,control_change,15,0,5,,,,,,,,,4,11,72,,,
99935,control_change,15,0,6,,,,,,,,,5,11,72,,,
99935,control_change,15,0,4,,,,,,,,,3,11,55,,,
99945,control_change,15,0,1,,,,,,,,,0,11,54,,,
99947,control_change,15,0,2,,,,,,,,,1,11,54,,,
99948,control_change,15,0,5,,,,,,,,,4,11,70,,,
99948,control_change,15,0,3,,,,,,,,,2,11,54,,,
99950,control_change,15,0,4,,,,,,,,,3,11,54,,,
99950,control_change,15,0,6,,,,,,,,,5,11,70,,,
99960,control_change,15,0,1,,,,,,,,,0,11,52,,,
99962,control_change,15,0,2,,,,,,,,,1,11,52,,,
99963,control_change,15,0,5,,,,,,,,,4,11,68,,,
99963,control_change,15,0,3,,,,,,,,,2,11,52,,,
99965,control_change,15,0,4,,,,,,,,,3,11,52,,,
99965,control_change,15,0,6,,,,,,,,,5,11,68,,,
99975,control_change,15,0,1,,,,,,,,,0,11,51,,,
99977,control_change,15,0,2,,,,,,,,,1,11,51,,,
99978,control_change,15,0,5,,,,,,,,,4,11,66,,,
99978,control_change,15,0,3,,,,,,,,,2,11,51,,,
99980,control_change,15,0,6,,,,,,,,,5,11,66,,,
99980,control_change,15,0,4,,,,,,,,,3,11,51,,,
99990,control_change,15,0,1,,,,,,,,,0,11,49,,,
99992,control_change,15,0,2,,,,,,,,,1,11,49,,,
99993,control_change,15,0,5,,,,,,,,,4,11,64,,,
99993,control_change,15,0,3,,,,,,,,,2,11,49,,,
99995,control_change,15,0,6,,,,,,,,,5,11,64,,,
99995,control_change,15,0,4,,,,,,,,,3,11,49,,,
100005,control_change,15,0,1,,,,,,,,,0,11,47,,,
100007,control_change,15,0,2,,,,,,,,,1,11,47,,,
100008,control_change,15,0,3,,,,,,,,,2,11,47,,,
100008,control_change,15,0,5,,,,,,,,,4,11,62,,,
100010,control_change,15,0,4,,,,,,,,,3,11,47,,,
100010,control_change,15,0,6,,,,,,,,,5,11,62,,,
100020,control_change,15,0,1,,,,,,,,,0,11,45,,,
100022,control_change,15,0,2,,,,,,,,,1,11,45,,,
100023,control_change,15,0,5,,,,,,,,,4,11,60,,,
100023,control_change,15,0,3,,,,,,,,,2,11,45,,,
100025,control_change,15,0,6,,,,,,,,,5,11,60,,,
100025,control_change,15,0,4,,,,,,,,,3,11,45,,,
100035,control_change,15,0,1,,,,,,,,,0,11,44,,,
100037,control_change,15,0,2,,,,,,,,,1,11,44,,,
100038,control_change,15,0,5,,,,,,,,,4,11,58,,,
100038,control_change,15,0,3,,,,,,,,,2,11,44,,,
100040,control_change,15,0,4,,,,,,,,,3,11,44,,,
100040,control_change,15,0,6,,,,,,,,,5,11,58,,,
100050,control_change,15,0,1,,,,,,,,,0,11,43,,,
100052,control_change,15,0,2,,,,,,,,,1,11,43,,,
100053,control_change,15,0,5,,,,,,,,,4,11,56,,,
100053,control_change,15,0,3,,,,,,,,,2,11,43,,,
100055,control_change,15,0,6,,,,,,,,,5,11,56,,,
100055,control_change,15,0,4,,,,,,,,,3,11,43,,,
100065,control_change,15,0,1,,,,,,,,,0,11,41,,,
100067,control_change,15,0,2,,,,,,,,,1,11,41,,,
100068,control_change,15,0,5,,,,,,,,,4,11,54,,,
100068,control_change,15,0,3,,,,,,,,,2,11,41,,,
100070,control_change,15,0,4,,,,,,,,,3,11,41,,,
100070,control_change,15,0,6,,,,,,,,,5,11,54,,,
100079,program_change,239,0,7,,,,,,,,45,10,,,,,
100080,control_change,15,0,1,,,,,,,,,0,11,39,,,
100080,note_on,0,0,7,,,,,,,,,10,,,,62,26
100080,control_change,1,0,7,,,,,,,,,10,11,100,,,
100080,set_tempo,300,1,0,,,,,,1290323,,,,,,,,
100081,program_change,239,0,9,,,,,,,,45,12,,,,,
100081,program_change,239,0,8,,,,,,,,45,11,,,,,
100082,note_on,0,0,8,,,,,,,,,11,,,,58,26
100082,control_change,1,0,8,,,,,,,,,11,11,100,,,
100082,note_on,0,0,9,,,,,,,,,12,,,,50,24
100082,note_on,0,0,9,,,,,,,,,12,,,,53,24
100082,control_change,15,0,2,,,,,,,,,1,11,39,,,
100082,control_change,1,0,9,,,,,,,,,12,11,100,,,
100083,control_change,15,0,3,,,,,,,,,2,11,39,,,
100084,program_change,239,0,11,,,,,,,,45,13,,,,,
100085,note_on,0,0,11,,,,,,,,,13,,,,46,29
100085,control_change,1,0,11,,,,,,,,,13,11,100,,,
100085,control_change,15,0,4,,,,,,,,,3,11,39,,,
100087,program_change,239,0,12,,,,,,,,45,14,,,,,
100088,note_on,0,0,12,,,,,,,,,14,,,,34,23
100088,control_change,1,0,12,,,,,,,,,14,11,100,,,
100110,control_change,30,0,1,,,,,,,,,0,11,39,,,
100112,control_change,30,0,2,,,,,,,,,1,11,39,,,
100113,control_change,45,0,5,,,,,,,,,4,11,39,,,
100113,control_change,30,0,3,,,,,,,,,2,11,39,,,
100115,control_change,45,0,6,,,,,,,,,5,11,39,,,
100115,control_change,30,0,4,,,,,,,,,3,11,39,,,
100124,control_change,14,0,1,,,,,,,,,0,11,36,,,
100126,control_change,14,0,2,,,,,,,,,1,11,36,,,
100127,control_change,14,0,5,,,,,,,,,4,11,36,,,
100127,control_change,14,0,3,,,,,,,,,2,11,36,,,
100129,control_change,14,0,6,,,,,,,,,5,11,36,,,
100129,control_change,14,0,4,,,,,,,,,3,11,36,,,
100138,control_change,14,0,1,,,,,,,,,0,11,33,,,
100140,control_change,14,0,2,,,,,,,,,1,11,33,,,
100141,control_change,14,0,3,,,,,,,,,2,11,33,,,
100141,control_change,14,0,5,,,,,,,,,4,11,33,,,
100143,control_change,14,0,6,,,,,,,,,5,11,33,,,
100143,control_change,14,0,4,,,,,,,,,3,11,33,,,
100152,control_change,14,0,1,,,,,,,,,0,11,30,,,
100154,control_change,14,0,2,,,,,,,,,1,11,30,,,
100155,control_change,14,0,3,,,,,,,,,2,11,30,,,
100155,control_change,14,0,5,,,,,,,,,4,11,30,,,
100157,control_change,14,0,6,,,,,,,,,5,11,30,,,
100157,control_change,14,0,4,,,,,,,,,3,11,30,,,
100166,control_change,14,0,1,,,,,,,,,0,11,27,,,
100168,control_change,14,0,2,,,,,,,,,1,11,27,,,
100169,control_change,14,0,5,,,,,,,,,4,11,27,,,
100169,control_change,14,0,3,,,,,,,,,2,11,27,,,
100171,control_change,14,0,6,,,,,,,,,5,11,27,,,
100171,control_change,14,0,4,,,,,,,,,3,11,27,,,
100180,control_change,14,0,1,,,,,,,,,0,11,24,,,
100182,control_change,14,0,2,,,,,,,,,1,11,24,,,
100183,control_change,14,0,5,,,,,,,,,4,11,24,,,
100183,control_change,14,0,3,,,,,,,,,2,11,24,,,
100185,control_change,14,0,6,,,,,,,,,5,11,24,,,
100185,control_change,14,0,4,,,,,,,,,3,11,24,,,
100194,control_change,14,0,1,,,,,,,,,0,11,21,,,
100196,control_change,14,0,2,,,,,,,,,1,11,21,,,
100197,control_change,14,0,5,,,,,,,,,4,11,21,,,
100197,control_change,14,0,3,,,,,,,,,2,11,21,,,
100199,control_change,14,0,4,,,,,,,,,3,11,21,,,
100199,control_change,14,0,6,,,,,,,,,5,11,21,,,
100200,note_on,6,0,1,,,,,,,,,0,,,,77,0
100200,note_on,0,0,1,,,,,,,,,0,,,,82,0
100200,note_on,120,0,7,,,,,,,,,10,,,,62,0
100202,note_on,0,0,9,,,,,,,,,12,,,,50,0
100202,note_on,120,0,9,,,,,,,,,12,,,,53,0
100202,note_on,6,0,2,,,,,,,,,1,,,,70,0
100202,note_on,0,0,2,,,,,,,,,1,,,,74,0
100202,note_on,120,0,8,,,,,,,,,11,,,,58,0
100203,note_on,6,0,3,,,,,,,,,2,,,,65,0
100203,note_on,0,0,3,,,,,,,,,2,,,,70,0
100203,note_on,6,0,5,,,,,,,,,4,,,,58,0
100205,note_on,120,0,11,,,,,,,,,13,,,,46,0
100205,note_on,6,0,6,,,,,,,,,5,,,,50,0
100205,note_on,6,0,4,,,,,,,,,3,,,,53,0
100205,note_on,0,0,4,,,,,,,,,3,,,,46,0
100208,note_on,120,0,12,,,,,,,,,14,,,,34,0
100260,note_on,0,0,1,,,,,,,,,0,,,,77,83
100260,note_on,0,0,1,,,,,,,,,0,,,,65,83
100260,control_change,60,0,1,,,,,,,,,0,11,39,,,
100260,note_on,60,0,7,,,,,,,,,10,,,,62,18
100262,note_on,60,0,9,,,,,,,,,12,,,,50,16
100262,control_change,60,0,2,,,,,,,,,1,11,39,,,
100262,note_on,0,0,2,,,,,,,,,1,,,,70,82
100262,note_on,0,0,2,,,,,,,,,1,,,,74,82
100262,note_on,60,0,8,,,,,,,,,11,,,,58,18
100262,note_on,0,0,9,,,,,,,,,12,,,,53,16
100263,note_on,0,0,3,,,,,,,,,2,,,,62,83
100263,control_change,60,0,5,,,,,,,,,4,11,39,,,
100263,note_on,0,0,3,,,,,,,,,2,,,,65,83
100263,control_change,60,0,3,,,,,,,,,2,11,39,,,
100263,note_on,0,0,5,,,,,,,,,4,,,,62,70
100265,note_on,0,0,4,,,,,,,,,3,,,,46,82
100265,note_on,60,0,11,,,,,,,,,13,,,,46,20
100265,note_on,0,0,6,,,,,,,,,5,,,,58,70
100265,control_change,60,0,6,,,,,,,,,5,11,39,,,
100265,control_change,60,0,4,,,,,,,,,3,11,39,,,
100268,note_on,60,0,12,,,,,,,,,14,,,,34,13
100320,control_change,60,0,1,,,,,,,,,0,11,39,,,
100322,control_change,60,0,2,,,,,,,,,1,11,39,,,
100323,control_change,60,0,3,,,,,,,,,2,11,39,,,
100329,control_change,9,0,1,,,,,,,,,0,11,36,,,
100331,control_change,9,0,2,,,,,,,,,1,11,36,,,
100332,control_change,9,0,3,,,,,,,,,2,11,36,,,
100338,control_change,9,0,1,,,,,,,,,0,11,33,,,
100340,control_change,9,0,2,,,,,,,,,1,11,33,,,
100341,control_change,9,0,3,,,,,,,,,2,11,33,,,
100347,control_change,9,0,1,,,,,,,,,0,11,30,,,
100349,control_change,9,0,2,,,,,,,,,1,11,30,,,
100350,control_change,9,0,3,,,,,,,,,2,11,30,,,
100357,control_change,10,0,1,,,,,,,,,0,11,27,,,
100359,control_change,10,0,2,,,,,,,,,1,11,27,,,
100360,control_change,10,0,3,,,,,,,,,2,11,27,,,
100366,control_change,9,0,1,,,,,,,,,0,11,24,,,
100368,control_change,9,0,2,,,,,,,,,1,11,24,,,
100369,control_change,9,0,3,,,,,,,,,2,11,24,,,
100375,control_change,9,0,1,,,,,,,,,0,11,21,,,
100377,control_change,9,0,2,,,,,,,,,1,11,21,,,
100378,control_change,9,0,3,,,,,,,,,2,11,21,,,
100380,note_on,5,0,1,,,,,,,,,0,,,,65,0
100380,note_on,120,0,7,,,,,,,,,10,,,,62,0
100380,set_tempo,300,1,0,,,,,,1578947,,,,,,,,
100380,note_on,0,0,1,,,,,,,,,0,,,,77,0
100382,note_on,0,0,9,,,,,,,,,12,,,,50,0
100382,note_on,120,0,9,,,,,,,,,12,,,,53,0
100382,note_on,5,0,2,,,,,,,,,1,,,,74,0
100382,note_on,120,0,8,,,,,,,,,11,,,,58,0
100382,note_on,0,0,2,,,,,,,,,1,,,,70,0
100383,note_on,5,0,3,,,,,,,,,2,,,,65,0
100383,note_on,0,0,3,,,,,,,,,2,,,,62,0
100383,note_on,120,0,5,,,,,,,,,4,,,,62,0
100385,note_on,120,0,4,,,,,,,,,3,,,,46,0
100385,note_on,120,0,11,,,,,,,,,13,,,,46,0
100385,note_on,120,0,6,,,,,,,,,5,,,,58,0
100388,note_on,120,0,12,,,,,,,,,14,,,,34,0
100440,control_change,60,0,1,,,,,,,,,0,11,37,,,
100440,note_on,0,0,1,,,,,,,,,0,,,,74,76
100440,note_on,0,0,1,,,,,,,,,0,,,,65,76
100440,note_on,60,0,7,,,,,,,,,10,,,,62,15
100440,set_tempo,60,1,0,,,,,,2500000,,,,,,,,
100442,control_change,60,0,2,,,,,,,,,1,11,37,,,
100442,note_on,60,0,9,,,,,,,,,12,,,,50,13
100442,note_on,0,0,9,,,,,,,,,12,,,,53,13
100442,note_on,0,0,2,,,,,,,,,1,,,,70,75
100442,note_on,60,0,8,,,,,,,,,11,,,,58,15
100443,control_change,60,0,3,,,,,,,,,2,11,37,,,
100443,note_on,60,0,5,,,,,,,,,4,,,,58,63
100443,note_on,0,0,3,,,,,,,,,2,,,,65,76
100443,note_on,0,0,3,,,,,,,,,2,,,,62,76
100445,note_on,60,0,11,,,,,,,,,13,,,,46,16
100445,note_on,60,0,6,,,,,,,,,5,,,,50,63
100445,note_on,60,0,4,,,,,,,,,3,,,,46,75
100448,note_on,60,0,12,,,,,,,,,14,,,,34,10
100500,set_tempo,60,1,0,,,,,,1200000,,,,,,,,
100500,control_change,60,0,1,,,,,,,,,0,11,37,,,
100502,control_change,60,0,2,,,,,,,,,1,11,37,,,
100503,control_change,60,0,3,,,,,,,,,2,11,37,,,
100503,control_change,60,0,5,,,,,,,,,4,11,39,,,
100505,control_change,60,0,6,,,,,,,,,5,11,39,,,
100505,control_change,60,0,4,,,,,,,,,3,11,39,,,
100510,control_change,10,0,1,,,,,,,,,0,11,34,,,
100512,control_change,9,0,5,,,,,,,,,4,11,36,,,
100512,control_change,10,0,2,,,,,,,,,1,11,34,,,
100513,control_change,10,0,3,,,,,,,,,2,11,34,,,
100514,control_change,9,0,6,,,,,,,,,5,11,36,,,
100514,control_change,9,0,4,,,,,,,,,3,11,36,,,
100520,control_change,10,0,1,,,,,,,,,0,11,31,,,
100521,control_change,9,0,5,,,,,,,,,4,11,33,,,
100522,control_change,10,0,2,,,,,,,,,1,11,31,,,
100523,control_change,10,0,3,,,,,,,,,2,11,31,,,
100523,control_change,9,0,4,,,,,,,,,3,11,33,,,
100523,control_change,9,0,6,,,,,,,,,5,11,33,,,
100530,control_change,9,0,5,,,,,,,,,4,11,30,,,
100531,control_change,11,0,1,,,,,,,,,0,11,28,,,
100532,control_change,9,0,6,,,,,,,,,5,11,30,,,
100532,control_change,9,0,4,,,,,,,,,3,11,30,,,
100533,control_change,11,0,2,,,,,,,,,1,11,28,,,
100534,control_change,11,0,3,,,,,,,,,2,11,28,,,
100540,control_change,10,0,5,,,,,,,,,4,11,27,,,
100541,control_change,10,0,1,,,,,,,,,0,11,25,,,
100542,control_change,10,0,4,,,,,,,,,3,11,27,,,
100542,control_change,10,0,6,,,,,,,,,5,11,27,,,
100543,control_change,10,0,2,,,,,,,,,1,11,25,,,
100544,control_change,10,0,3,,,,,,,,,2,11,25,,,
100549,control_change,9,0,5,,,,,,,,,4,11,24,,,
100551,control_change,9,0,4,,,,,,,,,3,11,24,,,
100551,control_change,9,0,6,,,,,,,,,5,11,24,,,
100552,control_change,11,0,1,,,,,,,,,0,11,22,,,
100554,control_change,11,0,2,,,,,,,,,1,11,22,,,
100555,control_change,11,0,3,,,,,,,,,2,11,22,,,
100558,control_change,9,0,5,,,,,,,,,4,11,21,,,
100560,control_change,9,0,6,,,,,,,,,5,11,21,,,
100560,control_change,9,0,4,,,,,,,,,3,11,21,,,
100560,note_on,120,0,7,,,,,,,,,10,,,,62,0
100560,note_on,8,0,1,,,,,,,,,0,,,,65,0
100560,note_on,0,0,1,,,,,,,,,0,,,,74,0
100562,note_on,8,0,2,,,,,,,,,1,,,,70,0
100562,note_on,120,0,8,,,,,,,,,11,,,,58,0
100562,note_on,0,0,9,,,,,,,,,12,,,,50,0
100562,note_on,120,0,9,,,,,,,,,12,,,,53,0
100563,note_on,0,0,3,,,,,,,,,2,,,,65,0
100563,note_on,8,0,3,,,,,,,,,2,,,,62,0
100563,note_on,5,0,5,,,,,,,,,4,,,,58,0
100565,note_on,120,0,11,,,,,,,,,13,,,,46,0
100565,note_on,5,0,6,,,,,,,,,5,,,,50,0
100565,note_on,5,0,4,,,,,,,,,3,,,,46,0
100568,note_on,120,0,12,,,,,,,,,14,,,,34,0
100620,end_of_track,0,1,0,,,,,,,,,,,,,,
100620,set_tempo,120,1,0,,,,,,1000000,,,,,,,,
100799,control_change,239,0,1,,,,,,,,,0,121,0,,,
100800,control_change,1,0,1,,,,,,,,,0,121,0,,,
100800,end_of_track,0,1,7,,,,,,,,,,,,,,
100800,control_change,240,0,7,,,,,,,,,10,121,0,,,
100800,end_of_track,0,1,1,,,,,,,,,,,,,,
100802,control_change,239,0,3,,,,,,,,,2,121,0,,,
100802,control_change,240,0,8,,,,,,,,,11,121,0,,,
100802,control_change,240,0,2,,,,,,,,,1,121,0,,,
100802,end_of_track,0,1,2,,,,,,,,,,,,,,
100802,end_of_track,0,1,8,,,,,,,,,,,,,,
100802,end_of_track,0,1,9,,,,,,,,,,,,,,
100802,control_change,240,0,9,,,,,,,,,12,121,0,,,
100802,control_change,239,0,5,,,,,,,,,4,121,0,,,
100803,end_of_track,0,1,5,,,,,,,,,,,,,,
100803,end_of_track,0,1,3,,,,,,,,,,,,,,
100803,control_change,1,0,3,,,,,,,,,2,121,0,,,
100803,control_change,1,0,5,,,,,,,,,4,121,0,,,
100804,control_change,239,0,4,,,,,,,,,3,121,0,,,
100804,control_change,4531,0,10,,,,,,,,,6,121,0,,,
100804,end_of_track,0,1,10,,,,,,,,,,,,,,
100805,control_change,1,0,4,,,,,,,,,3,121,0,,,
100805,end_of_track,0,1,4,,,,,,,,,,,,,,
100805,end_of_track,0,1,6,,,,,,,,,,,,,,
100805,end_of_track,0,1,11,,,,,,,,,,,,,,
100805,control_change,240,0,11,,,,,,,,,13,121,0,,,
100805,control_change,240,0,6,,,,,,,,,5,121,0,,,
100808,end_of_track,0,1,12,,,,,,,,,,,,,,
100808,control_change,240,0,12,,,,,,,,,14,121,0,,,
