tick,type,time,meta,track,data,numerator,denominator,clocks_per_click,notated_32nd_notes_per_beat,key,tempo,control,value,channel,pitch,program,note,velocity
0,track_name,0,1,0,,,,,,,,,,,,,,
0,control_change,0,0,1,,,,,,,,7,127,0,,,,
0,control_change,0,0,1,,,,,,,,10,87,0,,,,
0,control_change,0,0,1,,,,,,,,93,32,0,,,,
0,control_change,0,0,1,,,,,,,,91,42,0,,,,
0,control_change,0,0,1,,,,,,,,6,2,0,,,,
0,control_change,0,0,1,,,,,,,,11,127,0,,,,
0,control_change,0,0,1,,,,,,,,1,0,0,,,,
0,control_change,0,0,1,,,,,,,,32,0,0,,,,
0,pitchwheel,0,0,1,,,,,,,,,,0,0,,,
0,program_change,0,0,1,,,,,,,,,,0,,0,,
0,control_change,0,0,1,,,,,,,,0,0,0,,,,
0,track_name,0,1,2,,,,,,,,,,,,,,
0,control_change,0,0,2,,,,,,,,7,127,1,,,,
0,control_change,0,0,2,,,,,,,,10,40,1,,,,
0,control_change,0,0,2,,,,,,,,93,33,1,,,,
0,control_change,0,0,2,,,,,,,,91,37,1,,,,
0,control_change,0,0,2,,,,,,,,6,2,1,,,,
0,control_change,0,0,2,,,,,,,,11,127,1,,,,
0,control_change,0,0,2,,,,,,,,1,0,1,,,,
0,control_change,0,0,2,,,,,,,,32,0,1,,,,
0,pitchwheel,0,0,2,,,,,,,,,,1,0,,,
0,program_change,0,0,2,,,,,,,,,,1,,0,,
0,control_change,0,0,2,,,,,,,,0,0,1,,,,
0,track_name,0,1,1,,,,,,,,,,,,,,
0,end_of_track,0,1,3,,,,,,,,,,,,,,
0,time_signature,0,1,0,,2,4,24,8,,,,,,,,,
0,text,0,1,0,,,,,,,,,,,,,,
0,text,0,1,0,,,,,,,,,,,,,,
0,text,0,1,0,,,,,,,,,,,,,,
0,text,0,1,0,,,,,,,,,,,,,,
0,text,0,1,0,,,,,,,,,,,,,,
0,text,0,1,0,,,,,,,,,,,,,,
0,sequencer_specific,0,1,0,"(0, 0, 65)",,,,,,,,,,,,,
0,key_signature,0,1,0,,,,,,Eb,,,,,,,,
0,set_tempo,0,1,0,,,,,,,365854,,,,,,,
0,text,0,1,0,,,,,,,,,,,,,,
0,copyright,0,1,0,,,,,,,,,,,,,,
0,marker,0,1,0,,,,,,,,,,,,,,
10,set_tempo,10,1,0,,,,,,,372671,,,,,,,
240,note_on,240,0,1,,,,,,,,,,0,,,67,63
240,note_on,240,0,2,,,,,,,,,,1,,,51,78
299,note_on,59,0,1,,,,,,,,,,0,,,67,0
300,note_on,1,0,1,,,,,,,,,,0,,,70,60
359,note_on,59,0,1,,,,,,,,,,0,,,70,0
360,note_on,0,0,2,,,,,,,,,,1,,,55,78
360,note_on,1,0,1,,,,,,,,,,0,,,70,100
360,note_on,0,0,1,,,,,,,,,,0,,,67,100
360,note_on,120,0,2,,,,,,,,,,1,,,51,0
360,note_on,0,0,2,,,,,,,,,,1,,,58,78
430,set_tempo,420,1,0,,,,,,,375000,,,,,,,
480,note_on,0,0,1,,,,,,,,,,0,,,72,60
480,note_on,0,0,1,,,,,,,,,,0,,,67,60
480,note_on,0,0,1,,,,,,,,,,0,,,70,0
480,note_on,120,0,2,,,,,,,,,,1,,,55,0
480,note_on,120,0,1,,,,,,,,,,0,,,67,0
480,note_on,0,0,2,,,,,,,,,,1,,,51,78
480,note_on,0,0,2,,,,,,,,,,1,,,58,0
539,note_on,0,0,1,,,,,,,,,,0,,,72,0
539,note_on,59,0,1,,,,,,,,,,0,,,67,0
540,note_on,1,0,1,,,,,,,,,,0,,,70,60
599,note_on,59,0,1,,,,,,,,,,0,,,70,0
600,note_on,0,0,2,,,,,,,,,,1,,,58,78
600,note_on,120,0,2,,,,,,,,,,1,,,51,0
600,note_on,0,0,1,,,,,,,,,,0,,,67,100
600,note_on,1,0,1,,,,,,,,,,0,,,70,100
600,note_on,0,0,2,,,,,,,,,,1,,,55,78
720,note_on,120,0,2,,,,,,,,,,1,,,55,0
720,note_on,0,0,2,,,,,,,,,,1,,,58,0
720,note_on,0,0,2,,,,,,,,,,1,,,51,78
720,note_on,0,0,1,,,,,,,,,,0,,,67,60
720,note_on,0,0,1,,,,,,,,,,0,,,70,0
720,note_on,120,0,1,,,,,,,,,,0,,,67,0
720,note_on,0,0,1,,,,,,,,,,0,,,75,60
779,note_on,59,0,1,,,,,,,,,,0,,,75,0
779,note_on,0,0,1,,,,,,,,,,0,,,67,0
780,note_on,1,0,1,,,,,,,,,,0,,,70,62
839,note_on,59,0,1,,,,,,,,,,0,,,70,0
840,note_on,0,0,2,,,,,,,,,,1,,,55,78
840,note_on,0,0,1,,,,,,,,,,0,,,67,100
840,note_on,1,0,1,,,,,,,,,,0,,,70,100
840,note_on,120,0,2,,,,,,,,,,1,,,51,0
840,note_on,0,0,2,,,,,,,,,,1,,,58,78
960,note_on,0,0,1,,,,,,,,,,0,,,67,62
960,note_on,0,0,1,,,,,,,,,,0,,,72,62
960,note_on,0,0,1,,,,,,,,,,0,,,70,0
960,note_on,120,0,1,,,,,,,,,,0,,,67,0
960,note_on,120,0,2,,,,,,,,,,1,,,55,0
960,note_on,0,0,2,,,,,,,,,,1,,,58,0
960,note_on,0,0,2,,,,,,,,,,1,,,51,78
1019,note_on,59,0,1,,,,,,,,,,0,,,67,0
1019,note_on,0,0,1,,,,,,,,,,0,,,72,0
1020,note_on,1,0,1,,,,,,,,,,0,,,70,58
1079,note_on,59,0,1,,,,,,,,,,0,,,70,0
1080,note_on,0,0,2,,,,,,,,,,1,,,58,86
1080,note_on,0,0,1,,,,,,,,,,0,,,67,100
1080,note_on,0,0,2,,,,,,,,,,1,,,55,86
1080,note_on,1,0,1,,,,,,,,,,0,,,70,100
1080,note_on,120,0,2,,,,,,,,,,1,,,51,0
1200,note_on,0,0,1,,,,,,,,,,0,,,65,59
1200,note_on,0,0,1,,,,,,,,,,0,,,70,0
1200,note_on,0,0,1,,,,,,,,,,0,,,62,59
1200,note_on,0,0,2,,,,,,,,,,1,,,46,86
1200,note_on,0,0,2,,,,,,,,,,1,,,58,0
1200,note_on,120,0,2,,,,,,,,,,1,,,55,0
1200,note_on,120,0,1,,,,,,,,,,0,,,67,0
1259,note_on,59,0,1,,,,,,,,,,0,,,62,0
1259,note_on,0,0,1,,,,,,,,,,0,,,65,0
1260,note_on,1,0,1,,,,,,,,,,0,,,70,58
1319,note_on,59,0,1,,,,,,,,,,0,,,70,0
1320,note_on,1,0,1,,,,,,,,,,0,,,70,100
1320,note_on,0,0,1,,,,,,,,,,0,,,62,100
1320,note_on,0,0,2,,,,,,,,,,1,,,53,86
1320,note_on,0,0,2,,,,,,,,,,1,,,58,86
1320,note_on,120,0,2,,,,,,,,,,1,,,46,0
1440,note_on,0,0,1,,,,,,,,,,0,,,67,60
1440,note_on,0,0,2,,,,,,,,,,1,,,46,86
1440,note_on,0,0,2,,,,,,,,,,1,,,53,0
1440,note_on,120,0,2,,,,,,,,,,1,,,58,0
1440,note_on,120,0,1,,,,,,,,,,0,,,62,0
1440,note_on,0,0,1,,,,,,,,,,0,,,70,0
1440,note_on,0,0,1,,,,,,,,,,0,,,63,60
1499,note_on,59,0,1,,,,,,,,,,0,,,67,0
1499,note_on,0,0,1,,,,,,,,,,0,,,63,0
1500,note_on,1,0,1,,,,,,,,,,0,,,70,60
1559,note_on,59,0,1,,,,,,,,,,0,,,70,0
1560,note_on,0,0,1,,,,,,,,,,0,,,63,100
1560,note_on,1,0,1,,,,,,,,,,0,,,70,100
1560,note_on,0,0,2,,,,,,,,,,1,,,58,86
1560,note_on,120,0,2,,,,,,,,,,1,,,46,0
1560,note_on,0,0,2,,,,,,,,,,1,,,55,86
1680,note_on,120,0,1,,,,,,,,,,0,,,63,0
1680,note_on,0,0,1,,,,,,,,,,0,,,70,0
1680,note_on,0,0,1,,,,,,,,,,0,,,68,58
1680,note_on,0,0,1,,,,,,,,,,0,,,65,58
1680,note_on,120,0,2,,,,,,,,,,1,,,55,0
1680,note_on,0,0,2,,,,,,,,,,1,,,58,0
1680,note_on,0,0,2,,,,,,,,,,1,,,46,86
1739,note_on,59,0,1,,,,,,,,,,0,,,65,0
1739,note_on,0,0,1,,,,,,,,,,0,,,68,0
1740,note_on,1,0,1,,,,,,,,,,0,,,70,58
1799,note_on,59,0,1,,,,,,,,,,0,,,70,0
1800,note_on,120,0,2,,,,,,,,,,1,,,46,0
1800,note_on,0,0,2,,,,,,,,,,1,,,58,86
1800,note_on,0,0,2,,,,,,,,,,1,,,56,86
1800,note_on,1,0,1,,,,,,,,,,0,,,70,100
1800,note_on,0,0,1,,,,,,,,,,0,,,65,100
1920,note_on,120,0,1,,,,,,,,,,0,,,65,0
1920,note_on,0,0,1,,,,,,,,,,0,,,70,0
1920,note_on,0,0,1,,,,,,,,,,0,,,70,59
1920,note_on,120,0,2,,,,,,,,,,1,,,56,0
1920,note_on,0,0,2,,,,,,,,,,1,,,58,0
1920,note_on,0,0,2,,,,,,,,,,1,,,46,86
1979,note_on,59,0,1,,,,,,,,,,0,,,70,0
1980,note_on,0,0,1,,,,,,,,,,0,,,80,58
1980,note_on,1,0,1,,,,,,,,,,0,,,77,58
2039,note_on,0,0,1,,,,,,,,,,0,,,77,0
2039,note_on,59,0,1,,,,,,,,,,0,,,80,0
2040,note_on,0,0,1,,,,,,,,,,0,,,80,58
2040,note_on,1,0,1,,,,,,,,,,0,,,77,58
2040,note_on,0,0,2,,,,,,,,,,1,,,58,86
2040,note_on,0,0,2,,,,,,,,,,1,,,62,86
2040,note_on,120,0,2,,,,,,,,,,1,,,46,0
2159,note_on,0,0,1,,,,,,,,,,0,,,77,0
2159,note_on,119,0,1,,,,,,,,,,0,,,80,0
2160,note_on,0,0,2,,,,,,,,,,1,,,51,86
2160,note_on,120,0,2,,,,,,,,,,1,,,58,0
2160,note_on,0,0,2,,,,,,,,,,1,,,62,0
2160,note_on,1,0,1,,,,,,,,,,0,,,67,60
2219,note_on,59,0,1,,,,,,,,,,0,,,67,0
2220,note_on,1,0,1,,,,,,,,,,0,,,70,60
2279,note_on,59,0,1,,,,,,,,,,0,,,70,0
2280,note_on,1,0,1,,,,,,,,,,0,,,70,100
2280,note_on,0,0,1,,,,,,,,,,0,,,67,100
2280,note_on,120,0,2,,,,,,,,,,1,,,51,0
2280,note_on,0,0,2,,,,,,,,,,1,,,55,86
2280,note_on,0,0,2,,,,,,,,,,1,,,58,86
2400,note_on,120,0,2,,,,,,,,,,1,,,58,0
2400,note_on,0,0,2,,,,,,,,,,1,,,55,0
2400,note_on,0,0,2,,,,,,,,,,1,,,51,86
2400,note_on,120,0,1,,,,,,,,,,0,,,67,0
2400,note_on,0,0,1,,,,,,,,,,0,,,72,60
2400,note_on,0,0,1,,,,,,,,,,0,,,67,60
2400,note_on,0,0,1,,,,,,,,,,0,,,70,0
2459,note_on,0,0,1,,,,,,,,,,0,,,72,0
2459,note_on,59,0,1,,,,,,,,,,0,,,67,0
2460,note_on,1,0,1,,,,,,,,,,0,,,70,62
2519,note_on,59,0,1,,,,,,,,,,0,,,70,0
2520,note_on,0,0,2,,,,,,,,,,1,,,55,86
2520,note_on,0,0,2,,,,,,,,,,1,,,58,86
2520,note_on,120,0,2,,,,,,,,,,1,,,51,0
2520,note_on,0,0,1,,,,,,,,,,0,,,67,100
2520,note_on,1,0,1,,,,,,,,,,0,,,70,100
2640,note_on,0,0,2,,,,,,,,,,1,,,58,0
2640,note_on,0,0,1,,,,,,,,,,0,,,70,0
2640,note_on,0,0,1,,,,,,,,,,0,,,67,64
2640,note_on,0,0,1,,,,,,,,,,0,,,75,64
2640,note_on,120,0,2,,,,,,,,,,1,,,55,0
2640,note_on,120,0,1,,,,,,,,,,0,,,67,0
2640,note_on,0,0,2,,,,,,,,,,1,,,51,86
2699,note_on,59,0,1,,,,,,,,,,0,,,75,0
2699,note_on,0,0,1,,,,,,,,,,0,,,67,0
2700,note_on,1,0,1,,,,,,,,,,0,,,70,64
2759,note_on,59,0,1,,,,,,,,,,0,,,70,0
2760,note_on,0,0,2,,,,,,,,,,1,,,55,100
2760,note_on,1,0,1,,,,,,,,,,0,,,70,100
2760,note_on,0,0,1,,,,,,,,,,0,,,67,100
2760,note_on,0,0,2,,,,,,,,,,1,,,58,100
2760,note_on,120,0,2,,,,,,,,,,1,,,51,0
2880,note_on,0,0,2,,,,,,,,,,1,,,58,0
2880,note_on,0,0,1,,,,,,,,,,0,,,72,60
2880,note_on,0,0,2,,,,,,,,,,1,,,51,93
2880,note_on,0,0,1,,,,,,,,,,0,,,70,0
2880,note_on,120,0,1,,,,,,,,,,0,,,67,0
2880,note_on,0,0,1,,,,,,,,,,0,,,67,60
2880,note_on,120,0,2,,,,,,,,,,1,,,55,0
2939,note_on,59,0,1,,,,,,,,,,0,,,67,0
2939,note_on,0,0,1,,,,,,,,,,0,,,72,0
2940,note_on,1,0,1,,,,,,,,,,0,,,70,59
2999,note_on,59,0,1,,,,,,,,,,0,,,70,0
3000,note_on,0,0,2,,,,,,,,,,1,,,55,93
3000,note_on,1,0,1,,,,,,,,,,0,,,70,100
3000,note_on,0,0,1,,,,,,,,,,0,,,67,100
3000,note_on,0,0,2,,,,,,,,,,1,,,58,93
3000,note_on,120,0,2,,,,,,,,,,1,,,51,0
3120,note_on,0,0,2,,,,,,,,,,1,,,55,0
3120,note_on,0,0,2,,,,,,,,,,1,,,46,92
3120,note_on,120,0,2,,,,,,,,,,1,,,58,0
3120,note_on,0,0,1,,,,,,,,,,0,,,70,0
3120,note_on,0,0,1,,,,,,,,,,0,,,65,59
3120,note_on,0,0,1,,,,,,,,,,0,,,62,59
3120,note_on,120,0,1,,,,,,,,,,0,,,67,0
3179,note_on,0,0,1,,,,,,,,,,0,,,65,0
3179,note_on,59,0,1,,,,,,,,,,0,,,62,0
3180,note_on,1,0,1,,,,,,,,,,0,,,70,59
3239,note_on,59,0,1,,,,,,,,,,0,,,70,0
3240,note_on,1,0,1,,,,,,,,,,0,,,70,100
3240,note_on,120,0,2,,,,,,,,,,1,,,46,0
3240,note_on,0,0,2,,,,,,,,,,1,,,58,92
3240,note_on,0,0,2,,,,,,,,,,1,,,53,92
3240,note_on,0,0,1,,,,,,,,,,0,,,62,100
3360,note_on,0,0,2,,,,,,,,,,1,,,46,92
3360,note_on,0,0,1,,,,,,,,,,0,,,70,0
3360,note_on,120,0,2,,,,,,,,,,1,,,53,0
3360,note_on,0,0,2,,,,,,,,,,1,,,58,0
3360,note_on,120,0,1,,,,,,,,,,0,,,62,0
3360,note_on,0,0,1,,,,,,,,,,0,,,63,59
3360,note_on,0,0,1,,,,,,,,,,0,,,67,59
3419,note_on,59,0,1,,,,,,,,,,0,,,67,0
3419,note_on,0,0,1,,,,,,,,,,0,,,63,0
3420,note_on,1,0,1,,,,,,,,,,0,,,70,59
3479,note_on,59,0,1,,,,,,,,,,0,,,70,0
3480,note_on,0,0,1,,,,,,,,,,0,,,70,100
3480,note_on,1,0,1,,,,,,,,,,0,,,63,100
3480,note_on,0,0,2,,,,,,,,,,1,,,58,92
3480,note_on,0,0,2,,,,,,,,,,1,,,55,92
3480,note_on,120,0,2,,,,,,,,,,1,,,46,0
3600,note_on,0,0,2,,,,,,,,,,1,,,58,0
3600,note_on,120,0,2,,,,,,,,,,1,,,55,0
3600,note_on,120,0,1,,,,,,,,,,0,,,70,0
3600,note_on,0,0,1,,,,,,,,,,0,,,63,0
3600,note_on,0,0,1,,,,,,,,,,0,,,68,59
3600,note_on,0,0,1,,,,,,,,,,0,,,65,59
3600,note_on,0,0,2,,,,,,,,,,1,,,46,92
3659,note_on,59,0,1,,,,,,,,,,0,,,65,0
3659,note_on,0,0,1,,,,,,,,,,0,,,68,0
3660,note_on,1,0,1,,,,,,,,,,0,,,70,59
3719,note_on,59,0,1,,,,,,,,,,0,,,70,0
3720,note_on,120,0,2,,,,,,,,,,1,,,46,0
3720,note_on,0,0,2,,,,,,,,,,1,,,56,92
3720,note_on,0,0,2,,,,,,,,,,1,,,58,92
3720,note_on,0,0,1,,,,,,,,,,0,,,65,100
3720,note_on,1,0,1,,,,,,,,,,0,,,70,100
3840,note_on,120,0,2,,,,,,,,,,1,,,58,0
3840,note_on,0,0,2,,,,,,,,,,1,,,56,0
3840,note_on,0,0,2,,,,,,,,,,1,,,46,92
3840,note_on,0,0,1,,,,,,,,,,0,,,65,63
3840,note_on,0,0,1,,,,,,,,,,0,,,62,63
3840,note_on,0,0,1,,,,,,,,,,0,,,70,0
3840,note_on,120,0,1,,,,,,,,,,0,,,65,0
3899,note_on,59,0,1,,,,,,,,,,0,,,65,0
3899,note_on,0,0,1,,,,,,,,,,0,,,62,0
3900,note_on,1,0,1,,,,,,,,,,0,,,70,64
3959,note_on,59,0,1,,,,,,,,,,0,,,70,0
3960,note_on,0,0,1,,,,,,,,,,0,,,62,100
3960,note_on,0,0,2,,,,,,,,,,1,,,58,92
3960,note_on,120,0,2,,,,,,,,,,1,,,46,0
3960,note_on,1,0,1,,,,,,,,,,0,,,70,100
4080,note_on,0,0,2,,,,,,,,,,1,,,43,92
4080,note_on,120,0,2,,,,,,,,,,1,,,58,0
4080,note_on,120,0,1,,,,,,,,,,0,,,62,0
4080,note_on,0,0,1,,,,,,,,,,0,,,70,0
4080,note_on,0,0,1,,,,,,,,,,0,,,63,78
4199,note_on,119,0,1,,,,,,,,,,0,,,63,0
4200,note_on,0,0,2,,,,,,,,,,1,,,31,92
4200,note_on,120,0,2,,,,,,,,,,1,,,43,0
4200,note_on,0,0,1,,,,,,,,,,0,,,58,77
4200,note_on,1,0,1,,,,,,,,,,0,,,70,77
4319,note_on,0,0,1,,,,,,,,,,0,,,70,0
4319,note_on,119,0,1,,,,,,,,,,0,,,58,0
4320,note_on,1,0,1,,,,,,,,,,0,,,60,76
4320,note_on,0,0,2,,,,,,,,,,1,,,32,92
4320,note_on,120,0,2,,,,,,,,,,1,,,31,0
4379,note_on,59,0,1,,,,,,,,,,0,,,60,0
4380,note_on,1,0,1,,,,,,,,,,0,,,72,76
4439,note_on,59,0,1,,,,,,,,,,0,,,72,0
4440,note_on,120,0,2,,,,,,,,,,1,,,32,0
4440,note_on,0,0,1,,,,,,,,,,0,,,72,100
4440,note_on,0,0,2,,,,,,,,,,1,,,44,92
4440,note_on,1,0,1,,,,,,,,,,0,,,63,100
4560,note_on,0,0,1,,,,,,,,,,0,,,62,77
4560,note_on,0,0,2,,,,,,,,,,1,,,46,92
4560,note_on,120,0,2,,,,,,,,,,1,,,44,0
4560,note_on,0,0,1,,,,,,,,,,0,,,63,0
4560,note_on,120,0,1,,,,,,,,,,0,,,72,0
4679,note_on,119,0,1,,,,,,,,,,0,,,62,0
4680,note_on,0,0,2,,,,,,,,,,1,,,34,92
4680,note_on,120,0,2,,,,,,,,,,1,,,46,0
4680,note_on,0,0,1,,,,,,,,,,0,,,65,78
4680,note_on,1,0,1,,,,,,,,,,0,,,74,78
4799,note_on,0,0,1,,,,,,,,,,0,,,74,0
4799,note_on,119,0,1,,,,,,,,,,0,,,65,0
4800,note_on,1,0,1,,,,,,,,,,0,,,63,78
4800,note_on,0,0,2,,,,,,,,,,1,,,36,92
4800,note_on,120,0,2,,,,,,,,,,1,,,34,0
4859,note_on,59,0,1,,,,,,,,,,0,,,63,0
4860,note_on,1,0,1,,,,,,,,,,0,,,75,79
4919,note_on,59,0,1,,,,,,,,,,0,,,75,0
4920,note_on,0,0,1,,,,,,,,,,0,,,67,100
4920,note_on,0,0,2,,,,,,,,,,1,,,48,92
4920,note_on,1,0,1,,,,,,,,,,0,,,75,100
4920,note_on,120,0,2,,,,,,,,,,1,,,36,0
5040,note_on,120,0,2,,,,,,,,,,1,,,48,0
5040,note_on,0,0,2,,,,,,,,,,1,,,50,92
5040,note_on,120,0,1,,,,,,,,,,0,,,67,0
5040,note_on,0,0,1,,,,,,,,,,0,,,75,0
5040,note_on,0,0,1,,,,,,,,,,0,,,65,80
5159,note_on,119,0,1,,,,,,,,,,0,,,65,0
5160,note_on,0,0,2,,,,,,,,,,1,,,38,90
5160,note_on,1,0,1,,,,,,,,,,0,,,68,80
5160,note_on,0,0,1,,,,,,,,,,0,,,77,80
5160,note_on,120,0,2,,,,,,,,,,1,,,50,0
5279,note_on,119,0,1,,,,,,,,,,0,,,77,0
5279,note_on,0,0,1,,,,,,,,,,0,,,68,0
5280,note_on,0,0,2,,,,,,,,,,1,,,39,88
5280,note_on,120,0,2,,,,,,,,,,1,,,38,0
5280,note_on,1,0,1,,,,,,,,,,0,,,67,79
5339,note_on,59,0,1,,,,,,,,,,0,,,67,0
5340,note_on,1,0,1,,,,,,,,,,0,,,79,79
5399,note_on,59,0,1,,,,,,,,,,0,,,79,0
5400,note_on,120,0,2,,,,,,,,,,1,,,39,0
5400,note_on,0,0,2,,,,,,,,,,1,,,51,88
5400,note_on,0,0,1,,,,,,,,,,0,,,79,100
5400,note_on,1,0,1,,,,,,,,,,0,,,70,100
5520,note_on,120,0,2,,,,,,,,,,1,,,51,0
5520,note_on,0,0,2,,,,,,,,,,1,,,46,88
5520,note_on,0,0,1,,,,,,,,,,0,,,68,80
5520,note_on,0,0,1,,,,,,,,,,0,,,70,0
5520,note_on,120,0,1,,,,,,,,,,0,,,79,0
5579,note_on,59,0,1,,,,,,,,,,0,,,68,0
5580,note_on,1,0,1,,,,,,,,,,0,,,80,80
5639,note_on,59,0,1,,,,,,,,,,0,,,80,0
5640,note_on,1,0,1,,,,,,,,,,0,,,77,80
5640,note_on,120,0,2,,,,,,,,,,1,,,46,0
5640,note_on,0,0,2,,,,,,,,,,1,,,34,87
5699,note_on,59,0,1,,,,,,,,,,0,,,77,0
5700,note_on,1,0,1,,,,,,,,,,0,,,74,80
5759,note_on,59,0,1,,,,,,,,,,0,,,74,0
5760,note_on,1,0,1,,,,,,,,,,0,,,75,80
5760,note_on,0,0,2,,,,,,,,,,1,,,39,87
5760,note_on,120,0,2,,,,,,,,,,1,,,34,0
5819,note_on,59,0,1,,,,,,,,,,0,,,75,0
5820,note_on,1,0,1,,,,,,,,,,0,,,79,79
5879,note_on,59,0,1,,,,,,,,,,0,,,79,0
5880,note_on,0,0,2,,,,,,,,,,1,,,51,80
5880,note_on,1,0,1,,,,,,,,,,0,,,75,80
5880,note_on,120,0,2,,,,,,,,,,1,,,39,0
5939,note_on,59,0,1,,,,,,,,,,0,,,75,0
5940,note_on,1,0,1,,,,,,,,,,0,,,70,80
5999,note_on,59,0,1,,,,,,,,,,0,,,70,0
6000,note_on,1,0,1,,,,,,,,,,0,,,67,80
6000,note_on,120,0,2,,,,,,,,,,1,,,51,0
6000,note_on,0,0,2,,,,,,,,,,1,,,39,80
6000,note_on,0,0,2,,,,,,,,,,1,,,51,80
6120,note_on,120,0,2,,,,,,,,,,1,,,51,0
6120,note_on,0,0,2,,,,,,,,,,1,,,55,80
6120,note_on,0,0,2,,,,,,,,,,1,,,43,80
6120,note_on,0,0,1,,,,,,,,,,0,,,58,80
6120,note_on,0,0,1,,,,,,,,,,0,,,70,80
6120,note_on,120,0,1,,,,,,,,,,0,,,67,0
6120,note_on,0,0,2,,,,,,,,,,1,,,39,0
6240,note_on,0,0,1,,,,,,,,,,0,,,70,0
6240,note_on,120,0,1,,,,,,,,,,0,,,58,0
6240,note_on,0,0,2,,,,,,,,,,1,,,44,80
6240,note_on,0,0,2,,,,,,,,,,1,,,55,0
6240,note_on,120,0,2,,,,,,,,,,1,,,43,0
6240,note_on,0,0,1,,,,,,,,,,0,,,60,85
6299,note_on,59,0,1,,,,,,,,,,0,,,60,0
6300,note_on,1,0,1,,,,,,,,,,0,,,72,85
6359,note_on,59,0,1,,,,,,,,,,0,,,72,0
6360,note_on,0,0,2,,,,,,,,,,1,,,51,80
6360,note_on,0,0,1,,,,,,,,,,0,,,63,80
6360,note_on,1,0,1,,,,,,,,,,0,,,72,80
6360,note_on,120,0,2,,,,,,,,,,1,,,44,0
6360,note_on,0,0,2,,,,,,,,,,1,,,56,80
6480,note_on,120,0,2,,,,,,,,,,1,,,56,0
6480,note_on,0,0,2,,,,,,,,,,1,,,51,0
6480,note_on,0,0,2,,,,,,,,,,1,,,46,80
6480,note_on,0,0,1,,,,,,,,,,0,,,62,85
6480,note_on,0,0,1,,,,,,,,,,0,,,72,0
6480,note_on,120,0,1,,,,,,,,,,0,,,63,0
6599,note_on,119,0,1,,,,,,,,,,0,,,62,0
6600,note_on,0,0,1,,,,,,,,,,0,,,65,85
6600,note_on,0,0,2,,,,,,,,,,1,,,53,80
6600,note_on,0,0,2,,,,,,,,,,1,,,58,80
6600,note_on,120,0,2,,,,,,,,,,1,,,46,0
6600,note_on,1,0,1,,,,,,,,,,0,,,74,85
6719,note_on,119,0,1,,,,,,,,,,0,,,65,0
6719,note_on,0,0,1,,,,,,,,,,0,,,74,0
6720,note_on,0,0,2,,,,,,,,,,1,,,58,0
6720,note_on,1,0,1,,,,,,,,,,0,,,63,85
6720,note_on,120,0,2,,,,,,,,,,1,,,53,0
6720,note_on,0,0,2,,,,,,,,,,1,,,48,80
6779,note_on,59,0,1,,,,,,,,,,0,,,63,0
6780,note_on,1,0,1,,,,,,,,,,0,,,75,85
6839,note_on,59,0,1,,,,,,,,,,0,,,75,0
6840,note_on,0,0,1,,,,,,,,,,0,,,75,80
6840,note_on,1,0,1,,,,,,,,,,0,,,67,80
6840,note_on,0,0,2,,,,,,,,,,1,,,55,80
6840,note_on,0,0,2,,,,,,,,,,1,,,60,80
6840,note_on,120,0,2,,,,,,,,,,1,,,48,0
6960,note_on,0,0,2,,,,,,,,,,1,,,50,100
6960,note_on,0,0,2,,,,,,,,,,1,,,60,0
6960,note_on,120,0,1,,,,,,,,,,0,,,75,0
6960,note_on,0,0,1,,,,,,,,,,0,,,67,0
6960,note_on,0,0,1,,,,,,,,,,0,,,65,85
6960,note_on,120,0,2,,,,,,,,,,1,,,55,0
7079,note_on,119,0,1,,,,,,,,,,0,,,65,0
7080,note_on,0,0,2,,,,,,,,,,1,,,58,100
7080,note_on,0,0,2,,,,,,,,,,1,,,62,100
7080,note_on,120,0,2,,,,,,,,,,1,,,50,0
7080,note_on,1,0,1,,,,,,,,,,0,,,77,85
7080,note_on,0,0,1,,,,,,,,,,0,,,68,85
7199,note_on,119,0,1,,,,,,,,,,0,,,68,0
7199,note_on,0,0,1,,,,,,,,,,0,,,77,0
7200,note_on,120,0,2,,,,,,,,,,1,,,58,0
7200,note_on,0,0,2,,,,,,,,,,1,,,62,0
7200,note_on,0,0,2,,,,,,,,,,1,,,51,80
7200,note_on,1,0,1,,,,,,,,,,0,,,67,85
7259,note_on,59,0,1,,,,,,,,,,0,,,67,0
7260,note_on,1,0,1,,,,,,,,,,0,,,79,85
7319,note_on,59,0,1,,,,,,,,,,0,,,79,0
7320,note_on,0,0,2,,,,,,,,,,1,,,58,80
7320,note_on,0,0,2,,,,,,,,,,1,,,63,80
7320,note_on,120,0,2,,,,,,,,,,1,,,51,0
7320,note_on,1,0,1,,,,,,,,,,0,,,70,80
7320,note_on,0,0,1,,,,,,,,,,0,,,79,80
7330,set_tempo,6900,1,0,,,,,,,372671,,,,,,,
7340,set_tempo,10,1,0,,,,,,,375000,,,,,,,
7350,set_tempo,10,1,0,,,,,,,379747,,,,,,,
7360,set_tempo,10,1,0,,,,,,,382166,,,,,,,
7370,set_tempo,10,1,0,,,,,,,387097,,,,,,,
7380,set_tempo,10,1,0,,,,,,,392157,,,,,,,
7390,set_tempo,10,1,0,,,,,,,394737,,,,,,,
7400,set_tempo,10,1,0,,,,,,,400000,,,,,,,
7410,set_tempo,10,1,0,,,,,,,402685,,,,,,,
7420,set_tempo,10,1,0,,,,,,,408163,,,,,,,
7430,set_tempo,10,1,0,,,,,,,413793,,,,,,,
7440,note_on,120,0,1,,,,,,,,,,0,,,79,0
7440,note_on,120,0,2,,,,,,,,,,1,,,58,0
7440,note_on,0,0,2,,,,,,,,,,1,,,63,0
7440,note_on,0,0,2,,,,,,,,,,1,,,46,80
7440,note_on,0,0,1,,,,,,,,,,0,,,68,80
7440,note_on,0,0,1,,,,,,,,,,0,,,70,0
7440,set_tempo,10,1,0,,,,,,,416667,,,,,,,
7450,set_tempo,10,1,0,,,,,,,422535,,,,,,,
7460,set_tempo,10,1,0,,,,,,,425532,,,,,,,
7470,set_tempo,10,1,0,,,,,,,431655,,,,,,,
7480,set_tempo,10,1,0,,,,,,,437956,,,,,,,
7490,set_tempo,10,1,0,,,,,,,441176,,,,,,,
7500,set_tempo,10,1,0,,,,,,,447761,,,,,,,
7500,note_on,0,0,1,,,,,,,,,,0,,,80,80
7500,note_on,60,0,1,,,,,,,,,,0,,,68,0
7510,set_tempo,10,1,0,,,,,,,451128,,,,,,,
7520,set_tempo,10,1,0,,,,,,,458015,,,,,,,
7530,set_tempo,10,1,0,,,,,,,465116,,,,,,,
7540,set_tempo,10,1,0,,,,,,,468750,,,,,,,
7550,set_tempo,10,1,0,,,,,,,476190,,,,,,,
7560,note_on,120,0,2,,,,,,,,,,1,,,46,0
7560,note_on,0,0,1,,,,,,,,,,0,,,77,80
7560,note_on,0,0,2,,,,,,,,,,1,,,58,80
7560,note_on,60,0,1,,,,,,,,,,0,,,80,0
7560,set_tempo,10,1,0,,,,,,,480000,,,,,,,
7570,set_tempo,10,1,0,,,,,,,487805,,,,,,,
7580,set_tempo,10,1,0,,,,,,,495868,,,,,,,
7590,set_tempo,10,1,0,,,,,,,500000,,,,,,,
7600,set_tempo,10,1,0,,,,,,,508475,,,,,,,
7610,set_tempo,10,1,0,,,,,,,512821,,,,,,,
7620,set_tempo,10,1,0,,,,,,,521739,,,,,,,
7620,note_on,0,0,1,,,,,,,,,,0,,,74,80
7620,note_on,60,0,1,,,,,,,,,,0,,,77,0
7630,set_tempo,10,1,0,,,,,,,530973,,,,,,,
7640,set_tempo,10,1,0,,,,,,,535714,,,,,,,
7650,set_tempo,10,1,0,,,,,,,545455,,,,,,,
7660,set_tempo,10,1,0,,,,,,,550459,,,,,,,
7670,set_tempo,10,1,0,,,,,,,560748,,,,,,,
7680,note_on,60,0,1,,,,,,,,,,0,,,74,0
7680,note_on,120,0,2,,,,,,,,,,1,,,58,0
7680,set_tempo,10,1,0,,,,,,,571429,,,,,,,
7680,note_on,0,0,2,,,,,,,,,,1,,,51,80
7680,note_on,0,0,1,,,,,,,,,,0,,,75,80
7690,set_tempo,10,1,0,,,,,,,576923,,,,,,,
7700,set_tempo,10,1,0,,,,,,,588235,,,,,,,
7710,set_tempo,10,1,0,,,,,,,594059,,,,,,,
7720,set_tempo,10,1,0,,,,,,,606061,,,,,,,
7730,set_tempo,10,1,0,,,,,,,618557,,,,,,,
7740,set_tempo,10,1,0,,,,,,,625000,,,,,,,
7750,set_tempo,10,1,0,,,,,,,638298,,,,,,,
7760,set_tempo,10,1,0,,,,,,,645161,,,,,,,
7770,set_tempo,10,1,0,,,,,,,659341,,,,,,,
7780,set_tempo,10,1,0,,,,,,,659341,,,,,,,
7790,set_tempo,10,1,0,,,,,,,731707,,,,,,,
7800,note_on,0,0,2,,,,,,,,,,1,,,39,80
7800,note_on,120,0,2,,,,,,,,,,1,,,51,0
7800,set_tempo,10,1,0,,,,,,,821918,,,,,,,
7800,note_on,120,0,1,,,,,,,,,,0,,,75,0
7810,set_tempo,10,1,0,,,,,,,937500,,,,,,,
7820,set_tempo,10,1,0,,,,,,,1090909,,,,,,,
7920,set_tempo,100,1,0,,,,,,,363636,,,,,,,
7920,marker,0,1,0,,,,,,,,,,,,,,
7920,note_on,120,0,2,,,,,,,,,,1,,,39,0
7920,note_on,0,0,2,,,,,,,,,,1,,,51,52
7920,note_on,120,0,1,,,,,,,,,,0,,,82,58
7979,note_on,59,0,1,,,,,,,,,,0,,,82,0
7980,note_on,1,0,1,,,,,,,,,,0,,,79,58
8039,note_on,119,0,2,,,,,,,,,,1,,,51,0
8039,note_on,59,0,1,,,,,,,,,,0,,,79,0
8040,note_on,1,0,2,,,,,,,,,,1,,,58,56
8040,note_on,0,0,2,,,,,,,,,,1,,,55,56
8040,note_on,1,0,1,,,,,,,,,,0,,,75,58
8099,note_on,59,0,1,,,,,,,,,,0,,,75,0
8100,note_on,1,0,1,,,,,,,,,,0,,,70,58
8159,note_on,0,0,2,,,,,,,,,,1,,,58,0
8159,note_on,119,0,2,,,,,,,,,,1,,,55,0
8159,note_on,59,0,1,,,,,,,,,,0,,,70,0
8160,note_on,1,0,2,,,,,,,,,,1,,,51,52
8160,note_on,1,0,1,,,,,,,,,,0,,,67,80
8279,note_on,119,0,2,,,,,,,,,,1,,,51,0
8280,note_on,0,0,2,,,,,,,,,,1,,,55,51
8280,note_on,1,0,2,,,,,,,,,,1,,,58,51
8280,note_on,120,0,1,,,,,,,,,,0,,,67,0
8399,note_on,0,0,2,,,,,,,,,,1,,,58,0
8399,note_on,119,0,2,,,,,,,,,,1,,,55,0
8400,note_on,120,0,1,,,,,,,,,,0,,,82,58
8400,note_on,1,0,2,,,,,,,,,,1,,,51,51
8459,note_on,59,0,1,,,,,,,,,,0,,,82,0
8460,note_on,1,0,1,,,,,,,,,,0,,,79,58
8519,note_on,119,0,2,,,,,,,,,,1,,,51,0
8519,note_on,59,0,1,,,,,,,,,,0,,,79,0
8520,note_on,0,0,2,,,,,,,,,,1,,,58,52
8520,note_on,1,0,2,,,,,,,,,,1,,,55,52
8520,note_on,1,0,1,,,,,,,,,,0,,,75,58
8579,note_on,59,0,1,,,,,,,,,,0,,,75,0
8580,note_on,1,0,1,,,,,,,,,,0,,,70,58
8639,note_on,59,0,1,,,,,,,,,,0,,,70,0
8639,note_on,0,0,2,,,,,,,,,,1,,,55,0
8639,note_on,119,0,2,,,,,,,,,,1,,,58,0
8640,note_on,1,0,1,,,,,,,,,,0,,,67,51
8640,note_on,1,0,2,,,,,,,,,,1,,,51,54
8759,note_on,119,0,1,,,,,,,,,,0,,,67,0
8759,note_on,119,0,2,,,,,,,,,,1,,,51,0
8760,note_on,1,0,2,,,,,,,,,,1,,,58,52
8760,note_on,0,0,2,,,,,,,,,,1,,,55,52
8879,note_on,119,0,2,,,,,,,,,,1,,,55,0
8879,note_on,0,0,2,,,,,,,,,,1,,,58,0
8880,note_on,1,0,2,,,,,,,,,,1,,,51,50
8880,note_on,121,0,1,,,,,,,,,,0,,,82,51
8954,note_on,74,0,1,,,,,,,,,,0,,,82,0
8955,note_on,1,0,1,,,,,,,,,,0,,,86,51
8970,note_on,0,0,1,,,,,,,,,,0,,,84,51
8970,note_on,15,0,1,,,,,,,,,,0,,,86,0
8985,note_on,15,0,1,,,,,,,,,,0,,,84,0
8985,note_on,0,0,1,,,,,,,,,,0,,,82,51
8999,note_on,119,0,2,,,,,,,,,,1,,,51,0
9000,note_on,0,0,1,,,,,,,,,,0,,,84,51
9000,note_on,0,0,2,,,,,,,,,,1,,,58,50
9000,note_on,1,0,2,,,,,,,,,,1,,,55,50
9000,note_on,15,0,1,,,,,,,,,,0,,,82,0
9060,note_on,0,0,1,,,,,,,,,,0,,,82,51
9060,note_on,60,0,1,,,,,,,,,,0,,,84,0
9119,note_on,0,0,2,,,,,,,,,,1,,,55,0
9119,note_on,119,0,2,,,,,,,,,,1,,,58,0
9120,note_on,60,0,1,,,,,,,,,,0,,,82,0
9120,note_on,0,0,1,,,,,,,,,,0,,,80,59
9120,note_on,1,0,2,,,,,,,,,,1,,,51,56
9179,note_on,59,0,1,,,,,,,,,,0,,,80,0
9180,note_on,1,0,1,,,,,,,,,,0,,,79,59
9239,note_on,59,0,1,,,,,,,,,,0,,,79,0
9239,note_on,119,0,2,,,,,,,,,,1,,,51,0
9240,note_on,1,0,2,,,,,,,,,,1,,,58,53
9240,note_on,1,0,1,,,,,,,,,,0,,,77,59
9240,note_on,0,0,2,,,,,,,,,,1,,,55,53
9299,note_on,59,0,1,,,,,,,,,,0,,,77,0
9300,note_on,1,0,1,,,,,,,,,,0,,,75,59
9359,note_on,59,0,1,,,,,,,,,,0,,,75,0
9359,note_on,119,0,2,,,,,,,,,,1,,,55,0
9359,note_on,0,0,2,,,,,,,,,,1,,,58,0
9360,note_on,1,0,1,,,,,,,,,,0,,,82,58
9360,note_on,1,0,2,,,,,,,,,,1,,,46,51
9419,note_on,59,0,1,,,,,,,,,,0,,,82,0
9420,note_on,1,0,1,,,,,,,,,,0,,,80,58
9479,note_on,119,0,2,,,,,,,,,,1,,,46,0
9479,note_on,59,0,1,,,,,,,,,,0,,,80,0
9480,note_on,1,0,2,,,,,,,,,,1,,,53,52
9480,note_on,0,0,2,,,,,,,,,,1,,,58,52
9480,note_on,1,0,1,,,,,,,,,,0,,,77,58
9539,note_on,59,0,1,,,,,,,,,,0,,,77,0
9540,note_on,1,0,1,,,,,,,,,,0,,,74,58
9599,note_on,59,0,1,,,,,,,,,,0,,,74,0
9599,note_on,0,0,2,,,,,,,,,,1,,,53,0
9599,note_on,119,0,2,,,,,,,,,,1,,,58,0
9600,note_on,1,0,1,,,,,,,,,,0,,,70,58
9600,note_on,1,0,2,,,,,,,,,,1,,,46,53
9659,note_on,59,0,1,,,,,,,,,,0,,,70,0
9660,note_on,1,0,1,,,,,,,,,,0,,,68,58
9719,note_on,119,0,2,,,,,,,,,,1,,,46,0
9719,note_on,59,0,1,,,,,,,,,,0,,,68,0
9720,note_on,1,0,1,,,,,,,,,,0,,,65,58
9720,note_on,0,0,2,,,,,,,,,,1,,,58,52
9720,note_on,1,0,2,,,,,,,,,,1,,,53,52
9779,note_on,59,0,1,,,,,,,,,,0,,,65,0
9780,note_on,1,0,1,,,,,,,,,,0,,,62,58
9839,note_on,59,0,1,,,,,,,,,,0,,,62,0
9839,note_on,0,0,2,,,,,,,,,,1,,,53,0
9839,note_on,119,0,2,,,,,,,,,,1,,,58,0
9840,note_on,1,0,1,,,,,,,,,,0,,,82,58
9840,note_on,1,0,2,,,,,,,,,,1,,,51,50
9899,note_on,59,0,1,,,,,,,,,,0,,,82,0
9900,note_on,1,0,1,,,,,,,,,,0,,,79,58
9959,note_on,119,0,2,,,,,,,,,,1,,,51,0
9959,note_on,59,0,1,,,,,,,,,,0,,,79,0
9960,note_on,1,0,2,,,,,,,,,,1,,,58,49
9960,note_on,1,0,1,,,,,,,,,,0,,,75,58
9960,note_on,0,0,2,,,,,,,,,,1,,,55,49
10019,note_on,59,0,1,,,,,,,,,,0,,,75,0
10020,note_on,1,0,1,,,,,,,,,,0,,,70,58
10079,note_on,0,0,2,,,,,,,,,,1,,,58,0
10079,note_on,119,0,2,,,,,,,,,,1,,,55,0
10079,note_on,59,0,1,,,,,,,,,,0,,,70,0
10080,note_on,1,0,2,,,,,,,,,,1,,,51,53
10080,note_on,1,0,1,,,,,,,,,,0,,,67,51
10199,note_on,119,0,2,,,,,,,,,,1,,,51,0
10200,note_on,120,0,1,,,,,,,,,,0,,,67,0
10200,note_on,1,0,2,,,,,,,,,,1,,,58,54
10200,note_on,0,0,2,,,,,,,,,,1,,,55,54
10319,note_on,119,0,2,,,,,,,,,,1,,,55,0
10319,note_on,0,0,2,,,,,,,,,,1,,,58,0
10320,note_on,1,0,2,,,,,,,,,,1,,,51,56
10320,note_on,120,0,1,,,,,,,,,,0,,,82,58
10379,note_on,59,0,1,,,,,,,,,,0,,,82,0
10380,note_on,1,0,1,,,,,,,,,,0,,,79,58
10439,note_on,59,0,1,,,,,,,,,,0,,,79,0
10439,note_on,119,0,2,,,,,,,,,,1,,,51,0
10440,note_on,1,0,1,,,,,,,,,,0,,,75,58
10440,note_on,1,0,2,,,,,,,,,,1,,,55,57
10440,note_on,0,0,2,,,,,,,,,,1,,,58,57
10499,note_on,59,0,1,,,,,,,,,,0,,,75,0
10500,note_on,1,0,1,,,,,,,,,,0,,,70,58
10559,note_on,0,0,2,,,,,,,,,,1,,,55,0
10559,note_on,59,0,1,,,,,,,,,,0,,,70,0
10559,note_on,119,0,2,,,,,,,,,,1,,,58,0
10560,note_on,1,0,1,,,,,,,,,,0,,,67,51
10560,note_on,1,0,2,,,,,,,,,,1,,,51,53
10679,note_on,119,0,2,,,,,,,,,,1,,,51,0
10680,note_on,120,0,1,,,,,,,,,,0,,,67,0
10680,note_on,0,0,2,,,,,,,,,,1,,,58,53
10680,note_on,1,0,2,,,,,,,,,,1,,,55,53
10799,note_on,119,0,2,,,,,,,,,,1,,,58,0
10799,note_on,0,0,2,,,,,,,,,,1,,,55,0
10800,note_on,120,0,1,,,,,,,,,,0,,,82,51
10800,note_on,1,0,2,,,,,,,,,,1,,,51,53
10875,note_on,0,0,1,,,,,,,,,,0,,,86,51
10875,note_on,75,0,1,,,,,,,,,,0,,,82,0
10890,note_on,15,0,1,,,,,,,,,,0,,,86,0
10890,note_on,0,0,1,,,,,,,,,,0,,,84,51
10905,note_on,15,0,1,,,,,,,,,,0,,,84,0
10905,note_on,0,0,1,,,,,,,,,,0,,,82,51
10919,note_on,119,0,2,,,,,,,,,,1,,,51,0
10920,note_on,1,0,2,,,,,,,,,,1,,,58,53
10920,note_on,0,0,2,,,,,,,,,,1,,,55,53
10920,note_on,15,0,1,,,,,,,,,,0,,,82,0
10920,note_on,0,0,1,,,,,,,,,,0,,,84,58
10979,note_on,59,0,1,,,,,,,,,,0,,,84,0
10980,note_on,1,0,1,,,,,,,,,,0,,,82,58
11039,note_on,0,0,2,,,,,,,,,,1,,,58,0
11039,note_on,119,0,2,,,,,,,,,,1,,,55,0
11039,note_on,59,0,1,,,,,,,,,,0,,,82,0
11040,note_on,1,0,2,,,,,,,,,,1,,,46,53
11040,note_on,1,0,1,,,,,,,,,,0,,,80,51
11100,note_on,0,0,1,,,,,,,,,,0,,,82,51
11100,note_on,60,0,1,,,,,,,,,,0,,,80,0
11159,note_on,119,0,2,,,,,,,,,,1,,,46,0
11160,note_on,0,0,2,,,,,,,,,,1,,,53,54
11160,note_on,1,0,2,,,,,,,,,,1,,,58,51
11160,note_on,60,0,1,,,,,,,,,,0,,,82,0
11160,note_on,0,0,1,,,,,,,,,,0,,,77,51
11220,note_on,0,0,1,,,,,,,,,,0,,,82,51
11220,note_on,60,0,1,,,,,,,,,,0,,,77,0
11230,set_tempo,3310,1,0,,,,,,,370370,,,,,,,
11279,note_on,119,0,2,,,,,,,,,,1,,,53,0
11280,note_on,0,0,2,,,,,,,,,,1,,,46,54
11280,note_on,60,0,1,,,,,,,,,,0,,,82,0
11280,note_on,0,0,1,,,,,,,,,,0,,,74,51
11280,note_on,1,0,2,,,,,,,,,,1,,,58,0
11340,note_on,60,0,1,,,,,,,,,,0,,,74,0
11340,note_on,0,0,1,,,,,,,,,,0,,,82,51
11399,note_on,119,0,2,,,,,,,,,,1,,,46,0
11400,note_on,1,0,2,,,,,,,,,,1,,,53,52
11400,note_on,0,0,2,,,,,,,,,,1,,,58,52
11400,note_on,60,0,1,,,,,,,,,,0,,,82,0
11400,note_on,0,0,1,,,,,,,,,,0,,,70,51
11460,note_on,60,0,1,,,,,,,,,,0,,,70,0
11460,note_on,0,0,1,,,,,,,,,,0,,,82,51
11519,note_on,119,0,2,,,,,,,,,,1,,,58,0
11519,note_on,0,0,2,,,,,,,,,,1,,,53,0
11520,note_on,0,0,1,,,,,,,,,,0,,,68,51
11520,note_on,60,0,1,,,,,,,,,,0,,,82,0
11520,note_on,1,0,2,,,,,,,,,,1,,,46,51
11580,note_on,60,0,1,,,,,,,,,,0,,,68,0
11580,note_on,0,0,1,,,,,,,,,,0,,,82,51
11639,note_on,119,0,2,,,,,,,,,,1,,,46,0
11640,note_on,60,0,1,,,,,,,,,,0,,,82,0
11640,note_on,0,0,1,,,,,,,,,,0,,,65,51
11640,note_on,0,0,2,,,,,,,,,,1,,,58,51
11640,note_on,1,0,2,,,,,,,,,,1,,,53,51
11700,note_on,60,0,1,,,,,,,,,,0,,,65,0
11700,note_on,0,0,1,,,,,,,,,,0,,,82,51
11759,note_on,119,0,2,,,,,,,,,,1,,,58,0
11759,note_on,0,0,2,,,,,,,,,,1,,,53,0
11760,note_on,60,0,1,,,,,,,,,,0,,,82,0
11760,note_on,0,0,1,,,,,,,,,,0,,,63,51
11760,note_on,1,0,2,,,,,,,,,,1,,,43,51
11880,note_on,120,0,1,,,,,,,,,,0,,,63,0
11880,note_on,120,0,2,,,,,,,,,,1,,,43,0
11880,note_on,0,0,2,,,,,,,,,,1,,,31,51
11880,note_on,0,0,1,,,,,,,,,,0,,,58,51
11880,note_on,0,0,1,,,,,,,,,,0,,,70,51
12000,note_on,120,0,2,,,,,,,,,,1,,,31,0
12000,note_on,0,0,2,,,,,,,,,,1,,,32,100
12000,note_on,120,0,1,,,,,,,,,,0,,,58,0
12000,note_on,0,0,1,,,,,,,,,,0,,,70,0
12000,note_on,0,0,1,,,,,,,,,,0,,,60,76
12059,note_on,59,0,1,,,,,,,,,,0,,,60,0
12060,note_on,1,0,1,,,,,,,,,,0,,,72,76
12119,note_on,59,0,1,,,,,,,,,,0,,,72,0
12120,note_on,1,0,1,,,,,,,,,,0,,,63,100
12120,note_on,0,0,1,,,,,,,,,,0,,,72,100
12120,note_on,120,0,2,,,,,,,,,,1,,,32,0
12120,note_on,0,0,2,,,,,,,,,,1,,,44,100
12130,set_tempo,900,1,0,,,,,,,372671,,,,,,,
12240,note_on,120,0,1,,,,,,,,,,0,,,72,0
12240,note_on,0,0,1,,,,,,,,,,0,,,63,0
12240,note_on,0,0,2,,,,,,,,,,1,,,46,100
12240,note_on,0,0,1,,,,,,,,,,0,,,62,77
12240,note_on,120,0,2,,,,,,,,,,1,,,44,0
12359,note_on,119,0,1,,,,,,,,,,0,,,62,0
12360,note_on,1,0,1,,,,,,,,,,0,,,74,78
12360,note_on,0,0,1,,,,,,,,,,0,,,65,78
12360,note_on,0,0,2,,,,,,,,,,1,,,34,100
12360,note_on,120,0,2,,,,,,,,,,1,,,46,0
12479,note_on,119,0,1,,,,,,,,,,0,,,65,0
12479,note_on,0,0,1,,,,,,,,,,0,,,74,0
12480,note_on,0,0,2,,,,,,,,,,1,,,36,100
12480,note_on,120,0,2,,,,,,,,,,1,,,34,0
12480,note_on,1,0,1,,,,,,,,,,0,,,63,78
12539,note_on,59,0,1,,,,,,,,,,0,,,63,0
12540,note_on,1,0,1,,,,,,,,,,0,,,75,79
12599,note_on,59,0,1,,,,,,,,,,0,,,75,0
12600,note_on,1,0,1,,,,,,,,,,0,,,75,100
12600,note_on,0,0,2,,,,,,,,,,1,,,48,100
12600,note_on,0,0,1,,,,,,,,,,0,,,67,100
12600,note_on,120,0,2,,,,,,,,,,1,,,36,0
12720,note_on,120,0,1,,,,,,,,,,0,,,67,0
12720,note_on,0,0,1,,,,,,,,,,0,,,75,0
12720,note_on,120,0,2,,,,,,,,,,1,,,48,0
12720,note_on,0,0,1,,,,,,,,,,0,,,65,80
12720,note_on,0,0,2,,,,,,,,,,1,,,50,100
12839,note_on,119,0,1,,,,,,,,,,0,,,65,0
12840,note_on,0,0,1,,,,,,,,,,0,,,77,80
12840,note_on,1,0,1,,,,,,,,,,0,,,68,80
12840,note_on,120,0,2,,,,,,,,,,1,,,50,0
12840,note_on,0,0,2,,,,,,,,,,1,,,38,100
12959,note_on,0,0,1,,,,,,,,,,0,,,68,0
12959,note_on,119,0,1,,,,,,,,,,0,,,77,0
12960,note_on,0,0,2,,,,,,,,,,1,,,39,100
12960,note_on,120,0,2,,,,,,,,,,1,,,38,0
12960,note_on,1,0,1,,,,,,,,,,0,,,67,79
13019,note_on,59,0,1,,,,,,,,,,0,,,67,0
13020,note_on,1,0,1,,,,,,,,,,0,,,79,79
13030,set_tempo,900,1,0,,,,,,,375000,,,,,,,
13079,note_on,59,0,1,,,,,,,,,,0,,,79,0
13080,set_tempo,50,1,0,,,,,,,372671,,,,,,,
13080,note_on,1,0,1,,,,,,,,,,0,,,70,100
13080,note_on,0,0,1,,,,,,,,,,0,,,79,100
13080,note_on,120,0,2,,,,,,,,,,1,,,39,0
13080,note_on,0,0,2,,,,,,,,,,1,,,51,100
13200,note_on,120,0,1,,,,,,,,,,0,,,79,0
13200,note_on,0,0,2,,,,,,,,,,1,,,46,100
13200,note_on,120,0,2,,,,,,,,,,1,,,51,0
13200,note_on,0,0,1,,,,,,,,,,0,,,68,80
13200,note_on,0,0,1,,,,,,,,,,0,,,70,0
13259,note_on,59,0,1,,,,,,,,,,0,,,68,0
13260,note_on,1,0,1,,,,,,,,,,0,,,80,80
13319,note_on,59,0,1,,,,,,,,,,0,,,80,0
13320,note_on,1,0,1,,,,,,,,,,0,,,77,80
13320,note_on,0,0,2,,,,,,,,,,1,,,34,100
13320,note_on,120,0,2,,,,,,,,,,1,,,46,0
13379,note_on,59,0,1,,,,,,,,,,0,,,77,0
13380,note_on,1,0,1,,,,,,,,,,0,,,74,80
13439,note_on,59,0,1,,,,,,,,,,0,,,74,0
13440,note_on,120,0,2,,,,,,,,,,1,,,34,0
13440,note_on,0,0,2,,,,,,,,,,1,,,39,80
13440,note_on,1,0,1,,,,,,,,,,0,,,75,80
13499,note_on,59,0,1,,,,,,,,,,0,,,75,0
13500,note_on,1,0,1,,,,,,,,,,0,,,79,79
13559,note_on,59,0,1,,,,,,,,,,0,,,79,0
13560,note_on,120,0,2,,,,,,,,,,1,,,39,0
13560,note_on,0,0,2,,,,,,,,,,1,,,51,80
13560,note_on,1,0,1,,,,,,,,,,0,,,75,80
13619,note_on,59,0,1,,,,,,,,,,0,,,75,0
13620,note_on,1,0,1,,,,,,,,,,0,,,70,80
13679,note_on,59,0,1,,,,,,,,,,0,,,70,0
13680,note_on,1,0,1,,,,,,,,,,0,,,67,80
13680,note_on,0,0,2,,,,,,,,,,1,,,39,80
13680,note_on,0,0,2,,,,,,,,,,1,,,51,80
13680,note_on,120,0,2,,,,,,,,,,1,,,51,0
13800,note_on,120,0,1,,,,,,,,,,0,,,67,0
13800,note_on,0,0,1,,,,,,,,,,0,,,70,80
13800,note_on,0,0,1,,,,,,,,,,0,,,58,80
13800,note_on,0,0,2,,,,,,,,,,1,,,43,80
13800,note_on,120,0,2,,,,,,,,,,1,,,51,0
13800,note_on,0,0,2,,,,,,,,,,1,,,39,0
13800,note_on,0,0,2,,,,,,,,,,1,,,55,80
13920,note_on,120,0,2,,,,,,,,,,1,,,43,0
13920,note_on,0,0,2,,,,,,,,,,1,,,55,0
13920,note_on,0,0,2,,,,,,,,,,1,,,44,80
13920,note_on,120,0,1,,,,,,,,,,0,,,58,0
13920,note_on,0,0,1,,,,,,,,,,0,,,70,0
13920,note_on,0,0,1,,,,,,,,,,0,,,60,85
13979,note_on,59,0,1,,,,,,,,,,0,,,60,0
13980,note_on,1,0,1,,,,,,,,,,0,,,72,85
14039,note_on,59,0,1,,,,,,,,,,0,,,72,0
14040,note_on,0,0,1,,,,,,,,,,0,,,63,80
14040,note_on,120,0,2,,,,,,,,,,1,,,44,0
14040,note_on,0,0,2,,,,,,,,,,1,,,51,80
14040,note_on,0,0,2,,,,,,,,,,1,,,56,80
14040,note_on,1,0,1,,,,,,,,,,0,,,72,80
14160,note_on,120,0,1,,,,,,,,,,0,,,63,0
14160,note_on,0,0,1,,,,,,,,,,0,,,62,85
14160,note_on,120,0,2,,,,,,,,,,1,,,56,0
14160,note_on,0,0,2,,,,,,,,,,1,,,51,0
14160,note_on,0,0,2,,,,,,,,,,1,,,46,80
14160,note_on,0,0,1,,,,,,,,,,0,,,72,0
14279,note_on,119,0,1,,,,,,,,,,0,,,62,0
14280,note_on,0,0,2,,,,,,,,,,1,,,53,80
14280,note_on,0,0,2,,,,,,,,,,1,,,58,80
14280,note_on,120,0,2,,,,,,,,,,1,,,46,0
14280,note_on,0,0,1,,,,,,,,,,0,,,65,85
14280,note_on,1,0,1,,,,,,,,,,0,,,74,85
14399,note_on,0,0,1,,,,,,,,,,0,,,74,0
14399,note_on,119,0,1,,,,,,,,,,0,,,65,0
14400,note_on,120,0,2,,,,,,,,,,1,,,53,0
14400,note_on,0,0,2,,,,,,,,,,1,,,58,0
14400,note_on,1,0,1,,,,,,,,,,0,,,63,85
14400,note_on,0,0,2,,,,,,,,,,1,,,48,80
14459,note_on,59,0,1,,,,,,,,,,0,,,63,0
14460,note_on,1,0,1,,,,,,,,,,0,,,75,85
14519,note_on,59,0,1,,,,,,,,,,0,,,75,0
14520,note_on,1,0,1,,,,,,,,,,0,,,67,80
14520,note_on,0,0,1,,,,,,,,,,0,,,75,80
14520,note_on,0,0,2,,,,,,,,,,1,,,55,80
14520,note_on,0,0,2,,,,,,,,,,1,,,60,80
14520,note_on,120,0,2,,,,,,,,,,1,,,48,0
14640,note_on,120,0,1,,,,,,,,,,0,,,75,0
14640,note_on,0,0,1,,,,,,,,,,0,,,65,85
14640,note_on,120,0,2,,,,,,,,,,1,,,55,0
14640,note_on,0,0,2,,,,,,,,,,1,,,50,100
14640,note_on,0,0,2,,,,,,,,,,1,,,60,0
14640,note_on,0,0,1,,,,,,,,,,0,,,67,0
14759,note_on,119,0,1,,,,,,,,,,0,,,65,0
14760,note_on,1,0,1,,,,,,,,,,0,,,77,85
14760,note_on,0,0,1,,,,,,,,,,0,,,68,85
14760,note_on,0,0,2,,,,,,,,,,1,,,58,100
14760,note_on,0,0,2,,,,,,,,,,1,,,62,100
14760,note_on,120,0,2,,,,,,,,,,1,,,50,0
14879,note_on,0,0,1,,,,,,,,,,0,,,77,0
14879,note_on,119,0,1,,,,,,,,,,0,,,68,0
14880,note_on,1,0,1,,,,,,,,,,0,,,67,85
14880,note_on,0,0,2,,,,,,,,,,1,,,62,0
14880,note_on,120,0,2,,,,,,,,,,1,,,58,0
14880,note_on,0,0,2,,,,,,,,,,1,,,51,80
14939,note_on,59,0,1,,,,,,,,,,0,,,67,0
14940,note_on,1,0,1,,,,,,,,,,0,,,79,85
14990,set_tempo,1910,1,0,,,,,,,372671,,,,,,,
14999,note_on,59,0,1,,,,,,,,,,0,,,79,0
15000,note_on,120,0,2,,,,,,,,,,1,,,51,0
15000,note_on,0,0,2,,,,,,,,,,1,,,63,80
15000,note_on,0,0,2,,,,,,,,,,1,,,58,80
15000,note_on,0,0,1,,,,,,,,,,0,,,79,80
15000,note_on,1,0,1,,,,,,,,,,0,,,70,80
15010,set_tempo,20,1,0,,,,,,,375000,,,,,,,
15020,set_tempo,10,1,0,,,,,,,377358,,,,,,,
15030,set_tempo,10,1,0,,,,,,,379747,,,,,,,
15040,set_tempo,10,1,0,,,,,,,382166,,,,,,,
15050,set_tempo,10,1,0,,,,,,,384615,,,,,,,
15060,set_tempo,10,1,0,,,,,,,387097,,,,,,,
15070,set_tempo,10,1,0,,,,,,,389610,,,,,,,
15090,set_tempo,20,1,0,,,,,,,392157,,,,,,,
15100,set_tempo,10,1,0,,,,,,,394737,,,,,,,
15110,set_tempo,10,1,0,,,,,,,397351,,,,,,,
15120,note_on,0,0,1,,,,,,,,,,0,,,68,80
15120,set_tempo,10,1,0,,,,,,,400000,,,,,,,
15120,note_on,0,0,2,,,,,,,,,,1,,,46,80
15120,note_on,0,0,2,,,,,,,,,,1,,,63,0
15120,note_on,0,0,1,,,,,,,,,,0,,,70,0
15120,note_on,120,0,1,,,,,,,,,,0,,,79,0
15120,note_on,120,0,2,,,,,,,,,,1,,,58,0
15130,set_tempo,10,1,0,,,,,,,402685,,,,,,,
15140,set_tempo,10,1,0,,,,,,,405405,,,,,,,
15150,set_tempo,10,1,0,,,,,,,408163,,,,,,,
15170,set_tempo,20,1,0,,,,,,,410959,,,,,,,
15180,note_on,0,0,1,,,,,,,,,,0,,,80,80
15180,note_on,60,0,1,,,,,,,,,,0,,,68,0
15180,set_tempo,10,1,0,,,,,,,413793,,,,,,,
15190,set_tempo,10,1,0,,,,,,,416667,,,,,,,
15200,set_tempo,10,1,0,,,,,,,419580,,,,,,,
15210,set_tempo,10,1,0,,,,,,,422535,,,,,,,
15220,set_tempo,10,1,0,,,,,,,425532,,,,,,,
15230,set_tempo,10,1,0,,,,,,,428571,,,,,,,
15240,note_on,120,0,2,,,,,,,,,,1,,,46,0
15240,note_on,0,0,1,,,,,,,,,,0,,,77,80
15240,note_on,60,0,1,,,,,,,,,,0,,,80,0
15240,note_on,0,0,2,,,,,,,,,,1,,,58,80
15250,set_tempo,20,1,0,,,,,,,431655,,,,,,,
15260,set_tempo,10,1,0,,,,,,,434783,,,,,,,
15270,set_tempo,10,1,0,,,,,,,437956,,,,,,,
15280,set_tempo,10,1,0,,,,,,,441176,,,,,,,
15290,set_tempo,10,1,0,,,,,,,444444,,,,,,,
15300,set_tempo,10,1,0,,,,,,,447761,,,,,,,
15300,note_on,60,0,1,,,,,,,,,,0,,,77,0
15300,note_on,0,0,1,,,,,,,,,,0,,,74,80
15310,set_tempo,10,1,0,,,,,,,451128,,,,,,,
15330,set_tempo,20,1,0,,,,,,,454545,,,,,,,
15340,set_tempo,10,1,0,,,,,,,458015,,,,,,,
15350,set_tempo,10,1,0,,,,,,,461538,,,,,,,
15360,note_on,120,0,2,,,,,,,,,,1,,,58,0
15360,note_on,0,0,2,,,,,,,,,,1,,,51,79
15360,note_on,0,0,1,,,,,,,,,,0,,,75,80
15360,note_on,60,0,1,,,,,,,,,,0,,,74,0
15360,set_tempo,10,1,0,,,,,,,465116,,,,,,,
15370,set_tempo,10,1,0,,,,,,,465116,,,,,,,
15380,set_tempo,10,1,0,,,,,,,582524,,,,,,,
15480,note_on,0,0,2,,,,,,,,,,1,,,39,72
15480,note_on,120,0,2,,,,,,,,,,1,,,51,0
15480,note_on,120,0,1,,,,,,,,,,0,,,75,0
15500,set_tempo,120,1,0,,,,,,,375000,,,,,,,
15600,note_on,120,0,1,,,,,,,,,,0,,,75,51
15600,marker,100,1,0,,,,,,,,,,,,,,
15600,note_on,0,0,1,,,,,,,,,,0,,,63,51
15600,note_on,0,0,1,,,,,,,,,,0,,,67,51
15600,note_on,120,0,2,,,,,,,,,,1,,,39,0
15600,note_on,0,0,2,,,,,,,,,,1,,,39,51
15600,note_on,0,0,1,,,,,,,,,,0,,,70,51
15720,note_on,120,0,2,,,,,,,,,,1,,,39,0
15720,note_on,0,0,2,,,,,,,,,,1,,,55,51
15720,note_on,0,0,2,,,,,,,,,,1,,,51,51
15720,note_on,0,0,1,,,,,,,,,,0,,,74,51
15720,note_on,120,0,1,,,,,,,,,,0,,,63,0
15720,note_on,0,0,1,,,,,,,,,,0,,,75,0
15720,note_on,0,0,1,,,,,,,,,,0,,,70,0
15720,note_on,0,0,1,,,,,,,,,,0,,,67,0
15720,note_on,0,0,1,,,,,,,,,,0,,,70,51
15780,note_on,0,0,1,,,,,,,,,,0,,,68,51
15780,note_on,60,0,1,,,,,,,,,,0,,,74,0
15780,note_on,0,0,1,,,,,,,,,,0,,,70,0
15780,note_on,0,0,1,,,,,,,,,,0,,,72,51
15840,note_on,120,0,2,,,,,,,,,,1,,,51,0
15840,note_on,0,0,1,,,,,,,,,,0,,,67,51
15840,note_on,0,0,1,,,,,,,,,,0,,,70,51
15840,note_on,60,0,1,,,,,,,,,,0,,,72,0
15840,note_on,0,0,2,,,,,,,,,,1,,,55,0
15840,note_on,0,0,1,,,,,,,,,,0,,,68,0
15840,note_on,0,0,2,,,,,,,,,,1,,,39,51
15960,note_on,0,0,2,,,,,,,,,,1,,,55,51
15960,note_on,0,0,1,,,,,,,,,,0,,,70,51
15960,note_on,0,0,2,,,,,,,,,,1,,,51,51
15960,note_on,120,0,2,,,,,,,,,,1,,,39,0
15960,note_on,120,0,1,,,,,,,,,,0,,,67,0
15960,note_on,0,0,1,,,,,,,,,,0,,,70,0
15960,note_on,0,0,1,,,,,,,,,,0,,,67,51
16080,note_on,0,0,2,,,,,,,,,,1,,,55,0
16080,note_on,120,0,1,,,,,,,,,,0,,,67,0
16080,note_on,0,0,1,,,,,,,,,,0,,,70,0
16080,note_on,0,0,1,,,,,,,,,,0,,,72,51
16080,note_on,0,0,1,,,,,,,,,,0,,,68,51
16080,note_on,0,0,2,,,,,,,,,,1,,,39,51
16080,note_on,120,0,2,,,,,,,,,,1,,,51,0
16140,note_on,60,0,1,,,,,,,,,,0,,,68,0
16140,note_on,0,0,1,,,,,,,,,,0,,,72,0
16140,note_on,0,0,1,,,,,,,,,,0,,,70,51
16140,note_on,0,0,1,,,,,,,,,,0,,,67,51
16150,set_tempo,550,1,0,,,,,,,375000,,,,,,,
16200,note_on,60,0,1,,,,,,,,,,0,,,67,0
16200,note_on,0,0,1,,,,,,,,,,0,,,68,51
16200,note_on,0,0,1,,,,,,,,,,0,,,70,0
16200,note_on,0,0,1,,,,,,,,,,0,,,72,51
16200,note_on,0,0,2,,,,,,,,,,1,,,56,51
16200,note_on,120,0,2,,,,,,,,,,1,,,39,0
16200,note_on,0,0,2,,,,,,,,,,1,,,51,51
16260,note_on,60,0,1,,,,,,,,,,0,,,68,0
16260,note_on,0,0,1,,,,,,,,,,0,,,72,0
16260,note_on,0,0,1,,,,,,,,,,0,,,66,54
16260,note_on,0,0,1,,,,,,,,,,0,,,69,54
16320,note_on,60,0,1,,,,,,,,,,0,,,69,0
16320,note_on,0,0,1,,,,,,,,,,0,,,66,0
16320,note_on,0,0,1,,,,,,,,,,0,,,70,54
16320,note_on,120,0,2,,,,,,,,,,1,,,51,0
16320,note_on,0,0,2,,,,,,,,,,1,,,56,0
16320,note_on,0,0,2,,,,,,,,,,1,,,39,51
16320,note_on,0,0,1,,,,,,,,,,0,,,67,54
16440,note_on,0,0,2,,,,,,,,,,1,,,51,51
16440,note_on,120,0,2,,,,,,,,,,1,,,39,0
16440,note_on,0,0,2,,,,,,,,,,1,,,55,51
16440,note_on,120,0,1,,,,,,,,,,0,,,67,0
16440,note_on,0,0,1,,,,,,,,,,0,,,70,0
16440,note_on,0,0,1,,,,,,,,,,0,,,70,54
16440,note_on,0,0,1,,,,,,,,,,0,,,67,54
16560,note_on,0,0,2,,,,,,,,,,1,,,34,51
16560,note_on,0,0,2,,,,,,,,,,1,,,55,0
16560,note_on,120,0,2,,,,,,,,,,1,,,51,0
16560,note_on,120,0,1,,,,,,,,,,0,,,67,0
16560,note_on,0,0,1,,,,,,,,,,0,,,70,0
16560,note_on,0,0,1,,,,,,,,,,0,,,68,54
16560,note_on,0,0,1,,,,,,,,,,0,,,65,54
16680,note_on,120,0,1,,,,,,,,,,0,,,65,0
16680,note_on,0,0,2,,,,,,,,,,1,,,46,51
16680,note_on,0,0,2,,,,,,,,,,1,,,50,51
16680,note_on,120,0,2,,,,,,,,,,1,,,34,0
16680,note_on,0,0,1,,,,,,,,,,0,,,68,0
16680,note_on,0,0,1,,,,,,,,,,0,,,80,54
16680,note_on,0,0,1,,,,,,,,,,0,,,77,54
16740,note_on,0,0,1,,,,,,,,,,0,,,79,55
16740,note_on,0,0,1,,,,,,,,,,0,,,75,55
16740,note_on,0,0,1,,,,,,,,,,0,,,77,0
16740,note_on,60,0,1,,,,,,,,,,0,,,80,0
16800,note_on,60,0,1,,,,,,,,,,0,,,79,0
16800,note_on,0,0,1,,,,,,,,,,0,,,75,0
16800,note_on,0,0,2,,,,,,,,,,1,,,34,51
16800,note_on,0,0,2,,,,,,,,,,1,,,50,0
16800,note_on,120,0,2,,,,,,,,,,1,,,46,0
16800,note_on,0,0,1,,,,,,,,,,0,,,74,55
16800,note_on,0,0,1,,,,,,,,,,0,,,77,55
16920,note_on,120,0,1,,,,,,,,,,0,,,77,0
16920,note_on,0,0,1,,,,,,,,,,0,,,74,0
16920,note_on,0,0,1,,,,,,,,,,0,,,74,56
16920,note_on,0,0,1,,,,,,,,,,0,,,77,56
16920,note_on,120,0,2,,,,,,,,,,1,,,34,0
16920,note_on,0,0,2,,,,,,,,,,1,,,46,51
16920,note_on,0,0,2,,,,,,,,,,1,,,50,51
16980,note_on,0,0,1,,,,,,,,,,0,,,75,57
16980,note_on,0,0,1,,,,,,,,,,0,,,72,57
16980,note_on,0,0,1,,,,,,,,,,0,,,74,0
16980,note_on,60,0,1,,,,,,,,,,0,,,77,0
17040,note_on,0,0,1,,,,,,,,,,0,,,70,58
17040,note_on,0,0,1,,,,,,,,,,0,,,74,58
17040,note_on,60,0,1,,,,,,,,,,0,,,72,0
17040,note_on,0,0,2,,,,,,,,,,1,,,50,0
17040,note_on,120,0,2,,,,,,,,,,1,,,46,0
17040,note_on,0,0,1,,,,,,,,,,0,,,75,0
17040,note_on,0,0,2,,,,,,,,,,1,,,34,51
17160,note_on,0,0,2,,,,,,,,,,1,,,50,51
17160,note_on,120,0,2,,,,,,,,,,1,,,34,0
17160,note_on,0,0,1,,,,,,,,,,0,,,74,58
17160,note_on,120,0,1,,,,,,,,,,0,,,74,0
17160,note_on,0,0,2,,,,,,,,,,1,,,46,51
17160,note_on,0,0,1,,,,,,,,,,0,,,70,0
17160,note_on,0,0,1,,,,,,,,,,0,,,70,58
17220,note_on,60,0,1,,,,,,,,,,0,,,74,0
17220,note_on,0,0,1,,,,,,,,,,0,,,70,0
17220,note_on,0,0,1,,,,,,,,,,0,,,68,58
17220,note_on,0,0,1,,,,,,,,,,0,,,72,58
17280,note_on,60,0,1,,,,,,,,,,0,,,72,0
17280,note_on,0,0,1,,,,,,,,,,0,,,68,0
17280,note_on,0,0,1,,,,,,,,,,0,,,70,60
17280,note_on,0,0,1,,,,,,,,,,0,,,67,60
17280,note_on,0,0,2,,,,,,,,,,1,,,34,62
17280,note_on,0,0,2,,,,,,,,,,1,,,50,0
17280,note_on,120,0,2,,,,,,,,,,1,,,46,0
17400,note_on,0,0,2,,,,,,,,,,1,,,50,63
17400,note_on,0,0,2,,,,,,,,,,1,,,46,63
17400,note_on,120,0,2,,,,,,,,,,1,,,34,0
17400,note_on,0,0,1,,,,,,,,,,0,,,68,61
17400,note_on,0,0,1,,,,,,,,,,0,,,65,61
17400,note_on,0,0,1,,,,,,,,,,0,,,70,0
17400,note_on,120,0,1,,,,,,,,,,0,,,67,0
17520,note_on,0,0,2,,,,,,,,,,1,,,50,0
17520,note_on,0,0,1,,,,,,,,,,0,,,75,61
17520,note_on,120,0,2,,,,,,,,,,1,,,46,0
17520,note_on,0,0,1,,,,,,,,,,0,,,63,61
17520,note_on,0,0,2,,,,,,,,,,1,,,39,67
17520,note_on,0,0,1,,,,,,,,,,0,,,70,61
17520,note_on,0,0,1,,,,,,,,,,0,,,67,61
17520,note_on,0,0,1,,,,,,,,,,0,,,68,0
17520,note_on,120,0,1,,,,,,,,,,0,,,65,0
17640,note_on,0,0,2,,,,,,,,,,1,,,51,68
17640,note_on,120,0,2,,,,,,,,,,1,,,39,0
17640,note_on,120,0,1,,,,,,,,,,0,,,75,0
17640,note_on,0,0,1,,,,,,,,,,0,,,63,0
17640,note_on,0,0,1,,,,,,,,,,0,,,67,0
17640,note_on,0,0,1,,,,,,,,,,0,,,70,0
17640,note_on,0,0,1,,,,,,,,,,0,,,74,61
17640,note_on,0,0,2,,,,,,,,,,1,,,55,68
17640,note_on,0,0,1,,,,,,,,,,0,,,70,61
17700,note_on,0,0,1,,,,,,,,,,0,,,72,61
17700,note_on,0,0,1,,,,,,,,,,0,,,68,61
17700,note_on,60,0,1,,,,,,,,,,0,,,74,0
17700,note_on,0,0,1,,,,,,,,,,0,,,70,0
17760,note_on,120,0,2,,,,,,,,,,1,,,55,0
17760,note_on,0,0,2,,,,,,,,,,1,,,51,0
17760,note_on,0,0,2,,,,,,,,,,1,,,39,68
17760,note_on,60,0,1,,,,,,,,,,0,,,72,0
17760,note_on,0,0,1,,,,,,,,,,0,,,68,0
17760,note_on,0,0,1,,,,,,,,,,0,,,70,61
17760,note_on,0,0,1,,,,,,,,,,0,,,67,61
17880,note_on,120,0,1,,,,,,,,,,0,,,67,0
17880,note_on,0,0,1,,,,,,,,,,0,,,70,0
17880,note_on,0,0,1,,,,,,,,,,0,,,70,61
17880,note_on,0,0,1,,,,,,,,,,0,,,67,61
17880,note_on,0,0,2,,,,,,,,,,1,,,55,69
17880,note_on,0,0,2,,,,,,,,,,1,,,51,69
17880,note_on,120,0,2,,,,,,,,,,1,,,39,0
18000,note_on,0,0,1,,,,,,,,,,0,,,70,0
18000,note_on,0,0,1,,,,,,,,,,0,,,72,61
18000,note_on,0,0,1,,,,,,,,,,0,,,68,61
18000,note_on,0,0,2,,,,,,,,,,1,,,51,0
18000,note_on,0,0,2,,,,,,,,,,1,,,39,70
18000,note_on,120,0,1,,,,,,,,,,0,,,67,0
18000,note_on,120,0,2,,,,,,,,,,1,,,55,0
18060,note_on,0,0,1,,,,,,,,,,0,,,72,0
18060,note_on,0,0,1,,,,,,,,,,0,,,70,65
18060,note_on,0,0,1,,,,,,,,,,0,,,67,65
18060,note_on,60,0,1,,,,,,,,,,0,,,68,0
18120,note_on,0,0,2,,,,,,,,,,1,,,51,71
18120,note_on,60,0,1,,,,,,,,,,0,,,67,0
18120,note_on,0,0,1,,,,,,,,,,0,,,70,0
18120,note_on,0,0,1,,,,,,,,,,0,,,72,66
18120,note_on,0,0,1,,,,,,,,,,0,,,68,66
18120,note_on,0,0,2,,,,,,,,,,1,,,56,71
18120,note_on,120,0,2,,,,,,,,,,1,,,39,0
18180,note_on,0,0,1,,,,,,,,,,0,,,69,68
18180,note_on,0,0,1,,,,,,,,,,0,,,72,0
18180,note_on,60,0,1,,,,,,,,,,0,,,68,0
18180,note_on,0,0,1,,,,,,,,,,0,,,66,68
18240,note_on,120,0,2,,,,,,,,,,1,,,51,0
18240,note_on,0,0,2,,,,,,,,,,1,,,56,0
18240,note_on,0,0,2,,,,,,,,,,1,,,39,76
18240,note_on,0,0,1,,,,,,,,,,0,,,67,70
18240,note_on,0,0,1,,,,,,,,,,0,,,70,70
18240,note_on,0,0,1,,,,,,,,,,0,,,66,0
18240,note_on,60,0,1,,,,,,,,,,0,,,69,0
18360,note_on,120,0,2,,,,,,,,,,1,,,39,0
18360,note_on,0,0,2,,,,,,,,,,1,,,55,76
18360,note_on,0,0,2,,,,,,,,,,1,,,51,76
18480,note_on,120,0,2,,,,,,,,,,1,,,51,0
18480,note_on,0,0,2,,,,,,,,,,1,,,34,78
18480,note_on,0,0,2,,,,,,,,,,1,,,55,0
18480,note_on,240,0,1,,,,,,,,,,0,,,67,0
18480,note_on,0,0,1,,,,,,,,,,0,,,68,78
18480,note_on,0,0,1,,,,,,,,,,0,,,65,78
18480,note_on,0,0,1,,,,,,,,,,0,,,70,0
18600,note_on,120,0,2,,,,,,,,,,1,,,34,0
18600,note_on,0,0,2,,,,,,,,,,1,,,50,80
18600,note_on,0,0,2,,,,,,,,,,1,,,46,80
18600,note_on,120,0,1,,,,,,,,,,0,,,65,0
18600,note_on,0,0,1,,,,,,,,,,0,,,68,0
18600,note_on,0,0,1,,,,,,,,,,0,,,84,84
18600,note_on,0,0,1,,,,,,,,,,0,,,80,84
18660,note_on,0,0,1,,,,,,,,,,0,,,84,0
18660,note_on,0,0,1,,,,,,,,,,0,,,82,84
18660,note_on,0,0,1,,,,,,,,,,0,,,79,84
18660,note_on,60,0,1,,,,,,,,,,0,,,80,0
18720,note_on,60,0,1,,,,,,,,,,0,,,79,0
18720,note_on,0,0,1,,,,,,,,,,0,,,77,84
18720,note_on,0,0,1,,,,,,,,,,0,,,82,0
18720,note_on,120,0,2,,,,,,,,,,1,,,46,0
18720,note_on,0,0,2,,,,,,,,,,1,,,50,0
18720,note_on,0,0,2,,,,,,,,,,1,,,34,85
18720,note_on,0,0,1,,,,,,,,,,0,,,80,84
18780,note_on,0,0,1,,,,,,,,,,0,,,75,86
18780,note_on,60,0,1,,,,,,,,,,0,,,77,0
18780,note_on,0,0,1,,,,,,,,,,0,,,80,0
18780,note_on,0,0,1,,,,,,,,,,0,,,79,86
18840,note_on,0,0,1,,,,,,,,,,0,,,79,0
18840,note_on,60,0,1,,,,,,,,,,0,,,75,0
18840,note_on,0,0,1,,,,,,,,,,0,,,77,86
18840,note_on,0,0,1,,,,,,,,,,0,,,74,86
18840,note_on,120,0,2,,,,,,,,,,1,,,34,0
18840,note_on,0,0,2,,,,,,,,,,1,,,50,86
18840,note_on,0,0,2,,,,,,,,,,1,,,46,86
18900,note_on,0,0,1,,,,,,,,,,0,,,72,87
18900,note_on,0,0,1,,,,,,,,,,0,,,75,87
18900,note_on,0,0,1,,,,,,,,,,0,,,77,0
18900,note_on,60,0,1,,,,,,,,,,0,,,74,0
18960,note_on,0,0,1,,,,,,,,,,0,,,74,88
18960,note_on,60,0,1,,,,,,,,,,0,,,72,0
18960,note_on,0,0,1,,,,,,,,,,0,,,70,88
18960,note_on,0,0,1,,,,,,,,,,0,,,75,0
18960,note_on,0,0,2,,,,,,,,,,1,,,34,87
18960,note_on,0,0,2,,,,,,,,,,1,,,50,0
18960,note_on,120,0,2,,,,,,,,,,1,,,46,0
19080,note_on,0,0,2,,,,,,,,,,1,,,46,91
19080,note_on,0,0,1,,,,,,,,,,0,,,68,90
19080,note_on,0,0,1,,,,,,,,,,0,,,72,90
19080,note_on,120,0,2,,,,,,,,,,1,,,34,0
19080,note_on,0,0,1,,,,,,,,,,0,,,74,0
19080,note_on,120,0,1,,,,,,,,,,0,,,70,0
19200,note_on,0,0,1,,,,,,,,,,0,,,72,0
19200,set_tempo,3050,1,0,,,,,,,377358,,,,,,,
19200,note_on,0,0,1,,,,,,,,,,0,,,70,92
19200,note_on,120,0,1,,,,,,,,,,0,,,68,0
19200,note_on,0,0,2,,,,,,,,,,1,,,34,92
19200,note_on,0,0,1,,,,,,,,,,0,,,67,92
19200,note_on,120,0,2,,,,,,,,,,1,,,46,0
19320,note_on,0,0,1,,,,,,,,,,0,,,68,96
19320,note_on,0,0,1,,,,,,,,,,0,,,70,0
19320,note_on,0,0,1,,,,,,,,,,0,,,65,96
19320,note_on,0,0,2,,,,,,,,,,1,,,46,98
19320,note_on,120,0,2,,,,,,,,,,1,,,34,0
19320,note_on,120,0,1,,,,,,,,,,0,,,67,0
19440,note_on,0,0,2,,,,,,,,,,1,,,43,102
19440,note_on,120,0,2,,,,,,,,,,1,,,46,0
19440,note_on,0,0,1,,,,,,,,,,0,,,68,0
19440,note_on,0,0,1,,,,,,,,,,0,,,63,101
19440,note_on,120,0,1,,,,,,,,,,0,,,65,0
19560,note_on,0,0,1,,,,,,,,,,0,,,58,110
19560,note_on,120,0,2,,,,,,,,,,1,,,43,0
19560,note_on,0,0,2,,,,,,,,,,1,,,31,104
19560,note_on,0,0,1,,,,,,,,,,0,,,70,110
19560,note_on,120,0,1,,,,,,,,,,0,,,63,0
19680,note_on,0,0,2,,,,,,,,,,1,,,32,100
19680,note_on,0,0,1,,,,,,,,,,0,,,70,0
19680,note_on,0,0,1,,,,,,,,,,0,,,60,76
19680,note_on,120,0,2,,,,,,,,,,1,,,31,0
19680,note_on,120,0,1,,,,,,,,,,0,,,58,0
19739,note_on,59,0,1,,,,,,,,,,0,,,60,0
19740,note_on,1,0,1,,,,,,,,,,0,,,72,76
19799,note_on,59,0,1,,,,,,,,,,0,,,72,0
19800,note_on,0,0,1,,,,,,,,,,0,,,72,100
19800,note_on,0,0,2,,,,,,,,,,1,,,44,100
19800,note_on,1,0,1,,,,,,,,,,0,,,63,100
19800,note_on,120,0,2,,,,,,,,,,1,,,32,0
19920,note_on,120,0,1,,,,,,,,,,0,,,72,0
19920,note_on,0,0,1,,,,,,,,,,0,,,63,0
19920,note_on,0,0,1,,,,,,,,,,0,,,62,77
19920,note_on,0,0,2,,,,,,,,,,1,,,46,100
19920,note_on,120,0,2,,,,,,,,,,1,,,44,0
20039,note_on,119,0,1,,,,,,,,,,0,,,62,0
20040,note_on,0,0,2,,,,,,,,,,1,,,34,100
20040,note_on,120,0,2,,,,,,,,,,1,,,46,0
20040,note_on,0,0,1,,,,,,,,,,0,,,65,78
20040,note_on,1,0,1,,,,,,,,,,0,,,74,78
20159,note_on,0,0,1,,,,,,,,,,0,,,74,0
20159,note_on,119,0,1,,,,,,,,,,0,,,65,0
20160,note_on,1,0,1,,,,,,,,,,0,,,63,78
20160,note_on,120,0,2,,,,,,,,,,1,,,34,0
20160,note_on,0,0,2,,,,,,,,,,1,,,36,100
20219,note_on,59,0,1,,,,,,,,,,0,,,63,0
20220,note_on,1,0,1,,,,,,,,,,0,,,75,79
20279,note_on,59,0,1,,,,,,,,,,0,,,75,0
20280,note_on,0,0,2,,,,,,,,,,1,,,48,100
20280,note_on,1,0,1,,,,,,,,,,0,,,75,100
20280,note_on,0,0,1,,,,,,,,,,0,,,67,100
20280,note_on,120,0,2,,,,,,,,,,1,,,36,0
20400,note_on,120,0,1,,,,,,,,,,0,,,67,0
20400,note_on,0,0,1,,,,,,,,,,0,,,65,80
20400,note_on,0,0,2,,,,,,,,,,1,,,50,100
20400,note_on,120,0,2,,,,,,,,,,1,,,48,0
20400,note_on,0,0,1,,,,,,,,,,0,,,75,0
20519,note_on,119,0,1,,,,,,,,,,0,,,65,0
20520,note_on,1,0,1,,,,,,,,,,0,,,68,80
20520,note_on,0,0,1,,,,,,,,,,0,,,77,80
20520,note_on,0,0,2,,,,,,,,,,1,,,38,100
20520,note_on,120,0,2,,,,,,,,,,1,,,50,0
20639,note_on,119,0,1,,,,,,,,,,0,,,77,0
20639,note_on,0,0,1,,,,,,,,,,0,,,68,0
20640,note_on,0,0,2,,,,,,,,,,1,,,39,100
20640,note_on,120,0,2,,,,,,,,,,1,,,38,0
20640,note_on,1,0,1,,,,,,,,,,0,,,67,79
20699,note_on,59,0,1,,,,,,,,,,0,,,67,0
20700,note_on,1,0,1,,,,,,,,,,0,,,79,79
20759,note_on,59,0,1,,,,,,,,,,0,,,79,0
20760,note_on,0,0,2,,,,,,,,,,1,,,51,100
20760,note_on,1,0,1,,,,,,,,,,0,,,70,100
20760,note_on,0,0,1,,,,,,,,,,0,,,79,100
20760,note_on,120,0,2,,,,,,,,,,1,,,39,0
20880,note_on,0,0,2,,,,,,,,,,1,,,46,100
20880,note_on,120,0,2,,,,,,,,,,1,,,51,0
20880,note_on,120,0,1,,,,,,,,,,0,,,79,0
20880,note_on,0,0,1,,,,,,,,,,0,,,70,0
20880,note_on,0,0,1,,,,,,,,,,0,,,68,80
20939,note_on,59,0,1,,,,,,,,,,0,,,68,0
20940,note_on,1,0,1,,,,,,,,,,0,,,80,80
20999,note_on,59,0,1,,,,,,,,,,0,,,80,0
21000,note_on,0,0,2,,,,,,,,,,1,,,34,100
21000,note_on,1,0,1,,,,,,,,,,0,,,77,80
21000,note_on,120,0,2,,,,,,,,,,1,,,46,0
21059,note_on,59,0,1,,,,,,,,,,0,,,77,0
21060,note_on,1,0,1,,,,,,,,,,0,,,74,80
21119,note_on,59,0,1,,,,,,,,,,0,,,74,0
21120,note_on,120,0,2,,,,,,,,,,1,,,34,0
21120,note_on,0,0,2,,,,,,,,,,1,,,39,80
21120,note_on,1,0,1,,,,,,,,,,0,,,75,80
21140,set_tempo,1940,1,0,,,,,,,379747,,,,,,,
21179,note_on,59,0,1,,,,,,,,,,0,,,75,0
21180,note_on,1,0,1,,,,,,,,,,0,,,79,79
21239,note_on,59,0,1,,,,,,,,,,0,,,79,0
21240,note_on,1,0,1,,,,,,,,,,0,,,75,80
21240,note_on,0,0,2,,,,,,,,,,1,,,51,80
21240,note_on,120,0,2,,,,,,,,,,1,,,39,0
21299,note_on,59,0,1,,,,,,,,,,0,,,75,0
21300,note_on,1,0,1,,,,,,,,,,0,,,70,80
21359,note_on,59,0,1,,,,,,,,,,0,,,70,0
21360,note_on,0,0,2,,,,,,,,,,1,,,51,80
21360,note_on,0,0,2,,,,,,,,,,1,,,39,80
21360,note_on,120,0,2,,,,,,,,,,1,,,51,0
21360,note_on,1,0,1,,,,,,,,,,0,,,67,80
21480,note_on,0,0,1,,,,,,,,,,0,,,70,80
21480,note_on,0,0,1,,,,,,,,,,0,,,58,80
21480,note_on,120,0,1,,,,,,,,,,0,,,67,0
21480,note_on,120,0,2,,,,,,,,,,1,,,51,0
21480,note_on,0,0,2,,,,,,,,,,1,,,39,0
21480,note_on,0,0,2,,,,,,,,,,1,,,55,80
21480,note_on,0,0,2,,,,,,,,,,1,,,43,80
21600,note_on,0,0,2,,,,,,,,,,1,,,44,80
21600,note_on,0,0,2,,,,,,,,,,1,,,55,0
21600,note_on,0,0,1,,,,,,,,,,0,,,60,85
21600,note_on,0,0,1,,,,,,,,,,0,,,70,0
21600,note_on,120,0,1,,,,,,,,,,0,,,58,0
21600,note_on,120,0,2,,,,,,,,,,1,,,43,0
21659,note_on,59,0,1,,,,,,,,,,0,,,60,0
21660,note_on,1,0,1,,,,,,,,,,0,,,72,85
21719,note_on,59,0,1,,,,,,,,,,0,,,72,0
21720,note_on,0,0,2,,,,,,,,,,1,,,56,80
21720,note_on,1,0,1,,,,,,,,,,0,,,72,80
21720,note_on,0,0,1,,,,,,,,,,0,,,63,80
21720,note_on,120,0,2,,,,,,,,,,1,,,44,0
21720,note_on,0,0,2,,,,,,,,,,1,,,51,80
21840,note_on,120,0,2,,,,,,,,,,1,,,56,0
21840,note_on,0,0,1,,,,,,,,,,0,,,62,85
21840,note_on,0,0,2,,,,,,,,,,1,,,51,0
21840,note_on,0,0,2,,,,,,,,,,1,,,46,80
21840,note_on,120,0,1,,,,,,,,,,0,,,63,0
21840,note_on,0,0,1,,,,,,,,,,0,,,72,0
21959,note_on,119,0,1,,,,,,,,,,0,,,62,0
21960,note_on,1,0,1,,,,,,,,,,0,,,74,85
21960,note_on,0,0,1,,,,,,,,,,0,,,65,85
21960,note_on,0,0,2,,,,,,,,,,1,,,53,80
21960,note_on,0,0,2,,,,,,,,,,1,,,58,80
21960,note_on,120,0,2,,,,,,,,,,1,,,46,0
22079,note_on,119,0,1,,,,,,,,,,0,,,65,0
22079,note_on,0,0,1,,,,,,,,,,0,,,74,0
22080,note_on,0,0,2,,,,,,,,,,1,,,48,80
22080,note_on,120,0,2,,,,,,,,,,1,,,53,0
22080,note_on,1,0,1,,,,,,,,,,0,,,63,85
22080,note_on,0,0,2,,,,,,,,,,1,,,58,0
22139,note_on,59,0,1,,,,,,,,,,0,,,63,0
22140,note_on,1,0,1,,,,,,,,,,0,,,75,85
22199,note_on,59,0,1,,,,,,,,,,0,,,75,0
22200,note_on,0,0,1,,,,,,,,,,0,,,75,80
22200,note_on,1,0,1,,,,,,,,,,0,,,67,80
22200,note_on,0,0,2,,,,,,,,,,1,,,55,80
22200,note_on,0,0,2,,,,,,,,,,1,,,60,80
22200,note_on,120,0,2,,,,,,,,,,1,,,48,0
22320,note_on,120,0,1,,,,,,,,,,0,,,75,0
22320,note_on,0,0,1,,,,,,,,,,0,,,65,85
22320,note_on,0,0,1,,,,,,,,,,0,,,67,0
22320,note_on,0,0,2,,,,,,,,,,1,,,50,80
22320,note_on,0,0,2,,,,,,,,,,1,,,60,0
22320,note_on,120,0,2,,,,,,,,,,1,,,55,0
22439,note_on,119,0,1,,,,,,,,,,0,,,65,0
22440,note_on,0,0,2,,,,,,,,,,1,,,58,80
22440,note_on,0,0,2,,,,,,,,,,1,,,62,80
22440,note_on,120,0,2,,,,,,,,,,1,,,50,0
22440,note_on,1,0,1,,,,,,,,,,0,,,77,85
22440,note_on,0,0,1,,,,,,,,,,0,,,68,85
22559,note_on,0,0,1,,,,,,,,,,0,,,77,0
22559,note_on,119,0,1,,,,,,,,,,0,,,68,0
22560,note_on,1,0,1,,,,,,,,,,0,,,67,85
22560,note_on,0,0,2,,,,,,,,,,1,,,51,80
22560,note_on,0,0,2,,,,,,,,,,1,,,62,0
22560,note_on,120,0,2,,,,,,,,,,1,,,58,0
22619,note_on,59,0,1,,,,,,,,,,0,,,67,0
22620,note_on,1,0,1,,,,,,,,,,0,,,79,85
22670,set_tempo,1530,1,0,,,,,,,375000,,,,,,,
22679,note_on,59,0,1,,,,,,,,,,0,,,79,0
22680,note_on,0,0,2,,,,,,,,,,1,,,58,80
22680,note_on,0,0,2,,,,,,,,,,1,,,63,80
22680,note_on,120,0,2,,,,,,,,,,1,,,51,0
22680,set_tempo,10,1,0,,,,,,,377358,,,,,,,
22680,note_on,0,0,1,,,,,,,,,,0,,,79,80
22680,note_on,1,0,1,,,,,,,,,,0,,,70,80
22690,set_tempo,10,1,0,,,,,,,382166,,,,,,,
22700,set_tempo,10,1,0,,,,,,,387097,,,,,,,
22710,set_tempo,10,1,0,,,,,,,392157,,,,,,,
22720,set_tempo,10,1,0,,,,,,,397351,,,,,,,
22730,set_tempo,10,1,0,,,,,,,402685,,,,,,,
22740,set_tempo,10,1,0,,,,,,,408163,,,,,,,
22750,set_tempo,10,1,0,,,,,,,413793,,,,,,,
22760,set_tempo,10,1,0,,,,,,,419580,,,,,,,
22770,set_tempo,10,1,0,,,,,,,425532,,,,,,,
22780,set_tempo,10,1,0,,,,,,,431655,,,,,,,
22790,set_tempo,10,1,0,,,,,,,434783,,,,,,,
22800,set_tempo,10,1,0,,,,,,,441176,,,,,,,
22800,note_on,0,0,2,,,,,,,,,,1,,,63,0
22800,note_on,120,0,1,,,,,,,,,,0,,,79,0
22800,note_on,0,0,1,,,,,,,,,,0,,,68,80
22800,note_on,0,0,2,,,,,,,,,,1,,,46,80
22800,note_on,120,0,2,,,,,,,,,,1,,,58,0
22800,note_on,0,0,1,,,,,,,,,,0,,,70,0
22810,set_tempo,10,1,0,,,,,,,447761,,,,,,,
22820,set_tempo,10,1,0,,,,,,,454545,,,,,,,
22830,set_tempo,10,1,0,,,,,,,461538,,,,,,,
22840,set_tempo,10,1,0,,,,,,,468750,,,,,,,
22850,set_tempo,10,1,0,,,,,,,476190,,,,,,,
22860,note_on,60,0,1,,,,,,,,,,0,,,68,0
22860,note_on,0,0,1,,,,,,,,,,0,,,80,80
22860,set_tempo,10,1,0,,,,,,,483871,,,,,,,
22870,set_tempo,10,1,0,,,,,,,491803,,,,,,,
22880,set_tempo,10,1,0,,,,,,,500000,,,,,,,
22890,set_tempo,10,1,0,,,,,,,508475,,,,,,,
22900,set_tempo,10,1,0,,,,,,,517241,,,,,,,
22910,set_tempo,10,1,0,,,,,,,521739,,,,,,,
22920,set_tempo,10,1,0,,,,,,,530973,,,,,,,
22920,note_on,0,0,2,,,,,,,,,,1,,,58,80
22920,note_on,60,0,1,,,,,,,,,,0,,,80,0
22920,note_on,0,0,1,,,,,,,,,,0,,,77,80
22920,note_on,120,0,2,,,,,,,,,,1,,,46,0
22930,set_tempo,10,1,0,,,,,,,540541,,,,,,,
22940,set_tempo,10,1,0,,,,,,,550459,,,,,,,
22950,set_tempo,10,1,0,,,,,,,560748,,,,,,,
22960,set_tempo,10,1,0,,,,,,,571429,,,,,,,
22970,set_tempo,10,1,0,,,,,,,582524,,,,,,,
22980,note_on,0,0,1,,,,,,,,,,0,,,74,80
22980,note_on,60,0,1,,,,,,,,,,0,,,77,0
22980,set_tempo,10,1,0,,,,,,,594059,,,,,,,
22990,set_tempo,10,1,0,,,,,,,606061,,,,,,,
23000,set_tempo,10,1,0,,,,,,,618557,,,,,,,
23010,set_tempo,10,1,0,,,,,,,631579,,,,,,,
23020,set_tempo,10,1,0,,,,,,,645161,,,,,,,
23030,set_tempo,10,1,0,,,,,,,652174,,,,,,,
23040,note_on,0,0,2,,,,,,,,,,1,,,51,79
23040,set_tempo,10,1,0,,,,,,,666667,,,,,,,
23040,note_on,0,0,1,,,,,,,,,,0,,,75,80
23040,note_on,60,0,1,,,,,,,,,,0,,,74,0
23040,note_on,120,0,2,,,,,,,,,,1,,,58,0
23050,set_tempo,10,1,0,,,,,,,681818,,,,,,,
23060,set_tempo,10,1,0,,,,,,,697674,,,,,,,
23070,set_tempo,10,1,0,,,,,,,714286,,,,,,,
23080,set_tempo,10,1,0,,,,,,,731707,,,,,,,
23090,set_tempo,10,1,0,,,,,,,750000,,,,,,,
23100,set_tempo,10,1,0,,,,,,,769231,,,,,,,
23110,set_tempo,10,1,0,,,,,,,789474,,,,,,,
23120,set_tempo,10,1,0,,,,,,,810811,,,,,,,
23130,set_tempo,10,1,0,,,,,,,833333,,,,,,,
23140,set_tempo,10,1,0,,,,,,,857143,,,,,,,
23150,set_tempo,10,1,0,,,,,,,869565,,,,,,,
23160,note_on,120,0,2,,,,,,,,,,1,,,51,0
23160,note_on,0,0,2,,,,,,,,,,1,,,39,72
23160,note_on,120,0,1,,,,,,,,,,0,,,75,0
23160,set_tempo,10,1,0,,,,,,,895522,,,,,,,
23170,set_tempo,10,1,0,,,,,,,923077,,,,,,,
23180,set_tempo,10,1,0,,,,,,,952381,,,,,,,
23190,set_tempo,10,1,0,,,,,,,983607,,,,,,,
23200,set_tempo,10,1,0,,,,,,,1016949,,,,,,,
23210,set_tempo,10,1,0,,,,,,,1052632,,,,,,,
23220,set_tempo,10,1,0,,,,,,,1090909,,,,,,,
23230,set_tempo,10,1,0,,,,,,,1132075,,,,,,,
23240,set_tempo,10,1,0,,,,,,,1176471,,,,,,,
23250,set_tempo,10,1,0,,,,,,,1224490,,,,,,,
23260,set_tempo,10,1,0,,,,,,,1276596,,,,,,,
23270,set_tempo,10,1,0,,,,,,,355030,,,,,,,
23280,note_on,120,0,2,,,,,,,,,,1,,,39,0
23280,marker,10,1,0,,,,,,,,,,,,,,
23280,note_on,0,0,2,,,,,,,,,,1,,,43,100
23340,note_on,180,0,1,,,,,,,,,,0,,,58,100
23400,note_on,0,0,1,,,,,,,,,,0,,,63,100
23400,note_on,60,0,1,,,,,,,,,,0,,,58,0
23400,note_on,0,0,2,,,,,,,,,,1,,,55,100
23400,note_on,120,0,2,,,,,,,,,,1,,,43,0
23460,note_on,0,0,1,,,,,,,,,,0,,,67,100
23460,note_on,60,0,1,,,,,,,,,,0,,,63,0
23520,note_on,60,0,1,,,,,,,,,,0,,,67,0
23520,note_on,0,0,1,,,,,,,,,,0,,,70,100
23520,note_on,120,0,2,,,,,,,,,,1,,,55,0
23520,note_on,0,0,2,,,,,,,,,,1,,,41,100
23640,note_on,120,0,2,,,,,,,,,,1,,,41,0
23640,note_on,0,0,1,,,,,,,,,,0,,,68,100
23640,note_on,120,0,1,,,,,,,,,,0,,,70,0
23640,note_on,0,0,2,,,,,,,,,,1,,,53,100
23760,note_on,120,0,2,,,,,,,,,,1,,,53,0
23760,note_on,120,0,1,,,,,,,,,,0,,,68,0
23760,note_on,0,0,2,,,,,,,,,,1,,,34,100
23820,note_on,60,0,1,,,,,,,,,,0,,,65,100
23880,note_on,0,0,2,,,,,,,,,,1,,,46,100
23880,note_on,0,0,1,,,,,,,,,,0,,,68,100
23880,note_on,120,0,2,,,,,,,,,,1,,,34,0
23880,note_on,60,0,1,,,,,,,,,,0,,,65,0
23940,note_on,60,0,1,,,,,,,,,,0,,,68,0
23940,note_on,0,0,1,,,,,,,,,,0,,,74,100
24000,note_on,0,0,1,,,,,,,,,,0,,,77,100
24000,note_on,60,0,1,,,,,,,,,,0,,,74,0
24000,note_on,120,0,2,,,,,,,,,,1,,,46,0
24000,note_on,0,0,2,,,,,,,,,,1,,,39,100
24120,note_on,120,0,2,,,,,,,,,,1,,,39,0
24120,note_on,120,0,1,,,,,,,,,,0,,,77,0
24120,note_on,0,0,1,,,,,,,,,,0,,,75,100
24120,note_on,0,0,2,,,,,,,,,,1,,,51,100
24240,note_on,120,0,2,,,,,,,,,,1,,,51,0
24240,note_on,120,0,1,,,,,,,,,,0,,,75,0
24240,note_on,0,0,2,,,,,,,,,,1,,,43,100
24300,note_on,60,0,1,,,,,,,,,,0,,,58,100
24360,note_on,0,0,2,,,,,,,,,,1,,,55,100
24360,note_on,60,0,1,,,,,,,,,,0,,,58,0
24360,note_on,0,0,1,,,,,,,,,,0,,,63,100
24360,note_on,120,0,2,,,,,,,,,,1,,,43,0
24420,note_on,60,0,1,,,,,,,,,,0,,,63,0
24420,note_on,0,0,1,,,,,,,,,,0,,,67,100
24480,note_on,120,0,2,,,,,,,,,,1,,,55,0
24480,note_on,0,0,1,,,,,,,,,,0,,,70,100
24480,note_on,60,0,1,,,,,,,,,,0,,,67,0
24480,note_on,0,0,2,,,,,,,,,,1,,,41,100
24600,note_on,0,0,1,,,,,,,,,,0,,,68,100
24600,note_on,120,0,1,,,,,,,,,,0,,,70,0
24600,note_on,120,0,2,,,,,,,,,,1,,,41,0
24600,note_on,0,0,2,,,,,,,,,,1,,,53,100
24720,note_on,120,0,1,,,,,,,,,,0,,,68,0
24720,note_on,0,0,2,,,,,,,,,,1,,,34,100
24720,note_on,120,0,2,,,,,,,,,,1,,,53,0
24780,note_on,60,0,1,,,,,,,,,,0,,,80,100
24840,note_on,60,0,1,,,,,,,,,,0,,,80,0
24840,note_on,0,0,2,,,,,,,,,,1,,,46,100
24840,note_on,120,0,2,,,,,,,,,,1,,,34,0
24840,note_on,0,0,1,,,,,,,,,,0,,,77,100
24900,note_on,60,0,1,,,,,,,,,,0,,,77,0
24900,note_on,0,0,1,,,,,,,,,,0,,,74,100
24960,note_on,0,0,2,,,,,,,,,,1,,,39,100
24960,note_on,0,0,1,,,,,,,,,,0,,,75,100
24960,note_on,120,0,2,,,,,,,,,,1,,,46,0
24960,note_on,60,0,1,,,,,,,,,,0,,,74,0
25020,note_on,0,0,1,,,,,,,,,,0,,,79,100
25020,note_on,60,0,1,,,,,,,,,,0,,,75,0
25080,note_on,60,0,1,,,,,,,,,,0,,,79,0
25080,note_on,0,0,2,,,,,,,,,,1,,,51,100
25080,note_on,120,0,2,,,,,,,,,,1,,,39,0
25080,note_on,0,0,1,,,,,,,,,,0,,,75,100
25140,note_on,60,0,1,,,,,,,,,,0,,,75,0
25140,note_on,0,0,1,,,,,,,,,,0,,,70,100
25200,note_on,60,0,1,,,,,,,,,,0,,,70,0
25200,note_on,0,0,2,,,,,,,,,,1,,,43,100
25200,note_on,120,0,2,,,,,,,,,,1,,,51,0
25260,note_on,60,0,1,,,,,,,,,,0,,,58,100
25320,note_on,60,0,1,,,,,,,,,,0,,,58,0
25320,note_on,0,0,1,,,,,,,,,,0,,,63,100
25320,note_on,0,0,2,,,,,,,,,,1,,,55,100
25320,note_on,120,0,2,,,,,,,,,,1,,,43,0
25380,note_on,60,0,1,,,,,,,,,,0,,,63,0
25380,note_on,0,0,1,,,,,,,,,,0,,,67,100
25440,note_on,0,0,2,,,,,,,,,,1,,,41,100
25440,note_on,120,0,2,,,,,,,,,,1,,,55,0
25440,note_on,60,0,1,,,,,,,,,,0,,,67,0
25440,note_on,0,0,1,,,,,,,,,,0,,,70,100
25560,note_on,120,0,1,,,,,,,,,,0,,,70,0
25560,note_on,0,0,1,,,,,,,,,,0,,,68,100
25560,note_on,0,0,2,,,,,,,,,,1,,,53,100
25560,note_on,120,0,2,,,,,,,,,,1,,,41,0
25680,note_on,120,0,1,,,,,,,,,,0,,,68,0
25680,note_on,0,0,2,,,,,,,,,,1,,,34,100
25680,note_on,120,0,2,,,,,,,,,,1,,,53,0
25740,note_on,60,0,1,,,,,,,,,,0,,,65,100
25800,note_on,60,0,1,,,,,,,,,,0,,,65,0
25800,note_on,0,0,1,,,,,,,,,,0,,,68,100
25800,note_on,0,0,2,,,,,,,,,,1,,,46,100
25800,note_on,120,0,2,,,,,,,,,,1,,,34,0
25860,note_on,0,0,1,,,,,,,,,,0,,,74,100
25860,note_on,60,0,1,,,,,,,,,,0,,,68,0
25920,note_on,0,0,2,,,,,,,,,,1,,,39,100
25920,note_on,120,0,2,,,,,,,,,,1,,,46,0
25920,note_on,0,0,1,,,,,,,,,,0,,,77,100
25920,note_on,60,0,1,,,,,,,,,,0,,,74,0
26040,note_on,0,0,2,,,,,,,,,,1,,,51,100
26040,note_on,0,0,1,,,,,,,,,,0,,,75,100
26040,note_on,120,0,1,,,,,,,,,,0,,,77,0
26040,note_on,120,0,2,,,,,,,,,,1,,,39,0
26160,note_on,0,0,2,,,,,,,,,,1,,,43,100
26160,note_on,120,0,2,,,,,,,,,,1,,,51,0
26160,note_on,120,0,1,,,,,,,,,,0,,,75,0
26220,note_on,60,0,1,,,,,,,,,,0,,,58,100
26280,note_on,120,0,2,,,,,,,,,,1,,,43,0
26280,note_on,0,0,2,,,,,,,,,,1,,,55,100
26280,note_on,0,0,1,,,,,,,,,,0,,,63,100
26280,note_on,60,0,1,,,,,,,,,,0,,,58,0
26340,note_on,0,0,1,,,,,,,,,,0,,,67,100
26340,note_on,60,0,1,,,,,,,,,,0,,,63,0
26390,set_tempo,3110,1,0,,,,,,,352941,,,,,,,
26400,note_on,0,0,2,,,,,,,,,,1,,,41,100
26400,note_on,60,0,1,,,,,,,,,,0,,,67,0
26400,note_on,0,0,1,,,,,,,,,,0,,,70,100
26400,note_on,120,0,2,,,,,,,,,,1,,,55,0
26520,note_on,120,0,1,,,,,,,,,,0,,,70,0
26520,note_on,0,0,1,,,,,,,,,,0,,,68,100
26520,note_on,0,0,2,,,,,,,,,,1,,,53,100
26520,note_on,120,0,2,,,,,,,,,,1,,,41,0
26640,note_on,120,0,1,,,,,,,,,,0,,,68,0
26640,note_on,0,0,2,,,,,,,,,,1,,,34,100
26640,note_on,120,0,2,,,,,,,,,,1,,,53,0
26700,note_on,60,0,1,,,,,,,,,,0,,,80,100
26760,note_on,120,0,2,,,,,,,,,,1,,,34,0
26760,note_on,0,0,2,,,,,,,,,,1,,,46,100
26760,note_on,0,0,1,,,,,,,,,,0,,,77,100
26760,note_on,60,0,1,,,,,,,,,,0,,,80,0
26820,note_on,0,0,1,,,,,,,,,,0,,,74,100
26820,note_on,60,0,1,,,,,,,,,,0,,,77,0
26880,note_on,120,0,2,,,,,,,,,,1,,,46,0
26880,note_on,60,0,1,,,,,,,,,,0,,,74,0
26880,note_on,0,0,2,,,,,,,,,,1,,,39,100
26880,note_on,0,0,1,,,,,,,,,,0,,,75,100
26940,note_on,0,0,1,,,,,,,,,,0,,,79,100
26940,note_on,60,0,1,,,,,,,,,,0,,,75,0
27000,note_on,0,0,1,,,,,,,,,,0,,,75,100
27000,note_on,0,0,2,,,,,,,,,,1,,,51,100
27000,note_on,60,0,1,,,,,,,,,,0,,,79,0
27000,note_on,120,0,2,,,,,,,,,,1,,,39,0
27060,note_on,0,0,1,,,,,,,,,,0,,,70,100
27060,note_on,60,0,1,,,,,,,,,,0,,,75,0
27110,set_tempo,720,1,0,,,,,,,370370,,,,,,,
27120,note_on,0,0,2,,,,,,,,,,1,,,43,100
27120,note_on,120,0,2,,,,,,,,,,1,,,51,0
27120,note_on,60,0,1,,,,,,,,,,0,,,70,0
27120,note_on,0,0,1,,,,,,,,,,0,,,63,100
27210,set_tempo,100,1,0,,,,,,,372671,,,,,,,
27240,note_on,120,0,1,,,,,,,,,,0,,,63,0
27240,note_on,0,0,1,,,,,,,,,,0,,,70,100
27240,note_on,120,0,2,,,,,,,,,,1,,,43,0
27240,note_on,0,0,1,,,,,,,,,,0,,,58,100
27240,note_on,0,0,2,,,,,,,,,,1,,,31,100
27360,note_on,0,0,2,,,,,,,,,,1,,,32,92
27360,note_on,120,0,2,,,,,,,,,,1,,,31,0
27360,note_on,120,0,1,,,,,,,,,,0,,,58,0
27360,note_on,0,0,1,,,,,,,,,,0,,,70,0
27360,note_on,0,0,1,,,,,,,,,,0,,,60,76
27419,note_on,59,0,1,,,,,,,,,,0,,,60,0
27420,note_on,1,0,1,,,,,,,,,,0,,,72,76
27479,note_on,59,0,1,,,,,,,,,,0,,,72,0
27480,note_on,1,0,1,,,,,,,,,,0,,,63,100
27480,note_on,120,0,2,,,,,,,,,,1,,,32,0
27480,note_on,0,0,2,,,,,,,,,,1,,,44,92
27480,note_on,0,0,1,,,,,,,,,,0,,,72,100
27600,note_on,120,0,2,,,,,,,,,,1,,,44,0
27600,note_on,0,0,2,,,,,,,,,,1,,,46,92
27600,note_on,0,0,1,,,,,,,,,,0,,,62,77
27600,note_on,0,0,1,,,,,,,,,,0,,,63,0
27600,note_on,120,0,1,,,,,,,,,,0,,,72,0
27719,note_on,119,0,1,,,,,,,,,,0,,,62,0
27720,note_on,0,0,1,,,,,,,,,,0,,,65,78
27720,note_on,1,0,1,,,,,,,,,,0,,,74,78
27720,note_on,120,0,2,,,,,,,,,,1,,,46,0
27720,note_on,0,0,2,,,,,,,,,,1,,,34,92
27839,note_on,0,0,1,,,,,,,,,,0,,,74,0
27839,note_on,119,0,1,,,,,,,,,,0,,,65,0
27840,note_on,1,0,1,,,,,,,,,,0,,,63,78
27840,note_on,120,0,2,,,,,,,,,,1,,,34,0
27840,note_on,0,0,2,,,,,,,,,,1,,,36,92
27899,note_on,59,0,1,,,,,,,,,,0,,,63,0
27900,note_on,1,0,1,,,,,,,,,,0,,,75,79
27959,note_on,59,0,1,,,,,,,,,,0,,,75,0
27960,note_on,0,0,2,,,,,,,,,,1,,,48,92
27960,note_on,1,0,1,,,,,,,,,,0,,,75,100
27960,note_on,0,0,1,,,,,,,,,,0,,,67,100
27960,note_on,120,0,2,,,,,,,,,,1,,,36,0
28080,note_on,120,0,2,,,,,,,,,,1,,,48,0
28080,note_on,0,0,2,,,,,,,,,,1,,,50,92
28080,note_on,0,0,1,,,,,,,,,,0,,,65,80
28080,note_on,120,0,1,,,,,,,,,,0,,,67,0
28080,note_on,0,0,1,,,,,,,,,,0,,,75,0
28199,note_on,119,0,1,,,,,,,,,,0,,,65,0
28200,note_on,120,0,2,,,,,,,,,,1,,,50,0
28200,note_on,0,0,2,,,,,,,,,,1,,,38,90
28200,note_on,0,0,1,,,,,,,,,,0,,,77,80
28200,note_on,1,0,1,,,,,,,,,,0,,,68,80
28319,note_on,0,0,1,,,,,,,,,,0,,,68,0
28319,note_on,119,0,1,,,,,,,,,,0,,,77,0
28320,note_on,1,0,1,,,,,,,,,,0,,,67,79
28320,note_on,0,0,2,,,,,,,,,,1,,,39,88
28320,note_on,120,0,2,,,,,,,,,,1,,,38,0
28379,note_on,59,0,1,,,,,,,,,,0,,,67,0
28380,note_on,1,0,1,,,,,,,,,,0,,,79,79
28439,note_on,59,0,1,,,,,,,,,,0,,,79,0
28440,note_on,0,0,1,,,,,,,,,,0,,,79,100
28440,note_on,0,0,2,,,,,,,,,,1,,,51,88
28440,note_on,120,0,2,,,,,,,,,,1,,,39,0
28440,note_on,1,0,1,,,,,,,,,,0,,,70,100
28560,note_on,0,0,1,,,,,,,,,,0,,,68,80
28560,note_on,0,0,2,,,,,,,,,,1,,,46,88
28560,note_on,0,0,1,,,,,,,,,,0,,,70,0
28560,note_on,120,0,1,,,,,,,,,,0,,,79,0
28560,note_on,120,0,2,,,,,,,,,,1,,,51,0
28619,note_on,59,0,1,,,,,,,,,,0,,,68,0
28620,note_on,1,0,1,,,,,,,,,,0,,,80,80
28679,note_on,59,0,1,,,,,,,,,,0,,,80,0
28680,note_on,0,0,2,,,,,,,,,,1,,,34,87
28680,note_on,1,0,1,,,,,,,,,,0,,,77,80
28680,note_on,120,0,2,,,,,,,,,,1,,,46,0
28739,note_on,59,0,1,,,,,,,,,,0,,,77,0
28740,note_on,1,0,1,,,,,,,,,,0,,,74,80
28799,note_on,59,0,1,,,,,,,,,,0,,,74,0
28800,note_on,120,0,2,,,,,,,,,,1,,,34,0
28800,note_on,0,0,2,,,,,,,,,,1,,,39,87
28800,note_on,1,0,1,,,,,,,,,,0,,,75,80
28859,note_on,59,0,1,,,,,,,,,,0,,,75,0
28860,note_on,1,0,1,,,,,,,,,,0,,,79,79
28919,note_on,59,0,1,,,,,,,,,,0,,,79,0
28920,note_on,0,0,2,,,,,,,,,,1,,,51,80
28920,note_on,120,0,2,,,,,,,,,,1,,,39,0
28920,note_on,1,0,1,,,,,,,,,,0,,,75,80
28979,note_on,59,0,1,,,,,,,,,,0,,,75,0
28980,note_on,1,0,1,,,,,,,,,,0,,,70,80
29030,set_tempo,1820,1,0,,,,,,,372671,,,,,,,
29039,note_on,59,0,1,,,,,,,,,,0,,,70,0
29040,note_on,1,0,1,,,,,,,,,,0,,,67,80
29040,note_on,120,0,2,,,,,,,,,,1,,,51,0
29040,note_on,0,0,2,,,,,,,,,,1,,,39,80
29040,note_on,0,0,2,,,,,,,,,,1,,,51,80
29070,set_tempo,40,1,0,,,,,,,370370,,,,,,,
29160,note_on,120,0,2,,,,,,,,,,1,,,51,0
29160,note_on,0,0,2,,,,,,,,,,1,,,43,80
29160,note_on,120,0,1,,,,,,,,,,0,,,67,0
29160,note_on,0,0,1,,,,,,,,,,0,,,70,80
29160,note_on,0,0,1,,,,,,,,,,0,,,58,80
29160,note_on,0,0,2,,,,,,,,,,1,,,55,80
29160,note_on,0,0,2,,,,,,,,,,1,,,39,0
29280,note_on,120,0,1,,,,,,,,,,0,,,58,0
29280,note_on,0,0,1,,,,,,,,,,0,,,60,85
29280,note_on,0,0,1,,,,,,,,,,0,,,70,0
29280,note_on,0,0,2,,,,,,,,,,1,,,55,0
29280,note_on,0,0,2,,,,,,,,,,1,,,44,80
29280,note_on,120,0,2,,,,,,,,,,1,,,43,0
29339,note_on,59,0,1,,,,,,,,,,0,,,60,0
29340,note_on,1,0,1,,,,,,,,,,0,,,72,85
29399,note_on,59,0,1,,,,,,,,,,0,,,72,0
29400,note_on,0,0,2,,,,,,,,,,1,,,56,80
29400,note_on,120,0,2,,,,,,,,,,1,,,44,0
29400,note_on,1,0,1,,,,,,,,,,0,,,72,80
29400,note_on,0,0,1,,,,,,,,,,0,,,63,80
29400,note_on,0,0,2,,,,,,,,,,1,,,51,80
29520,note_on,120,0,2,,,,,,,,,,1,,,56,0
29520,note_on,0,0,2,,,,,,,,,,1,,,51,0
29520,note_on,0,0,2,,,,,,,,,,1,,,46,80
29520,note_on,0,0,1,,,,,,,,,,0,,,62,85
29520,note_on,0,0,1,,,,,,,,,,0,,,72,0
29520,note_on,120,0,1,,,,,,,,,,0,,,63,0
29639,note_on,119,0,1,,,,,,,,,,0,,,62,0
29640,note_on,0,0,2,,,,,,,,,,1,,,53,80
29640,note_on,0,0,2,,,,,,,,,,1,,,58,80
29640,note_on,120,0,2,,,,,,,,,,1,,,46,0
29640,note_on,1,0,1,,,,,,,,,,0,,,74,85
29640,note_on,0,0,1,,,,,,,,,,0,,,65,85
29759,note_on,0,0,1,,,,,,,,,,0,,,74,0
29759,note_on,119,0,1,,,,,,,,,,0,,,65,0
29760,note_on,1,0,1,,,,,,,,,,0,,,63,85
29760,note_on,120,0,2,,,,,,,,,,1,,,53,0
29760,note_on,0,0,2,,,,,,,,,,1,,,58,0
29760,note_on,0,0,2,,,,,,,,,,1,,,48,80
29819,note_on,59,0,1,,,,,,,,,,0,,,63,0
29820,note_on,1,0,1,,,,,,,,,,0,,,75,85
29879,note_on,59,0,1,,,,,,,,,,0,,,75,0
29880,note_on,0,0,2,,,,,,,,,,1,,,60,80
29880,note_on,0,0,2,,,,,,,,,,1,,,55,80
29880,note_on,1,0,1,,,,,,,,,,0,,,67,80
29880,note_on,0,0,1,,,,,,,,,,0,,,75,80
29880,note_on,120,0,2,,,,,,,,,,1,,,48,0
30000,note_on,120,0,2,,,,,,,,,,1,,,55,0
30000,note_on,0,0,2,,,,,,,,,,1,,,60,0
30000,note_on,0,0,1,,,,,,,,,,0,,,65,85
30000,note_on,0,0,2,,,,,,,,,,1,,,50,80
30000,note_on,120,0,1,,,,,,,,,,0,,,75,0
30000,note_on,0,0,1,,,,,,,,,,0,,,67,0
30119,note_on,119,0,1,,,,,,,,,,0,,,65,0
30120,note_on,1,0,1,,,,,,,,,,0,,,77,85
30120,note_on,0,0,1,,,,,,,,,,0,,,68,85
30120,note_on,0,0,2,,,,,,,,,,1,,,58,80
30120,note_on,120,0,2,,,,,,,,,,1,,,50,0
30120,note_on,0,0,2,,,,,,,,,,1,,,62,80
30239,note_on,119,0,1,,,,,,,,,,0,,,68,0
30239,note_on,0,0,1,,,,,,,,,,0,,,77,0
30240,note_on,0,0,2,,,,,,,,,,1,,,51,80
30240,note_on,0,0,2,,,,,,,,,,1,,,62,0
30240,note_on,1,0,1,,,,,,,,,,0,,,67,85
30240,note_on,120,0,2,,,,,,,,,,1,,,58,0
30250,set_tempo,1180,1,0,,,,,,,392157,,,,,,,
30260,set_tempo,10,1,0,,,,,,,394737,,,,,,,
30270,set_tempo,10,1,0,,,,,,,400000,,,,,,,
30280,set_tempo,10,1,0,,,,,,,402685,,,,,,,
30290,set_tempo,10,1,0,,,,,,,408163,,,,,,,
30299,note_on,59,0,1,,,,,,,,,,0,,,67,0
30300,set_tempo,10,1,0,,,,,,,410959,,,,,,,
30300,note_on,1,0,1,,,,,,,,,,0,,,79,85
30310,set_tempo,10,1,0,,,,,,,416667,,,,,,,
30320,set_tempo,10,1,0,,,,,,,419580,,,,,,,
30330,set_tempo,10,1,0,,,,,,,425532,,,,,,,
30340,set_tempo,10,1,0,,,,,,,428571,,,,,,,
30350,set_tempo,10,1,0,,,,,,,434783,,,,,,,
30359,note_on,59,0,1,,,,,,,,,,0,,,79,0
30360,note_on,0,0,2,,,,,,,,,,1,,,63,80
30360,note_on,0,0,2,,,,,,,,,,1,,,58,80
30360,note_on,0,0,1,,,,,,,,,,0,,,79,80
30360,note_on,1,0,1,,,,,,,,,,0,,,70,80
30360,note_on,120,0,2,,,,,,,,,,1,,,51,0
30360,set_tempo,10,1,0,,,,,,,437956,,,,,,,
30370,set_tempo,10,1,0,,,,,,,444444,,,,,,,
30380,set_tempo,10,1,0,,,,,,,447761,,,,,,,
30390,set_tempo,10,1,0,,,,,,,454545,,,,,,,
30400,set_tempo,10,1,0,,,,,,,461538,,,,,,,
30410,set_tempo,10,1,0,,,,,,,465116,,,,,,,
30420,set_tempo,10,1,0,,,,,,,472441,,,,,,,
30430,set_tempo,10,1,0,,,,,,,476190,,,,,,,
30440,set_tempo,10,1,0,,,,,,,483871,,,,,,,
30450,set_tempo,10,1,0,,,,,,,487805,,,,,,,
30460,set_tempo,10,1,0,,,,,,,495868,,,,,,,
30470,set_tempo,10,1,0,,,,,,,500000,,,,,,,
30480,note_on,0,0,1,,,,,,,,,,0,,,68,80
30480,note_on,0,0,2,,,,,,,,,,1,,,63,0
30480,note_on,120,0,2,,,,,,,,,,1,,,58,0
30480,note_on,0,0,1,,,,,,,,,,0,,,70,0
30480,note_on,120,0,1,,,,,,,,,,0,,,79,0
30480,note_on,0,0,2,,,,,,,,,,1,,,46,80
30480,set_tempo,10,1,0,,,,,,,508475,,,,,,,
30490,set_tempo,10,1,0,,,,,,,512821,,,,,,,
30500,set_tempo,10,1,0,,,,,,,521739,,,,,,,
30510,set_tempo,10,1,0,,,,,,,526316,,,,,,,
30520,set_tempo,10,1,0,,,,,,,535714,,,,,,,
30530,set_tempo,10,1,0,,,,,,,545455,,,,,,,
30540,set_tempo,10,1,0,,,,,,,550459,,,,,,,
30540,note_on,0,0,1,,,,,,,,,,0,,,80,80
30540,note_on,60,0,1,,,,,,,,,,0,,,68,0
30550,set_tempo,10,1,0,,,,,,,560748,,,,,,,
30560,set_tempo,10,1,0,,,,,,,566038,,,,,,,
30570,set_tempo,10,1,0,,,,,,,576923,,,,,,,
30580,set_tempo,10,1,0,,,,,,,582524,,,,,,,
30590,set_tempo,10,1,0,,,,,,,594059,,,,,,,
30600,note_on,60,0,1,,,,,,,,,,0,,,80,0
30600,note_on,0,0,1,,,,,,,,,,0,,,77,80
30600,note_on,0,0,2,,,,,,,,,,1,,,58,80
30600,note_on,120,0,2,,,,,,,,,,1,,,46,0
30600,set_tempo,10,1,0,,,,,,,600000,,,,,,,
30610,set_tempo,10,1,0,,,,,,,612245,,,,,,,
30620,set_tempo,10,1,0,,,,,,,618557,,,,,,,
30630,set_tempo,10,1,0,,,,,,,631579,,,,,,,
30640,set_tempo,10,1,0,,,,,,,638298,,,,,,,
30650,set_tempo,10,1,0,,,,,,,652174,,,,,,,
30660,set_tempo,10,1,0,,,,,,,659341,,,,,,,
30660,note_on,0,0,1,,,,,,,,,,0,,,74,80
30660,note_on,60,0,1,,,,,,,,,,0,,,77,0
30670,set_tempo,10,1,0,,,,,,,674157,,,,,,,
30680,set_tempo,10,1,0,,,,,,,689655,,,,,,,
30690,set_tempo,10,1,0,,,,,,,697674,,,,,,,
30700,set_tempo,10,1,0,,,,,,,714286,,,,,,,
30710,set_tempo,10,1,0,,,,,,,722892,,,,,,,
30720,set_tempo,10,1,0,,,,,,,740741,,,,,,,
30720,note_on,60,0,1,,,,,,,,,,0,,,74,0
30720,note_on,0,0,1,,,,,,,,,,0,,,75,80
30720,note_on,0,0,2,,,,,,,,,,1,,,51,80
30720,note_on,120,0,2,,,,,,,,,,1,,,58,0
30730,set_tempo,10,1,0,,,,,,,750000,,,,,,,
30740,set_tempo,10,1,0,,,,,,,769231,,,,,,,
30750,set_tempo,10,1,0,,,,,,,779221,,,,,,,
30760,set_tempo,10,1,0,,,,,,,800000,,,,,,,
30770,set_tempo,10,1,0,,,,,,,810811,,,,,,,
30780,set_tempo,10,1,0,,,,,,,833333,,,,,,,
30790,set_tempo,10,1,0,,,,,,,845070,,,,,,,
30800,set_tempo,10,1,0,,,,,,,869565,,,,,,,
30810,set_tempo,10,1,0,,,,,,,895522,,,,,,,
30820,set_tempo,10,1,0,,,,,,,909091,,,,,,,
30830,set_tempo,10,1,0,,,,,,,937500,,,,,,,
30840,note_on,0,0,2,,,,,,,,,,1,,,39,80
30840,note_on,120,0,2,,,,,,,,,,1,,,51,0
30840,note_on,120,0,1,,,,,,,,,,0,,,75,0
30840,set_tempo,10,1,0,,,,,,,952381,,,,,,,
30850,set_tempo,10,1,0,,,,,,,983607,,,,,,,
30860,set_tempo,10,1,0,,,,,,,1000000,,,,,,,
30870,set_tempo,10,1,0,,,,,,,1034483,,,,,,,
30880,set_tempo,10,1,0,,,,,,,1052632,,,,,,,
30890,set_tempo,10,1,0,,,,,,,1090909,,,,,,,
30900,set_tempo,10,1,0,,,,,,,1111111,,,,,,,
30910,set_tempo,10,1,0,,,,,,,1153846,,,,,,,
30920,set_tempo,10,1,0,,,,,,,1176471,,,,,,,
30930,set_tempo,10,1,0,,,,,,,1224490,,,,,,,
30940,set_tempo,10,1,0,,,,,,,1276596,,,,,,,
30950,set_tempo,10,1,0,,,,,,,327869,,,,,,,
30960,marker,10,1,0,,,,,,,,,,,,,,
30960,note_on,120,0,2,,,,,,,,,,1,,,39,0
30960,note_on,0,0,2,,,,,,,,,,1,,,51,100
30960,note_on,120,0,1,,,,,,,,,,0,,,70,100
30960,note_on,0,0,1,,,,,,,,,,0,,,79,100
31010,set_tempo,50,1,0,,,,,,,329670,,,,,,,
31080,note_on,0,0,1,,,,,,,,,,0,,,70,100
31080,note_on,120,0,1,,,,,,,,,,0,,,79,0
31080,note_on,0,0,1,,,,,,,,,,0,,,79,100
31080,note_on,0,0,1,,,,,,,,,,0,,,70,0
31080,note_on,120,0,2,,,,,,,,,,1,,,51,0
31080,note_on,0,0,2,,,,,,,,,,1,,,58,100
31080,note_on,0,0,2,,,,,,,,,,1,,,55,100
31140,note_on,60,0,1,,,,,,,,,,0,,,79,0
31140,note_on,0,0,1,,,,,,,,,,0,,,68,100
31140,note_on,0,0,1,,,,,,,,,,0,,,77,100
31140,note_on,0,0,1,,,,,,,,,,0,,,70,0
31200,note_on,0,0,2,,,,,,,,,,1,,,58,0
31200,note_on,60,0,1,,,,,,,,,,0,,,77,0
31200,note_on,120,0,2,,,,,,,,,,1,,,55,0
31200,note_on,0,0,1,,,,,,,,,,0,,,67,100
31200,note_on,0,0,1,,,,,,,,,,0,,,75,100
31200,note_on,0,0,1,,,,,,,,,,0,,,68,0
31200,note_on,0,0,2,,,,,,,,,,1,,,51,100
31320,note_on,0,0,2,,,,,,,,,,1,,,58,100
31320,note_on,120,0,2,,,,,,,,,,1,,,51,0
31320,note_on,0,0,2,,,,,,,,,,1,,,55,100
31440,note_on,240,0,1,,,,,,,,,,0,,,75,0
31440,note_on,0,0,1,,,,,,,,,,0,,,55,100
31440,note_on,120,0,2,,,,,,,,,,1,,,55,0
31440,note_on,0,0,2,,,,,,,,,,1,,,58,0
31440,note_on,0,0,2,,,,,,,,,,1,,,39,100
31440,note_on,0,0,1,,,,,,,,,,0,,,67,0
31440,note_on,0,0,1,,,,,,,,,,0,,,63,100
31560,note_on,120,0,2,,,,,,,,,,1,,,39,0
31560,note_on,0,0,2,,,,,,,,,,1,,,55,100
31560,note_on,0,0,2,,,,,,,,,,1,,,51,100
31560,note_on,0,0,1,,,,,,,,,,0,,,63,100
31560,note_on,0,0,1,,,,,,,,,,0,,,55,0
31560,note_on,0,0,1,,,,,,,,,,0,,,55,100
31560,note_on,120,0,1,,,,,,,,,,0,,,63,0
31620,note_on,60,0,1,,,,,,,,,,0,,,55,0
31620,note_on,0,0,1,,,,,,,,,,0,,,63,0
31620,note_on,0,0,1,,,,,,,,,,0,,,65,100
31620,note_on,0,0,1,,,,,,,,,,0,,,58,100
31680,note_on,0,0,1,,,,,,,,,,0,,,63,100
31680,note_on,60,0,1,,,,,,,,,,0,,,58,0
31680,note_on,0,0,1,,,,,,,,,,0,,,65,0
31680,note_on,0,0,2,,,,,,,,,,1,,,55,0
31680,note_on,0,0,2,,,,,,,,,,1,,,39,100
31680,note_on,120,0,2,,,,,,,,,,1,,,51,0
31680,note_on,0,0,1,,,,,,,,,,0,,,67,100
31800,note_on,120,0,1,,,,,,,,,,0,,,63,0
31800,note_on,0,0,1,,,,,,,,,,0,,,67,0
31800,note_on,0,0,2,,,,,,,,,,1,,,51,100
31800,note_on,0,0,2,,,,,,,,,,1,,,55,100
31800,note_on,120,0,2,,,,,,,,,,1,,,39,0
31920,note_on,120,0,2,,,,,,,,,,1,,,51,0
31920,note_on,0,0,2,,,,,,,,,,1,,,55,0
31920,note_on,0,0,2,,,,,,,,,,1,,,34,100
32040,note_on,0,0,2,,,,,,,,,,1,,,50,100
32040,note_on,0,0,1,,,,,,,,,,0,,,80,100
32040,note_on,240,0,1,,,,,,,,,,0,,,77,100
32040,note_on,120,0,2,,,,,,,,,,1,,,34,0
32040,note_on,0,0,2,,,,,,,,,,1,,,46,100
32100,note_on,0,0,1,,,,,,,,,,0,,,77,0
32100,note_on,0,0,1,,,,,,,,,,0,,,75,100
32100,note_on,0,0,1,,,,,,,,,,0,,,79,100
32100,note_on,60,0,1,,,,,,,,,,0,,,80,0
32160,note_on,0,0,2,,,,,,,,,,1,,,34,100
32160,note_on,0,0,2,,,,,,,,,,1,,,50,0
32160,note_on,0,0,1,,,,,,,,,,0,,,74,100
32160,note_on,0,0,1,,,,,,,,,,0,,,77,100
32160,note_on,0,0,1,,,,,,,,,,0,,,79,0
32160,note_on,60,0,1,,,,,,,,,,0,,,75,0
32160,note_on,120,0,2,,,,,,,,,,1,,,46,0
32280,note_on,0,0,2,,,,,,,,,,1,,,46,100
32280,note_on,0,0,2,,,,,,,,,,1,,,50,100
32280,note_on,120,0,2,,,,,,,,,,1,,,34,0
32400,note_on,120,0,2,,,,,,,,,,1,,,46,0
32400,note_on,0,0,1,,,,,,,,,,0,,,62,100
32400,note_on,240,0,1,,,,,,,,,,0,,,74,0
32400,note_on,0,0,1,,,,,,,,,,0,,,77,0
32400,note_on,0,0,1,,,,,,,,,,0,,,65,100
32400,note_on,0,0,2,,,,,,,,,,1,,,50,0
32400,note_on,0,0,2,,,,,,,,,,1,,,34,100
32460,note_on,60,0,1,,,,,,,,,,0,,,65,0
32460,note_on,0,0,1,,,,,,,,,,0,,,62,0
32460,note_on,0,0,1,,,,,,,,,,0,,,63,100
32460,note_on,0,0,1,,,,,,,,,,0,,,67,100
32520,note_on,0,0,1,,,,,,,,,,0,,,68,100
32520,note_on,0,0,1,,,,,,,,,,0,,,65,100
32520,note_on,0,0,1,,,,,,,,,,0,,,67,0
32520,note_on,60,0,1,,,,,,,,,,0,,,63,0
32520,note_on,120,0,2,,,,,,,,,,1,,,34,0
32520,note_on,0,0,2,,,,,,,,,,1,,,50,100
32520,note_on,0,0,2,,,,,,,,,,1,,,46,100
32580,note_on,0,0,1,,,,,,,,,,0,,,70,100
32580,note_on,60,0,1,,,,,,,,,,0,,,68,0
32580,note_on,0,0,1,,,,,,,,,,0,,,65,0
32580,note_on,0,0,1,,,,,,,,,,0,,,67,100
32640,note_on,60,0,1,,,,,,,,,,0,,,70,0
32640,note_on,0,0,2,,,,,,,,,,1,,,34,100
32640,note_on,0,0,2,,,,,,,,,,1,,,50,0
32640,note_on,120,0,2,,,,,,,,,,1,,,46,0
32640,note_on,0,0,1,,,,,,,,,,0,,,72,100
32640,note_on,0,0,1,,,,,,,,,,0,,,67,0
32640,note_on,0,0,1,,,,,,,,,,0,,,68,100
32760,note_on,0,0,2,,,,,,,,,,1,,,46,100
32760,note_on,0,0,2,,,,,,,,,,1,,,50,100
32760,note_on,120,0,2,,,,,,,,,,1,,,34,0
32880,note_on,0,0,1,,,,,,,,,,0,,,79,100
32880,note_on,0,0,1,,,,,,,,,,0,,,70,100
32880,note_on,0,0,1,,,,,,,,,,0,,,68,0
32880,note_on,240,0,1,,,,,,,,,,0,,,72,0
32880,note_on,0,0,2,,,,,,,,,,1,,,51,100
32880,note_on,120,0,2,,,,,,,,,,1,,,46,0
32880,note_on,0,0,2,,,,,,,,,,1,,,50,0
33000,note_on,0,0,2,,,,,,,,,,1,,,55,100
33000,note_on,0,0,2,,,,,,,,,,1,,,58,100
33000,note_on,120,0,1,,,,,,,,,,0,,,79,0
33000,note_on,120,0,2,,,,,,,,,,1,,,51,0
33000,note_on,0,0,1,,,,,,,,,,0,,,70,0
33000,note_on,0,0,1,,,,,,,,,,0,,,70,100
33000,note_on,0,0,1,,,,,,,,,,0,,,79,100
33060,note_on,0,0,1,,,,,,,,,,0,,,68,100
33060,note_on,0,0,1,,,,,,,,,,0,,,70,0
33060,note_on,0,0,1,,,,,,,,,,0,,,77,100
33060,note_on,60,0,1,,,,,,,,,,0,,,79,0
33120,note_on,0,0,2,,,,,,,,,,1,,,51,100
33120,note_on,120,0,2,,,,,,,,,,1,,,55,0
33120,note_on,0,0,1,,,,,,,,,,0,,,75,100
33120,note_on,0,0,1,,,,,,,,,,0,,,67,100
33120,note_on,0,0,1,,,,,,,,,,0,,,68,0
33120,note_on,60,0,1,,,,,,,,,,0,,,77,0
33120,note_on,0,0,2,,,,,,,,,,1,,,58,0
33240,note_on,120,0,2,,,,,,,,,,1,,,51,0
33240,note_on,0,0,2,,,,,,,,,,1,,,58,100
33240,note_on,0,0,2,,,,,,,,,,1,,,55,100
33360,note_on,240,0,1,,,,,,,,,,0,,,75,0
33360,note_on,0,0,1,,,,,,,,,,0,,,67,0
33360,note_on,0,0,1,,,,,,,,,,0,,,63,100
33360,note_on,0,0,1,,,,,,,,,,0,,,55,100
33360,note_on,0,0,2,,,,,,,,,,1,,,58,0
33360,note_on,0,0,2,,,,,,,,,,1,,,39,100
33360,note_on,120,0,2,,,,,,,,,,1,,,55,0
33480,note_on,0,0,1,,,,,,,,,,0,,,63,100
33480,note_on,0,0,1,,,,,,,,,,0,,,55,100
33480,note_on,0,0,1,,,,,,,,,,0,,,55,0
33480,note_on,120,0,2,,,,,,,,,,1,,,39,0
33480,note_on,0,0,2,,,,,,,,,,1,,,55,100
33480,note_on,0,0,2,,,,,,,,,,1,,,51,100
33480,note_on,120,0,1,,,,,,,,,,0,,,63,0
33540,note_on,60,0,1,,,,,,,,,,0,,,55,0
33540,note_on,0,0,1,,,,,,,,,,0,,,58,100
33540,note_on,0,0,1,,,,,,,,,,0,,,65,100
33540,note_on,0,0,1,,,,,,,,,,0,,,63,0
33600,note_on,120,0,2,,,,,,,,,,1,,,51,0
33600,note_on,0,0,2,,,,,,,,,,1,,,39,100
33600,note_on,0,0,2,,,,,,,,,,1,,,55,0
33600,note_on,60,0,1,,,,,,,,,,0,,,58,0
33600,note_on,0,0,1,,,,,,,,,,0,,,65,0
33600,note_on,0,0,1,,,,,,,,,,0,,,67,100
33600,note_on,0,0,1,,,,,,,,,,0,,,63,100
33720,note_on,0,0,2,,,,,,,,,,1,,,51,100
33720,note_on,0,0,2,,,,,,,,,,1,,,55,100
33720,note_on,120,0,2,,,,,,,,,,1,,,39,0
33840,note_on,120,0,2,,,,,,,,,,1,,,51,0
33840,note_on,0,0,2,,,,,,,,,,1,,,55,0
33840,note_on,0,0,2,,,,,,,,,,1,,,34,100
33840,note_on,240,0,1,,,,,,,,,,0,,,63,0
33840,note_on,0,0,1,,,,,,,,,,0,,,67,0
33960,note_on,120,0,1,,,,,,,,,,0,,,77,100
33960,note_on,0,0,1,,,,,,,,,,0,,,80,100
33960,note_on,0,0,2,,,,,,,,,,1,,,50,100
33960,note_on,120,0,2,,,,,,,,,,1,,,34,0
33960,note_on,0,0,2,,,,,,,,,,1,,,46,100
34020,note_on,60,0,1,,,,,,,,,,0,,,80,0
34020,note_on,0,0,1,,,,,,,,,,0,,,77,0
34020,note_on,0,0,1,,,,,,,,,,0,,,79,100
34020,note_on,0,0,1,,,,,,,,,,0,,,75,100
34080,note_on,0,0,1,,,,,,,,,,0,,,77,100
34080,note_on,0,0,1,,,,,,,,,,0,,,79,0
34080,note_on,0,0,1,,,,,,,,,,0,,,74,100
34080,note_on,60,0,1,,,,,,,,,,0,,,75,0
34080,note_on,0,0,2,,,,,,,,,,1,,,34,100
34080,note_on,0,0,2,,,,,,,,,,1,,,50,0
34080,note_on,120,0,2,,,,,,,,,,1,,,46,0
34200,note_on,0,0,2,,,,,,,,,,1,,,46,100
34200,note_on,120,0,2,,,,,,,,,,1,,,34,0
34200,note_on,0,0,2,,,,,,,,,,1,,,50,100
34320,note_on,0,0,1,,,,,,,,,,0,,,62,100
34320,note_on,0,0,1,,,,,,,,,,0,,,77,0
34320,note_on,120,0,2,,,,,,,,,,1,,,46,0
34320,note_on,0,0,1,,,,,,,,,,0,,,65,100
34320,note_on,240,0,1,,,,,,,,,,0,,,74,0
34320,note_on,0,0,2,,,,,,,,,,1,,,50,0
34320,note_on,0,0,2,,,,,,,,,,1,,,34,100
34380,note_on,0,0,1,,,,,,,,,,0,,,63,100
34380,note_on,0,0,1,,,,,,,,,,0,,,67,100
34380,note_on,0,0,1,,,,,,,,,,0,,,62,0
34380,note_on,60,0,1,,,,,,,,,,0,,,65,0
34440,note_on,0,0,1,,,,,,,,,,0,,,67,0
34440,note_on,120,0,2,,,,,,,,,,1,,,34,0
34440,note_on,0,0,2,,,,,,,,,,1,,,50,100
34440,note_on,0,0,2,,,,,,,,,,1,,,46,100
34440,note_on,0,0,1,,,,,,,,,,0,,,68,100
34440,note_on,0,0,1,,,,,,,,,,0,,,65,100
34440,note_on,60,0,1,,,,,,,,,,0,,,63,0
34500,note_on,0,0,1,,,,,,,,,,0,,,70,100
34500,note_on,0,0,1,,,,,,,,,,0,,,67,100
34500,note_on,0,0,1,,,,,,,,,,0,,,65,0
34500,note_on,60,0,1,,,,,,,,,,0,,,68,0
34520,set_tempo,3510,1,0,,,,,,,329670,,,,,,,
34560,note_on,0,0,1,,,,,,,,,,0,,,67,0
34560,note_on,0,0,1,,,,,,,,,,0,,,72,100
34560,note_on,0,0,1,,,,,,,,,,0,,,68,100
34560,note_on,60,0,1,,,,,,,,,,0,,,70,0
34560,note_on,0,0,2,,,,,,,,,,1,,,34,100
34560,note_on,0,0,2,,,,,,,,,,1,,,50,0
34560,note_on,120,0,2,,,,,,,,,,1,,,46,0
34600,set_tempo,80,1,0,,,,,,,327869,,,,,,,
34620,set_tempo,20,1,0,,,,,,,329670,,,,,,,
34640,set_tempo,20,1,0,,,,,,,331492,,,,,,,
34660,set_tempo,20,1,0,,,,,,,333333,,,,,,,
34680,set_tempo,20,1,0,,,,,,,335196,,,,,,,
34680,note_on,0,0,2,,,,,,,,,,1,,,50,100
34680,note_on,0,0,2,,,,,,,,,,1,,,46,100
34680,note_on,120,0,2,,,,,,,,,,1,,,34,0
34700,set_tempo,20,1,0,,,,,,,337079,,,,,,,
34720,set_tempo,20,1,0,,,,,,,338983,,,,,,,
34730,set_tempo,10,1,0,,,,,,,340909,,,,,,,
34750,set_tempo,20,1,0,,,,,,,342857,,,,,,,
34770,set_tempo,20,1,0,,,,,,,344828,,,,,,,
34790,set_tempo,20,1,0,,,,,,,346821,,,,,,,
34800,note_on,0,0,1,,,,,,,,,,0,,,68,0
34800,note_on,0,0,1,,,,,,,,,,0,,,70,100
34800,note_on,0,0,1,,,,,,,,,,0,,,67,100
34800,note_on,240,0,1,,,,,,,,,,0,,,72,0
34800,note_on,0,0,2,,,,,,,,,,1,,,43,100
34800,note_on,0,0,2,,,,,,,,,,1,,,50,0
34800,note_on,120,0,2,,,,,,,,,,1,,,46,0
34810,set_tempo,20,1,0,,,,,,,348837,,,,,,,
34830,set_tempo,20,1,0,,,,,,,350877,,,,,,,
34840,set_tempo,10,1,0,,,,,,,352941,,,,,,,
34850,set_tempo,10,1,0,,,,,,,350877,,,,,,,
34920,note_on,0,0,1,,,,,,,,,,0,,,70,100
34920,note_on,0,0,1,,,,,,,,,,0,,,58,100
34920,note_on,0,0,1,,,,,,,,,,0,,,70,0
34920,note_on,120,0,1,,,,,,,,,,0,,,67,0
34920,note_on,0,0,2,,,,,,,,,,1,,,31,100
34920,note_on,120,0,2,,,,,,,,,,1,,,43,0
35040,note_on,120,0,1,,,,,,,,,,0,,,70,0
35040,note_on,0,0,2,,,,,,,,,,1,,,32,92
35040,note_on,0,0,1,,,,,,,,,,0,,,58,0
35040,note_on,120,0,2,,,,,,,,,,1,,,31,0
35040,note_on,0,0,1,,,,,,,,,,0,,,60,76
35099,note_on,59,0,1,,,,,,,,,,0,,,60,0
35100,note_on,1,0,1,,,,,,,,,,0,,,72,76
35159,note_on,59,0,1,,,,,,,,,,0,,,72,0
35160,note_on,1,0,1,,,,,,,,,,0,,,63,100
35160,note_on,0,0,1,,,,,,,,,,0,,,72,100
35160,note_on,120,0,2,,,,,,,,,,1,,,32,0
35160,note_on,0,0,2,,,,,,,,,,1,,,44,92
35280,note_on,120,0,1,,,,,,,,,,0,,,72,0
35280,note_on,0,0,2,,,,,,,,,,1,,,46,92
35280,note_on,120,0,2,,,,,,,,,,1,,,44,0
35280,note_on,0,0,1,,,,,,,,,,0,,,62,77
35280,note_on,0,0,1,,,,,,,,,,0,,,63,0
35399,note_on,119,0,1,,,,,,,,,,0,,,62,0
35400,note_on,120,0,2,,,,,,,,,,1,,,46,0
35400,note_on,0,0,2,,,,,,,,,,1,,,34,92
35400,note_on,1,0,1,,,,,,,,,,0,,,74,78
35400,note_on,0,0,1,,,,,,,,,,0,,,65,78
35519,note_on,119,0,1,,,,,,,,,,0,,,65,0
35519,note_on,0,0,1,,,,,,,,,,0,,,74,0
35520,note_on,120,0,2,,,,,,,,,,1,,,34,0
35520,note_on,0,0,2,,,,,,,,,,1,,,36,92
35520,note_on,1,0,1,,,,,,,,,,0,,,63,78
35579,note_on,59,0,1,,,,,,,,,,0,,,63,0
35580,note_on,1,0,1,,,,,,,,,,0,,,75,79
35639,note_on,59,0,1,,,,,,,,,,0,,,75,0
35640,note_on,0,0,2,,,,,,,,,,1,,,48,92
35640,note_on,120,0,2,,,,,,,,,,1,,,36,0
35640,note_on,1,0,1,,,,,,,,,,0,,,75,100
35640,note_on,0,0,1,,,,,,,,,,0,,,67,100
35760,note_on,120,0,1,,,,,,,,,,0,,,67,0
35760,note_on,0,0,1,,,,,,,,,,0,,,75,0
35760,note_on,0,0,1,,,,,,,,,,0,,,65,80
35760,note_on,0,0,2,,,,,,,,,,1,,,50,92
35760,note_on,120,0,2,,,,,,,,,,1,,,48,0
35879,note_on,119,0,1,,,,,,,,,,0,,,65,0
35880,note_on,0,0,2,,,,,,,,,,1,,,38,90
35880,note_on,120,0,2,,,,,,,,,,1,,,50,0
35880,note_on,0,0,1,,,,,,,,,,0,,,77,80
35880,note_on,1,0,1,,,,,,,,,,0,,,68,80
35999,note_on,119,0,1,,,,,,,,,,0,,,77,0
35999,note_on,0,0,1,,,,,,,,,,0,,,68,0
36000,note_on,120,0,2,,,,,,,,,,1,,,38,0
36000,note_on,1,0,1,,,,,,,,,,0,,,67,79
36000,note_on,0,0,2,,,,,,,,,,1,,,39,88
36059,note_on,59,0,1,,,,,,,,,,0,,,67,0
36060,note_on,1,0,1,,,,,,,,,,0,,,79,79
36119,note_on,59,0,1,,,,,,,,,,0,,,79,0
36120,note_on,0,0,2,,,,,,,,,,1,,,51,88
36120,note_on,120,0,2,,,,,,,,,,1,,,39,0
36120,note_on,1,0,1,,,,,,,,,,0,,,70,100
36120,note_on,0,0,1,,,,,,,,,,0,,,79,100
36240,note_on,0,0,2,,,,,,,,,,1,,,46,88
36240,note_on,120,0,2,,,,,,,,,,1,,,51,0
36240,note_on,0,0,1,,,,,,,,,,0,,,70,0
36240,note_on,0,0,1,,,,,,,,,,0,,,68,80
36240,note_on,120,0,1,,,,,,,,,,0,,,79,0
36299,note_on,59,0,1,,,,,,,,,,0,,,68,0
36300,note_on,1,0,1,,,,,,,,,,0,,,80,80
36359,note_on,59,0,1,,,,,,,,,,0,,,80,0
36360,note_on,0,0,2,,,,,,,,,,1,,,34,87
36360,note_on,120,0,2,,,,,,,,,,1,,,46,0
36360,note_on,1,0,1,,,,,,,,,,0,,,77,80
36419,note_on,59,0,1,,,,,,,,,,0,,,77,0
36420,note_on,1,0,1,,,,,,,,,,0,,,74,80
36479,note_on,59,0,1,,,,,,,,,,0,,,74,0
36480,note_on,0,0,2,,,,,,,,,,1,,,39,87
36480,note_on,1,0,1,,,,,,,,,,0,,,75,80
36480,note_on,120,0,2,,,,,,,,,,1,,,34,0
36539,note_on,59,0,1,,,,,,,,,,0,,,75,0
36540,note_on,1,0,1,,,,,,,,,,0,,,79,79
36599,note_on,59,0,1,,,,,,,,,,0,,,79,0
36600,note_on,1,0,1,,,,,,,,,,0,,,75,80
36600,note_on,0,0,2,,,,,,,,,,1,,,51,80
36600,note_on,120,0,2,,,,,,,,,,1,,,39,0
36659,note_on,59,0,1,,,,,,,,,,0,,,75,0
36660,note_on,1,0,1,,,,,,,,,,0,,,70,80
36719,note_on,59,0,1,,,,,,,,,,0,,,70,0
36720,note_on,0,0,2,,,,,,,,,,1,,,51,80
36720,note_on,0,0,2,,,,,,,,,,1,,,39,80
36720,note_on,120,0,2,,,,,,,,,,1,,,51,0
36720,note_on,1,0,1,,,,,,,,,,0,,,67,80
36840,note_on,0,0,1,,,,,,,,,,0,,,58,80
36840,note_on,0,0,1,,,,,,,,,,0,,,70,80
36840,note_on,120,0,1,,,,,,,,,,0,,,67,0
36840,note_on,120,0,2,,,,,,,,,,1,,,51,0
36840,note_on,0,0,2,,,,,,,,,,1,,,39,0
36840,note_on,0,0,2,,,,,,,,,,1,,,55,80
36840,note_on,0,0,2,,,,,,,,,,1,,,43,80
36960,note_on,120,0,1,,,,,,,,,,0,,,58,0
36960,note_on,0,0,1,,,,,,,,,,0,,,70,0
36960,note_on,0,0,1,,,,,,,,,,0,,,60,85
36960,note_on,120,0,2,,,,,,,,,,1,,,43,0
36960,note_on,0,0,2,,,,,,,,,,1,,,55,0
36960,note_on,0,0,2,,,,,,,,,,1,,,44,80
37019,note_on,59,0,1,,,,,,,,,,0,,,60,0
37020,note_on,1,0,1,,,,,,,,,,0,,,72,85
37079,note_on,59,0,1,,,,,,,,,,0,,,72,0
37080,note_on,1,0,1,,,,,,,,,,0,,,72,80
37080,note_on,0,0,1,,,,,,,,,,0,,,63,80
37080,note_on,0,0,2,,,,,,,,,,1,,,51,80
37080,note_on,120,0,2,,,,,,,,,,1,,,44,0
37080,note_on,0,0,2,,,,,,,,,,1,,,56,80
37120,set_tempo,2270,1,0,,,,,,,352941,,,,,,,
37200,note_on,0,0,1,,,,,,,,,,0,,,62,85
37200,note_on,120,0,2,,,,,,,,,,1,,,56,0
37200,note_on,0,0,2,,,,,,,,,,1,,,51,0
37200,note_on,0,0,2,,,,,,,,,,1,,,46,80
37200,note_on,120,0,1,,,,,,,,,,0,,,63,0
37200,note_on,0,0,1,,,,,,,,,,0,,,72,0
37319,note_on,119,0,1,,,,,,,,,,0,,,62,0
37320,note_on,0,0,1,,,,,,,,,,0,,,65,85
37320,note_on,120,0,2,,,,,,,,,,1,,,46,0
37320,note_on,1,0,1,,,,,,,,,,0,,,74,85
37320,note_on,0,0,2,,,,,,,,,,1,,,53,80
37320,note_on,0,0,2,,,,,,,,,,1,,,58,80
37439,note_on,119,0,1,,,,,,,,,,0,,,65,0
37439,note_on,0,0,1,,,,,,,,,,0,,,74,0
37440,note_on,120,0,2,,,,,,,,,,1,,,53,0
37440,note_on,0,0,2,,,,,,,,,,1,,,48,80
37440,note_on,0,0,2,,,,,,,,,,1,,,58,0
37440,note_on,1,0,1,,,,,,,,,,0,,,63,85
37499,note_on,59,0,1,,,,,,,,,,0,,,63,0
37500,note_on,1,0,1,,,,,,,,,,0,,,75,85
37559,note_on,59,0,1,,,,,,,,,,0,,,75,0
37560,note_on,0,0,2,,,,,,,,,,1,,,60,80
37560,note_on,1,0,1,,,,,,,,,,0,,,67,80
37560,note_on,0,0,1,,,,,,,,,,0,,,75,80
37560,note_on,120,0,2,,,,,,,,,,1,,,48,0
37560,note_on,0,0,2,,,,,,,,,,1,,,55,80
37680,note_on,0,0,2,,,,,,,,,,1,,,50,80
37680,note_on,0,0,2,,,,,,,,,,1,,,60,0
37680,note_on,120,0,2,,,,,,,,,,1,,,55,0
37680,note_on,0,0,1,,,,,,,,,,0,,,65,85
37680,note_on,0,0,1,,,,,,,,,,0,,,67,0
37680,note_on,120,0,1,,,,,,,,,,0,,,75,0
37799,note_on,119,0,1,,,,,,,,,,0,,,65,0
37800,note_on,0,0,2,,,,,,,,,,1,,,58,80
37800,note_on,0,0,2,,,,,,,,,,1,,,62,80
37800,note_on,120,0,2,,,,,,,,,,1,,,50,0
37800,note_on,0,0,1,,,,,,,,,,0,,,68,85
37800,note_on,1,0,1,,,,,,,,,,0,,,77,85
37919,note_on,0,0,1,,,,,,,,,,0,,,77,0
37919,note_on,119,0,1,,,,,,,,,,0,,,68,0
37920,note_on,1,0,1,,,,,,,,,,0,,,67,85
37920,note_on,120,0,2,,,,,,,,,,1,,,58,0
37920,note_on,0,0,2,,,,,,,,,,1,,,62,0
37920,note_on,0,0,2,,,,,,,,,,1,,,51,80
37979,note_on,59,0,1,,,,,,,,,,0,,,67,0
37980,note_on,1,0,1,,,,,,,,,,0,,,79,85
38039,note_on,59,0,1,,,,,,,,,,0,,,79,0
38040,note_on,0,0,2,,,,,,,,,,1,,,63,80
38040,note_on,120,0,2,,,,,,,,,,1,,,51,0
38040,note_on,0,0,2,,,,,,,,,,1,,,58,80
38040,note_on,1,0,1,,,,,,,,,,0,,,70,80
38040,note_on,0,0,1,,,,,,,,,,0,,,79,80
38150,set_tempo,1030,1,0,,,,,,,352941,,,,,,,
38160,note_on,120,0,1,,,,,,,,,,0,,,79,0
38160,note_on,0,0,1,,,,,,,,,,0,,,70,0
38160,note_on,0,0,2,,,,,,,,,,1,,,46,80
38160,note_on,0,0,2,,,,,,,,,,1,,,63,0
38160,note_on,120,0,2,,,,,,,,,,1,,,58,0
38160,note_on,0,0,1,,,,,,,,,,0,,,68,80
38160,set_tempo,10,1,0,,,,,,,355030,,,,,,,
38170,set_tempo,10,1,0,,,,,,,359281,,,,,,,
38180,set_tempo,10,1,0,,,,,,,363636,,,,,,,
38190,set_tempo,10,1,0,,,,,,,368098,,,,,,,
38200,set_tempo,10,1,0,,,,,,,372671,,,,,,,
38210,set_tempo,10,1,0,,,,,,,377358,,,,,,,
38220,set_tempo,10,1,0,,,,,,,382166,,,,,,,
38220,note_on,0,0,1,,,,,,,,,,0,,,80,80
38220,note_on,60,0,1,,,,,,,,,,0,,,68,0
38230,set_tempo,10,1,0,,,,,,,387097,,,,,,,
38240,set_tempo,10,1,0,,,,,,,392157,,,,,,,
38250,set_tempo,10,1,0,,,,,,,394737,,,,,,,
38260,set_tempo,10,1,0,,,,,,,400000,,,,,,,
38270,set_tempo,10,1,0,,,,,,,405405,,,,,,,
38280,note_on,0,0,1,,,,,,,,,,0,,,77,80
38280,note_on,60,0,1,,,,,,,,,,0,,,80,0
38280,set_tempo,10,1,0,,,,,,,410959,,,,,,,
38280,note_on,120,0,2,,,,,,,,,,1,,,46,0
38280,note_on,0,0,2,,,,,,,,,,1,,,58,80
38290,set_tempo,10,1,0,,,,,,,416667,,,,,,,
38300,set_tempo,10,1,0,,,,,,,422535,,,,,,,
38310,set_tempo,10,1,0,,,,,,,428571,,,,,,,
38320,set_tempo,10,1,0,,,,,,,434783,,,,,,,
38330,set_tempo,10,1,0,,,,,,,441176,,,,,,,
38340,set_tempo,10,1,0,,,,,,,444444,,,,,,,
38340,note_on,0,0,1,,,,,,,,,,0,,,74,80
38340,note_on,60,0,1,,,,,,,,,,0,,,77,0
38350,set_tempo,10,1,0,,,,,,,451128,,,,,,,
38360,set_tempo,10,1,0,,,,,,,458015,,,,,,,
38370,set_tempo,10,1,0,,,,,,,465116,,,,,,,
38380,set_tempo,10,1,0,,,,,,,472441,,,,,,,
38390,set_tempo,10,1,0,,,,,,,480000,,,,,,,
38400,note_on,120,0,2,,,,,,,,,,1,,,58,0
38400,set_tempo,10,1,0,,,,,,,487805,,,,,,,
38400,note_on,60,0,1,,,,,,,,,,0,,,74,0
38400,note_on,0,0,1,,,,,,,,,,0,,,75,80
38400,note_on,0,0,2,,,,,,,,,,1,,,51,80
38410,set_tempo,10,1,0,,,,,,,495868,,,,,,,
38420,set_tempo,10,1,0,,,,,,,504202,,,,,,,
38430,set_tempo,10,1,0,,,,,,,508475,,,,,,,
38440,set_tempo,10,1,0,,,,,,,517241,,,,,,,
38450,set_tempo,10,1,0,,,,,,,526316,,,,,,,
38460,set_tempo,10,1,0,,,,,,,535714,,,,,,,
38470,set_tempo,10,1,0,,,,,,,545455,,,,,,,
38480,set_tempo,10,1,0,,,,,,,555556,,,,,,,
38490,set_tempo,10,1,0,,,,,,,566038,,,,,,,
38500,set_tempo,10,1,0,,,,,,,576923,,,,,,,
38510,set_tempo,10,1,0,,,,,,,588235,,,,,,,
38520,note_on,120,0,2,,,,,,,,,,1,,,51,0
38520,set_tempo,10,1,0,,,,,,,594059,,,,,,,
38520,note_on,0,0,2,,,,,,,,,,1,,,39,80
38520,note_on,120,0,1,,,,,,,,,,0,,,75,0
38530,set_tempo,10,1,0,,,,,,,606061,,,,,,,
38540,set_tempo,10,1,0,,,,,,,618557,,,,,,,
38550,set_tempo,10,1,0,,,,,,,631579,,,,,,,
38560,set_tempo,10,1,0,,,,,,,645161,,,,,,,
38570,set_tempo,10,1,0,,,,,,,659341,,,,,,,
38580,set_tempo,10,1,0,,,,,,,674157,,,,,,,
38590,set_tempo,10,1,0,,,,,,,689655,,,,,,,
38600,set_tempo,10,1,0,,,,,,,705882,,,,,,,
38610,set_tempo,10,1,0,,,,,,,722892,,,,,,,
38640,note_on,120,0,1,,,,,,,,,,0,,,70,100
38640,note_on,0,0,1,,,,,,,,,,0,,,67,100
38640,note_on,120,0,2,,,,,,,,,,1,,,39,0
38640,note_on,0,0,2,,,,,,,,,,1,,,39,100
38640,marker,0,1,0,,,,,,,,,,,,,,
38640,set_tempo,30,1,0,,,,,,,384615,,,,,,,
38714,note_on,74,0,1,,,,,,,,,,0,,,67,0
38715,note_on,1,0,1,,,,,,,,,,0,,,72,100
38716,note_on,1,0,1,,,,,,,,,,0,,,70,0
38730,note_on,14,0,1,,,,,,,,,,0,,,72,0
38730,note_on,0,0,1,,,,,,,,,,0,,,70,100
38745,note_on,15,0,1,,,,,,,,,,0,,,70,0
38745,note_on,0,0,1,,,,,,,,,,0,,,69,100
38760,note_on,120,0,2,,,,,,,,,,1,,,39,0
38760,note_on,0,0,1,,,,,,,,,,0,,,70,100
38760,note_on,15,0,1,,,,,,,,,,0,,,69,0
38760,note_on,0,0,2,,,,,,,,,,1,,,55,100
38760,note_on,0,0,2,,,,,,,,,,1,,,51,100
38820,note_on,0,0,1,,,,,,,,,,0,,,75,100
38820,note_on,60,0,1,,,,,,,,,,0,,,70,0
38880,note_on,0,0,2,,,,,,,,,,1,,,39,100
38880,note_on,0,0,2,,,,,,,,,,1,,,55,0
38880,note_on,0,0,1,,,,,,,,,,0,,,63,100
38880,note_on,60,0,1,,,,,,,,,,0,,,75,0
38880,note_on,0,0,1,,,,,,,,,,0,,,67,100
38880,note_on,120,0,2,,,,,,,,,,1,,,51,0
39000,note_on,0,0,2,,,,,,,,,,1,,,55,100
39000,note_on,0,0,2,,,,,,,,,,1,,,51,100
39000,note_on,120,0,2,,,,,,,,,,1,,,39,0
39120,note_on,240,0,1,,,,,,,,,,0,,,63,0
39120,note_on,0,0,1,,,,,,,,,,0,,,67,0
39120,note_on,0,0,1,,,,,,,,,,0,,,75,100
39120,note_on,120,0,2,,,,,,,,,,1,,,51,0
39120,note_on,0,0,2,,,,,,,,,,1,,,55,0
39120,note_on,0,0,2,,,,,,,,,,1,,,39,100
39194,note_on,74,0,1,,,,,,,,,,0,,,75,0
39195,note_on,1,0,1,,,,,,,,,,0,,,77,100
39210,note_on,0,0,1,,,,,,,,,,0,,,75,100
39210,note_on,15,0,1,,,,,,,,,,0,,,77,0
39225,note_on,0,0,1,,,,,,,,,,0,,,74,100
39225,note_on,15,0,1,,,,,,,,,,0,,,75,0
39240,note_on,15,0,1,,,,,,,,,,0,,,74,0
39240,note_on,0,0,2,,,,,,,,,,1,,,51,100
39240,note_on,0,0,2,,,,,,,,,,1,,,55,100
39240,note_on,120,0,2,,,,,,,,,,1,,,39,0
39240,note_on,0,0,1,,,,,,,,,,0,,,75,100
39300,note_on,0,0,1,,,,,,,,,,0,,,79,100
39300,note_on,60,0,1,,,,,,,,,,0,,,75,0
39360,note_on,120,0,2,,,,,,,,,,1,,,51,0
39360,note_on,0,0,2,,,,,,,,,,1,,,39,100
39360,note_on,0,0,2,,,,,,,,,,1,,,55,0
39360,note_on,0,0,1,,,,,,,,,,0,,,70,100
39360,note_on,0,0,1,,,,,,,,,,0,,,67,100
39360,note_on,60,0,1,,,,,,,,,,0,,,79,0
39480,note_on,0,0,2,,,,,,,,,,1,,,55,100
39480,note_on,120,0,2,,,,,,,,,,1,,,39,0
39480,note_on,0,0,2,,,,,,,,,,1,,,51,100
39600,note_on,240,0,1,,,,,,,,,,0,,,67,0
39600,note_on,0,0,1,,,,,,,,,,0,,,70,0
39600,note_on,0,0,2,,,,,,,,,,1,,,55,100
39600,note_on,0,0,2,,,,,,,,,,1,,,55,0
39600,note_on,120,0,2,,,,,,,,,,1,,,51,0
39600,note_on,0,0,1,,,,,,,,,,0,,,70,100
39660,note_on,0,0,1,,,,,,,,,,0,,,67,100
39660,note_on,60,0,2,,,,,,,,,,1,,,55,0
39660,note_on,0,0,2,,,,,,,,,,1,,,51,100
39660,note_on,60,0,1,,,,,,,,,,0,,,70,0
39720,note_on,0,0,1,,,,,,,,,,0,,,72,100
39720,note_on,0,0,2,,,,,,,,,,1,,,56,100
39720,note_on,60,0,1,,,,,,,,,,0,,,67,0
39720,note_on,60,0,2,,,,,,,,,,1,,,51,0
39780,note_on,60,0,1,,,,,,,,,,0,,,72,0
39780,note_on,0,0,1,,,,,,,,,,0,,,70,100
39780,note_on,60,0,2,,,,,,,,,,1,,,56,0
39780,note_on,0,0,2,,,,,,,,,,1,,,55,100
39840,note_on,60,0,1,,,,,,,,,,0,,,70,0
39840,note_on,0,0,1,,,,,,,,,,0,,,68,100
39840,note_on,0,0,2,,,,,,,,,,1,,,60,100
39840,note_on,60,0,2,,,,,,,,,,1,,,55,0
39900,note_on,60,0,2,,,,,,,,,,1,,,60,0
39900,note_on,0,0,1,,,,,,,,,,0,,,67,100
39900,note_on,60,0,1,,,,,,,,,,0,,,68,0
39900,note_on,0,0,2,,,,,,,,,,1,,,58,100
39960,note_on,0,0,1,,,,,,,,,,0,,,65,100
39960,note_on,60,0,1,,,,,,,,,,0,,,67,0
39960,note_on,0,0,2,,,,,,,,,,1,,,56,100
39960,note_on,60,0,2,,,,,,,,,,1,,,58,0
40020,note_on,0,0,2,,,,,,,,,,1,,,55,100
40020,note_on,60,0,2,,,,,,,,,,1,,,56,0
40020,note_on,60,0,1,,,,,,,,,,0,,,65,0
40020,note_on,0,0,1,,,,,,,,,,0,,,63,100
40080,note_on,0,0,2,,,,,,,,,,1,,,53,100
40080,note_on,60,0,1,,,,,,,,,,0,,,63,0
40080,note_on,0,0,1,,,,,,,,,,0,,,62,100
40080,note_on,60,0,2,,,,,,,,,,1,,,55,0
40140,note_on,0,0,2,,,,,,,,,,1,,,55,100
40140,note_on,60,0,2,,,,,,,,,,1,,,53,0
40140,note_on,0,0,1,,,,,,,,,,0,,,63,100
40140,note_on,60,0,1,,,,,,,,,,0,,,62,0
40200,note_on,0,0,2,,,,,,,,,,1,,,56,100
40200,note_on,0,0,1,,,,,,,,,,0,,,65,100
40200,note_on,60,0,2,,,,,,,,,,1,,,55,0
40200,note_on,60,0,1,,,,,,,,,,0,,,63,0
40260,note_on,60,0,1,,,,,,,,,,0,,,65,0
40260,note_on,60,0,2,,,,,,,,,,1,,,56,0
40260,note_on,0,0,2,,,,,,,,,,1,,,58,100
40260,note_on,0,0,1,,,,,,,,,,0,,,67,100
40320,note_on,0,0,1,,,,,,,,,,0,,,68,100
40320,note_on,60,0,1,,,,,,,,,,0,,,67,0
40320,note_on,60,0,2,,,,,,,,,,1,,,58,0
40320,note_on,0,0,2,,,,,,,,,,1,,,60,100
40380,note_on,60,0,1,,,,,,,,,,0,,,68,0
40380,note_on,60,0,2,,,,,,,,,,1,,,60,0
40380,note_on,0,0,1,,,,,,,,,,0,,,70,100
40380,note_on,0,0,2,,,,,,,,,,1,,,55,100
40440,note_on,0,0,2,,,,,,,,,,1,,,56,100
40440,note_on,60,0,2,,,,,,,,,,1,,,55,0
40440,note_on,0,0,1,,,,,,,,,,0,,,72,100
40440,note_on,60,0,1,,,,,,,,,,0,,,70,0
40500,note_on,60,0,1,,,,,,,,,,0,,,72,0
40500,note_on,0,0,1,,,,,,,,,,0,,,74,100
40500,note_on,0,0,2,,,,,,,,,,1,,,53,100
40500,note_on,60,0,2,,,,,,,,,,1,,,56,0
40555,note_on,55,0,2,,,,,,,,,,1,,,39,100
40560,note_on,60,0,1,,,,,,,,,,0,,,74,0
40560,note_on,0,0,1,,,,,,,,,,0,,,75,100
40560,note_on,5,0,2,,,,,,,,,,1,,,53,0
40635,note_on,75,0,1,,,,,,,,,,0,,,77,100
40636,note_on,1,0,1,,,,,,,,,,0,,,75,0
40650,note_on,14,0,1,,,,,,,,,,0,,,77,0
40650,note_on,0,0,1,,,,,,,,,,0,,,75,100
40665,note_on,15,0,1,,,,,,,,,,0,,,75,0
40665,note_on,0,0,1,,,,,,,,,,0,,,74,100
40675,note_on,0,0,2,,,,,,,,,,1,,,51,100
40675,note_on,0,0,2,,,,,,,,,,1,,,55,100
40675,note_on,115,0,2,,,,,,,,,,1,,,39,0
40680,note_on,0,0,1,,,,,,,,,,0,,,75,100
40680,note_on,15,0,1,,,,,,,,,,0,,,74,0
40740,note_on,60,0,1,,,,,,,,,,0,,,75,0
40740,note_on,0,0,1,,,,,,,,,,0,,,79,100
40795,note_on,0,0,2,,,,,,,,,,1,,,55,0
40795,note_on,120,0,2,,,,,,,,,,1,,,51,0
40795,note_on,0,0,2,,,,,,,,,,1,,,39,100
40795,note_on,55,0,1,,,,,,,,,,0,,,67,100
40800,note_on,5,0,1,,,,,,,,,,0,,,79,0
40800,note_on,0,0,1,,,,,,,,,,0,,,70,100
40915,note_on,0,0,2,,,,,,,,,,1,,,51,100
40915,note_on,120,0,2,,,,,,,,,,1,,,39,0
40915,note_on,0,0,2,,,,,,,,,,1,,,55,100
41035,note_on,120,0,2,,,,,,,,,,1,,,51,0
41035,note_on,235,0,1,,,,,,,,,,0,,,67,0
41035,note_on,0,0,1,,,,,,,,,,0,,,70,100
41035,note_on,0,0,2,,,,,,,,,,1,,,55,0
41035,note_on,0,0,2,,,,,,,,,,1,,,39,100
41040,note_on,5,0,1,,,,,,,,,,0,,,70,0
41109,note_on,69,0,1,,,,,,,,,,0,,,70,0
41110,note_on,1,0,1,,,,,,,,,,0,,,72,100
41125,note_on,0,0,1,,,,,,,,,,0,,,70,100
41125,note_on,15,0,1,,,,,,,,,,0,,,72,0
41140,note_on,15,0,1,,,,,,,,,,0,,,70,0
41145,note_on,5,0,1,,,,,,,,,,0,,,69,100
41155,note_on,0,0,2,,,,,,,,,,1,,,51,100
41155,note_on,0,0,2,,,,,,,,,,1,,,55,100
41155,note_on,120,0,2,,,,,,,,,,1,,,39,0
41155,note_on,10,0,1,,,,,,,,,,0,,,70,100
41160,note_on,5,0,1,,,,,,,,,,0,,,69,0
41215,note_on,55,0,1,,,,,,,,,,0,,,70,0
41215,note_on,0,0,1,,,,,,,,,,0,,,75,100
41275,note_on,0,0,2,,,,,,,,,,1,,,55,0
41275,note_on,120,0,2,,,,,,,,,,1,,,51,0
41275,note_on,60,0,1,,,,,,,,,,0,,,75,0
41275,note_on,0,0,1,,,,,,,,,,0,,,67,100
41275,note_on,0,0,2,,,,,,,,,,1,,,39,100
41280,note_on,5,0,1,,,,,,,,,,0,,,63,100
41395,note_on,0,0,2,,,,,,,,,,1,,,51,100
41395,note_on,0,0,2,,,,,,,,,,1,,,55,100
41395,note_on,120,0,2,,,,,,,,,,1,,,39,0
41515,note_on,235,0,1,,,,,,,,,,0,,,67,0
41515,note_on,0,0,2,,,,,,,,,,1,,,55,100
41515,note_on,0,0,2,,,,,,,,,,1,,,55,0
41515,note_on,120,0,2,,,,,,,,,,1,,,51,0
41515,note_on,0,0,1,,,,,,,,,,0,,,70,100
41520,note_on,5,0,1,,,,,,,,,,0,,,63,0
41575,note_on,0,0,2,,,,,,,,,,1,,,51,100
41575,note_on,0,0,1,,,,,,,,,,0,,,67,100
41575,note_on,55,0,1,,,,,,,,,,0,,,70,0
41575,note_on,60,0,2,,,,,,,,,,1,,,55,0
41635,note_on,0,0,1,,,,,,,,,,0,,,72,100
41635,note_on,60,0,1,,,,,,,,,,0,,,67,0
41635,note_on,60,0,2,,,,,,,,,,1,,,51,0
41635,note_on,0,0,2,,,,,,,,,,1,,,56,100
41695,note_on,0,0,2,,,,,,,,,,1,,,55,100
41695,note_on,0,0,1,,,,,,,,,,0,,,70,100
41695,note_on,60,0,1,,,,,,,,,,0,,,72,0
41695,note_on,60,0,2,,,,,,,,,,1,,,56,0
41755,note_on,60,0,1,,,,,,,,,,0,,,70,0
41755,note_on,0,0,2,,,,,,,,,,1,,,53,100
41755,note_on,0,0,1,,,,,,,,,,0,,,68,100
41755,note_on,60,0,2,,,,,,,,,,1,,,55,0
41815,note_on,60,0,2,,,,,,,,,,1,,,53,0
41815,note_on,0,0,2,,,,,,,,,,1,,,51,100
41815,note_on,60,0,1,,,,,,,,,,0,,,68,0
41815,note_on,0,0,1,,,,,,,,,,0,,,67,100
41875,note_on,0,0,2,,,,,,,,,,1,,,50,100
41875,note_on,60,0,2,,,,,,,,,,1,,,51,0
41875,note_on,60,0,1,,,,,,,,,,0,,,67,0
41875,note_on,0,0,1,,,,,,,,,,0,,,65,100
41935,note_on,0,0,2,,,,,,,,,,1,,,48,100
41935,note_on,60,0,2,,,,,,,,,,1,,,50,0
41935,note_on,60,0,1,,,,,,,,,,0,,,65,0
41935,note_on,0,0,1,,,,,,,,,,0,,,63,100
41995,note_on,0,0,2,,,,,,,,,,1,,,46,100
41995,note_on,60,0,2,,,,,,,,,,1,,,48,0
41995,note_on,60,0,1,,,,,,,,,,0,,,63,0
41995,note_on,0,0,1,,,,,,,,,,0,,,62,100
42055,note_on,60,0,2,,,,,,,,,,1,,,46,0
42055,note_on,0,0,1,,,,,,,,,,0,,,63,100
42055,note_on,60,0,1,,,,,,,,,,0,,,62,0
42055,note_on,0,0,2,,,,,,,,,,1,,,48,100
42115,note_on,0,0,1,,,,,,,,,,0,,,65,100
42115,note_on,60,0,1,,,,,,,,,,0,,,63,0
42115,note_on,60,0,2,,,,,,,,,,1,,,48,0
42115,note_on,0,0,2,,,,,,,,,,1,,,50,100
42175,note_on,60,0,1,,,,,,,,,,0,,,65,0
42175,note_on,60,0,2,,,,,,,,,,1,,,50,0
42180,note_on,5,0,2,,,,,,,,,,1,,,48,100
42180,note_on,5,0,1,,,,,,,,,,0,,,63,100
42240,note_on,60,0,2,,,,,,,,,,1,,,48,0
42240,note_on,0,0,2,,,,,,,,,,1,,,46,100
42240,note_on,60,0,1,,,,,,,,,,0,,,63,0
42240,note_on,0,0,1,,,,,,,,,,0,,,62,100
42300,note_on,60,0,1,,,,,,,,,,0,,,62,0
42300,note_on,60,0,2,,,,,,,,,,1,,,46,0
42300,note_on,0,0,2,,,,,,,,,,1,,,44,100
42300,note_on,0,0,1,,,,,,,,,,0,,,60,100
42360,note_on,60,0,2,,,,,,,,,,1,,,44,0
42360,note_on,0,0,2,,,,,,,,,,1,,,43,100
42360,note_on,0,0,1,,,,,,,,,,0,,,58,100
42360,note_on,60,0,1,,,,,,,,,,0,,,60,0
42380,set_tempo,3740,1,0,,,,,,,379747,,,,,,,
42420,note_on,60,0,1,,,,,,,,,,0,,,58,0
42420,note_on,0,0,1,,,,,,,,,,0,,,56,100
42420,note_on,60,0,2,,,,,,,,,,1,,,43,0
42420,note_on,0,0,2,,,,,,,,,,1,,,41,100
42480,note_on,60,0,1,,,,,,,,,,0,,,56,0
42480,note_on,0,0,1,,,,,,,,,,0,,,55,100
42480,note_on,60,0,2,,,,,,,,,,1,,,41,0
42480,note_on,0,0,2,,,,,,,,,,1,,,39,100
42600,note_on,0,0,2,,,,,,,,,,1,,,31,100
42600,note_on,120,0,2,,,,,,,,,,1,,,39,0
42600,note_on,0,0,1,,,,,,,,,,0,,,58,100
42600,note_on,0,0,1,,,,,,,,,,0,,,70,100
42600,note_on,120,0,1,,,,,,,,,,0,,,55,0
42720,note_on,0,0,2,,,,,,,,,,1,,,32,92
42720,note_on,120,0,2,,,,,,,,,,1,,,31,0
42720,note_on,0,0,1,,,,,,,,,,0,,,60,76
42720,note_on,0,0,1,,,,,,,,,,0,,,70,0
42720,note_on,120,0,1,,,,,,,,,,0,,,58,0
42779,note_on,59,0,1,,,,,,,,,,0,,,60,0
42780,note_on,1,0,1,,,,,,,,,,0,,,72,76
42839,note_on,59,0,1,,,,,,,,,,0,,,72,0
42840,note_on,0,0,2,,,,,,,,,,1,,,44,92
42840,note_on,120,0,2,,,,,,,,,,1,,,32,0
42840,note_on,1,0,1,,,,,,,,,,0,,,63,100
42840,note_on,0,0,1,,,,,,,,,,0,,,72,100
42960,note_on,120,0,1,,,,,,,,,,0,,,72,0
42960,note_on,0,0,1,,,,,,,,,,0,,,63,0
42960,note_on,0,0,1,,,,,,,,,,0,,,62,77
42960,note_on,0,0,2,,,,,,,,,,1,,,46,92
42960,note_on,120,0,2,,,,,,,,,,1,,,44,0
43079,note_on,119,0,1,,,,,,,,,,0,,,62,0
43080,note_on,1,0,1,,,,,,,,,,0,,,74,78
43080,note_on,0,0,2,,,,,,,,,,1,,,34,92
43080,note_on,0,0,1,,,,,,,,,,0,,,65,78
43080,note_on,120,0,2,,,,,,,,,,1,,,46,0
43199,note_on,0,0,1,,,,,,,,,,0,,,74,0
43199,note_on,119,0,1,,,,,,,,,,0,,,65,0
43200,note_on,120,0,2,,,,,,,,,,1,,,34,0
43200,note_on,0,0,2,,,,,,,,,,1,,,36,92
43200,note_on,1,0,1,,,,,,,,,,0,,,63,78
43259,note_on,59,0,1,,,,,,,,,,0,,,63,0
43260,note_on,1,0,1,,,,,,,,,,0,,,75,79
43319,note_on,59,0,1,,,,,,,,,,0,,,75,0
43320,note_on,0,0,1,,,,,,,,,,0,,,67,100
43320,note_on,1,0,1,,,,,,,,,,0,,,75,100
43320,note_on,120,0,2,,,,,,,,,,1,,,36,0
43320,note_on,0,0,2,,,,,,,,,,1,,,48,92
43440,note_on,0,0,1,,,,,,,,,,0,,,75,0
43440,note_on,120,0,1,,,,,,,,,,0,,,67,0
43440,note_on,120,0,2,,,,,,,,,,1,,,48,0
43440,note_on,0,0,2,,,,,,,,,,1,,,50,92
43440,note_on,0,0,1,,,,,,,,,,0,,,65,80
43559,note_on,119,0,1,,,,,,,,,,0,,,65,0
43560,note_on,0,0,2,,,,,,,,,,1,,,38,90
43560,note_on,0,0,1,,,,,,,,,,0,,,77,80
43560,note_on,1,0,1,,,,,,,,,,0,,,68,80
43560,note_on,120,0,2,,,,,,,,,,1,,,50,0
43679,note_on,0,0,1,,,,,,,,,,0,,,68,0
43679,note_on,119,0,1,,,,,,,,,,0,,,77,0
43680,note_on,1,0,1,,,,,,,,,,0,,,67,79
43680,note_on,120,0,2,,,,,,,,,,1,,,38,0
43680,note_on,0,0,2,,,,,,,,,,1,,,39,88
43739,note_on,59,0,1,,,,,,,,,,0,,,67,0
43740,note_on,1,0,1,,,,,,,,,,0,,,79,79
43799,note_on,59,0,1,,,,,,,,,,0,,,79,0
43800,note_on,1,0,1,,,,,,,,,,0,,,70,100
43800,note_on,120,0,2,,,,,,,,,,1,,,39,0
43800,note_on,0,0,1,,,,,,,,,,0,,,79,100
43800,note_on,0,0,2,,,,,,,,,,1,,,51,88
43920,note_on,120,0,2,,,,,,,,,,1,,,51,0
43920,note_on,0,0,1,,,,,,,,,,0,,,68,80
43920,note_on,0,0,1,,,,,,,,,,0,,,70,0
43920,note_on,120,0,1,,,,,,,,,,0,,,79,0
43920,note_on,0,0,2,,,,,,,,,,1,,,46,88
43979,note_on,59,0,1,,,,,,,,,,0,,,68,0
43980,note_on,1,0,1,,,,,,,,,,0,,,80,80
44039,note_on,59,0,1,,,,,,,,,,0,,,80,0
44040,note_on,0,0,2,,,,,,,,,,1,,,34,87
44040,note_on,1,0,1,,,,,,,,,,0,,,77,80
44040,note_on,120,0,2,,,,,,,,,,1,,,46,0
44099,note_on,59,0,1,,,,,,,,,,0,,,77,0
44100,note_on,1,0,1,,,,,,,,,,0,,,74,80
44159,note_on,59,0,1,,,,,,,,,,0,,,74,0
44160,note_on,120,0,2,,,,,,,,,,1,,,34,0
44160,note_on,0,0,2,,,,,,,,,,1,,,39,87
44160,note_on,1,0,1,,,,,,,,,,0,,,75,80
44219,note_on,59,0,1,,,,,,,,,,0,,,75,0
44220,note_on,1,0,1,,,,,,,,,,0,,,79,79
44279,note_on,59,0,1,,,,,,,,,,0,,,79,0
44280,note_on,1,0,1,,,,,,,,,,0,,,75,80
44280,note_on,0,0,2,,,,,,,,,,1,,,51,80
44280,note_on,120,0,2,,,,,,,,,,1,,,39,0
44339,note_on,59,0,1,,,,,,,,,,0,,,75,0
44340,note_on,1,0,1,,,,,,,,,,0,,,70,80
44399,note_on,59,0,1,,,,,,,,,,0,,,70,0
44400,note_on,1,0,1,,,,,,,,,,0,,,67,80
44400,note_on,0,0,2,,,,,,,,,,1,,,51,80
44400,note_on,0,0,2,,,,,,,,,,1,,,39,80
44400,note_on,120,0,2,,,,,,,,,,1,,,51,0
44440,set_tempo,2060,1,0,,,,,,,382166,,,,,,,
44520,note_on,120,0,2,,,,,,,,,,1,,,51,0
44520,note_on,0,0,2,,,,,,,,,,1,,,43,80
44520,note_on,0,0,2,,,,,,,,,,1,,,55,80
44520,note_on,120,0,1,,,,,,,,,,0,,,67,0
44520,note_on,0,0,1,,,,,,,,,,0,,,70,80
44520,note_on,0,0,1,,,,,,,,,,0,,,58,80
44520,note_on,0,0,2,,,,,,,,,,1,,,39,0
44640,note_on,120,0,1,,,,,,,,,,0,,,58,0
44640,note_on,0,0,1,,,,,,,,,,0,,,70,0
44640,note_on,0,0,1,,,,,,,,,,0,,,60,85
44640,note_on,120,0,2,,,,,,,,,,1,,,43,0
44640,note_on,0,0,2,,,,,,,,,,1,,,55,0
44640,note_on,0,0,2,,,,,,,,,,1,,,44,80
44699,note_on,59,0,1,,,,,,,,,,0,,,60,0
44700,note_on,1,0,1,,,,,,,,,,0,,,72,85
44759,note_on,59,0,1,,,,,,,,,,0,,,72,0
44760,note_on,120,0,2,,,,,,,,,,1,,,44,0
44760,note_on,0,0,2,,,,,,,,,,1,,,51,80
44760,note_on,0,0,1,,,,,,,,,,0,,,63,80
44760,note_on,0,0,2,,,,,,,,,,1,,,56,80
44760,note_on,1,0,1,,,,,,,,,,0,,,72,80
44880,note_on,0,0,1,,,,,,,,,,0,,,62,85
44880,note_on,0,0,2,,,,,,,,,,1,,,46,80
44880,note_on,0,0,2,,,,,,,,,,1,,,51,0
44880,note_on,120,0,2,,,,,,,,,,1,,,56,0
44880,note_on,0,0,1,,,,,,,,,,0,,,72,0
44880,note_on,120,0,1,,,,,,,,,,0,,,63,0
44999,note_on,119,0,1,,,,,,,,,,0,,,62,0
45000,note_on,0,0,1,,,,,,,,,,0,,,65,85
45000,note_on,1,0,1,,,,,,,,,,0,,,74,85
45000,note_on,0,0,2,,,,,,,,,,1,,,58,80
45000,note_on,0,0,2,,,,,,,,,,1,,,53,80
45000,note_on,120,0,2,,,,,,,,,,1,,,46,0
45119,note_on,0,0,1,,,,,,,,,,0,,,74,0
45119,note_on,119,0,1,,,,,,,,,,0,,,65,0
45120,note_on,1,0,1,,,,,,,,,,0,,,63,85
45120,note_on,0,0,2,,,,,,,,,,1,,,48,80
45120,note_on,120,0,2,,,,,,,,,,1,,,53,0
45120,note_on,0,0,2,,,,,,,,,,1,,,58,0
45179,note_on,59,0,1,,,,,,,,,,0,,,63,0
45180,note_on,1,0,1,,,,,,,,,,0,,,75,85
45239,note_on,59,0,1,,,,,,,,,,0,,,75,0
45240,note_on,120,0,2,,,,,,,,,,1,,,48,0
45240,note_on,0,0,2,,,,,,,,,,1,,,60,80
45240,note_on,1,0,1,,,,,,,,,,0,,,67,80
45240,note_on,0,0,1,,,,,,,,,,0,,,75,80
45240,note_on,0,0,2,,,,,,,,,,1,,,55,80
45360,note_on,0,0,2,,,,,,,,,,1,,,50,80
45360,note_on,120,0,2,,,,,,,,,,1,,,55,0
45360,note_on,120,0,1,,,,,,,,,,0,,,75,0
45360,note_on,0,0,1,,,,,,,,,,0,,,67,0
45360,note_on,0,0,1,,,,,,,,,,0,,,65,85
45360,note_on,0,0,2,,,,,,,,,,1,,,60,0
45479,note_on,119,0,1,,,,,,,,,,0,,,65,0
45480,note_on,0,0,2,,,,,,,,,,1,,,58,80
45480,note_on,0,0,2,,,,,,,,,,1,,,62,80
45480,note_on,120,0,2,,,,,,,,,,1,,,50,0
45480,note_on,1,0,1,,,,,,,,,,0,,,77,85
45480,note_on,0,0,1,,,,,,,,,,0,,,68,85
45595,set_tempo,1155,1,0,,,,,,,377358,,,,,,,
45599,note_on,119,0,1,,,,,,,,,,0,,,68,0
45599,note_on,0,0,1,,,,,,,,,,0,,,77,0
45600,note_on,0,0,2,,,,,,,,,,1,,,62,0
45600,note_on,120,0,2,,,,,,,,,,1,,,58,0
45600,note_on,0,0,2,,,,,,,,,,1,,,51,80
45600,note_on,1,0,1,,,,,,,,,,0,,,67,85
45605,set_tempo,10,1,0,,,,,,,379747,,,,,,,
45615,set_tempo,10,1,0,,,,,,,382166,,,,,,,
45620,set_tempo,5,1,0,,,,,,,384615,,,,,,,
45630,set_tempo,10,1,0,,,,,,,387097,,,,,,,
45635,set_tempo,5,1,0,,,,,,,389610,,,,,,,
45645,set_tempo,10,1,0,,,,,,,392157,,,,,,,
45650,set_tempo,5,1,0,,,,,,,394737,,,,,,,
45659,note_on,59,0,1,,,,,,,,,,0,,,67,0
45660,note_on,1,0,1,,,,,,,,,,0,,,79,85
45660,set_tempo,10,1,0,,,,,,,397351,,,,,,,
45665,set_tempo,5,1,0,,,,,,,400000,,,,,,,
45675,set_tempo,10,1,0,,,,,,,402685,,,,,,,
45680,set_tempo,5,1,0,,,,,,,405405,,,,,,,
45690,set_tempo,10,1,0,,,,,,,408163,,,,,,,
45695,set_tempo,5,1,0,,,,,,,410959,,,,,,,
45705,set_tempo,10,1,0,,,,,,,413793,,,,,,,
45710,set_tempo,5,1,0,,,,,,,416667,,,,,,,
45719,note_on,59,0,1,,,,,,,,,,0,,,79,0
45720,set_tempo,10,1,0,,,,,,,419580,,,,,,,
45720,note_on,0,0,2,,,,,,,,,,1,,,63,80
45720,note_on,0,0,2,,,,,,,,,,1,,,58,80
45720,note_on,120,0,2,,,,,,,,,,1,,,51,0
45720,note_on,0,0,1,,,,,,,,,,0,,,79,80
45720,note_on,1,0,1,,,,,,,,,,0,,,70,80
45725,set_tempo,5,1,0,,,,,,,422535,,,,,,,
45735,set_tempo,10,1,0,,,,,,,425532,,,,,,,
45740,set_tempo,5,1,0,,,,,,,428571,,,,,,,
45750,set_tempo,10,1,0,,,,,,,431655,,,,,,,
45755,set_tempo,5,1,0,,,,,,,434783,,,,,,,
45765,set_tempo,10,1,0,,,,,,,437956,,,,,,,
45770,set_tempo,5,1,0,,,,,,,441176,,,,,,,
45780,set_tempo,10,1,0,,,,,,,444444,,,,,,,
45785,set_tempo,5,1,0,,,,,,,447761,,,,,,,
45795,set_tempo,10,1,0,,,,,,,451128,,,,,,,
45800,set_tempo,5,1,0,,,,,,,454545,,,,,,,
45810,set_tempo,10,1,0,,,,,,,458015,,,,,,,
45815,set_tempo,5,1,0,,,,,,,461538,,,,,,,
45825,set_tempo,10,1,0,,,,,,,465116,,,,,,,
45830,set_tempo,5,1,0,,,,,,,468750,,,,,,,
45840,set_tempo,10,1,0,,,,,,,472441,,,,,,,
45840,note_on,0,0,2,,,,,,,,,,1,,,63,0
45840,note_on,120,0,2,,,,,,,,,,1,,,58,0
45840,note_on,120,0,1,,,,,,,,,,0,,,79,0
45840,note_on,0,0,1,,,,,,,,,,0,,,70,0
45840,note_on,0,0,1,,,,,,,,,,0,,,68,80
45840,note_on,0,0,2,,,,,,,,,,1,,,46,80
45845,set_tempo,5,1,0,,,,,,,476190,,,,,,,
45855,set_tempo,10,1,0,,,,,,,480000,,,,,,,
45860,set_tempo,5,1,0,,,,,,,483871,,,,,,,
45870,set_tempo,10,1,0,,,,,,,487805,,,,,,,
45875,set_tempo,5,1,0,,,,,,,491803,,,,,,,
45885,set_tempo,10,1,0,,,,,,,495868,,,,,,,
45890,set_tempo,5,1,0,,,,,,,500000,,,,,,,
45900,note_on,0,0,1,,,,,,,,,,0,,,80,80
45900,note_on,60,0,1,,,,,,,,,,0,,,68,0
45900,set_tempo,10,1,0,,,,,,,504202,,,,,,,
45905,set_tempo,5,1,0,,,,,,,508475,,,,,,,
45915,set_tempo,10,1,0,,,,,,,512821,,,,,,,
45920,set_tempo,5,1,0,,,,,,,517241,,,,,,,
45930,set_tempo,10,1,0,,,,,,,521739,,,,,,,
45935,set_tempo,5,1,0,,,,,,,526316,,,,,,,
45945,set_tempo,10,1,0,,,,,,,530973,,,,,,,
45950,set_tempo,5,1,0,,,,,,,535714,,,,,,,
45960,set_tempo,10,1,0,,,,,,,540541,,,,,,,
45960,note_on,120,0,2,,,,,,,,,,1,,,46,0
45960,note_on,0,0,2,,,,,,,,,,1,,,58,80
45960,note_on,60,0,1,,,,,,,,,,0,,,80,0
45960,note_on,0,0,1,,,,,,,,,,0,,,77,80
45965,set_tempo,5,1,0,,,,,,,545455,,,,,,,
45975,set_tempo,10,1,0,,,,,,,550459,,,,,,,
45980,set_tempo,5,1,0,,,,,,,555556,,,,,,,
45990,set_tempo,10,1,0,,,,,,,560748,,,,,,,
45995,set_tempo,5,1,0,,,,,,,566038,,,,,,,
46005,set_tempo,10,1,0,,,,,,,571429,,,,,,,
46010,set_tempo,5,1,0,,,,,,,576923,,,,,,,
46020,note_on,60,0,1,,,,,,,,,,0,,,77,0
46020,set_tempo,10,1,0,,,,,,,582524,,,,,,,
46020,note_on,0,0,1,,,,,,,,,,0,,,74,80
46025,set_tempo,5,1,0,,,,,,,588235,,,,,,,
46035,set_tempo,10,1,0,,,,,,,594059,,,,,,,
46040,set_tempo,5,1,0,,,,,,,600000,,,,,,,
46050,set_tempo,10,1,0,,,,,,,606061,,,,,,,
46055,set_tempo,5,1,0,,,,,,,612245,,,,,,,
46065,set_tempo,10,1,0,,,,,,,618557,,,,,,,
46070,set_tempo,5,1,0,,,,,,,625000,,,,,,,
46080,note_on,0,0,2,,,,,,,,,,1,,,51,80
46080,note_on,60,0,1,,,,,,,,,,0,,,74,0
46080,note_on,0,0,1,,,,,,,,,,0,,,75,80
46080,note_on,120,0,2,,,,,,,,,,1,,,58,0
46080,set_tempo,10,1,0,,,,,,,631579,,,,,,,
46085,set_tempo,5,1,0,,,,,,,638298,,,,,,,
46095,set_tempo,10,1,0,,,,,,,645161,,,,,,,
46100,set_tempo,5,1,0,,,,,,,652174,,,,,,,
46110,set_tempo,10,1,0,,,,,,,659341,,,,,,,
46115,set_tempo,5,1,0,,,,,,,666667,,,,,,,
46125,set_tempo,10,1,0,,,,,,,674157,,,,,,,
46130,set_tempo,5,1,0,,,,,,,681818,,,,,,,
46140,set_tempo,10,1,0,,,,,,,689655,,,,,,,
46145,set_tempo,5,1,0,,,,,,,697674,,,,,,,
46155,set_tempo,10,1,0,,,,,,,705882,,,,,,,
46160,set_tempo,5,1,0,,,,,,,714286,,,,,,,
46170,set_tempo,10,1,0,,,,,,,722892,,,,,,,
46175,set_tempo,5,1,0,,,,,,,731707,,,,,,,
46185,set_tempo,10,1,0,,,,,,,740741,,,,,,,
46190,set_tempo,5,1,0,,,,,,,750000,,,,,,,
46200,note_on,120,0,2,,,,,,,,,,1,,,51,0
46200,note_on,0,0,2,,,,,,,,,,1,,,39,80
46200,note_on,120,0,1,,,,,,,,,,0,,,75,0
46200,end_of_track,0,1,1,,,,,,,,,,,,,,
46200,set_tempo,10,1,0,,,,,,,759494,,,,,,,
46205,set_tempo,5,1,0,,,,,,,769231,,,,,,,
46215,set_tempo,10,1,0,,,,,,,779221,,,,,,,
46220,set_tempo,5,1,0,,,,,,,789474,,,,,,,
46230,set_tempo,10,1,0,,,,,,,800000,,,,,,,
46235,set_tempo,5,1,0,,,,,,,810811,,,,,,,
46245,set_tempo,10,1,0,,,,,,,821918,,,,,,,
46250,set_tempo,5,1,0,,,,,,,833333,,,,,,,
46260,set_tempo,10,1,0,,,,,,,845070,,,,,,,
46265,set_tempo,5,1,0,,,,,,,857143,,,,,,,
46275,set_tempo,10,1,0,,,,,,,869565,,,,,,,
46280,set_tempo,5,1,0,,,,,,,882353,,,,,,,
46290,set_tempo,10,1,0,,,,,,,895522,,,,,,,
46295,set_tempo,5,1,0,,,,,,,909091,,,,,,,
46305,set_tempo,10,1,0,,,,,,,923077,,,,,,,
46310,set_tempo,5,1,0,,,,,,,937500,,,,,,,
46320,set_tempo,10,1,0,,,,,,,952381,,,,,,,
46320,end_of_track,0,1,2,,,,,,,,,,,,,,
46320,note_on,120,0,2,,,,,,,,,,1,,,39,0
46325,set_tempo,5,1,0,,,,,,,967742,,,,,,,
46335,set_tempo,10,1,0,,,,,,,983607,,,,,,,
46340,set_tempo,5,1,0,,,,,,,1000000,,,,,,,
46350,set_tempo,10,1,0,,,,,,,1016949,,,,,,,
46355,set_tempo,5,1,0,,,,,,,1034483,,,,,,,
46365,set_tempo,10,1,0,,,,,,,1052632,,,,,,,
46370,set_tempo,5,1,0,,,,,,,1071429,,,,,,,
46380,set_tempo,10,1,0,,,,,,,1090909,,,,,,,
46385,set_tempo,5,1,0,,,,,,,1111111,,,,,,,
46395,set_tempo,10,1,0,,,,,,,1132075,,,,,,,
46400,set_tempo,5,1,0,,,,,,,1153846,,,,,,,
46410,set_tempo,10,1,0,,,,,,,1176471,,,,,,,
46415,set_tempo,5,1,0,,,,,,,1200000,,,,,,,
46425,set_tempo,10,1,0,,,,,,,1224490,,,,,,,
46430,set_tempo,5,1,0,,,,,,,1250000,,,,,,,
46440,set_tempo,10,1,0,,,,,,,1276596,,,,,,,
54000,set_tempo,7560,1,0,,,,,,,428571,,,,,,,
54240,set_tempo,240,1,0,,,,,,,413793,,,,,,,
54480,set_tempo,240,1,0,,,,,,,405405,,,,,,,
54720,set_tempo,240,1,0,,,,,,,394737,,,,,,,
55197,set_tempo,477,1,0,,,,,,,389610,,,,,,,
55200,set_tempo,3,1,0,,,,,,,384615,,,,,,,
55201,set_tempo,1,1,0,,,,,,,382166,,,,,,,
55680,set_tempo,479,1,0,,,,,,,370370,,,,,,,
55681,set_tempo,1,1,0,,,,,,,368098,,,,,,,
56157,set_tempo,476,1,0,,,,,,,370370,,,,,,,
56160,set_tempo,3,1,0,,,,,,,368098,,,,,,,
56161,set_tempo,1,1,0,,,,,,,359281,,,,,,,
56637,set_tempo,476,1,0,,,,,,,350877,,,,,,,
56875,set_tempo,238,1,0,,,,,,,342857,,,,,,,
56877,set_tempo,2,1,0,,,,,,,340909,,,,,,,
57121,set_tempo,244,1,0,,,,,,,329670,,,,,,,
57360,set_tempo,239,1,0,,,,,,,324324,,,,,,,
57361,set_tempo,1,1,0,,,,,,,320856,,,,,,,
58080,set_tempo,719,1,0,,,,,,,333333,,,,,,,
58320,set_tempo,240,1,0,,,,,,,348837,,,,,,,
58561,set_tempo,241,1,0,,,,,,,359281,,,,,,,
58797,set_tempo,236,1,0,,,,,,,375000,,,,,,,
59010,set_tempo,213,1,0,,,,,,,389610,,,,,,,
59010,end_of_track,0,1,0,,,,,,,,,,,,,,
