,note,step,duration,channel,velocity
0,71.0,0,192,1.0,72.0
1,68.0,0,192,1.0,72.0
2,62.0,0,192,1.0,72.0
3,71.0,0,192,0.0,72.0
4,64.0,240,96,1.0,72.0
5,72.0,0,96,0.0,72.0
6,72.0,0,96,1.0,72.0
7,52.0,0,384,1.0,72.0
8,71.0,0,96,0.0,72.0
9,71.0,0,96,1.0,72.0
10,62.0,120,96,1.0,72.0
11,60.0,0,192,1.0,72.0
12,57.0,0,192,1.0,72.0
13,69.0,120,192,1.0,72.0
14,69.0,0,192,0.0,72.0
15,65.0,0,192,1.0,72.0
16,50.0,0,192,1.0,72.0
17,62.0,0,192,1.0,72.0
18,71.0,0,192,1.0,72.0
19,71.0,240,192,0.0,72.0
20,64.0,0,192,0.0,72.0
21,62.0,0,192,1.0,72.0
22,56.0,0,192,1.0,72.0
23,64.0,240,192,1.0,72.0
24,66.0,0,96,1.0,81.0
25,57.0,0,96,1.0,81.0
26,66.0,240,96,0.0,81.0
27,62.0,0,96,1.0,81.0
28,52.0,0,384,1.0,72.0
29,59.0,0,96,1.0,81.0
30,62.0,0,96,1.0,81.0
31,68.0,0,96,1.0,81.0
32,68.0,120,96,0.0,81.0
33,45.0,0,192,1.0,92.0
34,64.0,120,192,1.0,92.0
35,69.0,0,192,1.0,92.0
36,60.0,0,192,1.0,92.0
37,69.0,0,192,0.0,92.0
38,72.0,0,192,0.0,92.0
39,72.0,0,192,1.0,92.0
40,69.0,240,192,1.0,92.0
41,57.0,0,192,1.0,92.0
42,64.0,0,192,1.0,92.0
43,74.0,0,192,0.0,105.0
44,65.0,0,192,1.0,105.0
45,50.0,0,192,1.0,105.0
46,74.0,240,192,1.0,105.0
47,69.0,0,192,1.0,105.0
48,72.0,0,96,0.0,105.0
49,68.0,240,96,1.0,105.0
50,72.0,0,96,1.0,105.0
51,64.0,0,96,1.0,105.0
52,52.0,0,192,1.0,105.0
53,71.0,0,96,1.0,105.0
54,71.0,0,96,0.0,105.0
55,62.0,120,96,1.0,105.0
56,72.0,0,192,0.0,105.0
57,69.0,120,192,1.0,105.0
58,64.0,0,192,1.0,105.0
59,45.0,0,192,1.0,105.0
60,72.0,0,192,1.0,105.0
61,69.0,0,192,1.0,105.0
62,60.0,0,192,1.0,105.0
63,64.0,240,192,1.0,105.0
64,57.0,0,192,1.0,105.0
65,69.0,0,192,0.0,105.0
66,74.0,0,192,0.0,72.0
67,65.0,0,192,1.0,72.0
68,50.0,240,192,1.0,72.0
69,69.0,0,192,1.0,72.0
70,74.0,0,192,1.0,72.0
71,72.0,0,96,0.0,72.0
72,68.0,240,96,1.0,72.0
73,64.0,0,96,1.0,72.0
74,72.0,0,96,1.0,72.0
75,52.0,0,192,1.0,72.0
76,71.0,0,96,1.0,72.0
77,62.0,0,96,1.0,72.0
78,71.0,120,96,0.0,72.0
79,45.0,0,192,1.0,72.0
80,64.0,0,192,1.0,72.0
81,72.0,0,192,1.0,72.0
82,72.0,120,192,0.0,72.0
83,69.0,240,192,0.0,72.0
84,57.0,0,192,1.0,72.0
85,69.0,0,192,1.0,72.0
86,60.0,0,192,1.0,72.0
87,68.0,240,192,1.0,72.0
88,71.0,0,192,0.0,72.0
89,62.0,0,192,1.0,72.0
90,71.0,0,192,1.0,72.0
91,72.0,240,96,0.0,72.0
92,64.0,0,96,1.0,72.0
93,72.0,0,96,1.0,72.0
94,52.0,0,384,1.0,72.0
95,62.0,0,96,1.0,72.0
96,71.0,0,96,1.0,72.0
97,71.0,120,96,0.0,72.0
98,65.0,0,192,1.0,72.0
99,53.0,0,192,1.0,72.0
100,60.0,0,192,1.0,72.0
101,69.0,0,192,1.0,72.0
102,69.0,120,192,0.0,72.0
103,71.0,0,192,0.0,72.0
104,62.0,0,192,1.0,72.0
105,50.0,240,192,1.0,72.0
106,65.0,0,192,1.0,72.0
107,71.0,0,192,1.0,72.0
108,62.0,0,192,1.0,72.0
109,64.0,0,192,1.0,72.0
110,56.0,0,192,1.0,72.0
111,64.0,240,192,0.0,72.0
112,57.0,0,96,1.0,81.0
113,66.0,240,96,1.0,81.0
114,62.0,0,96,1.0,81.0
115,66.0,0,96,0.0,81.0
116,52.0,0,384,1.0,72.0
117,68.0,120,96,0.0,81.0
118,68.0,0,96,1.0,81.0
119,62.0,0,96,1.0,81.0
120,59.0,0,96,1.0,81.0
121,60.0,120,192,1.0,92.0
122,69.0,0,192,1.0,92.0
123,64.0,0,192,1.0,92.0
124,57.0,0,192,1.0,92.0
125,69.0,0,192,0.0,92.0
126,69.0,0,192,1.0,92.0
127,53.0,0,192,1.0,92.0
128,72.0,240,192,1.0,92.0
129,65.0,0,192,1.0,92.0
130,72.0,0,192,0.0,92.0
131,50.0,0,192,1.0,81.0
132,71.0,240,192,1.0,81.0
133,71.0,0,192,0.0,81.0
134,62.0,0,192,1.0,81.0
135,65.0,0,192,1.0,81.0
136,69.0,0,96,1.0,81.0
137,64.0,0,96,1.0,81.0
138,60.0,0,96,1.0,81.0
139,69.0,0,96,0.0,81.0
140,52.0,240,192,1.0,81.0
141,68.0,0,96,0.0,81.0
142,59.0,0,96,1.0,81.0
143,68.0,0,96,1.0,81.0
144,64.0,120,96,1.0,81.0
145,45.0,120,192,1.0,81.0
146,60.0,0,192,1.0,81.0
147,69.0,0,192,0.0,81.0
148,69.0,0,192,1.0,81.0
149,64.0,0,192,1.0,81.0
150,72.0,240,192,0.0,81.0
151,69.0,0,192,1.0,81.0
152,64.0,0,192,1.0,81.0
153,52.0,0,192,1.0,81.0
154,72.0,0,192,1.0,81.0
155,71.0,0,192,0.0,72.0
156,40.0,0,192,1.0,72.0
157,71.0,0,192,1.0,72.0
158,64.0,0,192,1.0,72.0
159,62.0,240,192,1.0,72.0
160,60.0,0,96,1.0,72.0
161,69.0,0,96,1.0,72.0
162,69.0,240,96,0.0,72.0
163,64.0,0,96,1.0,72.0
164,52.0,0,192,1.0,72.0
165,59.0,0,96,1.0,72.0
166,64.0,0,96,1.0,72.0
167,68.0,0,96,1.0,72.0
168,68.0,120,96,0.0,72.0
169,40.0,0,192,1.0,72.0
170,71.0,120,192,0.0,72.0
171,64.0,0,192,1.0,72.0
172,62.0,0,192,1.0,72.0
173,71.0,0,192,1.0,72.0
174,45.0,0,192,1.0,72.0
175,69.0,0,192,1.0,72.0
176,69.0,240,192,0.0,72.0
177,64.0,0,192,1.0,72.0
178,60.0,0,192,1.0,72.0
179,68.0,0,192,1.0,72.0
180,62.0,240,192,1.0,72.0
181,71.0,0,192,1.0,72.0
182,71.0,0,192,0.0,72.0
183,72.0,0,96,1.0,72.0
184,64.0,0,96,1.0,72.0
185,72.0,240,96,0.0,72.0
186,52.0,0,384,1.0,72.0
187,62.0,0,96,1.0,72.0
188,71.0,0,96,0.0,72.0
189,71.0,120,96,1.0,72.0
190,57.0,0,192,1.0,72.0
191,69.0,0,192,1.0,72.0
192,60.0,0,192,1.0,72.0
193,69.0,120,192,0.0,72.0
194,71.0,0,192,0.0,72.0
195,65.0,0,192,1.0,72.0
196,50.0,240,192,1.0,72.0
197,62.0,0,192,1.0,72.0
198,71.0,0,192,1.0,72.0
199,64.0,0,192,1.0,72.0
200,56.0,0,192,1.0,72.0
201,64.0,0,192,0.0,72.0
202,62.0,0,192,1.0,72.0
203,66.0,0,96,1.0,81.0
204,57.0,0,96,1.0,81.0
205,62.0,0,96,1.0,81.0
206,66.0,240,96,0.0,81.0
207,52.0,240,384,1.0,72.0
208,68.0,0,96,1.0,81.0
209,68.0,120,96,0.0,81.0
210,62.0,0,96,1.0,81.0
211,59.0,0,96,1.0,81.0
212,60.0,0,192,1.0,92.0
213,69.0,120,192,1.0,92.0
214,64.0,0,192,1.0,92.0
215,45.0,0,192,1.0,92.0
216,69.0,0,192,0.0,92.0
217,69.0,0,192,1.0,92.0
218,57.0,240,192,1.0,92.0
219,72.0,0,192,1.0,92.0
220,64.0,0,192,1.0,92.0
221,72.0,0,192,0.0,92.0
222,74.0,0,192,1.0,105.0
223,50.0,240,192,1.0,105.0
224,69.0,0,192,1.0,105.0
225,74.0,0,192,0.0,105.0
226,65.0,0,192,1.0,105.0
227,64.0,0,96,1.0,105.0
228,72.0,0,96,1.0,105.0
229,72.0,0,96,0.0,105.0
230,68.0,240,96,1.0,105.0
231,52.0,0,192,1.0,105.0
232,71.0,0,96,0.0,105.0
233,62.0,120,96,1.0,105.0
234,71.0,0,96,1.0,105.0
235,72.0,0,192,0.0,105.0
236,64.0,0,192,1.0,105.0
237,72.0,0,192,1.0,105.0
238,69.0,0,192,1.0,105.0
239,45.0,120,192,1.0,105.0
240,64.0,0,192,1.0,105.0
241,57.0,0,192,1.0,105.0
242,60.0,240,192,1.0,105.0
243,69.0,0,192,1.0,105.0
244,69.0,0,192,0.0,105.0
245,74.0,0,192,0.0,72.0
246,65.0,0,192,1.0,72.0
247,50.0,240,192,1.0,72.0
248,74.0,0,192,1.0,72.0
249,69.0,0,192,1.0,72.0
250,72.0,0,96,0.0,72.0
251,72.0,0,96,1.0,72.0
252,68.0,0,96,1.0,72.0
253,64.0,0,96,1.0,72.0
254,52.0,240,192,1.0,72.0
255,71.0,120,96,0.0,72.0
256,62.0,0,96,1.0,72.0
257,71.0,0,96,1.0,72.0
258,72.0,0,192,1.0,72.0
259,72.0,0,192,0.0,72.0
260,45.0,120,192,1.0,72.0
261,64.0,0,192,1.0,72.0
262,60.0,0,192,1.0,72.0
263,69.0,0,192,1.0,72.0
264,57.0,240,192,1.0,72.0
265,69.0,0,192,0.0,72.0
266,62.0,0,192,1.0,72.0
267,71.0,240,192,0.0,72.0
268,68.0,0,192,1.0,72.0
269,71.0,0,192,1.0,72.0
270,72.0,240,96,1.0,72.0
271,64.0,0,96,1.0,72.0
272,72.0,0,96,0.0,72.0
273,52.0,0,384,1.0,72.0
274,62.0,0,96,1.0,72.0
275,71.0,120,96,0.0,72.0
276,71.0,0,96,1.0,72.0
277,69.0,0,192,1.0,72.0
278,69.0,120,192,0.0,72.0
279,53.0,0,192,1.0,72.0
280,65.0,0,192,1.0,72.0
281,60.0,0,192,1.0,72.0
282,71.0,0,192,0.0,72.0
283,65.0,0,192,1.0,72.0
284,50.0,0,192,1.0,72.0
285,62.0,0,192,1.0,72.0
286,71.0,240,192,1.0,72.0
287,62.0,0,192,1.0,72.0
288,64.0,0,192,1.0,72.0
289,56.0,240,192,1.0,72.0
290,64.0,0,192,0.0,72.0
291,57.0,0,96,1.0,81.0
292,66.0,0,96,0.0,81.0
293,62.0,240,96,1.0,81.0
294,66.0,0,96,1.0,81.0
295,52.0,0,384,1.0,72.0
296,68.0,0,96,0.0,81.0
297,62.0,120,96,1.0,81.0
298,59.0,0,96,1.0,81.0
299,68.0,0,96,1.0,81.0
300,64.0,0,192,1.0,92.0
301,69.0,0,192,1.0,92.0
302,60.0,0,192,1.0,92.0
303,69.0,120,192,0.0,92.0
304,57.0,0,192,1.0,92.0
305,65.0,0,192,1.0,92.0
306,72.0,0,192,1.0,92.0
307,69.0,240,192,1.0,92.0
308,53.0,0,192,1.0,92.0
309,72.0,0,192,0.0,92.0
310,65.0,0,192,1.0,81.0
311,62.0,0,192,1.0,81.0
312,71.0,0,192,1.0,81.0
313,50.0,0,192,1.0,81.0
314,71.0,240,192,0.0,81.0
315,64.0,0,96,1.0,81.0
316,69.0,240,96,1.0,81.0
317,60.0,0,96,1.0,81.0
318,69.0,0,96,0.0,81.0
319,52.0,0,192,1.0,81.0
320,64.0,0,96,1.0,81.0
321,68.0,0,96,0.0,81.0
322,59.0,0,96,1.0,81.0
323,68.0,120,96,1.0,81.0
324,45.0,0,192,1.0,81.0
325,69.0,0,192,1.0,81.0
326,60.0,120,192,1.0,81.0
327,69.0,0,192,0.0,81.0
328,64.0,0,192,1.0,81.0
329,72.0,0,192,1.0,81.0
330,69.0,240,192,1.0,81.0
331,52.0,0,192,1.0,81.0
332,72.0,0,192,0.0,81.0
333,64.0,0,192,1.0,81.0
334,40.0,0,192,1.0,72.0
335,71.0,240,192,1.0,72.0
336,64.0,0,192,1.0,72.0
337,62.0,0,192,1.0,72.0
338,71.0,0,192,0.0,72.0
339,69.0,0,96,0.0,72.0
340,64.0,240,96,1.0,72.0
341,69.0,0,96,1.0,72.0
342,60.0,0,96,1.0,72.0
343,52.0,0,192,1.0,72.0
344,64.0,0,96,1.0,72.0
345,59.0,0,96,1.0,72.0
346,68.0,0,96,1.0,72.0
347,68.0,120,96,0.0,72.0
348,40.0,0,192,1.0,72.0
349,71.0,120,192,1.0,72.0
350,71.0,0,192,0.0,72.0
351,64.0,0,192,1.0,72.0
352,62.0,0,192,1.0,72.0
353,45.0,0,192,1.0,72.0
354,64.0,240,192,1.0,72.0
355,60.0,0,192,1.0,72.0
356,69.0,0,192,0.0,72.0
357,69.0,0,192,1.0,72.0
