,note,step,duration,channel,velocity
0,58.0,0.0,60.0,2.0,0.0
1,65.0,0.0,60.0,2.0,0.0
2,62.0,0.0,60.0,2.0,0.0
3,70.0,0.0,60.0,2.0,0.0
4,94.0,20.0,20.0,0.0,0.0
5,98.0,20.0,20.0,0.0,0.0
6,89.0,20.0,20.0,0.0,0.0
7,63.0,20.0,60.0,2.0,0.0
8,67.0,0.0,60.0,2.0,0.0
9,94.0,20.0,20.0,0.0,0.0
10,70.0,0.0,60.0,2.0,0.0
11,91.0,20.0,20.0,0.0,0.0
12,94.0,0.0,20.0,0.0,0.0
13,58.0,0.0,15.0,2.0,0.0
14,65.0,0.0,60.0,2.0,0.0
15,70.0,0.0,60.0,2.0,0.0
16,62.0,20.0,60.0,2.0,0.0
17,89.0,20.0,20.0,0.0,0.0
18,94.0,20.0,20.0,0.0,0.0
19,86.0,0.0,20.0,0.0,0.0
20,89.0,20.0,20.0,0.0,0.0
21,82.0,20.0,20.0,0.0,0.0
22,86.0,20.0,20.0,0.0,0.0
23,58.0,20.0,60.0,2.0,0.0
24,46.0,0.0,60.0,2.0,0.0
25,82.0,20.0,20.0,0.0,0.0
26,86.0,20.0,20.0,0.0,0.0
27,77.0,0.0,20.0,0.0,0.0
28,82.0,20.0,20.0,0.0,0.0
29,63.0,0.0,60.0,2.0,0.0
30,67.0,0.0,60.0,2.0,0.0
31,70.0,0.0,60.0,2.0,0.0
32,79.0,20.0,20.0,0.0,0.0
33,82.0,20.0,20.0,0.0,0.0
34,62.0,0.0,60.0,2.0,0.0
35,70.0,0.0,60.0,2.0,0.0
36,77.0,20.0,20.0,0.0,0.0
37,65.0,0.0,60.0,2.0,0.0
38,82.0,20.0,20.0,0.0,0.0
39,74.0,20.0,20.0,0.0,0.0
40,77.0,20.0,20.0,0.0,0.0
41,70.0,20.0,20.0,0.0,0.0
42,74.0,20.0,20.0,0.0,0.0
43,53.0,20.0,60.0,2.0,0.0
44,65.0,20.0,20.0,0.0,0.0
45,41.0,0.0,60.0,2.0,0.0
46,77.0,20.0,20.0,0.0,0.0
47,72.0,0.0,20.0,0.0,0.0
48,77.0,20.0,20.0,0.0,0.0
49,60.0,0.0,60.0,2.0,0.0
50,69.0,20.0,60.0,2.0,0.0
51,65.0,0.0,60.0,2.0,0.0
52,72.0,20.0,20.0,0.0,0.0
53,84.0,0.0,20.0,0.0,0.0
54,72.0,20.0,20.0,0.0,0.0
55,60.0,0.0,60.0,2.0,0.0
56,63.0,0.0,60.0,2.0,0.0
57,67.0,0.0,60.0,2.0,0.0
58,84.0,20.0,20.0,0.0,0.0
59,79.0,20.0,20.0,0.0,0.0
60,48.0,0.0,60.0,2.0,0.0
61,84.0,20.0,20.0,0.0,0.0
62,79.0,20.0,20.0,0.0,0.0
63,91.0,20.0,20.0,0.0,0.0
64,79.0,20.0,20.0,0.0,0.0
65,53.0,20.0,180.0,2.0,0.0
66,91.0,20.0,20.0,0.0,0.0
67,84.0,20.0,20.0,0.0,0.0
68,63.0,0.0,60.0,2.0,0.0
69,67.0,0.0,60.0,2.0,0.0
70,91.0,20.0,20.0,0.0,0.0
71,84.0,20.0,20.0,0.0,0.0
72,96.0,20.0,20.0,0.0,0.0
73,65.0,0.0,60.0,2.0,0.0
74,63.0,0.0,60.0,2.0,0.0
75,60.0,0.0,15.0,2.0,0.0
76,84.0,20.0,20.0,0.0,0.0
77,96.0,20.0,20.0,0.0,0.0
78,89.0,0.0,20.0,0.0,0.0
79,96.0,20.0,20.0,0.0,0.0
80,89.0,20.0,20.0,0.0,0.0
81,101.0,20.0,20.0,0.0,0.0
82,65.0,0.0,60.0,2.0,0.0
83,62.0,0.0,60.0,2.0,0.0
84,94.0,20.0,20.0,0.0,0.0
85,98.0,20.0,20.0,0.0,0.0
86,89.0,20.0,20.0,0.0,0.0
87,70.0,0.0,15.0,2.0,0.0
88,67.0,0.0,60.0,2.0,0.0
89,63.0,0.0,60.0,2.0,0.0
90,58.0,0.0,15.0,2.0,0.0
91,94.0,20.0,20.0,0.0,0.0
92,91.0,20.0,20.0,0.0,0.0
93,94.0,20.0,20.0,0.0,0.0
94,58.0,0.0,15.0,2.0,0.0
95,62.0,0.0,60.0,2.0,0.0
96,65.0,20.0,60.0,2.0,0.0
97,70.0,0.0,15.0,2.0,0.0
98,89.0,20.0,20.0,0.0,0.0
99,94.0,20.0,20.0,0.0,0.0
100,86.0,0.0,20.0,0.0,0.0
101,89.0,20.0,20.0,0.0,0.0
102,82.0,20.0,20.0,0.0,0.0
103,86.0,20.0,20.0,0.0,0.0
104,58.0,0.0,60.0,2.0,0.0
105,46.0,0.0,60.0,2.0,0.0
106,82.0,20.0,20.0,0.0,0.0
107,86.0,20.0,20.0,0.0,0.0
108,77.0,20.0,20.0,0.0,0.0
109,63.0,20.0,60.0,2.0,0.0
110,67.0,0.0,60.0,2.0,0.0
111,70.0,0.0,60.0,2.0,0.0
112,82.0,20.0,20.0,0.0,0.0
113,79.0,20.0,20.0,0.0,0.0
114,82.0,0.0,20.0,0.0,0.0
115,70.0,0.0,60.0,2.0,0.0
116,77.0,20.0,20.0,0.0,0.0
117,65.0,0.0,60.0,2.0,0.0
118,62.0,20.0,60.0,2.0,0.0
119,82.0,20.0,20.0,0.0,0.0
120,74.0,0.0,20.0,0.0,0.0
121,77.0,20.0,20.0,0.0,0.0
122,70.0,20.0,20.0,0.0,0.0
123,74.0,20.0,20.0,0.0,0.0
124,51.0,0.0,60.0,2.0,0.0
125,67.0,20.0,20.0,0.0,0.0
126,79.0,20.0,20.0,0.0,0.0
127,72.0,20.0,20.0,0.0,0.0
128,60.0,0.0,120.0,2.0,0.0
129,67.0,0.0,120.0,2.0,0.0
130,79.0,20.0,20.0,0.0,0.0
131,72.0,20.0,20.0,0.0,0.0
132,84.0,20.0,20.0,0.0,0.0
133,79.0,20.0,20.0,0.0,0.0
134,84.0,20.0,20.0,0.0,0.0
135,79.0,20.0,15.0,0.0,0.0
136,51.0,20.0,60.0,2.0,0.0
137,84.0,20.0,20.0,0.0,0.0
138,96.0,0.0,20.0,0.0,0.0
139,86.0,20.0,20.0,0.0,0.0
140,57.0,20.0,60.0,2.0,0.0
141,66.0,0.0,60.0,2.0,0.0
142,50.0,0.0,60.0,2.0,0.0
143,98.0,20.0,20.0,0.0,0.0
144,86.0,0.0,20.0,0.0,0.0
145,78.0,0.0,60.0,1.0,0.0
146,98.0,20.0,20.0,0.0,0.0
147,62.0,0.0,60.0,1.0,0.0
148,69.0,20.0,60.0,1.0,0.0
149,86.0,20.0,20.0,0.0,0.0
150,98.0,0.0,20.0,0.0,0.0
151,86.0,20.0,20.0,0.0,0.0
152,98.0,20.0,20.0,0.0,0.0
153,86.0,20.0,20.0,0.0,0.0
154,98.0,20.0,20.0,0.0,0.0
155,86.0,20.0,20.0,0.0,0.0
156,98.0,20.0,20.0,0.0,0.0
157,62.0,0.0,60.0,1.0,0.0
158,94.0,20.0,20.0,0.0,0.0
159,65.0,0.0,60.0,1.0,0.0
160,98.0,20.0,20.0,0.0,0.0
161,89.0,0.0,20.0,0.0,0.0
162,94.0,20.0,20.0,0.0,0.0
163,58.0,0.0,15.0,1.0,0.0
164,70.0,20.0,15.0,1.0,0.0
165,67.0,0.0,60.0,1.0,0.0
166,63.0,0.0,60.0,1.0,0.0
167,91.0,20.0,20.0,0.0,0.0
168,94.0,0.0,20.0,0.0,0.0
169,89.0,20.0,20.0,0.0,0.0
170,70.0,20.0,15.0,1.0,0.0
171,65.0,0.0,60.0,1.0,0.0
172,62.0,0.0,60.0,1.0,0.0
173,58.0,0.0,60.0,1.0,0.0
174,94.0,20.0,20.0,0.0,0.0
175,86.0,0.0,20.0,0.0,0.0
176,89.0,20.0,20.0,0.0,0.0
177,82.0,20.0,20.0,0.0,0.0
178,86.0,20.0,20.0,0.0,0.0
179,58.0,0.0,60.0,2.0,0.0
180,46.0,0.0,60.0,2.0,0.0
181,82.0,20.0,20.0,0.0,0.0
182,86.0,20.0,20.0,0.0,0.0
183,77.0,20.0,20.0,0.0,0.0
184,63.0,0.0,60.0,2.0,0.0
185,67.0,0.0,60.0,2.0,0.0
186,70.0,20.0,60.0,2.0,0.0
187,82.0,20.0,20.0,0.0,0.0
188,79.0,20.0,20.0,0.0,0.0
189,82.0,0.0,20.0,0.0,0.0
190,62.0,0.0,60.0,2.0,0.0
191,77.0,20.0,20.0,0.0,0.0
192,65.0,0.0,60.0,2.0,0.0
193,70.0,0.0,60.0,2.0,0.0
194,82.0,20.0,20.0,0.0,0.0
195,74.0,20.0,20.0,0.0,0.0
196,77.0,20.0,20.0,0.0,0.0
197,70.0,20.0,20.0,0.0,0.0
198,74.0,20.0,20.0,0.0,0.0
199,65.0,20.0,20.0,0.0,0.0
200,53.0,20.0,60.0,2.0,0.0
201,41.0,0.0,60.0,2.0,0.0
202,77.0,20.0,20.0,0.0,0.0
203,72.0,0.0,20.0,0.0,0.0
204,77.0,20.0,20.0,0.0,0.0
205,69.0,0.0,60.0,2.0,0.0
206,65.0,20.0,60.0,2.0,0.0
207,72.0,20.0,20.0,0.0,0.0
208,84.0,0.0,20.0,0.0,0.0
209,67.0,0.0,60.0,2.0,0.0
210,60.0,0.0,15.0,2.0,0.0
211,72.0,20.0,20.0,0.0,0.0
212,63.0,0.0,60.0,2.0,0.0
213,84.0,20.0,20.0,0.0,0.0
214,79.0,20.0,20.0,0.0,0.0
215,48.0,20.0,60.0,2.0,0.0
216,84.0,20.0,20.0,0.0,0.0
217,79.0,20.0,20.0,0.0,0.0
218,91.0,0.0,20.0,0.0,0.0
219,53.0,0.0,180.0,2.0,0.0
220,79.0,20.0,20.0,0.0,0.0
221,91.0,20.0,20.0,0.0,0.0
222,84.0,20.0,20.0,0.0,0.0
223,91.0,20.0,20.0,0.0,0.0
224,67.0,0.0,60.0,2.0,0.0
225,84.0,20.0,20.0,0.0,0.0
226,96.0,0.0,20.0,0.0,0.0
227,84.0,20.0,20.0,0.0,0.0
228,65.0,0.0,60.0,2.0,0.0
229,60.0,20.0,15.0,2.0,0.0
230,63.0,0.0,15.0,2.0,0.0
231,96.0,20.0,20.0,0.0,0.0
232,89.0,0.0,20.0,0.0,0.0
233,96.0,20.0,20.0,0.0,0.0
234,89.0,20.0,20.0,0.0,0.0
235,101.0,20.0,20.0,0.0,0.0
236,94.0,20.0,20.0,0.0,0.0
237,65.0,0.0,60.0,2.0,0.0
238,62.0,20.0,60.0,2.0,0.0
239,98.0,20.0,20.0,0.0,0.0
240,89.0,0.0,20.0,0.0,0.0
241,58.0,0.0,15.0,2.0,0.0
242,67.0,0.0,60.0,2.0,0.0
243,63.0,0.0,60.0,2.0,0.0
244,70.0,0.0,15.0,2.0,0.0
245,94.0,20.0,20.0,0.0,0.0
246,91.0,20.0,20.0,0.0,0.0
247,94.0,20.0,20.0,0.0,0.0
248,58.0,0.0,15.0,2.0,0.0
249,62.0,20.0,60.0,2.0,0.0
250,70.0,0.0,15.0,2.0,0.0
251,65.0,0.0,60.0,2.0,0.0
252,89.0,20.0,20.0,0.0,0.0
253,94.0,20.0,20.0,0.0,0.0
254,86.0,0.0,20.0,0.0,0.0
255,89.0,20.0,20.0,0.0,0.0
256,82.0,20.0,20.0,0.0,0.0
257,86.0,20.0,20.0,0.0,0.0
258,58.0,0.0,60.0,2.0,0.0
259,46.0,0.0,60.0,2.0,0.0
260,82.0,20.0,20.0,0.0,0.0
261,86.0,20.0,20.0,0.0,0.0
262,77.0,20.0,20.0,0.0,0.0
263,63.0,0.0,60.0,2.0,0.0
264,67.0,0.0,60.0,2.0,0.0
265,82.0,20.0,20.0,0.0,0.0
266,79.0,20.0,20.0,0.0,0.0
267,82.0,0.0,20.0,0.0,0.0
268,70.0,20.0,15.0,2.0,0.0
269,65.0,0.0,60.0,2.0,0.0
270,62.0,0.0,60.0,2.0,0.0
271,77.0,20.0,20.0,0.0,0.0
272,82.0,20.0,20.0,0.0,0.0
273,74.0,20.0,20.0,0.0,0.0
274,77.0,20.0,20.0,0.0,0.0
275,70.0,20.0,20.0,0.0,0.0
276,74.0,20.0,20.0,0.0,0.0
277,52.0,20.0,60.0,2.0,0.0
278,67.0,20.0,20.0,0.0,0.0
279,79.0,20.0,20.0,0.0,0.0
280,72.0,0.0,20.0,0.0,0.0
281,67.0,0.0,120.0,2.0,0.0
282,60.0,0.0,120.0,2.0,0.0
283,79.0,20.0,20.0,0.0,0.0
284,72.0,20.0,20.0,0.0,0.0
285,84.0,20.0,20.0,0.0,0.0
286,79.0,20.0,20.0,0.0,0.0
287,84.0,20.0,20.0,0.0,0.0
288,79.0,20.0,20.0,0.0,0.0
289,48.0,20.0,60.0,2.0,0.0
290,91.0,20.0,20.0,0.0,0.0
291,84.0,20.0,20.0,0.0,0.0
292,96.0,0.0,20.0,0.0,0.0
293,53.0,20.0,60.0,2.0,0.0
294,79.0,20.0,20.0,0.0,0.0
295,91.0,20.0,20.0,0.0,0.0
296,84.0,0.0,20.0,0.0,0.0
297,69.0,20.0,60.0,2.0,0.0
298,60.0,0.0,60.0,2.0,0.0
299,91.0,20.0,20.0,0.0,0.0
300,77.0,20.0,20.0,0.0,0.0
301,89.0,0.0,20.0,0.0,0.0
302,84.0,20.0,20.0,0.0,0.0
303,89.0,20.0,20.0,0.0,0.0
304,84.0,20.0,20.0,0.0,0.0
305,96.0,20.0,20.0,0.0,0.0
306,89.0,20.0,20.0,0.0,0.0
307,101.0,20.0,20.0,0.0,0.0
308,64.0,0.0,60.0,1.0,0.0
309,96.0,20.0,20.0,0.0,0.0
310,98.0,20.0,20.0,0.0,0.0
311,96.0,0.0,20.0,0.0,0.0
312,91.0,20.0,20.0,0.0,0.0
313,70.0,20.0,15.0,1.0,0.0
314,72.0,0.0,15.0,1.0,0.0
315,60.0,0.0,60.0,1.0,0.0
316,103.0,20.0,20.0,0.0,0.0
317,91.0,20.0,20.0,0.0,0.0
318,65.0,0.0,60.0,1.0,0.0
319,69.0,0.0,60.0,1.0,0.0
320,89.0,20.0,20.0,0.0,0.0
321,74.0,0.0,60.0,1.0,0.0
322,91.0,20.0,20.0,0.0,0.0
323,89.0,20.0,20.0,0.0,0.0
324,60.0,0.0,60.0,1.0,0.0
325,72.0,20.0,60.0,1.0,0.0
326,84.0,20.0,20.0,0.0,0.0
327,69.0,0.0,60.0,1.0,0.0
328,96.0,20.0,20.0,0.0,0.0
329,84.0,0.0,20.0,0.0,0.0
330,70.0,0.0,60.0,1.0,0.0
331,74.0,0.0,60.0,1.0,0.0
332,84.0,20.0,20.0,0.0,0.0
333,64.0,20.0,60.0,1.0,0.0
334,86.0,20.0,20.0,0.0,0.0
335,84.0,0.0,20.0,0.0,0.0
336,79.0,20.0,20.0,0.0,0.0
337,60.0,0.0,60.0,1.0,0.0
338,72.0,0.0,60.0,1.0,0.0
339,70.0,0.0,60.0,1.0,0.0
340,91.0,20.0,20.0,0.0,0.0
341,79.0,20.0,20.0,0.0,0.0
342,65.0,0.0,60.0,1.0,0.0
343,69.0,0.0,60.0,1.0,0.0
344,77.0,20.0,20.0,0.0,0.0
345,79.0,20.0,20.0,0.0,0.0
346,77.0,60.0,20.0,0.0,0.0
347,60.0,20.0,60.0,1.0,0.0
348,72.0,20.0,90.0,0.0,0.0
349,52.0,0.0,60.0,2.0,0.0
350,79.0,20.0,20.0,0.0,0.0
351,84.0,20.0,20.0,0.0,0.0
352,60.0,0.0,60.0,2.0,0.0
353,67.0,0.0,60.0,2.0,0.0
354,70.0,20.0,60.0,2.0,0.0
355,86.0,20.0,20.0,0.0,0.0
356,84.0,20.0,20.0,0.0,0.0
357,79.0,0.0,20.0,0.0,0.0
358,77.0,20.0,20.0,0.0,0.0
359,69.0,0.0,60.0,2.0,0.0
360,65.0,20.0,60.0,2.0,0.0
361,60.0,0.0,60.0,2.0,0.0
362,84.0,20.0,20.0,0.0,0.0
363,89.0,0.0,20.0,0.0,0.0
364,53.0,20.0,60.0,2.0,0.0
365,91.0,20.0,20.0,0.0,0.0
366,89.0,20.0,20.0,0.0,0.0
367,86.0,0.0,20.0,0.0,0.0
368,48.0,20.0,60.0,2.0,0.0
369,84.0,20.0,20.0,0.0,0.0
370,91.0,20.0,20.0,0.0,0.0
371,96.0,0.0,20.0,0.0,0.0
372,70.0,20.0,60.0,2.0,0.0
373,98.0,20.0,20.0,0.0,0.0
374,60.0,0.0,60.0,2.0,0.0
375,64.0,0.0,60.0,2.0,0.0
376,96.0,20.0,20.0,0.0,0.0
377,91.0,0.0,20.0,0.0,0.0
378,41.0,20.0,60.0,2.0,0.0
379,89.0,20.0,20.0,0.0,0.0
380,96.0,20.0,20.0,0.0,0.0
381,101.0,0.0,20.0,0.0,0.0
382,103.0,20.0,20.0,0.0,0.0
383,65.0,0.0,60.0,2.0,0.0
384,60.0,20.0,60.0,2.0,0.0
385,69.0,0.0,60.0,2.0,0.0
386,101.0,20.0,20.0,0.0,0.0
387,98.0,0.0,20.0,0.0,0.0
388,48.0,20.0,60.0,2.0,0.0
389,96.0,20.0,20.0,0.0,0.0
390,98.0,20.0,20.0,0.0,0.0
391,96.0,0.0,20.0,0.0,0.0
392,70.0,0.0,60.0,1.0,0.0
393,72.0,0.0,60.0,1.0,0.0
394,64.0,20.0,60.0,1.0,0.0
395,91.0,20.0,20.0,0.0,0.0
396,103.0,20.0,20.0,0.0,0.0
397,91.0,0.0,20.0,0.0,0.0
398,89.0,20.0,20.0,0.0,0.0
399,69.0,0.0,60.0,1.0,0.0
400,65.0,0.0,60.0,1.0,0.0
401,74.0,0.0,60.0,1.0,0.0
402,91.0,20.0,20.0,0.0,0.0
403,89.0,20.0,20.0,0.0,0.0
404,60.0,0.0,60.0,1.0,0.0
405,69.0,0.0,60.0,1.0,0.0
406,84.0,20.0,20.0,0.0,0.0
407,72.0,0.0,60.0,1.0,0.0
408,96.0,20.0,20.0,0.0,0.0
409,74.0,0.0,60.0,1.0,0.0
410,70.0,0.0,60.0,1.0,0.0
411,64.0,0.0,60.0,1.0,0.0
412,84.0,20.0,15.0,0.0,0.0
413,86.0,20.0,20.0,0.0,0.0
414,84.0,20.0,20.0,0.0,0.0
415,79.0,20.0,20.0,0.0,0.0
416,60.0,20.0,60.0,1.0,0.0
417,72.0,0.0,60.0,1.0,0.0
418,70.0,0.0,60.0,1.0,0.0
419,91.0,20.0,20.0,0.0,0.0
420,79.0,0.0,20.0,0.0,0.0
421,65.0,60.0,60.0,1.0,0.0
422,69.0,0.0,60.0,1.0,0.0
423,77.0,20.0,20.0,0.0,0.0
424,79.0,20.0,20.0,0.0,0.0
425,77.0,0.0,20.0,0.0,0.0
426,72.0,20.0,90.0,0.0,0.0
427,60.0,20.0,60.0,1.0,0.0
428,52.0,0.0,60.0,2.0,0.0
429,84.0,20.0,20.0,0.0,0.0
430,82.0,20.0,20.0,0.0,0.0
431,60.0,20.0,60.0,2.0,0.0
432,67.0,0.0,60.0,2.0,0.0
433,70.0,0.0,60.0,2.0,0.0
434,84.0,20.0,20.0,0.0,0.0
435,82.0,20.0,20.0,0.0,0.0
436,84.0,0.0,20.0,0.0,0.0
437,94.0,20.0,20.0,0.0,0.0
438,84.0,20.0,20.0,0.0,0.0
439,82.0,20.0,20.0,0.0,0.0
440,40.0,20.0,60.0,2.0,0.0
441,84.0,20.0,20.0,0.0,0.0
442,82.0,20.0,20.0,0.0,0.0
443,84.0,0.0,20.0,0.0,0.0
444,52.0,0.0,60.0,2.0,0.0
445,72.0,20.0,20.0,0.0,0.0
446,84.0,20.0,20.0,0.0,0.0
447,82.0,20.0,20.0,0.0,0.0
448,67.0,0.0,60.0,2.0,0.0
449,84.0,20.0,20.0,0.0,0.0
450,60.0,0.0,60.0,2.0,0.0
451,70.0,20.0,60.0,2.0,0.0
452,82.0,20.0,20.0,0.0,0.0
453,84.0,0.0,20.0,0.0,0.0
454,94.0,20.0,20.0,0.0,0.0
455,84.0,20.0,20.0,0.0,0.0
456,82.0,20.0,20.0,0.0,0.0
457,52.0,20.0,60.0,2.0,0.0
458,40.0,0.0,60.0,2.0,0.0
459,84.0,20.0,20.0,0.0,0.0
460,82.0,20.0,20.0,0.0,0.0
461,84.0,0.0,20.0,0.0,0.0
462,74.0,20.0,20.0,0.0,0.0
463,41.0,0.0,60.0,2.0,0.0
464,53.0,0.0,60.0,2.0,0.0
465,86.0,20.0,20.0,0.0,0.0
466,82.0,20.0,20.0,0.0,0.0
467,62.0,20.0,60.0,2.0,0.0
468,65.0,0.0,60.0,2.0,0.0
469,86.0,20.0,20.0,0.0,0.0
470,70.0,0.0,60.0,2.0,0.0
471,82.0,20.0,20.0,0.0,0.0
472,86.0,0.0,20.0,0.0,0.0
473,40.0,0.0,60.0,2.0,0.0
474,52.0,20.0,60.0,2.0,0.0
475,94.0,20.0,20.0,0.0,0.0
476,86.0,20.0,20.0,0.0,0.0
477,82.0,0.0,20.0,0.0,0.0
478,86.0,20.0,20.0,0.0,0.0
479,53.0,0.0,60.0,2.0,0.0
480,41.0,0.0,60.0,2.0,0.0
481,82.0,20.0,20.0,0.0,0.0
482,86.0,20.0,20.0,0.0,0.0
483,74.0,20.0,20.0,0.0,0.0
484,54.0,0.0,60.0,2.0,0.0
485,42.0,0.0,60.0,2.0,0.0
486,86.0,20.0,20.0,0.0,0.0
487,82.0,20.0,20.0,0.0,0.0
488,62.0,0.0,60.0,2.0,0.0
489,70.0,20.0,60.0,2.0,0.0
490,86.0,20.0,20.0,0.0,0.0
491,82.0,20.0,20.0,0.0,0.0
492,86.0,0.0,20.0,0.0,0.0
493,94.0,20.0,20.0,0.0,0.0
494,41.0,0.0,60.0,2.0,0.0
495,53.0,0.0,60.0,2.0,0.0
496,86.0,20.0,20.0,0.0,0.0
497,82.0,20.0,20.0,0.0,0.0
498,42.0,0.0,60.0,2.0,0.0
499,86.0,20.0,20.0,0.0,0.0
500,54.0,20.0,60.0,2.0,0.0
501,82.0,20.0,20.0,0.0,0.0
502,86.0,0.0,20.0,0.0,0.0
503,82.0,20.0,20.0,0.0,0.0
504,43.0,20.0,60.0,2.0,0.0
505,55.0,0.0,60.0,2.0,0.0
506,86.0,20.0,20.0,0.0,0.0
507,82.0,0.0,20.0,0.0,0.0
508,98.0,20.0,20.0,0.0,0.0
509,70.0,0.0,120.0,2.0,0.0
510,62.0,20.0,120.0,2.0,0.0
511,86.0,20.0,20.0,0.0,0.0
512,82.0,20.0,20.0,0.0,0.0
513,96.0,20.0,20.0,0.0,0.0
514,86.0,20.0,20.0,0.0,0.0
515,82.0,0.0,20.0,0.0,0.0
516,94.0,20.0,20.0,0.0,0.0
517,43.0,0.0,60.0,2.0,0.0
518,55.0,20.0,60.0,2.0,0.0
519,86.0,20.0,20.0,0.0,0.0
520,82.0,0.0,20.0,0.0,0.0
521,44.0,0.0,60.0,2.0,0.0
522,89.0,20.0,20.0,0.0,0.0
523,56.0,20.0,60.0,2.0,0.0
524,86.0,20.0,20.0,0.0,0.0
525,82.0,0.0,20.0,0.0,0.0
526,98.0,20.0,20.0,0.0,0.0
527,62.0,0.0,120.0,2.0,0.0
528,70.0,0.0,120.0,2.0,0.0
529,86.0,20.0,20.0,0.0,0.0
530,82.0,20.0,20.0,0.0,0.0
531,96.0,20.0,20.0,0.0,0.0
532,86.0,20.0,20.0,0.0,0.0
533,82.0,20.0,20.0,0.0,0.0
534,94.0,20.0,20.0,0.0,0.0
535,56.0,0.0,60.0,2.0,0.0
536,44.0,20.0,60.0,2.0,0.0
537,86.0,20.0,20.0,0.0,0.0
538,82.0,0.0,20.0,0.0,0.0
539,77.0,20.0,20.0,0.0,0.0
540,45.0,0.0,60.0,2.0,0.0
541,57.0,20.0,60.0,2.0,0.0
542,89.0,20.0,20.0,0.0,0.0
543,86.0,0.0,20.0,0.0,0.0
544,62.0,20.0,60.0,2.0,0.0
545,65.0,0.0,60.0,2.0,0.0
546,69.0,0.0,60.0,2.0,0.0
547,89.0,20.0,20.0,0.0,0.0
548,89.0,20.0,20.0,0.0,0.0
549,101.0,0.0,20.0,0.0,0.0
550,98.0,20.0,20.0,0.0,0.0
551,56.0,0.0,60.0,2.0,0.0
552,44.0,0.0,60.0,2.0,0.0
553,101.0,20.0,20.0,0.0,0.0
554,57.0,0.0,60.0,2.0,0.0
555,45.0,20.0,60.0,2.0,0.0
556,89.0,20.0,15.0,0.0,0.0
557,86.0,20.0,20.0,0.0,0.0
558,89.0,0.0,20.0,0.0,0.0
559,77.0,20.0,20.0,0.0,0.0
560,46.0,20.0,60.0,2.0,0.0
561,58.0,0.0,60.0,2.0,0.0
562,89.0,20.0,20.0,0.0,0.0
563,86.0,0.0,20.0,0.0,0.0
564,62.0,0.0,60.0,2.0,0.0
565,89.0,20.0,20.0,0.0,0.0
566,68.0,20.0,60.0,2.0,0.0
567,65.0,0.0,60.0,2.0,0.0
568,89.0,20.0,20.0,0.0,0.0
569,101.0,0.0,20.0,0.0,0.0
570,45.0,0.0,60.0,2.0,0.0
571,98.0,20.0,20.0,0.0,0.0
572,57.0,0.0,60.0,2.0,0.0
573,101.0,20.0,20.0,0.0,0.0
574,89.0,20.0,20.0,0.0,0.0
575,46.0,20.0,60.0,2.0,0.0
576,58.0,0.0,60.0,2.0,0.0
577,89.0,20.0,20.0,0.0,0.0
578,86.0,20.0,20.0,0.0,0.0
579,89.0,0.0,20.0,0.0,0.0
580,47.0,0.0,60.0,2.0,0.0
581,77.0,20.0,20.0,0.0,0.0
582,89.0,20.0,20.0,0.0,0.0
583,86.0,20.0,20.0,0.0,0.0
584,68.0,0.0,60.0,2.0,0.0
585,65.0,0.0,60.0,2.0,0.0
586,59.0,0.0,15.0,2.0,0.0
587,89.0,20.0,15.0,0.0,0.0
588,101.0,0.0,20.0,0.0,0.0
589,96.0,20.0,20.0,0.0,0.0
590,48.0,0.0,60.0,2.0,0.0
591,101.0,20.0,20.0,0.0,0.0
592,89.0,0.0,20.0,0.0,0.0
593,89.0,20.0,20.0,0.0,0.0
594,60.0,20.0,15.0,2.0,0.0
595,65.0,0.0,60.0,2.0,0.0
596,69.0,0.0,60.0,2.0,0.0
597,84.0,20.0,20.0,0.0,0.0
598,89.0,0.0,20.0,0.0,0.0
599,77.0,20.0,20.0,0.0,0.0
600,49.0,0.0,60.0,2.0,0.0
601,89.0,20.0,20.0,0.0,0.0
602,82.0,0.0,20.0,0.0,0.0
603,70.0,20.0,60.0,2.0,0.0
604,89.0,20.0,20.0,0.0,0.0
605,61.0,20.0,15.0,2.0,0.0
606,67.0,0.0,60.0,2.0,0.0
607,77.0,20.0,20.0,0.0,0.0
608,77.0,0.0,20.0,0.0,0.0
609,70.0,20.0,20.0,0.0,0.0
610,77.0,20.0,20.0,0.0,0.0
611,65.0,20.0,20.0,0.0,0.0
612,49.0,0.0,60.0,2.0,0.0
613,65.0,20.0,20.0,0.0,0.0
614,37.0,20.0,60.0,2.0,0.0
615,58.0,20.0,20.0,0.0,0.0
616,65.0,0.0,20.0,0.0,0.0
617,55.0,20.0,20.0,0.0,0.0
618,48.0,0.0,240.0,2.0,0.0
619,36.0,20.0,240.0,2.0,0.0
620,58.0,20.0,20.0,0.0,0.0
621,65.0,20.0,20.0,0.0,0.0
622,67.0,20.0,20.0,0.0,0.0
623,58.0,20.0,20.0,0.0,0.0
624,65.0,20.0,20.0,0.0,0.0
625,67.0,20.0,20.0,0.0,0.0
626,70.0,20.0,20.0,0.0,0.0
627,65.0,20.0,20.0,0.0,0.0
628,67.0,20.0,20.0,0.0,0.0
629,70.0,20.0,20.0,0.0,0.0
630,77.0,0.0,20.0,0.0,0.0
631,67.0,20.0,20.0,0.0,0.0
632,70.0,20.0,20.0,0.0,0.0
633,77.0,20.0,20.0,0.0,0.0
634,79.0,20.0,20.0,0.0,0.0
635,70.0,20.0,20.0,0.0,0.0
636,77.0,20.0,20.0,0.0,0.0
637,60.0,0.0,90.0,2.0,0.0
638,70.0,10.0,90.0,2.0,0.0
639,79.0,20.0,20.0,0.0,0.0
640,65.0,0.0,90.0,2.0,0.0
641,82.0,20.0,20.0,0.0,0.0
642,77.0,20.0,20.0,0.0,0.0
643,79.0,10.0,20.0,0.0,0.0
644,89.0,20.0,20.0,0.0,0.0
645,82.0,0.0,20.0,0.0,0.0
646,60.0,0.0,15.0,2.0,0.0
647,65.0,20.0,15.0,2.0,0.0
648,70.0,0.0,15.0,2.0,0.0
649,79.0,20.0,20.0,0.0,0.0
650,82.0,20.0,20.0,0.0,0.0
651,91.0,20.0,20.0,0.0,0.0
652,89.0,20.0,20.0,0.0,0.0
653,82.0,20.0,20.0,0.0,0.0
654,79.0,20.0,20.0,0.0,0.0
655,89.0,20.0,20.0,0.0,0.0
656,82.0,20.0,20.0,0.0,0.0
657,79.0,20.0,20.0,0.0,0.0
658,77.0,20.0,20.0,0.0,0.0
659,82.0,20.0,20.0,0.0,0.0
660,79.0,0.0,20.0,0.0,0.0
661,77.0,20.0,20.0,0.0,0.0
662,70.0,20.0,20.0,0.0,0.0
663,79.0,20.0,20.0,0.0,0.0
664,77.0,20.0,20.0,0.0,0.0
665,70.0,20.0,20.0,0.0,0.0
666,67.0,20.0,20.0,0.0,0.0
667,77.0,20.0,20.0,0.0,0.0
668,70.0,20.0,20.0,0.0,0.0
669,67.0,20.0,20.0,0.0,0.0
670,65.0,20.0,20.0,0.0,0.0
671,70.0,20.0,20.0,0.0,0.0
672,67.0,20.0,20.0,0.0,0.0
673,60.0,20.0,20.0,0.0,0.0
674,48.0,0.0,240.0,2.0,0.0
675,36.0,20.0,240.0,2.0,0.0
676,67.0,20.0,20.0,0.0,0.0
677,70.0,20.0,20.0,0.0,0.0
678,72.0,20.0,20.0,0.0,0.0
679,67.0,20.0,20.0,0.0,0.0
680,70.0,20.0,20.0,0.0,0.0
681,72.0,20.0,20.0,0.0,0.0
682,79.0,20.0,20.0,0.0,0.0
683,70.0,20.0,20.0,0.0,0.0
684,72.0,20.0,20.0,0.0,0.0
685,79.0,20.0,20.0,0.0,0.0
686,82.0,0.0,20.0,0.0,0.0
687,72.0,20.0,20.0,0.0,0.0
688,79.0,20.0,20.0,0.0,0.0
689,82.0,20.0,20.0,0.0,0.0
690,84.0,20.0,20.0,0.0,0.0
691,79.0,20.0,20.0,0.0,0.0
692,82.0,20.0,20.0,0.0,0.0
693,84.0,20.0,20.0,0.0,0.0
694,91.0,20.0,20.0,0.0,0.0
695,82.0,20.0,20.0,0.0,0.0
696,84.0,10.0,20.0,0.0,0.0
697,94.0,20.0,20.0,0.0,0.0
698,63.0,0.0,15.0,1.0,0.0
699,60.0,0.0,15.0,1.0,0.0
700,72.0,10.0,15.0,1.0,0.0
701,70.0,0.0,15.0,1.0,0.0
702,91.0,0.0,20.0,0.0,0.0
703,60.0,0.0,240.0,1.0,0.0
704,63.0,20.0,240.0,1.0,0.0
705,72.0,0.0,240.0,1.0,0.0
706,70.0,20.0,15.0,1.0,0.0
707,84.0,20.0,20.0,0.0,0.0
708,82.0,20.0,20.0,0.0,0.0
709,91.0,20.0,20.0,0.0,0.0
710,84.0,20.0,20.0,0.0,0.0
711,82.0,20.0,20.0,0.0,0.0
712,79.0,20.0,20.0,0.0,0.0
713,84.0,20.0,20.0,0.0,0.0
714,82.0,20.0,20.0,0.0,0.0
715,79.0,20.0,20.0,0.0,0.0
716,72.0,20.0,20.0,0.0,0.0
717,82.0,20.0,20.0,0.0,0.0
718,79.0,0.0,20.0,0.0,0.0
719,72.0,20.0,20.0,0.0,0.0
720,70.0,20.0,20.0,0.0,0.0
721,79.0,20.0,20.0,0.0,0.0
722,72.0,20.0,20.0,0.0,0.0
723,70.0,20.0,20.0,0.0,0.0
724,67.0,20.0,20.0,0.0,0.0
725,72.0,20.0,20.0,0.0,0.0
726,70.0,20.0,20.0,0.0,0.0
727,67.0,20.0,20.0,0.0,0.0
728,60.0,20.0,20.0,0.0,0.0
729,70.0,20.0,20.0,0.0,0.0
730,67.0,20.0,20.0,0.0,0.0
731,41.0,20.0,60.0,2.0,0.0
732,65.0,20.0,20.0,0.0,0.0
733,77.0,20.0,20.0,0.0,0.0
734,72.0,0.0,20.0,0.0,0.0
735,77.0,20.0,20.0,0.0,0.0
736,69.0,20.0,20.0,0.0,0.0
737,84.0,20.0,20.0,0.0,0.0
738,77.0,20.0,20.0,0.0,0.0
739,69.0,0.0,240.0,2.0,0.0
740,60.0,0.0,240.0,2.0,0.0
741,84.0,20.0,20.0,0.0,0.0
742,72.0,20.0,20.0,0.0,0.0
743,77.0,20.0,20.0,0.0,0.0
744,72.0,20.0,20.0,0.0,0.0
745,77.0,20.0,20.0,0.0,0.0
746,65.0,20.0,20.0,0.0,0.0
747,77.0,20.0,20.0,0.0,0.0
748,72.0,20.0,20.0,0.0,0.0
749,77.0,20.0,20.0,0.0,0.0
750,72.0,20.0,20.0,0.0,0.0
751,84.0,20.0,20.0,0.0,0.0
752,68.0,10.0,90.0,2.0,0.0
753,59.0,0.0,90.0,2.0,0.0
754,77.0,20.0,20.0,0.0,0.0
755,84.0,20.0,20.0,0.0,0.0
756,72.0,20.0,20.0,0.0,0.0
757,77.0,10.0,20.0,0.0,0.0
758,72.0,20.0,20.0,0.0,0.0
759,69.0,0.0,30.0,2.0,0.0
760,60.0,0.0,30.0,2.0,0.0
761,77.0,20.0,20.0,0.0,0.0
762,65.0,20.0,20.0,0.0,0.0
763,53.0,0.0,60.0,2.0,0.0
764,77.0,20.0,20.0,0.0,0.0
765,72.0,20.0,20.0,0.0,0.0
766,77.0,20.0,20.0,0.0,0.0
767,77.0,20.0,20.0,0.0,0.0
768,89.0,20.0,20.0,0.0,0.0
769,84.0,20.0,20.0,0.0,0.0
770,60.0,0.0,240.0,2.0,0.0
771,69.0,0.0,240.0,2.0,0.0
772,89.0,20.0,20.0,0.0,0.0
773,77.0,20.0,20.0,0.0,0.0
774,77.0,20.0,20.0,0.0,0.0
775,72.0,20.0,20.0,0.0,0.0
776,77.0,20.0,20.0,0.0,0.0
777,72.0,20.0,20.0,0.0,0.0
778,84.0,20.0,20.0,0.0,0.0
779,77.0,20.0,20.0,0.0,0.0
780,84.0,20.0,20.0,0.0,0.0
781,84.0,20.0,20.0,0.0,0.0
782,96.0,20.0,20.0,0.0,0.0
783,59.0,10.0,90.0,2.0,0.0
784,89.0,20.0,20.0,0.0,0.0
785,68.0,0.0,90.0,2.0,0.0
786,96.0,20.0,20.0,0.0,0.0
787,84.0,20.0,15.0,0.0,0.0
788,77.0,20.0,20.0,0.0,0.0
789,60.0,0.0,30.0,2.0,0.0
790,69.0,0.0,30.0,2.0,0.0
791,84.0,20.0,20.0,0.0,0.0
792,57.0,0.0,60.0,2.0,0.0
793,77.0,20.0,20.0,0.0,0.0
794,79.0,20.0,20.0,0.0,0.0
795,77.0,20.0,20.0,0.0,0.0
796,69.0,0.0,60.0,1.0,0.0
797,91.0,20.0,20.0,0.0,0.0
798,60.0,20.0,60.0,1.0,0.0
799,89.0,20.0,20.0,0.0,0.0
800,103.0,0.0,20.0,0.0,0.0
801,101.0,20.0,20.0,0.0,0.0
802,70.0,0.0,60.0,1.0,0.0
803,61.0,0.0,60.0,1.0,0.0
804,65.0,0.0,15.0,1.0,0.0
805,103.0,20.0,20.0,0.0,0.0
806,101.0,20.0,20.0,0.0,0.0
807,62.0,0.0,60.0,1.0,0.0
808,89.0,20.0,20.0,0.0,0.0
809,71.0,0.0,60.0,1.0,0.0
810,91.0,20.0,20.0,0.0,0.0
811,89.0,20.0,20.0,0.0,0.0
812,72.0,0.0,120.0,1.0,0.0
813,65.0,0.0,15.0,1.0,0.0
814,63.0,0.0,120.0,1.0,0.0
815,77.0,20.0,20.0,0.0,0.0
816,79.0,20.0,20.0,0.0,0.0
817,77.0,20.0,20.0,0.0,0.0
818,91.0,20.0,20.0,0.0,0.0
819,89.0,20.0,20.0,0.0,0.0
820,103.0,20.0,20.0,0.0,0.0
821,62.0,0.0,60.0,1.0,0.0
822,71.0,0.0,60.0,1.0,0.0
823,101.0,20.0,20.0,0.0,0.0
824,103.0,20.0,20.0,0.0,0.0
825,101.0,20.0,20.0,0.0,0.0
826,70.0,0.0,60.0,1.0,0.0
827,65.0,0.0,15.0,1.0,0.0
828,61.0,20.0,60.0,1.0,0.0
829,89.0,20.0,20.0,0.0,0.0
830,91.0,20.0,20.0,0.0,0.0
831,89.0,0.0,20.0,0.0,0.0
832,101.0,20.0,20.0,0.0,0.0
833,60.0,20.0,60.0,1.0,0.0
834,65.0,0.0,60.0,1.0,0.0
835,69.0,0.0,60.0,1.0,0.0
836,103.0,20.0,20.0,0.0,0.0
837,101.0,0.0,20.0,0.0,0.0
838,89.0,20.0,20.0,0.0,0.0
839,53.0,20.0,60.0,2.0,0.0
840,91.0,20.0,20.0,0.0,0.0
841,89.0,0.0,20.0,0.0,0.0
842,65.0,0.0,120.0,1.0,0.0
843,69.0,0.0,120.0,1.0,0.0
844,72.0,20.0,60.0,1.0,0.0
845,63.0,0.0,120.0,1.0,0.0
846,101.0,20.0,20.0,0.0,0.0
847,103.0,20.0,20.0,0.0,0.0
848,101.0,0.0,20.0,0.0,0.0
849,89.0,20.0,20.0,0.0,0.0
850,74.0,0.0,60.0,1.0,0.0
851,91.0,20.0,20.0,0.0,0.0
852,89.0,20.0,20.0,0.0,0.0
853,75.0,20.0,120.0,1.0,0.0
854,69.0,20.0,240.0,1.0,0.0
855,101.0,20.0,20.0,0.0,0.0
856,63.0,0.0,240.0,1.0,0.0
857,103.0,20.0,20.0,0.0,0.0
858,101.0,20.0,20.0,0.0,0.0
859,89.0,20.0,20.0,0.0,0.0
860,91.0,20.0,20.0,0.0,0.0
861,89.0,0.0,20.0,0.0,0.0
862,101.0,20.0,20.0,0.0,0.0
863,74.0,0.0,60.0,1.0,0.0
864,103.0,20.0,20.0,0.0,0.0
865,101.0,20.0,20.0,0.0,0.0
866,89.0,20.0,20.0,0.0,0.0
867,72.0,0.0,60.0,1.0,0.0
868,91.0,20.0,20.0,0.0,0.0
869,89.0,0.0,20.0,0.0,0.0
870,65.0,0.0,15.0,1.0,0.0
871,94.0,20.0,20.0,0.0,0.0
872,62.0,0.0,60.0,1.0,0.0
873,58.0,0.0,60.0,1.0,0.0
874,70.0,0.0,60.0,1.0,0.0
875,98.0,20.0,20.0,0.0,0.0
876,89.0,20.0,20.0,0.0,0.0
877,94.0,20.0,20.0,0.0,0.0
878,63.0,0.0,60.0,1.0,0.0
879,67.0,0.0,60.0,1.0,0.0
880,91.0,20.0,20.0,0.0,0.0
881,94.0,20.0,20.0,0.0,0.0
882,58.0,0.0,15.0,1.0,0.0
883,65.0,20.0,60.0,1.0,0.0
884,62.0,0.0,60.0,1.0,0.0
885,70.0,0.0,15.0,1.0,0.0
886,89.0,20.0,20.0,0.0,0.0
887,94.0,20.0,20.0,0.0,0.0
888,86.0,0.0,20.0,0.0,0.0
889,89.0,20.0,20.0,0.0,0.0
890,82.0,20.0,20.0,0.0,0.0
891,86.0,20.0,20.0,0.0,0.0
892,58.0,0.0,60.0,2.0,0.0
893,82.0,20.0,20.0,0.0,0.0
894,46.0,0.0,60.0,2.0,0.0
895,86.0,20.0,20.0,0.0,0.0
896,77.0,20.0,20.0,0.0,0.0
897,70.0,0.0,60.0,2.0,0.0
898,67.0,0.0,60.0,2.0,0.0
899,82.0,20.0,20.0,0.0,0.0
900,63.0,20.0,60.0,2.0,0.0
901,79.0,20.0,20.0,0.0,0.0
902,82.0,0.0,20.0,0.0,0.0
903,65.0,0.0,60.0,2.0,0.0
904,62.0,0.0,60.0,2.0,0.0
905,70.0,20.0,60.0,2.0,0.0
906,77.0,20.0,20.0,0.0,0.0
907,82.0,20.0,20.0,0.0,0.0
908,74.0,0.0,20.0,0.0,0.0
909,77.0,20.0,20.0,0.0,0.0
910,70.0,20.0,20.0,0.0,0.0
911,74.0,20.0,20.0,0.0,0.0
912,65.0,20.0,20.0,0.0,0.0
913,53.0,20.0,60.0,2.0,0.0
914,41.0,0.0,60.0,2.0,0.0
915,77.0,20.0,20.0,0.0,0.0
916,72.0,0.0,20.0,0.0,0.0
917,65.0,0.0,60.0,2.0,0.0
918,69.0,0.0,60.0,2.0,0.0
919,60.0,20.0,60.0,2.0,0.0
920,77.0,20.0,20.0,0.0,0.0
921,72.0,20.0,20.0,0.0,0.0
922,84.0,0.0,20.0,0.0,0.0
923,63.0,0.0,60.0,2.0,0.0
924,72.0,20.0,20.0,0.0,0.0
925,60.0,20.0,60.0,2.0,0.0
926,67.0,0.0,60.0,2.0,0.0
927,84.0,20.0,20.0,0.0,0.0
928,79.0,0.0,20.0,0.0,0.0
929,84.0,20.0,20.0,0.0,0.0
930,48.0,20.0,60.0,2.0,0.0
931,79.0,20.0,20.0,0.0,0.0
932,91.0,0.0,20.0,0.0,0.0
933,53.0,0.0,180.0,2.0,0.0
934,79.0,20.0,20.0,0.0,0.0
935,91.0,20.0,20.0,0.0,0.0
936,84.0,20.0,20.0,0.0,0.0
937,60.0,20.0,60.0,2.0,0.0
938,91.0,20.0,20.0,0.0,0.0
939,67.0,0.0,60.0,2.0,0.0
940,84.0,20.0,20.0,0.0,0.0
941,96.0,0.0,20.0,0.0,0.0
942,65.0,0.0,60.0,2.0,0.0
943,63.0,0.0,15.0,2.0,0.0
944,84.0,20.0,20.0,0.0,0.0
945,60.0,20.0,60.0,2.0,0.0
946,96.0,20.0,20.0,0.0,0.0
947,89.0,0.0,20.0,0.0,0.0
948,96.0,20.0,20.0,0.0,0.0
949,89.0,20.0,20.0,0.0,0.0
950,101.0,20.0,20.0,0.0,0.0
951,94.0,20.0,20.0,0.0,0.0
952,65.0,0.0,60.0,2.0,0.0
953,62.0,0.0,60.0,2.0,0.0
954,98.0,20.0,20.0,0.0,0.0
955,89.0,20.0,20.0,0.0,0.0
956,70.0,0.0,15.0,2.0,0.0
957,58.0,0.0,15.0,2.0,0.0
958,63.0,0.0,60.0,2.0,0.0
959,67.0,0.0,60.0,2.0,0.0
960,94.0,20.0,20.0,0.0,0.0
961,91.0,20.0,20.0,0.0,0.0
962,94.0,0.0,20.0,0.0,0.0
963,70.0,20.0,15.0,2.0,0.0
964,65.0,0.0,60.0,2.0,0.0
965,62.0,20.0,60.0,2.0,0.0
966,58.0,0.0,60.0,2.0,0.0
967,89.0,20.0,20.0,0.0,0.0
968,94.0,20.0,20.0,0.0,0.0
969,86.0,0.0,20.0,0.0,0.0
970,89.0,20.0,20.0,0.0,0.0
971,82.0,20.0,20.0,0.0,0.0
972,86.0,20.0,20.0,0.0,0.0
973,58.0,0.0,60.0,2.0,0.0
974,82.0,20.0,20.0,0.0,0.0
975,46.0,0.0,60.0,2.0,0.0
976,86.0,20.0,20.0,0.0,0.0
977,77.0,20.0,20.0,0.0,0.0
978,67.0,0.0,60.0,2.0,0.0
979,70.0,0.0,60.0,2.0,0.0
980,63.0,0.0,60.0,2.0,0.0
981,82.0,20.0,20.0,0.0,0.0
982,79.0,20.0,20.0,0.0,0.0
983,82.0,20.0,20.0,0.0,0.0
984,70.0,0.0,60.0,2.0,0.0
985,65.0,0.0,60.0,2.0,0.0
986,77.0,20.0,20.0,0.0,0.0
987,62.0,0.0,60.0,2.0,0.0
988,82.0,20.0,20.0,0.0,0.0
989,74.0,20.0,20.0,0.0,0.0
990,77.0,20.0,20.0,0.0,0.0
991,70.0,20.0,20.0,0.0,0.0
992,74.0,20.0,20.0,0.0,0.0
993,67.0,20.0,20.0,0.0,0.0
994,51.0,20.0,60.0,2.0,0.0
995,79.0,20.0,20.0,0.0,0.0
996,72.0,0.0,20.0,0.0,0.0
997,60.0,0.0,60.0,2.0,0.0
998,79.0,20.0,20.0,0.0,0.0
999,67.0,20.0,60.0,2.0,0.0
1000,72.0,20.0,20.0,0.0,0.0
1001,84.0,0.0,20.0,0.0,0.0
1002,74.0,20.0,20.0,0.0,0.0
1003,66.0,0.0,60.0,2.0,0.0
1004,57.0,20.0,60.0,2.0,0.0
1005,62.0,0.0,60.0,2.0,0.0
1006,86.0,20.0,20.0,0.0,0.0
1007,74.0,0.0,20.0,0.0,0.0
1008,86.0,20.0,20.0,0.0,0.0
1009,50.0,20.0,60.0,2.0,0.0
1010,74.0,20.0,20.0,0.0,0.0
1011,86.0,0.0,20.0,0.0,0.0
1012,51.0,20.0,60.0,2.0,0.0
1013,79.0,20.0,20.0,0.0,0.0
1014,91.0,20.0,20.0,0.0,0.0
1015,84.0,0.0,20.0,0.0,0.0
1016,67.0,20.0,60.0,2.0,0.0
1017,60.0,0.0,60.0,2.0,0.0
1018,91.0,20.0,20.0,0.0,0.0
1019,84.0,20.0,20.0,0.0,0.0
1020,96.0,0.0,20.0,0.0,0.0
1021,86.0,20.0,20.0,0.0,0.0
1022,57.0,0.0,60.0,2.0,0.0
1023,66.0,0.0,60.0,2.0,0.0
1024,62.0,0.0,60.0,2.0,0.0
1025,98.0,20.0,20.0,0.0,0.0
1026,86.0,20.0,20.0,0.0,0.0
1027,50.0,0.0,60.0,2.0,0.0
1028,98.0,20.0,20.0,0.0,0.0
1029,86.0,20.0,20.0,0.0,0.0
1030,98.0,20.0,20.0,0.0,0.0
1031,86.0,20.0,20.0,0.0,0.0
1032,51.0,20.0,60.0,2.0,0.0
1033,98.0,20.0,20.0,0.0,0.0
1034,91.0,0.0,20.0,0.0,0.0
1035,98.0,20.0,20.0,0.0,0.0
1036,63.0,0.0,60.0,1.0,0.0
1037,67.0,0.0,60.0,1.0,0.0
1038,72.0,20.0,60.0,1.0,0.0
1039,84.0,20.0,20.0,0.0,0.0
1040,96.0,0.0,20.0,0.0,0.0
1041,84.0,20.0,20.0,0.0,0.0
1042,53.0,20.0,60.0,2.0,0.0
1043,96.0,20.0,20.0,0.0,0.0
1044,89.0,0.0,20.0,0.0,0.0
1045,65.0,0.0,60.0,1.0,0.0
1046,62.0,0.0,60.0,1.0,0.0
1047,70.0,0.0,60.0,1.0,0.0
1048,96.0,20.0,20.0,0.0,0.0
1049,82.0,20.0,20.0,0.0,0.0
1050,94.0,20.0,20.0,0.0,0.0
1051,51.0,0.0,60.0,2.0,0.0
1052,77.0,20.0,20.0,0.0,0.0
1053,89.0,20.0,20.0,0.0,0.0
1054,84.0,20.0,20.0,0.0,0.0
1055,89.0,20.0,20.0,0.0,0.0
1056,69.0,0.0,60.0,1.0,0.0
1057,65.0,20.0,60.0,1.0,0.0
1058,72.0,0.0,60.0,1.0,0.0
1059,63.0,0.0,60.0,1.0,0.0
1060,84.0,20.0,20.0,0.0,0.0
1061,96.0,0.0,20.0,0.0,0.0
1062,82.0,20.0,20.0,0.0,0.0
1063,50.0,20.0,60.0,2.0,0.0
1064,94.0,20.0,20.0,0.0,0.0
1065,89.0,0.0,20.0,0.0,0.0
1066,94.0,20.0,20.0,0.0,0.0
1067,74.0,0.0,60.0,1.0,0.0
1068,65.0,0.0,60.0,1.0,0.0
1069,70.0,0.0,60.0,1.0,0.0
1070,62.0,20.0,60.0,1.0,0.0
1071,89.0,20.0,20.0,0.0,0.0
1072,101.0,0.0,20.0,0.0,0.0
1073,86.0,20.0,20.0,0.0,0.0
1074,51.0,0.0,60.0,2.0,0.0
1075,98.0,20.0,20.0,0.0,0.0
1076,91.0,20.0,20.0,0.0,0.0
1077,72.0,0.0,60.0,1.0,0.0
1078,98.0,20.0,20.0,0.0,0.0
1079,67.0,0.0,60.0,1.0,0.0
1080,63.0,0.0,60.0,1.0,0.0
1081,84.0,20.0,20.0,0.0,0.0
1082,96.0,20.0,20.0,0.0,0.0
1083,53.0,20.0,60.0,2.0,0.0
1084,84.0,20.0,20.0,0.0,0.0
1085,96.0,20.0,20.0,0.0,0.0
1086,89.0,0.0,20.0,0.0,0.0
1087,70.0,0.0,60.0,1.0,0.0
1088,65.0,20.0,60.0,1.0,0.0
1089,96.0,20.0,20.0,0.0,0.0
1090,62.0,0.0,60.0,1.0,0.0
1091,82.0,20.0,20.0,0.0,0.0
1092,94.0,0.0,20.0,0.0,0.0
1093,77.0,20.0,20.0,0.0,0.0
1094,51.0,0.0,60.0,2.0,0.0
1095,89.0,20.0,20.0,0.0,0.0
1096,84.0,20.0,20.0,0.0,0.0
1097,89.0,20.0,20.0,0.0,0.0
1098,69.0,0.0,60.0,1.0,0.0
1099,65.0,20.0,60.0,1.0,0.0
1100,72.0,0.0,60.0,1.0,0.0
1101,63.0,0.0,60.0,1.0,0.0
1102,84.0,20.0,20.0,0.0,0.0
1103,96.0,0.0,20.0,0.0,0.0
1104,50.0,20.0,60.0,2.0,0.0
1105,82.0,20.0,20.0,0.0,0.0
1106,94.0,20.0,20.0,0.0,0.0
1107,89.0,0.0,20.0,0.0,0.0
1108,65.0,0.0,60.0,1.0,0.0
1109,94.0,20.0,20.0,0.0,0.0
1110,70.0,0.0,60.0,1.0,0.0
1111,74.0,20.0,60.0,1.0,0.0
1112,62.0,0.0,60.0,1.0,0.0
1113,89.0,20.0,20.0,0.0,0.0
1114,101.0,0.0,20.0,0.0,0.0
1115,51.0,20.0,60.0,2.0,0.0
1116,86.0,20.0,20.0,0.0,0.0
1117,98.0,20.0,20.0,0.0,0.0
1118,91.0,0.0,20.0,0.0,0.0
1119,98.0,20.0,20.0,0.0,0.0
1120,67.0,20.0,120.0,2.0,0.0
1121,72.0,0.0,120.0,2.0,0.0
1122,60.0,0.0,120.0,2.0,0.0
1123,84.0,20.0,20.0,0.0,0.0
1124,96.0,20.0,20.0,0.0,0.0
1125,86.0,20.0,20.0,0.0,0.0
1126,98.0,20.0,20.0,0.0,0.0
1127,91.0,0.0,20.0,0.0,0.0
1128,98.0,20.0,20.0,0.0,0.0
1129,51.0,0.0,60.0,2.0,0.0
1130,84.0,20.0,20.0,0.0,0.0
1131,96.0,20.0,20.0,0.0,0.0
1132,86.0,20.0,20.0,0.0,0.0
1133,52.0,20.0,60.0,2.0,0.0
1134,98.0,20.0,20.0,0.0,0.0
1135,91.0,0.0,20.0,0.0,0.0
1136,70.0,20.0,120.0,2.0,0.0
1137,60.0,0.0,120.0,2.0,0.0
1138,72.0,0.0,120.0,2.0,0.0
1139,67.0,0.0,120.0,2.0,0.0
1140,98.0,20.0,20.0,0.0,0.0
1141,84.0,20.0,20.0,0.0,0.0
1142,96.0,20.0,20.0,0.0,0.0
1143,86.0,20.0,20.0,0.0,0.0
1144,98.0,20.0,20.0,0.0,0.0
1145,91.0,0.0,20.0,0.0,0.0
1146,98.0,20.0,20.0,0.0,0.0
1147,52.0,20.0,60.0,2.0,0.0
1148,84.0,20.0,20.0,0.0,0.0
1149,96.0,0.0,20.0,0.0,0.0
1150,53.0,20.0,120.0,2.0,0.0
1151,89.0,20.0,20.0,0.0,0.0
1152,98.0,20.0,20.0,0.0,0.0
1153,84.0,20.0,20.0,0.0,0.0
1154,96.0,20.0,20.0,0.0,0.0
1155,89.0,20.0,20.0,0.0,0.0
1156,98.0,0.0,20.0,0.0,0.0
1157,65.0,0.0,120.0,1.0,0.0
1158,72.0,0.0,120.0,1.0,0.0
1159,70.0,0.0,120.0,1.0,0.0
1160,60.0,20.0,120.0,1.0,0.0
1161,84.0,20.0,20.0,0.0,0.0
1162,96.0,20.0,20.0,0.0,0.0
1163,89.0,20.0,20.0,0.0,0.0
1164,98.0,20.0,20.0,0.0,0.0
1165,84.0,20.0,20.0,0.0,0.0
1166,96.0,0.0,20.0,0.0,0.0
1167,70.0,0.0,120.0,1.0,0.0
1168,77.0,0.0,120.0,1.0,0.0
1169,72.0,0.0,120.0,1.0,0.0
1170,89.0,20.0,20.0,0.0,0.0
1171,98.0,20.0,20.0,0.0,0.0
1172,84.0,20.0,20.0,0.0,0.0
1173,96.0,20.0,20.0,0.0,0.0
1174,89.0,20.0,20.0,0.0,0.0
1175,98.0,20.0,20.0,0.0,0.0
1176,84.0,20.0,20.0,0.0,0.0
1177,96.0,20.0,20.0,0.0,0.0
1178,89.0,20.0,20.0,0.0,0.0
1179,98.0,20.0,20.0,0.0,0.0
1180,84.0,20.0,20.0,0.0,0.0
1181,96.0,20.0,20.0,0.0,0.0
1182,103.0,20.0,20.0,0.0,0.0
1183,70.0,0.0,240.0,2.0,0.0
1184,65.0,0.0,240.0,2.0,0.0
1185,41.0,0.0,60.0,2.0,0.0
1186,101.0,20.0,15.0,0.0,0.0
1187,98.0,20.0,20.0,0.0,0.0
1188,96.0,20.0,20.0,0.0,0.0
1189,94.0,20.0,20.0,0.0,0.0
1190,91.0,20.0,20.0,0.0,0.0
1191,89.0,20.0,20.0,0.0,0.0
1192,86.0,20.0,20.0,0.0,0.0
1193,84.0,20.0,20.0,0.0,0.0
1194,82.0,20.0,20.0,0.0,0.0
1195,79.0,20.0,20.0,0.0,0.0
1196,77.0,0.0,20.0,0.0,0.0
1197,63.0,0.0,240.0,2.0,0.0
1198,53.0,0.0,15.0,2.0,0.0
1199,60.0,120.0,15.0,2.0,0.0
1200,72.0,0.0,120.0,0.0,0.0
1201,70.0,0.0,120.0,0.0,0.0
1202,67.0,90.0,120.0,0.0,0.0
1203,65.0,0.0,120.0,0.0,0.0
1204,69.0,0.0,120.0,0.0,0.0
1205,74.0,30.0,90.0,0.0,0.0
1206,72.0,0.0,30.0,0.0,0.0
1207,70.0,0.0,60.0,1.0,0.0
1208,70.0,20.0,120.0,0.0,0.0
1209,62.0,60.0,60.0,1.0,0.0
1210,65.0,0.0,60.0,1.0,0.0
1211,63.0,20.0,60.0,1.0,0.0
1212,72.0,0.0,60.0,1.0,0.0
1213,96.0,20.0,20.0,0.0,0.0
1214,98.0,20.0,20.0,0.0,0.0
1215,96.0,0.0,20.0,0.0,0.0
1216,69.0,0.0,60.0,1.0,0.0
1217,89.0,20.0,20.0,0.0,0.0
1218,60.0,20.0,60.0,1.0,0.0
1219,101.0,20.0,20.0,0.0,0.0
1220,89.0,0.0,20.0,0.0,0.0
1221,89.0,20.0,20.0,0.0,0.0
1222,62.0,0.0,60.0,1.0,0.0
1223,58.0,0.0,15.0,1.0,0.0
1224,70.0,20.0,60.0,1.0,0.0
1225,91.0,20.0,20.0,0.0,0.0
1226,89.0,0.0,20.0,0.0,0.0
1227,82.0,20.0,20.0,0.0,0.0
1228,65.0,0.0,60.0,1.0,0.0
1229,94.0,20.0,20.0,0.0,0.0
1230,82.0,20.0,20.0,0.0,0.0
1231,84.0,20.0,20.0,0.0,0.0
1232,63.0,0.0,60.0,1.0,0.0
1233,72.0,60.0,60.0,1.0,0.0
1234,86.0,20.0,20.0,0.0,0.0
1235,84.0,0.0,20.0,0.0,0.0
1236,77.0,20.0,90.0,0.0,0.0
1237,60.0,0.0,60.0,1.0,0.0
1238,69.0,20.0,60.0,1.0,0.0
1239,70.0,20.0,60.0,2.0,0.0
1240,62.0,0.0,60.0,2.0,0.0
1241,58.0,0.0,60.0,2.0,0.0
1242,82.0,20.0,20.0,0.0,0.0
1243,84.0,0.0,20.0,0.0,0.0
1244,86.0,20.0,20.0,0.0,0.0
1245,84.0,20.0,20.0,0.0,0.0
1246,82.0,20.0,20.0,0.0,0.0
1247,57.0,20.0,60.0,2.0,0.0
1248,67.0,0.0,60.0,2.0,0.0
1249,63.0,0.0,60.0,2.0,0.0
1250,77.0,20.0,20.0,0.0,0.0
1251,84.0,20.0,20.0,0.0,0.0
1252,89.0,0.0,20.0,0.0,0.0
1253,53.0,20.0,60.0,2.0,0.0
1254,91.0,20.0,20.0,0.0,0.0
1255,65.0,0.0,60.0,2.0,0.0
1256,89.0,20.0,20.0,0.0,0.0
1257,84.0,0.0,20.0,0.0,0.0
1258,82.0,20.0,20.0,0.0,0.0
1259,58.0,0.0,60.0,2.0,0.0
1260,67.0,20.0,60.0,2.0,0.0
1261,62.0,0.0,60.0,2.0,0.0
1262,89.0,20.0,20.0,0.0,0.0
1263,94.0,0.0,20.0,0.0,0.0
1264,96.0,20.0,20.0,0.0,0.0
1265,65.0,0.0,60.0,2.0,0.0
1266,53.0,20.0,60.0,2.0,0.0
1267,94.0,20.0,20.0,0.0,0.0
1268,91.0,0.0,20.0,0.0,0.0
1269,63.0,20.0,60.0,2.0,0.0
1270,67.0,0.0,60.0,2.0,0.0
1271,89.0,20.0,20.0,0.0,0.0
1272,57.0,0.0,60.0,2.0,0.0
1273,96.0,20.0,20.0,0.0,0.0
1274,101.0,0.0,20.0,0.0,0.0
1275,103.0,20.0,20.0,0.0,0.0
1276,53.0,20.0,60.0,2.0,0.0
1277,65.0,0.0,60.0,2.0,0.0
1278,101.0,20.0,20.0,0.0,0.0
1279,96.0,0.0,20.0,0.0,0.0
1280,62.0,0.0,60.0,1.0,0.0
1281,94.0,20.0,20.0,0.0,0.0
1282,70.0,20.0,60.0,1.0,0.0
1283,58.0,0.0,240.0,1.0,0.0
1284,96.0,20.0,20.0,0.0,0.0
1285,94.0,0.0,20.0,0.0,0.0
1286,65.0,20.0,60.0,1.0,0.0
1287,89.0,20.0,20.0,0.0,0.0
1288,101.0,20.0,20.0,0.0,0.0
1289,89.0,0.0,20.0,0.0,0.0
1290,89.0,20.0,20.0,0.0,0.0
1291,63.0,20.0,60.0,1.0,0.0
1292,72.0,0.0,60.0,1.0,0.0
1293,91.0,20.0,20.0,0.0,0.0
1294,89.0,0.0,20.0,0.0,0.0
1295,84.0,20.0,20.0,0.0,0.0
1296,69.0,0.0,60.0,1.0,0.0
1297,60.0,20.0,60.0,1.0,0.0
1298,96.0,20.0,20.0,0.0,0.0
1299,62.0,0.0,60.0,1.0,0.0
1300,70.0,20.0,60.0,1.0,0.0
1301,58.0,20.0,240.0,1.0,0.0
1302,84.0,0.0,15.0,0.0,0.0
1303,86.0,20.0,20.0,0.0,0.0
1304,84.0,0.0,20.0,0.0,0.0
1305,82.0,20.0,20.0,0.0,0.0
1306,65.0,60.0,60.0,1.0,0.0
1307,94.0,20.0,20.0,0.0,0.0
1308,82.0,0.0,20.0,0.0,0.0
1309,77.0,20.0,150.0,0.0,0.0
1310,72.0,60.0,60.0,1.0,0.0
1311,63.0,0.0,60.0,1.0,0.0
1312,69.0,0.0,60.0,1.0,0.0
1313,60.0,0.0,60.0,1.0,0.0
1314,70.0,20.0,60.0,2.0,0.0
1315,62.0,0.0,60.0,2.0,0.0
1316,58.0,0.0,60.0,2.0,0.0
1317,82.0,20.0,20.0,0.0,0.0
1318,84.0,0.0,20.0,0.0,0.0
1319,86.0,20.0,20.0,0.0,0.0
1320,65.0,0.0,60.0,2.0,0.0
1321,84.0,20.0,20.0,0.0,0.0
1322,82.0,20.0,20.0,0.0,0.0
1323,77.0,20.0,20.0,0.0,0.0
1324,63.0,0.0,60.0,2.0,0.0
1325,57.0,20.0,60.0,2.0,0.0
1326,67.0,0.0,60.0,2.0,0.0
1327,84.0,20.0,20.0,0.0,0.0
1328,89.0,0.0,20.0,0.0,0.0
1329,91.0,20.0,20.0,0.0,0.0
1330,53.0,20.0,60.0,2.0,0.0
1331,65.0,0.0,60.0,2.0,0.0
1332,89.0,20.0,20.0,0.0,0.0
1333,84.0,0.0,20.0,0.0,0.0
1334,67.0,20.0,60.0,2.0,0.0
1335,58.0,0.0,60.0,2.0,0.0
1336,62.0,0.0,60.0,2.0,0.0
1337,82.0,20.0,20.0,0.0,0.0
1338,89.0,20.0,20.0,0.0,0.0
1339,94.0,0.0,20.0,0.0,0.0
1340,53.0,20.0,60.0,2.0,0.0
1341,65.0,0.0,60.0,2.0,0.0
1342,96.0,20.0,20.0,0.0,0.0
1343,94.0,20.0,20.0,0.0,0.0
1344,89.0,0.0,20.0,0.0,0.0
1345,63.0,0.0,60.0,2.0,0.0
1346,84.0,20.0,20.0,0.0,0.0
1347,67.0,0.0,60.0,2.0,0.0
1348,57.0,0.0,60.0,2.0,0.0
1349,89.0,20.0,20.0,0.0,0.0
1350,96.0,20.0,20.0,0.0,0.0
1351,98.0,20.0,20.0,0.0,0.0
1352,53.0,0.0,60.0,2.0,0.0
1353,65.0,20.0,60.0,2.0,0.0
1354,96.0,20.0,20.0,0.0,0.0
1355,89.0,0.0,20.0,0.0,0.0
1356,65.0,0.0,120.0,1.0,0.0
1357,58.0,20.0,120.0,1.0,0.0
1358,98.0,20.0,20.0,0.0,0.0
1359,74.0,0.0,120.0,1.0,0.0
1360,89.0,20.0,20.0,0.0,0.0
1361,96.0,20.0,20.0,0.0,0.0
1362,86.0,20.0,20.0,0.0,0.0
1363,96.0,20.0,20.0,0.0,0.0
1364,89.0,0.0,20.0,0.0,0.0
1365,94.0,20.0,20.0,0.0,0.0
1366,86.0,20.0,20.0,0.0,0.0
1367,91.0,20.0,20.0,0.0,0.0
1368,84.0,20.0,20.0,0.0,0.0
1369,69.0,20.0,60.0,2.0,0.0
1370,53.0,0.0,60.0,2.0,0.0
1371,60.0,0.0,60.0,2.0,0.0
1372,63.0,0.0,60.0,2.0,0.0
1373,89.0,20.0,20.0,0.0,0.0
1374,77.0,0.0,20.0,0.0,0.0
1375,86.0,20.0,20.0,0.0,0.0
1376,62.0,0.0,120.0,2.0,0.0
1377,58.0,0.0,120.0,2.0,0.0
1378,70.0,0.0,120.0,2.0,0.0
1379,77.0,20.0,20.0,0.0,0.0
1380,84.0,20.0,20.0,0.0,0.0
1381,74.0,20.0,20.0,0.0,0.0
1382,84.0,20.0,20.0,0.0,0.0
1383,77.0,20.0,20.0,0.0,0.0
1384,82.0,20.0,20.0,0.0,0.0
1385,74.0,20.0,20.0,0.0,0.0
1386,79.0,20.0,20.0,0.0,0.0
1387,51.0,20.0,60.0,2.0,0.0
1388,57.0,0.0,60.0,2.0,0.0
1389,41.0,0.0,60.0,2.0,0.0
1390,72.0,20.0,20.0,0.0,0.0
1391,77.0,20.0,20.0,0.0,0.0
1392,65.0,0.0,20.0,0.0,0.0
1393,50.0,0.0,120.0,2.0,0.0
1394,74.0,20.0,20.0,0.0,0.0
1395,58.0,20.0,120.0,2.0,0.0
1396,46.0,0.0,120.0,2.0,0.0
1397,65.0,20.0,20.0,0.0,0.0
1398,72.0,20.0,20.0,0.0,0.0
1399,62.0,20.0,20.0,0.0,0.0
1400,72.0,20.0,20.0,0.0,0.0
1401,65.0,0.0,20.0,0.0,0.0
1402,70.0,20.0,20.0,0.0,0.0
1403,62.0,20.0,20.0,0.0,0.0
1404,67.0,20.0,20.0,0.0,0.0
1405,41.0,20.0,60.0,2.0,0.0
1406,60.0,20.0,20.0,0.0,0.0
1407,65.0,20.0,20.0,0.0,0.0
1408,53.0,0.0,20.0,0.0,0.0
1409,62.0,20.0,20.0,0.0,0.0
1410,46.0,0.0,60.0,2.0,0.0
1411,34.0,20.0,60.0,2.0,0.0
1412,58.0,20.0,20.0,0.0,0.0
1413,67.0,0.0,20.0,0.0,0.0
1414,53.0,20.0,20.0,0.0,0.0
1415,41.0,20.0,60.0,2.0,0.0
1416,65.0,20.0,20.0,0.0,0.0
1417,60.0,0.0,20.0,0.0,0.0
1418,62.0,20.0,20.0,0.0,0.0
1419,46.0,0.0,60.0,2.0,0.0
1420,34.0,20.0,60.0,2.0,0.0
1421,58.0,20.0,20.0,0.0,0.0
1422,67.0,0.0,20.0,0.0,0.0
1423,53.0,20.0,20.0,0.0,0.0
1424,41.0,60.0,60.0,2.0,0.0
1425,65.0,20.0,20.0,0.0,0.0
1426,60.0,0.0,20.0,0.0,0.0
1427,46.0,0.0,60.0,2.0,0.0
1428,34.0,0.0,60.0,2.0,0.0
1429,62.0,20.0,60.0,0.0,0.0
1430,58.0,0.0,20.0,0.0,0.0
1431,62.0,20.0,20.0,0.0,0.0
1432,60.0,20.0,20.0,0.0,0.0
1433,58.0,20.0,20.0,0.0,0.0
1434,67.0,0.0,20.0,0.0,0.0
1435,70.0,20.0,20.0,0.0,0.0
1436,65.0,20.0,20.0,0.0,0.0
1437,62.0,20.0,20.0,0.0,0.0
1438,74.0,0.0,20.0,0.0,0.0
1439,70.0,0.0,20.0,0.0,0.0
1440,46.0,20.0,20.0,2.0,0.0
1441,67.0,0.0,20.0,0.0,0.0
1442,53.0,20.0,20.0,2.0,0.0
1443,65.0,0.0,20.0,0.0,0.0
1444,62.0,20.0,20.0,2.0,0.0
1445,74.0,20.0,20.0,0.0,0.0
1446,77.0,0.0,20.0,0.0,0.0
1447,46.0,0.0,20.0,2.0,0.0
1448,53.0,0.0,20.0,2.0,0.0
1449,72.0,20.0,20.0,0.0,0.0
1450,62.0,0.0,20.0,2.0,0.0
1451,70.0,20.0,20.0,0.0,0.0
1452,50.0,20.0,20.0,2.0,0.0
1453,79.0,0.0,20.0,0.0,0.0
1454,82.0,0.0,20.0,0.0,0.0
1455,58.0,20.0,20.0,2.0,0.0
1456,77.0,0.0,20.0,0.0,0.0
1457,74.0,0.0,20.0,0.0,0.0
1458,65.0,20.0,20.0,2.0,0.0
1459,86.0,0.0,20.0,0.0,0.0
1460,82.0,0.0,20.0,0.0,0.0
1461,53.0,20.0,20.0,2.0,0.0
1462,79.0,20.0,20.0,0.0,0.0
1463,62.0,0.0,20.0,2.0,0.0
1464,70.0,20.0,20.0,2.0,0.0
1465,77.0,0.0,20.0,0.0,0.0
1466,86.0,20.0,20.0,0.0,0.0
1467,58.0,0.0,20.0,1.0,0.0
1468,89.0,0.0,20.0,0.0,0.0
1469,65.0,20.0,20.0,1.0,0.0
1470,84.0,0.0,20.0,0.0,0.0
1471,82.0,0.0,20.0,0.0,0.0
1472,74.0,20.0,20.0,1.0,0.0
1473,91.0,20.0,20.0,0.0,0.0
1474,94.0,0.0,20.0,0.0,0.0
1475,62.0,0.0,20.0,1.0,0.0
1476,70.0,20.0,20.0,1.0,0.0
1477,89.0,0.0,20.0,0.0,0.0
1478,86.0,20.0,20.0,0.0,0.0
1479,77.0,0.0,20.0,1.0,0.0
1480,65.0,0.0,20.0,1.0,0.0
1481,94.0,20.0,20.0,0.0,0.0
1482,98.0,0.0,20.0,0.0,0.0
1483,74.0,0.0,20.0,1.0,0.0
1484,91.0,20.0,20.0,0.0,0.0
1485,89.0,0.0,20.0,0.0,0.0
1486,82.0,20.0,20.0,1.0,0.0
1487,94.0,0.0,20.0,0.0,0.0
1488,91.0,0.0,20.0,0.0,0.0
1489,70.0,20.0,20.0,1.0,0.0
1490,89.0,20.0,20.0,0.0,0.0
1491,74.0,0.0,20.0,1.0,0.0
1492,82.0,0.0,20.0,1.0,0.0
1493,86.0,20.0,20.0,0.0,0.0
1494,65.0,20.0,20.0,1.0,0.0
1495,94.0,0.0,20.0,0.0,0.0
1496,98.0,0.0,20.0,0.0,0.0
1497,91.0,0.0,20.0,0.0,0.0
1498,74.0,20.0,20.0,1.0,0.0
1499,89.0,20.0,20.0,0.0,0.0
1500,82.0,0.0,20.0,1.0,0.0
1501,91.0,0.0,20.0,0.0,0.0
1502,70.0,0.0,20.0,1.0,0.0
1503,94.0,20.0,20.0,0.0,0.0
1504,74.0,20.0,20.0,1.0,0.0
1505,89.0,0.0,20.0,0.0,0.0
1506,82.0,0.0,20.0,1.0,0.0
1507,86.0,20.0,20.0,0.0,0.0
1508,98.0,0.0,20.0,0.0,0.0
1509,94.0,0.0,20.0,0.0,0.0
1510,65.0,20.0,20.0,1.0,0.0
1511,91.0,0.0,20.0,0.0,0.0
1512,74.0,20.0,20.0,1.0,0.0
1513,82.0,20.0,20.0,1.0,0.0
1514,89.0,0.0,20.0,0.0,0.0
1515,94.0,20.0,20.0,0.0,0.0
1516,91.0,0.0,20.0,0.0,0.0
1517,70.0,0.0,20.0,1.0,0.0
1518,74.0,0.0,20.0,1.0,0.0
1519,89.0,20.0,20.0,0.0,0.0
1520,86.0,20.0,20.0,0.0,0.0
1521,82.0,0.0,20.0,1.0,0.0
1522,65.0,20.0,20.0,1.0,0.0
1523,98.0,0.0,20.0,0.0,0.0
1524,94.0,0.0,20.0,0.0,0.0
1525,74.0,20.0,20.0,1.0,0.0
1526,91.0,0.0,20.0,0.0,0.0
1527,89.0,20.0,20.0,0.0,0.0
1528,82.0,0.0,20.0,1.0,0.0
1529,86.0,0.0,20.0,0.0,0.0
1530,70.0,40.0,20.0,1.0,0.0
1531,94.0,0.0,20.0,0.0,0.0
1532,94.0,0.0,20.0,0.0,0.0
1533,58.0,5.0,20.0,2.0,0.0
1534,82.0,0.0,20.0,0.0,0.0
1535,70.0,15.0,20.0,2.0,0.0
1536,91.0,0.0,20.0,0.0,0.0
1537,79.0,0.0,20.0,0.0,0.0
1538,67.0,0.0,20.0,2.0,0.0
1539,55.0,20.0,20.0,2.0,0.0
1540,65.0,0.0,20.0,2.0,0.0
1541,89.0,0.0,20.0,0.0,0.0
1542,77.0,20.0,20.0,0.0,0.0
1543,53.0,0.0,20.0,2.0,0.0
1544,50.0,0.0,20.0,2.0,0.0
1545,62.0,0.0,20.0,2.0,0.0
1546,74.0,0.0,20.0,0.0,0.0
1547,86.0,20.0,20.0,0.0,0.0
1548,48.0,0.0,20.0,2.0,0.0
1549,60.0,20.0,20.0,2.0,0.0
1550,84.0,0.0,20.0,0.0,0.0
1551,72.0,0.0,20.0,0.0,0.0
1552,82.0,0.0,20.0,0.0,0.0
1553,70.0,0.0,20.0,0.0,0.0
1554,46.0,20.0,20.0,2.0,0.0
1555,58.0,0.0,20.0,2.0,0.0
1556,67.0,20.0,20.0,0.0,0.0
1557,79.0,0.0,20.0,0.0,0.0
1558,43.0,0.0,20.0,2.0,0.0
1559,55.0,0.0,20.0,2.0,0.0
1560,41.0,0.0,20.0,2.0,0.0
1561,65.0,0.0,20.0,0.0,0.0
1562,77.0,0.0,20.0,0.0,0.0
1563,53.0,20.0,20.0,2.0,0.0
1564,38.0,0.0,20.0,2.0,0.0
1565,74.0,20.0,20.0,0.0,0.0
1566,62.0,0.0,20.0,0.0,0.0
1567,50.0,0.0,20.0,2.0,0.0
1568,48.0,0.0,20.0,2.0,0.0
1569,36.0,0.0,20.0,2.0,0.0
1570,72.0,0.0,20.0,0.0,0.0
1571,60.0,60.0,20.0,0.0,0.0
1572,70.0,60.0,60.0,0.0,0.0
1573,58.0,0.0,60.0,0.0,0.0
1574,34.0,120.0,120.0,2.0,0.0
1575,46.0,0.0,120.0,2.0,0.0
1576,98.0,0.0,120.0,0.0,0.0
1577,94.0,0.0,120.0,0.0,0.0
1578,86.0,0.0,120.0,0.0,0.0
1579,89.0,240.0,120.0,0.0,0.0
1580,58.0,0.0,120.0,1.0,0.0
1581,65.0,0.0,120.0,1.0,0.0
1582,74.0,0.0,120.0,1.0,0.0
1583,46.0,0.0,240.0,2.0,0.0
1584,34.0,0.0,240.0,2.0,0.0
1585,58.0,0.0,240.0,0.0,0.0
