,note,step,duration,channel,velocity
0,34.0,120.0,90.0,0.0,0.0
1,46.0,0.0,90.0,0.0,0.0
2,45.0,120.0,90.0,0.0,0.0
3,33.0,0.0,90.0,0.0,0.0
4,34.0,120.0,90.0,0.0,0.0
5,46.0,0.0,90.0,0.0,0.0
6,47.0,120.0,90.0,0.0,0.0
7,35.0,0.0,90.0,0.0,0.0
8,48.0,120.0,90.0,0.0,0.0
9,36.0,0.0,90.0,0.0,0.0
10,37.0,120.0,90.0,0.0,0.0
11,49.0,0.0,90.0,0.0,0.0
12,38.0,120.0,90.0,0.0,0.0
13,50.0,0.0,90.0,0.0,0.0
14,51.0,120.0,90.0,0.0,0.0
15,39.0,0.0,90.0,0.0,0.0
16,52.0,120.0,90.0,0.0,0.0
17,40.0,0.0,90.0,0.0,0.0
18,51.0,120.0,90.0,0.0,0.0
19,39.0,0.0,90.0,0.0,0.0
20,38.0,120.0,90.0,0.0,0.0
21,50.0,0.0,90.0,0.0,0.0
22,49.0,120.0,90.0,0.0,0.0
23,37.0,0.0,90.0,0.0,0.0
24,48.0,120.0,90.0,0.0,0.0
25,36.0,0.0,90.0,0.0,0.0
26,35.0,120.0,90.0,0.0,0.0
27,47.0,0.0,90.0,0.0,0.0
28,34.0,120.0,90.0,0.0,0.0
29,46.0,0.0,90.0,0.0,0.0
30,45.0,120.0,90.0,0.0,0.0
31,33.0,0.0,90.0,0.0,0.0
32,34.0,120.0,90.0,0.0,0.0
33,46.0,0.0,90.0,0.0,0.0
34,47.0,120.0,90.0,0.0,0.0
35,35.0,0.0,90.0,0.0,0.0
36,48.0,0.0,90.0,0.0,0.0
37,36.0,120.0,90.0,0.0,0.0
38,49.0,120.0,90.0,0.0,0.0
39,37.0,0.0,90.0,0.0,0.0
40,50.0,120.0,90.0,0.0,0.0
41,38.0,0.0,90.0,0.0,0.0
42,39.0,120.0,90.0,0.0,0.0
43,51.0,0.0,90.0,0.0,0.0
44,40.0,0.0,90.0,0.0,0.0
45,52.0,120.0,90.0,0.0,0.0
46,41.0,120.0,90.0,0.0,0.0
47,53.0,0.0,90.0,0.0,0.0
48,54.0,120.0,90.0,0.0,0.0
49,42.0,0.0,90.0,0.0,0.0
50,43.0,0.0,90.0,0.0,0.0
51,55.0,120.0,90.0,0.0,0.0
52,56.0,0.0,90.0,0.0,0.0
53,44.0,120.0,90.0,0.0,0.0
54,57.0,120.0,90.0,0.0,0.0
55,45.0,0.0,90.0,0.0,0.0
56,58.0,120.0,90.0,0.0,0.0
57,46.0,0.0,90.0,0.0,0.0
58,59.0,120.0,90.0,0.0,0.0
59,47.0,0.0,90.0,0.0,0.0
60,48.0,120.0,90.0,0.0,0.0
61,60.0,0.0,90.0,0.0,0.0
62,61.0,0.0,90.0,0.0,0.0
63,49.0,120.0,90.0,0.0,0.0
64,50.0,0.0,90.0,0.0,0.0
65,62.0,120.0,90.0,0.0,0.0
66,61.0,120.0,90.0,0.0,0.0
67,49.0,0.0,90.0,0.0,0.0
68,60.0,120.0,90.0,0.0,0.0
69,48.0,0.0,90.0,0.0,0.0
70,59.0,0.0,90.0,0.0,0.0
71,47.0,120.0,90.0,0.0,0.0
72,60.0,0.0,90.0,0.0,0.0
73,48.0,120.0,90.0,0.0,0.0
74,59.0,120.0,90.0,0.0,0.0
75,47.0,0.0,90.0,0.0,0.0
76,58.0,120.0,90.0,0.0,0.0
77,46.0,0.0,90.0,0.0,0.0
78,45.0,0.0,90.0,0.0,0.0
79,57.0,120.0,90.0,0.0,0.0
80,58.0,120.0,90.0,0.0,0.0
81,46.0,0.0,90.0,0.0,0.0
82,57.0,0.0,90.0,0.0,0.0
83,45.0,120.0,90.0,0.0,0.0
84,44.0,0.0,90.0,0.0,0.0
85,56.0,120.0,90.0,0.0,0.0
86,55.0,120.0,90.0,0.0,0.0
87,43.0,0.0,90.0,0.0,0.0
88,56.0,120.0,90.0,0.0,0.0
89,44.0,0.0,90.0,0.0,0.0
90,55.0,120.0,90.0,0.0,0.0
91,43.0,0.0,90.0,0.0,0.0
92,42.0,0.0,90.0,0.0,0.0
93,54.0,120.0,90.0,0.0,0.0
94,53.0,120.0,90.0,0.0,0.0
95,41.0,0.0,90.0,0.0,0.0
96,42.0,0.0,90.0,0.0,0.0
97,54.0,120.0,90.0,0.0,0.0
98,53.0,0.0,90.0,0.0,0.0
99,41.0,120.0,90.0,0.0,0.0
100,40.0,0.0,90.0,0.0,0.0
101,52.0,120.0,90.0,0.0,0.0
102,39.0,0.0,90.0,0.0,0.0
103,51.0,120.0,90.0,0.0,0.0
104,41.0,120.0,90.0,0.0,0.0
105,53.0,0.0,90.0,0.0,0.0
106,40.0,120.0,90.0,0.0,0.0
107,52.0,0.0,90.0,0.0,0.0
108,39.0,120.0,90.0,0.0,0.0
109,51.0,0.0,90.0,0.0,0.0
110,50.0,120.0,90.0,0.0,0.0
111,38.0,0.0,90.0,0.0,0.0
112,52.0,0.0,90.0,0.0,0.0
113,40.0,120.0,90.0,0.0,0.0
114,39.0,0.0,90.0,0.0,0.0
115,51.0,120.0,90.0,0.0,0.0
116,38.0,120.0,90.0,0.0,0.0
117,50.0,0.0,90.0,0.0,0.0
118,37.0,0.0,90.0,0.0,0.0
119,49.0,120.0,90.0,0.0,0.0
120,51.0,0.0,90.0,0.0,0.0
121,39.0,120.0,90.0,0.0,0.0
122,37.0,120.0,90.0,0.0,0.0
123,49.0,0.0,90.0,0.0,0.0
124,35.0,0.0,90.0,0.0,0.0
125,47.0,120.0,90.0,0.0,0.0
126,34.0,216.0,90.0,0.0,0.0
127,46.0,0.0,90.0,0.0,0.0
128,59.0,0.0,180.0,1.0,0.0
129,59.0,144.0,180.0,0.0,0.0
130,32.0,0.0,180.0,0.0,0.0
131,32.0,96.0,90.0,0.0,0.0
132,52.0,0.0,180.0,0.0,0.0
133,59.0,240.0,180.0,1.0,0.0
134,64.0,0.0,180.0,0.0,0.0
135,58.0,240.0,180.0,1.0,0.0
136,59.0,0.0,180.0,0.0,0.0
137,56.0,0.0,180.0,1.0,0.0
138,64.0,0.0,180.0,0.0,0.0
139,52.0,240.0,180.0,0.0,0.0
140,44.0,0.0,180.0,0.0,0.0
141,58.0,0.0,180.0,1.0,0.0
142,58.0,144.0,180.0,0.0,0.0
143,61.0,0.0,180.0,0.0,0.0
144,44.0,0.0,180.0,0.0,0.0
145,58.0,240.0,180.0,1.0,0.0
146,52.0,0.0,180.0,0.0,0.0
147,44.0,96.0,90.0,0.0,0.0
148,64.0,0.0,180.0,0.0,0.0
149,61.0,0.0,180.0,0.0,0.0
150,58.0,0.0,180.0,0.0,0.0
151,58.0,240.0,180.0,1.0,0.0
152,58.0,0.0,180.0,1.0,0.0
153,52.0,0.0,180.0,0.0,0.0
154,64.0,240.0,180.0,0.0,0.0
155,44.0,0.0,180.0,0.0,0.0
156,59.0,144.0,180.0,0.0,0.0
157,59.0,0.0,180.0,1.0,0.0
158,32.0,0.0,180.0,0.0,0.0
159,32.0,96.0,90.0,0.0,0.0
160,52.0,0.0,180.0,0.0,0.0
161,59.0,240.0,180.0,1.0,0.0
162,64.0,0.0,180.0,0.0,0.0
163,58.0,240.0,180.0,1.0,0.0
164,59.0,0.0,180.0,0.0,0.0
165,56.0,0.0,180.0,1.0,0.0
166,64.0,0.0,180.0,0.0,0.0
167,52.0,240.0,180.0,0.0,0.0
168,44.0,0.0,180.0,0.0,0.0
169,61.0,0.0,180.0,0.0,0.0
170,44.0,0.0,180.0,0.0,0.0
171,58.0,48.0,390.0,1.0,0.0
172,58.0,144.0,180.0,0.0,0.0
173,52.0,0.0,180.0,0.0,0.0
174,44.0,48.0,90.0,0.0,0.0
175,64.0,240.0,180.0,0.0,0.0
176,61.0,0.0,180.0,0.0,0.0
177,58.0,48.0,390.0,1.0,0.0
178,58.0,192.0,180.0,0.0,0.0
179,32.0,0.0,180.0,0.0,0.0
180,64.0,0.0,180.0,0.0,0.0
181,52.0,240.0,180.0,0.0,0.0
182,63.0,0.0,180.0,1.0,0.0
183,58.0,240.0,180.0,0.0,0.0
184,63.0,0.0,180.0,0.0,0.0
185,61.0,0.0,180.0,0.0,0.0
186,51.0,0.0,180.0,0.0,0.0
187,31.0,0.0,180.0,0.0,0.0
188,43.0,0.0,180.0,0.0,0.0
189,63.0,240.0,180.0,1.0,0.0
190,42.0,48.0,390.0,0.0,0.0
191,68.0,192.0,180.0,1.0,0.0
192,56.0,0.0,180.0,0.0,0.0
193,68.0,240.0,180.0,1.0,0.0
194,60.0,0.0,180.0,0.0,0.0
195,63.0,0.0,180.0,0.0,0.0
196,68.0,0.0,180.0,0.0,0.0
197,41.0,48.0,390.0,0.0,0.0
198,68.0,192.0,180.0,1.0,0.0
199,61.0,0.0,180.0,0.0,0.0
200,68.0,0.0,180.0,1.0,0.0
201,68.0,240.0,180.0,0.0,0.0
202,56.0,0.0,180.0,0.0,0.0
203,56.0,192.0,180.0,1.0,0.0
204,40.0,48.0,390.0,0.0,0.0
205,59.0,240.0,180.0,0.0,0.0
206,62.0,0.0,180.0,0.0,0.0
207,58.0,0.0,180.0,1.0,0.0
208,56.0,0.0,180.0,0.0,0.0
209,39.0,48.0,870.0,0.0,0.0
210,59.0,240.0,180.0,1.0,0.0
211,63.0,0.0,180.0,0.0,0.0
212,56.0,0.0,180.0,0.0,0.0
213,59.0,0.0,180.0,0.0,0.0
214,59.0,240.0,180.0,1.0,0.0
215,51.0,0.0,390.0,0.0,0.0
216,58.0,192.0,180.0,1.0,0.0
217,63.0,432.0,180.0,1.0,0.0
218,55.0,0.0,180.0,0.0,0.0
219,58.0,0.0,180.0,0.0,0.0
220,61.0,0.0,180.0,0.0,0.0
221,52.0,0.0,390.0,0.0,0.0
222,61.0,48.0,390.0,1.0,0.0
223,61.0,240.0,180.0,0.0,0.0
224,56.0,0.0,180.0,0.0,0.0
225,59.0,192.0,180.0,1.0,0.0
226,40.0,48.0,390.0,0.0,0.0
227,59.0,240.0,180.0,0.0,0.0
228,56.0,0.0,180.0,0.0,0.0
229,63.0,0.0,180.0,1.0,0.0
230,58.0,240.0,180.0,0.0,0.0
231,61.0,0.0,180.0,0.0,0.0
232,63.0,0.0,180.0,0.0,0.0
233,43.0,0.0,180.0,0.0,0.0
234,51.0,0.0,180.0,0.0,0.0
235,63.0,240.0,180.0,1.0,0.0
236,63.0,192.0,180.0,1.0,0.0
237,42.0,48.0,390.0,0.0,0.0
238,63.0,240.0,180.0,1.0,0.0
239,63.0,0.0,180.0,0.0,0.0
240,60.0,0.0,180.0,0.0,0.0
241,56.0,0.0,180.0,0.0,0.0
242,68.0,192.0,180.0,1.0,0.0
243,41.0,48.0,390.0,0.0,0.0
244,68.0,960.0,180.0,1.0,0.0
245,61.0,0.0,180.0,0.0,0.0
246,68.0,0.0,180.0,0.0,0.0
247,56.0,0.0,180.0,0.0,0.0
248,68.0,0.0,900.0,1.0,0.0
249,40.0,480.0,900.0,0.0,0.0
250,71.0,0.0,180.0,0.0,0.0
251,68.0,0.0,180.0,0.0,0.0
252,59.0,0.0,180.0,0.0,0.0
253,62.0,240.0,180.0,1.0,0.0
254,62.0,0.0,180.0,0.0,0.0
255,63.0,0.0,180.0,1.0,0.0
256,68.0,0.0,180.0,0.0,0.0
257,59.0,0.0,180.0,0.0,0.0
258,71.0,0.0,180.0,0.0,0.0
259,63.0,240.0,180.0,0.0,0.0
260,39.0,0.0,1740.0,0.0,0.0
261,63.0,0.0,180.0,0.0,0.0
262,59.0,0.0,180.0,0.0,0.0
263,63.0,240.0,180.0,1.0,0.0
264,61.0,0.0,180.0,0.0,0.0
265,58.0,0.0,180.0,0.0,0.0
266,61.0,240.0,180.0,1.0,0.0
267,56.0,240.0,180.0,0.0,0.0
268,59.0,0.0,180.0,0.0,0.0
269,59.0,0.0,180.0,1.0,0.0
270,55.0,0.0,180.0,0.0,0.0
271,58.0,0.0,780.0,0.0,0.0
272,27.0,96.0,780.0,0.0,0.0
273,58.0,0.0,1740.0,1.0,0.0
274,51.0,240.0,180.0,0.0,0.0
275,46.0,240.0,180.0,0.0,0.0
276,50.0,96.0,180.0,0.0,0.0
277,34.0,48.0,390.0,0.0,0.0
278,53.0,0.0,180.0,0.0,0.0
279,46.0,240.0,180.0,0.0,0.0
280,39.0,48.0,390.0,0.0,0.0
281,58.0,96.0,780.0,0.0,0.0
282,51.0,192.0,180.0,0.0,0.0
283,55.0,0.0,180.0,0.0,0.0
284,46.0,240.0,180.0,0.0,0.0
285,50.0,96.0,180.0,0.0,0.0
286,34.0,192.0,390.0,0.0,0.0
287,53.0,0.0,180.0,0.0,0.0
288,46.0,0.0,1980.0,0.0,0.0
289,58.0,72.0,390.0,1.0,0.0
290,55.0,48.0,1740.0,0.0,0.0
291,39.0,120.0,90.0,0.0,0.0
292,51.0,0.0,1740.0,0.0,0.0
293,58.0,0.0,1740.0,0.0,0.0
294,38.0,120.0,90.0,0.0,0.0
295,39.0,48.0,90.0,0.0,0.0
296,38.0,120.0,90.0,0.0,0.0
297,39.0,120.0,90.0,0.0,0.0
298,38.0,120.0,90.0,0.0,0.0
299,39.0,120.0,90.0,0.0,0.0
300,38.0,120.0,90.0,0.0,0.0
301,39.0,120.0,90.0,0.0,0.0
302,38.0,120.0,90.0,0.0,0.0
303,39.0,120.0,90.0,0.0,0.0
304,38.0,120.0,90.0,0.0,0.0
305,39.0,120.0,90.0,0.0,0.0
306,37.0,72.0,90.0,0.0,0.0
307,36.0,120.0,90.0,0.0,0.0
308,35.0,120.0,90.0,0.0,0.0
309,34.0,120.0,90.0,0.0,0.0
310,46.0,0.0,90.0,0.0,0.0
311,33.0,0.0,90.0,0.0,0.0
312,45.0,120.0,90.0,0.0,0.0
313,34.0,120.0,90.0,0.0,0.0
314,46.0,0.0,90.0,0.0,0.0
315,47.0,120.0,90.0,0.0,0.0
316,35.0,0.0,90.0,0.0,0.0
317,48.0,120.0,90.0,0.0,0.0
318,36.0,0.0,90.0,0.0,0.0
319,49.0,0.0,90.0,0.0,0.0
320,37.0,120.0,90.0,0.0,0.0
321,38.0,0.0,90.0,0.0,0.0
322,50.0,120.0,90.0,0.0,0.0
323,51.0,120.0,90.0,0.0,0.0
324,39.0,0.0,90.0,0.0,0.0
325,40.0,120.0,90.0,0.0,0.0
326,52.0,0.0,90.0,0.0,0.0
327,51.0,120.0,90.0,0.0,0.0
328,39.0,0.0,90.0,0.0,0.0
329,38.0,120.0,90.0,0.0,0.0
330,50.0,0.0,90.0,0.0,0.0
331,49.0,120.0,90.0,0.0,0.0
332,37.0,0.0,90.0,0.0,0.0
333,36.0,0.0,90.0,0.0,0.0
334,48.0,120.0,90.0,0.0,0.0
335,35.0,0.0,90.0,0.0,0.0
336,47.0,120.0,90.0,0.0,0.0
337,34.0,120.0,90.0,0.0,0.0
338,46.0,0.0,90.0,0.0,0.0
339,33.0,0.0,90.0,0.0,0.0
340,45.0,120.0,90.0,0.0,0.0
341,46.0,120.0,90.0,0.0,0.0
342,34.0,0.0,90.0,0.0,0.0
343,35.0,0.0,90.0,0.0,0.0
344,47.0,120.0,90.0,0.0,0.0
345,36.0,120.0,90.0,0.0,0.0
346,48.0,0.0,90.0,0.0,0.0
347,49.0,0.0,90.0,0.0,0.0
348,37.0,120.0,90.0,0.0,0.0
349,50.0,120.0,90.0,0.0,0.0
350,38.0,0.0,90.0,0.0,0.0
351,39.0,0.0,90.0,0.0,0.0
352,51.0,120.0,90.0,0.0,0.0
353,40.0,120.0,90.0,0.0,0.0
354,52.0,0.0,90.0,0.0,0.0
355,41.0,0.0,90.0,0.0,0.0
356,53.0,120.0,90.0,0.0,0.0
357,42.0,0.0,90.0,0.0,0.0
358,54.0,120.0,90.0,0.0,0.0
359,55.0,120.0,90.0,0.0,0.0
360,43.0,0.0,90.0,0.0,0.0
361,56.0,0.0,90.0,0.0,0.0
362,44.0,120.0,90.0,0.0,0.0
363,57.0,120.0,90.0,0.0,0.0
364,45.0,0.0,90.0,0.0,0.0
365,46.0,120.0,90.0,0.0,0.0
366,58.0,0.0,90.0,0.0,0.0
367,59.0,120.0,90.0,0.0,0.0
368,47.0,0.0,90.0,0.0,0.0
369,60.0,120.0,90.0,0.0,0.0
370,48.0,0.0,90.0,0.0,0.0
371,61.0,120.0,90.0,0.0,0.0
372,49.0,0.0,90.0,0.0,0.0
373,62.0,0.0,90.0,0.0,0.0
374,50.0,120.0,90.0,0.0,0.0
375,49.0,120.0,90.0,0.0,0.0
376,61.0,0.0,90.0,0.0,0.0
377,60.0,0.0,90.0,0.0,0.0
378,48.0,120.0,90.0,0.0,0.0
379,47.0,0.0,90.0,0.0,0.0
380,59.0,120.0,90.0,0.0,0.0
381,48.0,120.0,90.0,0.0,0.0
382,60.0,0.0,90.0,0.0,0.0
383,47.0,120.0,90.0,0.0,0.0
384,59.0,0.0,90.0,0.0,0.0
385,58.0,120.0,90.0,0.0,0.0
386,46.0,0.0,90.0,0.0,0.0
387,57.0,120.0,90.0,0.0,0.0
388,45.0,0.0,90.0,0.0,0.0
389,46.0,0.0,90.0,0.0,0.0
390,58.0,120.0,90.0,0.0,0.0
391,57.0,120.0,90.0,0.0,0.0
392,45.0,0.0,90.0,0.0,0.0
393,44.0,0.0,90.0,0.0,0.0
394,56.0,120.0,90.0,0.0,0.0
395,43.0,120.0,90.0,0.0,0.0
396,55.0,0.0,90.0,0.0,0.0
397,44.0,0.0,90.0,0.0,0.0
398,56.0,120.0,90.0,0.0,0.0
399,43.0,120.0,90.0,0.0,0.0
400,55.0,0.0,90.0,0.0,0.0
401,42.0,120.0,90.0,0.0,0.0
402,54.0,0.0,90.0,0.0,0.0
403,53.0,0.0,90.0,0.0,0.0
404,41.0,120.0,90.0,0.0,0.0
405,54.0,120.0,90.0,0.0,0.0
406,42.0,0.0,90.0,0.0,0.0
407,53.0,120.0,90.0,0.0,0.0
408,41.0,0.0,90.0,0.0,0.0
409,40.0,0.0,90.0,0.0,0.0
410,52.0,120.0,90.0,0.0,0.0
411,39.0,120.0,90.0,0.0,0.0
412,51.0,0.0,90.0,0.0,0.0
413,41.0,120.0,90.0,0.0,0.0
414,53.0,0.0,90.0,0.0,0.0
415,40.0,0.0,90.0,0.0,0.0
416,52.0,120.0,90.0,0.0,0.0
417,51.0,0.0,90.0,0.0,0.0
418,39.0,120.0,90.0,0.0,0.0
419,50.0,120.0,90.0,0.0,0.0
420,38.0,0.0,90.0,0.0,0.0
421,52.0,0.0,90.0,0.0,0.0
422,40.0,120.0,90.0,0.0,0.0
423,39.0,0.0,90.0,0.0,0.0
424,51.0,120.0,90.0,0.0,0.0
425,50.0,0.0,90.0,0.0,0.0
426,38.0,120.0,90.0,0.0,0.0
427,49.0,0.0,90.0,0.0,0.0
428,37.0,120.0,90.0,0.0,0.0
429,39.0,120.0,90.0,0.0,0.0
430,51.0,0.0,90.0,0.0,0.0
431,37.0,120.0,90.0,0.0,0.0
432,49.0,0.0,90.0,0.0,0.0
433,47.0,0.0,90.0,0.0,0.0
434,35.0,120.0,90.0,0.0,0.0
435,34.0,0.0,90.0,0.0,0.0
436,46.0,216.0,90.0,0.0,0.0
437,59.0,144.0,180.0,1.0,0.0
438,59.0,0.0,180.0,0.0,0.0
439,32.0,0.0,180.0,0.0,0.0
440,59.0,0.0,180.0,1.0,0.0
441,64.0,0.0,180.0,0.0,0.0
442,52.0,240.0,180.0,0.0,0.0
443,32.0,96.0,90.0,0.0,0.0
444,59.0,240.0,180.0,0.0,0.0
445,58.0,0.0,180.0,1.0,0.0
446,44.0,0.0,180.0,0.0,0.0
447,56.0,0.0,180.0,1.0,0.0
448,52.0,240.0,180.0,0.0,0.0
449,64.0,0.0,180.0,0.0,0.0
450,58.0,0.0,180.0,0.0,0.0
451,44.0,144.0,180.0,0.0,0.0
452,61.0,0.0,180.0,0.0,0.0
453,58.0,0.0,180.0,1.0,0.0
454,58.0,240.0,180.0,1.0,0.0
455,64.0,0.0,180.0,0.0,0.0
456,44.0,96.0,90.0,0.0,0.0
457,52.0,0.0,180.0,0.0,0.0
458,58.0,240.0,180.0,0.0,0.0
459,61.0,0.0,180.0,0.0,0.0
460,58.0,0.0,180.0,1.0,0.0
461,58.0,240.0,180.0,1.0,0.0
462,64.0,0.0,180.0,0.0,0.0
463,52.0,0.0,180.0,0.0,0.0
464,44.0,0.0,180.0,0.0,0.0
465,59.0,0.0,180.0,0.0,0.0
466,32.0,0.0,180.0,0.0,0.0
467,59.0,144.0,180.0,1.0,0.0
468,59.0,0.0,180.0,1.0,0.0
469,64.0,0.0,180.0,0.0,0.0
470,32.0,96.0,90.0,0.0,0.0
471,52.0,240.0,180.0,0.0,0.0
472,59.0,0.0,180.0,0.0,0.0
473,58.0,240.0,180.0,1.0,0.0
474,64.0,0.0,180.0,0.0,0.0
475,52.0,240.0,180.0,0.0,0.0
476,44.0,0.0,180.0,0.0,0.0
477,56.0,0.0,180.0,1.0,0.0
478,61.0,0.0,180.0,0.0,0.0
479,58.0,48.0,390.0,1.0,0.0
480,44.0,144.0,180.0,0.0,0.0
481,58.0,0.0,180.0,0.0,0.0
482,44.0,48.0,90.0,0.0,0.0
483,64.0,240.0,180.0,0.0,0.0
484,52.0,0.0,180.0,0.0,0.0
485,58.0,48.0,390.0,1.0,0.0
486,58.0,192.0,180.0,0.0,0.0
487,61.0,0.0,180.0,0.0,0.0
488,52.0,0.0,180.0,0.0,0.0
489,64.0,240.0,180.0,0.0,0.0
490,32.0,0.0,180.0,0.0,0.0
491,58.0,0.0,180.0,0.0,0.0
492,63.0,0.0,180.0,0.0,0.0
493,61.0,240.0,180.0,0.0,0.0
494,51.0,0.0,180.0,0.0,0.0
495,31.0,0.0,180.0,0.0,0.0
496,43.0,0.0,180.0,0.0,0.0
497,63.0,0.0,180.0,1.0,0.0
498,63.0,240.0,180.0,1.0,0.0
499,42.0,48.0,390.0,0.0,0.0
500,68.0,192.0,180.0,1.0,0.0
501,68.0,0.0,180.0,1.0,0.0
502,56.0,0.0,180.0,0.0,0.0
503,68.0,0.0,180.0,0.0,0.0
504,63.0,240.0,180.0,0.0,0.0
505,60.0,0.0,180.0,0.0,0.0
506,68.0,192.0,180.0,1.0,0.0
507,41.0,48.0,390.0,0.0,0.0
508,61.0,0.0,180.0,0.0,0.0
509,56.0,0.0,180.0,0.0,0.0
510,68.0,0.0,180.0,0.0,0.0
511,68.0,240.0,180.0,1.0,0.0
512,40.0,48.0,390.0,0.0,0.0
513,56.0,192.0,180.0,1.0,0.0
514,58.0,0.0,180.0,1.0,0.0
515,62.0,0.0,180.0,0.0,0.0
516,56.0,240.0,180.0,0.0,0.0
517,59.0,0.0,180.0,0.0,0.0
518,59.0,240.0,180.0,1.0,0.0
519,39.0,48.0,870.0,0.0,0.0
520,59.0,240.0,180.0,1.0,0.0
521,63.0,0.0,180.0,0.0,0.0
522,59.0,0.0,180.0,0.0,0.0
523,56.0,0.0,180.0,0.0,0.0
524,51.0,0.0,390.0,0.0,0.0
525,58.0,192.0,180.0,1.0,0.0
526,58.0,432.0,180.0,0.0,0.0
527,61.0,0.0,180.0,0.0,0.0
528,63.0,0.0,180.0,1.0,0.0
529,55.0,0.0,180.0,0.0,0.0
530,52.0,48.0,390.0,0.0,0.0
531,61.0,0.0,390.0,1.0,0.0
532,61.0,0.0,180.0,0.0,0.0
533,56.0,240.0,180.0,0.0,0.0
534,40.0,48.0,390.0,0.0,0.0
535,59.0,192.0,180.0,1.0,0.0
536,56.0,0.0,180.0,0.0,0.0
537,59.0,240.0,180.0,0.0,0.0
538,63.0,240.0,180.0,1.0,0.0
539,51.0,0.0,180.0,0.0,0.0
540,43.0,0.0,180.0,0.0,0.0
541,63.0,0.0,180.0,0.0,0.0
542,61.0,0.0,180.0,0.0,0.0
543,58.0,0.0,180.0,0.0,0.0
544,63.0,240.0,180.0,1.0,0.0
545,63.0,192.0,180.0,1.0,0.0
546,42.0,48.0,390.0,0.0,0.0
547,63.0,0.0,180.0,1.0,0.0
548,56.0,240.0,180.0,0.0,0.0
549,60.0,0.0,180.0,0.0,0.0
550,63.0,0.0,180.0,0.0,0.0
551,41.0,48.0,390.0,0.0,0.0
552,68.0,192.0,180.0,1.0,0.0
553,68.0,0.0,180.0,0.0,0.0
554,56.0,960.0,180.0,0.0,0.0
555,61.0,0.0,180.0,0.0,0.0
556,68.0,0.0,180.0,1.0,0.0
557,68.0,0.0,900.0,1.0,0.0
558,40.0,480.0,900.0,0.0,0.0
559,62.0,240.0,180.0,0.0,0.0
560,59.0,0.0,180.0,0.0,0.0
561,62.0,0.0,180.0,1.0,0.0
562,71.0,0.0,180.0,0.0,0.0
563,68.0,0.0,180.0,0.0,0.0
564,68.0,0.0,180.0,0.0,0.0
565,59.0,0.0,180.0,0.0,0.0
566,71.0,0.0,180.0,0.0,0.0
567,63.0,240.0,180.0,0.0,0.0
568,39.0,0.0,1740.0,0.0,0.0
569,63.0,0.0,180.0,1.0,0.0
570,59.0,240.0,180.0,0.0,0.0
571,63.0,0.0,180.0,0.0,0.0
572,63.0,0.0,180.0,1.0,0.0
573,61.0,0.0,180.0,1.0,0.0
574,61.0,240.0,180.0,0.0,0.0
575,58.0,0.0,180.0,0.0,0.0
576,59.0,0.0,180.0,1.0,0.0
577,56.0,240.0,180.0,0.0,0.0
578,59.0,0.0,180.0,0.0,0.0
579,55.0,0.0,180.0,0.0,0.0
580,51.0,240.0,180.0,0.0,0.0
581,27.0,96.0,780.0,0.0,0.0
582,58.0,0.0,780.0,0.0,0.0
583,58.0,96.0,1740.0,1.0,0.0
584,46.0,240.0,180.0,0.0,0.0
585,53.0,0.0,180.0,0.0,0.0
586,34.0,48.0,390.0,0.0,0.0
587,50.0,96.0,180.0,0.0,0.0
588,46.0,240.0,180.0,0.0,0.0
589,58.0,0.0,780.0,0.0,0.0
590,51.0,192.0,180.0,0.0,0.0
591,55.0,0.0,180.0,0.0,0.0
592,39.0,48.0,390.0,0.0,0.0
593,46.0,240.0,180.0,0.0,0.0
594,53.0,96.0,180.0,0.0,0.0
595,34.0,192.0,390.0,0.0,0.0
596,50.0,0.0,180.0,0.0,0.0
597,46.0,48.0,1980.0,0.0,0.0
598,55.0,0.0,1740.0,0.0,0.0
599,39.0,120.0,90.0,0.0,0.0
600,51.0,0.0,1740.0,0.0,0.0
601,58.0,0.0,1740.0,0.0,0.0
602,58.0,72.0,390.0,1.0,0.0
603,38.0,120.0,90.0,0.0,0.0
604,39.0,48.0,90.0,0.0,0.0
605,38.0,120.0,90.0,0.0,0.0
606,39.0,120.0,90.0,0.0,0.0
607,38.0,120.0,90.0,0.0,0.0
608,39.0,120.0,90.0,0.0,0.0
609,38.0,120.0,90.0,0.0,0.0
610,39.0,120.0,90.0,0.0,0.0
611,38.0,120.0,90.0,0.0,0.0
612,39.0,120.0,90.0,0.0,0.0
613,38.0,120.0,90.0,0.0,0.0
614,39.0,120.0,90.0,0.0,0.0
615,37.0,72.0,90.0,0.0,0.0
616,36.0,120.0,90.0,0.0,0.0
617,35.0,120.0,90.0,0.0,0.0
618,46.0,120.0,90.0,0.0,0.0
619,34.0,0.0,90.0,0.0,0.0
620,33.0,0.0,90.0,0.0,0.0
621,45.0,120.0,90.0,0.0,0.0
622,46.0,0.0,90.0,0.0,0.0
623,34.0,120.0,90.0,0.0,0.0
624,47.0,120.0,90.0,0.0,0.0
625,35.0,0.0,90.0,0.0,0.0
626,48.0,0.0,90.0,0.0,0.0
627,36.0,120.0,90.0,0.0,0.0
628,49.0,120.0,90.0,0.0,0.0
629,37.0,0.0,90.0,0.0,0.0
630,50.0,120.0,90.0,0.0,0.0
631,38.0,0.0,90.0,0.0,0.0
632,51.0,120.0,90.0,0.0,0.0
633,39.0,0.0,90.0,0.0,0.0
634,40.0,120.0,90.0,0.0,0.0
635,52.0,0.0,90.0,0.0,0.0
636,51.0,120.0,90.0,0.0,0.0
637,39.0,0.0,90.0,0.0,0.0
638,38.0,120.0,90.0,0.0,0.0
639,50.0,0.0,90.0,0.0,0.0
640,37.0,0.0,90.0,0.0,0.0
641,49.0,120.0,90.0,0.0,0.0
642,36.0,0.0,90.0,0.0,0.0
643,48.0,120.0,90.0,0.0,0.0
644,47.0,0.0,90.0,0.0,0.0
645,35.0,120.0,90.0,0.0,0.0
646,34.0,0.0,90.0,0.0,0.0
647,46.0,120.0,90.0,0.0,0.0
648,45.0,120.0,90.0,0.0,0.0
649,33.0,0.0,90.0,0.0,0.0
650,46.0,120.0,90.0,0.0,0.0
651,34.0,0.0,90.0,0.0,0.0
652,47.0,120.0,90.0,0.0,0.0
653,35.0,0.0,90.0,0.0,0.0
654,36.0,0.0,90.0,0.0,0.0
655,48.0,120.0,90.0,0.0,0.0
656,37.0,120.0,90.0,0.0,0.0
657,49.0,0.0,90.0,0.0,0.0
658,50.0,120.0,90.0,0.0,0.0
659,38.0,0.0,90.0,0.0,0.0
660,51.0,120.0,90.0,0.0,0.0
661,39.0,0.0,90.0,0.0,0.0
662,52.0,120.0,90.0,0.0,0.0
663,40.0,0.0,90.0,0.0,0.0
664,53.0,120.0,90.0,0.0,0.0
665,41.0,0.0,90.0,0.0,0.0
666,54.0,120.0,90.0,0.0,0.0
667,42.0,0.0,90.0,0.0,0.0
668,43.0,120.0,90.0,0.0,0.0
669,55.0,0.0,90.0,0.0,0.0
670,44.0,120.0,90.0,0.0,0.0
671,56.0,0.0,90.0,0.0,0.0
672,45.0,120.0,90.0,0.0,0.0
673,57.0,0.0,90.0,0.0,0.0
674,58.0,0.0,90.0,0.0,0.0
675,46.0,120.0,90.0,0.0,0.0
676,59.0,0.0,90.0,0.0,0.0
677,47.0,120.0,90.0,0.0,0.0
678,60.0,120.0,90.0,0.0,0.0
679,48.0,0.0,90.0,0.0,0.0
680,61.0,120.0,90.0,0.0,0.0
681,49.0,0.0,90.0,0.0,0.0
682,62.0,120.0,90.0,0.0,0.0
683,50.0,0.0,90.0,0.0,0.0
684,61.0,120.0,90.0,0.0,0.0
685,49.0,0.0,90.0,0.0,0.0
686,60.0,120.0,90.0,0.0,0.0
687,48.0,0.0,90.0,0.0,0.0
688,59.0,120.0,90.0,0.0,0.0
689,47.0,0.0,90.0,0.0,0.0
690,60.0,120.0,90.0,0.0,0.0
691,48.0,0.0,90.0,0.0,0.0
692,59.0,0.0,90.0,0.0,0.0
693,47.0,120.0,90.0,0.0,0.0
694,58.0,120.0,90.0,0.0,0.0
695,46.0,0.0,90.0,0.0,0.0
696,57.0,120.0,90.0,0.0,0.0
697,45.0,0.0,90.0,0.0,0.0
698,58.0,120.0,90.0,0.0,0.0
699,46.0,0.0,90.0,0.0,0.0
700,45.0,0.0,90.0,0.0,0.0
701,57.0,120.0,90.0,0.0,0.0
702,56.0,120.0,90.0,0.0,0.0
703,44.0,0.0,90.0,0.0,0.0
704,55.0,0.0,90.0,0.0,0.0
705,43.0,120.0,90.0,0.0,0.0
706,56.0,120.0,90.0,0.0,0.0
707,44.0,0.0,90.0,0.0,0.0
708,55.0,120.0,90.0,0.0,0.0
709,43.0,0.0,90.0,0.0,0.0
710,42.0,120.0,90.0,0.0,0.0
711,54.0,0.0,90.0,0.0,0.0
712,53.0,120.0,90.0,0.0,0.0
713,41.0,0.0,90.0,0.0,0.0
714,42.0,0.0,90.0,0.0,0.0
715,54.0,120.0,90.0,0.0,0.0
716,41.0,0.0,90.0,0.0,0.0
717,53.0,120.0,90.0,0.0,0.0
718,52.0,120.0,90.0,0.0,0.0
719,40.0,0.0,90.0,0.0,0.0
720,39.0,120.0,90.0,0.0,0.0
721,51.0,0.0,90.0,0.0,0.0
722,53.0,0.0,90.0,0.0,0.0
723,41.0,120.0,90.0,0.0,0.0
724,40.0,120.0,90.0,0.0,0.0
725,52.0,0.0,90.0,0.0,0.0
726,39.0,120.0,90.0,0.0,0.0
727,51.0,0.0,90.0,0.0,0.0
728,38.0,120.0,90.0,0.0,0.0
729,50.0,0.0,90.0,0.0,0.0
730,52.0,120.0,90.0,0.0,0.0
731,40.0,0.0,90.0,0.0,0.0
732,51.0,120.0,90.0,0.0,0.0
733,39.0,0.0,90.0,0.0,0.0
734,38.0,120.0,90.0,0.0,0.0
735,50.0,0.0,90.0,0.0,0.0
736,37.0,120.0,90.0,0.0,0.0
737,49.0,0.0,90.0,0.0,0.0
738,39.0,120.0,90.0,0.0,0.0
739,51.0,0.0,90.0,0.0,0.0
740,37.0,120.0,90.0,0.0,0.0
741,49.0,0.0,90.0,0.0,0.0
742,47.0,0.0,90.0,0.0,0.0
743,35.0,120.0,90.0,0.0,0.0
744,46.0,0.0,90.0,0.0,0.0
745,34.0,216.0,90.0,0.0,0.0
746,59.0,0.0,180.0,1.0,0.0
747,32.0,144.0,180.0,0.0,0.0
748,59.0,0.0,180.0,0.0,0.0
749,59.0,0.0,180.0,1.0,0.0
750,52.0,0.0,180.0,0.0,0.0
751,64.0,240.0,180.0,0.0,0.0
752,32.0,96.0,90.0,0.0,0.0
753,58.0,240.0,180.0,1.0,0.0
754,59.0,0.0,180.0,0.0,0.0
755,52.0,0.0,180.0,0.0,0.0
756,64.0,0.0,180.0,0.0,0.0
757,56.0,0.0,180.0,1.0,0.0
758,44.0,240.0,180.0,0.0,0.0
759,61.0,144.0,180.0,0.0,0.0
760,58.0,0.0,180.0,1.0,0.0
761,58.0,0.0,180.0,0.0,0.0
762,44.0,0.0,180.0,0.0,0.0
763,44.0,96.0,90.0,0.0,0.0
764,52.0,240.0,180.0,0.0,0.0
765,64.0,0.0,180.0,0.0,0.0
766,58.0,0.0,180.0,1.0,0.0
767,61.0,0.0,180.0,0.0,0.0
768,58.0,240.0,180.0,1.0,0.0
769,58.0,0.0,180.0,0.0,0.0
770,58.0,0.0,180.0,1.0,0.0
771,52.0,240.0,180.0,0.0,0.0
772,64.0,0.0,180.0,0.0,0.0
773,44.0,0.0,180.0,0.0,0.0
774,32.0,0.0,180.0,0.0,0.0
775,59.0,144.0,180.0,1.0,0.0
776,59.0,0.0,180.0,0.0,0.0
777,32.0,96.0,90.0,0.0,0.0
778,52.0,0.0,180.0,0.0,0.0
779,64.0,240.0,180.0,0.0,0.0
780,59.0,0.0,180.0,1.0,0.0
781,58.0,240.0,180.0,1.0,0.0
782,59.0,0.0,180.0,0.0,0.0
783,64.0,0.0,180.0,0.0,0.0
784,52.0,0.0,180.0,0.0,0.0
785,44.0,240.0,180.0,0.0,0.0
786,56.0,0.0,180.0,1.0,0.0
787,61.0,0.0,180.0,0.0,0.0
788,58.0,48.0,390.0,1.0,0.0
789,58.0,0.0,180.0,0.0,0.0
790,44.0,144.0,180.0,0.0,0.0
791,52.0,240.0,180.0,0.0,0.0
792,64.0,0.0,180.0,0.0,0.0
793,44.0,48.0,90.0,0.0,0.0
794,58.0,48.0,390.0,1.0,0.0
795,58.0,192.0,180.0,0.0,0.0
796,61.0,0.0,180.0,0.0,0.0
797,52.0,0.0,180.0,0.0,0.0
798,64.0,0.0,180.0,0.0,0.0
799,32.0,240.0,180.0,0.0,0.0
800,61.0,0.0,180.0,0.0,0.0
801,63.0,0.0,180.0,0.0,0.0
802,31.0,0.0,180.0,0.0,0.0
803,43.0,0.0,180.0,0.0,0.0
804,63.0,240.0,180.0,1.0,0.0
805,51.0,0.0,180.0,0.0,0.0
806,58.0,0.0,180.0,0.0,0.0
807,63.0,240.0,180.0,1.0,0.0
808,68.0,192.0,180.0,1.0,0.0
809,42.0,48.0,390.0,0.0,0.0
810,63.0,240.0,180.0,0.0,0.0
811,60.0,0.0,180.0,0.0,0.0
812,68.0,0.0,180.0,0.0,0.0
813,56.0,0.0,180.0,0.0,0.0
814,68.0,0.0,180.0,1.0,0.0
815,68.0,192.0,180.0,1.0,0.0
816,41.0,48.0,390.0,0.0,0.0
817,68.0,0.0,180.0,0.0,0.0
818,68.0,240.0,180.0,1.0,0.0
819,61.0,0.0,180.0,0.0,0.0
820,56.0,0.0,180.0,0.0,0.0
821,40.0,48.0,390.0,0.0,0.0
822,56.0,192.0,180.0,1.0,0.0
823,59.0,0.0,180.0,0.0,0.0
824,56.0,0.0,180.0,0.0,0.0
825,62.0,240.0,180.0,0.0,0.0
826,58.0,0.0,180.0,1.0,0.0
827,59.0,240.0,180.0,1.0,0.0
828,39.0,0.0,870.0,0.0,0.0
829,59.0,240.0,180.0,1.0,0.0
830,59.0,0.0,180.0,0.0,0.0
831,63.0,0.0,180.0,0.0,0.0
832,56.0,0.0,180.0,0.0,0.0
833,51.0,48.0,390.0,0.0,0.0
834,58.0,192.0,180.0,1.0,0.0
835,61.0,432.0,180.0,0.0,0.0
836,55.0,0.0,180.0,0.0,0.0
837,58.0,0.0,180.0,0.0,0.0
838,63.0,0.0,180.0,1.0,0.0
839,52.0,48.0,390.0,0.0,0.0
840,61.0,0.0,390.0,1.0,0.0
841,61.0,240.0,180.0,0.0,0.0
842,56.0,0.0,180.0,0.0,0.0
843,59.0,192.0,180.0,1.0,0.0
844,40.0,48.0,390.0,0.0,0.0
845,56.0,240.0,180.0,0.0,0.0
846,59.0,0.0,180.0,0.0,0.0
847,61.0,0.0,180.0,0.0,0.0
848,51.0,0.0,180.0,0.0,0.0
849,63.0,0.0,180.0,0.0,0.0
850,63.0,0.0,180.0,1.0,0.0
851,58.0,0.0,180.0,0.0,0.0
852,43.0,240.0,180.0,0.0,0.0
853,63.0,240.0,180.0,1.0,0.0
854,42.0,48.0,390.0,0.0,0.0
855,63.0,192.0,180.0,1.0,0.0
856,63.0,0.0,180.0,1.0,0.0
857,56.0,0.0,180.0,0.0,0.0
858,60.0,0.0,180.0,0.0,0.0
859,63.0,240.0,180.0,0.0,0.0
860,41.0,48.0,390.0,0.0,0.0
861,68.0,192.0,180.0,1.0,0.0
862,68.0,0.0,180.0,0.0,0.0
863,68.0,0.0,180.0,1.0,0.0
864,56.0,960.0,180.0,0.0,0.0
865,61.0,0.0,180.0,0.0,0.0
866,68.0,480.0,900.0,1.0,0.0
867,40.0,0.0,900.0,0.0,0.0
868,59.0,0.0,180.0,0.0,0.0
869,71.0,0.0,180.0,0.0,0.0
870,62.0,0.0,180.0,1.0,0.0
871,68.0,240.0,180.0,0.0,0.0
872,62.0,0.0,180.0,0.0,0.0
873,39.0,96.0,1740.0,0.0,0.0
874,71.0,0.0,180.0,0.0,0.0
875,63.0,0.0,180.0,0.0,0.0
876,59.0,0.0,180.0,0.0,0.0
877,68.0,0.0,180.0,0.0,0.0
878,63.0,240.0,180.0,1.0,0.0
879,63.0,240.0,180.0,0.0,0.0
880,59.0,0.0,180.0,0.0,0.0
881,63.0,0.0,180.0,1.0,0.0
882,61.0,0.0,180.0,1.0,0.0
883,61.0,240.0,180.0,0.0,0.0
884,58.0,0.0,180.0,0.0,0.0
885,59.0,0.0,180.0,0.0,0.0
886,56.0,0.0,180.0,0.0,0.0
887,59.0,240.0,180.0,1.0,0.0
888,58.0,96.0,1740.0,1.0,0.0
889,58.0,0.0,780.0,0.0,0.0
890,27.0,0.0,780.0,0.0,0.0
891,51.0,240.0,180.0,0.0,0.0
892,55.0,0.0,180.0,0.0,0.0
893,46.0,240.0,180.0,0.0,0.0
894,50.0,0.0,180.0,0.0,0.0
895,34.0,48.0,390.0,0.0,0.0
896,53.0,96.0,180.0,0.0,0.0
897,46.0,240.0,180.0,0.0,0.0
898,51.0,0.0,180.0,0.0,0.0
899,55.0,192.0,180.0,0.0,0.0
900,39.0,48.0,390.0,0.0,0.0
901,58.0,0.0,780.0,0.0,0.0
902,46.0,240.0,180.0,0.0,0.0
903,53.0,96.0,180.0,0.0,0.0
904,34.0,192.0,390.0,0.0,0.0
905,50.0,0.0,180.0,0.0,0.0
906,46.0,0.0,1980.0,0.0,0.0
907,58.0,72.0,390.0,1.0,0.0
908,58.0,48.0,1740.0,0.0,0.0
909,51.0,0.0,1740.0,0.0,0.0
910,39.0,120.0,90.0,0.0,0.0
911,55.0,0.0,1740.0,0.0,0.0
912,38.0,120.0,90.0,0.0,0.0
913,39.0,48.0,90.0,0.0,0.0
914,38.0,120.0,90.0,0.0,0.0
915,39.0,120.0,90.0,0.0,0.0
916,38.0,120.0,90.0,0.0,0.0
917,39.0,120.0,90.0,0.0,0.0
918,38.0,120.0,90.0,0.0,0.0
919,39.0,120.0,90.0,0.0,0.0
920,38.0,120.0,90.0,0.0,0.0
921,39.0,120.0,90.0,0.0,0.0
922,38.0,120.0,90.0,0.0,0.0
923,39.0,120.0,90.0,0.0,0.0
924,37.0,72.0,90.0,0.0,0.0
925,36.0,120.0,90.0,0.0,0.0
926,35.0,120.0,90.0,0.0,0.0
927,46.0,120.0,90.0,0.0,0.0
928,34.0,0.0,90.0,0.0,0.0
929,33.0,120.0,90.0,0.0,0.0
930,45.0,0.0,90.0,0.0,0.0
931,34.0,0.0,90.0,0.0,0.0
932,46.0,120.0,90.0,0.0,0.0
933,35.0,0.0,90.0,0.0,0.0
934,47.0,120.0,90.0,0.0,0.0
935,36.0,0.0,90.0,0.0,0.0
936,48.0,120.0,90.0,0.0,0.0
937,37.0,120.0,90.0,0.0,0.0
938,49.0,0.0,90.0,0.0,0.0
939,38.0,120.0,90.0,0.0,0.0
940,50.0,0.0,90.0,0.0,0.0
941,39.0,120.0,90.0,0.0,0.0
942,51.0,0.0,90.0,0.0,0.0
943,52.0,120.0,90.0,0.0,0.0
944,40.0,0.0,90.0,0.0,0.0
945,39.0,120.0,90.0,0.0,0.0
946,51.0,0.0,90.0,0.0,0.0
947,50.0,120.0,90.0,0.0,0.0
948,38.0,0.0,90.0,0.0,0.0
949,49.0,0.0,90.0,0.0,0.0
950,37.0,120.0,90.0,0.0,0.0
951,48.0,0.0,90.0,0.0,0.0
952,36.0,120.0,90.0,0.0,0.0
953,47.0,0.0,90.0,0.0,0.0
954,35.0,120.0,90.0,0.0,0.0
955,34.0,120.0,90.0,0.0,0.0
956,46.0,0.0,90.0,0.0,0.0
957,33.0,120.0,90.0,0.0,0.0
958,45.0,0.0,90.0,0.0,0.0
959,46.0,120.0,90.0,0.0,0.0
960,34.0,0.0,90.0,0.0,0.0
961,35.0,0.0,90.0,0.0,0.0
962,47.0,120.0,90.0,0.0,0.0
963,36.0,0.0,90.0,0.0,0.0
964,48.0,120.0,90.0,0.0,0.0
965,37.0,120.0,90.0,0.0,0.0
966,49.0,0.0,90.0,0.0,0.0
967,38.0,0.0,90.0,0.0,0.0
968,50.0,120.0,90.0,0.0,0.0
969,39.0,0.0,90.0,0.0,0.0
970,51.0,120.0,90.0,0.0,0.0
971,40.0,0.0,90.0,0.0,0.0
972,52.0,120.0,90.0,0.0,0.0
973,41.0,120.0,90.0,0.0,0.0
974,53.0,0.0,90.0,0.0,0.0
975,42.0,120.0,90.0,0.0,0.0
976,54.0,0.0,90.0,0.0,0.0
977,43.0,0.0,90.0,0.0,0.0
978,55.0,120.0,90.0,0.0,0.0
979,56.0,120.0,90.0,0.0,0.0
980,44.0,0.0,90.0,0.0,0.0
981,45.0,120.0,90.0,0.0,0.0
982,57.0,0.0,90.0,0.0,0.0
983,58.0,120.0,90.0,0.0,0.0
984,46.0,0.0,90.0,0.0,0.0
985,47.0,0.0,90.0,0.0,0.0
986,59.0,120.0,90.0,0.0,0.0
987,60.0,0.0,90.0,0.0,0.0
988,48.0,120.0,90.0,0.0,0.0
989,49.0,0.0,90.0,0.0,0.0
990,61.0,120.0,90.0,0.0,0.0
991,62.0,120.0,90.0,0.0,0.0
992,50.0,0.0,90.0,0.0,0.0
993,61.0,120.0,90.0,0.0,0.0
994,49.0,0.0,90.0,0.0,0.0
995,60.0,120.0,90.0,0.0,0.0
996,48.0,0.0,90.0,0.0,0.0
997,59.0,0.0,90.0,0.0,0.0
998,47.0,120.0,90.0,0.0,0.0
999,48.0,0.0,90.0,0.0,0.0
1000,60.0,120.0,90.0,0.0,0.0
1001,59.0,0.0,90.0,0.0,0.0
1002,47.0,120.0,90.0,0.0,0.0
1003,58.0,120.0,90.0,0.0,0.0
1004,46.0,0.0,90.0,0.0,0.0
1005,57.0,120.0,90.0,0.0,0.0
1006,45.0,0.0,90.0,0.0,0.0
1007,58.0,0.0,90.0,0.0,0.0
1008,46.0,120.0,90.0,0.0,0.0
1009,57.0,0.0,90.0,0.0,0.0
1010,45.0,120.0,90.0,0.0,0.0
1011,44.0,120.0,90.0,0.0,0.0
1012,56.0,0.0,90.0,0.0,0.0
1013,43.0,0.0,90.0,0.0,0.0
1014,55.0,120.0,90.0,0.0,0.0
1015,56.0,120.0,90.0,0.0,0.0
1016,44.0,0.0,90.0,0.0,0.0
1017,55.0,120.0,90.0,0.0,0.0
1018,43.0,0.0,90.0,0.0,0.0
1019,54.0,120.0,90.0,0.0,0.0
1020,42.0,0.0,90.0,0.0,0.0
1021,53.0,0.0,90.0,0.0,0.0
1022,41.0,120.0,90.0,0.0,0.0
1023,54.0,120.0,90.0,0.0,0.0
1024,42.0,0.0,90.0,0.0,0.0
1025,41.0,120.0,90.0,0.0,0.0
1026,53.0,0.0,90.0,0.0,0.0
1027,40.0,0.0,90.0,0.0,0.0
1028,52.0,120.0,90.0,0.0,0.0
1029,39.0,0.0,90.0,0.0,0.0
1030,51.0,120.0,90.0,0.0,0.0
1031,41.0,0.0,90.0,0.0,0.0
1032,53.0,120.0,90.0,0.0,0.0
1033,40.0,120.0,90.0,0.0,0.0
1034,52.0,0.0,90.0,0.0,0.0
1035,39.0,0.0,90.0,0.0,0.0
1036,51.0,120.0,90.0,0.0,0.0
1037,50.0,120.0,90.0,0.0,0.0
1038,38.0,0.0,90.0,0.0,0.0
1039,52.0,0.0,90.0,0.0,0.0
1040,40.0,120.0,90.0,0.0,0.0
1041,39.0,0.0,90.0,0.0,0.0
1042,51.0,120.0,90.0,0.0,0.0
1043,50.0,120.0,90.0,0.0,0.0
1044,38.0,0.0,90.0,0.0,0.0
1045,49.0,0.0,90.0,0.0,0.0
1046,37.0,120.0,90.0,0.0,0.0
1047,39.0,0.0,90.0,0.0,0.0
1048,51.0,120.0,90.0,0.0,0.0
1049,49.0,0.0,90.0,0.0,0.0
1050,37.0,120.0,90.0,0.0,0.0
1051,35.0,120.0,90.0,0.0,0.0
1052,47.0,0.0,90.0,0.0,0.0
1053,46.0,0.0,90.0,0.0,0.0
1054,34.0,216.0,90.0,0.0,0.0
1055,32.0,0.0,180.0,0.0,0.0
1056,59.0,0.0,180.0,0.0,0.0
1057,59.0,144.0,180.0,1.0,0.0
1058,64.0,240.0,180.0,0.0,0.0
1059,52.0,0.0,180.0,0.0,0.0
1060,32.0,96.0,90.0,0.0,0.0
1061,59.0,0.0,180.0,1.0,0.0
1062,58.0,240.0,180.0,1.0,0.0
1063,59.0,0.0,180.0,0.0,0.0
1064,64.0,0.0,180.0,0.0,0.0
1065,44.0,240.0,180.0,0.0,0.0
1066,56.0,0.0,180.0,1.0,0.0
1067,52.0,0.0,180.0,0.0,0.0
1068,44.0,0.0,180.0,0.0,0.0
1069,58.0,144.0,180.0,1.0,0.0
1070,58.0,0.0,180.0,0.0,0.0
1071,61.0,0.0,180.0,0.0,0.0
1072,58.0,240.0,180.0,1.0,0.0
1073,52.0,0.0,180.0,0.0,0.0
1074,44.0,96.0,90.0,0.0,0.0
1075,64.0,0.0,180.0,0.0,0.0
1076,61.0,0.0,180.0,0.0,0.0
1077,58.0,0.0,180.0,0.0,0.0
1078,58.0,240.0,180.0,1.0,0.0
1079,44.0,240.0,180.0,0.0,0.0
1080,52.0,0.0,180.0,0.0,0.0
1081,64.0,0.0,180.0,0.0,0.0
1082,58.0,0.0,180.0,1.0,0.0
1083,59.0,144.0,180.0,1.0,0.0
1084,32.0,0.0,180.0,0.0,0.0
1085,59.0,0.0,180.0,0.0,0.0
1086,32.0,96.0,90.0,0.0,0.0
1087,52.0,0.0,180.0,0.0,0.0
1088,64.0,240.0,180.0,0.0,0.0
1089,59.0,0.0,180.0,1.0,0.0
1090,59.0,240.0,180.0,0.0,0.0
1091,58.0,0.0,180.0,1.0,0.0
1092,56.0,0.0,180.0,1.0,0.0
1093,44.0,240.0,180.0,0.0,0.0
1094,52.0,0.0,180.0,0.0,0.0
1095,64.0,0.0,180.0,0.0,0.0
1096,58.0,48.0,390.0,1.0,0.0
1097,58.0,0.0,180.0,0.0,0.0
1098,44.0,144.0,180.0,0.0,0.0
1099,61.0,0.0,180.0,0.0,0.0
1100,44.0,48.0,90.0,0.0,0.0
1101,52.0,240.0,180.0,0.0,0.0
1102,64.0,0.0,180.0,0.0,0.0
1103,58.0,0.0,180.0,0.0,0.0
1104,61.0,192.0,180.0,0.0,0.0
1105,58.0,48.0,390.0,1.0,0.0
1106,52.0,240.0,180.0,0.0,0.0
1107,64.0,0.0,180.0,0.0,0.0
1108,32.0,0.0,180.0,0.0,0.0
1109,58.0,0.0,180.0,0.0,0.0
1110,63.0,0.0,180.0,0.0,0.0
1111,61.0,0.0,180.0,0.0,0.0
1112,51.0,0.0,180.0,0.0,0.0
1113,43.0,240.0,180.0,0.0,0.0
1114,31.0,0.0,180.0,0.0,0.0
1115,63.0,0.0,180.0,1.0,0.0
1116,63.0,240.0,180.0,1.0,0.0
1117,42.0,48.0,390.0,0.0,0.0
1118,68.0,192.0,180.0,1.0,0.0
1119,68.0,0.0,180.0,0.0,0.0
1120,56.0,0.0,180.0,0.0,0.0
1121,68.0,0.0,180.0,1.0,0.0
1122,60.0,240.0,180.0,0.0,0.0
1123,63.0,0.0,180.0,0.0,0.0
1124,41.0,48.0,390.0,0.0,0.0
1125,68.0,192.0,180.0,1.0,0.0
1126,56.0,240.0,180.0,0.0,0.0
1127,61.0,0.0,180.0,0.0,0.0
1128,68.0,0.0,180.0,1.0,0.0
1129,68.0,0.0,180.0,0.0,0.0
1130,40.0,48.0,390.0,0.0,0.0
1131,56.0,192.0,180.0,1.0,0.0
1132,59.0,0.0,180.0,0.0,0.0
1133,62.0,240.0,180.0,0.0,0.0
1134,58.0,0.0,180.0,1.0,0.0
1135,56.0,0.0,180.0,0.0,0.0
1136,39.0,0.0,870.0,0.0,0.0
1137,59.0,240.0,180.0,1.0,0.0
1138,63.0,0.0,180.0,0.0,0.0
1139,59.0,0.0,180.0,0.0,0.0
1140,56.0,0.0,180.0,0.0,0.0
1141,59.0,240.0,180.0,1.0,0.0
1142,51.0,48.0,390.0,0.0,0.0
1143,58.0,192.0,180.0,1.0,0.0
1144,55.0,0.0,180.0,0.0,0.0
1145,58.0,432.0,180.0,0.0,0.0
1146,61.0,0.0,180.0,0.0,0.0
1147,63.0,0.0,180.0,1.0,0.0
1148,61.0,48.0,390.0,1.0,0.0
1149,52.0,0.0,390.0,0.0,0.0
1150,61.0,240.0,180.0,0.0,0.0
1151,56.0,0.0,180.0,0.0,0.0
1152,40.0,48.0,390.0,0.0,0.0
1153,59.0,192.0,180.0,1.0,0.0
1154,59.0,240.0,180.0,0.0,0.0
1155,56.0,0.0,180.0,0.0,0.0
1156,63.0,0.0,180.0,1.0,0.0
1157,58.0,0.0,180.0,0.0,0.0
1158,51.0,240.0,180.0,0.0,0.0
1159,43.0,0.0,180.0,0.0,0.0
1160,61.0,0.0,180.0,0.0,0.0
1161,63.0,0.0,180.0,0.0,0.0
1162,63.0,240.0,180.0,1.0,0.0
1163,42.0,48.0,390.0,0.0,0.0
1164,63.0,192.0,180.0,1.0,0.0
1165,63.0,0.0,180.0,0.0,0.0
1166,60.0,240.0,180.0,0.0,0.0
1167,56.0,0.0,180.0,0.0,0.0
1168,63.0,0.0,180.0,1.0,0.0
1169,68.0,192.0,180.0,1.0,0.0
1170,41.0,48.0,390.0,0.0,0.0
1171,68.0,0.0,180.0,1.0,0.0
1172,56.0,960.0,180.0,0.0,0.0
1173,68.0,0.0,180.0,0.0,0.0
1174,61.0,0.0,180.0,0.0,0.0
1175,40.0,480.0,900.0,0.0,0.0
1176,68.0,0.0,900.0,1.0,0.0
1177,68.0,0.0,180.0,0.0,0.0
1178,59.0,0.0,180.0,0.0,0.0
1179,62.0,0.0,180.0,0.0,0.0
1180,62.0,240.0,180.0,1.0,0.0
1181,71.0,0.0,180.0,0.0,0.0
1182,59.0,0.0,180.0,0.0,0.0
1183,63.0,0.0,180.0,0.0,0.0
1184,39.0,0.0,1740.0,0.0,0.0
1185,68.0,240.0,180.0,0.0,0.0
1186,71.0,0.0,180.0,0.0,0.0
1187,63.0,0.0,180.0,1.0,0.0
1188,63.0,0.0,180.0,1.0,0.0
1189,59.0,240.0,180.0,0.0,0.0
1190,63.0,0.0,180.0,0.0,0.0
1191,58.0,0.0,180.0,0.0,0.0
1192,61.0,0.0,180.0,0.0,0.0
1193,61.0,240.0,180.0,1.0,0.0
1194,59.0,0.0,180.0,1.0,0.0
1195,56.0,240.0,180.0,0.0,0.0
1196,59.0,0.0,180.0,0.0,0.0
1197,51.0,240.0,180.0,0.0,0.0
1198,55.0,0.0,180.0,0.0,0.0
1199,58.0,96.0,1740.0,1.0,0.0
1200,27.0,96.0,780.0,0.0,0.0
1201,58.0,0.0,780.0,0.0,0.0
1202,46.0,240.0,180.0,0.0,0.0
1203,53.0,96.0,180.0,0.0,0.0
1204,34.0,48.0,390.0,0.0,0.0
1205,50.0,0.0,180.0,0.0,0.0
1206,46.0,240.0,180.0,0.0,0.0
1207,58.0,0.0,780.0,0.0,0.0
1208,51.0,192.0,180.0,0.0,0.0
1209,55.0,0.0,180.0,0.0,0.0
1210,39.0,48.0,390.0,0.0,0.0
1211,46.0,240.0,180.0,0.0,0.0
1212,53.0,0.0,180.0,0.0,0.0
1213,34.0,192.0,390.0,0.0,0.0
1214,50.0,96.0,180.0,0.0,0.0
1215,46.0,48.0,1980.0,0.0,0.0
1216,58.0,0.0,1740.0,0.0,0.0
1217,58.0,72.0,390.0,1.0,0.0
1218,55.0,0.0,1740.0,0.0,0.0
1219,51.0,0.0,1740.0,0.0,0.0
1220,39.0,120.0,90.0,0.0,0.0
1221,38.0,120.0,90.0,0.0,0.0
1222,39.0,48.0,90.0,0.0,0.0
1223,38.0,120.0,90.0,0.0,0.0
1224,39.0,120.0,90.0,0.0,0.0
1225,38.0,120.0,90.0,0.0,0.0
1226,39.0,120.0,90.0,0.0,0.0
1227,38.0,120.0,90.0,0.0,0.0
1228,39.0,120.0,90.0,0.0,0.0
1229,38.0,120.0,90.0,0.0,0.0
1230,39.0,120.0,90.0,0.0,0.0
1231,38.0,120.0,90.0,0.0,0.0
1232,39.0,120.0,90.0,0.0,0.0
1233,37.0,72.0,90.0,0.0,0.0
1234,36.0,120.0,90.0,0.0,0.0
1235,35.0,120.0,90.0,0.0,0.0
1236,34.0,120.0,90.0,0.0,0.0
1237,46.0,0.0,90.0,0.0,0.0
1238,33.0,120.0,90.0,0.0,0.0
1239,45.0,0.0,90.0,0.0,0.0
1240,46.0,120.0,90.0,0.0,0.0
1241,34.0,0.0,90.0,0.0,0.0
1242,35.0,0.0,90.0,0.0,0.0
1243,47.0,120.0,90.0,0.0,0.0
1244,48.0,120.0,90.0,0.0,0.0
1245,36.0,0.0,90.0,0.0,0.0
1246,37.0,120.0,90.0,0.0,0.0
1247,49.0,0.0,90.0,0.0,0.0
1248,50.0,120.0,90.0,0.0,0.0
1249,38.0,0.0,90.0,0.0,0.0
1250,51.0,0.0,90.0,0.0,0.0
1251,39.0,120.0,90.0,0.0,0.0
1252,52.0,0.0,90.0,0.0,0.0
1253,40.0,120.0,90.0,0.0,0.0
1254,51.0,0.0,90.0,0.0,0.0
1255,39.0,120.0,90.0,0.0,0.0
1256,38.0,0.0,90.0,0.0,0.0
1257,50.0,120.0,90.0,0.0,0.0
1258,37.0,120.0,90.0,0.0,0.0
1259,49.0,0.0,90.0,0.0,0.0
1260,48.0,0.0,90.0,0.0,0.0
1261,36.0,120.0,90.0,0.0,0.0
1262,47.0,120.0,90.0,0.0,0.0
1263,35.0,0.0,90.0,0.0,0.0
1264,34.0,120.0,90.0,0.0,0.0
1265,46.0,0.0,90.0,0.0,0.0
1266,33.0,120.0,90.0,0.0,0.0
1267,45.0,0.0,90.0,0.0,0.0
1268,46.0,120.0,90.0,0.0,0.0
1269,34.0,0.0,90.0,0.0,0.0
1270,35.0,120.0,90.0,0.0,0.0
1271,47.0,0.0,90.0,0.0,0.0
1272,36.0,120.0,90.0,0.0,0.0
1273,48.0,0.0,90.0,0.0,0.0
1274,49.0,0.0,90.0,0.0,0.0
1275,37.0,120.0,90.0,0.0,0.0
1276,50.0,120.0,90.0,0.0,0.0
1277,38.0,0.0,90.0,0.0,0.0
1278,39.0,120.0,90.0,0.0,0.0
1279,51.0,0.0,90.0,0.0,0.0
1280,40.0,120.0,90.0,0.0,0.0
1281,52.0,0.0,90.0,0.0,0.0
1282,41.0,120.0,90.0,0.0,0.0
1283,53.0,0.0,90.0,0.0,0.0
1284,42.0,0.0,90.0,0.0,0.0
1285,54.0,120.0,90.0,0.0,0.0
1286,43.0,120.0,90.0,0.0,0.0
1287,55.0,0.0,90.0,0.0,0.0
1288,44.0,120.0,90.0,0.0,0.0
1289,56.0,0.0,90.0,0.0,0.0
1290,45.0,0.0,90.0,0.0,0.0
1291,57.0,120.0,90.0,0.0,0.0
1292,46.0,0.0,90.0,0.0,0.0
1293,58.0,120.0,90.0,0.0,0.0
1294,59.0,120.0,90.0,0.0,0.0
1295,47.0,0.0,90.0,0.0,0.0
1296,60.0,120.0,90.0,0.0,0.0
1297,48.0,0.0,90.0,0.0,0.0
1298,61.0,120.0,90.0,0.0,0.0
1299,49.0,0.0,90.0,0.0,0.0
1300,62.0,0.0,90.0,0.0,0.0
1301,50.0,120.0,90.0,0.0,0.0
1302,49.0,120.0,90.0,0.0,0.0
1303,61.0,0.0,90.0,0.0,0.0
1304,48.0,0.0,90.0,0.0,0.0
1305,60.0,120.0,90.0,0.0,0.0
1306,47.0,120.0,90.0,0.0,0.0
1307,59.0,0.0,90.0,0.0,0.0
1308,48.0,0.0,90.0,0.0,0.0
1309,60.0,120.0,90.0,0.0,0.0
1310,59.0,120.0,90.0,0.0,0.0
1311,47.0,0.0,90.0,0.0,0.0
1312,46.0,0.0,90.0,0.0,0.0
1313,58.0,120.0,90.0,0.0,0.0
1314,57.0,0.0,90.0,0.0,0.0
1315,45.0,120.0,90.0,0.0,0.0
1316,46.0,120.0,90.0,0.0,0.0
1317,58.0,0.0,90.0,0.0,0.0
1318,57.0,120.0,90.0,0.0,0.0
1319,45.0,0.0,90.0,0.0,0.0
1320,56.0,120.0,90.0,0.0,0.0
1321,44.0,0.0,90.0,0.0,0.0
1322,43.0,0.0,90.0,0.0,0.0
1323,55.0,120.0,90.0,0.0,0.0
1324,56.0,120.0,90.0,0.0,0.0
1325,44.0,0.0,90.0,0.0,0.0
1326,55.0,120.0,90.0,0.0,0.0
1327,43.0,0.0,90.0,0.0,0.0
1328,54.0,0.0,90.0,0.0,0.0
1329,42.0,120.0,90.0,0.0,0.0
1330,41.0,120.0,90.0,0.0,0.0
1331,53.0,0.0,90.0,0.0,0.0
1332,54.0,0.0,90.0,0.0,0.0
1333,42.0,120.0,90.0,0.0,0.0
1334,41.0,120.0,90.0,0.0,0.0
1335,53.0,0.0,90.0,0.0,0.0
1336,52.0,0.0,90.0,0.0,0.0
1337,40.0,120.0,90.0,0.0,0.0
1338,39.0,0.0,90.0,0.0,0.0
1339,51.0,120.0,90.0,0.0,0.0
1340,53.0,0.0,90.0,0.0,0.0
1341,41.0,120.0,90.0,0.0,0.0
1342,40.0,0.0,90.0,0.0,0.0
1343,52.0,120.0,90.0,0.0,0.0
1344,51.0,0.0,90.0,0.0,0.0
1345,39.0,120.0,90.0,0.0,0.0
1346,38.0,120.0,90.0,0.0,0.0
1347,50.0,0.0,90.0,0.0,0.0
1348,52.0,0.0,90.0,0.0,0.0
1349,40.0,120.0,90.0,0.0,0.0
1350,39.0,120.0,90.0,0.0,0.0
1351,51.0,0.0,90.0,0.0,0.0
1352,50.0,120.0,90.0,0.0,0.0
1353,38.0,0.0,90.0,0.0,0.0
1354,49.0,0.0,90.0,0.0,0.0
1355,37.0,120.0,90.0,0.0,0.0
1356,51.0,0.0,90.0,0.0,0.0
1357,39.0,120.0,90.0,0.0,0.0
1358,37.0,120.0,90.0,0.0,0.0
1359,49.0,0.0,90.0,0.0,0.0
1360,35.0,120.0,90.0,0.0,0.0
1361,47.0,0.0,90.0,0.0,0.0
1362,34.0,216.0,90.0,0.0,0.0
1363,46.0,0.0,90.0,0.0,0.0
1364,59.0,0.0,180.0,0.0,0.0
1365,32.0,144.0,180.0,0.0,0.0
1366,59.0,0.0,180.0,1.0,0.0
1367,59.0,240.0,180.0,1.0,0.0
1368,64.0,0.0,180.0,0.0,0.0
1369,52.0,0.0,180.0,0.0,0.0
1370,32.0,96.0,90.0,0.0,0.0
1371,59.0,240.0,180.0,0.0,0.0
1372,58.0,0.0,180.0,1.0,0.0
1373,56.0,0.0,180.0,1.0,0.0
1374,44.0,0.0,180.0,0.0,0.0
1375,52.0,0.0,180.0,0.0,0.0
1376,64.0,240.0,180.0,0.0,0.0
1377,58.0,0.0,180.0,0.0,0.0
1378,61.0,0.0,180.0,0.0,0.0
1379,44.0,0.0,180.0,0.0,0.0
1380,58.0,144.0,180.0,1.0,0.0
1381,44.0,96.0,90.0,0.0,0.0
1382,52.0,0.0,180.0,0.0,0.0
1383,64.0,0.0,180.0,0.0,0.0
1384,58.0,240.0,180.0,1.0,0.0
1385,58.0,0.0,180.0,1.0,0.0
1386,58.0,240.0,180.0,0.0,0.0
1387,61.0,0.0,180.0,0.0,0.0
1388,58.0,240.0,180.0,1.0,0.0
1389,52.0,0.0,180.0,0.0,0.0
1390,44.0,0.0,180.0,0.0,0.0
1391,64.0,0.0,180.0,0.0,0.0
1392,32.0,0.0,180.0,0.0,0.0
1393,59.0,144.0,180.0,0.0,0.0
1394,59.0,0.0,180.0,1.0,0.0
1395,59.0,0.0,180.0,1.0,0.0
1396,64.0,0.0,180.0,0.0,0.0
1397,52.0,240.0,180.0,0.0,0.0
1398,32.0,96.0,90.0,0.0,0.0
1399,59.0,0.0,180.0,0.0,0.0
1400,58.0,240.0,180.0,1.0,0.0
1401,56.0,0.0,180.0,1.0,0.0
1402,64.0,0.0,180.0,0.0,0.0
1403,52.0,240.0,180.0,0.0,0.0
1404,44.0,0.0,180.0,0.0,0.0
1405,61.0,0.0,180.0,0.0,0.0
1406,44.0,0.0,180.0,0.0,0.0
1407,58.0,48.0,390.0,1.0,0.0
1408,58.0,144.0,180.0,0.0,0.0
1409,52.0,0.0,180.0,0.0,0.0
1410,64.0,240.0,180.0,0.0,0.0
1411,44.0,48.0,90.0,0.0,0.0
1412,58.0,48.0,390.0,1.0,0.0
1413,58.0,192.0,180.0,0.0,0.0
1414,61.0,0.0,180.0,0.0,0.0
1415,32.0,0.0,180.0,0.0,0.0
1416,52.0,240.0,180.0,0.0,0.0
1417,64.0,0.0,180.0,0.0,0.0
1418,58.0,0.0,180.0,0.0,0.0
1419,63.0,240.0,180.0,1.0,0.0
1420,61.0,0.0,180.0,0.0,0.0
1421,51.0,0.0,180.0,0.0,0.0
1422,31.0,0.0,180.0,0.0,0.0
1423,43.0,0.0,180.0,0.0,0.0
1424,63.0,0.0,180.0,0.0,0.0
1425,63.0,240.0,180.0,1.0,0.0
1426,42.0,48.0,390.0,0.0,0.0
1427,68.0,192.0,180.0,1.0,0.0
1428,63.0,240.0,180.0,0.0,0.0
1429,68.0,0.0,180.0,1.0,0.0
1430,60.0,0.0,180.0,0.0,0.0
1431,68.0,0.0,180.0,0.0,0.0
1432,56.0,0.0,180.0,0.0,0.0
1433,68.0,192.0,180.0,1.0,0.0
1434,41.0,48.0,390.0,0.0,0.0
1435,61.0,0.0,180.0,0.0,0.0
1436,56.0,0.0,180.0,0.0,0.0
1437,68.0,0.0,180.0,0.0,0.0
1438,68.0,240.0,180.0,1.0,0.0
1439,56.0,192.0,180.0,1.0,0.0
1440,40.0,48.0,390.0,0.0,0.0
1441,62.0,240.0,180.0,0.0,0.0
1442,59.0,0.0,180.0,0.0,0.0
1443,56.0,0.0,180.0,0.0,0.0
1444,58.0,0.0,180.0,1.0,0.0
1445,39.0,48.0,870.0,0.0,0.0
1446,59.0,240.0,180.0,1.0,0.0
1447,56.0,0.0,180.0,0.0,0.0
1448,59.0,0.0,180.0,0.0,0.0
1449,59.0,0.0,180.0,1.0,0.0
1450,63.0,240.0,180.0,0.0,0.0
1451,51.0,0.0,390.0,0.0,0.0
1452,58.0,192.0,180.0,1.0,0.0
1453,61.0,0.0,180.0,0.0,0.0
1454,55.0,432.0,180.0,0.0,0.0
1455,58.0,0.0,180.0,0.0,0.0
1456,63.0,0.0,180.0,1.0,0.0
1457,52.0,48.0,390.0,0.0,0.0
1458,61.0,0.0,390.0,1.0,0.0
1459,61.0,240.0,180.0,0.0,0.0
1460,56.0,0.0,180.0,0.0,0.0
1461,59.0,192.0,180.0,1.0,0.0
1462,40.0,48.0,390.0,0.0,0.0
1463,56.0,0.0,180.0,0.0,0.0
1464,59.0,240.0,180.0,0.0,0.0
1465,61.0,0.0,180.0,0.0,0.0
1466,63.0,0.0,180.0,0.0,0.0
1467,43.0,0.0,180.0,0.0,0.0
1468,51.0,240.0,180.0,0.0,0.0
1469,58.0,0.0,180.0,0.0,0.0
1470,63.0,0.0,180.0,1.0,0.0
1471,63.0,240.0,180.0,1.0,0.0
1472,63.0,192.0,180.0,1.0,0.0
1473,42.0,48.0,390.0,0.0,0.0
1474,63.0,240.0,180.0,0.0,0.0
1475,60.0,0.0,180.0,0.0,0.0
1476,56.0,0.0,180.0,0.0,0.0
1477,63.0,0.0,180.0,1.0,0.0
1478,41.0,48.0,390.0,0.0,0.0
1479,68.0,192.0,180.0,1.0,0.0
1480,56.0,960.0,180.0,0.0,0.0
1481,68.0,0.0,180.0,0.0,0.0
1482,61.0,0.0,180.0,0.0,0.0
1483,68.0,0.0,180.0,1.0,0.0
1484,40.0,480.0,900.0,0.0,0.0
1485,68.0,0.0,900.0,1.0,0.0
1486,59.0,0.0,180.0,0.0,0.0
1487,62.0,0.0,180.0,0.0,0.0
1488,71.0,0.0,180.0,0.0,0.0
1489,62.0,0.0,180.0,1.0,0.0
1490,68.0,240.0,180.0,0.0,0.0
1491,71.0,0.0,180.0,0.0,0.0
1492,59.0,0.0,180.0,0.0,0.0
1493,39.0,144.0,780.0,0.0,0.0
1494,63.0,0.0,180.0,0.0,0.0
1495,63.0,0.0,180.0,1.0,0.0
1496,68.0,240.0,180.0,0.0,0.0
1497,59.0,240.0,180.0,0.0,0.0
1498,63.0,0.0,180.0,0.0,0.0
1499,63.0,0.0,180.0,1.0,0.0
1500,58.0,0.0,180.0,0.0,0.0
1501,61.0,0.0,180.0,0.0,0.0
1502,61.0,96.0,180.0,1.0,0.0
1503,56.0,0.0,180.0,0.0,0.0
1504,59.0,240.0,180.0,0.0,0.0
1505,59.0,0.0,180.0,1.0,0.0
1506,56.0,192.0,180.0,0.0,0.0
1507,37.0,0.0,390.0,0.0,0.0
1508,64.0,0.0,390.0,1.0,0.0
1509,58.0,48.0,390.0,0.0,0.0
1510,52.0,240.0,180.0,0.0,0.0
1511,55.0,48.0,390.0,1.0,0.0
1512,61.0,0.0,390.0,0.0,0.0
1513,39.0,0.0,390.0,0.0,0.0
1514,49.0,192.0,180.0,0.0,0.0
1515,55.0,0.0,180.0,0.0,0.0
1516,51.0,144.0,180.0,0.0,0.0
1517,39.0,120.0,90.0,0.0,0.0
1518,56.0,72.0,390.0,0.0,0.0
1519,32.0,48.0,780.0,0.0,0.0
1520,47.0,0.0,390.0,0.0,0.0
1521,56.0,0.0,390.0,1.0,0.0
1522,38.0,120.0,90.0,0.0,0.0
1523,39.0,48.0,90.0,0.0,0.0
1524,38.0,120.0,90.0,0.0,0.0
1525,52.0,24.0,180.0,0.0,0.0
1526,37.0,96.0,90.0,0.0,0.0
1527,55.0,0.0,390.0,0.0,0.0
1528,46.0,48.0,390.0,0.0,0.0
1529,35.0,72.0,90.0,0.0,0.0
1530,49.0,24.0,180.0,0.0,0.0
1531,34.0,48.0,90.0,0.0,0.0
1532,33.0,240.0,90.0,0.0,0.0
1533,32.0,48.0,780.0,0.0,0.0
1534,47.0,72.0,390.0,0.0,0.0
1535,56.0,0.0,390.0,0.0,0.0
1536,33.0,120.0,90.0,0.0,0.0
1537,34.0,48.0,90.0,0.0,0.0
1538,35.0,120.0,90.0,0.0,0.0
1539,36.0,96.0,90.0,0.0,0.0
1540,52.0,24.0,180.0,0.0,0.0
1541,55.0,0.0,390.0,0.0,0.0
1542,46.0,48.0,390.0,0.0,0.0
1543,37.0,72.0,90.0,0.0,0.0
1544,39.0,48.0,90.0,0.0,0.0
1545,49.0,24.0,180.0,0.0,0.0
1546,40.0,120.0,90.0,0.0,0.0
1547,32.0,48.0,780.0,0.0,0.0
1548,56.0,0.0,390.0,0.0,0.0
1549,48.0,72.0,390.0,0.0,0.0
1550,39.0,120.0,90.0,0.0,0.0
1551,38.0,120.0,90.0,0.0,0.0
1552,39.0,48.0,90.0,0.0,0.0
1553,38.0,120.0,90.0,0.0,0.0
1554,52.0,24.0,180.0,0.0,0.0
1555,37.0,96.0,90.0,0.0,0.0
1556,46.0,0.0,390.0,0.0,0.0
1557,55.0,48.0,390.0,0.0,0.0
1558,35.0,72.0,90.0,0.0,0.0
1559,49.0,24.0,180.0,0.0,0.0
1560,34.0,48.0,90.0,0.0,0.0
1561,33.0,240.0,90.0,0.0,0.0
1562,32.0,48.0,780.0,0.0,0.0
1563,48.0,0.0,390.0,0.0,0.0
1564,56.0,72.0,390.0,0.0,0.0
1565,33.0,120.0,90.0,0.0,0.0
1566,34.0,48.0,90.0,0.0,0.0
1567,35.0,120.0,90.0,0.0,0.0
1568,55.0,48.0,390.0,0.0,0.0
1569,36.0,96.0,90.0,0.0,0.0
1570,46.0,0.0,390.0,0.0,0.0
1571,52.0,24.0,180.0,0.0,0.0
1572,37.0,72.0,90.0,0.0,0.0
1573,39.0,48.0,90.0,0.0,0.0
1574,49.0,24.0,180.0,0.0,0.0
1575,40.0,792.0,90.0,0.0,0.0
1576,32.0,0.0,780.0,0.0,0.0
1577,39.0,0.0,780.0,0.0,0.0
1578,56.0,0.0,780.0,0.0,0.0
1579,48.0,192.0,780.0,0.0,0.0
