,note,step,duration,channel,velocity
0,40.0,48.0,20.0,0.0,0.0
1,52.0,0.0,20.0,0.0,0.0
2,71.0,22.0,20.0,0.0,0.0
3,67.0,0.0,20.0,0.0,0.0
4,59.0,0.0,20.0,0.0,0.0
5,83.0,26.0,40.0,0.0,0.0
6,40.0,48.0,20.0,0.0,0.0
7,52.0,0.0,20.0,0.0,0.0
8,60.0,0.0,20.0,0.0,0.0
9,67.0,22.0,20.0,0.0,0.0
10,72.0,0.0,20.0,0.0,0.0
11,84.0,26.0,40.0,0.0,0.0
12,51.0,0.0,20.0,0.0,0.0
13,39.0,48.0,20.0,0.0,0.0
14,83.0,0.0,40.0,0.0,0.0
15,59.0,0.0,20.0,0.0,0.0
16,66.0,0.0,20.0,0.0,0.0
17,71.0,36.0,20.0,0.0,0.0
18,69.0,0.0,20.0,0.0,0.0
19,78.0,12.0,40.0,0.0,0.0
20,52.0,12.0,20.0,0.0,0.0
21,40.0,0.0,20.0,0.0,0.0
22,79.0,0.0,15.0,0.0,0.0
23,81.0,12.0,15.0,0.0,0.0
24,79.0,12.0,15.0,0.0,0.0
25,78.0,12.0,15.0,0.0,0.0
26,71.0,0.0,20.0,0.0,0.0
27,67.0,0.0,20.0,0.0,0.0
28,64.0,0.0,20.0,0.0,0.0
29,59.0,12.0,20.0,0.0,0.0
30,79.0,0.0,15.0,0.0,0.0
31,81.0,12.0,15.0,0.0,0.0
32,83.0,24.0,15.0,0.0,0.0
33,48.0,0.0,20.0,0.0,0.0
34,36.0,12.0,20.0,0.0,0.0
35,76.0,36.0,40.0,0.0,0.0
36,67.0,20.0,20.0,0.0,0.0
37,76.0,0.0,20.0,0.0,0.0
38,64.0,0.0,20.0,0.0,0.0
39,72.0,0.0,20.0,0.0,0.0
40,76.0,28.0,15.0,0.0,0.0
41,33.0,24.0,20.0,0.0,0.0
42,78.0,24.0,40.0,0.0,0.0
43,45.0,0.0,20.0,0.0,0.0
44,76.0,12.0,40.0,0.0,0.0
45,64.0,0.0,20.0,0.0,0.0
46,66.0,0.0,20.0,0.0,0.0
47,57.0,12.0,20.0,0.0,0.0
48,72.0,24.0,15.0,0.0,0.0
49,71.0,12.0,60.0,0.0,0.0
50,35.0,36.0,20.0,0.0,0.0
51,47.0,0.0,20.0,0.0,0.0
52,63.0,0.0,20.0,0.0,0.0
53,57.0,0.0,20.0,0.0,0.0
54,74.0,0.0,15.0,0.0,0.0
55,72.0,12.0,15.0,0.0,0.0
56,71.0,12.0,15.0,0.0,0.0
57,66.0,12.0,15.0,0.0,0.0
58,40.0,48.0,20.0,0.0,0.0
59,28.0,0.0,20.0,0.0,0.0
60,67.0,12.0,15.0,0.0,0.0
61,64.0,0.0,15.0,0.0,0.0
62,59.0,48.0,20.0,0.0,0.0
63,55.0,0.0,20.0,0.0,0.0
64,43.0,0.0,20.0,0.0,0.0
65,31.0,48.0,20.0,0.0,0.0
66,59.0,0.0,20.0,0.0,0.0
67,62.0,0.0,20.0,0.0,0.0
68,67.0,0.0,20.0,0.0,0.0
69,83.0,26.0,40.0,0.0,0.0
70,71.0,22.0,20.0,0.0,0.0
71,36.0,48.0,20.0,0.0,0.0
72,48.0,0.0,20.0,0.0,0.0
73,84.0,48.0,60.0,0.0,0.0
74,67.0,0.0,20.0,0.0,0.0
75,64.0,0.0,20.0,0.0,0.0
76,57.0,48.0,20.0,0.0,0.0
77,38.0,0.0,20.0,0.0,0.0
78,50.0,0.0,20.0,0.0,0.0
79,83.0,22.0,40.0,0.0,0.0
80,62.0,0.0,20.0,0.0,0.0
81,66.0,0.0,20.0,0.0,0.0
82,72.0,0.0,20.0,0.0,0.0
83,81.0,12.0,40.0,0.0,0.0
84,39.0,14.0,15.0,0.0,0.0
85,51.0,0.0,15.0,0.0,0.0
86,40.0,0.0,20.0,0.0,0.0
87,52.0,6.0,20.0,0.0,0.0
88,79.0,0.0,15.0,0.0,0.0
89,81.0,3.0,15.0,0.0,0.0
90,79.0,3.0,15.0,0.0,0.0
91,81.0,12.0,15.0,0.0,0.0
92,79.0,12.0,15.0,0.0,0.0
93,78.0,12.0,15.0,0.0,0.0
94,67.0,0.0,20.0,0.0,0.0
95,61.0,0.0,20.0,0.0,0.0
96,71.0,12.0,20.0,0.0,0.0
97,79.0,0.0,15.0,0.0,0.0
98,81.0,12.0,15.0,0.0,0.0
99,83.0,24.0,15.0,0.0,0.0
100,78.0,0.0,20.0,0.0,0.0
101,42.0,36.0,20.0,0.0,0.0
102,54.0,0.0,20.0,0.0,0.0
103,66.0,0.0,40.0,0.0,0.0
104,62.0,0.0,20.0,0.0,0.0
105,71.0,12.0,15.0,0.0,0.0
106,71.0,12.0,15.0,0.0,0.0
107,76.0,12.0,15.0,0.0,0.0
108,78.0,24.0,15.0,0.0,0.0
109,30.0,48.0,20.0,0.0,0.0
110,79.0,8.0,90.0,0.0,0.0
111,42.0,0.0,20.0,0.0,0.0
112,64.0,0.0,20.0,0.0,0.0
113,61.0,12.0,20.0,0.0,0.0
114,70.0,28.0,15.0,0.0,0.0
115,35.0,0.0,20.0,0.0,0.0
116,47.0,48.0,20.0,0.0,0.0
117,70.0,6.0,90.0,0.0,0.0
118,62.0,0.0,20.0,0.0,0.0
119,54.0,6.0,20.0,0.0,0.0
120,66.0,0.0,20.0,0.0,0.0
121,71.0,6.0,15.0,0.0,0.0
122,74.0,6.0,15.0,0.0,0.0
123,42.0,24.0,15.0,0.0,0.0
124,73.0,0.0,15.0,0.0,0.0
125,71.0,26.0,40.0,0.0,0.0
126,35.0,22.0,20.0,0.0,0.0
127,47.0,0.0,20.0,0.0,0.0
128,54.0,0.0,20.0,0.0,0.0
129,62.0,48.0,20.0,0.0,0.0
130,66.0,0.0,20.0,0.0,0.0
131,46.0,0.0,20.0,0.0,0.0
132,34.0,48.0,20.0,0.0,0.0
133,64.0,0.0,20.0,0.0,0.0
134,67.0,0.0,20.0,0.0,0.0
135,72.0,0.0,60.0,0.0,0.0
136,58.0,48.0,20.0,0.0,0.0
137,60.0,0.0,20.0,0.0,0.0
138,45.0,24.0,20.0,0.0,0.0
139,33.0,0.0,20.0,0.0,0.0
140,77.0,24.0,20.0,0.0,0.0
141,69.0,0.0,20.0,0.0,0.0
142,65.0,0.0,20.0,0.0,0.0
143,60.0,0.0,20.0,0.0,0.0
144,57.0,24.0,20.0,0.0,0.0
145,81.0,0.0,20.0,0.0,0.0
146,86.0,24.0,20.0,0.0,0.0
147,84.0,3.0,60.0,0.0,0.0
148,28.0,0.0,20.0,0.0,0.0
149,40.0,33.0,20.0,0.0,0.0
150,55.0,0.0,20.0,0.0,0.0
151,67.0,6.0,20.0,0.0,0.0
152,60.0,0.0,20.0,0.0,0.0
153,70.0,3.0,15.0,0.0,0.0
154,72.0,3.0,15.0,0.0,0.0
155,79.0,6.0,15.0,0.0,0.0
156,84.0,0.0,15.0,0.0,0.0
157,82.0,6.0,15.0,0.0,0.0
158,81.0,3.0,15.0,0.0,0.0
159,69.0,4.0,15.0,0.0,0.0
160,72.0,4.0,15.0,0.0,0.0
161,77.0,25.0,15.0,0.0,0.0
162,29.0,0.0,20.0,0.0,0.0
163,41.0,22.0,20.0,0.0,0.0
164,81.0,26.0,40.0,0.0,0.0
165,65.0,0.0,20.0,0.0,0.0
166,60.0,0.0,20.0,0.0,0.0
167,57.0,24.0,20.0,0.0,0.0
168,40.0,24.0,15.0,0.0,0.0
169,52.0,0.0,15.0,0.0,0.0
170,39.0,48.0,20.0,0.0,0.0
171,51.0,0.0,20.0,0.0,0.0
172,59.0,20.0,20.0,0.0,0.0
173,71.0,12.0,40.0,0.0,0.0
174,69.0,0.0,20.0,0.0,0.0
175,66.0,0.0,20.0,0.0,0.0
176,72.0,4.0,15.0,0.0,0.0
177,74.0,0.0,15.0,0.0,0.0
178,40.0,0.0,20.0,0.0,0.0
179,52.0,12.0,20.0,0.0,0.0
180,72.0,12.0,15.0,0.0,0.0
181,71.0,0.0,15.0,0.0,0.0
182,75.0,12.0,15.0,0.0,0.0
183,76.0,12.0,15.0,0.0,0.0
184,64.0,0.0,20.0,0.0,0.0
185,78.0,12.0,15.0,0.0,0.0
186,71.0,12.0,20.0,0.0,0.0
187,59.0,0.0,20.0,0.0,0.0
188,79.0,0.0,15.0,0.0,0.0
189,88.0,12.0,15.0,0.0,0.0
190,84.0,24.0,15.0,0.0,0.0
191,54.0,0.0,20.0,0.0,0.0
192,42.0,32.0,20.0,0.0,0.0
193,83.0,8.0,60.0,0.0,0.0
194,59.0,0.0,20.0,0.0,0.0
195,63.0,0.0,20.0,0.0,0.0
196,69.0,8.0,20.0,0.0,0.0
197,71.0,0.0,20.0,0.0,0.0
198,77.0,8.0,15.0,0.0,0.0
199,78.0,0.0,15.0,0.0,0.0
200,83.0,8.0,15.0,0.0,0.0
201,81.0,6.0,15.0,0.0,0.0
202,79.0,26.0,15.0,0.0,0.0
203,79.0,26.0,40.0,0.0,0.0
204,43.0,22.0,20.0,0.0,0.0
205,55.0,0.0,20.0,0.0,0.0
206,71.0,0.0,20.0,0.0,0.0
207,59.0,24.0,20.0,0.0,0.0
208,64.0,0.0,20.0,0.0,0.0
209,43.0,24.0,15.0,0.0,0.0
210,55.0,0.0,15.0,0.0,0.0
211,45.0,48.0,20.0,0.0,0.0
212,57.0,0.0,20.0,0.0,0.0
213,66.0,0.0,20.0,0.0,0.0
214,60.0,48.0,20.0,0.0,0.0
215,75.0,24.0,60.0,0.0,0.0
216,72.0,0.0,20.0,0.0,0.0
217,43.0,0.0,20.0,0.0,0.0
218,55.0,0.0,20.0,0.0,0.0
219,76.0,24.0,20.0,0.0,0.0
220,78.0,24.0,20.0,0.0,0.0
221,59.0,0.0,20.0,0.0,0.0
222,64.0,0.0,20.0,0.0,0.0
223,71.0,0.0,20.0,0.0,0.0
224,79.0,0.0,20.0,0.0,0.0
225,52.0,0.0,15.0,0.0,0.0
226,40.0,24.0,15.0,0.0,0.0
227,39.0,48.0,20.0,0.0,0.0
228,51.0,0.0,20.0,0.0,0.0
229,78.0,0.0,60.0,0.0,0.0
230,71.0,0.0,20.0,0.0,0.0
231,69.0,0.0,20.0,0.0,0.0
232,66.0,0.0,20.0,0.0,0.0
233,59.0,48.0,20.0,0.0,0.0
234,52.0,0.0,20.0,0.0,0.0
235,40.0,24.0,20.0,0.0,0.0
236,79.0,24.0,20.0,0.0,0.0
237,59.0,0.0,20.0,0.0,0.0
238,64.0,0.0,20.0,0.0,0.0
239,67.0,0.0,20.0,0.0,0.0
240,71.0,0.0,20.0,0.0,0.0
241,81.0,16.0,20.0,0.0,0.0
242,83.0,8.0,15.0,0.0,0.0
243,40.0,24.0,15.0,0.0,0.0
244,45.0,0.0,20.0,0.0,0.0
245,33.0,0.0,20.0,0.0,0.0
246,83.0,24.0,20.0,0.0,0.0
247,81.0,24.0,20.0,0.0,0.0
248,64.0,0.0,20.0,0.0,0.0
249,84.0,0.0,20.0,0.0,0.0
250,72.0,24.0,20.0,0.0,0.0
251,57.0,0.0,20.0,0.0,0.0
252,76.0,24.0,20.0,0.0,0.0
253,36.0,0.0,20.0,0.0,0.0
254,48.0,6.0,20.0,0.0,0.0
255,78.0,0.0,20.0,0.0,0.0
256,79.0,6.0,15.0,0.0,0.0
257,79.0,3.0,15.0,0.0,0.0
258,81.0,3.0,15.0,0.0,0.0
259,79.0,3.0,15.0,0.0,0.0
260,78.0,3.0,15.0,0.0,0.0
261,79.0,24.0,15.0,0.0,0.0
262,72.0,0.0,20.0,0.0,0.0
263,64.0,0.0,20.0,0.0,0.0
264,83.0,24.0,20.0,0.0,0.0
265,57.0,0.0,20.0,0.0,0.0
266,81.0,24.0,20.0,0.0,0.0
267,78.0,2.0,90.0,0.0,0.0
268,50.0,48.0,20.0,0.0,0.0
269,38.0,0.0,20.0,0.0,0.0
270,66.0,0.0,20.0,0.0,0.0
271,57.0,0.0,20.0,0.0,0.0
272,62.0,0.0,20.0,0.0,0.0
273,72.0,22.0,20.0,0.0,0.0
274,38.0,24.0,15.0,0.0,0.0
275,50.0,0.0,15.0,0.0,0.0
276,51.0,0.0,20.0,0.0,0.0
277,39.0,48.0,20.0,0.0,0.0
278,66.0,24.0,20.0,0.0,0.0
279,69.0,0.0,20.0,0.0,0.0
280,71.0,0.0,20.0,0.0,0.0
281,59.0,0.0,20.0,0.0,0.0
282,35.0,24.0,15.0,0.0,0.0
283,47.0,0.0,15.0,0.0,0.0
284,40.0,0.0,20.0,0.0,0.0
285,52.0,48.0,20.0,0.0,0.0
286,64.0,0.0,20.0,0.0,0.0
287,74.0,22.0,20.0,0.0,0.0
288,68.0,0.0,20.0,0.0,0.0
289,83.0,26.0,40.0,0.0,0.0
290,45.0,48.0,20.0,0.0,0.0
291,33.0,0.0,20.0,0.0,0.0
292,67.0,0.0,20.0,0.0,0.0
293,72.0,48.0,20.0,0.0,0.0
294,64.0,0.0,20.0,0.0,0.0
295,84.0,0.0,60.0,0.0,0.0
296,50.0,48.0,20.0,0.0,0.0
297,38.0,0.0,20.0,0.0,0.0
298,83.0,36.0,40.0,0.0,0.0
299,72.0,0.0,20.0,0.0,0.0
300,66.0,0.0,20.0,0.0,0.0
301,62.0,0.0,20.0,0.0,0.0
302,57.0,0.0,20.0,0.0,0.0
303,81.0,12.0,40.0,0.0,0.0
304,55.0,6.0,20.0,0.0,0.0
305,43.0,0.0,20.0,0.0,0.0
306,79.0,0.0,15.0,0.0,0.0
307,81.0,3.0,15.0,0.0,0.0
308,79.0,3.0,15.0,0.0,0.0
309,81.0,12.0,15.0,0.0,0.0
310,79.0,12.0,15.0,0.0,0.0
311,71.0,0.0,20.0,0.0,0.0
312,66.0,0.0,20.0,0.0,0.0
313,62.0,0.0,20.0,0.0,0.0
314,59.0,12.0,20.0,0.0,0.0
315,78.0,12.0,15.0,0.0,0.0
316,79.0,0.0,15.0,0.0,0.0
317,81.0,5.0,15.0,0.0,0.0
318,83.0,7.0,15.0,0.0,0.0
319,83.0,24.0,15.0,0.0,0.0
320,76.0,48.0,20.0,0.0,0.0
321,48.0,0.0,20.0,0.0,0.0
322,36.0,0.0,20.0,0.0,0.0
323,64.0,0.0,20.0,0.0,0.0
324,60.0,48.0,20.0,0.0,0.0
325,72.0,0.0,20.0,0.0,0.0
326,42.0,0.0,20.0,0.0,0.0
327,54.0,48.0,20.0,0.0,0.0
328,60.0,0.0,20.0,0.0,0.0
329,64.0,0.0,20.0,0.0,0.0
330,69.0,24.0,20.0,0.0,0.0
331,81.0,0.0,40.0,0.0,0.0
332,75.0,24.0,15.0,0.0,0.0
333,35.0,24.0,20.0,0.0,0.0
334,47.0,0.0,20.0,0.0,0.0
335,79.0,24.0,40.0,0.0,0.0
336,59.0,0.0,20.0,0.0,0.0
337,63.0,0.0,20.0,0.0,0.0
338,69.0,36.0,20.0,0.0,0.0
339,78.0,12.0,40.0,0.0,0.0
340,48.0,6.0,20.0,0.0,0.0
341,36.0,0.0,20.0,0.0,0.0
342,76.0,0.0,15.0,0.0,0.0
343,78.0,3.0,15.0,0.0,0.0
344,76.0,3.0,15.0,0.0,0.0
345,78.0,12.0,15.0,0.0,0.0
346,76.0,12.0,15.0,0.0,0.0
347,75.0,12.0,15.0,0.0,0.0
348,55.0,0.0,20.0,0.0,0.0
349,60.0,0.0,20.0,0.0,0.0
350,67.0,0.0,20.0,0.0,0.0
351,76.0,12.0,15.0,0.0,0.0
352,78.0,12.0,15.0,0.0,0.0
353,79.0,24.0,15.0,0.0,0.0
354,31.0,0.0,20.0,0.0,0.0
355,43.0,0.0,20.0,0.0,0.0
356,71.0,48.0,20.0,0.0,0.0
357,59.0,0.0,20.0,0.0,0.0
358,64.0,0.0,20.0,0.0,0.0
359,88.0,12.0,60.0,0.0,0.0
360,55.0,36.0,20.0,0.0,0.0
361,33.0,0.0,20.0,0.0,0.0
362,45.0,12.0,20.0,0.0,0.0
363,87.0,0.0,15.0,0.0,0.0
364,86.0,12.0,15.0,0.0,0.0
365,85.0,12.0,15.0,0.0,0.0
366,84.0,12.0,15.0,0.0,0.0
367,53.0,12.0,20.0,0.0,0.0
368,60.0,0.0,20.0,0.0,0.0
369,65.0,0.0,20.0,0.0,0.0
370,81.0,0.0,15.0,0.0,0.0
371,72.0,24.0,15.0,0.0,0.0
372,77.0,0.0,20.0,0.0,0.0
373,68.0,12.0,15.0,0.0,0.0
374,47.0,12.0,20.0,0.0,0.0
375,35.0,0.0,20.0,0.0,0.0
376,76.0,0.0,15.0,0.0,0.0
377,79.0,0.0,15.0,0.0,0.0
378,77.0,12.0,15.0,0.0,0.0
379,76.0,12.0,15.0,0.0,0.0
380,56.0,0.0,20.0,0.0,0.0
381,62.0,0.0,20.0,0.0,0.0
382,64.0,0.0,20.0,0.0,0.0
383,79.0,12.0,15.0,0.0,0.0
384,80.0,12.0,15.0,0.0,0.0
385,84.0,12.0,15.0,0.0,0.0
386,83.0,12.0,15.0,0.0,0.0
387,48.0,0.0,20.0,0.0,0.0
388,36.0,12.0,20.0,0.0,0.0
389,69.0,12.0,15.0,0.0,0.0
390,76.0,0.0,15.0,0.0,0.0
391,81.0,12.0,15.0,0.0,0.0
392,83.0,12.0,15.0,0.0,0.0
393,57.0,0.0,20.0,0.0,0.0
394,64.0,12.0,20.0,0.0,0.0
395,86.0,12.0,15.0,0.0,0.0
396,84.0,0.0,15.0,0.0,0.0
397,76.0,12.0,15.0,0.0,0.0
398,78.0,24.0,15.0,0.0,0.0
399,35.0,0.0,20.0,0.0,0.0
400,79.0,26.0,40.0,0.0,0.0
401,47.0,22.0,20.0,0.0,0.0
402,64.0,0.0,20.0,0.0,0.0
403,59.0,0.0,20.0,0.0,0.0
404,55.0,8.0,20.0,0.0,0.0
405,76.0,8.0,15.0,0.0,0.0
406,78.0,8.0,15.0,0.0,0.0
407,76.0,24.0,15.0,0.0,0.0
408,35.0,0.0,20.0,0.0,0.0
409,47.0,22.0,20.0,0.0,0.0
410,71.0,26.0,40.0,0.0,0.0
411,59.0,8.0,20.0,0.0,0.0
412,54.0,0.0,20.0,0.0,0.0
413,63.0,0.0,20.0,0.0,0.0
414,71.0,8.0,15.0,0.0,0.0
415,72.0,8.0,15.0,0.0,0.0
416,71.0,96.0,15.0,0.0,0.0
417,40.0,0.0,270.0,0.0,0.0
418,28.0,0.0,180.0,0.0,0.0
419,64.0,0.0,270.0,0.0,0.0
420,59.0,48.0,40.0,0.0,0.0
421,62.0,0.0,40.0,0.0,0.0
422,58.0,46.0,40.0,0.0,0.0
423,61.0,0.0,40.0,0.0,0.0
424,60.0,74.0,40.0,0.0,0.0
425,57.0,0.0,40.0,0.0,0.0
426,52.0,0.0,60.0,0.0,0.0
427,56.0,0.0,60.0,0.0,0.0
428,59.0,60.0,60.0,0.0,0.0
429,68.0,0.0,60.0,0.0,0.0
430,63.0,0.0,40.0,0.0,0.0
431,57.0,0.0,40.0,0.0,0.0
432,47.0,0.0,40.0,0.0,0.0
433,35.0,0.0,40.0,0.0,0.0
434,59.0,0.0,40.0,0.0,0.0
435,66.0,36.0,40.0,0.0,0.0
436,47.0,0.0,20.0,0.0,0.0
437,68.0,20.0,20.0,0.0,0.0
438,63.0,0.0,20.0,0.0,0.0
439,59.0,0.0,20.0,0.0,0.0
440,57.0,0.0,20.0,0.0,0.0
441,47.0,0.0,15.0,0.0,0.0
442,63.0,0.0,15.0,0.0,0.0
443,57.0,40.0,15.0,0.0,0.0
444,59.0,0.0,15.0,0.0,0.0
445,69.0,0.0,15.0,0.0,0.0
446,52.0,0.0,40.0,0.0,0.0
447,40.0,0.0,40.0,0.0,0.0
448,56.0,48.0,40.0,0.0,0.0
449,68.0,0.0,40.0,0.0,0.0
450,64.0,0.0,40.0,0.0,0.0
451,59.0,0.0,40.0,0.0,0.0
452,52.0,48.0,40.0,0.0,0.0
453,40.0,0.0,40.0,0.0,0.0
454,56.0,0.0,40.0,0.0,0.0
455,64.0,0.0,40.0,0.0,0.0
456,52.0,0.0,40.0,0.0,0.0
457,56.0,0.0,40.0,0.0,0.0
458,47.0,48.0,40.0,0.0,0.0
459,40.0,0.0,40.0,0.0,0.0
460,40.0,0.0,40.0,0.0,0.0
461,68.0,84.0,40.0,0.0,0.0
462,64.0,0.0,40.0,0.0,0.0
463,59.0,0.0,40.0,0.0,0.0
464,52.0,0.0,40.0,0.0,0.0
465,64.0,0.0,60.0,0.0,0.0
466,40.0,60.0,60.0,0.0,0.0
467,47.0,0.0,60.0,0.0,0.0
468,56.0,0.0,60.0,0.0,0.0
469,59.0,0.0,60.0,0.0,0.0
470,71.0,0.0,60.0,0.0,0.0
471,64.0,0.0,40.0,0.0,0.0
472,68.0,0.0,40.0,0.0,0.0
473,61.0,12.0,40.0,0.0,0.0
474,49.0,0.0,40.0,0.0,0.0
475,56.0,0.0,40.0,0.0,0.0
476,68.0,24.0,15.0,0.0,0.0
477,49.0,0.0,20.0,0.0,0.0
478,37.0,0.0,20.0,0.0,0.0
479,56.0,0.0,20.0,0.0,0.0
480,61.0,0.0,20.0,0.0,0.0
481,66.0,20.0,20.0,0.0,0.0
482,37.0,0.0,15.0,0.0,0.0
483,49.0,26.0,60.0,0.0,0.0
484,56.0,50.0,15.0,0.0,0.0
485,61.0,0.0,90.0,0.0,0.0
486,64.0,60.0,90.0,0.0,0.0
487,66.0,0.0,60.0,0.0,0.0
488,58.0,0.0,60.0,0.0,0.0
489,54.0,0.0,60.0,0.0,0.0
490,42.0,0.0,60.0,0.0,0.0
491,59.0,0.0,40.0,0.0,0.0
492,35.0,0.0,40.0,0.0,0.0
493,66.0,0.0,40.0,0.0,0.0
494,47.0,48.0,40.0,0.0,0.0
495,54.0,0.0,40.0,0.0,0.0
496,63.0,0.0,40.0,0.0,0.0
497,47.0,0.0,40.0,0.0,0.0
498,71.0,0.0,40.0,0.0,0.0
499,69.0,0.0,40.0,0.0,0.0
500,59.0,0.0,40.0,0.0,0.0
501,57.0,0.0,40.0,0.0,0.0
502,67.0,84.0,40.0,0.0,0.0
503,40.0,0.0,90.0,0.0,0.0
504,47.0,0.0,90.0,0.0,0.0
505,52.0,0.0,90.0,0.0,0.0
506,68.0,60.0,60.0,0.0,0.0
507,80.0,0.0,60.0,0.0,0.0
508,71.0,0.0,60.0,0.0,0.0
509,59.0,0.0,60.0,0.0,0.0
510,78.0,0.0,40.0,0.0,0.0
511,59.0,0.0,40.0,0.0,0.0
512,57.0,0.0,40.0,0.0,0.0
513,47.0,0.0,40.0,0.0,0.0
514,40.0,0.0,40.0,0.0,0.0
515,71.0,0.0,40.0,0.0,0.0
516,66.0,28.0,40.0,0.0,0.0
517,68.0,0.0,15.0,0.0,0.0
518,80.0,0.0,15.0,0.0,0.0
519,71.0,0.0,15.0,0.0,0.0
520,52.0,0.0,15.0,0.0,0.0
521,47.0,16.0,15.0,0.0,0.0
522,40.0,0.0,15.0,0.0,0.0
523,59.0,0.0,15.0,0.0,0.0
524,40.0,0.0,15.0,0.0,0.0
525,47.0,0.0,15.0,0.0,0.0
526,54.0,0.0,15.0,0.0,0.0
527,59.0,8.0,15.0,0.0,0.0
528,71.0,44.0,15.0,0.0,0.0
529,75.0,0.0,15.0,0.0,0.0
530,81.0,0.0,15.0,0.0,0.0
531,69.0,0.0,15.0,0.0,0.0
532,40.0,0.0,60.0,0.0,0.0
533,47.0,0.0,40.0,0.0,0.0
534,52.0,0.0,40.0,0.0,0.0
535,59.0,0.0,40.0,0.0,0.0
536,68.0,0.0,40.0,0.0,0.0
537,71.0,48.0,40.0,0.0,0.0
538,76.0,0.0,40.0,0.0,0.0
539,80.0,0.0,40.0,0.0,0.0
540,59.0,0.0,40.0,0.0,0.0
541,64.0,0.0,40.0,0.0,0.0
542,68.0,0.0,40.0,0.0,0.0
543,71.0,48.0,40.0,0.0,0.0
544,56.0,0.0,40.0,0.0,0.0
545,47.0,0.0,40.0,0.0,0.0
546,40.0,0.0,40.0,0.0,0.0
547,73.0,0.0,40.0,0.0,0.0
548,56.0,0.0,40.0,0.0,0.0
549,64.0,0.0,40.0,0.0,0.0
550,49.0,0.0,40.0,0.0,0.0
551,68.0,0.0,40.0,0.0,0.0
552,76.0,0.0,40.0,0.0,0.0
553,61.0,6.0,40.0,0.0,0.0
554,68.0,3.0,15.0,0.0,0.0
555,44.0,0.0,15.0,0.0,0.0
556,71.0,3.0,15.0,0.0,0.0
557,75.0,36.0,15.0,0.0,0.0
558,63.0,10.0,40.0,0.0,0.0
559,80.0,74.0,40.0,0.0,0.0
560,40.0,0.0,90.0,0.0,0.0
561,47.0,60.0,90.0,0.0,0.0
562,52.0,0.0,90.0,0.0,0.0
563,56.0,0.0,15.0,0.0,0.0
564,59.0,0.0,90.0,0.0,0.0
565,64.0,0.0,90.0,0.0,0.0
566,68.0,0.0,90.0,0.0,0.0
567,71.0,0.0,90.0,0.0,0.0
568,76.0,0.0,90.0,0.0,0.0
569,80.0,0.0,60.0,0.0,0.0
570,83.0,0.0,60.0,0.0,0.0
571,51.0,0.0,40.0,0.0,0.0
572,44.0,0.0,40.0,0.0,0.0
573,68.0,28.0,40.0,0.0,0.0
574,72.0,0.0,40.0,0.0,0.0
575,80.0,0.0,40.0,0.0,0.0
576,60.0,0.0,40.0,0.0,0.0
577,75.0,0.0,40.0,0.0,0.0
578,45.0,8.0,15.0,0.0,0.0
579,54.0,0.0,15.0,0.0,0.0
580,61.0,0.0,15.0,0.0,0.0
581,73.0,14.0,20.0,0.0,0.0
582,64.0,0.0,20.0,0.0,0.0
583,78.0,0.0,20.0,0.0,0.0
584,66.0,0.0,20.0,0.0,0.0
585,63.0,3.0,15.0,0.0,0.0
586,69.0,0.0,15.0,0.0,0.0
587,71.0,0.0,15.0,0.0,0.0
588,47.0,46.0,15.0,0.0,0.0
589,54.0,0.0,15.0,0.0,0.0
590,59.0,0.0,15.0,0.0,0.0
591,63.0,3.0,15.0,0.0,0.0
592,63.0,0.0,90.0,0.0,0.0
593,69.0,24.0,90.0,0.0,0.0
594,71.0,0.0,60.0,0.0,0.0
595,54.0,30.0,40.0,0.0,0.0
596,59.0,0.0,40.0,0.0,0.0
597,78.0,0.0,60.0,0.0,0.0
598,35.0,72.0,40.0,0.0,0.0
599,40.0,0.0,90.0,0.0,0.0
600,47.0,0.0,15.0,0.0,0.0
601,52.0,0.0,90.0,0.0,0.0
602,59.0,0.0,90.0,0.0,0.0
603,64.0,0.0,90.0,0.0,0.0
604,68.0,0.0,60.0,0.0,0.0
605,76.0,0.0,60.0,0.0,0.0
606,57.0,0.0,60.0,0.0,0.0
607,64.0,0.0,60.0,0.0,0.0
608,45.0,0.0,60.0,0.0,0.0
609,85.0,0.0,60.0,0.0,0.0
610,76.0,60.0,60.0,0.0,0.0
611,52.0,0.0,60.0,0.0,0.0
612,73.0,0.0,60.0,0.0,0.0
613,83.0,0.0,40.0,0.0,0.0
614,44.0,0.0,40.0,0.0,0.0
615,52.0,0.0,40.0,0.0,0.0
616,59.0,0.0,40.0,0.0,0.0
617,76.0,0.0,40.0,0.0,0.0
618,71.0,48.0,40.0,0.0,0.0
619,71.0,0.0,40.0,0.0,0.0
620,73.0,0.0,40.0,0.0,0.0
621,61.0,0.0,40.0,0.0,0.0
622,76.0,0.0,40.0,0.0,0.0
623,85.0,48.0,40.0,0.0,0.0
624,52.0,0.0,40.0,0.0,0.0
625,43.0,0.0,40.0,0.0,0.0
626,49.0,0.0,40.0,0.0,0.0
627,54.0,36.0,40.0,0.0,0.0
628,82.0,0.0,40.0,0.0,0.0
629,61.0,0.0,40.0,0.0,0.0
630,73.0,0.0,40.0,0.0,0.0
631,42.0,0.0,40.0,0.0,0.0
632,70.0,0.0,40.0,0.0,0.0
633,78.0,0.0,40.0,0.0,0.0
634,64.0,20.0,20.0,0.0,0.0
635,66.0,0.0,20.0,0.0,0.0
636,73.0,0.0,20.0,0.0,0.0
637,78.0,0.0,20.0,0.0,0.0
638,46.0,0.0,20.0,0.0,0.0
639,54.0,0.0,20.0,0.0,0.0
640,61.0,0.0,20.0,0.0,0.0
641,66.0,0.0,15.0,0.0,0.0
642,62.0,40.0,15.0,0.0,0.0
643,46.0,0.0,15.0,0.0,0.0
644,54.0,0.0,15.0,0.0,0.0
645,74.0,0.0,15.0,0.0,0.0
646,78.0,0.0,15.0,0.0,0.0
647,63.0,0.0,40.0,0.0,0.0
648,54.0,0.0,40.0,0.0,0.0
649,47.0,0.0,40.0,0.0,0.0
650,78.0,0.0,40.0,0.0,0.0
651,75.0,48.0,40.0,0.0,0.0
652,66.0,0.0,40.0,0.0,0.0
653,78.0,0.0,40.0,0.0,0.0
654,64.0,84.0,40.0,0.0,0.0
655,54.0,0.0,40.0,0.0,0.0
656,49.0,0.0,40.0,0.0,0.0
657,70.0,0.0,40.0,0.0,0.0
658,66.0,0.0,40.0,0.0,0.0
659,47.0,0.0,90.0,0.0,0.0
660,75.0,0.0,90.0,0.0,0.0
661,54.0,0.0,90.0,0.0,0.0
662,78.0,0.0,60.0,0.0,0.0
663,59.0,60.0,60.0,0.0,0.0
664,87.0,0.0,60.0,0.0,0.0
665,66.0,0.0,60.0,0.0,0.0
666,46.0,0.0,40.0,0.0,0.0
667,54.0,48.0,40.0,0.0,0.0
668,78.0,0.0,40.0,0.0,0.0
669,85.0,0.0,40.0,0.0,0.0
670,61.0,0.0,40.0,0.0,0.0
671,73.0,0.0,40.0,0.0,0.0
672,75.0,0.0,40.0,0.0,0.0
673,73.0,0.0,40.0,0.0,0.0
674,79.0,0.0,40.0,0.0,0.0
675,63.0,84.0,40.0,0.0,0.0
676,51.0,0.0,40.0,0.0,0.0
677,45.0,0.0,40.0,0.0,0.0
678,55.0,0.0,40.0,0.0,0.0
679,87.0,0.0,40.0,0.0,0.0
680,44.0,60.0,90.0,0.0,0.0
681,51.0,0.0,90.0,0.0,0.0
682,56.0,0.0,60.0,0.0,0.0
683,75.0,0.0,60.0,0.0,0.0
684,80.0,0.0,60.0,0.0,0.0
685,84.0,0.0,60.0,0.0,0.0
686,63.0,0.0,60.0,0.0,0.0
687,72.0,0.0,60.0,0.0,0.0
688,83.0,0.0,40.0,0.0,0.0
689,71.0,0.0,40.0,0.0,0.0
690,75.0,0.0,40.0,0.0,0.0
691,44.0,0.0,40.0,0.0,0.0
692,51.0,0.0,40.0,0.0,0.0
693,56.0,28.0,40.0,0.0,0.0
694,80.0,0.0,40.0,0.0,0.0
695,63.0,0.0,40.0,0.0,0.0
696,78.0,14.0,15.0,0.0,0.0
697,83.0,4.0,40.0,0.0,0.0
698,63.0,2.0,30.0,0.0,0.0
699,54.0,0.0,30.0,0.0,0.0
700,47.0,0.0,30.0,0.0,0.0
701,71.0,0.0,40.0,0.0,0.0
702,69.0,0.0,40.0,0.0,0.0
703,81.0,4.0,15.0,0.0,0.0
704,80.0,80.0,15.0,0.0,0.0
705,68.0,0.0,90.0,0.0,0.0
706,40.0,0.0,90.0,0.0,0.0
707,76.0,0.0,90.0,0.0,0.0
708,47.0,0.0,90.0,0.0,0.0
709,80.0,60.0,90.0,0.0,0.0
710,52.0,0.0,90.0,0.0,0.0
711,59.0,0.0,60.0,0.0,0.0
712,83.0,0.0,60.0,0.0,0.0
713,40.0,0.0,40.0,0.0,0.0
714,47.0,0.0,40.0,0.0,0.0
715,59.0,0.0,40.0,0.0,0.0
716,71.0,0.0,40.0,0.0,0.0
717,69.0,28.0,40.0,0.0,0.0
718,75.0,0.0,40.0,0.0,0.0
719,78.0,0.0,40.0,0.0,0.0
720,83.0,0.0,40.0,0.0,0.0
721,40.0,24.0,20.0,0.0,0.0
722,47.0,0.0,20.0,0.0,0.0
723,71.0,0.0,15.0,0.0,0.0
724,75.0,0.0,15.0,0.0,0.0
725,69.0,0.0,15.0,0.0,0.0
726,80.0,0.0,15.0,0.0,0.0
727,59.0,0.0,15.0,0.0,0.0
728,83.0,0.0,15.0,0.0,0.0
729,40.0,0.0,60.0,0.0,0.0
730,47.0,0.0,60.0,0.0,0.0
731,69.0,0.0,15.0,0.0,0.0
732,71.0,0.0,15.0,0.0,0.0
733,75.0,0.0,15.0,0.0,0.0
734,81.0,0.0,15.0,0.0,0.0
735,83.0,0.0,15.0,0.0,0.0
736,59.0,44.0,15.0,0.0,0.0
737,68.0,0.0,40.0,0.0,0.0
738,76.0,0.0,40.0,0.0,0.0
739,80.0,0.0,40.0,0.0,0.0
740,83.0,0.0,40.0,0.0,0.0
741,59.0,48.0,40.0,0.0,0.0
742,52.0,0.0,40.0,0.0,0.0
743,71.0,0.0,40.0,0.0,0.0
744,64.0,0.0,40.0,0.0,0.0
745,59.0,48.0,40.0,0.0,0.0
746,68.0,0.0,40.0,0.0,0.0
747,47.0,0.0,40.0,0.0,0.0
748,56.0,0.0,40.0,0.0,0.0
749,40.0,0.0,40.0,0.0,0.0
750,76.0,0.0,40.0,0.0,0.0
751,73.0,0.0,40.0,0.0,0.0
752,68.0,0.0,40.0,0.0,0.0
753,64.0,0.0,40.0,0.0,0.0
754,61.0,48.0,40.0,0.0,0.0
755,56.0,0.0,40.0,0.0,0.0
756,49.0,0.0,40.0,0.0,0.0
757,56.0,0.0,40.0,0.0,0.0
758,47.0,0.0,40.0,0.0,0.0
759,64.0,0.0,40.0,0.0,0.0
760,68.0,0.0,40.0,0.0,0.0
761,71.0,28.0,40.0,0.0,0.0
762,76.0,0.0,40.0,0.0,0.0
763,80.0,0.0,40.0,0.0,0.0
764,71.0,0.0,15.0,0.0,0.0
765,76.0,0.0,15.0,0.0,0.0
766,80.0,0.0,15.0,0.0,0.0
767,83.0,0.0,15.0,0.0,0.0
768,35.0,0.0,15.0,0.0,0.0
769,47.0,16.0,15.0,0.0,0.0
770,46.0,0.0,15.0,0.0,0.0
771,34.0,8.0,15.0,0.0,0.0
772,70.0,0.0,15.0,0.0,0.0
773,58.0,0.0,15.0,0.0,0.0
774,71.0,0.0,15.0,0.0,0.0
775,59.0,0.0,15.0,0.0,0.0
776,35.0,8.0,15.0,0.0,0.0
777,47.0,0.0,15.0,0.0,0.0
778,71.0,0.0,15.0,0.0,0.0
779,35.0,0.0,15.0,0.0,0.0
780,71.0,0.0,15.0,0.0,0.0
781,59.0,8.0,15.0,0.0,0.0
782,47.0,0.0,15.0,0.0,0.0
783,48.0,0.0,15.0,0.0,0.0
784,72.0,0.0,15.0,0.0,0.0
785,36.0,0.0,15.0,0.0,0.0
786,60.0,8.0,15.0,0.0,0.0
787,48.0,0.0,15.0,0.0,0.0
788,36.0,0.0,15.0,0.0,0.0
789,72.0,8.0,15.0,0.0,0.0
790,60.0,0.0,15.0,0.0,0.0
791,48.0,8.0,15.0,0.0,0.0
792,59.0,6.0,15.0,0.0,0.0
793,71.0,0.0,15.0,0.0,0.0
794,47.0,0.0,15.0,0.0,0.0
795,35.0,0.0,15.0,0.0,0.0
796,59.0,2.0,15.0,0.0,0.0
797,71.0,0.0,15.0,0.0,0.0
798,54.0,0.0,40.0,0.0,0.0
799,68.0,0.0,40.0,0.0,0.0
800,80.0,0.0,40.0,0.0,0.0
801,52.0,0.0,40.0,0.0,0.0
802,71.0,24.0,40.0,0.0,0.0
803,57.0,0.0,15.0,0.0,0.0
804,47.0,0.0,15.0,0.0,0.0
805,54.0,0.0,20.0,0.0,0.0
806,71.0,0.0,20.0,0.0,0.0
807,78.0,0.0,20.0,0.0,0.0
808,66.0,22.0,20.0,0.0,0.0
809,35.0,0.0,20.0,0.0,0.0
810,47.0,0.0,15.0,0.0,0.0
811,63.0,0.0,15.0,0.0,0.0
812,69.0,0.0,20.0,0.0,0.0
813,71.0,0.0,20.0,0.0,0.0
814,59.0,22.0,20.0,0.0,0.0
815,47.0,0.0,20.0,0.0,0.0
816,63.0,0.0,15.0,0.0,0.0
817,54.0,0.0,20.0,0.0,0.0
818,78.0,0.0,20.0,0.0,0.0
819,66.0,0.0,20.0,0.0,0.0
820,57.0,0.0,20.0,0.0,0.0
821,69.0,0.0,20.0,0.0,0.0
822,71.0,10.0,20.0,0.0,0.0
823,58.0,0.0,15.0,0.0,0.0
824,46.0,8.0,15.0,0.0,0.0
825,34.0,0.0,15.0,0.0,0.0
826,70.0,0.0,15.0,0.0,0.0
827,47.0,0.0,15.0,0.0,0.0
828,59.0,8.0,15.0,0.0,0.0
829,71.0,0.0,15.0,0.0,0.0
830,35.0,0.0,15.0,0.0,0.0
831,47.0,0.0,15.0,0.0,0.0
832,36.0,8.0,15.0,0.0,0.0
833,48.0,0.0,15.0,0.0,0.0
834,72.0,0.0,15.0,0.0,0.0
835,60.0,0.0,15.0,0.0,0.0
836,37.0,0.0,15.0,0.0,0.0
837,73.0,0.0,15.0,0.0,0.0
838,61.0,0.0,15.0,0.0,0.0
839,49.0,8.0,15.0,0.0,0.0
840,37.0,0.0,15.0,0.0,0.0
841,50.0,0.0,15.0,0.0,0.0
842,38.0,0.0,15.0,0.0,0.0
843,62.0,0.0,15.0,0.0,0.0
844,74.0,8.0,15.0,0.0,0.0
845,63.0,0.0,15.0,0.0,0.0
846,63.0,0.0,15.0,0.0,0.0
847,75.0,0.0,15.0,0.0,0.0
848,51.0,8.0,15.0,0.0,0.0
849,39.0,0.0,15.0,0.0,0.0
850,68.0,0.0,90.0,0.0,0.0
851,40.0,0.0,90.0,0.0,0.0
852,52.0,0.0,90.0,0.0,0.0
853,45.0,0.0,20.0,0.0,0.0
854,52.0,0.0,20.0,0.0,0.0
855,64.0,0.0,15.0,0.0,0.0
856,57.0,0.0,20.0,0.0,0.0
857,76.0,22.0,15.0,0.0,0.0
858,85.0,0.0,20.0,0.0,0.0
859,73.0,0.0,20.0,0.0,0.0
860,51.0,0.0,15.0,0.0,0.0
861,75.0,8.0,15.0,0.0,0.0
862,63.0,0.0,15.0,0.0,0.0
863,39.0,0.0,15.0,0.0,0.0
864,40.0,0.0,15.0,0.0,0.0
865,52.0,8.0,15.0,0.0,0.0
866,76.0,0.0,15.0,0.0,0.0
867,64.0,0.0,15.0,0.0,0.0
868,52.0,0.0,15.0,0.0,0.0
869,40.0,8.0,15.0,0.0,0.0
870,64.0,0.0,15.0,0.0,0.0
871,76.0,0.0,15.0,0.0,0.0
872,77.0,0.0,15.0,0.0,0.0
873,65.0,0.0,15.0,0.0,0.0
874,41.0,8.0,15.0,0.0,0.0
875,53.0,0.0,15.0,0.0,0.0
876,77.0,0.0,15.0,0.0,0.0
877,53.0,0.0,15.0,0.0,0.0
878,41.0,0.0,15.0,0.0,0.0
879,65.0,8.0,15.0,0.0,0.0
880,77.0,8.0,15.0,0.0,0.0
881,41.0,0.0,15.0,0.0,0.0
882,53.0,0.0,15.0,0.0,0.0
883,54.0,0.0,15.0,0.0,0.0
884,78.0,8.0,15.0,0.0,0.0
885,66.0,0.0,15.0,0.0,0.0
886,42.0,0.0,15.0,0.0,0.0
887,55.0,0.0,15.0,0.0,0.0
888,43.0,0.0,15.0,0.0,0.0
889,59.0,0.0,20.0,0.0,0.0
890,64.0,0.0,20.0,0.0,0.0
891,67.0,0.0,15.0,0.0,0.0
892,55.0,0.0,20.0,0.0,0.0
893,79.0,22.0,15.0,0.0,0.0
894,83.0,0.0,20.0,0.0,0.0
895,71.0,0.0,20.0,0.0,0.0
896,76.0,0.0,20.0,0.0,0.0
897,76.0,0.0,15.0,0.0,0.0
898,40.0,8.0,15.0,0.0,0.0
899,52.0,0.0,15.0,0.0,0.0
900,64.0,0.0,15.0,0.0,0.0
901,53.0,0.0,15.0,0.0,0.0
902,41.0,0.0,15.0,0.0,0.0
903,41.0,0.0,15.0,0.0,0.0
904,53.0,8.0,15.0,0.0,0.0
905,77.0,8.0,15.0,0.0,0.0
906,65.0,0.0,15.0,0.0,0.0
907,77.0,0.0,15.0,0.0,0.0
908,53.0,0.0,15.0,0.0,0.0
909,65.0,0.0,15.0,0.0,0.0
910,41.0,8.0,15.0,0.0,0.0
911,78.0,0.0,15.0,0.0,0.0
912,66.0,0.0,15.0,0.0,0.0
913,54.0,0.0,15.0,0.0,0.0
914,42.0,8.0,15.0,0.0,0.0
915,66.0,0.0,15.0,0.0,0.0
916,78.0,8.0,15.0,0.0,0.0
917,54.0,0.0,15.0,0.0,0.0
918,42.0,8.0,15.0,0.0,0.0
919,55.0,8.0,15.0,0.0,0.0
920,43.0,0.0,15.0,0.0,0.0
921,67.0,0.0,15.0,0.0,0.0
922,79.0,0.0,15.0,0.0,0.0
923,76.0,0.0,15.0,0.0,0.0
924,71.0,0.0,15.0,0.0,0.0
925,85.0,0.0,15.0,0.0,0.0
926,67.0,0.0,15.0,0.0,0.0
927,61.0,0.0,15.0,0.0,0.0
928,59.0,0.0,15.0,0.0,0.0
929,55.0,22.0,15.0,0.0,0.0
930,73.0,0.0,15.0,0.0,0.0
931,78.0,0.0,20.0,0.0,0.0
932,70.0,0.0,20.0,0.0,0.0
933,82.0,0.0,20.0,0.0,0.0
934,49.0,0.0,20.0,0.0,0.0
935,42.0,0.0,20.0,0.0,0.0
936,54.0,0.0,20.0,0.0,0.0
937,41.0,0.0,15.0,0.0,0.0
938,53.0,0.0,15.0,0.0,0.0
939,77.0,0.0,15.0,0.0,0.0
940,65.0,8.0,15.0,0.0,0.0
941,78.0,0.0,15.0,0.0,0.0
942,66.0,8.0,15.0,0.0,0.0
943,78.0,0.0,15.0,0.0,0.0
944,54.0,0.0,15.0,0.0,0.0
945,42.0,0.0,15.0,0.0,0.0
946,54.0,8.0,15.0,0.0,0.0
947,42.0,0.0,15.0,0.0,0.0
948,78.0,0.0,15.0,0.0,0.0
949,66.0,8.0,15.0,0.0,0.0
950,79.0,0.0,15.0,0.0,0.0
951,67.0,8.0,15.0,0.0,0.0
952,43.0,0.0,15.0,0.0,0.0
953,55.0,0.0,15.0,0.0,0.0
954,67.0,0.0,15.0,0.0,0.0
955,79.0,8.0,15.0,0.0,0.0
956,55.0,0.0,15.0,0.0,0.0
957,43.0,0.0,15.0,0.0,0.0
958,67.0,8.0,15.0,0.0,0.0
959,44.0,8.0,15.0,0.0,0.0
960,56.0,0.0,15.0,0.0,0.0
961,80.0,0.0,15.0,0.0,0.0
962,68.0,0.0,15.0,0.0,0.0
963,56.0,0.0,15.0,0.0,0.0
964,68.0,0.0,15.0,0.0,0.0
965,56.0,8.0,15.0,0.0,0.0
966,44.0,8.0,15.0,0.0,0.0
967,80.0,0.0,15.0,0.0,0.0
968,45.0,0.0,15.0,0.0,0.0
969,81.0,0.0,15.0,0.0,0.0
970,69.0,0.0,15.0,0.0,0.0
971,57.0,8.0,15.0,0.0,0.0
972,57.0,0.0,15.0,0.0,0.0
973,81.0,0.0,15.0,0.0,0.0
974,45.0,8.0,15.0,0.0,0.0
975,69.0,0.0,15.0,0.0,0.0
976,58.0,0.0,15.0,0.0,0.0
977,70.0,8.0,15.0,0.0,0.0
978,82.0,0.0,15.0,0.0,0.0
979,46.0,0.0,15.0,0.0,0.0
980,58.0,0.0,15.0,0.0,0.0
981,70.0,0.0,15.0,0.0,0.0
982,82.0,0.0,15.0,0.0,0.0
983,58.0,0.0,15.0,0.0,0.0
984,46.0,8.0,15.0,0.0,0.0
985,83.0,0.0,15.0,0.0,0.0
986,47.0,8.0,15.0,0.0,0.0
987,59.0,0.0,15.0,0.0,0.0
988,71.0,0.0,15.0,0.0,0.0
989,72.0,0.0,15.0,0.0,0.0
990,60.0,0.0,15.0,0.0,0.0
991,48.0,0.0,15.0,0.0,0.0
992,72.0,0.0,15.0,0.0,0.0
993,84.0,8.0,15.0,0.0,0.0
994,48.0,0.0,15.0,0.0,0.0
995,60.0,0.0,15.0,0.0,0.0
996,49.0,0.0,15.0,0.0,0.0
997,61.0,0.0,15.0,0.0,0.0
998,73.0,0.0,15.0,0.0,0.0
999,85.0,8.0,15.0,0.0,0.0
1000,62.0,0.0,15.0,0.0,0.0
1001,50.0,0.0,15.0,0.0,0.0
1002,86.0,22.0,15.0,0.0,0.0
1003,74.0,0.0,15.0,0.0,0.0
1004,47.0,0.0,20.0,0.0,0.0
1005,54.0,10.0,20.0,0.0,0.0
1006,63.0,0.0,20.0,0.0,0.0
1007,87.0,0.0,20.0,0.0,0.0
1008,75.0,0.0,20.0,0.0,0.0
1009,78.0,0.0,20.0,0.0,0.0
1010,53.0,0.0,15.0,0.0,0.0
1011,65.0,0.0,15.0,0.0,0.0
1012,77.0,8.0,15.0,0.0,0.0
1013,41.0,0.0,15.0,0.0,0.0
1014,66.0,0.0,15.0,0.0,0.0
1015,78.0,0.0,15.0,0.0,0.0
1016,54.0,0.0,15.0,0.0,0.0
1017,42.0,8.0,15.0,0.0,0.0
1018,42.0,0.0,15.0,0.0,0.0
1019,78.0,0.0,15.0,0.0,0.0
1020,66.0,0.0,15.0,0.0,0.0
1021,42.0,0.0,15.0,0.0,0.0
1022,54.0,8.0,15.0,0.0,0.0
1023,43.0,0.0,15.0,0.0,0.0
1024,79.0,0.0,15.0,0.0,0.0
1025,67.0,0.0,15.0,0.0,0.0
1026,55.0,8.0,15.0,0.0,0.0
1027,67.0,0.0,15.0,0.0,0.0
1028,79.0,0.0,15.0,0.0,0.0
1029,43.0,0.0,15.0,0.0,0.0
1030,67.0,8.0,15.0,0.0,0.0
1031,79.0,0.0,15.0,0.0,0.0
1032,55.0,8.0,15.0,0.0,0.0
1033,80.0,8.0,15.0,0.0,0.0
1034,68.0,0.0,15.0,0.0,0.0
1035,44.0,0.0,15.0,0.0,0.0
1036,56.0,0.0,15.0,0.0,0.0
1037,81.0,0.0,15.0,0.0,0.0
1038,69.0,22.0,15.0,0.0,0.0
1039,45.0,0.0,15.0,0.0,0.0
1040,57.0,0.0,15.0,0.0,0.0
1041,57.0,0.0,20.0,0.0,0.0
1042,61.0,0.0,20.0,0.0,0.0
1043,63.0,0.0,20.0,0.0,0.0
1044,73.0,0.0,20.0,0.0,0.0
1045,75.0,0.0,20.0,0.0,0.0
1046,85.0,10.0,20.0,0.0,0.0
1047,78.0,0.0,20.0,0.0,0.0
1048,66.0,0.0,20.0,0.0,0.0
1049,69.0,0.0,20.0,0.0,0.0
1050,66.0,8.0,15.0,0.0,0.0
1051,78.0,0.0,15.0,0.0,0.0
1052,54.0,0.0,15.0,0.0,0.0
1053,42.0,0.0,15.0,0.0,0.0
1054,79.0,0.0,15.0,0.0,0.0
1055,67.0,0.0,15.0,0.0,0.0
1056,79.0,0.0,15.0,0.0,0.0
1057,55.0,8.0,15.0,0.0,0.0
1058,43.0,0.0,15.0,0.0,0.0
1059,67.0,0.0,15.0,0.0,0.0
1060,43.0,8.0,15.0,0.0,0.0
1061,79.0,8.0,15.0,0.0,0.0
1062,55.0,0.0,15.0,0.0,0.0
1063,80.0,0.0,15.0,0.0,0.0
1064,56.0,0.0,15.0,0.0,0.0
1065,44.0,0.0,15.0,0.0,0.0
1066,68.0,8.0,15.0,0.0,0.0
1067,68.0,0.0,15.0,0.0,0.0
1068,80.0,0.0,15.0,0.0,0.0
1069,44.0,8.0,15.0,0.0,0.0
1070,68.0,8.0,15.0,0.0,0.0
1071,56.0,0.0,15.0,0.0,0.0
1072,44.0,0.0,15.0,0.0,0.0
1073,80.0,0.0,15.0,0.0,0.0
1074,57.0,0.0,15.0,0.0,0.0
1075,81.0,0.0,15.0,0.0,0.0
1076,45.0,0.0,15.0,0.0,0.0
1077,69.0,8.0,15.0,0.0,0.0
1078,57.0,22.0,15.0,0.0,0.0
1079,61.0,0.0,15.0,0.0,0.0
1080,87.0,0.0,15.0,0.0,0.0
1081,73.0,0.0,15.0,0.0,0.0
1082,75.0,0.0,15.0,0.0,0.0
1083,79.0,0.0,15.0,0.0,0.0
1084,67.0,0.0,15.0,0.0,0.0
1085,63.0,0.0,15.0,0.0,0.0
1086,75.0,0.0,20.0,0.0,0.0
1087,72.0,10.0,20.0,0.0,0.0
1088,80.0,0.0,20.0,0.0,0.0
1089,68.0,0.0,20.0,0.0,0.0
1090,56.0,0.0,20.0,0.0,0.0
1091,63.0,0.0,20.0,0.0,0.0
1092,84.0,0.0,20.0,0.0,0.0
1093,43.0,8.0,15.0,0.0,0.0
1094,55.0,0.0,15.0,0.0,0.0
1095,67.0,0.0,15.0,0.0,0.0
1096,79.0,0.0,15.0,0.0,0.0
1097,68.0,8.0,15.0,0.0,0.0
1098,80.0,0.0,15.0,0.0,0.0
1099,44.0,0.0,15.0,0.0,0.0
1100,56.0,0.0,15.0,0.0,0.0
1101,68.0,0.0,15.0,0.0,0.0
1102,56.0,0.0,15.0,0.0,0.0
1103,44.0,0.0,15.0,0.0,0.0
1104,68.0,0.0,15.0,0.0,0.0
1105,80.0,8.0,15.0,0.0,0.0
1106,57.0,0.0,15.0,0.0,0.0
1107,45.0,0.0,15.0,0.0,0.0
1108,81.0,0.0,15.0,0.0,0.0
1109,69.0,8.0,15.0,0.0,0.0
1110,45.0,0.0,15.0,0.0,0.0
1111,57.0,0.0,15.0,0.0,0.0
1112,57.0,0.0,15.0,0.0,0.0
1113,45.0,8.0,15.0,0.0,0.0
1114,69.0,0.0,15.0,0.0,0.0
1115,81.0,8.0,15.0,0.0,0.0
1116,82.0,0.0,15.0,0.0,0.0
1117,70.0,8.0,15.0,0.0,0.0
1118,58.0,0.0,15.0,0.0,0.0
1119,46.0,0.0,15.0,0.0,0.0
1120,70.0,0.0,15.0,0.0,0.0
1121,58.0,0.0,15.0,0.0,0.0
1122,46.0,0.0,15.0,0.0,0.0
1123,82.0,8.0,15.0,0.0,0.0
1124,71.0,0.0,15.0,0.0,0.0
1125,47.0,0.0,15.0,0.0,0.0
1126,59.0,0.0,15.0,0.0,0.0
1127,83.0,8.0,15.0,0.0,0.0
1128,83.0,0.0,15.0,0.0,0.0
1129,71.0,8.0,15.0,0.0,0.0
1130,59.0,0.0,15.0,0.0,0.0
1131,47.0,0.0,15.0,0.0,0.0
1132,60.0,0.0,15.0,0.0,0.0
1133,48.0,0.0,15.0,0.0,0.0
1134,83.0,8.0,15.0,0.0,0.0
1135,71.0,0.0,15.0,0.0,0.0
1136,61.0,0.0,15.0,0.0,0.0
1137,49.0,0.0,15.0,0.0,0.0
1138,83.0,0.0,15.0,0.0,0.0
1139,81.0,8.0,15.0,0.0,0.0
1140,71.0,0.0,15.0,0.0,0.0
1141,62.0,8.0,15.0,0.0,0.0
1142,83.0,0.0,15.0,0.0,0.0
1143,81.0,0.0,15.0,0.0,0.0
1144,71.0,8.0,15.0,0.0,0.0
1145,50.0,0.0,15.0,0.0,0.0
1146,71.0,0.0,15.0,0.0,0.0
1147,51.0,0.0,15.0,0.0,0.0
1148,63.0,0.0,15.0,0.0,0.0
1149,64.0,0.0,15.0,0.0,0.0
1150,52.0,0.0,15.0,0.0,0.0
1151,83.0,0.0,15.0,0.0,0.0
1152,81.0,8.0,15.0,0.0,0.0
1153,71.0,0.0,15.0,0.0,0.0
1154,53.0,0.0,15.0,0.0,0.0
1155,83.0,8.0,15.0,0.0,0.0
1156,81.0,0.0,15.0,0.0,0.0
1157,65.0,0.0,15.0,0.0,0.0
1158,54.0,0.0,15.0,0.0,0.0
1159,66.0,0.0,15.0,0.0,0.0
1160,83.0,8.0,15.0,0.0,0.0
1161,81.0,0.0,15.0,0.0,0.0
1162,75.0,0.0,15.0,0.0,0.0
1163,71.0,0.0,15.0,0.0,0.0
1164,75.0,0.0,15.0,0.0,0.0
1165,81.0,0.0,15.0,0.0,0.0
1166,83.0,0.0,15.0,0.0,0.0
1167,55.0,0.0,15.0,0.0,0.0
1168,67.0,22.0,15.0,0.0,0.0
1169,71.0,0.0,15.0,0.0,0.0
1170,80.0,0.0,20.0,0.0,0.0
1171,83.0,0.0,20.0,0.0,0.0
1172,92.0,0.0,20.0,0.0,0.0
1173,68.0,0.0,20.0,0.0,0.0
1174,64.0,0.0,20.0,0.0,0.0
1175,59.0,0.0,20.0,0.0,0.0
1176,52.0,5.0,20.0,0.0,0.0
1177,46.0,0.0,15.0,0.0,0.0
1178,58.0,3.0,15.0,0.0,0.0
1179,59.0,3.0,15.0,0.0,0.0
1180,47.0,0.0,15.0,0.0,0.0
1181,61.0,0.0,15.0,0.0,0.0
1182,49.0,3.0,15.0,0.0,0.0
1183,59.0,0.0,15.0,0.0,0.0
1184,47.0,3.0,15.0,0.0,0.0
1185,61.0,0.0,15.0,0.0,0.0
1186,49.0,3.0,15.0,0.0,0.0
1187,59.0,3.0,15.0,0.0,0.0
1188,47.0,0.0,15.0,0.0,0.0
1189,61.0,3.0,15.0,0.0,0.0
1190,49.0,0.0,15.0,0.0,0.0
1191,59.0,0.0,15.0,0.0,0.0
1192,47.0,3.0,15.0,0.0,0.0
1193,61.0,3.0,15.0,0.0,0.0
1194,49.0,0.0,15.0,0.0,0.0
1195,47.0,3.0,15.0,0.0,0.0
1196,59.0,0.0,15.0,0.0,0.0
1197,49.0,0.0,15.0,0.0,0.0
1198,61.0,3.0,15.0,0.0,0.0
1199,47.0,3.0,15.0,0.0,0.0
1200,59.0,0.0,15.0,0.0,0.0
1201,61.0,3.0,15.0,0.0,0.0
1202,49.0,0.0,15.0,0.0,0.0
1203,47.0,0.0,15.0,0.0,0.0
1204,59.0,3.0,15.0,0.0,0.0
1205,61.0,3.0,15.0,0.0,0.0
1206,49.0,0.0,15.0,0.0,0.0
1207,47.0,3.0,15.0,0.0,0.0
1208,59.0,0.0,15.0,0.0,0.0
1209,49.0,0.0,15.0,0.0,0.0
1210,61.0,3.0,15.0,0.0,0.0
1211,47.0,0.0,15.0,0.0,0.0
1212,59.0,3.0,15.0,0.0,0.0
1213,49.0,0.0,15.0,0.0,0.0
1214,61.0,3.0,15.0,0.0,0.0
1215,47.0,0.0,15.0,0.0,0.0
1216,59.0,3.0,15.0,0.0,0.0
1217,61.0,0.0,15.0,0.0,0.0
1218,49.0,3.0,15.0,0.0,0.0
1219,59.0,3.0,15.0,0.0,0.0
1220,47.0,0.0,15.0,0.0,0.0
1221,46.0,3.0,15.0,0.0,0.0
1222,58.0,0.0,15.0,0.0,0.0
1223,59.0,16.0,15.0,0.0,0.0
1224,47.0,8.0,20.0,0.0,0.0
1225,35.0,0.0,15.0,0.0,0.0
1226,80.0,16.0,20.0,0.0,0.0
1227,83.0,0.0,20.0,0.0,0.0
1228,92.0,0.0,20.0,0.0,0.0
1229,59.0,0.0,20.0,0.0,0.0
1230,66.0,0.0,20.0,0.0,0.0
1231,69.0,0.0,20.0,0.0,0.0
1232,75.0,14.0,15.0,0.0,0.0
1233,78.0,10.0,20.0,0.0,0.0
1234,83.0,0.0,20.0,0.0,0.0
1235,90.0,0.0,20.0,0.0,0.0
1236,59.0,14.0,20.0,0.0,0.0
1237,68.0,0.0,20.0,0.0,0.0
1238,64.0,0.0,15.0,0.0,0.0
1239,92.0,0.0,20.0,0.0,0.0
1240,83.0,0.0,20.0,0.0,0.0
1241,80.0,10.0,20.0,0.0,0.0
1242,59.0,0.0,20.0,0.0,0.0
1243,66.0,0.0,20.0,0.0,0.0
1244,71.0,6.0,20.0,0.0,0.0
1245,78.0,0.0,15.0,0.0,0.0
1246,81.0,0.0,15.0,0.0,0.0
1247,93.0,10.0,15.0,0.0,0.0
1248,87.0,0.0,15.0,0.0,0.0
1249,83.0,0.0,15.0,0.0,0.0
1250,52.0,0.0,15.0,0.0,0.0
1251,59.0,0.0,15.0,0.0,0.0
1252,71.0,0.0,15.0,0.0,0.0
1253,92.0,0.0,15.0,0.0,0.0
1254,88.0,0.0,15.0,0.0,0.0
1255,83.0,0.0,15.0,0.0,0.0
1256,80.0,8.0,15.0,0.0,0.0
1257,76.0,8.0,15.0,0.0,0.0
1258,64.0,0.0,15.0,0.0,0.0
1259,88.0,0.0,15.0,0.0,0.0
1260,100.0,0.0,15.0,0.0,0.0
1261,66.0,0.0,15.0,0.0,0.0
1262,78.0,8.0,15.0,0.0,0.0
1263,102.0,0.0,15.0,0.0,0.0
1264,90.0,0.0,15.0,0.0,0.0
1265,76.0,0.0,15.0,0.0,0.0
1266,64.0,8.0,15.0,0.0,0.0
1267,88.0,0.0,15.0,0.0,0.0
1268,100.0,0.0,15.0,0.0,0.0
1269,95.0,0.0,15.0,0.0,0.0
1270,83.0,0.0,15.0,0.0,0.0
1271,59.0,8.0,15.0,0.0,0.0
1272,71.0,0.0,15.0,0.0,0.0
1273,73.0,0.0,15.0,0.0,0.0
1274,85.0,8.0,15.0,0.0,0.0
1275,97.0,0.0,15.0,0.0,0.0
1276,61.0,0.0,15.0,0.0,0.0
1277,59.0,8.0,15.0,0.0,0.0
1278,71.0,0.0,15.0,0.0,0.0
1279,83.0,0.0,15.0,0.0,0.0
1280,95.0,0.0,15.0,0.0,0.0
1281,92.0,8.0,15.0,0.0,0.0
1282,80.0,0.0,15.0,0.0,0.0
1283,68.0,0.0,15.0,0.0,0.0
1284,56.0,0.0,15.0,0.0,0.0
1285,57.0,0.0,15.0,0.0,0.0
1286,69.0,0.0,15.0,0.0,0.0
1287,93.0,8.0,15.0,0.0,0.0
1288,81.0,0.0,15.0,0.0,0.0
1289,92.0,0.0,15.0,0.0,0.0
1290,68.0,8.0,15.0,0.0,0.0
1291,56.0,0.0,15.0,0.0,0.0
1292,80.0,0.0,15.0,0.0,0.0
1293,76.0,0.0,15.0,0.0,0.0
1294,52.0,0.0,15.0,0.0,0.0
1295,64.0,0.0,15.0,0.0,0.0
1296,88.0,8.0,15.0,0.0,0.0
1297,54.0,8.0,15.0,0.0,0.0
1298,78.0,0.0,15.0,0.0,0.0
1299,90.0,0.0,15.0,0.0,0.0
1300,66.0,0.0,15.0,0.0,0.0
1301,64.0,0.0,15.0,0.0,0.0
1302,52.0,0.0,15.0,0.0,0.0
1303,76.0,8.0,15.0,0.0,0.0
1304,88.0,0.0,15.0,0.0,0.0
1305,47.0,8.0,15.0,0.0,0.0
1306,71.0,0.0,15.0,0.0,0.0
1307,83.0,0.0,15.0,0.0,0.0
1308,59.0,0.0,15.0,0.0,0.0
1309,85.0,0.0,15.0,0.0,0.0
1310,73.0,8.0,15.0,0.0,0.0
1311,49.0,0.0,15.0,0.0,0.0
1312,61.0,0.0,15.0,0.0,0.0
1313,71.0,0.0,15.0,0.0,0.0
1314,83.0,8.0,15.0,0.0,0.0
1315,47.0,0.0,15.0,0.0,0.0
1316,59.0,0.0,15.0,0.0,0.0
1317,44.0,8.0,15.0,0.0,0.0
1318,68.0,0.0,15.0,0.0,0.0
1319,80.0,0.0,15.0,0.0,0.0
1320,56.0,0.0,15.0,0.0,0.0
1321,69.0,8.0,15.0,0.0,0.0
1322,81.0,0.0,15.0,0.0,0.0
1323,57.0,0.0,15.0,0.0,0.0
1324,45.0,0.0,15.0,0.0,0.0
1325,56.0,0.0,15.0,0.0,0.0
1326,44.0,8.0,15.0,0.0,0.0
1327,68.0,0.0,15.0,0.0,0.0
1328,80.0,0.0,15.0,0.0,0.0
1329,76.0,0.0,15.0,0.0,0.0
1330,64.0,8.0,15.0,0.0,0.0
1331,40.0,0.0,15.0,0.0,0.0
1332,52.0,0.0,15.0,0.0,0.0
1333,42.0,0.0,15.0,0.0,0.0
1334,54.0,0.0,15.0,0.0,0.0
1335,66.0,0.0,15.0,0.0,0.0
1336,78.0,8.0,15.0,0.0,0.0
1337,52.0,0.0,15.0,0.0,0.0
1338,40.0,0.0,15.0,0.0,0.0
1339,64.0,0.0,15.0,0.0,0.0
1340,76.0,8.0,15.0,0.0,0.0
1341,37.0,8.0,15.0,0.0,0.0
1342,49.0,0.0,15.0,0.0,0.0
1343,73.0,0.0,15.0,0.0,0.0
1344,61.0,0.0,15.0,0.0,0.0
1345,56.0,0.0,15.0,0.0,0.0
1346,44.0,8.0,15.0,0.0,0.0
1347,32.0,0.0,15.0,0.0,0.0
1348,47.0,0.0,15.0,0.0,0.0
1349,68.0,0.0,15.0,0.0,0.0
1350,64.0,0.0,15.0,0.0,0.0
1351,59.0,0.0,15.0,0.0,0.0
1352,71.0,8.0,15.0,0.0,0.0
1353,35.0,0.0,15.0,0.0,0.0
1354,55.0,0.0,15.0,0.0,0.0
1355,79.0,8.0,15.0,0.0,0.0
1356,91.0,0.0,15.0,0.0,0.0
1357,67.0,0.0,15.0,0.0,0.0
1358,54.0,8.0,15.0,0.0,0.0
1359,66.0,0.0,15.0,0.0,0.0
1360,78.0,0.0,15.0,0.0,0.0
1361,90.0,0.0,15.0,0.0,0.0
1362,53.0,0.0,15.0,0.0,0.0
1363,77.0,0.0,15.0,0.0,0.0
1364,65.0,8.0,15.0,0.0,0.0
1365,89.0,0.0,15.0,0.0,0.0
1366,52.0,8.0,15.0,0.0,0.0
1367,64.0,0.0,15.0,0.0,0.0
1368,88.0,0.0,15.0,0.0,0.0
1369,76.0,0.0,15.0,0.0,0.0
1370,87.0,0.0,15.0,0.0,0.0
1371,75.0,0.0,15.0,0.0,0.0
1372,63.0,0.0,15.0,0.0,0.0
1373,51.0,8.0,15.0,0.0,0.0
1374,86.0,0.0,15.0,0.0,0.0
1375,74.0,0.0,15.0,0.0,0.0
1376,50.0,8.0,15.0,0.0,0.0
1377,62.0,0.0,15.0,0.0,0.0
1378,85.0,0.0,15.0,0.0,0.0
1379,73.0,0.0,15.0,0.0,0.0
1380,61.0,0.0,15.0,0.0,0.0
1381,49.0,8.0,15.0,0.0,0.0
1382,48.0,0.0,15.0,0.0,0.0
1383,60.0,0.0,15.0,0.0,0.0
1384,72.0,8.0,15.0,0.0,0.0
1385,84.0,0.0,15.0,0.0,0.0
1386,59.0,0.0,15.0,0.0,0.0
1387,47.0,8.0,15.0,0.0,0.0
1388,71.0,0.0,15.0,0.0,0.0
1389,83.0,0.0,15.0,0.0,0.0
1390,58.0,0.0,15.0,0.0,0.0
1391,70.0,0.0,15.0,0.0,0.0
1392,82.0,8.0,15.0,0.0,0.0
1393,46.0,0.0,15.0,0.0,0.0
1394,69.0,8.0,15.0,0.0,0.0
1395,81.0,0.0,15.0,0.0,0.0
1396,45.0,0.0,15.0,0.0,0.0
1397,57.0,0.0,15.0,0.0,0.0
1398,44.0,8.0,15.0,0.0,0.0
1399,56.0,0.0,15.0,0.0,0.0
1400,80.0,0.0,40.0,0.0,0.0
1401,84.0,0.0,40.0,0.0,0.0
1402,92.0,0.0,40.0,0.0,0.0
1403,43.0,0.0,15.0,0.0,0.0
1404,55.0,8.0,15.0,0.0,0.0
1405,54.0,8.0,15.0,0.0,0.0
1406,42.0,0.0,15.0,0.0,0.0
1407,41.0,8.0,15.0,0.0,0.0
1408,53.0,0.0,15.0,0.0,0.0
1409,40.0,0.0,15.0,0.0,0.0
1410,52.0,8.0,15.0,0.0,0.0
1411,51.0,0.0,15.0,0.0,0.0
1412,39.0,8.0,15.0,0.0,0.0
1413,50.0,0.0,15.0,0.0,0.0
1414,38.0,8.0,15.0,0.0,0.0
1415,81.0,0.0,20.0,0.0,0.0
1416,90.0,0.0,20.0,0.0,0.0
1417,37.0,8.0,15.0,0.0,0.0
1418,49.0,0.0,15.0,0.0,0.0
1419,48.0,0.0,15.0,0.0,0.0
1420,36.0,8.0,15.0,0.0,0.0
1421,35.0,8.0,15.0,0.0,0.0
1422,78.0,0.0,15.0,0.0,0.0
1423,69.0,0.0,20.0,0.0,0.0
1424,71.0,0.0,20.0,0.0,0.0
1425,47.0,0.0,15.0,0.0,0.0
1426,83.0,0.0,20.0,0.0,0.0
1427,34.0,6.0,15.0,0.0,0.0
1428,46.0,0.0,15.0,0.0,0.0
1429,37.0,0.0,15.0,0.0,0.0
1430,49.0,22.0,15.0,0.0,0.0
1431,47.0,0.0,20.0,0.0,0.0
1432,54.0,0.0,20.0,0.0,0.0
1433,57.0,0.0,20.0,0.0,0.0
1434,78.0,10.0,15.0,0.0,0.0
1435,90.0,0.0,15.0,0.0,0.0
1436,87.0,0.0,15.0,0.0,0.0
1437,83.0,0.0,15.0,0.0,0.0
1438,81.0,0.0,15.0,0.0,0.0
1439,63.0,0.0,15.0,0.0,0.0
1440,68.0,8.0,15.0,0.0,0.0
1441,92.0,0.0,15.0,0.0,0.0
1442,80.0,0.0,15.0,0.0,0.0
1443,104.0,0.0,15.0,0.0,0.0
1444,78.0,0.0,15.0,0.0,0.0
1445,90.0,0.0,15.0,0.0,0.0
1446,66.0,0.0,15.0,0.0,0.0
1447,102.0,8.0,15.0,0.0,0.0
1448,73.0,0.0,15.0,0.0,0.0
1449,61.0,0.0,15.0,0.0,0.0
1450,85.0,8.0,15.0,0.0,0.0
1451,97.0,0.0,15.0,0.0,0.0
1452,95.0,0.0,15.0,0.0,0.0
1453,71.0,0.0,15.0,0.0,0.0
1454,59.0,8.0,15.0,0.0,0.0
1455,83.0,0.0,15.0,0.0,0.0
1456,80.0,8.0,15.0,0.0,0.0
1457,68.0,0.0,15.0,0.0,0.0
1458,92.0,0.0,15.0,0.0,0.0
1459,56.0,0.0,15.0,0.0,0.0
1460,78.0,8.0,15.0,0.0,0.0
1461,90.0,0.0,15.0,0.0,0.0
1462,66.0,0.0,15.0,0.0,0.0
1463,54.0,0.0,15.0,0.0,0.0
1464,61.0,0.0,15.0,0.0,0.0
1465,49.0,8.0,15.0,0.0,0.0
1466,85.0,0.0,15.0,0.0,0.0
1467,73.0,0.0,15.0,0.0,0.0
1468,83.0,8.0,15.0,0.0,0.0
1469,47.0,0.0,15.0,0.0,0.0
1470,59.0,0.0,15.0,0.0,0.0
1471,35.0,0.0,15.0,0.0,0.0
1472,71.0,0.0,15.0,0.0,0.0
1473,59.0,8.0,15.0,0.0,0.0
1474,47.0,0.0,15.0,0.0,0.0
1475,63.0,0.0,15.0,0.0,0.0
1476,69.0,0.0,15.0,0.0,0.0
1477,68.0,2.0,40.0,0.0,0.0
1478,76.0,0.0,40.0,0.0,0.0
1479,28.0,8.0,15.0,0.0,0.0
1480,40.0,0.0,15.0,0.0,0.0
1481,64.0,0.0,40.0,0.0,0.0
1482,35.0,0.0,15.0,0.0,0.0
1483,47.0,6.0,15.0,0.0,0.0
1484,35.0,0.0,15.0,0.0,0.0
1485,47.0,8.0,15.0,0.0,0.0
1486,35.0,0.0,15.0,0.0,0.0
1487,52.0,6.0,15.0,0.0,0.0
1488,40.0,0.0,15.0,0.0,0.0
1489,52.0,8.0,15.0,0.0,0.0
1490,40.0,8.0,15.0,0.0,0.0
1491,59.0,0.0,15.0,0.0,0.0
1492,47.0,6.0,15.0,0.0,0.0
1493,59.0,10.0,15.0,0.0,0.0
1494,47.0,0.0,15.0,0.0,0.0
1495,59.0,8.0,15.0,0.0,0.0
1496,47.0,0.0,15.0,0.0,0.0
1497,64.0,0.0,15.0,0.0,0.0
1498,52.0,8.0,15.0,0.0,0.0
1499,64.0,0.0,15.0,0.0,0.0
1500,52.0,16.0,15.0,0.0,0.0
1501,64.0,0.0,15.0,0.0,0.0
1502,55.0,16.0,15.0,0.0,0.0
1503,64.0,0.0,15.0,0.0,0.0
1504,79.0,0.0,15.0,0.0,0.0
1505,76.0,0.0,15.0,0.0,0.0
1506,71.0,0.0,15.0,0.0,0.0
1507,67.0,0.0,15.0,0.0,0.0
1508,59.0,0.0,15.0,0.0,0.0
1509,64.0,0.0,15.0,0.0,0.0
1510,55.0,16.0,15.0,0.0,0.0
1511,83.0,0.0,40.0,0.0,0.0
1512,79.0,0.0,15.0,0.0,0.0
1513,76.0,0.0,15.0,0.0,0.0
1514,71.0,0.0,15.0,0.0,0.0
1515,79.0,0.0,15.0,0.0,0.0
1516,59.0,14.0,15.0,0.0,0.0
1517,64.0,0.0,15.0,0.0,0.0
1518,71.0,0.0,15.0,0.0,0.0
1519,76.0,0.0,15.0,0.0,0.0
1520,71.0,0.0,15.0,0.0,0.0
1521,64.0,2.0,15.0,0.0,0.0
1522,55.0,0.0,15.0,0.0,0.0
1523,45.0,0.0,15.0,0.0,0.0
1524,76.0,0.0,15.0,0.0,0.0
1525,79.0,16.0,15.0,0.0,0.0
1526,72.0,0.0,15.0,0.0,0.0
1527,57.0,16.0,15.0,0.0,0.0
1528,72.0,0.0,15.0,0.0,0.0
1529,76.0,0.0,15.0,0.0,0.0
1530,79.0,0.0,15.0,0.0,0.0
1531,64.0,0.0,15.0,0.0,0.0
1532,67.0,16.0,15.0,0.0,0.0
1533,60.0,0.0,15.0,0.0,0.0
1534,72.0,0.0,15.0,0.0,0.0
1535,76.0,0.0,15.0,0.0,0.0
1536,79.0,0.0,15.0,0.0,0.0
1537,84.0,0.0,40.0,0.0,0.0
1538,64.0,0.0,15.0,0.0,0.0
1539,57.0,0.0,15.0,0.0,0.0
1540,60.0,14.0,15.0,0.0,0.0
1541,72.0,0.0,15.0,0.0,0.0
1542,76.0,0.0,15.0,0.0,0.0
1543,79.0,16.0,15.0,0.0,0.0
1544,67.0,0.0,15.0,0.0,0.0
1545,64.0,2.0,15.0,0.0,0.0
1546,72.0,0.0,15.0,0.0,0.0
1547,76.0,0.0,15.0,0.0,0.0
1548,79.0,0.0,15.0,0.0,0.0
1549,57.0,0.0,15.0,0.0,0.0
1550,51.0,0.0,15.0,0.0,0.0
1551,39.0,0.0,15.0,0.0,0.0
1552,78.0,16.0,15.0,0.0,0.0
1553,69.0,0.0,15.0,0.0,0.0
1554,71.0,0.0,15.0,0.0,0.0
1555,59.0,0.0,15.0,0.0,0.0
1556,51.0,16.0,15.0,0.0,0.0
1557,83.0,0.0,15.0,0.0,0.0
1558,54.0,0.0,15.0,0.0,0.0
1559,66.0,0.0,15.0,0.0,0.0
1560,71.0,16.0,15.0,0.0,0.0
1561,51.0,0.0,15.0,0.0,0.0
1562,59.0,0.0,15.0,0.0,0.0
1563,69.0,0.0,15.0,0.0,0.0
1564,78.0,0.0,15.0,0.0,0.0
1565,71.0,0.0,15.0,0.0,0.0
1566,66.0,0.0,15.0,0.0,0.0
1567,69.0,0.0,15.0,0.0,0.0
1568,78.0,0.0,15.0,0.0,0.0
1569,54.0,0.0,15.0,0.0,0.0
1570,59.0,0.0,15.0,0.0,0.0
1571,51.0,2.0,15.0,0.0,0.0
1572,69.0,0.0,15.0,0.0,0.0
1573,78.0,0.0,20.0,0.0,0.0
1574,40.0,2.0,15.0,0.0,0.0
1575,52.0,0.0,15.0,0.0,0.0
1576,71.0,6.0,15.0,0.0,0.0
1577,67.0,10.0,15.0,0.0,0.0
1578,71.0,0.0,15.0,0.0,0.0
1579,76.0,12.0,15.0,0.0,0.0
1580,79.0,0.0,15.0,0.0,0.0
1581,52.0,0.0,15.0,0.0,0.0
1582,59.0,10.0,15.0,0.0,0.0
1583,76.0,0.0,15.0,0.0,0.0
1584,81.0,0.0,15.0,0.0,0.0
1585,71.0,2.0,15.0,0.0,0.0
1586,55.0,0.0,15.0,0.0,0.0
1587,67.0,6.0,15.0,0.0,0.0
1588,79.0,0.0,15.0,0.0,0.0
1589,76.0,0.0,15.0,0.0,0.0
1590,71.0,6.0,15.0,0.0,0.0
1591,52.0,0.0,15.0,0.0,0.0
1592,59.0,2.0,15.0,0.0,0.0
1593,78.0,0.0,15.0,0.0,0.0
1594,76.0,10.0,15.0,0.0,0.0
1595,71.0,0.0,15.0,0.0,0.0
1596,79.0,12.0,15.0,0.0,0.0
1597,76.0,0.0,15.0,0.0,0.0
1598,71.0,0.0,15.0,0.0,0.0
1599,67.0,0.0,15.0,0.0,0.0
1600,55.0,10.0,15.0,0.0,0.0
1601,81.0,0.0,15.0,0.0,0.0
1602,71.0,2.0,15.0,0.0,0.0
1603,76.0,0.0,15.0,0.0,0.0
1604,64.0,0.0,15.0,0.0,0.0
1605,52.0,18.0,15.0,0.0,0.0
1606,71.0,0.0,15.0,0.0,0.0
1607,76.0,0.0,15.0,0.0,0.0
1608,83.0,4.0,15.0,0.0,0.0
1609,48.0,16.0,15.0,0.0,0.0
1610,36.0,0.0,15.0,0.0,0.0
1611,72.0,0.0,15.0,0.0,0.0
1612,67.0,0.0,15.0,0.0,0.0
1613,60.0,0.0,15.0,0.0,0.0
1614,52.0,0.0,15.0,0.0,0.0
1615,55.0,0.0,15.0,0.0,0.0
1616,64.0,16.0,15.0,0.0,0.0
1617,72.0,16.0,15.0,0.0,0.0
1618,67.0,0.0,15.0,0.0,0.0
1619,76.0,0.0,15.0,0.0,0.0
1620,60.0,16.0,15.0,0.0,0.0
1621,52.0,0.0,15.0,0.0,0.0
1622,72.0,0.0,15.0,0.0,0.0
1623,55.0,0.0,15.0,0.0,0.0
1624,64.0,0.0,15.0,0.0,0.0
1625,67.0,4.0,15.0,0.0,0.0
1626,72.0,0.0,15.0,0.0,0.0
1627,52.0,2.0,15.0,0.0,0.0
1628,60.0,0.0,15.0,0.0,0.0
1629,67.0,0.0,15.0,0.0,0.0
1630,76.0,0.0,15.0,0.0,0.0
1631,72.0,6.0,15.0,0.0,0.0
1632,67.0,16.0,15.0,0.0,0.0
1633,45.0,0.0,15.0,0.0,0.0
1634,33.0,0.0,15.0,0.0,0.0
1635,66.0,0.0,15.0,0.0,0.0
1636,78.0,0.0,40.0,0.0,0.0
1637,57.0,0.0,15.0,0.0,0.0
1638,72.0,16.0,15.0,0.0,0.0
1639,54.0,0.0,15.0,0.0,0.0
1640,60.0,0.0,15.0,0.0,0.0
1641,66.0,16.0,15.0,0.0,0.0
1642,64.0,0.0,15.0,0.0,0.0
1643,72.0,0.0,15.0,0.0,0.0
1644,60.0,0.0,15.0,0.0,0.0
1645,57.0,0.0,15.0,0.0,0.0
1646,54.0,0.0,15.0,0.0,0.0
1647,76.0,0.0,15.0,0.0,0.0
1648,66.0,16.0,15.0,0.0,0.0
1649,72.0,0.0,15.0,0.0,0.0
1650,64.0,0.0,15.0,0.0,0.0
1651,57.0,0.0,15.0,0.0,0.0
1652,60.0,16.0,15.0,0.0,0.0
1653,54.0,0.0,15.0,0.0,0.0
1654,66.0,8.0,15.0,0.0,0.0
1655,72.0,0.0,15.0,0.0,0.0
1656,60.0,0.0,15.0,0.0,0.0
1657,57.0,2.0,15.0,0.0,0.0
1658,66.0,6.0,15.0,0.0,0.0
1659,64.0,16.0,15.0,0.0,0.0
1660,72.0,0.0,15.0,0.0,0.0
1661,69.0,0.0,15.0,0.0,0.0
1662,64.0,0.0,15.0,0.0,0.0
1663,47.0,0.0,15.0,0.0,0.0
1664,35.0,16.0,15.0,0.0,0.0
1665,66.0,0.0,15.0,0.0,0.0
1666,64.0,0.0,15.0,0.0,0.0
1667,69.0,0.0,15.0,0.0,0.0
1668,66.0,0.0,15.0,0.0,0.0
1669,47.0,16.0,15.0,0.0,0.0
1670,54.0,0.0,15.0,0.0,0.0
1671,64.0,0.0,15.0,0.0,0.0
1672,54.0,8.0,15.0,0.0,0.0
1673,59.0,0.0,15.0,0.0,0.0
1674,47.0,0.0,15.0,0.0,0.0
1675,71.0,0.0,15.0,0.0,0.0
1676,69.0,0.0,15.0,0.0,0.0
1677,66.0,0.0,15.0,0.0,0.0
1678,63.0,0.0,15.0,0.0,0.0
1679,74.0,4.0,15.0,0.0,0.0
1680,63.0,0.0,15.0,0.0,0.0
1681,69.0,0.0,15.0,0.0,0.0
1682,72.0,0.0,15.0,0.0,0.0
1683,59.0,0.0,15.0,0.0,0.0
1684,54.0,8.0,15.0,0.0,0.0
1685,71.0,10.0,15.0,0.0,0.0
1686,63.0,0.0,15.0,0.0,0.0
1687,66.0,8.0,15.0,0.0,0.0
1688,69.0,0.0,15.0,0.0,0.0
1689,47.0,2.0,15.0,0.0,0.0
1690,54.0,0.0,15.0,0.0,0.0
1691,57.0,0.0,15.0,0.0,0.0
1692,63.0,0.0,15.0,0.0,0.0
1693,66.0,8.0,15.0,0.0,0.0
1694,67.0,0.0,15.0,0.0,0.0
1695,59.0,0.0,15.0,0.0,0.0
1696,40.0,14.0,15.0,0.0,0.0
1697,64.0,0.0,15.0,0.0,0.0
1698,59.0,0.0,15.0,0.0,0.0
1699,55.0,6.0,15.0,0.0,0.0
1700,52.0,0.0,15.0,0.0,0.0
1701,47.0,0.0,15.0,0.0,0.0
1702,55.0,2.0,15.0,0.0,0.0
1703,52.0,14.0,15.0,0.0,0.0
1704,59.0,14.0,15.0,0.0,0.0
1705,55.0,2.0,15.0,0.0,0.0
1706,55.0,2.0,15.0,0.0,0.0
1707,52.0,0.0,15.0,0.0,0.0
1708,47.0,0.0,15.0,0.0,0.0
1709,59.0,14.0,15.0,0.0,0.0
1710,55.0,2.0,15.0,0.0,0.0
1711,52.0,0.0,15.0,0.0,0.0
1712,55.0,16.0,15.0,0.0,0.0
1713,47.0,0.0,15.0,0.0,0.0
1714,52.0,0.0,15.0,0.0,0.0
1715,43.0,0.0,15.0,0.0,0.0
1716,31.0,0.0,15.0,0.0,0.0
1717,59.0,0.0,15.0,0.0,0.0
1718,62.0,18.0,15.0,0.0,0.0
1719,55.0,0.0,15.0,0.0,0.0
1720,55.0,0.0,15.0,0.0,0.0
1721,62.0,0.0,15.0,0.0,0.0
1722,74.0,0.0,15.0,0.0,0.0
1723,71.0,16.0,15.0,0.0,0.0
1724,59.0,0.0,15.0,0.0,0.0
1725,67.0,0.0,15.0,0.0,0.0
1726,79.0,0.0,15.0,0.0,0.0
1727,62.0,16.0,15.0,0.0,0.0
1728,55.0,0.0,15.0,0.0,0.0
1729,71.0,0.0,15.0,0.0,0.0
1730,79.0,0.0,15.0,0.0,0.0
1731,83.0,0.0,40.0,0.0,0.0
1732,74.0,0.0,15.0,0.0,0.0
1733,79.0,0.0,15.0,0.0,0.0
1734,67.0,0.0,15.0,0.0,0.0
1735,59.0,0.0,15.0,0.0,0.0
1736,71.0,0.0,15.0,0.0,0.0
1737,74.0,14.0,15.0,0.0,0.0
1738,55.0,0.0,15.0,0.0,0.0
1739,79.0,16.0,15.0,0.0,0.0
1740,62.0,2.0,15.0,0.0,0.0
1741,72.0,16.0,15.0,0.0,0.0
1742,76.0,0.0,15.0,0.0,0.0
1743,36.0,0.0,15.0,0.0,0.0
1744,48.0,0.0,15.0,0.0,0.0
1745,64.0,0.0,15.0,0.0,0.0
1746,57.0,16.0,15.0,0.0,0.0
1747,79.0,0.0,15.0,0.0,0.0
1748,76.0,0.0,15.0,0.0,0.0
1749,72.0,0.0,15.0,0.0,0.0
1750,79.0,0.0,15.0,0.0,0.0
1751,67.0,16.0,15.0,0.0,0.0
1752,60.0,0.0,15.0,0.0,0.0
1753,76.0,0.0,15.0,0.0,0.0
1754,72.0,0.0,15.0,0.0,0.0
1755,79.0,16.0,15.0,0.0,0.0
1756,84.0,0.0,90.0,0.0,0.0
1757,57.0,0.0,15.0,0.0,0.0
1758,64.0,0.0,15.0,0.0,0.0
1759,60.0,14.0,15.0,0.0,0.0
1760,67.0,0.0,15.0,0.0,0.0
1761,76.0,0.0,15.0,0.0,0.0
1762,72.0,0.0,15.0,0.0,0.0
1763,76.0,0.0,15.0,0.0,0.0
1764,79.0,0.0,15.0,0.0,0.0
1765,57.0,2.0,15.0,0.0,0.0
1766,64.0,0.0,15.0,0.0,0.0
1767,38.0,0.0,15.0,0.0,0.0
1768,72.0,16.0,15.0,0.0,0.0
1769,74.0,0.0,15.0,0.0,0.0
1770,78.0,0.0,15.0,0.0,0.0
1771,50.0,0.0,15.0,0.0,0.0
1772,60.0,16.0,15.0,0.0,0.0
1773,72.0,16.0,15.0,0.0,0.0
1774,78.0,0.0,15.0,0.0,0.0
1775,74.0,0.0,15.0,0.0,0.0
1776,57.0,0.0,15.0,0.0,0.0
1777,66.0,0.0,15.0,0.0,0.0
1778,83.0,0.0,40.0,0.0,0.0
1779,78.0,0.0,15.0,0.0,0.0
1780,74.0,0.0,15.0,0.0,0.0
1781,50.0,0.0,15.0,0.0,0.0
1782,60.0,0.0,15.0,0.0,0.0
1783,78.0,16.0,15.0,0.0,0.0
1784,72.0,16.0,15.0,0.0,0.0
1785,66.0,14.0,15.0,0.0,0.0
1786,57.0,0.0,15.0,0.0,0.0
1787,78.0,0.0,15.0,0.0,0.0
1788,72.0,0.0,15.0,0.0,0.0
1789,78.0,6.0,15.0,0.0,0.0
1790,81.0,0.0,20.0,0.0,0.0
1791,51.0,0.0,15.0,0.0,0.0
1792,39.0,2.0,15.0,0.0,0.0
1793,40.0,2.0,15.0,0.0,0.0
1794,76.0,10.0,15.0,0.0,0.0
1795,71.0,0.0,15.0,0.0,0.0
1796,52.0,0.0,15.0,0.0,0.0
1797,71.0,12.0,15.0,0.0,0.0
1798,76.0,0.0,15.0,0.0,0.0
1799,79.0,0.0,15.0,0.0,0.0
1800,52.0,10.0,15.0,0.0,0.0
1801,59.0,0.0,15.0,0.0,0.0
1802,71.0,0.0,15.0,0.0,0.0
1803,76.0,0.0,15.0,0.0,0.0
1804,81.0,2.0,15.0,0.0,0.0
1805,55.0,6.0,15.0,0.0,0.0
1806,67.0,0.0,15.0,0.0,0.0
1807,71.0,0.0,15.0,0.0,0.0
1808,79.0,6.0,15.0,0.0,0.0
1809,76.0,0.0,15.0,0.0,0.0
1810,78.0,0.0,15.0,0.0,0.0
1811,59.0,2.0,15.0,0.0,0.0
1812,52.0,0.0,15.0,0.0,0.0
1813,76.0,10.0,15.0,0.0,0.0
1814,71.0,0.0,15.0,0.0,0.0
1815,71.0,12.0,15.0,0.0,0.0
1816,76.0,0.0,15.0,0.0,0.0
1817,79.0,0.0,15.0,0.0,0.0
1818,67.0,10.0,15.0,0.0,0.0
1819,55.0,0.0,15.0,0.0,0.0
1820,73.0,0.0,15.0,0.0,0.0
1821,71.0,2.0,15.0,0.0,0.0
1822,76.0,0.0,15.0,0.0,0.0
1823,81.0,0.0,15.0,0.0,0.0
1824,59.0,0.0,15.0,0.0,0.0
1825,52.0,18.0,15.0,0.0,0.0
1826,73.0,0.0,15.0,0.0,0.0
1827,76.0,0.0,15.0,0.0,0.0
1828,71.0,0.0,15.0,0.0,0.0
1829,83.0,4.0,15.0,0.0,0.0
1830,71.0,0.0,15.0,0.0,0.0
1831,42.0,0.0,15.0,0.0,0.0
1832,78.0,0.0,30.0,0.0,0.0
1833,74.0,0.0,15.0,0.0,0.0
1834,54.0,0.0,15.0,0.0,0.0
1835,66.0,16.0,15.0,0.0,0.0
1836,59.0,0.0,15.0,0.0,0.0
1837,50.0,0.0,15.0,0.0,0.0
1838,71.0,0.0,15.0,0.0,0.0
1839,66.0,16.0,15.0,0.0,0.0
1840,62.0,0.0,15.0,0.0,0.0
1841,54.0,0.0,15.0,0.0,0.0
1842,50.0,8.0,15.0,0.0,0.0
1843,59.0,0.0,15.0,0.0,0.0
1844,66.0,4.0,15.0,0.0,0.0
1845,71.0,0.0,15.0,0.0,0.0
1846,66.0,8.0,15.0,0.0,0.0
1847,62.0,0.0,15.0,0.0,0.0
1848,66.0,0.0,15.0,0.0,0.0
1849,76.0,0.0,15.0,0.0,0.0
1850,42.0,0.0,15.0,0.0,0.0
1851,54.0,4.0,15.0,0.0,0.0
1852,71.0,10.0,15.0,0.0,0.0
1853,66.0,0.0,15.0,0.0,0.0
1854,78.0,0.0,15.0,0.0,0.0
1855,30.0,16.0,15.0,0.0,0.0
1856,42.0,0.0,15.0,0.0,0.0
1857,79.0,14.0,90.0,0.0,0.0
1858,71.0,16.0,15.0,0.0,0.0
1859,67.0,0.0,15.0,0.0,0.0
1860,54.0,0.0,15.0,0.0,0.0
1861,71.0,0.0,15.0,0.0,0.0
1862,67.0,0.0,15.0,0.0,0.0
1863,64.0,0.0,15.0,0.0,0.0
1864,61.0,16.0,15.0,0.0,0.0
1865,54.0,0.0,15.0,0.0,0.0
1866,67.0,0.0,15.0,0.0,0.0
1867,70.0,0.0,15.0,0.0,0.0
1868,61.0,0.0,15.0,0.0,0.0
1869,64.0,0.0,15.0,0.0,0.0
1870,70.0,0.0,15.0,0.0,0.0
1871,67.0,0.0,15.0,0.0,0.0
1872,61.0,0.0,15.0,0.0,0.0
1873,54.0,0.0,15.0,0.0,0.0
1874,64.0,16.0,15.0,0.0,0.0
1875,35.0,0.0,15.0,0.0,0.0
1876,70.0,0.0,15.0,0.0,0.0
1877,66.0,0.0,15.0,0.0,0.0
1878,47.0,16.0,15.0,0.0,0.0
1879,54.0,0.0,15.0,0.0,0.0
1880,62.0,0.0,15.0,0.0,0.0
1881,66.0,0.0,15.0,0.0,0.0
1882,54.0,0.0,15.0,0.0,0.0
1883,59.0,0.0,15.0,0.0,0.0
1884,62.0,16.0,15.0,0.0,0.0
1885,66.0,0.0,15.0,0.0,0.0
1886,71.0,2.0,120.0,0.0,0.0
1887,47.0,0.0,15.0,0.0,0.0
1888,62.0,0.0,15.0,0.0,0.0
1889,66.0,16.0,15.0,0.0,0.0
1890,59.0,0.0,15.0,0.0,0.0
1891,54.0,0.0,15.0,0.0,0.0
1892,42.0,2.0,15.0,0.0,0.0
1893,66.0,16.0,15.0,0.0,0.0
1894,62.0,0.0,15.0,0.0,0.0
1895,35.0,0.0,15.0,0.0,0.0
1896,47.0,0.0,15.0,0.0,0.0
1897,54.0,0.0,15.0,0.0,0.0
1898,66.0,0.0,15.0,0.0,0.0
1899,66.0,0.0,15.0,0.0,0.0
1900,63.0,0.0,15.0,0.0,0.0
1901,54.0,16.0,15.0,0.0,0.0
1902,59.0,0.0,15.0,0.0,0.0
1903,63.0,0.0,15.0,0.0,0.0
1904,71.0,0.0,90.0,0.0,0.0
1905,47.0,0.0,15.0,0.0,0.0
1906,63.0,0.0,15.0,0.0,0.0
1907,59.0,0.0,15.0,0.0,0.0
1908,54.0,0.0,15.0,0.0,0.0
1909,66.0,16.0,15.0,0.0,0.0
1910,35.0,0.0,15.0,0.0,0.0
1911,47.0,2.0,15.0,0.0,0.0
1912,66.0,14.0,15.0,0.0,0.0
1913,63.0,16.0,15.0,0.0,0.0
1914,34.0,16.0,15.0,0.0,0.0
1915,63.0,0.0,15.0,0.0,0.0
1916,66.0,0.0,15.0,0.0,0.0
1917,46.0,0.0,15.0,0.0,0.0
1918,64.0,16.0,15.0,0.0,0.0
1919,67.0,0.0,15.0,0.0,0.0
1920,55.0,0.0,15.0,0.0,0.0
1921,52.0,0.0,15.0,0.0,0.0
1922,60.0,0.0,15.0,0.0,0.0
1923,72.0,16.0,90.0,0.0,0.0
1924,64.0,0.0,15.0,0.0,0.0
1925,55.0,0.0,15.0,0.0,0.0
1926,46.0,16.0,15.0,0.0,0.0
1927,67.0,16.0,15.0,0.0,0.0
1928,60.0,0.0,15.0,0.0,0.0
1929,52.0,0.0,15.0,0.0,0.0
1930,34.0,0.0,15.0,0.0,0.0
1931,46.0,2.0,15.0,0.0,0.0
1932,67.0,14.0,15.0,0.0,0.0
1933,64.0,0.0,15.0,0.0,0.0
1934,33.0,0.0,15.0,0.0,0.0
1935,45.0,0.0,15.0,0.0,0.0
1936,53.0,0.0,15.0,0.0,0.0
1937,65.0,16.0,15.0,0.0,0.0
1938,60.0,0.0,15.0,0.0,0.0
1939,60.0,0.0,15.0,0.0,0.0
1940,65.0,0.0,15.0,0.0,0.0
1941,72.0,0.0,15.0,0.0,0.0
1942,53.0,16.0,15.0,0.0,0.0
1943,45.0,0.0,15.0,0.0,0.0
1944,77.0,0.0,15.0,0.0,0.0
1945,81.0,0.0,30.0,0.0,0.0
1946,69.0,0.0,15.0,0.0,0.0
1947,72.0,16.0,15.0,0.0,0.0
1948,60.0,0.0,15.0,0.0,0.0
1949,77.0,0.0,15.0,0.0,0.0
1950,53.0,0.0,15.0,0.0,0.0
1951,45.0,2.0,15.0,0.0,0.0
1952,33.0,0.0,15.0,0.0,0.0
1953,86.0,0.0,15.0,0.0,0.0
1954,65.0,16.0,15.0,0.0,0.0
1955,74.0,0.0,15.0,0.0,0.0
1956,84.0,0.0,90.0,0.0,0.0
1957,52.0,0.0,15.0,0.0,0.0
1958,40.0,0.0,15.0,0.0,0.0
1959,79.0,16.0,15.0,0.0,0.0
1960,52.0,0.0,15.0,0.0,0.0
1961,72.0,0.0,15.0,0.0,0.0
1962,70.0,0.0,15.0,0.0,0.0
1963,60.0,16.0,15.0,0.0,0.0
1964,72.0,0.0,15.0,0.0,0.0
1965,55.0,0.0,15.0,0.0,0.0
1966,70.0,0.0,15.0,0.0,0.0
1967,67.0,16.0,15.0,0.0,0.0
1968,79.0,0.0,15.0,0.0,0.0
1969,72.0,0.0,15.0,0.0,0.0
1970,70.0,0.0,15.0,0.0,0.0
1971,60.0,0.0,15.0,0.0,0.0
1972,52.0,0.0,15.0,0.0,0.0
1973,79.0,0.0,15.0,0.0,0.0
1974,55.0,0.0,15.0,0.0,0.0
1975,67.0,0.0,15.0,0.0,0.0
1976,72.0,0.0,15.0,0.0,0.0
1977,70.0,8.0,15.0,0.0,0.0
1978,72.0,0.0,15.0,0.0,0.0
1979,79.0,0.0,15.0,0.0,0.0
1980,82.0,0.0,15.0,0.0,0.0
1981,52.0,2.0,15.0,0.0,0.0
1982,40.0,0.0,15.0,0.0,0.0
1983,70.0,6.0,15.0,0.0,0.0
1984,72.0,0.0,15.0,0.0,0.0
1985,81.0,16.0,15.0,0.0,0.0
1986,72.0,0.0,15.0,0.0,0.0
1987,41.0,0.0,15.0,0.0,0.0
1988,77.0,0.0,15.0,0.0,0.0
1989,81.0,2.0,150.0,0.0,0.0
1990,60.0,16.0,15.0,0.0,0.0
1991,69.0,16.0,15.0,0.0,0.0
1992,53.0,0.0,15.0,0.0,0.0
1993,77.0,0.0,15.0,0.0,0.0
1994,72.0,0.0,15.0,0.0,0.0
1995,65.0,0.0,15.0,0.0,0.0
1996,57.0,0.0,15.0,0.0,0.0
1997,69.0,0.0,15.0,0.0,0.0
1998,72.0,16.0,15.0,0.0,0.0
1999,53.0,0.0,15.0,0.0,0.0
2000,60.0,16.0,15.0,0.0,0.0
2001,69.0,0.0,15.0,0.0,0.0
2002,77.0,0.0,15.0,0.0,0.0
2003,69.0,0.0,15.0,0.0,0.0
2004,72.0,0.0,15.0,0.0,0.0
2005,57.0,14.0,15.0,0.0,0.0
2006,65.0,0.0,15.0,0.0,0.0
2007,77.0,0.0,15.0,0.0,0.0
2008,40.0,2.0,15.0,0.0,0.0
2009,52.0,0.0,15.0,0.0,0.0
2010,72.0,0.0,15.0,0.0,0.0
2011,69.0,16.0,15.0,0.0,0.0
2012,69.0,0.0,15.0,0.0,0.0
2013,51.0,0.0,15.0,0.0,0.0
2014,39.0,16.0,15.0,0.0,0.0
2015,69.0,0.0,15.0,0.0,0.0
2016,71.0,0.0,15.0,0.0,0.0
2017,78.0,0.0,15.0,0.0,0.0
2018,51.0,14.0,15.0,0.0,0.0
2019,59.0,0.0,15.0,0.0,0.0
2020,78.0,0.0,15.0,0.0,0.0
2021,69.0,0.0,15.0,0.0,0.0
2022,54.0,16.0,15.0,0.0,0.0
2023,71.0,0.0,15.0,0.0,0.0
2024,66.0,0.0,15.0,0.0,0.0
2025,59.0,16.0,15.0,0.0,0.0
2026,51.0,0.0,15.0,0.0,0.0
2027,69.0,0.0,15.0,0.0,0.0
2028,66.0,0.0,15.0,0.0,0.0
2029,54.0,14.0,15.0,0.0,0.0
2030,59.0,0.0,15.0,0.0,0.0
2031,69.0,6.0,15.0,0.0,0.0
2032,66.0,0.0,15.0,0.0,0.0
2033,39.0,0.0,15.0,0.0,0.0
2034,51.0,0.0,15.0,0.0,0.0
2035,67.0,0.0,15.0,0.0,0.0
2036,72.0,10.0,15.0,0.0,0.0
2037,40.0,0.0,15.0,0.0,0.0
2038,71.0,0.0,15.0,0.0,0.0
2039,67.0,12.0,15.0,0.0,0.0
2040,59.0,0.0,15.0,0.0,0.0
2041,52.0,2.0,15.0,0.0,0.0
2042,75.0,2.0,15.0,0.0,0.0
2043,71.0,0.0,15.0,0.0,0.0
2044,67.0,0.0,15.0,0.0,0.0
2045,64.0,0.0,15.0,0.0,0.0
2046,55.0,6.0,15.0,0.0,0.0
2047,71.0,0.0,15.0,0.0,0.0
2048,76.0,6.0,15.0,0.0,0.0
2049,67.0,0.0,15.0,0.0,0.0
2050,71.0,0.0,15.0,0.0,0.0
2051,76.0,0.0,15.0,0.0,0.0
2052,78.0,10.0,15.0,0.0,0.0
2053,59.0,0.0,15.0,0.0,0.0
2054,52.0,2.0,15.0,0.0,0.0
2055,67.0,0.0,15.0,0.0,0.0
2056,76.0,0.0,15.0,0.0,0.0
2057,79.0,0.0,15.0,0.0,0.0
2058,71.0,12.0,15.0,0.0,0.0
2059,55.0,10.0,15.0,0.0,0.0
2060,67.0,0.0,15.0,0.0,0.0
2061,76.0,2.0,15.0,0.0,0.0
2062,79.0,0.0,15.0,0.0,0.0
2063,88.0,0.0,15.0,0.0,0.0
2064,52.0,18.0,15.0,0.0,0.0
2065,40.0,0.0,15.0,0.0,0.0
2066,76.0,0.0,15.0,0.0,0.0
2067,79.0,4.0,15.0,0.0,0.0
2068,84.0,0.0,15.0,0.0,0.0
2069,83.0,0.0,60.0,0.0,0.0
2070,42.0,0.0,15.0,0.0,0.0
2071,75.0,0.0,15.0,0.0,0.0
2072,54.0,0.0,15.0,0.0,0.0
2073,59.0,0.0,15.0,0.0,0.0
2074,71.0,16.0,15.0,0.0,0.0
2075,69.0,0.0,15.0,0.0,0.0
2076,75.0,0.0,15.0,0.0,0.0
2077,71.0,16.0,15.0,0.0,0.0
2078,69.0,0.0,15.0,0.0,0.0
2079,66.0,0.0,15.0,0.0,0.0
2080,59.0,6.0,15.0,0.0,0.0
2081,71.0,0.0,15.0,0.0,0.0
2082,75.0,0.0,15.0,0.0,0.0
2083,69.0,6.0,15.0,0.0,0.0
2084,54.0,4.0,15.0,0.0,0.0
2085,59.0,0.0,15.0,0.0,0.0
2086,75.0,0.0,15.0,0.0,0.0
2087,69.0,0.0,15.0,0.0,0.0
2088,77.0,0.0,15.0,0.0,0.0
2089,71.0,4.0,15.0,0.0,0.0
2090,78.0,0.0,15.0,0.0,0.0
2091,59.0,0.0,15.0,0.0,0.0
2092,66.0,4.0,15.0,0.0,0.0
2093,69.0,8.0,15.0,0.0,0.0
2094,71.0,0.0,15.0,0.0,0.0
2095,75.0,0.0,15.0,0.0,0.0
2096,69.0,4.0,15.0,0.0,0.0
2097,71.0,0.0,15.0,0.0,0.0
2098,75.0,0.0,15.0,0.0,0.0
2099,83.0,0.0,15.0,0.0,0.0
2100,69.0,8.0,15.0,0.0,0.0
2101,71.0,0.0,15.0,0.0,0.0
2102,75.0,0.0,15.0,0.0,0.0
2103,81.0,0.0,15.0,0.0,0.0
2104,42.0,0.0,15.0,0.0,0.0
2105,54.0,18.0,15.0,0.0,0.0
2106,75.0,0.0,15.0,0.0,0.0
2107,79.0,0.0,15.0,0.0,0.0
2108,71.0,2.0,15.0,0.0,0.0
2109,79.0,2.0,40.0,0.0,0.0
2110,43.0,0.0,15.0,0.0,0.0
2111,76.0,0.0,15.0,0.0,0.0
2112,55.0,0.0,15.0,0.0,0.0
2113,64.0,0.0,15.0,0.0,0.0
2114,55.0,0.0,15.0,0.0,0.0
2115,71.0,16.0,15.0,0.0,0.0
2116,67.0,16.0,15.0,0.0,0.0
2117,71.0,14.0,15.0,0.0,0.0
2118,76.0,0.0,15.0,0.0,0.0
2119,59.0,0.0,15.0,0.0,0.0
2120,55.0,0.0,15.0,0.0,0.0
2121,76.0,0.0,15.0,0.0,0.0
2122,64.0,0.0,15.0,0.0,0.0
2123,67.0,14.0,15.0,0.0,0.0
2124,59.0,0.0,15.0,0.0,0.0
2125,76.0,0.0,15.0,0.0,0.0
2126,71.0,16.0,15.0,0.0,0.0
2127,76.0,16.0,15.0,0.0,0.0
2128,55.0,0.0,15.0,0.0,0.0
2129,71.0,0.0,15.0,0.0,0.0
2130,43.0,2.0,15.0,0.0,0.0
2131,57.0,0.0,15.0,0.0,0.0
2132,45.0,0.0,15.0,0.0,0.0
2133,66.0,0.0,15.0,0.0,0.0
2134,63.0,0.0,15.0,0.0,0.0
2135,57.0,16.0,15.0,0.0,0.0
2136,66.0,0.0,15.0,0.0,0.0
2137,72.0,16.0,15.0,0.0,0.0
2138,63.0,0.0,15.0,0.0,0.0
2139,69.0,0.0,15.0,0.0,0.0
2140,57.0,16.0,15.0,0.0,0.0
2141,66.0,0.0,15.0,0.0,0.0
2142,75.0,0.0,90.0,0.0,0.0
2143,72.0,16.0,15.0,0.0,0.0
2144,63.0,0.0,15.0,0.0,0.0
2145,72.0,0.0,15.0,0.0,0.0
2146,66.0,0.0,15.0,0.0,0.0
2147,69.0,0.0,15.0,0.0,0.0
2148,63.0,0.0,15.0,0.0,0.0
2149,57.0,2.0,15.0,0.0,0.0
2150,45.0,0.0,15.0,0.0,0.0
2151,72.0,16.0,15.0,0.0,0.0
2152,66.0,0.0,15.0,0.0,0.0
2153,55.0,0.0,15.0,0.0,0.0
2154,43.0,16.0,15.0,0.0,0.0
2155,71.0,0.0,15.0,0.0,0.0
2156,67.0,0.0,15.0,0.0,0.0
2157,52.0,0.0,15.0,0.0,0.0
2158,67.0,0.0,15.0,0.0,0.0
2159,64.0,0.0,15.0,0.0,0.0
2160,59.0,0.0,15.0,0.0,0.0
2161,71.0,0.0,15.0,0.0,0.0
2162,76.0,0.0,15.0,0.0,0.0
2163,67.0,16.0,15.0,0.0,0.0
2164,59.0,16.0,15.0,0.0,0.0
2165,52.0,0.0,15.0,0.0,0.0
2166,78.0,0.0,30.0,0.0,0.0
2167,64.0,0.0,15.0,0.0,0.0
2168,59.0,14.0,15.0,0.0,0.0
2169,71.0,0.0,15.0,0.0,0.0
2170,79.0,0.0,15.0,0.0,0.0
2171,71.0,0.0,15.0,0.0,0.0
2172,67.0,0.0,15.0,0.0,0.0
2173,40.0,2.0,15.0,0.0,0.0
2174,52.0,0.0,15.0,0.0,0.0
2175,39.0,0.0,15.0,0.0,0.0
2176,69.0,16.0,15.0,0.0,0.0
2177,71.0,0.0,15.0,0.0,0.0
2178,59.0,0.0,15.0,0.0,0.0
2179,51.0,0.0,15.0,0.0,0.0
2180,69.0,16.0,15.0,0.0,0.0
2181,71.0,0.0,15.0,0.0,0.0
2182,54.0,0.0,15.0,0.0,0.0
2183,66.0,0.0,15.0,0.0,0.0
2184,51.0,16.0,15.0,0.0,0.0
2185,69.0,0.0,15.0,0.0,0.0
2186,59.0,0.0,15.0,0.0,0.0
2187,71.0,16.0,15.0,0.0,0.0
2188,78.0,16.0,90.0,0.0,0.0
2189,54.0,0.0,15.0,0.0,0.0
2190,66.0,0.0,15.0,0.0,0.0
2191,71.0,14.0,15.0,0.0,0.0
2192,39.0,0.0,15.0,0.0,0.0
2193,51.0,2.0,15.0,0.0,0.0
2194,69.0,0.0,15.0,0.0,0.0
2195,40.0,0.0,15.0,0.0,0.0
2196,71.0,0.0,15.0,0.0,0.0
2197,67.0,0.0,15.0,0.0,0.0
2198,59.0,0.0,15.0,0.0,0.0
2199,52.0,16.0,15.0,0.0,0.0
2200,71.0,0.0,15.0,0.0,0.0
2201,67.0,0.0,15.0,0.0,0.0
2202,64.0,0.0,15.0,0.0,0.0
2203,55.0,0.0,15.0,0.0,0.0
2204,79.0,0.0,15.0,0.0,0.0
2205,52.0,0.0,15.0,0.0,0.0
2206,59.0,0.0,15.0,0.0,0.0
2207,76.0,0.0,15.0,0.0,0.0
2208,81.0,14.0,30.0,0.0,0.0
2209,67.0,0.0,15.0,0.0,0.0
2210,59.0,0.0,15.0,0.0,0.0
2211,55.0,0.0,15.0,0.0,0.0
2212,79.0,0.0,15.0,0.0,0.0
2213,76.0,0.0,15.0,0.0,0.0
2214,71.0,16.0,15.0,0.0,0.0
2215,40.0,0.0,15.0,0.0,0.0
2216,52.0,2.0,15.0,0.0,0.0
2217,71.0,0.0,15.0,0.0,0.0
2218,83.0,0.0,15.0,0.0,0.0
2219,79.0,0.0,15.0,0.0,0.0
2220,76.0,16.0,15.0,0.0,0.0
2221,72.0,16.0,15.0,0.0,0.0
2222,83.0,0.0,30.0,0.0,0.0
2223,33.0,0.0,15.0,0.0,0.0
2224,45.0,0.0,15.0,0.0,0.0
2225,57.0,0.0,15.0,0.0,0.0
2226,60.0,0.0,15.0,0.0,0.0
2227,76.0,0.0,15.0,0.0,0.0
2228,79.0,16.0,15.0,0.0,0.0
2229,81.0,0.0,15.0,0.0,0.0
2230,72.0,0.0,15.0,0.0,0.0
2231,64.0,0.0,15.0,0.0,0.0
2232,67.0,0.0,15.0,0.0,0.0
2233,57.0,16.0,15.0,0.0,0.0
2234,60.0,0.0,15.0,0.0,0.0
2235,64.0,0.0,15.0,0.0,0.0
2236,84.0,14.0,30.0,0.0,0.0
2237,67.0,0.0,15.0,0.0,0.0
2238,79.0,0.0,15.0,0.0,0.0
2239,76.0,0.0,15.0,0.0,0.0
2240,72.0,0.0,15.0,0.0,0.0
2241,64.0,0.0,15.0,0.0,0.0
2242,60.0,0.0,15.0,0.0,0.0
2243,72.0,0.0,15.0,0.0,0.0
2244,76.0,0.0,15.0,0.0,0.0
2245,33.0,2.0,15.0,0.0,0.0
2246,45.0,0.0,15.0,0.0,0.0
2247,69.0,16.0,15.0,0.0,0.0
2248,36.0,16.0,15.0,0.0,0.0
2249,48.0,0.0,15.0,0.0,0.0
2250,72.0,0.0,15.0,0.0,0.0
2251,76.0,0.0,15.0,0.0,0.0
2252,78.0,0.0,30.0,0.0,0.0
2253,64.0,16.0,15.0,0.0,0.0
2254,60.0,0.0,15.0,0.0,0.0
2255,57.0,0.0,15.0,0.0,0.0
2256,76.0,0.0,15.0,0.0,0.0
2257,72.0,0.0,15.0,0.0,0.0
2258,69.0,0.0,15.0,0.0,0.0
2259,67.0,0.0,15.0,0.0,0.0
2260,79.0,0.0,15.0,0.0,0.0
2261,64.0,0.0,15.0,0.0,0.0
2262,76.0,0.0,15.0,0.0,0.0
2263,72.0,0.0,15.0,0.0,0.0
2264,60.0,0.0,15.0,0.0,0.0
2265,57.0,0.0,15.0,0.0,0.0
2266,72.0,0.0,15.0,0.0,0.0
2267,76.0,6.0,15.0,0.0,0.0
2268,81.0,0.0,15.0,0.0,0.0
2269,79.0,0.0,15.0,0.0,0.0
2270,76.0,7.0,15.0,0.0,0.0
2271,72.0,0.0,15.0,0.0,0.0
2272,67.0,0.0,15.0,0.0,0.0
2273,64.0,1.0,15.0,0.0,0.0
2274,60.0,0.0,15.0,0.0,0.0
2275,72.0,7.0,15.0,0.0,0.0
2276,76.0,0.0,15.0,0.0,0.0
2277,78.0,0.0,15.0,0.0,0.0
2278,79.0,0.0,15.0,0.0,0.0
2279,76.0,0.0,15.0,0.0,0.0
2280,72.0,1.0,15.0,0.0,0.0
2281,48.0,0.0,15.0,0.0,0.0
2282,36.0,18.0,15.0,0.0,0.0
2283,76.0,7.0,15.0,0.0,0.0
2284,79.0,0.0,15.0,0.0,0.0
2285,83.0,0.0,15.0,0.0,0.0
2286,72.0,0.0,15.0,0.0,0.0
2287,76.0,0.0,15.0,0.0,0.0
2288,72.0,1.0,15.0,0.0,0.0
2289,81.0,0.0,15.0,0.0,0.0
2290,79.0,0.0,15.0,0.0,0.0
2291,78.0,0.0,180.0,0.0,0.0
2292,38.0,0.0,15.0,0.0,0.0
2293,50.0,0.0,15.0,0.0,0.0
2294,74.0,0.0,15.0,0.0,0.0
2295,72.0,0.0,15.0,0.0,0.0
2296,69.0,16.0,15.0,0.0,0.0
2297,60.0,0.0,15.0,0.0,0.0
2298,74.0,0.0,15.0,0.0,0.0
2299,72.0,16.0,15.0,0.0,0.0
2300,66.0,0.0,15.0,0.0,0.0
2301,57.0,0.0,15.0,0.0,0.0
2302,50.0,16.0,15.0,0.0,0.0
2303,74.0,0.0,15.0,0.0,0.0
2304,72.0,16.0,15.0,0.0,0.0
2305,69.0,0.0,15.0,0.0,0.0
2306,60.0,0.0,15.0,0.0,0.0
2307,74.0,0.0,15.0,0.0,0.0
2308,66.0,0.0,15.0,0.0,0.0
2309,57.0,0.0,15.0,0.0,0.0
2310,69.0,14.0,15.0,0.0,0.0
2311,50.0,0.0,15.0,0.0,0.0
2312,38.0,2.0,15.0,0.0,0.0
2313,72.0,0.0,15.0,0.0,0.0
2314,69.0,0.0,15.0,0.0,0.0
2315,39.0,0.0,15.0,0.0,0.0
2316,59.0,16.0,15.0,0.0,0.0
2317,51.0,0.0,15.0,0.0,0.0
2318,71.0,16.0,15.0,0.0,0.0
2319,69.0,0.0,15.0,0.0,0.0
2320,71.0,0.0,15.0,0.0,0.0
2321,69.0,0.0,15.0,0.0,0.0
2322,54.0,0.0,15.0,0.0,0.0
2323,66.0,16.0,15.0,0.0,0.0
2324,71.0,0.0,15.0,0.0,0.0
2325,51.0,0.0,15.0,0.0,0.0
2326,59.0,16.0,15.0,0.0,0.0
2327,72.0,0.0,15.0,0.0,0.0
2328,69.0,0.0,15.0,0.0,0.0
2329,66.0,0.0,15.0,0.0,0.0
2330,54.0,14.0,15.0,0.0,0.0
2331,69.0,0.0,15.0,0.0,0.0
2332,71.0,0.0,15.0,0.0,0.0
2333,39.0,0.0,15.0,0.0,0.0
2334,51.0,18.0,15.0,0.0,0.0
2335,40.0,0.0,15.0,0.0,0.0
2336,68.0,0.0,15.0,0.0,0.0
2337,76.0,0.0,15.0,0.0,0.0
2338,80.0,0.0,15.0,0.0,0.0
2339,52.0,0.0,15.0,0.0,0.0
2340,59.0,0.0,15.0,0.0,0.0
2341,64.0,0.0,15.0,0.0,0.0
2342,71.0,0.0,15.0,0.0,0.0
2343,74.0,16.0,15.0,0.0,0.0
2344,68.0,0.0,15.0,0.0,0.0
2345,64.0,0.0,15.0,0.0,0.0
2346,62.0,16.0,15.0,0.0,0.0
2347,80.0,0.0,15.0,0.0,0.0
2348,76.0,0.0,15.0,0.0,0.0
2349,74.0,0.0,15.0,0.0,0.0
2350,71.0,0.0,15.0,0.0,0.0
2351,59.0,0.0,15.0,0.0,0.0
2352,83.0,0.0,40.0,0.0,0.0
2353,64.0,0.0,15.0,0.0,0.0
2354,80.0,16.0,15.0,0.0,0.0
2355,76.0,0.0,15.0,0.0,0.0
2356,74.0,0.0,15.0,0.0,0.0
2357,62.0,0.0,15.0,0.0,0.0
2358,62.0,0.0,15.0,0.0,0.0
2359,68.0,14.0,15.0,0.0,0.0
2360,64.0,0.0,15.0,0.0,0.0
2361,74.0,0.0,15.0,0.0,0.0
2362,76.0,0.0,15.0,0.0,0.0
2363,80.0,0.0,15.0,0.0,0.0
2364,40.0,2.0,15.0,0.0,0.0
2365,52.0,0.0,15.0,0.0,0.0
2366,74.0,0.0,15.0,0.0,0.0
2367,76.0,0.0,15.0,0.0,0.0
2368,76.0,0.0,15.0,0.0,0.0
2369,80.0,16.0,15.0,0.0,0.0
2370,45.0,0.0,15.0,0.0,0.0
2371,72.0,16.0,15.0,0.0,0.0
2372,57.0,0.0,15.0,0.0,0.0
2373,76.0,0.0,15.0,0.0,0.0
2374,80.0,0.0,15.0,0.0,0.0
2375,68.0,0.0,15.0,0.0,0.0
2376,64.0,16.0,15.0,0.0,0.0
2377,60.0,0.0,15.0,0.0,0.0
2378,76.0,16.0,15.0,0.0,0.0
2379,64.0,0.0,15.0,0.0,0.0
2380,57.0,0.0,15.0,0.0,0.0
2381,84.0,0.0,40.0,0.0,0.0
2382,60.0,0.0,15.0,0.0,0.0
2383,81.0,0.0,15.0,0.0,0.0
2384,72.0,0.0,15.0,0.0,0.0
2385,76.0,16.0,15.0,0.0,0.0
2386,60.0,0.0,15.0,0.0,0.0
2387,64.0,0.0,15.0,0.0,0.0
2388,69.0,0.0,15.0,0.0,0.0
2389,81.0,0.0,15.0,0.0,0.0
2390,72.0,0.0,15.0,0.0,0.0
2391,72.0,16.0,15.0,0.0,0.0
2392,76.0,14.0,15.0,0.0,0.0
2393,45.0,0.0,15.0,0.0,0.0
2394,57.0,2.0,15.0,0.0,0.0
2395,81.0,0.0,15.0,0.0,0.0
2396,38.0,0.0,15.0,0.0,0.0
2397,50.0,0.0,15.0,0.0,0.0
2398,79.0,16.0,15.0,0.0,0.0
2399,76.0,0.0,15.0,0.0,0.0
2400,72.0,0.0,15.0,0.0,0.0
2401,57.0,0.0,15.0,0.0,0.0
2402,60.0,0.0,15.0,0.0,0.0
2403,76.0,0.0,15.0,0.0,0.0
2404,79.0,0.0,15.0,0.0,0.0
2405,83.0,0.0,15.0,0.0,0.0
2406,72.0,0.0,15.0,0.0,0.0
2407,79.0,0.0,15.0,0.0,0.0
2408,67.0,0.0,15.0,0.0,0.0
2409,64.0,16.0,15.0,0.0,0.0
2410,60.0,16.0,15.0,0.0,0.0
2411,72.0,0.0,15.0,0.0,0.0
2412,79.0,0.0,15.0,0.0,0.0
2413,76.0,0.0,15.0,0.0,0.0
2414,60.0,0.0,15.0,0.0,0.0
2415,57.0,16.0,15.0,0.0,0.0
2416,64.0,0.0,15.0,0.0,0.0
2417,78.0,0.0,15.0,0.0,0.0
2418,60.0,0.0,15.0,0.0,0.0
2419,62.0,0.0,15.0,0.0,0.0
2420,66.0,0.0,15.0,0.0,0.0
2421,50.0,0.0,15.0,0.0,0.0
2422,38.0,2.0,15.0,0.0,0.0
2423,72.0,0.0,15.0,0.0,0.0
2424,74.0,14.0,15.0,0.0,0.0
2425,81.0,0.0,20.0,0.0,0.0
2426,71.0,10.0,15.0,0.0,0.0
2427,74.0,0.0,15.0,0.0,0.0
2428,78.0,6.0,15.0,0.0,0.0
2429,55.0,0.0,15.0,0.0,0.0
2430,43.0,2.0,15.0,0.0,0.0
2431,71.0,12.0,15.0,0.0,0.0
2432,74.0,0.0,15.0,0.0,0.0
2433,79.0,0.0,15.0,0.0,0.0
2434,62.0,0.0,15.0,0.0,0.0
2435,55.0,0.0,15.0,0.0,0.0
2436,71.0,0.0,15.0,0.0,0.0
2437,74.0,0.0,15.0,0.0,0.0
2438,81.0,2.0,15.0,0.0,0.0
2439,59.0,10.0,15.0,0.0,0.0
2440,66.0,6.0,15.0,0.0,0.0
2441,71.0,6.0,15.0,0.0,0.0
2442,79.0,0.0,15.0,0.0,0.0
2443,74.0,0.0,15.0,0.0,0.0
2444,55.0,2.0,15.0,0.0,0.0
2445,59.0,0.0,15.0,0.0,0.0
2446,62.0,0.0,15.0,0.0,0.0
2447,71.0,0.0,15.0,0.0,0.0
2448,78.0,10.0,15.0,0.0,0.0
2449,74.0,0.0,15.0,0.0,0.0
2450,71.0,12.0,15.0,0.0,0.0
2451,74.0,0.0,15.0,0.0,0.0
2452,79.0,0.0,15.0,0.0,0.0
2453,62.0,0.0,15.0,0.0,0.0
2454,59.0,0.0,15.0,0.0,0.0
2455,66.0,10.0,15.0,0.0,0.0
2456,71.0,2.0,15.0,0.0,0.0
2457,74.0,0.0,15.0,0.0,0.0
2458,81.0,0.0,15.0,0.0,0.0
2459,55.0,0.0,15.0,0.0,0.0
2460,43.0,2.0,15.0,0.0,0.0
2461,71.0,4.0,15.0,0.0,0.0
2462,83.0,0.0,15.0,0.0,0.0
2463,74.0,0.0,15.0,0.0,0.0
2464,83.0,0.0,15.0,0.0,0.0
2465,76.0,0.0,15.0,0.0,0.0
2466,36.0,0.0,15.0,0.0,0.0
2467,48.0,0.0,15.0,0.0,0.0
2468,71.0,16.0,15.0,0.0,0.0
2469,76.0,0.0,40.0,0.0,0.0
2470,72.0,16.0,15.0,0.0,0.0
2471,52.0,16.0,15.0,0.0,0.0
2472,60.0,0.0,15.0,0.0,0.0
2473,55.0,0.0,15.0,0.0,0.0
2474,71.0,0.0,15.0,0.0,0.0
2475,55.0,16.0,15.0,0.0,0.0
2476,64.0,0.0,15.0,0.0,0.0
2477,60.0,0.0,15.0,0.0,0.0
2478,72.0,0.0,15.0,0.0,0.0
2479,71.0,0.0,15.0,0.0,0.0
2480,76.0,0.0,30.0,0.0,0.0
2481,52.0,0.0,15.0,0.0,0.0
2482,60.0,0.0,15.0,0.0,0.0
2483,55.0,0.0,15.0,0.0,0.0
2484,71.0,0.0,15.0,0.0,0.0
2485,72.0,16.0,15.0,0.0,0.0
2486,60.0,14.0,15.0,0.0,0.0
2487,64.0,0.0,15.0,0.0,0.0
2488,48.0,2.0,15.0,0.0,0.0
2489,71.0,0.0,15.0,0.0,0.0
2490,72.0,0.0,15.0,0.0,0.0
2491,36.0,0.0,15.0,0.0,0.0
2492,42.0,16.0,15.0,0.0,0.0
2493,72.0,0.0,15.0,0.0,0.0
2494,76.0,16.0,15.0,0.0,0.0
2495,60.0,0.0,15.0,0.0,0.0
2496,57.0,0.0,15.0,0.0,0.0
2497,69.0,0.0,15.0,0.0,0.0
2498,54.0,0.0,15.0,0.0,0.0
2499,72.0,0.0,15.0,0.0,0.0
2500,57.0,0.0,15.0,0.0,0.0
2501,64.0,16.0,15.0,0.0,0.0
2502,76.0,0.0,15.0,0.0,0.0
2503,72.0,0.0,15.0,0.0,0.0
2504,69.0,0.0,15.0,0.0,0.0
2505,60.0,0.0,15.0,0.0,0.0
2506,54.0,0.0,15.0,0.0,0.0
2507,81.0,0.0,30.0,0.0,0.0
2508,76.0,0.0,15.0,0.0,0.0
2509,72.0,0.0,15.0,0.0,0.0
2510,69.0,0.0,15.0,0.0,0.0
2511,57.0,16.0,15.0,0.0,0.0
2512,64.0,0.0,15.0,0.0,0.0
2513,60.0,14.0,15.0,0.0,0.0
2514,72.0,0.0,15.0,0.0,0.0
2515,69.0,16.0,15.0,0.0,0.0
2516,76.0,0.0,15.0,0.0,0.0
2517,79.0,0.0,15.0,0.0,0.0
2518,54.0,0.0,15.0,0.0,0.0
2519,42.0,2.0,15.0,0.0,0.0
2520,47.0,0.0,15.0,0.0,0.0
2521,35.0,0.0,15.0,0.0,0.0
2522,79.0,14.0,90.0,0.0,0.0
2523,76.0,0.0,15.0,0.0,0.0
2524,60.0,0.0,15.0,0.0,0.0
2525,57.0,0.0,15.0,0.0,0.0
2526,54.0,16.0,15.0,0.0,0.0
2527,72.0,16.0,15.0,0.0,0.0
2528,69.0,0.0,15.0,0.0,0.0
2529,76.0,0.0,15.0,0.0,0.0
2530,72.0,0.0,15.0,0.0,0.0
2531,69.0,16.0,15.0,0.0,0.0
2532,64.0,0.0,15.0,0.0,0.0
2533,60.0,0.0,15.0,0.0,0.0
2534,57.0,0.0,15.0,0.0,0.0
2535,59.0,0.0,15.0,0.0,0.0
2536,54.0,0.0,15.0,0.0,0.0
2537,71.0,0.0,15.0,0.0,0.0
2538,63.0,0.0,15.0,0.0,0.0
2539,75.0,16.0,15.0,0.0,0.0
2540,59.0,0.0,15.0,0.0,0.0
2541,69.0,0.0,15.0,0.0,0.0
2542,71.0,0.0,15.0,0.0,0.0
2543,78.0,0.0,30.0,0.0,0.0
2544,75.0,10.0,15.0,0.0,0.0
2545,47.0,2.0,15.0,0.0,0.0
2546,35.0,0.0,15.0,0.0,0.0
2547,71.0,0.0,15.0,0.0,0.0
2548,69.0,0.0,15.0,0.0,0.0
2549,72.0,0.0,15.0,0.0,0.0
2550,36.0,0.0,15.0,0.0,0.0
2551,48.0,2.0,15.0,0.0,0.0
2552,67.0,6.0,15.0,0.0,0.0
2553,76.0,12.0,15.0,0.0,0.0
2554,72.0,0.0,15.0,0.0,0.0
2555,67.0,0.0,15.0,0.0,0.0
2556,52.0,0.0,15.0,0.0,0.0
2557,78.0,0.0,15.0,0.0,0.0
2558,72.0,2.0,15.0,0.0,0.0
2559,67.0,0.0,15.0,0.0,0.0
2560,55.0,0.0,15.0,0.0,0.0
2561,60.0,10.0,15.0,0.0,0.0
2562,64.0,6.0,15.0,0.0,0.0
2563,76.0,6.0,15.0,0.0,0.0
2564,72.0,0.0,15.0,0.0,0.0
2565,67.0,0.0,15.0,0.0,0.0
2566,52.0,0.0,15.0,0.0,0.0
2567,75.0,10.0,15.0,0.0,0.0
2568,72.0,0.0,15.0,0.0,0.0
2569,67.0,0.0,15.0,0.0,0.0
2570,67.0,0.0,15.0,0.0,0.0
2571,72.0,12.0,15.0,0.0,0.0
2572,76.0,0.0,15.0,0.0,0.0
2573,55.0,0.0,15.0,0.0,0.0
2574,60.0,2.0,15.0,0.0,0.0
2575,64.0,10.0,15.0,0.0,0.0
2576,67.0,2.0,15.0,0.0,0.0
2577,72.0,0.0,15.0,0.0,0.0
2578,78.0,0.0,15.0,0.0,0.0
2579,60.0,0.0,15.0,0.0,0.0
2580,48.0,18.0,15.0,0.0,0.0
2581,79.0,0.0,15.0,0.0,0.0
2582,67.0,0.0,15.0,0.0,0.0
2583,72.0,4.0,15.0,0.0,0.0
2584,31.0,0.0,15.0,0.0,0.0
2585,71.0,0.0,40.0,0.0,0.0
2586,59.0,0.0,15.0,0.0,0.0
2587,43.0,0.0,15.0,0.0,0.0
2588,55.0,0.0,15.0,0.0,0.0
2589,64.0,16.0,15.0,0.0,0.0
2590,67.0,16.0,15.0,0.0,0.0
2591,59.0,0.0,15.0,0.0,0.0
2592,64.0,2.0,15.0,0.0,0.0
2593,55.0,0.0,15.0,0.0,0.0
2594,64.0,0.0,15.0,0.0,0.0
2595,88.0,0.0,40.0,0.0,0.0
2596,76.0,16.0,15.0,0.0,0.0
2597,59.0,0.0,15.0,0.0,0.0
2598,83.0,0.0,15.0,0.0,0.0
2599,59.0,0.0,15.0,0.0,0.0
2600,83.0,0.0,15.0,0.0,0.0
2601,71.0,0.0,15.0,0.0,0.0
2602,64.0,14.0,15.0,0.0,0.0
2603,76.0,0.0,15.0,0.0,0.0
2604,31.0,2.0,15.0,0.0,0.0
2605,43.0,0.0,15.0,0.0,0.0
2606,76.0,12.0,15.0,0.0,0.0
2607,83.0,0.0,15.0,0.0,0.0
2608,88.0,0.0,15.0,0.0,0.0
2609,78.0,0.0,15.0,0.0,0.0
2610,33.0,0.0,15.0,0.0,0.0
2611,45.0,8.0,15.0,0.0,0.0
2612,76.0,4.0,15.0,0.0,0.0
2613,76.0,8.0,15.0,0.0,0.0
2614,78.0,0.0,15.0,0.0,0.0
2615,87.0,0.0,15.0,0.0,0.0
2616,66.0,0.0,15.0,0.0,0.0
2617,57.0,0.0,15.0,0.0,0.0
2618,78.0,0.0,15.0,0.0,0.0
2619,86.0,0.0,15.0,0.0,0.0
2620,64.0,4.0,15.0,0.0,0.0
2621,66.0,0.0,15.0,0.0,0.0
2622,69.0,0.0,15.0,0.0,0.0
2623,85.0,0.0,15.0,0.0,0.0
2624,76.0,12.0,15.0,0.0,0.0
2625,57.0,0.0,15.0,0.0,0.0
2626,84.0,0.0,15.0,0.0,0.0
2627,78.0,0.0,15.0,0.0,0.0
2628,76.0,0.0,15.0,0.0,0.0
2629,64.0,12.0,15.0,0.0,0.0
2630,76.0,4.0,15.0,0.0,0.0
2631,81.0,8.0,15.0,0.0,0.0
2632,72.0,0.0,15.0,0.0,0.0
2633,66.0,8.0,15.0,0.0,0.0
2634,64.0,0.0,15.0,0.0,0.0
2635,76.0,0.0,15.0,0.0,0.0
2636,69.0,0.0,15.0,0.0,0.0
2637,45.0,2.0,15.0,0.0,0.0
2638,33.0,0.0,15.0,0.0,0.0
2639,72.0,0.0,15.0,0.0,0.0
2640,76.0,10.0,15.0,0.0,0.0
2641,78.0,0.0,15.0,0.0,0.0
2642,69.0,0.0,15.0,0.0,0.0
2643,47.0,8.0,15.0,0.0,0.0
2644,35.0,0.0,15.0,0.0,0.0
2645,80.0,0.0,15.0,0.0,0.0
2646,76.0,12.0,15.0,0.0,0.0
2647,68.0,4.0,15.0,0.0,0.0
2648,74.0,0.0,15.0,0.0,0.0
2649,69.0,0.0,15.0,0.0,0.0
2650,81.0,8.0,15.0,0.0,0.0
2651,76.0,0.0,15.0,0.0,0.0
2652,64.0,0.0,15.0,0.0,0.0
2653,59.0,4.0,15.0,0.0,0.0
2654,74.0,0.0,15.0,0.0,0.0
2655,68.0,0.0,15.0,0.0,0.0
2656,76.0,0.0,15.0,0.0,0.0
2657,80.0,12.0,15.0,0.0,0.0
2658,71.0,0.0,15.0,0.0,0.0
2659,64.0,0.0,15.0,0.0,0.0
2660,78.0,12.0,15.0,0.0,0.0
2661,66.0,0.0,15.0,0.0,0.0
2662,68.0,0.0,15.0,0.0,0.0
2663,74.0,0.0,15.0,0.0,0.0
2664,76.0,0.0,15.0,0.0,0.0
2665,80.0,4.0,15.0,0.0,0.0
2666,59.0,0.0,15.0,0.0,0.0
2667,76.0,0.0,15.0,0.0,0.0
2668,74.0,0.0,15.0,0.0,0.0
2669,81.0,0.0,15.0,0.0,0.0
2670,71.0,4.0,15.0,0.0,0.0
2671,64.0,8.0,15.0,0.0,0.0
2672,74.0,8.0,15.0,0.0,0.0
2673,76.0,0.0,15.0,0.0,0.0
2674,80.0,0.0,15.0,0.0,0.0
2675,84.0,10.0,15.0,0.0,0.0
2676,35.0,2.0,15.0,0.0,0.0
2677,47.0,0.0,15.0,0.0,0.0
2678,74.0,0.0,15.0,0.0,0.0
2679,80.0,0.0,15.0,0.0,0.0
2680,83.0,0.0,15.0,0.0,0.0
2681,69.0,4.0,15.0,0.0,0.0
2682,36.0,8.0,15.0,0.0,0.0
2683,76.0,12.0,15.0,0.0,0.0
2684,48.0,0.0,15.0,0.0,0.0
2685,69.0,0.0,15.0,0.0,0.0
2686,80.0,0.0,15.0,0.0,0.0
2687,57.0,4.0,15.0,0.0,0.0
2688,76.0,8.0,15.0,0.0,0.0
2689,81.0,0.0,15.0,0.0,0.0
2690,69.0,12.0,15.0,0.0,0.0
2691,64.0,0.0,15.0,0.0,0.0
2692,81.0,0.0,15.0,0.0,0.0
2693,83.0,12.0,15.0,0.0,0.0
2694,57.0,8.0,15.0,0.0,0.0
2695,64.0,0.0,15.0,0.0,0.0
2696,86.0,4.0,15.0,0.0,0.0
2697,78.0,0.0,15.0,0.0,0.0
2698,84.0,8.0,15.0,0.0,0.0
2699,76.0,0.0,15.0,0.0,0.0
2700,66.0,0.0,15.0,0.0,0.0
2701,64.0,4.0,15.0,0.0,0.0
2702,72.0,0.0,15.0,0.0,0.0
2703,48.0,0.0,15.0,0.0,0.0
2704,36.0,2.0,15.0,0.0,0.0
2705,76.0,0.0,15.0,0.0,0.0
2706,69.0,10.0,15.0,0.0,0.0
2707,78.0,16.0,15.0,0.0,0.0
2708,71.0,0.0,15.0,0.0,0.0
2709,79.0,2.0,40.0,0.0,0.0
2710,76.0,0.0,15.0,0.0,0.0
2711,67.0,0.0,15.0,0.0,0.0
2712,35.0,0.0,15.0,0.0,0.0
2713,47.0,16.0,15.0,0.0,0.0
2714,52.0,14.0,15.0,0.0,0.0
2715,67.0,0.0,15.0,0.0,0.0
2716,71.0,0.0,15.0,0.0,0.0
2717,76.0,0.0,15.0,0.0,0.0
2718,59.0,0.0,15.0,0.0,0.0
2719,64.0,0.0,15.0,0.0,0.0
2720,71.0,0.0,15.0,0.0,0.0
2721,76.0,0.0,15.0,0.0,0.0
2722,59.0,0.0,15.0,0.0,0.0
2723,67.0,16.0,15.0,0.0,0.0
2724,76.0,0.0,15.0,0.0,0.0
2725,52.0,0.0,15.0,0.0,0.0
2726,67.0,16.0,15.0,0.0,0.0
2727,71.0,0.0,15.0,0.0,0.0
2728,76.0,0.0,15.0,0.0,0.0
2729,64.0,0.0,15.0,0.0,0.0
2730,59.0,0.0,15.0,0.0,0.0
2731,52.0,0.0,15.0,0.0,0.0
2732,59.0,3.0,15.0,0.0,0.0
2733,67.0,0.0,15.0,0.0,0.0
2734,71.0,0.0,15.0,0.0,0.0
2735,76.0,6.0,15.0,0.0,0.0
2736,71.0,5.0,15.0,0.0,0.0
2737,78.0,0.0,15.0,0.0,0.0
2738,67.0,0.0,15.0,0.0,0.0
2739,71.0,0.0,15.0,0.0,0.0
2740,67.0,0.0,15.0,0.0,0.0
2741,76.0,0.0,15.0,0.0,0.0
2742,66.0,0.0,15.0,0.0,0.0
2743,71.0,2.0,90.0,0.0,0.0
2744,35.0,0.0,15.0,0.0,0.0
2745,64.0,0.0,15.0,0.0,0.0
2746,54.0,0.0,15.0,0.0,0.0
2747,47.0,16.0,15.0,0.0,0.0
2748,66.0,16.0,15.0,0.0,0.0
2749,64.0,0.0,15.0,0.0,0.0
2750,54.0,0.0,15.0,0.0,0.0
2751,59.0,16.0,15.0,0.0,0.0
2752,47.0,0.0,15.0,0.0,0.0
2753,54.0,14.0,15.0,0.0,0.0
2754,66.0,0.0,15.0,0.0,0.0
2755,63.0,0.0,15.0,0.0,0.0
2756,59.0,0.0,15.0,0.0,0.0
2757,54.0,0.0,15.0,0.0,0.0
2758,71.0,0.0,15.0,0.0,0.0
2759,66.0,3.0,15.0,0.0,0.0
2760,63.0,0.0,15.0,0.0,0.0
2761,47.0,0.0,15.0,0.0,0.0
2762,63.0,0.0,15.0,0.0,0.0
2763,66.0,5.0,15.0,0.0,0.0
2764,72.0,0.0,15.0,0.0,0.0
2765,63.0,0.0,15.0,0.0,0.0
2766,66.0,18.0,15.0,0.0,0.0
2767,71.0,0.0,15.0,0.0,0.0
2768,34.0,16.0,15.0,0.0,0.0
2769,46.0,0.0,15.0,0.0,0.0
2770,55.0,0.0,15.0,0.0,0.0
2771,60.0,0.0,15.0,0.0,0.0
2772,64.0,4.0,120.0,0.0,0.0
2773,46.0,16.0,15.0,0.0,0.0
2774,55.0,0.0,15.0,0.0,0.0
2775,52.0,16.0,15.0,0.0,0.0
2776,60.0,0.0,15.0,0.0,0.0
2777,46.0,16.0,15.0,0.0,0.0
2778,55.0,0.0,15.0,0.0,0.0
2779,52.0,0.0,15.0,0.0,0.0
2780,60.0,14.0,15.0,0.0,0.0
2781,46.0,14.0,15.0,0.0,0.0
2782,55.0,0.0,15.0,0.0,0.0
2783,33.0,8.0,15.0,0.0,0.0
2784,65.0,8.0,15.0,0.0,0.0
2785,53.0,0.0,15.0,0.0,0.0
2786,45.0,0.0,15.0,0.0,0.0
2787,69.0,12.0,15.0,0.0,0.0
2788,60.0,12.0,15.0,0.0,0.0
2789,72.0,0.0,15.0,0.0,0.0
2790,53.0,0.0,15.0,0.0,0.0
2791,45.0,8.0,15.0,0.0,0.0
2792,77.0,4.0,15.0,0.0,0.0
2793,80.0,8.0,15.0,0.0,0.0
2794,60.0,0.0,15.0,0.0,0.0
2795,81.0,10.0,15.0,0.0,0.0
2796,53.0,4.0,15.0,0.0,0.0
2797,45.0,2.0,15.0,0.0,0.0
2798,84.0,16.0,15.0,0.0,0.0
2799,35.0,16.0,15.0,0.0,0.0
2800,63.0,4.0,120.0,0.0,0.0
2801,47.0,0.0,15.0,0.0,0.0
2802,47.0,16.0,15.0,0.0,0.0
2803,54.0,0.0,15.0,0.0,0.0
2804,54.0,16.0,15.0,0.0,0.0
2805,57.0,0.0,15.0,0.0,0.0
2806,57.0,0.0,15.0,0.0,0.0
2807,57.0,14.0,15.0,0.0,0.0
2808,60.0,16.0,15.0,0.0,0.0
2809,57.0,0.0,15.0,0.0,0.0
2810,60.0,14.0,15.0,0.0,0.0
2811,35.0,8.0,15.0,0.0,0.0
2812,47.0,0.0,15.0,0.0,0.0
2813,72.0,8.0,15.0,0.0,0.0
2814,47.0,4.0,15.0,0.0,0.0
2815,54.0,0.0,15.0,0.0,0.0
2816,71.0,12.0,15.0,0.0,0.0
2817,57.0,0.0,15.0,0.0,0.0
2818,54.0,0.0,15.0,0.0,0.0
2819,70.0,12.0,15.0,0.0,0.0
2820,69.0,4.0,15.0,0.0,0.0
2821,59.0,8.0,15.0,0.0,0.0
2822,63.0,8.0,15.0,0.0,0.0
2823,57.0,0.0,15.0,0.0,0.0
2824,69.0,10.0,15.0,0.0,0.0
2825,63.0,0.0,15.0,0.0,0.0
2826,57.0,0.0,15.0,0.0,0.0
2827,67.0,16.0,15.0,0.0,0.0
2828,64.0,12.0,210.0,0.0,0.0
2829,28.0,16.0,15.0,0.0,0.0
2830,47.0,16.0,15.0,0.0,0.0
2831,55.0,16.0,15.0,0.0,0.0
2832,47.0,0.0,15.0,0.0,0.0
2833,59.0,0.0,15.0,0.0,0.0
2834,55.0,16.0,15.0,0.0,0.0
2835,59.0,0.0,15.0,0.0,0.0
2836,35.0,18.0,15.0,0.0,0.0
2837,40.0,16.0,15.0,0.0,0.0
2838,47.0,16.0,15.0,0.0,0.0
2839,47.0,16.0,15.0,0.0,0.0
2840,55.0,0.0,15.0,0.0,0.0
2841,59.0,0.0,15.0,0.0,0.0
2842,55.0,16.0,15.0,0.0,0.0
2843,55.0,14.0,15.0,0.0,0.0
2844,59.0,0.0,15.0,0.0,0.0
2845,35.0,14.0,15.0,0.0,0.0
2846,28.0,2.0,40.0,0.0,0.0
2847,59.0,12.0,15.0,0.0,0.0
2848,64.0,10.0,15.0,0.0,0.0
2849,66.0,12.0,15.0,0.0,0.0
2850,67.0,12.0,15.0,0.0,0.0
2851,70.0,12.0,15.0,0.0,0.0
2852,72.0,12.0,15.0,0.0,0.0
2853,71.0,12.0,15.0,0.0,0.0
2854,75.0,12.0,15.0,0.0,0.0
2855,78.0,12.0,15.0,0.0,0.0
2856,76.0,12.0,15.0,0.0,0.0
2857,79.0,12.0,15.0,0.0,0.0
2858,82.0,12.0,15.0,0.0,0.0
2859,83.0,0.0,15.0,0.0,0.0
2860,86.0,12.0,15.0,0.0,0.0
2861,84.0,12.0,15.0,0.0,0.0
2862,83.0,46.0,15.0,0.0,0.0
2863,88.0,86.0,40.0,0.0,0.0
2864,55.0,0.0,40.0,0.0,0.0
2865,59.0,0.0,40.0,0.0,0.0
2866,64.0,48.0,40.0,0.0,0.0
2867,67.0,0.0,40.0,0.0,0.0
2868,52.0,0.0,40.0,0.0,0.0
2869,40.0,0.0,40.0,0.0,0.0
2870,59.0,0.0,40.0,0.0,0.0
2871,67.0,0.0,40.0,0.0,0.0
2872,64.0,0.0,40.0,0.0,0.0
2873,55.0,0.0,40.0,0.0,0.0
2874,40.0,156.0,40.0,0.0,0.0
2875,52.0,0.0,40.0,0.0,0.0
2876,52.0,0.0,150.0,0.0,0.0
2877,55.0,0.0,150.0,0.0,0.0
2878,59.0,48.0,150.0,0.0,0.0
2879,64.0,0.0,150.0,0.0,0.0
2880,67.0,0.0,150.0,0.0,0.0
2881,40.0,0.0,150.0,0.0,0.0
2882,47.0,0.0,150.0,0.0,0.0
