,note,step,duration,channel,velocity
0,27.0,0.0,450.0,0.0,0.0
1,39.0,0.0,450.0,0.0,0.0
2,51.0,480.0,450.0,0.0,0.0
3,27.0,0.0,450.0,0.0,0.0
4,39.0,0.0,450.0,0.0,0.0
5,51.0,78.0,450.0,0.0,0.0
6,38.0,0.0,120.0,0.0,0.0
7,50.0,60.0,120.0,0.0,0.0
8,36.0,345.0,120.0,0.0,0.0
9,48.0,0.0,120.0,0.0,0.0
10,34.0,420.0,450.0,0.0,0.0
11,46.0,57.0,390.0,0.0,0.0
12,51.0,0.0,450.0,0.0,0.0
13,27.0,480.0,450.0,0.0,0.0
14,39.0,0.0,450.0,0.0,0.0
15,27.0,0.0,450.0,0.0,0.0
16,51.0,78.0,450.0,0.0,0.0
17,39.0,0.0,450.0,0.0,0.0
18,38.0,0.0,120.0,0.0,0.0
19,50.0,60.0,120.0,0.0,0.0
20,48.0,345.0,120.0,0.0,0.0
21,36.0,0.0,120.0,0.0,0.0
22,46.0,57.0,390.0,0.0,0.0
23,34.0,420.0,450.0,0.0,0.0
24,51.0,0.0,450.0,0.0,0.0
25,39.0,0.0,450.0,0.0,0.0
26,27.0,480.0,450.0,0.0,0.0
27,39.0,0.0,450.0,0.0,0.0
28,51.0,0.0,450.0,0.0,0.0
29,27.0,78.0,450.0,0.0,0.0
30,38.0,0.0,120.0,0.0,0.0
31,50.0,60.0,120.0,0.0,0.0
32,36.0,0.0,120.0,0.0,0.0
33,48.0,345.0,120.0,0.0,0.0
34,34.0,420.0,450.0,0.0,0.0
35,46.0,57.0,390.0,0.0,0.0
36,51.0,480.0,450.0,0.0,0.0
37,39.0,0.0,450.0,0.0,0.0
38,27.0,0.0,450.0,0.0,0.0
39,27.0,0.0,450.0,0.0,0.0
40,51.0,480.0,450.0,0.0,0.0
41,39.0,0.0,450.0,0.0,0.0
42,39.0,0.0,450.0,0.0,0.0
43,61.0,0.0,450.0,0.0,0.0
44,55.0,0.0,450.0,0.0,0.0
45,27.0,0.0,450.0,0.0,0.0
46,51.0,252.0,450.0,0.0,0.0
47,44.0,12.0,450.0,0.0,0.0
48,60.0,228.0,240.0,1.0,0.0
49,32.0,0.0,450.0,0.0,0.0
50,60.0,0.0,450.0,0.0,0.0
51,51.0,0.0,450.0,0.0,0.0
52,56.0,0.0,450.0,0.0,0.0
53,58.0,468.0,240.0,1.0,0.0
54,56.0,228.0,720.0,1.0,0.0
55,44.0,0.0,450.0,0.0,0.0
56,32.0,252.0,450.0,0.0,0.0
57,56.0,0.0,450.0,0.0,0.0
58,51.0,0.0,450.0,0.0,0.0
59,60.0,0.0,450.0,0.0,0.0
60,44.0,0.0,450.0,0.0,0.0
61,51.0,0.0,450.0,0.0,0.0
62,32.0,12.0,450.0,0.0,0.0
63,60.0,0.0,450.0,0.0,0.0
64,56.0,0.0,450.0,0.0,0.0
65,58.0,240.0,240.0,1.0,0.0
66,60.0,228.0,240.0,1.0,0.0
67,44.0,0.0,450.0,0.0,0.0
68,32.0,0.0,450.0,0.0,0.0
69,60.0,0.0,450.0,0.0,0.0
70,51.0,12.0,450.0,0.0,0.0
71,56.0,0.0,450.0,0.0,0.0
72,61.0,468.0,240.0,1.0,0.0
73,32.0,0.0,450.0,0.0,0.0
74,51.0,252.0,450.0,0.0,0.0
75,56.0,0.0,450.0,0.0,0.0
76,60.0,0.0,450.0,0.0,0.0
77,44.0,0.0,450.0,0.0,0.0
78,63.0,228.0,720.0,1.0,0.0
79,60.0,0.0,450.0,0.0,0.0
80,56.0,12.0,450.0,0.0,0.0
81,51.0,0.0,450.0,0.0,0.0
82,44.0,0.0,450.0,0.0,0.0
83,32.0,0.0,450.0,0.0,0.0
84,65.0,240.0,240.0,1.0,0.0
85,63.0,228.0,240.0,1.0,0.0
86,44.0,0.0,450.0,0.0,0.0
87,32.0,0.0,450.0,0.0,0.0
88,60.0,0.0,450.0,0.0,0.0
89,56.0,12.0,450.0,0.0,0.0
90,51.0,0.0,450.0,0.0,0.0
91,65.0,468.0,240.0,1.0,0.0
92,32.0,0.0,450.0,0.0,0.0
93,63.0,0.0,450.0,1.0,0.0
94,56.0,0.0,450.0,0.0,0.0
95,51.0,480.0,450.0,0.0,0.0
96,44.0,0.0,450.0,0.0,0.0
97,60.0,0.0,450.0,0.0,0.0
98,68.0,0.0,450.0,1.0,0.0
99,60.0,0.0,450.0,0.0,0.0
100,51.0,0.0,450.0,0.0,0.0
101,44.0,2856.0,450.0,0.0,0.0
102,56.0,0.0,450.0,0.0,0.0
103,32.0,0.0,450.0,0.0,0.0
104,70.0,1716.0,2820.0,1.0,0.0
105,55.0,0.0,2820.0,0.0,0.0
106,58.0,0.0,2820.0,0.0,0.0
107,27.0,0.0,2820.0,0.0,0.0
108,39.0,0.0,2820.0,0.0,0.0
109,63.0,0.0,2820.0,0.0,0.0
110,51.0,0.0,2820.0,0.0,0.0
111,39.0,3.0,1410.0,0.0,0.0
112,61.0,240.0,240.0,1.0,0.0
113,65.0,411.0,240.0,1.0,0.0
114,61.0,21.0,450.0,0.0,0.0
115,51.0,0.0,450.0,0.0,0.0
116,55.0,0.0,450.0,0.0,0.0
117,61.0,57.0,390.0,1.0,0.0
118,61.0,60.0,60.0,1.0,0.0
119,55.0,0.0,450.0,0.0,0.0
120,51.0,0.0,450.0,0.0,0.0
121,61.0,0.0,450.0,0.0,0.0
122,60.0,399.0,60.0,1.0,0.0
123,58.0,249.0,390.0,1.0,0.0
124,44.0,0.0,1410.0,0.0,0.0
125,60.0,240.0,240.0,1.0,0.0
126,63.0,411.0,240.0,1.0,0.0
127,60.0,21.0,450.0,0.0,0.0
128,51.0,0.0,450.0,0.0,0.0
129,60.0,57.0,390.0,1.0,0.0
130,56.0,0.0,450.0,0.0,0.0
131,60.0,60.0,60.0,1.0,0.0
132,58.0,399.0,60.0,1.0,0.0
133,51.0,3.0,450.0,0.0,0.0
134,56.0,0.0,450.0,0.0,0.0
135,60.0,0.0,450.0,0.0,0.0
136,56.0,249.0,390.0,1.0,0.0
137,58.0,240.0,240.0,1.0,0.0
138,39.0,0.0,1410.0,0.0,0.0
139,60.0,468.0,240.0,1.0,0.0
140,61.0,0.0,450.0,0.0,0.0
141,51.0,480.0,450.0,0.0,0.0
142,55.0,0.0,450.0,0.0,0.0
143,61.0,0.0,450.0,1.0,0.0
144,65.0,0.0,450.0,1.0,0.0
145,51.0,0.0,450.0,0.0,0.0
146,61.0,960.0,450.0,0.0,0.0
147,55.0,0.0,450.0,0.0,0.0
148,44.0,480.0,930.0,0.0,0.0
149,63.0,0.0,1410.0,1.0,0.0
150,51.0,0.0,450.0,0.0,0.0
151,60.0,0.0,450.0,0.0,0.0
152,56.0,0.0,450.0,0.0,0.0
153,45.0,0.0,450.0,0.0,0.0
154,51.0,0.0,450.0,0.0,0.0
155,60.0,0.0,450.0,0.0,0.0
156,54.0,252.0,450.0,0.0,0.0
157,46.0,12.0,450.0,0.0,0.0
158,53.0,0.0,450.0,0.0,0.0
159,58.0,0.0,450.0,0.0,0.0
160,61.0,0.0,450.0,0.0,0.0
161,61.0,228.0,240.0,1.0,0.0
162,65.0,411.0,240.0,1.0,0.0
163,52.0,0.0,450.0,0.0,0.0
164,58.0,21.0,450.0,0.0,0.0
165,61.0,0.0,450.0,0.0,0.0
166,61.0,57.0,390.0,1.0,0.0
167,44.0,0.0,450.0,0.0,0.0
168,61.0,60.0,60.0,1.0,0.0
169,60.0,399.0,60.0,1.0,0.0
170,43.0,0.0,450.0,0.0,0.0
171,61.0,3.0,450.0,0.0,0.0
172,58.0,0.0,450.0,0.0,0.0
173,51.0,0.0,450.0,0.0,0.0
174,58.0,249.0,390.0,1.0,0.0
175,60.0,12.0,450.0,0.0,0.0
176,56.0,0.0,450.0,0.0,0.0
177,51.0,0.0,450.0,0.0,0.0
178,44.0,0.0,450.0,0.0,0.0
179,60.0,228.0,240.0,1.0,0.0
180,63.0,411.0,240.0,1.0,0.0
181,53.0,0.0,450.0,0.0,0.0
182,60.0,57.0,390.0,1.0,0.0
183,41.0,0.0,450.0,0.0,0.0
184,60.0,0.0,450.0,0.0,0.0
185,56.0,21.0,450.0,0.0,0.0
186,60.0,60.0,60.0,1.0,0.0
187,36.0,0.0,450.0,0.0,0.0
188,51.0,3.0,450.0,0.0,0.0
189,56.0,0.0,450.0,0.0,0.0
190,60.0,0.0,450.0,0.0,0.0
191,58.0,399.0,60.0,1.0,0.0
192,56.0,249.0,390.0,1.0,0.0
193,37.0,12.0,450.0,0.0,0.0
194,58.0,228.0,240.0,1.0,0.0
195,53.0,0.0,450.0,0.0,0.0
196,56.0,0.0,450.0,0.0,0.0
197,58.0,0.0,450.0,0.0,0.0
198,65.0,468.0,240.0,1.0,0.0
199,63.0,228.0,720.0,1.0,0.0
200,39.0,252.0,450.0,0.0,0.0
201,51.0,0.0,450.0,0.0,0.0
202,55.0,0.0,450.0,0.0,0.0
203,61.0,0.0,450.0,0.0,0.0
204,61.0,0.0,450.0,0.0,0.0
205,55.0,0.0,450.0,0.0,0.0
206,51.0,0.0,450.0,0.0,0.0
207,39.0,12.0,450.0,0.0,0.0
208,55.0,468.0,240.0,1.0,0.0
209,51.0,0.0,450.0,0.0,0.0
210,56.0,0.0,1410.0,1.0,0.0
211,44.0,480.0,450.0,0.0,0.0
212,32.0,0.0,450.0,0.0,0.0
213,60.0,0.0,450.0,0.0,0.0
214,56.0,0.0,450.0,0.0,0.0
215,44.0,480.0,450.0,0.0,0.0
216,51.0,0.0,450.0,0.0,0.0
217,51.0,252.0,450.0,0.0,0.0
218,44.0,0.0,450.0,0.0,0.0
219,63.0,228.0,240.0,0.0,0.0
220,44.0,12.0,450.0,0.0,0.0
221,49.0,0.0,450.0,0.0,0.0
222,51.0,0.0,450.0,0.0,0.0
223,55.0,0.0,450.0,0.0,0.0
224,70.0,468.0,240.0,0.0,0.0
225,55.0,0.0,450.0,0.0,0.0
226,51.0,0.0,450.0,0.0,0.0
227,44.0,252.0,450.0,0.0,0.0
228,75.0,228.0,720.0,0.0,0.0
229,49.0,0.0,450.0,0.0,0.0
230,44.0,0.0,450.0,0.0,0.0
231,48.0,0.0,450.0,0.0,0.0
232,51.0,0.0,450.0,0.0,0.0
233,56.0,12.0,450.0,0.0,0.0
234,72.0,240.0,240.0,0.0,0.0
235,70.0,228.0,240.0,0.0,0.0
236,44.0,0.0,450.0,0.0,0.0
237,49.0,0.0,450.0,0.0,0.0
238,51.0,0.0,450.0,0.0,0.0
239,55.0,12.0,450.0,0.0,0.0
240,63.0,468.0,240.0,0.0,0.0
241,70.0,88.0,720.0,0.0,0.0
242,44.0,0.0,450.0,0.0,0.0
243,49.0,0.0,450.0,0.0,0.0
244,55.0,0.0,450.0,0.0,0.0
245,51.0,252.0,450.0,0.0,0.0
246,51.0,0.0,450.0,0.0,0.0
247,44.0,19.0,450.0,0.0,0.0
248,48.0,0.0,450.0,0.0,0.0
249,56.0,0.0,450.0,0.0,0.0
250,68.0,79.0,90.0,0.0,0.0
251,70.0,61.0,90.0,0.0,0.0
252,68.0,233.0,90.0,0.0,0.0
253,55.0,0.0,450.0,0.0,0.0
254,51.0,0.0,450.0,0.0,0.0
255,44.0,12.0,450.0,0.0,0.0
256,63.0,228.0,240.0,0.0,0.0
257,49.0,0.0,450.0,0.0,0.0
258,70.0,240.0,240.0,0.0,0.0
259,55.0,12.0,450.0,0.0,0.0
260,51.0,0.0,450.0,0.0,0.0
261,49.0,0.0,450.0,0.0,0.0
262,44.0,0.0,450.0,0.0,0.0
263,75.0,228.0,240.0,0.0,0.0
264,74.0,240.0,240.0,0.0,0.0
265,75.0,228.0,240.0,0.0,0.0
266,44.0,12.0,450.0,0.0,0.0
267,49.0,0.0,450.0,0.0,0.0
268,51.0,0.0,450.0,0.0,0.0
269,55.0,0.0,450.0,0.0,0.0
270,72.0,240.0,240.0,0.0,0.0
271,70.0,228.0,240.0,0.0,0.0
272,44.0,0.0,450.0,0.0,0.0
273,49.0,0.0,450.0,0.0,0.0
274,51.0,0.0,450.0,0.0,0.0
275,55.0,12.0,450.0,0.0,0.0
276,63.0,468.0,240.0,0.0,0.0
277,68.0,0.0,450.0,0.0,0.0
278,44.0,0.0,450.0,0.0,0.0
279,48.0,252.0,450.0,0.0,0.0
280,51.0,0.0,450.0,0.0,0.0
281,56.0,0.0,450.0,0.0,0.0
282,72.0,228.0,240.0,0.0,0.0
283,44.0,12.0,450.0,0.0,0.0
284,48.0,0.0,450.0,0.0,0.0
285,51.0,0.0,450.0,0.0,0.0
286,56.0,0.0,450.0,0.0,0.0
287,74.0,240.0,240.0,0.0,0.0
288,55.0,0.0,450.0,0.0,0.0
289,51.0,0.0,450.0,0.0,0.0
290,49.0,0.0,450.0,0.0,0.0
291,44.0,12.0,450.0,0.0,0.0
292,75.0,228.0,240.0,0.0,0.0
293,63.0,468.0,240.0,0.0,0.0
294,68.0,0.0,450.0,0.0,0.0
295,44.0,0.0,450.0,0.0,0.0
296,48.0,0.0,450.0,0.0,0.0
297,51.0,252.0,450.0,0.0,0.0
298,56.0,0.0,450.0,0.0,0.0
299,72.0,228.0,240.0,0.0,0.0
300,44.0,12.0,450.0,0.0,0.0
301,48.0,0.0,450.0,0.0,0.0
302,51.0,0.0,450.0,0.0,0.0
303,56.0,0.0,450.0,0.0,0.0
304,74.0,240.0,240.0,0.0,0.0
305,51.0,0.0,450.0,0.0,0.0
306,49.0,0.0,450.0,0.0,0.0
307,55.0,0.0,450.0,0.0,0.0
308,75.0,228.0,240.0,0.0,0.0
309,44.0,12.0,450.0,0.0,0.0
310,63.0,468.0,240.0,0.0,0.0
311,56.0,0.0,450.0,0.0,0.0
312,51.0,0.0,450.0,0.0,0.0
313,44.0,0.0,450.0,0.0,0.0
314,68.0,252.0,450.0,0.0,0.0
315,48.0,0.0,450.0,0.0,0.0
316,72.0,228.0,240.0,0.0,0.0
317,48.0,0.0,450.0,0.0,0.0
318,51.0,0.0,450.0,0.0,0.0
319,44.0,12.0,450.0,0.0,0.0
320,56.0,0.0,450.0,0.0,0.0
321,74.0,240.0,240.0,0.0,0.0
322,75.0,228.0,240.0,0.0,0.0
323,44.0,0.0,450.0,0.0,0.0
324,49.0,0.0,450.0,0.0,0.0
325,51.0,0.0,450.0,0.0,0.0
326,55.0,12.0,450.0,0.0,0.0
327,77.0,468.0,240.0,0.0,0.0
328,75.0,0.0,450.0,0.0,0.0
329,44.0,0.0,450.0,0.0,0.0
330,49.0,252.0,450.0,0.0,0.0
331,51.0,0.0,450.0,0.0,0.0
332,55.0,0.0,450.0,0.0,0.0
333,51.0,0.0,450.0,0.0,0.0
334,70.0,228.0,240.0,0.0,0.0
335,44.0,12.0,450.0,0.0,0.0
336,49.0,0.0,450.0,0.0,0.0
337,55.0,0.0,450.0,0.0,0.0
338,72.0,468.0,240.0,0.0,0.0
339,56.0,0.0,450.0,0.0,0.0
340,48.0,0.0,450.0,0.0,0.0
341,51.0,0.0,450.0,0.0,0.0
342,68.0,480.0,450.0,0.0,0.0
343,44.0,0.0,450.0,0.0,0.0
344,44.0,0.0,450.0,0.0,0.0
345,32.0,0.0,450.0,0.0,0.0
346,80.0,0.0,450.0,0.0,0.0
347,72.0,0.0,450.0,0.0,0.0
348,68.0,960.0,450.0,0.0,0.0
349,75.0,0.0,450.0,0.0,0.0
350,51.0,480.0,450.0,0.0,0.0
351,39.0,0.0,450.0,0.0,0.0
352,27.0,0.0,450.0,0.0,0.0
353,51.0,78.0,450.0,0.0,0.0
354,39.0,0.0,450.0,0.0,0.0
355,27.0,0.0,450.0,0.0,0.0
356,50.0,60.0,120.0,0.0,0.0
357,38.0,0.0,120.0,0.0,0.0
358,48.0,345.0,120.0,0.0,0.0
359,36.0,0.0,120.0,0.0,0.0
360,34.0,420.0,450.0,0.0,0.0
361,46.0,57.0,390.0,0.0,0.0
362,51.0,0.0,450.0,0.0,0.0
363,39.0,480.0,450.0,0.0,0.0
364,27.0,0.0,450.0,0.0,0.0
365,51.0,78.0,450.0,0.0,0.0
366,39.0,0.0,450.0,0.0,0.0
367,27.0,0.0,450.0,0.0,0.0
368,50.0,60.0,120.0,0.0,0.0
369,38.0,0.0,120.0,0.0,0.0
370,48.0,345.0,120.0,0.0,0.0
371,36.0,0.0,120.0,0.0,0.0
372,46.0,57.0,390.0,0.0,0.0
373,34.0,420.0,450.0,0.0,0.0
374,51.0,480.0,450.0,0.0,0.0
375,39.0,0.0,450.0,0.0,0.0
376,27.0,0.0,450.0,0.0,0.0
377,51.0,78.0,450.0,0.0,0.0
378,39.0,0.0,450.0,0.0,0.0
379,27.0,0.0,450.0,0.0,0.0
380,50.0,60.0,120.0,0.0,0.0
381,38.0,0.0,120.0,0.0,0.0
382,36.0,0.0,120.0,0.0,0.0
383,48.0,345.0,120.0,0.0,0.0
384,46.0,57.0,390.0,0.0,0.0
385,34.0,420.0,450.0,0.0,0.0
386,51.0,480.0,450.0,0.0,0.0
387,39.0,0.0,450.0,0.0,0.0
388,27.0,0.0,450.0,0.0,0.0
389,39.0,480.0,450.0,0.0,0.0
390,51.0,0.0,450.0,0.0,0.0
391,27.0,0.0,450.0,0.0,0.0
392,61.0,0.0,450.0,0.0,0.0
393,55.0,0.0,450.0,0.0,0.0
394,27.0,0.0,450.0,0.0,0.0
395,51.0,252.0,450.0,0.0,0.0
396,39.0,0.0,450.0,0.0,0.0
397,60.0,228.0,240.0,1.0,0.0
398,60.0,0.0,450.0,0.0,0.0
399,44.0,12.0,450.0,0.0,0.0
400,56.0,0.0,450.0,0.0,0.0
401,51.0,0.0,450.0,0.0,0.0
402,32.0,0.0,450.0,0.0,0.0
403,58.0,468.0,240.0,1.0,0.0
404,51.0,252.0,450.0,0.0,0.0
405,56.0,0.0,450.0,0.0,0.0
406,56.0,228.0,720.0,1.0,0.0
407,60.0,0.0,450.0,0.0,0.0
408,32.0,0.0,450.0,0.0,0.0
409,44.0,0.0,450.0,0.0,0.0
410,60.0,0.0,450.0,0.0,0.0
411,44.0,0.0,450.0,0.0,0.0
412,56.0,12.0,450.0,0.0,0.0
413,51.0,0.0,450.0,0.0,0.0
414,32.0,0.0,450.0,0.0,0.0
415,58.0,240.0,240.0,1.0,0.0
416,60.0,228.0,240.0,1.0,0.0
417,56.0,0.0,450.0,0.0,0.0
418,44.0,0.0,450.0,0.0,0.0
419,51.0,0.0,450.0,0.0,0.0
420,60.0,0.0,450.0,0.0,0.0
421,32.0,12.0,450.0,0.0,0.0
422,61.0,468.0,240.0,1.0,0.0
423,63.0,228.0,720.0,1.0,0.0
424,51.0,0.0,450.0,0.0,0.0
425,60.0,0.0,450.0,0.0,0.0
426,56.0,0.0,450.0,0.0,0.0
427,44.0,252.0,450.0,0.0,0.0
428,32.0,0.0,450.0,0.0,0.0
429,32.0,0.0,450.0,0.0,0.0
430,60.0,0.0,450.0,0.0,0.0
431,56.0,0.0,450.0,0.0,0.0
432,51.0,12.0,450.0,0.0,0.0
433,44.0,0.0,450.0,0.0,0.0
434,65.0,240.0,240.0,1.0,0.0
435,56.0,0.0,450.0,0.0,0.0
436,44.0,0.0,450.0,0.0,0.0
437,51.0,0.0,450.0,0.0,0.0
438,60.0,0.0,450.0,0.0,0.0
439,32.0,12.0,450.0,0.0,0.0
440,63.0,228.0,240.0,1.0,0.0
441,65.0,468.0,240.0,1.0,0.0
442,32.0,0.0,450.0,0.0,0.0
443,44.0,0.0,450.0,0.0,0.0
444,51.0,0.0,450.0,0.0,0.0
445,56.0,480.0,450.0,0.0,0.0
446,63.0,0.0,450.0,1.0,0.0
447,60.0,0.0,450.0,0.0,0.0
448,32.0,0.0,450.0,0.0,0.0
449,44.0,0.0,450.0,0.0,0.0
450,51.0,0.0,450.0,0.0,0.0
451,56.0,2856.0,450.0,0.0,0.0
452,60.0,0.0,450.0,0.0,0.0
453,68.0,0.0,450.0,1.0,0.0
454,50.0,1716.0,2820.0,0.0,0.0
455,70.0,0.0,2820.0,1.0,0.0
456,29.0,0.0,2820.0,0.0,0.0
457,41.0,0.0,2820.0,0.0,0.0
458,58.0,0.0,2820.0,0.0,0.0
459,56.0,0.0,2820.0,0.0,0.0
460,58.0,12.0,450.0,0.0,0.0
461,55.0,0.0,450.0,0.0,0.0
462,51.0,0.0,450.0,0.0,0.0
463,39.0,0.0,1410.0,0.0,0.0
464,27.0,0.0,1410.0,0.0,0.0
465,61.0,228.0,240.0,1.0,0.0
466,65.0,411.0,240.0,1.0,0.0
467,61.0,57.0,390.0,1.0,0.0
468,51.0,21.0,450.0,0.0,0.0
469,55.0,0.0,450.0,0.0,0.0
470,61.0,0.0,450.0,0.0,0.0
471,61.0,60.0,60.0,1.0,0.0
472,51.0,3.0,450.0,0.0,0.0
473,55.0,0.0,450.0,0.0,0.0
474,61.0,0.0,450.0,0.0,0.0
475,60.0,399.0,60.0,1.0,0.0
476,58.0,249.0,390.0,1.0,0.0
477,60.0,240.0,240.0,1.0,0.0
478,44.0,3.0,1410.0,0.0,0.0
479,63.0,411.0,240.0,1.0,0.0
480,60.0,21.0,450.0,0.0,0.0
481,56.0,0.0,450.0,0.0,0.0
482,60.0,57.0,390.0,1.0,0.0
483,51.0,0.0,450.0,0.0,0.0
484,60.0,60.0,60.0,1.0,0.0
485,56.0,0.0,450.0,0.0,0.0
486,60.0,0.0,450.0,0.0,0.0
487,51.0,0.0,450.0,0.0,0.0
488,58.0,399.0,60.0,1.0,0.0
489,56.0,249.0,390.0,1.0,0.0
490,58.0,240.0,240.0,1.0,0.0
491,39.0,0.0,1410.0,0.0,0.0
492,60.0,468.0,240.0,1.0,0.0
493,51.0,0.0,450.0,0.0,0.0
494,55.0,0.0,450.0,0.0,0.0
495,61.0,480.0,450.0,1.0,0.0
496,61.0,0.0,450.0,0.0,0.0
497,55.0,0.0,450.0,0.0,0.0
498,61.0,0.0,450.0,0.0,0.0
499,65.0,960.0,450.0,1.0,0.0
500,51.0,0.0,450.0,0.0,0.0
501,63.0,0.0,1410.0,1.0,0.0
502,44.0,480.0,930.0,0.0,0.0
503,60.0,0.0,450.0,0.0,0.0
504,56.0,0.0,450.0,0.0,0.0
505,51.0,0.0,450.0,0.0,0.0
506,54.0,0.0,450.0,0.0,0.0
507,60.0,252.0,450.0,0.0,0.0
508,51.0,0.0,450.0,0.0,0.0
509,45.0,0.0,450.0,0.0,0.0
510,46.0,0.0,450.0,0.0,0.0
511,53.0,0.0,450.0,0.0,0.0
512,58.0,12.0,450.0,0.0,0.0
513,61.0,228.0,240.0,1.0,0.0
514,61.0,0.0,450.0,0.0,0.0
515,65.0,411.0,240.0,1.0,0.0
516,44.0,0.0,450.0,0.0,0.0
517,61.0,57.0,390.0,1.0,0.0
518,58.0,0.0,450.0,0.0,0.0
519,52.0,21.0,450.0,0.0,0.0
520,61.0,0.0,450.0,0.0,0.0
521,61.0,60.0,60.0,1.0,0.0
522,60.0,399.0,60.0,1.0,0.0
523,43.0,0.0,450.0,0.0,0.0
524,51.0,3.0,450.0,0.0,0.0
525,58.0,0.0,450.0,0.0,0.0
526,61.0,0.0,450.0,0.0,0.0
527,58.0,249.0,390.0,1.0,0.0
528,60.0,0.0,450.0,0.0,0.0
529,51.0,0.0,450.0,0.0,0.0
530,44.0,12.0,450.0,0.0,0.0
531,56.0,0.0,450.0,0.0,0.0
532,60.0,228.0,240.0,1.0,0.0
533,63.0,411.0,240.0,1.0,0.0
534,60.0,0.0,450.0,0.0,0.0
535,56.0,0.0,450.0,0.0,0.0
536,53.0,0.0,450.0,0.0,0.0
537,41.0,21.0,450.0,0.0,0.0
538,60.0,57.0,390.0,1.0,0.0
539,60.0,60.0,60.0,1.0,0.0
540,60.0,0.0,450.0,0.0,0.0
541,51.0,0.0,450.0,0.0,0.0
542,56.0,0.0,450.0,0.0,0.0
543,58.0,399.0,60.0,1.0,0.0
544,36.0,3.0,450.0,0.0,0.0
545,56.0,249.0,390.0,1.0,0.0
546,58.0,228.0,240.0,1.0,0.0
547,53.0,0.0,450.0,0.0,0.0
548,56.0,0.0,450.0,0.0,0.0
549,37.0,12.0,450.0,0.0,0.0
550,58.0,0.0,450.0,0.0,0.0
551,65.0,468.0,240.0,1.0,0.0
552,39.0,252.0,450.0,0.0,0.0
553,51.0,0.0,450.0,0.0,0.0
554,55.0,0.0,450.0,0.0,0.0
555,61.0,0.0,450.0,0.0,0.0
556,63.0,228.0,720.0,1.0,0.0
557,61.0,0.0,450.0,0.0,0.0
558,51.0,0.0,450.0,0.0,0.0
559,39.0,12.0,450.0,0.0,0.0
560,55.0,0.0,450.0,0.0,0.0
561,55.0,468.0,240.0,1.0,0.0
562,56.0,0.0,1410.0,1.0,0.0
563,44.0,480.0,450.0,0.0,0.0
564,32.0,0.0,450.0,0.0,0.0
565,51.0,0.0,450.0,0.0,0.0
566,56.0,0.0,450.0,0.0,0.0
567,60.0,0.0,450.0,0.0,0.0
568,51.0,0.0,450.0,0.0,0.0
569,56.0,0.0,450.0,0.0,0.0
570,60.0,0.0,450.0,0.0,0.0
571,44.0,0.0,450.0,0.0,0.0
572,32.0,480.0,450.0,0.0,0.0
573,32.0,252.0,450.0,0.0,0.0
574,60.0,0.0,450.0,0.0,0.0
575,56.0,0.0,450.0,0.0,0.0
576,51.0,0.0,450.0,0.0,0.0
577,44.0,0.0,450.0,0.0,0.0
578,55.0,0.0,450.0,0.0,0.0
579,63.0,228.0,240.0,0.0,0.0
580,49.0,0.0,450.0,0.0,0.0
581,51.0,0.0,450.0,0.0,0.0
582,44.0,12.0,450.0,0.0,0.0
583,70.0,468.0,240.0,0.0,0.0
584,51.0,0.0,450.0,0.0,0.0
585,55.0,0.0,450.0,0.0,0.0
586,44.0,0.0,450.0,0.0,0.0
587,49.0,252.0,450.0,0.0,0.0
588,75.0,228.0,720.0,0.0,0.0
589,44.0,12.0,450.0,0.0,0.0
590,48.0,0.0,450.0,0.0,0.0
591,51.0,0.0,450.0,0.0,0.0
592,56.0,0.0,450.0,0.0,0.0
593,72.0,240.0,240.0,0.0,0.0
594,49.0,0.0,450.0,0.0,0.0
595,70.0,228.0,240.0,0.0,0.0
596,44.0,12.0,450.0,0.0,0.0
597,51.0,0.0,450.0,0.0,0.0
598,55.0,0.0,450.0,0.0,0.0
599,63.0,468.0,240.0,0.0,0.0
600,70.0,88.0,720.0,0.0,0.0
601,44.0,0.0,450.0,0.0,0.0
602,49.0,0.0,450.0,0.0,0.0
603,51.0,252.0,450.0,0.0,0.0
604,55.0,0.0,450.0,0.0,0.0
605,44.0,19.0,450.0,0.0,0.0
606,48.0,0.0,450.0,0.0,0.0
607,51.0,0.0,450.0,0.0,0.0
608,56.0,0.0,450.0,0.0,0.0
609,68.0,79.0,90.0,0.0,0.0
610,70.0,61.0,90.0,0.0,0.0
611,68.0,233.0,90.0,0.0,0.0
612,55.0,0.0,450.0,0.0,0.0
613,63.0,228.0,240.0,0.0,0.0
614,49.0,0.0,450.0,0.0,0.0
615,44.0,12.0,450.0,0.0,0.0
616,51.0,0.0,450.0,0.0,0.0
617,70.0,240.0,240.0,0.0,0.0
618,55.0,0.0,450.0,0.0,0.0
619,44.0,12.0,450.0,0.0,0.0
620,75.0,228.0,240.0,0.0,0.0
621,49.0,0.0,450.0,0.0,0.0
622,51.0,0.0,450.0,0.0,0.0
623,74.0,240.0,240.0,0.0,0.0
624,55.0,0.0,450.0,0.0,0.0
625,51.0,0.0,450.0,0.0,0.0
626,75.0,228.0,240.0,0.0,0.0
627,49.0,0.0,450.0,0.0,0.0
628,44.0,12.0,450.0,0.0,0.0
629,72.0,240.0,240.0,0.0,0.0
630,51.0,0.0,450.0,0.0,0.0
631,55.0,0.0,450.0,0.0,0.0
632,70.0,228.0,240.0,0.0,0.0
633,44.0,12.0,450.0,0.0,0.0
634,49.0,0.0,450.0,0.0,0.0
635,63.0,468.0,240.0,0.0,0.0
636,68.0,0.0,450.0,0.0,0.0
637,44.0,0.0,450.0,0.0,0.0
638,48.0,252.0,450.0,0.0,0.0
639,51.0,0.0,450.0,0.0,0.0
640,56.0,0.0,450.0,0.0,0.0
641,44.0,0.0,450.0,0.0,0.0
642,72.0,228.0,240.0,0.0,0.0
643,48.0,0.0,450.0,0.0,0.0
644,51.0,0.0,450.0,0.0,0.0
645,56.0,12.0,450.0,0.0,0.0
646,74.0,240.0,240.0,0.0,0.0
647,75.0,228.0,240.0,0.0,0.0
648,44.0,0.0,450.0,0.0,0.0
649,49.0,0.0,450.0,0.0,0.0
650,51.0,12.0,450.0,0.0,0.0
651,55.0,0.0,450.0,0.0,0.0
652,63.0,468.0,240.0,0.0,0.0
653,68.0,0.0,450.0,0.0,0.0
654,44.0,0.0,450.0,0.0,0.0
655,48.0,0.0,450.0,0.0,0.0
656,51.0,0.0,450.0,0.0,0.0
657,56.0,252.0,450.0,0.0,0.0
658,72.0,228.0,240.0,0.0,0.0
659,44.0,0.0,450.0,0.0,0.0
660,48.0,0.0,450.0,0.0,0.0
661,51.0,12.0,450.0,0.0,0.0
662,56.0,0.0,450.0,0.0,0.0
663,74.0,240.0,240.0,0.0,0.0
664,75.0,228.0,240.0,0.0,0.0
665,44.0,12.0,450.0,0.0,0.0
666,49.0,0.0,450.0,0.0,0.0
667,51.0,0.0,450.0,0.0,0.0
668,55.0,0.0,450.0,0.0,0.0
669,63.0,468.0,240.0,0.0,0.0
670,56.0,0.0,450.0,0.0,0.0
671,48.0,0.0,450.0,0.0,0.0
672,51.0,0.0,450.0,0.0,0.0
673,68.0,252.0,450.0,0.0,0.0
674,44.0,0.0,450.0,0.0,0.0
675,48.0,0.0,450.0,0.0,0.0
676,72.0,228.0,240.0,0.0,0.0
677,44.0,0.0,450.0,0.0,0.0
678,51.0,12.0,450.0,0.0,0.0
679,56.0,0.0,450.0,0.0,0.0
680,74.0,240.0,240.0,0.0,0.0
681,55.0,0.0,450.0,0.0,0.0
682,51.0,0.0,450.0,0.0,0.0
683,44.0,12.0,450.0,0.0,0.0
684,75.0,228.0,240.0,0.0,0.0
685,49.0,0.0,450.0,0.0,0.0
686,77.0,468.0,240.0,0.0,0.0
687,55.0,0.0,450.0,0.0,0.0
688,75.0,0.0,450.0,0.0,0.0
689,44.0,0.0,450.0,0.0,0.0
690,49.0,0.0,450.0,0.0,0.0
691,51.0,252.0,450.0,0.0,0.0
692,70.0,228.0,240.0,0.0,0.0
693,44.0,0.0,450.0,0.0,0.0
694,49.0,0.0,450.0,0.0,0.0
695,51.0,0.0,450.0,0.0,0.0
696,55.0,12.0,450.0,0.0,0.0
697,72.0,468.0,240.0,0.0,0.0
698,68.0,0.0,450.0,0.0,0.0
699,44.0,0.0,450.0,0.0,0.0
700,48.0,0.0,450.0,0.0,0.0
701,51.0,480.0,450.0,0.0,0.0
702,56.0,0.0,450.0,0.0,0.0
703,68.0,960.0,450.0,0.0,0.0
704,72.0,0.0,450.0,0.0,0.0
705,75.0,0.0,450.0,0.0,0.0
706,80.0,0.0,450.0,0.0,0.0
707,44.0,0.0,450.0,0.0,0.0
708,32.0,0.0,450.0,0.0,0.0
709,27.0,0.0,450.0,0.0,0.0
710,39.0,0.0,450.0,0.0,0.0
711,51.0,480.0,450.0,0.0,0.0
712,51.0,0.0,450.0,0.0,0.0
713,39.0,0.0,450.0,0.0,0.0
714,27.0,78.0,450.0,0.0,0.0
715,50.0,60.0,120.0,0.0,0.0
716,38.0,0.0,120.0,0.0,0.0
717,48.0,345.0,120.0,0.0,0.0
718,36.0,0.0,120.0,0.0,0.0
719,46.0,57.0,390.0,0.0,0.0
720,34.0,420.0,450.0,0.0,0.0
721,27.0,0.0,450.0,0.0,0.0
722,51.0,0.0,450.0,0.0,0.0
723,39.0,480.0,450.0,0.0,0.0
724,51.0,0.0,450.0,0.0,0.0
725,39.0,0.0,450.0,0.0,0.0
726,27.0,78.0,450.0,0.0,0.0
727,50.0,60.0,120.0,0.0,0.0
728,38.0,0.0,120.0,0.0,0.0
729,36.0,0.0,120.0,0.0,0.0
730,48.0,345.0,120.0,0.0,0.0
731,46.0,57.0,390.0,0.0,0.0
732,34.0,420.0,450.0,0.0,0.0
733,39.0,0.0,450.0,0.0,0.0
734,51.0,480.0,450.0,0.0,0.0
735,27.0,0.0,450.0,0.0,0.0
736,51.0,0.0,450.0,0.0,0.0
737,39.0,0.0,450.0,0.0,0.0
738,27.0,78.0,450.0,0.0,0.0
739,38.0,0.0,120.0,0.0,0.0
740,50.0,60.0,120.0,0.0,0.0
741,48.0,345.0,120.0,0.0,0.0
742,36.0,0.0,120.0,0.0,0.0
743,46.0,57.0,390.0,0.0,0.0
744,34.0,420.0,450.0,0.0,0.0
745,39.0,0.0,450.0,0.0,0.0
746,27.0,0.0,450.0,0.0,0.0
747,51.0,480.0,450.0,0.0,0.0
748,27.0,480.0,450.0,0.0,0.0
749,51.0,0.0,450.0,0.0,0.0
750,39.0,0.0,450.0,0.0,0.0
751,51.0,252.0,450.0,0.0,0.0
752,39.0,0.0,450.0,0.0,0.0
753,27.0,0.0,450.0,0.0,0.0
754,55.0,0.0,450.0,0.0,0.0
755,61.0,0.0,450.0,0.0,0.0
756,60.0,228.0,240.0,1.0,0.0
757,51.0,0.0,450.0,0.0,0.0
758,32.0,0.0,450.0,0.0,0.0
759,60.0,0.0,450.0,0.0,0.0
760,56.0,0.0,450.0,0.0,0.0
761,44.0,12.0,450.0,0.0,0.0
762,58.0,468.0,240.0,1.0,0.0
763,32.0,0.0,450.0,0.0,0.0
764,56.0,228.0,720.0,1.0,0.0
765,44.0,252.0,450.0,0.0,0.0
766,60.0,0.0,450.0,0.0,0.0
767,56.0,0.0,450.0,0.0,0.0
768,51.0,0.0,450.0,0.0,0.0
769,51.0,0.0,450.0,0.0,0.0
770,60.0,0.0,450.0,0.0,0.0
771,32.0,0.0,450.0,0.0,0.0
772,44.0,12.0,450.0,0.0,0.0
773,56.0,0.0,450.0,0.0,0.0
774,58.0,240.0,240.0,1.0,0.0
775,32.0,0.0,450.0,0.0,0.0
776,51.0,0.0,450.0,0.0,0.0
777,56.0,12.0,450.0,0.0,0.0
778,60.0,228.0,240.0,1.0,0.0
779,44.0,0.0,450.0,0.0,0.0
780,60.0,0.0,450.0,0.0,0.0
781,61.0,468.0,240.0,1.0,0.0
782,63.0,228.0,720.0,1.0,0.0
783,32.0,252.0,450.0,0.0,0.0
784,44.0,0.0,450.0,0.0,0.0
785,51.0,0.0,450.0,0.0,0.0
786,56.0,0.0,450.0,0.0,0.0
787,60.0,0.0,450.0,0.0,0.0
788,51.0,0.0,450.0,0.0,0.0
789,56.0,0.0,450.0,0.0,0.0
790,60.0,0.0,450.0,0.0,0.0
791,44.0,12.0,450.0,0.0,0.0
792,32.0,0.0,450.0,0.0,0.0
793,65.0,240.0,240.0,1.0,0.0
794,63.0,228.0,240.0,1.0,0.0
795,51.0,12.0,450.0,0.0,0.0
796,60.0,0.0,450.0,0.0,0.0
797,44.0,0.0,450.0,0.0,0.0
798,56.0,0.0,450.0,0.0,0.0
799,32.0,0.0,450.0,0.0,0.0
800,65.0,468.0,240.0,1.0,0.0
801,44.0,0.0,450.0,0.0,0.0
802,32.0,480.0,450.0,0.0,0.0
803,56.0,0.0,450.0,0.0,0.0
804,60.0,0.0,450.0,0.0,0.0
805,63.0,0.0,450.0,1.0,0.0
806,51.0,0.0,450.0,0.0,0.0
807,32.0,0.0,450.0,0.0,0.0
808,68.0,0.0,450.0,1.0,0.0
809,51.0,0.0,450.0,0.0,0.0
810,56.0,2856.0,450.0,0.0,0.0
811,60.0,0.0,450.0,0.0,0.0
812,44.0,0.0,450.0,0.0,0.0
813,55.0,1716.0,2820.0,0.0,0.0
814,63.0,0.0,2820.0,0.0,0.0
815,70.0,0.0,2820.0,1.0,0.0
816,39.0,0.0,2820.0,0.0,0.0
817,27.0,0.0,2820.0,0.0,0.0
818,58.0,0.0,2820.0,0.0,0.0
819,51.0,0.0,2820.0,0.0,0.0
820,61.0,240.0,240.0,1.0,0.0
821,39.0,3.0,1410.0,0.0,0.0
822,65.0,411.0,240.0,1.0,0.0
823,55.0,21.0,450.0,0.0,0.0
824,61.0,0.0,450.0,0.0,0.0
825,61.0,57.0,390.0,1.0,0.0
826,51.0,0.0,450.0,0.0,0.0
827,61.0,60.0,60.0,1.0,0.0
828,51.0,0.0,450.0,0.0,0.0
829,55.0,0.0,450.0,0.0,0.0
830,61.0,0.0,450.0,0.0,0.0
831,60.0,399.0,60.0,1.0,0.0
832,58.0,249.0,390.0,1.0,0.0
833,44.0,3.0,1410.0,0.0,0.0
834,60.0,240.0,240.0,1.0,0.0
835,63.0,411.0,240.0,1.0,0.0
836,56.0,0.0,450.0,0.0,0.0
837,51.0,0.0,450.0,0.0,0.0
838,60.0,57.0,390.0,1.0,0.0
839,60.0,21.0,450.0,0.0,0.0
840,60.0,60.0,60.0,1.0,0.0
841,56.0,0.0,450.0,0.0,0.0
842,51.0,0.0,450.0,0.0,0.0
843,58.0,399.0,60.0,1.0,0.0
844,60.0,0.0,450.0,0.0,0.0
845,56.0,249.0,390.0,1.0,0.0
846,39.0,0.0,1410.0,0.0,0.0
847,58.0,240.0,240.0,1.0,0.0
848,60.0,468.0,240.0,1.0,0.0
849,61.0,480.0,450.0,0.0,0.0
850,61.0,0.0,450.0,1.0,0.0
851,51.0,0.0,450.0,0.0,0.0
852,55.0,0.0,450.0,0.0,0.0
853,51.0,0.0,450.0,0.0,0.0
854,55.0,960.0,450.0,0.0,0.0
855,61.0,0.0,450.0,0.0,0.0
856,65.0,0.0,450.0,1.0,0.0
857,44.0,480.0,930.0,0.0,0.0
858,63.0,252.0,1410.0,1.0,0.0
859,51.0,0.0,450.0,0.0,0.0
860,60.0,0.0,450.0,0.0,0.0
861,56.0,0.0,450.0,0.0,0.0
862,45.0,0.0,450.0,0.0,0.0
863,60.0,0.0,450.0,0.0,0.0
864,51.0,0.0,450.0,0.0,0.0
865,54.0,0.0,450.0,0.0,0.0
866,61.0,228.0,240.0,1.0,0.0
867,46.0,12.0,450.0,0.0,0.0
868,53.0,0.0,450.0,0.0,0.0
869,58.0,0.0,450.0,0.0,0.0
870,61.0,0.0,450.0,0.0,0.0
871,65.0,411.0,240.0,1.0,0.0
872,61.0,57.0,390.0,1.0,0.0
873,61.0,21.0,450.0,0.0,0.0
874,58.0,0.0,450.0,0.0,0.0
875,52.0,0.0,450.0,0.0,0.0
876,44.0,0.0,450.0,0.0,0.0
877,61.0,60.0,60.0,1.0,0.0
878,60.0,399.0,60.0,1.0,0.0
879,58.0,0.0,450.0,0.0,0.0
880,61.0,0.0,450.0,0.0,0.0
881,43.0,0.0,450.0,0.0,0.0
882,51.0,3.0,450.0,0.0,0.0
883,58.0,249.0,390.0,1.0,0.0
884,56.0,0.0,450.0,0.0,0.0
885,60.0,12.0,450.0,0.0,0.0
886,60.0,228.0,240.0,1.0,0.0
887,44.0,0.0,450.0,0.0,0.0
888,51.0,0.0,450.0,0.0,0.0
889,63.0,411.0,240.0,1.0,0.0
890,60.0,21.0,450.0,0.0,0.0
891,53.0,0.0,450.0,0.0,0.0
892,41.0,0.0,450.0,0.0,0.0
893,56.0,0.0,450.0,0.0,0.0
894,60.0,57.0,390.0,1.0,0.0
895,60.0,60.0,60.0,1.0,0.0
896,60.0,0.0,450.0,0.0,0.0
897,56.0,3.0,450.0,0.0,0.0
898,36.0,0.0,450.0,0.0,0.0
899,51.0,0.0,450.0,0.0,0.0
900,58.0,399.0,60.0,1.0,0.0
901,56.0,249.0,390.0,1.0,0.0
902,37.0,0.0,450.0,0.0,0.0
903,53.0,12.0,450.0,0.0,0.0
904,58.0,228.0,240.0,1.0,0.0
905,56.0,0.0,450.0,0.0,0.0
906,58.0,0.0,450.0,0.0,0.0
907,65.0,468.0,240.0,1.0,0.0
908,61.0,0.0,450.0,0.0,0.0
909,63.0,228.0,720.0,1.0,0.0
910,55.0,0.0,450.0,0.0,0.0
911,39.0,252.0,450.0,0.0,0.0
912,51.0,0.0,450.0,0.0,0.0
913,61.0,0.0,450.0,0.0,0.0
914,55.0,0.0,450.0,0.0,0.0
915,39.0,12.0,450.0,0.0,0.0
916,51.0,0.0,450.0,0.0,0.0
917,55.0,468.0,240.0,1.0,0.0
918,56.0,252.0,1410.0,1.0,0.0
919,44.0,0.0,450.0,0.0,0.0
920,32.0,0.0,450.0,0.0,0.0
921,51.0,0.0,450.0,0.0,0.0
922,56.0,0.0,450.0,0.0,0.0
923,60.0,480.0,450.0,0.0,0.0
924,44.0,480.0,450.0,0.0,0.0
925,51.0,0.0,450.0,0.0,0.0
926,51.0,0.0,450.0,0.0,0.0
927,44.0,0.0,450.0,0.0,0.0
928,55.0,0.0,450.0,0.0,0.0
929,51.0,0.0,450.0,0.0,0.0
930,44.0,12.0,450.0,0.0,0.0
931,63.0,228.0,240.0,0.0,0.0
932,49.0,0.0,450.0,0.0,0.0
933,70.0,468.0,240.0,0.0,0.0
934,75.0,228.0,720.0,0.0,0.0
935,44.0,0.0,450.0,0.0,0.0
936,49.0,0.0,450.0,0.0,0.0
937,55.0,0.0,450.0,0.0,0.0
938,51.0,252.0,450.0,0.0,0.0
939,44.0,0.0,450.0,0.0,0.0
940,48.0,12.0,450.0,0.0,0.0
941,51.0,0.0,450.0,0.0,0.0
942,56.0,0.0,450.0,0.0,0.0
943,72.0,240.0,240.0,0.0,0.0
944,70.0,228.0,240.0,0.0,0.0
945,44.0,12.0,450.0,0.0,0.0
946,49.0,0.0,450.0,0.0,0.0
947,51.0,0.0,450.0,0.0,0.0
948,55.0,0.0,450.0,0.0,0.0
949,63.0,468.0,240.0,0.0,0.0
950,55.0,0.0,450.0,0.0,0.0
951,51.0,0.0,450.0,0.0,0.0
952,44.0,252.0,450.0,0.0,0.0
953,70.0,88.0,720.0,0.0,0.0
954,49.0,0.0,450.0,0.0,0.0
955,56.0,0.0,450.0,0.0,0.0
956,51.0,0.0,450.0,0.0,0.0
957,44.0,0.0,450.0,0.0,0.0
958,48.0,19.0,450.0,0.0,0.0
959,68.0,79.0,90.0,0.0,0.0
960,70.0,61.0,90.0,0.0,0.0
961,68.0,233.0,90.0,0.0,0.0
962,51.0,0.0,450.0,0.0,0.0
963,55.0,0.0,450.0,0.0,0.0
964,44.0,12.0,450.0,0.0,0.0
965,63.0,228.0,240.0,0.0,0.0
966,49.0,0.0,450.0,0.0,0.0
967,70.0,240.0,240.0,0.0,0.0
968,55.0,0.0,450.0,0.0,0.0
969,49.0,0.0,450.0,0.0,0.0
970,44.0,12.0,450.0,0.0,0.0
971,51.0,0.0,450.0,0.0,0.0
972,75.0,228.0,240.0,0.0,0.0
973,74.0,240.0,240.0,0.0,0.0
974,44.0,12.0,450.0,0.0,0.0
975,75.0,228.0,240.0,0.0,0.0
976,49.0,0.0,450.0,0.0,0.0
977,51.0,0.0,450.0,0.0,0.0
978,55.0,0.0,450.0,0.0,0.0
979,72.0,240.0,240.0,0.0,0.0
980,70.0,228.0,240.0,0.0,0.0
981,44.0,0.0,450.0,0.0,0.0
982,49.0,0.0,450.0,0.0,0.0
983,51.0,0.0,450.0,0.0,0.0
984,55.0,12.0,450.0,0.0,0.0
985,63.0,468.0,240.0,0.0,0.0
986,51.0,0.0,450.0,0.0,0.0
987,56.0,0.0,450.0,0.0,0.0
988,44.0,0.0,450.0,0.0,0.0
989,68.0,252.0,450.0,0.0,0.0
990,48.0,0.0,450.0,0.0,0.0
991,56.0,0.0,450.0,0.0,0.0
992,44.0,12.0,450.0,0.0,0.0
993,48.0,0.0,450.0,0.0,0.0
994,72.0,228.0,240.0,0.0,0.0
995,51.0,0.0,450.0,0.0,0.0
996,74.0,240.0,240.0,0.0,0.0
997,55.0,0.0,450.0,0.0,0.0
998,75.0,228.0,240.0,0.0,0.0
999,49.0,0.0,450.0,0.0,0.0
1000,51.0,12.0,450.0,0.0,0.0
1001,44.0,0.0,450.0,0.0,0.0
1002,63.0,468.0,240.0,0.0,0.0
1003,68.0,252.0,450.0,0.0,0.0
1004,44.0,0.0,450.0,0.0,0.0
1005,48.0,0.0,450.0,0.0,0.0
1006,56.0,0.0,450.0,0.0,0.0
1007,51.0,0.0,450.0,0.0,0.0
1008,48.0,0.0,450.0,0.0,0.0
1009,72.0,228.0,240.0,0.0,0.0
1010,44.0,12.0,450.0,0.0,0.0
1011,51.0,0.0,450.0,0.0,0.0
1012,56.0,0.0,450.0,0.0,0.0
1013,74.0,240.0,240.0,0.0,0.0
1014,55.0,0.0,450.0,0.0,0.0
1015,44.0,12.0,450.0,0.0,0.0
1016,49.0,0.0,450.0,0.0,0.0
1017,51.0,0.0,450.0,0.0,0.0
1018,75.0,228.0,240.0,0.0,0.0
1019,63.0,468.0,240.0,0.0,0.0
1020,68.0,0.0,450.0,0.0,0.0
1021,44.0,0.0,450.0,0.0,0.0
1022,48.0,0.0,450.0,0.0,0.0
1023,51.0,0.0,450.0,0.0,0.0
1024,56.0,252.0,450.0,0.0,0.0
1025,56.0,0.0,450.0,0.0,0.0
1026,51.0,0.0,450.0,0.0,0.0
1027,44.0,12.0,450.0,0.0,0.0
1028,72.0,228.0,240.0,0.0,0.0
1029,48.0,0.0,450.0,0.0,0.0
1030,74.0,240.0,240.0,0.0,0.0
1031,55.0,0.0,450.0,0.0,0.0
1032,49.0,0.0,450.0,0.0,0.0
1033,44.0,12.0,450.0,0.0,0.0
1034,51.0,0.0,450.0,0.0,0.0
1035,75.0,228.0,240.0,0.0,0.0
1036,77.0,468.0,240.0,0.0,0.0
1037,55.0,0.0,450.0,0.0,0.0
1038,44.0,0.0,450.0,0.0,0.0
1039,49.0,0.0,450.0,0.0,0.0
1040,51.0,0.0,450.0,0.0,0.0
1041,75.0,252.0,450.0,0.0,0.0
1042,55.0,0.0,450.0,0.0,0.0
1043,51.0,0.0,450.0,0.0,0.0
1044,44.0,12.0,450.0,0.0,0.0
1045,70.0,228.0,240.0,0.0,0.0
1046,49.0,0.0,450.0,0.0,0.0
1047,72.0,468.0,240.0,0.0,0.0
1048,56.0,480.0,450.0,0.0,0.0
1049,51.0,0.0,450.0,0.0,0.0
1050,48.0,0.0,450.0,0.0,0.0
1051,44.0,0.0,450.0,0.0,0.0
1052,68.0,0.0,450.0,0.0,0.0
1053,72.0,960.0,450.0,0.0,0.0
1054,68.0,0.0,450.0,0.0,0.0
1055,44.0,0.0,450.0,0.0,0.0
1056,32.0,0.0,450.0,0.0,0.0
1057,75.0,0.0,450.0,0.0,0.0
1058,80.0,0.0,450.0,0.0,0.0
1059,51.0,480.0,450.0,0.0,0.0
1060,39.0,0.0,450.0,0.0,0.0
1061,27.0,0.0,450.0,0.0,0.0
1062,51.0,78.0,450.0,0.0,0.0
1063,39.0,0.0,450.0,0.0,0.0
1064,27.0,0.0,450.0,0.0,0.0
1065,50.0,60.0,120.0,0.0,0.0
1066,38.0,0.0,120.0,0.0,0.0
1067,48.0,0.0,120.0,0.0,0.0
1068,36.0,345.0,120.0,0.0,0.0
1069,46.0,57.0,390.0,0.0,0.0
1070,34.0,420.0,450.0,0.0,0.0
1071,39.0,0.0,450.0,0.0,0.0
1072,27.0,0.0,450.0,0.0,0.0
1073,51.0,480.0,450.0,0.0,0.0
1074,51.0,78.0,450.0,0.0,0.0
1075,39.0,0.0,450.0,0.0,0.0
1076,27.0,0.0,450.0,0.0,0.0
1077,50.0,60.0,120.0,0.0,0.0
1078,38.0,0.0,120.0,0.0,0.0
1079,48.0,0.0,120.0,0.0,0.0
1080,36.0,345.0,120.0,0.0,0.0
1081,46.0,57.0,390.0,0.0,0.0
1082,34.0,420.0,450.0,0.0,0.0
1083,51.0,480.0,450.0,0.0,0.0
1084,39.0,0.0,450.0,0.0,0.0
1085,27.0,0.0,450.0,0.0,0.0
1086,51.0,78.0,450.0,0.0,0.0
1087,27.0,0.0,450.0,0.0,0.0
1088,39.0,0.0,450.0,0.0,0.0
1089,50.0,60.0,120.0,0.0,0.0
1090,38.0,0.0,120.0,0.0,0.0
1091,48.0,0.0,120.0,0.0,0.0
1092,36.0,345.0,120.0,0.0,0.0
1093,46.0,57.0,390.0,0.0,0.0
1094,34.0,420.0,450.0,0.0,0.0
1095,27.0,480.0,450.0,0.0,0.0
1096,51.0,0.0,450.0,0.0,0.0
1097,39.0,0.0,450.0,0.0,0.0
1098,51.0,0.0,450.0,0.0,0.0
1099,27.0,480.0,450.0,0.0,0.0
1100,39.0,0.0,450.0,0.0,0.0
1101,55.0,0.0,450.0,0.0,0.0
1102,27.0,0.0,450.0,0.0,0.0
1103,39.0,0.0,450.0,0.0,0.0
1104,51.0,252.0,450.0,0.0,0.0
1105,61.0,0.0,450.0,0.0,0.0
1106,32.0,0.0,450.0,0.0,0.0
1107,44.0,0.0,450.0,0.0,0.0
1108,60.0,228.0,240.0,1.0,0.0
1109,56.0,12.0,450.0,0.0,0.0
1110,60.0,0.0,450.0,0.0,0.0
1111,51.0,0.0,450.0,0.0,0.0
1112,58.0,468.0,240.0,1.0,0.0
1113,32.0,0.0,450.0,0.0,0.0
1114,44.0,0.0,450.0,0.0,0.0
1115,51.0,0.0,450.0,0.0,0.0
1116,60.0,252.0,450.0,0.0,0.0
1117,56.0,0.0,450.0,0.0,0.0
1118,56.0,228.0,720.0,1.0,0.0
1119,60.0,12.0,450.0,0.0,0.0
1120,56.0,0.0,450.0,0.0,0.0
1121,51.0,0.0,450.0,0.0,0.0
1122,44.0,0.0,450.0,0.0,0.0
1123,32.0,0.0,450.0,0.0,0.0
1124,58.0,240.0,240.0,1.0,0.0
1125,60.0,228.0,240.0,1.0,0.0
1126,56.0,0.0,450.0,0.0,0.0
1127,60.0,12.0,450.0,0.0,0.0
1128,44.0,0.0,450.0,0.0,0.0
1129,51.0,0.0,450.0,0.0,0.0
1130,32.0,0.0,450.0,0.0,0.0
1131,61.0,468.0,240.0,1.0,0.0
1132,63.0,228.0,720.0,1.0,0.0
1133,56.0,0.0,450.0,0.0,0.0
1134,44.0,0.0,450.0,0.0,0.0
1135,32.0,0.0,450.0,0.0,0.0
1136,51.0,0.0,450.0,0.0,0.0
1137,60.0,252.0,450.0,0.0,0.0
1138,56.0,0.0,450.0,0.0,0.0
1139,44.0,0.0,450.0,0.0,0.0
1140,32.0,12.0,450.0,0.0,0.0
1141,60.0,0.0,450.0,0.0,0.0
1142,51.0,0.0,450.0,0.0,0.0
1143,65.0,240.0,240.0,1.0,0.0
1144,63.0,228.0,240.0,1.0,0.0
1145,44.0,0.0,450.0,0.0,0.0
1146,60.0,12.0,450.0,0.0,0.0
1147,56.0,0.0,450.0,0.0,0.0
1148,51.0,0.0,450.0,0.0,0.0
1149,32.0,0.0,450.0,0.0,0.0
1150,65.0,468.0,240.0,1.0,0.0
1151,63.0,480.0,450.0,1.0,0.0
1152,51.0,0.0,450.0,0.0,0.0
1153,44.0,0.0,450.0,0.0,0.0
1154,56.0,0.0,450.0,0.0,0.0
1155,60.0,0.0,450.0,0.0,0.0
1156,32.0,0.0,450.0,0.0,0.0
1157,68.0,0.0,450.0,1.0,0.0
1158,60.0,0.0,450.0,0.0,0.0
1159,56.0,0.0,450.0,0.0,0.0
1160,32.0,2856.0,450.0,0.0,0.0
1161,44.0,0.0,450.0,0.0,0.0
1162,51.0,0.0,450.0,0.0,0.0
1163,58.0,0.0,2820.0,0.0,0.0
1164,29.0,0.0,2820.0,0.0,0.0
1165,41.0,0.0,2820.0,0.0,0.0
1166,50.0,1716.0,2820.0,0.0,0.0
1167,70.0,0.0,2820.0,1.0,0.0
1168,56.0,0.0,2820.0,0.0,0.0
1169,58.0,0.0,450.0,0.0,0.0
1170,27.0,0.0,1410.0,0.0,0.0
1171,39.0,0.0,1410.0,0.0,0.0
1172,51.0,12.0,450.0,0.0,0.0
1173,55.0,0.0,450.0,0.0,0.0
1174,61.0,228.0,240.0,1.0,0.0
1175,65.0,411.0,240.0,1.0,0.0
1176,61.0,57.0,390.0,1.0,0.0
1177,61.0,0.0,450.0,0.0,0.0
1178,55.0,21.0,450.0,0.0,0.0
1179,51.0,0.0,450.0,0.0,0.0
1180,61.0,60.0,60.0,1.0,0.0
1181,60.0,399.0,60.0,1.0,0.0
1182,61.0,0.0,450.0,0.0,0.0
1183,55.0,0.0,450.0,0.0,0.0
1184,51.0,3.0,450.0,0.0,0.0
1185,58.0,249.0,390.0,1.0,0.0
1186,44.0,3.0,1410.0,0.0,0.0
1187,60.0,240.0,240.0,1.0,0.0
1188,63.0,411.0,240.0,1.0,0.0
1189,60.0,57.0,390.0,1.0,0.0
1190,60.0,21.0,450.0,0.0,0.0
1191,56.0,0.0,450.0,0.0,0.0
1192,51.0,0.0,450.0,0.0,0.0
1193,60.0,60.0,60.0,1.0,0.0
1194,51.0,0.0,450.0,0.0,0.0
1195,60.0,0.0,450.0,0.0,0.0
1196,56.0,0.0,450.0,0.0,0.0
1197,58.0,399.0,60.0,1.0,0.0
1198,56.0,249.0,390.0,1.0,0.0
1199,39.0,0.0,1410.0,0.0,0.0
1200,58.0,240.0,240.0,1.0,0.0
1201,60.0,468.0,240.0,1.0,0.0
1202,55.0,0.0,450.0,0.0,0.0
1203,51.0,0.0,450.0,0.0,0.0
1204,61.0,480.0,450.0,0.0,0.0
1205,61.0,0.0,450.0,1.0,0.0
1206,61.0,0.0,450.0,0.0,0.0
1207,51.0,0.0,450.0,0.0,0.0
1208,65.0,960.0,450.0,1.0,0.0
1209,55.0,0.0,450.0,0.0,0.0
1210,63.0,0.0,1410.0,1.0,0.0
1211,44.0,0.0,930.0,0.0,0.0
1212,51.0,0.0,450.0,0.0,0.0
1213,56.0,0.0,450.0,0.0,0.0
1214,60.0,480.0,450.0,0.0,0.0
1215,60.0,0.0,450.0,0.0,0.0
1216,54.0,0.0,450.0,0.0,0.0
1217,51.0,252.0,450.0,0.0,0.0
1218,45.0,0.0,450.0,0.0,0.0
1219,46.0,0.0,450.0,0.0,0.0
1220,53.0,0.0,450.0,0.0,0.0
1221,58.0,0.0,450.0,0.0,0.0
1222,61.0,12.0,450.0,0.0,0.0
1223,61.0,228.0,240.0,1.0,0.0
1224,65.0,411.0,240.0,1.0,0.0
1225,61.0,57.0,390.0,1.0,0.0
1226,61.0,21.0,450.0,0.0,0.0
1227,58.0,0.0,450.0,0.0,0.0
1228,52.0,0.0,450.0,0.0,0.0
1229,44.0,0.0,450.0,0.0,0.0
1230,61.0,60.0,60.0,1.0,0.0
1231,51.0,0.0,450.0,0.0,0.0
1232,61.0,0.0,450.0,0.0,0.0
1233,58.0,0.0,450.0,0.0,0.0
1234,60.0,399.0,60.0,1.0,0.0
1235,43.0,3.0,450.0,0.0,0.0
1236,58.0,249.0,390.0,1.0,0.0
1237,44.0,0.0,450.0,0.0,0.0
1238,56.0,12.0,450.0,0.0,0.0
1239,51.0,0.0,450.0,0.0,0.0
1240,60.0,0.0,450.0,0.0,0.0
1241,60.0,228.0,240.0,1.0,0.0
1242,63.0,411.0,240.0,1.0,0.0
1243,60.0,0.0,450.0,0.0,0.0
1244,56.0,21.0,450.0,0.0,0.0
1245,53.0,0.0,450.0,0.0,0.0
1246,41.0,0.0,450.0,0.0,0.0
1247,60.0,57.0,390.0,1.0,0.0
1248,60.0,60.0,60.0,1.0,0.0
1249,56.0,0.0,450.0,0.0,0.0
1250,51.0,0.0,450.0,0.0,0.0
1251,60.0,3.0,450.0,0.0,0.0
1252,36.0,0.0,450.0,0.0,0.0
1253,58.0,399.0,60.0,1.0,0.0
1254,56.0,249.0,390.0,1.0,0.0
1255,58.0,0.0,450.0,0.0,0.0
1256,53.0,0.0,450.0,0.0,0.0
1257,37.0,0.0,450.0,0.0,0.0
1258,56.0,12.0,450.0,0.0,0.0
1259,58.0,228.0,240.0,1.0,0.0
1260,65.0,468.0,240.0,1.0,0.0
1261,61.0,0.0,450.0,0.0,0.0
1262,55.0,0.0,450.0,0.0,0.0
1263,51.0,0.0,450.0,0.0,0.0
1264,39.0,252.0,450.0,0.0,0.0
1265,63.0,228.0,720.0,1.0,0.0
1266,39.0,0.0,450.0,0.0,0.0
1267,51.0,0.0,450.0,0.0,0.0
1268,55.0,12.0,450.0,0.0,0.0
1269,61.0,0.0,450.0,0.0,0.0
1270,55.0,468.0,240.0,1.0,0.0
1271,51.0,0.0,450.0,0.0,0.0
1272,32.0,0.0,450.0,0.0,0.0
1273,60.0,0.0,450.0,0.0,0.0
1274,56.0,0.0,450.0,0.0,0.0
1275,44.0,480.0,450.0,0.0,0.0
1276,56.0,0.0,1410.0,1.0,0.0
1277,32.0,0.0,450.0,0.0,0.0
1278,60.0,0.0,450.0,0.0,0.0
1279,44.0,0.0,450.0,0.0,0.0
1280,51.0,480.0,450.0,0.0,0.0
1281,56.0,0.0,450.0,0.0,0.0
1282,60.0,252.0,450.0,0.0,0.0
1283,44.0,0.0,450.0,0.0,0.0
1284,51.0,0.0,450.0,0.0,0.0
1285,56.0,0.0,450.0,0.0,0.0
1286,32.0,0.0,450.0,0.0,0.0
1287,63.0,228.0,240.0,0.0,0.0
1288,44.0,0.0,450.0,0.0,0.0
1289,49.0,12.0,450.0,0.0,0.0
1290,51.0,0.0,450.0,0.0,0.0
1291,55.0,0.0,450.0,0.0,0.0
1292,70.0,468.0,240.0,0.0,0.0
1293,75.0,228.0,720.0,0.0,0.0
1294,44.0,0.0,450.0,0.0,0.0
1295,49.0,252.0,450.0,0.0,0.0
1296,51.0,0.0,450.0,0.0,0.0
1297,55.0,0.0,450.0,0.0,0.0
1298,48.0,0.0,450.0,0.0,0.0
1299,51.0,0.0,450.0,0.0,0.0
1300,56.0,0.0,450.0,0.0,0.0
1301,44.0,12.0,450.0,0.0,0.0
1302,72.0,240.0,240.0,0.0,0.0
1303,70.0,228.0,240.0,0.0,0.0
1304,44.0,0.0,450.0,0.0,0.0
1305,49.0,0.0,450.0,0.0,0.0
1306,51.0,0.0,450.0,0.0,0.0
1307,55.0,12.0,450.0,0.0,0.0
1308,63.0,468.0,240.0,0.0,0.0
1309,70.0,88.0,720.0,0.0,0.0
1310,44.0,252.0,450.0,0.0,0.0
1311,49.0,0.0,450.0,0.0,0.0
1312,51.0,0.0,450.0,0.0,0.0
1313,55.0,0.0,450.0,0.0,0.0
1314,48.0,0.0,450.0,0.0,0.0
1315,44.0,19.0,450.0,0.0,0.0
1316,56.0,0.0,450.0,0.0,0.0
1317,51.0,0.0,450.0,0.0,0.0
1318,68.0,79.0,90.0,0.0,0.0
1319,70.0,61.0,90.0,0.0,0.0
1320,68.0,233.0,90.0,0.0,0.0
1321,63.0,228.0,240.0,0.0,0.0
1322,44.0,12.0,450.0,0.0,0.0
1323,49.0,0.0,450.0,0.0,0.0
1324,51.0,0.0,450.0,0.0,0.0
1325,55.0,0.0,450.0,0.0,0.0
1326,70.0,240.0,240.0,0.0,0.0
1327,75.0,228.0,240.0,0.0,0.0
1328,44.0,0.0,450.0,0.0,0.0
1329,49.0,0.0,450.0,0.0,0.0
1330,51.0,0.0,450.0,0.0,0.0
1331,55.0,12.0,450.0,0.0,0.0
1332,74.0,240.0,240.0,0.0,0.0
1333,75.0,228.0,240.0,0.0,0.0
1334,44.0,0.0,450.0,0.0,0.0
1335,49.0,0.0,450.0,0.0,0.0
1336,51.0,12.0,450.0,0.0,0.0
1337,55.0,0.0,450.0,0.0,0.0
1338,72.0,240.0,240.0,0.0,0.0
1339,55.0,0.0,450.0,0.0,0.0
1340,70.0,228.0,240.0,0.0,0.0
1341,44.0,12.0,450.0,0.0,0.0
1342,49.0,0.0,450.0,0.0,0.0
1343,51.0,0.0,450.0,0.0,0.0
1344,63.0,468.0,240.0,0.0,0.0
1345,56.0,0.0,450.0,0.0,0.0
1346,51.0,0.0,450.0,0.0,0.0
1347,44.0,0.0,450.0,0.0,0.0
1348,68.0,252.0,450.0,0.0,0.0
1349,48.0,0.0,450.0,0.0,0.0
1350,56.0,0.0,450.0,0.0,0.0
1351,72.0,228.0,240.0,0.0,0.0
1352,44.0,12.0,450.0,0.0,0.0
1353,48.0,0.0,450.0,0.0,0.0
1354,51.0,0.0,450.0,0.0,0.0
1355,74.0,240.0,240.0,0.0,0.0
1356,75.0,228.0,240.0,0.0,0.0
1357,49.0,12.0,450.0,0.0,0.0
1358,44.0,0.0,450.0,0.0,0.0
1359,55.0,0.0,450.0,0.0,0.0
1360,51.0,0.0,450.0,0.0,0.0
1361,63.0,468.0,240.0,0.0,0.0
1362,44.0,0.0,450.0,0.0,0.0
1363,68.0,252.0,450.0,0.0,0.0
1364,48.0,0.0,450.0,0.0,0.0
1365,51.0,0.0,450.0,0.0,0.0
1366,56.0,0.0,450.0,0.0,0.0
1367,56.0,0.0,450.0,0.0,0.0
1368,51.0,0.0,450.0,0.0,0.0
1369,48.0,0.0,450.0,0.0,0.0
1370,44.0,12.0,450.0,0.0,0.0
1371,72.0,228.0,240.0,0.0,0.0
1372,74.0,240.0,240.0,0.0,0.0
1373,51.0,0.0,450.0,0.0,0.0
1374,49.0,0.0,450.0,0.0,0.0
1375,55.0,0.0,450.0,0.0,0.0
1376,75.0,228.0,240.0,0.0,0.0
1377,44.0,12.0,450.0,0.0,0.0
1378,63.0,468.0,240.0,0.0,0.0
1379,56.0,252.0,450.0,0.0,0.0
1380,48.0,0.0,450.0,0.0,0.0
1381,51.0,0.0,450.0,0.0,0.0
1382,68.0,0.0,450.0,0.0,0.0
1383,44.0,0.0,450.0,0.0,0.0
1384,72.0,228.0,240.0,0.0,0.0
1385,44.0,0.0,450.0,0.0,0.0
1386,48.0,0.0,450.0,0.0,0.0
1387,51.0,0.0,450.0,0.0,0.0
1388,56.0,12.0,450.0,0.0,0.0
1389,74.0,240.0,240.0,0.0,0.0
1390,75.0,228.0,240.0,0.0,0.0
1391,44.0,0.0,450.0,0.0,0.0
1392,49.0,0.0,450.0,0.0,0.0
1393,51.0,0.0,450.0,0.0,0.0
1394,55.0,12.0,450.0,0.0,0.0
1395,77.0,468.0,240.0,0.0,0.0
1396,75.0,0.0,450.0,0.0,0.0
1397,44.0,0.0,450.0,0.0,0.0
1398,49.0,0.0,450.0,0.0,0.0
1399,51.0,252.0,450.0,0.0,0.0
1400,55.0,0.0,450.0,0.0,0.0
1401,49.0,0.0,450.0,0.0,0.0
1402,51.0,0.0,450.0,0.0,0.0
1403,55.0,0.0,450.0,0.0,0.0
1404,70.0,228.0,240.0,0.0,0.0
1405,44.0,12.0,450.0,0.0,0.0
1406,72.0,468.0,240.0,0.0,0.0
1407,56.0,0.0,450.0,0.0,0.0
1408,51.0,0.0,450.0,0.0,0.0
1409,44.0,0.0,450.0,0.0,0.0
1410,48.0,0.0,450.0,0.0,0.0
1411,68.0,480.0,450.0,0.0,0.0
1412,32.0,0.0,450.0,0.0,0.0
1413,75.0,0.0,450.0,0.0,0.0
1414,44.0,0.0,450.0,0.0,0.0
1415,68.0,0.0,450.0,0.0,0.0
1416,72.0,0.0,450.0,0.0,0.0
1417,80.0,960.0,450.0,0.0,0.0
1418,39.0,0.0,450.0,0.0,0.0
1419,51.0,0.0,450.0,0.0,0.0
1420,27.0,480.0,450.0,0.0,0.0
1421,51.0,78.0,450.0,0.0,0.0
1422,27.0,0.0,450.0,0.0,0.0
1423,39.0,0.0,450.0,0.0,0.0
1424,38.0,0.0,120.0,0.0,0.0
1425,50.0,60.0,120.0,0.0,0.0
1426,48.0,345.0,120.0,0.0,0.0
1427,36.0,0.0,120.0,0.0,0.0
1428,46.0,57.0,390.0,0.0,0.0
1429,34.0,420.0,450.0,0.0,0.0
1430,27.0,0.0,450.0,0.0,0.0
1431,51.0,480.0,450.0,0.0,0.0
1432,39.0,0.0,450.0,0.0,0.0
1433,51.0,0.0,450.0,0.0,0.0
1434,39.0,0.0,450.0,0.0,0.0
1435,27.0,78.0,450.0,0.0,0.0
1436,50.0,60.0,120.0,0.0,0.0
1437,38.0,0.0,120.0,0.0,0.0
1438,48.0,345.0,120.0,0.0,0.0
1439,36.0,0.0,120.0,0.0,0.0
1440,46.0,57.0,390.0,0.0,0.0
1441,34.0,420.0,450.0,0.0,0.0
1442,51.0,0.0,450.0,0.0,0.0
1443,39.0,480.0,450.0,0.0,0.0
1444,27.0,0.0,450.0,0.0,0.0
1445,51.0,78.0,450.0,0.0,0.0
1446,39.0,0.0,450.0,0.0,0.0
1447,27.0,0.0,450.0,0.0,0.0
1448,50.0,60.0,120.0,0.0,0.0
1449,38.0,0.0,120.0,0.0,0.0
1450,48.0,345.0,120.0,0.0,0.0
1451,36.0,0.0,120.0,0.0,0.0
1452,46.0,57.0,390.0,0.0,0.0
1453,34.0,420.0,450.0,0.0,0.0
1454,51.0,480.0,450.0,0.0,0.0
1455,39.0,0.0,450.0,0.0,0.0
1456,27.0,0.0,450.0,0.0,0.0
1457,51.0,0.0,450.0,0.0,0.0
1458,39.0,480.0,450.0,0.0,0.0
1459,27.0,0.0,450.0,0.0,0.0
1460,51.0,252.0,450.0,0.0,0.0
1461,39.0,0.0,450.0,0.0,0.0
1462,27.0,0.0,450.0,0.0,0.0
1463,55.0,0.0,450.0,0.0,0.0
1464,61.0,0.0,450.0,0.0,0.0
1465,60.0,228.0,240.0,1.0,0.0
1466,51.0,0.0,450.0,0.0,0.0
1467,60.0,0.0,450.0,0.0,0.0
1468,32.0,0.0,450.0,0.0,0.0
1469,56.0,0.0,450.0,0.0,0.0
1470,44.0,12.0,450.0,0.0,0.0
1471,58.0,468.0,240.0,1.0,0.0
1472,60.0,0.0,450.0,0.0,0.0
1473,56.0,0.0,450.0,0.0,0.0
1474,32.0,0.0,450.0,0.0,0.0
1475,44.0,0.0,450.0,0.0,0.0
1476,51.0,252.0,450.0,0.0,0.0
1477,56.0,228.0,720.0,1.0,0.0
1478,60.0,0.0,450.0,0.0,0.0
1479,56.0,0.0,450.0,0.0,0.0
1480,51.0,0.0,450.0,0.0,0.0
1481,44.0,12.0,450.0,0.0,0.0
1482,32.0,0.0,450.0,0.0,0.0
1483,58.0,240.0,240.0,1.0,0.0
1484,60.0,228.0,240.0,1.0,0.0
1485,32.0,0.0,450.0,0.0,0.0
1486,60.0,0.0,450.0,0.0,0.0
1487,56.0,12.0,450.0,0.0,0.0
1488,51.0,0.0,450.0,0.0,0.0
1489,44.0,0.0,450.0,0.0,0.0
1490,61.0,468.0,240.0,1.0,0.0
1491,51.0,0.0,450.0,0.0,0.0
1492,63.0,228.0,720.0,1.0,0.0
1493,32.0,0.0,450.0,0.0,0.0
1494,44.0,0.0,450.0,0.0,0.0
1495,56.0,252.0,450.0,0.0,0.0
1496,60.0,0.0,450.0,0.0,0.0
1497,32.0,12.0,450.0,0.0,0.0
1498,60.0,0.0,450.0,0.0,0.0
1499,56.0,0.0,450.0,0.0,0.0
1500,51.0,0.0,450.0,0.0,0.0
1501,44.0,0.0,450.0,0.0,0.0
1502,65.0,240.0,240.0,1.0,0.0
1503,44.0,0.0,450.0,0.0,0.0
1504,51.0,12.0,450.0,0.0,0.0
1505,56.0,0.0,450.0,0.0,0.0
1506,63.0,228.0,240.0,1.0,0.0
1507,32.0,0.0,450.0,0.0,0.0
1508,60.0,0.0,450.0,0.0,0.0
1509,65.0,468.0,240.0,1.0,0.0
1510,63.0,0.0,450.0,1.0,0.0
1511,44.0,480.0,450.0,0.0,0.0
1512,60.0,0.0,450.0,0.0,0.0
1513,56.0,0.0,450.0,0.0,0.0
1514,51.0,0.0,450.0,0.0,0.0
1515,32.0,0.0,450.0,0.0,0.0
1516,60.0,0.0,450.0,0.0,0.0
1517,56.0,2856.0,450.0,0.0,0.0
1518,51.0,0.0,450.0,0.0,0.0
1519,44.0,0.0,450.0,0.0,0.0
1520,32.0,0.0,450.0,0.0,0.0
1521,68.0,0.0,450.0,1.0,0.0
1522,39.0,0.0,2820.0,0.0,0.0
1523,51.0,1716.0,2820.0,0.0,0.0
1524,70.0,0.0,2820.0,1.0,0.0
1525,55.0,0.0,2820.0,0.0,0.0
1526,58.0,0.0,2820.0,0.0,0.0
1527,63.0,0.0,2820.0,0.0,0.0
1528,27.0,0.0,2820.0,0.0,0.0
1529,39.0,0.0,1410.0,0.0,0.0
1530,61.0,240.0,240.0,1.0,0.0
1531,65.0,411.0,240.0,1.0,0.0
1532,61.0,57.0,390.0,1.0,0.0
1533,51.0,0.0,450.0,0.0,0.0
1534,55.0,21.0,450.0,0.0,0.0
1535,61.0,0.0,450.0,0.0,0.0
1536,61.0,60.0,60.0,1.0,0.0
1537,51.0,0.0,450.0,0.0,0.0
1538,60.0,399.0,60.0,1.0,0.0
1539,61.0,3.0,450.0,0.0,0.0
1540,55.0,0.0,450.0,0.0,0.0
1541,58.0,249.0,390.0,1.0,0.0
1542,44.0,3.0,1410.0,0.0,0.0
1543,60.0,240.0,240.0,1.0,0.0
1544,63.0,411.0,240.0,1.0,0.0
1545,60.0,57.0,390.0,1.0,0.0
1546,51.0,21.0,450.0,0.0,0.0
1547,56.0,0.0,450.0,0.0,0.0
1548,60.0,0.0,450.0,0.0,0.0
1549,60.0,60.0,60.0,1.0,0.0
1550,58.0,399.0,60.0,1.0,0.0
1551,60.0,0.0,450.0,0.0,0.0
1552,56.0,0.0,450.0,0.0,0.0
1553,51.0,0.0,450.0,0.0,0.0
1554,56.0,249.0,390.0,1.0,0.0
1555,58.0,240.0,240.0,1.0,0.0
1556,39.0,0.0,1410.0,0.0,0.0
1557,60.0,468.0,240.0,1.0,0.0
1558,61.0,0.0,450.0,1.0,0.0
1559,61.0,0.0,450.0,0.0,0.0
1560,55.0,480.0,450.0,0.0,0.0
1561,51.0,0.0,450.0,0.0,0.0
1562,51.0,960.0,450.0,0.0,0.0
1563,65.0,0.0,450.0,1.0,0.0
1564,55.0,0.0,450.0,0.0,0.0
1565,61.0,0.0,450.0,0.0,0.0
1566,63.0,252.0,1410.0,1.0,0.0
1567,44.0,480.0,930.0,0.0,0.0
1568,60.0,0.0,450.0,0.0,0.0
1569,51.0,0.0,450.0,0.0,0.0
1570,56.0,0.0,450.0,0.0,0.0
1571,45.0,0.0,450.0,0.0,0.0
1572,51.0,0.0,450.0,0.0,0.0
1573,54.0,0.0,450.0,0.0,0.0
1574,60.0,0.0,450.0,0.0,0.0
1575,61.0,228.0,240.0,1.0,0.0
1576,46.0,0.0,450.0,0.0,0.0
1577,53.0,0.0,450.0,0.0,0.0
1578,58.0,12.0,450.0,0.0,0.0
1579,61.0,0.0,450.0,0.0,0.0
1580,65.0,411.0,240.0,1.0,0.0
1581,61.0,0.0,450.0,0.0,0.0
1582,58.0,0.0,450.0,0.0,0.0
1583,52.0,0.0,450.0,0.0,0.0
1584,44.0,21.0,450.0,0.0,0.0
1585,61.0,57.0,390.0,1.0,0.0
1586,61.0,60.0,60.0,1.0,0.0
1587,61.0,0.0,450.0,0.0,0.0
1588,58.0,0.0,450.0,0.0,0.0
1589,51.0,0.0,450.0,0.0,0.0
1590,43.0,3.0,450.0,0.0,0.0
1591,60.0,399.0,60.0,1.0,0.0
1592,58.0,249.0,390.0,1.0,0.0
1593,44.0,0.0,450.0,0.0,0.0
1594,51.0,0.0,450.0,0.0,0.0
1595,56.0,12.0,450.0,0.0,0.0
1596,60.0,0.0,450.0,0.0,0.0
1597,60.0,228.0,240.0,1.0,0.0
1598,63.0,411.0,240.0,1.0,0.0
1599,60.0,0.0,450.0,0.0,0.0
1600,56.0,0.0,450.0,0.0,0.0
1601,53.0,0.0,450.0,0.0,0.0
1602,60.0,57.0,390.0,1.0,0.0
1603,41.0,21.0,450.0,0.0,0.0
1604,60.0,60.0,60.0,1.0,0.0
1605,51.0,0.0,450.0,0.0,0.0
1606,58.0,399.0,60.0,1.0,0.0
1607,36.0,0.0,450.0,0.0,0.0
1608,56.0,0.0,450.0,0.0,0.0
1609,60.0,3.0,450.0,0.0,0.0
1610,56.0,249.0,390.0,1.0,0.0
1611,58.0,0.0,450.0,0.0,0.0
1612,56.0,0.0,450.0,0.0,0.0
1613,37.0,12.0,450.0,0.0,0.0
1614,53.0,0.0,450.0,0.0,0.0
1615,58.0,228.0,240.0,1.0,0.0
1616,65.0,468.0,240.0,1.0,0.0
1617,51.0,0.0,450.0,0.0,0.0
1618,39.0,0.0,450.0,0.0,0.0
1619,55.0,252.0,450.0,0.0,0.0
1620,61.0,0.0,450.0,0.0,0.0
1621,63.0,228.0,720.0,1.0,0.0
1622,61.0,12.0,450.0,0.0,0.0
1623,55.0,0.0,450.0,0.0,0.0
1624,51.0,0.0,450.0,0.0,0.0
1625,39.0,0.0,450.0,0.0,0.0
1626,55.0,468.0,240.0,1.0,0.0
1627,32.0,0.0,450.0,0.0,0.0
1628,44.0,480.0,450.0,0.0,0.0
1629,60.0,0.0,450.0,0.0,0.0
1630,51.0,0.0,450.0,0.0,0.0
1631,56.0,0.0,1410.0,1.0,0.0
1632,56.0,0.0,450.0,0.0,0.0
1633,44.0,480.0,450.0,0.0,0.0
1634,51.0,0.0,450.0,0.0,0.0
1635,51.0,252.0,450.0,0.0,0.0
1636,44.0,0.0,450.0,0.0,0.0
1637,49.0,0.0,450.0,0.0,0.0
1638,51.0,0.0,450.0,0.0,0.0
1639,55.0,0.0,450.0,0.0,0.0
1640,44.0,12.0,450.0,0.0,0.0
1641,63.0,228.0,240.0,0.0,0.0
1642,70.0,468.0,240.0,0.0,0.0
1643,51.0,0.0,450.0,0.0,0.0
1644,44.0,0.0,450.0,0.0,0.0
1645,55.0,0.0,450.0,0.0,0.0
1646,75.0,228.0,720.0,0.0,0.0
1647,49.0,252.0,450.0,0.0,0.0
1648,44.0,12.0,450.0,0.0,0.0
1649,48.0,0.0,450.0,0.0,0.0
1650,51.0,0.0,450.0,0.0,0.0
1651,56.0,0.0,450.0,0.0,0.0
1652,72.0,240.0,240.0,0.0,0.0
1653,55.0,0.0,450.0,0.0,0.0
1654,51.0,0.0,450.0,0.0,0.0
1655,44.0,12.0,450.0,0.0,0.0
1656,70.0,228.0,240.0,0.0,0.0
1657,49.0,0.0,450.0,0.0,0.0
1658,63.0,468.0,240.0,0.0,0.0
1659,55.0,0.0,450.0,0.0,0.0
1660,51.0,0.0,450.0,0.0,0.0
1661,70.0,88.0,720.0,0.0,0.0
1662,44.0,252.0,450.0,0.0,0.0
1663,49.0,0.0,450.0,0.0,0.0
1664,56.0,0.0,450.0,0.0,0.0
1665,51.0,0.0,450.0,0.0,0.0
1666,44.0,0.0,450.0,0.0,0.0
1667,48.0,19.0,450.0,0.0,0.0
1668,68.0,79.0,90.0,0.0,0.0
1669,70.0,61.0,90.0,0.0,0.0
1670,68.0,233.0,90.0,0.0,0.0
1671,63.0,228.0,240.0,0.0,0.0
1672,44.0,0.0,450.0,0.0,0.0
1673,49.0,0.0,450.0,0.0,0.0
1674,51.0,0.0,450.0,0.0,0.0
1675,55.0,12.0,450.0,0.0,0.0
1676,70.0,240.0,240.0,0.0,0.0
1677,51.0,0.0,450.0,0.0,0.0
1678,55.0,0.0,450.0,0.0,0.0
1679,44.0,12.0,450.0,0.0,0.0
1680,75.0,228.0,240.0,0.0,0.0
1681,49.0,0.0,450.0,0.0,0.0
1682,74.0,240.0,240.0,0.0,0.0
1683,55.0,0.0,450.0,0.0,0.0
1684,51.0,0.0,450.0,0.0,0.0
1685,44.0,12.0,450.0,0.0,0.0
1686,75.0,228.0,240.0,0.0,0.0
1687,49.0,0.0,450.0,0.0,0.0
1688,72.0,240.0,240.0,0.0,0.0
1689,44.0,0.0,450.0,0.0,0.0
1690,49.0,0.0,450.0,0.0,0.0
1691,51.0,12.0,450.0,0.0,0.0
1692,55.0,0.0,450.0,0.0,0.0
1693,70.0,228.0,240.0,0.0,0.0
1694,63.0,468.0,240.0,0.0,0.0
1695,68.0,0.0,450.0,0.0,0.0
1696,44.0,0.0,450.0,0.0,0.0
1697,48.0,252.0,450.0,0.0,0.0
1698,51.0,0.0,450.0,0.0,0.0
1699,56.0,0.0,450.0,0.0,0.0
1700,72.0,228.0,240.0,0.0,0.0
1701,44.0,0.0,450.0,0.0,0.0
1702,48.0,12.0,450.0,0.0,0.0
1703,51.0,0.0,450.0,0.0,0.0
1704,56.0,0.0,450.0,0.0,0.0
1705,74.0,240.0,240.0,0.0,0.0
1706,49.0,0.0,450.0,0.0,0.0
1707,44.0,12.0,450.0,0.0,0.0
1708,75.0,228.0,240.0,0.0,0.0
1709,51.0,0.0,450.0,0.0,0.0
1710,55.0,0.0,450.0,0.0,0.0
1711,63.0,468.0,240.0,0.0,0.0
1712,68.0,0.0,450.0,0.0,0.0
1713,44.0,0.0,450.0,0.0,0.0
1714,48.0,252.0,450.0,0.0,0.0
1715,51.0,0.0,450.0,0.0,0.0
1716,56.0,0.0,450.0,0.0,0.0
1717,48.0,0.0,450.0,0.0,0.0
1718,51.0,12.0,450.0,0.0,0.0
1719,56.0,0.0,450.0,0.0,0.0
1720,44.0,0.0,450.0,0.0,0.0
1721,72.0,228.0,240.0,0.0,0.0
1722,74.0,240.0,240.0,0.0,0.0
1723,75.0,228.0,240.0,0.0,0.0
1724,44.0,0.0,450.0,0.0,0.0
1725,49.0,12.0,450.0,0.0,0.0
1726,51.0,0.0,450.0,0.0,0.0
1727,55.0,0.0,450.0,0.0,0.0
1728,63.0,468.0,240.0,0.0,0.0
1729,48.0,0.0,450.0,0.0,0.0
1730,51.0,0.0,450.0,0.0,0.0
1731,56.0,0.0,450.0,0.0,0.0
1732,68.0,0.0,450.0,0.0,0.0
1733,44.0,252.0,450.0,0.0,0.0
1734,72.0,228.0,240.0,0.0,0.0
1735,44.0,12.0,450.0,0.0,0.0
1736,48.0,0.0,450.0,0.0,0.0
1737,51.0,0.0,450.0,0.0,0.0
1738,56.0,0.0,450.0,0.0,0.0
1739,74.0,240.0,240.0,0.0,0.0
1740,75.0,228.0,240.0,0.0,0.0
1741,44.0,12.0,450.0,0.0,0.0
1742,49.0,0.0,450.0,0.0,0.0
1743,51.0,0.0,450.0,0.0,0.0
1744,55.0,0.0,450.0,0.0,0.0
1745,77.0,468.0,240.0,0.0,0.0
1746,75.0,0.0,450.0,0.0,0.0
1747,49.0,0.0,450.0,0.0,0.0
1748,44.0,0.0,450.0,0.0,0.0
1749,51.0,252.0,450.0,0.0,0.0
1750,55.0,0.0,450.0,0.0,0.0
1751,70.0,228.0,240.0,0.0,0.0
1752,44.0,12.0,450.0,0.0,0.0
1753,49.0,0.0,450.0,0.0,0.0
1754,51.0,0.0,450.0,0.0,0.0
1755,55.0,0.0,450.0,0.0,0.0
1756,72.0,468.0,240.0,0.0,0.0
1757,56.0,0.0,450.0,0.0,0.0
1758,51.0,0.0,450.0,0.0,0.0
1759,44.0,480.0,450.0,0.0,0.0
1760,68.0,0.0,450.0,0.0,0.0
1761,48.0,0.0,450.0,0.0,0.0
1762,68.0,504.0,450.0,0.0,0.0
1763,72.0,0.0,450.0,0.0,0.0
1764,75.0,0.0,450.0,0.0,0.0
1765,44.0,0.0,450.0,0.0,0.0
1766,32.0,0.0,450.0,0.0,0.0
1767,80.0,0.0,450.0,0.0,0.0
