,note,step,duration,channel,velocity
0,59.0,0.0,15.0,0.0,0.0
1,52.0,0.0,15.0,0.0,0.0
2,47.0,0.0,15.0,0.0,0.0
3,56.0,240.0,15.0,0.0,0.0
4,47.0,0.0,15.0,0.0,0.0
5,52.0,0.0,15.0,0.0,0.0
6,56.0,240.0,240.0,0.0,0.0
7,59.0,240.0,15.0,0.0,0.0
8,59.0,0.0,15.0,0.0,0.0
9,47.0,0.0,15.0,0.0,0.0
10,59.0,0.0,15.0,0.0,0.0
11,52.0,0.0,15.0,0.0,0.0
12,56.0,240.0,15.0,0.0,0.0
13,59.0,0.0,15.0,0.0,0.0
14,47.0,0.0,15.0,0.0,0.0
15,56.0,240.0,15.0,0.0,0.0
16,52.0,0.0,15.0,0.0,0.0
17,47.0,0.0,15.0,0.0,0.0
18,56.0,0.0,15.0,0.0,0.0
19,52.0,0.0,15.0,0.0,0.0
20,59.0,240.0,15.0,0.0,0.0
21,56.0,0.0,15.0,0.0,0.0
22,52.0,240.0,15.0,0.0,0.0
23,47.0,0.0,15.0,0.0,0.0
24,59.0,0.0,240.0,0.0,0.0
25,47.0,240.0,15.0,0.0,0.0
26,59.0,0.0,15.0,0.0,0.0
27,56.0,0.0,15.0,0.0,0.0
28,52.0,0.0,15.0,0.0,0.0
29,47.0,0.0,240.0,0.0,0.0
30,47.0,0.0,240.0,0.0,0.0
31,52.0,0.0,15.0,0.0,0.0
32,59.0,240.0,240.0,0.0,0.0
33,56.0,0.0,240.0,0.0,0.0
34,35.0,0.0,240.0,0.0,0.0
35,57.0,240.0,15.0,0.0,0.0
36,63.0,0.0,240.0,0.0,0.0
37,54.0,0.0,240.0,0.0,0.0
38,59.0,0.0,240.0,0.0,0.0
39,68.0,240.0,240.0,0.0,0.0
40,47.0,240.0,15.0,0.0,0.0
41,57.0,0.0,240.0,0.0,0.0
42,54.0,0.0,240.0,0.0,0.0
43,59.0,0.0,15.0,0.0,0.0
44,57.0,0.0,240.0,0.0,0.0
45,47.0,0.0,15.0,0.0,0.0
46,69.0,0.0,240.0,0.0,0.0
47,54.0,240.0,15.0,0.0,0.0
48,47.0,0.0,240.0,0.0,0.0
49,59.0,0.0,240.0,0.0,0.0
50,61.0,0.0,240.0,0.0,0.0
51,47.0,0.0,240.0,0.0,0.0
52,54.0,0.0,240.0,0.0,0.0
53,59.0,240.0,240.0,0.0,0.0
54,63.0,0.0,240.0,0.0,0.0
55,57.0,240.0,15.0,0.0,0.0
56,66.0,240.0,720.0,0.0,0.0
57,40.0,240.0,240.0,0.0,0.0
58,59.0,0.0,240.0,0.0,0.0
59,52.0,0.0,240.0,0.0,0.0
60,62.0,0.0,15.0,0.0,0.0
61,56.0,240.0,15.0,0.0,0.0
62,52.0,0.0,240.0,0.0,0.0
63,59.0,0.0,15.0,0.0,0.0
64,64.0,0.0,960.0,0.0,0.0
65,62.0,0.0,240.0,0.0,0.0
66,52.0,0.0,240.0,0.0,0.0
67,52.0,0.0,240.0,0.0,0.0
68,56.0,240.0,15.0,0.0,0.0
69,62.0,0.0,15.0,0.0,0.0
70,56.0,0.0,240.0,0.0,0.0
71,52.0,0.0,240.0,0.0,0.0
72,59.0,240.0,15.0,0.0,0.0
73,45.0,240.0,240.0,0.0,0.0
74,69.0,0.0,240.0,0.0,0.0
75,61.0,0.0,240.0,0.0,0.0
76,57.0,0.0,15.0,0.0,0.0
77,52.0,240.0,15.0,0.0,0.0
78,64.0,0.0,15.0,0.0,0.0
79,75.0,240.0,240.0,0.0,0.0
80,61.0,0.0,15.0,0.0,0.0
81,57.0,0.0,15.0,0.0,0.0
82,52.0,0.0,15.0,0.0,0.0
83,78.0,0.0,240.0,0.0,0.0
84,76.0,0.0,240.0,0.0,0.0
85,64.0,240.0,15.0,0.0,0.0
86,61.0,0.0,15.0,0.0,0.0
87,57.0,240.0,240.0,0.0,0.0
88,52.0,0.0,240.0,0.0,0.0
89,73.0,0.0,240.0,0.0,0.0
90,64.0,0.0,240.0,0.0,0.0
91,61.0,0.0,240.0,0.0,0.0
92,57.0,0.0,240.0,0.0,0.0
93,52.0,240.0,240.0,0.0,0.0
94,47.0,240.0,240.0,0.0,0.0
95,71.0,0.0,720.0,0.0,0.0
96,57.0,0.0,240.0,0.0,0.0
97,66.0,0.0,15.0,0.0,0.0
98,59.0,0.0,15.0,0.0,0.0
99,63.0,240.0,15.0,0.0,0.0
100,54.0,0.0,15.0,0.0,0.0
101,57.0,0.0,240.0,0.0,0.0
102,73.0,240.0,960.0,0.0,0.0
103,45.0,240.0,240.0,0.0,0.0
104,69.0,0.0,240.0,0.0,0.0
105,52.0,0.0,240.0,0.0,0.0
106,57.0,0.0,240.0,0.0,0.0
107,61.0,240.0,15.0,0.0,0.0
108,52.0,0.0,240.0,0.0,0.0
109,57.0,0.0,240.0,0.0,0.0
110,64.0,0.0,15.0,0.0,0.0
111,69.0,0.0,240.0,0.0,0.0
112,47.0,0.0,240.0,0.0,0.0
113,54.0,0.0,240.0,0.0,0.0
114,54.0,0.0,240.0,0.0,0.0
115,57.0,0.0,15.0,0.0,0.0
116,63.0,0.0,15.0,0.0,0.0
117,66.0,240.0,15.0,0.0,0.0
118,59.0,0.0,240.0,0.0,0.0
119,71.0,0.0,240.0,0.0,0.0
120,66.0,0.0,15.0,0.0,0.0
121,75.0,0.0,240.0,0.0,0.0
122,57.0,240.0,15.0,0.0,0.0
123,63.0,0.0,240.0,0.0,0.0
124,54.0,0.0,15.0,0.0,0.0
125,57.0,240.0,15.0,0.0,0.0
126,63.0,0.0,240.0,0.0,0.0
127,73.0,0.0,240.0,0.0,0.0
128,69.0,0.0,240.0,0.0,0.0
129,66.0,0.0,15.0,0.0,0.0
130,54.0,240.0,15.0,0.0,0.0
131,57.0,0.0,15.0,0.0,0.0
132,63.0,0.0,240.0,0.0,0.0
133,49.0,0.0,720.0,0.0,0.0
134,68.0,0.0,720.0,0.0,0.0
135,59.0,0.0,240.0,0.0,0.0
136,56.0,0.0,240.0,0.0,0.0
137,65.0,0.0,15.0,0.0,0.0
138,59.0,0.0,240.0,0.0,0.0
139,56.0,0.0,240.0,0.0,0.0
140,61.0,240.0,15.0,0.0,0.0
141,42.0,240.0,240.0,0.0,0.0
142,69.0,240.0,960.0,0.0,0.0
143,64.0,240.0,240.0,0.0,0.0
144,49.0,0.0,240.0,0.0,0.0
145,61.0,0.0,15.0,0.0,0.0
146,54.0,0.0,15.0,0.0,0.0
147,57.0,0.0,15.0,0.0,0.0
148,64.0,0.0,240.0,0.0,0.0
149,49.0,240.0,240.0,0.0,0.0
150,47.0,0.0,720.0,0.0,0.0
151,61.0,240.0,240.0,0.0,0.0
152,54.0,0.0,240.0,0.0,0.0
153,64.0,0.0,240.0,0.0,0.0
154,57.0,0.0,15.0,0.0,0.0
155,66.0,240.0,240.0,0.0,0.0
156,54.0,0.0,240.0,0.0,0.0
157,59.0,0.0,240.0,0.0,0.0
158,63.0,0.0,240.0,0.0,0.0
159,40.0,0.0,240.0,0.0,0.0
160,69.0,240.0,240.0,0.0,0.0
161,59.0,0.0,240.0,0.0,0.0
162,68.0,240.0,240.0,0.0,0.0
163,47.0,0.0,15.0,0.0,0.0
164,52.0,0.0,15.0,0.0,0.0
165,61.0,240.0,240.0,0.0,0.0
166,56.0,0.0,15.0,0.0,0.0
167,64.0,0.0,15.0,0.0,0.0
168,59.0,0.0,240.0,0.0,0.0
169,35.0,240.0,240.0,0.0,0.0
170,66.0,0.0,1680.0,0.0,0.0
171,54.0,240.0,240.0,0.0,0.0
172,63.0,0.0,240.0,0.0,0.0
173,59.0,0.0,240.0,0.0,0.0
174,47.0,0.0,15.0,0.0,0.0
175,63.0,0.0,240.0,0.0,0.0
176,47.0,240.0,240.0,0.0,0.0
177,59.0,240.0,15.0,0.0,0.0
178,54.0,0.0,15.0,0.0,0.0
179,63.0,0.0,240.0,0.0,0.0
180,54.0,240.0,240.0,0.0,0.0
181,63.0,0.0,240.0,0.0,0.0
182,47.0,0.0,240.0,0.0,0.0
183,59.0,0.0,15.0,0.0,0.0
184,54.0,240.0,240.0,0.0,0.0
185,63.0,0.0,240.0,0.0,0.0
186,47.0,0.0,240.0,0.0,0.0
187,35.0,240.0,240.0,0.0,0.0
188,59.0,0.0,240.0,0.0,0.0
189,57.0,0.0,15.0,0.0,0.0
190,63.0,240.0,240.0,0.0,0.0
191,47.0,0.0,240.0,0.0,0.0
192,54.0,0.0,240.0,0.0,0.0
193,68.0,0.0,240.0,0.0,0.0
194,59.0,0.0,240.0,0.0,0.0
195,47.0,240.0,240.0,0.0,0.0
196,63.0,0.0,240.0,0.0,0.0
197,57.0,0.0,15.0,0.0,0.0
198,54.0,0.0,15.0,0.0,0.0
199,69.0,0.0,240.0,0.0,0.0
200,63.0,0.0,240.0,0.0,0.0
201,54.0,0.0,15.0,0.0,0.0
202,47.0,0.0,15.0,0.0,0.0
203,61.0,0.0,240.0,0.0,0.0
204,59.0,240.0,15.0,0.0,0.0
205,47.0,0.0,15.0,0.0,0.0
206,54.0,240.0,240.0,0.0,0.0
207,59.0,0.0,240.0,0.0,0.0
208,57.0,240.0,15.0,0.0,0.0
209,63.0,0.0,240.0,0.0,0.0
210,40.0,240.0,240.0,0.0,0.0
211,66.0,0.0,720.0,0.0,0.0
212,59.0,240.0,240.0,0.0,0.0
213,62.0,0.0,15.0,0.0,0.0
214,56.0,0.0,15.0,0.0,0.0
215,52.0,0.0,15.0,0.0,0.0
216,47.0,0.0,15.0,0.0,0.0
217,62.0,0.0,15.0,0.0,0.0
218,56.0,0.0,15.0,0.0,0.0
219,59.0,240.0,15.0,0.0,0.0
220,47.0,0.0,15.0,0.0,0.0
221,62.0,240.0,240.0,0.0,0.0
222,59.0,240.0,15.0,0.0,0.0
223,52.0,0.0,15.0,0.0,0.0
224,56.0,0.0,240.0,0.0,0.0
225,47.0,0.0,15.0,0.0,0.0
226,59.0,0.0,15.0,0.0,0.0
227,52.0,0.0,240.0,0.0,0.0
228,62.0,0.0,240.0,0.0,0.0
229,56.0,240.0,240.0,0.0,0.0
230,33.0,0.0,240.0,0.0,0.0
231,57.0,0.0,240.0,0.0,0.0
232,52.0,240.0,240.0,0.0,0.0
233,49.0,0.0,240.0,0.0,0.0
234,64.0,240.0,15.0,0.0,0.0
235,69.0,0.0,240.0,0.0,0.0
236,75.0,0.0,240.0,0.0,0.0
237,61.0,0.0,15.0,0.0,0.0
238,64.0,0.0,15.0,0.0,0.0
239,78.0,0.0,240.0,0.0,0.0
240,69.0,0.0,15.0,0.0,0.0
241,57.0,0.0,15.0,0.0,0.0
242,52.0,0.0,15.0,0.0,0.0
243,49.0,240.0,15.0,0.0,0.0
244,69.0,0.0,15.0,0.0,0.0
245,61.0,0.0,15.0,0.0,0.0
246,57.0,240.0,15.0,0.0,0.0
247,52.0,0.0,15.0,0.0,0.0
248,64.0,0.0,240.0,0.0,0.0
249,76.0,0.0,240.0,0.0,0.0
250,49.0,0.0,15.0,0.0,0.0
251,57.0,0.0,15.0,0.0,0.0
252,61.0,0.0,15.0,0.0,0.0
253,52.0,0.0,240.0,0.0,0.0
254,64.0,0.0,240.0,0.0,0.0
255,69.0,0.0,240.0,0.0,0.0
256,73.0,240.0,240.0,0.0,0.0
257,47.0,240.0,240.0,0.0,0.0
258,71.0,0.0,720.0,0.0,0.0
259,63.0,0.0,240.0,0.0,0.0
260,57.0,0.0,240.0,0.0,0.0
261,54.0,0.0,240.0,0.0,0.0
262,66.0,240.0,15.0,0.0,0.0
263,59.0,0.0,15.0,0.0,0.0
264,54.0,240.0,240.0,0.0,0.0
265,57.0,0.0,240.0,0.0,0.0
266,63.0,0.0,240.0,0.0,0.0
267,73.0,0.0,960.0,0.0,0.0
268,45.0,240.0,240.0,0.0,0.0
269,57.0,0.0,240.0,0.0,0.0
270,61.0,0.0,240.0,0.0,0.0
271,69.0,0.0,240.0,0.0,0.0
272,64.0,240.0,15.0,0.0,0.0
273,57.0,0.0,240.0,0.0,0.0
274,52.0,0.0,15.0,0.0,0.0
275,61.0,0.0,240.0,0.0,0.0
276,69.0,0.0,240.0,0.0,0.0
277,47.0,240.0,240.0,0.0,0.0
278,57.0,0.0,240.0,0.0,0.0
279,63.0,240.0,15.0,0.0,0.0
280,66.0,0.0,15.0,0.0,0.0
281,59.0,0.0,240.0,0.0,0.0
282,71.0,0.0,240.0,0.0,0.0
283,54.0,0.0,15.0,0.0,0.0
284,57.0,0.0,240.0,0.0,0.0
285,75.0,0.0,240.0,0.0,0.0
286,66.0,0.0,15.0,0.0,0.0
287,54.0,0.0,15.0,0.0,0.0
288,63.0,240.0,15.0,0.0,0.0
289,73.0,0.0,240.0,0.0,0.0
290,66.0,0.0,15.0,0.0,0.0
291,63.0,0.0,15.0,0.0,0.0
292,57.0,0.0,15.0,0.0,0.0
293,54.0,240.0,15.0,0.0,0.0
294,59.0,0.0,15.0,0.0,0.0
295,63.0,0.0,15.0,0.0,0.0
296,57.0,0.0,15.0,0.0,0.0
297,54.0,0.0,15.0,0.0,0.0
298,59.0,0.0,240.0,0.0,0.0
299,69.0,0.0,240.0,0.0,0.0
300,66.0,240.0,15.0,0.0,0.0
301,68.0,0.0,720.0,0.0,0.0
302,37.0,240.0,240.0,0.0,0.0
303,65.0,0.0,240.0,0.0,0.0
304,61.0,0.0,240.0,0.0,0.0
305,59.0,0.0,240.0,0.0,0.0
306,49.0,0.0,15.0,0.0,0.0
307,59.0,240.0,240.0,0.0,0.0
308,65.0,0.0,240.0,0.0,0.0
309,61.0,0.0,240.0,0.0,0.0
310,56.0,240.0,15.0,0.0,0.0
311,42.0,240.0,240.0,0.0,0.0
312,69.0,0.0,960.0,0.0,0.0
313,57.0,0.0,240.0,0.0,0.0
314,61.0,0.0,240.0,0.0,0.0
315,49.0,240.0,240.0,0.0,0.0
316,54.0,0.0,240.0,0.0,0.0
317,64.0,0.0,15.0,0.0,0.0
318,49.0,240.0,240.0,0.0,0.0
319,54.0,0.0,240.0,0.0,0.0
320,61.0,0.0,240.0,0.0,0.0
321,57.0,0.0,240.0,0.0,0.0
322,47.0,240.0,240.0,0.0,0.0
323,54.0,0.0,240.0,0.0,0.0
324,49.0,240.0,240.0,0.0,0.0
325,64.0,0.0,240.0,0.0,0.0
326,61.0,0.0,15.0,0.0,0.0
327,57.0,0.0,15.0,0.0,0.0
328,49.0,0.0,240.0,0.0,0.0
329,54.0,0.0,240.0,0.0,0.0
330,35.0,0.0,240.0,0.0,0.0
331,68.0,240.0,240.0,0.0,0.0
332,47.0,0.0,240.0,0.0,0.0
333,54.0,0.0,240.0,0.0,0.0
334,66.0,120.0,360.0,0.0,0.0
335,63.0,120.0,240.0,0.0,0.0
336,59.0,0.0,15.0,0.0,0.0
337,57.0,0.0,15.0,0.0,0.0
338,47.0,0.0,240.0,0.0,0.0
339,54.0,0.0,240.0,0.0,0.0
340,63.0,0.0,240.0,0.0,0.0
341,64.0,0.0,120.0,0.0,0.0
342,40.0,240.0,240.0,0.0,0.0
343,64.0,240.0,1440.0,0.0,0.0
344,56.0,240.0,240.0,0.0,0.0
345,52.0,0.0,240.0,0.0,0.0
346,47.0,0.0,240.0,0.0,0.0
347,59.0,0.0,240.0,0.0,0.0
348,52.0,0.0,240.0,0.0,0.0
349,47.0,0.0,240.0,0.0,0.0
350,59.0,0.0,15.0,0.0,0.0
351,56.0,240.0,15.0,0.0,0.0
352,47.0,0.0,240.0,0.0,0.0
353,52.0,240.0,15.0,0.0,0.0
354,59.0,0.0,15.0,0.0,0.0
355,56.0,0.0,240.0,0.0,0.0
356,47.0,0.0,240.0,0.0,0.0
357,52.0,0.0,240.0,0.0,0.0
358,47.0,0.0,240.0,0.0,0.0
359,59.0,240.0,15.0,0.0,0.0
360,56.0,0.0,240.0,0.0,0.0
361,36.0,240.0,240.0,0.0,0.0
362,64.0,0.0,720.0,0.0,0.0
363,55.0,0.0,240.0,0.0,0.0
364,60.0,0.0,15.0,0.0,0.0
365,58.0,0.0,15.0,0.0,0.0
366,48.0,0.0,15.0,0.0,0.0
367,52.0,240.0,15.0,0.0,0.0
368,60.0,0.0,15.0,0.0,0.0
369,55.0,240.0,15.0,0.0,0.0
370,48.0,0.0,15.0,0.0,0.0
371,52.0,0.0,15.0,0.0,0.0
372,64.0,235.0,240.0,0.0,0.0
373,58.0,0.0,15.0,0.0,0.0
374,60.0,0.0,15.0,0.0,0.0
375,55.0,0.0,240.0,0.0,0.0
376,52.0,0.0,15.0,0.0,0.0
377,58.0,240.0,240.0,0.0,0.0
378,62.0,0.0,240.0,0.0,0.0
379,48.0,0.0,15.0,0.0,0.0
380,60.0,0.0,240.0,0.0,0.0
381,52.0,0.0,15.0,0.0,0.0
382,58.0,0.0,240.0,0.0,0.0
383,55.0,0.0,240.0,0.0,0.0
384,41.0,240.0,240.0,0.0,0.0
385,69.0,0.0,1440.0,0.0,0.0
386,48.0,0.0,240.0,0.0,0.0
387,53.0,0.0,240.0,0.0,0.0
388,60.0,0.0,240.0,0.0,0.0
389,57.0,240.0,240.0,0.0,0.0
390,65.0,0.0,15.0,0.0,0.0
391,49.0,0.0,240.0,0.0,0.0
392,61.0,240.0,240.0,0.0,0.0
393,65.0,0.0,15.0,0.0,0.0
394,57.0,0.0,15.0,0.0,0.0
395,53.0,0.0,15.0,0.0,0.0
396,49.0,0.0,240.0,0.0,0.0
397,61.0,240.0,240.0,0.0,0.0
398,65.0,0.0,15.0,0.0,0.0
399,57.0,0.0,15.0,0.0,0.0
400,50.0,0.0,240.0,0.0,0.0
401,62.0,0.0,240.0,0.0,0.0
402,53.0,0.0,15.0,0.0,0.0
403,51.0,0.0,240.0,0.0,0.0
404,63.0,0.0,240.0,0.0,0.0
405,57.0,0.0,240.0,0.0,0.0
406,65.0,0.0,240.0,0.0,0.0
407,69.0,0.0,720.0,0.0,0.0
408,40.0,240.0,240.0,0.0,0.0
409,64.0,0.0,240.0,0.0,0.0
410,57.0,0.0,240.0,0.0,0.0
411,56.0,0.0,240.0,0.0,0.0
412,68.0,0.0,240.0,0.0,0.0
413,62.0,240.0,15.0,0.0,0.0
414,59.0,0.0,15.0,0.0,0.0
415,52.0,0.0,15.0,0.0,0.0
416,64.0,0.0,15.0,0.0,0.0
417,68.0,0.0,240.0,0.0,0.0
418,62.0,240.0,15.0,0.0,0.0
419,59.0,0.0,15.0,0.0,0.0
420,52.0,0.0,15.0,0.0,0.0
421,56.0,0.0,15.0,0.0,0.0
422,66.0,0.0,240.0,0.0,0.0
423,62.0,240.0,15.0,0.0,0.0
424,59.0,0.0,15.0,0.0,0.0
425,52.0,0.0,15.0,0.0,0.0
426,56.0,0.0,15.0,0.0,0.0
427,64.0,0.0,240.0,0.0,0.0
428,59.0,240.0,240.0,0.0,0.0
429,52.0,0.0,15.0,0.0,0.0
430,62.0,240.0,15.0,0.0,0.0
431,45.0,240.0,240.0,0.0,0.0
432,51.0,0.0,240.0,0.0,0.0
433,57.0,0.0,240.0,0.0,0.0
434,63.0,0.0,240.0,0.0,0.0
435,60.0,240.0,240.0,0.0,0.0
436,69.0,0.0,15.0,0.0,0.0
437,64.0,0.0,240.0,0.0,0.0
438,52.0,0.0,240.0,0.0,0.0
439,60.0,240.0,240.0,0.0,0.0
440,57.0,0.0,240.0,0.0,0.0
441,52.0,0.0,240.0,0.0,0.0
442,64.0,0.0,240.0,0.0,0.0
443,60.0,240.0,240.0,0.0,0.0
444,69.0,0.0,240.0,0.0,0.0
445,57.0,0.0,15.0,0.0,0.0
446,60.0,240.0,240.0,0.0,0.0
447,69.0,0.0,240.0,0.0,0.0
448,65.0,0.0,240.0,0.0,0.0
449,53.0,0.0,240.0,0.0,0.0
450,54.0,0.0,240.0,0.0,0.0
451,66.0,0.0,240.0,0.0,0.0
452,56.0,240.0,240.0,0.0,0.0
453,60.0,0.0,240.0,0.0,0.0
454,68.0,0.0,240.0,0.0,0.0
455,43.0,240.0,240.0,0.0,0.0
456,72.0,0.0,15.0,0.0,0.0
457,55.0,0.0,240.0,0.0,0.0
458,62.0,0.0,240.0,0.0,0.0
459,65.0,0.0,240.0,0.0,0.0
460,60.0,240.0,240.0,0.0,0.0
461,62.0,240.0,240.0,0.0,0.0
462,55.0,0.0,240.0,0.0,0.0
463,71.0,0.0,240.0,0.0,0.0
464,67.0,0.0,15.0,0.0,0.0
465,65.0,0.0,240.0,0.0,0.0
466,71.0,0.0,240.0,0.0,0.0
467,67.0,0.0,15.0,0.0,0.0
468,59.0,0.0,15.0,0.0,0.0
469,67.0,0.0,15.0,0.0,0.0
470,69.0,0.0,240.0,0.0,0.0
471,65.0,240.0,15.0,0.0,0.0
472,55.0,0.0,15.0,0.0,0.0
473,62.0,0.0,15.0,0.0,0.0
474,57.0,0.0,240.0,0.0,0.0
475,59.0,0.0,240.0,0.0,0.0
476,65.0,0.0,240.0,0.0,0.0
477,55.0,0.0,240.0,0.0,0.0
478,67.0,240.0,240.0,0.0,0.0
479,62.0,0.0,240.0,0.0,0.0
480,48.0,240.0,240.0,0.0,0.0
481,55.0,0.0,240.0,0.0,0.0
482,67.0,0.0,240.0,0.0,0.0
483,60.0,0.0,240.0,0.0,0.0
484,64.0,0.0,240.0,0.0,0.0
485,66.0,0.0,240.0,0.0,0.0
486,60.0,0.0,240.0,0.0,0.0
487,70.0,240.0,15.0,0.0,0.0
488,54.0,0.0,240.0,0.0,0.0
489,76.0,0.0,15.0,0.0,0.0
490,64.0,0.0,240.0,0.0,0.0
491,47.0,0.0,240.0,0.0,0.0
492,76.0,240.0,240.0,0.0,0.0
493,59.0,0.0,240.0,0.0,0.0
494,75.0,0.0,240.0,0.0,0.0
495,63.0,0.0,240.0,0.0,0.0
496,66.0,0.0,240.0,0.0,0.0
497,71.0,0.0,15.0,0.0,0.0
498,63.0,0.0,240.0,0.0,0.0
499,59.0,0.0,240.0,0.0,0.0
500,54.0,240.0,15.0,0.0,0.0
501,66.0,0.0,240.0,0.0,0.0
502,46.0,240.0,240.0,0.0,0.0
503,74.0,0.0,480.0,0.0,0.0
504,68.0,0.0,240.0,0.0,0.0
505,62.0,0.0,240.0,0.0,0.0
506,53.0,0.0,240.0,0.0,0.0
507,58.0,240.0,240.0,0.0,0.0
508,65.0,0.0,240.0,0.0,0.0
509,68.0,0.0,240.0,0.0,0.0
510,62.0,0.0,240.0,0.0,0.0
511,52.0,0.0,240.0,0.0,0.0
512,58.0,0.0,240.0,0.0,0.0
513,64.0,0.0,240.0,0.0,0.0
514,74.0,240.0,15.0,0.0,0.0
515,45.0,240.0,240.0,0.0,0.0
516,69.0,0.0,240.0,0.0,0.0
517,73.0,0.0,240.0,0.0,0.0
518,61.0,0.0,240.0,0.0,0.0
519,57.0,0.0,15.0,0.0,0.0
520,64.0,240.0,15.0,0.0,0.0
521,61.0,0.0,240.0,0.0,0.0
522,69.0,240.0,240.0,0.0,0.0
523,52.0,0.0,15.0,0.0,0.0
524,44.0,0.0,240.0,0.0,0.0
525,72.0,240.0,240.0,0.0,0.0
526,56.0,0.0,240.0,0.0,0.0
527,63.0,0.0,240.0,0.0,0.0
528,51.0,0.0,240.0,0.0,0.0
529,59.0,240.0,240.0,0.0,0.0
530,66.0,0.0,240.0,0.0,0.0
531,71.0,0.0,240.0,0.0,0.0
532,50.0,240.0,240.0,0.0,0.0
533,56.0,0.0,240.0,0.0,0.0
534,62.0,0.0,240.0,0.0,0.0
535,60.0,0.0,240.0,0.0,0.0
536,72.0,0.0,240.0,0.0,0.0
537,66.0,0.0,240.0,0.0,0.0
538,76.0,0.0,480.0,0.0,0.0
539,43.0,240.0,240.0,0.0,0.0
540,67.0,0.0,240.0,0.0,0.0
541,60.0,0.0,240.0,0.0,0.0
542,55.0,0.0,240.0,0.0,0.0
543,72.0,0.0,240.0,0.0,0.0
544,64.0,240.0,240.0,0.0,0.0
545,74.0,0.0,240.0,0.0,0.0
546,55.0,0.0,240.0,0.0,0.0
547,65.0,0.0,240.0,0.0,0.0
548,59.0,0.0,240.0,0.0,0.0
549,67.0,0.0,240.0,0.0,0.0
550,62.0,240.0,240.0,0.0,0.0
551,36.0,240.0,240.0,0.0,0.0
552,72.0,240.0,1680.0,0.0,0.0
553,60.0,0.0,240.0,0.0,0.0
554,64.0,0.0,15.0,0.0,0.0
555,55.0,0.0,15.0,0.0,0.0
556,52.0,0.0,15.0,0.0,0.0
557,60.0,240.0,240.0,0.0,0.0
558,67.0,240.0,15.0,0.0,0.0
559,67.0,0.0,15.0,0.0,0.0
560,64.0,0.0,15.0,0.0,0.0
561,55.0,0.0,15.0,0.0,0.0
562,52.0,0.0,240.0,0.0,0.0
563,55.0,0.0,15.0,0.0,0.0
564,64.0,0.0,15.0,0.0,0.0
565,60.0,240.0,15.0,0.0,0.0
566,67.0,0.0,15.0,0.0,0.0
567,52.0,0.0,240.0,0.0,0.0
568,64.0,240.0,240.0,0.0,0.0
569,55.0,0.0,240.0,0.0,0.0
570,52.0,0.0,240.0,0.0,0.0
571,67.0,240.0,15.0,0.0,0.0
572,60.0,0.0,240.0,0.0,0.0
573,48.0,0.0,240.0,0.0,0.0
574,72.0,0.0,240.0,0.0,0.0
575,68.0,0.0,240.0,0.0,0.0
576,60.0,0.0,240.0,0.0,0.0
577,65.0,0.0,15.0,0.0,0.0
578,56.0,240.0,15.0,0.0,0.0
579,53.0,0.0,15.0,0.0,0.0
580,59.0,0.0,240.0,0.0,0.0
581,71.0,0.0,240.0,0.0,0.0
582,68.0,0.0,240.0,0.0,0.0
583,56.0,0.0,240.0,0.0,0.0
584,65.0,0.0,15.0,0.0,0.0
585,62.0,0.0,240.0,0.0,0.0
586,74.0,0.0,240.0,0.0,0.0
587,53.0,240.0,15.0,0.0,0.0
588,60.0,240.0,240.0,0.0,0.0
589,68.0,0.0,15.0,0.0,0.0
590,53.0,240.0,15.0,0.0,0.0
591,72.0,0.0,240.0,0.0,0.0
592,56.0,0.0,240.0,0.0,0.0
593,65.0,0.0,15.0,0.0,0.0
594,53.0,0.0,240.0,0.0,0.0
595,56.0,240.0,240.0,0.0,0.0
596,60.0,0.0,240.0,0.0,0.0
597,68.0,0.0,240.0,0.0,0.0
598,36.0,240.0,240.0,0.0,0.0
599,72.0,0.0,1680.0,0.0,0.0
600,64.0,0.0,240.0,0.0,0.0
601,55.0,0.0,240.0,0.0,0.0
602,67.0,0.0,15.0,0.0,0.0
603,60.0,0.0,15.0,0.0,0.0
604,55.0,0.0,240.0,0.0,0.0
605,64.0,240.0,240.0,0.0,0.0
606,52.0,240.0,15.0,0.0,0.0
607,52.0,0.0,240.0,0.0,0.0
608,55.0,0.0,240.0,0.0,0.0
609,60.0,0.0,15.0,0.0,0.0
610,67.0,0.0,15.0,0.0,0.0
611,64.0,240.0,15.0,0.0,0.0
612,60.0,0.0,15.0,0.0,0.0
613,64.0,240.0,15.0,0.0,0.0
614,67.0,0.0,15.0,0.0,0.0
615,52.0,0.0,15.0,0.0,0.0
616,55.0,0.0,15.0,0.0,0.0
617,48.0,240.0,240.0,0.0,0.0
618,68.0,0.0,240.0,0.0,0.0
619,60.0,0.0,240.0,0.0,0.0
620,72.0,0.0,240.0,0.0,0.0
621,53.0,0.0,240.0,0.0,0.0
622,65.0,0.0,240.0,0.0,0.0
623,68.0,0.0,240.0,0.0,0.0
624,71.0,0.0,240.0,0.0,0.0
625,59.0,0.0,240.0,0.0,0.0
626,56.0,240.0,15.0,0.0,0.0
627,56.0,0.0,15.0,0.0,0.0
628,65.0,0.0,15.0,0.0,0.0
629,68.0,0.0,240.0,0.0,0.0
630,62.0,0.0,240.0,0.0,0.0
631,74.0,0.0,240.0,0.0,0.0
632,53.0,240.0,15.0,0.0,0.0
633,60.0,0.0,240.0,0.0,0.0
634,68.0,0.0,240.0,0.0,0.0
635,72.0,240.0,240.0,0.0,0.0
636,53.0,0.0,240.0,0.0,0.0
637,56.0,0.0,240.0,0.0,0.0
638,65.0,0.0,240.0,0.0,0.0
639,65.0,240.0,240.0,0.0,0.0
640,56.0,0.0,240.0,0.0,0.0
641,68.0,0.0,240.0,0.0,0.0
642,60.0,0.0,240.0,0.0,0.0
643,53.0,0.0,240.0,0.0,0.0
644,72.0,240.0,2160.0,0.0,0.0
645,36.0,240.0,240.0,0.0,0.0
646,60.0,0.0,240.0,0.0,0.0
647,67.0,0.0,240.0,0.0,0.0
648,52.0,0.0,15.0,0.0,0.0
649,55.0,0.0,15.0,0.0,0.0
650,64.0,240.0,15.0,0.0,0.0
651,64.0,0.0,15.0,0.0,0.0
652,67.0,240.0,15.0,0.0,0.0
653,60.0,0.0,15.0,0.0,0.0
654,60.0,0.0,15.0,0.0,0.0
655,64.0,240.0,15.0,0.0,0.0
656,55.0,0.0,15.0,0.0,0.0
657,52.0,0.0,15.0,0.0,0.0
658,55.0,0.0,240.0,0.0,0.0
659,52.0,0.0,15.0,0.0,0.0
660,64.0,240.0,15.0,0.0,0.0
661,67.0,0.0,15.0,0.0,0.0
662,60.0,0.0,15.0,0.0,0.0
663,52.0,240.0,240.0,0.0,0.0
664,64.0,240.0,15.0,0.0,0.0
665,67.0,0.0,15.0,0.0,0.0
666,60.0,0.0,15.0,0.0,0.0
667,67.0,0.0,15.0,0.0,0.0
668,60.0,0.0,240.0,0.0,0.0
669,55.0,0.0,15.0,0.0,0.0
670,64.0,0.0,240.0,0.0,0.0
671,60.0,0.0,240.0,0.0,0.0
672,67.0,0.0,240.0,0.0,0.0
673,52.0,240.0,15.0,0.0,0.0
674,55.0,0.0,240.0,0.0,0.0
675,64.0,0.0,240.0,0.0,0.0
676,52.0,0.0,240.0,0.0,0.0
677,55.0,0.0,240.0,0.0,0.0
678,64.0,0.0,240.0,0.0,0.0
679,59.0,240.0,15.0,0.0,0.0
680,67.0,0.0,15.0,0.0,0.0
681,59.0,0.0,240.0,0.0,0.0
682,71.0,0.0,15.0,0.0,0.0
683,67.0,240.0,15.0,0.0,0.0
684,64.0,0.0,15.0,0.0,0.0
685,52.0,0.0,15.0,0.0,0.0
686,55.0,0.0,15.0,0.0,0.0
687,71.0,0.0,1440.0,0.0,0.0
688,59.0,0.0,240.0,0.0,0.0
689,67.0,0.0,240.0,0.0,0.0
690,64.0,240.0,15.0,0.0,0.0
691,55.0,0.0,15.0,0.0,0.0
692,52.0,0.0,15.0,0.0,0.0
693,67.0,240.0,240.0,0.0,0.0
694,59.0,0.0,240.0,0.0,0.0
695,52.0,0.0,240.0,0.0,0.0
696,55.0,0.0,240.0,0.0,0.0
697,64.0,0.0,240.0,0.0,0.0
698,64.0,0.0,240.0,0.0,0.0
699,52.0,240.0,240.0,0.0,0.0
700,55.0,0.0,240.0,0.0,0.0
701,67.0,0.0,240.0,0.0,0.0
702,59.0,0.0,240.0,0.0,0.0
703,67.0,0.0,240.0,0.0,0.0
704,52.0,0.0,240.0,0.0,0.0
705,64.0,240.0,15.0,0.0,0.0
706,55.0,0.0,15.0,0.0,0.0
707,52.0,0.0,240.0,0.0,0.0
708,59.0,0.0,15.0,0.0,0.0
709,67.0,0.0,15.0,0.0,0.0
710,59.0,240.0,15.0,0.0,0.0
711,55.0,0.0,15.0,0.0,0.0
712,52.0,240.0,15.0,0.0,0.0
713,64.0,0.0,15.0,0.0,0.0
714,67.0,0.0,15.0,0.0,0.0
715,70.0,0.0,1440.0,0.0,0.0
716,49.0,0.0,240.0,0.0,0.0
717,37.0,240.0,240.0,0.0,0.0
718,58.0,0.0,15.0,0.0,0.0
719,67.0,240.0,15.0,0.0,0.0
720,67.0,0.0,15.0,0.0,0.0
721,64.0,0.0,15.0,0.0,0.0
722,58.0,0.0,15.0,0.0,0.0
723,34.0,0.0,240.0,0.0,0.0
724,46.0,240.0,240.0,0.0,0.0
725,67.0,0.0,15.0,0.0,0.0
726,64.0,0.0,240.0,0.0,0.0
727,58.0,0.0,240.0,0.0,0.0
728,43.0,240.0,240.0,0.0,0.0
729,31.0,0.0,240.0,0.0,0.0
730,67.0,0.0,15.0,0.0,0.0
731,40.0,0.0,240.0,0.0,0.0
732,28.0,0.0,240.0,0.0,0.0
733,37.0,0.0,240.0,0.0,0.0
734,58.0,0.0,15.0,0.0,0.0
735,64.0,240.0,15.0,0.0,0.0
736,67.0,0.0,240.0,0.0,0.0
737,25.0,240.0,240.0,0.0,0.0
738,23.0,240.0,240.0,0.0,0.0
739,35.0,0.0,240.0,0.0,0.0
740,57.0,0.0,240.0,0.0,0.0
741,63.0,0.0,15.0,0.0,0.0
742,57.0,0.0,240.0,0.0,0.0
743,63.0,240.0,15.0,0.0,0.0
744,59.0,0.0,15.0,0.0,0.0
745,54.0,0.0,15.0,0.0,0.0
746,47.0,0.0,15.0,0.0,0.0
747,68.0,0.0,240.0,0.0,0.0
748,57.0,0.0,240.0,0.0,0.0
749,69.0,0.0,240.0,0.0,0.0
750,54.0,0.0,15.0,0.0,0.0
751,59.0,240.0,15.0,0.0,0.0
752,57.0,240.0,240.0,0.0,0.0
753,63.0,0.0,240.0,0.0,0.0
754,59.0,0.0,15.0,0.0,0.0
755,47.0,0.0,15.0,0.0,0.0
756,57.0,0.0,240.0,0.0,0.0
757,61.0,240.0,240.0,0.0,0.0
758,47.0,0.0,15.0,0.0,0.0
759,59.0,0.0,15.0,0.0,0.0
760,54.0,0.0,15.0,0.0,0.0
761,57.0,0.0,240.0,0.0,0.0
762,63.0,0.0,240.0,0.0,0.0
763,66.0,0.0,720.0,0.0,0.0
764,40.0,0.0,240.0,0.0,0.0
765,28.0,240.0,240.0,0.0,0.0
766,59.0,0.0,240.0,0.0,0.0
767,47.0,0.0,240.0,0.0,0.0
768,52.0,0.0,240.0,0.0,0.0
769,62.0,0.0,240.0,0.0,0.0
770,56.0,240.0,15.0,0.0,0.0
771,47.0,0.0,240.0,0.0,0.0
772,52.0,0.0,240.0,0.0,0.0
773,59.0,0.0,240.0,0.0,0.0
774,64.0,0.0,960.0,0.0,0.0
775,56.0,240.0,15.0,0.0,0.0
776,62.0,0.0,15.0,0.0,0.0
777,59.0,240.0,15.0,0.0,0.0
778,52.0,0.0,15.0,0.0,0.0
779,47.0,0.0,15.0,0.0,0.0
780,62.0,0.0,15.0,0.0,0.0
781,56.0,0.0,15.0,0.0,0.0
782,59.0,0.0,15.0,0.0,0.0
783,52.0,0.0,15.0,0.0,0.0
784,47.0,240.0,15.0,0.0,0.0
785,21.0,0.0,240.0,0.0,0.0
786,33.0,240.0,240.0,0.0,0.0
787,49.0,0.0,240.0,0.0,0.0
788,52.0,0.0,15.0,0.0,0.0
789,64.0,0.0,15.0,0.0,0.0
790,75.0,0.0,240.0,0.0,0.0
791,69.0,0.0,15.0,0.0,0.0
792,57.0,240.0,15.0,0.0,0.0
793,61.0,0.0,15.0,0.0,0.0
794,49.0,0.0,240.0,0.0,0.0
795,52.0,0.0,15.0,0.0,0.0
796,61.0,0.0,15.0,0.0,0.0
797,78.0,0.0,240.0,0.0,0.0
798,57.0,0.0,15.0,0.0,0.0
799,52.0,0.0,15.0,0.0,0.0
800,49.0,0.0,15.0,0.0,0.0
801,64.0,240.0,15.0,0.0,0.0
802,69.0,0.0,15.0,0.0,0.0
803,76.0,0.0,240.0,0.0,0.0
804,61.0,0.0,15.0,0.0,0.0
805,57.0,0.0,15.0,0.0,0.0
806,52.0,0.0,15.0,0.0,0.0
807,49.0,0.0,15.0,0.0,0.0
808,73.0,0.0,240.0,0.0,0.0
809,69.0,240.0,15.0,0.0,0.0
810,64.0,0.0,240.0,0.0,0.0
811,35.0,0.0,240.0,0.0,0.0
812,23.0,240.0,240.0,0.0,0.0
813,71.0,0.0,720.0,0.0,0.0
814,54.0,0.0,240.0,0.0,0.0
815,59.0,240.0,15.0,0.0,0.0
816,66.0,0.0,15.0,0.0,0.0
817,63.0,0.0,15.0,0.0,0.0
818,54.0,0.0,240.0,0.0,0.0
819,51.0,0.0,15.0,0.0,0.0
820,37.0,240.0,240.0,0.0,0.0
821,73.0,0.0,960.0,0.0,0.0
822,25.0,0.0,240.0,0.0,0.0
823,61.0,0.0,240.0,0.0,0.0
824,52.0,0.0,240.0,0.0,0.0
825,49.0,0.0,240.0,0.0,0.0
826,57.0,240.0,240.0,0.0,0.0
827,61.0,0.0,240.0,0.0,0.0
828,69.0,0.0,15.0,0.0,0.0
829,64.0,0.0,15.0,0.0,0.0
830,49.0,0.0,240.0,0.0,0.0
831,52.0,0.0,240.0,0.0,0.0
832,57.0,0.0,240.0,0.0,0.0
833,23.0,0.0,240.0,0.0,0.0
834,35.0,240.0,240.0,0.0,0.0
835,66.0,240.0,240.0,0.0,0.0
836,51.0,0.0,240.0,0.0,0.0
837,57.0,0.0,240.0,0.0,0.0
838,63.0,0.0,240.0,0.0,0.0
839,54.0,0.0,15.0,0.0,0.0
840,57.0,0.0,240.0,0.0,0.0
841,71.0,240.0,240.0,0.0,0.0
842,59.0,0.0,15.0,0.0,0.0
843,51.0,0.0,15.0,0.0,0.0
844,54.0,0.0,240.0,0.0,0.0
845,63.0,0.0,15.0,0.0,0.0
846,75.0,0.0,240.0,0.0,0.0
847,66.0,0.0,15.0,0.0,0.0
848,66.0,0.0,240.0,0.0,0.0
849,73.0,0.0,240.0,0.0,0.0
850,57.0,240.0,15.0,0.0,0.0
851,59.0,0.0,240.0,0.0,0.0
852,51.0,0.0,240.0,0.0,0.0
853,54.0,240.0,15.0,0.0,0.0
854,63.0,0.0,15.0,0.0,0.0
855,51.0,0.0,240.0,0.0,0.0
856,57.0,0.0,240.0,0.0,0.0
857,59.0,0.0,240.0,0.0,0.0
858,69.0,0.0,240.0,0.0,0.0
859,66.0,0.0,240.0,0.0,0.0
860,68.0,240.0,720.0,0.0,0.0
861,25.0,240.0,240.0,0.0,0.0
862,37.0,0.0,240.0,0.0,0.0
863,61.0,0.0,15.0,0.0,0.0
864,56.0,0.0,15.0,0.0,0.0
865,49.0,240.0,15.0,0.0,0.0
866,65.0,0.0,15.0,0.0,0.0
867,59.0,0.0,15.0,0.0,0.0
868,42.0,0.0,240.0,0.0,0.0
869,69.0,0.0,960.0,0.0,0.0
870,30.0,240.0,240.0,0.0,0.0
871,54.0,0.0,240.0,0.0,0.0
872,64.0,240.0,15.0,0.0,0.0
873,57.0,0.0,15.0,0.0,0.0
874,61.0,0.0,15.0,0.0,0.0
875,49.0,0.0,15.0,0.0,0.0
876,54.0,0.0,240.0,0.0,0.0
877,47.0,0.0,240.0,0.0,0.0
878,35.0,240.0,240.0,0.0,0.0
879,49.0,0.0,240.0,0.0,0.0
880,54.0,0.0,240.0,0.0,0.0
881,61.0,0.0,240.0,0.0,0.0
882,64.0,0.0,240.0,0.0,0.0
883,47.0,0.0,240.0,0.0,0.0
884,54.0,0.0,240.0,0.0,0.0
885,59.0,0.0,240.0,0.0,0.0
886,66.0,0.0,240.0,0.0,0.0
887,63.0,240.0,240.0,0.0,0.0
888,57.0,240.0,15.0,0.0,0.0
889,40.0,0.0,240.0,0.0,0.0
890,69.0,0.0,240.0,0.0,0.0
891,57.0,0.0,15.0,0.0,0.0
892,64.0,240.0,15.0,0.0,0.0
893,52.0,0.0,240.0,0.0,0.0
894,59.0,0.0,240.0,0.0,0.0
895,68.0,0.0,240.0,0.0,0.0
896,56.0,240.0,240.0,0.0,0.0
897,47.0,0.0,15.0,0.0,0.0
898,61.0,0.0,240.0,0.0,0.0
899,52.0,0.0,240.0,0.0,0.0
900,59.0,240.0,240.0,0.0,0.0
901,64.0,0.0,240.0,0.0,0.0
902,56.0,0.0,240.0,0.0,0.0
903,35.0,240.0,240.0,0.0,0.0
904,66.0,0.0,1440.0,0.0,0.0
905,54.0,0.0,240.0,0.0,0.0
906,47.0,240.0,240.0,0.0,0.0
907,63.0,0.0,15.0,0.0,0.0
908,54.0,0.0,240.0,0.0,0.0
909,59.0,0.0,15.0,0.0,0.0
910,47.0,240.0,15.0,0.0,0.0
911,54.0,0.0,240.0,0.0,0.0
912,63.0,0.0,240.0,0.0,0.0
913,59.0,0.0,240.0,0.0,0.0
914,54.0,0.0,240.0,0.0,0.0
915,47.0,240.0,15.0,0.0,0.0
916,63.0,0.0,15.0,0.0,0.0
917,54.0,0.0,240.0,0.0,0.0
918,59.0,0.0,15.0,0.0,0.0
919,47.0,0.0,240.0,0.0,0.0
920,35.0,240.0,240.0,0.0,0.0
921,55.0,0.0,240.0,0.0,0.0
922,53.0,0.0,15.0,0.0,0.0
923,47.0,0.0,15.0,0.0,0.0
924,59.0,120.0,15.0,0.0,0.0
925,62.0,0.0,15.0,0.0,0.0
926,67.0,60.0,15.0,0.0,0.0
927,69.0,0.0,60.0,0.0,0.0
928,62.0,0.0,15.0,0.0,0.0
929,55.0,0.0,15.0,0.0,0.0
930,67.0,0.0,240.0,0.0,0.0
931,53.0,240.0,15.0,0.0,0.0
932,59.0,0.0,15.0,0.0,0.0
933,47.0,0.0,15.0,0.0,0.0
934,62.0,0.0,15.0,0.0,0.0
935,53.0,0.0,240.0,0.0,0.0
936,54.0,0.0,240.0,0.0,0.0
937,66.0,0.0,240.0,0.0,0.0
938,47.0,0.0,15.0,0.0,0.0
939,59.0,0.0,15.0,0.0,0.0
940,53.0,0.0,240.0,0.0,0.0
941,67.0,0.0,240.0,0.0,0.0
942,55.0,240.0,240.0,0.0,0.0
943,62.0,240.0,15.0,0.0,0.0
944,36.0,240.0,240.0,0.0,0.0
945,69.0,0.0,720.0,0.0,0.0
946,60.0,0.0,240.0,0.0,0.0
947,52.0,0.0,240.0,0.0,0.0
948,48.0,240.0,15.0,0.0,0.0
949,57.0,0.0,15.0,0.0,0.0
950,64.0,0.0,15.0,0.0,0.0
951,67.0,240.0,480.0,0.0,0.0
952,64.0,0.0,15.0,0.0,0.0
953,55.0,0.0,240.0,0.0,0.0
954,60.0,240.0,15.0,0.0,0.0
955,52.0,0.0,15.0,0.0,0.0
956,48.0,0.0,15.0,0.0,0.0
957,64.0,0.0,15.0,0.0,0.0
958,52.0,0.0,240.0,0.0,0.0
959,59.0,0.0,240.0,0.0,0.0
960,52.0,0.0,240.0,0.0,0.0
961,48.0,0.0,15.0,0.0,0.0
962,57.0,0.0,240.0,0.0,0.0
963,64.0,0.0,15.0,0.0,0.0
964,31.0,240.0,240.0,0.0,0.0
965,43.0,0.0,240.0,0.0,0.0
966,67.0,0.0,15.0,0.0,0.0
967,62.0,0.0,240.0,0.0,0.0
968,65.0,0.0,240.0,0.0,0.0
969,59.0,0.0,15.0,0.0,0.0
970,55.0,0.0,15.0,0.0,0.0
971,69.0,0.0,240.0,0.0,0.0
972,65.0,0.0,15.0,0.0,0.0
973,59.0,0.0,15.0,0.0,0.0
974,55.0,0.0,15.0,0.0,0.0
975,67.0,0.0,15.0,0.0,0.0
976,71.0,0.0,240.0,0.0,0.0
977,62.0,240.0,15.0,0.0,0.0
978,62.0,240.0,15.0,0.0,0.0
979,57.0,0.0,240.0,0.0,0.0
980,65.0,0.0,240.0,0.0,0.0
981,72.0,0.0,240.0,0.0,0.0
982,67.0,0.0,240.0,0.0,0.0
983,55.0,240.0,15.0,0.0,0.0
984,59.0,0.0,240.0,0.0,0.0
985,65.0,0.0,240.0,0.0,0.0
986,67.0,0.0,240.0,0.0,0.0
987,74.0,0.0,240.0,0.0,0.0
988,62.0,0.0,240.0,0.0,0.0
989,76.0,0.0,1680.0,0.0,0.0
990,48.0,0.0,240.0,0.0,0.0
991,36.0,240.0,240.0,0.0,0.0
992,55.0,0.0,240.0,0.0,0.0
993,60.0,0.0,15.0,0.0,0.0
994,72.0,0.0,15.0,0.0,0.0
995,64.0,0.0,15.0,0.0,0.0
996,67.0,240.0,15.0,0.0,0.0
997,72.0,0.0,15.0,0.0,0.0
998,64.0,0.0,15.0,0.0,0.0
999,55.0,240.0,15.0,0.0,0.0
1000,60.0,0.0,240.0,0.0,0.0
1001,64.0,0.0,15.0,0.0,0.0
1002,67.0,0.0,15.0,0.0,0.0
1003,72.0,0.0,15.0,0.0,0.0
1004,47.0,240.0,240.0,0.0,0.0
1005,35.0,0.0,240.0,0.0,0.0
1006,72.0,0.0,15.0,0.0,0.0
1007,67.0,0.0,15.0,0.0,0.0
1008,64.0,0.0,15.0,0.0,0.0
1009,46.0,0.0,240.0,0.0,0.0
1010,34.0,240.0,240.0,0.0,0.0
1011,33.0,240.0,240.0,0.0,0.0
1012,45.0,0.0,240.0,0.0,0.0
1013,55.0,0.0,240.0,0.0,0.0
1014,49.0,0.0,240.0,0.0,0.0
1015,49.0,240.0,240.0,0.0,0.0
1016,55.0,0.0,240.0,0.0,0.0
1017,61.0,180.0,15.0,0.0,0.0
1018,57.0,0.0,15.0,0.0,0.0
1019,69.0,60.0,60.0,0.0,0.0
1020,71.0,0.0,60.0,0.0,0.0
1021,69.0,0.0,15.0,0.0,0.0
1022,57.0,0.0,15.0,0.0,0.0
1023,64.0,0.0,15.0,0.0,0.0
1024,49.0,240.0,240.0,0.0,0.0
1025,64.0,0.0,15.0,0.0,0.0
1026,61.0,0.0,15.0,0.0,0.0
1027,55.0,0.0,15.0,0.0,0.0
1028,56.0,240.0,240.0,0.0,0.0
1029,68.0,0.0,240.0,0.0,0.0
1030,64.0,0.0,15.0,0.0,0.0
1031,69.0,0.0,240.0,0.0,0.0
1032,55.0,0.0,15.0,0.0,0.0
1033,49.0,0.0,15.0,0.0,0.0
1034,61.0,0.0,15.0,0.0,0.0
1035,57.0,0.0,240.0,0.0,0.0
1036,71.0,0.0,720.0,0.0,0.0
1037,38.0,240.0,240.0,0.0,0.0
1038,50.0,0.0,240.0,0.0,0.0
1039,62.0,0.0,240.0,0.0,0.0
1040,54.0,240.0,15.0,0.0,0.0
1041,62.0,0.0,240.0,0.0,0.0
1042,50.0,0.0,240.0,0.0,0.0
1043,66.0,0.0,15.0,0.0,0.0
1044,57.0,0.0,15.0,0.0,0.0
1045,54.0,0.0,15.0,0.0,0.0
1046,62.0,0.0,240.0,0.0,0.0
1047,57.0,0.0,15.0,0.0,0.0
1048,66.0,240.0,15.0,0.0,0.0
1049,57.0,0.0,15.0,0.0,0.0
1050,66.0,0.0,15.0,0.0,0.0
1051,54.0,0.0,15.0,0.0,0.0
1052,50.0,240.0,15.0,0.0,0.0
1053,61.0,0.0,240.0,0.0,0.0
1054,57.0,0.0,15.0,0.0,0.0
1055,66.0,0.0,15.0,0.0,0.0
1056,54.0,0.0,240.0,0.0,0.0
1057,50.0,0.0,240.0,0.0,0.0
1058,59.0,0.0,240.0,0.0,0.0
1059,33.0,0.0,240.0,0.0,0.0
1060,45.0,0.0,240.0,0.0,0.0
1061,69.0,0.0,15.0,0.0,0.0
1062,64.0,0.0,240.0,0.0,0.0
1063,55.0,0.0,240.0,0.0,0.0
1064,61.0,240.0,240.0,0.0,0.0
1065,69.0,240.0,15.0,0.0,0.0
1066,67.0,0.0,240.0,0.0,0.0
1067,57.0,0.0,240.0,0.0,0.0
1068,52.0,0.0,15.0,0.0,0.0
1069,71.0,0.0,240.0,0.0,0.0
1070,67.0,0.0,240.0,0.0,0.0
1071,61.0,240.0,240.0,0.0,0.0
1072,57.0,0.0,240.0,0.0,0.0
1073,64.0,0.0,15.0,0.0,0.0
1074,55.0,0.0,15.0,0.0,0.0
1075,52.0,0.0,15.0,0.0,0.0
1076,73.0,240.0,240.0,0.0,0.0
1077,61.0,0.0,240.0,0.0,0.0
1078,67.0,0.0,240.0,0.0,0.0
1079,52.0,0.0,15.0,0.0,0.0
1080,57.0,0.0,15.0,0.0,0.0
1081,74.0,0.0,240.0,0.0,0.0
1082,67.0,0.0,240.0,0.0,0.0
1083,69.0,0.0,240.0,0.0,0.0
1084,62.0,0.0,240.0,0.0,0.0
1085,59.0,0.0,240.0,0.0,0.0
1086,76.0,0.0,240.0,0.0,0.0
1087,67.0,0.0,240.0,0.0,0.0
1088,69.0,0.0,240.0,0.0,0.0
1089,64.0,0.0,240.0,0.0,0.0
1090,55.0,0.0,15.0,0.0,0.0
1091,61.0,0.0,240.0,0.0,0.0
1092,52.0,240.0,15.0,0.0,0.0
1093,57.0,0.0,15.0,0.0,0.0
1094,78.0,0.0,1440.0,0.0,0.0
1095,38.0,240.0,240.0,0.0,0.0
1096,74.0,0.0,240.0,0.0,0.0
1097,66.0,0.0,240.0,0.0,0.0
1098,57.0,0.0,240.0,0.0,0.0
1099,50.0,240.0,240.0,0.0,0.0
1100,62.0,0.0,240.0,0.0,0.0
1101,74.0,0.0,240.0,0.0,0.0
1102,57.0,0.0,240.0,0.0,0.0
1103,62.0,0.0,240.0,0.0,0.0
1104,50.0,0.0,15.0,0.0,0.0
1105,38.0,0.0,240.0,0.0,0.0
1106,66.0,240.0,15.0,0.0,0.0
1107,69.0,0.0,240.0,0.0,0.0
1108,74.0,0.0,240.0,0.0,0.0
1109,66.0,0.0,240.0,0.0,0.0
1110,69.0,0.0,240.0,0.0,0.0
1111,74.0,0.0,240.0,0.0,0.0
1112,49.0,240.0,240.0,0.0,0.0
1113,37.0,0.0,240.0,0.0,0.0
1114,48.0,0.0,240.0,0.0,0.0
1115,66.0,0.0,240.0,0.0,0.0
1116,69.0,240.0,240.0,0.0,0.0
1117,74.0,0.0,240.0,0.0,0.0
1118,36.0,0.0,240.0,0.0,0.0
1119,79.0,0.0,720.0,0.0,0.0
1120,35.0,0.0,240.0,0.0,0.0
1121,47.0,240.0,240.0,0.0,0.0
1122,67.0,0.0,240.0,0.0,0.0
1123,74.0,0.0,240.0,0.0,0.0
1124,65.0,0.0,240.0,0.0,0.0
1125,55.0,0.0,15.0,0.0,0.0
1126,62.0,240.0,15.0,0.0,0.0
1127,67.0,0.0,240.0,0.0,0.0
1128,74.0,0.0,240.0,0.0,0.0
1129,65.0,0.0,240.0,0.0,0.0
1130,76.0,240.0,720.0,0.0,0.0
1131,48.0,240.0,240.0,0.0,0.0
1132,64.0,0.0,15.0,0.0,0.0
1133,72.0,0.0,15.0,0.0,0.0
1134,67.0,240.0,15.0,0.0,0.0
1135,60.0,0.0,15.0,0.0,0.0
1136,55.0,0.0,15.0,0.0,0.0
1137,46.0,240.0,240.0,0.0,0.0
1138,78.0,0.0,720.0,0.0,0.0
1139,61.0,0.0,240.0,0.0,0.0
1140,73.0,0.0,240.0,0.0,0.0
1141,54.0,0.0,240.0,0.0,0.0
1142,66.0,0.0,15.0,0.0,0.0
1143,73.0,0.0,240.0,0.0,0.0
1144,64.0,240.0,15.0,0.0,0.0
1145,54.0,0.0,240.0,0.0,0.0
1146,61.0,0.0,240.0,0.0,0.0
1147,47.0,240.0,240.0,0.0,0.0
1148,75.0,0.0,720.0,0.0,0.0
1149,59.0,0.0,240.0,0.0,0.0
1150,66.0,240.0,15.0,0.0,0.0
1151,63.0,0.0,15.0,0.0,0.0
1152,71.0,0.0,15.0,0.0,0.0
1153,54.0,0.0,15.0,0.0,0.0
1154,59.0,0.0,240.0,0.0,0.0
1155,45.0,240.0,240.0,0.0,0.0
1156,77.0,0.0,720.0,0.0,0.0
1157,72.0,0.0,240.0,0.0,0.0
1158,63.0,0.0,240.0,0.0,0.0
1159,53.0,0.0,240.0,0.0,0.0
1160,65.0,0.0,240.0,0.0,0.0
1161,63.0,0.0,240.0,0.0,0.0
1162,65.0,0.0,240.0,0.0,0.0
1163,53.0,0.0,240.0,0.0,0.0
1164,60.0,240.0,15.0,0.0,0.0
1165,72.0,240.0,240.0,0.0,0.0
1166,74.0,0.0,2160.0,0.0,0.0
1167,46.0,240.0,240.0,0.0,0.0
1168,58.0,0.0,240.0,0.0,0.0
1169,70.0,0.0,240.0,0.0,0.0
1170,53.0,0.0,15.0,0.0,0.0
1171,65.0,240.0,15.0,0.0,0.0
1172,62.0,0.0,15.0,0.0,0.0
1173,69.0,0.0,240.0,0.0,0.0
1174,65.0,240.0,15.0,0.0,0.0
1175,58.0,0.0,15.0,0.0,0.0
1176,53.0,0.0,15.0,0.0,0.0
1177,62.0,0.0,15.0,0.0,0.0
1178,65.0,0.0,15.0,0.0,0.0
1179,62.0,240.0,240.0,0.0,0.0
1180,68.0,0.0,15.0,0.0,0.0
1181,46.0,0.0,240.0,0.0,0.0
1182,34.0,0.0,240.0,0.0,0.0
1183,33.0,0.0,240.0,0.0,0.0
1184,62.0,0.0,240.0,0.0,0.0
1185,65.0,0.0,240.0,0.0,0.0
1186,45.0,240.0,240.0,0.0,0.0
1187,69.0,0.0,240.0,0.0,0.0
1188,65.0,0.0,240.0,0.0,0.0
1189,62.0,0.0,240.0,0.0,0.0
1190,70.0,0.0,240.0,0.0,0.0
1191,32.0,0.0,240.0,0.0,0.0
1192,32.0,240.0,240.0,0.0,0.0
1193,44.0,240.0,15.0,0.0,0.0
1194,65.0,0.0,240.0,0.0,0.0
1195,62.0,0.0,240.0,0.0,0.0
1196,70.0,0.0,240.0,0.0,0.0
1197,65.0,0.0,240.0,0.0,0.0
1198,62.0,0.0,240.0,0.0,0.0
1199,31.0,0.0,240.0,0.0,0.0
1200,43.0,240.0,240.0,0.0,0.0
1201,71.0,0.0,240.0,0.0,0.0
1202,75.0,0.0,960.0,0.0,0.0
1203,42.0,240.0,240.0,0.0,0.0
1204,30.0,0.0,240.0,0.0,0.0
1205,59.0,0.0,240.0,0.0,0.0
1206,54.0,0.0,240.0,0.0,0.0
1207,71.0,0.0,15.0,0.0,0.0
1208,63.0,0.0,15.0,0.0,0.0
1209,59.0,0.0,240.0,0.0,0.0
1210,66.0,240.0,15.0,0.0,0.0
1211,54.0,0.0,15.0,0.0,0.0
1212,63.0,0.0,240.0,0.0,0.0
1213,69.0,0.0,240.0,0.0,0.0
1214,69.0,0.0,240.0,0.0,0.0
1215,76.0,0.0,240.0,0.0,0.0
1216,66.0,240.0,15.0,0.0,0.0
1217,60.0,0.0,15.0,0.0,0.0
1218,54.0,0.0,15.0,0.0,0.0
1219,63.0,0.0,240.0,0.0,0.0
1220,66.0,240.0,15.0,0.0,0.0
1221,60.0,0.0,15.0,0.0,0.0
1222,54.0,0.0,240.0,0.0,0.0
1223,69.0,0.0,240.0,0.0,0.0
1224,63.0,0.0,240.0,0.0,0.0
1225,72.0,120.0,240.0,0.0,0.0
1226,42.0,0.0,240.0,0.0,0.0
1227,75.0,60.0,120.0,0.0,0.0
1228,73.0,60.0,60.0,0.0,0.0
1229,75.0,240.0,60.0,0.0,0.0
1230,73.0,240.0,240.0,0.0,0.0
1231,70.0,0.0,240.0,0.0,0.0
1232,66.0,0.0,15.0,0.0,0.0
1233,61.0,0.0,15.0,0.0,0.0
1234,54.0,0.0,15.0,0.0,0.0
1235,64.0,0.0,15.0,0.0,0.0
1236,72.0,0.0,240.0,0.0,0.0
1237,70.0,0.0,240.0,0.0,0.0
1238,66.0,0.0,15.0,0.0,0.0
1239,54.0,0.0,240.0,0.0,0.0
1240,61.0,0.0,240.0,0.0,0.0
1241,73.0,240.0,240.0,0.0,0.0
1242,61.0,0.0,240.0,0.0,0.0
1243,66.0,0.0,240.0,0.0,0.0
1244,70.0,0.0,15.0,0.0,0.0
1245,75.0,0.0,240.0,0.0,0.0
1246,64.0,0.0,15.0,0.0,0.0
1247,54.0,0.0,15.0,0.0,0.0
1248,61.0,0.0,240.0,0.0,0.0
1249,66.0,0.0,240.0,0.0,0.0
1250,64.0,240.0,15.0,0.0,0.0
1251,70.0,0.0,240.0,0.0,0.0
1252,71.0,0.0,1680.0,0.0,0.0
1253,35.0,240.0,240.0,0.0,0.0
1254,51.0,0.0,240.0,0.0,0.0
1255,54.0,0.0,240.0,0.0,0.0
1256,51.0,0.0,240.0,0.0,0.0
1257,63.0,240.0,15.0,0.0,0.0
1258,66.0,0.0,15.0,0.0,0.0
1259,59.0,0.0,15.0,0.0,0.0
1260,54.0,0.0,15.0,0.0,0.0
1261,51.0,0.0,240.0,0.0,0.0
1262,63.0,0.0,240.0,0.0,0.0
1263,66.0,0.0,15.0,0.0,0.0
1264,59.0,0.0,15.0,0.0,0.0
1265,54.0,240.0,15.0,0.0,0.0
1266,63.0,240.0,15.0,0.0,0.0
1267,66.0,0.0,240.0,0.0,0.0
1268,51.0,0.0,15.0,0.0,0.0
1269,54.0,0.0,15.0,0.0,0.0
1270,59.0,0.0,15.0,0.0,0.0
1271,47.0,240.0,240.0,0.0,0.0
1272,71.0,0.0,240.0,0.0,0.0
1273,67.0,0.0,15.0,0.0,0.0
1274,59.0,0.0,240.0,0.0,0.0
1275,52.0,0.0,240.0,0.0,0.0
1276,55.0,0.0,240.0,0.0,0.0
1277,52.0,0.0,240.0,0.0,0.0
1278,70.0,0.0,240.0,0.0,0.0
1279,58.0,0.0,240.0,0.0,0.0
1280,55.0,0.0,240.0,0.0,0.0
1281,64.0,240.0,15.0,0.0,0.0
1282,61.0,0.0,240.0,0.0,0.0
1283,73.0,0.0,240.0,0.0,0.0
1284,67.0,240.0,15.0,0.0,0.0
1285,52.0,240.0,240.0,0.0,0.0
1286,71.0,0.0,240.0,0.0,0.0
1287,64.0,0.0,15.0,0.0,0.0
1288,55.0,0.0,15.0,0.0,0.0
1289,52.0,0.0,240.0,0.0,0.0
1290,64.0,240.0,15.0,0.0,0.0
1291,67.0,0.0,15.0,0.0,0.0
1292,59.0,0.0,15.0,0.0,0.0
1293,55.0,0.0,15.0,0.0,0.0
1294,52.0,0.0,240.0,0.0,0.0
1295,35.0,240.0,240.0,0.0,0.0
1296,63.0,240.0,240.0,0.0,0.0
1297,59.0,0.0,240.0,0.0,0.0
1298,66.0,0.0,240.0,0.0,0.0
1299,66.0,0.0,240.0,0.0,0.0
1300,59.0,240.0,240.0,0.0,0.0
1301,54.0,0.0,15.0,0.0,0.0
1302,51.0,0.0,15.0,0.0,0.0
1303,63.0,0.0,15.0,0.0,0.0
1304,59.0,0.0,240.0,0.0,0.0
1305,66.0,0.0,240.0,0.0,0.0
1306,54.0,0.0,15.0,0.0,0.0
1307,51.0,0.0,15.0,0.0,0.0
1308,59.0,0.0,15.0,0.0,0.0
1309,66.0,0.0,15.0,0.0,0.0
1310,54.0,0.0,15.0,0.0,0.0
1311,51.0,0.0,240.0,0.0,0.0
1312,63.0,240.0,15.0,0.0,0.0
1313,67.0,0.0,240.0,0.0,0.0
1314,47.0,0.0,240.0,0.0,0.0
1315,59.0,240.0,240.0,0.0,0.0
1316,71.0,0.0,15.0,0.0,0.0
1317,67.0,0.0,240.0,0.0,0.0
1318,59.0,0.0,240.0,0.0,0.0
1319,70.0,0.0,240.0,0.0,0.0
1320,58.0,240.0,240.0,0.0,0.0
1321,67.0,0.0,240.0,0.0,0.0
1322,64.0,240.0,15.0,0.0,0.0
1323,55.0,0.0,15.0,0.0,0.0
1324,52.0,0.0,15.0,0.0,0.0
1325,64.0,0.0,15.0,0.0,0.0
1326,73.0,0.0,240.0,0.0,0.0
1327,67.0,0.0,240.0,0.0,0.0
1328,61.0,0.0,240.0,0.0,0.0
1329,55.0,0.0,15.0,0.0,0.0
1330,52.0,0.0,15.0,0.0,0.0
1331,67.0,0.0,240.0,0.0,0.0
1332,59.0,0.0,240.0,0.0,0.0
1333,71.0,0.0,240.0,0.0,0.0
1334,55.0,0.0,240.0,0.0,0.0
1335,64.0,0.0,240.0,0.0,0.0
1336,64.0,0.0,240.0,0.0,0.0
1337,52.0,240.0,15.0,0.0,0.0
1338,55.0,0.0,240.0,0.0,0.0
1339,67.0,240.0,240.0,0.0,0.0
1340,59.0,0.0,240.0,0.0,0.0
1341,35.0,240.0,240.0,0.0,0.0
1342,71.0,0.0,2880.0,0.0,0.0
1343,51.0,240.0,240.0,0.0,0.0
1344,63.0,0.0,240.0,0.0,0.0
1345,66.0,0.0,240.0,0.0,0.0
1346,59.0,0.0,240.0,0.0,0.0
1347,54.0,0.0,15.0,0.0,0.0
1348,59.0,0.0,240.0,0.0,0.0
1349,63.0,0.0,240.0,0.0,0.0
1350,51.0,0.0,240.0,0.0,0.0
1351,51.0,0.0,240.0,0.0,0.0
1352,54.0,0.0,240.0,0.0,0.0
1353,63.0,0.0,240.0,0.0,0.0
1354,66.0,240.0,15.0,0.0,0.0
1355,59.0,240.0,240.0,0.0,0.0
1356,59.0,0.0,240.0,0.0,0.0
1357,66.0,240.0,240.0,0.0,0.0
1358,63.0,0.0,240.0,0.0,0.0
1359,51.0,0.0,240.0,0.0,0.0
1360,54.0,0.0,15.0,0.0,0.0
1361,66.0,0.0,240.0,0.0,0.0
1362,51.0,0.0,240.0,0.0,0.0
1363,63.0,0.0,240.0,0.0,0.0
1364,51.0,240.0,240.0,0.0,0.0
1365,54.0,0.0,240.0,0.0,0.0
1366,63.0,0.0,240.0,0.0,0.0
1367,59.0,240.0,15.0,0.0,0.0
1368,66.0,0.0,240.0,0.0,0.0
1369,59.0,0.0,15.0,0.0,0.0
1370,66.0,0.0,240.0,0.0,0.0
1371,51.0,0.0,240.0,0.0,0.0
1372,54.0,0.0,15.0,0.0,0.0
1373,63.0,240.0,15.0,0.0,0.0
1374,66.0,240.0,15.0,0.0,0.0
1375,59.0,0.0,15.0,0.0,0.0
1376,51.0,0.0,15.0,0.0,0.0
1377,63.0,0.0,15.0,0.0,0.0
1378,54.0,0.0,15.0,0.0,0.0
1379,51.0,0.0,15.0,0.0,0.0
1380,66.0,0.0,240.0,0.0,0.0
1381,59.0,0.0,240.0,0.0,0.0
1382,54.0,0.0,240.0,0.0,0.0
1383,63.0,240.0,15.0,0.0,0.0
1384,66.0,0.0,240.0,0.0,0.0
1385,63.0,0.0,15.0,0.0,0.0
1386,54.0,0.0,15.0,0.0,0.0
1387,51.0,0.0,15.0,0.0,0.0
1388,66.0,240.0,240.0,0.0,0.0
1389,59.0,240.0,15.0,0.0,0.0
1390,63.0,0.0,240.0,0.0,0.0
1391,66.0,0.0,15.0,0.0,0.0
1392,59.0,0.0,15.0,0.0,0.0
1393,51.0,0.0,15.0,0.0,0.0
1394,54.0,240.0,15.0,0.0,0.0
1395,66.0,0.0,15.0,0.0,0.0
1396,51.0,0.0,15.0,0.0,0.0
1397,54.0,0.0,15.0,0.0,0.0
1398,63.0,240.0,15.0,0.0,0.0
1399,66.0,240.0,15.0,0.0,0.0
1400,59.0,0.0,15.0,0.0,0.0
1401,63.0,0.0,15.0,0.0,0.0
1402,51.0,240.0,15.0,0.0,0.0
1403,54.0,0.0,15.0,0.0,0.0
1404,59.0,0.0,240.0,0.0,0.0
1405,54.0,0.0,15.0,0.0,0.0
1406,51.0,0.0,15.0,0.0,0.0
1407,66.0,0.0,15.0,0.0,0.0
1408,59.0,0.0,240.0,0.0,0.0
1409,51.0,0.0,240.0,0.0,0.0
1410,54.0,0.0,15.0,0.0,0.0
1411,63.0,240.0,15.0,0.0,0.0
1412,59.0,0.0,15.0,0.0,0.0
1413,66.0,240.0,15.0,0.0,0.0
1414,51.0,0.0,240.0,0.0,0.0
1415,54.0,0.0,240.0,0.0,0.0
1416,63.0,0.0,240.0,0.0,0.0
1417,51.0,0.0,240.0,0.0,0.0
1418,59.0,0.0,15.0,0.0,0.0
1419,54.0,0.0,240.0,0.0,0.0
1420,63.0,0.0,240.0,0.0,0.0
1421,59.0,240.0,240.0,0.0,0.0
1422,66.0,240.0,15.0,0.0,0.0
1423,63.0,0.0,15.0,0.0,0.0
1424,51.0,0.0,15.0,0.0,0.0
1425,54.0,0.0,15.0,0.0,0.0
1426,59.0,240.0,480.0,0.0,0.0
1427,66.0,0.0,480.0,0.0,0.0
1428,28.0,0.0,1440.0,0.0,0.0
1429,66.0,240.0,240.0,0.0,0.0
1430,59.0,0.0,240.0,0.0,0.0
1431,47.0,0.0,15.0,0.0,0.0
1432,40.0,0.0,15.0,0.0,0.0
1433,68.0,0.0,240.0,0.0,0.0
1434,59.0,0.0,240.0,0.0,0.0
1435,59.0,0.0,240.0,0.0,0.0
1436,69.0,0.0,240.0,0.0,0.0
1437,40.0,0.0,240.0,0.0,0.0
1438,47.0,240.0,15.0,0.0,0.0
1439,61.0,0.0,240.0,0.0,0.0
1440,54.0,0.0,15.0,0.0,0.0
1441,47.0,240.0,15.0,0.0,0.0
1442,63.0,240.0,240.0,0.0,0.0
1443,57.0,0.0,15.0,0.0,0.0
1444,47.0,240.0,15.0,0.0,0.0
1445,54.0,0.0,240.0,0.0,0.0
1446,52.0,0.0,240.0,0.0,0.0
1447,47.0,0.0,15.0,0.0,0.0
1448,66.0,0.0,720.0,0.0,0.0
1449,56.0,0.0,240.0,0.0,0.0
1450,59.0,0.0,240.0,0.0,0.0
1451,47.0,0.0,240.0,0.0,0.0
1452,52.0,0.0,240.0,0.0,0.0
1453,56.0,0.0,15.0,0.0,0.0
1454,59.0,240.0,15.0,0.0,0.0
1455,56.0,0.0,15.0,0.0,0.0
1456,64.0,0.0,720.0,0.0,0.0
1457,47.0,0.0,15.0,0.0,0.0
1458,52.0,0.0,15.0,0.0,0.0
1459,59.0,0.0,240.0,0.0,0.0
1460,52.0,0.0,15.0,0.0,0.0
1461,56.0,0.0,240.0,0.0,0.0
1462,47.0,0.0,240.0,0.0,0.0
1463,47.0,0.0,240.0,0.0,0.0
1464,52.0,0.0,240.0,0.0,0.0
1465,59.0,240.0,15.0,0.0,0.0
1466,56.0,0.0,240.0,0.0,0.0
1467,28.0,0.0,1440.0,0.0,0.0
1468,69.0,0.0,240.0,0.0,0.0
1469,64.0,0.0,240.0,0.0,0.0
1470,52.0,0.0,240.0,0.0,0.0
1471,57.0,0.0,240.0,0.0,0.0
1472,61.0,0.0,240.0,0.0,0.0
1473,49.0,240.0,240.0,0.0,0.0
1474,75.0,0.0,240.0,0.0,0.0
1475,69.0,0.0,240.0,0.0,0.0
1476,49.0,0.0,240.0,0.0,0.0
1477,64.0,0.0,15.0,0.0,0.0
1478,69.0,0.0,240.0,0.0,0.0
1479,78.0,0.0,240.0,0.0,0.0
1480,61.0,240.0,15.0,0.0,0.0
1481,57.0,0.0,15.0,0.0,0.0
1482,52.0,0.0,15.0,0.0,0.0
1483,76.0,0.0,240.0,0.0,0.0
1484,61.0,240.0,15.0,0.0,0.0
1485,57.0,0.0,240.0,0.0,0.0
1486,52.0,0.0,15.0,0.0,0.0
1487,49.0,0.0,15.0,0.0,0.0
1488,64.0,0.0,240.0,0.0,0.0
1489,64.0,0.0,240.0,0.0,0.0
1490,69.0,240.0,15.0,0.0,0.0
1491,73.0,240.0,240.0,0.0,0.0
1492,49.0,0.0,240.0,0.0,0.0
1493,52.0,0.0,240.0,0.0,0.0
1494,57.0,0.0,240.0,0.0,0.0
1495,61.0,0.0,240.0,0.0,0.0
1496,54.0,0.0,240.0,0.0,0.0
1497,57.0,0.0,240.0,0.0,0.0
1498,63.0,0.0,240.0,0.0,0.0
1499,66.0,0.0,240.0,0.0,0.0
1500,71.0,0.0,720.0,0.0,0.0
1501,51.0,0.0,15.0,0.0,0.0
1502,59.0,240.0,15.0,0.0,0.0
1503,63.0,240.0,15.0,0.0,0.0
1504,57.0,0.0,15.0,0.0,0.0
1505,54.0,0.0,15.0,0.0,0.0
1506,51.0,0.0,15.0,0.0,0.0
1507,59.0,0.0,15.0,0.0,0.0
1508,66.0,0.0,15.0,0.0,0.0
1509,73.0,480.0,720.0,0.0,0.0
1510,61.0,0.0,240.0,0.0,0.0
1511,64.0,0.0,240.0,0.0,0.0
1512,69.0,0.0,240.0,0.0,0.0
1513,61.0,0.0,240.0,0.0,0.0
1514,52.0,0.0,15.0,0.0,0.0
1515,57.0,240.0,15.0,0.0,0.0
1516,57.0,0.0,15.0,0.0,0.0
1517,64.0,0.0,15.0,0.0,0.0
1518,52.0,0.0,240.0,0.0,0.0
1519,69.0,240.0,15.0,0.0,0.0
1520,61.0,0.0,240.0,0.0,0.0
1521,28.0,0.0,1440.0,0.0,0.0
1522,51.0,0.0,240.0,0.0,0.0
1523,54.0,0.0,240.0,0.0,0.0
1524,63.0,0.0,240.0,0.0,0.0
1525,66.0,240.0,240.0,0.0,0.0
1526,54.0,0.0,240.0,0.0,0.0
1527,71.0,0.0,240.0,0.0,0.0
1528,59.0,0.0,15.0,0.0,0.0
1529,66.0,0.0,240.0,0.0,0.0
1530,63.0,0.0,15.0,0.0,0.0
1531,57.0,0.0,240.0,0.0,0.0
1532,54.0,0.0,240.0,0.0,0.0
1533,51.0,0.0,15.0,0.0,0.0
1534,59.0,240.0,15.0,0.0,0.0
1535,75.0,0.0,240.0,0.0,0.0
1536,66.0,0.0,240.0,0.0,0.0
1537,73.0,0.0,240.0,0.0,0.0
1538,66.0,0.0,240.0,0.0,0.0
1539,63.0,240.0,15.0,0.0,0.0
1540,63.0,240.0,15.0,0.0,0.0
1541,57.0,0.0,15.0,0.0,0.0
1542,54.0,0.0,15.0,0.0,0.0
1543,51.0,0.0,15.0,0.0,0.0
1544,59.0,0.0,15.0,0.0,0.0
1545,69.0,0.0,240.0,0.0,0.0
1546,66.0,0.0,240.0,0.0,0.0
1547,68.0,0.0,720.0,0.0,0.0
1548,59.0,0.0,15.0,0.0,0.0
1549,64.0,0.0,240.0,0.0,0.0
1550,56.0,0.0,240.0,0.0,0.0
1551,62.0,240.0,15.0,0.0,0.0
1552,52.0,0.0,15.0,0.0,0.0
1553,56.0,0.0,240.0,0.0,0.0
1554,64.0,0.0,15.0,0.0,0.0
1555,52.0,0.0,15.0,0.0,0.0
1556,59.0,240.0,15.0,0.0,0.0
1557,56.0,0.0,240.0,0.0,0.0
1558,62.0,240.0,240.0,0.0,0.0
1559,52.0,0.0,15.0,0.0,0.0
1560,49.0,0.0,240.0,0.0,0.0
1561,69.0,0.0,720.0,0.0,0.0
1562,64.0,0.0,15.0,0.0,0.0
1563,61.0,0.0,15.0,0.0,0.0
1564,57.0,240.0,15.0,0.0,0.0
1565,52.0,0.0,240.0,0.0,0.0
1566,61.0,0.0,240.0,0.0,0.0
1567,52.0,0.0,240.0,0.0,0.0
1568,49.0,240.0,15.0,0.0,0.0
1569,64.0,480.0,240.0,0.0,0.0
1570,57.0,0.0,240.0,0.0,0.0
1571,28.0,0.0,1440.0,0.0,0.0
1572,52.0,0.0,240.0,0.0,0.0
1573,59.0,0.0,240.0,0.0,0.0
1574,52.0,0.0,240.0,0.0,0.0
1575,47.0,0.0,15.0,0.0,0.0
1576,57.0,240.0,15.0,0.0,0.0
1577,59.0,0.0,240.0,0.0,0.0
1578,66.0,0.0,240.0,0.0,0.0
1579,56.0,240.0,240.0,0.0,0.0
1580,64.0,0.0,240.0,0.0,0.0
1581,69.0,0.0,240.0,0.0,0.0
1582,47.0,0.0,240.0,0.0,0.0
1583,52.0,0.0,240.0,0.0,0.0
1584,59.0,0.0,15.0,0.0,0.0
1585,64.0,240.0,240.0,0.0,0.0
1586,56.0,0.0,240.0,0.0,0.0
1587,68.0,0.0,240.0,0.0,0.0
1588,59.0,0.0,15.0,0.0,0.0
1589,52.0,0.0,15.0,0.0,0.0
1590,47.0,0.0,15.0,0.0,0.0
1591,56.0,0.0,240.0,0.0,0.0
1592,64.0,0.0,240.0,0.0,0.0
1593,61.0,0.0,240.0,0.0,0.0
1594,54.0,0.0,240.0,0.0,0.0
1595,59.0,0.0,15.0,0.0,0.0
1596,47.0,240.0,15.0,0.0,0.0
1597,66.0,0.0,1440.0,0.0,0.0
1598,63.0,240.0,240.0,0.0,0.0
1599,47.0,0.0,240.0,0.0,0.0
1600,59.0,240.0,240.0,0.0,0.0
1601,63.0,0.0,240.0,0.0,0.0
1602,54.0,0.0,15.0,0.0,0.0
1603,47.0,0.0,240.0,0.0,0.0
1604,47.0,0.0,240.0,0.0,0.0
1605,63.0,0.0,15.0,0.0,0.0
1606,54.0,0.0,15.0,0.0,0.0
1607,59.0,240.0,15.0,0.0,0.0
1608,59.0,0.0,15.0,0.0,0.0
1609,47.0,0.0,240.0,0.0,0.0
1610,54.0,0.0,15.0,0.0,0.0
1611,63.0,240.0,240.0,0.0,0.0
1612,47.0,0.0,240.0,0.0,0.0
1613,54.0,0.0,240.0,0.0,0.0
1614,59.0,0.0,240.0,0.0,0.0
1615,63.0,480.0,240.0,0.0,0.0
1616,28.0,0.0,1440.0,0.0,0.0
1617,63.0,0.0,240.0,0.0,0.0
1618,66.0,0.0,240.0,0.0,0.0
1619,59.0,0.0,15.0,0.0,0.0
1620,47.0,0.0,15.0,0.0,0.0
1621,68.0,240.0,240.0,0.0,0.0
1622,57.0,240.0,15.0,0.0,0.0
1623,69.0,240.0,240.0,0.0,0.0
1624,57.0,0.0,15.0,0.0,0.0
1625,63.0,0.0,15.0,0.0,0.0
1626,47.0,0.0,15.0,0.0,0.0
1627,47.0,0.0,15.0,0.0,0.0
1628,59.0,0.0,15.0,0.0,0.0
1629,61.0,0.0,240.0,0.0,0.0
1630,57.0,240.0,15.0,0.0,0.0
1631,63.0,0.0,240.0,0.0,0.0
1632,59.0,0.0,15.0,0.0,0.0
1633,47.0,0.0,15.0,0.0,0.0
1634,66.0,240.0,720.0,0.0,0.0
1635,57.0,240.0,15.0,0.0,0.0
1636,52.0,0.0,15.0,0.0,0.0
1637,47.0,0.0,15.0,0.0,0.0
1638,62.0,0.0,15.0,0.0,0.0
1639,57.0,240.0,15.0,0.0,0.0
1640,59.0,0.0,15.0,0.0,0.0
1641,62.0,0.0,15.0,0.0,0.0
1642,57.0,240.0,15.0,0.0,0.0
1643,52.0,0.0,15.0,0.0,0.0
1644,47.0,0.0,15.0,0.0,0.0
1645,64.0,0.0,720.0,0.0,0.0
1646,47.0,240.0,240.0,0.0,0.0
1647,52.0,0.0,240.0,0.0,0.0
1648,59.0,0.0,15.0,0.0,0.0
1649,56.0,0.0,15.0,0.0,0.0
1650,62.0,240.0,15.0,0.0,0.0
1651,56.0,0.0,240.0,0.0,0.0
1652,62.0,0.0,240.0,0.0,0.0
1653,47.0,0.0,240.0,0.0,0.0
1654,52.0,0.0,240.0,0.0,0.0
1655,59.0,480.0,240.0,0.0,0.0
1656,28.0,0.0,1440.0,0.0,0.0
1657,69.0,0.0,240.0,0.0,0.0
1658,57.0,0.0,15.0,0.0,0.0
1659,64.0,240.0,15.0,0.0,0.0
1660,69.0,0.0,240.0,0.0,0.0
1661,75.0,0.0,240.0,0.0,0.0
1662,52.0,0.0,15.0,0.0,0.0
1663,49.0,0.0,15.0,0.0,0.0
1664,61.0,0.0,15.0,0.0,0.0
1665,61.0,0.0,240.0,0.0,0.0
1666,69.0,0.0,240.0,0.0,0.0
1667,64.0,0.0,240.0,0.0,0.0
1668,78.0,240.0,240.0,0.0,0.0
1669,49.0,240.0,15.0,0.0,0.0
1670,61.0,0.0,240.0,0.0,0.0
1671,57.0,0.0,15.0,0.0,0.0
1672,52.0,0.0,15.0,0.0,0.0
1673,64.0,240.0,240.0,0.0,0.0
1674,76.0,0.0,240.0,0.0,0.0
1675,69.0,0.0,240.0,0.0,0.0
1676,52.0,0.0,15.0,0.0,0.0
1677,49.0,0.0,15.0,0.0,0.0
1678,61.0,0.0,240.0,0.0,0.0
1679,64.0,0.0,240.0,0.0,0.0
1680,69.0,0.0,240.0,0.0,0.0
1681,73.0,0.0,240.0,0.0,0.0
1682,71.0,0.0,720.0,0.0,0.0
1683,63.0,0.0,240.0,0.0,0.0
1684,57.0,240.0,15.0,0.0,0.0
1685,51.0,0.0,240.0,0.0,0.0
1686,66.0,0.0,240.0,0.0,0.0
1687,59.0,0.0,240.0,0.0,0.0
1688,54.0,240.0,15.0,0.0,0.0
1689,66.0,0.0,240.0,0.0,0.0
1690,59.0,0.0,240.0,0.0,0.0
1691,57.0,0.0,15.0,0.0,0.0
1692,57.0,240.0,15.0,0.0,0.0
1693,63.0,0.0,15.0,0.0,0.0
1694,51.0,0.0,15.0,0.0,0.0
1695,59.0,0.0,240.0,0.0,0.0
1696,66.0,0.0,240.0,0.0,0.0
1697,54.0,240.0,240.0,0.0,0.0
1698,64.0,0.0,240.0,0.0,0.0
1699,69.0,0.0,240.0,0.0,0.0
1700,73.0,0.0,720.0,0.0,0.0
1701,61.0,0.0,240.0,0.0,0.0
1702,57.0,0.0,240.0,0.0,0.0
1703,52.0,240.0,15.0,0.0,0.0
1704,64.0,0.0,240.0,0.0,0.0
1705,57.0,0.0,15.0,0.0,0.0
1706,52.0,0.0,240.0,0.0,0.0
1707,64.0,0.0,240.0,0.0,0.0
1708,69.0,240.0,15.0,0.0,0.0
1709,61.0,0.0,15.0,0.0,0.0
1710,28.0,0.0,1440.0,0.0,0.0
1711,54.0,0.0,240.0,0.0,0.0
1712,63.0,0.0,240.0,0.0,0.0
1713,59.0,240.0,240.0,0.0,0.0
1714,51.0,0.0,240.0,0.0,0.0
1715,66.0,0.0,15.0,0.0,0.0
1716,71.0,240.0,240.0,0.0,0.0
1717,63.0,0.0,240.0,0.0,0.0
1718,59.0,0.0,240.0,0.0,0.0
1719,54.0,0.0,15.0,0.0,0.0
1720,51.0,0.0,15.0,0.0,0.0
1721,59.0,0.0,240.0,0.0,0.0
1722,75.0,0.0,240.0,0.0,0.0
1723,66.0,0.0,240.0,0.0,0.0
1724,73.0,0.0,240.0,0.0,0.0
1725,66.0,240.0,240.0,0.0,0.0
1726,57.0,0.0,15.0,0.0,0.0
1727,63.0,0.0,15.0,0.0,0.0
1728,54.0,0.0,15.0,0.0,0.0
1729,51.0,240.0,15.0,0.0,0.0
1730,59.0,0.0,240.0,0.0,0.0
1731,57.0,0.0,15.0,0.0,0.0
1732,51.0,0.0,240.0,0.0,0.0
1733,54.0,0.0,240.0,0.0,0.0
1734,63.0,0.0,240.0,0.0,0.0
1735,69.0,0.0,240.0,0.0,0.0
1736,66.0,0.0,240.0,0.0,0.0
1737,59.0,0.0,15.0,0.0,0.0
1738,62.0,0.0,240.0,0.0,0.0
1739,68.0,240.0,720.0,0.0,0.0
1740,52.0,240.0,240.0,0.0,0.0
1741,56.0,0.0,15.0,0.0,0.0
1742,64.0,0.0,15.0,0.0,0.0
1743,59.0,0.0,15.0,0.0,0.0
1744,62.0,0.0,240.0,0.0,0.0
1745,52.0,0.0,240.0,0.0,0.0
1746,56.0,0.0,240.0,0.0,0.0
1747,62.0,0.0,240.0,0.0,0.0
1748,64.0,240.0,15.0,0.0,0.0
1749,59.0,0.0,15.0,0.0,0.0
1750,52.0,0.0,15.0,0.0,0.0
1751,69.0,0.0,720.0,0.0,0.0
1752,61.0,0.0,15.0,0.0,0.0
1753,52.0,0.0,15.0,0.0,0.0
1754,49.0,0.0,15.0,0.0,0.0
1755,57.0,0.0,15.0,0.0,0.0
1756,64.0,240.0,15.0,0.0,0.0
1757,57.0,0.0,240.0,0.0,0.0
1758,49.0,0.0,240.0,0.0,0.0
1759,52.0,0.0,240.0,0.0,0.0
1760,61.0,0.0,240.0,0.0,0.0
1761,64.0,480.0,240.0,0.0,0.0
1762,28.0,0.0,1440.0,0.0,0.0
1763,57.0,0.0,240.0,0.0,0.0
1764,60.0,0.0,240.0,0.0,0.0
1765,64.0,0.0,240.0,0.0,0.0
1766,60.0,0.0,240.0,0.0,0.0
1767,48.0,0.0,15.0,0.0,0.0
1768,52.0,240.0,15.0,0.0,0.0
1769,57.0,240.0,240.0,0.0,0.0
1770,48.0,240.0,240.0,0.0,0.0
1771,52.0,0.0,240.0,0.0,0.0
1772,57.0,0.0,240.0,0.0,0.0
1773,68.0,0.0,240.0,0.0,0.0
1774,60.0,0.0,15.0,0.0,0.0
1775,48.0,0.0,240.0,0.0,0.0
1776,52.0,0.0,240.0,0.0,0.0
1777,57.0,0.0,240.0,0.0,0.0
1778,66.0,240.0,240.0,0.0,0.0
1779,48.0,0.0,240.0,0.0,0.0
1780,60.0,0.0,240.0,0.0,0.0
1781,64.0,0.0,240.0,0.0,0.0
1782,57.0,240.0,240.0,0.0,0.0
1783,52.0,0.0,15.0,0.0,0.0
1784,59.0,0.0,240.0,0.0,0.0
1785,68.0,0.0,1920.0,0.0,0.0
1786,56.0,0.0,240.0,0.0,0.0
1787,52.0,0.0,240.0,0.0,0.0
1788,47.0,240.0,15.0,0.0,0.0
1789,52.0,0.0,240.0,0.0,0.0
1790,47.0,0.0,240.0,0.0,0.0
1791,59.0,0.0,15.0,0.0,0.0
1792,56.0,240.0,15.0,0.0,0.0
1793,52.0,240.0,240.0,0.0,0.0
1794,47.0,0.0,240.0,0.0,0.0
1795,59.0,240.0,15.0,0.0,0.0
1796,56.0,0.0,240.0,0.0,0.0
1797,52.0,0.0,240.0,0.0,0.0
1798,52.0,0.0,240.0,0.0,0.0
1799,47.0,0.0,15.0,0.0,0.0
1800,59.0,0.0,15.0,0.0,0.0
1801,56.0,240.0,15.0,0.0,0.0
1802,28.0,0.0,1440.0,0.0,0.0
1803,57.0,240.0,240.0,0.0,0.0
1804,48.0,0.0,240.0,0.0,0.0
1805,52.0,0.0,240.0,0.0,0.0
1806,60.0,0.0,240.0,0.0,0.0
1807,57.0,240.0,240.0,0.0,0.0
1808,64.0,240.0,240.0,0.0,0.0
1809,60.0,0.0,15.0,0.0,0.0
1810,52.0,0.0,15.0,0.0,0.0
1811,48.0,0.0,15.0,0.0,0.0
1812,57.0,0.0,15.0,0.0,0.0
1813,68.0,0.0,240.0,0.0,0.0
1814,66.0,240.0,240.0,0.0,0.0
1815,60.0,240.0,15.0,0.0,0.0
1816,52.0,0.0,15.0,0.0,0.0
1817,48.0,0.0,15.0,0.0,0.0
1818,57.0,0.0,240.0,0.0,0.0
1819,60.0,0.0,15.0,0.0,0.0
1820,48.0,240.0,240.0,0.0,0.0
1821,57.0,0.0,240.0,0.0,0.0
1822,64.0,0.0,240.0,0.0,0.0
1823,68.0,0.0,960.0,0.0,0.0
1824,56.0,0.0,240.0,0.0,0.0
1825,59.0,0.0,240.0,0.0,0.0
1826,52.0,0.0,15.0,0.0,0.0
1827,47.0,240.0,240.0,0.0,0.0
1828,52.0,0.0,240.0,0.0,0.0
1829,56.0,0.0,15.0,0.0,0.0
1830,59.0,240.0,15.0,0.0,0.0
1831,47.0,0.0,15.0,0.0,0.0
1832,52.0,0.0,240.0,0.0,0.0
1833,57.0,0.0,240.0,0.0,0.0
1834,60.0,0.0,15.0,0.0,0.0
1835,48.0,0.0,15.0,0.0,0.0
1836,66.0,0.0,240.0,0.0,0.0
1837,52.0,240.0,15.0,0.0,0.0
1838,57.0,0.0,15.0,0.0,0.0
1839,64.0,0.0,240.0,0.0,0.0
1840,48.0,0.0,240.0,0.0,0.0
1841,52.0,0.0,240.0,0.0,0.0
1842,60.0,240.0,240.0,0.0,0.0
1843,68.0,240.0,960.0,0.0,0.0
1844,56.0,240.0,240.0,0.0,0.0
1845,47.0,0.0,240.0,0.0,0.0
1846,52.0,0.0,240.0,0.0,0.0
1847,59.0,0.0,240.0,0.0,0.0
1848,56.0,0.0,240.0,0.0,0.0
1849,47.0,0.0,240.0,0.0,0.0
1850,59.0,240.0,15.0,0.0,0.0
1851,52.0,0.0,15.0,0.0,0.0
1852,47.0,0.0,240.0,0.0,0.0
1853,56.0,0.0,15.0,0.0,0.0
1854,52.0,0.0,15.0,0.0,0.0
1855,59.0,240.0,15.0,0.0,0.0
1856,47.0,0.0,240.0,0.0,0.0
1857,56.0,0.0,15.0,0.0,0.0
1858,59.0,0.0,15.0,0.0,0.0
1859,52.0,0.0,15.0,0.0,0.0
1860,47.0,0.0,240.0,0.0,0.0
1861,66.0,0.0,240.0,0.0,0.0
1862,64.0,0.0,240.0,0.0,0.0
1863,47.0,0.0,240.0,0.0,0.0
1864,52.0,240.0,15.0,0.0,0.0
1865,59.0,0.0,240.0,0.0,0.0
1866,56.0,480.0,240.0,0.0,0.0
1867,28.0,0.0,1440.0,0.0,0.0
1868,64.0,0.0,1440.0,0.0,0.0
1869,56.0,0.0,15.0,0.0,0.0
1870,59.0,240.0,15.0,0.0,0.0
1871,47.0,0.0,15.0,0.0,0.0
1872,52.0,0.0,15.0,0.0,0.0
1873,59.0,0.0,15.0,0.0,0.0
1874,52.0,240.0,15.0,0.0,0.0
1875,47.0,0.0,15.0,0.0,0.0
1876,56.0,0.0,240.0,0.0,0.0
1877,57.0,0.0,240.0,0.0,0.0
1878,52.0,0.0,15.0,0.0,0.0
1879,47.0,240.0,15.0,0.0,0.0
1880,54.0,0.0,240.0,0.0,0.0
1881,52.0,0.0,15.0,0.0,0.0
1882,61.0,0.0,240.0,0.0,0.0
1883,47.0,0.0,240.0,0.0,0.0
1884,57.0,0.0,240.0,0.0,0.0
1885,52.0,240.0,15.0,0.0,0.0
1886,47.0,0.0,240.0,0.0,0.0
1887,56.0,0.0,15.0,0.0,0.0
1888,59.0,240.0,15.0,0.0,0.0
1889,52.0,0.0,240.0,0.0,0.0
1890,47.0,0.0,240.0,0.0,0.0
1891,56.0,0.0,240.0,0.0,0.0
1892,52.0,0.0,15.0,0.0,0.0
1893,59.0,0.0,15.0,0.0,0.0
1894,47.0,240.0,15.0,0.0,0.0
1895,56.0,0.0,240.0,0.0,0.0
1896,54.0,240.0,240.0,0.0,0.0
1897,47.0,0.0,240.0,0.0,0.0
1898,52.0,0.0,240.0,0.0,0.0
1899,57.0,0.0,15.0,0.0,0.0
1900,61.0,0.0,240.0,0.0,0.0
1901,47.0,240.0,240.0,0.0,0.0
1902,52.0,0.0,240.0,0.0,0.0
1903,64.0,0.0,15.0,0.0,0.0
1904,56.0,0.0,480.0,0.0,0.0
1905,59.0,0.0,15.0,0.0,0.0
1906,47.0,0.0,15.0,0.0,0.0
1907,52.0,240.0,15.0,0.0,0.0
1908,47.0,0.0,15.0,0.0,0.0
1909,51.0,0.0,240.0,0.0,0.0
1910,59.0,0.0,15.0,0.0,0.0
1911,54.0,240.0,240.0,0.0,0.0
1912,52.0,0.0,240.0,0.0,0.0
1913,64.0,240.0,480.0,0.0,0.0
1914,56.0,0.0,480.0,0.0,0.0
1915,59.0,0.0,15.0,0.0,0.0
1916,52.0,0.0,240.0,0.0,0.0
1917,47.0,240.0,15.0,0.0,0.0
1918,59.0,0.0,15.0,0.0,0.0
1919,47.0,0.0,15.0,0.0,0.0
1920,51.0,0.0,240.0,0.0,0.0
1921,54.0,0.0,240.0,0.0,0.0
1922,64.0,0.0,480.0,0.0,0.0
1923,56.0,0.0,480.0,0.0,0.0
1924,47.0,240.0,240.0,0.0,0.0
1925,52.0,0.0,240.0,0.0,0.0
1926,59.0,0.0,240.0,0.0,0.0
1927,52.0,240.0,240.0,0.0,0.0
1928,47.0,0.0,240.0,0.0,0.0
1929,59.0,0.0,240.0,0.0,0.0
1930,54.0,0.0,240.0,0.0,0.0
1931,51.0,240.0,240.0,0.0,0.0
1932,47.0,0.0,240.0,0.0,0.0
1933,59.0,0.0,240.0,0.0,0.0
1934,64.0,0.0,480.0,0.0,0.0
1935,56.0,240.0,480.0,0.0,0.0
1936,52.0,0.0,240.0,0.0,0.0
1937,47.0,0.0,15.0,0.0,0.0
1938,59.0,240.0,15.0,0.0,0.0
1939,52.0,0.0,240.0,0.0,0.0
1940,54.0,480.0,240.0,0.0,0.0
1941,47.0,0.0,240.0,0.0,0.0
1942,59.0,0.0,240.0,0.0,0.0
1943,51.0,0.0,240.0,0.0,0.0
1944,28.0,0.0,1440.0,0.0,0.0
1945,56.0,240.0,240.0,0.0,0.0
1946,59.0,0.0,240.0,0.0,0.0
1947,52.0,0.0,240.0,0.0,0.0
1948,47.0,0.0,15.0,0.0,0.0
1949,56.0,0.0,240.0,0.0,0.0
1950,59.0,0.0,15.0,0.0,0.0
1951,52.0,240.0,15.0,0.0,0.0
1952,47.0,0.0,240.0,0.0,0.0
1953,56.0,240.0,15.0,0.0,0.0
1954,47.0,0.0,240.0,0.0,0.0
1955,59.0,240.0,15.0,0.0,0.0
1956,52.0,0.0,15.0,0.0,0.0
1957,47.0,0.0,240.0,0.0,0.0
1958,47.0,0.0,240.0,0.0,0.0
1959,52.0,0.0,240.0,0.0,0.0
1960,59.0,0.0,240.0,0.0,0.0
1961,56.0,240.0,15.0,0.0,0.0
1962,52.0,0.0,240.0,0.0,0.0
1963,59.0,0.0,240.0,0.0,0.0
1964,47.0,240.0,240.0,0.0,0.0
1965,56.0,240.0,15.0,0.0,0.0
1966,56.0,0.0,15.0,0.0,0.0
1967,56.0,0.0,15.0,0.0,0.0
1968,59.0,0.0,15.0,0.0,0.0
1969,52.0,180.0,15.0,0.0,0.0
1970,47.0,0.0,15.0,0.0,0.0
1971,59.0,0.0,60.0,0.0,0.0
1972,57.0,0.0,240.0,0.0,0.0
1973,52.0,240.0,15.0,0.0,0.0
1974,47.0,0.0,15.0,0.0,0.0
1975,56.0,0.0,15.0,0.0,0.0
1976,59.0,1440.0,15.0,0.0,0.0
1977,52.0,0.0,15.0,0.0,0.0
1978,47.0,0.0,1440.0,0.0,0.0
