,note,step,duration,channel,velocity
0,68.0,67.0,240.0,0.0,0.0
1,49.0,0.0,360.0,1.0,0.0
2,56.0,7.0,120.0,1.0,0.0
3,69.0,53.0,60.0,0.0,0.0
4,52.0,0.0,120.0,1.0,0.0
5,68.0,60.0,60.0,0.0,0.0
6,52.0,0.0,120.0,1.0,0.0
7,66.0,53.0,60.0,0.0,0.0
8,56.0,7.0,120.0,1.0,0.0
9,64.0,173.0,60.0,0.0,0.0
10,63.0,60.0,180.0,0.0,0.0
11,47.0,0.0,360.0,1.0,0.0
12,49.0,7.0,120.0,1.0,0.0
13,56.0,0.0,120.0,1.0,0.0
14,52.0,0.0,120.0,1.0,0.0
15,61.0,113.0,60.0,0.0,0.0
16,61.0,0.0,120.0,0.0,0.0
17,49.0,0.0,120.0,1.0,0.0
18,52.0,0.0,120.0,1.0,0.0
19,56.0,120.0,120.0,1.0,0.0
20,45.0,7.0,240.0,1.0,0.0
21,73.0,67.0,120.0,0.0,0.0
22,54.0,0.0,240.0,1.0,0.0
23,66.0,53.0,60.0,0.0,0.0
24,49.0,0.0,240.0,1.0,0.0
25,68.0,60.0,60.0,0.0,0.0
26,71.0,36.0,60.0,0.0,0.0
27,42.0,7.0,120.0,1.0,0.0
28,68.0,15.0,15.0,0.0,0.0
29,69.0,2.0,15.0,0.0,0.0
30,71.0,107.0,15.0,0.0,0.0
31,69.0,60.0,180.0,0.0,0.0
32,37.0,60.0,120.0,1.0,0.0
33,56.0,7.0,120.0,1.0,0.0
34,64.0,0.0,120.0,1.0,0.0
35,68.0,113.0,60.0,0.0,0.0
36,64.0,67.0,120.0,1.0,0.0
37,56.0,0.0,120.0,1.0,0.0
38,68.0,0.0,120.0,0.0,0.0
39,47.0,0.0,360.0,1.0,0.0
40,67.0,60.0,60.0,0.0,0.0
41,68.0,6.0,60.0,0.0,0.0
42,71.0,54.0,15.0,0.0,0.0
43,63.0,7.0,120.0,1.0,0.0
44,54.0,0.0,120.0,1.0,0.0
45,56.0,0.0,120.0,1.0,0.0
46,69.0,53.0,60.0,0.0,0.0
47,68.0,60.0,60.0,0.0,0.0
48,54.0,7.0,120.0,1.0,0.0
49,56.0,0.0,120.0,1.0,0.0
50,63.0,0.0,120.0,1.0,0.0
51,73.0,53.0,60.0,0.0,0.0
52,75.0,60.0,60.0,0.0,0.0
53,49.0,7.0,240.0,1.0,0.0
54,76.0,60.0,60.0,0.0,0.0
55,64.0,60.0,60.0,0.0,0.0
56,72.0,53.0,60.0,0.0,0.0
57,52.0,0.0,120.0,1.0,0.0
58,56.0,0.0,120.0,1.0,0.0
59,61.0,0.0,120.0,1.0,0.0
60,75.0,60.0,60.0,0.0,0.0
61,73.0,53.0,60.0,0.0,0.0
62,40.0,7.0,120.0,1.0,0.0
63,61.0,60.0,60.0,0.0,0.0
64,68.0,60.0,60.0,0.0,0.0
65,42.0,0.0,240.0,1.0,0.0
66,71.0,60.0,60.0,0.0,0.0
67,69.0,53.0,60.0,0.0,0.0
68,51.0,7.0,120.0,1.0,0.0
69,57.0,0.0,120.0,1.0,0.0
70,49.0,0.0,120.0,1.0,0.0
71,57.0,60.0,60.0,0.0,0.0
72,30.0,7.0,120.0,1.0,0.0
73,68.0,53.0,60.0,0.0,0.0
74,66.0,60.0,60.0,0.0,0.0
75,63.0,53.0,60.0,0.0,0.0
76,32.0,7.0,120.0,1.0,0.0
77,68.0,60.0,60.0,0.0,0.0
78,51.0,0.0,120.0,1.0,0.0
79,60.0,7.0,120.0,1.0,0.0
80,44.0,0.0,120.0,1.0,0.0
81,67.0,53.0,60.0,0.0,0.0
82,68.0,60.0,60.0,0.0,0.0
83,69.0,60.0,60.0,0.0,0.0
84,70.0,113.0,60.0,0.0,0.0
85,52.0,7.0,360.0,1.0,0.0
86,71.0,67.0,120.0,0.0,0.0
87,73.0,53.0,60.0,0.0,0.0
88,59.0,7.0,120.0,1.0,0.0
89,56.0,0.0,120.0,1.0,0.0
90,71.0,60.0,60.0,0.0,0.0
91,59.0,0.0,120.0,1.0,0.0
92,56.0,0.0,120.0,1.0,0.0
93,69.0,53.0,60.0,0.0,0.0
94,68.0,173.0,60.0,0.0,0.0
95,66.0,60.0,180.0,0.0,0.0
96,51.0,0.0,360.0,1.0,0.0
97,52.0,0.0,120.0,1.0,0.0
98,56.0,0.0,120.0,1.0,0.0
99,59.0,7.0,120.0,1.0,0.0
100,64.0,113.0,60.0,0.0,0.0
101,59.0,120.0,120.0,1.0,0.0
102,56.0,0.0,120.0,1.0,0.0
103,52.0,0.0,120.0,1.0,0.0
104,64.0,0.0,120.0,0.0,0.0
105,76.0,67.0,120.0,0.0,0.0
106,49.0,7.0,360.0,1.0,0.0
107,52.0,7.0,120.0,1.0,0.0
108,56.0,0.0,120.0,1.0,0.0
109,68.0,53.0,60.0,0.0,0.0
110,59.0,0.0,120.0,1.0,0.0
111,71.0,60.0,60.0,0.0,0.0
112,75.0,53.0,60.0,0.0,0.0
113,52.0,0.0,120.0,1.0,0.0
114,56.0,0.0,120.0,1.0,0.0
115,59.0,0.0,120.0,1.0,0.0
116,73.0,113.0,60.0,0.0,0.0
117,42.0,60.0,120.0,1.0,0.0
118,71.0,60.0,180.0,0.0,0.0
119,61.0,0.0,120.0,1.0,0.0
120,52.0,0.0,120.0,1.0,0.0
121,54.0,7.0,120.0,1.0,0.0
122,70.0,113.0,60.0,0.0,0.0
123,54.0,120.0,120.0,1.0,0.0
124,61.0,0.0,120.0,1.0,0.0
125,52.0,0.0,120.0,1.0,0.0
126,70.0,0.0,120.0,0.0,0.0
127,80.0,60.0,180.0,0.0,0.0
128,42.0,60.0,120.0,1.0,0.0
129,52.0,0.0,120.0,1.0,0.0
130,58.0,7.0,120.0,1.0,0.0
131,54.0,0.0,120.0,1.0,0.0
132,78.0,60.0,60.0,0.0,0.0
133,58.0,0.0,120.0,1.0,0.0
134,54.0,7.0,120.0,1.0,0.0
135,52.0,0.0,120.0,1.0,0.0
136,77.0,53.0,60.0,0.0,0.0
137,76.0,60.0,60.0,0.0,0.0
138,76.0,53.0,60.0,0.0,0.0
139,42.0,7.0,120.0,1.0,0.0
140,75.0,60.0,60.0,0.0,0.0
141,73.0,53.0,60.0,0.0,0.0
142,51.0,0.0,120.0,1.0,0.0
143,59.0,0.0,120.0,1.0,0.0
144,54.0,7.0,120.0,1.0,0.0
145,71.0,60.0,60.0,0.0,0.0
146,59.0,0.0,120.0,1.0,0.0
147,54.0,0.0,120.0,1.0,0.0
148,51.0,7.0,120.0,1.0,0.0
149,70.0,53.0,60.0,0.0,0.0
150,68.0,60.0,60.0,0.0,0.0
151,42.0,7.0,120.0,1.0,0.0
152,68.0,53.0,60.0,0.0,0.0
153,66.0,60.0,60.0,0.0,0.0
154,54.0,0.0,120.0,1.0,0.0
155,61.0,7.0,120.0,1.0,0.0
156,52.0,0.0,120.0,1.0,0.0
157,65.0,53.0,60.0,0.0,0.0
158,66.0,6.0,60.0,0.0,0.0
159,70.0,54.0,15.0,0.0,0.0
160,52.0,7.0,120.0,1.0,0.0
161,68.0,53.0,60.0,0.0,0.0
162,61.0,0.0,120.0,1.0,0.0
163,54.0,0.0,120.0,1.0,0.0
164,66.0,60.0,60.0,0.0,0.0
165,68.0,53.0,60.0,0.0,0.0
166,42.0,7.0,120.0,1.0,0.0
167,66.0,60.0,60.0,0.0,0.0
168,65.0,53.0,60.0,0.0,0.0
169,54.0,0.0,120.0,1.0,0.0
170,51.0,7.0,120.0,1.0,0.0
171,59.0,0.0,120.0,1.0,0.0
172,66.0,6.0,60.0,0.0,0.0
173,70.0,54.0,15.0,0.0,0.0
174,51.0,7.0,120.0,1.0,0.0
175,54.0,0.0,120.0,1.0,0.0
176,59.0,0.0,120.0,1.0,0.0
177,68.0,53.0,60.0,0.0,0.0
178,66.0,113.0,60.0,0.0,0.0
179,42.0,0.0,120.0,1.0,0.0
180,66.0,67.0,120.0,0.0,0.0
181,54.0,0.0,120.0,1.0,0.0
182,58.0,7.0,120.0,1.0,0.0
183,52.0,0.0,120.0,1.0,0.0
184,80.0,53.0,60.0,0.0,0.0
185,78.0,60.0,60.0,0.0,0.0
186,58.0,0.0,120.0,1.0,0.0
187,54.0,7.0,120.0,1.0,0.0
188,52.0,0.0,120.0,1.0,0.0
189,77.0,53.0,60.0,0.0,0.0
190,76.0,60.0,60.0,0.0,0.0
191,74.0,53.0,60.0,0.0,0.0
192,47.0,7.0,120.0,1.0,0.0
193,75.0,60.0,60.0,0.0,0.0
194,63.0,7.0,120.0,1.0,0.0
195,59.0,0.0,120.0,1.0,0.0
196,54.0,0.0,120.0,1.0,0.0
197,70.0,53.0,60.0,0.0,0.0
198,71.0,60.0,60.0,0.0,0.0
199,59.0,53.0,60.0,0.0,0.0
200,53.0,7.0,120.0,1.0,0.0
201,56.0,0.0,120.0,1.0,0.0
202,62.0,0.0,120.0,1.0,0.0
203,68.0,60.0,60.0,0.0,0.0
204,66.0,53.0,60.0,0.0,0.0
205,42.0,7.0,120.0,1.0,0.0
206,54.0,60.0,60.0,0.0,0.0
207,63.0,53.0,60.0,0.0,0.0
208,59.0,0.0,120.0,1.0,0.0
209,54.0,7.0,120.0,1.0,0.0
210,66.0,60.0,60.0,0.0,0.0
211,58.0,7.0,120.0,1.0,0.0
212,61.0,53.0,60.0,0.0,0.0
213,52.0,0.0,120.0,1.0,0.0
214,66.0,216.0,60.0,0.0,0.0
215,47.0,0.0,240.0,1.0,0.0
216,59.0,7.0,240.0,0.0,0.0
217,54.0,0.0,120.0,1.0,0.0
218,68.0,15.0,15.0,0.0,0.0
219,69.0,2.0,15.0,0.0,0.0
220,44.0,0.0,120.0,1.0,0.0
221,51.0,0.0,15.0,1.0,0.0
222,71.0,54.0,15.0,0.0,0.0
223,54.0,0.0,120.0,1.0,0.0
224,60.0,7.0,120.0,1.0,0.0
225,69.0,53.0,60.0,0.0,0.0
226,68.0,113.0,60.0,0.0,0.0
227,68.0,67.0,120.0,0.0,0.0
228,49.0,0.0,360.0,1.0,0.0
229,69.0,53.0,60.0,0.0,0.0
230,52.0,7.0,120.0,1.0,0.0
231,56.0,0.0,120.0,1.0,0.0
232,68.0,60.0,60.0,0.0,0.0
233,66.0,53.0,60.0,0.0,0.0
234,56.0,0.0,120.0,1.0,0.0
235,52.0,7.0,120.0,1.0,0.0
236,64.0,173.0,60.0,0.0,0.0
237,47.0,0.0,360.0,1.0,0.0
238,63.0,60.0,180.0,0.0,0.0
239,56.0,0.0,120.0,1.0,0.0
240,52.0,7.0,120.0,1.0,0.0
241,49.0,0.0,120.0,1.0,0.0
242,61.0,113.0,60.0,0.0,0.0
243,52.0,120.0,120.0,1.0,0.0
244,49.0,0.0,120.0,1.0,0.0
245,61.0,0.0,120.0,0.0,0.0
246,56.0,0.0,120.0,1.0,0.0
247,73.0,67.0,120.0,0.0,0.0
248,45.0,7.0,240.0,1.0,0.0
249,49.0,7.0,240.0,1.0,0.0
250,66.0,53.0,60.0,0.0,0.0
251,54.0,0.0,240.0,1.0,0.0
252,68.0,60.0,60.0,0.0,0.0
253,42.0,0.0,120.0,1.0,0.0
254,71.0,36.0,60.0,0.0,0.0
255,68.0,15.0,15.0,0.0,0.0
256,69.0,2.0,15.0,0.0,0.0
257,71.0,107.0,15.0,0.0,0.0
258,69.0,60.0,180.0,0.0,0.0
259,37.0,60.0,120.0,1.0,0.0
260,64.0,0.0,120.0,1.0,0.0
261,56.0,7.0,120.0,1.0,0.0
262,68.0,113.0,60.0,0.0,0.0
263,68.0,67.0,120.0,0.0,0.0
264,64.0,0.0,120.0,1.0,0.0
265,56.0,0.0,120.0,1.0,0.0
266,67.0,60.0,60.0,0.0,0.0
267,48.0,0.0,360.0,1.0,0.0
268,68.0,6.0,60.0,0.0,0.0
269,71.0,54.0,15.0,0.0,0.0
270,63.0,0.0,120.0,1.0,0.0
271,56.0,7.0,120.0,1.0,0.0
272,54.0,0.0,120.0,1.0,0.0
273,69.0,53.0,60.0,0.0,0.0
274,68.0,60.0,60.0,0.0,0.0
275,73.0,53.0,60.0,0.0,0.0
276,54.0,0.0,120.0,1.0,0.0
277,56.0,0.0,120.0,1.0,0.0
278,63.0,7.0,120.0,1.0,0.0
279,75.0,60.0,60.0,0.0,0.0
280,76.0,60.0,60.0,0.0,0.0
281,49.0,7.0,240.0,1.0,0.0
282,64.0,60.0,60.0,0.0,0.0
283,52.0,0.0,120.0,1.0,0.0
284,56.0,0.0,120.0,1.0,0.0
285,61.0,0.0,120.0,1.0,0.0
286,72.0,53.0,60.0,0.0,0.0
287,75.0,60.0,60.0,0.0,0.0
288,73.0,53.0,60.0,0.0,0.0
289,40.0,7.0,120.0,1.0,0.0
290,61.0,60.0,60.0,0.0,0.0
291,42.0,0.0,240.0,1.0,0.0
292,68.0,60.0,60.0,0.0,0.0
293,71.0,60.0,60.0,0.0,0.0
294,69.0,53.0,60.0,0.0,0.0
295,49.0,0.0,120.0,1.0,0.0
296,57.0,0.0,120.0,1.0,0.0
297,51.0,7.0,120.0,1.0,0.0
298,57.0,60.0,60.0,0.0,0.0
299,68.0,53.0,60.0,0.0,0.0
300,30.0,7.0,120.0,1.0,0.0
301,66.0,60.0,60.0,0.0,0.0
302,32.0,7.0,120.0,1.0,0.0
303,63.0,53.0,60.0,0.0,0.0
304,68.0,60.0,60.0,0.0,0.0
305,67.0,53.0,60.0,0.0,0.0
306,44.0,0.0,120.0,1.0,0.0
307,51.0,0.0,120.0,1.0,0.0
308,60.0,7.0,120.0,1.0,0.0
309,68.0,60.0,60.0,0.0,0.0
310,69.0,60.0,60.0,0.0,0.0
311,70.0,113.0,60.0,0.0,0.0
312,71.0,67.0,120.0,0.0,0.0
313,52.0,7.0,360.0,1.0,0.0
314,73.0,53.0,60.0,0.0,0.0
315,59.0,7.0,120.0,1.0,0.0
316,56.0,0.0,120.0,1.0,0.0
317,71.0,60.0,60.0,0.0,0.0
318,69.0,53.0,60.0,0.0,0.0
319,56.0,0.0,120.0,1.0,0.0
320,59.0,0.0,120.0,1.0,0.0
321,68.0,173.0,60.0,0.0,0.0
322,66.0,60.0,180.0,0.0,0.0
323,51.0,0.0,360.0,1.0,0.0
324,56.0,0.0,120.0,1.0,0.0
325,59.0,7.0,120.0,1.0,0.0
326,52.0,0.0,120.0,1.0,0.0
327,64.0,113.0,60.0,0.0,0.0
328,64.0,0.0,120.0,0.0,0.0
329,59.0,120.0,120.0,1.0,0.0
330,52.0,0.0,120.0,1.0,0.0
331,56.0,0.0,120.0,1.0,0.0
332,76.0,67.0,120.0,0.0,0.0
333,49.0,0.0,360.0,1.0,0.0
334,56.0,0.0,120.0,1.0,0.0
335,52.0,0.0,120.0,1.0,0.0
336,68.0,53.0,60.0,0.0,0.0
337,59.0,7.0,120.0,1.0,0.0
338,71.0,60.0,60.0,0.0,0.0
339,75.0,53.0,60.0,0.0,0.0
340,52.0,7.0,120.0,1.0,0.0
341,56.0,0.0,120.0,1.0,0.0
342,59.0,0.0,120.0,1.0,0.0
343,73.0,113.0,60.0,0.0,0.0
344,42.0,60.0,120.0,1.0,0.0
345,71.0,60.0,180.0,0.0,0.0
346,54.0,0.0,120.0,1.0,0.0
347,52.0,0.0,120.0,1.0,0.0
348,61.0,7.0,120.0,1.0,0.0
349,70.0,113.0,60.0,0.0,0.0
350,52.0,120.0,120.0,1.0,0.0
351,54.0,0.0,120.0,1.0,0.0
352,70.0,0.0,120.0,0.0,0.0
353,61.0,0.0,120.0,1.0,0.0
354,80.0,60.0,180.0,0.0,0.0
355,42.0,60.0,120.0,1.0,0.0
356,58.0,0.0,120.0,1.0,0.0
357,54.0,7.0,120.0,1.0,0.0
358,52.0,0.0,120.0,1.0,0.0
359,78.0,60.0,60.0,0.0,0.0
360,52.0,0.0,120.0,1.0,0.0
361,54.0,0.0,120.0,1.0,0.0
362,58.0,7.0,120.0,1.0,0.0
363,77.0,53.0,60.0,0.0,0.0
364,76.0,60.0,60.0,0.0,0.0
365,42.0,7.0,120.0,1.0,0.0
366,76.0,53.0,60.0,0.0,0.0
367,75.0,60.0,60.0,0.0,0.0
368,59.0,7.0,120.0,1.0,0.0
369,51.0,0.0,120.0,1.0,0.0
370,54.0,0.0,120.0,1.0,0.0
371,73.0,53.0,60.0,0.0,0.0
372,71.0,60.0,60.0,0.0,0.0
373,59.0,7.0,120.0,1.0,0.0
374,54.0,0.0,120.0,1.0,0.0
375,51.0,0.0,120.0,1.0,0.0
376,70.0,53.0,60.0,0.0,0.0
377,68.0,60.0,60.0,0.0,0.0
378,42.0,7.0,120.0,1.0,0.0
379,68.0,53.0,60.0,0.0,0.0
380,66.0,60.0,60.0,0.0,0.0
381,65.0,53.0,60.0,0.0,0.0
382,61.0,7.0,120.0,1.0,0.0
383,52.0,0.0,120.0,1.0,0.0
384,54.0,0.0,120.0,1.0,0.0
385,66.0,6.0,60.0,0.0,0.0
386,70.0,54.0,15.0,0.0,0.0
387,68.0,53.0,60.0,0.0,0.0
388,61.0,7.0,120.0,1.0,0.0
389,54.0,0.0,120.0,1.0,0.0
390,52.0,0.0,120.0,1.0,0.0
391,66.0,60.0,60.0,0.0,0.0
392,42.0,7.0,120.0,1.0,0.0
393,68.0,53.0,60.0,0.0,0.0
394,66.0,60.0,60.0,0.0,0.0
395,65.0,53.0,60.0,0.0,0.0
396,51.0,0.0,120.0,1.0,0.0
397,54.0,0.0,120.0,1.0,0.0
398,59.0,7.0,120.0,1.0,0.0
399,66.0,6.0,60.0,0.0,0.0
400,70.0,54.0,15.0,0.0,0.0
401,59.0,7.0,120.0,1.0,0.0
402,54.0,0.0,120.0,1.0,0.0
403,51.0,0.0,120.0,1.0,0.0
404,68.0,53.0,60.0,0.0,0.0
405,66.0,113.0,60.0,0.0,0.0
406,42.0,67.0,120.0,1.0,0.0
407,66.0,0.0,120.0,0.0,0.0
408,80.0,53.0,60.0,0.0,0.0
409,52.0,0.0,120.0,1.0,0.0
410,58.0,7.0,120.0,1.0,0.0
411,54.0,0.0,120.0,1.0,0.0
412,78.0,60.0,60.0,0.0,0.0
413,52.0,0.0,120.0,1.0,0.0
414,54.0,7.0,120.0,1.0,0.0
415,58.0,0.0,120.0,1.0,0.0
416,77.0,53.0,60.0,0.0,0.0
417,76.0,60.0,60.0,0.0,0.0
418,74.0,53.0,60.0,0.0,0.0
419,47.0,7.0,120.0,1.0,0.0
420,75.0,60.0,60.0,0.0,0.0
421,59.0,0.0,120.0,1.0,0.0
422,54.0,0.0,120.0,1.0,0.0
423,63.0,7.0,120.0,1.0,0.0
424,70.0,53.0,60.0,0.0,0.0
425,71.0,60.0,60.0,0.0,0.0
426,56.0,0.0,120.0,1.0,0.0
427,53.0,7.0,120.0,1.0,0.0
428,62.0,0.0,120.0,1.0,0.0
429,59.0,53.0,60.0,0.0,0.0
430,68.0,60.0,60.0,0.0,0.0
431,42.0,7.0,120.0,1.0,0.0
432,66.0,53.0,60.0,0.0,0.0
433,54.0,60.0,60.0,0.0,0.0
434,54.0,0.0,120.0,1.0,0.0
435,63.0,53.0,60.0,0.0,0.0
436,59.0,7.0,120.0,1.0,0.0
437,66.0,60.0,60.0,0.0,0.0
438,58.0,0.0,120.0,1.0,0.0
439,52.0,7.0,120.0,1.0,0.0
440,61.0,53.0,60.0,0.0,0.0
441,66.0,233.0,60.0,0.0,0.0
442,47.0,0.0,240.0,1.0,0.0
443,59.0,0.0,240.0,0.0,0.0
444,54.0,120.0,120.0,1.0,0.0
445,51.0,0.0,120.0,1.0,0.0
446,60.0,240.0,120.0,0.0,0.0
447,45.0,0.0,360.0,1.0,0.0
448,61.0,0.0,240.0,0.0,0.0
449,54.0,0.0,120.0,1.0,0.0
450,49.0,0.0,120.0,1.0,0.0
451,57.0,118.0,120.0,1.0,0.0
452,57.0,0.0,120.0,1.0,0.0
453,54.0,0.0,120.0,1.0,0.0
454,63.0,13.0,120.0,0.0,0.0
455,49.0,0.0,120.0,1.0,0.0
456,64.0,2.0,15.0,0.0,0.0
457,66.0,107.0,15.0,0.0,0.0
458,42.0,0.0,240.0,1.0,0.0
459,64.0,67.0,120.0,0.0,0.0
460,49.0,0.0,120.0,1.0,0.0
461,52.0,7.0,120.0,1.0,0.0
462,57.0,0.0,120.0,1.0,0.0
463,63.0,53.0,60.0,0.0,0.0
464,64.0,60.0,60.0,0.0,0.0
465,51.0,7.0,120.0,1.0,0.0
466,47.0,0.0,120.0,1.0,0.0
467,57.0,0.0,120.0,1.0,0.0
468,68.0,53.0,60.0,0.0,0.0
469,66.0,180.0,60.0,0.0,0.0
470,47.0,0.0,360.0,1.0,0.0
471,56.0,0.0,120.0,1.0,0.0
472,52.0,7.0,120.0,1.0,0.0
473,58.0,53.0,60.0,0.0,0.0
474,61.0,60.0,60.0,0.0,0.0
475,59.0,53.0,60.0,0.0,0.0
476,52.0,0.0,120.0,1.0,0.0
477,56.0,7.0,120.0,1.0,0.0
478,64.0,233.0,60.0,0.0,0.0
479,35.0,0.0,360.0,1.0,0.0
480,56.0,0.0,360.0,0.0,0.0
481,47.0,0.0,120.0,1.0,0.0
482,52.0,120.0,120.0,1.0,0.0
483,47.0,0.0,120.0,1.0,0.0
484,52.0,67.0,120.0,1.0,0.0
485,51.0,53.0,60.0,0.0,0.0
486,35.0,7.0,120.0,1.0,0.0
487,57.0,60.0,60.0,0.0,0.0
488,57.0,0.0,120.0,1.0,0.0
489,47.0,7.0,120.0,1.0,0.0
490,51.0,0.0,120.0,1.0,0.0
491,59.0,53.0,60.0,0.0,0.0
492,63.0,60.0,60.0,0.0,0.0
493,69.0,53.0,60.0,0.0,0.0
494,54.0,0.0,120.0,1.0,0.0
495,59.0,0.0,120.0,1.0,0.0
496,51.0,7.0,120.0,1.0,0.0
497,73.0,113.0,60.0,0.0,0.0
498,69.0,0.0,240.0,0.0,0.0
499,73.0,0.0,240.0,0.0,0.0
500,47.0,120.0,120.0,1.0,0.0
501,63.0,0.0,120.0,1.0,0.0
502,59.0,118.0,120.0,1.0,0.0
503,57.0,0.0,120.0,1.0,0.0
504,57.0,0.0,120.0,1.0,0.0
505,63.0,0.0,120.0,1.0,0.0
506,69.0,0.0,120.0,0.0,0.0
507,59.0,0.0,120.0,1.0,0.0
508,71.0,2.0,15.0,0.0,0.0
509,73.0,107.0,15.0,0.0,0.0
510,68.0,0.0,120.0,0.0,0.0
511,71.0,0.0,120.0,0.0,0.0
512,40.0,67.0,120.0,1.0,0.0
513,59.0,7.0,120.0,1.0,0.0
514,64.0,0.0,120.0,1.0,0.0
515,70.0,53.0,60.0,0.0,0.0
516,67.0,0.0,60.0,0.0,0.0
517,71.0,0.0,60.0,0.0,0.0
518,68.0,60.0,60.0,0.0,0.0
519,64.0,0.0,120.0,1.0,0.0
520,69.0,0.0,60.0,0.0,0.0
521,73.0,53.0,60.0,0.0,0.0
522,59.0,7.0,120.0,1.0,0.0
523,71.0,0.0,60.0,0.0,0.0
524,68.0,113.0,60.0,0.0,0.0
525,40.0,120.0,120.0,1.0,0.0
526,68.0,0.0,240.0,0.0,0.0
527,76.0,120.0,240.0,0.0,0.0
528,56.0,0.0,120.0,1.0,0.0
529,47.0,0.0,120.0,1.0,0.0
530,52.0,0.0,120.0,1.0,0.0
531,63.0,240.0,120.0,0.0,0.0
532,47.0,0.0,120.0,1.0,0.0
533,56.0,0.0,120.0,1.0,0.0
534,52.0,0.0,120.0,1.0,0.0
535,45.0,0.0,360.0,1.0,0.0
536,61.0,118.0,240.0,0.0,0.0
537,54.0,0.0,120.0,1.0,0.0
538,49.0,0.0,120.0,1.0,0.0
539,57.0,0.0,120.0,1.0,0.0
540,49.0,0.0,120.0,1.0,0.0
541,54.0,0.0,120.0,1.0,0.0
542,57.0,13.0,120.0,1.0,0.0
543,63.0,0.0,120.0,0.0,0.0
544,64.0,2.0,15.0,0.0,0.0
545,66.0,107.0,15.0,0.0,0.0
546,42.0,0.0,240.0,1.0,0.0
547,64.0,67.0,120.0,0.0,0.0
548,52.0,7.0,120.0,1.0,0.0
549,57.0,0.0,120.0,1.0,0.0
550,63.0,53.0,60.0,0.0,0.0
551,49.0,0.0,120.0,1.0,0.0
552,64.0,60.0,60.0,0.0,0.0
553,57.0,0.0,120.0,1.0,0.0
554,47.0,7.0,120.0,1.0,0.0
555,68.0,53.0,60.0,0.0,0.0
556,51.0,0.0,120.0,1.0,0.0
557,66.0,180.0,60.0,0.0,0.0
558,40.0,0.0,360.0,1.0,0.0
559,58.0,53.0,60.0,0.0,0.0
560,47.0,0.0,120.0,1.0,0.0
561,56.0,7.0,120.0,1.0,0.0
562,52.0,0.0,120.0,1.0,0.0
563,61.0,60.0,60.0,0.0,0.0
564,47.0,0.0,120.0,1.0,0.0
565,52.0,0.0,120.0,1.0,0.0
566,56.0,7.0,120.0,1.0,0.0
567,59.0,53.0,60.0,0.0,0.0
568,64.0,233.0,60.0,0.0,0.0
569,40.0,0.0,360.0,1.0,0.0
570,56.0,0.0,360.0,0.0,0.0
571,46.0,120.0,120.0,1.0,0.0
572,49.0,0.0,120.0,1.0,0.0
573,46.0,67.0,120.0,1.0,0.0
574,49.0,0.0,120.0,1.0,0.0
575,51.0,53.0,60.0,0.0,0.0
576,39.0,7.0,120.0,1.0,0.0
577,56.0,60.0,60.0,0.0,0.0
578,59.0,53.0,60.0,0.0,0.0
579,56.0,0.0,120.0,1.0,0.0
580,51.0,0.0,120.0,1.0,0.0
581,47.0,7.0,120.0,1.0,0.0
582,63.0,86.0,60.0,0.0,0.0
583,47.0,11.0,120.0,1.0,0.0
584,51.0,0.0,120.0,1.0,0.0
585,68.0,27.0,90.0,0.0,0.0
586,56.0,0.0,120.0,1.0,0.0
587,71.0,109.0,30.0,0.0,0.0
588,63.0,0.0,240.0,0.0,0.0
589,71.0,120.0,240.0,0.0,0.0
590,39.0,120.0,120.0,1.0,0.0
591,51.0,0.0,120.0,1.0,0.0
592,63.0,0.0,120.0,1.0,0.0
593,55.0,0.0,120.0,1.0,0.0
594,61.0,30.0,300.0,0.0,0.0
595,70.0,0.0,300.0,0.0,0.0
596,51.0,0.0,120.0,1.0,0.0
597,55.0,0.0,120.0,1.0,0.0
598,63.0,120.0,120.0,1.0,0.0
599,44.0,90.0,120.0,1.0,0.0
600,51.0,11.0,120.0,1.0,0.0
601,63.0,0.0,120.0,1.0,0.0
602,56.0,0.0,120.0,1.0,0.0
603,59.0,109.0,30.0,0.0,0.0
604,68.0,0.0,30.0,0.0,0.0
605,63.0,0.0,120.0,1.0,0.0
606,56.0,0.0,120.0,1.0,0.0
607,51.0,120.0,120.0,1.0,0.0
608,59.0,0.0,300.0,0.0,0.0
609,68.0,30.0,300.0,0.0,0.0
610,44.0,90.0,120.0,1.0,0.0
611,51.0,0.0,120.0,1.0,0.0
612,56.0,0.0,120.0,1.0,0.0
613,63.0,11.0,120.0,1.0,0.0
614,68.0,109.0,30.0,0.0,0.0
615,59.0,0.0,30.0,0.0,0.0
616,51.0,120.0,120.0,1.0,0.0
617,56.0,0.0,120.0,1.0,0.0
618,63.0,0.0,120.0,1.0,0.0
619,68.0,120.0,240.0,0.0,0.0
620,59.0,0.0,120.0,0.0,0.0
621,45.0,13.0,360.0,1.0,0.0
622,54.0,118.0,120.0,1.0,0.0
623,61.0,0.0,120.0,0.0,0.0
624,52.0,0.0,120.0,1.0,0.0
625,52.0,0.0,120.0,1.0,0.0
626,63.0,0.0,120.0,0.0,0.0
627,54.0,0.0,120.0,1.0,0.0
628,64.0,2.0,15.0,0.0,0.0
629,66.0,107.0,15.0,0.0,0.0
630,42.0,0.0,240.0,1.0,0.0
631,64.0,67.0,120.0,0.0,0.0
632,57.0,7.0,120.0,1.0,0.0
633,52.0,0.0,120.0,1.0,0.0
634,49.0,0.0,120.0,1.0,0.0
635,63.0,53.0,60.0,0.0,0.0
636,64.0,60.0,60.0,0.0,0.0
637,51.0,7.0,120.0,1.0,0.0
638,68.0,53.0,60.0,0.0,0.0
639,47.0,0.0,120.0,1.0,0.0
640,57.0,0.0,120.0,1.0,0.0
641,66.0,180.0,60.0,0.0,0.0
642,47.0,7.0,360.0,1.0,0.0
643,56.0,7.0,120.0,1.0,0.0
644,52.0,0.0,120.0,1.0,0.0
645,58.0,53.0,60.0,0.0,0.0
646,61.0,60.0,60.0,0.0,0.0
647,52.0,0.0,120.0,1.0,0.0
648,59.0,53.0,60.0,0.0,0.0
649,56.0,0.0,120.0,1.0,0.0
650,64.0,233.0,60.0,0.0,0.0
651,56.0,0.0,360.0,0.0,0.0
652,35.0,0.0,360.0,1.0,0.0
653,52.0,120.0,120.0,1.0,0.0
654,47.0,0.0,120.0,1.0,0.0
655,52.0,67.0,120.0,1.0,0.0
656,47.0,0.0,120.0,1.0,0.0
657,35.0,7.0,120.0,1.0,0.0
658,51.0,53.0,60.0,0.0,0.0
659,57.0,60.0,60.0,0.0,0.0
660,51.0,0.0,120.0,1.0,0.0
661,59.0,53.0,60.0,0.0,0.0
662,57.0,7.0,120.0,1.0,0.0
663,47.0,0.0,120.0,1.0,0.0
664,63.0,60.0,60.0,0.0,0.0
665,69.0,53.0,60.0,0.0,0.0
666,59.0,0.0,120.0,1.0,0.0
667,54.0,7.0,120.0,1.0,0.0
668,51.0,0.0,120.0,1.0,0.0
669,73.0,113.0,60.0,0.0,0.0
670,69.0,118.0,240.0,0.0,0.0
671,47.0,120.0,120.0,1.0,0.0
672,73.0,0.0,240.0,0.0,0.0
673,63.0,0.0,120.0,1.0,0.0
674,59.0,0.0,120.0,1.0,0.0
675,57.0,0.0,120.0,1.0,0.0
676,63.0,0.0,120.0,1.0,0.0
677,59.0,0.0,120.0,1.0,0.0
678,57.0,0.0,120.0,1.0,0.0
679,69.0,13.0,120.0,0.0,0.0
680,71.0,2.0,15.0,0.0,0.0
681,73.0,107.0,15.0,0.0,0.0
682,71.0,0.0,120.0,0.0,0.0
683,68.0,0.0,120.0,0.0,0.0
684,40.0,67.0,120.0,1.0,0.0
685,67.0,53.0,60.0,0.0,0.0
686,64.0,0.0,120.0,1.0,0.0
687,59.0,7.0,120.0,1.0,0.0
688,70.0,0.0,60.0,0.0,0.0
689,71.0,60.0,60.0,0.0,0.0
690,68.0,0.0,60.0,0.0,0.0
691,59.0,7.0,120.0,1.0,0.0
692,64.0,0.0,120.0,1.0,0.0
693,69.0,0.0,60.0,0.0,0.0
694,73.0,53.0,60.0,0.0,0.0
695,71.0,0.0,60.0,0.0,0.0
696,68.0,113.0,60.0,0.0,0.0
697,76.0,0.0,240.0,0.0,0.0
698,68.0,0.0,240.0,0.0,0.0
699,40.0,120.0,120.0,1.0,0.0
700,52.0,0.0,120.0,1.0,0.0
701,47.0,0.0,120.0,1.0,0.0
702,56.0,120.0,120.0,1.0,0.0
703,56.0,0.0,120.0,1.0,0.0
704,63.0,240.0,120.0,0.0,0.0
705,52.0,0.0,120.0,1.0,0.0
706,47.0,0.0,120.0,1.0,0.0
707,45.0,0.0,360.0,1.0,0.0
708,61.0,0.0,240.0,0.0,0.0
709,57.0,118.0,120.0,1.0,0.0
710,49.0,0.0,120.0,1.0,0.0
711,54.0,0.0,120.0,1.0,0.0
712,63.0,0.0,120.0,0.0,0.0
713,49.0,13.0,120.0,1.0,0.0
714,54.0,0.0,120.0,1.0,0.0
715,57.0,0.0,120.0,1.0,0.0
716,64.0,2.0,15.0,0.0,0.0
717,66.0,107.0,15.0,0.0,0.0
718,42.0,0.0,240.0,1.0,0.0
719,64.0,67.0,120.0,0.0,0.0
720,49.0,0.0,120.0,1.0,0.0
721,52.0,0.0,120.0,1.0,0.0
722,57.0,7.0,120.0,1.0,0.0
723,63.0,53.0,60.0,0.0,0.0
724,64.0,60.0,60.0,0.0,0.0
725,51.0,0.0,120.0,1.0,0.0
726,57.0,0.0,120.0,1.0,0.0
727,68.0,53.0,60.0,0.0,0.0
728,47.0,7.0,120.0,1.0,0.0
729,66.0,180.0,60.0,0.0,0.0
730,40.0,0.0,360.0,1.0,0.0
731,56.0,7.0,120.0,1.0,0.0
732,52.0,0.0,120.0,1.0,0.0
733,47.0,0.0,120.0,1.0,0.0
734,58.0,53.0,60.0,0.0,0.0
735,61.0,60.0,60.0,0.0,0.0
736,56.0,0.0,120.0,1.0,0.0
737,59.0,53.0,60.0,0.0,0.0
738,47.0,0.0,120.0,1.0,0.0
739,52.0,7.0,120.0,1.0,0.0
740,64.0,233.0,60.0,0.0,0.0
741,35.0,0.0,360.0,1.0,0.0
742,56.0,0.0,360.0,0.0,0.0
743,52.0,120.0,120.0,1.0,0.0
744,47.0,0.0,120.0,1.0,0.0
745,52.0,187.0,120.0,1.0,0.0
746,47.0,0.0,120.0,1.0,0.0
747,47.0,7.0,360.0,1.0,0.0
748,54.0,7.0,120.0,1.0,0.0
749,52.0,0.0,120.0,1.0,0.0
750,58.0,53.0,60.0,0.0,0.0
751,59.0,60.0,60.0,0.0,0.0
752,61.0,53.0,60.0,0.0,0.0
753,52.0,0.0,120.0,1.0,0.0
754,54.0,0.0,120.0,1.0,0.0
755,63.0,21.0,60.0,0.0,0.0
756,47.0,0.0,360.0,1.0,0.0
757,61.0,15.0,15.0,0.0,0.0
758,63.0,15.0,15.0,0.0,0.0
759,61.0,15.0,15.0,0.0,0.0
760,63.0,15.0,15.0,0.0,0.0
761,61.0,15.0,15.0,0.0,0.0
762,63.0,15.0,15.0,0.0,0.0
763,61.0,15.0,15.0,0.0,0.0
764,63.0,54.0,15.0,0.0,0.0
765,58.0,0.0,120.0,1.0,0.0
766,54.0,7.0,120.0,1.0,0.0
767,52.0,0.0,120.0,1.0,0.0
768,60.0,53.0,60.0,0.0,0.0
769,61.0,60.0,60.0,0.0,0.0
770,52.0,0.0,120.0,1.0,0.0
771,54.0,0.0,120.0,1.0,0.0
772,58.0,7.0,120.0,1.0,0.0
773,63.0,53.0,60.0,0.0,0.0
774,64.0,21.0,60.0,0.0,0.0
775,64.0,15.0,15.0,0.0,0.0
776,47.0,7.0,360.0,1.0,0.0
777,66.0,15.0,15.0,0.0,0.0
778,64.0,15.0,15.0,0.0,0.0
779,66.0,15.0,15.0,0.0,0.0
780,64.0,15.0,15.0,0.0,0.0
781,66.0,15.0,15.0,0.0,0.0
782,64.0,15.0,15.0,0.0,0.0
783,66.0,54.0,15.0,0.0,0.0
784,63.0,53.0,60.0,0.0,0.0
785,59.0,0.0,120.0,1.0,0.0
786,57.0,7.0,120.0,1.0,0.0
787,64.0,60.0,60.0,0.0,0.0
788,59.0,0.0,120.0,1.0,0.0
789,57.0,0.0,120.0,1.0,0.0
790,66.0,53.0,60.0,0.0,0.0
791,68.0,233.0,60.0,0.0,0.0
792,40.0,0.0,240.0,1.0,0.0
793,64.0,0.0,240.0,0.0,0.0
794,52.0,120.0,120.0,1.0,0.0
795,47.0,0.0,120.0,1.0,0.0
796,56.0,0.0,120.0,1.0,0.0
797,68.0,0.0,240.0,0.0,0.0
798,48.0,120.0,120.0,1.0,0.0
799,52.0,0.0,240.0,1.0,0.0
800,56.0,67.0,240.0,1.0,0.0
801,49.0,7.0,360.0,1.0,0.0
802,52.0,7.0,120.0,1.0,0.0
803,69.0,53.0,60.0,0.0,0.0
804,56.0,0.0,120.0,1.0,0.0
805,68.0,60.0,60.0,0.0,0.0
806,66.0,53.0,60.0,0.0,0.0
807,56.0,0.0,120.0,1.0,0.0
808,52.0,0.0,120.0,1.0,0.0
809,64.0,173.0,60.0,0.0,0.0
810,47.0,0.0,360.0,1.0,0.0
811,63.0,60.0,180.0,0.0,0.0
812,52.0,0.0,120.0,1.0,0.0
813,56.0,0.0,120.0,1.0,0.0
814,49.0,7.0,120.0,1.0,0.0
815,61.0,113.0,60.0,0.0,0.0
816,49.0,0.0,120.0,1.0,0.0
817,52.0,0.0,120.0,1.0,0.0
818,56.0,120.0,120.0,1.0,0.0
819,61.0,0.0,120.0,0.0,0.0
820,45.0,7.0,240.0,1.0,0.0
821,73.0,67.0,120.0,0.0,0.0
822,66.0,53.0,60.0,0.0,0.0
823,54.0,7.0,240.0,1.0,0.0
824,49.0,0.0,240.0,1.0,0.0
825,68.0,60.0,60.0,0.0,0.0
826,42.0,0.0,120.0,1.0,0.0
827,71.0,36.0,60.0,0.0,0.0
828,68.0,15.0,15.0,0.0,0.0
829,69.0,2.0,15.0,0.0,0.0
830,71.0,107.0,15.0,0.0,0.0
831,37.0,60.0,120.0,1.0,0.0
832,69.0,60.0,180.0,0.0,0.0
833,64.0,7.0,120.0,1.0,0.0
834,56.0,0.0,120.0,1.0,0.0
835,68.0,113.0,60.0,0.0,0.0
836,68.0,0.0,120.0,0.0,0.0
837,64.0,67.0,120.0,1.0,0.0
838,56.0,0.0,120.0,1.0,0.0
839,48.0,7.0,360.0,1.0,0.0
840,67.0,60.0,60.0,0.0,0.0
841,68.0,6.0,60.0,0.0,0.0
842,71.0,54.0,15.0,0.0,0.0
843,54.0,0.0,120.0,1.0,0.0
844,56.0,7.0,120.0,1.0,0.0
845,63.0,0.0,120.0,1.0,0.0
846,69.0,53.0,60.0,0.0,0.0
847,68.0,60.0,60.0,0.0,0.0
848,54.0,0.0,120.0,1.0,0.0
849,73.0,53.0,60.0,0.0,0.0
850,63.0,0.0,120.0,1.0,0.0
851,56.0,0.0,120.0,1.0,0.0
852,75.0,60.0,60.0,0.0,0.0
853,49.0,0.0,240.0,1.0,0.0
854,76.0,60.0,60.0,0.0,0.0
855,64.0,60.0,60.0,0.0,0.0
856,61.0,0.0,120.0,1.0,0.0
857,56.0,7.0,120.0,1.0,0.0
858,72.0,53.0,60.0,0.0,0.0
859,52.0,0.0,120.0,1.0,0.0
860,75.0,60.0,60.0,0.0,0.0
861,73.0,53.0,60.0,0.0,0.0
862,40.0,7.0,120.0,1.0,0.0
863,61.0,60.0,60.0,0.0,0.0
864,42.0,0.0,240.0,1.0,0.0
865,68.0,60.0,60.0,0.0,0.0
866,71.0,60.0,60.0,0.0,0.0
867,49.0,7.0,120.0,1.0,0.0
868,57.0,0.0,120.0,1.0,0.0
869,51.0,0.0,120.0,1.0,0.0
870,69.0,53.0,60.0,0.0,0.0
871,57.0,60.0,60.0,0.0,0.0
872,68.0,53.0,60.0,0.0,0.0
873,30.0,7.0,120.0,1.0,0.0
874,66.0,60.0,60.0,0.0,0.0
875,63.0,53.0,60.0,0.0,0.0
876,32.0,7.0,120.0,1.0,0.0
877,68.0,60.0,60.0,0.0,0.0
878,44.0,0.0,120.0,1.0,0.0
879,60.0,7.0,120.0,1.0,0.0
880,51.0,0.0,120.0,1.0,0.0
881,67.0,53.0,60.0,0.0,0.0
882,68.0,60.0,60.0,0.0,0.0
883,69.0,60.0,60.0,0.0,0.0
884,70.0,113.0,60.0,0.0,0.0
885,52.0,7.0,360.0,1.0,0.0
886,71.0,67.0,120.0,0.0,0.0
887,73.0,53.0,60.0,0.0,0.0
888,56.0,0.0,120.0,1.0,0.0
889,59.0,7.0,120.0,1.0,0.0
890,71.0,60.0,60.0,0.0,0.0
891,59.0,0.0,120.0,1.0,0.0
892,69.0,53.0,60.0,0.0,0.0
893,56.0,0.0,120.0,1.0,0.0
894,68.0,173.0,60.0,0.0,0.0
895,66.0,60.0,180.0,0.0,0.0
896,51.0,0.0,360.0,1.0,0.0
897,59.0,7.0,120.0,1.0,0.0
898,56.0,0.0,120.0,1.0,0.0
899,52.0,0.0,120.0,1.0,0.0
900,64.0,113.0,60.0,0.0,0.0
901,64.0,0.0,120.0,0.0,0.0
902,56.0,0.0,120.0,1.0,0.0
903,59.0,0.0,120.0,1.0,0.0
904,52.0,120.0,120.0,1.0,0.0
905,49.0,0.0,360.0,1.0,0.0
906,76.0,67.0,120.0,0.0,0.0
907,68.0,53.0,60.0,0.0,0.0
908,56.0,0.0,120.0,1.0,0.0
909,59.0,0.0,120.0,1.0,0.0
910,52.0,7.0,120.0,1.0,0.0
911,71.0,60.0,60.0,0.0,0.0
912,52.0,0.0,120.0,1.0,0.0
913,56.0,0.0,120.0,1.0,0.0
914,59.0,7.0,120.0,1.0,0.0
915,75.0,53.0,60.0,0.0,0.0
916,73.0,113.0,60.0,0.0,0.0
917,42.0,60.0,120.0,1.0,0.0
918,71.0,60.0,180.0,0.0,0.0
919,52.0,0.0,120.0,1.0,0.0
920,61.0,7.0,120.0,1.0,0.0
921,54.0,0.0,120.0,1.0,0.0
922,70.0,113.0,60.0,0.0,0.0
923,70.0,120.0,120.0,0.0,0.0
924,54.0,0.0,120.0,1.0,0.0
925,61.0,0.0,120.0,1.0,0.0
926,52.0,0.0,120.0,1.0,0.0
927,42.0,60.0,120.0,1.0,0.0
928,80.0,60.0,180.0,0.0,0.0
929,52.0,7.0,120.0,1.0,0.0
930,54.0,0.0,120.0,1.0,0.0
931,58.0,0.0,120.0,1.0,0.0
932,78.0,60.0,60.0,0.0,0.0
933,52.0,0.0,120.0,1.0,0.0
934,58.0,0.0,120.0,1.0,0.0
935,77.0,53.0,60.0,0.0,0.0
936,54.0,7.0,120.0,1.0,0.0
937,76.0,60.0,60.0,0.0,0.0
938,42.0,7.0,120.0,1.0,0.0
939,76.0,53.0,60.0,0.0,0.0
940,75.0,60.0,60.0,0.0,0.0
941,73.0,53.0,60.0,0.0,0.0
942,51.0,7.0,120.0,1.0,0.0
943,59.0,0.0,120.0,1.0,0.0
944,54.0,0.0,120.0,1.0,0.0
945,71.0,60.0,60.0,0.0,0.0
946,70.0,53.0,60.0,0.0,0.0
947,51.0,7.0,120.0,1.0,0.0
948,54.0,0.0,120.0,1.0,0.0
949,59.0,0.0,120.0,1.0,0.0
950,68.0,60.0,60.0,0.0,0.0
951,42.0,7.0,120.0,1.0,0.0
952,68.0,53.0,60.0,0.0,0.0
953,66.0,60.0,60.0,0.0,0.0
954,54.0,0.0,120.0,1.0,0.0
955,61.0,0.0,120.0,1.0,0.0
956,65.0,53.0,60.0,0.0,0.0
957,52.0,7.0,120.0,1.0,0.0
958,66.0,6.0,60.0,0.0,0.0
959,70.0,54.0,15.0,0.0,0.0
960,68.0,53.0,60.0,0.0,0.0
961,52.0,0.0,120.0,1.0,0.0
962,54.0,0.0,120.0,1.0,0.0
963,61.0,7.0,120.0,1.0,0.0
964,66.0,60.0,60.0,0.0,0.0
965,68.0,53.0,60.0,0.0,0.0
966,42.0,7.0,120.0,1.0,0.0
967,66.0,60.0,60.0,0.0,0.0
968,65.0,53.0,60.0,0.0,0.0
969,59.0,0.0,120.0,1.0,0.0
970,54.0,0.0,120.0,1.0,0.0
971,51.0,7.0,120.0,1.0,0.0
972,66.0,6.0,60.0,0.0,0.0
973,70.0,54.0,15.0,0.0,0.0
974,51.0,0.0,120.0,1.0,0.0
975,68.0,53.0,60.0,0.0,0.0
976,54.0,0.0,120.0,1.0,0.0
977,59.0,7.0,120.0,1.0,0.0
978,66.0,113.0,60.0,0.0,0.0
979,66.0,0.0,120.0,0.0,0.0
980,42.0,67.0,120.0,1.0,0.0
981,52.0,0.0,120.0,1.0,0.0
982,80.0,53.0,60.0,0.0,0.0
983,58.0,7.0,120.0,1.0,0.0
984,54.0,0.0,120.0,1.0,0.0
985,78.0,60.0,60.0,0.0,0.0
986,52.0,0.0,120.0,1.0,0.0
987,58.0,7.0,120.0,1.0,0.0
988,77.0,53.0,60.0,0.0,0.0
989,54.0,0.0,120.0,1.0,0.0
990,76.0,60.0,60.0,0.0,0.0
991,47.0,7.0,120.0,1.0,0.0
992,74.0,53.0,60.0,0.0,0.0
993,75.0,60.0,60.0,0.0,0.0
994,59.0,0.0,120.0,1.0,0.0
995,63.0,7.0,120.0,1.0,0.0
996,54.0,0.0,120.0,1.0,0.0
997,70.0,53.0,60.0,0.0,0.0
998,71.0,60.0,60.0,0.0,0.0
999,53.0,0.0,120.0,1.0,0.0
1000,56.0,7.0,120.0,1.0,0.0
1001,59.0,0.0,120.0,1.0,0.0
1002,59.0,53.0,60.0,0.0,0.0
1003,68.0,60.0,60.0,0.0,0.0
1004,42.0,7.0,120.0,1.0,0.0
1005,66.0,53.0,60.0,0.0,0.0
1006,54.0,60.0,60.0,0.0,0.0
1007,63.0,53.0,60.0,0.0,0.0
1008,54.0,0.0,120.0,1.0,0.0
1009,59.0,7.0,120.0,1.0,0.0
1010,66.0,60.0,60.0,0.0,0.0
1011,52.0,7.0,120.0,1.0,0.0
1012,61.0,53.0,60.0,0.0,0.0
1013,58.0,0.0,120.0,1.0,0.0
1014,66.0,233.0,60.0,0.0,0.0
1015,47.0,0.0,240.0,1.0,0.0
1016,59.0,0.0,240.0,0.0,0.0
1017,54.0,120.0,120.0,1.0,0.0
1018,51.0,0.0,120.0,1.0,0.0
1019,60.0,240.0,120.0,0.0,0.0
1020,61.0,118.0,240.0,0.0,0.0
1021,45.0,0.0,360.0,1.0,0.0
1022,57.0,0.0,120.0,1.0,0.0
1023,54.0,0.0,120.0,1.0,0.0
1024,49.0,0.0,120.0,1.0,0.0
1025,57.0,13.0,120.0,1.0,0.0
1026,63.0,0.0,120.0,0.0,0.0
1027,49.0,0.0,120.0,1.0,0.0
1028,54.0,0.0,120.0,1.0,0.0
1029,64.0,2.0,15.0,0.0,0.0
1030,66.0,107.0,15.0,0.0,0.0
1031,64.0,67.0,120.0,0.0,0.0
1032,42.0,0.0,240.0,1.0,0.0
1033,57.0,0.0,120.0,1.0,0.0
1034,49.0,7.0,120.0,1.0,0.0
1035,52.0,0.0,120.0,1.0,0.0
1036,63.0,53.0,60.0,0.0,0.0
1037,64.0,60.0,60.0,0.0,0.0
1038,57.0,0.0,120.0,1.0,0.0
1039,51.0,7.0,120.0,1.0,0.0
1040,47.0,0.0,120.0,1.0,0.0
1041,68.0,53.0,60.0,0.0,0.0
1042,66.0,180.0,60.0,0.0,0.0
1043,47.0,7.0,360.0,1.0,0.0
1044,56.0,0.0,120.0,1.0,0.0
1045,52.0,7.0,120.0,1.0,0.0
1046,58.0,53.0,60.0,0.0,0.0
1047,61.0,60.0,60.0,0.0,0.0
1048,59.0,53.0,60.0,0.0,0.0
1049,56.0,0.0,120.0,1.0,0.0
1050,52.0,0.0,120.0,1.0,0.0
1051,64.0,233.0,60.0,0.0,0.0
1052,35.0,0.0,360.0,1.0,0.0
1053,56.0,0.0,360.0,0.0,0.0
1054,47.0,0.0,120.0,1.0,0.0
1055,52.0,120.0,120.0,1.0,0.0
1056,52.0,67.0,120.0,1.0,0.0
1057,47.0,0.0,120.0,1.0,0.0
1058,35.0,7.0,120.0,1.0,0.0
1059,51.0,53.0,60.0,0.0,0.0
1060,57.0,60.0,60.0,0.0,0.0
1061,59.0,53.0,60.0,0.0,0.0
1062,51.0,7.0,120.0,1.0,0.0
1063,47.0,0.0,120.0,1.0,0.0
1064,57.0,0.0,120.0,1.0,0.0
1065,63.0,60.0,60.0,0.0,0.0
1066,69.0,53.0,60.0,0.0,0.0
1067,51.0,0.0,120.0,1.0,0.0
1068,59.0,0.0,120.0,1.0,0.0
1069,54.0,7.0,120.0,1.0,0.0
1070,73.0,113.0,60.0,0.0,0.0
1071,69.0,0.0,240.0,0.0,0.0
1072,47.0,120.0,120.0,1.0,0.0
1073,73.0,0.0,240.0,0.0,0.0
1074,57.0,118.0,120.0,1.0,0.0
1075,59.0,0.0,120.0,1.0,0.0
1076,63.0,0.0,120.0,1.0,0.0
1077,63.0,0.0,120.0,1.0,0.0
1078,59.0,0.0,120.0,1.0,0.0
1079,57.0,0.0,120.0,1.0,0.0
1080,69.0,13.0,120.0,0.0,0.0
1081,71.0,2.0,15.0,0.0,0.0
1082,73.0,107.0,15.0,0.0,0.0
1083,40.0,0.0,120.0,1.0,0.0
1084,68.0,67.0,120.0,0.0,0.0
1085,71.0,0.0,120.0,0.0,0.0
1086,67.0,53.0,60.0,0.0,0.0
1087,64.0,7.0,120.0,1.0,0.0
1088,59.0,0.0,120.0,1.0,0.0
1089,70.0,0.0,60.0,0.0,0.0
1090,71.0,60.0,60.0,0.0,0.0
1091,68.0,0.0,60.0,0.0,0.0
1092,59.0,0.0,120.0,1.0,0.0
1093,64.0,7.0,120.0,1.0,0.0
1094,73.0,0.0,60.0,0.0,0.0
1095,69.0,53.0,60.0,0.0,0.0
1096,71.0,0.0,60.0,0.0,0.0
1097,68.0,113.0,60.0,0.0,0.0
1098,76.0,0.0,240.0,0.0,0.0
1099,40.0,120.0,120.0,1.0,0.0
1100,68.0,0.0,240.0,0.0,0.0
1101,56.0,0.0,120.0,1.0,0.0
1102,52.0,0.0,120.0,1.0,0.0
1103,47.0,120.0,120.0,1.0,0.0
1104,47.0,240.0,120.0,1.0,0.0
1105,63.0,0.0,120.0,0.0,0.0
1106,56.0,0.0,120.0,1.0,0.0
1107,52.0,0.0,120.0,1.0,0.0
1108,61.0,0.0,240.0,0.0,0.0
1109,45.0,13.0,360.0,1.0,0.0
1110,49.0,0.0,120.0,1.0,0.0
1111,57.0,0.0,120.0,1.0,0.0
1112,54.0,118.0,120.0,1.0,0.0
1113,54.0,0.0,120.0,1.0,0.0
1114,57.0,0.0,120.0,1.0,0.0
1115,63.0,0.0,120.0,0.0,0.0
1116,49.0,0.0,120.0,1.0,0.0
1117,64.0,2.0,15.0,0.0,0.0
1118,66.0,107.0,15.0,0.0,0.0
1119,42.0,0.0,240.0,1.0,0.0
1120,64.0,67.0,120.0,0.0,0.0
1121,57.0,0.0,120.0,1.0,0.0
1122,52.0,0.0,120.0,1.0,0.0
1123,49.0,7.0,120.0,1.0,0.0
1124,63.0,53.0,60.0,0.0,0.0
1125,64.0,60.0,60.0,0.0,0.0
1126,68.0,53.0,60.0,0.0,0.0
1127,47.0,0.0,120.0,1.0,0.0
1128,57.0,0.0,120.0,1.0,0.0
1129,51.0,7.0,120.0,1.0,0.0
1130,66.0,180.0,60.0,0.0,0.0
1131,40.0,0.0,360.0,1.0,0.0
1132,58.0,53.0,60.0,0.0,0.0
1133,52.0,0.0,120.0,1.0,0.0
1134,56.0,7.0,120.0,1.0,0.0
1135,47.0,0.0,120.0,1.0,0.0
1136,61.0,60.0,60.0,0.0,0.0
1137,47.0,0.0,120.0,1.0,0.0
1138,52.0,0.0,120.0,1.0,0.0
1139,56.0,7.0,120.0,1.0,0.0
1140,59.0,53.0,60.0,0.0,0.0
1141,64.0,233.0,60.0,0.0,0.0
1142,56.0,67.0,360.0,0.0,0.0
1143,40.0,0.0,360.0,1.0,0.0
1144,46.0,0.0,120.0,1.0,0.0
1145,49.0,120.0,120.0,1.0,0.0
1146,49.0,0.0,120.0,1.0,0.0
1147,46.0,0.0,120.0,1.0,0.0
1148,39.0,7.0,120.0,1.0,0.0
1149,51.0,53.0,60.0,0.0,0.0
1150,56.0,60.0,60.0,0.0,0.0
1151,47.0,7.0,120.0,1.0,0.0
1152,56.0,0.0,120.0,1.0,0.0
1153,51.0,0.0,120.0,1.0,0.0
1154,59.0,53.0,60.0,0.0,0.0
1155,63.0,86.0,60.0,0.0,0.0
1156,56.0,0.0,120.0,1.0,0.0
1157,51.0,0.0,120.0,1.0,0.0
1158,47.0,11.0,120.0,1.0,0.0
1159,68.0,27.0,90.0,0.0,0.0
1160,71.0,109.0,30.0,0.0,0.0
1161,63.0,0.0,240.0,0.0,0.0
1162,71.0,0.0,240.0,0.0,0.0
1163,39.0,120.0,120.0,1.0,0.0
1164,63.0,0.0,120.0,1.0,0.0
1165,51.0,120.0,120.0,1.0,0.0
1166,55.0,0.0,120.0,1.0,0.0
1167,70.0,30.0,300.0,0.0,0.0
1168,63.0,0.0,120.0,1.0,0.0
1169,61.0,0.0,300.0,0.0,0.0
1170,51.0,120.0,120.0,1.0,0.0
1171,55.0,0.0,120.0,1.0,0.0
1172,44.0,90.0,120.0,1.0,0.0
1173,56.0,0.0,120.0,1.0,0.0
1174,51.0,0.0,120.0,1.0,0.0
1175,63.0,11.0,120.0,1.0,0.0
1176,68.0,109.0,30.0,0.0,0.0
1177,59.0,0.0,30.0,0.0,0.0
1178,68.0,30.0,300.0,0.0,0.0
1179,59.0,0.0,300.0,0.0,0.0
1180,51.0,0.0,120.0,1.0,0.0
1181,56.0,120.0,120.0,1.0,0.0
1182,63.0,0.0,120.0,1.0,0.0
1183,44.0,90.0,120.0,1.0,0.0
1184,56.0,0.0,120.0,1.0,0.0
1185,63.0,0.0,120.0,1.0,0.0
1186,51.0,11.0,120.0,1.0,0.0
1187,59.0,109.0,30.0,0.0,0.0
1188,68.0,0.0,30.0,0.0,0.0
1189,68.0,120.0,240.0,0.0,0.0
1190,56.0,0.0,120.0,1.0,0.0
1191,51.0,0.0,120.0,1.0,0.0
1192,59.0,120.0,120.0,0.0,0.0
1193,63.0,0.0,120.0,1.0,0.0
1194,45.0,0.0,360.0,1.0,0.0
1195,61.0,0.0,120.0,0.0,0.0
1196,54.0,0.0,120.0,1.0,0.0
1197,52.0,118.0,120.0,1.0,0.0
1198,52.0,0.0,120.0,1.0,0.0
1199,54.0,0.0,120.0,1.0,0.0
1200,63.0,13.0,120.0,0.0,0.0
1201,64.0,2.0,15.0,0.0,0.0
1202,66.0,107.0,15.0,0.0,0.0
1203,42.0,0.0,240.0,1.0,0.0
1204,64.0,67.0,120.0,0.0,0.0
1205,63.0,53.0,60.0,0.0,0.0
1206,52.0,7.0,120.0,1.0,0.0
1207,57.0,0.0,120.0,1.0,0.0
1208,49.0,0.0,120.0,1.0,0.0
1209,64.0,60.0,60.0,0.0,0.0
1210,68.0,53.0,60.0,0.0,0.0
1211,51.0,7.0,120.0,1.0,0.0
1212,57.0,0.0,120.0,1.0,0.0
1213,47.0,0.0,120.0,1.0,0.0
1214,66.0,180.0,60.0,0.0,0.0
1215,47.0,7.0,360.0,1.0,0.0
1216,56.0,0.0,120.0,1.0,0.0
1217,52.0,7.0,120.0,1.0,0.0
1218,58.0,53.0,60.0,0.0,0.0
1219,61.0,60.0,60.0,0.0,0.0
1220,52.0,0.0,120.0,1.0,0.0
1221,59.0,53.0,60.0,0.0,0.0
1222,56.0,0.0,120.0,1.0,0.0
1223,64.0,233.0,60.0,0.0,0.0
1224,56.0,0.0,360.0,0.0,0.0
1225,35.0,67.0,360.0,1.0,0.0
1226,47.0,120.0,120.0,1.0,0.0
1227,52.0,0.0,120.0,1.0,0.0
1228,47.0,0.0,120.0,1.0,0.0
1229,52.0,0.0,120.0,1.0,0.0
1230,35.0,7.0,120.0,1.0,0.0
1231,51.0,53.0,60.0,0.0,0.0
1232,57.0,60.0,60.0,0.0,0.0
1233,51.0,0.0,120.0,1.0,0.0
1234,59.0,53.0,60.0,0.0,0.0
1235,47.0,7.0,120.0,1.0,0.0
1236,57.0,0.0,120.0,1.0,0.0
1237,63.0,60.0,60.0,0.0,0.0
1238,54.0,7.0,120.0,1.0,0.0
1239,69.0,53.0,60.0,0.0,0.0
1240,59.0,0.0,120.0,1.0,0.0
1241,51.0,0.0,120.0,1.0,0.0
1242,73.0,6.0,60.0,0.0,0.0
1243,69.0,107.0,15.0,0.0,0.0
1244,69.0,0.0,240.0,0.0,0.0
1245,73.0,118.0,240.0,0.0,0.0
1246,47.0,120.0,120.0,1.0,0.0
1247,59.0,0.0,120.0,1.0,0.0
1248,63.0,0.0,120.0,1.0,0.0
1249,57.0,0.0,120.0,1.0,0.0
1250,69.0,0.0,120.0,0.0,0.0
1251,63.0,0.0,120.0,1.0,0.0
1252,57.0,13.0,120.0,1.0,0.0
1253,59.0,0.0,120.0,1.0,0.0
1254,71.0,2.0,15.0,0.0,0.0
1255,73.0,107.0,15.0,0.0,0.0
1256,40.0,0.0,120.0,1.0,0.0
1257,68.0,0.0,120.0,0.0,0.0
1258,71.0,67.0,120.0,0.0,0.0
1259,59.0,0.0,120.0,1.0,0.0
1260,67.0,0.0,60.0,0.0,0.0
1261,70.0,53.0,60.0,0.0,0.0
1262,64.0,7.0,120.0,1.0,0.0
1263,68.0,60.0,60.0,0.0,0.0
1264,71.0,0.0,60.0,0.0,0.0
1265,69.0,53.0,60.0,0.0,0.0
1266,73.0,0.0,60.0,0.0,0.0
1267,59.0,7.0,120.0,1.0,0.0
1268,64.0,0.0,120.0,1.0,0.0
1269,68.0,113.0,60.0,0.0,0.0
1270,71.0,0.0,60.0,0.0,0.0
1271,68.0,0.0,240.0,0.0,0.0
1272,76.0,120.0,240.0,0.0,0.0
1273,40.0,120.0,120.0,1.0,0.0
1274,47.0,0.0,120.0,1.0,0.0
1275,56.0,0.0,120.0,1.0,0.0
1276,52.0,0.0,120.0,1.0,0.0
1277,52.0,0.0,120.0,1.0,0.0
1278,56.0,0.0,120.0,1.0,0.0
1279,63.0,240.0,120.0,0.0,0.0
1280,47.0,0.0,120.0,1.0,0.0
1281,61.0,0.0,240.0,0.0,0.0
1282,45.0,0.0,360.0,1.0,0.0
1283,54.0,0.0,120.0,1.0,0.0
1284,49.0,118.0,120.0,1.0,0.0
1285,57.0,0.0,120.0,1.0,0.0
1286,63.0,0.0,120.0,0.0,0.0
1287,49.0,0.0,120.0,1.0,0.0
1288,54.0,0.0,120.0,1.0,0.0
1289,57.0,13.0,120.0,1.0,0.0
1290,64.0,2.0,15.0,0.0,0.0
1291,66.0,107.0,15.0,0.0,0.0
1292,64.0,67.0,120.0,0.0,0.0
1293,42.0,0.0,240.0,1.0,0.0
1294,57.0,0.0,120.0,1.0,0.0
1295,52.0,7.0,120.0,1.0,0.0
1296,49.0,0.0,120.0,1.0,0.0
1297,63.0,53.0,60.0,0.0,0.0
1298,64.0,60.0,60.0,0.0,0.0
1299,51.0,7.0,120.0,1.0,0.0
1300,57.0,0.0,120.0,1.0,0.0
1301,47.0,0.0,120.0,1.0,0.0
1302,68.0,53.0,60.0,0.0,0.0
1303,66.0,180.0,60.0,0.0,0.0
1304,40.0,0.0,360.0,1.0,0.0
1305,58.0,53.0,60.0,0.0,0.0
1306,56.0,7.0,120.0,1.0,0.0
1307,52.0,0.0,120.0,1.0,0.0
1308,47.0,0.0,120.0,1.0,0.0
1309,61.0,60.0,60.0,0.0,0.0
1310,47.0,0.0,120.0,1.0,0.0
1311,52.0,7.0,120.0,1.0,0.0
1312,56.0,0.0,120.0,1.0,0.0
1313,59.0,53.0,60.0,0.0,0.0
1314,64.0,233.0,60.0,0.0,0.0
1315,35.0,0.0,360.0,1.0,0.0
1316,56.0,0.0,360.0,0.0,0.0
1317,47.0,0.0,120.0,1.0,0.0
1318,52.0,120.0,120.0,1.0,0.0
1319,52.0,0.0,120.0,1.0,0.0
1320,47.0,187.0,120.0,1.0,0.0
1321,47.0,0.0,360.0,1.0,0.0
1322,54.0,0.0,120.0,1.0,0.0
1323,52.0,7.0,120.0,1.0,0.0
1324,58.0,53.0,60.0,0.0,0.0
1325,59.0,60.0,60.0,0.0,0.0
1326,52.0,0.0,120.0,1.0,0.0
1327,54.0,7.0,120.0,1.0,0.0
1328,61.0,53.0,60.0,0.0,0.0
1329,63.0,21.0,60.0,0.0,0.0
1330,61.0,15.0,15.0,0.0,0.0
1331,47.0,0.0,360.0,1.0,0.0
1332,63.0,15.0,15.0,0.0,0.0
1333,61.0,15.0,15.0,0.0,0.0
1334,63.0,15.0,15.0,0.0,0.0
1335,61.0,15.0,15.0,0.0,0.0
1336,63.0,15.0,15.0,0.0,0.0
1337,61.0,15.0,15.0,0.0,0.0
1338,63.0,54.0,15.0,0.0,0.0
1339,54.0,7.0,120.0,1.0,0.0
1340,52.0,0.0,120.0,1.0,0.0
1341,60.0,53.0,60.0,0.0,0.0
1342,58.0,0.0,120.0,1.0,0.0
1343,61.0,60.0,60.0,0.0,0.0
1344,54.0,0.0,120.0,1.0,0.0
1345,58.0,7.0,120.0,1.0,0.0
1346,63.0,53.0,60.0,0.0,0.0
1347,52.0,0.0,120.0,1.0,0.0
1348,64.0,21.0,60.0,0.0,0.0
1349,64.0,15.0,15.0,0.0,0.0
1350,47.0,7.0,360.0,1.0,0.0
1351,66.0,15.0,15.0,0.0,0.0
1352,64.0,15.0,15.0,0.0,0.0
1353,66.0,15.0,15.0,0.0,0.0
1354,64.0,15.0,15.0,0.0,0.0
1355,66.0,15.0,15.0,0.0,0.0
1356,64.0,15.0,15.0,0.0,0.0
1357,66.0,54.0,15.0,0.0,0.0
1358,59.0,7.0,120.0,1.0,0.0
1359,57.0,0.0,120.0,1.0,0.0
1360,63.0,53.0,60.0,0.0,0.0
1361,64.0,60.0,60.0,0.0,0.0
1362,59.0,0.0,120.0,1.0,0.0
1363,57.0,0.0,120.0,1.0,0.0
1364,66.0,53.0,60.0,0.0,0.0
1365,68.0,233.0,60.0,0.0,0.0
1366,64.0,0.0,240.0,0.0,0.0
1367,40.0,0.0,240.0,1.0,0.0
1368,47.0,135.0,120.0,1.0,0.0
1369,56.0,0.0,120.0,1.0,0.0
