,note,step,duration,channel,velocity
0,70.0,0.0,180.0,2.0,64.0
1,36.0,0.0,180.0,2.0,64.0
2,79.0,160.0,180.0,2.0,64.0
3,81.0,160.0,180.0,2.0,64.0
4,60.0,0.0,180.0,2.0,64.0
5,72.0,0.0,180.0,2.0,64.0
6,52.0,0.0,180.0,2.0,64.0
7,79.0,160.0,180.0,2.0,64.0
8,70.0,0.0,180.0,2.0,64.0
9,55.0,0.0,180.0,2.0,64.0
10,64.0,0.0,180.0,2.0,64.0
11,81.0,160.0,180.0,2.0,64.0
12,60.0,0.0,180.0,2.0,64.0
13,67.0,0.0,180.0,2.0,64.0
14,72.0,0.0,180.0,2.0,64.0
15,55.0,0.0,180.0,2.0,64.0
16,64.0,0.0,180.0,2.0,64.0
17,70.0,142.0,180.0,2.0,64.0
18,79.0,0.0,180.0,2.0,64.0
19,52.0,0.0,150.0,2.0,64.0
20,81.0,178.0,150.0,2.0,64.0
21,60.0,0.0,150.0,2.0,64.0
22,72.0,0.0,150.0,2.0,64.0
23,69.0,0.0,180.0,2.0,64.0
24,77.0,0.0,180.0,2.0,64.0
25,41.0,160.0,180.0,2.0,64.0
26,60.0,160.0,180.0,2.0,64.0
27,53.0,0.0,180.0,2.0,64.0
28,70.0,0.0,180.0,2.0,64.0
29,79.0,0.0,180.0,2.0,64.0
30,65.0,149.0,180.0,2.0,64.0
31,57.0,0.0,180.0,2.0,64.0
32,80.0,0.0,180.0,2.0,64.0
33,71.0,0.0,180.0,2.0,64.0
34,60.0,160.0,180.0,2.0,64.0
35,53.0,0.0,180.0,2.0,64.0
36,82.0,0.0,150.0,2.0,64.0
37,74.0,11.0,150.0,2.0,64.0
38,65.0,0.0,180.0,2.0,64.0
39,72.0,0.0,180.0,2.0,64.0
40,57.0,142.0,180.0,2.0,64.0
41,81.0,0.0,180.0,2.0,64.0
42,69.0,0.0,150.0,2.0,64.0
43,77.0,0.0,150.0,2.0,64.0
44,53.0,0.0,150.0,2.0,64.0
45,60.0,178.0,150.0,2.0,64.0
46,72.0,0.0,180.0,2.0,64.0
47,81.0,0.0,180.0,2.0,64.0
48,36.0,160.0,180.0,2.0,64.0
49,70.0,160.0,180.0,2.0,64.0
50,79.0,0.0,180.0,2.0,64.0
51,52.0,0.0,180.0,2.0,64.0
52,60.0,0.0,180.0,2.0,64.0
53,72.0,160.0,180.0,2.0,64.0
54,64.0,0.0,180.0,2.0,64.0
55,55.0,0.0,180.0,2.0,64.0
56,81.0,0.0,180.0,2.0,64.0
57,60.0,0.0,180.0,2.0,64.0
58,67.0,0.0,180.0,2.0,64.0
59,79.0,160.0,180.0,2.0,64.0
60,70.0,0.0,180.0,2.0,64.0
61,81.0,0.0,180.0,2.0,64.0
62,72.0,142.0,180.0,2.0,64.0
63,64.0,0.0,180.0,2.0,64.0
64,55.0,0.0,180.0,2.0,64.0
65,60.0,178.0,150.0,2.0,64.0
66,79.0,0.0,150.0,2.0,64.0
67,70.0,0.0,150.0,2.0,64.0
68,52.0,0.0,150.0,2.0,64.0
69,41.0,0.0,180.0,2.0,64.0
70,77.0,160.0,180.0,2.0,64.0
71,69.0,0.0,180.0,2.0,64.0
72,60.0,0.0,180.0,2.0,64.0
73,53.0,0.0,180.0,2.0,64.0
74,79.0,0.0,180.0,2.0,64.0
75,70.0,149.0,180.0,2.0,64.0
76,65.0,160.0,180.0,2.0,64.0
77,57.0,0.0,180.0,2.0,64.0
78,71.0,11.0,150.0,2.0,64.0
79,80.0,0.0,150.0,2.0,64.0
80,60.0,0.0,180.0,2.0,64.0
81,53.0,160.0,180.0,2.0,64.0
82,74.0,0.0,180.0,2.0,64.0
83,82.0,0.0,180.0,2.0,64.0
84,81.0,142.0,180.0,2.0,64.0
85,57.0,0.0,180.0,2.0,64.0
86,65.0,0.0,180.0,2.0,64.0
87,72.0,0.0,180.0,2.0,64.0
88,77.0,0.0,150.0,2.0,64.0
89,53.0,178.0,150.0,2.0,64.0
90,60.0,0.0,150.0,2.0,64.0
91,69.0,0.0,150.0,2.0,64.0
92,79.0,0.0,180.0,2.0,64.0
93,71.0,0.0,180.0,2.0,64.0
94,43.0,160.0,180.0,2.0,64.0
95,81.0,160.0,180.0,2.0,64.0
96,55.0,0.0,180.0,2.0,64.0
97,65.0,0.0,180.0,2.0,64.0
98,72.0,0.0,180.0,2.0,64.0
99,62.0,0.0,180.0,2.0,64.0
100,67.0,0.0,180.0,2.0,64.0
101,73.0,0.0,180.0,2.0,64.0
102,82.0,160.0,180.0,2.0,64.0
103,65.0,160.0,180.0,2.0,64.0
104,83.0,0.0,180.0,2.0,64.0
105,71.0,0.0,180.0,2.0,64.0
106,74.0,0.0,180.0,2.0,64.0
107,84.0,142.0,180.0,2.0,64.0
108,76.0,0.0,180.0,2.0,64.0
109,67.0,0.0,180.0,2.0,64.0
110,62.0,0.0,180.0,2.0,64.0
111,65.0,0.0,150.0,2.0,64.0
112,77.0,0.0,150.0,2.0,64.0
113,55.0,0.0,150.0,2.0,64.0
114,86.0,94.0,150.0,2.0,64.0
115,78.0,160.0,180.0,2.0,64.0
116,48.0,84.0,90.0,2.0,64.0
117,87.0,0.0,180.0,2.0,64.0
118,79.0,0.0,180.0,2.0,64.0
119,88.0,0.0,180.0,2.0,64.0
120,60.0,0.0,180.0,2.0,64.0
121,67.0,160.0,180.0,2.0,64.0
122,89.0,0.0,180.0,2.0,64.0
123,80.0,0.0,180.0,2.0,64.0
124,64.0,76.0,180.0,2.0,64.0
125,72.0,0.0,180.0,2.0,64.0
126,53.0,73.0,90.0,2.0,64.0
127,60.0,160.0,180.0,2.0,64.0
128,91.0,11.0,150.0,2.0,64.0
129,82.0,0.0,150.0,2.0,64.0
130,81.0,0.0,180.0,2.0,64.0
131,65.0,0.0,180.0,2.0,64.0
132,57.0,0.0,180.0,2.0,64.0
133,89.0,142.0,180.0,2.0,64.0
134,84.0,0.0,150.0,2.0,64.0
135,76.0,0.0,150.0,2.0,64.0
136,69.0,178.0,150.0,2.0,64.0
137,60.0,0.0,150.0,2.0,64.0
138,88.0,0.0,180.0,2.0,64.0
139,79.0,0.0,180.0,2.0,64.0
140,55.0,160.0,180.0,2.0,64.0
141,77.0,0.0,180.0,2.0,64.0
142,86.0,0.0,180.0,2.0,64.0
143,67.0,160.0,180.0,2.0,64.0
144,59.0,0.0,180.0,2.0,64.0
145,62.0,0.0,180.0,2.0,64.0
146,71.0,160.0,180.0,2.0,64.0
147,79.0,0.0,180.0,2.0,64.0
148,88.0,0.0,180.0,2.0,64.0
149,67.0,0.0,180.0,2.0,64.0
150,74.0,0.0,180.0,2.0,64.0
151,77.0,160.0,180.0,2.0,64.0
152,86.0,0.0,180.0,2.0,64.0
153,88.0,0.0,180.0,2.0,64.0
154,71.0,0.0,180.0,2.0,64.0
155,79.0,0.0,180.0,2.0,64.0
156,62.0,142.0,180.0,2.0,64.0
157,77.0,0.0,150.0,2.0,64.0
158,86.0,178.0,150.0,2.0,64.0
159,67.0,0.0,150.0,2.0,64.0
160,59.0,0.0,150.0,2.0,64.0
161,72.0,0.0,180.0,2.0,64.0
162,64.0,0.0,180.0,2.0,64.0
163,76.0,160.0,180.0,2.0,64.0
164,84.0,0.0,180.0,2.0,64.0
165,77.0,0.0,180.0,2.0,64.0
166,86.0,149.0,180.0,2.0,64.0
167,69.0,0.0,180.0,2.0,64.0
168,60.0,0.0,180.0,2.0,64.0
169,70.0,0.0,180.0,2.0,64.0
170,62.0,160.0,180.0,2.0,64.0
171,74.0,11.0,150.0,2.0,64.0
172,82.0,0.0,150.0,2.0,64.0
173,76.0,0.0,180.0,2.0,64.0
174,67.0,160.0,180.0,2.0,64.0
175,58.0,0.0,180.0,2.0,64.0
176,84.0,0.0,180.0,2.0,64.0
177,69.0,0.0,180.0,2.0,64.0
178,60.0,0.0,180.0,2.0,64.0
179,72.0,0.0,180.0,2.0,64.0
180,81.0,142.0,180.0,2.0,64.0
181,65.0,178.0,150.0,2.0,64.0
182,57.0,0.0,150.0,2.0,64.0
183,82.0,0.0,150.0,2.0,64.0
184,74.0,0.0,150.0,2.0,64.0
185,79.0,0.0,180.0,2.0,64.0
186,36.0,0.0,180.0,2.0,64.0
187,70.0,160.0,180.0,2.0,64.0
188,81.0,160.0,180.0,2.0,64.0
189,72.0,0.0,180.0,2.0,64.0
190,60.0,0.0,180.0,2.0,64.0
191,52.0,0.0,180.0,2.0,64.0
192,79.0,160.0,180.0,2.0,64.0
193,70.0,0.0,180.0,2.0,64.0
194,55.0,0.0,180.0,2.0,64.0
195,64.0,0.0,180.0,2.0,64.0
196,60.0,160.0,180.0,2.0,64.0
197,67.0,0.0,180.0,2.0,64.0
198,72.0,0.0,180.0,2.0,64.0
199,81.0,0.0,180.0,2.0,64.0
200,64.0,142.0,180.0,2.0,64.0
201,55.0,0.0,180.0,2.0,64.0
202,79.0,0.0,180.0,2.0,64.0
203,70.0,0.0,180.0,2.0,64.0
204,81.0,178.0,150.0,2.0,64.0
205,72.0,0.0,150.0,2.0,64.0
206,60.0,0.0,150.0,2.0,64.0
207,52.0,0.0,150.0,2.0,64.0
208,41.0,0.0,180.0,2.0,64.0
209,77.0,160.0,180.0,2.0,64.0
210,69.0,0.0,180.0,2.0,64.0
211,60.0,160.0,180.0,2.0,64.0
212,53.0,0.0,180.0,2.0,64.0
213,79.0,0.0,180.0,2.0,64.0
214,70.0,0.0,180.0,2.0,64.0
215,71.0,149.0,180.0,2.0,64.0
216,80.0,0.0,180.0,2.0,64.0
217,57.0,0.0,180.0,2.0,64.0
218,65.0,0.0,180.0,2.0,64.0
219,74.0,11.0,150.0,2.0,64.0
220,82.0,0.0,150.0,2.0,64.0
221,60.0,0.0,180.0,2.0,64.0
222,53.0,160.0,180.0,2.0,64.0
223,57.0,142.0,180.0,2.0,64.0
224,81.0,0.0,180.0,2.0,64.0
225,72.0,0.0,180.0,2.0,64.0
226,65.0,0.0,180.0,2.0,64.0
227,69.0,0.0,150.0,2.0,64.0
228,53.0,0.0,150.0,2.0,64.0
229,60.0,178.0,150.0,2.0,64.0
230,77.0,0.0,150.0,2.0,64.0
231,72.0,0.0,180.0,2.0,64.0
232,81.0,0.0,180.0,2.0,64.0
233,36.0,160.0,180.0,2.0,64.0
234,70.0,0.0,180.0,2.0,64.0
235,79.0,0.0,180.0,2.0,64.0
236,60.0,160.0,180.0,2.0,64.0
237,52.0,0.0,180.0,2.0,64.0
238,55.0,0.0,180.0,2.0,64.0
239,64.0,160.0,180.0,2.0,64.0
240,81.0,0.0,180.0,2.0,64.0
241,72.0,0.0,180.0,2.0,64.0
242,60.0,160.0,180.0,2.0,64.0
243,67.0,0.0,180.0,2.0,64.0
244,79.0,0.0,180.0,2.0,64.0
245,70.0,0.0,180.0,2.0,64.0
246,55.0,0.0,180.0,2.0,64.0
247,81.0,0.0,180.0,2.0,64.0
248,64.0,142.0,180.0,2.0,64.0
249,72.0,0.0,180.0,2.0,64.0
250,79.0,0.0,150.0,2.0,64.0
251,60.0,0.0,150.0,2.0,64.0
252,52.0,0.0,150.0,2.0,64.0
253,70.0,178.0,150.0,2.0,64.0
254,41.0,160.0,180.0,2.0,64.0
255,77.0,0.0,180.0,2.0,64.0
256,69.0,0.0,180.0,2.0,64.0
257,70.0,149.0,180.0,2.0,64.0
258,53.0,0.0,180.0,2.0,64.0
259,79.0,0.0,180.0,2.0,64.0
260,60.0,0.0,180.0,2.0,64.0
261,57.0,160.0,180.0,2.0,64.0
262,65.0,0.0,180.0,2.0,64.0
263,80.0,11.0,150.0,2.0,64.0
264,71.0,0.0,150.0,2.0,64.0
265,60.0,0.0,180.0,2.0,64.0
266,82.0,0.0,180.0,2.0,64.0
267,53.0,0.0,180.0,2.0,64.0
268,74.0,160.0,180.0,2.0,64.0
269,72.0,142.0,180.0,2.0,64.0
270,81.0,0.0,180.0,2.0,64.0
271,65.0,0.0,180.0,2.0,64.0
272,57.0,0.0,180.0,2.0,64.0
273,77.0,0.0,150.0,2.0,64.0
274,69.0,0.0,150.0,2.0,64.0
275,60.0,178.0,150.0,2.0,64.0
276,53.0,0.0,150.0,2.0,64.0
277,79.0,0.0,180.0,2.0,64.0
278,70.0,0.0,180.0,2.0,64.0
279,46.0,160.0,180.0,2.0,64.0
280,80.0,0.0,180.0,2.0,64.0
281,71.0,160.0,180.0,2.0,64.0
282,65.0,0.0,180.0,2.0,64.0
283,58.0,0.0,180.0,2.0,64.0
284,81.0,160.0,180.0,2.0,64.0
285,72.0,0.0,180.0,2.0,64.0
286,67.0,0.0,180.0,2.0,64.0
287,62.0,0.0,180.0,2.0,64.0
288,65.0,0.0,180.0,2.0,64.0
289,70.0,160.0,180.0,2.0,64.0
290,73.0,0.0,180.0,2.0,64.0
291,82.0,0.0,180.0,2.0,64.0
292,74.0,0.0,180.0,2.0,64.0
293,83.0,0.0,180.0,2.0,64.0
294,67.0,0.0,180.0,2.0,64.0
295,62.0,142.0,180.0,2.0,64.0
296,84.0,0.0,150.0,2.0,64.0
297,75.0,0.0,150.0,2.0,64.0
298,65.0,0.0,150.0,2.0,64.0
299,58.0,178.0,150.0,2.0,64.0
300,46.0,160.0,180.0,2.0,64.0
301,76.0,0.0,180.0,2.0,64.0
302,85.0,0.0,180.0,2.0,64.0
303,67.0,160.0,180.0,2.0,64.0
304,58.0,0.0,180.0,2.0,64.0
305,77.0,0.0,180.0,2.0,64.0
306,86.0,0.0,180.0,2.0,64.0
307,78.0,149.0,180.0,2.0,64.0
308,70.0,0.0,180.0,2.0,64.0
309,65.0,0.0,180.0,2.0,64.0
310,87.0,0.0,180.0,2.0,64.0
311,88.0,11.0,150.0,2.0,64.0
312,79.0,0.0,150.0,2.0,64.0
313,74.0,0.0,180.0,2.0,64.0
314,67.0,160.0,180.0,2.0,64.0
315,80.0,142.0,180.0,2.0,64.0
316,65.0,0.0,180.0,2.0,64.0
317,70.0,0.0,180.0,2.0,64.0
318,89.0,0.0,180.0,2.0,64.0
319,58.0,0.0,150.0,2.0,64.0
320,81.0,0.0,150.0,2.0,64.0
321,90.0,0.0,150.0,2.0,64.0
322,67.0,178.0,150.0,2.0,64.0
323,91.0,0.0,180.0,2.0,64.0
324,48.0,0.0,180.0,2.0,64.0
325,82.0,160.0,180.0,2.0,64.0
326,89.0,0.0,180.0,2.0,64.0
327,70.0,0.0,180.0,2.0,64.0
328,60.0,0.0,180.0,2.0,64.0
329,98.0,160.0,180.0,2.0,64.0
330,95.0,0.0,180.0,2.0,64.0
331,72.0,0.0,180.0,2.0,64.0
332,67.0,0.0,180.0,2.0,64.0
333,87.0,160.0,180.0,2.0,64.0
334,76.0,0.0,180.0,2.0,64.0
335,70.0,160.0,180.0,2.0,64.0
336,88.0,0.0,180.0,2.0,64.0
337,96.0,0.0,180.0,2.0,64.0
338,72.0,0.0,180.0,2.0,64.0
339,93.0,0.0,180.0,2.0,64.0
340,67.0,142.0,180.0,2.0,64.0
341,85.0,0.0,180.0,2.0,64.0
342,94.0,0.0,150.0,2.0,64.0
343,60.0,0.0,150.0,2.0,64.0
344,70.0,0.0,150.0,2.0,64.0
345,86.0,178.0,150.0,2.0,64.0
346,53.0,160.0,180.0,2.0,64.0
347,92.0,0.0,180.0,2.0,64.0
348,83.0,0.0,180.0,2.0,64.0
349,60.0,0.0,180.0,2.0,64.0
350,69.0,0.0,180.0,2.0,64.0
351,84.0,149.0,180.0,2.0,64.0
352,93.0,0.0,180.0,2.0,64.0
353,90.0,11.0,150.0,2.0,64.0
354,65.0,0.0,180.0,2.0,64.0
355,72.0,160.0,180.0,2.0,64.0
356,81.0,0.0,150.0,2.0,64.0
357,69.0,0.0,180.0,2.0,64.0
358,77.0,0.0,180.0,2.0,64.0
359,91.0,0.0,180.0,2.0,64.0
360,82.0,160.0,180.0,2.0,64.0
361,72.0,0.0,180.0,2.0,64.0
362,80.0,0.0,180.0,2.0,64.0
363,65.0,142.0,180.0,2.0,64.0
364,88.0,0.0,180.0,2.0,64.0
365,60.0,0.0,150.0,2.0,64.0
366,69.0,0.0,150.0,2.0,64.0
367,89.0,0.0,150.0,2.0,64.0
368,81.0,178.0,150.0,2.0,64.0
369,50.0,160.0,180.0,2.0,64.0
370,86.0,0.0,180.0,2.0,64.0
371,77.0,0.0,180.0,2.0,64.0
372,65.0,160.0,180.0,2.0,64.0
373,91.0,0.0,180.0,2.0,64.0
374,82.0,0.0,180.0,2.0,64.0
375,57.0,0.0,180.0,2.0,64.0
376,62.0,160.0,180.0,2.0,64.0
377,69.0,0.0,180.0,2.0,64.0
378,80.0,0.0,180.0,2.0,64.0
379,88.0,0.0,180.0,2.0,64.0
380,74.0,0.0,180.0,2.0,64.0
381,89.0,0.0,180.0,2.0,64.0
382,81.0,0.0,180.0,2.0,64.0
383,65.0,160.0,180.0,2.0,64.0
384,77.0,0.0,180.0,2.0,64.0
385,86.0,0.0,180.0,2.0,64.0
386,62.0,0.0,180.0,2.0,64.0
387,69.0,142.0,180.0,2.0,64.0
388,57.0,0.0,150.0,2.0,64.0
389,65.0,178.0,150.0,2.0,64.0
390,81.0,0.0,150.0,2.0,64.0
391,89.0,0.0,150.0,2.0,64.0
392,79.0,0.0,180.0,2.0,64.0
393,88.0,0.0,180.0,2.0,64.0
394,45.0,160.0,180.0,2.0,64.0
395,89.0,160.0,180.0,2.0,64.0
396,81.0,0.0,180.0,2.0,64.0
397,57.0,0.0,180.0,2.0,64.0
398,64.0,0.0,180.0,2.0,64.0
399,69.0,0.0,180.0,2.0,64.0
400,61.0,0.0,180.0,2.0,64.0
401,79.0,149.0,180.0,2.0,64.0
402,88.0,0.0,180.0,2.0,64.0
403,73.0,160.0,180.0,2.0,64.0
404,64.0,0.0,180.0,2.0,64.0
405,77.0,11.0,150.0,2.0,64.0
406,86.0,0.0,150.0,2.0,64.0
407,76.0,0.0,180.0,2.0,64.0
408,85.0,0.0,180.0,2.0,64.0
409,61.0,142.0,180.0,2.0,64.0
410,69.0,0.0,180.0,2.0,64.0
411,79.0,0.0,150.0,2.0,64.0
412,88.0,0.0,150.0,2.0,64.0
413,64.0,0.0,150.0,2.0,64.0
414,57.0,178.0,150.0,2.0,64.0
415,46.0,0.0,180.0,2.0,64.0
416,86.0,0.0,180.0,2.0,64.0
417,77.0,160.0,180.0,2.0,64.0
418,88.0,0.0,180.0,2.0,64.0
419,79.0,0.0,180.0,2.0,64.0
420,62.0,160.0,180.0,2.0,64.0
421,53.0,0.0,180.0,2.0,64.0
422,86.0,160.0,180.0,2.0,64.0
423,77.0,0.0,180.0,2.0,64.0
424,65.0,0.0,180.0,2.0,64.0
425,58.0,0.0,180.0,2.0,64.0
426,84.0,160.0,180.0,2.0,64.0
427,76.0,0.0,180.0,2.0,64.0
428,70.0,0.0,180.0,2.0,64.0
429,62.0,0.0,180.0,2.0,64.0
430,58.0,0.0,180.0,2.0,64.0
431,65.0,142.0,180.0,2.0,64.0
432,74.0,0.0,180.0,2.0,64.0
433,82.0,0.0,180.0,2.0,64.0
434,53.0,178.0,150.0,2.0,64.0
435,77.0,0.0,150.0,2.0,64.0
436,62.0,0.0,150.0,2.0,64.0
437,86.0,0.0,150.0,2.0,64.0
438,84.0,0.0,180.0,2.0,64.0
439,75.0,0.0,180.0,2.0,64.0
440,42.0,160.0,180.0,2.0,64.0
441,60.0,0.0,180.0,2.0,64.0
442,77.0,0.0,180.0,2.0,64.0
443,54.0,0.0,180.0,2.0,64.0
444,86.0,160.0,180.0,2.0,64.0
445,63.0,0.0,180.0,2.0,64.0
446,57.0,0.0,180.0,2.0,64.0
447,74.0,0.0,180.0,2.0,64.0
448,83.0,149.0,180.0,2.0,64.0
449,60.0,0.0,180.0,2.0,64.0
450,66.0,160.0,180.0,2.0,64.0
451,84.0,0.0,150.0,2.0,64.0
452,75.0,11.0,150.0,2.0,64.0
453,63.0,0.0,180.0,2.0,64.0
454,57.0,142.0,180.0,2.0,64.0
455,81.0,0.0,180.0,2.0,64.0
456,72.0,0.0,180.0,2.0,64.0
457,75.0,0.0,150.0,2.0,64.0
458,84.0,0.0,150.0,2.0,64.0
459,60.0,0.0,150.0,2.0,64.0
460,54.0,70.0,150.0,2.0,64.0
461,82.0,160.0,180.0,2.0,64.0
462,43.0,108.0,60.0,2.0,64.0
463,74.0,0.0,180.0,2.0,64.0
464,55.0,40.0,210.0,2.0,64.0
465,62.0,0.0,210.0,2.0,64.0
466,84.0,32.0,180.0,2.0,64.0
467,76.0,0.0,180.0,2.0,64.0
468,67.0,88.0,90.0,2.0,64.0
469,58.0,0.0,90.0,2.0,64.0
470,82.0,76.0,180.0,2.0,64.0
471,74.0,0.0,180.0,2.0,64.0
472,72.0,160.0,180.0,2.0,64.0
473,81.0,0.0,180.0,2.0,64.0
474,48.0,84.0,90.0,2.0,64.0
475,70.0,32.0,180.0,2.0,64.0
476,79.0,0.0,180.0,2.0,64.0
477,60.0,0.0,210.0,2.0,64.0
478,52.0,40.0,210.0,2.0,64.0
479,55.0,20.0,90.0,2.0,64.0
480,64.0,50.0,90.0,2.0,64.0
481,82.0,82.0,150.0,2.0,64.0
482,74.0,0.0,150.0,2.0,64.0
483,81.0,0.0,180.0,2.0,64.0
484,41.0,96.0,60.0,2.0,64.0
485,72.0,160.0,180.0,2.0,64.0
486,74.0,0.0,180.0,2.0,64.0
487,82.0,32.0,180.0,2.0,64.0
488,60.0,40.0,210.0,2.0,64.0
489,53.0,0.0,210.0,2.0,64.0
490,72.0,58.0,180.0,2.0,64.0
491,57.0,88.0,90.0,2.0,64.0
492,65.0,0.0,90.0,2.0,64.0
493,81.0,0.0,180.0,2.0,64.0
494,38.0,91.0,60.0,2.0,64.0
495,79.0,0.0,150.0,2.0,64.0
496,70.0,171.0,150.0,2.0,64.0
497,69.0,32.0,180.0,2.0,64.0
498,77.0,0.0,180.0,2.0,64.0
499,57.0,0.0,210.0,2.0,64.0
500,50.0,40.0,210.0,2.0,64.0
501,81.0,178.0,150.0,2.0,64.0
502,72.0,0.0,150.0,2.0,64.0
503,62.0,70.0,90.0,2.0,64.0
504,55.0,0.0,90.0,2.0,64.0
505,71.0,0.0,180.0,2.0,64.0
506,43.0,160.0,180.0,2.0,64.0
507,79.0,0.0,180.0,2.0,64.0
508,81.0,0.0,180.0,2.0,64.0
509,55.0,160.0,180.0,2.0,64.0
510,47.0,0.0,180.0,2.0,64.0
511,72.0,0.0,180.0,2.0,64.0
512,71.0,0.0,180.0,2.0,64.0
513,79.0,160.0,180.0,2.0,64.0
514,59.0,0.0,180.0,2.0,64.0
515,50.0,0.0,180.0,2.0,64.0
516,69.0,0.0,180.0,2.0,64.0
517,55.0,0.0,180.0,2.0,64.0
518,62.0,0.0,180.0,2.0,64.0
519,77.0,160.0,180.0,2.0,64.0
520,65.0,142.0,180.0,2.0,64.0
521,74.0,0.0,180.0,2.0,64.0
522,50.0,0.0,180.0,2.0,64.0
523,59.0,0.0,180.0,2.0,64.0
524,76.0,0.0,150.0,2.0,64.0
525,55.0,0.0,150.0,2.0,64.0
526,47.0,0.0,150.0,2.0,64.0
527,67.0,178.0,150.0,2.0,64.0
528,36.0,160.0,180.0,2.0,64.0
529,64.0,0.0,180.0,2.0,64.0
530,72.0,0.0,180.0,2.0,64.0
531,65.0,160.0,180.0,2.0,64.0
532,74.0,0.0,180.0,2.0,64.0
533,60.0,0.0,180.0,2.0,64.0
534,48.0,0.0,180.0,2.0,64.0
535,64.0,149.0,180.0,2.0,64.0
536,72.0,0.0,180.0,2.0,64.0
537,74.0,11.0,150.0,2.0,64.0
538,52.0,0.0,180.0,2.0,64.0
539,55.0,160.0,180.0,2.0,64.0
540,65.0,0.0,150.0,2.0,64.0
541,60.0,0.0,180.0,2.0,64.0
542,48.0,0.0,180.0,2.0,64.0
543,72.0,0.0,180.0,2.0,64.0
544,64.0,102.0,180.0,2.0,64.0
545,52.0,0.0,120.0,2.0,64.0
546,55.0,0.0,120.0,2.0,64.0
547,76.0,0.0,120.0,2.0,64.0
548,67.0,218.0,120.0,2.0,64.0
549,59.0,160.0,180.0,2.0,64.0
550,74.0,0.0,180.0,2.0,64.0
551,48.0,0.0,180.0,2.0,64.0
552,65.0,0.0,180.0,2.0,64.0
553,53.0,160.0,180.0,2.0,64.0
554,55.0,0.0,180.0,2.0,64.0
555,76.0,0.0,180.0,2.0,64.0
556,67.0,0.0,180.0,2.0,64.0
557,65.0,0.0,180.0,2.0,64.0
558,48.0,0.0,180.0,2.0,64.0
559,59.0,160.0,180.0,2.0,64.0
560,74.0,0.0,180.0,2.0,64.0
561,67.0,0.0,180.0,2.0,64.0
562,53.0,0.0,180.0,2.0,64.0
563,55.0,0.0,180.0,2.0,64.0
564,76.0,160.0,180.0,2.0,64.0
565,59.0,0.0,180.0,2.0,64.0
566,48.0,0.0,180.0,2.0,64.0
567,65.0,0.0,180.0,2.0,64.0
568,74.0,142.0,180.0,2.0,64.0
569,55.0,178.0,150.0,2.0,64.0
570,76.0,0.0,150.0,2.0,64.0
571,53.0,0.0,150.0,2.0,64.0
572,67.0,0.0,150.0,2.0,64.0
573,48.0,0.0,180.0,2.0,64.0
574,64.0,0.0,180.0,2.0,64.0
575,60.0,160.0,180.0,2.0,64.0
576,72.0,0.0,180.0,2.0,64.0
577,74.0,0.0,180.0,2.0,64.0
578,65.0,0.0,180.0,2.0,64.0
579,55.0,0.0,180.0,2.0,64.0
580,52.0,160.0,180.0,2.0,64.0
581,75.0,0.0,180.0,2.0,64.0
582,48.0,0.0,180.0,2.0,64.0
583,60.0,0.0,180.0,2.0,64.0
584,66.0,149.0,180.0,2.0,64.0
585,52.0,160.0,180.0,2.0,64.0
586,55.0,0.0,180.0,2.0,64.0
587,69.0,0.0,150.0,2.0,64.0
588,77.0,11.0,150.0,2.0,64.0
589,48.0,0.0,180.0,2.0,64.0
590,67.0,0.0,180.0,2.0,64.0
591,76.0,142.0,180.0,2.0,64.0
592,60.0,0.0,180.0,2.0,64.0
593,55.0,178.0,150.0,2.0,64.0
594,72.0,0.0,150.0,2.0,64.0
595,52.0,0.0,150.0,2.0,64.0
596,64.0,0.0,150.0,2.0,64.0
597,76.0,160.0,180.0,2.0,64.0
598,48.0,0.0,180.0,2.0,64.0
599,59.0,0.0,180.0,2.0,64.0
600,67.0,0.0,180.0,2.0,64.0
601,74.0,0.0,180.0,2.0,64.0
602,55.0,0.0,180.0,2.0,64.0
603,53.0,0.0,180.0,2.0,64.0
604,65.0,160.0,180.0,2.0,64.0
605,59.0,0.0,180.0,2.0,64.0
606,48.0,0.0,180.0,2.0,64.0
607,76.0,0.0,180.0,2.0,64.0
608,67.0,160.0,180.0,2.0,64.0
609,74.0,0.0,180.0,2.0,64.0
610,65.0,0.0,180.0,2.0,64.0
611,53.0,160.0,180.0,2.0,64.0
612,55.0,0.0,180.0,2.0,64.0
613,67.0,0.0,180.0,2.0,64.0
614,76.0,0.0,180.0,2.0,64.0
615,48.0,142.0,180.0,2.0,64.0
616,59.0,0.0,180.0,2.0,64.0
617,65.0,0.0,150.0,2.0,64.0
618,55.0,0.0,150.0,2.0,64.0
619,53.0,178.0,150.0,2.0,64.0
620,74.0,0.0,150.0,2.0,64.0
621,60.0,0.0,180.0,2.0,64.0
622,48.0,160.0,180.0,2.0,64.0
623,72.0,0.0,180.0,2.0,64.0
624,64.0,0.0,180.0,2.0,64.0
625,52.0,0.0,180.0,2.0,64.0
626,55.0,0.0,180.0,2.0,64.0
627,74.0,0.0,180.0,2.0,64.0
628,65.0,160.0,180.0,2.0,64.0
629,48.0,0.0,180.0,2.0,64.0
630,60.0,0.0,180.0,2.0,64.0
631,75.0,0.0,180.0,2.0,64.0
632,66.0,149.0,180.0,2.0,64.0
633,69.0,11.0,150.0,2.0,64.0
634,77.0,0.0,150.0,2.0,64.0
635,55.0,0.0,180.0,2.0,64.0
636,52.0,160.0,180.0,2.0,64.0
637,76.0,0.0,180.0,2.0,64.0
638,48.0,0.0,180.0,2.0,64.0
639,67.0,0.0,180.0,2.0,64.0
640,60.0,142.0,180.0,2.0,64.0
641,55.0,0.0,150.0,2.0,64.0
642,52.0,0.0,150.0,2.0,64.0
643,72.0,178.0,150.0,2.0,64.0
644,64.0,0.0,150.0,2.0,64.0
645,48.0,0.0,180.0,2.0,64.0
646,60.0,0.0,180.0,2.0,64.0
647,79.0,160.0,180.0,2.0,64.0
648,70.0,0.0,180.0,2.0,64.0
649,72.0,0.0,180.0,2.0,64.0
650,58.0,0.0,180.0,2.0,64.0
651,55.0,0.0,180.0,2.0,64.0
652,80.0,160.0,180.0,2.0,64.0
653,70.0,0.0,180.0,2.0,64.0
654,79.0,0.0,180.0,2.0,64.0
655,48.0,0.0,180.0,2.0,64.0
656,60.0,160.0,180.0,2.0,64.0
657,55.0,0.0,180.0,2.0,64.0
658,58.0,0.0,180.0,2.0,64.0
659,80.0,0.0,180.0,2.0,64.0
660,72.0,160.0,180.0,2.0,64.0
661,70.0,142.0,180.0,2.0,64.0
662,48.0,0.0,180.0,2.0,64.0
663,60.0,0.0,180.0,2.0,64.0
664,79.0,0.0,180.0,2.0,64.0
665,72.0,0.0,150.0,2.0,64.0
666,80.0,178.0,150.0,2.0,64.0
667,58.0,0.0,150.0,2.0,64.0
668,55.0,0.0,150.0,2.0,64.0
669,77.0,0.0,180.0,2.0,64.0
670,68.0,0.0,180.0,2.0,64.0
671,48.0,0.0,180.0,2.0,64.0
672,60.0,160.0,180.0,2.0,64.0
673,56.0,0.0,180.0,2.0,64.0
674,53.0,0.0,180.0,2.0,64.0
675,69.0,0.0,180.0,2.0,64.0
676,78.0,160.0,180.0,2.0,64.0
677,48.0,0.0,180.0,2.0,64.0
678,60.0,0.0,180.0,2.0,64.0
679,79.0,149.0,180.0,2.0,64.0
680,70.0,0.0,180.0,2.0,64.0
681,53.0,160.0,180.0,2.0,64.0
682,73.0,11.0,150.0,2.0,64.0
683,56.0,0.0,180.0,2.0,64.0
684,82.0,0.0,150.0,2.0,64.0
685,80.0,142.0,180.0,2.0,64.0
686,72.0,0.0,180.0,2.0,64.0
687,60.0,0.0,180.0,2.0,64.0
688,48.0,0.0,180.0,2.0,64.0
689,53.0,0.0,150.0,2.0,64.0
690,56.0,0.0,150.0,2.0,64.0
691,68.0,178.0,150.0,2.0,64.0
692,77.0,0.0,150.0,2.0,64.0
693,79.0,0.0,180.0,2.0,64.0
694,70.0,0.0,180.0,2.0,64.0
695,48.0,0.0,180.0,2.0,64.0
696,60.0,160.0,180.0,2.0,64.0
697,72.0,160.0,180.0,2.0,64.0
698,80.0,0.0,180.0,2.0,64.0
699,55.0,0.0,180.0,2.0,64.0
700,58.0,0.0,180.0,2.0,64.0
701,60.0,0.0,180.0,2.0,64.0
702,48.0,0.0,180.0,2.0,64.0
703,79.0,0.0,180.0,2.0,64.0
704,70.0,160.0,180.0,2.0,64.0
705,58.0,160.0,180.0,2.0,64.0
706,72.0,0.0,180.0,2.0,64.0
707,80.0,0.0,180.0,2.0,64.0
708,55.0,0.0,180.0,2.0,64.0
709,79.0,0.0,180.0,2.0,64.0
710,70.0,0.0,180.0,2.0,64.0
711,48.0,0.0,180.0,2.0,64.0
712,60.0,142.0,180.0,2.0,64.0
713,55.0,0.0,150.0,2.0,64.0
714,58.0,0.0,150.0,2.0,64.0
715,80.0,0.0,150.0,2.0,64.0
716,72.0,178.0,150.0,2.0,64.0
717,60.0,160.0,180.0,2.0,64.0
718,48.0,0.0,180.0,2.0,64.0
719,68.0,0.0,180.0,2.0,64.0
720,77.0,0.0,180.0,2.0,64.0
721,53.0,160.0,180.0,2.0,64.0
722,56.0,0.0,180.0,2.0,64.0
723,69.0,0.0,180.0,2.0,64.0
724,78.0,0.0,180.0,2.0,64.0
725,48.0,149.0,180.0,2.0,64.0
726,60.0,0.0,180.0,2.0,64.0
727,70.0,0.0,180.0,2.0,64.0
728,79.0,0.0,180.0,2.0,64.0
729,82.0,0.0,150.0,2.0,64.0
730,53.0,0.0,180.0,2.0,64.0
731,56.0,160.0,180.0,2.0,64.0
732,73.0,11.0,150.0,2.0,64.0
733,48.0,142.0,180.0,2.0,64.0
734,80.0,0.0,180.0,2.0,64.0
735,60.0,0.0,180.0,2.0,64.0
736,72.0,0.0,180.0,2.0,64.0
737,53.0,0.0,150.0,2.0,64.0
738,56.0,0.0,150.0,2.0,64.0
739,68.0,0.0,150.0,2.0,64.0
740,77.0,178.0,150.0,2.0,64.0
741,48.0,160.0,180.0,2.0,64.0
742,59.0,0.0,180.0,2.0,64.0
743,80.0,0.0,180.0,2.0,64.0
744,72.0,0.0,180.0,2.0,64.0
745,79.0,0.0,180.0,2.0,64.0
746,53.0,160.0,180.0,2.0,64.0
747,71.0,0.0,180.0,2.0,64.0
748,55.0,0.0,180.0,2.0,64.0
749,48.0,0.0,180.0,2.0,64.0
750,59.0,0.0,180.0,2.0,64.0
751,83.0,0.0,180.0,2.0,64.0
752,74.0,160.0,180.0,2.0,64.0
753,81.0,160.0,180.0,2.0,64.0
754,53.0,0.0,180.0,2.0,64.0
755,55.0,0.0,180.0,2.0,64.0
756,72.0,0.0,180.0,2.0,64.0
757,59.0,0.0,180.0,2.0,64.0
758,84.0,0.0,180.0,2.0,64.0
759,76.0,142.0,180.0,2.0,64.0
760,48.0,0.0,180.0,2.0,64.0
761,53.0,0.0,150.0,2.0,64.0
762,55.0,0.0,150.0,2.0,64.0
763,83.0,0.0,150.0,2.0,64.0
764,74.0,178.0,150.0,2.0,64.0
765,77.0,160.0,180.0,2.0,64.0
766,59.0,0.0,180.0,2.0,64.0
767,86.0,0.0,180.0,2.0,64.0
768,48.0,0.0,180.0,2.0,64.0
769,76.0,0.0,180.0,2.0,64.0
770,53.0,0.0,180.0,2.0,64.0
771,55.0,160.0,180.0,2.0,64.0
772,84.0,0.0,180.0,2.0,64.0
773,79.0,149.0,180.0,2.0,64.0
774,88.0,0.0,180.0,2.0,64.0
775,48.0,0.0,180.0,2.0,64.0
776,59.0,0.0,180.0,2.0,64.0
777,86.0,11.0,150.0,2.0,64.0
778,77.0,0.0,150.0,2.0,64.0
779,55.0,160.0,180.0,2.0,64.0
780,53.0,0.0,180.0,2.0,64.0
781,48.0,0.0,180.0,2.0,64.0
782,59.0,0.0,180.0,2.0,64.0
783,81.0,0.0,180.0,2.0,64.0
784,89.0,142.0,180.0,2.0,64.0
785,88.0,0.0,150.0,2.0,64.0
786,53.0,178.0,150.0,2.0,64.0
787,55.0,0.0,150.0,2.0,64.0
788,79.0,0.0,150.0,2.0,64.0
789,48.0,0.0,180.0,2.0,64.0
790,83.0,0.0,180.0,2.0,64.0
791,59.0,160.0,180.0,2.0,64.0
792,91.0,0.0,180.0,2.0,64.0
793,55.0,0.0,180.0,2.0,64.0
794,53.0,0.0,180.0,2.0,64.0
795,89.0,160.0,180.0,2.0,64.0
796,81.0,0.0,180.0,2.0,64.0
797,93.0,160.0,180.0,2.0,64.0
798,48.0,0.0,180.0,2.0,64.0
799,59.0,0.0,180.0,2.0,64.0
800,84.0,0.0,180.0,2.0,64.0
801,83.0,160.0,180.0,2.0,64.0
802,91.0,0.0,180.0,2.0,64.0
803,53.0,0.0,180.0,2.0,64.0
804,55.0,0.0,180.0,2.0,64.0
805,59.0,0.0,180.0,2.0,64.0
806,48.0,0.0,180.0,2.0,64.0
807,86.0,0.0,180.0,2.0,64.0
808,95.0,142.0,180.0,2.0,64.0
809,53.0,178.0,150.0,2.0,64.0
810,84.0,0.0,150.0,2.0,64.0
811,55.0,0.0,150.0,2.0,64.0
812,93.0,0.0,150.0,2.0,64.0
813,59.0,0.0,180.0,2.0,64.0
814,96.0,0.0,180.0,2.0,64.0
815,48.0,160.0,180.0,2.0,64.0
816,88.0,0.0,180.0,2.0,64.0
817,86.0,160.0,180.0,2.0,64.0
818,95.0,0.0,180.0,2.0,64.0
819,55.0,0.0,180.0,2.0,64.0
820,53.0,0.0,180.0,2.0,64.0
821,89.0,0.0,180.0,2.0,64.0
822,59.0,0.0,180.0,2.0,64.0
823,48.0,149.0,180.0,2.0,64.0
824,98.0,0.0,180.0,2.0,64.0
825,55.0,160.0,180.0,2.0,64.0
826,53.0,0.0,180.0,2.0,64.0
827,88.0,0.0,150.0,2.0,64.0
828,96.0,11.0,150.0,2.0,64.0
829,91.0,0.0,180.0,2.0,64.0
830,100.0,0.0,180.0,2.0,64.0
831,48.0,142.0,180.0,2.0,64.0
832,59.0,0.0,180.0,2.0,64.0
833,98.0,178.0,150.0,2.0,64.0
834,89.0,0.0,150.0,2.0,64.0
835,55.0,0.0,150.0,2.0,64.0
836,53.0,0.0,150.0,2.0,64.0
837,96.0,0.0,180.0,2.0,64.0
838,88.0,0.0,180.0,2.0,64.0
839,59.0,0.0,180.0,2.0,64.0
840,48.0,160.0,180.0,2.0,64.0
841,98.0,160.0,180.0,2.0,64.0
842,89.0,0.0,180.0,2.0,64.0
843,79.0,0.0,180.0,2.0,64.0
844,86.0,0.0,180.0,2.0,64.0
845,94.0,160.0,180.0,2.0,64.0
846,70.0,0.0,180.0,2.0,64.0
847,88.0,160.0,180.0,2.0,64.0
848,96.0,0.0,180.0,2.0,64.0
849,81.0,0.0,180.0,2.0,64.0
850,72.0,0.0,180.0,2.0,64.0
851,84.0,142.0,180.0,2.0,64.0
852,93.0,0.0,180.0,2.0,64.0
853,77.0,0.0,180.0,2.0,64.0
854,69.0,0.0,180.0,2.0,64.0
855,86.0,0.0,150.0,2.0,64.0
856,70.0,0.0,150.0,2.0,64.0
857,94.0,0.0,150.0,2.0,64.0
858,79.0,178.0,150.0,2.0,64.0
859,91.0,160.0,180.0,2.0,64.0
860,82.0,0.0,180.0,2.0,64.0
861,67.0,0.0,180.0,2.0,64.0
862,76.0,0.0,180.0,2.0,64.0
863,84.0,0.0,180.0,2.0,64.0
864,77.0,0.0,180.0,2.0,64.0
865,69.0,0.0,180.0,2.0,64.0
866,93.0,160.0,180.0,2.0,64.0
867,89.0,0.0,180.0,2.0,64.0
868,74.0,0.0,180.0,2.0,64.0
869,65.0,0.0,180.0,2.0,64.0
870,81.0,149.0,180.0,2.0,64.0
871,76.0,0.0,180.0,2.0,64.0
872,82.0,11.0,150.0,2.0,64.0
873,91.0,0.0,150.0,2.0,64.0
874,67.0,160.0,180.0,2.0,64.0
875,64.0,0.0,180.0,2.0,64.0
876,72.0,0.0,180.0,2.0,64.0
877,79.0,142.0,180.0,2.0,64.0
878,88.0,0.0,180.0,2.0,64.0
879,65.0,0.0,150.0,2.0,64.0
880,74.0,0.0,150.0,2.0,64.0
881,89.0,178.0,150.0,2.0,64.0
882,81.0,0.0,150.0,2.0,64.0
883,70.0,0.0,180.0,2.0,64.0
884,89.0,0.0,180.0,2.0,64.0
885,98.0,0.0,180.0,2.0,64.0
886,62.0,160.0,180.0,2.0,64.0
887,91.0,160.0,180.0,2.0,64.0
888,100.0,0.0,180.0,2.0,64.0
889,64.0,0.0,180.0,2.0,64.0
890,72.0,0.0,180.0,2.0,64.0
891,88.0,0.0,180.0,2.0,64.0
892,96.0,160.0,180.0,2.0,64.0
893,69.0,0.0,180.0,2.0,64.0
894,60.0,0.0,180.0,2.0,64.0
895,62.0,0.0,180.0,2.0,64.0
896,70.0,160.0,180.0,2.0,64.0
897,89.0,0.0,180.0,2.0,64.0
898,98.0,0.0,180.0,2.0,64.0
899,86.0,0.0,180.0,2.0,64.0
900,94.0,0.0,180.0,2.0,64.0
901,58.0,142.0,180.0,2.0,64.0
902,67.0,0.0,180.0,2.0,64.0
903,88.0,0.0,150.0,2.0,64.0
904,60.0,0.0,150.0,2.0,64.0
905,69.0,178.0,150.0,2.0,64.0
906,96.0,0.0,150.0,2.0,64.0
907,65.0,0.0,180.0,2.0,64.0
908,57.0,160.0,180.0,2.0,64.0
909,84.0,0.0,180.0,2.0,64.0
910,93.0,0.0,180.0,2.0,64.0
911,67.0,0.0,180.0,2.0,64.0
912,58.0,0.0,180.0,2.0,64.0
913,86.0,0.0,180.0,2.0,64.0
914,94.0,160.0,180.0,2.0,64.0
915,64.0,0.0,180.0,2.0,64.0
916,55.0,0.0,180.0,2.0,64.0
917,91.0,0.0,180.0,2.0,64.0
918,82.0,149.0,180.0,2.0,64.0
919,93.0,0.0,150.0,2.0,64.0
920,57.0,160.0,180.0,2.0,64.0
921,65.0,0.0,180.0,2.0,64.0
922,84.0,11.0,150.0,2.0,64.0
923,81.0,0.0,180.0,2.0,64.0
924,53.0,0.0,180.0,2.0,64.0
925,62.0,142.0,180.0,2.0,64.0
926,89.0,0.0,180.0,2.0,64.0
927,57.0,0.0,150.0,2.0,64.0
928,65.0,0.0,150.0,2.0,64.0
929,84.0,178.0,150.0,2.0,64.0
930,93.0,0.0,150.0,2.0,64.0
931,36.0,0.0,180.0,2.0,64.0
932,79.0,0.0,180.0,2.0,64.0
933,70.0,160.0,180.0,2.0,64.0
934,72.0,0.0,180.0,2.0,64.0
935,81.0,160.0,180.0,2.0,64.0
936,52.0,0.0,180.0,2.0,64.0
937,60.0,0.0,180.0,2.0,64.0
938,64.0,160.0,180.0,2.0,64.0
939,55.0,0.0,180.0,2.0,64.0
940,70.0,0.0,180.0,2.0,64.0
941,79.0,0.0,180.0,2.0,64.0
942,81.0,0.0,180.0,2.0,64.0
943,67.0,0.0,180.0,2.0,64.0
944,60.0,160.0,180.0,2.0,64.0
945,72.0,0.0,180.0,2.0,64.0
946,79.0,0.0,180.0,2.0,64.0
947,70.0,0.0,180.0,2.0,64.0
948,55.0,0.0,180.0,2.0,64.0
949,64.0,142.0,180.0,2.0,64.0
950,52.0,0.0,150.0,2.0,64.0
951,60.0,0.0,150.0,2.0,64.0
952,72.0,0.0,150.0,2.0,64.0
953,81.0,178.0,150.0,2.0,64.0
954,69.0,160.0,180.0,2.0,64.0
955,77.0,0.0,180.0,2.0,64.0
956,41.0,0.0,180.0,2.0,64.0
957,60.0,0.0,180.0,2.0,64.0
958,53.0,160.0,180.0,2.0,64.0
959,70.0,0.0,180.0,2.0,64.0
960,79.0,0.0,180.0,2.0,64.0
961,71.0,0.0,180.0,2.0,64.0
962,80.0,0.0,180.0,2.0,64.0
963,57.0,0.0,180.0,2.0,64.0
964,65.0,149.0,180.0,2.0,64.0
965,60.0,160.0,180.0,2.0,64.0
966,53.0,0.0,180.0,2.0,64.0
967,82.0,0.0,150.0,2.0,64.0
968,74.0,11.0,150.0,2.0,64.0
969,57.0,0.0,180.0,2.0,64.0
970,65.0,0.0,180.0,2.0,64.0
971,81.0,142.0,180.0,2.0,64.0
972,72.0,0.0,180.0,2.0,64.0
973,69.0,178.0,150.0,2.0,64.0
974,77.0,0.0,150.0,2.0,64.0
975,53.0,0.0,150.0,2.0,64.0
976,60.0,0.0,150.0,2.0,64.0
977,36.0,160.0,180.0,2.0,64.0
978,72.0,0.0,180.0,2.0,64.0
979,81.0,0.0,180.0,2.0,64.0
980,52.0,160.0,180.0,2.0,64.0
981,60.0,0.0,180.0,2.0,64.0
982,79.0,0.0,180.0,2.0,64.0
983,70.0,0.0,180.0,2.0,64.0
984,72.0,0.0,180.0,2.0,64.0
985,64.0,0.0,180.0,2.0,64.0
986,55.0,0.0,180.0,2.0,64.0
987,81.0,160.0,180.0,2.0,64.0
988,79.0,0.0,180.0,2.0,64.0
989,67.0,0.0,180.0,2.0,64.0
990,70.0,0.0,180.0,2.0,64.0
991,60.0,160.0,180.0,2.0,64.0
992,55.0,0.0,180.0,2.0,64.0
993,64.0,0.0,180.0,2.0,64.0
994,81.0,0.0,180.0,2.0,64.0
995,72.0,142.0,180.0,2.0,64.0
996,70.0,0.0,150.0,2.0,64.0
997,60.0,0.0,150.0,2.0,64.0
998,52.0,0.0,150.0,2.0,64.0
999,79.0,178.0,150.0,2.0,64.0
1000,41.0,0.0,180.0,2.0,64.0
1001,77.0,160.0,180.0,2.0,64.0
1002,69.0,0.0,180.0,2.0,64.0
1003,79.0,0.0,180.0,2.0,64.0
1004,53.0,149.0,180.0,2.0,64.0
1005,60.0,0.0,180.0,2.0,64.0
1006,70.0,0.0,180.0,2.0,64.0
1007,71.0,0.0,150.0,2.0,64.0
1008,80.0,11.0,150.0,2.0,64.0
1009,57.0,160.0,180.0,2.0,64.0
1010,65.0,0.0,180.0,2.0,64.0
1011,60.0,0.0,180.0,2.0,64.0
1012,53.0,0.0,180.0,2.0,64.0
1013,82.0,160.0,180.0,2.0,64.0
1014,74.0,0.0,180.0,2.0,64.0
1015,81.0,0.0,180.0,2.0,64.0
1016,72.0,142.0,180.0,2.0,64.0
1017,65.0,0.0,180.0,2.0,64.0
1018,57.0,0.0,180.0,2.0,64.0
1019,60.0,0.0,150.0,2.0,64.0
1020,53.0,0.0,150.0,2.0,64.0
1021,77.0,0.0,150.0,2.0,64.0
1022,69.0,178.0,150.0,2.0,64.0
1023,72.0,0.0,180.0,2.0,64.0
1024,81.0,0.0,180.0,2.0,64.0
1025,50.0,160.0,180.0,2.0,64.0
1026,57.0,0.0,180.0,2.0,64.0
1027,74.0,0.0,180.0,2.0,64.0
1028,82.0,0.0,180.0,2.0,64.0
1029,62.0,160.0,180.0,2.0,64.0
1030,81.0,0.0,180.0,2.0,64.0
1031,65.0,0.0,180.0,2.0,64.0
1032,60.0,0.0,180.0,2.0,64.0
1033,72.0,160.0,180.0,2.0,64.0
1034,82.0,160.0,180.0,2.0,64.0
1035,62.0,0.0,180.0,2.0,64.0
1036,69.0,0.0,180.0,2.0,64.0
1037,74.0,0.0,180.0,2.0,64.0
1038,60.0,107.0,180.0,2.0,64.0
1039,65.0,0.0,180.0,2.0,64.0
1040,81.0,0.0,180.0,2.0,64.0
1041,72.0,0.0,180.0,2.0,64.0
1042,57.0,0.0,120.0,2.0,64.0
1043,74.0,76.0,150.0,2.0,64.0
1044,82.0,0.0,150.0,2.0,64.0
1045,62.0,35.0,120.0,2.0,64.0
1046,70.0,0.0,180.0,2.0,64.0
1047,79.0,160.0,180.0,2.0,64.0
1048,55.0,102.0,60.0,2.0,64.0
1049,72.0,0.0,180.0,2.0,64.0
1050,81.0,52.0,180.0,2.0,64.0
1051,62.0,60.0,210.0,2.0,64.0
1052,58.0,48.0,120.0,2.0,64.0
1053,67.0,0.0,120.0,2.0,64.0
1054,74.0,0.0,180.0,2.0,64.0
1055,82.0,58.0,180.0,2.0,64.0
1056,75.0,0.0,150.0,2.0,64.0
1057,53.0,91.0,60.0,2.0,64.0
1058,84.0,171.0,150.0,2.0,64.0
1059,65.0,80.0,210.0,2.0,64.0
1060,77.0,0.0,180.0,2.0,64.0
1061,86.0,32.0,180.0,2.0,64.0
1062,84.0,82.0,150.0,2.0,64.0
1063,60.0,0.0,120.0,2.0,64.0
1064,69.0,30.0,120.0,2.0,64.0
1065,75.0,0.0,150.0,2.0,64.0
1066,74.0,160.0,180.0,2.0,64.0
1067,58.0,96.0,60.0,2.0,64.0
1068,82.0,0.0,180.0,2.0,64.0
1069,65.0,80.0,210.0,2.0,64.0
1070,75.0,32.0,180.0,2.0,64.0
1071,84.0,0.0,180.0,2.0,64.0
1072,86.0,52.0,180.0,2.0,64.0
1073,62.0,48.0,120.0,2.0,64.0
1074,70.0,0.0,120.0,2.0,64.0
1075,77.0,0.0,180.0,2.0,64.0
1076,88.0,0.0,180.0,2.0,64.0
1077,79.0,160.0,180.0,2.0,64.0
1078,57.0,108.0,60.0,2.0,64.0
1079,69.0,80.0,210.0,2.0,64.0
1080,81.0,0.0,180.0,2.0,64.0
1081,89.0,32.0,180.0,2.0,64.0
1082,79.0,0.0,150.0,2.0,64.0
1083,73.0,30.0,120.0,2.0,64.0
1084,64.0,0.0,120.0,2.0,64.0
1085,88.0,70.0,150.0,2.0,64.0
1086,86.0,160.0,180.0,2.0,64.0
1087,62.0,108.0,60.0,2.0,64.0
1088,77.0,0.0,180.0,2.0,64.0
1089,69.0,0.0,210.0,2.0,64.0
1090,88.0,0.0,180.0,2.0,64.0
1091,79.0,32.0,180.0,2.0,64.0
1092,74.0,0.0,120.0,2.0,64.0
1093,65.0,48.0,120.0,2.0,64.0
1094,81.0,0.0,180.0,2.0,64.0
1095,89.0,149.0,180.0,2.0,64.0
1096,61.0,168.0,150.0,2.0,64.0
1097,91.0,3.0,150.0,2.0,64.0
1098,83.0,0.0,150.0,2.0,64.0
1099,84.0,72.0,180.0,2.0,64.0
1100,93.0,0.0,180.0,2.0,64.0
1101,67.0,40.0,240.0,2.0,64.0
1102,71.0,30.0,120.0,2.0,64.0
1103,65.0,0.0,120.0,2.0,64.0
1104,83.0,0.0,150.0,2.0,64.0
1105,91.0,178.0,150.0,2.0,64.0
1106,93.0,160.0,180.0,2.0,64.0
1107,84.0,0.0,180.0,2.0,64.0
1108,77.0,8.0,480.0,2.0,58.0
1109,65.0,0.0,480.0,2.0,58.0
1110,83.0,152.0,180.0,2.0,64.0
1111,91.0,0.0,180.0,2.0,64.0
1112,84.0,0.0,180.0,2.0,64.0
1113,93.0,160.0,180.0,2.0,64.0
1114,83.0,0.0,180.0,2.0,64.0
1115,91.0,160.0,180.0,2.0,64.0
1116,84.0,152.0,180.0,2.0,64.0
1117,93.0,0.0,180.0,2.0,64.0
1118,91.0,128.0,210.0,2.0,64.0
1119,83.0,40.0,150.0,2.0,64.0
1120,84.0,0.0,180.0,2.0,64.0
1121,93.0,160.0,180.0,2.0,64.0
1122,83.0,160.0,180.0,2.0,64.0
1123,91.0,0.0,180.0,2.0,64.0
1124,84.0,0.0,180.0,2.0,64.0
1125,93.0,149.0,180.0,2.0,64.0
1126,37.0,0.0,510.0,2.0,58.0
1127,91.0,171.0,150.0,2.0,64.0
1128,83.0,0.0,150.0,2.0,64.0
1129,49.0,160.0,510.0,2.0,58.0
1130,84.0,142.0,180.0,2.0,64.0
1131,93.0,0.0,180.0,2.0,64.0
1132,83.0,50.0,150.0,2.0,64.0
1133,91.0,0.0,150.0,2.0,64.0
1134,36.0,0.0,450.0,2.0,58.0
1135,93.0,160.0,210.0,2.0,64.0
1136,84.0,0.0,210.0,2.0,64.0
1137,48.0,48.0,450.0,2.0,58.0
1138,82.0,0.0,210.0,2.0,64.0
1139,91.0,80.0,210.0,2.0,64.0
1140,93.0,32.0,180.0,2.0,64.0
1141,84.0,131.0,210.0,2.0,64.0
1142,91.0,128.0,210.0,2.0,64.0
1143,82.0,0.0,210.0,2.0,64.0
1144,70.0,0.0,180.0,2.0,58.0
1145,74.0,29.0,180.0,2.0,58.0
1146,93.0,3.0,180.0,2.0,64.0
1147,84.0,120.0,210.0,2.0,64.0
1148,72.0,29.0,180.0,2.0,58.0
1149,64.0,0.0,180.0,2.0,58.0
1150,70.0,29.0,180.0,2.0,58.0
1151,82.0,11.0,150.0,2.0,64.0
1152,91.0,128.0,210.0,2.0,64.0
1153,74.0,0.0,180.0,2.0,58.0
1154,84.0,128.0,210.0,2.0,64.0
1155,64.0,0.0,180.0,2.0,58.0
1156,72.0,29.0,180.0,2.0,58.0
1157,93.0,3.0,180.0,2.0,64.0
1158,82.0,131.0,210.0,2.0,64.0
1159,70.0,29.0,180.0,2.0,58.0
1160,74.0,0.0,180.0,2.0,58.0
1161,91.0,3.0,180.0,2.0,64.0
1162,93.0,0.0,210.0,2.0,64.0
1163,84.0,131.0,210.0,2.0,64.0
1164,72.0,29.0,180.0,2.0,58.0
1165,64.0,0.0,180.0,2.0,58.0
1166,74.0,29.0,180.0,2.0,58.0
1167,70.0,0.0,180.0,2.0,58.0
1168,82.0,0.0,210.0,2.0,64.0
1169,91.0,131.0,210.0,2.0,64.0
1170,64.0,0.0,180.0,2.0,58.0
1171,72.0,29.0,180.0,2.0,58.0
1172,84.0,0.0,210.0,2.0,64.0
1173,93.0,131.0,210.0,2.0,64.0
1174,76.0,160.0,180.0,2.0,58.0
1175,91.0,0.0,360.0,2.0,64.0
1176,82.0,160.0,360.0,2.0,64.0
1177,67.0,0.0,180.0,2.0,58.0
1178,70.0,29.0,180.0,2.0,58.0
1179,79.0,0.0,180.0,2.0,58.0
1180,94.0,160.0,210.0,2.0,64.0
1181,86.0,0.0,210.0,2.0,64.0
1182,93.0,131.0,210.0,2.0,64.0
1183,84.0,0.0,210.0,2.0,64.0
1184,82.0,131.0,210.0,2.0,64.0
1185,91.0,0.0,210.0,2.0,64.0
1186,48.0,29.0,180.0,2.0,58.0
1187,89.0,131.0,210.0,2.0,64.0
1188,81.0,0.0,210.0,2.0,64.0
1189,52.0,29.0,180.0,2.0,58.0
1190,60.0,0.0,180.0,2.0,58.0
1191,86.0,0.0,210.0,2.0,64.0
1192,55.0,29.0,180.0,2.0,58.0
1193,64.0,0.0,180.0,2.0,58.0
1194,79.0,131.0,210.0,2.0,64.0
1195,70.0,0.0,180.0,2.0,58.0
1196,76.0,0.0,210.0,2.0,64.0
1197,84.0,160.0,210.0,2.0,64.0
1198,58.0,29.0,180.0,2.0,58.0
1199,79.0,0.0,210.0,2.0,64.0
1200,88.0,160.0,210.0,2.0,64.0
1201,86.0,160.0,210.0,2.0,64.0
1202,77.0,0.0,210.0,2.0,64.0
1203,84.0,160.0,210.0,2.0,64.0
1204,76.0,0.0,210.0,2.0,64.0
1205,82.0,0.0,210.0,2.0,64.0
1206,74.0,110.0,210.0,2.0,64.0
1207,79.0,0.0,150.0,2.0,64.0
1208,72.0,178.0,150.0,2.0,64.0
1209,41.0,72.0,180.0,2.0,64.0
1210,69.0,0.0,240.0,2.0,58.0
1211,77.0,88.0,240.0,2.0,58.0
1212,70.0,160.0,180.0,2.0,64.0
1213,60.0,0.0,180.0,2.0,64.0
1214,72.0,0.0,180.0,2.0,64.0
1215,89.0,128.0,210.0,2.0,64.0
1216,65.0,32.0,180.0,2.0,64.0
1217,81.0,0.0,210.0,2.0,64.0
1218,91.0,128.0,210.0,2.0,64.0
1219,77.0,0.0,180.0,2.0,64.0
1220,69.0,32.0,180.0,2.0,64.0
1221,82.0,0.0,210.0,2.0,64.0
1222,89.0,110.0,210.0,2.0,64.0
1223,65.0,32.0,180.0,2.0,64.0
1224,81.0,0.0,210.0,2.0,64.0
1225,72.0,0.0,180.0,2.0,64.0
1226,60.0,0.0,150.0,2.0,64.0
1227,69.0,50.0,150.0,2.0,64.0
1228,86.0,128.0,210.0,2.0,64.0
1229,77.0,0.0,210.0,2.0,64.0
1230,53.0,32.0,180.0,2.0,64.0
1231,79.0,128.0,210.0,2.0,64.0
1232,87.0,0.0,210.0,2.0,64.0
1233,81.0,0.0,210.0,2.0,64.0
1234,60.0,32.0,180.0,2.0,64.0
1235,69.0,0.0,180.0,2.0,64.0
1236,89.0,128.0,210.0,2.0,64.0
1237,87.0,128.0,210.0,2.0,64.0
1238,65.0,0.0,180.0,2.0,64.0
1239,72.0,32.0,180.0,2.0,64.0
1240,79.0,0.0,210.0,2.0,64.0
1241,77.0,0.0,180.0,2.0,64.0
1242,81.0,128.0,210.0,2.0,64.0
1243,89.0,0.0,210.0,2.0,64.0
1244,69.0,32.0,180.0,2.0,64.0
1245,87.0,110.0,210.0,2.0,64.0
1246,72.0,0.0,180.0,2.0,64.0
1247,79.0,0.0,210.0,2.0,64.0
1248,65.0,32.0,180.0,2.0,64.0
1249,81.0,178.0,150.0,2.0,64.0
1250,69.0,0.0,150.0,2.0,64.0
1251,60.0,0.0,150.0,2.0,64.0
1252,89.0,0.0,150.0,2.0,64.0
1253,41.0,0.0,180.0,2.0,64.0
1254,79.0,0.0,180.0,2.0,64.0
1255,87.0,160.0,180.0,2.0,64.0
1256,65.0,0.0,180.0,2.0,64.0
1257,81.0,160.0,180.0,2.0,64.0
1258,89.0,0.0,180.0,2.0,64.0
1259,57.0,0.0,180.0,2.0,64.0
1260,79.0,0.0,180.0,2.0,64.0
1261,69.0,0.0,180.0,2.0,64.0
1262,87.0,0.0,180.0,2.0,64.0
1263,60.0,160.0,180.0,2.0,64.0
1264,89.0,160.0,180.0,2.0,64.0
1265,81.0,0.0,180.0,2.0,64.0
1266,65.0,0.0,180.0,2.0,64.0
1267,72.0,0.0,180.0,2.0,64.0
1268,69.0,0.0,180.0,2.0,64.0
1269,60.0,0.0,180.0,2.0,64.0
1270,79.0,72.0,180.0,2.0,64.0
1271,87.0,0.0,180.0,2.0,64.0
1272,84.0,90.0,150.0,2.0,64.0
1273,65.0,0.0,150.0,2.0,64.0
1274,57.0,70.0,90.0,2.0,64.0
1275,75.0,0.0,150.0,2.0,64.0
1276,77.0,0.0,180.0,2.0,64.0
1277,46.0,88.0,90.0,2.0,64.0
1278,86.0,160.0,180.0,2.0,64.0
1279,58.0,80.0,210.0,2.0,64.0
1280,74.0,0.0,180.0,2.0,64.0
1281,82.0,32.0,180.0,2.0,64.0
1282,65.0,0.0,210.0,2.0,64.0
1283,70.0,37.0,120.0,2.0,64.0
1284,86.0,0.0,150.0,2.0,64.0
1285,77.0,83.0,150.0,2.0,64.0
1286,62.0,0.0,120.0,2.0,64.0
1287,75.0,160.0,180.0,2.0,64.0
1288,48.0,88.0,90.0,2.0,64.0
1289,84.0,0.0,180.0,2.0,64.0
1290,70.0,32.0,180.0,2.0,64.0
1291,79.0,0.0,180.0,2.0,64.0
1292,60.0,80.0,210.0,2.0,64.0
1293,52.0,0.0,210.0,2.0,64.0
1294,64.0,30.0,120.0,2.0,64.0
1295,55.0,0.0,120.0,2.0,64.0
1296,81.0,0.0,150.0,2.0,64.0
1297,72.0,178.0,150.0,2.0,64.0
1298,41.0,32.0,180.0,2.0,64.0
1299,69.0,128.0,210.0,2.0,64.0
1300,77.0,0.0,180.0,2.0,64.0
1301,58.0,0.0,180.0,2.0,64.0
1302,70.0,128.0,210.0,2.0,64.0
1303,79.0,32.0,180.0,2.0,64.0
1304,48.0,0.0,180.0,2.0,64.0
1305,53.0,0.0,180.0,2.0,64.0
1306,69.0,128.0,210.0,2.0,64.0
1307,77.0,32.0,180.0,2.0,64.0
1308,60.0,0.0,180.0,2.0,64.0
1309,65.0,0.0,180.0,2.0,64.0
1310,57.0,0.0,180.0,2.0,64.0
1311,79.0,32.0,180.0,2.0,64.0
1312,70.0,128.0,210.0,2.0,64.0
1313,53.0,0.0,180.0,2.0,64.0
1314,77.0,32.0,180.0,2.0,64.0
1315,60.0,0.0,180.0,2.0,64.0
1316,48.0,0.0,150.0,2.0,64.0
1317,69.0,110.0,30.0,2.0,64.0
1318,65.0,128.0,210.0,2.0,64.0
1319,74.0,0.0,210.0,2.0,64.0
1320,41.0,32.0,180.0,2.0,64.0
1321,67.0,0.0,210.0,2.0,64.0
1322,75.0,128.0,210.0,2.0,64.0
1323,48.0,0.0,180.0,2.0,64.0
1324,77.0,128.0,210.0,2.0,64.0
1325,69.0,0.0,210.0,2.0,64.0
1326,57.0,32.0,180.0,2.0,64.0
1327,60.0,0.0,180.0,2.0,64.0
1328,53.0,32.0,180.0,2.0,64.0
1329,75.0,0.0,210.0,2.0,64.0
1330,67.0,128.0,210.0,2.0,64.0
1331,69.0,128.0,210.0,2.0,64.0
1332,65.0,0.0,180.0,2.0,64.0
1333,57.0,32.0,180.0,2.0,64.0
1334,77.0,0.0,210.0,2.0,64.0
1335,60.0,0.0,180.0,2.0,64.0
1336,53.0,32.0,180.0,2.0,64.0
1337,75.0,110.0,210.0,2.0,64.0
1338,67.0,0.0,210.0,2.0,64.0
1339,48.0,0.0,150.0,2.0,64.0
1340,57.0,0.0,150.0,2.0,64.0
1341,69.0,0.0,150.0,2.0,64.0
1342,77.0,178.0,150.0,2.0,64.0
1343,75.0,0.0,210.0,2.0,64.0
1344,67.0,128.0,210.0,2.0,64.0
1345,41.0,32.0,180.0,2.0,64.0
1346,77.0,32.0,180.0,2.0,64.0
1347,53.0,0.0,180.0,2.0,64.0
1348,45.0,0.0,180.0,2.0,64.0
1349,69.0,128.0,210.0,2.0,64.0
1350,75.0,0.0,210.0,2.0,64.0
1351,67.0,128.0,210.0,2.0,64.0
1352,48.0,32.0,180.0,2.0,64.0
1353,57.0,0.0,180.0,2.0,64.0
1354,77.0,128.0,210.0,2.0,64.0
1355,53.0,32.0,180.0,2.0,64.0
1356,60.0,0.0,180.0,2.0,64.0
1357,69.0,0.0,210.0,2.0,64.0
1358,57.0,0.0,180.0,2.0,64.0
1359,48.0,32.0,180.0,2.0,64.0
1360,67.0,0.0,210.0,2.0,64.0
1361,75.0,110.0,210.0,2.0,64.0
1362,72.0,40.0,210.0,2.0,64.0
1363,53.0,50.0,150.0,2.0,64.0
1364,45.0,0.0,150.0,2.0,64.0
1365,63.0,0.0,210.0,2.0,64.0
1366,34.0,120.0,90.0,2.0,64.0
1367,65.0,160.0,210.0,2.0,64.0
1368,74.0,0.0,210.0,2.0,64.0
1369,62.0,0.0,210.0,2.0,64.0
1370,70.0,0.0,210.0,2.0,64.0
1371,53.0,40.0,210.0,2.0,64.0
1372,74.0,40.0,210.0,2.0,64.0
1373,65.0,0.0,210.0,2.0,64.0
1374,50.0,0.0,90.0,2.0,64.0
1375,58.0,120.0,90.0,2.0,64.0
1376,63.0,120.0,240.0,2.0,64.0
1377,36.0,120.0,90.0,2.0,64.0
1378,72.0,40.0,210.0,2.0,64.0
1379,48.0,0.0,210.0,2.0,64.0
1380,58.0,40.0,210.0,2.0,64.0
1381,67.0,0.0,210.0,2.0,64.0
1382,52.0,70.0,90.0,2.0,64.0
1383,60.0,0.0,150.0,2.0,64.0
1384,43.0,0.0,90.0,2.0,64.0
1385,69.0,210.0,150.0,2.0,64.0
1386,57.0,0.0,210.0,2.0,64.0
1387,53.0,40.0,480.0,2.0,58.0
1388,41.0,0.0,480.0,2.0,58.0
1389,65.0,160.0,210.0,2.0,64.0
1390,58.0,0.0,210.0,2.0,64.0
1391,66.0,120.0,210.0,2.0,64.0
1392,59.0,0.0,210.0,2.0,64.0
1393,67.0,160.0,210.0,2.0,64.0
1394,68.0,0.0,210.0,2.0,64.0
1395,60.0,160.0,210.0,2.0,64.0
1396,69.0,0.0,210.0,2.0,64.0
1397,61.0,160.0,210.0,2.0,64.0
1398,70.0,136.0,210.0,2.0,64.0
1399,62.0,0.0,210.0,2.0,64.0
1400,48.0,24.0,180.0,2.0,58.0
1401,60.0,0.0,180.0,2.0,58.0
1402,71.0,0.0,210.0,2.0,64.0
1403,63.0,136.0,210.0,2.0,64.0
1404,58.0,0.0,180.0,2.0,58.0
1405,55.0,24.0,180.0,2.0,58.0
1406,64.0,0.0,210.0,2.0,64.0
1407,72.0,136.0,210.0,2.0,64.0
1408,65.0,136.0,210.0,2.0,64.0
1409,60.0,24.0,180.0,2.0,58.0
1410,73.0,0.0,210.0,2.0,64.0
1411,48.0,0.0,180.0,2.0,58.0
1412,55.0,0.0,180.0,2.0,58.0
1413,58.0,24.0,180.0,2.0,58.0
1414,74.0,0.0,210.0,2.0,64.0
1415,66.0,136.0,210.0,2.0,64.0
1416,48.0,24.0,180.0,2.0,58.0
1417,60.0,0.0,180.0,2.0,58.0
1418,75.0,136.0,210.0,2.0,64.0
1419,67.0,0.0,210.0,2.0,64.0
1420,58.0,24.0,180.0,2.0,58.0
1421,55.0,0.0,180.0,2.0,58.0
1422,76.0,0.0,210.0,2.0,64.0
1423,68.0,136.0,210.0,2.0,64.0
1424,77.0,0.0,210.0,2.0,64.0
1425,48.0,0.0,180.0,2.0,58.0
1426,60.0,24.0,180.0,2.0,58.0
1427,69.0,136.0,210.0,2.0,64.0
1428,70.0,0.0,210.0,2.0,64.0
1429,55.0,24.0,180.0,2.0,58.0
1430,58.0,0.0,180.0,2.0,58.0
1431,78.0,136.0,210.0,2.0,64.0
1432,71.0,0.0,210.0,2.0,64.0
1433,79.0,136.0,210.0,2.0,64.0
1434,60.0,0.0,180.0,2.0,58.0
1435,48.0,24.0,180.0,2.0,58.0
1436,72.0,136.0,210.0,2.0,64.0
1437,58.0,24.0,180.0,2.0,58.0
1438,55.0,0.0,180.0,2.0,58.0
1439,80.0,0.0,210.0,2.0,64.0
1440,73.0,136.0,210.0,2.0,64.0
1441,81.0,0.0,210.0,2.0,64.0
1442,60.0,0.0,180.0,2.0,58.0
1443,48.0,24.0,180.0,2.0,58.0
1444,55.0,0.0,180.0,2.0,58.0
1445,58.0,24.0,180.0,2.0,58.0
1446,82.0,0.0,210.0,2.0,64.0
1447,74.0,136.0,210.0,2.0,64.0
1448,48.0,0.0,180.0,2.0,58.0
1449,60.0,24.0,180.0,2.0,58.0
1450,83.0,136.0,210.0,2.0,64.0
1451,75.0,0.0,210.0,2.0,64.0
1452,76.0,136.0,210.0,2.0,64.0
1453,55.0,0.0,180.0,2.0,58.0
1454,58.0,24.0,180.0,2.0,58.0
1455,84.0,0.0,210.0,2.0,64.0
1456,48.0,24.0,180.0,2.0,58.0
1457,85.0,0.0,210.0,2.0,64.0
1458,60.0,0.0,180.0,2.0,58.0
1459,77.0,136.0,210.0,2.0,64.0
1460,55.0,24.0,180.0,2.0,58.0
1461,58.0,0.0,180.0,2.0,58.0
1462,86.0,0.0,210.0,2.0,64.0
1463,78.0,136.0,210.0,2.0,64.0
1464,87.0,136.0,210.0,2.0,64.0
1465,60.0,24.0,180.0,2.0,58.0
1466,48.0,0.0,180.0,2.0,58.0
1467,79.0,0.0,210.0,2.0,64.0
1468,88.0,0.0,210.0,2.0,64.0
1469,55.0,24.0,180.0,2.0,58.0
1470,58.0,0.0,180.0,2.0,58.0
1471,80.0,136.0,210.0,2.0,64.0
1472,81.0,0.0,210.0,2.0,64.0
1473,89.0,136.0,210.0,2.0,64.0
1474,60.0,0.0,180.0,2.0,58.0
1475,48.0,24.0,180.0,2.0,58.0
1476,90.0,136.0,210.0,2.0,64.0
1477,55.0,24.0,180.0,2.0,58.0
1478,58.0,0.0,180.0,2.0,58.0
1479,82.0,0.0,210.0,2.0,64.0
1480,83.0,136.0,210.0,2.0,64.0
1481,60.0,24.0,180.0,2.0,58.0
1482,48.0,0.0,180.0,2.0,58.0
1483,91.0,0.0,210.0,2.0,64.0
1484,84.0,136.0,210.0,2.0,64.0
1485,92.0,0.0,210.0,2.0,64.0
1486,55.0,0.0,180.0,2.0,58.0
1487,58.0,24.0,180.0,2.0,58.0
1488,85.0,136.0,210.0,2.0,64.0
1489,48.0,0.0,180.0,2.0,58.0
1490,60.0,24.0,180.0,2.0,58.0
1491,93.0,0.0,210.0,2.0,64.0
1492,55.0,0.0,180.0,2.0,58.0
1493,58.0,24.0,180.0,2.0,58.0
1494,94.0,0.0,210.0,2.0,64.0
1495,86.0,136.0,210.0,2.0,64.0
1496,60.0,0.0,180.0,2.0,58.0
1497,48.0,24.0,180.0,2.0,58.0
1498,95.0,0.0,210.0,2.0,64.0
1499,87.0,136.0,210.0,2.0,64.0
1500,96.0,0.0,210.0,2.0,64.0
1501,88.0,136.0,210.0,2.0,64.0
1502,55.0,0.0,180.0,2.0,58.0
1503,58.0,24.0,180.0,2.0,58.0
1504,48.0,0.0,180.0,2.0,58.0
1505,60.0,24.0,180.0,2.0,58.0
1506,89.0,0.0,210.0,2.0,64.0
1507,97.0,136.0,210.0,2.0,64.0
1508,90.0,136.0,210.0,2.0,64.0
1509,55.0,0.0,180.0,2.0,58.0
1510,98.0,0.0,210.0,2.0,64.0
1511,58.0,24.0,180.0,2.0,58.0
1512,99.0,86.0,210.0,2.0,64.0
1513,91.0,0.0,210.0,2.0,64.0
1514,60.0,0.0,180.0,2.0,58.0
1515,48.0,24.0,180.0,2.0,58.0
1516,55.0,0.0,120.0,2.0,58.0
1517,58.0,74.0,120.0,2.0,58.0
1518,92.0,320.0,210.0,2.0,64.0
1519,100.0,0.0,210.0,2.0,64.0
1520,57.0,0.0,360.0,2.0,58.0
1521,53.0,0.0,360.0,2.0,58.0
1522,93.0,0.0,360.0,2.0,58.0
1523,101.0,0.0,360.0,2.0,58.0
1524,84.0,0.0,420.0,2.0,58.0
1525,70.0,0.0,420.0,2.0,58.0
1526,64.0,0.0,420.0,2.0,58.0
1527,79.0,0.0,420.0,2.0,58.0
1528,72.0,480.0,420.0,2.0,58.0
1529,72.0,0.0,420.0,2.0,58.0
1530,69.0,0.0,420.0,2.0,58.0
1531,65.0,0.0,420.0,2.0,58.0
1532,60.0,0.0,420.0,2.0,58.0
1533,53.0,480.0,420.0,2.0,58.0
1534,81.0,0.0,420.0,2.0,58.0
1535,77.0,0.0,420.0,2.0,58.0
1536,53.0,0.0,420.0,2.0,58.0
1537,70.0,0.0,420.0,2.0,58.0
1538,74.0,0.0,420.0,2.0,58.0
1539,65.0,1968.0,420.0,2.0,58.0
1540,62.0,0.0,420.0,2.0,58.0
1541,46.0,0.0,420.0,2.0,58.0
1542,58.0,0.0,420.0,2.0,58.0
1543,48.0,0.0,1920.0,2.0,58.0
1544,41.0,0.0,1920.0,2.0,58.0
1545,57.0,0.0,1920.0,2.0,58.0
1546,77.0,0.0,1920.0,2.0,58.0
1547,65.0,0.0,1920.0,2.0,58.0
1548,72.0,0.0,1920.0,2.0,58.0
