,note,step,duration,channel,velocity
0,64.0,32.0,60.0,0.0,0.0
1,63.0,29.0,30.0,0.0,0.0
2,64.0,31.0,30.0,0.0,0.0
3,68.0,28.0,30.0,0.0,0.0
4,66.0,32.0,30.0,0.0,0.0
5,63.0,28.0,30.0,0.0,0.0
6,64.0,32.0,30.0,0.0,0.0
7,66.0,29.0,30.0,0.0,0.0
8,64.0,32.0,30.0,0.0,0.0
9,68.0,27.0,30.0,0.0,0.0
10,66.0,30.0,30.0,0.0,0.0
11,63.0,32.0,30.0,0.0,0.0
12,64.0,29.0,30.0,0.0,0.0
13,68.0,31.0,30.0,0.0,0.0
14,66.0,28.0,30.0,0.0,0.0
15,63.0,32.0,30.0,0.0,0.0
16,64.0,28.0,30.0,0.0,0.0
17,68.0,32.0,30.0,0.0,0.0
18,66.0,29.0,30.0,0.0,0.0
19,63.0,32.0,30.0,0.0,0.0
20,64.0,27.0,30.0,0.0,0.0
21,68.0,30.0,30.0,0.0,0.0
22,66.0,32.0,30.0,0.0,0.0
23,45.0,9.0,40.0,1.0,0.0
24,63.0,20.0,30.0,0.0,0.0
25,64.0,31.0,30.0,0.0,0.0
26,61.0,0.0,60.0,1.0,0.0
27,52.0,7.0,60.0,1.0,0.0
28,68.0,20.0,30.0,0.0,0.0
29,57.0,1.0,40.0,1.0,0.0
30,66.0,32.0,30.0,0.0,0.0
31,52.0,0.0,40.0,1.0,0.0
32,57.0,7.0,60.0,1.0,0.0
33,61.0,2.0,40.0,1.0,0.0
34,63.0,19.0,30.0,0.0,0.0
35,64.0,32.0,30.0,0.0,0.0
36,49.0,8.0,60.0,1.0,0.0
37,68.0,21.0,30.0,0.0,0.0
38,66.0,32.0,30.0,0.0,0.0
39,63.0,18.0,30.0,0.0,0.0
40,52.0,1.0,40.0,1.0,0.0
41,61.0,2.0,40.0,1.0,0.0
42,57.0,6.0,60.0,1.0,0.0
43,64.0,30.0,30.0,0.0,0.0
44,52.0,1.0,40.0,1.0,0.0
45,61.0,1.0,40.0,1.0,0.0
46,68.0,21.0,30.0,0.0,0.0
47,57.0,9.0,60.0,1.0,0.0
48,66.0,29.0,30.0,0.0,0.0
49,63.0,22.0,30.0,0.0,0.0
50,45.0,9.0,60.0,1.0,0.0
51,64.0,28.0,30.0,0.0,0.0
52,61.0,0.0,40.0,1.0,0.0
53,68.0,21.0,30.0,0.0,0.0
54,52.0,2.0,40.0,1.0,0.0
55,57.0,9.0,60.0,1.0,0.0
56,66.0,28.0,30.0,0.0,0.0
57,52.0,8.0,60.0,1.0,0.0
58,61.0,1.0,60.0,1.0,0.0
59,57.0,1.0,40.0,1.0,0.0
60,63.0,22.0,30.0,0.0,0.0
61,64.0,29.0,30.0,0.0,0.0
62,49.0,12.0,40.0,1.0,0.0
63,66.0,20.0,30.0,0.0,0.0
64,68.0,27.0,30.0,0.0,0.0
65,61.0,1.0,40.0,1.0,0.0
66,69.0,21.0,30.0,0.0,0.0
67,52.0,1.0,40.0,1.0,0.0
68,57.0,7.0,60.0,1.0,0.0
69,71.0,32.0,30.0,0.0,0.0
70,52.0,0.0,60.0,1.0,0.0
71,57.0,2.0,40.0,1.0,0.0
72,61.0,8.0,60.0,1.0,0.0
73,73.0,19.0,30.0,0.0,0.0
74,74.0,50.0,30.0,0.0,0.0
75,78.0,20.0,90.0,0.0,0.0
76,40.0,41.0,40.0,1.0,0.0
77,52.0,6.0,60.0,1.0,0.0
78,62.0,1.0,40.0,1.0,0.0
79,56.0,1.0,60.0,1.0,0.0
80,76.0,32.0,30.0,0.0,0.0
81,52.0,7.0,60.0,1.0,0.0
82,56.0,0.0,40.0,1.0,0.0
83,62.0,2.0,40.0,1.0,0.0
84,74.0,19.0,30.0,0.0,0.0
85,73.0,32.0,30.0,0.0,0.0
86,73.0,20.0,30.0,0.0,0.0
87,47.0,9.0,40.0,1.0,0.0
88,71.0,12.0,30.0,0.0,0.0
89,56.0,2.0,40.0,1.0,0.0
90,71.0,7.0,15.0,0.0,0.0
91,52.0,0.0,60.0,1.0,0.0
92,62.0,9.0,60.0,1.0,0.0
93,73.0,10.0,15.0,0.0,0.0
94,71.0,21.0,15.0,0.0,0.0
95,70.0,49.0,30.0,0.0,0.0
96,52.0,1.0,40.0,1.0,0.0
97,62.0,1.0,40.0,1.0,0.0
98,71.0,53.0,60.0,0.0,0.0
99,56.0,8.0,60.0,1.0,0.0
100,40.0,38.0,60.0,1.0,0.0
101,78.0,19.0,90.0,0.0,0.0
102,56.0,0.0,40.0,1.0,0.0
103,62.0,9.0,40.0,1.0,0.0
104,76.0,32.0,30.0,0.0,0.0
105,74.0,20.0,30.0,0.0,0.0
106,62.0,7.0,60.0,1.0,0.0
107,56.0,1.0,40.0,1.0,0.0
108,73.0,32.0,30.0,0.0,0.0
109,73.0,9.0,30.0,0.0,0.0
110,52.0,7.0,60.0,1.0,0.0
111,71.0,12.0,15.0,0.0,0.0
112,73.0,0.0,15.0,0.0,0.0
113,71.0,30.0,15.0,0.0,0.0
114,62.0,2.0,40.0,1.0,0.0
115,56.0,9.0,60.0,1.0,0.0
116,70.0,21.0,30.0,0.0,0.0
117,71.0,29.0,30.0,0.0,0.0
118,73.0,20.0,30.0,0.0,0.0
119,56.0,9.0,60.0,1.0,0.0
120,62.0,2.0,40.0,1.0,0.0
121,66.0,28.0,30.0,0.0,0.0
122,45.0,10.0,40.0,1.0,0.0
123,63.0,22.0,30.0,0.0,0.0
124,64.0,28.0,30.0,0.0,0.0
125,52.0,0.0,40.0,1.0,0.0
126,57.0,3.0,40.0,1.0,0.0
127,61.0,8.0,60.0,1.0,0.0
128,68.0,21.0,30.0,0.0,0.0
129,66.0,29.0,30.0,0.0,0.0
130,63.0,21.0,30.0,0.0,0.0
131,61.0,1.0,60.0,1.0,0.0
132,57.0,1.0,40.0,1.0,0.0
133,52.0,9.0,60.0,1.0,0.0
134,64.0,27.0,30.0,0.0,0.0
135,49.0,8.0,40.0,1.0,0.0
136,68.0,22.0,30.0,0.0,0.0
137,66.0,32.0,30.0,0.0,0.0
138,52.0,7.0,60.0,1.0,0.0
139,57.0,2.0,40.0,1.0,0.0
140,63.0,20.0,30.0,0.0,0.0
141,61.0,0.0,60.0,1.0,0.0
142,64.0,31.0,30.0,0.0,0.0
143,57.0,5.0,60.0,1.0,0.0
144,61.0,2.0,60.0,1.0,0.0
145,68.0,20.0,30.0,0.0,0.0
146,52.0,1.0,40.0,1.0,0.0
147,66.0,32.0,30.0,0.0,0.0
148,63.0,20.0,30.0,0.0,0.0
149,45.0,8.0,40.0,1.0,0.0
150,64.0,32.0,30.0,0.0,0.0
151,57.0,1.0,60.0,1.0,0.0
152,52.0,6.0,60.0,1.0,0.0
153,68.0,22.0,30.0,0.0,0.0
154,61.0,0.0,60.0,1.0,0.0
155,66.0,32.0,30.0,0.0,0.0
156,61.0,2.0,60.0,1.0,0.0
157,57.0,5.0,60.0,1.0,0.0
158,63.0,20.0,30.0,0.0,0.0
159,52.0,0.0,60.0,1.0,0.0
160,64.0,30.0,30.0,0.0,0.0
161,49.0,7.0,60.0,1.0,0.0
162,66.0,25.0,30.0,0.0,0.0
163,68.0,29.0,30.0,0.0,0.0
164,61.0,2.0,60.0,1.0,0.0
165,52.0,1.0,60.0,1.0,0.0
166,57.0,6.0,60.0,1.0,0.0
167,69.0,22.0,30.0,0.0,0.0
168,71.0,28.0,30.0,0.0,0.0
169,52.0,1.0,60.0,1.0,0.0
170,57.0,7.0,60.0,1.0,0.0
171,61.0,1.0,60.0,1.0,0.0
172,73.0,23.0,30.0,0.0,0.0
173,74.0,53.0,30.0,0.0,0.0
174,78.0,23.0,90.0,0.0,0.0
175,40.0,35.0,60.0,1.0,0.0
176,52.0,0.0,60.0,1.0,0.0
177,56.0,7.0,60.0,1.0,0.0
178,62.0,2.0,60.0,1.0,0.0
179,76.0,29.0,30.0,0.0,0.0
180,56.0,1.0,60.0,1.0,0.0
181,62.0,1.0,60.0,1.0,0.0
182,52.0,7.0,60.0,1.0,0.0
183,74.0,23.0,30.0,0.0,0.0
184,73.0,27.0,30.0,0.0,0.0
185,73.0,23.0,30.0,0.0,0.0
186,47.0,7.0,60.0,1.0,0.0
187,71.0,12.0,30.0,0.0,0.0
188,52.0,1.0,60.0,1.0,0.0
189,71.0,9.0,15.0,0.0,0.0
190,62.0,1.0,60.0,1.0,0.0
191,56.0,5.0,60.0,1.0,0.0
192,73.0,11.0,15.0,0.0,0.0
193,71.0,21.0,15.0,0.0,0.0
194,70.0,53.0,30.0,0.0,0.0
195,71.0,51.0,60.0,0.0,0.0
196,52.0,7.0,60.0,1.0,0.0
197,56.0,2.0,60.0,1.0,0.0
198,62.0,0.0,60.0,1.0,0.0
199,78.0,24.0,90.0,0.0,0.0
200,40.0,37.0,60.0,1.0,0.0
201,52.0,6.0,60.0,1.0,0.0
202,56.0,1.0,60.0,1.0,0.0
203,62.0,1.0,60.0,1.0,0.0
204,76.0,29.0,30.0,0.0,0.0
205,56.0,0.0,60.0,1.0,0.0
206,62.0,2.0,60.0,1.0,0.0
207,74.0,22.0,30.0,0.0,0.0
208,52.0,8.0,60.0,1.0,0.0
209,73.0,27.0,30.0,0.0,0.0
210,52.0,6.0,60.0,1.0,0.0
211,71.0,24.0,30.0,0.0,0.0
212,73.0,32.0,30.0,0.0,0.0
213,62.0,6.0,60.0,1.0,0.0
214,56.0,2.0,60.0,1.0,0.0
215,71.0,21.0,30.0,0.0,0.0
216,70.0,31.0,30.0,0.0,0.0
217,40.0,2.0,60.0,1.0,0.0
218,71.0,26.0,30.0,0.0,0.0
219,72.0,22.0,30.0,0.0,0.0
220,73.0,18.0,20.0,0.0,0.0
221,41.0,5.0,60.0,1.0,0.0
222,74.0,17.0,15.0,0.0,0.0
223,73.0,29.0,20.0,0.0,0.0
224,59.0,1.0,60.0,1.0,0.0
225,49.0,7.0,60.0,1.0,0.0
226,72.0,23.0,30.0,0.0,0.0
227,56.0,1.0,60.0,1.0,0.0
228,73.0,27.0,30.0,0.0,0.0
229,56.0,2.0,60.0,1.0,0.0
230,76.0,23.0,30.0,0.0,0.0
231,49.0,0.0,60.0,1.0,0.0
232,59.0,5.0,60.0,1.0,0.0
233,74.0,32.0,30.0,0.0,0.0
234,73.0,22.0,30.0,0.0,0.0
235,42.0,7.0,60.0,1.0,0.0
236,74.0,31.0,30.0,0.0,0.0
237,73.0,21.0,30.0,0.0,0.0
238,57.0,5.0,60.0,1.0,0.0
239,49.0,2.0,60.0,1.0,0.0
240,72.0,32.0,30.0,0.0,0.0
241,73.0,21.0,30.0,0.0,0.0
242,57.0,5.0,60.0,1.0,0.0
243,49.0,2.0,60.0,1.0,0.0
244,78.0,22.0,30.0,0.0,0.0
245,76.0,19.0,20.0,0.0,0.0
246,44.0,8.0,60.0,1.0,0.0
247,78.0,14.0,20.0,0.0,0.0
248,76.0,27.0,20.0,0.0,0.0
249,75.0,23.0,30.0,0.0,0.0
250,62.0,2.0,60.0,1.0,0.0
251,59.0,4.0,60.0,1.0,0.0
252,52.0,1.0,60.0,1.0,0.0
253,76.0,32.0,30.0,0.0,0.0
254,59.0,6.0,60.0,1.0,0.0
255,52.0,1.0,60.0,1.0,0.0
256,80.0,21.0,30.0,0.0,0.0
257,62.0,1.0,60.0,1.0,0.0
258,78.0,31.0,30.0,0.0,0.0
259,76.0,23.0,30.0,0.0,0.0
260,45.0,5.0,60.0,1.0,0.0
261,78.0,32.0,30.0,0.0,0.0
262,76.0,28.0,30.0,0.0,0.0
263,52.0,0.0,60.0,1.0,0.0
264,61.0,30.0,60.0,1.0,0.0
265,75.0,2.0,30.0,0.0,0.0
266,76.0,29.0,30.0,0.0,0.0
267,81.0,32.0,30.0,0.0,0.0
268,50.0,7.0,60.0,1.0,0.0
269,80.0,20.0,30.0,0.0,0.0
270,78.0,30.0,30.0,0.0,0.0
271,76.0,31.0,30.0,0.0,0.0
272,54.0,1.0,60.0,1.0,0.0
273,59.0,29.0,60.0,1.0,0.0
274,74.0,0.0,30.0,0.0,0.0
275,73.0,31.0,30.0,0.0,0.0
276,71.0,28.0,30.0,0.0,0.0
277,69.0,26.0,30.0,0.0,0.0
278,40.0,6.0,60.0,1.0,0.0
279,68.0,28.0,30.0,0.0,0.0
280,49.0,7.0,60.0,1.0,0.0
281,66.0,23.0,30.0,0.0,0.0
282,52.0,2.0,60.0,1.0,0.0
283,57.0,0.0,60.0,1.0,0.0
284,64.0,29.0,30.0,0.0,0.0
285,62.0,32.0,30.0,0.0,0.0
286,61.0,27.0,30.0,0.0,0.0
287,59.0,24.0,30.0,0.0,0.0
288,40.0,6.0,60.0,1.0,0.0
289,57.0,32.0,30.0,0.0,0.0
290,52.0,6.0,60.0,1.0,0.0
291,50.0,2.0,60.0,1.0,0.0
292,56.0,21.0,30.0,0.0,0.0
293,59.0,31.0,30.0,0.0,0.0
294,66.0,21.0,30.0,0.0,0.0
295,56.0,5.0,60.0,1.0,0.0
296,52.0,2.0,60.0,1.0,0.0
297,50.0,0.0,60.0,1.0,0.0
298,64.0,32.0,30.0,0.0,0.0
299,45.0,32.0,60.0,1.0,0.0
300,63.0,28.0,30.0,0.0,0.0
301,64.0,0.0,30.0,0.0,0.0
302,52.0,1.0,60.0,1.0,0.0
303,57.0,31.0,60.0,1.0,0.0
304,61.0,0.0,60.0,1.0,0.0
305,66.0,29.0,30.0,0.0,0.0
306,68.0,0.0,30.0,0.0,0.0
307,69.0,27.0,30.0,0.0,0.0
308,71.0,20.0,30.0,0.0,0.0
309,73.0,22.0,15.0,0.0,0.0
310,52.0,0.0,180.0,1.0,0.0
311,74.0,19.0,20.0,0.0,0.0
312,73.0,31.0,20.0,0.0,0.0
313,72.0,22.0,30.0,0.0,0.0
314,61.0,1.0,60.0,1.0,0.0
315,59.0,5.0,60.0,1.0,0.0
316,73.0,32.0,30.0,0.0,0.0
317,76.0,21.0,30.0,0.0,0.0
318,59.0,2.0,60.0,1.0,0.0
319,61.0,5.0,60.0,1.0,0.0
320,74.0,32.0,30.0,0.0,0.0
321,73.0,29.0,30.0,0.0,0.0
322,54.0,0.0,180.0,1.0,0.0
323,74.0,32.0,30.0,0.0,0.0
324,61.0,5.0,60.0,1.0,0.0
325,57.0,1.0,60.0,1.0,0.0
326,73.0,21.0,30.0,0.0,0.0
327,72.0,30.0,30.0,0.0,0.0
328,73.0,23.0,30.0,0.0,0.0
329,57.0,3.0,60.0,1.0,0.0
330,61.0,6.0,60.0,1.0,0.0
331,78.0,19.0,30.0,0.0,0.0
332,76.0,21.0,20.0,0.0,0.0
333,56.0,7.0,60.0,1.0,0.0
334,78.0,11.0,20.0,0.0,0.0
335,76.0,32.0,15.0,0.0,0.0
336,62.0,1.0,60.0,1.0,0.0
337,64.0,5.0,60.0,1.0,0.0
338,75.0,22.0,30.0,0.0,0.0
339,76.0,32.0,30.0,0.0,0.0
340,64.0,6.0,60.0,1.0,0.0
341,62.0,2.0,60.0,1.0,0.0
342,80.0,21.0,30.0,0.0,0.0
343,78.0,32.0,30.0,0.0,0.0
344,57.0,5.0,60.0,1.0,0.0
345,76.0,22.0,30.0,0.0,0.0
346,78.0,30.0,30.0,0.0,0.0
347,64.0,2.0,60.0,1.0,0.0
348,76.0,23.0,30.0,0.0,0.0
349,61.0,7.0,60.0,1.0,0.0
350,75.0,29.0,30.0,0.0,0.0
351,76.0,31.0,30.0,0.0,0.0
352,85.0,28.0,30.0,0.0,0.0
353,50.0,8.0,60.0,1.0,0.0
354,83.0,24.0,30.0,0.0,0.0
355,81.0,28.0,30.0,0.0,0.0
356,57.0,3.0,60.0,1.0,0.0
357,59.0,0.0,60.0,1.0,0.0
358,66.0,6.0,60.0,1.0,0.0
359,80.0,23.0,30.0,0.0,0.0
360,78.0,29.0,30.0,0.0,0.0
361,76.0,32.0,30.0,0.0,0.0
362,74.0,27.0,30.0,0.0,0.0
363,73.0,25.0,30.0,0.0,0.0
364,40.0,5.0,60.0,1.0,0.0
365,71.0,32.0,30.0,0.0,0.0
366,52.0,6.0,60.0,1.0,0.0
367,69.0,21.0,30.0,0.0,0.0
368,57.0,1.0,60.0,1.0,0.0
369,49.0,1.0,60.0,1.0,0.0
370,68.0,31.0,30.0,0.0,0.0
371,66.0,28.0,30.0,0.0,0.0
372,64.0,32.0,30.0,0.0,0.0
373,40.0,5.0,60.0,1.0,0.0
374,65.0,23.0,30.0,0.0,0.0
375,68.0,32.0,30.0,0.0,0.0
376,66.0,21.0,30.0,0.0,0.0
377,50.0,6.0,60.0,1.0,0.0
378,52.0,2.0,60.0,1.0,0.0
379,61.0,32.0,30.0,0.0,0.0
380,50.0,4.0,60.0,1.0,0.0
381,62.0,21.0,30.0,0.0,0.0
382,52.0,2.0,60.0,1.0,0.0
383,56.0,53.0,30.0,0.0,0.0
384,45.0,7.0,60.0,1.0,0.0
385,57.0,53.0,60.0,0.0,0.0
386,52.0,87.0,60.0,1.0,0.0
387,61.0,2.0,60.0,1.0,0.0
388,73.0,19.0,90.0,0.0,0.0
389,41.0,8.0,60.0,1.0,0.0
390,74.0,13.0,20.0,0.0,0.0
391,73.0,28.0,20.0,0.0,0.0
392,59.0,0.0,60.0,1.0,0.0
393,72.0,23.0,30.0,0.0,0.0
394,56.0,2.0,60.0,1.0,0.0
395,49.0,7.0,60.0,1.0,0.0
396,73.0,28.0,30.0,0.0,0.0
397,76.0,23.0,30.0,0.0,0.0
398,56.0,1.0,60.0,1.0,0.0
399,59.0,7.0,60.0,1.0,0.0
400,49.0,1.0,60.0,1.0,0.0
401,74.0,29.0,30.0,0.0,0.0
402,73.0,25.0,30.0,0.0,0.0
403,42.0,7.0,60.0,1.0,0.0
404,74.0,27.0,30.0,0.0,0.0
405,57.0,7.0,60.0,1.0,0.0
406,73.0,23.0,30.0,0.0,0.0
407,49.0,0.0,60.0,1.0,0.0
408,72.0,32.0,30.0,0.0,0.0
409,73.0,22.0,30.0,0.0,0.0
410,49.0,1.0,60.0,1.0,0.0
411,57.0,6.0,60.0,1.0,0.0
412,78.0,21.0,30.0,0.0,0.0
413,76.0,18.0,20.0,0.0,0.0
414,44.0,7.0,60.0,1.0,0.0
415,78.0,15.0,15.0,0.0,0.0
416,76.0,28.0,20.0,0.0,0.0
417,52.0,2.0,60.0,1.0,0.0
418,59.0,7.0,60.0,1.0,0.0
419,62.0,0.0,60.0,1.0,0.0
420,75.0,23.0,30.0,0.0,0.0
421,76.0,29.0,30.0,0.0,0.0
422,62.0,1.0,60.0,1.0,0.0
423,59.0,1.0,60.0,1.0,0.0
424,80.0,23.0,30.0,0.0,0.0
425,52.0,7.0,60.0,1.0,0.0
426,78.0,27.0,30.0,0.0,0.0
427,76.0,23.0,30.0,0.0,0.0
428,45.0,7.0,60.0,1.0,0.0
429,78.0,32.0,30.0,0.0,0.0
430,52.0,6.0,60.0,1.0,0.0
431,61.0,2.0,60.0,1.0,0.0
432,76.0,21.0,30.0,0.0,0.0
433,75.0,31.0,30.0,0.0,0.0
434,76.0,28.0,30.0,0.0,0.0
435,81.0,32.0,30.0,0.0,0.0
436,50.0,6.0,60.0,1.0,0.0
437,80.0,22.0,30.0,0.0,0.0
438,78.0,32.0,30.0,0.0,0.0
439,76.0,21.0,30.0,0.0,0.0
440,59.0,6.0,60.0,1.0,0.0
441,54.0,2.0,60.0,1.0,0.0
442,74.0,32.0,30.0,0.0,0.0
443,73.0,27.0,30.0,0.0,0.0
444,71.0,30.0,30.0,0.0,0.0
445,40.0,7.0,60.0,1.0,0.0
446,69.0,25.0,30.0,0.0,0.0
447,68.0,29.0,30.0,0.0,0.0
448,52.0,7.0,60.0,1.0,0.0
449,66.0,22.0,30.0,0.0,0.0
450,57.0,1.0,60.0,1.0,0.0
451,49.0,1.0,60.0,1.0,0.0
452,64.0,28.0,30.0,0.0,0.0
453,62.0,32.0,30.0,0.0,0.0
454,61.0,28.0,30.0,0.0,0.0
455,40.0,6.0,60.0,1.0,0.0
456,59.0,26.0,30.0,0.0,0.0
457,57.0,29.0,30.0,0.0,0.0
458,50.0,10.0,60.0,1.0,0.0
459,52.0,0.0,60.0,1.0,0.0
460,56.0,22.0,30.0,0.0,0.0
461,59.0,27.0,30.0,0.0,0.0
462,52.0,1.0,60.0,1.0,0.0
463,50.0,0.0,60.0,1.0,0.0
464,66.0,24.0,30.0,0.0,0.0
465,56.0,5.0,60.0,1.0,0.0
466,64.0,32.0,30.0,0.0,0.0
467,63.0,21.0,30.0,0.0,0.0
468,45.0,8.0,60.0,1.0,0.0
469,64.0,31.0,30.0,0.0,0.0
470,66.0,21.0,30.0,0.0,0.0
471,52.0,5.0,60.0,1.0,0.0
472,61.0,2.0,60.0,1.0,0.0
473,57.0,0.0,60.0,1.0,0.0
474,68.0,32.0,30.0,0.0,0.0
475,69.0,28.0,30.0,0.0,0.0
476,71.0,22.0,30.0,0.0,0.0
477,73.0,19.0,20.0,0.0,0.0
478,52.0,1.0,180.0,1.0,0.0
479,74.0,22.0,20.0,0.0,0.0
480,73.0,27.0,20.0,0.0,0.0
481,72.0,23.0,30.0,0.0,0.0
482,61.0,4.0,60.0,1.0,0.0
483,59.0,3.0,60.0,1.0,0.0
484,73.0,32.0,30.0,0.0,0.0
485,76.0,21.0,30.0,0.0,0.0
486,59.0,1.0,60.0,1.0,0.0
487,61.0,6.0,60.0,1.0,0.0
488,74.0,31.0,30.0,0.0,0.0
489,73.0,28.0,30.0,0.0,0.0
490,54.0,1.0,180.0,1.0,0.0
491,74.0,32.0,30.0,0.0,0.0
492,73.0,21.0,30.0,0.0,0.0
493,57.0,2.0,60.0,1.0,0.0
494,61.0,5.0,60.0,1.0,0.0
495,72.0,32.0,30.0,0.0,0.0
496,61.0,6.0,60.0,1.0,0.0
497,57.0,1.0,60.0,1.0,0.0
498,73.0,21.0,30.0,0.0,0.0
499,78.0,22.0,30.0,0.0,0.0
500,56.0,4.0,180.0,1.0,0.0
501,76.0,17.0,20.0,0.0,0.0
502,78.0,20.0,15.0,0.0,0.0
503,76.0,32.0,15.0,0.0,0.0
504,75.0,22.0,30.0,0.0,0.0
505,62.0,5.0,60.0,1.0,0.0
506,64.0,2.0,60.0,1.0,0.0
507,76.0,31.0,30.0,0.0,0.0
508,64.0,3.0,60.0,1.0,0.0
509,80.0,21.0,30.0,0.0,0.0
510,62.0,0.0,60.0,1.0,0.0
511,78.0,32.0,30.0,0.0,0.0
512,76.0,23.0,30.0,0.0,0.0
513,57.0,5.0,60.0,1.0,0.0
514,78.0,32.0,30.0,0.0,0.0
515,76.0,22.0,30.0,0.0,0.0
516,64.0,1.0,60.0,1.0,0.0
517,61.0,6.0,60.0,1.0,0.0
518,75.0,32.0,30.0,0.0,0.0
519,76.0,27.0,30.0,0.0,0.0
520,85.0,30.0,30.0,0.0,0.0
521,83.0,23.0,30.0,0.0,0.0
522,50.0,9.0,60.0,1.0,0.0
523,81.0,29.0,30.0,0.0,0.0
524,59.0,2.0,60.0,1.0,0.0
525,57.0,0.0,60.0,1.0,0.0
526,80.0,22.0,30.0,0.0,0.0
527,66.0,7.0,60.0,1.0,0.0
528,78.0,28.0,30.0,0.0,0.0
529,76.0,32.0,30.0,0.0,0.0
530,74.0,28.0,30.0,0.0,0.0
531,73.0,24.0,30.0,0.0,0.0
532,40.0,8.0,60.0,1.0,0.0
533,71.0,29.0,30.0,0.0,0.0
534,57.0,7.0,60.0,1.0,0.0
535,52.0,3.0,60.0,1.0,0.0
536,69.0,22.0,30.0,0.0,0.0
537,49.0,0.0,60.0,1.0,0.0
538,68.0,27.0,30.0,0.0,0.0
539,66.0,30.0,30.0,0.0,0.0
540,64.0,32.0,30.0,0.0,0.0
541,40.0,6.0,60.0,1.0,0.0
542,65.0,23.0,30.0,0.0,0.0
543,68.0,31.0,30.0,0.0,0.0
544,50.0,5.0,60.0,1.0,0.0
545,52.0,1.0,60.0,1.0,0.0
546,66.0,22.0,30.0,0.0,0.0
547,61.0,32.0,30.0,0.0,0.0
548,62.0,21.0,30.0,0.0,0.0
549,52.0,2.0,60.0,1.0,0.0
550,50.0,5.0,60.0,1.0,0.0
551,56.0,53.0,30.0,0.0,0.0
552,45.0,9.0,60.0,1.0,0.0
553,57.0,52.0,60.0,0.0,0.0
554,52.0,1.0,60.0,1.0,0.0
555,61.0,121.0,60.0,1.0,0.0
556,64.0,54.0,180.0,0.0,0.0
557,40.0,58.0,60.0,1.0,0.0
558,50.0,5.0,60.0,1.0,0.0
559,52.0,1.0,60.0,1.0,0.0
560,56.0,0.0,60.0,1.0,0.0
561,56.0,0.0,60.0,1.0,0.0
562,50.0,2.0,60.0,1.0,0.0
563,52.0,7.0,60.0,1.0,0.0
564,59.0,50.0,60.0,0.0,0.0
565,64.0,54.0,120.0,0.0,0.0
566,50.0,58.0,60.0,1.0,0.0
567,56.0,1.0,60.0,1.0,0.0
568,52.0,2.0,60.0,1.0,0.0
569,56.0,2.0,60.0,1.0,0.0
570,52.0,4.0,60.0,1.0,0.0
571,50.0,0.0,60.0,1.0,0.0
572,50.0,1.0,60.0,1.0,0.0
573,52.0,5.0,60.0,1.0,0.0
574,56.0,0.0,60.0,1.0,0.0
575,60.0,56.0,60.0,0.0,0.0
576,45.0,58.0,60.0,1.0,0.0
577,64.0,51.0,120.0,0.0,0.0
578,52.0,7.0,60.0,1.0,0.0
579,57.0,1.0,60.0,1.0,0.0
580,52.0,5.0,60.0,1.0,0.0
581,61.0,53.0,60.0,0.0,0.0
582,57.0,3.0,60.0,1.0,0.0
583,40.0,60.0,60.0,1.0,0.0
584,73.0,53.0,120.0,0.0,0.0
585,52.0,2.0,60.0,1.0,0.0
586,57.0,0.0,60.0,1.0,0.0
587,61.0,5.0,60.0,1.0,0.0
588,73.0,54.0,180.0,0.0,0.0
589,52.0,58.0,60.0,1.0,0.0
590,57.0,1.0,60.0,1.0,0.0
591,61.0,1.0,60.0,1.0,0.0
592,47.0,59.0,60.0,1.0,0.0
593,52.0,4.0,60.0,1.0,0.0
594,62.0,1.0,60.0,1.0,0.0
595,56.0,2.0,60.0,1.0,0.0
596,52.0,2.0,60.0,1.0,0.0
597,56.0,6.0,60.0,1.0,0.0
598,62.0,0.0,60.0,1.0,0.0
599,66.0,52.0,60.0,0.0,0.0
600,73.0,53.0,120.0,0.0,0.0
601,40.0,60.0,60.0,1.0,0.0
602,59.0,1.0,60.0,1.0,0.0
603,62.0,1.0,60.0,1.0,0.0
604,52.0,4.0,60.0,1.0,0.0
605,59.0,1.0,60.0,1.0,0.0
606,62.0,7.0,60.0,1.0,0.0
607,52.0,1.0,60.0,1.0,0.0
608,68.0,54.0,60.0,0.0,0.0
609,45.0,58.0,60.0,1.0,0.0
610,71.0,53.0,120.0,0.0,0.0
611,61.0,2.0,60.0,1.0,0.0
612,57.0,5.0,60.0,1.0,0.0
613,52.0,0.0,60.0,1.0,0.0
614,52.0,1.0,60.0,1.0,0.0
615,57.0,8.0,60.0,1.0,0.0
616,61.0,0.0,60.0,1.0,0.0
617,69.0,42.0,60.0,0.0,0.0
618,49.0,34.0,60.0,1.0,0.0
619,68.0,11.0,40.0,0.0,0.0
620,71.0,23.0,40.0,0.0,0.0
621,61.0,1.0,60.0,1.0,0.0
622,52.0,1.0,60.0,1.0,0.0
623,57.0,21.0,60.0,1.0,0.0
624,69.0,38.0,40.0,0.0,0.0
625,61.0,4.0,60.0,1.0,0.0
626,57.0,2.0,60.0,1.0,0.0
627,52.0,0.0,60.0,1.0,0.0
628,66.0,54.0,40.0,0.0,0.0
629,44.0,60.0,60.0,1.0,0.0
630,64.0,52.0,120.0,0.0,0.0
631,50.0,7.0,60.0,1.0,0.0
632,52.0,1.0,60.0,1.0,0.0
633,59.0,54.0,60.0,0.0,0.0
634,52.0,2.0,60.0,1.0,0.0
635,50.0,4.0,60.0,1.0,0.0
636,64.0,52.0,120.0,0.0,0.0
637,40.0,59.0,60.0,1.0,0.0
638,50.0,6.0,60.0,1.0,0.0
639,56.0,1.0,60.0,1.0,0.0
640,52.0,2.0,60.0,1.0,0.0
641,60.0,54.0,60.0,0.0,0.0
642,56.0,2.0,60.0,1.0,0.0
643,52.0,4.0,60.0,1.0,0.0
644,50.0,0.0,60.0,1.0,0.0
645,45.0,60.0,60.0,1.0,0.0
646,64.0,52.0,120.0,0.0,0.0
647,57.0,7.0,60.0,1.0,0.0
648,52.0,1.0,60.0,1.0,0.0
649,52.0,2.0,60.0,1.0,0.0
650,57.0,5.0,60.0,1.0,0.0
651,61.0,54.0,60.0,0.0,0.0
652,43.0,58.0,60.0,1.0,0.0
653,73.0,7.0,150.0,0.0,0.0
654,57.0,51.0,60.0,1.0,0.0
655,61.0,1.0,60.0,1.0,0.0
656,52.0,2.0,60.0,1.0,0.0
657,52.0,0.0,60.0,1.0,0.0
658,57.0,2.0,60.0,1.0,0.0
659,61.0,16.0,60.0,1.0,0.0
660,44.0,7.0,60.0,1.0,0.0
661,68.0,12.0,15.0,0.0,0.0
662,69.0,13.0,15.0,0.0,0.0
663,68.0,11.0,15.0,0.0,0.0
664,69.0,7.0,15.0,0.0,0.0
665,68.0,52.0,15.0,0.0,0.0
666,67.0,53.0,60.0,0.0,0.0
667,61.0,2.0,60.0,1.0,0.0
668,56.0,4.0,60.0,1.0,0.0
669,52.0,0.0,60.0,1.0,0.0
670,52.0,6.0,60.0,1.0,0.0
671,61.0,1.0,60.0,1.0,0.0
672,56.0,2.0,60.0,1.0,0.0
673,68.0,58.0,60.0,0.0,0.0
674,76.0,1.0,60.0,0.0,0.0
675,32.0,53.0,60.0,1.0,0.0
676,66.0,59.0,60.0,0.0,0.0
677,51.0,6.0,60.0,1.0,0.0
678,60.0,2.0,60.0,1.0,0.0
679,56.0,0.0,60.0,1.0,0.0
680,75.0,61.0,60.0,0.0,0.0
681,37.0,1.0,60.0,1.0,0.0
682,65.0,57.0,60.0,0.0,0.0
683,74.0,60.0,60.0,0.0,0.0
684,64.0,1.0,60.0,0.0,0.0
685,49.0,60.0,60.0,1.0,0.0
686,56.0,1.0,60.0,1.0,0.0
687,73.0,59.0,60.0,0.0,0.0
688,61.0,61.0,60.0,0.0,0.0
689,66.0,52.0,60.0,0.0,0.0
690,44.0,59.0,60.0,1.0,0.0
691,64.0,54.0,120.0,0.0,0.0
692,52.0,5.0,60.0,1.0,0.0
693,50.0,2.0,60.0,1.0,0.0
694,50.0,2.0,60.0,1.0,0.0
695,59.0,28.0,60.0,0.0,0.0
696,52.0,6.0,60.0,1.0,0.0
697,40.0,58.0,60.0,1.0,0.0
698,76.0,26.0,30.0,0.0,0.0
699,64.0,51.0,120.0,0.0,0.0
700,50.0,8.0,60.0,1.0,0.0
701,56.0,1.0,60.0,1.0,0.0
702,52.0,0.0,60.0,1.0,0.0
703,50.0,0.0,60.0,1.0,0.0
704,52.0,5.0,60.0,1.0,0.0
705,56.0,2.0,60.0,1.0,0.0
706,59.0,32.0,60.0,0.0,0.0
707,76.0,22.0,30.0,0.0,0.0
708,45.0,58.0,60.0,1.0,0.0
709,64.0,53.0,120.0,0.0,0.0
710,52.0,5.0,60.0,1.0,0.0
711,57.0,3.0,60.0,1.0,0.0
712,52.0,4.0,60.0,1.0,0.0
713,57.0,2.0,60.0,1.0,0.0
714,61.0,32.0,60.0,0.0,0.0
715,40.0,60.0,60.0,1.0,0.0
716,76.0,22.0,30.0,0.0,0.0
717,73.0,56.0,120.0,0.0,0.0
718,52.0,1.0,60.0,1.0,0.0
719,57.0,3.0,60.0,1.0,0.0
720,61.0,0.0,60.0,1.0,0.0
721,73.0,28.0,60.0,0.0,0.0
722,61.0,6.0,60.0,1.0,0.0
723,57.0,1.0,60.0,1.0,0.0
724,52.0,1.0,60.0,1.0,0.0
725,76.0,23.0,30.0,0.0,0.0
726,47.0,61.0,60.0,1.0,0.0
727,73.0,53.0,120.0,0.0,0.0
728,56.0,2.0,60.0,1.0,0.0
729,62.0,5.0,60.0,1.0,0.0
730,52.0,0.0,60.0,1.0,0.0
731,62.0,0.0,60.0,1.0,0.0
732,52.0,4.0,60.0,1.0,0.0
733,66.0,18.0,60.0,0.0,0.0
734,56.0,1.0,60.0,1.0,0.0
735,76.0,37.0,15.0,0.0,0.0
736,40.0,58.0,60.0,1.0,0.0
737,73.0,2.0,90.0,0.0,0.0
738,59.0,57.0,60.0,1.0,0.0
739,62.0,1.0,60.0,1.0,0.0
740,52.0,1.0,60.0,1.0,0.0
741,68.0,13.0,60.0,0.0,0.0
742,62.0,1.0,60.0,1.0,0.0
743,59.0,6.0,60.0,1.0,0.0
744,52.0,2.0,60.0,1.0,0.0
745,45.0,5.0,60.0,1.0,0.0
746,76.0,41.0,15.0,0.0,0.0
747,71.0,53.0,60.0,0.0,0.0
748,52.0,7.0,60.0,1.0,0.0
749,61.0,1.0,60.0,1.0,0.0
750,69.0,52.0,60.0,0.0,0.0
751,57.0,0.0,60.0,1.0,0.0
752,61.0,0.0,60.0,1.0,0.0
753,52.0,2.0,60.0,1.0,0.0
754,57.0,5.0,60.0,1.0,0.0
755,68.0,31.0,60.0,0.0,0.0
756,49.0,6.0,60.0,1.0,0.0
757,76.0,23.0,30.0,0.0,0.0
758,71.0,52.0,60.0,0.0,0.0
759,52.0,2.0,60.0,1.0,0.0
760,69.0,23.0,90.0,0.0,0.0
761,61.0,35.0,60.0,1.0,0.0
762,57.0,1.0,60.0,1.0,0.0
763,52.0,2.0,60.0,1.0,0.0
764,57.0,0.0,60.0,1.0,0.0
765,61.0,4.0,60.0,1.0,0.0
766,66.0,32.0,30.0,0.0,0.0
767,44.0,0.0,180.0,1.0,0.0
768,76.0,82.0,30.0,0.0,0.0
769,64.0,53.0,120.0,0.0,0.0
770,50.0,5.0,60.0,1.0,0.0
771,52.0,2.0,60.0,1.0,0.0
772,52.0,1.0,60.0,1.0,0.0
773,59.0,27.0,60.0,0.0,0.0
774,50.0,8.0,60.0,1.0,0.0
775,76.0,23.0,30.0,0.0,0.0
776,40.0,61.0,60.0,1.0,0.0
777,64.0,54.0,120.0,0.0,0.0
778,56.0,4.0,60.0,1.0,0.0
779,52.0,2.0,60.0,1.0,0.0
780,50.0,0.0,60.0,1.0,0.0
781,60.0,29.0,60.0,0.0,0.0
782,50.0,1.0,60.0,1.0,0.0
783,52.0,7.0,60.0,1.0,0.0
784,56.0,0.0,60.0,1.0,0.0
785,76.0,23.0,30.0,0.0,0.0
786,43.0,60.0,60.0,1.0,0.0
787,64.0,50.0,120.0,0.0,0.0
788,52.0,1.0,60.0,1.0,0.0
789,49.0,1.0,60.0,1.0,0.0
790,59.0,7.0,60.0,1.0,0.0
791,49.0,2.0,60.0,1.0,0.0
792,52.0,4.0,60.0,1.0,0.0
793,61.0,56.0,60.0,0.0,0.0
794,59.0,1.0,60.0,1.0,0.0
795,42.0,58.0,60.0,1.0,0.0
796,73.0,54.0,180.0,0.0,0.0
797,52.0,0.0,60.0,1.0,0.0
798,58.0,1.0,60.0,1.0,0.0
799,49.0,59.0,60.0,1.0,0.0
800,49.0,2.0,60.0,1.0,0.0
801,52.0,5.0,60.0,1.0,0.0
802,58.0,0.0,60.0,1.0,0.0
803,47.0,58.0,60.0,1.0,0.0
804,73.0,54.0,120.0,0.0,0.0
805,63.0,3.0,60.0,1.0,0.0
806,57.0,4.0,60.0,1.0,0.0
807,66.0,112.0,60.0,0.0,0.0
808,57.0,6.0,60.0,1.0,0.0
809,63.0,2.0,60.0,1.0,0.0
810,71.0,54.0,120.0,0.0,0.0
811,57.0,0.0,60.0,1.0,0.0
812,62.0,6.0,60.0,1.0,0.0
813,62.0,8.0,60.0,1.0,0.0
814,65.0,57.0,60.0,0.0,0.0
815,57.0,1.0,60.0,1.0,0.0
816,52.0,4.0,120.0,1.0,0.0
817,71.0,54.0,60.0,0.0,0.0
818,64.0,62.0,60.0,0.0,0.0
819,56.0,1.0,60.0,1.0,0.0
820,62.0,1.0,60.0,1.0,0.0
821,70.0,59.0,60.0,0.0,0.0
822,73.0,61.0,60.0,0.0,0.0
823,71.0,58.0,60.0,0.0,0.0
824,76.0,16.0,60.0,0.0,0.0
825,64.0,13.0,15.0,0.0,0.0
826,66.0,18.0,15.0,0.0,0.0
827,64.0,13.0,15.0,0.0,0.0
828,66.0,17.0,15.0,0.0,0.0
829,64.0,13.0,15.0,0.0,0.0
830,66.0,15.0,15.0,0.0,0.0
831,64.0,16.0,15.0,0.0,0.0
832,66.0,14.0,15.0,0.0,0.0
833,64.0,17.0,15.0,0.0,0.0
834,66.0,13.0,15.0,0.0,0.0
835,64.0,16.0,15.0,0.0,0.0
836,66.0,13.0,15.0,0.0,0.0
837,64.0,18.0,15.0,0.0,0.0
838,66.0,13.0,15.0,0.0,0.0
839,64.0,17.0,15.0,0.0,0.0
840,66.0,13.0,15.0,0.0,0.0
841,64.0,15.0,15.0,0.0,0.0
842,66.0,16.0,15.0,0.0,0.0
843,64.0,14.0,15.0,0.0,0.0
844,66.0,17.0,15.0,0.0,0.0
845,64.0,13.0,15.0,0.0,0.0
846,66.0,16.0,15.0,0.0,0.0
847,64.0,13.0,15.0,0.0,0.0
848,66.0,18.0,15.0,0.0,0.0
849,64.0,13.0,15.0,0.0,0.0
850,66.0,17.0,15.0,0.0,0.0
851,64.0,13.0,15.0,0.0,0.0
852,66.0,15.0,15.0,0.0,0.0
853,64.0,16.0,15.0,0.0,0.0
854,66.0,14.0,15.0,0.0,0.0
855,64.0,17.0,15.0,0.0,0.0
856,66.0,13.0,15.0,0.0,0.0
857,64.0,16.0,15.0,0.0,0.0
858,66.0,13.0,15.0,0.0,0.0
859,64.0,18.0,15.0,0.0,0.0
860,66.0,13.0,15.0,0.0,0.0
861,64.0,17.0,15.0,0.0,0.0
862,66.0,13.0,15.0,0.0,0.0
863,64.0,15.0,15.0,0.0,0.0
864,66.0,16.0,15.0,0.0,0.0
865,64.0,14.0,15.0,0.0,0.0
866,66.0,17.0,15.0,0.0,0.0
867,64.0,13.0,15.0,0.0,0.0
868,66.0,16.0,15.0,0.0,0.0
869,64.0,13.0,15.0,0.0,0.0
870,66.0,18.0,15.0,0.0,0.0
871,64.0,13.0,15.0,0.0,0.0
872,66.0,32.0,15.0,0.0,0.0
873,63.0,28.0,30.0,0.0,0.0
874,64.0,30.0,30.0,0.0,0.0
875,68.0,31.0,30.0,0.0,0.0
876,66.0,29.0,30.0,0.0,0.0
877,63.0,32.0,30.0,0.0,0.0
878,64.0,28.0,30.0,0.0,0.0
879,68.0,31.0,30.0,0.0,0.0
880,66.0,28.0,30.0,0.0,0.0
881,63.0,33.0,30.0,0.0,0.0
882,64.0,28.0,30.0,0.0,0.0
883,68.0,32.0,30.0,0.0,0.0
884,66.0,28.0,30.0,0.0,0.0
885,63.0,30.0,30.0,0.0,0.0
886,64.0,31.0,30.0,0.0,0.0
887,68.0,29.0,30.0,0.0,0.0
888,66.0,32.0,30.0,0.0,0.0
889,63.0,28.0,30.0,0.0,0.0
890,64.0,31.0,30.0,0.0,0.0
891,68.0,28.0,30.0,0.0,0.0
892,66.0,33.0,30.0,0.0,0.0
893,63.0,28.0,30.0,0.0,0.0
894,64.0,32.0,30.0,0.0,0.0
895,68.0,28.0,30.0,0.0,0.0
896,66.0,30.0,30.0,0.0,0.0
897,33.0,8.0,60.0,1.0,0.0
898,63.0,23.0,30.0,0.0,0.0
899,64.0,29.0,30.0,0.0,0.0
900,68.0,22.0,30.0,0.0,0.0
901,52.0,0.0,60.0,1.0,0.0
902,57.0,2.0,40.0,1.0,0.0
903,61.0,8.0,60.0,1.0,0.0
904,66.0,28.0,30.0,0.0,0.0
905,57.0,1.0,40.0,1.0,0.0
906,52.0,8.0,60.0,1.0,0.0
907,63.0,22.0,30.0,0.0,0.0
908,61.0,0.0,40.0,1.0,0.0
909,64.0,28.0,30.0,0.0,0.0
910,49.0,10.0,40.0,1.0,0.0
911,68.0,23.0,30.0,0.0,0.0
912,66.0,28.0,30.0,0.0,0.0
913,63.0,22.0,30.0,0.0,0.0
914,61.0,8.0,60.0,1.0,0.0
915,57.0,1.0,40.0,1.0,0.0
916,52.0,1.0,60.0,1.0,0.0
917,64.0,28.0,30.0,0.0,0.0
918,61.0,1.0,40.0,1.0,0.0
919,68.0,21.0,30.0,0.0,0.0
920,57.0,6.0,60.0,1.0,0.0
921,52.0,2.0,40.0,1.0,0.0
922,66.0,31.0,30.0,0.0,0.0
923,63.0,23.0,30.0,0.0,0.0
924,45.0,6.0,60.0,1.0,0.0
925,64.0,32.0,30.0,0.0,0.0
926,68.0,20.0,30.0,0.0,0.0
927,61.0,0.0,40.0,1.0,0.0
928,52.0,7.0,60.0,1.0,0.0
929,57.0,1.0,40.0,1.0,0.0
930,66.0,31.0,30.0,0.0,0.0
931,61.0,2.0,40.0,1.0,0.0
932,57.0,5.0,60.0,1.0,0.0
933,52.0,0.0,40.0,1.0,0.0
934,63.0,21.0,30.0,0.0,0.0
935,64.0,33.0,30.0,0.0,0.0
936,49.0,7.0,60.0,1.0,0.0
937,66.0,21.0,30.0,0.0,0.0
938,68.0,32.0,30.0,0.0,0.0
939,57.0,6.0,60.0,1.0,0.0
940,61.0,1.0,40.0,1.0,0.0
941,69.0,19.0,30.0,0.0,0.0
942,52.0,2.0,40.0,1.0,0.0
943,71.0,30.0,30.0,0.0,0.0
944,73.0,22.0,30.0,0.0,0.0
945,52.0,2.0,40.0,1.0,0.0
946,57.0,0.0,40.0,1.0,0.0
947,61.0,7.0,60.0,1.0,0.0
948,74.0,52.0,30.0,0.0,0.0
949,78.0,21.0,90.0,0.0,0.0
950,40.0,38.0,60.0,1.0,0.0
951,62.0,2.0,40.0,1.0,0.0
952,56.0,8.0,60.0,1.0,0.0
953,52.0,0.0,40.0,1.0,0.0
954,76.0,28.0,30.0,0.0,0.0
955,52.0,1.0,60.0,1.0,0.0
956,56.0,2.0,40.0,1.0,0.0
957,62.0,8.0,60.0,1.0,0.0
958,74.0,21.0,30.0,0.0,0.0
959,73.0,28.0,30.0,0.0,0.0
960,47.0,10.0,40.0,1.0,0.0
961,73.0,22.0,30.0,0.0,0.0
962,71.0,9.0,30.0,0.0,0.0
963,52.0,2.0,40.0,1.0,0.0
964,62.0,6.0,60.0,1.0,0.0
965,71.0,12.0,15.0,0.0,0.0
966,56.0,0.0,40.0,1.0,0.0
967,73.0,7.0,15.0,0.0,0.0
968,71.0,22.0,15.0,0.0,0.0
969,70.0,52.0,30.0,0.0,0.0
970,71.0,51.0,60.0,0.0,0.0
971,62.0,1.0,60.0,1.0,0.0
972,56.0,1.0,40.0,1.0,0.0
973,52.0,7.0,60.0,1.0,0.0
974,78.0,20.0,90.0,0.0,0.0
975,40.0,39.0,40.0,1.0,0.0
976,56.0,2.0,40.0,1.0,0.0
977,62.0,9.0,60.0,1.0,0.0
978,76.0,28.0,30.0,0.0,0.0
979,74.0,22.0,30.0,0.0,0.0
980,62.0,8.0,60.0,1.0,0.0
981,56.0,2.0,40.0,1.0,0.0
982,73.0,28.0,30.0,0.0,0.0
983,52.0,9.0,60.0,1.0,0.0
984,73.0,12.0,30.0,0.0,0.0
985,71.0,9.0,15.0,0.0,0.0
986,73.0,3.0,15.0,0.0,0.0
987,71.0,27.0,15.0,0.0,0.0
988,70.0,22.0,30.0,0.0,0.0
989,62.0,8.0,40.0,1.0,0.0
990,56.0,0.0,40.0,1.0,0.0
991,71.0,32.0,30.0,0.0,0.0
992,73.0,20.0,30.0,0.0,0.0
993,62.0,8.0,60.0,1.0,0.0
994,56.0,1.0,40.0,1.0,0.0
995,66.0,31.0,30.0,0.0,0.0
996,45.0,6.0,60.0,1.0,0.0
997,63.0,22.0,30.0,0.0,0.0
998,64.0,31.0,30.0,0.0,0.0
999,57.0,6.0,60.0,1.0,0.0
1000,61.0,1.0,40.0,1.0,0.0
1001,68.0,20.0,30.0,0.0,0.0
1002,52.0,1.0,40.0,1.0,0.0
1003,66.0,33.0,30.0,0.0,0.0
1004,61.0,6.0,60.0,1.0,0.0
1005,52.0,0.0,60.0,1.0,0.0
1006,57.0,2.0,40.0,1.0,0.0
1007,63.0,20.0,30.0,0.0,0.0
1008,64.0,32.0,30.0,0.0,0.0
1009,68.0,20.0,30.0,0.0,0.0
1010,49.0,8.0,40.0,1.0,0.0
1011,66.0,30.0,30.0,0.0,0.0
1012,61.0,1.0,40.0,1.0,0.0
1013,52.0,0.0,40.0,1.0,0.0
1014,57.0,8.0,60.0,1.0,0.0
1015,63.0,22.0,30.0,0.0,0.0
1016,64.0,29.0,30.0,0.0,0.0
1017,52.0,1.0,60.0,1.0,0.0
1018,57.0,1.0,40.0,1.0,0.0
1019,61.0,8.0,60.0,1.0,0.0
1020,68.0,22.0,30.0,0.0,0.0
1021,66.0,28.0,30.0,0.0,0.0
1022,63.0,21.0,30.0,0.0,0.0
1023,45.0,10.0,40.0,1.0,0.0
1024,64.0,28.0,30.0,0.0,0.0
1025,52.0,8.0,60.0,1.0,0.0
1026,61.0,0.0,60.0,1.0,0.0
1027,57.0,2.0,40.0,1.0,0.0
1028,68.0,23.0,30.0,0.0,0.0
1029,66.0,28.0,30.0,0.0,0.0
1030,52.0,9.0,60.0,1.0,0.0
1031,57.0,1.0,40.0,1.0,0.0
1032,61.0,0.0,40.0,1.0,0.0
1033,63.0,22.0,30.0,0.0,0.0
1034,64.0,28.0,30.0,0.0,0.0
1035,49.0,8.0,40.0,1.0,0.0
1036,66.0,22.0,30.0,0.0,0.0
1037,68.0,31.0,30.0,0.0,0.0
1038,61.0,6.0,60.0,1.0,0.0
1039,52.0,1.0,60.0,1.0,0.0
1040,57.0,1.0,40.0,1.0,0.0
1041,69.0,21.0,30.0,0.0,0.0
1042,71.0,32.0,30.0,0.0,0.0
1043,73.0,19.0,30.0,0.0,0.0
1044,61.0,1.0,40.0,1.0,0.0
1045,57.0,6.0,60.0,1.0,0.0
1046,52.0,2.0,40.0,1.0,0.0
1047,74.0,54.0,30.0,0.0,0.0
1048,78.0,21.0,90.0,0.0,0.0
1049,40.0,37.0,60.0,1.0,0.0
1050,56.0,0.0,40.0,1.0,0.0
1051,52.0,6.0,60.0,1.0,0.0
1052,62.0,1.0,40.0,1.0,0.0
1053,76.0,33.0,30.0,0.0,0.0
1054,56.0,6.0,60.0,1.0,0.0
1055,62.0,2.0,40.0,1.0,0.0
1056,74.0,20.0,30.0,0.0,0.0
1057,52.0,0.0,40.0,1.0,0.0
1058,73.0,32.0,30.0,0.0,0.0
1059,73.0,21.0,30.0,0.0,0.0
1060,47.0,7.0,60.0,1.0,0.0
1061,71.0,10.0,30.0,0.0,0.0
1062,71.0,12.0,15.0,0.0,0.0
1063,62.0,1.0,40.0,1.0,0.0
1064,52.0,2.0,40.0,1.0,0.0
1065,56.0,8.0,60.0,1.0,0.0
1066,73.0,9.0,15.0,0.0,0.0
1067,71.0,20.0,15.0,0.0,0.0
1068,70.0,50.0,30.0,0.0,0.0
1069,71.0,53.0,60.0,0.0,0.0
1070,62.0,6.0,60.0,1.0,0.0
1071,56.0,2.0,40.0,1.0,0.0
1072,52.0,0.0,40.0,1.0,0.0
1073,78.0,20.0,90.0,0.0,0.0
1074,40.0,39.0,60.0,1.0,0.0
1075,56.0,6.0,60.0,1.0,0.0
1076,62.0,2.0,40.0,1.0,0.0
1077,52.0,0.0,40.0,1.0,0.0
1078,76.0,32.0,30.0,0.0,0.0
1079,74.0,19.0,30.0,0.0,0.0
1080,62.0,1.0,60.0,1.0,0.0
1081,52.0,7.0,60.0,1.0,0.0
1082,56.0,2.0,40.0,1.0,0.0
1083,73.0,32.0,30.0,0.0,0.0
1084,47.0,8.0,40.0,1.0,0.0
1085,71.0,19.0,30.0,0.0,0.0
1086,73.0,10.0,30.0,0.0,0.0
1087,52.0,3.0,40.0,1.0,0.0
1088,56.0,0.0,40.0,1.0,0.0
1089,62.0,8.0,60.0,1.0,0.0
1090,71.0,12.0,15.0,0.0,0.0
1091,73.0,9.0,15.0,0.0,0.0
1092,71.0,20.0,15.0,0.0,0.0
1093,70.0,28.0,30.0,0.0,0.0
1094,71.0,23.0,30.0,0.0,0.0
1095,40.0,9.0,60.0,1.0,0.0
1096,72.0,18.0,30.0,0.0,0.0
1097,73.0,22.0,15.0,0.0,0.0
1098,41.0,9.0,40.0,1.0,0.0
1099,74.0,10.0,20.0,0.0,0.0
1100,73.0,32.0,20.0,0.0,0.0
1101,56.0,1.0,40.0,1.0,0.0
1102,72.0,19.0,30.0,0.0,0.0
1103,59.0,6.0,60.0,1.0,0.0
1104,49.0,1.0,60.0,1.0,0.0
1105,73.0,30.0,30.0,0.0,0.0
1106,76.0,21.0,30.0,0.0,0.0
1107,59.0,2.0,40.0,1.0,0.0
1108,56.0,8.0,60.0,1.0,0.0
1109,49.0,1.0,60.0,1.0,0.0
1110,74.0,29.0,30.0,0.0,0.0
1111,73.0,24.0,30.0,0.0,0.0
1112,42.0,7.0,60.0,1.0,0.0
1113,74.0,28.0,30.0,0.0,0.0
1114,49.0,9.0,60.0,1.0,0.0
1115,57.0,0.0,60.0,1.0,0.0
1116,73.0,23.0,30.0,0.0,0.0
1117,72.0,28.0,30.0,0.0,0.0
1118,49.0,1.0,60.0,1.0,0.0
1119,57.0,8.0,60.0,1.0,0.0
1120,73.0,23.0,30.0,0.0,0.0
1121,78.0,19.0,30.0,0.0,0.0
1122,44.0,5.0,60.0,1.0,0.0
1123,76.0,22.0,20.0,0.0,0.0
1124,78.0,12.0,20.0,0.0,0.0
1125,76.0,30.0,15.0,0.0,0.0
1126,52.0,1.0,40.0,1.0,0.0
1127,75.0,22.0,30.0,0.0,0.0
1128,59.0,8.0,60.0,1.0,0.0
1129,62.0,1.0,60.0,1.0,0.0
1130,76.0,29.0,30.0,0.0,0.0
1131,59.0,0.0,60.0,1.0,0.0
1132,52.0,7.0,60.0,1.0,0.0
1133,80.0,22.0,30.0,0.0,0.0
1134,62.0,2.0,60.0,1.0,0.0
1135,78.0,28.0,30.0,0.0,0.0
1136,45.0,9.0,60.0,1.0,0.0
1137,76.0,23.0,30.0,0.0,0.0
1138,78.0,28.0,30.0,0.0,0.0
1139,52.0,8.0,60.0,1.0,0.0
1140,76.0,23.0,30.0,0.0,0.0
1141,61.0,1.0,60.0,1.0,0.0
1142,75.0,29.0,30.0,0.0,0.0
1143,76.0,32.0,30.0,0.0,0.0
1144,81.0,27.0,30.0,0.0,0.0
1145,80.0,23.0,30.0,0.0,0.0
1146,50.0,7.0,60.0,1.0,0.0
1147,78.0,32.0,30.0,0.0,0.0
1148,59.0,6.0,60.0,1.0,0.0
1149,54.0,2.0,60.0,1.0,0.0
1150,76.0,21.0,30.0,0.0,0.0
1151,74.0,31.0,30.0,0.0,0.0
1152,73.0,28.0,30.0,0.0,0.0
1153,71.0,32.0,30.0,0.0,0.0
1154,40.0,6.0,60.0,1.0,0.0
1155,69.0,22.0,30.0,0.0,0.0
1156,68.0,32.0,30.0,0.0,0.0
1157,49.0,2.0,60.0,1.0,0.0
1158,66.0,20.0,30.0,0.0,0.0
1159,52.0,6.0,60.0,1.0,0.0
1160,57.0,1.0,40.0,1.0,0.0
1161,64.0,32.0,30.0,0.0,0.0
1162,62.0,27.0,30.0,0.0,0.0
1163,61.0,30.0,30.0,0.0,0.0
1164,40.0,7.0,60.0,1.0,0.0
1165,59.0,25.0,30.0,0.0,0.0
1166,57.0,29.0,30.0,0.0,0.0
1167,50.0,9.0,60.0,1.0,0.0
1168,56.0,22.0,30.0,0.0,0.0
1169,52.0,0.0,60.0,1.0,0.0
1170,59.0,28.0,30.0,0.0,0.0
1171,66.0,23.0,30.0,0.0,0.0
1172,52.0,1.0,60.0,1.0,0.0
1173,56.0,1.0,60.0,1.0,0.0
1174,50.0,7.0,60.0,1.0,0.0
1175,64.0,28.0,30.0,0.0,0.0
1176,45.0,9.0,60.0,1.0,0.0
1177,63.0,23.0,30.0,0.0,0.0
1178,64.0,29.0,30.0,0.0,0.0
1179,66.0,22.0,30.0,0.0,0.0
1180,57.0,2.0,60.0,1.0,0.0
1181,52.0,7.0,60.0,1.0,0.0
1182,61.0,1.0,60.0,1.0,0.0
1183,68.0,27.0,30.0,0.0,0.0
1184,69.0,30.0,30.0,0.0,0.0
1185,71.0,22.0,30.0,0.0,0.0
1186,53.0,1.0,180.0,1.0,0.0
1187,73.0,19.0,20.0,0.0,0.0
1188,74.0,21.0,20.0,0.0,0.0
1189,73.0,28.0,20.0,0.0,0.0
1190,72.0,23.0,30.0,0.0,0.0
1191,59.0,6.0,60.0,1.0,0.0
1192,61.0,3.0,60.0,1.0,0.0
1193,73.0,28.0,30.0,0.0,0.0
1194,59.0,1.0,60.0,1.0,0.0
1195,76.0,23.0,30.0,0.0,0.0
1196,61.0,7.0,60.0,1.0,0.0
1197,74.0,29.0,30.0,0.0,0.0
1198,73.0,32.0,30.0,0.0,0.0
1199,54.0,1.0,180.0,1.0,0.0
1200,74.0,27.0,30.0,0.0,0.0
1201,57.0,2.0,60.0,1.0,0.0
1202,73.0,24.0,30.0,0.0,0.0
1203,61.0,4.0,60.0,1.0,0.0
1204,72.0,32.0,30.0,0.0,0.0
1205,73.0,21.0,30.0,0.0,0.0
1206,57.0,1.0,60.0,1.0,0.0
1207,61.0,6.0,60.0,1.0,0.0
1208,78.0,21.0,30.0,0.0,0.0
1209,56.0,6.0,60.0,1.0,0.0
1210,76.0,18.0,20.0,0.0,0.0
1211,78.0,16.0,15.0,0.0,0.0
1212,76.0,28.0,20.0,0.0,0.0
1213,62.0,2.0,60.0,1.0,0.0
1214,64.0,6.0,60.0,1.0,0.0
1215,75.0,24.0,30.0,0.0,0.0
1216,76.0,29.0,30.0,0.0,0.0
1217,80.0,23.0,30.0,0.0,0.0
1218,62.0,9.0,60.0,1.0,0.0
1219,64.0,0.0,60.0,1.0,0.0
1220,78.0,27.0,30.0,0.0,0.0
1221,76.0,25.0,30.0,0.0,0.0
1222,57.0,5.0,60.0,1.0,0.0
1223,78.0,32.0,30.0,0.0,0.0
1224,61.0,5.0,60.0,1.0,0.0
1225,64.0,2.0,60.0,1.0,0.0
1226,76.0,22.0,30.0,0.0,0.0
1227,75.0,31.0,30.0,0.0,0.0
1228,76.0,28.0,30.0,0.0,0.0
1229,85.0,32.0,30.0,0.0,0.0
1230,83.0,22.0,30.0,0.0,0.0
1231,50.0,6.0,60.0,1.0,0.0
1232,81.0,32.0,30.0,0.0,0.0
1233,66.0,1.0,60.0,1.0,0.0
1234,59.0,2.0,60.0,1.0,0.0
1235,57.0,5.0,60.0,1.0,0.0
1236,80.0,21.0,30.0,0.0,0.0
1237,78.0,32.0,30.0,0.0,0.0
1238,76.0,27.0,30.0,0.0,0.0
1239,74.0,30.0,30.0,0.0,0.0
1240,40.0,8.0,60.0,1.0,0.0
1241,73.0,24.0,30.0,0.0,0.0
1242,71.0,29.0,30.0,0.0,0.0
1243,52.0,2.0,60.0,1.0,0.0
1244,57.0,6.0,60.0,1.0,0.0
1245,69.0,23.0,30.0,0.0,0.0
1246,49.0,0.0,60.0,1.0,0.0
1247,68.0,28.0,30.0,0.0,0.0
1248,66.0,32.0,30.0,0.0,0.0
1249,64.0,28.0,30.0,0.0,0.0
1250,40.0,7.0,60.0,1.0,0.0
1251,65.0,25.0,30.0,0.0,0.0
1252,68.0,29.0,30.0,0.0,0.0
1253,50.0,7.0,60.0,1.0,0.0
1254,52.0,2.0,60.0,1.0,0.0
1255,66.0,23.0,30.0,0.0,0.0
1256,61.0,27.0,30.0,0.0,0.0
1257,62.0,24.0,30.0,0.0,0.0
1258,50.0,5.0,60.0,1.0,0.0
1259,52.0,1.0,60.0,1.0,0.0
1260,56.0,53.0,30.0,0.0,0.0
1261,57.0,52.0,60.0,0.0,0.0
1262,45.0,9.0,60.0,1.0,0.0
1263,52.0,2.0,60.0,1.0,0.0
1264,61.0,85.0,60.0,1.0,0.0
1265,73.0,21.0,90.0,0.0,0.0
1266,41.0,4.0,60.0,1.0,0.0
1267,74.0,14.0,20.0,0.0,0.0
1268,73.0,32.0,15.0,0.0,0.0
1269,72.0,22.0,30.0,0.0,0.0
1270,56.0,1.0,60.0,1.0,0.0
1271,49.0,5.0,60.0,1.0,0.0
1272,59.0,0.0,60.0,1.0,0.0
1273,73.0,32.0,30.0,0.0,0.0
1274,49.0,2.0,60.0,1.0,0.0
1275,59.0,5.0,60.0,1.0,0.0
1276,56.0,0.0,60.0,1.0,0.0
1277,76.0,22.0,30.0,0.0,0.0
1278,74.0,32.0,30.0,0.0,0.0
1279,42.0,5.0,60.0,1.0,0.0
1280,73.0,22.0,30.0,0.0,0.0
1281,74.0,30.0,30.0,0.0,0.0
1282,73.0,23.0,30.0,0.0,0.0
1283,57.0,3.0,60.0,1.0,0.0
1284,49.0,6.0,60.0,1.0,0.0
1285,72.0,29.0,30.0,0.0,0.0
1286,49.0,6.0,60.0,1.0,0.0
1287,73.0,23.0,30.0,0.0,0.0
1288,57.0,2.0,60.0,1.0,0.0
1289,78.0,18.0,30.0,0.0,0.0
1290,76.0,22.0,15.0,0.0,0.0
1291,44.0,6.0,60.0,1.0,0.0
1292,78.0,12.0,20.0,0.0,0.0
1293,76.0,32.0,15.0,0.0,0.0
1294,59.0,0.0,60.0,1.0,0.0
1295,52.0,1.0,60.0,1.0,0.0
1296,75.0,22.0,30.0,0.0,0.0
1297,62.0,6.0,60.0,1.0,0.0
1298,76.0,32.0,30.0,0.0,0.0
1299,52.0,1.0,60.0,1.0,0.0
1300,80.0,21.0,30.0,0.0,0.0
1301,62.0,4.0,60.0,1.0,0.0
1302,59.0,1.0,60.0,1.0,0.0
1303,78.0,30.0,30.0,0.0,0.0
1304,45.0,9.0,60.0,1.0,0.0
1305,76.0,23.0,30.0,0.0,0.0
1306,78.0,29.0,30.0,0.0,0.0
1307,61.0,6.0,60.0,1.0,0.0
1308,52.0,2.0,60.0,1.0,0.0
1309,76.0,23.0,30.0,0.0,0.0
1310,75.0,28.0,30.0,0.0,0.0
1311,76.0,32.0,30.0,0.0,0.0
1312,81.0,28.0,30.0,0.0,0.0
1313,50.0,6.0,60.0,1.0,0.0
1314,80.0,26.0,30.0,0.0,0.0
1315,78.0,29.0,30.0,0.0,0.0
1316,54.0,9.0,60.0,1.0,0.0
1317,59.0,0.0,60.0,1.0,0.0
1318,76.0,23.0,30.0,0.0,0.0
1319,74.0,27.0,30.0,0.0,0.0
1320,73.0,30.0,30.0,0.0,0.0
1321,71.0,32.0,30.0,0.0,0.0
1322,40.0,6.0,60.0,1.0,0.0
1323,69.0,23.0,30.0,0.0,0.0
1324,68.0,31.0,30.0,0.0,0.0
1325,66.0,22.0,30.0,0.0,0.0
1326,57.0,0.0,60.0,1.0,0.0
1327,52.0,4.0,60.0,1.0,0.0
1328,49.0,2.0,60.0,1.0,0.0
1329,64.0,32.0,30.0,0.0,0.0
1330,62.0,28.0,30.0,0.0,0.0
1331,61.0,32.0,30.0,0.0,0.0
1332,59.0,23.0,30.0,0.0,0.0
1333,40.0,6.0,60.0,1.0,0.0
1334,57.0,32.0,30.0,0.0,0.0
1335,56.0,20.0,30.0,0.0,0.0
1336,50.0,4.0,60.0,1.0,0.0
1337,52.0,3.0,60.0,1.0,0.0
1338,59.0,30.0,30.0,0.0,0.0
1339,56.0,2.0,60.0,1.0,0.0
1340,52.0,6.0,60.0,1.0,0.0
1341,50.0,0.0,60.0,1.0,0.0
1342,66.0,24.0,30.0,0.0,0.0
1343,64.0,29.0,30.0,0.0,0.0
1344,63.0,23.0,30.0,0.0,0.0
1345,45.0,8.0,60.0,1.0,0.0
1346,64.0,28.0,30.0,0.0,0.0
1347,66.0,24.0,30.0,0.0,0.0
1348,61.0,1.0,60.0,1.0,0.0
1349,57.0,1.0,60.0,1.0,0.0
1350,52.0,6.0,60.0,1.0,0.0
1351,68.0,28.0,30.0,0.0,0.0
1352,69.0,32.0,30.0,0.0,0.0
1353,71.0,19.0,30.0,0.0,0.0
1354,53.0,0.0,180.0,1.0,0.0
1355,73.0,22.0,20.0,0.0,0.0
1356,74.0,17.0,20.0,0.0,0.0
1357,73.0,30.0,15.0,0.0,0.0
1358,59.0,2.0,60.0,1.0,0.0
1359,72.0,23.0,30.0,0.0,0.0
1360,61.0,7.0,60.0,1.0,0.0
1361,73.0,29.0,30.0,0.0,0.0
1362,76.0,23.0,30.0,0.0,0.0
1363,59.0,2.0,60.0,1.0,0.0
1364,61.0,6.0,60.0,1.0,0.0
1365,74.0,28.0,30.0,0.0,0.0
1366,73.0,32.0,30.0,0.0,0.0
1367,54.0,7.0,180.0,1.0,0.0
1368,74.0,28.0,30.0,0.0,0.0
1369,73.0,24.0,30.0,0.0,0.0
1370,61.0,0.0,60.0,1.0,0.0
1371,57.0,8.0,60.0,1.0,0.0
1372,72.0,29.0,30.0,0.0,0.0
1373,57.0,1.0,60.0,1.0,0.0
1374,61.0,1.0,60.0,1.0,0.0
1375,73.0,23.0,30.0,0.0,0.0
1376,78.0,17.0,30.0,0.0,0.0
1377,56.0,0.0,180.0,1.0,0.0
1378,76.0,20.0,15.0,0.0,0.0
1379,78.0,22.0,15.0,0.0,0.0
1380,76.0,29.0,20.0,0.0,0.0
1381,62.0,7.0,60.0,1.0,0.0
1382,75.0,23.0,30.0,0.0,0.0
1383,64.0,1.0,60.0,1.0,0.0
1384,76.0,28.0,30.0,0.0,0.0
1385,80.0,23.0,30.0,0.0,0.0
1386,64.0,3.0,60.0,1.0,0.0
1387,62.0,6.0,60.0,1.0,0.0
1388,78.0,28.0,30.0,0.0,0.0
1389,57.0,8.0,60.0,1.0,0.0
1390,76.0,24.0,30.0,0.0,0.0
1391,78.0,29.0,30.0,0.0,0.0
1392,76.0,23.0,30.0,0.0,0.0
1393,64.0,7.0,60.0,1.0,0.0
1394,61.0,2.0,60.0,1.0,0.0
1395,75.0,27.0,30.0,0.0,0.0
1396,76.0,30.0,30.0,0.0,0.0
1397,97.0,24.0,30.0,0.0,0.0
1398,38.0,16.0,60.0,1.0,0.0
1399,95.0,21.0,20.0,0.0,0.0
1400,93.0,9.0,20.0,0.0,0.0
1401,92.0,20.0,20.0,0.0,0.0
1402,66.0,1.0,60.0,1.0,0.0
1403,57.0,1.0,60.0,1.0,0.0
1404,59.0,18.0,60.0,1.0,0.0
1405,90.0,24.0,20.0,0.0,0.0
1406,88.0,0.0,20.0,0.0,0.0
1407,87.0,26.0,20.0,0.0,0.0
1408,85.0,20.0,20.0,0.0,0.0
1409,83.0,25.0,20.0,0.0,0.0
1410,81.0,20.0,20.0,0.0,0.0
1411,80.0,23.0,20.0,0.0,0.0
1412,78.0,23.0,20.0,0.0,0.0
1413,76.0,22.0,20.0,0.0,0.0
1414,74.0,24.0,20.0,0.0,0.0
1415,73.0,21.0,20.0,0.0,0.0
1416,71.0,23.0,20.0,0.0,0.0
1417,69.0,21.0,20.0,0.0,0.0
1418,68.0,24.0,20.0,0.0,0.0
1419,40.0,14.0,60.0,1.0,0.0
1420,66.0,8.0,20.0,0.0,0.0
1421,65.0,24.0,20.0,0.0,0.0
1422,52.0,19.0,60.0,1.0,0.0
1423,50.0,2.0,60.0,1.0,0.0
1424,68.0,20.0,20.0,0.0,0.0
1425,66.0,1.0,20.0,0.0,0.0
1426,61.0,25.0,20.0,0.0,0.0
1427,52.0,5.0,60.0,1.0,0.0
1428,50.0,2.0,60.0,1.0,0.0
1429,62.0,15.0,20.0,0.0,0.0
1430,56.0,61.0,20.0,0.0,0.0
1431,57.0,590.0,150.0,0.0,0.0
1432,33.0,72.0,60.0,1.0,0.0
1433,52.0,3.0,60.0,1.0,0.0
1434,61.0,3.0,90.0,1.0,0.0
1435,49.0,3.0,60.0,1.0,0.0
