,note,step,duration,channel,velocity
0,52.0,5.0,60.0,0.0,0.0
1,40.0,4.0,60.0,0.0,0.0
2,64.0,1.0,60.0,0.0,0.0
3,76.0,19.0,30.0,0.0,0.0
4,74.0,22.0,30.0,0.0,0.0
5,72.0,30.0,30.0,0.0,0.0
6,71.0,25.0,30.0,0.0,0.0
7,69.0,1.0,30.0,0.0,0.0
8,45.0,20.0,30.0,0.0,0.0
9,81.0,0.0,30.0,0.0,0.0
10,33.0,9.0,30.0,0.0,0.0
11,71.0,38.0,30.0,0.0,0.0
12,68.0,27.0,30.0,0.0,0.0
13,69.0,25.0,30.0,0.0,0.0
14,71.0,1.0,30.0,0.0,0.0
15,65.0,24.0,30.0,0.0,0.0
16,62.0,15.0,240.0,0.0,0.0
17,72.0,37.0,30.0,0.0,0.0
18,69.0,26.0,30.0,0.0,0.0
19,71.0,28.0,30.0,0.0,0.0
20,64.0,1.0,30.0,0.0,0.0
21,72.0,23.0,30.0,0.0,0.0
22,60.0,0.0,30.0,0.0,0.0
23,74.0,33.0,20.0,0.0,0.0
24,71.0,32.0,30.0,0.0,0.0
25,72.0,13.0,30.0,0.0,0.0
26,74.0,21.0,30.0,0.0,0.0
27,59.0,4.0,30.0,0.0,0.0
28,76.0,39.0,30.0,0.0,0.0
29,72.0,29.0,30.0,0.0,0.0
30,74.0,32.0,30.0,0.0,0.0
31,76.0,23.0,30.0,0.0,0.0
32,60.0,0.0,90.0,0.0,0.0
33,57.0,13.0,90.0,0.0,0.0
34,77.0,18.0,30.0,0.0,0.0
35,76.0,33.0,30.0,0.0,0.0
36,81.0,33.0,30.0,0.0,0.0
37,62.0,2.0,60.0,0.0,0.0
38,53.0,0.0,60.0,0.0,0.0
39,74.0,19.0,30.0,0.0,0.0
40,57.0,24.0,60.0,0.0,0.0
41,76.0,6.0,20.0,0.0,0.0
42,74.0,39.0,30.0,0.0,0.0
43,81.0,29.0,30.0,0.0,0.0
44,60.0,0.0,60.0,0.0,0.0
45,72.0,23.0,30.0,0.0,0.0
46,52.0,1.0,60.0,0.0,0.0
47,57.0,1.0,60.0,0.0,0.0
48,74.0,27.0,30.0,0.0,0.0
49,72.0,40.0,30.0,0.0,0.0
50,81.0,23.0,30.0,0.0,0.0
51,59.0,1.0,60.0,0.0,0.0
52,71.0,25.0,30.0,0.0,0.0
53,50.0,0.0,60.0,0.0,0.0
54,57.0,27.0,60.0,0.0,0.0
55,72.0,5.0,30.0,0.0,0.0
56,71.0,33.0,30.0,0.0,0.0
57,81.0,12.0,30.0,0.0,0.0
58,45.0,34.0,30.0,0.0,0.0
59,52.0,16.0,60.0,0.0,0.0
60,69.0,28.0,60.0,0.0,0.0
61,60.0,0.0,30.0,0.0,0.0
62,76.0,3.0,60.0,0.0,0.0
63,84.0,29.0,30.0,0.0,0.0
64,77.0,33.0,30.0,0.0,0.0
65,40.0,17.0,60.0,0.0,0.0
66,50.0,8.0,60.0,0.0,0.0
67,56.0,2.0,60.0,0.0,0.0
68,68.0,28.0,60.0,0.0,0.0
69,74.0,31.0,60.0,0.0,0.0
70,83.0,1.0,30.0,0.0,0.0
71,76.0,55.0,30.0,0.0,0.0
72,57.0,0.0,60.0,0.0,0.0
73,45.0,2.0,60.0,0.0,0.0
74,48.0,0.0,60.0,0.0,0.0
75,64.0,27.0,60.0,0.0,0.0
76,72.0,29.0,60.0,0.0,0.0
77,81.0,4.0,30.0,0.0,0.0
78,74.0,58.0,30.0,0.0,0.0
79,52.0,1.0,60.0,0.0,0.0
80,64.0,0.0,60.0,0.0,0.0
81,40.0,1.0,60.0,0.0,0.0
82,71.0,26.0,30.0,0.0,0.0
83,80.0,29.0,30.0,0.0,0.0
84,72.0,20.0,30.0,0.0,0.0
85,57.0,0.0,60.0,0.0,0.0
86,81.0,32.0,60.0,0.0,0.0
87,69.0,7.0,60.0,0.0,0.0
88,45.0,8.0,60.0,0.0,0.0
89,33.0,32.0,15.0,0.0,0.0
90,65.0,1.0,30.0,0.0,0.0
91,53.0,0.0,30.0,0.0,0.0
92,41.0,25.0,30.0,0.0,0.0
93,77.0,40.0,30.0,0.0,0.0
94,64.0,19.0,30.0,0.0,0.0
95,52.0,1.0,30.0,0.0,0.0
96,40.0,6.0,30.0,0.0,0.0
97,76.0,29.0,30.0,0.0,0.0
98,63.0,3.0,30.0,0.0,0.0
99,51.0,0.0,30.0,0.0,0.0
100,39.0,25.0,30.0,0.0,0.0
101,75.0,37.0,30.0,0.0,0.0
102,52.0,1.0,60.0,0.0,0.0
103,64.0,23.0,60.0,0.0,0.0
104,40.0,28.0,30.0,0.0,0.0
105,76.0,1.0,30.0,0.0,0.0
106,33.0,9.0,20.0,0.0,0.0
107,45.0,6.0,30.0,0.0,0.0
108,57.0,23.0,30.0,0.0,0.0
109,69.0,46.0,30.0,0.0,0.0
110,71.0,2.0,60.0,0.0,0.0
111,59.0,8.0,60.0,0.0,0.0
112,63.0,1.0,60.0,0.0,0.0
113,57.0,10.0,60.0,0.0,0.0
114,66.0,3.0,60.0,0.0,0.0
115,47.0,19.0,30.0,0.0,0.0
116,45.0,6.0,30.0,0.0,0.0
117,43.0,32.0,30.0,0.0,0.0
118,42.0,24.0,30.0,0.0,0.0
119,55.0,1.0,20.0,0.0,0.0
120,40.0,3.0,20.0,0.0,0.0
121,67.0,9.0,30.0,0.0,0.0
122,64.0,1.0,30.0,0.0,0.0
123,59.0,15.0,30.0,0.0,0.0
124,42.0,32.0,20.0,0.0,0.0
125,39.0,31.0,30.0,0.0,0.0
126,40.0,26.0,30.0,0.0,0.0
127,42.0,35.0,30.0,0.0,0.0
128,57.0,0.0,60.0,0.0,0.0
129,59.0,1.0,60.0,0.0,0.0
130,63.0,26.0,60.0,0.0,0.0
131,43.0,0.0,30.0,0.0,0.0
132,40.0,30.0,30.0,0.0,0.0
133,42.0,28.0,30.0,0.0,0.0
134,64.0,0.0,60.0,0.0,0.0
135,43.0,34.0,30.0,0.0,0.0
136,55.0,1.0,60.0,0.0,0.0
137,59.0,21.0,60.0,0.0,0.0
138,45.0,1.0,30.0,0.0,0.0
139,42.0,34.0,20.0,0.0,0.0
140,43.0,29.0,30.0,0.0,0.0
141,64.0,0.0,60.0,0.0,0.0
142,57.0,0.0,60.0,0.0,0.0
143,60.0,0.0,60.0,0.0,0.0
144,45.0,33.0,30.0,0.0,0.0
145,47.0,22.0,30.0,0.0,0.0
146,43.0,37.0,20.0,0.0,0.0
147,45.0,31.0,30.0,0.0,0.0
148,64.0,0.0,60.0,0.0,0.0
149,59.0,18.0,60.0,0.0,0.0
150,47.0,18.0,30.0,0.0,0.0
151,55.0,1.0,60.0,0.0,0.0
152,48.0,16.0,20.0,0.0,0.0
153,47.0,29.0,30.0,0.0,0.0
154,52.0,31.0,30.0,0.0,0.0
155,64.0,1.0,60.0,0.0,0.0
156,57.0,0.0,60.0,0.0,0.0
157,60.0,25.0,60.0,0.0,0.0
158,45.0,31.0,20.0,0.0,0.0
159,47.0,2.0,30.0,0.0,0.0
160,45.0,24.0,30.0,0.0,0.0
161,52.0,36.0,20.0,0.0,0.0
162,64.0,1.0,60.0,0.0,0.0
163,59.0,16.0,60.0,0.0,0.0
164,43.0,28.0,30.0,0.0,0.0
165,45.0,5.0,30.0,0.0,0.0
166,43.0,28.0,20.0,0.0,0.0
167,52.0,32.0,20.0,0.0,0.0
168,66.0,2.0,60.0,0.0,0.0
169,42.0,36.0,20.0,0.0,0.0
170,59.0,0.0,60.0,0.0,0.0
171,57.0,20.0,60.0,0.0,0.0
172,43.0,2.0,30.0,0.0,0.0
173,42.0,25.0,30.0,0.0,0.0
174,51.0,40.0,20.0,0.0,0.0
175,67.0,2.0,60.0,0.0,0.0
176,40.0,10.0,30.0,0.0,0.0
177,64.0,0.0,60.0,0.0,0.0
178,59.0,59.0,60.0,0.0,0.0
179,55.0,15.0,30.0,0.0,0.0
180,48.0,3.0,30.0,0.0,0.0
181,55.0,30.0,60.0,0.0,0.0
182,47.0,1.0,30.0,0.0,0.0
183,83.0,1.0,120.0,0.0,0.0
184,78.0,25.0,120.0,0.0,0.0
185,71.0,14.0,120.0,0.0,0.0
186,39.0,34.0,30.0,0.0,0.0
187,48.0,42.0,30.0,0.0,0.0
188,54.0,2.0,60.0,0.0,0.0
189,47.0,3.0,30.0,0.0,0.0
190,40.0,32.0,30.0,0.0,0.0
191,71.0,0.0,60.0,0.0,0.0
192,79.0,54.0,60.0,0.0,0.0
193,48.0,1.0,30.0,0.0,0.0
194,55.0,22.0,60.0,0.0,0.0
195,47.0,3.0,30.0,0.0,0.0
196,59.0,17.0,60.0,0.0,0.0
197,71.0,27.0,90.0,0.0,0.0
198,66.0,56.0,120.0,0.0,0.0
199,39.0,40.0,20.0,0.0,0.0
200,48.0,10.0,30.0,0.0,0.0
201,54.0,7.0,60.0,0.0,0.0
202,47.0,3.0,30.0,0.0,0.0
203,67.0,2.0,60.0,0.0,0.0
204,40.0,0.0,60.0,0.0,0.0
205,59.0,49.0,60.0,0.0,0.0
206,52.0,0.0,60.0,0.0,0.0
207,60.0,7.0,30.0,0.0,0.0
208,57.0,12.0,60.0,0.0,0.0
209,63.0,30.0,30.0,0.0,0.0
210,59.0,29.0,30.0,0.0,0.0
211,55.0,1.0,30.0,0.0,0.0
212,64.0,37.0,30.0,0.0,0.0
213,63.0,25.0,30.0,0.0,0.0
214,60.0,6.0,60.0,0.0,0.0
215,66.0,22.0,30.0,0.0,0.0
216,62.0,0.0,30.0,0.0,0.0
217,59.0,26.0,30.0,0.0,0.0
218,67.0,66.0,30.0,0.0,0.0
219,65.0,1.0,60.0,0.0,0.0
220,62.0,1.0,60.0,0.0,0.0
221,68.0,24.0,30.0,0.0,0.0
222,64.0,27.0,30.0,0.0,0.0
223,60.0,0.0,30.0,0.0,0.0
224,69.0,31.0,30.0,0.0,0.0
225,62.0,9.0,30.0,0.0,0.0
226,52.0,1.0,60.0,0.0,0.0
227,68.0,24.0,30.0,0.0,0.0
228,59.0,5.0,60.0,0.0,0.0
229,71.0,29.0,30.0,0.0,0.0
230,57.0,26.0,60.0,0.0,0.0
231,60.0,0.0,60.0,0.0,0.0
232,69.0,23.0,30.0,0.0,0.0
233,71.0,7.0,30.0,0.0,0.0
234,68.0,27.0,30.0,0.0,0.0
235,69.0,28.0,30.0,0.0,0.0
236,71.0,27.0,30.0,0.0,0.0
237,62.0,0.0,60.0,0.0,0.0
238,65.0,27.0,60.0,0.0,0.0
239,72.0,8.0,20.0,0.0,0.0
240,69.0,28.0,30.0,0.0,0.0
241,71.0,29.0,30.0,0.0,0.0
242,64.0,3.0,60.0,0.0,0.0
243,72.0,30.0,30.0,0.0,0.0
244,60.0,29.0,60.0,0.0,0.0
245,74.0,1.0,30.0,0.0,0.0
246,71.0,33.0,30.0,0.0,0.0
247,72.0,36.0,30.0,0.0,0.0
248,74.0,17.0,30.0,0.0,0.0
249,62.0,1.0,60.0,0.0,0.0
250,59.0,30.0,60.0,0.0,0.0
251,76.0,9.0,20.0,0.0,0.0
252,72.0,35.0,30.0,0.0,0.0
253,74.0,26.0,30.0,0.0,0.0
254,76.0,26.0,30.0,0.0,0.0
255,60.0,0.0,60.0,0.0,0.0
256,57.0,31.0,60.0,0.0,0.0
257,77.0,5.0,30.0,0.0,0.0
258,76.0,58.0,30.0,0.0,0.0
259,81.0,26.0,60.0,0.0,0.0
260,53.0,0.0,60.0,0.0,0.0
261,74.0,2.0,30.0,0.0,0.0
262,57.0,0.0,60.0,0.0,0.0
263,62.0,26.0,60.0,0.0,0.0
264,76.0,6.0,30.0,0.0,0.0
265,74.0,59.0,30.0,0.0,0.0
266,81.0,3.0,60.0,0.0,0.0
267,72.0,23.0,30.0,0.0,0.0
268,60.0,1.0,60.0,0.0,0.0
269,52.0,30.0,60.0,0.0,0.0
270,57.0,0.0,60.0,0.0,0.0
271,74.0,2.0,30.0,0.0,0.0
272,72.0,54.0,30.0,0.0,0.0
273,81.0,16.0,60.0,0.0,0.0
274,71.0,16.0,30.0,0.0,0.0
275,59.0,1.0,60.0,0.0,0.0
276,57.0,1.0,60.0,0.0,0.0
277,50.0,31.0,60.0,0.0,0.0
278,72.0,2.0,30.0,0.0,0.0
279,71.0,61.0,30.0,0.0,0.0
280,81.0,30.0,60.0,0.0,0.0
281,45.0,0.0,90.0,0.0,0.0
282,52.0,1.0,60.0,0.0,0.0
283,69.0,6.0,60.0,0.0,0.0
284,60.0,21.0,60.0,0.0,0.0
285,76.0,30.0,60.0,0.0,0.0
286,84.0,3.0,60.0,0.0,0.0
287,77.0,37.0,30.0,0.0,0.0
288,40.0,10.0,60.0,0.0,0.0
289,50.0,8.0,60.0,0.0,0.0
290,56.0,1.0,60.0,0.0,0.0
291,68.0,30.0,60.0,0.0,0.0
292,74.0,29.0,60.0,0.0,0.0
293,83.0,27.0,60.0,0.0,0.0
294,76.0,6.0,60.0,0.0,0.0
295,41.0,14.0,60.0,0.0,0.0
296,48.0,10.0,60.0,0.0,0.0
297,65.0,1.0,60.0,0.0,0.0
298,57.0,30.0,60.0,0.0,0.0
299,71.0,29.0,60.0,0.0,0.0
300,81.0,25.0,60.0,0.0,0.0
301,72.0,33.0,60.0,0.0,0.0
302,61.0,1.0,60.0,0.0,0.0
303,58.0,1.0,60.0,0.0,0.0
304,64.0,3.0,60.0,0.0,0.0
305,55.0,21.0,60.0,0.0,0.0
306,49.0,1.0,60.0,0.0,0.0
307,69.0,29.0,60.0,0.0,0.0
308,79.0,31.0,60.0,0.0,0.0
309,70.0,28.0,60.0,0.0,0.0
310,62.0,1.0,60.0,0.0,0.0
311,65.0,20.0,90.0,0.0,0.0
312,57.0,1.0,60.0,0.0,0.0
313,53.0,5.0,60.0,0.0,0.0
314,50.0,0.0,60.0,0.0,0.0
315,69.0,18.0,30.0,0.0,0.0
316,46.0,2.0,30.0,0.0,0.0
317,77.0,3.0,30.0,0.0,0.0
318,74.0,37.0,30.0,0.0,0.0
319,57.0,1.0,30.0,0.0,0.0
320,77.0,1.0,90.0,0.0,0.0
321,45.0,25.0,30.0,0.0,0.0
322,81.0,31.0,30.0,0.0,0.0
323,53.0,1.0,30.0,0.0,0.0
324,89.0,1.0,30.0,0.0,0.0
325,41.0,30.0,30.0,0.0,0.0
326,86.0,24.0,30.0,0.0,0.0
327,50.0,1.0,30.0,0.0,0.0
328,38.0,1.0,30.0,0.0,0.0
329,81.0,27.0,30.0,0.0,0.0
330,77.0,28.0,30.0,0.0,0.0
331,33.0,7.0,30.0,0.0,0.0
332,45.0,0.0,30.0,0.0,0.0
333,74.0,22.0,30.0,0.0,0.0
334,69.0,33.0,30.0,0.0,0.0
335,46.0,49.0,60.0,0.0,0.0
336,34.0,58.0,120.0,0.0,0.0
337,65.0,13.0,30.0,0.0,0.0
338,62.0,15.0,60.0,0.0,0.0
339,58.0,11.0,30.0,0.0,0.0
340,53.0,7.0,30.0,0.0,0.0
341,37.0,2.0,60.0,0.0,0.0
342,64.0,40.0,150.0,0.0,0.0
343,55.0,7.0,360.0,0.0,0.0
344,58.0,10.0,330.0,0.0,0.0
345,38.0,28.0,30.0,0.0,0.0
346,36.0,32.0,30.0,0.0,0.0
347,37.0,30.0,30.0,0.0,0.0
348,38.0,0.0,30.0,0.0,0.0
349,62.0,1.0,120.0,0.0,0.0
350,40.0,27.0,30.0,0.0,0.0
351,37.0,31.0,30.0,0.0,0.0
352,38.0,26.0,30.0,0.0,0.0
353,61.0,33.0,120.0,0.0,0.0
354,40.0,33.0,30.0,0.0,0.0
355,41.0,22.0,30.0,0.0,0.0
356,38.0,20.0,30.0,0.0,0.0
357,40.0,2.0,30.0,0.0,0.0
358,62.0,30.0,90.0,0.0,0.0
359,41.0,33.0,30.0,0.0,0.0
360,58.0,3.0,90.0,0.0,0.0
361,53.0,6.0,90.0,0.0,0.0
362,43.0,18.0,30.0,0.0,0.0
363,41.0,3.0,30.0,0.0,0.0
364,43.0,33.0,30.0,0.0,0.0
365,37.0,28.0,30.0,0.0,0.0
366,55.0,28.0,360.0,0.0,0.0
367,58.0,25.0,300.0,0.0,0.0
368,64.0,15.0,120.0,0.0,0.0
369,38.0,31.0,30.0,0.0,0.0
370,36.0,30.0,30.0,0.0,0.0
371,37.0,13.0,30.0,0.0,0.0
372,38.0,32.0,30.0,0.0,0.0
373,62.0,7.0,120.0,0.0,0.0
374,40.0,30.0,30.0,0.0,0.0
375,37.0,23.0,30.0,0.0,0.0
376,38.0,25.0,30.0,0.0,0.0
377,61.0,5.0,120.0,0.0,0.0
378,40.0,33.0,30.0,0.0,0.0
379,41.0,4.0,30.0,0.0,0.0
380,38.0,29.0,30.0,0.0,0.0
381,40.0,1.0,30.0,0.0,0.0
382,62.0,4.0,120.0,0.0,0.0
383,57.0,0.0,120.0,0.0,0.0
384,41.0,30.0,30.0,0.0,0.0
385,43.0,30.0,30.0,0.0,0.0
386,41.0,28.0,30.0,0.0,0.0
387,43.0,32.0,30.0,0.0,0.0
388,44.0,29.0,30.0,0.0,0.0
389,71.0,16.0,120.0,0.0,0.0
390,62.0,5.0,330.0,0.0,0.0
391,65.0,20.0,300.0,0.0,0.0
392,45.0,30.0,30.0,0.0,0.0
393,42.0,32.0,30.0,0.0,0.0
394,44.0,10.0,30.0,0.0,0.0
395,69.0,19.0,120.0,0.0,0.0
396,45.0,25.0,30.0,0.0,0.0
397,47.0,31.0,20.0,0.0,0.0
398,44.0,35.0,30.0,0.0,0.0
399,45.0,1.0,30.0,0.0,0.0
400,47.0,35.0,20.0,0.0,0.0
401,68.0,24.0,120.0,0.0,0.0
402,48.0,5.0,30.0,0.0,0.0
403,45.0,28.0,30.0,0.0,0.0
404,47.0,4.0,30.0,0.0,0.0
405,48.0,37.0,30.0,0.0,0.0
406,69.0,23.0,240.0,0.0,0.0
407,60.0,3.0,90.0,0.0,0.0
408,64.0,2.0,90.0,0.0,0.0
409,50.0,20.0,30.0,0.0,0.0
410,47.0,30.0,30.0,0.0,0.0
411,48.0,31.0,30.0,0.0,0.0
412,50.0,30.0,30.0,0.0,0.0
413,65.0,18.0,60.0,0.0,0.0
414,59.0,24.0,210.0,0.0,0.0
415,52.0,11.0,30.0,0.0,0.0
416,48.0,35.0,30.0,0.0,0.0
417,50.0,5.0,30.0,0.0,0.0
418,68.0,35.0,120.0,0.0,0.0
419,64.0,21.0,60.0,0.0,0.0
420,52.0,30.0,30.0,0.0,0.0
421,53.0,8.0,30.0,0.0,0.0
422,52.0,0.0,30.0,0.0,0.0
423,50.0,2.0,30.0,0.0,0.0
424,69.0,25.0,90.0,0.0,0.0
425,64.0,7.0,90.0,0.0,0.0
426,48.0,28.0,30.0,0.0,0.0
427,60.0,0.0,90.0,0.0,0.0
428,47.0,21.0,30.0,0.0,0.0
429,45.0,6.0,30.0,0.0,0.0
430,43.0,25.0,30.0,0.0,0.0
431,60.0,1.0,120.0,0.0,0.0
432,64.0,6.0,120.0,0.0,0.0
433,81.0,11.0,60.0,0.0,0.0
434,69.0,31.0,120.0,0.0,0.0
435,41.0,33.0,30.0,0.0,0.0
436,40.0,3.0,30.0,0.0,0.0
437,38.0,34.0,20.0,0.0,0.0
438,36.0,1.0,30.0,0.0,0.0
439,35.0,24.0,30.0,0.0,0.0
440,63.0,1.0,30.0,0.0,0.0
441,64.0,40.0,30.0,0.0,0.0
442,61.0,25.0,30.0,0.0,0.0
443,63.0,32.0,30.0,0.0,0.0
444,59.0,5.0,30.0,0.0,0.0
445,64.0,6.0,30.0,0.0,0.0
446,55.0,9.0,30.0,0.0,0.0
447,66.0,37.0,20.0,0.0,0.0
448,63.0,28.0,30.0,0.0,0.0
449,64.0,31.0,30.0,0.0,0.0
450,57.0,11.0,30.0,0.0,0.0
451,66.0,3.0,30.0,0.0,0.0
452,54.0,11.0,30.0,0.0,0.0
453,67.0,36.0,30.0,0.0,0.0
454,64.0,26.0,30.0,0.0,0.0
455,66.0,30.0,30.0,0.0,0.0
456,52.0,16.0,60.0,0.0,0.0
457,55.0,11.0,30.0,0.0,0.0
458,67.0,3.0,30.0,0.0,0.0
459,69.0,32.0,30.0,0.0,0.0
460,66.0,31.0,30.0,0.0,0.0
461,67.0,29.0,30.0,0.0,0.0
462,54.0,38.0,60.0,0.0,0.0
463,47.0,16.0,30.0,0.0,0.0
464,69.0,3.0,30.0,0.0,0.0
465,51.0,1.0,60.0,0.0,0.0
466,71.0,0.0,20.0,0.0,0.0
467,69.0,23.0,30.0,0.0,0.0
468,78.0,31.0,30.0,0.0,0.0
469,52.0,24.0,30.0,0.0,0.0
470,55.0,4.0,30.0,0.0,0.0
471,67.0,2.0,30.0,0.0,0.0
472,47.0,2.0,30.0,0.0,0.0
473,69.0,29.0,30.0,0.0,0.0
474,67.0,30.0,30.0,0.0,0.0
475,76.0,30.0,30.0,0.0,0.0
476,66.0,3.0,30.0,0.0,0.0
477,57.0,6.0,30.0,0.0,0.0
478,47.0,2.0,30.0,0.0,0.0
479,54.0,21.0,30.0,0.0,0.0
480,67.0,30.0,30.0,0.0,0.0
481,66.0,22.0,30.0,0.0,0.0
482,75.0,41.0,30.0,0.0,0.0
483,60.0,11.0,90.0,0.0,0.0
484,48.0,15.0,90.0,0.0,0.0
485,64.0,32.0,30.0,0.0,0.0
486,66.0,7.0,30.0,0.0,0.0
487,64.0,18.0,30.0,0.0,0.0
488,76.0,35.0,30.0,0.0,0.0
489,39.0,27.0,30.0,0.0,0.0
490,69.0,0.0,60.0,0.0,0.0
491,66.0,2.0,60.0,0.0,0.0
492,60.0,18.0,60.0,0.0,0.0
493,40.0,13.0,30.0,0.0,0.0
494,38.0,34.0,30.0,0.0,0.0
495,39.0,27.0,30.0,0.0,0.0
496,59.0,23.0,60.0,0.0,0.0
497,64.0,4.0,60.0,0.0,0.0
498,67.0,0.0,60.0,0.0,0.0
499,40.0,30.0,30.0,0.0,0.0
500,42.0,2.0,30.0,0.0,0.0
501,39.0,33.0,20.0,0.0,0.0
502,40.0,28.0,30.0,0.0,0.0
503,66.0,2.0,60.0,0.0,0.0
504,42.0,32.0,30.0,0.0,0.0
505,57.0,0.0,60.0,0.0,0.0
506,63.0,27.0,60.0,0.0,0.0
507,43.0,0.0,30.0,0.0,0.0
508,40.0,29.0,30.0,0.0,0.0
509,42.0,27.0,30.0,0.0,0.0
510,64.0,2.0,60.0,0.0,0.0
511,59.0,8.0,60.0,0.0,0.0
512,43.0,26.0,20.0,0.0,0.0
513,55.0,24.0,60.0,0.0,0.0
514,45.0,1.0,30.0,0.0,0.0
515,42.0,33.0,30.0,0.0,0.0
516,43.0,33.0,30.0,0.0,0.0
517,63.0,2.0,90.0,0.0,0.0
518,45.0,27.0,30.0,0.0,0.0
519,60.0,32.0,90.0,0.0,0.0
520,54.0,13.0,60.0,0.0,0.0
521,47.0,18.0,30.0,0.0,0.0
522,45.0,30.0,60.0,0.0,0.0
523,54.0,1.0,30.0,0.0,0.0
524,64.0,1.0,90.0,0.0,0.0
525,43.0,30.0,30.0,0.0,0.0
526,59.0,1.0,90.0,0.0,0.0
527,55.0,15.0,90.0,0.0,0.0
528,45.0,32.0,30.0,0.0,0.0
529,43.0,35.0,60.0,0.0,0.0
530,52.0,33.0,60.0,0.0,0.0
531,42.0,8.0,20.0,0.0,0.0
532,66.0,2.0,90.0,0.0,0.0
533,57.0,1.0,90.0,0.0,0.0
534,59.0,15.0,90.0,0.0,0.0
535,43.0,27.0,30.0,0.0,0.0
536,42.0,44.0,60.0,0.0,0.0
537,51.0,1.0,60.0,0.0,0.0
538,59.0,7.0,150.0,0.0,0.0
539,71.0,5.0,150.0,0.0,0.0
540,83.0,37.0,60.0,0.0,0.0
541,41.0,25.0,30.0,0.0,0.0
542,42.0,11.0,30.0,0.0,0.0
543,41.0,31.0,60.0,0.0,0.0
544,50.0,15.0,30.0,0.0,0.0
545,49.0,6.0,60.0,0.0,0.0
546,65.0,23.0,30.0,0.0,0.0
547,37.0,21.0,60.0,0.0,0.0
548,66.0,3.0,20.0,0.0,0.0
549,64.0,30.0,20.0,0.0,0.0
550,65.0,29.0,30.0,0.0,0.0
551,66.0,24.0,30.0,0.0,0.0
552,57.0,3.0,60.0,0.0,0.0
553,61.0,21.0,60.0,0.0,0.0
554,68.0,8.0,20.0,0.0,0.0
555,65.0,30.0,30.0,0.0,0.0
556,66.0,30.0,30.0,0.0,0.0
557,68.0,22.0,30.0,0.0,0.0
558,56.0,24.0,60.0,0.0,0.0
559,59.0,0.0,60.0,0.0,0.0
560,69.0,11.0,20.0,0.0,0.0
561,66.0,34.0,30.0,0.0,0.0
562,68.0,27.0,30.0,0.0,0.0
563,54.0,1.0,60.0,0.0,0.0
564,57.0,31.0,60.0,0.0,0.0
565,69.0,21.0,30.0,0.0,0.0
566,71.0,6.0,20.0,0.0,0.0
567,68.0,33.0,30.0,0.0,0.0
568,69.0,23.0,30.0,0.0,0.0
569,56.0,2.0,60.0,0.0,0.0
570,53.0,3.0,60.0,0.0,0.0
571,71.0,23.0,30.0,0.0,0.0
572,49.0,19.0,60.0,0.0,0.0
573,73.0,10.0,20.0,0.0,0.0
574,71.0,37.0,20.0,0.0,0.0
575,80.0,29.0,30.0,0.0,0.0
576,57.0,0.0,60.0,0.0,0.0
577,49.0,29.0,60.0,0.0,0.0
578,54.0,0.0,60.0,0.0,0.0
579,69.0,29.0,30.0,0.0,0.0
580,71.0,1.0,30.0,0.0,0.0
581,69.0,28.0,30.0,0.0,0.0
582,78.0,34.0,30.0,0.0,0.0
583,68.0,25.0,30.0,0.0,0.0
584,59.0,0.0,60.0,0.0,0.0
585,56.0,2.0,60.0,0.0,0.0
586,49.0,25.0,60.0,0.0,0.0
587,69.0,4.0,30.0,0.0,0.0
588,68.0,30.0,30.0,0.0,0.0
589,77.0,34.0,30.0,0.0,0.0
590,62.0,1.0,60.0,0.0,0.0
591,66.0,28.0,30.0,0.0,0.0
592,50.0,1.0,60.0,0.0,0.0
593,68.0,26.0,30.0,0.0,0.0
594,66.0,29.0,30.0,0.0,0.0
595,78.0,31.0,30.0,0.0,0.0
596,41.0,29.0,30.0,0.0,0.0
597,71.0,25.0,60.0,0.0,0.0
598,62.0,0.0,60.0,0.0,0.0
599,42.0,5.0,30.0,0.0,0.0
600,40.0,29.0,30.0,0.0,0.0
601,41.0,29.0,30.0,0.0,0.0
602,66.0,1.0,90.0,0.0,0.0
603,42.0,27.0,30.0,0.0,0.0
604,69.0,0.0,90.0,0.0,0.0
605,61.0,25.0,90.0,0.0,0.0
606,44.0,32.0,20.0,0.0,0.0
607,41.0,5.0,30.0,0.0,0.0
608,42.0,28.0,30.0,0.0,0.0
609,65.0,29.0,90.0,0.0,0.0
610,68.0,0.0,90.0,0.0,0.0
611,44.0,30.0,30.0,0.0,0.0
612,59.0,0.0,90.0,0.0,0.0
613,45.0,29.0,30.0,0.0,0.0
614,42.0,5.0,30.0,0.0,0.0
615,44.0,27.0,30.0,0.0,0.0
616,66.0,2.0,120.0,0.0,0.0
617,45.0,28.0,30.0,0.0,0.0
618,57.0,30.0,90.0,0.0,0.0
619,61.0,0.0,90.0,0.0,0.0
620,47.0,29.0,30.0,0.0,0.0
621,44.0,3.0,30.0,0.0,0.0
622,45.0,26.0,30.0,0.0,0.0
623,61.0,0.0,90.0,0.0,0.0
624,46.0,36.0,20.0,0.0,0.0
625,55.0,5.0,90.0,0.0,0.0
626,64.0,0.0,90.0,0.0,0.0
627,47.0,29.0,30.0,0.0,0.0
628,45.0,31.0,30.0,0.0,0.0
629,46.0,29.0,30.0,0.0,0.0
630,62.0,33.0,90.0,0.0,0.0
631,59.0,0.0,90.0,0.0,0.0
632,54.0,0.0,90.0,0.0,0.0
633,47.0,30.0,30.0,0.0,0.0
634,49.0,30.0,30.0,0.0,0.0
635,46.0,1.0,30.0,0.0,0.0
636,47.0,25.0,30.0,0.0,0.0
637,57.0,0.0,90.0,0.0,0.0
638,61.0,30.0,90.0,0.0,0.0
639,54.0,0.0,90.0,0.0,0.0
640,49.0,28.0,20.0,0.0,0.0
641,50.0,34.0,20.0,0.0,0.0
642,48.0,2.0,30.0,0.0,0.0
643,49.0,27.0,30.0,0.0,0.0
644,50.0,31.0,30.0,0.0,0.0
645,56.0,26.0,60.0,0.0,0.0
646,60.0,0.0,60.0,0.0,0.0
647,54.0,0.0,60.0,0.0,0.0
648,52.0,2.0,30.0,0.0,0.0
649,49.0,22.0,30.0,0.0,0.0
650,50.0,43.0,20.0,0.0,0.0
651,61.0,29.0,30.0,0.0,0.0
652,49.0,0.0,30.0,0.0,0.0
653,53.0,0.0,30.0,0.0,0.0
654,56.0,0.0,30.0,0.0,0.0
655,62.0,36.0,30.0,0.0,0.0
656,60.0,30.0,30.0,0.0,0.0
657,61.0,28.0,30.0,0.0,0.0
658,57.0,1.0,30.0,0.0,0.0
659,48.0,0.0,30.0,0.0,0.0
660,62.0,1.0,30.0,0.0,0.0
661,54.0,30.0,30.0,0.0,0.0
662,64.0,35.0,30.0,0.0,0.0
663,61.0,27.0,30.0,0.0,0.0
664,62.0,26.0,30.0,0.0,0.0
665,57.0,6.0,30.0,0.0,0.0
666,47.0,1.0,30.0,0.0,0.0
667,54.0,0.0,30.0,0.0,0.0
668,63.0,27.0,30.0,0.0,0.0
669,64.0,25.0,30.0,0.0,0.0
670,62.0,34.0,30.0,0.0,0.0
671,63.0,34.0,30.0,0.0,0.0
672,76.0,3.0,90.0,0.0,0.0
673,64.0,31.0,30.0,0.0,0.0
674,52.0,0.0,90.0,0.0,0.0
675,40.0,0.0,90.0,0.0,0.0
676,66.0,27.0,30.0,0.0,0.0
677,63.0,49.0,30.0,0.0,0.0
678,64.0,23.0,60.0,0.0,0.0
679,56.0,1.0,20.0,0.0,0.0
680,52.0,1.0,20.0,0.0,0.0
681,59.0,10.0,20.0,0.0,0.0
682,66.0,37.0,20.0,0.0,0.0
683,63.0,26.0,30.0,0.0,0.0
684,64.0,30.0,30.0,0.0,0.0
685,65.0,24.0,30.0,0.0,0.0
686,57.0,2.0,60.0,0.0,0.0
687,60.0,0.0,60.0,0.0,0.0
688,51.0,25.0,60.0,0.0,0.0
689,66.0,6.0,30.0,0.0,0.0
690,64.0,33.0,30.0,0.0,0.0
691,65.0,26.0,30.0,0.0,0.0
692,66.0,24.0,30.0,0.0,0.0
693,50.0,1.0,60.0,0.0,0.0
694,57.0,0.0,60.0,0.0,0.0
695,60.0,30.0,60.0,0.0,0.0
696,67.0,6.0,20.0,0.0,0.0
697,65.0,28.0,30.0,0.0,0.0
698,66.0,36.0,30.0,0.0,0.0
699,79.0,9.0,120.0,0.0,0.0
700,55.0,7.0,120.0,0.0,0.0
701,67.0,26.0,30.0,0.0,0.0
702,43.0,33.0,120.0,0.0,0.0
703,68.0,30.0,30.0,0.0,0.0
704,66.0,13.0,30.0,0.0,0.0
705,67.0,26.0,60.0,0.0,0.0
706,59.0,1.0,60.0,0.0,0.0
707,55.0,0.0,60.0,0.0,0.0
708,62.0,20.0,60.0,0.0,0.0
709,68.0,4.0,30.0,0.0,0.0
710,66.0,31.0,30.0,0.0,0.0
711,67.0,38.0,30.0,0.0,0.0
712,55.0,2.0,60.0,0.0,0.0
713,68.0,23.0,30.0,0.0,0.0
714,63.0,0.0,60.0,0.0,0.0
715,60.0,28.0,60.0,0.0,0.0
716,69.0,3.0,30.0,0.0,0.0
717,67.0,27.0,30.0,0.0,0.0
718,68.0,28.0,30.0,0.0,0.0
719,69.0,31.0,30.0,0.0,0.0
720,61.0,30.0,60.0,0.0,0.0
721,55.0,0.0,60.0,0.0,0.0
722,64.0,0.0,60.0,0.0,0.0
723,70.0,1.0,30.0,0.0,0.0
724,68.0,26.0,30.0,0.0,0.0
725,69.0,28.0,30.0,0.0,0.0
726,62.0,1.0,60.0,0.0,0.0
727,65.0,3.0,60.0,0.0,0.0
728,70.0,29.0,30.0,0.0,0.0
729,55.0,27.0,60.0,0.0,0.0
730,71.0,1.0,30.0,0.0,0.0
731,69.0,35.0,30.0,0.0,0.0
732,70.0,32.0,30.0,0.0,0.0
733,66.0,22.0,60.0,0.0,0.0
734,71.0,20.0,30.0,0.0,0.0
735,55.0,1.0,60.0,0.0,0.0
736,63.0,10.0,60.0,0.0,0.0
737,72.0,6.0,20.0,0.0,0.0
738,70.0,39.0,30.0,0.0,0.0
739,71.0,20.0,30.0,0.0,0.0
740,72.0,28.0,30.0,0.0,0.0
741,67.0,0.0,60.0,0.0,0.0
742,64.0,1.0,60.0,0.0,0.0
743,55.0,33.0,60.0,0.0,0.0
744,73.0,2.0,30.0,0.0,0.0
745,71.0,24.0,30.0,0.0,0.0
746,72.0,30.0,30.0,0.0,0.0
747,55.0,0.0,60.0,0.0,0.0
748,68.0,26.0,90.0,0.0,0.0
749,65.0,6.0,60.0,0.0,0.0
750,73.0,30.0,30.0,0.0,0.0
751,74.0,24.0,30.0,0.0,0.0
752,72.0,0.0,30.0,0.0,0.0
753,73.0,32.0,30.0,0.0,0.0
754,66.0,1.0,60.0,0.0,0.0
755,55.0,3.0,60.0,0.0,0.0
756,74.0,28.0,30.0,0.0,0.0
757,69.0,23.0,120.0,0.0,0.0
758,75.0,33.0,30.0,0.0,0.0
759,74.0,26.0,30.0,0.0,0.0
760,72.0,6.0,30.0,0.0,0.0
761,67.0,22.0,90.0,0.0,0.0
762,55.0,5.0,90.0,0.0,0.0
763,71.0,37.0,30.0,0.0,0.0
764,72.0,23.0,30.0,0.0,0.0
765,70.0,6.0,30.0,0.0,0.0
766,71.0,33.0,30.0,0.0,0.0
767,72.0,18.0,30.0,0.0,0.0
768,63.0,5.0,30.0,0.0,0.0
769,67.0,32.0,90.0,0.0,0.0
770,74.0,17.0,30.0,0.0,0.0
771,62.0,9.0,30.0,0.0,0.0
772,63.0,5.0,20.0,0.0,0.0
773,71.0,6.0,60.0,0.0,0.0
774,72.0,16.0,60.0,0.0,0.0
775,55.0,9.0,30.0,0.0,0.0
776,77.0,30.0,30.0,0.0,0.0
777,56.0,2.0,90.0,0.0,0.0
778,79.0,24.0,30.0,0.0,0.0
779,76.0,30.0,30.0,0.0,0.0
780,77.0,35.0,30.0,0.0,0.0
781,70.0,16.0,30.0,0.0,0.0
782,65.0,3.0,90.0,0.0,0.0
783,62.0,1.0,30.0,0.0,0.0
784,72.0,23.0,30.0,0.0,0.0
785,61.0,10.0,20.0,0.0,0.0
786,62.0,3.0,30.0,0.0,0.0
787,69.0,19.0,30.0,0.0,0.0
788,70.0,13.0,20.0,0.0,0.0
789,53.0,58.0,30.0,0.0,0.0
790,75.0,4.0,60.0,0.0,0.0
791,70.0,0.0,90.0,0.0,0.0
792,55.0,4.0,90.0,0.0,0.0
793,77.0,26.0,30.0,0.0,0.0
794,74.0,31.0,30.0,0.0,0.0
795,75.0,25.0,30.0,0.0,0.0
796,68.0,6.0,30.0,0.0,0.0
797,63.0,14.0,60.0,0.0,0.0
798,60.0,15.0,30.0,0.0,0.0
799,70.0,7.0,30.0,0.0,0.0
800,59.0,13.0,20.0,0.0,0.0
801,67.0,0.0,30.0,0.0,0.0
802,60.0,33.0,30.0,0.0,0.0
803,68.0,5.0,30.0,0.0,0.0
804,51.0,26.0,30.0,0.0,0.0
805,53.0,29.0,60.0,0.0,0.0
806,69.0,29.0,90.0,0.0,0.0
807,74.0,19.0,30.0,0.0,0.0
808,75.0,6.0,60.0,0.0,0.0
809,73.0,5.0,30.0,0.0,0.0
810,74.0,28.0,30.0,0.0,0.0
811,62.0,2.0,90.0,0.0,0.0
812,59.0,3.0,30.0,0.0,0.0
813,67.0,15.0,30.0,0.0,0.0
814,58.0,13.0,15.0,0.0,0.0
815,68.0,26.0,30.0,0.0,0.0
816,66.0,4.0,30.0,0.0,0.0
817,59.0,10.0,30.0,0.0,0.0
818,50.0,25.0,30.0,0.0,0.0
819,67.0,21.0,15.0,0.0,0.0
820,72.0,24.0,120.0,0.0,0.0
821,67.0,29.0,30.0,0.0,0.0
822,51.0,17.0,60.0,0.0,0.0
823,53.0,0.0,30.0,0.0,0.0
824,68.0,9.0,30.0,0.0,0.0
825,50.0,8.0,30.0,0.0,0.0
826,65.0,25.0,30.0,0.0,0.0
827,51.0,1.0,30.0,0.0,0.0
828,67.0,0.0,30.0,0.0,0.0
829,70.0,12.0,90.0,0.0,0.0
830,65.0,24.0,30.0,0.0,0.0
831,50.0,2.0,20.0,0.0,0.0
832,51.0,32.0,30.0,0.0,0.0
833,67.0,1.0,20.0,0.0,0.0
834,63.0,4.0,30.0,0.0,0.0
835,48.0,4.0,30.0,0.0,0.0
836,65.0,13.0,20.0,0.0,0.0
837,50.0,27.0,30.0,0.0,0.0
838,68.0,4.0,90.0,0.0,0.0
839,48.0,1.0,30.0,0.0,0.0
840,63.0,24.0,30.0,0.0,0.0
841,50.0,1.0,20.0,0.0,0.0
842,65.0,27.0,20.0,0.0,0.0
843,46.0,6.0,30.0,0.0,0.0
844,62.0,28.0,30.0,0.0,0.0
845,48.0,27.0,30.0,0.0,0.0
846,63.0,0.0,30.0,0.0,0.0
847,67.0,4.0,90.0,0.0,0.0
848,62.0,21.0,30.0,0.0,0.0
849,46.0,0.0,30.0,0.0,0.0
850,63.0,13.0,20.0,0.0,0.0
851,48.0,26.0,30.0,0.0,0.0
852,44.0,6.0,30.0,0.0,0.0
853,60.0,15.0,30.0,0.0,0.0
854,46.0,29.0,30.0,0.0,0.0
855,62.0,9.0,20.0,0.0,0.0
856,60.0,2.0,60.0,0.0,0.0
857,65.0,35.0,120.0,0.0,0.0
858,44.0,24.0,30.0,0.0,0.0
859,62.0,30.0,30.0,0.0,0.0
860,46.0,6.0,20.0,0.0,0.0
861,58.0,14.0,30.0,0.0,0.0
862,43.0,9.0,30.0,0.0,0.0
863,60.0,3.0,20.0,0.0,0.0
864,44.0,2.0,15.0,0.0,0.0
865,43.0,4.0,30.0,0.0,0.0
866,58.0,26.0,30.0,0.0,0.0
867,63.0,0.0,90.0,0.0,0.0
868,60.0,31.0,30.0,0.0,0.0
869,44.0,0.0,30.0,0.0,0.0
870,41.0,3.0,30.0,0.0,0.0
871,56.0,28.0,30.0,0.0,0.0
872,58.0,0.0,30.0,0.0,0.0
873,43.0,28.0,30.0,0.0,0.0
874,56.0,35.0,30.0,0.0,0.0
875,41.0,1.0,30.0,0.0,0.0
876,62.0,3.0,90.0,0.0,0.0
877,58.0,3.0,60.0,0.0,0.0
878,43.0,24.0,30.0,0.0,0.0
879,39.0,1.0,20.0,0.0,0.0
880,55.0,23.0,30.0,0.0,0.0
881,56.0,8.0,20.0,0.0,0.0
882,41.0,25.0,30.0,0.0,0.0
883,39.0,6.0,30.0,0.0,0.0
884,55.0,31.0,30.0,0.0,0.0
885,60.0,1.0,90.0,0.0,0.0
886,41.0,10.0,30.0,0.0,0.0
887,56.0,15.0,30.0,0.0,0.0
888,53.0,0.0,30.0,0.0,0.0
889,38.0,30.0,30.0,0.0,0.0
890,39.0,96.0,30.0,0.0,0.0
891,55.0,8.0,20.0,0.0,0.0
892,64.0,1.0,90.0,0.0,0.0
893,55.0,0.0,90.0,0.0,0.0
894,52.0,0.0,90.0,0.0,0.0
895,37.0,0.0,90.0,0.0,0.0
896,58.0,54.0,90.0,0.0,0.0
897,64.0,1.0,180.0,0.0,0.0
898,67.0,0.0,180.0,0.0,0.0
899,55.0,18.0,180.0,0.0,0.0
900,45.0,22.0,20.0,0.0,0.0
901,46.0,38.0,20.0,0.0,0.0
902,44.0,15.0,30.0,0.0,0.0
903,45.0,42.0,15.0,0.0,0.0
904,45.0,25.0,30.0,0.0,0.0
905,46.0,13.0,30.0,0.0,0.0
906,44.0,23.0,30.0,0.0,0.0
907,45.0,35.0,20.0,0.0,0.0
908,64.0,0.0,180.0,0.0,0.0
909,76.0,20.0,180.0,0.0,0.0
910,67.0,0.0,180.0,0.0,0.0
911,45.0,25.0,20.0,0.0,0.0
912,46.0,36.0,30.0,0.0,0.0
913,44.0,22.0,30.0,0.0,0.0
914,45.0,39.0,20.0,0.0,0.0
915,45.0,25.0,30.0,0.0,0.0
916,46.0,15.0,30.0,0.0,0.0
917,44.0,23.0,30.0,0.0,0.0
918,45.0,33.0,20.0,0.0,0.0
919,79.0,0.0,60.0,0.0,0.0
920,76.0,0.0,60.0,0.0,0.0
921,67.0,17.0,60.0,0.0,0.0
922,45.0,25.0,20.0,0.0,0.0
923,46.0,12.0,20.0,0.0,0.0
924,44.0,21.0,20.0,0.0,0.0
925,45.0,42.0,15.0,0.0,0.0
926,88.0,7.0,120.0,0.0,0.0
927,79.0,3.0,150.0,0.0,0.0
928,76.0,0.0,150.0,0.0,0.0
929,45.0,21.0,30.0,0.0,0.0
930,46.0,34.0,20.0,0.0,0.0
931,44.0,8.0,30.0,0.0,0.0
932,45.0,40.0,15.0,0.0,0.0
933,45.0,20.0,30.0,0.0,0.0
934,46.0,32.0,20.0,0.0,0.0
935,44.0,5.0,30.0,0.0,0.0
936,79.0,1.0,30.0,0.0,0.0
937,86.0,33.0,30.0,0.0,0.0
938,74.0,0.0,30.0,0.0,0.0
939,45.0,44.0,30.0,0.0,0.0
940,85.0,0.0,90.0,0.0,0.0
941,79.0,61.0,90.0,0.0,0.0
942,73.0,0.0,90.0,0.0,0.0
943,46.0,54.0,60.0,0.0,0.0
944,76.0,8.0,30.0,0.0,0.0
945,79.0,22.0,30.0,0.0,0.0
946,70.0,1.0,30.0,0.0,0.0
947,81.0,21.0,30.0,0.0,0.0
948,67.0,3.0,30.0,0.0,0.0
949,79.0,30.0,30.0,0.0,0.0
950,88.0,1.0,30.0,0.0,0.0
951,61.0,32.0,30.0,0.0,0.0
952,73.0,21.0,30.0,0.0,0.0
953,76.0,2.0,30.0,0.0,0.0
954,78.0,4.0,30.0,0.0,0.0
955,67.0,28.0,30.0,0.0,0.0
956,64.0,28.0,30.0,0.0,0.0
957,76.0,0.0,30.0,0.0,0.0
958,58.0,0.0,30.0,0.0,0.0
959,85.0,30.0,30.0,0.0,0.0
960,73.0,9.0,30.0,0.0,0.0
961,70.0,16.0,30.0,0.0,0.0
962,74.0,6.0,30.0,0.0,0.0
963,64.0,23.0,30.0,0.0,0.0
964,73.0,1.0,30.0,0.0,0.0
965,61.0,25.0,30.0,0.0,0.0
966,82.0,1.0,30.0,0.0,0.0
967,55.0,30.0,30.0,0.0,0.0
968,70.0,25.0,30.0,0.0,0.0
969,67.0,0.0,60.0,0.0,0.0
970,61.0,18.0,30.0,0.0,0.0
971,72.0,7.0,30.0,0.0,0.0
972,58.0,3.0,30.0,0.0,0.0
973,70.0,30.0,30.0,0.0,0.0
974,52.0,30.0,30.0,0.0,0.0
975,79.0,11.0,60.0,0.0,0.0
976,67.0,7.0,30.0,0.0,0.0
977,64.0,17.0,30.0,0.0,0.0
978,69.0,5.0,30.0,0.0,0.0
979,58.0,17.0,30.0,0.0,0.0
980,55.0,5.0,20.0,0.0,0.0
981,67.0,34.0,30.0,0.0,0.0
982,76.0,9.0,60.0,0.0,0.0
983,49.0,29.0,30.0,0.0,0.0
984,64.0,2.0,30.0,0.0,0.0
985,61.0,22.0,30.0,0.0,0.0
986,66.0,0.0,30.0,0.0,0.0
987,55.0,27.0,30.0,0.0,0.0
988,52.0,0.0,30.0,0.0,0.0
989,64.0,31.0,30.0,0.0,0.0
990,73.0,2.0,60.0,0.0,0.0
991,46.0,30.0,30.0,0.0,0.0
992,61.0,8.0,30.0,0.0,0.0
993,58.0,22.0,30.0,0.0,0.0
994,52.0,22.0,30.0,0.0,0.0
995,62.0,5.0,30.0,0.0,0.0
996,61.0,1.0,30.0,0.0,0.0
997,49.0,30.0,30.0,0.0,0.0
998,43.0,94.0,30.0,0.0,0.0
999,70.0,1.0,30.0,0.0,0.0
1000,66.0,0.0,90.0,0.0,0.0
1001,69.0,2.0,90.0,0.0,0.0
1002,57.0,0.0,90.0,0.0,0.0
1003,39.0,71.0,90.0,0.0,0.0
1004,57.0,7.0,180.0,0.0,0.0
1005,69.0,6.0,210.0,0.0,0.0
1006,66.0,11.0,180.0,0.0,0.0
1007,47.0,30.0,30.0,0.0,0.0
1008,48.0,33.0,30.0,0.0,0.0
1009,46.0,15.0,30.0,0.0,0.0
1010,47.0,44.0,15.0,0.0,0.0
1011,47.0,30.0,30.0,0.0,0.0
1012,48.0,4.0,30.0,0.0,0.0
1013,46.0,18.0,30.0,0.0,0.0
1014,47.0,47.0,15.0,0.0,0.0
1015,78.0,20.0,180.0,0.0,0.0
1016,66.0,0.0,180.0,0.0,0.0
1017,69.0,0.0,180.0,0.0,0.0
1018,47.0,26.0,30.0,0.0,0.0
1019,48.0,33.0,20.0,0.0,0.0
1020,46.0,10.0,30.0,0.0,0.0
1021,47.0,52.0,15.0,0.0,0.0
1022,47.0,29.0,30.0,0.0,0.0
1023,48.0,10.0,30.0,0.0,0.0
1024,46.0,16.0,30.0,0.0,0.0
1025,47.0,45.0,15.0,0.0,0.0
1026,69.0,20.0,60.0,0.0,0.0
1027,81.0,0.0,60.0,0.0,0.0
1028,78.0,0.0,60.0,0.0,0.0
1029,47.0,25.0,20.0,0.0,0.0
1030,48.0,10.0,20.0,0.0,0.0
1031,46.0,18.0,20.0,0.0,0.0
1032,47.0,45.0,15.0,0.0,0.0
1033,78.0,21.0,150.0,0.0,0.0
1034,90.0,1.0,150.0,0.0,0.0
1035,47.0,32.0,30.0,0.0,0.0
1036,81.0,4.0,150.0,0.0,0.0
1037,48.0,27.0,30.0,0.0,0.0
1038,46.0,10.0,30.0,0.0,0.0
1039,47.0,47.0,15.0,0.0,0.0
1040,47.0,1.0,30.0,0.0,0.0
1041,48.0,35.0,20.0,0.0,0.0
1042,46.0,19.0,30.0,0.0,0.0
1043,88.0,22.0,60.0,0.0,0.0
1044,76.0,1.0,60.0,0.0,0.0
1045,81.0,6.0,60.0,0.0,0.0
1046,47.0,48.0,30.0,0.0,0.0
1047,87.0,55.0,120.0,0.0,0.0
1048,81.0,8.0,90.0,0.0,0.0
1049,75.0,0.0,90.0,0.0,0.0
1050,48.0,45.0,60.0,0.0,0.0
1051,81.0,8.0,30.0,0.0,0.0
1052,75.0,16.0,30.0,0.0,0.0
1053,83.0,22.0,30.0,0.0,0.0
1054,69.0,1.0,30.0,0.0,0.0
1055,66.0,3.0,30.0,0.0,0.0
1056,81.0,29.0,30.0,0.0,0.0
1057,90.0,1.0,30.0,0.0,0.0
1058,60.0,27.0,30.0,0.0,0.0
1059,78.0,10.0,30.0,0.0,0.0
1060,72.0,15.0,30.0,0.0,0.0
1061,66.0,26.0,30.0,0.0,0.0
1062,80.0,4.0,30.0,0.0,0.0
1063,78.0,0.0,30.0,0.0,0.0
1064,63.0,28.0,30.0,0.0,0.0
1065,57.0,34.0,30.0,0.0,0.0
1066,87.0,0.0,30.0,0.0,0.0
1067,69.0,19.0,30.0,0.0,0.0
1068,75.0,8.0,30.0,0.0,0.0
1069,63.0,5.0,30.0,0.0,0.0
1070,76.0,15.0,30.0,0.0,0.0
1071,60.0,6.0,30.0,0.0,0.0
1072,75.0,16.0,30.0,0.0,0.0
1073,54.0,12.0,20.0,0.0,0.0
1074,84.0,35.0,30.0,0.0,0.0
1075,66.0,27.0,60.0,0.0,0.0
1076,72.0,21.0,30.0,0.0,0.0
1077,74.0,2.0,30.0,0.0,0.0
1078,60.0,0.0,30.0,0.0,0.0
1079,72.0,10.0,30.0,0.0,0.0
1080,57.0,22.0,30.0,0.0,0.0
1081,51.0,30.0,30.0,0.0,0.0
1082,81.0,0.0,30.0,0.0,0.0
1083,63.0,21.0,30.0,0.0,0.0
1084,69.0,5.0,30.0,0.0,0.0
1085,57.0,21.0,30.0,0.0,0.0
1086,71.0,3.0,30.0,0.0,0.0
1087,54.0,7.0,30.0,0.0,0.0
1088,69.0,26.0,30.0,0.0,0.0
1089,48.0,1.0,30.0,0.0,0.0
1090,78.0,29.0,30.0,0.0,0.0
1091,66.0,4.0,30.0,0.0,0.0
1092,60.0,23.0,30.0,0.0,0.0
1093,68.0,3.0,30.0,0.0,0.0
1094,54.0,26.0,30.0,0.0,0.0
1095,66.0,27.0,30.0,0.0,0.0
1096,51.0,2.0,30.0,0.0,0.0
1097,75.0,0.0,30.0,0.0,0.0
1098,45.0,34.0,30.0,0.0,0.0
1099,57.0,21.0,30.0,0.0,0.0
1100,63.0,5.0,30.0,0.0,0.0
1101,64.0,7.0,30.0,0.0,0.0
1102,51.0,20.0,30.0,0.0,0.0
1103,48.0,1.0,30.0,0.0,0.0
1104,63.0,28.0,30.0,0.0,0.0
1105,72.0,1.0,30.0,0.0,0.0
1106,42.0,50.0,30.0,0.0,0.0
1107,59.0,0.0,60.0,0.0,0.0
1108,43.0,12.0,30.0,0.0,0.0
1109,71.0,30.0,30.0,0.0,0.0
1110,47.0,1.0,30.0,0.0,0.0
1111,72.0,4.0,30.0,0.0,0.0
1112,51.0,29.0,30.0,0.0,0.0
1113,71.0,19.0,30.0,0.0,0.0
1114,52.0,8.0,30.0,0.0,0.0
1115,54.0,30.0,30.0,0.0,0.0
1116,69.0,3.0,30.0,0.0,0.0
1117,67.0,2.0,30.0,0.0,0.0
1118,55.0,25.0,30.0,0.0,0.0
1119,57.0,5.0,30.0,0.0,0.0
1120,66.0,22.0,30.0,0.0,0.0
1121,59.0,4.0,20.0,0.0,0.0
1122,64.0,40.0,30.0,0.0,0.0
1123,60.0,10.0,60.0,0.0,0.0
1124,63.0,14.0,30.0,0.0,0.0
1125,54.0,25.0,30.0,0.0,0.0
1126,64.0,4.0,30.0,0.0,0.0
1127,51.0,0.0,30.0,0.0,0.0
1128,63.0,27.0,30.0,0.0,0.0
1129,45.0,3.0,30.0,0.0,0.0
1130,72.0,36.0,30.0,0.0,0.0
1131,57.0,23.0,30.0,0.0,0.0
1132,60.0,4.0,30.0,0.0,0.0
1133,51.0,14.0,30.0,0.0,0.0
1134,62.0,12.0,30.0,0.0,0.0
1135,48.0,1.0,30.0,0.0,0.0
1136,60.0,33.0,30.0,0.0,0.0
1137,42.0,0.0,30.0,0.0,0.0
1138,69.0,63.0,30.0,0.0,0.0
1139,59.0,0.0,60.0,0.0,0.0
1140,43.0,2.0,60.0,0.0,0.0
1141,47.0,2.0,30.0,0.0,0.0
1142,71.0,32.0,30.0,0.0,0.0
1143,72.0,29.0,30.0,0.0,0.0
1144,51.0,2.0,30.0,0.0,0.0
1145,71.0,23.0,30.0,0.0,0.0
1146,52.0,6.0,30.0,0.0,0.0
1147,54.0,1.0,30.0,0.0,0.0
1148,69.0,23.0,30.0,0.0,0.0
1149,67.0,29.0,30.0,0.0,0.0
1150,55.0,6.0,30.0,0.0,0.0
1151,66.0,2.0,30.0,0.0,0.0
1152,57.0,23.0,30.0,0.0,0.0
1153,64.0,5.0,30.0,0.0,0.0
1154,59.0,39.0,30.0,0.0,0.0
1155,65.0,25.0,30.0,0.0,0.0
1156,62.0,4.0,90.0,0.0,0.0
1157,56.0,21.0,30.0,0.0,0.0
1158,66.0,4.0,30.0,0.0,0.0
1159,53.0,0.0,30.0,0.0,0.0
1160,65.0,30.0,30.0,0.0,0.0
1161,74.0,0.0,30.0,0.0,0.0
1162,47.0,33.0,30.0,0.0,0.0
1163,62.0,26.0,30.0,0.0,0.0
1164,59.0,4.0,60.0,0.0,0.0
1165,64.0,17.0,30.0,0.0,0.0
1166,53.0,17.0,60.0,0.0,0.0
1167,50.0,20.0,30.0,0.0,0.0
1168,62.0,4.0,30.0,0.0,0.0
1169,44.0,0.0,30.0,0.0,0.0
1170,71.0,32.0,30.0,0.0,0.0
1171,61.0,33.0,30.0,0.0,0.0
1172,45.0,0.0,30.0,0.0,0.0
1173,73.0,25.0,30.0,0.0,0.0
1174,49.0,3.0,30.0,0.0,0.0
1175,53.0,8.0,30.0,0.0,0.0
1176,74.0,19.0,30.0,0.0,0.0
1177,73.0,20.0,30.0,0.0,0.0
1178,54.0,12.0,30.0,0.0,0.0
1179,71.0,15.0,30.0,0.0,0.0
1180,56.0,11.0,30.0,0.0,0.0
1181,69.0,8.0,30.0,0.0,0.0
1182,57.0,22.0,30.0,0.0,0.0
1183,59.0,16.0,30.0,0.0,0.0
1184,68.0,4.0,30.0,0.0,0.0
1185,66.0,8.0,20.0,0.0,0.0
1186,61.0,39.0,30.0,0.0,0.0
1187,67.0,1.0,30.0,0.0,0.0
1188,64.0,27.0,30.0,0.0,0.0
1189,58.0,15.0,30.0,0.0,0.0
1190,69.0,0.0,30.0,0.0,0.0
1191,55.0,7.0,20.0,0.0,0.0
1192,67.0,29.0,30.0,0.0,0.0
1193,76.0,5.0,60.0,0.0,0.0
1194,49.0,29.0,30.0,0.0,0.0
1195,64.0,8.0,30.0,0.0,0.0
1196,61.0,16.0,30.0,0.0,0.0
1197,55.0,3.0,30.0,0.0,0.0
1198,66.0,23.0,30.0,0.0,0.0
1199,52.0,32.0,30.0,0.0,0.0
1200,64.0,3.0,30.0,0.0,0.0
1201,46.0,30.0,30.0,0.0,0.0
1202,73.0,3.0,60.0,0.0,0.0
1203,68.0,6.0,30.0,0.0,0.0
1204,65.0,22.0,30.0,0.0,0.0
1205,69.0,22.0,30.0,0.0,0.0
1206,59.0,3.0,30.0,0.0,0.0
1207,56.0,4.0,30.0,0.0,0.0
1208,68.0,28.0,30.0,0.0,0.0
1209,77.0,10.0,60.0,0.0,0.0
1210,50.0,26.0,30.0,0.0,0.0
1211,62.0,18.0,30.0,0.0,0.0
1212,65.0,4.0,30.0,0.0,0.0
1213,56.0,22.0,30.0,0.0,0.0
1214,66.0,2.0,30.0,0.0,0.0
1215,65.0,1.0,30.0,0.0,0.0
1216,53.0,29.0,30.0,0.0,0.0
1217,74.0,11.0,60.0,0.0,0.0
1218,47.0,28.0,30.0,0.0,0.0
1219,69.0,6.0,30.0,0.0,0.0
1220,66.0,21.0,30.0,0.0,0.0
1221,71.0,20.0,30.0,0.0,0.0
1222,60.0,4.0,30.0,0.0,0.0
1223,69.0,3.0,30.0,0.0,0.0
1224,57.0,27.0,30.0,0.0,0.0
1225,51.0,30.0,30.0,0.0,0.0
1226,78.0,4.0,60.0,0.0,0.0
1227,66.0,29.0,30.0,0.0,0.0
1228,63.0,3.0,60.0,0.0,0.0
1229,68.0,4.0,30.0,0.0,0.0
1230,57.0,18.0,30.0,0.0,0.0
1231,66.0,0.0,30.0,0.0,0.0
1232,54.0,32.0,30.0,0.0,0.0
1233,48.0,30.0,30.0,0.0,0.0
1234,75.0,35.0,60.0,0.0,0.0
1235,62.0,3.0,360.0,0.0,0.0
1236,65.0,4.0,60.0,0.0,0.0
1237,52.0,0.0,360.0,0.0,0.0
1238,59.0,0.0,360.0,0.0,0.0
1239,68.0,17.0,60.0,0.0,0.0
1240,71.0,17.0,30.0,0.0,0.0
1241,74.0,25.0,30.0,0.0,0.0
1242,77.0,68.0,30.0,0.0,0.0
1243,80.0,14.0,60.0,0.0,0.0
1244,64.0,1.0,240.0,0.0,0.0
1245,83.0,16.0,60.0,0.0,0.0
1246,86.0,21.0,30.0,0.0,0.0
1247,89.0,59.0,30.0,0.0,0.0
1248,92.0,6.0,60.0,0.0,0.0
1249,83.0,24.0,30.0,0.0,0.0
1250,84.0,33.0,30.0,0.0,0.0
1251,88.0,30.0,30.0,0.0,0.0
1252,86.0,23.0,30.0,0.0,0.0
1253,80.0,27.0,30.0,0.0,0.0
1254,68.0,7.0,30.0,0.0,0.0
1255,81.0,31.0,30.0,0.0,0.0
1256,84.0,27.0,30.0,0.0,0.0
1257,72.0,5.0,30.0,0.0,0.0
1258,83.0,1.0,30.0,0.0,0.0
1259,71.0,36.0,30.0,0.0,0.0
1260,62.0,2.0,30.0,0.0,0.0
1261,74.0,20.0,30.0,0.0,0.0
1262,76.0,37.0,30.0,0.0,0.0
1263,64.0,3.0,30.0,0.0,0.0
1264,67.0,2.0,30.0,0.0,0.0
1265,79.0,14.0,30.0,0.0,0.0
1266,77.0,32.0,30.0,0.0,0.0
1267,65.0,8.0,20.0,0.0,0.0
1268,68.0,1.0,30.0,0.0,0.0
1269,56.0,26.0,30.0,0.0,0.0
1270,69.0,3.0,30.0,0.0,0.0
1271,57.0,29.0,30.0,0.0,0.0
1272,60.0,7.0,30.0,0.0,0.0
1273,72.0,25.0,30.0,0.0,0.0
1274,59.0,35.0,30.0,0.0,0.0
1275,71.0,0.0,30.0,0.0,0.0
1276,50.0,20.0,30.0,0.0,0.0
1277,62.0,2.0,30.0,0.0,0.0
1278,64.0,34.0,30.0,0.0,0.0
1279,52.0,5.0,20.0,0.0,0.0
1280,55.0,1.0,30.0,0.0,0.0
1281,67.0,22.0,30.0,0.0,0.0
1282,53.0,7.0,30.0,0.0,0.0
1283,65.0,25.0,30.0,0.0,0.0
1284,50.0,1.0,30.0,0.0,0.0
1285,62.0,26.0,30.0,0.0,0.0
1286,46.0,37.0,30.0,0.0,0.0
1287,58.0,3.0,30.0,0.0,0.0
1288,57.0,0.0,30.0,0.0,0.0
1289,45.0,61.0,30.0,0.0,0.0
1290,32.0,0.0,60.0,0.0,0.0
1291,64.0,0.0,60.0,0.0,0.0
1292,62.0,32.0,60.0,0.0,0.0
1293,59.0,0.0,60.0,0.0,0.0
1294,52.0,0.0,60.0,0.0,0.0
1295,44.0,7.0,60.0,0.0,0.0
1296,59.0,29.0,20.0,0.0,0.0
1297,60.0,26.0,30.0,0.0,0.0
1298,61.0,24.0,20.0,0.0,0.0
1299,62.0,32.0,20.0,0.0,0.0
1300,61.0,26.0,30.0,0.0,0.0
1301,62.0,28.0,30.0,0.0,0.0
1302,63.0,28.0,30.0,0.0,0.0
1303,64.0,28.0,30.0,0.0,0.0
1304,62.0,30.0,30.0,0.0,0.0
1305,63.0,28.0,30.0,0.0,0.0
1306,64.0,32.0,30.0,0.0,0.0
1307,65.0,19.0,30.0,0.0,0.0
1308,59.0,26.0,20.0,0.0,0.0
1309,60.0,1.0,20.0,0.0,0.0
1310,40.0,11.0,15.0,0.0,0.0
1311,47.0,2.0,15.0,0.0,0.0
1312,50.0,3.0,15.0,0.0,0.0
1313,61.0,26.0,30.0,0.0,0.0
1314,56.0,22.0,15.0,0.0,0.0
1315,62.0,32.0,30.0,0.0,0.0
1316,60.0,25.0,30.0,0.0,0.0
1317,61.0,36.0,30.0,0.0,0.0
1318,62.0,25.0,30.0,0.0,0.0
1319,63.0,36.0,20.0,0.0,0.0
1320,61.0,29.0,30.0,0.0,0.0
1321,62.0,35.0,30.0,0.0,0.0
1322,63.0,25.0,30.0,0.0,0.0
1323,64.0,28.0,30.0,0.0,0.0
1324,62.0,37.0,30.0,0.0,0.0
1325,63.0,33.0,30.0,0.0,0.0
1326,64.0,24.0,30.0,0.0,0.0
1327,65.0,26.0,30.0,0.0,0.0
1328,59.0,31.0,30.0,0.0,0.0
1329,60.0,3.0,30.0,0.0,0.0
1330,40.0,13.0,30.0,0.0,0.0
1331,47.0,16.0,30.0,0.0,0.0
1332,50.0,1.0,30.0,0.0,0.0
1333,56.0,36.0,30.0,0.0,0.0
1334,61.0,1.0,30.0,0.0,0.0
1335,62.0,35.0,30.0,0.0,0.0
1336,60.0,30.0,30.0,0.0,0.0
1337,61.0,31.0,30.0,0.0,0.0
1338,62.0,25.0,30.0,0.0,0.0
1339,63.0,39.0,20.0,0.0,0.0
1340,61.0,28.0,30.0,0.0,0.0
1341,62.0,37.0,30.0,0.0,0.0
1342,63.0,23.0,30.0,0.0,0.0
1343,64.0,34.0,30.0,0.0,0.0
1344,62.0,36.0,30.0,0.0,0.0
1345,63.0,29.0,30.0,0.0,0.0
1346,64.0,16.0,30.0,0.0,0.0
1347,65.0,45.0,20.0,0.0,0.0
1348,63.0,25.0,30.0,0.0,0.0
1349,64.0,30.0,30.0,0.0,0.0
1350,65.0,24.0,30.0,0.0,0.0
1351,66.0,34.0,30.0,0.0,0.0
1352,64.0,30.0,30.0,0.0,0.0
1353,65.0,29.0,30.0,0.0,0.0
1354,66.0,19.0,30.0,0.0,0.0
1355,67.0,41.0,20.0,0.0,0.0
1356,65.0,26.0,30.0,0.0,0.0
1357,66.0,25.0,30.0,0.0,0.0
1358,67.0,27.0,30.0,0.0,0.0
1359,68.0,31.0,30.0,0.0,0.0
1360,66.0,31.0,30.0,0.0,0.0
1361,67.0,27.0,30.0,0.0,0.0
1362,68.0,2.0,30.0,0.0,0.0
1363,40.0,24.0,30.0,0.0,0.0
1364,38.0,8.0,30.0,0.0,0.0
1365,69.0,29.0,30.0,0.0,0.0
1366,67.0,4.0,30.0,0.0,0.0
1367,36.0,26.0,30.0,0.0,0.0
1368,68.0,26.0,30.0,0.0,0.0
1369,35.0,2.0,30.0,0.0,0.0
1370,33.0,7.0,30.0,0.0,0.0
1371,69.0,20.0,30.0,0.0,0.0
1372,71.0,41.0,30.0,0.0,0.0
1373,68.0,28.0,30.0,0.0,0.0
1374,69.0,24.0,30.0,0.0,0.0
1375,62.0,3.0,30.0,0.0,0.0
1376,71.0,24.0,30.0,0.0,0.0
1377,65.0,2.0,30.0,0.0,0.0
1378,72.0,38.0,30.0,0.0,0.0
1379,69.0,26.0,30.0,0.0,0.0
1380,71.0,27.0,30.0,0.0,0.0
1381,72.0,24.0,30.0,0.0,0.0
1382,60.0,1.0,30.0,0.0,0.0
1383,64.0,1.0,30.0,0.0,0.0
1384,74.0,38.0,30.0,0.0,0.0
1385,71.0,31.0,30.0,0.0,0.0
1386,72.0,20.0,30.0,0.0,0.0
1387,62.0,1.0,30.0,0.0,0.0
1388,59.0,12.0,30.0,0.0,0.0
1389,74.0,15.0,30.0,0.0,0.0
1390,76.0,36.0,20.0,0.0,0.0
1391,72.0,36.0,30.0,0.0,0.0
1392,74.0,24.0,30.0,0.0,0.0
1393,60.0,12.0,30.0,0.0,0.0
1394,57.0,0.0,30.0,0.0,0.0
1395,76.0,10.0,30.0,0.0,0.0
1396,77.0,38.0,30.0,0.0,0.0
1397,76.0,38.0,30.0,0.0,0.0
1398,81.0,13.0,30.0,0.0,0.0
1399,74.0,18.0,30.0,0.0,0.0
1400,62.0,0.0,30.0,0.0,0.0
1401,53.0,6.0,30.0,0.0,0.0
1402,57.0,5.0,20.0,0.0,0.0
1403,76.0,33.0,20.0,0.0,0.0
1404,74.0,39.0,30.0,0.0,0.0
1405,81.0,17.0,30.0,0.0,0.0
1406,52.0,2.0,30.0,0.0,0.0
1407,72.0,25.0,30.0,0.0,0.0
1408,60.0,0.0,30.0,0.0,0.0
1409,57.0,5.0,30.0,0.0,0.0
1410,74.0,29.0,30.0,0.0,0.0
1411,72.0,44.0,30.0,0.0,0.0
1412,81.0,15.0,30.0,0.0,0.0
1413,71.0,3.0,30.0,0.0,0.0
1414,59.0,1.0,30.0,0.0,0.0
1415,50.0,0.0,30.0,0.0,0.0
1416,57.0,24.0,30.0,0.0,0.0
1417,72.0,33.0,30.0,0.0,0.0
1418,71.0,31.0,30.0,0.0,0.0
1419,81.0,49.0,30.0,0.0,0.0
1420,52.0,8.0,60.0,0.0,0.0
1421,60.0,9.0,30.0,0.0,0.0
1422,69.0,0.0,60.0,0.0,0.0
1423,45.0,28.0,60.0,0.0,0.0
1424,76.0,3.0,60.0,0.0,0.0
1425,84.0,23.0,30.0,0.0,0.0
1426,77.0,33.0,30.0,0.0,0.0
1427,40.0,0.0,30.0,0.0,0.0
1428,68.0,51.0,30.0,0.0,0.0
1429,50.0,0.0,30.0,0.0,0.0
1430,56.0,3.0,30.0,0.0,0.0
1431,74.0,4.0,60.0,0.0,0.0
1432,83.0,30.0,30.0,0.0,0.0
1433,76.0,26.0,30.0,0.0,0.0
1434,57.0,0.0,30.0,0.0,0.0
1435,64.0,0.0,30.0,0.0,0.0
1436,48.0,45.0,30.0,0.0,0.0
1437,45.0,0.0,30.0,0.0,0.0
1438,72.0,14.0,60.0,0.0,0.0
1439,81.0,37.0,30.0,0.0,0.0
1440,74.0,24.0,30.0,0.0,0.0
1441,64.0,26.0,30.0,0.0,0.0
1442,40.0,8.0,30.0,0.0,0.0
1443,52.0,0.0,30.0,0.0,0.0
1444,71.0,31.0,30.0,0.0,0.0
1445,80.0,29.0,30.0,0.0,0.0
1446,72.0,59.0,30.0,0.0,0.0
1447,33.0,0.0,60.0,0.0,0.0
1448,45.0,0.0,60.0,0.0,0.0
1449,81.0,35.0,60.0,0.0,0.0
1450,69.0,6.0,120.0,0.0,0.0
1451,65.0,26.0,30.0,0.0,0.0
1452,53.0,0.0,30.0,0.0,0.0
1453,41.0,0.0,30.0,0.0,0.0
1454,77.0,30.0,30.0,0.0,0.0
1455,64.0,14.0,60.0,0.0,0.0
1456,52.0,10.0,30.0,0.0,0.0
1457,40.0,5.0,30.0,0.0,0.0
1458,76.0,32.0,30.0,0.0,0.0
1459,63.0,28.0,30.0,0.0,0.0
1460,39.0,2.0,30.0,0.0,0.0
1461,51.0,0.0,30.0,0.0,0.0
1462,75.0,34.0,30.0,0.0,0.0
1463,64.0,22.0,30.0,0.0,0.0
1464,52.0,7.0,30.0,0.0,0.0
1465,40.0,0.0,30.0,0.0,0.0
1466,76.0,32.0,30.0,0.0,0.0
1467,45.0,0.0,30.0,0.0,0.0
1468,33.0,1.0,30.0,0.0,0.0
1469,57.0,29.0,30.0,0.0,0.0
1470,69.0,39.0,30.0,0.0,0.0
1471,71.0,0.0,60.0,0.0,0.0
1472,57.0,21.0,60.0,0.0,0.0
1473,47.0,21.0,30.0,0.0,0.0
1474,59.0,7.0,60.0,0.0,0.0
1475,63.0,2.0,60.0,0.0,0.0
1476,66.0,2.0,60.0,0.0,0.0
1477,45.0,2.0,30.0,0.0,0.0
1478,43.0,31.0,30.0,0.0,0.0
1479,42.0,16.0,30.0,0.0,0.0
1480,67.0,4.0,20.0,0.0,0.0
1481,64.0,2.0,30.0,0.0,0.0
1482,40.0,3.0,30.0,0.0,0.0
1483,55.0,5.0,15.0,0.0,0.0
1484,59.0,22.0,30.0,0.0,0.0
1485,42.0,36.0,20.0,0.0,0.0
1486,39.0,29.0,30.0,0.0,0.0
1487,40.0,27.0,30.0,0.0,0.0
1488,57.0,1.0,60.0,0.0,0.0
1489,59.0,1.0,60.0,0.0,0.0
1490,63.0,28.0,60.0,0.0,0.0
1491,42.0,32.0,30.0,0.0,0.0
1492,43.0,1.0,30.0,0.0,0.0
1493,40.0,23.0,30.0,0.0,0.0
1494,42.0,29.0,30.0,0.0,0.0
1495,64.0,1.0,60.0,0.0,0.0
1496,43.0,35.0,30.0,0.0,0.0
1497,59.0,0.0,60.0,0.0,0.0
1498,55.0,20.0,60.0,0.0,0.0
1499,45.0,0.0,30.0,0.0,0.0
1500,42.0,33.0,20.0,0.0,0.0
1501,43.0,32.0,30.0,0.0,0.0
1502,64.0,1.0,60.0,0.0,0.0
1503,60.0,2.0,60.0,0.0,0.0
1504,57.0,0.0,60.0,0.0,0.0
1505,45.0,29.0,30.0,0.0,0.0
1506,47.0,23.0,30.0,0.0,0.0
1507,43.0,39.0,20.0,0.0,0.0
1508,45.0,23.0,30.0,0.0,0.0
1509,47.0,22.0,30.0,0.0,0.0
1510,64.0,11.0,60.0,0.0,0.0
1511,55.0,12.0,60.0,0.0,0.0
1512,59.0,0.0,60.0,0.0,0.0
1513,48.0,10.0,20.0,0.0,0.0
1514,47.0,29.0,30.0,0.0,0.0
1515,52.0,28.0,30.0,0.0,0.0
1516,64.0,0.0,60.0,0.0,0.0
1517,60.0,29.0,60.0,0.0,0.0
1518,57.0,0.0,60.0,0.0,0.0
1519,45.0,30.0,30.0,0.0,0.0
1520,47.0,4.0,30.0,0.0,0.0
1521,45.0,21.0,30.0,0.0,0.0
1522,52.0,39.0,20.0,0.0,0.0
1523,59.0,0.0,60.0,0.0,0.0
1524,64.0,24.0,60.0,0.0,0.0
1525,43.0,30.0,30.0,0.0,0.0
1526,45.0,0.0,30.0,0.0,0.0
1527,43.0,29.0,20.0,0.0,0.0
1528,52.0,33.0,20.0,0.0,0.0
1529,57.0,0.0,60.0,0.0,0.0
1530,59.0,0.0,60.0,0.0,0.0
1531,66.0,2.0,60.0,0.0,0.0
1532,42.0,34.0,30.0,0.0,0.0
1533,43.0,18.0,30.0,0.0,0.0
1534,42.0,32.0,20.0,0.0,0.0
1535,51.0,38.0,30.0,0.0,0.0
1536,40.0,5.0,30.0,0.0,0.0
1537,55.0,15.0,30.0,0.0,0.0
1538,59.0,2.0,60.0,0.0,0.0
1539,64.0,3.0,60.0,0.0,0.0
1540,67.0,31.0,60.0,0.0,0.0
1541,48.0,2.0,30.0,0.0,0.0
1542,55.0,20.0,30.0,0.0,0.0
1543,47.0,34.0,20.0,0.0,0.0
1544,78.0,9.0,90.0,0.0,0.0
1545,71.0,0.0,90.0,0.0,0.0
1546,83.0,0.0,90.0,0.0,0.0
1547,39.0,33.0,30.0,0.0,0.0
1548,48.0,28.0,30.0,0.0,0.0
1549,54.0,15.0,30.0,0.0,0.0
1550,47.0,35.0,30.0,0.0,0.0
1551,79.0,0.0,90.0,0.0,0.0
1552,71.0,1.0,90.0,0.0,0.0
1553,76.0,23.0,90.0,0.0,0.0
1554,40.0,25.0,30.0,0.0,0.0
1555,48.0,33.0,30.0,0.0,0.0
1556,55.0,1.0,30.0,0.0,0.0
1557,47.0,27.0,30.0,0.0,0.0
1558,71.0,0.0,120.0,0.0,0.0
1559,59.0,8.0,120.0,0.0,0.0
1560,66.0,5.0,120.0,0.0,0.0
1561,39.0,35.0,20.0,0.0,0.0
1562,48.0,33.0,30.0,0.0,0.0
1563,54.0,15.0,30.0,0.0,0.0
1564,47.0,61.0,30.0,0.0,0.0
1565,67.0,1.0,60.0,0.0,0.0
1566,59.0,4.0,60.0,0.0,0.0
1567,52.0,41.0,60.0,0.0,0.0
1568,40.0,0.0,60.0,0.0,0.0
1569,60.0,18.0,30.0,0.0,0.0
1570,57.0,13.0,60.0,0.0,0.0
1571,63.0,24.0,30.0,0.0,0.0
1572,59.0,18.0,30.0,0.0,0.0
1573,55.0,5.0,30.0,0.0,0.0
1574,64.0,47.0,20.0,0.0,0.0
1575,60.0,25.0,30.0,0.0,0.0
1576,63.0,2.0,30.0,0.0,0.0
1577,66.0,15.0,30.0,0.0,0.0
1578,59.0,8.0,30.0,0.0,0.0
1579,62.0,18.0,30.0,0.0,0.0
1580,67.0,49.0,20.0,0.0,0.0
1581,65.0,17.0,30.0,0.0,0.0
1582,62.0,3.0,60.0,0.0,0.0
1583,68.0,26.0,30.0,0.0,0.0
1584,60.0,3.0,30.0,0.0,0.0
1585,64.0,19.0,30.0,0.0,0.0
1586,69.0,37.0,20.0,0.0,0.0
1587,68.0,19.0,30.0,0.0,0.0
1588,62.0,5.0,30.0,0.0,0.0
1589,52.0,5.0,60.0,0.0,0.0
1590,59.0,9.0,60.0,0.0,0.0
1591,71.0,42.0,30.0,0.0,0.0
1592,57.0,0.0,60.0,0.0,0.0
1593,69.0,7.0,60.0,0.0,0.0
1594,60.0,11.0,60.0,0.0,0.0
1595,71.0,39.0,30.0,0.0,0.0
1596,68.0,26.0,30.0,0.0,0.0
1597,69.0,25.0,30.0,0.0,0.0
1598,65.0,1.0,30.0,0.0,0.0
1599,71.0,19.0,30.0,0.0,0.0
1600,62.0,5.0,30.0,0.0,0.0
1601,72.0,42.0,20.0,0.0,0.0
1602,69.0,24.0,30.0,0.0,0.0
1603,71.0,29.0,30.0,0.0,0.0
1604,72.0,22.0,30.0,0.0,0.0
1605,64.0,3.0,30.0,0.0,0.0
1606,60.0,0.0,30.0,0.0,0.0
1607,74.0,39.0,30.0,0.0,0.0
1608,71.0,31.0,30.0,0.0,0.0
1609,72.0,22.0,30.0,0.0,0.0
1610,62.0,4.0,30.0,0.0,0.0
1611,59.0,4.0,30.0,0.0,0.0
1612,74.0,20.0,30.0,0.0,0.0
1613,76.0,41.0,20.0,0.0,0.0
1614,72.0,32.0,30.0,0.0,0.0
1615,74.0,8.0,30.0,0.0,0.0
1616,57.0,15.0,20.0,0.0,0.0
1617,60.0,3.0,15.0,0.0,0.0
1618,76.0,22.0,30.0,0.0,0.0
1619,77.0,37.0,30.0,0.0,0.0
1620,76.0,50.0,30.0,0.0,0.0
1621,81.0,5.0,60.0,0.0,0.0
1622,53.0,0.0,30.0,0.0,0.0
1623,62.0,5.0,30.0,0.0,0.0
1624,74.0,32.0,30.0,0.0,0.0
1625,57.0,2.0,30.0,0.0,0.0
1626,76.0,23.0,30.0,0.0,0.0
1627,74.0,52.0,30.0,0.0,0.0
1628,81.0,15.0,60.0,0.0,0.0
1629,72.0,24.0,30.0,0.0,0.0
1630,52.0,0.0,60.0,0.0,0.0
1631,60.0,1.0,60.0,0.0,0.0
1632,57.0,28.0,60.0,0.0,0.0
1633,74.0,0.0,30.0,0.0,0.0
1634,72.0,59.0,30.0,0.0,0.0
1635,81.0,15.0,60.0,0.0,0.0
1636,71.0,14.0,30.0,0.0,0.0
1637,50.0,0.0,60.0,0.0,0.0
1638,59.0,35.0,60.0,0.0,0.0
1639,57.0,0.0,60.0,0.0,0.0
1640,72.0,4.0,30.0,0.0,0.0
1641,71.0,73.0,30.0,0.0,0.0
1642,81.0,8.0,90.0,0.0,0.0
1643,45.0,7.0,60.0,0.0,0.0
1644,52.0,0.0,60.0,0.0,0.0
1645,60.0,0.0,60.0,0.0,0.0
1646,69.0,3.0,60.0,0.0,0.0
1647,76.0,29.0,30.0,0.0,0.0
1648,84.0,29.0,30.0,0.0,0.0
1649,77.0,61.0,30.0,0.0,0.0
1650,50.0,1.0,60.0,0.0,0.0
1651,41.0,0.0,60.0,0.0,0.0
1652,59.0,2.0,60.0,0.0,0.0
1653,68.0,30.0,60.0,0.0,0.0
1654,74.0,25.0,60.0,0.0,0.0
1655,83.0,60.0,60.0,0.0,0.0
1656,76.0,3.0,30.0,0.0,0.0
1657,41.0,7.0,60.0,0.0,0.0
1658,48.0,8.0,60.0,0.0,0.0
1659,57.0,4.0,60.0,0.0,0.0
1660,65.0,0.0,60.0,0.0,0.0
1661,71.0,38.0,60.0,0.0,0.0
1662,81.0,40.0,60.0,0.0,0.0
1663,72.0,3.0,30.0,0.0,0.0
1664,58.0,1.0,60.0,0.0,0.0
1665,64.0,0.0,60.0,0.0,0.0
1666,61.0,1.0,60.0,0.0,0.0
1667,49.0,17.0,30.0,0.0,0.0
1668,55.0,56.0,60.0,0.0,0.0
1669,69.0,1.0,30.0,0.0,0.0
1670,79.0,42.0,60.0,0.0,0.0
1671,70.0,3.0,30.0,0.0,0.0
1672,65.0,14.0,60.0,0.0,0.0
1673,50.0,0.0,30.0,0.0,0.0
1674,62.0,18.0,30.0,0.0,0.0
1675,57.0,1.0,30.0,0.0,0.0
1676,69.0,12.0,60.0,0.0,0.0
1677,77.0,1.0,30.0,0.0,0.0
1678,46.0,18.0,30.0,0.0,0.0
1679,58.0,0.0,30.0,0.0,0.0
1680,74.0,38.0,20.0,0.0,0.0
1681,77.0,15.0,60.0,0.0,0.0
1682,57.0,1.0,30.0,0.0,0.0
1683,45.0,28.0,30.0,0.0,0.0
1684,81.0,10.0,30.0,0.0,0.0
1685,41.0,32.0,30.0,0.0,0.0
1686,53.0,0.0,30.0,0.0,0.0
1687,89.0,0.0,60.0,0.0,0.0
1688,86.0,23.0,30.0,0.0,0.0
1689,50.0,1.0,30.0,0.0,0.0
1690,38.0,2.0,30.0,0.0,0.0
1691,81.0,24.0,30.0,0.0,0.0
1692,77.0,28.0,30.0,0.0,0.0
1693,33.0,0.0,30.0,0.0,0.0
1694,45.0,10.0,30.0,0.0,0.0
1695,74.0,20.0,30.0,0.0,0.0
1696,69.0,33.0,30.0,0.0,0.0
1697,46.0,32.0,60.0,0.0,0.0
1698,34.0,27.0,120.0,0.0,0.0
1699,65.0,38.0,30.0,0.0,0.0
1700,62.0,11.0,90.0,0.0,0.0
1701,58.0,6.0,30.0,0.0,0.0
1702,53.0,11.0,15.0,0.0,0.0
1703,37.0,29.0,30.0,0.0,0.0
1704,58.0,22.0,330.0,0.0,0.0
1705,64.0,18.0,120.0,0.0,0.0
1706,55.0,1.0,330.0,0.0,0.0
1707,38.0,37.0,30.0,0.0,0.0
1708,36.0,33.0,30.0,0.0,0.0
1709,37.0,9.0,30.0,0.0,0.0
1710,38.0,32.0,30.0,0.0,0.0
1711,62.0,25.0,120.0,0.0,0.0
1712,40.0,26.0,30.0,0.0,0.0
1713,37.0,31.0,30.0,0.0,0.0
1714,38.0,4.0,30.0,0.0,0.0
1715,61.0,32.0,120.0,0.0,0.0
1716,40.0,33.0,30.0,0.0,0.0
1717,41.0,29.0,30.0,0.0,0.0
1718,38.0,4.0,30.0,0.0,0.0
1719,40.0,2.0,30.0,0.0,0.0
1720,62.0,2.0,120.0,0.0,0.0
1721,41.0,34.0,30.0,0.0,0.0
1722,53.0,0.0,120.0,0.0,0.0
1723,58.0,13.0,120.0,0.0,0.0
1724,43.0,24.0,30.0,0.0,0.0
1725,41.0,17.0,30.0,0.0,0.0
1726,43.0,34.0,30.0,0.0,0.0
1727,37.0,32.0,30.0,0.0,0.0
1728,55.0,2.0,450.0,0.0,0.0
1729,64.0,4.0,150.0,0.0,0.0
1730,58.0,12.0,330.0,0.0,0.0
1731,38.0,28.0,30.0,0.0,0.0
1732,36.0,33.0,30.0,0.0,0.0
1733,37.0,29.0,30.0,0.0,0.0
1734,62.0,1.0,120.0,0.0,0.0
1735,38.0,27.0,30.0,0.0,0.0
1736,40.0,26.0,30.0,0.0,0.0
1737,37.0,34.0,20.0,0.0,0.0
1738,38.0,25.0,30.0,0.0,0.0
1739,40.0,32.0,30.0,0.0,0.0
1740,61.0,26.0,120.0,0.0,0.0
1741,41.0,32.0,30.0,0.0,0.0
1742,38.0,15.0,30.0,0.0,0.0
1743,40.0,4.0,20.0,0.0,0.0
1744,41.0,31.0,30.0,0.0,0.0
1745,62.0,1.0,90.0,0.0,0.0
1746,57.0,19.0,90.0,0.0,0.0
1747,43.0,29.0,30.0,0.0,0.0
1748,41.0,8.0,30.0,0.0,0.0
1749,43.0,63.0,30.0,0.0,0.0
1750,71.0,29.0,150.0,0.0,0.0
1751,62.0,18.0,330.0,0.0,0.0
1752,65.0,23.0,300.0,0.0,0.0
1753,44.0,30.0,60.0,0.0,0.0
1754,45.0,3.0,30.0,0.0,0.0
1755,43.0,31.0,30.0,0.0,0.0
1756,44.0,25.0,30.0,0.0,0.0
1757,45.0,2.0,30.0,0.0,0.0
1758,69.0,23.0,120.0,0.0,0.0
1759,47.0,28.0,30.0,0.0,0.0
1760,44.0,32.0,30.0,0.0,0.0
1761,45.0,0.0,30.0,0.0,0.0
1762,47.0,34.0,30.0,0.0,0.0
1763,68.0,33.0,120.0,0.0,0.0
1764,48.0,6.0,30.0,0.0,0.0
1765,45.0,7.0,30.0,0.0,0.0
1766,47.0,1.0,30.0,0.0,0.0
1767,60.0,0.0,90.0,0.0,0.0
1768,65.0,8.0,90.0,0.0,0.0
1769,48.0,31.0,30.0,0.0,0.0
1770,69.0,18.0,90.0,0.0,0.0
1771,50.0,26.0,30.0,0.0,0.0
1772,48.0,6.0,30.0,0.0,0.0
1773,50.0,29.0,30.0,0.0,0.0
1774,62.0,0.0,330.0,0.0,0.0
1775,65.0,2.0,330.0,0.0,0.0
1776,44.0,33.0,30.0,0.0,0.0
1777,71.0,0.0,150.0,0.0,0.0
1778,45.0,32.0,30.0,0.0,0.0
1779,43.0,36.0,30.0,0.0,0.0
1780,44.0,25.0,30.0,0.0,0.0
1781,69.0,27.0,120.0,0.0,0.0
1782,45.0,35.0,30.0,0.0,0.0
1783,47.0,24.0,30.0,0.0,0.0
1784,44.0,31.0,30.0,0.0,0.0
1785,45.0,1.0,30.0,0.0,0.0
1786,68.0,26.0,90.0,0.0,0.0
1787,47.0,33.0,30.0,0.0,0.0
1788,48.0,28.0,30.0,0.0,0.0
1789,45.0,1.0,30.0,0.0,0.0
1790,47.0,34.0,30.0,0.0,0.0
1791,69.0,2.0,120.0,0.0,0.0
1792,67.0,1.0,120.0,0.0,0.0
1793,57.0,0.0,120.0,0.0,0.0
1794,64.0,19.0,120.0,0.0,0.0
1795,49.0,32.0,30.0,0.0,0.0
1796,50.0,29.0,30.0,0.0,0.0
1797,48.0,11.0,30.0,0.0,0.0
1798,49.0,27.0,30.0,0.0,0.0
1799,62.0,31.0,90.0,0.0,0.0
1800,57.0,2.0,90.0,0.0,0.0
1801,50.0,28.0,30.0,0.0,0.0
1802,65.0,2.0,90.0,0.0,0.0
1803,69.0,1.0,90.0,0.0,0.0
1804,52.0,27.0,30.0,0.0,0.0
1805,49.0,3.0,30.0,0.0,0.0
1806,50.0,27.0,30.0,0.0,0.0
1807,69.0,1.0,90.0,0.0,0.0
1808,67.0,0.0,90.0,0.0,0.0
1809,61.0,19.0,90.0,0.0,0.0
1810,52.0,27.0,30.0,0.0,0.0
1811,53.0,30.0,30.0,0.0,0.0
1812,50.0,10.0,30.0,0.0,0.0
1813,52.0,26.0,30.0,0.0,0.0
1814,69.0,5.0,90.0,0.0,0.0
1815,62.0,1.0,90.0,0.0,0.0
1816,53.0,32.0,30.0,0.0,0.0
1817,65.0,6.0,90.0,0.0,0.0
1818,55.0,23.0,30.0,0.0,0.0
1819,52.0,23.0,30.0,0.0,0.0
1820,53.0,31.0,30.0,0.0,0.0
1821,62.0,0.0,90.0,0.0,0.0
1822,65.0,3.0,90.0,0.0,0.0
1823,71.0,23.0,90.0,0.0,0.0
1824,56.0,25.0,30.0,0.0,0.0
1825,57.0,33.0,20.0,0.0,0.0
1826,55.0,4.0,30.0,0.0,0.0
1827,56.0,25.0,30.0,0.0,0.0
1828,60.0,3.0,90.0,0.0,0.0
1829,57.0,30.0,30.0,0.0,0.0
1830,64.0,0.0,90.0,0.0,0.0
1831,72.0,27.0,90.0,0.0,0.0
1832,59.0,30.0,30.0,0.0,0.0
1833,56.0,8.0,30.0,0.0,0.0
1834,57.0,27.0,30.0,0.0,0.0
1835,64.0,7.0,90.0,0.0,0.0
1836,68.0,0.0,90.0,0.0,0.0
1837,74.0,2.0,90.0,0.0,0.0
1838,59.0,32.0,30.0,0.0,0.0
1839,60.0,26.0,30.0,0.0,0.0
1840,57.0,20.0,30.0,0.0,0.0
1841,59.0,30.0,30.0,0.0,0.0
1842,60.0,27.0,30.0,0.0,0.0
1843,76.0,2.0,90.0,0.0,0.0
1844,69.0,0.0,90.0,0.0,0.0
1845,64.0,19.0,90.0,0.0,0.0
1846,62.0,34.0,20.0,0.0,0.0
1847,59.0,7.0,30.0,0.0,0.0
1848,60.0,30.0,30.0,0.0,0.0
1849,71.0,2.0,90.0,0.0,0.0
1850,77.0,18.0,120.0,0.0,0.0
1851,69.0,15.0,90.0,0.0,0.0
1852,62.0,28.0,30.0,0.0,0.0
1853,64.0,29.0,30.0,0.0,0.0
1854,60.0,0.0,30.0,0.0,0.0
1855,62.0,36.0,30.0,0.0,0.0
1856,64.0,31.0,30.0,0.0,0.0
1857,72.0,1.0,210.0,0.0,0.0
1858,76.0,12.0,210.0,0.0,0.0
1859,69.0,3.0,210.0,0.0,0.0
1860,65.0,28.0,30.0,0.0,0.0
1861,64.0,24.0,30.0,0.0,0.0
1862,62.0,40.0,30.0,0.0,0.0
1863,60.0,25.0,30.0,0.0,0.0
1864,59.0,11.0,30.0,0.0,0.0
1865,57.0,34.0,30.0,0.0,0.0
1866,55.0,33.0,30.0,0.0,0.0
1867,53.0,21.0,30.0,0.0,0.0
1868,72.0,0.0,90.0,0.0,0.0
1869,76.0,7.0,90.0,0.0,0.0
1870,81.0,0.0,90.0,0.0,0.0
1871,69.0,0.0,90.0,0.0,0.0
1872,52.0,24.0,30.0,0.0,0.0
1873,50.0,29.0,30.0,0.0,0.0
1874,48.0,38.0,30.0,0.0,0.0
1875,84.0,0.0,90.0,0.0,0.0
1876,81.0,34.0,90.0,0.0,0.0
1877,76.0,0.0,90.0,0.0,0.0
1878,72.0,0.0,90.0,0.0,0.0
1879,47.0,20.0,30.0,0.0,0.0
1880,45.0,26.0,30.0,0.0,0.0
1881,43.0,6.0,30.0,0.0,0.0
1882,41.0,27.0,30.0,0.0,0.0
1883,81.0,0.0,90.0,0.0,0.0
1884,76.0,2.0,90.0,0.0,0.0
1885,84.0,1.0,90.0,0.0,0.0
1886,40.0,25.0,30.0,0.0,0.0
1887,88.0,0.0,90.0,0.0,0.0
1888,38.0,25.0,30.0,0.0,0.0
1889,36.0,30.0,30.0,0.0,0.0
1890,35.0,30.0,30.0,0.0,0.0
1891,33.0,35.0,30.0,0.0,0.0
1892,88.0,1.0,90.0,0.0,0.0
1893,93.0,0.0,90.0,0.0,0.0
1894,84.0,29.0,90.0,0.0,0.0
1895,81.0,0.0,90.0,0.0,0.0
1896,31.0,24.0,30.0,0.0,0.0
1897,29.0,3.0,30.0,0.0,0.0
1898,28.0,79.0,30.0,0.0,0.0
1899,77.0,0.0,90.0,0.0,0.0
1900,89.0,0.0,90.0,0.0,0.0
1901,81.0,0.0,90.0,0.0,0.0
1902,83.0,123.0,90.0,0.0,0.0
1903,26.0,5.0,60.0,0.0,0.0
1904,38.0,13.0,90.0,0.0,0.0
1905,62.0,100.0,90.0,0.0,0.0
1906,64.0,0.0,90.0,0.0,0.0
1907,56.0,0.0,90.0,0.0,0.0
1908,68.0,0.0,90.0,0.0,0.0
1909,28.0,1.0,60.0,0.0,0.0
1910,40.0,19.0,60.0,0.0,0.0
1911,69.0,4.0,90.0,0.0,0.0
1912,57.0,4.0,60.0,0.0,0.0
1913,60.0,4.0,60.0,0.0,0.0
1914,64.0,4.0,60.0,0.0,0.0
1915,21.0,2.0,60.0,0.0,0.0
1916,33.0,84.0,90.0,0.0,0.0
1917,76.0,28.0,30.0,0.0,0.0
1918,52.0,0.0,60.0,0.0,0.0
1919,40.0,32.0,60.0,0.0,0.0
1920,77.0,5.0,30.0,0.0,0.0
1921,76.0,23.0,30.0,0.0,0.0
1922,33.0,2.0,60.0,0.0,0.0
1923,84.0,25.0,30.0,0.0,0.0
1924,54.0,1.0,60.0,0.0,0.0
1925,75.0,25.0,30.0,0.0,0.0
1926,42.0,21.0,60.0,0.0,0.0
1927,76.0,4.0,30.0,0.0,0.0
1928,33.0,10.0,60.0,0.0,0.0
1929,75.0,28.0,30.0,0.0,0.0
1930,84.0,4.0,30.0,0.0,0.0
1931,76.0,14.0,30.0,0.0,0.0
1932,41.0,2.0,60.0,0.0,0.0
1933,53.0,0.0,60.0,0.0,0.0
1934,74.0,31.0,30.0,0.0,0.0
1935,76.0,33.0,30.0,0.0,0.0
1936,74.0,20.0,30.0,0.0,0.0
1937,33.0,24.0,60.0,0.0,0.0
1938,83.0,1.0,60.0,0.0,0.0
1939,73.0,25.0,30.0,0.0,0.0
1940,52.0,16.0,60.0,0.0,0.0
1941,40.0,0.0,60.0,0.0,0.0
1942,74.0,5.0,30.0,0.0,0.0
1943,73.0,32.0,20.0,0.0,0.0
1944,33.0,28.0,60.0,0.0,0.0
1945,82.0,6.0,30.0,0.0,0.0
1946,72.0,23.0,30.0,0.0,0.0
1947,40.0,19.0,60.0,0.0,0.0
1948,51.0,0.0,60.0,0.0,0.0
1949,74.0,5.0,30.0,0.0,0.0
1950,33.0,22.0,60.0,0.0,0.0
1951,72.0,33.0,20.0,0.0,0.0
1952,81.0,3.0,30.0,0.0,0.0
1953,50.0,21.0,60.0,0.0,0.0
1954,40.0,0.0,60.0,0.0,0.0
1955,71.0,25.0,30.0,0.0,0.0
1956,72.0,8.0,30.0,0.0,0.0
1957,33.0,27.0,60.0,0.0,0.0
1958,71.0,29.0,30.0,0.0,0.0
1959,81.0,1.0,30.0,0.0,0.0
1960,47.0,19.0,60.0,0.0,0.0
1961,71.0,20.0,30.0,0.0,0.0
1962,40.0,0.0,60.0,0.0,0.0
1963,72.0,12.0,20.0,0.0,0.0
1964,33.0,30.0,60.0,0.0,0.0
1965,71.0,30.0,30.0,0.0,0.0
1966,80.0,4.0,30.0,0.0,0.0
1967,40.0,0.0,60.0,0.0,0.0
1968,48.0,46.0,60.0,0.0,0.0
1969,69.0,26.0,30.0,0.0,0.0
1970,71.0,10.0,30.0,0.0,0.0
1971,33.0,1.0,60.0,0.0,0.0
1972,69.0,29.0,60.0,0.0,0.0
1973,81.0,6.0,60.0,0.0,0.0
1974,52.0,0.0,60.0,0.0,0.0
1975,40.0,30.0,60.0,0.0,0.0
1976,76.0,26.0,30.0,0.0,0.0
1977,77.0,0.0,30.0,0.0,0.0
1978,76.0,28.0,30.0,0.0,0.0
1979,33.0,30.0,60.0,0.0,0.0
1980,84.0,0.0,60.0,0.0,0.0
1981,54.0,1.0,60.0,0.0,0.0
1982,75.0,25.0,30.0,0.0,0.0
1983,42.0,20.0,60.0,0.0,0.0
1984,76.0,5.0,30.0,0.0,0.0
1985,33.0,25.0,60.0,0.0,0.0
1986,75.0,34.0,30.0,0.0,0.0
1987,84.0,4.0,60.0,0.0,0.0
1988,53.0,2.0,60.0,0.0,0.0
1989,74.0,29.0,30.0,0.0,0.0
1990,41.0,0.0,60.0,0.0,0.0
1991,76.0,29.0,30.0,0.0,0.0
1992,33.0,29.0,60.0,0.0,0.0
1993,74.0,25.0,30.0,0.0,0.0
1994,83.0,1.0,60.0,0.0,0.0
1995,73.0,28.0,30.0,0.0,0.0
1996,40.0,30.0,90.0,0.0,0.0
1997,52.0,0.0,90.0,0.0,0.0
1998,74.0,20.0,30.0,0.0,0.0
1999,33.0,23.0,60.0,0.0,0.0
2000,73.0,7.0,20.0,0.0,0.0
2001,82.0,6.0,60.0,0.0,0.0
2002,40.0,1.0,60.0,0.0,0.0
2003,51.0,20.0,60.0,0.0,0.0
2004,72.0,24.0,30.0,0.0,0.0
2005,74.0,4.0,30.0,0.0,0.0
2006,33.0,25.0,60.0,0.0,0.0
2007,72.0,35.0,20.0,0.0,0.0
2008,81.0,1.0,60.0,0.0,0.0
2009,40.0,1.0,60.0,0.0,0.0
2010,71.0,27.0,30.0,0.0,0.0
2011,50.0,20.0,60.0,0.0,0.0
2012,72.0,2.0,30.0,0.0,0.0
2013,71.0,37.0,20.0,0.0,0.0
2014,33.0,25.0,60.0,0.0,0.0
2015,81.0,22.0,60.0,0.0,0.0
2016,71.0,2.0,30.0,0.0,0.0
2017,40.0,19.0,60.0,0.0,0.0
2018,47.0,0.0,60.0,0.0,0.0
2019,72.0,6.0,30.0,0.0,0.0
2020,71.0,4.0,30.0,0.0,0.0
2021,33.0,57.0,30.0,0.0,0.0
2022,80.0,9.0,60.0,0.0,0.0
2023,33.0,1.0,60.0,0.0,0.0
2024,48.0,0.0,60.0,0.0,0.0
2025,69.0,21.0,30.0,0.0,0.0
2026,40.0,22.0,60.0,0.0,0.0
2027,71.0,6.0,20.0,0.0,0.0
2028,69.0,56.0,30.0,0.0,0.0
2029,81.0,19.0,60.0,0.0,0.0
2030,76.0,3.0,30.0,0.0,0.0
2031,64.0,2.0,20.0,0.0,0.0
2032,77.0,22.0,20.0,0.0,0.0
2033,63.0,4.0,20.0,0.0,0.0
2034,76.0,1.0,20.0,0.0,0.0
2035,64.0,61.0,20.0,0.0,0.0
2036,52.0,1.0,60.0,0.0,0.0
2037,84.0,18.0,60.0,0.0,0.0
2038,63.0,2.0,30.0,0.0,0.0
2039,75.0,1.0,30.0,0.0,0.0
2040,62.0,0.0,20.0,0.0,0.0
2041,76.0,20.0,20.0,0.0,0.0
2042,63.0,8.0,20.0,0.0,0.0
2043,75.0,52.0,30.0,0.0,0.0
2044,52.0,0.0,60.0,0.0,0.0
2045,84.0,3.0,60.0,0.0,0.0
2046,62.0,7.0,20.0,0.0,0.0
2047,74.0,18.0,30.0,0.0,0.0
2048,76.0,26.0,30.0,0.0,0.0
2049,61.0,1.0,30.0,0.0,0.0
2050,74.0,58.0,30.0,0.0,0.0
2051,62.0,0.0,30.0,0.0,0.0
2052,52.0,1.0,60.0,0.0,0.0
2053,83.0,0.0,60.0,0.0,0.0
2054,61.0,4.0,30.0,0.0,0.0
2055,73.0,22.0,30.0,0.0,0.0
2056,60.0,1.0,30.0,0.0,0.0
2057,74.0,19.0,30.0,0.0,0.0
2058,73.0,64.0,20.0,0.0,0.0
2059,61.0,2.0,20.0,0.0,0.0
2060,52.0,22.0,90.0,0.0,0.0
2061,82.0,2.0,90.0,0.0,0.0
2062,72.0,12.0,30.0,0.0,0.0
2063,60.0,7.0,30.0,0.0,0.0
2064,59.0,8.0,30.0,0.0,0.0
2065,74.0,1.0,30.0,0.0,0.0
2066,60.0,1.0,30.0,0.0,0.0
2067,72.0,43.0,30.0,0.0,0.0
2068,81.0,1.0,60.0,0.0,0.0
2069,52.0,17.0,60.0,0.0,0.0
2070,59.0,5.0,20.0,0.0,0.0
2071,71.0,9.0,30.0,0.0,0.0
2072,58.0,4.0,30.0,0.0,0.0
2073,72.0,21.0,30.0,0.0,0.0
2074,71.0,1.0,30.0,0.0,0.0
2075,59.0,53.0,30.0,0.0,0.0
2076,52.0,0.0,60.0,0.0,0.0
2077,80.0,18.0,60.0,0.0,0.0
2078,70.0,4.0,30.0,0.0,0.0
2079,58.0,3.0,30.0,0.0,0.0
2080,57.0,22.0,30.0,0.0,0.0
2081,71.0,5.0,30.0,0.0,0.0
2082,70.0,6.0,30.0,0.0,0.0
2083,58.0,41.0,30.0,0.0,0.0
2084,79.0,8.0,60.0,0.0,0.0
2085,52.0,0.0,60.0,0.0,0.0
2086,69.0,7.0,30.0,0.0,0.0
2087,57.0,8.0,20.0,0.0,0.0
2088,56.0,12.0,20.0,0.0,0.0
2089,70.0,23.0,30.0,0.0,0.0
2090,57.0,48.0,30.0,0.0,0.0
2091,69.0,1.0,30.0,0.0,0.0
2092,78.0,0.0,60.0,0.0,0.0
2093,40.0,1.0,60.0,0.0,0.0
2094,56.0,12.0,20.0,0.0,0.0
2095,68.0,14.0,30.0,0.0,0.0
2096,55.0,10.0,20.0,0.0,0.0
2097,69.0,8.0,30.0,0.0,0.0
2098,56.0,14.0,15.0,0.0,0.0
2099,68.0,28.0,30.0,0.0,0.0
2100,77.0,22.0,30.0,0.0,0.0
2101,40.0,1.0,60.0,0.0,0.0
2102,67.0,16.0,30.0,0.0,0.0
2103,55.0,8.0,20.0,0.0,0.0
2104,54.0,7.0,20.0,0.0,0.0
2105,68.0,22.0,30.0,0.0,0.0
2106,55.0,25.0,30.0,0.0,0.0
2107,67.0,4.0,20.0,0.0,0.0
2108,76.0,20.0,30.0,0.0,0.0
2109,40.0,8.0,60.0,0.0,0.0
2110,54.0,8.0,20.0,0.0,0.0
2111,66.0,4.0,30.0,0.0,0.0
2112,53.0,12.0,15.0,0.0,0.0
2113,67.0,14.0,30.0,0.0,0.0
2114,54.0,10.0,15.0,0.0,0.0
2115,66.0,29.0,30.0,0.0,0.0
2116,75.0,24.0,30.0,0.0,0.0
2117,40.0,19.0,60.0,0.0,0.0
2118,53.0,2.0,30.0,0.0,0.0
2119,65.0,5.0,30.0,0.0,0.0
2120,66.0,0.0,30.0,0.0,0.0
2121,52.0,12.0,30.0,0.0,0.0
2122,65.0,34.0,20.0,0.0,0.0
2123,53.0,9.0,15.0,0.0,0.0
2124,74.0,18.0,30.0,0.0,0.0
2125,40.0,6.0,60.0,0.0,0.0
2126,64.0,8.0,20.0,0.0,0.0
2127,52.0,4.0,20.0,0.0,0.0
2128,51.0,2.0,15.0,0.0,0.0
2129,65.0,35.0,15.0,0.0,0.0
2130,64.0,23.0,30.0,0.0,0.0
2131,52.0,5.0,30.0,0.0,0.0
2132,40.0,0.0,60.0,0.0,0.0
2133,73.0,24.0,30.0,0.0,0.0
2134,63.0,22.0,30.0,0.0,0.0
2135,51.0,5.0,30.0,0.0,0.0
2136,64.0,16.0,30.0,0.0,0.0
2137,50.0,3.0,30.0,0.0,0.0
2138,63.0,32.0,20.0,0.0,0.0
2139,51.0,2.0,20.0,0.0,0.0
2140,40.0,0.0,30.0,0.0,0.0
2141,72.0,21.0,30.0,0.0,0.0
2142,50.0,7.0,20.0,0.0,0.0
2143,62.0,22.0,30.0,0.0,0.0
2144,49.0,2.0,30.0,0.0,0.0
2145,64.0,19.0,30.0,0.0,0.0
2146,50.0,7.0,20.0,0.0,0.0
2147,62.0,22.0,30.0,0.0,0.0
2148,40.0,3.0,30.0,0.0,0.0
2149,71.0,29.0,30.0,0.0,0.0
2150,33.0,3.0,30.0,0.0,0.0
2151,60.0,2.0,30.0,0.0,0.0
2152,69.0,6.0,30.0,0.0,0.0
2153,40.0,10.0,30.0,0.0,0.0
2154,48.0,35.0,30.0,0.0,0.0
2155,52.0,27.0,30.0,0.0,0.0
2156,60.0,8.0,30.0,0.0,0.0
2157,57.0,42.0,15.0,0.0,0.0
2158,57.0,20.0,30.0,0.0,0.0
2159,64.0,28.0,30.0,0.0,0.0
2160,72.0,25.0,60.0,0.0,0.0
2161,69.0,20.0,15.0,0.0,0.0
2162,69.0,31.0,30.0,0.0,0.0
2163,76.0,15.0,30.0,0.0,0.0
2164,84.0,8.0,90.0,0.0,0.0
2165,81.0,40.0,15.0,0.0,0.0
2166,81.0,24.0,20.0,0.0,0.0
2167,88.0,33.0,30.0,0.0,0.0
2168,93.0,44.0,30.0,0.0,0.0
2169,45.0,4.0,60.0,0.0,0.0
2170,52.0,5.0,60.0,0.0,0.0
2171,96.0,0.0,60.0,0.0,0.0
2172,60.0,0.0,60.0,0.0,0.0
2173,88.0,19.0,60.0,0.0,0.0
2174,81.0,26.0,15.0,0.0,0.0
2175,81.0,50.0,30.0,0.0,0.0
2176,84.0,25.0,60.0,0.0,0.0
2177,76.0,14.0,60.0,0.0,0.0
2178,69.0,4.0,15.0,0.0,0.0
2179,69.0,51.0,30.0,0.0,0.0
2180,72.0,25.0,60.0,0.0,0.0
2181,64.0,20.0,60.0,0.0,0.0
2182,57.0,4.0,15.0,0.0,0.0
2183,57.0,52.0,30.0,0.0,0.0
2184,60.0,26.0,60.0,0.0,0.0
2185,52.0,94.0,60.0,0.0,0.0
2186,45.0,0.0,15.0,0.0,0.0
2187,45.0,1.0,15.0,0.0,0.0
2188,33.0,7.0,60.0,0.0,0.0
2189,45.0,175.0,60.0,0.0,0.0
2190,69.0,0.0,120.0,0.0,0.0
2191,52.0,0.0,120.0,0.0,0.0
2192,76.0,0.0,120.0,0.0,0.0
2193,72.0,2.0,120.0,0.0,0.0
2194,60.0,0.0,120.0,0.0,0.0
2195,45.0,0.0,120.0,0.0,0.0
2196,81.0,34.0,120.0,0.0,0.0
2197,57.0,165.0,15.0,0.0,0.0
2198,33.0,0.0,15.0,0.0,0.0
2199,45.0,1.0,15.0,0.0,0.0
2200,45.0,0.0,150.0,0.0,0.0
2201,57.0,0.0,150.0,0.0,0.0
2202,33.0,1.0,150.0,0.0,0.0
2203,21.0,6.0,150.0,0.0,0.0
