,note,step,duration,channel,velocity
0,41.0,2588.0,780.0,0.0,0.0
1,29.0,88.0,690.0,0.0,0.0
2,75.0,112.0,2340.0,0.0,0.0
3,84.0,28.0,2880.0,0.0,0.0
4,79.0,136.0,2190.0,0.0,0.0
5,72.0,224.0,840.0,0.0,0.0
6,65.0,52.0,630.0,0.0,0.0
7,81.0,148.0,240.0,0.0,0.0
8,77.0,20.0,300.0,0.0,0.0
9,74.0,236.0,300.0,0.0,0.0
10,82.0,40.0,300.0,0.0,0.0
11,70.0,88.0,330.0,0.0,0.0
12,79.0,64.0,210.0,0.0,0.0
13,84.0,76.0,120.0,0.0,0.0
14,65.0,168.0,270.0,0.0,0.0
15,74.0,76.0,180.0,0.0,0.0
16,82.0,84.0,210.0,0.0,0.0
17,72.0,8.0,180.0,0.0,0.0
18,75.0,8.0,180.0,0.0,0.0
19,81.0,168.0,150.0,0.0,0.0
20,69.0,56.0,40.0,0.0,0.0
21,77.0,64.0,90.0,0.0,0.0
22,53.0,92.0,90.0,0.0,0.0
23,82.0,320.0,180.0,0.0,0.0
24,72.0,0.0,90.0,0.0,0.0
25,79.0,64.0,510.0,0.0,0.0
26,70.0,28.0,240.0,0.0,0.0
27,74.0,12.0,270.0,0.0,0.0
28,67.0,188.0,40.0,0.0,0.0
29,75.0,24.0,210.0,0.0,0.0
30,53.0,36.0,90.0,0.0,0.0
31,81.0,32.0,120.0,0.0,0.0
32,70.0,324.0,150.0,0.0,0.0
33,79.0,4.0,270.0,0.0,0.0
34,69.0,20.0,240.0,0.0,0.0
35,72.0,16.0,270.0,0.0,0.0
36,65.0,140.0,40.0,0.0,0.0
37,74.0,56.0,180.0,0.0,0.0
38,77.0,88.0,240.0,0.0,0.0
39,53.0,48.0,90.0,0.0,0.0
40,79.0,88.0,150.0,0.0,0.0
41,69.0,224.0,210.0,0.0,0.0
42,75.0,12.0,240.0,0.0,0.0
43,67.0,20.0,210.0,0.0,0.0
44,70.0,56.0,240.0,0.0,0.0
45,79.0,148.0,120.0,0.0,0.0
46,72.0,140.0,240.0,0.0,0.0
47,63.0,28.0,60.0,0.0,0.0
48,77.0,8.0,150.0,0.0,0.0
49,53.0,212.0,300.0,0.0,0.0
50,67.0,128.0,150.0,0.0,0.0
51,65.0,44.0,300.0,0.0,0.0
52,75.0,8.0,240.0,0.0,0.0
53,69.0,24.0,240.0,0.0,0.0
54,74.0,272.0,90.0,0.0,0.0
55,62.0,4.0,60.0,0.0,0.0
56,70.0,24.0,60.0,0.0,0.0
57,75.0,128.0,90.0,0.0,0.0
58,65.0,220.0,210.0,0.0,0.0
59,41.0,16.0,60.0,0.0,0.0
60,72.0,96.0,270.0,0.0,0.0
61,67.0,112.0,150.0,0.0,0.0
62,63.0,68.0,330.0,0.0,0.0
63,75.0,608.0,120.0,0.0,0.0
64,60.0,40.0,60.0,0.0,0.0
65,69.0,4.0,90.0,0.0,0.0
66,74.0,24.0,300.0,0.0,0.0
67,41.0,48.0,240.0,0.0,0.0
68,63.0,2492.0,300.0,0.0,0.0
69,46.0,132.0,480.0,0.0,0.0
70,53.0,216.0,240.0,0.0,0.0
71,60.0,180.0,210.0,0.0,0.0
72,58.0,112.0,150.0,0.0,0.0
73,60.0,380.0,150.0,0.0,0.0
74,62.0,172.0,390.0,0.0,0.0
75,53.0,392.0,270.0,0.0,0.0
76,46.0,100.0,420.0,0.0,0.0
77,53.0,112.0,240.0,0.0,0.0
78,60.0,284.0,120.0,0.0,0.0
79,58.0,144.0,150.0,0.0,0.0
80,60.0,396.0,150.0,0.0,0.0
81,62.0,72.0,420.0,0.0,0.0
82,65.0,784.0,150.0,0.0,0.0
83,46.0,76.0,570.0,0.0,0.0
84,53.0,188.0,300.0,0.0,0.0
85,60.0,152.0,210.0,0.0,0.0
86,58.0,112.0,120.0,0.0,0.0
87,60.0,364.0,120.0,0.0,0.0
88,62.0,192.0,330.0,0.0,0.0
89,53.0,340.0,270.0,0.0,0.0
90,46.0,136.0,360.0,0.0,0.0
91,53.0,100.0,240.0,0.0,0.0
92,60.0,296.0,90.0,0.0,0.0
93,58.0,160.0,150.0,0.0,0.0
94,60.0,296.0,180.0,0.0,0.0
95,62.0,88.0,300.0,0.0,0.0
96,65.0,560.0,120.0,0.0,0.0
97,46.0,168.0,360.0,0.0,0.0
98,53.0,176.0,150.0,0.0,0.0
99,60.0,340.0,90.0,0.0,0.0
100,58.0,140.0,180.0,0.0,0.0
101,77.0,60.0,1200.0,0.0,0.0
102,74.0,60.0,1140.0,0.0,0.0
103,60.0,132.0,150.0,0.0,0.0
104,62.0,492.0,120.0,0.0,0.0
105,53.0,248.0,330.0,0.0,0.0
106,46.0,156.0,450.0,0.0,0.0
107,53.0,28.0,240.0,0.0,0.0
108,76.0,0.0,240.0,0.0,0.0
109,73.0,48.0,240.0,0.0,0.0
110,74.0,20.0,40.0,0.0,0.0
111,77.0,16.0,60.0,0.0,0.0
112,60.0,248.0,60.0,0.0,0.0
113,81.0,68.0,90.0,0.0,0.0
114,58.0,120.0,150.0,0.0,0.0
115,75.0,24.0,270.0,0.0,0.0
116,79.0,100.0,240.0,0.0,0.0
117,60.0,0.0,150.0,0.0,0.0
118,77.0,16.0,270.0,0.0,0.0
119,74.0,76.0,120.0,0.0,0.0
120,62.0,48.0,180.0,0.0,0.0
121,65.0,420.0,40.0,0.0,0.0
122,74.0,24.0,450.0,0.0,0.0
123,70.0,60.0,480.0,0.0,0.0
124,46.0,32.0,390.0,0.0,0.0
125,82.0,40.0,270.0,0.0,0.0
126,79.0,76.0,300.0,0.0,0.0
127,74.0,68.0,150.0,0.0,0.0
128,53.0,16.0,210.0,0.0,0.0
129,70.0,68.0,210.0,0.0,0.0
130,79.0,140.0,90.0,0.0,0.0
131,75.0,28.0,60.0,0.0,0.0
132,57.0,144.0,210.0,0.0,0.0
133,58.0,120.0,120.0,0.0,0.0
134,74.0,48.0,300.0,0.0,0.0
135,77.0,96.0,330.0,0.0,0.0
136,60.0,44.0,150.0,0.0,0.0
137,70.0,236.0,300.0,0.0,0.0
138,65.0,44.0,240.0,0.0,0.0
139,62.0,52.0,180.0,0.0,0.0
140,75.0,80.0,240.0,0.0,0.0
141,53.0,4.0,330.0,0.0,0.0
142,72.0,552.0,330.0,0.0,0.0
143,46.0,92.0,570.0,0.0,0.0
144,74.0,72.0,1380.0,0.0,0.0
145,70.0,32.0,1320.0,0.0,0.0
146,53.0,220.0,270.0,0.0,0.0
147,60.0,240.0,240.0,0.0,0.0
148,58.0,128.0,180.0,0.0,0.0
149,68.0,40.0,390.0,0.0,0.0
150,60.0,96.0,150.0,0.0,0.0
151,62.0,52.0,300.0,0.0,0.0
152,65.0,560.0,60.0,0.0,0.0
153,46.0,68.0,660.0,0.0,0.0
154,67.0,124.0,180.0,0.0,0.0
155,75.0,292.0,210.0,0.0,0.0
156,82.0,388.0,420.0,0.0,0.0
157,58.0,40.0,60.0,0.0,0.0
158,65.0,208.0,240.0,0.0,0.0
159,70.0,144.0,570.0,0.0,0.0
160,63.0,84.0,210.0,0.0,0.0
161,82.0,212.0,810.0,0.0,0.0
162,79.0,12.0,810.0,0.0,0.0
163,65.0,64.0,150.0,0.0,0.0
164,67.0,88.0,90.0,0.0,0.0
165,58.0,232.0,60.0,0.0,0.0
166,46.0,44.0,270.0,0.0,0.0
167,81.0,236.0,210.0,0.0,0.0
168,78.0,0.0,180.0,0.0,0.0
169,58.0,112.0,60.0,0.0,0.0
170,82.0,48.0,210.0,0.0,0.0
171,79.0,16.0,180.0,0.0,0.0
172,65.0,284.0,240.0,0.0,0.0
173,81.0,28.0,300.0,0.0,0.0
174,84.0,8.0,300.0,0.0,0.0
175,63.0,12.0,270.0,0.0,0.0
176,65.0,116.0,210.0,0.0,0.0
177,82.0,24.0,300.0,0.0,0.0
178,79.0,72.0,180.0,0.0,0.0
179,67.0,40.0,240.0,0.0,0.0
180,79.0,8.0,630.0,0.0,0.0
181,70.0,280.0,40.0,0.0,0.0
182,75.0,260.0,330.0,0.0,0.0
183,46.0,64.0,360.0,0.0,0.0
184,87.0,44.0,240.0,0.0,0.0
185,84.0,48.0,270.0,0.0,0.0
186,58.0,72.0,60.0,0.0,0.0
187,79.0,224.0,210.0,0.0,0.0
188,75.0,64.0,120.0,0.0,0.0
189,81.0,32.0,180.0,0.0,0.0
190,65.0,144.0,210.0,0.0,0.0
191,77.0,4.0,180.0,0.0,0.0
192,79.0,8.0,210.0,0.0,0.0
193,82.0,32.0,180.0,0.0,0.0
194,63.0,72.0,120.0,0.0,0.0
195,65.0,88.0,120.0,0.0,0.0
196,75.0,108.0,210.0,0.0,0.0
197,70.0,108.0,90.0,0.0,0.0
198,67.0,8.0,60.0,0.0,0.0
199,76.0,212.0,270.0,0.0,0.0
200,58.0,100.0,40.0,0.0,0.0
201,73.0,104.0,150.0,0.0,0.0
202,46.0,8.0,690.0,0.0,0.0
203,75.0,124.0,180.0,0.0,0.0
204,79.0,192.0,300.0,0.0,0.0
205,77.0,176.0,600.0,0.0,0.0
206,74.0,188.0,180.0,0.0,0.0
207,53.0,216.0,360.0,0.0,0.0
208,60.0,4.0,270.0,0.0,0.0
209,65.0,88.0,510.0,0.0,0.0
210,74.0,336.0,990.0,0.0,0.0
211,58.0,40.0,150.0,0.0,0.0
212,70.0,24.0,390.0,0.0,0.0
213,60.0,124.0,150.0,0.0,0.0
214,62.0,480.0,150.0,0.0,0.0
215,72.0,12.0,300.0,0.0,0.0
216,66.0,28.0,210.0,0.0,0.0
217,45.0,52.0,210.0,0.0,0.0
218,43.0,56.0,660.0,0.0,0.0
219,67.0,24.0,90.0,0.0,0.0
220,74.0,444.0,150.0,0.0,0.0
221,70.0,68.0,90.0,0.0,0.0
222,82.0,132.0,480.0,0.0,0.0
223,50.0,156.0,210.0,0.0,0.0
224,60.0,320.0,90.0,0.0,0.0
225,58.0,100.0,180.0,0.0,0.0
226,82.0,120.0,690.0,0.0,0.0
227,74.0,12.0,660.0,0.0,0.0
228,60.0,68.0,90.0,0.0,0.0
229,62.0,388.0,40.0,0.0,0.0
230,50.0,60.0,300.0,0.0,0.0
231,43.0,24.0,330.0,0.0,0.0
232,74.0,44.0,120.0,0.0,0.0
233,82.0,96.0,150.0,0.0,0.0
234,84.0,64.0,90.0,0.0,0.0
235,75.0,8.0,40.0,0.0,0.0
236,50.0,16.0,90.0,0.0,0.0
237,82.0,232.0,90.0,0.0,0.0
238,74.0,8.0,60.0,0.0,0.0
239,81.0,8.0,60.0,0.0,0.0
240,60.0,228.0,60.0,0.0,0.0
241,72.0,8.0,40.0,0.0,0.0
242,81.0,16.0,60.0,0.0,0.0
243,72.0,132.0,60.0,0.0,0.0
244,54.0,40.0,210.0,0.0,0.0
245,82.0,52.0,60.0,0.0,0.0
246,74.0,8.0,40.0,0.0,0.0
247,63.0,28.0,90.0,0.0,0.0
248,81.0,0.0,60.0,0.0,0.0
249,72.0,8.0,40.0,0.0,0.0
250,62.0,488.0,40.0,0.0,0.0
251,50.0,324.0,360.0,0.0,0.0
252,79.0,76.0,270.0,0.0,0.0
253,70.0,8.0,240.0,0.0,0.0
254,43.0,204.0,480.0,0.0,0.0
255,79.0,64.0,720.0,0.0,0.0
256,70.0,68.0,300.0,0.0,0.0
257,50.0,116.0,270.0,0.0,0.0
258,69.0,36.0,210.0,0.0,0.0
259,60.0,8.0,90.0,0.0,0.0
260,67.0,232.0,60.0,0.0,0.0
261,58.0,48.0,210.0,0.0,0.0
262,74.0,104.0,1290.0,0.0,0.0
263,67.0,8.0,210.0,0.0,0.0
264,60.0,60.0,120.0,0.0,0.0
265,62.0,260.0,60.0,0.0,0.0
266,63.0,248.0,90.0,0.0,0.0
267,50.0,308.0,330.0,0.0,0.0
268,43.0,164.0,360.0,0.0,0.0
269,62.0,12.0,510.0,0.0,0.0
270,50.0,4.0,210.0,0.0,0.0
271,58.0,160.0,90.0,0.0,0.0
272,50.0,168.0,150.0,0.0,0.0
273,43.0,80.0,300.0,0.0,0.0
274,72.0,60.0,180.0,0.0,0.0
275,64.0,16.0,150.0,0.0,0.0
276,74.0,56.0,40.0,0.0,0.0
277,48.0,456.0,690.0,0.0,0.0
278,72.0,52.0,60.0,0.0,0.0
279,74.0,52.0,60.0,0.0,0.0
280,72.0,36.0,60.0,0.0,0.0
281,74.0,60.0,40.0,0.0,0.0
282,72.0,76.0,60.0,0.0,0.0
283,58.0,60.0,120.0,0.0,0.0
284,71.0,32.0,90.0,0.0,0.0
285,72.0,88.0,120.0,0.0,0.0
286,76.0,120.0,120.0,0.0,0.0
287,74.0,40.0,120.0,0.0,0.0
288,45.0,164.0,450.0,0.0,0.0
289,72.0,148.0,720.0,0.0,0.0
290,65.0,32.0,570.0,0.0,0.0
291,53.0,124.0,240.0,0.0,0.0
292,60.0,28.0,210.0,0.0,0.0
293,77.0,476.0,210.0,0.0,0.0
294,46.0,64.0,390.0,0.0,0.0
295,77.0,28.0,390.0,0.0,0.0
296,74.0,172.0,390.0,0.0,0.0
297,53.0,24.0,90.0,0.0,0.0
298,77.0,380.0,180.0,0.0,0.0
299,65.0,108.0,60.0,0.0,0.0
300,48.0,8.0,270.0,0.0,0.0
301,77.0,52.0,270.0,0.0,0.0
302,69.0,200.0,330.0,0.0,0.0
303,53.0,24.0,90.0,0.0,0.0
304,65.0,300.0,90.0,0.0,0.0
305,77.0,0.0,60.0,0.0,0.0
306,50.0,36.0,330.0,0.0,0.0
307,77.0,64.0,180.0,0.0,0.0
308,70.0,48.0,120.0,0.0,0.0
309,79.0,56.0,60.0,0.0,0.0
310,53.0,56.0,420.0,0.0,0.0
311,77.0,4.0,40.0,0.0,0.0
312,79.0,64.0,40.0,0.0,0.0
313,77.0,80.0,60.0,0.0,0.0
314,76.0,124.0,90.0,0.0,0.0
315,77.0,60.0,150.0,0.0,0.0
316,84.0,80.0,180.0,0.0,0.0
317,65.0,16.0,90.0,0.0,0.0
318,82.0,348.0,120.0,0.0,0.0
319,48.0,32.0,360.0,0.0,0.0
320,82.0,28.0,300.0,0.0,0.0
321,72.0,24.0,300.0,0.0,0.0
322,81.0,92.0,180.0,0.0,0.0
323,53.0,128.0,60.0,0.0,0.0
324,79.0,416.0,90.0,0.0,0.0
325,65.0,52.0,40.0,0.0,0.0
326,46.0,44.0,360.0,0.0,0.0
327,81.0,76.0,270.0,0.0,0.0
328,74.0,160.0,420.0,0.0,0.0
329,79.0,52.0,300.0,0.0,0.0
330,53.0,36.0,90.0,0.0,0.0
331,65.0,104.0,60.0,0.0,0.0
332,81.0,372.0,60.0,0.0,0.0
333,48.0,64.0,300.0,0.0,0.0
334,77.0,264.0,330.0,0.0,0.0
335,69.0,4.0,270.0,0.0,0.0
336,53.0,80.0,600.0,0.0,0.0
337,77.0,248.0,60.0,0.0,0.0
338,65.0,8.0,60.0,0.0,0.0
339,50.0,144.0,690.0,0.0,0.0
340,77.0,60.0,150.0,0.0,0.0
341,70.0,32.0,90.0,0.0,0.0
342,79.0,56.0,60.0,0.0,0.0
343,77.0,28.0,60.0,0.0,0.0
344,79.0,80.0,40.0,0.0,0.0
345,77.0,104.0,90.0,0.0,0.0
346,76.0,180.0,120.0,0.0,0.0
347,53.0,200.0,990.0,0.0,0.0
348,77.0,12.0,210.0,0.0,0.0
349,79.0,160.0,180.0,0.0,0.0
350,65.0,48.0,150.0,0.0,0.0
351,81.0,136.0,180.0,0.0,0.0
352,82.0,264.0,90.0,0.0,0.0
353,48.0,36.0,330.0,0.0,0.0
354,69.0,132.0,150.0,0.0,0.0
355,77.0,344.0,210.0,0.0,0.0
356,84.0,668.0,360.0,0.0,0.0
357,60.0,84.0,1050.0,0.0,0.0
358,65.0,176.0,390.0,0.0,0.0
359,72.0,168.0,270.0,0.0,0.0
360,89.0,8.0,420.0,0.0,0.0
361,81.0,12.0,210.0,0.0,0.0
362,65.0,284.0,120.0,0.0,0.0
363,60.0,520.0,60.0,0.0,0.0
364,36.0,32.0,510.0,0.0,0.0
365,88.0,96.0,210.0,0.0,0.0
366,79.0,44.0,300.0,0.0,0.0
367,84.0,112.0,90.0,0.0,0.0
368,76.0,32.0,60.0,0.0,0.0
369,86.0,12.0,40.0,0.0,0.0
370,48.0,56.0,40.0,0.0,0.0
371,77.0,96.0,90.0,0.0,0.0
372,74.0,16.0,60.0,0.0,0.0
373,82.0,168.0,90.0,0.0,0.0
374,58.0,60.0,330.0,0.0,0.0
375,84.0,72.0,120.0,0.0,0.0
376,76.0,44.0,150.0,0.0,0.0
377,72.0,84.0,90.0,0.0,0.0
378,81.0,0.0,60.0,0.0,0.0
379,82.0,60.0,90.0,0.0,0.0
380,64.0,76.0,150.0,0.0,0.0
381,74.0,28.0,60.0,0.0,0.0
382,70.0,16.0,90.0,0.0,0.0
383,79.0,112.0,90.0,0.0,0.0
384,60.0,16.0,60.0,0.0,0.0
385,81.0,112.0,60.0,0.0,0.0
386,72.0,136.0,180.0,0.0,0.0
387,69.0,368.0,150.0,0.0,0.0
388,77.0,8.0,150.0,0.0,0.0
389,79.0,68.0,300.0,0.0,0.0
390,48.0,112.0,390.0,0.0,0.0
391,70.0,36.0,510.0,0.0,0.0
392,72.0,548.0,330.0,0.0,0.0
393,60.0,44.0,150.0,0.0,0.0
394,69.0,56.0,570.0,0.0,0.0
395,77.0,284.0,630.0,0.0,0.0
396,41.0,16.0,540.0,0.0,0.0
397,48.0,16.0,120.0,0.0,0.0
398,60.0,312.0,90.0,0.0,0.0
399,60.0,16.0,270.0,0.0,0.0
400,79.0,28.0,120.0,0.0,0.0
401,70.0,96.0,120.0,0.0,0.0
402,67.0,32.0,60.0,0.0,0.0
403,76.0,72.0,120.0,0.0,0.0
404,79.0,80.0,60.0,0.0,0.0
405,70.0,32.0,120.0,0.0,0.0
406,65.0,60.0,60.0,0.0,0.0
407,74.0,92.0,90.0,0.0,0.0
408,48.0,8.0,150.0,0.0,0.0
409,79.0,64.0,60.0,0.0,0.0
410,70.0,24.0,120.0,0.0,0.0
411,60.0,140.0,40.0,0.0,0.0
412,72.0,252.0,180.0,0.0,0.0
413,69.0,16.0,300.0,0.0,0.0
414,77.0,300.0,300.0,0.0,0.0
415,41.0,16.0,270.0,0.0,0.0
416,48.0,0.0,30.0,0.0,0.0
417,60.0,300.0,60.0,0.0,0.0
418,60.0,48.0,330.0,0.0,0.0
419,79.0,20.0,90.0,0.0,0.0
420,70.0,124.0,90.0,0.0,0.0
421,67.0,24.0,60.0,0.0,0.0
422,76.0,48.0,90.0,0.0,0.0
423,79.0,64.0,60.0,0.0,0.0
424,70.0,32.0,120.0,0.0,0.0
425,74.0,120.0,120.0,0.0,0.0
426,65.0,72.0,30.0,0.0,0.0
427,48.0,4.0,240.0,0.0,0.0
428,79.0,120.0,90.0,0.0,0.0
429,70.0,272.0,240.0,0.0,0.0
430,72.0,252.0,390.0,0.0,0.0
431,60.0,28.0,60.0,0.0,0.0
432,77.0,480.0,510.0,0.0,0.0
433,69.0,8.0,480.0,0.0,0.0
434,41.0,52.0,390.0,0.0,0.0
435,48.0,20.0,90.0,0.0,0.0
436,60.0,64.0,300.0,0.0,0.0
437,70.0,644.0,120.0,0.0,0.0
438,72.0,68.0,660.0,0.0,0.0
439,69.0,24.0,630.0,0.0,0.0
440,77.0,4.0,630.0,0.0,0.0
441,48.0,96.0,480.0,0.0,0.0
442,41.0,36.0,600.0,0.0,0.0
443,70.0,284.0,90.0,0.0,0.0
444,72.0,232.0,570.0,0.0,0.0
445,69.0,20.0,540.0,0.0,0.0
446,77.0,0.0,540.0,0.0,0.0
447,48.0,212.0,90.0,0.0,0.0
448,60.0,464.0,570.0,0.0,0.0
449,70.0,256.0,90.0,0.0,0.0
450,72.0,12.0,780.0,0.0,0.0
451,77.0,12.0,750.0,0.0,0.0
452,69.0,20.0,750.0,0.0,0.0
453,48.0,196.0,510.0,0.0,0.0
454,41.0,136.0,840.0,0.0,0.0
455,70.0,436.0,150.0,0.0,0.0
456,72.0,0.0,780.0,0.0,0.0
457,77.0,284.0,810.0,0.0,0.0
458,68.0,20.0,780.0,0.0,0.0
459,48.0,196.0,210.0,0.0,0.0
460,60.0,128.0,330.0,0.0,0.0
461,77.0,436.0,120.0,0.0,0.0
462,72.0,12.0,90.0,0.0,0.0
463,68.0,8.0,90.0,0.0,0.0
464,48.0,232.0,450.0,0.0,0.0
465,79.0,180.0,120.0,0.0,0.0
466,70.0,20.0,90.0,0.0,0.0
467,41.0,172.0,840.0,0.0,0.0
468,77.0,12.0,240.0,0.0,0.0
469,80.0,12.0,240.0,0.0,0.0
470,72.0,560.0,240.0,0.0,0.0
471,72.0,88.0,600.0,0.0,0.0
472,68.0,32.0,570.0,0.0,0.0
473,63.0,52.0,510.0,0.0,0.0
474,48.0,100.0,690.0,0.0,0.0
475,60.0,308.0,90.0,0.0,0.0
476,72.0,20.0,270.0,0.0,0.0
477,58.0,36.0,270.0,0.0,0.0
478,68.0,36.0,330.0,0.0,0.0
479,74.0,32.0,120.0,0.0,0.0
480,46.0,24.0,60.0,0.0,0.0
481,75.0,84.0,60.0,0.0,0.0
482,74.0,56.0,60.0,0.0,0.0
483,75.0,56.0,60.0,0.0,0.0
484,74.0,64.0,40.0,0.0,0.0
485,75.0,28.0,60.0,0.0,0.0
486,34.0,68.0,40.0,0.0,0.0
487,74.0,120.0,90.0,0.0,0.0
488,72.0,216.0,90.0,0.0,0.0
489,74.0,432.0,240.0,0.0,0.0
490,39.0,196.0,510.0,0.0,0.0
491,67.0,12.0,630.0,0.0,0.0
492,75.0,8.0,630.0,0.0,0.0
493,46.0,108.0,240.0,0.0,0.0
494,58.0,336.0,60.0,0.0,0.0
495,58.0,4.0,210.0,0.0,0.0
496,77.0,16.0,90.0,0.0,0.0
497,68.0,96.0,90.0,0.0,0.0
498,65.0,48.0,60.0,0.0,0.0
499,74.0,72.0,90.0,0.0,0.0
500,77.0,80.0,60.0,0.0,0.0
501,68.0,12.0,120.0,0.0,0.0
502,63.0,100.0,40.0,0.0,0.0
503,72.0,64.0,120.0,0.0,0.0
504,46.0,16.0,120.0,0.0,0.0
505,77.0,48.0,60.0,0.0,0.0
506,68.0,12.0,120.0,0.0,0.0
507,70.0,352.0,90.0,0.0,0.0
508,58.0,56.0,30.0,0.0,0.0
509,75.0,136.0,450.0,0.0,0.0
510,67.0,32.0,420.0,0.0,0.0
511,39.0,60.0,270.0,0.0,0.0
512,46.0,76.0,90.0,0.0,0.0
513,58.0,304.0,60.0,0.0,0.0
514,58.0,36.0,240.0,0.0,0.0
515,77.0,12.0,90.0,0.0,0.0
516,68.0,124.0,90.0,0.0,0.0
517,74.0,76.0,120.0,0.0,0.0
518,65.0,12.0,60.0,0.0,0.0
519,77.0,84.0,60.0,0.0,0.0
520,68.0,16.0,120.0,0.0,0.0
521,72.0,64.0,150.0,0.0,0.0
522,63.0,100.0,40.0,0.0,0.0
523,46.0,36.0,120.0,0.0,0.0
524,68.0,16.0,150.0,0.0,0.0
525,77.0,36.0,90.0,0.0,0.0
526,70.0,444.0,120.0,0.0,0.0
527,58.0,72.0,40.0,0.0,0.0
528,75.0,0.0,810.0,0.0,0.0
529,39.0,304.0,360.0,0.0,0.0
530,67.0,0.0,810.0,0.0,0.0
531,46.0,112.0,480.0,0.0,0.0
532,58.0,156.0,60.0,0.0,0.0
533,74.0,172.0,300.0,0.0,0.0
534,67.0,4.0,270.0,0.0,0.0
535,58.0,216.0,60.0,0.0,0.0
536,46.0,208.0,210.0,0.0,0.0
537,75.0,32.0,60.0,0.0,0.0
538,39.0,12.0,180.0,0.0,0.0
539,70.0,304.0,180.0,0.0,0.0
540,67.0,12.0,150.0,0.0,0.0
541,39.0,48.0,330.0,0.0,0.0
542,70.0,88.0,240.0,0.0,0.0
543,67.0,0.0,240.0,0.0,0.0
544,72.0,28.0,180.0,0.0,0.0
545,46.0,28.0,60.0,0.0,0.0
546,74.0,120.0,90.0,0.0,0.0
547,72.0,48.0,60.0,0.0,0.0
548,74.0,80.0,40.0,0.0,0.0
549,45.0,36.0,240.0,0.0,0.0
550,72.0,32.0,60.0,0.0,0.0
551,74.0,80.0,30.0,0.0,0.0
552,72.0,16.0,60.0,0.0,0.0
553,74.0,44.0,30.0,0.0,0.0
554,72.0,20.0,60.0,0.0,0.0
555,57.0,84.0,90.0,0.0,0.0
556,74.0,4.0,40.0,0.0,0.0
557,72.0,12.0,60.0,0.0,0.0
558,74.0,84.0,20.0,0.0,0.0
559,72.0,12.0,60.0,0.0,0.0
560,45.0,8.0,40.0,0.0,0.0
561,74.0,100.0,30.0,0.0,0.0
562,72.0,52.0,90.0,0.0,0.0
563,74.0,48.0,60.0,0.0,0.0
564,72.0,56.0,40.0,0.0,0.0
565,74.0,16.0,40.0,0.0,0.0
566,39.0,56.0,40.0,0.0,0.0
567,72.0,72.0,60.0,0.0,0.0
568,70.0,132.0,90.0,0.0,0.0
569,72.0,236.0,150.0,0.0,0.0
570,74.0,560.0,270.0,0.0,0.0
571,38.0,36.0,150.0,0.0,0.0
572,50.0,12.0,210.0,0.0,0.0
573,66.0,64.0,210.0,0.0,0.0
574,69.0,12.0,210.0,0.0,0.0
575,60.0,96.0,390.0,0.0,0.0
576,86.0,28.0,480.0,0.0,0.0
577,74.0,176.0,210.0,0.0,0.0
578,62.0,36.0,150.0,0.0,0.0
579,58.0,8.0,480.0,0.0,0.0
580,62.0,12.0,450.0,0.0,0.0
581,79.0,208.0,90.0,0.0,0.0
582,69.0,84.0,330.0,0.0,0.0
583,88.0,56.0,60.0,0.0,0.0
584,89.0,100.0,60.0,0.0,0.0
585,81.0,0.0,40.0,0.0,0.0
586,91.0,96.0,90.0,0.0,0.0
587,82.0,44.0,30.0,0.0,0.0
588,93.0,160.0,60.0,0.0,0.0
589,67.0,16.0,40.0,0.0,0.0
590,94.0,36.0,90.0,0.0,0.0
591,50.0,184.0,90.0,0.0,0.0
592,57.0,112.0,450.0,0.0,0.0
593,93.0,84.0,150.0,0.0,0.0
594,89.0,48.0,240.0,0.0,0.0
595,65.0,4.0,270.0,0.0,0.0
596,86.0,80.0,90.0,0.0,0.0
597,81.0,0.0,60.0,0.0,0.0
598,77.0,40.0,60.0,0.0,0.0
599,50.0,64.0,90.0,0.0,0.0
600,57.0,84.0,180.0,0.0,0.0
601,75.0,16.0,120.0,0.0,0.0
602,83.0,28.0,30.0,0.0,0.0
603,81.0,40.0,60.0,0.0,0.0
604,65.0,8.0,60.0,0.0,0.0
605,74.0,36.0,90.0,0.0,0.0
606,50.0,144.0,90.0,0.0,0.0
607,55.0,48.0,600.0,0.0,0.0
608,58.0,56.0,510.0,0.0,0.0
609,72.0,40.0,150.0,0.0,0.0
610,65.0,40.0,300.0,0.0,0.0
611,81.0,28.0,90.0,0.0,0.0
612,79.0,72.0,60.0,0.0,0.0
613,81.0,56.0,60.0,0.0,0.0
614,79.0,4.0,60.0,0.0,0.0
615,81.0,60.0,90.0,0.0,0.0
616,70.0,36.0,60.0,0.0,0.0
617,79.0,20.0,90.0,0.0,0.0
618,81.0,16.0,90.0,0.0,0.0
619,79.0,72.0,90.0,0.0,0.0
620,81.0,4.0,90.0,0.0,0.0
621,63.0,8.0,60.0,0.0,0.0
622,72.0,72.0,60.0,0.0,0.0
623,58.0,4.0,40.0,0.0,0.0
624,79.0,96.0,120.0,0.0,0.0
625,55.0,12.0,30.0,0.0,0.0
626,78.0,236.0,120.0,0.0,0.0
627,79.0,128.0,270.0,0.0,0.0
628,50.0,12.0,270.0,0.0,0.0
629,78.0,120.0,660.0,0.0,0.0
630,38.0,48.0,210.0,0.0,0.0
631,74.0,316.0,330.0,0.0,0.0
632,69.0,68.0,270.0,0.0,0.0
633,69.0,100.0,330.0,0.0,0.0
634,60.0,32.0,240.0,0.0,0.0
635,86.0,68.0,420.0,0.0,0.0
636,74.0,76.0,150.0,0.0,0.0
637,62.0,64.0,270.0,0.0,0.0
638,79.0,204.0,90.0,0.0,0.0
639,58.0,8.0,780.0,0.0,0.0
640,69.0,132.0,330.0,0.0,0.0
641,62.0,16.0,780.0,0.0,0.0
642,88.0,52.0,60.0,0.0,0.0
643,89.0,12.0,90.0,0.0,0.0
644,81.0,48.0,40.0,0.0,0.0
645,70.0,96.0,90.0,0.0,0.0
646,91.0,96.0,90.0,0.0,0.0
647,82.0,48.0,30.0,0.0,0.0
648,67.0,140.0,90.0,0.0,0.0
649,93.0,0.0,60.0,0.0,0.0
650,94.0,56.0,90.0,0.0,0.0
651,58.0,20.0,40.0,0.0,0.0
652,50.0,128.0,90.0,0.0,0.0
653,58.0,8.0,30.0,0.0,0.0
654,57.0,96.0,390.0,0.0,0.0
655,93.0,72.0,120.0,0.0,0.0
656,89.0,60.0,210.0,0.0,0.0
657,65.0,60.0,270.0,0.0,0.0
658,86.0,24.0,90.0,0.0,0.0
659,81.0,20.0,60.0,0.0,0.0
660,77.0,28.0,90.0,0.0,0.0
661,50.0,108.0,90.0,0.0,0.0
662,57.0,72.0,180.0,0.0,0.0
663,75.0,20.0,120.0,0.0,0.0
664,81.0,24.0,90.0,0.0,0.0
665,65.0,28.0,60.0,0.0,0.0
666,74.0,48.0,120.0,0.0,0.0
667,50.0,160.0,90.0,0.0,0.0
668,55.0,108.0,900.0,0.0,0.0
669,58.0,4.0,330.0,0.0,0.0
670,81.0,56.0,120.0,0.0,0.0
671,72.0,108.0,300.0,0.0,0.0
672,65.0,8.0,210.0,0.0,0.0
673,79.0,76.0,90.0,0.0,0.0
674,81.0,60.0,90.0,0.0,0.0
675,79.0,8.0,90.0,0.0,0.0
676,81.0,4.0,120.0,0.0,0.0
677,67.0,60.0,90.0,0.0,0.0
678,58.0,32.0,300.0,0.0,0.0
679,79.0,64.0,90.0,0.0,0.0
680,81.0,68.0,120.0,0.0,0.0
681,70.0,40.0,60.0,0.0,0.0
682,79.0,88.0,150.0,0.0,0.0
683,81.0,24.0,150.0,0.0,0.0
684,63.0,32.0,90.0,0.0,0.0
685,72.0,96.0,240.0,0.0,0.0
686,58.0,4.0,90.0,0.0,0.0
687,79.0,8.0,180.0,0.0,0.0
688,78.0,200.0,150.0,0.0,0.0
689,79.0,260.0,240.0,0.0,0.0
690,38.0,48.0,330.0,0.0,0.0
691,78.0,144.0,570.0,0.0,0.0
692,50.0,12.0,360.0,0.0,0.0
693,74.0,112.0,450.0,0.0,0.0
694,69.0,64.0,360.0,0.0,0.0
695,74.0,8.0,90.0,0.0,0.0
696,66.0,16.0,60.0,0.0,0.0
697,69.0,8.0,60.0,0.0,0.0
698,60.0,300.0,90.0,0.0,0.0
699,79.0,4.0,120.0,0.0,0.0
700,67.0,40.0,60.0,0.0,0.0
701,70.0,8.0,90.0,0.0,0.0
702,58.0,92.0,120.0,0.0,0.0
703,67.0,36.0,60.0,0.0,0.0
704,75.0,100.0,90.0,0.0,0.0
705,79.0,28.0,60.0,0.0,0.0
706,70.0,84.0,90.0,0.0,0.0
707,74.0,108.0,90.0,0.0,0.0
708,65.0,32.0,40.0,0.0,0.0
709,38.0,16.0,540.0,0.0,0.0
710,79.0,40.0,60.0,0.0,0.0
711,70.0,92.0,90.0,0.0,0.0
712,72.0,36.0,60.0,0.0,0.0
713,63.0,160.0,40.0,0.0,0.0
714,50.0,28.0,240.0,0.0,0.0
715,74.0,416.0,270.0,0.0,0.0
716,62.0,20.0,210.0,0.0,0.0
717,72.0,144.0,30.0,0.0,0.0
718,74.0,4.0,90.0,0.0,0.0
719,65.0,28.0,90.0,0.0,0.0
720,69.0,0.0,90.0,0.0,0.0
721,57.0,292.0,120.0,0.0,0.0
722,79.0,4.0,120.0,0.0,0.0
723,63.0,64.0,120.0,0.0,0.0
724,55.0,48.0,180.0,0.0,0.0
725,70.0,8.0,90.0,0.0,0.0
726,75.0,112.0,120.0,0.0,0.0
727,67.0,36.0,60.0,0.0,0.0
728,79.0,32.0,60.0,0.0,0.0
729,70.0,104.0,90.0,0.0,0.0
730,74.0,104.0,120.0,0.0,0.0
731,65.0,76.0,40.0,0.0,0.0
732,38.0,20.0,630.0,0.0,0.0
733,70.0,164.0,60.0,0.0,0.0
734,79.0,8.0,40.0,0.0,0.0
735,72.0,340.0,60.0,0.0,0.0
736,63.0,20.0,30.0,0.0,0.0
737,74.0,32.0,210.0,0.0,0.0
738,50.0,184.0,240.0,0.0,0.0
739,62.0,56.0,120.0,0.0,0.0
740,75.0,84.0,90.0,0.0,0.0
741,74.0,80.0,60.0,0.0,0.0
742,75.0,44.0,60.0,0.0,0.0
743,74.0,92.0,40.0,0.0,0.0
744,75.0,12.0,60.0,0.0,0.0
745,54.0,4.0,90.0,0.0,0.0
746,57.0,24.0,90.0,0.0,0.0
747,62.0,8.0,60.0,0.0,0.0
748,66.0,0.0,60.0,0.0,0.0
749,74.0,72.0,60.0,0.0,0.0
750,75.0,36.0,60.0,0.0,0.0
751,74.0,84.0,60.0,0.0,0.0
752,75.0,36.0,60.0,0.0,0.0
753,74.0,40.0,60.0,0.0,0.0
754,66.0,4.0,40.0,0.0,0.0
755,54.0,20.0,60.0,0.0,0.0
756,62.0,12.0,40.0,0.0,0.0
757,75.0,40.0,60.0,0.0,0.0
758,57.0,8.0,20.0,0.0,0.0
759,74.0,84.0,60.0,0.0,0.0
760,75.0,32.0,60.0,0.0,0.0
761,74.0,92.0,40.0,0.0,0.0
762,75.0,52.0,60.0,0.0,0.0
763,74.0,76.0,60.0,0.0,0.0
764,75.0,40.0,60.0,0.0,0.0
765,74.0,84.0,60.0,0.0,0.0
766,75.0,52.0,60.0,0.0,0.0
767,74.0,60.0,60.0,0.0,0.0
768,75.0,80.0,60.0,0.0,0.0
769,50.0,8.0,40.0,0.0,0.0
770,38.0,16.0,40.0,0.0,0.0
771,74.0,76.0,60.0,0.0,0.0
772,75.0,100.0,60.0,0.0,0.0
773,74.0,252.0,90.0,0.0,0.0
774,79.0,0.0,240.0,0.0,0.0
775,75.0,40.0,210.0,0.0,0.0
776,50.0,52.0,240.0,0.0,0.0
777,38.0,4.0,210.0,0.0,0.0
778,74.0,104.0,90.0,0.0,0.0
779,78.0,8.0,90.0,0.0,0.0
780,75.0,24.0,90.0,0.0,0.0
781,79.0,44.0,90.0,0.0,0.0
782,78.0,24.0,90.0,0.0,0.0
783,74.0,80.0,90.0,0.0,0.0
784,75.0,36.0,90.0,0.0,0.0
785,79.0,4.0,90.0,0.0,0.0
786,74.0,72.0,90.0,0.0,0.0
787,78.0,24.0,60.0,0.0,0.0
788,75.0,40.0,90.0,0.0,0.0
789,79.0,0.0,60.0,0.0,0.0
790,78.0,4.0,60.0,0.0,0.0
791,74.0,4.0,60.0,0.0,0.0
792,69.0,8.0,60.0,0.0,0.0
793,57.0,60.0,60.0,0.0,0.0
794,62.0,8.0,40.0,0.0,0.0
795,75.0,44.0,90.0,0.0,0.0
796,79.0,8.0,60.0,0.0,0.0
797,78.0,16.0,60.0,0.0,0.0
798,74.0,56.0,90.0,0.0,0.0
799,75.0,48.0,90.0,0.0,0.0
800,79.0,8.0,60.0,0.0,0.0
801,78.0,0.0,60.0,0.0,0.0
802,74.0,68.0,60.0,0.0,0.0
803,75.0,40.0,90.0,0.0,0.0
804,69.0,4.0,90.0,0.0,0.0
805,57.0,56.0,90.0,0.0,0.0
806,62.0,4.0,90.0,0.0,0.0
807,79.0,12.0,60.0,0.0,0.0
808,78.0,8.0,60.0,0.0,0.0
809,74.0,12.0,90.0,0.0,0.0
810,75.0,44.0,90.0,0.0,0.0
811,79.0,68.0,90.0,0.0,0.0
812,74.0,0.0,90.0,0.0,0.0
813,78.0,12.0,60.0,0.0,0.0
814,75.0,48.0,90.0,0.0,0.0
815,79.0,0.0,60.0,0.0,0.0
816,74.0,60.0,90.0,0.0,0.0
817,78.0,16.0,60.0,0.0,0.0
818,75.0,52.0,90.0,0.0,0.0
819,79.0,16.0,60.0,0.0,0.0
820,78.0,0.0,60.0,0.0,0.0
821,74.0,64.0,90.0,0.0,0.0
822,75.0,44.0,90.0,0.0,0.0
823,79.0,32.0,60.0,0.0,0.0
824,78.0,0.0,60.0,0.0,0.0
825,74.0,52.0,90.0,0.0,0.0
826,75.0,52.0,90.0,0.0,0.0
827,79.0,8.0,90.0,0.0,0.0
828,78.0,20.0,60.0,0.0,0.0
829,74.0,56.0,90.0,0.0,0.0
830,75.0,56.0,90.0,0.0,0.0
831,79.0,24.0,60.0,0.0,0.0
832,78.0,0.0,60.0,0.0,0.0
833,74.0,64.0,90.0,0.0,0.0
834,48.0,16.0,150.0,0.0,0.0
835,36.0,8.0,210.0,0.0,0.0
836,75.0,32.0,90.0,0.0,0.0
837,79.0,8.0,60.0,0.0,0.0
838,74.0,60.0,90.0,0.0,0.0
839,78.0,16.0,60.0,0.0,0.0
840,75.0,48.0,90.0,0.0,0.0
841,79.0,16.0,60.0,0.0,0.0
842,78.0,28.0,90.0,0.0,0.0
843,74.0,96.0,90.0,0.0,0.0
844,75.0,236.0,120.0,0.0,0.0
845,78.0,4.0,270.0,0.0,0.0
846,74.0,240.0,270.0,0.0,0.0
847,46.0,12.0,330.0,0.0,0.0
848,34.0,40.0,300.0,0.0,0.0
849,75.0,4.0,330.0,0.0,0.0
850,79.0,160.0,330.0,0.0,0.0
851,77.0,4.0,210.0,0.0,0.0
852,74.0,116.0,210.0,0.0,0.0
853,79.0,92.0,180.0,0.0,0.0
854,75.0,20.0,150.0,0.0,0.0
855,77.0,0.0,150.0,0.0,0.0
856,53.0,64.0,330.0,0.0,0.0
857,74.0,88.0,150.0,0.0,0.0
858,75.0,52.0,90.0,0.0,0.0
859,79.0,44.0,150.0,0.0,0.0
860,77.0,4.0,90.0,0.0,0.0
861,74.0,0.0,90.0,0.0,0.0
862,60.0,52.0,90.0,0.0,0.0
863,75.0,0.0,60.0,0.0,0.0
864,79.0,20.0,120.0,0.0,0.0
865,74.0,72.0,60.0,0.0,0.0
866,77.0,0.0,40.0,0.0,0.0
867,75.0,36.0,90.0,0.0,0.0
868,79.0,0.0,60.0,0.0,0.0
869,74.0,68.0,40.0,0.0,0.0
870,77.0,16.0,30.0,0.0,0.0
871,75.0,32.0,60.0,0.0,0.0
872,58.0,4.0,90.0,0.0,0.0
873,79.0,20.0,60.0,0.0,0.0
874,74.0,60.0,90.0,0.0,0.0
875,77.0,16.0,30.0,0.0,0.0
876,75.0,36.0,90.0,0.0,0.0
877,60.0,16.0,120.0,0.0,0.0
878,79.0,4.0,60.0,0.0,0.0
879,74.0,64.0,60.0,0.0,0.0
880,77.0,0.0,60.0,0.0,0.0
881,75.0,40.0,60.0,0.0,0.0
882,62.0,4.0,60.0,0.0,0.0
883,79.0,20.0,60.0,0.0,0.0
884,74.0,56.0,90.0,0.0,0.0
885,77.0,12.0,40.0,0.0,0.0
886,75.0,40.0,90.0,0.0,0.0
887,79.0,20.0,60.0,0.0,0.0
888,74.0,56.0,90.0,0.0,0.0
889,77.0,12.0,40.0,0.0,0.0
890,75.0,12.0,90.0,0.0,0.0
891,53.0,32.0,60.0,0.0,0.0
892,79.0,12.0,300.0,0.0,0.0
893,74.0,72.0,90.0,0.0,0.0
894,77.0,32.0,40.0,0.0,0.0
895,75.0,52.0,90.0,0.0,0.0
896,77.0,12.0,60.0,0.0,0.0
897,74.0,76.0,90.0,0.0,0.0
898,75.0,228.0,90.0,0.0,0.0
899,46.0,40.0,390.0,0.0,0.0
900,74.0,76.0,300.0,0.0,0.0
901,77.0,32.0,270.0,0.0,0.0
902,76.0,16.0,90.0,0.0,0.0
903,53.0,32.0,90.0,0.0,0.0
904,73.0,148.0,120.0,0.0,0.0
905,77.0,268.0,90.0,0.0,0.0
906,60.0,4.0,60.0,0.0,0.0
907,74.0,24.0,40.0,0.0,0.0
908,58.0,56.0,150.0,0.0,0.0
909,81.0,76.0,60.0,0.0,0.0
910,75.0,84.0,180.0,0.0,0.0
911,79.0,4.0,240.0,0.0,0.0
912,60.0,76.0,180.0,0.0,0.0
913,74.0,108.0,120.0,0.0,0.0
914,77.0,16.0,300.0,0.0,0.0
915,62.0,80.0,210.0,0.0,0.0
916,74.0,24.0,750.0,0.0,0.0
917,65.0,660.0,60.0,0.0,0.0
918,70.0,28.0,690.0,0.0,0.0
919,46.0,132.0,480.0,0.0,0.0
920,79.0,24.0,390.0,0.0,0.0
921,82.0,16.0,390.0,0.0,0.0
922,53.0,40.0,180.0,0.0,0.0
923,81.0,116.0,90.0,0.0,0.0
924,77.0,8.0,90.0,0.0,0.0
925,60.0,24.0,60.0,0.0,0.0
926,79.0,88.0,90.0,0.0,0.0
927,75.0,0.0,60.0,0.0,0.0
928,77.0,24.0,60.0,0.0,0.0
929,81.0,144.0,90.0,0.0,0.0
930,58.0,88.0,150.0,0.0,0.0
931,81.0,56.0,90.0,0.0,0.0
932,77.0,0.0,150.0,0.0,0.0
933,79.0,8.0,120.0,0.0,0.0
934,75.0,20.0,120.0,0.0,0.0
935,60.0,36.0,150.0,0.0,0.0
936,77.0,64.0,150.0,0.0,0.0
937,62.0,36.0,60.0,0.0,0.0
938,74.0,44.0,90.0,0.0,0.0
939,79.0,184.0,90.0,0.0,0.0
940,75.0,16.0,60.0,0.0,0.0
941,79.0,32.0,150.0,0.0,0.0
942,53.0,452.0,270.0,0.0,0.0
943,75.0,24.0,120.0,0.0,0.0
944,77.0,4.0,60.0,0.0,0.0
945,74.0,84.0,60.0,0.0,0.0
946,46.0,96.0,450.0,0.0,0.0
947,74.0,92.0,1770.0,0.0,0.0
948,70.0,56.0,510.0,0.0,0.0
949,53.0,96.0,240.0,0.0,0.0
950,60.0,380.0,90.0,0.0,0.0
951,67.0,24.0,150.0,0.0,0.0
952,58.0,160.0,180.0,0.0,0.0
953,60.0,188.0,240.0,0.0,0.0
954,68.0,28.0,180.0,0.0,0.0
955,70.0,20.0,240.0,0.0,0.0
956,62.0,152.0,240.0,0.0,0.0
957,68.0,108.0,240.0,0.0,0.0
958,72.0,48.0,270.0,0.0,0.0
959,65.0,44.0,120.0,0.0,0.0
960,70.0,440.0,120.0,0.0,0.0
961,67.0,88.0,330.0,0.0,0.0
962,34.0,8.0,270.0,0.0,0.0
963,75.0,56.0,150.0,0.0,0.0
964,82.0,672.0,60.0,0.0,0.0
965,58.0,32.0,990.0,0.0,0.0
966,65.0,192.0,300.0,0.0,0.0
967,63.0,52.0,240.0,0.0,0.0
968,82.0,28.0,180.0,0.0,0.0
969,79.0,20.0,210.0,0.0,0.0
970,65.0,24.0,180.0,0.0,0.0
971,84.0,40.0,120.0,0.0,0.0
972,81.0,16.0,180.0,0.0,0.0
973,67.0,24.0,90.0,0.0,0.0
974,84.0,4.0,60.0,0.0,0.0
975,79.0,104.0,150.0,0.0,0.0
976,82.0,24.0,120.0,0.0,0.0
977,81.0,32.0,150.0,0.0,0.0
978,84.0,48.0,150.0,0.0,0.0
979,79.0,36.0,120.0,0.0,0.0
980,82.0,16.0,90.0,0.0,0.0
981,81.0,40.0,120.0,0.0,0.0
982,58.0,56.0,60.0,0.0,0.0
983,84.0,16.0,120.0,0.0,0.0
984,79.0,64.0,90.0,0.0,0.0
985,82.0,28.0,60.0,0.0,0.0
986,81.0,32.0,90.0,0.0,0.0
987,84.0,32.0,90.0,0.0,0.0
988,79.0,52.0,90.0,0.0,0.0
989,82.0,12.0,20.0,0.0,0.0
990,46.0,16.0,270.0,0.0,0.0
991,81.0,40.0,60.0,0.0,0.0
992,84.0,16.0,90.0,0.0,0.0
993,82.0,20.0,40.0,0.0,0.0
994,79.0,44.0,60.0,0.0,0.0
995,81.0,36.0,60.0,0.0,0.0
996,84.0,20.0,60.0,0.0,0.0
997,82.0,4.0,40.0,0.0,0.0
998,79.0,28.0,60.0,0.0,0.0
999,58.0,16.0,60.0,0.0,0.0
1000,81.0,32.0,60.0,0.0,0.0
1001,84.0,20.0,90.0,0.0,0.0
1002,82.0,24.0,30.0,0.0,0.0
1003,79.0,44.0,60.0,0.0,0.0
1004,81.0,28.0,60.0,0.0,0.0
1005,84.0,28.0,60.0,0.0,0.0
1006,79.0,52.0,60.0,0.0,0.0
1007,82.0,12.0,30.0,0.0,0.0
1008,81.0,8.0,90.0,0.0,0.0
1009,65.0,16.0,60.0,0.0,0.0
1010,84.0,16.0,60.0,0.0,0.0
1011,82.0,32.0,20.0,0.0,0.0
1012,79.0,44.0,60.0,0.0,0.0
1013,81.0,36.0,60.0,0.0,0.0
1014,84.0,16.0,90.0,0.0,0.0
1015,82.0,32.0,30.0,0.0,0.0
1016,79.0,64.0,60.0,0.0,0.0
1017,81.0,52.0,90.0,0.0,0.0
1018,63.0,24.0,150.0,0.0,0.0
1019,84.0,28.0,60.0,0.0,0.0
1020,82.0,0.0,60.0,0.0,0.0
1021,79.0,48.0,90.0,0.0,0.0
1022,65.0,4.0,180.0,0.0,0.0
1023,81.0,48.0,90.0,0.0,0.0
1024,84.0,24.0,90.0,0.0,0.0
1025,82.0,28.0,60.0,0.0,0.0
1026,79.0,88.0,90.0,0.0,0.0
1027,67.0,104.0,270.0,0.0,0.0
1028,81.0,0.0,180.0,0.0,0.0
1029,84.0,48.0,60.0,0.0,0.0
1030,82.0,64.0,90.0,0.0,0.0
1031,79.0,48.0,240.0,0.0,0.0
1032,82.0,96.0,150.0,0.0,0.0
1033,70.0,28.0,90.0,0.0,0.0
1034,78.0,4.0,120.0,0.0,0.0
1035,81.0,24.0,120.0,0.0,0.0
1036,82.0,464.0,60.0,0.0,0.0
1037,79.0,12.0,60.0,0.0,0.0
1038,46.0,64.0,420.0,0.0,0.0
1039,87.0,52.0,300.0,0.0,0.0
1040,84.0,216.0,420.0,0.0,0.0
1041,58.0,0.0,60.0,0.0,0.0
1042,86.0,112.0,150.0,0.0,0.0
1043,82.0,4.0,120.0,0.0,0.0
1044,65.0,72.0,90.0,0.0,0.0
1045,84.0,40.0,150.0,0.0,0.0
1046,81.0,4.0,90.0,0.0,0.0
1047,86.0,0.0,90.0,0.0,0.0
1048,82.0,112.0,90.0,0.0,0.0
1049,86.0,112.0,60.0,0.0,0.0
1050,63.0,100.0,180.0,0.0,0.0
1051,82.0,0.0,40.0,0.0,0.0
1052,74.0,48.0,60.0,0.0,0.0
1053,77.0,28.0,90.0,0.0,0.0
1054,65.0,76.0,120.0,0.0,0.0
1055,84.0,8.0,60.0,0.0,0.0
1056,67.0,24.0,60.0,0.0,0.0
1057,82.0,4.0,40.0,0.0,0.0
1058,81.0,132.0,90.0,0.0,0.0
1059,75.0,64.0,120.0,0.0,0.0
1060,72.0,28.0,90.0,0.0,0.0
1061,82.0,12.0,150.0,0.0,0.0
1062,79.0,60.0,150.0,0.0,0.0
1063,58.0,80.0,40.0,0.0,0.0
1064,77.0,16.0,40.0,0.0,0.0
1065,76.0,48.0,120.0,0.0,0.0
1066,73.0,308.0,150.0,0.0,0.0
1067,75.0,48.0,300.0,0.0,0.0
1068,79.0,20.0,330.0,0.0,0.0
1069,46.0,72.0,510.0,0.0,0.0
1070,74.0,8.0,60.0,0.0,0.0
1071,77.0,144.0,60.0,0.0,0.0
1072,53.0,96.0,270.0,0.0,0.0
1073,60.0,60.0,90.0,0.0,0.0
1074,72.0,264.0,270.0,0.0,0.0
1075,65.0,116.0,150.0,0.0,0.0
1076,58.0,160.0,210.0,0.0,0.0
1077,74.0,8.0,900.0,0.0,0.0
1078,70.0,472.0,900.0,0.0,0.0
1079,60.0,468.0,240.0,0.0,0.0
1080,62.0,60.0,510.0,0.0,0.0
1081,53.0,8.0,180.0,0.0,0.0
1082,34.0,732.0,270.0,0.0,0.0
1083,68.0,64.0,90.0,0.0,0.0
1084,74.0,20.0,90.0,0.0,0.0
1085,84.0,140.0,690.0,0.0,0.0
1086,53.0,4.0,300.0,0.0,0.0
1087,60.0,312.0,150.0,0.0,0.0
1088,58.0,112.0,180.0,0.0,0.0
1089,84.0,64.0,1170.0,0.0,0.0
1090,80.0,12.0,1080.0,0.0,0.0
1091,74.0,68.0,1110.0,0.0,0.0
1092,60.0,356.0,120.0,0.0,0.0
1093,62.0,300.0,330.0,0.0,0.0
1094,53.0,156.0,360.0,0.0,0.0
1095,46.0,0.0,390.0,0.0,0.0
1096,82.0,0.0,60.0,0.0,0.0
1097,74.0,16.0,40.0,0.0,0.0
1098,79.0,12.0,30.0,0.0,0.0
1099,53.0,300.0,40.0,0.0,0.0
1100,80.0,8.0,60.0,0.0,0.0
1101,65.0,24.0,30.0,0.0,0.0
1102,72.0,272.0,60.0,0.0,0.0
1103,74.0,8.0,60.0,0.0,0.0
1104,58.0,4.0,30.0,0.0,0.0
1105,79.0,96.0,90.0,0.0,0.0
1106,70.0,4.0,60.0,0.0,0.0
1107,39.0,264.0,270.0,0.0,0.0
1108,75.0,24.0,60.0,0.0,0.0
1109,77.0,12.0,60.0,0.0,0.0
1110,70.0,80.0,60.0,0.0,0.0
1111,68.0,8.0,60.0,0.0,0.0
1112,75.0,88.0,330.0,0.0,0.0
1113,46.0,68.0,240.0,0.0,0.0
1114,67.0,16.0,300.0,0.0,0.0
1115,70.0,4.0,300.0,0.0,0.0
1116,58.0,248.0,60.0,0.0,0.0
1117,70.0,48.0,90.0,0.0,0.0
1118,76.0,152.0,150.0,0.0,0.0
1119,36.0,564.0,90.0,0.0,0.0
1120,86.0,172.0,630.0,0.0,0.0
1121,55.0,184.0,870.0,0.0,0.0
1122,62.0,304.0,150.0,0.0,0.0
1123,60.0,128.0,180.0,0.0,0.0
1124,86.0,8.0,1050.0,0.0,0.0
1125,82.0,172.0,870.0,0.0,0.0
1126,76.0,80.0,1050.0,0.0,0.0
1127,62.0,48.0,180.0,0.0,0.0
1128,64.0,332.0,270.0,0.0,0.0
1129,55.0,8.0,330.0,0.0,0.0
1130,48.0,44.0,360.0,0.0,0.0
1131,55.0,4.0,90.0,0.0,0.0
1132,84.0,292.0,90.0,0.0,0.0
1133,81.0,4.0,60.0,0.0,0.0
1134,76.0,8.0,60.0,0.0,0.0
1135,82.0,12.0,90.0,0.0,0.0
1136,67.0,36.0,60.0,0.0,0.0
1137,74.0,244.0,90.0,0.0,0.0
1138,76.0,4.0,90.0,0.0,0.0
1139,60.0,0.0,40.0,0.0,0.0
1140,81.0,40.0,60.0,0.0,0.0
1141,41.0,124.0,90.0,0.0,0.0
1142,72.0,4.0,40.0,0.0,0.0
1143,77.0,0.0,40.0,0.0,0.0
1144,79.0,128.0,90.0,0.0,0.0
1145,70.0,0.0,90.0,0.0,0.0
1146,72.0,8.0,60.0,0.0,0.0
1147,77.0,288.0,90.0,0.0,0.0
1148,69.0,4.0,40.0,0.0,0.0
1149,48.0,4.0,60.0,0.0,0.0
1150,72.0,24.0,40.0,0.0,0.0
1151,60.0,8.0,60.0,0.0,0.0
1152,81.0,272.0,60.0,0.0,0.0
1153,77.0,8.0,40.0,0.0,0.0
1154,72.0,16.0,20.0,0.0,0.0
1155,72.0,112.0,120.0,0.0,0.0
1156,81.0,20.0,240.0,0.0,0.0
1157,41.0,560.0,90.0,0.0,0.0
1158,87.0,12.0,60.0,0.0,0.0
1159,48.0,200.0,300.0,0.0,0.0
1160,60.0,12.0,60.0,0.0,0.0
1161,80.0,128.0,150.0,0.0,0.0
1162,72.0,60.0,90.0,0.0,0.0
1163,42.0,628.0,90.0,0.0,0.0
1164,87.0,20.0,40.0,0.0,0.0
1165,48.0,228.0,360.0,0.0,0.0
1166,60.0,16.0,60.0,0.0,0.0
1167,72.0,312.0,150.0,0.0,0.0
1168,79.0,188.0,480.0,0.0,0.0
1169,43.0,16.0,180.0,0.0,0.0
1170,87.0,28.0,180.0,0.0,0.0
1171,89.0,88.0,60.0,0.0,0.0
1172,80.0,16.0,40.0,0.0,0.0
1173,55.0,192.0,450.0,0.0,0.0
1174,79.0,12.0,40.0,0.0,0.0
1175,87.0,360.0,40.0,0.0,0.0
1176,67.0,28.0,60.0,0.0,0.0
1177,86.0,116.0,60.0,0.0,0.0
1178,77.0,4.0,20.0,0.0,0.0
1179,79.0,16.0,20.0,0.0,0.0
1180,86.0,160.0,90.0,0.0,0.0
1181,79.0,4.0,90.0,0.0,0.0
1182,77.0,4.0,90.0,0.0,0.0
1183,43.0,0.0,60.0,0.0,0.0
1184,87.0,84.0,60.0,0.0,0.0
1185,79.0,20.0,20.0,0.0,0.0
1186,55.0,4.0,360.0,0.0,0.0
1187,86.0,232.0,60.0,0.0,0.0
1188,77.0,20.0,40.0,0.0,0.0
1189,67.0,12.0,40.0,0.0,0.0
1190,65.0,12.0,60.0,0.0,0.0
1191,74.0,0.0,60.0,0.0,0.0
1192,77.0,20.0,60.0,0.0,0.0
1193,79.0,372.0,90.0,0.0,0.0
1194,59.0,4.0,40.0,0.0,0.0
1195,48.0,24.0,300.0,0.0,0.0
1196,84.0,16.0,330.0,0.0,0.0
1197,77.0,88.0,210.0,0.0,0.0
1198,72.0,40.0,180.0,0.0,0.0
1199,79.0,4.0,120.0,0.0,0.0
1200,77.0,52.0,270.0,0.0,0.0
1201,55.0,200.0,60.0,0.0,0.0
1202,67.0,8.0,60.0,0.0,0.0
1203,75.0,8.0,60.0,0.0,0.0
1204,60.0,392.0,60.0,0.0,0.0
1205,79.0,24.0,630.0,0.0,0.0
1206,75.0,96.0,210.0,0.0,0.0
1207,50.0,40.0,300.0,0.0,0.0
1208,71.0,108.0,510.0,0.0,0.0
1209,77.0,180.0,150.0,0.0,0.0
1210,75.0,0.0,390.0,0.0,0.0
1211,55.0,716.0,390.0,0.0,0.0
1212,74.0,4.0,90.0,0.0,0.0
1213,65.0,12.0,60.0,0.0,0.0
1214,67.0,0.0,60.0,0.0,0.0
1215,51.0,36.0,450.0,0.0,0.0
1216,79.0,12.0,510.0,0.0,0.0
1217,74.0,20.0,480.0,0.0,0.0
1218,67.0,4.0,480.0,0.0,0.0
1219,55.0,116.0,570.0,0.0,0.0
1220,72.0,232.0,120.0,0.0,0.0
1221,81.0,8.0,60.0,0.0,0.0
1222,67.0,36.0,60.0,0.0,0.0
1223,60.0,188.0,90.0,0.0,0.0
1224,52.0,16.0,120.0,0.0,0.0
1225,82.0,8.0,120.0,0.0,0.0
1226,72.0,36.0,90.0,0.0,0.0
1227,79.0,52.0,120.0,0.0,0.0
1228,84.0,124.0,60.0,0.0,0.0
1229,82.0,100.0,60.0,0.0,0.0
1230,84.0,108.0,90.0,0.0,0.0
1231,82.0,152.0,150.0,0.0,0.0
1232,60.0,4.0,570.0,0.0,0.0
1233,81.0,100.0,210.0,0.0,0.0
1234,82.0,184.0,90.0,0.0,0.0
1235,67.0,32.0,90.0,0.0,0.0
1236,79.0,224.0,120.0,0.0,0.0
1237,70.0,8.0,60.0,0.0,0.0
1238,72.0,8.0,60.0,0.0,0.0
1239,84.0,756.0,60.0,0.0,0.0
1240,72.0,4.0,40.0,0.0,0.0
1241,41.0,24.0,390.0,0.0,0.0
1242,72.0,356.0,450.0,0.0,0.0
1243,65.0,16.0,390.0,0.0,0.0
1244,70.0,28.0,420.0,0.0,0.0
1245,75.0,4.0,180.0,0.0,0.0
1246,72.0,16.0,210.0,0.0,0.0
1247,70.0,16.0,150.0,0.0,0.0
1248,60.0,12.0,180.0,0.0,0.0
1249,63.0,304.0,210.0,0.0,0.0
1250,53.0,4.0,150.0,0.0,0.0
1251,77.0,8.0,90.0,0.0,0.0
1252,72.0,12.0,60.0,0.0,0.0
1253,65.0,4.0,60.0,0.0,0.0
1254,70.0,8.0,40.0,0.0,0.0
1255,63.0,8.0,60.0,0.0,0.0
1256,60.0,316.0,90.0,0.0,0.0
1257,79.0,0.0,90.0,0.0,0.0
1258,67.0,0.0,90.0,0.0,0.0
1259,75.0,8.0,60.0,0.0,0.0
1260,70.0,8.0,60.0,0.0,0.0
1261,63.0,16.0,90.0,0.0,0.0
1262,72.0,4.0,60.0,0.0,0.0
1263,60.0,292.0,90.0,0.0,0.0
1264,81.0,12.0,90.0,0.0,0.0
1265,69.0,8.0,90.0,0.0,0.0
1266,72.0,8.0,40.0,0.0,0.0
1267,79.0,4.0,90.0,0.0,0.0
1268,67.0,8.0,90.0,0.0,0.0
1269,75.0,12.0,40.0,0.0,0.0
1270,63.0,280.0,90.0,0.0,0.0
1271,60.0,0.0,60.0,0.0,0.0
1272,79.0,4.0,60.0,0.0,0.0
1273,82.0,8.0,90.0,0.0,0.0
1274,70.0,280.0,90.0,0.0,0.0
1275,67.0,4.0,90.0,0.0,0.0
1276,63.0,24.0,60.0,0.0,0.0
1277,75.0,4.0,40.0,0.0,0.0
1278,60.0,0.0,40.0,0.0,0.0
1279,84.0,0.0,90.0,0.0,0.0
1280,67.0,0.0,90.0,0.0,0.0
1281,75.0,16.0,60.0,0.0,0.0
1282,79.0,4.0,60.0,0.0,0.0
1283,82.0,8.0,90.0,0.0,0.0
1284,63.0,304.0,90.0,0.0,0.0
1285,72.0,4.0,90.0,0.0,0.0
1286,70.0,4.0,90.0,0.0,0.0
1287,86.0,384.0,90.0,0.0,0.0
1288,79.0,8.0,60.0,0.0,0.0
1289,75.0,8.0,60.0,0.0,0.0
1290,74.0,8.0,60.0,0.0,0.0
1291,67.0,0.0,60.0,0.0,0.0
1292,70.0,0.0,60.0,0.0,0.0
1293,63.0,4.0,60.0,0.0,0.0
1294,82.0,4.0,60.0,0.0,0.0
1295,87.0,8.0,90.0,0.0,0.0
1296,72.0,4.0,120.0,0.0,0.0
1297,79.0,4.0,60.0,0.0,0.0
1298,67.0,432.0,120.0,0.0,0.0
1299,84.0,4.0,90.0,0.0,0.0
1300,82.0,16.0,60.0,0.0,0.0
1301,70.0,4.0,60.0,0.0,0.0
1302,72.0,8.0,120.0,0.0,0.0
1303,89.0,640.0,150.0,0.0,0.0
1304,75.0,8.0,120.0,0.0,0.0
1305,82.0,4.0,90.0,0.0,0.0
1306,77.0,0.0,90.0,0.0,0.0
1307,70.0,8.0,90.0,0.0,0.0
1308,84.0,20.0,60.0,0.0,0.0
1309,87.0,8.0,90.0,0.0,0.0
1310,72.0,1520.0,120.0,0.0,0.0
1311,91.0,4.0,90.0,0.0,0.0
1312,82.0,8.0,90.0,0.0,0.0
1313,79.0,8.0,90.0,0.0,0.0
1314,84.0,8.0,90.0,0.0,0.0
1315,70.0,4.0,90.0,0.0,0.0
1316,75.0,4.0,90.0,0.0,0.0
1317,87.0,12.0,40.0,0.0,0.0
1318,77.0,384.0,690.0,0.0,0.0
1319,75.0,24.0,660.0,0.0,0.0
1320,53.0,32.0,570.0,0.0,0.0
1321,81.0,28.0,600.0,0.0,0.0
1322,69.0,12.0,600.0,0.0,0.0
1323,41.0,8.0,630.0,0.0,0.0
1324,75.0,272.0,150.0,0.0,0.0
1325,74.0,24.0,870.0,0.0,0.0
1326,77.0,180.0,870.0,0.0,0.0
1327,82.0,4.0,870.0,0.0,0.0
1328,46.0,548.0,300.0,0.0,0.0
1329,34.0,40.0,240.0,0.0,0.0
1330,53.0,36.0,990.0,0.0,0.0
1331,65.0,432.0,90.0,0.0,0.0
1332,84.0,64.0,120.0,0.0,0.0
1333,75.0,56.0,210.0,0.0,0.0
1334,65.0,4.0,270.0,0.0,0.0
1335,81.0,88.0,120.0,0.0,0.0
1336,72.0,40.0,90.0,0.0,0.0
1337,84.0,76.0,60.0,0.0,0.0
1338,75.0,48.0,120.0,0.0,0.0
1339,70.0,92.0,60.0,0.0,0.0
1340,79.0,64.0,150.0,0.0,0.0
1341,53.0,36.0,120.0,0.0,0.0
1342,84.0,48.0,60.0,0.0,0.0
1343,75.0,176.0,150.0,0.0,0.0
1344,65.0,16.0,60.0,0.0,0.0
1345,77.0,120.0,210.0,0.0,0.0
1346,82.0,40.0,540.0,0.0,0.0
1347,74.0,196.0,570.0,0.0,0.0
1348,46.0,392.0,150.0,0.0,0.0
1349,53.0,8.0,1020.0,0.0,0.0
1350,65.0,404.0,90.0,0.0,0.0
1351,84.0,68.0,150.0,0.0,0.0
1352,65.0,44.0,240.0,0.0,0.0
1353,75.0,48.0,180.0,0.0,0.0
1354,72.0,44.0,90.0,0.0,0.0
1355,81.0,80.0,120.0,0.0,0.0
1356,84.0,36.0,90.0,0.0,0.0
1357,75.0,72.0,90.0,0.0,0.0
1358,70.0,88.0,40.0,0.0,0.0
1359,79.0,144.0,120.0,0.0,0.0
1360,84.0,88.0,90.0,0.0,0.0
1361,53.0,24.0,180.0,0.0,0.0
1362,75.0,160.0,210.0,0.0,0.0
1363,65.0,12.0,40.0,0.0,0.0
1364,77.0,84.0,210.0,0.0,0.0
1365,75.0,184.0,40.0,0.0,0.0
1366,82.0,68.0,690.0,0.0,0.0
1367,34.0,328.0,210.0,0.0,0.0
1368,77.0,356.0,780.0,0.0,0.0
1369,74.0,36.0,720.0,0.0,0.0
1370,53.0,148.0,120.0,0.0,0.0
1371,53.0,112.0,810.0,0.0,0.0
1372,65.0,372.0,750.0,0.0,0.0
1373,75.0,260.0,90.0,0.0,0.0
1374,77.0,304.0,750.0,0.0,0.0
1375,82.0,4.0,720.0,0.0,0.0
1376,74.0,8.0,720.0,0.0,0.0
1377,53.0,116.0,1020.0,0.0,0.0
1378,65.0,144.0,510.0,0.0,0.0
1379,75.0,136.0,90.0,0.0,0.0
1380,77.0,4.0,960.0,0.0,0.0
1381,74.0,12.0,930.0,0.0,0.0
1382,82.0,248.0,930.0,0.0,0.0
1383,55.0,552.0,90.0,0.0,0.0
1384,53.0,8.0,1200.0,0.0,0.0
1385,65.0,116.0,810.0,0.0,0.0
1386,75.0,376.0,90.0,0.0,0.0
1387,74.0,20.0,1110.0,0.0,0.0
1388,77.0,692.0,1110.0,0.0,0.0
1389,82.0,24.0,1050.0,0.0,0.0
1390,55.0,600.0,90.0,0.0,0.0
1391,53.0,60.0,1860.0,0.0,0.0
1392,65.0,724.0,1410.0,0.0,0.0
1393,75.0,504.0,120.0,0.0,0.0
1394,77.0,260.0,2550.0,0.0,0.0
1395,73.0,72.0,2460.0,0.0,0.0
1396,82.0,20.0,2490.0,0.0,0.0
1397,53.0,432.0,540.0,0.0,0.0
1398,58.0,272.0,480.0,0.0,0.0
1399,60.0,344.0,330.0,0.0,0.0
1400,61.0,172.0,360.0,0.0,0.0
1401,63.0,8.0,330.0,0.0,0.0
1402,65.0,332.0,330.0,0.0,0.0
1403,70.0,180.0,360.0,0.0,0.0
1404,66.0,204.0,270.0,0.0,0.0
1405,65.0,212.0,240.0,0.0,0.0
1406,63.0,224.0,240.0,0.0,0.0
1407,66.0,232.0,240.0,0.0,0.0
1408,65.0,220.0,270.0,0.0,0.0
1409,70.0,220.0,240.0,0.0,0.0
1410,66.0,192.0,240.0,0.0,0.0
1411,65.0,176.0,240.0,0.0,0.0
1412,63.0,204.0,210.0,0.0,0.0
1413,66.0,256.0,240.0,0.0,0.0
1414,65.0,280.0,300.0,0.0,0.0
1415,70.0,232.0,300.0,0.0,0.0
1416,66.0,396.0,300.0,0.0,0.0
1417,65.0,248.0,450.0,0.0,0.0
1418,77.0,164.0,420.0,0.0,0.0
1419,70.0,220.0,270.0,0.0,0.0
1420,72.0,156.0,270.0,0.0,0.0
1421,70.0,196.0,210.0,0.0,0.0
1422,68.0,220.0,210.0,0.0,0.0
1423,70.0,168.0,240.0,0.0,0.0
1424,68.0,200.0,210.0,0.0,0.0
1425,66.0,180.0,210.0,0.0,0.0
1426,68.0,204.0,210.0,0.0,0.0
1427,66.0,152.0,240.0,0.0,0.0
1428,65.0,244.0,210.0,0.0,0.0
1429,66.0,156.0,270.0,0.0,0.0
1430,65.0,280.0,210.0,0.0,0.0
1431,63.0,228.0,300.0,0.0,0.0
1432,65.0,176.0,300.0,0.0,0.0
1433,70.0,200.0,240.0,0.0,0.0
1434,65.0,396.0,210.0,0.0,0.0
1435,53.0,0.0,210.0,0.0,0.0
1436,66.0,184.0,420.0,0.0,0.0
1437,54.0,12.0,390.0,0.0,0.0
1438,58.0,4.0,180.0,0.0,0.0
1439,70.0,12.0,180.0,0.0,0.0
1440,63.0,8.0,210.0,0.0,0.0
1441,51.0,356.0,210.0,0.0,0.0
1442,53.0,176.0,420.0,0.0,0.0
1443,65.0,20.0,390.0,0.0,0.0
1444,58.0,12.0,210.0,0.0,0.0
1445,70.0,4.0,210.0,0.0,0.0
1446,61.0,8.0,210.0,0.0,0.0
1447,49.0,488.0,210.0,0.0,0.0
1448,63.0,64.0,480.0,0.0,0.0
1449,51.0,12.0,540.0,0.0,0.0
1450,58.0,132.0,300.0,0.0,0.0
1451,70.0,4.0,300.0,0.0,0.0
1452,65.0,12.0,180.0,0.0,0.0
1453,53.0,824.0,180.0,0.0,0.0
1454,37.0,248.0,570.0,0.0,0.0
1455,73.0,96.0,4530.0,0.0,0.0
1456,61.0,96.0,2490.0,0.0,0.0
1457,49.0,16.0,540.0,0.0,0.0
1458,44.0,296.0,300.0,0.0,0.0
1459,49.0,16.0,360.0,0.0,0.0
1460,37.0,124.0,360.0,0.0,0.0
1461,44.0,680.0,40.0,0.0,0.0
1462,49.0,276.0,480.0,0.0,0.0
1463,56.0,8.0,330.0,0.0,0.0
1464,44.0,288.0,330.0,0.0,0.0
1465,49.0,392.0,450.0,0.0,0.0
1466,44.0,568.0,420.0,0.0,0.0
1467,56.0,88.0,330.0,0.0,0.0
1468,49.0,8.0,690.0,0.0,0.0
1469,65.0,40.0,630.0,0.0,0.0
1470,68.0,192.0,300.0,0.0,0.0
1471,63.0,176.0,270.0,0.0,0.0
1472,56.0,16.0,210.0,0.0,0.0
1473,44.0,0.0,180.0,0.0,0.0
1474,49.0,24.0,390.0,0.0,0.0
1475,65.0,168.0,210.0,0.0,0.0
1476,68.0,168.0,210.0,0.0,0.0
1477,63.0,8.0,210.0,0.0,0.0
1478,44.0,4.0,180.0,0.0,0.0
1479,56.0,92.0,180.0,0.0,0.0
1480,65.0,156.0,210.0,0.0,0.0
1481,49.0,104.0,360.0,0.0,0.0
1482,70.0,80.0,210.0,0.0,0.0
1483,68.0,16.0,90.0,0.0,0.0
1484,72.0,100.0,90.0,0.0,0.0
1485,63.0,24.0,60.0,0.0,0.0
1486,56.0,168.0,180.0,0.0,0.0
1487,44.0,8.0,150.0,0.0,0.0
1488,73.0,92.0,240.0,0.0,0.0
1489,49.0,24.0,360.0,0.0,0.0
1490,65.0,72.0,150.0,0.0,0.0
1491,70.0,36.0,210.0,0.0,0.0
1492,68.0,52.0,120.0,0.0,0.0
1493,63.0,64.0,60.0,0.0,0.0
1494,72.0,72.0,120.0,0.0,0.0
1495,56.0,12.0,180.0,0.0,0.0
1496,44.0,92.0,180.0,0.0,0.0
1497,75.0,228.0,90.0,0.0,0.0
1498,49.0,64.0,450.0,0.0,0.0
1499,65.0,60.0,300.0,0.0,0.0
1500,73.0,36.0,330.0,0.0,0.0
1501,68.0,52.0,120.0,0.0,0.0
1502,72.0,80.0,150.0,0.0,0.0
1503,56.0,16.0,210.0,0.0,0.0
1504,63.0,68.0,60.0,0.0,0.0
1505,44.0,228.0,210.0,0.0,0.0
1506,73.0,56.0,300.0,0.0,0.0
1507,49.0,56.0,390.0,0.0,0.0
1508,65.0,28.0,240.0,0.0,0.0
1509,72.0,48.0,150.0,0.0,0.0
1510,56.0,20.0,210.0,0.0,0.0
1511,75.0,16.0,60.0,0.0,0.0
1512,44.0,320.0,240.0,0.0,0.0
1513,70.0,148.0,60.0,0.0,0.0
1514,77.0,80.0,660.0,0.0,0.0
1515,49.0,116.0,510.0,0.0,0.0
1516,68.0,196.0,270.0,0.0,0.0
1517,73.0,28.0,450.0,0.0,0.0
1518,65.0,20.0,150.0,0.0,0.0
1519,56.0,124.0,270.0,0.0,0.0
1520,44.0,292.0,360.0,0.0,0.0
1521,49.0,76.0,600.0,0.0,0.0
1522,77.0,24.0,690.0,0.0,0.0
1523,67.0,176.0,360.0,0.0,0.0
1524,71.0,88.0,420.0,0.0,0.0
1525,55.0,28.0,300.0,0.0,0.0
1526,65.0,52.0,120.0,0.0,0.0
1527,43.0,492.0,300.0,0.0,0.0
1528,48.0,36.0,630.0,0.0,0.0
1529,77.0,64.0,870.0,0.0,0.0
1530,67.0,144.0,420.0,0.0,0.0
1531,72.0,40.0,240.0,0.0,0.0
1532,65.0,96.0,90.0,0.0,0.0
1533,43.0,88.0,180.0,0.0,0.0
1534,55.0,12.0,180.0,0.0,0.0
1535,48.0,36.0,480.0,0.0,0.0
1536,67.0,132.0,150.0,0.0,0.0
1537,76.0,224.0,300.0,0.0,0.0
1538,72.0,200.0,40.0,0.0,0.0
1539,55.0,4.0,360.0,0.0,0.0
1540,43.0,176.0,360.0,0.0,0.0
1541,65.0,16.0,210.0,0.0,0.0
1542,72.0,76.0,90.0,0.0,0.0
1543,48.0,172.0,420.0,0.0,0.0
1544,72.0,56.0,1620.0,0.0,0.0
1545,65.0,164.0,180.0,0.0,0.0
1546,64.0,76.0,120.0,0.0,0.0
1547,55.0,8.0,510.0,0.0,0.0
1548,43.0,76.0,510.0,0.0,0.0
1549,60.0,316.0,30.0,0.0,0.0
1550,60.0,164.0,330.0,0.0,0.0
1551,48.0,8.0,480.0,0.0,0.0
1552,67.0,12.0,270.0,0.0,0.0
1553,62.0,344.0,120.0,0.0,0.0
1554,55.0,36.0,40.0,0.0,0.0
1555,43.0,48.0,60.0,0.0,0.0
1556,36.0,24.0,210.0,0.0,0.0
1557,64.0,16.0,210.0,0.0,0.0
1558,48.0,88.0,240.0,0.0,0.0
1559,67.0,60.0,150.0,0.0,0.0
1560,72.0,204.0,60.0,0.0,0.0
1561,76.0,96.0,120.0,0.0,0.0
1562,43.0,80.0,390.0,0.0,0.0
1563,55.0,100.0,270.0,0.0,0.0
1564,79.0,56.0,90.0,0.0,0.0
1565,84.0,56.0,60.0,0.0,0.0
1566,48.0,116.0,870.0,0.0,0.0
1567,84.0,60.0,180.0,0.0,0.0
1568,96.0,632.0,60.0,0.0,0.0
1569,67.0,156.0,360.0,0.0,0.0
1570,62.0,124.0,300.0,0.0,0.0
1571,55.0,32.0,270.0,0.0,0.0
1572,43.0,64.0,390.0,0.0,0.0
1573,64.0,156.0,270.0,0.0,0.0
1574,48.0,20.0,420.0,0.0,0.0
1575,67.0,216.0,210.0,0.0,0.0
1576,62.0,116.0,330.0,0.0,0.0
1577,43.0,60.0,240.0,0.0,0.0
1578,55.0,52.0,420.0,0.0,0.0
1579,48.0,32.0,510.0,0.0,0.0
1580,64.0,260.0,240.0,0.0,0.0
1581,67.0,4.0,330.0,0.0,0.0
1582,55.0,48.0,60.0,0.0,0.0
1583,62.0,508.0,150.0,0.0,0.0
1584,43.0,64.0,90.0,0.0,0.0
1585,36.0,48.0,300.0,0.0,0.0
1586,48.0,20.0,330.0,0.0,0.0
1587,72.0,40.0,930.0,0.0,0.0
1588,64.0,252.0,330.0,0.0,0.0
1589,67.0,108.0,240.0,0.0,0.0
1590,62.0,108.0,120.0,0.0,0.0
1591,55.0,104.0,210.0,0.0,0.0
1592,43.0,4.0,180.0,0.0,0.0
1593,64.0,124.0,150.0,0.0,0.0
1594,48.0,64.0,390.0,0.0,0.0
1595,69.0,48.0,150.0,0.0,0.0
1596,67.0,60.0,90.0,0.0,0.0
1597,71.0,80.0,90.0,0.0,0.0
1598,62.0,28.0,60.0,0.0,0.0
1599,55.0,28.0,150.0,0.0,0.0
1600,43.0,152.0,180.0,0.0,0.0
1601,72.0,0.0,180.0,0.0,0.0
1602,48.0,60.0,390.0,0.0,0.0
1603,64.0,180.0,150.0,0.0,0.0
1604,69.0,36.0,150.0,0.0,0.0
1605,67.0,0.0,180.0,0.0,0.0
1606,71.0,92.0,90.0,0.0,0.0
1607,62.0,16.0,90.0,0.0,0.0
1608,55.0,4.0,180.0,0.0,0.0
1609,43.0,140.0,180.0,0.0,0.0
1610,72.0,64.0,150.0,0.0,0.0
1611,48.0,32.0,390.0,0.0,0.0
1612,64.0,124.0,180.0,0.0,0.0
1613,69.0,32.0,150.0,0.0,0.0
1614,67.0,28.0,150.0,0.0,0.0
1615,71.0,0.0,60.0,0.0,0.0
1616,62.0,168.0,60.0,0.0,0.0
1617,55.0,8.0,210.0,0.0,0.0
1618,43.0,48.0,210.0,0.0,0.0
1619,74.0,188.0,60.0,0.0,0.0
1620,64.0,72.0,240.0,0.0,0.0
1621,48.0,52.0,480.0,0.0,0.0
1622,72.0,88.0,300.0,0.0,0.0
1623,67.0,64.0,150.0,0.0,0.0
1624,55.0,4.0,240.0,0.0,0.0
1625,71.0,80.0,180.0,0.0,0.0
1626,62.0,108.0,60.0,0.0,0.0
1627,43.0,260.0,240.0,0.0,0.0
1628,48.0,28.0,480.0,0.0,0.0
1629,72.0,128.0,300.0,0.0,0.0
1630,63.0,44.0,240.0,0.0,0.0
1631,70.0,32.0,150.0,0.0,0.0
1632,74.0,160.0,90.0,0.0,0.0
1633,68.0,36.0,60.0,0.0,0.0
1634,55.0,8.0,240.0,0.0,0.0
1635,43.0,252.0,240.0,0.0,0.0
1636,75.0,32.0,420.0,0.0,0.0
1637,48.0,20.0,450.0,0.0,0.0
1638,67.0,156.0,240.0,0.0,0.0
1639,70.0,16.0,180.0,0.0,0.0
1640,63.0,92.0,40.0,0.0,0.0
1641,43.0,272.0,270.0,0.0,0.0
1642,55.0,120.0,120.0,0.0,0.0
1643,48.0,72.0,660.0,0.0,0.0
1644,75.0,76.0,510.0,0.0,0.0
1645,65.0,220.0,270.0,0.0,0.0
1646,69.0,48.0,300.0,0.0,0.0
1647,41.0,648.0,150.0,0.0,0.0
1648,53.0,4.0,120.0,0.0,0.0
1649,60.0,12.0,40.0,0.0,0.0
1650,34.0,68.0,390.0,0.0,0.0
1651,75.0,180.0,510.0,0.0,0.0
1652,46.0,64.0,330.0,0.0,0.0
1653,65.0,112.0,390.0,0.0,0.0
1654,70.0,112.0,330.0,0.0,0.0
1655,63.0,20.0,210.0,0.0,0.0
1656,53.0,40.0,210.0,0.0,0.0
1657,41.0,4.0,180.0,0.0,0.0
1658,65.0,304.0,60.0,0.0,0.0
1659,46.0,172.0,570.0,0.0,0.0
1660,74.0,8.0,300.0,0.0,0.0
1661,70.0,192.0,60.0,0.0,0.0
1662,63.0,4.0,180.0,0.0,0.0
1663,41.0,20.0,270.0,0.0,0.0
1664,53.0,208.0,240.0,0.0,0.0
1665,70.0,96.0,60.0,0.0,0.0
1666,70.0,56.0,1410.0,0.0,0.0
1667,63.0,172.0,270.0,0.0,0.0
1668,46.0,48.0,420.0,0.0,0.0
1669,62.0,100.0,270.0,0.0,0.0
1670,41.0,48.0,420.0,0.0,0.0
1671,53.0,100.0,450.0,0.0,0.0
1672,58.0,244.0,60.0,0.0,0.0
1673,58.0,180.0,330.0,0.0,0.0
1674,46.0,8.0,510.0,0.0,0.0
1675,65.0,16.0,300.0,0.0,0.0
1676,53.0,24.0,40.0,0.0,0.0
1677,60.0,120.0,330.0,0.0,0.0
1678,41.0,208.0,60.0,0.0,0.0
1679,62.0,112.0,240.0,0.0,0.0
1680,34.0,40.0,150.0,0.0,0.0
1681,46.0,24.0,180.0,0.0,0.0
1682,65.0,44.0,150.0,0.0,0.0
1683,70.0,188.0,60.0,0.0,0.0
1684,74.0,112.0,120.0,0.0,0.0
1685,53.0,28.0,270.0,0.0,0.0
1686,41.0,132.0,300.0,0.0,0.0
1687,77.0,52.0,90.0,0.0,0.0
1688,82.0,56.0,40.0,0.0,0.0
1689,46.0,208.0,990.0,0.0,0.0
1690,82.0,68.0,150.0,0.0,0.0
1691,94.0,744.0,60.0,0.0,0.0
1692,65.0,36.0,600.0,0.0,0.0
1693,60.0,68.0,210.0,0.0,0.0
1694,41.0,88.0,300.0,0.0,0.0
1695,53.0,116.0,390.0,0.0,0.0
1696,61.0,40.0,270.0,0.0,0.0
1697,46.0,168.0,450.0,0.0,0.0
1698,65.0,156.0,90.0,0.0,0.0
1699,41.0,212.0,300.0,0.0,0.0
1700,53.0,8.0,270.0,0.0,0.0
1701,70.0,32.0,210.0,0.0,0.0
1702,60.0,80.0,120.0,0.0,0.0
1703,46.0,76.0,450.0,0.0,0.0
1704,68.0,48.0,390.0,0.0,0.0
1705,61.0,80.0,210.0,0.0,0.0
1706,65.0,72.0,90.0,0.0,0.0
1707,70.0,40.0,270.0,0.0,0.0
1708,41.0,248.0,300.0,0.0,0.0
1709,53.0,4.0,270.0,0.0,0.0
1710,60.0,180.0,60.0,0.0,0.0
1711,46.0,132.0,510.0,0.0,0.0
1712,66.0,4.0,720.0,0.0,0.0
1713,61.0,200.0,240.0,0.0,0.0
1714,64.0,40.0,180.0,0.0,0.0
1715,60.0,100.0,150.0,0.0,0.0
1716,53.0,0.0,240.0,0.0,0.0
1717,41.0,196.0,240.0,0.0,0.0
1718,46.0,116.0,600.0,0.0,0.0
1719,61.0,116.0,240.0,0.0,0.0
1720,73.0,244.0,90.0,0.0,0.0
1721,58.0,196.0,120.0,0.0,0.0
1722,41.0,232.0,420.0,0.0,0.0
1723,53.0,128.0,300.0,0.0,0.0
1724,48.0,48.0,570.0,0.0,0.0
1725,65.0,104.0,330.0,0.0,0.0
1726,57.0,80.0,420.0,0.0,0.0
1727,60.0,52.0,210.0,0.0,0.0
1728,65.0,160.0,90.0,0.0,0.0
1729,53.0,196.0,300.0,0.0,0.0
1730,41.0,40.0,240.0,0.0,0.0
1731,46.0,44.0,450.0,0.0,0.0
1732,68.0,44.0,270.0,0.0,0.0
1733,61.0,16.0,210.0,0.0,0.0
1734,65.0,128.0,90.0,0.0,0.0
1735,53.0,36.0,270.0,0.0,0.0
1736,41.0,196.0,300.0,0.0,0.0
1737,70.0,52.0,210.0,0.0,0.0
1738,58.0,144.0,40.0,0.0,0.0
1739,46.0,12.0,510.0,0.0,0.0
1740,66.0,152.0,2070.0,0.0,0.0
1741,61.0,256.0,210.0,0.0,0.0
1742,64.0,120.0,240.0,0.0,0.0
1743,60.0,72.0,180.0,0.0,0.0
1744,41.0,76.0,210.0,0.0,0.0
1745,53.0,92.0,300.0,0.0,0.0
1746,61.0,272.0,210.0,0.0,0.0
1747,46.0,96.0,450.0,0.0,0.0
1748,64.0,40.0,390.0,0.0,0.0
1749,58.0,52.0,150.0,0.0,0.0
1750,53.0,4.0,210.0,0.0,0.0
1751,41.0,220.0,210.0,0.0,0.0
1752,46.0,156.0,450.0,0.0,0.0
1753,61.0,212.0,210.0,0.0,0.0
1754,64.0,12.0,210.0,0.0,0.0
1755,60.0,84.0,180.0,0.0,0.0
1756,53.0,16.0,270.0,0.0,0.0
1757,41.0,28.0,240.0,0.0,0.0
1758,46.0,156.0,540.0,0.0,0.0
1759,61.0,96.0,210.0,0.0,0.0
1760,73.0,224.0,60.0,0.0,0.0
1761,41.0,264.0,360.0,0.0,0.0
1762,58.0,164.0,150.0,0.0,0.0
1763,53.0,28.0,210.0,0.0,0.0
1764,48.0,12.0,600.0,0.0,0.0
1765,57.0,120.0,360.0,0.0,0.0
1766,65.0,84.0,270.0,0.0,0.0
1767,53.0,40.0,300.0,0.0,0.0
1768,60.0,120.0,180.0,0.0,0.0
1769,41.0,92.0,330.0,0.0,0.0
1770,65.0,280.0,60.0,0.0,0.0
1771,48.0,196.0,120.0,0.0,0.0
1772,69.0,40.0,450.0,0.0,0.0
1773,57.0,140.0,60.0,0.0,0.0
1774,72.0,24.0,240.0,0.0,0.0
1775,48.0,28.0,240.0,0.0,0.0
1776,41.0,124.0,300.0,0.0,0.0
1777,77.0,220.0,90.0,0.0,0.0
1778,48.0,368.0,810.0,0.0,0.0
1779,72.0,48.0,390.0,0.0,0.0
1780,77.0,4.0,30.0,0.0,0.0
1781,79.0,92.0,120.0,0.0,0.0
1782,68.0,36.0,180.0,0.0,0.0
1783,77.0,96.0,180.0,0.0,0.0
1784,56.0,116.0,90.0,0.0,0.0
1785,76.0,52.0,270.0,0.0,0.0
1786,67.0,64.0,210.0,0.0,0.0
1787,41.0,8.0,150.0,0.0,0.0
1788,68.0,16.0,60.0,0.0,0.0
1789,77.0,68.0,90.0,0.0,0.0
1790,72.0,36.0,20.0,0.0,0.0
1791,80.0,48.0,270.0,0.0,0.0
1792,72.0,20.0,240.0,0.0,0.0
1793,44.0,12.0,390.0,0.0,0.0
1794,77.0,76.0,300.0,0.0,0.0
1795,78.0,0.0,60.0,0.0,0.0
1796,51.0,396.0,60.0,0.0,0.0
1797,70.0,20.0,40.0,0.0,0.0
1798,75.0,8.0,60.0,0.0,0.0
1799,60.0,500.0,60.0,0.0,0.0
1800,72.0,4.0,60.0,0.0,0.0
1801,66.0,12.0,30.0,0.0,0.0
1802,73.0,60.0,300.0,0.0,0.0
1803,65.0,40.0,270.0,0.0,0.0
1804,37.0,32.0,330.0,0.0,0.0
1805,77.0,164.0,120.0,0.0,0.0
1806,49.0,4.0,60.0,0.0,0.0
1807,85.0,636.0,60.0,0.0,0.0
1808,56.0,8.0,420.0,0.0,0.0
1809,80.0,84.0,240.0,0.0,0.0
1810,82.0,88.0,120.0,0.0,0.0
1811,44.0,24.0,270.0,0.0,0.0
1812,80.0,72.0,90.0,0.0,0.0
1813,82.0,60.0,60.0,0.0,0.0
1814,80.0,40.0,90.0,0.0,0.0
1815,49.0,88.0,90.0,0.0,0.0
1816,82.0,0.0,60.0,0.0,0.0
1817,80.0,28.0,90.0,0.0,0.0
1818,82.0,80.0,60.0,0.0,0.0
1819,80.0,28.0,60.0,0.0,0.0
1820,82.0,32.0,60.0,0.0,0.0
1821,56.0,44.0,60.0,0.0,0.0
1822,80.0,32.0,60.0,0.0,0.0
1823,82.0,76.0,60.0,0.0,0.0
1824,80.0,92.0,60.0,0.0,0.0
1825,82.0,80.0,90.0,0.0,0.0
1826,44.0,124.0,420.0,0.0,0.0
1827,80.0,68.0,120.0,0.0,0.0
1828,79.0,168.0,90.0,0.0,0.0
1829,80.0,48.0,150.0,0.0,0.0
1830,49.0,100.0,300.0,0.0,0.0
1831,77.0,104.0,180.0,0.0,0.0
1832,85.0,52.0,120.0,0.0,0.0
1833,73.0,0.0,120.0,0.0,0.0
1834,80.0,12.0,60.0,0.0,0.0
1835,82.0,44.0,60.0,0.0,0.0
1836,70.0,16.0,40.0,0.0,0.0
1837,56.0,168.0,90.0,0.0,0.0
1838,84.0,12.0,90.0,0.0,0.0
1839,75.0,16.0,60.0,0.0,0.0
1840,44.0,16.0,210.0,0.0,0.0
1841,72.0,144.0,60.0,0.0,0.0
1842,77.0,24.0,40.0,0.0,0.0
1843,85.0,8.0,40.0,0.0,0.0
1844,49.0,32.0,240.0,0.0,0.0
1845,73.0,168.0,60.0,0.0,0.0
1846,82.0,16.0,90.0,0.0,0.0
1847,70.0,24.0,60.0,0.0,0.0
1848,80.0,8.0,90.0,0.0,0.0
1849,56.0,152.0,90.0,0.0,0.0
1850,84.0,4.0,90.0,0.0,0.0
1851,75.0,16.0,60.0,0.0,0.0
1852,44.0,84.0,630.0,0.0,0.0
1853,72.0,444.0,60.0,0.0,0.0
1854,85.0,40.0,240.0,0.0,0.0
1855,49.0,76.0,420.0,0.0,0.0
1856,77.0,24.0,300.0,0.0,0.0
1857,73.0,16.0,270.0,0.0,0.0
1858,80.0,24.0,40.0,0.0,0.0
1859,56.0,36.0,210.0,0.0,0.0
1860,84.0,148.0,90.0,0.0,0.0
1861,75.0,16.0,60.0,0.0,0.0
1862,72.0,24.0,60.0,0.0,0.0
1863,44.0,180.0,270.0,0.0,0.0
1864,49.0,60.0,420.0,0.0,0.0
1865,85.0,12.0,60.0,0.0,0.0
1866,77.0,8.0,40.0,0.0,0.0
1867,73.0,8.0,40.0,0.0,0.0
1868,44.0,24.0,120.0,0.0,0.0
1869,56.0,4.0,180.0,0.0,0.0
1870,84.0,132.0,40.0,0.0,0.0
1871,44.0,248.0,120.0,0.0,0.0
1872,87.0,32.0,60.0,0.0,0.0
1873,82.0,8.0,60.0,0.0,0.0
1874,75.0,20.0,40.0,0.0,0.0
1875,85.0,20.0,90.0,0.0,0.0
1876,89.0,68.0,120.0,0.0,0.0
1877,77.0,144.0,180.0,0.0,0.0
1878,37.0,16.0,60.0,0.0,0.0
1879,49.0,8.0,90.0,0.0,0.0
1880,85.0,20.0,60.0,0.0,0.0
1881,56.0,196.0,90.0,0.0,0.0
1882,73.0,40.0,40.0,0.0,0.0
1883,44.0,316.0,90.0,0.0,0.0
1884,77.0,152.0,210.0,0.0,0.0
1885,79.0,36.0,180.0,0.0,0.0
1886,89.0,8.0,150.0,0.0,0.0
1887,49.0,68.0,90.0,0.0,0.0
1888,55.0,348.0,60.0,0.0,0.0
1889,83.0,12.0,40.0,0.0,0.0
1890,43.0,632.0,60.0,0.0,0.0
1891,71.0,8.0,60.0,0.0,0.0
1892,79.0,80.0,300.0,0.0,0.0
1893,36.0,28.0,240.0,0.0,0.0
1894,77.0,224.0,360.0,0.0,0.0
1895,89.0,8.0,270.0,0.0,0.0
1896,48.0,12.0,270.0,0.0,0.0
1897,55.0,64.0,270.0,0.0,0.0
1898,84.0,164.0,90.0,0.0,0.0
1899,72.0,172.0,60.0,0.0,0.0
1900,43.0,8.0,240.0,0.0,0.0
1901,79.0,164.0,40.0,0.0,0.0
1902,77.0,4.0,40.0,0.0,0.0
1903,48.0,44.0,210.0,0.0,0.0
1904,88.0,184.0,40.0,0.0,0.0
1905,84.0,8.0,30.0,0.0,0.0
1906,76.0,8.0,30.0,0.0,0.0
1907,55.0,168.0,210.0,0.0,0.0
1908,43.0,8.0,450.0,0.0,0.0
1909,84.0,212.0,60.0,0.0,0.0
1910,72.0,24.0,30.0,0.0,0.0
1911,77.0,0.0,20.0,0.0,0.0
1912,48.0,12.0,420.0,0.0,0.0
1913,84.0,32.0,420.0,0.0,0.0
1914,77.0,76.0,180.0,0.0,0.0
1915,72.0,144.0,270.0,0.0,0.0
1916,79.0,20.0,510.0,0.0,0.0
1917,76.0,32.0,300.0,0.0,0.0
1918,55.0,64.0,210.0,0.0,0.0
1919,43.0,16.0,570.0,0.0,0.0
1920,72.0,324.0,60.0,0.0,0.0
1921,48.0,28.0,360.0,0.0,0.0
1922,65.0,88.0,210.0,0.0,0.0
1923,72.0,4.0,330.0,0.0,0.0
1924,67.0,24.0,330.0,0.0,0.0
1925,64.0,32.0,60.0,0.0,0.0
1926,55.0,172.0,90.0,0.0,0.0
1927,43.0,144.0,60.0,0.0,0.0
1928,60.0,280.0,90.0,0.0,0.0
1929,36.0,32.0,150.0,0.0,0.0
1930,60.0,56.0,300.0,0.0,0.0
1931,48.0,100.0,150.0,0.0,0.0
1932,72.0,172.0,150.0,0.0,0.0
1933,70.0,28.0,30.0,0.0,0.0
1934,64.0,104.0,150.0,0.0,0.0
1935,55.0,108.0,330.0,0.0,0.0
1936,67.0,40.0,120.0,0.0,0.0
1937,72.0,28.0,40.0,0.0,0.0
1938,43.0,96.0,570.0,0.0,0.0
1939,72.0,92.0,90.0,0.0,0.0
1940,84.0,156.0,60.0,0.0,0.0
1941,48.0,232.0,390.0,0.0,0.0
1942,84.0,92.0,90.0,0.0,0.0
1943,96.0,36.0,60.0,0.0,0.0
1944,55.0,236.0,120.0,0.0,0.0
1945,67.0,24.0,90.0,0.0,0.0
1946,43.0,144.0,210.0,0.0,0.0
1947,62.0,88.0,120.0,0.0,0.0
1948,48.0,32.0,240.0,0.0,0.0
1949,64.0,100.0,150.0,0.0,0.0
1950,55.0,60.0,210.0,0.0,0.0
1951,67.0,152.0,60.0,0.0,0.0
1952,43.0,44.0,240.0,0.0,0.0
1953,62.0,172.0,60.0,0.0,0.0
1954,74.0,4.0,40.0,0.0,0.0
1955,48.0,192.0,120.0,0.0,0.0
1956,76.0,16.0,40.0,0.0,0.0
1957,64.0,68.0,40.0,0.0,0.0
1958,55.0,292.0,90.0,0.0,0.0
1959,79.0,8.0,40.0,0.0,0.0
1960,67.0,28.0,60.0,0.0,0.0
1961,74.0,32.0,60.0,0.0,0.0
1962,43.0,776.0,90.0,0.0,0.0
1963,36.0,128.0,510.0,0.0,0.0
1964,48.0,0.0,510.0,0.0,0.0
1965,84.0,32.0,630.0,0.0,0.0
1966,76.0,60.0,660.0,0.0,0.0
1967,72.0,124.0,720.0,0.0,0.0
1968,79.0,96.0,270.0,0.0,0.0
1969,55.0,96.0,420.0,0.0,0.0
1970,81.0,64.0,150.0,0.0,0.0
1971,43.0,32.0,300.0,0.0,0.0
1972,79.0,0.0,60.0,0.0,0.0
1973,81.0,44.0,90.0,0.0,0.0
1974,79.0,32.0,60.0,0.0,0.0
1975,81.0,48.0,60.0,0.0,0.0
1976,48.0,32.0,180.0,0.0,0.0
1977,79.0,48.0,60.0,0.0,0.0
1978,81.0,24.0,60.0,0.0,0.0
1979,79.0,52.0,60.0,0.0,0.0
1980,81.0,40.0,60.0,0.0,0.0
1981,55.0,8.0,90.0,0.0,0.0
1982,79.0,52.0,60.0,0.0,0.0
1983,81.0,52.0,60.0,0.0,0.0
1984,79.0,112.0,60.0,0.0,0.0
1985,81.0,56.0,90.0,0.0,0.0
1986,43.0,96.0,510.0,0.0,0.0
1987,79.0,76.0,120.0,0.0,0.0
1988,78.0,36.0,90.0,0.0,0.0
1989,79.0,240.0,60.0,0.0,0.0
1990,48.0,40.0,420.0,0.0,0.0
1991,84.0,40.0,180.0,0.0,0.0
1992,76.0,148.0,240.0,0.0,0.0
1993,72.0,28.0,210.0,0.0,0.0
1994,79.0,48.0,60.0,0.0,0.0
1995,55.0,204.0,90.0,0.0,0.0
1996,81.0,0.0,40.0,0.0,0.0
1997,83.0,0.0,90.0,0.0,0.0
1998,74.0,240.0,90.0,0.0,0.0
1999,43.0,8.0,330.0,0.0,0.0
2000,71.0,20.0,40.0,0.0,0.0
2001,84.0,20.0,120.0,0.0,0.0
2002,48.0,64.0,450.0,0.0,0.0
2003,76.0,96.0,210.0,0.0,0.0
2004,72.0,64.0,120.0,0.0,0.0
2005,55.0,20.0,210.0,0.0,0.0
2006,79.0,136.0,60.0,0.0,0.0
2007,81.0,0.0,60.0,0.0,0.0
2008,74.0,448.0,90.0,0.0,0.0
2009,83.0,0.0,90.0,0.0,0.0
2010,43.0,56.0,540.0,0.0,0.0
2011,71.0,8.0,60.0,0.0,0.0
2012,84.0,8.0,330.0,0.0,0.0
2013,76.0,24.0,330.0,0.0,0.0
2014,48.0,24.0,540.0,0.0,0.0
2015,72.0,72.0,360.0,0.0,0.0
2016,55.0,36.0,210.0,0.0,0.0
2017,79.0,84.0,120.0,0.0,0.0
2018,83.0,24.0,90.0,0.0,0.0
2019,74.0,272.0,90.0,0.0,0.0
2020,43.0,76.0,420.0,0.0,0.0
2021,71.0,16.0,30.0,0.0,0.0
2022,84.0,36.0,180.0,0.0,0.0
2023,75.0,12.0,150.0,0.0,0.0
2024,72.0,8.0,150.0,0.0,0.0
2025,48.0,116.0,360.0,0.0,0.0
2026,55.0,48.0,120.0,0.0,0.0
2027,82.0,40.0,60.0,0.0,0.0
2028,43.0,212.0,240.0,0.0,0.0
2029,86.0,128.0,120.0,0.0,0.0
2030,80.0,20.0,60.0,0.0,0.0
2031,74.0,32.0,90.0,0.0,0.0
2032,87.0,140.0,270.0,0.0,0.0
2033,79.0,8.0,390.0,0.0,0.0
2034,48.0,16.0,570.0,0.0,0.0
2035,75.0,24.0,240.0,0.0,0.0
2036,55.0,168.0,120.0,0.0,0.0
2037,82.0,212.0,330.0,0.0,0.0
2038,43.0,212.0,300.0,0.0,0.0
2039,72.0,20.0,60.0,0.0,0.0
2040,87.0,84.0,240.0,0.0,0.0
2041,75.0,32.0,390.0,0.0,0.0
2042,48.0,20.0,330.0,0.0,0.0
2043,77.0,56.0,330.0,0.0,0.0
2044,81.0,220.0,180.0,0.0,0.0
2045,53.0,32.0,120.0,0.0,0.0
2046,41.0,4.0,60.0,0.0,0.0
2047,72.0,676.0,60.0,0.0,0.0
2048,87.0,72.0,330.0,0.0,0.0
2049,34.0,20.0,300.0,0.0,0.0
2050,77.0,92.0,390.0,0.0,0.0
2051,75.0,108.0,480.0,0.0,0.0
2052,46.0,8.0,300.0,0.0,0.0
2053,53.0,100.0,270.0,0.0,0.0
2054,82.0,176.0,90.0,0.0,0.0
2055,41.0,76.0,390.0,0.0,0.0
2056,70.0,184.0,90.0,0.0,0.0
2057,75.0,12.0,60.0,0.0,0.0
2058,46.0,32.0,270.0,0.0,0.0
2059,77.0,108.0,90.0,0.0,0.0
2060,86.0,24.0,60.0,0.0,0.0
2061,74.0,4.0,20.0,0.0,0.0
2062,53.0,316.0,90.0,0.0,0.0
2063,82.0,28.0,20.0,0.0,0.0
2064,41.0,4.0,390.0,0.0,0.0
2065,82.0,216.0,60.0,0.0,0.0
2066,70.0,12.0,40.0,0.0,0.0
2067,46.0,4.0,300.0,0.0,0.0
2068,82.0,72.0,480.0,0.0,0.0
2069,70.0,104.0,300.0,0.0,0.0
2070,77.0,56.0,540.0,0.0,0.0
2071,75.0,112.0,180.0,0.0,0.0
2072,53.0,64.0,150.0,0.0,0.0
2073,74.0,0.0,270.0,0.0,0.0
2074,41.0,52.0,660.0,0.0,0.0
2075,70.0,372.0,60.0,0.0,0.0
2076,46.0,0.0,660.0,0.0,0.0
2077,63.0,120.0,240.0,0.0,0.0
2078,70.0,112.0,750.0,0.0,0.0
2079,65.0,8.0,600.0,0.0,0.0
2080,53.0,80.0,270.0,0.0,0.0
2081,62.0,64.0,210.0,0.0,0.0
2082,61.0,136.0,40.0,0.0,0.0
2083,41.0,64.0,90.0,0.0,0.0
2084,58.0,248.0,90.0,0.0,0.0
2085,58.0,44.0,390.0,0.0,0.0
2086,34.0,28.0,150.0,0.0,0.0
2087,46.0,196.0,180.0,0.0,0.0
2088,70.0,152.0,150.0,0.0,0.0
2089,62.0,76.0,180.0,0.0,0.0
2090,53.0,20.0,270.0,0.0,0.0
2091,65.0,32.0,120.0,0.0,0.0
2092,41.0,148.0,360.0,0.0,0.0
2093,70.0,132.0,60.0,0.0,0.0
2094,70.0,80.0,60.0,0.0,0.0
2095,82.0,96.0,60.0,0.0,0.0
2096,46.0,412.0,690.0,0.0,0.0
2097,82.0,80.0,180.0,0.0,0.0
2098,94.0,368.0,60.0,0.0,0.0
2099,53.0,80.0,420.0,0.0,0.0
2100,65.0,188.0,510.0,0.0,0.0
2101,60.0,40.0,150.0,0.0,0.0
2102,41.0,136.0,360.0,0.0,0.0
2103,46.0,28.0,450.0,0.0,0.0
2104,61.0,52.0,270.0,0.0,0.0
2105,65.0,116.0,120.0,0.0,0.0
2106,53.0,88.0,240.0,0.0,0.0
2107,41.0,244.0,330.0,0.0,0.0
2108,70.0,116.0,180.0,0.0,0.0
2109,60.0,80.0,90.0,0.0,0.0
2110,46.0,20.0,450.0,0.0,0.0
2111,61.0,40.0,270.0,0.0,0.0
2112,68.0,124.0,300.0,0.0,0.0
2113,65.0,0.0,60.0,0.0,0.0
2114,53.0,124.0,180.0,0.0,0.0
2115,41.0,268.0,300.0,0.0,0.0
2116,70.0,72.0,210.0,0.0,0.0
2117,60.0,92.0,90.0,0.0,0.0
2118,46.0,0.0,540.0,0.0,0.0
2119,66.0,72.0,720.0,0.0,0.0
2120,61.0,236.0,270.0,0.0,0.0
2121,53.0,132.0,210.0,0.0,0.0
2122,64.0,4.0,180.0,0.0,0.0
2123,41.0,168.0,270.0,0.0,0.0
2124,60.0,64.0,120.0,0.0,0.0
2125,61.0,88.0,240.0,0.0,0.0
2126,46.0,68.0,600.0,0.0,0.0
2127,73.0,272.0,60.0,0.0,0.0
2128,53.0,8.0,300.0,0.0,0.0
2129,41.0,8.0,690.0,0.0,0.0
2130,58.0,568.0,90.0,0.0,0.0
2131,48.0,56.0,660.0,0.0,0.0
2132,65.0,280.0,330.0,0.0,0.0
2133,57.0,20.0,300.0,0.0,0.0
2134,60.0,8.0,40.0,0.0,0.0
2135,53.0,28.0,300.0,0.0,0.0
2136,77.0,224.0,90.0,0.0,0.0
2137,41.0,276.0,300.0,0.0,0.0
2138,65.0,12.0,60.0,0.0,0.0
2139,46.0,48.0,510.0,0.0,0.0
2140,80.0,16.0,270.0,0.0,0.0
2141,73.0,80.0,330.0,0.0,0.0
2142,68.0,44.0,270.0,0.0,0.0
2143,58.0,16.0,90.0,0.0,0.0
2144,77.0,80.0,150.0,0.0,0.0
2145,41.0,452.0,330.0,0.0,0.0
2146,82.0,4.0,90.0,0.0,0.0
2147,73.0,12.0,60.0,0.0,0.0
2148,70.0,224.0,90.0,0.0,0.0
2149,78.0,108.0,960.0,0.0,0.0
2150,73.0,236.0,480.0,0.0,0.0
2151,46.0,4.0,690.0,0.0,0.0
2152,66.0,60.0,720.0,0.0,0.0
2153,58.0,4.0,90.0,0.0,0.0
2154,76.0,36.0,270.0,0.0,0.0
2155,72.0,100.0,150.0,0.0,0.0
2156,41.0,56.0,240.0,0.0,0.0
2157,73.0,44.0,270.0,0.0,0.0
2158,46.0,68.0,180.0,0.0,0.0
2159,58.0,128.0,90.0,0.0,0.0
2160,76.0,56.0,180.0,0.0,0.0
2161,70.0,200.0,40.0,0.0,0.0
2162,41.0,168.0,240.0,0.0,0.0
2163,64.0,88.0,210.0,0.0,0.0
2164,46.0,4.0,630.0,0.0,0.0
2165,66.0,60.0,150.0,0.0,0.0
2166,73.0,12.0,60.0,0.0,0.0
2167,58.0,200.0,90.0,0.0,0.0
2168,76.0,68.0,150.0,0.0,0.0
2169,78.0,56.0,90.0,0.0,0.0
2170,41.0,104.0,330.0,0.0,0.0
2171,85.0,148.0,60.0,0.0,0.0
2172,85.0,92.0,90.0,0.0,0.0
2173,46.0,276.0,870.0,0.0,0.0
2174,97.0,372.0,90.0,0.0,0.0
2175,58.0,364.0,90.0,0.0,0.0
2176,41.0,780.0,450.0,0.0,0.0
2177,76.0,24.0,300.0,0.0,0.0
2178,70.0,112.0,300.0,0.0,0.0
2179,64.0,24.0,240.0,0.0,0.0
2180,48.0,24.0,840.0,0.0,0.0
2181,77.0,28.0,840.0,0.0,0.0
2182,65.0,172.0,600.0,0.0,0.0
2183,69.0,40.0,720.0,0.0,0.0
2184,72.0,172.0,450.0,0.0,0.0
2185,57.0,84.0,60.0,0.0,0.0
2186,41.0,324.0,330.0,0.0,0.0
2187,65.0,40.0,120.0,0.0,0.0
2188,77.0,76.0,1170.0,0.0,0.0
2189,48.0,224.0,960.0,0.0,0.0
2190,68.0,72.0,720.0,0.0,0.0
2191,65.0,260.0,450.0,0.0,0.0
2192,72.0,20.0,930.0,0.0,0.0
2193,56.0,80.0,60.0,0.0,0.0
2194,41.0,136.0,180.0,0.0,0.0
2195,65.0,16.0,630.0,0.0,0.0
2196,44.0,84.0,480.0,0.0,0.0
2197,68.0,156.0,270.0,0.0,0.0
2198,75.0,0.0,120.0,0.0,0.0
2199,72.0,232.0,180.0,0.0,0.0
2200,66.0,0.0,90.0,0.0,0.0
2201,51.0,52.0,90.0,0.0,0.0
2202,77.0,540.0,120.0,0.0,0.0
2203,70.0,24.0,90.0,0.0,0.0
2204,60.0,20.0,40.0,0.0,0.0
2205,78.0,672.0,270.0,0.0,0.0
2206,75.0,12.0,240.0,0.0,0.0
2207,68.0,28.0,1290.0,0.0,0.0
2208,66.0,132.0,900.0,0.0,0.0
2209,63.0,60.0,1200.0,0.0,0.0
2210,84.0,152.0,630.0,0.0,0.0
2211,80.0,60.0,540.0,0.0,0.0
2212,82.0,864.0,360.0,0.0,0.0
2213,70.0,32.0,210.0,0.0,0.0
2214,78.0,48.0,240.0,0.0,0.0
2215,77.0,372.0,540.0,0.0,0.0
2216,80.0,16.0,480.0,0.0,0.0
2217,68.0,32.0,480.0,0.0,0.0
2218,37.0,48.0,210.0,0.0,0.0
2219,49.0,168.0,240.0,0.0,0.0
2220,56.0,56.0,540.0,0.0,0.0
2221,58.0,212.0,300.0,0.0,0.0
2222,79.0,108.0,120.0,0.0,0.0
2223,67.0,12.0,90.0,0.0,0.0
2224,76.0,32.0,60.0,0.0,0.0
2225,60.0,52.0,450.0,0.0,0.0
2226,78.0,72.0,360.0,0.0,0.0
2227,75.0,56.0,300.0,0.0,0.0
2228,66.0,72.0,210.0,0.0,0.0
2229,56.0,4.0,270.0,0.0,0.0
2230,72.0,444.0,60.0,0.0,0.0
2231,66.0,0.0,40.0,0.0,0.0
2232,76.0,4.0,40.0,0.0,0.0
2233,49.0,176.0,300.0,0.0,0.0
2234,77.0,60.0,240.0,0.0,0.0
2235,65.0,16.0,210.0,0.0,0.0
2236,73.0,4.0,210.0,0.0,0.0
2237,56.0,20.0,210.0,0.0,0.0
2238,80.0,424.0,90.0,0.0,0.0
2239,77.0,16.0,60.0,0.0,0.0
2240,49.0,12.0,510.0,0.0,0.0
2241,68.0,4.0,40.0,0.0,0.0
2242,56.0,40.0,300.0,0.0,0.0
2243,85.0,44.0,270.0,0.0,0.0
2244,77.0,220.0,390.0,0.0,0.0
2245,73.0,4.0,270.0,0.0,0.0
2246,61.0,60.0,60.0,0.0,0.0
2247,65.0,8.0,60.0,0.0,0.0
2248,84.0,348.0,90.0,0.0,0.0
2249,72.0,8.0,90.0,0.0,0.0
2250,80.0,20.0,40.0,0.0,0.0
2251,82.0,12.0,120.0,0.0,0.0
2252,49.0,36.0,300.0,0.0,0.0
2253,78.0,32.0,120.0,0.0,0.0
2254,70.0,136.0,150.0,0.0,0.0
2255,80.0,8.0,60.0,0.0,0.0
2256,77.0,92.0,60.0,0.0,0.0
2257,56.0,96.0,150.0,0.0,0.0
2258,75.0,4.0,60.0,0.0,0.0
2259,78.0,176.0,60.0,0.0,0.0
2260,49.0,260.0,240.0,0.0,0.0
2261,66.0,16.0,40.0,0.0,0.0
2262,56.0,12.0,570.0,0.0,0.0
2263,82.0,112.0,240.0,0.0,0.0
2264,78.0,12.0,240.0,0.0,0.0
2265,70.0,196.0,330.0,0.0,0.0
2266,60.0,16.0,240.0,0.0,0.0
2267,75.0,460.0,150.0,0.0,0.0
2268,72.0,52.0,90.0,0.0,0.0
2269,66.0,24.0,40.0,0.0,0.0
2270,77.0,132.0,390.0,0.0,0.0
2271,49.0,20.0,330.0,0.0,0.0
2272,73.0,32.0,330.0,0.0,0.0
2273,65.0,0.0,330.0,0.0,0.0
2274,56.0,392.0,270.0,0.0,0.0
2275,49.0,56.0,480.0,0.0,0.0
2276,80.0,28.0,1290.0,0.0,0.0
2277,77.0,20.0,1320.0,0.0,0.0
2278,56.0,192.0,300.0,0.0,0.0
2279,68.0,32.0,1290.0,0.0,0.0
2280,61.0,116.0,240.0,0.0,0.0
2281,65.0,656.0,90.0,0.0,0.0
2282,49.0,148.0,480.0,0.0,0.0
2283,56.0,292.0,240.0,0.0,0.0
2284,49.0,24.0,300.0,0.0,0.0
2285,79.0,16.0,300.0,0.0,0.0
2286,76.0,8.0,300.0,0.0,0.0
2287,67.0,244.0,300.0,0.0,0.0
2288,56.0,4.0,60.0,0.0,0.0
2289,75.0,24.0,180.0,0.0,0.0
2290,78.0,52.0,180.0,0.0,0.0
2291,60.0,28.0,240.0,0.0,0.0
2292,66.0,44.0,120.0,0.0,0.0
2293,72.0,24.0,60.0,0.0,0.0
2294,76.0,4.0,90.0,0.0,0.0
2295,66.0,124.0,60.0,0.0,0.0
2296,73.0,156.0,40.0,0.0,0.0
2297,73.0,28.0,120.0,0.0,0.0
2298,49.0,20.0,300.0,0.0,0.0
2299,77.0,136.0,150.0,0.0,0.0
2300,65.0,12.0,150.0,0.0,0.0
2301,80.0,144.0,60.0,0.0,0.0
2302,68.0,8.0,40.0,0.0,0.0
2303,56.0,116.0,210.0,0.0,0.0
2304,77.0,4.0,60.0,0.0,0.0
2305,49.0,36.0,570.0,0.0,0.0
2306,85.0,20.0,120.0,0.0,0.0
2307,77.0,380.0,150.0,0.0,0.0
2308,73.0,40.0,90.0,0.0,0.0
2309,56.0,4.0,330.0,0.0,0.0
2310,85.0,44.0,330.0,0.0,0.0
2311,73.0,44.0,360.0,0.0,0.0
2312,80.0,220.0,390.0,0.0,0.0
2313,61.0,16.0,60.0,0.0,0.0
2314,80.0,12.0,90.0,0.0,0.0
2315,84.0,380.0,90.0,0.0,0.0
2316,65.0,28.0,40.0,0.0,0.0
2317,72.0,8.0,90.0,0.0,0.0
2318,84.0,76.0,150.0,0.0,0.0
2319,80.0,24.0,120.0,0.0,0.0
2320,72.0,152.0,210.0,0.0,0.0
2321,44.0,52.0,330.0,0.0,0.0
2322,82.0,16.0,90.0,0.0,0.0
2323,51.0,8.0,120.0,0.0,0.0
2324,78.0,16.0,90.0,0.0,0.0
2325,70.0,180.0,90.0,0.0,0.0
2326,80.0,16.0,90.0,0.0,0.0
2327,77.0,12.0,90.0,0.0,0.0
2328,68.0,20.0,40.0,0.0,0.0
2329,60.0,388.0,90.0,0.0,0.0
2330,51.0,28.0,270.0,0.0,0.0
2331,82.0,4.0,300.0,0.0,0.0
2332,78.0,16.0,270.0,0.0,0.0
2333,70.0,276.0,330.0,0.0,0.0
2334,56.0,24.0,60.0,0.0,0.0
2335,75.0,20.0,90.0,0.0,0.0
2336,72.0,632.0,120.0,0.0,0.0
2337,66.0,4.0,60.0,0.0,0.0
2338,60.0,8.0,60.0,0.0,0.0
2339,49.0,68.0,450.0,0.0,0.0
2340,77.0,60.0,540.0,0.0,0.0
2341,73.0,12.0,510.0,0.0,0.0
2342,65.0,60.0,570.0,0.0,0.0
2343,56.0,476.0,330.0,0.0,0.0
2344,49.0,504.0,750.0,0.0,0.0
2345,77.0,12.0,1050.0,0.0,0.0
2346,68.0,16.0,1080.0,0.0,0.0
2347,56.0,48.0,510.0,0.0,0.0
2348,65.0,80.0,360.0,0.0,0.0
2349,59.0,36.0,240.0,0.0,0.0
2350,65.0,248.0,570.0,0.0,0.0
2351,36.0,36.0,480.0,0.0,0.0
2352,76.0,704.0,90.0,0.0,0.0
2353,67.0,4.0,60.0,0.0,0.0
2354,48.0,12.0,60.0,0.0,0.0
2355,64.0,0.0,60.0,0.0,0.0
2356,80.0,36.0,450.0,0.0,0.0
2357,72.0,40.0,480.0,0.0,0.0
2358,58.0,4.0,510.0,0.0,0.0
2359,68.0,24.0,450.0,0.0,0.0
2360,60.0,20.0,240.0,0.0,0.0
2361,64.0,220.0,60.0,0.0,0.0
2362,79.0,4.0,60.0,0.0,0.0
2363,48.0,100.0,360.0,0.0,0.0
2364,67.0,288.0,60.0,0.0,0.0
2365,70.0,8.0,40.0,0.0,0.0
2366,77.0,164.0,180.0,0.0,0.0
2367,41.0,44.0,330.0,0.0,0.0
2368,65.0,16.0,150.0,0.0,0.0
2369,68.0,4.0,150.0,0.0,0.0
2370,48.0,152.0,150.0,0.0,0.0
2371,79.0,60.0,90.0,0.0,0.0
2372,67.0,32.0,60.0,0.0,0.0
2373,70.0,24.0,40.0,0.0,0.0
2374,80.0,444.0,240.0,0.0,0.0
2375,72.0,20.0,210.0,0.0,0.0
2376,60.0,144.0,60.0,0.0,0.0
2377,68.0,0.0,210.0,0.0,0.0
2378,80.0,48.0,1140.0,0.0,0.0
2379,40.0,152.0,330.0,0.0,0.0
2380,74.0,332.0,780.0,0.0,0.0
2381,68.0,140.0,1170.0,0.0,0.0
2382,46.0,144.0,150.0,0.0,0.0
2383,58.0,152.0,60.0,0.0,0.0
2384,39.0,72.0,450.0,0.0,0.0
2385,75.0,160.0,600.0,0.0,0.0
2386,79.0,16.0,150.0,0.0,0.0
2387,67.0,20.0,150.0,0.0,0.0
2388,51.0,68.0,60.0,0.0,0.0
2389,80.0,0.0,90.0,0.0,0.0
2390,72.0,232.0,90.0,0.0,0.0
2391,68.0,24.0,40.0,0.0,0.0
2392,58.0,8.0,300.0,0.0,0.0
2393,82.0,144.0,120.0,0.0,0.0
2394,73.0,0.0,90.0,0.0,0.0
2395,70.0,32.0,90.0,0.0,0.0
2396,61.0,0.0,60.0,0.0,0.0
2397,72.0,44.0,60.0,0.0,0.0
2398,84.0,220.0,90.0,0.0,0.0
2399,67.0,4.0,40.0,0.0,0.0
2400,85.0,56.0,390.0,0.0,0.0
2401,77.0,36.0,510.0,0.0,0.0
2402,73.0,60.0,450.0,0.0,0.0
2403,51.0,308.0,60.0,0.0,0.0
2404,82.0,16.0,270.0,0.0,0.0
2405,44.0,40.0,270.0,0.0,0.0
2406,51.0,24.0,60.0,0.0,0.0
2407,80.0,16.0,90.0,0.0,0.0
2408,84.0,168.0,90.0,0.0,0.0
2409,72.0,8.0,40.0,0.0,0.0
2410,85.0,0.0,60.0,0.0,0.0
2411,63.0,252.0,60.0,0.0,0.0
2412,82.0,4.0,60.0,0.0,0.0
2413,73.0,0.0,40.0,0.0,0.0
2414,80.0,20.0,90.0,0.0,0.0
2415,46.0,84.0,210.0,0.0,0.0
2416,84.0,28.0,120.0,0.0,0.0
2417,72.0,76.0,150.0,0.0,0.0
2418,82.0,192.0,90.0,0.0,0.0
2419,78.0,0.0,60.0,0.0,0.0
2420,54.0,20.0,270.0,0.0,0.0
2421,70.0,28.0,60.0,0.0,0.0
2422,84.0,16.0,90.0,0.0,0.0
2423,72.0,36.0,90.0,0.0,0.0
2424,80.0,16.0,60.0,0.0,0.0
2425,61.0,256.0,120.0,0.0,0.0
2426,48.0,36.0,330.0,0.0,0.0
2427,82.0,32.0,150.0,0.0,0.0
2428,78.0,12.0,120.0,0.0,0.0
2429,70.0,136.0,150.0,0.0,0.0
2430,80.0,4.0,60.0,0.0,0.0
2431,77.0,168.0,60.0,0.0,0.0
2432,56.0,136.0,210.0,0.0,0.0
2433,48.0,100.0,810.0,0.0,0.0
2434,79.0,20.0,180.0,0.0,0.0
2435,67.0,336.0,180.0,0.0,0.0
2436,76.0,36.0,120.0,0.0,0.0
2437,75.0,140.0,690.0,0.0,0.0
2438,78.0,92.0,840.0,0.0,0.0
2439,66.0,256.0,210.0,0.0,0.0
2440,56.0,104.0,570.0,0.0,0.0
2441,68.0,16.0,450.0,0.0,0.0
2442,76.0,20.0,210.0,0.0,0.0
2443,72.0,240.0,210.0,0.0,0.0
2444,56.0,272.0,420.0,0.0,0.0
2445,49.0,192.0,480.0,0.0,0.0
2446,77.0,64.0,360.0,0.0,0.0
2447,73.0,24.0,300.0,0.0,0.0
2448,65.0,24.0,270.0,0.0,0.0
2449,56.0,12.0,270.0,0.0,0.0
2450,80.0,376.0,90.0,0.0,0.0
2451,77.0,12.0,60.0,0.0,0.0
2452,49.0,24.0,450.0,0.0,0.0
2453,68.0,8.0,30.0,0.0,0.0
2454,56.0,76.0,270.0,0.0,0.0
2455,85.0,12.0,210.0,0.0,0.0
2456,77.0,196.0,330.0,0.0,0.0
2457,73.0,36.0,210.0,0.0,0.0
2458,61.0,12.0,60.0,0.0,0.0
2459,65.0,16.0,60.0,0.0,0.0
2460,84.0,196.0,120.0,0.0,0.0
2461,72.0,12.0,60.0,0.0,0.0
2462,80.0,36.0,60.0,0.0,0.0
2463,49.0,32.0,300.0,0.0,0.0
2464,84.0,32.0,90.0,0.0,0.0
2465,80.0,24.0,60.0,0.0,0.0
2466,72.0,168.0,120.0,0.0,0.0
2467,82.0,152.0,90.0,0.0,0.0
2468,78.0,32.0,40.0,0.0,0.0
2469,70.0,8.0,60.0,0.0,0.0
2470,56.0,48.0,240.0,0.0,0.0
2471,77.0,324.0,90.0,0.0,0.0
2472,68.0,24.0,60.0,0.0,0.0
2473,80.0,12.0,90.0,0.0,0.0
2474,49.0,48.0,420.0,0.0,0.0
2475,82.0,96.0,240.0,0.0,0.0
2476,70.0,212.0,330.0,0.0,0.0
2477,78.0,12.0,210.0,0.0,0.0
2478,56.0,56.0,150.0,0.0,0.0
2479,60.0,124.0,240.0,0.0,0.0
2480,75.0,684.0,90.0,0.0,0.0
2481,72.0,0.0,90.0,0.0,0.0
2482,66.0,8.0,60.0,0.0,0.0
2483,49.0,20.0,420.0,0.0,0.0
2484,77.0,176.0,480.0,0.0,0.0
2485,65.0,16.0,420.0,0.0,0.0
2486,73.0,20.0,420.0,0.0,0.0
2487,56.0,132.0,300.0,0.0,0.0
2488,49.0,56.0,930.0,0.0,0.0
2489,68.0,116.0,60.0,0.0,0.0
2490,80.0,8.0,60.0,0.0,0.0
2491,77.0,216.0,60.0,0.0,0.0
2492,80.0,432.0,120.0,0.0,0.0
2493,56.0,84.0,480.0,0.0,0.0
2494,92.0,36.0,1080.0,0.0,0.0
2495,89.0,300.0,1110.0,0.0,0.0
2496,61.0,196.0,90.0,0.0,0.0
2497,65.0,392.0,40.0,0.0,0.0
2498,49.0,68.0,480.0,0.0,0.0
2499,91.0,124.0,120.0,0.0,0.0
2500,56.0,292.0,240.0,0.0,0.0
2501,79.0,16.0,90.0,0.0,0.0
2502,88.0,20.0,90.0,0.0,0.0
2503,49.0,32.0,300.0,0.0,0.0
2504,78.0,4.0,60.0,0.0,0.0
2505,87.0,108.0,90.0,0.0,0.0
2506,90.0,8.0,60.0,0.0,0.0
2507,90.0,332.0,120.0,0.0,0.0
2508,87.0,12.0,90.0,0.0,0.0
2509,78.0,8.0,60.0,0.0,0.0
2510,56.0,4.0,90.0,0.0,0.0
2511,89.0,184.0,120.0,0.0,0.0
2512,60.0,72.0,300.0,0.0,0.0
2513,85.0,24.0,90.0,0.0,0.0
2514,77.0,12.0,90.0,0.0,0.0
2515,88.0,16.0,90.0,0.0,0.0
2516,84.0,424.0,120.0,0.0,0.0
2517,66.0,0.0,60.0,0.0,0.0
2518,76.0,24.0,40.0,0.0,0.0
2519,49.0,44.0,480.0,0.0,0.0
2520,77.0,20.0,150.0,0.0,0.0
2521,89.0,280.0,180.0,0.0,0.0
2522,85.0,8.0,150.0,0.0,0.0
2523,92.0,4.0,150.0,0.0,0.0
2524,89.0,368.0,150.0,0.0,0.0
2525,80.0,32.0,90.0,0.0,0.0
2526,56.0,36.0,90.0,0.0,0.0
2527,65.0,288.0,60.0,0.0,0.0
2528,97.0,348.0,120.0,0.0,0.0
2529,85.0,8.0,90.0,0.0,0.0
2530,89.0,16.0,90.0,0.0,0.0
2531,97.0,56.0,690.0,0.0,0.0
2532,77.0,556.0,90.0,0.0,0.0
2533,89.0,1072.0,720.0,0.0,0.0
2534,85.0,20.0,630.0,0.0,0.0
2535,68.0,12.0,40.0,0.0,0.0
2536,68.0,328.0,600.0,0.0,0.0
2537,68.0,128.0,270.0,0.0,0.0
2538,70.0,140.0,120.0,0.0,0.0
2539,68.0,84.0,120.0,0.0,0.0
2540,70.0,108.0,90.0,0.0,0.0
2541,68.0,76.0,90.0,0.0,0.0
2542,70.0,88.0,90.0,0.0,0.0
2543,68.0,64.0,60.0,0.0,0.0
2544,70.0,84.0,60.0,0.0,0.0
2545,68.0,64.0,90.0,0.0,0.0
2546,70.0,88.0,60.0,0.0,0.0
2547,68.0,52.0,90.0,0.0,0.0
2548,70.0,84.0,60.0,0.0,0.0
2549,68.0,60.0,60.0,0.0,0.0
2550,70.0,80.0,60.0,0.0,0.0
2551,68.0,48.0,90.0,0.0,0.0
2552,70.0,72.0,60.0,0.0,0.0
2553,68.0,40.0,60.0,0.0,0.0
2554,70.0,76.0,60.0,0.0,0.0
2555,68.0,40.0,60.0,0.0,0.0
2556,70.0,76.0,60.0,0.0,0.0
2557,68.0,32.0,60.0,0.0,0.0
2558,70.0,76.0,60.0,0.0,0.0
2559,68.0,36.0,60.0,0.0,0.0
2560,70.0,72.0,60.0,0.0,0.0
2561,68.0,40.0,60.0,0.0,0.0
2562,70.0,72.0,60.0,0.0,0.0
2563,68.0,56.0,60.0,0.0,0.0
2564,70.0,72.0,60.0,0.0,0.0
2565,68.0,40.0,60.0,0.0,0.0
2566,70.0,68.0,60.0,0.0,0.0
2567,68.0,40.0,60.0,0.0,0.0
2568,70.0,64.0,60.0,0.0,0.0
2569,68.0,44.0,60.0,0.0,0.0
2570,70.0,64.0,60.0,0.0,0.0
2571,68.0,40.0,60.0,0.0,0.0
2572,70.0,68.0,60.0,0.0,0.0
2573,68.0,48.0,60.0,0.0,0.0
2574,70.0,60.0,60.0,0.0,0.0
2575,68.0,44.0,60.0,0.0,0.0
2576,70.0,64.0,60.0,0.0,0.0
2577,68.0,44.0,60.0,0.0,0.0
2578,70.0,64.0,60.0,0.0,0.0
2579,68.0,44.0,60.0,0.0,0.0
2580,70.0,60.0,60.0,0.0,0.0
2581,68.0,48.0,60.0,0.0,0.0
2582,70.0,120.0,60.0,0.0,0.0
2583,68.0,92.0,180.0,0.0,0.0
2584,70.0,68.0,60.0,0.0,0.0
2585,70.0,120.0,90.0,0.0,0.0
2586,68.0,172.0,150.0,0.0,0.0
2587,67.0,144.0,180.0,0.0,0.0
2588,68.0,132.0,180.0,0.0,0.0
2589,72.0,216.0,150.0,0.0,0.0
2590,71.0,392.0,240.0,0.0,0.0
2591,70.0,584.0,450.0,0.0,0.0
2592,65.0,304.0,270.0,0.0,0.0
2593,56.0,64.0,150.0,0.0,0.0
2594,62.0,72.0,210.0,0.0,0.0
2595,44.0,12.0,90.0,0.0,0.0
2596,56.0,352.0,270.0,0.0,0.0
2597,66.0,16.0,240.0,0.0,0.0
2598,44.0,4.0,270.0,0.0,0.0
2599,63.0,52.0,180.0,0.0,0.0
2600,66.0,456.0,150.0,0.0,0.0
2601,61.0,20.0,90.0,0.0,0.0
2602,56.0,16.0,90.0,0.0,0.0
2603,44.0,24.0,120.0,0.0,0.0
2604,66.0,44.0,300.0,0.0,0.0
2605,44.0,12.0,330.0,0.0,0.0
2606,56.0,16.0,270.0,0.0,0.0
2607,60.0,480.0,330.0,0.0,0.0
2608,69.0,40.0,660.0,0.0,0.0
2609,44.0,52.0,210.0,0.0,0.0
2610,60.0,12.0,270.0,0.0,0.0
2611,66.0,368.0,270.0,0.0,0.0
2612,32.0,12.0,180.0,0.0,0.0
2613,44.0,20.0,390.0,0.0,0.0
2614,66.0,8.0,360.0,0.0,0.0
2615,32.0,12.0,360.0,0.0,0.0
2616,61.0,56.0,270.0,0.0,0.0
2617,71.0,184.0,120.0,0.0,0.0
2618,69.0,48.0,270.0,0.0,0.0
2619,68.0,252.0,360.0,0.0,0.0
2620,66.0,20.0,90.0,0.0,0.0
2621,44.0,204.0,120.0,0.0,0.0
2622,63.0,16.0,90.0,0.0,0.0
2623,32.0,12.0,90.0,0.0,0.0
2624,32.0,36.0,300.0,0.0,0.0
2625,65.0,472.0,420.0,0.0,0.0
2626,44.0,60.0,330.0,0.0,0.0
2627,71.0,32.0,390.0,0.0,0.0
2628,62.0,4.0,360.0,0.0,0.0
2629,44.0,32.0,210.0,0.0,0.0
2630,56.0,48.0,240.0,0.0,0.0
2631,70.0,104.0,1680.0,0.0,0.0
2632,62.0,48.0,270.0,0.0,0.0
2633,65.0,412.0,300.0,0.0,0.0
2634,56.0,312.0,390.0,0.0,0.0
2635,66.0,16.0,390.0,0.0,0.0
2636,63.0,12.0,360.0,0.0,0.0
2637,44.0,8.0,390.0,0.0,0.0
2638,66.0,16.0,150.0,0.0,0.0
2639,56.0,8.0,120.0,0.0,0.0
2640,61.0,292.0,150.0,0.0,0.0
2641,44.0,28.0,120.0,0.0,0.0
2642,44.0,44.0,300.0,0.0,0.0
2643,56.0,80.0,210.0,0.0,0.0
2644,66.0,52.0,330.0,0.0,0.0
2645,61.0,64.0,150.0,0.0,0.0
2646,75.0,476.0,90.0,0.0,0.0
2647,44.0,4.0,210.0,0.0,0.0
2648,69.0,52.0,570.0,0.0,0.0
2649,66.0,340.0,210.0,0.0,0.0
2650,32.0,40.0,180.0,0.0,0.0
2651,60.0,0.0,210.0,0.0,0.0
2652,44.0,8.0,480.0,0.0,0.0
2653,66.0,52.0,330.0,0.0,0.0
2654,61.0,40.0,300.0,0.0,0.0
2655,32.0,128.0,480.0,0.0,0.0
2656,71.0,84.0,90.0,0.0,0.0
2657,69.0,152.0,300.0,0.0,0.0
2658,68.0,324.0,390.0,0.0,0.0
2659,66.0,40.0,180.0,0.0,0.0
2660,44.0,8.0,270.0,0.0,0.0
2661,63.0,72.0,180.0,0.0,0.0
2662,32.0,108.0,270.0,0.0,0.0
2663,65.0,8.0,450.0,0.0,0.0
2664,71.0,444.0,450.0,0.0,0.0
2665,44.0,40.0,390.0,0.0,0.0
2666,32.0,60.0,300.0,0.0,0.0
2667,62.0,28.0,390.0,0.0,0.0
2668,44.0,24.0,180.0,0.0,0.0
2669,70.0,32.0,1470.0,0.0,0.0
2670,56.0,528.0,210.0,0.0,0.0
2671,62.0,4.0,210.0,0.0,0.0
2672,65.0,8.0,150.0,0.0,0.0
2673,66.0,20.0,390.0,0.0,0.0
2674,56.0,228.0,450.0,0.0,0.0
2675,63.0,20.0,390.0,0.0,0.0
2676,44.0,16.0,390.0,0.0,0.0
2677,66.0,416.0,150.0,0.0,0.0
2678,56.0,4.0,120.0,0.0,0.0
2679,61.0,12.0,120.0,0.0,0.0
2680,44.0,20.0,90.0,0.0,0.0
2681,66.0,344.0,330.0,0.0,0.0
2682,56.0,8.0,300.0,0.0,0.0
2683,60.0,0.0,300.0,0.0,0.0
2684,44.0,24.0,270.0,0.0,0.0
2685,69.0,484.0,150.0,0.0,0.0
2686,66.0,8.0,90.0,0.0,0.0
2687,44.0,8.0,90.0,0.0,0.0
2688,56.0,0.0,90.0,0.0,0.0
2689,60.0,20.0,90.0,0.0,0.0
2690,69.0,364.0,360.0,0.0,0.0
2691,56.0,24.0,330.0,0.0,0.0
2692,60.0,0.0,300.0,0.0,0.0
2693,44.0,12.0,330.0,0.0,0.0
2694,66.0,4.0,300.0,0.0,0.0
2695,69.0,612.0,180.0,0.0,0.0
2696,56.0,0.0,120.0,0.0,0.0
2697,66.0,20.0,90.0,0.0,0.0
2698,44.0,36.0,120.0,0.0,0.0
2699,60.0,8.0,90.0,0.0,0.0
2700,69.0,476.0,2310.0,0.0,0.0
2701,60.0,16.0,390.0,0.0,0.0
2702,44.0,16.0,390.0,0.0,0.0
2703,56.0,380.0,420.0,0.0,0.0
2704,66.0,12.0,360.0,0.0,0.0
2705,64.0,8.0,150.0,0.0,0.0
2706,61.0,516.0,150.0,0.0,0.0
2707,56.0,8.0,120.0,0.0,0.0
2708,44.0,0.0,120.0,0.0,0.0
2709,56.0,12.0,360.0,0.0,0.0
2710,61.0,4.0,330.0,0.0,0.0
2711,64.0,16.0,330.0,0.0,0.0
2712,44.0,348.0,360.0,0.0,0.0
2713,64.0,4.0,180.0,0.0,0.0
2714,54.0,8.0,150.0,0.0,0.0
2715,61.0,480.0,180.0,0.0,0.0
2716,42.0,20.0,150.0,0.0,0.0
2717,64.0,8.0,390.0,0.0,0.0
2718,61.0,36.0,330.0,0.0,0.0
2719,54.0,8.0,360.0,0.0,0.0
2720,42.0,24.0,330.0,0.0,0.0
2721,69.0,4.0,690.0,0.0,0.0
2722,42.0,64.0,150.0,0.0,0.0
2723,54.0,8.0,120.0,0.0,0.0
2724,60.0,452.0,150.0,0.0,0.0
2725,64.0,8.0,120.0,0.0,0.0
2726,60.0,36.0,390.0,0.0,0.0
2727,64.0,24.0,330.0,0.0,0.0
2728,42.0,12.0,360.0,0.0,0.0
2729,54.0,396.0,390.0,0.0,0.0
2730,69.0,548.0,900.0,0.0,0.0
2731,54.0,16.0,210.0,0.0,0.0
2732,42.0,20.0,210.0,0.0,0.0
2733,60.0,484.0,240.0,0.0,0.0
2734,63.0,4.0,210.0,0.0,0.0
2735,63.0,4.0,510.0,0.0,0.0
2736,60.0,16.0,450.0,0.0,0.0
2737,54.0,80.0,360.0,0.0,0.0
2738,42.0,40.0,450.0,0.0,0.0
2739,69.0,88.0,210.0,0.0,0.0
2740,53.0,20.0,210.0,0.0,0.0
2741,63.0,280.0,390.0,0.0,0.0
2742,41.0,60.0,330.0,0.0,0.0
2743,60.0,40.0,270.0,0.0,0.0
2744,61.0,8.0,360.0,0.0,0.0
2745,46.0,56.0,360.0,0.0,0.0
2746,53.0,552.0,420.0,0.0,0.0
2747,70.0,32.0,330.0,0.0,0.0
2748,58.0,100.0,330.0,0.0,0.0
2749,48.0,456.0,420.0,0.0,0.0
2750,64.0,24.0,300.0,0.0,0.0
2751,41.0,64.0,450.0,0.0,0.0
2752,53.0,4.0,480.0,0.0,0.0
2753,65.0,740.0,480.0,0.0,0.0
2754,57.0,4.0,390.0,0.0,0.0
2755,72.0,8.0,300.0,0.0,0.0
2756,65.0,144.0,270.0,0.0,0.0
2757,60.0,8.0,240.0,0.0,0.0
2758,57.0,216.0,390.0,0.0,0.0
2759,71.0,24.0,270.0,0.0,0.0
2760,56.0,408.0,330.0,0.0,0.0
2761,62.0,8.0,330.0,0.0,0.0
2762,65.0,28.0,300.0,0.0,0.0
2763,55.0,408.0,210.0,0.0,0.0
2764,70.0,16.0,180.0,0.0,0.0
2765,64.0,24.0,150.0,0.0,0.0
2766,60.0,4.0,180.0,0.0,0.0
2767,69.0,28.0,270.0,0.0,0.0
2768,53.0,584.0,300.0,0.0,0.0
2769,65.0,12.0,300.0,0.0,0.0
2770,60.0,4.0,240.0,0.0,0.0
2771,57.0,456.0,300.0,0.0,0.0
2772,72.0,96.0,210.0,0.0,0.0
2773,65.0,0.0,180.0,0.0,0.0
2774,60.0,4.0,180.0,0.0,0.0
2775,65.0,32.0,360.0,0.0,0.0
2776,71.0,88.0,390.0,0.0,0.0
2777,61.0,0.0,390.0,0.0,0.0
2778,56.0,500.0,450.0,0.0,0.0
2779,54.0,28.0,210.0,0.0,0.0
2780,70.0,0.0,270.0,0.0,0.0
2781,66.0,32.0,210.0,0.0,0.0
2782,61.0,584.0,240.0,0.0,0.0
2783,69.0,12.0,480.0,0.0,0.0
2784,67.0,588.0,480.0,0.0,0.0
2785,52.0,28.0,450.0,0.0,0.0
2786,61.0,36.0,390.0,0.0,0.0
2787,60.0,60.0,210.0,0.0,0.0
2788,51.0,8.0,180.0,0.0,0.0
2789,66.0,0.0,210.0,0.0,0.0
2790,69.0,668.0,240.0,0.0,0.0
2791,70.0,64.0,450.0,0.0,0.0
2792,65.0,24.0,480.0,0.0,0.0
2793,58.0,52.0,510.0,0.0,0.0
2794,49.0,980.0,540.0,0.0,0.0
2795,48.0,4.0,450.0,0.0,0.0
2796,64.0,56.0,390.0,0.0,0.0
2797,58.0,848.0,420.0,0.0,0.0
2798,41.0,136.0,600.0,0.0,0.0
2799,65.0,124.0,810.0,0.0,0.0
2800,57.0,124.0,660.0,0.0,0.0
2801,48.0,172.0,390.0,0.0,0.0
2802,53.0,312.0,300.0,0.0,0.0
2803,57.0,236.0,330.0,0.0,0.0
2804,84.0,504.0,690.0,0.0,0.0
2805,60.0,220.0,240.0,0.0,0.0
2806,65.0,48.0,240.0,0.0,0.0
2807,60.0,20.0,1560.0,0.0,0.0
2808,72.0,112.0,1230.0,0.0,0.0
2809,83.0,112.0,270.0,0.0,0.0
2810,84.0,256.0,150.0,0.0,0.0
2811,93.0,172.0,210.0,0.0,0.0
2812,91.0,116.0,180.0,0.0,0.0
2813,89.0,184.0,120.0,0.0,0.0
2814,81.0,16.0,180.0,0.0,0.0
2815,82.0,104.0,180.0,0.0,0.0
2816,84.0,128.0,150.0,0.0,0.0
2817,88.0,280.0,150.0,0.0,0.0
2818,86.0,468.0,300.0,0.0,0.0
2819,41.0,8.0,570.0,0.0,0.0
2820,84.0,148.0,510.0,0.0,0.0
2821,48.0,172.0,300.0,0.0,0.0
2822,82.0,0.0,420.0,0.0,0.0
2823,58.0,52.0,150.0,0.0,0.0
2824,81.0,280.0,60.0,0.0,0.0
2825,60.0,112.0,210.0,0.0,0.0
2826,81.0,64.0,330.0,0.0,0.0
2827,64.0,208.0,180.0,0.0,0.0
2828,79.0,100.0,300.0,0.0,0.0
2829,60.0,64.0,270.0,0.0,0.0
2830,81.0,100.0,360.0,0.0,0.0
2831,64.0,152.0,90.0,0.0,0.0
2832,70.0,240.0,120.0,0.0,0.0
2833,79.0,216.0,360.0,0.0,0.0
2834,77.0,136.0,270.0,0.0,0.0
2835,76.0,328.0,60.0,0.0,0.0
2836,76.0,224.0,270.0,0.0,0.0
2837,74.0,336.0,270.0,0.0,0.0
2838,76.0,364.0,360.0,0.0,0.0
2839,41.0,212.0,510.0,0.0,0.0
2840,74.0,184.0,750.0,0.0,0.0
2841,48.0,140.0,270.0,0.0,0.0
2842,57.0,36.0,300.0,0.0,0.0
2843,72.0,220.0,300.0,0.0,0.0
2844,60.0,68.0,630.0,0.0,0.0
2845,71.0,164.0,210.0,0.0,0.0
2846,72.0,108.0,210.0,0.0,0.0
2847,65.0,4.0,270.0,0.0,0.0
2848,74.0,96.0,120.0,0.0,0.0
2849,69.0,104.0,210.0,0.0,0.0
2850,76.0,40.0,150.0,0.0,0.0
2851,77.0,20.0,150.0,0.0,0.0
2852,65.0,68.0,150.0,0.0,0.0
2853,79.0,4.0,120.0,0.0,0.0
2854,60.0,80.0,90.0,0.0,0.0
2855,81.0,128.0,150.0,0.0,0.0
2856,72.0,68.0,60.0,0.0,0.0
2857,82.0,108.0,150.0,0.0,0.0
2858,84.0,44.0,150.0,0.0,0.0
2859,86.0,144.0,90.0,0.0,0.0
2860,88.0,120.0,120.0,0.0,0.0
2861,89.0,64.0,120.0,0.0,0.0
2862,91.0,176.0,90.0,0.0,0.0
2863,93.0,152.0,150.0,0.0,0.0
2864,94.0,44.0,150.0,0.0,0.0
2865,96.0,260.0,60.0,0.0,0.0
2866,105.0,236.0,150.0,0.0,0.0
2867,103.0,184.0,240.0,0.0,0.0
2868,101.0,112.0,240.0,0.0,0.0
2869,41.0,80.0,390.0,0.0,0.0
2870,98.0,40.0,150.0,0.0,0.0
2871,94.0,24.0,120.0,0.0,0.0
2872,48.0,112.0,120.0,0.0,0.0
2873,96.0,100.0,120.0,0.0,0.0
2874,58.0,32.0,90.0,0.0,0.0
2875,100.0,104.0,90.0,0.0,0.0
2876,98.0,124.0,90.0,0.0,0.0
2877,60.0,56.0,240.0,0.0,0.0
2878,94.0,120.0,60.0,0.0,0.0
2879,91.0,52.0,90.0,0.0,0.0
2880,86.0,60.0,60.0,0.0,0.0
2881,64.0,92.0,120.0,0.0,0.0
2882,88.0,88.0,120.0,0.0,0.0
2883,93.0,112.0,90.0,0.0,0.0
2884,60.0,152.0,870.0,0.0,0.0
2885,91.0,252.0,90.0,0.0,0.0
2886,70.0,96.0,540.0,0.0,0.0
2887,89.0,100.0,150.0,0.0,0.0
2888,86.0,104.0,90.0,0.0,0.0
2889,82.0,112.0,90.0,0.0,0.0
2890,84.0,40.0,90.0,0.0,0.0
2891,88.0,0.0,120.0,0.0,0.0
2892,86.0,88.0,150.0,0.0,0.0
2893,82.0,184.0,90.0,0.0,0.0
2894,79.0,84.0,150.0,0.0,0.0
2895,74.0,232.0,90.0,0.0,0.0
2896,76.0,140.0,180.0,0.0,0.0
2897,81.0,176.0,150.0,0.0,0.0
2898,79.0,248.0,180.0,0.0,0.0
2899,76.0,136.0,240.0,0.0,0.0
2900,41.0,120.0,420.0,0.0,0.0
2901,77.0,32.0,150.0,0.0,0.0
2902,79.0,92.0,150.0,0.0,0.0
2903,48.0,12.0,240.0,0.0,0.0
2904,77.0,76.0,90.0,0.0,0.0
2905,79.0,44.0,60.0,0.0,0.0
2906,57.0,32.0,60.0,0.0,0.0
2907,77.0,40.0,60.0,0.0,0.0
2908,79.0,72.0,60.0,0.0,0.0
2909,77.0,32.0,60.0,0.0,0.0
2910,79.0,68.0,60.0,0.0,0.0
2911,77.0,32.0,60.0,0.0,0.0
2912,79.0,60.0,60.0,0.0,0.0
2913,60.0,112.0,630.0,0.0,0.0
2914,77.0,52.0,60.0,0.0,0.0
2915,79.0,56.0,60.0,0.0,0.0
2916,77.0,60.0,60.0,0.0,0.0
2917,79.0,96.0,60.0,0.0,0.0
2918,77.0,136.0,90.0,0.0,0.0
2919,69.0,76.0,270.0,0.0,0.0
2920,76.0,32.0,150.0,0.0,0.0
2921,77.0,24.0,150.0,0.0,0.0
2922,81.0,188.0,150.0,0.0,0.0
2923,79.0,192.0,210.0,0.0,0.0
2924,43.0,100.0,390.0,0.0,0.0
2925,76.0,52.0,210.0,0.0,0.0
2926,77.0,136.0,60.0,0.0,0.0
2927,46.0,72.0,270.0,0.0,0.0
2928,69.0,92.0,120.0,0.0,0.0
2929,70.0,68.0,60.0,0.0,0.0
2930,58.0,64.0,60.0,0.0,0.0
2931,64.0,52.0,120.0,0.0,0.0
2932,65.0,180.0,60.0,0.0,0.0
2933,55.0,44.0,120.0,0.0,0.0
2934,69.0,16.0,90.0,0.0,0.0
2935,70.0,160.0,60.0,0.0,0.0
2936,58.0,28.0,150.0,0.0,0.0
2937,76.0,104.0,150.0,0.0,0.0
2938,70.0,56.0,60.0,0.0,0.0
2939,77.0,156.0,150.0,0.0,0.0
2940,81.0,108.0,150.0,0.0,0.0
2941,79.0,92.0,150.0,0.0,0.0
2942,44.0,36.0,90.0,0.0,0.0
2943,76.0,72.0,90.0,0.0,0.0
2944,77.0,224.0,60.0,0.0,0.0
2945,53.0,68.0,270.0,0.0,0.0
2946,70.0,60.0,120.0,0.0,0.0
2947,71.0,96.0,60.0,0.0,0.0
2948,59.0,60.0,90.0,0.0,0.0
2949,64.0,56.0,120.0,0.0,0.0
2950,65.0,204.0,90.0,0.0,0.0
2951,70.0,72.0,150.0,0.0,0.0
2952,56.0,24.0,90.0,0.0,0.0
2953,71.0,160.0,90.0,0.0,0.0
2954,62.0,128.0,60.0,0.0,0.0
2955,71.0,16.0,40.0,0.0,0.0
2956,76.0,160.0,180.0,0.0,0.0
2957,77.0,204.0,180.0,0.0,0.0
2958,81.0,84.0,210.0,0.0,0.0
2959,79.0,252.0,120.0,0.0,0.0
2960,76.0,100.0,180.0,0.0,0.0
2961,45.0,8.0,270.0,0.0,0.0
2962,77.0,160.0,120.0,0.0,0.0
2963,81.0,72.0,150.0,0.0,0.0
2964,79.0,176.0,120.0,0.0,0.0
2965,76.0,108.0,180.0,0.0,0.0
2966,53.0,0.0,630.0,0.0,0.0
2967,77.0,104.0,150.0,0.0,0.0
2968,79.0,84.0,120.0,0.0,0.0
2969,77.0,56.0,90.0,0.0,0.0
2970,79.0,100.0,60.0,0.0,0.0
2971,63.0,36.0,180.0,0.0,0.0
2972,77.0,28.0,60.0,0.0,0.0
2973,79.0,40.0,30.0,0.0,0.0
2974,77.0,20.0,60.0,0.0,0.0
2975,79.0,72.0,40.0,0.0,0.0
2976,77.0,28.0,60.0,0.0,0.0
2977,79.0,80.0,40.0,0.0,0.0
2978,77.0,72.0,60.0,0.0,0.0
2979,79.0,28.0,90.0,0.0,0.0
2980,60.0,68.0,90.0,0.0,0.0
2981,77.0,92.0,150.0,0.0,0.0
2982,75.0,20.0,120.0,0.0,0.0
2983,79.0,68.0,120.0,0.0,0.0
2984,77.0,84.0,40.0,0.0,0.0
2985,79.0,52.0,90.0,0.0,0.0
2986,65.0,16.0,60.0,0.0,0.0
2987,77.0,84.0,120.0,0.0,0.0
2988,70.0,40.0,60.0,0.0,0.0
2989,79.0,92.0,90.0,0.0,0.0
2990,77.0,148.0,60.0,0.0,0.0
2991,79.0,88.0,150.0,0.0,0.0
2992,77.0,184.0,240.0,0.0,0.0
2993,72.0,100.0,150.0,0.0,0.0
2994,53.0,68.0,60.0,0.0,0.0
2995,79.0,152.0,210.0,0.0,0.0
2996,77.0,56.0,210.0,0.0,0.0
2997,79.0,412.0,90.0,0.0,0.0
2998,34.0,28.0,270.0,0.0,0.0
2999,46.0,72.0,300.0,0.0,0.0
3000,75.0,8.0,270.0,0.0,0.0
3001,79.0,20.0,240.0,0.0,0.0
3002,77.0,4.0,150.0,0.0,0.0
3003,74.0,104.0,150.0,0.0,0.0
3004,79.0,8.0,120.0,0.0,0.0
3005,75.0,52.0,120.0,0.0,0.0
3006,74.0,116.0,120.0,0.0,0.0
3007,77.0,8.0,90.0,0.0,0.0
3008,53.0,12.0,40.0,0.0,0.0
3009,41.0,16.0,20.0,0.0,0.0
3010,79.0,72.0,150.0,0.0,0.0
3011,75.0,8.0,120.0,0.0,0.0
3012,77.0,12.0,120.0,0.0,0.0
3013,74.0,84.0,120.0,0.0,0.0
3014,75.0,16.0,120.0,0.0,0.0
3015,79.0,4.0,120.0,0.0,0.0
3016,60.0,12.0,40.0,0.0,0.0
3017,48.0,40.0,60.0,0.0,0.0
3018,77.0,8.0,90.0,0.0,0.0
3019,74.0,76.0,90.0,0.0,0.0
3020,75.0,20.0,90.0,0.0,0.0
3021,79.0,48.0,120.0,0.0,0.0
3022,77.0,8.0,90.0,0.0,0.0
3023,74.0,64.0,90.0,0.0,0.0
3024,75.0,0.0,90.0,0.0,0.0
3025,79.0,28.0,90.0,0.0,0.0
3026,58.0,4.0,40.0,0.0,0.0
3027,46.0,44.0,40.0,0.0,0.0
3028,77.0,8.0,90.0,0.0,0.0
3029,74.0,32.0,90.0,0.0,0.0
3030,75.0,48.0,90.0,0.0,0.0
3031,48.0,36.0,40.0,0.0,0.0
3032,60.0,4.0,40.0,0.0,0.0
3033,79.0,12.0,90.0,0.0,0.0
3034,77.0,8.0,60.0,0.0,0.0
3035,74.0,12.0,60.0,0.0,0.0
3036,50.0,44.0,40.0,0.0,0.0
3037,62.0,8.0,30.0,0.0,0.0
3038,75.0,48.0,90.0,0.0,0.0
3039,79.0,12.0,60.0,0.0,0.0
3040,77.0,16.0,60.0,0.0,0.0
3041,74.0,60.0,60.0,0.0,0.0
3042,75.0,40.0,90.0,0.0,0.0
3043,79.0,20.0,60.0,0.0,0.0
3044,74.0,48.0,90.0,0.0,0.0
3045,77.0,4.0,60.0,0.0,0.0
3046,75.0,48.0,60.0,0.0,0.0
3047,53.0,0.0,40.0,0.0,0.0
3048,41.0,12.0,30.0,0.0,0.0
3049,79.0,0.0,60.0,0.0,0.0
3050,74.0,52.0,60.0,0.0,0.0
3051,77.0,24.0,40.0,0.0,0.0
3052,75.0,60.0,60.0,0.0,0.0
3053,79.0,52.0,120.0,0.0,0.0
3054,77.0,24.0,60.0,0.0,0.0
3055,74.0,24.0,60.0,0.0,0.0
3056,75.0,184.0,90.0,0.0,0.0
3057,77.0,28.0,300.0,0.0,0.0
3058,74.0,116.0,330.0,0.0,0.0
3059,46.0,64.0,240.0,0.0,0.0
3060,34.0,32.0,210.0,0.0,0.0
3061,76.0,16.0,90.0,0.0,0.0
3062,53.0,24.0,40.0,0.0,0.0
3063,73.0,232.0,90.0,0.0,0.0
3064,41.0,0.0,40.0,0.0,0.0
3065,77.0,160.0,60.0,0.0,0.0
3066,74.0,0.0,40.0,0.0,0.0
3067,60.0,8.0,40.0,0.0,0.0
3068,48.0,12.0,40.0,0.0,0.0
3069,74.0,44.0,40.0,0.0,0.0
3070,77.0,52.0,90.0,0.0,0.0
3071,81.0,60.0,90.0,0.0,0.0
3072,79.0,108.0,90.0,0.0,0.0
3073,58.0,0.0,40.0,0.0,0.0
3074,46.0,24.0,40.0,0.0,0.0
3075,75.0,8.0,40.0,0.0,0.0
3076,48.0,120.0,40.0,0.0,0.0
3077,60.0,4.0,40.0,0.0,0.0
3078,77.0,236.0,60.0,0.0,0.0
3079,74.0,12.0,30.0,0.0,0.0
3080,50.0,12.0,40.0,0.0,0.0
3081,62.0,4.0,40.0,0.0,0.0
3082,74.0,92.0,390.0,0.0,0.0
3083,70.0,12.0,360.0,0.0,0.0
3084,65.0,32.0,20.0,0.0,0.0
3085,53.0,316.0,60.0,0.0,0.0
3086,34.0,32.0,150.0,0.0,0.0
3087,46.0,160.0,180.0,0.0,0.0
3088,79.0,24.0,360.0,0.0,0.0
3089,82.0,28.0,330.0,0.0,0.0
3090,74.0,4.0,60.0,0.0,0.0
3091,53.0,8.0,40.0,0.0,0.0
3092,70.0,224.0,60.0,0.0,0.0
3093,41.0,20.0,20.0,0.0,0.0
3094,45.0,12.0,40.0,0.0,0.0
3095,79.0,264.0,60.0,0.0,0.0
3096,75.0,8.0,60.0,0.0,0.0
3097,57.0,4.0,30.0,0.0,0.0
3098,77.0,28.0,150.0,0.0,0.0
3099,74.0,32.0,90.0,0.0,0.0
3100,46.0,48.0,40.0,0.0,0.0
3101,58.0,8.0,40.0,0.0,0.0
3102,60.0,12.0,40.0,0.0,0.0
3103,48.0,108.0,40.0,0.0,0.0
3104,62.0,20.0,20.0,0.0,0.0
3105,50.0,8.0,40.0,0.0,0.0
3106,65.0,20.0,40.0,0.0,0.0
3107,70.0,260.0,60.0,0.0,0.0
3108,75.0,112.0,150.0,0.0,0.0
3109,53.0,40.0,90.0,0.0,0.0
3110,41.0,32.0,120.0,0.0,0.0
3111,72.0,228.0,270.0,0.0,0.0
3112,34.0,24.0,180.0,0.0,0.0
3113,46.0,208.0,210.0,0.0,0.0
3114,74.0,4.0,1560.0,0.0,0.0
3115,70.0,12.0,930.0,0.0,0.0
3116,53.0,268.0,40.0,0.0,0.0
3117,41.0,4.0,40.0,0.0,0.0
3118,48.0,268.0,60.0,0.0,0.0
3119,60.0,8.0,40.0,0.0,0.0
3120,68.0,120.0,510.0,0.0,0.0
3121,58.0,8.0,40.0,0.0,0.0
3122,46.0,128.0,60.0,0.0,0.0
3123,48.0,128.0,60.0,0.0,0.0
3124,60.0,4.0,40.0,0.0,0.0
3125,50.0,196.0,40.0,0.0,0.0
3126,62.0,8.0,40.0,0.0,0.0
3127,65.0,36.0,40.0,0.0,0.0
3128,53.0,324.0,60.0,0.0,0.0
3129,67.0,36.0,180.0,0.0,0.0
3130,75.0,52.0,120.0,0.0,0.0
3131,34.0,4.0,40.0,0.0,0.0
3132,46.0,12.0,40.0,0.0,0.0
3133,82.0,352.0,40.0,0.0,0.0
3134,46.0,0.0,40.0,0.0,0.0
3135,58.0,284.0,40.0,0.0,0.0
3136,65.0,8.0,40.0,0.0,0.0
3137,53.0,280.0,40.0,0.0,0.0
3138,63.0,144.0,60.0,0.0,0.0
3139,51.0,4.0,60.0,0.0,0.0
3140,79.0,0.0,930.0,0.0,0.0
3141,82.0,32.0,900.0,0.0,0.0
3142,70.0,208.0,930.0,0.0,0.0
3143,53.0,104.0,60.0,0.0,0.0
3144,65.0,8.0,40.0,0.0,0.0
3145,67.0,16.0,30.0,0.0,0.0
3146,55.0,240.0,40.0,0.0,0.0
3147,58.0,16.0,40.0,0.0,0.0
3148,46.0,276.0,60.0,0.0,0.0
3149,34.0,20.0,60.0,0.0,0.0
3150,46.0,48.0,90.0,0.0,0.0
3151,78.0,4.0,40.0,0.0,0.0
3152,81.0,240.0,60.0,0.0,0.0
3153,58.0,0.0,40.0,0.0,0.0
3154,69.0,8.0,30.0,0.0,0.0
3155,46.0,4.0,40.0,0.0,0.0
3156,71.0,0.0,20.0,0.0,0.0
3157,82.0,4.0,60.0,0.0,0.0
3158,70.0,8.0,30.0,0.0,0.0
3159,53.0,172.0,60.0,0.0,0.0
3160,65.0,12.0,40.0,0.0,0.0
3161,79.0,12.0,30.0,0.0,0.0
3162,86.0,16.0,60.0,0.0,0.0
3163,82.0,88.0,30.0,0.0,0.0
3164,72.0,0.0,40.0,0.0,0.0
3165,81.0,16.0,40.0,0.0,0.0
3166,84.0,100.0,60.0,0.0,0.0
3167,51.0,4.0,40.0,0.0,0.0
3168,63.0,4.0,40.0,0.0,0.0
3169,53.0,112.0,60.0,0.0,0.0
3170,65.0,12.0,30.0,0.0,0.0
3171,82.0,228.0,60.0,0.0,0.0
3172,70.0,4.0,40.0,0.0,0.0
3173,79.0,4.0,60.0,0.0,0.0
3174,55.0,8.0,40.0,0.0,0.0
3175,67.0,4.0,40.0,0.0,0.0
3176,75.0,12.0,40.0,0.0,0.0
3177,79.0,392.0,60.0,0.0,0.0
3178,70.0,4.0,40.0,0.0,0.0
3179,58.0,16.0,40.0,0.0,0.0
3180,46.0,8.0,180.0,0.0,0.0
3181,34.0,28.0,150.0,0.0,0.0
3182,91.0,8.0,180.0,0.0,0.0
3183,79.0,192.0,210.0,0.0,0.0
3184,87.0,20.0,180.0,0.0,0.0
3185,89.0,12.0,60.0,0.0,0.0
3186,86.0,0.0,40.0,0.0,0.0
3187,77.0,0.0,40.0,0.0,0.0
3188,46.0,276.0,60.0,0.0,0.0
3189,58.0,4.0,30.0,0.0,0.0
3190,65.0,8.0,40.0,0.0,0.0
3191,53.0,4.0,40.0,0.0,0.0
3192,82.0,224.0,60.0,0.0,0.0
3193,79.0,12.0,40.0,0.0,0.0
3194,87.0,56.0,90.0,0.0,0.0
3195,84.0,80.0,180.0,0.0,0.0
3196,51.0,12.0,40.0,0.0,0.0
3197,75.0,44.0,40.0,0.0,0.0
3198,63.0,0.0,40.0,0.0,0.0
3199,53.0,20.0,60.0,0.0,0.0
3200,65.0,12.0,30.0,0.0,0.0
3201,55.0,232.0,40.0,0.0,0.0
3202,75.0,4.0,30.0,0.0,0.0
3203,67.0,4.0,30.0,0.0,0.0
3204,79.0,12.0,40.0,0.0,0.0
3205,86.0,272.0,60.0,0.0,0.0
3206,58.0,8.0,30.0,0.0,0.0
3207,46.0,16.0,40.0,0.0,0.0
3208,74.0,8.0,40.0,0.0,0.0
3209,82.0,0.0,60.0,0.0,0.0
3210,84.0,4.0,120.0,0.0,0.0
3211,46.0,44.0,90.0,0.0,0.0
3212,34.0,12.0,60.0,0.0,0.0
3213,72.0,220.0,150.0,0.0,0.0
3214,81.0,20.0,120.0,0.0,0.0
3215,82.0,0.0,40.0,0.0,0.0
3216,53.0,4.0,40.0,0.0,0.0
3217,41.0,244.0,40.0,0.0,0.0
3218,79.0,4.0,40.0,0.0,0.0
3219,70.0,0.0,40.0,0.0,0.0
3220,75.0,264.0,60.0,0.0,0.0
3221,57.0,4.0,40.0,0.0,0.0
3222,79.0,4.0,40.0,0.0,0.0
3223,45.0,4.0,40.0,0.0,0.0
3224,67.0,0.0,30.0,0.0,0.0
3225,46.0,124.0,60.0,0.0,0.0
3226,77.0,152.0,840.0,0.0,0.0
3227,74.0,24.0,840.0,0.0,0.0
3228,58.0,12.0,40.0,0.0,0.0
3229,65.0,376.0,390.0,0.0,0.0
3230,48.0,116.0,90.0,0.0,0.0
3231,60.0,16.0,60.0,0.0,0.0
3232,62.0,24.0,40.0,0.0,0.0
3233,50.0,48.0,60.0,0.0,0.0
3234,67.0,24.0,210.0,0.0,0.0
3235,53.0,40.0,180.0,0.0,0.0
3236,41.0,0.0,210.0,0.0,0.0
3237,68.0,52.0,150.0,0.0,0.0
3238,74.0,76.0,120.0,0.0,0.0
3239,34.0,16.0,60.0,0.0,0.0
3240,46.0,0.0,60.0,0.0,0.0
3241,84.0,328.0,40.0,0.0,0.0
3242,41.0,0.0,40.0,0.0,0.0
3243,53.0,260.0,40.0,0.0,0.0
3244,60.0,12.0,40.0,0.0,0.0
3245,48.0,244.0,40.0,0.0,0.0
3246,46.0,108.0,60.0,0.0,0.0
3247,58.0,12.0,40.0,0.0,0.0
3248,84.0,48.0,900.0,0.0,0.0
3249,74.0,200.0,930.0,0.0,0.0
3250,80.0,8.0,840.0,0.0,0.0
3251,60.0,12.0,40.0,0.0,0.0
3252,48.0,112.0,60.0,0.0,0.0
3253,62.0,260.0,20.0,0.0,0.0
3254,41.0,256.0,60.0,0.0,0.0
3255,53.0,20.0,40.0,0.0,0.0
3256,34.0,24.0,60.0,0.0,0.0
3257,46.0,32.0,90.0,0.0,0.0
3258,41.0,16.0,40.0,0.0,0.0
3259,82.0,308.0,60.0,0.0,0.0
3260,53.0,4.0,40.0,0.0,0.0
3261,74.0,0.0,40.0,0.0,0.0
3262,79.0,8.0,60.0,0.0,0.0
3263,80.0,0.0,60.0,0.0,0.0
3264,58.0,0.0,30.0,0.0,0.0
3265,74.0,4.0,40.0,0.0,0.0
3266,46.0,264.0,40.0,0.0,0.0
3267,72.0,20.0,20.0,0.0,0.0
3268,79.0,76.0,60.0,0.0,0.0
3269,39.0,8.0,40.0,0.0,0.0
3270,75.0,8.0,60.0,0.0,0.0
3271,51.0,0.0,60.0,0.0,0.0
3272,70.0,8.0,40.0,0.0,0.0
3273,77.0,4.0,60.0,0.0,0.0
3274,68.0,20.0,30.0,0.0,0.0
3275,70.0,128.0,60.0,0.0,0.0
3276,67.0,16.0,210.0,0.0,0.0
3277,75.0,80.0,210.0,0.0,0.0
3278,70.0,4.0,210.0,0.0,0.0
3279,58.0,144.0,40.0,0.0,0.0
3280,46.0,8.0,40.0,0.0,0.0
3281,63.0,28.0,40.0,0.0,0.0
3282,51.0,180.0,60.0,0.0,0.0
3283,70.0,28.0,120.0,0.0,0.0
3284,76.0,112.0,150.0,0.0,0.0
3285,36.0,12.0,60.0,0.0,0.0
3286,48.0,356.0,60.0,0.0,0.0
3287,86.0,4.0,60.0,0.0,0.0
3288,43.0,0.0,40.0,0.0,0.0
3289,55.0,280.0,40.0,0.0,0.0
3290,62.0,12.0,40.0,0.0,0.0
3291,50.0,276.0,60.0,0.0,0.0
3292,86.0,28.0,930.0,0.0,0.0
3293,48.0,124.0,60.0,0.0,0.0
3294,82.0,152.0,960.0,0.0,0.0
3295,60.0,12.0,60.0,0.0,0.0
3296,76.0,4.0,930.0,0.0,0.0
3297,62.0,8.0,40.0,0.0,0.0
3298,50.0,120.0,60.0,0.0,0.0
3299,64.0,8.0,40.0,0.0,0.0
3300,52.0,236.0,40.0,0.0,0.0
3301,55.0,20.0,40.0,0.0,0.0
3302,43.0,272.0,60.0,0.0,0.0
3303,48.0,28.0,90.0,0.0,0.0
3304,36.0,32.0,60.0,0.0,0.0
3305,84.0,288.0,60.0,0.0,0.0
3306,76.0,4.0,40.0,0.0,0.0
3307,81.0,4.0,40.0,0.0,0.0
3308,55.0,12.0,40.0,0.0,0.0
3309,43.0,0.0,40.0,0.0,0.0
3310,76.0,0.0,60.0,0.0,0.0
3311,74.0,8.0,40.0,0.0,0.0
3312,82.0,300.0,60.0,0.0,0.0
3313,48.0,8.0,40.0,0.0,0.0
3314,60.0,4.0,30.0,0.0,0.0
3315,81.0,8.0,60.0,0.0,0.0
3316,41.0,16.0,90.0,0.0,0.0
3317,72.0,4.0,40.0,0.0,0.0
3318,53.0,76.0,120.0,0.0,0.0
3319,77.0,36.0,60.0,0.0,0.0
3320,79.0,12.0,60.0,0.0,0.0
3321,70.0,24.0,40.0,0.0,0.0
3322,72.0,92.0,60.0,0.0,0.0
3323,72.0,0.0,60.0,0.0,0.0
3324,77.0,280.0,90.0,0.0,0.0
3325,69.0,8.0,40.0,0.0,0.0
3326,60.0,24.0,40.0,0.0,0.0
3327,48.0,4.0,30.0,0.0,0.0
3328,65.0,4.0,40.0,0.0,0.0
3329,53.0,32.0,60.0,0.0,0.0
3330,81.0,180.0,120.0,0.0,0.0
3331,77.0,16.0,90.0,0.0,0.0
3332,72.0,28.0,40.0,0.0,0.0
3333,72.0,100.0,150.0,0.0,0.0
3334,81.0,44.0,150.0,0.0,0.0
3335,87.0,8.0,40.0,0.0,0.0
3336,41.0,8.0,40.0,0.0,0.0
3337,53.0,360.0,60.0,0.0,0.0
3338,53.0,12.0,60.0,0.0,0.0
3339,60.0,260.0,60.0,0.0,0.0
3340,69.0,4.0,40.0,0.0,0.0
3341,60.0,192.0,20.0,0.0,0.0
3342,72.0,224.0,60.0,0.0,0.0
3343,80.0,68.0,1110.0,0.0,0.0
3344,42.0,40.0,90.0,0.0,0.0
3345,54.0,288.0,150.0,0.0,0.0
3346,87.0,120.0,540.0,0.0,0.0
3347,54.0,48.0,120.0,0.0,0.0
3348,60.0,64.0,150.0,0.0,0.0
3349,68.0,28.0,40.0,0.0,0.0
3350,60.0,244.0,60.0,0.0,0.0
3351,72.0,188.0,150.0,0.0,0.0
3352,79.0,216.0,300.0,0.0,0.0
3353,87.0,8.0,150.0,0.0,0.0
3354,43.0,32.0,90.0,0.0,0.0
3355,55.0,24.0,120.0,0.0,0.0
3356,89.0,64.0,40.0,0.0,0.0
3357,80.0,8.0,30.0,0.0,0.0
3358,63.0,12.0,60.0,0.0,0.0
3359,55.0,280.0,60.0,0.0,0.0
3360,60.0,0.0,40.0,0.0,0.0
3361,87.0,12.0,40.0,0.0,0.0
3362,79.0,16.0,20.0,0.0,0.0
3363,67.0,32.0,40.0,0.0,0.0
3364,63.0,0.0,40.0,0.0,0.0
3365,60.0,168.0,60.0,0.0,0.0
3366,86.0,92.0,40.0,0.0,0.0
3367,77.0,0.0,30.0,0.0,0.0
3368,79.0,16.0,20.0,0.0,0.0
3369,86.0,152.0,150.0,0.0,0.0
3370,77.0,16.0,90.0,0.0,0.0
3371,79.0,16.0,120.0,0.0,0.0
3372,43.0,20.0,60.0,0.0,0.0
3373,55.0,16.0,90.0,0.0,0.0
3374,79.0,4.0,60.0,0.0,0.0
3375,87.0,100.0,60.0,0.0,0.0
3376,55.0,332.0,60.0,0.0,0.0
3377,65.0,0.0,40.0,0.0,0.0
3378,86.0,8.0,40.0,0.0,0.0
3379,77.0,8.0,40.0,0.0,0.0
3380,67.0,8.0,40.0,0.0,0.0
3381,79.0,500.0,60.0,0.0,0.0
3382,77.0,8.0,40.0,0.0,0.0
3383,71.0,0.0,30.0,0.0,0.0
3384,65.0,4.0,30.0,0.0,0.0
3385,59.0,8.0,40.0,0.0,0.0
3386,48.0,64.0,210.0,0.0,0.0
3387,36.0,28.0,180.0,0.0,0.0
3388,77.0,188.0,270.0,0.0,0.0
3389,84.0,16.0,690.0,0.0,0.0
3390,72.0,24.0,240.0,0.0,0.0
3391,79.0,8.0,150.0,0.0,0.0
3392,77.0,24.0,330.0,0.0,0.0
3393,63.0,0.0,60.0,0.0,0.0
3394,55.0,240.0,60.0,0.0,0.0
3395,60.0,4.0,60.0,0.0,0.0
3396,67.0,4.0,40.0,0.0,0.0
3397,63.0,4.0,30.0,0.0,0.0
3398,75.0,0.0,60.0,0.0,0.0
3399,60.0,276.0,60.0,0.0,0.0
3400,38.0,28.0,60.0,0.0,0.0
3401,75.0,144.0,270.0,0.0,0.0
3402,79.0,8.0,660.0,0.0,0.0
3403,50.0,184.0,90.0,0.0,0.0
3404,71.0,52.0,600.0,0.0,0.0
3405,77.0,28.0,150.0,0.0,0.0
3406,75.0,28.0,330.0,0.0,0.0
3407,65.0,156.0,120.0,0.0,0.0
3408,55.0,268.0,360.0,0.0,0.0
3409,59.0,4.0,90.0,0.0,0.0
3410,67.0,0.0,40.0,0.0,0.0
3411,74.0,0.0,60.0,0.0,0.0
3412,65.0,0.0,40.0,0.0,0.0
3413,59.0,0.0,40.0,0.0,0.0
3414,74.0,28.0,420.0,0.0,0.0
3415,79.0,16.0,450.0,0.0,0.0
3416,39.0,28.0,40.0,0.0,0.0
3417,67.0,76.0,300.0,0.0,0.0
3418,51.0,236.0,60.0,0.0,0.0
3419,51.0,8.0,40.0,0.0,0.0
3420,60.0,8.0,60.0,0.0,0.0
3421,55.0,12.0,40.0,0.0,0.0
3422,72.0,220.0,90.0,0.0,0.0
3423,55.0,368.0,90.0,0.0,0.0
3424,67.0,8.0,40.0,0.0,0.0
3425,60.0,12.0,40.0,0.0,0.0
3426,81.0,12.0,60.0,0.0,0.0
3427,40.0,12.0,180.0,0.0,0.0
3428,52.0,60.0,240.0,0.0,0.0
3429,82.0,12.0,120.0,0.0,0.0
3430,72.0,20.0,90.0,0.0,0.0
3431,79.0,60.0,120.0,0.0,0.0
3432,84.0,28.0,90.0,0.0,0.0
3433,82.0,60.0,60.0,0.0,0.0
3434,84.0,36.0,60.0,0.0,0.0
3435,82.0,48.0,60.0,0.0,0.0
3436,84.0,88.0,60.0,0.0,0.0
3437,82.0,24.0,90.0,0.0,0.0
3438,72.0,8.0,180.0,0.0,0.0
3439,79.0,8.0,180.0,0.0,0.0
3440,52.0,12.0,60.0,0.0,0.0
3441,81.0,4.0,60.0,0.0,0.0
3442,60.0,72.0,90.0,0.0,0.0
3443,58.0,8.0,60.0,0.0,0.0
3444,82.0,104.0,30.0,0.0,0.0
3445,79.0,136.0,120.0,0.0,0.0
3446,82.0,16.0,90.0,0.0,0.0
3447,72.0,20.0,90.0,0.0,0.0
3448,67.0,16.0,60.0,0.0,0.0
3449,79.0,8.0,60.0,0.0,0.0
3450,60.0,12.0,60.0,0.0,0.0
3451,72.0,4.0,40.0,0.0,0.0
3452,58.0,200.0,90.0,0.0,0.0
3453,84.0,4.0,60.0,0.0,0.0
3454,72.0,16.0,20.0,0.0,0.0
3455,79.0,476.0,40.0,0.0,0.0
3456,65.0,4.0,330.0,0.0,0.0
3457,29.0,44.0,240.0,0.0,0.0
3458,72.0,232.0,330.0,0.0,0.0
3459,41.0,32.0,270.0,0.0,0.0
3460,70.0,16.0,300.0,0.0,0.0
3461,72.0,4.0,60.0,0.0,0.0
3462,75.0,8.0,60.0,0.0,0.0
3463,63.0,4.0,60.0,0.0,0.0
3464,70.0,4.0,40.0,0.0,0.0
3465,53.0,340.0,60.0,0.0,0.0
3466,60.0,8.0,30.0,0.0,0.0
3467,53.0,0.0,60.0,0.0,0.0
3468,65.0,4.0,60.0,0.0,0.0
3469,77.0,224.0,90.0,0.0,0.0
3470,72.0,16.0,60.0,0.0,0.0
3471,60.0,8.0,30.0,0.0,0.0
3472,70.0,12.0,40.0,0.0,0.0
3473,53.0,48.0,90.0,0.0,0.0
3474,60.0,4.0,40.0,0.0,0.0
3475,79.0,224.0,90.0,0.0,0.0
3476,75.0,12.0,60.0,0.0,0.0
3477,72.0,12.0,40.0,0.0,0.0
3478,70.0,4.0,40.0,0.0,0.0
3479,67.0,4.0,30.0,0.0,0.0
3480,81.0,0.0,60.0,0.0,0.0
3481,69.0,0.0,40.0,0.0,0.0
3482,60.0,12.0,60.0,0.0,0.0
3483,67.0,8.0,40.0,0.0,0.0
3484,75.0,0.0,40.0,0.0,0.0
3485,79.0,352.0,60.0,0.0,0.0
3486,63.0,4.0,60.0,0.0,0.0
3487,72.0,8.0,30.0,0.0,0.0
3488,82.0,16.0,150.0,0.0,0.0
3489,60.0,0.0,150.0,0.0,0.0
3490,67.0,12.0,180.0,0.0,0.0
3491,79.0,12.0,150.0,0.0,0.0
3492,70.0,152.0,210.0,0.0,0.0
3493,75.0,4.0,180.0,0.0,0.0
3494,63.0,16.0,180.0,0.0,0.0
3495,84.0,312.0,120.0,0.0,0.0
3496,60.0,12.0,60.0,0.0,0.0
3497,70.0,8.0,90.0,0.0,0.0
3498,75.0,4.0,90.0,0.0,0.0
3499,67.0,8.0,90.0,0.0,0.0
3500,63.0,4.0,60.0,0.0,0.0
3501,79.0,4.0,90.0,0.0,0.0
3502,63.0,4.0,150.0,0.0,0.0
3503,82.0,4.0,150.0,0.0,0.0
3504,86.0,12.0,150.0,0.0,0.0
3505,74.0,248.0,180.0,0.0,0.0
3506,75.0,20.0,90.0,0.0,0.0
3507,70.0,24.0,150.0,0.0,0.0
3508,67.0,8.0,150.0,0.0,0.0
3509,79.0,12.0,120.0,0.0,0.0
3510,87.0,4.0,120.0,0.0,0.0
3511,72.0,4.0,210.0,0.0,0.0
3512,79.0,32.0,120.0,0.0,0.0
3513,75.0,188.0,210.0,0.0,0.0
3514,67.0,0.0,210.0,0.0,0.0
3515,84.0,32.0,150.0,0.0,0.0
3516,82.0,4.0,150.0,0.0,0.0
3517,70.0,8.0,180.0,0.0,0.0
3518,67.0,0.0,90.0,0.0,0.0
3519,89.0,0.0,90.0,0.0,0.0
3520,72.0,4.0,60.0,0.0,0.0
3521,77.0,0.0,60.0,0.0,0.0
3522,79.0,16.0,40.0,0.0,0.0
3523,70.0,432.0,60.0,0.0,0.0
3524,82.0,16.0,40.0,0.0,0.0
3525,84.0,0.0,60.0,0.0,0.0
3526,67.0,8.0,60.0,0.0,0.0
3527,91.0,628.0,180.0,0.0,0.0
3528,79.0,8.0,60.0,0.0,0.0
3529,87.0,20.0,150.0,0.0,0.0
3530,75.0,12.0,60.0,0.0,0.0
3531,84.0,24.0,120.0,0.0,0.0
3532,70.0,40.0,60.0,0.0,0.0
3533,82.0,12.0,120.0,0.0,0.0
3534,93.0,28.0,210.0,0.0,0.0
3535,87.0,8.0,240.0,0.0,0.0
3536,89.0,324.0,270.0,0.0,0.0
3537,81.0,0.0,210.0,0.0,0.0
3538,53.0,4.0,210.0,0.0,0.0
3539,41.0,28.0,240.0,0.0,0.0
3540,94.0,36.0,270.0,0.0,0.0
3541,34.0,20.0,150.0,0.0,0.0
3542,82.0,116.0,330.0,0.0,0.0
3543,46.0,84.0,180.0,0.0,0.0
3544,86.0,16.0,300.0,0.0,0.0
3545,53.0,4.0,60.0,0.0,0.0
3546,65.0,228.0,60.0,0.0,0.0
3547,88.0,0.0,60.0,0.0,0.0
3548,85.0,280.0,60.0,0.0,0.0
3549,67.0,8.0,40.0,0.0,0.0
3550,76.0,4.0,40.0,0.0,0.0
3551,55.0,0.0,40.0,0.0,0.0
3552,69.0,16.0,90.0,0.0,0.0
3553,87.0,20.0,210.0,0.0,0.0
3554,65.0,8.0,120.0,0.0,0.0
3555,84.0,60.0,240.0,0.0,0.0
3556,57.0,84.0,120.0,0.0,0.0
3557,75.0,4.0,210.0,0.0,0.0
3558,65.0,164.0,60.0,0.0,0.0
3559,53.0,16.0,40.0,0.0,0.0
3560,69.0,4.0,30.0,0.0,0.0
3561,72.0,16.0,40.0,0.0,0.0
3562,63.0,4.0,40.0,0.0,0.0
3563,84.0,240.0,60.0,0.0,0.0
3564,65.0,4.0,30.0,0.0,0.0
3565,81.0,12.0,60.0,0.0,0.0
3566,46.0,24.0,90.0,0.0,0.0
3567,86.0,16.0,240.0,0.0,0.0
3568,58.0,116.0,90.0,0.0,0.0
3569,74.0,32.0,210.0,0.0,0.0
3570,82.0,80.0,270.0,0.0,0.0
3571,65.0,8.0,90.0,0.0,0.0
3572,62.0,4.0,90.0,0.0,0.0
3573,58.0,140.0,90.0,0.0,0.0
3574,53.0,8.0,60.0,0.0,0.0
3575,62.0,204.0,90.0,0.0,0.0
3576,58.0,12.0,90.0,0.0,0.0
3577,89.0,4.0,60.0,0.0,0.0
3578,77.0,16.0,40.0,0.0,0.0
3579,86.0,8.0,60.0,0.0,0.0
3580,94.0,8.0,210.0,0.0,0.0
3581,70.0,12.0,60.0,0.0,0.0
3582,62.0,120.0,90.0,0.0,0.0
3583,82.0,52.0,210.0,0.0,0.0
3584,86.0,44.0,270.0,0.0,0.0
3585,58.0,8.0,60.0,0.0,0.0
3586,65.0,28.0,90.0,0.0,0.0
3587,62.0,0.0,60.0,0.0,0.0
3588,58.0,112.0,90.0,0.0,0.0
3589,93.0,4.0,60.0,0.0,0.0
3590,62.0,8.0,30.0,0.0,0.0
3591,89.0,216.0,60.0,0.0,0.0
3592,58.0,12.0,40.0,0.0,0.0
3593,81.0,12.0,60.0,0.0,0.0
3594,53.0,8.0,40.0,0.0,0.0
3595,87.0,20.0,90.0,0.0,0.0
3596,53.0,20.0,90.0,0.0,0.0
3597,41.0,20.0,60.0,0.0,0.0
3598,91.0,0.0,90.0,0.0,0.0
3599,79.0,172.0,120.0,0.0,0.0
3600,89.0,4.0,40.0,0.0,0.0
3601,53.0,4.0,40.0,0.0,0.0
3602,63.0,164.0,40.0,0.0,0.0
3603,77.0,0.0,30.0,0.0,0.0
3604,60.0,8.0,20.0,0.0,0.0
3605,86.0,0.0,40.0,0.0,0.0
3606,84.0,4.0,40.0,0.0,0.0
3607,87.0,184.0,40.0,0.0,0.0
3608,60.0,4.0,40.0,0.0,0.0
3609,63.0,0.0,30.0,0.0,0.0
3610,69.0,0.0,40.0,0.0,0.0
3611,75.0,12.0,20.0,0.0,0.0
3612,65.0,172.0,40.0,0.0,0.0
3613,72.0,4.0,30.0,0.0,0.0
3614,63.0,0.0,30.0,0.0,0.0
3615,79.0,12.0,210.0,0.0,0.0
3616,91.0,20.0,210.0,0.0,0.0
3617,87.0,4.0,210.0,0.0,0.0
3618,69.0,8.0,30.0,0.0,0.0
3619,65.0,4.0,40.0,0.0,0.0
3620,60.0,168.0,60.0,0.0,0.0
3621,63.0,16.0,40.0,0.0,0.0
3622,72.0,16.0,40.0,0.0,0.0
3623,84.0,256.0,60.0,0.0,0.0
3624,81.0,12.0,60.0,0.0,0.0
3625,63.0,0.0,30.0,0.0,0.0
3626,60.0,4.0,20.0,0.0,0.0
3627,53.0,4.0,40.0,0.0,0.0
3628,58.0,180.0,120.0,0.0,0.0
3629,46.0,20.0,90.0,0.0,0.0
3630,86.0,8.0,510.0,0.0,0.0
3631,74.0,12.0,510.0,0.0,0.0
3632,82.0,8.0,510.0,0.0,0.0
3633,62.0,196.0,60.0,0.0,0.0
3634,58.0,4.0,40.0,0.0,0.0
3635,53.0,0.0,40.0,0.0,0.0
3636,65.0,0.0,30.0,0.0,0.0
3637,62.0,4.0,40.0,0.0,0.0
3638,58.0,380.0,40.0,0.0,0.0
3639,89.0,4.0,1050.0,0.0,0.0
3640,55.0,180.0,180.0,0.0,0.0
3641,43.0,24.0,150.0,0.0,0.0
3642,83.0,368.0,630.0,0.0,0.0
3643,77.0,28.0,1050.0,0.0,0.0
3644,55.0,0.0,40.0,0.0,0.0
3645,65.0,208.0,40.0,0.0,0.0
3646,62.0,12.0,20.0,0.0,0.0
3647,71.0,0.0,40.0,0.0,0.0
3648,67.0,8.0,20.0,0.0,0.0
3649,62.0,36.0,60.0,0.0,0.0
3650,65.0,20.0,30.0,0.0,0.0
3651,60.0,8.0,210.0,0.0,0.0
3652,48.0,32.0,180.0,0.0,0.0
3653,84.0,128.0,240.0,0.0,0.0
3654,88.0,216.0,60.0,0.0,0.0
3655,55.0,8.0,30.0,0.0,0.0
3656,76.0,4.0,40.0,0.0,0.0
3657,67.0,8.0,40.0,0.0,0.0
3658,60.0,0.0,30.0,0.0,0.0
3659,72.0,4.0,30.0,0.0,0.0
3660,67.0,20.0,30.0,0.0,0.0
3661,63.0,100.0,60.0,0.0,0.0
3662,87.0,104.0,60.0,0.0,0.0
3663,75.0,8.0,60.0,0.0,0.0
3664,87.0,8.0,90.0,0.0,0.0
3665,75.0,12.0,90.0,0.0,0.0
3666,84.0,208.0,120.0,0.0,0.0
3667,53.0,24.0,60.0,0.0,0.0
3668,41.0,20.0,40.0,0.0,0.0
3669,53.0,4.0,60.0,0.0,0.0
3670,60.0,8.0,40.0,0.0,0.0
3671,86.0,4.0,60.0,0.0,0.0
3672,63.0,0.0,40.0,0.0,0.0
3673,82.0,196.0,60.0,0.0,0.0
3674,74.0,4.0,40.0,0.0,0.0
3675,69.0,4.0,40.0,0.0,0.0
3676,63.0,16.0,40.0,0.0,0.0
3677,85.0,0.0,40.0,0.0,0.0
3678,60.0,280.0,40.0,0.0,0.0
3679,81.0,0.0,30.0,0.0,0.0
3680,73.0,4.0,20.0,0.0,0.0
3681,58.0,12.0,120.0,0.0,0.0
3682,86.0,180.0,120.0,0.0,0.0
3683,46.0,24.0,90.0,0.0,0.0
3684,74.0,4.0,90.0,0.0,0.0
3685,82.0,4.0,120.0,0.0,0.0
3686,53.0,12.0,40.0,0.0,0.0
3687,62.0,8.0,40.0,0.0,0.0
3688,89.0,220.0,60.0,0.0,0.0
3689,86.0,0.0,60.0,0.0,0.0
3690,77.0,4.0,30.0,0.0,0.0
3691,58.0,8.0,20.0,0.0,0.0
3692,65.0,0.0,40.0,0.0,0.0
3693,58.0,20.0,60.0,0.0,0.0
3694,94.0,20.0,60.0,0.0,0.0
3695,62.0,0.0,60.0,0.0,0.0
3696,82.0,8.0,40.0,0.0,0.0
3697,86.0,184.0,90.0,0.0,0.0
3698,74.0,180.0,60.0,0.0,0.0
3699,94.0,12.0,300.0,0.0,0.0
3700,65.0,12.0,40.0,0.0,0.0
3701,82.0,8.0,270.0,0.0,0.0
3702,86.0,152.0,300.0,0.0,0.0
3703,70.0,8.0,40.0,0.0,0.0
3704,70.0,8.0,40.0,0.0,0.0
3705,62.0,24.0,60.0,0.0,0.0
3706,65.0,12.0,20.0,0.0,0.0
3707,65.0,4.0,30.0,0.0,0.0
3708,89.0,288.0,60.0,0.0,0.0
3709,53.0,4.0,40.0,0.0,0.0
3710,81.0,8.0,40.0,0.0,0.0
3711,93.0,4.0,40.0,0.0,0.0
3712,62.0,8.0,30.0,0.0,0.0
3713,93.0,20.0,120.0,0.0,0.0
3714,89.0,8.0,150.0,0.0,0.0
3715,41.0,16.0,90.0,0.0,0.0
3716,81.0,168.0,150.0,0.0,0.0
3717,53.0,8.0,120.0,0.0,0.0
3718,53.0,4.0,40.0,0.0,0.0
3719,91.0,180.0,60.0,0.0,0.0
3720,63.0,4.0,60.0,0.0,0.0
3721,87.0,4.0,40.0,0.0,0.0
3722,60.0,4.0,30.0,0.0,0.0
3723,79.0,4.0,40.0,0.0,0.0
3724,63.0,0.0,40.0,0.0,0.0
3725,69.0,8.0,40.0,0.0,0.0
3726,89.0,0.0,60.0,0.0,0.0
3727,60.0,8.0,40.0,0.0,0.0
3728,77.0,0.0,30.0,0.0,0.0
3729,86.0,200.0,40.0,0.0,0.0
3730,75.0,12.0,60.0,0.0,0.0
3731,69.0,4.0,40.0,0.0,0.0
3732,87.0,36.0,180.0,0.0,0.0
3733,91.0,4.0,180.0,0.0,0.0
3734,79.0,60.0,210.0,0.0,0.0
3735,65.0,120.0,60.0,0.0,0.0
3736,69.0,16.0,40.0,0.0,0.0
3737,65.0,8.0,30.0,0.0,0.0
3738,60.0,288.0,40.0,0.0,0.0
3739,53.0,0.0,150.0,0.0,0.0
3740,65.0,16.0,120.0,0.0,0.0
3741,84.0,260.0,150.0,0.0,0.0
3742,72.0,8.0,150.0,0.0,0.0
3743,81.0,4.0,150.0,0.0,0.0
3744,86.0,16.0,660.0,0.0,0.0
3745,82.0,68.0,810.0,0.0,0.0
3746,74.0,152.0,660.0,0.0,0.0
3747,58.0,196.0,150.0,0.0,0.0
3748,46.0,32.0,120.0,0.0,0.0
3749,53.0,0.0,40.0,0.0,0.0
3750,62.0,16.0,30.0,0.0,0.0
3751,65.0,232.0,40.0,0.0,0.0
3752,70.0,20.0,20.0,0.0,0.0
3753,58.0,32.0,40.0,0.0,0.0
3754,62.0,4.0,15.0,0.0,0.0
3755,40.0,32.0,60.0,0.0,0.0
3756,52.0,280.0,90.0,0.0,0.0
3757,86.0,268.0,780.0,0.0,0.0
3758,80.0,32.0,690.0,0.0,0.0
3759,74.0,52.0,720.0,0.0,0.0
3760,64.0,204.0,150.0,0.0,0.0
3761,59.0,60.0,360.0,0.0,0.0
3762,62.0,16.0,120.0,0.0,0.0
3763,71.0,8.0,40.0,0.0,0.0
3764,64.0,16.0,60.0,0.0,0.0
3765,62.0,8.0,60.0,0.0,0.0
3766,45.0,32.0,150.0,0.0,0.0
3767,57.0,40.0,180.0,0.0,0.0
3768,86.0,20.0,210.0,0.0,0.0
3769,74.0,100.0,240.0,0.0,0.0
3770,79.0,52.0,330.0,0.0,0.0
3771,85.0,0.0,40.0,0.0,0.0
3772,57.0,20.0,40.0,0.0,0.0
3773,67.0,248.0,60.0,0.0,0.0
3774,73.0,0.0,30.0,0.0,0.0
3775,69.0,180.0,90.0,0.0,0.0
3776,67.0,4.0,60.0,0.0,0.0
3777,61.0,16.0,60.0,0.0,0.0
3778,77.0,12.0,40.0,0.0,0.0
3779,89.0,4.0,60.0,0.0,0.0
3780,77.0,52.0,210.0,0.0,0.0
3781,73.0,16.0,40.0,0.0,0.0
3782,81.0,8.0,180.0,0.0,0.0
3783,89.0,4.0,210.0,0.0,0.0
3784,69.0,0.0,40.0,0.0,0.0
3785,67.0,128.0,60.0,0.0,0.0
3786,69.0,8.0,30.0,0.0,0.0
3787,61.0,180.0,40.0,0.0,0.0
3788,67.0,0.0,30.0,0.0,0.0
3789,79.0,0.0,30.0,0.0,0.0
3790,67.0,4.0,30.0,0.0,0.0
3791,88.0,4.0,40.0,0.0,0.0
3792,61.0,12.0,40.0,0.0,0.0
3793,76.0,4.0,20.0,0.0,0.0
3794,57.0,240.0,40.0,0.0,0.0
3795,38.0,24.0,60.0,0.0,0.0
3796,50.0,4.0,90.0,0.0,0.0
3797,86.0,176.0,90.0,0.0,0.0
3798,77.0,16.0,90.0,0.0,0.0
3799,74.0,4.0,90.0,0.0,0.0
3800,88.0,0.0,40.0,0.0,0.0
3801,79.0,4.0,60.0,0.0,0.0
3802,65.0,4.0,40.0,0.0,0.0
3803,76.0,0.0,20.0,0.0,0.0
3804,62.0,16.0,20.0,0.0,0.0
3805,57.0,196.0,40.0,0.0,0.0
3806,89.0,244.0,90.0,0.0,0.0
3807,65.0,16.0,30.0,0.0,0.0
3808,69.0,4.0,30.0,0.0,0.0
3809,62.0,24.0,40.0,0.0,0.0
3810,77.0,24.0,60.0,0.0,0.0
3811,81.0,0.0,60.0,0.0,0.0
3812,37.0,16.0,120.0,0.0,0.0
3813,49.0,196.0,120.0,0.0,0.0
3814,83.0,4.0,570.0,0.0,0.0
3815,89.0,216.0,750.0,0.0,0.0
3816,77.0,72.0,690.0,0.0,0.0
3817,53.0,12.0,40.0,0.0,0.0
3818,65.0,228.0,60.0,0.0,0.0
3819,59.0,4.0,30.0,0.0,0.0
3820,71.0,4.0,40.0,0.0,0.0
3821,65.0,20.0,40.0,0.0,0.0
3822,59.0,92.0,60.0,0.0,0.0
3823,89.0,16.0,180.0,0.0,0.0
3824,48.0,24.0,180.0,0.0,0.0
3825,36.0,24.0,150.0,0.0,0.0
3826,84.0,4.0,360.0,0.0,0.0
3827,77.0,92.0,210.0,0.0,0.0
3828,82.0,60.0,300.0,0.0,0.0
3829,88.0,8.0,40.0,0.0,0.0
3830,67.0,4.0,40.0,0.0,0.0
3831,82.0,4.0,20.0,0.0,0.0
3832,76.0,0.0,30.0,0.0,0.0
3833,55.0,240.0,40.0,0.0,0.0
3834,60.0,4.0,20.0,0.0,0.0
3835,60.0,4.0,60.0,0.0,0.0
3836,70.0,4.0,60.0,0.0,0.0
3837,89.0,180.0,60.0,0.0,0.0
3838,67.0,4.0,60.0,0.0,0.0
3839,77.0,16.0,40.0,0.0,0.0
3840,91.0,4.0,60.0,0.0,0.0
3841,76.0,8.0,40.0,0.0,0.0
3842,70.0,12.0,40.0,0.0,0.0
3843,79.0,4.0,30.0,0.0,0.0
3844,67.0,176.0,60.0,0.0,0.0
3845,82.0,0.0,30.0,0.0,0.0
3846,93.0,4.0,40.0,0.0,0.0
3847,70.0,0.0,30.0,0.0,0.0
3848,67.0,20.0,40.0,0.0,0.0
3849,60.0,244.0,60.0,0.0,0.0
3850,81.0,4.0,20.0,0.0,0.0
3851,84.0,4.0,15.0,0.0,0.0
3852,92.0,4.0,20.0,0.0,0.0
3853,94.0,4.0,420.0,0.0,0.0
3854,64.0,20.0,30.0,0.0,0.0
3855,91.0,8.0,420.0,0.0,0.0
3856,82.0,4.0,420.0,0.0,0.0
3857,55.0,348.0,60.0,0.0,0.0
3858,60.0,12.0,40.0,0.0,0.0
3859,53.0,184.0,120.0,0.0,0.0
3860,41.0,8.0,90.0,0.0,0.0
3861,93.0,0.0,60.0,0.0,0.0
3862,81.0,8.0,40.0,0.0,0.0
3863,65.0,0.0,40.0,0.0,0.0
3864,89.0,4.0,40.0,0.0,0.0
3865,60.0,4.0,30.0,0.0,0.0
3866,57.0,204.0,40.0,0.0,0.0
3867,94.0,216.0,60.0,0.0,0.0
3868,65.0,0.0,30.0,0.0,0.0
3869,69.0,4.0,20.0,0.0,0.0
3870,60.0,12.0,40.0,0.0,0.0
3871,82.0,4.0,20.0,0.0,0.0
3872,91.0,16.0,20.0,0.0,0.0
3873,93.0,4.0,90.0,0.0,0.0
3874,81.0,8.0,60.0,0.0,0.0
3875,89.0,184.0,90.0,0.0,0.0
3876,43.0,16.0,40.0,0.0,0.0
3877,55.0,4.0,90.0,0.0,0.0
3878,87.0,0.0,40.0,0.0,0.0
3879,63.0,12.0,40.0,0.0,0.0
3880,91.0,164.0,60.0,0.0,0.0
3881,58.0,8.0,40.0,0.0,0.0
3882,55.0,0.0,40.0,0.0,0.0
3883,79.0,8.0,30.0,0.0,0.0
3884,70.0,0.0,30.0,0.0,0.0
3885,63.0,4.0,20.0,0.0,0.0
3886,93.0,4.0,20.0,0.0,0.0
3887,58.0,344.0,60.0,0.0,0.0
3888,89.0,16.0,30.0,0.0,0.0
3889,81.0,8.0,20.0,0.0,0.0
3890,57.0,12.0,150.0,0.0,0.0
3891,45.0,8.0,120.0,0.0,0.0
3892,87.0,12.0,150.0,0.0,0.0
3893,91.0,12.0,120.0,0.0,0.0
3894,79.0,124.0,150.0,0.0,0.0
3895,63.0,16.0,60.0,0.0,0.0
3896,89.0,160.0,90.0,0.0,0.0
3897,53.0,0.0,60.0,0.0,0.0
3898,60.0,12.0,30.0,0.0,0.0
3899,77.0,12.0,40.0,0.0,0.0
3900,86.0,8.0,40.0,0.0,0.0
3901,76.0,4.0,40.0,0.0,0.0
3902,88.0,0.0,40.0,0.0,0.0
3903,85.0,0.0,40.0,0.0,0.0
3904,63.0,0.0,40.0,0.0,0.0
3905,69.0,228.0,40.0,0.0,0.0
3906,60.0,4.0,40.0,0.0,0.0
3907,72.0,4.0,90.0,0.0,0.0
3908,87.0,4.0,240.0,0.0,0.0
3909,84.0,20.0,240.0,0.0,0.0
3910,63.0,16.0,90.0,0.0,0.0
3911,75.0,8.0,240.0,0.0,0.0
3912,65.0,132.0,90.0,0.0,0.0
3913,65.0,16.0,40.0,0.0,0.0
3914,69.0,12.0,30.0,0.0,0.0
3915,60.0,196.0,60.0,0.0,0.0
3916,72.0,20.0,120.0,0.0,0.0
3917,84.0,268.0,150.0,0.0,0.0
3918,53.0,4.0,30.0,0.0,0.0
3919,41.0,96.0,40.0,0.0,0.0
3920,81.0,4.0,150.0,0.0,0.0
3921,86.0,16.0,300.0,0.0,0.0
3922,58.0,140.0,150.0,0.0,0.0
3923,74.0,16.0,270.0,0.0,0.0
3924,46.0,28.0,120.0,0.0,0.0
3925,82.0,4.0,300.0,0.0,0.0
3926,53.0,16.0,20.0,0.0,0.0
3927,62.0,8.0,30.0,0.0,0.0
3928,65.0,240.0,40.0,0.0,0.0
3929,74.0,4.0,30.0,0.0,0.0
3930,62.0,8.0,60.0,0.0,0.0
3931,89.0,0.0,60.0,0.0,0.0
3932,86.0,244.0,60.0,0.0,0.0
3933,77.0,20.0,30.0,0.0,0.0
3934,65.0,8.0,20.0,0.0,0.0
3935,43.0,28.0,60.0,0.0,0.0
3936,55.0,140.0,90.0,0.0,0.0
3937,94.0,8.0,240.0,0.0,0.0
3938,86.0,12.0,270.0,0.0,0.0
3939,82.0,32.0,240.0,0.0,0.0
3940,67.0,8.0,40.0,0.0,0.0
3941,58.0,188.0,40.0,0.0,0.0
3942,62.0,0.0,40.0,0.0,0.0
3943,70.0,0.0,40.0,0.0,0.0
3944,93.0,208.0,60.0,0.0,0.0
3945,89.0,8.0,60.0,0.0,0.0
3946,81.0,0.0,60.0,0.0,0.0
3947,62.0,8.0,40.0,0.0,0.0
3948,67.0,20.0,30.0,0.0,0.0
3949,93.0,12.0,90.0,0.0,0.0
3950,89.0,188.0,90.0,0.0,0.0
3951,48.0,8.0,60.0,0.0,0.0
3952,81.0,8.0,90.0,0.0,0.0
3953,60.0,4.0,90.0,0.0,0.0
3954,87.0,4.0,60.0,0.0,0.0
3955,63.0,8.0,40.0,0.0,0.0
3956,91.0,176.0,60.0,0.0,0.0
3957,60.0,8.0,30.0,0.0,0.0
3958,79.0,4.0,40.0,0.0,0.0
3959,55.0,4.0,40.0,0.0,0.0
3960,70.0,8.0,40.0,0.0,0.0
3961,63.0,8.0,20.0,0.0,0.0
3962,89.0,4.0,60.0,0.0,0.0
3963,60.0,16.0,40.0,0.0,0.0
3964,86.0,204.0,60.0,0.0,0.0
3965,77.0,12.0,30.0,0.0,0.0
3966,87.0,20.0,120.0,0.0,0.0
3967,41.0,20.0,60.0,0.0,0.0
3968,79.0,160.0,120.0,0.0,0.0
3969,91.0,12.0,90.0,0.0,0.0
3970,53.0,24.0,60.0,0.0,0.0
3971,63.0,0.0,40.0,0.0,0.0
3972,53.0,224.0,40.0,0.0,0.0
3973,60.0,12.0,30.0,0.0,0.0
3974,69.0,4.0,40.0,0.0,0.0
3975,63.0,16.0,40.0,0.0,0.0
3976,84.0,4.0,60.0,0.0,0.0
3977,72.0,0.0,40.0,0.0,0.0
3978,60.0,4.0,40.0,0.0,0.0
3979,81.0,396.0,60.0,0.0,0.0
3980,44.0,28.0,150.0,0.0,0.0
3981,56.0,236.0,180.0,0.0,0.0
3982,82.0,8.0,690.0,0.0,0.0
3983,86.0,4.0,660.0,0.0,0.0
3984,74.0,12.0,660.0,0.0,0.0
3985,56.0,8.0,60.0,0.0,0.0
3986,65.0,228.0,60.0,0.0,0.0
3987,58.0,4.0,60.0,0.0,0.0
3988,70.0,0.0,40.0,0.0,0.0
3989,58.0,236.0,60.0,0.0,0.0
3990,65.0,12.0,20.0,0.0,0.0
3991,65.0,232.0,90.0,0.0,0.0
3992,56.0,4.0,90.0,0.0,0.0
3993,83.0,236.0,1110.0,0.0,0.0
3994,89.0,4.0,1080.0,0.0,0.0
3995,59.0,8.0,90.0,0.0,0.0
3996,77.0,8.0,1080.0,0.0,0.0
3997,71.0,8.0,40.0,0.0,0.0
3998,65.0,16.0,40.0,0.0,0.0
3999,61.0,248.0,60.0,0.0,0.0
4000,65.0,12.0,40.0,0.0,0.0
4001,61.0,20.0,40.0,0.0,0.0
4002,56.0,432.0,60.0,0.0,0.0
4003,43.0,16.0,150.0,0.0,0.0
4004,55.0,8.0,180.0,0.0,0.0
4005,55.0,16.0,60.0,0.0,0.0
4006,88.0,64.0,60.0,0.0,0.0
4007,76.0,156.0,150.0,0.0,0.0
4008,65.0,0.0,60.0,0.0,0.0
4009,62.0,0.0,60.0,0.0,0.0
4010,71.0,0.0,40.0,0.0,0.0
4011,65.0,20.0,40.0,0.0,0.0
4012,59.0,136.0,60.0,0.0,0.0
4013,87.0,128.0,90.0,0.0,0.0
4014,75.0,0.0,90.0,0.0,0.0
4015,42.0,20.0,60.0,0.0,0.0
4016,54.0,20.0,90.0,0.0,0.0
4017,83.0,212.0,120.0,0.0,0.0
4018,75.0,4.0,90.0,0.0,0.0
4019,87.0,0.0,90.0,0.0,0.0
4020,66.0,12.0,60.0,0.0,0.0
4021,86.0,12.0,90.0,0.0,0.0
4022,74.0,8.0,40.0,0.0,0.0
4023,59.0,8.0,60.0,0.0,0.0
4024,54.0,200.0,90.0,0.0,0.0
4025,78.0,4.0,40.0,0.0,0.0
4026,64.0,4.0,40.0,0.0,0.0
4027,58.0,8.0,40.0,0.0,0.0
4028,85.0,8.0,60.0,0.0,0.0
4029,73.0,8.0,40.0,0.0,0.0
4030,82.0,0.0,60.0,0.0,0.0
4031,54.0,336.0,60.0,0.0,0.0
4032,53.0,36.0,150.0,0.0,0.0
4033,41.0,24.0,120.0,0.0,0.0
4034,86.0,168.0,180.0,0.0,0.0
4035,74.0,20.0,180.0,0.0,0.0
4036,82.0,4.0,180.0,0.0,0.0
4037,53.0,4.0,40.0,0.0,0.0
4038,89.0,0.0,40.0,0.0,0.0
4039,65.0,8.0,40.0,0.0,0.0
4040,62.0,0.0,30.0,0.0,0.0
4041,86.0,336.0,40.0,0.0,0.0
4042,77.0,8.0,20.0,0.0,0.0
4043,62.0,288.0,40.0,0.0,0.0
4044,74.0,0.0,30.0,0.0,0.0
4045,94.0,12.0,330.0,0.0,0.0
4046,65.0,8.0,20.0,0.0,0.0
4047,82.0,504.0,330.0,0.0,0.0
4048,86.0,0.0,330.0,0.0,0.0
4049,40.0,12.0,330.0,0.0,0.0
4050,52.0,252.0,330.0,0.0,0.0
4051,86.0,0.0,600.0,0.0,0.0
4052,82.0,720.0,600.0,0.0,0.0
4053,94.0,24.0,600.0,0.0,0.0
4054,72.0,228.0,330.0,0.0,0.0
4055,74.0,112.0,210.0,0.0,0.0
4056,70.0,8.0,990.0,0.0,0.0
4057,67.0,36.0,990.0,0.0,0.0
4058,60.0,4.0,1020.0,0.0,0.0
4059,72.0,88.0,150.0,0.0,0.0
4060,74.0,84.0,90.0,0.0,0.0
4061,72.0,68.0,90.0,0.0,0.0
4062,74.0,72.0,60.0,0.0,0.0
4063,72.0,52.0,60.0,0.0,0.0
4064,74.0,60.0,60.0,0.0,0.0
4065,72.0,40.0,60.0,0.0,0.0
4066,74.0,68.0,40.0,0.0,0.0
4067,72.0,24.0,60.0,0.0,0.0
4068,74.0,56.0,20.0,0.0,0.0
4069,72.0,44.0,40.0,0.0,0.0
4070,74.0,8.0,60.0,0.0,0.0
4071,72.0,52.0,60.0,0.0,0.0
4072,74.0,44.0,60.0,0.0,0.0
4073,72.0,96.0,60.0,0.0,0.0
4074,74.0,48.0,90.0,0.0,0.0
4075,72.0,40.0,90.0,0.0,0.0
4076,71.0,312.0,60.0,0.0,0.0
4077,36.0,24.0,240.0,0.0,0.0
4078,70.0,24.0,210.0,0.0,0.0
4079,72.0,260.0,240.0,0.0,0.0
4080,48.0,12.0,210.0,0.0,0.0
4081,64.0,0.0,210.0,0.0,0.0
4082,70.0,24.0,40.0,0.0,0.0
4083,81.0,0.0,60.0,0.0,0.0
4084,76.0,152.0,60.0,0.0,0.0
4085,69.0,8.0,240.0,0.0,0.0
4086,64.0,248.0,240.0,0.0,0.0
4087,58.0,8.0,210.0,0.0,0.0
4088,60.0,4.0,240.0,0.0,0.0
4089,67.0,4.0,150.0,0.0,0.0
4090,64.0,8.0,150.0,0.0,0.0
4091,76.0,8.0,150.0,0.0,0.0
4092,82.0,0.0,150.0,0.0,0.0
4093,70.0,8.0,150.0,0.0,0.0
4094,58.0,444.0,180.0,0.0,0.0
4095,60.0,20.0,150.0,0.0,0.0
4096,75.0,16.0,270.0,0.0,0.0
4097,72.0,8.0,270.0,0.0,0.0
4098,84.0,4.0,270.0,0.0,0.0
4099,82.0,256.0,300.0,0.0,0.0
4100,79.0,24.0,270.0,0.0,0.0
4101,53.0,8.0,240.0,0.0,0.0
4102,41.0,24.0,210.0,0.0,0.0
4103,91.0,48.0,180.0,0.0,0.0
4104,82.0,28.0,240.0,0.0,0.0
4105,74.0,0.0,40.0,0.0,0.0
4106,79.0,800.0,270.0,0.0,0.0
4107,63.0,4.0,40.0,0.0,0.0
4108,70.0,8.0,30.0,0.0,0.0
4109,67.0,140.0,40.0,0.0,0.0
4110,81.0,12.0,450.0,0.0,0.0
4111,77.0,632.0,570.0,0.0,0.0
4112,53.0,0.0,450.0,0.0,0.0
4113,69.0,32.0,450.0,0.0,0.0
4114,65.0,28.0,360.0,0.0,0.0
4115,75.0,84.0,480.0,0.0,0.0
4116,60.0,40.0,390.0,0.0,0.0
4117,82.0,4.0,1020.0,0.0,0.0
4118,46.0,644.0,390.0,0.0,0.0
4119,70.0,4.0,1020.0,0.0,0.0
4120,74.0,52.0,1020.0,0.0,0.0
4121,34.0,28.0,330.0,0.0,0.0
4122,53.0,480.0,540.0,0.0,0.0
4123,65.0,24.0,150.0,0.0,0.0
4124,58.0,16.0,120.0,0.0,0.0
4125,82.0,48.0,750.0,0.0,0.0
4126,65.0,24.0,360.0,0.0,0.0
4127,70.0,108.0,810.0,0.0,0.0
4128,58.0,40.0,360.0,0.0,0.0
4129,74.0,64.0,270.0,0.0,0.0
4130,75.0,184.0,150.0,0.0,0.0
4131,53.0,76.0,60.0,0.0,0.0
4132,46.0,72.0,60.0,0.0,0.0
4133,76.0,300.0,300.0,0.0,0.0
4134,82.0,8.0,270.0,0.0,0.0
4135,77.0,16.0,270.0,0.0,0.0
4136,72.0,228.0,300.0,0.0,0.0
4137,46.0,44.0,240.0,0.0,0.0
4138,34.0,32.0,180.0,0.0,0.0
4139,53.0,20.0,810.0,0.0,0.0
4140,81.0,160.0,270.0,0.0,0.0
4141,77.0,188.0,60.0,0.0,0.0
4142,65.0,12.0,90.0,0.0,0.0
4143,70.0,40.0,150.0,0.0,0.0
4144,60.0,60.0,90.0,0.0,0.0
4145,77.0,284.0,90.0,0.0,0.0
4146,65.0,68.0,270.0,0.0,0.0
4147,70.0,32.0,210.0,0.0,0.0
4148,60.0,52.0,330.0,0.0,0.0
4149,72.0,180.0,480.0,0.0,0.0
4150,77.0,20.0,450.0,0.0,0.0
4151,69.0,28.0,120.0,0.0,0.0
4152,53.0,56.0,60.0,0.0,0.0
4153,46.0,148.0,60.0,0.0,0.0
4154,65.0,384.0,40.0,0.0,0.0
4155,34.0,32.0,270.0,0.0,0.0
4156,72.0,28.0,480.0,0.0,0.0
4157,80.0,0.0,780.0,0.0,0.0
4158,68.0,20.0,450.0,0.0,0.0
4159,46.0,240.0,210.0,0.0,0.0
4160,53.0,24.0,330.0,0.0,0.0
4161,74.0,232.0,90.0,0.0,0.0
4162,75.0,0.0,90.0,0.0,0.0
4163,68.0,452.0,60.0,0.0,0.0
4164,65.0,8.0,60.0,0.0,0.0
4165,60.0,0.0,40.0,0.0,0.0
4166,65.0,88.0,240.0,0.0,0.0
4167,80.0,400.0,780.0,0.0,0.0
4168,74.0,8.0,390.0,0.0,0.0
4169,58.0,32.0,330.0,0.0,0.0
4170,68.0,12.0,330.0,0.0,0.0
4171,53.0,40.0,60.0,0.0,0.0
4172,79.0,248.0,90.0,0.0,0.0
4173,46.0,24.0,40.0,0.0,0.0
4174,72.0,32.0,60.0,0.0,0.0
4175,77.0,40.0,90.0,0.0,0.0
4176,34.0,28.0,180.0,0.0,0.0
4177,80.0,56.0,300.0,0.0,0.0
4178,46.0,108.0,180.0,0.0,0.0
4179,77.0,120.0,360.0,0.0,0.0
4180,70.0,4.0,330.0,0.0,0.0
4181,79.0,116.0,240.0,0.0,0.0
4182,75.0,192.0,60.0,0.0,0.0
4183,55.0,16.0,690.0,0.0,0.0
4184,68.0,4.0,60.0,0.0,0.0
4185,58.0,96.0,90.0,0.0,0.0
4186,63.0,8.0,60.0,0.0,0.0
4187,75.0,212.0,60.0,0.0,0.0
4188,75.0,48.0,570.0,0.0,0.0
4189,63.0,40.0,300.0,0.0,0.0
4190,58.0,44.0,330.0,0.0,0.0
4191,68.0,136.0,150.0,0.0,0.0
4192,70.0,72.0,600.0,0.0,0.0
4193,67.0,108.0,150.0,0.0,0.0
4194,55.0,76.0,60.0,0.0,0.0
4195,46.0,228.0,40.0,0.0,0.0
4196,63.0,120.0,120.0,0.0,0.0
4197,34.0,32.0,180.0,0.0,0.0
4198,63.0,36.0,90.0,0.0,0.0
4199,71.0,44.0,90.0,0.0,0.0
4200,46.0,388.0,120.0,0.0,0.0
4201,78.0,0.0,60.0,0.0,0.0
4202,54.0,284.0,570.0,0.0,0.0
4203,65.0,296.0,60.0,0.0,0.0
4204,66.0,16.0,90.0,0.0,0.0
4205,63.0,8.0,90.0,0.0,0.0
4206,59.0,184.0,90.0,0.0,0.0
4207,78.0,4.0,330.0,0.0,0.0
4208,63.0,20.0,300.0,0.0,0.0
4209,59.0,16.0,330.0,0.0,0.0
4210,75.0,20.0,360.0,0.0,0.0
4211,66.0,12.0,330.0,0.0,0.0
4212,71.0,240.0,60.0,0.0,0.0
4213,54.0,8.0,40.0,0.0,0.0
4214,63.0,408.0,60.0,0.0,0.0
4215,46.0,8.0,40.0,0.0,0.0
4216,34.0,24.0,180.0,0.0,0.0
4217,75.0,0.0,180.0,0.0,0.0
4218,78.0,8.0,150.0,0.0,0.0
4219,66.0,256.0,180.0,0.0,0.0
4220,54.0,200.0,450.0,0.0,0.0
4221,74.0,216.0,150.0,0.0,0.0
4222,65.0,60.0,90.0,0.0,0.0
4223,66.0,8.0,90.0,0.0,0.0
4224,75.0,32.0,60.0,0.0,0.0
4225,59.0,36.0,90.0,0.0,0.0
4226,66.0,136.0,150.0,0.0,0.0
4227,71.0,88.0,270.0,0.0,0.0
4228,59.0,156.0,360.0,0.0,0.0
4229,63.0,80.0,60.0,0.0,0.0
4230,70.0,244.0,210.0,0.0,0.0
4231,54.0,20.0,510.0,0.0,0.0
4232,61.0,20.0,180.0,0.0,0.0
4233,69.0,396.0,180.0,0.0,0.0
4234,63.0,44.0,120.0,0.0,0.0
4235,59.0,8.0,180.0,0.0,0.0
4236,34.0,152.0,210.0,0.0,0.0
4237,70.0,20.0,150.0,0.0,0.0
4238,58.0,32.0,120.0,0.0,0.0
4239,72.0,96.0,90.0,0.0,0.0
4240,70.0,76.0,90.0,0.0,0.0
4241,72.0,80.0,90.0,0.0,0.0
4242,53.0,48.0,450.0,0.0,0.0
4243,70.0,68.0,90.0,0.0,0.0
4244,72.0,68.0,90.0,0.0,0.0
4245,70.0,68.0,90.0,0.0,0.0
4246,72.0,44.0,90.0,0.0,0.0
4247,62.0,0.0,120.0,0.0,0.0
4248,70.0,48.0,40.0,0.0,0.0
4249,72.0,8.0,60.0,0.0,0.0
4250,70.0,88.0,60.0,0.0,0.0
4251,69.0,92.0,90.0,0.0,0.0
4252,70.0,164.0,120.0,0.0,0.0
4253,54.0,44.0,420.0,0.0,0.0
4254,71.0,60.0,180.0,0.0,0.0
4255,64.0,28.0,330.0,0.0,0.0
4256,72.0,60.0,90.0,0.0,0.0
4257,74.0,56.0,60.0,0.0,0.0
4258,72.0,20.0,90.0,0.0,0.0
4259,60.0,4.0,60.0,0.0,0.0
4260,74.0,76.0,60.0,0.0,0.0
4261,72.0,52.0,60.0,0.0,0.0
4262,74.0,72.0,60.0,0.0,0.0
4263,72.0,52.0,60.0,0.0,0.0
4264,74.0,36.0,60.0,0.0,0.0
4265,46.0,12.0,60.0,0.0,0.0
4266,72.0,52.0,60.0,0.0,0.0
4267,74.0,60.0,60.0,0.0,0.0
4268,72.0,44.0,60.0,0.0,0.0
4269,71.0,104.0,90.0,0.0,0.0
4270,73.0,32.0,30.0,0.0,0.0
4271,72.0,88.0,120.0,0.0,0.0
4272,54.0,28.0,270.0,0.0,0.0
4273,63.0,4.0,300.0,0.0,0.0
4274,73.0,68.0,120.0,0.0,0.0
4275,75.0,72.0,90.0,0.0,0.0
4276,73.0,12.0,60.0,0.0,0.0
4277,75.0,72.0,60.0,0.0,0.0
4278,58.0,28.0,120.0,0.0,0.0
4279,73.0,12.0,60.0,0.0,0.0
4280,75.0,72.0,60.0,0.0,0.0
4281,73.0,52.0,60.0,0.0,0.0
4282,75.0,68.0,60.0,0.0,0.0
4283,73.0,44.0,60.0,0.0,0.0
4284,63.0,8.0,90.0,0.0,0.0
4285,54.0,8.0,60.0,0.0,0.0
4286,75.0,76.0,90.0,0.0,0.0
4287,73.0,64.0,90.0,0.0,0.0
4288,72.0,108.0,60.0,0.0,0.0
4289,73.0,196.0,90.0,0.0,0.0
4290,53.0,24.0,210.0,0.0,0.0
4291,74.0,68.0,180.0,0.0,0.0
4292,65.0,16.0,360.0,0.0,0.0
4293,69.0,72.0,270.0,0.0,0.0
4294,75.0,36.0,90.0,0.0,0.0
4295,74.0,52.0,90.0,0.0,0.0
4296,62.0,8.0,210.0,0.0,0.0
4297,57.0,16.0,180.0,0.0,0.0
4298,75.0,76.0,90.0,0.0,0.0
4299,74.0,24.0,90.0,0.0,0.0
4300,75.0,60.0,60.0,0.0,0.0
4301,74.0,76.0,60.0,0.0,0.0
4302,75.0,64.0,90.0,0.0,0.0
4303,74.0,84.0,60.0,0.0,0.0
4304,75.0,4.0,90.0,0.0,0.0
4305,65.0,88.0,40.0,0.0,0.0
4306,53.0,124.0,150.0,0.0,0.0
4307,74.0,0.0,120.0,0.0,0.0
4308,73.0,60.0,150.0,0.0,0.0
4309,74.0,312.0,60.0,0.0,0.0
4310,34.0,36.0,300.0,0.0,0.0
4311,67.0,24.0,120.0,0.0,0.0
4312,72.0,52.0,120.0,0.0,0.0
4313,76.0,12.0,90.0,0.0,0.0
4314,46.0,872.0,150.0,0.0,0.0
4315,84.0,12.0,870.0,0.0,0.0
4316,55.0,100.0,690.0,0.0,0.0
4317,79.0,24.0,390.0,0.0,0.0
4318,72.0,240.0,120.0,0.0,0.0
4319,67.0,4.0,90.0,0.0,0.0
4320,60.0,0.0,90.0,0.0,0.0
4321,64.0,8.0,60.0,0.0,0.0
4322,67.0,52.0,240.0,0.0,0.0
4323,84.0,16.0,270.0,0.0,0.0
4324,64.0,32.0,330.0,0.0,0.0
4325,60.0,16.0,360.0,0.0,0.0
4326,79.0,28.0,300.0,0.0,0.0
4327,72.0,20.0,360.0,0.0,0.0
4328,76.0,64.0,150.0,0.0,0.0
4329,55.0,32.0,60.0,0.0,0.0
4330,80.0,216.0,90.0,0.0,0.0
4331,77.0,4.0,90.0,0.0,0.0
4332,82.0,8.0,60.0,0.0,0.0
4333,70.0,16.0,40.0,0.0,0.0
4334,46.0,4.0,30.0,0.0,0.0
4335,79.0,472.0,60.0,0.0,0.0
4336,85.0,4.0,210.0,0.0,0.0
4337,73.0,488.0,270.0,0.0,0.0
4338,79.0,20.0,240.0,0.0,0.0
4339,76.0,4.0,240.0,0.0,0.0
4340,46.0,32.0,210.0,0.0,0.0
4341,34.0,32.0,150.0,0.0,0.0
4342,84.0,36.0,330.0,0.0,0.0
4343,80.0,52.0,360.0,0.0,0.0
4344,56.0,12.0,540.0,0.0,0.0
4345,65.0,24.0,120.0,0.0,0.0
4346,68.0,4.0,150.0,0.0,0.0
4347,72.0,28.0,150.0,0.0,0.0
4348,60.0,64.0,150.0,0.0,0.0
4349,80.0,232.0,90.0,0.0,0.0
4350,77.0,12.0,90.0,0.0,0.0
4351,80.0,248.0,480.0,0.0,0.0
4352,73.0,152.0,90.0,0.0,0.0
4353,65.0,36.0,300.0,0.0,0.0
4354,77.0,24.0,420.0,0.0,0.0
4355,60.0,80.0,330.0,0.0,0.0
4356,68.0,40.0,240.0,0.0,0.0
4357,56.0,12.0,60.0,0.0,0.0
4358,72.0,24.0,90.0,0.0,0.0
4359,46.0,192.0,40.0,0.0,0.0
4360,68.0,344.0,60.0,0.0,0.0
4361,34.0,24.0,240.0,0.0,0.0
4362,71.0,8.0,210.0,0.0,0.0
4363,46.0,12.0,210.0,0.0,0.0
4364,75.0,384.0,210.0,0.0,0.0
4365,83.0,4.0,870.0,0.0,0.0
4366,80.0,8.0,900.0,0.0,0.0
4367,74.0,284.0,150.0,0.0,0.0
4368,77.0,0.0,150.0,0.0,0.0
4369,56.0,0.0,930.0,0.0,0.0
4370,78.0,8.0,90.0,0.0,0.0
4371,75.0,4.0,90.0,0.0,0.0
4372,63.0,8.0,90.0,0.0,0.0
4373,68.0,8.0,90.0,0.0,0.0
4374,59.0,456.0,90.0,0.0,0.0
4375,59.0,24.0,390.0,0.0,0.0
4376,80.0,56.0,570.0,0.0,0.0
4377,74.0,24.0,240.0,0.0,0.0
4378,64.0,52.0,270.0,0.0,0.0
4379,68.0,16.0,270.0,0.0,0.0
4380,71.0,8.0,210.0,0.0,0.0
4381,83.0,16.0,600.0,0.0,0.0
4382,56.0,16.0,60.0,0.0,0.0
4383,76.0,176.0,90.0,0.0,0.0
4384,73.0,12.0,60.0,0.0,0.0
4385,77.0,428.0,60.0,0.0,0.0
4386,74.0,0.0,40.0,0.0,0.0
4387,46.0,24.0,40.0,0.0,0.0
4388,71.0,24.0,510.0,0.0,0.0
4389,83.0,44.0,270.0,0.0,0.0
4390,74.0,168.0,540.0,0.0,0.0
4391,78.0,216.0,300.0,0.0,0.0
4392,46.0,60.0,180.0,0.0,0.0
4393,34.0,36.0,150.0,0.0,0.0
4394,78.0,8.0,300.0,0.0,0.0
4395,82.0,80.0,330.0,0.0,0.0
4396,54.0,32.0,870.0,0.0,0.0
4397,62.0,16.0,60.0,0.0,0.0
4398,66.0,8.0,60.0,0.0,0.0
4399,74.0,0.0,60.0,0.0,0.0
4400,58.0,176.0,90.0,0.0,0.0
4401,70.0,4.0,60.0,0.0,0.0
4402,78.0,196.0,120.0,0.0,0.0
4403,63.0,32.0,360.0,0.0,0.0
4404,66.0,88.0,270.0,0.0,0.0
4405,75.0,60.0,1050.0,0.0,0.0
4406,78.0,216.0,480.0,0.0,0.0
4407,71.0,88.0,150.0,0.0,0.0
4408,58.0,24.0,390.0,0.0,0.0
4409,70.0,32.0,90.0,0.0,0.0
4410,54.0,40.0,60.0,0.0,0.0
4411,46.0,216.0,40.0,0.0,0.0
4412,66.0,128.0,120.0,0.0,0.0
4413,66.0,16.0,90.0,0.0,0.0
4414,34.0,28.0,240.0,0.0,0.0
4415,74.0,88.0,60.0,0.0,0.0
4416,81.0,4.0,60.0,0.0,0.0
4417,46.0,396.0,60.0,0.0,0.0
4418,68.0,364.0,60.0,0.0,0.0
4419,54.0,48.0,990.0,0.0,0.0
4420,66.0,16.0,60.0,0.0,0.0
4421,57.0,4.0,90.0,0.0,0.0
4422,69.0,484.0,90.0,0.0,0.0
4423,62.0,12.0,40.0,0.0,0.0
4424,81.0,8.0,210.0,0.0,0.0
4425,72.0,20.0,330.0,0.0,0.0
4426,62.0,24.0,300.0,0.0,0.0
4427,69.0,24.0,210.0,0.0,0.0
4428,66.0,16.0,300.0,0.0,0.0
4429,57.0,20.0,330.0,0.0,0.0
4430,68.0,36.0,330.0,0.0,0.0
4431,54.0,280.0,60.0,0.0,0.0
4432,69.0,12.0,20.0,0.0,0.0
4433,46.0,0.0,40.0,0.0,0.0
4434,67.0,476.0,60.0,0.0,0.0
4435,75.0,8.0,210.0,0.0,0.0
4436,34.0,28.0,150.0,0.0,0.0
4437,46.0,16.0,180.0,0.0,0.0
4438,66.0,280.0,210.0,0.0,0.0
4439,69.0,0.0,210.0,0.0,0.0
4440,73.0,308.0,60.0,0.0,0.0
4441,54.0,28.0,780.0,0.0,0.0
4442,65.0,24.0,30.0,0.0,0.0
4443,66.0,120.0,60.0,0.0,0.0
4444,71.0,264.0,90.0,0.0,0.0
4445,63.0,20.0,60.0,0.0,0.0
4446,66.0,4.0,210.0,0.0,0.0
4447,71.0,324.0,210.0,0.0,0.0
4448,63.0,8.0,150.0,0.0,0.0
4449,70.0,8.0,210.0,0.0,0.0
4450,61.0,380.0,210.0,0.0,0.0
4451,54.0,468.0,630.0,0.0,0.0
4452,63.0,20.0,180.0,0.0,0.0
4453,69.0,8.0,210.0,0.0,0.0
4454,59.0,20.0,210.0,0.0,0.0
4455,34.0,40.0,180.0,0.0,0.0
4456,69.0,48.0,150.0,0.0,0.0
4457,59.0,80.0,270.0,0.0,0.0
4458,46.0,64.0,210.0,0.0,0.0
4459,62.0,108.0,90.0,0.0,0.0
4460,64.0,136.0,60.0,0.0,0.0
4461,63.0,108.0,90.0,0.0,0.0
4462,65.0,76.0,90.0,0.0,0.0
4463,54.0,20.0,390.0,0.0,0.0
4464,68.0,108.0,60.0,0.0,0.0
4465,66.0,92.0,90.0,0.0,0.0
4466,68.0,32.0,90.0,0.0,0.0
4467,71.0,8.0,60.0,0.0,0.0
4468,59.0,100.0,60.0,0.0,0.0
4469,69.0,88.0,90.0,0.0,0.0
4470,74.0,48.0,90.0,0.0,0.0
4471,76.0,104.0,60.0,0.0,0.0
4472,69.0,12.0,390.0,0.0,0.0
4473,59.0,24.0,330.0,0.0,0.0
4474,75.0,80.0,60.0,0.0,0.0
4475,77.0,44.0,90.0,0.0,0.0
4476,80.0,92.0,60.0,0.0,0.0
4477,78.0,48.0,60.0,0.0,0.0
4478,80.0,36.0,60.0,0.0,0.0
4479,83.0,88.0,60.0,0.0,0.0
4480,81.0,76.0,60.0,0.0,0.0
4481,86.0,36.0,60.0,0.0,0.0
4482,88.0,88.0,40.0,0.0,0.0
4483,87.0,60.0,60.0,0.0,0.0
4484,89.0,48.0,60.0,0.0,0.0
4485,92.0,72.0,60.0,0.0,0.0
4486,75.0,4.0,480.0,0.0,0.0
4487,69.0,4.0,420.0,0.0,0.0
4488,66.0,36.0,420.0,0.0,0.0
4489,90.0,64.0,60.0,0.0,0.0
4490,92.0,24.0,60.0,0.0,0.0
4491,95.0,96.0,40.0,0.0,0.0
4492,93.0,16.0,20.0,0.0,0.0
4493,93.0,64.0,60.0,0.0,0.0
4494,98.0,44.0,60.0,0.0,0.0
4495,100.0,44.0,40.0,0.0,0.0
4496,99.0,104.0,60.0,0.0,0.0
4497,102.0,148.0,90.0,0.0,0.0
4498,105.0,44.0,150.0,0.0,0.0
4499,102.0,28.0,150.0,0.0,0.0
4500,99.0,28.0,90.0,0.0,0.0
4501,95.0,144.0,60.0,0.0,0.0
4502,93.0,76.0,120.0,0.0,0.0
4503,90.0,96.0,120.0,0.0,0.0
4504,87.0,64.0,120.0,0.0,0.0
4505,83.0,316.0,90.0,0.0,0.0
4506,81.0,68.0,330.0,0.0,0.0
4507,78.0,136.0,360.0,0.0,0.0
4508,75.0,24.0,240.0,0.0,0.0
4509,71.0,20.0,120.0,0.0,0.0
4510,69.0,116.0,180.0,0.0,0.0
4511,66.0,192.0,150.0,0.0,0.0
4512,63.0,44.0,210.0,0.0,0.0
4513,59.0,536.0,90.0,0.0,0.0
4514,70.0,100.0,900.0,0.0,0.0
4515,58.0,464.0,450.0,0.0,0.0
4516,34.0,128.0,300.0,0.0,0.0
4517,53.0,84.0,360.0,0.0,0.0
4518,65.0,320.0,90.0,0.0,0.0
4519,64.0,84.0,90.0,0.0,0.0
4520,67.0,256.0,90.0,0.0,0.0
4521,65.0,20.0,480.0,0.0,0.0
4522,84.0,40.0,210.0,0.0,0.0
4523,75.0,52.0,240.0,0.0,0.0
4524,72.0,48.0,60.0,0.0,0.0
4525,81.0,92.0,120.0,0.0,0.0
4526,84.0,8.0,90.0,0.0,0.0
4527,75.0,120.0,60.0,0.0,0.0
4528,79.0,80.0,150.0,0.0,0.0
4529,70.0,88.0,40.0,0.0,0.0
4530,53.0,4.0,210.0,0.0,0.0
4531,84.0,88.0,90.0,0.0,0.0
4532,75.0,36.0,150.0,0.0,0.0
4533,77.0,296.0,90.0,0.0,0.0
4534,65.0,48.0,40.0,0.0,0.0
4535,74.0,332.0,810.0,0.0,0.0
4536,82.0,16.0,780.0,0.0,0.0
4537,46.0,524.0,210.0,0.0,0.0
4538,53.0,52.0,360.0,0.0,0.0
4539,65.0,8.0,60.0,0.0,0.0
4540,64.0,72.0,90.0,0.0,0.0
4541,67.0,208.0,90.0,0.0,0.0
4542,65.0,20.0,420.0,0.0,0.0
4543,84.0,28.0,210.0,0.0,0.0
4544,75.0,72.0,210.0,0.0,0.0
4545,72.0,32.0,90.0,0.0,0.0
4546,81.0,64.0,120.0,0.0,0.0
4547,84.0,16.0,60.0,0.0,0.0
4548,75.0,100.0,60.0,0.0,0.0
4549,79.0,80.0,150.0,0.0,0.0
4550,70.0,88.0,40.0,0.0,0.0
4551,53.0,60.0,120.0,0.0,0.0
4552,84.0,32.0,60.0,0.0,0.0
4553,75.0,32.0,150.0,0.0,0.0
4554,77.0,312.0,180.0,0.0,0.0
4555,65.0,132.0,20.0,0.0,0.0
4556,74.0,196.0,780.0,0.0,0.0
4557,82.0,0.0,780.0,0.0,0.0
4558,34.0,500.0,270.0,0.0,0.0
4559,53.0,8.0,1140.0,0.0,0.0
4560,62.0,460.0,150.0,0.0,0.0
4561,72.0,132.0,240.0,0.0,0.0
4562,63.0,12.0,360.0,0.0,0.0
4563,69.0,24.0,180.0,0.0,0.0
4564,60.0,20.0,210.0,0.0,0.0
4565,72.0,176.0,90.0,0.0,0.0
4566,67.0,112.0,240.0,0.0,0.0
4567,58.0,152.0,90.0,0.0,0.0
4568,53.0,76.0,210.0,0.0,0.0
4569,72.0,20.0,180.0,0.0,0.0
4570,65.0,512.0,210.0,0.0,0.0
4571,57.0,96.0,90.0,0.0,0.0
4572,46.0,24.0,510.0,0.0,0.0
4573,70.0,292.0,870.0,0.0,0.0
4574,62.0,336.0,540.0,0.0,0.0
4575,53.0,12.0,1410.0,0.0,0.0
4576,62.0,468.0,330.0,0.0,0.0
4577,72.0,184.0,300.0,0.0,0.0
4578,63.0,60.0,480.0,0.0,0.0
4579,69.0,8.0,240.0,0.0,0.0
4580,60.0,232.0,330.0,0.0,0.0
4581,72.0,8.0,120.0,0.0,0.0
4582,67.0,240.0,330.0,0.0,0.0
4583,58.0,204.0,90.0,0.0,0.0
4584,53.0,40.0,360.0,0.0,0.0
4585,72.0,52.0,300.0,0.0,0.0
4586,65.0,652.0,180.0,0.0,0.0
4587,57.0,84.0,60.0,0.0,0.0
4588,62.0,44.0,540.0,0.0,0.0
4589,70.0,756.0,570.0,0.0,0.0
4590,46.0,40.0,480.0,0.0,0.0
4591,34.0,48.0,420.0,0.0,0.0
4592,62.0,72.0,510.0,0.0,0.0
4593,53.0,420.0,600.0,0.0,0.0
4594,58.0,176.0,330.0,0.0,0.0
4595,58.0,12.0,660.0,0.0,0.0
4596,55.0,32.0,720.0,0.0,0.0
4597,63.0,44.0,690.0,0.0,0.0
4598,67.0,128.0,120.0,0.0,0.0
4599,69.0,108.0,120.0,0.0,0.0
4600,70.0,12.0,120.0,0.0,0.0
4601,72.0,52.0,120.0,0.0,0.0
4602,74.0,92.0,90.0,0.0,0.0
4603,75.0,92.0,90.0,0.0,0.0
4604,62.0,28.0,150.0,0.0,0.0
4605,53.0,48.0,300.0,0.0,0.0
4606,58.0,0.0,180.0,0.0,0.0
4607,76.0,40.0,90.0,0.0,0.0
4608,77.0,92.0,90.0,0.0,0.0
4609,82.0,32.0,90.0,0.0,0.0
4610,79.0,80.0,90.0,0.0,0.0
4611,77.0,100.0,90.0,0.0,0.0
4612,58.0,32.0,450.0,0.0,0.0
4613,51.0,16.0,630.0,0.0,0.0
4614,60.0,28.0,480.0,0.0,0.0
4615,79.0,76.0,90.0,0.0,0.0
4616,77.0,60.0,90.0,0.0,0.0
4617,74.0,76.0,60.0,0.0,0.0
4618,72.0,48.0,60.0,0.0,0.0
4619,74.0,76.0,90.0,0.0,0.0
4620,72.0,48.0,90.0,0.0,0.0
4621,70.0,72.0,60.0,0.0,0.0
4622,58.0,48.0,120.0,0.0,0.0
4623,62.0,24.0,90.0,0.0,0.0
4624,67.0,32.0,60.0,0.0,0.0
4625,53.0,20.0,150.0,0.0,0.0
4626,70.0,88.0,90.0,0.0,0.0
4627,67.0,76.0,90.0,0.0,0.0
4628,65.0,196.0,90.0,0.0,0.0
4629,63.0,36.0,510.0,0.0,0.0
4630,55.0,0.0,450.0,0.0,0.0
4631,58.0,32.0,450.0,0.0,0.0
4632,67.0,116.0,60.0,0.0,0.0
4633,69.0,84.0,90.0,0.0,0.0
4634,70.0,76.0,90.0,0.0,0.0
4635,72.0,12.0,120.0,0.0,0.0
4636,74.0,88.0,60.0,0.0,0.0
4637,75.0,112.0,90.0,0.0,0.0
4638,77.0,56.0,120.0,0.0,0.0
4639,67.0,136.0,270.0,0.0,0.0
4640,63.0,120.0,450.0,0.0,0.0
4641,58.0,32.0,240.0,0.0,0.0
4642,79.0,92.0,90.0,0.0,0.0
4643,81.0,56.0,90.0,0.0,0.0
4644,82.0,4.0,90.0,0.0,0.0
4645,87.0,24.0,150.0,0.0,0.0
4646,86.0,88.0,150.0,0.0,0.0
4647,62.0,32.0,450.0,0.0,0.0
4648,65.0,88.0,510.0,0.0,0.0
4649,58.0,32.0,480.0,0.0,0.0
4650,82.0,80.0,90.0,0.0,0.0
4651,81.0,112.0,60.0,0.0,0.0
4652,79.0,32.0,120.0,0.0,0.0
4653,82.0,0.0,120.0,0.0,0.0
4654,79.0,64.0,90.0,0.0,0.0
4655,77.0,80.0,60.0,0.0,0.0
4656,75.0,104.0,60.0,0.0,0.0
4657,74.0,84.0,90.0,0.0,0.0
4658,65.0,8.0,240.0,0.0,0.0
4659,53.0,60.0,180.0,0.0,0.0
4660,72.0,20.0,90.0,0.0,0.0
4661,70.0,80.0,90.0,0.0,0.0
4662,74.0,96.0,90.0,0.0,0.0
4663,67.0,32.0,360.0,0.0,0.0
4664,58.0,40.0,390.0,0.0,0.0
4665,75.0,96.0,90.0,0.0,0.0
4666,77.0,52.0,90.0,0.0,0.0
4667,79.0,88.0,60.0,0.0,0.0
4668,81.0,24.0,90.0,0.0,0.0
4669,82.0,96.0,90.0,0.0,0.0
4670,84.0,48.0,120.0,0.0,0.0
4671,86.0,88.0,90.0,0.0,0.0
4672,87.0,100.0,90.0,0.0,0.0
4673,88.0,36.0,90.0,0.0,0.0
4674,62.0,28.0,120.0,0.0,0.0
4675,53.0,0.0,90.0,0.0,0.0
4676,65.0,24.0,150.0,0.0,0.0
4677,89.0,96.0,90.0,0.0,0.0
4678,94.0,100.0,120.0,0.0,0.0
4679,91.0,84.0,120.0,0.0,0.0
4680,89.0,116.0,90.0,0.0,0.0
4681,74.0,4.0,510.0,0.0,0.0
4682,62.0,36.0,540.0,0.0,0.0
4683,65.0,36.0,510.0,0.0,0.0
4684,91.0,88.0,120.0,0.0,0.0
4685,89.0,84.0,90.0,0.0,0.0
4686,86.0,80.0,90.0,0.0,0.0
4687,84.0,56.0,60.0,0.0,0.0
4688,86.0,84.0,120.0,0.0,0.0
4689,84.0,84.0,90.0,0.0,0.0
4690,82.0,92.0,90.0,0.0,0.0
4691,79.0,156.0,90.0,0.0,0.0
4692,70.0,36.0,240.0,0.0,0.0
4693,65.0,20.0,210.0,0.0,0.0
4694,62.0,60.0,270.0,0.0,0.0
4695,82.0,8.0,150.0,0.0,0.0
4696,79.0,100.0,120.0,0.0,0.0
4697,77.0,136.0,120.0,0.0,0.0
4698,60.0,12.0,750.0,0.0,0.0
4699,67.0,4.0,720.0,0.0,0.0
4700,70.0,96.0,720.0,0.0,0.0
4701,75.0,124.0,120.0,0.0,0.0
4702,79.0,108.0,120.0,0.0,0.0
4703,82.0,56.0,120.0,0.0,0.0
4704,86.0,156.0,60.0,0.0,0.0
4705,87.0,136.0,120.0,0.0,0.0
4706,89.0,8.0,150.0,0.0,0.0
4707,91.0,164.0,120.0,0.0,0.0
4708,93.0,168.0,150.0,0.0,0.0
4709,75.0,36.0,360.0,0.0,0.0
4710,65.0,68.0,450.0,0.0,0.0
4711,69.0,48.0,390.0,0.0,0.0
4712,94.0,184.0,150.0,0.0,0.0
4713,96.0,20.0,180.0,0.0,0.0
4714,98.0,204.0,180.0,0.0,0.0
4715,99.0,184.0,180.0,0.0,0.0
4716,58.0,440.0,240.0,0.0,0.0
4717,65.0,56.0,2190.0,0.0,0.0
4718,100.0,164.0,270.0,0.0,0.0
4719,74.0,44.0,1860.0,0.0,0.0
4720,101.0,248.0,150.0,0.0,0.0
4721,106.0,116.0,210.0,0.0,0.0
4722,103.0,128.0,150.0,0.0,0.0
4723,101.0,140.0,150.0,0.0,0.0
4724,99.0,120.0,150.0,0.0,0.0
4725,98.0,120.0,120.0,0.0,0.0
4726,96.0,96.0,120.0,0.0,0.0
4727,94.0,116.0,90.0,0.0,0.0
4728,98.0,88.0,120.0,0.0,0.0
4729,94.0,96.0,90.0,0.0,0.0
4730,93.0,104.0,90.0,0.0,0.0
4731,91.0,44.0,90.0,0.0,0.0
4732,94.0,36.0,90.0,0.0,0.0
4733,91.0,52.0,90.0,0.0,0.0
4734,89.0,80.0,60.0,0.0,0.0
4735,87.0,84.0,60.0,0.0,0.0
4736,86.0,72.0,90.0,0.0,0.0
4737,84.0,64.0,90.0,0.0,0.0
4738,82.0,68.0,60.0,0.0,0.0
4739,86.0,64.0,60.0,0.0,0.0
4740,82.0,72.0,60.0,0.0,0.0
4741,81.0,80.0,60.0,0.0,0.0
4742,79.0,68.0,90.0,0.0,0.0
4743,82.0,48.0,90.0,0.0,0.0
4744,79.0,52.0,60.0,0.0,0.0
4745,77.0,64.0,60.0,0.0,0.0
4746,75.0,68.0,60.0,0.0,0.0
4747,74.0,52.0,90.0,0.0,0.0
4748,72.0,60.0,60.0,0.0,0.0
4749,70.0,56.0,90.0,0.0,0.0
4750,74.0,44.0,60.0,0.0,0.0
4751,70.0,44.0,60.0,0.0,0.0
4752,69.0,68.0,40.0,0.0,0.0
4753,67.0,64.0,60.0,0.0,0.0
4754,70.0,32.0,90.0,0.0,0.0
4755,67.0,48.0,60.0,0.0,0.0
4756,65.0,64.0,60.0,0.0,0.0
4757,63.0,64.0,60.0,0.0,0.0
4758,62.0,60.0,60.0,0.0,0.0
4759,60.0,60.0,90.0,0.0,0.0
4760,58.0,68.0,90.0,0.0,0.0
4761,62.0,44.0,90.0,0.0,0.0
4762,58.0,64.0,60.0,0.0,0.0
4763,57.0,68.0,60.0,0.0,0.0
4764,55.0,52.0,60.0,0.0,0.0
4765,53.0,72.0,60.0,0.0,0.0
4766,51.0,88.0,60.0,0.0,0.0
4767,50.0,60.0,90.0,0.0,0.0
4768,48.0,36.0,90.0,0.0,0.0
4769,46.0,56.0,60.0,0.0,0.0
4770,45.0,68.0,60.0,0.0,0.0
4771,43.0,48.0,60.0,0.0,0.0
4772,41.0,80.0,60.0,0.0,0.0
4773,39.0,108.0,60.0,0.0,0.0
4774,38.0,36.0,90.0,0.0,0.0
4775,36.0,424.0,60.0,0.0,0.0
4776,34.0,320.0,420.0,0.0,0.0
4777,65.0,4.0,40.0,0.0,0.0
4778,77.0,4.0,40.0,0.0,0.0
4779,89.0,584.0,40.0,0.0,0.0
4780,53.0,0.0,40.0,0.0,0.0
4781,70.0,0.0,330.0,0.0,0.0
4782,94.0,36.0,330.0,0.0,0.0
4783,58.0,564.0,390.0,0.0,0.0
4784,82.0,28.0,360.0,0.0,0.0
4785,77.0,832.0,180.0,0.0,0.0
4786,53.0,24.0,150.0,0.0,0.0
4787,65.0,4.0,150.0,0.0,0.0
4788,41.0,4.0,180.0,0.0,0.0
4789,82.0,408.0,720.0,0.0,0.0
4790,34.0,8.0,660.0,0.0,0.0
4791,70.0,44.0,690.0,0.0,0.0
4792,46.0,12.0,660.0,0.0,0.0
