,note,step,duration,channel,velocity
0,70.0,50.0,60.0,0.0,0.0
1,51.0,24.0,60.0,1.0,0.0
2,58.0,0.0,60.0,1.0,0.0
3,54.0,0.0,60.0,1.0,0.0
4,63.0,48.0,90.0,0.0,0.0
5,39.0,24.0,20.0,1.0,0.0
6,66.0,24.0,60.0,0.0,0.0
7,56.0,0.0,60.0,1.0,0.0
8,51.0,0.0,60.0,1.0,0.0
9,65.0,24.0,20.0,0.0,0.0
10,59.0,0.0,60.0,1.0,0.0
11,66.0,24.0,20.0,0.0,0.0
12,39.0,24.0,20.0,1.0,0.0
13,63.0,48.0,60.0,0.0,0.0
14,65.0,24.0,60.0,0.0,0.0
15,51.0,24.0,60.0,1.0,0.0
16,54.0,0.0,60.0,1.0,0.0
17,58.0,0.0,60.0,1.0,0.0
18,66.0,24.0,20.0,0.0,0.0
19,68.0,0.0,20.0,0.0,0.0
20,70.0,48.0,60.0,0.0,0.0
21,39.0,24.0,20.0,1.0,0.0
22,75.0,24.0,60.0,0.0,0.0
23,73.0,24.0,420.0,0.0,0.0
24,41.0,70.0,20.0,1.0,0.0
25,56.0,0.0,60.0,1.0,0.0
26,49.0,0.0,60.0,1.0,0.0
27,59.0,74.0,60.0,1.0,0.0
28,41.0,70.0,20.0,1.0,0.0
29,56.0,0.0,60.0,1.0,0.0
30,59.0,0.0,60.0,1.0,0.0
31,49.0,98.0,60.0,1.0,0.0
32,49.0,24.0,60.0,1.0,0.0
33,56.0,0.0,60.0,1.0,0.0
34,59.0,0.0,60.0,1.0,0.0
35,41.0,72.0,20.0,1.0,0.0
36,42.0,70.0,20.0,1.0,0.0
37,70.0,0.0,90.0,0.0,0.0
38,49.0,0.0,60.0,1.0,0.0
39,54.0,0.0,60.0,1.0,0.0
40,58.0,50.0,60.0,1.0,0.0
41,70.0,46.0,60.0,0.0,0.0
42,68.0,0.0,90.0,0.0,0.0
43,59.0,0.0,60.0,1.0,0.0
44,53.0,48.0,60.0,1.0,0.0
45,50.0,0.0,60.0,1.0,0.0
46,42.0,50.0,60.0,1.0,0.0
47,49.0,2.0,240.0,1.0,0.0
48,70.0,46.0,60.0,0.0,0.0
49,58.0,26.0,60.0,1.0,0.0
50,54.0,0.0,60.0,1.0,0.0
51,61.0,48.0,90.0,0.0,0.0
52,42.0,22.0,20.0,1.0,0.0
53,70.0,46.0,60.0,0.0,0.0
54,68.0,0.0,90.0,0.0,0.0
55,53.0,48.0,60.0,1.0,0.0
56,59.0,0.0,60.0,1.0,0.0
57,50.0,0.0,60.0,1.0,0.0
58,42.0,50.0,60.0,1.0,0.0
59,49.0,2.0,240.0,1.0,0.0
60,70.0,46.0,60.0,0.0,0.0
61,66.0,0.0,60.0,0.0,0.0
62,58.0,26.0,60.0,1.0,0.0
63,54.0,0.0,60.0,1.0,0.0
64,42.0,70.0,20.0,1.0,0.0
65,70.0,46.0,60.0,0.0,0.0
66,46.0,24.0,60.0,1.0,0.0
67,50.0,0.0,60.0,1.0,0.0
68,56.0,0.0,60.0,1.0,0.0
69,65.0,2.0,60.0,0.0,0.0
70,34.0,72.0,20.0,1.0,0.0
71,70.0,48.0,60.0,0.0,0.0
72,63.0,50.0,90.0,0.0,0.0
73,46.0,0.0,60.0,1.0,0.0
74,54.0,24.0,60.0,1.0,0.0
75,39.0,22.0,20.0,1.0,0.0
76,66.0,24.0,60.0,0.0,0.0
77,51.0,0.0,60.0,1.0,0.0
78,65.0,24.0,20.0,0.0,0.0
79,56.0,0.0,60.0,1.0,0.0
80,59.0,24.0,60.0,1.0,0.0
81,66.0,0.0,20.0,0.0,0.0
82,39.0,24.0,20.0,1.0,0.0
83,63.0,48.0,60.0,0.0,0.0
84,65.0,24.0,60.0,0.0,0.0
85,66.0,24.0,20.0,0.0,0.0
86,51.0,0.0,60.0,1.0,0.0
87,58.0,24.0,60.0,1.0,0.0
88,54.0,0.0,60.0,1.0,0.0
89,68.0,0.0,20.0,0.0,0.0
90,39.0,24.0,20.0,1.0,0.0
91,70.0,48.0,60.0,0.0,0.0
92,75.0,46.0,60.0,0.0,0.0
93,34.0,48.0,60.0,1.0,0.0
94,73.0,50.0,540.0,0.0,0.0
95,65.0,0.0,60.0,1.0,0.0
96,61.0,0.0,60.0,1.0,0.0
97,53.0,0.0,60.0,1.0,0.0
98,58.0,74.0,60.0,1.0,0.0
99,46.0,70.0,20.0,1.0,0.0
100,53.0,0.0,60.0,1.0,0.0
101,65.0,98.0,60.0,1.0,0.0
102,61.0,0.0,60.0,1.0,0.0
103,58.0,0.0,60.0,1.0,0.0
104,58.0,24.0,60.0,1.0,0.0
105,53.0,0.0,60.0,1.0,0.0
106,65.0,0.0,60.0,1.0,0.0
107,46.0,120.0,20.0,1.0,0.0
108,53.0,24.0,60.0,1.0,0.0
109,64.0,0.0,60.0,1.0,0.0
110,58.0,0.0,60.0,1.0,0.0
111,46.0,22.0,20.0,1.0,0.0
112,73.0,48.0,60.0,0.0,0.0
113,72.0,50.0,90.0,0.0,0.0
114,53.0,0.0,60.0,1.0,0.0
115,57.0,0.0,60.0,1.0,0.0
116,63.0,24.0,60.0,1.0,0.0
117,46.0,22.0,20.0,1.0,0.0
118,73.0,48.0,60.0,0.0,0.0
119,65.0,50.0,90.0,0.0,0.0
120,61.0,0.0,60.0,1.0,0.0
121,58.0,0.0,60.0,1.0,0.0
122,53.0,24.0,60.0,1.0,0.0
123,46.0,22.0,20.0,1.0,0.0
124,73.0,48.0,60.0,0.0,0.0
125,72.0,50.0,90.0,0.0,0.0
126,53.0,24.0,60.0,1.0,0.0
127,57.0,0.0,60.0,1.0,0.0
128,63.0,0.0,60.0,1.0,0.0
129,41.0,22.0,20.0,1.0,0.0
130,73.0,46.0,60.0,0.0,0.0
131,53.0,0.0,60.0,1.0,0.0
132,58.0,0.0,60.0,1.0,0.0
133,61.0,24.0,60.0,1.0,0.0
134,70.0,2.0,60.0,0.0,0.0
135,46.0,72.0,20.0,1.0,0.0
136,71.0,46.0,60.0,0.0,0.0
137,68.0,2.0,60.0,0.0,0.0
138,49.0,0.0,60.0,1.0,0.0
139,53.0,24.0,60.0,1.0,0.0
140,59.0,0.0,60.0,1.0,0.0
141,50.0,72.0,20.0,1.0,0.0
142,70.0,48.0,60.0,0.0,0.0
143,58.0,24.0,60.0,1.0,0.0
144,63.0,50.0,90.0,0.0,0.0
145,51.0,0.0,60.0,1.0,0.0
146,54.0,0.0,60.0,1.0,0.0
147,39.0,22.0,20.0,1.0,0.0
148,66.0,24.0,60.0,0.0,0.0
149,65.0,24.0,20.0,0.0,0.0
150,51.0,0.0,60.0,1.0,0.0
151,59.0,0.0,60.0,1.0,0.0
152,56.0,24.0,60.0,1.0,0.0
153,66.0,0.0,20.0,0.0,0.0
154,39.0,24.0,20.0,1.0,0.0
155,63.0,48.0,60.0,0.0,0.0
156,65.0,24.0,60.0,0.0,0.0
157,51.0,24.0,60.0,1.0,0.0
158,58.0,0.0,60.0,1.0,0.0
159,66.0,24.0,20.0,0.0,0.0
160,54.0,0.0,60.0,1.0,0.0
161,68.0,0.0,20.0,0.0,0.0
162,39.0,24.0,20.0,1.0,0.0
163,70.0,48.0,60.0,0.0,0.0
164,75.0,24.0,60.0,0.0,0.0
165,73.0,24.0,420.0,0.0,0.0
166,41.0,70.0,20.0,1.0,0.0
167,59.0,0.0,60.0,1.0,0.0
168,49.0,74.0,60.0,1.0,0.0
169,56.0,0.0,60.0,1.0,0.0
170,41.0,70.0,20.0,1.0,0.0
171,49.0,0.0,60.0,1.0,0.0
172,56.0,0.0,60.0,1.0,0.0
173,59.0,98.0,60.0,1.0,0.0
174,49.0,0.0,60.0,1.0,0.0
175,56.0,0.0,60.0,1.0,0.0
176,59.0,24.0,60.0,1.0,0.0
177,41.0,72.0,20.0,1.0,0.0
178,42.0,70.0,20.0,1.0,0.0
179,70.0,0.0,90.0,0.0,0.0
180,58.0,50.0,60.0,1.0,0.0
181,54.0,0.0,60.0,1.0,0.0
182,49.0,0.0,60.0,1.0,0.0
183,70.0,46.0,60.0,0.0,0.0
184,59.0,48.0,60.0,1.0,0.0
185,53.0,0.0,60.0,1.0,0.0
186,68.0,0.0,90.0,0.0,0.0
187,50.0,0.0,60.0,1.0,0.0
188,42.0,50.0,60.0,1.0,0.0
189,49.0,2.0,240.0,1.0,0.0
190,70.0,46.0,60.0,0.0,0.0
191,61.0,48.0,90.0,0.0,0.0
192,58.0,26.0,60.0,1.0,0.0
193,54.0,0.0,60.0,1.0,0.0
194,42.0,22.0,20.0,1.0,0.0
195,70.0,46.0,60.0,0.0,0.0
196,50.0,0.0,60.0,1.0,0.0
197,59.0,48.0,60.0,1.0,0.0
198,53.0,0.0,60.0,1.0,0.0
199,68.0,0.0,90.0,0.0,0.0
200,42.0,50.0,60.0,1.0,0.0
201,49.0,2.0,240.0,1.0,0.0
202,70.0,46.0,60.0,0.0,0.0
203,66.0,26.0,60.0,0.0,0.0
204,54.0,0.0,60.0,1.0,0.0
205,58.0,0.0,60.0,1.0,0.0
206,42.0,8.0,20.0,1.0,0.0
207,70.0,16.0,15.0,0.0,0.0
208,70.0,16.0,15.0,0.0,0.0
209,73.0,16.0,15.0,0.0,0.0
210,71.0,14.0,15.0,0.0,0.0
211,70.0,46.0,15.0,0.0,0.0
212,56.0,24.0,60.0,1.0,0.0
213,65.0,2.0,60.0,0.0,0.0
214,50.0,0.0,60.0,1.0,0.0
215,46.0,0.0,60.0,1.0,0.0
216,34.0,8.0,20.0,1.0,0.0
217,70.0,12.0,15.0,0.0,0.0
218,70.0,16.0,15.0,0.0,0.0
219,73.0,16.0,15.0,0.0,0.0
220,71.0,16.0,15.0,0.0,0.0
221,70.0,48.0,15.0,0.0,0.0
222,54.0,0.0,60.0,1.0,0.0
223,46.0,24.0,60.0,1.0,0.0
224,39.0,0.0,60.0,1.0,0.0
225,63.0,50.0,90.0,0.0,0.0
226,27.0,22.0,20.0,1.0,0.0
227,66.0,24.0,60.0,0.0,0.0
228,59.0,0.0,60.0,1.0,0.0
229,65.0,24.0,20.0,0.0,0.0
230,51.0,24.0,60.0,1.0,0.0
231,56.0,0.0,60.0,1.0,0.0
232,66.0,0.0,20.0,0.0,0.0
233,63.0,48.0,60.0,0.0,0.0
234,39.0,24.0,20.0,1.0,0.0
235,65.0,24.0,60.0,0.0,0.0
236,66.0,24.0,20.0,0.0,0.0
237,58.0,0.0,60.0,1.0,0.0
238,54.0,0.0,60.0,1.0,0.0
239,51.0,24.0,60.0,1.0,0.0
240,68.0,0.0,20.0,0.0,0.0
241,70.0,48.0,60.0,0.0,0.0
242,39.0,24.0,20.0,1.0,0.0
243,75.0,46.0,60.0,0.0,0.0
244,73.0,50.0,540.0,0.0,0.0
245,34.0,48.0,60.0,1.0,0.0
246,53.0,0.0,60.0,1.0,0.0
247,58.0,0.0,60.0,1.0,0.0
248,61.0,74.0,60.0,1.0,0.0
249,65.0,0.0,60.0,1.0,0.0
250,46.0,70.0,20.0,1.0,0.0
251,53.0,0.0,60.0,1.0,0.0
252,61.0,98.0,60.0,1.0,0.0
253,65.0,0.0,60.0,1.0,0.0
254,58.0,0.0,60.0,1.0,0.0
255,65.0,0.0,60.0,1.0,0.0
256,58.0,0.0,60.0,1.0,0.0
257,53.0,24.0,60.0,1.0,0.0
258,46.0,120.0,20.0,1.0,0.0
259,64.0,24.0,60.0,1.0,0.0
260,58.0,0.0,60.0,1.0,0.0
261,53.0,0.0,60.0,1.0,0.0
262,46.0,22.0,20.0,1.0,0.0
263,73.0,48.0,60.0,0.0,0.0
264,57.0,24.0,60.0,1.0,0.0
265,63.0,0.0,60.0,1.0,0.0
266,53.0,0.0,60.0,1.0,0.0
267,72.0,50.0,90.0,0.0,0.0
268,46.0,22.0,20.0,1.0,0.0
269,73.0,48.0,60.0,0.0,0.0
270,58.0,0.0,60.0,1.0,0.0
271,61.0,0.0,60.0,1.0,0.0
272,65.0,50.0,90.0,0.0,0.0
273,53.0,24.0,60.0,1.0,0.0
274,46.0,22.0,20.0,1.0,0.0
275,73.0,46.0,60.0,0.0,0.0
276,53.0,0.0,60.0,1.0,0.0
277,72.0,2.0,60.0,0.0,0.0
278,63.0,0.0,60.0,1.0,0.0
279,57.0,24.0,60.0,1.0,0.0
280,41.0,72.0,20.0,1.0,0.0
281,73.0,48.0,60.0,0.0,0.0
282,70.0,48.0,570.0,0.0,0.0
283,58.0,0.0,60.0,1.0,0.0
284,61.0,24.0,60.0,1.0,0.0
285,53.0,0.0,60.0,1.0,0.0
286,46.0,120.0,20.0,1.0,0.0
287,53.0,24.0,60.0,1.0,0.0
288,58.0,0.0,60.0,1.0,0.0
289,61.0,0.0,60.0,1.0,0.0
290,46.0,120.0,20.0,1.0,0.0
291,53.0,0.0,60.0,1.0,0.0
292,61.0,24.0,60.0,1.0,0.0
293,58.0,0.0,60.0,1.0,0.0
294,46.0,120.0,20.0,1.0,0.0
295,61.0,94.0,60.0,1.0,0.0
296,53.0,0.0,60.0,1.0,0.0
297,46.0,0.0,90.0,1.0,0.0
298,53.0,0.0,60.0,1.0,0.0
299,56.0,0.0,60.0,1.0,0.0
300,47.0,26.0,60.0,1.0,0.0
301,50.0,0.0,60.0,1.0,0.0
302,35.0,24.0,20.0,1.0,0.0
303,68.0,48.0,15.0,0.0,0.0
304,56.0,0.0,60.0,1.0,0.0
305,53.0,2.0,60.0,1.0,0.0
306,67.0,22.0,20.0,0.0,0.0
307,50.0,0.0,60.0,1.0,0.0
308,47.0,0.0,60.0,1.0,0.0
309,65.0,24.0,20.0,0.0,0.0
310,63.0,46.0,60.0,0.0,0.0
311,35.0,24.0,20.0,1.0,0.0
312,62.0,48.0,60.0,0.0,0.0
313,50.0,0.0,60.0,1.0,0.0
314,53.0,0.0,60.0,1.0,0.0
315,56.0,26.0,60.0,1.0,0.0
316,47.0,0.0,60.0,1.0,0.0
317,35.0,24.0,20.0,1.0,0.0
318,68.0,48.0,15.0,0.0,0.0
319,67.0,50.0,240.0,0.0,0.0
320,47.0,0.0,60.0,1.0,0.0
321,51.0,0.0,60.0,1.0,0.0
322,55.0,24.0,60.0,1.0,0.0
323,35.0,120.0,20.0,1.0,0.0
324,46.0,0.0,60.0,1.0,0.0
325,51.0,24.0,60.0,1.0,0.0
326,55.0,0.0,60.0,1.0,0.0
327,34.0,22.0,20.0,1.0,0.0
328,67.0,24.0,60.0,0.0,0.0
329,51.0,0.0,60.0,1.0,0.0
330,46.0,0.0,60.0,1.0,0.0
331,65.0,24.0,20.0,0.0,0.0
332,55.0,24.0,60.0,1.0,0.0
333,63.0,0.0,20.0,0.0,0.0
334,34.0,24.0,20.0,1.0,0.0
335,62.0,46.0,60.0,0.0,0.0
336,60.0,26.0,60.0,0.0,0.0
337,56.0,24.0,60.0,1.0,0.0
338,46.0,0.0,60.0,1.0,0.0
339,58.0,24.0,20.0,0.0,0.0
340,50.0,0.0,60.0,1.0,0.0
341,72.0,0.0,20.0,0.0,0.0
342,34.0,24.0,20.0,1.0,0.0
343,70.0,46.0,60.0,0.0,0.0
344,65.0,50.0,60.0,0.0,0.0
345,46.0,0.0,60.0,1.0,0.0
346,50.0,0.0,60.0,1.0,0.0
347,55.0,24.0,60.0,1.0,0.0
348,67.0,50.0,240.0,0.0,0.0
349,34.0,118.0,20.0,1.0,0.0
350,52.0,0.0,60.0,1.0,0.0
351,49.0,0.0,60.0,1.0,0.0
352,55.0,0.0,60.0,1.0,0.0
353,46.0,26.0,60.0,1.0,0.0
354,34.0,22.0,20.0,1.0,0.0
355,67.0,24.0,60.0,0.0,0.0
356,55.0,0.0,60.0,1.0,0.0
357,52.0,0.0,60.0,1.0,0.0
358,66.0,22.0,20.0,0.0,0.0
359,49.0,0.0,60.0,1.0,0.0
360,46.0,2.0,60.0,1.0,0.0
361,64.0,24.0,20.0,0.0,0.0
362,62.0,30.0,60.0,0.0,0.0
363,34.0,24.0,20.0,1.0,0.0
364,61.0,18.0,30.0,0.0,0.0
365,61.0,46.0,20.0,0.0,0.0
366,67.0,50.0,90.0,0.0,0.0
367,46.0,26.0,60.0,1.0,0.0
368,55.0,0.0,60.0,1.0,0.0
369,52.0,0.0,60.0,1.0,0.0
370,49.0,0.0,60.0,1.0,0.0
371,34.0,22.0,20.0,1.0,0.0
372,67.0,48.0,60.0,0.0,0.0
373,49.0,0.0,60.0,1.0,0.0
374,54.0,24.0,60.0,1.0,0.0
375,46.0,0.0,60.0,1.0,0.0
376,34.0,120.0,20.0,1.0,0.0
377,54.0,24.0,60.0,1.0,0.0
378,50.0,0.0,60.0,1.0,0.0
379,45.0,0.0,60.0,1.0,0.0
380,33.0,24.0,20.0,1.0,0.0
381,66.0,48.0,15.0,0.0,0.0
382,54.0,0.0,60.0,1.0,0.0
383,50.0,0.0,60.0,1.0,0.0
384,45.0,24.0,60.0,1.0,0.0
385,64.0,24.0,20.0,0.0,0.0
386,62.0,0.0,20.0,0.0,0.0
387,33.0,24.0,20.0,1.0,0.0
388,61.0,46.0,60.0,0.0,0.0
389,59.0,26.0,60.0,0.0,0.0
390,45.0,24.0,60.0,1.0,0.0
391,55.0,0.0,60.0,1.0,0.0
392,57.0,24.0,20.0,0.0,0.0
393,49.0,0.0,60.0,1.0,0.0
394,71.0,0.0,20.0,0.0,0.0
395,33.0,24.0,20.0,1.0,0.0
396,69.0,48.0,60.0,0.0,0.0
397,64.0,48.0,60.0,0.0,0.0
398,45.0,0.0,60.0,1.0,0.0
399,50.0,0.0,60.0,1.0,0.0
400,66.0,24.0,240.0,0.0,0.0
401,54.0,24.0,60.0,1.0,0.0
402,33.0,120.0,20.0,1.0,0.0
403,50.0,24.0,60.0,1.0,0.0
404,45.0,0.0,60.0,1.0,0.0
405,54.0,0.0,60.0,1.0,0.0
406,33.0,24.0,20.0,1.0,0.0
407,67.0,24.0,20.0,0.0,0.0
408,66.0,24.0,20.0,0.0,0.0
409,64.0,24.0,20.0,0.0,0.0
410,50.0,0.0,60.0,1.0,0.0
411,45.0,0.0,60.0,1.0,0.0
412,54.0,0.0,60.0,1.0,0.0
413,62.0,24.0,20.0,0.0,0.0
414,61.0,46.0,60.0,0.0,0.0
415,33.0,24.0,20.0,1.0,0.0
416,59.0,48.0,60.0,0.0,0.0
417,54.0,2.0,60.0,1.0,0.0
418,51.0,0.0,60.0,1.0,0.0
419,45.0,0.0,60.0,1.0,0.0
420,60.0,0.0,60.0,0.0,0.0
421,72.0,24.0,20.0,0.0,0.0
422,71.0,48.0,90.0,0.0,0.0
423,33.0,48.0,20.0,1.0,0.0
424,59.0,22.0,20.0,0.0,0.0
425,55.0,2.0,60.0,1.0,0.0
426,62.0,0.0,60.0,0.0,0.0
427,52.0,0.0,60.0,1.0,0.0
428,45.0,0.0,60.0,1.0,0.0
429,74.0,24.0,20.0,0.0,0.0
430,73.0,48.0,90.0,0.0,0.0
431,33.0,48.0,20.0,1.0,0.0
432,61.0,22.0,20.0,0.0,0.0
433,64.0,2.0,60.0,0.0,0.0
434,60.0,0.0,60.0,1.0,0.0
435,54.0,0.0,60.0,1.0,0.0
436,57.0,0.0,60.0,1.0,0.0
437,76.0,24.0,20.0,0.0,0.0
438,75.0,48.0,90.0,0.0,0.0
439,33.0,48.0,20.0,1.0,0.0
440,63.0,22.0,20.0,0.0,0.0
441,64.0,0.0,60.0,1.0,0.0
442,59.0,0.0,60.0,1.0,0.0
443,55.0,0.0,60.0,1.0,0.0
444,72.0,2.0,60.0,0.0,0.0
445,84.0,24.0,20.0,0.0,0.0
446,45.0,48.0,20.0,1.0,0.0
447,83.0,48.0,90.0,0.0,0.0
448,33.0,0.0,20.0,1.0,0.0
449,71.0,22.0,20.0,0.0,0.0
450,62.0,0.0,60.0,0.0,0.0
451,58.0,0.0,60.0,1.0,0.0
452,55.0,0.0,60.0,1.0,0.0
453,52.0,2.0,60.0,1.0,0.0
454,74.0,24.0,20.0,0.0,0.0
455,73.0,48.0,90.0,0.0,0.0
456,33.0,48.0,20.0,1.0,0.0
457,45.0,0.0,20.0,1.0,0.0
458,61.0,22.0,20.0,0.0,0.0
459,54.0,2.0,60.0,1.0,0.0
460,62.0,0.0,60.0,1.0,0.0
461,57.0,0.0,60.0,1.0,0.0
462,70.0,0.0,60.0,0.0,0.0
463,82.0,24.0,20.0,0.0,0.0
464,45.0,48.0,20.0,1.0,0.0
465,33.0,0.0,20.0,1.0,0.0
466,81.0,48.0,90.0,0.0,0.0
467,69.0,22.0,20.0,0.0,0.0
468,62.0,0.0,60.0,1.0,0.0
469,53.0,0.0,60.0,1.0,0.0
470,59.0,0.0,60.0,1.0,0.0
471,69.0,2.0,60.0,0.0,0.0
472,81.0,24.0,20.0,0.0,0.0
473,21.0,48.0,20.0,1.0,0.0
474,33.0,0.0,20.0,1.0,0.0
475,80.0,48.0,90.0,0.0,0.0
476,68.0,22.0,20.0,0.0,0.0
477,65.0,2.0,60.0,1.0,0.0
478,62.0,0.0,60.0,1.0,0.0
479,56.0,0.0,60.0,1.0,0.0
480,53.0,0.0,60.0,1.0,0.0
481,59.0,0.0,60.0,1.0,0.0
482,73.0,0.0,60.0,0.0,0.0
483,85.0,24.0,20.0,0.0,0.0
484,21.0,0.0,20.0,1.0,0.0
485,33.0,48.0,20.0,1.0,0.0
486,83.0,50.0,90.0,0.0,0.0
487,71.0,22.0,20.0,0.0,0.0
488,80.0,0.0,60.0,0.0,0.0
489,74.0,46.0,60.0,0.0,0.0
490,65.0,0.0,60.0,1.0,0.0
491,71.0,0.0,60.0,1.0,0.0
492,86.0,0.0,60.0,0.0,0.0
493,70.0,0.0,60.0,1.0,0.0
494,64.0,0.0,60.0,1.0,0.0
495,79.0,0.0,60.0,0.0,0.0
496,73.0,50.0,60.0,0.0,0.0
497,71.0,0.0,60.0,0.0,0.0
498,77.0,46.0,60.0,0.0,0.0
499,83.0,0.0,60.0,0.0,0.0
500,68.0,0.0,60.0,1.0,0.0
501,62.0,0.0,60.0,1.0,0.0
502,61.0,50.0,60.0,1.0,0.0
503,67.0,0.0,60.0,1.0,0.0
504,76.0,0.0,60.0,0.0,0.0
505,70.0,0.0,60.0,0.0,0.0
506,68.0,0.0,60.0,0.0,0.0
507,74.0,0.0,60.0,0.0,0.0
508,80.0,0.0,60.0,0.0,0.0
509,59.0,46.0,60.0,1.0,0.0
510,65.0,0.0,60.0,1.0,0.0
511,73.0,98.0,60.0,0.0,0.0
512,67.0,0.0,60.0,0.0,0.0
513,64.0,0.0,60.0,1.0,0.0
514,58.0,0.0,60.0,1.0,0.0
515,77.0,0.0,90.0,0.0,0.0
516,71.0,0.0,90.0,0.0,0.0
517,65.0,46.0,90.0,0.0,0.0
518,56.0,0.0,90.0,1.0,0.0
519,62.0,0.0,90.0,1.0,0.0
520,61.0,0.0,60.0,1.0,0.0
521,57.0,0.0,60.0,1.0,0.0
522,64.0,26.0,60.0,0.0,0.0
523,73.0,0.0,60.0,0.0,0.0
524,76.0,0.0,60.0,0.0,0.0
525,45.0,22.0,20.0,1.0,0.0
526,50.0,26.0,20.0,1.0,0.0
527,49.0,48.0,20.0,1.0,0.0
528,33.0,120.0,20.0,1.0,0.0
529,62.0,0.0,90.0,0.0,0.0
530,74.0,0.0,90.0,0.0,0.0
531,53.0,0.0,90.0,1.0,0.0
532,58.0,0.0,90.0,1.0,0.0
533,68.0,46.0,90.0,0.0,0.0
534,57.0,0.0,60.0,1.0,0.0
535,52.0,2.0,60.0,1.0,0.0
536,73.0,0.0,60.0,0.0,0.0
537,69.0,0.0,60.0,0.0,0.0
538,61.0,24.0,60.0,0.0,0.0
539,45.0,22.0,20.0,1.0,0.0
540,50.0,26.0,20.0,1.0,0.0
541,49.0,48.0,20.0,1.0,0.0
542,33.0,120.0,20.0,1.0,0.0
543,50.0,46.0,90.0,1.0,0.0
544,56.0,0.0,90.0,1.0,0.0
545,65.0,0.0,90.0,0.0,0.0
546,58.0,0.0,90.0,0.0,0.0
547,70.0,0.0,90.0,0.0,0.0
548,64.0,24.0,60.0,0.0,0.0
549,69.0,0.0,60.0,0.0,0.0
550,49.0,2.0,60.0,1.0,0.0
551,57.0,0.0,60.0,1.0,0.0
552,45.0,22.0,20.0,1.0,0.0
553,50.0,26.0,20.0,1.0,0.0
554,49.0,48.0,20.0,1.0,0.0
555,40.0,166.0,20.0,1.0,0.0
556,33.0,144.0,150.0,1.0,0.0
557,33.0,144.0,150.0,1.0,0.0
558,33.0,98.0,150.0,1.0,0.0
559,33.0,46.0,90.0,1.0,0.0
560,32.0,98.0,60.0,1.0,0.0
561,68.0,0.0,90.0,0.0,0.0
562,65.0,0.0,90.0,0.0,0.0
563,32.0,0.0,150.0,1.0,0.0
564,56.0,0.0,60.0,0.0,0.0
565,60.0,48.0,15.0,0.0,0.0
566,65.0,0.0,60.0,0.0,0.0
567,53.0,46.0,90.0,0.0,0.0
568,34.0,2.0,90.0,1.0,0.0
569,61.0,0.0,90.0,0.0,0.0
570,66.0,0.0,60.0,0.0,0.0
571,63.0,0.0,60.0,0.0,0.0
572,58.0,0.0,15.0,0.0,0.0
573,39.0,0.0,60.0,1.0,0.0
574,56.0,0.0,150.0,0.0,0.0
575,60.0,0.0,150.0,0.0,0.0
576,65.0,48.0,60.0,0.0,0.0
577,44.0,2.0,150.0,1.0,0.0
578,63.0,46.0,60.0,0.0,0.0
579,65.0,46.0,60.0,0.0,0.0
580,53.0,0.0,90.0,0.0,0.0
581,58.0,0.0,90.0,0.0,0.0
582,46.0,48.0,60.0,1.0,0.0
583,61.0,46.0,90.0,0.0,0.0
584,46.0,2.0,60.0,1.0,0.0
585,60.0,0.0,60.0,0.0,0.0
586,56.0,0.0,60.0,0.0,0.0
587,44.0,0.0,60.0,1.0,0.0
588,63.0,48.0,60.0,0.0,0.0
589,49.0,48.0,60.0,1.0,0.0
590,56.0,46.0,90.0,0.0,0.0
591,61.0,0.0,90.0,0.0,0.0
592,65.0,0.0,90.0,0.0,0.0
593,49.0,2.0,60.0,1.0,0.0
594,48.0,2.0,60.0,1.0,0.0
595,63.0,0.0,60.0,0.0,0.0
596,68.0,0.0,60.0,0.0,0.0
597,56.0,46.0,60.0,0.0,0.0
598,60.0,0.0,90.0,0.0,0.0
599,65.0,0.0,90.0,0.0,0.0
600,68.0,46.0,90.0,0.0,0.0
601,53.0,48.0,60.0,1.0,0.0
602,53.0,2.0,60.0,1.0,0.0
603,70.0,0.0,60.0,0.0,0.0
604,61.0,46.0,60.0,0.0,0.0
605,65.0,0.0,60.0,0.0,0.0
606,46.0,2.0,60.0,1.0,0.0
607,51.0,48.0,60.0,1.0,0.0
608,63.0,46.0,90.0,0.0,0.0
609,66.0,0.0,90.0,0.0,0.0
610,70.0,0.0,90.0,0.0,0.0
611,51.0,2.0,60.0,1.0,0.0
612,44.0,2.0,60.0,1.0,0.0
613,72.0,0.0,60.0,0.0,0.0
614,63.0,24.0,60.0,0.0,0.0
615,68.0,0.0,60.0,0.0,0.0
616,73.0,2.0,150.0,0.0,0.0
617,68.0,0.0,150.0,0.0,0.0
618,65.0,0.0,150.0,0.0,0.0
619,49.0,72.0,20.0,1.0,0.0
620,37.0,46.0,60.0,1.0,0.0
621,36.0,48.0,60.0,1.0,0.0
622,34.0,0.0,60.0,1.0,0.0
623,70.0,48.0,60.0,0.0,0.0
624,65.0,0.0,60.0,0.0,0.0
625,73.0,0.0,60.0,0.0,0.0
626,72.0,46.0,60.0,0.0,0.0
627,36.0,0.0,60.0,1.0,0.0
628,64.0,0.0,60.0,0.0,0.0
629,67.0,0.0,60.0,0.0,0.0
630,41.0,2.0,60.0,1.0,0.0
631,60.0,0.0,60.0,0.0,0.0
632,68.0,94.0,60.0,0.0,0.0
633,70.0,46.0,90.0,0.0,0.0
634,65.0,0.0,15.0,0.0,0.0
635,61.0,0.0,90.0,0.0,0.0
636,34.0,2.0,90.0,1.0,0.0
637,65.0,0.0,60.0,0.0,0.0
638,68.0,0.0,60.0,0.0,0.0
639,41.0,48.0,60.0,1.0,0.0
640,60.0,0.0,60.0,0.0,0.0
641,34.0,2.0,60.0,1.0,0.0
642,65.0,0.0,60.0,0.0,0.0
643,61.0,46.0,60.0,0.0,0.0
644,70.0,0.0,60.0,0.0,0.0
645,41.0,2.0,60.0,1.0,0.0
646,60.0,46.0,60.0,0.0,0.0
647,68.0,0.0,60.0,0.0,0.0
648,46.0,2.0,60.0,1.0,0.0
649,65.0,0.0,15.0,0.0,0.0
650,61.0,0.0,60.0,0.0,0.0
651,63.0,0.0,90.0,0.0,0.0
652,66.0,0.0,90.0,0.0,0.0
653,58.0,0.0,15.0,0.0,0.0
654,39.0,2.0,90.0,1.0,0.0
655,65.0,0.0,60.0,0.0,0.0
656,58.0,48.0,60.0,0.0,0.0
657,61.0,0.0,60.0,0.0,0.0
658,46.0,0.0,60.0,1.0,0.0
659,39.0,2.0,60.0,1.0,0.0
660,66.0,0.0,60.0,0.0,0.0
661,63.0,0.0,60.0,0.0,0.0
662,58.0,46.0,60.0,0.0,0.0
663,41.0,2.0,60.0,1.0,0.0
664,57.0,0.0,60.0,0.0,0.0
665,60.0,0.0,60.0,0.0,0.0
666,65.0,46.0,60.0,0.0,0.0
667,61.0,0.0,60.0,0.0,0.0
668,58.0,0.0,60.0,0.0,0.0
669,53.0,94.0,60.0,0.0,0.0
670,46.0,2.0,60.0,1.0,0.0
671,44.0,2.0,90.0,1.0,0.0
672,60.0,46.0,90.0,0.0,0.0
673,63.0,0.0,90.0,0.0,0.0
674,56.0,0.0,15.0,0.0,0.0
675,65.0,46.0,60.0,0.0,0.0
676,61.0,0.0,60.0,0.0,0.0
677,49.0,2.0,60.0,1.0,0.0
678,63.0,46.0,60.0,0.0,0.0
679,58.0,0.0,60.0,0.0,0.0
680,66.0,0.0,60.0,0.0,0.0
681,39.0,2.0,60.0,1.0,0.0
682,57.0,46.0,60.0,0.0,0.0
683,60.0,0.0,60.0,0.0,0.0
684,65.0,0.0,60.0,0.0,0.0
685,41.0,2.0,60.0,1.0,0.0
686,58.0,46.0,60.0,0.0,0.0
687,63.0,0.0,60.0,0.0,0.0
688,66.0,0.0,60.0,0.0,0.0
689,39.0,2.0,60.0,1.0,0.0
690,65.0,46.0,60.0,0.0,0.0
691,57.0,0.0,60.0,0.0,0.0
692,60.0,0.0,60.0,0.0,0.0
693,41.0,2.0,60.0,1.0,0.0
694,63.0,96.0,90.0,0.0,0.0
695,58.0,46.0,60.0,0.0,0.0
696,42.0,2.0,60.0,1.0,0.0
697,44.0,2.0,60.0,1.0,0.0
698,32.0,2.0,150.0,1.0,0.0
699,68.0,0.0,90.0,0.0,0.0
700,65.0,46.0,15.0,0.0,0.0
701,60.0,0.0,15.0,0.0,0.0
702,56.0,0.0,60.0,0.0,0.0
703,61.0,0.0,90.0,0.0,0.0
704,58.0,46.0,90.0,0.0,0.0
705,53.0,0.0,90.0,0.0,0.0
706,34.0,2.0,90.0,1.0,0.0
707,39.0,50.0,60.0,1.0,0.0
708,63.0,0.0,60.0,0.0,0.0
709,58.0,0.0,60.0,0.0,0.0
710,66.0,0.0,60.0,0.0,0.0
711,56.0,0.0,150.0,0.0,0.0
712,60.0,46.0,150.0,0.0,0.0
713,65.0,48.0,60.0,0.0,0.0
714,44.0,2.0,150.0,1.0,0.0
715,63.0,46.0,60.0,0.0,0.0
716,65.0,0.0,60.0,0.0,0.0
717,46.0,48.0,60.0,1.0,0.0
718,53.0,0.0,90.0,0.0,0.0
719,58.0,0.0,90.0,0.0,0.0
720,61.0,46.0,90.0,0.0,0.0
721,46.0,2.0,60.0,1.0,0.0
722,44.0,0.0,60.0,1.0,0.0
723,60.0,48.0,60.0,0.0,0.0
724,56.0,0.0,60.0,0.0,0.0
725,63.0,0.0,60.0,0.0,0.0
726,49.0,48.0,60.0,1.0,0.0
727,65.0,0.0,90.0,0.0,0.0
728,61.0,0.0,90.0,0.0,0.0
729,49.0,2.0,60.0,1.0,0.0
730,48.0,2.0,60.0,1.0,0.0
731,63.0,0.0,60.0,0.0,0.0
732,56.0,46.0,15.0,0.0,0.0
733,68.0,0.0,60.0,0.0,0.0
734,53.0,48.0,60.0,1.0,0.0
735,68.0,46.0,90.0,0.0,0.0
736,65.0,0.0,90.0,0.0,0.0
737,60.0,0.0,90.0,0.0,0.0
738,53.0,2.0,60.0,1.0,0.0
739,61.0,46.0,60.0,0.0,0.0
740,65.0,0.0,60.0,0.0,0.0
741,46.0,2.0,60.0,1.0,0.0
742,51.0,48.0,60.0,1.0,0.0
743,70.0,0.0,15.0,0.0,0.0
744,63.0,0.0,90.0,0.0,0.0
745,66.0,0.0,90.0,0.0,0.0
746,51.0,2.0,60.0,1.0,0.0
747,72.0,0.0,60.0,0.0,0.0
748,44.0,2.0,60.0,1.0,0.0
749,63.0,46.0,60.0,0.0,0.0
750,73.0,0.0,150.0,0.0,0.0
751,68.0,0.0,15.0,0.0,0.0
752,65.0,0.0,150.0,0.0,0.0
753,49.0,48.0,60.0,1.0,0.0
754,37.0,48.0,60.0,1.0,0.0
755,36.0,48.0,60.0,1.0,0.0
756,73.0,46.0,60.0,0.0,0.0
757,70.0,0.0,60.0,0.0,0.0
758,65.0,0.0,60.0,0.0,0.0
759,34.0,2.0,60.0,1.0,0.0
760,72.0,0.0,60.0,0.0,0.0
761,64.0,46.0,60.0,0.0,0.0
762,67.0,0.0,60.0,0.0,0.0
763,36.0,2.0,60.0,1.0,0.0
764,41.0,2.0,60.0,1.0,0.0
765,60.0,0.0,60.0,0.0,0.0
766,68.0,94.0,60.0,0.0,0.0
767,70.0,46.0,90.0,0.0,0.0
768,65.0,0.0,15.0,0.0,0.0
769,61.0,0.0,90.0,0.0,0.0
770,34.0,2.0,90.0,1.0,0.0
771,41.0,0.0,60.0,1.0,0.0
772,60.0,48.0,60.0,0.0,0.0
773,65.0,0.0,60.0,0.0,0.0
774,68.0,0.0,60.0,0.0,0.0
775,34.0,2.0,60.0,1.0,0.0
776,70.0,46.0,60.0,0.0,0.0
777,61.0,0.0,60.0,0.0,0.0
778,65.0,0.0,60.0,0.0,0.0
779,41.0,2.0,60.0,1.0,0.0
780,60.0,46.0,60.0,0.0,0.0
781,68.0,0.0,60.0,0.0,0.0
782,65.0,0.0,15.0,0.0,0.0
783,58.0,0.0,60.0,0.0,0.0
784,61.0,0.0,60.0,0.0,0.0
785,46.0,2.0,60.0,1.0,0.0
786,39.0,2.0,90.0,1.0,0.0
787,63.0,0.0,90.0,0.0,0.0
788,66.0,0.0,90.0,0.0,0.0
789,65.0,0.0,60.0,0.0,0.0
790,61.0,0.0,60.0,0.0,0.0
791,58.0,46.0,15.0,0.0,0.0
792,46.0,0.0,60.0,1.0,0.0
793,58.0,0.0,60.0,0.0,0.0
794,63.0,0.0,60.0,0.0,0.0
795,66.0,46.0,60.0,0.0,0.0
796,39.0,2.0,60.0,1.0,0.0
797,41.0,2.0,60.0,1.0,0.0
798,65.0,46.0,60.0,0.0,0.0
799,57.0,0.0,60.0,0.0,0.0
800,60.0,0.0,60.0,0.0,0.0
801,61.0,0.0,60.0,0.0,0.0
802,53.0,0.0,60.0,0.0,0.0
803,58.0,94.0,60.0,0.0,0.0
804,46.0,2.0,60.0,1.0,0.0
805,63.0,46.0,90.0,0.0,0.0
806,56.0,0.0,90.0,0.0,0.0
807,60.0,0.0,90.0,0.0,0.0
808,44.0,2.0,90.0,1.0,0.0
809,49.0,2.0,60.0,1.0,0.0
810,56.0,46.0,60.0,0.0,0.0
811,61.0,0.0,60.0,0.0,0.0
812,65.0,0.0,60.0,0.0,0.0
813,39.0,2.0,60.0,1.0,0.0
814,66.0,46.0,60.0,0.0,0.0
815,58.0,0.0,60.0,0.0,0.0
816,63.0,0.0,60.0,0.0,0.0
817,41.0,2.0,60.0,1.0,0.0
818,65.0,0.0,60.0,0.0,0.0
819,60.0,46.0,60.0,0.0,0.0
820,57.0,0.0,60.0,0.0,0.0
821,39.0,0.0,60.0,1.0,0.0
822,66.0,0.0,60.0,0.0,0.0
823,63.0,0.0,60.0,0.0,0.0
824,58.0,96.0,60.0,0.0,0.0
825,44.0,48.0,90.0,1.0,0.0
826,56.0,0.0,90.0,0.0,0.0
827,63.0,0.0,90.0,0.0,0.0
828,60.0,0.0,90.0,0.0,0.0
829,56.0,146.0,60.0,0.0,0.0
830,61.0,0.0,60.0,0.0,0.0
831,65.0,0.0,60.0,0.0,0.0
832,37.0,0.0,60.0,1.0,0.0
833,56.0,194.0,240.0,1.0,0.0
834,68.0,0.0,240.0,0.0,0.0
835,61.0,0.0,60.0,0.0,0.0
836,70.0,24.0,60.0,0.0,0.0
837,49.0,0.0,60.0,1.0,0.0
838,65.0,0.0,60.0,0.0,0.0
839,72.0,0.0,20.0,0.0,0.0
840,60.0,0.0,20.0,0.0,0.0
841,63.0,48.0,20.0,0.0,0.0
842,44.0,0.0,20.0,1.0,0.0
843,63.0,0.0,20.0,0.0,0.0
844,72.0,0.0,20.0,0.0,0.0
845,60.0,0.0,20.0,0.0,0.0
846,44.0,22.0,20.0,1.0,0.0
847,53.0,0.0,240.0,1.0,0.0
848,65.0,86.0,240.0,0.0,0.0
849,67.0,0.0,60.0,0.0,0.0
850,61.0,0.0,60.0,0.0,0.0
851,58.0,0.0,60.0,0.0,0.0
852,46.0,24.0,60.0,1.0,0.0
853,56.0,0.0,20.0,0.0,0.0
854,41.0,48.0,20.0,1.0,0.0
855,60.0,0.0,20.0,0.0,0.0
856,68.0,0.0,20.0,0.0,0.0
857,41.0,0.0,20.0,1.0,0.0
858,56.0,0.0,20.0,0.0,0.0
859,68.0,22.0,20.0,0.0,0.0
860,60.0,0.0,20.0,0.0,0.0
861,56.0,0.0,30.0,1.0,0.0
862,68.0,10.0,30.0,0.0,0.0
863,58.0,98.0,15.0,1.0,0.0
864,70.0,0.0,15.0,0.0,0.0
865,56.0,48.0,180.0,1.0,0.0
866,68.0,0.0,180.0,0.0,0.0
867,70.0,0.0,60.0,0.0,0.0
868,61.0,24.0,60.0,0.0,0.0
869,65.0,0.0,60.0,0.0,0.0
870,49.0,0.0,60.0,1.0,0.0
871,44.0,48.0,20.0,1.0,0.0
872,72.0,0.0,20.0,0.0,0.0
873,63.0,0.0,20.0,0.0,0.0
874,60.0,0.0,20.0,0.0,0.0
875,72.0,0.0,20.0,0.0,0.0
876,63.0,0.0,20.0,0.0,0.0
877,60.0,0.0,20.0,0.0,0.0
878,44.0,22.0,20.0,1.0,0.0
879,54.0,38.0,60.0,1.0,0.0
880,66.0,0.0,60.0,0.0,0.0
881,65.0,10.0,30.0,0.0,0.0
882,53.0,0.0,30.0,1.0,0.0
883,66.0,0.0,15.0,0.0,0.0
884,54.0,98.0,15.0,1.0,0.0
885,53.0,50.0,180.0,1.0,0.0
886,65.0,0.0,180.0,0.0,0.0
887,46.0,24.0,60.0,1.0,0.0
888,61.0,0.0,60.0,0.0,0.0
889,67.0,0.0,60.0,0.0,0.0
890,58.0,0.0,60.0,0.0,0.0
891,56.0,0.0,20.0,0.0,0.0
892,68.0,48.0,20.0,0.0,0.0
893,41.0,0.0,20.0,1.0,0.0
894,60.0,0.0,20.0,0.0,0.0
895,68.0,0.0,20.0,0.0,0.0
896,60.0,0.0,20.0,0.0,0.0
897,56.0,0.0,20.0,0.0,0.0
898,41.0,22.0,20.0,1.0,0.0
899,51.0,144.0,60.0,1.0,0.0
900,63.0,0.0,60.0,0.0,0.0
901,61.0,0.0,240.0,0.0,0.0
902,49.0,46.0,240.0,1.0,0.0
903,42.0,94.0,60.0,1.0,0.0
904,54.0,0.0,60.0,0.0,0.0
905,58.0,0.0,60.0,0.0,0.0
906,63.0,0.0,60.0,0.0,0.0
907,57.0,2.0,90.0,0.0,0.0
908,65.0,0.0,90.0,0.0,0.0
909,53.0,0.0,90.0,0.0,0.0
910,41.0,0.0,90.0,1.0,0.0
911,60.0,0.0,60.0,0.0,0.0
912,48.0,38.0,60.0,1.0,0.0
913,61.0,0.0,30.0,0.0,0.0
914,49.0,10.0,30.0,1.0,0.0
915,63.0,0.0,15.0,0.0,0.0
916,51.0,98.0,15.0,1.0,0.0
917,61.0,46.0,180.0,0.0,0.0
918,49.0,0.0,180.0,1.0,0.0
919,42.0,0.0,60.0,1.0,0.0
920,58.0,0.0,60.0,0.0,0.0
921,63.0,94.0,60.0,0.0,0.0
922,54.0,0.0,60.0,0.0,0.0
923,57.0,0.0,90.0,0.0,0.0
924,53.0,0.0,90.0,0.0,0.0
925,65.0,2.0,90.0,0.0,0.0
926,41.0,0.0,90.0,1.0,0.0
927,48.0,0.0,60.0,1.0,0.0
928,60.0,144.0,60.0,0.0,0.0
929,58.0,0.0,390.0,0.0,0.0
930,46.0,0.0,390.0,1.0,0.0
931,34.0,0.0,60.0,1.0,0.0
932,50.0,96.0,60.0,0.0,0.0
933,53.0,0.0,60.0,0.0,0.0
934,39.0,48.0,90.0,1.0,0.0
935,51.0,0.0,90.0,0.0,0.0
936,54.0,0.0,90.0,0.0,0.0
937,53.0,0.0,60.0,0.0,0.0
938,34.0,96.0,60.0,1.0,0.0
939,50.0,0.0,60.0,0.0,0.0
940,54.0,48.0,90.0,0.0,0.0
941,39.0,0.0,90.0,1.0,0.0
942,51.0,0.0,90.0,0.0,0.0
943,60.0,0.0,60.0,0.0,0.0
944,51.0,122.0,60.0,0.0,0.0
945,44.0,0.0,60.0,1.0,0.0
946,32.0,0.0,60.0,1.0,0.0
947,56.0,0.0,60.0,0.0,0.0
948,37.0,168.0,120.0,1.0,0.0
949,44.0,0.0,120.0,1.0,0.0
950,56.0,0.0,120.0,0.0,0.0
951,61.0,0.0,120.0,0.0,0.0
952,53.0,0.0,120.0,0.0,0.0
953,56.0,0.0,240.0,1.0,0.0
954,68.0,194.0,240.0,0.0,0.0
955,49.0,0.0,60.0,1.0,0.0
956,70.0,24.0,60.0,0.0,0.0
957,65.0,0.0,60.0,0.0,0.0
958,61.0,0.0,60.0,0.0,0.0
959,44.0,0.0,20.0,1.0,0.0
960,63.0,0.0,20.0,0.0,0.0
961,60.0,48.0,20.0,0.0,0.0
962,72.0,0.0,20.0,0.0,0.0
963,60.0,0.0,20.0,0.0,0.0
964,63.0,0.0,20.0,0.0,0.0
965,44.0,0.0,20.0,1.0,0.0
966,72.0,22.0,20.0,0.0,0.0
967,65.0,86.0,240.0,0.0,0.0
968,53.0,0.0,240.0,1.0,0.0
969,58.0,0.0,60.0,0.0,0.0
970,46.0,24.0,60.0,1.0,0.0
971,67.0,0.0,60.0,0.0,0.0
972,61.0,0.0,60.0,0.0,0.0
973,60.0,48.0,20.0,0.0,0.0
974,68.0,0.0,20.0,0.0,0.0
975,41.0,0.0,20.0,1.0,0.0
976,56.0,0.0,20.0,0.0,0.0
977,56.0,0.0,20.0,0.0,0.0
978,60.0,0.0,20.0,0.0,0.0
979,68.0,0.0,20.0,0.0,0.0
980,41.0,22.0,20.0,1.0,0.0
981,56.0,10.0,30.0,1.0,0.0
982,68.0,0.0,30.0,0.0,0.0
983,70.0,98.0,15.0,0.0,0.0
984,58.0,0.0,15.0,1.0,0.0
985,68.0,0.0,180.0,0.0,0.0
986,56.0,48.0,180.0,1.0,0.0
987,65.0,0.0,60.0,0.0,0.0
988,70.0,24.0,60.0,0.0,0.0
989,49.0,0.0,60.0,1.0,0.0
990,61.0,0.0,60.0,0.0,0.0
991,44.0,0.0,20.0,1.0,0.0
992,72.0,48.0,20.0,0.0,0.0
993,63.0,0.0,20.0,0.0,0.0
994,60.0,0.0,20.0,0.0,0.0
995,60.0,0.0,20.0,0.0,0.0
996,63.0,0.0,20.0,0.0,0.0
997,72.0,0.0,20.0,0.0,0.0
998,44.0,22.0,20.0,1.0,0.0
999,66.0,38.0,60.0,0.0,0.0
1000,54.0,0.0,60.0,1.0,0.0
1001,65.0,10.0,30.0,0.0,0.0
1002,53.0,0.0,30.0,1.0,0.0
1003,54.0,98.0,15.0,1.0,0.0
1004,66.0,0.0,15.0,0.0,0.0
1005,65.0,0.0,180.0,0.0,0.0
1006,53.0,50.0,180.0,1.0,0.0
1007,58.0,0.0,60.0,0.0,0.0
1008,61.0,0.0,60.0,0.0,0.0
1009,67.0,0.0,60.0,0.0,0.0
1010,46.0,24.0,60.0,1.0,0.0
1011,68.0,0.0,20.0,0.0,0.0
1012,41.0,0.0,20.0,1.0,0.0
1013,60.0,0.0,20.0,0.0,0.0
1014,56.0,48.0,20.0,0.0,0.0
1015,56.0,0.0,20.0,0.0,0.0
1016,60.0,22.0,20.0,0.0,0.0
1017,68.0,0.0,20.0,0.0,0.0
1018,41.0,0.0,20.0,1.0,0.0
1019,51.0,0.0,60.0,1.0,0.0
1020,63.0,144.0,60.0,0.0,0.0
1021,61.0,46.0,240.0,0.0,0.0
1022,49.0,0.0,240.0,1.0,0.0
1023,54.0,0.0,60.0,0.0,0.0
1024,58.0,0.0,60.0,0.0,0.0
1025,63.0,0.0,60.0,0.0,0.0
1026,42.0,94.0,60.0,1.0,0.0
1027,53.0,2.0,90.0,0.0,0.0
1028,57.0,0.0,90.0,0.0,0.0
1029,65.0,0.0,90.0,0.0,0.0
1030,41.0,0.0,90.0,1.0,0.0
1031,48.0,0.0,60.0,1.0,0.0
1032,60.0,38.0,60.0,0.0,0.0
1033,61.0,10.0,30.0,0.0,0.0
1034,49.0,0.0,30.0,1.0,0.0
1035,63.0,98.0,15.0,0.0,0.0
1036,51.0,0.0,15.0,1.0,0.0
1037,61.0,0.0,180.0,0.0,0.0
1038,49.0,46.0,180.0,1.0,0.0
1039,58.0,0.0,60.0,0.0,0.0
1040,54.0,0.0,60.0,0.0,0.0
1041,42.0,0.0,60.0,1.0,0.0
1042,63.0,94.0,60.0,0.0,0.0
1043,41.0,0.0,90.0,1.0,0.0
1044,65.0,0.0,90.0,0.0,0.0
1045,57.0,0.0,90.0,0.0,0.0
1046,53.0,2.0,90.0,0.0,0.0
1047,60.0,0.0,60.0,0.0,0.0
1048,48.0,144.0,60.0,1.0,0.0
1049,46.0,2.0,390.0,1.0,0.0
1050,58.0,0.0,240.0,0.0,0.0
1051,53.0,96.0,60.0,0.0,0.0
1052,50.0,0.0,60.0,0.0,0.0
1053,34.0,2.0,60.0,1.0,0.0
1054,39.0,48.0,90.0,1.0,0.0
1055,54.0,0.0,90.0,0.0,0.0
1056,51.0,0.0,90.0,0.0,0.0
1057,56.0,0.0,60.0,0.0,0.0
1058,59.0,0.0,60.0,0.0,0.0
1059,51.0,94.0,60.0,0.0,0.0
1060,32.0,0.0,60.0,1.0,0.0
1061,44.0,0.0,60.0,1.0,0.0
1062,34.0,240.0,150.0,1.0,0.0
1063,51.0,0.0,90.0,0.0,0.0
1064,50.0,0.0,60.0,0.0,0.0
1065,53.0,0.0,15.0,0.0,0.0
1066,58.0,48.0,15.0,0.0,0.0
1067,46.0,0.0,60.0,1.0,0.0
1068,39.0,0.0,240.0,1.0,0.0
1069,46.0,0.0,240.0,0.0,0.0
1070,27.0,0.0,240.0,1.0,0.0
1071,51.0,0.0,240.0,0.0,0.0
1072,58.0,0.0,240.0,0.0,0.0
1073,55.0,48.0,240.0,0.0,0.0
