,note,step,duration,channel,velocity
0,63.0,50.0,40.0,0.0,0.0
1,60.0,1.0,30.0,0.0,0.0
2,63.0,0.0,30.0,0.0,0.0
3,44.0,0.0,30.0,0.0,0.0
4,32.0,29.0,30.0,0.0,0.0
5,60.0,30.0,30.0,0.0,0.0
6,68.0,0.0,30.0,0.0,0.0
7,61.0,0.0,30.0,0.0,0.0
8,64.0,30.0,30.0,0.0,0.0
9,61.0,0.0,30.0,0.0,0.0
10,70.0,30.0,30.0,0.0,0.0
11,58.0,30.0,30.0,0.0,0.0
12,61.0,0.0,30.0,0.0,0.0
13,52.0,28.0,60.0,0.0,0.0
14,67.0,2.0,30.0,0.0,0.0
15,58.0,0.0,30.0,0.0,0.0
16,58.0,30.0,30.0,0.0,0.0
17,55.0,0.0,30.0,0.0,0.0
18,51.0,22.0,60.0,0.0,0.0
19,55.0,8.0,30.0,0.0,0.0
20,63.0,0.0,30.0,0.0,0.0
21,50.0,20.0,60.0,0.0,0.0
22,56.0,0.0,30.0,0.0,0.0
23,59.0,30.0,30.0,0.0,0.0
24,56.0,2.0,30.0,0.0,0.0
25,65.0,0.0,30.0,0.0,0.0
26,49.0,8.0,20.0,0.0,0.0
27,58.0,0.0,30.0,0.0,0.0
28,64.0,30.0,30.0,0.0,0.0
29,67.0,19.0,30.0,0.0,0.0
30,58.0,0.0,30.0,0.0,0.0
31,32.0,11.0,15.0,0.0,0.0
32,63.0,30.0,30.0,0.0,0.0
33,60.0,0.0,30.0,0.0,0.0
34,68.0,0.0,30.0,0.0,0.0
35,60.0,30.0,30.0,0.0,0.0
36,44.0,4.0,300.0,0.0,0.0
37,64.0,30.0,30.0,0.0,0.0
38,61.0,0.0,30.0,0.0,0.0
39,61.0,0.0,30.0,0.0,0.0
40,70.0,30.0,30.0,0.0,0.0
41,61.0,30.0,30.0,0.0,0.0
42,52.0,22.0,60.0,0.0,0.0
43,67.0,0.0,30.0,0.0,0.0
44,58.0,8.0,30.0,0.0,0.0
45,58.0,30.0,30.0,0.0,0.0
46,55.0,0.0,30.0,0.0,0.0
47,51.0,23.0,60.0,0.0,0.0
48,63.0,7.0,30.0,0.0,0.0
49,55.0,0.0,30.0,0.0,0.0
50,50.0,29.0,60.0,0.0,0.0
51,59.0,30.0,30.0,0.0,0.0
52,56.0,0.0,30.0,0.0,0.0
53,56.0,1.0,30.0,0.0,0.0
54,65.0,0.0,30.0,0.0,0.0
55,64.0,0.0,30.0,0.0,0.0
56,58.0,30.0,30.0,0.0,0.0
57,49.0,23.0,60.0,0.0,0.0
58,67.0,0.0,30.0,0.0,0.0
59,58.0,3.0,30.0,0.0,0.0
60,48.0,21.0,60.0,0.0,0.0
61,63.0,30.0,30.0,0.0,0.0
62,60.0,0.0,30.0,0.0,0.0
63,68.0,0.0,30.0,0.0,0.0
64,60.0,9.0,30.0,0.0,0.0
65,46.0,24.0,60.0,0.0,0.0
66,67.0,30.0,30.0,0.0,0.0
67,61.0,0.0,30.0,0.0,0.0
68,61.0,6.0,30.0,0.0,0.0
69,70.0,0.0,30.0,0.0,0.0
70,45.0,14.0,90.0,0.0,0.0
71,63.0,0.0,30.0,0.0,0.0
72,66.0,30.0,30.0,0.0,0.0
73,63.0,30.0,30.0,0.0,0.0
74,72.0,0.0,30.0,0.0,0.0
75,57.0,0.0,40.0,0.0,0.0
76,66.0,16.0,30.0,0.0,0.0
77,72.0,0.0,30.0,0.0,0.0
78,66.0,30.0,30.0,0.0,0.0
79,75.0,0.0,30.0,0.0,0.0
80,58.0,20.0,40.0,0.0,0.0
81,46.0,1.0,40.0,0.0,0.0
82,70.0,9.0,30.0,0.0,0.0
83,65.0,0.0,30.0,0.0,0.0
84,65.0,30.0,30.0,0.0,0.0
85,73.0,0.0,30.0,0.0,0.0
86,48.0,13.0,40.0,0.0,0.0
87,56.0,4.0,40.0,0.0,0.0
88,63.0,13.0,30.0,0.0,0.0
89,65.0,0.0,30.0,0.0,0.0
90,63.0,0.0,30.0,0.0,0.0
91,72.0,30.0,30.0,0.0,0.0
92,57.0,1.0,30.0,0.0,0.0
93,48.0,27.0,30.0,0.0,0.0
94,65.0,0.0,30.0,0.0,0.0
95,63.0,2.0,30.0,0.0,0.0
96,63.0,30.0,30.0,0.0,0.0
97,72.0,0.0,30.0,0.0,0.0
98,65.0,30.0,30.0,0.0,0.0
99,61.0,0.0,30.0,0.0,0.0
100,49.0,22.0,60.0,0.0,0.0
101,58.0,8.0,60.0,0.0,0.0
102,61.0,0.0,30.0,0.0,0.0
103,70.0,0.0,30.0,0.0,0.0
104,50.0,28.0,60.0,0.0,0.0
105,59.0,30.0,30.0,0.0,0.0
106,65.0,0.0,30.0,0.0,0.0
107,68.0,0.0,30.0,0.0,0.0
108,59.0,2.0,30.0,0.0,0.0
109,51.0,20.0,60.0,0.0,0.0
110,63.0,0.0,30.0,0.0,0.0
111,60.0,30.0,30.0,0.0,0.0
112,60.0,10.0,30.0,0.0,0.0
113,68.0,0.0,30.0,0.0,0.0
114,39.0,0.0,60.0,0.0,0.0
115,59.0,30.0,30.0,0.0,0.0
116,62.0,0.0,30.0,0.0,0.0
117,68.0,0.0,30.0,0.0,0.0
118,59.0,30.0,30.0,0.0,0.0
119,58.0,30.0,30.0,0.0,0.0
120,61.0,0.0,30.0,0.0,0.0
121,51.0,23.0,60.0,0.0,0.0
122,58.0,7.0,30.0,0.0,0.0
123,67.0,0.0,30.0,0.0,0.0
124,44.0,12.0,300.0,0.0,0.0
125,60.0,30.0,30.0,0.0,0.0
126,63.0,0.0,30.0,0.0,0.0
127,60.0,30.0,30.0,0.0,0.0
128,68.0,0.0,30.0,0.0,0.0
129,52.0,23.0,120.0,0.0,0.0
130,61.0,30.0,30.0,0.0,0.0
131,64.0,0.0,30.0,0.0,0.0
132,61.0,30.0,30.0,0.0,0.0
133,70.0,0.0,30.0,0.0,0.0
134,61.0,30.0,30.0,0.0,0.0
135,58.0,0.0,30.0,0.0,0.0
136,58.0,7.0,30.0,0.0,0.0
137,67.0,0.0,30.0,0.0,0.0
138,58.0,30.0,30.0,0.0,0.0
139,55.0,0.0,30.0,0.0,0.0
140,51.0,19.0,60.0,0.0,0.0
141,55.0,11.0,30.0,0.0,0.0
142,63.0,0.0,30.0,0.0,0.0
143,59.0,0.0,30.0,0.0,0.0
144,56.0,30.0,30.0,0.0,0.0
145,50.0,8.0,60.0,0.0,0.0
146,65.0,0.0,30.0,0.0,0.0
147,56.0,8.0,30.0,0.0,0.0
148,58.0,0.0,30.0,0.0,0.0
149,64.0,30.0,30.0,0.0,0.0
150,49.0,2.0,20.0,0.0,0.0
151,58.0,21.0,30.0,0.0,0.0
152,67.0,0.0,30.0,0.0,0.0
153,63.0,0.0,30.0,0.0,0.0
154,60.0,30.0,30.0,0.0,0.0
155,32.0,9.0,15.0,0.0,0.0
156,60.0,30.0,30.0,0.0,0.0
157,68.0,0.0,30.0,0.0,0.0
158,64.0,0.0,30.0,0.0,0.0
159,61.0,30.0,30.0,0.0,0.0
160,44.0,12.0,240.0,0.0,0.0
161,61.0,0.0,30.0,0.0,0.0
162,70.0,30.0,30.0,0.0,0.0
163,58.0,29.0,30.0,0.0,0.0
164,61.0,0.0,30.0,0.0,0.0
165,52.0,1.0,60.0,0.0,0.0
166,67.0,30.0,30.0,0.0,0.0
167,58.0,0.0,30.0,0.0,0.0
168,51.0,23.0,60.0,0.0,0.0
169,55.0,0.0,30.0,0.0,0.0
170,58.0,30.0,30.0,0.0,0.0
171,63.0,7.0,30.0,0.0,0.0
172,55.0,0.0,30.0,0.0,0.0
173,56.0,30.0,30.0,0.0,0.0
174,59.0,0.0,30.0,0.0,0.0
175,50.0,10.0,60.0,0.0,0.0
176,56.0,0.0,30.0,0.0,0.0
177,65.0,8.0,30.0,0.0,0.0
178,64.0,30.0,30.0,0.0,0.0
179,58.0,0.0,30.0,0.0,0.0
180,49.0,14.0,60.0,0.0,0.0
181,58.0,0.0,30.0,0.0,0.0
182,67.0,16.0,30.0,0.0,0.0
183,48.0,20.0,60.0,0.0,0.0
184,60.0,30.0,30.0,0.0,0.0
185,63.0,0.0,30.0,0.0,0.0
186,60.0,10.0,30.0,0.0,0.0
187,68.0,0.0,30.0,0.0,0.0
188,66.0,30.0,30.0,0.0,0.0
189,63.0,0.0,30.0,0.0,0.0
190,44.0,25.0,60.0,0.0,0.0
191,63.0,5.0,30.0,0.0,0.0
192,72.0,0.0,30.0,0.0,0.0
193,43.0,25.0,60.0,0.0,0.0
194,63.0,0.0,30.0,0.0,0.0
195,67.0,30.0,30.0,0.0,0.0
196,63.0,5.0,30.0,0.0,0.0
197,72.0,0.0,30.0,0.0,0.0
198,69.0,0.0,30.0,0.0,0.0
199,63.0,30.0,30.0,0.0,0.0
200,42.0,26.0,60.0,0.0,0.0
201,63.0,0.0,30.0,0.0,0.0
202,72.0,4.0,30.0,0.0,0.0
203,43.0,2.0,60.0,0.0,0.0
204,67.0,0.0,30.0,0.0,0.0
205,72.0,28.0,30.0,0.0,0.0
206,67.0,30.0,30.0,0.0,0.0
207,75.0,0.0,30.0,0.0,0.0
208,55.0,4.0,60.0,0.0,0.0
209,67.0,26.0,30.0,0.0,0.0
210,65.0,0.0,30.0,0.0,0.0
211,65.0,30.0,30.0,0.0,0.0
212,74.0,0.0,30.0,0.0,0.0
213,48.0,20.0,40.0,0.0,0.0
214,63.0,0.0,30.0,0.0,0.0
215,67.0,10.0,30.0,0.0,0.0
216,72.0,0.0,30.0,0.0,0.0
217,63.0,30.0,30.0,0.0,0.0
218,72.0,0.0,30.0,0.0,0.0
219,67.0,30.0,30.0,0.0,0.0
220,75.0,0.0,30.0,0.0,0.0
221,67.0,30.0,30.0,0.0,0.0
222,75.0,30.0,30.0,0.0,0.0
223,72.0,0.0,30.0,0.0,0.0
224,79.0,0.0,30.0,0.0,0.0
225,72.0,30.0,30.0,0.0,0.0
226,75.0,30.0,30.0,0.0,0.0
227,79.0,0.0,30.0,0.0,0.0
228,60.0,23.0,60.0,0.0,0.0
229,75.0,7.0,30.0,0.0,0.0
230,84.0,0.0,30.0,0.0,0.0
231,61.0,25.0,60.0,0.0,0.0
232,77.0,0.0,30.0,0.0,0.0
233,73.0,30.0,30.0,0.0,0.0
234,82.0,5.0,30.0,0.0,0.0
235,73.0,0.0,30.0,0.0,0.0
236,63.0,18.0,60.0,0.0,0.0
237,75.0,30.0,30.0,0.0,0.0
238,73.0,0.0,30.0,0.0,0.0
239,73.0,0.0,30.0,0.0,0.0
240,79.0,12.0,30.0,0.0,0.0
241,56.0,24.0,60.0,0.0,0.0
242,75.0,0.0,30.0,0.0,0.0
243,72.0,30.0,30.0,0.0,0.0
244,72.0,6.0,30.0,0.0,0.0
245,80.0,0.0,30.0,0.0,0.0
246,64.0,16.0,120.0,0.0,0.0
247,76.0,30.0,30.0,0.0,0.0
248,73.0,0.0,30.0,0.0,0.0
249,82.0,30.0,30.0,0.0,0.0
250,73.0,0.0,30.0,0.0,0.0
251,73.0,30.0,30.0,0.0,0.0
252,70.0,0.0,30.0,0.0,0.0
253,70.0,0.0,30.0,0.0,0.0
254,79.0,14.0,30.0,0.0,0.0
255,67.0,0.0,30.0,0.0,0.0
256,70.0,30.0,30.0,0.0,0.0
257,63.0,19.0,60.0,0.0,0.0
258,75.0,11.0,30.0,0.0,0.0
259,67.0,0.0,30.0,0.0,0.0
260,68.0,30.0,30.0,0.0,0.0
261,71.0,0.0,30.0,0.0,0.0
262,62.0,21.0,60.0,0.0,0.0
263,68.0,0.0,30.0,0.0,0.0
264,77.0,6.0,30.0,0.0,0.0
265,61.0,3.0,30.0,0.0,0.0
266,76.0,30.0,30.0,0.0,0.0
267,70.0,0.0,30.0,0.0,0.0
268,79.0,0.0,30.0,0.0,0.0
269,70.0,19.0,30.0,0.0,0.0
270,44.0,11.0,15.0,0.0,0.0
271,72.0,30.0,30.0,0.0,0.0
272,75.0,0.0,30.0,0.0,0.0
273,80.0,0.0,30.0,0.0,0.0
274,72.0,30.0,30.0,0.0,0.0
275,76.0,30.0,30.0,0.0,0.0
276,73.0,0.0,30.0,0.0,0.0
277,56.0,28.0,270.0,0.0,0.0
278,73.0,30.0,30.0,0.0,0.0
279,82.0,0.0,30.0,0.0,0.0
280,70.0,30.0,30.0,0.0,0.0
281,73.0,0.0,30.0,0.0,0.0
282,64.0,28.0,60.0,0.0,0.0
283,70.0,2.0,30.0,0.0,0.0
284,79.0,0.0,30.0,0.0,0.0
285,70.0,0.0,30.0,0.0,0.0
286,67.0,30.0,30.0,0.0,0.0
287,63.0,24.0,60.0,0.0,0.0
288,75.0,0.0,30.0,0.0,0.0
289,67.0,6.0,30.0,0.0,0.0
290,68.0,29.0,30.0,0.0,0.0
291,71.0,0.0,30.0,0.0,0.0
292,62.0,1.0,60.0,0.0,0.0
293,77.0,0.0,30.0,0.0,0.0
294,68.0,30.0,30.0,0.0,0.0
295,61.0,22.0,60.0,0.0,0.0
296,76.0,2.0,30.0,0.0,0.0
297,70.0,0.0,30.0,0.0,0.0
298,79.0,8.0,30.0,0.0,0.0
299,70.0,0.0,30.0,0.0,0.0
300,60.0,18.0,60.0,0.0,0.0
301,72.0,0.0,30.0,0.0,0.0
302,75.0,30.0,30.0,0.0,0.0
303,80.0,12.0,30.0,0.0,0.0
304,72.0,0.0,30.0,0.0,0.0
305,58.0,24.0,60.0,0.0,0.0
306,79.0,0.0,30.0,0.0,0.0
307,73.0,30.0,30.0,0.0,0.0
308,82.0,6.0,30.0,0.0,0.0
309,73.0,0.0,30.0,0.0,0.0
310,57.0,0.0,90.0,0.0,0.0
311,78.0,30.0,30.0,0.0,0.0
312,75.0,0.0,30.0,0.0,0.0
313,84.0,0.0,30.0,0.0,0.0
314,75.0,30.0,30.0,0.0,0.0
315,66.0,5.0,60.0,0.0,0.0
316,69.0,2.0,60.0,0.0,0.0
317,63.0,2.0,40.0,0.0,0.0
318,84.0,21.0,30.0,0.0,0.0
319,78.0,0.0,30.0,0.0,0.0
320,78.0,0.0,30.0,0.0,0.0
321,87.0,30.0,30.0,0.0,0.0
322,70.0,6.0,60.0,0.0,0.0
323,58.0,0.0,40.0,0.0,0.0
324,65.0,2.0,60.0,0.0,0.0
325,77.0,21.0,30.0,0.0,0.0
326,82.0,0.0,30.0,0.0,0.0
327,61.0,1.0,40.0,0.0,0.0
328,77.0,0.0,30.0,0.0,0.0
329,85.0,30.0,30.0,0.0,0.0
330,69.0,9.0,40.0,0.0,0.0
331,75.0,0.0,30.0,0.0,0.0
332,77.0,16.0,30.0,0.0,0.0
333,65.0,0.0,40.0,0.0,0.0
334,60.0,1.0,40.0,0.0,0.0
335,63.0,4.0,40.0,0.0,0.0
336,75.0,28.0,30.0,0.0,0.0
337,84.0,0.0,30.0,0.0,0.0
338,77.0,0.0,30.0,0.0,0.0
339,75.0,10.0,30.0,0.0,0.0
340,69.0,17.0,40.0,0.0,0.0
341,63.0,0.0,40.0,0.0,0.0
342,60.0,2.0,20.0,0.0,0.0
343,65.0,3.0,40.0,0.0,0.0
344,75.0,30.0,30.0,0.0,0.0
345,84.0,0.0,30.0,0.0,0.0
346,77.0,8.0,30.0,0.0,0.0
347,73.0,0.0,30.0,0.0,0.0
348,65.0,18.0,40.0,0.0,0.0
349,70.0,1.0,30.0,0.0,0.0
350,61.0,3.0,40.0,0.0,0.0
351,73.0,0.0,30.0,0.0,0.0
352,82.0,30.0,30.0,0.0,0.0
353,77.0,30.0,30.0,0.0,0.0
354,71.0,0.0,30.0,0.0,0.0
355,65.0,2.0,60.0,0.0,0.0
356,62.0,19.0,60.0,0.0,0.0
357,71.0,9.0,30.0,0.0,0.0
358,80.0,0.0,30.0,0.0,0.0
359,75.0,30.0,30.0,0.0,0.0
360,72.0,0.0,30.0,0.0,0.0
361,63.0,17.0,60.0,0.0,0.0
362,72.0,13.0,30.0,0.0,0.0
363,80.0,0.0,30.0,0.0,0.0
364,74.0,30.0,30.0,0.0,0.0
365,71.0,0.0,30.0,0.0,0.0
366,51.0,16.0,60.0,0.0,0.0
367,71.0,1.0,30.0,0.0,0.0
368,80.0,0.0,30.0,0.0,0.0
369,63.0,13.0,15.0,0.0,0.0
370,70.0,30.0,30.0,0.0,0.0
371,73.0,0.0,30.0,0.0,0.0
372,79.0,0.0,30.0,0.0,0.0
373,70.0,8.0,30.0,0.0,0.0
374,44.0,22.0,15.0,0.0,0.0
375,72.0,0.0,30.0,0.0,0.0
376,75.0,30.0,30.0,0.0,0.0
377,56.0,2.0,330.0,0.0,0.0
378,72.0,30.0,30.0,0.0,0.0
379,80.0,0.0,30.0,0.0,0.0
380,64.0,29.0,120.0,0.0,0.0
381,76.0,30.0,30.0,0.0,0.0
382,73.0,0.0,30.0,0.0,0.0
383,82.0,30.0,30.0,0.0,0.0
384,73.0,0.0,30.0,0.0,0.0
385,73.0,30.0,30.0,0.0,0.0
386,70.0,0.0,30.0,0.0,0.0
387,70.0,0.0,30.0,0.0,0.0
388,79.0,1.0,30.0,0.0,0.0
389,63.0,22.0,60.0,0.0,0.0
390,70.0,30.0,30.0,0.0,0.0
391,67.0,0.0,30.0,0.0,0.0
392,75.0,8.0,30.0,0.0,0.0
393,67.0,0.0,30.0,0.0,0.0
394,62.0,3.0,60.0,0.0,0.0
395,68.0,0.0,30.0,0.0,0.0
396,71.0,27.0,30.0,0.0,0.0
397,77.0,0.0,30.0,0.0,0.0
398,68.0,30.0,30.0,0.0,0.0
399,61.0,25.0,30.0,0.0,0.0
400,76.0,3.0,30.0,0.0,0.0
401,70.0,0.0,30.0,0.0,0.0
402,70.0,30.0,30.0,0.0,0.0
403,79.0,0.0,30.0,0.0,0.0
404,75.0,2.0,30.0,0.0,0.0
405,72.0,0.0,30.0,0.0,0.0
406,44.0,28.0,30.0,0.0,0.0
407,72.0,30.0,30.0,0.0,0.0
408,80.0,0.0,30.0,0.0,0.0
409,76.0,30.0,30.0,0.0,0.0
410,73.0,0.0,30.0,0.0,0.0
411,56.0,30.0,270.0,0.0,0.0
412,82.0,30.0,30.0,0.0,0.0
413,73.0,0.0,30.0,0.0,0.0
414,73.0,30.0,30.0,0.0,0.0
415,70.0,0.0,30.0,0.0,0.0
416,64.0,26.0,60.0,0.0,0.0
417,70.0,0.0,30.0,0.0,0.0
418,79.0,4.0,30.0,0.0,0.0
419,63.0,21.0,60.0,0.0,0.0
420,67.0,30.0,30.0,0.0,0.0
421,70.0,0.0,30.0,0.0,0.0
422,75.0,0.0,30.0,0.0,0.0
423,67.0,9.0,30.0,0.0,0.0
424,71.0,25.0,30.0,0.0,0.0
425,68.0,0.0,30.0,0.0,0.0
426,62.0,5.0,60.0,0.0,0.0
427,77.0,30.0,30.0,0.0,0.0
428,68.0,0.0,30.0,0.0,0.0
429,61.0,21.0,60.0,0.0,0.0
430,70.0,0.0,30.0,0.0,0.0
431,76.0,0.0,30.0,0.0,0.0
432,70.0,0.0,30.0,0.0,0.0
433,79.0,9.0,30.0,0.0,0.0
434,60.0,15.0,60.0,0.0,0.0
435,72.0,30.0,30.0,0.0,0.0
436,75.0,0.0,30.0,0.0,0.0
437,72.0,15.0,30.0,0.0,0.0
438,80.0,0.0,30.0,0.0,0.0
439,56.0,27.0,60.0,0.0,0.0
440,78.0,30.0,30.0,0.0,0.0
441,75.0,0.0,30.0,0.0,0.0
442,75.0,0.0,30.0,0.0,0.0
443,84.0,3.0,30.0,0.0,0.0
444,55.0,24.0,60.0,0.0,0.0
445,75.0,0.0,30.0,0.0,0.0
446,79.0,30.0,30.0,0.0,0.0
447,75.0,6.0,30.0,0.0,0.0
448,84.0,0.0,30.0,0.0,0.0
449,54.0,0.0,60.0,0.0,0.0
450,81.0,30.0,30.0,0.0,0.0
451,75.0,0.0,30.0,0.0,0.0
452,84.0,30.0,30.0,0.0,0.0
453,75.0,0.0,30.0,0.0,0.0
454,55.0,13.0,60.0,0.0,0.0
455,79.0,0.0,30.0,0.0,0.0
456,84.0,30.0,30.0,0.0,0.0
457,79.0,17.0,30.0,0.0,0.0
458,87.0,0.0,30.0,0.0,0.0
459,77.0,30.0,30.0,0.0,0.0
460,79.0,0.0,30.0,0.0,0.0
461,43.0,22.0,60.0,0.0,0.0
462,86.0,0.0,30.0,0.0,0.0
463,77.0,0.0,30.0,0.0,0.0
464,36.0,8.0,20.0,0.0,0.0
465,75.0,30.0,30.0,0.0,0.0
466,79.0,0.0,30.0,0.0,0.0
467,84.0,30.0,30.0,0.0,0.0
468,75.0,0.0,30.0,0.0,0.0
469,51.0,25.0,60.0,0.0,0.0
470,79.0,0.0,30.0,0.0,0.0
471,75.0,30.0,30.0,0.0,0.0
472,75.0,5.0,30.0,0.0,0.0
473,84.0,0.0,30.0,0.0,0.0
474,48.0,11.0,40.0,0.0,0.0
475,75.0,0.0,30.0,0.0,0.0
476,79.0,19.0,30.0,0.0,0.0
477,84.0,30.0,30.0,0.0,0.0
478,75.0,0.0,30.0,0.0,0.0
479,75.0,30.0,30.0,0.0,0.0
480,79.0,0.0,30.0,0.0,0.0
481,63.0,0.0,120.0,0.0,0.0
482,75.0,0.0,30.0,0.0,0.0
483,84.0,30.0,30.0,0.0,0.0
484,75.0,30.0,30.0,0.0,0.0
485,79.0,0.0,30.0,0.0,0.0
486,75.0,0.0,30.0,0.0,0.0
487,84.0,30.0,30.0,0.0,0.0
488,58.0,18.0,40.0,0.0,0.0
489,78.0,12.0,30.0,0.0,0.0
490,75.0,0.0,30.0,0.0,0.0
491,84.0,0.0,30.0,0.0,0.0
492,75.0,16.0,30.0,0.0,0.0
493,75.0,0.0,30.0,0.0,0.0
494,77.0,30.0,30.0,0.0,0.0
495,41.0,14.0,15.0,0.0,0.0
496,75.0,0.0,30.0,0.0,0.0
497,84.0,30.0,30.0,0.0,0.0
498,75.0,1.0,30.0,0.0,0.0
499,77.0,0.0,30.0,0.0,0.0
500,57.0,29.0,30.0,0.0,0.0
501,48.0,26.0,30.0,0.0,0.0
502,75.0,4.0,30.0,0.0,0.0
503,84.0,0.0,30.0,0.0,0.0
504,41.0,25.0,30.0,0.0,0.0
505,75.0,5.0,30.0,0.0,0.0
506,77.0,0.0,30.0,0.0,0.0
507,75.0,0.0,30.0,0.0,0.0
508,84.0,11.0,30.0,0.0,0.0
509,75.0,0.0,30.0,0.0,0.0
510,77.0,30.0,30.0,0.0,0.0
511,29.0,19.0,15.0,0.0,0.0
512,84.0,30.0,30.0,0.0,0.0
513,75.0,0.0,30.0,0.0,0.0
514,57.0,30.0,30.0,0.0,0.0
515,75.0,0.0,30.0,0.0,0.0
516,77.0,0.0,30.0,0.0,0.0
517,48.0,23.0,30.0,0.0,0.0
518,75.0,5.0,30.0,0.0,0.0
519,85.0,0.0,30.0,0.0,0.0
520,41.0,2.0,30.0,0.0,0.0
521,75.0,30.0,30.0,0.0,0.0
522,77.0,0.0,30.0,0.0,0.0
523,75.0,11.0,30.0,0.0,0.0
524,84.0,0.0,30.0,0.0,0.0
525,75.0,0.0,30.0,0.0,0.0
526,77.0,30.0,30.0,0.0,0.0
527,34.0,19.0,15.0,0.0,0.0
528,84.0,0.0,30.0,0.0,0.0
529,75.0,30.0,30.0,0.0,0.0
530,77.0,3.0,30.0,0.0,0.0
531,72.0,0.0,30.0,0.0,0.0
532,65.0,27.0,30.0,0.0,0.0
533,53.0,20.0,30.0,0.0,0.0
534,72.0,0.0,30.0,0.0,0.0
535,81.0,3.0,30.0,0.0,0.0
536,46.0,7.0,20.0,0.0,0.0
537,77.0,30.0,30.0,0.0,0.0
538,73.0,0.0,30.0,0.0,0.0
539,82.0,0.0,30.0,0.0,0.0
540,73.0,30.0,30.0,0.0,0.0
541,61.0,13.0,120.0,0.0,0.0
542,77.0,30.0,30.0,0.0,0.0
543,73.0,0.0,30.0,0.0,0.0
544,73.0,0.0,30.0,0.0,0.0
545,82.0,30.0,30.0,0.0,0.0
546,77.0,0.0,30.0,0.0,0.0
547,73.0,30.0,30.0,0.0,0.0
548,73.0,0.0,30.0,0.0,0.0
549,82.0,13.0,30.0,0.0,0.0
550,56.0,4.0,20.0,0.0,0.0
551,76.0,0.0,30.0,0.0,0.0
552,73.0,30.0,30.0,0.0,0.0
553,82.0,14.0,30.0,0.0,0.0
554,73.0,0.0,30.0,0.0,0.0
555,73.0,0.0,30.0,0.0,0.0
556,39.0,16.0,15.0,0.0,0.0
557,75.0,30.0,30.0,0.0,0.0
558,73.0,30.0,30.0,0.0,0.0
559,82.0,0.0,30.0,0.0,0.0
560,55.0,24.0,30.0,0.0,0.0
561,75.0,6.0,30.0,0.0,0.0
562,73.0,0.0,30.0,0.0,0.0
563,46.0,9.0,30.0,0.0,0.0
564,73.0,5.0,30.0,0.0,0.0
565,82.0,0.0,30.0,0.0,0.0
566,39.0,16.0,15.0,0.0,0.0
567,75.0,0.0,30.0,0.0,0.0
568,73.0,30.0,30.0,0.0,0.0
569,73.0,11.0,30.0,0.0,0.0
570,82.0,0.0,30.0,0.0,0.0
571,27.0,19.0,15.0,0.0,0.0
572,75.0,30.0,30.0,0.0,0.0
573,73.0,0.0,30.0,0.0,0.0
574,82.0,0.0,30.0,0.0,0.0
575,73.0,30.0,30.0,0.0,0.0
576,75.0,4.0,30.0,0.0,0.0
577,73.0,0.0,30.0,0.0,0.0
578,55.0,26.0,30.0,0.0,0.0
579,84.0,8.0,30.0,0.0,0.0
580,73.0,0.0,30.0,0.0,0.0
581,46.0,11.0,30.0,0.0,0.0
582,39.0,11.0,15.0,0.0,0.0
583,73.0,0.0,30.0,0.0,0.0
584,75.0,30.0,30.0,0.0,0.0
585,73.0,15.0,30.0,0.0,0.0
586,82.0,0.0,30.0,0.0,0.0
587,32.0,15.0,15.0,0.0,0.0
588,73.0,0.0,30.0,0.0,0.0
589,75.0,30.0,30.0,0.0,0.0
590,82.0,0.0,30.0,0.0,0.0
591,73.0,30.0,30.0,0.0,0.0
592,63.0,30.0,30.0,0.0,0.0
593,75.0,0.0,30.0,0.0,0.0
594,70.0,0.0,30.0,0.0,0.0
595,51.0,16.0,30.0,0.0,0.0
596,79.0,0.0,30.0,0.0,0.0
597,70.0,2.0,30.0,0.0,0.0
598,44.0,12.0,15.0,0.0,0.0
599,75.0,30.0,30.0,0.0,0.0
600,72.0,0.0,30.0,0.0,0.0
601,72.0,30.0,30.0,0.0,0.0
602,80.0,0.0,30.0,0.0,0.0
603,60.0,21.0,120.0,0.0,0.0
604,72.0,30.0,30.0,0.0,0.0
605,75.0,0.0,30.0,0.0,0.0
606,72.0,30.0,30.0,0.0,0.0
607,80.0,0.0,30.0,0.0,0.0
608,75.0,0.0,30.0,0.0,0.0
609,72.0,30.0,30.0,0.0,0.0
610,72.0,8.0,30.0,0.0,0.0
611,80.0,0.0,30.0,0.0,0.0
612,53.0,1.0,30.0,0.0,0.0
613,75.0,30.0,30.0,0.0,0.0
614,70.0,0.0,30.0,0.0,0.0
615,79.0,21.0,30.0,0.0,0.0
616,70.0,0.0,30.0,0.0,0.0
617,34.0,9.0,20.0,0.0,0.0
618,68.0,0.0,30.0,0.0,0.0
619,70.0,30.0,30.0,0.0,0.0
620,68.0,30.0,30.0,0.0,0.0
621,77.0,0.0,30.0,0.0,0.0
622,62.0,30.0,30.0,0.0,0.0
623,68.0,0.0,30.0,0.0,0.0
624,70.0,0.0,30.0,0.0,0.0
625,53.0,13.0,30.0,0.0,0.0
626,68.0,1.0,30.0,0.0,0.0
627,77.0,0.0,30.0,0.0,0.0
628,70.0,30.0,30.0,0.0,0.0
629,46.0,16.0,15.0,0.0,0.0
630,68.0,0.0,30.0,0.0,0.0
631,68.0,10.0,30.0,0.0,0.0
632,77.0,0.0,30.0,0.0,0.0
633,34.0,20.0,15.0,0.0,0.0
634,68.0,30.0,30.0,0.0,0.0
635,70.0,0.0,30.0,0.0,0.0
636,77.0,0.0,30.0,0.0,0.0
637,68.0,28.0,30.0,0.0,0.0
638,70.0,0.0,30.0,0.0,0.0
639,68.0,30.0,30.0,0.0,0.0
640,62.0,2.0,20.0,0.0,0.0
641,53.0,13.0,30.0,0.0,0.0
642,68.0,0.0,30.0,0.0,0.0
643,79.0,1.0,30.0,0.0,0.0
644,46.0,16.0,15.0,0.0,0.0
645,68.0,30.0,30.0,0.0,0.0
646,70.0,0.0,30.0,0.0,0.0
647,68.0,0.0,30.0,0.0,0.0
648,77.0,30.0,30.0,0.0,0.0
649,39.0,19.0,90.0,0.0,0.0
650,67.0,30.0,30.0,0.0,0.0
651,70.0,0.0,30.0,0.0,0.0
652,67.0,0.0,30.0,0.0,0.0
653,71.0,30.0,30.0,0.0,0.0
654,67.0,11.0,30.0,0.0,0.0
655,70.0,0.0,30.0,0.0,0.0
656,46.0,28.0,30.0,0.0,0.0
657,67.0,2.0,30.0,0.0,0.0
658,72.0,0.0,30.0,0.0,0.0
659,51.0,24.0,30.0,0.0,0.0
660,67.0,0.0,30.0,0.0,0.0
661,70.0,6.0,30.0,0.0,0.0
662,53.0,27.0,30.0,0.0,0.0
663,67.0,3.0,30.0,0.0,0.0
664,73.0,0.0,30.0,0.0,0.0
665,55.0,23.0,90.0,0.0,0.0
666,67.0,0.0,30.0,0.0,0.0
667,70.0,30.0,30.0,0.0,0.0
668,67.0,30.0,30.0,0.0,0.0
669,74.0,0.0,30.0,0.0,0.0
670,70.0,0.0,30.0,0.0,0.0
671,67.0,7.0,30.0,0.0,0.0
672,67.0,0.0,30.0,0.0,0.0
673,75.0,30.0,30.0,0.0,0.0
674,53.0,0.0,30.0,0.0,0.0
675,70.0,8.0,30.0,0.0,0.0
676,67.0,0.0,30.0,0.0,0.0
677,51.0,11.0,40.0,0.0,0.0
678,67.0,15.0,30.0,0.0,0.0
679,76.0,0.0,30.0,0.0,0.0
680,46.0,11.0,15.0,0.0,0.0
681,70.0,30.0,30.0,0.0,0.0
682,34.0,15.0,15.0,0.0,0.0
683,68.0,0.0,30.0,0.0,0.0
684,68.0,30.0,30.0,0.0,0.0
685,77.0,0.0,30.0,0.0,0.0
686,62.0,29.0,30.0,0.0,0.0
687,68.0,0.0,30.0,0.0,0.0
688,70.0,1.0,30.0,0.0,0.0
689,53.0,14.0,30.0,0.0,0.0
690,68.0,3.0,30.0,0.0,0.0
691,77.0,0.0,30.0,0.0,0.0
692,68.0,30.0,30.0,0.0,0.0
693,46.0,13.0,15.0,0.0,0.0
694,70.0,0.0,30.0,0.0,0.0
695,77.0,12.0,30.0,0.0,0.0
696,68.0,0.0,30.0,0.0,0.0
697,70.0,30.0,30.0,0.0,0.0
698,68.0,0.0,30.0,0.0,0.0
699,34.0,18.0,15.0,0.0,0.0
700,68.0,24.0,30.0,0.0,0.0
701,77.0,0.0,30.0,0.0,0.0
702,70.0,30.0,30.0,0.0,0.0
703,68.0,0.0,30.0,0.0,0.0
704,62.0,6.0,20.0,0.0,0.0
705,53.0,11.0,30.0,0.0,0.0
706,79.0,0.0,30.0,0.0,0.0
707,68.0,3.0,30.0,0.0,0.0
708,46.0,16.0,15.0,0.0,0.0
709,70.0,30.0,30.0,0.0,0.0
710,68.0,0.0,30.0,0.0,0.0
711,68.0,28.0,30.0,0.0,0.0
712,77.0,0.0,30.0,0.0,0.0
713,63.0,25.0,30.0,0.0,0.0
714,51.0,2.0,30.0,0.0,0.0
715,55.0,2.0,30.0,0.0,0.0
716,67.0,0.0,30.0,0.0,0.0
717,70.0,3.0,30.0,0.0,0.0
718,67.0,2.0,30.0,0.0,0.0
719,75.0,0.0,30.0,0.0,0.0
720,49.0,28.0,20.0,0.0,0.0
721,56.0,3.0,40.0,0.0,0.0
722,59.0,0.0,40.0,0.0,0.0
723,71.0,7.0,30.0,0.0,0.0
724,68.0,0.0,30.0,0.0,0.0
725,64.0,20.0,30.0,0.0,0.0
726,76.0,0.0,30.0,0.0,0.0
727,68.0,30.0,30.0,0.0,0.0
728,68.0,30.0,30.0,0.0,0.0
729,64.0,0.0,30.0,0.0,0.0
730,64.0,0.0,30.0,0.0,0.0
731,73.0,30.0,30.0,0.0,0.0
732,64.0,30.0,30.0,0.0,0.0
733,61.0,0.0,30.0,0.0,0.0
734,70.0,30.0,30.0,0.0,0.0
735,61.0,0.0,30.0,0.0,0.0
736,37.0,7.0,90.0,0.0,0.0
737,61.0,0.0,30.0,0.0,0.0
738,64.0,18.0,30.0,0.0,0.0
739,49.0,12.0,40.0,0.0,0.0
740,61.0,0.0,30.0,0.0,0.0
741,70.0,23.0,30.0,0.0,0.0
742,65.0,0.0,30.0,0.0,0.0
743,59.0,26.0,30.0,0.0,0.0
744,38.0,3.0,60.0,0.0,0.0
745,50.0,1.0,60.0,0.0,0.0
746,59.0,28.0,30.0,0.0,0.0
747,68.0,0.0,30.0,0.0,0.0
748,51.0,22.0,30.0,0.0,0.0
749,39.0,2.0,30.0,0.0,0.0
750,58.0,3.0,30.0,0.0,0.0
751,63.0,0.0,30.0,0.0,0.0
752,67.0,0.0,30.0,0.0,0.0
753,58.0,18.0,30.0,0.0,0.0
754,37.0,5.0,15.0,0.0,0.0
755,44.0,9.0,30.0,0.0,0.0
756,47.0,0.0,30.0,0.0,0.0
757,56.0,30.0,30.0,0.0,0.0
758,59.0,0.0,30.0,0.0,0.0
759,52.0,3.0,15.0,0.0,0.0
760,64.0,30.0,30.0,0.0,0.0
761,56.0,0.0,30.0,0.0,0.0
762,56.0,30.0,30.0,0.0,0.0
763,52.0,0.0,30.0,0.0,0.0
764,61.0,30.0,30.0,0.0,0.0
765,52.0,0.0,30.0,0.0,0.0
766,49.0,30.0,30.0,0.0,0.0
767,52.0,0.0,30.0,0.0,0.0
768,49.0,0.0,30.0,0.0,0.0
769,58.0,30.0,30.0,0.0,0.0
770,37.0,9.0,40.0,0.0,0.0
771,25.0,26.0,90.0,0.0,0.0
772,52.0,21.0,30.0,0.0,0.0
773,49.0,0.0,30.0,0.0,0.0
774,58.0,30.0,30.0,0.0,0.0
775,49.0,0.0,30.0,0.0,0.0
776,53.0,3.0,30.0,0.0,0.0
777,47.0,0.0,30.0,0.0,0.0
778,26.0,1.0,60.0,0.0,0.0
779,38.0,25.0,60.0,0.0,0.0
780,47.0,5.0,30.0,0.0,0.0
781,56.0,0.0,30.0,0.0,0.0
782,46.0,30.0,30.0,0.0,0.0
783,51.0,0.0,30.0,0.0,0.0
784,27.0,12.0,1050.0,0.0,0.0
785,39.0,0.0,1050.0,0.0,0.0
786,55.0,30.0,30.0,0.0,0.0
787,46.0,0.0,30.0,0.0,0.0
788,53.0,0.0,30.0,0.0,0.0
789,49.0,30.0,30.0,0.0,0.0
790,58.0,30.0,30.0,0.0,0.0
791,49.0,0.0,30.0,0.0,0.0
792,48.0,30.0,30.0,0.0,0.0
793,51.0,0.0,30.0,0.0,0.0
794,48.0,30.0,30.0,0.0,0.0
795,56.0,0.0,30.0,0.0,0.0
796,55.0,30.0,30.0,0.0,0.0
797,51.0,0.0,30.0,0.0,0.0
798,51.0,30.0,30.0,0.0,0.0
799,60.0,0.0,30.0,0.0,0.0
800,53.0,30.0,30.0,0.0,0.0
801,49.0,0.0,30.0,0.0,0.0
802,58.0,0.0,30.0,0.0,0.0
803,49.0,30.0,30.0,0.0,0.0
804,53.0,30.0,30.0,0.0,0.0
805,56.0,0.0,30.0,0.0,0.0
806,61.0,30.0,30.0,0.0,0.0
807,53.0,0.0,30.0,0.0,0.0
808,51.0,30.0,30.0,0.0,0.0
809,55.0,0.0,30.0,0.0,0.0
810,51.0,0.0,30.0,0.0,0.0
811,60.0,30.0,30.0,0.0,0.0
812,58.0,0.0,30.0,0.0,0.0
813,55.0,30.0,30.0,0.0,0.0
814,63.0,0.0,30.0,0.0,0.0
815,55.0,30.0,30.0,0.0,0.0
816,56.0,0.0,30.0,0.0,0.0
817,53.0,30.0,30.0,0.0,0.0
818,61.0,30.0,30.0,0.0,0.0
819,53.0,0.0,30.0,0.0,0.0
820,60.0,30.0,30.0,0.0,0.0
821,56.0,0.0,30.0,0.0,0.0
822,56.0,30.0,30.0,0.0,0.0
823,65.0,0.0,30.0,0.0,0.0
824,55.0,0.0,30.0,0.0,0.0
825,58.0,30.0,30.0,0.0,0.0
826,63.0,30.0,30.0,0.0,0.0
827,55.0,0.0,30.0,0.0,0.0
828,61.0,30.0,30.0,0.0,0.0
829,58.0,0.0,30.0,0.0,0.0
830,67.0,30.0,30.0,0.0,0.0
831,58.0,0.0,30.0,0.0,0.0
832,60.0,30.0,30.0,0.0,0.0
833,56.0,0.0,30.0,0.0,0.0
834,56.0,30.0,30.0,0.0,0.0
835,65.0,0.0,30.0,0.0,0.0
836,61.0,0.0,30.0,0.0,0.0
837,58.0,30.0,30.0,0.0,0.0
838,58.0,0.0,30.0,0.0,0.0
839,67.0,30.0,30.0,0.0,0.0
840,63.0,30.0,30.0,0.0,0.0
841,60.0,0.0,30.0,0.0,0.0
842,68.0,30.0,30.0,0.0,0.0
843,60.0,0.0,30.0,0.0,0.0
844,61.0,0.0,30.0,0.0,0.0
845,65.0,30.0,30.0,0.0,0.0
846,70.0,30.0,30.0,0.0,0.0
847,61.0,0.0,30.0,0.0,0.0
848,63.0,0.0,30.0,0.0,0.0
849,67.0,30.0,30.0,0.0,0.0
850,63.0,30.0,30.0,0.0,0.0
851,72.0,0.0,30.0,0.0,0.0
852,68.0,0.0,30.0,0.0,0.0
853,65.0,18.0,30.0,0.0,0.0
854,65.0,0.0,30.0,0.0,0.0
855,73.0,30.0,30.0,0.0,0.0
856,70.0,30.0,30.0,0.0,0.0
857,67.0,0.0,30.0,0.0,0.0
858,75.0,30.0,30.0,0.0,0.0
859,67.0,0.0,30.0,0.0,0.0
860,68.0,30.0,30.0,0.0,0.0
861,70.0,0.0,30.0,0.0,0.0
862,62.0,22.0,180.0,0.0,0.0
863,68.0,30.0,30.0,0.0,0.0
864,77.0,0.0,30.0,0.0,0.0
865,68.0,0.0,30.0,0.0,0.0
866,70.0,30.0,30.0,0.0,0.0
867,68.0,30.0,30.0,0.0,0.0
868,77.0,0.0,30.0,0.0,0.0
869,70.0,30.0,30.0,0.0,0.0
870,68.0,0.0,30.0,0.0,0.0
871,68.0,0.0,30.0,0.0,0.0
872,77.0,8.0,30.0,0.0,0.0
873,70.0,30.0,30.0,0.0,0.0
874,68.0,0.0,30.0,0.0,0.0
875,60.0,13.0,60.0,0.0,0.0
876,68.0,17.0,30.0,0.0,0.0
877,79.0,0.0,30.0,0.0,0.0
878,68.0,30.0,30.0,0.0,0.0
879,70.0,0.0,30.0,0.0,0.0
880,62.0,22.0,60.0,0.0,0.0
881,77.0,0.0,30.0,0.0,0.0
882,68.0,8.0,30.0,0.0,0.0
883,67.0,0.0,30.0,0.0,0.0
884,70.0,30.0,30.0,0.0,0.0
885,63.0,26.0,240.0,0.0,0.0
886,67.0,30.0,30.0,0.0,0.0
887,75.0,0.0,30.0,0.0,0.0
888,70.0,30.0,30.0,0.0,0.0
889,67.0,0.0,30.0,0.0,0.0
890,67.0,0.0,30.0,0.0,0.0
891,75.0,30.0,30.0,0.0,0.0
892,70.0,30.0,30.0,0.0,0.0
893,67.0,0.0,30.0,0.0,0.0
894,67.0,30.0,30.0,0.0,0.0
895,75.0,0.0,30.0,0.0,0.0
896,70.0,30.0,30.0,0.0,0.0
897,66.0,0.0,30.0,0.0,0.0
898,75.0,0.0,30.0,0.0,0.0
899,66.0,4.0,30.0,0.0,0.0
900,58.0,20.0,60.0,0.0,0.0
901,66.0,30.0,30.0,0.0,0.0
902,70.0,0.0,30.0,0.0,0.0
903,75.0,10.0,30.0,0.0,0.0
904,66.0,0.0,30.0,0.0,0.0
905,60.0,21.0,60.0,0.0,0.0
906,68.0,30.0,30.0,0.0,0.0
907,66.0,0.0,30.0,0.0,0.0
908,66.0,0.0,30.0,0.0,0.0
909,75.0,9.0,30.0,0.0,0.0
910,65.0,30.0,30.0,0.0,0.0
911,68.0,0.0,30.0,0.0,0.0
912,61.0,18.0,240.0,0.0,0.0
913,73.0,0.0,30.0,0.0,0.0
914,65.0,30.0,30.0,0.0,0.0
915,68.0,30.0,30.0,0.0,0.0
916,65.0,0.0,30.0,0.0,0.0
917,65.0,30.0,30.0,0.0,0.0
918,73.0,0.0,30.0,0.0,0.0
919,65.0,30.0,30.0,0.0,0.0
920,68.0,0.0,30.0,0.0,0.0
921,65.0,30.0,30.0,0.0,0.0
922,73.0,0.0,30.0,0.0,0.0
923,68.0,30.0,30.0,0.0,0.0
924,65.0,0.0,30.0,0.0,0.0
925,73.0,0.0,30.0,0.0,0.0
926,65.0,12.0,30.0,0.0,0.0
927,56.0,14.0,60.0,0.0,0.0
928,68.0,0.0,30.0,0.0,0.0
929,65.0,30.0,30.0,0.0,0.0
930,65.0,16.0,30.0,0.0,0.0
931,73.0,0.0,30.0,0.0,0.0
932,65.0,30.0,30.0,0.0,0.0
933,67.0,0.0,30.0,0.0,0.0
934,58.0,22.0,60.0,0.0,0.0
935,65.0,8.0,30.0,0.0,0.0
936,73.0,0.0,30.0,0.0,0.0
937,67.0,30.0,30.0,0.0,0.0
938,64.0,0.0,30.0,0.0,0.0
939,60.0,22.0,60.0,0.0,0.0
940,64.0,8.0,30.0,0.0,0.0
941,72.0,0.0,30.0,0.0,0.0
942,63.0,0.0,30.0,0.0,0.0
943,67.0,30.0,30.0,0.0,0.0
944,55.0,17.0,60.0,0.0,0.0
945,72.0,0.0,30.0,0.0,0.0
946,63.0,13.0,30.0,0.0,0.0
947,63.0,0.0,30.0,0.0,0.0
948,65.0,30.0,30.0,0.0,0.0
949,57.0,20.0,60.0,0.0,0.0
950,63.0,0.0,30.0,0.0,0.0
951,72.0,10.0,30.0,0.0,0.0
952,65.0,0.0,30.0,0.0,0.0
953,62.0,30.0,30.0,0.0,0.0
954,58.0,25.0,60.0,0.0,0.0
955,70.0,5.0,30.0,0.0,0.0
956,62.0,0.0,30.0,0.0,0.0
957,53.0,14.0,60.0,0.0,0.0
958,65.0,0.0,30.0,0.0,0.0
959,61.0,30.0,30.0,0.0,0.0
960,61.0,16.0,30.0,0.0,0.0
961,70.0,0.0,30.0,0.0,0.0
962,55.0,26.0,60.0,0.0,0.0
963,61.0,30.0,30.0,0.0,0.0
964,63.0,0.0,30.0,0.0,0.0
965,61.0,4.0,30.0,0.0,0.0
966,70.0,0.0,30.0,0.0,0.0
967,63.0,0.0,30.0,0.0,0.0
968,60.0,30.0,30.0,0.0,0.0
969,56.0,19.0,60.0,0.0,0.0
970,60.0,11.0,30.0,0.0,0.0
971,68.0,0.0,30.0,0.0,0.0
972,59.0,30.0,30.0,0.0,0.0
973,64.0,0.0,30.0,0.0,0.0
974,52.0,21.0,60.0,0.0,0.0
975,68.0,9.0,30.0,0.0,0.0
976,59.0,0.0,30.0,0.0,0.0
977,65.0,30.0,30.0,0.0,0.0
978,59.0,0.0,30.0,0.0,0.0
979,50.0,23.0,60.0,0.0,0.0
980,59.0,0.0,30.0,0.0,0.0
981,68.0,7.0,30.0,0.0,0.0
982,63.0,30.0,30.0,0.0,0.0
983,60.0,0.0,30.0,0.0,0.0
984,51.0,24.0,60.0,0.0,0.0
985,60.0,0.0,30.0,0.0,0.0
986,68.0,6.0,30.0,0.0,0.0
987,62.0,0.0,30.0,0.0,0.0
988,39.0,7.0,60.0,0.0,0.0
989,59.0,30.0,30.0,0.0,0.0
990,68.0,0.0,30.0,0.0,0.0
991,59.0,13.0,30.0,0.0,0.0
992,58.0,30.0,30.0,0.0,0.0
993,61.0,0.0,30.0,0.0,0.0
994,51.0,10.0,15.0,0.0,0.0
995,67.0,0.0,30.0,0.0,0.0
996,58.0,14.0,30.0,0.0,0.0
997,32.0,16.0,15.0,0.0,0.0
998,44.0,4.0,300.0,0.0,0.0
999,63.0,0.0,30.0,0.0,0.0
1000,60.0,30.0,30.0,0.0,0.0
1001,60.0,30.0,30.0,0.0,0.0
1002,68.0,0.0,30.0,0.0,0.0
1003,64.0,0.0,30.0,0.0,0.0
1004,61.0,30.0,30.0,0.0,0.0
1005,52.0,22.0,120.0,0.0,0.0
1006,61.0,30.0,30.0,0.0,0.0
1007,70.0,0.0,30.0,0.0,0.0
1008,58.0,30.0,30.0,0.0,0.0
1009,61.0,0.0,30.0,0.0,0.0
1010,67.0,0.0,30.0,0.0,0.0
1011,58.0,8.0,30.0,0.0,0.0
1012,55.0,0.0,30.0,0.0,0.0
1013,58.0,30.0,30.0,0.0,0.0
1014,51.0,18.0,60.0,0.0,0.0
1015,63.0,0.0,30.0,0.0,0.0
1016,55.0,12.0,30.0,0.0,0.0
1017,56.0,0.0,30.0,0.0,0.0
1018,59.0,30.0,30.0,0.0,0.0
1019,50.0,23.0,60.0,0.0,0.0
1020,56.0,3.0,30.0,0.0,0.0
1021,65.0,0.0,30.0,0.0,0.0
1022,49.0,14.0,40.0,0.0,0.0
1023,58.0,16.0,30.0,0.0,0.0
1024,64.0,0.0,30.0,0.0,0.0
1025,58.0,0.0,30.0,0.0,0.0
1026,67.0,30.0,30.0,0.0,0.0
1027,63.0,4.0,30.0,0.0,0.0
1028,60.0,0.0,30.0,0.0,0.0
1029,32.0,26.0,30.0,0.0,0.0
1030,60.0,30.0,30.0,0.0,0.0
1031,68.0,0.0,30.0,0.0,0.0
1032,64.0,0.0,30.0,0.0,0.0
1033,61.0,30.0,30.0,0.0,0.0
1034,44.0,4.0,300.0,0.0,0.0
1035,70.0,30.0,30.0,0.0,0.0
1036,61.0,0.0,30.0,0.0,0.0
1037,61.0,30.0,30.0,0.0,0.0
1038,58.0,0.0,30.0,0.0,0.0
1039,52.0,26.0,60.0,0.0,0.0
1040,67.0,0.0,30.0,0.0,0.0
1041,58.0,4.0,30.0,0.0,0.0
1042,55.0,0.0,30.0,0.0,0.0
1043,58.0,30.0,30.0,0.0,0.0
1044,51.0,22.0,60.0,0.0,0.0
1045,63.0,0.0,30.0,0.0,0.0
1046,55.0,8.0,30.0,0.0,0.0
1047,59.0,28.0,30.0,0.0,0.0
1048,56.0,0.0,30.0,0.0,0.0
1049,50.0,2.0,60.0,0.0,0.0
1050,56.0,30.0,30.0,0.0,0.0
1051,65.0,0.0,30.0,0.0,0.0
1052,49.0,18.0,60.0,0.0,0.0
1053,58.0,30.0,30.0,0.0,0.0
1054,64.0,0.0,30.0,0.0,0.0
1055,58.0,8.0,30.0,0.0,0.0
1056,67.0,0.0,30.0,0.0,0.0
1057,48.0,22.0,60.0,0.0,0.0
1058,63.0,30.0,30.0,0.0,0.0
1059,60.0,0.0,30.0,0.0,0.0
1060,60.0,8.0,30.0,0.0,0.0
1061,68.0,0.0,30.0,0.0,0.0
1062,46.0,21.0,60.0,0.0,0.0
1063,61.0,30.0,30.0,0.0,0.0
1064,67.0,0.0,30.0,0.0,0.0
1065,61.0,0.0,30.0,0.0,0.0
1066,70.0,9.0,30.0,0.0,0.0
1067,45.0,4.0,120.0,0.0,0.0
1068,66.0,30.0,30.0,0.0,0.0
1069,63.0,0.0,30.0,0.0,0.0
1070,72.0,30.0,30.0,0.0,0.0
1071,63.0,0.0,30.0,0.0,0.0
1072,72.0,0.0,30.0,0.0,0.0
1073,66.0,23.0,30.0,0.0,0.0
1074,57.0,3.0,40.0,0.0,0.0
1075,75.0,0.0,30.0,0.0,0.0
1076,66.0,30.0,30.0,0.0,0.0
1077,65.0,11.0,30.0,0.0,0.0
1078,70.0,0.0,30.0,0.0,0.0
1079,58.0,16.0,40.0,0.0,0.0
1080,46.0,3.0,40.0,0.0,0.0
1081,73.0,30.0,30.0,0.0,0.0
1082,65.0,0.0,30.0,0.0,0.0
1083,63.0,17.0,30.0,0.0,0.0
1084,65.0,0.0,30.0,0.0,0.0
1085,57.0,13.0,40.0,0.0,0.0
1086,48.0,0.0,40.0,0.0,0.0
1087,63.0,0.0,30.0,0.0,0.0
1088,72.0,30.0,30.0,0.0,0.0
1089,63.0,19.0,30.0,0.0,0.0
1090,65.0,0.0,30.0,0.0,0.0
1091,48.0,0.0,40.0,0.0,0.0
1092,57.0,11.0,40.0,0.0,0.0
1093,72.0,0.0,30.0,0.0,0.0
1094,63.0,30.0,30.0,0.0,0.0
1095,61.0,0.0,30.0,0.0,0.0
1096,65.0,21.0,30.0,0.0,0.0
1097,49.0,4.0,60.0,0.0,0.0
1098,58.0,5.0,40.0,0.0,0.0
1099,70.0,0.0,30.0,0.0,0.0
1100,61.0,30.0,30.0,0.0,0.0
1101,65.0,0.0,30.0,0.0,0.0
1102,59.0,19.0,30.0,0.0,0.0
1103,50.0,11.0,40.0,0.0,0.0
1104,59.0,30.0,30.0,0.0,0.0
1105,68.0,0.0,30.0,0.0,0.0
1106,60.0,20.0,30.0,0.0,0.0
1107,63.0,0.0,30.0,0.0,0.0
1108,51.0,10.0,40.0,0.0,0.0
1109,60.0,0.0,30.0,0.0,0.0
1110,68.0,30.0,30.0,0.0,0.0
1111,39.0,8.0,60.0,0.0,0.0
1112,59.0,0.0,30.0,0.0,0.0
1113,62.0,22.0,30.0,0.0,0.0
1114,68.0,28.0,30.0,0.0,0.0
1115,59.0,0.0,30.0,0.0,0.0
1116,51.0,2.0,30.0,0.0,0.0
1117,58.0,0.0,30.0,0.0,0.0
1118,61.0,30.0,30.0,0.0,0.0
1119,58.0,21.0,30.0,0.0,0.0
1120,67.0,0.0,30.0,0.0,0.0
1121,60.0,30.0,30.0,0.0,0.0
1122,63.0,0.0,30.0,0.0,0.0
1123,32.0,9.0,15.0,0.0,0.0
1124,60.0,30.0,30.0,0.0,0.0
1125,68.0,0.0,30.0,0.0,0.0
1126,44.0,4.0,270.0,0.0,0.0
1127,61.0,0.0,30.0,0.0,0.0
1128,64.0,30.0,30.0,0.0,0.0
1129,61.0,0.0,30.0,0.0,0.0
1130,70.0,30.0,30.0,0.0,0.0
1131,61.0,30.0,30.0,0.0,0.0
1132,58.0,0.0,30.0,0.0,0.0
1133,52.0,23.0,60.0,0.0,0.0
1134,58.0,7.0,30.0,0.0,0.0
1135,67.0,0.0,30.0,0.0,0.0
1136,55.0,0.0,30.0,0.0,0.0
1137,58.0,30.0,30.0,0.0,0.0
1138,51.0,24.0,60.0,0.0,0.0
1139,55.0,6.0,30.0,0.0,0.0
1140,63.0,0.0,30.0,0.0,0.0
1141,50.0,20.0,60.0,0.0,0.0
1142,59.0,0.0,30.0,0.0,0.0
1143,56.0,30.0,30.0,0.0,0.0
1144,65.0,6.0,30.0,0.0,0.0
1145,56.0,0.0,30.0,0.0,0.0
1146,49.0,23.0,40.0,0.0,0.0
1147,64.0,7.0,30.0,0.0,0.0
1148,58.0,0.0,30.0,0.0,0.0
1149,58.0,0.0,30.0,0.0,0.0
1150,67.0,19.0,30.0,0.0,0.0
1151,63.0,0.0,30.0,0.0,0.0
1152,60.0,30.0,30.0,0.0,0.0
1153,32.0,11.0,15.0,0.0,0.0
1154,60.0,0.0,30.0,0.0,0.0
1155,68.0,30.0,30.0,0.0,0.0
1156,44.0,4.0,300.0,0.0,0.0
1157,61.0,0.0,30.0,0.0,0.0
1158,64.0,30.0,30.0,0.0,0.0
1159,61.0,0.0,30.0,0.0,0.0
1160,70.0,30.0,30.0,0.0,0.0
1161,58.0,0.0,30.0,0.0,0.0
1162,52.0,25.0,60.0,0.0,0.0
1163,61.0,30.0,30.0,0.0,0.0
1164,58.0,0.0,30.0,0.0,0.0
1165,67.0,5.0,30.0,0.0,0.0
1166,55.0,30.0,30.0,0.0,0.0
1167,58.0,0.0,30.0,0.0,0.0
1168,51.0,24.0,60.0,0.0,0.0
1169,55.0,0.0,30.0,0.0,0.0
1170,63.0,6.0,30.0,0.0,0.0
1171,50.0,2.0,60.0,0.0,0.0
1172,56.0,0.0,30.0,0.0,0.0
1173,59.0,28.0,30.0,0.0,0.0
1174,56.0,30.0,30.0,0.0,0.0
1175,65.0,0.0,30.0,0.0,0.0
1176,49.0,0.0,60.0,0.0,0.0
1177,58.0,0.0,30.0,0.0,0.0
1178,64.0,26.0,30.0,0.0,0.0
1179,67.0,30.0,30.0,0.0,0.0
1180,58.0,0.0,30.0,0.0,0.0
1181,48.0,18.0,40.0,0.0,0.0
1182,60.0,12.0,30.0,0.0,0.0
1183,63.0,0.0,30.0,0.0,0.0
1184,60.0,0.0,30.0,0.0,0.0
1185,68.0,30.0,30.0,0.0,0.0
1186,45.0,4.0,60.0,0.0,0.0
1187,63.0,24.0,30.0,0.0,0.0
1188,65.0,0.0,30.0,0.0,0.0
1189,53.0,2.0,60.0,0.0,0.0
1190,57.0,0.0,60.0,0.0,0.0
1191,63.0,30.0,30.0,0.0,0.0
1192,72.0,0.0,30.0,0.0,0.0
1193,61.0,0.0,30.0,0.0,0.0
1194,53.0,0.0,30.0,0.0,0.0
1195,65.0,1.0,30.0,0.0,0.0
1196,58.0,29.0,30.0,0.0,0.0
1197,46.0,0.0,30.0,0.0,0.0
1198,61.0,30.0,30.0,0.0,0.0
1199,70.0,0.0,30.0,0.0,0.0
1200,66.0,0.0,30.0,0.0,0.0
1201,68.0,19.0,30.0,0.0,0.0
1202,48.0,2.0,40.0,0.0,0.0
1203,60.0,2.0,40.0,0.0,0.0
1204,56.0,7.0,40.0,0.0,0.0
1205,75.0,0.0,30.0,0.0,0.0
1206,66.0,30.0,30.0,0.0,0.0
1207,56.0,27.0,30.0,0.0,0.0
1208,68.0,1.0,30.0,0.0,0.0
1209,65.0,0.0,30.0,0.0,0.0
1210,61.0,1.0,30.0,0.0,0.0
1211,49.0,1.0,30.0,0.0,0.0
1212,65.0,30.0,30.0,0.0,0.0
1213,73.0,0.0,30.0,0.0,0.0
1214,68.0,25.0,30.0,0.0,0.0
1215,70.0,0.0,30.0,0.0,0.0
1216,58.0,1.0,60.0,0.0,0.0
1217,50.0,4.0,60.0,0.0,0.0
1218,62.0,0.0,60.0,0.0,0.0
1219,68.0,0.0,30.0,0.0,0.0
1220,77.0,29.0,30.0,0.0,0.0
1221,70.0,0.0,30.0,0.0,0.0
1222,67.0,1.0,30.0,0.0,0.0
1223,58.0,2.0,30.0,0.0,0.0
1224,51.0,1.0,30.0,0.0,0.0
1225,63.0,27.0,30.0,0.0,0.0
1226,75.0,30.0,30.0,0.0,0.0
1227,67.0,0.0,30.0,0.0,0.0
1228,70.0,0.0,30.0,0.0,0.0
1229,72.0,21.0,30.0,0.0,0.0
1230,52.0,8.0,40.0,0.0,0.0
1231,64.0,0.0,40.0,0.0,0.0
1232,60.0,1.0,40.0,0.0,0.0
1233,79.0,30.0,30.0,0.0,0.0
1234,70.0,0.0,30.0,0.0,0.0
1235,68.0,1.0,30.0,0.0,0.0
1236,72.0,0.0,30.0,0.0,0.0
1237,60.0,28.0,30.0,0.0,0.0
1238,53.0,0.0,30.0,0.0,0.0
1239,65.0,1.0,30.0,0.0,0.0
1240,68.0,30.0,30.0,0.0,0.0
1241,77.0,0.0,30.0,0.0,0.0
1242,73.0,18.0,30.0,0.0,0.0
1243,75.0,0.0,30.0,0.0,0.0
1244,55.0,2.0,40.0,0.0,0.0
1245,67.0,2.0,40.0,0.0,0.0
1246,63.0,8.0,40.0,0.0,0.0
1247,82.0,0.0,30.0,0.0,0.0
1248,73.0,29.0,30.0,0.0,0.0
1249,72.0,3.0,30.0,0.0,0.0
1250,75.0,0.0,30.0,0.0,0.0
1251,63.0,1.0,30.0,0.0,0.0
1252,68.0,26.0,30.0,0.0,0.0
1253,56.0,1.0,30.0,0.0,0.0
1254,72.0,30.0,30.0,0.0,0.0
1255,80.0,0.0,30.0,0.0,0.0
1256,77.0,0.0,30.0,0.0,0.0
1257,75.0,1.0,30.0,0.0,0.0
1258,57.0,1.0,30.0,0.0,0.0
1259,65.0,26.0,30.0,0.0,0.0
1260,69.0,2.0,30.0,0.0,0.0
1261,84.0,30.0,30.0,0.0,0.0
1262,75.0,0.0,30.0,0.0,0.0
1263,77.0,0.0,30.0,0.0,0.0
1264,75.0,30.0,30.0,0.0,0.0
1265,69.0,19.0,180.0,0.0,0.0
1266,58.0,3.0,330.0,0.0,0.0
1267,65.0,4.0,330.0,0.0,0.0
1268,84.0,30.0,30.0,0.0,0.0
1269,75.0,0.0,30.0,0.0,0.0
1270,75.0,30.0,30.0,0.0,0.0
1271,77.0,0.0,30.0,0.0,0.0
1272,75.0,30.0,30.0,0.0,0.0
1273,84.0,0.0,30.0,0.0,0.0
1274,77.0,30.0,30.0,0.0,0.0
1275,75.0,0.0,30.0,0.0,0.0
1276,75.0,11.0,30.0,0.0,0.0
1277,84.0,0.0,30.0,0.0,0.0
1278,77.0,30.0,30.0,0.0,0.0
1279,75.0,0.0,30.0,0.0,0.0
1280,70.0,27.0,150.0,0.0,0.0
1281,75.0,0.0,30.0,0.0,0.0
1282,84.0,30.0,30.0,0.0,0.0
1283,77.0,0.0,30.0,0.0,0.0
1284,73.0,30.0,30.0,0.0,0.0
1285,82.0,23.0,30.0,0.0,0.0
1286,73.0,0.0,30.0,0.0,0.0
1287,77.0,3.0,30.0,0.0,0.0
1288,73.0,0.0,30.0,0.0,0.0
1289,73.0,30.0,30.0,0.0,0.0
1290,80.0,0.0,30.0,0.0,0.0
1291,77.0,21.0,30.0,0.0,0.0
1292,73.0,0.0,30.0,0.0,0.0
1293,39.0,9.0,40.0,0.0,0.0
1294,73.0,0.0,30.0,0.0,0.0
1295,79.0,30.0,30.0,0.0,0.0
1296,51.0,25.0,30.0,0.0,0.0
1297,73.0,5.0,30.0,0.0,0.0
1298,77.0,0.0,30.0,0.0,0.0
1299,73.0,30.0,30.0,0.0,0.0
1300,79.0,0.0,30.0,0.0,0.0
1301,61.0,22.0,60.0,0.0,0.0
1302,58.0,3.0,60.0,0.0,0.0
1303,73.0,30.0,30.0,0.0,0.0
1304,77.0,0.0,30.0,0.0,0.0
1305,73.0,0.0,30.0,0.0,0.0
1306,79.0,5.0,30.0,0.0,0.0
1307,67.0,19.0,40.0,0.0,0.0
1308,77.0,0.0,30.0,0.0,0.0
1309,73.0,11.0,30.0,0.0,0.0
1310,73.0,30.0,30.0,0.0,0.0
1311,79.0,0.0,30.0,0.0,0.0
1312,72.0,30.0,30.0,0.0,0.0
1313,75.0,0.0,30.0,0.0,0.0
1314,72.0,30.0,30.0,0.0,0.0
1315,79.0,0.0,30.0,0.0,0.0
1316,70.0,30.0,30.0,0.0,0.0
1317,73.0,0.0,30.0,0.0,0.0
1318,70.0,30.0,30.0,0.0,0.0
1319,79.0,0.0,30.0,0.0,0.0
1320,56.0,2.0,420.0,0.0,0.0
1321,72.0,30.0,30.0,0.0,0.0
1322,75.0,0.0,30.0,0.0,0.0
1323,72.0,0.0,30.0,0.0,0.0
1324,80.0,30.0,30.0,0.0,0.0
1325,73.0,0.0,30.0,0.0,0.0
1326,77.0,23.0,30.0,0.0,0.0
1327,68.0,2.0,40.0,0.0,0.0
1328,65.0,5.0,60.0,0.0,0.0
1329,73.0,30.0,30.0,0.0,0.0
1330,82.0,0.0,30.0,0.0,0.0
1331,79.0,0.0,30.0,0.0,0.0
1332,75.0,23.0,30.0,0.0,0.0
1333,67.0,6.0,60.0,0.0,0.0
1334,63.0,1.0,40.0,0.0,0.0
1335,75.0,0.0,30.0,0.0,0.0
1336,84.0,30.0,30.0,0.0,0.0
1337,80.0,0.0,30.0,0.0,0.0
1338,77.0,22.0,30.0,0.0,0.0
1339,61.0,22.0,60.0,0.0,0.0
1340,65.0,8.0,40.0,0.0,0.0
1341,85.0,8.0,30.0,0.0,0.0
1342,77.0,0.0,30.0,0.0,0.0
1343,63.0,9.0,40.0,0.0,0.0
1344,75.0,0.0,30.0,0.0,0.0
1345,79.0,13.0,30.0,0.0,0.0
1346,67.0,8.0,40.0,0.0,0.0
1347,84.0,30.0,30.0,0.0,0.0
1348,75.0,0.0,30.0,0.0,0.0
1349,65.0,0.0,40.0,0.0,0.0
1350,68.0,18.0,40.0,0.0,0.0
1351,73.0,0.0,30.0,0.0,0.0
1352,77.0,12.0,30.0,0.0,0.0
1353,73.0,30.0,30.0,0.0,0.0
1354,82.0,0.0,30.0,0.0,0.0
1355,73.0,0.0,30.0,0.0,0.0
1356,75.0,20.0,30.0,0.0,0.0
1357,70.0,8.0,40.0,0.0,0.0
1358,67.0,21.0,60.0,0.0,0.0
1359,82.0,9.0,30.0,0.0,0.0
1360,73.0,0.0,30.0,0.0,0.0
1361,75.0,30.0,30.0,0.0,0.0
1362,73.0,0.0,30.0,0.0,0.0
1363,56.0,1.0,180.0,0.0,0.0
1364,73.0,30.0,30.0,0.0,0.0
1365,82.0,0.0,30.0,0.0,0.0
1366,77.0,0.0,30.0,0.0,0.0
1367,73.0,13.0,30.0,0.0,0.0
1368,65.0,15.0,40.0,0.0,0.0
1369,68.0,2.0,40.0,0.0,0.0
1370,82.0,0.0,30.0,0.0,0.0
1371,73.0,30.0,30.0,0.0,0.0
1372,73.0,0.0,30.0,0.0,0.0
1373,75.0,19.0,30.0,0.0,0.0
1374,67.0,28.0,60.0,0.0,0.0
1375,70.0,10.0,40.0,0.0,0.0
1376,73.0,0.0,30.0,0.0,0.0
1377,82.0,2.0,30.0,0.0,0.0
1378,75.0,0.0,30.0,0.0,0.0
1379,73.0,30.0,30.0,0.0,0.0
1380,56.0,8.0,90.0,0.0,0.0
1381,73.0,30.0,30.0,0.0,0.0
1382,84.0,0.0,30.0,0.0,0.0
1383,75.0,15.0,30.0,0.0,0.0
1384,73.0,0.0,30.0,0.0,0.0
1385,67.0,7.0,40.0,0.0,0.0
1386,63.0,23.0,60.0,0.0,0.0
1387,73.0,7.0,30.0,0.0,0.0
1388,82.0,0.0,30.0,0.0,0.0
1389,72.0,30.0,30.0,0.0,0.0
1390,75.0,0.0,30.0,0.0,0.0
1391,56.0,8.0,390.0,0.0,0.0
1392,80.0,30.0,30.0,0.0,0.0
1393,72.0,0.0,30.0,0.0,0.0
1394,77.0,18.0,30.0,0.0,0.0
1395,73.0,0.0,30.0,0.0,0.0
1396,65.0,7.0,40.0,0.0,0.0
1397,68.0,5.0,40.0,0.0,0.0
1398,73.0,0.0,30.0,0.0,0.0
1399,82.0,30.0,30.0,0.0,0.0
1400,63.0,5.0,60.0,0.0,0.0
1401,79.0,0.0,30.0,0.0,0.0
1402,75.0,23.0,30.0,0.0,0.0
1403,67.0,2.0,60.0,0.0,0.0
1404,75.0,0.0,30.0,0.0,0.0
1405,84.0,30.0,30.0,0.0,0.0
1406,80.0,15.0,30.0,0.0,0.0
1407,77.0,0.0,30.0,0.0,0.0
1408,61.0,23.0,60.0,0.0,0.0
1409,65.0,15.0,40.0,0.0,0.0
1410,85.0,7.0,30.0,0.0,0.0
1411,77.0,0.0,30.0,0.0,0.0
1412,63.0,10.0,40.0,0.0,0.0
1413,79.0,0.0,30.0,0.0,0.0
1414,75.0,15.0,30.0,0.0,0.0
1415,67.0,5.0,40.0,0.0,0.0
1416,75.0,0.0,30.0,0.0,0.0
1417,84.0,30.0,30.0,0.0,0.0
1418,73.0,0.0,30.0,0.0,0.0
1419,77.0,13.0,30.0,0.0,0.0
1420,65.0,17.0,40.0,0.0,0.0
1421,68.0,0.0,40.0,0.0,0.0
1422,73.0,30.0,30.0,0.0,0.0
1423,82.0,0.0,30.0,0.0,0.0
1424,73.0,14.0,30.0,0.0,0.0
1425,75.0,0.0,30.0,0.0,0.0
1426,67.0,21.0,60.0,0.0,0.0
1427,70.0,8.0,40.0,0.0,0.0
1428,73.0,9.0,30.0,0.0,0.0
1429,82.0,0.0,30.0,0.0,0.0
1430,75.0,0.0,30.0,0.0,0.0
1431,73.0,30.0,30.0,0.0,0.0
1432,56.0,7.0,180.0,0.0,0.0
1433,73.0,0.0,30.0,0.0,0.0
1434,82.0,30.0,30.0,0.0,0.0
1435,77.0,13.0,30.0,0.0,0.0
1436,73.0,0.0,30.0,0.0,0.0
1437,68.0,14.0,40.0,0.0,0.0
1438,65.0,3.0,40.0,0.0,0.0
1439,73.0,30.0,30.0,0.0,0.0
1440,82.0,0.0,30.0,0.0,0.0
1441,73.0,20.0,30.0,0.0,0.0
1442,75.0,0.0,30.0,0.0,0.0
1443,67.0,2.0,60.0,0.0,0.0
1444,70.0,1.0,40.0,0.0,0.0
1445,82.0,30.0,30.0,0.0,0.0
1446,73.0,0.0,30.0,0.0,0.0
1447,73.0,0.0,30.0,0.0,0.0
1448,75.0,30.0,30.0,0.0,0.0
1449,56.0,2.0,90.0,0.0,0.0
1450,73.0,0.0,30.0,0.0,0.0
1451,84.0,30.0,30.0,0.0,0.0
1452,73.0,9.0,30.0,0.0,0.0
1453,75.0,0.0,30.0,0.0,0.0
1454,63.0,17.0,40.0,0.0,0.0
1455,67.0,2.0,30.0,0.0,0.0
1456,82.0,0.0,30.0,0.0,0.0
1457,73.0,30.0,30.0,0.0,0.0
1458,75.0,8.0,30.0,0.0,0.0
1459,56.0,20.0,40.0,0.0,0.0
1460,72.0,0.0,30.0,0.0,0.0
1461,68.0,2.0,30.0,0.0,0.0
1462,72.0,0.0,30.0,0.0,0.0
1463,80.0,30.0,30.0,0.0,0.0
1464,50.0,2.0,60.0,0.0,0.0
1465,62.0,29.0,60.0,0.0,0.0
1466,71.0,28.0,30.0,0.0,0.0
1467,76.0,0.0,30.0,0.0,0.0
1468,80.0,0.0,30.0,0.0,0.0
1469,71.0,1.0,30.0,0.0,0.0
1470,51.0,15.0,40.0,0.0,0.0
1471,63.0,3.0,40.0,0.0,0.0
1472,75.0,12.0,30.0,0.0,0.0
1473,70.0,0.0,30.0,0.0,0.0
1474,79.0,0.0,30.0,0.0,0.0
1475,70.0,30.0,30.0,0.0,0.0
1476,59.0,12.0,40.0,0.0,0.0
1477,69.0,0.0,30.0,0.0,0.0
1478,75.0,16.0,30.0,0.0,0.0
1479,47.0,2.0,40.0,0.0,0.0
1480,69.0,0.0,30.0,0.0,0.0
1481,78.0,30.0,30.0,0.0,0.0
1482,64.0,0.0,40.0,0.0,0.0
1483,52.0,23.0,40.0,0.0,0.0
1484,68.0,7.0,30.0,0.0,0.0
1485,72.0,0.0,30.0,0.0,0.0
1486,76.0,30.0,30.0,0.0,0.0
1487,68.0,0.0,30.0,0.0,0.0
1488,66.0,21.0,30.0,0.0,0.0
1489,72.0,0.0,30.0,0.0,0.0
1490,45.0,3.0,40.0,0.0,0.0
1491,57.0,6.0,60.0,0.0,0.0
1492,75.0,30.0,30.0,0.0,0.0
1493,66.0,0.0,30.0,0.0,0.0
1494,46.0,23.0,40.0,0.0,0.0
1495,58.0,0.0,40.0,0.0,0.0
1496,70.0,0.0,30.0,0.0,0.0
1497,65.0,7.0,30.0,0.0,0.0
1498,65.0,0.0,30.0,0.0,0.0
1499,74.0,30.0,30.0,0.0,0.0
1500,70.0,0.0,30.0,0.0,0.0
1501,64.0,23.0,30.0,0.0,0.0
1502,43.0,5.0,60.0,0.0,0.0
1503,55.0,2.0,40.0,0.0,0.0
1504,73.0,0.0,30.0,0.0,0.0
1505,64.0,30.0,30.0,0.0,0.0
1506,68.0,6.0,30.0,0.0,0.0
1507,63.0,0.0,30.0,0.0,0.0
1508,56.0,8.0,30.0,0.0,0.0
1509,44.0,16.0,40.0,0.0,0.0
1510,72.0,30.0,30.0,0.0,0.0
1511,63.0,0.0,30.0,0.0,0.0
1512,52.0,14.0,40.0,0.0,0.0
1513,64.0,16.0,30.0,0.0,0.0
1514,68.0,0.0,30.0,0.0,0.0
1515,40.0,20.0,60.0,0.0,0.0
1516,71.0,0.0,30.0,0.0,0.0
1517,64.0,10.0,30.0,0.0,0.0
1518,65.0,0.0,30.0,0.0,0.0
1519,68.0,30.0,30.0,0.0,0.0
1520,50.0,30.0,60.0,0.0,0.0
1521,38.0,0.0,60.0,0.0,0.0
1522,65.0,0.0,30.0,0.0,0.0
1523,70.0,0.0,30.0,0.0,0.0
1524,61.0,0.0,30.0,0.0,0.0
1525,63.0,12.0,30.0,0.0,0.0
1526,39.0,0.0,40.0,0.0,0.0
1527,51.0,18.0,40.0,0.0,0.0
1528,61.0,30.0,30.0,0.0,0.0
1529,67.0,0.0,30.0,0.0,0.0
1530,63.0,5.0,30.0,0.0,0.0
1531,60.0,0.0,30.0,0.0,0.0
1532,44.0,21.0,40.0,0.0,0.0
1533,32.0,4.0,30.0,0.0,0.0
1534,68.0,30.0,30.0,0.0,0.0
1535,60.0,0.0,30.0,0.0,0.0
1536,65.0,29.0,30.0,0.0,0.0
1537,59.0,0.0,30.0,0.0,0.0
1538,50.0,24.0,60.0,0.0,0.0
1539,38.0,1.0,60.0,0.0,0.0
1540,68.0,0.0,30.0,0.0,0.0
1541,59.0,6.0,30.0,0.0,0.0
1542,63.0,0.0,30.0,0.0,0.0
1543,58.0,8.0,30.0,0.0,0.0
1544,39.0,20.0,40.0,0.0,0.0
1545,51.0,2.0,30.0,0.0,0.0
1546,58.0,30.0,30.0,0.0,0.0
1547,67.0,0.0,30.0,0.0,0.0
1548,57.0,0.0,30.0,0.0,0.0
1549,63.0,10.0,30.0,0.0,0.0
1550,35.0,2.0,40.0,0.0,0.0
1551,47.0,18.0,40.0,0.0,0.0
1552,66.0,0.0,30.0,0.0,0.0
1553,57.0,30.0,30.0,0.0,0.0
1554,60.0,18.0,30.0,0.0,0.0
1555,56.0,0.0,30.0,0.0,0.0
1556,40.0,1.0,40.0,0.0,0.0
1557,52.0,11.0,40.0,0.0,0.0
1558,64.0,30.0,30.0,0.0,0.0
1559,56.0,0.0,30.0,0.0,0.0
1560,54.0,0.0,30.0,0.0,0.0
1561,60.0,26.0,30.0,0.0,0.0
1562,33.0,4.0,60.0,0.0,0.0
1563,45.0,28.0,60.0,0.0,0.0
1564,54.0,2.0,30.0,0.0,0.0
1565,63.0,0.0,30.0,0.0,0.0
1566,58.0,6.0,30.0,0.0,0.0
1567,53.0,0.0,30.0,0.0,0.0
1568,34.0,22.0,30.0,0.0,0.0
1569,46.0,2.0,30.0,0.0,0.0
1570,62.0,0.0,30.0,0.0,0.0
1571,53.0,30.0,30.0,0.0,0.0
1572,43.0,5.0,60.0,0.0,0.0
1573,31.0,2.0,60.0,0.0,0.0
1574,58.0,23.0,30.0,0.0,0.0
1575,52.0,0.0,30.0,0.0,0.0
1576,52.0,0.0,30.0,0.0,0.0
1577,61.0,30.0,30.0,0.0,0.0
1578,56.0,0.0,30.0,0.0,0.0
1579,51.0,6.0,30.0,0.0,0.0
1580,32.0,9.0,40.0,0.0,0.0
1581,44.0,15.0,30.0,0.0,0.0
1582,51.0,0.0,30.0,0.0,0.0
1583,60.0,30.0,30.0,0.0,0.0
1584,52.0,19.0,30.0,0.0,0.0
1585,56.0,0.0,30.0,0.0,0.0
1586,40.0,11.0,40.0,0.0,0.0
1587,28.0,23.0,60.0,0.0,0.0
1588,52.0,7.0,30.0,0.0,0.0
1589,59.0,0.0,30.0,0.0,0.0
1590,53.0,30.0,30.0,0.0,0.0
1591,56.0,0.0,30.0,0.0,0.0
1592,38.0,20.0,60.0,0.0,0.0
1593,26.0,7.0,60.0,0.0,0.0
1594,58.0,0.0,30.0,0.0,0.0
1595,53.0,3.0,30.0,0.0,0.0
1596,49.0,22.0,30.0,0.0,0.0
1597,51.0,0.0,30.0,0.0,0.0
1598,27.0,2.0,40.0,0.0,0.0
1599,39.0,6.0,40.0,0.0,0.0
1600,49.0,30.0,30.0,0.0,0.0
1601,55.0,0.0,30.0,0.0,0.0
1602,51.0,30.0,30.0,0.0,0.0
1603,48.0,0.0,30.0,0.0,0.0
1604,39.0,28.0,120.0,0.0,0.0
1605,32.0,2.0,120.0,0.0,0.0
1606,48.0,0.0,30.0,0.0,0.0
1607,56.0,30.0,30.0,0.0,0.0
1608,49.0,28.0,30.0,0.0,0.0
1609,53.0,0.0,30.0,0.0,0.0
1610,58.0,2.0,30.0,0.0,0.0
1611,49.0,0.0,30.0,0.0,0.0
1612,55.0,0.0,30.0,0.0,0.0
1613,51.0,30.0,30.0,0.0,0.0
1614,51.0,30.0,30.0,0.0,0.0
1615,60.0,0.0,30.0,0.0,0.0
1616,56.0,30.0,30.0,0.0,0.0
1617,53.0,0.0,30.0,0.0,0.0
1618,53.0,30.0,30.0,0.0,0.0
1619,61.0,0.0,30.0,0.0,0.0
1620,53.0,30.0,30.0,0.0,0.0
1621,49.0,0.0,30.0,0.0,0.0
1622,49.0,0.0,30.0,0.0,0.0
1623,58.0,30.0,30.0,0.0,0.0
1624,27.0,6.0,60.0,0.0,0.0
1625,39.0,6.0,40.0,0.0,0.0
1626,55.0,18.0,30.0,0.0,0.0
1627,51.0,0.0,30.0,0.0,0.0
1628,51.0,30.0,30.0,0.0,0.0
1629,60.0,0.0,30.0,0.0,0.0
1630,39.0,3.0,120.0,0.0,0.0
1631,32.0,3.0,120.0,0.0,0.0
1632,51.0,0.0,30.0,0.0,0.0
1633,48.0,30.0,30.0,0.0,0.0
1634,48.0,0.0,30.0,0.0,0.0
1635,56.0,30.0,30.0,0.0,0.0
1636,49.0,24.0,30.0,0.0,0.0
1637,53.0,0.0,30.0,0.0,0.0
1638,49.0,30.0,30.0,0.0,0.0
1639,58.0,0.0,30.0,0.0,0.0
1640,51.0,30.0,30.0,0.0,0.0
1641,55.0,0.0,30.0,0.0,0.0
1642,60.0,30.0,30.0,0.0,0.0
1643,51.0,0.0,30.0,0.0,0.0
1644,53.0,30.0,30.0,0.0,0.0
1645,56.0,0.0,30.0,0.0,0.0
1646,61.0,0.0,30.0,0.0,0.0
1647,53.0,30.0,30.0,0.0,0.0
1648,53.0,30.0,30.0,0.0,0.0
1649,49.0,0.0,30.0,0.0,0.0
1650,58.0,30.0,30.0,0.0,0.0
1651,49.0,0.0,30.0,0.0,0.0
1652,27.0,6.0,60.0,0.0,0.0
1653,55.0,22.0,30.0,0.0,0.0
1654,51.0,0.0,30.0,0.0,0.0
1655,39.0,2.0,40.0,0.0,0.0
1656,60.0,30.0,30.0,0.0,0.0
1657,51.0,0.0,30.0,0.0,0.0
1658,51.0,18.0,30.0,0.0,0.0
1659,48.0,0.0,30.0,0.0,0.0
1660,32.0,1.0,40.0,0.0,0.0
1661,39.0,11.0,40.0,0.0,0.0
1662,48.0,0.0,30.0,0.0,0.0
1663,56.0,30.0,30.0,0.0,0.0
1664,49.0,16.0,30.0,0.0,0.0
1665,51.0,0.0,30.0,0.0,0.0
1666,31.0,1.0,40.0,0.0,0.0
1667,39.0,13.0,40.0,0.0,0.0
1668,49.0,0.0,30.0,0.0,0.0
1669,58.0,30.0,30.0,0.0,0.0
1670,32.0,1.0,40.0,0.0,0.0
1671,39.0,14.0,40.0,0.0,0.0
1672,48.0,15.0,30.0,0.0,0.0
1673,51.0,0.0,30.0,0.0,0.0
1674,56.0,30.0,30.0,0.0,0.0
1675,48.0,0.0,30.0,0.0,0.0
1676,31.0,1.0,40.0,0.0,0.0
1677,39.0,12.0,40.0,0.0,0.0
1678,51.0,17.0,30.0,0.0,0.0
1679,49.0,0.0,30.0,0.0,0.0
1680,49.0,30.0,30.0,0.0,0.0
1681,58.0,0.0,30.0,0.0,0.0
1682,51.0,16.0,30.0,0.0,0.0
1683,48.0,0.0,30.0,0.0,0.0
1684,39.0,0.0,40.0,0.0,0.0
1685,32.0,14.0,40.0,0.0,0.0
1686,56.0,30.0,30.0,0.0,0.0
1687,48.0,0.0,30.0,0.0,0.0
1688,39.0,15.0,40.0,0.0,0.0
1689,49.0,15.0,30.0,0.0,0.0
1690,31.0,0.0,40.0,0.0,0.0
1691,51.0,0.0,30.0,0.0,0.0
1692,49.0,0.0,30.0,0.0,0.0
1693,58.0,30.0,30.0,0.0,0.0
1694,48.0,16.0,30.0,0.0,0.0
1695,51.0,0.0,30.0,0.0,0.0
1696,39.0,13.0,40.0,0.0,0.0
1697,32.0,1.0,40.0,0.0,0.0
1698,48.0,0.0,30.0,0.0,0.0
1699,56.0,30.0,30.0,0.0,0.0
1700,31.0,13.0,40.0,0.0,0.0
1701,51.0,0.0,30.0,0.0,0.0
1702,49.0,17.0,30.0,0.0,0.0
1703,39.0,0.0,40.0,0.0,0.0
1704,58.0,30.0,30.0,0.0,0.0
1705,49.0,0.0,30.0,0.0,0.0
1706,39.0,0.0,40.0,0.0,0.0
1707,32.0,11.0,40.0,0.0,0.0
1708,48.0,19.0,30.0,0.0,0.0
1709,51.0,0.0,30.0,0.0,0.0
1710,56.0,0.0,30.0,0.0,0.0
1711,48.0,30.0,30.0,0.0,0.0
1712,39.0,9.0,40.0,0.0,0.0
1713,49.0,20.0,30.0,0.0,0.0
1714,51.0,0.0,30.0,0.0,0.0
1715,31.0,1.0,40.0,0.0,0.0
1716,49.0,30.0,30.0,0.0,0.0
1717,58.0,0.0,30.0,0.0,0.0
1718,51.0,20.0,30.0,0.0,0.0
1719,48.0,0.0,30.0,0.0,0.0
1720,32.0,1.0,40.0,0.0,0.0
1721,39.0,9.0,40.0,0.0,0.0
1722,48.0,30.0,30.0,0.0,0.0
1723,56.0,0.0,30.0,0.0,0.0
1724,51.0,14.0,30.0,0.0,0.0
1725,49.0,0.0,30.0,0.0,0.0
1726,39.0,1.0,40.0,0.0,0.0
1727,31.0,15.0,40.0,0.0,0.0
1728,58.0,0.0,30.0,0.0,0.0
1729,49.0,42.0,30.0,0.0,0.0
1730,56.0,48.0,40.0,0.0,0.0
1731,48.0,0.0,40.0,0.0,0.0
1732,32.0,29.0,300.0,0.0,0.0
1733,39.0,0.0,300.0,0.0,0.0
1734,56.0,30.0,30.0,0.0,0.0
1735,48.0,0.0,30.0,0.0,0.0
1736,48.0,30.0,30.0,0.0,0.0
1737,51.0,30.0,30.0,0.0,0.0
1738,60.0,0.0,30.0,0.0,0.0
1739,51.0,30.0,30.0,0.0,0.0
1740,56.0,30.0,30.0,0.0,0.0
1741,63.0,0.0,30.0,0.0,0.0
1742,56.0,30.0,30.0,0.0,0.0
1743,68.0,0.0,30.0,0.0,0.0
1744,60.0,30.0,30.0,0.0,0.0
1745,60.0,1.0,30.0,0.0,0.0
1746,63.0,29.0,30.0,0.0,0.0
1747,72.0,0.0,30.0,0.0,0.0
1748,63.0,30.0,30.0,0.0,0.0
1749,44.0,1.0,15.0,0.0,0.0
1750,51.0,1.0,210.0,0.0,0.0
1751,68.0,30.0,30.0,0.0,0.0
1752,75.0,0.0,30.0,0.0,0.0
1753,60.0,22.0,210.0,0.0,0.0
1754,68.0,30.0,30.0,0.0,0.0
1755,80.0,0.0,30.0,0.0,0.0
1756,72.0,30.0,30.0,0.0,0.0
1757,72.0,30.0,30.0,0.0,0.0
1758,75.0,0.0,30.0,0.0,0.0
1759,84.0,30.0,30.0,0.0,0.0
1760,75.0,30.0,30.0,0.0,0.0
1761,80.0,7.0,30.0,0.0,0.0
1762,87.0,0.0,30.0,0.0,0.0
1763,80.0,30.0,30.0,0.0,0.0
1764,92.0,30.0,30.0,0.0,0.0
1765,84.0,0.0,30.0,0.0,0.0
1766,84.0,30.0,30.0,0.0,0.0
1767,96.0,54.0,30.0,0.0,0.0
1768,87.0,0.0,30.0,0.0,0.0
1769,96.0,17.0,20.0,0.0,0.0
1770,87.0,14.0,40.0,0.0,0.0
1771,56.0,6.0,15.0,0.0,0.0
1772,63.0,2.0,30.0,0.0,0.0
1773,80.0,0.0,20.0,0.0,0.0
1774,72.0,292.0,15.0,0.0,0.0
1775,80.0,3.0,120.0,0.0,0.0
1776,72.0,2.0,120.0,0.0,0.0
1777,84.0,818.0,120.0,0.0,0.0
1778,56.0,0.0,120.0,0.0,0.0
1779,68.0,2.0,120.0,0.0,0.0
1780,63.0,0.0,120.0,0.0,0.0
1781,75.0,2.0,120.0,0.0,0.0
1782,56.0,5.0,690.0,0.0,0.0
1783,32.0,390.0,690.0,0.0,0.0
1784,44.0,2.0,690.0,0.0,0.0
