,note,step,duration,channel,velocity
0,75.0,116.0,120.0,0.0,0.0
1,74.0,40.0,150.0,0.0,0.0
2,70.0,104.0,60.0,0.0,0.0
3,67.0,532.0,90.0,0.0,0.0
4,62.0,320.0,540.0,0.0,0.0
5,55.0,40.0,90.0,0.0,0.0
6,58.0,12.0,90.0,0.0,0.0
7,43.0,16.0,60.0,0.0,0.0
8,67.0,12.0,60.0,0.0,0.0
9,60.0,520.0,60.0,0.0,0.0
10,55.0,4.0,60.0,0.0,0.0
11,39.0,4.0,60.0,0.0,0.0
12,51.0,8.0,60.0,0.0,0.0
13,69.0,4.0,150.0,0.0,0.0
14,36.0,4.0,180.0,0.0,0.0
15,63.0,504.0,180.0,0.0,0.0
16,67.0,8.0,180.0,0.0,0.0
17,57.0,0.0,180.0,0.0,0.0
18,48.0,0.0,180.0,0.0,0.0
19,66.0,20.0,240.0,0.0,0.0
20,54.0,388.0,240.0,0.0,0.0
21,57.0,4.0,210.0,0.0,0.0
22,45.0,4.0,210.0,0.0,0.0
23,50.0,4.0,240.0,0.0,0.0
24,38.0,0.0,240.0,0.0,0.0
25,62.0,4.0,210.0,0.0,0.0
26,54.0,4.0,60.0,0.0,0.0
27,57.0,16.0,30.0,0.0,0.0
28,36.0,4.0,30.0,0.0,0.0
29,50.0,4.0,60.0,0.0,0.0
30,48.0,16.0,60.0,0.0,0.0
31,62.0,176.0,60.0,0.0,0.0
32,67.0,0.0,60.0,0.0,0.0
33,55.0,4.0,60.0,0.0,0.0
34,46.0,4.0,60.0,0.0,0.0
35,62.0,16.0,30.0,0.0,0.0
36,34.0,180.0,30.0,0.0,0.0
37,62.0,136.0,120.0,0.0,0.0
38,57.0,0.0,60.0,0.0,0.0
39,69.0,24.0,90.0,0.0,0.0
40,42.0,0.0,30.0,0.0,0.0
41,30.0,32.0,30.0,0.0,0.0
42,58.0,16.0,60.0,0.0,0.0
43,70.0,160.0,60.0,0.0,0.0
44,43.0,8.0,30.0,0.0,0.0
45,62.0,4.0,30.0,0.0,0.0
46,31.0,0.0,30.0,0.0,0.0
47,72.0,212.0,90.0,0.0,0.0
48,60.0,4.0,60.0,0.0,0.0
49,63.0,4.0,20.0,0.0,0.0
50,67.0,0.0,30.0,0.0,0.0
51,55.0,12.0,30.0,0.0,0.0
52,51.0,8.0,20.0,0.0,0.0
53,48.0,4.0,30.0,0.0,0.0
54,43.0,12.0,30.0,0.0,0.0
55,74.0,660.0,300.0,0.0,0.0
56,70.0,0.0,270.0,0.0,0.0
57,62.0,20.0,270.0,0.0,0.0
58,67.0,212.0,30.0,0.0,0.0
59,50.0,16.0,270.0,0.0,0.0
60,55.0,12.0,270.0,0.0,0.0
61,43.0,8.0,240.0,0.0,0.0
62,46.0,0.0,270.0,0.0,0.0
63,77.0,16.0,180.0,0.0,0.0
64,72.0,32.0,120.0,0.0,0.0
65,65.0,4.0,90.0,0.0,0.0
66,67.0,32.0,90.0,0.0,0.0
67,55.0,0.0,180.0,0.0,0.0
68,48.0,12.0,180.0,0.0,0.0
69,43.0,12.0,150.0,0.0,0.0
70,51.0,476.0,180.0,0.0,0.0
71,75.0,148.0,90.0,0.0,0.0
72,57.0,4.0,90.0,0.0,0.0
73,63.0,8.0,90.0,0.0,0.0
74,43.0,8.0,90.0,0.0,0.0
75,51.0,12.0,20.0,0.0,0.0
76,48.0,0.0,30.0,0.0,0.0
77,72.0,4.0,30.0,0.0,0.0
78,67.0,20.0,30.0,0.0,0.0
79,43.0,48.0,60.0,0.0,0.0
80,50.0,8.0,90.0,0.0,0.0
81,74.0,1164.0,120.0,0.0,0.0
82,62.0,52.0,60.0,0.0,0.0
83,70.0,4.0,20.0,0.0,0.0
84,67.0,8.0,20.0,0.0,0.0
85,58.0,8.0,30.0,0.0,0.0
86,79.0,108.0,210.0,0.0,0.0
87,75.0,96.0,120.0,0.0,0.0
88,74.0,72.0,120.0,0.0,0.0
89,70.0,84.0,90.0,0.0,0.0
90,67.0,536.0,60.0,0.0,0.0
91,62.0,300.0,600.0,0.0,0.0
92,43.0,20.0,60.0,0.0,0.0
93,55.0,0.0,90.0,0.0,0.0
94,58.0,72.0,90.0,0.0,0.0
95,51.0,4.0,60.0,0.0,0.0
96,55.0,0.0,60.0,0.0,0.0
97,60.0,40.0,90.0,0.0,0.0
98,39.0,8.0,60.0,0.0,0.0
99,67.0,368.0,120.0,0.0,0.0
100,69.0,504.0,120.0,0.0,0.0
101,57.0,0.0,60.0,0.0,0.0
102,36.0,4.0,60.0,0.0,0.0
103,63.0,12.0,60.0,0.0,0.0
104,67.0,48.0,90.0,0.0,0.0
105,48.0,4.0,60.0,0.0,0.0
106,70.0,16.0,180.0,0.0,0.0
107,58.0,12.0,210.0,0.0,0.0
108,62.0,448.0,210.0,0.0,0.0
109,67.0,0.0,180.0,0.0,0.0
110,43.0,12.0,180.0,0.0,0.0
111,31.0,12.0,150.0,0.0,0.0
112,61.0,168.0,90.0,0.0,0.0
113,52.0,8.0,60.0,0.0,0.0
114,58.0,8.0,30.0,0.0,0.0
115,43.0,0.0,30.0,0.0,0.0
116,31.0,12.0,30.0,0.0,0.0
117,50.0,8.0,60.0,0.0,0.0
118,62.0,8.0,90.0,0.0,0.0
119,57.0,152.0,90.0,0.0,0.0
120,41.0,16.0,30.0,0.0,0.0
121,29.0,16.0,30.0,0.0,0.0
122,64.0,132.0,120.0,0.0,0.0
123,37.0,16.0,60.0,0.0,0.0
124,57.0,16.0,90.0,0.0,0.0
125,52.0,28.0,60.0,0.0,0.0
126,25.0,4.0,30.0,0.0,0.0
127,57.0,0.0,60.0,0.0,0.0
128,65.0,160.0,90.0,0.0,0.0
129,53.0,0.0,60.0,0.0,0.0
130,38.0,8.0,30.0,0.0,0.0
131,26.0,24.0,60.0,0.0,0.0
132,67.0,0.0,90.0,0.0,0.0
133,55.0,0.0,60.0,0.0,0.0
134,62.0,208.0,60.0,0.0,0.0
135,34.0,16.0,30.0,0.0,0.0
136,22.0,8.0,30.0,0.0,0.0
137,69.0,856.0,90.0,0.0,0.0
138,57.0,12.0,60.0,0.0,0.0
139,65.0,20.0,60.0,0.0,0.0
140,62.0,8.0,60.0,0.0,0.0
141,33.0,0.0,30.0,0.0,0.0
142,21.0,4.0,30.0,0.0,0.0
143,57.0,8.0,120.0,0.0,0.0
144,69.0,4.0,150.0,0.0,0.0
145,62.0,12.0,120.0,0.0,0.0
146,64.0,508.0,150.0,0.0,0.0
147,33.0,4.0,90.0,0.0,0.0
148,45.0,16.0,90.0,0.0,0.0
149,69.0,124.0,120.0,0.0,0.0
150,64.0,20.0,90.0,0.0,0.0
151,57.0,24.0,90.0,0.0,0.0
152,45.0,4.0,60.0,0.0,0.0
153,61.0,24.0,30.0,0.0,0.0
154,33.0,8.0,60.0,0.0,0.0
155,69.0,8.0,90.0,0.0,0.0
156,57.0,0.0,60.0,0.0,0.0
157,66.0,432.0,90.0,0.0,0.0
158,62.0,20.0,60.0,0.0,0.0
159,50.0,12.0,30.0,0.0,0.0
160,38.0,8.0,60.0,0.0,0.0
161,71.0,444.0,120.0,0.0,0.0
162,59.0,16.0,60.0,0.0,0.0
163,62.0,12.0,60.0,0.0,0.0
164,65.0,0.0,90.0,0.0,0.0
165,31.0,4.0,60.0,0.0,0.0
166,43.0,4.0,30.0,0.0,0.0
167,67.0,28.0,60.0,0.0,0.0
168,79.0,564.0,90.0,0.0,0.0
169,67.0,32.0,60.0,0.0,0.0
170,68.0,108.0,90.0,0.0,0.0
171,67.0,68.0,120.0,0.0,0.0
172,63.0,80.0,90.0,0.0,0.0
173,60.0,556.0,60.0,0.0,0.0
174,55.0,332.0,570.0,0.0,0.0
175,48.0,16.0,120.0,0.0,0.0
176,36.0,24.0,90.0,0.0,0.0
177,51.0,12.0,120.0,0.0,0.0
178,48.0,8.0,90.0,0.0,0.0
179,51.0,44.0,120.0,0.0,0.0
180,44.0,8.0,60.0,0.0,0.0
181,32.0,16.0,90.0,0.0,0.0
182,56.0,4.0,90.0,0.0,0.0
183,60.0,352.0,150.0,0.0,0.0
184,62.0,16.0,150.0,0.0,0.0
185,41.0,40.0,120.0,0.0,0.0
186,29.0,4.0,90.0,0.0,0.0
187,60.0,12.0,90.0,0.0,0.0
188,50.0,584.0,150.0,0.0,0.0
189,56.0,20.0,30.0,0.0,0.0
190,59.0,12.0,390.0,0.0,0.0
191,47.0,8.0,330.0,0.0,0.0
192,43.0,280.0,360.0,0.0,0.0
193,50.0,8.0,300.0,0.0,0.0
194,31.0,24.0,300.0,0.0,0.0
195,38.0,12.0,330.0,0.0,0.0
196,55.0,36.0,270.0,0.0,0.0
197,47.0,8.0,90.0,0.0,0.0
198,55.0,144.0,90.0,0.0,0.0
199,41.0,4.0,30.0,0.0,0.0
200,43.0,36.0,30.0,0.0,0.0
201,60.0,0.0,60.0,0.0,0.0
202,48.0,8.0,30.0,0.0,0.0
203,55.0,12.0,30.0,0.0,0.0
204,39.0,8.0,30.0,0.0,0.0
205,43.0,180.0,30.0,0.0,0.0
206,62.0,164.0,90.0,0.0,0.0
207,35.0,8.0,60.0,0.0,0.0
208,50.0,0.0,60.0,0.0,0.0
209,43.0,8.0,60.0,0.0,0.0
210,55.0,16.0,30.0,0.0,0.0
211,43.0,12.0,60.0,0.0,0.0
212,35.0,192.0,60.0,0.0,0.0
213,63.0,0.0,60.0,0.0,0.0
214,51.0,8.0,30.0,0.0,0.0
215,44.0,0.0,120.0,0.0,0.0
216,65.0,120.0,60.0,0.0,0.0
217,53.0,8.0,30.0,0.0,0.0
218,60.0,24.0,30.0,0.0,0.0
219,36.0,104.0,60.0,0.0,0.0
220,51.0,248.0,60.0,0.0,0.0
221,67.0,44.0,420.0,0.0,0.0
222,63.0,48.0,300.0,0.0,0.0
223,55.0,40.0,330.0,0.0,0.0
224,60.0,28.0,390.0,0.0,0.0
225,35.0,124.0,90.0,0.0,0.0
226,36.0,100.0,90.0,0.0,0.0
227,39.0,132.0,90.0,0.0,0.0
228,43.0,60.0,120.0,0.0,0.0
229,65.0,16.0,390.0,0.0,0.0
230,48.0,296.0,90.0,0.0,0.0
231,60.0,28.0,390.0,0.0,0.0
232,70.0,0.0,390.0,0.0,0.0
233,58.0,152.0,450.0,0.0,0.0
234,47.0,16.0,30.0,0.0,0.0
235,48.0,68.0,90.0,0.0,0.0
236,53.0,104.0,60.0,0.0,0.0
237,68.0,804.0,90.0,0.0,0.0
238,60.0,0.0,30.0,0.0,0.0
239,56.0,32.0,30.0,0.0,0.0
240,67.0,356.0,810.0,0.0,0.0
241,63.0,36.0,750.0,0.0,0.0
242,55.0,40.0,690.0,0.0,0.0
243,60.0,16.0,720.0,0.0,0.0
244,72.0,140.0,180.0,0.0,0.0
245,60.0,36.0,120.0,0.0,0.0
246,56.0,20.0,90.0,0.0,0.0
247,68.0,84.0,90.0,0.0,0.0
248,55.0,24.0,90.0,0.0,0.0
249,67.0,60.0,120.0,0.0,0.0
250,51.0,32.0,120.0,0.0,0.0
251,63.0,16.0,90.0,0.0,0.0
252,48.0,28.0,30.0,0.0,0.0
253,60.0,600.0,60.0,0.0,0.0
254,44.0,260.0,990.0,0.0,0.0
255,56.0,0.0,990.0,0.0,0.0
256,48.0,116.0,120.0,0.0,0.0
257,54.0,200.0,300.0,0.0,0.0
258,32.0,76.0,210.0,0.0,0.0
259,37.0,4.0,90.0,0.0,0.0
260,53.0,8.0,120.0,0.0,0.0
261,49.0,52.0,60.0,0.0,0.0
262,73.0,104.0,90.0,0.0,0.0
263,61.0,60.0,30.0,0.0,0.0
264,70.0,76.0,120.0,0.0,0.0
265,58.0,4.0,90.0,0.0,0.0
266,68.0,40.0,150.0,0.0,0.0
267,56.0,48.0,90.0,0.0,0.0
268,65.0,20.0,90.0,0.0,0.0
269,53.0,16.0,90.0,0.0,0.0
270,61.0,624.0,60.0,0.0,0.0
271,49.0,36.0,30.0,0.0,0.0
272,45.0,0.0,930.0,0.0,64.0
273,57.0,352.0,960.0,0.0,0.0
274,49.0,120.0,120.0,0.0,0.0
275,33.0,212.0,270.0,0.0,0.0
276,55.0,52.0,210.0,0.0,0.0
277,54.0,20.0,90.0,0.0,0.0
278,38.0,0.0,60.0,0.0,64.0
279,50.0,8.0,60.0,0.0,64.0
280,74.0,92.0,120.0,0.0,0.0
281,26.0,20.0,90.0,0.0,0.0
282,70.0,80.0,90.0,0.0,0.0
283,38.0,12.0,90.0,0.0,0.0
284,45.0,60.0,90.0,0.0,0.0
285,69.0,4.0,150.0,0.0,0.0
286,66.0,60.0,90.0,0.0,0.0
287,50.0,24.0,60.0,0.0,0.0
288,54.0,132.0,90.0,0.0,0.0
289,62.0,20.0,60.0,0.0,0.0
290,58.0,344.0,120.0,0.0,0.0
291,55.0,48.0,60.0,0.0,0.0
292,46.0,8.0,90.0,0.0,0.0
293,75.0,36.0,120.0,0.0,0.0
294,26.0,28.0,90.0,0.0,0.0
295,72.0,52.0,120.0,0.0,0.0
296,38.0,68.0,60.0,0.0,0.0
297,46.0,72.0,90.0,0.0,64.0
298,70.0,12.0,150.0,0.0,0.0
299,67.0,40.0,90.0,0.0,0.0
300,51.0,24.0,90.0,0.0,0.0
301,55.0,88.0,60.0,0.0,0.0
302,63.0,24.0,30.0,0.0,0.0
303,47.0,20.0,120.0,0.0,0.0
304,56.0,92.0,30.0,0.0,0.0
305,59.0,324.0,150.0,0.0,0.0
306,76.0,24.0,150.0,0.0,0.0
307,26.0,28.0,120.0,0.0,0.0
308,72.0,48.0,120.0,0.0,0.0
309,38.0,76.0,60.0,0.0,0.0
310,71.0,0.0,180.0,0.0,0.0
311,47.0,88.0,90.0,0.0,0.0
312,52.0,60.0,90.0,0.0,0.0
313,68.0,4.0,60.0,0.0,0.0
314,56.0,112.0,60.0,0.0,0.0
315,64.0,20.0,30.0,0.0,0.0
316,60.0,360.0,120.0,0.0,0.0
317,48.0,28.0,90.0,0.0,0.0
318,57.0,36.0,60.0,0.0,0.0
319,77.0,36.0,120.0,0.0,0.0
320,26.0,24.0,90.0,0.0,0.0
321,38.0,88.0,60.0,0.0,64.0
322,74.0,48.0,150.0,0.0,0.0
323,72.0,36.0,150.0,0.0,0.0
324,48.0,40.0,90.0,0.0,0.0
325,69.0,36.0,90.0,0.0,0.0
326,53.0,20.0,60.0,0.0,0.0
327,57.0,108.0,60.0,0.0,0.0
328,65.0,16.0,60.0,0.0,0.0
329,50.0,60.0,90.0,0.0,0.0
330,57.0,32.0,30.0,0.0,0.0
331,60.0,28.0,60.0,0.0,0.0
332,66.0,340.0,150.0,0.0,0.0
333,78.0,0.0,90.0,0.0,0.0
334,26.0,72.0,90.0,0.0,0.0
335,74.0,32.0,90.0,0.0,0.0
336,38.0,60.0,30.0,0.0,0.0
337,45.0,84.0,30.0,0.0,0.0
338,72.0,48.0,120.0,0.0,0.0
339,69.0,84.0,90.0,0.0,0.0
340,50.0,44.0,60.0,0.0,0.0
341,66.0,200.0,90.0,0.0,0.0
342,60.0,24.0,90.0,0.0,0.0
343,78.0,140.0,120.0,0.0,0.0
344,66.0,0.0,90.0,0.0,0.0
345,70.0,8.0,90.0,0.0,0.0
346,58.0,8.0,90.0,0.0,0.0
347,49.0,8.0,90.0,0.0,0.0
348,61.0,8.0,60.0,0.0,0.0
349,65.0,8.0,60.0,0.0,0.0
350,77.0,140.0,60.0,0.0,0.0
351,75.0,0.0,60.0,0.0,0.0
352,63.0,332.0,60.0,0.0,0.0
353,73.0,40.0,270.0,0.0,0.0
354,61.0,8.0,300.0,0.0,0.0
355,66.0,292.0,360.0,0.0,0.0
356,46.0,40.0,300.0,0.0,0.0
357,34.0,20.0,270.0,0.0,0.0
358,71.0,52.0,210.0,0.0,0.0
359,63.0,4.0,180.0,0.0,0.0
360,68.0,124.0,300.0,0.0,0.0
361,47.0,24.0,240.0,0.0,0.0
362,35.0,24.0,210.0,0.0,0.0
363,71.0,204.0,60.0,0.0,0.0
364,70.0,20.0,270.0,0.0,0.0
365,59.0,32.0,210.0,0.0,0.0
366,65.0,156.0,270.0,0.0,0.0
367,49.0,12.0,180.0,0.0,0.0
368,37.0,56.0,120.0,0.0,0.0
369,68.0,116.0,90.0,0.0,0.0
370,70.0,16.0,300.0,0.0,0.0
371,65.0,72.0,210.0,0.0,0.0
372,58.0,8.0,270.0,0.0,0.0
373,54.0,12.0,60.0,0.0,0.0
374,42.0,104.0,60.0,0.0,0.0
375,53.0,0.0,60.0,0.0,0.0
376,41.0,28.0,20.0,0.0,0.0
377,51.0,12.0,60.0,0.0,0.0
378,39.0,344.0,30.0,0.0,0.0
379,70.0,32.0,210.0,0.0,0.0
380,58.0,8.0,210.0,0.0,0.0
381,63.0,8.0,240.0,0.0,0.0
382,30.0,8.0,210.0,0.0,0.0
383,42.0,288.0,240.0,0.0,0.0
384,68.0,4.0,210.0,0.0,0.0
385,59.0,124.0,90.0,0.0,0.0
386,64.0,148.0,300.0,0.0,0.0
387,44.0,44.0,240.0,0.0,0.0
388,32.0,52.0,180.0,0.0,0.0
389,68.0,176.0,60.0,0.0,0.0
390,56.0,8.0,210.0,0.0,0.0
391,66.0,8.0,150.0,0.0,0.0
392,62.0,44.0,150.0,0.0,0.0
393,46.0,240.0,180.0,0.0,0.0
394,34.0,16.0,180.0,0.0,0.0
395,65.0,396.0,60.0,0.0,0.0
396,51.0,200.0,420.0,0.0,0.0
397,63.0,20.0,330.0,0.0,0.0
398,54.0,64.0,330.0,0.0,0.0
399,57.0,8.0,330.0,0.0,0.0
400,48.0,16.0,630.0,0.0,0.0
401,42.0,36.0,660.0,0.0,0.0
402,45.0,8.0,660.0,0.0,0.0
403,36.0,4.0,630.0,0.0,0.0
404,50.0,48.0,90.0,0.0,0.0
405,51.0,108.0,90.0,0.0,0.0
406,54.0,152.0,90.0,0.0,0.0
407,57.0,28.0,120.0,0.0,0.0
408,62.0,116.0,30.0,0.0,0.0
409,63.0,172.0,60.0,0.0,0.0
410,66.0,48.0,120.0,0.0,0.0
411,69.0,24.0,150.0,0.0,0.0
412,48.0,80.0,60.0,0.0,0.0
413,54.0,96.0,390.0,0.0,0.0
414,57.0,28.0,330.0,0.0,0.0
415,74.0,204.0,30.0,0.0,0.0
416,63.0,24.0,270.0,0.0,0.0
417,75.0,36.0,120.0,0.0,0.0
418,87.0,156.0,150.0,0.0,0.0
419,86.0,28.0,90.0,0.0,0.0
420,49.0,56.0,60.0,0.0,0.0
421,52.0,24.0,90.0,0.0,0.0
422,54.0,8.0,90.0,0.0,0.0
423,58.0,0.0,90.0,0.0,0.0
424,85.0,136.0,60.0,0.0,0.0
425,64.0,12.0,30.0,0.0,0.0
426,84.0,108.0,90.0,0.0,0.0
427,83.0,84.0,90.0,0.0,0.0
428,82.0,128.0,30.0,0.0,0.0
429,82.0,12.0,60.0,0.0,0.0
430,76.0,4.0,60.0,0.0,0.0
431,73.0,76.0,60.0,0.0,0.0
432,80.0,4.0,60.0,0.0,0.0
433,75.0,20.0,20.0,0.0,0.0
434,71.0,112.0,30.0,0.0,0.0
435,78.0,12.0,30.0,0.0,0.0
436,73.0,4.0,60.0,0.0,0.0
437,70.0,116.0,60.0,0.0,0.0
438,76.0,120.0,60.0,0.0,0.0
439,71.0,4.0,60.0,0.0,0.0
440,68.0,4.0,60.0,0.0,0.0
441,66.0,68.0,90.0,0.0,0.0
442,75.0,28.0,60.0,0.0,0.0
443,70.0,12.0,60.0,0.0,0.0
444,73.0,12.0,60.0,0.0,0.0
445,64.0,96.0,60.0,0.0,0.0
446,68.0,8.0,30.0,0.0,0.0
447,71.0,12.0,60.0,0.0,0.0
448,63.0,100.0,60.0,0.0,0.0
449,66.0,20.0,30.0,0.0,0.0
450,70.0,4.0,90.0,0.0,0.0
451,64.0,16.0,60.0,0.0,0.0
452,61.0,80.0,60.0,0.0,0.0
453,68.0,8.0,30.0,0.0,0.0
454,59.0,92.0,60.0,0.0,0.0
455,63.0,20.0,20.0,0.0,0.0
456,58.0,4.0,60.0,0.0,0.0
457,66.0,112.0,60.0,0.0,0.0
458,61.0,24.0,30.0,0.0,0.0
459,64.0,96.0,60.0,0.0,0.0
460,59.0,4.0,60.0,0.0,0.0
461,56.0,4.0,60.0,0.0,0.0
462,54.0,116.0,90.0,0.0,64.0
463,58.0,16.0,60.0,0.0,0.0
464,63.0,20.0,60.0,0.0,0.0
465,61.0,8.0,180.0,0.0,0.0
466,52.0,112.0,90.0,0.0,0.0
467,58.0,4.0,180.0,0.0,0.0
468,51.0,116.0,90.0,0.0,0.0
469,49.0,140.0,90.0,0.0,0.0
470,47.0,128.0,120.0,0.0,0.0
471,52.0,4.0,840.0,0.0,0.0
472,46.0,92.0,120.0,0.0,0.0
473,55.0,108.0,390.0,0.0,0.0
474,61.0,320.0,900.0,0.0,0.0
475,43.0,132.0,90.0,0.0,0.0
476,40.0,36.0,120.0,0.0,0.0
477,35.0,84.0,120.0,0.0,0.0
478,34.0,152.0,90.0,0.0,0.0
479,54.0,100.0,870.0,0.0,0.0
480,30.0,120.0,90.0,0.0,0.0
481,29.0,60.0,120.0,0.0,0.0
482,30.0,20.0,1170.0,0.0,0.0
483,62.0,0.0,210.0,0.0,0.0
484,59.0,80.0,210.0,0.0,0.0
485,42.0,56.0,270.0,0.0,0.0
486,59.0,64.0,90.0,0.0,0.0
487,50.0,368.0,150.0,0.0,0.0
488,42.0,4.0,30.0,0.0,0.0
489,56.0,28.0,30.0,0.0,0.0
490,58.0,12.0,390.0,0.0,0.0
491,42.0,20.0,450.0,0.0,0.0
492,49.0,64.0,390.0,0.0,0.0
493,57.0,336.0,90.0,0.0,0.0
494,60.0,44.0,300.0,0.0,0.0
495,53.0,16.0,330.0,0.0,0.0
496,29.0,328.0,480.0,0.0,0.0
497,49.0,88.0,360.0,0.0,0.0
498,58.0,40.0,90.0,0.0,0.0
499,61.0,8.0,360.0,0.0,0.0
500,55.0,76.0,360.0,0.0,0.0
501,49.0,52.0,300.0,0.0,0.0
502,28.0,344.0,570.0,0.0,0.0
503,60.0,164.0,60.0,0.0,0.0
504,66.0,20.0,360.0,0.0,0.0
505,60.0,144.0,360.0,0.0,0.0
506,57.0,8.0,360.0,0.0,0.0
507,27.0,4.0,360.0,0.0,0.0
508,65.0,452.0,30.0,0.0,0.0
509,77.0,40.0,600.0,0.0,0.0
510,25.0,88.0,240.0,0.0,0.0
511,65.0,92.0,1080.0,0.0,0.0
512,70.0,4.0,1050.0,0.0,0.0
513,29.0,124.0,90.0,0.0,0.0
514,30.0,104.0,120.0,0.0,0.0
515,31.0,56.0,90.0,0.0,0.0
516,32.0,112.0,90.0,0.0,0.0
517,33.0,120.0,90.0,0.0,0.0
518,34.0,112.0,90.0,0.0,0.0
519,78.0,44.0,150.0,0.0,0.0
520,35.0,32.0,120.0,0.0,0.0
521,36.0,12.0,90.0,0.0,0.0
522,77.0,4.0,210.0,0.0,0.0
523,37.0,112.0,60.0,0.0,0.0
524,38.0,92.0,90.0,0.0,0.0
525,75.0,44.0,240.0,0.0,0.0
526,39.0,116.0,60.0,0.0,0.0
527,40.0,48.0,90.0,0.0,0.0
528,41.0,104.0,90.0,0.0,0.0
529,73.0,24.0,60.0,0.0,0.0
530,42.0,96.0,90.0,0.0,0.0
531,72.0,68.0,210.0,0.0,0.0
532,43.0,112.0,60.0,0.0,0.0
533,65.0,16.0,810.0,0.0,0.0
534,44.0,36.0,90.0,0.0,0.0
535,45.0,112.0,90.0,0.0,0.0
536,70.0,116.0,210.0,0.0,0.0
537,46.0,32.0,90.0,0.0,0.0
538,47.0,52.0,150.0,0.0,0.0
539,73.0,84.0,210.0,0.0,0.0
540,48.0,24.0,60.0,0.0,0.0
541,72.0,16.0,90.0,0.0,0.0
542,49.0,96.0,90.0,0.0,0.0
543,50.0,104.0,90.0,0.0,0.0
544,70.0,4.0,540.0,0.0,0.0
545,66.0,28.0,150.0,0.0,0.0
546,51.0,84.0,60.0,0.0,0.0
547,52.0,120.0,90.0,0.0,0.0
548,65.0,68.0,240.0,0.0,0.0
549,53.0,104.0,90.0,0.0,0.0
550,54.0,44.0,90.0,0.0,0.0
551,55.0,16.0,90.0,0.0,0.0
552,63.0,120.0,90.0,0.0,0.0
553,56.0,92.0,90.0,0.0,0.0
554,57.0,0.0,90.0,0.0,0.0
555,61.0,8.0,60.0,0.0,0.0
556,58.0,156.0,15.0,0.0,0.0
557,60.0,68.0,60.0,0.0,0.0
558,70.0,104.0,60.0,0.0,0.0
559,27.0,84.0,390.0,0.0,0.0
560,77.0,256.0,30.0,0.0,0.0
561,58.0,4.0,180.0,0.0,0.0
562,29.0,116.0,90.0,0.0,0.0
563,30.0,92.0,90.0,0.0,0.0
564,61.0,84.0,210.0,0.0,0.0
565,31.0,16.0,60.0,0.0,0.0
566,60.0,20.0,120.0,0.0,0.0
567,32.0,56.0,60.0,0.0,0.0
568,33.0,164.0,90.0,0.0,0.0
569,58.0,48.0,15.0,0.0,0.0
570,34.0,48.0,120.0,0.0,0.0
571,78.0,32.0,150.0,0.0,0.0
572,35.0,96.0,90.0,0.0,0.0
573,36.0,104.0,60.0,0.0,0.0
574,77.0,32.0,180.0,0.0,0.0
575,37.0,100.0,90.0,0.0,0.0
576,75.0,52.0,210.0,0.0,0.0
577,38.0,88.0,90.0,0.0,0.0
578,39.0,44.0,60.0,0.0,0.0
579,73.0,16.0,60.0,0.0,0.0
580,40.0,108.0,60.0,0.0,0.0
581,41.0,168.0,90.0,0.0,0.0
582,42.0,60.0,120.0,0.0,0.0
583,72.0,36.0,270.0,0.0,0.0
584,66.0,112.0,630.0,0.0,0.0
585,43.0,84.0,60.0,0.0,0.0
586,70.0,52.0,240.0,0.0,0.0
587,44.0,112.0,60.0,0.0,0.0
588,45.0,44.0,90.0,0.0,0.0
589,73.0,0.0,180.0,0.0,0.0
590,46.0,120.0,60.0,0.0,0.0
591,47.0,4.0,90.0,0.0,0.0
592,72.0,4.0,210.0,0.0,0.0
593,48.0,116.0,90.0,0.0,0.0
594,49.0,104.0,90.0,0.0,0.0
595,70.0,104.0,660.0,0.0,0.0
596,50.0,76.0,90.0,0.0,0.0
597,68.0,16.0,150.0,0.0,0.0
598,51.0,120.0,60.0,0.0,0.0
599,52.0,16.0,90.0,0.0,0.0
600,66.0,96.0,90.0,0.0,0.0
601,53.0,144.0,90.0,0.0,0.0
602,54.0,20.0,120.0,0.0,0.0
603,65.0,60.0,120.0,0.0,0.0
604,55.0,40.0,60.0,0.0,0.0
605,63.0,0.0,90.0,0.0,0.0
606,56.0,28.0,90.0,0.0,0.0
607,57.0,284.0,30.0,0.0,0.0
608,77.0,12.0,120.0,0.0,0.0
609,63.0,188.0,150.0,0.0,0.0
610,70.0,4.0,120.0,0.0,0.0
611,29.0,88.0,300.0,0.0,0.0
612,62.0,4.0,180.0,0.0,0.0
613,30.0,116.0,90.0,0.0,0.0
614,31.0,104.0,90.0,0.0,0.0
615,65.0,0.0,180.0,0.0,0.0
616,32.0,92.0,90.0,0.0,0.0
617,63.0,52.0,120.0,0.0,0.0
618,33.0,60.0,60.0,0.0,0.0
619,34.0,144.0,90.0,0.0,0.0
620,62.0,12.0,60.0,0.0,0.0
621,35.0,92.0,120.0,0.0,0.0
622,78.0,8.0,90.0,0.0,0.0
623,36.0,132.0,90.0,0.0,0.0
624,77.0,4.0,180.0,0.0,0.0
625,37.0,96.0,90.0,0.0,0.0
626,38.0,96.0,90.0,0.0,0.0
627,75.0,64.0,240.0,0.0,0.0
628,39.0,108.0,60.0,0.0,0.0
629,40.0,48.0,60.0,0.0,0.0
630,74.0,64.0,150.0,0.0,0.0
631,41.0,76.0,90.0,0.0,0.0
632,42.0,108.0,120.0,0.0,0.0
633,74.0,0.0,420.0,0.0,0.0
634,71.0,40.0,150.0,0.0,0.0
635,43.0,56.0,90.0,0.0,0.0
636,44.0,112.0,60.0,0.0,0.0
637,70.0,4.0,210.0,0.0,0.0
638,45.0,124.0,60.0,0.0,0.0
639,46.0,116.0,90.0,0.0,0.0
640,47.0,76.0,120.0,0.0,0.0
641,73.0,68.0,210.0,0.0,0.0
642,48.0,36.0,60.0,0.0,0.0
643,71.0,20.0,180.0,0.0,0.0
644,49.0,112.0,60.0,0.0,0.0
645,50.0,116.0,90.0,0.0,0.0
646,74.0,124.0,210.0,0.0,0.0
647,51.0,96.0,90.0,0.0,0.0
648,70.0,20.0,180.0,0.0,0.0
649,52.0,4.0,90.0,0.0,0.0
650,68.0,148.0,150.0,0.0,0.0
651,53.0,24.0,120.0,0.0,0.0
652,54.0,16.0,180.0,0.0,0.0
653,74.0,80.0,360.0,0.0,0.0
654,66.0,32.0,210.0,0.0,0.0
655,55.0,112.0,90.0,0.0,0.0
656,56.0,80.0,120.0,0.0,0.0
657,65.0,4.0,90.0,0.0,0.0
658,57.0,24.0,90.0,0.0,0.0
659,58.0,336.0,90.0,0.0,0.0
660,75.0,12.0,360.0,0.0,0.0
661,63.0,128.0,390.0,0.0,0.0
662,71.0,8.0,360.0,0.0,0.0
663,59.0,116.0,240.0,0.0,0.0
664,35.0,152.0,60.0,0.0,0.0
665,54.0,144.0,90.0,0.0,0.0
666,51.0,48.0,30.0,0.0,0.0
667,66.0,100.0,120.0,0.0,0.0
668,63.0,16.0,90.0,0.0,0.0
669,42.0,12.0,90.0,0.0,0.0
670,61.0,136.0,90.0,0.0,0.0
671,52.0,36.0,60.0,0.0,0.0
672,59.0,44.0,90.0,0.0,0.0
673,51.0,140.0,120.0,0.0,0.0
674,68.0,4.0,150.0,0.0,0.0
675,42.0,96.0,150.0,0.0,0.0
676,71.0,24.0,120.0,0.0,0.0
677,35.0,8.0,120.0,0.0,0.0
678,66.0,120.0,120.0,0.0,0.0
679,63.0,140.0,90.0,0.0,0.0
680,59.0,8.0,60.0,0.0,0.0
681,71.0,12.0,90.0,0.0,0.0
682,75.0,116.0,90.0,0.0,0.0
683,54.0,8.0,210.0,0.0,0.0
684,68.0,8.0,60.0,0.0,0.0
685,64.0,164.0,60.0,0.0,0.0
686,66.0,56.0,90.0,0.0,0.0
687,63.0,128.0,150.0,0.0,0.0
688,78.0,24.0,150.0,0.0,0.0
689,75.0,24.0,120.0,0.0,0.0
690,54.0,24.0,180.0,0.0,0.0
691,47.0,80.0,60.0,0.0,0.0
692,73.0,56.0,120.0,0.0,0.0
693,71.0,168.0,30.0,0.0,0.0
694,66.0,20.0,210.0,0.0,0.0
695,87.0,0.0,60.0,0.0,0.0
696,83.0,160.0,60.0,0.0,0.0
697,54.0,4.0,30.0,0.0,0.0
698,83.0,100.0,120.0,0.0,0.0
699,78.0,24.0,30.0,0.0,0.0
700,75.0,32.0,60.0,0.0,0.0
701,78.0,0.0,60.0,0.0,0.0
702,75.0,24.0,30.0,0.0,0.0
703,71.0,144.0,60.0,0.0,0.0
704,71.0,172.0,60.0,0.0,0.0
705,66.0,4.0,60.0,0.0,0.0
706,75.0,0.0,60.0,0.0,0.0
707,71.0,92.0,120.0,0.0,0.0
708,66.0,44.0,90.0,0.0,0.0
709,63.0,24.0,60.0,0.0,0.0
710,66.0,4.0,30.0,0.0,0.0
711,63.0,16.0,30.0,0.0,0.0
712,59.0,188.0,60.0,0.0,0.0
713,63.0,8.0,60.0,0.0,0.0
714,59.0,0.0,60.0,0.0,0.0
715,54.0,344.0,60.0,0.0,0.0
716,52.0,56.0,120.0,0.0,0.0
717,33.0,84.0,150.0,0.0,0.0
718,53.0,164.0,150.0,0.0,0.0
719,65.0,80.0,420.0,0.0,0.0
720,60.0,84.0,120.0,0.0,0.0
721,48.0,40.0,210.0,0.0,0.0
722,41.0,84.0,270.0,0.0,0.0
723,63.0,48.0,120.0,0.0,0.0
724,61.0,36.0,120.0,0.0,0.0
725,34.0,16.0,360.0,0.0,0.0
726,60.0,144.0,90.0,0.0,0.0
727,67.0,4.0,120.0,0.0,0.0
728,64.0,92.0,120.0,0.0,0.0
729,58.0,16.0,90.0,0.0,0.0
730,41.0,20.0,60.0,0.0,0.0
731,61.0,172.0,90.0,0.0,0.0
732,69.0,0.0,120.0,0.0,0.0
733,57.0,12.0,120.0,0.0,0.0
734,65.0,16.0,90.0,0.0,0.0
735,41.0,56.0,120.0,0.0,0.0
736,29.0,36.0,150.0,0.0,0.0
737,60.0,164.0,90.0,0.0,0.0
738,65.0,96.0,420.0,0.0,0.0
739,53.0,76.0,150.0,0.0,0.0
740,33.0,12.0,60.0,0.0,0.0
741,41.0,80.0,90.0,0.0,0.0
742,63.0,120.0,120.0,0.0,0.0
743,61.0,28.0,90.0,0.0,0.0
744,34.0,20.0,60.0,0.0,0.0
745,60.0,144.0,90.0,0.0,0.0
746,64.0,16.0,90.0,0.0,0.0
747,67.0,108.0,150.0,0.0,0.0
748,49.0,24.0,60.0,0.0,0.0
749,58.0,52.0,90.0,0.0,0.0
750,57.0,96.0,120.0,0.0,0.0
751,56.0,76.0,120.0,0.0,0.0
752,36.0,40.0,60.0,0.0,0.0
753,58.0,212.0,60.0,0.0,0.0
754,56.0,28.0,390.0,0.0,0.0
755,68.0,76.0,420.0,0.0,0.0
756,44.0,148.0,90.0,0.0,0.0
757,51.0,16.0,90.0,0.0,0.0
758,66.0,88.0,90.0,0.0,0.0
759,65.0,8.0,90.0,0.0,0.0
760,37.0,44.0,30.0,0.0,0.0
761,63.0,156.0,60.0,0.0,0.0
762,70.0,16.0,180.0,0.0,0.0
763,61.0,44.0,120.0,0.0,0.0
764,68.0,16.0,90.0,0.0,0.0
765,44.0,28.0,60.0,0.0,0.0
766,53.0,12.0,60.0,0.0,0.0
767,65.0,160.0,60.0,0.0,0.0
768,60.0,40.0,120.0,0.0,0.0
769,40.0,56.0,60.0,0.0,0.0
770,61.0,236.0,30.0,0.0,0.0
771,60.0,12.0,390.0,0.0,0.0
772,72.0,28.0,360.0,0.0,0.0
773,48.0,172.0,90.0,0.0,0.0
774,55.0,12.0,90.0,0.0,0.0
775,58.0,0.0,90.0,0.0,0.0
776,70.0,48.0,120.0,0.0,0.0
777,69.0,84.0,120.0,0.0,0.0
778,41.0,44.0,20.0,0.0,0.0
779,66.0,100.0,60.0,0.0,0.0
780,45.0,48.0,60.0,0.0,0.0
781,53.0,28.0,60.0,0.0,0.0
782,75.0,0.0,120.0,0.0,0.0
783,65.0,140.0,120.0,0.0,0.0
784,72.0,16.0,90.0,0.0,0.0
785,60.0,20.0,60.0,0.0,0.0
786,66.0,64.0,120.0,0.0,0.0
787,46.0,36.0,30.0,0.0,0.0
788,53.0,56.0,60.0,0.0,0.0
789,73.0,488.0,90.0,0.0,0.0
790,65.0,16.0,60.0,0.0,0.0
791,70.0,4.0,90.0,0.0,0.0
792,61.0,4.0,60.0,0.0,0.0
793,66.0,88.0,90.0,0.0,0.0
794,54.0,12.0,90.0,0.0,0.0
795,41.0,12.0,210.0,0.0,0.0
796,29.0,36.0,180.0,0.0,0.0
797,61.0,100.0,60.0,0.0,0.0
798,65.0,0.0,60.0,0.0,0.0
799,60.0,40.0,30.0,0.0,0.0
800,63.0,112.0,90.0,0.0,0.0
801,65.0,120.0,120.0,0.0,0.0
802,61.0,56.0,60.0,0.0,0.0
803,66.0,12.0,90.0,0.0,0.0
804,57.0,8.0,120.0,0.0,0.0
805,60.0,36.0,90.0,0.0,0.0
806,51.0,24.0,120.0,0.0,0.0
807,63.0,192.0,30.0,0.0,0.0
808,53.0,84.0,90.0,0.0,0.0
809,54.0,192.0,60.0,0.0,0.0
810,65.0,108.0,120.0,0.0,0.0
811,53.0,32.0,90.0,0.0,0.0
812,41.0,0.0,210.0,0.0,0.0
813,29.0,16.0,210.0,0.0,0.0
814,63.0,4.0,90.0,0.0,0.0
815,60.0,136.0,90.0,0.0,0.0
816,61.0,4.0,90.0,0.0,0.0
817,58.0,76.0,90.0,0.0,0.0
818,63.0,156.0,60.0,0.0,0.0
819,60.0,12.0,30.0,0.0,0.0
820,66.0,0.0,90.0,0.0,0.0
821,53.0,20.0,90.0,0.0,0.0
822,58.0,4.0,60.0,0.0,0.0
823,49.0,52.0,90.0,0.0,0.0
824,65.0,200.0,30.0,0.0,0.0
825,61.0,16.0,20.0,0.0,0.0
826,51.0,76.0,90.0,0.0,0.0
827,53.0,208.0,60.0,0.0,0.0
828,51.0,20.0,120.0,0.0,0.0
829,63.0,104.0,120.0,0.0,0.0
830,29.0,28.0,300.0,0.0,0.0
831,41.0,8.0,330.0,0.0,0.0
832,61.0,12.0,90.0,0.0,0.0
833,58.0,76.0,90.0,0.0,0.0
834,57.0,20.0,90.0,0.0,0.0
835,60.0,148.0,90.0,0.0,0.0
836,58.0,144.0,120.0,0.0,0.0
837,57.0,32.0,90.0,0.0,0.0
838,63.0,0.0,90.0,0.0,0.0
839,54.0,12.0,120.0,0.0,0.0
840,48.0,40.0,120.0,0.0,0.0
841,60.0,168.0,60.0,0.0,0.0
842,49.0,96.0,90.0,0.0,0.0
843,51.0,252.0,60.0,0.0,0.0
844,49.0,68.0,150.0,0.0,0.0
845,61.0,4.0,150.0,0.0,0.0
846,41.0,20.0,210.0,0.0,0.0
847,29.0,28.0,180.0,0.0,0.0
848,60.0,4.0,120.0,0.0,0.0
849,57.0,136.0,120.0,0.0,0.0
850,58.0,92.0,120.0,0.0,0.0
851,55.0,4.0,90.0,0.0,0.0
852,60.0,160.0,150.0,0.0,0.0
853,57.0,68.0,60.0,0.0,0.0
854,63.0,84.0,150.0,0.0,0.0
855,55.0,20.0,330.0,0.0,0.0
856,52.0,140.0,330.0,0.0,0.0
857,61.0,136.0,630.0,0.0,0.0
858,58.0,112.0,60.0,0.0,0.0
859,57.0,164.0,150.0,0.0,0.0
860,41.0,12.0,930.0,0.0,0.0
861,60.0,132.0,150.0,0.0,0.0
862,54.0,64.0,720.0,0.0,0.0
863,51.0,28.0,630.0,0.0,0.0
864,48.0,24.0,750.0,0.0,0.0
865,58.0,136.0,120.0,0.0,0.0
866,61.0,128.0,120.0,0.0,0.0
867,60.0,100.0,90.0,0.0,0.0
868,57.0,36.0,120.0,0.0,0.0
869,60.0,156.0,90.0,0.0,0.0
870,41.0,232.0,300.0,0.0,0.0
871,53.0,124.0,90.0,0.0,0.0
872,54.0,68.0,90.0,0.0,0.0
873,51.0,16.0,240.0,0.0,0.0
874,54.0,40.0,720.0,0.0,0.0
875,48.0,4.0,750.0,0.0,0.0
876,58.0,104.0,120.0,0.0,0.0
877,61.0,132.0,90.0,0.0,0.0
878,60.0,148.0,90.0,0.0,0.0
879,57.0,92.0,120.0,0.0,0.0
880,60.0,160.0,120.0,0.0,0.0
881,53.0,148.0,120.0,0.0,0.0
882,41.0,40.0,810.0,0.0,0.0
883,54.0,264.0,120.0,0.0,0.0
884,51.0,40.0,600.0,0.0,0.0
885,54.0,36.0,690.0,0.0,0.0
886,48.0,180.0,750.0,0.0,0.0
887,58.0,96.0,120.0,0.0,0.0
888,61.0,136.0,90.0,0.0,0.0
889,60.0,88.0,90.0,0.0,0.0
890,57.0,68.0,120.0,0.0,0.0
891,60.0,16.0,90.0,0.0,0.0
892,53.0,116.0,120.0,0.0,0.0
893,41.0,44.0,870.0,0.0,0.0
894,54.0,228.0,120.0,0.0,0.0
895,54.0,8.0,690.0,0.0,0.0
896,51.0,44.0,210.0,0.0,0.0
897,48.0,220.0,690.0,0.0,0.0
898,58.0,104.0,120.0,0.0,0.0
899,61.0,140.0,90.0,0.0,0.0
900,60.0,132.0,90.0,0.0,0.0
901,57.0,24.0,120.0,0.0,0.0
902,60.0,0.0,240.0,0.0,0.0
903,53.0,116.0,90.0,0.0,0.0
904,41.0,144.0,780.0,0.0,0.0
905,54.0,236.0,90.0,0.0,0.0
906,51.0,44.0,180.0,0.0,0.0
907,54.0,96.0,330.0,0.0,0.0
908,48.0,20.0,1530.0,0.0,0.0
909,58.0,120.0,90.0,0.0,0.0
910,61.0,0.0,90.0,0.0,0.0
911,60.0,88.0,60.0,0.0,0.0
912,53.0,32.0,990.0,0.0,0.0
913,57.0,96.0,150.0,0.0,0.0
914,61.0,132.0,120.0,0.0,0.0
915,65.0,128.0,120.0,0.0,0.0
916,63.0,164.0,120.0,0.0,0.0
917,60.0,120.0,150.0,0.0,0.0
918,65.0,152.0,120.0,0.0,0.0
919,68.0,48.0,150.0,0.0,0.0
920,66.0,128.0,120.0,0.0,0.0
921,63.0,164.0,90.0,0.0,0.0
922,70.0,144.0,120.0,0.0,0.0
923,73.0,112.0,150.0,0.0,0.0
924,29.0,52.0,720.0,0.0,0.0
925,72.0,120.0,120.0,0.0,0.0
926,69.0,156.0,90.0,0.0,0.0
927,73.0,140.0,120.0,0.0,0.0
928,77.0,80.0,120.0,0.0,0.0
929,75.0,180.0,120.0,0.0,0.0
930,72.0,128.0,150.0,0.0,0.0
931,77.0,100.0,180.0,0.0,0.0
932,80.0,120.0,120.0,0.0,0.0
933,78.0,112.0,120.0,0.0,0.0
934,60.0,60.0,570.0,0.0,0.0
935,75.0,172.0,90.0,0.0,0.0
936,82.0,120.0,120.0,0.0,0.0
937,85.0,124.0,120.0,0.0,0.0
938,65.0,0.0,1260.0,0.0,0.0
939,84.0,68.0,90.0,0.0,0.0
940,81.0,156.0,90.0,0.0,0.0
941,69.0,20.0,1020.0,0.0,0.0
942,85.0,124.0,120.0,0.0,0.0
943,89.0,140.0,120.0,0.0,0.0
944,75.0,48.0,720.0,0.0,0.0
945,87.0,304.0,120.0,0.0,0.0
946,84.0,36.0,510.0,0.0,0.0
947,89.0,148.0,150.0,0.0,0.0
948,92.0,28.0,120.0,0.0,0.0
949,91.0,148.0,90.0,0.0,0.0
950,90.0,152.0,120.0,0.0,0.0
951,87.0,76.0,120.0,0.0,0.0
952,84.0,148.0,60.0,0.0,0.0
953,80.0,172.0,60.0,0.0,0.0
954,79.0,140.0,120.0,0.0,0.0
955,78.0,168.0,120.0,0.0,0.0
956,75.0,64.0,150.0,0.0,0.0
957,72.0,160.0,60.0,0.0,0.0
958,68.0,184.0,60.0,0.0,0.0
959,67.0,144.0,120.0,0.0,0.0
960,66.0,112.0,120.0,0.0,0.0
961,63.0,136.0,90.0,0.0,0.0
962,60.0,140.0,90.0,0.0,0.0
963,57.0,160.0,120.0,0.0,0.0
964,56.0,140.0,120.0,0.0,0.0
965,55.0,128.0,120.0,0.0,0.0
966,54.0,148.0,120.0,0.0,0.0
967,53.0,136.0,120.0,0.0,0.0
968,52.0,116.0,120.0,0.0,0.0
969,51.0,180.0,90.0,0.0,0.0
970,48.0,188.0,120.0,0.0,0.0
971,45.0,184.0,150.0,0.0,0.0
972,43.0,228.0,180.0,0.0,0.0
973,40.0,216.0,210.0,0.0,0.0
974,43.0,436.0,180.0,0.0,0.0
975,41.0,120.0,360.0,0.0,0.0
976,34.0,264.0,150.0,0.0,0.0
977,50.0,116.0,120.0,0.0,0.0
978,58.0,280.0,90.0,0.0,0.0
979,74.0,280.0,990.0,0.0,0.0
980,53.0,124.0,150.0,0.0,0.0
981,50.0,56.0,120.0,0.0,0.0
982,62.0,316.0,20.0,0.0,0.0
983,41.0,140.0,120.0,0.0,0.0
984,50.0,124.0,120.0,0.0,0.0
985,58.0,36.0,90.0,0.0,0.0
986,75.0,68.0,300.0,0.0,0.0
987,53.0,32.0,240.0,0.0,0.0
988,50.0,56.0,180.0,0.0,0.0
989,74.0,168.0,270.0,0.0,0.0
990,62.0,120.0,60.0,0.0,0.0
991,72.0,132.0,510.0,0.0,0.0
992,46.0,188.0,180.0,0.0,0.0
993,50.0,56.0,180.0,0.0,0.0
994,58.0,100.0,90.0,0.0,0.0
995,70.0,212.0,930.0,0.0,0.0
996,53.0,144.0,150.0,0.0,0.0
997,50.0,36.0,120.0,0.0,0.0
998,62.0,272.0,30.0,0.0,0.0
999,41.0,136.0,120.0,0.0,0.0
1000,50.0,136.0,90.0,0.0,0.0
1001,58.0,52.0,90.0,0.0,0.0
1002,62.0,80.0,210.0,0.0,0.0
1003,53.0,92.0,270.0,0.0,0.0
1004,50.0,12.0,210.0,0.0,0.0
1005,69.0,92.0,300.0,0.0,0.0
1006,62.0,168.0,20.0,0.0,0.0
1007,67.0,84.0,330.0,0.0,0.0
1008,34.0,212.0,120.0,0.0,0.0
1009,50.0,64.0,180.0,0.0,0.0
1010,65.0,72.0,180.0,0.0,0.0
1011,58.0,192.0,90.0,0.0,0.0
1012,69.0,112.0,180.0,0.0,0.0
1013,53.0,8.0,120.0,0.0,0.0
1014,50.0,76.0,120.0,0.0,0.0
1015,70.0,152.0,210.0,0.0,0.0
1016,62.0,80.0,60.0,0.0,0.0
1017,46.0,64.0,120.0,0.0,0.0
1018,73.0,68.0,180.0,0.0,0.0
1019,50.0,148.0,120.0,0.0,0.0
1020,74.0,128.0,150.0,0.0,0.0
1021,58.0,276.0,240.0,0.0,0.0
1022,79.0,108.0,510.0,0.0,0.0
1023,55.0,108.0,300.0,0.0,0.0
1024,50.0,56.0,330.0,0.0,0.0
1025,62.0,44.0,60.0,0.0,0.0
1026,77.0,212.0,120.0,0.0,0.0
1027,77.0,92.0,1050.0,0.0,0.0
1028,36.0,220.0,120.0,0.0,0.0
1029,51.0,136.0,120.0,0.0,0.0
1030,60.0,260.0,90.0,0.0,0.0
1031,55.0,24.0,240.0,0.0,0.0
1032,51.0,88.0,120.0,0.0,0.0
1033,63.0,152.0,60.0,0.0,0.0
1034,75.0,0.0,930.0,0.0,0.0
1035,48.0,120.0,90.0,0.0,0.0
1036,51.0,212.0,90.0,0.0,0.0
1037,60.0,452.0,180.0,0.0,0.0
1038,56.0,312.0,480.0,0.0,0.0
1039,51.0,4.0,300.0,0.0,0.0
1040,63.0,16.0,60.0,0.0,0.0
1041,75.0,204.0,960.0,0.0,0.0
1042,36.0,232.0,60.0,0.0,0.0
1043,51.0,156.0,90.0,0.0,0.0
1044,60.0,180.0,120.0,0.0,0.0
1045,57.0,108.0,150.0,0.0,0.0
1046,51.0,84.0,120.0,0.0,0.0
1047,63.0,112.0,60.0,0.0,0.0
1048,74.0,44.0,300.0,0.0,0.0
1049,45.0,60.0,150.0,0.0,0.0
1050,51.0,128.0,150.0,0.0,0.0
1051,71.0,20.0,210.0,0.0,0.0
1052,60.0,132.0,120.0,0.0,0.0
1053,74.0,124.0,180.0,0.0,0.0
1054,57.0,32.0,120.0,0.0,0.0
1055,51.0,24.0,120.0,0.0,0.0
1056,72.0,36.0,120.0,0.0,0.0
1057,63.0,288.0,30.0,0.0,0.0
1058,72.0,260.0,1320.0,0.0,0.0
1059,48.0,84.0,120.0,0.0,0.0
1060,51.0,112.0,90.0,0.0,0.0
1061,60.0,180.0,90.0,0.0,0.0
1062,63.0,100.0,150.0,0.0,0.0
1063,57.0,16.0,120.0,0.0,0.0
1064,51.0,76.0,90.0,0.0,0.0
1065,63.0,252.0,30.0,0.0,0.0
1066,45.0,112.0,120.0,0.0,0.0
1067,51.0,168.0,90.0,0.0,0.0
1068,60.0,40.0,120.0,0.0,0.0
1069,67.0,212.0,360.0,0.0,0.0
1070,57.0,4.0,300.0,0.0,0.0
1071,51.0,60.0,90.0,0.0,0.0
1072,63.0,28.0,30.0,0.0,0.0
1073,69.0,108.0,120.0,0.0,0.0
1074,67.0,68.0,300.0,0.0,0.0
1075,36.0,188.0,90.0,0.0,0.0
1076,51.0,108.0,150.0,0.0,0.0
1077,65.0,28.0,150.0,0.0,0.0
1078,60.0,176.0,120.0,0.0,0.0
1079,69.0,60.0,180.0,0.0,0.0
1080,57.0,28.0,150.0,0.0,0.0
1081,51.0,52.0,90.0,0.0,0.0
1082,70.0,192.0,180.0,0.0,0.0
1083,63.0,88.0,60.0,0.0,0.0
1084,72.0,92.0,180.0,0.0,0.0
1085,48.0,8.0,120.0,0.0,0.0
1086,51.0,60.0,90.0,0.0,0.0
1087,75.0,80.0,120.0,0.0,0.0
1088,60.0,172.0,120.0,0.0,0.0
1089,57.0,64.0,150.0,0.0,0.0
1090,81.0,52.0,210.0,0.0,0.0
1091,51.0,52.0,150.0,0.0,0.0
1092,63.0,212.0,30.0,0.0,0.0
1093,79.0,304.0,120.0,0.0,0.0
1094,76.0,400.0,750.0,0.0,0.0
1095,49.0,16.0,270.0,0.0,0.0
1096,55.0,256.0,120.0,0.0,0.0
1097,64.0,80.0,360.0,0.0,0.0
1098,58.0,116.0,90.0,0.0,0.0
1099,55.0,4.0,60.0,0.0,0.0
1100,70.0,300.0,1260.0,0.0,0.0
1101,50.0,88.0,210.0,0.0,0.0
1102,77.0,164.0,480.0,0.0,0.0
1103,53.0,180.0,90.0,0.0,0.0
1104,65.0,52.0,120.0,0.0,0.0
1105,75.0,64.0,450.0,0.0,0.0
1106,58.0,200.0,150.0,0.0,0.0
1107,53.0,96.0,150.0,0.0,0.0
1108,65.0,12.0,60.0,0.0,0.0
1109,74.0,0.0,60.0,0.0,0.0
1110,74.0,72.0,690.0,0.0,0.0
1111,50.0,140.0,150.0,0.0,0.0
1112,57.0,124.0,150.0,0.0,0.0
1113,66.0,180.0,120.0,0.0,0.0
1114,60.0,72.0,120.0,0.0,0.0
1115,57.0,128.0,150.0,0.0,0.0
1116,72.0,332.0,300.0,0.0,0.0
1117,66.0,76.0,120.0,0.0,0.0
1118,70.0,84.0,570.0,0.0,0.0
1119,55.0,204.0,330.0,0.0,0.0
1120,65.0,20.0,180.0,0.0,0.0
1121,58.0,0.0,30.0,0.0,0.0
1122,72.0,36.0,420.0,0.0,0.0
1123,48.0,212.0,90.0,0.0,0.0
1124,64.0,112.0,120.0,0.0,0.0
1125,58.0,108.0,150.0,0.0,0.0
1126,67.0,288.0,180.0,0.0,0.0
1127,70.0,72.0,270.0,0.0,0.0
1128,53.0,20.0,360.0,0.0,0.0
1129,63.0,24.0,210.0,0.0,0.0
1130,69.0,276.0,150.0,0.0,0.0
1131,60.0,12.0,30.0,0.0,0.0
1132,69.0,96.0,240.0,0.0,0.0
1133,41.0,128.0,90.0,0.0,0.0
1134,63.0,96.0,90.0,0.0,0.0
1135,67.0,20.0,180.0,0.0,0.0
1136,57.0,80.0,60.0,0.0,0.0
1137,65.0,272.0,90.0,0.0,0.0
1138,65.0,56.0,390.0,0.0,0.0
1139,46.0,96.0,150.0,0.0,0.0
1140,53.0,100.0,90.0,0.0,0.0
1141,62.0,216.0,90.0,0.0,0.0
1142,74.0,20.0,330.0,0.0,0.0
1143,58.0,180.0,120.0,0.0,0.0
1144,53.0,92.0,180.0,0.0,0.0
1145,65.0,120.0,90.0,0.0,0.0
1146,74.0,308.0,90.0,0.0,0.0
1147,74.0,128.0,720.0,0.0,0.0
1148,51.0,152.0,210.0,0.0,0.0
1149,57.0,120.0,180.0,0.0,0.0
1150,66.0,164.0,120.0,0.0,0.0
1151,60.0,52.0,150.0,0.0,0.0
1152,57.0,76.0,180.0,0.0,0.0
1153,72.0,140.0,330.0,0.0,0.0
1154,66.0,136.0,60.0,0.0,0.0
1155,69.0,68.0,270.0,0.0,0.0
1156,50.0,96.0,120.0,0.0,0.0
1157,53.0,144.0,150.0,0.0,0.0
1158,70.0,4.0,240.0,0.0,0.0
1159,65.0,148.0,120.0,0.0,0.0
1160,72.0,140.0,180.0,0.0,0.0
1161,58.0,40.0,90.0,0.0,0.0
1162,53.0,12.0,150.0,0.0,0.0
1163,75.0,24.0,150.0,0.0,0.0
1164,65.0,176.0,30.0,0.0,0.0
1165,74.0,252.0,180.0,0.0,0.0
1166,65.0,28.0,660.0,0.0,0.0
1167,45.0,144.0,150.0,0.0,0.0
1168,51.0,176.0,120.0,0.0,0.0
1169,60.0,164.0,150.0,0.0,0.0
1170,69.0,176.0,210.0,0.0,0.0
1171,53.0,28.0,150.0,0.0,0.0
1172,67.0,96.0,270.0,0.0,0.0
1173,51.0,44.0,180.0,0.0,0.0
1174,60.0,36.0,60.0,0.0,0.0
1175,65.0,388.0,60.0,0.0,0.0
1176,65.0,84.0,600.0,0.0,0.0
1177,46.0,80.0,330.0,0.0,0.0
1178,50.0,72.0,210.0,0.0,0.0
1179,58.0,32.0,330.0,0.0,0.0
1180,67.0,96.0,120.0,0.0,0.0
1181,69.0,8.0,120.0,0.0,0.0
1182,67.0,20.0,120.0,0.0,0.0
1183,52.0,64.0,180.0,0.0,0.0
1184,69.0,16.0,60.0,0.0,0.0
1185,50.0,24.0,330.0,0.0,0.0
1186,67.0,88.0,60.0,0.0,0.0
1187,69.0,108.0,60.0,0.0,0.0
1188,67.0,72.0,90.0,0.0,0.0
1189,65.0,28.0,90.0,0.0,64.0
1190,62.0,132.0,90.0,0.0,0.0
1191,67.0,280.0,120.0,0.0,0.0
1192,69.0,8.0,510.0,0.0,0.0
1193,45.0,72.0,210.0,0.0,0.0
1194,50.0,200.0,150.0,0.0,0.0
1195,57.0,120.0,210.0,0.0,0.0
1196,68.0,100.0,390.0,0.0,0.0
1197,53.0,152.0,120.0,0.0,0.0
1198,50.0,80.0,120.0,0.0,0.0
1199,45.0,28.0,90.0,0.0,0.0
1200,69.0,184.0,120.0,0.0,0.0
1201,71.0,76.0,240.0,0.0,0.0
1202,43.0,68.0,150.0,0.0,0.0
1203,49.0,28.0,150.0,0.0,0.0
1204,73.0,132.0,90.0,0.0,0.0
1205,57.0,144.0,120.0,0.0,0.0
1206,74.0,124.0,210.0,0.0,0.0
1207,52.0,80.0,120.0,0.0,0.0
1208,49.0,48.0,180.0,0.0,0.0
1209,76.0,196.0,240.0,0.0,0.0
1210,43.0,100.0,60.0,0.0,0.0
1211,77.0,72.0,120.0,0.0,0.0
1212,41.0,256.0,150.0,0.0,0.0
1213,50.0,204.0,240.0,0.0,0.0
1214,93.0,232.0,630.0,0.0,0.0
1215,57.0,160.0,180.0,0.0,0.0
1216,62.0,140.0,90.0,0.0,0.0
1217,91.0,152.0,240.0,0.0,0.0
1218,89.0,148.0,150.0,0.0,0.0
1219,88.0,152.0,120.0,0.0,0.0
1220,86.0,112.0,150.0,0.0,0.0
1221,85.0,196.0,120.0,0.0,0.0
1222,43.0,52.0,360.0,0.0,0.0
1223,86.0,40.0,120.0,0.0,0.0
1224,50.0,4.0,990.0,0.0,0.0
1225,84.0,104.0,90.0,0.0,0.0
1226,82.0,112.0,90.0,0.0,0.0
1227,81.0,92.0,90.0,0.0,0.0
1228,52.0,48.0,750.0,0.0,0.0
1229,79.0,148.0,90.0,0.0,0.0
1230,76.0,116.0,90.0,0.0,0.0
1231,58.0,36.0,540.0,0.0,0.0
1232,74.0,128.0,90.0,0.0,0.0
1233,69.0,100.0,90.0,0.0,0.0
1234,67.0,56.0,90.0,0.0,0.0
1235,62.0,164.0,120.0,0.0,0.0
1236,46.0,12.0,60.0,0.0,0.0
1237,67.0,404.0,150.0,0.0,0.0
1238,65.0,48.0,780.0,0.0,0.0
1239,45.0,16.0,1080.0,0.0,0.0
1240,50.0,244.0,180.0,0.0,0.0
1241,57.0,128.0,270.0,0.0,0.0
1242,70.0,16.0,120.0,0.0,0.0
1243,69.0,280.0,150.0,0.0,64.0
1244,53.0,4.0,420.0,0.0,0.0
1245,50.0,88.0,240.0,0.0,0.0
1246,57.0,16.0,30.0,0.0,0.0
1247,59.0,92.0,90.0,0.0,0.0
1248,61.0,80.0,90.0,0.0,0.0
1249,62.0,76.0,60.0,0.0,0.0
1250,61.0,32.0,60.0,0.0,0.0
1251,33.0,36.0,90.0,0.0,0.0
1252,62.0,52.0,60.0,0.0,0.0
1253,61.0,64.0,30.0,0.0,0.0
1254,62.0,64.0,60.0,0.0,0.0
1255,61.0,52.0,60.0,0.0,0.0
1256,45.0,56.0,270.0,0.0,0.0
1257,62.0,84.0,30.0,0.0,0.0
1258,61.0,64.0,90.0,0.0,0.0
1259,62.0,72.0,60.0,0.0,0.0
1260,61.0,4.0,60.0,0.0,0.0
1261,62.0,72.0,60.0,0.0,0.0
1262,52.0,32.0,270.0,0.0,0.0
1263,61.0,56.0,60.0,0.0,0.0
1264,62.0,76.0,60.0,0.0,0.0
1265,61.0,20.0,90.0,0.0,0.0
1266,62.0,76.0,60.0,0.0,0.0
1267,58.0,44.0,270.0,0.0,0.0
1268,61.0,40.0,90.0,0.0,0.0
1269,55.0,0.0,300.0,0.0,0.0
1270,62.0,64.0,60.0,0.0,0.0
1271,61.0,52.0,60.0,0.0,0.0
1272,62.0,32.0,30.0,0.0,0.0
1273,61.0,76.0,60.0,0.0,0.0
1274,62.0,104.0,60.0,0.0,0.0
1275,57.0,20.0,330.0,0.0,0.0
1276,53.0,12.0,330.0,0.0,0.0
1277,61.0,80.0,90.0,0.0,0.0
1278,59.0,112.0,90.0,0.0,0.0
1279,61.0,216.0,120.0,0.0,0.0
1280,65.0,116.0,210.0,0.0,0.0
1281,52.0,4.0,210.0,0.0,0.0
1282,55.0,44.0,180.0,0.0,0.0
1283,64.0,112.0,120.0,0.0,0.0
1284,62.0,280.0,90.0,0.0,0.0
1285,62.0,104.0,540.0,0.0,0.0
1286,26.0,32.0,180.0,0.0,64.0
1287,38.0,324.0,30.0,0.0,0.0
1288,45.0,4.0,180.0,0.0,0.0
1289,74.0,140.0,1020.0,0.0,0.0
1290,53.0,184.0,90.0,0.0,0.0
1291,57.0,216.0,60.0,0.0,0.0
1292,65.0,168.0,120.0,0.0,0.0
1293,62.0,168.0,90.0,0.0,0.0
1294,57.0,84.0,120.0,0.0,0.0
1295,53.0,100.0,60.0,0.0,0.0
1296,67.0,128.0,150.0,0.0,0.0
1297,74.0,100.0,540.0,0.0,0.0
1298,62.0,176.0,90.0,0.0,0.0
1299,57.0,264.0,120.0,0.0,0.0
1300,53.0,8.0,300.0,0.0,0.0
1301,65.0,140.0,150.0,0.0,0.0
1302,75.0,96.0,270.0,0.0,0.0
1303,63.0,104.0,120.0,0.0,0.0
1304,60.0,40.0,90.0,0.0,0.0
1305,72.0,112.0,90.0,0.0,0.0
1306,53.0,16.0,30.0,0.0,0.0
1307,67.0,208.0,30.0,0.0,0.0
1308,67.0,196.0,240.0,0.0,0.0
1309,63.0,64.0,90.0,0.0,0.0
1310,60.0,84.0,30.0,0.0,0.0
1311,69.0,16.0,270.0,0.0,0.0
1312,53.0,80.0,180.0,0.0,0.0
1313,65.0,120.0,150.0,0.0,0.0
1314,70.0,84.0,570.0,0.0,0.0
1315,62.0,136.0,120.0,0.0,0.0
1316,58.0,72.0,120.0,0.0,0.0
1317,53.0,240.0,60.0,0.0,0.0
1318,67.0,88.0,270.0,0.0,0.0
1319,63.0,8.0,120.0,0.0,0.0
1320,72.0,40.0,510.0,0.0,0.0
1321,57.0,160.0,90.0,0.0,0.0
1322,53.0,132.0,90.0,0.0,0.0
1323,65.0,108.0,150.0,0.0,0.0
1324,74.0,140.0,540.0,0.0,0.0
1325,62.0,116.0,120.0,0.0,0.0
1326,58.0,168.0,120.0,0.0,0.0
1327,53.0,120.0,150.0,0.0,0.0
1328,65.0,44.0,270.0,0.0,0.0
1329,79.0,208.0,360.0,0.0,0.0
1330,62.0,112.0,150.0,0.0,0.0
1331,59.0,100.0,90.0,0.0,0.0
1332,53.0,60.0,390.0,0.0,0.0
1333,77.0,28.0,150.0,0.0,0.0
1334,65.0,84.0,150.0,0.0,0.0
1335,79.0,84.0,150.0,0.0,0.0
1336,63.0,36.0,120.0,0.0,0.0
1337,60.0,32.0,120.0,0.0,0.0
1338,77.0,56.0,90.0,0.0,0.0
1339,53.0,124.0,60.0,0.0,0.0
1340,75.0,92.0,60.0,0.0,0.0
1341,67.0,124.0,150.0,0.0,0.0
1342,75.0,92.0,150.0,0.0,0.0
1343,63.0,28.0,120.0,0.0,0.0
1344,57.0,232.0,90.0,0.0,0.0
1345,74.0,4.0,90.0,0.0,0.0
1346,53.0,20.0,390.0,0.0,0.0
1347,73.0,104.0,90.0,0.0,0.0
1348,65.0,112.0,150.0,0.0,0.0
1349,74.0,20.0,270.0,0.0,0.0
1350,62.0,128.0,120.0,0.0,0.0
1351,58.0,48.0,120.0,0.0,0.0
1352,70.0,136.0,90.0,0.0,0.0
1353,53.0,20.0,20.0,0.0,0.0
1354,67.0,176.0,90.0,0.0,0.0
1355,67.0,288.0,270.0,0.0,0.0
1356,63.0,68.0,90.0,0.0,0.0
1357,60.0,80.0,30.0,0.0,0.0
1358,69.0,8.0,270.0,0.0,0.0
1359,53.0,108.0,270.0,0.0,0.0
1360,65.0,8.0,150.0,0.0,0.0
1361,62.0,156.0,120.0,0.0,0.0
1362,70.0,52.0,300.0,0.0,0.0
1363,58.0,28.0,150.0,0.0,0.0
1364,71.0,100.0,390.0,0.0,0.0
1365,53.0,172.0,60.0,0.0,0.0
1366,67.0,108.0,120.0,0.0,0.0
1367,63.0,40.0,90.0,0.0,0.0
1368,57.0,132.0,120.0,0.0,0.0
1369,72.0,176.0,240.0,0.0,0.0
1370,53.0,12.0,270.0,0.0,0.0
1371,73.0,60.0,210.0,0.0,0.0
1372,65.0,80.0,210.0,0.0,0.0
1373,74.0,0.0,270.0,0.0,0.0
1374,62.0,124.0,150.0,0.0,0.0
1375,58.0,244.0,120.0,0.0,0.0
1376,75.0,16.0,240.0,0.0,0.0
1377,53.0,28.0,240.0,0.0,0.0
1378,65.0,88.0,150.0,0.0,0.0
1379,76.0,68.0,180.0,0.0,0.0
1380,61.0,64.0,90.0,0.0,0.0
1381,58.0,116.0,120.0,0.0,0.0
1382,81.0,172.0,180.0,0.0,0.0
1383,53.0,0.0,390.0,0.0,0.0
1384,79.0,140.0,150.0,0.0,0.0
1385,65.0,112.0,300.0,0.0,0.0
1386,77.0,128.0,930.0,0.0,0.0
1387,60.0,20.0,120.0,0.0,0.0
1388,58.0,288.0,120.0,0.0,0.0
1389,53.0,52.0,270.0,0.0,0.0
1390,65.0,84.0,210.0,0.0,0.0
1391,60.0,84.0,150.0,0.0,0.0
1392,57.0,132.0,90.0,0.0,0.0
1393,51.0,8.0,120.0,0.0,0.0
1394,65.0,348.0,60.0,0.0,0.0
1395,82.0,12.0,330.0,0.0,0.0
1396,77.0,36.0,570.0,0.0,0.0
1397,70.0,236.0,330.0,0.0,0.0
1398,50.0,104.0,150.0,0.0,0.0
1399,53.0,44.0,90.0,0.0,0.0
1400,58.0,0.0,480.0,0.0,0.0
1401,53.0,28.0,180.0,0.0,0.0
1402,81.0,8.0,120.0,0.0,0.0
1403,69.0,72.0,120.0,0.0,0.0
1404,77.0,72.0,30.0,0.0,0.0
1405,65.0,216.0,180.0,0.0,0.0
1406,67.0,20.0,30.0,0.0,0.0
1407,79.0,200.0,60.0,0.0,0.0
1408,81.0,0.0,120.0,0.0,0.0
1409,75.0,12.0,120.0,0.0,0.0
1410,69.0,80.0,150.0,0.0,0.0
1411,77.0,16.0,90.0,0.0,0.0
1412,48.0,12.0,90.0,0.0,0.0
1413,53.0,116.0,90.0,0.0,0.0
1414,63.0,8.0,120.0,0.0,0.0
1415,79.0,160.0,90.0,0.0,0.0
1416,67.0,28.0,60.0,0.0,0.0
1417,57.0,60.0,210.0,0.0,0.0
1418,79.0,40.0,30.0,0.0,0.0
1419,67.0,16.0,30.0,0.0,0.0
1420,77.0,168.0,210.0,0.0,0.0
1421,65.0,140.0,60.0,0.0,0.0
1422,76.0,296.0,210.0,0.0,0.0
1423,64.0,108.0,90.0,0.0,0.0
1424,79.0,40.0,210.0,0.0,0.0
1425,74.0,52.0,300.0,0.0,0.0
1426,67.0,40.0,270.0,0.0,0.0
1427,70.0,104.0,360.0,0.0,0.0
1428,46.0,20.0,150.0,0.0,0.0
1429,53.0,12.0,90.0,0.0,0.0
1430,58.0,8.0,60.0,0.0,0.0
1431,77.0,216.0,120.0,0.0,0.0
1432,65.0,40.0,60.0,0.0,0.0
1433,53.0,108.0,300.0,0.0,0.0
1434,62.0,16.0,210.0,0.0,0.0
1435,77.0,20.0,120.0,0.0,0.0
1436,65.0,32.0,60.0,0.0,0.0
1437,70.0,4.0,90.0,0.0,0.0
1438,63.0,20.0,30.0,0.0,0.0
1439,75.0,128.0,60.0,0.0,0.0
1440,74.0,204.0,60.0,0.0,0.0
1441,62.0,24.0,30.0,0.0,0.0
1442,74.0,80.0,150.0,0.0,0.0
1443,62.0,4.0,150.0,0.0,0.0
1444,69.0,16.0,300.0,0.0,0.0
1445,51.0,4.0,120.0,0.0,0.0
1446,66.0,116.0,330.0,0.0,0.0
1447,54.0,100.0,90.0,0.0,0.0
1448,57.0,36.0,390.0,0.0,0.0
1449,60.0,20.0,60.0,0.0,0.0
1450,72.0,16.0,60.0,0.0,0.0
1451,66.0,132.0,60.0,0.0,0.0
1452,54.0,4.0,120.0,0.0,0.0
1453,62.0,4.0,90.0,0.0,0.0
1454,74.0,312.0,150.0,0.0,0.0
1455,69.0,56.0,90.0,0.0,0.0
1456,66.0,8.0,60.0,0.0,0.0
1457,75.0,192.0,60.0,0.0,0.0
1458,63.0,16.0,60.0,0.0,0.0
1459,70.0,124.0,60.0,0.0,0.0
1460,38.0,68.0,180.0,0.0,0.0
1461,70.0,20.0,90.0,0.0,0.0
1462,46.0,120.0,120.0,0.0,0.0
1463,77.0,28.0,60.0,0.0,0.0
1464,82.0,24.0,90.0,0.0,0.0
1465,53.0,96.0,90.0,0.0,0.0
1466,69.0,40.0,60.0,0.0,0.0
1467,41.0,28.0,20.0,0.0,0.0
1468,81.0,120.0,90.0,0.0,0.0
1469,58.0,4.0,270.0,0.0,0.0
1470,53.0,0.0,270.0,0.0,0.0
1471,65.0,24.0,210.0,0.0,0.0
1472,69.0,8.0,60.0,0.0,0.0
1473,81.0,68.0,90.0,0.0,0.0
1474,70.0,60.0,20.0,0.0,0.0
1475,74.0,20.0,90.0,0.0,0.0
1476,79.0,252.0,60.0,0.0,0.0
1477,67.0,24.0,30.0,0.0,0.0
1478,77.0,200.0,60.0,0.0,0.0
1479,65.0,24.0,30.0,0.0,0.0
1480,69.0,44.0,120.0,0.0,0.0
1481,36.0,8.0,90.0,0.0,0.0
1482,81.0,148.0,90.0,0.0,0.0
1483,41.0,12.0,60.0,0.0,0.0
1484,77.0,16.0,20.0,0.0,0.0
1485,75.0,20.0,20.0,0.0,0.0
1486,53.0,36.0,90.0,0.0,0.0
1487,41.0,60.0,20.0,0.0,0.0
1488,79.0,144.0,60.0,0.0,0.0
1489,67.0,12.0,60.0,0.0,0.0
1490,79.0,32.0,60.0,0.0,0.0
1491,57.0,248.0,270.0,0.0,0.0
1492,53.0,20.0,270.0,0.0,0.0
1493,67.0,80.0,90.0,0.0,0.0
1494,63.0,20.0,210.0,0.0,0.0
1495,75.0,16.0,60.0,0.0,0.0
1496,69.0,36.0,90.0,0.0,0.0
1497,77.0,12.0,60.0,0.0,0.0
1498,65.0,0.0,20.0,0.0,0.0
1499,64.0,76.0,60.0,0.0,0.0
1500,76.0,152.0,120.0,0.0,0.0
1501,67.0,8.0,210.0,0.0,0.0
1502,34.0,80.0,90.0,0.0,0.0
1503,79.0,12.0,90.0,0.0,0.0
1504,41.0,8.0,60.0,0.0,0.0
1505,70.0,16.0,60.0,0.0,0.0
1506,74.0,124.0,90.0,0.0,0.0
1507,53.0,112.0,60.0,0.0,0.0
1508,41.0,12.0,60.0,0.0,0.0
1509,77.0,160.0,60.0,0.0,0.0
1510,65.0,0.0,60.0,0.0,0.0
1511,50.0,164.0,390.0,0.0,0.0
1512,58.0,64.0,330.0,0.0,0.0
1513,65.0,76.0,90.0,0.0,0.0
1514,77.0,24.0,60.0,0.0,0.0
1515,53.0,0.0,270.0,0.0,0.0
1516,70.0,92.0,90.0,0.0,0.0
1517,75.0,4.0,60.0,0.0,0.0
1518,63.0,60.0,60.0,0.0,0.0
1519,74.0,228.0,90.0,0.0,0.0
1520,62.0,12.0,60.0,0.0,0.0
1521,74.0,32.0,150.0,0.0,0.0
1522,62.0,104.0,150.0,0.0,0.0
1523,39.0,12.0,240.0,0.0,0.0
1524,69.0,56.0,270.0,0.0,0.0
1525,45.0,36.0,150.0,0.0,0.0
1526,66.0,4.0,270.0,0.0,0.0
1527,48.0,88.0,20.0,0.0,0.0
1528,72.0,104.0,60.0,0.0,0.0
1529,60.0,28.0,30.0,0.0,0.0
1530,51.0,80.0,150.0,0.0,0.0
1531,54.0,128.0,150.0,0.0,0.0
1532,74.0,20.0,150.0,0.0,0.0
1533,62.0,48.0,90.0,0.0,0.0
1534,69.0,12.0,210.0,0.0,0.0
1535,57.0,8.0,150.0,0.0,0.0
1536,66.0,64.0,150.0,0.0,0.0
1537,60.0,120.0,90.0,0.0,0.0
1538,75.0,520.0,60.0,0.0,0.0
1539,63.0,12.0,60.0,0.0,0.0
1540,66.0,16.0,30.0,0.0,0.0
1541,77.0,20.0,300.0,0.0,0.0
1542,65.0,12.0,330.0,0.0,0.0
1543,71.0,4.0,330.0,0.0,0.0
1544,68.0,0.0,300.0,0.0,0.0
1545,50.0,596.0,330.0,0.0,0.0
1546,56.0,0.0,330.0,0.0,0.0
1547,59.0,4.0,330.0,0.0,0.0
1548,65.0,108.0,750.0,0.0,0.0
1549,59.0,48.0,660.0,0.0,0.0
1550,56.0,36.0,720.0,0.0,0.0
1551,50.0,164.0,240.0,0.0,0.0
1552,49.0,116.0,120.0,0.0,0.0
1553,50.0,132.0,120.0,0.0,0.0
1554,53.0,4.0,120.0,0.0,0.0
1555,51.0,196.0,150.0,0.0,0.0
1556,60.0,40.0,510.0,0.0,0.0
1557,56.0,12.0,600.0,0.0,0.0
1558,47.0,136.0,150.0,0.0,0.0
1559,48.0,212.0,150.0,0.0,0.0
1560,51.0,40.0,210.0,0.0,0.0
1561,50.0,412.0,60.0,0.0,0.0
1562,55.0,36.0,210.0,0.0,0.0
1563,47.0,40.0,210.0,0.0,0.0
1564,35.0,0.0,180.0,0.0,0.0
1565,62.0,32.0,120.0,0.0,0.0
1566,65.0,164.0,30.0,0.0,0.0
1567,67.0,208.0,60.0,0.0,0.0
1568,81.0,24.0,120.0,0.0,0.0
1569,59.0,4.0,150.0,0.0,0.0
1570,55.0,68.0,150.0,0.0,0.0
1571,65.0,16.0,90.0,0.0,0.0
1572,79.0,152.0,60.0,0.0,0.0
1573,86.0,8.0,90.0,0.0,0.0
1574,78.0,92.0,90.0,0.0,0.0
1575,77.0,216.0,60.0,0.0,0.0
1576,86.0,48.0,180.0,0.0,0.0
1577,76.0,20.0,150.0,0.0,0.0
1578,48.0,12.0,210.0,0.0,0.0
1579,36.0,8.0,150.0,0.0,0.0
1580,77.0,88.0,120.0,0.0,0.0
1581,84.0,8.0,60.0,0.0,0.0
1582,79.0,116.0,60.0,0.0,0.0
1583,70.0,228.0,60.0,0.0,0.0
1584,76.0,12.0,120.0,0.0,0.0
1585,55.0,52.0,150.0,0.0,0.0
1586,60.0,8.0,120.0,0.0,0.0
1587,64.0,24.0,120.0,0.0,0.0
1588,74.0,128.0,90.0,0.0,0.0
1589,79.0,0.0,90.0,0.0,0.0
1590,72.0,92.0,90.0,0.0,0.0
1591,70.0,168.0,60.0,0.0,0.0
1592,79.0,0.0,120.0,0.0,0.0
1593,68.0,40.0,60.0,0.0,0.0
1594,41.0,76.0,150.0,0.0,0.0
1595,29.0,44.0,90.0,0.0,0.0
1596,69.0,124.0,90.0,0.0,0.0
1597,77.0,208.0,180.0,0.0,0.0
1598,63.0,80.0,60.0,0.0,0.0
1599,72.0,8.0,30.0,0.0,0.0
1600,79.0,28.0,120.0,0.0,0.0
1601,63.0,4.0,90.0,0.0,0.0
1602,53.0,16.0,120.0,0.0,0.0
1603,57.0,48.0,120.0,0.0,0.0
1604,77.0,156.0,90.0,0.0,0.0
1605,84.0,92.0,120.0,0.0,0.0
1606,76.0,4.0,90.0,0.0,0.0
1607,75.0,184.0,90.0,0.0,0.0
1608,84.0,28.0,150.0,0.0,0.0
1609,74.0,8.0,120.0,0.0,0.0
1610,46.0,60.0,180.0,0.0,0.0
1611,34.0,40.0,120.0,0.0,0.0
1612,75.0,76.0,120.0,0.0,0.0
1613,77.0,136.0,60.0,0.0,0.0
1614,82.0,4.0,60.0,0.0,0.0
1615,68.0,204.0,60.0,0.0,0.0
1616,74.0,36.0,120.0,0.0,0.0
1617,62.0,4.0,150.0,0.0,0.0
1618,53.0,60.0,150.0,0.0,0.0
1619,56.0,8.0,120.0,0.0,0.0
1620,72.0,144.0,90.0,0.0,0.0
1621,74.0,112.0,120.0,0.0,0.0
1622,70.0,24.0,60.0,0.0,0.0
1623,68.0,212.0,90.0,0.0,0.0
1624,39.0,4.0,240.0,0.0,0.0
1625,74.0,36.0,300.0,0.0,0.0
1626,66.0,128.0,90.0,0.0,0.0
1627,67.0,56.0,90.0,0.0,0.0
1628,71.0,96.0,60.0,0.0,0.0
1629,51.0,44.0,150.0,0.0,0.0
1630,72.0,160.0,90.0,0.0,0.0
1631,51.0,68.0,1320.0,0.0,0.0
1632,55.0,16.0,990.0,0.0,0.0
1633,81.0,140.0,90.0,0.0,0.0
1634,79.0,92.0,120.0,0.0,0.0
1635,75.0,80.0,90.0,0.0,0.0
1636,59.0,96.0,150.0,0.0,0.0
1637,74.0,156.0,120.0,0.0,0.0
1638,72.0,44.0,150.0,0.0,0.0
1639,60.0,48.0,150.0,0.0,0.0
1640,70.0,88.0,90.0,0.0,0.0
1641,67.0,124.0,60.0,0.0,0.0
1642,63.0,196.0,60.0,0.0,0.0
1643,60.0,116.0,120.0,0.0,0.0
1644,58.0,16.0,120.0,0.0,0.0
1645,55.0,140.0,60.0,0.0,0.0
1646,70.0,460.0,60.0,0.0,0.0
1647,51.0,0.0,330.0,0.0,0.0
1648,39.0,424.0,510.0,0.0,0.0
1649,55.0,4.0,330.0,0.0,0.0
1650,58.0,32.0,300.0,0.0,0.0
1651,60.0,184.0,330.0,0.0,0.0
1652,62.0,4.0,360.0,0.0,0.0
1653,59.0,152.0,360.0,0.0,0.0
1654,53.0,32.0,330.0,0.0,0.0
1655,55.0,8.0,300.0,0.0,0.0
1656,38.0,340.0,480.0,0.0,0.0
1657,63.0,28.0,360.0,0.0,0.0
1658,51.0,48.0,360.0,0.0,0.0
1659,55.0,44.0,270.0,0.0,0.0
1660,36.0,476.0,420.0,0.0,0.0
1661,60.0,32.0,390.0,0.0,0.0
1662,51.0,48.0,420.0,0.0,0.0
1663,57.0,148.0,480.0,0.0,0.0
1664,62.0,16.0,450.0,0.0,0.0
1665,41.0,76.0,330.0,0.0,0.0
1666,60.0,264.0,90.0,0.0,0.0
1667,50.0,28.0,150.0,0.0,0.0
1668,42.0,76.0,180.0,0.0,0.0
1669,30.0,36.0,150.0,0.0,0.0
1670,57.0,32.0,150.0,0.0,0.0
1671,60.0,132.0,30.0,0.0,0.0
1672,62.0,232.0,30.0,0.0,0.0
1673,50.0,84.0,180.0,0.0,0.0
1674,60.0,20.0,120.0,0.0,0.0
1675,57.0,24.0,150.0,0.0,0.0
1676,76.0,8.0,90.0,0.0,0.0
1677,74.0,140.0,90.0,0.0,0.0
1678,81.0,108.0,90.0,0.0,0.0
1679,72.0,184.0,60.0,0.0,0.0
1680,81.0,56.0,150.0,0.0,0.0
1681,71.0,12.0,120.0,0.0,0.0
1682,43.0,76.0,210.0,0.0,0.0
1683,31.0,36.0,150.0,0.0,0.0
1684,72.0,12.0,90.0,0.0,0.0
1685,79.0,16.0,60.0,0.0,0.0
1686,74.0,124.0,60.0,0.0,0.0
1687,65.0,180.0,60.0,0.0,0.0
1688,71.0,32.0,120.0,0.0,0.0
1689,55.0,56.0,120.0,0.0,0.0
1690,59.0,12.0,120.0,0.0,0.0
1691,69.0,120.0,90.0,0.0,0.0
1692,74.0,72.0,90.0,0.0,0.0
1693,67.0,24.0,60.0,0.0,0.0
1694,65.0,240.0,30.0,0.0,0.0
1695,74.0,60.0,150.0,0.0,0.0
1696,63.0,0.0,120.0,0.0,0.0
1697,36.0,56.0,180.0,0.0,0.0
1698,24.0,0.0,90.0,0.0,0.0
1699,64.0,100.0,90.0,0.0,0.0
1700,72.0,32.0,150.0,0.0,0.0
1701,58.0,72.0,60.0,0.0,0.0
1702,67.0,184.0,60.0,0.0,0.0
1703,74.0,24.0,90.0,0.0,0.0
1704,52.0,24.0,150.0,0.0,0.0
1705,58.0,56.0,90.0,0.0,0.0
1706,48.0,0.0,150.0,0.0,0.0
1707,72.0,160.0,90.0,0.0,0.0
1708,79.0,108.0,120.0,0.0,0.0
1709,71.0,8.0,90.0,0.0,0.0
1710,70.0,200.0,90.0,0.0,0.0
1711,79.0,8.0,150.0,0.0,0.0
1712,69.0,28.0,120.0,0.0,0.0
1713,29.0,44.0,150.0,0.0,0.0
1714,41.0,36.0,180.0,0.0,0.0
1715,70.0,124.0,120.0,0.0,0.0
1716,72.0,124.0,90.0,0.0,0.0
1717,77.0,16.0,60.0,0.0,0.0
1718,63.0,132.0,90.0,0.0,0.0
1719,57.0,0.0,360.0,0.0,0.0
1720,53.0,8.0,330.0,0.0,0.0
1721,69.0,168.0,60.0,0.0,0.0
1722,67.0,96.0,120.0,0.0,0.0
1723,72.0,80.0,120.0,0.0,0.0
1724,65.0,28.0,60.0,0.0,0.0
1725,63.0,192.0,60.0,0.0,0.0
1726,72.0,148.0,90.0,0.0,0.0
1727,62.0,12.0,480.0,0.0,0.0
1728,56.0,4.0,210.0,0.0,0.0
1729,46.0,72.0,630.0,0.0,0.0
1730,71.0,116.0,120.0,0.0,0.0
1731,70.0,4.0,90.0,0.0,0.0
1732,55.0,112.0,90.0,0.0,0.0
1733,54.0,12.0,90.0,0.0,0.0
1734,69.0,120.0,90.0,0.0,0.0
1735,53.0,12.0,120.0,0.0,0.0
1736,68.0,32.0,90.0,0.0,0.0
1737,67.0,92.0,120.0,0.0,0.0
1738,61.0,44.0,60.0,0.0,0.0
1739,52.0,4.0,210.0,0.0,0.0
1740,65.0,44.0,60.0,0.0,0.0
1741,56.0,92.0,120.0,0.0,0.0
1742,64.0,72.0,90.0,0.0,0.0
1743,55.0,136.0,150.0,0.0,0.0
1744,73.0,40.0,120.0,0.0,0.0
1745,64.0,8.0,330.0,0.0,0.0
1746,58.0,88.0,150.0,0.0,0.0
1747,48.0,20.0,450.0,0.0,0.0
1748,72.0,4.0,90.0,0.0,0.0
1749,57.0,84.0,90.0,0.0,0.0
1750,71.0,64.0,60.0,0.0,0.0
1751,56.0,68.0,120.0,0.0,0.0
1752,70.0,108.0,150.0,0.0,0.0
1753,54.0,32.0,90.0,0.0,0.0
1754,69.0,48.0,150.0,0.0,0.0
1755,63.0,28.0,90.0,0.0,0.0
1756,48.0,64.0,150.0,0.0,0.0
1757,54.0,16.0,60.0,0.0,0.0
1758,67.0,220.0,120.0,0.0,0.0
1759,58.0,12.0,120.0,0.0,0.0
1760,57.0,156.0,240.0,0.0,0.0
1761,66.0,16.0,510.0,0.0,0.0
1762,69.0,28.0,90.0,0.0,0.0
1763,60.0,0.0,270.0,0.0,0.0
1764,50.0,32.0,450.0,0.0,0.0
1765,75.0,108.0,90.0,0.0,0.0
1766,59.0,8.0,90.0,0.0,0.0
1767,74.0,112.0,90.0,0.0,0.0
1768,58.0,12.0,90.0,0.0,0.0
1769,73.0,100.0,90.0,0.0,0.0
1770,57.0,24.0,120.0,0.0,0.0
1771,72.0,152.0,120.0,0.0,0.0
1772,70.0,144.0,120.0,0.0,0.0
1773,62.0,268.0,450.0,0.0,0.0
1774,67.0,4.0,360.0,0.0,0.0
1775,55.0,32.0,300.0,0.0,0.0
1776,69.0,80.0,120.0,0.0,0.0
1777,72.0,52.0,90.0,0.0,0.0
1778,70.0,4.0,30.0,0.0,0.0
1779,49.0,8.0,360.0,0.0,0.0
1780,55.0,16.0,660.0,0.0,0.0
1781,58.0,36.0,750.0,0.0,0.0
1782,79.0,116.0,150.0,0.0,0.0
1783,70.0,56.0,90.0,0.0,0.0
1784,64.0,64.0,600.0,0.0,0.0
1785,78.0,116.0,120.0,0.0,0.0
1786,69.0,52.0,60.0,0.0,0.0
1787,70.0,144.0,60.0,0.0,0.0
1788,79.0,0.0,60.0,0.0,0.0
1789,80.0,12.0,90.0,0.0,0.0
1790,71.0,28.0,60.0,0.0,0.0
1791,81.0,128.0,150.0,0.0,0.0
1792,72.0,96.0,30.0,0.0,0.0
1793,64.0,260.0,240.0,0.0,0.0
1794,55.0,0.0,150.0,0.0,0.0
1795,82.0,48.0,120.0,0.0,0.0
1796,73.0,48.0,60.0,0.0,0.0
1797,82.0,104.0,210.0,0.0,0.0
1798,74.0,8.0,180.0,0.0,0.0
1799,65.0,40.0,120.0,0.0,0.0
1800,53.0,32.0,90.0,0.0,0.0
1801,81.0,12.0,150.0,0.0,0.0
1802,75.0,96.0,20.0,0.0,0.0
1803,72.0,84.0,120.0,0.0,0.0
1804,79.0,32.0,120.0,0.0,0.0
1805,74.0,76.0,30.0,0.0,0.0
1806,70.0,88.0,120.0,0.0,0.0
1807,81.0,20.0,150.0,0.0,0.0
1808,75.0,72.0,30.0,0.0,0.0
1809,72.0,100.0,120.0,0.0,0.0
1810,79.0,12.0,120.0,0.0,0.0
1811,74.0,64.0,60.0,0.0,0.0
1812,70.0,100.0,120.0,0.0,0.0
1813,81.0,44.0,150.0,0.0,0.0
1814,69.0,64.0,180.0,0.0,0.0
1815,72.0,68.0,60.0,0.0,0.0
1816,82.0,28.0,60.0,0.0,0.0
1817,67.0,32.0,60.0,0.0,0.0
1818,70.0,212.0,90.0,0.0,0.0
1819,77.0,24.0,180.0,0.0,0.0
1820,69.0,88.0,180.0,0.0,0.0
1821,72.0,52.0,90.0,0.0,0.0
1822,75.0,20.0,90.0,0.0,0.0
1823,70.0,36.0,90.0,0.0,0.0
1824,67.0,124.0,120.0,0.0,0.0
1825,77.0,8.0,150.0,0.0,0.0
1826,69.0,96.0,60.0,0.0,0.0
1827,65.0,108.0,150.0,0.0,0.0
1828,79.0,4.0,90.0,0.0,0.0
1829,67.0,104.0,60.0,0.0,0.0
1830,63.0,200.0,150.0,0.0,0.0
1831,74.0,8.0,210.0,0.0,0.0
1832,69.0,32.0,150.0,0.0,0.0
1833,65.0,80.0,180.0,0.0,0.0
1834,72.0,72.0,120.0,0.0,0.0
1835,67.0,44.0,60.0,0.0,0.0
1836,63.0,12.0,60.0,0.0,0.0
1837,63.0,184.0,90.0,0.0,0.0
1838,74.0,104.0,180.0,0.0,0.0
1839,65.0,4.0,90.0,0.0,0.0
1840,55.0,132.0,270.0,0.0,0.0
1841,71.0,68.0,90.0,0.0,0.0
1842,75.0,176.0,150.0,0.0,0.0
1843,63.0,76.0,540.0,0.0,0.0
1844,72.0,52.0,90.0,0.0,0.0
1845,60.0,152.0,330.0,0.0,0.0
1846,69.0,52.0,270.0,0.0,0.0
1847,65.0,296.0,300.0,0.0,0.0
1848,53.0,60.0,120.0,0.0,0.0
1849,70.0,12.0,210.0,0.0,0.0
1850,62.0,4.0,210.0,0.0,0.0
1851,34.0,84.0,210.0,0.0,0.0
1852,41.0,64.0,120.0,0.0,0.0
1853,46.0,464.0,30.0,0.0,0.0
1854,53.0,84.0,390.0,0.0,0.0
1855,58.0,36.0,150.0,0.0,0.0
1856,62.0,12.0,150.0,0.0,0.0
1857,63.0,168.0,120.0,0.0,0.0
1858,65.0,164.0,120.0,0.0,0.0
1859,70.0,240.0,150.0,0.0,0.0
1860,67.0,104.0,810.0,0.0,0.0
1861,46.0,76.0,180.0,0.0,0.0
1862,53.0,164.0,90.0,0.0,0.0
1863,58.0,168.0,120.0,0.0,0.0
1864,60.0,124.0,150.0,0.0,0.0
1865,62.0,60.0,90.0,0.0,0.0
1866,63.0,128.0,120.0,0.0,0.0
1867,65.0,220.0,120.0,0.0,0.0
1868,74.0,284.0,180.0,0.0,0.0
1869,72.0,12.0,480.0,0.0,0.0
1870,43.0,76.0,210.0,0.0,0.0
1871,50.0,180.0,120.0,0.0,0.0
1872,55.0,108.0,150.0,0.0,0.0
1873,57.0,160.0,150.0,0.0,0.0
1874,58.0,88.0,150.0,0.0,0.0
1875,60.0,248.0,60.0,0.0,0.0
1876,62.0,168.0,150.0,0.0,0.0
1877,70.0,376.0,150.0,0.0,0.0
1878,69.0,44.0,930.0,0.0,0.0
1879,64.0,276.0,960.0,0.0,0.0
1880,36.0,28.0,270.0,0.0,0.0
1881,43.0,104.0,120.0,0.0,0.0
1882,48.0,496.0,90.0,0.0,0.0
1883,55.0,100.0,750.0,0.0,0.0
1884,58.0,36.0,600.0,0.0,0.0
1885,60.0,4.0,390.0,0.0,0.0
1886,69.0,12.0,210.0,0.0,0.0
1887,64.0,100.0,360.0,0.0,0.0
1888,70.0,8.0,120.0,0.0,0.0
1889,67.0,480.0,90.0,0.0,0.0
1890,41.0,16.0,360.0,0.0,0.0
1891,67.0,36.0,780.0,0.0,0.0
1892,63.0,108.0,510.0,0.0,0.0
1893,48.0,172.0,90.0,0.0,0.0
1894,53.0,48.0,120.0,0.0,0.0
1895,55.0,144.0,150.0,0.0,0.0
1896,57.0,300.0,180.0,0.0,0.0
1897,63.0,24.0,810.0,0.0,0.0
1898,65.0,124.0,180.0,0.0,0.0
1899,70.0,216.0,180.0,0.0,0.0
1900,69.0,0.0,600.0,0.0,0.0
1901,41.0,68.0,210.0,0.0,0.0
1902,48.0,56.0,90.0,0.0,0.0
1903,53.0,248.0,60.0,0.0,0.0
1904,58.0,220.0,180.0,0.0,0.0
1905,63.0,56.0,1020.0,0.0,0.0
1906,60.0,264.0,180.0,0.0,0.0
1907,65.0,384.0,420.0,0.0,0.0
1908,70.0,100.0,120.0,0.0,0.0
1909,74.0,48.0,90.0,0.0,0.0
1910,72.0,136.0,600.0,0.0,0.0
1911,69.0,0.0,300.0,0.0,0.0
1912,41.0,16.0,240.0,0.0,0.0
1913,48.0,20.0,120.0,0.0,0.0
1914,53.0,216.0,60.0,0.0,0.0
1915,60.0,232.0,630.0,0.0,0.0
1916,63.0,156.0,120.0,0.0,0.0
1917,69.0,208.0,120.0,0.0,0.0
1918,79.0,20.0,150.0,0.0,0.0
1919,53.0,316.0,1500.0,0.0,0.0
1920,79.0,284.0,90.0,0.0,0.0
1921,79.0,92.0,150.0,0.0,0.0
1922,69.0,252.0,540.0,0.0,0.0
1923,63.0,132.0,240.0,0.0,0.0
1924,77.0,84.0,150.0,0.0,0.0
1925,62.0,16.0,150.0,0.0,0.0
1926,60.0,256.0,480.0,0.0,0.0
1927,75.0,52.0,30.0,0.0,0.0
1928,75.0,16.0,210.0,0.0,0.0
1929,67.0,96.0,90.0,0.0,0.0
1930,74.0,4.0,240.0,0.0,0.0
1931,65.0,12.0,210.0,0.0,0.0
1932,73.0,356.0,90.0,0.0,0.0
1933,64.0,40.0,60.0,0.0,0.0
1934,67.0,8.0,270.0,0.0,0.0
1935,75.0,8.0,270.0,0.0,0.0
1936,46.0,32.0,240.0,0.0,0.0
1937,70.0,108.0,360.0,0.0,64.0
1938,53.0,64.0,120.0,0.0,0.0
1939,74.0,24.0,180.0,0.0,0.0
1940,58.0,52.0,120.0,0.0,0.0
1941,65.0,56.0,180.0,0.0,0.0
1942,60.0,116.0,120.0,0.0,0.0
1943,62.0,160.0,90.0,0.0,0.0
1944,63.0,160.0,120.0,0.0,0.0
1945,65.0,116.0,120.0,0.0,0.0
1946,70.0,212.0,120.0,0.0,0.0
1947,41.0,44.0,90.0,0.0,0.0
1948,67.0,112.0,780.0,0.0,0.0
1949,41.0,84.0,150.0,0.0,0.0
1950,53.0,172.0,60.0,0.0,0.0
1951,58.0,156.0,90.0,0.0,0.0
1952,60.0,120.0,120.0,0.0,0.0
1953,62.0,92.0,90.0,0.0,0.0
1954,63.0,92.0,150.0,0.0,0.0
1955,65.0,180.0,90.0,0.0,0.0
1956,74.0,240.0,150.0,0.0,0.0
1957,72.0,8.0,450.0,0.0,0.0
1958,43.0,76.0,180.0,0.0,0.0
1959,50.0,184.0,120.0,0.0,0.0
1960,55.0,80.0,150.0,0.0,0.0
1961,57.0,160.0,120.0,0.0,0.0
1962,58.0,76.0,120.0,0.0,0.0
1963,60.0,256.0,60.0,0.0,0.0
1964,62.0,96.0,180.0,0.0,0.0
1965,70.0,352.0,120.0,0.0,0.0
1966,36.0,24.0,60.0,0.0,0.0
1967,69.0,0.0,840.0,0.0,0.0
1968,58.0,48.0,270.0,0.0,0.0
1969,64.0,88.0,810.0,0.0,0.0
1970,36.0,20.0,210.0,0.0,0.0
1971,43.0,60.0,120.0,0.0,0.0
1972,48.0,368.0,30.0,0.0,0.0
1973,55.0,4.0,450.0,0.0,0.0
1974,58.0,96.0,120.0,0.0,0.0
1975,60.0,228.0,150.0,0.0,0.0
1976,69.0,0.0,210.0,0.0,0.0
1977,64.0,112.0,180.0,0.0,0.0
1978,70.0,144.0,90.0,0.0,0.0
1979,69.0,108.0,90.0,0.0,0.0
1980,67.0,172.0,90.0,0.0,0.0
1981,69.0,240.0,150.0,0.0,0.0
1982,72.0,100.0,210.0,0.0,0.0
1983,70.0,260.0,90.0,0.0,0.0
1984,67.0,420.0,90.0,0.0,0.0
1985,58.0,4.0,90.0,0.0,0.0
1986,41.0,32.0,300.0,0.0,0.0
1987,67.0,164.0,900.0,0.0,0.0
1988,58.0,24.0,210.0,0.0,0.0
1989,63.0,76.0,330.0,0.0,0.0
1990,48.0,80.0,90.0,0.0,0.0
1991,53.0,148.0,120.0,0.0,0.0
1992,55.0,212.0,120.0,0.0,0.0
1993,57.0,108.0,180.0,0.0,0.0
1994,63.0,0.0,720.0,0.0,0.0
1995,65.0,108.0,180.0,0.0,0.0
1996,70.0,100.0,150.0,0.0,0.0
1997,69.0,236.0,600.0,0.0,0.0
1998,41.0,60.0,210.0,0.0,0.0
1999,65.0,144.0,60.0,0.0,0.0
2000,48.0,92.0,120.0,0.0,0.0
2001,53.0,232.0,60.0,0.0,0.0
2002,58.0,4.0,150.0,0.0,0.0
2003,63.0,240.0,600.0,0.0,0.0
2004,60.0,228.0,210.0,0.0,0.0
2005,65.0,4.0,420.0,0.0,0.0
2006,70.0,124.0,120.0,0.0,0.0
2007,74.0,32.0,90.0,0.0,0.0
2008,72.0,8.0,330.0,0.0,0.0
2009,63.0,8.0,270.0,0.0,0.0
2010,69.0,12.0,330.0,0.0,0.0
2011,65.0,104.0,150.0,0.0,0.0
2012,41.0,12.0,210.0,0.0,0.0
2013,48.0,44.0,90.0,0.0,0.0
2014,53.0,168.0,60.0,0.0,0.0
2015,60.0,224.0,60.0,0.0,0.0
2016,63.0,132.0,120.0,0.0,0.0
2017,69.0,116.0,120.0,0.0,0.0
2018,77.0,268.0,90.0,0.0,0.0
2019,78.0,92.0,360.0,0.0,0.0
2020,29.0,40.0,150.0,0.0,0.0
2021,41.0,136.0,30.0,0.0,0.0
2022,76.0,36.0,300.0,0.0,0.0
2023,69.0,32.0,90.0,0.0,0.0
2024,48.0,60.0,150.0,0.0,0.0
2025,79.0,20.0,330.0,0.0,0.0
2026,53.0,252.0,60.0,0.0,0.0
2027,60.0,104.0,180.0,0.0,0.0
2028,80.0,68.0,120.0,0.0,0.0
2029,65.0,84.0,180.0,0.0,0.0
2030,81.0,220.0,120.0,0.0,0.0
2031,72.0,28.0,90.0,0.0,0.0
2032,86.0,180.0,120.0,0.0,0.0
2033,77.0,28.0,90.0,0.0,0.0
2034,84.0,504.0,90.0,0.0,0.0
2035,75.0,40.0,30.0,0.0,0.0
2036,74.0,48.0,750.0,0.0,0.0
2037,34.0,32.0,360.0,0.0,0.0
2038,82.0,4.0,390.0,0.0,0.0
2039,41.0,44.0,120.0,0.0,0.0
2040,46.0,260.0,30.0,0.0,0.0
2041,82.0,360.0,210.0,0.0,0.0
2042,53.0,32.0,120.0,0.0,0.0
2043,56.0,4.0,480.0,0.0,0.0
2044,62.0,48.0,300.0,0.0,0.0
2045,65.0,768.0,210.0,0.0,0.0
2046,74.0,88.0,960.0,0.0,0.0
2047,68.0,88.0,1020.0,0.0,0.0
2048,79.0,128.0,210.0,0.0,0.0
2049,77.0,424.0,90.0,0.0,0.0
2050,76.0,156.0,540.0,0.0,0.0
2051,73.0,36.0,330.0,0.0,0.0
2052,67.0,20.0,900.0,0.0,0.0
2053,34.0,28.0,300.0,0.0,0.0
2054,43.0,44.0,120.0,0.0,0.0
2055,46.0,116.0,30.0,0.0,0.0
2056,49.0,116.0,150.0,0.0,0.0
2057,72.0,4.0,390.0,0.0,0.0
2058,52.0,108.0,120.0,0.0,0.0
2059,55.0,112.0,120.0,0.0,0.0
2060,70.0,16.0,90.0,0.0,0.0
2061,61.0,460.0,90.0,0.0,0.0
2062,75.0,4.0,540.0,0.0,0.0
2063,69.0,296.0,540.0,0.0,0.0
2064,66.0,104.0,420.0,0.0,0.0
2065,60.0,88.0,330.0,0.0,0.0
2066,74.0,32.0,240.0,0.0,0.0
2067,65.0,304.0,240.0,0.0,0.0
2068,72.0,384.0,120.0,0.0,0.0
2069,63.0,60.0,60.0,0.0,0.0
2070,62.0,164.0,540.0,0.0,0.0
2071,70.0,100.0,300.0,0.0,0.0
2072,34.0,12.0,360.0,0.0,0.0
2073,41.0,44.0,120.0,0.0,0.0
2074,69.0,28.0,210.0,0.0,0.0
2075,46.0,52.0,30.0,0.0,0.0
2076,68.0,12.0,240.0,0.0,0.0
2077,53.0,116.0,120.0,0.0,0.0
2078,56.0,156.0,120.0,0.0,0.0
2079,67.0,80.0,330.0,0.0,0.0
2080,57.0,152.0,120.0,0.0,0.0
2081,58.0,52.0,150.0,0.0,0.0
2082,59.0,136.0,120.0,0.0,0.0
2083,65.0,212.0,360.0,0.0,0.0
2084,56.0,120.0,120.0,0.0,0.0
2085,53.0,8.0,90.0,0.0,0.0
2086,50.0,68.0,180.0,0.0,0.0
2087,67.0,100.0,420.0,0.0,0.0
2088,47.0,172.0,90.0,0.0,0.0
2089,56.0,24.0,510.0,0.0,0.0
2090,46.0,148.0,120.0,0.0,0.0
2091,41.0,8.0,120.0,0.0,0.0
2092,65.0,8.0,90.0,0.0,0.0
2093,35.0,384.0,90.0,0.0,0.0
2094,65.0,32.0,270.0,0.0,0.0
2095,55.0,48.0,840.0,0.0,0.0
2096,61.0,100.0,300.0,0.0,0.0
2097,34.0,48.0,390.0,0.0,0.0
2098,64.0,40.0,270.0,0.0,0.0
2099,43.0,152.0,120.0,0.0,0.0
2100,46.0,104.0,180.0,0.0,0.0
2101,47.0,84.0,120.0,0.0,0.0
2102,60.0,44.0,510.0,0.0,0.0
2103,48.0,124.0,120.0,0.0,0.0
2104,49.0,116.0,90.0,0.0,0.0
2105,58.0,16.0,90.0,0.0,0.0
2106,55.0,744.0,90.0,0.0,0.0
2107,63.0,408.0,630.0,0.0,0.0
2108,54.0,44.0,1170.0,0.0,0.0
2109,57.0,48.0,1110.0,0.0,0.0
2110,62.0,84.0,390.0,0.0,0.0
2111,60.0,388.0,120.0,0.0,0.0
2112,62.0,68.0,330.0,0.0,0.0
2113,53.0,668.0,750.0,0.0,0.0
2114,58.0,244.0,390.0,0.0,0.0
2115,46.0,116.0,630.0,0.0,0.0
2116,62.0,16.0,1560.0,0.0,0.0
2117,55.0,92.0,570.0,0.0,0.0
2118,39.0,132.0,240.0,0.0,0.0
2119,38.0,140.0,90.0,0.0,0.0
2120,39.0,44.0,120.0,0.0,0.0
2121,60.0,96.0,420.0,0.0,0.0
2122,41.0,156.0,90.0,0.0,0.0
2123,39.0,128.0,120.0,0.0,0.0
2124,46.0,32.0,120.0,0.0,0.0
2125,39.0,384.0,90.0,0.0,0.0
2126,58.0,128.0,810.0,0.0,0.0
2127,62.0,352.0,300.0,0.0,0.0
2128,53.0,0.0,750.0,0.0,0.0
2129,34.0,740.0,750.0,0.0,0.0
2130,62.0,32.0,1170.0,0.0,0.0
2131,55.0,124.0,570.0,0.0,0.0
2132,27.0,116.0,270.0,0.0,0.0
2133,26.0,160.0,90.0,0.0,0.0
2134,27.0,0.0,120.0,0.0,0.0
2135,60.0,40.0,450.0,0.0,0.0
2136,29.0,160.0,120.0,0.0,0.0
2137,27.0,180.0,150.0,0.0,0.0
2138,34.0,84.0,210.0,0.0,0.0
2139,58.0,968.0,270.0,0.0,0.0
2140,27.0,152.0,90.0,0.0,0.0
2141,60.0,12.0,930.0,0.0,0.0
2142,51.0,100.0,810.0,0.0,0.0
2143,29.0,4.0,870.0,0.0,0.0
2144,58.0,236.0,900.0,0.0,0.0
2145,57.0,524.0,1230.0,0.0,0.0
2146,30.0,88.0,90.0,0.0,0.0
2147,31.0,132.0,90.0,0.0,0.0
2148,30.0,84.0,90.0,0.0,0.0
2149,31.0,148.0,60.0,0.0,0.0
2150,30.0,72.0,120.0,0.0,0.0
2151,50.0,664.0,2130.0,0.0,0.0
2152,31.0,112.0,30.0,0.0,0.0
2153,30.0,52.0,90.0,0.0,0.0
2154,31.0,148.0,30.0,0.0,0.0
2155,30.0,92.0,120.0,0.0,0.0
2156,29.0,156.0,60.0,0.0,0.0
2157,30.0,32.0,150.0,0.0,0.0
2158,58.0,660.0,540.0,0.0,0.0
2159,31.0,196.0,1170.0,0.0,0.0
2160,55.0,116.0,870.0,0.0,0.0
2161,57.0,108.0,1530.0,0.0,0.0
2162,38.0,208.0,1620.0,0.0,0.0
2163,45.0,216.0,780.0,0.0,0.0
2164,53.0,252.0,510.0,0.0,0.0
2165,52.0,180.0,1050.0,0.0,0.0
2166,45.0,276.0,270.0,0.0,0.0
2167,57.0,284.0,1740.0,0.0,0.0
2168,45.0,156.0,180.0,0.0,0.0
2169,37.0,0.0,540.0,0.0,0.0
2170,44.0,120.0,90.0,0.0,0.0
2171,45.0,100.0,90.0,0.0,0.0
2172,46.0,124.0,90.0,0.0,0.0
2173,45.0,116.0,120.0,0.0,0.0
2174,52.0,292.0,90.0,0.0,0.0
2175,40.0,140.0,270.0,0.0,0.0
2176,50.0,420.0,240.0,0.0,0.0
2177,55.0,0.0,660.0,0.0,0.0
2178,33.0,52.0,420.0,0.0,0.0
2179,49.0,8.0,150.0,0.0,0.0
2180,53.0,504.0,60.0,0.0,0.0
2181,61.0,128.0,510.0,0.0,0.0
2182,52.0,64.0,450.0,0.0,0.0
2183,53.0,104.0,120.0,0.0,0.0
2184,62.0,52.0,420.0,0.0,0.0
2185,52.0,104.0,90.0,0.0,0.0
2186,50.0,88.0,90.0,0.0,0.0
2187,65.0,392.0,90.0,0.0,0.0
2188,46.0,20.0,90.0,0.0,0.0
2189,65.0,484.0,870.0,0.0,0.0
2190,58.0,336.0,300.0,0.0,0.0
2191,55.0,112.0,630.0,0.0,0.0
2192,37.0,96.0,720.0,0.0,0.0
2193,58.0,104.0,810.0,0.0,0.0
2194,64.0,28.0,240.0,0.0,0.0
2195,49.0,12.0,360.0,0.0,0.0
2196,57.0,128.0,120.0,0.0,0.0
2197,58.0,104.0,120.0,0.0,0.0
2198,60.0,112.0,90.0,0.0,0.0
2199,49.0,156.0,720.0,0.0,0.0
2200,58.0,108.0,90.0,0.0,0.0
2201,67.0,408.0,90.0,0.0,0.0
2202,58.0,64.0,690.0,0.0,0.0
2203,67.0,372.0,1020.0,0.0,0.0
2204,64.0,4.0,570.0,0.0,0.0
2205,48.0,96.0,120.0,0.0,0.0
2206,49.0,56.0,90.0,0.0,0.0
2207,50.0,52.0,90.0,0.0,0.0
2208,49.0,176.0,30.0,0.0,0.0
2209,58.0,112.0,90.0,0.0,0.0
2210,56.0,72.0,90.0,0.0,0.0
2211,63.0,64.0,930.0,0.0,0.0
2212,60.0,92.0,1020.0,0.0,0.0
2213,57.0,112.0,510.0,0.0,0.0
2214,66.0,128.0,90.0,0.0,0.0
2215,67.0,44.0,120.0,0.0,0.0
2216,70.0,164.0,120.0,0.0,0.0
2217,55.0,12.0,480.0,0.0,0.0
2218,69.0,84.0,180.0,0.0,0.0
2219,72.0,36.0,120.0,0.0,0.0
2220,70.0,24.0,90.0,0.0,0.0
2221,54.0,0.0,120.0,0.0,0.0
2222,63.0,16.0,90.0,0.0,0.0
2223,69.0,100.0,90.0,0.0,0.0
2224,57.0,124.0,90.0,0.0,0.0
2225,72.0,28.0,1050.0,0.0,0.0
2226,66.0,16.0,60.0,0.0,0.0
2227,48.0,140.0,90.0,0.0,0.0
2228,50.0,136.0,120.0,0.0,0.0
2229,53.0,104.0,120.0,0.0,0.0
2230,51.0,140.0,90.0,0.0,0.0
2231,48.0,124.0,120.0,0.0,0.0
2232,45.0,112.0,120.0,0.0,0.0
2233,51.0,80.0,90.0,0.0,0.0
2234,54.0,120.0,90.0,0.0,0.0
2235,44.0,152.0,60.0,0.0,0.0
2236,45.0,136.0,120.0,0.0,0.0
2237,62.0,100.0,120.0,0.0,0.0
2238,50.0,8.0,90.0,0.0,0.0
2239,60.0,108.0,120.0,0.0,0.0
2240,48.0,36.0,90.0,0.0,0.0
2241,57.0,36.0,90.0,0.0,0.0
2242,45.0,48.0,120.0,0.0,0.0
2243,54.0,724.0,150.0,0.0,0.0
2244,42.0,84.0,60.0,0.0,0.0
2245,50.0,172.0,690.0,0.0,0.0
2246,38.0,152.0,870.0,0.0,0.0
2247,45.0,28.0,90.0,0.0,0.0
2248,54.0,132.0,180.0,0.0,0.0
2249,50.0,8.0,90.0,0.0,0.0
2250,36.0,60.0,90.0,0.0,0.0
2251,50.0,8.0,90.0,0.0,0.0
2252,43.0,40.0,30.0,0.0,0.0
2253,34.0,216.0,120.0,0.0,0.0
2254,55.0,28.0,90.0,0.0,0.0
2255,57.0,20.0,90.0,0.0,0.0
2256,45.0,12.0,90.0,0.0,0.0
2257,50.0,12.0,300.0,0.0,0.0
2258,30.0,212.0,90.0,0.0,0.0
2259,58.0,12.0,90.0,0.0,0.0
2260,46.0,12.0,60.0,0.0,0.0
2261,43.0,224.0,90.0,0.0,0.0
2262,31.0,16.0,60.0,0.0,0.0
2263,60.0,512.0,90.0,0.0,0.0
2264,48.0,12.0,60.0,0.0,0.0
2265,55.0,24.0,60.0,0.0,0.0
2266,39.0,4.0,60.0,0.0,0.0
2267,62.0,8.0,870.0,0.0,0.0
2268,50.0,40.0,1080.0,0.0,0.0
2269,55.0,72.0,270.0,0.0,0.0
2270,46.0,12.0,330.0,0.0,0.0
2271,34.0,436.0,330.0,0.0,0.0
2272,57.0,164.0,300.0,0.0,0.0
2273,45.0,40.0,210.0,0.0,0.0
2274,33.0,24.0,240.0,0.0,0.0
2275,60.0,0.0,60.0,0.0,0.0
2276,43.0,8.0,30.0,0.0,0.0
2277,31.0,28.0,30.0,0.0,0.0
2278,58.0,268.0,90.0,0.0,0.0
2279,57.0,488.0,390.0,0.0,0.0
2280,41.0,32.0,210.0,0.0,0.0
2281,29.0,116.0,210.0,0.0,0.0
2282,64.0,484.0,420.0,0.0,0.0
2283,52.0,72.0,330.0,0.0,0.0
2284,57.0,460.0,930.0,0.0,0.0
2285,37.0,36.0,270.0,0.0,0.0
2286,25.0,4.0,270.0,0.0,0.0
2287,65.0,24.0,270.0,0.0,0.0
2288,53.0,16.0,300.0,0.0,0.0
2289,26.0,36.0,780.0,0.0,0.0
2290,38.0,332.0,810.0,0.0,0.0
2291,57.0,68.0,660.0,0.0,0.0
2292,45.0,20.0,660.0,0.0,0.0
2293,35.0,88.0,90.0,0.0,0.0
2294,36.0,8.0,60.0,0.0,0.0
2295,35.0,68.0,60.0,0.0,0.0
2296,36.0,88.0,60.0,0.0,0.0
2297,35.0,28.0,60.0,0.0,0.0
2298,56.0,44.0,60.0,0.0,0.0
2299,44.0,4.0,20.0,0.0,0.0
2300,36.0,64.0,60.0,0.0,0.0
2301,35.0,24.0,60.0,0.0,0.0
2302,57.0,72.0,90.0,0.0,0.0
2303,45.0,16.0,30.0,0.0,0.0
2304,36.0,20.0,60.0,0.0,0.0
2305,59.0,44.0,60.0,0.0,0.0
2306,47.0,12.0,30.0,0.0,0.0
2307,35.0,48.0,60.0,0.0,0.0
2308,57.0,76.0,60.0,0.0,0.0
2309,36.0,28.0,30.0,0.0,0.0
2310,45.0,16.0,20.0,0.0,0.0
2311,35.0,40.0,60.0,0.0,0.0
2312,64.0,0.0,30.0,0.0,0.0
2313,36.0,88.0,60.0,0.0,0.0
2314,52.0,32.0,20.0,0.0,0.0
2315,35.0,92.0,60.0,0.0,0.0
2316,36.0,48.0,90.0,0.0,0.0
2317,35.0,8.0,60.0,0.0,0.0
2318,57.0,364.0,60.0,0.0,0.0
2319,45.0,8.0,20.0,0.0,0.0
2320,57.0,104.0,1080.0,0.0,0.0
2321,45.0,32.0,570.0,0.0,0.0
2322,52.0,264.0,300.0,0.0,0.0
2323,54.0,0.0,870.0,0.0,0.0
2324,35.0,144.0,720.0,0.0,0.0
2325,51.0,124.0,270.0,0.0,0.0
2326,34.0,16.0,90.0,0.0,0.0
2327,35.0,116.0,150.0,0.0,0.0
2328,42.0,64.0,120.0,0.0,0.0
2329,46.0,92.0,150.0,0.0,0.0
2330,47.0,124.0,120.0,0.0,0.0
2331,48.0,136.0,120.0,0.0,0.0
2332,46.0,100.0,120.0,0.0,0.0
2333,47.0,164.0,90.0,0.0,0.0
2334,50.0,120.0,150.0,0.0,0.0
2335,48.0,112.0,120.0,0.0,0.0
2336,45.0,60.0,120.0,0.0,0.0
2337,39.0,448.0,60.0,0.0,0.0
2338,54.0,748.0,360.0,0.0,0.0
2339,54.0,200.0,1110.0,0.0,0.0
2340,57.0,4.0,510.0,0.0,0.0
2341,64.0,284.0,120.0,0.0,0.0
2342,63.0,240.0,270.0,0.0,0.0
2343,58.0,28.0,600.0,0.0,0.0
2344,59.0,52.0,150.0,0.0,0.0
2345,64.0,28.0,240.0,0.0,0.0
2346,52.0,336.0,540.0,0.0,0.0
2347,60.0,88.0,120.0,0.0,0.0
2348,62.0,80.0,150.0,0.0,0.0
2349,65.0,80.0,90.0,0.0,0.0
2350,66.0,592.0,360.0,0.0,0.0
2351,57.0,488.0,930.0,0.0,0.0
2352,60.0,80.0,1680.0,0.0,0.0
2353,51.0,68.0,1410.0,0.0,0.0
2354,66.0,4.0,960.0,0.0,0.0
2355,56.0,56.0,840.0,0.0,0.0
2356,43.0,112.0,120.0,0.0,0.0
2357,44.0,84.0,90.0,0.0,0.0
2358,46.0,84.0,120.0,0.0,0.0
2359,65.0,752.0,390.0,0.0,0.0
2360,44.0,80.0,90.0,0.0,0.0
2361,51.0,52.0,90.0,0.0,0.0
2362,44.0,280.0,2490.0,0.0,0.0
2363,65.0,12.0,600.0,0.0,0.0
2364,60.0,32.0,600.0,0.0,0.0
2365,54.0,16.0,2280.0,0.0,0.0
2366,63.0,440.0,90.0,0.0,0.0
2367,70.0,544.0,90.0,0.0,0.0
2368,72.0,84.0,510.0,0.0,0.0
2369,68.0,256.0,570.0,0.0,0.0
2370,66.0,108.0,930.0,0.0,0.0
2371,73.0,92.0,300.0,0.0,0.0
2372,74.0,156.0,90.0,0.0,0.0
2373,77.0,4.0,1050.0,0.0,0.0
2374,66.0,76.0,1500.0,0.0,0.0
2375,72.0,56.0,1170.0,0.0,0.0
2376,31.0,136.0,90.0,0.0,0.0
2377,32.0,144.0,120.0,0.0,0.0
2378,39.0,128.0,120.0,0.0,0.0
2379,44.0,112.0,90.0,0.0,0.0
2380,48.0,132.0,90.0,0.0,0.0
2381,51.0,136.0,90.0,0.0,0.0
2382,56.0,144.0,150.0,0.0,0.0
2383,75.0,12.0,390.0,0.0,0.0
2384,57.0,92.0,150.0,0.0,0.0
2385,55.0,8.0,90.0,0.0,0.0
2386,56.0,232.0,60.0,0.0,0.0
2387,76.0,28.0,180.0,0.0,0.0
2388,72.0,20.0,120.0,0.0,0.0
2389,69.0,20.0,150.0,0.0,0.0
2390,44.0,28.0,360.0,0.0,0.0
2391,56.0,16.0,390.0,0.0,0.0
2392,68.0,160.0,60.0,0.0,0.0
2393,66.0,12.0,90.0,0.0,0.0
2394,60.0,196.0,30.0,0.0,0.0
2395,76.0,8.0,150.0,0.0,0.0
2396,64.0,184.0,210.0,0.0,0.0
2397,72.0,8.0,150.0,0.0,0.0
2398,68.0,116.0,30.0,0.0,0.0
2399,56.0,16.0,990.0,0.0,0.0
2400,44.0,20.0,960.0,0.0,0.0
2401,68.0,36.0,90.0,0.0,0.0
2402,60.0,132.0,60.0,0.0,0.0
2403,61.0,204.0,60.0,0.0,0.0
2404,64.0,44.0,150.0,0.0,0.0
2405,68.0,184.0,60.0,0.0,0.0
2406,72.0,44.0,90.0,0.0,0.0
2407,73.0,252.0,60.0,0.0,0.0
2408,82.0,24.0,240.0,0.0,0.0
2409,75.0,112.0,150.0,0.0,0.0
2410,55.0,20.0,420.0,0.0,0.0
2411,43.0,24.0,420.0,0.0,0.0
2412,76.0,88.0,120.0,0.0,0.0
2413,72.0,72.0,90.0,0.0,0.0
2414,73.0,192.0,90.0,0.0,0.0
2415,82.0,12.0,390.0,0.0,0.0
2416,70.0,24.0,420.0,0.0,0.0
2417,76.0,12.0,450.0,0.0,0.0
2418,54.0,136.0,120.0,0.0,0.0
2419,52.0,128.0,150.0,0.0,0.0
2420,49.0,24.0,150.0,0.0,0.0
2421,43.0,376.0,60.0,0.0,0.0
2422,82.0,80.0,660.0,0.0,0.0
2423,70.0,48.0,750.0,0.0,0.0
2424,75.0,80.0,840.0,0.0,0.0
2425,72.0,44.0,960.0,0.0,0.0
2426,42.0,128.0,240.0,0.0,0.0
2427,29.0,180.0,90.0,0.0,0.0
2428,30.0,104.0,150.0,0.0,0.0
2429,36.0,4.0,90.0,0.0,0.0
2430,39.0,56.0,120.0,0.0,0.0
2431,42.0,32.0,120.0,0.0,0.0
2432,48.0,144.0,60.0,0.0,0.0
2433,81.0,32.0,330.0,0.0,0.0
2434,69.0,40.0,360.0,0.0,0.0
2435,75.0,12.0,330.0,0.0,0.0
2436,54.0,156.0,60.0,0.0,0.0
2437,56.0,100.0,90.0,0.0,0.0
2438,53.0,12.0,90.0,0.0,0.0
2439,54.0,220.0,30.0,0.0,0.0
2440,80.0,188.0,150.0,0.0,0.0
2441,75.0,28.0,90.0,0.0,0.0
2442,69.0,4.0,90.0,0.0,0.0
2443,54.0,28.0,420.0,0.0,0.0
2444,42.0,8.0,420.0,0.0,0.0
2445,78.0,52.0,180.0,0.0,0.0
2446,75.0,56.0,90.0,0.0,0.0
2447,69.0,292.0,60.0,0.0,0.0
2448,74.0,12.0,210.0,0.0,0.0
2449,70.0,32.0,180.0,0.0,0.0
2450,62.0,164.0,210.0,0.0,0.0
2451,54.0,20.0,1020.0,0.0,0.0
2452,42.0,24.0,990.0,0.0,0.0
2453,58.0,148.0,60.0,0.0,0.0
2454,59.0,180.0,90.0,0.0,0.0
2455,62.0,64.0,150.0,0.0,0.0
2456,69.0,164.0,60.0,0.0,0.0
2457,70.0,52.0,90.0,0.0,0.0
2458,71.0,248.0,60.0,0.0,0.0
2459,73.0,144.0,150.0,0.0,0.0
2460,53.0,16.0,480.0,0.0,0.0
2461,41.0,8.0,330.0,0.0,0.0
2462,80.0,32.0,300.0,0.0,0.0
2463,74.0,68.0,180.0,0.0,0.0
2464,70.0,84.0,120.0,0.0,0.0
2465,71.0,212.0,90.0,0.0,0.0
2466,80.0,56.0,480.0,0.0,0.0
2467,74.0,8.0,480.0,0.0,0.0
2468,68.0,40.0,450.0,0.0,0.0
2469,54.0,48.0,150.0,0.0,0.0
2470,52.0,184.0,60.0,0.0,0.0
2471,47.0,56.0,90.0,0.0,0.0
2472,41.0,164.0,120.0,0.0,0.0
2473,40.0,84.0,150.0,0.0,0.0
2474,80.0,32.0,300.0,0.0,0.0
2475,73.0,32.0,330.0,0.0,0.0
2476,68.0,160.0,360.0,0.0,0.0
2477,70.0,0.0,360.0,0.0,0.0
2478,39.0,88.0,90.0,0.0,0.0
2479,42.0,8.0,90.0,0.0,0.0
2480,40.0,96.0,150.0,0.0,0.0
2481,79.0,16.0,60.0,0.0,0.0
2482,39.0,0.0,60.0,0.0,0.0
2483,67.0,4.0,60.0,0.0,0.0
2484,75.0,128.0,60.0,0.0,0.0
2485,70.0,0.0,60.0,0.0,0.0
2486,38.0,220.0,60.0,0.0,0.0
2487,37.0,4.0,120.0,0.0,0.0
2488,46.0,20.0,90.0,0.0,0.0
2489,51.0,40.0,120.0,0.0,0.0
2490,55.0,68.0,150.0,0.0,0.0
2491,39.0,168.0,90.0,0.0,0.0
2492,56.0,0.0,150.0,0.0,0.0
2493,44.0,12.0,90.0,0.0,0.0
2494,35.0,32.0,90.0,0.0,0.0
2495,51.0,104.0,120.0,0.0,0.0
2496,39.0,152.0,90.0,0.0,0.0
2497,58.0,52.0,150.0,0.0,0.0
2498,46.0,20.0,120.0,0.0,0.0
2499,51.0,180.0,210.0,0.0,0.0
2500,31.0,40.0,90.0,0.0,0.0
2501,39.0,4.0,90.0,0.0,0.0
2502,59.0,56.0,180.0,0.0,0.0
2503,47.0,52.0,120.0,0.0,0.0
2504,51.0,0.0,90.0,0.0,0.0
2505,32.0,20.0,90.0,0.0,0.0
2506,44.0,184.0,90.0,0.0,0.0
2507,61.0,44.0,180.0,0.0,0.0
2508,40.0,4.0,120.0,0.0,0.0
2509,49.0,52.0,120.0,0.0,0.0
2510,56.0,8.0,90.0,0.0,0.0
2511,44.0,292.0,60.0,0.0,0.0
2512,63.0,36.0,390.0,0.0,0.0
2513,51.0,44.0,300.0,0.0,0.0
2514,56.0,48.0,330.0,0.0,0.0
2515,35.0,80.0,180.0,0.0,0.0
2516,39.0,28.0,90.0,0.0,0.0
2517,44.0,84.0,120.0,0.0,0.0
2518,47.0,192.0,60.0,0.0,0.0
2519,65.0,20.0,240.0,0.0,0.0
2520,56.0,56.0,240.0,0.0,0.0
2521,46.0,128.0,90.0,0.0,0.0
2522,62.0,16.0,300.0,0.0,0.0
2523,34.0,68.0,150.0,0.0,0.0
2524,46.0,80.0,90.0,0.0,0.0
2525,54.0,20.0,60.0,0.0,0.0
2526,63.0,4.0,60.0,0.0,0.0
2527,66.0,132.0,90.0,0.0,0.0
2528,39.0,12.0,20.0,0.0,0.0
2529,37.0,140.0,90.0,0.0,0.0
2530,53.0,64.0,30.0,0.0,0.0
2531,58.0,4.0,360.0,0.0,0.0
2532,49.0,128.0,120.0,0.0,0.0
2533,48.0,156.0,90.0,0.0,0.0
2534,46.0,224.0,90.0,0.0,0.0
2535,45.0,52.0,180.0,0.0,0.0
2536,60.0,68.0,420.0,0.0,0.0
2537,48.0,76.0,360.0,0.0,0.0
2538,53.0,16.0,480.0,0.0,0.0
2539,42.0,128.0,90.0,0.0,0.0
2540,41.0,8.0,60.0,0.0,0.0
2541,39.0,184.0,120.0,0.0,0.0
2542,37.0,44.0,150.0,0.0,0.0
2543,61.0,36.0,480.0,0.0,0.0
2544,53.0,20.0,450.0,0.0,0.0
2545,49.0,72.0,690.0,0.0,0.0
2546,58.0,40.0,390.0,0.0,0.0
2547,36.0,160.0,60.0,0.0,0.0
2548,34.0,60.0,120.0,0.0,0.0
2549,32.0,180.0,120.0,0.0,0.0
2550,31.0,32.0,330.0,0.0,0.0
2551,43.0,136.0,60.0,0.0,0.0
2552,61.0,60.0,120.0,0.0,0.0
2553,57.0,20.0,90.0,0.0,0.0
2554,43.0,20.0,90.0,0.0,0.0
2555,49.0,164.0,60.0,0.0,0.0
2556,57.0,56.0,90.0,0.0,0.0
2557,53.0,20.0,60.0,0.0,0.0
2558,41.0,12.0,60.0,0.0,0.0
2559,62.0,52.0,150.0,0.0,0.0
2560,50.0,180.0,60.0,0.0,0.0
2561,64.0,20.0,210.0,0.0,0.0
2562,57.0,84.0,120.0,0.0,0.0
2563,49.0,8.0,90.0,0.0,0.0
2564,37.0,12.0,90.0,0.0,0.0
2565,52.0,184.0,90.0,0.0,0.0
2566,65.0,28.0,150.0,0.0,0.0
2567,53.0,16.0,120.0,0.0,0.0
2568,50.0,32.0,150.0,0.0,0.0
2569,38.0,168.0,210.0,0.0,0.0
2570,57.0,32.0,60.0,0.0,0.0
2571,66.0,232.0,240.0,0.0,0.0
2572,48.0,92.0,150.0,0.0,0.0
2573,36.0,20.0,120.0,0.0,0.0
2574,63.0,4.0,120.0,0.0,0.0
2575,54.0,16.0,90.0,0.0,0.0
2576,67.0,4.0,390.0,0.0,0.0
2577,35.0,32.0,330.0,0.0,0.0
2578,47.0,4.0,360.0,0.0,0.0
2579,62.0,84.0,150.0,0.0,0.0
2580,55.0,92.0,120.0,0.0,0.0
2581,61.0,136.0,90.0,0.0,0.0
2582,62.0,184.0,90.0,0.0,0.0
2583,65.0,108.0,120.0,0.0,0.0
2584,50.0,64.0,330.0,0.0,0.0
2585,38.0,8.0,300.0,0.0,0.0
2586,68.0,36.0,240.0,0.0,0.0
2587,59.0,40.0,120.0,0.0,0.0
2588,64.0,68.0,90.0,0.0,0.0
2589,69.0,0.0,60.0,0.0,0.0
2590,57.0,248.0,60.0,0.0,0.0
2591,49.0,12.0,30.0,0.0,0.0
2592,37.0,8.0,60.0,0.0,0.0
2593,55.0,116.0,120.0,0.0,0.0
2594,47.0,68.0,300.0,0.0,0.0
2595,35.0,8.0,360.0,0.0,0.0
2596,51.0,56.0,120.0,0.0,0.0
2597,52.0,112.0,90.0,0.0,0.0
2598,47.0,224.0,60.0,0.0,0.0
2599,59.0,4.0,390.0,0.0,0.0
2600,45.0,56.0,390.0,0.0,0.0
2601,54.0,116.0,150.0,0.0,0.0
2602,33.0,328.0,480.0,0.0,0.0
2603,50.0,124.0,120.0,0.0,0.0
2604,51.0,8.0,90.0,0.0,0.0
2605,47.0,16.0,60.0,0.0,0.0
2606,64.0,24.0,720.0,0.0,0.0
2607,52.0,60.0,480.0,0.0,0.0
2608,59.0,92.0,540.0,0.0,0.0
2609,32.0,108.0,150.0,0.0,0.0
2610,35.0,96.0,120.0,0.0,0.0
2611,40.0,96.0,90.0,0.0,0.0
2612,44.0,20.0,60.0,0.0,0.0
2613,46.0,64.0,120.0,0.0,0.0
2614,49.0,192.0,60.0,0.0,0.0
2615,65.0,192.0,210.0,0.0,0.0
2616,56.0,24.0,90.0,0.0,0.0
2617,62.0,12.0,120.0,0.0,0.0
2618,47.0,64.0,120.0,0.0,0.0
2619,59.0,4.0,60.0,0.0,0.0
2620,61.0,76.0,120.0,0.0,0.0
2621,66.0,156.0,240.0,0.0,0.0
2622,57.0,28.0,90.0,0.0,0.0
2623,45.0,44.0,60.0,0.0,0.0
2624,68.0,20.0,180.0,0.0,0.0
2625,41.0,28.0,120.0,0.0,0.0
2626,61.0,0.0,180.0,0.0,0.0
2627,56.0,32.0,120.0,0.0,0.0
2628,49.0,212.0,30.0,0.0,0.0
2629,61.0,32.0,150.0,0.0,0.0
2630,66.0,36.0,120.0,0.0,0.0
2631,57.0,4.0,150.0,0.0,0.0
2632,69.0,192.0,210.0,0.0,0.0
2633,42.0,12.0,120.0,0.0,0.0
2634,54.0,8.0,60.0,0.0,0.0
2635,58.0,12.0,120.0,0.0,0.0
2636,61.0,0.0,90.0,0.0,0.0
2637,67.0,16.0,120.0,0.0,0.0
2638,40.0,24.0,90.0,0.0,0.0
2639,70.0,76.0,150.0,0.0,0.0
2640,52.0,204.0,90.0,0.0,0.0
2641,71.0,56.0,420.0,0.0,0.0
2642,59.0,0.0,360.0,0.0,0.0
2643,39.0,152.0,120.0,0.0,0.0
2644,63.0,16.0,360.0,0.0,0.0
2645,66.0,4.0,390.0,0.0,0.0
2646,42.0,96.0,90.0,0.0,0.0
2647,47.0,32.0,90.0,0.0,0.0
2648,51.0,204.0,60.0,0.0,0.0
2649,72.0,16.0,240.0,0.0,0.0
2650,60.0,24.0,150.0,0.0,0.0
2651,68.0,40.0,180.0,0.0,0.0
2652,54.0,44.0,120.0,0.0,0.0
2653,63.0,20.0,90.0,0.0,0.0
2654,56.0,136.0,90.0,0.0,0.0
2655,52.0,96.0,90.0,0.0,0.0
2656,73.0,4.0,60.0,0.0,0.0
2657,56.0,120.0,60.0,0.0,0.0
2658,61.0,4.0,60.0,0.0,0.0
2659,68.0,16.0,60.0,0.0,0.0
2660,63.0,16.0,510.0,0.0,0.0
2661,59.0,44.0,360.0,0.0,0.0
2662,56.0,100.0,390.0,0.0,0.0
2663,51.0,136.0,90.0,0.0,0.0
2664,62.0,56.0,30.0,0.0,0.0
2665,50.0,116.0,120.0,0.0,0.0
2666,52.0,8.0,90.0,0.0,0.0
2667,51.0,152.0,90.0,0.0,0.0
2668,67.0,0.0,450.0,0.0,0.0
2669,63.0,104.0,450.0,0.0,0.0
2670,58.0,92.0,270.0,0.0,0.0
2671,49.0,116.0,90.0,0.0,0.0
2672,55.0,84.0,360.0,0.0,0.0
2673,48.0,44.0,90.0,0.0,0.0
2674,51.0,4.0,90.0,0.0,0.0
2675,49.0,84.0,150.0,0.0,0.0
2676,48.0,160.0,90.0,0.0,0.0
2677,68.0,4.0,270.0,0.0,0.0
2678,63.0,24.0,270.0,0.0,0.0
2679,56.0,120.0,300.0,0.0,0.0
2680,60.0,16.0,240.0,0.0,0.0
2681,44.0,16.0,90.0,0.0,0.0
2682,39.0,60.0,120.0,0.0,0.0
2683,36.0,164.0,60.0,0.0,0.0
2684,61.0,40.0,180.0,0.0,0.0
2685,35.0,60.0,60.0,0.0,0.0
2686,53.0,44.0,90.0,0.0,0.0
2687,56.0,28.0,150.0,0.0,0.0
2688,37.0,136.0,90.0,0.0,0.0
2689,33.0,108.0,90.0,0.0,0.0
2690,66.0,8.0,60.0,0.0,0.0
2691,37.0,116.0,150.0,0.0,0.0
2692,54.0,0.0,60.0,0.0,0.0
2693,61.0,92.0,30.0,0.0,0.0
2694,52.0,84.0,510.0,0.0,0.0
2695,47.0,8.0,510.0,0.0,0.0
2696,32.0,180.0,90.0,0.0,0.0
2697,31.0,104.0,150.0,0.0,0.0
2698,33.0,120.0,120.0,0.0,0.0
2699,32.0,132.0,180.0,0.0,0.0
2700,54.0,28.0,540.0,0.0,0.0
2701,30.0,156.0,150.0,0.0,0.0
2702,45.0,20.0,510.0,0.0,0.0
2703,47.0,480.0,600.0,0.0,0.0
2704,51.0,56.0,450.0,0.0,0.0
2705,29.0,112.0,150.0,0.0,0.0
2706,32.0,64.0,90.0,0.0,0.0
2707,30.0,32.0,120.0,0.0,0.0
2708,56.0,100.0,420.0,0.0,0.0
2709,47.0,4.0,390.0,0.0,0.0
2710,50.0,24.0,420.0,0.0,0.0
2711,28.0,0.0,390.0,0.0,0.0
2712,52.0,220.0,150.0,0.0,0.0
2713,64.0,68.0,210.0,0.0,0.0
2714,62.0,156.0,120.0,0.0,0.0
2715,59.0,172.0,150.0,0.0,0.0
2716,52.0,184.0,150.0,0.0,0.0
2717,64.0,100.0,150.0,0.0,0.0
2718,62.0,156.0,120.0,0.0,0.0
2719,59.0,148.0,120.0,0.0,0.0
2720,52.0,216.0,90.0,0.0,0.0
2721,66.0,144.0,150.0,0.0,0.0
2722,62.0,152.0,150.0,0.0,0.0
2723,59.0,160.0,120.0,0.0,0.0
2724,52.0,176.0,120.0,0.0,0.0
2725,64.0,120.0,150.0,0.0,0.0
2726,62.0,156.0,120.0,0.0,0.0
2727,59.0,148.0,120.0,0.0,0.0
2728,52.0,220.0,120.0,0.0,0.0
2729,66.0,120.0,150.0,0.0,0.0
2730,62.0,180.0,120.0,0.0,0.0
2731,59.0,316.0,150.0,0.0,0.0
2732,52.0,52.0,270.0,0.0,0.0
2733,64.0,124.0,150.0,0.0,0.0
2734,62.0,156.0,150.0,0.0,0.0
2735,59.0,120.0,120.0,0.0,0.0
2736,52.0,460.0,90.0,0.0,0.0
2737,66.0,120.0,480.0,0.0,0.0
2738,62.0,76.0,180.0,0.0,0.0
2739,74.0,128.0,630.0,0.0,0.0
2740,56.0,296.0,210.0,0.0,0.0
2741,52.0,32.0,510.0,0.0,0.0
2742,64.0,88.0,240.0,0.0,0.0
2743,73.0,36.0,330.0,0.0,0.0
2744,61.0,140.0,120.0,0.0,0.0
2745,57.0,88.0,150.0,0.0,0.0
2746,69.0,28.0,90.0,0.0,0.0
2747,52.0,128.0,60.0,0.0,0.0
2748,66.0,224.0,90.0,0.0,0.0
2749,62.0,100.0,150.0,0.0,0.0
2750,66.0,48.0,210.0,0.0,0.0
2751,59.0,140.0,120.0,0.0,0.0
2752,52.0,208.0,90.0,0.0,0.0
2753,68.0,68.0,150.0,0.0,0.0
2754,64.0,104.0,210.0,0.0,0.0
2755,69.0,184.0,630.0,0.0,0.0
2756,61.0,184.0,120.0,0.0,0.0
2757,57.0,88.0,180.0,0.0,0.0
2758,52.0,220.0,90.0,0.0,0.0
2759,66.0,140.0,360.0,0.0,0.0
2760,62.0,8.0,180.0,0.0,0.0
2761,71.0,208.0,600.0,0.0,0.0
2762,56.0,172.0,150.0,0.0,0.0
2763,52.0,112.0,150.0,0.0,0.0
2764,64.0,84.0,420.0,0.0,0.0
2765,73.0,312.0,540.0,0.0,0.0
2766,61.0,72.0,150.0,0.0,0.0
2767,57.0,204.0,150.0,0.0,0.0
2768,52.0,4.0,180.0,0.0,0.0
2769,64.0,136.0,300.0,0.0,0.0
2770,78.0,248.0,480.0,0.0,0.0
2771,61.0,8.0,150.0,0.0,0.0
2772,58.0,148.0,120.0,0.0,0.0
2773,52.0,12.0,510.0,0.0,0.0
2774,64.0,136.0,210.0,0.0,0.0
2775,76.0,24.0,120.0,0.0,0.0
2776,62.0,64.0,150.0,0.0,0.0
2777,78.0,148.0,180.0,0.0,0.0
2778,59.0,96.0,150.0,0.0,0.0
2779,76.0,100.0,210.0,0.0,0.0
2780,52.0,28.0,90.0,0.0,0.0
2781,74.0,120.0,60.0,0.0,0.0
2782,66.0,132.0,180.0,0.0,0.0
2783,74.0,116.0,180.0,0.0,0.0
2784,62.0,8.0,150.0,0.0,0.0
2785,56.0,356.0,120.0,0.0,0.0
2786,73.0,40.0,90.0,0.0,0.0
2787,52.0,92.0,390.0,0.0,0.0
2788,64.0,60.0,180.0,0.0,0.0
2789,72.0,24.0,120.0,0.0,0.0
2790,73.0,52.0,240.0,0.0,0.0
2791,61.0,84.0,150.0,0.0,0.0
2792,57.0,84.0,120.0,0.0,0.0
2793,69.0,16.0,90.0,0.0,0.0
2794,52.0,148.0,90.0,0.0,0.0
2795,66.0,208.0,90.0,0.0,0.0
2796,62.0,76.0,120.0,0.0,0.0
2797,66.0,48.0,180.0,0.0,0.0
2798,59.0,196.0,90.0,0.0,0.0
2799,68.0,36.0,300.0,0.0,0.0
2800,52.0,176.0,120.0,0.0,0.0
2801,64.0,104.0,180.0,0.0,0.0
2802,69.0,84.0,330.0,0.0,0.0
2803,61.0,172.0,90.0,0.0,0.0
2804,57.0,44.0,150.0,0.0,0.0
2805,52.0,252.0,90.0,0.0,0.0
2806,70.0,132.0,510.0,0.0,0.0
2807,66.0,136.0,180.0,0.0,0.0
2808,62.0,44.0,150.0,0.0,0.0
2809,71.0,172.0,210.0,0.0,0.0
2810,56.0,40.0,150.0,0.0,0.0
2811,52.0,24.0,480.0,0.0,0.0
2812,72.0,292.0,120.0,0.0,0.0
2813,64.0,0.0,330.0,0.0,0.0
2814,72.0,56.0,330.0,0.0,0.0
2815,61.0,132.0,150.0,0.0,0.0
2816,57.0,316.0,180.0,0.0,0.0
2817,73.0,100.0,540.0,0.0,0.0
2818,52.0,32.0,390.0,0.0,0.0
2819,64.0,76.0,180.0,0.0,0.0
2820,61.0,76.0,150.0,0.0,0.0
2821,57.0,288.0,180.0,0.0,0.0
2822,52.0,108.0,330.0,0.0,0.0
2823,64.0,20.0,120.0,0.0,0.0
2824,61.0,204.0,120.0,0.0,0.0
2825,57.0,40.0,180.0,0.0,0.0
2826,52.0,224.0,60.0,0.0,0.0
2827,64.0,196.0,120.0,0.0,0.0
2828,61.0,128.0,150.0,0.0,0.0
2829,57.0,140.0,90.0,0.0,0.0
2830,52.0,252.0,120.0,0.0,0.0
2831,64.0,236.0,150.0,0.0,0.0
2832,52.0,68.0,240.0,0.0,0.0
2833,61.0,80.0,150.0,0.0,0.0
2834,57.0,160.0,120.0,0.0,0.0
2835,50.0,24.0,180.0,0.0,0.0
2836,52.0,116.0,150.0,0.0,0.0
2837,64.0,200.0,150.0,0.0,0.0
2838,49.0,76.0,90.0,0.0,0.0
2839,49.0,36.0,270.0,0.0,0.0
2840,61.0,96.0,150.0,0.0,0.0
2841,57.0,132.0,90.0,0.0,0.0
2842,47.0,96.0,210.0,0.0,0.0
2843,52.0,80.0,180.0,0.0,0.0
2844,45.0,48.0,90.0,0.0,0.0
2845,64.0,240.0,120.0,0.0,0.0
2846,45.0,188.0,1230.0,0.0,0.0
2847,61.0,76.0,180.0,0.0,0.0
2848,57.0,164.0,90.0,0.0,0.0
2849,52.0,140.0,120.0,0.0,0.0
2850,64.0,156.0,120.0,0.0,0.0
2851,61.0,152.0,90.0,0.0,0.0
2852,57.0,152.0,90.0,0.0,0.0
2853,52.0,164.0,90.0,0.0,0.0
2854,64.0,32.0,150.0,0.0,0.0
2855,49.0,12.0,270.0,0.0,0.0
2856,61.0,120.0,150.0,0.0,0.0
2857,57.0,144.0,90.0,0.0,0.0
2858,47.0,140.0,180.0,0.0,0.0
2859,52.0,8.0,210.0,0.0,0.0
2860,45.0,44.0,90.0,0.0,0.0
2861,64.0,160.0,90.0,0.0,0.0
2862,45.0,128.0,210.0,0.0,0.0
2863,61.0,108.0,60.0,0.0,0.0
2864,57.0,80.0,120.0,0.0,0.0
2865,44.0,156.0,210.0,0.0,0.0
2866,52.0,16.0,240.0,0.0,0.0
2867,43.0,28.0,90.0,0.0,0.0
2868,64.0,236.0,90.0,0.0,0.0
2869,43.0,208.0,750.0,0.0,0.0
2870,61.0,132.0,150.0,0.0,0.0
2871,59.0,220.0,90.0,0.0,0.0
2872,52.0,144.0,150.0,0.0,0.0
2873,64.0,80.0,150.0,0.0,0.0
2874,31.0,360.0,870.0,0.0,0.0
2875,61.0,128.0,210.0,0.0,0.0
2876,59.0,200.0,150.0,0.0,0.0
2877,52.0,96.0,180.0,0.0,0.0
2878,64.0,224.0,60.0,0.0,0.0
2879,76.0,140.0,450.0,0.0,0.0
2880,30.0,204.0,210.0,0.0,0.0
2881,73.0,48.0,330.0,0.0,0.0
2882,54.0,220.0,120.0,0.0,0.0
2883,66.0,92.0,210.0,0.0,0.0
2884,68.0,0.0,450.0,0.0,0.0
2885,64.0,144.0,120.0,0.0,0.0
2886,61.0,168.0,120.0,0.0,0.0
2887,54.0,204.0,120.0,0.0,0.0
2888,70.0,132.0,180.0,0.0,0.0
2889,66.0,136.0,330.0,0.0,0.0
2890,71.0,40.0,360.0,0.0,0.0
2891,63.0,48.0,120.0,0.0,0.0
2892,59.0,40.0,180.0,0.0,0.0
2893,54.0,408.0,90.0,0.0,0.0
2894,68.0,16.0,330.0,0.0,0.0
2895,64.0,132.0,180.0,0.0,0.0
2896,73.0,124.0,570.0,0.0,0.0
2897,58.0,264.0,150.0,0.0,0.0
2898,54.0,76.0,360.0,0.0,0.0
2899,66.0,68.0,270.0,0.0,0.0
2900,75.0,96.0,660.0,0.0,0.0
2901,63.0,120.0,150.0,0.0,0.0
2902,59.0,340.0,150.0,0.0,0.0
2903,54.0,52.0,420.0,0.0,0.0
2904,66.0,0.0,330.0,0.0,0.0
2905,80.0,28.0,960.0,0.0,0.0
2906,63.0,136.0,120.0,0.0,0.0
2907,60.0,400.0,150.0,0.0,0.0
2908,54.0,44.0,420.0,0.0,0.0
2909,66.0,56.0,210.0,0.0,0.0
2910,64.0,184.0,150.0,0.0,0.0
2911,61.0,320.0,210.0,0.0,0.0
2912,78.0,84.0,360.0,0.0,0.0
2913,54.0,116.0,390.0,0.0,0.0
2914,66.0,88.0,360.0,0.0,0.0
2915,80.0,36.0,1560.0,0.0,0.0
2916,64.0,24.0,210.0,0.0,0.0
2917,58.0,336.0,120.0,0.0,0.0
2918,54.0,48.0,450.0,0.0,0.0
2919,66.0,124.0,150.0,0.0,0.0
2920,63.0,136.0,150.0,0.0,0.0
2921,59.0,332.0,150.0,0.0,0.0
2922,54.0,144.0,420.0,0.0,0.0
2923,66.0,104.0,180.0,0.0,0.0
2924,63.0,8.0,90.0,0.0,0.0
2925,60.0,316.0,150.0,0.0,0.0
2926,78.0,112.0,330.0,0.0,0.0
2927,54.0,56.0,450.0,0.0,0.0
2928,66.0,72.0,240.0,0.0,0.0
2929,64.0,176.0,210.0,0.0,0.0
2930,80.0,8.0,180.0,0.0,0.0
2931,61.0,104.0,150.0,0.0,0.0
2932,78.0,128.0,210.0,0.0,0.0
2933,54.0,0.0,120.0,0.0,0.0
2934,76.0,80.0,90.0,0.0,0.0
2935,68.0,172.0,120.0,0.0,0.0
2936,76.0,16.0,180.0,0.0,0.0
2937,64.0,120.0,180.0,0.0,0.0
2938,75.0,28.0,90.0,0.0,0.0
2939,58.0,312.0,120.0,0.0,0.0
2940,54.0,48.0,450.0,0.0,0.0
2941,66.0,104.0,180.0,0.0,0.0
2942,74.0,64.0,90.0,0.0,0.0
2943,75.0,12.0,300.0,0.0,0.0
2944,63.0,136.0,150.0,0.0,0.0
2945,59.0,336.0,150.0,0.0,0.0
2946,80.0,56.0,570.0,0.0,0.0
2947,54.0,96.0,210.0,0.0,0.0
2948,66.0,36.0,150.0,0.0,0.0
2949,63.0,132.0,120.0,0.0,0.0
2950,60.0,208.0,150.0,0.0,0.0
2951,78.0,156.0,210.0,0.0,0.0
2952,54.0,44.0,450.0,0.0,0.0
2953,66.0,116.0,180.0,0.0,0.0
2954,64.0,244.0,180.0,0.0,0.0
2955,80.0,12.0,180.0,0.0,0.0
2956,61.0,132.0,270.0,0.0,0.0
2957,78.0,8.0,180.0,0.0,0.0
2958,54.0,20.0,120.0,0.0,0.0
2959,76.0,260.0,90.0,0.0,0.0
2960,71.0,8.0,60.0,0.0,0.0
2961,76.0,20.0,270.0,0.0,0.0
2962,70.0,136.0,150.0,0.0,0.0
2963,64.0,152.0,150.0,0.0,0.0
2964,61.0,84.0,120.0,0.0,0.0
2965,54.0,188.0,60.0,0.0,0.0
2966,70.0,168.0,90.0,0.0,0.0
2967,64.0,116.0,120.0,0.0,0.0
2968,61.0,180.0,60.0,0.0,0.0
2969,71.0,172.0,90.0,0.0,0.0
2970,70.0,168.0,120.0,0.0,0.0
2971,64.0,92.0,120.0,0.0,0.0
2972,61.0,184.0,90.0,0.0,0.0
2973,54.0,184.0,120.0,0.0,0.0
2974,64.0,136.0,120.0,0.0,0.0
2975,58.0,168.0,90.0,0.0,0.0
2976,54.0,124.0,120.0,0.0,0.0
2977,66.0,160.0,90.0,0.0,0.0
2978,64.0,200.0,90.0,0.0,0.0
2979,58.0,64.0,120.0,0.0,0.0
2980,54.0,140.0,30.0,0.0,0.0
2981,49.0,228.0,30.0,0.0,0.0
2982,73.0,144.0,90.0,0.0,0.0
2983,64.0,4.0,90.0,0.0,0.0
2984,66.0,4.0,90.0,0.0,0.0
2985,58.0,104.0,120.0,0.0,0.0
2986,64.0,8.0,60.0,0.0,0.0
2987,54.0,148.0,60.0,0.0,0.0
2988,75.0,180.0,60.0,0.0,0.0
2989,66.0,24.0,60.0,0.0,0.0
2990,64.0,140.0,90.0,0.0,0.0
2991,73.0,24.0,90.0,0.0,0.0
2992,66.0,132.0,90.0,0.0,0.0
2993,58.0,8.0,90.0,0.0,0.0
2994,64.0,24.0,90.0,0.0,0.0
2995,54.0,112.0,90.0,0.0,0.0
2996,58.0,4.0,60.0,0.0,0.0
2997,49.0,192.0,90.0,0.0,0.0
2998,61.0,4.0,90.0,0.0,0.0
2999,70.0,136.0,90.0,0.0,0.0
3000,54.0,84.0,120.0,0.0,0.0
3001,64.0,32.0,90.0,0.0,0.0
3002,49.0,8.0,60.0,0.0,0.0
3003,58.0,168.0,60.0,0.0,0.0
3004,63.0,44.0,60.0,0.0,0.0
3005,71.0,124.0,120.0,0.0,0.0
3006,61.0,160.0,90.0,0.0,0.0
3007,70.0,44.0,60.0,0.0,0.0
3008,64.0,20.0,120.0,0.0,0.0
3009,54.0,148.0,120.0,0.0,0.0
3010,58.0,176.0,120.0,0.0,0.0
3011,49.0,8.0,90.0,0.0,0.0
3012,51.0,184.0,150.0,0.0,0.0
3013,54.0,20.0,120.0,0.0,0.0
3014,52.0,96.0,210.0,0.0,0.0
3015,61.0,80.0,120.0,0.0,0.0
3016,54.0,120.0,120.0,0.0,0.0
3017,51.0,28.0,180.0,0.0,0.0
3018,52.0,132.0,90.0,0.0,0.0
3019,49.0,80.0,90.0,0.0,0.0
3020,66.0,180.0,120.0,0.0,0.0
3021,49.0,112.0,210.0,0.0,0.0
3022,64.0,56.0,120.0,0.0,0.0
3023,58.0,88.0,120.0,0.0,0.0
3024,47.0,52.0,150.0,0.0,0.0
3025,56.0,100.0,90.0,0.0,0.0
3026,54.0,40.0,90.0,0.0,0.0
3027,46.0,272.0,90.0,0.0,0.0
3028,46.0,72.0,1140.0,0.0,0.0
3029,61.0,124.0,150.0,0.0,0.0
3030,54.0,104.0,120.0,0.0,0.0
3031,52.0,184.0,60.0,0.0,0.0
3032,66.0,172.0,90.0,0.0,0.0
3033,64.0,120.0,120.0,0.0,0.0
3034,61.0,176.0,90.0,0.0,0.0
3035,54.0,80.0,60.0,0.0,0.0
3036,52.0,188.0,90.0,0.0,0.0
3037,46.0,108.0,210.0,0.0,0.0
3038,61.0,64.0,90.0,0.0,0.0
3039,55.0,80.0,90.0,0.0,0.0
3040,45.0,64.0,150.0,0.0,0.0
3041,52.0,132.0,90.0,0.0,0.0
3042,43.0,56.0,90.0,0.0,0.0
3043,66.0,160.0,90.0,0.0,0.0
3044,43.0,64.0,240.0,0.0,0.0
3045,64.0,112.0,90.0,0.0,0.0
3046,61.0,156.0,90.0,0.0,0.0
3047,42.0,128.0,240.0,0.0,0.0
3048,58.0,4.0,90.0,0.0,0.0
3049,40.0,12.0,90.0,0.0,0.0
3050,52.0,216.0,90.0,0.0,0.0
3051,40.0,32.0,360.0,0.0,0.0
3052,58.0,124.0,90.0,0.0,0.0
3053,55.0,112.0,60.0,0.0,0.0
3054,52.0,240.0,60.0,0.0,0.0
3055,37.0,36.0,300.0,0.0,0.0
3056,64.0,48.0,120.0,0.0,0.0
3057,34.0,120.0,30.0,0.0,0.0
3058,61.0,156.0,120.0,0.0,0.0
3059,31.0,120.0,300.0,0.0,0.0
3060,58.0,68.0,90.0,0.0,0.0
3061,55.0,212.0,90.0,0.0,0.0
3062,28.0,596.0,390.0,0.0,0.0
3063,67.0,80.0,90.0,0.0,0.0
3064,73.0,84.0,390.0,0.0,0.0
3065,27.0,256.0,450.0,0.0,0.0
3066,70.0,348.0,330.0,0.0,0.0
3067,65.0,372.0,330.0,0.0,0.0
3068,67.0,32.0,360.0,0.0,0.0
3069,64.0,380.0,390.0,0.0,0.0
3070,72.0,56.0,390.0,0.0,0.0
3071,63.0,220.0,450.0,0.0,64.0
3072,60.0,200.0,360.0,0.0,0.0
3073,68.0,44.0,330.0,0.0,0.0
3074,66.0,112.0,270.0,0.0,0.0
3075,57.0,72.0,330.0,0.0,0.0
3076,76.0,156.0,240.0,0.0,0.0
3077,67.0,124.0,120.0,0.0,0.0
3078,58.0,320.0,360.0,0.0,0.0
3079,75.0,288.0,390.0,0.0,0.0
3080,59.0,0.0,390.0,0.0,0.0
3081,68.0,52.0,330.0,0.0,0.0
3082,71.0,248.0,330.0,0.0,0.0
3083,56.0,24.0,300.0,0.0,0.0
3084,66.0,64.0,270.0,0.0,0.0
3085,51.0,184.0,270.0,0.0,0.0
3086,74.0,108.0,240.0,0.0,0.0
3087,68.0,40.0,180.0,0.0,0.0
3088,53.0,440.0,330.0,0.0,0.0
3089,73.0,8.0,690.0,0.0,0.0
3090,69.0,316.0,360.0,0.0,0.0
3091,54.0,164.0,720.0,0.0,0.0
3092,66.0,24.0,300.0,0.0,0.0
3093,64.0,444.0,180.0,0.0,0.0
3094,68.0,4.0,300.0,0.0,0.0
3095,65.0,48.0,240.0,0.0,0.0
3096,62.0,392.0,270.0,0.0,0.0
3097,69.0,300.0,360.0,0.0,0.0
3098,60.0,160.0,690.0,0.0,0.0
3099,64.0,80.0,840.0,0.0,0.0
3100,72.0,20.0,300.0,0.0,0.0
3101,57.0,36.0,300.0,0.0,0.0
3102,67.0,284.0,240.0,0.0,0.0
3103,52.0,4.0,210.0,0.0,0.0
3104,54.0,8.0,270.0,0.0,0.0
3105,69.0,348.0,270.0,0.0,0.0
3106,62.0,72.0,180.0,0.0,0.0
3107,71.0,4.0,270.0,0.0,0.0
3108,62.0,20.0,240.0,0.0,0.0
3109,55.0,88.0,330.0,0.0,0.0
3110,67.0,76.0,270.0,0.0,0.0
3111,69.0,236.0,330.0,0.0,0.0
3112,63.0,264.0,60.0,0.0,0.0
3113,60.0,16.0,330.0,0.0,0.0
3114,67.0,100.0,150.0,0.0,0.0
3115,62.0,24.0,150.0,0.0,0.0
3116,59.0,196.0,270.0,0.0,0.0
3117,54.0,8.0,120.0,0.0,0.0
3118,72.0,232.0,120.0,0.0,0.0
3119,69.0,12.0,90.0,0.0,0.0
3120,63.0,24.0,60.0,0.0,0.0
3121,72.0,32.0,120.0,0.0,0.0
3122,69.0,24.0,150.0,0.0,0.0
3123,54.0,108.0,150.0,0.0,0.0
3124,63.0,48.0,30.0,0.0,0.0
3125,71.0,180.0,90.0,0.0,0.0
3126,62.0,0.0,90.0,0.0,0.0
3127,67.0,28.0,30.0,0.0,0.0
3128,55.0,8.0,60.0,0.0,0.0
3129,71.0,0.0,90.0,0.0,0.0
3130,62.0,8.0,60.0,0.0,0.0
3131,67.0,212.0,90.0,0.0,0.0
3132,55.0,16.0,60.0,0.0,0.0
3133,71.0,124.0,120.0,0.0,0.0
3134,55.0,4.0,120.0,0.0,0.0
3135,62.0,8.0,90.0,0.0,0.0
3136,69.0,152.0,90.0,0.0,0.0
3137,60.0,8.0,60.0,0.0,0.0
3138,48.0,4.0,60.0,0.0,0.0
3139,63.0,8.0,30.0,0.0,0.0
3140,66.0,12.0,30.0,0.0,0.0
3141,69.0,0.0,90.0,0.0,0.0
3142,60.0,156.0,60.0,0.0,0.0
3143,63.0,0.0,30.0,0.0,0.0
3144,48.0,12.0,30.0,0.0,0.0
3145,66.0,16.0,30.0,0.0,0.0
3146,69.0,144.0,120.0,0.0,0.0
3147,63.0,16.0,30.0,0.0,0.0
3148,60.0,28.0,60.0,0.0,0.0
3149,48.0,24.0,30.0,0.0,0.0
3150,62.0,4.0,90.0,0.0,0.0
3151,67.0,136.0,120.0,0.0,0.0
3152,59.0,48.0,60.0,0.0,0.0
3153,47.0,16.0,30.0,0.0,0.0
3154,76.0,208.0,120.0,0.0,0.0
3155,67.0,8.0,90.0,0.0,0.0
3156,59.0,24.0,60.0,0.0,0.0
3157,62.0,4.0,90.0,0.0,0.0
3158,47.0,4.0,60.0,0.0,0.0
3159,74.0,536.0,150.0,0.0,0.0
3160,62.0,28.0,90.0,0.0,0.0
3161,67.0,0.0,90.0,0.0,0.0
3162,59.0,12.0,90.0,0.0,0.0
3163,47.0,16.0,60.0,0.0,0.0
3164,69.0,24.0,300.0,0.0,0.0
3165,42.0,8.0,240.0,0.0,0.0
3166,54.0,52.0,240.0,0.0,0.0
3167,62.0,176.0,330.0,0.0,0.0
3168,74.0,12.0,240.0,0.0,0.0
3169,72.0,4.0,60.0,0.0,0.0
3170,62.0,312.0,60.0,0.0,0.0
3171,42.0,16.0,30.0,0.0,0.0
3172,54.0,8.0,60.0,0.0,0.0
3173,69.0,4.0,30.0,0.0,0.0
3174,71.0,528.0,360.0,0.0,0.0
3175,67.0,8.0,240.0,0.0,0.0
3176,55.0,28.0,270.0,0.0,0.0
3177,43.0,56.0,270.0,0.0,0.0
3178,62.0,8.0,330.0,0.0,0.0
3179,71.0,32.0,270.0,0.0,0.0
3180,64.0,412.0,390.0,0.0,0.0
3181,59.0,52.0,360.0,0.0,0.0
3182,43.0,40.0,300.0,0.0,0.0
3183,31.0,20.0,270.0,0.0,0.0
3184,69.0,60.0,240.0,0.0,0.0
3185,64.0,128.0,360.0,0.0,0.0
3186,60.0,8.0,240.0,0.0,0.0
3187,45.0,56.0,300.0,0.0,0.0
3188,33.0,12.0,270.0,0.0,0.0
3189,69.0,304.0,60.0,0.0,0.0
3190,67.0,32.0,390.0,0.0,0.0
3191,57.0,144.0,390.0,0.0,0.0
3192,63.0,64.0,240.0,0.0,0.0
3193,47.0,60.0,300.0,0.0,0.0
3194,35.0,8.0,270.0,0.0,0.0
3195,66.0,264.0,90.0,0.0,0.0
3196,67.0,8.0,270.0,0.0,0.0
3197,40.0,20.0,240.0,0.0,0.0
3198,52.0,56.0,180.0,0.0,0.0
3199,55.0,64.0,300.0,0.0,0.0
3200,64.0,28.0,270.0,0.0,0.0
3201,62.0,140.0,120.0,0.0,0.0
3202,60.0,408.0,120.0,0.0,0.0
3203,67.0,16.0,330.0,0.0,0.0
3204,60.0,432.0,420.0,0.0,0.0
3205,55.0,20.0,330.0,0.0,0.0
3206,40.0,20.0,300.0,0.0,0.0
3207,28.0,44.0,330.0,0.0,0.0
3208,65.0,8.0,360.0,0.0,0.0
3209,61.0,24.0,360.0,0.0,0.0
3210,56.0,0.0,330.0,0.0,0.0
3211,29.0,24.0,300.0,0.0,0.0
3212,41.0,168.0,330.0,0.0,0.0
3213,65.0,300.0,60.0,0.0,0.0
3214,31.0,32.0,270.0,0.0,0.0
3215,55.0,16.0,360.0,0.0,0.0
3216,59.0,32.0,330.0,0.0,0.0
3217,63.0,4.0,360.0,0.0,0.0
3218,43.0,36.0,300.0,0.0,0.0
3219,53.0,160.0,390.0,0.0,0.0
3220,62.0,292.0,60.0,0.0,0.0
3221,60.0,160.0,480.0,0.0,0.0
3222,33.0,24.0,390.0,0.0,0.0
3223,45.0,60.0,420.0,0.0,0.0
3224,51.0,72.0,330.0,0.0,0.0
3225,54.0,84.0,240.0,0.0,0.0
3226,59.0,168.0,90.0,0.0,0.0
3227,60.0,136.0,120.0,0.0,0.0
3228,63.0,124.0,120.0,0.0,0.0
3229,66.0,36.0,150.0,0.0,0.0
3230,45.0,20.0,90.0,0.0,0.0
3231,54.0,8.0,120.0,0.0,0.0
3232,51.0,4.0,90.0,0.0,0.0
3233,71.0,20.0,30.0,0.0,0.0
3234,60.0,152.0,30.0,0.0,0.0
3235,72.0,124.0,60.0,0.0,64.0
3236,84.0,216.0,90.0,0.0,0.0
3237,83.0,80.0,150.0,0.0,0.0
3238,47.0,40.0,150.0,0.0,0.0
3239,50.0,20.0,210.0,0.0,0.0
3240,55.0,24.0,150.0,0.0,0.0
3241,81.0,16.0,180.0,0.0,0.0
3242,62.0,0.0,180.0,0.0,0.0
3243,79.0,192.0,60.0,0.0,0.0
3244,95.0,8.0,60.0,0.0,0.0
3245,97.0,220.0,30.0,0.0,0.0
3246,93.0,108.0,180.0,0.0,0.0
3247,49.0,44.0,300.0,0.0,0.0
3248,55.0,12.0,330.0,0.0,0.0
3249,57.0,8.0,330.0,0.0,0.0
3250,91.0,140.0,90.0,0.0,0.0
3251,64.0,148.0,240.0,0.0,0.0
3252,90.0,4.0,120.0,0.0,0.0
3253,88.0,44.0,150.0,0.0,0.0
3254,87.0,200.0,30.0,0.0,0.0
3255,88.0,128.0,120.0,0.0,0.0
3256,83.0,4.0,90.0,0.0,0.0
3257,79.0,16.0,60.0,0.0,0.0
3258,81.0,8.0,60.0,0.0,0.0
3259,78.0,44.0,60.0,0.0,0.0
3260,86.0,88.0,120.0,0.0,0.0
3261,85.0,8.0,90.0,0.0,0.0
3262,76.0,120.0,90.0,0.0,0.0
3263,79.0,32.0,30.0,0.0,0.0
3264,78.0,0.0,60.0,0.0,0.0
3265,83.0,0.0,60.0,0.0,0.0
3266,74.0,152.0,60.0,0.0,0.0
3267,81.0,0.0,60.0,0.0,0.0
3268,73.0,156.0,60.0,0.0,0.0
3269,76.0,4.0,60.0,0.0,0.0
3270,79.0,0.0,90.0,0.0,0.0
3271,71.0,132.0,60.0,0.0,0.0
3272,74.0,4.0,60.0,0.0,0.0
3273,78.0,4.0,60.0,0.0,0.0
3274,73.0,8.0,60.0,0.0,0.0
3275,69.0,152.0,60.0,0.0,0.0
3276,76.0,16.0,90.0,0.0,0.0
3277,71.0,116.0,90.0,0.0,0.0
3278,67.0,12.0,60.0,0.0,0.0
3279,69.0,0.0,90.0,0.0,0.0
3280,74.0,148.0,90.0,0.0,0.0
3281,66.0,4.0,60.0,0.0,0.0
3282,73.0,20.0,90.0,0.0,0.0
3283,64.0,100.0,90.0,0.0,0.0
3284,67.0,4.0,90.0,0.0,0.0
3285,71.0,4.0,60.0,0.0,0.0
3286,66.0,128.0,60.0,0.0,0.0
3287,62.0,8.0,60.0,0.0,0.0
3288,61.0,204.0,60.0,0.0,0.0
3289,69.0,16.0,60.0,0.0,0.0
3290,64.0,0.0,60.0,0.0,0.0
3291,67.0,4.0,120.0,0.0,0.0
3292,59.0,16.0,90.0,0.0,0.0
3293,62.0,112.0,120.0,0.0,0.0
3294,66.0,8.0,60.0,0.0,0.0
3295,57.0,132.0,60.0,0.0,0.0
3296,61.0,28.0,30.0,0.0,0.0
3297,64.0,108.0,90.0,0.0,0.0
3298,59.0,8.0,60.0,0.0,0.0
3299,55.0,16.0,60.0,0.0,0.0
3300,62.0,200.0,90.0,0.0,0.0
3301,57.0,36.0,30.0,0.0,0.0
3302,54.0,16.0,90.0,0.0,0.0
3303,61.0,160.0,150.0,0.0,0.0
3304,55.0,0.0,120.0,0.0,0.0
3305,52.0,20.0,270.0,0.0,0.0
3306,64.0,136.0,150.0,0.0,0.0
3307,59.0,132.0,210.0,0.0,0.0
3308,55.0,4.0,120.0,0.0,0.0
3309,50.0,60.0,120.0,0.0,0.0
3310,64.0,204.0,150.0,0.0,0.0
3311,57.0,56.0,210.0,0.0,0.0
3312,55.0,16.0,270.0,0.0,0.0
3313,49.0,28.0,270.0,0.0,0.0
3314,64.0,20.0,90.0,0.0,0.0
3315,66.0,24.0,120.0,0.0,0.0
3316,64.0,60.0,90.0,0.0,0.0
3317,63.0,144.0,90.0,0.0,0.0
3318,64.0,248.0,60.0,0.0,0.0
3319,71.0,120.0,150.0,0.0,0.0
3320,33.0,16.0,90.0,0.0,0.0
3321,69.0,160.0,90.0,0.0,0.0
3322,59.0,8.0,120.0,0.0,0.0
3323,55.0,24.0,60.0,0.0,0.0
3324,45.0,72.0,90.0,0.0,0.0
3325,61.0,300.0,60.0,0.0,0.0
3326,62.0,0.0,150.0,0.0,0.0
3327,54.0,0.0,150.0,0.0,0.0
3328,38.0,376.0,120.0,0.0,0.0
3329,62.0,92.0,480.0,0.0,0.0
3330,50.0,0.0,210.0,0.0,0.0
3331,30.0,48.0,150.0,0.0,0.0
3332,38.0,56.0,210.0,0.0,0.0
3333,60.0,168.0,90.0,0.0,0.0
3334,58.0,0.0,120.0,0.0,0.0
3335,31.0,28.0,90.0,0.0,0.0
3336,57.0,152.0,90.0,0.0,0.0
3337,64.0,92.0,150.0,0.0,0.0
3338,55.0,4.0,90.0,0.0,0.0
3339,62.0,32.0,120.0,0.0,0.0
3340,38.0,24.0,90.0,0.0,0.0
3341,46.0,20.0,30.0,0.0,0.0
3342,58.0,192.0,90.0,0.0,0.0
3343,66.0,20.0,120.0,0.0,0.0
3344,54.0,4.0,150.0,0.0,0.0
3345,26.0,88.0,120.0,0.0,0.0
3346,57.0,268.0,90.0,0.0,0.0
3347,62.0,124.0,450.0,0.0,0.0
3348,50.0,56.0,210.0,0.0,0.0
3349,30.0,20.0,150.0,0.0,0.0
3350,38.0,16.0,210.0,0.0,0.0
3351,60.0,132.0,120.0,0.0,0.0
3352,58.0,28.0,120.0,0.0,0.0
3353,31.0,20.0,60.0,0.0,0.0
3354,57.0,144.0,120.0,0.0,0.0
3355,64.0,80.0,150.0,0.0,0.0
3356,55.0,40.0,90.0,0.0,0.0
3357,46.0,12.0,60.0,0.0,0.0
3358,54.0,200.0,60.0,0.0,0.0
3359,33.0,16.0,90.0,0.0,0.0
3360,53.0,72.0,120.0,0.0,0.0
3361,55.0,236.0,30.0,0.0,0.0
3362,65.0,92.0,480.0,0.0,0.0
3363,53.0,40.0,420.0,0.0,0.0
3364,48.0,4.0,90.0,0.0,0.0
3365,41.0,164.0,90.0,0.0,0.0
3366,63.0,136.0,90.0,0.0,0.0
3367,62.0,16.0,150.0,0.0,0.0
3368,34.0,8.0,90.0,0.0,0.0
3369,60.0,132.0,90.0,0.0,0.0
3370,67.0,92.0,150.0,0.0,0.0
3371,58.0,12.0,120.0,0.0,0.0
3372,50.0,8.0,60.0,0.0,0.0
3373,65.0,44.0,60.0,0.0,0.0
3374,41.0,8.0,60.0,0.0,0.0
3375,62.0,176.0,60.0,0.0,0.0
3376,57.0,8.0,150.0,0.0,0.0
3377,37.0,60.0,60.0,0.0,0.0
3378,58.0,276.0,20.0,0.0,0.0
3379,69.0,44.0,420.0,0.0,0.0
3380,57.0,36.0,270.0,0.0,0.0
3381,52.0,0.0,90.0,0.0,0.0
3382,45.0,156.0,90.0,0.0,0.0
3383,67.0,76.0,150.0,0.0,0.0
3384,66.0,96.0,120.0,0.0,0.0
3385,38.0,24.0,60.0,0.0,0.0
3386,63.0,68.0,60.0,0.0,0.0
3387,42.0,76.0,60.0,0.0,0.0
3388,50.0,8.0,90.0,0.0,0.0
3389,72.0,8.0,150.0,0.0,0.0
3390,62.0,20.0,120.0,0.0,0.0
3391,69.0,108.0,120.0,0.0,0.0
3392,57.0,76.0,30.0,0.0,0.0
3393,63.0,104.0,90.0,0.0,0.0
3394,43.0,56.0,30.0,0.0,0.0
3395,50.0,12.0,90.0,0.0,0.0
3396,70.0,452.0,90.0,0.0,0.0
3397,62.0,0.0,60.0,0.0,0.0
3398,67.0,24.0,20.0,0.0,0.0
3399,58.0,28.0,30.0,0.0,0.0
3400,63.0,68.0,150.0,0.0,0.0
3401,51.0,48.0,90.0,0.0,0.0
3402,26.0,16.0,180.0,0.0,0.0
3403,38.0,24.0,210.0,0.0,0.0
3404,62.0,128.0,120.0,0.0,0.0
3405,58.0,28.0,90.0,0.0,0.0
3406,57.0,8.0,90.0,0.0,0.0
3407,60.0,148.0,60.0,0.0,0.0
3408,58.0,220.0,90.0,0.0,0.0
3409,57.0,16.0,180.0,0.0,0.0
3410,63.0,4.0,150.0,0.0,0.0
3411,54.0,0.0,120.0,0.0,0.0
3412,48.0,24.0,120.0,0.0,0.0
3413,60.0,208.0,30.0,0.0,0.0
3414,50.0,96.0,90.0,0.0,0.0
3415,51.0,292.0,30.0,0.0,0.0
3416,62.0,68.0,210.0,0.0,0.0
3417,50.0,24.0,150.0,0.0,0.0
3418,26.0,36.0,240.0,0.0,0.0
3419,60.0,120.0,120.0,0.0,0.0
3420,57.0,4.0,120.0,0.0,0.0
3421,58.0,104.0,90.0,0.0,0.0
3422,55.0,16.0,60.0,0.0,0.0
3423,57.0,28.0,60.0,0.0,0.0
3424,60.0,192.0,90.0,0.0,0.0
3425,63.0,40.0,120.0,0.0,0.0
3426,55.0,16.0,180.0,0.0,0.0
3427,46.0,8.0,150.0,0.0,0.0
3428,62.0,208.0,60.0,0.0,0.0
3429,58.0,12.0,15.0,0.0,0.0
3430,48.0,80.0,120.0,0.0,0.0
3431,50.0,264.0,60.0,0.0,0.0
3432,60.0,112.0,150.0,0.0,0.0
3433,48.0,12.0,150.0,0.0,0.0
3434,26.0,108.0,270.0,0.0,0.0
3435,58.0,16.0,150.0,0.0,0.0
3436,55.0,28.0,90.0,0.0,0.0
3437,57.0,160.0,120.0,0.0,0.0
3438,54.0,20.0,90.0,0.0,0.0
3439,55.0,180.0,150.0,0.0,0.0
3440,54.0,40.0,180.0,0.0,0.0
3441,60.0,12.0,150.0,0.0,0.0
3442,51.0,12.0,150.0,0.0,0.0
3443,48.0,4.0,150.0,0.0,0.0
3444,57.0,184.0,60.0,0.0,0.0
3445,46.0,104.0,90.0,0.0,0.0
3446,48.0,220.0,30.0,0.0,0.0
3447,58.0,84.0,180.0,0.0,0.0
3448,46.0,80.0,90.0,0.0,0.0
3449,26.0,16.0,210.0,0.0,0.0
3450,57.0,136.0,120.0,0.0,0.0
3451,54.0,8.0,90.0,0.0,0.0
3452,55.0,104.0,120.0,0.0,0.0
3453,52.0,16.0,90.0,0.0,0.0
3454,54.0,60.0,60.0,0.0,0.0
3455,57.0,232.0,120.0,0.0,0.0
3456,60.0,60.0,180.0,0.0,0.0
3457,49.0,8.0,210.0,0.0,0.0
3458,45.0,300.0,270.0,0.0,0.0
3459,52.0,16.0,240.0,0.0,0.0
3460,58.0,4.0,390.0,0.0,0.0
3461,55.0,24.0,30.0,0.0,0.0
3462,54.0,216.0,180.0,0.0,0.0
3463,38.0,8.0,150.0,0.0,0.0
3464,57.0,100.0,240.0,0.0,0.0
3465,48.0,92.0,180.0,0.0,0.0
3466,45.0,40.0,780.0,0.0,0.0
3467,51.0,56.0,720.0,0.0,0.0
3468,55.0,116.0,120.0,0.0,0.0
3469,58.0,180.0,90.0,0.0,0.0
3470,57.0,148.0,120.0,0.0,0.0
3471,54.0,36.0,120.0,0.0,0.0
3472,57.0,188.0,120.0,0.0,0.0
3473,50.0,112.0,150.0,0.0,0.0
3474,38.0,36.0,240.0,0.0,0.0
3475,54.0,244.0,150.0,0.0,0.0
3476,48.0,68.0,210.0,0.0,0.0
3477,51.0,16.0,660.0,0.0,0.0
3478,45.0,4.0,660.0,0.0,0.0
3479,55.0,108.0,120.0,0.0,0.0
3480,58.0,160.0,90.0,0.0,0.0
3481,57.0,116.0,120.0,0.0,0.0
3482,54.0,132.0,120.0,0.0,0.0
3483,57.0,204.0,120.0,0.0,0.0
3484,50.0,16.0,150.0,0.0,0.0
3485,38.0,76.0,150.0,0.0,0.0
3486,54.0,176.0,90.0,0.0,0.0
3487,48.0,112.0,120.0,0.0,0.0
3488,51.0,236.0,480.0,0.0,0.0
3489,45.0,8.0,1500.0,0.0,0.0
3490,55.0,132.0,90.0,0.0,0.0
3491,58.0,108.0,90.0,0.0,0.0
3492,57.0,0.0,60.0,0.0,0.0
3493,54.0,88.0,150.0,0.0,0.0
3494,50.0,52.0,900.0,0.0,0.0
3495,57.0,144.0,120.0,0.0,0.0
3496,62.0,120.0,120.0,0.0,0.0
3497,60.0,172.0,90.0,0.0,0.0
3498,57.0,120.0,150.0,0.0,0.0
3499,62.0,104.0,120.0,0.0,0.0
3500,65.0,112.0,150.0,0.0,0.0
3501,63.0,136.0,90.0,0.0,0.0
3502,60.0,172.0,90.0,0.0,0.0
3503,67.0,164.0,120.0,0.0,0.0
3504,70.0,100.0,150.0,0.0,0.0
3505,26.0,36.0,1020.0,0.0,0.0
3506,69.0,200.0,90.0,0.0,0.0
3507,66.0,92.0,150.0,0.0,0.0
3508,70.0,136.0,120.0,0.0,0.0
3509,74.0,124.0,120.0,0.0,0.0
3510,72.0,136.0,90.0,0.0,0.0
3511,69.0,104.0,120.0,0.0,0.0
3512,74.0,164.0,120.0,0.0,0.0
3513,77.0,124.0,150.0,0.0,0.0
3514,75.0,128.0,120.0,0.0,0.0
3515,72.0,152.0,120.0,0.0,0.0
3516,50.0,4.0,240.0,0.0,0.0
3517,79.0,144.0,120.0,0.0,0.0
3518,82.0,108.0,150.0,0.0,0.0
3519,57.0,68.0,1830.0,0.0,0.0
3520,81.0,132.0,120.0,0.0,0.0
3521,78.0,152.0,120.0,0.0,0.0
3522,60.0,16.0,1530.0,0.0,0.0
3523,82.0,148.0,120.0,0.0,0.0
3524,86.0,100.0,150.0,0.0,0.0
3525,66.0,12.0,1230.0,0.0,0.0
3526,84.0,292.0,90.0,0.0,0.0
3527,81.0,20.0,390.0,0.0,0.0
3528,89.0,128.0,120.0,0.0,0.0
3529,88.0,124.0,120.0,0.0,0.0
3530,87.0,68.0,90.0,0.0,0.0
3531,86.0,244.0,20.0,0.0,0.0
3532,85.0,144.0,150.0,0.0,0.0
3533,84.0,52.0,210.0,0.0,0.0
3534,94.0,148.0,120.0,0.0,0.0
3535,93.0,136.0,120.0,0.0,0.0
3536,90.0,160.0,120.0,0.0,0.0
3537,86.0,60.0,150.0,0.0,0.0
3538,84.0,168.0,60.0,0.0,0.0
3539,81.0,132.0,90.0,0.0,0.0
3540,78.0,236.0,60.0,0.0,0.0
3541,74.0,76.0,150.0,0.0,0.0
3542,72.0,172.0,90.0,0.0,0.0
3543,70.0,148.0,120.0,0.0,0.0
3544,69.0,164.0,120.0,0.0,0.0
3545,66.0,104.0,150.0,0.0,0.0
3546,62.0,160.0,90.0,0.0,0.0
3547,60.0,136.0,120.0,0.0,0.0
3548,57.0,152.0,120.0,0.0,0.0
3549,54.0,148.0,120.0,0.0,0.0
3550,50.0,144.0,120.0,0.0,0.0
3551,48.0,176.0,120.0,0.0,0.0
3552,45.0,148.0,150.0,0.0,0.0
3553,42.0,200.0,150.0,0.0,0.0
3554,37.0,184.0,180.0,0.0,0.0
3555,40.0,248.0,180.0,0.0,0.0
3556,38.0,180.0,210.0,0.0,0.0
3557,31.0,208.0,90.0,0.0,0.0
3558,47.0,260.0,60.0,0.0,0.0
3559,55.0,336.0,120.0,0.0,0.0
3560,71.0,136.0,990.0,0.0,0.0
3561,50.0,148.0,120.0,0.0,0.0
3562,59.0,44.0,120.0,0.0,0.0
3563,47.0,224.0,20.0,0.0,0.0
3564,38.0,140.0,120.0,0.0,0.0
3565,47.0,132.0,90.0,0.0,0.0
3566,55.0,40.0,90.0,0.0,0.0
3567,50.0,180.0,120.0,0.0,0.0
3568,72.0,48.0,300.0,0.0,0.0
3569,47.0,20.0,120.0,0.0,0.0
3570,59.0,196.0,60.0,0.0,0.0
3571,71.0,180.0,150.0,0.0,0.0
3572,69.0,124.0,450.0,0.0,0.0
3573,43.0,132.0,120.0,0.0,0.0
3574,47.0,112.0,120.0,0.0,0.0
3575,55.0,52.0,90.0,0.0,0.0
3576,50.0,168.0,90.0,0.0,0.0
3577,67.0,172.0,900.0,0.0,0.0
3578,47.0,52.0,150.0,0.0,0.0
3579,59.0,272.0,20.0,0.0,0.0
3580,38.0,132.0,120.0,0.0,0.0
3581,47.0,108.0,90.0,0.0,0.0
3582,55.0,64.0,60.0,0.0,0.0
3583,59.0,152.0,180.0,0.0,0.0
3584,50.0,24.0,120.0,0.0,0.0
3585,47.0,32.0,180.0,0.0,0.0
3586,66.0,52.0,330.0,0.0,0.0
3587,59.0,216.0,20.0,0.0,0.0
3588,64.0,156.0,240.0,0.0,0.0
3589,31.0,164.0,90.0,0.0,0.0
3590,47.0,0.0,150.0,0.0,0.0
3591,62.0,108.0,150.0,0.0,0.0
3592,55.0,152.0,90.0,0.0,0.0
3593,66.0,8.0,180.0,0.0,0.0
3594,50.0,92.0,120.0,0.0,0.0
3595,67.0,176.0,180.0,0.0,0.0
3596,47.0,120.0,60.0,0.0,0.0
3597,70.0,164.0,180.0,0.0,0.0
3598,43.0,28.0,90.0,0.0,0.0
3599,71.0,220.0,120.0,0.0,0.0
3600,47.0,176.0,300.0,0.0,0.0
3601,55.0,24.0,210.0,0.0,0.0
3602,76.0,128.0,450.0,0.0,0.0
3603,52.0,116.0,180.0,0.0,0.0
3604,47.0,100.0,150.0,0.0,0.0
3605,59.0,12.0,90.0,0.0,0.0
3606,74.0,272.0,90.0,0.0,0.0
3607,74.0,104.0,450.0,0.0,0.0
3608,45.0,108.0,150.0,0.0,0.0
3609,48.0,160.0,90.0,0.0,0.0
3610,57.0,60.0,270.0,0.0,0.0
3611,72.0,332.0,1380.0,0.0,0.0
3612,52.0,96.0,120.0,0.0,0.0
3613,48.0,96.0,90.0,0.0,0.0
3614,60.0,416.0,30.0,0.0,0.0
3615,45.0,156.0,300.0,0.0,0.0
3616,48.0,12.0,120.0,0.0,0.0
3617,57.0,380.0,150.0,0.0,0.0
3618,53.0,48.0,330.0,0.0,0.0
3619,48.0,8.0,240.0,0.0,0.0
3620,60.0,12.0,30.0,0.0,0.0
3621,72.0,136.0,1200.0,0.0,0.0
3622,33.0,284.0,60.0,0.0,0.0
3623,48.0,104.0,150.0,0.0,0.0
3624,57.0,176.0,90.0,0.0,0.0
3625,54.0,120.0,150.0,0.0,0.0
3626,48.0,284.0,120.0,0.0,0.0
3627,42.0,128.0,90.0,0.0,0.0
3628,48.0,20.0,90.0,0.0,0.0
3629,68.0,80.0,240.0,0.0,0.0
3630,57.0,68.0,120.0,0.0,0.0
3631,54.0,124.0,120.0,0.0,0.0
3632,71.0,52.0,240.0,0.0,0.0
3633,48.0,20.0,120.0,0.0,0.0
3634,69.0,276.0,90.0,0.0,0.0
3635,60.0,40.0,30.0,0.0,0.0
3636,69.0,152.0,1320.0,0.0,0.0
3637,45.0,112.0,120.0,0.0,0.0
3638,48.0,124.0,90.0,0.0,0.0
3639,57.0,144.0,90.0,0.0,0.0
3640,60.0,164.0,90.0,0.0,0.0
3641,54.0,4.0,60.0,0.0,0.0
3642,48.0,68.0,90.0,0.0,0.0
3643,60.0,236.0,30.0,0.0,0.0
3644,42.0,124.0,120.0,0.0,0.0
3645,48.0,136.0,90.0,0.0,0.0
3646,57.0,64.0,90.0,0.0,0.0
3647,64.0,156.0,330.0,0.0,0.0
3648,54.0,92.0,120.0,0.0,0.0
3649,48.0,32.0,90.0,0.0,0.0
3650,60.0,40.0,30.0,0.0,0.0
3651,66.0,96.0,90.0,0.0,0.0
3652,64.0,60.0,240.0,0.0,0.0
3653,33.0,152.0,60.0,0.0,0.0
3654,48.0,100.0,90.0,0.0,0.0
3655,62.0,32.0,150.0,0.0,0.0
3656,57.0,176.0,90.0,0.0,0.0
3657,66.0,64.0,180.0,0.0,0.0
3658,54.0,24.0,120.0,0.0,0.0
3659,48.0,52.0,90.0,0.0,0.0
3660,67.0,180.0,180.0,0.0,0.0
3661,60.0,84.0,30.0,0.0,0.0
3662,69.0,96.0,180.0,0.0,0.0
3663,45.0,40.0,90.0,0.0,0.0
3664,48.0,96.0,120.0,0.0,0.0
3665,72.0,188.0,180.0,0.0,0.0
3666,57.0,24.0,90.0,0.0,0.0
3667,54.0,120.0,150.0,0.0,0.0
3668,78.0,200.0,360.0,0.0,0.0
3669,48.0,52.0,120.0,0.0,0.0
3670,60.0,44.0,30.0,0.0,0.0
3671,76.0,200.0,180.0,0.0,0.0
3672,46.0,100.0,180.0,0.0,0.0
3673,73.0,232.0,300.0,0.0,0.0
3674,55.0,44.0,90.0,0.0,0.0
3675,64.0,396.0,420.0,0.0,0.0
3676,61.0,116.0,90.0,0.0,0.0
3677,55.0,56.0,90.0,0.0,0.0
3678,67.0,48.0,1230.0,0.0,0.0
3679,47.0,156.0,270.0,0.0,0.0
3680,74.0,36.0,390.0,0.0,0.0
3681,50.0,104.0,150.0,0.0,0.0
3682,62.0,212.0,150.0,0.0,0.0
3683,72.0,60.0,450.0,0.0,0.0
3684,55.0,208.0,150.0,0.0,0.0
3685,50.0,28.0,180.0,0.0,0.0
3686,62.0,28.0,30.0,0.0,0.0
3687,71.0,260.0,60.0,0.0,0.0
3688,71.0,60.0,750.0,0.0,0.0
3689,47.0,128.0,150.0,0.0,0.0
3690,54.0,152.0,120.0,0.0,0.0
3691,63.0,112.0,120.0,0.0,0.0
3692,57.0,168.0,120.0,0.0,0.0
3693,54.0,112.0,180.0,0.0,0.0
3694,69.0,292.0,300.0,0.0,0.0
3695,63.0,76.0,90.0,0.0,0.0
3696,67.0,152.0,450.0,0.0,0.0
3697,52.0,100.0,330.0,0.0,0.0
3698,64.0,52.0,120.0,0.0,0.0
3699,59.0,4.0,30.0,0.0,0.0
3700,69.0,32.0,420.0,0.0,0.0
3701,45.0,236.0,90.0,0.0,0.0
3702,61.0,56.0,120.0,0.0,0.0
3703,55.0,88.0,90.0,0.0,0.0
3704,64.0,280.0,120.0,0.0,0.0
3705,67.0,72.0,270.0,0.0,0.0
3706,50.0,144.0,330.0,0.0,0.0
3707,60.0,8.0,150.0,0.0,0.0
3708,66.0,12.0,90.0,0.0,0.0
3709,57.0,24.0,30.0,0.0,0.0
3710,66.0,152.0,60.0,0.0,0.0
3711,64.0,128.0,330.0,0.0,0.0
3712,38.0,192.0,60.0,0.0,0.0
3713,60.0,12.0,60.0,0.0,0.0
3714,62.0,28.0,150.0,0.0,0.0
3715,54.0,292.0,60.0,0.0,0.0
3716,62.0,184.0,570.0,0.0,0.0
3717,43.0,88.0,120.0,0.0,0.0
3718,50.0,180.0,60.0,0.0,0.0
3719,59.0,100.0,90.0,0.0,0.0
3720,71.0,20.0,210.0,0.0,0.0
3721,55.0,124.0,210.0,0.0,0.0
3722,50.0,40.0,180.0,0.0,0.0
3723,62.0,184.0,60.0,0.0,0.0
3724,71.0,252.0,90.0,0.0,0.0
3725,71.0,88.0,780.0,0.0,0.0
3726,48.0,132.0,150.0,0.0,0.0
3727,54.0,108.0,150.0,0.0,0.0
3728,63.0,164.0,90.0,0.0,0.0
3729,57.0,184.0,120.0,0.0,0.0
3730,54.0,40.0,210.0,0.0,0.0
3731,69.0,168.0,480.0,0.0,0.0
3732,63.0,276.0,60.0,0.0,0.0
3733,47.0,48.0,150.0,0.0,0.0
3734,66.0,48.0,180.0,0.0,0.0
3735,50.0,104.0,240.0,0.0,0.0
3736,67.0,88.0,210.0,0.0,0.0
3737,62.0,48.0,120.0,0.0,0.0
3738,69.0,128.0,150.0,0.0,0.0
3739,55.0,36.0,120.0,0.0,0.0
3740,72.0,8.0,120.0,0.0,0.0
3741,50.0,64.0,120.0,0.0,0.0
3742,62.0,48.0,30.0,0.0,0.0
3743,71.0,316.0,90.0,0.0,0.0
3744,62.0,192.0,540.0,0.0,0.0
3745,42.0,124.0,120.0,0.0,0.0
3746,50.0,244.0,120.0,0.0,0.0
3747,60.0,0.0,390.0,0.0,0.0
3748,66.0,136.0,210.0,0.0,0.0
3749,57.0,84.0,330.0,0.0,0.0
3750,64.0,76.0,300.0,0.0,0.0
3751,50.0,4.0,210.0,0.0,0.0
3752,60.0,64.0,30.0,0.0,0.0
3753,62.0,244.0,60.0,0.0,0.0
3754,62.0,92.0,390.0,0.0,0.0
3755,43.0,116.0,120.0,0.0,0.0
3756,50.0,76.0,90.0,0.0,0.0
3757,64.0,96.0,120.0,0.0,0.0
3758,59.0,56.0,210.0,0.0,0.0
3759,66.0,28.0,90.0,0.0,0.0
3760,64.0,72.0,90.0,0.0,0.0
3761,55.0,44.0,180.0,0.0,0.0
3762,66.0,28.0,90.0,0.0,0.0
3763,64.0,72.0,60.0,0.0,0.0
3764,66.0,136.0,60.0,0.0,0.0
3765,49.0,4.0,330.0,0.0,0.0
3766,66.0,60.0,90.0,0.0,0.0
3767,64.0,76.0,90.0,0.0,0.0
3768,59.0,24.0,90.0,0.0,0.0
3769,62.0,168.0,120.0,0.0,0.0
3770,64.0,216.0,150.0,0.0,0.0
3771,66.0,140.0,570.0,0.0,0.0
3772,42.0,124.0,150.0,0.0,0.0
3773,50.0,212.0,120.0,0.0,0.0
3774,59.0,16.0,180.0,0.0,0.0
3775,65.0,132.0,420.0,0.0,0.0
3776,54.0,88.0,150.0,0.0,0.0
3777,50.0,140.0,60.0,0.0,0.0
3778,42.0,60.0,60.0,0.0,0.0
3779,66.0,168.0,150.0,0.0,0.0
3780,67.0,52.0,240.0,0.0,0.0
3781,40.0,80.0,150.0,0.0,0.0
3782,49.0,112.0,120.0,0.0,0.0
3783,70.0,152.0,240.0,0.0,0.0
3784,56.0,44.0,60.0,0.0,0.0
3785,55.0,28.0,30.0,0.0,0.0
3786,71.0,200.0,210.0,0.0,0.0
3787,52.0,28.0,120.0,0.0,0.0
3788,49.0,44.0,20.0,0.0,0.0
3789,73.0,180.0,300.0,0.0,0.0
3790,40.0,104.0,60.0,0.0,0.0
3791,74.0,40.0,300.0,0.0,0.0
3792,38.0,100.0,150.0,0.0,0.0
3793,47.0,196.0,150.0,0.0,0.0
3794,79.0,120.0,270.0,0.0,0.0
3795,78.0,256.0,270.0,0.0,0.0
3796,59.0,172.0,30.0,0.0,0.0
3797,74.0,168.0,270.0,0.0,0.0
3798,71.0,76.0,240.0,0.0,0.0
3799,40.0,60.0,150.0,0.0,0.0
3800,47.0,36.0,150.0,0.0,0.0
3801,67.0,96.0,120.0,0.0,0.0
3802,49.0,112.0,120.0,0.0,0.0
3803,55.0,160.0,90.0,0.0,0.0
3804,59.0,228.0,210.0,0.0,0.0
3805,64.0,376.0,210.0,0.0,0.0
3806,62.0,140.0,450.0,0.0,0.0
3807,42.0,24.0,900.0,0.0,0.0
3808,47.0,116.0,120.0,0.0,0.0
3809,54.0,4.0,240.0,0.0,0.0
3810,67.0,140.0,150.0,0.0,0.0
3811,66.0,128.0,960.0,0.0,0.0
3812,50.0,212.0,120.0,0.0,0.0
3813,47.0,0.0,180.0,0.0,0.0
3814,54.0,448.0,30.0,0.0,0.0
3815,30.0,40.0,240.0,0.0,0.0
3816,42.0,100.0,60.0,0.0,0.0
3817,56.0,88.0,90.0,0.0,0.0
3818,49.0,28.0,210.0,0.0,0.0
3819,58.0,48.0,60.0,0.0,0.0
3820,59.0,68.0,60.0,0.0,0.0
3821,58.0,68.0,60.0,0.0,0.0
3822,52.0,20.0,240.0,0.0,0.0
3823,55.0,52.0,150.0,0.0,0.0
3824,59.0,16.0,60.0,0.0,0.0
3825,58.0,48.0,60.0,0.0,0.0
3826,59.0,72.0,60.0,0.0,0.0
3827,50.0,16.0,210.0,0.0,0.0
3828,54.0,60.0,240.0,0.0,0.0
3829,58.0,80.0,60.0,0.0,0.0
3830,59.0,80.0,60.0,0.0,0.0
3831,58.0,16.0,60.0,0.0,0.0
3832,59.0,28.0,90.0,0.0,0.0
3833,49.0,12.0,90.0,0.0,0.0
3834,52.0,88.0,90.0,0.0,64.0
3835,58.0,28.0,60.0,0.0,64.0
3836,59.0,100.0,90.0,0.0,0.0
3837,58.0,100.0,90.0,0.0,0.0
3838,56.0,136.0,90.0,0.0,0.0
3839,58.0,196.0,120.0,0.0,0.0
3840,59.0,188.0,480.0,0.0,0.0
3841,35.0,140.0,150.0,0.0,0.0
3842,42.0,60.0,120.0,0.0,0.0
3843,50.0,120.0,30.0,0.0,0.0
3844,47.0,136.0,180.0,0.0,0.0
3845,71.0,48.0,840.0,0.0,0.0
3846,54.0,48.0,150.0,0.0,0.0
3847,59.0,204.0,60.0,0.0,0.0
3848,62.0,108.0,120.0,0.0,0.0
3849,59.0,148.0,90.0,0.0,0.0
3850,54.0,32.0,120.0,0.0,0.0
3851,50.0,232.0,60.0,0.0,0.0
3852,64.0,120.0,180.0,0.0,0.0
3853,71.0,124.0,660.0,0.0,0.0
3854,59.0,152.0,120.0,0.0,0.0
3855,54.0,144.0,120.0,0.0,0.0
3856,50.0,204.0,120.0,0.0,0.0
3857,62.0,32.0,180.0,0.0,0.0
3858,72.0,8.0,240.0,0.0,0.0
3859,60.0,136.0,90.0,0.0,0.0
3860,57.0,104.0,120.0,0.0,0.0
3861,69.0,100.0,90.0,0.0,0.0
3862,50.0,24.0,60.0,0.0,0.0
3863,64.0,128.0,90.0,0.0,0.0
3864,64.0,48.0,120.0,0.0,0.0
3865,60.0,52.0,60.0,0.0,0.0
3866,57.0,136.0,60.0,0.0,0.0
3867,66.0,68.0,180.0,0.0,0.0
3868,50.0,100.0,90.0,0.0,0.0
3869,62.0,84.0,150.0,0.0,0.0
3870,67.0,104.0,510.0,0.0,0.0
3871,59.0,140.0,90.0,0.0,0.0
3872,55.0,72.0,90.0,0.0,0.0
3873,50.0,184.0,60.0,0.0,0.0
3874,64.0,4.0,150.0,0.0,0.0
3875,69.0,88.0,480.0,0.0,0.0
3876,60.0,108.0,90.0,0.0,0.0
3877,54.0,240.0,90.0,0.0,0.0
3878,50.0,40.0,270.0,0.0,0.0
3879,62.0,20.0,150.0,0.0,0.0
3880,71.0,52.0,570.0,0.0,0.0
3881,59.0,100.0,90.0,0.0,0.0
3882,55.0,184.0,60.0,0.0,0.0
3883,50.0,52.0,150.0,0.0,0.0
3884,62.0,84.0,120.0,0.0,0.0
3885,59.0,120.0,150.0,0.0,0.0
3886,76.0,148.0,330.0,0.0,0.0
3887,56.0,120.0,90.0,0.0,0.0
3888,50.0,20.0,90.0,0.0,0.0
3889,62.0,88.0,210.0,0.0,0.0
3890,74.0,80.0,120.0,0.0,0.0
3891,60.0,56.0,90.0,0.0,0.0
3892,76.0,68.0,120.0,0.0,0.0
3893,57.0,88.0,90.0,0.0,0.0
3894,74.0,28.0,120.0,0.0,0.0
3895,50.0,140.0,90.0,0.0,0.0
3896,64.0,128.0,120.0,0.0,0.0
3897,72.0,60.0,60.0,0.0,0.0
3898,72.0,88.0,150.0,0.0,0.0
3899,60.0,44.0,120.0,0.0,0.0
3900,54.0,8.0,120.0,0.0,0.0
3901,71.0,168.0,90.0,0.0,0.0
3902,50.0,60.0,120.0,0.0,0.0
3903,70.0,88.0,90.0,0.0,0.0
3904,62.0,72.0,120.0,0.0,0.0
3905,71.0,32.0,180.0,0.0,0.0
3906,59.0,80.0,90.0,0.0,0.0
3907,55.0,80.0,90.0,0.0,0.0
3908,67.0,4.0,90.0,0.0,0.0
3909,50.0,132.0,30.0,0.0,0.0
3910,64.0,144.0,60.0,0.0,0.0
3911,64.0,12.0,180.0,0.0,0.0
3912,60.0,92.0,60.0,0.0,0.0
3913,57.0,224.0,90.0,0.0,0.0
3914,66.0,80.0,210.0,0.0,0.0
3915,50.0,28.0,300.0,0.0,0.0
3916,62.0,52.0,150.0,0.0,0.0
3917,67.0,36.0,210.0,0.0,0.0
3918,59.0,100.0,90.0,0.0,0.0
3919,55.0,76.0,120.0,0.0,0.0
3920,68.0,140.0,360.0,0.0,0.0
3921,50.0,164.0,90.0,0.0,0.0
3922,64.0,100.0,120.0,0.0,0.0
3923,60.0,0.0,90.0,0.0,0.0
3924,69.0,204.0,210.0,0.0,0.0
3925,54.0,52.0,90.0,0.0,0.0
3926,50.0,32.0,300.0,0.0,0.0
3927,70.0,48.0,210.0,0.0,0.0
3928,62.0,16.0,120.0,0.0,0.0
3929,71.0,12.0,210.0,0.0,0.0
3930,59.0,120.0,90.0,0.0,0.0
3931,55.0,208.0,120.0,0.0,0.0
3932,72.0,80.0,210.0,0.0,0.0
3933,50.0,44.0,300.0,0.0,0.0
3934,62.0,12.0,180.0,0.0,0.0
3935,73.0,112.0,150.0,0.0,0.0
3936,58.0,36.0,90.0,0.0,0.0
3937,55.0,76.0,120.0,0.0,0.0
3938,78.0,160.0,150.0,0.0,0.0
3939,50.0,108.0,390.0,0.0,0.0
3940,76.0,64.0,150.0,0.0,0.0
3941,62.0,88.0,180.0,0.0,0.0
3942,74.0,240.0,1200.0,0.0,0.0
3943,57.0,24.0,120.0,0.0,0.0
3944,55.0,312.0,120.0,0.0,0.0
3945,50.0,32.0,360.0,0.0,0.0
3946,62.0,56.0,180.0,0.0,0.0
3947,57.0,116.0,120.0,0.0,0.0
3948,54.0,140.0,90.0,0.0,0.0
3949,48.0,100.0,120.0,0.0,0.0
3950,62.0,168.0,60.0,0.0,0.0
3951,79.0,32.0,330.0,0.0,0.0
3952,74.0,112.0,570.0,0.0,0.0
3953,67.0,120.0,330.0,0.0,0.0
3954,47.0,104.0,120.0,0.0,0.0
3955,50.0,28.0,90.0,0.0,0.0
3956,55.0,92.0,150.0,0.0,0.0
3957,50.0,168.0,270.0,0.0,0.0
3958,78.0,176.0,270.0,0.0,0.0
3959,66.0,12.0,240.0,0.0,0.0
3960,62.0,16.0,60.0,0.0,0.0
3961,76.0,124.0,120.0,0.0,0.0
3962,64.0,48.0,60.0,0.0,0.0
3963,78.0,28.0,180.0,0.0,0.0
3964,74.0,124.0,240.0,0.0,0.0
3965,66.0,36.0,210.0,0.0,0.0
3966,72.0,112.0,30.0,0.0,0.0
3967,45.0,4.0,120.0,0.0,0.0
3968,50.0,152.0,570.0,0.0,0.0
3969,64.0,4.0,60.0,0.0,0.0
3970,76.0,164.0,60.0,0.0,0.0
3971,60.0,8.0,30.0,0.0,0.0
3972,54.0,12.0,300.0,0.0,0.0
3973,76.0,160.0,60.0,0.0,0.0
3974,64.0,4.0,60.0,0.0,0.0
3975,74.0,16.0,150.0,0.0,0.0
3976,62.0,8.0,150.0,0.0,0.0
3977,60.0,32.0,120.0,0.0,0.0
3978,73.0,344.0,90.0,0.0,0.0
3979,61.0,24.0,60.0,0.0,0.0
3980,43.0,84.0,210.0,0.0,0.0
3981,76.0,24.0,210.0,0.0,0.0
3982,71.0,8.0,330.0,0.0,0.0
3983,64.0,96.0,240.0,0.0,0.0
3984,67.0,44.0,330.0,0.0,0.0
3985,50.0,8.0,90.0,0.0,0.0
3986,59.0,96.0,90.0,0.0,0.0
3987,74.0,108.0,120.0,0.0,0.0
3988,62.0,36.0,60.0,0.0,0.0
3989,55.0,88.0,210.0,0.0,0.0
3990,50.0,12.0,120.0,0.0,0.0
3991,62.0,192.0,120.0,0.0,0.0
3992,74.0,4.0,90.0,0.0,0.0
3993,72.0,136.0,60.0,0.0,0.0
3994,60.0,0.0,60.0,0.0,0.0
3995,71.0,156.0,60.0,0.0,0.0
3996,59.0,12.0,60.0,0.0,0.0
3997,71.0,20.0,330.0,0.0,0.0
3998,59.0,56.0,270.0,0.0,0.0
3999,66.0,100.0,360.0,0.0,0.0
4000,63.0,76.0,30.0,0.0,0.0
4001,48.0,88.0,120.0,0.0,0.0
4002,51.0,36.0,90.0,0.0,0.0
4003,63.0,20.0,150.0,0.0,0.0
4004,54.0,20.0,90.0,0.0,0.0
4005,51.0,12.0,390.0,0.0,0.0
4006,57.0,48.0,60.0,0.0,0.0
4007,69.0,240.0,90.0,0.0,0.0
4008,54.0,24.0,390.0,0.0,0.0
4009,59.0,20.0,210.0,0.0,0.0
4010,71.0,24.0,270.0,0.0,0.0
4011,66.0,120.0,300.0,0.0,0.0
4012,63.0,32.0,90.0,0.0,0.0
4013,60.0,56.0,30.0,0.0,0.0
4014,72.0,156.0,90.0,0.0,0.0
4015,67.0,120.0,60.0,0.0,0.0
4016,35.0,24.0,150.0,0.0,0.0
4017,67.0,124.0,150.0,0.0,0.0
4018,43.0,20.0,60.0,0.0,0.0
4019,79.0,36.0,90.0,0.0,0.0
4020,74.0,8.0,60.0,0.0,0.0
4021,50.0,112.0,90.0,0.0,0.0
4022,47.0,0.0,90.0,0.0,0.0
4023,66.0,36.0,60.0,0.0,0.0
4024,78.0,128.0,90.0,0.0,0.0
4025,62.0,24.0,240.0,0.0,0.0
4026,78.0,32.0,60.0,0.0,0.0
4027,66.0,40.0,90.0,0.0,0.0
4028,50.0,220.0,270.0,0.0,0.0
4029,55.0,12.0,240.0,0.0,0.0
4030,67.0,60.0,30.0,0.0,0.0
4031,71.0,24.0,90.0,0.0,0.0
4032,76.0,16.0,90.0,0.0,0.0
4033,64.0,8.0,60.0,0.0,0.0
4034,74.0,216.0,90.0,0.0,0.0
4035,62.0,44.0,30.0,0.0,0.0
4036,66.0,0.0,210.0,0.0,0.0
4037,33.0,36.0,120.0,0.0,0.0
4038,78.0,136.0,90.0,0.0,0.0
4039,45.0,8.0,60.0,0.0,0.0
4040,74.0,16.0,60.0,0.0,0.0
4041,72.0,4.0,20.0,0.0,0.0
4042,50.0,108.0,60.0,0.0,0.0
4043,64.0,16.0,60.0,0.0,0.0
4044,76.0,8.0,60.0,0.0,0.0
4045,45.0,136.0,60.0,0.0,0.0
4046,64.0,72.0,90.0,0.0,0.0
4047,50.0,44.0,270.0,0.0,0.0
4048,60.0,48.0,210.0,0.0,0.0
4049,76.0,4.0,90.0,0.0,0.0
4050,54.0,16.0,270.0,0.0,0.0
4051,66.0,40.0,60.0,0.0,0.0
4052,72.0,12.0,90.0,0.0,0.0
4053,74.0,8.0,150.0,0.0,0.0
4054,62.0,160.0,150.0,0.0,0.0
4055,73.0,200.0,60.0,0.0,0.0
4056,61.0,32.0,20.0,0.0,0.0
4057,76.0,44.0,180.0,0.0,0.0
4058,64.0,8.0,210.0,0.0,0.0
4059,31.0,84.0,60.0,0.0,0.0
4060,38.0,100.0,90.0,0.0,0.0
4061,71.0,92.0,240.0,0.0,0.0
4062,67.0,24.0,210.0,0.0,0.0
4063,50.0,48.0,30.0,0.0,0.0
4064,47.0,16.0,90.0,0.0,0.0
4065,74.0,136.0,90.0,0.0,0.0
4066,62.0,12.0,60.0,0.0,0.0
4067,74.0,44.0,90.0,0.0,0.0
4068,62.0,12.0,60.0,0.0,0.0
4069,59.0,16.0,300.0,0.0,0.0
4070,55.0,36.0,300.0,0.0,0.0
4071,50.0,196.0,330.0,0.0,0.0
4072,67.0,116.0,30.0,0.0,0.0
4073,72.0,52.0,90.0,0.0,0.0
4074,60.0,8.0,60.0,0.0,0.0
4075,71.0,216.0,90.0,0.0,0.0
4076,59.0,28.0,60.0,0.0,0.0
4077,71.0,36.0,330.0,0.0,0.0
4078,59.0,52.0,120.0,0.0,0.0
4079,36.0,108.0,180.0,0.0,0.0
4080,42.0,32.0,150.0,0.0,0.0
4081,66.0,40.0,240.0,0.0,0.0
4082,63.0,28.0,180.0,0.0,0.0
4083,45.0,20.0,150.0,0.0,0.0
4084,69.0,128.0,120.0,0.0,0.0
4085,57.0,68.0,60.0,0.0,0.0
4086,48.0,20.0,30.0,0.0,0.0
4087,51.0,8.0,180.0,0.0,0.0
4088,71.0,68.0,90.0,0.0,0.0
4089,59.0,28.0,90.0,0.0,0.0
4090,66.0,104.0,150.0,0.0,0.0
4091,54.0,72.0,270.0,0.0,0.0
4092,63.0,104.0,30.0,0.0,0.0
4093,57.0,4.0,120.0,0.0,0.0
4094,63.0,12.0,60.0,0.0,0.0
4095,72.0,464.0,60.0,0.0,0.0
4096,60.0,0.0,30.0,0.0,0.0
4097,62.0,708.0,330.0,0.0,0.0
4098,74.0,8.0,300.0,0.0,0.0
4099,65.0,4.0,270.0,0.0,0.0
4100,47.0,4.0,270.0,0.0,0.0
4101,68.0,8.0,270.0,0.0,0.0
4102,53.0,4.0,270.0,0.0,0.0
4103,56.0,4.0,270.0,0.0,0.0
4104,68.0,20.0,660.0,0.0,0.0
4105,56.0,44.0,540.0,0.0,0.0
4106,62.0,140.0,660.0,0.0,0.0
4107,47.0,112.0,240.0,0.0,0.0
4108,65.0,56.0,570.0,0.0,0.0
4109,46.0,152.0,90.0,0.0,0.0
4110,47.0,40.0,120.0,0.0,0.0
4111,50.0,12.0,150.0,0.0,0.0
4112,48.0,128.0,150.0,0.0,0.0
4113,69.0,64.0,570.0,0.0,0.0
4114,57.0,4.0,540.0,0.0,0.0
4115,62.0,300.0,600.0,0.0,0.0
4116,65.0,16.0,510.0,0.0,0.0
4117,44.0,232.0,90.0,0.0,0.0
4118,45.0,136.0,210.0,0.0,0.0
4119,48.0,36.0,180.0,0.0,0.0
4120,47.0,12.0,30.0,0.0,0.0
4121,71.0,16.0,150.0,0.0,0.0
4122,59.0,12.0,150.0,0.0,0.0
4123,64.0,8.0,150.0,0.0,0.0
4124,62.0,0.0,180.0,0.0,0.0
4125,44.0,4.0,150.0,0.0,0.0
4126,32.0,168.0,150.0,0.0,0.0
4127,52.0,76.0,90.0,0.0,0.0
4128,64.0,144.0,60.0,0.0,0.0
4129,64.0,244.0,60.0,0.0,0.0
4130,78.0,60.0,120.0,0.0,0.0
4131,59.0,24.0,180.0,0.0,0.0
4132,62.0,4.0,150.0,0.0,0.0
4133,52.0,20.0,180.0,0.0,0.0
4134,76.0,104.0,90.0,0.0,0.0
4135,83.0,52.0,150.0,0.0,0.0
4136,75.0,92.0,30.0,0.0,0.0
4137,74.0,160.0,20.0,0.0,0.0
4138,83.0,0.0,180.0,0.0,0.0
4139,73.0,132.0,30.0,0.0,0.0
4140,33.0,36.0,210.0,0.0,0.0
4141,45.0,8.0,240.0,0.0,0.0
4142,73.0,44.0,60.0,0.0,0.0
4143,74.0,64.0,120.0,0.0,0.0
4144,81.0,116.0,60.0,0.0,0.0
4145,76.0,12.0,60.0,0.0,0.0
4146,67.0,216.0,60.0,0.0,0.0
4147,73.0,16.0,150.0,0.0,0.0
4148,55.0,40.0,180.0,0.0,0.0
4149,61.0,44.0,120.0,0.0,0.0
4150,57.0,4.0,150.0,0.0,0.0
4151,71.0,148.0,90.0,0.0,0.0
4152,76.0,52.0,150.0,0.0,0.0
4153,69.0,36.0,90.0,0.0,0.0
4154,67.0,256.0,30.0,0.0,0.0
4155,76.0,12.0,180.0,0.0,0.0
4156,65.0,28.0,120.0,0.0,0.0
4157,38.0,28.0,180.0,0.0,0.0
4158,26.0,8.0,150.0,0.0,0.0
4159,66.0,132.0,90.0,0.0,0.0
4160,74.0,80.0,120.0,0.0,0.0
4161,60.0,44.0,60.0,0.0,0.0
4162,66.0,208.0,60.0,0.0,0.0
4163,76.0,12.0,120.0,0.0,0.0
4164,50.0,72.0,150.0,0.0,0.0
4165,60.0,36.0,90.0,0.0,0.0
4166,54.0,4.0,120.0,0.0,0.0
4167,74.0,132.0,120.0,0.0,0.0
4168,81.0,60.0,150.0,0.0,0.0
4169,73.0,48.0,90.0,0.0,0.0
4170,72.0,208.0,60.0,0.0,0.0
4171,81.0,36.0,150.0,0.0,0.0
4172,71.0,12.0,120.0,0.0,0.0
4173,43.0,84.0,210.0,0.0,0.0
4174,31.0,56.0,150.0,0.0,0.0
4175,72.0,4.0,120.0,0.0,0.0
4176,79.0,20.0,60.0,0.0,0.0
4177,74.0,120.0,60.0,0.0,0.0
4178,65.0,244.0,60.0,0.0,0.0
4179,71.0,96.0,150.0,0.0,0.0
4180,50.0,20.0,330.0,0.0,0.0
4181,55.0,40.0,300.0,0.0,0.0
4182,59.0,8.0,270.0,0.0,0.0
4183,69.0,76.0,90.0,0.0,0.0
4184,71.0,68.0,150.0,0.0,0.0
4185,67.0,48.0,90.0,0.0,0.0
4186,65.0,220.0,60.0,0.0,0.0
4187,71.0,28.0,390.0,0.0,0.0
4188,63.0,164.0,90.0,0.0,0.0
4189,36.0,44.0,300.0,0.0,0.0
4190,64.0,68.0,120.0,0.0,0.0
4191,57.0,52.0,120.0,0.0,0.0
4192,48.0,12.0,60.0,0.0,0.0
4193,69.0,260.0,30.0,0.0,0.0
4194,78.0,124.0,150.0,0.0,0.0
4195,52.0,92.0,840.0,0.0,0.0
4196,76.0,124.0,120.0,0.0,0.0
4197,59.0,16.0,300.0,0.0,0.0
4198,72.0,188.0,90.0,0.0,0.0
4199,71.0,104.0,180.0,0.0,0.0
4200,69.0,72.0,120.0,0.0,0.0
4201,60.0,44.0,210.0,0.0,0.0
4202,67.0,32.0,60.0,0.0,0.0
4203,64.0,156.0,90.0,0.0,0.0
4204,60.0,148.0,120.0,0.0,0.0
4205,57.0,168.0,120.0,0.0,0.0
4206,55.0,28.0,150.0,0.0,0.0
4207,52.0,192.0,20.0,0.0,0.0
4208,67.0,540.0,60.0,0.0,0.0
4209,57.0,16.0,480.0,0.0,0.0
4210,52.0,48.0,420.0,0.0,0.0
4211,55.0,40.0,360.0,0.0,0.0
4212,36.0,548.0,450.0,0.0,0.0
4213,59.0,108.0,510.0,0.0,0.0
4214,50.0,24.0,390.0,0.0,0.0
4215,55.0,76.0,420.0,0.0,0.0
4216,35.0,384.0,570.0,0.0,0.0
4217,60.0,48.0,360.0,0.0,0.0
4218,52.0,180.0,390.0,0.0,0.0
4219,55.0,16.0,330.0,0.0,0.0
4220,33.0,484.0,570.0,0.0,0.0
4221,60.0,28.0,60.0,0.0,0.0
4222,59.0,64.0,480.0,0.0,0.0
4223,48.0,20.0,450.0,0.0,0.0
4224,54.0,88.0,540.0,0.0,0.0
4225,38.0,12.0,420.0,0.0,0.0
4226,57.0,240.0,90.0,0.0,0.0
4227,47.0,68.0,120.0,0.0,0.0
4228,39.0,20.0,210.0,0.0,0.0
4229,27.0,32.0,180.0,0.0,0.0
4230,54.0,152.0,90.0,0.0,0.0
4231,57.0,52.0,120.0,0.0,0.0
4232,59.0,276.0,20.0,0.0,0.0
4233,73.0,112.0,120.0,0.0,0.0
4234,57.0,12.0,120.0,0.0,0.0
4235,47.0,4.0,120.0,0.0,0.0
4236,54.0,0.0,90.0,0.0,0.0
4237,71.0,92.0,90.0,0.0,0.0
4238,70.0,132.0,60.0,0.0,0.0
4239,78.0,48.0,180.0,0.0,0.0
4240,69.0,248.0,60.0,0.0,0.0
4241,78.0,44.0,180.0,0.0,0.0
4242,68.0,12.0,150.0,0.0,0.0
4243,40.0,16.0,240.0,0.0,0.0
4244,28.0,28.0,210.0,0.0,0.0
4245,69.0,80.0,120.0,0.0,0.0
4246,71.0,12.0,60.0,0.0,0.0
4247,76.0,132.0,60.0,0.0,0.0
4248,62.0,228.0,60.0,0.0,0.0
4249,68.0,108.0,150.0,0.0,0.0
4250,50.0,64.0,270.0,0.0,0.0
4251,52.0,12.0,270.0,0.0,0.0
4252,56.0,4.0,210.0,0.0,0.0
4253,66.0,44.0,120.0,0.0,0.0
4254,71.0,76.0,120.0,0.0,0.0
4255,64.0,40.0,60.0,0.0,0.0
4256,62.0,228.0,60.0,0.0,0.0
4257,71.0,16.0,150.0,0.0,0.0
4258,33.0,40.0,180.0,0.0,0.0
4259,21.0,28.0,150.0,0.0,0.0
4260,60.0,16.0,120.0,0.0,0.0
4261,61.0,124.0,60.0,0.0,0.0
4262,55.0,68.0,60.0,0.0,0.0
4263,69.0,68.0,120.0,0.0,0.0
4264,64.0,188.0,60.0,0.0,0.0
4265,45.0,28.0,330.0,0.0,0.0
4266,55.0,28.0,270.0,0.0,0.0
4267,49.0,40.0,270.0,0.0,0.0
4268,71.0,160.0,90.0,0.0,0.0
4269,69.0,20.0,120.0,0.0,0.0
4270,68.0,36.0,90.0,0.0,0.0
4271,76.0,68.0,120.0,0.0,0.0
4272,67.0,232.0,60.0,0.0,0.0
4273,26.0,0.0,270.0,0.0,0.0
4274,76.0,80.0,180.0,0.0,0.0
4275,65.0,52.0,120.0,0.0,0.0
4276,38.0,76.0,300.0,0.0,0.0
4277,66.0,24.0,120.0,0.0,0.0
4278,74.0,112.0,90.0,0.0,0.0
4279,69.0,8.0,60.0,0.0,0.0
4280,60.0,244.0,30.0,0.0,0.0
4281,66.0,12.0,150.0,0.0,0.0
4282,60.0,108.0,150.0,0.0,0.0
4283,50.0,4.0,540.0,0.0,0.0
4284,54.0,4.0,540.0,0.0,0.0
4285,64.0,136.0,90.0,0.0,0.0
4286,69.0,192.0,270.0,0.0,0.0
4287,62.0,140.0,90.0,0.0,0.0
4288,60.0,36.0,90.0,0.0,0.0
4289,69.0,92.0,150.0,0.0,0.0
4290,59.0,12.0,480.0,0.0,0.0
4291,43.0,68.0,840.0,0.0,0.0
4292,53.0,96.0,270.0,0.0,0.0
4293,68.0,76.0,90.0,0.0,0.0
4294,67.0,96.0,150.0,0.0,0.0
4295,52.0,16.0,120.0,0.0,0.0
4296,66.0,44.0,120.0,0.0,0.0
4297,51.0,124.0,150.0,0.0,0.0
4298,65.0,8.0,150.0,0.0,0.0
4299,50.0,84.0,150.0,0.0,0.0
4300,64.0,4.0,150.0,0.0,0.0
4301,49.0,32.0,240.0,0.0,0.0
4302,58.0,76.0,60.0,0.0,0.0
4303,53.0,12.0,90.0,0.0,0.0
4304,62.0,88.0,120.0,0.0,0.0
4305,52.0,132.0,150.0,0.0,0.0
4306,61.0,60.0,90.0,0.0,0.0
4307,70.0,112.0,120.0,0.0,0.0
4308,61.0,0.0,420.0,0.0,0.0
4309,55.0,20.0,90.0,0.0,0.0
4310,45.0,64.0,630.0,0.0,0.0
4311,69.0,156.0,90.0,0.0,0.0
4312,54.0,0.0,90.0,0.0,0.0
4313,53.0,60.0,150.0,0.0,0.0
4314,68.0,20.0,120.0,0.0,0.0
4315,67.0,84.0,60.0,0.0,0.0
4316,52.0,52.0,150.0,0.0,0.0
4317,66.0,104.0,180.0,0.0,0.0
4318,60.0,40.0,60.0,0.0,0.0
4319,51.0,68.0,390.0,0.0,0.0
4320,64.0,88.0,150.0,0.0,0.0
4321,55.0,40.0,90.0,0.0,0.0
4322,63.0,36.0,180.0,0.0,0.0
4323,54.0,16.0,150.0,0.0,0.0
4324,66.0,168.0,90.0,0.0,0.0
4325,57.0,20.0,60.0,0.0,0.0
4326,72.0,20.0,150.0,0.0,0.0
4327,47.0,40.0,90.0,0.0,0.0
4328,57.0,92.0,150.0,0.0,0.0
4329,63.0,44.0,330.0,0.0,0.0
4330,71.0,0.0,120.0,0.0,0.0
4331,56.0,108.0,90.0,0.0,0.0
4332,70.0,8.0,120.0,0.0,0.0
4333,55.0,152.0,120.0,0.0,0.0
4334,69.0,96.0,150.0,0.0,0.0
4335,67.0,212.0,90.0,0.0,0.0
4336,52.0,48.0,360.0,0.0,0.0
4337,64.0,36.0,420.0,0.0,0.0
4338,59.0,12.0,390.0,0.0,0.0
4339,66.0,72.0,150.0,0.0,0.0
4340,69.0,16.0,120.0,0.0,0.0
4341,67.0,296.0,60.0,0.0,0.0
4342,49.0,32.0,780.0,0.0,0.0
4343,55.0,52.0,780.0,0.0,0.0
4344,58.0,8.0,780.0,0.0,0.0
4345,76.0,120.0,180.0,0.0,0.0
4346,67.0,68.0,90.0,0.0,0.0
4347,64.0,136.0,720.0,0.0,0.0
4348,75.0,152.0,90.0,0.0,0.0
4349,66.0,20.0,60.0,0.0,0.0
4350,76.0,108.0,120.0,0.0,0.0
4351,67.0,56.0,60.0,0.0,0.0
4352,77.0,0.0,90.0,0.0,0.0
4353,68.0,32.0,60.0,0.0,0.0
4354,78.0,84.0,150.0,0.0,0.0
4355,69.0,24.0,120.0,0.0,0.0
4356,64.0,36.0,120.0,0.0,0.0
4357,58.0,12.0,120.0,0.0,0.0
4358,55.0,12.0,210.0,0.0,0.0
4359,79.0,284.0,120.0,0.0,0.0
4360,70.0,40.0,60.0,0.0,0.0
4361,79.0,12.0,210.0,0.0,0.0
4362,71.0,76.0,210.0,0.0,0.0
4363,59.0,16.0,120.0,0.0,0.0
4364,62.0,68.0,120.0,0.0,0.0
4365,50.0,4.0,120.0,0.0,0.0
4366,78.0,80.0,180.0,0.0,0.0
4367,72.0,96.0,30.0,0.0,0.0
4368,69.0,44.0,120.0,0.0,0.0
4369,76.0,20.0,150.0,0.0,0.0
4370,71.0,76.0,60.0,0.0,0.0
4371,67.0,100.0,150.0,0.0,0.0
4372,78.0,28.0,150.0,0.0,0.0
4373,69.0,68.0,180.0,0.0,0.0
4374,72.0,84.0,60.0,0.0,0.0
4375,76.0,80.0,150.0,0.0,0.0
4376,71.0,80.0,60.0,0.0,0.0
4377,67.0,4.0,120.0,0.0,0.0
4378,78.0,40.0,150.0,0.0,0.0
4379,69.0,68.0,60.0,0.0,0.0
4380,66.0,96.0,180.0,0.0,0.0
4381,76.0,24.0,30.0,0.0,0.0
4382,79.0,24.0,90.0,0.0,0.0
4383,67.0,56.0,90.0,0.0,0.0
4384,64.0,176.0,150.0,0.0,0.0
4385,74.0,28.0,180.0,0.0,0.0
4386,69.0,28.0,120.0,0.0,0.0
4387,66.0,32.0,180.0,0.0,0.0
4388,72.0,36.0,90.0,0.0,0.0
4389,64.0,132.0,120.0,0.0,0.0
4390,67.0,68.0,20.0,0.0,0.0
4391,74.0,4.0,180.0,0.0,0.0
4392,62.0,100.0,180.0,0.0,0.0
4393,66.0,104.0,90.0,0.0,0.0
4394,76.0,16.0,90.0,0.0,0.0
4395,64.0,236.0,120.0,0.0,0.0
4396,60.0,32.0,90.0,0.0,0.0
4397,71.0,12.0,210.0,0.0,0.0
4398,62.0,72.0,210.0,0.0,0.0
4399,66.0,72.0,120.0,0.0,0.0
4400,69.0,84.0,180.0,0.0,0.0
4401,64.0,96.0,60.0,0.0,0.0
4402,60.0,140.0,240.0,0.0,0.0
4403,71.0,100.0,210.0,0.0,0.0
4404,62.0,4.0,150.0,0.0,0.0
4405,68.0,76.0,120.0,0.0,0.0
4406,52.0,96.0,300.0,0.0,0.0
4407,72.0,236.0,150.0,0.0,0.0
4408,69.0,36.0,90.0,0.0,0.0
4409,60.0,84.0,510.0,0.0,0.0
4410,57.0,152.0,360.0,0.0,0.0
4411,66.0,176.0,270.0,0.0,0.0
4412,62.0,280.0,450.0,0.0,0.0
4413,50.0,0.0,420.0,0.0,0.0
4414,67.0,200.0,660.0,0.0,0.0
4415,59.0,136.0,330.0,0.0,0.0
4416,43.0,92.0,210.0,0.0,0.0
4417,50.0,16.0,120.0,0.0,0.0
4418,55.0,116.0,120.0,0.0,0.0
4419,57.0,44.0,90.0,0.0,0.0
4420,59.0,232.0,210.0,0.0,0.0
4421,60.0,16.0,270.0,0.0,0.0
4422,62.0,160.0,150.0,0.0,0.0
4423,67.0,228.0,150.0,0.0,0.0
4424,64.0,136.0,630.0,0.0,0.0
4425,38.0,36.0,150.0,0.0,0.0
4426,50.0,208.0,60.0,0.0,0.0
4427,55.0,120.0,120.0,0.0,0.0
4428,57.0,72.0,90.0,0.0,0.0
4429,59.0,152.0,150.0,0.0,0.0
4430,60.0,156.0,150.0,0.0,0.0
4431,62.0,244.0,150.0,0.0,0.0
4432,71.0,216.0,240.0,0.0,0.0
4433,69.0,180.0,450.0,0.0,0.0
4434,40.0,60.0,210.0,0.0,0.0
4435,47.0,136.0,120.0,0.0,0.0
4436,52.0,0.0,120.0,0.0,0.0
4437,54.0,172.0,150.0,0.0,0.0
4438,55.0,108.0,150.0,0.0,0.0
4439,57.0,104.0,120.0,0.0,0.0
4440,59.0,248.0,90.0,0.0,0.0
4441,67.0,220.0,150.0,0.0,0.0
4442,66.0,316.0,690.0,0.0,0.0
4443,61.0,24.0,660.0,0.0,0.0
4444,33.0,132.0,180.0,0.0,0.0
4445,40.0,192.0,120.0,0.0,0.0
4446,45.0,92.0,150.0,0.0,0.0
4447,52.0,84.0,60.0,0.0,0.0
4448,55.0,128.0,330.0,0.0,0.0
4449,57.0,44.0,120.0,0.0,0.0
4450,66.0,176.0,180.0,0.0,0.0
4451,61.0,64.0,90.0,0.0,0.0
4452,67.0,148.0,120.0,0.0,0.0
4453,64.0,332.0,120.0,0.0,0.0
4454,64.0,16.0,750.0,0.0,0.0
4455,55.0,68.0,270.0,0.0,0.0
4456,60.0,268.0,420.0,0.0,0.0
4457,38.0,80.0,180.0,0.0,0.0
4458,45.0,72.0,150.0,0.0,0.0
4459,50.0,36.0,360.0,0.0,0.0
4460,52.0,120.0,600.0,0.0,0.0
4461,54.0,136.0,120.0,0.0,0.0
4462,60.0,200.0,90.0,0.0,0.0
4463,62.0,12.0,150.0,0.0,0.0
4464,45.0,40.0,330.0,0.0,0.0
4465,67.0,104.0,120.0,0.0,0.0
4466,66.0,68.0,600.0,0.0,0.0
4467,62.0,88.0,330.0,0.0,0.0
4468,60.0,96.0,60.0,0.0,0.0
4469,38.0,92.0,120.0,0.0,0.0
4470,45.0,76.0,90.0,0.0,0.0
4471,50.0,152.0,120.0,0.0,0.0
4472,55.0,460.0,210.0,0.0,0.0
4473,60.0,60.0,990.0,0.0,0.0
4474,57.0,0.0,450.0,0.0,0.0
4475,62.0,8.0,750.0,0.0,0.0
4476,67.0,204.0,150.0,0.0,0.0
4477,71.0,256.0,180.0,0.0,0.0
4478,69.0,136.0,660.0,0.0,0.0
4479,66.0,28.0,240.0,0.0,0.0
4480,38.0,36.0,120.0,0.0,0.0
4481,45.0,232.0,120.0,0.0,0.0
4482,50.0,100.0,210.0,0.0,0.0
4483,57.0,172.0,720.0,0.0,0.0
4484,60.0,140.0,120.0,0.0,0.0
4485,66.0,244.0,120.0,0.0,0.0
4486,76.0,60.0,180.0,0.0,0.0
4487,50.0,312.0,1470.0,0.0,0.0
4488,76.0,292.0,120.0,0.0,0.0
4489,76.0,144.0,180.0,0.0,0.0
4490,66.0,40.0,630.0,0.0,0.0
4491,60.0,32.0,300.0,0.0,0.0
4492,74.0,100.0,210.0,0.0,0.0
4493,59.0,88.0,120.0,0.0,0.0
4494,57.0,180.0,300.0,0.0,0.0
4495,72.0,88.0,60.0,0.0,0.0
4496,72.0,172.0,210.0,0.0,0.0
4497,66.0,12.0,360.0,0.0,0.0
4498,64.0,52.0,120.0,0.0,0.0
4499,71.0,40.0,150.0,0.0,0.0
4500,62.0,16.0,180.0,0.0,0.0
4501,70.0,304.0,120.0,0.0,0.0
4502,61.0,56.0,60.0,0.0,0.0
4503,72.0,140.0,330.0,0.0,0.0
4504,64.0,32.0,240.0,0.0,0.0
4505,67.0,44.0,180.0,0.0,0.0
4506,43.0,32.0,240.0,0.0,0.0
4507,50.0,0.0,120.0,0.0,0.0
4508,71.0,20.0,90.0,0.0,0.0
4509,55.0,76.0,150.0,0.0,0.0
4510,62.0,28.0,120.0,0.0,0.0
4511,57.0,212.0,90.0,0.0,0.0
4512,59.0,140.0,120.0,0.0,0.0
4513,60.0,140.0,120.0,0.0,0.0
4514,62.0,116.0,120.0,0.0,0.0
4515,67.0,256.0,120.0,0.0,0.0
4516,38.0,44.0,90.0,0.0,0.0
4517,64.0,116.0,660.0,0.0,0.0
4518,38.0,44.0,150.0,0.0,0.0
4519,50.0,220.0,60.0,0.0,0.0
4520,55.0,228.0,120.0,0.0,0.0
4521,57.0,16.0,300.0,0.0,0.0
4522,59.0,124.0,150.0,0.0,0.0
4523,60.0,148.0,120.0,0.0,0.0
4524,62.0,232.0,120.0,0.0,0.0
4525,71.0,220.0,210.0,0.0,0.0
4526,69.0,140.0,300.0,0.0,0.0
4527,40.0,72.0,240.0,0.0,0.0
4528,47.0,4.0,150.0,0.0,0.0
4529,52.0,184.0,120.0,0.0,0.0
4530,54.0,120.0,180.0,0.0,0.0
4531,55.0,164.0,120.0,0.0,0.0
4532,57.0,108.0,150.0,0.0,0.0
4533,59.0,164.0,90.0,0.0,0.0
4534,67.0,320.0,90.0,0.0,0.0
4535,33.0,20.0,60.0,0.0,0.0
4536,66.0,32.0,960.0,0.0,0.0
4537,55.0,84.0,420.0,0.0,0.0
4538,33.0,144.0,180.0,0.0,0.0
4539,61.0,4.0,930.0,0.0,0.0
4540,40.0,80.0,120.0,0.0,0.0
4541,45.0,144.0,150.0,0.0,0.0
4542,52.0,224.0,120.0,0.0,0.0
4543,55.0,72.0,150.0,0.0,0.0
4544,57.0,180.0,90.0,0.0,0.0
4545,66.0,100.0,180.0,0.0,0.0
4546,61.0,60.0,90.0,0.0,0.0
4547,67.0,148.0,90.0,0.0,0.0
4548,66.0,108.0,90.0,0.0,0.0
4549,64.0,164.0,90.0,0.0,0.0
4550,66.0,216.0,150.0,0.0,0.0
4551,69.0,112.0,180.0,0.0,0.0
4552,67.0,212.0,60.0,0.0,0.0
4553,64.0,384.0,120.0,0.0,0.0
4554,55.0,40.0,60.0,0.0,0.0
4555,64.0,96.0,630.0,0.0,0.0
4556,55.0,56.0,270.0,0.0,0.0
4557,60.0,92.0,510.0,0.0,0.0
4558,38.0,84.0,180.0,0.0,0.0
4559,45.0,196.0,150.0,0.0,0.0
4560,50.0,56.0,390.0,0.0,0.0
4561,52.0,36.0,450.0,0.0,0.0
4562,54.0,132.0,120.0,0.0,0.0
4563,45.0,112.0,210.0,0.0,0.0
4564,60.0,16.0,90.0,0.0,0.0
4565,62.0,144.0,120.0,0.0,0.0
4566,67.0,244.0,120.0,0.0,0.0
4567,66.0,20.0,510.0,0.0,0.0
4568,62.0,536.0,510.0,0.0,0.0
4569,60.0,208.0,270.0,0.0,0.0
4570,26.0,16.0,150.0,0.0,0.0
4571,38.0,108.0,30.0,0.0,0.0
4572,45.0,104.0,810.0,0.0,0.0
4573,50.0,8.0,660.0,0.0,0.0
4574,60.0,204.0,630.0,0.0,0.0
4575,57.0,24.0,450.0,0.0,0.0
4576,62.0,0.0,480.0,0.0,0.0
4577,67.0,36.0,120.0,0.0,0.0
4578,71.0,16.0,150.0,0.0,0.0
4579,69.0,124.0,600.0,0.0,0.0
4580,60.0,320.0,270.0,0.0,0.0
4581,66.0,60.0,210.0,0.0,0.0
4582,62.0,40.0,120.0,0.0,0.0
4583,38.0,44.0,150.0,0.0,0.0
4584,45.0,4.0,630.0,0.0,0.0
4585,50.0,12.0,450.0,0.0,0.0
4586,57.0,64.0,240.0,0.0,0.0
4587,60.0,124.0,150.0,0.0,0.0
4588,66.0,120.0,150.0,0.0,0.0
4589,73.0,204.0,90.0,0.0,0.0
4590,74.0,156.0,120.0,0.0,0.0
4591,26.0,20.0,270.0,0.0,0.0
4592,75.0,136.0,180.0,0.0,0.0
4593,38.0,84.0,60.0,0.0,0.0
4594,72.0,240.0,150.0,0.0,0.0
4595,50.0,0.0,300.0,0.0,0.0
4596,66.0,100.0,180.0,0.0,0.0
4597,57.0,128.0,270.0,0.0,0.0
4598,76.0,8.0,150.0,0.0,0.0
4599,62.0,128.0,180.0,0.0,0.0
4600,77.0,36.0,90.0,0.0,0.0
4601,78.0,192.0,90.0,0.0,0.0
4602,69.0,40.0,60.0,0.0,0.0
4603,83.0,140.0,150.0,0.0,0.0
4604,74.0,88.0,60.0,0.0,0.0
4605,81.0,636.0,120.0,0.0,0.0
4606,72.0,36.0,60.0,0.0,0.0
4607,79.0,16.0,480.0,0.0,0.0
4608,71.0,20.0,780.0,0.0,0.0
4609,31.0,12.0,450.0,0.0,0.0
4610,38.0,16.0,150.0,0.0,0.0
4611,43.0,272.0,30.0,0.0,0.0
4612,79.0,60.0,150.0,0.0,0.0
4613,50.0,984.0,210.0,0.0,0.0
4614,53.0,120.0,1320.0,0.0,0.0
4615,59.0,16.0,1170.0,0.0,0.0
4616,62.0,52.0,960.0,0.0,0.0
4617,71.0,200.0,600.0,0.0,0.0
4618,65.0,112.0,1020.0,0.0,0.0
4619,76.0,76.0,390.0,0.0,0.0
4620,74.0,344.0,120.0,0.0,0.0
4621,73.0,72.0,570.0,0.0,0.0
4622,64.0,16.0,750.0,0.0,0.0
4623,70.0,76.0,390.0,0.0,0.0
4624,31.0,28.0,240.0,0.0,0.0
4625,43.0,104.0,30.0,0.0,0.0
4626,46.0,120.0,180.0,0.0,0.0
4627,44.0,80.0,20.0,0.0,0.0
4628,69.0,48.0,480.0,0.0,0.0
4629,49.0,264.0,180.0,0.0,0.0
4630,52.0,12.0,330.0,0.0,0.0
4631,55.0,12.0,150.0,0.0,0.0
4632,67.0,0.0,90.0,0.0,0.0
4633,61.0,552.0,60.0,0.0,0.0
4634,72.0,348.0,570.0,0.0,0.0
4635,63.0,152.0,390.0,0.0,0.0
4636,66.0,4.0,990.0,0.0,0.0
4637,71.0,144.0,420.0,0.0,0.0
4638,62.0,100.0,300.0,0.0,0.0
4639,69.0,436.0,90.0,0.0,0.0
4640,60.0,32.0,60.0,0.0,0.0
4641,59.0,320.0,540.0,0.0,0.0
4642,67.0,88.0,300.0,0.0,0.0
4643,31.0,24.0,360.0,0.0,0.0
4644,38.0,24.0,150.0,0.0,0.0
4645,66.0,92.0,150.0,0.0,0.0
4646,43.0,12.0,30.0,0.0,0.0
4647,47.0,124.0,390.0,0.0,0.0
4648,65.0,44.0,270.0,0.0,0.0
4649,50.0,36.0,180.0,0.0,0.0
4650,64.0,152.0,330.0,0.0,0.0
4651,53.0,48.0,180.0,0.0,0.0
4652,54.0,92.0,90.0,0.0,0.0
4653,62.0,132.0,660.0,0.0,0.0
4654,56.0,108.0,150.0,0.0,0.0
4655,53.0,208.0,90.0,0.0,0.0
4656,50.0,76.0,180.0,0.0,0.0
4657,47.0,108.0,90.0,0.0,0.0
4658,64.0,8.0,420.0,0.0,0.0
4659,44.0,96.0,150.0,0.0,0.0
4660,43.0,156.0,90.0,0.0,0.0
4661,42.0,116.0,120.0,0.0,0.0
4662,62.0,144.0,90.0,0.0,0.0
4663,41.0,332.0,210.0,0.0,0.0
4664,59.0,120.0,330.0,0.0,0.0
4665,61.0,24.0,1140.0,0.0,0.0
4666,55.0,4.0,270.0,0.0,0.0
4667,40.0,24.0,270.0,0.0,0.0
4668,33.0,172.0,150.0,0.0,0.0
4669,40.0,156.0,180.0,0.0,0.0
4670,57.0,48.0,210.0,0.0,0.0
4671,54.0,24.0,150.0,0.0,0.0
4672,45.0,32.0,120.0,0.0,0.0
4673,52.0,212.0,90.0,0.0,0.0
4674,45.0,16.0,150.0,0.0,0.0
4675,55.0,12.0,120.0,0.0,0.0
4676,52.0,12.0,120.0,0.0,0.0
4677,40.0,268.0,30.0,0.0,0.0
4678,48.0,16.0,600.0,0.0,0.0
4679,54.0,44.0,540.0,0.0,0.0
4680,38.0,72.0,60.0,0.0,0.0
4681,40.0,84.0,30.0,0.0,0.0
4682,62.0,52.0,450.0,0.0,0.0
4683,38.0,64.0,60.0,0.0,0.0
4684,40.0,88.0,30.0,0.0,0.0
4685,38.0,64.0,60.0,0.0,0.0
4686,40.0,56.0,60.0,0.0,0.0
4687,38.0,24.0,60.0,0.0,0.0
4688,40.0,20.0,60.0,0.0,0.0
4689,38.0,64.0,60.0,0.0,0.0
4690,40.0,72.0,30.0,0.0,0.0
4691,38.0,80.0,60.0,0.0,0.0
4692,40.0,96.0,60.0,0.0,0.0
4693,38.0,72.0,60.0,0.0,0.0
4694,69.0,56.0,630.0,0.0,0.0
4695,54.0,12.0,660.0,0.0,0.0
4696,60.0,152.0,690.0,0.0,0.0
4697,40.0,80.0,60.0,0.0,0.0
4698,38.0,72.0,60.0,0.0,0.0
4699,40.0,76.0,60.0,0.0,0.0
4700,38.0,76.0,60.0,0.0,0.0
4701,40.0,116.0,60.0,0.0,0.0
4702,38.0,68.0,90.0,0.0,0.0
4703,37.0,12.0,120.0,0.0,0.0
4704,38.0,420.0,150.0,0.0,0.0
4705,67.0,12.0,120.0,0.0,0.0
4706,67.0,80.0,900.0,0.0,0.0
4707,43.0,12.0,810.0,0.0,0.0
4708,55.0,104.0,300.0,0.0,0.0
4709,59.0,40.0,240.0,0.0,0.0
4710,31.0,0.0,120.0,0.0,0.0
4711,38.0,8.0,90.0,0.0,0.0
4712,47.0,216.0,60.0,0.0,0.0
4713,38.0,96.0,150.0,0.0,0.0
4714,59.0,0.0,120.0,0.0,0.0
4715,57.0,12.0,120.0,0.0,0.0
4716,31.0,36.0,60.0,0.0,0.0
4717,55.0,100.0,120.0,0.0,0.0
4718,38.0,20.0,90.0,0.0,0.0
4719,47.0,52.0,60.0,0.0,0.0
4720,50.0,204.0,120.0,0.0,0.0
4721,38.0,96.0,180.0,0.0,0.0
4722,59.0,28.0,270.0,0.0,0.0
4723,31.0,160.0,120.0,0.0,0.0
4724,38.0,108.0,120.0,0.0,0.0
4725,47.0,228.0,60.0,0.0,0.0
4726,62.0,144.0,150.0,0.0,0.0
4727,38.0,0.0,150.0,0.0,0.0
4728,60.0,8.0,120.0,0.0,0.0
4729,31.0,124.0,120.0,0.0,0.0
4730,59.0,100.0,150.0,0.0,0.0
4731,38.0,20.0,120.0,0.0,0.0
4732,55.0,172.0,120.0,0.0,0.0
4733,47.0,52.0,60.0,0.0,0.0
4734,38.0,120.0,150.0,0.0,0.0
4735,62.0,20.0,270.0,0.0,0.0
4736,31.0,156.0,120.0,0.0,0.0
4737,38.0,112.0,120.0,0.0,0.0
4738,47.0,184.0,90.0,0.0,0.0
4739,66.0,20.0,120.0,0.0,0.0
4740,38.0,132.0,150.0,0.0,0.0
4741,64.0,48.0,210.0,0.0,0.0
4742,31.0,64.0,120.0,0.0,0.0
4743,38.0,184.0,90.0,0.0,0.0
4744,62.0,12.0,90.0,0.0,0.0
4745,59.0,64.0,120.0,0.0,0.0
4746,50.0,4.0,120.0,0.0,0.0
4747,38.0,200.0,60.0,0.0,0.0
4748,55.0,4.0,60.0,0.0,0.0
4749,69.0,120.0,90.0,0.0,0.0
4750,31.0,0.0,90.0,0.0,0.0
4751,67.0,104.0,150.0,0.0,0.0
4752,38.0,56.0,60.0,0.0,0.0
4753,62.0,96.0,120.0,0.0,0.0
4754,50.0,16.0,90.0,0.0,0.0
4755,59.0,192.0,60.0,0.0,0.0
4756,38.0,8.0,30.0,0.0,0.0
4757,72.0,16.0,120.0,0.0,0.0
4758,31.0,100.0,120.0,0.0,0.0
4759,71.0,100.0,120.0,0.0,0.0
4760,38.0,44.0,60.0,0.0,0.0
4761,67.0,88.0,90.0,0.0,0.0
4762,50.0,20.0,60.0,0.0,0.0
4763,62.0,200.0,90.0,0.0,0.0
4764,38.0,16.0,30.0,0.0,0.0
4765,76.0,4.0,120.0,0.0,0.0
4766,31.0,124.0,120.0,0.0,0.0
4767,74.0,44.0,180.0,0.0,0.0
4768,38.0,76.0,90.0,0.0,0.0
4769,71.0,60.0,120.0,0.0,0.0
4770,50.0,44.0,60.0,0.0,0.0
4771,67.0,112.0,60.0,0.0,0.0
4772,38.0,100.0,120.0,0.0,0.0
4773,81.0,128.0,120.0,0.0,0.0
4774,31.0,20.0,90.0,0.0,0.0
4775,79.0,96.0,120.0,0.0,0.0
4776,38.0,36.0,90.0,0.0,0.0
4777,74.0,124.0,120.0,0.0,0.0
4778,50.0,24.0,90.0,0.0,0.0
4779,71.0,52.0,90.0,0.0,0.0
4780,38.0,96.0,120.0,0.0,0.0
4781,84.0,152.0,90.0,0.0,0.0
4782,31.0,12.0,90.0,0.0,0.0
4783,83.0,116.0,120.0,0.0,0.0
4784,38.0,12.0,120.0,0.0,0.0
4785,47.0,12.0,90.0,0.0,0.0
4786,79.0,108.0,90.0,0.0,0.0
4787,74.0,60.0,90.0,0.0,0.0
4788,38.0,104.0,150.0,0.0,0.0
4789,88.0,144.0,120.0,0.0,0.0
4790,31.0,16.0,90.0,0.0,0.0
4791,86.0,40.0,210.0,0.0,0.0
4792,38.0,88.0,90.0,0.0,0.0
4793,83.0,56.0,150.0,0.0,0.0
4794,50.0,48.0,90.0,0.0,0.0
4795,79.0,96.0,60.0,0.0,0.0
4796,38.0,112.0,150.0,0.0,0.0
4797,31.0,148.0,90.0,0.0,0.0
4798,93.0,8.0,90.0,0.0,0.0
4799,38.0,112.0,120.0,0.0,0.0
4800,91.0,8.0,90.0,0.0,0.0
4801,47.0,36.0,90.0,0.0,0.0
4802,88.0,160.0,120.0,0.0,0.0
4803,38.0,116.0,150.0,0.0,0.0
4804,86.0,20.0,120.0,0.0,0.0
4805,83.0,88.0,150.0,0.0,0.0
4806,31.0,20.0,120.0,0.0,0.0
4807,38.0,124.0,120.0,0.0,0.0
4808,79.0,28.0,90.0,0.0,0.0
4809,76.0,136.0,120.0,0.0,0.0
4810,50.0,36.0,90.0,0.0,0.0
4811,74.0,24.0,120.0,0.0,0.0
4812,38.0,108.0,150.0,0.0,0.0
4813,71.0,76.0,150.0,0.0,0.0
4814,31.0,28.0,90.0,0.0,0.0
4815,67.0,52.0,60.0,0.0,0.0
4816,38.0,112.0,120.0,0.0,0.0
4817,47.0,36.0,90.0,0.0,0.0
4818,64.0,156.0,120.0,0.0,0.0
4819,38.0,96.0,150.0,0.0,0.0
4820,62.0,4.0,120.0,0.0,0.0
4821,59.0,92.0,150.0,0.0,0.0
4822,31.0,52.0,90.0,0.0,0.0
4823,55.0,120.0,90.0,0.0,0.0
4824,38.0,8.0,90.0,0.0,0.0
4825,50.0,52.0,60.0,0.0,0.0
4826,52.0,60.0,120.0,0.0,0.0
4827,38.0,88.0,30.0,0.0,0.0
4828,50.0,204.0,120.0,0.0,0.0
4829,43.0,24.0,90.0,0.0,0.0
4830,31.0,968.0,120.0,0.0,0.0
4831,55.0,548.0,90.0,0.0,0.0
4832,28.0,52.0,60.0,0.0,0.0
4833,40.0,4.0,60.0,0.0,0.0
4834,47.0,4.0,30.0,0.0,0.0
4835,38.0,8.0,60.0,0.0,0.0
4836,26.0,4.0,60.0,0.0,0.0
4837,48.0,40.0,60.0,0.0,0.0
4838,54.0,24.0,90.0,0.0,0.0
4839,57.0,868.0,120.0,0.0,0.0
4840,38.0,1076.0,450.0,0.0,0.0
4841,47.0,40.0,360.0,0.0,0.0
4842,55.0,12.0,360.0,0.0,0.0
4843,43.0,16.0,420.0,0.0,0.0
4844,31.0,28.0,390.0,0.0,0.0
4845,50.0,0.0,360.0,0.0,0.0
4846,59.0,0.0,450.0,0.0,0.0
4847,50.0,44.0,240.0,0.0,0.0
4848,38.0,8.0,240.0,0.0,0.0
4849,66.0,16.0,300.0,0.0,0.0
4850,72.0,8.0,300.0,0.0,0.0
4851,74.0,1156.0,330.0,0.0,0.0
4852,62.0,4.0,300.0,0.0,0.0
4853,67.0,0.0,960.0,0.0,0.0
4854,62.0,4.0,960.0,0.0,0.0
4855,50.0,8.0,960.0,0.0,0.0
4856,55.0,4.0,960.0,0.0,0.0
4857,59.0,0.0,960.0,0.0,0.0
4858,71.0,1092.0,960.0,0.0,0.0
4859,43.0,832.0,120.0,0.0,0.0
