,note,step,duration,channel,velocity
0,87.0,0.0,2250.0,0.0,0.0
1,92.0,0.0,2250.0,0.0,0.0
2,99.0,2304.0,2250.0,0.0,0.0
3,71.0,0.0,2250.0,0.0,0.0
4,80.0,0.0,2250.0,0.0,0.0
5,77.0,0.0,2250.0,0.0,0.0
6,83.0,0.0,2250.0,0.0,0.0
7,50.0,0.0,2250.0,0.0,0.0
8,65.0,0.0,2250.0,0.0,0.0
9,68.0,0.0,2250.0,0.0,0.0
10,58.0,0.0,2250.0,0.0,0.0
11,38.0,144.0,2250.0,0.0,0.0
12,70.0,0.0,2250.0,0.0,0.0
13,45.0,0.0,90.0,0.0,0.0
14,54.0,96.0,90.0,0.0,0.0
15,46.0,94.0,90.0,0.0,0.0
16,40.0,98.0,90.0,0.0,0.0
17,57.0,96.0,90.0,0.0,0.0
18,58.0,96.0,90.0,0.0,0.0
19,63.0,96.0,90.0,0.0,0.0
20,66.0,96.0,90.0,0.0,0.0
21,59.0,96.0,180.0,0.0,0.0
22,56.0,0.0,180.0,0.0,0.0
23,62.0,0.0,90.0,0.0,0.0
24,58.0,32.0,150.0,0.0,0.0
25,54.0,0.0,150.0,0.0,0.0
26,65.0,64.0,90.0,0.0,0.0
27,63.0,96.0,90.0,0.0,0.0
28,66.0,96.0,90.0,0.0,0.0
29,70.0,94.0,90.0,0.0,0.0
30,75.0,2.0,90.0,0.0,0.0
31,54.0,0.0,90.0,0.0,0.0
32,45.0,96.0,90.0,0.0,0.0
33,46.0,94.0,90.0,0.0,0.0
34,40.0,98.0,90.0,0.0,0.0
35,57.0,96.0,90.0,0.0,0.0
36,58.0,96.0,90.0,0.0,0.0
37,63.0,96.0,90.0,0.0,0.0
38,59.0,0.0,180.0,0.0,0.0
39,56.0,0.0,180.0,0.0,0.0
40,66.0,96.0,90.0,0.0,0.0
41,62.0,96.0,90.0,0.0,0.0
42,54.0,32.0,150.0,0.0,0.0
43,65.0,64.0,90.0,0.0,0.0
44,58.0,0.0,150.0,0.0,0.0
45,63.0,96.0,90.0,0.0,0.0
46,66.0,96.0,90.0,0.0,0.0
47,70.0,48.0,90.0,0.0,0.0
48,51.0,46.0,60.0,0.0,0.0
49,78.0,194.0,90.0,0.0,0.0
50,80.0,96.0,90.0,0.0,0.0
51,74.0,96.0,90.0,0.0,0.0
52,78.0,96.0,90.0,0.0,0.0
53,75.0,48.0,90.0,0.0,0.0
54,66.0,0.0,60.0,0.0,0.0
55,58.0,48.0,60.0,0.0,0.0
56,83.0,96.0,90.0,0.0,0.0
57,77.0,48.0,90.0,0.0,0.0
58,51.0,48.0,60.0,0.0,0.0
59,82.0,96.0,90.0,0.0,0.0
60,78.0,48.0,90.0,0.0,0.0
61,89.0,96.0,90.0,0.0,0.0
62,66.0,0.0,60.0,0.0,0.0
63,58.0,48.0,60.0,0.0,0.0
64,81.0,48.0,90.0,0.0,0.0
65,87.0,96.0,90.0,0.0,0.0
66,51.0,48.0,60.0,0.0,0.0
67,82.0,48.0,90.0,0.0,0.0
68,92.0,96.0,90.0,0.0,0.0
69,58.0,0.0,60.0,0.0,0.0
70,66.0,48.0,60.0,0.0,0.0
71,86.0,48.0,90.0,0.0,0.0
72,51.0,48.0,60.0,0.0,0.0
73,90.0,96.0,90.0,0.0,0.0
74,87.0,48.0,90.0,0.0,0.0
75,99.0,0.0,60.0,0.0,0.0
76,58.0,0.0,60.0,0.0,0.0
77,66.0,624.0,60.0,0.0,0.0
78,56.0,96.0,90.0,0.0,0.0
79,46.0,0.0,90.0,0.0,0.0
80,47.0,94.0,90.0,0.0,0.0
81,39.0,98.0,90.0,0.0,0.0
82,62.0,96.0,90.0,0.0,0.0
83,63.0,96.0,90.0,0.0,0.0
84,68.0,96.0,90.0,0.0,0.0
85,71.0,96.0,90.0,0.0,0.0
86,64.0,0.0,180.0,0.0,0.0
87,61.0,0.0,180.0,0.0,0.0
88,67.0,96.0,90.0,0.0,0.0
89,63.0,32.0,150.0,0.0,0.0
90,70.0,64.0,90.0,0.0,0.0
91,59.0,0.0,150.0,0.0,0.0
92,68.0,96.0,90.0,0.0,0.0
93,71.0,96.0,90.0,0.0,0.0
94,75.0,32.0,90.0,0.0,0.0
95,46.0,0.0,90.0,0.0,0.0
96,56.0,96.0,90.0,0.0,0.0
97,80.0,64.0,30.0,0.0,0.0
98,47.0,94.0,90.0,0.0,0.0
99,39.0,98.0,90.0,0.0,0.0
100,62.0,96.0,90.0,0.0,0.0
101,63.0,96.0,90.0,0.0,0.0
102,68.0,96.0,90.0,0.0,0.0
103,71.0,96.0,90.0,0.0,0.0
104,64.0,0.0,180.0,0.0,0.0
105,61.0,0.0,180.0,0.0,0.0
106,67.0,96.0,90.0,0.0,0.0
107,63.0,0.0,150.0,0.0,0.0
108,59.0,32.0,150.0,0.0,0.0
109,70.0,64.0,90.0,0.0,0.0
110,68.0,96.0,90.0,0.0,0.0
111,71.0,96.0,90.0,0.0,0.0
112,75.0,48.0,90.0,0.0,0.0
113,83.0,194.0,90.0,0.0,0.0
114,51.0,46.0,60.0,0.0,0.0
115,82.0,96.0,90.0,0.0,0.0
116,74.0,96.0,90.0,0.0,0.0
117,80.0,96.0,90.0,0.0,0.0
118,75.0,48.0,90.0,0.0,0.0
119,85.0,96.0,90.0,0.0,0.0
120,59.0,0.0,60.0,0.0,0.0
121,68.0,48.0,60.0,0.0,0.0
122,79.0,48.0,90.0,0.0,0.0
123,83.0,96.0,90.0,0.0,0.0
124,51.0,48.0,60.0,0.0,0.0
125,80.0,48.0,90.0,0.0,0.0
126,59.0,0.0,60.0,0.0,0.0
127,88.0,96.0,90.0,0.0,0.0
128,68.0,48.0,60.0,0.0,0.0
129,82.0,48.0,90.0,0.0,0.0
130,51.0,48.0,60.0,0.0,0.0
131,87.0,96.0,90.0,0.0,0.0
132,83.0,48.0,90.0,0.0,0.0
133,68.0,0.0,60.0,0.0,0.0
134,94.0,96.0,90.0,0.0,0.0
135,59.0,48.0,60.0,0.0,0.0
136,86.0,48.0,90.0,0.0,0.0
137,92.0,96.0,90.0,0.0,0.0
138,51.0,48.0,60.0,0.0,0.0
139,87.0,48.0,90.0,0.0,0.0
140,59.0,0.0,60.0,0.0,0.0
141,68.0,112.0,60.0,0.0,0.0
142,104.0,576.0,150.0,0.0,0.0
143,82.0,32.0,150.0,0.0,0.0
144,94.0,96.0,180.0,0.0,0.0
145,80.0,0.0,570.0,0.0,0.0
146,74.0,96.0,570.0,0.0,0.0
147,77.0,0.0,570.0,0.0,0.0
148,95.0,96.0,90.0,0.0,0.0
149,83.0,0.0,540.0,0.0,0.0
150,94.0,96.0,90.0,0.0,0.0
151,93.0,96.0,90.0,0.0,0.0
152,78.0,32.0,150.0,0.0,0.0
153,75.0,0.0,150.0,0.0,0.0
154,92.0,0.0,15.0,0.0,0.0
155,90.0,96.0,90.0,0.0,0.0
156,58.0,0.0,150.0,0.0,0.0
157,89.0,64.0,90.0,0.0,0.0
158,70.0,32.0,150.0,0.0,0.0
159,87.0,96.0,90.0,0.0,0.0
160,85.0,96.0,90.0,0.0,0.0
161,83.0,48.0,90.0,0.0,0.0
162,82.0,96.0,90.0,0.0,0.0
163,73.0,0.0,60.0,0.0,0.0
164,77.0,48.0,60.0,0.0,0.0
165,83.0,48.0,90.0,0.0,0.0
166,58.0,48.0,60.0,0.0,0.0
167,81.0,96.0,90.0,0.0,0.0
168,82.0,48.0,90.0,0.0,0.0
169,87.0,96.0,90.0,0.0,0.0
170,71.0,0.0,60.0,0.0,0.0
171,75.0,48.0,60.0,0.0,0.0
172,80.0,48.0,90.0,0.0,0.0
173,70.0,48.0,60.0,0.0,0.0
174,78.0,96.0,90.0,0.0,0.0
175,73.0,0.0,60.0,0.0,0.0
176,80.0,48.0,90.0,0.0,0.0
177,58.0,48.0,60.0,0.0,0.0
178,77.0,96.0,90.0,0.0,0.0
179,78.0,96.0,90.0,0.0,0.0
180,83.0,64.0,90.0,0.0,0.0
181,71.0,32.0,360.0,0.0,0.0
182,68.0,30.0,150.0,0.0,0.0
183,75.0,98.0,90.0,0.0,0.0
184,74.0,64.0,90.0,0.0,0.0
185,65.0,48.0,330.0,0.0,0.0
186,80.0,96.0,90.0,0.0,0.0
187,58.0,0.0,540.0,0.0,0.0
188,72.0,48.0,90.0,0.0,0.0
189,73.0,96.0,90.0,0.0,0.0
190,70.0,32.0,150.0,0.0,0.0
191,66.0,96.0,180.0,0.0,0.0
192,82.0,64.0,90.0,0.0,0.0
193,78.0,0.0,90.0,0.0,0.0
194,65.0,16.0,330.0,0.0,0.0
195,71.0,32.0,150.0,0.0,0.0
196,74.0,64.0,90.0,0.0,0.0
197,78.0,96.0,90.0,0.0,0.0
198,58.0,32.0,150.0,0.0,0.0
199,72.0,48.0,90.0,0.0,0.0
200,73.0,96.0,90.0,0.0,0.0
201,66.0,96.0,180.0,0.0,0.0
202,70.0,32.0,150.0,0.0,0.0
203,82.0,64.0,90.0,0.0,0.0
204,78.0,0.0,90.0,0.0,0.0
205,72.0,64.0,90.0,0.0,0.0
206,69.0,32.0,150.0,0.0,0.0
207,63.0,16.0,330.0,0.0,0.0
208,78.0,96.0,90.0,0.0,0.0
209,70.0,48.0,90.0,0.0,0.0
210,58.0,32.0,150.0,0.0,0.0
211,71.0,96.0,90.0,0.0,0.0
212,80.0,64.0,90.0,0.0,0.0
213,68.0,32.0,150.0,0.0,0.0
214,65.0,0.0,180.0,0.0,0.0
215,77.0,96.0,90.0,0.0,0.0
216,71.0,64.0,90.0,0.0,0.0
217,62.0,48.0,330.0,0.0,0.0
218,77.0,96.0,90.0,0.0,0.0
219,58.0,0.0,480.0,0.0,0.0
220,69.0,48.0,90.0,0.0,0.0
221,70.0,96.0,90.0,0.0,0.0
222,78.0,64.0,90.0,0.0,0.0
223,63.0,94.0,180.0,0.0,0.0
224,66.0,30.0,150.0,0.0,0.0
225,75.0,2.0,90.0,0.0,0.0
226,70.0,0.0,90.0,0.0,0.0
227,62.0,0.0,90.0,0.0,0.0
228,68.0,146.0,90.0,0.0,0.0
229,46.0,0.0,60.0,0.0,0.0
230,34.0,48.0,60.0,0.0,0.0
231,71.0,96.0,90.0,0.0,0.0
232,70.0,96.0,90.0,0.0,0.0
233,69.0,96.0,90.0,0.0,0.0
234,68.0,48.0,90.0,0.0,0.0
235,68.0,96.0,90.0,0.0,0.0
236,59.0,0.0,60.0,0.0,0.0
237,54.0,48.0,60.0,0.0,0.0
238,51.0,0.0,60.0,0.0,0.0
239,66.0,48.0,90.0,0.0,0.0
240,46.0,0.0,60.0,0.0,0.0
241,65.0,96.0,90.0,0.0,0.0
242,34.0,48.0,60.0,0.0,0.0
243,63.0,96.0,90.0,0.0,0.0
244,61.0,96.0,90.0,0.0,0.0
245,59.0,48.0,90.0,0.0,0.0
246,58.0,96.0,90.0,0.0,0.0
247,53.0,48.0,60.0,0.0,0.0
248,49.0,0.0,60.0,0.0,0.0
249,59.0,48.0,90.0,0.0,0.0
250,34.0,48.0,60.0,0.0,0.0
251,57.0,96.0,90.0,0.0,0.0
252,58.0,48.0,90.0,0.0,0.0
253,47.0,0.0,60.0,0.0,0.0
254,63.0,96.0,90.0,0.0,0.0
255,51.0,48.0,60.0,0.0,0.0
256,57.0,48.0,90.0,0.0,0.0
257,49.0,0.0,60.0,0.0,0.0
258,46.0,48.0,60.0,0.0,0.0
259,54.0,96.0,90.0,0.0,0.0
260,56.0,48.0,90.0,0.0,0.0
261,34.0,48.0,60.0,0.0,0.0
262,53.0,96.0,90.0,0.0,0.0
263,54.0,96.0,90.0,0.0,0.0
264,59.0,64.0,90.0,0.0,0.0
265,44.0,30.0,150.0,0.0,0.0
266,47.0,0.0,1500.0,0.0,0.0
267,51.0,98.0,90.0,0.0,0.0
268,50.0,96.0,90.0,0.0,0.0
269,41.0,48.0,900.0,0.0,0.0
270,53.0,96.0,90.0,0.0,0.0
271,56.0,96.0,90.0,0.0,0.0
272,59.0,96.0,90.0,0.0,0.0
273,62.0,96.0,90.0,0.0,0.0
274,65.0,96.0,90.0,0.0,0.0
275,67.0,96.0,90.0,0.0,0.0
276,68.0,96.0,90.0,0.0,0.0
277,69.0,48.0,90.0,0.0,0.0
278,70.0,96.0,90.0,0.0,0.0
279,39.0,32.0,150.0,0.0,0.0
280,71.0,64.0,90.0,0.0,0.0
281,66.0,94.0,90.0,0.0,0.0
282,38.0,32.0,150.0,0.0,0.0
283,65.0,66.0,90.0,0.0,0.0
284,68.0,96.0,90.0,0.0,0.0
285,77.0,0.0,90.0,0.0,0.0
286,80.0,96.0,90.0,0.0,0.0
287,74.0,96.0,90.0,0.0,0.0
288,71.0,96.0,90.0,0.0,0.0
289,69.0,96.0,90.0,0.0,0.0
290,68.0,96.0,90.0,0.0,0.0
291,67.0,48.0,90.0,0.0,0.0
292,59.0,48.0,60.0,0.0,0.0
293,66.0,96.0,90.0,0.0,0.0
294,65.0,48.0,90.0,0.0,0.0
295,64.0,94.0,90.0,0.0,0.0
296,59.0,48.0,60.0,0.0,0.0
297,63.0,98.0,90.0,0.0,0.0
298,59.0,146.0,1260.0,0.0,0.0
299,62.0,96.0,90.0,0.0,0.0
300,53.0,96.0,960.0,0.0,0.0
301,65.0,96.0,90.0,0.0,0.0
302,68.0,96.0,90.0,0.0,0.0
303,71.0,96.0,90.0,0.0,0.0
304,74.0,96.0,90.0,0.0,0.0
305,77.0,96.0,90.0,0.0,0.0
306,79.0,96.0,90.0,0.0,0.0
307,80.0,96.0,90.0,0.0,0.0
308,81.0,96.0,90.0,0.0,0.0
309,82.0,0.0,90.0,0.0,0.0
310,51.0,32.0,180.0,0.0,0.0
311,83.0,96.0,90.0,0.0,0.0
312,78.0,0.0,90.0,0.0,0.0
313,50.0,0.0,90.0,0.0,0.0
314,77.0,62.0,30.0,0.0,0.0
315,64.0,0.0,60.0,0.0,0.0
316,86.0,0.0,60.0,0.0,0.0
317,83.0,0.0,60.0,0.0,0.0
318,74.0,0.0,60.0,0.0,0.0
319,80.0,192.0,60.0,0.0,0.0
320,52.0,0.0,60.0,0.0,0.0
321,80.0,0.0,60.0,0.0,0.0
322,75.0,0.0,60.0,0.0,0.0
323,63.0,304.0,60.0,0.0,0.0
324,87.0,0.0,60.0,0.0,0.0
325,83.0,0.0,60.0,0.0,0.0
326,51.0,0.0,60.0,0.0,0.0
327,62.0,0.0,150.0,0.0,0.0
328,50.0,224.0,150.0,0.0,0.0
329,80.0,0.0,150.0,0.0,0.0
330,83.0,0.0,150.0,0.0,0.0
331,89.0,0.0,150.0,0.0,0.0
332,77.0,0.0,150.0,0.0,0.0
333,47.0,0.0,180.0,0.0,0.0
334,59.0,160.0,180.0,0.0,0.0
335,38.0,0.0,150.0,0.0,0.0
336,50.0,992.0,150.0,0.0,0.0
337,39.0,16.0,1500.0,0.0,0.0
338,51.0,0.0,1500.0,0.0,0.0
339,78.0,160.0,180.0,0.0,0.0
340,71.0,0.0,15.0,0.0,0.0
341,59.0,0.0,150.0,0.0,0.0
342,66.0,0.0,15.0,0.0,0.0
343,65.0,0.0,330.0,0.0,0.0
344,59.0,0.0,330.0,0.0,0.0
345,70.0,144.0,180.0,0.0,0.0
346,68.0,192.0,150.0,0.0,0.0
347,50.0,0.0,150.0,0.0,0.0
348,38.0,224.0,150.0,0.0,0.0
349,61.0,0.0,180.0,0.0,0.0
350,49.0,192.0,180.0,0.0,0.0
351,59.0,0.0,180.0,0.0,0.0
352,47.0,160.0,180.0,0.0,0.0
353,50.0,0.0,150.0,0.0,0.0
354,38.0,800.0,150.0,0.0,0.0
355,39.0,96.0,1680.0,0.0,0.0
356,51.0,0.0,1680.0,0.0,0.0
357,80.0,0.0,390.0,0.0,0.0
358,68.0,192.0,390.0,0.0,0.0
359,78.0,0.0,180.0,0.0,0.0
360,71.0,0.0,15.0,0.0,0.0
361,66.0,0.0,180.0,0.0,0.0
362,59.0,0.0,150.0,0.0,0.0
363,66.0,0.0,150.0,0.0,0.0
364,71.0,368.0,150.0,0.0,0.0
365,70.0,192.0,330.0,0.0,0.0
366,65.0,0.0,1110.0,0.0,0.0
367,59.0,0.0,1110.0,0.0,0.0
368,68.0,16.0,720.0,0.0,0.0
369,51.0,0.0,60.0,0.0,0.0
370,39.0,336.0,60.0,0.0,0.0
371,51.0,144.0,180.0,0.0,0.0
372,39.0,0.0,180.0,0.0,0.0
373,50.0,0.0,150.0,0.0,0.0
374,38.0,224.0,150.0,0.0,0.0
375,58.0,16.0,330.0,0.0,0.0
376,51.0,0.0,540.0,0.0,0.0
377,68.0,144.0,180.0,0.0,0.0
378,63.0,0.0,330.0,0.0,0.0
379,39.0,96.0,540.0,0.0,0.0
380,66.0,176.0,150.0,0.0,0.0
381,51.0,336.0,60.0,0.0,0.0
382,39.0,0.0,60.0,0.0,0.0
383,51.0,160.0,180.0,0.0,0.0
384,39.0,0.0,180.0,0.0,0.0
385,38.0,224.0,150.0,0.0,0.0
386,50.0,0.0,150.0,0.0,0.0
387,58.0,16.0,330.0,0.0,0.0
388,39.0,0.0,540.0,0.0,0.0
389,63.0,0.0,330.0,0.0,0.0
390,68.0,144.0,180.0,0.0,0.0
391,51.0,240.0,540.0,0.0,0.0
392,66.0,176.0,150.0,0.0,0.0
393,39.0,0.0,180.0,0.0,0.0
394,51.0,192.0,180.0,0.0,0.0
395,41.0,0.0,180.0,0.0,0.0
396,53.0,160.0,180.0,0.0,0.0
397,54.0,0.0,150.0,0.0,0.0
398,42.0,416.0,150.0,0.0,0.0
399,44.0,0.0,540.0,0.0,0.0
400,66.0,144.0,390.0,0.0,0.0
401,59.0,0.0,540.0,0.0,0.0
402,32.0,0.0,540.0,0.0,0.0
403,63.0,16.0,540.0,0.0,0.0
404,65.0,1344.0,150.0,0.0,0.0
405,68.0,0.0,2250.0,0.0,0.0
406,80.0,96.0,2250.0,0.0,0.0
407,66.0,0.0,150.0,0.0,0.0
408,78.0,192.0,150.0,0.0,0.0
409,65.0,0.0,150.0,0.0,0.0
410,77.0,192.0,150.0,0.0,0.0
411,63.0,0.0,150.0,0.0,0.0
412,75.0,560.0,150.0,0.0,0.0
413,77.0,0.0,540.0,0.0,0.0
414,65.0,0.0,540.0,0.0,0.0
415,47.0,0.0,60.0,0.0,0.0
416,59.0,0.0,60.0,0.0,0.0
417,75.0,1264.0,60.0,0.0,0.0
418,68.0,0.0,60.0,0.0,0.0
419,68.0,16.0,1620.0,0.0,0.0
420,80.0,0.0,1620.0,0.0,0.0
421,66.0,0.0,150.0,0.0,0.0
422,78.0,192.0,150.0,0.0,0.0
423,77.0,176.0,150.0,0.0,0.0
424,65.0,0.0,150.0,0.0,0.0
425,63.0,1184.0,150.0,0.0,0.0
426,75.0,0.0,150.0,0.0,0.0
427,70.0,0.0,1320.0,0.0,0.0
428,77.0,160.0,1140.0,0.0,0.0
429,74.0,0.0,1140.0,0.0,0.0
430,58.0,0.0,1320.0,0.0,0.0
431,68.0,0.0,1140.0,0.0,0.0
432,51.0,0.0,150.0,0.0,0.0
433,75.0,0.0,150.0,0.0,0.0
434,66.0,704.0,150.0,0.0,0.0
435,46.0,0.0,90.0,0.0,0.0
436,54.0,96.0,90.0,0.0,0.0
437,47.0,94.0,90.0,0.0,0.0
438,38.0,98.0,90.0,0.0,0.0
439,54.0,96.0,90.0,0.0,0.0
440,59.0,96.0,90.0,0.0,0.0
441,66.0,96.0,90.0,0.0,0.0
442,68.0,96.0,300.0,0.0,0.0
443,37.0,96.0,90.0,0.0,0.0
444,47.0,94.0,90.0,0.0,0.0
445,53.0,2.0,90.0,0.0,0.0
446,59.0,96.0,90.0,0.0,0.0
447,61.0,94.0,90.0,0.0,0.0
448,59.0,98.0,90.0,0.0,0.0
449,58.0,0.0,90.0,0.0,0.0
450,48.0,96.0,90.0,0.0,0.0
451,49.0,96.0,90.0,0.0,0.0
452,42.0,32.0,150.0,0.0,0.0
453,58.0,64.0,90.0,0.0,0.0
454,61.0,96.0,90.0,0.0,0.0
455,70.0,96.0,90.0,0.0,0.0
456,70.0,160.0,90.0,0.0,0.0
457,82.0,512.0,150.0,0.0,0.0
458,50.0,96.0,90.0,0.0,0.0
459,58.0,0.0,90.0,0.0,0.0
460,51.0,94.0,90.0,0.0,0.0
461,42.0,98.0,90.0,0.0,0.0
462,58.0,96.0,90.0,0.0,0.0
463,63.0,96.0,90.0,0.0,0.0
464,70.0,96.0,90.0,0.0,0.0
465,41.0,96.0,90.0,0.0,0.0
466,72.0,96.0,300.0,0.0,0.0
467,51.0,94.0,90.0,0.0,0.0
468,56.0,2.0,90.0,0.0,0.0
469,63.0,96.0,90.0,0.0,0.0
470,65.0,94.0,90.0,0.0,0.0
471,63.0,98.0,90.0,0.0,0.0
472,61.0,0.0,90.0,0.0,0.0
473,52.0,96.0,90.0,0.0,0.0
474,53.0,94.0,90.0,0.0,0.0
475,61.0,96.0,90.0,0.0,0.0
476,46.0,2.0,90.0,0.0,0.0
477,65.0,96.0,90.0,0.0,0.0
478,73.0,96.0,90.0,0.0,0.0
479,73.0,94.0,90.0,0.0,0.0
480,85.0,578.0,90.0,0.0,0.0
481,53.0,0.0,90.0,0.0,0.0
482,61.0,96.0,90.0,0.0,0.0
483,54.0,94.0,90.0,0.0,0.0
484,45.0,98.0,90.0,0.0,0.0
485,61.0,96.0,90.0,0.0,0.0
486,66.0,96.0,90.0,0.0,0.0
487,73.0,96.0,90.0,0.0,0.0
488,44.0,96.0,90.0,0.0,0.0
489,75.0,96.0,300.0,0.0,0.0
490,54.0,94.0,90.0,0.0,0.0
491,60.0,2.0,90.0,0.0,0.0
492,66.0,96.0,90.0,0.0,0.0
493,68.0,94.0,90.0,0.0,0.0
494,66.0,98.0,90.0,0.0,0.0
495,65.0,0.0,90.0,0.0,0.0
496,55.0,96.0,90.0,0.0,0.0
497,56.0,94.0,90.0,0.0,0.0
498,49.0,98.0,90.0,0.0,0.0
499,65.0,96.0,90.0,0.0,0.0
500,68.0,94.0,90.0,0.0,0.0
501,77.0,98.0,90.0,0.0,0.0
502,54.0,96.0,90.0,0.0,0.0
503,65.0,0.0,90.0,0.0,0.0
504,55.0,94.0,90.0,0.0,0.0
505,49.0,98.0,90.0,0.0,0.0
506,65.0,96.0,90.0,0.0,0.0
507,71.0,192.0,90.0,0.0,0.0
508,79.0,32.0,270.0,0.0,0.0
509,65.0,0.0,90.0,0.0,0.0
510,54.0,64.0,90.0,0.0,0.0
511,55.0,94.0,90.0,0.0,0.0
512,48.0,98.0,90.0,0.0,0.0
513,64.0,96.0,90.0,0.0,0.0
514,72.0,192.0,90.0,0.0,0.0
515,76.0,32.0,270.0,0.0,0.0
516,53.0,0.0,90.0,0.0,0.0
517,64.0,64.0,90.0,0.0,0.0
518,54.0,94.0,90.0,0.0,0.0
519,48.0,98.0,90.0,0.0,0.0
520,64.0,96.0,90.0,0.0,0.0
521,70.0,192.0,90.0,0.0,0.0
522,78.0,32.0,270.0,0.0,0.0
523,63.0,0.0,90.0,0.0,0.0
524,52.0,64.0,90.0,0.0,0.0
525,54.0,94.0,90.0,0.0,0.0
526,47.0,98.0,90.0,0.0,0.0
527,63.0,96.0,90.0,0.0,0.0
528,71.0,192.0,90.0,0.0,0.0
529,75.0,32.0,270.0,0.0,0.0
530,52.0,64.0,90.0,0.0,0.0
531,63.0,0.0,90.0,0.0,0.0
532,53.0,94.0,90.0,0.0,0.0
533,47.0,98.0,90.0,0.0,0.0
534,63.0,96.0,90.0,0.0,0.0
535,69.0,192.0,90.0,0.0,0.0
536,77.0,32.0,270.0,0.0,0.0
537,62.0,64.0,90.0,0.0,0.0
538,53.0,94.0,90.0,0.0,0.0
539,46.0,98.0,90.0,0.0,0.0
540,62.0,96.0,90.0,0.0,0.0
541,70.0,192.0,90.0,0.0,0.0
542,77.0,32.0,270.0,0.0,0.0
543,65.0,64.0,90.0,0.0,0.0
544,58.0,94.0,90.0,0.0,0.0
545,50.0,98.0,90.0,0.0,0.0
546,65.0,96.0,90.0,0.0,0.0
547,74.0,94.0,90.0,0.0,0.0
548,82.0,98.0,90.0,0.0,0.0
549,66.0,96.0,90.0,0.0,0.0
550,58.0,94.0,90.0,0.0,0.0
551,48.0,98.0,90.0,0.0,0.0
552,66.0,96.0,90.0,0.0,0.0
553,75.0,94.0,90.0,0.0,0.0
554,82.0,98.0,90.0,0.0,0.0
555,69.0,96.0,90.0,0.0,0.0
556,63.0,94.0,90.0,0.0,0.0
557,53.0,98.0,90.0,0.0,0.0
558,69.0,96.0,90.0,0.0,0.0
559,75.0,94.0,90.0,0.0,0.0
560,84.0,98.0,90.0,0.0,0.0
561,72.0,96.0,90.0,0.0,0.0
562,62.0,94.0,90.0,0.0,0.0
563,56.0,98.0,90.0,0.0,0.0
564,72.0,96.0,90.0,0.0,0.0
565,77.0,94.0,90.0,0.0,0.0
566,86.0,98.0,90.0,0.0,0.0
567,71.0,96.0,90.0,0.0,0.0
568,62.0,94.0,90.0,0.0,0.0
569,55.0,98.0,90.0,0.0,0.0
570,71.0,96.0,90.0,0.0,0.0
571,79.0,94.0,90.0,0.0,0.0
572,86.0,98.0,90.0,0.0,0.0
573,75.0,96.0,90.0,0.0,0.0
574,67.0,94.0,90.0,0.0,0.0
575,60.0,98.0,90.0,0.0,0.0
576,72.0,96.0,90.0,0.0,0.0
577,79.0,94.0,90.0,0.0,0.0
578,87.0,98.0,90.0,0.0,0.0
579,69.0,96.0,90.0,0.0,0.0
580,63.0,94.0,90.0,0.0,0.0
581,53.0,98.0,90.0,0.0,0.0
582,69.0,96.0,90.0,0.0,0.0
583,75.0,94.0,90.0,0.0,0.0
584,84.0,98.0,90.0,0.0,0.0
585,74.0,96.0,90.0,0.0,0.0
586,65.0,94.0,90.0,0.0,0.0
587,58.0,98.0,90.0,0.0,0.0
588,70.0,96.0,90.0,0.0,0.0
589,74.0,94.0,90.0,0.0,0.0
590,82.0,98.0,90.0,0.0,0.0
591,70.0,0.0,90.0,0.0,0.0
592,77.0,94.0,90.0,0.0,0.0
593,62.0,98.0,90.0,0.0,0.0
594,94.0,96.0,90.0,0.0,0.0
595,86.0,160.0,90.0,0.0,0.0
596,94.0,30.0,150.0,0.0,0.0
597,82.0,98.0,90.0,0.0,0.0
598,70.0,94.0,90.0,0.0,0.0
599,78.0,0.0,90.0,0.0,0.0
600,60.0,98.0,90.0,0.0,0.0
601,94.0,96.0,90.0,0.0,0.0
602,87.0,160.0,90.0,0.0,0.0
603,94.0,30.0,150.0,0.0,0.0
604,82.0,98.0,90.0,0.0,0.0
605,72.0,0.0,90.0,0.0,0.0
606,81.0,94.0,90.0,0.0,0.0
607,75.0,0.0,90.0,0.0,0.0
608,65.0,98.0,90.0,0.0,0.0
609,96.0,96.0,90.0,0.0,0.0
610,89.0,160.0,90.0,0.0,0.0
611,96.0,30.0,150.0,0.0,0.0
612,87.0,98.0,90.0,0.0,0.0
613,84.0,0.0,90.0,0.0,0.0
614,74.0,0.0,90.0,0.0,0.0
615,77.0,94.0,90.0,0.0,0.0
616,68.0,98.0,90.0,0.0,0.0
617,98.0,96.0,90.0,0.0,0.0
618,89.0,96.0,90.0,0.0,0.0
619,98.0,94.0,90.0,0.0,0.0
620,84.0,98.0,90.0,0.0,0.0
621,74.0,0.0,90.0,0.0,0.0
622,77.0,0.0,90.0,0.0,0.0
623,83.0,94.0,90.0,0.0,0.0
624,67.0,98.0,90.0,0.0,0.0
625,98.0,96.0,90.0,0.0,0.0
626,89.0,96.0,90.0,0.0,0.0
627,98.0,94.0,90.0,0.0,0.0
628,83.0,98.0,90.0,0.0,0.0
629,82.0,0.0,90.0,0.0,0.0
630,75.0,0.0,90.0,0.0,0.0
631,70.0,94.0,90.0,0.0,0.0
632,66.0,98.0,90.0,0.0,0.0
633,99.0,96.0,90.0,0.0,0.0
634,90.0,96.0,90.0,0.0,0.0
635,99.0,94.0,90.0,0.0,0.0
636,82.0,98.0,90.0,0.0,0.0
637,72.0,0.0,90.0,0.0,0.0
638,75.0,0.0,90.0,0.0,0.0
639,81.0,94.0,90.0,0.0,0.0
640,65.0,98.0,90.0,0.0,0.0
641,96.0,96.0,90.0,0.0,0.0
642,87.0,96.0,90.0,0.0,0.0
643,96.0,94.0,90.0,0.0,0.0
644,81.0,98.0,90.0,0.0,0.0
645,65.0,0.0,90.0,0.0,0.0
646,74.0,0.0,90.0,0.0,0.0
647,70.0,94.0,90.0,0.0,0.0
648,58.0,98.0,90.0,0.0,0.0
649,94.0,0.0,90.0,0.0,0.0
650,89.0,96.0,90.0,0.0,0.0
651,86.0,96.0,90.0,0.0,0.0
652,89.0,0.0,90.0,0.0,0.0
653,94.0,94.0,90.0,0.0,0.0
654,82.0,98.0,90.0,0.0,0.0
655,66.0,0.0,90.0,0.0,0.0
656,75.0,94.0,90.0,0.0,0.0
657,58.0,98.0,90.0,0.0,0.0
658,90.0,96.0,90.0,0.0,0.0
659,95.0,0.0,90.0,0.0,0.0
660,87.0,96.0,90.0,0.0,0.0
661,90.0,0.0,90.0,0.0,0.0
662,95.0,94.0,90.0,0.0,0.0
663,83.0,98.0,90.0,0.0,0.0
664,65.0,0.0,90.0,0.0,0.0
665,74.0,94.0,90.0,0.0,0.0
666,58.0,98.0,90.0,0.0,0.0
667,89.0,0.0,90.0,0.0,0.0
668,94.0,96.0,90.0,0.0,0.0
669,86.0,96.0,90.0,0.0,0.0
670,89.0,0.0,90.0,0.0,0.0
671,94.0,94.0,90.0,0.0,0.0
672,82.0,98.0,90.0,0.0,0.0
673,64.0,94.0,90.0,0.0,0.0
674,73.0,0.0,90.0,0.0,0.0
675,58.0,98.0,90.0,0.0,0.0
676,88.0,0.0,90.0,0.0,0.0
677,93.0,96.0,90.0,0.0,0.0
678,85.0,96.0,90.0,0.0,0.0
679,93.0,0.0,90.0,0.0,0.0
680,88.0,94.0,90.0,0.0,0.0
681,81.0,98.0,90.0,0.0,0.0
682,72.0,94.0,90.0,0.0,0.0
683,63.0,0.0,90.0,0.0,0.0
684,58.0,98.0,90.0,0.0,0.0
685,92.0,0.0,90.0,0.0,0.0
686,87.0,96.0,90.0,0.0,0.0
687,84.0,96.0,90.0,0.0,0.0
688,87.0,0.0,90.0,0.0,0.0
689,92.0,94.0,90.0,0.0,0.0
690,80.0,98.0,90.0,0.0,0.0
691,64.0,0.0,90.0,0.0,0.0
692,73.0,94.0,90.0,0.0,0.0
693,58.0,98.0,90.0,0.0,0.0
694,93.0,0.0,90.0,0.0,0.0
695,88.0,96.0,90.0,0.0,0.0
696,85.0,96.0,90.0,0.0,0.0
697,93.0,0.0,90.0,0.0,0.0
698,88.0,94.0,90.0,0.0,0.0
699,81.0,98.0,90.0,0.0,0.0
700,63.0,94.0,90.0,0.0,0.0
701,72.0,0.0,90.0,0.0,0.0
702,58.0,98.0,90.0,0.0,0.0
703,87.0,0.0,90.0,0.0,0.0
704,92.0,96.0,90.0,0.0,0.0
705,84.0,96.0,90.0,0.0,0.0
706,92.0,94.0,90.0,0.0,0.0
707,87.0,0.0,90.0,0.0,0.0
708,80.0,98.0,90.0,0.0,0.0
709,71.0,0.0,90.0,0.0,0.0
710,63.0,94.0,90.0,0.0,0.0
711,58.0,98.0,90.0,0.0,0.0
712,87.0,0.0,90.0,0.0,0.0
713,92.0,96.0,90.0,0.0,0.0
714,83.0,96.0,90.0,0.0,0.0
715,87.0,0.0,90.0,0.0,0.0
716,92.0,94.0,90.0,0.0,0.0
717,80.0,50.0,90.0,0.0,0.0
718,92.0,0.0,60.0,0.0,0.0
719,89.0,0.0,60.0,0.0,0.0
720,86.0,0.0,60.0,0.0,0.0
721,83.0,624.0,60.0,0.0,0.0
722,80.0,0.0,60.0,0.0,0.0
723,65.0,0.0,60.0,0.0,0.0
724,58.0,0.0,60.0,0.0,0.0
725,68.0,0.0,60.0,0.0,0.0
726,92.0,64.0,90.0,0.0,0.0
727,71.0,32.0,150.0,0.0,0.0
728,83.0,94.0,90.0,0.0,0.0
729,89.0,96.0,90.0,0.0,0.0
730,77.0,2.0,90.0,0.0,0.0
731,95.0,96.0,90.0,0.0,0.0
732,98.0,0.0,90.0,0.0,0.0
733,89.0,94.0,90.0,0.0,0.0
734,104.0,98.0,90.0,0.0,0.0
735,68.0,32.0,150.0,0.0,0.0
736,89.0,64.0,90.0,0.0,0.0
737,80.0,94.0,90.0,0.0,0.0
738,86.0,96.0,90.0,0.0,0.0
739,74.0,2.0,90.0,0.0,0.0
740,92.0,96.0,90.0,0.0,0.0
741,95.0,0.0,90.0,0.0,0.0
742,86.0,94.0,90.0,0.0,0.0
743,101.0,98.0,90.0,0.0,0.0
744,86.0,64.0,90.0,0.0,0.0
745,65.0,32.0,150.0,0.0,0.0
746,77.0,94.0,90.0,0.0,0.0
747,71.0,2.0,90.0,0.0,0.0
748,83.0,96.0,90.0,0.0,0.0
749,92.0,0.0,90.0,0.0,0.0
750,89.0,96.0,90.0,0.0,0.0
751,83.0,94.0,90.0,0.0,0.0
752,98.0,98.0,90.0,0.0,0.0
753,83.0,64.0,90.0,0.0,0.0
754,63.0,32.0,150.0,0.0,0.0
755,74.0,94.0,90.0,0.0,0.0
756,80.0,96.0,90.0,0.0,0.0
757,68.0,2.0,90.0,0.0,0.0
758,86.0,96.0,90.0,0.0,0.0
759,89.0,0.0,90.0,0.0,0.0
760,80.0,94.0,90.0,0.0,0.0
761,95.0,98.0,90.0,0.0,0.0
762,59.0,32.0,150.0,0.0,0.0
763,80.0,64.0,90.0,0.0,0.0
764,71.0,94.0,90.0,0.0,0.0
765,65.0,2.0,90.0,0.0,0.0
766,77.0,96.0,90.0,0.0,0.0
767,86.0,96.0,90.0,0.0,0.0
768,83.0,0.0,90.0,0.0,0.0
769,77.0,94.0,90.0,0.0,0.0
770,92.0,98.0,90.0,0.0,0.0
771,77.0,64.0,90.0,0.0,0.0
772,56.0,32.0,150.0,0.0,0.0
773,68.0,94.0,90.0,0.0,0.0
774,74.0,96.0,90.0,0.0,0.0
775,62.0,2.0,90.0,0.0,0.0
776,80.0,0.0,90.0,0.0,0.0
777,83.0,96.0,90.0,0.0,0.0
778,74.0,94.0,90.0,0.0,0.0
779,89.0,98.0,90.0,0.0,0.0
780,53.0,32.0,150.0,0.0,0.0
781,74.0,64.0,90.0,0.0,0.0
782,65.0,94.0,90.0,0.0,0.0
783,71.0,96.0,90.0,0.0,0.0
784,59.0,2.0,90.0,0.0,0.0
785,80.0,0.0,90.0,0.0,0.0
786,77.0,96.0,90.0,0.0,0.0
787,71.0,94.0,90.0,0.0,0.0
788,86.0,194.0,90.0,0.0,0.0
789,68.0,30.0,270.0,0.0,0.0
790,59.0,64.0,90.0,0.0,0.0
791,53.0,194.0,90.0,0.0,0.0
792,65.0,30.0,270.0,0.0,0.0
793,71.0,64.0,90.0,0.0,0.0
794,80.0,194.0,90.0,0.0,0.0
795,68.0,30.0,270.0,0.0,0.0
796,59.0,64.0,90.0,0.0,0.0
797,52.0,194.0,90.0,0.0,0.0
798,64.0,30.0,270.0,0.0,0.0
799,71.0,64.0,90.0,0.0,0.0
800,80.0,194.0,90.0,0.0,0.0
801,68.0,30.0,270.0,0.0,0.0
802,59.0,64.0,90.0,0.0,0.0
803,51.0,194.0,90.0,0.0,0.0
804,63.0,30.0,270.0,0.0,0.0
805,71.0,64.0,90.0,0.0,0.0
806,80.0,194.0,90.0,0.0,0.0
807,68.0,30.0,270.0,0.0,0.0
808,59.0,64.0,90.0,0.0,0.0
809,50.0,194.0,90.0,0.0,0.0
810,62.0,30.0,270.0,0.0,0.0
811,71.0,64.0,90.0,0.0,0.0
812,80.0,194.0,90.0,0.0,0.0
813,68.0,30.0,270.0,0.0,0.0
814,59.0,64.0,90.0,0.0,0.0
815,53.0,194.0,90.0,0.0,0.0
816,65.0,30.0,270.0,0.0,0.0
817,71.0,64.0,90.0,0.0,0.0
818,80.0,194.0,90.0,0.0,0.0
819,68.0,30.0,270.0,0.0,0.0
820,59.0,64.0,90.0,0.0,0.0
821,52.0,194.0,90.0,0.0,0.0
822,64.0,30.0,270.0,0.0,0.0
823,71.0,64.0,90.0,0.0,0.0
824,80.0,194.0,90.0,0.0,0.0
825,68.0,30.0,270.0,0.0,0.0
826,59.0,64.0,90.0,0.0,0.0
827,51.0,194.0,90.0,0.0,0.0
828,63.0,30.0,270.0,0.0,0.0
829,71.0,64.0,90.0,0.0,0.0
830,80.0,194.0,90.0,0.0,0.0
831,68.0,30.0,270.0,0.0,0.0
832,59.0,64.0,90.0,0.0,0.0
833,50.0,194.0,90.0,0.0,0.0
834,62.0,30.0,270.0,0.0,0.0
835,71.0,64.0,90.0,0.0,0.0
836,80.0,98.0,90.0,0.0,0.0
837,45.0,0.0,90.0,0.0,0.0
838,54.0,96.0,90.0,0.0,0.0
839,46.0,94.0,90.0,0.0,0.0
840,40.0,98.0,90.0,0.0,0.0
841,57.0,96.0,90.0,0.0,0.0
842,58.0,96.0,90.0,0.0,0.0
843,63.0,96.0,90.0,0.0,0.0
844,66.0,96.0,90.0,0.0,0.0
845,59.0,0.0,180.0,0.0,0.0
846,56.0,0.0,180.0,0.0,0.0
847,62.0,96.0,90.0,0.0,0.0
848,65.0,64.0,90.0,0.0,0.0
849,58.0,32.0,150.0,0.0,0.0
850,54.0,0.0,150.0,0.0,0.0
851,63.0,96.0,90.0,0.0,0.0
852,66.0,96.0,90.0,0.0,0.0
853,70.0,94.0,90.0,0.0,0.0
854,45.0,0.0,90.0,0.0,0.0
855,75.0,2.0,90.0,0.0,0.0
856,54.0,96.0,90.0,0.0,0.0
857,46.0,94.0,90.0,0.0,0.0
858,40.0,98.0,90.0,0.0,0.0
859,57.0,96.0,90.0,0.0,0.0
860,58.0,96.0,90.0,0.0,0.0
861,63.0,96.0,90.0,0.0,0.0
862,59.0,0.0,180.0,0.0,0.0
863,56.0,96.0,180.0,0.0,0.0
864,66.0,96.0,90.0,0.0,0.0
865,62.0,0.0,90.0,0.0,0.0
866,58.0,0.0,150.0,0.0,0.0
867,54.0,32.0,150.0,0.0,0.0
868,65.0,64.0,90.0,0.0,0.0
869,63.0,96.0,90.0,0.0,0.0
870,66.0,96.0,90.0,0.0,0.0
871,70.0,48.0,90.0,0.0,0.0
872,78.0,194.0,90.0,0.0,0.0
873,51.0,46.0,60.0,0.0,0.0
874,80.0,96.0,90.0,0.0,0.0
875,74.0,96.0,90.0,0.0,0.0
876,78.0,96.0,90.0,0.0,0.0
877,75.0,48.0,90.0,0.0,0.0
878,58.0,0.0,60.0,0.0,0.0
879,83.0,96.0,90.0,0.0,0.0
880,66.0,48.0,60.0,0.0,0.0
881,77.0,48.0,90.0,0.0,0.0
882,51.0,48.0,60.0,0.0,0.0
883,82.0,96.0,90.0,0.0,0.0
884,78.0,48.0,90.0,0.0,0.0
885,66.0,48.0,60.0,0.0,0.0
886,89.0,96.0,90.0,0.0,0.0
887,58.0,0.0,60.0,0.0,0.0
888,81.0,48.0,90.0,0.0,0.0
889,51.0,48.0,60.0,0.0,0.0
890,87.0,96.0,90.0,0.0,0.0
891,82.0,48.0,90.0,0.0,0.0
892,92.0,96.0,90.0,0.0,0.0
893,58.0,48.0,60.0,0.0,0.0
894,66.0,0.0,60.0,0.0,0.0
895,86.0,48.0,90.0,0.0,0.0
896,90.0,96.0,90.0,0.0,0.0
897,51.0,48.0,60.0,0.0,0.0
898,87.0,48.0,90.0,0.0,0.0
899,58.0,624.0,60.0,0.0,0.0
900,99.0,0.0,60.0,0.0,0.0
901,66.0,0.0,60.0,0.0,0.0
902,56.0,0.0,90.0,0.0,0.0
903,46.0,96.0,90.0,0.0,0.0
904,47.0,94.0,90.0,0.0,0.0
905,39.0,98.0,90.0,0.0,0.0
906,62.0,96.0,90.0,0.0,0.0
907,63.0,96.0,90.0,0.0,0.0
908,68.0,96.0,90.0,0.0,0.0
909,61.0,0.0,180.0,0.0,0.0
910,71.0,96.0,90.0,0.0,0.0
911,64.0,96.0,180.0,0.0,0.0
912,67.0,0.0,90.0,0.0,0.0
913,63.0,0.0,150.0,0.0,0.0
914,70.0,64.0,90.0,0.0,0.0
915,59.0,32.0,150.0,0.0,0.0
916,68.0,96.0,90.0,0.0,0.0
917,71.0,96.0,90.0,0.0,0.0
918,75.0,32.0,90.0,0.0,0.0
919,56.0,96.0,90.0,0.0,0.0
920,80.0,64.0,30.0,0.0,0.0
921,46.0,0.0,90.0,0.0,0.0
922,47.0,94.0,90.0,0.0,0.0
923,39.0,98.0,90.0,0.0,0.0
924,62.0,96.0,90.0,0.0,0.0
925,63.0,96.0,90.0,0.0,0.0
926,68.0,96.0,90.0,0.0,0.0
927,64.0,96.0,180.0,0.0,0.0
928,61.0,0.0,180.0,0.0,0.0
929,71.0,96.0,90.0,0.0,0.0
930,67.0,0.0,90.0,0.0,0.0
931,59.0,0.0,150.0,0.0,0.0
932,70.0,64.0,90.0,0.0,0.0
933,63.0,32.0,150.0,0.0,0.0
934,68.0,96.0,90.0,0.0,0.0
935,71.0,96.0,90.0,0.0,0.0
936,75.0,48.0,90.0,0.0,0.0
937,83.0,194.0,90.0,0.0,0.0
938,51.0,46.0,60.0,0.0,0.0
939,82.0,96.0,90.0,0.0,0.0
940,74.0,96.0,90.0,0.0,0.0
941,80.0,96.0,90.0,0.0,0.0
942,75.0,48.0,90.0,0.0,0.0
943,59.0,48.0,60.0,0.0,0.0
944,68.0,0.0,60.0,0.0,0.0
945,85.0,96.0,90.0,0.0,0.0
946,79.0,48.0,90.0,0.0,0.0
947,83.0,96.0,90.0,0.0,0.0
948,51.0,48.0,60.0,0.0,0.0
949,80.0,48.0,90.0,0.0,0.0
950,88.0,96.0,90.0,0.0,0.0
951,68.0,0.0,60.0,0.0,0.0
952,59.0,48.0,60.0,0.0,0.0
953,82.0,48.0,90.0,0.0,0.0
954,87.0,96.0,90.0,0.0,0.0
955,51.0,48.0,60.0,0.0,0.0
956,83.0,48.0,90.0,0.0,0.0
957,59.0,0.0,60.0,0.0,0.0
958,94.0,96.0,90.0,0.0,0.0
959,68.0,48.0,60.0,0.0,0.0
960,86.0,48.0,90.0,0.0,0.0
961,92.0,96.0,90.0,0.0,0.0
962,51.0,48.0,60.0,0.0,0.0
963,87.0,48.0,90.0,0.0,0.0
964,68.0,0.0,60.0,0.0,0.0
965,59.0,112.0,60.0,0.0,0.0
966,104.0,576.0,150.0,0.0,0.0
967,82.0,32.0,150.0,0.0,0.0
968,94.0,96.0,180.0,0.0,0.0
969,74.0,0.0,570.0,0.0,0.0
970,80.0,0.0,570.0,0.0,0.0
971,77.0,0.0,570.0,0.0,0.0
972,83.0,32.0,540.0,0.0,0.0
973,95.0,96.0,90.0,0.0,0.0
974,94.0,96.0,90.0,0.0,0.0
975,93.0,96.0,90.0,0.0,0.0
976,92.0,96.0,90.0,0.0,0.0
977,78.0,0.0,150.0,0.0,0.0
978,92.0,64.0,90.0,0.0,0.0
979,75.0,0.0,150.0,0.0,0.0
980,90.0,96.0,90.0,0.0,0.0
981,89.0,64.0,90.0,0.0,0.0
982,58.0,0.0,150.0,0.0,0.0
983,70.0,32.0,150.0,0.0,0.0
984,87.0,96.0,90.0,0.0,0.0
985,85.0,96.0,90.0,0.0,0.0
986,83.0,48.0,90.0,0.0,0.0
987,82.0,96.0,90.0,0.0,0.0
988,73.0,0.0,60.0,0.0,0.0
989,77.0,48.0,60.0,0.0,0.0
990,83.0,48.0,90.0,0.0,0.0
991,58.0,48.0,60.0,0.0,0.0
992,81.0,96.0,90.0,0.0,0.0
993,82.0,48.0,90.0,0.0,0.0
994,87.0,96.0,90.0,0.0,0.0
995,71.0,0.0,60.0,0.0,0.0
996,75.0,48.0,60.0,0.0,0.0
997,80.0,48.0,90.0,0.0,0.0
998,78.0,96.0,90.0,0.0,0.0
999,70.0,0.0,60.0,0.0,0.0
1000,73.0,48.0,60.0,0.0,0.0
1001,80.0,48.0,90.0,0.0,0.0
1002,77.0,96.0,90.0,0.0,0.0
1003,58.0,48.0,60.0,0.0,0.0
1004,78.0,96.0,90.0,0.0,0.0
1005,68.0,30.0,150.0,0.0,0.0
1006,71.0,32.0,360.0,0.0,0.0
1007,83.0,64.0,90.0,0.0,0.0
1008,75.0,98.0,90.0,0.0,0.0
1009,74.0,64.0,90.0,0.0,0.0
1010,65.0,48.0,330.0,0.0,0.0
1011,80.0,96.0,90.0,0.0,0.0
1012,72.0,48.0,90.0,0.0,0.0
1013,58.0,0.0,540.0,0.0,0.0
1014,73.0,96.0,90.0,0.0,0.0
1015,66.0,0.0,180.0,0.0,0.0
1016,70.0,32.0,150.0,0.0,0.0
1017,82.0,64.0,90.0,0.0,0.0
1018,78.0,96.0,90.0,0.0,0.0
1019,74.0,64.0,90.0,0.0,0.0
1020,71.0,32.0,150.0,0.0,0.0
1021,65.0,16.0,330.0,0.0,0.0
1022,78.0,96.0,90.0,0.0,0.0
1023,72.0,48.0,90.0,0.0,0.0
1024,58.0,32.0,150.0,0.0,0.0
1025,73.0,96.0,90.0,0.0,0.0
1026,66.0,0.0,180.0,0.0,0.0
1027,82.0,64.0,90.0,0.0,0.0
1028,70.0,32.0,150.0,0.0,0.0
1029,78.0,96.0,90.0,0.0,0.0
1030,69.0,0.0,150.0,0.0,0.0
1031,63.0,16.0,330.0,0.0,0.0
1032,72.0,64.0,90.0,0.0,0.0
1033,78.0,96.0,90.0,0.0,0.0
1034,58.0,32.0,150.0,0.0,0.0
1035,70.0,48.0,90.0,0.0,0.0
1036,71.0,96.0,90.0,0.0,0.0
1037,80.0,64.0,90.0,0.0,0.0
1038,68.0,32.0,150.0,0.0,0.0
1039,65.0,0.0,180.0,0.0,0.0
1040,77.0,96.0,90.0,0.0,0.0
1041,62.0,48.0,330.0,0.0,0.0
1042,71.0,64.0,90.0,0.0,0.0
1043,77.0,96.0,90.0,0.0,0.0
1044,58.0,0.0,480.0,0.0,0.0
1045,69.0,48.0,90.0,0.0,0.0
1046,70.0,96.0,90.0,0.0,0.0
1047,66.0,30.0,150.0,0.0,0.0
1048,78.0,64.0,90.0,0.0,0.0
1049,63.0,94.0,180.0,0.0,0.0
1050,75.0,2.0,90.0,0.0,0.0
1051,70.0,0.0,90.0,0.0,0.0
1052,62.0,0.0,90.0,0.0,0.0
1053,68.0,146.0,90.0,0.0,0.0
1054,46.0,48.0,60.0,0.0,0.0
1055,34.0,0.0,60.0,0.0,0.0
1056,71.0,96.0,90.0,0.0,0.0
1057,70.0,96.0,90.0,0.0,0.0
1058,69.0,96.0,90.0,0.0,0.0
1059,68.0,48.0,90.0,0.0,0.0
1060,59.0,0.0,60.0,0.0,0.0
1061,68.0,96.0,90.0,0.0,0.0
1062,54.0,48.0,60.0,0.0,0.0
1063,51.0,0.0,60.0,0.0,0.0
1064,66.0,48.0,90.0,0.0,0.0
1065,65.0,96.0,90.0,0.0,0.0
1066,46.0,0.0,60.0,0.0,0.0
1067,34.0,48.0,60.0,0.0,0.0
1068,63.0,96.0,90.0,0.0,0.0
1069,61.0,96.0,90.0,0.0,0.0
1070,59.0,48.0,90.0,0.0,0.0
1071,49.0,0.0,60.0,0.0,0.0
1072,53.0,48.0,60.0,0.0,0.0
1073,58.0,96.0,90.0,0.0,0.0
1074,59.0,48.0,90.0,0.0,0.0
1075,57.0,96.0,90.0,0.0,0.0
1076,34.0,48.0,60.0,0.0,0.0
1077,58.0,48.0,90.0,0.0,0.0
1078,47.0,48.0,60.0,0.0,0.0
1079,51.0,0.0,60.0,0.0,0.0
1080,63.0,96.0,90.0,0.0,0.0
1081,57.0,48.0,90.0,0.0,0.0
1082,46.0,0.0,60.0,0.0,0.0
1083,49.0,48.0,60.0,0.0,0.0
1084,54.0,96.0,90.0,0.0,0.0
1085,56.0,48.0,90.0,0.0,0.0
1086,34.0,48.0,60.0,0.0,0.0
1087,53.0,96.0,90.0,0.0,0.0
1088,54.0,96.0,90.0,0.0,0.0
1089,47.0,0.0,1500.0,0.0,0.0
1090,59.0,64.0,90.0,0.0,0.0
1091,44.0,30.0,150.0,0.0,0.0
1092,51.0,98.0,90.0,0.0,0.0
1093,50.0,96.0,90.0,0.0,0.0
1094,41.0,48.0,900.0,0.0,0.0
1095,53.0,96.0,90.0,0.0,0.0
1096,56.0,96.0,90.0,0.0,0.0
1097,59.0,96.0,90.0,0.0,0.0
1098,62.0,96.0,90.0,0.0,0.0
1099,65.0,96.0,90.0,0.0,0.0
1100,67.0,96.0,90.0,0.0,0.0
1101,68.0,96.0,90.0,0.0,0.0
1102,69.0,48.0,90.0,0.0,0.0
1103,70.0,96.0,90.0,0.0,0.0
1104,71.0,64.0,90.0,0.0,0.0
1105,39.0,32.0,150.0,0.0,0.0
1106,66.0,94.0,90.0,0.0,0.0
1107,38.0,32.0,150.0,0.0,0.0
1108,65.0,66.0,90.0,0.0,0.0
1109,68.0,96.0,90.0,0.0,0.0
1110,80.0,0.0,90.0,0.0,0.0
1111,77.0,96.0,90.0,0.0,0.0
1112,74.0,96.0,90.0,0.0,0.0
1113,71.0,96.0,90.0,0.0,0.0
1114,69.0,96.0,90.0,0.0,0.0
1115,68.0,96.0,90.0,0.0,0.0
1116,67.0,48.0,90.0,0.0,0.0
1117,59.0,48.0,60.0,0.0,0.0
1118,66.0,96.0,90.0,0.0,0.0
1119,65.0,48.0,90.0,0.0,0.0
1120,59.0,48.0,60.0,0.0,0.0
1121,64.0,94.0,90.0,0.0,0.0
1122,63.0,98.0,90.0,0.0,0.0
1123,62.0,96.0,90.0,0.0,0.0
1124,53.0,96.0,960.0,0.0,0.0
1125,59.0,146.0,1260.0,0.0,0.0
1126,65.0,96.0,90.0,0.0,0.0
1127,68.0,96.0,90.0,0.0,0.0
1128,71.0,96.0,90.0,0.0,0.0
1129,74.0,96.0,90.0,0.0,0.0
1130,77.0,96.0,90.0,0.0,0.0
1131,79.0,96.0,90.0,0.0,0.0
1132,80.0,96.0,90.0,0.0,0.0
1133,81.0,96.0,90.0,0.0,0.0
1134,82.0,0.0,90.0,0.0,0.0
1135,83.0,96.0,90.0,0.0,0.0
1136,51.0,0.0,180.0,0.0,0.0
1137,78.0,32.0,90.0,0.0,0.0
1138,50.0,0.0,90.0,0.0,0.0
1139,77.0,62.0,30.0,0.0,0.0
1140,74.0,192.0,60.0,0.0,0.0
1141,86.0,0.0,60.0,0.0,0.0
1142,83.0,0.0,60.0,0.0,0.0
1143,80.0,0.0,60.0,0.0,0.0
1144,52.0,0.0,60.0,0.0,0.0
1145,64.0,0.0,60.0,0.0,0.0
1146,80.0,304.0,60.0,0.0,0.0
1147,51.0,0.0,60.0,0.0,0.0
1148,63.0,0.0,60.0,0.0,0.0
1149,87.0,0.0,60.0,0.0,0.0
1150,83.0,0.0,60.0,0.0,0.0
1151,75.0,0.0,60.0,0.0,0.0
1152,62.0,0.0,150.0,0.0,0.0
1153,80.0,224.0,150.0,0.0,0.0
1154,50.0,0.0,150.0,0.0,0.0
1155,89.0,0.0,150.0,0.0,0.0
1156,77.0,0.0,150.0,0.0,0.0
1157,83.0,0.0,150.0,0.0,0.0
1158,59.0,0.0,180.0,0.0,0.0
1159,47.0,160.0,180.0,0.0,0.0
1160,38.0,992.0,150.0,0.0,0.0
1161,50.0,0.0,150.0,0.0,0.0
1162,51.0,0.0,1500.0,0.0,0.0
1163,39.0,0.0,1500.0,0.0,0.0
1164,78.0,0.0,180.0,0.0,0.0
1165,71.0,0.0,15.0,0.0,0.0
1166,59.0,0.0,150.0,0.0,0.0
1167,66.0,160.0,15.0,0.0,0.0
1168,59.0,0.0,330.0,0.0,0.0
1169,70.0,144.0,180.0,0.0,0.0
1170,65.0,16.0,330.0,0.0,0.0
1171,68.0,192.0,150.0,0.0,0.0
1172,50.0,224.0,150.0,0.0,0.0
1173,38.0,0.0,150.0,0.0,0.0
1174,49.0,192.0,180.0,0.0,0.0
1175,61.0,0.0,180.0,0.0,0.0
1176,47.0,0.0,180.0,0.0,0.0
1177,59.0,160.0,180.0,0.0,0.0
1178,38.0,0.0,150.0,0.0,0.0
1179,50.0,800.0,150.0,0.0,0.0
1180,51.0,0.0,1680.0,0.0,0.0
1181,39.0,96.0,1680.0,0.0,0.0
1182,80.0,192.0,390.0,0.0,0.0
1183,68.0,0.0,390.0,0.0,0.0
1184,71.0,0.0,390.0,0.0,0.0
1185,78.0,0.0,180.0,0.0,0.0
1186,71.0,0.0,180.0,0.0,0.0
1187,71.0,0.0,150.0,0.0,0.0
1188,66.0,160.0,15.0,0.0,0.0
1189,59.0,368.0,150.0,0.0,0.0
1190,70.0,192.0,330.0,0.0,0.0
1191,65.0,0.0,1110.0,0.0,0.0
1192,59.0,16.0,1110.0,0.0,0.0
1193,68.0,0.0,720.0,0.0,0.0
1194,39.0,0.0,60.0,0.0,0.0
1195,51.0,336.0,60.0,0.0,0.0
1196,51.0,144.0,180.0,0.0,0.0
1197,39.0,0.0,180.0,0.0,0.0
1198,38.0,0.0,150.0,0.0,0.0
1199,50.0,224.0,150.0,0.0,0.0
1200,63.0,0.0,330.0,0.0,0.0
1201,39.0,96.0,540.0,0.0,0.0
1202,68.0,144.0,180.0,0.0,0.0
1203,58.0,16.0,330.0,0.0,0.0
1204,51.0,0.0,540.0,0.0,0.0
1205,66.0,176.0,150.0,0.0,0.0
1206,39.0,0.0,60.0,0.0,0.0
1207,51.0,336.0,60.0,0.0,0.0
1208,51.0,0.0,180.0,0.0,0.0
1209,39.0,160.0,180.0,0.0,0.0
1210,38.0,224.0,150.0,0.0,0.0
1211,50.0,0.0,150.0,0.0,0.0
1212,68.0,144.0,180.0,0.0,0.0
1213,63.0,0.0,330.0,0.0,0.0
1214,39.0,0.0,540.0,0.0,0.0
1215,58.0,16.0,330.0,0.0,0.0
1216,51.0,240.0,540.0,0.0,0.0
1217,66.0,176.0,150.0,0.0,0.0
1218,51.0,192.0,180.0,0.0,0.0
1219,39.0,0.0,180.0,0.0,0.0
1220,53.0,160.0,180.0,0.0,0.0
1221,41.0,0.0,180.0,0.0,0.0
1222,54.0,416.0,150.0,0.0,0.0
1223,42.0,0.0,150.0,0.0,0.0
1224,63.0,16.0,540.0,0.0,0.0
1225,59.0,0.0,540.0,0.0,0.0
1226,44.0,0.0,540.0,0.0,0.0
1227,32.0,0.0,540.0,0.0,0.0
1228,66.0,144.0,390.0,0.0,0.0
1229,65.0,1344.0,150.0,0.0,0.0
1230,80.0,0.0,2250.0,0.0,0.0
1231,68.0,96.0,2250.0,0.0,0.0
1232,66.0,192.0,150.0,0.0,0.0
1233,78.0,0.0,150.0,0.0,0.0
1234,77.0,192.0,150.0,0.0,0.0
1235,65.0,0.0,150.0,0.0,0.0
1236,75.0,560.0,150.0,0.0,0.0
1237,63.0,0.0,150.0,0.0,0.0
1238,65.0,0.0,540.0,0.0,0.0
1239,77.0,0.0,540.0,0.0,0.0
1240,47.0,0.0,60.0,0.0,0.0
1241,59.0,1264.0,60.0,0.0,0.0
1242,75.0,0.0,60.0,0.0,0.0
1243,68.0,0.0,60.0,0.0,0.0
1244,80.0,16.0,1620.0,0.0,0.0
1245,68.0,0.0,1620.0,0.0,0.0
1246,78.0,192.0,150.0,0.0,0.0
1247,66.0,0.0,150.0,0.0,0.0
1248,77.0,0.0,150.0,0.0,0.0
1249,65.0,176.0,150.0,0.0,0.0
1250,75.0,1184.0,150.0,0.0,0.0
1251,63.0,0.0,150.0,0.0,0.0
1252,74.0,0.0,1140.0,0.0,0.0
1253,70.0,0.0,1320.0,0.0,0.0
1254,58.0,0.0,1320.0,0.0,0.0
1255,68.0,160.0,1140.0,0.0,0.0
1256,77.0,0.0,1140.0,0.0,0.0
1257,75.0,0.0,150.0,0.0,0.0
1258,51.0,0.0,150.0,0.0,0.0
1259,66.0,704.0,150.0,0.0,0.0
1260,46.0,96.0,90.0,0.0,0.0
1261,54.0,0.0,90.0,0.0,0.0
1262,47.0,94.0,90.0,0.0,0.0
1263,38.0,98.0,90.0,0.0,0.0
1264,54.0,96.0,90.0,0.0,0.0
1265,59.0,96.0,90.0,0.0,0.0
1266,66.0,96.0,90.0,0.0,0.0
1267,37.0,96.0,90.0,0.0,0.0
1268,68.0,96.0,300.0,0.0,0.0
1269,47.0,94.0,90.0,0.0,0.0
1270,53.0,2.0,90.0,0.0,0.0
1271,59.0,96.0,90.0,0.0,0.0
1272,61.0,94.0,90.0,0.0,0.0
1273,59.0,98.0,90.0,0.0,0.0
1274,48.0,0.0,90.0,0.0,0.0
1275,58.0,96.0,90.0,0.0,0.0
1276,49.0,96.0,90.0,0.0,0.0
1277,42.0,32.0,150.0,0.0,0.0
1278,58.0,64.0,90.0,0.0,0.0
1279,61.0,96.0,90.0,0.0,0.0
1280,70.0,96.0,90.0,0.0,0.0
1281,70.0,160.0,90.0,0.0,0.0
1282,82.0,512.0,150.0,0.0,0.0
1283,50.0,0.0,90.0,0.0,0.0
1284,58.0,96.0,90.0,0.0,0.0
1285,51.0,94.0,90.0,0.0,0.0
1286,42.0,98.0,90.0,0.0,0.0
1287,58.0,96.0,90.0,0.0,0.0
1288,63.0,96.0,90.0,0.0,0.0
1289,70.0,96.0,90.0,0.0,0.0
1290,72.0,96.0,300.0,0.0,0.0
1291,41.0,96.0,90.0,0.0,0.0
1292,51.0,94.0,90.0,0.0,0.0
1293,56.0,2.0,90.0,0.0,0.0
1294,63.0,96.0,90.0,0.0,0.0
1295,65.0,94.0,90.0,0.0,0.0
1296,63.0,98.0,90.0,0.0,0.0
1297,52.0,0.0,90.0,0.0,0.0
1298,61.0,96.0,90.0,0.0,0.0
1299,53.0,94.0,90.0,0.0,0.0
1300,61.0,96.0,90.0,0.0,0.0
1301,46.0,2.0,90.0,0.0,0.0
1302,65.0,96.0,90.0,0.0,0.0
1303,73.0,96.0,90.0,0.0,0.0
1304,73.0,94.0,90.0,0.0,0.0
1305,85.0,578.0,90.0,0.0,0.0
1306,53.0,96.0,90.0,0.0,0.0
1307,61.0,0.0,90.0,0.0,0.0
1308,54.0,94.0,90.0,0.0,0.0
1309,45.0,98.0,90.0,0.0,0.0
1310,61.0,96.0,90.0,0.0,0.0
1311,66.0,96.0,90.0,0.0,0.0
1312,73.0,96.0,90.0,0.0,0.0
1313,44.0,96.0,90.0,0.0,0.0
1314,75.0,96.0,300.0,0.0,0.0
1315,54.0,94.0,90.0,0.0,0.0
1316,60.0,2.0,90.0,0.0,0.0
1317,66.0,96.0,90.0,0.0,0.0
1318,68.0,94.0,90.0,0.0,0.0
1319,66.0,98.0,90.0,0.0,0.0
1320,55.0,0.0,90.0,0.0,0.0
1321,65.0,96.0,90.0,0.0,0.0
1322,56.0,94.0,90.0,0.0,0.0
1323,49.0,98.0,90.0,0.0,0.0
1324,65.0,96.0,90.0,0.0,0.0
1325,68.0,94.0,90.0,0.0,0.0
1326,77.0,98.0,90.0,0.0,0.0
1327,65.0,0.0,90.0,0.0,0.0
1328,54.0,96.0,90.0,0.0,0.0
1329,55.0,94.0,90.0,0.0,0.0
1330,49.0,98.0,90.0,0.0,0.0
1331,65.0,96.0,90.0,0.0,0.0
1332,71.0,192.0,90.0,0.0,0.0
1333,79.0,32.0,270.0,0.0,0.0
1334,54.0,0.0,90.0,0.0,0.0
1335,65.0,64.0,90.0,0.0,0.0
1336,55.0,94.0,90.0,0.0,0.0
1337,48.0,98.0,90.0,0.0,0.0
1338,64.0,96.0,90.0,0.0,0.0
1339,72.0,192.0,90.0,0.0,0.0
1340,76.0,32.0,270.0,0.0,0.0
1341,53.0,0.0,90.0,0.0,0.0
1342,64.0,64.0,90.0,0.0,0.0
1343,54.0,94.0,90.0,0.0,0.0
1344,48.0,98.0,90.0,0.0,0.0
1345,64.0,96.0,90.0,0.0,0.0
1346,70.0,192.0,90.0,0.0,0.0
1347,78.0,32.0,270.0,0.0,0.0
1348,52.0,64.0,90.0,0.0,0.0
1349,63.0,0.0,90.0,0.0,0.0
1350,54.0,94.0,90.0,0.0,0.0
1351,47.0,98.0,90.0,0.0,0.0
1352,63.0,96.0,90.0,0.0,0.0
1353,71.0,192.0,90.0,0.0,0.0
1354,75.0,32.0,270.0,0.0,0.0
1355,63.0,0.0,90.0,0.0,0.0
1356,52.0,64.0,90.0,0.0,0.0
1357,53.0,94.0,90.0,0.0,0.0
1358,47.0,98.0,90.0,0.0,0.0
1359,63.0,96.0,90.0,0.0,0.0
1360,69.0,192.0,90.0,0.0,0.0
1361,77.0,32.0,270.0,0.0,0.0
1362,62.0,64.0,90.0,0.0,0.0
1363,53.0,94.0,90.0,0.0,0.0
1364,46.0,98.0,90.0,0.0,0.0
1365,62.0,96.0,90.0,0.0,0.0
1366,70.0,192.0,90.0,0.0,0.0
1367,77.0,32.0,270.0,0.0,0.0
1368,65.0,64.0,90.0,0.0,0.0
1369,58.0,94.0,90.0,0.0,0.0
1370,50.0,98.0,90.0,0.0,0.0
1371,65.0,96.0,90.0,0.0,0.0
1372,74.0,94.0,90.0,0.0,0.0
1373,82.0,98.0,90.0,0.0,0.0
1374,66.0,96.0,90.0,0.0,0.0
1375,58.0,94.0,90.0,0.0,0.0
1376,48.0,98.0,90.0,0.0,0.0
1377,66.0,96.0,90.0,0.0,0.0
1378,75.0,94.0,90.0,0.0,0.0
1379,82.0,98.0,90.0,0.0,0.0
1380,69.0,96.0,90.0,0.0,0.0
1381,63.0,94.0,90.0,0.0,0.0
1382,53.0,98.0,90.0,0.0,0.0
1383,69.0,96.0,90.0,0.0,0.0
1384,75.0,94.0,90.0,0.0,0.0
1385,84.0,98.0,90.0,0.0,0.0
1386,72.0,96.0,90.0,0.0,0.0
1387,62.0,94.0,90.0,0.0,0.0
1388,56.0,98.0,90.0,0.0,0.0
1389,72.0,96.0,90.0,0.0,0.0
1390,77.0,94.0,90.0,0.0,0.0
1391,86.0,98.0,90.0,0.0,0.0
1392,71.0,96.0,90.0,0.0,0.0
1393,62.0,94.0,90.0,0.0,0.0
1394,55.0,98.0,90.0,0.0,0.0
1395,71.0,96.0,90.0,0.0,0.0
1396,79.0,94.0,90.0,0.0,0.0
1397,86.0,98.0,90.0,0.0,0.0
1398,75.0,96.0,90.0,0.0,0.0
1399,67.0,94.0,90.0,0.0,0.0
1400,60.0,98.0,90.0,0.0,0.0
1401,72.0,96.0,90.0,0.0,0.0
1402,79.0,94.0,90.0,0.0,0.0
1403,87.0,98.0,90.0,0.0,0.0
1404,69.0,96.0,90.0,0.0,0.0
1405,63.0,94.0,90.0,0.0,0.0
1406,53.0,98.0,90.0,0.0,0.0
1407,69.0,96.0,90.0,0.0,0.0
1408,75.0,94.0,90.0,0.0,0.0
1409,84.0,98.0,90.0,0.0,0.0
1410,74.0,96.0,90.0,0.0,0.0
1411,65.0,94.0,90.0,0.0,0.0
1412,58.0,98.0,90.0,0.0,0.0
1413,70.0,96.0,90.0,0.0,0.0
1414,74.0,94.0,90.0,0.0,0.0
1415,82.0,98.0,90.0,0.0,0.0
1416,77.0,94.0,90.0,0.0,0.0
1417,70.0,0.0,90.0,0.0,0.0
1418,62.0,98.0,90.0,0.0,0.0
1419,94.0,96.0,90.0,0.0,0.0
1420,86.0,160.0,90.0,0.0,0.0
1421,94.0,30.0,150.0,0.0,0.0
1422,82.0,98.0,90.0,0.0,0.0
1423,70.0,0.0,90.0,0.0,0.0
1424,78.0,94.0,90.0,0.0,0.0
1425,60.0,98.0,90.0,0.0,0.0
1426,94.0,96.0,90.0,0.0,0.0
1427,87.0,160.0,90.0,0.0,0.0
1428,94.0,30.0,150.0,0.0,0.0
1429,82.0,98.0,90.0,0.0,0.0
1430,75.0,0.0,90.0,0.0,0.0
1431,81.0,94.0,90.0,0.0,0.0
1432,72.0,0.0,90.0,0.0,0.0
1433,65.0,98.0,90.0,0.0,0.0
1434,96.0,96.0,90.0,0.0,0.0
1435,89.0,160.0,90.0,0.0,0.0
1436,96.0,30.0,150.0,0.0,0.0
1437,87.0,98.0,90.0,0.0,0.0
1438,77.0,0.0,90.0,0.0,0.0
1439,84.0,0.0,90.0,0.0,0.0
1440,74.0,94.0,90.0,0.0,0.0
1441,68.0,98.0,90.0,0.0,0.0
1442,98.0,96.0,90.0,0.0,0.0
1443,89.0,96.0,90.0,0.0,0.0
1444,98.0,94.0,90.0,0.0,0.0
1445,84.0,98.0,90.0,0.0,0.0
1446,77.0,0.0,90.0,0.0,0.0
1447,83.0,94.0,90.0,0.0,0.0
1448,74.0,0.0,90.0,0.0,0.0
1449,67.0,98.0,90.0,0.0,0.0
1450,98.0,96.0,90.0,0.0,0.0
1451,89.0,96.0,90.0,0.0,0.0
1452,98.0,94.0,90.0,0.0,0.0
1453,83.0,98.0,90.0,0.0,0.0
1454,75.0,0.0,90.0,0.0,0.0
1455,70.0,0.0,90.0,0.0,0.0
1456,82.0,94.0,90.0,0.0,0.0
1457,66.0,98.0,90.0,0.0,0.0
1458,99.0,96.0,90.0,0.0,0.0
1459,90.0,96.0,90.0,0.0,0.0
1460,99.0,94.0,90.0,0.0,0.0
1461,82.0,98.0,90.0,0.0,0.0
1462,81.0,0.0,90.0,0.0,0.0
1463,72.0,0.0,90.0,0.0,0.0
1464,75.0,94.0,90.0,0.0,0.0
1465,65.0,98.0,90.0,0.0,0.0
1466,96.0,96.0,90.0,0.0,0.0
1467,87.0,96.0,90.0,0.0,0.0
1468,96.0,94.0,90.0,0.0,0.0
1469,81.0,98.0,90.0,0.0,0.0
1470,74.0,0.0,90.0,0.0,0.0
1471,65.0,94.0,90.0,0.0,0.0
1472,70.0,0.0,90.0,0.0,0.0
1473,58.0,98.0,90.0,0.0,0.0
1474,94.0,0.0,90.0,0.0,0.0
1475,89.0,96.0,90.0,0.0,0.0
1476,86.0,96.0,90.0,0.0,0.0
1477,94.0,0.0,90.0,0.0,0.0
1478,89.0,94.0,90.0,0.0,0.0
1479,82.0,98.0,90.0,0.0,0.0
1480,66.0,0.0,90.0,0.0,0.0
1481,75.0,94.0,90.0,0.0,0.0
1482,58.0,98.0,90.0,0.0,0.0
1483,95.0,96.0,90.0,0.0,0.0
1484,90.0,0.0,90.0,0.0,0.0
1485,87.0,96.0,90.0,0.0,0.0
1486,90.0,0.0,90.0,0.0,0.0
1487,95.0,94.0,90.0,0.0,0.0
1488,83.0,98.0,90.0,0.0,0.0
1489,74.0,94.0,90.0,0.0,0.0
1490,65.0,0.0,90.0,0.0,0.0
1491,58.0,98.0,90.0,0.0,0.0
1492,94.0,96.0,90.0,0.0,0.0
1493,89.0,0.0,90.0,0.0,0.0
1494,86.0,96.0,90.0,0.0,0.0
1495,89.0,94.0,90.0,0.0,0.0
1496,94.0,0.0,90.0,0.0,0.0
1497,82.0,98.0,90.0,0.0,0.0
1498,73.0,0.0,90.0,0.0,0.0
1499,64.0,94.0,90.0,0.0,0.0
1500,58.0,98.0,90.0,0.0,0.0
1501,88.0,0.0,90.0,0.0,0.0
1502,93.0,96.0,90.0,0.0,0.0
1503,85.0,96.0,90.0,0.0,0.0
1504,93.0,94.0,90.0,0.0,0.0
1505,88.0,0.0,90.0,0.0,0.0
1506,81.0,98.0,90.0,0.0,0.0
1507,72.0,0.0,90.0,0.0,0.0
1508,63.0,94.0,90.0,0.0,0.0
1509,58.0,98.0,90.0,0.0,0.0
1510,92.0,96.0,90.0,0.0,0.0
1511,87.0,0.0,90.0,0.0,0.0
1512,84.0,96.0,90.0,0.0,0.0
1513,92.0,0.0,90.0,0.0,0.0
1514,87.0,94.0,90.0,0.0,0.0
1515,80.0,98.0,90.0,0.0,0.0
1516,64.0,94.0,90.0,0.0,0.0
1517,73.0,0.0,90.0,0.0,0.0
1518,58.0,98.0,90.0,0.0,0.0
1519,93.0,0.0,90.0,0.0,0.0
1520,88.0,96.0,90.0,0.0,0.0
1521,85.0,96.0,90.0,0.0,0.0
1522,93.0,94.0,90.0,0.0,0.0
1523,88.0,0.0,90.0,0.0,0.0
1524,81.0,98.0,90.0,0.0,0.0
1525,72.0,94.0,90.0,0.0,0.0
1526,63.0,0.0,90.0,0.0,0.0
1527,58.0,98.0,90.0,0.0,0.0
1528,92.0,0.0,90.0,0.0,0.0
1529,87.0,96.0,90.0,0.0,0.0
1530,84.0,96.0,90.0,0.0,0.0
1531,87.0,0.0,90.0,0.0,0.0
1532,92.0,94.0,90.0,0.0,0.0
1533,80.0,98.0,90.0,0.0,0.0
1534,71.0,0.0,90.0,0.0,0.0
1535,63.0,94.0,90.0,0.0,0.0
1536,58.0,98.0,90.0,0.0,0.0
1537,92.0,96.0,90.0,0.0,0.0
1538,87.0,0.0,90.0,0.0,0.0
1539,83.0,96.0,90.0,0.0,0.0
1540,92.0,94.0,90.0,0.0,0.0
1541,87.0,0.0,90.0,0.0,0.0
1542,80.0,50.0,90.0,0.0,0.0
1543,65.0,0.0,60.0,0.0,0.0
1544,80.0,0.0,60.0,0.0,0.0
1545,68.0,0.0,60.0,0.0,0.0
1546,86.0,0.0,60.0,0.0,0.0
1547,89.0,0.0,60.0,0.0,0.0
1548,83.0,624.0,60.0,0.0,0.0
1549,58.0,0.0,60.0,0.0,0.0
1550,92.0,0.0,60.0,0.0,0.0
1551,92.0,64.0,90.0,0.0,0.0
1552,71.0,32.0,150.0,0.0,0.0
1553,83.0,94.0,90.0,0.0,0.0
1554,77.0,2.0,90.0,0.0,0.0
1555,89.0,96.0,90.0,0.0,0.0
1556,95.0,96.0,90.0,0.0,0.0
1557,98.0,0.0,90.0,0.0,0.0
1558,89.0,94.0,90.0,0.0,0.0
1559,104.0,98.0,90.0,0.0,0.0
1560,68.0,32.0,150.0,0.0,0.0
1561,89.0,64.0,90.0,0.0,0.0
1562,80.0,94.0,90.0,0.0,0.0
1563,86.0,96.0,90.0,0.0,0.0
1564,74.0,2.0,90.0,0.0,0.0
1565,92.0,0.0,90.0,0.0,0.0
1566,95.0,96.0,90.0,0.0,0.0
1567,86.0,94.0,90.0,0.0,0.0
1568,101.0,98.0,90.0,0.0,0.0
1569,86.0,64.0,90.0,0.0,0.0
1570,65.0,32.0,150.0,0.0,0.0
1571,77.0,94.0,90.0,0.0,0.0
1572,83.0,96.0,90.0,0.0,0.0
1573,71.0,2.0,90.0,0.0,0.0
1574,89.0,96.0,90.0,0.0,0.0
1575,92.0,0.0,90.0,0.0,0.0
1576,83.0,94.0,90.0,0.0,0.0
1577,98.0,98.0,90.0,0.0,0.0
1578,83.0,64.0,90.0,0.0,0.0
1579,63.0,32.0,150.0,0.0,0.0
1580,74.0,94.0,90.0,0.0,0.0
1581,80.0,96.0,90.0,0.0,0.0
1582,68.0,2.0,90.0,0.0,0.0
1583,86.0,0.0,90.0,0.0,0.0
1584,89.0,96.0,90.0,0.0,0.0
1585,80.0,94.0,90.0,0.0,0.0
1586,95.0,98.0,90.0,0.0,0.0
1587,80.0,64.0,90.0,0.0,0.0
1588,59.0,32.0,150.0,0.0,0.0
1589,71.0,94.0,90.0,0.0,0.0
1590,77.0,96.0,90.0,0.0,0.0
1591,65.0,2.0,90.0,0.0,0.0
1592,83.0,0.0,90.0,0.0,0.0
1593,86.0,96.0,90.0,0.0,0.0
1594,77.0,94.0,90.0,0.0,0.0
1595,92.0,98.0,90.0,0.0,0.0
1596,56.0,32.0,150.0,0.0,0.0
1597,77.0,64.0,90.0,0.0,0.0
1598,68.0,94.0,90.0,0.0,0.0
1599,62.0,2.0,90.0,0.0,0.0
1600,74.0,96.0,90.0,0.0,0.0
1601,80.0,0.0,90.0,0.0,0.0
1602,83.0,96.0,90.0,0.0,0.0
1603,74.0,94.0,90.0,0.0,0.0
1604,89.0,98.0,90.0,0.0,0.0
1605,53.0,32.0,150.0,0.0,0.0
1606,74.0,64.0,90.0,0.0,0.0
1607,65.0,94.0,90.0,0.0,0.0
1608,71.0,96.0,90.0,0.0,0.0
1609,59.0,2.0,90.0,0.0,0.0
1610,77.0,96.0,90.0,0.0,0.0
1611,80.0,0.0,90.0,0.0,0.0
1612,71.0,94.0,90.0,0.0,0.0
1613,86.0,194.0,90.0,0.0,0.0
1614,68.0,30.0,270.0,0.0,0.0
1615,59.0,64.0,90.0,0.0,0.0
1616,53.0,194.0,90.0,0.0,0.0
1617,65.0,30.0,270.0,0.0,0.0
1618,71.0,64.0,90.0,0.0,0.0
1619,80.0,194.0,90.0,0.0,0.0
1620,68.0,30.0,270.0,0.0,0.0
1621,59.0,64.0,90.0,0.0,0.0
1622,52.0,194.0,90.0,0.0,0.0
1623,64.0,30.0,270.0,0.0,0.0
1624,71.0,64.0,90.0,0.0,0.0
1625,80.0,194.0,90.0,0.0,0.0
1626,68.0,30.0,270.0,0.0,0.0
1627,59.0,64.0,90.0,0.0,0.0
1628,51.0,194.0,90.0,0.0,0.0
1629,63.0,30.0,270.0,0.0,0.0
1630,71.0,64.0,90.0,0.0,0.0
1631,80.0,194.0,90.0,0.0,0.0
1632,68.0,30.0,270.0,0.0,0.0
1633,59.0,64.0,90.0,0.0,0.0
1634,50.0,194.0,90.0,0.0,0.0
1635,62.0,30.0,270.0,0.0,0.0
1636,71.0,64.0,90.0,0.0,0.0
1637,80.0,194.0,90.0,0.0,0.0
1638,68.0,30.0,270.0,0.0,0.0
1639,59.0,64.0,90.0,0.0,0.0
1640,53.0,194.0,90.0,0.0,0.0
1641,65.0,30.0,270.0,0.0,0.0
1642,71.0,64.0,90.0,0.0,0.0
1643,80.0,194.0,90.0,0.0,0.0
1644,68.0,30.0,270.0,0.0,0.0
1645,59.0,64.0,90.0,0.0,0.0
1646,52.0,194.0,90.0,0.0,0.0
1647,64.0,30.0,270.0,0.0,0.0
1648,71.0,64.0,90.0,0.0,0.0
1649,80.0,194.0,90.0,0.0,0.0
1650,68.0,30.0,270.0,0.0,0.0
1651,59.0,64.0,90.0,0.0,0.0
1652,51.0,194.0,90.0,0.0,0.0
1653,63.0,30.0,270.0,0.0,0.0
1654,71.0,64.0,90.0,0.0,0.0
1655,80.0,194.0,90.0,0.0,0.0
1656,68.0,30.0,270.0,0.0,0.0
1657,59.0,64.0,90.0,0.0,0.0
1658,50.0,194.0,90.0,0.0,0.0
1659,62.0,30.0,270.0,0.0,0.0
1660,71.0,64.0,90.0,0.0,0.0
1661,80.0,98.0,90.0,0.0,0.0
1662,45.0,0.0,90.0,0.0,0.0
1663,54.0,96.0,90.0,0.0,0.0
1664,46.0,94.0,90.0,0.0,0.0
1665,40.0,98.0,90.0,0.0,0.0
1666,57.0,96.0,90.0,0.0,0.0
1667,58.0,96.0,90.0,0.0,0.0
1668,63.0,96.0,90.0,0.0,0.0
1669,66.0,96.0,90.0,0.0,0.0
1670,56.0,0.0,180.0,0.0,0.0
1671,59.0,0.0,180.0,0.0,0.0
1672,62.0,96.0,90.0,0.0,0.0
1673,58.0,32.0,150.0,0.0,0.0
1674,65.0,64.0,90.0,0.0,0.0
1675,54.0,0.0,150.0,0.0,0.0
1676,63.0,96.0,90.0,0.0,0.0
1677,66.0,96.0,90.0,0.0,0.0
1678,70.0,94.0,90.0,0.0,0.0
1679,45.0,96.0,90.0,0.0,0.0
1680,75.0,2.0,90.0,0.0,0.0
1681,54.0,0.0,90.0,0.0,0.0
1682,46.0,94.0,90.0,0.0,0.0
1683,40.0,98.0,90.0,0.0,0.0
1684,57.0,96.0,90.0,0.0,0.0
1685,58.0,96.0,90.0,0.0,0.0
1686,63.0,96.0,90.0,0.0,0.0
1687,56.0,0.0,180.0,0.0,0.0
1688,66.0,96.0,90.0,0.0,0.0
1689,59.0,96.0,180.0,0.0,0.0
1690,62.0,0.0,90.0,0.0,0.0
1691,58.0,0.0,150.0,0.0,0.0
1692,54.0,32.0,150.0,0.0,0.0
1693,65.0,64.0,90.0,0.0,0.0
1694,63.0,96.0,90.0,0.0,0.0
1695,66.0,96.0,90.0,0.0,0.0
1696,70.0,48.0,90.0,0.0,0.0
1697,51.0,46.0,60.0,0.0,0.0
1698,78.0,194.0,90.0,0.0,0.0
1699,80.0,96.0,90.0,0.0,0.0
1700,74.0,96.0,90.0,0.0,0.0
1701,78.0,96.0,90.0,0.0,0.0
1702,75.0,48.0,90.0,0.0,0.0
1703,58.0,0.0,60.0,0.0,0.0
1704,66.0,48.0,60.0,0.0,0.0
1705,83.0,96.0,90.0,0.0,0.0
1706,77.0,48.0,90.0,0.0,0.0
1707,82.0,96.0,90.0,0.0,0.0
1708,51.0,48.0,60.0,0.0,0.0
1709,78.0,48.0,90.0,0.0,0.0
1710,66.0,0.0,60.0,0.0,0.0
1711,89.0,96.0,90.0,0.0,0.0
1712,58.0,48.0,60.0,0.0,0.0
1713,81.0,48.0,90.0,0.0,0.0
1714,51.0,48.0,60.0,0.0,0.0
1715,87.0,96.0,90.0,0.0,0.0
1716,82.0,48.0,90.0,0.0,0.0
1717,66.0,0.0,60.0,0.0,0.0
1718,92.0,96.0,90.0,0.0,0.0
1719,58.0,48.0,60.0,0.0,0.0
1720,86.0,48.0,90.0,0.0,0.0
1721,51.0,48.0,60.0,0.0,0.0
1722,90.0,96.0,90.0,0.0,0.0
1723,87.0,48.0,90.0,0.0,0.0
1724,99.0,0.0,60.0,0.0,0.0
1725,66.0,0.0,60.0,0.0,0.0
1726,58.0,624.0,60.0,0.0,0.0
1727,56.0,96.0,90.0,0.0,0.0
1728,46.0,0.0,90.0,0.0,0.0
1729,47.0,94.0,90.0,0.0,0.0
1730,39.0,98.0,90.0,0.0,0.0
1731,62.0,96.0,90.0,0.0,0.0
1732,63.0,96.0,90.0,0.0,0.0
1733,68.0,96.0,90.0,0.0,0.0
1734,71.0,96.0,90.0,0.0,0.0
1735,61.0,0.0,180.0,0.0,0.0
1736,64.0,0.0,180.0,0.0,0.0
1737,67.0,96.0,90.0,0.0,0.0
1738,59.0,0.0,150.0,0.0,0.0
1739,70.0,64.0,90.0,0.0,0.0
1740,63.0,32.0,150.0,0.0,0.0
1741,68.0,96.0,90.0,0.0,0.0
1742,71.0,96.0,90.0,0.0,0.0
1743,75.0,32.0,90.0,0.0,0.0
1744,46.0,96.0,90.0,0.0,0.0
1745,80.0,64.0,30.0,0.0,0.0
1746,56.0,0.0,90.0,0.0,0.0
1747,47.0,94.0,90.0,0.0,0.0
1748,39.0,98.0,90.0,0.0,0.0
1749,62.0,96.0,90.0,0.0,0.0
1750,63.0,96.0,90.0,0.0,0.0
1751,68.0,96.0,90.0,0.0,0.0
1752,71.0,96.0,90.0,0.0,0.0
1753,64.0,0.0,180.0,0.0,0.0
1754,61.0,0.0,180.0,0.0,0.0
1755,67.0,96.0,90.0,0.0,0.0
1756,63.0,32.0,150.0,0.0,0.0
1757,59.0,0.0,150.0,0.0,0.0
1758,70.0,64.0,90.0,0.0,0.0
1759,68.0,96.0,90.0,0.0,0.0
1760,71.0,96.0,90.0,0.0,0.0
1761,75.0,48.0,90.0,0.0,0.0
1762,51.0,46.0,60.0,0.0,0.0
1763,83.0,194.0,90.0,0.0,0.0
1764,82.0,96.0,90.0,0.0,0.0
1765,74.0,96.0,90.0,0.0,0.0
1766,80.0,96.0,90.0,0.0,0.0
1767,75.0,48.0,90.0,0.0,0.0
1768,85.0,96.0,90.0,0.0,0.0
1769,68.0,0.0,60.0,0.0,0.0
1770,59.0,48.0,60.0,0.0,0.0
1771,79.0,48.0,90.0,0.0,0.0
1772,83.0,96.0,90.0,0.0,0.0
1773,51.0,48.0,60.0,0.0,0.0
1774,80.0,48.0,90.0,0.0,0.0
1775,68.0,0.0,60.0,0.0,0.0
1776,88.0,96.0,90.0,0.0,0.0
1777,59.0,48.0,60.0,0.0,0.0
1778,82.0,48.0,90.0,0.0,0.0
1779,51.0,48.0,60.0,0.0,0.0
1780,87.0,96.0,90.0,0.0,0.0
1781,83.0,48.0,90.0,0.0,0.0
1782,68.0,0.0,60.0,0.0,0.0
1783,94.0,96.0,90.0,0.0,0.0
1784,59.0,48.0,60.0,0.0,0.0
1785,86.0,48.0,90.0,0.0,0.0
1786,51.0,48.0,60.0,0.0,0.0
1787,92.0,96.0,90.0,0.0,0.0
1788,87.0,48.0,90.0,0.0,0.0
1789,59.0,112.0,60.0,0.0,0.0
1790,68.0,0.0,60.0,0.0,0.0
1791,104.0,576.0,150.0,0.0,0.0
1792,74.0,0.0,570.0,0.0,0.0
1793,82.0,32.0,150.0,0.0,0.0
1794,80.0,0.0,570.0,0.0,0.0
1795,94.0,96.0,180.0,0.0,0.0
1796,77.0,0.0,570.0,0.0,0.0
1797,95.0,96.0,90.0,0.0,0.0
1798,83.0,0.0,540.0,0.0,0.0
1799,94.0,96.0,90.0,0.0,0.0
1800,93.0,96.0,90.0,0.0,0.0
1801,92.0,96.0,15.0,0.0,0.0
1802,75.0,0.0,150.0,0.0,0.0
1803,78.0,32.0,150.0,0.0,0.0
1804,90.0,96.0,90.0,0.0,0.0
1805,58.0,0.0,150.0,0.0,0.0
1806,70.0,32.0,150.0,0.0,0.0
1807,89.0,64.0,90.0,0.0,0.0
1808,87.0,96.0,90.0,0.0,0.0
1809,85.0,96.0,90.0,0.0,0.0
1810,83.0,48.0,90.0,0.0,0.0
1811,73.0,0.0,60.0,0.0,0.0
1812,77.0,48.0,60.0,0.0,0.0
1813,82.0,96.0,90.0,0.0,0.0
1814,83.0,48.0,90.0,0.0,0.0
1815,81.0,96.0,90.0,0.0,0.0
1816,58.0,48.0,60.0,0.0,0.0
1817,82.0,48.0,90.0,0.0,0.0
1818,87.0,96.0,90.0,0.0,0.0
1819,75.0,48.0,60.0,0.0,0.0
1820,71.0,0.0,60.0,0.0,0.0
1821,80.0,48.0,90.0,0.0,0.0
1822,70.0,0.0,60.0,0.0,0.0
1823,73.0,48.0,60.0,0.0,0.0
1824,78.0,96.0,90.0,0.0,0.0
1825,80.0,48.0,90.0,0.0,0.0
1826,58.0,48.0,60.0,0.0,0.0
1827,77.0,96.0,90.0,0.0,0.0
1828,78.0,96.0,90.0,0.0,0.0
1829,68.0,30.0,150.0,0.0,0.0
1830,71.0,32.0,360.0,0.0,0.0
1831,83.0,64.0,90.0,0.0,0.0
1832,75.0,98.0,90.0,0.0,0.0
1833,65.0,48.0,330.0,0.0,0.0
1834,74.0,64.0,90.0,0.0,0.0
1835,80.0,96.0,90.0,0.0,0.0
1836,72.0,48.0,90.0,0.0,0.0
1837,58.0,0.0,540.0,0.0,0.0
1838,73.0,96.0,90.0,0.0,0.0
1839,82.0,64.0,90.0,0.0,0.0
1840,70.0,32.0,150.0,0.0,0.0
1841,66.0,0.0,180.0,0.0,0.0
1842,78.0,96.0,90.0,0.0,0.0
1843,65.0,16.0,330.0,0.0,0.0
1844,71.0,32.0,150.0,0.0,0.0
1845,74.0,64.0,90.0,0.0,0.0
1846,78.0,96.0,90.0,0.0,0.0
1847,72.0,48.0,90.0,0.0,0.0
1848,58.0,32.0,150.0,0.0,0.0
1849,73.0,96.0,90.0,0.0,0.0
1850,66.0,0.0,180.0,0.0,0.0
1851,82.0,64.0,90.0,0.0,0.0
1852,70.0,32.0,150.0,0.0,0.0
1853,78.0,96.0,90.0,0.0,0.0
1854,63.0,16.0,330.0,0.0,0.0
1855,72.0,64.0,90.0,0.0,0.0
1856,69.0,0.0,150.0,0.0,0.0
1857,78.0,96.0,90.0,0.0,0.0
1858,58.0,32.0,150.0,0.0,0.0
1859,70.0,48.0,90.0,0.0,0.0
1860,71.0,96.0,90.0,0.0,0.0
1861,68.0,32.0,150.0,0.0,0.0
1862,65.0,0.0,180.0,0.0,0.0
1863,80.0,64.0,90.0,0.0,0.0
1864,77.0,96.0,90.0,0.0,0.0
1865,62.0,48.0,330.0,0.0,0.0
1866,71.0,64.0,90.0,0.0,0.0
1867,77.0,96.0,90.0,0.0,0.0
1868,58.0,0.0,480.0,0.0,0.0
1869,69.0,48.0,90.0,0.0,0.0
1870,70.0,96.0,90.0,0.0,0.0
1871,66.0,30.0,150.0,0.0,0.0
1872,78.0,64.0,90.0,0.0,0.0
1873,63.0,94.0,180.0,0.0,0.0
1874,75.0,2.0,90.0,0.0,0.0
1875,68.0,146.0,90.0,0.0,0.0
1876,70.0,0.0,90.0,0.0,0.0
1877,62.0,0.0,90.0,0.0,0.0
1878,71.0,96.0,90.0,0.0,0.0
1879,34.0,48.0,60.0,0.0,0.0
1880,46.0,0.0,60.0,0.0,0.0
1881,70.0,96.0,90.0,0.0,0.0
1882,69.0,96.0,90.0,0.0,0.0
1883,68.0,48.0,15.0,0.0,0.0
1884,59.0,0.0,60.0,0.0,0.0
1885,51.0,48.0,60.0,0.0,0.0
1886,54.0,0.0,60.0,0.0,0.0
1887,66.0,48.0,90.0,0.0,0.0
1888,34.0,0.0,60.0,0.0,0.0
1889,46.0,48.0,60.0,0.0,0.0
1890,65.0,96.0,90.0,0.0,0.0
1891,63.0,96.0,90.0,0.0,0.0
1892,61.0,96.0,90.0,0.0,0.0
1893,59.0,48.0,90.0,0.0,0.0
1894,53.0,0.0,60.0,0.0,0.0
1895,49.0,48.0,60.0,0.0,0.0
1896,58.0,96.0,90.0,0.0,0.0
1897,59.0,48.0,90.0,0.0,0.0
1898,34.0,48.0,60.0,0.0,0.0
1899,57.0,96.0,90.0,0.0,0.0
1900,58.0,48.0,90.0,0.0,0.0
1901,47.0,0.0,60.0,0.0,0.0
1902,51.0,48.0,60.0,0.0,0.0
1903,63.0,96.0,90.0,0.0,0.0
1904,57.0,48.0,90.0,0.0,0.0
1905,54.0,96.0,90.0,0.0,0.0
1906,46.0,0.0,60.0,0.0,0.0
1907,49.0,48.0,60.0,0.0,0.0
1908,56.0,48.0,90.0,0.0,0.0
1909,53.0,96.0,90.0,0.0,0.0
1910,34.0,48.0,60.0,0.0,0.0
1911,54.0,96.0,90.0,0.0,0.0
1912,59.0,64.0,90.0,0.0,0.0
1913,44.0,30.0,150.0,0.0,0.0
1914,47.0,32.0,1500.0,0.0,0.0
1915,51.0,98.0,90.0,0.0,0.0
1916,41.0,48.0,900.0,0.0,0.0
1917,50.0,96.0,90.0,0.0,0.0
1918,53.0,96.0,90.0,0.0,0.0
1919,56.0,96.0,90.0,0.0,0.0
1920,59.0,96.0,90.0,0.0,0.0
1921,62.0,96.0,90.0,0.0,0.0
1922,65.0,96.0,90.0,0.0,0.0
1923,67.0,96.0,90.0,0.0,0.0
1924,68.0,96.0,90.0,0.0,0.0
1925,69.0,48.0,90.0,0.0,0.0
1926,70.0,96.0,90.0,0.0,0.0
1927,71.0,64.0,90.0,0.0,0.0
1928,39.0,32.0,150.0,0.0,0.0
1929,66.0,94.0,90.0,0.0,0.0
1930,65.0,66.0,90.0,0.0,0.0
1931,38.0,0.0,150.0,0.0,0.0
1932,68.0,96.0,90.0,0.0,0.0
1933,77.0,0.0,90.0,0.0,0.0
1934,80.0,96.0,90.0,0.0,0.0
1935,74.0,96.0,90.0,0.0,0.0
1936,71.0,96.0,90.0,0.0,0.0
1937,69.0,96.0,90.0,0.0,0.0
1938,68.0,96.0,90.0,0.0,0.0
1939,67.0,48.0,90.0,0.0,0.0
1940,59.0,48.0,60.0,0.0,0.0
1941,66.0,96.0,90.0,0.0,0.0
1942,65.0,48.0,90.0,0.0,0.0
1943,64.0,94.0,90.0,0.0,0.0
1944,59.0,48.0,60.0,0.0,0.0
1945,63.0,98.0,90.0,0.0,0.0
1946,53.0,0.0,960.0,0.0,0.0
1947,62.0,96.0,90.0,0.0,0.0
1948,59.0,0.0,1260.0,0.0,0.0
1949,65.0,96.0,90.0,0.0,0.0
1950,68.0,96.0,90.0,0.0,0.0
1951,71.0,96.0,90.0,0.0,0.0
1952,74.0,96.0,90.0,0.0,0.0
1953,77.0,96.0,90.0,0.0,0.0
1954,79.0,96.0,90.0,0.0,0.0
1955,80.0,96.0,90.0,0.0,0.0
1956,81.0,96.0,90.0,0.0,0.0
1957,82.0,96.0,90.0,0.0,0.0
1958,83.0,96.0,90.0,0.0,0.0
1959,51.0,0.0,180.0,0.0,0.0
1960,78.0,32.0,90.0,0.0,0.0
1961,77.0,62.0,30.0,0.0,0.0
1962,50.0,146.0,90.0,0.0,0.0
1963,86.0,0.0,60.0,0.0,0.0
1964,52.0,0.0,60.0,0.0,0.0
1965,74.0,0.0,60.0,0.0,0.0
1966,64.0,0.0,60.0,0.0,0.0
1967,80.0,0.0,60.0,0.0,0.0
1968,83.0,192.0,60.0,0.0,0.0
1969,75.0,304.0,60.0,0.0,0.0
1970,87.0,0.0,60.0,0.0,0.0
1971,63.0,0.0,60.0,0.0,0.0
1972,83.0,0.0,60.0,0.0,0.0
1973,80.0,0.0,60.0,0.0,0.0
1974,51.0,0.0,60.0,0.0,0.0
1975,89.0,0.0,150.0,0.0,0.0
1976,77.0,0.0,150.0,0.0,0.0
1977,50.0,224.0,150.0,0.0,0.0
1978,80.0,0.0,150.0,0.0,0.0
1979,62.0,0.0,150.0,0.0,0.0
1980,83.0,0.0,150.0,0.0,0.0
1981,59.0,160.0,180.0,0.0,0.0
1982,47.0,0.0,180.0,0.0,0.0
1983,50.0,992.0,150.0,0.0,0.0
1984,38.0,0.0,150.0,0.0,0.0
1985,39.0,16.0,1500.0,0.0,0.0
1986,51.0,0.0,1500.0,0.0,0.0
1987,71.0,0.0,180.0,0.0,0.0
1988,78.0,0.0,180.0,0.0,0.0
1989,66.0,160.0,15.0,0.0,0.0
1990,59.0,0.0,150.0,0.0,0.0
1991,71.0,224.0,150.0,0.0,0.0
1992,65.0,0.0,330.0,0.0,0.0
1993,59.0,0.0,330.0,0.0,0.0
1994,70.0,144.0,180.0,0.0,0.0
1995,68.0,192.0,150.0,0.0,0.0
1996,50.0,224.0,150.0,0.0,0.0
1997,38.0,0.0,150.0,0.0,0.0
1998,49.0,192.0,180.0,0.0,0.0
1999,61.0,0.0,180.0,0.0,0.0
2000,47.0,0.0,180.0,0.0,0.0
2001,59.0,160.0,180.0,0.0,0.0
2002,50.0,800.0,150.0,0.0,0.0
2003,38.0,0.0,150.0,0.0,0.0
2004,39.0,0.0,1680.0,0.0,0.0
2005,51.0,96.0,1680.0,0.0,0.0
2006,80.0,0.0,390.0,0.0,0.0
2007,68.0,192.0,390.0,0.0,0.0
2008,66.0,0.0,180.0,0.0,0.0
2009,78.0,0.0,180.0,0.0,0.0
2010,71.0,0.0,15.0,0.0,0.0
2011,59.0,0.0,150.0,0.0,0.0
2012,71.0,0.0,150.0,0.0,0.0
2013,66.0,368.0,150.0,0.0,0.0
2014,70.0,192.0,330.0,0.0,0.0
2015,65.0,16.0,1110.0,0.0,0.0
2016,59.0,0.0,1110.0,0.0,0.0
2017,68.0,0.0,720.0,0.0,0.0
2018,39.0,0.0,60.0,0.0,0.0
2019,51.0,336.0,60.0,0.0,0.0
2020,51.0,0.0,180.0,0.0,0.0
2021,39.0,144.0,180.0,0.0,0.0
2022,50.0,224.0,150.0,0.0,0.0
2023,38.0,0.0,150.0,0.0,0.0
2024,68.0,144.0,180.0,0.0,0.0
2025,58.0,16.0,330.0,0.0,0.0
2026,63.0,0.0,330.0,0.0,0.0
2027,51.0,0.0,540.0,0.0,0.0
2028,39.0,96.0,540.0,0.0,0.0
2029,66.0,176.0,150.0,0.0,0.0
2030,51.0,336.0,60.0,0.0,0.0
2031,39.0,0.0,60.0,0.0,0.0
2032,39.0,0.0,180.0,0.0,0.0
2033,51.0,160.0,180.0,0.0,0.0
2034,50.0,224.0,150.0,0.0,0.0
2035,38.0,0.0,150.0,0.0,0.0
2036,58.0,16.0,330.0,0.0,0.0
2037,39.0,240.0,540.0,0.0,0.0
2038,68.0,144.0,180.0,0.0,0.0
2039,51.0,0.0,540.0,0.0,0.0
2040,63.0,0.0,330.0,0.0,0.0
2041,66.0,176.0,150.0,0.0,0.0
2042,39.0,0.0,180.0,0.0,0.0
2043,51.0,192.0,180.0,0.0,0.0
2044,53.0,160.0,180.0,0.0,0.0
2045,41.0,0.0,180.0,0.0,0.0
2046,54.0,0.0,150.0,0.0,0.0
2047,42.0,416.0,150.0,0.0,0.0
2048,44.0,0.0,540.0,0.0,0.0
2049,32.0,0.0,540.0,0.0,0.0
2050,66.0,144.0,390.0,0.0,0.0
2051,63.0,16.0,540.0,0.0,0.0
2052,59.0,0.0,540.0,0.0,0.0
2053,65.0,1344.0,150.0,0.0,0.0
2054,80.0,96.0,2250.0,0.0,0.0
2055,68.0,0.0,2250.0,0.0,0.0
2056,66.0,0.0,150.0,0.0,0.0
2057,78.0,192.0,150.0,0.0,0.0
2058,65.0,0.0,150.0,0.0,0.0
2059,77.0,192.0,150.0,0.0,0.0
2060,63.0,560.0,150.0,0.0,0.0
2061,75.0,0.0,150.0,0.0,0.0
2062,65.0,0.0,540.0,0.0,0.0
2063,47.0,0.0,60.0,0.0,0.0
2064,59.0,0.0,60.0,0.0,0.0
2065,75.0,1264.0,60.0,0.0,0.0
2066,80.0,0.0,2220.0,0.0,0.0
2067,68.0,0.0,15.0,0.0,0.0
2068,78.0,0.0,150.0,0.0,0.0
2069,66.0,192.0,150.0,0.0,0.0
2070,77.0,0.0,150.0,0.0,0.0
2071,65.0,192.0,150.0,0.0,0.0
2072,63.0,0.0,150.0,0.0,0.0
2073,75.0,560.0,150.0,0.0,0.0
2074,65.0,94.0,540.0,0.0,0.0
2075,77.0,0.0,540.0,0.0,0.0
2076,47.0,530.0,60.0,0.0,0.0
2077,59.0,0.0,60.0,0.0,0.0
2078,68.0,0.0,60.0,0.0,0.0
2079,75.0,0.0,60.0,0.0,0.0
2080,80.0,160.0,540.0,0.0,0.0
2081,68.0,0.0,540.0,0.0,0.0
2082,65.0,368.0,150.0,0.0,0.0
2083,77.0,94.0,540.0,0.0,0.0
2084,63.0,0.0,150.0,0.0,0.0
2085,69.0,0.0,60.0,0.0,0.0
2086,75.0,530.0,60.0,0.0,0.0
2087,47.0,0.0,60.0,0.0,0.0
2088,59.0,0.0,60.0,0.0,0.0
2089,81.0,0.0,540.0,0.0,0.0
2090,69.0,160.0,540.0,0.0,0.0
2091,65.0,0.0,150.0,0.0,0.0
2092,77.0,94.0,540.0,0.0,0.0
2093,63.0,368.0,150.0,0.0,0.0
2094,46.0,0.0,60.0,0.0,0.0
2095,58.0,530.0,60.0,0.0,0.0
2096,75.0,0.0,60.0,0.0,0.0
2097,68.0,0.0,60.0,0.0,0.0
2098,70.0,0.0,540.0,0.0,0.0
2099,82.0,160.0,540.0,0.0,0.0
2100,65.0,368.0,150.0,0.0,0.0
2101,77.0,96.0,540.0,0.0,0.0
2102,68.0,0.0,150.0,0.0,0.0
2103,58.0,0.0,60.0,0.0,0.0
2104,46.0,0.0,60.0,0.0,0.0
2105,74.0,480.0,60.0,0.0,0.0
2106,68.0,0.0,60.0,0.0,0.0
2107,82.0,0.0,480.0,0.0,0.0
2108,70.0,142.0,480.0,0.0,0.0
2109,67.0,0.0,90.0,0.0,0.0
2110,39.0,96.0,90.0,0.0,0.0
2111,82.0,0.0,90.0,0.0,0.0
2112,58.0,96.0,90.0,0.0,0.0
2113,63.0,96.0,90.0,0.0,0.0
2114,67.0,0.0,90.0,0.0,0.0
2115,51.0,0.0,90.0,0.0,0.0
2116,82.0,162.0,90.0,0.0,0.0
2117,58.0,126.0,150.0,0.0,0.0
2118,67.0,0.0,150.0,0.0,0.0
2119,68.0,96.0,90.0,0.0,0.0
2120,39.0,0.0,90.0,0.0,0.0
2121,58.0,96.0,90.0,0.0,0.0
2122,82.0,0.0,90.0,0.0,0.0
2123,68.0,96.0,90.0,0.0,0.0
2124,63.0,0.0,90.0,0.0,0.0
2125,51.0,0.0,90.0,0.0,0.0
2126,82.0,162.0,90.0,0.0,0.0
2127,67.0,0.0,150.0,0.0,0.0
2128,58.0,126.0,150.0,0.0,0.0
2129,39.0,0.0,90.0,0.0,0.0
2130,65.0,96.0,90.0,0.0,0.0
2131,58.0,0.0,90.0,0.0,0.0
2132,82.0,96.0,90.0,0.0,0.0
2133,63.0,96.0,90.0,0.0,0.0
2134,65.0,0.0,90.0,0.0,0.0
2135,82.0,0.0,90.0,0.0,0.0
2136,51.0,162.0,90.0,0.0,0.0
2137,58.0,126.0,150.0,0.0,0.0
2138,68.0,0.0,150.0,0.0,0.0
2139,39.0,96.0,90.0,0.0,0.0
2140,72.0,0.0,90.0,0.0,0.0
2141,58.0,0.0,90.0,0.0,0.0
2142,82.0,96.0,90.0,0.0,0.0
2143,72.0,0.0,90.0,0.0,0.0
2144,63.0,96.0,90.0,0.0,0.0
2145,51.0,162.0,90.0,0.0,0.0
2146,82.0,0.0,90.0,0.0,0.0
2147,70.0,126.0,150.0,0.0,0.0
2148,58.0,0.0,150.0,0.0,0.0
2149,67.0,0.0,90.0,0.0,0.0
2150,39.0,96.0,90.0,0.0,0.0
2151,82.0,96.0,90.0,0.0,0.0
2152,58.0,0.0,90.0,0.0,0.0
2153,67.0,96.0,90.0,0.0,0.0
2154,63.0,0.0,90.0,0.0,0.0
2155,82.0,0.0,90.0,0.0,0.0
2156,51.0,162.0,90.0,0.0,0.0
2157,67.0,0.0,300.0,0.0,0.0
2158,58.0,126.0,150.0,0.0,0.0
2159,40.0,96.0,90.0,0.0,0.0
2160,60.0,0.0,90.0,0.0,0.0
2161,82.0,96.0,90.0,0.0,0.0
2162,70.0,96.0,90.0,0.0,0.0
2163,67.0,0.0,90.0,0.0,0.0
2164,82.0,0.0,90.0,0.0,0.0
2165,52.0,162.0,90.0,0.0,0.0
2166,60.0,126.0,150.0,0.0,0.0
2167,84.0,0.0,150.0,0.0,0.0
2168,70.0,0.0,90.0,0.0,0.0
2169,41.0,96.0,90.0,0.0,0.0
2170,62.0,0.0,90.0,0.0,0.0
2171,86.0,96.0,90.0,0.0,0.0
2172,70.0,0.0,90.0,0.0,0.0
2173,65.0,96.0,90.0,0.0,0.0
2174,84.0,162.0,90.0,0.0,0.0
2175,53.0,0.0,90.0,0.0,0.0
2176,69.0,126.0,150.0,0.0,0.0
2177,63.0,0.0,150.0,0.0,0.0
2178,70.0,0.0,90.0,0.0,0.0
2179,46.0,96.0,90.0,0.0,0.0
2180,53.0,0.0,90.0,0.0,0.0
2181,82.0,96.0,90.0,0.0,0.0
2182,62.0,0.0,90.0,0.0,0.0
2183,70.0,96.0,90.0,0.0,0.0
2184,46.0,162.0,90.0,0.0,0.0
2185,82.0,0.0,90.0,0.0,0.0
2186,68.0,126.0,150.0,0.0,0.0
2187,62.0,0.0,150.0,0.0,0.0
2188,39.0,96.0,90.0,0.0,0.0
2189,67.0,0.0,90.0,0.0,0.0
2190,82.0,96.0,90.0,0.0,0.0
2191,58.0,0.0,90.0,0.0,0.0
2192,67.0,0.0,90.0,0.0,0.0
2193,63.0,96.0,90.0,0.0,0.0
2194,82.0,0.0,90.0,0.0,0.0
2195,51.0,162.0,90.0,0.0,0.0
2196,67.0,0.0,150.0,0.0,0.0
2197,58.0,126.0,150.0,0.0,0.0
2198,39.0,0.0,90.0,0.0,0.0
2199,68.0,96.0,90.0,0.0,0.0
2200,82.0,0.0,90.0,0.0,0.0
2201,58.0,96.0,90.0,0.0,0.0
2202,68.0,96.0,90.0,0.0,0.0
2203,63.0,0.0,90.0,0.0,0.0
2204,82.0,0.0,90.0,0.0,0.0
2205,51.0,162.0,90.0,0.0,0.0
2206,58.0,0.0,150.0,0.0,0.0
2207,67.0,126.0,150.0,0.0,0.0
2208,39.0,0.0,90.0,0.0,0.0
2209,65.0,96.0,90.0,0.0,0.0
2210,58.0,0.0,90.0,0.0,0.0
2211,82.0,96.0,90.0,0.0,0.0
2212,63.0,96.0,90.0,0.0,0.0
2213,65.0,0.0,90.0,0.0,0.0
2214,82.0,0.0,90.0,0.0,0.0
2215,51.0,162.0,90.0,0.0,0.0
2216,58.0,126.0,150.0,0.0,0.0
2217,68.0,0.0,150.0,0.0,0.0
2218,39.0,96.0,90.0,0.0,0.0
2219,72.0,0.0,90.0,0.0,0.0
2220,58.0,96.0,90.0,0.0,0.0
2221,82.0,0.0,90.0,0.0,0.0
2222,63.0,0.0,90.0,0.0,0.0
2223,72.0,96.0,90.0,0.0,0.0
2224,82.0,0.0,90.0,0.0,0.0
2225,51.0,162.0,90.0,0.0,0.0
2226,70.0,126.0,150.0,0.0,0.0
2227,58.0,0.0,150.0,0.0,0.0
2228,39.0,96.0,90.0,0.0,0.0
2229,67.0,0.0,90.0,0.0,0.0
2230,82.0,0.0,90.0,0.0,0.0
2231,58.0,96.0,90.0,0.0,0.0
2232,67.0,0.0,90.0,0.0,0.0
2233,63.0,96.0,90.0,0.0,0.0
2234,82.0,0.0,90.0,0.0,0.0
2235,51.0,162.0,90.0,0.0,0.0
2236,67.0,0.0,300.0,0.0,0.0
2237,58.0,126.0,150.0,0.0,0.0
2238,43.0,96.0,90.0,0.0,0.0
2239,58.0,0.0,90.0,0.0,0.0
2240,82.0,96.0,90.0,0.0,0.0
2241,67.0,0.0,90.0,0.0,0.0
2242,62.0,96.0,90.0,0.0,0.0
2243,55.0,162.0,90.0,0.0,0.0
2244,82.0,0.0,90.0,0.0,0.0
2245,58.0,0.0,150.0,0.0,0.0
2246,67.0,126.0,150.0,0.0,0.0
2247,41.0,96.0,90.0,0.0,0.0
2248,68.0,0.0,90.0,0.0,0.0
2249,80.0,96.0,90.0,0.0,0.0
2250,60.0,0.0,90.0,0.0,0.0
2251,72.0,0.0,90.0,0.0,0.0
2252,65.0,96.0,90.0,0.0,0.0
2253,53.0,162.0,90.0,0.0,0.0
2254,77.0,0.0,90.0,0.0,0.0
2255,79.0,126.0,150.0,0.0,0.0
2256,58.0,0.0,150.0,0.0,0.0
2257,74.0,0.0,150.0,0.0,0.0
2258,67.0,0.0,150.0,0.0,0.0
2259,75.0,46.0,330.0,0.0,0.0
2260,67.0,16.0,540.0,0.0,0.0
2261,51.0,96.0,90.0,0.0,0.0
2262,58.0,96.0,90.0,0.0,0.0
2263,63.0,50.0,90.0,0.0,0.0
2264,51.0,146.0,90.0,0.0,0.0
2265,75.0,30.0,360.0,0.0,0.0
2266,58.0,126.0,150.0,0.0,0.0
2267,68.0,16.0,1110.0,0.0,0.0
2268,48.0,66.0,90.0,0.0,0.0
2269,56.0,96.0,90.0,0.0,0.0
2270,74.0,78.0,270.0,0.0,0.0
2271,63.0,96.0,90.0,0.0,0.0
2272,48.0,66.0,90.0,0.0,0.0
2273,63.0,0.0,150.0,0.0,0.0
2274,72.0,18.0,60.0,0.0,0.0
2275,71.0,16.0,15.0,0.0,0.0
2276,72.0,16.0,15.0,0.0,0.0
2277,74.0,94.0,15.0,0.0,0.0
2278,72.0,30.0,270.0,0.0,0.0
2279,50.0,96.0,90.0,0.0,0.0
2280,56.0,66.0,90.0,0.0,0.0
2281,65.0,96.0,90.0,0.0,0.0
2282,70.0,0.0,90.0,0.0,0.0
2283,50.0,144.0,90.0,0.0,0.0
2284,70.0,2.0,150.0,0.0,0.0
2285,58.0,8.0,150.0,0.0,0.0
2286,67.0,24.0,20.0,0.0,0.0
2287,70.0,94.0,20.0,0.0,0.0
2288,79.0,30.0,150.0,0.0,0.0
2289,51.0,66.0,90.0,0.0,0.0
2290,70.0,16.0,540.0,0.0,0.0
2291,58.0,96.0,90.0,0.0,0.0
2292,77.0,78.0,270.0,0.0,0.0
2293,67.0,96.0,90.0,0.0,0.0
2294,51.0,66.0,90.0,0.0,0.0
2295,60.0,8.0,150.0,0.0,0.0
2296,75.0,2.0,60.0,0.0,0.0
2297,67.0,24.0,20.0,0.0,0.0
2298,72.0,22.0,20.0,0.0,0.0
2299,75.0,24.0,20.0,0.0,0.0
2300,72.0,16.0,540.0,0.0,0.0
2301,53.0,96.0,90.0,0.0,0.0
2302,77.0,48.0,20.0,0.0,0.0
2303,75.0,0.0,240.0,0.0,0.0
2304,60.0,96.0,90.0,0.0,0.0
2305,68.0,96.0,90.0,0.0,0.0
2306,53.0,0.0,90.0,0.0,0.0
2307,74.0,96.0,90.0,0.0,0.0
2308,74.0,0.0,90.0,0.0,0.0
2309,71.0,34.0,90.0,0.0,0.0
2310,62.0,32.0,150.0,0.0,0.0
2311,71.0,16.0,30.0,0.0,0.0
2312,73.0,16.0,600.0,0.0,0.0
2313,76.0,94.0,30.0,0.0,0.0
2314,82.0,30.0,150.0,0.0,0.0
2315,55.0,66.0,90.0,0.0,0.0
2316,64.0,96.0,90.0,0.0,0.0
2317,80.0,80.0,270.0,0.0,0.0
2318,70.0,96.0,90.0,0.0,0.0
2319,55.0,66.0,90.0,0.0,0.0
2320,70.0,30.0,150.0,0.0,0.0
2321,79.0,96.0,90.0,0.0,0.0
2322,72.0,94.0,570.0,0.0,0.0
2323,79.0,30.0,270.0,0.0,0.0
2324,56.0,96.0,90.0,0.0,0.0
2325,65.0,66.0,90.0,0.0,0.0
2326,68.0,96.0,90.0,0.0,0.0
2327,77.0,162.0,90.0,0.0,0.0
2328,56.0,0.0,90.0,0.0,0.0
2329,77.0,32.0,150.0,0.0,0.0
2330,65.0,0.0,150.0,0.0,0.0
2331,78.0,16.0,540.0,0.0,0.0
2332,56.0,96.0,90.0,0.0,0.0
2333,63.0,2.0,90.0,0.0,0.0
2334,68.0,2.0,90.0,0.0,0.0
2335,84.0,24.0,15.0,0.0,0.0
2336,86.0,46.0,20.0,0.0,0.0
2337,84.0,94.0,60.0,0.0,0.0
2338,83.0,96.0,90.0,0.0,0.0
2339,56.0,2.0,90.0,0.0,0.0
2340,62.0,32.0,150.0,0.0,0.0
2341,84.0,48.0,90.0,0.0,0.0
2342,86.0,94.0,90.0,0.0,0.0
2343,83.0,46.0,330.0,0.0,0.0
2344,55.0,96.0,90.0,0.0,0.0
2345,62.0,96.0,90.0,0.0,0.0
2346,67.0,50.0,90.0,0.0,0.0
2347,55.0,146.0,90.0,0.0,0.0
2348,62.0,80.0,150.0,0.0,0.0
2349,79.0,16.0,150.0,0.0,0.0
2350,71.0,16.0,540.0,0.0,0.0
2351,79.0,46.0,60.0,0.0,0.0
2352,55.0,96.0,90.0,0.0,0.0
2353,77.0,94.0,240.0,0.0,0.0
2354,62.0,96.0,90.0,0.0,0.0
2355,67.0,2.0,90.0,0.0,0.0
2356,75.0,144.0,90.0,0.0,0.0
2357,55.0,2.0,90.0,0.0,0.0
2358,74.0,94.0,180.0,0.0,0.0
2359,62.0,32.0,150.0,0.0,0.0
2360,72.0,16.0,540.0,0.0,0.0
2361,77.0,94.0,300.0,0.0,0.0
2362,56.0,96.0,90.0,0.0,0.0
2363,62.0,96.0,90.0,0.0,0.0
2364,68.0,2.0,90.0,0.0,0.0
2365,77.0,146.0,90.0,0.0,0.0
2366,56.0,0.0,90.0,0.0,0.0
2367,62.0,0.0,150.0,0.0,0.0
2368,77.0,56.0,150.0,0.0,0.0
2369,76.0,24.0,20.0,0.0,0.0
2370,55.0,96.0,90.0,0.0,0.0
2371,77.0,24.0,20.0,0.0,0.0
2372,79.0,22.0,20.0,0.0,0.0
2373,77.0,94.0,210.0,0.0,0.0
2374,71.0,16.0,450.0,0.0,0.0
2375,62.0,96.0,90.0,0.0,0.0
2376,67.0,2.0,90.0,0.0,0.0
2377,75.0,144.0,90.0,0.0,0.0
2378,55.0,2.0,90.0,0.0,0.0
2379,74.0,94.0,180.0,0.0,0.0
2380,62.0,32.0,150.0,0.0,0.0
2381,72.0,16.0,540.0,0.0,0.0
2382,56.0,96.0,90.0,0.0,0.0
2383,62.0,96.0,90.0,0.0,0.0
2384,68.0,2.0,90.0,0.0,0.0
2385,77.0,94.0,15.0,0.0,0.0
2386,56.0,146.0,90.0,0.0,0.0
2387,62.0,0.0,150.0,0.0,0.0
2388,77.0,126.0,150.0,0.0,0.0
2389,71.0,16.0,540.0,0.0,0.0
2390,77.0,16.0,2250.0,0.0,0.0
2391,55.0,96.0,90.0,0.0,0.0
2392,62.0,96.0,90.0,0.0,0.0
2393,67.0,96.0,90.0,0.0,0.0
2394,55.0,146.0,90.0,0.0,0.0
2395,62.0,126.0,150.0,0.0,0.0
2396,71.0,30.0,270.0,0.0,0.0
2397,56.0,96.0,90.0,0.0,0.0
2398,62.0,66.0,90.0,0.0,0.0
2399,68.0,96.0,90.0,0.0,0.0
2400,56.0,162.0,90.0,0.0,0.0
2401,71.0,0.0,90.0,0.0,0.0
2402,62.0,126.0,150.0,0.0,0.0
2403,71.0,0.0,150.0,0.0,0.0
2404,72.0,16.0,540.0,0.0,0.0
2405,56.0,96.0,90.0,0.0,0.0
2406,62.0,96.0,90.0,0.0,0.0
2407,68.0,96.0,90.0,0.0,0.0
2408,56.0,146.0,90.0,0.0,0.0
2409,62.0,126.0,150.0,0.0,0.0
2410,70.0,46.0,330.0,0.0,0.0
2411,58.0,96.0,90.0,0.0,0.0
2412,62.0,96.0,90.0,0.0,0.0
2413,68.0,50.0,90.0,0.0,0.0
2414,58.0,146.0,90.0,0.0,0.0
2415,62.0,126.0,150.0,0.0,0.0
2416,68.0,0.0,150.0,0.0,0.0
2417,39.0,0.0,90.0,0.0,0.0
2418,67.0,96.0,90.0,0.0,0.0
2419,82.0,0.0,90.0,0.0,0.0
2420,58.0,96.0,90.0,0.0,0.0
2421,67.0,96.0,90.0,0.0,0.0
2422,63.0,0.0,90.0,0.0,0.0
2423,82.0,162.0,90.0,0.0,0.0
2424,51.0,0.0,90.0,0.0,0.0
2425,67.0,0.0,150.0,0.0,0.0
2426,58.0,126.0,150.0,0.0,0.0
2427,68.0,96.0,90.0,0.0,0.0
2428,39.0,0.0,90.0,0.0,0.0
2429,82.0,96.0,90.0,0.0,0.0
2430,58.0,0.0,90.0,0.0,0.0
2431,68.0,0.0,90.0,0.0,0.0
2432,63.0,96.0,90.0,0.0,0.0
2433,82.0,162.0,90.0,0.0,0.0
2434,51.0,0.0,90.0,0.0,0.0
2435,67.0,126.0,150.0,0.0,0.0
2436,58.0,0.0,150.0,0.0,0.0
2437,39.0,0.0,90.0,0.0,0.0
2438,65.0,96.0,90.0,0.0,0.0
2439,58.0,0.0,90.0,0.0,0.0
2440,82.0,96.0,90.0,0.0,0.0
2441,65.0,0.0,90.0,0.0,0.0
2442,63.0,96.0,90.0,0.0,0.0
2443,51.0,0.0,90.0,0.0,0.0
2444,82.0,162.0,90.0,0.0,0.0
2445,68.0,0.0,150.0,0.0,0.0
2446,58.0,126.0,150.0,0.0,0.0
2447,39.0,0.0,90.0,0.0,0.0
2448,72.0,96.0,90.0,0.0,0.0
2449,82.0,96.0,90.0,0.0,0.0
2450,58.0,0.0,90.0,0.0,0.0
2451,63.0,0.0,90.0,0.0,0.0
2452,72.0,96.0,90.0,0.0,0.0
2453,82.0,0.0,90.0,0.0,0.0
2454,51.0,162.0,90.0,0.0,0.0
2455,58.0,126.0,150.0,0.0,0.0
2456,70.0,0.0,150.0,0.0,0.0
2457,67.0,96.0,90.0,0.0,0.0
2458,39.0,0.0,90.0,0.0,0.0
2459,58.0,96.0,90.0,0.0,0.0
2460,82.0,0.0,90.0,0.0,0.0
2461,63.0,96.0,90.0,0.0,0.0
2462,67.0,0.0,90.0,0.0,0.0
2463,82.0,162.0,90.0,0.0,0.0
2464,51.0,0.0,90.0,0.0,0.0
2465,67.0,0.0,300.0,0.0,0.0
2466,58.0,126.0,150.0,0.0,0.0
2467,40.0,96.0,90.0,0.0,0.0
2468,60.0,96.0,90.0,0.0,0.0
2469,82.0,0.0,90.0,0.0,0.0
2470,67.0,0.0,90.0,0.0,0.0
2471,70.0,96.0,90.0,0.0,0.0
2472,52.0,162.0,90.0,0.0,0.0
2473,82.0,0.0,90.0,0.0,0.0
2474,60.0,0.0,150.0,0.0,0.0
2475,84.0,126.0,150.0,0.0,0.0
2476,41.0,0.0,90.0,0.0,0.0
2477,70.0,96.0,90.0,0.0,0.0
2478,86.0,96.0,90.0,0.0,0.0
2479,62.0,0.0,90.0,0.0,0.0
2480,70.0,0.0,90.0,0.0,0.0
2481,65.0,96.0,90.0,0.0,0.0
2482,53.0,162.0,90.0,0.0,0.0
2483,84.0,0.0,90.0,0.0,0.0
2484,69.0,126.0,150.0,0.0,0.0
2485,63.0,0.0,150.0,0.0,0.0
2486,46.0,96.0,90.0,0.0,0.0
2487,70.0,0.0,90.0,0.0,0.0
2488,82.0,96.0,90.0,0.0,0.0
2489,53.0,0.0,90.0,0.0,0.0
2490,62.0,0.0,90.0,0.0,0.0
2491,70.0,96.0,90.0,0.0,0.0
2492,82.0,162.0,90.0,0.0,0.0
2493,46.0,0.0,90.0,0.0,0.0
2494,62.0,126.0,150.0,0.0,0.0
2495,68.0,0.0,150.0,0.0,0.0
2496,39.0,96.0,90.0,0.0,0.0
2497,67.0,0.0,90.0,0.0,0.0
2498,82.0,0.0,90.0,0.0,0.0
2499,58.0,96.0,90.0,0.0,0.0
2500,67.0,0.0,90.0,0.0,0.0
2501,63.0,96.0,90.0,0.0,0.0
2502,82.0,0.0,90.0,0.0,0.0
2503,51.0,162.0,90.0,0.0,0.0
2504,67.0,0.0,150.0,0.0,0.0
2505,58.0,126.0,150.0,0.0,0.0
2506,39.0,0.0,90.0,0.0,0.0
2507,68.0,96.0,90.0,0.0,0.0
2508,58.0,96.0,90.0,0.0,0.0
2509,82.0,0.0,90.0,0.0,0.0
2510,68.0,0.0,90.0,0.0,0.0
2511,63.0,96.0,90.0,0.0,0.0
2512,51.0,0.0,90.0,0.0,0.0
2513,82.0,162.0,90.0,0.0,0.0
2514,58.0,0.0,150.0,0.0,0.0
2515,67.0,126.0,150.0,0.0,0.0
2516,65.0,96.0,90.0,0.0,0.0
2517,39.0,0.0,90.0,0.0,0.0
2518,58.0,0.0,90.0,0.0,0.0
2519,82.0,96.0,90.0,0.0,0.0
2520,65.0,96.0,90.0,0.0,0.0
2521,63.0,0.0,90.0,0.0,0.0
2522,51.0,162.0,90.0,0.0,0.0
2523,82.0,0.0,90.0,0.0,0.0
2524,68.0,0.0,150.0,0.0,0.0
2525,58.0,126.0,150.0,0.0,0.0
2526,39.0,0.0,90.0,0.0,0.0
2527,72.0,96.0,90.0,0.0,0.0
2528,58.0,0.0,90.0,0.0,0.0
2529,82.0,96.0,90.0,0.0,0.0
2530,72.0,0.0,90.0,0.0,0.0
2531,63.0,96.0,90.0,0.0,0.0
2532,51.0,0.0,90.0,0.0,0.0
2533,82.0,162.0,90.0,0.0,0.0
2534,70.0,0.0,150.0,0.0,0.0
2535,58.0,126.0,150.0,0.0,0.0
2536,67.0,0.0,90.0,0.0,0.0
2537,39.0,96.0,90.0,0.0,0.0
2538,58.0,0.0,90.0,0.0,0.0
2539,82.0,96.0,90.0,0.0,0.0
2540,67.0,96.0,90.0,0.0,0.0
2541,63.0,0.0,90.0,0.0,0.0
2542,51.0,0.0,90.0,0.0,0.0
2543,82.0,162.0,90.0,0.0,0.0
2544,67.0,0.0,300.0,0.0,0.0
2545,58.0,126.0,150.0,0.0,0.0
2546,43.0,96.0,90.0,0.0,0.0
2547,82.0,96.0,90.0,0.0,0.0
2548,58.0,0.0,90.0,0.0,0.0
2549,67.0,0.0,90.0,0.0,0.0
2550,62.0,96.0,90.0,0.0,0.0
2551,55.0,162.0,90.0,0.0,0.0
2552,82.0,0.0,90.0,0.0,0.0
2553,58.0,126.0,150.0,0.0,0.0
2554,67.0,0.0,150.0,0.0,0.0
2555,41.0,0.0,90.0,0.0,0.0
2556,68.0,96.0,90.0,0.0,0.0
2557,60.0,0.0,90.0,0.0,0.0
2558,80.0,96.0,90.0,0.0,0.0
2559,65.0,96.0,90.0,0.0,0.0
2560,72.0,0.0,90.0,0.0,0.0
2561,53.0,0.0,90.0,0.0,0.0
2562,77.0,162.0,90.0,0.0,0.0
2563,58.0,126.0,150.0,0.0,0.0
2564,79.0,0.0,150.0,0.0,0.0
2565,74.0,0.0,150.0,0.0,0.0
2566,67.0,0.0,150.0,0.0,0.0
2567,51.0,96.0,90.0,0.0,0.0
2568,67.0,16.0,540.0,0.0,0.0
2569,75.0,46.0,330.0,0.0,0.0
2570,58.0,96.0,90.0,0.0,0.0
2571,63.0,50.0,90.0,0.0,0.0
2572,51.0,146.0,90.0,0.0,0.0
2573,58.0,126.0,150.0,0.0,0.0
2574,75.0,30.0,360.0,0.0,0.0
2575,48.0,66.0,90.0,0.0,0.0
2576,68.0,16.0,1110.0,0.0,0.0
2577,56.0,96.0,90.0,0.0,0.0
2578,74.0,78.0,270.0,0.0,0.0
2579,63.0,96.0,90.0,0.0,0.0
2580,48.0,66.0,90.0,0.0,0.0
2581,63.0,0.0,150.0,0.0,0.0
2582,72.0,18.0,60.0,0.0,0.0
2583,71.0,16.0,15.0,0.0,0.0
2584,72.0,16.0,15.0,0.0,0.0
2585,74.0,94.0,15.0,0.0,0.0
2586,50.0,96.0,90.0,0.0,0.0
2587,72.0,30.0,270.0,0.0,0.0
2588,56.0,66.0,90.0,0.0,0.0
2589,65.0,96.0,90.0,0.0,0.0
2590,50.0,144.0,90.0,0.0,0.0
2591,70.0,0.0,90.0,0.0,0.0
2592,70.0,2.0,150.0,0.0,0.0
2593,58.0,8.0,150.0,0.0,0.0
2594,67.0,24.0,20.0,0.0,0.0
2595,70.0,94.0,20.0,0.0,0.0
2596,79.0,30.0,150.0,0.0,0.0
2597,70.0,16.0,540.0,0.0,0.0
2598,51.0,66.0,90.0,0.0,0.0
2599,58.0,96.0,90.0,0.0,0.0
2600,67.0,96.0,90.0,0.0,0.0
2601,77.0,78.0,270.0,0.0,0.0
2602,51.0,66.0,90.0,0.0,0.0
2603,60.0,8.0,150.0,0.0,0.0
2604,75.0,2.0,60.0,0.0,0.0
2605,67.0,24.0,20.0,0.0,0.0
2606,72.0,22.0,20.0,0.0,0.0
2607,53.0,96.0,90.0,0.0,0.0
2608,72.0,16.0,540.0,0.0,0.0
2609,75.0,24.0,20.0,0.0,0.0
2610,77.0,48.0,20.0,0.0,0.0
2611,75.0,96.0,240.0,0.0,0.0
2612,60.0,96.0,90.0,0.0,0.0
2613,68.0,0.0,90.0,0.0,0.0
2614,53.0,96.0,90.0,0.0,0.0
2615,74.0,0.0,90.0,0.0,0.0
2616,71.0,0.0,90.0,0.0,0.0
2617,62.0,32.0,150.0,0.0,0.0
2618,74.0,34.0,90.0,0.0,0.0
2619,71.0,16.0,30.0,0.0,0.0
2620,73.0,16.0,600.0,0.0,0.0
2621,76.0,94.0,30.0,0.0,0.0
2622,55.0,66.0,90.0,0.0,0.0
2623,82.0,30.0,150.0,0.0,0.0
2624,64.0,96.0,90.0,0.0,0.0
2625,80.0,80.0,270.0,0.0,0.0
2626,70.0,96.0,90.0,0.0,0.0
2627,55.0,66.0,90.0,0.0,0.0
2628,70.0,30.0,150.0,0.0,0.0
2629,79.0,96.0,90.0,0.0,0.0
2630,56.0,96.0,90.0,0.0,0.0
2631,72.0,94.0,570.0,0.0,0.0
2632,79.0,30.0,270.0,0.0,0.0
2633,65.0,66.0,90.0,0.0,0.0
2634,68.0,96.0,90.0,0.0,0.0
2635,56.0,0.0,90.0,0.0,0.0
2636,77.0,162.0,90.0,0.0,0.0
2637,77.0,0.0,150.0,0.0,0.0
2638,65.0,32.0,150.0,0.0,0.0
2639,56.0,96.0,90.0,0.0,0.0
2640,78.0,16.0,540.0,0.0,0.0
2641,84.0,24.0,180.0,0.0,0.0
2642,63.0,2.0,90.0,0.0,0.0
2643,68.0,2.0,90.0,0.0,0.0
2644,84.0,24.0,20.0,0.0,0.0
2645,86.0,46.0,20.0,0.0,0.0
2646,84.0,94.0,60.0,0.0,0.0
2647,83.0,96.0,90.0,0.0,0.0
2648,56.0,2.0,90.0,0.0,0.0
2649,84.0,48.0,90.0,0.0,0.0
2650,62.0,32.0,150.0,0.0,0.0
2651,86.0,94.0,90.0,0.0,0.0
2652,55.0,96.0,90.0,0.0,0.0
2653,83.0,46.0,330.0,0.0,0.0
2654,62.0,96.0,90.0,0.0,0.0
2655,67.0,50.0,90.0,0.0,0.0
2656,55.0,146.0,90.0,0.0,0.0
2657,62.0,0.0,150.0,0.0,0.0
2658,79.0,16.0,150.0,0.0,0.0
2659,55.0,96.0,90.0,0.0,0.0
2660,71.0,16.0,540.0,0.0,0.0
2661,79.0,46.0,60.0,0.0,0.0
2662,77.0,94.0,240.0,0.0,0.0
2663,62.0,96.0,90.0,0.0,0.0
2664,67.0,2.0,90.0,0.0,0.0
2665,75.0,144.0,90.0,0.0,0.0
2666,55.0,2.0,90.0,0.0,0.0
2667,62.0,32.0,150.0,0.0,0.0
2668,74.0,94.0,180.0,0.0,0.0
2669,72.0,16.0,540.0,0.0,0.0
2670,56.0,96.0,90.0,0.0,0.0
2671,77.0,94.0,300.0,0.0,0.0
2672,62.0,96.0,90.0,0.0,0.0
2673,68.0,2.0,90.0,0.0,0.0
2674,77.0,0.0,90.0,0.0,0.0
2675,56.0,146.0,90.0,0.0,0.0
2676,62.0,56.0,150.0,0.0,0.0
2677,77.0,0.0,150.0,0.0,0.0
2678,55.0,96.0,90.0,0.0,0.0
2679,76.0,24.0,20.0,0.0,0.0
2680,77.0,24.0,20.0,0.0,0.0
2681,79.0,22.0,20.0,0.0,0.0
2682,77.0,94.0,210.0,0.0,0.0
2683,71.0,16.0,450.0,0.0,0.0
2684,62.0,96.0,90.0,0.0,0.0
2685,67.0,2.0,90.0,0.0,0.0
2686,55.0,2.0,90.0,0.0,0.0
2687,75.0,144.0,90.0,0.0,0.0
2688,74.0,94.0,180.0,0.0,0.0
2689,62.0,32.0,150.0,0.0,0.0
2690,77.0,94.0,300.0,0.0,0.0
2691,56.0,96.0,90.0,0.0,0.0
2692,72.0,16.0,540.0,0.0,0.0
2693,62.0,96.0,90.0,0.0,0.0
2694,68.0,2.0,90.0,0.0,0.0
2695,56.0,146.0,90.0,0.0,0.0
2696,77.0,0.0,90.0,0.0,0.0
2697,77.0,0.0,150.0,0.0,0.0
2698,62.0,126.0,150.0,0.0,0.0
2699,55.0,96.0,90.0,0.0,0.0
2700,71.0,16.0,540.0,0.0,0.0
2701,77.0,16.0,2250.0,0.0,0.0
2702,62.0,96.0,90.0,0.0,0.0
2703,67.0,96.0,90.0,0.0,0.0
2704,55.0,146.0,90.0,0.0,0.0
2705,62.0,126.0,150.0,0.0,0.0
2706,71.0,30.0,270.0,0.0,0.0
2707,56.0,96.0,90.0,0.0,0.0
2708,62.0,66.0,90.0,0.0,0.0
2709,68.0,96.0,90.0,0.0,0.0
2710,71.0,0.0,90.0,0.0,0.0
2711,56.0,162.0,90.0,0.0,0.0
2712,62.0,126.0,150.0,0.0,0.0
2713,71.0,0.0,150.0,0.0,0.0
2714,72.0,16.0,540.0,0.0,0.0
2715,56.0,96.0,90.0,0.0,0.0
2716,62.0,96.0,90.0,0.0,0.0
2717,68.0,96.0,90.0,0.0,0.0
2718,56.0,146.0,90.0,0.0,0.0
2719,62.0,126.0,150.0,0.0,0.0
2720,58.0,96.0,90.0,0.0,0.0
2721,70.0,46.0,330.0,0.0,0.0
2722,62.0,96.0,90.0,0.0,0.0
2723,68.0,50.0,90.0,0.0,0.0
2724,58.0,146.0,90.0,0.0,0.0
2725,62.0,0.0,150.0,0.0,0.0
2726,68.0,126.0,150.0,0.0,0.0
2727,39.0,96.0,90.0,0.0,0.0
2728,67.0,0.0,90.0,0.0,0.0
2729,58.0,96.0,90.0,0.0,0.0
2730,82.0,0.0,90.0,0.0,0.0
2731,67.0,0.0,90.0,0.0,0.0
2732,63.0,96.0,90.0,0.0,0.0
2733,51.0,162.0,90.0,0.0,0.0
2734,82.0,0.0,90.0,0.0,0.0
2735,58.0,126.0,150.0,0.0,0.0
2736,67.0,0.0,150.0,0.0,0.0
2737,39.0,0.0,90.0,0.0,0.0
2738,68.0,96.0,90.0,0.0,0.0
2739,82.0,0.0,90.0,0.0,0.0
2740,58.0,96.0,90.0,0.0,0.0
2741,68.0,0.0,90.0,0.0,0.0
2742,63.0,96.0,90.0,0.0,0.0
2743,82.0,0.0,90.0,0.0,0.0
2744,51.0,162.0,90.0,0.0,0.0
2745,58.0,0.0,150.0,0.0,0.0
2746,67.0,126.0,150.0,0.0,0.0
2747,65.0,96.0,90.0,0.0,0.0
2748,39.0,0.0,90.0,0.0,0.0
2749,58.0,0.0,90.0,0.0,0.0
2750,82.0,96.0,90.0,0.0,0.0
2751,65.0,0.0,90.0,0.0,0.0
2752,63.0,96.0,90.0,0.0,0.0
2753,51.0,162.0,90.0,0.0,0.0
2754,82.0,0.0,90.0,0.0,0.0
2755,58.0,0.0,150.0,0.0,0.0
2756,68.0,126.0,150.0,0.0,0.0
2757,72.0,96.0,90.0,0.0,0.0
2758,39.0,0.0,90.0,0.0,0.0
2759,58.0,0.0,90.0,0.0,0.0
2760,82.0,96.0,90.0,0.0,0.0
2761,63.0,0.0,90.0,0.0,0.0
2762,72.0,96.0,90.0,0.0,0.0
2763,51.0,162.0,90.0,0.0,0.0
2764,82.0,0.0,90.0,0.0,0.0
2765,58.0,0.0,150.0,0.0,0.0
2766,70.0,126.0,150.0,0.0,0.0
2767,39.0,0.0,90.0,0.0,0.0
2768,67.0,96.0,90.0,0.0,0.0
2769,58.0,0.0,90.0,0.0,0.0
2770,82.0,96.0,90.0,0.0,0.0
2771,67.0,0.0,90.0,0.0,0.0
2772,63.0,96.0,90.0,0.0,0.0
2773,51.0,162.0,90.0,0.0,0.0
2774,82.0,0.0,90.0,0.0,0.0
2775,58.0,126.0,150.0,0.0,0.0
2776,67.0,0.0,300.0,0.0,0.0
2777,40.0,96.0,90.0,0.0,0.0
2778,82.0,66.0,90.0,0.0,0.0
2779,62.0,30.0,150.0,0.0,0.0
2780,67.0,0.0,90.0,0.0,0.0
2781,70.0,96.0,90.0,0.0,0.0
2782,52.0,96.0,150.0,0.0,0.0
2783,82.0,66.0,90.0,0.0,0.0
2784,60.0,0.0,150.0,0.0,0.0
2785,84.0,126.0,150.0,0.0,0.0
2786,70.0,96.0,90.0,0.0,0.0
2787,41.0,0.0,90.0,0.0,0.0
2788,86.0,66.0,90.0,0.0,0.0
2789,60.0,30.0,150.0,0.0,0.0
2790,70.0,96.0,90.0,0.0,0.0
2791,65.0,0.0,90.0,0.0,0.0
2792,84.0,66.0,90.0,0.0,0.0
2793,53.0,0.0,90.0,0.0,0.0
2794,69.0,126.0,150.0,0.0,0.0
2795,63.0,0.0,150.0,0.0,0.0
2796,70.0,0.0,90.0,0.0,0.0
2797,46.0,96.0,90.0,0.0,0.0
2798,53.0,0.0,90.0,0.0,0.0
2799,82.0,96.0,90.0,0.0,0.0
2800,70.0,96.0,90.0,0.0,0.0
2801,62.0,0.0,90.0,0.0,0.0
2802,46.0,0.0,90.0,0.0,0.0
2803,82.0,162.0,90.0,0.0,0.0
2804,68.0,126.0,150.0,0.0,0.0
2805,62.0,0.0,150.0,0.0,0.0
2806,67.0,0.0,90.0,0.0,0.0
2807,46.0,96.0,90.0,0.0,0.0
2808,52.0,96.0,90.0,0.0,0.0
2809,82.0,0.0,90.0,0.0,0.0
2810,67.0,0.0,90.0,0.0,0.0
2811,61.0,96.0,90.0,0.0,0.0
2812,46.0,0.0,90.0,0.0,0.0
2813,82.0,162.0,90.0,0.0,0.0
2814,61.0,0.0,150.0,0.0,0.0
2815,67.0,126.0,150.0,0.0,0.0
2816,46.0,0.0,90.0,0.0,0.0
2817,68.0,96.0,90.0,0.0,0.0
2818,52.0,96.0,90.0,0.0,0.0
2819,82.0,0.0,90.0,0.0,0.0
2820,60.0,0.0,90.0,0.0,0.0
2821,68.0,96.0,90.0,0.0,0.0
2822,82.0,0.0,90.0,0.0,0.0
2823,46.0,162.0,90.0,0.0,0.0
2824,60.0,0.0,150.0,0.0,0.0
2825,67.0,126.0,150.0,0.0,0.0
2826,46.0,0.0,90.0,0.0,0.0
2827,65.0,96.0,90.0,0.0,0.0
2828,56.0,0.0,90.0,0.0,0.0
2829,82.0,96.0,90.0,0.0,0.0
2830,60.0,0.0,90.0,0.0,0.0
2831,65.0,96.0,90.0,0.0,0.0
2832,82.0,162.0,90.0,0.0,0.0
2833,46.0,0.0,90.0,0.0,0.0
2834,68.0,0.0,150.0,0.0,0.0
2835,60.0,126.0,150.0,0.0,0.0
2836,72.0,0.0,90.0,0.0,0.0
2837,46.0,96.0,90.0,0.0,0.0
2838,82.0,0.0,90.0,0.0,0.0
2839,56.0,96.0,90.0,0.0,0.0
2840,62.0,0.0,90.0,0.0,0.0
2841,72.0,96.0,90.0,0.0,0.0
2842,46.0,0.0,90.0,0.0,0.0
2843,82.0,162.0,90.0,0.0,0.0
2844,62.0,0.0,150.0,0.0,0.0
2845,70.0,126.0,150.0,0.0,0.0
2846,67.0,0.0,90.0,0.0,0.0
2847,39.0,96.0,90.0,0.0,0.0
2848,82.0,0.0,90.0,0.0,0.0
2849,58.0,96.0,90.0,0.0,0.0
2850,67.0,0.0,90.0,0.0,0.0
2851,63.0,96.0,90.0,0.0,0.0
2852,51.0,0.0,90.0,0.0,0.0
2853,82.0,162.0,90.0,0.0,0.0
2854,58.0,0.0,150.0,0.0,0.0
2855,67.0,126.0,150.0,0.0,0.0
2856,67.0,96.0,90.0,0.0,0.0
2857,40.0,0.0,90.0,0.0,0.0
2858,58.0,0.0,90.0,0.0,0.0
2859,82.0,96.0,90.0,0.0,0.0
2860,61.0,0.0,90.0,0.0,0.0
2861,67.0,96.0,90.0,0.0,0.0
2862,52.0,162.0,90.0,0.0,0.0
2863,82.0,0.0,90.0,0.0,0.0
2864,58.0,0.0,150.0,0.0,0.0
2865,67.0,126.0,150.0,0.0,0.0
2866,65.0,0.0,90.0,0.0,0.0
2867,41.0,96.0,90.0,0.0,0.0
2868,58.0,30.0,270.0,0.0,0.0
2869,77.0,96.0,90.0,0.0,0.0
2870,61.0,0.0,150.0,0.0,0.0
2871,65.0,66.0,90.0,0.0,0.0
2872,77.0,162.0,90.0,0.0,0.0
2873,53.0,16.0,810.0,0.0,0.0
2874,60.0,0.0,720.0,0.0,0.0
2875,65.0,126.0,150.0,0.0,0.0
2876,57.0,0.0,720.0,0.0,0.0
2877,65.0,96.0,90.0,0.0,0.0
2878,77.0,96.0,90.0,0.0,0.0
2879,65.0,96.0,90.0,0.0,0.0
2880,77.0,146.0,90.0,0.0,0.0
2881,65.0,560.0,150.0,0.0,0.0
2882,77.0,0.0,540.0,0.0,0.0
2883,83.0,0.0,540.0,0.0,0.0
2884,92.0,0.0,540.0,0.0,0.0
2885,71.0,0.0,540.0,0.0,0.0
2886,87.0,0.0,540.0,0.0,0.0
2887,99.0,0.0,540.0,0.0,0.0
2888,80.0,142.0,540.0,0.0,0.0
2889,65.0,96.0,90.0,0.0,0.0
2890,77.0,96.0,90.0,0.0,0.0
2891,65.0,96.0,90.0,0.0,0.0
2892,77.0,162.0,90.0,0.0,0.0
2893,63.0,192.0,150.0,0.0,0.0
2894,50.0,0.0,150.0,0.0,0.0
2895,70.0,0.0,150.0,0.0,0.0
2896,68.0,0.0,150.0,0.0,0.0
2897,38.0,0.0,150.0,0.0,0.0
2898,58.0,192.0,150.0,0.0,0.0
2899,65.0,0.0,150.0,0.0,0.0
2900,58.0,30.0,150.0,0.0,0.0
2901,77.0,162.0,90.0,0.0,0.0
2902,65.0,192.0,150.0,0.0,0.0
2903,71.0,30.0,150.0,0.0,0.0
2904,77.0,162.0,90.0,0.0,0.0
2905,71.0,30.0,150.0,0.0,0.0
2906,77.0,162.0,90.0,0.0,0.0
2907,70.0,128.0,150.0,0.0,0.0
2908,45.0,0.0,90.0,0.0,0.0
2909,54.0,96.0,90.0,0.0,0.0
2910,46.0,94.0,90.0,0.0,0.0
2911,40.0,98.0,90.0,0.0,0.0
2912,57.0,96.0,90.0,0.0,0.0
2913,58.0,96.0,90.0,0.0,0.0
2914,63.0,96.0,90.0,0.0,0.0
2915,66.0,96.0,90.0,0.0,0.0
2916,59.0,96.0,180.0,0.0,0.0
2917,56.0,0.0,180.0,0.0,0.0
2918,62.0,0.0,90.0,0.0,0.0
2919,54.0,32.0,150.0,0.0,0.0
2920,58.0,0.0,150.0,0.0,0.0
2921,65.0,64.0,90.0,0.0,0.0
2922,63.0,96.0,90.0,0.0,0.0
2923,66.0,96.0,90.0,0.0,0.0
2924,70.0,94.0,90.0,0.0,0.0
2925,54.0,96.0,90.0,0.0,0.0
2926,75.0,2.0,90.0,0.0,0.0
2927,45.0,0.0,90.0,0.0,0.0
2928,46.0,94.0,90.0,0.0,0.0
2929,40.0,98.0,90.0,0.0,0.0
2930,57.0,96.0,90.0,0.0,0.0
2931,58.0,96.0,90.0,0.0,0.0
2932,63.0,96.0,90.0,0.0,0.0
2933,59.0,96.0,180.0,0.0,0.0
2934,56.0,0.0,180.0,0.0,0.0
2935,66.0,96.0,90.0,0.0,0.0
2936,62.0,0.0,90.0,0.0,0.0
2937,65.0,64.0,90.0,0.0,0.0
2938,54.0,32.0,150.0,0.0,0.0
2939,58.0,0.0,150.0,0.0,0.0
2940,63.0,96.0,90.0,0.0,0.0
2941,66.0,96.0,90.0,0.0,0.0
2942,70.0,48.0,90.0,0.0,0.0
2943,78.0,194.0,90.0,0.0,0.0
2944,51.0,46.0,60.0,0.0,0.0
2945,80.0,96.0,90.0,0.0,0.0
2946,74.0,96.0,90.0,0.0,0.0
2947,78.0,96.0,90.0,0.0,0.0
2948,75.0,48.0,90.0,0.0,0.0
2949,66.0,0.0,60.0,0.0,0.0
2950,58.0,48.0,60.0,0.0,0.0
2951,83.0,96.0,90.0,0.0,0.0
2952,77.0,48.0,90.0,0.0,0.0
2953,82.0,96.0,90.0,0.0,0.0
2954,51.0,48.0,60.0,0.0,0.0
2955,78.0,48.0,90.0,0.0,0.0
2956,89.0,96.0,90.0,0.0,0.0
2957,66.0,0.0,60.0,0.0,0.0
2958,58.0,48.0,60.0,0.0,0.0
2959,81.0,48.0,90.0,0.0,0.0
2960,51.0,48.0,60.0,0.0,0.0
2961,87.0,96.0,90.0,0.0,0.0
2962,82.0,48.0,90.0,0.0,0.0
2963,92.0,96.0,90.0,0.0,0.0
2964,66.0,0.0,60.0,0.0,0.0
2965,58.0,48.0,60.0,0.0,0.0
2966,86.0,48.0,90.0,0.0,0.0
2967,51.0,48.0,60.0,0.0,0.0
2968,90.0,96.0,90.0,0.0,0.0
2969,87.0,48.0,90.0,0.0,0.0
2970,99.0,624.0,60.0,0.0,0.0
2971,66.0,0.0,60.0,0.0,0.0
2972,58.0,0.0,60.0,0.0,0.0
2973,46.0,0.0,90.0,0.0,0.0
2974,56.0,96.0,90.0,0.0,0.0
2975,47.0,94.0,90.0,0.0,0.0
2976,39.0,98.0,90.0,0.0,0.0
2977,62.0,96.0,90.0,0.0,0.0
2978,63.0,96.0,90.0,0.0,0.0
2979,68.0,96.0,90.0,0.0,0.0
2980,61.0,0.0,180.0,0.0,0.0
2981,71.0,96.0,90.0,0.0,0.0
2982,64.0,96.0,180.0,0.0,0.0
2983,67.0,0.0,90.0,0.0,0.0
2984,63.0,0.0,150.0,0.0,0.0
2985,59.0,32.0,150.0,0.0,0.0
2986,70.0,64.0,90.0,0.0,0.0
2987,68.0,96.0,90.0,0.0,0.0
2988,71.0,96.0,90.0,0.0,0.0
2989,75.0,32.0,90.0,0.0,0.0
2990,80.0,64.0,30.0,0.0,0.0
2991,46.0,0.0,90.0,0.0,0.0
2992,56.0,96.0,90.0,0.0,0.0
2993,47.0,94.0,90.0,0.0,0.0
2994,39.0,98.0,90.0,0.0,0.0
2995,62.0,96.0,90.0,0.0,0.0
2996,63.0,96.0,90.0,0.0,0.0
2997,68.0,96.0,90.0,0.0,0.0
2998,64.0,0.0,180.0,0.0,0.0
2999,71.0,96.0,90.0,0.0,0.0
3000,61.0,0.0,180.0,0.0,0.0
3001,67.0,96.0,90.0,0.0,0.0
3002,63.0,32.0,150.0,0.0,0.0
3003,59.0,0.0,150.0,0.0,0.0
3004,70.0,64.0,90.0,0.0,0.0
3005,68.0,96.0,90.0,0.0,0.0
3006,71.0,96.0,90.0,0.0,0.0
3007,75.0,48.0,90.0,0.0,0.0
3008,83.0,194.0,90.0,0.0,0.0
3009,51.0,46.0,60.0,0.0,0.0
3010,82.0,96.0,90.0,0.0,0.0
3011,74.0,96.0,90.0,0.0,0.0
3012,80.0,96.0,90.0,0.0,0.0
3013,75.0,48.0,90.0,0.0,0.0
3014,68.0,0.0,60.0,0.0,0.0
3015,85.0,96.0,90.0,0.0,0.0
3016,59.0,48.0,60.0,0.0,0.0
3017,79.0,48.0,90.0,0.0,0.0
3018,51.0,48.0,60.0,0.0,0.0
3019,83.0,96.0,90.0,0.0,0.0
3020,80.0,48.0,90.0,0.0,0.0
3021,68.0,0.0,60.0,0.0,0.0
3022,59.0,48.0,60.0,0.0,0.0
3023,88.0,96.0,90.0,0.0,0.0
3024,82.0,48.0,90.0,0.0,0.0
3025,87.0,96.0,90.0,0.0,0.0
3026,51.0,48.0,60.0,0.0,0.0
3027,83.0,48.0,90.0,0.0,0.0
3028,94.0,96.0,90.0,0.0,0.0
3029,68.0,0.0,60.0,0.0,0.0
3030,59.0,48.0,60.0,0.0,0.0
3031,86.0,48.0,90.0,0.0,0.0
3032,51.0,48.0,60.0,0.0,0.0
3033,92.0,96.0,90.0,0.0,0.0
3034,87.0,48.0,90.0,0.0,0.0
3035,104.0,576.0,150.0,0.0,0.0
3036,59.0,0.0,60.0,0.0,0.0
3037,68.0,112.0,60.0,0.0,0.0
3038,82.0,32.0,150.0,0.0,0.0
3039,94.0,96.0,180.0,0.0,0.0
3040,80.0,0.0,570.0,0.0,0.0
3041,77.0,0.0,570.0,0.0,0.0
3042,74.0,96.0,570.0,0.0,0.0
3043,95.0,96.0,90.0,0.0,0.0
3044,83.0,0.0,540.0,0.0,0.0
3045,94.0,96.0,90.0,0.0,0.0
3046,93.0,96.0,90.0,0.0,0.0
3047,78.0,32.0,150.0,0.0,0.0
3048,75.0,0.0,150.0,0.0,0.0
3049,92.0,0.0,15.0,0.0,0.0
3050,90.0,96.0,90.0,0.0,0.0
3051,58.0,32.0,150.0,0.0,0.0
3052,89.0,64.0,90.0,0.0,0.0
3053,70.0,0.0,150.0,0.0,0.0
3054,87.0,96.0,90.0,0.0,0.0
3055,85.0,96.0,90.0,0.0,0.0
3056,83.0,48.0,90.0,0.0,0.0
3057,82.0,96.0,90.0,0.0,0.0
3058,73.0,48.0,60.0,0.0,0.0
3059,77.0,0.0,60.0,0.0,0.0
3060,83.0,48.0,90.0,0.0,0.0
3061,58.0,48.0,60.0,0.0,0.0
3062,81.0,96.0,90.0,0.0,0.0
3063,82.0,48.0,90.0,0.0,0.0
3064,87.0,96.0,90.0,0.0,0.0
3065,75.0,0.0,60.0,0.0,0.0
3066,71.0,48.0,60.0,0.0,0.0
3067,80.0,48.0,90.0,0.0,0.0
3068,73.0,0.0,60.0,0.0,0.0
3069,78.0,96.0,90.0,0.0,0.0
3070,70.0,48.0,60.0,0.0,0.0
3071,80.0,48.0,90.0,0.0,0.0
3072,58.0,48.0,60.0,0.0,0.0
3073,77.0,96.0,90.0,0.0,0.0
3074,78.0,96.0,90.0,0.0,0.0
3075,83.0,64.0,90.0,0.0,0.0
3076,71.0,32.0,360.0,0.0,0.0
3077,68.0,30.0,150.0,0.0,0.0
3078,75.0,98.0,90.0,0.0,0.0
3079,74.0,64.0,90.0,0.0,0.0
3080,65.0,48.0,330.0,0.0,0.0
3081,80.0,96.0,90.0,0.0,0.0
3082,72.0,48.0,90.0,0.0,0.0
3083,58.0,0.0,540.0,0.0,0.0
3084,73.0,96.0,90.0,0.0,0.0
3085,82.0,64.0,90.0,0.0,0.0
3086,66.0,0.0,180.0,0.0,0.0
3087,70.0,32.0,150.0,0.0,0.0
3088,78.0,96.0,90.0,0.0,0.0
3089,65.0,16.0,330.0,0.0,0.0
3090,74.0,64.0,90.0,0.0,0.0
3091,71.0,32.0,150.0,0.0,0.0
3092,78.0,96.0,90.0,0.0,0.0
3093,72.0,48.0,90.0,0.0,0.0
3094,58.0,32.0,150.0,0.0,0.0
3095,73.0,96.0,90.0,0.0,0.0
3096,70.0,32.0,150.0,0.0,0.0
3097,82.0,64.0,90.0,0.0,0.0
3098,66.0,96.0,180.0,0.0,0.0
3099,78.0,0.0,90.0,0.0,0.0
3100,72.0,64.0,90.0,0.0,0.0
3101,69.0,0.0,150.0,0.0,0.0
3102,63.0,16.0,330.0,0.0,0.0
3103,78.0,96.0,90.0,0.0,0.0
3104,70.0,48.0,90.0,0.0,0.0
3105,58.0,32.0,150.0,0.0,0.0
3106,71.0,96.0,90.0,0.0,0.0
3107,80.0,64.0,90.0,0.0,0.0
3108,68.0,32.0,150.0,0.0,0.0
3109,65.0,96.0,180.0,0.0,0.0
3110,77.0,0.0,90.0,0.0,0.0
3111,71.0,64.0,90.0,0.0,0.0
3112,62.0,48.0,330.0,0.0,0.0
3113,77.0,96.0,90.0,0.0,0.0
3114,58.0,0.0,480.0,0.0,0.0
3115,69.0,48.0,90.0,0.0,0.0
3116,70.0,96.0,90.0,0.0,0.0
3117,66.0,30.0,150.0,0.0,0.0
3118,78.0,64.0,90.0,0.0,0.0
3119,63.0,94.0,180.0,0.0,0.0
3120,75.0,2.0,90.0,0.0,0.0
3121,62.0,146.0,90.0,0.0,0.0
3122,70.0,0.0,90.0,0.0,0.0
3123,68.0,0.0,90.0,0.0,0.0
3124,46.0,0.0,60.0,0.0,0.0
3125,71.0,96.0,90.0,0.0,0.0
3126,34.0,48.0,60.0,0.0,0.0
3127,70.0,96.0,90.0,0.0,0.0
3128,69.0,96.0,90.0,0.0,0.0
3129,54.0,48.0,60.0,0.0,0.0
3130,68.0,48.0,15.0,0.0,0.0
3131,59.0,0.0,60.0,0.0,0.0
3132,51.0,0.0,60.0,0.0,0.0
3133,66.0,48.0,90.0,0.0,0.0
3134,65.0,96.0,90.0,0.0,0.0
3135,34.0,48.0,60.0,0.0,0.0
3136,46.0,0.0,60.0,0.0,0.0
3137,63.0,96.0,90.0,0.0,0.0
3138,61.0,96.0,90.0,0.0,0.0
3139,59.0,48.0,90.0,0.0,0.0
3140,53.0,0.0,60.0,0.0,0.0
3141,58.0,96.0,90.0,0.0,0.0
3142,49.0,48.0,60.0,0.0,0.0
3143,59.0,48.0,90.0,0.0,0.0
3144,57.0,96.0,90.0,0.0,0.0
3145,34.0,48.0,60.0,0.0,0.0
3146,58.0,48.0,90.0,0.0,0.0
3147,47.0,48.0,60.0,0.0,0.0
3148,63.0,96.0,90.0,0.0,0.0
3149,51.0,0.0,60.0,0.0,0.0
3150,57.0,48.0,90.0,0.0,0.0
3151,49.0,0.0,60.0,0.0,0.0
3152,54.0,96.0,90.0,0.0,0.0
3153,46.0,48.0,60.0,0.0,0.0
3154,56.0,48.0,90.0,0.0,0.0
3155,53.0,96.0,90.0,0.0,0.0
3156,34.0,48.0,60.0,0.0,0.0
3157,54.0,96.0,90.0,0.0,0.0
3158,47.0,0.0,1500.0,0.0,0.0
3159,59.0,64.0,90.0,0.0,0.0
3160,44.0,30.0,150.0,0.0,0.0
3161,51.0,98.0,90.0,0.0,0.0
3162,41.0,48.0,900.0,0.0,0.0
3163,50.0,96.0,90.0,0.0,0.0
3164,53.0,96.0,90.0,0.0,0.0
3165,56.0,96.0,90.0,0.0,0.0
3166,59.0,96.0,90.0,0.0,0.0
3167,62.0,96.0,90.0,0.0,0.0
3168,65.0,96.0,90.0,0.0,0.0
3169,67.0,96.0,90.0,0.0,0.0
3170,68.0,96.0,90.0,0.0,0.0
3171,69.0,48.0,90.0,0.0,0.0
3172,70.0,96.0,90.0,0.0,0.0
3173,71.0,64.0,90.0,0.0,0.0
3174,39.0,32.0,150.0,0.0,0.0
3175,66.0,94.0,90.0,0.0,0.0
3176,38.0,32.0,150.0,0.0,0.0
3177,65.0,66.0,90.0,0.0,0.0
3178,68.0,96.0,90.0,0.0,0.0
3179,80.0,96.0,90.0,0.0,0.0
3180,77.0,0.0,90.0,0.0,0.0
3181,74.0,96.0,90.0,0.0,0.0
3182,71.0,96.0,90.0,0.0,0.0
3183,69.0,96.0,90.0,0.0,0.0
3184,68.0,96.0,90.0,0.0,0.0
3185,67.0,48.0,90.0,0.0,0.0
3186,66.0,96.0,90.0,0.0,0.0
3187,59.0,48.0,60.0,0.0,0.0
3188,65.0,48.0,90.0,0.0,0.0
3189,59.0,48.0,60.0,0.0,0.0
3190,64.0,94.0,90.0,0.0,0.0
3191,63.0,98.0,90.0,0.0,0.0
3192,62.0,96.0,90.0,0.0,0.0
3193,53.0,0.0,960.0,0.0,0.0
3194,59.0,0.0,1260.0,0.0,0.0
3195,65.0,96.0,90.0,0.0,0.0
3196,68.0,96.0,90.0,0.0,0.0
3197,71.0,96.0,90.0,0.0,0.0
3198,74.0,96.0,90.0,0.0,0.0
3199,77.0,96.0,90.0,0.0,0.0
3200,79.0,96.0,90.0,0.0,0.0
3201,80.0,96.0,90.0,0.0,0.0
3202,81.0,96.0,90.0,0.0,0.0
3203,82.0,96.0,90.0,0.0,0.0
3204,51.0,0.0,180.0,0.0,0.0
3205,83.0,96.0,90.0,0.0,0.0
3206,78.0,32.0,90.0,0.0,0.0
3207,50.0,146.0,90.0,0.0,0.0
3208,77.0,62.0,30.0,0.0,0.0
3209,52.0,0.0,60.0,0.0,0.0
3210,64.0,0.0,60.0,0.0,0.0
3211,74.0,192.0,60.0,0.0,0.0
3212,86.0,0.0,60.0,0.0,0.0
3213,80.0,0.0,60.0,0.0,0.0
3214,83.0,0.0,60.0,0.0,0.0
3215,87.0,0.0,60.0,0.0,0.0
3216,63.0,0.0,60.0,0.0,0.0
3217,51.0,0.0,60.0,0.0,0.0
3218,83.0,304.0,60.0,0.0,0.0
3219,75.0,0.0,60.0,0.0,0.0
3220,80.0,0.0,60.0,0.0,0.0
3221,77.0,0.0,150.0,0.0,0.0
3222,83.0,0.0,150.0,0.0,0.0
3223,50.0,0.0,150.0,0.0,0.0
3224,80.0,224.0,150.0,0.0,0.0
3225,62.0,0.0,150.0,0.0,0.0
3226,89.0,0.0,150.0,0.0,0.0
3227,59.0,0.0,180.0,0.0,0.0
3228,47.0,160.0,180.0,0.0,0.0
3229,38.0,0.0,150.0,0.0,0.0
3230,50.0,992.0,150.0,0.0,0.0
3231,39.0,0.0,1500.0,0.0,0.0
3232,51.0,16.0,1500.0,0.0,0.0
3233,78.0,160.0,180.0,0.0,0.0
3234,66.0,0.0,180.0,0.0,0.0
3235,71.0,0.0,180.0,0.0,0.0
3236,59.0,0.0,150.0,0.0,0.0
3237,71.0,0.0,150.0,0.0,0.0
3238,66.0,224.0,150.0,0.0,0.0
3239,65.0,0.0,330.0,0.0,0.0
3240,59.0,0.0,330.0,0.0,0.0
3241,70.0,144.0,180.0,0.0,0.0
3242,68.0,192.0,150.0,0.0,0.0
3243,50.0,0.0,150.0,0.0,0.0
3244,38.0,224.0,150.0,0.0,0.0
3245,49.0,192.0,180.0,0.0,0.0
3246,61.0,0.0,180.0,0.0,0.0
3247,59.0,160.0,180.0,0.0,0.0
3248,47.0,0.0,180.0,0.0,0.0
3249,50.0,800.0,150.0,0.0,0.0
3250,38.0,0.0,150.0,0.0,0.0
3251,39.0,96.0,1680.0,0.0,0.0
3252,51.0,0.0,1680.0,0.0,0.0
3253,68.0,192.0,390.0,0.0,0.0
3254,80.0,0.0,390.0,0.0,0.0
3255,71.0,0.0,390.0,0.0,0.0
3256,78.0,0.0,180.0,0.0,0.0
3257,59.0,368.0,150.0,0.0,0.0
3258,71.0,0.0,15.0,0.0,0.0
3259,66.0,160.0,15.0,0.0,0.0
3260,59.0,16.0,1110.0,0.0,0.0
3261,65.0,0.0,1110.0,0.0,0.0
3262,70.0,192.0,330.0,0.0,0.0
3263,68.0,0.0,720.0,0.0,0.0
3264,39.0,336.0,60.0,0.0,0.0
3265,51.0,0.0,60.0,0.0,0.0
3266,51.0,144.0,180.0,0.0,0.0
3267,39.0,0.0,180.0,0.0,0.0
3268,50.0,224.0,150.0,0.0,0.0
3269,38.0,0.0,150.0,0.0,0.0
3270,58.0,16.0,330.0,0.0,0.0
3271,63.0,0.0,330.0,0.0,0.0
3272,68.0,144.0,180.0,0.0,0.0
3273,39.0,96.0,540.0,0.0,0.0
3274,51.0,0.0,540.0,0.0,0.0
3275,66.0,176.0,150.0,0.0,0.0
3276,51.0,336.0,60.0,0.0,0.0
3277,39.0,0.0,60.0,0.0,0.0
3278,39.0,0.0,180.0,0.0,0.0
3279,51.0,160.0,180.0,0.0,0.0
3280,38.0,0.0,150.0,0.0,0.0
3281,50.0,224.0,150.0,0.0,0.0
3282,58.0,16.0,330.0,0.0,0.0
3283,63.0,0.0,330.0,0.0,0.0
3284,68.0,144.0,180.0,0.0,0.0
3285,39.0,0.0,540.0,0.0,0.0
3286,51.0,240.0,540.0,0.0,0.0
3287,66.0,176.0,150.0,0.0,0.0
3288,39.0,192.0,180.0,0.0,0.0
3289,51.0,0.0,180.0,0.0,0.0
3290,53.0,0.0,180.0,0.0,0.0
3291,41.0,160.0,180.0,0.0,0.0
3292,42.0,0.0,150.0,0.0,0.0
3293,54.0,416.0,150.0,0.0,0.0
3294,59.0,0.0,540.0,0.0,0.0
3295,32.0,0.0,540.0,0.0,0.0
3296,63.0,0.0,540.0,0.0,0.0
3297,44.0,16.0,540.0,0.0,0.0
3298,66.0,144.0,390.0,0.0,0.0
3299,65.0,1344.0,150.0,0.0,0.0
3300,80.0,0.0,2250.0,0.0,0.0
3301,68.0,0.0,2250.0,0.0,0.0
3302,78.0,192.0,150.0,0.0,0.0
3303,66.0,0.0,150.0,0.0,0.0
3304,65.0,0.0,150.0,0.0,0.0
3305,77.0,192.0,150.0,0.0,0.0
3306,75.0,560.0,150.0,0.0,0.0
3307,63.0,0.0,150.0,0.0,0.0
3308,77.0,0.0,540.0,0.0,0.0
3309,65.0,96.0,540.0,0.0,0.0
3310,47.0,0.0,60.0,0.0,0.0
3311,59.0,0.0,60.0,0.0,0.0
3312,68.0,0.0,60.0,0.0,0.0
3313,75.0,1264.0,60.0,0.0,0.0
3314,80.0,16.0,1620.0,0.0,0.0
3315,68.0,0.0,1620.0,0.0,0.0
3316,78.0,0.0,150.0,0.0,0.0
3317,66.0,192.0,150.0,0.0,0.0
3318,65.0,0.0,150.0,0.0,0.0
3319,77.0,176.0,150.0,0.0,0.0
3320,75.0,0.0,150.0,0.0,0.0
3321,63.0,1184.0,150.0,0.0,0.0
3322,77.0,0.0,1140.0,0.0,0.0
3323,58.0,0.0,1320.0,0.0,0.0
3324,70.0,704.0,1320.0,0.0,0.0
3325,68.0,0.0,1140.0,0.0,0.0
3326,74.0,160.0,1140.0,0.0,0.0
3327,66.0,0.0,150.0,0.0,0.0
3328,51.0,0.0,150.0,0.0,0.0
3329,75.0,0.0,150.0,0.0,0.0
3330,54.0,96.0,90.0,0.0,0.0
3331,46.0,0.0,90.0,0.0,0.0
3332,47.0,94.0,90.0,0.0,0.0
3333,38.0,98.0,90.0,0.0,0.0
3334,54.0,96.0,90.0,0.0,0.0
3335,59.0,96.0,90.0,0.0,0.0
3336,66.0,96.0,90.0,0.0,0.0
3337,37.0,96.0,90.0,0.0,0.0
3338,68.0,96.0,300.0,0.0,0.0
3339,47.0,94.0,90.0,0.0,0.0
3340,53.0,2.0,90.0,0.0,0.0
3341,59.0,96.0,90.0,0.0,0.0
3342,61.0,94.0,90.0,0.0,0.0
3343,59.0,98.0,90.0,0.0,0.0
3344,48.0,0.0,90.0,0.0,0.0
3345,58.0,96.0,90.0,0.0,0.0
3346,49.0,96.0,90.0,0.0,0.0
3347,58.0,64.0,90.0,0.0,0.0
3348,42.0,32.0,150.0,0.0,0.0
3349,61.0,96.0,90.0,0.0,0.0
3350,70.0,96.0,90.0,0.0,0.0
3351,70.0,160.0,90.0,0.0,0.0
3352,82.0,512.0,150.0,0.0,0.0
3353,50.0,96.0,90.0,0.0,0.0
3354,58.0,0.0,90.0,0.0,0.0
3355,51.0,94.0,90.0,0.0,0.0
3356,42.0,98.0,90.0,0.0,0.0
3357,58.0,96.0,90.0,0.0,0.0
3358,63.0,96.0,90.0,0.0,0.0
3359,70.0,96.0,90.0,0.0,0.0
3360,72.0,96.0,300.0,0.0,0.0
3361,41.0,96.0,90.0,0.0,0.0
3362,51.0,94.0,90.0,0.0,0.0
3363,56.0,2.0,90.0,0.0,0.0
3364,63.0,96.0,90.0,0.0,0.0
3365,65.0,94.0,90.0,0.0,0.0
3366,63.0,98.0,90.0,0.0,0.0
3367,52.0,0.0,90.0,0.0,0.0
3368,61.0,96.0,90.0,0.0,0.0
3369,53.0,94.0,90.0,0.0,0.0
3370,61.0,96.0,90.0,0.0,0.0
3371,46.0,2.0,90.0,0.0,0.0
3372,65.0,96.0,90.0,0.0,0.0
3373,73.0,96.0,90.0,0.0,0.0
3374,73.0,94.0,90.0,0.0,0.0
3375,85.0,578.0,90.0,0.0,0.0
3376,61.0,96.0,90.0,0.0,0.0
3377,53.0,0.0,90.0,0.0,0.0
3378,54.0,94.0,90.0,0.0,0.0
3379,45.0,98.0,90.0,0.0,0.0
3380,61.0,96.0,90.0,0.0,0.0
3381,66.0,96.0,90.0,0.0,0.0
3382,73.0,96.0,90.0,0.0,0.0
3383,75.0,96.0,300.0,0.0,0.0
3384,44.0,96.0,90.0,0.0,0.0
3385,54.0,94.0,90.0,0.0,0.0
3386,60.0,2.0,90.0,0.0,0.0
3387,66.0,96.0,90.0,0.0,0.0
3388,68.0,94.0,90.0,0.0,0.0
3389,66.0,98.0,90.0,0.0,0.0
3390,55.0,0.0,90.0,0.0,0.0
3391,65.0,96.0,90.0,0.0,0.0
3392,56.0,94.0,90.0,0.0,0.0
3393,49.0,98.0,90.0,0.0,0.0
3394,65.0,96.0,90.0,0.0,0.0
3395,68.0,94.0,90.0,0.0,0.0
3396,77.0,98.0,90.0,0.0,0.0
3397,65.0,0.0,90.0,0.0,0.0
3398,54.0,96.0,90.0,0.0,0.0
3399,55.0,94.0,90.0,0.0,0.0
3400,49.0,98.0,90.0,0.0,0.0
3401,65.0,96.0,90.0,0.0,0.0
3402,71.0,192.0,90.0,0.0,0.0
3403,79.0,32.0,270.0,0.0,0.0
3404,54.0,64.0,90.0,0.0,0.0
3405,65.0,0.0,90.0,0.0,0.0
3406,55.0,94.0,90.0,0.0,0.0
3407,48.0,98.0,90.0,0.0,0.0
3408,64.0,96.0,90.0,0.0,0.0
3409,72.0,192.0,90.0,0.0,0.0
3410,76.0,32.0,270.0,0.0,0.0
3411,64.0,0.0,90.0,0.0,0.0
3412,53.0,64.0,90.0,0.0,0.0
3413,54.0,94.0,90.0,0.0,0.0
3414,48.0,98.0,90.0,0.0,0.0
3415,64.0,96.0,90.0,0.0,0.0
3416,70.0,192.0,90.0,0.0,0.0
3417,78.0,32.0,270.0,0.0,0.0
3418,63.0,0.0,90.0,0.0,0.0
3419,52.0,64.0,90.0,0.0,0.0
3420,54.0,94.0,90.0,0.0,0.0
3421,47.0,98.0,90.0,0.0,0.0
3422,63.0,96.0,90.0,0.0,0.0
3423,71.0,192.0,90.0,0.0,0.0
3424,75.0,32.0,270.0,0.0,0.0
3425,63.0,0.0,90.0,0.0,0.0
3426,52.0,64.0,90.0,0.0,0.0
3427,53.0,94.0,90.0,0.0,0.0
3428,47.0,98.0,90.0,0.0,0.0
3429,63.0,96.0,90.0,0.0,0.0
3430,69.0,192.0,90.0,0.0,0.0
3431,77.0,32.0,270.0,0.0,0.0
3432,62.0,64.0,90.0,0.0,0.0
3433,53.0,94.0,90.0,0.0,0.0
3434,46.0,98.0,90.0,0.0,0.0
3435,62.0,96.0,90.0,0.0,0.0
3436,70.0,192.0,90.0,0.0,0.0
3437,77.0,32.0,270.0,0.0,0.0
3438,65.0,64.0,90.0,0.0,0.0
3439,58.0,94.0,90.0,0.0,0.0
3440,50.0,98.0,90.0,0.0,0.0
3441,65.0,96.0,90.0,0.0,0.0
3442,74.0,94.0,90.0,0.0,0.0
3443,82.0,98.0,90.0,0.0,0.0
3444,66.0,96.0,90.0,0.0,0.0
3445,58.0,94.0,90.0,0.0,0.0
3446,48.0,98.0,90.0,0.0,0.0
3447,66.0,96.0,90.0,0.0,0.0
3448,75.0,94.0,90.0,0.0,0.0
3449,82.0,98.0,90.0,0.0,0.0
3450,69.0,96.0,90.0,0.0,0.0
3451,63.0,94.0,90.0,0.0,0.0
3452,53.0,98.0,90.0,0.0,0.0
3453,69.0,96.0,90.0,0.0,0.0
3454,75.0,94.0,90.0,0.0,0.0
3455,84.0,98.0,90.0,0.0,0.0
3456,72.0,96.0,90.0,0.0,0.0
3457,62.0,94.0,90.0,0.0,0.0
3458,56.0,98.0,90.0,0.0,0.0
3459,72.0,96.0,90.0,0.0,0.0
3460,77.0,94.0,90.0,0.0,0.0
3461,86.0,98.0,90.0,0.0,0.0
3462,71.0,96.0,90.0,0.0,0.0
3463,62.0,94.0,90.0,0.0,0.0
3464,55.0,98.0,90.0,0.0,0.0
3465,71.0,96.0,90.0,0.0,0.0
3466,79.0,94.0,90.0,0.0,0.0
3467,86.0,98.0,90.0,0.0,0.0
3468,75.0,96.0,90.0,0.0,0.0
3469,67.0,94.0,90.0,0.0,0.0
3470,60.0,98.0,90.0,0.0,0.0
3471,72.0,96.0,90.0,0.0,0.0
3472,79.0,94.0,90.0,0.0,0.0
3473,87.0,98.0,90.0,0.0,0.0
3474,69.0,96.0,90.0,0.0,0.0
3475,63.0,94.0,90.0,0.0,0.0
3476,53.0,98.0,90.0,0.0,0.0
3477,69.0,96.0,90.0,0.0,0.0
3478,75.0,94.0,90.0,0.0,0.0
3479,84.0,98.0,90.0,0.0,0.0
3480,74.0,96.0,90.0,0.0,0.0
3481,65.0,94.0,90.0,0.0,0.0
3482,58.0,98.0,90.0,0.0,0.0
3483,70.0,96.0,90.0,0.0,0.0
3484,74.0,94.0,90.0,0.0,0.0
3485,82.0,98.0,90.0,0.0,0.0
3486,70.0,94.0,90.0,0.0,0.0
3487,77.0,0.0,90.0,0.0,0.0
3488,62.0,98.0,90.0,0.0,0.0
3489,94.0,96.0,90.0,0.0,0.0
3490,86.0,160.0,90.0,0.0,0.0
3491,94.0,30.0,150.0,0.0,0.0
3492,82.0,98.0,90.0,0.0,0.0
3493,70.0,0.0,90.0,0.0,0.0
3494,78.0,94.0,90.0,0.0,0.0
3495,60.0,98.0,90.0,0.0,0.0
3496,94.0,96.0,90.0,0.0,0.0
3497,87.0,160.0,90.0,0.0,0.0
3498,94.0,30.0,150.0,0.0,0.0
3499,82.0,98.0,90.0,0.0,0.0
3500,81.0,0.0,90.0,0.0,0.0
3501,72.0,0.0,90.0,0.0,0.0
3502,75.0,94.0,90.0,0.0,0.0
3503,65.0,98.0,90.0,0.0,0.0
3504,96.0,96.0,90.0,0.0,0.0
3505,89.0,160.0,90.0,0.0,0.0
3506,96.0,30.0,150.0,0.0,0.0
3507,87.0,98.0,90.0,0.0,0.0
3508,77.0,0.0,90.0,0.0,0.0
3509,84.0,94.0,90.0,0.0,0.0
3510,74.0,0.0,90.0,0.0,0.0
3511,68.0,98.0,90.0,0.0,0.0
3512,98.0,96.0,90.0,0.0,0.0
3513,89.0,96.0,90.0,0.0,0.0
3514,98.0,94.0,90.0,0.0,0.0
3515,84.0,98.0,90.0,0.0,0.0
3516,74.0,0.0,90.0,0.0,0.0
3517,83.0,0.0,90.0,0.0,0.0
3518,77.0,94.0,90.0,0.0,0.0
3519,67.0,98.0,90.0,0.0,0.0
3520,98.0,96.0,90.0,0.0,0.0
3521,89.0,96.0,90.0,0.0,0.0
3522,98.0,94.0,90.0,0.0,0.0
3523,83.0,98.0,90.0,0.0,0.0
3524,82.0,0.0,90.0,0.0,0.0
3525,75.0,94.0,90.0,0.0,0.0
3526,70.0,0.0,90.0,0.0,0.0
3527,66.0,98.0,90.0,0.0,0.0
3528,99.0,96.0,90.0,0.0,0.0
3529,90.0,96.0,90.0,0.0,0.0
3530,99.0,94.0,90.0,0.0,0.0
3531,82.0,98.0,90.0,0.0,0.0
3532,81.0,0.0,90.0,0.0,0.0
3533,75.0,94.0,90.0,0.0,0.0
3534,72.0,0.0,90.0,0.0,0.0
3535,65.0,98.0,90.0,0.0,0.0
3536,96.0,96.0,90.0,0.0,0.0
3537,87.0,96.0,90.0,0.0,0.0
3538,96.0,94.0,90.0,0.0,0.0
3539,81.0,98.0,90.0,0.0,0.0
3540,74.0,94.0,90.0,0.0,0.0
3541,70.0,0.0,90.0,0.0,0.0
3542,65.0,0.0,90.0,0.0,0.0
3543,58.0,98.0,90.0,0.0,0.0
3544,89.0,0.0,90.0,0.0,0.0
3545,94.0,96.0,90.0,0.0,0.0
3546,86.0,96.0,90.0,0.0,0.0
3547,94.0,0.0,90.0,0.0,0.0
3548,89.0,94.0,90.0,0.0,0.0
3549,82.0,98.0,90.0,0.0,0.0
3550,66.0,0.0,90.0,0.0,0.0
3551,75.0,94.0,90.0,0.0,0.0
3552,58.0,98.0,90.0,0.0,0.0
3553,90.0,0.0,90.0,0.0,0.0
3554,95.0,96.0,90.0,0.0,0.0
3555,87.0,96.0,90.0,0.0,0.0
3556,95.0,0.0,90.0,0.0,0.0
3557,90.0,94.0,90.0,0.0,0.0
3558,83.0,98.0,90.0,0.0,0.0
3559,65.0,0.0,90.0,0.0,0.0
3560,74.0,94.0,90.0,0.0,0.0
3561,58.0,98.0,90.0,0.0,0.0
3562,94.0,0.0,90.0,0.0,0.0
3563,89.0,96.0,90.0,0.0,0.0
3564,86.0,96.0,90.0,0.0,0.0
3565,89.0,0.0,90.0,0.0,0.0
3566,94.0,94.0,90.0,0.0,0.0
3567,82.0,98.0,90.0,0.0,0.0
3568,73.0,0.0,90.0,0.0,0.0
3569,64.0,94.0,90.0,0.0,0.0
3570,58.0,98.0,90.0,0.0,0.0
3571,88.0,96.0,90.0,0.0,0.0
3572,93.0,0.0,90.0,0.0,0.0
3573,85.0,96.0,90.0,0.0,0.0
3574,88.0,94.0,90.0,0.0,0.0
3575,93.0,0.0,90.0,0.0,0.0
3576,81.0,98.0,90.0,0.0,0.0
3577,72.0,0.0,90.0,0.0,0.0
3578,63.0,94.0,90.0,0.0,0.0
3579,58.0,98.0,90.0,0.0,0.0
3580,92.0,96.0,90.0,0.0,0.0
3581,87.0,0.0,90.0,0.0,0.0
3582,84.0,96.0,90.0,0.0,0.0
3583,87.0,0.0,90.0,0.0,0.0
3584,92.0,94.0,90.0,0.0,0.0
3585,80.0,98.0,90.0,0.0,0.0
3586,64.0,0.0,90.0,0.0,0.0
3587,73.0,94.0,90.0,0.0,0.0
3588,58.0,98.0,90.0,0.0,0.0
3589,88.0,96.0,90.0,0.0,0.0
3590,93.0,0.0,90.0,0.0,0.0
3591,85.0,96.0,90.0,0.0,0.0
3592,93.0,0.0,90.0,0.0,0.0
3593,88.0,94.0,90.0,0.0,0.0
3594,81.0,98.0,90.0,0.0,0.0
3595,72.0,94.0,90.0,0.0,0.0
3596,63.0,0.0,90.0,0.0,0.0
3597,58.0,98.0,90.0,0.0,0.0
3598,92.0,0.0,90.0,0.0,0.0
3599,87.0,96.0,90.0,0.0,0.0
3600,84.0,96.0,90.0,0.0,0.0
3601,92.0,0.0,90.0,0.0,0.0
3602,87.0,94.0,90.0,0.0,0.0
3603,80.0,98.0,90.0,0.0,0.0
3604,63.0,0.0,90.0,0.0,0.0
3605,71.0,94.0,90.0,0.0,0.0
3606,58.0,98.0,90.0,0.0,0.0
3607,92.0,0.0,90.0,0.0,0.0
3608,87.0,96.0,90.0,0.0,0.0
3609,83.0,96.0,90.0,0.0,0.0
3610,87.0,0.0,90.0,0.0,0.0
3611,92.0,94.0,90.0,0.0,0.0
3612,80.0,50.0,90.0,0.0,0.0
3613,86.0,0.0,60.0,0.0,0.0
3614,80.0,0.0,60.0,0.0,0.0
3615,83.0,0.0,60.0,0.0,0.0
3616,58.0,0.0,60.0,0.0,0.0
3617,89.0,0.0,60.0,0.0,0.0
3618,92.0,624.0,60.0,0.0,0.0
3619,68.0,0.0,60.0,0.0,0.0
3620,65.0,0.0,60.0,0.0,0.0
3621,71.0,32.0,150.0,0.0,0.0
3622,92.0,64.0,90.0,0.0,0.0
3623,83.0,94.0,90.0,0.0,0.0
3624,77.0,2.0,90.0,0.0,0.0
3625,89.0,96.0,90.0,0.0,0.0
3626,98.0,0.0,90.0,0.0,0.0
3627,95.0,96.0,90.0,0.0,0.0
3628,89.0,94.0,90.0,0.0,0.0
3629,104.0,98.0,90.0,0.0,0.0
3630,89.0,64.0,90.0,0.0,0.0
3631,68.0,32.0,150.0,0.0,0.0
3632,80.0,94.0,90.0,0.0,0.0
3633,86.0,96.0,90.0,0.0,0.0
3634,74.0,2.0,90.0,0.0,0.0
3635,92.0,0.0,90.0,0.0,0.0
3636,95.0,96.0,90.0,0.0,0.0
3637,86.0,94.0,90.0,0.0,0.0
3638,101.0,98.0,90.0,0.0,0.0
3639,86.0,64.0,90.0,0.0,0.0
3640,65.0,32.0,150.0,0.0,0.0
3641,77.0,94.0,90.0,0.0,0.0
3642,83.0,96.0,90.0,0.0,0.0
3643,71.0,2.0,90.0,0.0,0.0
3644,89.0,0.0,90.0,0.0,0.0
3645,92.0,96.0,90.0,0.0,0.0
3646,83.0,94.0,90.0,0.0,0.0
3647,98.0,98.0,90.0,0.0,0.0
3648,83.0,64.0,90.0,0.0,0.0
3649,63.0,32.0,150.0,0.0,0.0
3650,74.0,94.0,90.0,0.0,0.0
3651,68.0,2.0,90.0,0.0,0.0
3652,80.0,96.0,90.0,0.0,0.0
3653,89.0,96.0,90.0,0.0,0.0
3654,86.0,0.0,90.0,0.0,0.0
3655,80.0,94.0,90.0,0.0,0.0
3656,95.0,98.0,90.0,0.0,0.0
3657,59.0,32.0,150.0,0.0,0.0
3658,80.0,64.0,90.0,0.0,0.0
3659,71.0,94.0,90.0,0.0,0.0
3660,65.0,2.0,90.0,0.0,0.0
3661,77.0,96.0,90.0,0.0,0.0
3662,86.0,0.0,90.0,0.0,0.0
3663,83.0,96.0,90.0,0.0,0.0
3664,77.0,94.0,90.0,0.0,0.0
3665,92.0,98.0,90.0,0.0,0.0
3666,56.0,32.0,150.0,0.0,0.0
3667,77.0,64.0,90.0,0.0,0.0
3668,68.0,94.0,90.0,0.0,0.0
3669,62.0,2.0,90.0,0.0,0.0
3670,74.0,96.0,90.0,0.0,0.0
3671,80.0,0.0,90.0,0.0,0.0
3672,83.0,96.0,90.0,0.0,0.0
3673,74.0,94.0,90.0,0.0,0.0
3674,89.0,98.0,90.0,0.0,0.0
3675,53.0,32.0,150.0,0.0,0.0
3676,74.0,64.0,90.0,0.0,0.0
3677,65.0,94.0,90.0,0.0,0.0
3678,71.0,96.0,90.0,0.0,0.0
3679,59.0,2.0,90.0,0.0,0.0
3680,80.0,96.0,90.0,0.0,0.0
3681,77.0,0.0,90.0,0.0,0.0
3682,71.0,94.0,90.0,0.0,0.0
3683,86.0,194.0,90.0,0.0,0.0
3684,68.0,30.0,270.0,0.0,0.0
3685,59.0,64.0,90.0,0.0,0.0
3686,53.0,194.0,90.0,0.0,0.0
3687,65.0,30.0,270.0,0.0,0.0
3688,71.0,64.0,90.0,0.0,0.0
3689,80.0,194.0,90.0,0.0,0.0
3690,68.0,30.0,270.0,0.0,0.0
3691,59.0,64.0,90.0,0.0,0.0
3692,52.0,194.0,90.0,0.0,0.0
3693,64.0,30.0,270.0,0.0,0.0
3694,71.0,64.0,90.0,0.0,0.0
3695,80.0,194.0,90.0,0.0,0.0
3696,68.0,30.0,270.0,0.0,0.0
3697,59.0,64.0,90.0,0.0,0.0
3698,51.0,194.0,90.0,0.0,0.0
3699,63.0,30.0,270.0,0.0,0.0
3700,71.0,64.0,90.0,0.0,0.0
3701,80.0,194.0,90.0,0.0,0.0
3702,68.0,30.0,270.0,0.0,0.0
3703,59.0,64.0,90.0,0.0,0.0
3704,50.0,194.0,90.0,0.0,0.0
3705,62.0,30.0,270.0,0.0,0.0
3706,71.0,64.0,90.0,0.0,0.0
3707,80.0,194.0,90.0,0.0,0.0
3708,68.0,30.0,270.0,0.0,0.0
3709,59.0,64.0,90.0,0.0,0.0
3710,53.0,194.0,90.0,0.0,0.0
3711,65.0,30.0,270.0,0.0,0.0
3712,71.0,64.0,90.0,0.0,0.0
3713,80.0,194.0,90.0,0.0,0.0
3714,68.0,30.0,270.0,0.0,0.0
3715,59.0,64.0,90.0,0.0,0.0
3716,52.0,194.0,90.0,0.0,0.0
3717,64.0,30.0,270.0,0.0,0.0
3718,71.0,64.0,90.0,0.0,0.0
3719,80.0,194.0,90.0,0.0,0.0
3720,68.0,30.0,270.0,0.0,0.0
3721,59.0,64.0,90.0,0.0,0.0
3722,51.0,194.0,90.0,0.0,0.0
3723,63.0,30.0,270.0,0.0,0.0
3724,71.0,64.0,90.0,0.0,0.0
3725,80.0,194.0,90.0,0.0,0.0
3726,68.0,30.0,270.0,0.0,0.0
3727,59.0,64.0,90.0,0.0,0.0
3728,50.0,194.0,90.0,0.0,0.0
3729,62.0,30.0,270.0,0.0,0.0
3730,71.0,64.0,90.0,0.0,0.0
3731,80.0,98.0,90.0,0.0,0.0
3732,54.0,0.0,90.0,0.0,0.0
3733,45.0,96.0,90.0,0.0,0.0
3734,46.0,94.0,90.0,0.0,0.0
3735,40.0,98.0,90.0,0.0,0.0
3736,57.0,96.0,90.0,0.0,0.0
3737,58.0,96.0,90.0,0.0,0.0
3738,63.0,96.0,90.0,0.0,0.0
3739,66.0,96.0,90.0,0.0,0.0
3740,59.0,0.0,180.0,0.0,0.0
3741,56.0,0.0,180.0,0.0,0.0
3742,62.0,96.0,90.0,0.0,0.0
3743,65.0,64.0,90.0,0.0,0.0
3744,54.0,0.0,150.0,0.0,0.0
3745,58.0,32.0,150.0,0.0,0.0
3746,63.0,96.0,90.0,0.0,0.0
3747,66.0,96.0,90.0,0.0,0.0
3748,70.0,94.0,90.0,0.0,0.0
3749,54.0,96.0,90.0,0.0,0.0
3750,45.0,0.0,90.0,0.0,0.0
3751,75.0,2.0,90.0,0.0,0.0
3752,46.0,94.0,90.0,0.0,0.0
3753,40.0,98.0,90.0,0.0,0.0
3754,57.0,96.0,90.0,0.0,0.0
3755,58.0,96.0,90.0,0.0,0.0
3756,63.0,96.0,90.0,0.0,0.0
3757,56.0,0.0,180.0,0.0,0.0
3758,59.0,0.0,180.0,0.0,0.0
3759,66.0,96.0,90.0,0.0,0.0
3760,62.0,96.0,90.0,0.0,0.0
3761,58.0,32.0,150.0,0.0,0.0
3762,65.0,64.0,90.0,0.0,0.0
3763,54.0,0.0,150.0,0.0,0.0
3764,63.0,96.0,90.0,0.0,0.0
3765,66.0,96.0,90.0,0.0,0.0
3766,70.0,48.0,90.0,0.0,0.0
3767,51.0,46.0,60.0,0.0,0.0
3768,78.0,194.0,90.0,0.0,0.0
3769,80.0,96.0,90.0,0.0,0.0
3770,74.0,96.0,90.0,0.0,0.0
3771,78.0,96.0,90.0,0.0,0.0
3772,75.0,48.0,90.0,0.0,0.0
3773,66.0,0.0,60.0,0.0,0.0
3774,58.0,48.0,60.0,0.0,0.0
3775,83.0,96.0,90.0,0.0,0.0
3776,77.0,48.0,90.0,0.0,0.0
3777,51.0,48.0,60.0,0.0,0.0
3778,82.0,96.0,90.0,0.0,0.0
3779,78.0,48.0,90.0,0.0,0.0
3780,89.0,96.0,90.0,0.0,0.0
3781,58.0,0.0,60.0,0.0,0.0
3782,66.0,48.0,60.0,0.0,0.0
3783,81.0,48.0,90.0,0.0,0.0
3784,87.0,96.0,90.0,0.0,0.0
3785,51.0,48.0,60.0,0.0,0.0
3786,82.0,48.0,90.0,0.0,0.0
3787,92.0,96.0,90.0,0.0,0.0
3788,66.0,0.0,60.0,0.0,0.0
3789,58.0,48.0,60.0,0.0,0.0
3790,86.0,48.0,90.0,0.0,0.0
3791,51.0,48.0,60.0,0.0,0.0
3792,90.0,96.0,90.0,0.0,0.0
3793,87.0,48.0,90.0,0.0,0.0
3794,99.0,0.0,60.0,0.0,0.0
3795,58.0,624.0,60.0,0.0,0.0
3796,66.0,0.0,60.0,0.0,0.0
3797,46.0,96.0,90.0,0.0,0.0
3798,56.0,0.0,90.0,0.0,0.0
3799,47.0,94.0,90.0,0.0,0.0
3800,39.0,98.0,90.0,0.0,0.0
3801,62.0,96.0,90.0,0.0,0.0
3802,63.0,96.0,90.0,0.0,0.0
3803,68.0,96.0,90.0,0.0,0.0
3804,61.0,0.0,180.0,0.0,0.0
3805,64.0,0.0,180.0,0.0,0.0
3806,71.0,96.0,90.0,0.0,0.0
3807,67.0,96.0,90.0,0.0,0.0
3808,70.0,64.0,90.0,0.0,0.0
3809,63.0,0.0,150.0,0.0,0.0
3810,59.0,32.0,150.0,0.0,0.0
3811,68.0,96.0,90.0,0.0,0.0
3812,71.0,96.0,90.0,0.0,0.0
3813,75.0,32.0,90.0,0.0,0.0
3814,46.0,96.0,90.0,0.0,0.0
3815,80.0,64.0,30.0,0.0,0.0
3816,56.0,0.0,90.0,0.0,0.0
3817,47.0,94.0,90.0,0.0,0.0
3818,39.0,98.0,90.0,0.0,0.0
3819,62.0,96.0,90.0,0.0,0.0
3820,63.0,96.0,90.0,0.0,0.0
3821,68.0,96.0,90.0,0.0,0.0
3822,64.0,0.0,180.0,0.0,0.0
3823,71.0,96.0,90.0,0.0,0.0
3824,61.0,0.0,180.0,0.0,0.0
3825,67.0,96.0,90.0,0.0,0.0
3826,70.0,64.0,90.0,0.0,0.0
3827,63.0,32.0,150.0,0.0,0.0
3828,59.0,0.0,150.0,0.0,0.0
3829,68.0,96.0,90.0,0.0,0.0
3830,71.0,96.0,90.0,0.0,0.0
3831,75.0,48.0,90.0,0.0,0.0
3832,51.0,46.0,60.0,0.0,0.0
3833,83.0,194.0,90.0,0.0,0.0
3834,82.0,96.0,90.0,0.0,0.0
3835,74.0,96.0,90.0,0.0,0.0
3836,80.0,96.0,90.0,0.0,0.0
3837,75.0,48.0,90.0,0.0,0.0
3838,68.0,0.0,60.0,0.0,0.0
3839,59.0,48.0,60.0,0.0,0.0
3840,85.0,96.0,90.0,0.0,0.0
3841,79.0,48.0,90.0,0.0,0.0
3842,83.0,96.0,90.0,0.0,0.0
3843,51.0,48.0,60.0,0.0,0.0
3844,80.0,48.0,90.0,0.0,0.0
3845,68.0,0.0,60.0,0.0,0.0
3846,88.0,96.0,90.0,0.0,0.0
3847,59.0,48.0,60.0,0.0,0.0
3848,82.0,48.0,90.0,0.0,0.0
3849,87.0,96.0,90.0,0.0,0.0
3850,51.0,48.0,60.0,0.0,0.0
3851,83.0,48.0,90.0,0.0,0.0
3852,94.0,96.0,90.0,0.0,0.0
3853,68.0,0.0,60.0,0.0,0.0
3854,59.0,48.0,60.0,0.0,0.0
3855,86.0,48.0,90.0,0.0,0.0
3856,92.0,96.0,90.0,0.0,0.0
3857,51.0,48.0,60.0,0.0,0.0
3858,87.0,48.0,90.0,0.0,0.0
3859,68.0,0.0,60.0,0.0,0.0
3860,59.0,112.0,60.0,0.0,0.0
3861,104.0,576.0,150.0,0.0,0.0
3862,77.0,0.0,570.0,0.0,0.0
3863,80.0,0.0,570.0,0.0,0.0
3864,94.0,96.0,180.0,0.0,0.0
3865,74.0,0.0,570.0,0.0,0.0
3866,82.0,32.0,150.0,0.0,0.0
3867,95.0,96.0,90.0,0.0,0.0
3868,83.0,0.0,540.0,0.0,0.0
3869,94.0,96.0,90.0,0.0,0.0
3870,93.0,96.0,90.0,0.0,0.0
3871,75.0,32.0,150.0,0.0,0.0
3872,92.0,96.0,15.0,0.0,0.0
3873,78.0,0.0,150.0,0.0,0.0
3874,90.0,96.0,90.0,0.0,0.0
3875,89.0,64.0,90.0,0.0,0.0
3876,70.0,32.0,150.0,0.0,0.0
3877,58.0,0.0,150.0,0.0,0.0
3878,87.0,96.0,90.0,0.0,0.0
3879,85.0,96.0,90.0,0.0,0.0
3880,83.0,48.0,90.0,0.0,0.0
3881,73.0,48.0,60.0,0.0,0.0
3882,77.0,0.0,60.0,0.0,0.0
3883,82.0,96.0,90.0,0.0,0.0
3884,83.0,48.0,90.0,0.0,0.0
3885,81.0,96.0,90.0,0.0,0.0
3886,58.0,48.0,60.0,0.0,0.0
3887,82.0,48.0,90.0,0.0,0.0
3888,71.0,48.0,60.0,0.0,0.0
3889,75.0,0.0,60.0,0.0,0.0
3890,87.0,96.0,90.0,0.0,0.0
3891,80.0,48.0,90.0,0.0,0.0
3892,70.0,0.0,60.0,0.0,0.0
3893,78.0,96.0,90.0,0.0,0.0
3894,73.0,48.0,60.0,0.0,0.0
3895,80.0,48.0,90.0,0.0,0.0
3896,77.0,96.0,90.0,0.0,0.0
3897,58.0,48.0,60.0,0.0,0.0
3898,78.0,96.0,90.0,0.0,0.0
3899,68.0,30.0,150.0,0.0,0.0
3900,83.0,64.0,90.0,0.0,0.0
3901,71.0,32.0,360.0,0.0,0.0
3902,75.0,98.0,90.0,0.0,0.0
3903,74.0,64.0,90.0,0.0,0.0
3904,65.0,48.0,330.0,0.0,0.0
3905,80.0,96.0,90.0,0.0,0.0
3906,58.0,32.0,540.0,0.0,0.0
3907,72.0,48.0,90.0,0.0,0.0
3908,73.0,96.0,90.0,0.0,0.0
3909,70.0,32.0,150.0,0.0,0.0
3910,66.0,96.0,180.0,0.0,0.0
3911,82.0,64.0,90.0,0.0,0.0
3912,78.0,0.0,90.0,0.0,0.0
3913,65.0,16.0,330.0,0.0,0.0
3914,71.0,0.0,150.0,0.0,0.0
3915,74.0,64.0,90.0,0.0,0.0
3916,78.0,96.0,90.0,0.0,0.0
3917,72.0,48.0,90.0,0.0,0.0
3918,58.0,32.0,150.0,0.0,0.0
3919,73.0,96.0,90.0,0.0,0.0
3920,82.0,64.0,90.0,0.0,0.0
3921,70.0,32.0,150.0,0.0,0.0
3922,66.0,96.0,180.0,0.0,0.0
3923,78.0,0.0,90.0,0.0,0.0
3924,69.0,0.0,150.0,0.0,0.0
3925,63.0,16.0,330.0,0.0,0.0
3926,72.0,64.0,90.0,0.0,0.0
3927,78.0,96.0,90.0,0.0,0.0
3928,70.0,48.0,90.0,0.0,0.0
3929,58.0,32.0,150.0,0.0,0.0
3930,71.0,96.0,90.0,0.0,0.0
3931,68.0,32.0,150.0,0.0,0.0
3932,80.0,64.0,90.0,0.0,0.0
3933,65.0,0.0,180.0,0.0,0.0
3934,77.0,96.0,90.0,0.0,0.0
3935,71.0,64.0,90.0,0.0,0.0
3936,62.0,48.0,330.0,0.0,0.0
3937,77.0,96.0,90.0,0.0,0.0
3938,69.0,48.0,90.0,0.0,0.0
3939,58.0,0.0,480.0,0.0,0.0
3940,70.0,96.0,90.0,0.0,0.0
3941,66.0,30.0,150.0,0.0,0.0
3942,63.0,94.0,180.0,0.0,0.0
3943,78.0,64.0,90.0,0.0,0.0
3944,75.0,2.0,90.0,0.0,0.0
3945,62.0,146.0,90.0,0.0,0.0
3946,68.0,0.0,90.0,0.0,0.0
3947,70.0,0.0,90.0,0.0,0.0
3948,34.0,0.0,60.0,0.0,0.0
3949,71.0,96.0,90.0,0.0,0.0
3950,46.0,48.0,60.0,0.0,0.0
3951,70.0,96.0,90.0,0.0,0.0
3952,69.0,96.0,90.0,0.0,0.0
3953,68.0,48.0,90.0,0.0,0.0
3954,51.0,0.0,60.0,0.0,0.0
3955,59.0,48.0,60.0,0.0,0.0
3956,54.0,0.0,60.0,0.0,0.0
3957,68.0,96.0,90.0,0.0,0.0
3958,66.0,48.0,90.0,0.0,0.0
3959,46.0,0.0,60.0,0.0,0.0
3960,65.0,96.0,90.0,0.0,0.0
3961,34.0,48.0,60.0,0.0,0.0
3962,63.0,96.0,90.0,0.0,0.0
3963,61.0,96.0,90.0,0.0,0.0
3964,59.0,48.0,90.0,0.0,0.0
3965,49.0,0.0,60.0,0.0,0.0
3966,53.0,48.0,60.0,0.0,0.0
3967,58.0,96.0,90.0,0.0,0.0
3968,59.0,48.0,90.0,0.0,0.0
3969,57.0,96.0,90.0,0.0,0.0
3970,34.0,48.0,60.0,0.0,0.0
3971,58.0,48.0,90.0,0.0,0.0
3972,51.0,0.0,60.0,0.0,0.0
3973,63.0,96.0,90.0,0.0,0.0
3974,47.0,48.0,60.0,0.0,0.0
3975,57.0,48.0,90.0,0.0,0.0
3976,46.0,48.0,60.0,0.0,0.0
3977,49.0,0.0,60.0,0.0,0.0
3978,54.0,96.0,90.0,0.0,0.0
3979,56.0,48.0,90.0,0.0,0.0
3980,53.0,96.0,90.0,0.0,0.0
3981,34.0,48.0,60.0,0.0,0.0
3982,54.0,96.0,90.0,0.0,0.0
3983,59.0,64.0,90.0,0.0,0.0
3984,44.0,30.0,150.0,0.0,0.0
3985,47.0,32.0,1500.0,0.0,0.0
3986,51.0,98.0,90.0,0.0,0.0
3987,41.0,48.0,900.0,0.0,0.0
3988,50.0,96.0,90.0,0.0,0.0
3989,53.0,96.0,90.0,0.0,0.0
3990,56.0,96.0,90.0,0.0,0.0
3991,59.0,96.0,90.0,0.0,0.0
3992,62.0,96.0,90.0,0.0,0.0
3993,65.0,96.0,90.0,0.0,0.0
3994,67.0,96.0,90.0,0.0,0.0
3995,68.0,96.0,90.0,0.0,0.0
3996,69.0,48.0,90.0,0.0,0.0
3997,70.0,96.0,90.0,0.0,0.0
3998,39.0,32.0,150.0,0.0,0.0
3999,71.0,64.0,90.0,0.0,0.0
4000,66.0,94.0,90.0,0.0,0.0
4001,65.0,66.0,90.0,0.0,0.0
4002,38.0,0.0,150.0,0.0,0.0
4003,68.0,96.0,90.0,0.0,0.0
4004,77.0,0.0,90.0,0.0,0.0
4005,80.0,96.0,90.0,0.0,0.0
4006,74.0,96.0,90.0,0.0,0.0
4007,71.0,96.0,90.0,0.0,0.0
4008,69.0,96.0,90.0,0.0,0.0
4009,68.0,96.0,90.0,0.0,0.0
4010,67.0,48.0,90.0,0.0,0.0
4011,66.0,96.0,90.0,0.0,0.0
4012,59.0,48.0,60.0,0.0,0.0
4013,65.0,48.0,90.0,0.0,0.0
4014,64.0,94.0,90.0,0.0,0.0
4015,59.0,48.0,60.0,0.0,0.0
4016,63.0,98.0,90.0,0.0,0.0
4017,59.0,0.0,1260.0,0.0,0.0
4018,53.0,0.0,960.0,0.0,0.0
4019,62.0,96.0,90.0,0.0,0.0
4020,65.0,96.0,90.0,0.0,0.0
4021,68.0,96.0,90.0,0.0,0.0
4022,71.0,96.0,90.0,0.0,0.0
4023,74.0,96.0,90.0,0.0,0.0
4024,77.0,96.0,90.0,0.0,0.0
4025,79.0,96.0,90.0,0.0,0.0
4026,80.0,96.0,90.0,0.0,0.0
4027,81.0,96.0,90.0,0.0,0.0
4028,82.0,96.0,90.0,0.0,0.0
4029,51.0,32.0,180.0,0.0,0.0
4030,83.0,96.0,90.0,0.0,0.0
4031,78.0,0.0,90.0,0.0,0.0
4032,50.0,146.0,90.0,0.0,0.0
4033,77.0,62.0,30.0,0.0,0.0
4034,80.0,0.0,60.0,0.0,0.0
4035,52.0,192.0,60.0,0.0,0.0
4036,86.0,0.0,60.0,0.0,0.0
4037,83.0,0.0,60.0,0.0,0.0
4038,74.0,0.0,60.0,0.0,0.0
4039,64.0,0.0,60.0,0.0,0.0
4040,63.0,0.0,60.0,0.0,0.0
4041,87.0,0.0,60.0,0.0,0.0
4042,80.0,0.0,60.0,0.0,0.0
4043,83.0,304.0,60.0,0.0,0.0
4044,75.0,0.0,60.0,0.0,0.0
4045,51.0,0.0,60.0,0.0,0.0
4046,80.0,0.0,150.0,0.0,0.0
4047,89.0,0.0,150.0,0.0,0.0
4048,83.0,0.0,150.0,0.0,0.0
4049,77.0,0.0,150.0,0.0,0.0
4050,50.0,224.0,150.0,0.0,0.0
4051,62.0,0.0,150.0,0.0,0.0
4052,59.0,160.0,180.0,0.0,0.0
4053,47.0,0.0,180.0,0.0,0.0
4054,38.0,0.0,150.0,0.0,0.0
4055,50.0,992.0,150.0,0.0,0.0
4056,39.0,0.0,1500.0,0.0,0.0
4057,51.0,0.0,1500.0,0.0,0.0
4058,78.0,160.0,180.0,0.0,0.0
4059,66.0,0.0,180.0,0.0,0.0
4060,71.0,0.0,15.0,0.0,0.0
4061,66.0,0.0,150.0,0.0,0.0
4062,59.0,224.0,150.0,0.0,0.0
4063,65.0,0.0,330.0,0.0,0.0
4064,59.0,16.0,330.0,0.0,0.0
4065,70.0,144.0,180.0,0.0,0.0
4066,68.0,192.0,150.0,0.0,0.0
4067,38.0,224.0,150.0,0.0,0.0
4068,50.0,0.0,150.0,0.0,0.0
4069,49.0,0.0,180.0,0.0,0.0
4070,61.0,192.0,180.0,0.0,0.0
4071,47.0,160.0,180.0,0.0,0.0
4072,59.0,0.0,180.0,0.0,0.0
4073,38.0,0.0,150.0,0.0,0.0
4074,50.0,608.0,150.0,0.0,0.0
4075,39.0,96.0,1680.0,0.0,0.0
4076,51.0,0.0,1680.0,0.0,0.0
4077,71.0,0.0,390.0,0.0,0.0
4078,68.0,0.0,180.0,0.0,0.0
4079,80.0,192.0,180.0,0.0,0.0
4080,79.0,0.0,180.0,0.0,0.0
4081,67.0,192.0,180.0,0.0,0.0
4082,71.0,0.0,180.0,0.0,0.0
4083,78.0,160.0,180.0,0.0,0.0
4084,66.0,0.0,180.0,0.0,0.0
4085,59.0,0.0,150.0,0.0,0.0
4086,71.0,368.0,150.0,0.0,0.0
4087,66.0,0.0,150.0,0.0,0.0
4088,65.0,0.0,1110.0,0.0,0.0
4089,59.0,16.0,1110.0,0.0,0.0
4090,70.0,192.0,330.0,0.0,0.0
4091,68.0,0.0,720.0,0.0,0.0
4092,51.0,0.0,60.0,0.0,0.0
4093,39.0,336.0,60.0,0.0,0.0
4094,51.0,0.0,180.0,0.0,0.0
4095,39.0,144.0,180.0,0.0,0.0
4096,50.0,0.0,150.0,0.0,0.0
4097,38.0,224.0,150.0,0.0,0.0
4098,39.0,0.0,540.0,0.0,0.0
4099,63.0,0.0,330.0,0.0,0.0
4100,51.0,96.0,540.0,0.0,0.0
4101,58.0,16.0,330.0,0.0,0.0
4102,68.0,144.0,180.0,0.0,0.0
4103,66.0,176.0,150.0,0.0,0.0
4104,39.0,0.0,60.0,0.0,0.0
4105,51.0,336.0,60.0,0.0,0.0
4106,51.0,0.0,180.0,0.0,0.0
4107,39.0,160.0,180.0,0.0,0.0
4108,50.0,0.0,150.0,0.0,0.0
4109,38.0,224.0,150.0,0.0,0.0
4110,63.0,0.0,330.0,0.0,0.0
4111,58.0,16.0,330.0,0.0,0.0
4112,51.0,0.0,540.0,0.0,0.0
4113,39.0,240.0,540.0,0.0,0.0
4114,68.0,144.0,180.0,0.0,0.0
4115,66.0,176.0,150.0,0.0,0.0
4116,39.0,0.0,180.0,0.0,0.0
4117,51.0,192.0,180.0,0.0,0.0
4118,41.0,160.0,180.0,0.0,0.0
4119,53.0,0.0,180.0,0.0,0.0
4120,42.0,416.0,150.0,0.0,0.0
4121,54.0,0.0,150.0,0.0,0.0
4122,63.0,16.0,540.0,0.0,0.0
4123,32.0,0.0,540.0,0.0,0.0
4124,66.0,144.0,390.0,0.0,0.0
4125,44.0,0.0,540.0,0.0,0.0
4126,59.0,0.0,540.0,0.0,0.0
4127,65.0,1344.0,150.0,0.0,0.0
4128,68.0,0.0,2070.0,0.0,0.0
4129,80.0,240.0,2070.0,0.0,0.0
4130,78.0,0.0,150.0,0.0,0.0
4131,66.0,192.0,150.0,0.0,0.0
4132,77.0,0.0,150.0,0.0,0.0
4133,65.0,192.0,150.0,0.0,0.0
4134,63.0,0.0,150.0,0.0,0.0
4135,75.0,368.0,150.0,0.0,0.0
4136,65.0,0.0,330.0,0.0,0.0
4137,77.0,0.0,330.0,0.0,0.0
4138,59.0,0.0,180.0,0.0,0.0
4139,75.0,1312.0,180.0,0.0,0.0
4140,68.0,0.0,180.0,0.0,0.0
4141,47.0,0.0,180.0,0.0,0.0
4142,68.0,208.0,2070.0,0.0,0.0
4143,80.0,0.0,2070.0,0.0,0.0
4144,66.0,192.0,150.0,0.0,0.0
4145,78.0,0.0,150.0,0.0,0.0
4146,65.0,0.0,150.0,0.0,0.0
4147,77.0,192.0,150.0,0.0,0.0
4148,63.0,368.0,150.0,0.0,0.0
4149,75.0,0.0,150.0,0.0,0.0
4150,77.0,0.0,330.0,0.0,0.0
4151,65.0,0.0,330.0,0.0,0.0
4152,47.0,0.0,150.0,0.0,0.0
4153,68.0,560.0,150.0,0.0,0.0
4154,59.0,0.0,150.0,0.0,0.0
4155,75.0,208.0,1110.0,0.0,0.0
4156,80.0,48.0,540.0,0.0,0.0
4157,68.0,0.0,570.0,0.0,0.0
4158,56.0,160.0,570.0,0.0,0.0
4159,65.0,176.0,150.0,0.0,0.0
4160,77.0,0.0,330.0,0.0,0.0
4161,63.0,0.0,150.0,0.0,0.0
4162,70.0,560.0,150.0,0.0,0.0
4163,47.0,0.0,150.0,0.0,0.0
4164,59.0,0.0,150.0,0.0,0.0
4165,75.0,0.0,1110.0,0.0,0.0
4166,81.0,48.0,540.0,0.0,0.0
4167,69.0,0.0,570.0,0.0,0.0
4168,57.0,160.0,570.0,0.0,0.0
4169,77.0,208.0,330.0,0.0,0.0
4170,63.0,0.0,150.0,0.0,0.0
4171,65.0,176.0,150.0,0.0,0.0
4172,46.0,0.0,150.0,0.0,0.0
4173,75.0,48.0,720.0,0.0,0.0
4174,70.0,560.0,150.0,0.0,0.0
4175,58.0,0.0,150.0,0.0,0.0
4176,58.0,0.0,750.0,0.0,0.0
4177,82.0,0.0,570.0,0.0,0.0
4178,70.0,160.0,570.0,0.0,0.0
4179,83.0,0.0,150.0,0.0,0.0
4180,80.0,0.0,150.0,0.0,0.0
4181,71.0,0.0,150.0,0.0,0.0
4182,65.0,0.0,150.0,0.0,0.0
4183,77.0,0.0,150.0,0.0,0.0
4184,74.0,0.0,150.0,0.0,0.0
4185,68.0,576.0,150.0,0.0,0.0
4186,62.0,0.0,150.0,0.0,0.0
4187,46.0,0.0,150.0,0.0,0.0
4188,74.0,576.0,150.0,0.0,0.0
4189,58.0,0.0,150.0,0.0,0.0
4190,68.0,0.0,150.0,0.0,0.0
4191,51.0,0.0,150.0,0.0,0.0
4192,39.0,464.0,150.0,0.0,0.0
4193,42.0,46.0,60.0,0.0,0.0
4194,30.0,0.0,60.0,0.0,0.0
4195,53.0,96.0,90.0,0.0,0.0
4196,54.0,96.0,90.0,0.0,0.0
4197,46.0,30.0,150.0,0.0,0.0
4198,66.0,66.0,90.0,0.0,0.0
4199,51.0,0.0,150.0,0.0,0.0
4200,58.0,96.0,90.0,0.0,0.0
4201,63.0,96.0,90.0,0.0,0.0
4202,54.0,50.0,90.0,0.0,0.0
4203,29.0,0.0,60.0,0.0,0.0
4204,41.0,46.0,60.0,0.0,0.0
4205,55.0,96.0,90.0,0.0,0.0
4206,56.0,96.0,90.0,0.0,0.0
4207,47.0,30.0,150.0,0.0,0.0
4208,68.0,66.0,90.0,0.0,0.0
4209,51.0,0.0,150.0,0.0,0.0
4210,59.0,96.0,90.0,0.0,0.0
4211,63.0,96.0,90.0,0.0,0.0
4212,56.0,50.0,90.0,0.0,0.0
4213,46.0,0.0,60.0,0.0,0.0
4214,34.0,46.0,60.0,0.0,0.0
4215,57.0,96.0,90.0,0.0,0.0
4216,58.0,96.0,90.0,0.0,0.0
4217,56.0,0.0,150.0,0.0,0.0
4218,50.0,30.0,150.0,0.0,0.0
4219,70.0,66.0,90.0,0.0,0.0
4220,62.0,96.0,90.0,0.0,0.0
4221,65.0,96.0,90.0,0.0,0.0
4222,58.0,50.0,90.0,0.0,0.0
4223,39.0,0.0,60.0,0.0,0.0
4224,62.0,96.0,90.0,0.0,0.0
4225,51.0,46.0,60.0,0.0,0.0
4226,63.0,96.0,90.0,0.0,0.0
4227,75.0,96.0,90.0,0.0,0.0
4228,58.0,46.0,330.0,0.0,0.0
4229,54.0,0.0,330.0,0.0,0.0
4230,66.0,96.0,90.0,0.0,0.0
4231,70.0,50.0,90.0,0.0,0.0
4232,63.0,50.0,90.0,0.0,0.0
4233,54.0,0.0,60.0,0.0,0.0
4234,65.0,96.0,90.0,0.0,0.0
4235,42.0,46.0,60.0,0.0,0.0
4236,66.0,96.0,90.0,0.0,0.0
4237,78.0,96.0,90.0,0.0,0.0
4238,63.0,0.0,330.0,0.0,0.0
4239,58.0,46.0,330.0,0.0,0.0
4240,70.0,96.0,90.0,0.0,0.0
4241,75.0,50.0,90.0,0.0,0.0
4242,66.0,50.0,90.0,0.0,0.0
4243,53.0,0.0,60.0,0.0,0.0
4244,41.0,46.0,60.0,0.0,0.0
4245,67.0,96.0,90.0,0.0,0.0
4246,68.0,96.0,90.0,0.0,0.0
4247,59.0,0.0,330.0,0.0,0.0
4248,80.0,96.0,90.0,0.0,0.0
4249,63.0,46.0,330.0,0.0,0.0
4250,71.0,96.0,90.0,0.0,0.0
4251,75.0,50.0,90.0,0.0,0.0
4252,68.0,50.0,90.0,0.0,0.0
4253,58.0,46.0,60.0,0.0,0.0
4254,69.0,96.0,90.0,0.0,0.0
4255,46.0,0.0,60.0,0.0,0.0
4256,70.0,96.0,90.0,0.0,0.0
4257,82.0,96.0,90.0,0.0,0.0
4258,68.0,46.0,330.0,0.0,0.0
4259,62.0,0.0,330.0,0.0,0.0
4260,74.0,96.0,90.0,0.0,0.0
4261,77.0,50.0,90.0,0.0,0.0
4262,70.0,50.0,90.0,0.0,0.0
4263,74.0,96.0,90.0,0.0,0.0
4264,63.0,46.0,60.0,0.0,0.0
4265,51.0,0.0,60.0,0.0,0.0
4266,75.0,96.0,90.0,0.0,0.0
4267,70.0,46.0,330.0,0.0,0.0
4268,66.0,0.0,330.0,0.0,0.0
4269,87.0,96.0,90.0,0.0,0.0
4270,78.0,96.0,90.0,0.0,0.0
4271,82.0,50.0,90.0,0.0,0.0
4272,75.0,50.0,90.0,0.0,0.0
4273,66.0,46.0,60.0,0.0,0.0
4274,54.0,0.0,60.0,0.0,0.0
4275,77.0,96.0,90.0,0.0,0.0
4276,78.0,96.0,90.0,0.0,0.0
4277,75.0,0.0,330.0,0.0,0.0
4278,90.0,96.0,90.0,0.0,0.0
4279,70.0,46.0,330.0,0.0,0.0
4280,82.0,96.0,90.0,0.0,0.0
4281,87.0,50.0,90.0,0.0,0.0
4282,78.0,50.0,90.0,0.0,0.0
4283,53.0,46.0,60.0,0.0,0.0
4284,79.0,96.0,90.0,0.0,0.0
4285,65.0,0.0,60.0,0.0,0.0
4286,80.0,96.0,90.0,0.0,0.0
4287,71.0,46.0,330.0,0.0,0.0
4288,75.0,0.0,330.0,0.0,0.0
4289,92.0,96.0,90.0,0.0,0.0
4290,83.0,96.0,90.0,0.0,0.0
4291,87.0,50.0,90.0,0.0,0.0
4292,80.0,50.0,90.0,0.0,0.0
4293,58.0,0.0,60.0,0.0,0.0
4294,81.0,96.0,90.0,0.0,0.0
4295,70.0,46.0,60.0,0.0,0.0
4296,82.0,96.0,90.0,0.0,0.0
4297,74.0,0.0,330.0,0.0,0.0
4298,94.0,96.0,90.0,0.0,0.0
4299,80.0,46.0,330.0,0.0,0.0
4300,86.0,96.0,90.0,0.0,0.0
4301,89.0,50.0,90.0,0.0,0.0
4302,82.0,96.0,90.0,0.0,0.0
4303,75.0,0.0,540.0,0.0,0.0
4304,83.0,0.0,540.0,0.0,0.0
4305,77.0,0.0,540.0,0.0,0.0
4306,80.0,46.0,540.0,0.0,0.0
4307,86.0,96.0,90.0,0.0,0.0
4308,71.0,0.0,540.0,0.0,0.0
4309,87.0,96.0,90.0,0.0,0.0
4310,99.0,96.0,90.0,0.0,0.0
4311,90.0,96.0,90.0,0.0,0.0
4312,94.0,50.0,90.0,0.0,0.0
4313,87.0,96.0,90.0,0.0,0.0
4314,71.0,0.0,540.0,0.0,0.0
4315,83.0,0.0,540.0,0.0,0.0
4316,75.0,0.0,540.0,0.0,0.0
4317,80.0,46.0,540.0,0.0,0.0
4318,77.0,0.0,540.0,0.0,0.0
4319,86.0,96.0,90.0,0.0,0.0
4320,87.0,96.0,90.0,0.0,0.0
4321,99.0,96.0,90.0,0.0,0.0
4322,90.0,96.0,90.0,0.0,0.0
4323,94.0,50.0,90.0,0.0,0.0
4324,87.0,96.0,90.0,0.0,0.0
4325,77.0,46.0,540.0,0.0,0.0
4326,80.0,0.0,540.0,0.0,0.0
4327,83.0,0.0,540.0,0.0,0.0
4328,71.0,0.0,540.0,0.0,0.0
4329,86.0,96.0,90.0,0.0,0.0
4330,75.0,0.0,540.0,0.0,0.0
4331,87.0,96.0,90.0,0.0,0.0
4332,99.0,96.0,90.0,0.0,0.0
4333,90.0,96.0,90.0,0.0,0.0
4334,94.0,50.0,90.0,0.0,0.0
4335,87.0,96.0,90.0,0.0,0.0
4336,86.0,96.0,90.0,0.0,0.0
4337,75.0,46.0,540.0,0.0,0.0
4338,83.0,0.0,540.0,0.0,0.0
4339,77.0,0.0,540.0,0.0,0.0
4340,80.0,0.0,540.0,0.0,0.0
4341,71.0,0.0,540.0,0.0,0.0
4342,87.0,96.0,90.0,0.0,0.0
4343,99.0,96.0,90.0,0.0,0.0
4344,90.0,96.0,90.0,0.0,0.0
4345,94.0,50.0,90.0,0.0,0.0
4346,87.0,96.0,90.0,0.0,0.0
4347,86.0,66.0,90.0,0.0,0.0
4348,81.0,30.0,150.0,0.0,0.0
4349,84.0,0.0,150.0,0.0,0.0
4350,72.0,0.0,150.0,0.0,0.0
4351,77.0,0.0,150.0,0.0,0.0
4352,75.0,0.0,150.0,0.0,0.0
4353,87.0,96.0,90.0,0.0,0.0
4354,99.0,96.0,90.0,0.0,0.0
4355,96.0,96.0,90.0,0.0,0.0
4356,93.0,96.0,90.0,0.0,0.0
4357,89.0,96.0,90.0,0.0,0.0
4358,87.0,66.0,90.0,0.0,0.0
4359,65.0,0.0,150.0,0.0,0.0
4360,77.0,30.0,150.0,0.0,0.0
4361,84.0,96.0,90.0,0.0,0.0
4362,81.0,96.0,90.0,0.0,0.0
4363,77.0,96.0,90.0,0.0,0.0
4364,87.0,96.0,90.0,0.0,0.0
4365,84.0,96.0,90.0,0.0,0.0
4366,53.0,30.0,150.0,0.0,0.0
4367,65.0,0.0,150.0,0.0,0.0
4368,81.0,66.0,90.0,0.0,0.0
4369,77.0,96.0,90.0,0.0,0.0
4370,75.0,96.0,90.0,0.0,0.0
4371,72.0,96.0,90.0,0.0,0.0
4372,70.0,96.0,90.0,0.0,0.0
4373,65.0,96.0,90.0,0.0,0.0
4374,63.0,66.0,90.0,0.0,0.0
4375,53.0,30.0,150.0,0.0,0.0
4376,41.0,0.0,150.0,0.0,0.0
4377,60.0,96.0,90.0,0.0,0.0
4378,57.0,96.0,90.0,0.0,0.0
4379,53.0,96.0,90.0,0.0,0.0
4380,51.0,96.0,90.0,0.0,0.0
4381,48.0,96.0,90.0,0.0,0.0
4382,40.0,0.0,90.0,0.0,0.0
4383,52.0,96.0,90.0,0.0,0.0
4384,41.0,96.0,90.0,0.0,0.0
4385,53.0,0.0,90.0,0.0,0.0
4386,52.0,96.0,90.0,0.0,0.0
4387,53.0,96.0,90.0,0.0,0.0
4388,52.0,96.0,90.0,0.0,0.0
4389,53.0,96.0,90.0,0.0,0.0
4390,54.0,0.0,90.0,0.0,0.0
4391,42.0,96.0,90.0,0.0,0.0
4392,53.0,0.0,90.0,0.0,0.0
4393,41.0,96.0,90.0,0.0,0.0
4394,54.0,96.0,90.0,0.0,0.0
4395,53.0,96.0,90.0,0.0,0.0
4396,54.0,96.0,90.0,0.0,0.0
4397,53.0,96.0,90.0,0.0,0.0
4398,40.0,96.0,90.0,0.0,0.0
4399,52.0,0.0,90.0,0.0,0.0
4400,53.0,0.0,90.0,0.0,0.0
4401,41.0,96.0,90.0,0.0,0.0
4402,52.0,96.0,90.0,0.0,0.0
4403,53.0,96.0,90.0,0.0,0.0
4404,52.0,96.0,90.0,0.0,0.0
4405,53.0,96.0,90.0,0.0,0.0
4406,42.0,0.0,90.0,0.0,0.0
4407,54.0,96.0,90.0,0.0,0.0
4408,53.0,96.0,90.0,0.0,0.0
4409,41.0,0.0,90.0,0.0,0.0
4410,54.0,96.0,90.0,0.0,0.0
4411,53.0,96.0,90.0,0.0,0.0
4412,54.0,96.0,90.0,0.0,0.0
4413,53.0,162.0,90.0,0.0,0.0
4414,34.0,1184.0,150.0,0.0,0.0
4415,46.0,0.0,150.0,0.0,0.0
4416,83.0,0.0,780.0,0.0,0.0
4417,69.0,0.0,15.0,0.0,0.0
4418,58.0,192.0,15.0,0.0,0.0
4419,90.0,0.0,15.0,0.0,0.0
4420,71.0,0.0,15.0,0.0,0.0
4421,95.0,0.0,15.0,0.0,0.0
4422,81.0,0.0,15.0,0.0,0.0
4423,66.0,0.0,15.0,0.0,0.0
4424,63.0,0.0,15.0,0.0,0.0
4425,87.0,0.0,15.0,0.0,0.0
4426,71.0,0.0,15.0,0.0,0.0
4427,66.0,0.0,15.0,0.0,0.0
4428,63.0,0.0,15.0,0.0,0.0
4429,95.0,0.0,15.0,0.0,0.0
4430,83.0,0.0,15.0,0.0,0.0
4431,87.0,0.0,15.0,0.0,0.0
4432,69.0,0.0,15.0,0.0,0.0
4433,81.0,192.0,15.0,0.0,0.0
4434,58.0,0.0,15.0,0.0,0.0
4435,90.0,0.0,15.0,0.0,0.0
4436,95.0,0.0,15.0,0.0,0.0
4437,87.0,0.0,15.0,0.0,0.0
4438,90.0,0.0,15.0,0.0,0.0
4439,71.0,0.0,15.0,0.0,0.0
4440,63.0,0.0,15.0,0.0,0.0
4441,66.0,0.0,15.0,0.0,0.0
4442,69.0,0.0,15.0,0.0,0.0
4443,81.0,192.0,15.0,0.0,0.0
4444,58.0,0.0,15.0,0.0,0.0
4445,81.0,0.0,15.0,0.0,0.0
4446,63.0,192.0,15.0,0.0,0.0
4447,58.0,0.0,15.0,0.0,0.0
4448,66.0,0.0,15.0,0.0,0.0
4449,71.0,0.0,15.0,0.0,0.0
4450,83.0,0.0,15.0,0.0,0.0
4451,95.0,0.0,15.0,0.0,0.0
4452,87.0,0.0,15.0,0.0,0.0
4453,69.0,0.0,15.0,0.0,0.0
4454,90.0,0.0,15.0,0.0,0.0
4455,95.0,0.0,15.0,0.0,0.0
4456,71.0,0.0,15.0,0.0,0.0
4457,83.0,0.0,15.0,0.0,0.0
4458,58.0,192.0,15.0,0.0,0.0
4459,90.0,0.0,15.0,0.0,0.0
4460,81.0,0.0,15.0,0.0,0.0
4461,69.0,0.0,15.0,0.0,0.0
4462,66.0,0.0,15.0,0.0,0.0
4463,63.0,0.0,15.0,0.0,0.0
4464,87.0,0.0,15.0,0.0,0.0
4465,66.0,0.0,15.0,0.0,0.0
4466,81.0,576.0,15.0,0.0,0.0
4467,63.0,0.0,15.0,0.0,0.0
4468,87.0,0.0,15.0,0.0,0.0
4469,83.0,0.0,15.0,0.0,0.0
4470,71.0,0.0,15.0,0.0,0.0
4471,95.0,0.0,15.0,0.0,0.0
4472,90.0,0.0,15.0,0.0,0.0
4473,69.0,0.0,15.0,0.0,0.0
4474,58.0,0.0,15.0,0.0,0.0
4475,95.0,0.0,15.0,0.0,0.0
4476,66.0,0.0,15.0,0.0,0.0
4477,63.0,0.0,15.0,0.0,0.0
4478,71.0,0.0,15.0,0.0,0.0
4479,87.0,0.0,15.0,0.0,0.0
4480,83.0,576.0,15.0,0.0,0.0
4481,69.0,0.0,15.0,0.0,0.0
4482,90.0,0.0,15.0,0.0,0.0
4483,81.0,0.0,15.0,0.0,0.0
4484,58.0,0.0,15.0,0.0,0.0
4485,83.0,0.0,15.0,0.0,0.0
4486,87.0,0.0,15.0,0.0,0.0
4487,58.0,0.0,15.0,0.0,0.0
4488,71.0,0.0,15.0,0.0,0.0
4489,69.0,0.0,15.0,0.0,0.0
4490,66.0,0.0,15.0,0.0,0.0
4491,63.0,0.0,15.0,0.0,0.0
4492,95.0,0.0,15.0,0.0,0.0
4493,90.0,0.0,15.0,0.0,0.0
4494,81.0,576.0,15.0,0.0,0.0
4495,92.0,0.0,390.0,0.0,0.0
4496,58.0,0.0,15.0,0.0,0.0
4497,70.0,0.0,390.0,0.0,0.0
4498,65.0,240.0,390.0,0.0,0.0
4499,94.0,0.0,390.0,0.0,0.0
4500,86.0,0.0,390.0,0.0,0.0
4501,68.0,0.0,390.0,0.0,0.0
4502,89.0,0.0,390.0,0.0,0.0
4503,98.0,0.0,390.0,0.0,0.0
4504,62.0,0.0,390.0,0.0,0.0
4505,99.0,0.0,60.0,0.0,0.0
4506,90.0,112.0,60.0,0.0,0.0
4507,87.0,0.0,60.0,0.0,0.0
4508,27.0,126.0,150.0,0.0,0.0
4509,99.0,0.0,90.0,0.0,0.0
4510,102.0,96.0,90.0,0.0,0.0
4511,94.0,96.0,90.0,0.0,0.0
4512,102.0,0.0,90.0,0.0,0.0
4513,99.0,96.0,90.0,0.0,0.0
4514,89.0,50.0,90.0,0.0,0.0
4515,46.0,0.0,60.0,0.0,0.0
4516,54.0,46.0,60.0,0.0,0.0
4517,94.0,0.0,90.0,0.0,0.0
4518,99.0,96.0,90.0,0.0,0.0
4519,90.0,50.0,90.0,0.0,0.0
4520,39.0,46.0,60.0,0.0,0.0
4521,94.0,0.0,90.0,0.0,0.0
4522,99.0,96.0,90.0,0.0,0.0
4523,86.0,50.0,90.0,0.0,0.0
4524,54.0,0.0,60.0,0.0,0.0
4525,46.0,46.0,60.0,0.0,0.0
4526,90.0,96.0,90.0,0.0,0.0
4527,94.0,0.0,90.0,0.0,0.0
4528,87.0,50.0,90.0,0.0,0.0
4529,94.0,0.0,90.0,0.0,0.0
4530,39.0,46.0,60.0,0.0,0.0
4531,90.0,96.0,90.0,0.0,0.0
4532,81.0,50.0,90.0,0.0,0.0
4533,54.0,46.0,60.0,0.0,0.0
4534,87.0,0.0,90.0,0.0,0.0
4535,46.0,0.0,60.0,0.0,0.0
4536,90.0,96.0,90.0,0.0,0.0
4537,82.0,50.0,90.0,0.0,0.0
4538,39.0,46.0,60.0,0.0,0.0
4539,90.0,0.0,90.0,0.0,0.0
4540,87.0,96.0,90.0,0.0,0.0
4541,77.0,50.0,90.0,0.0,0.0
4542,87.0,0.0,90.0,0.0,0.0
4543,46.0,46.0,60.0,0.0,0.0
4544,82.0,96.0,90.0,0.0,0.0
4545,54.0,0.0,60.0,0.0,0.0
4546,78.0,50.0,90.0,0.0,0.0
4547,39.0,46.0,60.0,0.0,0.0
4548,87.0,96.0,90.0,0.0,0.0
4549,82.0,0.0,90.0,0.0,0.0
4550,74.0,50.0,90.0,0.0,0.0
4551,54.0,46.0,60.0,0.0,0.0
4552,82.0,0.0,90.0,0.0,0.0
4553,46.0,0.0,60.0,0.0,0.0
4554,78.0,96.0,90.0,0.0,0.0
4555,75.0,50.0,90.0,0.0,0.0
4556,78.0,0.0,90.0,0.0,0.0
4557,39.0,46.0,60.0,0.0,0.0
4558,82.0,96.0,90.0,0.0,0.0
4559,69.0,50.0,90.0,0.0,0.0
4560,54.0,0.0,60.0,0.0,0.0
4561,78.0,0.0,90.0,0.0,0.0
4562,46.0,46.0,60.0,0.0,0.0
4563,75.0,96.0,90.0,0.0,0.0
4564,70.0,50.0,90.0,0.0,0.0
4565,75.0,0.0,90.0,0.0,0.0
4566,78.0,96.0,90.0,0.0,0.0
4567,39.0,46.0,60.0,0.0,0.0
4568,65.0,50.0,90.0,0.0,0.0
4569,54.0,0.0,60.0,0.0,0.0
4570,46.0,46.0,60.0,0.0,0.0
4571,75.0,0.0,90.0,0.0,0.0
4572,70.0,96.0,90.0,0.0,0.0
4573,66.0,50.0,90.0,0.0,0.0
4574,70.0,96.0,90.0,0.0,0.0
4575,75.0,0.0,90.0,0.0,0.0
4576,39.0,46.0,60.0,0.0,0.0
4577,62.0,50.0,90.0,0.0,0.0
4578,46.0,46.0,60.0,0.0,0.0
4579,66.0,96.0,90.0,0.0,0.0
4580,70.0,0.0,90.0,0.0,0.0
4581,54.0,0.0,60.0,0.0,0.0
4582,63.0,50.0,90.0,0.0,0.0
4583,66.0,96.0,90.0,0.0,0.0
4584,39.0,46.0,60.0,0.0,0.0
4585,70.0,0.0,90.0,0.0,0.0
4586,63.0,50.0,90.0,0.0,0.0
4587,70.0,96.0,90.0,0.0,0.0
4588,46.0,0.0,60.0,0.0,0.0
4589,66.0,0.0,90.0,0.0,0.0
4590,54.0,46.0,60.0,0.0,0.0
4591,57.0,50.0,90.0,0.0,0.0
4592,66.0,96.0,90.0,0.0,0.0
4593,70.0,0.0,90.0,0.0,0.0
4594,39.0,46.0,60.0,0.0,0.0
4595,58.0,50.0,90.0,0.0,0.0
4596,70.0,0.0,90.0,0.0,0.0
4597,66.0,96.0,90.0,0.0,0.0
4598,54.0,0.0,60.0,0.0,0.0
4599,46.0,46.0,60.0,0.0,0.0
4600,63.0,50.0,90.0,0.0,0.0
4601,66.0,0.0,90.0,0.0,0.0
4602,39.0,46.0,60.0,0.0,0.0
4603,70.0,96.0,90.0,0.0,0.0
4604,57.0,50.0,90.0,0.0,0.0
4605,46.0,0.0,60.0,0.0,0.0
4606,66.0,0.0,90.0,0.0,0.0
4607,70.0,96.0,90.0,0.0,0.0
4608,54.0,46.0,60.0,0.0,0.0
4609,58.0,34.0,90.0,0.0,0.0
4610,70.0,0.0,90.0,0.0,0.0
4611,39.0,62.0,30.0,0.0,0.0
4612,63.0,192.0,90.0,0.0,0.0
4613,66.0,0.0,90.0,0.0,0.0
4614,41.0,0.0,90.0,0.0,0.0
4615,53.0,96.0,90.0,0.0,0.0
4616,54.0,0.0,90.0,0.0,0.0
4617,42.0,96.0,90.0,0.0,0.0
4618,55.0,0.0,90.0,0.0,0.0
4619,43.0,96.0,90.0,0.0,0.0
4620,56.0,0.0,90.0,0.0,0.0
4621,44.0,96.0,90.0,0.0,0.0
4622,44.0,0.0,90.0,0.0,0.0
4623,57.0,96.0,90.0,0.0,0.0
4624,46.0,0.0,90.0,0.0,0.0
4625,58.0,96.0,90.0,0.0,0.0
4626,47.0,0.0,90.0,0.0,0.0
4627,59.0,96.0,90.0,0.0,0.0
4628,60.0,0.0,90.0,0.0,0.0
4629,48.0,96.0,90.0,0.0,0.0
4630,61.0,0.0,90.0,0.0,0.0
4631,49.0,96.0,90.0,0.0,0.0
4632,62.0,0.0,90.0,0.0,0.0
4633,50.0,96.0,90.0,0.0,0.0
4634,63.0,0.0,90.0,0.0,0.0
4635,51.0,96.0,90.0,0.0,0.0
4636,52.0,0.0,90.0,0.0,0.0
4637,64.0,96.0,90.0,0.0,0.0
4638,53.0,0.0,90.0,0.0,0.0
4639,65.0,96.0,90.0,0.0,0.0
4640,66.0,0.0,90.0,0.0,0.0
4641,54.0,96.0,90.0,0.0,0.0
4642,55.0,0.0,90.0,0.0,0.0
4643,67.0,96.0,90.0,0.0,0.0
4644,56.0,0.0,90.0,0.0,0.0
4645,68.0,96.0,90.0,0.0,0.0
4646,57.0,96.0,90.0,0.0,0.0
4647,69.0,0.0,90.0,0.0,0.0
4648,58.0,0.0,90.0,0.0,0.0
4649,70.0,96.0,90.0,0.0,0.0
4650,71.0,0.0,90.0,0.0,0.0
4651,59.0,96.0,90.0,0.0,0.0
4652,72.0,96.0,90.0,0.0,0.0
4653,60.0,0.0,90.0,0.0,0.0
4654,73.0,96.0,90.0,0.0,0.0
4655,61.0,0.0,90.0,0.0,0.0
4656,74.0,96.0,90.0,0.0,0.0
4657,62.0,0.0,90.0,0.0,0.0
4658,63.0,0.0,90.0,0.0,0.0
4659,75.0,96.0,90.0,0.0,0.0
4660,64.0,96.0,90.0,0.0,0.0
4661,76.0,0.0,90.0,0.0,0.0
4662,65.0,96.0,90.0,0.0,0.0
4663,77.0,0.0,90.0,0.0,0.0
4664,66.0,96.0,90.0,0.0,0.0
4665,78.0,0.0,90.0,0.0,0.0
4666,79.0,0.0,90.0,0.0,0.0
4667,67.0,96.0,90.0,0.0,0.0
4668,80.0,96.0,90.0,0.0,0.0
4669,68.0,0.0,90.0,0.0,0.0
4670,69.0,0.0,90.0,0.0,0.0
4671,81.0,96.0,90.0,0.0,0.0
4672,82.0,0.0,90.0,0.0,0.0
4673,70.0,96.0,90.0,0.0,0.0
4674,83.0,0.0,90.0,0.0,0.0
4675,71.0,96.0,90.0,0.0,0.0
4676,84.0,0.0,90.0,0.0,0.0
4677,72.0,96.0,90.0,0.0,0.0
4678,85.0,0.0,90.0,0.0,0.0
4679,73.0,96.0,90.0,0.0,0.0
4680,74.0,96.0,90.0,0.0,0.0
4681,86.0,0.0,90.0,0.0,0.0
4682,87.0,96.0,90.0,0.0,0.0
4683,75.0,0.0,90.0,0.0,0.0
4684,88.0,96.0,90.0,0.0,0.0
4685,76.0,0.0,90.0,0.0,0.0
4686,77.0,96.0,90.0,0.0,0.0
4687,89.0,0.0,90.0,0.0,0.0
4688,78.0,96.0,90.0,0.0,0.0
4689,90.0,0.0,90.0,0.0,0.0
4690,91.0,96.0,90.0,0.0,0.0
4691,79.0,0.0,90.0,0.0,0.0
4692,80.0,0.0,90.0,0.0,0.0
4693,92.0,96.0,90.0,0.0,0.0
4694,81.0,96.0,90.0,0.0,0.0
4695,93.0,0.0,90.0,0.0,0.0
4696,82.0,0.0,90.0,0.0,0.0
4697,94.0,96.0,90.0,0.0,0.0
4698,95.0,96.0,90.0,0.0,0.0
4699,83.0,0.0,90.0,0.0,0.0
4700,96.0,96.0,90.0,0.0,0.0
4701,84.0,0.0,90.0,0.0,0.0
4702,97.0,0.0,90.0,0.0,0.0
4703,85.0,96.0,90.0,0.0,0.0
4704,98.0,0.0,90.0,0.0,0.0
4705,86.0,50.0,90.0,0.0,0.0
4706,87.0,0.0,60.0,0.0,0.0
4707,99.0,688.0,60.0,0.0,0.0
4708,58.0,0.0,150.0,0.0,0.0
4709,65.0,0.0,150.0,0.0,0.0
4710,77.0,0.0,150.0,0.0,0.0
4711,74.0,576.0,150.0,0.0,0.0
4712,82.0,0.0,150.0,0.0,0.0
4713,70.0,0.0,150.0,0.0,0.0
4714,68.0,0.0,150.0,0.0,0.0
4715,70.0,0.0,150.0,0.0,0.0
4716,78.0,0.0,150.0,0.0,0.0
4717,66.0,0.0,150.0,0.0,0.0
4718,75.0,0.0,150.0,0.0,0.0
4719,58.0,0.0,150.0,0.0,0.0
4720,51.0,0.0,150.0,0.0,0.0
4721,63.0,576.0,150.0,0.0,0.0
4722,71.0,0.0,150.0,0.0,0.0
4723,63.0,0.0,150.0,0.0,0.0
4724,51.0,0.0,150.0,0.0,0.0
4725,44.0,0.0,150.0,0.0,0.0
4726,59.0,0.0,150.0,0.0,0.0
4727,68.0,576.0,150.0,0.0,0.0
4728,56.0,0.0,150.0,0.0,0.0
4729,63.0,0.0,150.0,0.0,0.0
4730,66.0,0.0,150.0,0.0,0.0
4731,39.0,0.0,150.0,0.0,0.0
4732,70.0,0.0,150.0,0.0,0.0
4733,51.0,1712.0,150.0,0.0,0.0
4734,75.0,0.0,150.0,0.0,0.0
4735,39.0,0.0,1110.0,0.0,0.0
4736,47.0,576.0,1110.0,0.0,0.0
4737,80.0,0.0,1110.0,0.0,0.0
4738,77.0,0.0,1110.0,0.0,0.0
4739,51.0,0.0,1110.0,0.0,0.0
4740,75.0,0.0,1110.0,0.0,0.0
4741,87.0,0.0,1110.0,0.0,0.0
4742,44.0,0.0,1110.0,0.0,0.0
4743,87.0,0.0,540.0,0.0,0.0
4744,46.0,240.0,540.0,0.0,0.0
4745,82.0,0.0,540.0,0.0,0.0
4746,78.0,0.0,540.0,0.0,0.0
4747,39.0,0.0,540.0,0.0,0.0
4748,75.0,0.0,540.0,0.0,0.0
4749,51.0,0.0,540.0,0.0,0.0
