,note,step,duration,channel,velocity
0,41.0,240.0,1680.0,0.0,0.0
1,53.0,0.0,1680.0,0.0,0.0
2,44.0,0.0,240.0,0.0,0.0
3,44.0,120.0,1920.0,0.0,0.0
4,32.0,1920.0,15.0,0.0,0.0
5,65.0,0.0,960.0,0.0,0.0
6,60.0,0.0,960.0,0.0,0.0
7,53.0,0.0,15.0,0.0,0.0
8,53.0,1800.0,15.0,0.0,0.0
9,55.0,0.0,3600.0,0.0,0.0
10,61.0,0.0,3480.0,0.0,0.0
11,33.0,120.0,3360.0,0.0,0.0
12,45.0,0.0,3360.0,0.0,0.0
13,65.0,1920.0,1440.0,0.0,0.0
14,52.0,0.0,1920.0,0.0,0.0
15,64.0,0.0,1920.0,0.0,0.0
16,50.0,0.0,120.0,0.0,0.0
17,38.0,120.0,120.0,0.0,0.0
18,57.0,120.0,120.0,0.0,0.0
19,62.0,0.0,120.0,0.0,0.0
20,53.0,0.0,120.0,0.0,0.0
21,65.0,120.0,120.0,0.0,0.0
22,45.0,120.0,120.0,0.0,0.0
23,38.0,120.0,120.0,0.0,0.0
24,50.0,0.0,120.0,0.0,0.0
25,57.0,120.0,120.0,0.0,0.0
26,53.0,0.0,120.0,0.0,0.0
27,65.0,120.0,120.0,0.0,0.0
28,62.0,0.0,120.0,0.0,0.0
29,45.0,120.0,120.0,0.0,0.0
30,38.0,120.0,120.0,0.0,0.0
31,50.0,0.0,120.0,0.0,0.0
32,57.0,120.0,120.0,0.0,0.0
33,53.0,0.0,120.0,0.0,0.0
34,65.0,120.0,120.0,0.0,0.0
35,62.0,0.0,120.0,0.0,0.0
36,45.0,120.0,120.0,0.0,0.0
37,38.0,0.0,120.0,0.0,0.0
38,50.0,120.0,120.0,0.0,0.0
39,57.0,120.0,120.0,0.0,0.0
40,53.0,120.0,120.0,0.0,0.0
41,62.0,0.0,120.0,0.0,0.0
42,65.0,0.0,120.0,0.0,0.0
43,45.0,120.0,120.0,0.0,0.0
44,50.0,0.0,120.0,0.0,0.0
45,38.0,120.0,120.0,0.0,0.0
46,57.0,120.0,120.0,0.0,0.0
47,65.0,120.0,120.0,0.0,0.0
48,53.0,0.0,120.0,0.0,0.0
49,62.0,0.0,120.0,0.0,0.0
50,45.0,120.0,120.0,0.0,0.0
51,50.0,0.0,120.0,0.0,0.0
52,38.0,120.0,120.0,0.0,0.0
53,57.0,120.0,120.0,0.0,0.0
54,62.0,120.0,120.0,0.0,0.0
55,65.0,0.0,120.0,0.0,0.0
56,53.0,0.0,120.0,0.0,0.0
57,45.0,120.0,120.0,0.0,0.0
58,50.0,0.0,120.0,0.0,0.0
59,38.0,120.0,120.0,0.0,0.0
60,57.0,120.0,120.0,0.0,0.0
61,53.0,0.0,120.0,0.0,0.0
62,65.0,0.0,120.0,0.0,0.0
63,62.0,120.0,120.0,0.0,0.0
64,45.0,120.0,120.0,0.0,0.0
65,50.0,120.0,120.0,0.0,0.0
66,38.0,0.0,120.0,0.0,0.0
67,57.0,120.0,120.0,0.0,0.0
68,62.0,0.0,120.0,0.0,0.0
69,65.0,0.0,120.0,0.0,0.0
70,53.0,120.0,120.0,0.0,0.0
71,57.0,120.0,120.0,0.0,0.0
72,77.0,0.0,120.0,0.0,0.0
73,50.0,60.0,120.0,0.0,0.0
74,74.0,60.0,60.0,0.0,0.0
75,57.0,120.0,120.0,0.0,0.0
76,65.0,120.0,120.0,0.0,0.0
77,62.0,0.0,120.0,0.0,0.0
78,57.0,0.0,120.0,0.0,0.0
79,76.0,120.0,120.0,0.0,0.0
80,50.0,60.0,120.0,0.0,0.0
81,77.0,0.0,120.0,0.0,0.0
82,57.0,120.0,120.0,0.0,0.0
83,74.0,60.0,60.0,0.0,0.0
84,65.0,120.0,120.0,0.0,0.0
85,62.0,0.0,120.0,0.0,0.0
86,57.0,120.0,120.0,0.0,0.0
87,77.0,0.0,120.0,0.0,0.0
88,50.0,60.0,120.0,0.0,0.0
89,74.0,60.0,60.0,0.0,0.0
90,57.0,120.0,120.0,0.0,0.0
91,62.0,120.0,120.0,0.0,0.0
92,65.0,0.0,120.0,0.0,0.0
93,76.0,0.0,120.0,0.0,0.0
94,57.0,120.0,120.0,0.0,0.0
95,50.0,60.0,120.0,0.0,0.0
96,77.0,0.0,120.0,0.0,0.0
97,74.0,60.0,60.0,0.0,0.0
98,57.0,120.0,120.0,0.0,0.0
99,65.0,0.0,120.0,0.0,0.0
100,62.0,120.0,120.0,0.0,0.0
101,57.0,120.0,120.0,0.0,0.0
102,50.0,0.0,120.0,0.0,0.0
103,77.0,60.0,120.0,0.0,0.0
104,74.0,60.0,60.0,0.0,0.0
105,57.0,120.0,120.0,0.0,0.0
106,65.0,0.0,120.0,0.0,0.0
107,62.0,120.0,120.0,0.0,0.0
108,57.0,120.0,120.0,0.0,0.0
109,76.0,0.0,120.0,0.0,0.0
110,77.0,60.0,120.0,0.0,0.0
111,50.0,0.0,120.0,0.0,0.0
112,86.0,60.0,60.0,0.0,0.0
113,57.0,120.0,120.0,0.0,0.0
114,62.0,0.0,120.0,0.0,0.0
115,65.0,120.0,120.0,0.0,0.0
116,57.0,120.0,120.0,0.0,0.0
117,52.0,0.0,120.0,0.0,0.0
118,85.0,60.0,120.0,0.0,0.0
119,58.0,120.0,120.0,0.0,0.0
120,76.0,60.0,60.0,0.0,0.0
121,61.0,0.0,120.0,0.0,0.0
122,67.0,120.0,120.0,0.0,0.0
123,58.0,0.0,120.0,0.0,0.0
124,77.0,120.0,120.0,0.0,0.0
125,79.0,60.0,120.0,0.0,0.0
126,52.0,0.0,120.0,0.0,0.0
127,76.0,60.0,60.0,0.0,0.0
128,58.0,120.0,120.0,0.0,0.0
129,67.0,120.0,120.0,0.0,0.0
130,61.0,0.0,120.0,0.0,0.0
131,58.0,120.0,120.0,0.0,0.0
132,82.0,60.0,120.0,0.0,0.0
133,52.0,0.0,120.0,0.0,0.0
134,55.0,120.0,120.0,0.0,0.0
135,76.0,60.0,60.0,0.0,0.0
136,67.0,0.0,120.0,0.0,0.0
137,61.0,120.0,120.0,0.0,0.0
138,77.0,120.0,120.0,0.0,0.0
139,55.0,0.0,120.0,0.0,0.0
140,79.0,60.0,120.0,0.0,0.0
141,52.0,0.0,120.0,0.0,0.0
142,58.0,120.0,120.0,0.0,0.0
143,76.0,60.0,60.0,0.0,0.0
144,61.0,0.0,120.0,0.0,0.0
145,67.0,120.0,120.0,0.0,0.0
146,58.0,120.0,120.0,0.0,0.0
147,82.0,0.0,120.0,0.0,0.0
148,52.0,60.0,120.0,0.0,0.0
149,76.0,60.0,60.0,0.0,0.0
150,55.0,120.0,120.0,0.0,0.0
151,67.0,120.0,120.0,0.0,0.0
152,61.0,0.0,120.0,0.0,0.0
153,55.0,120.0,120.0,0.0,0.0
154,77.0,0.0,120.0,0.0,0.0
155,79.0,60.0,120.0,0.0,0.0
156,52.0,0.0,120.0,0.0,0.0
157,58.0,120.0,120.0,0.0,0.0
158,76.0,60.0,60.0,0.0,0.0
159,67.0,0.0,120.0,0.0,0.0
160,61.0,120.0,120.0,0.0,0.0
161,58.0,120.0,120.0,0.0,0.0
162,82.0,0.0,120.0,0.0,0.0
163,52.0,60.0,120.0,0.0,0.0
164,76.0,60.0,60.0,0.0,0.0
165,55.0,120.0,120.0,0.0,0.0
166,61.0,0.0,120.0,0.0,0.0
167,67.0,120.0,120.0,0.0,0.0
168,55.0,0.0,120.0,0.0,0.0
169,77.0,120.0,120.0,0.0,0.0
170,52.0,60.0,120.0,0.0,0.0
171,79.0,0.0,120.0,0.0,0.0
172,58.0,120.0,120.0,0.0,0.0
173,88.0,60.0,60.0,0.0,0.0
174,67.0,0.0,120.0,0.0,0.0
175,61.0,120.0,120.0,0.0,0.0
176,58.0,120.0,120.0,0.0,0.0
177,88.0,120.0,240.0,0.0,0.0
178,53.0,60.0,120.0,0.0,0.0
179,57.0,0.0,120.0,0.0,0.0
180,77.0,60.0,60.0,0.0,0.0
181,69.0,0.0,120.0,0.0,0.0
182,61.0,120.0,120.0,0.0,0.0
183,57.0,120.0,120.0,0.0,0.0
184,79.0,0.0,120.0,0.0,0.0
185,86.0,120.0,240.0,0.0,0.0
186,81.0,0.0,120.0,0.0,0.0
187,53.0,60.0,120.0,0.0,0.0
188,57.0,0.0,120.0,0.0,0.0
189,77.0,60.0,60.0,0.0,0.0
190,69.0,120.0,120.0,0.0,0.0
191,62.0,0.0,120.0,0.0,0.0
192,57.0,120.0,120.0,0.0,0.0
193,56.0,0.0,120.0,0.0,0.0
194,89.0,0.0,120.0,0.0,0.0
195,77.0,60.0,120.0,0.0,0.0
196,65.0,120.0,120.0,0.0,0.0
197,88.0,60.0,60.0,0.0,0.0
198,83.0,0.0,60.0,0.0,0.0
199,71.0,120.0,120.0,0.0,0.0
200,77.0,120.0,120.0,0.0,0.0
201,56.0,0.0,120.0,0.0,0.0
202,86.0,0.0,120.0,0.0,0.0
203,57.0,0.0,120.0,0.0,0.0
204,85.0,60.0,120.0,0.0,0.0
205,81.0,0.0,120.0,0.0,0.0
206,64.0,120.0,120.0,0.0,0.0
207,88.0,0.0,60.0,0.0,0.0
208,76.0,60.0,60.0,0.0,0.0
209,73.0,120.0,120.0,0.0,0.0
210,57.0,120.0,120.0,0.0,0.0
211,82.0,60.0,120.0,0.0,0.0
212,70.0,0.0,120.0,0.0,0.0
213,49.0,0.0,120.0,0.0,0.0
214,58.0,120.0,120.0,0.0,0.0
215,81.0,0.0,60.0,0.0,0.0
216,76.0,60.0,60.0,0.0,0.0
217,67.0,120.0,120.0,0.0,0.0
218,70.0,0.0,120.0,0.0,0.0
219,79.0,120.0,120.0,0.0,0.0
220,49.0,0.0,120.0,0.0,0.0
221,50.0,0.0,120.0,0.0,0.0
222,77.0,60.0,120.0,0.0,0.0
223,74.0,0.0,120.0,0.0,0.0
224,57.0,120.0,120.0,0.0,0.0
225,81.0,0.0,60.0,0.0,0.0
226,69.0,60.0,60.0,0.0,0.0
227,65.0,120.0,120.0,0.0,0.0
228,50.0,120.0,120.0,0.0,0.0
229,89.0,0.0,120.0,0.0,0.0
230,77.0,0.0,120.0,0.0,0.0
231,56.0,60.0,120.0,0.0,0.0
232,83.0,0.0,60.0,0.0,0.0
233,65.0,120.0,120.0,0.0,0.0
234,88.0,60.0,60.0,0.0,0.0
235,71.0,120.0,120.0,0.0,0.0
236,77.0,120.0,120.0,0.0,0.0
237,86.0,0.0,120.0,0.0,0.0
238,56.0,0.0,120.0,0.0,0.0
239,57.0,60.0,120.0,0.0,0.0
240,81.0,0.0,120.0,0.0,0.0
241,85.0,0.0,120.0,0.0,0.0
242,76.0,0.0,60.0,0.0,0.0
243,88.0,60.0,60.0,0.0,0.0
244,64.0,120.0,120.0,0.0,0.0
245,73.0,120.0,120.0,0.0,0.0
246,57.0,120.0,120.0,0.0,0.0
247,49.0,0.0,120.0,0.0,0.0
248,82.0,0.0,120.0,0.0,0.0
249,70.0,60.0,120.0,0.0,0.0
250,76.0,0.0,60.0,0.0,0.0
251,58.0,120.0,120.0,0.0,0.0
252,81.0,60.0,60.0,0.0,0.0
253,67.0,120.0,120.0,0.0,0.0
254,70.0,120.0,120.0,0.0,0.0
255,79.0,0.0,120.0,0.0,0.0
256,49.0,0.0,120.0,0.0,0.0
257,50.0,60.0,120.0,0.0,0.0
258,78.0,0.0,120.0,0.0,0.0
259,74.0,0.0,120.0,0.0,0.0
260,81.0,60.0,60.0,0.0,0.0
261,77.0,0.0,60.0,0.0,0.0
262,69.0,0.0,60.0,0.0,0.0
263,57.0,120.0,120.0,0.0,0.0
264,65.0,120.0,120.0,0.0,0.0
265,50.0,120.0,120.0,0.0,0.0
266,47.0,0.0,120.0,0.0,0.0
267,93.0,60.0,120.0,0.0,0.0
268,81.0,0.0,120.0,0.0,0.0
269,86.0,0.0,120.0,0.0,0.0
270,80.0,60.0,60.0,0.0,0.0
271,92.0,0.0,60.0,0.0,0.0
272,52.0,120.0,120.0,0.0,0.0
273,53.0,120.0,120.0,0.0,0.0
274,62.0,0.0,120.0,0.0,0.0
275,89.0,120.0,120.0,0.0,0.0
276,77.0,0.0,120.0,0.0,0.0
277,47.0,0.0,120.0,0.0,0.0
278,88.0,0.0,120.0,0.0,0.0
279,80.0,0.0,120.0,0.0,0.0
280,76.0,60.0,120.0,0.0,0.0
281,74.0,0.0,60.0,0.0,0.0
282,86.0,60.0,60.0,0.0,0.0
283,52.0,120.0,120.0,0.0,0.0
284,53.0,120.0,120.0,0.0,0.0
285,62.0,120.0,120.0,0.0,0.0
286,86.0,0.0,120.0,0.0,0.0
287,74.0,60.0,120.0,0.0,0.0
288,47.0,0.0,120.0,0.0,0.0
289,84.0,60.0,60.0,0.0,0.0
290,80.0,0.0,60.0,0.0,0.0
291,52.0,120.0,120.0,0.0,0.0
292,53.0,120.0,120.0,0.0,0.0
293,71.0,0.0,120.0,0.0,0.0
294,83.0,120.0,120.0,0.0,0.0
295,62.0,0.0,120.0,0.0,0.0
296,79.0,0.0,120.0,0.0,0.0
297,82.0,0.0,120.0,0.0,0.0
298,49.0,60.0,120.0,0.0,0.0
299,70.0,60.0,60.0,0.0,0.0
300,54.0,120.0,120.0,0.0,0.0
301,76.0,0.0,60.0,0.0,0.0
302,55.0,120.0,120.0,0.0,0.0
303,64.0,120.0,120.0,0.0,0.0
304,72.0,0.0,120.0,0.0,0.0
305,51.0,60.0,120.0,0.0,0.0
306,84.0,0.0,120.0,0.0,0.0
307,83.0,0.0,60.0,0.0,0.0
308,78.0,60.0,60.0,0.0,0.0
309,56.0,120.0,120.0,0.0,0.0
310,57.0,120.0,120.0,0.0,0.0
311,81.0,0.0,120.0,0.0,0.0
312,66.0,120.0,120.0,0.0,0.0
313,69.0,0.0,120.0,0.0,0.0
314,79.0,0.0,120.0,0.0,0.0
315,76.0,0.0,120.0,0.0,0.0
316,52.0,60.0,120.0,0.0,0.0
317,58.0,120.0,120.0,0.0,0.0
318,67.0,60.0,60.0,0.0,0.0
319,71.0,0.0,60.0,0.0,0.0
320,59.0,120.0,120.0,0.0,0.0
321,67.0,120.0,120.0,0.0,0.0
322,79.0,0.0,120.0,0.0,0.0
323,76.0,0.0,120.0,0.0,0.0
324,50.0,60.0,120.0,0.0,0.0
325,57.0,120.0,120.0,0.0,0.0
326,70.0,60.0,60.0,0.0,0.0
327,67.0,0.0,60.0,0.0,0.0
328,58.0,120.0,120.0,0.0,0.0
329,67.0,120.0,120.0,0.0,0.0
330,49.0,60.0,120.0,0.0,0.0
331,79.0,0.0,120.0,0.0,0.0
332,76.0,0.0,120.0,0.0,0.0
333,56.0,120.0,120.0,0.0,0.0
334,69.0,60.0,60.0,0.0,0.0
335,67.0,0.0,60.0,0.0,0.0
336,57.0,120.0,120.0,0.0,0.0
337,67.0,120.0,120.0,0.0,0.0
338,77.0,120.0,120.0,0.0,0.0
339,50.0,0.0,120.0,0.0,0.0
340,74.0,0.0,120.0,0.0,0.0
341,57.0,120.0,120.0,0.0,0.0
342,69.0,0.0,120.0,0.0,0.0
343,65.0,0.0,120.0,0.0,0.0
344,62.0,120.0,120.0,0.0,0.0
345,76.0,0.0,120.0,0.0,0.0
346,45.0,120.0,120.0,0.0,0.0
347,50.0,120.0,120.0,0.0,0.0
348,77.0,0.0,120.0,0.0,0.0
349,65.0,0.0,120.0,0.0,0.0
350,69.0,0.0,120.0,0.0,0.0
351,57.0,120.0,120.0,0.0,0.0
352,74.0,0.0,120.0,0.0,0.0
353,62.0,120.0,120.0,0.0,0.0
354,45.0,120.0,120.0,0.0,0.0
355,77.0,120.0,120.0,0.0,0.0
356,50.0,0.0,120.0,0.0,0.0
357,69.0,120.0,120.0,0.0,0.0
358,65.0,0.0,120.0,0.0,0.0
359,74.0,0.0,120.0,0.0,0.0
360,57.0,0.0,120.0,0.0,0.0
361,62.0,120.0,120.0,0.0,0.0
362,45.0,0.0,120.0,0.0,0.0
363,76.0,120.0,120.0,0.0,0.0
364,77.0,120.0,120.0,0.0,0.0
365,50.0,0.0,120.0,0.0,0.0
366,74.0,0.0,120.0,0.0,0.0
367,65.0,0.0,120.0,0.0,0.0
368,69.0,0.0,120.0,0.0,0.0
369,57.0,120.0,120.0,0.0,0.0
370,62.0,120.0,120.0,0.0,0.0
371,45.0,120.0,120.0,0.0,0.0
372,77.0,120.0,120.0,0.0,0.0
373,50.0,0.0,120.0,0.0,0.0
374,57.0,0.0,120.0,0.0,0.0
375,65.0,120.0,120.0,0.0,0.0
376,69.0,0.0,120.0,0.0,0.0
377,74.0,0.0,120.0,0.0,0.0
378,62.0,120.0,120.0,0.0,0.0
379,45.0,120.0,120.0,0.0,0.0
380,76.0,0.0,120.0,0.0,0.0
381,50.0,0.0,120.0,0.0,0.0
382,77.0,120.0,120.0,0.0,0.0
383,57.0,0.0,120.0,0.0,0.0
384,74.0,0.0,120.0,0.0,0.0
385,81.0,120.0,120.0,0.0,0.0
386,86.0,0.0,120.0,0.0,0.0
387,65.0,120.0,120.0,0.0,0.0
388,53.0,120.0,120.0,0.0,0.0
389,85.0,0.0,120.0,0.0,0.0
390,52.0,120.0,120.0,0.0,0.0
391,76.0,120.0,120.0,0.0,0.0
392,73.0,0.0,120.0,0.0,0.0
393,58.0,0.0,120.0,0.0,0.0
394,67.0,120.0,120.0,0.0,0.0
395,52.0,0.0,120.0,0.0,0.0
396,77.0,120.0,120.0,0.0,0.0
397,58.0,0.0,120.0,0.0,0.0
398,79.0,120.0,120.0,0.0,0.0
399,61.0,120.0,120.0,0.0,0.0
400,70.0,0.0,120.0,0.0,0.0
401,73.0,0.0,120.0,0.0,0.0
402,76.0,0.0,120.0,0.0,0.0
403,67.0,120.0,120.0,0.0,0.0
404,52.0,120.0,120.0,0.0,0.0
405,55.0,0.0,120.0,0.0,0.0
406,82.0,120.0,120.0,0.0,0.0
407,61.0,0.0,120.0,0.0,0.0
408,73.0,120.0,120.0,0.0,0.0
409,70.0,0.0,120.0,0.0,0.0
410,76.0,0.0,120.0,0.0,0.0
411,67.0,120.0,120.0,0.0,0.0
412,77.0,0.0,120.0,0.0,0.0
413,52.0,120.0,120.0,0.0,0.0
414,79.0,120.0,120.0,0.0,0.0
415,58.0,0.0,120.0,0.0,0.0
416,70.0,0.0,120.0,0.0,0.0
417,73.0,0.0,120.0,0.0,0.0
418,61.0,120.0,120.0,0.0,0.0
419,76.0,0.0,120.0,0.0,0.0
420,67.0,120.0,120.0,0.0,0.0
421,52.0,120.0,120.0,0.0,0.0
422,55.0,0.0,120.0,0.0,0.0
423,82.0,120.0,120.0,0.0,0.0
424,76.0,120.0,120.0,0.0,0.0
425,73.0,0.0,120.0,0.0,0.0
426,70.0,0.0,120.0,0.0,0.0
427,61.0,0.0,120.0,0.0,0.0
428,67.0,120.0,120.0,0.0,0.0
429,52.0,120.0,120.0,0.0,0.0
430,77.0,0.0,120.0,0.0,0.0
431,79.0,120.0,120.0,0.0,0.0
432,58.0,0.0,120.0,0.0,0.0
433,61.0,0.0,120.0,0.0,0.0
434,76.0,0.0,120.0,0.0,0.0
435,70.0,0.0,120.0,0.0,0.0
436,73.0,120.0,120.0,0.0,0.0
437,67.0,120.0,120.0,0.0,0.0
438,52.0,120.0,120.0,0.0,0.0
439,82.0,120.0,120.0,0.0,0.0
440,55.0,0.0,120.0,0.0,0.0
441,76.0,0.0,120.0,0.0,0.0
442,70.0,120.0,120.0,0.0,0.0
443,61.0,0.0,120.0,0.0,0.0
444,73.0,0.0,120.0,0.0,0.0
445,67.0,120.0,120.0,0.0,0.0
446,77.0,120.0,120.0,0.0,0.0
447,52.0,0.0,120.0,0.0,0.0
448,58.0,120.0,120.0,0.0,0.0
449,79.0,0.0,120.0,0.0,0.0
450,88.0,0.0,120.0,0.0,0.0
451,76.0,0.0,120.0,0.0,0.0
452,61.0,0.0,120.0,0.0,0.0
453,82.0,120.0,120.0,0.0,0.0
454,67.0,120.0,120.0,0.0,0.0
455,52.0,120.0,120.0,0.0,0.0
456,53.0,0.0,120.0,0.0,0.0
457,88.0,120.0,120.0,0.0,0.0
458,76.0,0.0,120.0,0.0,0.0
459,77.0,120.0,120.0,0.0,0.0
460,61.0,0.0,120.0,0.0,0.0
461,69.0,120.0,120.0,0.0,0.0
462,57.0,0.0,120.0,0.0,0.0
463,79.0,120.0,120.0,0.0,0.0
464,81.0,120.0,120.0,0.0,0.0
465,62.0,0.0,120.0,0.0,0.0
466,65.0,0.0,120.0,0.0,0.0
467,77.0,0.0,120.0,0.0,0.0
468,86.0,0.0,120.0,0.0,0.0
469,74.0,120.0,120.0,0.0,0.0
470,69.0,120.0,120.0,0.0,0.0
471,53.0,120.0,120.0,0.0,0.0
472,56.0,120.0,120.0,0.0,0.0
473,89.0,0.0,120.0,0.0,0.0
474,83.0,0.0,120.0,0.0,0.0
475,65.0,0.0,120.0,0.0,0.0
476,88.0,120.0,120.0,0.0,0.0
477,77.0,0.0,120.0,0.0,0.0
478,71.0,120.0,120.0,0.0,0.0
479,86.0,120.0,120.0,0.0,0.0
480,56.0,0.0,120.0,0.0,0.0
481,57.0,120.0,120.0,0.0,0.0
482,85.0,0.0,120.0,0.0,0.0
483,88.0,0.0,120.0,0.0,0.0
484,76.0,0.0,120.0,0.0,0.0
485,81.0,0.0,120.0,0.0,0.0
486,64.0,120.0,120.0,0.0,0.0
487,73.0,120.0,120.0,0.0,0.0
488,57.0,120.0,120.0,0.0,0.0
489,82.0,0.0,120.0,0.0,0.0
490,49.0,120.0,120.0,0.0,0.0
491,58.0,0.0,120.0,0.0,0.0
492,76.0,120.0,120.0,0.0,0.0
493,81.0,0.0,120.0,0.0,0.0
494,70.0,0.0,120.0,0.0,0.0
495,67.0,120.0,120.0,0.0,0.0
496,79.0,120.0,120.0,0.0,0.0
497,49.0,0.0,120.0,0.0,0.0
498,50.0,0.0,120.0,0.0,0.0
499,78.0,120.0,120.0,0.0,0.0
500,74.0,0.0,120.0,0.0,0.0
501,81.0,0.0,120.0,0.0,0.0
502,77.0,0.0,120.0,0.0,0.0
503,69.0,0.0,120.0,0.0,0.0
504,57.0,120.0,120.0,0.0,0.0
505,65.0,120.0,120.0,0.0,0.0
506,50.0,120.0,120.0,0.0,0.0
507,89.0,0.0,120.0,0.0,0.0
508,56.0,120.0,120.0,0.0,0.0
509,88.0,120.0,120.0,0.0,0.0
510,77.0,0.0,120.0,0.0,0.0
511,65.0,0.0,120.0,0.0,0.0
512,83.0,0.0,120.0,0.0,0.0
513,71.0,120.0,120.0,0.0,0.0
514,56.0,0.0,120.0,0.0,0.0
515,86.0,120.0,120.0,0.0,0.0
516,57.0,0.0,120.0,0.0,0.0
517,85.0,120.0,120.0,0.0,0.0
518,64.0,0.0,120.0,0.0,0.0
519,76.0,0.0,120.0,0.0,0.0
520,88.0,0.0,120.0,0.0,0.0
521,81.0,120.0,120.0,0.0,0.0
522,73.0,120.0,120.0,0.0,0.0
523,57.0,120.0,120.0,0.0,0.0
524,54.0,120.0,120.0,0.0,0.0
525,87.0,0.0,120.0,0.0,0.0
526,81.0,0.0,120.0,0.0,0.0
527,86.0,120.0,120.0,0.0,0.0
528,75.0,0.0,120.0,0.0,0.0
529,63.0,0.0,120.0,0.0,0.0
530,69.0,120.0,120.0,0.0,0.0
531,54.0,0.0,120.0,0.0,0.0
532,84.0,120.0,120.0,0.0,0.0
533,83.0,120.0,120.0,0.0,0.0
534,55.0,0.0,120.0,0.0,0.0
535,62.0,120.0,120.0,0.0,0.0
536,82.0,0.0,120.0,0.0,0.0
537,74.0,0.0,120.0,0.0,0.0
538,86.0,0.0,120.0,0.0,0.0
539,70.0,120.0,120.0,0.0,0.0
540,55.0,120.0,120.0,0.0,0.0
541,43.0,120.0,120.0,0.0,0.0
542,85.0,0.0,240.0,0.0,0.0
543,73.0,120.0,240.0,0.0,0.0
544,82.0,0.0,720.0,0.0,0.0
545,50.0,0.0,120.0,0.0,0.0
546,74.0,0.0,240.0,0.0,0.0
547,62.0,120.0,120.0,0.0,0.0
548,86.0,0.0,240.0,0.0,0.0
549,50.0,120.0,120.0,0.0,0.0
550,73.0,0.0,240.0,0.0,0.0
551,85.0,0.0,240.0,0.0,0.0
552,45.0,120.0,120.0,0.0,0.0
553,50.0,120.0,120.0,0.0,0.0
554,86.0,0.0,240.0,0.0,0.0
555,74.0,0.0,240.0,0.0,0.0
556,62.0,120.0,120.0,0.0,0.0
557,50.0,120.0,120.0,0.0,0.0
558,81.0,0.0,15.0,0.0,0.0
559,73.0,0.0,240.0,0.0,0.0
560,85.0,0.0,240.0,0.0,0.0
561,46.0,120.0,120.0,0.0,0.0
562,50.0,120.0,120.0,0.0,0.0
563,86.0,0.0,240.0,0.0,0.0
564,74.0,0.0,240.0,0.0,0.0
565,79.0,0.0,480.0,0.0,0.0
566,62.0,120.0,120.0,0.0,0.0
567,50.0,120.0,120.0,0.0,0.0
568,85.0,0.0,240.0,0.0,0.0
569,73.0,0.0,240.0,0.0,0.0
570,47.0,120.0,120.0,0.0,0.0
571,55.0,120.0,120.0,0.0,0.0
572,74.0,0.0,240.0,0.0,0.0
573,77.0,0.0,240.0,0.0,0.0
574,67.0,120.0,120.0,0.0,0.0
575,86.0,120.0,240.0,0.0,0.0
576,55.0,0.0,120.0,0.0,0.0
577,48.0,0.0,120.0,0.0,0.0
578,55.0,240.0,120.0,0.0,0.0
579,62.0,0.0,120.0,0.0,0.0
580,77.0,0.0,120.0,0.0,0.0
581,65.0,0.0,120.0,0.0,0.0
582,70.0,0.0,120.0,0.0,0.0
583,55.0,0.0,120.0,0.0,0.0
584,64.0,0.0,120.0,0.0,0.0
585,70.0,0.0,120.0,0.0,0.0
586,76.0,0.0,120.0,0.0,0.0
587,48.0,600.0,120.0,0.0,0.0
588,60.0,0.0,120.0,0.0,0.0
589,50.0,0.0,240.0,0.0,0.0
590,65.0,0.0,240.0,0.0,0.0
591,38.0,0.0,240.0,0.0,0.0
592,60.0,480.0,240.0,0.0,0.0
593,39.0,0.0,480.0,0.0,0.0
594,51.0,0.0,480.0,0.0,0.0
595,70.0,0.0,15.0,0.0,0.0
596,66.0,0.0,480.0,0.0,0.0
597,74.0,0.0,15.0,0.0,0.0
598,40.0,0.0,360.0,0.0,0.0
599,52.0,0.0,360.0,0.0,0.0
600,70.0,0.0,15.0,0.0,0.0
601,60.0,0.0,15.0,0.0,0.0
602,67.0,120.0,360.0,0.0,0.0
603,72.0,0.0,360.0,0.0,0.0
604,57.0,960.0,120.0,0.0,0.0
605,41.0,480.0,960.0,0.0,0.0
606,53.0,480.0,1440.0,0.0,0.0
607,57.0,0.0,960.0,0.0,0.0
608,72.0,0.0,960.0,0.0,0.0
609,69.0,0.0,480.0,0.0,0.0
610,65.0,0.0,15.0,0.0,0.0
611,60.0,0.0,480.0,0.0,0.0
612,62.0,960.0,480.0,0.0,0.0
613,70.0,0.0,480.0,0.0,0.0
614,46.0,0.0,480.0,0.0,0.0
615,67.0,0.0,480.0,0.0,0.0
616,69.0,240.0,960.0,0.0,0.0
617,64.0,0.0,1920.0,0.0,0.0
618,48.0,240.0,1200.0,0.0,0.0
619,58.0,0.0,1920.0,0.0,0.0
620,67.0,480.0,960.0,0.0,0.0
621,49.0,240.0,240.0,0.0,0.0
622,50.0,240.0,240.0,0.0,0.0
623,48.0,0.0,240.0,0.0,0.0
624,57.0,0.0,600.0,0.0,0.0
625,41.0,0.0,960.0,0.0,0.0
626,72.0,480.0,480.0,0.0,0.0
627,69.0,0.0,480.0,0.0,0.0
628,60.0,0.0,480.0,0.0,0.0
629,53.0,0.0,480.0,0.0,0.0
630,65.0,240.0,15.0,0.0,0.0
631,70.0,240.0,240.0,0.0,0.0
632,62.0,0.0,240.0,0.0,0.0
633,60.0,0.0,240.0,0.0,0.0
634,69.0,240.0,240.0,0.0,0.0
635,46.0,960.0,480.0,0.0,0.0
636,67.0,0.0,480.0,0.0,0.0
637,64.0,240.0,240.0,0.0,0.0
638,72.0,0.0,240.0,0.0,0.0
639,62.0,0.0,240.0,0.0,0.0
640,70.0,0.0,240.0,0.0,0.0
641,58.0,0.0,1920.0,0.0,0.0
642,48.0,240.0,1200.0,0.0,0.0
643,64.0,0.0,1920.0,0.0,0.0
644,69.0,240.0,960.0,0.0,0.0
645,67.0,0.0,960.0,0.0,0.0
646,49.0,160.0,240.0,0.0,0.0
647,52.0,160.0,150.0,0.0,0.0
648,50.0,160.0,150.0,0.0,0.0
649,48.0,480.0,150.0,0.0,0.0
650,41.0,480.0,480.0,0.0,0.0
651,72.0,0.0,480.0,0.0,0.0
652,65.0,0.0,960.0,0.0,0.0
653,57.0,0.0,480.0,0.0,0.0
654,68.0,0.0,480.0,0.0,0.0
655,74.0,0.0,480.0,0.0,0.0
656,59.0,480.0,480.0,0.0,0.0
657,76.0,0.0,480.0,0.0,0.0
658,67.0,0.0,480.0,0.0,0.0
659,48.0,0.0,960.0,0.0,0.0
660,58.0,360.0,480.0,0.0,0.0
661,62.0,0.0,360.0,0.0,0.0
662,77.0,120.0,360.0,0.0,0.0
663,70.0,0.0,480.0,0.0,0.0
664,79.0,0.0,120.0,0.0,0.0
665,76.0,0.0,120.0,0.0,0.0
666,77.0,480.0,480.0,0.0,0.0
667,81.0,0.0,480.0,0.0,0.0
668,60.0,480.0,15.0,0.0,0.0
669,53.0,0.0,480.0,0.0,0.0
670,69.0,0.0,480.0,0.0,0.0
671,59.0,420.0,480.0,0.0,0.0
672,68.0,0.0,480.0,0.0,0.0
673,65.0,0.0,480.0,0.0,0.0
674,74.0,0.0,480.0,0.0,0.0
675,67.0,0.0,960.0,0.0,0.0
676,58.0,0.0,960.0,0.0,0.0
677,76.0,60.0,420.0,0.0,0.0
678,48.0,360.0,480.0,0.0,0.0
679,64.0,0.0,420.0,0.0,0.0
680,62.0,0.0,540.0,0.0,0.0
681,77.0,60.0,360.0,0.0,0.0
682,46.0,60.0,420.0,0.0,0.0
683,79.0,480.0,120.0,0.0,0.0
684,45.0,0.0,540.0,0.0,0.0
685,61.0,480.0,480.0,0.0,0.0
686,81.0,0.0,480.0,0.0,0.0
687,76.0,0.0,960.0,0.0,0.0
688,69.0,0.0,15.0,0.0,0.0
689,79.0,0.0,480.0,0.0,0.0
690,49.0,480.0,480.0,0.0,0.0
691,37.0,0.0,480.0,0.0,0.0
692,74.0,360.0,480.0,0.0,0.0
693,77.0,0.0,480.0,0.0,0.0
694,65.0,0.0,480.0,0.0,0.0
695,38.0,0.0,480.0,0.0,0.0
696,50.0,0.0,480.0,0.0,0.0
697,76.0,120.0,360.0,0.0,0.0
698,72.0,0.0,360.0,0.0,0.0
699,68.0,0.0,360.0,0.0,0.0
700,40.0,0.0,360.0,0.0,0.0
701,52.0,0.0,360.0,0.0,0.0
702,41.0,480.0,120.0,0.0,0.0
703,53.0,0.0,120.0,0.0,0.0
704,74.0,0.0,120.0,0.0,0.0
705,69.0,0.0,120.0,0.0,0.0
706,42.0,0.0,480.0,0.0,0.0
707,54.0,360.0,480.0,0.0,0.0
708,72.0,0.0,480.0,0.0,0.0
709,69.0,0.0,480.0,0.0,0.0
710,63.0,0.0,480.0,0.0,0.0
711,67.0,0.0,360.0,0.0,0.0
712,58.0,0.0,360.0,0.0,0.0
713,62.0,120.0,360.0,0.0,0.0
714,70.0,0.0,360.0,0.0,0.0
715,55.0,0.0,360.0,0.0,0.0
716,43.0,0.0,360.0,0.0,0.0
717,57.0,480.0,120.0,0.0,0.0
718,65.0,0.0,120.0,0.0,0.0
719,69.0,0.0,120.0,0.0,0.0
720,45.0,0.0,120.0,0.0,0.0
721,60.0,0.0,120.0,0.0,0.0
722,46.0,0.0,480.0,0.0,0.0
723,67.0,120.0,720.0,0.0,0.0
724,62.0,240.0,480.0,0.0,0.0
725,65.0,0.0,480.0,0.0,0.0
726,58.0,0.0,15.0,0.0,0.0
727,64.0,0.0,360.0,0.0,0.0
728,48.0,160.0,480.0,0.0,0.0
729,68.0,120.0,120.0,0.0,0.0
730,69.0,0.0,1080.0,0.0,0.0
731,77.0,160.0,1020.0,0.0,0.0
732,84.0,0.0,960.0,0.0,0.0
733,41.0,160.0,150.0,0.0,0.0
734,59.0,160.0,150.0,0.0,0.0
735,60.0,160.0,150.0,0.0,0.0
736,62.0,160.0,150.0,0.0,0.0
737,60.0,160.0,150.0,0.0,0.0
738,48.0,0.0,150.0,0.0,0.0
739,53.0,160.0,150.0,0.0,0.0
740,72.0,0.0,480.0,0.0,0.0
741,81.0,0.0,480.0,0.0,0.0
742,77.0,0.0,480.0,0.0,0.0
743,59.0,160.0,150.0,0.0,0.0
744,60.0,160.0,150.0,0.0,0.0
745,62.0,80.0,150.0,0.0,0.0
746,69.0,80.0,240.0,0.0,0.0
747,72.0,0.0,240.0,0.0,0.0
748,60.0,160.0,150.0,0.0,0.0
749,82.0,0.0,240.0,0.0,0.0
750,74.0,0.0,240.0,0.0,0.0
751,79.0,0.0,240.0,0.0,0.0
752,48.0,160.0,150.0,0.0,0.0
753,55.0,160.0,150.0,0.0,0.0
754,81.0,80.0,720.0,0.0,0.0
755,70.0,160.0,960.0,0.0,0.0
756,76.0,0.0,960.0,0.0,0.0
757,59.0,160.0,150.0,0.0,0.0
758,60.0,160.0,150.0,0.0,0.0
759,62.0,80.0,150.0,0.0,0.0
760,60.0,160.0,150.0,0.0,0.0
761,79.0,0.0,240.0,0.0,0.0
762,48.0,0.0,150.0,0.0,0.0
763,74.0,80.0,240.0,0.0,0.0
764,58.0,80.0,150.0,0.0,0.0
765,59.0,160.0,150.0,0.0,0.0
766,72.0,160.0,240.0,0.0,0.0
767,60.0,0.0,150.0,0.0,0.0
768,62.0,80.0,150.0,0.0,0.0
769,65.0,80.0,240.0,0.0,0.0
770,60.0,40.0,150.0,0.0,0.0
771,67.0,120.0,120.0,0.0,0.0
772,48.0,0.0,150.0,0.0,0.0
773,69.0,120.0,120.0,0.0,0.0
774,53.0,240.0,120.0,0.0,0.0
775,84.0,0.0,480.0,0.0,0.0
776,69.0,120.0,480.0,0.0,0.0
777,59.0,120.0,120.0,0.0,0.0
778,60.0,0.0,120.0,0.0,0.0
779,62.0,120.0,120.0,0.0,0.0
780,72.0,0.0,480.0,0.0,0.0
781,81.0,0.0,480.0,0.0,0.0
782,60.0,120.0,120.0,0.0,0.0
783,60.0,120.0,120.0,0.0,0.0
784,48.0,0.0,120.0,0.0,0.0
785,53.0,120.0,120.0,0.0,0.0
786,74.0,120.0,240.0,0.0,0.0
787,77.0,120.0,15.0,0.0,0.0
788,82.0,0.0,240.0,0.0,0.0
789,59.0,120.0,120.0,0.0,0.0
790,81.0,0.0,240.0,0.0,0.0
791,60.0,0.0,120.0,0.0,0.0
792,62.0,40.0,120.0,0.0,0.0
793,81.0,80.0,150.0,0.0,0.0
794,72.0,120.0,15.0,0.0,0.0
795,60.0,80.0,120.0,0.0,0.0
796,76.0,40.0,150.0,0.0,0.0
797,84.0,0.0,150.0,0.0,0.0
798,60.0,120.0,120.0,0.0,0.0
799,74.0,0.0,150.0,0.0,0.0
800,82.0,0.0,150.0,0.0,0.0
801,48.0,120.0,120.0,0.0,0.0
802,81.0,0.0,720.0,0.0,0.0
803,70.0,0.0,960.0,0.0,0.0
804,76.0,0.0,960.0,0.0,0.0
805,55.0,240.0,120.0,0.0,0.0
806,59.0,120.0,120.0,0.0,0.0
807,60.0,120.0,120.0,0.0,0.0
808,62.0,120.0,120.0,0.0,0.0
809,60.0,120.0,120.0,0.0,0.0
810,79.0,0.0,240.0,0.0,0.0
811,60.0,120.0,120.0,0.0,0.0
812,48.0,160.0,120.0,0.0,0.0
813,74.0,80.0,150.0,0.0,0.0
814,58.0,80.0,240.0,0.0,0.0
815,72.0,40.0,150.0,0.0,0.0
816,59.0,120.0,120.0,0.0,0.0
817,74.0,0.0,150.0,0.0,0.0
818,60.0,120.0,120.0,0.0,0.0
819,72.0,80.0,150.0,0.0,0.0
820,62.0,40.0,120.0,0.0,0.0
821,65.0,40.0,150.0,0.0,0.0
822,60.0,80.0,15.0,0.0,0.0
823,67.0,0.0,150.0,0.0,0.0
824,48.0,120.0,120.0,0.0,0.0
825,77.0,0.0,960.0,0.0,0.0
826,72.0,120.0,480.0,0.0,0.0
827,84.0,0.0,960.0,0.0,0.0
828,53.0,120.0,120.0,0.0,0.0
829,60.0,120.0,120.0,0.0,0.0
830,62.0,120.0,120.0,0.0,0.0
831,60.0,0.0,120.0,0.0,0.0
832,69.0,120.0,120.0,0.0,0.0
833,86.0,0.0,480.0,0.0,0.0
834,74.0,120.0,480.0,0.0,0.0
835,60.0,120.0,120.0,0.0,0.0
836,62.0,120.0,120.0,0.0,0.0
837,60.0,0.0,120.0,0.0,0.0
838,48.0,120.0,120.0,0.0,0.0
839,88.0,0.0,480.0,0.0,0.0
840,84.0,0.0,960.0,0.0,0.0
841,76.0,120.0,480.0,0.0,0.0
842,82.0,0.0,960.0,0.0,0.0
843,60.0,120.0,120.0,0.0,0.0
844,62.0,120.0,120.0,0.0,0.0
845,60.0,0.0,120.0,0.0,0.0
846,89.0,0.0,360.0,0.0,0.0
847,70.0,120.0,120.0,0.0,0.0
848,77.0,0.0,360.0,0.0,0.0
849,60.0,120.0,120.0,0.0,0.0
850,62.0,120.0,120.0,0.0,0.0
851,79.0,120.0,120.0,0.0,0.0
852,91.0,0.0,120.0,0.0,0.0
853,60.0,0.0,120.0,0.0,0.0
854,53.0,120.0,120.0,0.0,0.0
855,93.0,0.0,480.0,0.0,0.0
856,81.0,0.0,960.0,0.0,0.0
857,84.0,0.0,960.0,0.0,0.0
858,60.0,120.0,120.0,0.0,0.0
859,62.0,120.0,120.0,0.0,0.0
860,60.0,120.0,120.0,0.0,0.0
861,74.0,0.0,480.0,0.0,0.0
862,86.0,120.0,480.0,0.0,0.0
863,69.0,120.0,120.0,0.0,0.0
864,60.0,120.0,120.0,0.0,0.0
865,62.0,120.0,120.0,0.0,0.0
866,60.0,0.0,120.0,0.0,0.0
867,82.0,0.0,480.0,0.0,0.0
868,84.0,0.0,480.0,0.0,0.0
869,76.0,0.0,480.0,0.0,0.0
870,88.0,0.0,480.0,0.0,0.0
871,48.0,120.0,120.0,0.0,0.0
872,60.0,120.0,120.0,0.0,0.0
873,62.0,120.0,120.0,0.0,0.0
874,60.0,120.0,120.0,0.0,0.0
875,70.0,120.0,120.0,0.0,0.0
876,77.0,0.0,360.0,0.0,0.0
877,89.0,0.0,360.0,0.0,0.0
878,60.0,120.0,120.0,0.0,0.0
879,62.0,120.0,120.0,0.0,0.0
880,79.0,0.0,120.0,0.0,0.0
881,91.0,0.0,120.0,0.0,0.0
882,60.0,120.0,120.0,0.0,0.0
883,88.0,0.0,960.0,0.0,0.0
884,93.0,120.0,480.0,0.0,0.0
885,81.0,0.0,480.0,0.0,0.0
886,49.0,120.0,120.0,0.0,0.0
887,91.0,0.0,960.0,0.0,0.0
888,56.0,120.0,120.0,0.0,0.0
889,57.0,120.0,120.0,0.0,0.0
890,64.0,0.0,120.0,0.0,0.0
891,61.0,120.0,120.0,0.0,0.0
892,94.0,0.0,720.0,0.0,0.0
893,82.0,0.0,720.0,0.0,0.0
894,68.0,120.0,120.0,0.0,0.0
895,69.0,120.0,120.0,0.0,0.0
896,76.0,120.0,120.0,0.0,0.0
897,89.0,0.0,960.0,0.0,0.0
898,86.0,120.0,960.0,0.0,0.0
899,50.0,120.0,120.0,0.0,0.0
900,56.0,120.0,120.0,0.0,0.0
901,57.0,120.0,120.0,0.0,0.0
902,81.0,120.0,240.0,0.0,0.0
903,93.0,0.0,240.0,0.0,0.0
904,65.0,0.0,120.0,0.0,0.0
905,80.0,120.0,240.0,0.0,0.0
906,92.0,0.0,240.0,0.0,0.0
907,62.0,120.0,120.0,0.0,0.0
908,68.0,0.0,120.0,0.0,0.0
909,69.0,120.0,120.0,0.0,0.0
910,93.0,0.0,240.0,0.0,0.0
911,81.0,0.0,240.0,0.0,0.0
912,77.0,0.0,120.0,0.0,0.0
913,52.0,120.0,120.0,0.0,0.0
914,96.0,120.0,480.0,0.0,0.0
915,94.0,120.0,960.0,0.0,0.0
916,91.0,0.0,960.0,0.0,0.0
917,84.0,0.0,480.0,0.0,0.0
918,59.0,120.0,120.0,0.0,0.0
919,60.0,120.0,120.0,0.0,0.0
920,67.0,0.0,120.0,0.0,0.0
921,64.0,120.0,120.0,0.0,0.0
922,86.0,0.0,720.0,0.0,0.0
923,98.0,0.0,720.0,0.0,0.0
924,71.0,120.0,120.0,0.0,0.0
925,72.0,120.0,120.0,0.0,0.0
926,79.0,0.0,120.0,0.0,0.0
927,93.0,120.0,480.0,0.0,0.0
928,54.0,120.0,120.0,0.0,0.0
929,61.0,120.0,120.0,0.0,0.0
930,96.0,0.0,240.0,0.0,0.0
931,84.0,0.0,240.0,0.0,0.0
932,62.0,120.0,120.0,0.0,0.0
933,69.0,0.0,120.0,0.0,0.0
934,66.0,120.0,120.0,0.0,0.0
935,94.0,0.0,360.0,0.0,0.0
936,82.0,0.0,360.0,0.0,0.0
937,73.0,120.0,120.0,0.0,0.0
938,74.0,120.0,120.0,0.0,0.0
939,81.0,0.0,120.0,0.0,0.0
940,93.0,0.0,120.0,0.0,0.0
941,43.0,120.0,120.0,0.0,0.0
942,96.0,120.0,240.0,0.0,0.0
943,84.0,0.0,240.0,0.0,0.0
944,86.0,120.0,15.0,0.0,0.0
945,50.0,0.0,120.0,0.0,0.0
946,82.0,0.0,240.0,0.0,0.0
947,55.0,120.0,120.0,0.0,0.0
948,94.0,120.0,240.0,0.0,0.0
949,62.0,0.0,120.0,0.0,0.0
950,45.0,120.0,120.0,0.0,0.0
951,81.0,0.0,240.0,0.0,0.0
952,93.0,120.0,240.0,0.0,0.0
953,50.0,0.0,120.0,0.0,0.0
954,54.0,120.0,120.0,0.0,0.0
955,78.0,0.0,240.0,0.0,0.0
956,90.0,120.0,240.0,0.0,0.0
957,60.0,0.0,120.0,0.0,0.0
958,81.0,0.0,240.0,0.0,0.0
959,93.0,120.0,240.0,0.0,0.0
960,46.0,120.0,120.0,0.0,0.0
961,86.0,0.0,15.0,0.0,0.0
962,50.0,0.0,120.0,0.0,0.0
963,79.0,120.0,240.0,0.0,0.0
964,55.0,120.0,120.0,0.0,0.0
965,91.0,0.0,240.0,0.0,0.0
966,62.0,0.0,120.0,0.0,0.0
967,47.0,120.0,120.0,0.0,0.0
968,80.0,0.0,480.0,0.0,0.0
969,86.0,120.0,240.0,0.0,0.0
970,74.0,0.0,240.0,0.0,0.0
971,53.0,0.0,120.0,0.0,0.0
972,56.0,120.0,120.0,0.0,0.0
973,89.0,0.0,240.0,0.0,0.0
974,77.0,0.0,240.0,0.0,0.0
975,62.0,120.0,120.0,0.0,0.0
976,81.0,120.0,480.0,0.0,0.0
977,86.0,0.0,240.0,0.0,0.0
978,74.0,120.0,240.0,0.0,0.0
979,48.0,120.0,120.0,0.0,0.0
980,53.0,0.0,120.0,0.0,0.0
981,72.0,0.0,240.0,0.0,0.0
982,84.0,0.0,240.0,0.0,0.0
983,57.0,120.0,120.0,0.0,0.0
984,65.0,0.0,120.0,0.0,0.0
985,70.0,0.0,240.0,0.0,0.0
986,65.0,120.0,240.0,0.0,0.0
987,50.0,120.0,120.0,0.0,0.0
988,53.0,0.0,120.0,0.0,0.0
989,58.0,120.0,120.0,0.0,0.0
990,82.0,120.0,240.0,0.0,0.0
991,65.0,0.0,120.0,0.0,0.0
992,77.0,0.0,15.0,0.0,0.0
993,70.0,0.0,15.0,0.0,0.0
994,79.0,0.0,480.0,0.0,0.0
995,48.0,120.0,120.0,0.0,0.0
996,55.0,120.0,120.0,0.0,0.0
997,60.0,120.0,120.0,0.0,0.0
998,65.0,0.0,120.0,0.0,0.0
999,76.0,0.0,480.0,0.0,0.0
1000,81.0,0.0,240.0,0.0,0.0
1001,69.0,0.0,240.0,0.0,0.0
1002,46.0,120.0,120.0,0.0,0.0
1003,52.0,120.0,120.0,0.0,0.0
1004,82.0,0.0,240.0,0.0,0.0
1005,70.0,0.0,240.0,0.0,0.0
1006,55.0,120.0,120.0,0.0,0.0
1007,60.0,120.0,120.0,0.0,0.0
1008,74.0,0.0,240.0,0.0,0.0
1009,86.0,0.0,240.0,0.0,0.0
1010,45.0,120.0,120.0,0.0,0.0
1011,48.0,120.0,120.0,0.0,0.0
1012,73.0,0.0,240.0,0.0,0.0
1013,53.0,120.0,120.0,0.0,0.0
1014,85.0,0.0,240.0,0.0,0.0
1015,60.0,0.0,120.0,0.0,0.0
1016,72.0,80.0,150.0,0.0,0.0
1017,77.0,120.0,15.0,0.0,0.0
1018,84.0,0.0,150.0,0.0,0.0
1019,50.0,40.0,120.0,0.0,0.0
1020,53.0,80.0,120.0,0.0,0.0
1021,77.0,0.0,15.0,0.0,0.0
1022,65.0,40.0,150.0,0.0,0.0
1023,58.0,120.0,120.0,0.0,0.0
1024,82.0,0.0,150.0,0.0,0.0
1025,70.0,0.0,150.0,0.0,0.0
1026,65.0,0.0,120.0,0.0,0.0
1027,49.0,120.0,120.0,0.0,0.0
1028,77.0,120.0,15.0,0.0,0.0
1029,79.0,0.0,240.0,0.0,0.0
1030,70.0,0.0,480.0,0.0,0.0
1031,67.0,120.0,240.0,0.0,0.0
1032,53.0,0.0,120.0,0.0,0.0
1033,69.0,120.0,120.0,0.0,0.0
1034,81.0,0.0,120.0,0.0,0.0
1035,58.0,0.0,120.0,0.0,0.0
1036,65.0,120.0,120.0,0.0,0.0
1037,79.0,0.0,120.0,0.0,0.0
1038,67.0,0.0,120.0,0.0,0.0
1039,78.0,0.0,120.0,0.0,0.0
1040,76.0,0.0,480.0,0.0,0.0
1041,48.0,0.0,120.0,0.0,0.0
1042,66.0,120.0,120.0,0.0,0.0
1043,55.0,0.0,120.0,0.0,0.0
1044,67.0,120.0,120.0,0.0,0.0
1045,79.0,0.0,120.0,0.0,0.0
1046,64.0,0.0,120.0,0.0,0.0
1047,69.0,120.0,120.0,0.0,0.0
1048,81.0,0.0,120.0,0.0,0.0
1049,82.0,120.0,120.0,0.0,0.0
1050,46.0,0.0,120.0,0.0,0.0
1051,70.0,0.0,120.0,0.0,0.0
1052,45.0,40.0,120.0,0.0,0.0
1053,71.0,0.0,150.0,0.0,0.0
1054,83.0,80.0,150.0,0.0,0.0
1055,77.0,0.0,330.0,0.0,0.0
1056,48.0,80.0,120.0,0.0,0.0
1057,72.0,40.0,150.0,0.0,0.0
1058,84.0,0.0,150.0,0.0,0.0
1059,52.0,120.0,120.0,0.0,0.0
1060,81.0,0.0,150.0,0.0,0.0
1061,93.0,0.0,150.0,0.0,0.0
1062,60.0,120.0,120.0,0.0,0.0
1063,50.0,40.0,120.0,0.0,0.0
1064,79.0,0.0,150.0,0.0,0.0
1065,91.0,80.0,150.0,0.0,0.0
1066,53.0,80.0,120.0,0.0,0.0
1067,89.0,0.0,150.0,0.0,0.0
1068,77.0,0.0,150.0,0.0,0.0
1069,58.0,120.0,120.0,0.0,0.0
1070,77.0,120.0,150.0,0.0,0.0
1071,82.0,40.0,15.0,0.0,0.0
1072,70.0,0.0,150.0,0.0,0.0
1073,65.0,0.0,120.0,0.0,0.0
1074,48.0,120.0,120.0,0.0,0.0
1075,67.0,0.0,480.0,0.0,0.0
1076,79.0,60.0,900.0,0.0,0.0
1077,72.0,0.0,720.0,0.0,0.0
1078,77.0,120.0,480.0,0.0,0.0
1079,55.0,120.0,120.0,0.0,0.0
1080,60.0,120.0,120.0,0.0,0.0
1081,65.0,0.0,120.0,0.0,0.0
1082,70.0,0.0,240.0,0.0,0.0
1083,48.0,120.0,120.0,0.0,0.0
1084,76.0,120.0,240.0,0.0,0.0
1085,55.0,0.0,120.0,0.0,0.0
1086,60.0,60.0,120.0,0.0,0.0
1087,64.0,0.0,120.0,0.0,0.0
1088,60.0,80.0,150.0,0.0,0.0
1089,53.0,0.0,150.0,0.0,0.0
1090,77.0,160.0,15.0,0.0,0.0
1091,69.0,0.0,150.0,0.0,0.0
1092,65.0,0.0,15.0,0.0,0.0
1093,74.0,0.0,90.0,0.0,0.0
1094,67.0,160.0,90.0,0.0,0.0
1095,55.0,0.0,90.0,0.0,0.0
1096,59.0,0.0,90.0,0.0,0.0
1097,59.0,0.0,90.0,0.0,0.0
1098,67.0,0.0,90.0,0.0,0.0
1099,74.0,0.0,90.0,0.0,0.0
1100,55.0,0.0,90.0,0.0,0.0
1101,65.0,240.0,90.0,0.0,0.0
1102,59.0,80.0,150.0,0.0,0.0
1103,55.0,0.0,150.0,0.0,0.0
1104,65.0,0.0,150.0,0.0,0.0
1105,67.0,0.0,150.0,0.0,0.0
1106,74.0,0.0,150.0,0.0,0.0
1107,60.0,0.0,90.0,0.0,0.0
1108,72.0,0.0,90.0,0.0,0.0
1109,64.0,160.0,90.0,0.0,0.0
1110,60.0,0.0,90.0,0.0,0.0
1111,72.0,240.0,90.0,0.0,0.0
1112,67.0,0.0,90.0,0.0,0.0
1113,76.0,0.0,90.0,0.0,0.0
1114,82.0,0.0,90.0,0.0,0.0
1115,60.0,80.0,150.0,0.0,0.0
1116,67.0,0.0,150.0,0.0,0.0
1117,82.0,0.0,150.0,0.0,0.0
1118,76.0,0.0,150.0,0.0,0.0
1119,77.0,160.0,90.0,0.0,0.0
1120,81.0,0.0,90.0,0.0,0.0
1121,72.0,0.0,15.0,0.0,0.0
1122,65.0,0.0,90.0,0.0,0.0
1123,79.0,0.0,90.0,0.0,0.0
1124,86.0,0.0,90.0,0.0,0.0
1125,71.0,240.0,90.0,0.0,0.0
1126,67.0,0.0,90.0,0.0,0.0
1127,77.0,0.0,90.0,0.0,0.0
1128,86.0,80.0,150.0,0.0,0.0
1129,77.0,0.0,150.0,0.0,0.0
1130,79.0,0.0,150.0,0.0,0.0
1131,67.0,0.0,150.0,0.0,0.0
1132,71.0,0.0,150.0,0.0,0.0
1133,84.0,0.0,90.0,0.0,0.0
1134,72.0,160.0,90.0,0.0,0.0
1135,76.0,0.0,90.0,0.0,0.0
1136,79.0,240.0,90.0,0.0,0.0
1137,84.0,0.0,90.0,0.0,0.0
1138,72.0,0.0,90.0,0.0,0.0
1139,94.0,0.0,90.0,0.0,0.0
1140,88.0,0.0,90.0,0.0,0.0
1141,79.0,80.0,150.0,0.0,0.0
1142,88.0,0.0,150.0,0.0,0.0
1143,94.0,0.0,150.0,0.0,0.0
1144,72.0,0.0,150.0,0.0,0.0
1145,84.0,0.0,150.0,0.0,0.0
1146,93.0,0.0,90.0,0.0,0.0
1147,89.0,160.0,90.0,0.0,0.0
1148,84.0,0.0,90.0,0.0,0.0
1149,77.0,0.0,90.0,0.0,0.0
1150,67.0,0.0,90.0,0.0,0.0
1151,77.0,0.0,90.0,0.0,0.0
1152,71.0,0.0,90.0,0.0,0.0
1153,79.0,0.0,90.0,0.0,0.0
1154,86.0,240.0,90.0,0.0,0.0
1155,79.0,80.0,150.0,0.0,0.0
1156,77.0,0.0,150.0,0.0,0.0
1157,71.0,0.0,150.0,0.0,0.0
1158,67.0,0.0,150.0,0.0,0.0
1159,86.0,0.0,150.0,0.0,0.0
1160,72.0,0.0,90.0,0.0,0.0
1161,76.0,0.0,90.0,0.0,0.0
1162,84.0,160.0,90.0,0.0,0.0
1163,72.0,0.0,90.0,0.0,0.0
1164,82.0,0.0,90.0,0.0,0.0
1165,76.0,240.0,90.0,0.0,0.0
1166,67.0,0.0,90.0,0.0,0.0
1167,60.0,0.0,90.0,0.0,0.0
1168,82.0,0.0,150.0,0.0,0.0
1169,60.0,0.0,150.0,0.0,0.0
1170,67.0,0.0,150.0,0.0,0.0
1171,76.0,0.0,150.0,0.0,0.0
1172,81.0,0.0,90.0,0.0,0.0
1173,77.0,0.0,90.0,0.0,0.0
1174,72.0,80.0,15.0,0.0,0.0
1175,65.0,160.0,90.0,0.0,0.0
1176,59.0,0.0,90.0,0.0,0.0
1177,55.0,0.0,90.0,0.0,0.0
1178,65.0,0.0,90.0,0.0,0.0
1179,74.0,240.0,90.0,0.0,0.0
1180,67.0,0.0,90.0,0.0,0.0
1181,65.0,0.0,150.0,0.0,0.0
1182,55.0,0.0,150.0,0.0,0.0
1183,59.0,0.0,150.0,0.0,0.0
1184,74.0,80.0,150.0,0.0,0.0
1185,67.0,0.0,150.0,0.0,0.0
1186,72.0,160.0,90.0,0.0,0.0
1187,64.0,0.0,90.0,0.0,0.0
1188,60.0,0.0,90.0,0.0,0.0
1189,60.0,0.0,90.0,0.0,0.0
1190,48.0,0.0,90.0,0.0,0.0
1191,55.0,0.0,90.0,0.0,0.0
1192,64.0,240.0,90.0,0.0,0.0
1193,70.0,0.0,90.0,0.0,0.0
1194,64.0,80.0,150.0,0.0,0.0
1195,70.0,0.0,150.0,0.0,0.0
1196,48.0,0.0,150.0,0.0,0.0
1197,55.0,0.0,150.0,0.0,0.0
1198,53.0,0.0,90.0,0.0,0.0
1199,60.0,0.0,15.0,0.0,0.0
1200,69.0,160.0,90.0,0.0,0.0
1201,65.0,0.0,90.0,0.0,0.0
1202,65.0,240.0,90.0,0.0,0.0
1203,68.0,0.0,90.0,0.0,0.0
1204,73.0,0.0,90.0,0.0,0.0
1205,59.0,0.0,90.0,0.0,0.0
1206,73.0,0.0,150.0,0.0,0.0
1207,68.0,80.0,150.0,0.0,0.0
1208,59.0,0.0,150.0,0.0,0.0
1209,65.0,0.0,150.0,0.0,0.0
1210,64.0,0.0,90.0,0.0,0.0
1211,72.0,0.0,90.0,0.0,0.0
1212,67.0,160.0,90.0,0.0,0.0
1213,60.0,0.0,90.0,0.0,0.0
1214,67.0,0.0,90.0,0.0,0.0
1215,60.0,0.0,90.0,0.0,0.0
1216,76.0,0.0,90.0,0.0,0.0
1217,82.0,0.0,90.0,0.0,0.0
1218,72.0,240.0,90.0,0.0,0.0
1219,82.0,0.0,150.0,0.0,0.0
1220,67.0,0.0,150.0,0.0,0.0
1221,60.0,0.0,150.0,0.0,0.0
1222,76.0,80.0,150.0,0.0,0.0
1223,72.0,0.0,15.0,0.0,0.0
1224,65.0,160.0,90.0,0.0,0.0
1225,77.0,0.0,90.0,0.0,0.0
1226,81.0,0.0,90.0,0.0,0.0
1227,85.0,0.0,90.0,0.0,0.0
1228,71.0,240.0,90.0,0.0,0.0
1229,77.0,0.0,90.0,0.0,0.0
1230,80.0,0.0,90.0,0.0,0.0
1231,77.0,80.0,150.0,0.0,0.0
1232,80.0,0.0,150.0,0.0,0.0
1233,85.0,0.0,150.0,0.0,0.0
1234,71.0,0.0,150.0,0.0,0.0
1235,84.0,0.0,90.0,0.0,0.0
1236,79.0,0.0,90.0,0.0,0.0
1237,76.0,0.0,90.0,0.0,0.0
1238,72.0,160.0,90.0,0.0,0.0
1239,72.0,0.0,90.0,0.0,0.0
1240,79.0,0.0,90.0,0.0,0.0
1241,84.0,0.0,90.0,0.0,0.0
1242,88.0,240.0,90.0,0.0,0.0
1243,94.0,0.0,90.0,0.0,0.0
1244,84.0,0.0,150.0,0.0,0.0
1245,72.0,80.0,150.0,0.0,0.0
1246,88.0,0.0,150.0,0.0,0.0
1247,94.0,0.0,150.0,0.0,0.0
1248,79.0,0.0,150.0,0.0,0.0
1249,93.0,0.0,90.0,0.0,0.0
1250,89.0,160.0,90.0,0.0,0.0
1251,77.0,0.0,90.0,0.0,0.0
1252,84.0,0.0,90.0,0.0,0.0
1253,77.0,0.0,90.0,0.0,0.0
1254,71.0,0.0,90.0,0.0,0.0
1255,80.0,240.0,90.0,0.0,0.0
1256,85.0,0.0,90.0,0.0,0.0
1257,71.0,80.0,150.0,0.0,0.0
1258,77.0,0.0,150.0,0.0,0.0
1259,80.0,0.0,150.0,0.0,0.0
1260,85.0,0.0,150.0,0.0,0.0
1261,79.0,0.0,90.0,0.0,0.0
1262,84.0,0.0,90.0,0.0,0.0
1263,72.0,0.0,90.0,0.0,0.0
1264,76.0,160.0,90.0,0.0,0.0
1265,60.0,0.0,90.0,0.0,0.0
1266,67.0,0.0,90.0,0.0,0.0
1267,72.0,240.0,90.0,0.0,0.0
1268,76.0,0.0,90.0,0.0,0.0
1269,82.0,0.0,90.0,0.0,0.0
1270,72.0,80.0,150.0,0.0,0.0
1271,82.0,0.0,150.0,0.0,0.0
1272,76.0,0.0,150.0,0.0,0.0
1273,67.0,0.0,150.0,0.0,0.0
1274,60.0,0.0,150.0,0.0,0.0
1275,81.0,0.0,90.0,0.0,0.0
1276,77.0,160.0,90.0,0.0,0.0
1277,65.0,0.0,90.0,0.0,0.0
1278,72.0,0.0,90.0,0.0,0.0
1279,73.0,0.0,90.0,0.0,0.0
1280,65.0,0.0,90.0,0.0,0.0
1281,68.0,0.0,90.0,0.0,0.0
1282,59.0,240.0,90.0,0.0,0.0
1283,68.0,0.0,150.0,0.0,0.0
1284,73.0,80.0,150.0,0.0,0.0
1285,65.0,0.0,150.0,0.0,0.0
1286,59.0,0.0,150.0,0.0,0.0
1287,72.0,0.0,90.0,0.0,0.0
1288,67.0,0.0,90.0,0.0,0.0
1289,60.0,0.0,90.0,0.0,0.0
1290,64.0,160.0,90.0,0.0,0.0
1291,70.0,240.0,90.0,0.0,0.0
1292,60.0,0.0,90.0,0.0,0.0
1293,48.0,0.0,90.0,0.0,0.0
1294,67.0,0.0,90.0,0.0,0.0
1295,64.0,0.0,90.0,0.0,0.0
1296,70.0,0.0,150.0,0.0,0.0
1297,64.0,0.0,150.0,0.0,0.0
1298,67.0,80.0,150.0,0.0,0.0
1299,48.0,0.0,150.0,0.0,0.0
1300,60.0,0.0,150.0,0.0,0.0
1301,59.0,160.0,90.0,0.0,0.0
1302,47.0,0.0,90.0,0.0,0.0
1303,68.0,0.0,90.0,0.0,0.0
1304,64.0,0.0,90.0,0.0,0.0
1305,71.0,0.0,90.0,0.0,0.0
1306,61.0,0.0,90.0,0.0,0.0
1307,76.0,240.0,90.0,0.0,0.0
1308,66.0,0.0,90.0,0.0,0.0
1309,70.0,0.0,90.0,0.0,0.0
1310,59.0,0.0,90.0,0.0,0.0
1311,59.0,0.0,150.0,0.0,0.0
1312,70.0,0.0,150.0,0.0,0.0
1313,66.0,0.0,150.0,0.0,0.0
1314,61.0,80.0,150.0,0.0,0.0
1315,76.0,0.0,150.0,0.0,0.0
1316,66.0,0.0,90.0,0.0,0.0
1317,59.0,160.0,90.0,0.0,0.0
1318,63.0,0.0,90.0,0.0,0.0
1319,71.0,0.0,90.0,0.0,0.0
1320,75.0,0.0,90.0,0.0,0.0
1321,69.0,0.0,90.0,0.0,0.0
1322,71.0,0.0,90.0,0.0,0.0
1323,75.0,240.0,90.0,0.0,0.0
1324,66.0,0.0,90.0,0.0,0.0
1325,59.0,0.0,90.0,0.0,0.0
1326,81.0,0.0,90.0,0.0,0.0
1327,69.0,0.0,150.0,0.0,0.0
1328,66.0,0.0,150.0,0.0,0.0
1329,81.0,80.0,150.0,0.0,0.0
1330,75.0,0.0,150.0,0.0,0.0
1331,80.0,0.0,90.0,0.0,0.0
1332,76.0,0.0,90.0,0.0,0.0
1333,64.0,160.0,90.0,0.0,0.0
1334,59.0,0.0,15.0,0.0,0.0
1335,68.0,0.0,90.0,0.0,0.0
1336,71.0,0.0,15.0,0.0,0.0
1337,73.0,0.0,90.0,0.0,0.0
1338,76.0,0.0,90.0,0.0,0.0
1339,78.0,0.0,90.0,0.0,0.0
1340,82.0,0.0,90.0,0.0,0.0
1341,66.0,0.0,90.0,0.0,0.0
1342,59.0,240.0,90.0,0.0,0.0
1343,88.0,0.0,90.0,0.0,0.0
1344,66.0,0.0,150.0,0.0,0.0
1345,73.0,0.0,150.0,0.0,0.0
1346,76.0,80.0,150.0,0.0,0.0
1347,88.0,0.0,150.0,0.0,0.0
1348,78.0,0.0,150.0,0.0,0.0
1349,82.0,0.0,150.0,0.0,0.0
1350,83.0,0.0,90.0,0.0,0.0
1351,87.0,160.0,90.0,0.0,0.0
1352,75.0,0.0,90.0,0.0,0.0
1353,59.0,0.0,15.0,0.0,0.0
1354,66.0,0.0,90.0,0.0,0.0
1355,71.0,0.0,90.0,0.0,0.0
1356,93.0,0.0,90.0,0.0,0.0
1357,83.0,0.0,90.0,0.0,0.0
1358,81.0,0.0,90.0,0.0,0.0
1359,87.0,240.0,90.0,0.0,0.0
1360,66.0,0.0,90.0,0.0,0.0
1361,59.0,0.0,90.0,0.0,0.0
1362,71.0,0.0,90.0,0.0,0.0
1363,93.0,0.0,150.0,0.0,0.0
1364,87.0,0.0,150.0,0.0,0.0
1365,83.0,0.0,150.0,0.0,0.0
1366,71.0,160.0,150.0,0.0,0.0
1367,59.0,0.0,150.0,0.0,0.0
1368,81.0,0.0,150.0,0.0,0.0
1369,78.0,160.0,150.0,0.0,0.0
1370,74.0,0.0,150.0,0.0,0.0
1371,66.0,0.0,15.0,0.0,0.0
1372,72.0,0.0,150.0,0.0,0.0
1373,75.0,0.0,150.0,0.0,0.0
1374,57.0,160.0,150.0,0.0,0.0
1375,84.0,0.0,150.0,0.0,0.0
1376,77.0,160.0,150.0,0.0,0.0
1377,60.0,0.0,150.0,0.0,0.0
1378,69.0,0.0,150.0,0.0,0.0
1379,81.0,0.0,150.0,0.0,0.0
1380,78.0,160.0,150.0,0.0,0.0
1381,87.0,0.0,150.0,0.0,0.0
1382,54.0,0.0,150.0,0.0,0.0
1383,80.0,0.0,150.0,0.0,0.0
1384,84.0,0.0,150.0,0.0,0.0
1385,66.0,0.0,150.0,0.0,0.0
1386,60.0,160.0,150.0,0.0,0.0
1387,81.0,160.0,150.0,0.0,0.0
1388,90.0,0.0,150.0,0.0,0.0
1389,51.0,0.0,150.0,0.0,0.0
1390,57.0,0.0,150.0,0.0,0.0
1391,63.0,160.0,150.0,0.0,0.0
1392,87.0,0.0,150.0,0.0,0.0
1393,83.0,0.0,150.0,0.0,0.0
1394,93.0,160.0,150.0,0.0,0.0
1395,48.0,0.0,150.0,0.0,0.0
1396,84.0,0.0,150.0,0.0,0.0
1397,86.0,160.0,150.0,0.0,0.0
1398,90.0,0.0,150.0,0.0,0.0
1399,60.0,0.0,150.0,0.0,0.0
1400,54.0,0.0,150.0,0.0,0.0
1401,96.0,160.0,150.0,0.0,0.0
1402,87.0,0.0,150.0,0.0,0.0
1403,45.0,0.0,15.0,0.0,0.0
1404,33.0,0.0,150.0,0.0,0.0
1405,87.0,160.0,150.0,0.0,0.0
1406,99.0,0.0,150.0,0.0,0.0
1407,100.0,0.0,150.0,0.0,0.0
1408,32.0,160.0,150.0,0.0,0.0
1409,56.0,0.0,150.0,0.0,0.0
1410,44.0,0.0,150.0,0.0,0.0
1411,88.0,0.0,150.0,0.0,0.0
1412,76.0,160.0,150.0,0.0,0.0
1413,44.0,0.0,150.0,0.0,0.0
1414,56.0,0.0,150.0,0.0,0.0
1415,71.0,0.0,150.0,0.0,0.0
1416,64.0,0.0,150.0,0.0,0.0
1417,56.0,0.0,150.0,0.0,0.0
1418,44.0,0.0,150.0,0.0,0.0
1419,71.0,0.0,150.0,0.0,0.0
1420,44.0,0.0,150.0,0.0,0.0
1421,76.0,160.0,15.0,0.0,0.0
1422,72.0,0.0,150.0,0.0,0.0
1423,64.0,0.0,15.0,0.0,0.0
1424,56.0,0.0,15.0,0.0,0.0
1425,44.0,0.0,150.0,0.0,0.0
1426,64.0,0.0,150.0,0.0,0.0
1427,72.0,0.0,150.0,0.0,0.0
1428,76.0,160.0,15.0,0.0,0.0
1429,64.0,160.0,150.0,0.0,0.0
1430,72.0,0.0,150.0,0.0,0.0
1431,56.0,0.0,15.0,0.0,0.0
1432,44.0,0.0,15.0,0.0,0.0
1433,43.0,0.0,150.0,0.0,0.0
1434,76.0,160.0,15.0,0.0,0.0
1435,55.0,0.0,150.0,0.0,0.0
1436,72.0,0.0,15.0,0.0,0.0
1437,64.0,0.0,15.0,0.0,0.0
1438,43.0,160.0,150.0,0.0,0.0
1439,64.0,0.0,150.0,0.0,0.0
1440,72.0,160.0,15.0,0.0,0.0
1441,76.0,0.0,150.0,0.0,0.0
1442,55.0,0.0,150.0,0.0,0.0
1443,43.0,0.0,150.0,0.0,0.0
1444,55.0,160.0,150.0,0.0,0.0
1445,76.0,0.0,150.0,0.0,0.0
1446,64.0,0.0,150.0,0.0,0.0
1447,72.0,0.0,150.0,0.0,0.0
1448,56.0,0.0,15.0,0.0,0.0
1449,72.0,0.0,15.0,0.0,0.0
1450,44.0,0.0,15.0,0.0,0.0
1451,76.0,0.0,15.0,0.0,0.0
1452,64.0,160.0,15.0,0.0,0.0
1453,76.0,0.0,15.0,0.0,0.0
1454,64.0,0.0,15.0,0.0,0.0
1455,72.0,0.0,15.0,0.0,0.0
1456,44.0,0.0,90.0,0.0,0.0
1457,56.0,80.0,15.0,0.0,0.0
1458,56.0,0.0,90.0,0.0,0.0
1459,44.0,160.0,90.0,0.0,0.0
1460,64.0,0.0,90.0,0.0,0.0
1461,73.0,0.0,90.0,0.0,0.0
1462,76.0,0.0,90.0,0.0,0.0
1463,44.0,0.0,90.0,0.0,0.0
1464,56.0,0.0,90.0,0.0,0.0
1465,76.0,160.0,90.0,0.0,0.0
1466,73.0,0.0,90.0,0.0,0.0
1467,64.0,0.0,90.0,0.0,0.0
1468,73.0,0.0,90.0,0.0,0.0
1469,76.0,0.0,90.0,0.0,0.0
1470,64.0,0.0,90.0,0.0,0.0
1471,56.0,0.0,90.0,0.0,0.0
1472,44.0,160.0,90.0,0.0,0.0
1473,56.0,0.0,90.0,0.0,0.0
1474,73.0,0.0,90.0,0.0,0.0
1475,44.0,160.0,90.0,0.0,0.0
1476,65.0,0.0,90.0,0.0,0.0
1477,77.0,0.0,90.0,0.0,0.0
1478,65.0,160.0,90.0,0.0,0.0
1479,73.0,0.0,90.0,0.0,0.0
1480,77.0,0.0,90.0,0.0,0.0
1481,44.0,0.0,90.0,0.0,0.0
1482,56.0,0.0,90.0,0.0,0.0
1483,44.0,0.0,90.0,0.0,0.0
1484,77.0,160.0,90.0,0.0,0.0
1485,73.0,0.0,90.0,0.0,0.0
1486,65.0,0.0,90.0,0.0,0.0
1487,56.0,0.0,90.0,0.0,0.0
1488,55.0,160.0,90.0,0.0,0.0
1489,77.0,0.0,90.0,0.0,0.0
1490,65.0,0.0,90.0,0.0,0.0
1491,73.0,0.0,90.0,0.0,0.0
1492,43.0,0.0,90.0,0.0,0.0
1493,65.0,0.0,90.0,0.0,0.0
1494,55.0,0.0,90.0,0.0,0.0
1495,43.0,0.0,90.0,0.0,0.0
1496,73.0,160.0,90.0,0.0,0.0
1497,77.0,0.0,90.0,0.0,0.0
1498,55.0,0.0,90.0,0.0,0.0
1499,43.0,0.0,90.0,0.0,0.0
1500,65.0,160.0,90.0,0.0,0.0
1501,73.0,0.0,90.0,0.0,0.0
1502,77.0,0.0,90.0,0.0,0.0
1503,56.0,0.0,90.0,0.0,0.0
1504,44.0,0.0,90.0,0.0,0.0
1505,65.0,0.0,90.0,0.0,0.0
1506,72.0,0.0,90.0,0.0,0.0
1507,77.0,160.0,90.0,0.0,0.0
1508,56.0,0.0,90.0,0.0,0.0
1509,77.0,0.0,90.0,0.0,0.0
1510,65.0,0.0,90.0,0.0,0.0
1511,71.0,0.0,90.0,0.0,0.0
1512,44.0,160.0,90.0,0.0,0.0
1513,45.0,0.0,90.0,0.0,0.0
1514,57.0,0.0,90.0,0.0,0.0
1515,77.0,0.0,90.0,0.0,0.0
1516,72.0,0.0,90.0,0.0,0.0
1517,65.0,240.0,90.0,0.0,0.0
1518,81.0,0.0,150.0,0.0,0.0
1519,72.0,0.0,150.0,0.0,0.0
1520,69.0,0.0,150.0,0.0,0.0
1521,60.0,0.0,150.0,0.0,0.0
1522,65.0,0.0,150.0,0.0,0.0
1523,53.0,160.0,15.0,0.0,0.0
1524,65.0,0.0,150.0,0.0,0.0
1525,81.0,160.0,15.0,0.0,0.0
1526,72.0,0.0,15.0,0.0,0.0
1527,69.0,0.0,15.0,0.0,0.0
1528,65.0,0.0,150.0,0.0,0.0
1529,60.0,0.0,15.0,0.0,0.0
1530,53.0,0.0,15.0,0.0,0.0
1531,67.0,0.0,150.0,0.0,0.0
1532,79.0,160.0,150.0,0.0,0.0
1533,77.0,160.0,150.0,0.0,0.0
1534,65.0,0.0,150.0,0.0,0.0
1535,34.0,160.0,150.0,0.0,0.0
1536,46.0,0.0,150.0,0.0,0.0
1537,81.0,0.0,150.0,0.0,0.0
1538,53.0,0.0,150.0,0.0,0.0
1539,65.0,0.0,150.0,0.0,0.0
1540,74.0,160.0,150.0,0.0,0.0
1541,58.0,0.0,15.0,0.0,0.0
1542,65.0,0.0,150.0,0.0,0.0
1543,53.0,0.0,150.0,0.0,0.0
1544,69.0,0.0,15.0,0.0,0.0
1545,53.0,0.0,150.0,0.0,0.0
1546,58.0,0.0,150.0,0.0,0.0
1547,81.0,160.0,15.0,0.0,0.0
1548,74.0,0.0,15.0,0.0,0.0
1549,69.0,0.0,15.0,0.0,0.0
1550,65.0,0.0,150.0,0.0,0.0
1551,79.0,0.0,150.0,0.0,0.0
1552,67.0,160.0,150.0,0.0,0.0
1553,77.0,0.0,150.0,0.0,0.0
1554,65.0,160.0,150.0,0.0,0.0
1555,36.0,0.0,150.0,0.0,0.0
1556,48.0,160.0,150.0,0.0,0.0
1557,81.0,0.0,150.0,0.0,0.0
1558,53.0,0.0,150.0,0.0,0.0
1559,60.0,0.0,150.0,0.0,0.0
1560,69.0,160.0,150.0,0.0,0.0
1561,72.0,0.0,150.0,0.0,0.0
1562,60.0,0.0,150.0,0.0,0.0
1563,53.0,0.0,150.0,0.0,0.0
1564,65.0,0.0,15.0,0.0,0.0
1565,81.0,160.0,150.0,0.0,0.0
1566,65.0,0.0,15.0,0.0,0.0
1567,53.0,0.0,150.0,0.0,0.0
1568,69.0,0.0,15.0,0.0,0.0
1569,72.0,0.0,15.0,0.0,0.0
1570,81.0,0.0,150.0,0.0,0.0
1571,60.0,160.0,150.0,0.0,0.0
1572,79.0,160.0,150.0,0.0,0.0
1573,67.0,0.0,150.0,0.0,0.0
1574,65.0,0.0,150.0,0.0,0.0
1575,77.0,160.0,150.0,0.0,0.0
1576,50.0,0.0,150.0,0.0,0.0
1577,38.0,160.0,150.0,0.0,0.0
1578,65.0,0.0,15.0,0.0,0.0
1579,62.0,0.0,15.0,0.0,0.0
1580,81.0,160.0,15.0,0.0,0.0
1581,71.0,0.0,15.0,0.0,0.0
1582,55.0,0.0,15.0,0.0,0.0
1583,69.0,0.0,15.0,0.0,0.0
1584,65.0,0.0,15.0,0.0,0.0
1585,71.0,0.0,15.0,0.0,0.0
1586,69.0,0.0,15.0,0.0,0.0
1587,81.0,160.0,15.0,0.0,0.0
1588,62.0,0.0,15.0,0.0,0.0
1589,55.0,0.0,150.0,0.0,0.0
1590,79.0,0.0,150.0,0.0,0.0
1591,67.0,160.0,150.0,0.0,0.0
1592,77.0,0.0,150.0,0.0,0.0
1593,65.0,1920.0,15.0,0.0,0.0
1594,59.0,0.0,1920.0,0.0,0.0
1595,55.0,0.0,1920.0,0.0,0.0
1596,67.0,1920.0,1920.0,0.0,0.0
1597,31.0,0.0,1920.0,0.0,0.0
1598,43.0,0.0,1920.0,0.0,0.0
1599,36.0,0.0,1920.0,0.0,0.0
1600,48.0,120.0,1920.0,0.0,0.0
1601,58.0,0.0,1920.0,0.0,0.0
1602,69.0,0.0,1920.0,0.0,0.0
1603,64.0,0.0,1920.0,0.0,0.0
1604,38.0,120.0,120.0,0.0,0.0
1605,50.0,0.0,120.0,0.0,0.0
1606,57.0,120.0,120.0,0.0,0.0
1607,65.0,0.0,120.0,0.0,0.0
1608,53.0,0.0,120.0,0.0,0.0
1609,62.0,120.0,120.0,0.0,0.0
1610,45.0,120.0,120.0,0.0,0.0
1611,38.0,120.0,120.0,0.0,0.0
1612,50.0,0.0,120.0,0.0,0.0
1613,57.0,120.0,120.0,0.0,0.0
1614,53.0,0.0,120.0,0.0,0.0
1615,65.0,120.0,120.0,0.0,0.0
1616,62.0,0.0,120.0,0.0,0.0
1617,45.0,120.0,120.0,0.0,0.0
1618,50.0,120.0,120.0,0.0,0.0
1619,38.0,0.0,120.0,0.0,0.0
1620,57.0,120.0,120.0,0.0,0.0
1621,62.0,120.0,120.0,0.0,0.0
1622,65.0,0.0,120.0,0.0,0.0
1623,53.0,0.0,120.0,0.0,0.0
1624,45.0,120.0,120.0,0.0,0.0
1625,38.0,0.0,120.0,0.0,0.0
1626,50.0,120.0,120.0,0.0,0.0
1627,57.0,120.0,120.0,0.0,0.0
1628,65.0,0.0,120.0,0.0,0.0
1629,62.0,120.0,120.0,0.0,0.0
1630,53.0,0.0,120.0,0.0,0.0
1631,45.0,120.0,120.0,0.0,0.0
1632,50.0,0.0,120.0,0.0,0.0
1633,38.0,120.0,120.0,0.0,0.0
1634,57.0,120.0,120.0,0.0,0.0
1635,53.0,0.0,120.0,0.0,0.0
1636,65.0,0.0,120.0,0.0,0.0
1637,62.0,120.0,120.0,0.0,0.0
1638,45.0,120.0,120.0,0.0,0.0
1639,50.0,0.0,120.0,0.0,0.0
1640,38.0,120.0,120.0,0.0,0.0
1641,57.0,120.0,120.0,0.0,0.0
1642,53.0,120.0,120.0,0.0,0.0
1643,65.0,0.0,120.0,0.0,0.0
1644,62.0,0.0,120.0,0.0,0.0
1645,45.0,120.0,120.0,0.0,0.0
1646,50.0,0.0,120.0,0.0,0.0
1647,38.0,120.0,120.0,0.0,0.0
1648,57.0,120.0,120.0,0.0,0.0
1649,65.0,0.0,120.0,0.0,0.0
1650,53.0,120.0,120.0,0.0,0.0
1651,62.0,0.0,120.0,0.0,0.0
1652,45.0,120.0,120.0,0.0,0.0
1653,38.0,120.0,120.0,0.0,0.0
1654,50.0,0.0,120.0,0.0,0.0
1655,57.0,120.0,120.0,0.0,0.0
1656,53.0,120.0,120.0,0.0,0.0
1657,65.0,0.0,120.0,0.0,0.0
1658,62.0,0.0,120.0,0.0,0.0
1659,57.0,120.0,120.0,0.0,0.0
1660,77.0,0.0,120.0,0.0,0.0
1661,50.0,60.0,120.0,0.0,0.0
1662,57.0,120.0,120.0,0.0,0.0
1663,74.0,60.0,60.0,0.0,0.0
1664,65.0,0.0,120.0,0.0,0.0
1665,62.0,120.0,120.0,0.0,0.0
1666,76.0,120.0,120.0,0.0,0.0
1667,57.0,0.0,120.0,0.0,0.0
1668,50.0,0.0,120.0,0.0,0.0
1669,77.0,60.0,120.0,0.0,0.0
1670,74.0,60.0,60.0,0.0,0.0
1671,57.0,120.0,120.0,0.0,0.0
1672,62.0,120.0,120.0,0.0,0.0
1673,65.0,0.0,120.0,0.0,0.0
1674,57.0,120.0,120.0,0.0,0.0
1675,50.0,0.0,120.0,0.0,0.0
1676,77.0,60.0,120.0,0.0,0.0
1677,74.0,60.0,60.0,0.0,0.0
1678,57.0,120.0,120.0,0.0,0.0
1679,65.0,120.0,120.0,0.0,0.0
1680,62.0,0.0,120.0,0.0,0.0
1681,76.0,0.0,120.0,0.0,0.0
1682,57.0,120.0,120.0,0.0,0.0
1683,77.0,60.0,120.0,0.0,0.0
1684,50.0,0.0,120.0,0.0,0.0
1685,57.0,120.0,120.0,0.0,0.0
1686,74.0,60.0,60.0,0.0,0.0
1687,65.0,0.0,120.0,0.0,0.0
1688,62.0,120.0,120.0,0.0,0.0
1689,57.0,120.0,120.0,0.0,0.0
1690,50.0,0.0,120.0,0.0,0.0
1691,77.0,60.0,120.0,0.0,0.0
1692,74.0,60.0,60.0,0.0,0.0
1693,57.0,120.0,120.0,0.0,0.0
1694,62.0,120.0,120.0,0.0,0.0
1695,65.0,0.0,120.0,0.0,0.0
1696,76.0,0.0,120.0,0.0,0.0
1697,57.0,120.0,120.0,0.0,0.0
1698,77.0,60.0,120.0,0.0,0.0
1699,50.0,0.0,120.0,0.0,0.0
1700,86.0,60.0,60.0,0.0,0.0
1701,57.0,120.0,120.0,0.0,0.0
1702,62.0,0.0,120.0,0.0,0.0
1703,65.0,120.0,120.0,0.0,0.0
1704,57.0,120.0,120.0,0.0,0.0
1705,52.0,0.0,120.0,0.0,0.0
1706,85.0,60.0,120.0,0.0,0.0
1707,58.0,120.0,120.0,0.0,0.0
1708,76.0,60.0,60.0,0.0,0.0
1709,67.0,0.0,120.0,0.0,0.0
1710,61.0,120.0,120.0,0.0,0.0
1711,77.0,0.0,120.0,0.0,0.0
1712,58.0,120.0,120.0,0.0,0.0
1713,52.0,60.0,120.0,0.0,0.0
1714,79.0,0.0,120.0,0.0,0.0
1715,76.0,60.0,60.0,0.0,0.0
1716,58.0,120.0,120.0,0.0,0.0
1717,67.0,120.0,120.0,0.0,0.0
1718,61.0,0.0,120.0,0.0,0.0
1719,58.0,120.0,120.0,0.0,0.0
1720,52.0,0.0,120.0,0.0,0.0
1721,82.0,60.0,120.0,0.0,0.0
1722,55.0,120.0,120.0,0.0,0.0
1723,76.0,60.0,60.0,0.0,0.0
1724,61.0,0.0,120.0,0.0,0.0
1725,67.0,120.0,120.0,0.0,0.0
1726,55.0,120.0,120.0,0.0,0.0
1727,77.0,0.0,120.0,0.0,0.0
1728,79.0,0.0,120.0,0.0,0.0
1729,52.0,60.0,120.0,0.0,0.0
1730,76.0,60.0,60.0,0.0,0.0
1731,58.0,120.0,120.0,0.0,0.0
1732,67.0,120.0,120.0,0.0,0.0
1733,61.0,0.0,120.0,0.0,0.0
1734,58.0,120.0,120.0,0.0,0.0
1735,52.0,60.0,120.0,0.0,0.0
1736,82.0,0.0,120.0,0.0,0.0
1737,76.0,60.0,60.0,0.0,0.0
1738,55.0,120.0,120.0,0.0,0.0
1739,67.0,120.0,120.0,0.0,0.0
1740,61.0,0.0,120.0,0.0,0.0
1741,55.0,120.0,120.0,0.0,0.0
1742,77.0,0.0,120.0,0.0,0.0
1743,52.0,60.0,120.0,0.0,0.0
1744,79.0,0.0,120.0,0.0,0.0
1745,76.0,60.0,60.0,0.0,0.0
1746,58.0,120.0,120.0,0.0,0.0
1747,61.0,120.0,120.0,0.0,0.0
1748,67.0,0.0,120.0,0.0,0.0
1749,58.0,120.0,120.0,0.0,0.0
1750,82.0,60.0,120.0,0.0,0.0
1751,52.0,0.0,120.0,0.0,0.0
1752,55.0,120.0,120.0,0.0,0.0
1753,76.0,60.0,60.0,0.0,0.0
1754,61.0,120.0,120.0,0.0,0.0
1755,67.0,0.0,120.0,0.0,0.0
1756,77.0,0.0,120.0,0.0,0.0
1757,55.0,120.0,120.0,0.0,0.0
1758,52.0,60.0,120.0,0.0,0.0
1759,79.0,0.0,120.0,0.0,0.0
1760,58.0,120.0,120.0,0.0,0.0
1761,88.0,60.0,60.0,0.0,0.0
1762,67.0,120.0,120.0,0.0,0.0
1763,61.0,0.0,120.0,0.0,0.0
1764,58.0,120.0,120.0,0.0,0.0
1765,53.0,60.0,120.0,0.0,0.0
1766,88.0,120.0,240.0,0.0,0.0
1767,57.0,0.0,120.0,0.0,0.0
1768,77.0,60.0,60.0,0.0,0.0
1769,69.0,0.0,120.0,0.0,0.0
1770,61.0,120.0,120.0,0.0,0.0
1771,57.0,120.0,120.0,0.0,0.0
1772,79.0,0.0,120.0,0.0,0.0
1773,86.0,120.0,240.0,0.0,0.0
1774,81.0,0.0,120.0,0.0,0.0
1775,53.0,60.0,120.0,0.0,0.0
1776,57.0,0.0,120.0,0.0,0.0
1777,77.0,60.0,60.0,0.0,0.0
1778,62.0,0.0,120.0,0.0,0.0
1779,69.0,120.0,120.0,0.0,0.0
1780,57.0,120.0,120.0,0.0,0.0
1781,89.0,0.0,120.0,0.0,0.0
1782,77.0,0.0,120.0,0.0,0.0
1783,56.0,60.0,120.0,0.0,0.0
1784,88.0,60.0,60.0,0.0,0.0
1785,83.0,0.0,60.0,0.0,0.0
1786,65.0,120.0,120.0,0.0,0.0
1787,71.0,120.0,120.0,0.0,0.0
1788,86.0,0.0,120.0,0.0,0.0
1789,77.0,120.0,120.0,0.0,0.0
1790,56.0,0.0,120.0,0.0,0.0
1791,85.0,60.0,120.0,0.0,0.0
1792,57.0,0.0,120.0,0.0,0.0
1793,81.0,0.0,120.0,0.0,0.0
1794,64.0,120.0,120.0,0.0,0.0
1795,88.0,60.0,60.0,0.0,0.0
1796,76.0,0.0,60.0,0.0,0.0
1797,73.0,120.0,120.0,0.0,0.0
1798,57.0,120.0,120.0,0.0,0.0
1799,70.0,0.0,120.0,0.0,0.0
1800,82.0,0.0,120.0,0.0,0.0
1801,49.0,60.0,120.0,0.0,0.0
1802,81.0,60.0,60.0,0.0,0.0
1803,76.0,0.0,60.0,0.0,0.0
1804,58.0,120.0,120.0,0.0,0.0
1805,67.0,120.0,120.0,0.0,0.0
1806,70.0,0.0,120.0,0.0,0.0
1807,79.0,0.0,120.0,0.0,0.0
1808,49.0,120.0,120.0,0.0,0.0
1809,74.0,0.0,120.0,0.0,0.0
1810,77.0,60.0,120.0,0.0,0.0
1811,50.0,0.0,120.0,0.0,0.0
1812,57.0,120.0,120.0,0.0,0.0
1813,69.0,60.0,60.0,0.0,0.0
1814,81.0,0.0,60.0,0.0,0.0
1815,65.0,120.0,120.0,0.0,0.0
1816,50.0,120.0,120.0,0.0,0.0
1817,56.0,0.0,120.0,0.0,0.0
1818,77.0,0.0,120.0,0.0,0.0
1819,89.0,60.0,120.0,0.0,0.0
1820,88.0,60.0,60.0,0.0,0.0
1821,65.0,120.0,120.0,0.0,0.0
1822,83.0,0.0,60.0,0.0,0.0
1823,71.0,120.0,120.0,0.0,0.0
1824,56.0,0.0,120.0,0.0,0.0
1825,77.0,0.0,120.0,0.0,0.0
1826,86.0,120.0,120.0,0.0,0.0
1827,81.0,60.0,120.0,0.0,0.0
1828,57.0,0.0,120.0,0.0,0.0
1829,85.0,0.0,120.0,0.0,0.0
1830,76.0,60.0,60.0,0.0,0.0
1831,64.0,120.0,120.0,0.0,0.0
1832,88.0,0.0,60.0,0.0,0.0
1833,73.0,120.0,120.0,0.0,0.0
1834,57.0,120.0,120.0,0.0,0.0
1835,49.0,0.0,120.0,0.0,0.0
1836,82.0,60.0,120.0,0.0,0.0
1837,70.0,0.0,120.0,0.0,0.0
1838,81.0,60.0,60.0,0.0,0.0
1839,76.0,0.0,60.0,0.0,0.0
1840,58.0,120.0,120.0,0.0,0.0
1841,67.0,120.0,120.0,0.0,0.0
1842,79.0,0.0,120.0,0.0,0.0
1843,49.0,120.0,120.0,0.0,0.0
1844,70.0,0.0,120.0,0.0,0.0
1845,78.0,0.0,120.0,0.0,0.0
1846,74.0,0.0,120.0,0.0,0.0
1847,50.0,60.0,120.0,0.0,0.0
1848,81.0,0.0,60.0,0.0,0.0
1849,69.0,0.0,60.0,0.0,0.0
1850,77.0,60.0,60.0,0.0,0.0
1851,57.0,120.0,120.0,0.0,0.0
1852,65.0,120.0,120.0,0.0,0.0
1853,50.0,120.0,120.0,0.0,0.0
1854,81.0,0.0,120.0,0.0,0.0
1855,93.0,0.0,120.0,0.0,0.0
1856,47.0,0.0,120.0,0.0,0.0
1857,86.0,60.0,120.0,0.0,0.0
1858,92.0,60.0,60.0,0.0,0.0
1859,52.0,120.0,120.0,0.0,0.0
1860,80.0,0.0,60.0,0.0,0.0
1861,53.0,120.0,120.0,0.0,0.0
1862,77.0,120.0,120.0,0.0,0.0
1863,62.0,0.0,120.0,0.0,0.0
1864,89.0,0.0,120.0,0.0,0.0
1865,79.0,60.0,120.0,0.0,0.0
1866,76.0,0.0,120.0,0.0,0.0
1867,88.0,0.0,120.0,0.0,0.0
1868,47.0,0.0,120.0,0.0,0.0
1869,52.0,120.0,120.0,0.0,0.0
1870,74.0,60.0,60.0,0.0,0.0
1871,86.0,0.0,60.0,0.0,0.0
1872,53.0,120.0,120.0,0.0,0.0
1873,62.0,120.0,120.0,0.0,0.0
1874,47.0,0.0,120.0,0.0,0.0
1875,86.0,60.0,120.0,0.0,0.0
1876,74.0,0.0,120.0,0.0,0.0
1877,52.0,120.0,120.0,0.0,0.0
1878,80.0,60.0,60.0,0.0,0.0
1879,84.0,0.0,60.0,0.0,0.0
1880,53.0,120.0,120.0,0.0,0.0
1881,83.0,0.0,120.0,0.0,0.0
1882,71.0,0.0,120.0,0.0,0.0
1883,62.0,120.0,120.0,0.0,0.0
1884,79.0,60.0,120.0,0.0,0.0
1885,82.0,0.0,120.0,0.0,0.0
1886,49.0,0.0,120.0,0.0,0.0
1887,70.0,60.0,60.0,0.0,0.0
1888,54.0,120.0,120.0,0.0,0.0
1889,76.0,0.0,60.0,0.0,0.0
1890,55.0,120.0,120.0,0.0,0.0
1891,64.0,120.0,120.0,0.0,0.0
1892,72.0,0.0,120.0,0.0,0.0
1893,84.0,0.0,120.0,0.0,0.0
1894,51.0,60.0,120.0,0.0,0.0
1895,56.0,120.0,120.0,0.0,0.0
1896,83.0,0.0,60.0,0.0,0.0
1897,78.0,60.0,60.0,0.0,0.0
1898,57.0,120.0,120.0,0.0,0.0
1899,66.0,0.0,120.0,0.0,0.0
1900,81.0,120.0,120.0,0.0,0.0
1901,69.0,0.0,120.0,0.0,0.0
1902,52.0,60.0,120.0,0.0,0.0
1903,79.0,0.0,120.0,0.0,0.0
1904,76.0,0.0,120.0,0.0,0.0
1905,67.0,60.0,60.0,0.0,0.0
1906,71.0,0.0,60.0,0.0,0.0
1907,58.0,120.0,120.0,0.0,0.0
1908,59.0,120.0,120.0,0.0,0.0
1909,67.0,120.0,120.0,0.0,0.0
1910,76.0,0.0,120.0,0.0,0.0
1911,79.0,0.0,120.0,0.0,0.0
1912,50.0,60.0,120.0,0.0,0.0
1913,57.0,120.0,120.0,0.0,0.0
1914,70.0,0.0,60.0,0.0,0.0
1915,67.0,60.0,60.0,0.0,0.0
1916,58.0,120.0,120.0,0.0,0.0
1917,67.0,120.0,120.0,0.0,0.0
1918,79.0,60.0,120.0,0.0,0.0
1919,76.0,0.0,120.0,0.0,0.0
1920,49.0,0.0,120.0,0.0,0.0
1921,56.0,120.0,120.0,0.0,0.0
1922,67.0,60.0,60.0,0.0,0.0
1923,69.0,0.0,60.0,0.0,0.0
1924,57.0,120.0,120.0,0.0,0.0
1925,67.0,120.0,120.0,0.0,0.0
1926,77.0,120.0,120.0,0.0,0.0
1927,50.0,0.0,120.0,0.0,0.0
1928,69.0,0.0,120.0,0.0,0.0
1929,65.0,120.0,120.0,0.0,0.0
1930,74.0,0.0,120.0,0.0,0.0
1931,57.0,0.0,120.0,0.0,0.0
1932,62.0,120.0,120.0,0.0,0.0
1933,45.0,120.0,120.0,0.0,0.0
1934,76.0,0.0,120.0,0.0,0.0
1935,77.0,120.0,120.0,0.0,0.0
1936,50.0,0.0,120.0,0.0,0.0
1937,57.0,0.0,120.0,0.0,0.0
1938,65.0,0.0,120.0,0.0,0.0
1939,74.0,120.0,120.0,0.0,0.0
1940,69.0,0.0,120.0,0.0,0.0
1941,62.0,120.0,120.0,0.0,0.0
1942,45.0,120.0,120.0,0.0,0.0
1943,77.0,0.0,120.0,0.0,0.0
1944,50.0,120.0,120.0,0.0,0.0
1945,65.0,0.0,120.0,0.0,0.0
1946,69.0,0.0,120.0,0.0,0.0
1947,74.0,0.0,120.0,0.0,0.0
1948,57.0,120.0,120.0,0.0,0.0
1949,62.0,120.0,120.0,0.0,0.0
1950,76.0,0.0,120.0,0.0,0.0
1951,45.0,120.0,120.0,0.0,0.0
1952,77.0,0.0,120.0,0.0,0.0
1953,50.0,120.0,120.0,0.0,0.0
1954,65.0,120.0,120.0,0.0,0.0
1955,74.0,0.0,120.0,0.0,0.0
1956,69.0,0.0,120.0,0.0,0.0
1957,57.0,0.0,120.0,0.0,0.0
1958,62.0,120.0,120.0,0.0,0.0
1959,45.0,120.0,120.0,0.0,0.0
1960,50.0,120.0,120.0,0.0,0.0
1961,77.0,0.0,120.0,0.0,0.0
1962,69.0,0.0,120.0,0.0,0.0
1963,65.0,0.0,120.0,0.0,0.0
1964,74.0,0.0,120.0,0.0,0.0
1965,57.0,120.0,120.0,0.0,0.0
1966,62.0,120.0,120.0,0.0,0.0
1967,76.0,0.0,120.0,0.0,0.0
1968,45.0,120.0,120.0,0.0,0.0
1969,77.0,120.0,120.0,0.0,0.0
1970,50.0,0.0,120.0,0.0,0.0
1971,57.0,0.0,120.0,0.0,0.0
1972,74.0,0.0,120.0,0.0,0.0
1973,81.0,0.0,120.0,0.0,0.0
1974,86.0,120.0,120.0,0.0,0.0
1975,65.0,120.0,120.0,0.0,0.0
1976,53.0,120.0,120.0,0.0,0.0
1977,85.0,0.0,120.0,0.0,0.0
1978,52.0,120.0,120.0,0.0,0.0
1979,58.0,120.0,120.0,0.0,0.0
1980,76.0,0.0,120.0,0.0,0.0
1981,73.0,0.0,120.0,0.0,0.0
1982,67.0,120.0,120.0,0.0,0.0
1983,52.0,0.0,120.0,0.0,0.0
1984,77.0,120.0,120.0,0.0,0.0
1985,79.0,0.0,120.0,0.0,0.0
1986,58.0,120.0,120.0,0.0,0.0
1987,73.0,0.0,120.0,0.0,0.0
1988,70.0,0.0,120.0,0.0,0.0
1989,76.0,120.0,120.0,0.0,0.0
1990,61.0,0.0,120.0,0.0,0.0
1991,67.0,120.0,120.0,0.0,0.0
1992,52.0,120.0,120.0,0.0,0.0
1993,55.0,120.0,120.0,0.0,0.0
1994,82.0,0.0,120.0,0.0,0.0
1995,61.0,0.0,120.0,0.0,0.0
1996,70.0,0.0,120.0,0.0,0.0
1997,73.0,0.0,120.0,0.0,0.0
1998,76.0,120.0,120.0,0.0,0.0
1999,67.0,120.0,120.0,0.0,0.0
2000,52.0,120.0,120.0,0.0,0.0
2001,77.0,0.0,120.0,0.0,0.0
2002,58.0,120.0,120.0,0.0,0.0
2003,79.0,0.0,120.0,0.0,0.0
2004,70.0,0.0,120.0,0.0,0.0
2005,73.0,0.0,120.0,0.0,0.0
2006,61.0,120.0,120.0,0.0,0.0
2007,76.0,0.0,120.0,0.0,0.0
2008,67.0,120.0,120.0,0.0,0.0
2009,52.0,120.0,120.0,0.0,0.0
2010,82.0,0.0,120.0,0.0,0.0
2011,55.0,120.0,120.0,0.0,0.0
2012,76.0,0.0,120.0,0.0,0.0
2013,73.0,0.0,120.0,0.0,0.0
2014,70.0,0.0,120.0,0.0,0.0
2015,61.0,120.0,120.0,0.0,0.0
2016,67.0,120.0,120.0,0.0,0.0
2017,52.0,0.0,120.0,0.0,0.0
2018,77.0,120.0,120.0,0.0,0.0
2019,79.0,0.0,120.0,0.0,0.0
2020,58.0,120.0,120.0,0.0,0.0
2021,70.0,120.0,120.0,0.0,0.0
2022,73.0,0.0,120.0,0.0,0.0
2023,76.0,0.0,120.0,0.0,0.0
2024,61.0,0.0,120.0,0.0,0.0
2025,67.0,120.0,120.0,0.0,0.0
2026,52.0,120.0,120.0,0.0,0.0
2027,82.0,120.0,120.0,0.0,0.0
2028,55.0,0.0,120.0,0.0,0.0
2029,61.0,0.0,120.0,0.0,0.0
2030,70.0,0.0,120.0,0.0,0.0
2031,73.0,0.0,120.0,0.0,0.0
2032,76.0,120.0,120.0,0.0,0.0
2033,67.0,120.0,120.0,0.0,0.0
2034,52.0,120.0,120.0,0.0,0.0
2035,77.0,0.0,120.0,0.0,0.0
2036,58.0,0.0,120.0,0.0,0.0
2037,79.0,120.0,120.0,0.0,0.0
2038,82.0,0.0,120.0,0.0,0.0
2039,76.0,0.0,120.0,0.0,0.0
2040,61.0,0.0,120.0,0.0,0.0
2041,88.0,120.0,120.0,0.0,0.0
2042,67.0,120.0,120.0,0.0,0.0
2043,52.0,120.0,120.0,0.0,0.0
2044,88.0,0.0,120.0,0.0,0.0
2045,53.0,120.0,120.0,0.0,0.0
2046,61.0,0.0,120.0,0.0,0.0
2047,76.0,120.0,120.0,0.0,0.0
2048,77.0,0.0,120.0,0.0,0.0
2049,69.0,120.0,120.0,0.0,0.0
2050,57.0,0.0,120.0,0.0,0.0
2051,79.0,120.0,120.0,0.0,0.0
2052,62.0,0.0,120.0,0.0,0.0
2053,81.0,120.0,120.0,0.0,0.0
2054,65.0,0.0,120.0,0.0,0.0
2055,86.0,0.0,120.0,0.0,0.0
2056,77.0,120.0,120.0,0.0,0.0
2057,74.0,0.0,120.0,0.0,0.0
2058,69.0,120.0,120.0,0.0,0.0
2059,53.0,120.0,120.0,0.0,0.0
2060,56.0,0.0,120.0,0.0,0.0
2061,89.0,120.0,120.0,0.0,0.0
2062,65.0,0.0,120.0,0.0,0.0
2063,77.0,0.0,120.0,0.0,0.0
2064,83.0,0.0,120.0,0.0,0.0
2065,88.0,120.0,120.0,0.0,0.0
2066,71.0,120.0,120.0,0.0,0.0
2067,56.0,120.0,120.0,0.0,0.0
2068,86.0,0.0,120.0,0.0,0.0
2069,57.0,120.0,120.0,0.0,0.0
2070,85.0,0.0,120.0,0.0,0.0
2071,76.0,0.0,120.0,0.0,0.0
2072,81.0,0.0,120.0,0.0,0.0
2073,64.0,120.0,120.0,0.0,0.0
2074,88.0,0.0,120.0,0.0,0.0
2075,73.0,120.0,120.0,0.0,0.0
2076,57.0,120.0,120.0,0.0,0.0
2077,49.0,120.0,120.0,0.0,0.0
2078,82.0,0.0,120.0,0.0,0.0
2079,70.0,120.0,120.0,0.0,0.0
2080,81.0,0.0,120.0,0.0,0.0
2081,76.0,0.0,120.0,0.0,0.0
2082,58.0,0.0,120.0,0.0,0.0
2083,67.0,120.0,120.0,0.0,0.0
2084,79.0,0.0,120.0,0.0,0.0
2085,49.0,120.0,120.0,0.0,0.0
2086,78.0,0.0,120.0,0.0,0.0
2087,50.0,120.0,120.0,0.0,0.0
2088,69.0,120.0,120.0,0.0,0.0
2089,81.0,0.0,120.0,0.0,0.0
2090,57.0,0.0,120.0,0.0,0.0
2091,77.0,0.0,120.0,0.0,0.0
2092,74.0,0.0,120.0,0.0,0.0
2093,65.0,120.0,120.0,0.0,0.0
2094,50.0,120.0,120.0,0.0,0.0
2095,89.0,120.0,120.0,0.0,0.0
2096,56.0,0.0,120.0,0.0,0.0
2097,83.0,0.0,120.0,0.0,0.0
2098,65.0,0.0,120.0,0.0,0.0
2099,88.0,0.0,120.0,0.0,0.0
2100,77.0,120.0,120.0,0.0,0.0
2101,71.0,120.0,120.0,0.0,0.0
2102,86.0,0.0,120.0,0.0,0.0
2103,56.0,120.0,120.0,0.0,0.0
2104,85.0,0.0,120.0,0.0,0.0
2105,57.0,120.0,120.0,0.0,0.0
2106,88.0,0.0,120.0,0.0,0.0
2107,81.0,0.0,120.0,0.0,0.0
2108,64.0,120.0,120.0,0.0,0.0
2109,76.0,0.0,120.0,0.0,0.0
2110,73.0,120.0,120.0,0.0,0.0
2111,57.0,120.0,120.0,0.0,0.0
2112,54.0,120.0,120.0,0.0,0.0
2113,87.0,0.0,120.0,0.0,0.0
2114,75.0,0.0,120.0,0.0,0.0
2115,86.0,120.0,120.0,0.0,0.0
2116,81.0,0.0,120.0,0.0,0.0
2117,63.0,0.0,120.0,0.0,0.0
2118,69.0,120.0,120.0,0.0,0.0
2119,54.0,0.0,120.0,0.0,0.0
2120,84.0,120.0,120.0,0.0,0.0
2121,83.0,120.0,120.0,0.0,0.0
2122,55.0,0.0,120.0,0.0,0.0
2123,62.0,0.0,120.0,0.0,0.0
2124,74.0,0.0,120.0,0.0,0.0
2125,86.0,120.0,120.0,0.0,0.0
2126,82.0,0.0,120.0,0.0,0.0
2127,70.0,120.0,120.0,0.0,0.0
2128,55.0,120.0,120.0,0.0,0.0
2129,43.0,120.0,120.0,0.0,0.0
2130,82.0,0.0,720.0,0.0,0.0
2131,73.0,120.0,240.0,0.0,0.0
2132,85.0,0.0,240.0,0.0,0.0
2133,50.0,0.0,120.0,0.0,0.0
2134,62.0,120.0,120.0,0.0,0.0
2135,74.0,0.0,240.0,0.0,0.0
2136,86.0,120.0,240.0,0.0,0.0
2137,50.0,0.0,120.0,0.0,0.0
2138,45.0,120.0,120.0,0.0,0.0
2139,85.0,0.0,240.0,0.0,0.0
2140,73.0,120.0,240.0,0.0,0.0
2141,50.0,0.0,120.0,0.0,0.0
2142,62.0,120.0,120.0,0.0,0.0
2143,81.0,0.0,240.0,0.0,0.0
2144,86.0,0.0,240.0,0.0,0.0
2145,74.0,0.0,240.0,0.0,0.0
2146,50.0,120.0,120.0,0.0,0.0
2147,85.0,120.0,240.0,0.0,0.0
2148,73.0,0.0,240.0,0.0,0.0
2149,46.0,120.0,120.0,0.0,0.0
2150,81.0,0.0,240.0,0.0,0.0
2151,50.0,0.0,120.0,0.0,0.0
2152,79.0,120.0,480.0,0.0,0.0
2153,74.0,0.0,240.0,0.0,0.0
2154,86.0,0.0,240.0,0.0,0.0
2155,62.0,120.0,120.0,0.0,0.0
2156,50.0,120.0,120.0,0.0,0.0
2157,73.0,0.0,240.0,0.0,0.0
2158,85.0,0.0,240.0,0.0,0.0
2159,47.0,120.0,120.0,0.0,0.0
2160,55.0,0.0,120.0,0.0,0.0
2161,67.0,120.0,120.0,0.0,0.0
2162,74.0,0.0,240.0,0.0,0.0
2163,86.0,120.0,240.0,0.0,0.0
2164,55.0,0.0,120.0,0.0,0.0
2165,48.0,0.0,120.0,0.0,0.0
2166,55.0,0.0,120.0,0.0,0.0
2167,62.0,0.0,120.0,0.0,0.0
2168,77.0,0.0,15.0,0.0,0.0
2169,70.0,240.0,120.0,0.0,0.0
2170,65.0,0.0,120.0,0.0,0.0
2171,76.0,0.0,120.0,0.0,0.0
2172,64.0,0.0,120.0,0.0,0.0
2173,60.0,0.0,120.0,0.0,0.0
2174,55.0,0.0,120.0,0.0,0.0
2175,70.0,600.0,120.0,0.0,0.0
2176,48.0,0.0,120.0,0.0,0.0
2177,50.0,0.0,240.0,0.0,0.0
2178,38.0,0.0,240.0,0.0,0.0
2179,74.0,0.0,240.0,0.0,0.0
2180,65.0,0.0,240.0,0.0,0.0
2181,70.0,0.0,15.0,0.0,0.0
2182,74.0,0.0,480.0,0.0,0.0
2183,66.0,360.0,480.0,0.0,0.0
2184,60.0,480.0,15.0,0.0,0.0
2185,39.0,0.0,480.0,0.0,0.0
2186,51.0,0.0,480.0,0.0,0.0
2187,67.0,0.0,360.0,0.0,0.0
2188,60.0,0.0,15.0,0.0,0.0
2189,52.0,0.0,360.0,0.0,0.0
2190,70.0,120.0,360.0,0.0,0.0
2191,40.0,0.0,360.0,0.0,0.0
2192,72.0,0.0,360.0,0.0,0.0
2193,53.0,480.0,1440.0,0.0,0.0
2194,41.0,0.0,960.0,0.0,0.0
2195,72.0,480.0,960.0,0.0,0.0
2196,57.0,960.0,15.0,0.0,0.0
2197,69.0,0.0,480.0,0.0,0.0
2198,65.0,0.0,15.0,0.0,0.0
2199,60.0,0.0,480.0,0.0,0.0
2200,67.0,0.0,480.0,0.0,0.0
2201,62.0,0.0,480.0,0.0,0.0
2202,70.0,960.0,480.0,0.0,0.0
2203,46.0,0.0,480.0,0.0,0.0
2204,58.0,0.0,1920.0,0.0,0.0
2205,64.0,480.0,1920.0,0.0,0.0
2206,69.0,240.0,960.0,0.0,0.0
2207,48.0,240.0,1200.0,0.0,0.0
2208,67.0,0.0,960.0,0.0,0.0
2209,49.0,240.0,240.0,0.0,0.0
2210,50.0,240.0,240.0,0.0,0.0
2211,48.0,0.0,240.0,0.0,0.0
2212,57.0,480.0,600.0,0.0,0.0
2213,65.0,0.0,1020.0,0.0,0.0
2214,53.0,0.0,1440.0,0.0,0.0
2215,72.0,0.0,480.0,0.0,0.0
2216,41.0,0.0,960.0,0.0,0.0
2217,60.0,0.0,480.0,0.0,0.0
2218,69.0,240.0,480.0,0.0,0.0
2219,62.0,240.0,240.0,0.0,0.0
2220,65.0,0.0,480.0,0.0,0.0
2221,70.0,0.0,240.0,0.0,0.0
2222,60.0,0.0,240.0,0.0,0.0
2223,69.0,240.0,240.0,0.0,0.0
2224,46.0,960.0,480.0,0.0,0.0
2225,72.0,0.0,240.0,0.0,0.0
2226,64.0,240.0,240.0,0.0,0.0
2227,67.0,0.0,480.0,0.0,0.0
2228,62.0,0.0,240.0,0.0,0.0
2229,70.0,0.0,240.0,0.0,0.0
2230,58.0,480.0,1920.0,0.0,0.0
2231,64.0,0.0,1920.0,0.0,0.0
2232,69.0,240.0,960.0,0.0,0.0
2233,48.0,240.0,1200.0,0.0,0.0
2234,67.0,0.0,960.0,0.0,0.0
2235,49.0,160.0,240.0,0.0,0.0
2236,52.0,160.0,150.0,0.0,0.0
2237,50.0,160.0,150.0,0.0,0.0
2238,48.0,0.0,150.0,0.0,0.0
2239,72.0,480.0,480.0,0.0,0.0
2240,65.0,0.0,960.0,0.0,0.0
2241,41.0,0.0,480.0,0.0,0.0
2242,57.0,0.0,480.0,0.0,0.0
2243,59.0,480.0,480.0,0.0,0.0
2244,74.0,0.0,480.0,0.0,0.0
2245,68.0,0.0,480.0,0.0,0.0
2246,67.0,0.0,480.0,0.0,0.0
2247,76.0,0.0,480.0,0.0,0.0
2248,58.0,360.0,480.0,0.0,0.0
2249,48.0,0.0,960.0,0.0,0.0
2250,70.0,0.0,480.0,0.0,0.0
2251,77.0,0.0,360.0,0.0,0.0
2252,62.0,120.0,360.0,0.0,0.0
2253,60.0,0.0,120.0,0.0,0.0
2254,79.0,0.0,120.0,0.0,0.0
2255,76.0,480.0,120.0,0.0,0.0
2256,53.0,480.0,480.0,0.0,0.0
2257,69.0,0.0,480.0,0.0,0.0
2258,77.0,0.0,480.0,0.0,0.0
2259,81.0,0.0,480.0,0.0,0.0
2260,60.0,0.0,480.0,0.0,0.0
2261,59.0,420.0,480.0,0.0,0.0
2262,65.0,0.0,480.0,0.0,0.0
2263,68.0,0.0,480.0,0.0,0.0
2264,74.0,0.0,480.0,0.0,0.0
2265,58.0,480.0,960.0,0.0,0.0
2266,64.0,0.0,420.0,0.0,0.0
2267,67.0,0.0,960.0,0.0,0.0
2268,76.0,60.0,420.0,0.0,0.0
2269,48.0,360.0,480.0,0.0,0.0
2270,62.0,0.0,540.0,0.0,0.0
2271,46.0,60.0,420.0,0.0,0.0
2272,77.0,60.0,360.0,0.0,0.0
2273,79.0,0.0,120.0,0.0,0.0
2274,45.0,0.0,540.0,0.0,0.0
2275,69.0,0.0,480.0,0.0,0.0
2276,81.0,480.0,480.0,0.0,0.0
2277,76.0,0.0,960.0,0.0,0.0
2278,61.0,0.0,480.0,0.0,0.0
2279,49.0,480.0,480.0,0.0,0.0
2280,37.0,0.0,480.0,0.0,0.0
2281,79.0,0.0,480.0,0.0,0.0
2282,69.0,360.0,960.0,0.0,0.0
2283,65.0,0.0,480.0,0.0,0.0
2284,74.0,0.0,480.0,0.0,0.0
2285,77.0,0.0,480.0,0.0,0.0
2286,38.0,0.0,480.0,0.0,0.0
2287,50.0,0.0,480.0,0.0,0.0
2288,76.0,0.0,360.0,0.0,0.0
2289,72.0,0.0,360.0,0.0,0.0
2290,68.0,0.0,360.0,0.0,0.0
2291,52.0,120.0,360.0,0.0,0.0
2292,40.0,0.0,360.0,0.0,0.0
2293,74.0,0.0,120.0,0.0,0.0
2294,53.0,0.0,120.0,0.0,0.0
2295,41.0,480.0,120.0,0.0,0.0
2296,72.0,0.0,480.0,0.0,0.0
2297,69.0,0.0,15.0,0.0,0.0
2298,63.0,0.0,480.0,0.0,0.0
2299,54.0,0.0,480.0,0.0,0.0
2300,42.0,0.0,480.0,0.0,0.0
2301,43.0,0.0,360.0,0.0,0.0
2302,55.0,0.0,360.0,0.0,0.0
2303,67.0,0.0,360.0,0.0,0.0
2304,58.0,120.0,360.0,0.0,0.0
2305,70.0,0.0,360.0,0.0,0.0
2306,62.0,0.0,360.0,0.0,0.0
2307,60.0,0.0,120.0,0.0,0.0
2308,57.0,0.0,120.0,0.0,0.0
2309,45.0,0.0,120.0,0.0,0.0
2310,69.0,0.0,120.0,0.0,0.0
2311,67.0,120.0,720.0,0.0,0.0
2312,62.0,240.0,480.0,0.0,0.0
2313,65.0,480.0,15.0,0.0,0.0
2314,46.0,0.0,480.0,0.0,0.0
2315,58.0,0.0,480.0,0.0,0.0
2316,48.0,160.0,480.0,0.0,0.0
2317,58.0,120.0,360.0,0.0,0.0
2318,64.0,0.0,360.0,0.0,0.0
2319,68.0,0.0,120.0,0.0,0.0
2320,69.0,160.0,1080.0,0.0,0.0
2321,77.0,0.0,1020.0,0.0,0.0
2322,84.0,0.0,960.0,0.0,0.0
2323,41.0,160.0,150.0,0.0,0.0
2324,59.0,160.0,150.0,0.0,0.0
2325,60.0,160.0,150.0,0.0,0.0
2326,62.0,160.0,150.0,0.0,0.0
2327,60.0,160.0,150.0,0.0,0.0
2328,48.0,0.0,150.0,0.0,0.0
2329,53.0,160.0,150.0,0.0,0.0
2330,72.0,0.0,480.0,0.0,0.0
2331,77.0,0.0,480.0,0.0,0.0
2332,81.0,160.0,480.0,0.0,0.0
2333,59.0,160.0,150.0,0.0,0.0
2334,60.0,0.0,150.0,0.0,0.0
2335,62.0,80.0,150.0,0.0,0.0
2336,69.0,0.0,240.0,0.0,0.0
2337,72.0,80.0,240.0,0.0,0.0
2338,60.0,160.0,150.0,0.0,0.0
2339,82.0,160.0,240.0,0.0,0.0
2340,79.0,0.0,240.0,0.0,0.0
2341,74.0,0.0,240.0,0.0,0.0
2342,48.0,0.0,150.0,0.0,0.0
2343,55.0,160.0,150.0,0.0,0.0
2344,81.0,80.0,720.0,0.0,0.0
2345,70.0,0.0,960.0,0.0,0.0
2346,76.0,0.0,960.0,0.0,0.0
2347,59.0,160.0,150.0,0.0,0.0
2348,60.0,160.0,150.0,0.0,0.0
2349,62.0,80.0,150.0,0.0,0.0
2350,60.0,160.0,150.0,0.0,0.0
2351,79.0,160.0,240.0,0.0,0.0
2352,48.0,0.0,150.0,0.0,0.0
2353,74.0,80.0,240.0,0.0,0.0
2354,58.0,80.0,150.0,0.0,0.0
2355,59.0,160.0,150.0,0.0,0.0
2356,72.0,0.0,240.0,0.0,0.0
2357,60.0,160.0,150.0,0.0,0.0
2358,65.0,80.0,240.0,0.0,0.0
2359,62.0,80.0,150.0,0.0,0.0
2360,60.0,40.0,150.0,0.0,0.0
2361,67.0,120.0,120.0,0.0,0.0
2362,48.0,0.0,150.0,0.0,0.0
2363,77.0,0.0,960.0,0.0,0.0
2364,69.0,120.0,15.0,0.0,0.0
2365,53.0,240.0,120.0,0.0,0.0
2366,84.0,120.0,480.0,0.0,0.0
2367,59.0,120.0,120.0,0.0,0.0
2368,60.0,0.0,120.0,0.0,0.0
2369,62.0,120.0,120.0,0.0,0.0
2370,72.0,120.0,480.0,0.0,0.0
2371,81.0,0.0,480.0,0.0,0.0
2372,60.0,120.0,120.0,0.0,0.0
2373,60.0,120.0,120.0,0.0,0.0
2374,48.0,0.0,120.0,0.0,0.0
2375,53.0,120.0,120.0,0.0,0.0
2376,82.0,0.0,240.0,0.0,0.0
2377,74.0,120.0,240.0,0.0,0.0
2378,77.0,0.0,480.0,0.0,0.0
2379,59.0,120.0,120.0,0.0,0.0
2380,72.0,0.0,240.0,0.0,0.0
2381,60.0,0.0,120.0,0.0,0.0
2382,72.0,80.0,150.0,0.0,0.0
2383,81.0,120.0,15.0,0.0,0.0
2384,62.0,40.0,120.0,0.0,0.0
2385,60.0,80.0,120.0,0.0,0.0
2386,76.0,0.0,150.0,0.0,0.0
2387,84.0,40.0,150.0,0.0,0.0
2388,60.0,120.0,120.0,0.0,0.0
2389,82.0,120.0,150.0,0.0,0.0
2390,74.0,0.0,150.0,0.0,0.0
2391,48.0,0.0,120.0,0.0,0.0
2392,55.0,240.0,120.0,0.0,0.0
2393,70.0,0.0,960.0,0.0,0.0
2394,81.0,0.0,720.0,0.0,0.0
2395,76.0,160.0,960.0,0.0,0.0
2396,59.0,120.0,120.0,0.0,0.0
2397,60.0,120.0,120.0,0.0,0.0
2398,62.0,120.0,120.0,0.0,0.0
2399,79.0,0.0,240.0,0.0,0.0
2400,60.0,120.0,15.0,0.0,0.0
2401,48.0,0.0,120.0,0.0,0.0
2402,58.0,80.0,240.0,0.0,0.0
2403,74.0,80.0,150.0,0.0,0.0
2404,72.0,40.0,150.0,0.0,0.0
2405,59.0,120.0,120.0,0.0,0.0
2406,74.0,120.0,150.0,0.0,0.0
2407,60.0,0.0,120.0,0.0,0.0
2408,72.0,80.0,150.0,0.0,0.0
2409,62.0,40.0,120.0,0.0,0.0
2410,60.0,80.0,120.0,0.0,0.0
2411,65.0,40.0,150.0,0.0,0.0
2412,60.0,120.0,120.0,0.0,0.0
2413,67.0,120.0,150.0,0.0,0.0
2414,48.0,0.0,120.0,0.0,0.0
2415,72.0,120.0,480.0,0.0,0.0
2416,84.0,0.0,960.0,0.0,0.0
2417,77.0,0.0,960.0,0.0,0.0
2418,53.0,120.0,120.0,0.0,0.0
2419,60.0,120.0,120.0,0.0,0.0
2420,62.0,120.0,120.0,0.0,0.0
2421,60.0,0.0,120.0,0.0,0.0
2422,69.0,120.0,120.0,0.0,0.0
2423,74.0,120.0,480.0,0.0,0.0
2424,86.0,0.0,480.0,0.0,0.0
2425,60.0,120.0,120.0,0.0,0.0
2426,62.0,120.0,120.0,0.0,0.0
2427,60.0,0.0,120.0,0.0,0.0
2428,84.0,0.0,960.0,0.0,0.0
2429,82.0,0.0,960.0,0.0,0.0
2430,76.0,0.0,480.0,0.0,0.0
2431,88.0,0.0,480.0,0.0,0.0
2432,48.0,120.0,120.0,0.0,0.0
2433,60.0,120.0,120.0,0.0,0.0
2434,62.0,120.0,120.0,0.0,0.0
2435,60.0,120.0,120.0,0.0,0.0
2436,70.0,120.0,120.0,0.0,0.0
2437,89.0,0.0,360.0,0.0,0.0
2438,77.0,0.0,360.0,0.0,0.0
2439,60.0,120.0,120.0,0.0,0.0
2440,62.0,120.0,120.0,0.0,0.0
2441,91.0,120.0,120.0,0.0,0.0
2442,60.0,0.0,120.0,0.0,0.0
2443,79.0,0.0,120.0,0.0,0.0
2444,93.0,0.0,480.0,0.0,0.0
2445,81.0,0.0,960.0,0.0,0.0
2446,53.0,120.0,120.0,0.0,0.0
2447,84.0,0.0,960.0,0.0,0.0
2448,60.0,120.0,120.0,0.0,0.0
2449,62.0,120.0,120.0,0.0,0.0
2450,60.0,120.0,120.0,0.0,0.0
2451,74.0,120.0,480.0,0.0,0.0
2452,86.0,0.0,480.0,0.0,0.0
2453,69.0,120.0,120.0,0.0,0.0
2454,60.0,120.0,120.0,0.0,0.0
2455,62.0,120.0,120.0,0.0,0.0
2456,60.0,0.0,120.0,0.0,0.0
2457,88.0,0.0,480.0,0.0,0.0
2458,76.0,0.0,480.0,0.0,0.0
2459,82.0,120.0,480.0,0.0,0.0
2460,48.0,120.0,120.0,0.0,0.0
2461,84.0,0.0,480.0,0.0,0.0
2462,60.0,120.0,120.0,0.0,0.0
2463,62.0,120.0,120.0,0.0,0.0
2464,60.0,0.0,120.0,0.0,0.0
2465,89.0,0.0,360.0,0.0,0.0
2466,70.0,120.0,120.0,0.0,0.0
2467,77.0,120.0,360.0,0.0,0.0
2468,60.0,120.0,120.0,0.0,0.0
2469,62.0,0.0,120.0,0.0,0.0
2470,60.0,0.0,120.0,0.0,0.0
2471,79.0,0.0,120.0,0.0,0.0
2472,93.0,0.0,480.0,0.0,0.0
2473,88.0,0.0,960.0,0.0,0.0
2474,91.0,120.0,15.0,0.0,0.0
2475,81.0,120.0,480.0,0.0,0.0
2476,49.0,120.0,120.0,0.0,0.0
2477,56.0,120.0,120.0,0.0,0.0
2478,57.0,120.0,120.0,0.0,0.0
2479,64.0,0.0,120.0,0.0,0.0
2480,61.0,120.0,120.0,0.0,0.0
2481,94.0,120.0,720.0,0.0,0.0
2482,82.0,0.0,720.0,0.0,0.0
2483,68.0,120.0,120.0,0.0,0.0
2484,69.0,120.0,120.0,0.0,0.0
2485,76.0,0.0,120.0,0.0,0.0
2486,86.0,0.0,960.0,0.0,0.0
2487,50.0,120.0,120.0,0.0,0.0
2488,89.0,0.0,960.0,0.0,0.0
2489,56.0,0.0,120.0,0.0,0.0
2490,81.0,120.0,240.0,0.0,0.0
2491,57.0,120.0,120.0,0.0,0.0
2492,93.0,0.0,240.0,0.0,0.0
2493,65.0,0.0,120.0,0.0,0.0
2494,92.0,120.0,240.0,0.0,0.0
2495,80.0,0.0,240.0,0.0,0.0
2496,62.0,120.0,120.0,0.0,0.0
2497,68.0,0.0,120.0,0.0,0.0
2498,93.0,120.0,240.0,0.0,0.0
2499,81.0,0.0,240.0,0.0,0.0
2500,69.0,120.0,120.0,0.0,0.0
2501,77.0,0.0,120.0,0.0,0.0
2502,84.0,0.0,480.0,0.0,0.0
2503,96.0,0.0,480.0,0.0,0.0
2504,94.0,0.0,960.0,0.0,0.0
2505,91.0,0.0,960.0,0.0,0.0
2506,52.0,120.0,120.0,0.0,0.0
2507,59.0,120.0,120.0,0.0,0.0
2508,60.0,120.0,120.0,0.0,0.0
2509,67.0,120.0,120.0,0.0,0.0
2510,86.0,0.0,720.0,0.0,0.0
2511,98.0,0.0,720.0,0.0,0.0
2512,64.0,120.0,120.0,0.0,0.0
2513,71.0,120.0,120.0,0.0,0.0
2514,72.0,120.0,120.0,0.0,0.0
2515,79.0,120.0,120.0,0.0,0.0
2516,54.0,120.0,120.0,0.0,0.0
2517,93.0,120.0,480.0,0.0,0.0
2518,61.0,120.0,120.0,0.0,0.0
2519,84.0,0.0,240.0,0.0,0.0
2520,96.0,0.0,240.0,0.0,0.0
2521,62.0,120.0,120.0,0.0,0.0
2522,69.0,0.0,120.0,0.0,0.0
2523,82.0,0.0,360.0,0.0,0.0
2524,94.0,120.0,360.0,0.0,0.0
2525,86.0,120.0,480.0,0.0,0.0
2526,66.0,120.0,120.0,0.0,0.0
2527,73.0,120.0,120.0,0.0,0.0
2528,74.0,0.0,120.0,0.0,0.0
2529,93.0,0.0,120.0,0.0,0.0
2530,81.0,0.0,120.0,0.0,0.0
2531,86.0,0.0,480.0,0.0,0.0
2532,84.0,0.0,240.0,0.0,0.0
2533,43.0,120.0,120.0,0.0,0.0
2534,96.0,0.0,240.0,0.0,0.0
2535,50.0,120.0,120.0,0.0,0.0
2536,94.0,120.0,240.0,0.0,0.0
2537,55.0,120.0,120.0,0.0,0.0
2538,82.0,0.0,240.0,0.0,0.0
2539,62.0,0.0,120.0,0.0,0.0
2540,45.0,120.0,120.0,0.0,0.0
2541,93.0,0.0,240.0,0.0,0.0
2542,81.0,120.0,240.0,0.0,0.0
2543,50.0,0.0,120.0,0.0,0.0
2544,78.0,0.0,240.0,0.0,0.0
2545,90.0,120.0,240.0,0.0,0.0
2546,54.0,120.0,120.0,0.0,0.0
2547,60.0,0.0,120.0,0.0,0.0
2548,93.0,0.0,240.0,0.0,0.0
2549,86.0,0.0,15.0,0.0,0.0
2550,46.0,120.0,120.0,0.0,0.0
2551,81.0,0.0,240.0,0.0,0.0
2552,50.0,120.0,120.0,0.0,0.0
2553,91.0,0.0,240.0,0.0,0.0
2554,79.0,120.0,240.0,0.0,0.0
2555,55.0,120.0,120.0,0.0,0.0
2556,62.0,0.0,120.0,0.0,0.0
2557,74.0,0.0,240.0,0.0,0.0
2558,86.0,0.0,15.0,0.0,0.0
2559,47.0,120.0,120.0,0.0,0.0
2560,80.0,0.0,480.0,0.0,0.0
2561,53.0,120.0,120.0,0.0,0.0
2562,89.0,0.0,240.0,0.0,0.0
2563,56.0,120.0,120.0,0.0,0.0
2564,77.0,0.0,240.0,0.0,0.0
2565,62.0,120.0,120.0,0.0,0.0
2566,81.0,0.0,480.0,0.0,0.0
2567,74.0,120.0,240.0,0.0,0.0
2568,86.0,0.0,240.0,0.0,0.0
2569,48.0,120.0,120.0,0.0,0.0
2570,53.0,0.0,120.0,0.0,0.0
2571,72.0,120.0,240.0,0.0,0.0
2572,84.0,0.0,240.0,0.0,0.0
2573,57.0,120.0,120.0,0.0,0.0
2574,65.0,0.0,120.0,0.0,0.0
2575,50.0,120.0,120.0,0.0,0.0
2576,65.0,0.0,240.0,0.0,0.0
2577,53.0,120.0,120.0,0.0,0.0
2578,70.0,0.0,15.0,0.0,0.0
2579,82.0,0.0,240.0,0.0,0.0
2580,58.0,120.0,120.0,0.0,0.0
2581,79.0,120.0,480.0,0.0,0.0
2582,77.0,0.0,15.0,0.0,0.0
2583,70.0,0.0,15.0,0.0,0.0
2584,65.0,120.0,15.0,0.0,0.0
2585,48.0,120.0,120.0,0.0,0.0
2586,55.0,120.0,120.0,0.0,0.0
2587,60.0,120.0,120.0,0.0,0.0
2588,65.0,0.0,120.0,0.0,0.0
2589,46.0,120.0,120.0,0.0,0.0
2590,69.0,0.0,240.0,0.0,0.0
2591,76.0,0.0,480.0,0.0,0.0
2592,81.0,0.0,240.0,0.0,0.0
2593,52.0,120.0,120.0,0.0,0.0
2594,55.0,120.0,120.0,0.0,0.0
2595,82.0,0.0,240.0,0.0,0.0
2596,70.0,120.0,240.0,0.0,0.0
2597,60.0,0.0,120.0,0.0,0.0
2598,45.0,120.0,120.0,0.0,0.0
2599,74.0,120.0,240.0,0.0,0.0
2600,86.0,0.0,240.0,0.0,0.0
2601,48.0,0.0,120.0,0.0,0.0
2602,85.0,0.0,240.0,0.0,0.0
2603,53.0,120.0,120.0,0.0,0.0
2604,73.0,0.0,240.0,0.0,0.0
2605,60.0,0.0,120.0,0.0,0.0
2606,50.0,40.0,120.0,0.0,0.0
2607,72.0,80.0,150.0,0.0,0.0
2608,84.0,0.0,150.0,0.0,0.0
2609,77.0,120.0,15.0,0.0,0.0
2610,53.0,80.0,120.0,0.0,0.0
2611,65.0,40.0,150.0,0.0,0.0
2612,77.0,0.0,330.0,0.0,0.0
2613,58.0,120.0,120.0,0.0,0.0
2614,82.0,0.0,150.0,0.0,0.0
2615,70.0,120.0,150.0,0.0,0.0
2616,65.0,0.0,120.0,0.0,0.0
2617,49.0,120.0,120.0,0.0,0.0
2618,67.0,120.0,240.0,0.0,0.0
2619,79.0,0.0,240.0,0.0,0.0
2620,70.0,0.0,480.0,0.0,0.0
2621,77.0,0.0,480.0,0.0,0.0
2622,53.0,0.0,120.0,0.0,0.0
2623,58.0,0.0,120.0,0.0,0.0
2624,69.0,0.0,120.0,0.0,0.0
2625,81.0,120.0,120.0,0.0,0.0
2626,79.0,0.0,120.0,0.0,0.0
2627,67.0,120.0,120.0,0.0,0.0
2628,65.0,0.0,120.0,0.0,0.0
2629,48.0,120.0,120.0,0.0,0.0
2630,76.0,0.0,480.0,0.0,0.0
2631,66.0,0.0,120.0,0.0,0.0
2632,78.0,0.0,120.0,0.0,0.0
2633,55.0,0.0,120.0,0.0,0.0
2634,79.0,0.0,120.0,0.0,0.0
2635,67.0,120.0,120.0,0.0,0.0
2636,64.0,0.0,120.0,0.0,0.0
2637,69.0,120.0,120.0,0.0,0.0
2638,81.0,0.0,120.0,0.0,0.0
2639,46.0,120.0,120.0,0.0,0.0
2640,70.0,0.0,120.0,0.0,0.0
2641,82.0,0.0,120.0,0.0,0.0
2642,83.0,0.0,150.0,0.0,0.0
2643,45.0,40.0,120.0,0.0,0.0
2644,71.0,80.0,150.0,0.0,0.0
2645,77.0,40.0,330.0,0.0,0.0
2646,48.0,80.0,120.0,0.0,0.0
2647,72.0,0.0,150.0,0.0,0.0
2648,84.0,0.0,150.0,0.0,0.0
2649,52.0,120.0,120.0,0.0,0.0
2650,93.0,0.0,150.0,0.0,0.0
2651,81.0,0.0,150.0,0.0,0.0
2652,60.0,120.0,120.0,0.0,0.0
2653,91.0,0.0,150.0,0.0,0.0
2654,79.0,80.0,150.0,0.0,0.0
2655,82.0,40.0,330.0,0.0,0.0
2656,50.0,40.0,120.0,0.0,0.0
2657,53.0,80.0,120.0,0.0,0.0
2658,77.0,0.0,150.0,0.0,0.0
2659,89.0,0.0,150.0,0.0,0.0
2660,58.0,120.0,120.0,0.0,0.0
2661,77.0,0.0,150.0,0.0,0.0
2662,82.0,0.0,150.0,0.0,0.0
2663,70.0,0.0,150.0,0.0,0.0
2664,65.0,120.0,120.0,0.0,0.0
2665,72.0,0.0,720.0,0.0,0.0
2666,67.0,0.0,480.0,0.0,0.0
2667,79.0,60.0,900.0,0.0,0.0
2668,48.0,120.0,120.0,0.0,0.0
2669,77.0,0.0,480.0,0.0,0.0
2670,55.0,120.0,120.0,0.0,0.0
2671,60.0,120.0,120.0,0.0,0.0
2672,65.0,120.0,120.0,0.0,0.0
2673,70.0,0.0,240.0,0.0,0.0
2674,76.0,0.0,240.0,0.0,0.0
2675,48.0,120.0,120.0,0.0,0.0
2676,55.0,120.0,120.0,0.0,0.0
2677,60.0,60.0,120.0,0.0,0.0
2678,64.0,160.0,120.0,0.0,0.0
2679,77.0,0.0,60.0,0.0,0.0
2680,69.0,0.0,150.0,0.0,0.0
2681,77.0,0.0,150.0,0.0,0.0
2682,53.0,0.0,150.0,0.0,0.0
2683,60.0,0.0,150.0,0.0,0.0
2684,55.0,0.0,90.0,0.0,0.0
2685,59.0,0.0,90.0,0.0,0.0
2686,65.0,80.0,15.0,0.0,0.0
2687,67.0,160.0,90.0,0.0,0.0
2688,74.0,0.0,90.0,0.0,0.0
2689,55.0,0.0,90.0,0.0,0.0
2690,59.0,0.0,90.0,0.0,0.0
2691,74.0,0.0,90.0,0.0,0.0
2692,65.0,0.0,90.0,0.0,0.0
2693,67.0,240.0,90.0,0.0,0.0
2694,67.0,80.0,150.0,0.0,0.0
2695,74.0,0.0,150.0,0.0,0.0
2696,65.0,0.0,150.0,0.0,0.0
2697,59.0,0.0,150.0,0.0,0.0
2698,55.0,0.0,150.0,0.0,0.0
2699,72.0,0.0,90.0,0.0,0.0
2700,64.0,160.0,90.0,0.0,0.0
2701,60.0,0.0,90.0,0.0,0.0
2702,72.0,240.0,90.0,0.0,0.0
2703,60.0,0.0,90.0,0.0,0.0
2704,76.0,0.0,90.0,0.0,0.0
2705,82.0,0.0,90.0,0.0,0.0
2706,67.0,0.0,90.0,0.0,0.0
2707,76.0,80.0,150.0,0.0,0.0
2708,82.0,0.0,150.0,0.0,0.0
2709,60.0,0.0,150.0,0.0,0.0
2710,67.0,0.0,150.0,0.0,0.0
2711,81.0,0.0,90.0,0.0,0.0
2712,72.0,0.0,15.0,0.0,0.0
2713,65.0,160.0,90.0,0.0,0.0
2714,77.0,0.0,90.0,0.0,0.0
2715,77.0,0.0,90.0,0.0,0.0
2716,79.0,0.0,90.0,0.0,0.0
2717,86.0,0.0,90.0,0.0,0.0
2718,71.0,240.0,90.0,0.0,0.0
2719,67.0,0.0,90.0,0.0,0.0
2720,79.0,0.0,150.0,0.0,0.0
2721,77.0,80.0,150.0,0.0,0.0
2722,67.0,0.0,150.0,0.0,0.0
2723,86.0,0.0,150.0,0.0,0.0
2724,71.0,0.0,150.0,0.0,0.0
2725,84.0,0.0,90.0,0.0,0.0
2726,72.0,0.0,90.0,0.0,0.0
2727,76.0,160.0,90.0,0.0,0.0
2728,84.0,0.0,90.0,0.0,0.0
2729,79.0,0.0,90.0,0.0,0.0
2730,72.0,0.0,90.0,0.0,0.0
2731,94.0,240.0,90.0,0.0,0.0
2732,88.0,0.0,90.0,0.0,0.0
2733,88.0,0.0,150.0,0.0,0.0
2734,94.0,0.0,150.0,0.0,0.0
2735,79.0,0.0,150.0,0.0,0.0
2736,72.0,0.0,150.0,0.0,0.0
2737,93.0,0.0,90.0,0.0,0.0
2738,89.0,160.0,90.0,0.0,0.0
2739,77.0,0.0,90.0,0.0,0.0
2740,84.0,80.0,15.0,0.0,0.0
2741,77.0,0.0,90.0,0.0,0.0
2742,79.0,0.0,90.0,0.0,0.0
2743,86.0,0.0,90.0,0.0,0.0
2744,67.0,0.0,90.0,0.0,0.0
2745,71.0,240.0,90.0,0.0,0.0
2746,79.0,80.0,150.0,0.0,0.0
2747,86.0,0.0,150.0,0.0,0.0
2748,67.0,0.0,150.0,0.0,0.0
2749,77.0,0.0,150.0,0.0,0.0
2750,71.0,0.0,150.0,0.0,0.0
2751,84.0,0.0,90.0,0.0,0.0
2752,72.0,160.0,90.0,0.0,0.0
2753,76.0,0.0,90.0,0.0,0.0
2754,76.0,240.0,90.0,0.0,0.0
2755,82.0,0.0,90.0,0.0,0.0
2756,60.0,0.0,90.0,0.0,0.0
2757,67.0,0.0,90.0,0.0,0.0
2758,72.0,0.0,90.0,0.0,0.0
2759,67.0,0.0,150.0,0.0,0.0
2760,60.0,0.0,150.0,0.0,0.0
2761,76.0,80.0,150.0,0.0,0.0
2762,82.0,0.0,150.0,0.0,0.0
2763,65.0,0.0,90.0,0.0,0.0
2764,72.0,0.0,15.0,0.0,0.0
2765,81.0,0.0,90.0,0.0,0.0
2766,77.0,0.0,90.0,0.0,0.0
2767,67.0,0.0,90.0,0.0,0.0
2768,65.0,0.0,90.0,0.0,0.0
2769,55.0,0.0,90.0,0.0,0.0
2770,59.0,240.0,90.0,0.0,0.0
2771,74.0,0.0,90.0,0.0,0.0
2772,65.0,0.0,150.0,0.0,0.0
2773,55.0,0.0,150.0,0.0,0.0
2774,59.0,0.0,150.0,0.0,0.0
2775,67.0,80.0,150.0,0.0,0.0
2776,74.0,0.0,150.0,0.0,0.0
2777,64.0,160.0,90.0,0.0,0.0
2778,60.0,0.0,90.0,0.0,0.0
2779,72.0,0.0,90.0,0.0,0.0
2780,64.0,0.0,90.0,0.0,0.0
2781,70.0,240.0,90.0,0.0,0.0
2782,48.0,0.0,90.0,0.0,0.0
2783,60.0,0.0,90.0,0.0,0.0
2784,55.0,0.0,90.0,0.0,0.0
2785,48.0,0.0,150.0,0.0,0.0
2786,55.0,0.0,150.0,0.0,0.0
2787,60.0,80.0,150.0,0.0,0.0
2788,64.0,0.0,150.0,0.0,0.0
2789,70.0,0.0,150.0,0.0,0.0
2790,69.0,160.0,90.0,0.0,0.0
2791,53.0,0.0,90.0,0.0,0.0
2792,60.0,0.0,90.0,0.0,0.0
2793,65.0,0.0,90.0,0.0,0.0
2794,65.0,0.0,90.0,0.0,0.0
2795,73.0,0.0,90.0,0.0,0.0
2796,68.0,0.0,90.0,0.0,0.0
2797,59.0,240.0,90.0,0.0,0.0
2798,59.0,0.0,150.0,0.0,0.0
2799,65.0,0.0,150.0,0.0,0.0
2800,68.0,80.0,150.0,0.0,0.0
2801,73.0,0.0,150.0,0.0,0.0
2802,64.0,160.0,90.0,0.0,0.0
2803,60.0,0.0,90.0,0.0,0.0
2804,67.0,0.0,90.0,0.0,0.0
2805,72.0,0.0,90.0,0.0,0.0
2806,82.0,0.0,90.0,0.0,0.0
2807,76.0,0.0,90.0,0.0,0.0
2808,60.0,240.0,90.0,0.0,0.0
2809,72.0,0.0,90.0,0.0,0.0
2810,67.0,0.0,90.0,0.0,0.0
2811,82.0,0.0,150.0,0.0,0.0
2812,60.0,0.0,150.0,0.0,0.0
2813,67.0,0.0,150.0,0.0,0.0
2814,76.0,0.0,150.0,0.0,0.0
2815,72.0,80.0,15.0,0.0,0.0
2816,81.0,0.0,90.0,0.0,0.0
2817,77.0,0.0,90.0,0.0,0.0
2818,65.0,160.0,90.0,0.0,0.0
2819,71.0,0.0,90.0,0.0,0.0
2820,77.0,0.0,90.0,0.0,0.0
2821,80.0,0.0,90.0,0.0,0.0
2822,85.0,240.0,90.0,0.0,0.0
2823,71.0,80.0,150.0,0.0,0.0
2824,77.0,0.0,150.0,0.0,0.0
2825,85.0,0.0,150.0,0.0,0.0
2826,80.0,0.0,150.0,0.0,0.0
2827,84.0,0.0,90.0,0.0,0.0
2828,79.0,160.0,90.0,0.0,0.0
2829,76.0,0.0,90.0,0.0,0.0
2830,72.0,0.0,90.0,0.0,0.0
2831,79.0,0.0,90.0,0.0,0.0
2832,84.0,0.0,90.0,0.0,0.0
2833,88.0,240.0,90.0,0.0,0.0
2834,94.0,0.0,90.0,0.0,0.0
2835,72.0,0.0,90.0,0.0,0.0
2836,79.0,0.0,150.0,0.0,0.0
2837,94.0,80.0,150.0,0.0,0.0
2838,72.0,0.0,150.0,0.0,0.0
2839,88.0,0.0,150.0,0.0,0.0
2840,89.0,160.0,90.0,0.0,0.0
2841,84.0,0.0,15.0,0.0,0.0
2842,77.0,0.0,90.0,0.0,0.0
2843,93.0,0.0,90.0,0.0,0.0
2844,85.0,0.0,90.0,0.0,0.0
2845,77.0,240.0,90.0,0.0,0.0
2846,71.0,0.0,90.0,0.0,0.0
2847,80.0,0.0,90.0,0.0,0.0
2848,77.0,80.0,150.0,0.0,0.0
2849,71.0,0.0,150.0,0.0,0.0
2850,85.0,0.0,150.0,0.0,0.0
2851,80.0,0.0,150.0,0.0,0.0
2852,72.0,0.0,90.0,0.0,0.0
2853,79.0,0.0,90.0,0.0,0.0
2854,84.0,0.0,90.0,0.0,0.0
2855,76.0,160.0,90.0,0.0,0.0
2856,60.0,0.0,90.0,0.0,0.0
2857,76.0,0.0,90.0,0.0,0.0
2858,72.0,0.0,90.0,0.0,0.0
2859,82.0,240.0,90.0,0.0,0.0
2860,67.0,0.0,90.0,0.0,0.0
2861,60.0,0.0,150.0,0.0,0.0
2862,67.0,0.0,150.0,0.0,0.0
2863,76.0,0.0,150.0,0.0,0.0
2864,82.0,0.0,150.0,0.0,0.0
2865,77.0,0.0,90.0,0.0,0.0
2866,81.0,0.0,90.0,0.0,0.0
2867,65.0,160.0,90.0,0.0,0.0
2868,72.0,80.0,15.0,0.0,0.0
2869,73.0,0.0,90.0,0.0,0.0
2870,68.0,0.0,90.0,0.0,0.0
2871,65.0,240.0,90.0,0.0,0.0
2872,59.0,0.0,90.0,0.0,0.0
2873,59.0,0.0,150.0,0.0,0.0
2874,68.0,0.0,150.0,0.0,0.0
2875,73.0,0.0,150.0,0.0,0.0
2876,65.0,80.0,150.0,0.0,0.0
2877,72.0,0.0,90.0,0.0,0.0
2878,67.0,0.0,90.0,0.0,0.0
2879,60.0,0.0,90.0,0.0,0.0
2880,64.0,160.0,90.0,0.0,0.0
2881,48.0,0.0,90.0,0.0,0.0
2882,60.0,240.0,90.0,0.0,0.0
2883,67.0,0.0,90.0,0.0,0.0
2884,64.0,0.0,90.0,0.0,0.0
2885,70.0,0.0,90.0,0.0,0.0
2886,70.0,0.0,150.0,0.0,0.0
2887,48.0,0.0,150.0,0.0,0.0
2888,67.0,80.0,150.0,0.0,0.0
2889,60.0,0.0,150.0,0.0,0.0
2890,64.0,0.0,150.0,0.0,0.0
2891,59.0,0.0,90.0,0.0,0.0
2892,47.0,0.0,90.0,0.0,0.0
2893,68.0,0.0,90.0,0.0,0.0
2894,64.0,0.0,90.0,0.0,0.0
2895,71.0,160.0,90.0,0.0,0.0
2896,61.0,0.0,90.0,0.0,0.0
2897,66.0,0.0,90.0,0.0,0.0
2898,59.0,240.0,90.0,0.0,0.0
2899,70.0,0.0,90.0,0.0,0.0
2900,76.0,0.0,90.0,0.0,0.0
2901,76.0,0.0,150.0,0.0,0.0
2902,70.0,0.0,150.0,0.0,0.0
2903,66.0,0.0,150.0,0.0,0.0
2904,61.0,0.0,150.0,0.0,0.0
2905,63.0,0.0,90.0,0.0,0.0
2906,66.0,0.0,90.0,0.0,0.0
2907,59.0,80.0,15.0,0.0,0.0
2908,71.0,0.0,90.0,0.0,0.0
2909,75.0,0.0,90.0,0.0,0.0
2910,66.0,0.0,90.0,0.0,0.0
2911,59.0,0.0,90.0,0.0,0.0
2912,69.0,0.0,90.0,0.0,0.0
2913,75.0,0.0,90.0,0.0,0.0
2914,71.0,240.0,90.0,0.0,0.0
2915,81.0,0.0,90.0,0.0,0.0
2916,69.0,80.0,150.0,0.0,0.0
2917,66.0,0.0,150.0,0.0,0.0
2918,81.0,0.0,150.0,0.0,0.0
2919,75.0,0.0,150.0,0.0,0.0
2920,59.0,0.0,150.0,0.0,0.0
2921,59.0,0.0,90.0,0.0,0.0
2922,76.0,0.0,90.0,0.0,0.0
2923,71.0,0.0,15.0,0.0,0.0
2924,80.0,0.0,90.0,0.0,0.0
2925,68.0,0.0,90.0,0.0,0.0
2926,64.0,0.0,90.0,0.0,0.0
2927,76.0,0.0,90.0,0.0,0.0
2928,66.0,240.0,90.0,0.0,0.0
2929,82.0,0.0,90.0,0.0,0.0
2930,73.0,0.0,90.0,0.0,0.0
2931,78.0,0.0,90.0,0.0,0.0
2932,88.0,0.0,90.0,0.0,0.0
2933,59.0,0.0,90.0,0.0,0.0
2934,73.0,0.0,150.0,0.0,0.0
2935,88.0,0.0,150.0,0.0,0.0
2936,82.0,0.0,150.0,0.0,0.0
2937,78.0,0.0,150.0,0.0,0.0
2938,76.0,0.0,150.0,0.0,0.0
2939,66.0,0.0,15.0,0.0,0.0
2940,71.0,0.0,90.0,0.0,0.0
2941,59.0,80.0,15.0,0.0,0.0
2942,87.0,0.0,90.0,0.0,0.0
2943,83.0,0.0,90.0,0.0,0.0
2944,75.0,160.0,90.0,0.0,0.0
2945,83.0,240.0,90.0,0.0,0.0
2946,66.0,0.0,90.0,0.0,0.0
2947,81.0,0.0,90.0,0.0,0.0
2948,59.0,0.0,90.0,0.0,0.0
2949,71.0,0.0,90.0,0.0,0.0
2950,93.0,0.0,90.0,0.0,0.0
2951,87.0,0.0,90.0,0.0,0.0
2952,87.0,0.0,150.0,0.0,0.0
2953,83.0,0.0,150.0,0.0,0.0
2954,81.0,160.0,150.0,0.0,0.0
2955,71.0,0.0,150.0,0.0,0.0
2956,59.0,0.0,150.0,0.0,0.0
2957,93.0,0.0,150.0,0.0,0.0
2958,66.0,0.0,15.0,0.0,0.0
2959,72.0,0.0,150.0,0.0,0.0
2960,74.0,0.0,150.0,0.0,0.0
2961,78.0,160.0,150.0,0.0,0.0
2962,57.0,0.0,150.0,0.0,0.0
2963,75.0,160.0,150.0,0.0,0.0
2964,84.0,0.0,150.0,0.0,0.0
2965,69.0,0.0,150.0,0.0,0.0
2966,77.0,160.0,150.0,0.0,0.0
2967,81.0,0.0,150.0,0.0,0.0
2968,60.0,0.0,150.0,0.0,0.0
2969,54.0,160.0,150.0,0.0,0.0
2970,87.0,0.0,150.0,0.0,0.0
2971,78.0,0.0,150.0,0.0,0.0
2972,84.0,160.0,150.0,0.0,0.0
2973,80.0,0.0,150.0,0.0,0.0
2974,66.0,0.0,150.0,0.0,0.0
2975,60.0,0.0,150.0,0.0,0.0
2976,51.0,160.0,150.0,0.0,0.0
2977,90.0,0.0,150.0,0.0,0.0
2978,81.0,0.0,150.0,0.0,0.0
2979,87.0,0.0,150.0,0.0,0.0
2980,83.0,0.0,150.0,0.0,0.0
2981,57.0,0.0,150.0,0.0,0.0
2982,63.0,160.0,150.0,0.0,0.0
2983,48.0,160.0,150.0,0.0,0.0
2984,93.0,0.0,150.0,0.0,0.0
2985,84.0,0.0,150.0,0.0,0.0
2986,86.0,160.0,150.0,0.0,0.0
2987,90.0,0.0,150.0,0.0,0.0
2988,54.0,0.0,150.0,0.0,0.0
2989,60.0,0.0,150.0,0.0,0.0
2990,96.0,160.0,150.0,0.0,0.0
2991,45.0,0.0,15.0,0.0,0.0
2992,33.0,0.0,150.0,0.0,0.0
2993,87.0,0.0,15.0,0.0,0.0
2994,99.0,0.0,150.0,0.0,0.0
2995,32.0,0.0,150.0,0.0,0.0
2996,100.0,0.0,150.0,0.0,0.0
2997,88.0,160.0,150.0,0.0,0.0
2998,56.0,0.0,15.0,0.0,0.0
2999,44.0,0.0,15.0,0.0,0.0
3000,64.0,0.0,150.0,0.0,0.0
3001,71.0,0.0,15.0,0.0,0.0
3002,76.0,0.0,15.0,0.0,0.0
3003,56.0,0.0,15.0,0.0,0.0
3004,76.0,0.0,15.0,0.0,0.0
3005,72.0,0.0,150.0,0.0,0.0
3006,64.0,0.0,15.0,0.0,0.0
3007,44.0,0.0,15.0,0.0,0.0
3008,64.0,0.0,150.0,0.0,0.0
3009,72.0,0.0,150.0,0.0,0.0
3010,76.0,0.0,15.0,0.0,0.0
3011,64.0,160.0,150.0,0.0,0.0
3012,76.0,0.0,15.0,0.0,0.0
3013,44.0,0.0,15.0,0.0,0.0
3014,56.0,160.0,15.0,0.0,0.0
3015,44.0,160.0,150.0,0.0,0.0
3016,56.0,0.0,150.0,0.0,0.0
3017,72.0,0.0,15.0,0.0,0.0
3018,76.0,0.0,150.0,0.0,0.0
3019,64.0,0.0,15.0,0.0,0.0
3020,64.0,0.0,15.0,0.0,0.0
3021,72.0,160.0,15.0,0.0,0.0
3022,76.0,0.0,15.0,0.0,0.0
3023,43.0,0.0,15.0,0.0,0.0
3024,55.0,0.0,15.0,0.0,0.0
3025,64.0,0.0,150.0,0.0,0.0
3026,72.0,160.0,15.0,0.0,0.0
3027,43.0,0.0,150.0,0.0,0.0
3028,55.0,160.0,150.0,0.0,0.0
3029,76.0,0.0,15.0,0.0,0.0
3030,72.0,0.0,150.0,0.0,0.0
3031,56.0,0.0,150.0,0.0,0.0
3032,64.0,0.0,15.0,0.0,0.0
3033,76.0,0.0,15.0,0.0,0.0
3034,56.0,0.0,150.0,0.0,0.0
3035,44.0,160.0,15.0,0.0,0.0
3036,56.0,0.0,90.0,0.0,0.0
3037,72.0,80.0,15.0,0.0,0.0
3038,76.0,0.0,90.0,0.0,0.0
3039,64.0,0.0,15.0,0.0,0.0
3040,44.0,0.0,90.0,0.0,0.0
3041,64.0,0.0,90.0,0.0,0.0
3042,73.0,160.0,90.0,0.0,0.0
3043,76.0,0.0,90.0,0.0,0.0
3044,56.0,0.0,90.0,0.0,0.0
3045,44.0,0.0,90.0,0.0,0.0
3046,73.0,0.0,90.0,0.0,0.0
3047,76.0,0.0,90.0,0.0,0.0
3048,44.0,0.0,90.0,0.0,0.0
3049,56.0,0.0,90.0,0.0,0.0
3050,64.0,160.0,90.0,0.0,0.0
3051,64.0,0.0,90.0,0.0,0.0
3052,73.0,0.0,90.0,0.0,0.0
3053,56.0,160.0,90.0,0.0,0.0
3054,44.0,0.0,90.0,0.0,0.0
3055,76.0,0.0,90.0,0.0,0.0
3056,65.0,0.0,90.0,0.0,0.0
3057,73.0,160.0,90.0,0.0,0.0
3058,77.0,0.0,90.0,0.0,0.0
3059,56.0,0.0,90.0,0.0,0.0
3060,44.0,0.0,90.0,0.0,0.0
3061,77.0,0.0,90.0,0.0,0.0
3062,44.0,0.0,90.0,0.0,0.0
3063,56.0,160.0,90.0,0.0,0.0
3064,73.0,0.0,90.0,0.0,0.0
3065,65.0,0.0,90.0,0.0,0.0
3066,44.0,0.0,90.0,0.0,0.0
3067,56.0,0.0,90.0,0.0,0.0
3068,65.0,0.0,90.0,0.0,0.0
3069,73.0,160.0,90.0,0.0,0.0
3070,77.0,0.0,90.0,0.0,0.0
3071,55.0,0.0,90.0,0.0,0.0
3072,73.0,160.0,90.0,0.0,0.0
3073,65.0,0.0,90.0,0.0,0.0
3074,77.0,0.0,90.0,0.0,0.0
3075,43.0,0.0,90.0,0.0,0.0
3076,65.0,0.0,90.0,0.0,0.0
3077,77.0,0.0,90.0,0.0,0.0
3078,73.0,160.0,90.0,0.0,0.0
3079,43.0,0.0,90.0,0.0,0.0
3080,55.0,0.0,90.0,0.0,0.0
3081,55.0,0.0,90.0,0.0,0.0
3082,43.0,0.0,90.0,0.0,0.0
3083,65.0,0.0,90.0,0.0,0.0
3084,77.0,0.0,90.0,0.0,0.0
3085,73.0,160.0,90.0,0.0,0.0
3086,44.0,0.0,90.0,0.0,0.0
3087,65.0,0.0,90.0,0.0,0.0
3088,72.0,0.0,90.0,0.0,0.0
3089,77.0,0.0,90.0,0.0,0.0
3090,56.0,160.0,90.0,0.0,0.0
3091,65.0,0.0,90.0,0.0,0.0
3092,71.0,0.0,90.0,0.0,0.0
3093,56.0,0.0,90.0,0.0,0.0
3094,44.0,160.0,90.0,0.0,0.0
3095,77.0,0.0,90.0,0.0,0.0
3096,45.0,0.0,90.0,0.0,0.0
3097,72.0,0.0,90.0,0.0,0.0
3098,57.0,240.0,90.0,0.0,0.0
3099,65.0,0.0,90.0,0.0,0.0
3100,77.0,0.0,90.0,0.0,0.0
3101,69.0,0.0,150.0,0.0,0.0
3102,72.0,0.0,150.0,0.0,0.0
3103,81.0,0.0,150.0,0.0,0.0
3104,65.0,160.0,15.0,0.0,0.0
3105,60.0,0.0,15.0,0.0,0.0
3106,53.0,0.0,15.0,0.0,0.0
3107,72.0,0.0,15.0,0.0,0.0
3108,53.0,160.0,15.0,0.0,0.0
3109,60.0,0.0,150.0,0.0,0.0
3110,65.0,0.0,150.0,0.0,0.0
3111,81.0,0.0,15.0,0.0,0.0
3112,69.0,0.0,15.0,0.0,0.0
3113,79.0,0.0,150.0,0.0,0.0
3114,67.0,160.0,150.0,0.0,0.0
3115,65.0,160.0,150.0,0.0,0.0
3116,77.0,0.0,150.0,0.0,0.0
3117,34.0,0.0,150.0,0.0,0.0
3118,46.0,160.0,150.0,0.0,0.0
3119,74.0,0.0,150.0,0.0,0.0
3120,58.0,0.0,150.0,0.0,0.0
3121,53.0,160.0,150.0,0.0,0.0
3122,65.0,0.0,150.0,0.0,0.0
3123,69.0,0.0,150.0,0.0,0.0
3124,69.0,0.0,150.0,0.0,0.0
3125,81.0,0.0,15.0,0.0,0.0
3126,58.0,0.0,150.0,0.0,0.0
3127,53.0,0.0,150.0,0.0,0.0
3128,74.0,0.0,15.0,0.0,0.0
3129,53.0,0.0,150.0,0.0,0.0
3130,58.0,0.0,150.0,0.0,0.0
3131,65.0,0.0,15.0,0.0,0.0
3132,69.0,0.0,150.0,0.0,0.0
3133,81.0,160.0,15.0,0.0,0.0
3134,67.0,0.0,150.0,0.0,0.0
3135,79.0,160.0,150.0,0.0,0.0
3136,77.0,160.0,150.0,0.0,0.0
3137,65.0,0.0,150.0,0.0,0.0
3138,48.0,0.0,150.0,0.0,0.0
3139,36.0,160.0,150.0,0.0,0.0
3140,60.0,0.0,150.0,0.0,0.0
3141,53.0,0.0,15.0,0.0,0.0
3142,81.0,0.0,15.0,0.0,0.0
3143,69.0,0.0,15.0,0.0,0.0
3144,72.0,0.0,15.0,0.0,0.0
3145,65.0,160.0,15.0,0.0,0.0
3146,69.0,0.0,150.0,0.0,0.0
3147,72.0,0.0,150.0,0.0,0.0
3148,81.0,160.0,15.0,0.0,0.0
3149,65.0,0.0,15.0,0.0,0.0
3150,60.0,0.0,15.0,0.0,0.0
3151,53.0,0.0,150.0,0.0,0.0
3152,67.0,160.0,150.0,0.0,0.0
3153,79.0,0.0,150.0,0.0,0.0
3154,77.0,0.0,150.0,0.0,0.0
3155,65.0,160.0,150.0,0.0,0.0
3156,50.0,160.0,150.0,0.0,0.0
3157,38.0,0.0,150.0,0.0,0.0
3158,69.0,0.0,150.0,0.0,0.0
3159,71.0,0.0,150.0,0.0,0.0
3160,81.0,0.0,150.0,0.0,0.0
3161,62.0,0.0,15.0,0.0,0.0
3162,55.0,160.0,15.0,0.0,0.0
3163,65.0,0.0,15.0,0.0,0.0
3164,81.0,0.0,15.0,0.0,0.0
3165,71.0,0.0,15.0,0.0,0.0
3166,65.0,0.0,15.0,0.0,0.0
3167,69.0,160.0,15.0,0.0,0.0
3168,62.0,0.0,15.0,0.0,0.0
3169,55.0,0.0,150.0,0.0,0.0
3170,67.0,160.0,150.0,0.0,0.0
3171,79.0,0.0,150.0,0.0,0.0
3172,65.0,0.0,150.0,0.0,0.0
3173,77.0,1920.0,150.0,0.0,0.0
3174,55.0,0.0,1920.0,0.0,0.0
3175,59.0,1860.0,1920.0,0.0,0.0
3176,67.0,0.0,1920.0,0.0,0.0
3177,65.0,0.0,1920.0,0.0,0.0
3178,43.0,0.0,1920.0,0.0,0.0
3179,31.0,0.0,1920.0,0.0,0.0
3180,64.0,120.0,1920.0,0.0,0.0
3181,69.0,60.0,1860.0,0.0,0.0
3182,58.0,0.0,1920.0,0.0,0.0
3183,36.0,0.0,1920.0,0.0,0.0
3184,48.0,0.0,1920.0,0.0,0.0
3185,70.0,0.0,60.0,0.0,0.0
3186,37.0,120.0,120.0,0.0,0.0
3187,49.0,0.0,120.0,0.0,0.0
3188,58.0,120.0,960.0,0.0,0.0
3189,65.0,0.0,960.0,0.0,0.0
3190,70.0,0.0,960.0,0.0,0.0
3191,34.0,0.0,120.0,0.0,0.0
3192,46.0,240.0,120.0,0.0,0.0
3193,36.0,120.0,120.0,0.0,0.0
3194,48.0,0.0,120.0,0.0,0.0
3195,37.0,120.0,120.0,0.0,0.0
3196,49.0,0.0,120.0,0.0,0.0
3197,34.0,240.0,120.0,0.0,0.0
3198,46.0,0.0,120.0,0.0,0.0
3199,37.0,120.0,120.0,0.0,0.0
3200,49.0,0.0,120.0,0.0,0.0
3201,46.0,0.0,120.0,0.0,0.0
3202,34.0,240.0,120.0,0.0,0.0
3203,36.0,0.0,120.0,0.0,0.0
3204,48.0,120.0,120.0,0.0,0.0
3205,49.0,0.0,120.0,0.0,0.0
3206,37.0,120.0,120.0,0.0,0.0
3207,46.0,0.0,120.0,0.0,0.0
3208,34.0,360.0,120.0,0.0,0.0
3209,49.0,120.0,120.0,0.0,0.0
3210,37.0,0.0,120.0,0.0,0.0
3211,46.0,0.0,120.0,0.0,0.0
3212,34.0,240.0,120.0,0.0,0.0
3213,36.0,0.0,120.0,0.0,0.0
3214,48.0,120.0,120.0,0.0,0.0
3215,37.0,120.0,120.0,0.0,0.0
3216,49.0,0.0,120.0,0.0,0.0
3217,46.0,720.0,120.0,0.0,0.0
3218,58.0,0.0,120.0,0.0,0.0
3219,58.0,480.0,480.0,0.0,0.0
3220,73.0,0.0,480.0,0.0,0.0
3221,64.0,360.0,960.0,0.0,0.0
3222,74.0,0.0,480.0,0.0,0.0
3223,42.0,0.0,480.0,0.0,0.0
3224,59.0,0.0,960.0,0.0,0.0
3225,54.0,0.0,960.0,0.0,0.0
3226,47.0,360.0,960.0,0.0,0.0
3227,63.0,0.0,960.0,0.0,0.0
3228,75.0,0.0,360.0,0.0,0.0
3229,66.0,120.0,15.0,0.0,0.0
3230,66.0,480.0,15.0,0.0,0.0
3231,42.0,120.0,360.0,0.0,0.0
3232,54.0,0.0,360.0,0.0,0.0
3233,35.0,480.0,120.0,0.0,0.0
3234,47.0,0.0,120.0,0.0,0.0
3235,47.0,120.0,480.0,0.0,0.0
3236,35.0,0.0,480.0,0.0,0.0
3237,42.0,120.0,120.0,0.0,0.0
3238,35.0,240.0,120.0,0.0,0.0
3239,37.0,120.0,120.0,0.0,0.0
3240,39.0,120.0,120.0,0.0,0.0
3241,35.0,360.0,120.0,0.0,0.0
3242,54.0,120.0,120.0,0.0,0.0
3243,42.0,0.0,120.0,0.0,0.0
3244,47.0,240.0,120.0,0.0,0.0
3245,35.0,0.0,120.0,0.0,0.0
3246,49.0,0.0,120.0,0.0,0.0
3247,37.0,120.0,120.0,0.0,0.0
3248,39.0,0.0,120.0,0.0,0.0
3249,51.0,120.0,120.0,0.0,0.0
3250,47.0,360.0,120.0,0.0,0.0
3251,35.0,0.0,120.0,0.0,0.0
3252,42.0,120.0,120.0,0.0,0.0
3253,54.0,0.0,120.0,0.0,0.0
3254,36.0,240.0,120.0,0.0,0.0
3255,48.0,0.0,120.0,0.0,0.0
3256,37.0,120.0,120.0,0.0,0.0
3257,49.0,0.0,120.0,0.0,0.0
3258,51.0,120.0,120.0,0.0,0.0
3259,39.0,0.0,120.0,0.0,0.0
3260,48.0,360.0,120.0,0.0,0.0
3261,36.0,0.0,120.0,0.0,0.0
3262,42.0,0.0,120.0,0.0,0.0
3263,54.0,120.0,120.0,0.0,0.0
3264,36.0,0.0,120.0,0.0,0.0
3265,48.0,240.0,120.0,0.0,0.0
3266,49.0,120.0,120.0,0.0,0.0
3267,37.0,0.0,120.0,0.0,0.0
3268,51.0,0.0,120.0,0.0,0.0
3269,39.0,120.0,120.0,0.0,0.0
3270,36.0,360.0,120.0,0.0,0.0
3271,48.0,0.0,120.0,0.0,0.0
3272,54.0,120.0,120.0,0.0,0.0
3273,42.0,0.0,120.0,0.0,0.0
3274,39.0,0.0,120.0,0.0,0.0
3275,51.0,240.0,120.0,0.0,0.0
3276,53.0,120.0,120.0,0.0,0.0
3277,41.0,0.0,120.0,0.0,0.0
3278,42.0,120.0,120.0,0.0,0.0
3279,54.0,0.0,120.0,0.0,0.0
3280,63.0,720.0,120.0,0.0,0.0
3281,51.0,0.0,120.0,0.0,0.0
3282,60.0,480.0,480.0,0.0,0.0
3283,75.0,0.0,480.0,0.0,0.0
3284,68.0,120.0,1320.0,0.0,0.0
3285,66.0,360.0,960.0,0.0,0.0
3286,76.0,0.0,480.0,0.0,0.0
3287,44.0,0.0,480.0,0.0,0.0
3288,56.0,480.0,480.0,0.0,0.0
3289,61.0,0.0,960.0,0.0,0.0
3290,65.0,0.0,1920.0,0.0,0.0
3291,77.0,0.0,360.0,0.0,0.0
3292,49.0,120.0,960.0,0.0,0.0
3293,69.0,0.0,15.0,0.0,0.0
3294,37.0,120.0,120.0,0.0,0.0
3295,49.0,0.0,120.0,0.0,0.0
3296,45.0,0.0,120.0,0.0,0.0
3297,33.0,240.0,120.0,0.0,0.0
3298,47.0,0.0,120.0,0.0,0.0
3299,35.0,120.0,120.0,0.0,0.0
3300,37.0,120.0,120.0,0.0,0.0
3301,49.0,0.0,120.0,0.0,0.0
3302,45.0,240.0,120.0,0.0,0.0
3303,33.0,0.0,120.0,0.0,0.0
3304,69.0,0.0,360.0,0.0,0.0
3305,77.0,120.0,360.0,0.0,0.0
3306,65.0,0.0,960.0,0.0,0.0
3307,57.0,360.0,15.0,0.0,0.0
3308,49.0,0.0,960.0,0.0,0.0
3309,70.0,480.0,120.0,0.0,0.0
3310,58.0,0.0,480.0,0.0,0.0
3311,66.0,0.0,960.0,0.0,0.0
3312,70.0,360.0,15.0,0.0,0.0
3313,51.0,0.0,960.0,0.0,0.0
3314,58.0,480.0,480.0,0.0,0.0
3315,78.0,120.0,360.0,0.0,0.0
3316,71.0,0.0,15.0,0.0,0.0
3317,59.0,0.0,480.0,0.0,0.0
3318,39.0,0.0,120.0,0.0,0.0
3319,51.0,120.0,120.0,0.0,0.0
3320,79.0,230.0,720.0,0.0,0.0
3321,71.0,120.0,15.0,0.0,0.0
3322,69.0,120.0,960.0,0.0,0.0
3323,35.0,240.0,120.0,0.0,0.0
3324,47.0,0.0,120.0,0.0,0.0
3325,49.0,120.0,120.0,0.0,0.0
3326,37.0,0.0,120.0,0.0,0.0
3327,39.0,120.0,120.0,0.0,0.0
3328,51.0,0.0,120.0,0.0,0.0
3329,35.0,0.0,120.0,0.0,0.0
3330,47.0,10.0,120.0,0.0,0.0
3331,78.0,0.0,240.0,0.0,0.0
3332,71.0,0.0,15.0,0.0,0.0
3333,52.0,120.0,120.0,0.0,0.0
3334,40.0,0.0,120.0,0.0,0.0
3335,78.0,110.0,360.0,0.0,0.0
3336,67.0,0.0,480.0,0.0,0.0
3337,47.0,0.0,120.0,0.0,0.0
3338,35.0,130.0,120.0,0.0,0.0
3339,40.0,120.0,120.0,0.0,0.0
3340,52.0,0.0,120.0,0.0,0.0
3341,76.0,120.0,480.0,0.0,0.0
3342,42.0,0.0,120.0,0.0,0.0
3343,69.0,120.0,480.0,0.0,0.0
3344,54.0,120.0,120.0,0.0,0.0
3345,47.0,120.0,120.0,0.0,0.0
3346,35.0,0.0,120.0,0.0,0.0
3347,74.0,0.0,120.0,0.0,0.0
3348,74.0,110.0,360.0,0.0,0.0
3349,67.0,0.0,960.0,0.0,0.0
3350,64.0,10.0,960.0,0.0,0.0
3351,43.0,0.0,120.0,0.0,0.0
3352,55.0,120.0,120.0,0.0,0.0
3353,35.0,130.0,120.0,0.0,0.0
3354,47.0,0.0,120.0,0.0,0.0
3355,42.0,120.0,120.0,0.0,0.0
3356,54.0,0.0,120.0,0.0,0.0
3357,72.0,0.0,15.0,0.0,0.0
3358,55.0,50.0,120.0,0.0,0.0
3359,43.0,0.0,120.0,0.0,0.0
3360,48.0,90.0,120.0,0.0,0.0
3361,60.0,0.0,120.0,0.0,0.0
3362,76.0,150.0,180.0,0.0,0.0
3363,74.0,110.0,180.0,0.0,0.0
3364,57.0,0.0,120.0,0.0,0.0
3365,63.0,0.0,960.0,0.0,0.0
3366,72.0,110.0,480.0,0.0,0.0
3367,45.0,120.0,120.0,0.0,0.0
3368,42.0,240.0,120.0,0.0,0.0
3369,54.0,0.0,120.0,0.0,0.0
3370,43.0,10.0,120.0,0.0,0.0
3371,55.0,0.0,120.0,0.0,0.0
3372,45.0,120.0,120.0,0.0,0.0
3373,57.0,0.0,120.0,0.0,0.0
3374,66.0,0.0,120.0,0.0,0.0
3375,54.0,240.0,120.0,0.0,0.0
3376,71.0,0.0,15.0,0.0,0.0
3377,83.0,120.0,240.0,0.0,0.0
3378,44.0,80.0,150.0,0.0,0.0
3379,62.0,40.0,120.0,0.0,0.0
3380,74.0,0.0,120.0,0.0,0.0
3381,65.0,0.0,120.0,0.0,0.0
3382,73.0,240.0,120.0,0.0,0.0
3383,49.0,0.0,330.0,0.0,0.0
3384,59.0,0.0,150.0,0.0,0.0
3385,61.0,0.0,120.0,0.0,0.0
3386,71.0,120.0,120.0,0.0,0.0
3387,66.0,40.0,120.0,0.0,0.0
3388,58.0,80.0,150.0,0.0,0.0
3389,70.0,0.0,120.0,0.0,0.0
3390,61.0,80.0,120.0,0.0,0.0
3391,73.0,0.0,120.0,0.0,0.0
3392,49.0,160.0,150.0,0.0,0.0
3393,42.0,0.0,150.0,0.0,0.0
3394,45.0,80.0,150.0,0.0,0.0
3395,76.0,0.0,15.0,0.0,0.0
3396,64.0,120.0,15.0,0.0,0.0
3397,67.0,0.0,120.0,0.0,0.0
3398,75.0,240.0,120.0,0.0,0.0
3399,51.0,120.0,330.0,0.0,0.0
3400,61.0,0.0,150.0,0.0,0.0
3401,63.0,0.0,120.0,0.0,0.0
3402,73.0,0.0,120.0,0.0,0.0
3403,60.0,80.0,150.0,0.0,0.0
3404,72.0,40.0,120.0,0.0,0.0
3405,68.0,0.0,120.0,0.0,0.0
3406,63.0,80.0,120.0,0.0,0.0
3407,75.0,0.0,120.0,0.0,0.0
3408,51.0,160.0,150.0,0.0,0.0
3409,44.0,120.0,150.0,0.0,0.0
3410,66.0,0.0,15.0,0.0,0.0
3411,78.0,0.0,15.0,0.0,0.0
3412,47.0,80.0,150.0,0.0,0.0
3413,77.0,0.0,120.0,0.0,0.0
3414,69.0,80.0,120.0,0.0,0.0
3415,53.0,160.0,150.0,0.0,0.0
3416,63.0,0.0,150.0,0.0,0.0
3417,75.0,0.0,120.0,0.0,0.0
3418,65.0,160.0,120.0,0.0,0.0
3419,46.0,0.0,150.0,0.0,0.0
3420,74.0,0.0,150.0,0.0,0.0
3421,70.0,160.0,150.0,0.0,0.0
3422,65.0,0.0,150.0,0.0,0.0
3423,77.0,0.0,150.0,0.0,0.0
3424,53.0,160.0,150.0,0.0,0.0
3425,74.0,0.0,150.0,0.0,0.0
3426,77.0,0.0,150.0,0.0,0.0
3427,62.0,160.0,150.0,0.0,0.0
3428,68.0,0.0,150.0,0.0,0.0
3429,47.0,0.0,150.0,0.0,0.0
3430,80.0,160.0,15.0,0.0,0.0
3431,56.0,160.0,150.0,0.0,0.0
3432,77.0,0.0,150.0,0.0,0.0
3433,74.0,160.0,150.0,0.0,0.0
3434,86.0,0.0,150.0,0.0,0.0
3435,65.0,0.0,150.0,0.0,0.0
3436,84.0,0.0,150.0,0.0,0.0
3437,48.0,160.0,150.0,0.0,0.0
3438,89.0,0.0,150.0,0.0,0.0
3439,92.0,0.0,150.0,0.0,0.0
3440,56.0,160.0,150.0,0.0,0.0
3441,80.0,0.0,150.0,0.0,0.0
3442,65.0,0.0,150.0,0.0,0.0
3443,92.0,0.0,150.0,0.0,0.0
3444,104.0,120.0,150.0,0.0,0.0
3445,36.0,120.0,120.0,0.0,0.0
3446,48.0,0.0,120.0,0.0,0.0
3447,68.0,120.0,960.0,0.0,0.0
3448,76.0,230.0,720.0,0.0,0.0
3449,44.0,0.0,120.0,0.0,0.0
3450,32.0,240.0,120.0,0.0,0.0
3451,34.0,120.0,120.0,0.0,0.0
3452,46.0,0.0,120.0,0.0,0.0
3453,48.0,0.0,120.0,0.0,0.0
3454,36.0,120.0,120.0,0.0,0.0
3455,32.0,10.0,120.0,0.0,0.0
3456,44.0,0.0,120.0,0.0,0.0
3457,74.0,0.0,240.0,0.0,0.0
3458,62.0,0.0,240.0,0.0,0.0
3459,36.0,120.0,120.0,0.0,0.0
3460,48.0,0.0,120.0,0.0,0.0
3461,74.0,0.0,480.0,0.0,0.0
3462,69.0,0.0,960.0,0.0,0.0
3463,64.0,0.0,15.0,0.0,0.0
3464,62.0,120.0,480.0,0.0,0.0
3465,33.0,0.0,120.0,0.0,0.0
3466,45.0,240.0,120.0,0.0,0.0
3467,47.0,0.0,120.0,0.0,0.0
3468,35.0,0.0,120.0,0.0,0.0
3469,48.0,0.0,120.0,0.0,0.0
3470,36.0,120.0,120.0,0.0,0.0
3471,60.0,0.0,360.0,0.0,0.0
3472,33.0,120.0,120.0,0.0,0.0
3473,45.0,0.0,120.0,0.0,0.0
3474,72.0,120.0,15.0,0.0,0.0
3475,60.0,120.0,120.0,0.0,0.0
3476,38.0,120.0,120.0,0.0,0.0
3477,72.0,0.0,15.0,0.0,0.0
3478,60.0,0.0,360.0,0.0,0.0
3479,68.0,10.0,810.0,0.0,0.0
3480,50.0,0.0,120.0,0.0,0.0
3481,65.0,0.0,480.0,0.0,0.0
3482,47.0,0.0,120.0,0.0,0.0
3483,35.0,120.0,120.0,0.0,0.0
3484,71.0,0.0,120.0,0.0,0.0
3485,36.0,120.0,120.0,0.0,0.0
3486,48.0,0.0,120.0,0.0,0.0
3487,59.0,50.0,120.0,0.0,0.0
3488,71.0,70.0,180.0,0.0,0.0
3489,50.0,0.0,120.0,0.0,0.0
3490,38.0,0.0,120.0,0.0,0.0
3491,59.0,80.0,120.0,0.0,0.0
3492,47.0,0.0,120.0,0.0,0.0
3493,57.0,0.0,150.0,0.0,0.0
3494,69.0,150.0,180.0,0.0,0.0
3495,56.0,120.0,150.0,0.0,0.0
3496,68.0,0.0,150.0,0.0,0.0
3497,59.0,0.0,480.0,0.0,0.0
3498,71.0,110.0,480.0,0.0,0.0
3499,40.0,120.0,120.0,0.0,0.0
3500,52.0,0.0,120.0,0.0,0.0
3501,67.0,120.0,960.0,0.0,0.0
3502,37.0,240.0,120.0,0.0,0.0
3503,49.0,0.0,120.0,0.0,0.0
3504,38.0,10.0,120.0,0.0,0.0
3505,50.0,0.0,120.0,0.0,0.0
3506,58.0,240.0,240.0,0.0,0.0
3507,70.0,0.0,240.0,0.0,0.0
3508,40.0,120.0,120.0,0.0,0.0
3509,52.0,0.0,120.0,0.0,0.0
3510,52.0,0.0,120.0,0.0,0.0
3511,64.0,0.0,120.0,0.0,0.0
3512,73.0,0.0,240.0,0.0,0.0
3513,85.0,0.0,240.0,0.0,0.0
3514,64.0,0.0,120.0,0.0,0.0
3515,76.0,40.0,120.0,0.0,0.0
3516,43.0,80.0,150.0,0.0,0.0
3517,75.0,240.0,120.0,0.0,0.0
3518,70.0,0.0,120.0,0.0,0.0
3519,51.0,0.0,330.0,0.0,0.0
3520,61.0,0.0,150.0,0.0,0.0
3521,73.0,0.0,120.0,0.0,0.0
3522,63.0,120.0,120.0,0.0,0.0
3523,60.0,80.0,150.0,0.0,0.0
3524,68.0,40.0,120.0,0.0,0.0
3525,72.0,0.0,120.0,0.0,0.0
3526,63.0,0.0,120.0,0.0,0.0
3527,75.0,80.0,120.0,0.0,0.0
3528,51.0,160.0,150.0,0.0,0.0
3529,44.0,0.0,150.0,0.0,0.0
3530,66.0,0.0,120.0,0.0,0.0
3531,45.0,80.0,150.0,0.0,0.0
3532,66.0,0.0,120.0,0.0,0.0
3533,78.0,120.0,15.0,0.0,0.0
3534,77.0,0.0,120.0,0.0,0.0
3535,72.0,240.0,120.0,0.0,0.0
3536,53.0,120.0,330.0,0.0,0.0
3537,63.0,0.0,150.0,0.0,0.0
3538,75.0,0.0,120.0,0.0,0.0
3539,65.0,0.0,120.0,0.0,0.0
3540,62.0,80.0,150.0,0.0,0.0
3541,70.0,40.0,120.0,0.0,0.0
3542,74.0,0.0,120.0,0.0,0.0
3543,77.0,80.0,120.0,0.0,0.0
3544,65.0,0.0,120.0,0.0,0.0
3545,53.0,160.0,150.0,0.0,0.0
3546,46.0,120.0,150.0,0.0,0.0
3547,68.0,0.0,120.0,0.0,0.0
3548,80.0,0.0,120.0,0.0,0.0
3549,68.0,40.0,120.0,0.0,0.0
3550,80.0,0.0,120.0,0.0,0.0
3551,47.0,80.0,150.0,0.0,0.0
3552,79.0,0.0,120.0,0.0,0.0
3553,74.0,240.0,120.0,0.0,0.0
3554,55.0,160.0,330.0,0.0,0.0
3555,65.0,0.0,150.0,0.0,0.0
3556,67.0,0.0,120.0,0.0,0.0
3557,77.0,0.0,120.0,0.0,0.0
3558,72.0,0.0,150.0,0.0,0.0
3559,76.0,0.0,150.0,0.0,0.0
3560,48.0,160.0,150.0,0.0,0.0
3561,67.0,0.0,150.0,0.0,0.0
3562,55.0,160.0,150.0,0.0,0.0
3563,76.0,0.0,150.0,0.0,0.0
3564,79.0,0.0,15.0,0.0,0.0
3565,64.0,160.0,150.0,0.0,0.0
3566,70.0,160.0,150.0,0.0,0.0
3567,49.0,0.0,150.0,0.0,0.0
3568,82.0,0.0,150.0,0.0,0.0
3569,79.0,160.0,150.0,0.0,0.0
3570,82.0,0.0,150.0,0.0,0.0
3571,58.0,0.0,150.0,0.0,0.0
3572,67.0,0.0,150.0,0.0,0.0
3573,73.0,160.0,150.0,0.0,0.0
3574,85.0,0.0,150.0,0.0,0.0
3575,52.0,0.0,150.0,0.0,0.0
3576,82.0,0.0,150.0,0.0,0.0
3577,85.0,160.0,150.0,0.0,0.0
3578,90.0,0.0,150.0,0.0,0.0
3579,58.0,160.0,150.0,0.0,0.0
3580,78.0,0.0,150.0,0.0,0.0
3581,66.0,120.0,150.0,0.0,0.0
3582,82.0,0.0,150.0,0.0,0.0
3583,94.0,0.0,150.0,0.0,0.0
3584,90.0,0.0,120.0,0.0,0.0
3585,95.0,40.0,120.0,0.0,0.0
3586,38.0,80.0,150.0,0.0,0.0
3587,50.0,0.0,150.0,0.0,0.0
3588,86.0,80.0,120.0,0.0,0.0
3589,83.0,0.0,120.0,0.0,0.0
3590,62.0,160.0,150.0,0.0,0.0
3591,54.0,0.0,150.0,0.0,0.0
3592,59.0,0.0,150.0,0.0,0.0
3593,66.0,0.0,150.0,0.0,0.0
3594,85.0,0.0,120.0,0.0,0.0
3595,88.0,120.0,120.0,0.0,0.0
3596,71.0,80.0,150.0,0.0,0.0
3597,62.0,0.0,150.0,0.0,0.0
3598,90.0,40.0,120.0,0.0,0.0
3599,86.0,0.0,120.0,0.0,0.0
3600,78.0,80.0,120.0,0.0,0.0
3601,83.0,0.0,120.0,0.0,0.0
3602,66.0,160.0,150.0,0.0,0.0
3603,59.0,0.0,150.0,0.0,0.0
3604,30.0,120.0,90.0,0.0,0.0
3605,42.0,0.0,90.0,0.0,0.0
3606,30.0,80.0,150.0,0.0,0.0
3607,86.0,0.0,120.0,0.0,0.0
3608,42.0,0.0,150.0,0.0,0.0
3609,90.0,40.0,120.0,0.0,0.0
3610,78.0,0.0,120.0,0.0,0.0
3611,83.0,80.0,120.0,0.0,0.0
3612,54.0,160.0,150.0,0.0,0.0
3613,62.0,0.0,150.0,0.0,0.0
3614,59.0,0.0,150.0,0.0,0.0
3615,66.0,0.0,150.0,0.0,0.0
3616,82.0,120.0,120.0,0.0,0.0
3617,85.0,0.0,120.0,0.0,0.0
3618,83.0,40.0,120.0,0.0,0.0
3619,86.0,0.0,120.0,0.0,0.0
3620,71.0,80.0,150.0,0.0,0.0
3621,62.0,0.0,150.0,0.0,0.0
3622,90.0,80.0,120.0,0.0,0.0
3623,95.0,0.0,120.0,0.0,0.0
3624,66.0,160.0,150.0,0.0,0.0
3625,59.0,0.0,150.0,0.0,0.0
3626,54.0,120.0,150.0,0.0,0.0
3627,93.0,0.0,120.0,0.0,0.0
3628,89.0,40.0,120.0,0.0,0.0
3629,62.0,0.0,15.0,0.0,0.0
3630,50.0,80.0,150.0,0.0,0.0
3631,81.0,80.0,120.0,0.0,0.0
3632,86.0,0.0,120.0,0.0,0.0
3633,57.0,0.0,150.0,0.0,0.0
3634,65.0,160.0,150.0,0.0,0.0
3635,69.0,120.0,150.0,0.0,0.0
3636,62.0,0.0,150.0,0.0,0.0
3637,88.0,0.0,120.0,0.0,0.0
3638,85.0,0.0,120.0,0.0,0.0
3639,74.0,0.0,150.0,0.0,0.0
3640,65.0,80.0,150.0,0.0,0.0
3641,86.0,0.0,120.0,0.0,0.0
3642,89.0,40.0,120.0,0.0,0.0
3643,77.0,80.0,120.0,0.0,0.0
3644,81.0,0.0,120.0,0.0,0.0
3645,69.0,160.0,150.0,0.0,0.0
3646,62.0,0.0,150.0,0.0,0.0
3647,53.0,0.0,90.0,0.0,0.0
3648,41.0,120.0,90.0,0.0,0.0
3649,41.0,80.0,150.0,0.0,0.0
3650,53.0,0.0,150.0,0.0,0.0
3651,93.0,40.0,120.0,0.0,0.0
3652,89.0,0.0,120.0,0.0,0.0
3653,86.0,80.0,120.0,0.0,0.0
3654,81.0,0.0,120.0,0.0,0.0
3655,57.0,160.0,150.0,0.0,0.0
3656,65.0,0.0,150.0,0.0,0.0
3657,62.0,0.0,150.0,0.0,0.0
3658,69.0,120.0,150.0,0.0,0.0
3659,88.0,0.0,120.0,0.0,0.0
3660,85.0,0.0,120.0,0.0,0.0
3661,65.0,0.0,150.0,0.0,0.0
3662,86.0,40.0,120.0,0.0,0.0
3663,74.0,80.0,150.0,0.0,0.0
3664,89.0,0.0,120.0,0.0,0.0
3665,98.0,80.0,120.0,0.0,0.0
3666,93.0,0.0,120.0,0.0,0.0
3667,69.0,160.0,150.0,0.0,0.0
3668,62.0,0.0,150.0,0.0,0.0
3669,65.0,0.0,150.0,0.0,0.0
3670,57.0,120.0,150.0,0.0,0.0
3671,93.0,0.0,120.0,0.0,0.0
3672,88.0,40.0,120.0,0.0,0.0
3673,48.0,0.0,150.0,0.0,0.0
3674,36.0,80.0,150.0,0.0,0.0
3675,84.0,80.0,120.0,0.0,0.0
3676,81.0,0.0,120.0,0.0,0.0
3677,57.0,0.0,150.0,0.0,0.0
3678,64.0,160.0,150.0,0.0,0.0
3679,69.0,0.0,150.0,0.0,0.0
3680,60.0,120.0,150.0,0.0,0.0
3681,86.0,0.0,120.0,0.0,0.0
3682,83.0,0.0,120.0,0.0,0.0
3683,88.0,40.0,120.0,0.0,0.0
3684,72.0,0.0,150.0,0.0,0.0
3685,64.0,80.0,150.0,0.0,0.0
3686,84.0,0.0,120.0,0.0,0.0
3687,76.0,0.0,120.0,0.0,0.0
3688,81.0,80.0,120.0,0.0,0.0
3689,60.0,180.0,150.0,0.0,0.0
3690,69.0,0.0,150.0,0.0,0.0
3691,28.0,100.0,20.0,0.0,0.0
3692,40.0,0.0,20.0,0.0,0.0
3693,84.0,40.0,120.0,0.0,0.0
3694,88.0,0.0,120.0,0.0,0.0
3695,81.0,0.0,120.0,0.0,0.0
3696,76.0,80.0,120.0,0.0,0.0
3697,64.0,0.0,150.0,0.0,0.0
3698,57.0,160.0,150.0,0.0,0.0
3699,60.0,0.0,150.0,0.0,0.0
3700,69.0,120.0,150.0,0.0,0.0
3701,83.0,0.0,120.0,0.0,0.0
3702,80.0,0.0,120.0,0.0,0.0
3703,84.0,40.0,120.0,0.0,0.0
3704,81.0,0.0,120.0,0.0,0.0
3705,72.0,80.0,150.0,0.0,0.0
3706,64.0,0.0,150.0,0.0,0.0
3707,88.0,80.0,120.0,0.0,0.0
3708,93.0,0.0,120.0,0.0,0.0
3709,69.0,160.0,150.0,0.0,0.0
3710,60.0,0.0,150.0,0.0,0.0
3711,64.0,120.0,150.0,0.0,0.0
3712,57.0,0.0,150.0,0.0,0.0
3713,88.0,40.0,120.0,0.0,0.0
3714,92.0,0.0,120.0,0.0,0.0
3715,60.0,80.0,150.0,0.0,0.0
3716,48.0,0.0,150.0,0.0,0.0
3717,80.0,80.0,120.0,0.0,0.0
3718,84.0,0.0,120.0,0.0,0.0
3719,56.0,160.0,150.0,0.0,0.0
3720,64.0,0.0,150.0,0.0,0.0
3721,60.0,0.0,150.0,0.0,0.0
3722,68.0,0.0,150.0,0.0,0.0
3723,86.0,0.0,120.0,0.0,0.0
3724,83.0,120.0,120.0,0.0,0.0
3725,64.0,80.0,150.0,0.0,0.0
3726,72.0,0.0,150.0,0.0,0.0
3727,88.0,40.0,120.0,0.0,0.0
3728,84.0,0.0,120.0,0.0,0.0
3729,80.0,0.0,120.0,0.0,0.0
3730,76.0,80.0,120.0,0.0,0.0
3731,60.0,180.0,150.0,0.0,0.0
3732,68.0,0.0,150.0,0.0,0.0
3733,84.0,0.0,120.0,0.0,0.0
3734,88.0,40.0,120.0,0.0,0.0
3735,52.0,0.0,20.0,0.0,0.0
3736,40.0,100.0,20.0,0.0,0.0
3737,76.0,80.0,120.0,0.0,0.0
3738,80.0,0.0,120.0,0.0,0.0
3739,56.0,0.0,150.0,0.0,0.0
3740,64.0,160.0,150.0,0.0,0.0
3741,60.0,0.0,150.0,0.0,0.0
3742,68.0,120.0,150.0,0.0,0.0
3743,83.0,0.0,120.0,0.0,0.0
3744,72.0,80.0,150.0,0.0,0.0
3745,64.0,0.0,150.0,0.0,0.0
3746,84.0,0.0,120.0,0.0,0.0
3747,80.0,0.0,15.0,0.0,0.0
3748,92.0,0.0,120.0,0.0,0.0
3749,88.0,80.0,120.0,0.0,0.0
3750,68.0,160.0,150.0,0.0,0.0
3751,60.0,0.0,150.0,0.0,0.0
3752,64.0,120.0,150.0,0.0,0.0
3753,56.0,0.0,150.0,0.0,0.0
3754,92.0,0.0,120.0,0.0,0.0
3755,47.0,0.0,150.0,0.0,0.0
3756,87.0,40.0,120.0,0.0,0.0
3757,80.0,80.0,120.0,0.0,0.0
3758,83.0,0.0,120.0,0.0,0.0
3759,59.0,80.0,15.0,0.0,0.0
3760,68.0,0.0,150.0,0.0,0.0
3761,71.0,120.0,150.0,0.0,0.0
3762,63.0,0.0,150.0,0.0,0.0
3763,82.0,0.0,120.0,0.0,0.0
3764,85.0,0.0,120.0,0.0,0.0
3765,68.0,80.0,150.0,0.0,0.0
3766,87.0,40.0,120.0,0.0,0.0
3767,83.0,0.0,120.0,0.0,0.0
3768,75.0,0.0,40.0,0.0,0.0
3769,80.0,80.0,120.0,0.0,0.0
3770,63.0,0.0,150.0,0.0,0.0
3771,71.0,180.0,150.0,0.0,0.0
3772,51.0,0.0,20.0,0.0,0.0
3773,87.0,40.0,120.0,0.0,0.0
3774,83.0,0.0,120.0,0.0,0.0
3775,39.0,100.0,20.0,0.0,0.0
3776,80.0,80.0,120.0,0.0,0.0
3777,75.0,0.0,120.0,0.0,0.0
3778,68.0,160.0,150.0,0.0,0.0
3779,59.0,0.0,150.0,0.0,0.0
3780,71.0,0.0,150.0,0.0,0.0
3781,63.0,0.0,150.0,0.0,0.0
3782,82.0,0.0,120.0,0.0,0.0
3783,79.0,120.0,120.0,0.0,0.0
3784,80.0,0.0,120.0,0.0,0.0
3785,68.0,0.0,150.0,0.0,0.0
3786,75.0,80.0,150.0,0.0,0.0
3787,83.0,40.0,120.0,0.0,0.0
3788,92.0,80.0,120.0,0.0,0.0
3789,87.0,0.0,120.0,0.0,0.0
3790,63.0,0.0,150.0,0.0,0.0
3791,71.0,160.0,150.0,0.0,0.0
3792,68.0,120.0,150.0,0.0,0.0
3793,87.0,40.0,120.0,0.0,0.0
3794,90.0,0.0,120.0,0.0,0.0
3795,59.0,0.0,15.0,0.0,0.0
3796,47.0,0.0,150.0,0.0,0.0
3797,83.0,80.0,120.0,0.0,0.0
3798,78.0,0.0,120.0,0.0,0.0
3799,63.0,0.0,150.0,0.0,0.0
3800,54.0,160.0,150.0,0.0,0.0
3801,59.0,0.0,150.0,0.0,0.0
3802,66.0,0.0,150.0,0.0,0.0
3803,85.0,0.0,120.0,0.0,0.0
3804,82.0,120.0,120.0,0.0,0.0
3805,71.0,0.0,150.0,0.0,0.0
3806,63.0,80.0,150.0,0.0,0.0
3807,83.0,40.0,120.0,0.0,0.0
3808,87.0,0.0,120.0,0.0,0.0
3809,78.0,0.0,120.0,0.0,0.0
3810,75.0,80.0,120.0,0.0,0.0
3811,66.0,180.0,150.0,0.0,0.0
3812,59.0,0.0,150.0,0.0,0.0
3813,47.0,100.0,20.0,0.0,0.0
3814,87.0,40.0,120.0,0.0,0.0
3815,90.0,0.0,120.0,0.0,0.0
3816,35.0,0.0,20.0,0.0,0.0
3817,83.0,0.0,120.0,0.0,0.0
3818,78.0,80.0,120.0,0.0,0.0
3819,63.0,160.0,150.0,0.0,0.0
3820,54.0,0.0,150.0,0.0,0.0
3821,59.0,0.0,150.0,0.0,0.0
3822,66.0,0.0,150.0,0.0,0.0
3823,85.0,0.0,120.0,0.0,0.0
3824,82.0,120.0,120.0,0.0,0.0
3825,71.0,0.0,150.0,0.0,0.0
3826,63.0,80.0,150.0,0.0,0.0
3827,87.0,0.0,120.0,0.0,0.0
3828,83.0,40.0,120.0,0.0,0.0
3829,90.0,0.0,120.0,0.0,0.0
3830,95.0,80.0,120.0,0.0,0.0
3831,59.0,0.0,150.0,0.0,0.0
3832,66.0,160.0,150.0,0.0,0.0
3833,54.0,0.0,150.0,0.0,0.0
3834,63.0,120.0,150.0,0.0,0.0
3835,90.0,0.0,120.0,0.0,0.0
3836,85.0,40.0,120.0,0.0,0.0
3837,58.0,80.0,150.0,0.0,0.0
3838,46.0,0.0,150.0,0.0,0.0
3839,78.0,0.0,120.0,0.0,0.0
3840,82.0,80.0,120.0,0.0,0.0
3841,61.0,0.0,150.0,0.0,0.0
3842,54.0,160.0,150.0,0.0,0.0
3843,58.0,0.0,150.0,0.0,0.0
3844,66.0,120.0,150.0,0.0,0.0
3845,83.0,0.0,120.0,0.0,0.0
3846,80.0,0.0,120.0,0.0,0.0
3847,82.0,0.0,120.0,0.0,0.0
3848,85.0,40.0,120.0,0.0,0.0
3849,61.0,0.0,150.0,0.0,0.0
3850,70.0,80.0,150.0,0.0,0.0
3851,73.0,0.0,120.0,0.0,0.0
3852,78.0,80.0,120.0,0.0,0.0
3853,58.0,160.0,150.0,0.0,0.0
3854,66.0,0.0,150.0,0.0,0.0
3855,54.0,120.0,150.0,0.0,0.0
3856,61.0,0.0,150.0,0.0,0.0
3857,57.0,0.0,150.0,0.0,0.0
3858,45.0,80.0,150.0,0.0,0.0
3859,85.0,40.0,120.0,0.0,0.0
3860,81.0,0.0,120.0,0.0,0.0
3861,78.0,80.0,120.0,0.0,0.0
3862,73.0,0.0,120.0,0.0,0.0
3863,54.0,160.0,150.0,0.0,0.0
3864,61.0,0.0,150.0,0.0,0.0
3865,66.0,0.0,150.0,0.0,0.0
3866,57.0,0.0,150.0,0.0,0.0
3867,77.0,120.0,120.0,0.0,0.0
3868,80.0,0.0,120.0,0.0,0.0
3869,69.0,80.0,150.0,0.0,0.0
3870,81.0,40.0,120.0,0.0,0.0
3871,78.0,0.0,120.0,0.0,0.0
3872,61.0,0.0,150.0,0.0,0.0
3873,90.0,0.0,120.0,0.0,0.0
3874,85.0,80.0,120.0,0.0,0.0
3875,57.0,0.0,150.0,0.0,0.0
3876,66.0,160.0,150.0,0.0,0.0
3877,54.0,0.0,150.0,0.0,0.0
3878,61.0,160.0,150.0,0.0,0.0
3879,93.0,0.0,150.0,0.0,0.0
3880,88.0,0.0,150.0,0.0,0.0
3881,85.0,0.0,150.0,0.0,0.0
3882,45.0,0.0,150.0,0.0,0.0
3883,57.0,160.0,150.0,0.0,0.0
3884,82.0,160.0,150.0,0.0,0.0
3885,52.0,0.0,150.0,0.0,0.0
3886,61.0,0.0,150.0,0.0,0.0
3887,64.0,160.0,150.0,0.0,0.0
3888,88.0,0.0,150.0,0.0,0.0
3889,85.0,0.0,150.0,0.0,0.0
3890,57.0,0.0,150.0,0.0,0.0
3891,81.0,0.0,15.0,0.0,0.0
3892,76.0,0.0,150.0,0.0,0.0
3893,69.0,0.0,150.0,0.0,0.0
3894,61.0,0.0,150.0,0.0,0.0
3895,57.0,0.0,150.0,0.0,0.0
3896,64.0,160.0,150.0,0.0,0.0
3897,85.0,0.0,150.0,0.0,0.0
3898,81.0,160.0,15.0,0.0,0.0
3899,76.0,0.0,150.0,0.0,0.0
3900,33.0,0.0,90.0,0.0,0.0
3901,76.0,0.0,150.0,0.0,0.0
3902,33.0,0.0,150.0,0.0,0.0
3903,45.0,160.0,15.0,0.0,0.0
3904,73.0,0.0,15.0,0.0,0.0
3905,81.0,0.0,150.0,0.0,0.0
3906,52.0,0.0,150.0,0.0,0.0
3907,70.0,0.0,150.0,0.0,0.0
3908,61.0,160.0,150.0,0.0,0.0
3909,73.0,157.0,150.0,0.0,0.0
3910,76.0,0.0,150.0,0.0,0.0
3911,69.0,0.0,150.0,0.0,0.0
3912,57.0,0.0,150.0,0.0,0.0
3913,64.0,0.0,150.0,0.0,0.0
3914,61.0,3.0,150.0,0.0,0.0
3915,45.0,160.0,150.0,0.0,0.0
3916,69.0,0.0,150.0,0.0,0.0
3917,64.0,160.0,15.0,0.0,0.0
3918,61.0,0.0,150.0,0.0,0.0
3919,57.0,0.0,150.0,0.0,0.0
3920,33.0,0.0,150.0,0.0,0.0
3921,69.0,120.0,150.0,0.0,0.0
3922,31.0,0.0,240.0,0.0,0.0
3923,43.0,0.0,240.0,0.0,0.0
3924,58.0,120.0,120.0,0.0,0.0
3925,70.0,0.0,120.0,0.0,0.0
3926,67.0,120.0,120.0,0.0,0.0
3927,65.0,120.0,120.0,0.0,0.0
3928,63.0,120.0,120.0,0.0,0.0
3929,70.0,0.0,120.0,0.0,0.0
3930,43.0,120.0,120.0,0.0,0.0
3931,75.0,0.0,120.0,0.0,0.0
3932,46.0,0.0,120.0,0.0,0.0
3933,63.0,120.0,120.0,0.0,0.0
3934,67.0,0.0,120.0,0.0,0.0
3935,58.0,120.0,120.0,0.0,0.0
3936,51.0,0.0,120.0,0.0,0.0
3937,65.0,0.0,120.0,0.0,0.0
3938,68.0,120.0,120.0,0.0,0.0
3939,46.0,120.0,120.0,0.0,0.0
3940,67.0,0.0,120.0,0.0,0.0
3941,70.0,0.0,120.0,0.0,0.0
3942,79.0,120.0,120.0,0.0,0.0
3943,75.0,0.0,120.0,0.0,0.0
3944,51.0,0.0,120.0,0.0,0.0
3945,63.0,120.0,120.0,0.0,0.0
3946,55.0,120.0,120.0,0.0,0.0
3947,51.0,120.0,120.0,0.0,0.0
3948,82.0,0.0,120.0,0.0,0.0
3949,79.0,0.0,120.0,0.0,0.0
3950,75.0,0.0,120.0,0.0,0.0
3951,70.0,0.0,120.0,0.0,0.0
3952,55.0,120.0,120.0,0.0,0.0
3953,67.0,120.0,120.0,0.0,0.0
3954,77.0,0.0,120.0,0.0,0.0
3955,74.0,120.0,120.0,0.0,0.0
3956,58.0,0.0,120.0,0.0,0.0
3957,55.0,120.0,120.0,0.0,0.0
3958,75.0,0.0,120.0,0.0,0.0
3959,79.0,0.0,120.0,0.0,0.0
3960,87.0,0.0,120.0,0.0,0.0
3961,58.0,120.0,120.0,0.0,0.0
3962,82.0,0.0,120.0,0.0,0.0
3963,70.0,120.0,120.0,0.0,0.0
3964,63.0,120.0,120.0,0.0,0.0
3965,58.0,120.0,120.0,0.0,0.0
3966,87.0,0.0,120.0,0.0,0.0
3967,91.0,0.0,120.0,0.0,0.0
3968,82.0,0.0,120.0,0.0,0.0
3969,63.0,0.0,120.0,0.0,0.0
3970,79.0,120.0,120.0,0.0,0.0
3971,75.0,120.0,120.0,0.0,0.0
3972,80.0,0.0,120.0,0.0,0.0
3973,86.0,120.0,120.0,0.0,0.0
3974,67.0,0.0,120.0,0.0,0.0
3975,87.0,0.0,120.0,0.0,0.0
3976,82.0,0.0,120.0,0.0,0.0
3977,63.0,120.0,120.0,0.0,0.0
3978,94.0,0.0,120.0,0.0,0.0
3979,91.0,120.0,120.0,0.0,0.0
3980,67.0,0.0,120.0,0.0,0.0
3981,79.0,120.0,120.0,0.0,0.0
3982,70.0,120.0,120.0,0.0,0.0
3983,86.0,80.0,150.0,0.0,0.0
3984,56.0,40.0,120.0,0.0,0.0
3985,62.0,80.0,120.0,0.0,0.0
3986,89.0,0.0,150.0,0.0,0.0
3987,83.0,0.0,15.0,0.0,0.0
3988,71.0,120.0,120.0,0.0,0.0
3989,89.0,120.0,150.0,0.0,0.0
3990,95.0,40.0,15.0,0.0,0.0
3991,83.0,0.0,150.0,0.0,0.0
3992,65.0,0.0,120.0,0.0,0.0
3993,55.0,0.0,120.0,0.0,0.0
3994,95.0,0.0,15.0,0.0,0.0
3995,83.0,0.0,120.0,0.0,0.0
3996,87.0,0.0,120.0,0.0,0.0
3997,58.0,0.0,120.0,0.0,0.0
3998,82.0,120.0,120.0,0.0,0.0
3999,94.0,0.0,120.0,0.0,0.0
4000,70.0,120.0,120.0,0.0,0.0
4001,63.0,120.0,120.0,0.0,0.0
4002,43.0,0.0,120.0,0.0,0.0
4003,75.0,0.0,120.0,0.0,0.0
4004,70.0,120.0,120.0,0.0,0.0
4005,63.0,0.0,120.0,0.0,0.0
4006,67.0,120.0,120.0,0.0,0.0
4007,46.0,0.0,120.0,0.0,0.0
4008,58.0,120.0,120.0,0.0,0.0
4009,51.0,0.0,120.0,0.0,0.0
4010,68.0,0.0,120.0,0.0,0.0
4011,65.0,120.0,120.0,0.0,0.0
4012,46.0,120.0,120.0,0.0,0.0
4013,70.0,0.0,120.0,0.0,0.0
4014,67.0,0.0,120.0,0.0,0.0
4015,75.0,0.0,120.0,0.0,0.0
4016,51.0,120.0,120.0,0.0,0.0
4017,79.0,0.0,120.0,0.0,0.0
4018,63.0,120.0,120.0,0.0,0.0
4019,55.0,120.0,120.0,0.0,0.0
4020,82.0,0.0,120.0,0.0,0.0
4021,79.0,120.0,120.0,0.0,0.0
4022,51.0,0.0,120.0,0.0,0.0
4023,70.0,120.0,120.0,0.0,0.0
4024,55.0,0.0,120.0,0.0,0.0
4025,75.0,0.0,120.0,0.0,0.0
4026,67.0,120.0,120.0,0.0,0.0
4027,74.0,0.0,120.0,0.0,0.0
4028,77.0,120.0,120.0,0.0,0.0
4029,58.0,0.0,120.0,0.0,0.0
4030,55.0,120.0,120.0,0.0,0.0
4031,79.0,0.0,120.0,0.0,0.0
4032,75.0,0.0,120.0,0.0,0.0
4033,58.0,0.0,120.0,0.0,0.0
4034,87.0,0.0,120.0,0.0,0.0
4035,82.0,120.0,120.0,0.0,0.0
4036,70.0,120.0,120.0,0.0,0.0
4037,63.0,120.0,120.0,0.0,0.0
4038,87.0,0.0,120.0,0.0,0.0
4039,91.0,0.0,120.0,0.0,0.0
4040,58.0,120.0,120.0,0.0,0.0
4041,79.0,0.0,120.0,0.0,0.0
4042,82.0,120.0,120.0,0.0,0.0
4043,63.0,0.0,120.0,0.0,0.0
4044,75.0,120.0,120.0,0.0,0.0
4045,86.0,120.0,120.0,0.0,0.0
4046,80.0,0.0,120.0,0.0,0.0
4047,67.0,0.0,120.0,0.0,0.0
4048,63.0,0.0,120.0,0.0,0.0
4049,87.0,0.0,120.0,0.0,0.0
4050,82.0,120.0,120.0,0.0,0.0
4051,67.0,0.0,120.0,0.0,0.0
4052,91.0,120.0,120.0,0.0,0.0
4053,94.0,0.0,120.0,0.0,0.0
4054,79.0,120.0,120.0,0.0,0.0
4055,70.0,120.0,120.0,0.0,0.0
4056,56.0,40.0,120.0,0.0,0.0
4057,83.0,80.0,150.0,0.0,0.0
4058,86.0,0.0,150.0,0.0,0.0
4059,62.0,80.0,120.0,0.0,0.0
4060,83.0,0.0,150.0,0.0,0.0
4061,89.0,0.0,150.0,0.0,0.0
4062,71.0,120.0,120.0,0.0,0.0
4063,95.0,40.0,15.0,0.0,0.0
4064,83.0,0.0,150.0,0.0,0.0
4065,89.0,0.0,150.0,0.0,0.0
4066,65.0,0.0,120.0,0.0,0.0
4067,45.0,160.0,150.0,0.0,0.0
4068,96.0,0.0,150.0,0.0,0.0
4069,88.0,0.0,150.0,0.0,0.0
4070,84.0,0.0,150.0,0.0,0.0
4071,85.0,0.0,150.0,0.0,0.0
4072,91.0,0.0,150.0,0.0,0.0
4073,52.0,160.0,150.0,0.0,0.0
4074,97.0,0.0,150.0,0.0,0.0
4075,58.0,0.0,330.0,0.0,0.0
4076,53.0,160.0,150.0,0.0,0.0
4077,74.0,0.0,150.0,0.0,0.0
4078,62.0,0.0,150.0,0.0,0.0
4079,52.0,0.0,150.0,0.0,0.0
4080,73.0,160.0,150.0,0.0,0.0
4081,61.0,0.0,150.0,0.0,0.0
4082,45.0,0.0,150.0,0.0,0.0
4083,70.0,160.0,150.0,0.0,0.0
4084,67.0,0.0,150.0,0.0,0.0
4085,65.0,0.0,150.0,0.0,0.0
4086,77.0,160.0,150.0,0.0,0.0
4087,62.0,0.0,150.0,0.0,0.0
4088,55.0,0.0,330.0,0.0,0.0
4089,64.0,0.0,150.0,0.0,0.0
4090,76.0,0.0,150.0,0.0,0.0
4091,61.0,160.0,150.0,0.0,0.0
4092,67.0,0.0,150.0,0.0,0.0
4093,45.0,160.0,150.0,0.0,0.0
4094,70.0,0.0,150.0,0.0,0.0
4095,62.0,0.0,150.0,0.0,0.0
4096,74.0,0.0,150.0,0.0,0.0
4097,53.0,160.0,150.0,0.0,0.0
4098,58.0,0.0,330.0,0.0,0.0
4099,73.0,0.0,150.0,0.0,0.0
4100,61.0,0.0,150.0,0.0,0.0
4101,52.0,160.0,150.0,0.0,0.0
4102,67.0,0.0,150.0,0.0,0.0
4103,70.0,160.0,150.0,0.0,0.0
4104,45.0,0.0,150.0,0.0,0.0
4105,62.0,0.0,150.0,0.0,0.0
4106,77.0,0.0,150.0,0.0,0.0
4107,55.0,0.0,330.0,0.0,0.0
4108,65.0,160.0,150.0,0.0,0.0
4109,61.0,160.0,150.0,0.0,0.0
4110,64.0,0.0,150.0,0.0,0.0
4111,76.0,0.0,150.0,0.0,0.0
4112,70.0,0.0,150.0,0.0,0.0
4113,45.0,0.0,150.0,0.0,0.0
4114,67.0,160.0,15.0,0.0,0.0
4115,62.0,160.0,150.0,0.0,0.0
4116,70.0,0.0,150.0,0.0,0.0
4117,82.0,0.0,150.0,0.0,0.0
4118,81.0,0.0,150.0,0.0,0.0
4119,61.0,0.0,150.0,0.0,0.0
4120,69.0,0.0,150.0,0.0,0.0
4121,76.0,0.0,150.0,0.0,0.0
4122,79.0,160.0,150.0,0.0,0.0
4123,57.0,0.0,150.0,0.0,0.0
4124,65.0,160.0,150.0,0.0,0.0
4125,70.0,160.0,330.0,0.0,0.0
4126,74.0,0.0,150.0,0.0,0.0
4127,86.0,0.0,150.0,0.0,0.0
4128,64.0,0.0,150.0,0.0,0.0
4129,73.0,0.0,150.0,0.0,0.0
4130,85.0,0.0,150.0,0.0,0.0
4131,82.0,160.0,150.0,0.0,0.0
4132,79.0,0.0,150.0,0.0,0.0
4133,57.0,0.0,150.0,0.0,0.0
4134,74.0,0.0,150.0,0.0,0.0
4135,67.0,0.0,330.0,0.0,0.0
4136,89.0,0.0,150.0,0.0,0.0
4137,77.0,160.0,150.0,0.0,0.0
4138,88.0,160.0,150.0,0.0,0.0
4139,76.0,0.0,150.0,0.0,0.0
4140,73.0,0.0,150.0,0.0,0.0
4141,57.0,0.0,150.0,0.0,0.0
4142,79.0,0.0,150.0,0.0,0.0
4143,82.0,160.0,15.0,0.0,0.0
4144,94.0,0.0,330.0,0.0,0.0
4145,74.0,160.0,150.0,0.0,0.0
4146,79.0,0.0,330.0,0.0,0.0
4147,73.0,160.0,150.0,0.0,0.0
4148,93.0,160.0,150.0,0.0,0.0
4149,88.0,0.0,150.0,0.0,0.0
4150,82.0,160.0,150.0,0.0,0.0
4151,92.0,0.0,150.0,0.0,0.0
4152,88.0,0.0,150.0,0.0,0.0
4153,91.0,160.0,150.0,0.0,0.0
4154,90.0,160.0,150.0,0.0,0.0
4155,82.0,0.0,150.0,0.0,0.0
4156,89.0,160.0,150.0,0.0,0.0
4157,85.0,0.0,150.0,0.0,0.0
4158,88.0,0.0,150.0,0.0,0.0
4159,79.0,160.0,150.0,0.0,0.0
4160,69.0,0.0,480.0,0.0,0.0
4161,82.0,160.0,150.0,0.0,0.0
4162,87.0,0.0,150.0,0.0,0.0
4163,79.0,0.0,150.0,0.0,0.0
4164,86.0,160.0,150.0,0.0,0.0
4165,85.0,0.0,150.0,0.0,0.0
4166,82.0,160.0,150.0,0.0,0.0
4167,69.0,0.0,480.0,0.0,0.0
4168,76.0,0.0,150.0,0.0,0.0
4169,84.0,160.0,150.0,0.0,0.0
4170,79.0,0.0,150.0,0.0,0.0
4171,83.0,160.0,150.0,0.0,0.0
4172,73.0,0.0,150.0,0.0,0.0
4173,82.0,160.0,150.0,0.0,0.0
4174,69.0,160.0,960.0,0.0,0.0
4175,81.0,0.0,150.0,0.0,0.0
4176,76.0,160.0,150.0,0.0,0.0
4177,80.0,160.0,150.0,0.0,0.0
4178,73.0,0.0,150.0,0.0,0.0
4179,76.0,0.0,150.0,0.0,0.0
4180,79.0,160.0,150.0,0.0,0.0
4181,67.0,160.0,150.0,0.0,0.0
4182,78.0,0.0,150.0,0.0,0.0
4183,73.0,0.0,150.0,0.0,0.0
4184,77.0,0.0,150.0,0.0,0.0
4185,67.0,0.0,150.0,0.0,0.0
4186,76.0,160.0,150.0,0.0,0.0
4187,57.0,0.0,480.0,0.0,0.0
4188,75.0,160.0,150.0,0.0,0.0
4189,73.0,0.0,150.0,0.0,0.0
4190,78.0,0.0,150.0,0.0,0.0
4191,67.0,160.0,150.0,0.0,0.0
4192,76.0,160.0,150.0,0.0,0.0
4193,57.0,0.0,420.0,0.0,0.0
4194,73.0,0.0,15.0,0.0,0.0
4195,83.0,100.0,150.0,0.0,0.0
4196,81.0,60.0,90.0,0.0,0.0
4197,79.0,0.0,90.0,0.0,0.0
4198,38.0,0.0,60.0,0.0,0.0
4199,66.0,960.0,15.0,0.0,0.0
4200,81.0,480.0,960.0,0.0,0.0
4201,50.0,0.0,1440.0,0.0,0.0
4202,57.0,0.0,960.0,0.0,0.0
4203,62.0,0.0,960.0,0.0,0.0
4204,74.0,0.0,15.0,0.0,0.0
4205,69.0,0.0,480.0,0.0,0.0
4206,78.0,480.0,480.0,0.0,0.0
4207,76.0,0.0,480.0,0.0,0.0
4208,71.0,960.0,480.0,0.0,0.0
4209,79.0,0.0,480.0,0.0,0.0
4210,55.0,0.0,480.0,0.0,0.0
4211,45.0,0.0,1980.0,0.0,0.0
4212,57.0,240.0,1200.0,0.0,0.0
4213,78.0,240.0,960.0,0.0,0.0
4214,67.0,480.0,1920.0,0.0,0.0
4215,76.0,0.0,960.0,0.0,0.0
4216,58.0,240.0,240.0,0.0,0.0
4217,59.0,240.0,240.0,0.0,0.0
4218,57.0,0.0,240.0,0.0,0.0
4219,50.0,0.0,960.0,0.0,0.0
4220,66.0,480.0,480.0,0.0,0.0
4221,81.0,0.0,480.0,0.0,0.0
4222,69.0,0.0,480.0,0.0,0.0
4223,78.0,0.0,480.0,0.0,0.0
4224,74.0,0.0,15.0,0.0,0.0
4225,71.0,0.0,240.0,0.0,0.0
4226,62.0,0.0,480.0,0.0,0.0
4227,74.0,0.0,480.0,0.0,0.0
4228,79.0,240.0,240.0,0.0,0.0
4229,78.0,240.0,240.0,0.0,0.0
4230,69.0,0.0,240.0,0.0,0.0
4231,75.0,240.0,240.0,0.0,0.0
4232,72.0,0.0,240.0,0.0,0.0
4233,81.0,0.0,240.0,0.0,0.0
4234,55.0,0.0,480.0,0.0,0.0
4235,76.0,240.0,240.0,0.0,0.0
4236,71.0,0.0,240.0,0.0,0.0
4237,79.0,0.0,240.0,0.0,0.0
4238,57.0,240.0,240.0,0.0,0.0
4239,67.0,240.0,1920.0,0.0,0.0
4240,73.0,0.0,1920.0,0.0,0.0
4241,78.0,0.0,960.0,0.0,0.0
4242,58.0,160.0,240.0,0.0,0.0
4243,61.0,160.0,150.0,0.0,0.0
4244,59.0,160.0,150.0,0.0,0.0
4245,57.0,240.0,150.0,0.0,0.0
4246,76.0,0.0,960.0,0.0,0.0
4247,45.0,240.0,240.0,0.0,0.0
4248,46.0,160.0,240.0,0.0,0.0
4249,49.0,160.0,150.0,0.0,0.0
4250,47.0,160.0,150.0,0.0,0.0
4251,45.0,0.0,150.0,0.0,0.0
4252,38.0,240.0,240.0,0.0,0.0
4253,66.0,480.0,480.0,0.0,0.0
4254,81.0,0.0,480.0,0.0,0.0
4255,74.0,0.0,15.0,0.0,0.0
4256,71.0,480.0,480.0,0.0,0.0
4257,68.0,0.0,480.0,0.0,0.0
4258,65.0,0.0,480.0,0.0,0.0
4259,83.0,0.0,480.0,0.0,0.0
4260,79.0,0.0,960.0,0.0,0.0
4261,67.0,0.0,480.0,0.0,0.0
4262,85.0,0.0,480.0,0.0,0.0
4263,64.0,0.0,960.0,0.0,0.0
4264,73.0,360.0,480.0,0.0,0.0
4265,71.0,0.0,360.0,0.0,0.0
4266,74.0,60.0,360.0,0.0,0.0
4267,86.0,0.0,360.0,0.0,0.0
4268,69.0,60.0,60.0,0.0,0.0
4269,88.0,0.0,120.0,0.0,0.0
4270,85.0,0.0,120.0,0.0,0.0
4271,76.0,0.0,120.0,0.0,0.0
4272,50.0,0.0,540.0,0.0,0.0
4273,57.0,480.0,30.0,0.0,0.0
4274,90.0,0.0,480.0,0.0,0.0
4275,86.0,0.0,480.0,0.0,0.0
4276,69.0,0.0,480.0,0.0,0.0
4277,78.0,480.0,480.0,0.0,0.0
4278,83.0,0.0,480.0,0.0,0.0
4279,68.0,0.0,480.0,0.0,0.0
4280,71.0,0.0,480.0,0.0,0.0
4281,74.0,420.0,480.0,0.0,0.0
4282,77.0,0.0,480.0,0.0,0.0
4283,57.0,0.0,480.0,0.0,0.0
4284,67.0,0.0,480.0,0.0,0.0
4285,69.0,0.0,480.0,0.0,0.0
4286,73.0,0.0,420.0,0.0,0.0
4287,85.0,60.0,420.0,0.0,0.0
4288,71.0,480.0,540.0,0.0,0.0
4289,76.0,360.0,30.0,0.0,0.0
4290,86.0,120.0,360.0,0.0,0.0
4291,64.0,0.0,15.0,0.0,0.0
4292,59.0,0.0,480.0,0.0,0.0
4293,55.0,0.0,480.0,0.0,0.0
4294,67.0,0.0,480.0,0.0,0.0
4295,88.0,0.0,120.0,0.0,0.0
4296,90.0,0.0,480.0,0.0,0.0
4297,70.0,0.0,480.0,0.0,0.0
4298,54.0,0.0,480.0,0.0,0.0
4299,61.0,0.0,480.0,0.0,0.0
4300,64.0,0.0,15.0,0.0,0.0
4301,85.0,0.0,480.0,0.0,0.0
4302,46.0,0.0,480.0,0.0,0.0
4303,34.0,0.0,480.0,0.0,0.0
4304,78.0,480.0,15.0,0.0,0.0
4305,76.0,0.0,480.0,0.0,0.0
4306,85.0,0.0,480.0,0.0,0.0
4307,88.0,0.0,480.0,0.0,0.0
4308,47.0,0.0,480.0,0.0,0.0
4309,35.0,0.0,480.0,0.0,0.0
4310,86.0,360.0,480.0,0.0,0.0
4311,78.0,0.0,480.0,0.0,0.0
4312,74.0,0.0,480.0,0.0,0.0
4313,83.0,0.0,480.0,0.0,0.0
4314,37.0,0.0,360.0,0.0,0.0
4315,49.0,0.0,360.0,0.0,0.0
4316,85.0,120.0,360.0,0.0,0.0
4317,77.0,0.0,360.0,0.0,0.0
4318,81.0,0.0,360.0,0.0,0.0
4319,38.0,0.0,120.0,0.0,0.0
4320,50.0,480.0,120.0,0.0,0.0
4321,83.0,0.0,120.0,0.0,0.0
4322,71.0,0.0,15.0,0.0,0.0
4323,39.0,0.0,480.0,0.0,0.0
4324,51.0,0.0,480.0,0.0,0.0
4325,69.0,360.0,480.0,0.0,0.0
4326,78.0,0.0,15.0,0.0,0.0
4327,81.0,0.0,480.0,0.0,0.0
4328,40.0,0.0,360.0,0.0,0.0
4329,52.0,0.0,360.0,0.0,0.0
4330,67.0,120.0,360.0,0.0,0.0
4331,71.0,0.0,360.0,0.0,0.0
4332,76.0,0.0,360.0,0.0,0.0
4333,79.0,0.0,360.0,0.0,0.0
4334,74.0,0.0,120.0,0.0,0.0
4335,78.0,480.0,120.0,0.0,0.0
4336,54.0,0.0,120.0,0.0,0.0
4337,42.0,0.0,120.0,0.0,0.0
4338,70.0,0.0,120.0,0.0,0.0
4339,71.0,240.0,480.0,0.0,0.0
4340,76.0,0.0,960.0,0.0,0.0
4341,64.0,0.0,960.0,0.0,0.0
4342,55.0,0.0,480.0,0.0,0.0
4343,74.0,0.0,480.0,0.0,0.0
4344,43.0,0.0,480.0,0.0,0.0
4345,45.0,0.0,480.0,0.0,0.0
4346,57.0,160.0,480.0,0.0,0.0
4347,73.0,0.0,240.0,0.0,0.0
4348,69.0,240.0,240.0,0.0,0.0
4349,67.0,0.0,240.0,0.0,0.0
4350,71.0,0.0,240.0,0.0,0.0
4351,81.0,160.0,960.0,0.0,0.0
4352,74.0,0.0,960.0,0.0,0.0
4353,66.0,0.0,960.0,0.0,0.0
4354,38.0,160.0,150.0,0.0,0.0
4355,56.0,160.0,150.0,0.0,0.0
4356,57.0,160.0,150.0,0.0,0.0
4357,59.0,160.0,150.0,0.0,0.0
4358,57.0,160.0,150.0,0.0,0.0
4359,45.0,0.0,150.0,0.0,0.0
4360,78.0,0.0,480.0,0.0,0.0
4361,69.0,160.0,480.0,0.0,0.0
4362,50.0,160.0,150.0,0.0,0.0
4363,74.0,0.0,480.0,0.0,0.0
4364,56.0,160.0,150.0,0.0,0.0
4365,57.0,0.0,150.0,0.0,0.0
4366,66.0,0.0,240.0,0.0,0.0
4367,69.0,80.0,240.0,0.0,0.0
4368,59.0,80.0,150.0,0.0,0.0
4369,57.0,160.0,150.0,0.0,0.0
4370,71.0,160.0,240.0,0.0,0.0
4371,79.0,0.0,240.0,0.0,0.0
4372,76.0,0.0,240.0,0.0,0.0
4373,45.0,0.0,150.0,0.0,0.0
4374,78.0,80.0,720.0,0.0,0.0
4375,67.0,0.0,960.0,0.0,0.0
4376,52.0,160.0,150.0,0.0,0.0
4377,73.0,160.0,960.0,0.0,0.0
4378,56.0,160.0,150.0,0.0,0.0
4379,57.0,160.0,150.0,0.0,0.0
4380,59.0,80.0,150.0,0.0,0.0
4381,57.0,160.0,150.0,0.0,0.0
4382,76.0,0.0,240.0,0.0,0.0
4383,45.0,0.0,150.0,0.0,0.0
4384,55.0,80.0,150.0,0.0,0.0
4385,71.0,80.0,240.0,0.0,0.0
4386,56.0,160.0,150.0,0.0,0.0
4387,69.0,160.0,240.0,0.0,0.0
4388,57.0,0.0,150.0,0.0,0.0
4389,59.0,80.0,150.0,0.0,0.0
4390,62.0,80.0,240.0,0.0,0.0
4391,57.0,160.0,150.0,0.0,0.0
4392,64.0,0.0,240.0,0.0,0.0
4393,45.0,240.0,150.0,0.0,0.0
4394,74.0,0.0,960.0,0.0,0.0
4395,38.0,120.0,240.0,0.0,0.0
4396,66.0,0.0,480.0,0.0,0.0
4397,81.0,120.0,480.0,0.0,0.0
4398,56.0,120.0,120.0,0.0,0.0
4399,57.0,0.0,120.0,0.0,0.0
4400,59.0,120.0,120.0,0.0,0.0
4401,69.0,0.0,480.0,0.0,0.0
4402,78.0,240.0,480.0,0.0,0.0
4403,57.0,120.0,120.0,0.0,0.0
4404,57.0,120.0,120.0,0.0,0.0
4405,45.0,0.0,120.0,0.0,0.0
4406,79.0,0.0,240.0,0.0,0.0
4407,71.0,120.0,240.0,0.0,0.0
4408,74.0,0.0,960.0,0.0,0.0
4409,50.0,0.0,240.0,0.0,0.0
4410,56.0,120.0,120.0,0.0,0.0
4411,57.0,120.0,120.0,0.0,0.0
4412,59.0,40.0,120.0,0.0,0.0
4413,78.0,0.0,15.0,0.0,0.0
4414,69.0,0.0,15.0,0.0,0.0
4415,57.0,80.0,120.0,0.0,0.0
4416,73.0,40.0,150.0,0.0,0.0
4417,81.0,0.0,150.0,0.0,0.0
4418,57.0,120.0,120.0,0.0,0.0
4419,71.0,0.0,150.0,0.0,0.0
4420,79.0,240.0,150.0,0.0,0.0
4421,45.0,0.0,120.0,0.0,0.0
4422,33.0,120.0,240.0,0.0,0.0
4423,73.0,160.0,960.0,0.0,0.0
4424,78.0,0.0,720.0,0.0,0.0
4425,67.0,0.0,960.0,0.0,0.0
4426,56.0,120.0,120.0,0.0,0.0
4427,57.0,120.0,120.0,0.0,0.0
4428,59.0,120.0,120.0,0.0,0.0
4429,57.0,120.0,120.0,0.0,0.0
4430,76.0,0.0,240.0,0.0,0.0
4431,57.0,120.0,120.0,0.0,0.0
4432,45.0,0.0,120.0,0.0,0.0
4433,55.0,80.0,240.0,0.0,0.0
4434,71.0,80.0,150.0,0.0,0.0
4435,69.0,40.0,150.0,0.0,0.0
4436,56.0,120.0,120.0,0.0,0.0
4437,71.0,0.0,150.0,0.0,0.0
4438,57.0,120.0,120.0,0.0,0.0
4439,69.0,80.0,150.0,0.0,0.0
4440,59.0,40.0,120.0,0.0,0.0
4441,57.0,80.0,120.0,0.0,0.0
4442,62.0,40.0,150.0,0.0,0.0
4443,57.0,60.0,120.0,0.0,0.0
4444,64.0,60.0,90.0,0.0,0.0
4445,45.0,120.0,120.0,0.0,0.0
4446,66.0,0.0,540.0,0.0,0.0
4447,74.0,0.0,990.0,0.0,0.0
4448,50.0,120.0,120.0,0.0,0.0
4449,81.0,120.0,480.0,0.0,0.0
4450,57.0,120.0,120.0,0.0,0.0
4451,59.0,120.0,120.0,0.0,0.0
4452,57.0,0.0,120.0,0.0,0.0
4453,66.0,120.0,120.0,0.0,0.0
4454,83.0,120.0,480.0,0.0,0.0
4455,71.0,0.0,480.0,0.0,0.0
4456,57.0,120.0,120.0,0.0,0.0
4457,59.0,120.0,120.0,0.0,0.0
4458,57.0,0.0,120.0,0.0,0.0
4459,81.0,0.0,960.0,0.0,0.0
4460,79.0,0.0,960.0,0.0,0.0
4461,73.0,0.0,480.0,0.0,0.0
4462,85.0,120.0,480.0,0.0,0.0
4463,45.0,120.0,120.0,0.0,0.0
4464,57.0,120.0,120.0,0.0,0.0
4465,59.0,120.0,120.0,0.0,0.0
4466,57.0,0.0,120.0,0.0,0.0
4467,86.0,0.0,360.0,0.0,0.0
4468,74.0,120.0,360.0,0.0,0.0
4469,67.0,120.0,120.0,0.0,0.0
4470,57.0,120.0,120.0,0.0,0.0
4471,59.0,0.0,120.0,0.0,0.0
4472,76.0,0.0,120.0,0.0,0.0
4473,88.0,0.0,120.0,0.0,0.0
4474,57.0,0.0,120.0,0.0,0.0
4475,50.0,120.0,120.0,0.0,0.0
4476,90.0,0.0,480.0,0.0,0.0
4477,78.0,120.0,960.0,0.0,0.0
4478,81.0,120.0,15.0,0.0,0.0
4479,57.0,120.0,120.0,0.0,0.0
4480,59.0,120.0,120.0,0.0,0.0
4481,57.0,0.0,120.0,0.0,0.0
4482,66.0,120.0,120.0,0.0,0.0
4483,83.0,0.0,480.0,0.0,0.0
4484,71.0,0.0,480.0,0.0,0.0
4485,57.0,120.0,120.0,0.0,0.0
4486,59.0,120.0,120.0,0.0,0.0
4487,57.0,0.0,120.0,0.0,0.0
4488,45.0,120.0,120.0,0.0,0.0
4489,85.0,0.0,480.0,0.0,0.0
4490,73.0,120.0,480.0,0.0,0.0
4491,79.0,0.0,960.0,0.0,0.0
4492,81.0,0.0,960.0,0.0,0.0
4493,57.0,120.0,120.0,0.0,0.0
4494,59.0,120.0,120.0,0.0,0.0
4495,57.0,0.0,120.0,0.0,0.0
4496,67.0,120.0,120.0,0.0,0.0
4497,74.0,0.0,360.0,0.0,0.0
4498,86.0,120.0,360.0,0.0,0.0
4499,57.0,120.0,120.0,0.0,0.0
4500,59.0,0.0,120.0,0.0,0.0
4501,57.0,120.0,120.0,0.0,0.0
4502,76.0,0.0,120.0,0.0,0.0
4503,88.0,0.0,120.0,0.0,0.0
4504,90.0,0.0,480.0,0.0,0.0
4505,85.0,0.0,960.0,0.0,0.0
4506,88.0,0.0,960.0,0.0,0.0
4507,78.0,0.0,480.0,0.0,0.0
4508,46.0,120.0,120.0,0.0,0.0
4509,53.0,120.0,120.0,0.0,0.0
4510,54.0,120.0,120.0,0.0,0.0
4511,61.0,120.0,120.0,0.0,0.0
4512,91.0,0.0,720.0,0.0,0.0
4513,58.0,120.0,120.0,0.0,0.0
4514,79.0,120.0,720.0,0.0,0.0
4515,65.0,120.0,120.0,0.0,0.0
4516,66.0,120.0,120.0,0.0,0.0
4517,73.0,120.0,120.0,0.0,0.0
4518,86.0,0.0,960.0,0.0,0.0
4519,83.0,0.0,960.0,0.0,0.0
4520,47.0,120.0,120.0,0.0,0.0
4521,53.0,0.0,120.0,0.0,0.0
4522,54.0,120.0,120.0,0.0,0.0
4523,90.0,0.0,240.0,0.0,0.0
4524,78.0,0.0,240.0,0.0,0.0
4525,62.0,120.0,120.0,0.0,0.0
4526,77.0,0.0,240.0,0.0,0.0
4527,89.0,0.0,240.0,0.0,0.0
4528,59.0,120.0,120.0,0.0,0.0
4529,65.0,120.0,120.0,0.0,0.0
4530,78.0,0.0,240.0,0.0,0.0
4531,90.0,0.0,240.0,0.0,0.0
4532,66.0,120.0,120.0,0.0,0.0
4533,74.0,120.0,120.0,0.0,0.0
4534,81.0,0.0,480.0,0.0,0.0
4535,93.0,120.0,480.0,0.0,0.0
4536,88.0,0.0,960.0,0.0,0.0
4537,85.0,0.0,960.0,0.0,0.0
4538,91.0,120.0,960.0,0.0,0.0
4539,49.0,120.0,120.0,0.0,0.0
4540,56.0,120.0,120.0,0.0,0.0
4541,57.0,120.0,120.0,0.0,0.0
4542,64.0,0.0,120.0,0.0,0.0
4543,83.0,0.0,720.0,0.0,0.0
4544,95.0,0.0,720.0,0.0,0.0
4545,61.0,120.0,120.0,0.0,0.0
4546,68.0,120.0,120.0,0.0,0.0
4547,69.0,120.0,120.0,0.0,0.0
4548,76.0,0.0,120.0,0.0,0.0
4549,90.0,0.0,480.0,0.0,0.0
4550,51.0,120.0,120.0,0.0,0.0
4551,58.0,120.0,120.0,0.0,0.0
4552,81.0,120.0,240.0,0.0,0.0
4553,93.0,0.0,240.0,0.0,0.0
4554,59.0,120.0,120.0,0.0,0.0
4555,66.0,0.0,120.0,0.0,0.0
4556,91.0,0.0,360.0,0.0,0.0
4557,63.0,120.0,120.0,0.0,0.0
4558,79.0,120.0,360.0,0.0,0.0
4559,70.0,120.0,120.0,0.0,0.0
4560,71.0,0.0,120.0,0.0,0.0
4561,90.0,120.0,120.0,0.0,0.0
4562,78.0,0.0,120.0,0.0,0.0
4563,81.0,0.0,240.0,0.0,0.0
4564,83.0,0.0,15.0,0.0,0.0
4565,40.0,120.0,120.0,0.0,0.0
4566,93.0,0.0,240.0,0.0,0.0
4567,47.0,120.0,120.0,0.0,0.0
4568,52.0,120.0,120.0,0.0,0.0
4569,79.0,0.0,240.0,0.0,0.0
4570,91.0,0.0,240.0,0.0,0.0
4571,59.0,0.0,120.0,0.0,0.0
4572,42.0,120.0,120.0,0.0,0.0
4573,83.0,120.0,15.0,0.0,0.0
4574,90.0,120.0,240.0,0.0,0.0
4575,78.0,0.0,240.0,0.0,0.0
4576,47.0,0.0,120.0,0.0,0.0
4577,87.0,120.0,240.0,0.0,0.0
4578,54.0,120.0,120.0,0.0,0.0
4579,75.0,0.0,240.0,0.0,0.0
4580,59.0,0.0,120.0,0.0,0.0
4581,43.0,120.0,120.0,0.0,0.0
4582,90.0,0.0,240.0,0.0,0.0
4583,83.0,0.0,15.0,0.0,0.0
4584,78.0,120.0,240.0,0.0,0.0
4585,47.0,0.0,120.0,0.0,0.0
4586,88.0,0.0,240.0,0.0,0.0
4587,76.0,0.0,240.0,0.0,0.0
4588,52.0,120.0,120.0,0.0,0.0
4589,59.0,120.0,120.0,0.0,0.0
4590,77.0,120.0,480.0,0.0,0.0
4591,83.0,0.0,240.0,0.0,0.0
4592,71.0,0.0,240.0,0.0,0.0
4593,44.0,120.0,120.0,0.0,0.0
4594,50.0,120.0,120.0,0.0,0.0
4595,86.0,0.0,480.0,0.0,0.0
4596,74.0,0.0,480.0,0.0,0.0
4597,53.0,120.0,120.0,0.0,0.0
4598,59.0,0.0,120.0,0.0,0.0
4599,45.0,120.0,120.0,0.0,0.0
4600,76.0,0.0,480.0,0.0,0.0
4601,79.0,0.0,480.0,0.0,0.0
4602,52.0,120.0,120.0,0.0,0.0
4603,55.0,120.0,120.0,0.0,0.0
4604,73.0,120.0,480.0,0.0,0.0
4605,85.0,0.0,480.0,0.0,0.0
4606,61.0,120.0,120.0,0.0,0.0
4607,79.0,120.0,480.0,0.0,0.0
4608,74.0,0.0,480.0,0.0,0.0
4609,47.0,120.0,120.0,0.0,0.0
4610,50.0,0.0,120.0,0.0,0.0
4611,55.0,120.0,120.0,0.0,0.0
4612,71.0,120.0,480.0,0.0,0.0
4613,83.0,0.0,480.0,0.0,0.0
4614,62.0,0.0,120.0,0.0,0.0
4615,49.0,120.0,120.0,0.0,0.0
4616,76.0,0.0,480.0,0.0,0.0
4617,52.0,0.0,120.0,0.0,0.0
4618,82.0,120.0,480.0,0.0,0.0
4619,55.0,120.0,120.0,0.0,0.0
4620,70.0,0.0,480.0,0.0,0.0
4621,64.0,120.0,120.0,0.0,0.0
4622,79.0,0.0,15.0,0.0,0.0
4623,73.0,0.0,480.0,0.0,0.0
4624,52.0,120.0,120.0,0.0,0.0
4625,55.0,0.0,120.0,0.0,0.0
4626,69.0,0.0,480.0,0.0,0.0
4627,81.0,0.0,480.0,0.0,0.0
4628,61.0,120.0,120.0,0.0,0.0
4629,67.0,240.0,120.0,0.0,0.0
4630,74.0,0.0,240.0,0.0,0.0
4631,62.0,0.0,240.0,0.0,0.0
4632,66.0,0.0,240.0,0.0,0.0
4633,54.0,240.0,240.0,0.0,0.0
4634,82.0,0.0,240.0,0.0,0.0
4635,70.0,0.0,240.0,0.0,0.0
4636,74.0,0.0,240.0,0.0,0.0
4637,66.0,240.0,240.0,0.0,0.0
4638,62.0,0.0,240.0,0.0,0.0
4639,54.0,0.0,240.0,0.0,0.0
4640,83.0,0.0,240.0,0.0,0.0
4641,71.0,0.0,240.0,0.0,0.0
4642,67.0,0.0,240.0,0.0,0.0
4643,55.0,0.0,240.0,0.0,0.0
4644,81.0,240.0,240.0,0.0,0.0
4645,74.0,0.0,15.0,0.0,0.0
4646,69.0,0.0,240.0,0.0,0.0
4647,66.0,0.0,240.0,0.0,0.0
4648,62.0,240.0,15.0,0.0,0.0
4649,57.0,0.0,240.0,0.0,0.0
4650,76.0,0.0,240.0,0.0,0.0
4651,73.0,0.0,240.0,0.0,0.0
4652,67.0,240.0,240.0,0.0,0.0
4653,58.0,0.0,240.0,0.0,0.0
4654,69.0,0.0,240.0,0.0,0.0
4655,78.0,0.0,240.0,0.0,0.0
4656,72.0,0.0,240.0,0.0,0.0
4657,51.0,0.0,240.0,0.0,0.0
4658,63.0,240.0,240.0,0.0,0.0
4659,67.0,0.0,240.0,0.0,0.0
4660,71.0,0.0,240.0,0.0,0.0
4661,79.0,0.0,240.0,0.0,0.0
4662,64.0,240.0,240.0,0.0,0.0
4663,52.0,0.0,240.0,0.0,0.0
4664,73.0,0.0,240.0,0.0,0.0
4665,70.0,0.0,240.0,0.0,0.0
4666,55.0,0.0,240.0,0.0,0.0
4667,67.0,240.0,240.0,0.0,0.0
4668,69.0,240.0,240.0,0.0,0.0
4669,57.0,0.0,240.0,0.0,0.0
4670,74.0,0.0,240.0,0.0,0.0
4671,66.0,0.0,240.0,0.0,0.0
4672,54.0,0.0,240.0,0.0,0.0
4673,62.0,0.0,240.0,0.0,0.0
4674,49.0,0.0,240.0,0.0,0.0
4675,61.0,240.0,240.0,0.0,0.0
4676,76.0,0.0,240.0,0.0,0.0
4677,67.0,0.0,240.0,0.0,0.0
4678,70.0,0.0,240.0,0.0,0.0
4679,50.0,0.0,240.0,0.0,0.0
4680,62.0,180.0,240.0,0.0,0.0
4681,66.0,0.0,240.0,0.0,0.0
4682,69.0,0.0,240.0,0.0,0.0
4683,78.0,0.0,240.0,0.0,0.0
4684,71.0,0.0,180.0,0.0,0.0
4685,56.0,240.0,240.0,0.0,0.0
4686,62.0,60.0,180.0,0.0,0.0
4687,65.0,0.0,180.0,0.0,0.0
4688,59.0,0.0,60.0,0.0,0.0
4689,64.0,0.0,960.0,0.0,0.0
4690,62.0,240.0,480.0,0.0,0.0
4691,67.0,0.0,960.0,0.0,0.0
4692,44.0,0.0,15.0,0.0,0.0
4693,32.0,0.0,240.0,0.0,0.0
4694,74.0,0.0,480.0,0.0,0.0
4695,33.0,240.0,480.0,0.0,0.0
4696,45.0,0.0,720.0,0.0,0.0
4697,59.0,0.0,240.0,0.0,0.0
4698,61.0,160.0,480.0,0.0,0.0
4699,73.0,0.0,480.0,0.0,0.0
4700,57.0,0.0,390.0,0.0,0.0
4701,50.0,0.0,150.0,0.0,0.0
4702,66.0,0.0,150.0,0.0,0.0
4703,74.0,6.0,150.0,0.0,0.0
4704,56.0,160.0,90.0,0.0,0.0
4705,62.0,74.0,15.0,0.0,0.0
4706,65.0,0.0,90.0,0.0,0.0
4707,70.0,0.0,90.0,0.0,0.0
4708,62.0,0.0,90.0,0.0,0.0
4709,56.0,0.0,90.0,0.0,0.0
4710,65.0,0.0,90.0,0.0,0.0
4711,70.0,240.0,90.0,0.0,0.0
4712,56.0,0.0,150.0,0.0,0.0
4713,62.0,80.0,150.0,0.0,0.0
4714,70.0,0.0,150.0,0.0,0.0
4715,65.0,0.0,150.0,0.0,0.0
4716,57.0,0.0,90.0,0.0,0.0
4717,61.0,160.0,90.0,0.0,0.0
4718,69.0,0.0,90.0,0.0,0.0
4719,64.0,0.0,90.0,0.0,0.0
4720,79.0,0.0,90.0,0.0,0.0
4721,73.0,240.0,90.0,0.0,0.0
4722,69.0,0.0,90.0,0.0,0.0
4723,57.0,0.0,90.0,0.0,0.0
4724,64.0,0.0,90.0,0.0,0.0
4725,57.0,0.0,150.0,0.0,0.0
4726,64.0,0.0,150.0,0.0,0.0
4727,73.0,0.0,150.0,0.0,0.0
4728,79.0,80.0,150.0,0.0,0.0
4729,74.0,0.0,90.0,0.0,0.0
4730,62.0,0.0,90.0,0.0,0.0
4731,69.0,0.0,15.0,0.0,0.0
4732,78.0,160.0,90.0,0.0,0.0
4733,82.0,0.0,90.0,0.0,0.0
4734,77.0,0.0,90.0,0.0,0.0
4735,74.0,240.0,90.0,0.0,0.0
4736,68.0,0.0,90.0,0.0,0.0
4737,82.0,0.0,150.0,0.0,0.0
4738,74.0,0.0,150.0,0.0,0.0
4739,68.0,0.0,150.0,0.0,0.0
4740,77.0,80.0,150.0,0.0,0.0
4741,73.0,160.0,90.0,0.0,0.0
4742,69.0,0.0,90.0,0.0,0.0
4743,81.0,0.0,90.0,0.0,0.0
4744,76.0,0.0,90.0,0.0,0.0
4745,85.0,240.0,90.0,0.0,0.0
4746,69.0,0.0,90.0,0.0,0.0
4747,91.0,0.0,90.0,0.0,0.0
4748,81.0,0.0,90.0,0.0,0.0
4749,76.0,0.0,90.0,0.0,0.0
4750,69.0,80.0,150.0,0.0,0.0
4751,76.0,0.0,150.0,0.0,0.0
4752,91.0,0.0,150.0,0.0,0.0
4753,85.0,0.0,150.0,0.0,0.0
4754,86.0,0.0,90.0,0.0,0.0
4755,74.0,0.0,90.0,0.0,0.0
4756,90.0,0.0,90.0,0.0,0.0
4757,81.0,0.0,15.0,0.0,0.0
4758,74.0,240.0,90.0,0.0,0.0
4759,68.0,0.0,90.0,0.0,0.0
4760,77.0,0.0,90.0,0.0,0.0
4761,82.0,0.0,90.0,0.0,0.0
4762,77.0,80.0,150.0,0.0,0.0
4763,82.0,0.0,150.0,0.0,0.0
4764,74.0,0.0,150.0,0.0,0.0
4765,68.0,0.0,150.0,0.0,0.0
4766,73.0,0.0,90.0,0.0,0.0
4767,69.0,0.0,90.0,0.0,0.0
4768,76.0,160.0,90.0,0.0,0.0
4769,81.0,0.0,90.0,0.0,0.0
4770,57.0,0.0,90.0,0.0,0.0
4771,73.0,0.0,90.0,0.0,0.0
4772,69.0,240.0,90.0,0.0,0.0
4773,64.0,0.0,90.0,0.0,0.0
4774,79.0,0.0,90.0,0.0,0.0
4775,73.0,0.0,150.0,0.0,0.0
4776,64.0,0.0,150.0,0.0,0.0
4777,57.0,80.0,150.0,0.0,0.0
4778,79.0,0.0,150.0,0.0,0.0
4779,62.0,0.0,90.0,0.0,0.0
4780,69.0,0.0,15.0,0.0,0.0
4781,74.0,160.0,90.0,0.0,0.0
4782,78.0,0.0,90.0,0.0,0.0
4783,70.0,0.0,90.0,0.0,0.0
4784,65.0,0.0,90.0,0.0,0.0
4785,56.0,0.0,90.0,0.0,0.0
4786,62.0,240.0,90.0,0.0,0.0
4787,62.0,80.0,150.0,0.0,0.0
4788,70.0,0.0,150.0,0.0,0.0
4789,65.0,0.0,150.0,0.0,0.0
4790,56.0,0.0,150.0,0.0,0.0
4791,69.0,0.0,90.0,0.0,0.0
4792,64.0,0.0,90.0,0.0,0.0
4793,61.0,160.0,90.0,0.0,0.0
4794,57.0,0.0,90.0,0.0,0.0
4795,61.0,0.0,90.0,0.0,0.0
4796,45.0,0.0,90.0,0.0,0.0
4797,67.0,0.0,90.0,0.0,0.0
4798,52.0,240.0,90.0,0.0,0.0
4799,57.0,0.0,90.0,0.0,0.0
4800,52.0,0.0,150.0,0.0,0.0
4801,67.0,0.0,150.0,0.0,0.0
4802,61.0,0.0,150.0,0.0,0.0
4803,45.0,80.0,150.0,0.0,0.0
4804,57.0,0.0,15.0,0.0,0.0
4805,62.0,160.0,90.0,0.0,0.0
4806,66.0,0.0,90.0,0.0,0.0
4807,50.0,0.0,90.0,0.0,0.0
4808,52.0,0.0,90.0,0.0,0.0
4809,56.0,0.0,90.0,0.0,0.0
4810,62.0,0.0,90.0,0.0,0.0
4811,64.0,240.0,90.0,0.0,0.0
4812,71.0,0.0,90.0,0.0,0.0
4813,56.0,80.0,150.0,0.0,0.0
4814,62.0,0.0,150.0,0.0,0.0
4815,52.0,0.0,150.0,0.0,0.0
4816,71.0,0.0,150.0,0.0,0.0
4817,64.0,0.0,150.0,0.0,0.0
4818,61.0,160.0,90.0,0.0,0.0
4819,69.0,0.0,90.0,0.0,0.0
4820,57.0,0.0,90.0,0.0,0.0
4821,64.0,0.0,90.0,0.0,0.0
4822,57.0,0.0,90.0,0.0,0.0
4823,73.0,240.0,90.0,0.0,0.0
4824,79.0,0.0,90.0,0.0,0.0
4825,69.0,0.0,90.0,0.0,0.0
4826,73.0,0.0,150.0,0.0,0.0
4827,79.0,0.0,150.0,0.0,0.0
4828,69.0,0.0,150.0,0.0,0.0
4829,57.0,80.0,150.0,0.0,0.0
4830,64.0,0.0,150.0,0.0,0.0
4831,78.0,0.0,90.0,0.0,0.0
4832,74.0,160.0,90.0,0.0,0.0
4833,62.0,0.0,90.0,0.0,0.0
4834,69.0,0.0,90.0,0.0,0.0
4835,64.0,0.0,90.0,0.0,0.0
4836,74.0,240.0,90.0,0.0,0.0
4837,68.0,0.0,90.0,0.0,0.0
4838,83.0,0.0,90.0,0.0,0.0
4839,76.0,0.0,90.0,0.0,0.0
4840,76.0,80.0,150.0,0.0,0.0
4841,83.0,0.0,150.0,0.0,0.0
4842,68.0,0.0,150.0,0.0,0.0
4843,64.0,0.0,150.0,0.0,0.0
4844,74.0,0.0,150.0,0.0,0.0
4845,69.0,0.0,90.0,0.0,0.0
4846,73.0,0.0,90.0,0.0,0.0
4847,81.0,160.0,90.0,0.0,0.0
4848,69.0,240.0,90.0,0.0,0.0
4849,91.0,0.0,90.0,0.0,0.0
4850,76.0,0.0,90.0,0.0,0.0
4851,81.0,0.0,90.0,0.0,0.0
4852,85.0,0.0,90.0,0.0,0.0
4853,91.0,0.0,150.0,0.0,0.0
4854,85.0,0.0,150.0,0.0,0.0
4855,69.0,0.0,150.0,0.0,0.0
4856,76.0,80.0,150.0,0.0,0.0
4857,74.0,160.0,90.0,0.0,0.0
4858,81.0,0.0,15.0,0.0,0.0
4859,86.0,0.0,90.0,0.0,0.0
4860,90.0,0.0,90.0,0.0,0.0
4861,68.0,0.0,90.0,0.0,0.0
4862,74.0,0.0,90.0,0.0,0.0
4863,64.0,240.0,90.0,0.0,0.0
4864,76.0,0.0,90.0,0.0,0.0
4865,83.0,0.0,90.0,0.0,0.0
4866,68.0,0.0,150.0,0.0,0.0
4867,83.0,0.0,150.0,0.0,0.0
4868,76.0,80.0,150.0,0.0,0.0
4869,74.0,0.0,150.0,0.0,0.0
4870,64.0,0.0,150.0,0.0,0.0
4871,69.0,0.0,90.0,0.0,0.0
4872,73.0,0.0,90.0,0.0,0.0
4873,81.0,160.0,90.0,0.0,0.0
4874,79.0,0.0,90.0,0.0,0.0
4875,64.0,240.0,90.0,0.0,0.0
4876,57.0,0.0,90.0,0.0,0.0
4877,73.0,0.0,90.0,0.0,0.0
4878,69.0,0.0,90.0,0.0,0.0
4879,79.0,0.0,150.0,0.0,0.0
4880,73.0,0.0,150.0,0.0,0.0
4881,64.0,0.0,150.0,0.0,0.0
4882,57.0,0.0,150.0,0.0,0.0
4883,78.0,160.0,90.0,0.0,0.0
4884,74.0,0.0,90.0,0.0,0.0
4885,69.0,80.0,15.0,0.0,0.0
4886,62.0,0.0,90.0,0.0,0.0
4887,64.0,0.0,90.0,0.0,0.0
4888,52.0,0.0,90.0,0.0,0.0
4889,56.0,0.0,90.0,0.0,0.0
4890,62.0,0.0,90.0,0.0,0.0
4891,71.0,240.0,90.0,0.0,0.0
4892,62.0,0.0,150.0,0.0,0.0
4893,52.0,0.0,150.0,0.0,0.0
4894,64.0,0.0,150.0,0.0,0.0
4895,71.0,80.0,150.0,0.0,0.0
4896,56.0,0.0,150.0,0.0,0.0
4897,57.0,160.0,90.0,0.0,0.0
4898,61.0,0.0,90.0,0.0,0.0
4899,69.0,0.0,90.0,0.0,0.0
4900,61.0,0.0,90.0,0.0,0.0
4901,67.0,0.0,90.0,0.0,0.0
4902,64.0,240.0,90.0,0.0,0.0
4903,57.0,0.0,90.0,0.0,0.0
4904,45.0,0.0,90.0,0.0,0.0
4905,45.0,0.0,150.0,0.0,0.0
4906,57.0,0.0,150.0,0.0,0.0
4907,64.0,80.0,150.0,0.0,0.0
4908,61.0,0.0,150.0,0.0,0.0
4909,67.0,0.0,150.0,0.0,0.0
4910,68.0,0.0,90.0,0.0,0.0
4911,56.0,0.0,90.0,0.0,0.0
4912,44.0,0.0,90.0,0.0,0.0
4913,65.0,160.0,90.0,0.0,0.0
4914,61.0,0.0,90.0,0.0,0.0
4915,61.0,0.0,90.0,0.0,0.0
4916,67.0,0.0,90.0,0.0,0.0
4917,63.0,0.0,90.0,0.0,0.0
4918,58.0,0.0,90.0,0.0,0.0
4919,73.0,240.0,90.0,0.0,0.0
4920,56.0,0.0,90.0,0.0,0.0
4921,58.0,80.0,150.0,0.0,0.0
4922,67.0,0.0,150.0,0.0,0.0
4923,73.0,0.0,150.0,0.0,0.0
4924,61.0,0.0,150.0,0.0,0.0
4925,56.0,0.0,15.0,0.0,0.0
4926,63.0,0.0,15.0,0.0,0.0
4927,72.0,160.0,90.0,0.0,0.0
4928,60.0,0.0,90.0,0.0,0.0
4929,68.0,0.0,90.0,0.0,0.0
4930,56.0,0.0,90.0,0.0,0.0
4931,66.0,0.0,90.0,0.0,0.0
4932,68.0,0.0,90.0,0.0,0.0
4933,72.0,0.0,90.0,0.0,0.0
4934,78.0,0.0,90.0,0.0,0.0
4935,63.0,240.0,90.0,0.0,0.0
4936,63.0,0.0,150.0,0.0,0.0
4937,72.0,0.0,150.0,0.0,0.0
4938,66.0,0.0,150.0,0.0,0.0
4939,78.0,80.0,150.0,0.0,0.0
4940,56.0,0.0,15.0,0.0,0.0
4941,61.0,0.0,90.0,0.0,0.0
4942,68.0,0.0,15.0,0.0,0.0
4943,77.0,0.0,90.0,0.0,0.0
4944,73.0,0.0,90.0,0.0,0.0
4945,65.0,160.0,90.0,0.0,0.0
4946,73.0,0.0,90.0,0.0,0.0
4947,75.0,0.0,90.0,0.0,0.0
4948,79.0,0.0,90.0,0.0,0.0
4949,85.0,240.0,90.0,0.0,0.0
4950,56.0,0.0,90.0,0.0,0.0
4951,63.0,0.0,90.0,0.0,0.0
4952,70.0,0.0,90.0,0.0,0.0
4953,73.0,0.0,150.0,0.0,0.0
4954,75.0,0.0,150.0,0.0,0.0
4955,79.0,0.0,150.0,0.0,0.0
4956,85.0,80.0,150.0,0.0,0.0
4957,70.0,0.0,150.0,0.0,0.0
4958,68.0,0.0,90.0,0.0,0.0
4959,63.0,0.0,15.0,0.0,0.0
4960,56.0,0.0,15.0,0.0,0.0
4961,84.0,0.0,90.0,0.0,0.0
4962,80.0,0.0,90.0,0.0,0.0
4963,72.0,160.0,90.0,0.0,0.0
4964,56.0,0.0,90.0,0.0,0.0
4965,68.0,0.0,90.0,0.0,0.0
4966,63.0,0.0,90.0,0.0,0.0
4967,66.0,240.0,90.0,0.0,0.0
4968,78.0,0.0,90.0,0.0,0.0
4969,80.0,0.0,90.0,0.0,0.0
4970,84.0,0.0,90.0,0.0,0.0
4971,90.0,0.0,90.0,0.0,0.0
4972,68.0,160.0,150.0,0.0,0.0
4973,56.0,0.0,150.0,0.0,0.0
4974,66.0,0.0,150.0,0.0,0.0
4975,80.0,0.0,150.0,0.0,0.0
4976,84.0,0.0,150.0,0.0,0.0
4977,78.0,0.0,150.0,0.0,0.0
4978,90.0,0.0,150.0,0.0,0.0
4979,69.0,0.0,150.0,0.0,0.0
4980,63.0,0.0,15.0,0.0,0.0
4981,75.0,0.0,150.0,0.0,0.0
4982,71.0,0.0,150.0,0.0,0.0
4983,54.0,160.0,150.0,0.0,0.0
4984,72.0,0.0,150.0,0.0,0.0
4985,81.0,0.0,150.0,0.0,0.0
4986,78.0,0.0,150.0,0.0,0.0
4987,74.0,0.0,150.0,0.0,0.0
4988,66.0,0.0,150.0,0.0,0.0
4989,57.0,160.0,150.0,0.0,0.0
4990,75.0,0.0,150.0,0.0,0.0
4991,84.0,0.0,150.0,0.0,0.0
4992,51.0,160.0,150.0,0.0,0.0
4993,81.0,160.0,150.0,0.0,0.0
4994,77.0,0.0,150.0,0.0,0.0
4995,63.0,0.0,150.0,0.0,0.0
4996,57.0,0.0,150.0,0.0,0.0
4997,78.0,0.0,150.0,0.0,0.0
4998,48.0,0.0,150.0,0.0,0.0
4999,87.0,160.0,150.0,0.0,0.0
5000,51.0,0.0,150.0,0.0,0.0
5001,80.0,160.0,150.0,0.0,0.0
5002,84.0,0.0,150.0,0.0,0.0
5003,60.0,0.0,150.0,0.0,0.0
5004,81.0,160.0,150.0,0.0,0.0
5005,90.0,0.0,150.0,0.0,0.0
5006,45.0,0.0,150.0,0.0,0.0
5007,83.0,160.0,150.0,0.0,0.0
5008,87.0,0.0,150.0,0.0,0.0
5009,57.0,0.0,150.0,0.0,0.0
5010,51.0,0.0,150.0,0.0,0.0
5011,84.0,160.0,150.0,0.0,0.0
5012,93.0,0.0,150.0,0.0,0.0
5013,42.0,0.0,150.0,0.0,0.0
5014,30.0,0.0,150.0,0.0,0.0
5015,84.0,0.0,150.0,0.0,0.0
5016,96.0,160.0,150.0,0.0,0.0
5017,42.0,0.0,150.0,0.0,0.0
5018,29.0,0.0,150.0,0.0,0.0
5019,41.0,0.0,150.0,0.0,0.0
5020,97.0,160.0,150.0,0.0,0.0
5021,85.0,0.0,150.0,0.0,0.0
5022,92.0,0.0,150.0,0.0,0.0
5023,61.0,0.0,150.0,0.0,0.0
5024,41.0,0.0,150.0,0.0,0.0
5025,73.0,0.0,15.0,0.0,0.0
5026,68.0,0.0,15.0,0.0,0.0
5027,53.0,160.0,15.0,0.0,0.0
5028,61.0,0.0,150.0,0.0,0.0
5029,41.0,0.0,150.0,0.0,0.0
5030,73.0,0.0,15.0,0.0,0.0
5031,68.0,160.0,15.0,0.0,0.0
5032,53.0,0.0,15.0,0.0,0.0
5033,73.0,0.0,15.0,0.0,0.0
5034,61.0,0.0,15.0,0.0,0.0
5035,53.0,160.0,15.0,0.0,0.0
5036,41.0,0.0,15.0,0.0,0.0
5037,53.0,0.0,15.0,0.0,0.0
5038,41.0,0.0,15.0,0.0,0.0
5039,61.0,160.0,150.0,0.0,0.0
5040,68.0,160.0,15.0,0.0,0.0
5041,73.0,0.0,150.0,0.0,0.0
5042,41.0,0.0,150.0,0.0,0.0
5043,53.0,0.0,150.0,0.0,0.0
5044,61.0,0.0,150.0,0.0,0.0
5045,73.0,0.0,150.0,0.0,0.0
5046,69.0,160.0,15.0,0.0,0.0
5047,40.0,0.0,150.0,0.0,0.0
5048,52.0,0.0,150.0,0.0,0.0
5049,52.0,0.0,150.0,0.0,0.0
5050,73.0,160.0,15.0,0.0,0.0
5051,69.0,0.0,15.0,0.0,0.0
5052,61.0,0.0,15.0,0.0,0.0
5053,40.0,160.0,15.0,0.0,0.0
5054,52.0,0.0,150.0,0.0,0.0
5055,61.0,0.0,150.0,0.0,0.0
5056,69.0,0.0,15.0,0.0,0.0
5057,73.0,0.0,15.0,0.0,0.0
5058,53.0,0.0,150.0,0.0,0.0
5059,69.0,0.0,15.0,0.0,0.0
5060,61.0,0.0,15.0,0.0,0.0
5061,41.0,160.0,15.0,0.0,0.0
5062,53.0,0.0,150.0,0.0,0.0
5063,73.0,0.0,15.0,0.0,0.0
5064,69.0,0.0,15.0,0.0,0.0
5065,61.0,80.0,15.0,0.0,0.0
5066,41.0,0.0,90.0,0.0,0.0
5067,53.0,160.0,90.0,0.0,0.0
5068,41.0,0.0,90.0,0.0,0.0
5069,53.0,0.0,90.0,0.0,0.0
5070,69.0,0.0,90.0,0.0,0.0
5071,74.0,160.0,90.0,0.0,0.0
5072,62.0,0.0,90.0,0.0,0.0
5073,69.0,0.0,90.0,0.0,0.0
5074,62.0,0.0,90.0,0.0,0.0
5075,41.0,160.0,90.0,0.0,0.0
5076,53.0,0.0,90.0,0.0,0.0
5077,74.0,0.0,90.0,0.0,0.0
5078,69.0,0.0,90.0,0.0,0.0
5079,62.0,0.0,90.0,0.0,0.0
5080,74.0,0.0,90.0,0.0,0.0
5081,41.0,0.0,90.0,0.0,0.0
5082,53.0,160.0,90.0,0.0,0.0
5083,53.0,0.0,90.0,0.0,0.0
5084,41.0,160.0,90.0,0.0,0.0
5085,62.0,0.0,90.0,0.0,0.0
5086,74.0,0.0,90.0,0.0,0.0
5087,70.0,0.0,90.0,0.0,0.0
5088,53.0,0.0,90.0,0.0,0.0
5089,62.0,160.0,90.0,0.0,0.0
5090,70.0,0.0,90.0,0.0,0.0
5091,74.0,0.0,90.0,0.0,0.0
5092,41.0,0.0,90.0,0.0,0.0
5093,62.0,160.0,90.0,0.0,0.0
5094,53.0,0.0,90.0,0.0,0.0
5095,74.0,0.0,90.0,0.0,0.0
5096,41.0,0.0,90.0,0.0,0.0
5097,70.0,0.0,90.0,0.0,0.0
5098,62.0,0.0,90.0,0.0,0.0
5099,74.0,0.0,90.0,0.0,0.0
5100,70.0,0.0,90.0,0.0,0.0
5101,52.0,160.0,90.0,0.0,0.0
5102,40.0,0.0,90.0,0.0,0.0
5103,52.0,0.0,90.0,0.0,0.0
5104,40.0,160.0,90.0,0.0,0.0
5105,62.0,0.0,90.0,0.0,0.0
5106,70.0,0.0,90.0,0.0,0.0
5107,74.0,0.0,90.0,0.0,0.0
5108,74.0,0.0,90.0,0.0,0.0
5109,40.0,0.0,90.0,0.0,0.0
5110,52.0,160.0,90.0,0.0,0.0
5111,62.0,0.0,90.0,0.0,0.0
5112,70.0,0.0,90.0,0.0,0.0
5113,53.0,0.0,90.0,0.0,0.0
5114,41.0,0.0,90.0,0.0,0.0
5115,62.0,0.0,90.0,0.0,0.0
5116,69.0,0.0,90.0,0.0,0.0
5117,74.0,160.0,90.0,0.0,0.0
5118,62.0,160.0,90.0,0.0,0.0
5119,68.0,0.0,90.0,0.0,0.0
5120,53.0,0.0,90.0,0.0,0.0
5121,41.0,0.0,90.0,0.0,0.0
5122,74.0,0.0,90.0,0.0,0.0
5123,42.0,240.0,90.0,0.0,0.0
5124,54.0,0.0,90.0,0.0,0.0
5125,74.0,0.0,90.0,0.0,0.0
5126,69.0,0.0,90.0,0.0,0.0
5127,62.0,0.0,90.0,0.0,0.0
5128,57.0,0.0,150.0,0.0,0.0
5129,62.0,0.0,150.0,0.0,0.0
5130,50.0,0.0,150.0,0.0,0.0
5131,78.0,160.0,150.0,0.0,0.0
5132,50.0,0.0,150.0,0.0,0.0
5133,62.0,0.0,150.0,0.0,0.0
5134,69.0,0.0,15.0,0.0,0.0
5135,66.0,0.0,15.0,0.0,0.0
5136,78.0,0.0,150.0,0.0,0.0
5137,57.0,0.0,15.0,0.0,0.0
5138,62.0,0.0,150.0,0.0,0.0
5139,50.0,0.0,150.0,0.0,0.0
5140,78.0,160.0,150.0,0.0,0.0
5141,69.0,160.0,15.0,0.0,0.0
5142,66.0,0.0,150.0,0.0,0.0
5143,76.0,160.0,150.0,0.0,0.0
5144,64.0,0.0,150.0,0.0,0.0
5145,74.0,0.0,150.0,0.0,0.0
5146,62.0,160.0,150.0,0.0,0.0
5147,31.0,160.0,150.0,0.0,0.0
5148,43.0,0.0,150.0,0.0,0.0
5149,78.0,160.0,150.0,0.0,0.0
5150,62.0,0.0,15.0,0.0,0.0
5151,50.0,0.0,15.0,0.0,0.0
5152,55.0,0.0,15.0,0.0,0.0
5153,70.0,0.0,15.0,0.0,0.0
5154,66.0,0.0,15.0,0.0,0.0
5155,78.0,0.0,150.0,0.0,0.0
5156,66.0,0.0,15.0,0.0,0.0
5157,78.0,160.0,150.0,0.0,0.0
5158,70.0,0.0,150.0,0.0,0.0
5159,62.0,0.0,150.0,0.0,0.0
5160,50.0,0.0,150.0,0.0,0.0
5161,55.0,0.0,150.0,0.0,0.0
5162,64.0,160.0,150.0,0.0,0.0
5163,76.0,0.0,150.0,0.0,0.0
5164,62.0,0.0,150.0,0.0,0.0
5165,74.0,160.0,150.0,0.0,0.0
5166,33.0,160.0,150.0,0.0,0.0
5167,45.0,0.0,150.0,0.0,0.0
5168,62.0,0.0,150.0,0.0,0.0
5169,57.0,0.0,150.0,0.0,0.0
5170,69.0,0.0,150.0,0.0,0.0
5171,66.0,0.0,150.0,0.0,0.0
5172,50.0,160.0,150.0,0.0,0.0
5173,78.0,0.0,15.0,0.0,0.0
5174,62.0,160.0,15.0,0.0,0.0
5175,78.0,0.0,15.0,0.0,0.0
5176,69.0,0.0,15.0,0.0,0.0
5177,66.0,0.0,15.0,0.0,0.0
5178,57.0,0.0,15.0,0.0,0.0
5179,50.0,0.0,15.0,0.0,0.0
5180,64.0,160.0,150.0,0.0,0.0
5181,76.0,0.0,150.0,0.0,0.0
5182,62.0,160.0,150.0,0.0,0.0
5183,74.0,0.0,150.0,0.0,0.0
5184,46.0,0.0,150.0,0.0,0.0
5185,34.0,160.0,150.0,0.0,0.0
5186,78.0,0.0,150.0,0.0,0.0
5187,55.0,0.0,150.0,0.0,0.0
5188,50.0,0.0,150.0,0.0,0.0
5189,62.0,0.0,150.0,0.0,0.0
5190,55.0,0.0,150.0,0.0,0.0
5191,50.0,0.0,150.0,0.0,0.0
5192,62.0,0.0,150.0,0.0,0.0
5193,67.0,160.0,15.0,0.0,0.0
5194,62.0,0.0,150.0,0.0,0.0
5195,50.0,0.0,150.0,0.0,0.0
5196,55.0,160.0,150.0,0.0,0.0
5197,78.0,0.0,15.0,0.0,0.0
5198,67.0,60.0,480.0,0.0,0.0
5199,76.0,160.0,150.0,0.0,0.0
5200,35.0,0.0,120.0,0.0,0.0
5201,47.0,0.0,120.0,0.0,0.0
5202,48.0,120.0,60.0,0.0,0.0
5203,36.0,0.0,60.0,0.0,0.0
5204,69.0,0.0,960.0,0.0,0.0
5205,78.0,120.0,960.0,0.0,0.0
5206,74.0,0.0,15.0,0.0,0.0
5207,33.0,240.0,60.0,0.0,0.0
5208,45.0,0.0,60.0,0.0,0.0
5209,35.0,0.0,60.0,0.0,0.0
5210,47.0,120.0,60.0,0.0,0.0
5211,36.0,120.0,60.0,0.0,0.0
5212,48.0,0.0,60.0,0.0,0.0
5213,33.0,300.0,60.0,0.0,0.0
5214,45.0,0.0,60.0,0.0,0.0
5215,66.0,0.0,15.0,0.0,0.0
5216,48.0,0.0,120.0,0.0,0.0
5217,69.0,0.0,480.0,0.0,0.0
5218,36.0,60.0,120.0,0.0,0.0
5219,74.0,0.0,480.0,0.0,0.0
5220,45.0,300.0,60.0,0.0,0.0
5221,33.0,0.0,60.0,0.0,0.0
5222,47.0,0.0,120.0,0.0,0.0
5223,35.0,0.0,120.0,0.0,0.0
5224,48.0,0.0,120.0,0.0,0.0
5225,78.0,120.0,15.0,0.0,0.0
5226,75.0,0.0,480.0,0.0,0.0
5227,66.0,0.0,15.0,0.0,0.0
5228,36.0,60.0,120.0,0.0,0.0
5229,33.0,0.0,60.0,0.0,0.0
5230,45.0,300.0,60.0,0.0,0.0
5231,78.0,120.0,15.0,0.0,0.0
5232,74.0,120.0,480.0,0.0,0.0
5233,48.0,0.0,120.0,0.0,0.0
5234,69.0,0.0,15.0,0.0,0.0
5235,66.0,0.0,15.0,0.0,0.0
5236,36.0,60.0,120.0,0.0,0.0
5237,45.0,0.0,60.0,0.0,0.0
5238,33.0,300.0,60.0,0.0,0.0
5239,47.0,0.0,120.0,0.0,0.0
5240,35.0,0.0,120.0,0.0,0.0
5241,48.0,0.0,120.0,0.0,0.0
5242,36.0,60.0,120.0,0.0,0.0
5243,66.0,0.0,480.0,0.0,0.0
5244,69.0,0.0,480.0,0.0,0.0
5245,78.0,0.0,480.0,0.0,0.0
5246,45.0,300.0,60.0,0.0,0.0
5247,33.0,0.0,60.0,0.0,0.0
5248,37.0,60.0,120.0,0.0,0.0
5249,49.0,0.0,120.0,0.0,0.0
5250,75.0,120.0,15.0,0.0,0.0
5251,34.0,300.0,60.0,0.0,0.0
5252,46.0,0.0,60.0,0.0,0.0
5253,47.0,0.0,120.0,0.0,0.0
5254,35.0,0.0,120.0,0.0,0.0
5255,67.0,0.0,15.0,0.0,0.0
5256,70.0,0.0,15.0,0.0,0.0
5257,79.0,0.0,15.0,0.0,0.0
5258,37.0,0.0,120.0,0.0,0.0
5259,49.0,60.0,120.0,0.0,0.0
5260,46.0,300.0,60.0,0.0,0.0
5261,58.0,0.0,60.0,0.0,0.0
5262,80.0,120.0,480.0,0.0,0.0
5263,76.0,0.0,15.0,0.0,0.0
5264,71.0,0.0,480.0,0.0,0.0
5265,68.0,0.0,480.0,0.0,0.0
5266,50.0,60.0,120.0,0.0,0.0
5267,38.0,0.0,120.0,0.0,0.0
5268,47.0,0.0,60.0,0.0,0.0
5269,35.0,300.0,60.0,0.0,0.0
5270,37.0,0.0,120.0,0.0,0.0
5271,49.0,0.0,120.0,0.0,0.0
5272,38.0,0.0,120.0,0.0,0.0
5273,68.0,0.0,480.0,0.0,0.0
5274,71.0,0.0,480.0,0.0,0.0
5275,77.0,0.0,480.0,0.0,0.0
5276,80.0,120.0,480.0,0.0,0.0
5277,50.0,60.0,120.0,0.0,0.0
5278,59.0,300.0,60.0,0.0,0.0
5279,47.0,0.0,60.0,0.0,0.0
5280,72.0,0.0,480.0,0.0,0.0
5281,69.0,0.0,480.0,0.0,0.0
5282,39.0,0.0,120.0,0.0,0.0
5283,77.0,0.0,480.0,0.0,0.0
5284,63.0,300.0,60.0,0.0,0.0
5285,51.0,60.0,15.0,0.0,0.0
5286,40.0,160.0,150.0,0.0,0.0
5287,52.0,0.0,150.0,0.0,0.0
5288,69.0,480.0,480.0,0.0,0.0
5289,73.0,0.0,480.0,0.0,0.0
5290,79.0,0.0,480.0,0.0,0.0
5291,81.0,160.0,15.0,0.0,0.0
5292,52.0,160.0,150.0,0.0,0.0
5293,64.0,0.0,150.0,0.0,0.0
5294,65.0,0.0,150.0,0.0,0.0
5295,53.0,0.0,150.0,0.0,0.0
5296,54.0,0.0,480.0,0.0,0.0
5297,62.0,0.0,480.0,0.0,0.0
5298,66.0,0.0,480.0,0.0,0.0
5299,74.0,0.0,480.0,0.0,0.0
5300,81.0,480.0,480.0,0.0,0.0
5301,69.0,0.0,480.0,0.0,0.0
5302,55.0,480.0,480.0,0.0,0.0
5303,67.0,0.0,480.0,0.0,0.0
5304,70.0,0.0,480.0,0.0,0.0
5305,82.0,0.0,480.0,0.0,0.0
5306,62.0,0.0,480.0,0.0,0.0
5307,79.0,0.0,480.0,0.0,0.0
5308,76.0,0.0,480.0,0.0,0.0
5309,74.0,0.0,15.0,0.0,0.0
5310,58.0,0.0,480.0,0.0,0.0
5311,62.0,0.0,480.0,0.0,0.0
5312,86.0,0.0,480.0,0.0,0.0
5313,67.0,0.0,480.0,0.0,0.0
5314,70.0,0.0,480.0,0.0,0.0
5315,57.0,0.0,480.0,0.0,0.0
5316,64.0,0.0,15.0,0.0,0.0
5317,67.0,480.0,480.0,0.0,0.0
5318,69.0,0.0,480.0,0.0,0.0
5319,73.0,0.0,480.0,0.0,0.0
5320,76.0,0.0,480.0,0.0,0.0
5321,79.0,0.0,480.0,0.0,0.0
5322,85.0,0.0,480.0,0.0,0.0
5323,50.0,480.0,480.0,0.0,0.0
5324,62.0,0.0,480.0,0.0,0.0
5325,78.0,0.0,480.0,0.0,0.0
5326,74.0,0.0,15.0,0.0,0.0
5327,79.0,480.0,480.0,0.0,0.0
5328,86.0,0.0,15.0,0.0,0.0
5329,82.0,0.0,480.0,0.0,0.0
5330,55.0,0.0,480.0,0.0,0.0
5331,43.0,0.0,480.0,0.0,0.0
5332,38.0,0.0,480.0,0.0,0.0
5333,50.0,0.0,480.0,0.0,0.0
5334,78.0,0.0,480.0,0.0,0.0
5335,81.0,480.0,480.0,0.0,0.0
5336,86.0,0.0,15.0,0.0,0.0
5337,43.0,0.0,480.0,0.0,0.0
5338,31.0,960.0,480.0,0.0,0.0
5339,74.0,0.0,15.0,0.0,0.0
5340,79.0,0.0,480.0,0.0,0.0
5341,82.0,0.0,480.0,0.0,0.0
5342,81.0,0.0,960.0,0.0,0.0
5343,86.0,0.0,15.0,0.0,0.0
5344,74.0,0.0,15.0,0.0,0.0
5345,78.0,0.0,960.0,0.0,0.0
5346,38.0,0.0,960.0,0.0,0.0
5347,50.0,0.0,960.0,0.0,0.0
5348,78.0,0.0,960.0,0.0,0.0
5349,74.0,0.0,960.0,0.0,0.0
5350,69.0,0.0,960.0,0.0,0.0
5351,86.0,0.0,960.0,0.0,0.0
5352,98.0,960.0,960.0,0.0,0.0
5353,66.0,0.0,15.0,0.0,0.0
5354,62.0,0.0,960.0,0.0,0.0
5355,57.0,0.0,960.0,0.0,0.0
5356,54.0,0.0,960.0,0.0,0.0
5357,45.0,0.0,960.0,0.0,0.0
5358,38.0,0.0,960.0,0.0,0.0
5359,50.0,0.0,960.0,0.0,0.0
