,note,step,duration,channel,velocity
0,65.0,0.0,390.0,1.0,0.0
1,61.0,0.0,390.0,1.0,0.0
2,58.0,0.0,390.0,1.0,0.0
3,46.0,0.0,390.0,1.0,0.0
4,53.0,288.0,390.0,1.0,0.0
5,65.0,0.0,390.0,0.0,0.0
6,58.0,240.0,180.0,1.0,0.0
7,65.0,0.0,180.0,0.0,0.0
8,61.0,0.0,180.0,1.0,0.0
9,65.0,0.0,180.0,1.0,0.0
10,46.0,0.0,180.0,1.0,0.0
11,53.0,0.0,180.0,1.0,0.0
12,60.0,0.0,180.0,1.0,0.0
13,53.0,0.0,180.0,1.0,0.0
14,63.0,432.0,180.0,1.0,0.0
15,58.0,0.0,180.0,1.0,0.0
16,46.0,0.0,180.0,1.0,0.0
17,63.0,0.0,180.0,0.0,0.0
18,58.0,0.0,390.0,1.0,0.0
19,65.0,288.0,390.0,1.0,0.0
20,61.0,0.0,390.0,1.0,0.0
21,46.0,0.0,390.0,1.0,0.0
22,53.0,0.0,390.0,1.0,0.0
23,65.0,0.0,390.0,0.0,0.0
24,66.0,192.0,180.0,0.0,0.0
25,66.0,0.0,390.0,1.0,0.0
26,63.0,0.0,390.0,1.0,0.0
27,58.0,0.0,390.0,1.0,0.0
28,51.0,0.0,390.0,1.0,0.0
29,39.0,48.0,390.0,1.0,0.0
30,66.0,240.0,180.0,0.0,0.0
31,58.0,0.0,180.0,1.0,0.0
32,65.0,240.0,180.0,0.0,0.0
33,37.0,0.0,180.0,1.0,0.0
34,65.0,0.0,180.0,1.0,0.0
35,53.0,0.0,180.0,1.0,0.0
36,60.0,240.0,180.0,1.0,0.0
37,39.0,0.0,180.0,1.0,0.0
38,63.0,0.0,180.0,1.0,0.0
39,63.0,0.0,180.0,0.0,0.0
40,54.0,0.0,180.0,1.0,0.0
41,41.0,240.0,180.0,1.0,0.0
42,58.0,0.0,180.0,1.0,0.0
43,61.0,0.0,180.0,0.0,0.0
44,53.0,0.0,180.0,1.0,0.0
45,61.0,0.0,180.0,1.0,0.0
46,41.0,0.0,180.0,1.0,0.0
47,53.0,0.0,180.0,1.0,0.0
48,51.0,624.0,180.0,1.0,0.0
49,57.0,0.0,180.0,1.0,0.0
50,60.0,0.0,180.0,0.0,0.0
51,60.0,0.0,180.0,1.0,0.0
52,58.0,0.0,570.0,1.0,0.0
53,53.0,0.0,570.0,1.0,0.0
54,49.0,0.0,570.0,1.0,0.0
55,61.0,0.0,570.0,0.0,0.0
56,46.0,336.0,570.0,1.0,0.0
57,63.0,432.0,180.0,1.0,0.0
58,54.0,0.0,180.0,1.0,0.0
59,46.0,0.0,180.0,1.0,0.0
60,60.0,0.0,180.0,1.0,0.0
61,63.0,0.0,180.0,0.0,0.0
62,61.0,0.0,390.0,1.0,0.0
63,65.0,0.0,390.0,0.0,0.0
64,65.0,0.0,390.0,1.0,0.0
65,46.0,288.0,390.0,1.0,0.0
66,53.0,0.0,390.0,1.0,0.0
67,56.0,240.0,180.0,1.0,0.0
68,70.0,0.0,180.0,0.0,0.0
69,62.0,0.0,180.0,1.0,0.0
70,70.0,0.0,180.0,1.0,0.0
71,46.0,0.0,180.0,1.0,0.0
72,53.0,0.0,180.0,1.0,0.0
73,62.0,0.0,180.0,1.0,0.0
74,68.0,240.0,180.0,0.0,0.0
75,46.0,0.0,180.0,1.0,0.0
76,68.0,0.0,180.0,1.0,0.0
77,56.0,0.0,180.0,1.0,0.0
78,68.0,192.0,180.0,0.0,0.0
79,58.0,0.0,390.0,1.0,0.0
80,63.0,0.0,390.0,1.0,0.0
81,66.0,0.0,390.0,1.0,0.0
82,51.0,48.0,390.0,1.0,0.0
83,66.0,240.0,180.0,0.0,0.0
84,65.0,0.0,180.0,1.0,0.0
85,65.0,240.0,180.0,0.0,0.0
86,46.0,0.0,180.0,1.0,0.0
87,58.0,0.0,180.0,1.0,0.0
88,61.0,0.0,180.0,1.0,0.0
89,51.0,0.0,180.0,1.0,0.0
90,63.0,240.0,180.0,1.0,0.0
91,58.0,0.0,180.0,1.0,0.0
92,66.0,0.0,180.0,0.0,0.0
93,66.0,0.0,180.0,1.0,0.0
94,58.0,0.0,390.0,1.0,0.0
95,61.0,0.0,390.0,1.0,0.0
96,65.0,144.0,180.0,0.0,0.0
97,65.0,72.0,390.0,1.0,0.0
98,46.0,0.0,390.0,1.0,0.0
99,63.0,48.0,90.0,0.0,0.0
100,61.0,216.0,90.0,0.0,0.0
101,39.0,0.0,180.0,1.0,0.0
102,60.0,192.0,180.0,0.0,0.0
103,54.0,0.0,180.0,1.0,0.0
104,60.0,48.0,390.0,1.0,0.0
105,58.0,0.0,180.0,1.0,0.0
106,61.0,0.0,180.0,0.0,0.0
107,41.0,0.0,180.0,1.0,0.0
108,57.0,240.0,180.0,1.0,0.0
109,51.0,0.0,180.0,1.0,0.0
110,58.0,144.0,180.0,0.0,0.0
111,34.0,0.0,570.0,1.0,0.0
112,53.0,0.0,570.0,1.0,0.0
113,49.0,0.0,570.0,1.0,0.0
114,58.0,288.0,570.0,1.0,0.0
115,61.0,120.0,90.0,0.0,0.0
116,60.0,120.0,90.0,0.0,0.0
117,58.0,288.0,390.0,0.0,0.0
118,60.0,0.0,390.0,0.0,0.0
119,54.0,0.0,180.0,1.0,0.0
120,44.0,48.0,390.0,1.0,0.0
121,60.0,192.0,180.0,1.0,0.0
122,56.0,240.0,180.0,1.0,0.0
123,61.0,0.0,180.0,1.0,0.0
124,61.0,192.0,180.0,0.0,0.0
125,53.0,0.0,180.0,1.0,0.0
126,37.0,48.0,390.0,1.0,0.0
127,61.0,240.0,180.0,0.0,0.0
128,56.0,0.0,180.0,1.0,0.0
129,44.0,48.0,390.0,1.0,0.0
130,63.0,0.0,180.0,1.0,0.0
131,60.0,0.0,180.0,1.0,0.0
132,54.0,0.0,180.0,1.0,0.0
133,63.0,144.0,180.0,0.0,0.0
134,61.0,48.0,90.0,0.0,0.0
135,56.0,24.0,180.0,1.0,0.0
136,63.0,216.0,90.0,0.0,0.0
137,65.0,0.0,180.0,0.0,0.0
138,49.0,48.0,390.0,1.0,0.0
139,53.0,192.0,180.0,1.0,0.0
140,61.0,0.0,180.0,1.0,0.0
141,65.0,0.0,390.0,1.0,0.0
142,37.0,0.0,390.0,1.0,0.0
143,59.0,144.0,180.0,1.0,0.0
144,66.0,0.0,390.0,1.0,0.0
145,42.0,0.0,390.0,1.0,0.0
146,58.0,72.0,390.0,1.0,0.0
147,49.0,0.0,390.0,1.0,0.0
148,66.0,216.0,90.0,0.0,0.0
149,65.0,72.0,180.0,0.0,0.0
150,63.0,216.0,90.0,0.0,0.0
151,58.0,240.0,180.0,1.0,0.0
152,61.0,0.0,180.0,1.0,0.0
153,42.0,0.0,180.0,1.0,0.0
154,49.0,0.0,180.0,1.0,0.0
155,61.0,0.0,180.0,0.0,0.0
156,63.0,432.0,180.0,1.0,0.0
157,57.0,0.0,180.0,1.0,0.0
158,63.0,0.0,180.0,0.0,0.0
159,42.0,0.0,180.0,1.0,0.0
160,49.0,0.0,180.0,1.0,0.0
161,49.0,144.0,780.0,1.0,0.0
162,37.0,0.0,780.0,1.0,0.0
163,65.0,0.0,390.0,1.0,0.0
164,65.0,288.0,390.0,0.0,0.0
165,56.0,0.0,390.0,1.0,0.0
166,65.0,0.0,180.0,0.0,0.0
167,53.0,96.0,180.0,1.0,0.0
168,61.0,0.0,180.0,1.0,0.0
169,56.0,240.0,180.0,1.0,0.0
170,51.0,192.0,180.0,1.0,0.0
171,41.0,0.0,390.0,1.0,0.0
172,57.0,0.0,180.0,1.0,0.0
173,57.0,48.0,390.0,0.0,0.0
174,53.0,240.0,180.0,1.0,0.0
175,58.0,192.0,180.0,1.0,0.0
176,46.0,48.0,390.0,1.0,0.0
177,49.0,0.0,180.0,1.0,0.0
178,58.0,0.0,180.0,0.0,0.0
179,58.0,240.0,180.0,0.0,0.0
180,53.0,0.0,180.0,1.0,0.0
181,51.0,0.0,180.0,1.0,0.0
182,57.0,144.0,180.0,1.0,0.0
183,60.0,0.0,180.0,1.0,0.0
184,60.0,0.0,180.0,0.0,0.0
185,41.0,48.0,390.0,1.0,0.0
186,53.0,24.0,180.0,1.0,0.0
187,58.0,48.0,90.0,0.0,0.0
188,60.0,216.0,90.0,0.0,0.0
189,61.0,0.0,180.0,1.0,0.0
190,58.0,0.0,180.0,1.0,0.0
191,49.0,192.0,180.0,1.0,0.0
192,46.0,48.0,390.0,1.0,0.0
193,61.0,0.0,180.0,0.0,0.0
194,34.0,0.0,390.0,1.0,0.0
195,53.0,144.0,180.0,1.0,0.0
196,60.0,0.0,390.0,1.0,0.0
197,54.0,72.0,390.0,1.0,0.0
198,51.0,0.0,390.0,1.0,0.0
199,65.0,216.0,90.0,0.0,0.0
200,39.0,0.0,390.0,1.0,0.0
201,63.0,72.0,180.0,0.0,0.0
202,61.0,216.0,90.0,0.0,0.0
203,51.0,0.0,180.0,1.0,0.0
204,48.0,0.0,180.0,1.0,0.0
205,41.0,0.0,180.0,1.0,0.0
206,60.0,0.0,180.0,0.0,0.0
207,57.0,240.0,180.0,1.0,0.0
208,61.0,0.0,180.0,0.0,0.0
209,57.0,240.0,180.0,1.0,0.0
210,48.0,0.0,180.0,1.0,0.0
211,41.0,0.0,180.0,1.0,0.0
212,51.0,0.0,180.0,1.0,0.0
213,58.0,192.0,180.0,1.0,0.0
214,49.0,0.0,180.0,1.0,0.0
215,34.0,48.0,390.0,1.0,0.0
216,58.0,0.0,390.0,0.0,0.0
217,61.0,240.0,180.0,1.0,0.0
218,53.0,0.0,180.0,1.0,0.0
219,49.0,0.0,390.0,1.0,0.0
220,70.0,192.0,180.0,0.0,0.0
221,46.0,480.0,390.0,1.0,0.0
222,58.0,0.0,390.0,1.0,0.0
223,65.0,0.0,390.0,0.0,0.0
224,65.0,0.0,390.0,1.0,0.0
225,53.0,288.0,390.0,1.0,0.0
226,46.0,0.0,390.0,1.0,0.0
227,58.0,0.0,390.0,1.0,0.0
228,61.0,0.0,390.0,1.0,0.0
229,65.0,0.0,180.0,0.0,0.0
230,58.0,0.0,180.0,1.0,0.0
231,61.0,0.0,180.0,1.0,0.0
232,65.0,0.0,180.0,1.0,0.0
233,46.0,240.0,180.0,1.0,0.0
234,53.0,0.0,180.0,1.0,0.0
235,63.0,432.0,180.0,0.0,0.0
236,60.0,0.0,180.0,1.0,0.0
237,63.0,0.0,180.0,1.0,0.0
238,58.0,0.0,180.0,1.0,0.0
239,46.0,0.0,180.0,1.0,0.0
240,53.0,0.0,180.0,1.0,0.0
241,65.0,0.0,390.0,0.0,0.0
242,53.0,0.0,390.0,1.0,0.0
243,61.0,0.0,390.0,1.0,0.0
244,58.0,0.0,390.0,1.0,0.0
245,65.0,0.0,390.0,1.0,0.0
246,46.0,288.0,390.0,1.0,0.0
247,66.0,192.0,180.0,0.0,0.0
248,51.0,0.0,390.0,1.0,0.0
249,58.0,0.0,390.0,1.0,0.0
250,63.0,0.0,390.0,1.0,0.0
251,66.0,0.0,390.0,1.0,0.0
252,39.0,48.0,390.0,1.0,0.0
253,66.0,240.0,180.0,0.0,0.0
254,65.0,240.0,180.0,1.0,0.0
255,58.0,0.0,180.0,1.0,0.0
256,37.0,0.0,180.0,1.0,0.0
257,53.0,0.0,180.0,1.0,0.0
258,65.0,0.0,180.0,0.0,0.0
259,39.0,0.0,180.0,1.0,0.0
260,54.0,0.0,180.0,1.0,0.0
261,63.0,0.0,180.0,0.0,0.0
262,63.0,0.0,180.0,1.0,0.0
263,60.0,240.0,180.0,1.0,0.0
264,53.0,0.0,180.0,1.0,0.0
265,41.0,0.0,180.0,1.0,0.0
266,61.0,240.0,180.0,0.0,0.0
267,61.0,0.0,180.0,1.0,0.0
268,58.0,0.0,180.0,1.0,0.0
269,60.0,0.0,180.0,0.0,0.0
270,57.0,0.0,180.0,1.0,0.0
271,60.0,0.0,180.0,1.0,0.0
272,51.0,624.0,180.0,1.0,0.0
273,53.0,0.0,180.0,1.0,0.0
274,41.0,0.0,180.0,1.0,0.0
275,61.0,336.0,570.0,0.0,0.0
276,53.0,0.0,570.0,1.0,0.0
277,58.0,0.0,570.0,1.0,0.0
278,49.0,0.0,570.0,1.0,0.0
279,46.0,0.0,570.0,1.0,0.0
280,46.0,0.0,180.0,1.0,0.0
281,54.0,0.0,180.0,1.0,0.0
282,63.0,0.0,180.0,1.0,0.0
283,60.0,432.0,180.0,1.0,0.0
284,63.0,0.0,180.0,0.0,0.0
285,65.0,0.0,390.0,0.0,0.0
286,61.0,0.0,390.0,1.0,0.0
287,65.0,288.0,390.0,1.0,0.0
288,46.0,0.0,390.0,1.0,0.0
289,53.0,0.0,390.0,1.0,0.0
290,53.0,0.0,180.0,1.0,0.0
291,70.0,0.0,180.0,0.0,0.0
292,56.0,0.0,180.0,1.0,0.0
293,62.0,0.0,180.0,1.0,0.0
294,46.0,0.0,180.0,1.0,0.0
295,70.0,240.0,180.0,1.0,0.0
296,46.0,240.0,180.0,1.0,0.0
297,62.0,0.0,180.0,1.0,0.0
298,68.0,0.0,180.0,1.0,0.0
299,68.0,0.0,180.0,0.0,0.0
300,56.0,0.0,180.0,1.0,0.0
301,68.0,192.0,180.0,0.0,0.0
302,58.0,0.0,390.0,1.0,0.0
303,66.0,0.0,390.0,1.0,0.0
304,63.0,0.0,390.0,1.0,0.0
305,51.0,48.0,390.0,1.0,0.0
306,66.0,240.0,180.0,0.0,0.0
307,65.0,0.0,180.0,0.0,0.0
308,46.0,0.0,180.0,1.0,0.0
309,58.0,0.0,180.0,1.0,0.0
310,65.0,0.0,180.0,1.0,0.0
311,61.0,240.0,180.0,1.0,0.0
312,66.0,0.0,180.0,1.0,0.0
313,58.0,240.0,180.0,1.0,0.0
314,63.0,0.0,180.0,1.0,0.0
315,51.0,0.0,180.0,1.0,0.0
316,66.0,0.0,180.0,0.0,0.0
317,61.0,0.0,390.0,1.0,0.0
318,46.0,0.0,390.0,1.0,0.0
319,65.0,144.0,180.0,0.0,0.0
320,58.0,0.0,390.0,1.0,0.0
321,65.0,72.0,390.0,1.0,0.0
322,63.0,48.0,90.0,0.0,0.0
323,61.0,216.0,90.0,0.0,0.0
324,60.0,0.0,180.0,0.0,0.0
325,58.0,0.0,180.0,1.0,0.0
326,54.0,192.0,180.0,1.0,0.0
327,60.0,48.0,390.0,1.0,0.0
328,39.0,0.0,180.0,1.0,0.0
329,61.0,0.0,180.0,0.0,0.0
330,41.0,0.0,180.0,1.0,0.0
331,57.0,240.0,180.0,1.0,0.0
332,51.0,0.0,180.0,1.0,0.0
333,49.0,0.0,570.0,1.0,0.0
334,34.0,288.0,570.0,1.0,0.0
335,58.0,0.0,570.0,1.0,0.0
336,58.0,144.0,180.0,0.0,0.0
337,53.0,0.0,570.0,1.0,0.0
338,61.0,120.0,90.0,0.0,0.0
339,60.0,120.0,90.0,0.0,0.0
340,58.0,288.0,390.0,0.0,0.0
341,60.0,0.0,390.0,0.0,0.0
342,54.0,0.0,180.0,1.0,0.0
343,60.0,192.0,180.0,1.0,0.0
344,44.0,48.0,390.0,1.0,0.0
345,56.0,240.0,180.0,1.0,0.0
346,61.0,0.0,180.0,1.0,0.0
347,37.0,48.0,390.0,1.0,0.0
348,61.0,192.0,180.0,0.0,0.0
349,53.0,0.0,180.0,1.0,0.0
350,61.0,240.0,180.0,0.0,0.0
351,56.0,0.0,180.0,1.0,0.0
352,63.0,144.0,180.0,0.0,0.0
353,44.0,48.0,390.0,1.0,0.0
354,63.0,0.0,180.0,1.0,0.0
355,60.0,0.0,180.0,1.0,0.0
356,54.0,0.0,180.0,1.0,0.0
357,61.0,48.0,90.0,0.0,0.0
358,56.0,24.0,180.0,1.0,0.0
359,63.0,216.0,90.0,0.0,0.0
360,37.0,0.0,390.0,1.0,0.0
361,65.0,48.0,390.0,1.0,0.0
362,61.0,192.0,180.0,1.0,0.0
363,53.0,0.0,180.0,1.0,0.0
364,49.0,0.0,390.0,1.0,0.0
365,65.0,0.0,180.0,0.0,0.0
366,59.0,144.0,180.0,1.0,0.0
367,49.0,0.0,390.0,1.0,0.0
368,42.0,0.0,390.0,1.0,0.0
369,58.0,0.0,390.0,1.0,0.0
370,66.0,72.0,390.0,1.0,0.0
371,66.0,216.0,90.0,0.0,0.0
372,65.0,72.0,180.0,0.0,0.0
373,63.0,216.0,90.0,0.0,0.0
374,61.0,0.0,180.0,1.0,0.0
375,61.0,0.0,180.0,0.0,0.0
376,58.0,0.0,180.0,1.0,0.0
377,49.0,240.0,180.0,1.0,0.0
378,42.0,0.0,180.0,1.0,0.0
379,57.0,0.0,180.0,1.0,0.0
380,42.0,0.0,180.0,1.0,0.0
381,49.0,432.0,180.0,1.0,0.0
382,63.0,0.0,180.0,0.0,0.0
383,63.0,0.0,180.0,1.0,0.0
384,49.0,144.0,780.0,1.0,0.0
385,65.0,288.0,390.0,0.0,0.0
386,65.0,0.0,390.0,1.0,0.0
387,37.0,0.0,780.0,1.0,0.0
388,56.0,0.0,390.0,1.0,0.0
389,65.0,96.0,180.0,0.0,0.0
390,53.0,0.0,180.0,1.0,0.0
391,61.0,0.0,180.0,1.0,0.0
392,56.0,240.0,180.0,1.0,0.0
393,41.0,48.0,390.0,1.0,0.0
394,57.0,192.0,180.0,1.0,0.0
395,51.0,0.0,180.0,1.0,0.0
396,57.0,0.0,390.0,0.0,0.0
397,53.0,240.0,180.0,1.0,0.0
398,49.0,192.0,180.0,1.0,0.0
399,58.0,0.0,180.0,1.0,0.0
400,58.0,0.0,180.0,0.0,0.0
401,46.0,48.0,390.0,1.0,0.0
402,58.0,240.0,180.0,0.0,0.0
403,53.0,0.0,180.0,1.0,0.0
404,60.0,144.0,180.0,0.0,0.0
405,60.0,0.0,180.0,1.0,0.0
406,57.0,0.0,180.0,1.0,0.0
407,51.0,0.0,180.0,1.0,0.0
408,41.0,48.0,390.0,1.0,0.0
409,58.0,48.0,90.0,0.0,0.0
410,53.0,24.0,180.0,1.0,0.0
411,60.0,216.0,90.0,0.0,0.0
412,61.0,0.0,180.0,1.0,0.0
413,58.0,192.0,180.0,1.0,0.0
414,49.0,0.0,180.0,1.0,0.0
415,46.0,0.0,390.0,1.0,0.0
416,61.0,0.0,180.0,0.0,0.0
417,34.0,48.0,390.0,1.0,0.0
418,53.0,144.0,180.0,1.0,0.0
419,51.0,72.0,390.0,1.0,0.0
420,54.0,0.0,390.0,1.0,0.0
421,60.0,0.0,390.0,1.0,0.0
422,65.0,216.0,90.0,0.0,0.0
423,39.0,0.0,390.0,1.0,0.0
424,63.0,72.0,180.0,0.0,0.0
425,61.0,216.0,90.0,0.0,0.0
426,60.0,240.0,180.0,0.0,0.0
427,57.0,0.0,180.0,1.0,0.0
428,51.0,0.0,180.0,1.0,0.0
429,48.0,0.0,180.0,1.0,0.0
430,41.0,0.0,180.0,1.0,0.0
431,48.0,0.0,180.0,1.0,0.0
432,61.0,0.0,180.0,0.0,0.0
433,57.0,240.0,180.0,1.0,0.0
434,51.0,0.0,180.0,1.0,0.0
435,41.0,0.0,180.0,1.0,0.0
436,58.0,192.0,180.0,1.0,0.0
437,49.0,0.0,180.0,1.0,0.0
438,58.0,48.0,390.0,0.0,0.0
439,34.0,0.0,390.0,1.0,0.0
440,61.0,0.0,180.0,1.0,0.0
441,53.0,240.0,180.0,1.0,0.0
442,46.0,480.0,390.0,1.0,0.0
443,49.0,0.0,390.0,1.0,0.0
444,58.0,0.0,390.0,1.0,0.0
445,70.0,192.0,180.0,0.0,0.0
446,65.0,0.0,390.0,1.0,0.0
447,61.0,0.0,390.0,1.0,0.0
448,53.0,0.0,390.0,1.0,0.0
449,46.0,0.0,390.0,1.0,0.0
450,65.0,288.0,390.0,0.0,0.0
451,58.0,0.0,390.0,1.0,0.0
452,65.0,0.0,180.0,0.0,0.0
453,58.0,0.0,180.0,1.0,0.0
454,61.0,0.0,180.0,1.0,0.0
455,65.0,0.0,180.0,1.0,0.0
456,46.0,240.0,180.0,1.0,0.0
457,53.0,0.0,180.0,1.0,0.0
458,53.0,0.0,180.0,1.0,0.0
459,63.0,0.0,180.0,0.0,0.0
460,60.0,432.0,180.0,1.0,0.0
461,63.0,0.0,180.0,1.0,0.0
462,58.0,0.0,180.0,1.0,0.0
463,46.0,0.0,180.0,1.0,0.0
464,46.0,288.0,390.0,1.0,0.0
465,61.0,0.0,390.0,1.0,0.0
466,65.0,0.0,390.0,1.0,0.0
467,65.0,0.0,390.0,0.0,0.0
468,53.0,0.0,390.0,1.0,0.0
469,58.0,0.0,390.0,1.0,0.0
470,39.0,0.0,390.0,1.0,0.0
471,58.0,0.0,390.0,1.0,0.0
472,66.0,48.0,390.0,1.0,0.0
473,63.0,0.0,390.0,1.0,0.0
474,51.0,0.0,390.0,1.0,0.0
475,66.0,192.0,180.0,0.0,0.0
476,66.0,240.0,180.0,0.0,0.0
477,37.0,0.0,180.0,1.0,0.0
478,58.0,0.0,180.0,1.0,0.0
479,65.0,240.0,180.0,1.0,0.0
480,53.0,0.0,180.0,1.0,0.0
481,65.0,0.0,180.0,0.0,0.0
482,63.0,0.0,180.0,1.0,0.0
483,39.0,0.0,180.0,1.0,0.0
484,54.0,0.0,180.0,1.0,0.0
485,63.0,0.0,180.0,0.0,0.0
486,60.0,240.0,180.0,1.0,0.0
487,53.0,0.0,180.0,1.0,0.0
488,41.0,0.0,180.0,1.0,0.0
489,58.0,0.0,180.0,1.0,0.0
490,61.0,240.0,180.0,1.0,0.0
491,61.0,0.0,180.0,0.0,0.0
492,51.0,0.0,180.0,1.0,0.0
493,57.0,0.0,180.0,1.0,0.0
494,41.0,0.0,180.0,1.0,0.0
495,53.0,0.0,180.0,1.0,0.0
496,60.0,0.0,180.0,1.0,0.0
497,60.0,624.0,180.0,0.0,0.0
498,49.0,0.0,570.0,1.0,0.0
499,58.0,0.0,570.0,1.0,0.0
500,61.0,336.0,570.0,0.0,0.0
501,46.0,0.0,570.0,1.0,0.0
502,53.0,0.0,570.0,1.0,0.0
503,63.0,0.0,180.0,1.0,0.0
504,54.0,0.0,180.0,1.0,0.0
505,60.0,0.0,180.0,1.0,0.0
506,63.0,0.0,180.0,0.0,0.0
507,46.0,432.0,180.0,1.0,0.0
508,61.0,0.0,390.0,1.0,0.0
509,65.0,0.0,390.0,1.0,0.0
510,53.0,0.0,390.0,1.0,0.0
511,46.0,0.0,390.0,1.0,0.0
512,65.0,288.0,390.0,0.0,0.0
513,46.0,0.0,180.0,1.0,0.0
514,70.0,240.0,180.0,0.0,0.0
515,53.0,0.0,180.0,1.0,0.0
516,70.0,0.0,180.0,1.0,0.0
517,56.0,0.0,180.0,1.0,0.0
518,62.0,0.0,180.0,1.0,0.0
519,68.0,240.0,180.0,1.0,0.0
520,68.0,0.0,180.0,0.0,0.0
521,56.0,0.0,180.0,1.0,0.0
522,62.0,0.0,180.0,1.0,0.0
523,46.0,0.0,180.0,1.0,0.0
524,63.0,48.0,390.0,1.0,0.0
525,66.0,0.0,390.0,1.0,0.0
526,51.0,0.0,390.0,1.0,0.0
527,68.0,192.0,180.0,0.0,0.0
528,58.0,0.0,390.0,1.0,0.0
529,66.0,240.0,180.0,0.0,0.0
530,58.0,0.0,180.0,1.0,0.0
531,65.0,0.0,180.0,0.0,0.0
532,61.0,240.0,180.0,1.0,0.0
533,65.0,0.0,180.0,1.0,0.0
534,46.0,0.0,180.0,1.0,0.0
535,66.0,0.0,180.0,1.0,0.0
536,58.0,0.0,180.0,1.0,0.0
537,63.0,0.0,180.0,1.0,0.0
538,51.0,240.0,180.0,1.0,0.0
539,66.0,0.0,180.0,0.0,0.0
540,65.0,144.0,180.0,0.0,0.0
541,46.0,0.0,390.0,1.0,0.0
542,58.0,0.0,390.0,1.0,0.0
543,61.0,72.0,390.0,1.0,0.0
544,65.0,0.0,390.0,1.0,0.0
545,63.0,48.0,90.0,0.0,0.0
546,61.0,216.0,90.0,0.0,0.0
547,39.0,192.0,180.0,1.0,0.0
548,54.0,0.0,180.0,1.0,0.0
549,60.0,48.0,390.0,1.0,0.0
550,60.0,0.0,180.0,0.0,0.0
551,58.0,0.0,180.0,1.0,0.0
552,51.0,240.0,180.0,1.0,0.0
553,57.0,0.0,180.0,1.0,0.0
554,41.0,0.0,180.0,1.0,0.0
555,61.0,0.0,180.0,0.0,0.0
556,58.0,144.0,180.0,0.0,0.0
557,58.0,288.0,570.0,1.0,0.0
558,34.0,0.0,570.0,1.0,0.0
559,49.0,0.0,570.0,1.0,0.0
560,53.0,0.0,570.0,1.0,0.0
561,61.0,120.0,90.0,0.0,0.0
562,60.0,120.0,90.0,0.0,0.0
563,58.0,288.0,390.0,0.0,0.0
564,54.0,192.0,180.0,1.0,0.0
565,60.0,0.0,180.0,1.0,0.0
566,60.0,0.0,390.0,0.0,0.0
567,44.0,48.0,390.0,1.0,0.0
568,56.0,240.0,180.0,1.0,0.0
569,37.0,48.0,390.0,1.0,0.0
570,53.0,192.0,180.0,1.0,0.0
571,61.0,0.0,180.0,1.0,0.0
572,61.0,0.0,180.0,0.0,0.0
573,56.0,0.0,180.0,1.0,0.0
574,61.0,240.0,180.0,0.0,0.0
575,63.0,0.0,180.0,1.0,0.0
576,44.0,48.0,390.0,1.0,0.0
577,60.0,0.0,180.0,1.0,0.0
578,54.0,0.0,180.0,1.0,0.0
579,63.0,144.0,180.0,0.0,0.0
580,61.0,48.0,90.0,0.0,0.0
581,56.0,24.0,180.0,1.0,0.0
582,63.0,216.0,90.0,0.0,0.0
583,65.0,0.0,180.0,0.0,0.0
584,37.0,48.0,390.0,1.0,0.0
585,65.0,0.0,390.0,1.0,0.0
586,61.0,0.0,180.0,1.0,0.0
587,53.0,192.0,180.0,1.0,0.0
588,49.0,0.0,390.0,1.0,0.0
589,59.0,144.0,180.0,1.0,0.0
590,66.0,216.0,90.0,0.0,0.0
591,66.0,72.0,390.0,1.0,0.0
592,58.0,0.0,390.0,1.0,0.0
593,42.0,0.0,390.0,1.0,0.0
594,49.0,0.0,390.0,1.0,0.0
595,65.0,72.0,180.0,0.0,0.0
596,63.0,216.0,90.0,0.0,0.0
597,61.0,0.0,180.0,1.0,0.0
598,58.0,240.0,180.0,1.0,0.0
599,61.0,0.0,180.0,0.0,0.0
600,49.0,0.0,180.0,1.0,0.0
601,42.0,0.0,180.0,1.0,0.0
602,63.0,0.0,180.0,0.0,0.0
603,57.0,0.0,180.0,1.0,0.0
604,63.0,0.0,180.0,1.0,0.0
605,42.0,432.0,180.0,1.0,0.0
606,49.0,0.0,180.0,1.0,0.0
607,49.0,144.0,780.0,1.0,0.0
608,37.0,0.0,780.0,1.0,0.0
609,65.0,288.0,390.0,1.0,0.0
610,56.0,0.0,390.0,1.0,0.0
611,65.0,0.0,390.0,0.0,0.0
612,65.0,96.0,180.0,0.0,0.0
613,61.0,0.0,180.0,1.0,0.0
614,53.0,0.0,180.0,1.0,0.0
615,56.0,240.0,180.0,1.0,0.0
616,51.0,192.0,180.0,1.0,0.0
617,41.0,0.0,390.0,1.0,0.0
618,57.0,48.0,390.0,0.0,0.0
619,57.0,0.0,180.0,1.0,0.0
620,53.0,240.0,180.0,1.0,0.0
621,58.0,192.0,180.0,0.0,0.0
622,49.0,0.0,180.0,1.0,0.0
623,58.0,0.0,180.0,1.0,0.0
624,46.0,48.0,390.0,1.0,0.0
625,58.0,240.0,180.0,0.0,0.0
626,53.0,0.0,180.0,1.0,0.0
627,60.0,0.0,180.0,0.0,0.0
628,57.0,0.0,180.0,1.0,0.0
629,60.0,144.0,180.0,1.0,0.0
630,41.0,48.0,390.0,1.0,0.0
631,51.0,0.0,180.0,1.0,0.0
632,53.0,24.0,180.0,1.0,0.0
633,58.0,48.0,90.0,0.0,0.0
634,60.0,216.0,90.0,0.0,0.0
635,61.0,0.0,180.0,0.0,0.0
636,61.0,0.0,180.0,1.0,0.0
637,46.0,48.0,390.0,1.0,0.0
638,49.0,192.0,180.0,1.0,0.0
639,34.0,0.0,390.0,1.0,0.0
640,58.0,0.0,180.0,1.0,0.0
641,53.0,144.0,180.0,1.0,0.0
642,65.0,216.0,90.0,0.0,0.0
643,54.0,0.0,390.0,1.0,0.0
644,51.0,0.0,390.0,1.0,0.0
645,60.0,0.0,390.0,1.0,0.0
646,39.0,72.0,390.0,1.0,0.0
647,63.0,72.0,180.0,0.0,0.0
648,61.0,216.0,90.0,0.0,0.0
649,48.0,0.0,180.0,1.0,0.0
650,41.0,240.0,180.0,1.0,0.0
651,57.0,0.0,180.0,1.0,0.0
652,51.0,0.0,180.0,1.0,0.0
653,60.0,0.0,180.0,0.0,0.0
654,61.0,0.0,180.0,0.0,0.0
655,48.0,0.0,180.0,1.0,0.0
656,41.0,0.0,180.0,1.0,0.0
657,51.0,0.0,180.0,1.0,0.0
658,57.0,240.0,180.0,1.0,0.0
659,58.0,0.0,180.0,1.0,0.0
660,49.0,192.0,180.0,1.0,0.0
661,58.0,0.0,390.0,0.0,0.0
662,34.0,48.0,390.0,1.0,0.0
663,53.0,0.0,180.0,1.0,0.0
664,61.0,240.0,180.0,1.0,0.0
665,58.0,96.0,390.0,1.0,0.0
666,49.0,0.0,390.0,1.0,0.0
667,46.0,0.0,390.0,1.0,0.0
668,70.0,192.0,180.0,0.0,0.0
