,note,step,duration,channel,velocity
0,60.0,249.0,1140.0,2.0,0.0
1,62.0,598.0,360.0,2.0,0.0
2,64.0,562.0,660.0,2.0,0.0
3,65.0,196.0,600.0,2.0,0.0
4,67.0,1307.0,270.0,2.0,0.0
5,69.0,37.0,1680.0,2.0,0.0
6,65.0,239.0,1080.0,3.0,0.0
7,59.0,314.0,720.0,4.0,0.0
8,60.0,328.0,2040.0,4.0,0.0
9,67.0,278.0,330.0,2.0,0.0
10,64.0,11.0,330.0,3.0,0.0
11,69.0,26.0,330.0,2.0,0.0
12,65.0,334.0,330.0,3.0,0.0
13,67.0,716.0,420.0,2.0,0.0
14,64.0,31.0,360.0,3.0,0.0
15,62.0,36.0,2040.0,3.0,0.0
16,65.0,296.0,4620.0,2.0,0.0
17,43.0,292.0,1110.0,5.0,0.0
18,59.0,11.0,390.0,4.0,0.0
19,45.0,640.0,420.0,5.0,0.0
20,57.0,4.0,360.0,4.0,0.0
21,47.0,544.0,750.0,5.0,0.0
22,55.0,38.0,4200.0,4.0,0.0
23,60.0,20.0,600.0,3.0,0.0
24,48.0,115.0,600.0,5.0,0.0
25,59.0,18.0,180.0,3.0,0.0
26,50.0,1389.0,150.0,5.0,0.0
27,59.0,22.0,1350.0,3.0,0.0
28,50.0,417.0,1380.0,5.0,0.0
29,60.0,1.0,1320.0,3.0,0.0
30,48.0,615.0,1500.0,5.0,0.0
31,64.0,344.0,390.0,2.0,0.0
32,65.0,191.0,390.0,2.0,0.0
33,64.0,134.0,240.0,2.0,0.0
34,55.0,7.0,150.0,3.0,0.0
35,64.0,60.0,180.0,2.0,0.0
36,62.0,13.0,780.0,2.0,0.0
37,53.0,705.0,780.0,3.0,0.0
38,43.0,33.0,660.0,5.0,0.0
39,59.0,22.0,690.0,4.0,0.0
40,52.0,2.0,750.0,3.0,0.0
41,60.0,17.0,750.0,4.0,0.0
42,60.0,123.0,750.0,2.0,0.0
43,36.0,2540.0,840.0,5.0,0.0
44,57.0,364.0,1140.0,2.0,0.0
45,59.0,609.0,420.0,2.0,0.0
46,60.0,510.0,660.0,2.0,0.0
47,62.0,196.0,570.0,2.0,0.0
48,64.0,1623.0,210.0,2.0,0.0
49,65.0,233.0,1980.0,2.0,0.0
50,56.0,282.0,870.0,4.0,0.0
51,62.0,47.0,1140.0,3.0,0.0
52,57.0,315.0,2040.0,4.0,0.0
53,60.0,241.0,360.0,3.0,0.0
54,64.0,18.0,300.0,2.0,0.0
55,65.0,317.0,360.0,2.0,0.0
56,62.0,87.0,270.0,3.0,0.0
57,64.0,40.0,420.0,2.0,0.0
58,60.0,621.0,450.0,3.0,0.0
59,62.0,320.0,4620.0,2.0,0.0
60,59.0,420.0,2160.0,3.0,0.0
61,40.0,46.0,990.0,5.0,0.0
62,56.0,282.0,420.0,4.0,0.0
63,42.0,78.0,420.0,5.0,0.0
64,54.0,640.0,450.0,4.0,0.0
65,44.0,94.0,780.0,5.0,0.0
66,52.0,38.0,4020.0,4.0,0.0
67,45.0,140.0,630.0,5.0,0.0
68,57.0,60.0,540.0,3.0,0.0
69,56.0,1476.0,210.0,3.0,0.0
70,47.0,13.0,180.0,5.0,0.0
71,47.0,65.0,1440.0,5.0,0.0
72,56.0,260.0,1500.0,3.0,0.0
73,45.0,22.0,1380.0,5.0,0.0
74,57.0,22.0,1320.0,3.0,0.0
75,60.0,240.0,390.0,2.0,0.0
76,62.0,190.0,300.0,2.0,0.0
77,60.0,226.0,240.0,2.0,0.0
78,52.0,676.0,240.0,4.0,0.0
79,60.0,4.0,180.0,2.0,0.0
80,59.0,43.0,810.0,2.0,0.0
81,40.0,32.0,840.0,5.0,0.0
82,50.0,51.0,720.0,4.0,0.0
83,56.0,610.0,810.0,3.0,0.0
84,48.0,8.0,780.0,4.0,0.0
85,57.0,3727.0,780.0,2.0,0.0
86,41.0,74.0,690.0,5.0,0.0
87,57.0,31.0,720.0,3.0,0.0
88,57.0,53.0,2280.0,2.0,0.0
89,53.0,1968.0,2310.0,3.0,0.0
90,38.0,35.0,2190.0,5.0,0.0
91,50.0,452.0,4410.0,4.0,0.0
92,38.0,44.0,2160.0,6.0,0.0
93,59.0,99.0,2130.0,2.0,0.0
94,43.0,7.0,2100.0,5.0,0.0
95,55.0,104.0,2730.0,7.0,0.0
96,62.0,111.0,2640.0,7.0,0.0
97,55.0,33.0,2130.0,3.0,0.0
98,31.0,23.0,2160.0,6.0,0.0
99,67.0,381.0,840.0,0.0,0.0
100,60.0,14.0,210.0,7.0,0.0
101,52.0,82.0,210.0,7.0,0.0
102,52.0,14.0,900.0,0.0,0.0
103,48.0,18.0,1890.0,0.0,0.0
104,60.0,69.0,420.0,0.0,0.0
105,76.0,197.0,480.0,0.0,0.0
106,52.0,52.0,870.0,7.0,0.0
107,60.0,3.0,870.0,7.0,0.0
108,55.0,181.0,330.0,0.0,0.0
109,60.0,49.0,300.0,0.0,0.0
110,76.0,162.0,360.0,0.0,0.0
111,55.0,18.0,300.0,0.0,0.0
112,77.0,507.0,180.0,0.0,0.0
113,52.0,7.0,750.0,0.0,0.0
114,76.0,182.0,540.0,0.0,0.0
115,55.0,3.0,330.0,0.0,0.0
116,72.0,9.0,270.0,0.0,0.0
117,60.0,103.0,270.0,0.0,0.0
118,55.0,356.0,150.0,0.0,0.0
119,53.0,81.0,360.0,0.0,0.0
120,74.0,88.0,420.0,0.0,0.0
121,47.0,89.0,240.0,0.0,0.0
122,55.0,183.0,270.0,0.0,0.0
123,62.0,252.0,240.0,0.0,0.0
124,55.0,162.0,270.0,0.0,0.0
125,67.0,6.0,150.0,0.0,0.0
126,53.0,576.0,870.0,0.0,0.0
127,79.0,364.0,120.0,0.0,0.0
128,55.0,137.0,270.0,0.0,0.0
129,62.0,150.0,180.0,0.0,0.0
130,55.0,86.0,690.0,0.0,0.0
131,48.0,4.0,1860.0,0.0,0.0
132,76.0,38.0,360.0,0.0,0.0
133,64.0,2.0,330.0,0.0,0.0
134,60.0,133.0,180.0,0.0,0.0
135,55.0,30.0,240.0,0.0,0.0
136,76.0,98.0,150.0,0.0,0.0
137,64.0,44.0,90.0,0.0,0.0
138,57.0,107.0,60.0,0.0,0.0
139,77.0,8.0,30.0,0.0,0.0
140,65.0,370.0,60.0,0.0,0.0
141,55.0,33.0,300.0,0.0,0.0
142,76.0,5.0,270.0,0.0,0.0
143,64.0,3.0,240.0,0.0,0.0
144,60.0,290.0,60.0,0.0,0.0
145,53.0,180.0,180.0,0.0,0.0
146,62.0,30.0,120.0,0.0,0.0
147,74.0,25.0,90.0,0.0,0.0
148,52.0,16.0,90.0,0.0,0.0
149,60.0,16.0,60.0,0.0,0.0
150,72.0,474.0,90.0,0.0,0.0
151,43.0,54.0,390.0,0.0,0.0
152,62.0,135.0,210.0,0.0,0.0
153,67.0,14.0,300.0,0.0,0.0
154,72.0,153.0,300.0,0.0,0.0
155,74.0,3.0,240.0,0.0,0.0
156,50.0,54.0,240.0,0.0,0.0
157,55.0,207.0,60.0,0.0,0.0
158,60.0,207.0,30.0,0.0,0.0
159,59.0,37.0,90.0,0.0,0.0
160,62.0,24.0,90.0,0.0,0.0
161,67.0,116.0,60.0,0.0,0.0
162,71.0,1.0,20.0,0.0,0.0
163,43.0,312.0,180.0,0.0,0.0
164,74.0,56.0,30.0,0.0,0.0
165,50.0,74.0,210.0,0.0,0.0
166,55.0,37.0,60.0,0.0,0.0
167,69.0,242.0,120.0,0.0,0.0
168,65.0,42.0,60.0,0.0,0.0
169,59.0,301.0,30.0,0.0,0.0
170,60.0,19.0,120.0,0.0,0.0
171,64.0,21.0,120.0,0.0,0.0
172,67.0,138.0,60.0,0.0,0.0
173,36.0,74.0,330.0,0.0,0.0
174,76.0,192.0,30.0,0.0,0.0
175,48.0,330.0,30.0,0.0,0.0
176,55.0,48.0,630.0,0.0,0.0
177,76.0,278.0,120.0,0.0,0.0
178,58.0,3.0,390.0,0.0,0.0
179,77.0,192.0,90.0,0.0,0.0
180,60.0,298.0,270.0,0.0,0.0
181,76.0,49.0,210.0,0.0,0.0
182,55.0,88.0,330.0,0.0,0.0
183,58.0,74.0,360.0,0.0,0.0
184,72.0,87.0,150.0,0.0,0.0
185,74.0,56.0,90.0,0.0,0.0
186,72.0,49.0,60.0,0.0,0.0
187,71.0,21.0,60.0,0.0,0.0
188,72.0,72.0,90.0,0.0,0.0
189,48.0,35.0,180.0,0.0,0.0
190,74.0,21.0,90.0,0.0,0.0
191,76.0,82.0,60.0,0.0,0.0
192,77.0,152.0,60.0,0.0,0.0
193,79.0,516.0,150.0,0.0,0.0
194,41.0,57.0,570.0,0.0,0.0
195,81.0,97.0,2070.0,0.0,0.0
196,48.0,322.0,240.0,0.0,0.0
197,53.0,316.0,330.0,0.0,0.0
198,57.0,886.0,390.0,0.0,0.0
199,60.0,14.0,1110.0,0.0,0.0
200,57.0,937.0,810.0,0.0,0.0
201,65.0,46.0,270.0,0.0,0.0
202,57.0,164.0,150.0,0.0,0.0
203,38.0,74.0,90.0,0.0,0.0
204,65.0,54.0,60.0,0.0,0.0
205,69.0,74.0,60.0,0.0,0.0
206,77.0,642.0,30.0,0.0,0.0
207,45.0,61.0,660.0,0.0,0.0
208,50.0,138.0,270.0,0.0,0.0
209,53.0,17.0,300.0,0.0,0.0
210,59.0,36.0,120.0,0.0,0.0
211,65.0,89.0,120.0,0.0,0.0
212,43.0,69.0,420.0,0.0,0.0
213,74.0,280.0,90.0,0.0,0.0
214,50.0,37.0,210.0,0.0,0.0
215,55.0,110.0,60.0,0.0,0.0
216,74.0,98.0,150.0,0.0,0.0
217,59.0,102.0,30.0,0.0,0.0
218,76.0,246.0,30.0,0.0,0.0
219,45.0,29.0,150.0,0.0,0.0
220,72.0,106.0,210.0,0.0,0.0
221,64.0,44.0,150.0,0.0,0.0
222,60.0,13.0,120.0,0.0,0.0
223,60.0,29.0,30.0,0.0,0.0
224,52.0,257.0,60.0,0.0,0.0
225,57.0,66.0,120.0,0.0,0.0
226,65.0,34.0,90.0,0.0,0.0
227,38.0,7.0,120.0,0.0,0.0
228,69.0,122.0,60.0,0.0,0.0
229,77.0,556.0,60.0,0.0,0.0
230,45.0,30.0,570.0,0.0,0.0
231,50.0,96.0,270.0,0.0,0.0
232,53.0,133.0,150.0,0.0,0.0
233,57.0,409.0,90.0,0.0,0.0
234,50.0,13.0,360.0,0.0,0.0
235,59.0,80.0,120.0,0.0,0.0
236,65.0,129.0,150.0,0.0,0.0
237,69.0,128.0,210.0,0.0,0.0
238,43.0,100.0,390.0,0.0,0.0
239,74.0,53.0,240.0,0.0,0.0
240,50.0,51.0,240.0,0.0,0.0
241,55.0,35.0,60.0,0.0,0.0
242,74.0,77.0,210.0,0.0,0.0
243,71.0,80.0,120.0,0.0,0.0
244,67.0,28.0,90.0,0.0,0.0
245,76.0,5.0,60.0,0.0,0.0
246,59.0,11.0,30.0,0.0,0.0
247,65.0,442.0,60.0,0.0,0.0
248,60.0,76.0,270.0,0.0,0.0
249,48.0,441.0,1530.0,0.0,0.0
250,72.0,192.0,330.0,0.0,0.0
251,64.0,6.0,330.0,0.0,0.0
252,55.0,178.0,300.0,0.0,0.0
253,57.0,82.0,210.0,0.0,0.0
254,69.0,143.0,300.0,0.0,0.0
255,65.0,50.0,420.0,0.0,0.0
256,71.0,31.0,210.0,0.0,0.0
257,56.0,479.0,240.0,0.0,0.0
258,64.0,8.0,390.0,0.0,0.0
259,55.0,3.0,390.0,0.0,0.0
260,72.0,28.0,390.0,0.0,0.0
261,36.0,61.0,660.0,6.0,0.0
262,64.0,290.0,300.0,2.0,0.0
263,60.0,21.0,630.0,4.0,0.0
264,48.0,444.0,720.0,5.0,0.0
265,55.0,1.0,1140.0,3.0,0.0
266,66.0,47.0,300.0,2.0,0.0
267,47.0,250.0,720.0,5.0,0.0
268,67.0,17.0,600.0,2.0,0.0
269,35.0,49.0,630.0,6.0,0.0
270,62.0,14.0,660.0,4.0,0.0
271,52.0,53.0,390.0,3.0,0.0
272,60.0,102.0,750.0,2.0,0.0
273,33.0,48.0,690.0,6.0,0.0
274,45.0,1.0,690.0,5.0,0.0
275,52.0,196.0,360.0,4.0,0.0
276,54.0,9.0,390.0,3.0,0.0
277,50.0,69.0,300.0,4.0,0.0
278,59.0,75.0,1260.0,2.0,0.0
279,43.0,96.0,2190.0,5.0,0.0
280,31.0,215.0,1020.0,6.0,0.0
281,55.0,64.0,2520.0,3.0,0.0
282,50.0,12.0,1290.0,4.0,0.0
283,43.0,27.0,390.0,0.0,0.0
284,59.0,237.0,90.0,0.0,0.0
285,74.0,181.0,180.0,0.0,0.0
286,50.0,65.0,240.0,0.0,0.0
287,55.0,36.0,60.0,0.0,0.0
288,76.0,252.0,60.0,0.0,0.0
289,59.0,13.0,30.0,0.0,0.0
290,78.0,13.0,60.0,0.0,0.0
291,55.0,4.0,240.0,0.0,0.0
292,79.0,74.0,180.0,0.0,0.0
293,59.0,243.0,1080.0,4.0,0.0
294,67.0,94.0,2160.0,2.0,0.0
295,81.0,64.0,120.0,0.0,0.0
296,79.0,2.0,90.0,0.0,0.0
297,62.0,52.0,60.0,0.0,0.0
298,78.0,120.0,60.0,0.0,0.0
299,79.0,131.0,120.0,0.0,0.0
300,55.0,27.0,150.0,0.0,0.0
301,81.0,153.0,180.0,0.0,0.0
302,50.0,173.0,60.0,0.0,0.0
303,83.0,63.0,90.0,0.0,0.0
304,45.0,130.0,2160.0,5.0,0.0
305,52.0,109.0,2250.0,3.0,0.0
306,45.0,86.0,390.0,0.0,0.0
307,60.0,39.0,3210.0,4.0,0.0
308,83.0,264.0,420.0,0.0,0.0
309,52.0,110.0,420.0,0.0,0.0
310,55.0,167.0,270.0,0.0,0.0
311,60.0,155.0,210.0,0.0,0.0
312,55.0,275.0,240.0,0.0,0.0
313,64.0,32.0,2250.0,2.0,0.0
314,72.0,18.0,750.0,0.0,0.0
315,60.0,78.0,270.0,0.0,0.0
316,52.0,159.0,120.0,0.0,0.0
317,45.0,333.0,30.0,0.0,0.0
318,38.0,69.0,2040.0,5.0,0.0
319,38.0,52.0,330.0,0.0,0.0
320,72.0,60.0,240.0,0.0,0.0
321,54.0,164.0,2130.0,3.0,0.0
322,74.0,72.0,120.0,0.0,0.0
323,45.0,12.0,150.0,0.0,0.0
324,72.0,30.0,90.0,0.0,0.0
325,71.0,103.0,60.0,0.0,0.0
326,72.0,3.0,90.0,0.0,0.0
327,54.0,67.0,60.0,0.0,0.0
328,83.0,224.0,30.0,0.0,0.0
329,60.0,45.0,90.0,0.0,0.0
330,81.0,196.0,90.0,0.0,0.0
331,54.0,42.0,240.0,0.0,0.0
332,79.0,6.0,90.0,0.0,0.0
333,57.0,62.0,1050.0,4.0,0.0
334,62.0,101.0,570.0,2.0,0.0
335,78.0,37.0,30.0,0.0,0.0
336,79.0,12.0,30.0,0.0,0.0
337,78.0,78.0,60.0,0.0,0.0
338,60.0,6.0,480.0,0.0,0.0
339,76.0,119.0,60.0,0.0,0.0
340,78.0,138.0,60.0,0.0,0.0
341,54.0,29.0,270.0,0.0,0.0
342,79.0,48.0,180.0,0.0,0.0
343,60.0,4.0,960.0,2.0,0.0
344,50.0,144.0,60.0,0.0,0.0
345,81.0,71.0,90.0,0.0,0.0
346,43.0,39.0,360.0,0.0,0.0
347,43.0,74.0,1830.0,5.0,0.0
348,55.0,10.0,1890.0,3.0,0.0
349,81.0,101.0,330.0,0.0,0.0
350,50.0,53.0,1740.0,4.0,0.0
351,50.0,56.0,210.0,0.0,0.0
352,55.0,132.0,60.0,0.0,0.0
353,59.0,16.0,480.0,2.0,0.0
354,79.0,77.0,90.0,0.0,0.0
355,78.0,74.0,90.0,0.0,0.0
356,59.0,48.0,120.0,0.0,0.0
357,76.0,1.0,90.0,0.0,0.0
358,74.0,100.0,60.0,0.0,0.0
359,72.0,258.0,120.0,0.0,0.0
360,62.0,51.0,660.0,2.0,0.0
361,55.0,108.0,270.0,0.0,0.0
362,71.0,53.0,990.0,0.0,0.0
363,62.0,228.0,150.0,0.0,0.0
364,55.0,179.0,210.0,0.0,0.0
365,59.0,366.0,570.0,2.0,0.0
366,47.0,26.0,240.0,0.0,0.0
367,57.0,78.0,630.0,2.0,0.0
368,57.0,13.0,990.0,3.0,0.0
369,48.0,149.0,420.0,0.0,0.0
370,54.0,32.0,990.0,4.0,0.0
371,48.0,13.0,570.0,5.0,0.0
372,69.0,47.0,360.0,0.0,0.0
373,50.0,35.0,360.0,0.0,0.0
374,50.0,67.0,510.0,5.0,0.0
375,71.0,20.0,120.0,0.0,0.0
376,54.0,79.0,180.0,0.0,0.0
377,62.0,109.0,60.0,0.0,0.0
378,66.0,67.0,60.0,0.0,0.0
379,55.0,200.0,900.0,4.0,0.0
380,47.0,29.0,210.0,0.0,0.0
381,67.0,51.0,120.0,0.0,0.0
382,47.0,202.0,450.0,5.0,0.0
383,59.0,48.0,1740.0,3.0,0.0
384,69.0,20.0,60.0,0.0,0.0
385,50.0,31.0,540.0,0.0,0.0
386,67.0,43.0,30.0,0.0,0.0
387,69.0,41.0,60.0,0.0,0.0
388,67.0,43.0,60.0,0.0,0.0
389,66.0,73.0,60.0,0.0,0.0
390,67.0,22.0,60.0,0.0,0.0
391,55.0,74.0,420.0,0.0,0.0
392,69.0,68.0,240.0,0.0,0.0
393,50.0,20.0,390.0,5.0,0.0
394,70.0,2.0,120.0,0.0,0.0
395,62.0,41.0,120.0,0.0,0.0
396,50.0,0.0,270.0,0.0,0.0
397,50.0,13.0,480.0,5.0,0.0
398,71.0,206.0,270.0,0.0,0.0
399,56.0,11.0,900.0,4.0,0.0
400,64.0,11.0,1770.0,2.0,0.0
401,40.0,2.0,900.0,6.0,0.0
402,52.0,22.0,240.0,0.0,0.0
403,72.0,16.0,240.0,0.0,0.0
404,52.0,16.0,480.0,5.0,0.0
405,56.0,158.0,60.0,0.0,0.0
406,64.0,65.0,30.0,0.0,0.0
407,68.0,166.0,90.0,0.0,0.0
408,48.0,15.0,240.0,0.0,0.0
409,69.0,91.0,150.0,0.0,0.0
410,48.0,7.0,480.0,5.0,0.0
411,57.0,23.0,900.0,4.0,0.0
412,33.0,25.0,930.0,6.0,0.0
413,60.0,361.0,960.0,3.0,0.0
414,71.0,50.0,120.0,0.0,0.0
415,52.0,23.0,90.0,0.0,0.0
416,69.0,62.0,90.0,0.0,0.0
417,68.0,67.0,90.0,0.0,0.0
418,69.0,29.0,60.0,0.0,0.0
419,57.0,8.0,60.0,0.0,0.0
420,71.0,190.0,60.0,0.0,0.0
421,52.0,18.0,480.0,5.0,0.0
422,64.0,35.0,30.0,0.0,0.0
423,72.0,178.0,60.0,0.0,0.0
424,53.0,17.0,690.0,5.0,0.0
425,59.0,33.0,1350.0,3.0,0.0
426,31.0,9.0,1320.0,6.0,0.0
427,67.0,133.0,1590.0,2.0,0.0
428,43.0,23.0,660.0,0.0,0.0
429,74.0,153.0,450.0,0.0,0.0
430,65.0,11.0,360.0,0.0,0.0
431,71.0,63.0,390.0,0.0,0.0
432,67.0,3.0,360.0,0.0,0.0
433,50.0,87.0,330.0,0.0,0.0
434,55.0,42.0,210.0,0.0,0.0
435,55.0,21.0,690.0,5.0,0.0
436,75.0,10.0,240.0,0.0,0.0
437,67.0,30.0,210.0,0.0,0.0
438,65.0,2.0,210.0,0.0,0.0
439,71.0,17.0,240.0,0.0,0.0
440,59.0,360.0,30.0,0.0,0.0
441,36.0,23.0,120.0,0.0,0.0
442,52.0,133.0,810.0,5.0,0.0
443,64.0,14.0,60.0,0.0,0.0
444,48.0,161.0,210.0,0.0,0.0
445,67.0,3.0,90.0,0.0,0.0
446,36.0,5.0,1800.0,6.0,0.0
447,60.0,14.0,660.0,3.0,0.0
448,72.0,27.0,90.0,0.0,0.0
449,76.0,29.0,90.0,0.0,0.0
450,66.0,26.0,330.0,2.0,0.0
451,76.0,111.0,180.0,0.0,0.0
452,52.0,78.0,300.0,0.0,0.0
453,76.0,69.0,90.0,0.0,0.0
454,64.0,109.0,390.0,2.0,0.0
455,55.0,91.0,390.0,0.0,0.0
456,57.0,213.0,570.0,5.0,0.0
457,76.0,11.0,150.0,0.0,0.0
458,62.0,23.0,270.0,2.0,0.0
459,60.0,31.0,120.0,0.0,0.0
460,76.0,94.0,90.0,0.0,0.0
461,60.0,321.0,390.0,2.0,0.0
462,55.0,29.0,600.0,5.0,0.0
463,59.0,87.0,600.0,2.0,0.0
464,38.0,27.0,480.0,0.0,0.0
465,54.0,46.0,2640.0,5.0,0.0
466,60.0,64.0,150.0,0.0,0.0
467,60.0,66.0,2760.0,3.0,0.0
468,38.0,8.0,2640.0,6.0,0.0
469,45.0,47.0,2640.0,4.0,0.0
470,66.0,41.0,150.0,0.0,0.0
471,50.0,15.0,2640.0,15.0,0.0
472,57.0,52.0,2640.0,2.0,0.0
473,69.0,34.0,60.0,0.0,0.0
474,60.0,3.0,2670.0,14.0,0.0
475,69.0,385.0,2670.0,14.0,0.0
476,76.0,277.0,90.0,0.0,0.0
477,45.0,93.0,240.0,0.0,0.0
478,50.0,133.0,90.0,0.0,0.0
479,75.0,128.0,90.0,0.0,0.0
480,54.0,52.0,90.0,0.0,0.0
481,74.0,193.0,90.0,0.0,0.0
482,57.0,102.0,120.0,0.0,0.0
483,73.0,15.0,90.0,0.0,0.0
484,72.0,118.0,60.0,0.0,0.0
485,60.0,52.0,150.0,0.0,0.0
486,71.0,143.0,90.0,0.0,0.0
487,62.0,58.0,210.0,0.0,0.0
488,66.0,875.0,60.0,0.0,0.0
489,69.0,444.0,1530.0,0.0,0.0
490,62.0,128.0,840.0,15.0,0.0
491,70.0,676.0,630.0,0.0,0.0
492,62.0,16.0,1380.0,15.0,0.0
493,43.0,38.0,840.0,0.0,0.0
494,71.0,56.0,870.0,0.0,0.0
495,50.0,67.0,360.0,0.0,0.0
496,50.0,32.0,720.0,4.0,0.0
497,62.0,116.0,600.0,2.0,0.0
498,55.0,102.0,270.0,0.0,0.0
499,59.0,27.0,150.0,0.0,0.0
500,50.0,37.0,270.0,0.0,0.0
501,72.0,171.0,90.0,0.0,0.0
502,43.0,72.0,300.0,0.0,0.0
503,55.0,16.0,600.0,4.0,0.0
504,59.0,50.0,600.0,2.0,0.0
505,74.0,41.0,180.0,0.0,0.0
506,59.0,11.0,600.0,15.0,0.0
507,76.0,52.0,120.0,0.0,0.0
508,50.0,61.0,390.0,0.0,0.0
509,74.0,57.0,90.0,0.0,0.0
510,73.0,78.0,60.0,0.0,0.0
511,74.0,56.0,90.0,0.0,0.0
512,50.0,58.0,660.0,4.0,0.0
513,59.0,68.0,210.0,0.0,0.0
514,79.0,8.0,270.0,0.0,0.0
515,55.0,65.0,270.0,0.0,0.0
516,62.0,45.0,570.0,2.0,0.0
517,55.0,36.0,570.0,15.0,0.0
518,50.0,73.0,90.0,0.0,0.0
519,83.0,166.0,150.0,0.0,0.0
520,60.0,10.0,570.0,2.0,0.0
521,54.0,18.0,600.0,4.0,0.0
522,38.0,357.0,180.0,0.0,0.0
523,50.0,204.0,1080.0,15.0,0.0
524,81.0,45.0,540.0,0.0,0.0
525,50.0,23.0,240.0,0.0,0.0
526,50.0,22.0,510.0,4.0,0.0
527,54.0,67.0,90.0,0.0,0.0
528,60.0,112.0,150.0,0.0,0.0
529,38.0,56.0,480.0,5.0,0.0
530,62.0,11.0,510.0,2.0,0.0
531,78.0,9.0,270.0,0.0,0.0
532,50.0,188.0,60.0,0.0,0.0
533,55.0,29.0,600.0,3.0,0.0
534,40.0,44.0,540.0,5.0,0.0
535,38.0,30.0,330.0,0.0,0.0
536,60.0,277.0,630.0,2.0,0.0
537,74.0,6.0,570.0,0.0,0.0
538,50.0,184.0,60.0,0.0,0.0
539,42.0,15.0,690.0,5.0,0.0
540,62.0,46.0,570.0,2.0,0.0
541,57.0,12.0,630.0,3.0,0.0
542,50.0,210.0,660.0,4.0,0.0
543,62.0,18.0,60.0,0.0,0.0
544,50.0,31.0,270.0,0.0,0.0
545,72.0,154.0,60.0,0.0,0.0
546,43.0,44.0,300.0,0.0,0.0
547,55.0,50.0,570.0,4.0,0.0
548,59.0,2.0,540.0,3.0,0.0
549,43.0,54.0,660.0,5.0,0.0
550,62.0,60.0,600.0,15.0,0.0
551,71.0,15.0,510.0,0.0,0.0
552,50.0,206.0,60.0,0.0,0.0
553,59.0,4.0,60.0,0.0,0.0
554,50.0,84.0,630.0,4.0,0.0
555,64.0,177.0,300.0,15.0,0.0
556,55.0,6.0,60.0,0.0,0.0
557,62.0,11.0,480.0,2.0,0.0
558,50.0,11.0,30.0,0.0,0.0
559,72.0,54.0,60.0,0.0,0.0
560,62.0,30.0,330.0,15.0,0.0
561,43.0,5.0,330.0,0.0,0.0
562,55.0,41.0,600.0,4.0,0.0
563,59.0,29.0,540.0,2.0,0.0
564,74.0,51.0,60.0,0.0,0.0
565,60.0,34.0,390.0,15.0,0.0
566,76.0,7.0,60.0,0.0,0.0
567,74.0,28.0,60.0,0.0,0.0
568,73.0,98.0,120.0,0.0,0.0
569,74.0,29.0,120.0,0.0,0.0
570,50.0,63.0,180.0,0.0,0.0
571,59.0,95.0,360.0,15.0,0.0
572,76.0,21.0,120.0,0.0,0.0
573,62.0,2.0,600.0,2.0,0.0
574,50.0,194.0,660.0,4.0,0.0
575,57.0,35.0,330.0,15.0,0.0
576,62.0,31.0,30.0,0.0,0.0
577,78.0,11.0,90.0,0.0,0.0
578,79.0,56.0,90.0,0.0,0.0
579,50.0,43.0,30.0,0.0,0.0
580,81.0,107.0,90.0,0.0,0.0
581,55.0,56.0,330.0,15.0,0.0
582,83.0,126.0,90.0,0.0,0.0
583,38.0,11.0,180.0,0.0,0.0
584,60.0,149.0,390.0,2.0,0.0
585,54.0,17.0,570.0,4.0,0.0
586,83.0,29.0,330.0,0.0,0.0
587,50.0,2.0,3150.0,15.0,0.0
588,50.0,47.0,240.0,0.0,0.0
589,81.0,24.0,420.0,0.0,0.0
590,54.0,27.0,90.0,0.0,0.0
591,60.0,136.0,90.0,0.0,0.0
592,50.0,20.0,450.0,4.0,0.0
593,38.0,21.0,420.0,5.0,0.0
594,62.0,178.0,450.0,2.0,0.0
595,78.0,14.0,450.0,0.0,0.0
596,50.0,177.0,60.0,0.0,0.0
597,40.0,31.0,510.0,5.0,0.0
598,38.0,42.0,270.0,0.0,0.0
599,55.0,258.0,570.0,3.0,0.0
600,60.0,9.0,570.0,2.0,0.0
601,74.0,95.0,180.0,0.0,0.0
602,50.0,117.0,60.0,0.0,0.0
603,42.0,38.0,600.0,5.0,0.0
604,57.0,8.0,600.0,3.0,0.0
605,50.0,390.0,630.0,4.0,0.0
606,62.0,56.0,510.0,2.0,0.0
607,62.0,32.0,60.0,0.0,0.0
608,50.0,34.0,210.0,0.0,0.0
609,72.0,105.0,90.0,0.0,0.0
610,55.0,41.0,750.0,4.0,0.0
611,59.0,43.0,1620.0,3.0,0.0
612,43.0,78.0,2010.0,5.0,0.0
613,62.0,37.0,1200.0,2.0,0.0
614,43.0,100.0,510.0,0.0,0.0
615,71.0,90.0,360.0,0.0,0.0
616,50.0,47.0,270.0,0.0,0.0
617,50.0,87.0,660.0,4.0,0.0
618,55.0,86.0,120.0,0.0,0.0
619,76.0,100.0,180.0,0.0,0.0
620,59.0,229.0,30.0,0.0,0.0
621,74.0,63.0,180.0,0.0,0.0
622,43.0,19.0,240.0,0.0,0.0
623,52.0,70.0,990.0,15.0,0.0
624,73.0,248.0,240.0,0.0,0.0
625,64.0,32.0,960.0,2.0,0.0
626,49.0,26.0,810.0,4.0,0.0
627,49.0,8.0,450.0,0.0,0.0
628,78.0,105.0,150.0,0.0,0.0
629,52.0,4.0,240.0,0.0,0.0
630,57.0,69.0,330.0,3.0,0.0
631,57.0,115.0,60.0,0.0,0.0
632,76.0,22.0,180.0,0.0,0.0
633,42.0,27.0,270.0,0.0,0.0
634,74.0,229.0,270.0,0.0,0.0
635,42.0,44.0,930.0,5.0,0.0
636,50.0,30.0,1590.0,4.0,0.0
637,66.0,68.0,510.0,2.0,0.0
638,54.0,15.0,480.0,15.0,0.0
639,57.0,3.0,960.0,3.0,0.0
640,45.0,28.0,600.0,0.0,0.0
641,50.0,18.0,300.0,0.0,0.0
642,79.0,113.0,180.0,0.0,0.0
643,50.0,54.0,600.0,15.0,0.0
644,62.0,36.0,540.0,2.0,0.0
645,57.0,99.0,90.0,0.0,0.0
646,78.0,97.0,120.0,0.0,0.0
647,44.0,36.0,1500.0,5.0,0.0
648,44.0,41.0,360.0,0.0,0.0
649,62.0,3.0,2670.0,3.0,0.0
650,76.0,52.0,180.0,0.0,0.0
651,71.0,4.0,1500.0,2.0,0.0
652,59.0,29.0,1500.0,15.0,0.0
653,74.0,126.0,60.0,0.0,0.0
654,50.0,23.0,270.0,0.0,0.0
655,90.0,171.0,90.0,0.0,0.0
656,88.0,98.0,60.0,0.0,0.0
657,52.0,42.0,60.0,0.0,0.0
658,86.0,121.0,90.0,0.0,0.0
659,52.0,12.0,870.0,4.0,0.0
660,85.0,120.0,90.0,0.0,0.0
661,88.0,103.0,120.0,0.0,0.0
662,59.0,34.0,60.0,0.0,0.0
663,86.0,54.0,120.0,0.0,0.0
664,85.0,81.0,90.0,0.0,0.0
665,86.0,91.0,90.0,0.0,0.0
666,83.0,73.0,90.0,0.0,0.0
667,45.0,50.0,210.0,0.0,0.0
668,81.0,27.0,60.0,0.0,0.0
669,57.0,21.0,1800.0,15.0,0.0
670,45.0,7.0,2430.0,5.0,0.0
671,54.0,24.0,1230.0,4.0,0.0
672,69.0,49.0,1710.0,2.0,0.0
673,95.0,136.0,30.0,0.0,0.0
674,86.0,102.0,30.0,0.0,0.0
675,54.0,66.0,20.0,0.0,0.0
676,93.0,95.0,90.0,0.0,0.0
677,81.0,84.0,60.0,0.0,0.0
678,91.0,68.0,60.0,0.0,0.0
679,57.0,34.0,60.0,0.0,0.0
680,86.0,64.0,90.0,0.0,0.0
681,90.0,73.0,60.0,0.0,0.0
682,78.0,55.0,60.0,0.0,0.0
683,88.0,75.0,90.0,0.0,0.0
684,62.0,43.0,30.0,0.0,0.0
685,81.0,78.0,90.0,0.0,0.0
686,86.0,60.0,90.0,0.0,0.0
687,45.0,20.0,240.0,0.0,0.0
688,76.0,79.0,90.0,0.0,0.0
689,33.0,7.0,1260.0,6.0,0.0
690,52.0,7.0,630.0,4.0,0.0
691,61.0,40.0,1230.0,3.0,0.0
692,85.0,61.0,90.0,0.0,0.0
693,79.0,63.0,90.0,0.0,0.0
694,83.0,85.0,60.0,0.0,0.0
695,52.0,0.0,300.0,0.0,0.0
696,73.0,114.0,60.0,0.0,0.0
697,81.0,44.0,90.0,0.0,0.0
698,67.0,201.0,810.0,2.0,0.0
699,76.0,12.0,90.0,0.0,0.0
700,57.0,44.0,120.0,0.0,0.0
701,55.0,4.0,810.0,15.0,0.0
702,57.0,167.0,1410.0,4.0,0.0
703,79.0,95.0,90.0,0.0,0.0
704,67.0,78.0,90.0,0.0,0.0
705,78.0,133.0,90.0,0.0,0.0
706,61.0,45.0,30.0,0.0,0.0
707,73.0,139.0,120.0,0.0,0.0
708,76.0,81.0,150.0,0.0,0.0
709,38.0,37.0,330.0,0.0,0.0
710,38.0,14.0,600.0,6.0,0.0
711,66.0,46.0,660.0,2.0,0.0
712,62.0,19.0,630.0,3.0,0.0
713,74.0,7.0,360.0,0.0,0.0
714,50.0,14.0,570.0,5.0,0.0
715,54.0,4.0,690.0,15.0,0.0
716,66.0,10.0,330.0,0.0,0.0
717,50.0,208.0,60.0,0.0,0.0
718,60.0,35.0,30.0,0.0,0.0
719,76.0,159.0,540.0,12.0,0.0
720,72.0,62.0,450.0,12.0,0.0
721,64.0,3.0,450.0,14.0,0.0
722,64.0,173.0,60.0,0.0,0.0
723,57.0,118.0,240.0,0.0,0.0
724,60.0,4.0,15.0,14.0,0.0
725,72.0,5.0,540.0,12.0,0.0
726,57.0,10.0,510.0,14.0,0.0
727,69.0,302.0,540.0,12.0,0.0
728,60.0,199.0,120.0,0.0,0.0
729,38.0,32.0,690.0,6.0,0.0
730,50.0,199.0,450.0,0.0,0.0
731,50.0,38.0,720.0,5.0,0.0
732,71.0,3.0,690.0,12.0,0.0
733,50.0,11.0,750.0,14.0,0.0
734,66.0,20.0,660.0,12.0,0.0
735,62.0,14.0,630.0,15.0,0.0
736,62.0,66.0,90.0,0.0,0.0
737,31.0,1.0,630.0,6.0,0.0
738,59.0,19.0,690.0,14.0,0.0
739,43.0,9.0,270.0,0.0,0.0
740,67.0,6.0,660.0,12.0,0.0
741,43.0,23.0,600.0,5.0,0.0
742,55.0,21.0,630.0,14.0,0.0
743,62.0,9.0,1140.0,15.0,0.0
744,71.0,144.0,240.0,0.0,0.0
745,67.0,31.0,180.0,0.0,0.0
746,50.0,49.0,90.0,0.0,0.0
747,72.0,43.0,120.0,0.0,0.0
748,69.0,33.0,150.0,0.0,0.0
749,71.0,17.0,90.0,0.0,0.0
750,67.0,57.0,30.0,0.0,0.0
751,70.0,66.0,120.0,0.0,0.0
752,62.0,16.0,600.0,2.0,0.0
753,55.0,6.0,60.0,0.0,0.0
754,50.0,43.0,480.0,4.0,0.0
755,66.0,30.0,60.0,0.0,0.0
756,59.0,3.0,30.0,0.0,0.0
757,67.0,19.0,90.0,0.0,0.0
758,71.0,60.0,90.0,0.0,0.0
759,72.0,4.0,60.0,0.0,0.0
760,69.0,78.0,60.0,0.0,0.0
761,50.0,7.0,30.0,0.0,0.0
762,73.0,53.0,60.0,0.0,0.0
763,70.0,91.0,90.0,0.0,0.0
764,43.0,21.0,210.0,0.0,0.0
765,74.0,42.0,150.0,0.0,0.0
766,71.0,16.0,120.0,0.0,0.0
767,59.0,4.0,480.0,2.0,0.0
768,55.0,35.0,480.0,4.0,0.0
769,59.0,45.0,450.0,15.0,0.0
770,73.0,17.0,120.0,0.0,0.0
771,70.0,23.0,90.0,0.0,0.0
772,50.0,16.0,150.0,0.0,0.0
773,74.0,42.0,120.0,0.0,0.0
774,71.0,68.0,30.0,0.0,0.0
775,76.0,0.0,60.0,0.0,0.0
776,72.0,72.0,90.0,0.0,0.0
777,55.0,11.0,150.0,0.0,0.0
778,62.0,9.0,690.0,2.0,0.0
779,50.0,11.0,690.0,4.0,0.0
780,78.0,4.0,150.0,0.0,0.0
781,55.0,48.0,690.0,15.0,0.0
782,59.0,22.0,150.0,0.0,0.0
783,69.0,19.0,90.0,0.0,0.0
784,71.0,19.0,30.0,0.0,0.0
785,79.0,113.0,60.0,0.0,0.0
786,74.0,19.0,30.0,0.0,0.0
787,81.0,21.0,60.0,0.0,0.0
788,50.0,203.0,60.0,0.0,0.0
789,83.0,1.0,30.0,0.0,0.0
790,79.0,130.0,30.0,0.0,0.0
791,38.0,188.0,150.0,0.0,0.0
792,83.0,0.0,330.0,0.0,0.0
793,79.0,22.0,330.0,0.0,0.0
794,60.0,118.0,450.0,2.0,0.0
795,54.0,0.0,540.0,4.0,0.0
796,50.0,19.0,1050.0,15.0,0.0
797,50.0,102.0,60.0,0.0,0.0
798,62.0,41.0,570.0,2.0,0.0
799,50.0,29.0,480.0,4.0,0.0
800,57.0,10.0,60.0,0.0,0.0
801,38.0,11.0,480.0,5.0,0.0
802,60.0,102.0,60.0,0.0,0.0
803,81.0,48.0,120.0,0.0,0.0
804,78.0,62.0,30.0,0.0,0.0
805,50.0,45.0,30.0,0.0,0.0
806,69.0,110.0,60.0,0.0,0.0
807,76.0,25.0,180.0,0.0,0.0
808,72.0,34.0,90.0,0.0,0.0
809,38.0,1.0,60.0,0.0,0.0
810,40.0,25.0,480.0,5.0,0.0
811,79.0,6.0,60.0,0.0,0.0
812,55.0,23.0,510.0,3.0,0.0
813,60.0,31.0,480.0,2.0,0.0
814,78.0,136.0,60.0,0.0,0.0
815,74.0,23.0,30.0,0.0,0.0
816,66.0,70.0,90.0,0.0,0.0
817,50.0,0.0,90.0,0.0,0.0
818,74.0,55.0,120.0,0.0,0.0
819,71.0,28.0,90.0,0.0,0.0
820,42.0,112.0,660.0,5.0,0.0
821,50.0,13.0,630.0,4.0,0.0
822,62.0,84.0,510.0,2.0,0.0
823,57.0,24.0,630.0,3.0,0.0
824,78.0,46.0,150.0,0.0,0.0
825,62.0,24.0,120.0,0.0,0.0
826,76.0,137.0,120.0,0.0,0.0
827,72.0,61.0,30.0,0.0,0.0
828,69.0,55.0,150.0,0.0,0.0
829,50.0,44.0,90.0,0.0,0.0
830,74.0,34.0,150.0,0.0,0.0
831,43.0,54.0,300.0,0.0,0.0
832,55.0,11.0,570.0,4.0,0.0
833,59.0,23.0,390.0,3.0,0.0
834,62.0,21.0,540.0,15.0,0.0
835,71.0,46.0,150.0,0.0,0.0
836,43.0,11.0,510.0,5.0,0.0
837,67.0,4.0,210.0,0.0,0.0
838,72.0,31.0,30.0,0.0,0.0
839,50.0,1.0,150.0,0.0,0.0
840,71.0,33.0,30.0,0.0,0.0
841,72.0,39.0,30.0,0.0,0.0
842,71.0,18.0,30.0,0.0,0.0
843,72.0,30.0,60.0,0.0,0.0
844,71.0,83.0,30.0,0.0,0.0
845,62.0,15.0,480.0,2.0,0.0
846,70.0,87.0,150.0,0.0,0.0
847,55.0,10.0,120.0,0.0,0.0
848,66.0,29.0,90.0,0.0,0.0
849,50.0,3.0,450.0,4.0,0.0
850,64.0,27.0,270.0,15.0,0.0
851,59.0,9.0,120.0,0.0,0.0
852,71.0,11.0,120.0,0.0,0.0
853,67.0,27.0,90.0,0.0,0.0
854,50.0,24.0,60.0,0.0,0.0
855,69.0,8.0,90.0,0.0,0.0
856,72.0,13.0,90.0,0.0,0.0
857,62.0,32.0,270.0,15.0,0.0
858,73.0,117.0,30.0,0.0,0.0
859,70.0,6.0,20.0,0.0,0.0
860,43.0,11.0,150.0,0.0,0.0
861,55.0,44.0,540.0,4.0,0.0
862,59.0,108.0,600.0,2.0,0.0
863,74.0,16.0,30.0,0.0,0.0
864,60.0,15.0,270.0,15.0,0.0
865,71.0,65.0,120.0,0.0,0.0
866,76.0,17.0,60.0,0.0,0.0
867,74.0,22.0,120.0,0.0,0.0
868,73.0,53.0,60.0,0.0,0.0
869,70.0,28.0,30.0,0.0,0.0
870,59.0,74.0,210.0,15.0,0.0
871,50.0,126.0,30.0,0.0,0.0
872,74.0,7.0,30.0,0.0,0.0
873,71.0,10.0,15.0,0.0,0.0
874,59.0,31.0,210.0,15.0,0.0
875,76.0,1.0,30.0,0.0,0.0
876,72.0,11.0,30.0,0.0,0.0
877,62.0,103.0,1020.0,2.0,0.0
878,50.0,2.0,930.0,4.0,0.0
879,76.0,3.0,150.0,0.0,0.0
880,72.0,4.0,150.0,0.0,0.0
881,59.0,0.0,150.0,0.0,0.0
882,57.0,5.0,390.0,15.0,0.0
883,55.0,30.0,150.0,0.0,0.0
884,69.0,10.0,30.0,0.0,0.0
885,78.0,135.0,60.0,0.0,0.0
886,79.0,51.0,30.0,0.0,0.0
887,71.0,13.0,20.0,0.0,0.0
888,55.0,30.0,570.0,15.0,0.0
889,71.0,13.0,30.0,0.0,0.0
890,79.0,15.0,30.0,0.0,0.0
891,50.0,91.0,60.0,0.0,0.0
892,81.0,73.0,30.0,0.0,0.0
893,74.0,115.0,90.0,0.0,0.0
894,83.0,2.0,30.0,0.0,0.0
895,79.0,168.0,30.0,0.0,0.0
896,79.0,18.0,180.0,0.0,0.0
897,83.0,3.0,180.0,0.0,0.0
898,38.0,21.0,120.0,0.0,0.0
899,60.0,97.0,390.0,2.0,0.0
900,54.0,31.0,510.0,4.0,0.0
901,50.0,58.0,1020.0,15.0,0.0
902,78.0,3.0,150.0,0.0,0.0
903,81.0,38.0,150.0,0.0,0.0
904,50.0,77.0,120.0,0.0,0.0
905,84.0,16.0,30.0,0.0,0.0
906,69.0,38.0,120.0,0.0,0.0
907,57.0,5.0,60.0,0.0,0.0
908,38.0,85.0,480.0,5.0,0.0
909,62.0,27.0,450.0,2.0,0.0
910,50.0,41.0,660.0,4.0,0.0
911,60.0,39.0,60.0,0.0,0.0
912,81.0,28.0,90.0,0.0,0.0
913,78.0,57.0,120.0,0.0,0.0
914,76.0,51.0,90.0,0.0,0.0
915,79.0,4.0,90.0,0.0,0.0
916,50.0,8.0,30.0,0.0,0.0
917,83.0,179.0,30.0,0.0,0.0
918,67.0,11.0,210.0,0.0,0.0
919,60.0,38.0,780.0,2.0,0.0
920,55.0,40.0,720.0,3.0,0.0
921,40.0,11.0,690.0,5.0,0.0
922,38.0,14.0,120.0,0.0,0.0
923,79.0,2.0,90.0,0.0,0.0
924,76.0,15.0,150.0,0.0,0.0
925,74.0,9.0,90.0,0.0,0.0
926,78.0,87.0,90.0,0.0,0.0
927,50.0,15.0,510.0,0.0,0.0
928,81.0,324.0,60.0,0.0,0.0
929,66.0,6.0,300.0,0.0,0.0
930,50.0,3.0,750.0,4.0,0.0
931,62.0,17.0,180.0,0.0,0.0
932,62.0,34.0,750.0,7.0,0.0
933,57.0,117.0,780.0,3.0,0.0
934,42.0,2.0,750.0,5.0,0.0
935,78.0,31.0,150.0,0.0,0.0
936,62.0,2.0,720.0,2.0,0.0
937,74.0,104.0,180.0,0.0,0.0
938,76.0,27.0,150.0,0.0,0.0
939,72.0,53.0,150.0,0.0,0.0
940,50.0,65.0,120.0,0.0,0.0
941,69.0,147.0,120.0,0.0,0.0
942,74.0,118.0,150.0,0.0,0.0
943,72.0,6.0,150.0,0.0,0.0
944,43.0,29.0,450.0,0.0,0.0
945,43.0,28.0,2100.0,5.0,0.0
946,59.0,10.0,1620.0,3.0,0.0
947,67.0,137.0,240.0,0.0,0.0
948,71.0,72.0,180.0,0.0,0.0
949,55.0,4.0,1080.0,7.0,0.0
950,55.0,62.0,600.0,4.0,0.0
951,69.0,56.0,150.0,0.0,0.0
952,72.0,3.0,210.0,0.0,0.0
953,50.0,1.0,330.0,0.0,0.0
954,71.0,56.0,150.0,0.0,0.0
955,67.0,83.0,60.0,0.0,0.0
956,55.0,48.0,120.0,0.0,0.0
957,70.0,61.0,150.0,0.0,0.0
958,50.0,235.0,510.0,4.0,0.0
959,66.0,8.0,90.0,0.0,0.0
960,62.0,126.0,1110.0,2.0,0.0
961,71.0,91.0,120.0,0.0,0.0
962,67.0,48.0,60.0,0.0,0.0
963,59.0,7.0,30.0,0.0,0.0
964,72.0,33.0,180.0,0.0,0.0
965,69.0,34.0,60.0,0.0,0.0
966,66.0,88.0,90.0,0.0,0.0
967,43.0,19.0,330.0,0.0,0.0
968,67.0,49.0,510.0,7.0,0.0
969,55.0,34.0,600.0,4.0,0.0
970,71.0,68.0,300.0,0.0,0.0
971,74.0,3.0,300.0,0.0,0.0
972,65.0,8.0,240.0,0.0,0.0
973,67.0,3.0,240.0,0.0,0.0
974,50.0,133.0,90.0,0.0,0.0
975,55.0,2.0,90.0,0.0,0.0
976,75.0,3.0,150.0,0.0,0.0
977,65.0,31.0,60.0,0.0,0.0
978,67.0,1.0,60.0,0.0,0.0
979,67.0,8.0,540.0,2.0,0.0
980,53.0,52.0,600.0,3.0,0.0
981,59.0,5.0,540.0,4.0,0.0
982,67.0,20.0,570.0,7.0,0.0
983,59.0,256.0,30.0,0.0,0.0
984,36.0,8.0,90.0,0.0,0.0
985,64.0,12.0,630.0,7.0,0.0
986,64.0,24.0,60.0,0.0,0.0
987,52.0,3.0,570.0,3.0,0.0
988,48.0,1.0,60.0,0.0,0.0
989,48.0,235.0,630.0,5.0,0.0
990,67.0,12.0,60.0,0.0,0.0
991,36.0,3.0,630.0,6.0,0.0
992,60.0,17.0,540.0,4.0,0.0
993,76.0,180.0,120.0,0.0,0.0
994,60.0,3.0,20.0,0.0,0.0
995,55.0,21.0,20.0,0.0,0.0
996,52.0,166.0,30.0,0.0,0.0
997,63.0,31.0,90.0,0.0,0.0
998,69.0,3.0,60.0,0.0,0.0
999,71.0,18.0,60.0,0.0,0.0
1000,57.0,24.0,600.0,3.0,0.0
1001,66.0,9.0,600.0,2.0,0.0
1002,35.0,15.0,30.0,0.0,0.0
1003,78.0,5.0,30.0,0.0,0.0
1004,63.0,208.0,660.0,4.0,0.0
1005,47.0,3.0,30.0,0.0,0.0
1006,47.0,24.0,510.0,5.0,0.0
1007,59.0,24.0,1200.0,7.0,0.0
1008,35.0,42.0,480.0,6.0,0.0
1009,63.0,10.0,20.0,0.0,0.0
1010,54.0,181.0,30.0,0.0,0.0
1011,59.0,14.0,30.0,0.0,0.0
1012,67.0,4.0,150.0,0.0,0.0
1013,71.0,7.0,120.0,0.0,0.0
1014,55.0,42.0,630.0,3.0,0.0
1015,76.0,2.0,90.0,0.0,0.0
1016,40.0,1.0,630.0,6.0,0.0
1017,64.0,51.0,750.0,2.0,0.0
1018,40.0,46.0,690.0,5.0,0.0
1019,28.0,7.0,30.0,0.0,0.0
1020,40.0,15.0,30.0,0.0,0.0
1021,79.0,30.0,60.0,0.0,0.0
1022,64.0,11.0,570.0,4.0,0.0
1023,52.0,265.0,60.0,0.0,0.0
1024,64.0,15.0,30.0,0.0,0.0
1025,55.0,12.0,30.0,0.0,0.0
1026,39.0,9.0,1080.0,6.0,0.0
1027,27.0,38.0,180.0,0.0,0.0
1028,69.0,51.0,1110.0,2.0,0.0
1029,61.0,20.0,1050.0,7.0,0.0
1030,61.0,30.0,1080.0,3.0,0.0
1031,39.0,2.0,1020.0,5.0,0.0
1032,39.0,30.0,150.0,0.0,0.0
1033,55.0,43.0,1770.0,4.0,0.0
1034,69.0,194.0,210.0,0.0,0.0
1035,73.0,22.0,180.0,0.0,0.0
1036,79.0,10.0,150.0,0.0,0.0
1037,81.0,0.0,150.0,0.0,0.0
1038,51.0,20.0,60.0,0.0,0.0
1039,57.0,18.0,30.0,0.0,0.0
1040,61.0,19.0,30.0,0.0,0.0
1041,67.0,538.0,30.0,0.0,0.0
1042,38.0,71.0,240.0,0.0,0.0
1043,26.0,28.0,210.0,0.0,0.0
1044,79.0,38.0,330.0,0.0,0.0
1045,74.0,17.0,300.0,0.0,0.0
1046,83.0,305.0,360.0,0.0,0.0
1047,38.0,74.0,660.0,6.0,0.0
1048,38.0,4.0,750.0,5.0,0.0
1049,71.0,35.0,270.0,0.0,0.0
1050,62.0,9.0,2910.0,7.0,0.0
1051,62.0,14.0,750.0,3.0,0.0
1052,71.0,11.0,690.0,2.0,0.0
1053,62.0,35.0,510.0,0.0,0.0
1054,83.0,36.0,90.0,0.0,0.0
1055,91.0,15.0,60.0,0.0,0.0
1056,88.0,40.0,60.0,0.0,0.0
1057,79.0,75.0,60.0,0.0,0.0
1058,90.0,24.0,60.0,0.0,0.0
1059,81.0,40.0,120.0,0.0,0.0
1060,50.0,6.0,240.0,0.0,0.0
1061,86.0,1.0,60.0,0.0,0.0
1062,78.0,85.0,30.0,0.0,0.0
1063,88.0,25.0,60.0,0.0,0.0
1064,79.0,48.0,90.0,0.0,0.0
1065,62.0,90.0,60.0,0.0,0.0
1066,76.0,9.0,60.0,0.0,0.0
1067,84.0,2.0,60.0,0.0,0.0
1068,86.0,37.0,90.0,0.0,0.0
1069,78.0,3.0,90.0,0.0,0.0
1070,74.0,29.0,60.0,0.0,0.0
1071,83.0,49.0,60.0,0.0,0.0
1072,84.0,46.0,60.0,0.0,0.0
1073,76.0,10.0,90.0,0.0,0.0
1074,57.0,5.0,90.0,0.0,0.0
1075,60.0,15.0,210.0,0.0,0.0
1076,72.0,22.0,30.0,0.0,0.0
1077,81.0,82.0,60.0,0.0,0.0
1078,83.0,21.0,60.0,0.0,0.0
1079,74.0,43.0,90.0,0.0,0.0
1080,62.0,52.0,120.0,0.0,0.0
1081,71.0,9.0,30.0,0.0,0.0
1082,79.0,65.0,60.0,0.0,0.0
1083,72.0,53.0,90.0,0.0,0.0
1084,81.0,2.0,90.0,0.0,0.0
1085,69.0,7.0,60.0,0.0,0.0
1086,78.0,81.0,60.0,0.0,0.0
1087,71.0,45.0,90.0,0.0,0.0
1088,79.0,27.0,60.0,0.0,0.0
1089,50.0,20.0,60.0,0.0,0.0
1090,67.0,18.0,60.0,0.0,0.0
1091,76.0,92.0,60.0,0.0,0.0
1092,78.0,77.0,60.0,0.0,0.0
1093,69.0,56.0,120.0,0.0,0.0
1094,69.0,60.0,660.0,2.0,0.0
1095,60.0,377.0,780.0,3.0,0.0
1096,38.0,58.0,720.0,5.0,0.0
1097,66.0,174.0,60.0,0.0,0.0
1098,62.0,4.0,30.0,0.0,0.0
1099,74.0,6.0,30.0,0.0,0.0
1100,50.0,9.0,1320.0,4.0,0.0
1101,64.0,182.0,60.0,0.0,0.0
1102,72.0,1.0,60.0,0.0,0.0
1103,69.0,185.0,90.0,0.0,0.0
1104,66.0,42.0,60.0,0.0,0.0
1105,60.0,2.0,30.0,0.0,0.0
1106,67.0,21.0,750.0,2.0,0.0
1107,55.0,14.0,690.0,7.0,0.0
1108,43.0,87.0,570.0,0.0,0.0
1109,59.0,2.0,690.0,3.0,0.0
1110,43.0,0.0,660.0,5.0,0.0
1111,59.0,68.0,480.0,0.0,0.0
1112,67.0,183.0,780.0,0.0,0.0
1113,50.0,13.0,270.0,0.0,0.0
1114,55.0,11.0,90.0,0.0,0.0
1115,59.0,67.0,90.0,0.0,0.0
1116,59.0,28.0,480.0,15.0,0.0
1117,50.0,380.0,510.0,15.0,0.0
1118,50.0,90.0,180.0,0.0,0.0
1119,68.0,77.0,90.0,0.0,0.0
1120,51.0,50.0,540.0,0.0,0.0
1121,60.0,24.0,1170.0,15.0,0.0
1122,51.0,6.0,780.0,15.0,0.0
1123,69.0,116.0,360.0,0.0,0.0
1124,55.0,65.0,240.0,0.0,0.0
1125,71.0,8.0,210.0,0.0,0.0
1126,60.0,102.0,300.0,0.0,0.0
1127,69.0,31.0,120.0,0.0,0.0
1128,50.0,3.0,300.0,0.0,0.0
1129,68.0,114.0,150.0,0.0,0.0
1130,50.0,124.0,510.0,15.0,0.0
1131,69.0,40.0,120.0,0.0,0.0
1132,71.0,143.0,120.0,0.0,0.0
1133,54.0,39.0,60.0,0.0,0.0
1134,60.0,14.0,60.0,0.0,0.0
1135,72.0,21.0,150.0,0.0,0.0
1136,43.0,234.0,240.0,0.0,0.0
1137,73.0,13.0,180.0,0.0,0.0
1138,43.0,35.0,8310.0,5.0,0.0
1139,50.0,5.0,2850.0,4.0,0.0
1140,59.0,42.0,600.0,15.0,0.0
1141,55.0,4.0,540.0,15.0,0.0
1142,74.0,22.0,60.0,0.0,0.0
1143,50.0,19.0,420.0,0.0,0.0
1144,84.0,153.0,150.0,0.0,0.0
1145,83.0,10.0,180.0,0.0,0.0
1146,62.0,31.0,480.0,3.0,0.0
1147,59.0,15.0,150.0,0.0,0.0
1148,55.0,29.0,180.0,0.0,0.0
1149,81.0,36.0,120.0,0.0,0.0
1150,71.0,73.0,510.0,2.0,0.0
1151,78.0,71.0,90.0,0.0,0.0
1152,79.0,119.0,90.0,0.0,0.0
1153,50.0,32.0,60.0,0.0,0.0
1154,71.0,54.0,120.0,0.0,0.0
1155,60.0,98.0,1290.0,3.0,0.0
1156,73.0,112.0,150.0,0.0,0.0
1157,43.0,14.0,240.0,0.0,0.0
1158,69.0,415.0,540.0,2.0,0.0
1159,74.0,100.0,150.0,0.0,0.0
1160,78.0,127.0,120.0,0.0,0.0
1161,50.0,23.0,270.0,0.0,0.0
1162,76.0,24.0,120.0,0.0,0.0
1163,71.0,16.0,30.0,0.0,0.0
1164,62.0,261.0,870.0,2.0,0.0
1165,60.0,32.0,450.0,0.0,0.0
1166,72.0,7.0,330.0,0.0,0.0
1167,50.0,0.0,210.0,0.0,0.0
1168,64.0,157.0,180.0,0.0,0.0
1169,66.0,54.0,180.0,0.0,0.0
1170,71.0,72.0,240.0,0.0,0.0
1171,59.0,16.0,690.0,3.0,0.0
1172,31.0,32.0,5970.0,6.0,0.0
1173,74.0,37.0,660.0,2.0,0.0
1174,43.0,32.0,420.0,0.0,0.0
1175,67.0,89.0,540.0,0.0,0.0
1176,50.0,100.0,90.0,0.0,0.0
1177,59.0,14.0,570.0,15.0,0.0
1178,50.0,183.0,600.0,15.0,0.0
1179,59.0,4.0,60.0,0.0,0.0
1180,55.0,319.0,60.0,0.0,0.0
1181,50.0,141.0,150.0,0.0,0.0
1182,68.0,8.0,120.0,0.0,0.0
1183,51.0,45.0,450.0,0.0,0.0
1184,60.0,17.0,1020.0,15.0,0.0
1185,51.0,99.0,690.0,15.0,0.0
1186,69.0,88.0,210.0,0.0,0.0
1187,71.0,62.0,120.0,0.0,0.0
1188,55.0,5.0,180.0,0.0,0.0
1189,60.0,0.0,270.0,0.0,0.0
1190,69.0,42.0,30.0,0.0,0.0
1191,71.0,7.0,30.0,0.0,0.0
1192,69.0,101.0,60.0,0.0,0.0
1193,68.0,111.0,120.0,0.0,0.0
1194,50.0,1.0,360.0,0.0,0.0
1195,69.0,3.0,150.0,0.0,0.0
1196,50.0,102.0,480.0,15.0,0.0
1197,71.0,80.0,120.0,0.0,0.0
1198,54.0,12.0,120.0,0.0,0.0
1199,72.0,126.0,120.0,0.0,0.0
1200,60.0,10.0,90.0,0.0,0.0
1201,73.0,32.0,150.0,0.0,0.0
1202,43.0,64.0,270.0,0.0,0.0
1203,76.0,23.0,150.0,0.0,0.0
1204,50.0,21.0,3810.0,4.0,0.0
1205,59.0,13.0,690.0,15.0,0.0
1206,55.0,2.0,690.0,15.0,0.0
1207,74.0,74.0,60.0,0.0,0.0
1208,74.0,89.0,120.0,0.0,0.0
1209,50.0,11.0,570.0,0.0,0.0
1210,84.0,302.0,60.0,0.0,0.0
1211,83.0,133.0,150.0,0.0,0.0
1212,59.0,7.0,180.0,0.0,0.0
1213,71.0,43.0,630.0,2.0,0.0
1214,62.0,84.0,660.0,3.0,0.0
1215,55.0,104.0,210.0,0.0,0.0
1216,81.0,12.0,150.0,0.0,0.0
1217,62.0,48.0,4440.0,7.0,0.0
1218,78.0,73.0,120.0,0.0,0.0
1219,79.0,171.0,120.0,0.0,0.0
1220,50.0,46.0,90.0,0.0,0.0
1221,71.0,29.0,180.0,0.0,0.0
1222,43.0,195.0,330.0,0.0,0.0
1223,76.0,114.0,210.0,0.0,0.0
1224,69.0,1.0,660.0,2.0,0.0
1225,60.0,275.0,1680.0,3.0,0.0
1226,74.0,18.0,150.0,0.0,0.0
1227,50.0,91.0,420.0,0.0,0.0
1228,78.0,166.0,210.0,0.0,0.0
1229,76.0,24.0,210.0,0.0,0.0
1230,62.0,42.0,1380.0,2.0,0.0
1231,74.0,112.0,150.0,0.0,0.0
1232,60.0,26.0,510.0,0.0,0.0
1233,72.0,78.0,90.0,0.0,0.0
1234,71.0,81.0,90.0,0.0,0.0
1235,72.0,70.0,90.0,0.0,0.0
1236,69.0,48.0,60.0,0.0,0.0
1237,50.0,42.0,240.0,0.0,0.0
1238,71.0,51.0,90.0,0.0,0.0
1239,74.0,66.0,60.0,0.0,0.0
1240,72.0,30.0,60.0,0.0,0.0
1241,64.0,71.0,60.0,0.0,0.0
1242,66.0,81.0,60.0,0.0,0.0
1243,71.0,64.0,90.0,0.0,0.0
1244,69.0,28.0,90.0,0.0,0.0
1245,67.0,69.0,60.0,0.0,0.0
1246,43.0,45.0,330.0,0.0,0.0
1247,67.0,72.0,390.0,0.0,0.0
1248,59.0,42.0,990.0,3.0,0.0
1249,55.0,523.0,5460.0,7.0,0.0
1250,67.0,69.0,840.0,2.0,0.0
1251,50.0,50.0,210.0,0.0,0.0
1252,71.0,48.0,90.0,0.0,0.0
1253,76.0,6.0,60.0,0.0,0.0
1254,74.0,85.0,60.0,0.0,0.0
1255,79.0,166.0,120.0,0.0,0.0
1256,59.0,32.0,90.0,0.0,0.0
1257,50.0,5.0,240.0,0.0,0.0
1258,83.0,17.0,90.0,0.0,0.0
1259,88.0,48.0,120.0,0.0,0.0
1260,86.0,101.0,90.0,0.0,0.0
1261,50.0,4.0,300.0,4.0,0.0
1262,43.0,55.0,210.0,5.0,0.0
1263,31.0,3.0,270.0,6.0,0.0
1264,59.0,117.0,300.0,3.0,0.0
1265,67.0,4.0,270.0,2.0,0.0
1266,43.0,24.0,240.0,0.0,0.0
1267,79.0,70.0,120.0,0.0,0.0
1268,50.0,1.0,210.0,0.0,0.0
1269,71.0,57.0,60.0,0.0,0.0
1270,76.0,44.0,60.0,0.0,0.0
1271,74.0,97.0,60.0,0.0,0.0
1272,50.0,51.0,240.0,4.0,0.0
1273,31.0,98.0,300.0,6.0,0.0
1274,79.0,15.0,90.0,0.0,0.0
1275,59.0,66.0,90.0,0.0,0.0
1276,43.0,22.0,150.0,5.0,0.0
1277,59.0,20.0,180.0,3.0,0.0
1278,67.0,10.0,240.0,2.0,0.0
1279,50.0,51.0,240.0,0.0,0.0
1280,83.0,82.0,60.0,0.0,0.0
1281,88.0,9.0,90.0,0.0,0.0
1282,86.0,88.0,90.0,0.0,0.0
1283,79.0,30.0,90.0,0.0,0.0
1284,50.0,38.0,180.0,4.0,0.0
1285,43.0,39.0,210.0,5.0,0.0
1286,59.0,15.0,150.0,3.0,0.0
1287,43.0,11.0,240.0,0.0,0.0
1288,31.0,24.0,240.0,6.0,0.0
1289,67.0,102.0,270.0,2.0,0.0
1290,67.0,69.0,510.0,7.0,0.0
1291,50.0,5.0,210.0,0.0,0.0
1292,71.0,54.0,90.0,0.0,0.0
1293,76.0,56.0,90.0,0.0,0.0
1294,74.0,37.0,60.0,0.0,0.0
1295,59.0,238.0,120.0,0.0,0.0
1296,79.0,23.0,90.0,0.0,0.0
1297,50.0,3.0,210.0,0.0,0.0
1298,83.0,99.0,90.0,0.0,0.0
1299,88.0,31.0,90.0,0.0,0.0
1300,86.0,152.0,60.0,0.0,0.0
1301,43.0,72.0,270.0,0.0,0.0
1302,79.0,119.0,150.0,0.0,0.0
1303,50.0,40.0,60.0,0.0,0.0
1304,83.0,71.0,60.0,0.0,0.0
1305,88.0,62.0,60.0,0.0,0.0
1306,86.0,94.0,60.0,0.0,0.0
1307,79.0,22.0,90.0,0.0,0.0
1308,62.0,318.0,60.0,0.0,0.0
1309,50.0,85.0,90.0,0.0,0.0
1310,83.0,98.0,90.0,0.0,0.0
1311,88.0,97.0,90.0,0.0,0.0
1312,86.0,132.0,120.0,0.0,0.0
1313,43.0,984.0,90.0,0.0,0.0
1314,91.0,16.0,60.0,0.0,0.0
1315,79.0,66.0,690.0,2.0,0.0
1316,71.0,17.0,750.0,3.0,0.0
1317,74.0,560.0,750.0,4.0,0.0
1318,77.0,223.0,750.0,2.0,0.0
1319,69.0,22.0,660.0,3.0,0.0
1320,72.0,21.0,630.0,4.0,0.0
1321,67.0,28.0,300.0,3.0,0.0
1322,71.0,21.0,330.0,4.0,0.0
1323,76.0,175.0,330.0,2.0,0.0
1324,69.0,18.0,270.0,3.0,0.0
1325,72.0,236.0,270.0,4.0,0.0
1326,77.0,1.0,240.0,2.0,0.0
1327,67.0,37.0,360.0,3.0,0.0
1328,71.0,604.0,390.0,4.0,0.0
1329,76.0,69.0,270.0,2.0,0.0
1330,74.0,20.0,750.0,2.0,0.0
1331,69.0,503.0,750.0,4.0,0.0
1332,65.0,22.0,720.0,3.0,0.0
1333,71.0,2.0,690.0,2.0,0.0
1334,62.0,81.0,600.0,3.0,0.0
1335,65.0,1.0,2850.0,4.0,0.0
1336,43.0,82.0,660.0,5.0,0.0
1337,60.0,667.0,420.0,3.0,0.0
1338,69.0,149.0,180.0,2.0,0.0
1339,45.0,90.0,300.0,5.0,0.0
1340,69.0,409.0,1500.0,2.0,0.0
1341,62.0,494.0,900.0,3.0,0.0
1342,47.0,31.0,840.0,5.0,0.0
1343,48.0,48.0,630.0,5.0,0.0
1344,60.0,64.0,540.0,3.0,0.0
1345,59.0,44.0,690.0,3.0,0.0
1346,50.0,195.0,750.0,5.0,0.0
1347,67.0,52.0,630.0,0.0,0.0
1348,67.0,70.0,510.0,2.0,0.0
1349,60.0,11.0,1680.0,3.0,0.0
1350,52.0,94.0,900.0,0.0,0.0
1351,48.0,13.0,2130.0,0.0,0.0
1352,67.0,23.0,1560.0,2.0,0.0
1353,64.0,27.0,1320.0,4.0,0.0
1354,48.0,57.0,2310.0,5.0,0.0
1355,64.0,304.0,240.0,0.0,0.0
1356,76.0,217.0,390.0,0.0,0.0
1357,55.0,13.0,300.0,0.0,0.0
1358,60.0,270.0,180.0,0.0,0.0
1359,76.0,18.0,60.0,0.0,0.0
1360,55.0,57.0,270.0,0.0,0.0
1361,77.0,56.0,90.0,0.0,0.0
1362,52.0,24.0,480.0,0.0,0.0
1363,76.0,51.0,120.0,0.0,0.0
1364,60.0,18.0,1050.0,4.0,0.0
1365,64.0,258.0,1140.0,2.0,0.0
1366,55.0,21.0,1050.0,3.0,0.0
1367,71.0,84.0,60.0,0.0,0.0
1368,72.0,63.0,60.0,0.0,0.0
1369,55.0,1.0,270.0,0.0,0.0
1370,74.0,10.0,60.0,0.0,0.0
1371,76.0,56.0,30.0,0.0,0.0
1372,77.0,47.0,60.0,0.0,0.0
1373,79.0,20.0,30.0,0.0,0.0
1374,81.0,24.0,60.0,0.0,0.0
1375,60.0,35.0,150.0,0.0,0.0
1376,83.0,70.0,30.0,0.0,0.0
1377,84.0,50.0,60.0,0.0,0.0
1378,86.0,2.0,60.0,0.0,0.0
1379,88.0,43.0,30.0,0.0,0.0
1380,83.0,53.0,30.0,0.0,0.0
1381,84.0,36.0,60.0,0.0,0.0
1382,55.0,19.0,60.0,0.0,0.0
1383,75.0,46.0,60.0,0.0,0.0
1384,76.0,68.0,60.0,0.0,0.0
1385,83.0,62.0,60.0,0.0,0.0
1386,81.0,29.0,90.0,0.0,0.0
1387,79.0,6.0,90.0,0.0,0.0
1388,50.0,14.0,420.0,0.0,0.0
1389,43.0,47.0,360.0,0.0,0.0
1390,43.0,49.0,2520.0,5.0,0.0
1391,55.0,147.0,3180.0,3.0,0.0
1392,62.0,9.0,2490.0,2.0,0.0
1393,79.0,2.0,330.0,0.0,0.0
1394,60.0,24.0,1680.0,4.0,0.0
1395,55.0,228.0,60.0,0.0,0.0
1396,60.0,212.0,90.0,0.0,0.0
1397,77.0,26.0,60.0,0.0,0.0
1398,55.0,112.0,30.0,0.0,0.0
1399,76.0,383.0,60.0,0.0,0.0
1400,50.0,11.0,390.0,0.0,0.0
1401,43.0,30.0,330.0,0.0,0.0
1402,72.0,33.0,240.0,0.0,0.0
1403,74.0,26.0,120.0,0.0,0.0
1404,76.0,25.0,60.0,0.0,0.0
1405,53.0,33.0,60.0,0.0,0.0
1406,74.0,33.0,30.0,0.0,0.0
1407,76.0,46.0,20.0,0.0,0.0
1408,74.0,22.0,30.0,0.0,0.0
1409,76.0,86.0,20.0,0.0,0.0
1410,74.0,9.0,90.0,0.0,0.0
1411,76.0,27.0,30.0,0.0,0.0
1412,59.0,19.0,60.0,0.0,0.0
1413,59.0,12.0,810.0,4.0,0.0
1414,76.0,69.0,60.0,0.0,0.0
1415,74.0,29.0,150.0,0.0,0.0
1416,71.0,57.0,60.0,0.0,0.0
1417,76.0,65.0,30.0,0.0,0.0
1418,74.0,41.0,60.0,0.0,0.0
1419,76.0,34.0,60.0,0.0,0.0
1420,74.0,8.0,30.0,0.0,0.0
1421,53.0,40.0,30.0,0.0,0.0
1422,76.0,34.0,60.0,0.0,0.0
1423,74.0,160.0,60.0,0.0,0.0
1424,72.0,16.0,90.0,0.0,0.0
1425,69.0,102.0,90.0,0.0,0.0
1426,74.0,71.0,120.0,0.0,0.0
1427,36.0,47.0,210.0,0.0,0.0
1428,64.0,9.0,690.0,2.0,0.0
1429,48.0,7.0,690.0,5.0,0.0
1430,36.0,0.0,690.0,6.0,0.0
1431,76.0,52.0,360.0,0.0,0.0
1432,67.0,100.0,240.0,0.0,0.0
1433,60.0,24.0,660.0,4.0,0.0
1434,48.0,92.0,150.0,0.0,0.0
1435,60.0,240.0,30.0,0.0,0.0
1436,41.0,9.0,630.0,6.0,0.0
1437,57.0,106.0,510.0,0.0,0.0
1438,77.0,49.0,60.0,0.0,0.0
1439,65.0,8.0,30.0,0.0,0.0
1440,41.0,2.0,630.0,5.0,0.0
1441,72.0,18.0,60.0,0.0,0.0
1442,57.0,42.0,630.0,3.0,0.0
1443,60.0,53.0,360.0,2.0,0.0
1444,79.0,124.0,60.0,0.0,0.0
1445,67.0,4.0,30.0,0.0,0.0
1446,60.0,9.0,300.0,0.0,0.0
1447,62.0,239.0,360.0,2.0,0.0
1448,77.0,1.0,60.0,0.0,0.0
1449,65.0,59.0,60.0,0.0,0.0
1450,55.0,49.0,390.0,0.0,0.0
1451,36.0,65.0,960.0,6.0,0.0
1452,55.0,120.0,600.0,3.0,0.0
1453,64.0,6.0,600.0,2.0,0.0
1454,76.0,6.0,330.0,0.0,0.0
1455,64.0,139.0,390.0,0.0,0.0
1456,36.0,11.0,1080.0,5.0,0.0
1457,60.0,8.0,60.0,0.0,0.0
1458,67.0,10.0,30.0,0.0,0.0
1459,52.0,36.0,60.0,0.0,0.0
1460,67.0,30.0,480.0,2.0,0.0
1461,60.0,45.0,510.0,3.0,0.0
1462,52.0,453.0,540.0,4.0,0.0
1463,74.0,100.0,30.0,0.0,0.0
1464,62.0,6.0,30.0,0.0,0.0
1465,55.0,61.0,60.0,0.0,0.0
1466,60.0,18.0,30.0,0.0,0.0
1467,72.0,47.0,60.0,0.0,0.0
1468,43.0,46.0,2910.0,5.0,0.0
1469,43.0,14.0,2790.0,6.0,0.0
1470,50.0,8.0,1260.0,4.0,0.0
1471,67.0,295.0,2100.0,2.0,0.0
1472,60.0,86.0,1290.0,3.0,0.0
1473,43.0,25.0,600.0,0.0,0.0
1474,62.0,126.0,450.0,0.0,0.0
1475,67.0,8.0,540.0,0.0,0.0
1476,72.0,4.0,570.0,0.0,0.0
1477,74.0,251.0,540.0,0.0,0.0
1478,50.0,33.0,240.0,0.0,0.0
1479,55.0,12.0,60.0,0.0,0.0
1480,60.0,287.0,30.0,0.0,0.0
1481,59.0,6.0,180.0,0.0,0.0
1482,62.0,2.0,120.0,0.0,0.0
1483,59.0,41.0,1650.0,3.0,0.0
1484,67.0,35.0,60.0,0.0,0.0
1485,55.0,1.0,2430.0,4.0,0.0
1486,71.0,28.0,60.0,0.0,0.0
1487,43.0,2.0,90.0,0.0,0.0
1488,74.0,397.0,60.0,0.0,0.0
1489,50.0,245.0,90.0,0.0,0.0
1490,55.0,3.0,90.0,0.0,0.0
1491,65.0,29.0,60.0,0.0,0.0
1492,69.0,11.0,90.0,0.0,0.0
1493,65.0,30.0,810.0,2.0,0.0
1494,59.0,342.0,60.0,0.0,0.0
1495,60.0,15.0,150.0,0.0,0.0
1496,64.0,24.0,120.0,0.0,0.0
1497,67.0,31.0,60.0,0.0,0.0
1498,36.0,179.0,1110.0,6.0,0.0
1499,64.0,27.0,810.0,2.0,0.0
1500,60.0,3.0,1050.0,3.0,0.0
1501,48.0,48.0,750.0,5.0,0.0
1502,36.0,20.0,120.0,0.0,0.0
1503,76.0,417.0,60.0,0.0,0.0
1504,48.0,187.0,90.0,0.0,0.0
1505,55.0,0.0,450.0,0.0,0.0
1506,76.0,203.0,60.0,0.0,0.0
1507,58.0,134.0,300.0,0.0,0.0
1508,77.0,128.0,60.0,0.0,0.0
1509,60.0,2.0,420.0,0.0,0.0
1510,64.0,65.0,120.0,0.0,0.0
1511,76.0,12.0,240.0,0.0,0.0
1512,70.0,67.0,180.0,0.0,0.0
1513,71.0,131.0,60.0,0.0,0.0
1514,72.0,94.0,90.0,0.0,0.0
1515,75.0,56.0,90.0,0.0,0.0
1516,55.0,88.0,330.0,0.0,0.0
1517,76.0,135.0,30.0,0.0,0.0
1518,86.0,46.0,60.0,0.0,0.0
1519,58.0,57.0,750.0,0.0,0.0
1520,64.0,102.0,1530.0,4.0,0.0
1521,36.0,51.0,1470.0,6.0,0.0
1522,84.0,359.0,30.0,0.0,0.0
1523,72.0,44.0,1410.0,2.0,0.0
1524,48.0,0.0,1440.0,5.0,0.0
1525,58.0,219.0,1590.0,3.0,0.0
1526,60.0,67.0,150.0,0.0,0.0
1527,62.0,99.0,90.0,0.0,0.0
1528,60.0,50.0,90.0,0.0,0.0
1529,59.0,99.0,60.0,0.0,0.0
1530,48.0,51.0,420.0,0.0,0.0
1531,60.0,14.0,90.0,0.0,0.0
1532,62.0,38.0,60.0,0.0,0.0
1533,64.0,67.0,60.0,0.0,0.0
1534,65.0,43.0,60.0,0.0,0.0
1535,67.0,34.0,60.0,0.0,0.0
1536,69.0,22.0,30.0,0.0,0.0
1537,70.0,38.0,30.0,0.0,0.0
1538,71.0,69.0,30.0,0.0,0.0
1539,72.0,52.0,60.0,0.0,0.0
1540,74.0,35.0,60.0,0.0,0.0
1541,76.0,62.0,60.0,0.0,0.0
1542,77.0,113.0,60.0,0.0,0.0
1543,79.0,4.0,120.0,0.0,0.0
1544,41.0,50.0,480.0,0.0,0.0
1545,81.0,1352.0,1500.0,0.0,0.0
1546,41.0,32.0,3870.0,5.0,0.0
1547,29.0,311.0,3900.0,6.0,0.0
1548,57.0,275.0,4920.0,3.0,0.0
1549,72.0,56.0,4590.0,2.0,0.0
1550,65.0,31.0,4890.0,4.0,0.0
1551,48.0,132.0,210.0,0.0,0.0
1552,53.0,290.0,150.0,0.0,0.0
1553,57.0,598.0,270.0,0.0,0.0
1554,60.0,82.0,2160.0,0.0,0.0
1555,57.0,24.0,1980.0,0.0,0.0
1556,65.0,140.0,1350.0,0.0,0.0
1557,81.0,43.0,180.0,0.0,0.0
1558,79.0,585.0,90.0,0.0,0.0
1559,77.0,157.0,120.0,0.0,0.0
1560,38.0,53.0,480.0,0.0,0.0
1561,65.0,19.0,660.0,0.0,0.0
1562,69.0,16.0,660.0,0.0,0.0
1563,72.0,18.0,660.0,0.0,0.0
1564,77.0,2.0,630.0,0.0,0.0
1565,38.0,16.0,1080.0,5.0,0.0
1566,50.0,179.0,120.0,0.0,0.0
1567,69.0,45.0,450.0,2.0,0.0
1568,57.0,142.0,60.0,0.0,0.0
1569,60.0,171.0,60.0,0.0,0.0
1570,43.0,6.0,1170.0,5.0,0.0
1571,59.0,0.0,1080.0,3.0,0.0
1572,50.0,93.0,600.0,4.0,0.0
1573,43.0,4.0,360.0,0.0,0.0
1574,69.0,110.0,690.0,2.0,0.0
1575,65.0,28.0,270.0,0.0,0.0
1576,74.0,4.0,300.0,0.0,0.0
1577,72.0,144.0,300.0,0.0,0.0
1578,50.0,54.0,210.0,0.0,0.0
1579,55.0,11.0,60.0,0.0,0.0
1580,74.0,8.0,60.0,0.0,0.0
1581,71.0,27.0,30.0,0.0,0.0
1582,65.0,1.0,20.0,0.0,0.0
1583,67.0,115.0,270.0,2.0,0.0
1584,55.0,51.0,510.0,4.0,0.0
1585,59.0,23.0,30.0,0.0,0.0
1586,65.0,7.0,330.0,2.0,0.0
1587,76.0,117.0,90.0,0.0,0.0
1588,45.0,40.0,120.0,0.0,0.0
1589,60.0,21.0,600.0,3.0,0.0
1590,45.0,79.0,510.0,5.0,0.0
1591,72.0,157.0,180.0,0.0,0.0
1592,64.0,37.0,150.0,0.0,0.0
1593,57.0,51.0,720.0,4.0,0.0
1594,64.0,21.0,570.0,2.0,0.0
1595,60.0,151.0,30.0,0.0,0.0
1596,60.0,6.0,120.0,0.0,0.0
1597,65.0,32.0,120.0,0.0,0.0
1598,68.0,21.0,90.0,0.0,0.0
1599,72.0,55.0,60.0,0.0,0.0
1600,38.0,324.0,2010.0,5.0,0.0
1601,56.0,8.0,1260.0,4.0,0.0
1602,72.0,290.0,1260.0,2.0,0.0
1603,65.0,26.0,1230.0,3.0,0.0
1604,38.0,416.0,90.0,0.0,0.0
1605,77.0,20.0,60.0,0.0,0.0
1606,50.0,633.0,120.0,0.0,0.0
1607,53.0,85.0,480.0,0.0,0.0
1608,56.0,1.0,360.0,0.0,0.0
1609,60.0,16.0,1440.0,3.0,0.0
1610,68.0,24.0,720.0,2.0,0.0
1611,60.0,123.0,360.0,0.0,0.0
1612,50.0,8.0,1350.0,4.0,0.0
1613,50.0,192.0,180.0,0.0,0.0
1614,50.0,44.0,180.0,0.0,0.0
1615,67.0,19.0,750.0,2.0,0.0
1616,43.0,8.0,1260.0,5.0,0.0
1617,31.0,13.0,1230.0,6.0,0.0
1618,43.0,13.0,420.0,0.0,0.0
1619,74.0,28.0,420.0,0.0,0.0
1620,72.0,143.0,420.0,0.0,0.0
1621,65.0,36.0,360.0,0.0,0.0
1622,50.0,59.0,240.0,0.0,0.0
1623,55.0,61.0,570.0,4.0,0.0
1624,55.0,32.0,60.0,0.0,0.0
1625,74.0,130.0,180.0,0.0,0.0
1626,65.0,84.0,390.0,2.0,0.0
1627,59.0,69.0,630.0,3.0,0.0
1628,71.0,31.0,120.0,0.0,0.0
1629,65.0,15.0,90.0,0.0,0.0
1630,59.0,112.0,30.0,0.0,0.0
1631,62.0,93.0,360.0,2.0,0.0
1632,76.0,55.0,120.0,0.0,0.0
1633,48.0,7.0,2100.0,0.0,0.0
1634,72.0,21.0,270.0,0.0,0.0
1635,60.0,4.0,270.0,0.0,0.0
1636,64.0,270.0,300.0,0.0,0.0
1637,36.0,52.0,2010.0,6.0,0.0
1638,48.0,71.0,1920.0,4.0,0.0
1639,48.0,28.0,1860.0,5.0,0.0
1640,60.0,3.0,1830.0,3.0,0.0
1641,60.0,37.0,1860.0,2.0,0.0
1642,55.0,225.0,300.0,0.0,0.0
1643,69.0,97.0,360.0,0.0,0.0
1644,57.0,76.0,270.0,0.0,0.0
1645,65.0,48.0,420.0,0.0,0.0
1646,71.0,262.0,180.0,0.0,0.0
1647,56.0,623.0,420.0,0.0,0.0
1648,64.0,5.0,840.0,0.0,0.0
1649,72.0,387.0,870.0,0.0,0.0
1650,55.0,11.0,840.0,0.0,0.0
1651,64.0,129.0,570.0,7.0,0.0
1652,64.0,372.0,720.0,15.0,0.0
1653,60.0,24.0,690.0,15.0,0.0
1654,62.0,305.0,690.0,15.0,0.0
1655,59.0,68.0,480.0,15.0,0.0
1656,64.0,8.0,540.0,7.0,0.0
1657,76.0,63.0,300.0,0.0,0.0
1658,59.0,23.0,570.0,15.0,0.0
1659,79.0,46.0,60.0,0.0,0.0
1660,56.0,42.0,600.0,15.0,0.0
1661,77.0,48.0,480.0,0.0,0.0
1662,64.0,90.0,390.0,7.0,0.0
1663,56.0,29.0,630.0,3.0,0.0
1664,52.0,10.0,390.0,7.0,0.0
1665,59.0,16.0,600.0,2.0,0.0
1666,52.0,22.0,630.0,5.0,0.0
1667,40.0,6.0,600.0,6.0,0.0
1668,64.0,8.0,150.0,7.0,0.0
1669,52.0,11.0,120.0,7.0,0.0
1670,76.0,208.0,240.0,0.0,0.0
1671,60.0,10.0,360.0,15.0,0.0
1672,57.0,3.0,360.0,15.0,0.0
1673,45.0,11.0,360.0,0.0,0.0
1674,64.0,3.0,630.0,7.0,0.0
1675,52.0,7.0,600.0,7.0,0.0
1676,57.0,1.0,300.0,3.0,0.0
1677,60.0,25.0,360.0,2.0,0.0
1678,45.0,5.0,270.0,5.0,0.0
1679,81.0,40.0,270.0,0.0,0.0
1680,33.0,211.0,3690.0,6.0,0.0
1681,59.0,2.0,360.0,3.0,0.0
1682,62.0,131.0,390.0,2.0,0.0
1683,52.0,208.0,60.0,0.0,0.0
1684,57.0,6.0,240.0,4.0,0.0
1685,64.0,10.0,420.0,2.0,0.0
1686,48.0,93.0,210.0,5.0,0.0
1687,60.0,82.0,330.0,3.0,0.0
1688,60.0,7.0,60.0,0.0,0.0
1689,76.0,27.0,60.0,0.0,0.0
1690,59.0,57.0,240.0,4.0,0.0
1691,50.0,143.0,300.0,5.0,0.0
1692,59.0,20.0,60.0,0.0,0.0
1693,50.0,13.0,180.0,0.0,0.0
1694,48.0,1.0,300.0,0.0,0.0
1695,57.0,22.0,300.0,0.0,0.0
1696,57.0,23.0,240.0,3.0,0.0
1697,52.0,5.0,480.0,5.0,0.0
1698,60.0,20.0,240.0,4.0,0.0
1699,76.0,34.0,180.0,0.0,0.0
1700,60.0,17.0,270.0,2.0,0.0
1701,77.0,67.0,150.0,0.0,0.0
1702,59.0,25.0,300.0,3.0,0.0
1703,62.0,137.0,330.0,2.0,0.0
1704,52.0,4.0,480.0,0.0,0.0
1705,76.0,60.0,120.0,0.0,0.0
1706,74.0,53.0,90.0,0.0,0.0
1707,76.0,57.0,120.0,0.0,0.0
1708,48.0,1.0,270.0,5.0,0.0
1709,57.0,3.0,240.0,4.0,0.0
1710,60.0,3.0,240.0,3.0,0.0
1711,77.0,8.0,240.0,0.0,0.0
1712,60.0,12.0,240.0,0.0,0.0
1713,64.0,94.0,360.0,2.0,0.0
1714,60.0,179.0,270.0,4.0,0.0
1715,52.0,3.0,270.0,5.0,0.0
1716,72.0,85.0,90.0,0.0,0.0
1717,57.0,34.0,30.0,0.0,0.0
1718,45.0,21.0,240.0,0.0,0.0
1719,53.0,6.0,480.0,5.0,0.0
1720,62.0,6.0,270.0,4.0,0.0
1721,59.0,2.0,210.0,3.0,0.0
1722,76.0,163.0,300.0,0.0,0.0
1723,62.0,28.0,240.0,2.0,0.0
1724,60.0,21.0,270.0,3.0,0.0
1725,64.0,121.0,300.0,2.0,0.0
1726,53.0,32.0,30.0,0.0,0.0
1727,50.0,10.0,240.0,5.0,0.0
1728,62.0,34.0,60.0,0.0,0.0
1729,59.0,25.0,210.0,4.0,0.0
1730,62.0,6.0,210.0,3.0,0.0
1731,65.0,12.0,360.0,2.0,0.0
1732,74.0,42.0,120.0,0.0,0.0
1733,60.0,137.0,330.0,4.0,0.0
1734,52.0,42.0,270.0,5.0,0.0
1735,52.0,17.0,120.0,0.0,0.0
1736,60.0,50.0,60.0,0.0,0.0
1737,72.0,32.0,120.0,0.0,0.0
1738,71.0,76.0,60.0,0.0,0.0
1739,50.0,11.0,300.0,0.0,0.0
1740,59.0,17.0,240.0,3.0,0.0
1741,59.0,24.0,270.0,0.0,0.0
1742,62.0,9.0,240.0,4.0,0.0
1743,71.0,80.0,360.0,0.0,0.0
1744,62.0,1.0,270.0,2.0,0.0
1745,53.0,6.0,420.0,5.0,0.0
1746,53.0,82.0,90.0,0.0,0.0
1747,60.0,43.0,240.0,3.0,0.0
1748,64.0,124.0,270.0,2.0,0.0
1749,62.0,6.0,60.0,0.0,0.0
1750,59.0,12.0,210.0,4.0,0.0
1751,50.0,1.0,210.0,5.0,0.0
1752,62.0,17.0,180.0,3.0,0.0
1753,65.0,85.0,330.0,2.0,0.0
1754,60.0,26.0,270.0,4.0,0.0
1755,59.0,31.0,30.0,0.0,0.0
1756,52.0,15.0,300.0,5.0,0.0
1757,65.0,107.0,60.0,0.0,0.0
1758,59.0,109.0,330.0,3.0,0.0
1759,62.0,17.0,300.0,2.0,0.0
1760,62.0,0.0,300.0,4.0,0.0
1761,53.0,13.0,570.0,5.0,0.0
1762,44.0,24.0,420.0,0.0,0.0
1763,32.0,190.0,2220.0,6.0,0.0
1764,84.0,17.0,330.0,0.0,0.0
1765,64.0,32.0,330.0,2.0,0.0
1766,60.0,25.0,270.0,3.0,0.0
1767,53.0,102.0,120.0,0.0,0.0
1768,83.0,40.0,240.0,0.0,0.0
1769,50.0,5.0,300.0,5.0,0.0
1770,59.0,14.0,270.0,4.0,0.0
1771,65.0,26.0,390.0,2.0,0.0
1772,62.0,108.0,60.0,0.0,0.0
1773,81.0,34.0,180.0,0.0,0.0
1774,62.0,48.0,210.0,3.0,0.0
1775,80.0,98.0,120.0,0.0,0.0
1776,52.0,12.0,270.0,5.0,0.0
1777,60.0,1.0,210.0,4.0,0.0
1778,60.0,7.0,60.0,0.0,0.0
1779,52.0,34.0,180.0,0.0,0.0
1780,81.0,123.0,180.0,0.0,0.0
1781,50.0,42.0,390.0,0.0,0.0
1782,59.0,15.0,240.0,0.0,0.0
1783,59.0,32.0,240.0,3.0,0.0
1784,53.0,21.0,510.0,5.0,0.0
1785,62.0,1.0,270.0,2.0,0.0
1786,62.0,1.0,240.0,4.0,0.0
1787,83.0,63.0,150.0,0.0,0.0
1788,74.0,36.0,120.0,0.0,0.0
1789,60.0,10.0,270.0,3.0,0.0
1790,64.0,4.0,300.0,2.0,0.0
1791,76.0,37.0,120.0,0.0,0.0
1792,53.0,34.0,60.0,0.0,0.0
1793,77.0,77.0,60.0,0.0,0.0
1794,62.0,26.0,60.0,0.0,0.0
1795,50.0,36.0,360.0,5.0,0.0
1796,62.0,16.0,270.0,3.0,0.0
1797,65.0,24.0,600.0,2.0,0.0
1798,59.0,28.0,240.0,4.0,0.0
1799,69.0,35.0,30.0,0.0,0.0
1800,71.0,73.0,30.0,0.0,0.0
1801,69.0,70.0,60.0,0.0,0.0
1802,68.0,64.0,120.0,0.0,0.0
1803,62.0,69.0,420.0,4.0,0.0
1804,71.0,27.0,120.0,0.0,0.0
1805,59.0,65.0,120.0,0.0,0.0
1806,53.0,1.0,420.0,5.0,0.0
1807,74.0,87.0,120.0,0.0,0.0
1808,79.0,43.0,90.0,0.0,0.0
1809,77.0,32.0,150.0,0.0,0.0
1810,60.0,22.0,330.0,4.0,0.0
1811,45.0,20.0,330.0,0.0,0.0
1812,60.0,5.0,360.0,2.0,0.0
1813,57.0,18.0,300.0,3.0,0.0
1814,76.0,87.0,420.0,0.0,0.0
1815,33.0,73.0,1950.0,6.0,0.0
1816,52.0,13.0,480.0,5.0,0.0
1817,62.0,29.0,300.0,2.0,0.0
1818,52.0,100.0,60.0,0.0,0.0
1819,59.0,145.0,300.0,3.0,0.0
1820,60.0,15.0,90.0,0.0,0.0
1821,57.0,4.0,240.0,4.0,0.0
1822,48.0,59.0,270.0,5.0,0.0
1823,64.0,4.0,480.0,2.0,0.0
1824,60.0,8.0,240.0,3.0,0.0
1825,74.0,9.0,150.0,0.0,0.0
1826,59.0,8.0,300.0,4.0,0.0
1827,59.0,58.0,120.0,0.0,0.0
1828,50.0,3.0,270.0,0.0,0.0
1829,50.0,250.0,330.0,5.0,0.0
1830,76.0,86.0,120.0,0.0,0.0
1831,74.0,13.0,120.0,0.0,0.0
1832,72.0,45.0,60.0,0.0,0.0
1833,57.0,10.0,330.0,3.0,0.0
1834,48.0,18.0,360.0,0.0,0.0
1835,60.0,5.0,300.0,2.0,0.0
1836,52.0,23.0,510.0,5.0,0.0
1837,57.0,32.0,300.0,0.0,0.0
1838,60.0,121.0,360.0,4.0,0.0
1839,72.0,13.0,300.0,0.0,0.0
1840,59.0,50.0,300.0,3.0,0.0
1841,62.0,176.0,330.0,2.0,0.0
1842,52.0,8.0,210.0,0.0,0.0
1843,48.0,20.0,270.0,5.0,0.0
1844,57.0,7.0,270.0,4.0,0.0
1845,60.0,130.0,270.0,0.0,0.0
1846,64.0,70.0,390.0,2.0,0.0
1847,60.0,7.0,210.0,3.0,0.0
1848,50.0,63.0,390.0,5.0,0.0
1849,59.0,25.0,330.0,4.0,0.0
1850,52.0,206.0,390.0,0.0,0.0
1851,60.0,46.0,360.0,3.0,0.0
1852,60.0,15.0,300.0,4.0,0.0
1853,52.0,42.0,570.0,5.0,0.0
1854,64.0,15.0,300.0,2.0,0.0
1855,45.0,2.0,360.0,0.0,0.0
1856,33.0,15.0,1050.0,6.0,0.0
1857,64.0,56.0,360.0,0.0,0.0
1858,62.0,45.0,330.0,3.0,0.0
1859,65.0,155.0,360.0,2.0,0.0
1860,52.0,127.0,90.0,0.0,0.0
1861,60.0,16.0,630.0,3.0,0.0
1862,48.0,22.0,330.0,5.0,0.0
1863,64.0,16.0,510.0,2.0,0.0
1864,57.0,59.0,240.0,4.0,0.0
1865,69.0,22.0,210.0,0.0,0.0
1866,60.0,7.0,60.0,0.0,0.0
1867,52.0,38.0,300.0,5.0,0.0
1868,57.0,2.0,60.0,0.0,0.0
1869,60.0,37.0,300.0,4.0,0.0
1870,48.0,151.0,60.0,0.0,0.0
1871,50.0,22.0,180.0,0.0,0.0
1872,59.0,7.0,300.0,3.0,0.0
1873,71.0,87.0,180.0,0.0,0.0
1874,53.0,2.0,480.0,5.0,0.0
1875,62.0,7.0,270.0,2.0,0.0
1876,38.0,1.0,450.0,6.0,0.0
1877,56.0,13.0,240.0,4.0,0.0
1878,72.0,12.0,120.0,0.0,0.0
1879,57.0,3.0,270.0,3.0,0.0
1880,60.0,137.0,360.0,2.0,0.0
1881,53.0,43.0,60.0,0.0,0.0
1882,71.0,75.0,90.0,0.0,0.0
1883,70.0,60.0,90.0,0.0,0.0
1884,71.0,85.0,90.0,0.0,0.0
1885,50.0,12.0,300.0,5.0,0.0
1886,56.0,22.0,510.0,3.0,0.0
1887,59.0,16.0,480.0,2.0,0.0
1888,59.0,146.0,330.0,4.0,0.0
1889,72.0,12.0,90.0,0.0,0.0
1890,65.0,0.0,90.0,0.0,0.0
1891,56.0,58.0,30.0,0.0,0.0
1892,59.0,5.0,20.0,0.0,0.0
1893,62.0,7.0,270.0,4.0,0.0
1894,53.0,141.0,270.0,5.0,0.0
1895,74.0,1.0,150.0,0.0,0.0
1896,57.0,32.0,360.0,3.0,0.0
1897,60.0,55.0,360.0,2.0,0.0
1898,48.0,27.0,270.0,0.0,0.0
1899,76.0,49.0,210.0,0.0,0.0
1900,60.0,8.0,270.0,4.0,0.0
1901,33.0,13.0,930.0,6.0,0.0
1902,52.0,84.0,390.0,5.0,0.0
1903,52.0,31.0,90.0,0.0,0.0
1904,62.0,82.0,360.0,2.0,0.0
1905,59.0,33.0,210.0,3.0,0.0
1906,81.0,3.0,120.0,0.0,0.0
1907,57.0,33.0,330.0,4.0,0.0
1908,48.0,18.0,300.0,5.0,0.0
1909,64.0,3.0,510.0,2.0,0.0
1910,60.0,24.0,480.0,3.0,0.0
1911,60.0,58.0,60.0,0.0,0.0
1912,69.0,69.0,180.0,0.0,0.0
1913,60.0,12.0,300.0,4.0,0.0
1914,57.0,3.0,240.0,0.0,0.0
1915,48.0,106.0,90.0,0.0,0.0
1916,52.0,94.0,300.0,5.0,0.0
1917,70.0,39.0,120.0,0.0,0.0
1918,59.0,1.0,360.0,3.0,0.0
1919,50.0,100.0,180.0,0.0,0.0
1920,62.0,29.0,330.0,2.0,0.0
1921,62.0,8.0,270.0,4.0,0.0
1922,38.0,1.0,510.0,6.0,0.0
1923,53.0,26.0,510.0,5.0,0.0
1924,71.0,1.0,120.0,0.0,0.0
1925,72.0,34.0,120.0,0.0,0.0
1926,53.0,20.0,60.0,0.0,0.0
1927,70.0,62.0,90.0,0.0,0.0
1928,60.0,19.0,420.0,2.0,0.0
1929,57.0,22.0,300.0,3.0,0.0
1930,71.0,88.0,60.0,0.0,0.0
1931,72.0,17.0,90.0,0.0,0.0
1932,65.0,18.0,60.0,0.0,0.0
1933,73.0,71.0,90.0,0.0,0.0
1934,59.0,13.0,270.0,4.0,0.0
1935,50.0,5.0,300.0,5.0,0.0
1936,56.0,164.0,480.0,3.0,0.0
1937,59.0,35.0,390.0,2.0,0.0
1938,74.0,30.0,90.0,0.0,0.0
1939,72.0,44.0,90.0,0.0,0.0
1940,59.0,15.0,30.0,0.0,0.0
1941,56.0,0.0,60.0,0.0,0.0
1942,62.0,49.0,300.0,4.0,0.0
1943,53.0,2.0,270.0,5.0,0.0
1944,73.0,47.0,90.0,0.0,0.0
1945,74.0,98.0,60.0,0.0,0.0
1946,75.0,5.0,150.0,0.0,0.0
1947,48.0,96.0,630.0,0.0,0.0
1948,52.0,51.0,450.0,5.0,0.0
1949,60.0,5.0,270.0,4.0,0.0
1950,60.0,116.0,270.0,2.0,0.0
1951,76.0,84.0,480.0,0.0,0.0
1952,57.0,40.0,360.0,3.0,0.0
1953,33.0,69.0,1080.0,6.0,0.0
1954,59.0,9.0,330.0,3.0,0.0
1955,68.0,4.0,300.0,2.0,0.0
1956,52.0,12.0,180.0,0.0,0.0
1957,57.0,11.0,300.0,4.0,0.0
1958,48.0,35.0,300.0,5.0,0.0
1959,57.0,11.0,60.0,0.0,0.0
1960,74.0,84.0,180.0,0.0,0.0
1961,60.0,16.0,270.0,3.0,0.0
1962,69.0,12.0,720.0,2.0,0.0
1963,76.0,93.0,180.0,0.0,0.0
1964,50.0,39.0,330.0,5.0,0.0
1965,59.0,16.0,300.0,4.0,0.0
1966,52.0,9.0,30.0,0.0,0.0
1967,74.0,45.0,150.0,0.0,0.0
1968,72.0,57.0,90.0,0.0,0.0
1969,41.0,3.0,270.0,0.0,0.0
1970,72.0,103.0,150.0,0.0,0.0
1971,60.0,56.0,300.0,3.0,0.0
1972,51.0,2.0,270.0,5.0,0.0
1973,41.0,11.0,900.0,6.0,0.0
1974,60.0,8.0,240.0,4.0,0.0
1975,74.0,12.0,150.0,0.0,0.0
1976,51.0,5.0,60.0,0.0,0.0
1977,72.0,43.0,120.0,0.0,0.0
1978,57.0,64.0,270.0,3.0,0.0
1979,63.0,57.0,360.0,2.0,0.0
1980,48.0,36.0,420.0,5.0,0.0
1981,71.0,81.0,60.0,0.0,0.0
1982,71.0,59.0,150.0,0.0,0.0
1983,57.0,29.0,60.0,0.0,0.0
1984,56.0,12.0,270.0,3.0,0.0
1985,72.0,10.0,150.0,0.0,0.0
1986,71.0,70.0,150.0,0.0,0.0
1987,47.0,47.0,90.0,0.0,0.0
1988,47.0,49.0,240.0,5.0,0.0
1989,63.0,306.0,300.0,2.0,0.0
1990,57.0,13.0,270.0,3.0,0.0
1991,69.0,27.0,120.0,0.0,0.0
1992,40.0,17.0,360.0,6.0,0.0
1993,40.0,24.0,390.0,0.0,0.0
1994,52.0,145.0,1410.0,4.0,0.0
1995,64.0,10.0,1050.0,2.0,0.0
1996,47.0,35.0,1020.0,5.0,0.0
1997,68.0,10.0,360.0,0.0,0.0
1998,56.0,243.0,1080.0,3.0,0.0
1999,39.0,242.0,330.0,6.0,0.0
2000,47.0,185.0,90.0,0.0,0.0
2001,71.0,18.0,30.0,0.0,0.0
2002,56.0,23.0,60.0,0.0,0.0
2003,40.0,146.0,300.0,6.0,0.0
2004,47.0,6.0,90.0,0.0,0.0
2005,39.0,10.0,240.0,6.0,0.0
2006,56.0,14.0,60.0,0.0,0.0
2007,40.0,60.0,300.0,6.0,0.0
2008,47.0,46.0,270.0,0.0,0.0
2009,39.0,286.0,300.0,6.0,0.0
2010,40.0,240.0,450.0,0.0,0.0
2011,40.0,85.0,360.0,6.0,0.0
2012,47.0,3.0,420.0,0.0,0.0
2013,39.0,366.0,420.0,6.0,0.0
2014,59.0,2.0,3240.0,14.0,0.0
2015,71.0,40.0,3240.0,14.0,0.0
2016,40.0,7.0,690.0,6.0,0.0
2017,40.0,189.0,480.0,0.0,0.0
2018,59.0,39.0,390.0,0.0,0.0
2019,71.0,22.0,420.0,0.0,0.0
2020,55.0,71.0,1500.0,15.0,0.0
2021,52.0,5.0,1470.0,15.0,0.0
2022,47.0,43.0,300.0,0.0,0.0
2023,73.0,182.0,90.0,0.0,0.0
2024,55.0,13.0,270.0,0.0,0.0
2025,61.0,21.0,60.0,0.0,0.0
2026,75.0,66.0,60.0,0.0,0.0
2027,47.0,124.0,120.0,0.0,0.0
2028,63.0,13.0,20.0,0.0,0.0
2029,64.0,22.0,20.0,0.0,0.0
2030,55.0,36.0,90.0,0.0,0.0
2031,76.0,42.0,30.0,0.0,0.0
2032,78.0,45.0,60.0,0.0,0.0
2033,76.0,79.0,60.0,0.0,0.0
2034,47.0,251.0,270.0,0.0,0.0
2035,75.0,5.0,30.0,0.0,0.0
2036,63.0,106.0,30.0,0.0,0.0
2037,76.0,12.0,60.0,0.0,0.0
2038,64.0,23.0,30.0,0.0,0.0
2039,40.0,77.0,390.0,0.0,0.0
2040,52.0,139.0,660.0,15.0,0.0
2041,55.0,8.0,660.0,15.0,0.0
2042,78.0,62.0,270.0,0.0,0.0
2043,66.0,27.0,240.0,0.0,0.0
2044,47.0,5.0,60.0,0.0,0.0
2045,79.0,193.0,30.0,0.0,0.0
2046,67.0,8.0,20.0,0.0,0.0
2047,39.0,55.0,270.0,0.0,0.0
2048,78.0,143.0,330.0,0.0,0.0
2049,66.0,15.0,330.0,0.0,0.0
2050,54.0,9.0,1140.0,15.0,0.0
2051,51.0,55.0,1140.0,15.0,0.0
2052,47.0,15.0,60.0,0.0,0.0
2053,54.0,214.0,60.0,0.0,0.0
2054,47.0,119.0,150.0,0.0,0.0
2055,83.0,1.0,30.0,0.0,0.0
2056,71.0,103.0,30.0,0.0,0.0
2057,35.0,15.0,360.0,6.0,0.0
2058,71.0,106.0,30.0,0.0,0.0
2059,54.0,104.0,60.0,0.0,0.0
2060,71.0,84.0,480.0,0.0,0.0
2061,59.0,18.0,390.0,0.0,0.0
2062,34.0,210.0,360.0,6.0,0.0
2063,47.0,171.0,30.0,0.0,0.0
2064,39.0,20.0,60.0,0.0,0.0
2065,35.0,74.0,300.0,6.0,0.0
2066,37.0,185.0,540.0,6.0,0.0
2067,47.0,407.0,60.0,0.0,0.0
2068,38.0,17.0,750.0,6.0,0.0
2069,26.0,104.0,240.0,0.0,0.0
2070,70.0,11.0,300.0,0.0,0.0
2071,58.0,94.0,300.0,0.0,0.0
2072,38.0,164.0,60.0,0.0,0.0
2073,69.0,112.0,60.0,0.0,0.0
2074,57.0,15.0,30.0,0.0,0.0
2075,54.0,1.0,60.0,0.0,0.0
2076,68.0,130.0,30.0,0.0,0.0
2077,56.0,11.0,20.0,0.0,0.0
2078,69.0,100.0,60.0,0.0,0.0
2079,57.0,20.0,30.0,0.0,0.0
2080,45.0,39.0,90.0,0.0,0.0
2081,71.0,31.0,60.0,0.0,0.0
2082,59.0,9.0,30.0,0.0,0.0
2083,73.0,249.0,30.0,0.0,0.0
2084,61.0,10.0,20.0,0.0,0.0
2085,53.0,30.0,270.0,0.0,0.0
2086,62.0,74.0,180.0,0.0,0.0
2087,53.0,15.0,1080.0,15.0,0.0
2088,50.0,73.0,1080.0,15.0,0.0
2089,57.0,14.0,2010.0,14.0,0.0
2090,69.0,6.0,2010.0,14.0,0.0
2091,74.0,32.0,120.0,0.0,0.0
2092,45.0,18.0,330.0,0.0,0.0
2093,76.0,132.0,60.0,0.0,0.0
2094,64.0,19.0,20.0,0.0,0.0
2095,62.0,19.0,30.0,0.0,0.0
2096,74.0,32.0,30.0,0.0,0.0
2097,76.0,47.0,30.0,0.0,0.0
2098,74.0,37.0,30.0,0.0,0.0
2099,38.0,133.0,390.0,0.0,0.0
2100,61.0,118.0,20.0,0.0,0.0
2101,73.0,1.0,20.0,0.0,0.0
2102,74.0,84.0,60.0,0.0,0.0
2103,62.0,17.0,20.0,0.0,0.0
2104,45.0,30.0,90.0,0.0,0.0
2105,76.0,37.0,30.0,0.0,0.0
2106,64.0,20.0,15.0,0.0,0.0
2107,77.0,1.0,20.0,0.0,0.0
2108,65.0,35.0,15.0,0.0,0.0
2109,37.0,100.0,210.0,0.0,0.0
2110,52.0,1.0,930.0,15.0,0.0
2111,49.0,20.0,960.0,15.0,0.0
2112,76.0,36.0,120.0,0.0,0.0
2113,64.0,24.0,90.0,0.0,0.0
2114,81.0,118.0,30.0,0.0,0.0
2115,69.0,7.0,20.0,0.0,0.0
2116,45.0,62.0,30.0,0.0,0.0
2117,68.0,6.0,15.0,0.0,0.0
2118,80.0,81.0,20.0,0.0,0.0
2119,79.0,73.0,30.0,0.0,0.0
2120,67.0,1.0,30.0,0.0,0.0
2121,78.0,64.0,30.0,0.0,0.0
2122,66.0,7.0,20.0,0.0,0.0
2123,65.0,2.0,20.0,0.0,0.0
2124,77.0,13.0,20.0,0.0,0.0
2125,52.0,63.0,30.0,0.0,0.0
2126,64.0,8.0,30.0,0.0,0.0
2127,76.0,54.0,30.0,0.0,0.0
2128,75.0,7.0,30.0,0.0,0.0
2129,63.0,71.0,30.0,0.0,0.0
2130,74.0,21.0,30.0,0.0,0.0
2131,62.0,10.0,30.0,0.0,0.0
2132,45.0,45.0,60.0,0.0,0.0
2133,61.0,3.0,20.0,0.0,0.0
2134,73.0,3.0,15.0,0.0,0.0
2135,72.0,7.0,20.0,0.0,0.0
2136,60.0,76.0,20.0,0.0,0.0
2137,71.0,55.0,30.0,0.0,0.0
2138,59.0,10.0,30.0,0.0,0.0
2139,70.0,7.0,30.0,0.0,0.0
2140,58.0,352.0,30.0,0.0,0.0
2141,33.0,76.0,330.0,6.0,0.0
2142,69.0,225.0,1260.0,0.0,0.0
2143,57.0,7.0,1230.0,0.0,0.0
2144,52.0,24.0,300.0,0.0,0.0
2145,45.0,174.0,90.0,0.0,0.0
2146,32.0,193.0,300.0,6.0,0.0
2147,37.0,23.0,30.0,0.0,0.0
2148,33.0,285.0,240.0,6.0,0.0
2149,45.0,28.0,30.0,0.0,0.0
2150,35.0,129.0,300.0,6.0,0.0
2151,36.0,6.0,6120.0,6.0,0.0
2152,24.0,11.0,150.0,0.0,0.0
2153,67.0,5.0,30.0,0.0,0.0
2154,55.0,2.0,30.0,0.0,0.0
2155,36.0,238.0,30.0,0.0,0.0
2156,72.0,2.0,20.0,0.0,0.0
2157,60.0,40.0,20.0,0.0,0.0
2158,52.0,180.0,60.0,0.0,0.0
2159,43.0,49.0,390.0,0.0,0.0
2160,74.0,348.0,60.0,0.0,0.0
2161,62.0,11.0,30.0,0.0,0.0
2162,48.0,2.0,510.0,0.0,0.0
2163,76.0,255.0,240.0,0.0,0.0
2164,67.0,57.0,660.0,7.0,0.0
2165,64.0,19.0,210.0,0.0,0.0
2166,60.0,79.0,1740.0,14.0,0.0
2167,55.0,11.0,660.0,7.0,0.0
2168,64.0,5.0,1740.0,14.0,0.0
2169,43.0,15.0,240.0,0.0,0.0
2170,79.0,138.0,60.0,0.0,0.0
2171,67.0,2.0,30.0,0.0,0.0
2172,36.0,167.0,270.0,0.0,0.0
2173,67.0,203.0,240.0,7.0,0.0
2174,84.0,0.0,60.0,0.0,0.0
2175,72.0,13.0,30.0,0.0,0.0
2176,43.0,146.0,420.0,0.0,0.0
2177,55.0,15.0,210.0,7.0,0.0
2178,48.0,11.0,4140.0,5.0,0.0
2179,36.0,17.0,330.0,0.0,0.0
2180,67.0,8.0,1050.0,7.0,0.0
2181,55.0,77.0,1050.0,7.0,0.0
2182,55.0,56.0,1560.0,3.0,0.0
2183,64.0,14.0,1530.0,2.0,0.0
2184,88.0,6.0,300.0,0.0,0.0
2185,76.0,10.0,270.0,0.0,0.0
2186,48.0,441.0,30.0,0.0,0.0
2187,91.0,9.0,660.0,0.0,0.0
2188,79.0,32.0,690.0,0.0,0.0
2189,58.0,149.0,390.0,0.0,0.0
2190,52.0,26.0,360.0,0.0,0.0
2191,48.0,28.0,360.0,0.0,0.0
2192,52.0,26.0,180.0,0.0,0.0
2193,58.0,313.0,240.0,0.0,0.0
2194,48.0,4.0,420.0,0.0,0.0
2195,58.0,37.0,300.0,0.0,0.0
2196,54.0,95.0,660.0,3.0,0.0
2197,54.0,16.0,270.0,0.0,0.0
2198,90.0,2.0,210.0,0.0,0.0
2199,78.0,58.0,210.0,0.0,0.0
2200,66.0,111.0,540.0,2.0,0.0
2201,58.0,88.0,450.0,4.0,0.0
2202,48.0,149.0,60.0,0.0,0.0
2203,58.0,14.0,2190.0,4.0,0.0
2204,36.0,29.0,360.0,0.0,0.0
2205,67.0,64.0,1680.0,2.0,0.0
2206,52.0,11.0,2130.0,3.0,0.0
2207,90.0,30.0,210.0,0.0,0.0
2208,78.0,69.0,240.0,0.0,0.0
2209,48.0,232.0,60.0,0.0,0.0
2210,88.0,0.0,30.0,0.0,0.0
2211,76.0,7.0,30.0,0.0,0.0
2212,55.0,17.0,150.0,0.0,0.0
2213,58.0,112.0,150.0,0.0,0.0
2214,88.0,61.0,30.0,0.0,0.0
2215,76.0,5.0,30.0,0.0,0.0
2216,86.0,86.0,30.0,0.0,0.0
2217,74.0,3.0,30.0,0.0,0.0
2218,48.0,61.0,30.0,0.0,0.0
2219,84.0,301.0,30.0,0.0,0.0
2220,72.0,1.0,30.0,0.0,0.0
2221,36.0,30.0,270.0,0.0,0.0
2222,83.0,3.0,180.0,0.0,0.0
2223,71.0,43.0,210.0,0.0,0.0
2224,48.0,2.0,30.0,0.0,0.0
2225,82.0,4.0,30.0,0.0,0.0
2226,70.0,234.0,30.0,0.0,0.0
2227,64.0,303.0,690.0,2.0,0.0
2228,52.0,42.0,300.0,0.0,0.0
2229,58.0,23.0,270.0,0.0,0.0
2230,79.0,4.0,30.0,0.0,0.0
2231,67.0,113.0,60.0,0.0,0.0
2232,78.0,46.0,60.0,0.0,0.0
2233,66.0,10.0,30.0,0.0,0.0
2234,48.0,105.0,60.0,0.0,0.0
2235,64.0,170.0,90.0,0.0,0.0
2236,76.0,17.0,90.0,0.0,0.0
2237,54.0,3.0,540.0,3.0,0.0
2238,35.0,50.0,480.0,0.0,0.0
2239,75.0,2.0,480.0,0.0,0.0
2240,63.0,58.0,420.0,0.0,0.0
2241,47.0,1.0,2880.0,5.0,0.0
2242,63.0,23.0,660.0,2.0,0.0
2243,59.0,633.0,690.0,4.0,0.0
2244,35.0,365.0,2880.0,6.0,0.0
2245,47.0,135.0,180.0,0.0,0.0
2246,57.0,27.0,720.0,4.0,0.0
2247,61.0,394.0,870.0,3.0,0.0
2248,57.0,16.0,30.0,0.0,0.0
2249,78.0,329.0,1380.0,0.0,0.0
2250,66.0,4.0,1380.0,0.0,0.0
2251,61.0,132.0,360.0,0.0,0.0
2252,56.0,34.0,720.0,4.0,0.0
2253,59.0,68.0,660.0,3.0,0.0
2254,56.0,9.0,750.0,0.0,0.0
2255,59.0,42.0,330.0,0.0,0.0
2256,57.0,105.0,930.0,3.0,0.0
2257,59.0,50.0,840.0,15.0,0.0
2258,54.0,3.0,990.0,4.0,0.0
2259,54.0,158.0,480.0,0.0,0.0
2260,57.0,202.0,240.0,0.0,0.0
2261,56.0,54.0,720.0,3.0,0.0
2262,59.0,78.0,1350.0,15.0,0.0
2263,28.0,10.0,750.0,6.0,0.0
2264,40.0,213.0,450.0,0.0,0.0
2265,52.0,39.0,780.0,4.0,0.0
2266,40.0,45.0,690.0,5.0,0.0
2267,68.0,61.0,750.0,0.0,0.0
2268,47.0,139.0,450.0,0.0,0.0
2269,59.0,20.0,570.0,3.0,0.0
2270,52.0,158.0,330.0,0.0,0.0
2271,68.0,52.0,630.0,2.0,0.0
2272,56.0,31.0,270.0,0.0,0.0
2273,69.0,64.0,180.0,0.0,0.0
2274,47.0,18.0,270.0,0.0,0.0
2275,40.0,2.0,330.0,0.0,0.0
2276,56.0,74.0,600.0,3.0,0.0
2277,64.0,10.0,570.0,2.0,0.0
2278,71.0,80.0,180.0,0.0,0.0
2279,56.0,17.0,570.0,15.0,0.0
2280,73.0,53.0,120.0,0.0,0.0
2281,71.0,79.0,90.0,0.0,0.0
2282,47.0,6.0,330.0,0.0,0.0
2283,70.0,57.0,60.0,0.0,0.0
2284,71.0,88.0,60.0,0.0,0.0
2285,52.0,68.0,270.0,0.0,0.0
2286,59.0,3.0,600.0,3.0,0.0
2287,68.0,51.0,540.0,2.0,0.0
2288,56.0,66.0,180.0,0.0,0.0
2289,52.0,8.0,570.0,15.0,0.0
2290,76.0,15.0,60.0,0.0,0.0
2291,80.0,80.0,210.0,0.0,0.0
2292,47.0,139.0,60.0,0.0,0.0
2293,57.0,52.0,600.0,3.0,0.0
2294,35.0,438.0,120.0,0.0,0.0
2295,78.0,13.0,540.0,0.0,0.0
2296,71.0,32.0,540.0,2.0,0.0
2297,47.0,70.0,870.0,15.0,0.0
2298,47.0,32.0,390.0,0.0,0.0
2299,47.0,22.0,540.0,5.0,0.0
2300,57.0,6.0,150.0,0.0,0.0
2301,66.0,4.0,1710.0,2.0,0.0
2302,35.0,218.0,540.0,6.0,0.0
2303,59.0,6.0,480.0,3.0,0.0
2304,51.0,113.0,150.0,0.0,0.0
2305,47.0,120.0,60.0,0.0,0.0
2306,75.0,22.0,180.0,0.0,0.0
2307,57.0,26.0,690.0,3.0,0.0
2308,49.0,34.0,570.0,5.0,0.0
2309,37.0,91.0,600.0,6.0,0.0
2310,35.0,40.0,270.0,0.0,0.0
2311,71.0,161.0,330.0,0.0,0.0
2312,47.0,64.0,30.0,0.0,0.0
2313,51.0,50.0,750.0,5.0,0.0
2314,39.0,158.0,780.0,6.0,0.0
2315,59.0,18.0,630.0,3.0,0.0
2316,59.0,368.0,150.0,0.0,0.0
2317,47.0,61.0,330.0,0.0,0.0
2318,69.0,92.0,210.0,0.0,0.0
2319,56.0,8.0,750.0,3.0,0.0
2320,40.0,75.0,390.0,0.0,0.0
2321,52.0,4.0,630.0,5.0,0.0
2322,59.0,41.0,720.0,15.0,0.0
2323,40.0,33.0,660.0,6.0,0.0
2324,68.0,102.0,240.0,0.0,0.0
2325,69.0,125.0,180.0,0.0,0.0
2326,47.0,64.0,270.0,0.0,0.0
2327,68.0,33.0,120.0,0.0,0.0
2328,52.0,1.0,150.0,0.0,0.0
2329,56.0,61.0,150.0,0.0,0.0
2330,61.0,3.0,330.0,15.0,0.0
2331,67.0,0.0,90.0,0.0,0.0
2332,68.0,25.0,510.0,2.0,0.0
2333,59.0,8.0,540.0,3.0,0.0
2334,68.0,127.0,60.0,0.0,0.0
2335,47.0,17.0,240.0,0.0,0.0
2336,59.0,16.0,330.0,15.0,0.0
2337,69.0,162.0,60.0,0.0,0.0
2338,70.0,9.0,150.0,0.0,0.0
2339,40.0,2.0,270.0,0.0,0.0
2340,64.0,40.0,510.0,2.0,0.0
2341,56.0,15.0,540.0,3.0,0.0
2342,57.0,44.0,270.0,15.0,0.0
2343,71.0,14.0,60.0,0.0,0.0
2344,73.0,55.0,30.0,0.0,0.0
2345,71.0,82.0,60.0,0.0,0.0
2346,70.0,30.0,90.0,0.0,0.0
2347,56.0,8.0,270.0,15.0,0.0
2348,47.0,6.0,330.0,0.0,0.0
2349,71.0,114.0,90.0,0.0,0.0
2350,73.0,63.0,90.0,0.0,0.0
2351,52.0,28.0,270.0,0.0,0.0
2352,56.0,18.0,210.0,0.0,0.0
2353,75.0,72.0,120.0,0.0,0.0
2354,59.0,7.0,540.0,3.0,0.0
2355,54.0,62.0,300.0,15.0,0.0
2356,68.0,49.0,510.0,2.0,0.0
2357,76.0,30.0,120.0,0.0,0.0
2358,47.0,44.0,30.0,0.0,0.0
2359,78.0,112.0,150.0,0.0,0.0
2360,52.0,150.0,330.0,15.0,0.0
2361,80.0,51.0,150.0,0.0,0.0
2362,71.0,195.0,600.0,2.0,0.0
2363,57.0,32.0,870.0,3.0,0.0
2364,35.0,175.0,240.0,0.0,0.0
2365,80.0,178.0,390.0,0.0,0.0
2366,47.0,9.0,1110.0,15.0,0.0
2367,47.0,31.0,420.0,0.0,0.0
2368,78.0,3.0,510.0,0.0,0.0
2369,59.0,172.0,600.0,3.0,0.0
2370,47.0,21.0,540.0,5.0,0.0
2371,66.0,319.0,1650.0,2.0,0.0
2372,35.0,14.0,540.0,6.0,0.0
2373,57.0,43.0,210.0,0.0,0.0
2374,51.0,45.0,270.0,0.0,0.0
2375,75.0,43.0,480.0,0.0,0.0
2376,47.0,181.0,60.0,0.0,0.0
2377,49.0,36.0,510.0,5.0,0.0
2378,37.0,13.0,540.0,6.0,0.0
2379,35.0,1.0,240.0,0.0,0.0
2380,57.0,15.0,540.0,3.0,0.0
2381,71.0,136.0,120.0,0.0,0.0
2382,47.0,58.0,60.0,0.0,0.0
2383,39.0,25.0,720.0,6.0,0.0
2384,51.0,87.0,540.0,5.0,0.0
2385,59.0,239.0,90.0,0.0,0.0
2386,59.0,44.0,630.0,3.0,0.0
2387,47.0,15.0,360.0,0.0,0.0
2388,69.0,209.0,60.0,0.0,0.0
2389,52.0,101.0,1170.0,5.0,0.0
2390,56.0,70.0,810.0,3.0,0.0
2391,68.0,67.0,1230.0,2.0,0.0
2392,59.0,28.0,1080.0,15.0,0.0
2393,40.0,137.0,450.0,0.0,0.0
2394,40.0,10.0,2040.0,6.0,0.0
2395,68.0,145.0,540.0,0.0,0.0
2396,47.0,155.0,540.0,0.0,0.0
2397,52.0,2.0,300.0,0.0,0.0
2398,73.0,63.0,150.0,0.0,0.0
2399,59.0,5.0,510.0,3.0,0.0
2400,56.0,22.0,60.0,0.0,0.0
2401,71.0,45.0,120.0,0.0,0.0
2402,40.0,34.0,270.0,0.0,0.0
2403,70.0,171.0,270.0,0.0,0.0
2404,66.0,48.0,870.0,2.0,0.0
2405,61.0,43.0,1020.0,15.0,0.0
2406,58.0,139.0,540.0,3.0,0.0
2407,49.0,44.0,210.0,0.0,0.0
2408,54.0,49.0,60.0,0.0,0.0
2409,75.0,32.0,90.0,0.0,0.0
2410,54.0,81.0,630.0,3.0,0.0
2411,58.0,149.0,60.0,0.0,0.0
2412,73.0,101.0,150.0,0.0,0.0
2413,39.0,73.0,300.0,0.0,0.0
2414,71.0,19.0,180.0,0.0,0.0
2415,66.0,8.0,510.0,2.0,0.0
2416,39.0,39.0,1080.0,5.0,0.0
2417,59.0,33.0,540.0,3.0,0.0
2418,63.0,2.0,540.0,15.0,0.0
2419,47.0,32.0,90.0,0.0,0.0
2420,76.0,159.0,120.0,0.0,0.0
2421,54.0,84.0,630.0,3.0,0.0
2422,59.0,39.0,570.0,15.0,0.0
2423,71.0,15.0,1500.0,2.0,0.0
2424,54.0,223.0,60.0,0.0,0.0
2425,59.0,93.0,60.0,0.0,0.0
2426,75.0,151.0,150.0,0.0,0.0
2427,56.0,46.0,990.0,15.0,0.0
2428,49.0,5.0,960.0,4.0,0.0
2429,59.0,76.0,3120.0,3.0,0.0
2430,41.0,100.0,1860.0,5.0,0.0
2431,41.0,82.0,180.0,0.0,0.0
2432,73.0,45.0,120.0,0.0,0.0
2433,71.0,236.0,60.0,0.0,0.0
2434,49.0,243.0,180.0,0.0,0.0
2435,87.0,66.0,60.0,0.0,0.0
2436,85.0,82.0,120.0,0.0,0.0
2437,56.0,51.0,180.0,0.0,0.0
2438,50.0,46.0,870.0,4.0,0.0
2439,59.0,68.0,900.0,15.0,0.0
2440,83.0,14.0,120.0,0.0,0.0
2441,68.0,1.0,960.0,2.0,0.0
2442,82.0,27.0,30.0,0.0,0.0
2443,83.0,57.0,30.0,0.0,0.0
2444,82.0,54.0,60.0,0.0,0.0
2445,80.0,76.0,60.0,0.0,0.0
2446,82.0,131.0,90.0,0.0,0.0
2447,59.0,24.0,60.0,0.0,0.0
2448,85.0,123.0,150.0,0.0,0.0
2449,83.0,137.0,120.0,0.0,0.0
2450,80.0,48.0,150.0,0.0,0.0
2451,42.0,0.0,210.0,0.0,0.0
2452,78.0,13.0,90.0,0.0,0.0
2453,51.0,54.0,1380.0,4.0,0.0
2454,54.0,0.0,2760.0,15.0,0.0
2455,66.0,37.0,1890.0,2.0,0.0
2456,42.0,15.0,2700.0,5.0,0.0
2457,92.0,166.0,60.0,0.0,0.0
2458,83.0,164.0,60.0,0.0,0.0
2459,51.0,98.0,390.0,0.0,0.0
2460,90.0,120.0,90.0,0.0,0.0
2461,78.0,117.0,90.0,0.0,0.0
2462,88.0,44.0,90.0,0.0,0.0
2463,83.0,83.0,180.0,0.0,0.0
2464,54.0,29.0,300.0,0.0,0.0
2465,87.0,32.0,60.0,0.0,0.0
2466,75.0,49.0,90.0,0.0,0.0
2467,85.0,82.0,90.0,0.0,0.0
2468,59.0,3.0,60.0,0.0,0.0
2469,78.0,80.0,90.0,0.0,0.0
2470,83.0,30.0,90.0,0.0,0.0
2471,42.0,61.0,270.0,0.0,0.0
2472,73.0,6.0,150.0,0.0,0.0
2473,49.0,32.0,1380.0,4.0,0.0
2474,58.0,234.0,1410.0,3.0,0.0
2475,82.0,93.0,90.0,0.0,0.0
2476,76.0,7.0,90.0,0.0,0.0
2477,49.0,163.0,90.0,0.0,0.0
2478,80.0,4.0,90.0,0.0,0.0
2479,70.0,42.0,150.0,0.0,0.0
2480,78.0,56.0,120.0,0.0,0.0
2481,73.0,71.0,120.0,0.0,0.0
2482,52.0,130.0,510.0,0.0,0.0
2483,64.0,6.0,900.0,2.0,0.0
2484,76.0,181.0,60.0,0.0,0.0
2485,64.0,125.0,150.0,0.0,0.0
2486,75.0,12.0,180.0,0.0,0.0
2487,58.0,34.0,120.0,0.0,0.0
2488,70.0,71.0,180.0,0.0,0.0
2489,73.0,133.0,90.0,0.0,0.0
2490,35.0,52.0,420.0,0.0,0.0
2491,47.0,26.0,690.0,4.0,0.0
2492,59.0,12.0,690.0,3.0,0.0
2493,63.0,4.0,660.0,2.0,0.0
2494,71.0,5.0,360.0,0.0,0.0
2495,35.0,16.0,690.0,5.0,0.0
2496,47.0,200.0,690.0,15.0,0.0
2497,63.0,81.0,270.0,0.0,0.0
2498,47.0,221.0,60.0,0.0,0.0
2499,69.0,91.0,570.0,14.0,0.0
2500,73.0,31.0,630.0,14.0,0.0
2501,57.0,96.0,270.0,0.0,0.0
2502,85.0,152.0,630.0,12.0,0.0
2503,81.0,94.0,420.0,12.0,0.0
2504,61.0,73.0,120.0,0.0,0.0
2505,54.0,263.0,300.0,0.0,0.0
2506,81.0,246.0,750.0,12.0,0.0
2507,78.0,23.0,540.0,12.0,0.0
2508,66.0,10.0,1350.0,14.0,0.0
2509,69.0,13.0,1380.0,14.0,0.0
2510,57.0,167.0,300.0,0.0,0.0
2511,80.0,127.0,930.0,12.0,0.0
2512,75.0,82.0,840.0,12.0,0.0
2513,35.0,13.0,810.0,6.0,0.0
2514,47.0,90.0,390.0,0.0,0.0
2515,59.0,3.0,780.0,15.0,0.0
2516,47.0,5.0,810.0,5.0,0.0
2517,59.0,294.0,120.0,0.0,0.0
2518,64.0,5.0,780.0,14.0,0.0
2519,68.0,52.0,780.0,14.0,0.0
2520,40.0,15.0,720.0,6.0,0.0
2521,40.0,7.0,750.0,5.0,0.0
2522,76.0,3.0,720.0,12.0,0.0
2523,59.0,21.0,1260.0,15.0,0.0
2524,40.0,290.0,240.0,0.0,0.0
2525,64.0,12.0,210.0,0.0,0.0
2526,68.0,23.0,210.0,0.0,0.0
2527,47.0,108.0,180.0,0.0,0.0
2528,69.0,15.0,120.0,0.0,0.0
2529,66.0,17.0,150.0,0.0,0.0
2530,64.0,12.0,90.0,0.0,0.0
2531,68.0,4.0,120.0,0.0,0.0
2532,52.0,15.0,90.0,0.0,0.0
2533,56.0,25.0,60.0,0.0,0.0
2534,59.0,24.0,510.0,3.0,0.0
2535,67.0,27.0,90.0,0.0,0.0
2536,63.0,74.0,90.0,0.0,0.0
2537,68.0,32.0,420.0,2.0,0.0
2538,68.0,44.0,60.0,0.0,0.0
2539,64.0,27.0,120.0,0.0,0.0
2540,47.0,38.0,210.0,0.0,0.0
2541,69.0,88.0,60.0,0.0,0.0
2542,66.0,21.0,30.0,0.0,0.0
2543,70.0,39.0,60.0,0.0,0.0
2544,67.0,26.0,90.0,0.0,0.0
2545,64.0,14.0,540.0,2.0,0.0
2546,71.0,58.0,150.0,0.0,0.0
2547,40.0,15.0,210.0,0.0,0.0
2548,56.0,9.0,510.0,3.0,0.0
2549,68.0,32.0,90.0,0.0,0.0
2550,56.0,34.0,450.0,15.0,0.0
2551,70.0,5.0,90.0,0.0,0.0
2552,67.0,43.0,120.0,0.0,0.0
2553,47.0,32.0,240.0,0.0,0.0
2554,71.0,67.0,90.0,0.0,0.0
2555,68.0,29.0,30.0,0.0,0.0
2556,73.0,13.0,30.0,0.0,0.0
2557,69.0,64.0,30.0,0.0,0.0
2558,59.0,147.0,780.0,3.0,0.0
2559,52.0,73.0,690.0,15.0,0.0
2560,68.0,24.0,660.0,2.0,0.0
2561,75.0,16.0,60.0,0.0,0.0
2562,52.0,115.0,120.0,0.0,0.0
2563,66.0,1.0,60.0,0.0,0.0
2564,56.0,18.0,90.0,0.0,0.0
2565,76.0,73.0,90.0,0.0,0.0
2566,68.0,1.0,90.0,0.0,0.0
2567,78.0,159.0,60.0,0.0,0.0
2568,71.0,25.0,20.0,0.0,0.0
2569,47.0,1.0,30.0,0.0,0.0
2570,80.0,32.0,150.0,0.0,0.0
2571,76.0,118.0,30.0,0.0,0.0
2572,76.0,28.0,90.0,0.0,0.0
2573,71.0,72.0,870.0,2.0,0.0
2574,47.0,33.0,1200.0,15.0,0.0
2575,57.0,9.0,810.0,3.0,0.0
2576,35.0,196.0,240.0,0.0,0.0
2577,80.0,27.0,420.0,0.0,0.0
2578,76.0,233.0,420.0,0.0,0.0
2579,47.0,20.0,330.0,0.0,0.0
2580,57.0,3.0,90.0,0.0,0.0
2581,59.0,2.0,600.0,3.0,0.0
2582,51.0,56.0,90.0,0.0,0.0
2583,66.0,3.0,1650.0,2.0,0.0
2584,35.0,2.0,570.0,6.0,0.0
2585,47.0,6.0,510.0,5.0,0.0
2586,78.0,67.0,120.0,0.0,0.0
2587,75.0,10.0,30.0,0.0,0.0
2588,47.0,67.0,60.0,0.0,0.0
2589,66.0,165.0,90.0,0.0,0.0
2590,73.0,107.0,210.0,0.0,0.0
2591,69.0,10.0,180.0,0.0,0.0
2592,49.0,33.0,540.0,5.0,0.0
2593,37.0,29.0,480.0,6.0,0.0
2594,35.0,3.0,90.0,0.0,0.0
2595,57.0,7.0,600.0,3.0,0.0
2596,76.0,4.0,60.0,0.0,0.0
2597,75.0,35.0,60.0,0.0,0.0
2598,71.0,112.0,90.0,0.0,0.0
2599,47.0,38.0,330.0,0.0,0.0
2600,63.0,100.0,120.0,0.0,0.0
2601,71.0,3.0,150.0,0.0,0.0
2602,68.0,41.0,90.0,0.0,0.0
2603,39.0,232.0,780.0,6.0,0.0
2604,59.0,46.0,720.0,3.0,0.0
2605,51.0,0.0,750.0,5.0,0.0
2606,59.0,15.0,120.0,0.0,0.0
2607,75.0,119.0,120.0,0.0,0.0
2608,69.0,69.0,150.0,0.0,0.0
2609,73.0,38.0,120.0,0.0,0.0
2610,66.0,203.0,150.0,0.0,0.0
2611,47.0,103.0,60.0,0.0,0.0
2612,71.0,6.0,210.0,0.0,0.0
2613,56.0,8.0,630.0,3.0,0.0
2614,40.0,42.0,660.0,6.0,0.0
2615,52.0,1.0,660.0,5.0,0.0
2616,64.0,38.0,300.0,0.0,0.0
2617,68.0,7.0,300.0,0.0,0.0
2618,40.0,138.0,330.0,0.0,0.0
2619,59.0,64.0,720.0,15.0,0.0
2620,69.0,3.0,150.0,0.0,0.0
2621,66.0,89.0,150.0,0.0,0.0
2622,47.0,33.0,270.0,0.0,0.0
2623,68.0,2.0,60.0,0.0,0.0
2624,64.0,21.0,60.0,0.0,0.0
2625,52.0,17.0,90.0,0.0,0.0
2626,56.0,4.0,60.0,0.0,0.0
2627,61.0,38.0,330.0,15.0,0.0
2628,67.0,24.0,60.0,0.0,0.0
2629,63.0,13.0,90.0,0.0,0.0
2630,59.0,10.0,450.0,3.0,0.0
2631,68.0,21.0,480.0,2.0,0.0
2632,68.0,48.0,60.0,0.0,0.0
2633,64.0,43.0,120.0,0.0,0.0
2634,69.0,41.0,60.0,0.0,0.0
2635,66.0,10.0,30.0,0.0,0.0
2636,47.0,26.0,180.0,0.0,0.0
2637,59.0,40.0,210.0,15.0,0.0
2638,70.0,27.0,30.0,0.0,0.0
2639,67.0,27.0,60.0,0.0,0.0
2640,64.0,82.0,690.0,2.0,0.0
2641,56.0,62.0,600.0,3.0,0.0
2642,40.0,39.0,330.0,0.0,0.0
2643,71.0,20.0,60.0,0.0,0.0
2644,59.0,18.0,270.0,15.0,0.0
2645,68.0,41.0,60.0,0.0,0.0
2646,73.0,65.0,60.0,0.0,0.0
2647,71.0,73.0,90.0,0.0,0.0
2648,70.0,35.0,90.0,0.0,0.0
2649,67.0,29.0,60.0,0.0,0.0
2650,57.0,55.0,210.0,15.0,0.0
2651,47.0,2.0,420.0,0.0,0.0
2652,71.0,36.0,60.0,0.0,0.0
2653,68.0,18.0,30.0,0.0,0.0
2654,56.0,49.0,150.0,15.0,0.0
2655,73.0,48.0,60.0,0.0,0.0
2656,69.0,16.0,30.0,0.0,0.0
2657,52.0,39.0,270.0,0.0,0.0
2658,56.0,2.0,210.0,0.0,0.0
2659,56.0,89.0,240.0,15.0,0.0
2660,73.0,9.0,90.0,0.0,0.0
2661,59.0,98.0,720.0,3.0,0.0
2662,69.0,0.0,90.0,0.0,0.0
2663,68.0,16.0,780.0,2.0,0.0
2664,75.0,4.0,30.0,0.0,0.0
2665,66.0,3.0,60.0,0.0,0.0
2666,54.0,7.0,180.0,15.0,0.0
2667,76.0,7.0,30.0,0.0,0.0
2668,68.0,66.0,30.0,0.0,0.0
2669,76.0,13.0,60.0,0.0,0.0
2670,68.0,5.0,60.0,0.0,0.0
2671,47.0,58.0,60.0,0.0,0.0
2672,52.0,33.0,300.0,15.0,0.0
2673,78.0,137.0,60.0,0.0,0.0
2674,71.0,22.0,20.0,0.0,0.0
2675,80.0,59.0,60.0,0.0,0.0
2676,76.0,0.0,30.0,0.0,0.0
2677,80.0,51.0,180.0,0.0,0.0
2678,76.0,3.0,210.0,0.0,0.0
2679,35.0,6.0,180.0,0.0,0.0
2680,47.0,35.0,1140.0,15.0,0.0
2681,57.0,45.0,570.0,3.0,0.0
2682,71.0,2.0,630.0,2.0,0.0
2683,78.0,127.0,60.0,0.0,0.0
2684,75.0,17.0,30.0,0.0,0.0
2685,47.0,35.0,360.0,0.0,0.0
2686,93.0,215.0,30.0,0.0,0.0
2687,66.0,23.0,120.0,0.0,0.0
2688,51.0,17.0,120.0,0.0,0.0
2689,57.0,0.0,120.0,0.0,0.0
2690,66.0,94.0,1680.0,2.0,0.0
2691,59.0,8.0,630.0,3.0,0.0
2692,47.0,7.0,630.0,5.0,0.0
2693,35.0,37.0,630.0,6.0,0.0
2694,78.0,3.0,120.0,0.0,0.0
2695,75.0,33.0,90.0,0.0,0.0
2696,73.0,18.0,20.0,0.0,0.0
2697,76.0,159.0,30.0,0.0,0.0
2698,47.0,240.0,120.0,0.0,0.0
2699,92.0,13.0,30.0,0.0,0.0
2700,91.0,4.0,20.0,0.0,0.0
2701,64.0,65.0,210.0,0.0,0.0
2702,49.0,13.0,810.0,5.0,0.0
2703,57.0,17.0,780.0,3.0,0.0
2704,37.0,14.0,810.0,6.0,0.0
2705,35.0,19.0,150.0,0.0,0.0
2706,73.0,10.0,150.0,0.0,0.0
2707,76.0,19.0,150.0,0.0,0.0
2708,75.0,162.0,60.0,0.0,0.0
2709,71.0,20.0,30.0,0.0,0.0
2710,47.0,23.0,540.0,0.0,0.0
2711,90.0,326.0,30.0,0.0,0.0
2712,63.0,63.0,120.0,0.0,0.0
2713,59.0,29.0,900.0,3.0,0.0
2714,59.0,5.0,90.0,0.0,0.0
2715,51.0,39.0,900.0,5.0,0.0
2716,39.0,28.0,930.0,6.0,0.0
2717,75.0,151.0,90.0,0.0,0.0
2718,71.0,22.0,60.0,0.0,0.0
2719,73.0,0.0,60.0,0.0,0.0
2720,69.0,75.0,60.0,0.0,0.0
2721,47.0,24.0,240.0,0.0,0.0
2722,66.0,149.0,60.0,0.0,0.0
2723,71.0,66.0,90.0,0.0,0.0
2724,69.0,176.0,30.0,0.0,0.0
2725,40.0,65.0,270.0,0.0,0.0
2726,52.0,50.0,2280.0,5.0,0.0
2727,56.0,25.0,660.0,3.0,0.0
2728,68.0,58.0,150.0,0.0,0.0
2729,64.0,13.0,210.0,0.0,0.0
2730,40.0,65.0,2160.0,6.0,0.0
2731,69.0,75.0,60.0,0.0,0.0
2732,66.0,25.0,30.0,0.0,0.0
2733,47.0,113.0,30.0,0.0,0.0
2734,68.0,13.0,60.0,0.0,0.0
2735,64.0,133.0,60.0,0.0,0.0
2736,52.0,232.0,120.0,0.0,0.0
2737,67.0,16.0,60.0,0.0,0.0
2738,59.0,188.0,750.0,3.0,0.0
2739,63.0,19.0,60.0,0.0,0.0
2740,68.0,11.0,180.0,0.0,0.0
2741,64.0,39.0,210.0,0.0,0.0
2742,56.0,12.0,90.0,0.0,0.0
2743,69.0,318.0,90.0,0.0,0.0
2744,66.0,5.0,60.0,0.0,0.0
2745,63.0,17.0,60.0,0.0,0.0
2746,40.0,36.0,420.0,0.0,0.0
2747,62.0,64.0,1140.0,3.0,0.0
2748,71.0,9.0,390.0,0.0,0.0
2749,68.0,12.0,390.0,0.0,0.0
2750,62.0,3.0,390.0,0.0,0.0
2751,64.0,134.0,420.0,0.0,0.0
2752,47.0,45.0,240.0,0.0,0.0
2753,72.0,136.0,150.0,0.0,0.0
2754,52.0,32.0,60.0,0.0,0.0
2755,68.0,70.0,90.0,0.0,0.0
2756,64.0,7.0,30.0,0.0,0.0
2757,62.0,12.0,20.0,0.0,0.0
2758,64.0,157.0,930.0,2.0,0.0
2759,52.0,15.0,1110.0,4.0,0.0
2760,56.0,179.0,30.0,0.0,0.0
2761,45.0,11.0,720.0,6.0,0.0
2762,61.0,18.0,660.0,3.0,0.0
2763,33.0,27.0,150.0,0.0,0.0
2764,61.0,57.0,60.0,0.0,0.0
2765,64.0,2.0,120.0,0.0,0.0
2766,45.0,118.0,120.0,0.0,0.0
2767,69.0,9.0,300.0,0.0,0.0
2768,73.0,69.0,180.0,0.0,0.0
2769,57.0,9.0,30.0,0.0,0.0
2770,52.0,1.0,20.0,0.0,0.0
2771,49.0,30.0,30.0,0.0,0.0
2772,66.0,17.0,330.0,2.0,0.0
2773,60.0,35.0,90.0,0.0,0.0
2774,66.0,21.0,60.0,0.0,0.0
2775,68.0,6.0,60.0,0.0,0.0
2776,54.0,3.0,660.0,4.0,0.0
2777,32.0,3.0,90.0,0.0,0.0
2778,44.0,152.0,630.0,6.0,0.0
2779,60.0,10.0,630.0,3.0,0.0
2780,75.0,7.0,30.0,0.0,0.0
2781,44.0,234.0,30.0,0.0,0.0
2782,68.0,39.0,1380.0,2.0,0.0
2783,60.0,14.0,30.0,0.0,0.0
2784,51.0,276.0,30.0,0.0,0.0
2785,56.0,5.0,20.0,0.0,0.0
2786,49.0,13.0,810.0,5.0,0.0
2787,52.0,9.0,810.0,4.0,0.0
2788,25.0,29.0,210.0,0.0,0.0
2789,61.0,12.0,810.0,3.0,0.0
2790,37.0,15.0,810.0,6.0,0.0
2791,37.0,190.0,180.0,0.0,0.0
2792,64.0,12.0,360.0,0.0,0.0
2793,76.0,2.0,390.0,0.0,0.0
2794,73.0,14.0,390.0,0.0,0.0
2795,68.0,19.0,360.0,0.0,0.0
2796,61.0,15.0,30.0,0.0,0.0
2797,49.0,230.0,60.0,0.0,0.0
2798,64.0,80.0,90.0,0.0,0.0
2799,70.0,81.0,750.0,0.0,0.0
2800,76.0,29.0,780.0,0.0,0.0
2801,24.0,6.0,120.0,0.0,0.0
2802,64.0,29.0,990.0,4.0,0.0
2803,36.0,113.0,1110.0,6.0,0.0
2804,48.0,24.0,1020.0,5.0,0.0
2805,54.0,54.0,1050.0,3.0,0.0
2806,78.0,251.0,690.0,0.0,0.0
2807,70.0,17.0,990.0,2.0,0.0
2808,36.0,413.0,30.0,0.0,0.0
2809,60.0,7.0,30.0,0.0,0.0
2810,48.0,119.0,60.0,0.0,0.0
2811,47.0,21.0,3510.0,5.0,0.0
2812,71.0,43.0,1830.0,2.0,0.0
2813,76.0,10.0,240.0,0.0,0.0
2814,71.0,26.0,240.0,0.0,0.0
2815,80.0,235.0,270.0,0.0,0.0
2816,35.0,3.0,240.0,0.0,0.0
2817,23.0,4.0,210.0,0.0,0.0
2818,68.0,10.0,240.0,0.0,0.0
2819,64.0,27.0,1800.0,4.0,0.0
2820,56.0,7.0,1830.0,3.0,0.0
2821,35.0,10.0,3390.0,6.0,0.0
2822,75.0,9.0,60.0,0.0,0.0
2823,97.0,396.0,30.0,0.0,0.0
2824,59.0,14.0,750.0,0.0,0.0
2825,95.0,57.0,150.0,0.0,0.0
2826,93.0,58.0,90.0,0.0,0.0
2827,92.0,69.0,90.0,0.0,0.0
2828,90.0,58.0,90.0,0.0,0.0
2829,47.0,32.0,450.0,0.0,0.0
2830,88.0,51.0,60.0,0.0,0.0
2831,87.0,40.0,60.0,0.0,0.0
2832,85.0,55.0,60.0,0.0,0.0
2833,83.0,30.0,60.0,0.0,0.0
2834,81.0,48.0,30.0,0.0,0.0
2835,80.0,45.0,60.0,0.0,0.0
2836,78.0,31.0,60.0,0.0,0.0
2837,59.0,52.0,360.0,0.0,0.0
2838,76.0,9.0,30.0,0.0,0.0
2839,75.0,38.0,60.0,0.0,0.0
2840,73.0,48.0,30.0,0.0,0.0
2841,71.0,31.0,60.0,0.0,0.0
2842,69.0,42.0,30.0,0.0,0.0
2843,68.0,52.0,30.0,0.0,0.0
2844,66.0,30.0,60.0,0.0,0.0
2845,64.0,3.0,60.0,0.0,0.0
2846,57.0,10.0,510.0,0.0,0.0
2847,54.0,32.0,510.0,0.0,0.0
2848,63.0,70.0,120.0,0.0,0.0
2849,66.0,469.0,1680.0,2.0,0.0
2850,57.0,15.0,1650.0,3.0,0.0
2851,66.0,23.0,90.0,0.0,0.0
2852,69.0,124.0,30.0,0.0,0.0
2853,72.0,76.0,90.0,0.0,0.0
2854,59.0,67.0,690.0,0.0,0.0
2855,75.0,57.0,90.0,0.0,0.0
2856,78.0,11.0,90.0,0.0,0.0
2857,81.0,119.0,60.0,0.0,0.0
2858,84.0,73.0,120.0,0.0,0.0
2859,83.0,246.0,90.0,0.0,0.0
2860,47.0,118.0,690.0,0.0,0.0
2861,82.0,30.0,240.0,0.0,0.0
2862,81.0,76.0,180.0,0.0,0.0
2863,78.0,24.0,150.0,0.0,0.0
2864,59.0,13.0,240.0,0.0,0.0
2865,75.0,158.0,30.0,0.0,0.0
2866,72.0,47.0,30.0,0.0,0.0
2867,63.0,219.0,60.0,0.0,0.0
2868,28.0,31.0,780.0,6.0,0.0
2869,56.0,26.0,750.0,3.0,0.0
2870,64.0,272.0,840.0,2.0,0.0
2871,40.0,163.0,510.0,0.0,0.0
2872,64.0,26.0,780.0,0.0,0.0
2873,40.0,8.0,690.0,5.0,0.0
2874,47.0,38.0,270.0,0.0,0.0
2875,52.0,21.0,480.0,0.0,0.0
2876,56.0,30.0,480.0,0.0,0.0
2877,47.0,5.0,510.0,15.0,0.0
2878,56.0,205.0,570.0,15.0,0.0
2879,47.0,78.0,210.0,0.0,0.0
2880,65.0,84.0,60.0,0.0,0.0
2881,48.0,4.0,480.0,0.0,0.0
2882,66.0,253.0,210.0,0.0,0.0
2883,57.0,31.0,1140.0,15.0,0.0
2884,48.0,75.0,660.0,15.0,0.0
2885,52.0,16.0,180.0,0.0,0.0
2886,57.0,8.0,300.0,0.0,0.0
2887,68.0,110.0,180.0,0.0,0.0
2888,66.0,50.0,150.0,0.0,0.0
2889,47.0,5.0,360.0,0.0,0.0
2890,65.0,101.0,150.0,0.0,0.0
2891,47.0,28.0,450.0,15.0,0.0
2892,66.0,75.0,120.0,0.0,0.0
2893,57.0,26.0,60.0,0.0,0.0
2894,68.0,72.0,120.0,0.0,0.0
2895,51.0,28.0,90.0,0.0,0.0
2896,69.0,85.0,120.0,0.0,0.0
2897,70.0,128.0,120.0,0.0,0.0
2898,40.0,37.0,360.0,0.0,0.0
2899,40.0,65.0,1080.0,6.0,0.0
2900,52.0,13.0,990.0,5.0,0.0
2901,56.0,95.0,660.0,15.0,0.0
2902,47.0,12.0,600.0,15.0,0.0
2903,71.0,117.0,120.0,0.0,0.0
2904,47.0,24.0,300.0,0.0,0.0
2905,81.0,164.0,120.0,0.0,0.0
2906,80.0,93.0,150.0,0.0,0.0
2907,56.0,4.0,150.0,0.0,0.0
2908,78.0,9.0,120.0,0.0,0.0
2909,59.0,131.0,600.0,3.0,0.0
2910,68.0,24.0,480.0,2.0,0.0
2911,75.0,104.0,120.0,0.0,0.0
2912,47.0,30.0,300.0,0.0,0.0
2913,76.0,130.0,90.0,0.0,0.0
2914,68.0,9.0,150.0,0.0,0.0
2915,40.0,114.0,300.0,0.0,0.0
2916,66.0,73.0,570.0,2.0,0.0
2917,73.0,4.0,150.0,0.0,0.0
2918,35.0,24.0,1170.0,6.0,0.0
2919,57.0,164.0,1200.0,3.0,0.0
2920,47.0,15.0,1200.0,5.0,0.0
2921,47.0,78.0,2280.0,4.0,0.0
2922,71.0,16.0,180.0,0.0,0.0
2923,47.0,30.0,420.0,0.0,0.0
2924,75.0,87.0,150.0,0.0,0.0
2925,73.0,72.0,120.0,0.0,0.0
2926,68.0,29.0,150.0,0.0,0.0
2927,57.0,201.0,210.0,0.0,0.0
2928,59.0,283.0,870.0,2.0,0.0
2929,69.0,71.0,240.0,0.0,0.0
2930,61.0,72.0,150.0,0.0,0.0
2931,47.0,83.0,270.0,0.0,0.0
2932,68.0,40.0,90.0,0.0,0.0
2933,63.0,17.0,60.0,0.0,0.0
2934,40.0,127.0,4230.0,6.0,0.0
2935,56.0,80.0,660.0,3.0,0.0
2936,71.0,80.0,750.0,2.0,0.0
2937,40.0,165.0,450.0,0.0,0.0
2938,64.0,70.0,900.0,0.0,0.0
2939,47.0,114.0,450.0,0.0,0.0
2940,56.0,20.0,330.0,0.0,0.0
2941,47.0,7.0,450.0,15.0,0.0
2942,56.0,189.0,540.0,15.0,0.0
2943,47.0,66.0,180.0,0.0,0.0
2944,65.0,36.0,120.0,0.0,0.0
2945,48.0,60.0,510.0,0.0,0.0
2946,48.0,7.0,660.0,15.0,0.0
2947,57.0,12.0,1260.0,15.0,0.0
2948,66.0,112.0,180.0,0.0,0.0
2949,68.0,49.0,120.0,0.0,0.0
2950,52.0,67.0,360.0,0.0,0.0
2951,57.0,7.0,300.0,0.0,0.0
2952,66.0,38.0,30.0,0.0,0.0
2953,68.0,28.0,30.0,0.0,0.0
2954,66.0,111.0,90.0,0.0,0.0
2955,65.0,19.0,120.0,0.0,0.0
2956,47.0,67.0,630.0,0.0,0.0
2957,47.0,41.0,480.0,15.0,0.0
2958,66.0,144.0,120.0,0.0,0.0
2959,68.0,63.0,150.0,0.0,0.0
2960,69.0,22.0,120.0,0.0,0.0
2961,57.0,40.0,90.0,0.0,0.0
2962,51.0,58.0,120.0,0.0,0.0
2963,70.0,106.0,120.0,0.0,0.0
2964,40.0,66.0,420.0,0.0,0.0
2965,73.0,52.0,180.0,0.0,0.0
2966,47.0,60.0,720.0,15.0,0.0
2967,56.0,22.0,720.0,15.0,0.0
2968,71.0,207.0,60.0,0.0,0.0
2969,71.0,107.0,240.0,0.0,0.0
2970,47.0,11.0,690.0,0.0,0.0
2971,81.0,135.0,150.0,0.0,0.0
2972,80.0,240.0,180.0,0.0,0.0
2973,68.0,10.0,1110.0,2.0,0.0
2974,56.0,76.0,600.0,0.0,0.0
2975,59.0,6.0,1200.0,3.0,0.0
2976,78.0,143.0,210.0,0.0,0.0
2977,75.0,50.0,120.0,0.0,0.0
2978,76.0,57.0,60.0,0.0,0.0
2979,75.0,50.0,60.0,0.0,0.0
2980,73.0,29.0,60.0,0.0,0.0
2981,75.0,146.0,120.0,0.0,0.0
2982,47.0,37.0,240.0,0.0,0.0
2983,76.0,16.0,180.0,0.0,0.0
2984,68.0,226.0,60.0,0.0,0.0
2985,66.0,17.0,990.0,2.0,0.0
2986,35.0,62.0,240.0,0.0,0.0
2987,57.0,22.0,1770.0,3.0,0.0
2988,47.0,40.0,1680.0,5.0,0.0
2989,47.0,26.0,4950.0,4.0,0.0
2990,35.0,6.0,1710.0,6.0,0.0
2991,73.0,36.0,150.0,0.0,0.0
2992,71.0,83.0,90.0,0.0,0.0
2993,75.0,45.0,90.0,0.0,0.0
2994,71.0,39.0,60.0,0.0,0.0
2995,70.0,63.0,60.0,0.0,0.0
2996,74.0,40.0,60.0,0.0,0.0
2997,70.0,38.0,60.0,0.0,0.0
2998,47.0,23.0,450.0,0.0,0.0
2999,69.0,57.0,60.0,0.0,0.0
3000,73.0,51.0,60.0,0.0,0.0
3001,69.0,32.0,60.0,0.0,0.0
3002,68.0,53.0,60.0,0.0,0.0
3003,72.0,42.0,60.0,0.0,0.0
3004,71.0,60.0,60.0,0.0,0.0
3005,57.0,62.0,480.0,0.0,0.0
3006,70.0,47.0,60.0,0.0,0.0
3007,51.0,84.0,540.0,0.0,0.0
3008,69.0,12.0,60.0,0.0,0.0
3009,66.0,23.0,30.0,0.0,0.0
3010,59.0,246.0,840.0,2.0,0.0
3011,63.0,61.0,60.0,0.0,0.0
3012,58.0,61.0,30.0,0.0,0.0
3013,59.0,57.0,60.0,0.0,0.0
3014,60.0,56.0,60.0,0.0,0.0
3015,61.0,47.0,60.0,0.0,0.0
3016,47.0,17.0,540.0,0.0,0.0
3017,62.0,14.0,60.0,0.0,0.0
3018,63.0,13.0,150.0,0.0,0.0
3019,68.0,111.0,90.0,0.0,0.0
3020,66.0,68.0,120.0,0.0,0.0
3021,64.0,43.0,90.0,0.0,0.0
3022,40.0,149.0,420.0,0.0,0.0
3023,40.0,196.0,3390.0,6.0,0.0
3024,64.0,14.0,3270.0,2.0,0.0
3025,56.0,73.0,3270.0,3.0,0.0
3026,64.0,67.0,300.0,0.0,0.0
3027,47.0,108.0,300.0,0.0,0.0
3028,68.0,47.0,90.0,0.0,0.0
3029,73.0,34.0,90.0,0.0,0.0
3030,71.0,40.0,60.0,0.0,0.0
3031,56.0,187.0,240.0,0.0,0.0
3032,76.0,120.0,90.0,0.0,0.0
3033,47.0,1.0,300.0,0.0,0.0
3034,80.0,76.0,60.0,0.0,0.0
3035,85.0,70.0,90.0,0.0,0.0
3036,83.0,72.0,90.0,0.0,0.0
3037,40.0,141.0,270.0,0.0,0.0
3038,76.0,162.0,60.0,0.0,0.0
3039,47.0,72.0,270.0,0.0,0.0
3040,68.0,80.0,90.0,0.0,0.0
3041,73.0,39.0,90.0,0.0,0.0
3042,71.0,4.0,30.0,0.0,0.0
3043,56.0,133.0,270.0,0.0,0.0
3044,76.0,218.0,60.0,0.0,0.0
3045,47.0,11.0,240.0,0.0,0.0
3046,80.0,58.0,60.0,0.0,0.0
3047,85.0,43.0,60.0,0.0,0.0
3048,83.0,63.0,60.0,0.0,0.0
3049,76.0,192.0,60.0,0.0,0.0
3050,40.0,128.0,240.0,0.0,0.0
3051,52.0,5.0,3510.0,7.0,0.0
3052,47.0,26.0,240.0,0.0,0.0
3053,68.0,46.0,90.0,0.0,0.0
3054,73.0,49.0,60.0,0.0,0.0
3055,71.0,81.0,60.0,0.0,0.0
3056,56.0,142.0,210.0,0.0,0.0
3057,76.0,134.0,60.0,0.0,0.0
3058,47.0,20.0,240.0,0.0,0.0
3059,80.0,64.0,60.0,0.0,0.0
3060,85.0,53.0,60.0,0.0,0.0
3061,83.0,12.0,60.0,0.0,0.0
3062,76.0,84.0,360.0,0.0,0.0
3063,40.0,42.0,300.0,0.0,0.0
3064,47.0,12.0,240.0,0.0,0.0
3065,80.0,86.0,90.0,0.0,0.0
3066,85.0,42.0,120.0,0.0,0.0
3067,83.0,177.0,90.0,0.0,0.0
3068,76.0,111.0,390.0,0.0,0.0
3069,59.0,210.0,180.0,0.0,0.0
3070,47.0,670.0,510.0,0.0,0.0
3071,80.0,119.0,120.0,0.0,0.0
3072,85.0,38.0,120.0,0.0,0.0
3073,83.0,134.0,60.0,0.0,0.0
3074,40.0,60.0,720.0,0.0,0.0
3075,88.0,326.0,750.0,0.0,0.0
3076,88.0,14.0,90.0,0.0,0.0
3077,77.0,11.0,60.0,0.0,0.0
3078,80.0,19.0,60.0,0.0,0.0
3079,71.0,25.0,90.0,0.0,0.0
3080,86.0,41.0,30.0,0.0,0.0
3081,95.0,427.0,30.0,0.0,0.0
3082,62.0,178.0,450.0,0.0,0.0
3083,59.0,59.0,60.0,0.0,0.0
3084,92.0,20.0,60.0,0.0,0.0
3085,85.0,278.0,90.0,0.0,0.0
3086,68.0,34.0,450.0,0.0,0.0
3087,77.0,38.0,300.0,0.0,0.0
3088,83.0,83.0,330.0,0.0,0.0
3089,74.0,226.0,420.0,0.0,0.0
3090,86.0,20.0,90.0,0.0,0.0
3091,76.0,28.0,30.0,0.0,0.0
3092,79.0,22.0,60.0,0.0,0.0
3093,70.0,55.0,90.0,0.0,0.0
3094,85.0,30.0,30.0,0.0,0.0
3095,61.0,354.0,360.0,0.0,0.0
3096,94.0,294.0,60.0,0.0,0.0
3097,58.0,80.0,60.0,0.0,0.0
3098,91.0,26.0,30.0,0.0,0.0
3099,83.0,38.0,90.0,0.0,0.0
3100,67.0,14.0,60.0,0.0,0.0
3101,82.0,537.0,90.0,0.0,0.0
3102,76.0,27.0,60.0,0.0,0.0
3103,73.0,254.0,600.0,0.0,0.0
3104,74.0,10.0,60.0,0.0,0.0
3105,77.0,17.0,60.0,0.0,0.0
3106,84.0,26.0,60.0,0.0,0.0
3107,83.0,42.0,60.0,0.0,0.0
3108,68.0,71.0,60.0,0.0,0.0
3109,59.0,123.0,570.0,0.0,0.0
3110,92.0,505.0,60.0,0.0,0.0
3111,56.0,8.0,60.0,0.0,0.0
3112,89.0,73.0,60.0,0.0,0.0
3113,81.0,59.0,60.0,0.0,0.0
3114,65.0,231.0,660.0,0.0,0.0
3115,80.0,528.0,60.0,0.0,0.0
3116,74.0,17.0,30.0,0.0,0.0
3117,71.0,9.0,570.0,0.0,0.0
3118,83.0,28.0,90.0,0.0,0.0
3119,75.0,31.0,60.0,0.0,0.0
3120,72.0,13.0,30.0,0.0,0.0
3121,66.0,76.0,90.0,0.0,0.0
3122,81.0,23.0,30.0,0.0,0.0
3123,90.0,327.0,30.0,0.0,0.0
3124,57.0,467.0,360.0,0.0,0.0
3125,54.0,1.0,60.0,0.0,0.0
3126,87.0,95.0,60.0,0.0,0.0
3127,80.0,70.0,60.0,0.0,0.0
3128,63.0,431.0,750.0,0.0,0.0
3129,72.0,21.0,60.0,0.0,0.0
3130,78.0,535.0,60.0,0.0,0.0
3131,69.0,82.0,570.0,0.0,0.0
3132,73.0,7.0,90.0,0.0,0.0
3133,81.0,26.0,120.0,0.0,0.0
3134,70.0,36.0,90.0,0.0,0.0
3135,64.0,6.0,60.0,0.0,0.0
3136,79.0,104.0,60.0,0.0,0.0
3137,55.0,370.0,420.0,0.0,0.0
3138,88.0,382.0,30.0,0.0,0.0
3139,78.0,12.0,90.0,0.0,0.0
3140,67.0,23.0,60.0,0.0,0.0
3141,70.0,80.0,60.0,0.0,0.0
3142,76.0,12.0,90.0,0.0,0.0
3143,61.0,77.0,90.0,0.0,0.0
3144,85.0,544.0,60.0,0.0,0.0
3145,52.0,504.0,600.0,0.0,0.0
3146,68.0,23.0,90.0,0.0,0.0
3147,71.0,34.0,90.0,0.0,0.0
3148,78.0,74.0,120.0,0.0,0.0
3149,76.0,140.0,120.0,0.0,0.0
3150,62.0,3.0,120.0,0.0,0.0
3151,52.0,5.0,60.0,0.0,0.0
3152,64.0,3.0,3480.0,2.0,0.0
3153,52.0,688.0,1350.0,3.0,0.0
3154,86.0,1319.0,30.0,0.0,0.0
3155,64.0,4.0,2310.0,7.0,0.0
3156,52.0,11.0,2280.0,7.0,0.0
3157,28.0,615.0,900.0,6.0,0.0
3158,59.0,0.0,900.0,3.0,0.0
3159,40.0,8.0,870.0,5.0,0.0
3160,62.0,1.0,3270.0,4.0,0.0
3161,52.0,128.0,3270.0,4.0,0.0
3162,42.0,95.0,720.0,5.0,0.0
3163,30.0,592.0,870.0,6.0,0.0
3164,57.0,78.0,780.0,3.0,0.0
3165,44.0,500.0,990.0,5.0,0.0
3166,59.0,163.0,780.0,3.0,0.0
3167,32.0,10.0,690.0,6.0,0.0
3168,33.0,119.0,750.0,6.0,0.0
3169,57.0,15.0,690.0,3.0,0.0
3170,64.0,18.0,1620.0,2.0,0.0
3171,52.0,8.0,1860.0,7.0,0.0
3172,64.0,16.0,1860.0,7.0,0.0
3173,45.0,191.0,750.0,5.0,0.0
3174,35.0,84.0,510.0,6.0,0.0
3175,56.0,18.0,360.0,3.0,0.0
3176,47.0,6.0,300.0,5.0,0.0
3177,48.0,36.0,2640.0,5.0,0.0
3178,55.0,13.0,690.0,3.0,0.0
3179,60.0,4.0,660.0,4.0,0.0
3180,36.0,56.0,2250.0,6.0,0.0
3181,88.0,13.0,180.0,0.0,0.0
3182,79.0,97.0,180.0,0.0,0.0
3183,87.0,85.0,120.0,0.0,0.0
3184,78.0,7.0,120.0,0.0,0.0
3185,86.0,14.0,90.0,0.0,0.0
3186,77.0,47.0,90.0,0.0,0.0
3187,85.0,22.0,60.0,0.0,0.0
3188,76.0,104.0,60.0,0.0,0.0
3189,84.0,35.0,90.0,0.0,0.0
3190,75.0,3.0,60.0,0.0,0.0
3191,74.0,2.0,60.0,0.0,0.0
3192,83.0,79.0,60.0,0.0,0.0
3193,55.0,58.0,450.0,3.0,0.0
3194,73.0,91.0,90.0,0.0,0.0
3195,82.0,22.0,60.0,0.0,0.0
3196,64.0,10.0,420.0,2.0,0.0
3197,60.0,60.0,1020.0,4.0,0.0
3198,81.0,2.0,90.0,0.0,0.0
3199,72.0,24.0,90.0,0.0,0.0
3200,80.0,24.0,60.0,0.0,0.0
3201,71.0,76.0,90.0,0.0,0.0
3202,79.0,19.0,60.0,0.0,0.0
3203,70.0,66.0,90.0,0.0,0.0
3204,78.0,5.0,60.0,0.0,0.0
3205,69.0,21.0,60.0,0.0,0.0
3206,57.0,33.0,180.0,3.0,0.0
3207,65.0,23.0,180.0,2.0,0.0
3208,77.0,19.0,90.0,0.0,0.0
3209,68.0,43.0,90.0,0.0,0.0
3210,76.0,5.0,90.0,0.0,0.0
3211,67.0,70.0,120.0,0.0,0.0
3212,55.0,7.0,570.0,3.0,0.0
3213,64.0,52.0,570.0,2.0,0.0
3214,74.0,6.0,90.0,0.0,0.0
3215,65.0,18.0,90.0,0.0,0.0
3216,72.0,128.0,30.0,0.0,0.0
3217,64.0,0.0,30.0,0.0,0.0
3218,60.0,4.0,90.0,0.0,0.0
3219,64.0,96.0,90.0,0.0,0.0
3220,65.0,36.0,90.0,0.0,0.0
3221,48.0,24.0,120.0,0.0,0.0
3222,67.0,2.0,60.0,0.0,0.0
3223,55.0,30.0,60.0,0.0,0.0
3224,52.0,27.0,630.0,3.0,0.0
3225,55.0,67.0,480.0,4.0,0.0
3226,76.0,4.0,120.0,0.0,0.0
3227,60.0,24.0,570.0,2.0,0.0
3228,67.0,53.0,90.0,0.0,0.0
3229,74.0,8.0,90.0,0.0,0.0
3230,65.0,21.0,90.0,0.0,0.0
3231,72.0,18.0,30.0,0.0,0.0
3232,64.0,94.0,30.0,0.0,0.0
3233,60.0,4.0,60.0,0.0,0.0
3234,64.0,117.0,60.0,0.0,0.0
3235,65.0,20.0,90.0,0.0,0.0
3236,48.0,4.0,90.0,0.0,0.0
3237,55.0,6.0,30.0,0.0,0.0
3238,67.0,6.0,30.0,0.0,0.0
3239,31.0,68.0,2460.0,6.0,0.0
3240,55.0,7.0,1110.0,4.0,0.0
3241,62.0,46.0,1230.0,2.0,0.0
3242,43.0,24.0,90.0,0.0,0.0
3243,60.0,44.0,120.0,0.0,0.0
3244,60.0,65.0,1140.0,3.0,0.0
3245,43.0,28.0,2370.0,5.0,0.0
3246,69.0,14.0,150.0,0.0,0.0
3247,50.0,42.0,60.0,0.0,0.0
3248,55.0,41.0,30.0,0.0,0.0
3249,62.0,11.0,60.0,0.0,0.0
3250,67.0,128.0,30.0,0.0,0.0
3251,60.0,48.0,210.0,0.0,0.0
3252,62.0,40.0,180.0,0.0,0.0
3253,72.0,62.0,60.0,0.0,0.0
3254,81.0,24.0,150.0,0.0,0.0
3255,67.0,3.0,90.0,0.0,0.0
3256,74.0,63.0,90.0,0.0,0.0
3257,72.0,14.0,60.0,0.0,0.0
3258,79.0,16.0,60.0,0.0,0.0
3259,67.0,28.0,60.0,0.0,0.0
3260,62.0,138.0,30.0,0.0,0.0
3261,72.0,9.0,30.0,0.0,0.0
3262,60.0,35.0,90.0,0.0,0.0
3263,69.0,49.0,120.0,0.0,0.0
3264,62.0,9.0,90.0,0.0,0.0
3265,55.0,25.0,90.0,0.0,0.0
3266,50.0,103.0,30.0,0.0,0.0
3267,67.0,15.0,120.0,0.0,0.0
3268,59.0,19.0,1380.0,3.0,0.0
3269,67.0,2.0,1380.0,2.0,0.0
3270,50.0,70.0,600.0,4.0,0.0
3271,43.0,15.0,120.0,0.0,0.0
3272,59.0,18.0,120.0,0.0,0.0
3273,69.0,14.0,120.0,0.0,0.0
3274,50.0,46.0,90.0,0.0,0.0
3275,62.0,37.0,90.0,0.0,0.0
3276,55.0,20.0,60.0,0.0,0.0
3277,67.0,61.0,30.0,0.0,0.0
3278,59.0,64.0,90.0,0.0,0.0
3279,62.0,9.0,60.0,0.0,0.0
3280,71.0,78.0,60.0,0.0,0.0
3281,65.0,14.0,60.0,0.0,0.0
3282,81.0,58.0,60.0,0.0,0.0
3283,55.0,9.0,750.0,4.0,0.0
3284,79.0,65.0,120.0,0.0,0.0
3285,71.0,4.0,30.0,0.0,0.0
3286,81.0,150.0,60.0,0.0,0.0
3287,82.0,1.0,120.0,0.0,0.0
3288,73.0,83.0,120.0,0.0,0.0
3289,74.0,2.0,90.0,0.0,0.0
3290,83.0,132.0,90.0,0.0,0.0
3291,76.0,47.0,150.0,0.0,0.0
3292,84.0,25.0,120.0,0.0,0.0
3293,86.0,109.0,60.0,0.0,0.0
3294,77.0,17.0,150.0,0.0,0.0
3295,64.0,61.0,570.0,2.0,0.0
3296,88.0,7.0,150.0,0.0,0.0
3297,60.0,7.0,540.0,3.0,0.0
3298,79.0,80.0,150.0,0.0,0.0
3299,48.0,3.0,510.0,5.0,0.0
3300,55.0,12.0,600.0,4.0,0.0
3301,36.0,2.0,510.0,6.0,0.0
3302,87.0,70.0,120.0,0.0,0.0
3303,78.0,20.0,90.0,0.0,0.0
3304,86.0,9.0,90.0,0.0,0.0
3305,77.0,37.0,90.0,0.0,0.0
3306,85.0,33.0,30.0,0.0,0.0
3307,76.0,55.0,60.0,0.0,0.0
3308,84.0,46.0,30.0,0.0,0.0
3309,75.0,42.0,60.0,0.0,0.0
3310,74.0,3.0,60.0,0.0,0.0
3311,83.0,9.0,30.0,0.0,0.0
3312,48.0,25.0,480.0,5.0,0.0
3313,55.0,23.0,450.0,3.0,0.0
3314,60.0,12.0,1110.0,4.0,0.0
3315,82.0,40.0,60.0,0.0,0.0
3316,36.0,5.0,420.0,6.0,0.0
3317,73.0,84.0,90.0,0.0,0.0
3318,64.0,19.0,420.0,2.0,0.0
3319,81.0,7.0,90.0,0.0,0.0
3320,72.0,40.0,90.0,0.0,0.0
3321,80.0,40.0,30.0,0.0,0.0
3322,71.0,83.0,90.0,0.0,0.0
3323,79.0,12.0,90.0,0.0,0.0
3324,70.0,54.0,90.0,0.0,0.0
3325,78.0,8.0,60.0,0.0,0.0
3326,69.0,1.0,60.0,0.0,0.0
3327,57.0,34.0,180.0,3.0,0.0
3328,65.0,22.0,210.0,2.0,0.0
3329,29.0,10.0,210.0,6.0,0.0
3330,41.0,18.0,180.0,5.0,0.0
3331,77.0,44.0,60.0,0.0,0.0
3332,68.0,21.0,90.0,0.0,0.0
3333,55.0,87.0,600.0,3.0,0.0
3334,76.0,4.0,120.0,0.0,0.0
3335,67.0,62.0,120.0,0.0,0.0
3336,64.0,16.0,540.0,2.0,0.0
3337,48.0,62.0,1080.0,5.0,0.0
3338,36.0,71.0,990.0,6.0,0.0
3339,74.0,16.0,90.0,0.0,0.0
3340,65.0,11.0,90.0,0.0,0.0
3341,72.0,17.0,30.0,0.0,0.0
3342,64.0,123.0,30.0,0.0,0.0
3343,64.0,11.0,90.0,0.0,0.0
3344,60.0,91.0,90.0,0.0,0.0
3345,65.0,28.0,90.0,0.0,0.0
3346,48.0,13.0,120.0,0.0,0.0
3347,67.0,25.0,60.0,0.0,0.0
3348,55.0,54.0,60.0,0.0,0.0
3349,52.0,123.0,690.0,3.0,0.0
3350,55.0,8.0,480.0,4.0,0.0
3351,60.0,32.0,630.0,2.0,0.0
3352,76.0,74.0,120.0,0.0,0.0
3353,65.0,3.0,90.0,0.0,0.0
3354,74.0,24.0,90.0,0.0,0.0
3355,64.0,110.0,30.0,0.0,0.0
3356,72.0,3.0,30.0,0.0,0.0
3357,60.0,2.0,60.0,0.0,0.0
3358,64.0,101.0,60.0,0.0,0.0
3359,65.0,0.0,120.0,0.0,0.0
3360,48.0,15.0,60.0,0.0,0.0
3361,55.0,24.0,20.0,0.0,0.0
3362,67.0,1.0,30.0,0.0,0.0
3363,43.0,3.0,2520.0,5.0,0.0
3364,55.0,41.0,1800.0,4.0,0.0
3365,62.0,153.0,2490.0,2.0,0.0
3366,31.0,119.0,2340.0,6.0,0.0
3367,60.0,70.0,1200.0,3.0,0.0
3368,43.0,9.0,210.0,0.0,0.0
3369,60.0,31.0,210.0,0.0,0.0
3370,69.0,17.0,180.0,0.0,0.0
3371,50.0,32.0,90.0,0.0,0.0
3372,62.0,52.0,90.0,0.0,0.0
3373,55.0,41.0,30.0,0.0,0.0
3374,67.0,120.0,30.0,0.0,0.0
3375,60.0,17.0,150.0,0.0,0.0
3376,62.0,19.0,180.0,0.0,0.0
3377,72.0,89.0,60.0,0.0,0.0
3378,81.0,36.0,150.0,0.0,0.0
3379,67.0,36.0,90.0,0.0,0.0
3380,74.0,68.0,120.0,0.0,0.0
3381,72.0,14.0,60.0,0.0,0.0
3382,79.0,2.0,90.0,0.0,0.0
3383,67.0,40.0,90.0,0.0,0.0
3384,62.0,4.0,60.0,0.0,0.0
3385,72.0,130.0,30.0,0.0,0.0
3386,60.0,87.0,90.0,0.0,0.0
3387,69.0,83.0,210.0,0.0,0.0
3388,55.0,13.0,90.0,0.0,0.0
3389,62.0,24.0,90.0,0.0,0.0
3390,50.0,14.0,30.0,0.0,0.0
3391,67.0,52.0,180.0,0.0,0.0
3392,59.0,22.0,600.0,3.0,0.0
3393,43.0,11.0,120.0,0.0,0.0
3394,59.0,4.0,180.0,0.0,0.0
3395,50.0,56.0,60.0,0.0,0.0
3396,69.0,44.0,120.0,0.0,0.0
3397,55.0,3.0,60.0,0.0,0.0
3398,62.0,33.0,90.0,0.0,0.0
3399,67.0,47.0,30.0,0.0,0.0
3400,59.0,77.0,90.0,0.0,0.0
3401,62.0,10.0,90.0,0.0,0.0
3402,71.0,90.0,90.0,0.0,0.0
3403,81.0,19.0,120.0,0.0,0.0
3404,65.0,27.0,90.0,0.0,0.0
3405,57.0,9.0,780.0,3.0,0.0
3406,79.0,65.0,120.0,0.0,0.0
3407,71.0,36.0,90.0,0.0,0.0
3408,50.0,17.0,750.0,4.0,0.0
3409,81.0,147.0,60.0,0.0,0.0
3410,82.0,91.0,120.0,0.0,0.0
3411,73.0,1.0,120.0,0.0,0.0
3412,74.0,9.0,120.0,0.0,0.0
3413,83.0,130.0,120.0,0.0,0.0
3414,76.0,30.0,150.0,0.0,0.0
3415,84.0,23.0,120.0,0.0,0.0
3416,86.0,1.0,60.0,0.0,0.0
3417,77.0,10.0,180.0,0.0,0.0
3418,55.0,24.0,600.0,3.0,0.0
3419,64.0,6.0,630.0,2.0,0.0
3420,48.0,7.0,2460.0,5.0,0.0
3421,79.0,0.0,180.0,0.0,0.0
3422,88.0,104.0,180.0,0.0,0.0
3423,52.0,68.0,810.0,4.0,0.0
3424,36.0,34.0,2430.0,6.0,0.0
3425,87.0,81.0,150.0,0.0,0.0
3426,78.0,39.0,120.0,0.0,0.0
3427,86.0,6.0,120.0,0.0,0.0
3428,77.0,62.0,120.0,0.0,0.0
3429,85.0,38.0,60.0,0.0,0.0
3430,76.0,64.0,90.0,0.0,0.0
3431,84.0,77.0,120.0,0.0,0.0
3432,75.0,5.0,90.0,0.0,0.0
3433,83.0,5.0,90.0,0.0,0.0
3434,74.0,102.0,90.0,0.0,0.0
3435,55.0,16.0,450.0,3.0,0.0
3436,64.0,20.0,480.0,2.0,0.0
3437,82.0,13.0,120.0,0.0,0.0
3438,73.0,8.0,90.0,0.0,0.0
3439,58.0,55.0,450.0,4.0,0.0
3440,72.0,45.0,90.0,0.0,0.0
3441,81.0,6.0,90.0,0.0,0.0
3442,80.0,41.0,60.0,0.0,0.0
3443,71.0,86.0,90.0,0.0,0.0
3444,79.0,58.0,90.0,0.0,0.0
3445,70.0,2.0,90.0,0.0,0.0
3446,78.0,5.0,90.0,0.0,0.0
3447,69.0,21.0,90.0,0.0,0.0
3448,57.0,31.0,210.0,3.0,0.0
3449,65.0,73.0,180.0,2.0,0.0
3450,77.0,19.0,90.0,0.0,0.0
3451,68.0,15.0,120.0,0.0,0.0
3452,60.0,62.0,240.0,4.0,0.0
3453,55.0,33.0,570.0,3.0,0.0
3454,76.0,4.0,150.0,0.0,0.0
3455,67.0,1.0,120.0,0.0,0.0
3456,64.0,152.0,570.0,2.0,0.0
3457,58.0,228.0,1500.0,4.0,0.0
3458,74.0,7.0,90.0,0.0,0.0
3459,65.0,12.0,90.0,0.0,0.0
3460,72.0,12.0,30.0,0.0,0.0
3461,64.0,145.0,30.0,0.0,0.0
3462,60.0,15.0,90.0,0.0,0.0
3463,64.0,83.0,120.0,0.0,0.0
3464,70.0,18.0,120.0,0.0,0.0
3465,48.0,13.0,120.0,0.0,0.0
3466,72.0,15.0,30.0,0.0,0.0
3467,55.0,33.0,60.0,0.0,0.0
3468,52.0,73.0,900.0,3.0,0.0
3469,60.0,81.0,960.0,2.0,0.0
3470,76.0,92.0,150.0,0.0,0.0
3471,67.0,16.0,120.0,0.0,0.0
3472,74.0,2.0,120.0,0.0,0.0
3473,65.0,24.0,120.0,0.0,0.0
3474,72.0,129.0,90.0,0.0,0.0
3475,64.0,47.0,30.0,0.0,0.0
3476,60.0,10.0,120.0,0.0,0.0
3477,64.0,142.0,120.0,0.0,0.0
3478,48.0,0.0,210.0,0.0,0.0
3479,70.0,26.0,180.0,0.0,0.0
3480,55.0,11.0,60.0,0.0,0.0
3481,72.0,148.0,60.0,0.0,0.0
3482,53.0,6.0,1530.0,3.0,0.0
3483,60.0,14.0,1530.0,3.0,0.0
3484,69.0,20.0,1650.0,2.0,0.0
3485,57.0,26.0,1560.0,4.0,0.0
3486,41.0,15.0,360.0,0.0,0.0
3487,48.0,12.0,1470.0,5.0,0.0
3488,29.0,1.0,1470.0,6.0,0.0
3489,57.0,51.0,120.0,0.0,0.0
3490,48.0,65.0,180.0,0.0,0.0
3491,60.0,118.0,90.0,0.0,0.0
3492,53.0,4.0,60.0,0.0,0.0
3493,65.0,23.0,90.0,0.0,0.0
3494,57.0,56.0,90.0,0.0,0.0
3495,60.0,103.0,60.0,0.0,0.0
3496,69.0,15.0,30.0,0.0,0.0
3497,72.0,73.0,60.0,0.0,0.0
3498,65.0,7.0,60.0,0.0,0.0
3499,77.0,18.0,30.0,0.0,0.0
3500,69.0,87.0,60.0,0.0,0.0
3501,81.0,22.0,60.0,0.0,0.0
3502,72.0,72.0,60.0,0.0,0.0
3503,77.0,17.0,30.0,0.0,0.0
3504,69.0,93.0,60.0,0.0,0.0
3505,72.0,59.0,90.0,0.0,0.0
3506,81.0,26.0,60.0,0.0,0.0
3507,77.0,29.0,30.0,0.0,0.0
3508,69.0,71.0,60.0,0.0,0.0
3509,81.0,43.0,60.0,0.0,0.0
3510,72.0,49.0,90.0,0.0,0.0
3511,69.0,41.0,60.0,0.0,0.0
3512,77.0,2.0,60.0,0.0,0.0
3513,72.0,49.0,90.0,0.0,0.0
3514,81.0,30.0,60.0,0.0,0.0
3515,76.0,26.0,60.0,0.0,0.0
3516,68.0,65.0,60.0,0.0,0.0
3517,71.0,102.0,60.0,0.0,0.0
3518,80.0,22.0,30.0,0.0,0.0
3519,67.0,63.0,90.0,0.0,0.0
3520,75.0,11.0,60.0,0.0,0.0
3521,79.0,21.0,30.0,0.0,0.0
3522,70.0,92.0,60.0,0.0,0.0
3523,74.0,26.0,60.0,0.0,0.0
3524,66.0,87.0,60.0,0.0,0.0
3525,78.0,6.0,60.0,0.0,0.0
3526,69.0,128.0,60.0,0.0,0.0
3527,65.0,3.0,60.0,0.0,0.0
3528,73.0,94.0,60.0,0.0,0.0
3529,68.0,116.0,90.0,0.0,0.0
3530,77.0,47.0,60.0,0.0,0.0
3531,73.0,81.0,60.0,0.0,0.0
3532,64.0,47.0,150.0,0.0,0.0
3533,76.0,19.0,30.0,0.0,0.0
3534,67.0,388.0,60.0,0.0,0.0
3535,50.0,126.0,210.0,0.0,0.0
3536,38.0,49.0,1260.0,5.0,0.0
3537,57.0,41.0,1320.0,3.0,0.0
3538,65.0,108.0,1350.0,2.0,0.0
3539,65.0,28.0,120.0,0.0,0.0
3540,57.0,61.0,150.0,0.0,0.0
3541,69.0,39.0,120.0,0.0,0.0
3542,62.0,23.0,90.0,0.0,0.0
3543,74.0,15.0,60.0,0.0,0.0
3544,65.0,110.0,60.0,0.0,0.0
3545,77.0,39.0,90.0,0.0,0.0
3546,69.0,69.0,120.0,0.0,0.0
3547,74.0,113.0,90.0,0.0,0.0
3548,81.0,9.0,90.0,0.0,0.0
3549,77.0,74.0,120.0,0.0,0.0
3550,86.0,9.0,120.0,0.0,0.0
3551,81.0,82.0,120.0,0.0,0.0
3552,74.0,8.0,90.0,0.0,0.0
3553,86.0,69.0,90.0,0.0,0.0
3554,77.0,7.0,90.0,0.0,0.0
3555,81.0,40.0,90.0,0.0,0.0
3556,74.0,11.0,90.0,0.0,0.0
3557,69.0,18.0,60.0,0.0,0.0
3558,77.0,88.0,60.0,0.0,0.0
3559,65.0,16.0,60.0,0.0,0.0
3560,74.0,9.0,60.0,0.0,0.0
3561,43.0,9.0,630.0,5.0,0.0
3562,62.0,10.0,570.0,2.0,0.0
3563,53.0,35.0,600.0,3.0,0.0
3564,59.0,181.0,1380.0,4.0,0.0
3565,55.0,54.0,150.0,0.0,0.0
3566,62.0,51.0,90.0,0.0,0.0
3567,65.0,1.0,90.0,0.0,0.0
3568,71.0,35.0,90.0,0.0,0.0
3569,65.0,51.0,30.0,0.0,0.0
3570,74.0,135.0,30.0,0.0,0.0
3571,67.0,16.0,210.0,0.0,0.0
3572,77.0,46.0,90.0,0.0,0.0
3573,71.0,4.0,120.0,0.0,0.0
3574,74.0,90.0,120.0,0.0,0.0
3575,83.0,9.0,90.0,0.0,0.0
3576,44.0,16.0,690.0,5.0,0.0
3577,86.0,4.0,120.0,0.0,0.0
3578,77.0,95.0,120.0,0.0,0.0
3579,62.0,20.0,480.0,2.0,0.0
3580,53.0,6.0,480.0,3.0,0.0
3581,89.0,0.0,120.0,0.0,0.0
3582,74.0,100.0,120.0,0.0,0.0
3583,88.0,2.0,120.0,0.0,0.0
3584,76.0,47.0,120.0,0.0,0.0
3585,86.0,55.0,150.0,0.0,0.0
3586,77.0,69.0,60.0,0.0,0.0
3587,88.0,140.0,120.0,0.0,0.0
3588,64.0,45.0,240.0,2.0,0.0
3589,52.0,3.0,210.0,3.0,0.0
3590,83.0,11.0,150.0,0.0,0.0
3591,45.0,10.0,1350.0,5.0,0.0
3592,45.0,27.0,330.0,0.0,0.0
3593,57.0,23.0,1380.0,4.0,0.0
3594,84.0,43.0,90.0,0.0,0.0
3595,60.0,92.0,1380.0,2.0,0.0
3596,52.0,36.0,1290.0,3.0,0.0
3597,60.0,14.0,120.0,0.0,0.0
3598,52.0,30.0,150.0,0.0,0.0
3599,64.0,41.0,120.0,0.0,0.0
3600,57.0,64.0,30.0,0.0,0.0
3601,69.0,54.0,30.0,0.0,0.0
3602,60.0,88.0,90.0,0.0,0.0
3603,64.0,37.0,120.0,0.0,0.0
3604,72.0,27.0,90.0,0.0,0.0
3605,76.0,97.0,60.0,0.0,0.0
3606,69.0,5.0,30.0,0.0,0.0
3607,81.0,36.0,60.0,0.0,0.0
3608,72.0,88.0,90.0,0.0,0.0
3609,69.0,16.0,90.0,0.0,0.0
3610,76.0,77.0,90.0,0.0,0.0
3611,81.0,68.0,90.0,0.0,0.0
3612,72.0,20.0,90.0,0.0,0.0
3613,69.0,18.0,90.0,0.0,0.0
3614,76.0,38.0,90.0,0.0,0.0
3615,64.0,17.0,60.0,0.0,0.0
3616,72.0,90.0,60.0,0.0,0.0
3617,60.0,38.0,60.0,0.0,0.0
3618,69.0,22.0,30.0,0.0,0.0
3619,57.0,58.0,1350.0,3.0,0.0
3620,53.0,76.0,720.0,4.0,0.0
3621,38.0,175.0,1380.0,5.0,0.0
3622,65.0,57.0,2700.0,2.0,0.0
3623,69.0,17.0,120.0,0.0,0.0
3624,50.0,103.0,150.0,0.0,0.0
3625,65.0,36.0,90.0,0.0,0.0
3626,57.0,73.0,120.0,0.0,0.0
3627,69.0,54.0,120.0,0.0,0.0
3628,62.0,10.0,90.0,0.0,0.0
3629,65.0,109.0,60.0,0.0,0.0
3630,74.0,15.0,60.0,0.0,0.0
3631,77.0,30.0,90.0,0.0,0.0
3632,69.0,69.0,90.0,0.0,0.0
3633,74.0,13.0,90.0,0.0,0.0
3634,81.0,14.0,90.0,0.0,0.0
3635,62.0,13.0,1410.0,4.0,0.0
3636,86.0,20.0,90.0,0.0,0.0
3637,77.0,82.0,90.0,0.0,0.0
3638,74.0,19.0,90.0,0.0,0.0
3639,81.0,76.0,90.0,0.0,0.0
3640,86.0,87.0,120.0,0.0,0.0
3641,77.0,12.0,90.0,0.0,0.0
3642,81.0,43.0,90.0,0.0,0.0
3643,74.0,6.0,90.0,0.0,0.0
3644,77.0,146.0,30.0,0.0,0.0
3645,69.0,6.0,30.0,0.0,0.0
3646,74.0,11.0,90.0,0.0,0.0
3647,65.0,56.0,90.0,0.0,0.0
3648,56.0,36.0,1380.0,3.0,0.0
3649,41.0,28.0,1440.0,5.0,0.0
3650,56.0,19.0,390.0,0.0,0.0
3651,72.0,106.0,240.0,0.0,0.0
3652,60.0,31.0,180.0,0.0,0.0
3653,65.0,32.0,150.0,0.0,0.0
3654,62.0,25.0,120.0,0.0,0.0
3655,72.0,16.0,120.0,0.0,0.0
3656,65.0,19.0,30.0,0.0,0.0
3657,74.0,128.0,60.0,0.0,0.0
3658,68.0,51.0,360.0,0.0,0.0
3659,77.0,120.0,90.0,0.0,0.0
3660,74.0,11.0,120.0,0.0,0.0
3661,84.0,62.0,120.0,0.0,0.0
3662,60.0,52.0,810.0,4.0,0.0
3663,86.0,13.0,90.0,0.0,0.0
3664,77.0,30.0,120.0,0.0,0.0
3665,84.0,60.0,120.0,0.0,0.0
3666,74.0,29.0,90.0,0.0,0.0
3667,86.0,12.0,90.0,0.0,0.0
3668,77.0,80.0,90.0,0.0,0.0
3669,84.0,4.0,90.0,0.0,0.0
3670,74.0,57.0,90.0,0.0,0.0
3671,77.0,107.0,60.0,0.0,0.0
3672,68.0,11.0,30.0,0.0,0.0
3673,74.0,4.0,60.0,0.0,0.0
3674,65.0,77.0,60.0,0.0,0.0
3675,53.0,38.0,660.0,3.0,0.0
3676,43.0,214.0,1920.0,5.0,0.0
3677,62.0,10.0,630.0,2.0,0.0
3678,55.0,5.0,180.0,0.0,0.0
3679,71.0,50.0,120.0,0.0,0.0
3680,59.0,73.0,1800.0,4.0,0.0
3681,62.0,51.0,120.0,0.0,0.0
3682,65.0,48.0,150.0,0.0,0.0
3683,71.0,57.0,90.0,0.0,0.0
3684,74.0,113.0,60.0,0.0,0.0
3685,67.0,41.0,150.0,0.0,0.0
3686,77.0,27.0,120.0,0.0,0.0
3687,71.0,40.0,120.0,0.0,0.0
3688,74.0,7.0,120.0,0.0,0.0
3689,83.0,125.0,120.0,0.0,0.0
3690,77.0,123.0,150.0,0.0,0.0
3691,86.0,32.0,120.0,0.0,0.0
3692,62.0,103.0,750.0,2.0,0.0
3693,53.0,41.0,690.0,3.0,0.0
3694,74.0,184.0,150.0,0.0,0.0
3695,89.0,1.0,150.0,0.0,0.0
3696,76.0,45.0,210.0,0.0,0.0
3697,88.0,0.0,180.0,0.0,0.0
3698,86.0,74.0,210.0,0.0,0.0
3699,77.0,150.0,30.0,0.0,0.0
3700,55.0,8.0,600.0,3.0,0.0
3701,88.0,229.0,210.0,0.0,0.0
3702,64.0,4.0,510.0,2.0,0.0
3703,83.0,49.0,240.0,0.0,0.0
3704,60.0,1.0,1530.0,4.0,0.0
3705,76.0,156.0,720.0,0.0,0.0
3706,84.0,251.0,300.0,0.0,0.0
3707,52.0,22.0,1680.0,3.0,0.0
3708,72.0,50.0,870.0,0.0,0.0
3709,36.0,57.0,1560.0,6.0,0.0
3710,60.0,10.0,1530.0,2.0,0.0
3711,48.0,19.0,1530.0,5.0,0.0
3712,91.0,78.0,270.0,0.0,0.0
3713,84.0,87.0,150.0,0.0,0.0
3714,79.0,5.0,120.0,0.0,0.0
3715,84.0,1.0,150.0,0.0,0.0
3716,79.0,97.0,90.0,0.0,0.0
3717,72.0,106.0,90.0,0.0,0.0
3718,79.0,99.0,90.0,0.0,0.0
3719,72.0,80.0,90.0,0.0,0.0
3720,67.0,121.0,60.0,0.0,0.0
3721,72.0,87.0,90.0,0.0,0.0
3722,67.0,36.0,90.0,0.0,0.0
3723,60.0,55.0,120.0,0.0,0.0
3724,60.0,41.0,510.0,7.0,0.0
3725,67.0,91.0,90.0,0.0,0.0
3726,60.0,98.0,90.0,0.0,0.0
3727,67.0,70.0,90.0,0.0,0.0
3728,72.0,74.0,90.0,0.0,0.0
3729,67.0,93.0,120.0,0.0,0.0
3730,72.0,68.0,90.0,0.0,0.0
3731,60.0,44.0,540.0,7.0,0.0
3732,79.0,111.0,60.0,0.0,0.0
3733,72.0,99.0,90.0,0.0,0.0
3734,79.0,69.0,90.0,0.0,0.0
3735,84.0,108.0,60.0,0.0,0.0
3736,79.0,188.0,150.0,0.0,0.0
3737,58.0,71.0,1170.0,0.0,0.0
3738,84.0,115.0,180.0,0.0,0.0
3739,48.0,36.0,4620.0,0.0,0.0
3740,60.0,46.0,3720.0,7.0,0.0
3741,91.0,79.0,120.0,0.0,0.0
3742,84.0,77.0,60.0,0.0,0.0
3743,79.0,123.0,60.0,0.0,0.0
3744,84.0,68.0,90.0,0.0,0.0
3745,79.0,84.0,60.0,0.0,0.0
3746,72.0,113.0,60.0,0.0,0.0
3747,79.0,81.0,90.0,0.0,0.0
3748,72.0,62.0,90.0,0.0,0.0
3749,67.0,131.0,60.0,0.0,0.0
3750,72.0,36.0,90.0,0.0,0.0
3751,67.0,111.0,120.0,0.0,0.0
3752,58.0,59.0,1320.0,3.0,0.0
3753,67.0,86.0,1230.0,2.0,0.0
3754,60.0,73.0,120.0,0.0,0.0
3755,67.0,101.0,90.0,0.0,0.0
3756,60.0,83.0,90.0,0.0,0.0
3757,67.0,64.0,90.0,0.0,0.0
3758,72.0,124.0,60.0,0.0,0.0
3759,67.0,100.0,120.0,0.0,0.0
3760,72.0,67.0,120.0,0.0,0.0
3761,79.0,117.0,60.0,0.0,0.0
3762,72.0,96.0,90.0,0.0,0.0
3763,79.0,64.0,90.0,0.0,0.0
3764,84.0,164.0,60.0,0.0,0.0
3765,79.0,49.0,150.0,0.0,0.0
3766,57.0,90.0,1200.0,3.0,0.0
3767,65.0,6.0,1200.0,2.0,0.0
3768,84.0,87.0,210.0,0.0,0.0
3769,57.0,49.0,1110.0,0.0,0.0
3770,89.0,71.0,120.0,0.0,0.0
3771,84.0,87.0,60.0,0.0,0.0
3772,77.0,80.0,90.0,0.0,0.0
3773,84.0,93.0,60.0,0.0,0.0
3774,77.0,74.0,90.0,0.0,0.0
3775,72.0,103.0,60.0,0.0,0.0
3776,77.0,71.0,90.0,0.0,0.0
3777,72.0,83.0,60.0,0.0,0.0
3778,65.0,92.0,60.0,0.0,0.0
3779,72.0,66.0,90.0,0.0,0.0
3780,65.0,35.0,120.0,0.0,0.0
3781,60.0,130.0,570.0,15.0,0.0
3782,64.0,119.0,1260.0,2.0,0.0
3783,55.0,143.0,1350.0,3.0,0.0
3784,55.0,67.0,990.0,0.0,0.0
3785,60.0,46.0,120.0,0.0,0.0
3786,64.0,113.0,120.0,0.0,0.0
3787,60.0,94.0,120.0,0.0,0.0
3788,64.0,72.0,120.0,0.0,0.0
3789,72.0,29.0,90.0,0.0,0.0
3790,64.0,22.0,30.0,0.0,0.0
3791,60.0,8.0,510.0,15.0,0.0
3792,72.0,95.0,90.0,0.0,0.0
3793,76.0,74.0,90.0,0.0,0.0
3794,72.0,116.0,90.0,0.0,0.0
3795,76.0,31.0,120.0,0.0,0.0
3796,84.0,100.0,180.0,0.0,0.0
3797,76.0,20.0,60.0,0.0,0.0
3798,60.0,92.0,1110.0,15.0,0.0
3799,62.0,32.0,3900.0,2.0,0.0
3800,60.0,18.0,3960.0,4.0,0.0
3801,38.0,18.0,3870.0,6.0,0.0
3802,54.0,68.0,1770.0,0.0,0.0
3803,84.0,87.0,300.0,0.0,0.0
3804,60.0,86.0,1440.0,0.0,0.0
3805,50.0,3.0,1770.0,0.0,0.0
3806,50.0,94.0,3960.0,5.0,0.0
3807,54.0,21.0,3900.0,3.0,0.0
3808,93.0,106.0,120.0,0.0,0.0
3809,84.0,101.0,90.0,0.0,0.0
3810,81.0,96.0,90.0,0.0,0.0
3811,86.0,119.0,90.0,0.0,0.0
3812,81.0,83.0,120.0,0.0,0.0
3813,74.0,49.0,90.0,0.0,0.0
3814,84.0,87.0,60.0,0.0,0.0
3815,74.0,46.0,60.0,0.0,0.0
3816,50.0,60.0,300.0,15.0,0.0
3817,72.0,79.0,90.0,0.0,0.0
3818,81.0,84.0,90.0,0.0,0.0
3819,72.0,8.0,60.0,0.0,0.0
3820,69.0,54.0,60.0,0.0,0.0
3821,50.0,29.0,570.0,15.0,0.0
3822,74.0,88.0,90.0,0.0,0.0
3823,69.0,102.0,90.0,0.0,0.0
3824,62.0,63.0,90.0,0.0,0.0
3825,72.0,0.0,60.0,0.0,0.0
3826,62.0,92.0,60.0,0.0,0.0
3827,60.0,72.0,540.0,15.0,0.0
3828,60.0,71.0,90.0,0.0,0.0
3829,69.0,118.0,60.0,0.0,0.0
3830,60.0,85.0,90.0,0.0,0.0
3831,57.0,103.0,90.0,0.0,0.0
3832,62.0,73.0,90.0,0.0,0.0
3833,57.0,166.0,150.0,0.0,0.0
3834,60.0,98.0,810.0,15.0,0.0
3835,62.0,84.0,1290.0,7.0,0.0
3836,54.0,59.0,180.0,0.0,0.0
3837,38.0,57.0,690.0,0.0,0.0
3838,57.0,143.0,60.0,0.0,0.0
3839,60.0,112.0,120.0,0.0,0.0
3840,62.0,94.0,120.0,0.0,0.0
3841,66.0,39.0,120.0,0.0,0.0
3842,69.0,73.0,60.0,0.0,0.0
3843,72.0,19.0,90.0,0.0,0.0
3844,57.0,12.0,780.0,15.0,0.0
3845,74.0,114.0,120.0,0.0,0.0
3846,78.0,41.0,120.0,0.0,0.0
3847,81.0,181.0,60.0,0.0,0.0
3848,84.0,66.0,150.0,0.0,0.0
3849,93.0,11.0,150.0,0.0,0.0
3850,43.0,8.0,120.0,0.0,0.0
3851,50.0,7.0,60.0,0.0,0.0
3852,62.0,24.0,930.0,7.0,0.0
3853,55.0,0.0,2220.0,7.0,0.0
3854,31.0,2.0,2070.0,6.0,0.0
3855,59.0,81.0,930.0,2.0,0.0
3856,43.0,12.0,2040.0,5.0,0.0
3857,53.0,78.0,2100.0,3.0,0.0
3858,59.0,52.0,2040.0,4.0,0.0
3859,53.0,21.0,2010.0,15.0,0.0
3860,53.0,0.0,60.0,0.0,0.0
3861,59.0,153.0,90.0,0.0,0.0
3862,91.0,185.0,210.0,0.0,0.0
3863,89.0,111.0,180.0,0.0,0.0
3864,86.0,52.0,180.0,0.0,0.0
3865,83.0,113.0,120.0,0.0,0.0
3866,79.0,68.0,120.0,0.0,0.0
3867,83.0,13.0,120.0,0.0,0.0
3868,67.0,42.0,2520.0,2.0,0.0
3869,81.0,113.0,90.0,0.0,0.0
3870,62.0,67.0,720.0,7.0,0.0
3871,77.0,183.0,90.0,0.0,0.0
3872,74.0,220.0,150.0,0.0,0.0
3873,71.0,130.0,240.0,0.0,0.0
3874,67.0,18.0,180.0,0.0,0.0
3875,64.0,3.0,480.0,7.0,0.0
3876,79.0,284.0,60.0,0.0,0.0
3877,52.0,22.0,1620.0,15.0,0.0
3878,48.0,289.0,16260.0,5.0,0.0
3879,52.0,43.0,1260.0,0.0,0.0
3880,60.0,131.0,5040.0,4.0,0.0
3881,52.0,56.0,1440.0,3.0,0.0
3882,48.0,2.0,1200.0,0.0,0.0
3883,60.0,40.0,1140.0,0.0,0.0
3884,60.0,21.0,8130.0,7.0,0.0
3885,52.0,3.0,660.0,7.0,0.0
3886,36.0,47.0,990.0,6.0,0.0
3887,72.0,393.0,120.0,0.0,0.0
3888,91.0,95.0,180.0,0.0,0.0
3889,84.0,98.0,120.0,0.0,0.0
3890,79.0,112.0,90.0,0.0,0.0
3891,84.0,83.0,90.0,0.0,0.0
3892,79.0,44.0,90.0,0.0,0.0
3893,72.0,83.0,90.0,0.0,0.0
3894,79.0,42.0,120.0,0.0,0.0
3895,72.0,83.0,90.0,0.0,0.0
3896,67.0,36.0,90.0,0.0,0.0
3897,72.0,66.0,120.0,0.0,0.0
3898,67.0,244.0,90.0,0.0,0.0
3899,58.0,28.0,1560.0,15.0,0.0
3900,76.0,15.0,1500.0,12.0,0.0
3901,48.0,12.0,1050.0,0.0,0.0
3902,64.0,93.0,1530.0,12.0,0.0
3903,67.0,108.0,720.0,2.0,0.0
3904,58.0,20.0,1470.0,3.0,0.0
3905,58.0,39.0,960.0,0.0,0.0
3906,60.0,98.0,180.0,0.0,0.0
3907,67.0,96.0,120.0,0.0,0.0
3908,60.0,102.0,120.0,0.0,0.0
3909,67.0,81.0,90.0,0.0,0.0
3910,72.0,131.0,90.0,0.0,0.0
3911,67.0,20.0,120.0,0.0,0.0
3912,69.0,84.0,420.0,2.0,0.0
3913,72.0,100.0,120.0,0.0,0.0
3914,79.0,64.0,90.0,0.0,0.0
3915,72.0,42.0,90.0,0.0,0.0
3916,67.0,5.0,510.0,2.0,0.0
3917,79.0,80.0,120.0,0.0,0.0
3918,84.0,179.0,90.0,0.0,0.0
3919,79.0,41.0,150.0,0.0,0.0
3920,48.0,16.0,1050.0,0.0,0.0
3921,57.0,24.0,1410.0,3.0,0.0
3922,57.0,59.0,1320.0,15.0,0.0
3923,77.0,19.0,1380.0,12.0,0.0
3924,65.0,40.0,1410.0,12.0,0.0
3925,84.0,88.0,210.0,0.0,0.0
3926,57.0,64.0,1020.0,0.0,0.0
3927,65.0,20.0,1260.0,2.0,0.0
3928,89.0,77.0,120.0,0.0,0.0
3929,84.0,81.0,90.0,0.0,0.0
3930,77.0,125.0,60.0,0.0,0.0
3931,84.0,76.0,120.0,0.0,0.0
3932,77.0,79.0,90.0,0.0,0.0
3933,72.0,118.0,60.0,0.0,0.0
3934,77.0,77.0,120.0,0.0,0.0
3935,72.0,82.0,90.0,0.0,0.0
3936,65.0,4.0,60.0,0.0,0.0
3937,72.0,82.0,60.0,0.0,0.0
3938,65.0,114.0,60.0,0.0,0.0
3939,36.0,97.0,11850.0,6.0,0.0
3940,48.0,29.0,870.0,0.0,0.0
3941,55.0,41.0,900.0,0.0,0.0
3942,55.0,24.0,1860.0,15.0,0.0
3943,64.0,101.0,390.0,2.0,0.0
3944,55.0,42.0,1710.0,3.0,0.0
3945,60.0,96.0,180.0,0.0,0.0
3946,67.0,176.0,1980.0,12.0,0.0
3947,79.0,39.0,1950.0,12.0,0.0
3948,64.0,97.0,150.0,0.0,0.0
3949,60.0,9.0,120.0,0.0,0.0
3950,65.0,80.0,150.0,2.0,0.0
3951,64.0,26.0,120.0,0.0,0.0
3952,72.0,27.0,120.0,0.0,0.0
3953,64.0,16.0,120.0,2.0,0.0
3954,64.0,59.0,60.0,0.0,0.0
3955,62.0,3.0,120.0,2.0,0.0
3956,64.0,16.0,1050.0,4.0,0.0
3957,64.0,34.0,180.0,2.0,0.0
3958,72.0,4.0,120.0,0.0,0.0
3959,76.0,119.0,120.0,0.0,0.0
3960,71.0,179.0,690.0,2.0,0.0
3961,72.0,162.0,120.0,0.0,0.0
3962,76.0,154.0,150.0,0.0,0.0
3963,84.0,84.0,180.0,0.0,0.0
3964,76.0,57.0,90.0,0.0,0.0
3965,72.0,17.0,300.0,2.0,0.0
3966,54.0,14.0,2850.0,3.0,0.0
3967,62.0,2.0,2820.0,4.0,0.0
3968,48.0,35.0,120.0,0.0,0.0
3969,84.0,50.0,150.0,0.0,0.0
3970,54.0,8.0,90.0,0.0,0.0
3971,54.0,10.0,2640.0,15.0,0.0
3972,57.0,71.0,60.0,0.0,0.0
3973,72.0,44.0,1230.0,2.0,0.0
3974,69.0,78.0,2640.0,12.0,0.0
3975,81.0,16.0,2580.0,12.0,0.0
3976,62.0,5.0,30.0,0.0,0.0
3977,93.0,86.0,150.0,0.0,0.0
3978,84.0,122.0,60.0,0.0,0.0
3979,81.0,143.0,60.0,0.0,0.0
3980,86.0,111.0,90.0,0.0,0.0
3981,81.0,92.0,120.0,0.0,0.0
3982,74.0,60.0,120.0,0.0,0.0
3983,84.0,84.0,60.0,0.0,0.0
3984,74.0,136.0,60.0,0.0,0.0
3985,72.0,45.0,90.0,0.0,0.0
3986,81.0,80.0,90.0,0.0,0.0
3987,62.0,5.0,150.0,2.0,0.0
3988,72.0,68.0,90.0,0.0,0.0
3989,69.0,140.0,60.0,0.0,0.0
3990,62.0,39.0,690.0,2.0,0.0
3991,74.0,96.0,120.0,0.0,0.0
3992,69.0,89.0,120.0,0.0,0.0
3993,62.0,57.0,90.0,0.0,0.0
3994,72.0,88.0,60.0,0.0,0.0
3995,62.0,112.0,60.0,0.0,0.0
3996,60.0,46.0,90.0,0.0,0.0
3997,69.0,26.0,690.0,2.0,0.0
3998,69.0,102.0,90.0,0.0,0.0
3999,60.0,83.0,90.0,0.0,0.0
4000,57.0,118.0,90.0,0.0,0.0
4001,62.0,76.0,270.0,7.0,0.0
4002,62.0,94.0,90.0,0.0,0.0
4003,57.0,17.0,90.0,0.0,0.0
4004,53.0,36.0,3120.0,15.0,0.0
4005,53.0,8.0,3150.0,3.0,0.0
4006,56.0,51.0,210.0,0.0,0.0
4007,71.0,54.0,3150.0,12.0,0.0
4008,83.0,5.0,3030.0,12.0,0.0
4009,53.0,123.0,1200.0,0.0,0.0
4010,59.0,57.0,3030.0,4.0,0.0
4011,62.0,5.0,1320.0,7.0,0.0
4012,68.0,120.0,1380.0,2.0,0.0
4013,48.0,39.0,1080.0,0.0,0.0
4014,59.0,42.0,120.0,0.0,0.0
4015,62.0,142.0,60.0,0.0,0.0
4016,65.0,117.0,90.0,0.0,0.0
4017,68.0,95.0,120.0,0.0,0.0
4018,71.0,40.0,120.0,0.0,0.0
4019,74.0,141.0,60.0,0.0,0.0
4020,77.0,119.0,90.0,0.0,0.0
4021,80.0,123.0,120.0,0.0,0.0
4022,83.0,22.0,120.0,0.0,0.0
4023,86.0,65.0,60.0,0.0,0.0
4024,92.0,77.0,150.0,0.0,0.0
4025,48.0,2.0,90.0,0.0,0.0
4026,67.0,5.0,1770.0,2.0,0.0
4027,55.0,53.0,810.0,0.0,0.0
4028,62.0,161.0,1410.0,7.0,0.0
4029,91.0,91.0,150.0,0.0,0.0
4030,55.0,18.0,1740.0,7.0,0.0
4031,62.0,54.0,420.0,0.0,0.0
4032,79.0,166.0,90.0,0.0,0.0
4033,77.0,60.0,120.0,0.0,0.0
4034,74.0,84.0,120.0,0.0,0.0
4035,71.0,79.0,90.0,0.0,0.0
4036,67.0,83.0,60.0,0.0,0.0
4037,65.0,61.0,90.0,0.0,0.0
4038,62.0,172.0,60.0,0.0,0.0
4039,59.0,127.0,120.0,0.0,0.0
4040,55.0,212.0,120.0,0.0,0.0
4041,53.0,5.0,180.0,0.0,0.0
4042,64.0,2.0,1740.0,7.0,0.0
4043,50.0,96.0,180.0,0.0,0.0
4044,48.0,66.0,300.0,0.0,0.0
4045,52.0,5.0,12240.0,3.0,0.0
4046,36.0,40.0,240.0,0.0,0.0
4047,84.0,1.0,1590.0,12.0,0.0
4048,72.0,18.0,1560.0,12.0,0.0
4049,60.0,1.0,1530.0,4.0,0.0
4050,52.0,29.0,1500.0,15.0,0.0
4051,60.0,24.0,12150.0,2.0,0.0
4052,60.0,9.0,1440.0,7.0,0.0
4053,52.0,195.0,150.0,0.0,0.0
4054,55.0,104.0,240.0,0.0,0.0
4055,67.0,42.0,60.0,0.0,0.0
4056,60.0,177.0,90.0,0.0,0.0
4057,55.0,152.0,150.0,0.0,0.0
4058,64.0,132.0,180.0,0.0,0.0
4059,48.0,143.0,150.0,0.0,0.0
4060,67.0,176.0,120.0,0.0,0.0
4061,60.0,54.0,150.0,0.0,0.0
4062,55.0,15.0,90.0,0.0,0.0
4063,36.0,55.0,60.0,0.0,0.0
4064,48.0,94.0,60.0,0.0,0.0
4065,52.0,181.0,90.0,0.0,0.0
4066,55.0,12.0,180.0,0.0,0.0
4067,67.0,149.0,60.0,0.0,0.0
4068,60.0,112.0,90.0,0.0,0.0
4069,55.0,229.0,120.0,0.0,0.0
4070,64.0,71.0,180.0,0.0,0.0
4071,48.0,225.0,90.0,0.0,0.0
4072,67.0,156.0,120.0,0.0,0.0
4073,60.0,57.0,150.0,0.0,0.0
4074,55.0,236.0,90.0,0.0,0.0
4075,48.0,42.0,210.0,0.0,0.0
4076,36.0,25.0,180.0,0.0,0.0
4077,52.0,222.0,120.0,0.0,0.0
4078,55.0,93.0,240.0,0.0,0.0
4079,67.0,32.0,90.0,0.0,0.0
4080,60.0,270.0,90.0,0.0,0.0
4081,55.0,62.0,240.0,0.0,0.0
4082,64.0,253.0,180.0,0.0,0.0
4083,48.0,19.0,270.0,0.0,0.0
4084,67.0,175.0,90.0,0.0,0.0
4085,60.0,104.0,150.0,0.0,0.0
4086,55.0,2.0,240.0,0.0,0.0
4087,43.0,15.0,1710.0,5.0,0.0
4088,64.0,104.0,420.0,0.0,0.0
4089,31.0,51.0,1710.0,6.0,0.0
4090,48.0,231.0,600.0,0.0,0.0
4091,67.0,269.0,120.0,0.0,0.0
4092,60.0,32.0,660.0,0.0,0.0
4093,55.0,19.0,360.0,0.0,0.0
4094,64.0,75.0,450.0,0.0,0.0
4095,48.0,165.0,60.0,0.0,0.0
4096,67.0,376.0,120.0,0.0,0.0
4097,60.0,18.0,360.0,0.0,0.0
4098,55.0,15.0,210.0,0.0,0.0
4099,64.0,508.0,120.0,0.0,0.0
4100,36.0,6.0,6090.0,6.0,0.0
4101,36.0,8.0,6090.0,5.0,0.0
4102,69.0,806.0,90.0,0.0,0.0
4103,67.0,166.0,420.0,0.0,0.0
4104,48.0,457.0,120.0,0.0,0.0
4105,60.0,658.0,570.0,0.0,0.0
4106,55.0,138.0,270.0,0.0,0.0
4107,64.0,14.0,90.0,0.0,0.0
4108,69.0,578.0,330.0,0.0,0.0
4109,67.0,578.0,300.0,0.0,0.0
4110,48.0,504.0,120.0,0.0,0.0
4111,60.0,24.0,360.0,0.0,0.0
4112,55.0,569.0,90.0,0.0,0.0
4113,36.0,1687.0,1110.0,0.0,0.0
4114,88.0,967.0,60.0,0.0,0.0
