,note,step,duration,channel,velocity
0,73.0,120.0,360.0,0.0,0.0
1,45.0,120.0,240.0,0.0,0.0
2,52.0,0.0,240.0,0.0,0.0
3,69.0,480.0,120.0,0.0,0.0
4,64.0,0.0,960.0,0.0,0.0
5,61.0,240.0,960.0,0.0,0.0
6,52.0,240.0,15.0,0.0,0.0
7,52.0,240.0,15.0,0.0,0.0
8,57.0,0.0,15.0,0.0,0.0
9,66.0,480.0,480.0,0.0,0.0
10,61.0,240.0,240.0,0.0,0.0
11,52.0,0.0,240.0,0.0,0.0
12,59.0,240.0,1440.0,0.0,0.0
13,62.0,0.0,1440.0,0.0,0.0
14,68.0,0.0,1440.0,0.0,0.0
15,52.0,240.0,15.0,0.0,0.0
16,52.0,240.0,240.0,0.0,0.0
17,54.0,240.0,240.0,0.0,0.0
18,52.0,0.0,240.0,0.0,0.0
19,69.0,0.0,480.0,0.0,0.0
20,61.0,240.0,240.0,0.0,0.0
21,57.0,0.0,240.0,0.0,0.0
22,52.0,360.0,240.0,0.0,0.0
23,62.0,120.0,360.0,0.0,0.0
24,71.0,0.0,360.0,0.0,0.0
25,56.0,240.0,1440.0,0.0,0.0
26,52.0,240.0,480.0,0.0,0.0
27,73.0,240.0,120.0,0.0,0.0
28,64.0,0.0,120.0,0.0,0.0
29,66.0,0.0,960.0,0.0,0.0
30,74.0,0.0,960.0,0.0,0.0
31,52.0,240.0,15.0,0.0,0.0
32,57.0,240.0,240.0,0.0,0.0
33,64.0,0.0,240.0,0.0,0.0
34,52.0,0.0,15.0,0.0,0.0
35,73.0,240.0,15.0,0.0,0.0
36,64.0,240.0,240.0,0.0,0.0
37,56.0,240.0,960.0,0.0,0.0
38,52.0,240.0,240.0,0.0,0.0
39,62.0,0.0,240.0,0.0,0.0
40,52.0,0.0,240.0,0.0,0.0
41,71.0,0.0,240.0,0.0,0.0
42,61.0,180.0,240.0,0.0,0.0
43,57.0,0.0,240.0,0.0,0.0
44,69.0,60.0,420.0,0.0,0.0
45,52.0,68.0,240.0,0.0,0.0
46,71.0,0.0,60.0,0.0,0.0
47,71.0,68.0,60.0,0.0,0.0
48,56.0,32.0,240.0,0.0,0.0
49,62.0,0.0,240.0,0.0,0.0
50,73.0,68.0,60.0,0.0,0.0
51,71.0,36.0,60.0,0.0,0.0
52,70.0,68.0,60.0,0.0,0.0
53,52.0,240.0,240.0,0.0,0.0
54,71.0,68.0,60.0,0.0,0.0
55,73.0,72.0,60.0,0.0,0.0
56,74.0,0.0,60.0,0.0,0.0
57,45.0,120.0,240.0,0.0,0.0
58,73.0,120.0,360.0,0.0,0.0
59,52.0,0.0,240.0,0.0,0.0
60,69.0,480.0,120.0,0.0,0.0
61,57.0,0.0,1440.0,0.0,0.0
62,61.0,0.0,1440.0,0.0,0.0
63,64.0,240.0,960.0,0.0,0.0
64,52.0,240.0,15.0,0.0,0.0
65,52.0,0.0,15.0,0.0,0.0
66,66.0,480.0,480.0,0.0,0.0
67,52.0,240.0,15.0,0.0,0.0
68,62.0,0.0,1440.0,0.0,0.0
69,59.0,240.0,1440.0,0.0,0.0
70,68.0,0.0,1440.0,0.0,0.0
71,52.0,240.0,15.0,0.0,0.0
72,52.0,240.0,240.0,0.0,0.0
73,54.0,240.0,240.0,0.0,0.0
74,52.0,0.0,240.0,0.0,0.0
75,69.0,360.0,480.0,0.0,0.0
76,57.0,240.0,240.0,0.0,0.0
77,61.0,0.0,240.0,0.0,0.0
78,52.0,0.0,240.0,0.0,0.0
79,62.0,120.0,360.0,0.0,0.0
80,71.0,0.0,360.0,0.0,0.0
81,56.0,240.0,1440.0,0.0,0.0
82,73.0,240.0,120.0,0.0,0.0
83,64.0,0.0,120.0,0.0,0.0
84,74.0,0.0,960.0,0.0,0.0
85,66.0,0.0,960.0,0.0,0.0
86,52.0,240.0,15.0,0.0,0.0
87,52.0,240.0,240.0,0.0,0.0
88,52.0,0.0,480.0,0.0,0.0
89,57.0,0.0,240.0,0.0,0.0
90,64.0,240.0,240.0,0.0,0.0
91,73.0,240.0,480.0,0.0,0.0
92,52.0,0.0,240.0,0.0,0.0
93,64.0,240.0,240.0,0.0,0.0
94,73.0,240.0,720.0,0.0,0.0
95,56.0,0.0,960.0,0.0,0.0
96,52.0,240.0,240.0,0.0,0.0
97,62.0,0.0,240.0,0.0,0.0
98,71.0,240.0,240.0,0.0,0.0
99,52.0,0.0,240.0,0.0,0.0
100,57.0,240.0,240.0,0.0,0.0
101,69.0,0.0,480.0,0.0,0.0
102,61.0,0.0,240.0,0.0,0.0
103,52.0,240.0,240.0,0.0,0.0
104,68.0,0.0,240.0,0.0,0.0
105,57.0,240.0,240.0,0.0,0.0
106,61.0,0.0,240.0,0.0,0.0
107,52.0,240.0,240.0,0.0,0.0
108,69.0,0.0,240.0,0.0,0.0
109,40.0,240.0,240.0,0.0,0.0
110,71.0,240.0,480.0,0.0,0.0
111,52.0,0.0,240.0,0.0,0.0
112,59.0,240.0,240.0,0.0,0.0
113,56.0,0.0,240.0,0.0,0.0
114,71.0,240.0,960.0,0.0,0.0
115,52.0,240.0,240.0,0.0,0.0
116,55.0,0.0,240.0,0.0,0.0
117,59.0,240.0,240.0,0.0,0.0
118,52.0,0.0,240.0,0.0,0.0
119,61.0,0.0,240.0,0.0,0.0
120,55.0,240.0,240.0,0.0,0.0
121,49.0,0.0,240.0,0.0,0.0
122,73.0,0.0,480.0,0.0,0.0
123,57.0,240.0,240.0,0.0,0.0
124,50.0,240.0,240.0,0.0,0.0
125,74.0,0.0,240.0,0.0,0.0
126,54.0,0.0,240.0,0.0,0.0
127,73.0,240.0,240.0,0.0,0.0
128,57.0,0.0,240.0,0.0,0.0
129,62.0,240.0,240.0,0.0,0.0
130,54.0,0.0,240.0,0.0,0.0
131,71.0,0.0,240.0,0.0,0.0
132,69.0,240.0,240.0,0.0,0.0
133,57.0,0.0,240.0,0.0,0.0
134,45.0,240.0,240.0,0.0,0.0
135,73.0,240.0,960.0,0.0,0.0
136,52.0,240.0,240.0,0.0,0.0
137,61.0,0.0,240.0,0.0,0.0
138,57.0,240.0,240.0,0.0,0.0
139,52.0,0.0,240.0,0.0,0.0
140,71.0,240.0,240.0,0.0,0.0
141,47.0,0.0,240.0,0.0,0.0
142,67.0,240.0,240.0,0.0,0.0
143,52.0,0.0,240.0,0.0,0.0
144,66.0,0.0,240.0,0.0,0.0
145,59.0,0.0,240.0,0.0,0.0
146,55.0,240.0,240.0,0.0,0.0
147,64.0,0.0,240.0,0.0,0.0
148,52.0,240.0,240.0,0.0,0.0
149,47.0,160.0,240.0,0.0,0.0
150,51.0,240.0,240.0,0.0,0.0
151,67.0,20.0,30.0,0.0,0.0
152,66.0,20.0,20.0,0.0,0.0
153,64.0,0.0,30.0,0.0,0.0
154,57.0,120.0,240.0,0.0,0.0
155,59.0,0.0,240.0,0.0,0.0
156,66.0,120.0,360.0,0.0,0.0
157,51.0,0.0,240.0,0.0,0.0
158,67.0,240.0,120.0,0.0,0.0
159,64.0,240.0,480.0,0.0,0.0
160,40.0,240.0,240.0,0.0,0.0
161,52.0,0.0,240.0,0.0,0.0
162,59.0,240.0,240.0,0.0,0.0
163,71.0,240.0,480.0,0.0,0.0
164,55.0,0.0,240.0,0.0,0.0
165,52.0,0.0,240.0,0.0,0.0
166,57.0,0.0,240.0,0.0,0.0
167,69.0,0.0,480.0,0.0,0.0
168,54.0,240.0,240.0,0.0,0.0
169,52.0,240.0,240.0,0.0,0.0
170,60.0,0.0,240.0,0.0,0.0
171,72.0,0.0,480.0,0.0,0.0
172,57.0,240.0,240.0,0.0,0.0
173,52.0,240.0,240.0,0.0,0.0
174,40.0,240.0,240.0,0.0,0.0
175,52.0,480.0,240.0,0.0,0.0
176,71.0,0.0,15.0,0.0,0.0
177,59.0,0.0,960.0,0.0,0.0
178,52.0,240.0,240.0,0.0,0.0
179,52.0,240.0,15.0,0.0,0.0
180,55.0,240.0,15.0,0.0,0.0
181,73.0,0.0,480.0,0.0,0.0
182,61.0,240.0,240.0,0.0,0.0
183,52.0,240.0,240.0,0.0,0.0
184,47.0,240.0,240.0,0.0,0.0
185,74.0,0.0,240.0,0.0,0.0
186,73.0,0.0,240.0,0.0,0.0
187,50.0,240.0,240.0,0.0,0.0
188,62.0,0.0,240.0,0.0,0.0
189,54.0,0.0,240.0,0.0,0.0
190,71.0,240.0,240.0,0.0,0.0
191,50.0,240.0,240.0,0.0,0.0
192,69.0,0.0,240.0,0.0,0.0
193,73.0,240.0,1200.0,0.0,0.0
194,42.0,240.0,240.0,0.0,0.0
195,49.0,240.0,240.0,0.0,0.0
196,57.0,0.0,240.0,0.0,0.0
197,61.0,0.0,240.0,0.0,0.0
198,54.0,240.0,240.0,0.0,0.0
199,49.0,240.0,240.0,0.0,0.0
200,37.0,0.0,240.0,0.0,0.0
201,49.0,0.0,240.0,0.0,0.0
202,69.0,240.0,240.0,0.0,0.0
203,57.0,0.0,240.0,0.0,0.0
204,54.0,240.0,240.0,0.0,0.0
205,68.0,0.0,240.0,0.0,0.0
206,61.0,0.0,240.0,0.0,0.0
207,49.0,0.0,240.0,0.0,0.0
208,66.0,240.0,240.0,0.0,0.0
209,37.0,160.0,240.0,0.0,0.0
210,49.0,240.0,240.0,0.0,0.0
211,69.0,20.0,30.0,0.0,0.0
212,68.0,20.0,20.0,0.0,0.0
213,66.0,0.0,30.0,0.0,0.0
214,53.0,0.0,240.0,0.0,0.0
215,59.0,0.0,240.0,0.0,0.0
216,68.0,240.0,240.0,0.0,0.0
217,61.0,0.0,240.0,0.0,0.0
218,49.0,0.0,240.0,0.0,0.0
219,69.0,240.0,240.0,0.0,0.0
220,42.0,240.0,240.0,0.0,0.0
221,66.0,240.0,480.0,0.0,0.0
222,49.0,0.0,240.0,0.0,0.0
223,61.0,240.0,240.0,0.0,0.0
224,57.0,0.0,240.0,0.0,0.0
225,73.0,0.0,480.0,0.0,0.0
226,49.0,240.0,240.0,0.0,0.0
227,71.0,0.0,480.0,0.0,0.0
228,56.0,0.0,240.0,0.0,0.0
229,59.0,240.0,240.0,0.0,0.0
230,49.0,240.0,240.0,0.0,0.0
231,74.0,240.0,480.0,0.0,0.0
232,59.0,240.0,240.0,0.0,0.0
233,62.0,0.0,240.0,0.0,0.0
234,49.0,0.0,240.0,0.0,0.0
235,61.0,240.0,240.0,0.0,0.0
236,73.0,0.0,240.0,0.0,0.0
237,57.0,0.0,240.0,0.0,0.0
238,69.0,0.0,240.0,0.0,0.0
239,49.0,240.0,240.0,0.0,0.0
240,61.0,240.0,240.0,0.0,0.0
241,68.0,0.0,240.0,0.0,0.0
242,57.0,0.0,240.0,0.0,0.0
243,54.0,0.0,240.0,0.0,0.0
244,66.0,0.0,240.0,0.0,0.0
245,49.0,240.0,240.0,0.0,0.0
246,59.0,160.0,240.0,0.0,0.0
247,53.0,0.0,240.0,0.0,0.0
248,49.0,0.0,240.0,0.0,0.0
249,69.0,20.0,30.0,0.0,0.0
250,68.0,20.0,20.0,0.0,0.0
251,66.0,240.0,30.0,0.0,0.0
252,68.0,120.0,360.0,0.0,0.0
253,59.0,120.0,240.0,0.0,0.0
254,61.0,0.0,240.0,0.0,0.0
255,49.0,240.0,240.0,0.0,0.0
256,69.0,0.0,120.0,0.0,0.0
257,66.0,240.0,480.0,0.0,0.0
258,42.0,240.0,240.0,0.0,0.0
259,49.0,0.0,240.0,0.0,0.0
260,71.0,240.0,480.0,0.0,0.0
261,59.0,240.0,240.0,0.0,0.0
262,56.0,0.0,240.0,0.0,0.0
263,49.0,0.0,240.0,0.0,0.0
264,57.0,0.0,240.0,0.0,0.0
265,61.0,240.0,240.0,0.0,0.0
266,73.0,0.0,480.0,0.0,0.0
267,49.0,240.0,240.0,0.0,0.0
268,56.0,0.0,240.0,0.0,0.0
269,71.0,480.0,480.0,0.0,0.0
270,59.0,240.0,240.0,0.0,0.0
271,49.0,0.0,240.0,0.0,0.0
272,57.0,0.0,960.0,0.0,0.0
273,73.0,240.0,1440.0,0.0,0.0
274,49.0,240.0,15.0,0.0,0.0
275,49.0,240.0,15.0,0.0,0.0
276,61.0,0.0,15.0,0.0,0.0
277,57.0,240.0,240.0,0.0,0.0
278,50.0,0.0,240.0,0.0,0.0
279,56.0,240.0,240.0,0.0,0.0
280,59.0,0.0,240.0,0.0,0.0
281,71.0,0.0,480.0,0.0,0.0
282,52.0,240.0,240.0,0.0,0.0
283,73.0,120.0,360.0,0.0,0.0
284,45.0,120.0,240.0,0.0,0.0
285,52.0,480.0,240.0,0.0,0.0
286,69.0,0.0,120.0,0.0,0.0
287,57.0,0.0,960.0,0.0,0.0
288,64.0,0.0,960.0,0.0,0.0
289,52.0,240.0,240.0,0.0,0.0
290,52.0,240.0,240.0,0.0,0.0
291,52.0,0.0,240.0,0.0,0.0
292,66.0,480.0,480.0,0.0,0.0
293,57.0,240.0,240.0,0.0,0.0
294,61.0,240.0,15.0,0.0,0.0
295,52.0,0.0,240.0,0.0,0.0
296,59.0,0.0,1440.0,0.0,0.0
297,62.0,240.0,1440.0,0.0,0.0
298,68.0,0.0,1440.0,0.0,0.0
299,52.0,240.0,15.0,0.0,0.0
300,52.0,240.0,15.0,0.0,0.0
301,54.0,240.0,240.0,0.0,0.0
302,52.0,0.0,240.0,0.0,0.0
303,69.0,0.0,480.0,0.0,0.0
304,61.0,0.0,240.0,0.0,0.0
305,57.0,240.0,240.0,0.0,0.0
306,52.0,360.0,240.0,0.0,0.0
307,71.0,120.0,360.0,0.0,0.0
308,62.0,0.0,360.0,0.0,0.0
309,56.0,240.0,1440.0,0.0,0.0
310,52.0,240.0,480.0,0.0,0.0
311,64.0,240.0,120.0,0.0,0.0
312,73.0,0.0,120.0,0.0,0.0
313,74.0,0.0,960.0,0.0,0.0
314,66.0,0.0,960.0,0.0,0.0
315,52.0,240.0,15.0,0.0,0.0
316,52.0,240.0,15.0,0.0,0.0
317,64.0,0.0,240.0,0.0,0.0
318,57.0,0.0,240.0,0.0,0.0
319,73.0,240.0,480.0,0.0,0.0
320,52.0,0.0,240.0,0.0,0.0
321,56.0,240.0,240.0,0.0,0.0
322,64.0,0.0,240.0,0.0,0.0
323,73.0,0.0,720.0,0.0,0.0
324,52.0,240.0,240.0,0.0,0.0
325,56.0,240.0,240.0,0.0,0.0
326,62.0,0.0,240.0,0.0,0.0
327,71.0,240.0,240.0,0.0,0.0
328,52.0,0.0,240.0,0.0,0.0
329,61.0,240.0,240.0,0.0,0.0
330,57.0,0.0,240.0,0.0,0.0
331,69.0,68.0,480.0,0.0,0.0
332,52.0,0.0,240.0,0.0,0.0
333,70.0,68.0,60.0,0.0,0.0
334,56.0,32.0,240.0,0.0,0.0
335,62.0,0.0,240.0,0.0,0.0
336,71.0,68.0,60.0,0.0,0.0
337,72.0,36.0,60.0,0.0,0.0
338,73.0,68.0,60.0,0.0,0.0
339,52.0,240.0,240.0,0.0,0.0
340,76.0,68.0,60.0,0.0,0.0
341,75.0,72.0,60.0,0.0,0.0
342,74.0,0.0,60.0,0.0,0.0
343,73.0,120.0,360.0,0.0,0.0
344,45.0,120.0,240.0,0.0,0.0
345,52.0,0.0,240.0,0.0,0.0
346,69.0,480.0,120.0,0.0,0.0
347,57.0,480.0,1440.0,0.0,0.0
348,61.0,0.0,1440.0,0.0,0.0
349,64.0,0.0,960.0,0.0,0.0
350,52.0,240.0,240.0,0.0,0.0
351,52.0,240.0,15.0,0.0,0.0
352,52.0,240.0,15.0,0.0,0.0
353,66.0,0.0,480.0,0.0,0.0
354,52.0,0.0,240.0,0.0,0.0
355,68.0,0.0,1440.0,0.0,0.0
356,62.0,240.0,1440.0,0.0,0.0
357,59.0,0.0,1440.0,0.0,0.0
358,52.0,240.0,15.0,0.0,0.0
359,52.0,240.0,15.0,0.0,0.0
360,54.0,240.0,240.0,0.0,0.0
361,52.0,0.0,240.0,0.0,0.0
362,69.0,360.0,480.0,0.0,0.0
363,57.0,0.0,240.0,0.0,0.0
364,61.0,240.0,240.0,0.0,0.0
365,52.0,0.0,240.0,0.0,0.0
366,56.0,0.0,1440.0,0.0,0.0
367,62.0,120.0,360.0,0.0,0.0
368,71.0,0.0,360.0,0.0,0.0
369,73.0,240.0,120.0,0.0,0.0
370,64.0,0.0,120.0,0.0,0.0
371,74.0,240.0,960.0,0.0,0.0
372,66.0,0.0,960.0,0.0,0.0
373,52.0,240.0,15.0,0.0,0.0
374,52.0,240.0,15.0,0.0,0.0
375,52.0,240.0,15.0,0.0,0.0
376,68.0,0.0,480.0,0.0,0.0
377,59.0,240.0,240.0,0.0,0.0
378,52.0,0.0,15.0,0.0,0.0
379,62.0,0.0,960.0,0.0,0.0
380,71.0,240.0,960.0,0.0,0.0
381,52.0,240.0,15.0,0.0,0.0
382,52.0,240.0,15.0,0.0,0.0
383,52.0,240.0,240.0,0.0,0.0
384,52.0,240.0,240.0,0.0,0.0
385,52.0,240.0,240.0,0.0,0.0
386,52.0,240.0,15.0,0.0,0.0
387,33.0,0.0,480.0,0.0,0.0
388,40.0,0.0,480.0,0.0,0.0
389,35.0,0.0,480.0,0.0,0.0
390,40.0,240.0,480.0,0.0,0.0
391,52.0,240.0,15.0,0.0,0.0
392,52.0,0.0,240.0,0.0,0.0
393,36.0,0.0,480.0,0.0,0.0
394,45.0,240.0,480.0,0.0,0.0
395,52.0,240.0,15.0,0.0,0.0
396,52.0,0.0,15.0,0.0,0.0
397,44.0,0.0,480.0,0.0,0.0
398,40.0,0.0,480.0,0.0,0.0
399,52.0,240.0,15.0,0.0,0.0
400,35.0,0.0,15.0,0.0,0.0
401,52.0,240.0,240.0,0.0,0.0
402,40.0,240.0,480.0,0.0,0.0
403,36.0,0.0,480.0,0.0,0.0
404,52.0,240.0,15.0,0.0,0.0
405,52.0,0.0,15.0,0.0,0.0
406,38.0,240.0,480.0,0.0,0.0
407,47.0,0.0,480.0,0.0,0.0
408,52.0,0.0,15.0,0.0,0.0
409,52.0,240.0,15.0,0.0,0.0
410,52.0,0.0,15.0,0.0,0.0
411,45.0,240.0,15.0,0.0,0.0
412,36.0,0.0,15.0,0.0,0.0
413,52.0,0.0,240.0,0.0,0.0
414,47.0,0.0,480.0,0.0,0.0
415,40.0,0.0,480.0,0.0,0.0
416,52.0,240.0,240.0,0.0,0.0
417,52.0,240.0,240.0,0.0,0.0
418,45.0,240.0,480.0,0.0,0.0
419,48.0,0.0,480.0,0.0,0.0
420,52.0,240.0,240.0,0.0,0.0
421,52.0,0.0,240.0,0.0,0.0
422,52.0,240.0,240.0,0.0,0.0
423,52.0,240.0,240.0,0.0,0.0
424,47.0,0.0,15.0,0.0,0.0
425,40.0,0.0,15.0,0.0,0.0
426,52.0,240.0,240.0,0.0,0.0
427,52.0,240.0,240.0,0.0,0.0
428,52.0,240.0,240.0,0.0,0.0
429,52.0,240.0,240.0,0.0,0.0
430,52.0,240.0,15.0,0.0,0.0
431,52.0,240.0,15.0,0.0,0.0
432,52.0,240.0,15.0,0.0,0.0
433,52.0,240.0,15.0,0.0,0.0
434,52.0,240.0,15.0,0.0,0.0
435,48.0,0.0,480.0,0.0,0.0
436,52.0,240.0,15.0,0.0,0.0
437,45.0,0.0,480.0,0.0,0.0
438,52.0,240.0,15.0,0.0,0.0
439,52.0,240.0,15.0,0.0,0.0
440,40.0,240.0,480.0,0.0,0.0
441,47.0,0.0,480.0,0.0,0.0
442,52.0,240.0,15.0,0.0,0.0
443,36.0,0.0,480.0,0.0,0.0
444,45.0,0.0,480.0,0.0,0.0
445,52.0,0.0,15.0,0.0,0.0
446,52.0,240.0,15.0,0.0,0.0
447,47.0,240.0,480.0,0.0,0.0
448,40.0,0.0,480.0,0.0,0.0
449,52.0,240.0,15.0,0.0,0.0
450,52.0,240.0,15.0,0.0,0.0
451,36.0,240.0,480.0,0.0,0.0
452,45.0,0.0,480.0,0.0,0.0
453,52.0,240.0,15.0,0.0,0.0
454,52.0,240.0,240.0,0.0,0.0
455,35.0,0.0,480.0,0.0,0.0
456,44.0,0.0,480.0,0.0,0.0
457,33.0,0.0,480.0,0.0,0.0
458,45.0,0.0,480.0,0.0,0.0
459,52.0,240.0,15.0,0.0,0.0
460,52.0,240.0,15.0,0.0,0.0
461,52.0,240.0,15.0,0.0,0.0
462,35.0,0.0,480.0,0.0,0.0
463,44.0,0.0,480.0,0.0,0.0
464,52.0,240.0,15.0,0.0,0.0
465,36.0,240.0,480.0,0.0,0.0
466,45.0,0.0,480.0,0.0,0.0
467,52.0,240.0,15.0,0.0,0.0
468,52.0,240.0,15.0,0.0,0.0
469,52.0,0.0,15.0,0.0,0.0
470,47.0,0.0,480.0,0.0,0.0
471,35.0,240.0,480.0,0.0,0.0
472,33.0,0.0,480.0,0.0,0.0
473,52.0,0.0,15.0,0.0,0.0
474,48.0,240.0,480.0,0.0,0.0
475,52.0,0.0,15.0,0.0,0.0
476,47.0,0.0,1920.0,0.0,0.0
477,52.0,240.0,15.0,0.0,0.0
478,52.0,240.0,15.0,0.0,0.0
479,64.0,0.0,15.0,0.0,0.0
480,64.0,0.0,15.0,0.0,0.0
481,52.0,240.0,15.0,0.0,0.0
482,64.0,0.0,15.0,0.0,0.0
483,52.0,240.0,15.0,0.0,0.0
484,64.0,240.0,15.0,0.0,0.0
485,52.0,0.0,15.0,0.0,0.0
486,52.0,0.0,15.0,0.0,0.0
487,64.0,240.0,15.0,0.0,0.0
488,40.0,0.0,15.0,0.0,0.0
489,33.0,240.0,480.0,0.0,0.0
490,64.0,0.0,15.0,0.0,0.0
491,52.0,240.0,15.0,0.0,0.0
492,35.0,0.0,480.0,0.0,0.0
493,40.0,0.0,480.0,0.0,0.0
494,52.0,240.0,15.0,0.0,0.0
495,64.0,0.0,15.0,0.0,0.0
496,36.0,0.0,480.0,0.0,0.0
497,45.0,0.0,480.0,0.0,0.0
498,52.0,240.0,15.0,0.0,0.0
499,64.0,0.0,15.0,0.0,0.0
500,57.0,240.0,480.0,0.0,0.0
501,64.0,240.0,15.0,0.0,0.0
502,52.0,0.0,240.0,0.0,0.0
503,44.0,240.0,480.0,0.0,0.0
504,52.0,0.0,240.0,0.0,0.0
505,64.0,240.0,240.0,0.0,0.0
506,56.0,0.0,480.0,0.0,0.0
507,64.0,0.0,240.0,0.0,0.0
508,40.0,0.0,480.0,0.0,0.0
509,35.0,0.0,15.0,0.0,0.0
510,52.0,0.0,15.0,0.0,0.0
511,64.0,240.0,15.0,0.0,0.0
512,52.0,0.0,15.0,0.0,0.0
513,40.0,0.0,480.0,0.0,0.0
514,36.0,0.0,480.0,0.0,0.0
515,64.0,0.0,15.0,0.0,0.0
516,64.0,0.0,15.0,0.0,0.0
517,52.0,240.0,15.0,0.0,0.0
518,59.0,0.0,480.0,0.0,0.0
519,38.0,240.0,480.0,0.0,0.0
520,47.0,0.0,480.0,0.0,0.0
521,52.0,0.0,15.0,0.0,0.0
522,64.0,0.0,15.0,0.0,0.0
523,57.0,0.0,960.0,0.0,0.0
524,64.0,0.0,240.0,0.0,0.0
525,52.0,0.0,240.0,0.0,0.0
526,45.0,240.0,15.0,0.0,0.0
527,36.0,0.0,15.0,0.0,0.0
528,64.0,240.0,240.0,0.0,0.0
529,52.0,0.0,240.0,0.0,0.0
530,52.0,0.0,240.0,0.0,0.0
531,64.0,0.0,15.0,0.0,0.0
532,59.0,0.0,480.0,0.0,0.0
533,40.0,0.0,480.0,0.0,0.0
534,47.0,240.0,480.0,0.0,0.0
535,64.0,0.0,15.0,0.0,0.0
536,52.0,240.0,15.0,0.0,0.0
537,52.0,0.0,15.0,0.0,0.0
538,64.0,0.0,15.0,0.0,0.0
539,45.0,240.0,480.0,0.0,0.0
540,48.0,0.0,480.0,0.0,0.0
541,60.0,0.0,480.0,0.0,0.0
542,52.0,0.0,15.0,0.0,0.0
543,64.0,0.0,15.0,0.0,0.0
544,59.0,0.0,480.0,0.0,0.0
545,47.0,120.0,360.0,0.0,0.0
546,40.0,0.0,360.0,0.0,0.0
547,64.0,0.0,240.0,0.0,0.0
548,28.0,240.0,120.0,0.0,0.0
549,52.0,0.0,15.0,0.0,0.0
550,59.0,240.0,1920.0,0.0,0.0
551,47.0,0.0,1920.0,0.0,0.0
552,40.0,0.0,1920.0,0.0,0.0
553,64.0,0.0,15.0,0.0,0.0
554,52.0,240.0,15.0,0.0,0.0
555,64.0,0.0,15.0,0.0,0.0
556,52.0,240.0,15.0,0.0,0.0
557,64.0,240.0,15.0,0.0,0.0
558,52.0,0.0,15.0,0.0,0.0
559,52.0,0.0,240.0,0.0,0.0
560,64.0,240.0,15.0,0.0,0.0
561,52.0,240.0,15.0,0.0,0.0
562,64.0,0.0,15.0,0.0,0.0
563,67.0,240.0,240.0,0.0,0.0
564,36.0,0.0,960.0,0.0,0.0
565,24.0,0.0,960.0,0.0,0.0
566,60.0,0.0,960.0,0.0,0.0
567,64.0,0.0,960.0,0.0,0.0
568,55.0,0.0,240.0,0.0,0.0
569,55.0,0.0,240.0,0.0,0.0
570,55.0,240.0,240.0,0.0,0.0
571,67.0,240.0,15.0,0.0,0.0
572,67.0,0.0,240.0,0.0,0.0
573,43.0,0.0,960.0,0.0,0.0
574,31.0,0.0,960.0,0.0,0.0
575,55.0,240.0,15.0,0.0,0.0
576,59.0,0.0,960.0,0.0,0.0
577,67.0,240.0,15.0,0.0,0.0
578,55.0,0.0,15.0,0.0,0.0
579,55.0,240.0,15.0,0.0,0.0
580,67.0,0.0,15.0,0.0,0.0
581,55.0,240.0,15.0,0.0,0.0
582,55.0,240.0,15.0,0.0,0.0
583,67.0,0.0,15.0,0.0,0.0
584,36.0,0.0,960.0,0.0,0.0
585,64.0,0.0,15.0,0.0,0.0
586,24.0,0.0,960.0,0.0,0.0
587,60.0,0.0,960.0,0.0,0.0
588,55.0,0.0,240.0,0.0,0.0
589,67.0,240.0,240.0,0.0,0.0
590,55.0,240.0,240.0,0.0,0.0
591,67.0,0.0,240.0,0.0,0.0
592,55.0,0.0,240.0,0.0,0.0
593,43.0,0.0,720.0,0.0,0.0
594,31.0,0.0,720.0,0.0,0.0
595,67.0,240.0,15.0,0.0,0.0
596,55.0,0.0,240.0,0.0,0.0
597,59.0,0.0,960.0,0.0,0.0
598,67.0,240.0,15.0,0.0,0.0
599,55.0,0.0,15.0,0.0,0.0
600,67.0,0.0,240.0,0.0,0.0
601,30.0,0.0,240.0,0.0,0.0
602,42.0,0.0,240.0,0.0,0.0
603,55.0,240.0,15.0,0.0,0.0
604,40.0,0.0,960.0,0.0,0.0
605,67.0,0.0,15.0,0.0,0.0
606,28.0,0.0,960.0,0.0,0.0
607,64.0,0.0,15.0,0.0,0.0
608,55.0,240.0,15.0,0.0,0.0
609,59.0,0.0,960.0,0.0,0.0
610,67.0,240.0,15.0,0.0,0.0
611,55.0,0.0,15.0,0.0,0.0
612,67.0,240.0,15.0,0.0,0.0
613,55.0,0.0,240.0,0.0,0.0
614,67.0,240.0,15.0,0.0,0.0
615,55.0,240.0,15.0,0.0,0.0
616,67.0,0.0,15.0,0.0,0.0
617,35.0,0.0,960.0,0.0,0.0
618,63.0,0.0,960.0,0.0,0.0
619,47.0,0.0,960.0,0.0,0.0
620,67.0,240.0,15.0,0.0,0.0
621,55.0,0.0,240.0,0.0,0.0
622,55.0,240.0,240.0,0.0,0.0
623,67.0,240.0,15.0,0.0,0.0
624,64.0,0.0,240.0,0.0,0.0
625,67.0,240.0,15.0,0.0,0.0
626,55.0,0.0,15.0,0.0,0.0
627,59.0,0.0,15.0,0.0,0.0
628,40.0,240.0,960.0,0.0,0.0
629,28.0,0.0,960.0,0.0,0.0
630,52.0,240.0,240.0,0.0,0.0
631,52.0,240.0,240.0,0.0,0.0
632,52.0,0.0,15.0,0.0,0.0
633,52.0,240.0,240.0,0.0,0.0
634,52.0,240.0,240.0,0.0,0.0
635,52.0,240.0,240.0,0.0,0.0
636,52.0,240.0,240.0,0.0,0.0
637,33.0,0.0,480.0,0.0,0.0
638,40.0,0.0,480.0,0.0,0.0
639,52.0,240.0,240.0,0.0,0.0
640,35.0,240.0,480.0,0.0,0.0
641,40.0,0.0,480.0,0.0,0.0
642,52.0,240.0,15.0,0.0,0.0
643,36.0,0.0,480.0,0.0,0.0
644,45.0,0.0,480.0,0.0,0.0
645,52.0,240.0,15.0,0.0,0.0
646,44.0,240.0,480.0,0.0,0.0
647,52.0,240.0,15.0,0.0,0.0
648,52.0,240.0,15.0,0.0,0.0
649,52.0,240.0,240.0,0.0,0.0
650,40.0,0.0,480.0,0.0,0.0
651,35.0,0.0,15.0,0.0,0.0
652,36.0,0.0,480.0,0.0,0.0
653,52.0,0.0,15.0,0.0,0.0
654,40.0,0.0,480.0,0.0,0.0
655,52.0,240.0,15.0,0.0,0.0
656,38.0,0.0,480.0,0.0,0.0
657,47.0,240.0,480.0,0.0,0.0
658,52.0,240.0,15.0,0.0,0.0
659,36.0,0.0,480.0,0.0,0.0
660,52.0,240.0,240.0,0.0,0.0
661,52.0,240.0,240.0,0.0,0.0
662,36.0,0.0,480.0,0.0,0.0
663,45.0,0.0,15.0,0.0,0.0
664,52.0,240.0,15.0,0.0,0.0
665,47.0,0.0,480.0,0.0,0.0
666,40.0,0.0,480.0,0.0,0.0
667,52.0,240.0,240.0,0.0,0.0
668,45.0,240.0,480.0,0.0,0.0
669,48.0,0.0,480.0,0.0,0.0
670,52.0,240.0,15.0,0.0,0.0
671,52.0,0.0,240.0,0.0,0.0
672,52.0,240.0,240.0,0.0,0.0
673,40.0,0.0,480.0,0.0,0.0
674,47.0,0.0,480.0,0.0,0.0
675,47.0,0.0,2400.0,0.0,0.0
676,52.0,240.0,15.0,0.0,0.0
677,40.0,0.0,2400.0,0.0,0.0
678,52.0,240.0,240.0,0.0,0.0
679,52.0,240.0,240.0,0.0,0.0
680,52.0,240.0,15.0,0.0,0.0
681,52.0,240.0,15.0,0.0,0.0
682,52.0,240.0,240.0,0.0,0.0
683,52.0,240.0,240.0,0.0,0.0
684,52.0,240.0,240.0,0.0,0.0
685,45.0,0.0,480.0,0.0,0.0
686,52.0,240.0,15.0,0.0,0.0
687,48.0,240.0,480.0,0.0,0.0
688,52.0,240.0,15.0,0.0,0.0
689,52.0,240.0,240.0,0.0,0.0
690,47.0,0.0,480.0,0.0,0.0
691,40.0,0.0,480.0,0.0,0.0
692,45.0,0.0,480.0,0.0,0.0
693,36.0,0.0,480.0,0.0,0.0
694,52.0,240.0,15.0,0.0,0.0
695,52.0,240.0,15.0,0.0,0.0
696,40.0,240.0,480.0,0.0,0.0
697,47.0,0.0,480.0,0.0,0.0
698,52.0,240.0,240.0,0.0,0.0
699,52.0,0.0,240.0,0.0,0.0
700,52.0,240.0,240.0,0.0,0.0
701,36.0,0.0,480.0,0.0,0.0
702,45.0,0.0,480.0,0.0,0.0
703,52.0,240.0,15.0,0.0,0.0
704,35.0,0.0,480.0,0.0,0.0
705,44.0,0.0,480.0,0.0,0.0
706,52.0,240.0,15.0,0.0,0.0
707,45.0,0.0,480.0,0.0,0.0
708,33.0,0.0,480.0,0.0,0.0
709,52.0,240.0,15.0,0.0,0.0
710,52.0,240.0,240.0,0.0,0.0
711,44.0,0.0,480.0,0.0,0.0
712,35.0,0.0,480.0,0.0,0.0
713,52.0,240.0,240.0,0.0,0.0
714,45.0,0.0,480.0,0.0,0.0
715,36.0,240.0,480.0,0.0,0.0
716,52.0,240.0,15.0,0.0,0.0
717,52.0,0.0,240.0,0.0,0.0
718,52.0,240.0,240.0,0.0,0.0
719,35.0,0.0,480.0,0.0,0.0
720,47.0,0.0,480.0,0.0,0.0
721,48.0,0.0,480.0,0.0,0.0
722,52.0,240.0,15.0,0.0,0.0
723,33.0,240.0,480.0,0.0,0.0
724,52.0,240.0,15.0,0.0,0.0
725,52.0,0.0,15.0,0.0,0.0
726,47.0,240.0,1920.0,0.0,0.0
727,40.0,0.0,1920.0,0.0,0.0
728,52.0,240.0,15.0,0.0,0.0
729,52.0,240.0,15.0,0.0,0.0
730,64.0,0.0,15.0,0.0,0.0
731,52.0,0.0,15.0,0.0,0.0
732,52.0,0.0,15.0,0.0,0.0
733,64.0,240.0,15.0,0.0,0.0
734,64.0,240.0,240.0,0.0,0.0
735,52.0,240.0,15.0,0.0,0.0
736,64.0,0.0,240.0,0.0,0.0
737,52.0,240.0,15.0,0.0,0.0
738,64.0,0.0,240.0,0.0,0.0
739,64.0,240.0,240.0,0.0,0.0
740,52.0,0.0,15.0,0.0,0.0
741,40.0,0.0,480.0,0.0,0.0
742,33.0,0.0,480.0,0.0,0.0
743,52.0,0.0,240.0,0.0,0.0
744,35.0,0.0,480.0,0.0,0.0
745,40.0,240.0,480.0,0.0,0.0
746,64.0,240.0,15.0,0.0,0.0
747,52.0,240.0,240.0,0.0,0.0
748,64.0,0.0,15.0,0.0,0.0
749,45.0,0.0,480.0,0.0,0.0
750,57.0,0.0,480.0,0.0,0.0
751,64.0,240.0,240.0,0.0,0.0
752,52.0,0.0,15.0,0.0,0.0
753,36.0,0.0,480.0,0.0,0.0
754,52.0,0.0,240.0,0.0,0.0
755,44.0,0.0,480.0,0.0,0.0
756,35.0,240.0,480.0,0.0,0.0
757,52.0,0.0,240.0,0.0,0.0
758,64.0,240.0,15.0,0.0,0.0
759,56.0,0.0,480.0,0.0,0.0
760,52.0,0.0,240.0,0.0,0.0
761,64.0,0.0,240.0,0.0,0.0
762,64.0,240.0,240.0,0.0,0.0
763,52.0,0.0,240.0,0.0,0.0
764,35.0,0.0,480.0,0.0,0.0
765,52.0,0.0,240.0,0.0,0.0
766,64.0,0.0,240.0,0.0,0.0
767,40.0,240.0,15.0,0.0,0.0
768,64.0,240.0,240.0,0.0,0.0
769,52.0,0.0,240.0,0.0,0.0
770,36.0,240.0,480.0,0.0,0.0
771,52.0,0.0,240.0,0.0,0.0
772,64.0,0.0,240.0,0.0,0.0
773,59.0,0.0,480.0,0.0,0.0
774,52.0,0.0,240.0,0.0,0.0
775,38.0,240.0,480.0,0.0,0.0
776,47.0,0.0,480.0,0.0,0.0
777,52.0,0.0,240.0,0.0,0.0
778,64.0,240.0,15.0,0.0,0.0
779,64.0,0.0,15.0,0.0,0.0
780,57.0,0.0,960.0,0.0,0.0
781,45.0,0.0,480.0,0.0,0.0
782,36.0,0.0,480.0,0.0,0.0
783,52.0,240.0,15.0,0.0,0.0
784,64.0,0.0,15.0,0.0,0.0
785,36.0,240.0,480.0,0.0,0.0
786,45.0,0.0,480.0,0.0,0.0
787,64.0,240.0,15.0,0.0,0.0
788,64.0,0.0,240.0,0.0,0.0
789,52.0,240.0,15.0,0.0,0.0
790,59.0,240.0,480.0,0.0,0.0
791,52.0,0.0,240.0,0.0,0.0
792,47.0,0.0,480.0,0.0,0.0
793,40.0,0.0,480.0,0.0,0.0
794,64.0,240.0,15.0,0.0,0.0
795,52.0,0.0,240.0,0.0,0.0
796,45.0,0.0,480.0,0.0,0.0
797,48.0,0.0,480.0,0.0,0.0
798,60.0,240.0,480.0,0.0,0.0
799,52.0,240.0,240.0,0.0,0.0
800,64.0,0.0,15.0,0.0,0.0
801,40.0,120.0,360.0,0.0,0.0
802,64.0,0.0,15.0,0.0,0.0
803,52.0,0.0,15.0,0.0,0.0
804,59.0,0.0,480.0,0.0,0.0
805,47.0,0.0,360.0,0.0,0.0
806,52.0,120.0,15.0,0.0,0.0
807,64.0,0.0,15.0,0.0,0.0
808,28.0,240.0,120.0,0.0,0.0
809,64.0,0.0,15.0,0.0,0.0
810,59.0,0.0,1920.0,0.0,0.0
811,40.0,0.0,1920.0,0.0,0.0
812,47.0,0.0,1920.0,0.0,0.0
813,52.0,240.0,15.0,0.0,0.0
814,64.0,0.0,15.0,0.0,0.0
815,52.0,240.0,15.0,0.0,0.0
816,64.0,0.0,15.0,0.0,0.0
817,52.0,0.0,240.0,0.0,0.0
818,64.0,240.0,240.0,0.0,0.0
819,64.0,240.0,240.0,0.0,0.0
820,52.0,0.0,15.0,0.0,0.0
821,52.0,240.0,15.0,0.0,0.0
822,64.0,0.0,15.0,0.0,0.0
823,52.0,240.0,240.0,0.0,0.0
824,36.0,0.0,960.0,0.0,0.0
825,24.0,0.0,960.0,0.0,0.0
826,67.0,0.0,240.0,0.0,0.0
827,55.0,240.0,240.0,0.0,0.0
828,64.0,0.0,15.0,0.0,0.0
829,60.0,240.0,960.0,0.0,0.0
830,55.0,240.0,240.0,0.0,0.0
831,67.0,0.0,240.0,0.0,0.0
832,55.0,240.0,240.0,0.0,0.0
833,67.0,0.0,15.0,0.0,0.0
834,55.0,0.0,240.0,0.0,0.0
835,31.0,0.0,960.0,0.0,0.0
836,67.0,240.0,240.0,0.0,0.0
837,55.0,0.0,240.0,0.0,0.0
838,59.0,0.0,960.0,0.0,0.0
839,43.0,240.0,960.0,0.0,0.0
840,55.0,240.0,240.0,0.0,0.0
841,67.0,0.0,15.0,0.0,0.0
842,67.0,240.0,15.0,0.0,0.0
843,55.0,0.0,15.0,0.0,0.0
844,64.0,0.0,15.0,0.0,0.0
845,67.0,0.0,15.0,0.0,0.0
846,55.0,0.0,15.0,0.0,0.0
847,60.0,0.0,960.0,0.0,0.0
848,24.0,0.0,960.0,0.0,0.0
849,36.0,0.0,960.0,0.0,0.0
850,67.0,0.0,240.0,0.0,0.0
851,55.0,240.0,15.0,0.0,0.0
852,67.0,240.0,15.0,0.0,0.0
853,55.0,240.0,240.0,0.0,0.0
854,43.0,0.0,720.0,0.0,0.0
855,31.0,0.0,720.0,0.0,0.0
856,59.0,0.0,960.0,0.0,0.0
857,67.0,0.0,240.0,0.0,0.0
858,55.0,240.0,15.0,0.0,0.0
859,67.0,0.0,240.0,0.0,0.0
860,42.0,240.0,240.0,0.0,0.0
861,67.0,240.0,15.0,0.0,0.0
862,55.0,0.0,15.0,0.0,0.0
863,30.0,0.0,240.0,0.0,0.0
864,40.0,0.0,960.0,0.0,0.0
865,28.0,0.0,960.0,0.0,0.0
866,67.0,0.0,15.0,0.0,0.0
867,55.0,0.0,15.0,0.0,0.0
868,64.0,0.0,15.0,0.0,0.0
869,59.0,0.0,960.0,0.0,0.0
870,67.0,240.0,15.0,0.0,0.0
871,55.0,240.0,15.0,0.0,0.0
872,67.0,0.0,240.0,0.0,0.0
873,67.0,0.0,240.0,0.0,0.0
874,63.0,0.0,960.0,0.0,0.0
875,55.0,240.0,15.0,0.0,0.0
876,67.0,240.0,240.0,0.0,0.0
877,47.0,0.0,960.0,0.0,0.0
878,35.0,0.0,960.0,0.0,0.0
879,67.0,0.0,240.0,0.0,0.0
880,55.0,240.0,15.0,0.0,0.0
881,67.0,240.0,15.0,0.0,0.0
882,28.0,240.0,960.0,0.0,0.0
883,40.0,0.0,960.0,0.0,0.0
884,55.0,0.0,15.0,0.0,0.0
885,64.0,0.0,240.0,0.0,0.0
886,59.0,240.0,15.0,0.0,0.0
887,67.0,240.0,240.0,0.0,0.0
888,64.0,240.0,240.0,0.0,0.0
889,64.0,240.0,15.0,0.0,0.0
890,64.0,0.0,15.0,0.0,0.0
891,64.0,240.0,15.0,0.0,0.0
892,64.0,240.0,15.0,0.0,0.0
893,64.0,240.0,15.0,0.0,0.0
894,56.0,0.0,960.0,0.0,0.0
895,40.0,0.0,960.0,0.0,0.0
896,50.0,0.0,960.0,0.0,0.0
897,68.0,0.0,960.0,0.0,0.0
898,38.0,0.0,960.0,0.0,0.0
899,64.0,240.0,240.0,0.0,0.0
900,64.0,240.0,15.0,0.0,0.0
901,36.0,240.0,480.0,0.0,0.0
902,48.0,0.0,480.0,0.0,0.0
903,40.0,0.0,960.0,0.0,0.0
904,64.0,240.0,15.0,0.0,0.0
905,69.0,0.0,960.0,0.0,0.0
906,57.0,240.0,960.0,0.0,0.0
907,64.0,240.0,15.0,0.0,0.0
908,45.0,0.0,480.0,0.0,0.0
909,33.0,0.0,480.0,0.0,0.0
910,64.0,240.0,15.0,0.0,0.0
911,28.0,0.0,1440.0,0.0,0.0
912,64.0,240.0,240.0,0.0,0.0
913,69.0,240.0,1440.0,0.0,0.0
914,64.0,240.0,15.0,0.0,0.0
915,64.0,240.0,15.0,0.0,0.0
916,64.0,240.0,15.0,0.0,0.0
917,64.0,240.0,15.0,0.0,0.0
918,59.0,0.0,15.0,0.0,0.0
919,64.0,0.0,15.0,0.0,0.0
920,52.0,240.0,480.0,0.0,0.0
921,40.0,0.0,15.0,0.0,0.0
922,71.0,0.0,15.0,0.0,0.0
923,68.0,0.0,480.0,0.0,0.0
924,64.0,0.0,240.0,0.0,0.0
925,45.0,240.0,960.0,0.0,0.0
926,64.0,240.0,240.0,0.0,0.0
927,71.0,0.0,480.0,0.0,0.0
928,72.0,0.0,480.0,0.0,0.0
929,52.0,0.0,960.0,0.0,0.0
930,60.0,0.0,15.0,0.0,0.0
931,64.0,240.0,15.0,0.0,0.0
932,72.0,0.0,480.0,0.0,0.0
933,64.0,240.0,15.0,0.0,0.0
934,69.0,0.0,15.0,0.0,0.0
935,64.0,0.0,15.0,0.0,0.0
936,52.0,0.0,960.0,0.0,0.0
937,40.0,0.0,960.0,0.0,0.0
938,64.0,240.0,15.0,0.0,0.0
939,71.0,240.0,15.0,0.0,0.0
940,68.0,0.0,480.0,0.0,0.0
941,59.0,0.0,15.0,0.0,0.0
942,64.0,0.0,15.0,0.0,0.0
943,53.0,0.0,960.0,0.0,0.0
944,69.0,0.0,1920.0,0.0,0.0
945,57.0,0.0,1920.0,0.0,0.0
946,64.0,240.0,15.0,0.0,0.0
947,41.0,0.0,960.0,0.0,0.0
948,64.0,240.0,240.0,0.0,0.0
949,62.0,240.0,240.0,0.0,0.0
950,62.0,240.0,240.0,0.0,0.0
951,40.0,240.0,480.0,0.0,0.0
952,52.0,0.0,480.0,0.0,0.0
953,64.0,240.0,15.0,0.0,0.0
954,65.0,240.0,240.0,0.0,0.0
955,38.0,0.0,480.0,0.0,0.0
956,50.0,240.0,480.0,0.0,0.0
957,65.0,0.0,240.0,0.0,0.0
958,56.0,0.0,960.0,0.0,0.0
959,59.0,0.0,960.0,0.0,0.0
960,40.0,0.0,960.0,0.0,0.0
961,52.0,240.0,15.0,0.0,0.0
962,52.0,240.0,240.0,0.0,0.0
963,64.0,0.0,15.0,0.0,0.0
964,60.0,0.0,480.0,0.0,0.0
965,57.0,240.0,480.0,0.0,0.0
966,52.0,240.0,15.0,0.0,0.0
967,33.0,0.0,960.0,0.0,0.0
968,40.0,0.0,960.0,0.0,0.0
969,52.0,0.0,240.0,0.0,0.0
970,54.0,0.0,480.0,0.0,0.0
971,52.0,240.0,240.0,0.0,0.0
972,57.0,0.0,480.0,0.0,0.0
973,64.0,0.0,15.0,0.0,0.0
974,59.0,240.0,480.0,0.0,0.0
975,56.0,0.0,480.0,0.0,0.0
976,52.0,240.0,15.0,0.0,0.0
977,28.0,0.0,480.0,0.0,0.0
978,40.0,0.0,480.0,0.0,0.0
979,52.0,240.0,15.0,0.0,0.0
980,64.0,0.0,480.0,0.0,0.0
981,33.0,0.0,1440.0,0.0,0.0
982,40.0,0.0,1440.0,0.0,0.0
983,57.0,0.0,480.0,0.0,0.0
984,52.0,240.0,240.0,0.0,0.0
985,60.0,240.0,480.0,0.0,0.0
986,52.0,0.0,240.0,0.0,0.0
987,52.0,240.0,240.0,0.0,0.0
988,64.0,0.0,480.0,0.0,0.0
989,54.0,0.0,480.0,0.0,0.0
990,52.0,0.0,240.0,0.0,0.0
991,57.0,240.0,15.0,0.0,0.0
992,60.0,0.0,480.0,0.0,0.0
993,64.0,0.0,480.0,0.0,0.0
994,52.0,240.0,15.0,0.0,0.0
995,52.0,240.0,15.0,0.0,0.0
996,57.0,0.0,480.0,0.0,0.0
997,60.0,0.0,480.0,0.0,0.0
998,64.0,0.0,480.0,0.0,0.0
999,33.0,0.0,480.0,0.0,0.0
1000,52.0,240.0,15.0,0.0,0.0
1001,59.0,0.0,480.0,0.0,0.0
1002,52.0,240.0,240.0,0.0,0.0
1003,56.0,0.0,480.0,0.0,0.0
1004,40.0,240.0,15.0,0.0,0.0
1005,28.0,0.0,960.0,0.0,0.0
1006,52.0,240.0,240.0,0.0,0.0
1007,62.0,0.0,480.0,0.0,0.0
1008,64.0,0.0,15.0,0.0,0.0
1009,59.0,0.0,480.0,0.0,0.0
1010,52.0,240.0,240.0,0.0,0.0
1011,52.0,0.0,15.0,0.0,0.0
1012,57.0,0.0,480.0,0.0,0.0
1013,60.0,0.0,480.0,0.0,0.0
1014,64.0,0.0,15.0,0.0,0.0
1015,33.0,0.0,480.0,0.0,0.0
1016,40.0,240.0,15.0,0.0,0.0
1017,52.0,240.0,15.0,0.0,0.0
1018,56.0,0.0,1920.0,0.0,0.0
1019,40.0,0.0,1920.0,0.0,0.0
1020,64.0,0.0,1920.0,0.0,0.0
1021,28.0,240.0,1920.0,0.0,0.0
1022,52.0,240.0,15.0,0.0,0.0
1023,52.0,240.0,15.0,0.0,0.0
1024,52.0,240.0,15.0,0.0,0.0
1025,52.0,240.0,15.0,0.0,0.0
1026,52.0,240.0,15.0,0.0,0.0
1027,52.0,240.0,15.0,0.0,0.0
1028,52.0,240.0,15.0,0.0,0.0
1029,59.0,0.0,15.0,0.0,0.0
1030,40.0,0.0,240.0,0.0,0.0
1031,38.0,0.0,960.0,0.0,0.0
1032,50.0,0.0,960.0,0.0,0.0
1033,68.0,0.0,960.0,0.0,0.0
1034,56.0,0.0,960.0,0.0,0.0
1035,64.0,240.0,15.0,0.0,0.0
1036,40.0,240.0,240.0,0.0,0.0
1037,64.0,0.0,15.0,0.0,0.0
1038,40.0,0.0,240.0,0.0,0.0
1039,64.0,240.0,15.0,0.0,0.0
1040,40.0,0.0,240.0,0.0,0.0
1041,57.0,0.0,960.0,0.0,0.0
1042,69.0,0.0,960.0,0.0,0.0
1043,48.0,240.0,480.0,0.0,0.0
1044,36.0,0.0,480.0,0.0,0.0
1045,64.0,240.0,15.0,0.0,0.0
1046,64.0,0.0,15.0,0.0,0.0
1047,33.0,0.0,480.0,0.0,0.0
1048,45.0,0.0,480.0,0.0,0.0
1049,64.0,0.0,240.0,0.0,0.0
1050,64.0,240.0,240.0,0.0,0.0
1051,59.0,0.0,1440.0,0.0,0.0
1052,40.0,240.0,15.0,0.0,0.0
1053,69.0,0.0,1440.0,0.0,0.0
1054,28.0,0.0,1920.0,0.0,0.0
1055,71.0,0.0,1440.0,0.0,0.0
1056,64.0,240.0,15.0,0.0,0.0
1057,64.0,240.0,15.0,0.0,0.0
1058,64.0,240.0,240.0,0.0,0.0
1059,64.0,240.0,15.0,0.0,0.0
1060,68.0,0.0,480.0,0.0,0.0
1061,59.0,0.0,480.0,0.0,0.0
1062,64.0,240.0,15.0,0.0,0.0
1063,33.0,0.0,960.0,0.0,0.0
1064,71.0,0.0,15.0,0.0,0.0
1065,60.0,0.0,480.0,0.0,0.0
1066,64.0,240.0,15.0,0.0,0.0
1067,40.0,0.0,960.0,0.0,0.0
1068,64.0,240.0,15.0,0.0,0.0
1069,72.0,240.0,15.0,0.0,0.0
1070,60.0,0.0,480.0,0.0,0.0
1071,64.0,0.0,15.0,0.0,0.0
1072,71.0,0.0,480.0,0.0,0.0
1073,52.0,0.0,960.0,0.0,0.0
1074,69.0,0.0,15.0,0.0,0.0
1075,59.0,0.0,480.0,0.0,0.0
1076,64.0,0.0,15.0,0.0,0.0
1077,40.0,0.0,960.0,0.0,0.0
1078,64.0,240.0,15.0,0.0,0.0
1079,68.0,0.0,480.0,0.0,0.0
1080,71.0,0.0,480.0,0.0,0.0
1081,59.0,240.0,480.0,0.0,0.0
1082,64.0,240.0,15.0,0.0,0.0
1083,37.0,0.0,960.0,0.0,0.0
1084,67.0,0.0,960.0,0.0,0.0
1085,64.0,0.0,960.0,0.0,0.0
1086,57.0,240.0,240.0,0.0,0.0
1087,49.0,240.0,960.0,0.0,0.0
1088,57.0,240.0,15.0,0.0,0.0
1089,38.0,0.0,960.0,0.0,0.0
1090,57.0,0.0,15.0,0.0,0.0
1091,69.0,0.0,15.0,0.0,0.0
1092,64.0,0.0,480.0,0.0,0.0
1093,50.0,0.0,960.0,0.0,0.0
1094,69.0,0.0,15.0,0.0,0.0
1095,57.0,240.0,15.0,0.0,0.0
1096,65.0,0.0,15.0,0.0,0.0
1097,57.0,0.0,240.0,0.0,0.0
1098,62.0,0.0,15.0,0.0,0.0
1099,59.0,0.0,960.0,0.0,0.0
1100,52.0,240.0,240.0,0.0,0.0
1101,32.0,0.0,960.0,0.0,0.0
1102,44.0,240.0,960.0,0.0,0.0
1103,52.0,240.0,240.0,0.0,0.0
1104,52.0,240.0,15.0,0.0,0.0
1105,45.0,0.0,960.0,0.0,0.0
1106,33.0,0.0,960.0,0.0,0.0
1107,64.0,0.0,15.0,0.0,0.0
1108,62.0,0.0,15.0,0.0,0.0
1109,57.0,0.0,480.0,0.0,0.0
1110,52.0,240.0,240.0,0.0,0.0
1111,52.0,0.0,240.0,0.0,0.0
1112,52.0,240.0,240.0,0.0,0.0
1113,28.0,0.0,1440.0,0.0,0.0
1114,66.0,0.0,15.0,0.0,0.0
1115,57.0,240.0,15.0,0.0,0.0
1116,52.0,0.0,15.0,0.0,0.0
1117,60.0,0.0,15.0,0.0,0.0
1118,52.0,240.0,240.0,0.0,0.0
1119,52.0,240.0,15.0,0.0,0.0
1120,64.0,0.0,480.0,0.0,0.0
1121,59.0,0.0,480.0,0.0,0.0
1122,56.0,240.0,480.0,0.0,0.0
1123,52.0,240.0,15.0,0.0,0.0
1124,52.0,240.0,15.0,0.0,0.0
1125,40.0,0.0,15.0,0.0,0.0
1126,52.0,240.0,240.0,0.0,0.0
1127,60.0,0.0,480.0,0.0,0.0
1128,33.0,0.0,480.0,0.0,0.0
1129,66.0,0.0,15.0,0.0,0.0
1130,57.0,0.0,15.0,0.0,0.0
1131,52.0,240.0,15.0,0.0,0.0
1132,60.0,240.0,960.0,0.0,0.0
1133,28.0,0.0,1440.0,0.0,0.0
1134,40.0,0.0,1440.0,0.0,0.0
1135,52.0,240.0,240.0,0.0,0.0
1136,52.0,240.0,240.0,0.0,0.0
1137,52.0,0.0,240.0,0.0,0.0
1138,56.0,240.0,480.0,0.0,0.0
1139,59.0,0.0,480.0,0.0,0.0
1140,64.0,0.0,480.0,0.0,0.0
1141,52.0,240.0,15.0,0.0,0.0
1142,33.0,0.0,480.0,0.0,0.0
1143,52.0,240.0,15.0,0.0,0.0
1144,28.0,0.0,1440.0,0.0,0.0
1145,40.0,0.0,15.0,0.0,0.0
1146,66.0,0.0,15.0,0.0,0.0
1147,60.0,0.0,15.0,0.0,0.0
1148,57.0,0.0,15.0,0.0,0.0
1149,52.0,240.0,15.0,0.0,0.0
1150,52.0,240.0,240.0,0.0,0.0
1151,40.0,0.0,15.0,0.0,0.0
1152,56.0,0.0,480.0,0.0,0.0
1153,59.0,0.0,480.0,0.0,0.0
1154,64.0,0.0,480.0,0.0,0.0
1155,52.0,240.0,240.0,0.0,0.0
1156,52.0,0.0,15.0,0.0,0.0
1157,49.0,0.0,240.0,0.0,0.0
1158,52.0,240.0,240.0,0.0,0.0
1159,52.0,240.0,240.0,0.0,0.0
1160,50.0,0.0,240.0,0.0,0.0
1161,52.0,0.0,240.0,0.0,0.0
1162,47.0,240.0,240.0,0.0,0.0
1163,45.0,120.0,240.0,0.0,0.0
1164,73.0,120.0,360.0,0.0,0.0
1165,52.0,480.0,240.0,0.0,0.0
1166,69.0,0.0,120.0,0.0,0.0
1167,57.0,480.0,1440.0,0.0,0.0
1168,61.0,0.0,1440.0,0.0,0.0
1169,64.0,0.0,960.0,0.0,0.0
1170,52.0,240.0,240.0,0.0,0.0
1171,52.0,240.0,240.0,0.0,0.0
1172,52.0,240.0,240.0,0.0,0.0
1173,66.0,0.0,480.0,0.0,0.0
1174,52.0,240.0,15.0,0.0,0.0
1175,59.0,240.0,1440.0,0.0,0.0
1176,62.0,0.0,1440.0,0.0,0.0
1177,68.0,0.0,1440.0,0.0,0.0
1178,52.0,240.0,240.0,0.0,0.0
1179,52.0,240.0,240.0,0.0,0.0
1180,52.0,240.0,240.0,0.0,0.0
1181,54.0,240.0,240.0,0.0,0.0
1182,52.0,0.0,240.0,0.0,0.0
1183,69.0,360.0,480.0,0.0,0.0
1184,57.0,0.0,240.0,0.0,0.0
1185,61.0,240.0,240.0,0.0,0.0
1186,52.0,0.0,240.0,0.0,0.0
1187,62.0,120.0,360.0,0.0,0.0
1188,71.0,0.0,360.0,0.0,0.0
1189,56.0,0.0,1440.0,0.0,0.0
1190,52.0,240.0,480.0,0.0,0.0
1191,73.0,240.0,120.0,0.0,0.0
1192,64.0,0.0,120.0,0.0,0.0
1193,66.0,240.0,960.0,0.0,0.0
1194,74.0,0.0,960.0,0.0,0.0
1195,52.0,240.0,15.0,0.0,0.0
1196,52.0,240.0,15.0,0.0,0.0
1197,57.0,0.0,240.0,0.0,0.0
1198,64.0,0.0,240.0,0.0,0.0
1199,73.0,0.0,480.0,0.0,0.0
1200,52.0,240.0,240.0,0.0,0.0
1201,56.0,0.0,960.0,0.0,0.0
1202,64.0,240.0,240.0,0.0,0.0
1203,73.0,0.0,720.0,0.0,0.0
1204,52.0,240.0,240.0,0.0,0.0
1205,62.0,240.0,240.0,0.0,0.0
1206,52.0,240.0,240.0,0.0,0.0
1207,71.0,0.0,240.0,0.0,0.0
1208,69.0,120.0,360.0,0.0,0.0
1209,57.0,120.0,240.0,0.0,0.0
1210,61.0,0.0,240.0,0.0,0.0
1211,52.0,48.0,240.0,0.0,0.0
1212,70.0,0.0,120.0,0.0,0.0
1213,71.0,48.0,60.0,0.0,0.0
1214,56.0,0.0,240.0,0.0,0.0
1215,62.0,0.0,240.0,0.0,0.0
1216,73.0,48.0,60.0,0.0,0.0
1217,71.0,48.0,60.0,0.0,0.0
1218,70.0,48.0,60.0,0.0,0.0
1219,71.0,48.0,60.0,0.0,0.0
1220,52.0,240.0,240.0,0.0,0.0
1221,72.0,48.0,60.0,0.0,0.0
1222,73.0,48.0,60.0,0.0,0.0
1223,76.0,48.0,60.0,0.0,0.0
1224,75.0,48.0,60.0,0.0,0.0
1225,74.0,0.0,60.0,0.0,0.0
1226,73.0,120.0,360.0,0.0,0.0
1227,45.0,120.0,240.0,0.0,0.0
1228,52.0,480.0,240.0,0.0,0.0
1229,69.0,0.0,120.0,0.0,0.0
1230,64.0,240.0,960.0,0.0,0.0
1231,61.0,0.0,1440.0,0.0,0.0
1232,57.0,0.0,1440.0,0.0,0.0
1233,52.0,240.0,240.0,0.0,0.0
1234,52.0,240.0,240.0,0.0,0.0
1235,52.0,0.0,240.0,0.0,0.0
1236,52.0,240.0,240.0,0.0,0.0
1237,66.0,0.0,480.0,0.0,0.0
1238,52.0,240.0,240.0,0.0,0.0
1239,59.0,240.0,240.0,0.0,0.0
1240,62.0,0.0,240.0,0.0,0.0
1241,68.0,0.0,1440.0,0.0,0.0
1242,52.0,240.0,240.0,0.0,0.0
1243,52.0,240.0,240.0,0.0,0.0
1244,52.0,240.0,240.0,0.0,0.0
1245,54.0,240.0,240.0,0.0,0.0
1246,52.0,960.0,240.0,0.0,0.0
1247,78.0,480.0,960.0,0.0,0.0
1248,76.0,480.0,480.0,0.0,0.0
1249,74.0,480.0,480.0,0.0,0.0
1250,68.0,480.0,480.0,0.0,0.0
1251,73.0,480.0,480.0,0.0,0.0
1252,71.0,480.0,480.0,0.0,0.0
1253,69.0,480.0,480.0,0.0,0.0
1254,66.0,480.0,480.0,0.0,0.0
1255,40.0,0.0,1920.0,0.0,0.0
1256,54.0,240.0,960.0,0.0,0.0
1257,59.0,240.0,1920.0,0.0,0.0
1258,62.0,0.0,1920.0,0.0,0.0
1259,52.0,240.0,15.0,0.0,0.0
1260,52.0,0.0,240.0,0.0,0.0
1261,56.0,0.0,960.0,0.0,0.0
1262,52.0,240.0,240.0,0.0,0.0
1263,52.0,240.0,240.0,0.0,0.0
1264,52.0,240.0,240.0,0.0,0.0
1265,52.0,0.0,240.0,0.0,0.0
1266,45.0,0.0,1920.0,0.0,0.0
1267,52.0,240.0,240.0,0.0,0.0
1268,61.0,0.0,1920.0,0.0,0.0
1269,57.0,0.0,1200.0,0.0,0.0
1270,52.0,240.0,240.0,0.0,0.0
1271,52.0,240.0,240.0,0.0,0.0
1272,52.0,240.0,240.0,0.0,0.0
1273,52.0,240.0,240.0,0.0,0.0
1274,57.0,240.0,240.0,0.0,0.0
1275,52.0,0.0,15.0,0.0,0.0
1276,59.0,120.0,360.0,0.0,0.0
1277,52.0,120.0,15.0,0.0,0.0
1278,57.0,240.0,15.0,0.0,0.0
1279,52.0,240.0,15.0,0.0,0.0
1280,56.0,240.0,480.0,0.0,0.0
1281,52.0,240.0,15.0,0.0,0.0
1282,52.0,0.0,15.0,0.0,0.0
1283,66.0,240.0,480.0,0.0,0.0
1284,52.0,240.0,15.0,0.0,0.0
1285,52.0,240.0,15.0,0.0,0.0
1286,40.0,0.0,15.0,0.0,0.0
1287,59.0,0.0,15.0,0.0,0.0
1288,62.0,0.0,15.0,0.0,0.0
1289,56.0,240.0,15.0,0.0,0.0
1290,52.0,240.0,15.0,0.0,0.0
1291,52.0,240.0,240.0,0.0,0.0
1292,52.0,240.0,240.0,0.0,0.0
1293,52.0,240.0,240.0,0.0,0.0
1294,52.0,240.0,240.0,0.0,0.0
1295,52.0,240.0,240.0,0.0,0.0
1296,52.0,240.0,240.0,0.0,0.0
1297,45.0,0.0,960.0,0.0,0.0
1298,57.0,0.0,1920.0,0.0,0.0
1299,52.0,240.0,240.0,0.0,0.0
1300,52.0,240.0,15.0,0.0,0.0
1301,40.0,0.0,960.0,0.0,0.0
1302,52.0,240.0,15.0,0.0,0.0
1303,52.0,240.0,240.0,0.0,0.0
1304,52.0,240.0,240.0,0.0,0.0
1305,52.0,0.0,240.0,0.0,0.0
1306,61.0,1920.0,15.0,0.0,0.0
1307,57.0,0.0,1920.0,0.0,0.0
1308,33.0,1920.0,1920.0,0.0,0.0
1309,52.0,0.0,1920.0,0.0,0.0
