,note,step,duration,channel,velocity
0,81.0,120.0,360.0,0.0,0.0
1,53.0,120.0,240.0,0.0,0.0
2,60.0,0.0,240.0,0.0,0.0
3,77.0,480.0,120.0,0.0,0.0
4,72.0,0.0,960.0,0.0,0.0
5,69.0,240.0,960.0,0.0,0.0
6,60.0,240.0,15.0,0.0,0.0
7,60.0,240.0,15.0,0.0,0.0
8,65.0,0.0,15.0,0.0,0.0
9,74.0,480.0,480.0,0.0,0.0
10,69.0,240.0,240.0,0.0,0.0
11,60.0,0.0,240.0,0.0,0.0
12,67.0,240.0,1440.0,0.0,0.0
13,70.0,0.0,1440.0,0.0,0.0
14,76.0,0.0,1440.0,0.0,0.0
15,60.0,240.0,15.0,0.0,0.0
16,60.0,240.0,240.0,0.0,0.0
17,62.0,240.0,240.0,0.0,0.0
18,60.0,0.0,240.0,0.0,0.0
19,77.0,0.0,480.0,0.0,0.0
20,69.0,240.0,240.0,0.0,0.0
21,65.0,0.0,240.0,0.0,0.0
22,60.0,360.0,240.0,0.0,0.0
23,70.0,120.0,360.0,0.0,0.0
24,79.0,0.0,360.0,0.0,0.0
25,64.0,240.0,1440.0,0.0,0.0
26,60.0,240.0,480.0,0.0,0.0
27,81.0,240.0,120.0,0.0,0.0
28,72.0,0.0,120.0,0.0,0.0
29,74.0,0.0,960.0,0.0,0.0
30,82.0,0.0,960.0,0.0,0.0
31,60.0,240.0,15.0,0.0,0.0
32,65.0,240.0,240.0,0.0,0.0
33,72.0,0.0,240.0,0.0,0.0
34,60.0,0.0,15.0,0.0,0.0
35,81.0,240.0,15.0,0.0,0.0
36,72.0,240.0,240.0,0.0,0.0
37,64.0,240.0,960.0,0.0,0.0
38,60.0,240.0,240.0,0.0,0.0
39,70.0,0.0,240.0,0.0,0.0
40,60.0,0.0,240.0,0.0,0.0
41,79.0,0.0,240.0,0.0,0.0
42,69.0,180.0,240.0,0.0,0.0
43,65.0,0.0,240.0,0.0,0.0
44,77.0,60.0,420.0,0.0,0.0
45,60.0,68.0,240.0,0.0,0.0
46,79.0,0.0,60.0,0.0,0.0
47,79.0,68.0,60.0,0.0,0.0
48,64.0,32.0,240.0,0.0,0.0
49,70.0,0.0,240.0,0.0,0.0
50,81.0,68.0,60.0,0.0,0.0
51,79.0,36.0,60.0,0.0,0.0
52,78.0,68.0,60.0,0.0,0.0
53,60.0,240.0,240.0,0.0,0.0
54,79.0,68.0,60.0,0.0,0.0
55,81.0,72.0,60.0,0.0,0.0
56,82.0,0.0,60.0,0.0,0.0
57,53.0,120.0,240.0,0.0,0.0
58,81.0,120.0,360.0,0.0,0.0
59,60.0,0.0,240.0,0.0,0.0
60,77.0,480.0,120.0,0.0,0.0
61,65.0,0.0,1440.0,0.0,0.0
62,69.0,0.0,1440.0,0.0,0.0
63,72.0,240.0,960.0,0.0,0.0
64,60.0,240.0,15.0,0.0,0.0
65,60.0,0.0,15.0,0.0,0.0
66,74.0,480.0,480.0,0.0,0.0
67,60.0,240.0,15.0,0.0,0.0
68,70.0,0.0,1440.0,0.0,0.0
69,67.0,240.0,1440.0,0.0,0.0
70,76.0,0.0,1440.0,0.0,0.0
71,60.0,240.0,15.0,0.0,0.0
72,60.0,240.0,240.0,0.0,0.0
73,62.0,240.0,240.0,0.0,0.0
74,60.0,0.0,240.0,0.0,0.0
75,77.0,360.0,480.0,0.0,0.0
76,65.0,240.0,240.0,0.0,0.0
77,69.0,0.0,240.0,0.0,0.0
78,60.0,0.0,240.0,0.0,0.0
79,70.0,120.0,360.0,0.0,0.0
80,79.0,0.0,360.0,0.0,0.0
81,64.0,240.0,1440.0,0.0,0.0
82,81.0,240.0,120.0,0.0,0.0
83,72.0,0.0,120.0,0.0,0.0
84,82.0,0.0,960.0,0.0,0.0
85,74.0,0.0,960.0,0.0,0.0
86,60.0,240.0,15.0,0.0,0.0
87,60.0,240.0,240.0,0.0,0.0
88,60.0,0.0,480.0,0.0,0.0
89,65.0,0.0,240.0,0.0,0.0
90,72.0,240.0,240.0,0.0,0.0
91,81.0,240.0,480.0,0.0,0.0
92,60.0,0.0,240.0,0.0,0.0
93,72.0,240.0,240.0,0.0,0.0
94,81.0,240.0,720.0,0.0,0.0
95,64.0,0.0,960.0,0.0,0.0
96,60.0,240.0,240.0,0.0,0.0
97,70.0,0.0,240.0,0.0,0.0
98,79.0,240.0,240.0,0.0,0.0
99,60.0,0.0,240.0,0.0,0.0
100,65.0,240.0,240.0,0.0,0.0
101,77.0,0.0,480.0,0.0,0.0
102,69.0,0.0,240.0,0.0,0.0
103,60.0,240.0,240.0,0.0,0.0
104,76.0,0.0,240.0,0.0,0.0
105,65.0,240.0,240.0,0.0,0.0
106,69.0,0.0,240.0,0.0,0.0
107,60.0,240.0,240.0,0.0,0.0
108,77.0,0.0,240.0,0.0,0.0
109,48.0,240.0,240.0,0.0,0.0
110,79.0,240.0,480.0,0.0,0.0
111,60.0,0.0,240.0,0.0,0.0
112,67.0,240.0,240.0,0.0,0.0
113,64.0,0.0,240.0,0.0,0.0
114,79.0,240.0,960.0,0.0,0.0
115,60.0,240.0,240.0,0.0,0.0
116,63.0,0.0,240.0,0.0,0.0
117,67.0,240.0,240.0,0.0,0.0
118,60.0,0.0,240.0,0.0,0.0
119,69.0,0.0,240.0,0.0,0.0
120,63.0,240.0,240.0,0.0,0.0
121,57.0,0.0,240.0,0.0,0.0
122,81.0,0.0,480.0,0.0,0.0
123,65.0,240.0,240.0,0.0,0.0
124,58.0,240.0,240.0,0.0,0.0
125,82.0,0.0,240.0,0.0,0.0
126,62.0,0.0,240.0,0.0,0.0
127,81.0,240.0,240.0,0.0,0.0
128,65.0,0.0,240.0,0.0,0.0
129,70.0,240.0,240.0,0.0,0.0
130,62.0,0.0,240.0,0.0,0.0
131,79.0,0.0,240.0,0.0,0.0
132,77.0,240.0,240.0,0.0,0.0
133,65.0,0.0,240.0,0.0,0.0
134,53.0,240.0,240.0,0.0,0.0
135,81.0,240.0,960.0,0.0,0.0
136,60.0,240.0,240.0,0.0,0.0
137,69.0,0.0,240.0,0.0,0.0
138,65.0,240.0,240.0,0.0,0.0
139,60.0,0.0,240.0,0.0,0.0
140,79.0,240.0,240.0,0.0,0.0
141,55.0,0.0,240.0,0.0,0.0
142,75.0,240.0,240.0,0.0,0.0
143,60.0,0.0,240.0,0.0,0.0
144,74.0,0.0,240.0,0.0,0.0
145,67.0,0.0,240.0,0.0,0.0
146,63.0,240.0,240.0,0.0,0.0
147,72.0,0.0,240.0,0.0,0.0
148,60.0,240.0,240.0,0.0,0.0
149,55.0,160.0,240.0,0.0,0.0
150,59.0,240.0,240.0,0.0,0.0
151,75.0,20.0,30.0,0.0,0.0
152,74.0,20.0,20.0,0.0,0.0
153,72.0,0.0,30.0,0.0,0.0
154,65.0,120.0,240.0,0.0,0.0
155,67.0,0.0,240.0,0.0,0.0
156,74.0,120.0,360.0,0.0,0.0
157,59.0,0.0,240.0,0.0,0.0
158,75.0,240.0,120.0,0.0,0.0
159,72.0,240.0,480.0,0.0,0.0
160,48.0,240.0,240.0,0.0,0.0
161,60.0,0.0,240.0,0.0,0.0
162,67.0,240.0,240.0,0.0,0.0
163,79.0,240.0,480.0,0.0,0.0
164,63.0,0.0,240.0,0.0,0.0
165,60.0,0.0,240.0,0.0,0.0
166,65.0,0.0,240.0,0.0,0.0
167,77.0,0.0,480.0,0.0,0.0
168,62.0,240.0,240.0,0.0,0.0
169,60.0,240.0,240.0,0.0,0.0
170,68.0,0.0,240.0,0.0,0.0
171,80.0,0.0,480.0,0.0,0.0
172,65.0,240.0,240.0,0.0,0.0
173,60.0,240.0,240.0,0.0,0.0
174,48.0,240.0,240.0,0.0,0.0
175,60.0,480.0,240.0,0.0,0.0
176,79.0,0.0,15.0,0.0,0.0
177,67.0,0.0,960.0,0.0,0.0
178,60.0,240.0,240.0,0.0,0.0
179,60.0,240.0,15.0,0.0,0.0
180,63.0,240.0,15.0,0.0,0.0
181,81.0,0.0,480.0,0.0,0.0
182,69.0,240.0,240.0,0.0,0.0
183,60.0,240.0,240.0,0.0,0.0
184,55.0,240.0,240.0,0.0,0.0
185,82.0,0.0,240.0,0.0,0.0
186,81.0,0.0,240.0,0.0,0.0
187,58.0,240.0,240.0,0.0,0.0
188,70.0,0.0,240.0,0.0,0.0
189,62.0,0.0,240.0,0.0,0.0
190,79.0,240.0,240.0,0.0,0.0
191,58.0,240.0,240.0,0.0,0.0
192,77.0,0.0,240.0,0.0,0.0
193,81.0,240.0,1200.0,0.0,0.0
194,50.0,240.0,240.0,0.0,0.0
195,57.0,240.0,240.0,0.0,0.0
196,65.0,0.0,240.0,0.0,0.0
197,69.0,0.0,240.0,0.0,0.0
198,62.0,240.0,240.0,0.0,0.0
199,57.0,240.0,240.0,0.0,0.0
200,45.0,0.0,240.0,0.0,0.0
201,57.0,0.0,240.0,0.0,0.0
202,77.0,240.0,240.0,0.0,0.0
203,65.0,0.0,240.0,0.0,0.0
204,62.0,240.0,240.0,0.0,0.0
205,76.0,0.0,240.0,0.0,0.0
206,69.0,0.0,240.0,0.0,0.0
207,57.0,0.0,240.0,0.0,0.0
208,74.0,240.0,240.0,0.0,0.0
209,45.0,160.0,240.0,0.0,0.0
210,57.0,240.0,240.0,0.0,0.0
211,77.0,20.0,30.0,0.0,0.0
212,76.0,20.0,20.0,0.0,0.0
213,74.0,0.0,30.0,0.0,0.0
214,61.0,0.0,240.0,0.0,0.0
215,67.0,0.0,240.0,0.0,0.0
216,76.0,240.0,240.0,0.0,0.0
217,69.0,0.0,240.0,0.0,0.0
218,57.0,0.0,240.0,0.0,0.0
219,77.0,240.0,240.0,0.0,0.0
220,50.0,240.0,240.0,0.0,0.0
221,74.0,240.0,480.0,0.0,0.0
222,57.0,0.0,240.0,0.0,0.0
223,69.0,240.0,240.0,0.0,0.0
224,65.0,0.0,240.0,0.0,0.0
225,81.0,0.0,480.0,0.0,0.0
226,57.0,240.0,240.0,0.0,0.0
227,79.0,0.0,480.0,0.0,0.0
228,64.0,0.0,240.0,0.0,0.0
229,67.0,240.0,240.0,0.0,0.0
230,57.0,240.0,240.0,0.0,0.0
231,82.0,240.0,480.0,0.0,0.0
232,67.0,240.0,240.0,0.0,0.0
233,70.0,0.0,240.0,0.0,0.0
234,57.0,0.0,240.0,0.0,0.0
235,69.0,240.0,240.0,0.0,0.0
236,81.0,0.0,240.0,0.0,0.0
237,65.0,0.0,240.0,0.0,0.0
238,77.0,0.0,240.0,0.0,0.0
239,57.0,240.0,240.0,0.0,0.0
240,69.0,240.0,240.0,0.0,0.0
241,76.0,0.0,240.0,0.0,0.0
242,65.0,0.0,240.0,0.0,0.0
243,62.0,0.0,240.0,0.0,0.0
244,74.0,0.0,240.0,0.0,0.0
245,57.0,240.0,240.0,0.0,0.0
246,67.0,160.0,240.0,0.0,0.0
247,61.0,0.0,240.0,0.0,0.0
248,57.0,0.0,240.0,0.0,0.0
249,77.0,20.0,30.0,0.0,0.0
250,76.0,20.0,20.0,0.0,0.0
251,74.0,240.0,30.0,0.0,0.0
252,76.0,120.0,360.0,0.0,0.0
253,67.0,120.0,240.0,0.0,0.0
254,69.0,0.0,240.0,0.0,0.0
255,57.0,240.0,240.0,0.0,0.0
256,77.0,0.0,120.0,0.0,0.0
257,74.0,240.0,480.0,0.0,0.0
258,50.0,240.0,240.0,0.0,0.0
259,57.0,0.0,240.0,0.0,0.0
260,79.0,240.0,480.0,0.0,0.0
261,67.0,240.0,240.0,0.0,0.0
262,64.0,0.0,240.0,0.0,0.0
263,57.0,0.0,240.0,0.0,0.0
264,65.0,0.0,240.0,0.0,0.0
265,69.0,240.0,240.0,0.0,0.0
266,81.0,0.0,480.0,0.0,0.0
267,57.0,240.0,240.0,0.0,0.0
268,64.0,0.0,240.0,0.0,0.0
269,79.0,480.0,480.0,0.0,0.0
270,67.0,240.0,240.0,0.0,0.0
271,57.0,0.0,240.0,0.0,0.0
272,65.0,0.0,960.0,0.0,0.0
273,81.0,240.0,1440.0,0.0,0.0
274,57.0,240.0,15.0,0.0,0.0
275,57.0,240.0,15.0,0.0,0.0
276,69.0,0.0,15.0,0.0,0.0
277,65.0,240.0,240.0,0.0,0.0
278,58.0,0.0,240.0,0.0,0.0
279,64.0,240.0,240.0,0.0,0.0
280,67.0,0.0,240.0,0.0,0.0
281,79.0,0.0,480.0,0.0,0.0
282,60.0,240.0,240.0,0.0,0.0
283,81.0,120.0,360.0,0.0,0.0
284,53.0,120.0,240.0,0.0,0.0
285,60.0,480.0,240.0,0.0,0.0
286,77.0,0.0,120.0,0.0,0.0
287,65.0,0.0,960.0,0.0,0.0
288,72.0,0.0,960.0,0.0,0.0
289,60.0,240.0,240.0,0.0,0.0
290,60.0,240.0,240.0,0.0,0.0
291,60.0,0.0,240.0,0.0,0.0
292,74.0,480.0,480.0,0.0,0.0
293,65.0,240.0,240.0,0.0,0.0
294,69.0,240.0,15.0,0.0,0.0
295,60.0,0.0,240.0,0.0,0.0
296,67.0,0.0,1440.0,0.0,0.0
297,70.0,240.0,1440.0,0.0,0.0
298,76.0,0.0,1440.0,0.0,0.0
299,60.0,240.0,15.0,0.0,0.0
300,60.0,240.0,15.0,0.0,0.0
301,62.0,240.0,240.0,0.0,0.0
302,60.0,0.0,240.0,0.0,0.0
303,77.0,0.0,480.0,0.0,0.0
304,69.0,0.0,240.0,0.0,0.0
305,65.0,240.0,240.0,0.0,0.0
306,60.0,360.0,240.0,0.0,0.0
307,79.0,120.0,360.0,0.0,0.0
308,70.0,0.0,360.0,0.0,0.0
309,64.0,240.0,1440.0,0.0,0.0
310,60.0,240.0,480.0,0.0,0.0
311,72.0,240.0,120.0,0.0,0.0
312,81.0,0.0,120.0,0.0,0.0
313,82.0,0.0,960.0,0.0,0.0
314,74.0,0.0,960.0,0.0,0.0
315,60.0,240.0,15.0,0.0,0.0
316,60.0,240.0,15.0,0.0,0.0
317,72.0,0.0,240.0,0.0,0.0
318,65.0,0.0,240.0,0.0,0.0
319,81.0,240.0,480.0,0.0,0.0
320,60.0,0.0,240.0,0.0,0.0
321,64.0,240.0,240.0,0.0,0.0
322,72.0,0.0,240.0,0.0,0.0
323,81.0,0.0,720.0,0.0,0.0
324,60.0,240.0,240.0,0.0,0.0
325,64.0,240.0,240.0,0.0,0.0
326,70.0,0.0,240.0,0.0,0.0
327,79.0,240.0,240.0,0.0,0.0
328,60.0,0.0,240.0,0.0,0.0
329,69.0,240.0,240.0,0.0,0.0
330,65.0,0.0,240.0,0.0,0.0
331,77.0,68.0,480.0,0.0,0.0
332,60.0,0.0,240.0,0.0,0.0
333,78.0,68.0,60.0,0.0,0.0
334,64.0,32.0,240.0,0.0,0.0
335,70.0,0.0,240.0,0.0,0.0
336,79.0,68.0,60.0,0.0,0.0
337,80.0,36.0,60.0,0.0,0.0
338,81.0,68.0,60.0,0.0,0.0
339,60.0,240.0,240.0,0.0,0.0
340,84.0,68.0,60.0,0.0,0.0
341,83.0,72.0,60.0,0.0,0.0
342,82.0,0.0,60.0,0.0,0.0
343,81.0,120.0,360.0,0.0,0.0
344,53.0,120.0,240.0,0.0,0.0
345,60.0,0.0,240.0,0.0,0.0
346,77.0,480.0,120.0,0.0,0.0
347,65.0,480.0,1440.0,0.0,0.0
348,69.0,0.0,1440.0,0.0,0.0
349,72.0,0.0,960.0,0.0,0.0
350,60.0,240.0,240.0,0.0,0.0
351,60.0,240.0,15.0,0.0,0.0
352,60.0,240.0,15.0,0.0,0.0
353,74.0,0.0,480.0,0.0,0.0
354,60.0,0.0,240.0,0.0,0.0
355,76.0,0.0,1440.0,0.0,0.0
356,70.0,240.0,1440.0,0.0,0.0
357,67.0,0.0,1440.0,0.0,0.0
358,60.0,240.0,15.0,0.0,0.0
359,60.0,240.0,15.0,0.0,0.0
360,62.0,240.0,240.0,0.0,0.0
361,60.0,0.0,240.0,0.0,0.0
362,77.0,360.0,480.0,0.0,0.0
363,65.0,0.0,240.0,0.0,0.0
364,69.0,240.0,240.0,0.0,0.0
365,60.0,0.0,240.0,0.0,0.0
366,64.0,0.0,1440.0,0.0,0.0
367,70.0,120.0,360.0,0.0,0.0
368,79.0,0.0,360.0,0.0,0.0
369,81.0,240.0,120.0,0.0,0.0
370,72.0,0.0,120.0,0.0,0.0
371,82.0,240.0,960.0,0.0,0.0
372,74.0,0.0,960.0,0.0,0.0
373,60.0,240.0,15.0,0.0,0.0
374,60.0,240.0,15.0,0.0,0.0
375,60.0,240.0,15.0,0.0,0.0
376,76.0,0.0,480.0,0.0,0.0
377,67.0,240.0,240.0,0.0,0.0
378,60.0,0.0,15.0,0.0,0.0
379,70.0,0.0,960.0,0.0,0.0
380,79.0,240.0,960.0,0.0,0.0
381,60.0,240.0,15.0,0.0,0.0
382,60.0,240.0,15.0,0.0,0.0
383,60.0,240.0,240.0,0.0,0.0
384,60.0,240.0,240.0,0.0,0.0
385,60.0,240.0,240.0,0.0,0.0
386,60.0,240.0,15.0,0.0,0.0
387,41.0,0.0,480.0,0.0,0.0
388,48.0,0.0,480.0,0.0,0.0
389,43.0,0.0,480.0,0.0,0.0
390,48.0,240.0,480.0,0.0,0.0
391,60.0,240.0,15.0,0.0,0.0
392,60.0,0.0,240.0,0.0,0.0
393,44.0,0.0,480.0,0.0,0.0
394,53.0,240.0,480.0,0.0,0.0
395,60.0,240.0,15.0,0.0,0.0
396,60.0,0.0,15.0,0.0,0.0
397,52.0,0.0,480.0,0.0,0.0
398,48.0,0.0,480.0,0.0,0.0
399,60.0,240.0,15.0,0.0,0.0
400,43.0,0.0,15.0,0.0,0.0
401,60.0,240.0,240.0,0.0,0.0
402,48.0,240.0,480.0,0.0,0.0
403,44.0,0.0,480.0,0.0,0.0
404,60.0,240.0,15.0,0.0,0.0
405,60.0,0.0,15.0,0.0,0.0
406,46.0,240.0,480.0,0.0,0.0
407,55.0,0.0,480.0,0.0,0.0
408,60.0,0.0,15.0,0.0,0.0
409,60.0,240.0,15.0,0.0,0.0
410,60.0,0.0,15.0,0.0,0.0
411,53.0,240.0,15.0,0.0,0.0
412,44.0,0.0,15.0,0.0,0.0
413,60.0,0.0,240.0,0.0,0.0
414,55.0,0.0,480.0,0.0,0.0
415,48.0,0.0,480.0,0.0,0.0
416,60.0,240.0,240.0,0.0,0.0
417,60.0,240.0,240.0,0.0,0.0
418,53.0,240.0,480.0,0.0,0.0
419,56.0,0.0,480.0,0.0,0.0
420,60.0,240.0,240.0,0.0,0.0
421,60.0,0.0,240.0,0.0,0.0
422,60.0,240.0,240.0,0.0,0.0
423,60.0,240.0,240.0,0.0,0.0
424,55.0,0.0,15.0,0.0,0.0
425,48.0,0.0,15.0,0.0,0.0
426,60.0,240.0,240.0,0.0,0.0
427,60.0,240.0,240.0,0.0,0.0
428,60.0,240.0,240.0,0.0,0.0
429,60.0,240.0,240.0,0.0,0.0
430,60.0,240.0,15.0,0.0,0.0
431,60.0,240.0,15.0,0.0,0.0
432,60.0,240.0,15.0,0.0,0.0
433,60.0,240.0,15.0,0.0,0.0
434,60.0,240.0,15.0,0.0,0.0
435,56.0,0.0,480.0,0.0,0.0
436,60.0,240.0,15.0,0.0,0.0
437,53.0,0.0,480.0,0.0,0.0
438,60.0,240.0,15.0,0.0,0.0
439,60.0,240.0,15.0,0.0,0.0
440,48.0,240.0,480.0,0.0,0.0
441,55.0,0.0,480.0,0.0,0.0
442,60.0,240.0,15.0,0.0,0.0
443,44.0,0.0,480.0,0.0,0.0
444,53.0,0.0,480.0,0.0,0.0
445,60.0,0.0,15.0,0.0,0.0
446,60.0,240.0,15.0,0.0,0.0
447,55.0,240.0,480.0,0.0,0.0
448,48.0,0.0,480.0,0.0,0.0
449,60.0,240.0,15.0,0.0,0.0
450,60.0,240.0,15.0,0.0,0.0
451,44.0,240.0,480.0,0.0,0.0
452,53.0,0.0,480.0,0.0,0.0
453,60.0,240.0,15.0,0.0,0.0
454,60.0,240.0,240.0,0.0,0.0
455,43.0,0.0,480.0,0.0,0.0
456,52.0,0.0,480.0,0.0,0.0
457,41.0,0.0,480.0,0.0,0.0
458,53.0,0.0,480.0,0.0,0.0
459,60.0,240.0,15.0,0.0,0.0
460,60.0,240.0,15.0,0.0,0.0
461,60.0,240.0,15.0,0.0,0.0
462,43.0,0.0,480.0,0.0,0.0
463,52.0,0.0,480.0,0.0,0.0
464,60.0,240.0,15.0,0.0,0.0
465,44.0,240.0,480.0,0.0,0.0
466,53.0,0.0,480.0,0.0,0.0
467,60.0,240.0,15.0,0.0,0.0
468,60.0,240.0,15.0,0.0,0.0
469,60.0,0.0,15.0,0.0,0.0
470,55.0,0.0,480.0,0.0,0.0
471,43.0,240.0,480.0,0.0,0.0
472,41.0,0.0,480.0,0.0,0.0
473,60.0,0.0,15.0,0.0,0.0
474,56.0,240.0,480.0,0.0,0.0
475,60.0,0.0,15.0,0.0,0.0
476,55.0,0.0,1920.0,0.0,0.0
477,60.0,240.0,15.0,0.0,0.0
478,60.0,240.0,15.0,0.0,0.0
479,72.0,0.0,15.0,0.0,0.0
480,72.0,0.0,15.0,0.0,0.0
481,60.0,240.0,15.0,0.0,0.0
482,72.0,0.0,15.0,0.0,0.0
483,60.0,240.0,15.0,0.0,0.0
484,72.0,240.0,15.0,0.0,0.0
485,60.0,0.0,15.0,0.0,0.0
486,60.0,0.0,15.0,0.0,0.0
487,72.0,240.0,15.0,0.0,0.0
488,48.0,0.0,15.0,0.0,0.0
489,41.0,240.0,480.0,0.0,0.0
490,72.0,0.0,15.0,0.0,0.0
491,60.0,240.0,15.0,0.0,0.0
492,43.0,0.0,480.0,0.0,0.0
493,48.0,0.0,480.0,0.0,0.0
494,60.0,240.0,15.0,0.0,0.0
495,72.0,0.0,15.0,0.0,0.0
496,44.0,0.0,480.0,0.0,0.0
497,53.0,0.0,480.0,0.0,0.0
498,60.0,240.0,15.0,0.0,0.0
499,72.0,0.0,15.0,0.0,0.0
500,65.0,240.0,480.0,0.0,0.0
501,72.0,240.0,15.0,0.0,0.0
502,60.0,0.0,240.0,0.0,0.0
503,52.0,240.0,480.0,0.0,0.0
504,60.0,0.0,240.0,0.0,0.0
505,72.0,240.0,240.0,0.0,0.0
506,64.0,0.0,480.0,0.0,0.0
507,72.0,0.0,240.0,0.0,0.0
508,48.0,0.0,480.0,0.0,0.0
509,43.0,0.0,15.0,0.0,0.0
510,60.0,0.0,15.0,0.0,0.0
511,72.0,240.0,15.0,0.0,0.0
512,60.0,0.0,15.0,0.0,0.0
513,48.0,0.0,480.0,0.0,0.0
514,44.0,0.0,480.0,0.0,0.0
515,72.0,0.0,15.0,0.0,0.0
516,72.0,0.0,15.0,0.0,0.0
517,60.0,240.0,15.0,0.0,0.0
518,67.0,0.0,480.0,0.0,0.0
519,46.0,240.0,480.0,0.0,0.0
520,55.0,0.0,480.0,0.0,0.0
521,60.0,0.0,15.0,0.0,0.0
522,72.0,0.0,15.0,0.0,0.0
523,65.0,0.0,960.0,0.0,0.0
524,72.0,0.0,240.0,0.0,0.0
525,60.0,0.0,240.0,0.0,0.0
526,53.0,240.0,15.0,0.0,0.0
527,44.0,0.0,15.0,0.0,0.0
528,72.0,240.0,240.0,0.0,0.0
529,60.0,0.0,240.0,0.0,0.0
530,60.0,0.0,240.0,0.0,0.0
531,72.0,0.0,15.0,0.0,0.0
532,67.0,0.0,480.0,0.0,0.0
533,48.0,0.0,480.0,0.0,0.0
534,55.0,240.0,480.0,0.0,0.0
535,72.0,0.0,15.0,0.0,0.0
536,60.0,240.0,15.0,0.0,0.0
537,60.0,0.0,15.0,0.0,0.0
538,72.0,0.0,15.0,0.0,0.0
539,53.0,240.0,480.0,0.0,0.0
540,56.0,0.0,480.0,0.0,0.0
541,68.0,0.0,480.0,0.0,0.0
542,60.0,0.0,15.0,0.0,0.0
543,72.0,0.0,15.0,0.0,0.0
544,67.0,0.0,480.0,0.0,0.0
545,55.0,120.0,360.0,0.0,0.0
546,48.0,0.0,360.0,0.0,0.0
547,72.0,0.0,240.0,0.0,0.0
548,36.0,240.0,120.0,0.0,0.0
549,60.0,0.0,15.0,0.0,0.0
550,67.0,240.0,1920.0,0.0,0.0
551,55.0,0.0,1920.0,0.0,0.0
552,48.0,0.0,1920.0,0.0,0.0
553,72.0,0.0,15.0,0.0,0.0
554,60.0,240.0,15.0,0.0,0.0
555,72.0,0.0,15.0,0.0,0.0
556,60.0,240.0,15.0,0.0,0.0
557,72.0,240.0,15.0,0.0,0.0
558,60.0,0.0,15.0,0.0,0.0
559,60.0,0.0,240.0,0.0,0.0
560,72.0,240.0,15.0,0.0,0.0
561,60.0,240.0,15.0,0.0,0.0
562,72.0,0.0,15.0,0.0,0.0
563,75.0,240.0,240.0,0.0,0.0
564,44.0,0.0,960.0,0.0,0.0
565,32.0,0.0,960.0,0.0,0.0
566,68.0,0.0,960.0,0.0,0.0
567,72.0,0.0,960.0,0.0,0.0
568,63.0,0.0,240.0,0.0,0.0
569,63.0,0.0,240.0,0.0,0.0
570,63.0,240.0,240.0,0.0,0.0
571,75.0,240.0,15.0,0.0,0.0
572,75.0,0.0,240.0,0.0,0.0
573,51.0,0.0,960.0,0.0,0.0
574,39.0,0.0,960.0,0.0,0.0
575,63.0,240.0,15.0,0.0,0.0
576,67.0,0.0,960.0,0.0,0.0
577,75.0,240.0,15.0,0.0,0.0
578,63.0,0.0,15.0,0.0,0.0
579,63.0,240.0,15.0,0.0,0.0
580,75.0,0.0,15.0,0.0,0.0
581,63.0,240.0,15.0,0.0,0.0
582,63.0,240.0,15.0,0.0,0.0
583,75.0,0.0,15.0,0.0,0.0
584,44.0,0.0,960.0,0.0,0.0
585,72.0,0.0,15.0,0.0,0.0
586,32.0,0.0,960.0,0.0,0.0
587,68.0,0.0,960.0,0.0,0.0
588,63.0,0.0,240.0,0.0,0.0
589,75.0,240.0,240.0,0.0,0.0
590,63.0,240.0,240.0,0.0,0.0
591,75.0,0.0,240.0,0.0,0.0
592,63.0,0.0,240.0,0.0,0.0
593,51.0,0.0,720.0,0.0,0.0
594,39.0,0.0,720.0,0.0,0.0
595,75.0,240.0,15.0,0.0,0.0
596,63.0,0.0,240.0,0.0,0.0
597,67.0,0.0,960.0,0.0,0.0
598,75.0,240.0,15.0,0.0,0.0
599,63.0,0.0,15.0,0.0,0.0
600,75.0,0.0,240.0,0.0,0.0
601,38.0,0.0,240.0,0.0,0.0
602,50.0,0.0,240.0,0.0,0.0
603,63.0,240.0,15.0,0.0,0.0
604,48.0,0.0,960.0,0.0,0.0
605,75.0,0.0,15.0,0.0,0.0
606,36.0,0.0,960.0,0.0,0.0
607,72.0,0.0,15.0,0.0,0.0
608,63.0,240.0,15.0,0.0,0.0
609,67.0,0.0,960.0,0.0,0.0
610,75.0,240.0,15.0,0.0,0.0
611,63.0,0.0,15.0,0.0,0.0
612,75.0,240.0,15.0,0.0,0.0
613,63.0,0.0,240.0,0.0,0.0
614,75.0,240.0,15.0,0.0,0.0
615,63.0,240.0,15.0,0.0,0.0
616,75.0,0.0,15.0,0.0,0.0
617,43.0,0.0,960.0,0.0,0.0
618,71.0,0.0,960.0,0.0,0.0
619,55.0,0.0,960.0,0.0,0.0
620,75.0,240.0,15.0,0.0,0.0
621,63.0,0.0,240.0,0.0,0.0
622,63.0,240.0,240.0,0.0,0.0
623,75.0,240.0,15.0,0.0,0.0
624,72.0,0.0,240.0,0.0,0.0
625,75.0,240.0,15.0,0.0,0.0
626,63.0,0.0,15.0,0.0,0.0
627,67.0,0.0,15.0,0.0,0.0
628,48.0,240.0,960.0,0.0,0.0
629,36.0,0.0,960.0,0.0,0.0
630,60.0,240.0,240.0,0.0,0.0
631,60.0,240.0,240.0,0.0,0.0
632,60.0,0.0,15.0,0.0,0.0
633,60.0,240.0,240.0,0.0,0.0
634,60.0,240.0,240.0,0.0,0.0
635,60.0,240.0,240.0,0.0,0.0
636,60.0,240.0,240.0,0.0,0.0
637,41.0,0.0,480.0,0.0,0.0
638,48.0,0.0,480.0,0.0,0.0
639,60.0,240.0,240.0,0.0,0.0
640,43.0,240.0,480.0,0.0,0.0
641,48.0,0.0,480.0,0.0,0.0
642,60.0,240.0,15.0,0.0,0.0
643,44.0,0.0,480.0,0.0,0.0
644,53.0,0.0,480.0,0.0,0.0
645,60.0,240.0,15.0,0.0,0.0
646,52.0,240.0,480.0,0.0,0.0
647,60.0,240.0,15.0,0.0,0.0
648,60.0,240.0,15.0,0.0,0.0
649,60.0,240.0,240.0,0.0,0.0
650,48.0,0.0,480.0,0.0,0.0
651,43.0,0.0,15.0,0.0,0.0
652,44.0,0.0,480.0,0.0,0.0
653,60.0,0.0,15.0,0.0,0.0
654,48.0,0.0,480.0,0.0,0.0
655,60.0,240.0,15.0,0.0,0.0
656,46.0,0.0,480.0,0.0,0.0
657,55.0,240.0,480.0,0.0,0.0
658,60.0,240.0,15.0,0.0,0.0
659,44.0,0.0,480.0,0.0,0.0
660,60.0,240.0,240.0,0.0,0.0
661,60.0,240.0,240.0,0.0,0.0
662,44.0,0.0,480.0,0.0,0.0
663,53.0,0.0,15.0,0.0,0.0
664,60.0,240.0,15.0,0.0,0.0
665,55.0,0.0,480.0,0.0,0.0
666,48.0,0.0,480.0,0.0,0.0
667,60.0,240.0,240.0,0.0,0.0
668,53.0,240.0,480.0,0.0,0.0
669,56.0,0.0,480.0,0.0,0.0
670,60.0,240.0,15.0,0.0,0.0
671,60.0,0.0,240.0,0.0,0.0
672,60.0,240.0,240.0,0.0,0.0
673,48.0,0.0,480.0,0.0,0.0
674,55.0,0.0,480.0,0.0,0.0
675,55.0,0.0,2400.0,0.0,0.0
676,60.0,240.0,15.0,0.0,0.0
677,48.0,0.0,2400.0,0.0,0.0
678,60.0,240.0,240.0,0.0,0.0
679,60.0,240.0,240.0,0.0,0.0
680,60.0,240.0,15.0,0.0,0.0
681,60.0,240.0,15.0,0.0,0.0
682,60.0,240.0,240.0,0.0,0.0
683,60.0,240.0,240.0,0.0,0.0
684,60.0,240.0,240.0,0.0,0.0
685,53.0,0.0,480.0,0.0,0.0
686,60.0,240.0,15.0,0.0,0.0
687,56.0,240.0,480.0,0.0,0.0
688,60.0,240.0,15.0,0.0,0.0
689,60.0,240.0,240.0,0.0,0.0
690,55.0,0.0,480.0,0.0,0.0
691,48.0,0.0,480.0,0.0,0.0
692,53.0,0.0,480.0,0.0,0.0
693,44.0,0.0,480.0,0.0,0.0
694,60.0,240.0,15.0,0.0,0.0
695,60.0,240.0,15.0,0.0,0.0
696,48.0,240.0,480.0,0.0,0.0
697,55.0,0.0,480.0,0.0,0.0
698,60.0,240.0,240.0,0.0,0.0
699,60.0,0.0,240.0,0.0,0.0
700,60.0,240.0,240.0,0.0,0.0
701,44.0,0.0,480.0,0.0,0.0
702,53.0,0.0,480.0,0.0,0.0
703,60.0,240.0,15.0,0.0,0.0
704,43.0,0.0,480.0,0.0,0.0
705,52.0,0.0,480.0,0.0,0.0
706,60.0,240.0,15.0,0.0,0.0
707,53.0,0.0,480.0,0.0,0.0
708,41.0,0.0,480.0,0.0,0.0
709,60.0,240.0,15.0,0.0,0.0
710,60.0,240.0,240.0,0.0,0.0
711,52.0,0.0,480.0,0.0,0.0
712,43.0,0.0,480.0,0.0,0.0
713,60.0,240.0,240.0,0.0,0.0
714,53.0,0.0,480.0,0.0,0.0
715,44.0,240.0,480.0,0.0,0.0
716,60.0,240.0,15.0,0.0,0.0
717,60.0,0.0,240.0,0.0,0.0
718,60.0,240.0,240.0,0.0,0.0
719,43.0,0.0,480.0,0.0,0.0
720,55.0,0.0,480.0,0.0,0.0
721,56.0,0.0,480.0,0.0,0.0
722,60.0,240.0,15.0,0.0,0.0
723,41.0,240.0,480.0,0.0,0.0
724,60.0,240.0,15.0,0.0,0.0
725,60.0,0.0,15.0,0.0,0.0
726,55.0,240.0,1920.0,0.0,0.0
727,48.0,0.0,1920.0,0.0,0.0
728,60.0,240.0,15.0,0.0,0.0
729,60.0,240.0,15.0,0.0,0.0
730,72.0,0.0,15.0,0.0,0.0
731,60.0,0.0,15.0,0.0,0.0
732,60.0,0.0,15.0,0.0,0.0
733,72.0,240.0,15.0,0.0,0.0
734,72.0,240.0,240.0,0.0,0.0
735,60.0,240.0,15.0,0.0,0.0
736,72.0,0.0,240.0,0.0,0.0
737,60.0,240.0,15.0,0.0,0.0
738,72.0,0.0,240.0,0.0,0.0
739,72.0,240.0,240.0,0.0,0.0
740,60.0,0.0,15.0,0.0,0.0
741,48.0,0.0,480.0,0.0,0.0
742,41.0,0.0,480.0,0.0,0.0
743,60.0,0.0,240.0,0.0,0.0
744,43.0,0.0,480.0,0.0,0.0
745,48.0,240.0,480.0,0.0,0.0
746,72.0,240.0,15.0,0.0,0.0
747,60.0,240.0,240.0,0.0,0.0
748,72.0,0.0,15.0,0.0,0.0
749,53.0,0.0,480.0,0.0,0.0
750,65.0,0.0,480.0,0.0,0.0
751,72.0,240.0,240.0,0.0,0.0
752,60.0,0.0,15.0,0.0,0.0
753,44.0,0.0,480.0,0.0,0.0
754,60.0,0.0,240.0,0.0,0.0
755,52.0,0.0,480.0,0.0,0.0
756,43.0,240.0,480.0,0.0,0.0
757,60.0,0.0,240.0,0.0,0.0
758,72.0,240.0,15.0,0.0,0.0
759,64.0,0.0,480.0,0.0,0.0
760,60.0,0.0,240.0,0.0,0.0
761,72.0,0.0,240.0,0.0,0.0
762,72.0,240.0,240.0,0.0,0.0
763,60.0,0.0,240.0,0.0,0.0
764,43.0,0.0,480.0,0.0,0.0
765,60.0,0.0,240.0,0.0,0.0
766,72.0,0.0,240.0,0.0,0.0
767,48.0,240.0,15.0,0.0,0.0
768,72.0,240.0,240.0,0.0,0.0
769,60.0,0.0,240.0,0.0,0.0
770,44.0,240.0,480.0,0.0,0.0
771,60.0,0.0,240.0,0.0,0.0
772,72.0,0.0,240.0,0.0,0.0
773,67.0,0.0,480.0,0.0,0.0
774,60.0,0.0,240.0,0.0,0.0
775,46.0,240.0,480.0,0.0,0.0
776,55.0,0.0,480.0,0.0,0.0
777,60.0,0.0,240.0,0.0,0.0
778,72.0,240.0,15.0,0.0,0.0
779,72.0,0.0,15.0,0.0,0.0
780,65.0,0.0,960.0,0.0,0.0
781,53.0,0.0,480.0,0.0,0.0
782,44.0,0.0,480.0,0.0,0.0
783,60.0,240.0,15.0,0.0,0.0
784,72.0,0.0,15.0,0.0,0.0
785,44.0,240.0,480.0,0.0,0.0
786,53.0,0.0,480.0,0.0,0.0
787,72.0,240.0,15.0,0.0,0.0
788,72.0,0.0,240.0,0.0,0.0
789,60.0,240.0,15.0,0.0,0.0
790,67.0,240.0,480.0,0.0,0.0
791,60.0,0.0,240.0,0.0,0.0
792,55.0,0.0,480.0,0.0,0.0
793,48.0,0.0,480.0,0.0,0.0
794,72.0,240.0,15.0,0.0,0.0
795,60.0,0.0,240.0,0.0,0.0
796,53.0,0.0,480.0,0.0,0.0
797,56.0,0.0,480.0,0.0,0.0
798,68.0,240.0,480.0,0.0,0.0
799,60.0,240.0,240.0,0.0,0.0
800,72.0,0.0,15.0,0.0,0.0
801,48.0,120.0,360.0,0.0,0.0
802,72.0,0.0,15.0,0.0,0.0
803,60.0,0.0,15.0,0.0,0.0
804,67.0,0.0,480.0,0.0,0.0
805,55.0,0.0,360.0,0.0,0.0
806,60.0,120.0,15.0,0.0,0.0
807,72.0,0.0,15.0,0.0,0.0
808,36.0,240.0,120.0,0.0,0.0
809,72.0,0.0,15.0,0.0,0.0
810,67.0,0.0,1920.0,0.0,0.0
811,48.0,0.0,1920.0,0.0,0.0
812,55.0,0.0,1920.0,0.0,0.0
813,60.0,240.0,15.0,0.0,0.0
814,72.0,0.0,15.0,0.0,0.0
815,60.0,240.0,15.0,0.0,0.0
816,72.0,0.0,15.0,0.0,0.0
817,60.0,0.0,240.0,0.0,0.0
818,72.0,240.0,240.0,0.0,0.0
819,72.0,240.0,240.0,0.0,0.0
820,60.0,0.0,15.0,0.0,0.0
821,60.0,240.0,15.0,0.0,0.0
822,72.0,0.0,15.0,0.0,0.0
823,60.0,240.0,240.0,0.0,0.0
824,44.0,0.0,960.0,0.0,0.0
825,32.0,0.0,960.0,0.0,0.0
826,75.0,0.0,240.0,0.0,0.0
827,63.0,240.0,240.0,0.0,0.0
828,72.0,0.0,15.0,0.0,0.0
829,68.0,240.0,960.0,0.0,0.0
830,63.0,240.0,240.0,0.0,0.0
831,75.0,0.0,240.0,0.0,0.0
832,63.0,240.0,240.0,0.0,0.0
833,75.0,0.0,15.0,0.0,0.0
834,63.0,0.0,240.0,0.0,0.0
835,39.0,0.0,960.0,0.0,0.0
836,75.0,240.0,240.0,0.0,0.0
837,63.0,0.0,240.0,0.0,0.0
838,67.0,0.0,960.0,0.0,0.0
839,51.0,240.0,960.0,0.0,0.0
840,63.0,240.0,240.0,0.0,0.0
841,75.0,0.0,15.0,0.0,0.0
842,75.0,240.0,15.0,0.0,0.0
843,63.0,0.0,15.0,0.0,0.0
844,72.0,0.0,15.0,0.0,0.0
845,75.0,0.0,15.0,0.0,0.0
846,63.0,0.0,15.0,0.0,0.0
847,68.0,0.0,960.0,0.0,0.0
848,32.0,0.0,960.0,0.0,0.0
849,44.0,0.0,960.0,0.0,0.0
850,75.0,0.0,240.0,0.0,0.0
851,63.0,240.0,15.0,0.0,0.0
852,75.0,240.0,15.0,0.0,0.0
853,63.0,240.0,240.0,0.0,0.0
854,51.0,0.0,720.0,0.0,0.0
855,39.0,0.0,720.0,0.0,0.0
856,67.0,0.0,960.0,0.0,0.0
857,75.0,0.0,240.0,0.0,0.0
858,63.0,240.0,15.0,0.0,0.0
859,75.0,0.0,240.0,0.0,0.0
860,50.0,240.0,240.0,0.0,0.0
861,75.0,240.0,15.0,0.0,0.0
862,63.0,0.0,15.0,0.0,0.0
863,38.0,0.0,240.0,0.0,0.0
864,48.0,0.0,960.0,0.0,0.0
865,36.0,0.0,960.0,0.0,0.0
866,75.0,0.0,15.0,0.0,0.0
867,63.0,0.0,15.0,0.0,0.0
868,72.0,0.0,15.0,0.0,0.0
869,67.0,0.0,960.0,0.0,0.0
870,75.0,240.0,15.0,0.0,0.0
871,63.0,240.0,15.0,0.0,0.0
872,75.0,0.0,240.0,0.0,0.0
873,75.0,0.0,240.0,0.0,0.0
874,71.0,0.0,960.0,0.0,0.0
875,63.0,240.0,15.0,0.0,0.0
876,75.0,240.0,240.0,0.0,0.0
877,55.0,0.0,960.0,0.0,0.0
878,43.0,0.0,960.0,0.0,0.0
879,75.0,0.0,240.0,0.0,0.0
880,63.0,240.0,15.0,0.0,0.0
881,75.0,240.0,15.0,0.0,0.0
882,36.0,240.0,960.0,0.0,0.0
883,48.0,0.0,960.0,0.0,0.0
884,63.0,0.0,15.0,0.0,0.0
885,72.0,0.0,240.0,0.0,0.0
886,67.0,240.0,15.0,0.0,0.0
887,75.0,240.0,240.0,0.0,0.0
888,72.0,240.0,240.0,0.0,0.0
889,72.0,240.0,15.0,0.0,0.0
890,72.0,0.0,15.0,0.0,0.0
891,72.0,240.0,15.0,0.0,0.0
892,72.0,240.0,15.0,0.0,0.0
893,72.0,240.0,15.0,0.0,0.0
894,64.0,0.0,960.0,0.0,0.0
895,48.0,0.0,960.0,0.0,0.0
896,58.0,0.0,960.0,0.0,0.0
897,76.0,0.0,960.0,0.0,0.0
898,46.0,0.0,960.0,0.0,0.0
899,72.0,240.0,240.0,0.0,0.0
900,72.0,240.0,15.0,0.0,0.0
901,44.0,240.0,480.0,0.0,0.0
902,56.0,0.0,480.0,0.0,0.0
903,48.0,0.0,960.0,0.0,0.0
904,72.0,240.0,15.0,0.0,0.0
905,77.0,0.0,960.0,0.0,0.0
906,65.0,240.0,960.0,0.0,0.0
907,72.0,240.0,15.0,0.0,0.0
908,53.0,0.0,480.0,0.0,0.0
909,41.0,0.0,480.0,0.0,0.0
910,72.0,240.0,15.0,0.0,0.0
911,36.0,0.0,1440.0,0.0,0.0
912,72.0,240.0,240.0,0.0,0.0
913,77.0,240.0,1440.0,0.0,0.0
914,72.0,240.0,15.0,0.0,0.0
915,72.0,240.0,15.0,0.0,0.0
916,72.0,240.0,15.0,0.0,0.0
917,72.0,240.0,15.0,0.0,0.0
918,67.0,0.0,15.0,0.0,0.0
919,72.0,0.0,15.0,0.0,0.0
920,60.0,240.0,480.0,0.0,0.0
921,48.0,0.0,15.0,0.0,0.0
922,79.0,0.0,15.0,0.0,0.0
923,76.0,0.0,480.0,0.0,0.0
924,72.0,0.0,240.0,0.0,0.0
925,53.0,240.0,960.0,0.0,0.0
926,72.0,240.0,240.0,0.0,0.0
927,79.0,0.0,480.0,0.0,0.0
928,80.0,0.0,480.0,0.0,0.0
929,60.0,0.0,960.0,0.0,0.0
930,68.0,0.0,15.0,0.0,0.0
931,72.0,240.0,15.0,0.0,0.0
932,80.0,0.0,480.0,0.0,0.0
933,72.0,240.0,15.0,0.0,0.0
934,77.0,0.0,15.0,0.0,0.0
935,72.0,0.0,15.0,0.0,0.0
936,60.0,0.0,960.0,0.0,0.0
937,48.0,0.0,960.0,0.0,0.0
938,72.0,240.0,15.0,0.0,0.0
939,79.0,240.0,15.0,0.0,0.0
940,76.0,0.0,480.0,0.0,0.0
941,67.0,0.0,15.0,0.0,0.0
942,72.0,0.0,15.0,0.0,0.0
943,61.0,0.0,960.0,0.0,0.0
944,77.0,0.0,1920.0,0.0,0.0
945,65.0,0.0,1920.0,0.0,0.0
946,72.0,240.0,15.0,0.0,0.0
947,49.0,0.0,960.0,0.0,0.0
948,72.0,240.0,240.0,0.0,0.0
949,70.0,240.0,240.0,0.0,0.0
950,70.0,240.0,240.0,0.0,0.0
951,48.0,240.0,480.0,0.0,0.0
952,60.0,0.0,480.0,0.0,0.0
953,72.0,240.0,15.0,0.0,0.0
954,73.0,240.0,240.0,0.0,0.0
955,46.0,0.0,480.0,0.0,0.0
956,58.0,240.0,480.0,0.0,0.0
957,73.0,0.0,240.0,0.0,0.0
958,64.0,0.0,960.0,0.0,0.0
959,67.0,0.0,960.0,0.0,0.0
960,48.0,0.0,960.0,0.0,0.0
961,60.0,240.0,15.0,0.0,0.0
962,60.0,240.0,240.0,0.0,0.0
963,72.0,0.0,15.0,0.0,0.0
964,68.0,0.0,480.0,0.0,0.0
965,65.0,240.0,480.0,0.0,0.0
966,60.0,240.0,15.0,0.0,0.0
967,41.0,0.0,960.0,0.0,0.0
968,48.0,0.0,960.0,0.0,0.0
969,60.0,0.0,240.0,0.0,0.0
970,62.0,0.0,480.0,0.0,0.0
971,60.0,240.0,240.0,0.0,0.0
972,65.0,0.0,480.0,0.0,0.0
973,72.0,0.0,15.0,0.0,0.0
974,67.0,240.0,480.0,0.0,0.0
975,64.0,0.0,480.0,0.0,0.0
976,60.0,240.0,15.0,0.0,0.0
977,36.0,0.0,480.0,0.0,0.0
978,48.0,0.0,480.0,0.0,0.0
979,60.0,240.0,15.0,0.0,0.0
980,72.0,0.0,480.0,0.0,0.0
981,41.0,0.0,1440.0,0.0,0.0
982,48.0,0.0,1440.0,0.0,0.0
983,65.0,0.0,480.0,0.0,0.0
984,60.0,240.0,240.0,0.0,0.0
985,68.0,240.0,480.0,0.0,0.0
986,60.0,0.0,240.0,0.0,0.0
987,60.0,240.0,240.0,0.0,0.0
988,72.0,0.0,480.0,0.0,0.0
989,62.0,0.0,480.0,0.0,0.0
990,60.0,0.0,240.0,0.0,0.0
991,65.0,240.0,15.0,0.0,0.0
992,68.0,0.0,480.0,0.0,0.0
993,72.0,0.0,480.0,0.0,0.0
994,60.0,240.0,15.0,0.0,0.0
995,60.0,240.0,15.0,0.0,0.0
996,65.0,0.0,480.0,0.0,0.0
997,68.0,0.0,480.0,0.0,0.0
998,72.0,0.0,480.0,0.0,0.0
999,41.0,0.0,480.0,0.0,0.0
1000,60.0,240.0,15.0,0.0,0.0
1001,67.0,0.0,480.0,0.0,0.0
1002,60.0,240.0,240.0,0.0,0.0
1003,64.0,0.0,480.0,0.0,0.0
1004,48.0,240.0,15.0,0.0,0.0
1005,36.0,0.0,960.0,0.0,0.0
1006,60.0,240.0,240.0,0.0,0.0
1007,70.0,0.0,480.0,0.0,0.0
1008,72.0,0.0,15.0,0.0,0.0
1009,67.0,0.0,480.0,0.0,0.0
1010,60.0,240.0,240.0,0.0,0.0
1011,60.0,0.0,15.0,0.0,0.0
1012,65.0,0.0,480.0,0.0,0.0
1013,68.0,0.0,480.0,0.0,0.0
1014,72.0,0.0,15.0,0.0,0.0
1015,41.0,0.0,480.0,0.0,0.0
1016,48.0,240.0,15.0,0.0,0.0
1017,60.0,240.0,15.0,0.0,0.0
1018,64.0,0.0,1920.0,0.0,0.0
1019,48.0,0.0,1920.0,0.0,0.0
1020,72.0,0.0,1920.0,0.0,0.0
1021,36.0,240.0,1920.0,0.0,0.0
1022,60.0,240.0,15.0,0.0,0.0
1023,60.0,240.0,15.0,0.0,0.0
1024,60.0,240.0,15.0,0.0,0.0
1025,60.0,240.0,15.0,0.0,0.0
1026,60.0,240.0,15.0,0.0,0.0
1027,60.0,240.0,15.0,0.0,0.0
1028,60.0,240.0,15.0,0.0,0.0
1029,67.0,0.0,15.0,0.0,0.0
1030,48.0,0.0,240.0,0.0,0.0
1031,46.0,0.0,960.0,0.0,0.0
1032,58.0,0.0,960.0,0.0,0.0
1033,76.0,0.0,960.0,0.0,0.0
1034,64.0,0.0,960.0,0.0,0.0
1035,72.0,240.0,15.0,0.0,0.0
1036,48.0,240.0,240.0,0.0,0.0
1037,72.0,0.0,15.0,0.0,0.0
1038,48.0,0.0,240.0,0.0,0.0
1039,72.0,240.0,15.0,0.0,0.0
1040,48.0,0.0,240.0,0.0,0.0
1041,65.0,0.0,960.0,0.0,0.0
1042,77.0,0.0,960.0,0.0,0.0
1043,56.0,240.0,480.0,0.0,0.0
1044,44.0,0.0,480.0,0.0,0.0
1045,72.0,240.0,15.0,0.0,0.0
1046,72.0,0.0,15.0,0.0,0.0
1047,41.0,0.0,480.0,0.0,0.0
1048,53.0,0.0,480.0,0.0,0.0
1049,72.0,0.0,240.0,0.0,0.0
1050,72.0,240.0,240.0,0.0,0.0
1051,67.0,0.0,1440.0,0.0,0.0
1052,48.0,240.0,15.0,0.0,0.0
1053,77.0,0.0,1440.0,0.0,0.0
1054,36.0,0.0,1920.0,0.0,0.0
1055,79.0,0.0,1440.0,0.0,0.0
1056,72.0,240.0,15.0,0.0,0.0
1057,72.0,240.0,15.0,0.0,0.0
1058,72.0,240.0,240.0,0.0,0.0
1059,72.0,240.0,15.0,0.0,0.0
1060,76.0,0.0,480.0,0.0,0.0
1061,67.0,0.0,480.0,0.0,0.0
1062,72.0,240.0,15.0,0.0,0.0
1063,41.0,0.0,960.0,0.0,0.0
1064,79.0,0.0,15.0,0.0,0.0
1065,68.0,0.0,480.0,0.0,0.0
1066,72.0,240.0,15.0,0.0,0.0
1067,48.0,0.0,960.0,0.0,0.0
1068,72.0,240.0,15.0,0.0,0.0
1069,80.0,240.0,15.0,0.0,0.0
1070,68.0,0.0,480.0,0.0,0.0
1071,72.0,0.0,15.0,0.0,0.0
1072,79.0,0.0,480.0,0.0,0.0
1073,60.0,0.0,960.0,0.0,0.0
1074,77.0,0.0,15.0,0.0,0.0
1075,67.0,0.0,480.0,0.0,0.0
1076,72.0,0.0,15.0,0.0,0.0
1077,48.0,0.0,960.0,0.0,0.0
1078,72.0,240.0,15.0,0.0,0.0
1079,76.0,0.0,480.0,0.0,0.0
1080,79.0,0.0,480.0,0.0,0.0
1081,67.0,240.0,480.0,0.0,0.0
1082,72.0,240.0,15.0,0.0,0.0
1083,45.0,0.0,960.0,0.0,0.0
1084,75.0,0.0,960.0,0.0,0.0
1085,72.0,0.0,960.0,0.0,0.0
1086,65.0,240.0,240.0,0.0,0.0
1087,57.0,240.0,960.0,0.0,0.0
1088,65.0,240.0,15.0,0.0,0.0
1089,46.0,0.0,960.0,0.0,0.0
1090,65.0,0.0,15.0,0.0,0.0
1091,77.0,0.0,15.0,0.0,0.0
1092,72.0,0.0,480.0,0.0,0.0
1093,58.0,0.0,960.0,0.0,0.0
1094,77.0,0.0,15.0,0.0,0.0
1095,65.0,240.0,15.0,0.0,0.0
1096,73.0,0.0,15.0,0.0,0.0
1097,65.0,0.0,240.0,0.0,0.0
1098,70.0,0.0,15.0,0.0,0.0
1099,67.0,0.0,960.0,0.0,0.0
1100,60.0,240.0,240.0,0.0,0.0
1101,40.0,0.0,960.0,0.0,0.0
1102,52.0,240.0,960.0,0.0,0.0
1103,60.0,240.0,240.0,0.0,0.0
1104,60.0,240.0,15.0,0.0,0.0
1105,53.0,0.0,960.0,0.0,0.0
1106,41.0,0.0,960.0,0.0,0.0
1107,72.0,0.0,15.0,0.0,0.0
1108,70.0,0.0,15.0,0.0,0.0
1109,65.0,0.0,480.0,0.0,0.0
1110,60.0,240.0,240.0,0.0,0.0
1111,60.0,0.0,240.0,0.0,0.0
1112,60.0,240.0,240.0,0.0,0.0
1113,36.0,0.0,1440.0,0.0,0.0
1114,74.0,0.0,15.0,0.0,0.0
1115,65.0,240.0,15.0,0.0,0.0
1116,60.0,0.0,15.0,0.0,0.0
1117,68.0,0.0,15.0,0.0,0.0
1118,60.0,240.0,240.0,0.0,0.0
1119,60.0,240.0,15.0,0.0,0.0
1120,72.0,0.0,480.0,0.0,0.0
1121,67.0,0.0,480.0,0.0,0.0
1122,64.0,240.0,480.0,0.0,0.0
1123,60.0,240.0,15.0,0.0,0.0
1124,60.0,240.0,15.0,0.0,0.0
1125,48.0,0.0,15.0,0.0,0.0
1126,60.0,240.0,240.0,0.0,0.0
1127,68.0,0.0,480.0,0.0,0.0
1128,41.0,0.0,480.0,0.0,0.0
1129,74.0,0.0,15.0,0.0,0.0
1130,65.0,0.0,15.0,0.0,0.0
1131,60.0,240.0,15.0,0.0,0.0
1132,68.0,240.0,960.0,0.0,0.0
1133,36.0,0.0,1440.0,0.0,0.0
1134,48.0,0.0,1440.0,0.0,0.0
1135,60.0,240.0,240.0,0.0,0.0
1136,60.0,240.0,240.0,0.0,0.0
1137,60.0,0.0,240.0,0.0,0.0
1138,64.0,240.0,480.0,0.0,0.0
1139,67.0,0.0,480.0,0.0,0.0
1140,72.0,0.0,480.0,0.0,0.0
1141,60.0,240.0,15.0,0.0,0.0
1142,41.0,0.0,480.0,0.0,0.0
1143,60.0,240.0,15.0,0.0,0.0
1144,36.0,0.0,1440.0,0.0,0.0
1145,48.0,0.0,15.0,0.0,0.0
1146,74.0,0.0,15.0,0.0,0.0
1147,68.0,0.0,15.0,0.0,0.0
1148,65.0,0.0,15.0,0.0,0.0
1149,60.0,240.0,15.0,0.0,0.0
1150,60.0,240.0,240.0,0.0,0.0
1151,48.0,0.0,15.0,0.0,0.0
1152,64.0,0.0,480.0,0.0,0.0
1153,67.0,0.0,480.0,0.0,0.0
1154,72.0,0.0,480.0,0.0,0.0
1155,60.0,240.0,240.0,0.0,0.0
1156,60.0,0.0,15.0,0.0,0.0
1157,57.0,0.0,240.0,0.0,0.0
1158,60.0,240.0,240.0,0.0,0.0
1159,60.0,240.0,240.0,0.0,0.0
1160,58.0,0.0,240.0,0.0,0.0
1161,60.0,0.0,240.0,0.0,0.0
1162,55.0,240.0,240.0,0.0,0.0
1163,53.0,120.0,240.0,0.0,0.0
1164,81.0,120.0,360.0,0.0,0.0
1165,60.0,480.0,240.0,0.0,0.0
1166,77.0,0.0,120.0,0.0,0.0
1167,65.0,480.0,1440.0,0.0,0.0
1168,69.0,0.0,1440.0,0.0,0.0
1169,72.0,0.0,960.0,0.0,0.0
1170,60.0,240.0,240.0,0.0,0.0
1171,60.0,240.0,240.0,0.0,0.0
1172,60.0,240.0,240.0,0.0,0.0
1173,74.0,0.0,480.0,0.0,0.0
1174,60.0,240.0,15.0,0.0,0.0
1175,67.0,240.0,1440.0,0.0,0.0
1176,70.0,0.0,1440.0,0.0,0.0
1177,76.0,0.0,1440.0,0.0,0.0
1178,60.0,240.0,240.0,0.0,0.0
1179,60.0,240.0,240.0,0.0,0.0
1180,60.0,240.0,240.0,0.0,0.0
1181,62.0,240.0,240.0,0.0,0.0
1182,60.0,0.0,240.0,0.0,0.0
1183,77.0,360.0,480.0,0.0,0.0
1184,65.0,0.0,240.0,0.0,0.0
1185,69.0,240.0,240.0,0.0,0.0
1186,60.0,0.0,240.0,0.0,0.0
1187,70.0,120.0,360.0,0.0,0.0
1188,79.0,0.0,360.0,0.0,0.0
1189,64.0,0.0,1440.0,0.0,0.0
1190,60.0,240.0,480.0,0.0,0.0
1191,81.0,240.0,120.0,0.0,0.0
1192,72.0,0.0,120.0,0.0,0.0
1193,74.0,240.0,960.0,0.0,0.0
1194,82.0,0.0,960.0,0.0,0.0
1195,60.0,240.0,15.0,0.0,0.0
1196,60.0,240.0,15.0,0.0,0.0
1197,65.0,0.0,240.0,0.0,0.0
1198,72.0,0.0,240.0,0.0,0.0
1199,81.0,0.0,480.0,0.0,0.0
1200,60.0,240.0,240.0,0.0,0.0
1201,64.0,0.0,960.0,0.0,0.0
1202,72.0,240.0,240.0,0.0,0.0
1203,81.0,0.0,720.0,0.0,0.0
1204,60.0,240.0,240.0,0.0,0.0
1205,70.0,240.0,240.0,0.0,0.0
1206,60.0,240.0,240.0,0.0,0.0
1207,79.0,0.0,240.0,0.0,0.0
1208,77.0,120.0,360.0,0.0,0.0
1209,65.0,120.0,240.0,0.0,0.0
1210,69.0,0.0,240.0,0.0,0.0
1211,60.0,48.0,240.0,0.0,0.0
1212,78.0,0.0,120.0,0.0,0.0
1213,79.0,48.0,60.0,0.0,0.0
1214,64.0,0.0,240.0,0.0,0.0
1215,70.0,0.0,240.0,0.0,0.0
1216,81.0,48.0,60.0,0.0,0.0
1217,79.0,48.0,60.0,0.0,0.0
1218,78.0,48.0,60.0,0.0,0.0
1219,79.0,48.0,60.0,0.0,0.0
1220,60.0,240.0,240.0,0.0,0.0
1221,80.0,48.0,60.0,0.0,0.0
1222,81.0,48.0,60.0,0.0,0.0
1223,84.0,48.0,60.0,0.0,0.0
1224,83.0,48.0,60.0,0.0,0.0
1225,82.0,0.0,60.0,0.0,0.0
1226,81.0,120.0,360.0,0.0,0.0
1227,53.0,120.0,240.0,0.0,0.0
1228,60.0,480.0,240.0,0.0,0.0
1229,77.0,0.0,120.0,0.0,0.0
1230,72.0,240.0,960.0,0.0,0.0
1231,69.0,0.0,1440.0,0.0,0.0
1232,65.0,0.0,1440.0,0.0,0.0
1233,60.0,240.0,240.0,0.0,0.0
1234,60.0,240.0,240.0,0.0,0.0
1235,60.0,0.0,240.0,0.0,0.0
1236,60.0,240.0,240.0,0.0,0.0
1237,74.0,0.0,480.0,0.0,0.0
1238,60.0,240.0,240.0,0.0,0.0
1239,67.0,240.0,240.0,0.0,0.0
1240,70.0,0.0,240.0,0.0,0.0
1241,76.0,0.0,1440.0,0.0,0.0
1242,60.0,240.0,240.0,0.0,0.0
1243,60.0,240.0,240.0,0.0,0.0
1244,60.0,240.0,240.0,0.0,0.0
1245,62.0,240.0,240.0,0.0,0.0
1246,60.0,960.0,240.0,0.0,0.0
1247,86.0,480.0,960.0,0.0,0.0
1248,84.0,480.0,480.0,0.0,0.0
1249,82.0,480.0,480.0,0.0,0.0
1250,76.0,480.0,480.0,0.0,0.0
1251,81.0,480.0,480.0,0.0,0.0
1252,79.0,480.0,480.0,0.0,0.0
1253,77.0,480.0,480.0,0.0,0.0
1254,74.0,480.0,480.0,0.0,0.0
1255,48.0,0.0,1920.0,0.0,0.0
1256,62.0,240.0,960.0,0.0,0.0
1257,67.0,240.0,1920.0,0.0,0.0
1258,70.0,0.0,1920.0,0.0,0.0
1259,60.0,240.0,15.0,0.0,0.0
1260,60.0,0.0,240.0,0.0,0.0
1261,64.0,0.0,960.0,0.0,0.0
1262,60.0,240.0,240.0,0.0,0.0
1263,60.0,240.0,240.0,0.0,0.0
1264,60.0,240.0,240.0,0.0,0.0
1265,60.0,0.0,240.0,0.0,0.0
1266,53.0,0.0,1920.0,0.0,0.0
1267,60.0,240.0,240.0,0.0,0.0
1268,69.0,0.0,1920.0,0.0,0.0
1269,65.0,0.0,1200.0,0.0,0.0
1270,60.0,240.0,240.0,0.0,0.0
1271,60.0,240.0,240.0,0.0,0.0
1272,60.0,240.0,240.0,0.0,0.0
1273,60.0,240.0,240.0,0.0,0.0
1274,65.0,240.0,240.0,0.0,0.0
1275,60.0,0.0,15.0,0.0,0.0
1276,67.0,120.0,360.0,0.0,0.0
1277,60.0,120.0,15.0,0.0,0.0
1278,65.0,240.0,15.0,0.0,0.0
1279,60.0,240.0,15.0,0.0,0.0
1280,64.0,240.0,480.0,0.0,0.0
1281,60.0,240.0,15.0,0.0,0.0
1282,60.0,0.0,15.0,0.0,0.0
1283,74.0,240.0,480.0,0.0,0.0
1284,60.0,240.0,15.0,0.0,0.0
1285,60.0,240.0,15.0,0.0,0.0
1286,48.0,0.0,15.0,0.0,0.0
1287,67.0,0.0,15.0,0.0,0.0
1288,70.0,0.0,15.0,0.0,0.0
1289,64.0,240.0,15.0,0.0,0.0
1290,60.0,240.0,15.0,0.0,0.0
1291,60.0,240.0,240.0,0.0,0.0
1292,60.0,240.0,240.0,0.0,0.0
1293,60.0,240.0,240.0,0.0,0.0
1294,60.0,240.0,240.0,0.0,0.0
1295,60.0,240.0,240.0,0.0,0.0
1296,60.0,240.0,240.0,0.0,0.0
1297,53.0,0.0,960.0,0.0,0.0
1298,65.0,0.0,1920.0,0.0,0.0
1299,60.0,240.0,240.0,0.0,0.0
1300,60.0,240.0,15.0,0.0,0.0
1301,48.0,0.0,960.0,0.0,0.0
1302,60.0,240.0,15.0,0.0,0.0
1303,60.0,240.0,240.0,0.0,0.0
1304,60.0,240.0,240.0,0.0,0.0
1305,60.0,0.0,240.0,0.0,0.0
1306,69.0,1920.0,15.0,0.0,0.0
1307,65.0,0.0,1920.0,0.0,0.0
1308,41.0,1920.0,1920.0,0.0,0.0
1309,60.0,0.0,1920.0,0.0,0.0
