,note,step,duration,channel,velocity
0,62.0,0.0,180.0,2.0,64.0
1,28.0,0.0,180.0,2.0,64.0
2,71.0,160.0,180.0,2.0,64.0
3,73.0,160.0,180.0,2.0,64.0
4,52.0,0.0,180.0,2.0,64.0
5,64.0,0.0,180.0,2.0,64.0
6,44.0,0.0,180.0,2.0,64.0
7,71.0,160.0,180.0,2.0,64.0
8,62.0,0.0,180.0,2.0,64.0
9,47.0,0.0,180.0,2.0,64.0
10,56.0,0.0,180.0,2.0,64.0
11,73.0,160.0,180.0,2.0,64.0
12,52.0,0.0,180.0,2.0,64.0
13,59.0,0.0,180.0,2.0,64.0
14,64.0,0.0,180.0,2.0,64.0
15,47.0,0.0,180.0,2.0,64.0
16,56.0,0.0,180.0,2.0,64.0
17,62.0,142.0,180.0,2.0,64.0
18,71.0,0.0,180.0,2.0,64.0
19,44.0,0.0,150.0,2.0,64.0
20,73.0,178.0,150.0,2.0,64.0
21,52.0,0.0,150.0,2.0,64.0
22,64.0,0.0,150.0,2.0,64.0
23,61.0,0.0,180.0,2.0,64.0
24,69.0,0.0,180.0,2.0,64.0
25,33.0,160.0,180.0,2.0,64.0
26,52.0,160.0,180.0,2.0,64.0
27,45.0,0.0,180.0,2.0,64.0
28,62.0,0.0,180.0,2.0,64.0
29,71.0,0.0,180.0,2.0,64.0
30,57.0,149.0,180.0,2.0,64.0
31,49.0,0.0,180.0,2.0,64.0
32,72.0,0.0,180.0,2.0,64.0
33,63.0,0.0,180.0,2.0,64.0
34,52.0,160.0,180.0,2.0,64.0
35,45.0,0.0,180.0,2.0,64.0
36,74.0,0.0,150.0,2.0,64.0
37,66.0,11.0,150.0,2.0,64.0
38,57.0,0.0,180.0,2.0,64.0
39,64.0,0.0,180.0,2.0,64.0
40,49.0,142.0,180.0,2.0,64.0
41,73.0,0.0,180.0,2.0,64.0
42,61.0,0.0,150.0,2.0,64.0
43,69.0,0.0,150.0,2.0,64.0
44,45.0,0.0,150.0,2.0,64.0
45,52.0,178.0,150.0,2.0,64.0
46,64.0,0.0,180.0,2.0,64.0
47,73.0,0.0,180.0,2.0,64.0
48,28.0,160.0,180.0,2.0,64.0
49,62.0,160.0,180.0,2.0,64.0
50,71.0,0.0,180.0,2.0,64.0
51,44.0,0.0,180.0,2.0,64.0
52,52.0,0.0,180.0,2.0,64.0
53,64.0,160.0,180.0,2.0,64.0
54,56.0,0.0,180.0,2.0,64.0
55,47.0,0.0,180.0,2.0,64.0
56,73.0,0.0,180.0,2.0,64.0
57,52.0,0.0,180.0,2.0,64.0
58,59.0,0.0,180.0,2.0,64.0
59,71.0,160.0,180.0,2.0,64.0
60,62.0,0.0,180.0,2.0,64.0
61,73.0,0.0,180.0,2.0,64.0
62,64.0,142.0,180.0,2.0,64.0
63,56.0,0.0,180.0,2.0,64.0
64,47.0,0.0,180.0,2.0,64.0
65,52.0,178.0,150.0,2.0,64.0
66,71.0,0.0,150.0,2.0,64.0
67,62.0,0.0,150.0,2.0,64.0
68,44.0,0.0,150.0,2.0,64.0
69,33.0,0.0,180.0,2.0,64.0
70,69.0,160.0,180.0,2.0,64.0
71,61.0,0.0,180.0,2.0,64.0
72,52.0,0.0,180.0,2.0,64.0
73,45.0,0.0,180.0,2.0,64.0
74,71.0,0.0,180.0,2.0,64.0
75,62.0,149.0,180.0,2.0,64.0
76,57.0,160.0,180.0,2.0,64.0
77,49.0,0.0,180.0,2.0,64.0
78,63.0,11.0,150.0,2.0,64.0
79,72.0,0.0,150.0,2.0,64.0
80,52.0,0.0,180.0,2.0,64.0
81,45.0,160.0,180.0,2.0,64.0
82,66.0,0.0,180.0,2.0,64.0
83,74.0,0.0,180.0,2.0,64.0
84,73.0,142.0,180.0,2.0,64.0
85,49.0,0.0,180.0,2.0,64.0
86,57.0,0.0,180.0,2.0,64.0
87,64.0,0.0,180.0,2.0,64.0
88,69.0,0.0,150.0,2.0,64.0
89,45.0,178.0,150.0,2.0,64.0
90,52.0,0.0,150.0,2.0,64.0
91,61.0,0.0,150.0,2.0,64.0
92,71.0,0.0,180.0,2.0,64.0
93,63.0,0.0,180.0,2.0,64.0
94,35.0,160.0,180.0,2.0,64.0
95,73.0,160.0,180.0,2.0,64.0
96,47.0,0.0,180.0,2.0,64.0
97,57.0,0.0,180.0,2.0,64.0
98,64.0,0.0,180.0,2.0,64.0
99,54.0,0.0,180.0,2.0,64.0
100,59.0,0.0,180.0,2.0,64.0
101,65.0,0.0,180.0,2.0,64.0
102,74.0,160.0,180.0,2.0,64.0
103,57.0,160.0,180.0,2.0,64.0
104,75.0,0.0,180.0,2.0,64.0
105,63.0,0.0,180.0,2.0,64.0
106,66.0,0.0,180.0,2.0,64.0
107,76.0,142.0,180.0,2.0,64.0
108,68.0,0.0,180.0,2.0,64.0
109,59.0,0.0,180.0,2.0,64.0
110,54.0,0.0,180.0,2.0,64.0
111,57.0,0.0,150.0,2.0,64.0
112,69.0,0.0,150.0,2.0,64.0
113,47.0,0.0,150.0,2.0,64.0
114,78.0,94.0,150.0,2.0,64.0
115,70.0,160.0,180.0,2.0,64.0
116,40.0,84.0,90.0,2.0,64.0
117,79.0,0.0,180.0,2.0,64.0
118,71.0,0.0,180.0,2.0,64.0
119,80.0,0.0,180.0,2.0,64.0
120,52.0,0.0,180.0,2.0,64.0
121,59.0,160.0,180.0,2.0,64.0
122,81.0,0.0,180.0,2.0,64.0
123,72.0,0.0,180.0,2.0,64.0
124,56.0,76.0,180.0,2.0,64.0
125,64.0,0.0,180.0,2.0,64.0
126,45.0,73.0,90.0,2.0,64.0
127,52.0,160.0,180.0,2.0,64.0
128,83.0,11.0,150.0,2.0,64.0
129,74.0,0.0,150.0,2.0,64.0
130,73.0,0.0,180.0,2.0,64.0
131,57.0,0.0,180.0,2.0,64.0
132,49.0,0.0,180.0,2.0,64.0
133,81.0,142.0,180.0,2.0,64.0
134,76.0,0.0,150.0,2.0,64.0
135,68.0,0.0,150.0,2.0,64.0
136,61.0,178.0,150.0,2.0,64.0
137,52.0,0.0,150.0,2.0,64.0
138,80.0,0.0,180.0,2.0,64.0
139,71.0,0.0,180.0,2.0,64.0
140,47.0,160.0,180.0,2.0,64.0
141,69.0,0.0,180.0,2.0,64.0
142,78.0,0.0,180.0,2.0,64.0
143,59.0,160.0,180.0,2.0,64.0
144,51.0,0.0,180.0,2.0,64.0
145,54.0,0.0,180.0,2.0,64.0
146,63.0,160.0,180.0,2.0,64.0
147,71.0,0.0,180.0,2.0,64.0
148,80.0,0.0,180.0,2.0,64.0
149,59.0,0.0,180.0,2.0,64.0
150,66.0,0.0,180.0,2.0,64.0
151,69.0,160.0,180.0,2.0,64.0
152,78.0,0.0,180.0,2.0,64.0
153,80.0,0.0,180.0,2.0,64.0
154,63.0,0.0,180.0,2.0,64.0
155,71.0,0.0,180.0,2.0,64.0
156,54.0,142.0,180.0,2.0,64.0
157,69.0,0.0,150.0,2.0,64.0
158,78.0,178.0,150.0,2.0,64.0
159,59.0,0.0,150.0,2.0,64.0
160,51.0,0.0,150.0,2.0,64.0
161,64.0,0.0,180.0,2.0,64.0
162,56.0,0.0,180.0,2.0,64.0
163,68.0,160.0,180.0,2.0,64.0
164,76.0,0.0,180.0,2.0,64.0
165,69.0,0.0,180.0,2.0,64.0
166,78.0,149.0,180.0,2.0,64.0
167,61.0,0.0,180.0,2.0,64.0
168,52.0,0.0,180.0,2.0,64.0
169,62.0,0.0,180.0,2.0,64.0
170,54.0,160.0,180.0,2.0,64.0
171,66.0,11.0,150.0,2.0,64.0
172,74.0,0.0,150.0,2.0,64.0
173,68.0,0.0,180.0,2.0,64.0
174,59.0,160.0,180.0,2.0,64.0
175,50.0,0.0,180.0,2.0,64.0
176,76.0,0.0,180.0,2.0,64.0
177,61.0,0.0,180.0,2.0,64.0
178,52.0,0.0,180.0,2.0,64.0
179,64.0,0.0,180.0,2.0,64.0
180,73.0,142.0,180.0,2.0,64.0
181,57.0,178.0,150.0,2.0,64.0
182,49.0,0.0,150.0,2.0,64.0
183,74.0,0.0,150.0,2.0,64.0
184,66.0,0.0,150.0,2.0,64.0
185,71.0,0.0,180.0,2.0,64.0
186,28.0,0.0,180.0,2.0,64.0
187,62.0,160.0,180.0,2.0,64.0
188,73.0,160.0,180.0,2.0,64.0
189,64.0,0.0,180.0,2.0,64.0
190,52.0,0.0,180.0,2.0,64.0
191,44.0,0.0,180.0,2.0,64.0
192,71.0,160.0,180.0,2.0,64.0
193,62.0,0.0,180.0,2.0,64.0
194,47.0,0.0,180.0,2.0,64.0
195,56.0,0.0,180.0,2.0,64.0
196,52.0,160.0,180.0,2.0,64.0
197,59.0,0.0,180.0,2.0,64.0
198,64.0,0.0,180.0,2.0,64.0
199,73.0,0.0,180.0,2.0,64.0
200,56.0,142.0,180.0,2.0,64.0
201,47.0,0.0,180.0,2.0,64.0
202,71.0,0.0,180.0,2.0,64.0
203,62.0,0.0,180.0,2.0,64.0
204,73.0,178.0,150.0,2.0,64.0
205,64.0,0.0,150.0,2.0,64.0
206,52.0,0.0,150.0,2.0,64.0
207,44.0,0.0,150.0,2.0,64.0
208,33.0,0.0,180.0,2.0,64.0
209,69.0,160.0,180.0,2.0,64.0
210,61.0,0.0,180.0,2.0,64.0
211,52.0,160.0,180.0,2.0,64.0
212,45.0,0.0,180.0,2.0,64.0
213,71.0,0.0,180.0,2.0,64.0
214,62.0,0.0,180.0,2.0,64.0
215,63.0,149.0,180.0,2.0,64.0
216,72.0,0.0,180.0,2.0,64.0
217,49.0,0.0,180.0,2.0,64.0
218,57.0,0.0,180.0,2.0,64.0
219,66.0,11.0,150.0,2.0,64.0
220,74.0,0.0,150.0,2.0,64.0
221,52.0,0.0,180.0,2.0,64.0
222,45.0,160.0,180.0,2.0,64.0
223,49.0,142.0,180.0,2.0,64.0
224,73.0,0.0,180.0,2.0,64.0
225,64.0,0.0,180.0,2.0,64.0
226,57.0,0.0,180.0,2.0,64.0
227,61.0,0.0,150.0,2.0,64.0
228,45.0,0.0,150.0,2.0,64.0
229,52.0,178.0,150.0,2.0,64.0
230,69.0,0.0,150.0,2.0,64.0
231,64.0,0.0,180.0,2.0,64.0
232,73.0,0.0,180.0,2.0,64.0
233,28.0,160.0,180.0,2.0,64.0
234,62.0,0.0,180.0,2.0,64.0
235,71.0,0.0,180.0,2.0,64.0
236,52.0,160.0,180.0,2.0,64.0
237,44.0,0.0,180.0,2.0,64.0
238,47.0,0.0,180.0,2.0,64.0
239,56.0,160.0,180.0,2.0,64.0
240,73.0,0.0,180.0,2.0,64.0
241,64.0,0.0,180.0,2.0,64.0
242,52.0,160.0,180.0,2.0,64.0
243,59.0,0.0,180.0,2.0,64.0
244,71.0,0.0,180.0,2.0,64.0
245,62.0,0.0,180.0,2.0,64.0
246,47.0,0.0,180.0,2.0,64.0
247,73.0,0.0,180.0,2.0,64.0
248,56.0,142.0,180.0,2.0,64.0
249,64.0,0.0,180.0,2.0,64.0
250,71.0,0.0,150.0,2.0,64.0
251,52.0,0.0,150.0,2.0,64.0
252,44.0,0.0,150.0,2.0,64.0
253,62.0,178.0,150.0,2.0,64.0
254,33.0,160.0,180.0,2.0,64.0
255,69.0,0.0,180.0,2.0,64.0
256,61.0,0.0,180.0,2.0,64.0
257,62.0,149.0,180.0,2.0,64.0
258,45.0,0.0,180.0,2.0,64.0
259,71.0,0.0,180.0,2.0,64.0
260,52.0,0.0,180.0,2.0,64.0
261,49.0,160.0,180.0,2.0,64.0
262,57.0,0.0,180.0,2.0,64.0
263,72.0,11.0,150.0,2.0,64.0
264,63.0,0.0,150.0,2.0,64.0
265,52.0,0.0,180.0,2.0,64.0
266,74.0,0.0,180.0,2.0,64.0
267,45.0,0.0,180.0,2.0,64.0
268,66.0,160.0,180.0,2.0,64.0
269,64.0,142.0,180.0,2.0,64.0
270,73.0,0.0,180.0,2.0,64.0
271,57.0,0.0,180.0,2.0,64.0
272,49.0,0.0,180.0,2.0,64.0
273,69.0,0.0,150.0,2.0,64.0
274,61.0,0.0,150.0,2.0,64.0
275,52.0,178.0,150.0,2.0,64.0
276,45.0,0.0,150.0,2.0,64.0
277,71.0,0.0,180.0,2.0,64.0
278,62.0,0.0,180.0,2.0,64.0
279,38.0,160.0,180.0,2.0,64.0
280,72.0,0.0,180.0,2.0,64.0
281,63.0,160.0,180.0,2.0,64.0
282,57.0,0.0,180.0,2.0,64.0
283,50.0,0.0,180.0,2.0,64.0
284,73.0,160.0,180.0,2.0,64.0
285,64.0,0.0,180.0,2.0,64.0
286,59.0,0.0,180.0,2.0,64.0
287,54.0,0.0,180.0,2.0,64.0
288,57.0,0.0,180.0,2.0,64.0
289,62.0,160.0,180.0,2.0,64.0
290,65.0,0.0,180.0,2.0,64.0
291,74.0,0.0,180.0,2.0,64.0
292,66.0,0.0,180.0,2.0,64.0
293,75.0,0.0,180.0,2.0,64.0
294,59.0,0.0,180.0,2.0,64.0
295,54.0,142.0,180.0,2.0,64.0
296,76.0,0.0,150.0,2.0,64.0
297,67.0,0.0,150.0,2.0,64.0
298,57.0,0.0,150.0,2.0,64.0
299,50.0,178.0,150.0,2.0,64.0
300,38.0,160.0,180.0,2.0,64.0
301,68.0,0.0,180.0,2.0,64.0
302,77.0,0.0,180.0,2.0,64.0
303,59.0,160.0,180.0,2.0,64.0
304,50.0,0.0,180.0,2.0,64.0
305,69.0,0.0,180.0,2.0,64.0
306,78.0,0.0,180.0,2.0,64.0
307,70.0,149.0,180.0,2.0,64.0
308,62.0,0.0,180.0,2.0,64.0
309,57.0,0.0,180.0,2.0,64.0
310,79.0,0.0,180.0,2.0,64.0
311,80.0,11.0,150.0,2.0,64.0
312,71.0,0.0,150.0,2.0,64.0
313,66.0,0.0,180.0,2.0,64.0
314,59.0,160.0,180.0,2.0,64.0
315,72.0,142.0,180.0,2.0,64.0
316,57.0,0.0,180.0,2.0,64.0
317,62.0,0.0,180.0,2.0,64.0
318,81.0,0.0,180.0,2.0,64.0
319,50.0,0.0,150.0,2.0,64.0
320,73.0,0.0,150.0,2.0,64.0
321,82.0,0.0,150.0,2.0,64.0
322,59.0,178.0,150.0,2.0,64.0
323,83.0,0.0,180.0,2.0,64.0
324,40.0,0.0,180.0,2.0,64.0
325,74.0,160.0,180.0,2.0,64.0
326,81.0,0.0,180.0,2.0,64.0
327,62.0,0.0,180.0,2.0,64.0
328,52.0,0.0,180.0,2.0,64.0
329,90.0,160.0,180.0,2.0,64.0
330,87.0,0.0,180.0,2.0,64.0
331,64.0,0.0,180.0,2.0,64.0
332,59.0,0.0,180.0,2.0,64.0
333,79.0,160.0,180.0,2.0,64.0
334,68.0,0.0,180.0,2.0,64.0
335,62.0,160.0,180.0,2.0,64.0
336,80.0,0.0,180.0,2.0,64.0
337,88.0,0.0,180.0,2.0,64.0
338,64.0,0.0,180.0,2.0,64.0
339,85.0,0.0,180.0,2.0,64.0
340,59.0,142.0,180.0,2.0,64.0
341,77.0,0.0,180.0,2.0,64.0
342,86.0,0.0,150.0,2.0,64.0
343,52.0,0.0,150.0,2.0,64.0
344,62.0,0.0,150.0,2.0,64.0
345,78.0,178.0,150.0,2.0,64.0
346,45.0,160.0,180.0,2.0,64.0
347,84.0,0.0,180.0,2.0,64.0
348,75.0,0.0,180.0,2.0,64.0
349,52.0,0.0,180.0,2.0,64.0
350,61.0,0.0,180.0,2.0,64.0
351,76.0,149.0,180.0,2.0,64.0
352,85.0,0.0,180.0,2.0,64.0
353,82.0,11.0,150.0,2.0,64.0
354,57.0,0.0,180.0,2.0,64.0
355,64.0,160.0,180.0,2.0,64.0
356,73.0,0.0,150.0,2.0,64.0
357,61.0,0.0,180.0,2.0,64.0
358,69.0,0.0,180.0,2.0,64.0
359,83.0,0.0,180.0,2.0,64.0
360,74.0,160.0,180.0,2.0,64.0
361,64.0,0.0,180.0,2.0,64.0
362,72.0,0.0,180.0,2.0,64.0
363,57.0,142.0,180.0,2.0,64.0
364,80.0,0.0,180.0,2.0,64.0
365,52.0,0.0,150.0,2.0,64.0
366,61.0,0.0,150.0,2.0,64.0
367,81.0,0.0,150.0,2.0,64.0
368,73.0,178.0,150.0,2.0,64.0
369,42.0,160.0,180.0,2.0,64.0
370,78.0,0.0,180.0,2.0,64.0
371,69.0,0.0,180.0,2.0,64.0
372,57.0,160.0,180.0,2.0,64.0
373,83.0,0.0,180.0,2.0,64.0
374,74.0,0.0,180.0,2.0,64.0
375,49.0,0.0,180.0,2.0,64.0
376,54.0,160.0,180.0,2.0,64.0
377,61.0,0.0,180.0,2.0,64.0
378,72.0,0.0,180.0,2.0,64.0
379,80.0,0.0,180.0,2.0,64.0
380,66.0,0.0,180.0,2.0,64.0
381,81.0,0.0,180.0,2.0,64.0
382,73.0,0.0,180.0,2.0,64.0
383,57.0,160.0,180.0,2.0,64.0
384,69.0,0.0,180.0,2.0,64.0
385,78.0,0.0,180.0,2.0,64.0
386,54.0,0.0,180.0,2.0,64.0
387,61.0,142.0,180.0,2.0,64.0
388,49.0,0.0,150.0,2.0,64.0
389,57.0,178.0,150.0,2.0,64.0
390,73.0,0.0,150.0,2.0,64.0
391,81.0,0.0,150.0,2.0,64.0
392,71.0,0.0,180.0,2.0,64.0
393,80.0,0.0,180.0,2.0,64.0
394,37.0,160.0,180.0,2.0,64.0
395,81.0,160.0,180.0,2.0,64.0
396,73.0,0.0,180.0,2.0,64.0
397,49.0,0.0,180.0,2.0,64.0
398,56.0,0.0,180.0,2.0,64.0
399,61.0,0.0,180.0,2.0,64.0
400,53.0,0.0,180.0,2.0,64.0
401,71.0,149.0,180.0,2.0,64.0
402,80.0,0.0,180.0,2.0,64.0
403,65.0,160.0,180.0,2.0,64.0
404,56.0,0.0,180.0,2.0,64.0
405,69.0,11.0,150.0,2.0,64.0
406,78.0,0.0,150.0,2.0,64.0
407,68.0,0.0,180.0,2.0,64.0
408,77.0,0.0,180.0,2.0,64.0
409,53.0,142.0,180.0,2.0,64.0
410,61.0,0.0,180.0,2.0,64.0
411,71.0,0.0,150.0,2.0,64.0
412,80.0,0.0,150.0,2.0,64.0
413,56.0,0.0,150.0,2.0,64.0
414,49.0,178.0,150.0,2.0,64.0
415,38.0,0.0,180.0,2.0,64.0
416,78.0,0.0,180.0,2.0,64.0
417,69.0,160.0,180.0,2.0,64.0
418,80.0,0.0,180.0,2.0,64.0
419,71.0,0.0,180.0,2.0,64.0
420,54.0,160.0,180.0,2.0,64.0
421,45.0,0.0,180.0,2.0,64.0
422,78.0,160.0,180.0,2.0,64.0
423,69.0,0.0,180.0,2.0,64.0
424,57.0,0.0,180.0,2.0,64.0
425,50.0,0.0,180.0,2.0,64.0
426,76.0,160.0,180.0,2.0,64.0
427,68.0,0.0,180.0,2.0,64.0
428,62.0,0.0,180.0,2.0,64.0
429,54.0,0.0,180.0,2.0,64.0
430,50.0,0.0,180.0,2.0,64.0
431,57.0,142.0,180.0,2.0,64.0
432,66.0,0.0,180.0,2.0,64.0
433,74.0,0.0,180.0,2.0,64.0
434,45.0,178.0,150.0,2.0,64.0
435,69.0,0.0,150.0,2.0,64.0
436,54.0,0.0,150.0,2.0,64.0
437,78.0,0.0,150.0,2.0,64.0
438,76.0,0.0,180.0,2.0,64.0
439,67.0,0.0,180.0,2.0,64.0
440,34.0,160.0,180.0,2.0,64.0
441,52.0,0.0,180.0,2.0,64.0
442,69.0,0.0,180.0,2.0,64.0
443,46.0,0.0,180.0,2.0,64.0
444,78.0,160.0,180.0,2.0,64.0
445,55.0,0.0,180.0,2.0,64.0
446,49.0,0.0,180.0,2.0,64.0
447,66.0,0.0,180.0,2.0,64.0
448,75.0,149.0,180.0,2.0,64.0
449,52.0,0.0,180.0,2.0,64.0
450,58.0,160.0,180.0,2.0,64.0
451,76.0,0.0,150.0,2.0,64.0
452,67.0,11.0,150.0,2.0,64.0
453,55.0,0.0,180.0,2.0,64.0
454,49.0,142.0,180.0,2.0,64.0
455,73.0,0.0,180.0,2.0,64.0
456,64.0,0.0,180.0,2.0,64.0
457,67.0,0.0,150.0,2.0,64.0
458,76.0,0.0,150.0,2.0,64.0
459,52.0,0.0,150.0,2.0,64.0
460,46.0,70.0,150.0,2.0,64.0
461,74.0,160.0,180.0,2.0,64.0
462,35.0,108.0,60.0,2.0,64.0
463,66.0,0.0,180.0,2.0,64.0
464,47.0,40.0,210.0,2.0,64.0
465,54.0,0.0,210.0,2.0,64.0
466,76.0,32.0,180.0,2.0,64.0
467,68.0,0.0,180.0,2.0,64.0
468,59.0,88.0,90.0,2.0,64.0
469,50.0,0.0,90.0,2.0,64.0
470,74.0,76.0,180.0,2.0,64.0
471,66.0,0.0,180.0,2.0,64.0
472,64.0,160.0,180.0,2.0,64.0
473,73.0,0.0,180.0,2.0,64.0
474,40.0,84.0,90.0,2.0,64.0
475,62.0,32.0,180.0,2.0,64.0
476,71.0,0.0,180.0,2.0,64.0
477,52.0,0.0,210.0,2.0,64.0
478,44.0,40.0,210.0,2.0,64.0
479,47.0,20.0,90.0,2.0,64.0
480,56.0,50.0,90.0,2.0,64.0
481,74.0,82.0,150.0,2.0,64.0
482,66.0,0.0,150.0,2.0,64.0
483,73.0,0.0,180.0,2.0,64.0
484,33.0,96.0,60.0,2.0,64.0
485,64.0,160.0,180.0,2.0,64.0
486,66.0,0.0,180.0,2.0,64.0
487,74.0,32.0,180.0,2.0,64.0
488,52.0,40.0,210.0,2.0,64.0
489,45.0,0.0,210.0,2.0,64.0
490,64.0,58.0,180.0,2.0,64.0
491,49.0,88.0,90.0,2.0,64.0
492,57.0,0.0,90.0,2.0,64.0
493,73.0,0.0,180.0,2.0,64.0
494,30.0,91.0,60.0,2.0,64.0
495,71.0,0.0,150.0,2.0,64.0
496,62.0,171.0,150.0,2.0,64.0
497,61.0,32.0,180.0,2.0,64.0
498,69.0,0.0,180.0,2.0,64.0
499,49.0,0.0,210.0,2.0,64.0
500,42.0,40.0,210.0,2.0,64.0
501,73.0,178.0,150.0,2.0,64.0
502,64.0,0.0,150.0,2.0,64.0
503,54.0,70.0,90.0,2.0,64.0
504,47.0,0.0,90.0,2.0,64.0
505,63.0,0.0,180.0,2.0,64.0
506,35.0,160.0,180.0,2.0,64.0
507,71.0,0.0,180.0,2.0,64.0
508,73.0,0.0,180.0,2.0,64.0
509,47.0,160.0,180.0,2.0,64.0
510,39.0,0.0,180.0,2.0,64.0
511,64.0,0.0,180.0,2.0,64.0
512,63.0,0.0,180.0,2.0,64.0
513,71.0,160.0,180.0,2.0,64.0
514,51.0,0.0,180.0,2.0,64.0
515,42.0,0.0,180.0,2.0,64.0
516,61.0,0.0,180.0,2.0,64.0
517,47.0,0.0,180.0,2.0,64.0
518,54.0,0.0,180.0,2.0,64.0
519,69.0,160.0,180.0,2.0,64.0
520,57.0,142.0,180.0,2.0,64.0
521,66.0,0.0,180.0,2.0,64.0
522,42.0,0.0,180.0,2.0,64.0
523,51.0,0.0,180.0,2.0,64.0
524,68.0,0.0,150.0,2.0,64.0
525,47.0,0.0,150.0,2.0,64.0
526,39.0,0.0,150.0,2.0,64.0
527,59.0,178.0,150.0,2.0,64.0
528,28.0,160.0,180.0,2.0,64.0
529,56.0,0.0,180.0,2.0,64.0
530,64.0,0.0,180.0,2.0,64.0
531,57.0,160.0,180.0,2.0,64.0
532,66.0,0.0,180.0,2.0,64.0
533,52.0,0.0,180.0,2.0,64.0
534,40.0,0.0,180.0,2.0,64.0
535,56.0,149.0,180.0,2.0,64.0
536,64.0,0.0,180.0,2.0,64.0
537,66.0,11.0,150.0,2.0,64.0
538,44.0,0.0,180.0,2.0,64.0
539,47.0,160.0,180.0,2.0,64.0
540,57.0,0.0,150.0,2.0,64.0
541,52.0,0.0,180.0,2.0,64.0
542,40.0,0.0,180.0,2.0,64.0
543,64.0,0.0,180.0,2.0,64.0
544,56.0,102.0,180.0,2.0,64.0
545,44.0,0.0,120.0,2.0,64.0
546,47.0,0.0,120.0,2.0,64.0
547,68.0,0.0,120.0,2.0,64.0
548,59.0,218.0,120.0,2.0,64.0
549,51.0,160.0,180.0,2.0,64.0
550,66.0,0.0,180.0,2.0,64.0
551,40.0,0.0,180.0,2.0,64.0
552,57.0,0.0,180.0,2.0,64.0
553,45.0,160.0,180.0,2.0,64.0
554,47.0,0.0,180.0,2.0,64.0
555,68.0,0.0,180.0,2.0,64.0
556,59.0,0.0,180.0,2.0,64.0
557,57.0,0.0,180.0,2.0,64.0
558,40.0,0.0,180.0,2.0,64.0
559,51.0,160.0,180.0,2.0,64.0
560,66.0,0.0,180.0,2.0,64.0
561,59.0,0.0,180.0,2.0,64.0
562,45.0,0.0,180.0,2.0,64.0
563,47.0,0.0,180.0,2.0,64.0
564,68.0,160.0,180.0,2.0,64.0
565,51.0,0.0,180.0,2.0,64.0
566,40.0,0.0,180.0,2.0,64.0
567,57.0,0.0,180.0,2.0,64.0
568,66.0,142.0,180.0,2.0,64.0
569,47.0,178.0,150.0,2.0,64.0
570,68.0,0.0,150.0,2.0,64.0
571,45.0,0.0,150.0,2.0,64.0
572,59.0,0.0,150.0,2.0,64.0
573,40.0,0.0,180.0,2.0,64.0
574,56.0,0.0,180.0,2.0,64.0
575,52.0,160.0,180.0,2.0,64.0
576,64.0,0.0,180.0,2.0,64.0
577,66.0,0.0,180.0,2.0,64.0
578,57.0,0.0,180.0,2.0,64.0
579,47.0,0.0,180.0,2.0,64.0
580,44.0,160.0,180.0,2.0,64.0
581,67.0,0.0,180.0,2.0,64.0
582,40.0,0.0,180.0,2.0,64.0
583,52.0,0.0,180.0,2.0,64.0
584,58.0,149.0,180.0,2.0,64.0
585,44.0,160.0,180.0,2.0,64.0
586,47.0,0.0,180.0,2.0,64.0
587,61.0,0.0,150.0,2.0,64.0
588,69.0,11.0,150.0,2.0,64.0
589,40.0,0.0,180.0,2.0,64.0
590,59.0,0.0,180.0,2.0,64.0
591,68.0,142.0,180.0,2.0,64.0
592,52.0,0.0,180.0,2.0,64.0
593,47.0,178.0,150.0,2.0,64.0
594,64.0,0.0,150.0,2.0,64.0
595,44.0,0.0,150.0,2.0,64.0
596,56.0,0.0,150.0,2.0,64.0
597,68.0,160.0,180.0,2.0,64.0
598,40.0,0.0,180.0,2.0,64.0
599,51.0,0.0,180.0,2.0,64.0
600,59.0,0.0,180.0,2.0,64.0
601,66.0,0.0,180.0,2.0,64.0
602,47.0,0.0,180.0,2.0,64.0
603,45.0,0.0,180.0,2.0,64.0
604,57.0,160.0,180.0,2.0,64.0
605,51.0,0.0,180.0,2.0,64.0
606,40.0,0.0,180.0,2.0,64.0
607,68.0,0.0,180.0,2.0,64.0
608,59.0,160.0,180.0,2.0,64.0
609,66.0,0.0,180.0,2.0,64.0
610,57.0,0.0,180.0,2.0,64.0
611,45.0,160.0,180.0,2.0,64.0
612,47.0,0.0,180.0,2.0,64.0
613,59.0,0.0,180.0,2.0,64.0
614,68.0,0.0,180.0,2.0,64.0
615,40.0,142.0,180.0,2.0,64.0
616,51.0,0.0,180.0,2.0,64.0
617,57.0,0.0,150.0,2.0,64.0
618,47.0,0.0,150.0,2.0,64.0
619,45.0,178.0,150.0,2.0,64.0
620,66.0,0.0,150.0,2.0,64.0
621,52.0,0.0,180.0,2.0,64.0
622,40.0,160.0,180.0,2.0,64.0
623,64.0,0.0,180.0,2.0,64.0
624,56.0,0.0,180.0,2.0,64.0
625,44.0,0.0,180.0,2.0,64.0
626,47.0,0.0,180.0,2.0,64.0
627,66.0,0.0,180.0,2.0,64.0
628,57.0,160.0,180.0,2.0,64.0
629,40.0,0.0,180.0,2.0,64.0
630,52.0,0.0,180.0,2.0,64.0
631,67.0,0.0,180.0,2.0,64.0
632,58.0,149.0,180.0,2.0,64.0
633,61.0,11.0,150.0,2.0,64.0
634,69.0,0.0,150.0,2.0,64.0
635,47.0,0.0,180.0,2.0,64.0
636,44.0,160.0,180.0,2.0,64.0
637,68.0,0.0,180.0,2.0,64.0
638,40.0,0.0,180.0,2.0,64.0
639,59.0,0.0,180.0,2.0,64.0
640,52.0,142.0,180.0,2.0,64.0
641,47.0,0.0,150.0,2.0,64.0
642,44.0,0.0,150.0,2.0,64.0
643,64.0,178.0,150.0,2.0,64.0
644,56.0,0.0,150.0,2.0,64.0
645,40.0,0.0,180.0,2.0,64.0
646,52.0,0.0,180.0,2.0,64.0
647,71.0,160.0,180.0,2.0,64.0
648,62.0,0.0,180.0,2.0,64.0
649,64.0,0.0,180.0,2.0,64.0
650,50.0,0.0,180.0,2.0,64.0
651,47.0,0.0,180.0,2.0,64.0
652,72.0,160.0,180.0,2.0,64.0
653,62.0,0.0,180.0,2.0,64.0
654,71.0,0.0,180.0,2.0,64.0
655,40.0,0.0,180.0,2.0,64.0
656,52.0,160.0,180.0,2.0,64.0
657,47.0,0.0,180.0,2.0,64.0
658,50.0,0.0,180.0,2.0,64.0
659,72.0,0.0,180.0,2.0,64.0
660,64.0,160.0,180.0,2.0,64.0
661,62.0,142.0,180.0,2.0,64.0
662,40.0,0.0,180.0,2.0,64.0
663,52.0,0.0,180.0,2.0,64.0
664,71.0,0.0,180.0,2.0,64.0
665,64.0,0.0,150.0,2.0,64.0
666,72.0,178.0,150.0,2.0,64.0
667,50.0,0.0,150.0,2.0,64.0
668,47.0,0.0,150.0,2.0,64.0
669,69.0,0.0,180.0,2.0,64.0
670,60.0,0.0,180.0,2.0,64.0
671,40.0,0.0,180.0,2.0,64.0
672,52.0,160.0,180.0,2.0,64.0
673,48.0,0.0,180.0,2.0,64.0
674,45.0,0.0,180.0,2.0,64.0
675,61.0,0.0,180.0,2.0,64.0
676,70.0,160.0,180.0,2.0,64.0
677,40.0,0.0,180.0,2.0,64.0
678,52.0,0.0,180.0,2.0,64.0
679,71.0,149.0,180.0,2.0,64.0
680,62.0,0.0,180.0,2.0,64.0
681,45.0,160.0,180.0,2.0,64.0
682,65.0,11.0,150.0,2.0,64.0
683,48.0,0.0,180.0,2.0,64.0
684,74.0,0.0,150.0,2.0,64.0
685,72.0,142.0,180.0,2.0,64.0
686,64.0,0.0,180.0,2.0,64.0
687,52.0,0.0,180.0,2.0,64.0
688,40.0,0.0,180.0,2.0,64.0
689,45.0,0.0,150.0,2.0,64.0
690,48.0,0.0,150.0,2.0,64.0
691,60.0,178.0,150.0,2.0,64.0
692,69.0,0.0,150.0,2.0,64.0
693,71.0,0.0,180.0,2.0,64.0
694,62.0,0.0,180.0,2.0,64.0
695,40.0,0.0,180.0,2.0,64.0
696,52.0,160.0,180.0,2.0,64.0
697,64.0,160.0,180.0,2.0,64.0
698,72.0,0.0,180.0,2.0,64.0
699,47.0,0.0,180.0,2.0,64.0
700,50.0,0.0,180.0,2.0,64.0
701,52.0,0.0,180.0,2.0,64.0
702,40.0,0.0,180.0,2.0,64.0
703,71.0,0.0,180.0,2.0,64.0
704,62.0,160.0,180.0,2.0,64.0
705,50.0,160.0,180.0,2.0,64.0
706,64.0,0.0,180.0,2.0,64.0
707,72.0,0.0,180.0,2.0,64.0
708,47.0,0.0,180.0,2.0,64.0
709,71.0,0.0,180.0,2.0,64.0
710,62.0,0.0,180.0,2.0,64.0
711,40.0,0.0,180.0,2.0,64.0
712,52.0,142.0,180.0,2.0,64.0
713,47.0,0.0,150.0,2.0,64.0
714,50.0,0.0,150.0,2.0,64.0
715,72.0,0.0,150.0,2.0,64.0
716,64.0,178.0,150.0,2.0,64.0
717,52.0,160.0,180.0,2.0,64.0
718,40.0,0.0,180.0,2.0,64.0
719,60.0,0.0,180.0,2.0,64.0
720,69.0,0.0,180.0,2.0,64.0
721,45.0,160.0,180.0,2.0,64.0
722,48.0,0.0,180.0,2.0,64.0
723,61.0,0.0,180.0,2.0,64.0
724,70.0,0.0,180.0,2.0,64.0
725,40.0,149.0,180.0,2.0,64.0
726,52.0,0.0,180.0,2.0,64.0
727,62.0,0.0,180.0,2.0,64.0
728,71.0,0.0,180.0,2.0,64.0
729,74.0,0.0,150.0,2.0,64.0
730,45.0,0.0,180.0,2.0,64.0
731,48.0,160.0,180.0,2.0,64.0
732,65.0,11.0,150.0,2.0,64.0
733,40.0,142.0,180.0,2.0,64.0
734,72.0,0.0,180.0,2.0,64.0
735,52.0,0.0,180.0,2.0,64.0
736,64.0,0.0,180.0,2.0,64.0
737,45.0,0.0,150.0,2.0,64.0
738,48.0,0.0,150.0,2.0,64.0
739,60.0,0.0,150.0,2.0,64.0
740,69.0,178.0,150.0,2.0,64.0
741,40.0,160.0,180.0,2.0,64.0
742,51.0,0.0,180.0,2.0,64.0
743,72.0,0.0,180.0,2.0,64.0
744,64.0,0.0,180.0,2.0,64.0
745,71.0,0.0,180.0,2.0,64.0
746,45.0,160.0,180.0,2.0,64.0
747,63.0,0.0,180.0,2.0,64.0
748,47.0,0.0,180.0,2.0,64.0
749,40.0,0.0,180.0,2.0,64.0
750,51.0,0.0,180.0,2.0,64.0
751,75.0,0.0,180.0,2.0,64.0
752,66.0,160.0,180.0,2.0,64.0
753,73.0,160.0,180.0,2.0,64.0
754,45.0,0.0,180.0,2.0,64.0
755,47.0,0.0,180.0,2.0,64.0
756,64.0,0.0,180.0,2.0,64.0
757,51.0,0.0,180.0,2.0,64.0
758,76.0,0.0,180.0,2.0,64.0
759,68.0,142.0,180.0,2.0,64.0
760,40.0,0.0,180.0,2.0,64.0
761,45.0,0.0,150.0,2.0,64.0
762,47.0,0.0,150.0,2.0,64.0
763,75.0,0.0,150.0,2.0,64.0
764,66.0,178.0,150.0,2.0,64.0
765,69.0,160.0,180.0,2.0,64.0
766,51.0,0.0,180.0,2.0,64.0
767,78.0,0.0,180.0,2.0,64.0
768,40.0,0.0,180.0,2.0,64.0
769,68.0,0.0,180.0,2.0,64.0
770,45.0,0.0,180.0,2.0,64.0
771,47.0,160.0,180.0,2.0,64.0
772,76.0,0.0,180.0,2.0,64.0
773,71.0,149.0,180.0,2.0,64.0
774,80.0,0.0,180.0,2.0,64.0
775,40.0,0.0,180.0,2.0,64.0
776,51.0,0.0,180.0,2.0,64.0
777,78.0,11.0,150.0,2.0,64.0
778,69.0,0.0,150.0,2.0,64.0
779,47.0,160.0,180.0,2.0,64.0
780,45.0,0.0,180.0,2.0,64.0
781,40.0,0.0,180.0,2.0,64.0
782,51.0,0.0,180.0,2.0,64.0
783,73.0,0.0,180.0,2.0,64.0
784,81.0,142.0,180.0,2.0,64.0
785,80.0,0.0,150.0,2.0,64.0
786,45.0,178.0,150.0,2.0,64.0
787,47.0,0.0,150.0,2.0,64.0
788,71.0,0.0,150.0,2.0,64.0
789,40.0,0.0,180.0,2.0,64.0
790,75.0,0.0,180.0,2.0,64.0
791,51.0,160.0,180.0,2.0,64.0
792,83.0,0.0,180.0,2.0,64.0
793,47.0,0.0,180.0,2.0,64.0
794,45.0,0.0,180.0,2.0,64.0
795,81.0,160.0,180.0,2.0,64.0
796,73.0,0.0,180.0,2.0,64.0
797,85.0,160.0,180.0,2.0,64.0
798,40.0,0.0,180.0,2.0,64.0
799,51.0,0.0,180.0,2.0,64.0
800,76.0,0.0,180.0,2.0,64.0
801,75.0,160.0,180.0,2.0,64.0
802,83.0,0.0,180.0,2.0,64.0
803,45.0,0.0,180.0,2.0,64.0
804,47.0,0.0,180.0,2.0,64.0
805,51.0,0.0,180.0,2.0,64.0
806,40.0,0.0,180.0,2.0,64.0
807,78.0,0.0,180.0,2.0,64.0
808,87.0,142.0,180.0,2.0,64.0
809,45.0,178.0,150.0,2.0,64.0
810,76.0,0.0,150.0,2.0,64.0
811,47.0,0.0,150.0,2.0,64.0
812,85.0,0.0,150.0,2.0,64.0
813,51.0,0.0,180.0,2.0,64.0
814,88.0,0.0,180.0,2.0,64.0
815,40.0,160.0,180.0,2.0,64.0
816,80.0,0.0,180.0,2.0,64.0
817,78.0,160.0,180.0,2.0,64.0
818,87.0,0.0,180.0,2.0,64.0
819,47.0,0.0,180.0,2.0,64.0
820,45.0,0.0,180.0,2.0,64.0
821,81.0,0.0,180.0,2.0,64.0
822,51.0,0.0,180.0,2.0,64.0
823,40.0,149.0,180.0,2.0,64.0
824,90.0,0.0,180.0,2.0,64.0
825,47.0,160.0,180.0,2.0,64.0
826,45.0,0.0,180.0,2.0,64.0
827,80.0,0.0,150.0,2.0,64.0
828,88.0,11.0,150.0,2.0,64.0
829,83.0,0.0,180.0,2.0,64.0
830,92.0,0.0,180.0,2.0,64.0
831,40.0,142.0,180.0,2.0,64.0
832,51.0,0.0,180.0,2.0,64.0
833,90.0,178.0,150.0,2.0,64.0
834,81.0,0.0,150.0,2.0,64.0
835,47.0,0.0,150.0,2.0,64.0
836,45.0,0.0,150.0,2.0,64.0
837,88.0,0.0,180.0,2.0,64.0
838,80.0,0.0,180.0,2.0,64.0
839,51.0,0.0,180.0,2.0,64.0
840,40.0,160.0,180.0,2.0,64.0
841,90.0,160.0,180.0,2.0,64.0
842,81.0,0.0,180.0,2.0,64.0
843,71.0,0.0,180.0,2.0,64.0
844,78.0,0.0,180.0,2.0,64.0
845,86.0,160.0,180.0,2.0,64.0
846,62.0,0.0,180.0,2.0,64.0
847,80.0,160.0,180.0,2.0,64.0
848,88.0,0.0,180.0,2.0,64.0
849,73.0,0.0,180.0,2.0,64.0
850,64.0,0.0,180.0,2.0,64.0
851,76.0,142.0,180.0,2.0,64.0
852,85.0,0.0,180.0,2.0,64.0
853,69.0,0.0,180.0,2.0,64.0
854,61.0,0.0,180.0,2.0,64.0
855,78.0,0.0,150.0,2.0,64.0
856,62.0,0.0,150.0,2.0,64.0
857,86.0,0.0,150.0,2.0,64.0
858,71.0,178.0,150.0,2.0,64.0
859,83.0,160.0,180.0,2.0,64.0
860,74.0,0.0,180.0,2.0,64.0
861,59.0,0.0,180.0,2.0,64.0
862,68.0,0.0,180.0,2.0,64.0
863,76.0,0.0,180.0,2.0,64.0
864,69.0,0.0,180.0,2.0,64.0
865,61.0,0.0,180.0,2.0,64.0
866,85.0,160.0,180.0,2.0,64.0
867,81.0,0.0,180.0,2.0,64.0
868,66.0,0.0,180.0,2.0,64.0
869,57.0,0.0,180.0,2.0,64.0
870,73.0,149.0,180.0,2.0,64.0
871,68.0,0.0,180.0,2.0,64.0
872,74.0,11.0,150.0,2.0,64.0
873,83.0,0.0,150.0,2.0,64.0
874,59.0,160.0,180.0,2.0,64.0
875,56.0,0.0,180.0,2.0,64.0
876,64.0,0.0,180.0,2.0,64.0
877,71.0,142.0,180.0,2.0,64.0
878,80.0,0.0,180.0,2.0,64.0
879,57.0,0.0,150.0,2.0,64.0
880,66.0,0.0,150.0,2.0,64.0
881,81.0,178.0,150.0,2.0,64.0
882,73.0,0.0,150.0,2.0,64.0
883,62.0,0.0,180.0,2.0,64.0
884,81.0,0.0,180.0,2.0,64.0
885,90.0,0.0,180.0,2.0,64.0
886,54.0,160.0,180.0,2.0,64.0
887,83.0,160.0,180.0,2.0,64.0
888,92.0,0.0,180.0,2.0,64.0
889,56.0,0.0,180.0,2.0,64.0
890,64.0,0.0,180.0,2.0,64.0
891,80.0,0.0,180.0,2.0,64.0
892,88.0,160.0,180.0,2.0,64.0
893,61.0,0.0,180.0,2.0,64.0
894,52.0,0.0,180.0,2.0,64.0
895,54.0,0.0,180.0,2.0,64.0
896,62.0,160.0,180.0,2.0,64.0
897,81.0,0.0,180.0,2.0,64.0
898,90.0,0.0,180.0,2.0,64.0
899,78.0,0.0,180.0,2.0,64.0
900,86.0,0.0,180.0,2.0,64.0
901,50.0,142.0,180.0,2.0,64.0
902,59.0,0.0,180.0,2.0,64.0
903,80.0,0.0,150.0,2.0,64.0
904,52.0,0.0,150.0,2.0,64.0
905,61.0,178.0,150.0,2.0,64.0
906,88.0,0.0,150.0,2.0,64.0
907,57.0,0.0,180.0,2.0,64.0
908,49.0,160.0,180.0,2.0,64.0
909,76.0,0.0,180.0,2.0,64.0
910,85.0,0.0,180.0,2.0,64.0
911,59.0,0.0,180.0,2.0,64.0
912,50.0,0.0,180.0,2.0,64.0
913,78.0,0.0,180.0,2.0,64.0
914,86.0,160.0,180.0,2.0,64.0
915,56.0,0.0,180.0,2.0,64.0
916,47.0,0.0,180.0,2.0,64.0
917,83.0,0.0,180.0,2.0,64.0
918,74.0,149.0,180.0,2.0,64.0
919,85.0,0.0,150.0,2.0,64.0
920,49.0,160.0,180.0,2.0,64.0
921,57.0,0.0,180.0,2.0,64.0
922,76.0,11.0,150.0,2.0,64.0
923,73.0,0.0,180.0,2.0,64.0
924,45.0,0.0,180.0,2.0,64.0
925,54.0,142.0,180.0,2.0,64.0
926,81.0,0.0,180.0,2.0,64.0
927,49.0,0.0,150.0,2.0,64.0
928,57.0,0.0,150.0,2.0,64.0
929,76.0,178.0,150.0,2.0,64.0
930,85.0,0.0,150.0,2.0,64.0
931,28.0,0.0,180.0,2.0,64.0
932,71.0,0.0,180.0,2.0,64.0
933,62.0,160.0,180.0,2.0,64.0
934,64.0,0.0,180.0,2.0,64.0
935,73.0,160.0,180.0,2.0,64.0
936,44.0,0.0,180.0,2.0,64.0
937,52.0,0.0,180.0,2.0,64.0
938,56.0,160.0,180.0,2.0,64.0
939,47.0,0.0,180.0,2.0,64.0
940,62.0,0.0,180.0,2.0,64.0
941,71.0,0.0,180.0,2.0,64.0
942,73.0,0.0,180.0,2.0,64.0
943,59.0,0.0,180.0,2.0,64.0
944,52.0,160.0,180.0,2.0,64.0
945,64.0,0.0,180.0,2.0,64.0
946,71.0,0.0,180.0,2.0,64.0
947,62.0,0.0,180.0,2.0,64.0
948,47.0,0.0,180.0,2.0,64.0
949,56.0,142.0,180.0,2.0,64.0
950,44.0,0.0,150.0,2.0,64.0
951,52.0,0.0,150.0,2.0,64.0
952,64.0,0.0,150.0,2.0,64.0
953,73.0,178.0,150.0,2.0,64.0
954,61.0,160.0,180.0,2.0,64.0
955,69.0,0.0,180.0,2.0,64.0
956,33.0,0.0,180.0,2.0,64.0
957,52.0,0.0,180.0,2.0,64.0
958,45.0,160.0,180.0,2.0,64.0
959,62.0,0.0,180.0,2.0,64.0
960,71.0,0.0,180.0,2.0,64.0
961,63.0,0.0,180.0,2.0,64.0
962,72.0,0.0,180.0,2.0,64.0
963,49.0,0.0,180.0,2.0,64.0
964,57.0,149.0,180.0,2.0,64.0
965,52.0,160.0,180.0,2.0,64.0
966,45.0,0.0,180.0,2.0,64.0
967,74.0,0.0,150.0,2.0,64.0
968,66.0,11.0,150.0,2.0,64.0
969,49.0,0.0,180.0,2.0,64.0
970,57.0,0.0,180.0,2.0,64.0
971,73.0,142.0,180.0,2.0,64.0
972,64.0,0.0,180.0,2.0,64.0
973,61.0,178.0,150.0,2.0,64.0
974,69.0,0.0,150.0,2.0,64.0
975,45.0,0.0,150.0,2.0,64.0
976,52.0,0.0,150.0,2.0,64.0
977,28.0,160.0,180.0,2.0,64.0
978,64.0,0.0,180.0,2.0,64.0
979,73.0,0.0,180.0,2.0,64.0
980,44.0,160.0,180.0,2.0,64.0
981,52.0,0.0,180.0,2.0,64.0
982,71.0,0.0,180.0,2.0,64.0
983,62.0,0.0,180.0,2.0,64.0
984,64.0,0.0,180.0,2.0,64.0
985,56.0,0.0,180.0,2.0,64.0
986,47.0,0.0,180.0,2.0,64.0
987,73.0,160.0,180.0,2.0,64.0
988,71.0,0.0,180.0,2.0,64.0
989,59.0,0.0,180.0,2.0,64.0
990,62.0,0.0,180.0,2.0,64.0
991,52.0,160.0,180.0,2.0,64.0
992,47.0,0.0,180.0,2.0,64.0
993,56.0,0.0,180.0,2.0,64.0
994,73.0,0.0,180.0,2.0,64.0
995,64.0,142.0,180.0,2.0,64.0
996,62.0,0.0,150.0,2.0,64.0
997,52.0,0.0,150.0,2.0,64.0
998,44.0,0.0,150.0,2.0,64.0
999,71.0,178.0,150.0,2.0,64.0
1000,33.0,0.0,180.0,2.0,64.0
1001,69.0,160.0,180.0,2.0,64.0
1002,61.0,0.0,180.0,2.0,64.0
1003,71.0,0.0,180.0,2.0,64.0
1004,45.0,149.0,180.0,2.0,64.0
1005,52.0,0.0,180.0,2.0,64.0
1006,62.0,0.0,180.0,2.0,64.0
1007,63.0,0.0,150.0,2.0,64.0
1008,72.0,11.0,150.0,2.0,64.0
1009,49.0,160.0,180.0,2.0,64.0
1010,57.0,0.0,180.0,2.0,64.0
1011,52.0,0.0,180.0,2.0,64.0
1012,45.0,0.0,180.0,2.0,64.0
1013,74.0,160.0,180.0,2.0,64.0
1014,66.0,0.0,180.0,2.0,64.0
1015,73.0,0.0,180.0,2.0,64.0
1016,64.0,142.0,180.0,2.0,64.0
1017,57.0,0.0,180.0,2.0,64.0
1018,49.0,0.0,180.0,2.0,64.0
1019,52.0,0.0,150.0,2.0,64.0
1020,45.0,0.0,150.0,2.0,64.0
1021,69.0,0.0,150.0,2.0,64.0
1022,61.0,178.0,150.0,2.0,64.0
1023,64.0,0.0,180.0,2.0,64.0
1024,73.0,0.0,180.0,2.0,64.0
1025,42.0,160.0,180.0,2.0,64.0
1026,49.0,0.0,180.0,2.0,64.0
1027,66.0,0.0,180.0,2.0,64.0
1028,74.0,0.0,180.0,2.0,64.0
1029,54.0,160.0,180.0,2.0,64.0
1030,73.0,0.0,180.0,2.0,64.0
1031,57.0,0.0,180.0,2.0,64.0
1032,52.0,0.0,180.0,2.0,64.0
1033,64.0,160.0,180.0,2.0,64.0
1034,74.0,160.0,180.0,2.0,64.0
1035,54.0,0.0,180.0,2.0,64.0
1036,61.0,0.0,180.0,2.0,64.0
1037,66.0,0.0,180.0,2.0,64.0
1038,52.0,107.0,180.0,2.0,64.0
1039,57.0,0.0,180.0,2.0,64.0
1040,73.0,0.0,180.0,2.0,64.0
1041,64.0,0.0,180.0,2.0,64.0
1042,49.0,0.0,120.0,2.0,64.0
1043,66.0,76.0,150.0,2.0,64.0
1044,74.0,0.0,150.0,2.0,64.0
1045,54.0,35.0,120.0,2.0,64.0
1046,62.0,0.0,180.0,2.0,64.0
1047,71.0,160.0,180.0,2.0,64.0
1048,47.0,102.0,60.0,2.0,64.0
1049,64.0,0.0,180.0,2.0,64.0
1050,73.0,52.0,180.0,2.0,64.0
1051,54.0,60.0,210.0,2.0,64.0
1052,50.0,48.0,120.0,2.0,64.0
1053,59.0,0.0,120.0,2.0,64.0
1054,66.0,0.0,180.0,2.0,64.0
1055,74.0,58.0,180.0,2.0,64.0
1056,67.0,0.0,150.0,2.0,64.0
1057,45.0,91.0,60.0,2.0,64.0
1058,76.0,171.0,150.0,2.0,64.0
1059,57.0,80.0,210.0,2.0,64.0
1060,69.0,0.0,180.0,2.0,64.0
1061,78.0,32.0,180.0,2.0,64.0
1062,76.0,82.0,150.0,2.0,64.0
1063,52.0,0.0,120.0,2.0,64.0
1064,61.0,30.0,120.0,2.0,64.0
1065,67.0,0.0,150.0,2.0,64.0
1066,66.0,160.0,180.0,2.0,64.0
1067,50.0,96.0,60.0,2.0,64.0
1068,74.0,0.0,180.0,2.0,64.0
1069,57.0,80.0,210.0,2.0,64.0
1070,67.0,32.0,180.0,2.0,64.0
1071,76.0,0.0,180.0,2.0,64.0
1072,78.0,52.0,180.0,2.0,64.0
1073,54.0,48.0,120.0,2.0,64.0
1074,62.0,0.0,120.0,2.0,64.0
1075,69.0,0.0,180.0,2.0,64.0
1076,80.0,0.0,180.0,2.0,64.0
1077,71.0,160.0,180.0,2.0,64.0
1078,49.0,108.0,60.0,2.0,64.0
1079,61.0,80.0,210.0,2.0,64.0
1080,73.0,0.0,180.0,2.0,64.0
1081,81.0,32.0,180.0,2.0,64.0
1082,71.0,0.0,150.0,2.0,64.0
1083,65.0,30.0,120.0,2.0,64.0
1084,56.0,0.0,120.0,2.0,64.0
1085,80.0,70.0,150.0,2.0,64.0
1086,78.0,160.0,180.0,2.0,64.0
1087,54.0,108.0,60.0,2.0,64.0
1088,69.0,0.0,180.0,2.0,64.0
1089,61.0,0.0,210.0,2.0,64.0
1090,80.0,0.0,180.0,2.0,64.0
1091,71.0,32.0,180.0,2.0,64.0
1092,66.0,0.0,120.0,2.0,64.0
1093,57.0,48.0,120.0,2.0,64.0
1094,73.0,0.0,180.0,2.0,64.0
1095,81.0,149.0,180.0,2.0,64.0
1096,53.0,168.0,150.0,2.0,64.0
1097,83.0,3.0,150.0,2.0,64.0
1098,75.0,0.0,150.0,2.0,64.0
1099,76.0,72.0,180.0,2.0,64.0
1100,85.0,0.0,180.0,2.0,64.0
1101,59.0,40.0,240.0,2.0,64.0
1102,63.0,30.0,120.0,2.0,64.0
1103,57.0,0.0,120.0,2.0,64.0
1104,75.0,0.0,150.0,2.0,64.0
1105,83.0,178.0,150.0,2.0,64.0
1106,85.0,160.0,180.0,2.0,64.0
1107,76.0,0.0,180.0,2.0,64.0
1108,69.0,8.0,480.0,2.0,58.0
1109,57.0,0.0,480.0,2.0,58.0
1110,75.0,152.0,180.0,2.0,64.0
1111,83.0,0.0,180.0,2.0,64.0
1112,76.0,0.0,180.0,2.0,64.0
1113,85.0,160.0,180.0,2.0,64.0
1114,75.0,0.0,180.0,2.0,64.0
1115,83.0,160.0,180.0,2.0,64.0
1116,76.0,152.0,180.0,2.0,64.0
1117,85.0,0.0,180.0,2.0,64.0
1118,83.0,128.0,210.0,2.0,64.0
1119,75.0,40.0,150.0,2.0,64.0
1120,76.0,0.0,180.0,2.0,64.0
1121,85.0,160.0,180.0,2.0,64.0
1122,75.0,160.0,180.0,2.0,64.0
1123,83.0,0.0,180.0,2.0,64.0
1124,76.0,0.0,180.0,2.0,64.0
1125,85.0,149.0,180.0,2.0,64.0
1126,29.0,0.0,510.0,2.0,58.0
1127,83.0,171.0,150.0,2.0,64.0
1128,75.0,0.0,150.0,2.0,64.0
1129,41.0,160.0,510.0,2.0,58.0
1130,76.0,142.0,180.0,2.0,64.0
1131,85.0,0.0,180.0,2.0,64.0
1132,75.0,50.0,150.0,2.0,64.0
1133,83.0,0.0,150.0,2.0,64.0
1134,28.0,0.0,450.0,2.0,58.0
1135,85.0,160.0,210.0,2.0,64.0
1136,76.0,0.0,210.0,2.0,64.0
1137,40.0,48.0,450.0,2.0,58.0
1138,74.0,0.0,210.0,2.0,64.0
1139,83.0,80.0,210.0,2.0,64.0
1140,85.0,32.0,180.0,2.0,64.0
1141,76.0,131.0,210.0,2.0,64.0
1142,83.0,128.0,210.0,2.0,64.0
1143,74.0,0.0,210.0,2.0,64.0
1144,62.0,0.0,180.0,2.0,58.0
1145,66.0,29.0,180.0,2.0,58.0
1146,85.0,3.0,180.0,2.0,64.0
1147,76.0,120.0,210.0,2.0,64.0
1148,64.0,29.0,180.0,2.0,58.0
1149,56.0,0.0,180.0,2.0,58.0
1150,62.0,29.0,180.0,2.0,58.0
1151,74.0,11.0,150.0,2.0,64.0
1152,83.0,128.0,210.0,2.0,64.0
1153,66.0,0.0,180.0,2.0,58.0
1154,76.0,128.0,210.0,2.0,64.0
1155,56.0,0.0,180.0,2.0,58.0
1156,64.0,29.0,180.0,2.0,58.0
1157,85.0,3.0,180.0,2.0,64.0
1158,74.0,131.0,210.0,2.0,64.0
1159,62.0,29.0,180.0,2.0,58.0
1160,66.0,0.0,180.0,2.0,58.0
1161,83.0,3.0,180.0,2.0,64.0
1162,85.0,0.0,210.0,2.0,64.0
1163,76.0,131.0,210.0,2.0,64.0
1164,64.0,29.0,180.0,2.0,58.0
1165,56.0,0.0,180.0,2.0,58.0
1166,66.0,29.0,180.0,2.0,58.0
1167,62.0,0.0,180.0,2.0,58.0
1168,74.0,0.0,210.0,2.0,64.0
1169,83.0,131.0,210.0,2.0,64.0
1170,56.0,0.0,180.0,2.0,58.0
1171,64.0,29.0,180.0,2.0,58.0
1172,76.0,0.0,210.0,2.0,64.0
1173,85.0,131.0,210.0,2.0,64.0
1174,68.0,160.0,180.0,2.0,58.0
1175,83.0,0.0,360.0,2.0,64.0
1176,74.0,160.0,360.0,2.0,64.0
1177,59.0,0.0,180.0,2.0,58.0
1178,62.0,29.0,180.0,2.0,58.0
1179,71.0,0.0,180.0,2.0,58.0
1180,86.0,160.0,210.0,2.0,64.0
1181,78.0,0.0,210.0,2.0,64.0
1182,85.0,131.0,210.0,2.0,64.0
1183,76.0,0.0,210.0,2.0,64.0
1184,74.0,131.0,210.0,2.0,64.0
1185,83.0,0.0,210.0,2.0,64.0
1186,40.0,29.0,180.0,2.0,58.0
1187,81.0,131.0,210.0,2.0,64.0
1188,73.0,0.0,210.0,2.0,64.0
1189,44.0,29.0,180.0,2.0,58.0
1190,52.0,0.0,180.0,2.0,58.0
1191,78.0,0.0,210.0,2.0,64.0
1192,47.0,29.0,180.0,2.0,58.0
1193,56.0,0.0,180.0,2.0,58.0
1194,71.0,131.0,210.0,2.0,64.0
1195,62.0,0.0,180.0,2.0,58.0
1196,68.0,0.0,210.0,2.0,64.0
1197,76.0,160.0,210.0,2.0,64.0
1198,50.0,29.0,180.0,2.0,58.0
1199,71.0,0.0,210.0,2.0,64.0
1200,80.0,160.0,210.0,2.0,64.0
1201,78.0,160.0,210.0,2.0,64.0
1202,69.0,0.0,210.0,2.0,64.0
1203,76.0,160.0,210.0,2.0,64.0
1204,68.0,0.0,210.0,2.0,64.0
1205,74.0,0.0,210.0,2.0,64.0
1206,66.0,110.0,210.0,2.0,64.0
1207,71.0,0.0,150.0,2.0,64.0
1208,64.0,178.0,150.0,2.0,64.0
1209,33.0,72.0,180.0,2.0,64.0
1210,61.0,0.0,240.0,2.0,58.0
1211,69.0,88.0,240.0,2.0,58.0
1212,62.0,160.0,180.0,2.0,64.0
1213,52.0,0.0,180.0,2.0,64.0
1214,64.0,0.0,180.0,2.0,64.0
1215,81.0,128.0,210.0,2.0,64.0
1216,57.0,32.0,180.0,2.0,64.0
1217,73.0,0.0,210.0,2.0,64.0
1218,83.0,128.0,210.0,2.0,64.0
1219,69.0,0.0,180.0,2.0,64.0
1220,61.0,32.0,180.0,2.0,64.0
1221,74.0,0.0,210.0,2.0,64.0
1222,81.0,110.0,210.0,2.0,64.0
1223,57.0,32.0,180.0,2.0,64.0
1224,73.0,0.0,210.0,2.0,64.0
1225,64.0,0.0,180.0,2.0,64.0
1226,52.0,0.0,150.0,2.0,64.0
1227,61.0,50.0,150.0,2.0,64.0
1228,78.0,128.0,210.0,2.0,64.0
1229,69.0,0.0,210.0,2.0,64.0
1230,45.0,32.0,180.0,2.0,64.0
1231,71.0,128.0,210.0,2.0,64.0
1232,79.0,0.0,210.0,2.0,64.0
1233,73.0,0.0,210.0,2.0,64.0
1234,52.0,32.0,180.0,2.0,64.0
1235,61.0,0.0,180.0,2.0,64.0
1236,81.0,128.0,210.0,2.0,64.0
1237,79.0,128.0,210.0,2.0,64.0
1238,57.0,0.0,180.0,2.0,64.0
1239,64.0,32.0,180.0,2.0,64.0
1240,71.0,0.0,210.0,2.0,64.0
1241,69.0,0.0,180.0,2.0,64.0
1242,73.0,128.0,210.0,2.0,64.0
1243,81.0,0.0,210.0,2.0,64.0
1244,61.0,32.0,180.0,2.0,64.0
1245,79.0,110.0,210.0,2.0,64.0
1246,64.0,0.0,180.0,2.0,64.0
1247,71.0,0.0,210.0,2.0,64.0
1248,57.0,32.0,180.0,2.0,64.0
1249,73.0,178.0,150.0,2.0,64.0
1250,61.0,0.0,150.0,2.0,64.0
1251,52.0,0.0,150.0,2.0,64.0
1252,81.0,0.0,150.0,2.0,64.0
1253,33.0,0.0,180.0,2.0,64.0
1254,71.0,0.0,180.0,2.0,64.0
1255,79.0,160.0,180.0,2.0,64.0
1256,57.0,0.0,180.0,2.0,64.0
1257,73.0,160.0,180.0,2.0,64.0
1258,81.0,0.0,180.0,2.0,64.0
1259,49.0,0.0,180.0,2.0,64.0
1260,71.0,0.0,180.0,2.0,64.0
1261,61.0,0.0,180.0,2.0,64.0
1262,79.0,0.0,180.0,2.0,64.0
1263,52.0,160.0,180.0,2.0,64.0
1264,81.0,160.0,180.0,2.0,64.0
1265,73.0,0.0,180.0,2.0,64.0
1266,57.0,0.0,180.0,2.0,64.0
1267,64.0,0.0,180.0,2.0,64.0
1268,61.0,0.0,180.0,2.0,64.0
1269,52.0,0.0,180.0,2.0,64.0
1270,71.0,72.0,180.0,2.0,64.0
1271,79.0,0.0,180.0,2.0,64.0
1272,76.0,90.0,150.0,2.0,64.0
1273,57.0,0.0,150.0,2.0,64.0
1274,49.0,70.0,90.0,2.0,64.0
1275,67.0,0.0,150.0,2.0,64.0
1276,69.0,0.0,180.0,2.0,64.0
1277,38.0,88.0,90.0,2.0,64.0
1278,78.0,160.0,180.0,2.0,64.0
1279,50.0,80.0,210.0,2.0,64.0
1280,66.0,0.0,180.0,2.0,64.0
1281,74.0,32.0,180.0,2.0,64.0
1282,57.0,0.0,210.0,2.0,64.0
1283,62.0,37.0,120.0,2.0,64.0
1284,78.0,0.0,150.0,2.0,64.0
1285,69.0,83.0,150.0,2.0,64.0
1286,54.0,0.0,120.0,2.0,64.0
1287,67.0,160.0,180.0,2.0,64.0
1288,40.0,88.0,90.0,2.0,64.0
1289,76.0,0.0,180.0,2.0,64.0
1290,62.0,32.0,180.0,2.0,64.0
1291,71.0,0.0,180.0,2.0,64.0
1292,52.0,80.0,210.0,2.0,64.0
1293,44.0,0.0,210.0,2.0,64.0
1294,56.0,30.0,120.0,2.0,64.0
1295,47.0,0.0,120.0,2.0,64.0
1296,73.0,0.0,150.0,2.0,64.0
1297,64.0,178.0,150.0,2.0,64.0
1298,33.0,32.0,180.0,2.0,64.0
1299,61.0,128.0,210.0,2.0,64.0
1300,69.0,0.0,180.0,2.0,64.0
1301,50.0,0.0,180.0,2.0,64.0
1302,62.0,128.0,210.0,2.0,64.0
1303,71.0,32.0,180.0,2.0,64.0
1304,40.0,0.0,180.0,2.0,64.0
1305,45.0,0.0,180.0,2.0,64.0
1306,61.0,128.0,210.0,2.0,64.0
1307,69.0,32.0,180.0,2.0,64.0
1308,52.0,0.0,180.0,2.0,64.0
1309,57.0,0.0,180.0,2.0,64.0
1310,49.0,0.0,180.0,2.0,64.0
1311,71.0,32.0,180.0,2.0,64.0
1312,62.0,128.0,210.0,2.0,64.0
1313,45.0,0.0,180.0,2.0,64.0
1314,69.0,32.0,180.0,2.0,64.0
1315,52.0,0.0,180.0,2.0,64.0
1316,40.0,0.0,150.0,2.0,64.0
1317,61.0,110.0,40.0,2.0,64.0
1318,57.0,128.0,210.0,2.0,64.0
1319,66.0,0.0,210.0,2.0,64.0
1320,33.0,32.0,180.0,2.0,64.0
1321,59.0,0.0,210.0,2.0,64.0
1322,67.0,128.0,210.0,2.0,64.0
1323,40.0,0.0,180.0,2.0,64.0
1324,69.0,128.0,210.0,2.0,64.0
1325,61.0,0.0,210.0,2.0,64.0
1326,49.0,32.0,180.0,2.0,64.0
1327,52.0,0.0,180.0,2.0,64.0
1328,45.0,32.0,180.0,2.0,64.0
1329,67.0,0.0,210.0,2.0,64.0
1330,59.0,128.0,210.0,2.0,64.0
1331,61.0,128.0,210.0,2.0,64.0
1332,57.0,0.0,180.0,2.0,64.0
1333,49.0,32.0,180.0,2.0,64.0
1334,69.0,0.0,210.0,2.0,64.0
1335,52.0,0.0,180.0,2.0,64.0
1336,45.0,32.0,180.0,2.0,64.0
1337,67.0,110.0,210.0,2.0,64.0
1338,59.0,0.0,210.0,2.0,64.0
1339,40.0,0.0,150.0,2.0,64.0
1340,49.0,0.0,150.0,2.0,64.0
1341,61.0,0.0,150.0,2.0,64.0
1342,69.0,178.0,150.0,2.0,64.0
1343,67.0,0.0,210.0,2.0,64.0
1344,59.0,128.0,210.0,2.0,64.0
1345,33.0,32.0,180.0,2.0,64.0
1346,69.0,32.0,180.0,2.0,64.0
1347,45.0,0.0,180.0,2.0,64.0
1348,37.0,0.0,180.0,2.0,64.0
1349,61.0,128.0,210.0,2.0,64.0
1350,67.0,0.0,210.0,2.0,64.0
1351,59.0,128.0,210.0,2.0,64.0
1352,40.0,32.0,180.0,2.0,64.0
1353,49.0,0.0,180.0,2.0,64.0
1354,69.0,128.0,210.0,2.0,64.0
1355,45.0,32.0,180.0,2.0,64.0
1356,52.0,0.0,180.0,2.0,64.0
1357,61.0,0.0,210.0,2.0,64.0
1358,49.0,0.0,180.0,2.0,64.0
1359,40.0,32.0,180.0,2.0,64.0
1360,59.0,0.0,210.0,2.0,64.0
1361,67.0,110.0,210.0,2.0,64.0
1362,64.0,40.0,210.0,2.0,64.0
1363,45.0,50.0,150.0,2.0,64.0
1364,37.0,0.0,150.0,2.0,64.0
1365,55.0,0.0,210.0,2.0,64.0
1366,26.0,120.0,90.0,2.0,64.0
1367,57.0,160.0,210.0,2.0,64.0
1368,66.0,0.0,210.0,2.0,64.0
1369,54.0,0.0,210.0,2.0,64.0
1370,62.0,0.0,210.0,2.0,64.0
1371,45.0,40.0,210.0,2.0,64.0
1372,66.0,40.0,210.0,2.0,64.0
1373,57.0,0.0,210.0,2.0,64.0
1374,42.0,0.0,90.0,2.0,64.0
1375,50.0,120.0,90.0,2.0,64.0
1376,55.0,120.0,240.0,2.0,64.0
1377,28.0,120.0,90.0,2.0,64.0
1378,64.0,40.0,210.0,2.0,64.0
1379,40.0,0.0,210.0,2.0,64.0
1380,50.0,40.0,210.0,2.0,64.0
1381,59.0,0.0,210.0,2.0,64.0
1382,44.0,70.0,90.0,2.0,64.0
1383,52.0,0.0,150.0,2.0,64.0
1384,35.0,0.0,90.0,2.0,64.0
1385,61.0,210.0,150.0,2.0,64.0
1386,49.0,0.0,210.0,2.0,64.0
1387,45.0,40.0,480.0,2.0,58.0
1388,33.0,0.0,480.0,2.0,58.0
1389,57.0,160.0,210.0,2.0,64.0
1390,50.0,0.0,210.0,2.0,64.0
1391,58.0,120.0,210.0,2.0,64.0
1392,51.0,0.0,210.0,2.0,64.0
1393,59.0,160.0,210.0,2.0,64.0
1394,60.0,0.0,210.0,2.0,64.0
1395,52.0,160.0,210.0,2.0,64.0
1396,61.0,0.0,210.0,2.0,64.0
1397,53.0,160.0,210.0,2.0,64.0
1398,62.0,136.0,210.0,2.0,64.0
1399,54.0,0.0,210.0,2.0,64.0
1400,40.0,24.0,180.0,2.0,58.0
1401,52.0,0.0,180.0,2.0,58.0
1402,63.0,0.0,210.0,2.0,64.0
1403,55.0,136.0,210.0,2.0,64.0
1404,50.0,0.0,180.0,2.0,58.0
1405,47.0,24.0,180.0,2.0,58.0
1406,56.0,0.0,210.0,2.0,64.0
1407,64.0,136.0,210.0,2.0,64.0
1408,57.0,136.0,210.0,2.0,64.0
1409,52.0,24.0,180.0,2.0,58.0
1410,65.0,0.0,210.0,2.0,64.0
1411,40.0,0.0,180.0,2.0,58.0
1412,47.0,0.0,180.0,2.0,58.0
1413,50.0,24.0,180.0,2.0,58.0
1414,66.0,0.0,210.0,2.0,64.0
1415,58.0,136.0,210.0,2.0,64.0
1416,40.0,24.0,180.0,2.0,58.0
1417,52.0,0.0,180.0,2.0,58.0
1418,67.0,136.0,210.0,2.0,64.0
1419,59.0,0.0,210.0,2.0,64.0
1420,50.0,24.0,180.0,2.0,58.0
1421,47.0,0.0,180.0,2.0,58.0
1422,68.0,0.0,210.0,2.0,64.0
1423,60.0,136.0,210.0,2.0,64.0
1424,69.0,0.0,210.0,2.0,64.0
1425,40.0,0.0,180.0,2.0,58.0
1426,52.0,24.0,180.0,2.0,58.0
1427,61.0,136.0,210.0,2.0,64.0
1428,62.0,0.0,210.0,2.0,64.0
1429,47.0,24.0,180.0,2.0,58.0
1430,50.0,0.0,180.0,2.0,58.0
1431,70.0,136.0,210.0,2.0,64.0
1432,63.0,0.0,210.0,2.0,64.0
1433,71.0,136.0,210.0,2.0,64.0
1434,52.0,0.0,180.0,2.0,58.0
1435,40.0,24.0,180.0,2.0,58.0
1436,64.0,136.0,210.0,2.0,64.0
1437,50.0,24.0,180.0,2.0,58.0
1438,47.0,0.0,180.0,2.0,58.0
1439,72.0,0.0,210.0,2.0,64.0
1440,65.0,136.0,210.0,2.0,64.0
1441,73.0,0.0,210.0,2.0,64.0
1442,52.0,0.0,180.0,2.0,58.0
1443,40.0,24.0,180.0,2.0,58.0
1444,47.0,0.0,180.0,2.0,58.0
1445,50.0,24.0,180.0,2.0,58.0
1446,74.0,0.0,210.0,2.0,64.0
1447,66.0,136.0,210.0,2.0,64.0
1448,40.0,0.0,180.0,2.0,58.0
1449,52.0,24.0,180.0,2.0,58.0
1450,75.0,136.0,210.0,2.0,64.0
1451,67.0,0.0,210.0,2.0,64.0
1452,68.0,136.0,210.0,2.0,64.0
1453,47.0,0.0,180.0,2.0,58.0
1454,50.0,24.0,180.0,2.0,58.0
1455,76.0,0.0,210.0,2.0,64.0
1456,40.0,24.0,180.0,2.0,58.0
1457,77.0,0.0,210.0,2.0,64.0
1458,52.0,0.0,180.0,2.0,58.0
1459,69.0,136.0,210.0,2.0,64.0
1460,47.0,24.0,180.0,2.0,58.0
1461,50.0,0.0,180.0,2.0,58.0
1462,78.0,0.0,210.0,2.0,64.0
1463,70.0,136.0,210.0,2.0,64.0
1464,79.0,136.0,210.0,2.0,64.0
1465,52.0,24.0,180.0,2.0,58.0
1466,40.0,0.0,180.0,2.0,58.0
1467,71.0,0.0,210.0,2.0,64.0
1468,80.0,0.0,210.0,2.0,64.0
1469,47.0,24.0,180.0,2.0,58.0
1470,50.0,0.0,180.0,2.0,58.0
1471,72.0,136.0,210.0,2.0,64.0
1472,73.0,0.0,210.0,2.0,64.0
1473,81.0,136.0,210.0,2.0,64.0
1474,52.0,0.0,180.0,2.0,58.0
1475,40.0,24.0,180.0,2.0,58.0
1476,82.0,136.0,210.0,2.0,64.0
1477,47.0,24.0,180.0,2.0,58.0
1478,50.0,0.0,180.0,2.0,58.0
1479,74.0,0.0,210.0,2.0,64.0
1480,75.0,136.0,210.0,2.0,64.0
1481,52.0,24.0,180.0,2.0,58.0
1482,40.0,0.0,180.0,2.0,58.0
1483,83.0,0.0,210.0,2.0,64.0
1484,76.0,136.0,210.0,2.0,64.0
1485,84.0,0.0,210.0,2.0,64.0
1486,47.0,0.0,180.0,2.0,58.0
1487,50.0,24.0,180.0,2.0,58.0
1488,77.0,136.0,210.0,2.0,64.0
1489,40.0,0.0,180.0,2.0,58.0
1490,52.0,24.0,180.0,2.0,58.0
1491,85.0,0.0,210.0,2.0,64.0
1492,47.0,0.0,180.0,2.0,58.0
1493,50.0,24.0,180.0,2.0,58.0
1494,86.0,0.0,210.0,2.0,64.0
1495,78.0,136.0,210.0,2.0,64.0
1496,52.0,0.0,180.0,2.0,58.0
1497,40.0,24.0,180.0,2.0,58.0
1498,87.0,0.0,210.0,2.0,64.0
1499,79.0,136.0,210.0,2.0,64.0
1500,88.0,0.0,210.0,2.0,64.0
1501,80.0,136.0,210.0,2.0,64.0
1502,47.0,0.0,180.0,2.0,58.0
1503,50.0,24.0,180.0,2.0,58.0
1504,40.0,0.0,180.0,2.0,58.0
1505,52.0,24.0,180.0,2.0,58.0
1506,81.0,0.0,210.0,2.0,64.0
1507,89.0,136.0,210.0,2.0,64.0
1508,82.0,136.0,210.0,2.0,64.0
1509,47.0,0.0,180.0,2.0,58.0
1510,90.0,0.0,210.0,2.0,64.0
1511,50.0,24.0,180.0,2.0,58.0
1512,91.0,86.0,210.0,2.0,64.0
1513,83.0,0.0,210.0,2.0,64.0
1514,52.0,0.0,180.0,2.0,58.0
1515,40.0,24.0,180.0,2.0,58.0
1516,47.0,0.0,120.0,2.0,58.0
1517,50.0,74.0,120.0,2.0,58.0
1518,84.0,320.0,210.0,2.0,64.0
1519,92.0,0.0,210.0,2.0,64.0
1520,49.0,0.0,360.0,2.0,58.0
1521,45.0,0.0,360.0,2.0,58.0
1522,85.0,0.0,360.0,2.0,58.0
1523,93.0,0.0,360.0,2.0,58.0
1524,76.0,0.0,420.0,2.0,58.0
1525,62.0,0.0,420.0,2.0,58.0
1526,56.0,0.0,420.0,2.0,58.0
1527,71.0,0.0,420.0,2.0,58.0
1528,64.0,480.0,420.0,2.0,58.0
1529,64.0,0.0,420.0,2.0,58.0
1530,61.0,0.0,420.0,2.0,58.0
1531,57.0,0.0,420.0,2.0,58.0
1532,52.0,0.0,420.0,2.0,58.0
1533,45.0,480.0,420.0,2.0,58.0
1534,73.0,0.0,420.0,2.0,58.0
1535,69.0,0.0,420.0,2.0,58.0
1536,45.0,0.0,420.0,2.0,58.0
1537,62.0,0.0,420.0,2.0,58.0
1538,66.0,0.0,420.0,2.0,58.0
1539,57.0,1968.0,420.0,2.0,58.0
1540,54.0,0.0,420.0,2.0,58.0
1541,38.0,0.0,420.0,2.0,58.0
1542,50.0,0.0,420.0,2.0,58.0
1543,40.0,0.0,1920.0,2.0,58.0
1544,33.0,0.0,1920.0,2.0,58.0
1545,49.0,0.0,1920.0,2.0,58.0
1546,69.0,0.0,1920.0,2.0,58.0
1547,57.0,0.0,1920.0,2.0,58.0
1548,64.0,0.0,1920.0,2.0,58.0
