,note,step,duration,channel,velocity
0,41.0,0.0,30.0,0.0,0.0
1,65.0,2.0,30.0,0.0,0.0
2,60.0,28.0,20.0,0.0,0.0
3,56.0,1.0,20.0,0.0,0.0
4,66.0,30.0,30.0,0.0,0.0
5,67.0,30.0,30.0,0.0,0.0
6,68.0,21.0,30.0,0.0,0.0
7,60.0,0.0,30.0,0.0,0.0
8,65.0,0.0,30.0,0.0,0.0
9,53.0,7.0,15.0,0.0,0.0
10,48.0,1.0,20.0,0.0,0.0
11,56.0,1.0,30.0,0.0,0.0
12,69.0,30.0,30.0,0.0,0.0
13,70.0,30.0,30.0,0.0,0.0
14,71.0,30.0,30.0,0.0,0.0
15,72.0,24.0,30.0,0.0,0.0
16,41.0,1.0,20.0,0.0,0.0
17,70.0,2.0,30.0,0.0,0.0
18,65.0,3.0,20.0,0.0,0.0
19,73.0,30.0,30.0,0.0,0.0
20,74.0,30.0,30.0,0.0,0.0
21,75.0,30.0,30.0,0.0,0.0
22,76.0,24.0,30.0,0.0,0.0
23,53.0,0.0,20.0,0.0,0.0
24,58.0,1.0,30.0,0.0,0.0
25,73.0,4.0,20.0,0.0,0.0
26,70.0,1.0,20.0,0.0,0.0
27,49.0,29.0,30.0,0.0,0.0
28,77.0,1.0,30.0,0.0,0.0
29,78.0,30.0,30.0,0.0,0.0
30,79.0,30.0,30.0,0.0,0.0
31,80.0,23.0,30.0,0.0,0.0
32,41.0,3.0,20.0,0.0,0.0
33,77.0,30.0,30.0,0.0,0.0
34,29.0,1.0,20.0,0.0,0.0
35,72.0,3.0,20.0,0.0,0.0
36,81.0,0.0,30.0,0.0,0.0
37,82.0,30.0,30.0,0.0,0.0
38,83.0,30.0,30.0,0.0,0.0
39,84.0,21.0,30.0,0.0,0.0
40,48.0,1.0,20.0,0.0,0.0
41,53.0,5.0,15.0,0.0,0.0
42,56.0,1.0,30.0,0.0,0.0
43,80.0,28.0,30.0,0.0,0.0
44,77.0,3.0,20.0,0.0,0.0
45,85.0,1.0,30.0,0.0,0.0
46,84.0,30.0,30.0,0.0,0.0
47,83.0,30.0,30.0,0.0,0.0
48,82.0,20.0,30.0,0.0,0.0
49,56.0,2.0,20.0,0.0,0.0
50,72.0,1.0,20.0,0.0,0.0
51,53.0,3.0,20.0,0.0,0.0
52,77.0,2.0,30.0,0.0,0.0
53,60.0,2.0,15.0,0.0,0.0
54,81.0,30.0,30.0,0.0,0.0
55,80.0,30.0,30.0,0.0,0.0
56,79.0,30.0,30.0,0.0,0.0
57,78.0,22.0,30.0,0.0,0.0
58,68.0,1.0,15.0,0.0,0.0
59,72.0,7.0,20.0,0.0,0.0
60,77.0,30.0,30.0,0.0,0.0
61,76.0,30.0,30.0,0.0,0.0
62,79.0,30.0,30.0,0.0,0.0
63,77.0,19.0,30.0,0.0,0.0
64,76.0,30.0,30.0,0.0,0.0
65,72.0,1.0,20.0,0.0,0.0
66,67.0,0.0,20.0,0.0,0.0
67,36.0,10.0,15.0,0.0,0.0
68,75.0,30.0,30.0,0.0,0.0
69,74.0,30.0,30.0,0.0,0.0
70,73.0,28.0,30.0,0.0,0.0
71,48.0,27.0,30.0,0.0,0.0
72,55.0,0.0,30.0,0.0,0.0
73,72.0,2.0,30.0,0.0,0.0
74,58.0,1.0,20.0,0.0,0.0
75,67.0,1.0,30.0,0.0,0.0
76,64.0,1.0,20.0,0.0,0.0
77,71.0,30.0,30.0,0.0,0.0
78,73.0,30.0,30.0,0.0,0.0
79,72.0,24.0,30.0,0.0,0.0
80,41.0,6.0,20.0,0.0,0.0
81,71.0,30.0,30.0,0.0,0.0
82,65.0,0.0,20.0,0.0,0.0
83,68.0,0.0,20.0,0.0,0.0
84,70.0,30.0,30.0,0.0,0.0
85,69.0,30.0,30.0,0.0,0.0
86,68.0,24.0,30.0,0.0,0.0
87,60.0,3.0,20.0,0.0,0.0
88,48.0,29.0,30.0,0.0,0.0
89,56.0,3.0,20.0,0.0,0.0
90,53.0,0.0,20.0,0.0,0.0
91,65.0,0.0,20.0,0.0,0.0
92,67.0,1.0,30.0,0.0,0.0
93,68.0,30.0,30.0,0.0,0.0
94,70.0,30.0,30.0,0.0,0.0
95,68.0,27.0,30.0,0.0,0.0
96,55.0,1.0,20.0,0.0,0.0
97,64.0,1.0,30.0,0.0,0.0
98,48.0,1.0,20.0,0.0,0.0
99,67.0,30.0,30.0,0.0,0.0
100,60.0,0.0,20.0,0.0,0.0
101,68.0,30.0,30.0,0.0,0.0
102,67.0,30.0,30.0,0.0,0.0
103,68.0,27.0,30.0,0.0,0.0
104,59.0,3.0,20.0,0.0,0.0
105,55.0,24.0,150.0,0.0,0.0
106,49.0,11.0,120.0,0.0,0.0
107,67.0,30.0,30.0,0.0,0.0
108,65.0,0.0,20.0,0.0,0.0
109,68.0,30.0,30.0,0.0,0.0
110,67.0,30.0,30.0,0.0,0.0
111,68.0,16.0,30.0,0.0,0.0
112,48.0,6.0,30.0,0.0,0.0
113,67.0,0.0,30.0,0.0,0.0
114,60.0,0.0,20.0,0.0,0.0
115,64.0,3.0,20.0,0.0,0.0
116,72.0,30.0,30.0,0.0,0.0
117,71.0,30.0,30.0,0.0,0.0
118,70.0,30.0,30.0,0.0,0.0
119,64.0,0.0,30.0,0.0,0.0
120,69.0,1.0,30.0,0.0,0.0
121,58.0,29.0,30.0,0.0,0.0
122,68.0,30.0,30.0,0.0,0.0
123,67.0,30.0,30.0,0.0,0.0
124,66.0,23.0,30.0,0.0,0.0
125,65.0,30.0,30.0,0.0,0.0
126,41.0,2.0,20.0,0.0,0.0
127,60.0,0.0,20.0,0.0,0.0
128,56.0,5.0,20.0,0.0,0.0
129,66.0,30.0,30.0,0.0,0.0
130,67.0,30.0,30.0,0.0,0.0
131,68.0,23.0,30.0,0.0,0.0
132,69.0,3.0,30.0,0.0,0.0
133,60.0,1.0,15.0,0.0,0.0
134,65.0,0.0,20.0,0.0,0.0
135,56.0,0.0,20.0,0.0,0.0
136,48.0,27.0,30.0,0.0,0.0
137,53.0,6.0,15.0,0.0,0.0
138,70.0,30.0,30.0,0.0,0.0
139,71.0,30.0,30.0,0.0,0.0
140,72.0,20.0,30.0,0.0,0.0
141,65.0,2.0,15.0,0.0,0.0
142,41.0,5.0,20.0,0.0,0.0
143,73.0,30.0,30.0,0.0,0.0
144,70.0,3.0,15.0,0.0,0.0
145,74.0,30.0,30.0,0.0,0.0
146,75.0,30.0,30.0,0.0,0.0
147,76.0,22.0,30.0,0.0,0.0
148,53.0,5.0,20.0,0.0,0.0
149,49.0,0.0,30.0,0.0,0.0
150,58.0,2.0,20.0,0.0,0.0
151,70.0,1.0,20.0,0.0,0.0
152,73.0,0.0,20.0,0.0,0.0
153,77.0,30.0,30.0,0.0,0.0
154,78.0,30.0,30.0,0.0,0.0
155,79.0,30.0,30.0,0.0,0.0
156,80.0,21.0,30.0,0.0,0.0
157,41.0,1.0,20.0,0.0,0.0
158,29.0,1.0,15.0,0.0,0.0
159,72.0,4.0,20.0,0.0,0.0
160,77.0,3.0,20.0,0.0,0.0
161,81.0,30.0,30.0,0.0,0.0
162,82.0,30.0,30.0,0.0,0.0
163,83.0,30.0,30.0,0.0,0.0
164,84.0,28.0,30.0,0.0,0.0
165,48.0,24.0,30.0,0.0,0.0
166,80.0,1.0,30.0,0.0,0.0
167,56.0,0.0,30.0,0.0,0.0
168,53.0,0.0,30.0,0.0,0.0
169,77.0,1.0,20.0,0.0,0.0
170,85.0,6.0,30.0,0.0,0.0
171,84.0,30.0,30.0,0.0,0.0
172,83.0,30.0,30.0,0.0,0.0
173,82.0,25.0,30.0,0.0,0.0
174,60.0,0.0,20.0,0.0,0.0
175,53.0,3.0,20.0,0.0,0.0
176,56.0,0.0,20.0,0.0,0.0
177,81.0,30.0,30.0,0.0,0.0
178,77.0,2.0,20.0,0.0,0.0
179,72.0,0.0,20.0,0.0,0.0
180,80.0,30.0,30.0,0.0,0.0
181,79.0,30.0,30.0,0.0,0.0
182,78.0,24.0,30.0,0.0,0.0
183,72.0,3.0,20.0,0.0,0.0
184,68.0,3.0,20.0,0.0,0.0
185,77.0,30.0,30.0,0.0,0.0
186,76.0,30.0,30.0,0.0,0.0
187,79.0,30.0,30.0,0.0,0.0
188,77.0,25.0,30.0,0.0,0.0
189,75.0,30.0,30.0,0.0,0.0
190,43.0,2.0,20.0,0.0,0.0
191,72.0,2.0,20.0,0.0,0.0
192,67.0,1.0,20.0,0.0,0.0
193,76.0,30.0,30.0,0.0,0.0
194,77.0,30.0,30.0,0.0,0.0
195,78.0,23.0,30.0,0.0,0.0
196,72.0,4.0,20.0,0.0,0.0
197,75.0,1.0,20.0,0.0,0.0
198,79.0,0.0,30.0,0.0,0.0
199,63.0,30.0,30.0,0.0,0.0
200,55.0,0.0,20.0,0.0,0.0
201,60.0,2.0,15.0,0.0,0.0
202,80.0,30.0,30.0,0.0,0.0
203,79.0,30.0,30.0,0.0,0.0
204,78.0,21.0,30.0,0.0,0.0
205,74.0,1.0,20.0,0.0,0.0
206,71.0,8.0,20.0,0.0,0.0
207,43.0,0.0,15.0,0.0,0.0
208,77.0,30.0,30.0,0.0,0.0
209,76.0,30.0,30.0,0.0,0.0
210,75.0,30.0,30.0,0.0,0.0
211,74.0,23.0,30.0,0.0,0.0
212,65.0,4.0,20.0,0.0,0.0
213,71.0,2.0,20.0,0.0,0.0
214,55.0,28.0,30.0,0.0,0.0
215,67.0,0.0,30.0,0.0,0.0
216,62.0,1.0,30.0,0.0,0.0
217,73.0,2.0,30.0,0.0,0.0
218,74.0,30.0,30.0,0.0,0.0
219,75.0,30.0,30.0,0.0,0.0
220,74.0,28.0,30.0,0.0,0.0
221,72.0,22.0,30.0,0.0,0.0
222,67.0,0.0,20.0,0.0,0.0
223,64.0,2.0,20.0,0.0,0.0
224,48.0,28.0,60.0,0.0,0.0
225,60.0,8.0,60.0,0.0,0.0
226,73.0,2.0,30.0,0.0,0.0
227,71.0,30.0,30.0,0.0,0.0
228,72.0,25.0,30.0,0.0,0.0
229,65.0,5.0,20.0,0.0,0.0
230,36.0,25.0,90.0,0.0,0.0
231,61.0,29.0,30.0,0.0,0.0
232,48.0,5.0,90.0,0.0,0.0
233,70.0,1.0,30.0,0.0,0.0
234,72.0,30.0,30.0,0.0,0.0
235,69.0,0.0,30.0,0.0,0.0
236,70.0,28.0,30.0,0.0,0.0
237,68.0,30.0,30.0,0.0,0.0
238,60.0,1.0,20.0,0.0,0.0
239,65.0,1.0,20.0,0.0,0.0
240,70.0,30.0,30.0,0.0,0.0
241,67.0,30.0,30.0,0.0,0.0
242,68.0,28.0,30.0,0.0,0.0
243,67.0,30.0,30.0,0.0,0.0
244,36.0,25.0,60.0,0.0,0.0
245,64.0,1.0,20.0,0.0,0.0
246,48.0,4.0,60.0,0.0,0.0
247,58.0,1.0,20.0,0.0,0.0
248,68.0,1.0,30.0,0.0,0.0
249,66.0,30.0,30.0,0.0,0.0
250,67.0,22.0,30.0,0.0,0.0
251,41.0,2.0,20.0,0.0,0.0
252,65.0,30.0,30.0,0.0,0.0
253,56.0,2.0,15.0,0.0,0.0
254,60.0,4.0,20.0,0.0,0.0
255,66.0,30.0,30.0,0.0,0.0
256,67.0,30.0,30.0,0.0,0.0
257,68.0,21.0,30.0,0.0,0.0
258,53.0,1.0,15.0,0.0,0.0
259,56.0,27.0,30.0,0.0,0.0
260,48.0,0.0,30.0,0.0,0.0
261,60.0,4.0,15.0,0.0,0.0
262,69.0,3.0,30.0,0.0,0.0
263,65.0,4.0,20.0,0.0,0.0
264,70.0,30.0,30.0,0.0,0.0
265,71.0,30.0,30.0,0.0,0.0
266,72.0,21.0,30.0,0.0,0.0
267,41.0,5.0,20.0,0.0,0.0
268,70.0,1.0,20.0,0.0,0.0
269,73.0,30.0,30.0,0.0,0.0
270,65.0,3.0,15.0,0.0,0.0
271,74.0,30.0,30.0,0.0,0.0
272,75.0,30.0,30.0,0.0,0.0
273,76.0,17.0,30.0,0.0,0.0
274,73.0,7.0,15.0,0.0,0.0
275,70.0,4.0,15.0,0.0,0.0
276,58.0,27.0,30.0,0.0,0.0
277,53.0,0.0,20.0,0.0,0.0
278,49.0,2.0,20.0,0.0,0.0
279,77.0,3.0,30.0,0.0,0.0
280,78.0,30.0,30.0,0.0,0.0
281,79.0,30.0,30.0,0.0,0.0
282,80.0,21.0,30.0,0.0,0.0
283,41.0,1.0,30.0,0.0,0.0
284,29.0,1.0,20.0,0.0,0.0
285,77.0,4.0,20.0,0.0,0.0
286,72.0,3.0,20.0,0.0,0.0
287,81.0,30.0,30.0,0.0,0.0
288,82.0,30.0,30.0,0.0,0.0
289,83.0,30.0,30.0,0.0,0.0
290,84.0,21.0,30.0,0.0,0.0
291,48.0,2.0,30.0,0.0,0.0
292,77.0,2.0,20.0,0.0,0.0
293,80.0,2.0,15.0,0.0,0.0
294,56.0,25.0,30.0,0.0,0.0
295,85.0,3.0,30.0,0.0,0.0
296,53.0,5.0,20.0,0.0,0.0
297,84.0,30.0,30.0,0.0,0.0
298,83.0,30.0,30.0,0.0,0.0
299,82.0,21.0,30.0,0.0,0.0
300,56.0,1.0,20.0,0.0,0.0
301,53.0,2.0,20.0,0.0,0.0
302,60.0,2.0,20.0,0.0,0.0
303,77.0,2.0,15.0,0.0,0.0
304,72.0,2.0,20.0,0.0,0.0
305,81.0,30.0,30.0,0.0,0.0
306,80.0,30.0,30.0,0.0,0.0
307,79.0,30.0,30.0,0.0,0.0
308,78.0,23.0,30.0,0.0,0.0
309,72.0,5.0,20.0,0.0,0.0
310,77.0,30.0,30.0,0.0,0.0
311,68.0,2.0,20.0,0.0,0.0
312,76.0,30.0,30.0,0.0,0.0
313,79.0,30.0,30.0,0.0,0.0
314,77.0,23.0,30.0,0.0,0.0
315,67.0,2.0,20.0,0.0,0.0
316,72.0,1.0,20.0,0.0,0.0
317,76.0,30.0,30.0,0.0,0.0
318,36.0,4.0,20.0,0.0,0.0
319,75.0,30.0,30.0,0.0,0.0
320,74.0,30.0,30.0,0.0,0.0
321,73.0,27.0,30.0,0.0,0.0
322,72.0,1.0,30.0,0.0,0.0
323,58.0,1.0,30.0,0.0,0.0
324,55.0,0.0,30.0,0.0,0.0
325,48.0,26.0,30.0,0.0,0.0
326,67.0,2.0,30.0,0.0,0.0
327,64.0,3.0,20.0,0.0,0.0
328,71.0,30.0,30.0,0.0,0.0
329,73.0,30.0,30.0,0.0,0.0
330,72.0,24.0,30.0,0.0,0.0
331,41.0,3.0,20.0,0.0,0.0
332,71.0,30.0,30.0,0.0,0.0
333,68.0,0.0,20.0,0.0,0.0
334,65.0,3.0,20.0,0.0,0.0
335,70.0,30.0,30.0,0.0,0.0
336,69.0,30.0,30.0,0.0,0.0
337,68.0,24.0,30.0,0.0,0.0
338,60.0,3.0,20.0,0.0,0.0
339,65.0,2.0,20.0,0.0,0.0
340,48.0,29.0,30.0,0.0,0.0
341,53.0,1.0,20.0,0.0,0.0
342,56.0,0.0,30.0,0.0,0.0
343,67.0,1.0,30.0,0.0,0.0
344,68.0,30.0,30.0,0.0,0.0
345,70.0,30.0,30.0,0.0,0.0
346,68.0,24.0,30.0,0.0,0.0
347,55.0,5.0,30.0,0.0,0.0
348,48.0,22.0,30.0,0.0,0.0
349,60.0,2.0,20.0,0.0,0.0
350,64.0,4.0,20.0,0.0,0.0
351,67.0,3.0,30.0,0.0,0.0
352,68.0,30.0,30.0,0.0,0.0
353,67.0,30.0,30.0,0.0,0.0
354,68.0,23.0,30.0,0.0,0.0
355,55.0,29.0,150.0,0.0,0.0
356,49.0,17.0,120.0,0.0,0.0
357,59.0,1.0,20.0,0.0,0.0
358,65.0,6.0,20.0,0.0,0.0
359,67.0,30.0,30.0,0.0,0.0
360,68.0,30.0,30.0,0.0,0.0
361,67.0,30.0,30.0,0.0,0.0
362,68.0,9.0,30.0,0.0,0.0
363,48.0,2.0,30.0,0.0,0.0
364,67.0,1.0,30.0,0.0,0.0
365,64.0,2.0,20.0,0.0,0.0
366,60.0,0.0,20.0,0.0,0.0
367,72.0,30.0,30.0,0.0,0.0
368,71.0,30.0,30.0,0.0,0.0
369,70.0,25.0,30.0,0.0,0.0
370,69.0,30.0,30.0,0.0,0.0
371,58.0,1.0,20.0,0.0,0.0
372,64.0,4.0,20.0,0.0,0.0
373,68.0,30.0,30.0,0.0,0.0
374,67.0,30.0,30.0,0.0,0.0
375,66.0,22.0,30.0,0.0,0.0
376,41.0,4.0,20.0,0.0,0.0
377,65.0,30.0,30.0,0.0,0.0
378,56.0,2.0,15.0,0.0,0.0
379,60.0,2.0,20.0,0.0,0.0
380,66.0,30.0,30.0,0.0,0.0
381,67.0,30.0,30.0,0.0,0.0
382,68.0,21.0,30.0,0.0,0.0
383,69.0,0.0,30.0,0.0,0.0
384,48.0,1.0,30.0,0.0,0.0
385,56.0,26.0,30.0,0.0,0.0
386,53.0,3.0,20.0,0.0,0.0
387,65.0,6.0,15.0,0.0,0.0
388,60.0,3.0,15.0,0.0,0.0
389,70.0,30.0,30.0,0.0,0.0
390,71.0,30.0,30.0,0.0,0.0
391,72.0,21.0,30.0,0.0,0.0
392,41.0,3.0,20.0,0.0,0.0
393,70.0,5.0,20.0,0.0,0.0
394,65.0,1.0,15.0,0.0,0.0
395,73.0,30.0,30.0,0.0,0.0
396,74.0,30.0,30.0,0.0,0.0
397,75.0,30.0,30.0,0.0,0.0
398,76.0,20.0,30.0,0.0,0.0
399,49.0,0.0,30.0,0.0,0.0
400,58.0,27.0,30.0,0.0,0.0
401,53.0,4.0,20.0,0.0,0.0
402,73.0,2.0,20.0,0.0,0.0
403,70.0,4.0,15.0,0.0,0.0
404,77.0,3.0,30.0,0.0,0.0
405,78.0,30.0,30.0,0.0,0.0
406,79.0,30.0,30.0,0.0,0.0
407,80.0,22.0,30.0,0.0,0.0
408,72.0,5.0,20.0,0.0,0.0
409,77.0,3.0,20.0,0.0,0.0
410,41.0,27.0,30.0,0.0,0.0
411,29.0,2.0,30.0,0.0,0.0
412,81.0,1.0,30.0,0.0,0.0
413,82.0,30.0,30.0,0.0,0.0
414,83.0,30.0,30.0,0.0,0.0
415,84.0,22.0,30.0,0.0,0.0
416,80.0,3.0,20.0,0.0,0.0
417,77.0,1.0,20.0,0.0,0.0
418,53.0,2.0,20.0,0.0,0.0
419,48.0,1.0,20.0,0.0,0.0
420,56.0,1.0,20.0,0.0,0.0
421,85.0,30.0,30.0,0.0,0.0
422,84.0,30.0,30.0,0.0,0.0
423,83.0,30.0,30.0,0.0,0.0
424,82.0,23.0,30.0,0.0,0.0
425,72.0,2.0,20.0,0.0,0.0
426,60.0,2.0,20.0,0.0,0.0
427,56.0,1.0,20.0,0.0,0.0
428,53.0,1.0,20.0,0.0,0.0
429,81.0,30.0,30.0,0.0,0.0
430,77.0,1.0,20.0,0.0,0.0
431,80.0,30.0,30.0,0.0,0.0
432,79.0,30.0,30.0,0.0,0.0
433,78.0,24.0,30.0,0.0,0.0
434,77.0,30.0,30.0,0.0,0.0
435,72.0,2.0,20.0,0.0,0.0
436,68.0,4.0,20.0,0.0,0.0
437,76.0,30.0,30.0,0.0,0.0
438,79.0,30.0,30.0,0.0,0.0
439,77.0,26.0,30.0,0.0,0.0
440,78.0,30.0,30.0,0.0,0.0
441,70.0,2.0,20.0,0.0,0.0
442,73.0,1.0,20.0,0.0,0.0
443,34.0,1.0,20.0,0.0,0.0
444,46.0,0.0,20.0,0.0,0.0
445,79.0,30.0,30.0,0.0,0.0
446,80.0,30.0,30.0,0.0,0.0
447,81.0,19.0,30.0,0.0,0.0
448,82.0,4.0,30.0,0.0,0.0
449,54.0,0.0,20.0,0.0,0.0
450,58.0,25.0,30.0,0.0,0.0
451,46.0,1.0,30.0,0.0,0.0
452,73.0,4.0,15.0,0.0,0.0
453,78.0,3.0,15.0,0.0,0.0
454,49.0,4.0,20.0,0.0,0.0
455,83.0,30.0,30.0,0.0,0.0
456,84.0,30.0,30.0,0.0,0.0
457,85.0,28.0,30.0,0.0,0.0
458,36.0,1.0,20.0,0.0,0.0
459,48.0,28.0,30.0,0.0,0.0
460,84.0,2.0,30.0,0.0,0.0
461,76.0,0.0,20.0,0.0,0.0
462,82.0,1.0,20.0,0.0,0.0
463,85.0,30.0,30.0,0.0,0.0
464,86.0,30.0,30.0,0.0,0.0
465,87.0,25.0,30.0,0.0,0.0
466,48.0,25.0,30.0,0.0,0.0
467,55.0,1.0,30.0,0.0,0.0
468,58.0,0.0,30.0,0.0,0.0
469,88.0,5.0,30.0,0.0,0.0
470,82.0,4.0,20.0,0.0,0.0
471,89.0,30.0,30.0,0.0,0.0
472,90.0,30.0,30.0,0.0,0.0
473,91.0,22.0,30.0,0.0,0.0
474,37.0,2.0,20.0,0.0,0.0
475,49.0,1.0,20.0,0.0,0.0
476,89.0,30.0,30.0,0.0,0.0
477,85.0,3.0,20.0,0.0,0.0
478,80.0,2.0,15.0,0.0,0.0
479,88.0,30.0,30.0,0.0,0.0
480,87.0,30.0,30.0,0.0,0.0
481,86.0,25.0,30.0,0.0,0.0
482,53.0,29.0,30.0,0.0,0.0
483,61.0,0.0,20.0,0.0,0.0
484,85.0,1.0,30.0,0.0,0.0
485,80.0,3.0,20.0,0.0,0.0
486,56.0,2.0,20.0,0.0,0.0
487,77.0,0.0,20.0,0.0,0.0
488,84.0,30.0,30.0,0.0,0.0
489,83.0,30.0,30.0,0.0,0.0
490,82.0,23.0,30.0,0.0,0.0
491,32.0,2.0,20.0,0.0,0.0
492,44.0,3.0,20.0,0.0,0.0
493,77.0,1.0,20.0,0.0,0.0
494,72.0,1.0,20.0,0.0,0.0
495,81.0,30.0,30.0,0.0,0.0
496,80.0,30.0,30.0,0.0,0.0
497,79.0,30.0,30.0,0.0,0.0
498,78.0,22.0,30.0,0.0,0.0
499,72.0,6.0,20.0,0.0,0.0
500,48.0,25.0,30.0,0.0,0.0
501,53.0,4.0,30.0,0.0,0.0
502,68.0,2.0,20.0,0.0,0.0
503,60.0,0.0,30.0,0.0,0.0
504,77.0,1.0,30.0,0.0,0.0
505,76.0,30.0,30.0,0.0,0.0
506,75.0,30.0,30.0,0.0,0.0
507,74.0,24.0,30.0,0.0,0.0
508,73.0,30.0,30.0,0.0,0.0
509,34.0,2.0,20.0,0.0,0.0
510,66.0,1.0,20.0,0.0,0.0
511,70.0,3.0,20.0,0.0,0.0
512,72.0,30.0,30.0,0.0,0.0
513,71.0,30.0,30.0,0.0,0.0
514,70.0,30.0,30.0,0.0,0.0
515,69.0,2.0,30.0,0.0,0.0
516,61.0,27.0,30.0,0.0,0.0
517,66.0,1.0,30.0,0.0,0.0
518,54.0,25.0,120.0,0.0,0.0
519,58.0,1.0,120.0,0.0,0.0
520,49.0,6.0,120.0,0.0,0.0
521,46.0,0.0,120.0,0.0,0.0
522,70.0,30.0,30.0,0.0,0.0
523,73.0,23.0,30.0,0.0,0.0
524,70.0,0.0,30.0,0.0,0.0
525,53.0,2.0,90.0,0.0,0.0
526,56.0,2.0,90.0,0.0,0.0
527,67.0,30.0,30.0,0.0,0.0
528,48.0,26.0,90.0,0.0,0.0
529,65.0,5.0,20.0,0.0,0.0
530,60.0,0.0,90.0,0.0,0.0
531,68.0,30.0,30.0,0.0,0.0
532,72.0,0.0,30.0,0.0,0.0
533,68.0,30.0,30.0,0.0,0.0
534,64.0,1.0,30.0,0.0,0.0
535,48.0,27.0,90.0,0.0,0.0
536,66.0,1.0,30.0,0.0,0.0
537,58.0,28.0,30.0,0.0,0.0
538,67.0,30.0,30.0,0.0,0.0
539,72.0,3.0,30.0,0.0,0.0
540,67.0,25.0,30.0,0.0,0.0
541,53.0,19.0,90.0,0.0,0.0
542,41.0,6.0,90.0,0.0,0.0
543,65.0,30.0,30.0,0.0,0.0
544,60.0,1.0,20.0,0.0,0.0
545,56.0,4.0,20.0,0.0,0.0
546,66.0,30.0,30.0,0.0,0.0
547,67.0,5.0,30.0,0.0,0.0
548,68.0,23.0,30.0,0.0,0.0
549,69.0,30.0,30.0,0.0,0.0
550,64.0,0.0,20.0,0.0,0.0
551,60.0,7.0,15.0,0.0,0.0
552,48.0,0.0,90.0,0.0,0.0
553,36.0,8.0,90.0,0.0,0.0
554,70.0,22.0,30.0,0.0,0.0
555,71.0,30.0,30.0,0.0,0.0
556,72.0,22.0,30.0,0.0,0.0
557,41.0,3.0,90.0,0.0,0.0
558,29.0,1.0,90.0,0.0,0.0
559,77.0,30.0,30.0,0.0,0.0
560,68.0,6.0,20.0,0.0,0.0
561,65.0,2.0,15.0,0.0,0.0
562,76.0,26.0,30.0,0.0,0.0
563,75.0,30.0,30.0,0.0,0.0
564,74.0,30.0,30.0,0.0,0.0
565,73.0,30.0,30.0,0.0,0.0
566,72.0,30.0,30.0,0.0,0.0
567,71.0,30.0,30.0,0.0,0.0
568,70.0,25.0,30.0,0.0,0.0
569,32.0,2.0,20.0,0.0,0.0
570,44.0,3.0,20.0,0.0,0.0
571,69.0,1.0,30.0,0.0,0.0
572,66.0,0.0,20.0,0.0,0.0
573,60.0,29.0,30.0,0.0,0.0
574,68.0,30.0,30.0,0.0,0.0
575,67.0,30.0,30.0,0.0,0.0
576,68.0,30.0,30.0,0.0,0.0
577,66.0,1.0,30.0,0.0,0.0
578,60.0,0.0,30.0,0.0,0.0
579,69.0,1.0,30.0,0.0,0.0
580,51.0,1.0,30.0,0.0,0.0
581,44.0,1.0,30.0,0.0,0.0
582,56.0,26.0,30.0,0.0,0.0
583,70.0,30.0,30.0,0.0,0.0
584,71.0,30.0,30.0,0.0,0.0
585,72.0,24.0,30.0,0.0,0.0
586,37.0,3.0,20.0,0.0,0.0
587,65.0,3.0,20.0,0.0,0.0
588,73.0,30.0,30.0,0.0,0.0
589,74.0,30.0,30.0,0.0,0.0
590,75.0,30.0,30.0,0.0,0.0
591,76.0,24.0,30.0,0.0,0.0
592,68.0,3.0,20.0,0.0,0.0
593,53.0,1.0,30.0,0.0,0.0
594,44.0,29.0,30.0,0.0,0.0
595,77.0,1.0,30.0,0.0,0.0
596,56.0,2.0,20.0,0.0,0.0
597,72.0,30.0,30.0,0.0,0.0
598,73.0,30.0,30.0,0.0,0.0
599,70.0,27.0,30.0,0.0,0.0
600,32.0,0.0,20.0,0.0,0.0
601,66.0,3.0,20.0,0.0,0.0
602,69.0,30.0,30.0,0.0,0.0
603,68.0,30.0,30.0,0.0,0.0
604,67.0,30.0,30.0,0.0,0.0
605,68.0,30.0,30.0,0.0,0.0
606,51.0,0.0,30.0,0.0,0.0
607,56.0,25.0,30.0,0.0,0.0
608,44.0,2.0,30.0,0.0,0.0
609,69.0,1.0,30.0,0.0,0.0
610,66.0,2.0,30.0,0.0,0.0
611,60.0,0.0,20.0,0.0,0.0
612,70.0,30.0,30.0,0.0,0.0
613,71.0,30.0,30.0,0.0,0.0
614,72.0,29.0,30.0,0.0,0.0
615,64.0,29.0,30.0,0.0,0.0
616,33.0,1.0,30.0,0.0,0.0
617,73.0,1.0,30.0,0.0,0.0
618,61.0,0.0,20.0,0.0,0.0
619,74.0,30.0,30.0,0.0,0.0
620,75.0,30.0,30.0,0.0,0.0
621,76.0,28.0,30.0,0.0,0.0
622,67.0,1.0,30.0,0.0,0.0
623,75.0,30.0,30.0,0.0,0.0
624,52.0,0.0,20.0,0.0,0.0
625,45.0,1.0,20.0,0.0,0.0
626,55.0,0.0,20.0,0.0,0.0
627,74.0,30.0,30.0,0.0,0.0
628,73.0,30.0,30.0,0.0,0.0
629,72.0,23.0,30.0,0.0,0.0
630,68.0,5.0,20.0,0.0,0.0
631,71.0,30.0,30.0,0.0,0.0
632,34.0,2.0,20.0,0.0,0.0
633,70.0,30.0,30.0,0.0,0.0
634,69.0,30.0,30.0,0.0,0.0
635,70.0,24.0,30.0,0.0,0.0
636,56.0,2.0,20.0,0.0,0.0
637,68.0,0.0,30.0,0.0,0.0
638,53.0,3.0,20.0,0.0,0.0
639,71.0,1.0,30.0,0.0,0.0
640,62.0,29.0,30.0,0.0,0.0
641,46.0,1.0,20.0,0.0,0.0
642,72.0,30.0,30.0,0.0,0.0
643,73.0,30.0,30.0,0.0,0.0
644,74.0,25.0,30.0,0.0,0.0
645,66.0,2.0,20.0,0.0,0.0
646,39.0,3.0,20.0,0.0,0.0
647,75.0,30.0,30.0,0.0,0.0
648,76.0,30.0,30.0,0.0,0.0
649,77.0,30.0,30.0,0.0,0.0
650,78.0,25.0,30.0,0.0,0.0
651,70.0,1.0,20.0,0.0,0.0
652,54.0,26.0,30.0,0.0,0.0
653,51.0,2.0,20.0,0.0,0.0
654,46.0,2.0,20.0,0.0,0.0
655,77.0,4.0,30.0,0.0,0.0
656,74.0,30.0,30.0,0.0,0.0
657,75.0,30.0,30.0,0.0,0.0
658,71.0,24.0,30.0,0.0,0.0
659,34.0,5.0,20.0,0.0,0.0
660,70.0,30.0,30.0,0.0,0.0
661,68.0,1.0,20.0,0.0,0.0
662,71.0,30.0,30.0,0.0,0.0
663,69.0,30.0,30.0,0.0,0.0
664,70.0,24.0,30.0,0.0,0.0
665,71.0,1.0,30.0,0.0,0.0
666,68.0,29.0,30.0,0.0,0.0
667,62.0,3.0,20.0,0.0,0.0
668,56.0,0.0,20.0,0.0,0.0
669,53.0,1.0,20.0,0.0,0.0
670,46.0,2.0,20.0,0.0,0.0
671,72.0,30.0,30.0,0.0,0.0
672,73.0,30.0,30.0,0.0,0.0
673,74.0,24.0,30.0,0.0,0.0
674,66.0,2.0,20.0,0.0,0.0
675,63.0,3.0,20.0,0.0,0.0
676,75.0,30.0,30.0,0.0,0.0
677,35.0,1.0,20.0,0.0,0.0
678,76.0,30.0,30.0,0.0,0.0
679,77.0,30.0,30.0,0.0,0.0
680,78.0,22.0,30.0,0.0,0.0
681,57.0,28.0,30.0,0.0,0.0
682,47.0,3.0,20.0,0.0,0.0
683,54.0,1.0,20.0,0.0,0.0
684,69.0,4.0,20.0,0.0,0.0
685,77.0,2.0,30.0,0.0,0.0
686,76.0,30.0,30.0,0.0,0.0
687,75.0,30.0,30.0,0.0,0.0
688,74.0,20.0,30.0,0.0,0.0
689,36.0,4.0,15.0,0.0,0.0
690,73.0,30.0,30.0,0.0,0.0
691,70.0,6.0,20.0,0.0,0.0
692,72.0,30.0,30.0,0.0,0.0
693,71.0,30.0,30.0,0.0,0.0
694,72.0,23.0,30.0,0.0,0.0
695,58.0,29.0,30.0,0.0,0.0
696,48.0,0.0,30.0,0.0,0.0
697,73.0,0.0,30.0,0.0,0.0
698,55.0,6.0,20.0,0.0,0.0
699,70.0,1.0,20.0,0.0,0.0
700,64.0,1.0,20.0,0.0,0.0
701,74.0,30.0,30.0,0.0,0.0
702,75.0,30.0,30.0,0.0,0.0
703,76.0,24.0,30.0,0.0,0.0
704,68.0,5.0,20.0,0.0,0.0
705,41.0,1.0,20.0,0.0,0.0
706,77.0,30.0,30.0,0.0,0.0
707,78.0,30.0,30.0,0.0,0.0
708,79.0,30.0,30.0,0.0,0.0
709,80.0,24.0,30.0,0.0,0.0
710,60.0,1.0,20.0,0.0,0.0
711,48.0,0.0,30.0,0.0,0.0
712,56.0,1.0,20.0,0.0,0.0
713,53.0,2.0,20.0,0.0,0.0
714,79.0,30.0,30.0,0.0,0.0
715,72.0,2.0,20.0,0.0,0.0
716,78.0,30.0,30.0,0.0,0.0
717,77.0,30.0,30.0,0.0,0.0
718,76.0,21.0,30.0,0.0,0.0
719,70.0,4.0,20.0,0.0,0.0
720,75.0,30.0,30.0,0.0,0.0
721,36.0,5.0,15.0,0.0,0.0
722,74.0,30.0,30.0,0.0,0.0
723,73.0,30.0,30.0,0.0,0.0
724,72.0,25.0,30.0,0.0,0.0
725,48.0,3.0,20.0,0.0,0.0
726,73.0,0.0,30.0,0.0,0.0
727,70.0,30.0,20.0,0.0,0.0
728,64.0,1.0,20.0,0.0,0.0
729,55.0,1.0,20.0,0.0,0.0
730,58.0,0.0,20.0,0.0,0.0
731,74.0,30.0,30.0,0.0,0.0
732,75.0,30.0,30.0,0.0,0.0
733,76.0,21.0,30.0,0.0,0.0
734,41.0,8.0,120.0,0.0,0.0
735,77.0,30.0,30.0,0.0,0.0
736,53.0,21.0,90.0,0.0,0.0
737,68.0,9.0,15.0,0.0,0.0
738,78.0,30.0,30.0,0.0,0.0
739,79.0,9.0,30.0,0.0,0.0
740,80.0,17.0,30.0,0.0,0.0
741,51.0,19.0,90.0,0.0,0.0
742,81.0,30.0,30.0,0.0,0.0
743,39.0,3.0,120.0,0.0,0.0
744,77.0,3.0,20.0,0.0,0.0
745,72.0,2.0,20.0,0.0,0.0
746,82.0,30.0,30.0,0.0,0.0
747,83.0,8.0,30.0,0.0,0.0
748,84.0,25.0,30.0,0.0,0.0
749,37.0,1.0,30.0,0.0,0.0
750,49.0,28.0,30.0,0.0,0.0
751,85.0,1.0,30.0,0.0,0.0
752,77.0,5.0,20.0,0.0,0.0
753,84.0,30.0,30.0,0.0,0.0
754,83.0,30.0,30.0,0.0,0.0
755,82.0,28.0,30.0,0.0,0.0
756,55.0,16.0,210.0,0.0,0.0
757,43.0,5.0,210.0,0.0,0.0
758,81.0,30.0,30.0,0.0,0.0
759,77.0,0.0,20.0,0.0,0.0
760,73.0,2.0,20.0,0.0,0.0
761,80.0,30.0,30.0,0.0,0.0
762,79.0,30.0,30.0,0.0,0.0
763,78.0,23.0,30.0,0.0,0.0
764,73.0,3.0,20.0,0.0,0.0
765,70.0,4.0,20.0,0.0,0.0
766,77.0,30.0,30.0,0.0,0.0
767,76.0,30.0,30.0,0.0,0.0
768,75.0,9.0,30.0,0.0,0.0
769,74.0,22.0,30.0,0.0,0.0
770,64.0,1.0,20.0,0.0,0.0
771,70.0,3.0,20.0,0.0,0.0
772,60.0,3.0,20.0,0.0,0.0
773,48.0,1.0,20.0,0.0,0.0
774,73.0,30.0,30.0,0.0,0.0
775,72.0,30.0,30.0,0.0,0.0
776,71.0,30.0,30.0,0.0,0.0
777,72.0,25.0,30.0,0.0,0.0
778,75.0,3.0,20.0,0.0,0.0
779,83.0,30.0,30.0,0.0,0.0
780,35.0,1.0,20.0,0.0,0.0
781,47.0,1.0,20.0,0.0,0.0
782,82.0,30.0,30.0,0.0,0.0
783,81.0,30.0,30.0,0.0,0.0
784,80.0,25.0,30.0,0.0,0.0
785,41.0,3.0,210.0,0.0,0.0
786,53.0,7.0,210.0,0.0,0.0
787,79.0,1.0,30.0,0.0,0.0
788,71.0,5.0,20.0,0.0,0.0
789,75.0,29.0,20.0,0.0,0.0
790,78.0,30.0,30.0,0.0,0.0
791,77.0,30.0,30.0,0.0,0.0
792,76.0,23.0,30.0,0.0,0.0
793,71.0,4.0,20.0,0.0,0.0
794,75.0,30.0,30.0,0.0,0.0
795,68.0,3.0,20.0,0.0,0.0
796,74.0,20.0,30.0,0.0,0.0
797,73.0,30.0,30.0,0.0,0.0
798,72.0,21.0,30.0,0.0,0.0
799,62.0,5.0,20.0,0.0,0.0
800,68.0,29.0,30.0,0.0,0.0
801,58.0,1.0,15.0,0.0,0.0
802,46.0,3.0,20.0,0.0,0.0
803,71.0,1.0,30.0,0.0,0.0
804,70.0,30.0,30.0,0.0,0.0
805,69.0,30.0,30.0,0.0,0.0
806,70.0,24.0,30.0,0.0,0.0
807,51.0,1.0,30.0,0.0,0.0
808,39.0,27.0,30.0,0.0,0.0
809,82.0,2.0,30.0,0.0,0.0
810,78.0,5.0,20.0,0.0,0.0
811,75.0,1.0,20.0,0.0,0.0
812,81.0,30.0,30.0,0.0,0.0
813,80.0,30.0,30.0,0.0,0.0
814,79.0,21.0,30.0,0.0,0.0
815,69.0,3.0,20.0,0.0,0.0
816,75.0,6.0,15.0,0.0,0.0
817,59.0,20.0,120.0,0.0,0.0
818,47.0,3.0,120.0,0.0,0.0
819,78.0,30.0,30.0,0.0,0.0
820,77.0,30.0,30.0,0.0,0.0
821,76.0,30.0,30.0,0.0,0.0
822,75.0,1.0,30.0,0.0,0.0
823,70.0,1.0,20.0,0.0,0.0
824,58.0,1.0,30.0,0.0,0.0
825,46.0,26.0,30.0,0.0,0.0
826,74.0,4.0,30.0,0.0,0.0
827,65.0,4.0,20.0,0.0,0.0
828,75.0,30.0,30.0,0.0,0.0
829,76.0,30.0,30.0,0.0,0.0
830,77.0,23.0,30.0,0.0,0.0
831,53.0,25.0,90.0,0.0,0.0
832,41.0,20.0,120.0,0.0,0.0
833,78.0,30.0,30.0,0.0,0.0
834,68.0,6.0,15.0,0.0,0.0
835,73.0,1.0,20.0,0.0,0.0
836,79.0,30.0,30.0,0.0,0.0
837,80.0,5.0,30.0,0.0,0.0
838,79.0,6.0,30.0,0.0,0.0
839,37.0,1.0,30.0,0.0,0.0
840,49.0,2.0,20.0,0.0,0.0
841,82.0,0.0,30.0,0.0,0.0
842,73.0,30.0,20.0,0.0,0.0
843,77.0,1.0,20.0,0.0,0.0
844,80.0,30.0,30.0,0.0,0.0
845,78.0,30.0,30.0,0.0,0.0
846,77.0,27.0,30.0,0.0,0.0
847,45.0,11.0,120.0,0.0,0.0
848,57.0,10.0,120.0,0.0,0.0
849,76.0,3.0,30.0,0.0,0.0
850,67.0,27.0,30.0,0.0,0.0
851,73.0,3.0,20.0,0.0,0.0
852,75.0,30.0,30.0,0.0,0.0
853,74.0,20.0,30.0,0.0,0.0
854,73.0,16.0,30.0,0.0,0.0
855,44.0,1.0,30.0,0.0,0.0
856,56.0,1.0,30.0,0.0,0.0
857,72.0,30.0,30.0,0.0,0.0
858,63.0,0.0,20.0,0.0,0.0
859,68.0,1.0,20.0,0.0,0.0
860,73.0,30.0,30.0,0.0,0.0
861,74.0,30.0,30.0,0.0,0.0
862,75.0,29.0,30.0,0.0,0.0
863,71.0,1.0,30.0,0.0,0.0
864,39.0,13.0,90.0,0.0,0.0
865,66.0,30.0,30.0,0.0,0.0
866,76.0,0.0,30.0,0.0,0.0
867,51.0,7.0,90.0,0.0,0.0
868,77.0,23.0,30.0,0.0,0.0
869,78.0,17.0,30.0,0.0,0.0
870,77.0,20.0,30.0,0.0,0.0
871,47.0,2.0,20.0,0.0,0.0
872,35.0,3.0,15.0,0.0,0.0
873,80.0,30.0,30.0,0.0,0.0
874,71.0,1.0,15.0,0.0,0.0
875,75.0,0.0,15.0,0.0,0.0
876,78.0,30.0,30.0,0.0,0.0
877,77.0,30.0,30.0,0.0,0.0
878,76.0,21.0,30.0,0.0,0.0
879,71.0,3.0,20.0,0.0,0.0
880,47.0,8.0,180.0,0.0,0.0
881,59.0,13.0,150.0,0.0,0.0
882,66.0,6.0,20.0,0.0,0.0
883,75.0,30.0,30.0,0.0,0.0
884,74.0,30.0,30.0,0.0,0.0
885,73.0,30.0,30.0,0.0,0.0
886,72.0,26.0,30.0,0.0,0.0
887,66.0,2.0,20.0,0.0,0.0
888,63.0,2.0,20.0,0.0,0.0
889,71.0,9.0,30.0,0.0,0.0
890,70.0,30.0,30.0,0.0,0.0
891,69.0,30.0,30.0,0.0,0.0
892,68.0,29.0,30.0,0.0,0.0
893,35.0,6.0,120.0,0.0,0.0
894,47.0,11.0,90.0,0.0,0.0
895,66.0,0.0,30.0,0.0,0.0
896,57.0,30.0,20.0,0.0,0.0
897,63.0,1.0,20.0,0.0,0.0
898,65.0,30.0,30.0,0.0,0.0
899,64.0,13.0,30.0,0.0,0.0
900,63.0,21.0,30.0,0.0,0.0
901,46.0,2.0,20.0,0.0,0.0
902,34.0,3.0,20.0,0.0,0.0
903,62.0,30.0,30.0,0.0,0.0
904,58.0,3.0,20.0,0.0,0.0
905,53.0,1.0,15.0,0.0,0.0
906,63.0,30.0,30.0,0.0,0.0
907,64.0,30.0,30.0,0.0,0.0
908,65.0,29.0,30.0,0.0,0.0
909,35.0,2.0,150.0,0.0,0.0
910,66.0,2.0,30.0,0.0,0.0
911,41.0,12.0,120.0,0.0,0.0
912,63.0,28.0,30.0,0.0,0.0
913,57.0,1.0,20.0,0.0,0.0
914,65.0,30.0,30.0,0.0,0.0
915,64.0,30.0,30.0,0.0,0.0
916,63.0,11.0,30.0,0.0,0.0
917,53.0,0.0,20.0,0.0,0.0
918,58.0,5.0,20.0,0.0,0.0
919,34.0,0.0,30.0,0.0,0.0
920,46.0,15.0,30.0,0.0,0.0
921,62.0,15.0,30.0,0.0,0.0
922,63.0,30.0,30.0,0.0,0.0
923,64.0,30.0,30.0,0.0,0.0
924,65.0,25.0,30.0,0.0,0.0
925,35.0,0.0,120.0,0.0,0.0
926,41.0,21.0,120.0,0.0,0.0
927,66.0,30.0,30.0,0.0,0.0
928,63.0,1.0,20.0,0.0,0.0
929,57.0,4.0,20.0,0.0,0.0
930,65.0,30.0,30.0,0.0,0.0
931,64.0,30.0,30.0,0.0,0.0
932,63.0,8.0,30.0,0.0,0.0
933,62.0,2.0,30.0,0.0,0.0
934,34.0,4.0,30.0,0.0,0.0
935,46.0,13.0,30.0,0.0,0.0
936,58.0,11.0,30.0,0.0,0.0
937,53.0,1.0,20.0,0.0,0.0
938,63.0,30.0,30.0,0.0,0.0
939,64.0,30.0,30.0,0.0,0.0
940,65.0,30.0,30.0,0.0,0.0
941,43.0,10.0,120.0,0.0,0.0
942,68.0,30.0,30.0,0.0,0.0
943,37.0,6.0,120.0,0.0,0.0
944,59.0,0.0,20.0,0.0,0.0
945,67.0,30.0,30.0,0.0,0.0
946,66.0,30.0,30.0,0.0,0.0
947,65.0,7.0,30.0,0.0,0.0
948,36.0,19.0,30.0,0.0,0.0
949,48.0,1.0,30.0,0.0,0.0
950,64.0,10.0,30.0,0.0,0.0
951,55.0,1.0,15.0,0.0,0.0
952,60.0,6.0,15.0,0.0,0.0
953,65.0,30.0,30.0,0.0,0.0
954,66.0,30.0,30.0,0.0,0.0
955,67.0,27.0,30.0,0.0,0.0
956,43.0,1.0,120.0,0.0,0.0
957,37.0,53.0,120.0,0.0,0.0
958,68.0,30.0,30.0,0.0,0.0
959,65.0,0.0,20.0,0.0,0.0
960,58.0,3.0,20.0,0.0,0.0
961,67.0,30.0,30.0,0.0,0.0
962,66.0,30.0,30.0,0.0,0.0
963,65.0,10.0,30.0,0.0,0.0
964,36.0,26.0,1890.0,0.0,0.0
965,48.0,2.0,1890.0,0.0,0.0
966,60.0,0.0,60.0,0.0,0.0
967,64.0,0.0,60.0,0.0,0.0
968,55.0,86.0,60.0,0.0,0.0
969,84.0,1.0,30.0,0.0,0.0
970,79.0,29.0,30.0,0.0,0.0
971,76.0,0.0,20.0,0.0,0.0
972,85.0,30.0,30.0,0.0,0.0
973,82.0,30.0,30.0,0.0,0.0
974,84.0,27.0,30.0,0.0,0.0
975,80.0,4.0,30.0,0.0,0.0
976,77.0,3.0,20.0,0.0,0.0
977,72.0,26.0,30.0,0.0,0.0
978,82.0,30.0,30.0,0.0,0.0
979,79.0,30.0,30.0,0.0,0.0
980,80.0,25.0,30.0,0.0,0.0
981,72.0,5.0,20.0,0.0,0.0
982,77.0,0.0,30.0,0.0,0.0
983,68.0,30.0,30.0,0.0,0.0
984,79.0,30.0,30.0,0.0,0.0
985,75.0,30.0,30.0,0.0,0.0
986,77.0,26.0,30.0,0.0,0.0
987,73.0,30.0,30.0,0.0,0.0
988,65.0,2.0,20.0,0.0,0.0
989,68.0,2.0,20.0,0.0,0.0
990,75.0,30.0,30.0,0.0,0.0
991,72.0,55.0,30.0,0.0,0.0
992,73.0,0.0,60.0,0.0,0.0
993,77.0,5.0,20.0,0.0,0.0
994,82.0,30.0,30.0,0.0,0.0
995,84.0,30.0,30.0,0.0,0.0
996,80.0,30.0,30.0,0.0,0.0
997,82.0,28.0,30.0,0.0,0.0
998,79.0,30.0,30.0,0.0,0.0
999,73.0,0.0,20.0,0.0,0.0
1000,70.0,2.0,20.0,0.0,0.0
1001,80.0,30.0,30.0,0.0,0.0
1002,77.0,30.0,30.0,0.0,0.0
1003,79.0,28.0,30.0,0.0,0.0
1004,76.0,2.0,30.0,0.0,0.0
1005,70.0,2.0,20.0,0.0,0.0
1006,67.0,28.0,30.0,0.0,0.0
1007,77.0,30.0,30.0,0.0,0.0
1008,73.0,30.0,30.0,0.0,0.0
1009,75.0,25.0,30.0,0.0,0.0
1010,67.0,0.0,30.0,0.0,0.0
1011,64.0,5.0,20.0,0.0,0.0
1012,72.0,30.0,30.0,0.0,0.0
1013,73.0,30.0,30.0,0.0,0.0
1014,71.0,58.0,30.0,0.0,0.0
1015,72.0,30.0,60.0,0.0,0.0
1016,80.0,0.0,30.0,0.0,0.0
1017,77.0,2.0,20.0,0.0,0.0
1018,82.0,30.0,30.0,0.0,0.0
1019,79.0,30.0,30.0,0.0,0.0
1020,80.0,27.0,30.0,0.0,0.0
1021,72.0,30.0,30.0,0.0,0.0
1022,68.0,3.0,20.0,0.0,0.0
1023,77.0,0.0,30.0,0.0,0.0
1024,79.0,30.0,30.0,0.0,0.0
1025,75.0,30.0,30.0,0.0,0.0
1026,77.0,24.0,30.0,0.0,0.0
1027,68.0,1.0,20.0,0.0,0.0
1028,65.0,5.0,20.0,0.0,0.0
1029,73.0,30.0,30.0,0.0,0.0
1030,75.0,30.0,30.0,0.0,0.0
1031,72.0,30.0,30.0,0.0,0.0
1032,73.0,28.0,30.0,0.0,0.0
1033,65.0,2.0,20.0,0.0,0.0
1034,61.0,0.0,20.0,0.0,0.0
1035,70.0,30.0,30.0,0.0,0.0
1036,72.0,30.0,30.0,0.0,0.0
1037,68.0,30.0,30.0,0.0,0.0
1038,70.0,27.0,30.0,0.0,0.0
1039,61.0,2.0,20.0,0.0,0.0
1040,58.0,1.0,30.0,0.0,0.0
1041,67.0,30.0,30.0,0.0,0.0
1042,68.0,30.0,30.0,0.0,0.0
1043,65.0,30.0,30.0,0.0,0.0
1044,67.0,23.0,30.0,0.0,0.0
1045,58.0,5.0,20.0,0.0,0.0
1046,55.0,2.0,20.0,0.0,0.0
1047,64.0,30.0,30.0,0.0,0.0
1048,61.0,30.0,30.0,0.0,0.0
1049,59.0,30.0,30.0,0.0,0.0
1050,60.0,30.0,30.0,0.0,0.0
1051,61.0,30.0,30.0,0.0,0.0
1052,62.0,30.0,30.0,0.0,0.0
1053,63.0,2.0,30.0,0.0,0.0
1054,64.0,20.0,30.0,0.0,0.0
1055,65.0,30.0,30.0,0.0,0.0
1056,41.0,3.0,15.0,0.0,0.0
1057,60.0,6.0,20.0,0.0,0.0
1058,56.0,1.0,15.0,0.0,0.0
1059,66.0,30.0,30.0,0.0,0.0
1060,67.0,30.0,30.0,0.0,0.0
1061,68.0,20.0,30.0,0.0,0.0
1062,48.0,5.0,20.0,0.0,0.0
1063,53.0,0.0,15.0,0.0,0.0
1064,56.0,3.0,20.0,0.0,0.0
1065,69.0,30.0,30.0,0.0,0.0
1066,65.0,0.0,20.0,0.0,0.0
1067,60.0,2.0,15.0,0.0,0.0
1068,70.0,30.0,30.0,0.0,0.0
1069,71.0,30.0,30.0,0.0,0.0
1070,72.0,18.0,30.0,0.0,0.0
1071,65.0,3.0,15.0,0.0,0.0
1072,41.0,1.0,15.0,0.0,0.0
1073,70.0,8.0,20.0,0.0,0.0
1074,73.0,30.0,30.0,0.0,0.0
1075,74.0,30.0,30.0,0.0,0.0
1076,75.0,30.0,30.0,0.0,0.0
1077,76.0,22.0,30.0,0.0,0.0
1078,58.0,2.0,20.0,0.0,0.0
1079,49.0,3.0,20.0,0.0,0.0
1080,53.0,1.0,20.0,0.0,0.0
1081,77.0,30.0,30.0,0.0,0.0
1082,70.0,1.0,15.0,0.0,0.0
1083,73.0,1.0,20.0,0.0,0.0
1084,78.0,30.0,30.0,0.0,0.0
1085,79.0,30.0,30.0,0.0,0.0
1086,80.0,21.0,30.0,0.0,0.0
1087,41.0,1.0,20.0,0.0,0.0
1088,77.0,4.0,20.0,0.0,0.0
1089,72.0,4.0,15.0,0.0,0.0
1090,81.0,30.0,30.0,0.0,0.0
1091,82.0,30.0,30.0,0.0,0.0
1092,83.0,30.0,30.0,0.0,0.0
1093,84.0,22.0,30.0,0.0,0.0
1094,80.0,4.0,20.0,0.0,0.0
1095,48.0,0.0,20.0,0.0,0.0
1096,53.0,1.0,20.0,0.0,0.0
1097,56.0,1.0,20.0,0.0,0.0
1098,77.0,2.0,20.0,0.0,0.0
1099,85.0,30.0,30.0,0.0,0.0
1100,84.0,30.0,30.0,0.0,0.0
1101,83.0,30.0,30.0,0.0,0.0
1102,82.0,18.0,30.0,0.0,0.0
1103,53.0,5.0,15.0,0.0,0.0
1104,56.0,1.0,15.0,0.0,0.0
1105,60.0,1.0,15.0,0.0,0.0
1106,81.0,30.0,30.0,0.0,0.0
1107,77.0,4.0,20.0,0.0,0.0
1108,72.0,1.0,20.0,0.0,0.0
1109,80.0,30.0,30.0,0.0,0.0
1110,79.0,30.0,30.0,0.0,0.0
1111,78.0,20.0,30.0,0.0,0.0
1112,72.0,8.0,20.0,0.0,0.0
1113,77.0,30.0,30.0,0.0,0.0
1114,68.0,2.0,15.0,0.0,0.0
1115,76.0,30.0,30.0,0.0,0.0
1116,79.0,30.0,30.0,0.0,0.0
1117,77.0,24.0,30.0,0.0,0.0
1118,67.0,5.0,20.0,0.0,0.0
1119,72.0,1.0,20.0,0.0,0.0
1120,76.0,30.0,30.0,0.0,0.0
1121,36.0,0.0,20.0,0.0,0.0
1122,75.0,30.0,30.0,0.0,0.0
1123,74.0,30.0,30.0,0.0,0.0
1124,73.0,22.0,30.0,0.0,0.0
1125,72.0,1.0,30.0,0.0,0.0
1126,55.0,0.0,20.0,0.0,0.0
1127,58.0,3.0,20.0,0.0,0.0
1128,67.0,1.0,20.0,0.0,0.0
1129,64.0,4.0,15.0,0.0,0.0
1130,48.0,29.0,30.0,0.0,0.0
1131,71.0,30.0,30.0,0.0,0.0
1132,73.0,30.0,30.0,0.0,0.0
1133,72.0,22.0,30.0,0.0,0.0
1134,41.0,7.0,20.0,0.0,0.0
1135,71.0,30.0,30.0,0.0,0.0
1136,68.0,1.0,15.0,0.0,0.0
1137,65.0,0.0,15.0,0.0,0.0
1138,70.0,30.0,30.0,0.0,0.0
1139,69.0,30.0,30.0,0.0,0.0
1140,68.0,15.0,30.0,0.0,0.0
1141,60.0,1.0,15.0,0.0,0.0
1142,65.0,7.0,20.0,0.0,0.0
1143,56.0,1.0,20.0,0.0,0.0
1144,48.0,1.0,15.0,0.0,0.0
1145,53.0,5.0,15.0,0.0,0.0
1146,67.0,30.0,30.0,0.0,0.0
1147,68.0,30.0,30.0,0.0,0.0
1148,70.0,30.0,30.0,0.0,0.0
1149,68.0,21.0,30.0,0.0,0.0
1150,48.0,4.0,20.0,0.0,0.0
1151,67.0,30.0,30.0,0.0,0.0
1152,64.0,2.0,20.0,0.0,0.0
1153,60.0,3.0,15.0,0.0,0.0
1154,55.0,0.0,15.0,0.0,0.0
1155,68.0,30.0,30.0,0.0,0.0
1156,67.0,30.0,30.0,0.0,0.0
1157,68.0,19.0,30.0,0.0,0.0
1158,55.0,5.0,150.0,0.0,0.0
1159,49.0,9.0,120.0,0.0,0.0
1160,65.0,7.0,20.0,0.0,0.0
1161,59.0,4.0,15.0,0.0,0.0
1162,67.0,30.0,30.0,0.0,0.0
1163,68.0,30.0,30.0,0.0,0.0
1164,67.0,30.0,30.0,0.0,0.0
1165,68.0,9.0,30.0,0.0,0.0
1166,48.0,0.0,20.0,0.0,0.0
1167,64.0,0.0,15.0,0.0,0.0
1168,67.0,30.0,30.0,0.0,0.0
1169,60.0,7.0,15.0,0.0,0.0
1170,72.0,30.0,30.0,0.0,0.0
1171,71.0,30.0,30.0,0.0,0.0
1172,70.0,20.0,30.0,0.0,0.0
1173,64.0,0.0,15.0,0.0,0.0
1174,58.0,10.0,15.0,0.0,0.0
1175,69.0,30.0,30.0,0.0,0.0
1176,68.0,30.0,30.0,0.0,0.0
1177,67.0,30.0,30.0,0.0,0.0
1178,66.0,23.0,30.0,0.0,0.0
1179,41.0,7.0,20.0,0.0,0.0
1180,65.0,30.0,30.0,0.0,0.0
1181,56.0,0.0,15.0,0.0,0.0
1182,60.0,0.0,15.0,0.0,0.0
1183,66.0,30.0,30.0,0.0,0.0
1184,67.0,30.0,30.0,0.0,0.0
1185,68.0,21.0,30.0,0.0,0.0
1186,48.0,2.0,20.0,0.0,0.0
1187,53.0,5.0,20.0,0.0,0.0
1188,56.0,0.0,20.0,0.0,0.0
1189,69.0,30.0,30.0,0.0,0.0
1190,60.0,1.0,15.0,0.0,0.0
1191,65.0,1.0,15.0,0.0,0.0
1192,70.0,30.0,30.0,0.0,0.0
1193,71.0,30.0,30.0,0.0,0.0
1194,72.0,16.0,30.0,0.0,0.0
1195,70.0,5.0,15.0,0.0,0.0
1196,65.0,3.0,15.0,0.0,0.0
1197,41.0,6.0,20.0,0.0,0.0
1198,73.0,30.0,30.0,0.0,0.0
1199,74.0,30.0,30.0,0.0,0.0
1200,75.0,30.0,30.0,0.0,0.0
1201,76.0,19.0,30.0,0.0,0.0
1202,49.0,5.0,20.0,0.0,0.0
1203,58.0,1.0,20.0,0.0,0.0
1204,53.0,3.0,20.0,0.0,0.0
1205,73.0,1.0,15.0,0.0,0.0
1206,70.0,1.0,15.0,0.0,0.0
1207,77.0,30.0,30.0,0.0,0.0
1208,78.0,30.0,30.0,0.0,0.0
1209,79.0,30.0,30.0,0.0,0.0
1210,80.0,22.0,30.0,0.0,0.0
1211,29.0,1.0,20.0,0.0,0.0
1212,41.0,3.0,20.0,0.0,0.0
1213,81.0,30.0,30.0,0.0,0.0
1214,72.0,3.0,15.0,0.0,0.0
1215,77.0,1.0,20.0,0.0,0.0
1216,82.0,30.0,30.0,0.0,0.0
1217,83.0,30.0,30.0,0.0,0.0
1218,84.0,20.0,30.0,0.0,0.0
1219,53.0,6.0,20.0,0.0,0.0
1220,77.0,2.0,20.0,0.0,0.0
1221,56.0,26.0,30.0,0.0,0.0
1222,48.0,4.0,30.0,0.0,0.0
1223,80.0,2.0,15.0,0.0,0.0
1224,85.0,0.0,30.0,0.0,0.0
1225,84.0,30.0,30.0,0.0,0.0
1226,83.0,30.0,30.0,0.0,0.0
1227,82.0,19.0,30.0,0.0,0.0
1228,53.0,1.0,20.0,0.0,0.0
1229,72.0,5.0,20.0,0.0,0.0
1230,60.0,1.0,30.0,0.0,0.0
1231,77.0,1.0,15.0,0.0,0.0
1232,56.0,3.0,15.0,0.0,0.0
1233,81.0,30.0,30.0,0.0,0.0
1234,80.0,30.0,30.0,0.0,0.0
1235,79.0,30.0,30.0,0.0,0.0
1236,78.0,23.0,30.0,0.0,0.0
1237,72.0,4.0,20.0,0.0,0.0
1238,68.0,3.0,20.0,0.0,0.0
1239,77.0,30.0,30.0,0.0,0.0
1240,76.0,30.0,30.0,0.0,0.0
1241,79.0,30.0,30.0,0.0,0.0
1242,77.0,26.0,30.0,0.0,0.0
1243,34.0,2.0,20.0,0.0,0.0
1244,46.0,1.0,20.0,0.0,0.0
1245,78.0,30.0,30.0,0.0,0.0
1246,73.0,0.0,20.0,0.0,0.0
1247,70.0,1.0,20.0,0.0,0.0
1248,79.0,30.0,30.0,0.0,0.0
1249,80.0,30.0,30.0,0.0,0.0
1250,81.0,22.0,30.0,0.0,0.0
1251,82.0,1.0,30.0,0.0,0.0
1252,78.0,1.0,20.0,0.0,0.0
1253,73.0,5.0,20.0,0.0,0.0
1254,54.0,0.0,30.0,0.0,0.0
1255,46.0,1.0,30.0,0.0,0.0
1256,58.0,28.0,30.0,0.0,0.0
1257,49.0,2.0,15.0,0.0,0.0
1258,83.0,30.0,30.0,0.0,0.0
1259,84.0,30.0,30.0,0.0,0.0
1260,85.0,20.0,30.0,0.0,0.0
1261,84.0,0.0,30.0,0.0,0.0
1262,76.0,6.0,20.0,0.0,0.0
1263,48.0,0.0,20.0,0.0,0.0
1264,36.0,4.0,15.0,0.0,0.0
1265,82.0,30.0,20.0,0.0,0.0
1266,85.0,30.0,30.0,0.0,0.0
1267,86.0,30.0,30.0,0.0,0.0
1268,87.0,24.0,30.0,0.0,0.0
1269,82.0,0.0,20.0,0.0,0.0
1270,48.0,4.0,20.0,0.0,0.0
1271,55.0,1.0,30.0,0.0,0.0
1272,88.0,30.0,30.0,0.0,0.0
1273,58.0,1.0,20.0,0.0,0.0
1274,89.0,30.0,30.0,0.0,0.0
1275,90.0,30.0,30.0,0.0,0.0
1276,91.0,21.0,30.0,0.0,0.0
1277,49.0,2.0,15.0,0.0,0.0
1278,37.0,4.0,20.0,0.0,0.0
1279,89.0,30.0,30.0,0.0,0.0
1280,80.0,3.0,20.0,0.0,0.0
1281,88.0,30.0,30.0,0.0,0.0
1282,87.0,30.0,30.0,0.0,0.0
1283,86.0,21.0,30.0,0.0,0.0
1284,61.0,2.0,30.0,0.0,0.0
1285,80.0,0.0,20.0,0.0,0.0
1286,56.0,0.0,30.0,0.0,0.0
1287,53.0,27.0,30.0,0.0,0.0
1288,77.0,7.0,15.0,0.0,0.0
1289,85.0,3.0,30.0,0.0,0.0
1290,84.0,30.0,30.0,0.0,0.0
1291,83.0,30.0,30.0,0.0,0.0
1292,82.0,22.0,30.0,0.0,0.0
1293,44.0,3.0,20.0,0.0,0.0
1294,32.0,0.0,20.0,0.0,0.0
1295,77.0,2.0,20.0,0.0,0.0
1296,72.0,3.0,20.0,0.0,0.0
1297,81.0,30.0,30.0,0.0,0.0
1298,80.0,30.0,30.0,0.0,0.0
1299,79.0,30.0,30.0,0.0,0.0
1300,78.0,21.0,30.0,0.0,0.0
1301,72.0,3.0,15.0,0.0,0.0
1302,48.0,0.0,30.0,0.0,0.0
1303,60.0,29.0,30.0,0.0,0.0
1304,53.0,4.0,20.0,0.0,0.0
1305,77.0,1.0,30.0,0.0,0.0
1306,68.0,2.0,20.0,0.0,0.0
1307,76.0,30.0,30.0,0.0,0.0
1308,75.0,30.0,30.0,0.0,0.0
1309,74.0,23.0,30.0,0.0,0.0
1310,66.0,3.0,20.0,0.0,0.0
1311,73.0,30.0,30.0,0.0,0.0
1312,34.0,1.0,15.0,0.0,0.0
1313,46.0,0.0,15.0,0.0,0.0
1314,70.0,3.0,20.0,0.0,0.0
1315,72.0,30.0,30.0,0.0,0.0
1316,71.0,30.0,30.0,0.0,0.0
1317,70.0,30.0,30.0,0.0,0.0
1318,69.0,1.0,30.0,0.0,0.0
1319,61.0,27.0,30.0,0.0,0.0
1320,66.0,2.0,30.0,0.0,0.0
1321,58.0,1.0,120.0,0.0,0.0
1322,54.0,22.0,90.0,0.0,0.0
1323,49.0,1.0,90.0,0.0,0.0
1324,46.0,2.0,90.0,0.0,0.0
1325,70.0,30.0,30.0,0.0,0.0
1326,73.0,4.0,30.0,0.0,0.0
1327,70.0,25.0,30.0,0.0,0.0
1328,53.0,2.0,60.0,0.0,0.0
1329,48.0,4.0,60.0,0.0,0.0
1330,65.0,2.0,20.0,0.0,0.0
1331,56.0,30.0,60.0,0.0,0.0
1332,67.0,24.0,30.0,0.0,0.0
1333,60.0,3.0,20.0,0.0,0.0
1334,68.0,0.0,30.0,0.0,0.0
1335,72.0,30.0,30.0,0.0,0.0
1336,68.0,24.0,30.0,0.0,0.0
1337,48.0,13.0,120.0,0.0,0.0
1338,55.0,17.0,90.0,0.0,0.0
1339,66.0,30.0,30.0,0.0,0.0
1340,64.0,4.0,20.0,0.0,0.0
1341,58.0,2.0,20.0,0.0,0.0
1342,67.0,30.0,30.0,0.0,0.0
1343,72.0,13.0,30.0,0.0,0.0
1344,67.0,9.0,30.0,0.0,0.0
1345,41.0,2.0,20.0,0.0,0.0
1346,53.0,1.0,20.0,0.0,0.0
1347,65.0,30.0,30.0,0.0,0.0
1348,56.0,5.0,20.0,0.0,0.0
1349,66.0,30.0,30.0,0.0,0.0
1350,67.0,30.0,30.0,0.0,0.0
1351,68.0,26.0,30.0,0.0,0.0
1352,49.0,13.0,210.0,0.0,0.0
1353,37.0,11.0,240.0,0.0,0.0
1354,69.0,30.0,30.0,0.0,0.0
1355,58.0,3.0,20.0,0.0,0.0
1356,65.0,1.0,20.0,0.0,0.0
1357,70.0,30.0,30.0,0.0,0.0
1358,71.0,30.0,30.0,0.0,0.0
1359,72.0,23.0,30.0,0.0,0.0
1360,65.0,3.0,20.0,0.0,0.0
1361,73.0,30.0,30.0,0.0,0.0
1362,70.0,4.0,20.0,0.0,0.0
1363,74.0,30.0,30.0,0.0,0.0
1364,75.0,17.0,30.0,0.0,0.0
1365,76.0,14.0,30.0,0.0,0.0
1366,48.0,14.0,60.0,0.0,0.0
1367,77.0,30.0,30.0,0.0,0.0
1368,36.0,23.0,90.0,0.0,0.0
1369,70.0,1.0,20.0,0.0,0.0
1370,72.0,4.0,20.0,0.0,0.0
1371,78.0,16.0,30.0,0.0,0.0
1372,79.0,7.0,30.0,0.0,0.0
1373,80.0,22.0,30.0,0.0,0.0
1374,41.0,1.0,30.0,0.0,0.0
1375,68.0,5.0,20.0,0.0,0.0
1376,72.0,2.0,20.0,0.0,0.0
1377,77.0,2.0,30.0,0.0,0.0
1378,29.0,28.0,30.0,0.0,0.0
1379,78.0,30.0,30.0,0.0,0.0
1380,79.0,30.0,30.0,0.0,0.0
1381,80.0,25.0,30.0,0.0,0.0
1382,70.0,1.0,20.0,0.0,0.0
1383,37.0,16.0,210.0,0.0,0.0
1384,25.0,25.0,240.0,0.0,0.0
1385,77.0,4.0,20.0,0.0,0.0
1386,81.0,30.0,30.0,0.0,0.0
1387,82.0,30.0,30.0,0.0,0.0
1388,83.0,30.0,30.0,0.0,0.0
1389,84.0,27.0,30.0,0.0,0.0
1390,77.0,1.0,20.0,0.0,0.0
1391,82.0,2.0,20.0,0.0,0.0
1392,85.0,30.0,30.0,0.0,0.0
1393,86.0,30.0,30.0,0.0,0.0
1394,87.0,14.0,30.0,0.0,0.0
1395,88.0,0.0,30.0,0.0,0.0
1396,84.0,29.0,30.0,0.0,0.0
1397,82.0,5.0,20.0,0.0,0.0
1398,36.0,20.0,90.0,0.0,0.0
1399,24.0,0.0,90.0,0.0,0.0
1400,89.0,1.0,30.0,0.0,0.0
1401,90.0,30.0,30.0,0.0,0.0
1402,91.0,10.0,30.0,0.0,0.0
1403,92.0,27.0,30.0,0.0,0.0
1404,80.0,0.0,30.0,0.0,0.0
1405,29.0,8.0,1830.0,0.0,0.0
1406,89.0,30.0,30.0,0.0,0.0
1407,84.0,3.0,20.0,0.0,0.0
1408,41.0,5.0,1830.0,0.0,0.0
1409,88.0,30.0,30.0,0.0,0.0
1410,87.0,30.0,30.0,0.0,0.0
1411,86.0,25.0,30.0,0.0,0.0
1412,85.0,30.0,30.0,0.0,0.0
1413,82.0,4.0,20.0,0.0,0.0
1414,77.0,1.0,20.0,0.0,0.0
1415,84.0,30.0,30.0,0.0,0.0
1416,83.0,30.0,30.0,0.0,0.0
1417,82.0,28.0,30.0,0.0,0.0
1418,81.0,1.0,30.0,0.0,0.0
1419,77.0,29.0,30.0,0.0,0.0
1420,73.0,2.0,20.0,0.0,0.0
1421,80.0,30.0,30.0,0.0,0.0
1422,79.0,30.0,30.0,0.0,0.0
1423,78.0,27.0,30.0,0.0,0.0
1424,73.0,2.0,20.0,0.0,0.0
1425,77.0,30.0,30.0,0.0,0.0
1426,70.0,1.0,20.0,0.0,0.0
1427,76.0,30.0,30.0,0.0,0.0
1428,75.0,30.0,30.0,0.0,0.0
1429,74.0,27.0,30.0,0.0,0.0
1430,73.0,2.0,30.0,0.0,0.0
1431,65.0,28.0,30.0,0.0,0.0
1432,70.0,3.0,20.0,0.0,0.0
1433,72.0,30.0,30.0,0.0,0.0
1434,71.0,30.0,30.0,0.0,0.0
1435,70.0,24.0,30.0,0.0,0.0
1436,61.0,4.0,20.0,0.0,0.0
1437,65.0,2.0,20.0,0.0,0.0
1438,69.0,30.0,30.0,0.0,0.0
1439,68.0,30.0,30.0,0.0,0.0
1440,67.0,30.0,30.0,0.0,0.0
1441,66.0,23.0,30.0,0.0,0.0
1442,61.0,7.0,20.0,0.0,0.0
1443,58.0,0.0,20.0,0.0,0.0
1444,65.0,30.0,30.0,0.0,0.0
1445,64.0,30.0,30.0,0.0,0.0
1446,63.0,30.0,30.0,0.0,0.0
1447,62.0,71.0,30.0,0.0,0.0
1448,58.0,7.0,90.0,0.0,0.0
1449,53.0,7.0,90.0,0.0,0.0
1450,61.0,32.0,60.0,0.0,0.0
1451,60.0,52.0,60.0,0.0,0.0
1452,59.0,96.0,60.0,0.0,0.0
1453,58.0,722.0,90.0,0.0,0.0
1454,57.0,73.0,750.0,0.0,0.0
1455,53.0,3.0,750.0,0.0,0.0
1456,48.0,1.0,750.0,0.0,0.0
