,note,step,duration,channel,velocity
0,50.0,0.0,60.0,0.0,0.0
1,38.0,0.0,60.0,0.0,0.0
2,26.0,64.0,60.0,0.0,0.0
3,62.0,0.0,60.0,0.0,0.0
4,61.0,0.0,60.0,0.0,0.0
5,37.0,0.0,60.0,0.0,0.0
6,25.0,64.0,60.0,0.0,0.0
7,49.0,0.0,60.0,0.0,0.0
8,62.0,0.0,60.0,0.0,0.0
9,50.0,0.0,60.0,0.0,0.0
10,38.0,64.0,60.0,0.0,0.0
11,26.0,0.0,60.0,0.0,0.0
12,27.0,0.0,60.0,0.0,0.0
13,51.0,0.0,60.0,0.0,0.0
14,63.0,64.0,60.0,0.0,0.0
15,39.0,0.0,60.0,0.0,0.0
16,64.0,64.0,60.0,0.0,0.0
17,28.0,0.0,60.0,0.0,0.0
18,40.0,0.0,60.0,0.0,0.0
19,52.0,0.0,60.0,0.0,0.0
20,29.0,64.0,60.0,0.0,0.0
21,53.0,0.0,60.0,0.0,0.0
22,65.0,0.0,60.0,0.0,0.0
23,41.0,0.0,60.0,0.0,0.0
24,52.0,0.0,60.0,0.0,0.0
25,64.0,0.0,60.0,0.0,0.0
26,28.0,0.0,60.0,0.0,0.0
27,40.0,64.0,60.0,0.0,0.0
28,51.0,0.0,60.0,0.0,0.0
29,63.0,0.0,60.0,0.0,0.0
30,27.0,64.0,60.0,0.0,0.0
31,39.0,0.0,60.0,0.0,0.0
32,28.0,0.0,60.0,0.0,0.0
33,40.0,0.0,60.0,0.0,0.0
34,52.0,64.0,60.0,0.0,0.0
35,64.0,0.0,60.0,0.0,0.0
36,29.0,0.0,60.0,0.0,0.0
37,41.0,0.0,60.0,0.0,0.0
38,53.0,64.0,60.0,0.0,0.0
39,65.0,0.0,60.0,0.0,0.0
40,54.0,64.0,60.0,0.0,0.0
41,66.0,0.0,60.0,0.0,0.0
42,30.0,0.0,60.0,0.0,0.0
43,42.0,0.0,60.0,0.0,0.0
44,31.0,0.0,60.0,0.0,0.0
45,43.0,0.0,60.0,0.0,0.0
46,67.0,64.0,60.0,0.0,0.0
47,55.0,0.0,60.0,0.0,0.0
48,66.0,0.0,60.0,0.0,0.0
49,42.0,0.0,60.0,0.0,0.0
50,30.0,64.0,60.0,0.0,0.0
51,54.0,0.0,60.0,0.0,0.0
52,29.0,64.0,60.0,0.0,0.0
53,65.0,0.0,60.0,0.0,0.0
54,41.0,0.0,60.0,0.0,0.0
55,53.0,0.0,60.0,0.0,0.0
56,42.0,64.0,60.0,0.0,0.0
57,66.0,0.0,60.0,0.0,0.0
58,30.0,0.0,60.0,0.0,0.0
59,54.0,0.0,60.0,0.0,0.0
60,55.0,0.0,60.0,0.0,0.0
61,67.0,0.0,60.0,0.0,0.0
62,31.0,64.0,60.0,0.0,0.0
63,43.0,0.0,60.0,0.0,0.0
64,56.0,0.0,60.0,0.0,0.0
65,68.0,0.0,60.0,0.0,0.0
66,32.0,64.0,60.0,0.0,0.0
67,44.0,0.0,60.0,0.0,0.0
68,33.0,0.0,60.0,0.0,0.0
69,45.0,0.0,60.0,0.0,0.0
70,57.0,64.0,60.0,0.0,0.0
71,69.0,0.0,60.0,0.0,0.0
72,32.0,0.0,60.0,0.0,0.0
73,44.0,0.0,60.0,0.0,0.0
74,56.0,64.0,60.0,0.0,0.0
75,68.0,0.0,60.0,0.0,0.0
76,43.0,0.0,60.0,0.0,0.0
77,31.0,0.0,60.0,0.0,0.0
78,55.0,0.0,60.0,0.0,0.0
79,67.0,64.0,60.0,0.0,0.0
80,44.0,0.0,60.0,0.0,0.0
81,56.0,64.0,60.0,0.0,0.0
82,68.0,0.0,60.0,0.0,0.0
83,32.0,0.0,60.0,0.0,0.0
84,33.0,0.0,60.0,0.0,0.0
85,45.0,0.0,60.0,0.0,0.0
86,57.0,64.0,60.0,0.0,0.0
87,69.0,0.0,60.0,0.0,0.0
88,58.0,64.0,60.0,0.0,0.0
89,34.0,0.0,60.0,0.0,0.0
90,70.0,0.0,60.0,0.0,0.0
91,46.0,0.0,60.0,0.0,0.0
92,71.0,64.0,60.0,0.0,0.0
93,47.0,0.0,60.0,0.0,0.0
94,35.0,0.0,60.0,0.0,0.0
95,59.0,0.0,60.0,0.0,0.0
96,70.0,0.0,60.0,0.0,0.0
97,34.0,64.0,60.0,0.0,0.0
98,58.0,0.0,60.0,0.0,0.0
99,46.0,0.0,60.0,0.0,0.0
100,71.0,0.0,60.0,0.0,0.0
101,59.0,0.0,60.0,0.0,0.0
102,35.0,0.0,60.0,0.0,0.0
103,47.0,64.0,60.0,0.0,0.0
104,72.0,64.0,60.0,0.0,0.0
105,60.0,0.0,60.0,0.0,0.0
106,48.0,0.0,60.0,0.0,0.0
107,36.0,0.0,60.0,0.0,0.0
108,35.0,0.0,60.0,0.0,0.0
109,47.0,0.0,60.0,0.0,0.0
110,59.0,0.0,60.0,0.0,0.0
111,71.0,64.0,60.0,0.0,0.0
112,36.0,0.0,60.0,0.0,0.0
113,48.0,64.0,60.0,0.0,0.0
114,60.0,0.0,60.0,0.0,0.0
115,72.0,0.0,60.0,0.0,0.0
116,61.0,0.0,60.0,0.0,0.0
117,73.0,0.0,60.0,0.0,0.0
118,37.0,64.0,60.0,0.0,0.0
119,49.0,0.0,60.0,0.0,0.0
120,60.0,64.0,60.0,0.0,0.0
121,72.0,0.0,60.0,0.0,0.0
122,36.0,0.0,60.0,0.0,0.0
123,48.0,0.0,60.0,0.0,0.0
124,73.0,0.0,60.0,0.0,0.0
125,61.0,64.0,60.0,0.0,0.0
126,49.0,0.0,60.0,0.0,0.0
127,37.0,0.0,60.0,0.0,0.0
128,62.0,0.0,60.0,0.0,0.0
129,74.0,0.0,60.0,0.0,0.0
130,38.0,0.0,60.0,0.0,0.0
131,50.0,64.0,60.0,0.0,0.0
132,61.0,64.0,60.0,0.0,0.0
133,73.0,0.0,60.0,0.0,0.0
134,37.0,0.0,60.0,0.0,0.0
135,49.0,0.0,60.0,0.0,0.0
136,50.0,0.0,60.0,0.0,0.0
137,38.0,64.0,60.0,0.0,0.0
138,62.0,0.0,60.0,0.0,0.0
139,74.0,0.0,60.0,0.0,0.0
140,51.0,0.0,60.0,0.0,0.0
141,63.0,0.0,60.0,0.0,0.0
142,75.0,64.0,60.0,0.0,0.0
143,39.0,0.0,60.0,0.0,0.0
144,74.0,0.0,60.0,0.0,0.0
145,38.0,0.0,60.0,0.0,0.0
146,50.0,64.0,60.0,0.0,0.0
147,62.0,0.0,60.0,0.0,0.0
148,75.0,0.0,60.0,0.0,0.0
149,63.0,0.0,60.0,0.0,0.0
150,51.0,0.0,60.0,0.0,0.0
151,39.0,64.0,60.0,0.0,0.0
152,64.0,0.0,60.0,0.0,0.0
153,40.0,0.0,60.0,0.0,0.0
154,52.0,64.0,60.0,0.0,0.0
155,76.0,0.0,60.0,0.0,0.0
156,39.0,64.0,60.0,0.0,0.0
157,63.0,0.0,60.0,0.0,0.0
158,51.0,0.0,60.0,0.0,0.0
159,75.0,0.0,60.0,0.0,0.0
160,52.0,0.0,60.0,0.0,0.0
161,40.0,0.0,60.0,0.0,0.0
162,64.0,64.0,60.0,0.0,0.0
163,76.0,0.0,60.0,0.0,0.0
164,65.0,0.0,60.0,0.0,0.0
165,53.0,0.0,60.0,0.0,0.0
166,77.0,0.0,60.0,0.0,0.0
167,41.0,64.0,60.0,0.0,0.0
168,75.0,0.0,60.0,0.0,0.0
169,63.0,64.0,60.0,0.0,0.0
170,39.0,0.0,60.0,0.0,0.0
171,51.0,0.0,60.0,0.0,0.0
172,76.0,0.0,60.0,0.0,0.0
173,40.0,64.0,60.0,0.0,0.0
174,52.0,0.0,60.0,0.0,0.0
175,64.0,0.0,60.0,0.0,0.0
176,65.0,0.0,60.0,0.0,0.0
177,53.0,0.0,60.0,0.0,0.0
178,41.0,0.0,60.0,0.0,0.0
179,77.0,64.0,60.0,0.0,0.0
180,40.0,64.0,60.0,0.0,0.0
181,52.0,0.0,60.0,0.0,0.0
182,76.0,0.0,60.0,0.0,0.0
183,64.0,0.0,60.0,0.0,0.0
184,65.0,0.0,60.0,0.0,0.0
185,77.0,0.0,60.0,0.0,0.0
186,53.0,0.0,60.0,0.0,0.0
187,41.0,64.0,60.0,0.0,0.0
188,66.0,0.0,60.0,0.0,0.0
189,78.0,0.0,60.0,0.0,0.0
190,42.0,0.0,60.0,0.0,0.0
191,54.0,64.0,60.0,0.0,0.0
192,67.0,0.0,60.0,0.0,0.0
193,70.0,0.0,390.0,0.0,0.0
194,55.0,0.0,60.0,0.0,0.0
195,43.0,64.0,60.0,0.0,0.0
196,79.0,0.0,60.0,0.0,0.0
197,66.0,0.0,60.0,0.0,0.0
198,78.0,0.0,60.0,0.0,0.0
199,54.0,64.0,60.0,0.0,0.0
200,42.0,0.0,60.0,0.0,0.0
201,79.0,0.0,60.0,0.0,0.0
202,67.0,0.0,60.0,0.0,0.0
203,55.0,64.0,60.0,0.0,0.0
204,43.0,0.0,60.0,0.0,0.0
205,78.0,0.0,60.0,0.0,0.0
206,66.0,64.0,60.0,0.0,0.0
207,42.0,0.0,60.0,0.0,0.0
208,54.0,0.0,60.0,0.0,0.0
209,65.0,0.0,60.0,0.0,0.0
210,41.0,0.0,60.0,0.0,0.0
211,53.0,0.0,60.0,0.0,0.0
212,77.0,64.0,60.0,0.0,0.0
213,52.0,0.0,60.0,0.0,0.0
214,64.0,0.0,60.0,0.0,0.0
215,76.0,0.0,60.0,0.0,0.0
216,40.0,0.0,60.0,0.0,0.0
217,70.0,0.0,390.0,0.0,0.0
218,53.0,64.0,60.0,0.0,0.0
219,46.0,64.0,15.0,0.0,0.0
220,41.0,0.0,60.0,0.0,0.0
221,65.0,0.0,60.0,0.0,0.0
222,77.0,0.0,60.0,0.0,0.0
223,64.0,64.0,60.0,0.0,0.0
224,76.0,0.0,60.0,0.0,0.0
225,52.0,0.0,60.0,0.0,0.0
226,40.0,0.0,60.0,0.0,0.0
227,41.0,0.0,60.0,0.0,0.0
228,53.0,64.0,60.0,0.0,0.0
229,77.0,0.0,60.0,0.0,0.0
230,65.0,0.0,60.0,0.0,0.0
231,64.0,0.0,60.0,0.0,0.0
232,76.0,0.0,60.0,0.0,0.0
233,40.0,0.0,60.0,0.0,0.0
234,52.0,64.0,60.0,0.0,0.0
235,51.0,0.0,60.0,0.0,0.0
236,39.0,0.0,60.0,0.0,0.0
237,75.0,64.0,60.0,0.0,0.0
238,63.0,0.0,60.0,0.0,0.0
239,38.0,0.0,60.0,0.0,0.0
240,50.0,0.0,60.0,0.0,0.0
241,62.0,64.0,60.0,0.0,0.0
242,74.0,0.0,60.0,0.0,0.0
243,63.0,0.0,60.0,0.0,0.0
244,51.0,0.0,60.0,0.0,0.0
245,75.0,64.0,60.0,0.0,0.0
246,43.0,64.0,180.0,0.0,0.0
247,39.0,0.0,60.0,0.0,0.0
248,67.0,0.0,180.0,0.0,0.0
249,38.0,0.0,60.0,0.0,0.0
250,62.0,64.0,60.0,0.0,0.0
251,50.0,0.0,60.0,0.0,0.0
252,74.0,0.0,60.0,0.0,0.0
253,39.0,0.0,60.0,0.0,0.0
254,51.0,0.0,60.0,0.0,0.0
255,75.0,0.0,60.0,0.0,0.0
256,63.0,0.0,60.0,0.0,0.0
257,62.0,64.0,60.0,0.0,0.0
258,67.0,0.0,180.0,0.0,0.0
259,74.0,0.0,60.0,0.0,0.0
260,38.0,0.0,60.0,0.0,0.0
261,50.0,0.0,60.0,0.0,0.0
262,43.0,0.0,180.0,0.0,0.0
263,73.0,64.0,60.0,0.0,0.0
264,61.0,0.0,60.0,0.0,0.0
265,49.0,0.0,60.0,0.0,0.0
266,37.0,0.0,60.0,0.0,0.0
267,48.0,0.0,60.0,0.0,0.0
268,36.0,64.0,60.0,0.0,0.0
269,72.0,0.0,60.0,0.0,0.0
270,60.0,0.0,60.0,0.0,0.0
271,59.0,64.0,60.0,0.0,0.0
272,47.0,0.0,60.0,0.0,0.0
273,35.0,0.0,60.0,0.0,0.0
274,62.0,0.0,180.0,0.0,0.0
275,71.0,0.0,60.0,0.0,0.0
276,58.0,64.0,60.0,0.0,0.0
277,70.0,0.0,60.0,0.0,0.0
278,34.0,0.0,60.0,0.0,0.0
279,46.0,0.0,60.0,0.0,0.0
280,69.0,192.0,60.0,0.0,0.0
281,57.0,0.0,60.0,0.0,0.0
282,33.0,0.0,60.0,0.0,0.0
283,45.0,0.0,60.0,0.0,0.0
284,38.0,0.0,15.0,0.0,0.0
285,62.0,0.0,180.0,0.0,0.0
286,55.0,0.0,15.0,0.0,0.0
287,63.0,0.0,390.0,0.0,0.0
288,67.0,0.0,15.0,0.0,0.0
289,43.0,0.0,15.0,0.0,0.0
290,31.0,64.0,15.0,0.0,0.0
291,39.0,0.0,390.0,0.0,0.0
292,54.0,0.0,60.0,0.0,0.0
293,30.0,64.0,60.0,0.0,0.0
294,42.0,0.0,60.0,0.0,0.0
295,66.0,0.0,60.0,0.0,0.0
296,67.0,0.0,60.0,0.0,0.0
297,55.0,0.0,60.0,0.0,0.0
298,43.0,64.0,60.0,0.0,0.0
299,31.0,0.0,60.0,0.0,0.0
300,57.0,64.0,60.0,0.0,0.0
301,33.0,0.0,60.0,0.0,0.0
302,45.0,0.0,60.0,0.0,0.0
303,69.0,0.0,60.0,0.0,0.0
304,70.0,0.0,60.0,0.0,0.0
305,58.0,64.0,60.0,0.0,0.0
306,46.0,0.0,60.0,0.0,0.0
307,34.0,0.0,60.0,0.0,0.0
308,60.0,0.0,60.0,0.0,0.0
309,72.0,0.0,60.0,0.0,0.0
310,48.0,64.0,60.0,0.0,0.0
311,36.0,0.0,60.0,0.0,0.0
312,70.0,64.0,60.0,0.0,0.0
313,62.0,0.0,180.0,0.0,0.0
314,38.0,64.0,180.0,0.0,0.0
315,58.0,0.0,60.0,0.0,0.0
316,46.0,0.0,60.0,0.0,0.0
317,34.0,0.0,60.0,0.0,0.0
318,45.0,0.0,60.0,0.0,0.0
319,69.0,0.0,60.0,0.0,0.0
320,57.0,0.0,60.0,0.0,0.0
321,33.0,64.0,60.0,0.0,0.0
322,55.0,0.0,60.0,0.0,0.0
323,43.0,0.0,60.0,0.0,0.0
324,31.0,0.0,60.0,0.0,0.0
325,67.0,0.0,60.0,0.0,0.0
326,42.0,0.0,60.0,0.0,0.0
327,66.0,0.0,60.0,0.0,0.0
328,54.0,0.0,60.0,0.0,0.0
329,30.0,64.0,60.0,0.0,0.0
330,67.0,0.0,60.0,0.0,0.0
331,43.0,0.0,60.0,0.0,0.0
332,31.0,64.0,60.0,0.0,0.0
333,55.0,0.0,60.0,0.0,0.0
334,69.0,64.0,60.0,0.0,0.0
335,57.0,0.0,60.0,0.0,0.0
336,45.0,0.0,60.0,0.0,0.0
337,33.0,0.0,60.0,0.0,0.0
338,31.0,0.0,60.0,0.0,0.0
339,43.0,0.0,60.0,0.0,0.0
340,39.0,0.0,390.0,0.0,0.0
341,63.0,0.0,390.0,0.0,0.0
342,67.0,0.0,60.0,0.0,0.0
343,55.0,64.0,60.0,0.0,0.0
344,30.0,0.0,60.0,0.0,0.0
345,42.0,0.0,60.0,0.0,0.0
346,66.0,0.0,60.0,0.0,0.0
347,54.0,64.0,60.0,0.0,0.0
348,55.0,0.0,60.0,0.0,0.0
349,67.0,0.0,60.0,0.0,0.0
350,43.0,64.0,60.0,0.0,0.0
351,31.0,0.0,60.0,0.0,0.0
352,45.0,0.0,60.0,0.0,0.0
353,33.0,64.0,60.0,0.0,0.0
354,69.0,0.0,60.0,0.0,0.0
355,57.0,0.0,60.0,0.0,0.0
356,58.0,0.0,60.0,0.0,0.0
357,46.0,0.0,60.0,0.0,0.0
358,34.0,64.0,60.0,0.0,0.0
359,70.0,0.0,60.0,0.0,0.0
360,48.0,0.0,60.0,0.0,0.0
361,36.0,0.0,60.0,0.0,0.0
362,72.0,64.0,60.0,0.0,0.0
363,60.0,0.0,60.0,0.0,0.0
364,38.0,0.0,180.0,0.0,0.0
365,34.0,0.0,60.0,0.0,0.0
366,46.0,64.0,60.0,0.0,0.0
367,62.0,64.0,180.0,0.0,0.0
368,70.0,0.0,60.0,0.0,0.0
369,58.0,0.0,60.0,0.0,0.0
370,69.0,0.0,60.0,0.0,0.0
371,57.0,0.0,60.0,0.0,0.0
372,33.0,0.0,60.0,0.0,0.0
373,45.0,64.0,60.0,0.0,0.0
374,31.0,0.0,60.0,0.0,0.0
375,67.0,0.0,60.0,0.0,0.0
376,55.0,0.0,60.0,0.0,0.0
377,43.0,0.0,60.0,0.0,0.0
378,54.0,0.0,60.0,0.0,0.0
379,42.0,0.0,60.0,0.0,0.0
380,30.0,64.0,60.0,0.0,0.0
381,66.0,0.0,60.0,0.0,0.0
382,43.0,0.0,60.0,0.0,0.0
383,55.0,0.0,60.0,0.0,0.0
384,67.0,0.0,60.0,0.0,0.0
385,31.0,64.0,60.0,0.0,0.0
386,57.0,64.0,60.0,0.0,0.0
387,45.0,0.0,60.0,0.0,0.0
388,33.0,0.0,60.0,0.0,0.0
389,69.0,0.0,60.0,0.0,0.0
390,42.0,0.0,390.0,0.0,0.0
391,34.0,0.0,60.0,0.0,0.0
392,70.0,0.0,60.0,0.0,0.0
393,66.0,0.0,390.0,0.0,0.0
394,58.0,64.0,60.0,0.0,0.0
395,46.0,0.0,60.0,0.0,0.0
396,69.0,0.0,60.0,0.0,0.0
397,57.0,0.0,60.0,0.0,0.0
398,45.0,64.0,60.0,0.0,0.0
399,33.0,0.0,60.0,0.0,0.0
400,70.0,64.0,60.0,0.0,0.0
401,58.0,0.0,60.0,0.0,0.0
402,34.0,0.0,60.0,0.0,0.0
403,46.0,0.0,60.0,0.0,0.0
404,48.0,0.0,60.0,0.0,0.0
405,72.0,0.0,60.0,0.0,0.0
406,60.0,64.0,60.0,0.0,0.0
407,36.0,0.0,60.0,0.0,0.0
408,49.0,64.0,60.0,0.0,0.0
409,37.0,0.0,60.0,0.0,0.0
410,61.0,0.0,60.0,0.0,0.0
411,73.0,0.0,60.0,0.0,0.0
412,63.0,0.0,60.0,0.0,0.0
413,39.0,0.0,60.0,0.0,0.0
414,75.0,0.0,60.0,0.0,0.0
415,51.0,64.0,60.0,0.0,0.0
416,61.0,0.0,60.0,0.0,0.0
417,65.0,0.0,180.0,0.0,0.0
418,73.0,64.0,60.0,0.0,0.0
419,37.0,0.0,60.0,0.0,0.0
420,41.0,0.0,180.0,0.0,0.0
421,49.0,0.0,60.0,0.0,0.0
422,60.0,0.0,60.0,0.0,0.0
423,36.0,0.0,60.0,0.0,0.0
424,48.0,64.0,60.0,0.0,0.0
425,72.0,0.0,60.0,0.0,0.0
426,70.0,0.0,60.0,0.0,0.0
427,58.0,64.0,60.0,0.0,0.0
428,34.0,0.0,60.0,0.0,0.0
429,46.0,0.0,60.0,0.0,0.0
430,69.0,0.0,60.0,0.0,0.0
431,45.0,64.0,60.0,0.0,0.0
432,57.0,0.0,60.0,0.0,0.0
433,33.0,0.0,60.0,0.0,0.0
434,70.0,0.0,60.0,0.0,0.0
435,58.0,0.0,60.0,0.0,0.0
436,46.0,64.0,60.0,0.0,0.0
437,34.0,0.0,60.0,0.0,0.0
438,60.0,0.0,60.0,0.0,0.0
439,72.0,0.0,60.0,0.0,0.0
440,36.0,0.0,60.0,0.0,0.0
441,48.0,64.0,60.0,0.0,0.0
442,70.0,64.0,60.0,0.0,0.0
443,66.0,0.0,390.0,0.0,0.0
444,58.0,0.0,60.0,0.0,0.0
445,34.0,0.0,60.0,0.0,0.0
446,42.0,0.0,390.0,0.0,0.0
447,46.0,0.0,60.0,0.0,0.0
448,33.0,0.0,60.0,0.0,0.0
449,45.0,0.0,60.0,0.0,0.0
450,57.0,0.0,60.0,0.0,0.0
451,69.0,64.0,60.0,0.0,0.0
452,70.0,0.0,60.0,0.0,0.0
453,34.0,0.0,60.0,0.0,0.0
454,46.0,0.0,60.0,0.0,0.0
455,58.0,64.0,60.0,0.0,0.0
456,72.0,0.0,60.0,0.0,0.0
457,60.0,64.0,60.0,0.0,0.0
458,48.0,0.0,60.0,0.0,0.0
459,36.0,0.0,60.0,0.0,0.0
460,37.0,0.0,60.0,0.0,0.0
461,61.0,0.0,60.0,0.0,0.0
462,73.0,64.0,60.0,0.0,0.0
463,49.0,0.0,60.0,0.0,0.0
464,63.0,64.0,60.0,0.0,0.0
465,39.0,0.0,60.0,0.0,0.0
466,51.0,0.0,60.0,0.0,0.0
467,75.0,0.0,60.0,0.0,0.0
468,73.0,0.0,60.0,0.0,0.0
469,65.0,0.0,180.0,0.0,0.0
470,61.0,0.0,60.0,0.0,0.0
471,49.0,64.0,60.0,0.0,0.0
472,41.0,0.0,180.0,0.0,0.0
473,37.0,0.0,60.0,0.0,0.0
474,60.0,0.0,60.0,0.0,0.0
475,72.0,0.0,60.0,0.0,0.0
476,36.0,0.0,60.0,0.0,0.0
477,48.0,64.0,60.0,0.0,0.0
478,70.0,0.0,60.0,0.0,0.0
479,58.0,0.0,60.0,0.0,0.0
480,34.0,0.0,60.0,0.0,0.0
481,46.0,64.0,60.0,0.0,0.0
482,33.0,0.0,60.0,0.0,0.0
483,45.0,0.0,60.0,0.0,0.0
484,57.0,64.0,60.0,0.0,0.0
485,69.0,0.0,60.0,0.0,0.0
486,34.0,64.0,60.0,0.0,0.0
487,46.0,0.0,60.0,0.0,0.0
488,70.0,0.0,60.0,0.0,0.0
489,58.0,0.0,60.0,0.0,0.0
490,72.0,64.0,60.0,0.0,0.0
491,60.0,0.0,60.0,0.0,0.0
492,48.0,0.0,60.0,0.0,0.0
493,36.0,0.0,60.0,0.0,0.0
494,66.0,0.0,180.0,0.0,0.0
495,51.0,0.0,60.0,0.0,0.0
496,39.0,0.0,60.0,0.0,0.0
497,60.0,64.0,60.0,0.0,0.0
498,69.0,0.0,180.0,0.0,0.0
499,72.0,0.0,60.0,0.0,0.0
500,71.0,0.0,60.0,0.0,0.0
501,59.0,64.0,60.0,0.0,0.0
502,38.0,0.0,60.0,0.0,0.0
503,50.0,0.0,60.0,0.0,0.0
504,51.0,0.0,60.0,0.0,0.0
505,39.0,64.0,60.0,0.0,0.0
506,72.0,0.0,60.0,0.0,0.0
507,60.0,0.0,60.0,0.0,0.0
508,73.0,64.0,60.0,0.0,0.0
509,61.0,0.0,60.0,0.0,0.0
510,52.0,0.0,60.0,0.0,0.0
511,40.0,0.0,60.0,0.0,0.0
512,53.0,0.0,60.0,0.0,0.0
513,41.0,64.0,60.0,0.0,0.0
514,74.0,0.0,60.0,0.0,0.0
515,62.0,0.0,60.0,0.0,0.0
516,63.0,0.0,60.0,0.0,0.0
517,42.0,0.0,60.0,0.0,0.0
518,75.0,64.0,60.0,0.0,0.0
519,54.0,0.0,60.0,0.0,0.0
520,62.0,0.0,60.0,0.0,0.0
521,53.0,64.0,60.0,0.0,0.0
522,41.0,0.0,60.0,0.0,0.0
523,71.0,0.0,180.0,0.0,0.0
524,74.0,0.0,60.0,0.0,0.0
525,68.0,0.0,180.0,0.0,0.0
526,73.0,0.0,60.0,0.0,0.0
527,61.0,64.0,60.0,0.0,0.0
528,52.0,0.0,60.0,0.0,0.0
529,40.0,0.0,60.0,0.0,0.0
530,62.0,64.0,60.0,0.0,0.0
531,53.0,0.0,60.0,0.0,0.0
532,74.0,0.0,60.0,0.0,0.0
533,41.0,0.0,60.0,0.0,0.0
534,63.0,0.0,60.0,0.0,0.0
535,75.0,0.0,60.0,0.0,0.0
536,54.0,64.0,60.0,0.0,0.0
537,42.0,0.0,60.0,0.0,0.0
538,76.0,0.0,60.0,0.0,0.0
539,64.0,0.0,60.0,0.0,0.0
540,43.0,0.0,60.0,0.0,0.0
541,55.0,64.0,60.0,0.0,0.0
542,77.0,0.0,60.0,0.0,0.0
543,65.0,0.0,60.0,0.0,0.0
544,44.0,0.0,60.0,0.0,0.0
545,56.0,64.0,60.0,0.0,0.0
546,78.0,64.0,60.0,0.0,0.0
547,72.0,0.0,180.0,0.0,0.0
548,66.0,0.0,60.0,0.0,0.0
549,57.0,0.0,60.0,0.0,0.0
550,45.0,0.0,60.0,0.0,0.0
551,79.0,0.0,60.0,0.0,0.0
552,46.0,0.0,60.0,0.0,0.0
553,58.0,64.0,60.0,0.0,0.0
554,67.0,0.0,60.0,0.0,0.0
555,59.0,0.0,60.0,0.0,0.0
556,68.0,0.0,60.0,0.0,0.0
557,80.0,0.0,60.0,0.0,0.0
558,47.0,0.0,60.0,0.0,0.0
559,81.0,0.0,60.0,0.0,0.0
560,48.0,64.0,60.0,0.0,0.0
561,60.0,0.0,60.0,0.0,0.0
562,69.0,0.0,60.0,0.0,0.0
563,75.0,64.0,15.0,0.0,0.0
564,82.0,0.0,60.0,0.0,0.0
565,61.0,0.0,60.0,0.0,0.0
566,49.0,0.0,60.0,0.0,0.0
567,70.0,64.0,60.0,0.0,0.0
568,50.0,0.0,60.0,0.0,0.0
569,62.0,0.0,60.0,0.0,0.0
570,71.0,64.0,60.0,0.0,0.0
571,83.0,0.0,60.0,0.0,0.0
572,63.0,0.0,60.0,0.0,0.0
573,51.0,0.0,60.0,0.0,0.0
574,84.0,0.0,60.0,0.0,0.0
575,72.0,64.0,60.0,0.0,0.0
576,78.0,0.0,15.0,0.0,0.0
577,64.0,64.0,60.0,0.0,0.0
578,52.0,0.0,60.0,0.0,0.0
579,85.0,0.0,60.0,0.0,0.0
580,73.0,0.0,60.0,0.0,0.0
581,65.0,0.0,60.0,0.0,0.0
582,74.0,64.0,60.0,0.0,0.0
583,86.0,0.0,60.0,0.0,0.0
584,53.0,0.0,60.0,0.0,0.0
585,54.0,0.0,60.0,0.0,0.0
586,84.0,0.0,180.0,0.0,0.0
587,81.0,0.0,15.0,0.0,0.0
588,66.0,0.0,60.0,0.0,0.0
589,67.0,0.0,60.0,0.0,0.0
590,55.0,0.0,60.0,0.0,0.0
591,87.0,0.0,15.0,0.0,0.0
592,75.0,64.0,15.0,0.0,0.0
593,57.0,0.0,60.0,0.0,0.0
594,69.0,0.0,60.0,0.0,0.0
595,86.0,0.0,60.0,0.0,0.0
596,74.0,0.0,60.0,0.0,0.0
597,55.0,64.0,60.0,0.0,0.0
598,58.0,0.0,390.0,0.0,0.0
599,67.0,0.0,60.0,0.0,0.0
600,79.0,0.0,60.0,0.0,0.0
601,91.0,0.0,60.0,0.0,0.0
602,82.0,0.0,390.0,0.0,0.0
603,54.0,0.0,60.0,0.0,0.0
604,90.0,0.0,60.0,0.0,0.0
605,78.0,64.0,60.0,0.0,0.0
606,66.0,0.0,60.0,0.0,0.0
607,55.0,64.0,60.0,0.0,0.0
608,67.0,0.0,60.0,0.0,0.0
609,79.0,0.0,60.0,0.0,0.0
610,91.0,0.0,60.0,0.0,0.0
611,66.0,0.0,60.0,0.0,0.0
612,54.0,0.0,60.0,0.0,0.0
613,78.0,64.0,60.0,0.0,0.0
614,90.0,0.0,60.0,0.0,0.0
615,77.0,0.0,60.0,0.0,0.0
616,89.0,0.0,60.0,0.0,0.0
617,65.0,0.0,60.0,0.0,0.0
618,53.0,64.0,60.0,0.0,0.0
619,52.0,0.0,60.0,0.0,0.0
620,64.0,64.0,60.0,0.0,0.0
621,76.0,0.0,60.0,0.0,0.0
622,88.0,0.0,60.0,0.0,0.0
623,89.0,0.0,60.0,0.0,0.0
624,82.0,0.0,390.0,0.0,0.0
625,77.0,64.0,60.0,0.0,0.0
626,53.0,0.0,60.0,0.0,0.0
627,58.0,0.0,390.0,0.0,0.0
628,65.0,0.0,60.0,0.0,0.0
629,52.0,0.0,60.0,0.0,0.0
630,88.0,0.0,60.0,0.0,0.0
631,76.0,64.0,60.0,0.0,0.0
632,64.0,0.0,60.0,0.0,0.0
633,65.0,64.0,60.0,0.0,0.0
634,89.0,0.0,60.0,0.0,0.0
635,53.0,0.0,60.0,0.0,0.0
636,77.0,0.0,60.0,0.0,0.0
637,64.0,0.0,60.0,0.0,0.0
638,52.0,0.0,60.0,0.0,0.0
639,88.0,0.0,60.0,0.0,0.0
640,76.0,64.0,60.0,0.0,0.0
641,75.0,0.0,60.0,0.0,0.0
642,63.0,0.0,60.0,0.0,0.0
643,87.0,64.0,60.0,0.0,0.0
644,51.0,0.0,60.0,0.0,0.0
645,62.0,0.0,60.0,0.0,0.0
646,74.0,0.0,60.0,0.0,0.0
647,86.0,0.0,60.0,0.0,0.0
648,50.0,64.0,60.0,0.0,0.0
649,87.0,0.0,60.0,0.0,0.0
650,51.0,64.0,60.0,0.0,0.0
651,63.0,0.0,60.0,0.0,0.0
652,75.0,0.0,60.0,0.0,0.0
653,86.0,0.0,60.0,0.0,0.0
654,50.0,0.0,60.0,0.0,0.0
655,62.0,64.0,60.0,0.0,0.0
656,74.0,0.0,60.0,0.0,0.0
657,75.0,0.0,60.0,0.0,0.0
658,87.0,0.0,60.0,0.0,0.0
659,51.0,0.0,60.0,0.0,0.0
660,63.0,0.0,60.0,0.0,0.0
661,55.0,64.0,15.0,0.0,0.0
662,50.0,0.0,60.0,0.0,0.0
663,86.0,64.0,60.0,0.0,0.0
664,79.0,0.0,15.0,0.0,0.0
665,74.0,0.0,60.0,0.0,0.0
666,62.0,0.0,60.0,0.0,0.0
667,85.0,0.0,60.0,0.0,0.0
668,61.0,64.0,60.0,0.0,0.0
669,49.0,0.0,60.0,0.0,0.0
670,73.0,0.0,60.0,0.0,0.0
671,84.0,0.0,60.0,0.0,0.0
672,48.0,0.0,60.0,0.0,0.0
673,60.0,0.0,60.0,0.0,0.0
674,72.0,64.0,60.0,0.0,0.0
675,83.0,0.0,60.0,0.0,0.0
676,47.0,0.0,60.0,0.0,0.0
677,59.0,64.0,60.0,0.0,0.0
678,74.0,0.0,180.0,0.0,0.0
679,71.0,0.0,60.0,0.0,0.0
680,58.0,0.0,60.0,0.0,0.0
681,82.0,0.0,60.0,0.0,0.0
682,70.0,0.0,60.0,0.0,0.0
683,46.0,64.0,60.0,0.0,0.0
684,81.0,0.0,60.0,0.0,0.0
685,69.0,0.0,60.0,0.0,0.0
686,45.0,0.0,60.0,0.0,0.0
687,57.0,0.0,60.0,0.0,0.0
688,50.0,192.0,15.0,0.0,0.0
689,55.0,64.0,180.0,0.0,0.0
690,67.0,0.0,180.0,0.0,0.0
691,74.0,0.0,180.0,0.0,0.0
692,43.0,0.0,180.0,0.0,0.0
693,79.0,0.0,15.0,0.0,0.0
694,75.0,0.0,390.0,0.0,0.0
695,43.0,64.0,60.0,0.0,0.0
696,51.0,0.0,390.0,0.0,0.0
697,55.0,0.0,60.0,0.0,0.0
698,67.0,0.0,60.0,0.0,0.0
699,42.0,0.0,60.0,0.0,0.0
700,54.0,64.0,60.0,0.0,0.0
701,78.0,0.0,60.0,0.0,0.0
702,66.0,0.0,60.0,0.0,0.0
703,55.0,0.0,60.0,0.0,0.0
704,79.0,0.0,60.0,0.0,0.0
705,67.0,0.0,60.0,0.0,0.0
706,43.0,64.0,60.0,0.0,0.0
707,45.0,64.0,60.0,0.0,0.0
708,57.0,0.0,60.0,0.0,0.0
709,69.0,0.0,60.0,0.0,0.0
710,81.0,0.0,60.0,0.0,0.0
711,82.0,64.0,60.0,0.0,0.0
712,70.0,0.0,60.0,0.0,0.0
713,58.0,0.0,60.0,0.0,0.0
714,46.0,0.0,60.0,0.0,0.0
715,48.0,0.0,60.0,0.0,0.0
716,84.0,0.0,60.0,0.0,0.0
717,60.0,64.0,60.0,0.0,0.0
718,72.0,0.0,60.0,0.0,0.0
719,70.0,64.0,60.0,0.0,0.0
720,82.0,0.0,60.0,0.0,0.0
721,74.0,0.0,180.0,0.0,0.0
722,46.0,0.0,60.0,0.0,0.0
723,58.0,0.0,60.0,0.0,0.0
724,50.0,0.0,180.0,0.0,0.0
725,81.0,64.0,60.0,0.0,0.0
726,69.0,0.0,60.0,0.0,0.0
727,57.0,0.0,60.0,0.0,0.0
728,45.0,0.0,60.0,0.0,0.0
729,55.0,0.0,60.0,0.0,0.0
730,43.0,64.0,60.0,0.0,0.0
731,67.0,0.0,60.0,0.0,0.0
732,79.0,0.0,60.0,0.0,0.0
733,66.0,0.0,60.0,0.0,0.0
734,78.0,0.0,60.0,0.0,0.0
735,42.0,64.0,60.0,0.0,0.0
736,54.0,0.0,60.0,0.0,0.0
737,43.0,0.0,60.0,0.0,0.0
738,67.0,0.0,60.0,0.0,0.0
739,55.0,64.0,60.0,0.0,0.0
740,79.0,0.0,60.0,0.0,0.0
741,45.0,0.0,60.0,0.0,0.0
742,57.0,64.0,60.0,0.0,0.0
743,81.0,0.0,60.0,0.0,0.0
744,69.0,0.0,60.0,0.0,0.0
745,67.0,64.0,60.0,0.0,0.0
746,75.0,0.0,390.0,0.0,0.0
747,79.0,0.0,60.0,0.0,0.0
748,55.0,0.0,60.0,0.0,0.0
749,43.0,0.0,60.0,0.0,0.0
750,51.0,0.0,390.0,0.0,0.0
751,66.0,64.0,60.0,0.0,0.0
752,54.0,0.0,60.0,0.0,0.0
753,42.0,0.0,60.0,0.0,0.0
754,78.0,0.0,60.0,0.0,0.0
755,79.0,0.0,60.0,0.0,0.0
756,43.0,0.0,60.0,0.0,0.0
757,55.0,64.0,60.0,0.0,0.0
758,67.0,0.0,60.0,0.0,0.0
759,81.0,0.0,60.0,0.0,0.0
760,69.0,0.0,60.0,0.0,0.0
761,45.0,0.0,60.0,0.0,0.0
762,57.0,64.0,60.0,0.0,0.0
763,70.0,0.0,60.0,0.0,0.0
764,82.0,64.0,60.0,0.0,0.0
765,46.0,0.0,60.0,0.0,0.0
766,58.0,0.0,60.0,0.0,0.0
767,84.0,0.0,60.0,0.0,0.0
768,48.0,0.0,60.0,0.0,0.0
769,60.0,64.0,60.0,0.0,0.0
770,72.0,0.0,60.0,0.0,0.0
771,82.0,0.0,60.0,0.0,0.0
772,74.0,0.0,180.0,0.0,0.0
773,70.0,0.0,60.0,0.0,0.0
774,58.0,0.0,60.0,0.0,0.0
775,46.0,64.0,60.0,0.0,0.0
776,50.0,0.0,180.0,0.0,0.0
777,69.0,0.0,60.0,0.0,0.0
778,81.0,64.0,60.0,0.0,0.0
779,45.0,0.0,60.0,0.0,0.0
780,57.0,0.0,60.0,0.0,0.0
781,43.0,0.0,60.0,0.0,0.0
782,79.0,0.0,60.0,0.0,0.0
783,67.0,0.0,60.0,0.0,0.0
784,55.0,64.0,60.0,0.0,0.0
785,78.0,0.0,60.0,0.0,0.0
786,42.0,0.0,60.0,0.0,0.0
787,54.0,64.0,60.0,0.0,0.0
788,66.0,0.0,60.0,0.0,0.0
789,67.0,0.0,60.0,0.0,0.0
790,79.0,0.0,60.0,0.0,0.0
791,43.0,0.0,60.0,0.0,0.0
792,55.0,64.0,60.0,0.0,0.0
793,45.0,64.0,60.0,0.0,0.0
794,57.0,0.0,60.0,0.0,0.0
795,81.0,0.0,60.0,0.0,0.0
796,69.0,0.0,60.0,0.0,0.0
797,79.0,64.0,60.0,0.0,0.0
798,75.0,64.0,390.0,0.0,0.0
799,73.0,0.0,390.0,0.0,0.0
800,67.0,0.0,60.0,0.0,0.0
801,51.0,0.0,390.0,0.0,0.0
802,43.0,0.0,60.0,0.0,0.0
803,55.0,0.0,60.0,0.0,0.0
804,66.0,0.0,60.0,0.0,0.0
805,78.0,0.0,60.0,0.0,0.0
806,54.0,64.0,60.0,0.0,0.0
807,42.0,0.0,60.0,0.0,0.0
808,43.0,64.0,60.0,0.0,0.0
809,55.0,0.0,60.0,0.0,0.0
810,79.0,0.0,60.0,0.0,0.0
811,67.0,0.0,60.0,0.0,0.0
812,68.0,0.0,60.0,0.0,0.0
813,44.0,0.0,60.0,0.0,0.0
814,56.0,0.0,60.0,0.0,0.0
815,80.0,64.0,60.0,0.0,0.0
816,81.0,0.0,60.0,0.0,0.0
817,57.0,64.0,60.0,0.0,0.0
818,69.0,0.0,60.0,0.0,0.0
819,45.0,0.0,60.0,0.0,0.0
820,46.0,0.0,60.0,0.0,0.0
821,82.0,0.0,60.0,0.0,0.0
822,70.0,0.0,60.0,0.0,0.0
823,58.0,0.0,60.0,0.0,0.0
824,45.0,64.0,60.0,0.0,0.0
825,49.0,0.0,15.0,0.0,0.0
826,57.0,0.0,60.0,0.0,0.0
827,69.0,0.0,60.0,0.0,0.0
828,73.0,0.0,180.0,0.0,0.0
829,81.0,0.0,60.0,0.0,0.0
830,80.0,0.0,60.0,0.0,0.0
831,68.0,64.0,60.0,0.0,0.0
832,44.0,0.0,60.0,0.0,0.0
833,56.0,0.0,60.0,0.0,0.0
834,43.0,0.0,60.0,0.0,0.0
835,55.0,64.0,60.0,0.0,0.0
836,67.0,0.0,60.0,0.0,0.0
837,79.0,0.0,60.0,0.0,0.0
838,54.0,0.0,60.0,0.0,0.0
839,51.0,0.0,15.0,0.0,0.0
840,78.0,0.0,60.0,0.0,0.0
841,75.0,0.0,15.0,0.0,0.0
842,42.0,0.0,60.0,0.0,0.0
843,66.0,64.0,60.0,0.0,0.0
844,43.0,64.0,60.0,0.0,0.0
845,55.0,0.0,60.0,0.0,0.0
846,79.0,0.0,60.0,0.0,0.0
847,67.0,0.0,60.0,0.0,0.0
848,81.0,0.0,60.0,0.0,0.0
849,69.0,0.0,60.0,0.0,0.0
850,45.0,0.0,60.0,0.0,0.0
851,57.0,0.0,60.0,0.0,0.0
852,49.0,0.0,15.0,0.0,0.0
853,43.0,0.0,60.0,0.0,0.0
854,51.0,64.0,15.0,0.0,0.0
855,55.0,0.0,60.0,0.0,0.0
856,79.0,0.0,60.0,0.0,0.0
857,75.0,0.0,15.0,0.0,0.0
858,73.0,0.0,15.0,0.0,0.0
859,67.0,64.0,60.0,0.0,0.0
860,78.0,64.0,60.0,0.0,0.0
861,66.0,0.0,60.0,0.0,0.0
862,54.0,0.0,60.0,0.0,0.0
863,42.0,0.0,60.0,0.0,0.0
864,79.0,64.0,60.0,0.0,0.0
865,55.0,0.0,60.0,0.0,0.0
866,43.0,0.0,60.0,0.0,0.0
867,67.0,0.0,60.0,0.0,0.0
868,44.0,0.0,60.0,0.0,0.0
869,56.0,64.0,60.0,0.0,0.0
870,68.0,0.0,60.0,0.0,0.0
871,73.0,0.0,60.0,0.0,0.0
872,75.0,0.0,60.0,0.0,0.0
873,80.0,0.0,60.0,0.0,0.0
874,51.0,0.0,60.0,0.0,0.0
875,49.0,0.0,60.0,0.0,0.0
876,69.0,0.0,60.0,0.0,0.0
877,81.0,0.0,60.0,0.0,0.0
878,45.0,64.0,60.0,0.0,0.0
879,57.0,0.0,60.0,0.0,0.0
880,70.0,64.0,60.0,0.0,0.0
881,82.0,0.0,60.0,0.0,0.0
882,75.0,0.0,60.0,0.0,0.0
883,46.0,0.0,60.0,0.0,0.0
884,49.0,0.0,60.0,0.0,0.0
885,58.0,0.0,60.0,0.0,0.0
886,69.0,0.0,60.0,0.0,0.0
887,73.0,0.0,15.0,0.0,0.0
888,75.0,0.0,180.0,0.0,0.0
889,81.0,64.0,60.0,0.0,0.0
890,51.0,0.0,15.0,0.0,0.0
891,49.0,0.0,180.0,0.0,0.0
892,45.0,0.0,60.0,0.0,0.0
893,57.0,0.0,60.0,0.0,0.0
894,80.0,0.0,60.0,0.0,0.0
895,56.0,64.0,60.0,0.0,0.0
896,44.0,0.0,60.0,0.0,0.0
897,68.0,0.0,60.0,0.0,0.0
898,67.0,0.0,60.0,0.0,0.0
899,79.0,0.0,60.0,0.0,0.0
900,55.0,0.0,60.0,0.0,0.0
901,43.0,64.0,60.0,0.0,0.0
902,42.0,0.0,60.0,0.0,0.0
903,66.0,0.0,60.0,0.0,0.0
904,78.0,0.0,60.0,0.0,0.0
905,54.0,64.0,60.0,0.0,0.0
906,79.0,64.0,60.0,0.0,0.0
907,43.0,0.0,60.0,0.0,0.0
908,67.0,0.0,60.0,0.0,0.0
909,55.0,0.0,60.0,0.0,0.0
910,43.0,0.0,60.0,0.0,0.0
911,51.0,0.0,60.0,0.0,0.0
912,69.0,0.0,60.0,0.0,0.0
913,67.0,0.0,60.0,0.0,0.0
914,61.0,64.0,60.0,0.0,0.0
915,73.0,0.0,60.0,0.0,0.0
916,39.0,0.0,60.0,0.0,0.0
917,74.0,64.0,60.0,0.0,0.0
918,62.0,0.0,60.0,0.0,0.0
919,50.0,0.0,60.0,0.0,0.0
920,45.0,0.0,15.0,0.0,0.0
921,38.0,0.0,60.0,0.0,0.0
922,69.0,0.0,390.0,0.0,0.0
923,63.0,64.0,60.0,0.0,0.0
924,37.0,0.0,60.0,0.0,0.0
925,75.0,0.0,60.0,0.0,0.0
926,49.0,0.0,60.0,0.0,0.0
927,38.0,0.0,60.0,0.0,0.0
928,50.0,0.0,60.0,0.0,0.0
929,74.0,0.0,60.0,0.0,0.0
930,62.0,64.0,60.0,0.0,0.0
931,51.0,64.0,60.0,0.0,0.0
932,73.0,0.0,60.0,0.0,0.0
933,61.0,0.0,60.0,0.0,0.0
934,39.0,0.0,60.0,0.0,0.0
935,74.0,64.0,60.0,0.0,0.0
936,62.0,0.0,60.0,0.0,0.0
937,50.0,0.0,60.0,0.0,0.0
938,38.0,0.0,60.0,0.0,0.0
939,49.0,0.0,60.0,0.0,0.0
940,37.0,0.0,60.0,0.0,0.0
941,63.0,0.0,60.0,0.0,0.0
942,75.0,0.0,60.0,0.0,0.0
943,50.0,0.0,60.0,0.0,0.0
944,45.0,0.0,15.0,0.0,0.0
945,43.0,0.0,15.0,0.0,0.0
946,38.0,0.0,60.0,0.0,0.0
947,62.0,64.0,60.0,0.0,0.0
948,67.0,64.0,15.0,0.0,0.0
949,69.0,0.0,180.0,0.0,0.0
950,74.0,0.0,60.0,0.0,0.0
951,51.0,64.0,60.0,0.0,0.0
952,39.0,0.0,60.0,0.0,0.0
953,61.0,0.0,60.0,0.0,0.0
954,73.0,0.0,60.0,0.0,0.0
955,62.0,0.0,60.0,0.0,0.0
956,74.0,0.0,60.0,0.0,0.0
957,38.0,0.0,60.0,0.0,0.0
958,50.0,0.0,60.0,0.0,0.0
959,37.0,64.0,60.0,0.0,0.0
960,49.0,0.0,60.0,0.0,0.0
961,43.0,0.0,180.0,0.0,0.0
962,45.0,0.0,180.0,0.0,0.0
963,63.0,0.0,60.0,0.0,0.0
964,67.0,64.0,15.0,0.0,0.0
965,69.0,0.0,180.0,0.0,0.0
966,75.0,0.0,60.0,0.0,0.0
967,62.0,0.0,60.0,0.0,0.0
968,74.0,0.0,60.0,0.0,0.0
969,38.0,64.0,60.0,0.0,0.0
970,50.0,0.0,60.0,0.0,0.0
971,73.0,0.0,60.0,0.0,0.0
972,61.0,0.0,60.0,0.0,0.0
973,39.0,0.0,60.0,0.0,0.0
974,51.0,0.0,60.0,0.0,0.0
975,62.0,0.0,60.0,0.0,0.0
976,74.0,64.0,60.0,0.0,0.0
977,38.0,0.0,60.0,0.0,0.0
978,50.0,0.0,60.0,0.0,0.0
979,75.0,0.0,60.0,0.0,0.0
980,55.0,0.0,60.0,0.0,0.0
981,43.0,0.0,60.0,0.0,0.0
982,63.0,64.0,60.0,0.0,0.0
983,54.0,0.0,60.0,0.0,0.0
984,42.0,0.0,60.0,0.0,0.0
985,74.0,64.0,60.0,0.0,0.0
986,62.0,0.0,60.0,0.0,0.0
987,61.0,64.0,60.0,0.0,0.0
988,73.0,0.0,60.0,0.0,0.0
989,41.0,0.0,60.0,0.0,0.0
990,53.0,0.0,60.0,0.0,0.0
991,42.0,0.0,60.0,0.0,0.0
992,54.0,0.0,60.0,0.0,0.0
993,74.0,64.0,60.0,0.0,0.0
994,62.0,0.0,60.0,0.0,0.0
995,43.0,64.0,60.0,0.0,0.0
996,55.0,0.0,60.0,0.0,0.0
997,75.0,0.0,60.0,0.0,0.0
998,63.0,0.0,60.0,0.0,0.0
999,56.0,0.0,60.0,0.0,0.0
1000,74.0,64.0,60.0,0.0,0.0
1001,62.0,0.0,60.0,0.0,0.0
1002,44.0,0.0,60.0,0.0,0.0
1003,45.0,0.0,60.0,0.0,0.0
1004,57.0,0.0,60.0,0.0,0.0
1005,61.0,64.0,60.0,0.0,0.0
1006,73.0,0.0,60.0,0.0,0.0
1007,46.0,64.0,60.0,0.0,0.0
1008,62.0,0.0,60.0,0.0,0.0
1009,58.0,0.0,60.0,0.0,0.0
1010,74.0,0.0,60.0,0.0,0.0
1011,75.0,0.0,60.0,0.0,0.0
1012,63.0,0.0,60.0,0.0,0.0
1013,59.0,64.0,60.0,0.0,0.0
1014,47.0,0.0,60.0,0.0,0.0
1015,62.0,0.0,60.0,0.0,0.0
1016,74.0,0.0,60.0,0.0,0.0
1017,48.0,64.0,60.0,0.0,0.0
1018,60.0,0.0,60.0,0.0,0.0
1019,59.0,0.0,60.0,0.0,0.0
1020,47.0,0.0,60.0,0.0,0.0
1021,75.0,0.0,60.0,0.0,0.0
1022,63.0,64.0,60.0,0.0,0.0
1023,62.0,0.0,60.0,0.0,0.0
1024,74.0,0.0,60.0,0.0,0.0
1025,60.0,0.0,60.0,0.0,0.0
1026,48.0,64.0,60.0,0.0,0.0
1027,59.0,0.0,60.0,0.0,0.0
1028,63.0,0.0,60.0,0.0,0.0
1029,75.0,0.0,60.0,0.0,0.0
1030,47.0,64.0,60.0,0.0,0.0
1031,64.0,0.0,60.0,0.0,0.0
1032,76.0,0.0,60.0,0.0,0.0
1033,58.0,0.0,60.0,0.0,0.0
1034,46.0,64.0,60.0,0.0,0.0
1035,63.0,0.0,60.0,0.0,0.0
1036,75.0,0.0,60.0,0.0,0.0
1037,47.0,64.0,60.0,0.0,0.0
1038,59.0,0.0,60.0,0.0,0.0
1039,58.0,0.0,60.0,0.0,0.0
1040,64.0,0.0,60.0,0.0,0.0
1041,46.0,0.0,60.0,0.0,0.0
1042,76.0,64.0,60.0,0.0,0.0
1043,77.0,0.0,60.0,0.0,0.0
1044,57.0,0.0,60.0,0.0,0.0
1045,65.0,64.0,60.0,0.0,0.0
1046,45.0,0.0,60.0,0.0,0.0
1047,46.0,0.0,60.0,0.0,0.0
1048,58.0,64.0,60.0,0.0,0.0
1049,76.0,0.0,60.0,0.0,0.0
1050,64.0,0.0,60.0,0.0,0.0
1051,77.0,0.0,60.0,0.0,0.0
1052,65.0,0.0,60.0,0.0,0.0
1053,45.0,64.0,60.0,0.0,0.0
1054,57.0,0.0,60.0,0.0,0.0
1055,44.0,0.0,60.0,0.0,0.0
1056,66.0,0.0,60.0,0.0,0.0
1057,78.0,0.0,60.0,0.0,0.0
1058,56.0,64.0,60.0,0.0,0.0
1059,65.0,0.0,60.0,0.0,0.0
1060,77.0,0.0,60.0,0.0,0.0
1061,45.0,0.0,60.0,0.0,0.0
1062,57.0,64.0,60.0,0.0,0.0
1063,78.0,0.0,60.0,0.0,0.0
1064,44.0,0.0,60.0,0.0,0.0
1065,56.0,64.0,60.0,0.0,0.0
1066,66.0,0.0,60.0,0.0,0.0
1067,43.0,0.0,60.0,0.0,0.0
1068,67.0,0.0,60.0,0.0,0.0
1069,79.0,64.0,60.0,0.0,0.0
1070,55.0,0.0,60.0,0.0,0.0
1071,56.0,64.0,60.0,0.0,0.0
1072,44.0,0.0,60.0,0.0,0.0
1073,66.0,0.0,60.0,0.0,0.0
1074,78.0,0.0,60.0,0.0,0.0
1075,67.0,0.0,60.0,0.0,0.0
1076,43.0,64.0,60.0,0.0,0.0
1077,55.0,0.0,60.0,0.0,0.0
1078,79.0,0.0,60.0,0.0,0.0
1079,68.0,0.0,60.0,0.0,0.0
1080,80.0,64.0,60.0,0.0,0.0
1081,42.0,0.0,60.0,0.0,0.0
1082,54.0,0.0,60.0,0.0,0.0
1083,69.0,64.0,60.0,0.0,0.0
1084,81.0,0.0,60.0,0.0,0.0
1085,53.0,0.0,60.0,0.0,0.0
1086,41.0,0.0,60.0,0.0,0.0
1087,52.0,0.0,60.0,0.0,0.0
1088,82.0,0.0,60.0,0.0,0.0
1089,70.0,0.0,60.0,0.0,0.0
1090,40.0,64.0,60.0,0.0,0.0
1091,39.0,0.0,60.0,0.0,0.0
1092,51.0,0.0,60.0,0.0,0.0
1093,83.0,64.0,60.0,0.0,0.0
1094,71.0,0.0,60.0,0.0,0.0
1095,50.0,64.0,60.0,0.0,0.0
1096,38.0,0.0,60.0,0.0,0.0
1097,84.0,0.0,60.0,0.0,0.0
1098,72.0,0.0,60.0,0.0,0.0
1099,85.0,0.0,60.0,0.0,0.0
1100,37.0,64.0,60.0,0.0,0.0
1101,49.0,0.0,60.0,0.0,0.0
1102,73.0,0.0,60.0,0.0,0.0
1103,74.0,0.0,60.0,0.0,0.0
1104,86.0,0.0,60.0,0.0,0.0
1105,36.0,64.0,60.0,0.0,0.0
1106,48.0,0.0,60.0,0.0,0.0
1107,35.0,0.0,60.0,0.0,0.0
1108,47.0,0.0,60.0,0.0,0.0
1109,87.0,64.0,60.0,0.0,0.0
1110,75.0,0.0,60.0,0.0,0.0
1111,88.0,0.0,60.0,0.0,0.0
1112,76.0,0.0,60.0,0.0,0.0
1113,34.0,0.0,60.0,0.0,0.0
1114,46.0,64.0,60.0,0.0,0.0
1115,45.0,96.0,60.0,0.0,0.0
1116,90.0,0.0,60.0,0.0,0.0
1117,33.0,0.0,60.0,0.0,0.0
1118,78.0,0.0,60.0,0.0,0.0
1119,82.0,0.0,90.0,0.0,0.0
1120,85.0,0.0,90.0,0.0,0.0
1121,88.0,0.0,90.0,0.0,0.0
1122,91.0,48.0,90.0,0.0,0.0
1123,79.0,0.0,90.0,0.0,0.0
1124,31.0,0.0,90.0,0.0,0.0
1125,37.0,0.0,90.0,0.0,0.0
1126,40.0,0.0,90.0,0.0,0.0
1127,43.0,0.0,90.0,0.0,0.0
1128,76.0,0.0,40.0,0.0,0.0
1129,79.0,48.0,40.0,0.0,0.0
1130,64.0,0.0,40.0,0.0,0.0
1131,91.0,0.0,40.0,0.0,0.0
1132,63.0,0.0,40.0,0.0,0.0
1133,75.0,0.0,40.0,0.0,0.0
1134,80.0,64.0,40.0,0.0,0.0
1135,92.0,0.0,40.0,0.0,0.0
1136,81.0,64.0,60.0,0.0,0.0
1137,62.0,0.0,60.0,0.0,0.0
1138,74.0,0.0,60.0,0.0,0.0
1139,93.0,0.0,60.0,0.0,0.0
1140,73.0,64.0,60.0,0.0,0.0
1141,61.0,0.0,60.0,0.0,0.0
1142,94.0,0.0,60.0,0.0,0.0
1143,82.0,0.0,60.0,0.0,0.0
1144,64.0,0.0,60.0,0.0,0.0
1145,92.0,64.0,60.0,0.0,0.0
1146,80.0,0.0,60.0,0.0,0.0
1147,76.0,0.0,60.0,0.0,0.0
1148,61.0,0.0,60.0,0.0,0.0
1149,76.0,0.0,60.0,0.0,0.0
1150,88.0,0.0,60.0,0.0,0.0
1151,73.0,64.0,60.0,0.0,0.0
1152,85.0,0.0,60.0,0.0,0.0
1153,58.0,64.0,60.0,0.0,0.0
1154,70.0,0.0,60.0,0.0,0.0
1155,73.0,0.0,60.0,0.0,0.0
1156,74.0,0.0,60.0,0.0,0.0
1157,86.0,0.0,60.0,0.0,0.0
1158,57.0,0.0,60.0,0.0,0.0
1159,69.0,64.0,60.0,0.0,0.0
1160,87.0,64.0,60.0,0.0,0.0
1161,75.0,0.0,60.0,0.0,0.0
1162,56.0,0.0,60.0,0.0,0.0
1163,68.0,0.0,60.0,0.0,0.0
1164,76.0,0.0,60.0,0.0,0.0
1165,88.0,0.0,60.0,0.0,0.0
1166,55.0,0.0,60.0,0.0,0.0
1167,67.0,64.0,60.0,0.0,0.0
1168,73.0,64.0,60.0,0.0,0.0
1169,85.0,0.0,60.0,0.0,0.0
1170,70.0,0.0,60.0,0.0,0.0
1171,58.0,0.0,60.0,0.0,0.0
1172,70.0,0.0,60.0,0.0,0.0
1173,67.0,0.0,60.0,0.0,0.0
1174,82.0,0.0,60.0,0.0,0.0
1175,55.0,64.0,60.0,0.0,0.0
1176,79.0,0.0,60.0,0.0,0.0
1177,52.0,0.0,60.0,0.0,0.0
1178,64.0,64.0,60.0,0.0,0.0
1179,67.0,0.0,60.0,0.0,0.0
1180,51.0,0.0,60.0,0.0,0.0
1181,63.0,0.0,60.0,0.0,0.0
1182,68.0,0.0,60.0,0.0,0.0
1183,80.0,64.0,60.0,0.0,0.0
1184,62.0,0.0,60.0,0.0,0.0
1185,50.0,0.0,60.0,0.0,0.0
1186,69.0,64.0,60.0,0.0,0.0
1187,81.0,0.0,60.0,0.0,0.0
1188,70.0,64.0,60.0,0.0,0.0
1189,61.0,0.0,60.0,0.0,0.0
1190,49.0,0.0,60.0,0.0,0.0
1191,82.0,0.0,60.0,0.0,0.0
1192,52.0,0.0,60.0,0.0,0.0
1193,64.0,64.0,60.0,0.0,0.0
1194,67.0,0.0,60.0,0.0,0.0
1195,79.0,0.0,60.0,0.0,0.0
1196,75.0,0.0,60.0,0.0,0.0
1197,63.0,0.0,60.0,0.0,0.0
1198,44.0,64.0,60.0,0.0,0.0
1199,56.0,0.0,60.0,0.0,0.0
1200,76.0,0.0,60.0,0.0,0.0
1201,64.0,0.0,60.0,0.0,0.0
1202,43.0,64.0,60.0,0.0,0.0
1203,55.0,0.0,60.0,0.0,0.0
1204,73.0,0.0,60.0,0.0,0.0
1205,61.0,0.0,60.0,0.0,0.0
1206,46.0,64.0,60.0,0.0,0.0
1207,58.0,0.0,60.0,0.0,0.0
1208,39.0,64.0,60.0,0.0,0.0
1209,51.0,0.0,60.0,0.0,0.0
1210,57.0,0.0,60.0,0.0,0.0
1211,69.0,0.0,60.0,0.0,0.0
1212,58.0,0.0,60.0,0.0,0.0
1213,70.0,0.0,60.0,0.0,0.0
1214,49.0,0.0,60.0,0.0,0.0
1215,37.0,64.0,60.0,0.0,0.0
1216,40.0,64.0,60.0,0.0,0.0
1217,52.0,0.0,60.0,0.0,0.0
1218,67.0,64.0,120.0,0.0,0.0
1219,55.0,0.0,120.0,0.0,0.0
1220,38.0,0.0,120.0,0.0,0.0
1221,26.0,0.0,120.0,0.0,0.0
1222,50.0,64.0,60.0,0.0,0.0
1223,62.0,0.0,60.0,0.0,0.0
1224,66.0,0.0,60.0,0.0,0.0
1225,54.0,0.0,60.0,0.0,0.0
1226,30.0,0.0,60.0,0.0,0.0
1227,42.0,64.0,60.0,0.0,0.0
1228,33.0,0.0,60.0,0.0,0.0
1229,45.0,64.0,60.0,0.0,0.0
1230,57.0,0.0,60.0,0.0,0.0
1231,69.0,0.0,60.0,0.0,0.0
1232,30.0,0.0,60.0,0.0,0.0
1233,54.0,0.0,60.0,0.0,0.0
1234,66.0,64.0,60.0,0.0,0.0
1235,42.0,0.0,60.0,0.0,0.0
1236,46.0,64.0,60.0,0.0,0.0
1237,58.0,0.0,60.0,0.0,0.0
1238,34.0,0.0,60.0,0.0,0.0
1239,70.0,0.0,60.0,0.0,0.0
1240,66.0,0.0,60.0,0.0,0.0
1241,54.0,64.0,60.0,0.0,0.0
1242,30.0,0.0,60.0,0.0,0.0
1243,42.0,0.0,60.0,0.0,0.0
1244,31.0,0.0,60.0,0.0,0.0
1245,43.0,0.0,60.0,0.0,0.0
1246,67.0,64.0,60.0,0.0,0.0
1247,55.0,0.0,60.0,0.0,0.0
1248,36.0,64.0,60.0,0.0,0.0
1249,48.0,0.0,60.0,0.0,0.0
1250,60.0,0.0,60.0,0.0,0.0
1251,72.0,0.0,60.0,0.0,0.0
1252,57.0,0.0,60.0,0.0,0.0
1253,69.0,0.0,60.0,0.0,0.0
1254,45.0,64.0,60.0,0.0,0.0
1255,33.0,0.0,60.0,0.0,0.0
1256,58.0,64.0,60.0,0.0,0.0
1257,46.0,0.0,60.0,0.0,0.0
1258,70.0,0.0,60.0,0.0,0.0
1259,34.0,0.0,60.0,0.0,0.0
1260,39.0,0.0,60.0,0.0,0.0
1261,51.0,0.0,60.0,0.0,0.0
1262,63.0,0.0,60.0,0.0,0.0
1263,75.0,64.0,60.0,0.0,0.0
1264,37.0,0.0,60.0,0.0,0.0
1265,49.0,0.0,60.0,0.0,0.0
1266,61.0,64.0,60.0,0.0,0.0
1267,73.0,0.0,60.0,0.0,0.0
1268,62.0,0.0,60.0,0.0,0.0
1269,74.0,64.0,60.0,0.0,0.0
1270,50.0,0.0,60.0,0.0,0.0
1271,38.0,0.0,60.0,0.0,0.0
1272,42.0,0.0,60.0,0.0,0.0
1273,54.0,0.0,60.0,0.0,0.0
1274,78.0,64.0,60.0,0.0,0.0
1275,66.0,0.0,60.0,0.0,0.0
1276,45.0,0.0,60.0,0.0,0.0
1277,69.0,0.0,60.0,0.0,0.0
1278,81.0,64.0,60.0,0.0,0.0
1279,57.0,0.0,60.0,0.0,0.0
1280,66.0,0.0,60.0,0.0,0.0
1281,78.0,0.0,60.0,0.0,0.0
1282,42.0,0.0,60.0,0.0,0.0
1283,54.0,64.0,60.0,0.0,0.0
1284,70.0,0.0,60.0,0.0,0.0
1285,82.0,0.0,60.0,0.0,0.0
1286,46.0,64.0,60.0,0.0,0.0
1287,58.0,0.0,60.0,0.0,0.0
1288,54.0,0.0,60.0,0.0,0.0
1289,42.0,64.0,60.0,0.0,0.0
1290,78.0,0.0,60.0,0.0,0.0
1291,66.0,0.0,60.0,0.0,0.0
1292,43.0,0.0,60.0,0.0,0.0
1293,67.0,64.0,60.0,0.0,0.0
1294,55.0,0.0,60.0,0.0,0.0
1295,79.0,0.0,60.0,0.0,0.0
1296,48.0,0.0,60.0,0.0,0.0
1297,60.0,64.0,60.0,0.0,0.0
1298,84.0,0.0,60.0,0.0,0.0
1299,72.0,0.0,60.0,0.0,0.0
1300,69.0,64.0,60.0,0.0,0.0
1301,81.0,0.0,60.0,0.0,0.0
1302,45.0,0.0,60.0,0.0,0.0
1303,57.0,0.0,60.0,0.0,0.0
1304,82.0,0.0,60.0,0.0,0.0
1305,58.0,64.0,60.0,0.0,0.0
1306,70.0,0.0,60.0,0.0,0.0
1307,46.0,0.0,60.0,0.0,0.0
1308,87.0,0.0,60.0,0.0,0.0
1309,51.0,0.0,60.0,0.0,0.0
1310,63.0,0.0,60.0,0.0,0.0
1311,75.0,64.0,60.0,0.0,0.0
1312,49.0,0.0,60.0,0.0,0.0
1313,85.0,0.0,60.0,0.0,0.0
1314,73.0,64.0,60.0,0.0,0.0
1315,61.0,0.0,60.0,0.0,0.0
1316,62.0,0.0,60.0,0.0,0.0
1317,86.0,0.0,60.0,0.0,0.0
1318,74.0,64.0,60.0,0.0,0.0
1319,50.0,0.0,60.0,0.0,0.0
1320,90.0,0.0,60.0,0.0,0.0
1321,78.0,0.0,60.0,0.0,0.0
1322,66.0,0.0,60.0,0.0,0.0
1323,54.0,64.0,60.0,0.0,0.0
1324,81.0,0.0,60.0,0.0,0.0
1325,93.0,0.0,60.0,0.0,0.0
1326,69.0,0.0,60.0,0.0,0.0
1327,57.0,64.0,60.0,0.0,0.0
1328,54.0,0.0,60.0,0.0,0.0
1329,66.0,0.0,60.0,0.0,0.0
1330,90.0,0.0,60.0,0.0,0.0
1331,78.0,64.0,60.0,0.0,0.0
1332,70.0,384.0,60.0,0.0,0.0
1333,94.0,0.0,60.0,0.0,0.0
1334,82.0,0.0,60.0,0.0,0.0
1335,58.0,0.0,60.0,0.0,0.0
1336,37.0,0.0,390.0,0.0,0.0
1337,67.0,0.0,390.0,0.0,0.0
1338,63.0,0.0,390.0,0.0,0.0
1339,58.0,0.0,390.0,0.0,0.0
1340,55.0,0.0,390.0,0.0,0.0
1341,25.0,64.0,390.0,0.0,0.0
1342,24.0,0.0,60.0,0.0,0.0
1343,36.0,0.0,60.0,0.0,0.0
1344,56.0,0.0,60.0,0.0,0.0
1345,63.0,64.0,60.0,0.0,0.0
1346,68.0,0.0,60.0,0.0,0.0
1347,37.0,0.0,60.0,0.0,0.0
1348,25.0,0.0,60.0,0.0,0.0
1349,59.0,0.0,60.0,0.0,0.0
1350,65.0,64.0,60.0,0.0,0.0
1351,66.0,96.0,60.0,0.0,0.0
1352,57.0,0.0,150.0,0.0,0.0
1353,54.0,0.0,60.0,0.0,0.0
1354,26.0,0.0,60.0,0.0,0.0
1355,38.0,0.0,60.0,0.0,0.0
1356,30.0,0.0,90.0,0.0,0.0
1357,42.0,0.0,90.0,0.0,0.0
1358,50.0,0.0,90.0,0.0,0.0
1359,60.0,0.0,90.0,0.0,0.0
1360,62.0,1248.0,90.0,0.0,0.0
1361,72.0,192.0,780.0,0.0,0.0
1362,60.0,0.0,780.0,0.0,0.0
1363,62.0,192.0,180.0,0.0,0.0
1364,74.0,0.0,180.0,0.0,0.0
1365,57.0,0.0,180.0,0.0,0.0
1366,69.0,96.0,180.0,0.0,0.0
1367,50.0,0.0,390.0,0.0,0.0
1368,43.0,0.0,390.0,0.0,0.0
1369,59.0,0.0,90.0,0.0,0.0
1370,71.0,96.0,90.0,0.0,0.0
1371,60.0,0.0,90.0,0.0,0.0
1372,72.0,96.0,90.0,0.0,0.0
1373,71.0,96.0,90.0,0.0,0.0
1374,59.0,0.0,90.0,0.0,0.0
1375,57.0,0.0,90.0,0.0,0.0
1376,69.0,96.0,90.0,0.0,0.0
1377,52.0,96.0,180.0,0.0,0.0
1378,36.0,0.0,180.0,0.0,0.0
1379,59.0,0.0,90.0,0.0,0.0
1380,71.0,96.0,90.0,0.0,0.0
1381,72.0,0.0,90.0,0.0,0.0
1382,60.0,0.0,90.0,0.0,0.0
1383,71.0,96.0,90.0,0.0,0.0
1384,38.0,0.0,180.0,0.0,0.0
1385,48.0,96.0,180.0,0.0,0.0
1386,54.0,0.0,180.0,0.0,0.0
1387,59.0,0.0,90.0,0.0,0.0
1388,57.0,0.0,90.0,0.0,0.0
1389,69.0,0.0,90.0,0.0,0.0
1390,67.0,0.0,90.0,0.0,0.0
1391,55.0,96.0,90.0,0.0,0.0
1392,50.0,0.0,390.0,0.0,0.0
1393,69.0,0.0,90.0,0.0,0.0
1394,57.0,96.0,90.0,0.0,0.0
1395,43.0,0.0,180.0,0.0,0.0
1396,59.0,0.0,90.0,0.0,0.0
1397,71.0,96.0,90.0,0.0,0.0
1398,55.0,96.0,90.0,0.0,0.0
1399,67.0,0.0,90.0,0.0,0.0
1400,71.0,96.0,90.0,0.0,0.0
1401,59.0,0.0,90.0,0.0,0.0
1402,72.0,0.0,90.0,0.0,0.0
1403,60.0,96.0,90.0,0.0,0.0
1404,55.0,0.0,390.0,0.0,0.0
1405,47.0,0.0,180.0,0.0,0.0
1406,73.0,96.0,90.0,0.0,0.0
1407,61.0,0.0,90.0,0.0,0.0
1408,74.0,0.0,90.0,0.0,0.0
1409,62.0,96.0,90.0,0.0,0.0
1410,66.0,96.0,90.0,0.0,0.0
1411,78.0,0.0,90.0,0.0,0.0
1412,48.0,96.0,180.0,0.0,0.0
1413,57.0,0.0,180.0,0.0,0.0
1414,64.0,0.0,90.0,0.0,0.0
1415,76.0,0.0,90.0,0.0,0.0
1416,62.0,96.0,90.0,0.0,0.0
1417,74.0,0.0,90.0,0.0,0.0
1418,72.0,0.0,90.0,0.0,0.0
1419,60.0,96.0,90.0,0.0,0.0
1420,71.0,96.0,90.0,0.0,0.0
1421,59.0,0.0,90.0,0.0,0.0
1422,54.0,96.0,180.0,0.0,0.0
1423,48.0,0.0,180.0,0.0,0.0
1424,38.0,0.0,180.0,0.0,0.0
1425,57.0,0.0,90.0,0.0,0.0
1426,69.0,0.0,90.0,0.0,0.0
1427,71.0,96.0,90.0,0.0,0.0
1428,59.0,0.0,90.0,0.0,0.0
1429,43.0,0.0,180.0,0.0,0.0
1430,47.0,0.0,180.0,0.0,0.0
1431,67.0,0.0,90.0,0.0,0.0
1432,69.0,96.0,90.0,0.0,0.0
1433,57.0,0.0,90.0,0.0,0.0
1434,55.0,96.0,15.0,0.0,0.0
1435,40.0,0.0,180.0,0.0,0.0
1436,49.0,0.0,180.0,0.0,0.0
1437,71.0,96.0,90.0,0.0,0.0
1438,59.0,0.0,90.0,0.0,0.0
1439,57.0,96.0,90.0,0.0,0.0
1440,69.0,0.0,90.0,0.0,0.0
1441,33.0,96.0,180.0,0.0,0.0
1442,64.0,0.0,90.0,0.0,0.0
1443,76.0,0.0,90.0,0.0,0.0
1444,79.0,96.0,90.0,0.0,0.0
1445,67.0,0.0,90.0,0.0,0.0
1446,55.0,0.0,180.0,0.0,0.0
1447,61.0,0.0,180.0,0.0,0.0
1448,71.0,0.0,90.0,0.0,0.0
1449,83.0,96.0,90.0,0.0,0.0
1450,50.0,0.0,180.0,0.0,0.0
1451,54.0,0.0,180.0,0.0,0.0
1452,62.0,96.0,180.0,0.0,0.0
1453,69.0,96.0,90.0,0.0,0.0
1454,81.0,0.0,90.0,0.0,0.0
1455,71.0,0.0,90.0,0.0,0.0
1456,83.0,0.0,90.0,0.0,0.0
1457,81.0,96.0,90.0,0.0,0.0
1458,69.0,0.0,90.0,0.0,0.0
1459,42.0,0.0,180.0,0.0,0.0
1460,57.0,0.0,180.0,0.0,0.0
1461,66.0,0.0,90.0,0.0,0.0
1462,78.0,0.0,90.0,0.0,0.0
1463,64.0,0.0,90.0,0.0,0.0
1464,43.0,0.0,180.0,0.0,0.0
1465,50.0,96.0,15.0,0.0,0.0
1466,59.0,0.0,180.0,0.0,0.0
1467,76.0,96.0,90.0,0.0,0.0
1468,66.0,0.0,90.0,0.0,0.0
1469,78.0,0.0,90.0,0.0,0.0
1470,64.0,96.0,90.0,0.0,0.0
1471,76.0,0.0,90.0,0.0,0.0
1472,74.0,96.0,90.0,0.0,0.0
1473,62.0,0.0,90.0,0.0,0.0
1474,59.0,96.0,90.0,0.0,0.0
1475,55.0,0.0,180.0,0.0,0.0
1476,71.0,0.0,90.0,0.0,0.0
1477,62.0,0.0,90.0,0.0,0.0
1478,74.0,96.0,90.0,0.0,0.0
1479,54.0,0.0,180.0,0.0,0.0
1480,71.0,0.0,90.0,0.0,0.0
1481,59.0,96.0,90.0,0.0,0.0
1482,57.0,0.0,90.0,0.0,0.0
1483,69.0,0.0,90.0,0.0,0.0
1484,52.0,0.0,180.0,0.0,0.0
1485,49.0,192.0,180.0,0.0,0.0
1486,45.0,192.0,15.0,0.0,0.0
1487,64.0,0.0,180.0,0.0,0.0
1488,66.0,0.0,390.0,0.0,0.0
1489,54.0,96.0,390.0,0.0,0.0
1490,38.0,0.0,390.0,0.0,0.0
1491,45.0,0.0,390.0,0.0,0.0
1492,62.0,192.0,180.0,0.0,0.0
1493,60.0,0.0,180.0,0.0,0.0
1494,50.0,0.0,390.0,0.0,0.0
1495,59.0,0.0,90.0,0.0,0.0
1496,62.0,96.0,90.0,0.0,0.0
1497,43.0,0.0,180.0,0.0,0.0
1498,54.0,0.0,90.0,0.0,0.0
1499,66.0,96.0,90.0,0.0,0.0
1500,67.0,0.0,90.0,0.0,0.0
1501,55.0,96.0,90.0,0.0,0.0
1502,69.0,96.0,90.0,0.0,0.0
1503,57.0,0.0,90.0,0.0,0.0
1504,59.0,24.0,90.0,0.0,0.0
1505,71.0,0.0,90.0,0.0,0.0
1506,36.0,0.0,180.0,0.0,0.0
1507,52.0,0.0,180.0,0.0,0.0
1508,74.0,0.0,20.0,0.0,0.0
1509,62.0,72.0,20.0,0.0,0.0
1510,72.0,0.0,60.0,0.0,0.0
1511,60.0,96.0,60.0,0.0,0.0
1512,54.0,0.0,180.0,0.0,0.0
1513,38.0,0.0,180.0,0.0,0.0
1514,48.0,96.0,180.0,0.0,0.0
1515,71.0,0.0,90.0,0.0,0.0
1516,59.0,96.0,90.0,0.0,0.0
1517,69.0,0.0,90.0,0.0,0.0
1518,57.0,0.0,90.0,0.0,0.0
1519,55.0,0.0,90.0,0.0,0.0
1520,50.0,0.0,390.0,0.0,0.0
1521,67.0,96.0,90.0,0.0,0.0
1522,57.0,0.0,90.0,0.0,0.0
1523,69.0,96.0,90.0,0.0,0.0
1524,43.0,0.0,180.0,0.0,0.0
1525,71.0,0.0,90.0,0.0,0.0
1526,59.0,96.0,90.0,0.0,0.0
1527,67.0,96.0,90.0,0.0,0.0
1528,55.0,0.0,90.0,0.0,0.0
1529,59.0,0.0,90.0,0.0,0.0
1530,71.0,96.0,90.0,0.0,0.0
1531,60.0,0.0,90.0,0.0,0.0
1532,72.0,96.0,90.0,0.0,0.0
1533,61.0,0.0,90.0,0.0,0.0
1534,73.0,96.0,90.0,0.0,0.0
1535,47.0,0.0,180.0,0.0,0.0
1536,55.0,0.0,390.0,0.0,0.0
1537,62.0,0.0,90.0,0.0,0.0
1538,74.0,96.0,90.0,0.0,0.0
1539,66.0,96.0,90.0,0.0,0.0
1540,57.0,0.0,180.0,0.0,0.0
1541,48.0,96.0,180.0,0.0,0.0
1542,78.0,0.0,90.0,0.0,0.0
1543,76.0,0.0,90.0,0.0,0.0
1544,64.0,0.0,90.0,0.0,0.0
1545,62.0,96.0,90.0,0.0,0.0
1546,74.0,0.0,90.0,0.0,0.0
1547,72.0,96.0,90.0,0.0,0.0
1548,60.0,0.0,90.0,0.0,0.0
1549,59.0,96.0,90.0,0.0,0.0
1550,71.0,0.0,90.0,0.0,0.0
1551,38.0,96.0,180.0,0.0,0.0
1552,48.0,0.0,180.0,0.0,0.0
1553,54.0,0.0,180.0,0.0,0.0
1554,57.0,0.0,90.0,0.0,0.0
1555,69.0,0.0,90.0,0.0,0.0
1556,55.0,0.0,180.0,0.0,0.0
1557,71.0,96.0,90.0,0.0,0.0
1558,59.0,0.0,90.0,0.0,0.0
1559,47.0,96.0,180.0,0.0,0.0
1560,43.0,0.0,180.0,0.0,0.0
1561,67.0,0.0,90.0,0.0,0.0
1562,50.0,96.0,180.0,0.0,0.0
1563,44.0,0.0,390.0,0.0,0.0
1564,70.0,0.0,90.0,0.0,0.0
1565,58.0,96.0,90.0,0.0,0.0
1566,53.0,0.0,180.0,0.0,0.0
1567,59.0,0.0,90.0,0.0,0.0
1568,71.0,0.0,90.0,0.0,0.0
1569,60.0,0.0,90.0,0.0,0.0
1570,52.0,96.0,180.0,0.0,0.0
1571,72.0,96.0,90.0,0.0,0.0
1572,59.0,0.0,90.0,0.0,0.0
1573,71.0,0.0,90.0,0.0,0.0
1574,62.0,0.0,90.0,0.0,0.0
1575,74.0,96.0,90.0,0.0,0.0
1576,45.0,96.0,180.0,0.0,0.0
1577,60.0,0.0,90.0,0.0,0.0
1578,72.0,0.0,90.0,0.0,0.0
1579,53.0,0.0,180.0,0.0,0.0
1580,61.0,0.0,90.0,0.0,0.0
1581,56.0,0.0,180.0,0.0,0.0
1582,73.0,96.0,90.0,0.0,0.0
1583,47.0,0.0,390.0,0.0,0.0
1584,74.0,96.0,90.0,0.0,0.0
1585,62.0,0.0,90.0,0.0,0.0
1586,55.0,0.0,180.0,0.0,0.0
1587,64.0,0.0,90.0,0.0,0.0
1588,76.0,96.0,90.0,0.0,0.0
1589,62.0,96.0,90.0,0.0,0.0
1590,74.0,0.0,90.0,0.0,0.0
1591,65.0,0.0,90.0,0.0,0.0
1592,77.0,96.0,90.0,0.0,0.0
1593,48.0,0.0,180.0,0.0,0.0
1594,64.0,96.0,90.0,0.0,0.0
1595,76.0,0.0,90.0,0.0,0.0
1596,75.0,96.0,90.0,0.0,0.0
1597,63.0,0.0,90.0,0.0,0.0
1598,58.0,0.0,180.0,0.0,0.0
1599,49.0,0.0,1110.0,0.0,0.0
1600,55.0,0.0,180.0,0.0,0.0
1601,64.0,96.0,90.0,0.0,0.0
1602,76.0,0.0,90.0,0.0,0.0
1603,57.0,96.0,90.0,0.0,0.0
1604,66.0,0.0,90.0,0.0,0.0
1605,78.0,0.0,90.0,0.0,0.0
1606,64.0,144.0,90.0,0.0,0.0
1607,76.0,0.0,90.0,0.0,0.0
1608,55.0,0.0,90.0,0.0,0.0
1609,79.0,48.0,150.0,0.0,0.0
1610,67.0,0.0,150.0,0.0,0.0
1611,58.0,0.0,150.0,0.0,0.0
1612,78.0,0.0,15.0,0.0,0.0
1613,66.0,0.0,15.0,0.0,0.0
1614,57.0,96.0,15.0,0.0,0.0
1615,55.0,0.0,90.0,0.0,0.0
1616,76.0,0.0,90.0,0.0,0.0
1617,64.0,96.0,90.0,0.0,0.0
1618,75.0,0.0,90.0,0.0,0.0
1619,63.0,96.0,90.0,0.0,0.0
1620,54.0,0.0,90.0,0.0,0.0
1621,64.0,0.0,90.0,0.0,0.0
1622,76.0,0.0,90.0,0.0,0.0
1623,55.0,144.0,90.0,0.0,0.0
1624,67.0,0.0,150.0,0.0,0.0
1625,79.0,0.0,150.0,0.0,0.0
1626,58.0,144.0,150.0,0.0,0.0
1627,71.0,96.0,90.0,0.0,0.0
1628,63.0,0.0,180.0,0.0,0.0
1629,83.0,0.0,90.0,0.0,0.0
1630,60.0,96.0,180.0,0.0,0.0
1631,81.0,0.0,90.0,0.0,0.0
1632,69.0,0.0,90.0,0.0,0.0
1633,62.0,0.0,90.0,0.0,0.0
1634,59.0,0.0,90.0,0.0,0.0
1635,67.0,0.0,90.0,0.0,0.0
1636,79.0,96.0,90.0,0.0,0.0
1637,66.0,96.0,90.0,0.0,0.0
1638,58.0,0.0,90.0,0.0,0.0
1639,61.0,0.0,90.0,0.0,0.0
1640,78.0,0.0,90.0,0.0,0.0
1641,62.0,96.0,90.0,0.0,0.0
1642,79.0,0.0,90.0,0.0,0.0
1643,67.0,0.0,90.0,0.0,0.0
1644,59.0,0.0,90.0,0.0,0.0
1645,64.0,0.0,90.0,0.0,0.0
1646,76.0,96.0,90.0,0.0,0.0
1647,55.0,0.0,90.0,0.0,0.0
1648,58.0,0.0,90.0,0.0,0.0
1649,66.0,0.0,90.0,0.0,0.0
1650,60.0,96.0,180.0,0.0,0.0
1651,57.0,0.0,180.0,0.0,0.0
1652,78.0,96.0,90.0,0.0,0.0
1653,64.0,0.0,90.0,0.0,0.0
1654,76.0,0.0,90.0,0.0,0.0
1655,74.0,0.0,90.0,0.0,0.0
1656,62.0,0.0,90.0,0.0,0.0
1657,54.0,0.0,90.0,0.0,0.0
1658,57.0,96.0,90.0,0.0,0.0
1659,53.0,0.0,90.0,0.0,0.0
1660,61.0,0.0,90.0,0.0,0.0
1661,56.0,96.0,90.0,0.0,0.0
1662,73.0,0.0,90.0,0.0,0.0
1663,74.0,0.0,90.0,0.0,0.0
1664,54.0,0.0,90.0,0.0,0.0
1665,57.0,0.0,90.0,0.0,0.0
1666,62.0,96.0,90.0,0.0,0.0
1667,53.0,0.0,90.0,0.0,0.0
1668,50.0,0.0,90.0,0.0,0.0
1669,71.0,96.0,90.0,0.0,0.0
1670,44.0,0.0,180.0,0.0,0.0
1671,52.0,0.0,390.0,0.0,0.0
1672,59.0,0.0,15.0,0.0,0.0
1673,76.0,96.0,90.0,0.0,0.0
1674,64.0,0.0,90.0,0.0,0.0
1675,62.0,96.0,90.0,0.0,0.0
1676,74.0,0.0,90.0,0.0,0.0
1677,57.0,96.0,180.0,0.0,0.0
1678,45.0,0.0,180.0,0.0,0.0
1679,72.0,0.0,90.0,0.0,0.0
1680,60.0,96.0,90.0,0.0,0.0
1681,59.0,0.0,90.0,0.0,0.0
1682,71.0,0.0,90.0,0.0,0.0
1683,51.0,192.0,180.0,0.0,0.0
1684,48.0,0.0,180.0,0.0,0.0
1685,60.0,0.0,90.0,0.0,0.0
1686,72.0,96.0,90.0,0.0,0.0
1687,69.0,0.0,90.0,0.0,0.0
1688,57.0,0.0,90.0,0.0,0.0
1689,38.0,96.0,180.0,0.0,0.0
1690,60.0,0.0,180.0,0.0,0.0
1691,66.0,0.0,180.0,0.0,0.0
1692,50.0,0.0,960.0,0.0,0.0
1693,54.0,0.0,180.0,0.0,0.0
1694,59.0,0.0,90.0,0.0,0.0
1695,55.0,0.0,90.0,0.0,0.0
1696,43.0,288.0,90.0,0.0,0.0
1697,67.0,0.0,90.0,0.0,0.0
1698,68.0,24.0,180.0,0.0,0.0
1699,56.0,0.0,180.0,0.0,0.0
1700,69.0,24.0,20.0,0.0,0.0
1701,41.0,0.0,390.0,0.0,0.0
1702,71.0,144.0,20.0,0.0,0.0
1703,57.0,96.0,150.0,0.0,0.0
1704,69.0,0.0,150.0,0.0,0.0
1705,56.0,0.0,90.0,0.0,0.0
1706,68.0,96.0,90.0,0.0,0.0
1707,69.0,96.0,90.0,0.0,0.0
1708,57.0,0.0,90.0,0.0,0.0
1709,38.0,0.0,180.0,0.0,0.0
1710,53.0,96.0,300.0,0.0,0.0
1711,72.0,96.0,90.0,0.0,0.0
1712,65.0,0.0,300.0,0.0,0.0
1713,60.0,0.0,90.0,0.0,0.0
1714,71.0,96.0,90.0,0.0,0.0
1715,59.0,0.0,90.0,0.0,0.0
1716,40.0,0.0,390.0,0.0,0.0
1717,57.0,0.0,90.0,0.0,0.0
1718,69.0,0.0,90.0,0.0,0.0
1719,68.0,0.0,90.0,0.0,0.0
1720,64.0,96.0,90.0,0.0,0.0
1721,56.0,0.0,90.0,0.0,0.0
1722,52.0,0.0,90.0,0.0,0.0
1723,66.0,0.0,90.0,0.0,0.0
1724,54.0,96.0,90.0,0.0,0.0
1725,51.0,0.0,90.0,0.0,0.0
1726,50.0,96.0,90.0,0.0,0.0
1727,68.0,0.0,90.0,0.0,0.0
1728,56.0,0.0,90.0,0.0,0.0
1729,69.0,96.0,90.0,0.0,0.0
1730,57.0,0.0,90.0,0.0,0.0
1731,45.0,0.0,180.0,0.0,0.0
1732,48.0,0.0,180.0,0.0,0.0
1733,59.0,0.0,90.0,0.0,0.0
1734,71.0,96.0,90.0,0.0,0.0
1735,44.0,96.0,180.0,0.0,0.0
1736,53.0,0.0,390.0,0.0,0.0
1737,60.0,0.0,90.0,0.0,0.0
1738,72.0,96.0,90.0,0.0,0.0
1739,62.0,0.0,90.0,0.0,0.0
1740,74.0,0.0,90.0,0.0,0.0
1741,41.0,0.0,390.0,0.0,0.0
1742,59.0,0.0,90.0,0.0,0.0
1743,71.0,96.0,90.0,0.0,0.0
1744,60.0,96.0,90.0,0.0,0.0
1745,72.0,0.0,90.0,0.0,0.0
1746,56.0,96.0,300.0,0.0,0.0
1747,68.0,0.0,300.0,0.0,0.0
1748,64.0,0.0,90.0,0.0,0.0
1749,76.0,96.0,90.0,0.0,0.0
1750,62.0,96.0,90.0,0.0,0.0
1751,74.0,0.0,90.0,0.0,0.0
1752,43.0,0.0,390.0,0.0,0.0
1753,72.0,0.0,90.0,0.0,0.0
1754,60.0,0.0,90.0,0.0,0.0
1755,59.0,96.0,90.0,0.0,0.0
1756,67.0,0.0,90.0,0.0,0.0
1757,71.0,0.0,90.0,0.0,0.0
1758,55.0,0.0,90.0,0.0,0.0
1759,69.0,96.0,90.0,0.0,0.0
1760,54.0,0.0,90.0,0.0,0.0
1761,57.0,0.0,90.0,0.0,0.0
1762,71.0,0.0,90.0,0.0,0.0
1763,59.0,96.0,90.0,0.0,0.0
1764,53.0,0.0,90.0,0.0,0.0
1765,60.0,96.0,90.0,0.0,0.0
1766,72.0,0.0,90.0,0.0,0.0
1767,48.0,0.0,180.0,0.0,0.0
1768,52.0,0.0,90.0,0.0,0.0
1769,53.0,96.0,90.0,0.0,0.0
1770,62.0,0.0,90.0,0.0,0.0
1771,74.0,0.0,90.0,0.0,0.0
1772,76.0,96.0,90.0,0.0,0.0
1773,70.0,0.0,390.0,0.0,0.0
1774,64.0,0.0,90.0,0.0,0.0
1775,48.0,96.0,390.0,0.0,0.0
1776,55.0,0.0,90.0,0.0,0.0
1777,63.0,0.0,90.0,0.0,0.0
1778,75.0,0.0,90.0,0.0,0.0
1779,54.0,96.0,90.0,0.0,0.0
1780,66.0,0.0,90.0,0.0,0.0
1781,78.0,96.0,90.0,0.0,0.0
1782,57.0,0.0,90.0,0.0,0.0
1783,55.0,96.0,180.0,0.0,0.0
1784,64.0,0.0,90.0,0.0,0.0
1785,76.0,0.0,90.0,0.0,0.0
1786,64.0,0.0,90.0,0.0,0.0
1787,71.0,0.0,180.0,0.0,0.0
1788,76.0,0.0,90.0,0.0,0.0
1789,75.0,0.0,90.0,0.0,0.0
1790,54.0,0.0,90.0,0.0,0.0
1791,59.0,96.0,90.0,0.0,0.0
1792,75.0,0.0,90.0,0.0,0.0
1793,69.0,0.0,390.0,0.0,0.0
1794,63.0,96.0,15.0,0.0,0.0
1795,74.0,96.0,90.0,0.0,0.0
1796,62.0,0.0,90.0,0.0,0.0
1797,53.0,0.0,90.0,0.0,0.0
1798,56.0,0.0,90.0,0.0,0.0
1799,47.0,0.0,15.0,0.0,0.0
1800,65.0,0.0,90.0,0.0,0.0
1801,77.0,96.0,90.0,0.0,0.0
1802,54.0,96.0,180.0,0.0,0.0
1803,75.0,96.0,15.0,0.0,0.0
1804,63.0,0.0,15.0,0.0,0.0
1805,70.0,0.0,180.0,0.0,0.0
1806,46.0,0.0,180.0,0.0,0.0
1807,53.0,0.0,90.0,0.0,0.0
1808,62.0,0.0,90.0,0.0,0.0
1809,62.0,0.0,90.0,0.0,0.0
1810,68.0,0.0,180.0,0.0,0.0
1811,74.0,96.0,15.0,0.0,0.0
1812,46.0,0.0,480.0,0.0,0.0
1813,58.0,96.0,90.0,0.0,0.0
1814,52.0,0.0,90.0,0.0,0.0
1815,52.0,0.0,90.0,0.0,0.0
1816,61.0,0.0,15.0,0.0,0.0
1817,73.0,96.0,15.0,0.0,0.0
1818,68.0,96.0,90.0,0.0,0.0
1819,67.0,0.0,90.0,0.0,0.0
1820,73.0,0.0,15.0,0.0,0.0
1821,51.0,96.0,15.0,0.0,0.0
1822,61.0,96.0,90.0,0.0,0.0
1823,45.0,0.0,180.0,0.0,0.0
1824,60.0,0.0,90.0,0.0,0.0
1825,72.0,0.0,15.0,0.0,0.0
1826,67.0,0.0,15.0,0.0,0.0
1827,60.0,0.0,180.0,0.0,0.0
1828,51.0,0.0,180.0,0.0,0.0
1829,66.0,0.0,90.0,0.0,0.0
1830,50.0,0.0,780.0,0.0,0.0
1831,60.0,96.0,90.0,0.0,0.0
1832,66.0,0.0,180.0,0.0,0.0
1833,72.0,0.0,90.0,0.0,0.0
1834,71.0,24.0,90.0,0.0,0.0
1835,59.0,0.0,90.0,0.0,0.0
1836,72.0,72.0,20.0,0.0,0.0
1837,38.0,0.0,180.0,0.0,0.0
1838,59.0,96.0,60.0,0.0,0.0
1839,66.0,0.0,180.0,0.0,0.0
1840,71.0,0.0,60.0,0.0,0.0
1841,58.0,96.0,90.0,0.0,0.0
1842,70.0,0.0,90.0,0.0,0.0
1843,59.0,0.0,90.0,0.0,0.0
1844,67.0,0.0,180.0,0.0,0.0
1845,71.0,96.0,90.0,0.0,0.0
1846,43.0,96.0,390.0,0.0,0.0
1847,60.0,0.0,90.0,0.0,0.0
1848,72.0,96.0,90.0,0.0,0.0
1849,66.0,0.0,180.0,0.0,0.0
1850,71.0,96.0,90.0,0.0,0.0
1851,59.0,0.0,90.0,0.0,0.0
1852,69.0,0.0,90.0,0.0,0.0
1853,57.0,0.0,90.0,0.0,0.0
1854,52.0,96.0,180.0,0.0,0.0
1855,36.0,0.0,180.0,0.0,0.0
1856,59.0,0.0,90.0,0.0,0.0
1857,71.0,96.0,90.0,0.0,0.0
1858,60.0,0.0,90.0,0.0,0.0
1859,72.0,0.0,90.0,0.0,0.0
1860,59.0,0.0,90.0,0.0,0.0
1861,64.0,0.0,15.0,0.0,0.0
1862,71.0,96.0,90.0,0.0,0.0
1863,38.0,0.0,180.0,0.0,0.0
1864,48.0,96.0,180.0,0.0,0.0
1865,54.0,0.0,180.0,0.0,0.0
1866,57.0,0.0,90.0,0.0,0.0
1867,69.0,0.0,90.0,0.0,0.0
1868,67.0,0.0,90.0,0.0,0.0
1869,50.0,0.0,390.0,0.0,0.0
1870,55.0,0.0,90.0,0.0,0.0
1871,57.0,0.0,90.0,0.0,0.0
1872,69.0,96.0,90.0,0.0,0.0
1873,62.0,0.0,90.0,0.0,0.0
1874,71.0,96.0,90.0,0.0,0.0
1875,43.0,0.0,180.0,0.0,0.0
1876,55.0,0.0,90.0,0.0,0.0
1877,67.0,0.0,90.0,0.0,0.0
1878,59.0,96.0,15.0,0.0,0.0
1879,71.0,0.0,90.0,0.0,0.0
1880,60.0,0.0,90.0,0.0,0.0
1881,72.0,96.0,90.0,0.0,0.0
1882,61.0,96.0,90.0,0.0,0.0
1883,73.0,0.0,90.0,0.0,0.0
1884,55.0,0.0,390.0,0.0,0.0
1885,47.0,96.0,180.0,0.0,0.0
1886,74.0,0.0,90.0,0.0,0.0
1887,62.0,0.0,90.0,0.0,0.0
1888,78.0,0.0,90.0,0.0,0.0
1889,57.0,0.0,180.0,0.0,0.0
1890,48.0,0.0,180.0,0.0,0.0
1891,66.0,96.0,90.0,0.0,0.0
1892,64.0,0.0,90.0,0.0,0.0
1893,76.0,96.0,90.0,0.0,0.0
1894,74.0,96.0,90.0,0.0,0.0
1895,62.0,0.0,90.0,0.0,0.0
1896,72.0,0.0,90.0,0.0,0.0
1897,60.0,96.0,90.0,0.0,0.0
1898,71.0,0.0,90.0,0.0,0.0
1899,38.0,0.0,180.0,0.0,0.0
1900,48.0,0.0,180.0,0.0,0.0
1901,54.0,96.0,180.0,0.0,0.0
1902,59.0,96.0,90.0,0.0,0.0
1903,69.0,0.0,90.0,0.0,0.0
1904,57.0,0.0,90.0,0.0,0.0
1905,71.0,96.0,90.0,0.0,0.0
1906,59.0,0.0,90.0,0.0,0.0
1907,47.0,0.0,180.0,0.0,0.0
1908,43.0,0.0,180.0,0.0,0.0
1909,55.0,0.0,90.0,0.0,0.0
1910,67.0,96.0,90.0,0.0,0.0
1911,44.0,0.0,390.0,0.0,0.0
1912,50.0,0.0,180.0,0.0,0.0
1913,58.0,0.0,90.0,0.0,0.0
1914,70.0,96.0,90.0,0.0,0.0
1915,53.0,96.0,180.0,0.0,0.0
1916,59.0,0.0,90.0,0.0,0.0
1917,71.0,0.0,90.0,0.0,0.0
1918,72.0,96.0,90.0,0.0,0.0
1919,52.0,96.0,180.0,0.0,0.0
1920,60.0,0.0,90.0,0.0,0.0
1921,59.0,0.0,90.0,0.0,0.0
1922,71.0,0.0,90.0,0.0,0.0
1923,62.0,0.0,90.0,0.0,0.0
1924,74.0,96.0,90.0,0.0,0.0
1925,45.0,0.0,180.0,0.0,0.0
1926,60.0,96.0,90.0,0.0,0.0
1927,72.0,0.0,90.0,0.0,0.0
1928,61.0,0.0,90.0,0.0,0.0
1929,73.0,96.0,90.0,0.0,0.0
1930,47.0,0.0,390.0,0.0,0.0
1931,56.0,0.0,180.0,0.0,0.0
1932,53.0,0.0,180.0,0.0,0.0
1933,62.0,0.0,90.0,0.0,0.0
1934,74.0,96.0,90.0,0.0,0.0
1935,64.0,0.0,90.0,0.0,0.0
1936,76.0,96.0,90.0,0.0,0.0
1937,55.0,0.0,180.0,0.0,0.0
1938,62.0,0.0,90.0,0.0,0.0
1939,74.0,96.0,90.0,0.0,0.0
1940,48.0,0.0,180.0,0.0,0.0
1941,65.0,96.0,90.0,0.0,0.0
1942,77.0,0.0,90.0,0.0,0.0
1943,76.0,96.0,90.0,0.0,0.0
1944,64.0,0.0,90.0,0.0,0.0
1945,55.0,0.0,180.0,0.0,0.0
1946,58.0,0.0,180.0,0.0,0.0
1947,63.0,96.0,90.0,0.0,0.0
1948,75.0,0.0,90.0,0.0,0.0
1949,49.0,0.0,1110.0,0.0,0.0
1950,76.0,0.0,90.0,0.0,0.0
1951,64.0,96.0,90.0,0.0,0.0
1952,57.0,96.0,90.0,0.0,0.0
1953,78.0,0.0,90.0,0.0,0.0
1954,66.0,0.0,90.0,0.0,0.0
1955,64.0,144.0,90.0,0.0,0.0
1956,76.0,0.0,90.0,0.0,0.0
1957,55.0,0.0,90.0,0.0,0.0
1958,79.0,0.0,150.0,0.0,0.0
1959,67.0,0.0,150.0,0.0,0.0
1960,58.0,48.0,150.0,0.0,0.0
1961,57.0,0.0,40.0,0.0,0.0
1962,57.0,96.0,90.0,0.0,0.0
1963,78.0,96.0,15.0,0.0,0.0
1964,66.0,0.0,15.0,0.0,0.0
1965,64.0,0.0,90.0,0.0,0.0
1966,76.0,96.0,90.0,0.0,0.0
1967,55.0,0.0,90.0,0.0,0.0
1968,54.0,0.0,90.0,0.0,0.0
1969,63.0,0.0,90.0,0.0,0.0
1970,75.0,96.0,90.0,0.0,0.0
1971,64.0,0.0,90.0,0.0,0.0
1972,55.0,144.0,90.0,0.0,0.0
1973,76.0,0.0,90.0,0.0,0.0
1974,67.0,0.0,150.0,0.0,0.0
1975,79.0,144.0,150.0,0.0,0.0
1976,58.0,0.0,150.0,0.0,0.0
1977,83.0,0.0,90.0,0.0,0.0
1978,71.0,96.0,90.0,0.0,0.0
1979,60.0,0.0,180.0,0.0,0.0
1980,63.0,0.0,180.0,0.0,0.0
1981,69.0,96.0,90.0,0.0,0.0
1982,81.0,0.0,90.0,0.0,0.0
1983,79.0,0.0,90.0,0.0,0.0
1984,67.0,0.0,90.0,0.0,0.0
1985,59.0,0.0,90.0,0.0,0.0
1986,62.0,96.0,90.0,0.0,0.0
1987,78.0,0.0,90.0,0.0,0.0
1988,66.0,0.0,90.0,0.0,0.0
1989,61.0,0.0,90.0,0.0,0.0
1990,58.0,96.0,90.0,0.0,0.0
1991,79.0,96.0,90.0,0.0,0.0
1992,67.0,0.0,90.0,0.0,0.0
1993,59.0,0.0,90.0,0.0,0.0
1994,62.0,0.0,90.0,0.0,0.0
1995,64.0,0.0,90.0,0.0,0.0
1996,76.0,0.0,90.0,0.0,0.0
1997,55.0,96.0,90.0,0.0,0.0
1998,58.0,0.0,90.0,0.0,0.0
1999,66.0,96.0,90.0,0.0,0.0
2000,78.0,0.0,90.0,0.0,0.0
2001,60.0,96.0,180.0,0.0,0.0
2002,57.0,0.0,180.0,0.0,0.0
2003,76.0,0.0,90.0,0.0,0.0
2004,64.0,0.0,90.0,0.0,0.0
2005,74.0,0.0,90.0,0.0,0.0
2006,62.0,0.0,90.0,0.0,0.0
2007,54.0,96.0,90.0,0.0,0.0
2008,57.0,0.0,90.0,0.0,0.0
2009,56.0,0.0,90.0,0.0,0.0
2010,53.0,0.0,90.0,0.0,0.0
2011,61.0,96.0,90.0,0.0,0.0
2012,73.0,0.0,90.0,0.0,0.0
2013,62.0,0.0,90.0,0.0,0.0
2014,74.0,96.0,90.0,0.0,0.0
2015,54.0,0.0,90.0,0.0,0.0
2016,57.0,0.0,90.0,0.0,0.0
2017,53.0,0.0,90.0,0.0,0.0
2018,50.0,96.0,90.0,0.0,0.0
2019,71.0,0.0,90.0,0.0,0.0
2020,59.0,0.0,90.0,0.0,0.0
2021,76.0,0.0,90.0,0.0,0.0
2022,44.0,0.0,180.0,0.0,0.0
2023,64.0,96.0,90.0,0.0,0.0
2024,59.0,0.0,180.0,0.0,0.0
2025,52.0,0.0,390.0,0.0,0.0
2026,74.0,96.0,90.0,0.0,0.0
2027,62.0,0.0,90.0,0.0,0.0
2028,57.0,0.0,180.0,0.0,0.0
2029,45.0,0.0,180.0,0.0,0.0
2030,60.0,0.0,90.0,0.0,0.0
2031,72.0,96.0,90.0,0.0,0.0
2032,59.0,96.0,90.0,0.0,0.0
2033,71.0,0.0,90.0,0.0,0.0
2034,51.0,0.0,180.0,0.0,0.0
2035,72.0,96.0,90.0,0.0,0.0
2036,48.0,0.0,180.0,0.0,0.0
2037,60.0,0.0,90.0,0.0,0.0
2038,57.0,0.0,90.0,0.0,0.0
2039,69.0,192.0,90.0,0.0,0.0
2040,50.0,0.0,960.0,0.0,0.0
2041,38.0,0.0,180.0,0.0,0.0
2042,54.0,96.0,180.0,0.0,0.0
2043,66.0,0.0,180.0,0.0,0.0
2044,60.0,0.0,180.0,0.0,0.0
2045,43.0,0.0,90.0,0.0,0.0
2046,55.0,0.0,90.0,0.0,0.0
2047,59.0,0.0,90.0,0.0,0.0
2048,67.0,288.0,90.0,0.0,0.0
2049,56.0,24.0,180.0,0.0,0.0
2050,68.0,0.0,180.0,0.0,0.0
2051,41.0,0.0,390.0,0.0,0.0
2052,69.0,24.0,20.0,0.0,0.0
2053,71.0,144.0,20.0,0.0,0.0
2054,69.0,0.0,150.0,0.0,0.0
2055,57.0,96.0,150.0,0.0,0.0
2056,68.0,96.0,90.0,0.0,0.0
2057,56.0,0.0,90.0,0.0,0.0
2058,57.0,96.0,90.0,0.0,0.0
2059,69.0,0.0,90.0,0.0,0.0
2060,38.0,96.0,180.0,0.0,0.0
2061,53.0,0.0,300.0,0.0,0.0
2062,72.0,96.0,90.0,0.0,0.0
2063,65.0,0.0,300.0,0.0,0.0
2064,60.0,0.0,90.0,0.0,0.0
2065,59.0,0.0,90.0,0.0,0.0
2066,71.0,0.0,90.0,0.0,0.0
2067,57.0,96.0,90.0,0.0,0.0
2068,69.0,0.0,90.0,0.0,0.0
2069,40.0,0.0,390.0,0.0,0.0
2070,52.0,0.0,90.0,0.0,0.0
2071,68.0,0.0,90.0,0.0,0.0
2072,64.0,96.0,90.0,0.0,0.0
2073,56.0,0.0,90.0,0.0,0.0
2074,54.0,0.0,90.0,0.0,0.0
2075,66.0,96.0,90.0,0.0,0.0
2076,51.0,0.0,90.0,0.0,0.0
2077,50.0,0.0,90.0,0.0,0.0
2078,56.0,0.0,90.0,0.0,0.0
2079,68.0,96.0,90.0,0.0,0.0
2080,45.0,96.0,180.0,0.0,0.0
2081,48.0,0.0,180.0,0.0,0.0
2082,69.0,0.0,90.0,0.0,0.0
2083,57.0,96.0,90.0,0.0,0.0
2084,71.0,0.0,90.0,0.0,0.0
2085,59.0,0.0,90.0,0.0,0.0
2086,44.0,0.0,180.0,0.0,0.0
2087,53.0,0.0,390.0,0.0,0.0
2088,72.0,96.0,90.0,0.0,0.0
2089,60.0,0.0,90.0,0.0,0.0
2090,62.0,0.0,90.0,0.0,0.0
2091,74.0,96.0,90.0,0.0,0.0
2092,59.0,96.0,90.0,0.0,0.0
2093,41.0,0.0,390.0,0.0,0.0
2094,71.0,0.0,90.0,0.0,0.0
2095,72.0,96.0,90.0,0.0,0.0
2096,60.0,0.0,90.0,0.0,0.0
2097,56.0,96.0,300.0,0.0,0.0
2098,76.0,0.0,90.0,0.0,0.0
2099,64.0,96.0,90.0,0.0,0.0
2100,68.0,0.0,300.0,0.0,0.0
2101,74.0,0.0,90.0,0.0,0.0
2102,62.0,96.0,90.0,0.0,0.0
2103,43.0,0.0,390.0,0.0,0.0
2104,60.0,0.0,90.0,0.0,0.0
2105,72.0,0.0,90.0,0.0,0.0
2106,71.0,0.0,90.0,0.0,0.0
2107,59.0,96.0,90.0,0.0,0.0
2108,67.0,0.0,90.0,0.0,0.0
2109,55.0,0.0,90.0,0.0,0.0
2110,54.0,0.0,90.0,0.0,0.0
2111,69.0,96.0,90.0,0.0,0.0
2112,57.0,0.0,90.0,0.0,0.0
2113,53.0,0.0,90.0,0.0,0.0
2114,71.0,0.0,90.0,0.0,0.0
2115,59.0,96.0,90.0,0.0,0.0
2116,60.0,96.0,90.0,0.0,0.0
2117,72.0,0.0,90.0,0.0,0.0
2118,52.0,0.0,90.0,0.0,0.0
2119,53.0,0.0,90.0,0.0,0.0
2120,74.0,0.0,90.0,0.0,0.0
2121,62.0,96.0,90.0,0.0,0.0
2122,48.0,0.0,15.0,0.0,0.0
2123,76.0,0.0,90.0,0.0,0.0
2124,70.0,0.0,390.0,0.0,0.0
2125,64.0,96.0,90.0,0.0,0.0
2126,55.0,0.0,90.0,0.0,0.0
2127,54.0,96.0,90.0,0.0,0.0
2128,63.0,0.0,90.0,0.0,0.0
2129,75.0,0.0,90.0,0.0,0.0
2130,78.0,96.0,90.0,0.0,0.0
2131,66.0,0.0,90.0,0.0,0.0
2132,57.0,0.0,90.0,0.0,0.0
2133,55.0,0.0,180.0,0.0,0.0
2134,76.0,96.0,90.0,0.0,0.0
2135,64.0,0.0,15.0,0.0,0.0
2136,71.0,0.0,180.0,0.0,0.0
2137,76.0,96.0,90.0,0.0,0.0
2138,54.0,0.0,90.0,0.0,0.0
2139,63.0,0.0,90.0,0.0,0.0
2140,63.0,0.0,90.0,0.0,0.0
2141,69.0,0.0,390.0,0.0,0.0
2142,75.0,96.0,15.0,0.0,0.0
2143,59.0,96.0,90.0,0.0,0.0
2144,62.0,0.0,90.0,0.0,0.0
2145,74.0,0.0,90.0,0.0,0.0
2146,53.0,0.0,90.0,0.0,0.0
2147,47.0,96.0,15.0,0.0,0.0
2148,56.0,0.0,90.0,0.0,0.0
2149,65.0,0.0,90.0,0.0,0.0
2150,77.0,96.0,90.0,0.0,0.0
2151,54.0,96.0,180.0,0.0,0.0
2152,75.0,0.0,15.0,0.0,0.0
2153,63.0,96.0,15.0,0.0,0.0
2154,70.0,0.0,180.0,0.0,0.0
2155,74.0,0.0,90.0,0.0,0.0
2156,53.0,0.0,90.0,0.0,0.0
2157,62.0,0.0,15.0,0.0,0.0
2158,58.0,96.0,90.0,0.0,0.0
2159,74.0,0.0,90.0,0.0,0.0
2160,46.0,96.0,15.0,0.0,0.0
2161,61.0,0.0,90.0,0.0,0.0
2162,73.0,0.0,90.0,0.0,0.0
2163,68.0,0.0,15.0,0.0,0.0
2164,52.0,96.0,15.0,0.0,0.0
2165,51.0,96.0,15.0,0.0,0.0
2166,73.0,0.0,15.0,0.0,0.0
2167,67.0,0.0,15.0,0.0,0.0
2168,61.0,0.0,15.0,0.0,0.0
2169,45.0,0.0,180.0,0.0,0.0
2170,60.0,0.0,15.0,0.0,0.0
2171,67.0,0.0,15.0,0.0,0.0
2172,72.0,96.0,15.0,0.0,0.0
2173,51.0,0.0,15.0,0.0,0.0
2174,66.0,96.0,90.0,0.0,0.0
2175,50.0,0.0,780.0,0.0,0.0
2176,60.0,0.0,90.0,0.0,0.0
2177,66.0,24.0,180.0,0.0,0.0
2178,72.0,96.0,90.0,0.0,0.0
2179,59.0,0.0,90.0,0.0,0.0
2180,71.0,0.0,90.0,0.0,0.0
2181,72.0,72.0,20.0,0.0,0.0
2182,38.0,0.0,180.0,0.0,0.0
2183,59.0,0.0,60.0,0.0,0.0
2184,66.0,0.0,180.0,0.0,0.0
2185,71.0,96.0,60.0,0.0,0.0
2186,58.0,96.0,90.0,0.0,0.0
2187,70.0,0.0,90.0,0.0,0.0
2188,43.0,0.0,390.0,0.0,0.0
2189,71.0,96.0,90.0,0.0,0.0
2190,59.0,0.0,90.0,0.0,0.0
2191,67.0,96.0,180.0,0.0,0.0
2192,60.0,0.0,90.0,0.0,0.0
2193,72.0,0.0,90.0,0.0,0.0
2194,71.0,0.0,90.0,0.0,0.0
2195,59.0,96.0,90.0,0.0,0.0
2196,66.0,96.0,180.0,0.0,0.0
2197,69.0,0.0,90.0,0.0,0.0
2198,57.0,0.0,90.0,0.0,0.0
2199,52.0,0.0,180.0,0.0,0.0
2200,36.0,0.0,180.0,0.0,0.0
2201,71.0,0.0,90.0,0.0,0.0
2202,59.0,96.0,90.0,0.0,0.0
2203,60.0,0.0,90.0,0.0,0.0
2204,72.0,96.0,90.0,0.0,0.0
2205,54.0,0.0,180.0,0.0,0.0
2206,38.0,0.0,180.0,0.0,0.0
2207,48.0,0.0,180.0,0.0,0.0
2208,64.0,0.0,15.0,0.0,0.0
2209,59.0,0.0,90.0,0.0,0.0
2210,71.0,96.0,90.0,0.0,0.0
2211,57.0,96.0,90.0,0.0,0.0
2212,69.0,0.0,90.0,0.0,0.0
2213,67.0,96.0,90.0,0.0,0.0
2214,50.0,96.0,390.0,0.0,0.0
2215,55.0,0.0,90.0,0.0,0.0
2216,57.0,0.0,90.0,0.0,0.0
2217,62.0,0.0,90.0,0.0,0.0
2218,69.0,96.0,90.0,0.0,0.0
2219,43.0,0.0,180.0,0.0,0.0
2220,59.0,0.0,180.0,0.0,0.0
2221,71.0,96.0,90.0,0.0,0.0
2222,67.0,0.0,90.0,0.0,0.0
2223,71.0,96.0,90.0,0.0,0.0
2224,59.0,0.0,90.0,0.0,0.0
2225,60.0,96.0,90.0,0.0,0.0
2226,72.0,0.0,90.0,0.0,0.0
2227,55.0,96.0,180.0,0.0,0.0
2228,46.0,0.0,90.0,0.0,0.0
2229,73.0,0.0,90.0,0.0,0.0
2230,61.0,96.0,90.0,0.0,0.0
2231,62.0,0.0,90.0,0.0,0.0
2232,74.0,0.0,90.0,0.0,0.0
2233,47.0,0.0,90.0,0.0,0.0
2234,66.0,0.0,90.0,0.0,0.0
2235,78.0,96.0,90.0,0.0,0.0
2236,48.0,0.0,180.0,0.0,0.0
2237,56.0,0.0,90.0,0.0,0.0
2238,57.0,0.0,90.0,0.0,0.0
2239,76.0,0.0,90.0,0.0,0.0
2240,64.0,96.0,90.0,0.0,0.0
2241,74.0,0.0,90.0,0.0,0.0
2242,62.0,96.0,90.0,0.0,0.0
2243,72.0,96.0,90.0,0.0,0.0
2244,60.0,0.0,90.0,0.0,0.0
2245,38.0,0.0,180.0,0.0,0.0
2246,48.0,0.0,180.0,0.0,0.0
2247,54.0,0.0,180.0,0.0,0.0
2248,59.0,0.0,90.0,0.0,0.0
2249,71.0,96.0,90.0,0.0,0.0
2250,69.0,0.0,90.0,0.0,0.0
2251,57.0,96.0,90.0,0.0,0.0
2252,47.0,0.0,180.0,0.0,0.0
2253,43.0,96.0,180.0,0.0,0.0
2254,59.0,96.0,90.0,0.0,0.0
2255,71.0,0.0,90.0,0.0,0.0
2256,55.0,0.0,90.0,0.0,0.0
2257,67.0,0.0,90.0,0.0,0.0
2258,70.0,0.0,90.0,0.0,0.0
2259,53.0,0.0,180.0,0.0,0.0
2260,58.0,96.0,90.0,0.0,0.0
2261,50.0,0.0,180.0,0.0,0.0
2262,71.0,0.0,90.0,0.0,0.0
2263,59.0,96.0,90.0,0.0,0.0
2264,72.0,0.0,90.0,0.0,0.0
2265,60.0,96.0,90.0,0.0,0.0
2266,52.0,0.0,180.0,0.0,0.0
2267,71.0,0.0,90.0,0.0,0.0
2268,59.0,96.0,90.0,0.0,0.0
2269,44.0,0.0,15.0,0.0,0.0
2270,62.0,0.0,90.0,0.0,0.0
2271,74.0,0.0,90.0,0.0,0.0
2272,45.0,0.0,90.0,0.0,0.0
2273,72.0,0.0,90.0,0.0,0.0
2274,60.0,96.0,90.0,0.0,0.0
2275,56.0,0.0,180.0,0.0,0.0
2276,53.0,0.0,180.0,0.0,0.0
2277,46.0,0.0,90.0,0.0,0.0
2278,61.0,96.0,90.0,0.0,0.0
2279,73.0,0.0,90.0,0.0,0.0
2280,47.0,0.0,90.0,0.0,0.0
2281,74.0,0.0,90.0,0.0,0.0
2282,62.0,96.0,90.0,0.0,0.0
2283,64.0,96.0,90.0,0.0,0.0
2284,55.0,0.0,180.0,0.0,0.0
2285,76.0,0.0,90.0,0.0,0.0
2286,74.0,96.0,90.0,0.0,0.0
2287,62.0,0.0,90.0,0.0,0.0
2288,77.0,0.0,90.0,0.0,0.0
2289,47.0,96.0,90.0,0.0,0.0
2290,65.0,0.0,90.0,0.0,0.0
2291,64.0,0.0,90.0,0.0,0.0
2292,76.0,0.0,90.0,0.0,0.0
2293,48.0,96.0,90.0,0.0,0.0
2294,75.0,96.0,90.0,0.0,0.0
2295,63.0,0.0,90.0,0.0,0.0
2296,49.0,144.0,1110.0,0.0,0.0
2297,55.0,0.0,180.0,0.0,0.0
2298,58.0,0.0,180.0,0.0,0.0
2299,64.0,0.0,90.0,0.0,0.0
2300,76.0,96.0,90.0,0.0,0.0
2301,57.0,0.0,90.0,0.0,0.0
2302,78.0,0.0,90.0,0.0,0.0
2303,66.0,96.0,90.0,0.0,0.0
2304,76.0,0.0,90.0,0.0,0.0
2305,55.0,0.0,90.0,0.0,0.0
2306,64.0,144.0,90.0,0.0,0.0
2307,67.0,0.0,150.0,0.0,0.0
2308,79.0,0.0,150.0,0.0,0.0
2309,58.0,48.0,150.0,0.0,0.0
2310,66.0,0.0,40.0,0.0,0.0
2311,78.0,0.0,15.0,0.0,0.0
2312,66.0,0.0,90.0,0.0,0.0
2313,57.0,96.0,15.0,0.0,0.0
2314,64.0,0.0,90.0,0.0,0.0
2315,76.0,96.0,90.0,0.0,0.0
2316,55.0,0.0,90.0,0.0,0.0
2317,54.0,0.0,90.0,0.0,0.0
2318,63.0,96.0,90.0,0.0,0.0
2319,75.0,0.0,90.0,0.0,0.0
2320,76.0,0.0,90.0,0.0,0.0
2321,64.0,0.0,90.0,0.0,0.0
2322,55.0,144.0,90.0,0.0,0.0
2323,67.0,0.0,150.0,0.0,0.0
2324,79.0,0.0,150.0,0.0,0.0
2325,58.0,0.0,150.0,0.0,0.0
2326,63.0,0.0,180.0,0.0,0.0
2327,60.0,0.0,180.0,0.0,0.0
2328,83.0,0.0,90.0,0.0,0.0
2329,71.0,96.0,90.0,0.0,0.0
2330,69.0,96.0,90.0,0.0,0.0
2331,81.0,0.0,90.0,0.0,0.0
2332,59.0,96.0,90.0,0.0,0.0
2333,62.0,0.0,90.0,0.0,0.0
2334,67.0,0.0,90.0,0.0,0.0
2335,79.0,0.0,90.0,0.0,0.0
2336,78.0,0.0,90.0,0.0,0.0
2337,66.0,0.0,90.0,0.0,0.0
2338,61.0,96.0,90.0,0.0,0.0
2339,58.0,0.0,90.0,0.0,0.0
2340,79.0,0.0,90.0,0.0,0.0
2341,67.0,0.0,90.0,0.0,0.0
2342,62.0,0.0,90.0,0.0,0.0
2343,59.0,96.0,90.0,0.0,0.0
2344,64.0,96.0,90.0,0.0,0.0
2345,55.0,0.0,90.0,0.0,0.0
2346,58.0,0.0,90.0,0.0,0.0
2347,76.0,0.0,90.0,0.0,0.0
2348,60.0,0.0,180.0,0.0,0.0
2349,78.0,96.0,90.0,0.0,0.0
2350,66.0,0.0,90.0,0.0,0.0
2351,64.0,0.0,90.0,0.0,0.0
2352,76.0,0.0,90.0,0.0,0.0
2353,57.0,96.0,15.0,0.0,0.0
2354,54.0,0.0,90.0,0.0,0.0
2355,74.0,96.0,90.0,0.0,0.0
2356,62.0,0.0,90.0,0.0,0.0
2357,53.0,96.0,90.0,0.0,0.0
2358,73.0,0.0,90.0,0.0,0.0
2359,61.0,0.0,90.0,0.0,0.0
2360,56.0,0.0,90.0,0.0,0.0
2361,62.0,0.0,90.0,0.0,0.0
2362,74.0,0.0,90.0,0.0,0.0
2363,54.0,96.0,90.0,0.0,0.0
2364,57.0,0.0,90.0,0.0,0.0
2365,59.0,0.0,90.0,0.0,0.0
2366,71.0,0.0,90.0,0.0,0.0
2367,53.0,0.0,90.0,0.0,0.0
2368,50.0,96.0,90.0,0.0,0.0
2369,44.0,0.0,180.0,0.0,0.0
2370,64.0,96.0,90.0,0.0,0.0
2371,59.0,96.0,180.0,0.0,0.0
2372,52.0,0.0,390.0,0.0,0.0
2373,76.0,0.0,90.0,0.0,0.0
2374,62.0,0.0,90.0,0.0,0.0
2375,74.0,0.0,90.0,0.0,0.0
2376,72.0,0.0,90.0,0.0,0.0
2377,60.0,96.0,90.0,0.0,0.0
2378,57.0,0.0,180.0,0.0,0.0
2379,45.0,0.0,180.0,0.0,0.0
2380,71.0,96.0,90.0,0.0,0.0
2381,59.0,0.0,90.0,0.0,0.0
2382,72.0,96.0,90.0,0.0,0.0
2383,51.0,96.0,300.0,0.0,0.0
2384,48.0,94.0,180.0,0.0,0.0
2385,60.0,0.0,90.0,0.0,0.0
2386,57.0,0.0,90.0,0.0,0.0
2387,69.0,0.0,90.0,0.0,0.0
2388,60.0,94.0,2310.0,0.0,0.0
2389,66.0,0.0,1740.0,0.0,0.0
2390,38.0,46.0,5700.0,0.0,0.0
2391,54.0,94.0,1740.0,0.0,0.0
2392,50.0,96.0,90.0,0.0,0.0
2393,48.0,96.0,90.0,0.0,0.0
2394,47.0,96.0,90.0,0.0,0.0
2395,48.0,96.0,90.0,0.0,0.0
2396,45.0,96.0,90.0,0.0,0.0
2397,51.0,96.0,90.0,0.0,0.0
2398,50.0,96.0,90.0,0.0,0.0
2399,48.0,96.0,90.0,0.0,0.0
2400,47.0,96.0,90.0,0.0,0.0
2401,48.0,96.0,90.0,0.0,0.0
2402,45.0,96.0,90.0,0.0,0.0
2403,51.0,96.0,90.0,0.0,0.0
2404,50.0,96.0,90.0,0.0,0.0
2405,48.0,96.0,90.0,0.0,0.0
2406,47.0,96.0,90.0,0.0,0.0
2407,48.0,96.0,90.0,0.0,0.0
2408,45.0,2.0,90.0,0.0,0.0
2409,67.0,0.0,390.0,0.0,0.0
2410,55.0,94.0,390.0,0.0,0.0
2411,51.0,96.0,90.0,0.0,0.0
2412,50.0,96.0,90.0,0.0,0.0
2413,48.0,96.0,90.0,0.0,0.0
2414,47.0,2.0,90.0,0.0,0.0
2415,48.0,96.0,90.0,0.0,0.0
2416,57.0,0.0,180.0,0.0,0.0
2417,69.0,0.0,180.0,0.0,0.0
2418,45.0,2.0,90.0,0.0,0.0
2419,57.0,0.0,480.0,0.0,0.0
2420,66.0,94.0,480.0,0.0,0.0
2421,69.0,0.0,480.0,0.0,0.0
2422,51.0,96.0,90.0,0.0,0.0
2423,50.0,96.0,90.0,0.0,0.0
2424,48.0,96.0,90.0,0.0,0.0
2425,47.0,96.0,90.0,0.0,0.0
2426,48.0,2.0,90.0,0.0,0.0
2427,45.0,2.0,90.0,0.0,0.0
2428,58.0,94.0,90.0,0.0,0.0
2429,67.0,0.0,90.0,0.0,0.0
2430,70.0,0.0,90.0,0.0,0.0
2431,51.0,96.0,90.0,0.0,0.0
2432,57.0,0.0,570.0,0.0,0.0
2433,66.0,0.0,570.0,0.0,0.0
2434,69.0,94.0,570.0,0.0,0.0
2435,50.0,96.0,90.0,0.0,0.0
2436,48.0,96.0,90.0,0.0,0.0
2437,47.0,96.0,90.0,0.0,0.0
2438,48.0,96.0,90.0,0.0,0.0
2439,45.0,2.0,90.0,0.0,0.0
2440,51.0,96.0,90.0,0.0,0.0
2441,54.0,0.0,570.0,0.0,0.0
2442,60.0,0.0,540.0,0.0,0.0
2443,69.0,0.0,510.0,0.0,0.0
2444,50.0,96.0,90.0,0.0,0.0
2445,48.0,96.0,90.0,0.0,0.0
2446,47.0,96.0,90.0,0.0,0.0
2447,48.0,96.0,90.0,0.0,0.0
2448,45.0,2.0,90.0,0.0,0.0
2449,66.0,94.0,15.0,0.0,0.0
2450,51.0,2.0,90.0,0.0,0.0
2451,70.0,0.0,390.0,0.0,0.0
2452,60.0,94.0,90.0,0.0,0.0
2453,50.0,96.0,90.0,0.0,0.0
2454,62.0,94.0,300.0,0.0,0.0
2455,48.0,96.0,90.0,0.0,0.0
2456,47.0,2.0,90.0,0.0,0.0
2457,63.0,0.0,180.0,0.0,0.0
2458,72.0,94.0,180.0,0.0,0.0
2459,48.0,96.0,90.0,0.0,0.0
2460,45.0,2.0,90.0,0.0,0.0
2461,51.0,96.0,90.0,0.0,0.0
2462,57.0,94.0,570.0,0.0,0.0
2463,66.0,0.0,1320.0,0.0,0.0
2464,72.0,96.0,1290.0,0.0,0.0
2465,50.0,96.0,90.0,0.0,0.0
2466,48.0,96.0,90.0,0.0,0.0
2467,47.0,96.0,90.0,0.0,0.0
2468,48.0,96.0,90.0,0.0,0.0
2469,45.0,2.0,90.0,0.0,0.0
2470,81.0,0.0,780.0,0.0,0.0
2471,51.0,96.0,90.0,0.0,0.0
2472,50.0,96.0,90.0,0.0,0.0
2473,48.0,96.0,90.0,0.0,0.0
2474,47.0,96.0,90.0,0.0,0.0
2475,48.0,50.0,90.0,0.0,0.0
2476,45.0,98.0,90.0,0.0,0.0
2477,39.0,96.0,90.0,0.0,0.0
2478,51.0,0.0,90.0,0.0,0.0
2479,38.0,0.0,90.0,0.0,0.0
2480,50.0,0.0,90.0,0.0,0.0
2481,36.0,0.0,90.0,0.0,0.0
2482,48.0,96.0,90.0,0.0,0.0
2483,47.0,96.0,90.0,0.0,0.0
2484,35.0,0.0,90.0,0.0,0.0
2485,36.0,96.0,90.0,0.0,0.0
2486,48.0,0.0,90.0,0.0,0.0
2487,33.0,0.0,90.0,0.0,0.0
2488,45.0,96.0,90.0,0.0,0.0
2489,39.0,0.0,90.0,0.0,0.0
2490,51.0,96.0,90.0,0.0,0.0
2491,38.0,0.0,90.0,0.0,0.0
2492,50.0,96.0,90.0,0.0,0.0
2493,36.0,0.0,90.0,0.0,0.0
2494,48.0,96.0,90.0,0.0,0.0
2495,35.0,96.0,90.0,0.0,0.0
2496,47.0,0.0,90.0,0.0,0.0
2497,36.0,94.0,90.0,0.0,0.0
2498,48.0,0.0,90.0,0.0,0.0
2499,33.0,0.0,90.0,0.0,0.0
2500,45.0,98.0,90.0,0.0,0.0
2501,51.0,96.0,90.0,0.0,0.0
2502,39.0,0.0,90.0,0.0,0.0
2503,63.0,0.0,90.0,0.0,0.0
2504,75.0,0.0,90.0,0.0,0.0
2505,38.0,0.0,90.0,0.0,0.0
2506,50.0,96.0,90.0,0.0,0.0
2507,74.0,0.0,90.0,0.0,0.0
2508,62.0,0.0,90.0,0.0,0.0
2509,60.0,96.0,90.0,0.0,0.0
2510,72.0,0.0,90.0,0.0,0.0
2511,48.0,0.0,90.0,0.0,0.0
2512,36.0,0.0,90.0,0.0,0.0
2513,59.0,0.0,90.0,0.0,0.0
2514,47.0,96.0,90.0,0.0,0.0
2515,35.0,0.0,90.0,0.0,0.0
2516,71.0,0.0,90.0,0.0,0.0
2517,48.0,0.0,90.0,0.0,0.0
2518,72.0,0.0,90.0,0.0,0.0
2519,60.0,0.0,90.0,0.0,0.0
2520,36.0,96.0,90.0,0.0,0.0
2521,57.0,0.0,90.0,0.0,0.0
2522,69.0,96.0,90.0,0.0,0.0
2523,45.0,0.0,90.0,0.0,0.0
2524,33.0,0.0,90.0,0.0,0.0
2525,63.0,0.0,90.0,0.0,0.0
2526,39.0,0.0,90.0,0.0,0.0
2527,51.0,0.0,90.0,0.0,0.0
2528,75.0,96.0,90.0,0.0,0.0
2529,62.0,0.0,90.0,0.0,0.0
2530,74.0,0.0,90.0,0.0,0.0
2531,50.0,0.0,90.0,0.0,0.0
2532,38.0,96.0,90.0,0.0,0.0
2533,60.0,96.0,90.0,0.0,0.0
2534,72.0,0.0,90.0,0.0,0.0
2535,48.0,0.0,90.0,0.0,0.0
2536,36.0,0.0,90.0,0.0,0.0
2537,71.0,0.0,90.0,0.0,0.0
2538,59.0,0.0,90.0,0.0,0.0
2539,35.0,0.0,90.0,0.0,0.0
2540,47.0,96.0,90.0,0.0,0.0
2541,60.0,0.0,90.0,0.0,0.0
2542,36.0,94.0,90.0,0.0,0.0
2543,48.0,0.0,90.0,0.0,0.0
2544,72.0,0.0,90.0,0.0,0.0
2545,57.0,0.0,90.0,0.0,0.0
2546,69.0,64.0,90.0,0.0,0.0
2547,33.0,2.0,90.0,0.0,0.0
2548,45.0,0.0,90.0,0.0,0.0
2549,39.0,0.0,60.0,0.0,0.0
2550,75.0,0.0,60.0,0.0,0.0
2551,63.0,0.0,60.0,0.0,0.0
2552,51.0,64.0,60.0,0.0,0.0
2553,74.0,64.0,60.0,0.0,0.0
2554,38.0,0.0,60.0,0.0,0.0
2555,50.0,0.0,60.0,0.0,0.0
2556,62.0,0.0,60.0,0.0,0.0
2557,48.0,0.0,60.0,0.0,0.0
2558,72.0,0.0,60.0,0.0,0.0
2559,60.0,0.0,60.0,0.0,0.0
2560,36.0,64.0,60.0,0.0,0.0
2561,71.0,0.0,60.0,0.0,0.0
2562,59.0,64.0,60.0,0.0,0.0
2563,47.0,0.0,60.0,0.0,0.0
2564,35.0,0.0,60.0,0.0,0.0
2565,36.0,62.0,60.0,0.0,0.0
2566,48.0,0.0,60.0,0.0,0.0
2567,60.0,0.0,60.0,0.0,0.0
2568,72.0,0.0,60.0,0.0,0.0
2569,69.0,0.0,60.0,0.0,0.0
2570,45.0,0.0,60.0,0.0,0.0
2571,33.0,2.0,60.0,0.0,0.0
2572,57.0,64.0,60.0,0.0,0.0
2573,76.0,0.0,60.0,0.0,0.0
2574,64.0,0.0,60.0,0.0,0.0
2575,52.0,0.0,60.0,0.0,0.0
2576,40.0,64.0,60.0,0.0,0.0
2577,50.0,0.0,60.0,0.0,0.0
2578,74.0,0.0,60.0,0.0,0.0
2579,38.0,0.0,60.0,0.0,0.0
2580,62.0,64.0,60.0,0.0,0.0
2581,72.0,0.0,60.0,0.0,0.0
2582,48.0,0.0,60.0,0.0,0.0
2583,60.0,0.0,60.0,0.0,0.0
2584,36.0,64.0,60.0,0.0,0.0
2585,71.0,0.0,60.0,0.0,0.0
2586,59.0,64.0,60.0,0.0,0.0
2587,47.0,0.0,60.0,0.0,0.0
2588,35.0,0.0,60.0,0.0,0.0
2589,36.0,0.0,60.0,0.0,0.0
2590,48.0,0.0,60.0,0.0,0.0
2591,60.0,0.0,60.0,0.0,0.0
2592,72.0,62.0,60.0,0.0,0.0
2593,69.0,0.0,60.0,0.0,0.0
2594,57.0,64.0,60.0,0.0,0.0
2595,45.0,2.0,60.0,0.0,0.0
2596,33.0,0.0,60.0,0.0,0.0
2597,41.0,64.0,60.0,0.0,0.0
2598,77.0,0.0,60.0,0.0,0.0
2599,65.0,0.0,60.0,0.0,0.0
2600,53.0,0.0,60.0,0.0,0.0
2601,76.0,0.0,60.0,0.0,0.0
2602,64.0,64.0,60.0,0.0,0.0
2603,52.0,0.0,60.0,0.0,0.0
2604,40.0,0.0,60.0,0.0,0.0
2605,63.0,0.0,60.0,0.0,0.0
2606,75.0,0.0,60.0,0.0,0.0
2607,39.0,64.0,60.0,0.0,0.0
2608,51.0,0.0,60.0,0.0,0.0
2609,62.0,0.0,60.0,0.0,0.0
2610,74.0,64.0,60.0,0.0,0.0
2611,38.0,0.0,60.0,0.0,0.0
2612,50.0,0.0,60.0,0.0,0.0
2613,39.0,0.0,60.0,0.0,0.0
2614,51.0,64.0,60.0,0.0,0.0
2615,63.0,0.0,60.0,0.0,0.0
2616,75.0,0.0,60.0,0.0,0.0
2617,59.0,0.0,60.0,0.0,0.0
2618,71.0,0.0,60.0,0.0,0.0
2619,35.0,0.0,60.0,0.0,0.0
2620,47.0,64.0,60.0,0.0,0.0
2621,48.0,0.0,60.0,0.0,0.0
2622,36.0,0.0,60.0,0.0,0.0
2623,72.0,64.0,60.0,0.0,0.0
2624,60.0,0.0,60.0,0.0,0.0
2625,49.0,0.0,60.0,0.0,0.0
2626,37.0,64.0,60.0,0.0,0.0
2627,61.0,0.0,60.0,0.0,0.0
2628,73.0,0.0,60.0,0.0,0.0
2629,74.0,0.0,60.0,0.0,0.0
2630,62.0,0.0,60.0,0.0,0.0
2631,50.0,64.0,60.0,0.0,0.0
2632,38.0,0.0,60.0,0.0,0.0
2633,49.0,0.0,60.0,0.0,0.0
2634,37.0,0.0,60.0,0.0,0.0
2635,73.0,0.0,60.0,0.0,0.0
2636,61.0,64.0,60.0,0.0,0.0
2637,38.0,0.0,60.0,0.0,0.0
2638,50.0,0.0,60.0,0.0,0.0
2639,74.0,0.0,60.0,0.0,0.0
2640,62.0,64.0,60.0,0.0,0.0
2641,39.0,0.0,60.0,0.0,0.0
2642,51.0,0.0,60.0,0.0,0.0
2643,75.0,64.0,60.0,0.0,0.0
2644,63.0,0.0,60.0,0.0,0.0
2645,49.0,0.0,60.0,0.0,0.0
2646,61.0,0.0,60.0,0.0,0.0
2647,73.0,0.0,60.0,0.0,0.0
2648,37.0,64.0,60.0,0.0,0.0
2649,38.0,0.0,60.0,0.0,0.0
2650,50.0,0.0,60.0,0.0,0.0
2651,74.0,64.0,60.0,0.0,0.0
2652,62.0,0.0,60.0,0.0,0.0
2653,63.0,64.0,60.0,0.0,0.0
2654,51.0,0.0,60.0,0.0,0.0
2655,39.0,0.0,60.0,0.0,0.0
2656,75.0,0.0,60.0,0.0,0.0
2657,50.0,0.0,60.0,0.0,0.0
2658,74.0,0.0,60.0,0.0,0.0
2659,62.0,64.0,60.0,0.0,0.0
2660,38.0,0.0,60.0,0.0,0.0
2661,75.0,0.0,60.0,0.0,0.0
2662,63.0,64.0,60.0,0.0,0.0
2663,51.0,0.0,60.0,0.0,0.0
2664,39.0,0.0,60.0,0.0,0.0
2665,64.0,0.0,60.0,0.0,0.0
2666,40.0,0.0,60.0,0.0,0.0
2667,52.0,64.0,60.0,0.0,0.0
2668,76.0,0.0,60.0,0.0,0.0
2669,51.0,0.0,60.0,0.0,0.0
2670,39.0,0.0,60.0,0.0,0.0
2671,63.0,0.0,60.0,0.0,0.0
2672,75.0,64.0,60.0,0.0,0.0
2673,52.0,0.0,60.0,0.0,0.0
2674,64.0,0.0,60.0,0.0,0.0
2675,76.0,64.0,60.0,0.0,0.0
2676,40.0,0.0,60.0,0.0,0.0
2677,41.0,0.0,60.0,0.0,0.0
2678,53.0,0.0,60.0,0.0,0.0
2679,77.0,0.0,60.0,0.0,0.0
2680,65.0,64.0,60.0,0.0,0.0
2681,52.0,0.0,60.0,0.0,0.0
2682,40.0,0.0,60.0,0.0,0.0
2683,64.0,0.0,60.0,0.0,0.0
2684,76.0,64.0,60.0,0.0,0.0
2685,41.0,0.0,60.0,0.0,0.0
2686,53.0,0.0,60.0,0.0,0.0
2687,65.0,0.0,60.0,0.0,0.0
2688,77.0,64.0,60.0,0.0,0.0
2689,54.0,0.0,60.0,0.0,0.0
2690,42.0,0.0,60.0,0.0,0.0
2691,66.0,0.0,60.0,0.0,0.0
2692,78.0,64.0,60.0,0.0,0.0
2693,43.0,0.0,60.0,0.0,0.0
2694,55.0,0.0,60.0,0.0,0.0
2695,79.0,0.0,60.0,0.0,0.0
2696,70.0,0.0,390.0,0.0,0.0
2697,67.0,64.0,60.0,0.0,0.0
2698,66.0,0.0,60.0,0.0,0.0
2699,54.0,0.0,60.0,0.0,0.0
2700,42.0,0.0,60.0,0.0,0.0
2701,78.0,64.0,60.0,0.0,0.0
2702,67.0,64.0,60.0,0.0,0.0
2703,43.0,0.0,60.0,0.0,0.0
2704,55.0,0.0,60.0,0.0,0.0
2705,79.0,0.0,60.0,0.0,0.0
2706,66.0,0.0,60.0,0.0,0.0
2707,78.0,64.0,60.0,0.0,0.0
2708,42.0,0.0,60.0,0.0,0.0
2709,54.0,0.0,60.0,0.0,0.0
2710,77.0,0.0,60.0,0.0,0.0
2711,53.0,64.0,60.0,0.0,0.0
2712,41.0,0.0,60.0,0.0,0.0
2713,65.0,0.0,60.0,0.0,0.0
2714,64.0,0.0,60.0,0.0,0.0
2715,52.0,0.0,60.0,0.0,0.0
2716,40.0,0.0,60.0,0.0,0.0
2717,76.0,64.0,60.0,0.0,0.0
2718,53.0,0.0,60.0,0.0,0.0
2719,46.0,0.0,15.0,0.0,0.0
2720,41.0,64.0,60.0,0.0,0.0
2721,65.0,0.0,60.0,0.0,0.0
2722,70.0,0.0,390.0,0.0,0.0
2723,77.0,0.0,60.0,0.0,0.0
2724,40.0,0.0,60.0,0.0,0.0
2725,64.0,64.0,60.0,0.0,0.0
2726,76.0,0.0,60.0,0.0,0.0
2727,52.0,0.0,60.0,0.0,0.0
2728,65.0,0.0,60.0,0.0,0.0
2729,41.0,64.0,60.0,0.0,0.0
2730,77.0,0.0,60.0,0.0,0.0
2731,53.0,0.0,60.0,0.0,0.0
2732,40.0,0.0,60.0,0.0,0.0
2733,52.0,0.0,60.0,0.0,0.0
2734,76.0,64.0,60.0,0.0,0.0
2735,64.0,0.0,60.0,0.0,0.0
2736,39.0,64.0,60.0,0.0,0.0
2737,51.0,0.0,60.0,0.0,0.0
2738,75.0,0.0,60.0,0.0,0.0
2739,63.0,0.0,60.0,0.0,0.0
2740,50.0,0.0,60.0,0.0,0.0
2741,62.0,64.0,60.0,0.0,0.0
2742,74.0,0.0,60.0,0.0,0.0
2743,38.0,0.0,60.0,0.0,0.0
2744,39.0,0.0,60.0,0.0,0.0
2745,43.0,0.0,180.0,0.0,0.0
2746,75.0,0.0,60.0,0.0,0.0
2747,67.0,0.0,180.0,0.0,0.0
2748,51.0,64.0,60.0,0.0,0.0
2749,63.0,0.0,60.0,0.0,0.0
2750,62.0,0.0,60.0,0.0,0.0
2751,50.0,0.0,60.0,0.0,0.0
2752,74.0,0.0,60.0,0.0,0.0
2753,38.0,64.0,60.0,0.0,0.0
2754,51.0,0.0,60.0,0.0,0.0
2755,39.0,64.0,60.0,0.0,0.0
2756,63.0,0.0,60.0,0.0,0.0
2757,75.0,0.0,60.0,0.0,0.0
2758,38.0,0.0,60.0,0.0,0.0
2759,43.0,0.0,180.0,0.0,0.0
2760,50.0,0.0,60.0,0.0,0.0
2761,74.0,0.0,60.0,0.0,0.0
2762,62.0,64.0,60.0,0.0,0.0
2763,67.0,0.0,180.0,0.0,0.0
2764,37.0,64.0,60.0,0.0,0.0
2765,49.0,0.0,60.0,0.0,0.0
2766,61.0,0.0,60.0,0.0,0.0
2767,73.0,0.0,60.0,0.0,0.0
2768,48.0,0.0,60.0,0.0,0.0
2769,60.0,64.0,60.0,0.0,0.0
2770,72.0,0.0,60.0,0.0,0.0
2771,36.0,0.0,60.0,0.0,0.0
2772,47.0,0.0,60.0,0.0,0.0
2773,59.0,0.0,60.0,0.0,0.0
2774,71.0,0.0,60.0,0.0,0.0
2775,35.0,64.0,60.0,0.0,0.0
2776,38.0,0.0,180.0,0.0,0.0
2777,58.0,0.0,60.0,0.0,0.0
2778,34.0,64.0,60.0,0.0,0.0
2779,46.0,0.0,60.0,0.0,0.0
2780,70.0,0.0,60.0,0.0,0.0
2781,69.0,0.0,60.0,0.0,0.0
2782,57.0,0.0,60.0,0.0,0.0
2783,45.0,160.0,60.0,0.0,0.0
2784,33.0,0.0,60.0,0.0,0.0
2785,67.0,0.0,180.0,0.0,0.0
2786,62.0,0.0,15.0,0.0,0.0
2787,31.0,0.0,150.0,0.0,0.0
2788,38.0,32.0,150.0,0.0,0.0
2789,43.0,0.0,150.0,0.0,0.0
2790,55.0,0.0,15.0,0.0,0.0
2791,63.0,0.0,390.0,0.0,0.0
2792,67.0,64.0,60.0,0.0,0.0
2793,31.0,0.0,60.0,0.0,0.0
2794,39.0,0.0,390.0,0.0,0.0
2795,43.0,0.0,60.0,0.0,0.0
2796,54.0,0.0,60.0,0.0,0.0
2797,66.0,0.0,60.0,0.0,0.0
2798,30.0,0.0,60.0,0.0,0.0
2799,42.0,64.0,60.0,0.0,0.0
2800,55.0,0.0,60.0,0.0,0.0
2801,67.0,0.0,60.0,0.0,0.0
2802,31.0,64.0,60.0,0.0,0.0
2803,43.0,0.0,60.0,0.0,0.0
2804,33.0,0.0,60.0,0.0,0.0
2805,69.0,0.0,60.0,0.0,0.0
2806,45.0,0.0,60.0,0.0,0.0
2807,57.0,64.0,60.0,0.0,0.0
2808,58.0,0.0,60.0,0.0,0.0
2809,34.0,0.0,60.0,0.0,0.0
2810,46.0,0.0,60.0,0.0,0.0
2811,70.0,64.0,60.0,0.0,0.0
2812,60.0,0.0,60.0,0.0,0.0
2813,72.0,0.0,60.0,0.0,0.0
2814,36.0,64.0,60.0,0.0,0.0
2815,48.0,0.0,60.0,0.0,0.0
2816,62.0,64.0,180.0,0.0,0.0
2817,38.0,0.0,180.0,0.0,0.0
2818,46.0,0.0,60.0,0.0,0.0
2819,34.0,0.0,60.0,0.0,0.0
2820,70.0,0.0,60.0,0.0,0.0
2821,58.0,64.0,60.0,0.0,0.0
2822,69.0,0.0,60.0,0.0,0.0
2823,57.0,0.0,60.0,0.0,0.0
2824,33.0,0.0,60.0,0.0,0.0
2825,45.0,64.0,60.0,0.0,0.0
2826,43.0,0.0,60.0,0.0,0.0
2827,55.0,0.0,60.0,0.0,0.0
2828,67.0,0.0,60.0,0.0,0.0
2829,31.0,0.0,60.0,0.0,0.0
2830,42.0,64.0,60.0,0.0,0.0
2831,30.0,0.0,60.0,0.0,0.0
2832,54.0,0.0,60.0,0.0,0.0
2833,66.0,0.0,60.0,0.0,0.0
2834,31.0,0.0,60.0,0.0,0.0
2835,43.0,62.0,60.0,0.0,0.0
2836,55.0,0.0,60.0,0.0,0.0
2837,67.0,0.0,60.0,0.0,0.0
2838,45.0,2.0,60.0,0.0,0.0
2839,57.0,0.0,60.0,0.0,0.0
2840,69.0,64.0,60.0,0.0,0.0
2841,33.0,0.0,60.0,0.0,0.0
2842,55.0,0.0,60.0,0.0,0.0
2843,63.0,64.0,390.0,0.0,0.0
2844,67.0,64.0,60.0,0.0,0.0
2845,31.0,0.0,60.0,0.0,0.0
2846,39.0,0.0,390.0,0.0,0.0
2847,43.0,0.0,60.0,0.0,0.0
2848,30.0,0.0,60.0,0.0,0.0
2849,42.0,0.0,60.0,0.0,0.0
2850,66.0,0.0,60.0,0.0,0.0
2851,54.0,64.0,60.0,0.0,0.0
2852,43.0,0.0,60.0,0.0,0.0
2853,31.0,0.0,60.0,0.0,0.0
2854,55.0,64.0,60.0,0.0,0.0
2855,67.0,0.0,60.0,0.0,0.0
2856,69.0,0.0,60.0,0.0,0.0
2857,45.0,0.0,60.0,0.0,0.0
2858,33.0,0.0,60.0,0.0,0.0
2859,57.0,64.0,60.0,0.0,0.0
2860,46.0,0.0,60.0,0.0,0.0
2861,34.0,0.0,60.0,0.0,0.0
2862,58.0,0.0,60.0,0.0,0.0
2863,70.0,64.0,60.0,0.0,0.0
2864,72.0,0.0,60.0,0.0,0.0
2865,60.0,0.0,60.0,0.0,0.0
2866,36.0,0.0,60.0,0.0,0.0
2867,48.0,0.0,60.0,0.0,0.0
2868,58.0,0.0,60.0,0.0,0.0
2869,62.0,0.0,180.0,0.0,0.0
2870,70.0,0.0,60.0,0.0,0.0
2871,34.0,64.0,60.0,0.0,0.0
2872,38.0,0.0,180.0,0.0,0.0
2873,46.0,0.0,60.0,0.0,0.0
2874,33.0,0.0,60.0,0.0,0.0
2875,45.0,64.0,60.0,0.0,0.0
2876,69.0,0.0,60.0,0.0,0.0
2877,57.0,0.0,60.0,0.0,0.0
2878,55.0,0.0,60.0,0.0,0.0
2879,67.0,0.0,60.0,0.0,0.0
2880,31.0,64.0,60.0,0.0,0.0
2881,43.0,0.0,60.0,0.0,0.0
2882,30.0,0.0,60.0,0.0,0.0
2883,54.0,0.0,60.0,0.0,0.0
2884,66.0,0.0,60.0,0.0,0.0
2885,42.0,64.0,60.0,0.0,0.0
2886,67.0,62.0,60.0,0.0,0.0
2887,55.0,0.0,60.0,0.0,0.0
2888,31.0,0.0,60.0,0.0,0.0
2889,43.0,0.0,60.0,0.0,0.0
2890,45.0,2.0,60.0,0.0,0.0
2891,69.0,64.0,60.0,0.0,0.0
2892,57.0,0.0,60.0,0.0,0.0
2893,33.0,0.0,60.0,0.0,0.0
2894,58.0,0.0,60.0,0.0,0.0
2895,70.0,0.0,60.0,0.0,0.0
2896,34.0,0.0,60.0,0.0,0.0
2897,42.0,0.0,390.0,0.0,0.0
2898,46.0,64.0,60.0,0.0,0.0
2899,66.0,0.0,390.0,0.0,0.0
2900,57.0,0.0,60.0,0.0,0.0
2901,69.0,0.0,60.0,0.0,0.0
2902,45.0,64.0,60.0,0.0,0.0
2903,33.0,0.0,60.0,0.0,0.0
2904,58.0,64.0,60.0,0.0,0.0
2905,34.0,0.0,60.0,0.0,0.0
2906,70.0,0.0,60.0,0.0,0.0
2907,46.0,0.0,60.0,0.0,0.0
2908,72.0,64.0,60.0,0.0,0.0
2909,60.0,0.0,60.0,0.0,0.0
2910,48.0,0.0,60.0,0.0,0.0
2911,36.0,0.0,60.0,0.0,0.0
2912,49.0,0.0,60.0,0.0,0.0
2913,61.0,0.0,60.0,0.0,0.0
2914,37.0,64.0,60.0,0.0,0.0
2915,73.0,0.0,60.0,0.0,0.0
2916,51.0,0.0,60.0,0.0,0.0
2917,39.0,0.0,60.0,0.0,0.0
2918,63.0,0.0,60.0,0.0,0.0
2919,75.0,64.0,60.0,0.0,0.0
2920,41.0,0.0,180.0,0.0,0.0
2921,61.0,0.0,60.0,0.0,0.0
2922,65.0,0.0,180.0,0.0,0.0
2923,73.0,64.0,60.0,0.0,0.0
2924,37.0,0.0,60.0,0.0,0.0
2925,49.0,0.0,60.0,0.0,0.0
2926,48.0,0.0,60.0,0.0,0.0
2927,36.0,0.0,60.0,0.0,0.0
2928,60.0,0.0,60.0,0.0,0.0
2929,72.0,64.0,60.0,0.0,0.0
2930,46.0,64.0,60.0,0.0,0.0
2931,34.0,0.0,60.0,0.0,0.0
2932,70.0,0.0,60.0,0.0,0.0
2933,58.0,0.0,60.0,0.0,0.0
2934,57.0,0.0,60.0,0.0,0.0
2935,69.0,0.0,60.0,0.0,0.0
2936,33.0,0.0,60.0,0.0,0.0
2937,45.0,64.0,60.0,0.0,0.0
2938,70.0,0.0,60.0,0.0,0.0
2939,58.0,0.0,60.0,0.0,0.0
2940,34.0,0.0,60.0,0.0,0.0
2941,46.0,62.0,60.0,0.0,0.0
2942,36.0,0.0,60.0,0.0,0.0
2943,72.0,64.0,60.0,0.0,0.0
2944,48.0,2.0,60.0,0.0,0.0
2945,60.0,0.0,60.0,0.0,0.0
2946,58.0,0.0,60.0,0.0,0.0
2947,66.0,0.0,390.0,0.0,0.0
2948,70.0,64.0,60.0,0.0,0.0
2949,34.0,0.0,60.0,0.0,0.0
2950,46.0,0.0,60.0,0.0,0.0
2951,42.0,0.0,390.0,0.0,0.0
2952,33.0,0.0,60.0,0.0,0.0
2953,57.0,0.0,60.0,0.0,0.0
2954,69.0,0.0,60.0,0.0,0.0
2955,45.0,64.0,60.0,0.0,0.0
2956,70.0,0.0,60.0,0.0,0.0
2957,58.0,0.0,60.0,0.0,0.0
2958,34.0,0.0,60.0,0.0,0.0
2959,46.0,64.0,60.0,0.0,0.0
2960,48.0,0.0,60.0,0.0,0.0
2961,36.0,0.0,60.0,0.0,0.0
2962,60.0,64.0,60.0,0.0,0.0
2963,72.0,0.0,60.0,0.0,0.0
2964,61.0,0.0,60.0,0.0,0.0
2965,73.0,64.0,60.0,0.0,0.0
2966,49.0,0.0,60.0,0.0,0.0
2967,37.0,0.0,60.0,0.0,0.0
2968,75.0,0.0,60.0,0.0,0.0
2969,63.0,0.0,60.0,0.0,0.0
2970,39.0,64.0,60.0,0.0,0.0
2971,51.0,0.0,60.0,0.0,0.0
2972,49.0,0.0,60.0,0.0,0.0
2973,41.0,64.0,180.0,0.0,0.0
2974,37.0,0.0,60.0,0.0,0.0
2975,65.0,0.0,180.0,0.0,0.0
2976,73.0,0.0,60.0,0.0,0.0
2977,61.0,64.0,60.0,0.0,0.0
2978,72.0,64.0,60.0,0.0,0.0
2979,60.0,0.0,60.0,0.0,0.0
2980,48.0,0.0,60.0,0.0,0.0
2981,36.0,0.0,60.0,0.0,0.0
2982,46.0,0.0,60.0,0.0,0.0
2983,58.0,0.0,60.0,0.0,0.0
2984,34.0,0.0,60.0,0.0,0.0
2985,70.0,0.0,60.0,0.0,0.0
2986,37.0,0.0,60.0,0.0,0.0
2987,45.0,0.0,180.0,0.0,0.0
2988,49.0,0.0,60.0,0.0,0.0
2989,69.0,0.0,180.0,0.0,0.0
2990,73.0,64.0,60.0,0.0,0.0
2991,61.0,0.0,60.0,0.0,0.0
2992,51.0,64.0,60.0,0.0,0.0
2993,39.0,0.0,60.0,0.0,0.0
2994,63.0,0.0,60.0,0.0,0.0
2995,75.0,0.0,60.0,0.0,0.0
2996,54.0,64.0,60.0,0.0,0.0
2997,42.0,0.0,60.0,0.0,0.0
2998,66.0,0.0,60.0,0.0,0.0
2999,78.0,0.0,60.0,0.0,0.0
3000,44.0,0.0,180.0,0.0,0.0
3001,52.0,0.0,60.0,0.0,0.0
3002,76.0,0.0,60.0,0.0,0.0
3003,68.0,64.0,180.0,0.0,0.0
3004,64.0,64.0,60.0,0.0,0.0
3005,40.0,0.0,60.0,0.0,0.0
3006,51.0,0.0,60.0,0.0,0.0
3007,63.0,0.0,60.0,0.0,0.0
3008,39.0,0.0,60.0,0.0,0.0
3009,75.0,64.0,60.0,0.0,0.0
3010,37.0,0.0,60.0,0.0,0.0
3011,49.0,0.0,60.0,0.0,0.0
3012,61.0,0.0,60.0,0.0,0.0
3013,73.0,0.0,60.0,0.0,0.0
3014,40.0,64.0,60.0,0.0,0.0
3015,48.0,0.0,180.0,0.0,0.0
3016,52.0,0.0,60.0,0.0,0.0
3017,76.0,0.0,60.0,0.0,0.0
3018,72.0,0.0,180.0,0.0,0.0
3019,64.0,0.0,60.0,0.0,0.0
3020,42.0,0.0,60.0,0.0,0.0
3021,78.0,64.0,60.0,0.0,0.0
3022,54.0,0.0,60.0,0.0,0.0
3023,66.0,0.0,60.0,0.0,0.0
3024,69.0,0.0,60.0,0.0,0.0
3025,81.0,64.0,60.0,0.0,0.0
3026,45.0,0.0,60.0,0.0,0.0
3027,57.0,0.0,60.0,0.0,0.0
3028,43.0,0.0,60.0,0.0,0.0
3029,47.0,0.0,180.0,0.0,0.0
3030,55.0,0.0,60.0,0.0,0.0
3031,67.0,0.0,60.0,0.0,0.0
3032,71.0,0.0,180.0,0.0,0.0
3033,79.0,64.0,60.0,0.0,0.0
3034,78.0,0.0,60.0,0.0,0.0
3035,42.0,0.0,60.0,0.0,0.0
3036,54.0,64.0,60.0,0.0,0.0
3037,66.0,0.0,60.0,0.0,0.0
3038,40.0,64.0,60.0,0.0,0.0
3039,64.0,0.0,60.0,0.0,0.0
3040,76.0,0.0,60.0,0.0,0.0
3041,52.0,0.0,60.0,0.0,0.0
3042,43.0,64.0,60.0,0.0,0.0
3043,51.0,0.0,180.0,0.0,0.0
3044,55.0,0.0,60.0,0.0,0.0
3045,67.0,0.0,60.0,0.0,0.0
3046,79.0,0.0,60.0,0.0,0.0
3047,75.0,0.0,180.0,0.0,0.0
3048,81.0,0.0,60.0,0.0,0.0
3049,57.0,0.0,60.0,0.0,0.0
3050,45.0,64.0,60.0,0.0,0.0
3051,69.0,0.0,60.0,0.0,0.0
3052,48.0,0.0,60.0,0.0,0.0
3053,60.0,0.0,60.0,0.0,0.0
3054,72.0,64.0,60.0,0.0,0.0
3055,84.0,0.0,60.0,0.0,0.0
3056,82.0,0.0,60.0,0.0,0.0
3057,46.0,64.0,60.0,0.0,0.0
3058,50.0,64.0,180.0,0.0,0.0
3059,58.0,0.0,60.0,0.0,0.0
3060,70.0,0.0,60.0,0.0,0.0
3061,74.0,0.0,180.0,0.0,0.0
3062,57.0,0.0,60.0,0.0,0.0
3063,81.0,64.0,60.0,0.0,0.0
3064,69.0,0.0,60.0,0.0,0.0
3065,45.0,0.0,60.0,0.0,0.0
3066,43.0,0.0,60.0,0.0,0.0
3067,67.0,0.0,60.0,0.0,0.0
3068,79.0,0.0,60.0,0.0,0.0
3069,55.0,0.0,60.0,0.0,0.0
3070,42.0,0.0,60.0,0.0,0.0
3071,54.0,0.0,60.0,0.0,0.0
3072,78.0,0.0,60.0,0.0,0.0
3073,73.0,0.0,60.0,0.0,0.0
3074,66.0,0.0,60.0,0.0,0.0
3075,70.0,64.0,60.0,0.0,0.0
3076,52.0,64.0,60.0,0.0,0.0
3077,40.0,0.0,60.0,0.0,0.0
3078,67.0,0.0,60.0,0.0,0.0
3079,79.0,0.0,60.0,0.0,0.0
3080,70.0,0.0,60.0,0.0,0.0
3081,37.0,0.0,60.0,0.0,0.0
3082,49.0,64.0,60.0,0.0,0.0
3083,82.0,0.0,60.0,0.0,0.0
3084,73.0,0.0,60.0,0.0,0.0
3085,85.0,0.0,60.0,0.0,0.0
3086,46.0,64.0,60.0,0.0,0.0
3087,34.0,0.0,60.0,0.0,0.0
3088,78.0,0.0,60.0,0.0,0.0
3089,45.0,0.0,60.0,0.0,0.0
3090,33.0,64.0,60.0,0.0,0.0
3091,90.0,0.0,60.0,0.0,0.0
3092,79.0,0.0,60.0,0.0,0.0
3093,91.0,0.0,60.0,0.0,0.0
3094,31.0,64.0,60.0,0.0,0.0
3095,43.0,0.0,60.0,0.0,0.0
3096,79.0,0.0,60.0,0.0,0.0
3097,41.0,0.0,60.0,0.0,0.0
3098,29.0,64.0,60.0,0.0,0.0
3099,91.0,0.0,15.0,0.0,0.0
3100,28.0,0.0,60.0,0.0,0.0
3101,40.0,0.0,60.0,0.0,0.0
3102,91.0,64.0,15.0,0.0,0.0
3103,27.0,0.0,60.0,0.0,0.0
3104,39.0,0.0,60.0,0.0,0.0
3105,79.0,0.0,15.0,0.0,0.0
3106,79.0,64.0,15.0,0.0,0.0
3107,82.0,0.0,180.0,0.0,0.0
3108,26.0,0.0,60.0,0.0,0.0
3109,86.0,0.0,180.0,0.0,0.0
3110,91.0,0.0,60.0,0.0,0.0
3111,38.0,64.0,60.0,0.0,0.0
3112,78.0,0.0,60.0,0.0,0.0
3113,90.0,64.0,60.0,0.0,0.0
3114,30.0,0.0,60.0,0.0,0.0
3115,42.0,0.0,60.0,0.0,0.0
3116,79.0,64.0,60.0,0.0,0.0
3117,43.0,0.0,60.0,0.0,0.0
3118,31.0,0.0,60.0,0.0,0.0
3119,91.0,0.0,60.0,0.0,0.0
3120,90.0,0.0,60.0,0.0,0.0
3121,78.0,0.0,60.0,0.0,0.0
3122,44.0,64.0,60.0,0.0,0.0
3123,32.0,0.0,60.0,0.0,0.0
3124,45.0,0.0,60.0,0.0,0.0
3125,77.0,64.0,60.0,0.0,0.0
3126,89.0,0.0,60.0,0.0,0.0
3127,33.0,0.0,60.0,0.0,0.0
3128,34.0,0.0,60.0,0.0,0.0
3129,46.0,0.0,60.0,0.0,0.0
3130,88.0,0.0,60.0,0.0,0.0
3131,76.0,64.0,60.0,0.0,0.0
3132,77.0,64.0,60.0,0.0,0.0
3133,84.0,0.0,180.0,0.0,0.0
3134,89.0,0.0,60.0,0.0,0.0
3135,33.0,0.0,60.0,0.0,0.0
3136,45.0,0.0,60.0,0.0,0.0
3137,44.0,0.0,60.0,0.0,0.0
3138,32.0,64.0,60.0,0.0,0.0
3139,88.0,0.0,60.0,0.0,0.0
3140,76.0,0.0,60.0,0.0,0.0
3141,33.0,0.0,60.0,0.0,0.0
3142,45.0,64.0,60.0,0.0,0.0
3143,77.0,0.0,60.0,0.0,0.0
3144,89.0,0.0,60.0,0.0,0.0
3145,76.0,0.0,60.0,0.0,0.0
3146,88.0,0.0,60.0,0.0,0.0
3147,34.0,64.0,60.0,0.0,0.0
3148,46.0,0.0,60.0,0.0,0.0
3149,75.0,64.0,60.0,0.0,0.0
3150,47.0,0.0,60.0,0.0,0.0
3151,35.0,0.0,60.0,0.0,0.0
3152,87.0,0.0,60.0,0.0,0.0
3153,36.0,0.0,60.0,0.0,0.0
3154,48.0,0.0,60.0,0.0,0.0
3155,74.0,64.0,60.0,0.0,0.0
3156,86.0,0.0,60.0,0.0,0.0
3157,87.0,64.0,60.0,0.0,0.0
3158,75.0,0.0,60.0,0.0,0.0
3159,47.0,0.0,60.0,0.0,0.0
3160,35.0,0.0,60.0,0.0,0.0
3161,34.0,64.0,60.0,0.0,0.0
3162,74.0,0.0,60.0,0.0,0.0
3163,86.0,0.0,60.0,0.0,0.0
3164,46.0,0.0,60.0,0.0,0.0
3165,75.0,0.0,60.0,0.0,0.0
3166,87.0,0.0,60.0,0.0,0.0
3167,35.0,64.0,60.0,0.0,0.0
3168,47.0,0.0,60.0,0.0,0.0
3169,74.0,0.0,60.0,0.0,0.0
3170,86.0,0.0,60.0,0.0,0.0
3171,36.0,0.0,60.0,0.0,0.0
3172,48.0,64.0,60.0,0.0,0.0
3173,49.0,64.0,60.0,0.0,0.0
3174,85.0,0.0,60.0,0.0,0.0
3175,73.0,0.0,60.0,0.0,0.0
3176,37.0,0.0,60.0,0.0,0.0
3177,50.0,0.0,60.0,0.0,0.0
3178,84.0,0.0,60.0,0.0,0.0
3179,72.0,0.0,60.0,0.0,0.0
3180,38.0,0.0,60.0,0.0,0.0
3181,49.0,0.0,60.0,0.0,0.0
3182,85.0,0.0,60.0,0.0,0.0
3183,37.0,64.0,60.0,0.0,0.0
3184,78.0,0.0,15.0,0.0,0.0
3185,73.0,0.0,60.0,0.0,0.0
3186,81.0,64.0,15.0,0.0,0.0
3187,72.0,64.0,60.0,0.0,0.0
3188,84.0,0.0,60.0,0.0,0.0
3189,48.0,0.0,60.0,0.0,0.0
3190,36.0,0.0,60.0,0.0,0.0
3191,37.0,0.0,60.0,0.0,0.0
3192,49.0,64.0,60.0,0.0,0.0
3193,85.0,0.0,60.0,0.0,0.0
3194,73.0,0.0,60.0,0.0,0.0
3195,72.0,0.0,60.0,0.0,0.0
3196,50.0,0.0,60.0,0.0,0.0
3197,84.0,0.0,60.0,0.0,0.0
3198,38.0,64.0,60.0,0.0,0.0
3199,51.0,0.0,60.0,0.0,0.0
3200,39.0,64.0,60.0,0.0,0.0
3201,83.0,0.0,60.0,0.0,0.0
3202,71.0,0.0,60.0,0.0,0.0
3203,82.0,64.0,60.0,0.0,0.0
3204,70.0,0.0,60.0,0.0,0.0
3205,52.0,0.0,60.0,0.0,0.0
3206,40.0,0.0,60.0,0.0,0.0
3207,72.0,0.0,60.0,0.0,0.0
3208,39.0,64.0,60.0,0.0,0.0
3209,51.0,0.0,60.0,0.0,0.0
3210,78.0,0.0,390.0,0.0,0.0
3211,81.0,0.0,180.0,0.0,0.0
3212,84.0,0.0,60.0,0.0,0.0
3213,71.0,0.0,60.0,0.0,0.0
3214,83.0,0.0,60.0,0.0,0.0
3215,38.0,0.0,60.0,0.0,0.0
3216,50.0,64.0,60.0,0.0,0.0
3217,84.0,64.0,60.0,0.0,0.0
3218,72.0,0.0,60.0,0.0,0.0
3219,39.0,0.0,60.0,0.0,0.0
3220,51.0,0.0,60.0,0.0,0.0
3221,71.0,0.0,60.0,0.0,0.0
3222,83.0,64.0,60.0,0.0,0.0
3223,40.0,0.0,60.0,0.0,0.0
3224,52.0,0.0,60.0,0.0,0.0
3225,41.0,0.0,60.0,0.0,0.0
3226,53.0,0.0,60.0,0.0,0.0
3227,82.0,0.0,60.0,0.0,0.0
3228,70.0,64.0,60.0,0.0,0.0
3229,42.0,0.0,60.0,0.0,0.0
3230,81.0,0.0,60.0,0.0,0.0
3231,69.0,0.0,60.0,0.0,0.0
3232,54.0,64.0,60.0,0.0,0.0
3233,73.0,384.0,390.0,0.0,0.0
3234,82.0,0.0,60.0,0.0,0.0
3235,70.0,0.0,60.0,0.0,0.0
3236,76.0,0.0,390.0,0.0,0.0
3237,43.0,0.0,60.0,0.0,0.0
3238,55.0,64.0,60.0,0.0,0.0
3239,81.0,64.0,60.0,0.0,0.0
3240,69.0,0.0,60.0,0.0,0.0
3241,54.0,0.0,60.0,0.0,0.0
3242,42.0,0.0,60.0,0.0,0.0
3243,70.0,64.0,60.0,0.0,0.0
3244,82.0,0.0,60.0,0.0,0.0
3245,55.0,0.0,60.0,0.0,0.0
3246,43.0,0.0,60.0,0.0,0.0
3247,56.0,0.0,60.0,0.0,0.0
3248,44.0,0.0,60.0,0.0,0.0
3249,81.0,64.0,60.0,0.0,0.0
3250,69.0,0.0,60.0,0.0,0.0
3251,45.0,0.0,60.0,0.0,0.0
3252,68.0,0.0,60.0,0.0,0.0
3253,80.0,0.0,60.0,0.0,0.0
3254,57.0,64.0,60.0,0.0,0.0
3255,67.0,0.0,60.0,0.0,0.0
3256,79.0,0.0,60.0,0.0,0.0
3257,46.0,0.0,60.0,0.0,0.0
3258,58.0,0.0,60.0,0.0,0.0
3259,57.0,0.0,390.0,0.0,0.0
3260,62.0,0.0,390.0,0.0,0.0
3261,67.0,0.0,390.0,0.0,0.0
3262,69.0,0.0,390.0,0.0,0.0
3263,79.0,384.0,390.0,0.0,0.0
3264,50.0,0.0,15.0,0.0,0.0
3265,45.0,0.0,390.0,0.0,0.0
3266,38.0,0.0,390.0,0.0,0.0
3267,74.0,0.0,15.0,0.0,0.0
3268,66.0,0.0,390.0,0.0,0.0
3269,69.0,0.0,390.0,0.0,0.0
3270,78.0,1488.0,390.0,0.0,0.0
3271,38.0,0.0,1500.0,0.0,0.0
3272,31.0,0.0,1500.0,0.0,0.0
3273,67.0,0.0,1530.0,0.0,0.0
3274,70.0,0.0,1530.0,0.0,0.0
3275,74.0,0.0,1530.0,0.0,0.0
3276,79.0,0.0,1530.0,0.0,0.0
3277,43.0,48.0,1500.0,0.0,0.0
