,note,step,duration,channel,velocity
0,40.0,288.0,180.0,0.0,0.0
1,47.0,96.0,300.0,0.0,0.0
2,45.0,96.0,15.0,0.0,0.0
3,44.0,288.0,90.0,0.0,0.0
4,53.0,96.0,300.0,0.0,0.0
5,52.0,48.0,90.0,0.0,0.0
6,51.0,48.0,40.0,0.0,0.0
7,52.0,48.0,40.0,0.0,0.0
8,53.0,48.0,40.0,0.0,0.0
9,52.0,48.0,40.0,0.0,0.0
10,55.0,48.0,40.0,0.0,0.0
11,53.0,48.0,40.0,0.0,0.0
12,48.0,48.0,40.0,0.0,0.0
13,49.0,48.0,40.0,0.0,0.0
14,50.0,48.0,40.0,0.0,0.0
15,49.0,48.0,40.0,0.0,0.0
16,52.0,48.0,40.0,0.0,0.0
17,50.0,48.0,40.0,0.0,0.0
18,53.0,48.0,40.0,0.0,0.0
19,52.0,48.0,40.0,0.0,0.0
20,45.0,48.0,40.0,0.0,0.0
21,47.0,6.0,40.0,0.0,0.0
22,48.0,184.0,15.0,0.0,0.0
23,60.0,30.0,330.0,0.0,0.0
24,69.0,0.0,90.0,0.0,0.0
25,64.0,96.0,90.0,0.0,0.0
26,64.0,0.0,90.0,0.0,0.0
27,69.0,66.0,90.0,0.0,0.0
28,69.0,96.0,90.0,0.0,0.0
29,64.0,0.0,90.0,0.0,0.0
30,59.0,48.0,150.0,0.0,0.0
31,64.0,0.0,90.0,0.0,0.0
32,69.0,48.0,90.0,0.0,0.0
33,64.0,0.0,90.0,0.0,0.0
34,69.0,0.0,90.0,0.0,0.0
35,57.0,96.0,40.0,0.0,0.0
36,72.0,94.0,390.0,0.0,0.0
37,60.0,0.0,90.0,0.0,0.0
38,65.0,96.0,90.0,0.0,0.0
39,57.0,54.0,300.0,0.0,0.0
40,60.0,0.0,90.0,0.0,0.0
41,65.0,96.0,90.0,0.0,0.0
42,60.0,0.0,90.0,0.0,0.0
43,65.0,18.0,90.0,0.0,0.0
44,60.0,0.0,90.0,0.0,0.0
45,65.0,0.0,90.0,0.0,0.0
46,59.0,24.0,20.0,0.0,0.0
47,57.0,2.0,20.0,0.0,0.0
48,60.0,48.0,90.0,0.0,0.0
49,65.0,0.0,90.0,0.0,0.0
50,71.0,46.0,150.0,0.0,0.0
51,55.0,2.0,150.0,0.0,0.0
52,65.0,0.0,90.0,0.0,0.0
53,60.0,2.0,90.0,0.0,0.0
54,69.0,94.0,40.0,0.0,0.0
55,53.0,0.0,40.0,0.0,0.0
56,59.0,0.0,90.0,0.0,0.0
57,53.0,48.0,240.0,0.0,0.0
58,62.0,96.0,90.0,0.0,0.0
59,69.0,46.0,180.0,0.0,0.0
60,59.0,0.0,90.0,0.0,0.0
61,62.0,2.0,90.0,0.0,0.0
62,68.0,46.0,180.0,0.0,0.0
63,62.0,0.0,90.0,0.0,0.0
64,59.0,0.0,90.0,0.0,0.0
65,52.0,48.0,40.0,0.0,0.0
66,62.0,2.0,90.0,0.0,0.0
67,51.0,48.0,40.0,0.0,0.0
68,59.0,0.0,90.0,0.0,0.0
69,52.0,0.0,40.0,0.0,0.0
70,55.0,48.0,40.0,0.0,0.0
71,59.0,0.0,90.0,0.0,0.0
72,69.0,94.0,180.0,0.0,0.0
73,62.0,0.0,90.0,0.0,0.0
74,53.0,48.0,40.0,0.0,0.0
75,50.0,48.0,40.0,0.0,0.0
76,62.0,0.0,90.0,0.0,0.0
77,59.0,2.0,90.0,0.0,0.0
78,47.0,0.0,40.0,0.0,0.0
79,71.0,94.0,180.0,0.0,0.0
80,44.0,30.0,150.0,0.0,0.0
81,62.0,0.0,90.0,0.0,0.0
82,59.0,66.0,90.0,0.0,0.0
83,62.0,0.0,90.0,0.0,0.0
84,59.0,2.0,90.0,0.0,0.0
85,64.0,32.0,300.0,0.0,0.0
86,62.0,50.0,90.0,0.0,0.0
87,59.0,0.0,90.0,0.0,0.0
88,62.0,2.0,90.0,0.0,0.0
89,39.0,46.0,40.0,0.0,0.0
90,59.0,0.0,90.0,0.0,0.0
91,40.0,8.0,40.0,0.0,0.0
92,56.0,2.0,90.0,0.0,0.0
93,62.0,0.0,90.0,0.0,0.0
94,43.0,40.0,15.0,0.0,0.0
95,41.0,46.0,40.0,0.0,0.0
96,40.0,16.0,40.0,0.0,0.0
97,62.0,0.0,90.0,0.0,0.0
98,45.0,46.0,40.0,0.0,0.0
99,56.0,2.0,90.0,0.0,0.0
100,47.0,190.0,40.0,0.0,0.0
101,64.0,0.0,15.0,0.0,0.0
102,48.0,94.0,180.0,0.0,0.0
103,57.0,2.0,90.0,0.0,0.0
104,36.0,30.0,150.0,0.0,0.0
105,57.0,66.0,90.0,0.0,0.0
106,60.0,0.0,90.0,0.0,0.0
107,69.0,94.0,180.0,0.0,0.0
108,57.0,2.0,90.0,0.0,0.0
109,60.0,0.0,90.0,0.0,0.0
110,60.0,50.0,90.0,0.0,0.0
111,57.0,0.0,90.0,0.0,0.0
112,52.0,46.0,150.0,0.0,0.0
113,67.0,0.0,180.0,0.0,0.0
114,57.0,0.0,90.0,0.0,0.0
115,60.0,2.0,90.0,0.0,0.0
116,67.0,64.0,180.0,0.0,0.0
117,52.0,94.0,15.0,0.0,0.0
118,60.0,0.0,90.0,0.0,0.0
119,57.0,66.0,90.0,0.0,0.0
120,60.0,0.0,90.0,0.0,0.0
121,57.0,2.0,90.0,0.0,0.0
122,65.0,0.0,180.0,0.0,0.0
123,60.0,34.0,90.0,0.0,0.0
124,38.0,30.0,60.0,0.0,0.0
125,57.0,0.0,90.0,0.0,0.0
126,45.0,62.0,60.0,0.0,0.0
127,60.0,2.0,90.0,0.0,0.0
128,57.0,0.0,90.0,0.0,0.0
129,50.0,64.0,60.0,0.0,0.0
130,60.0,34.0,90.0,0.0,0.0
131,57.0,0.0,90.0,0.0,0.0
132,52.0,30.0,60.0,0.0,0.0
133,55.0,62.0,60.0,0.0,0.0
134,57.0,0.0,90.0,0.0,0.0
135,60.0,2.0,90.0,0.0,0.0
136,53.0,94.0,60.0,0.0,0.0
137,57.0,96.0,90.0,0.0,0.0
138,59.0,0.0,90.0,0.0,0.0
139,64.0,0.0,15.0,0.0,0.0
140,59.0,0.0,90.0,0.0,0.0
141,57.0,2.0,90.0,0.0,0.0
142,44.0,8.0,180.0,0.0,0.0
143,59.0,0.0,90.0,0.0,0.0
144,53.0,94.0,15.0,0.0,0.0
145,59.0,2.0,90.0,0.0,0.0
146,52.0,0.0,90.0,0.0,0.0
147,45.0,8.0,15.0,0.0,0.0
148,62.0,0.0,15.0,0.0,0.0
149,57.0,0.0,90.0,0.0,0.0
150,52.0,2.0,90.0,0.0,0.0
151,47.0,8.0,15.0,0.0,0.0
152,45.0,8.0,15.0,0.0,0.0
153,47.0,8.0,15.0,0.0,0.0
154,45.0,8.0,15.0,0.0,0.0
155,47.0,8.0,15.0,0.0,0.0
156,45.0,8.0,15.0,0.0,0.0
157,47.0,8.0,15.0,0.0,0.0
158,45.0,8.0,15.0,0.0,0.0
159,47.0,8.0,15.0,0.0,0.0
160,45.0,6.0,15.0,0.0,0.0
161,47.0,0.0,15.0,0.0,0.0
162,52.0,2.0,90.0,0.0,0.0
163,44.0,24.0,20.0,0.0,0.0
164,57.0,0.0,90.0,0.0,0.0
165,45.0,24.0,20.0,0.0,0.0
166,47.0,22.0,20.0,0.0,0.0
167,48.0,0.0,20.0,0.0,0.0
168,52.0,2.0,90.0,0.0,0.0
169,56.0,0.0,90.0,0.0,0.0
170,60.0,94.0,15.0,0.0,0.0
171,40.0,30.0,150.0,0.0,0.0
172,59.0,0.0,90.0,0.0,0.0
173,52.0,50.0,90.0,0.0,0.0
174,56.0,0.0,90.0,0.0,0.0
175,52.0,2.0,90.0,0.0,0.0
176,39.0,46.0,40.0,0.0,0.0
177,64.0,0.0,90.0,0.0,0.0
178,40.0,48.0,40.0,0.0,0.0
179,64.0,0.0,90.0,0.0,0.0
180,52.0,2.0,90.0,0.0,0.0
181,44.0,46.0,40.0,0.0,0.0
182,47.0,48.0,40.0,0.0,0.0
183,59.0,0.0,90.0,0.0,0.0
184,51.0,46.0,40.0,0.0,0.0
185,64.0,2.0,90.0,0.0,0.0
186,62.0,0.0,90.0,0.0,0.0
187,52.0,8.0,40.0,0.0,0.0
188,59.0,10.0,90.0,0.0,0.0
189,62.0,0.0,90.0,0.0,0.0
190,64.0,0.0,90.0,0.0,0.0
191,55.0,64.0,15.0,0.0,0.0
192,53.0,22.0,60.0,0.0,0.0
193,52.0,0.0,20.0,0.0,0.0
194,48.0,182.0,15.0,0.0,0.0
195,60.0,94.0,390.0,0.0,0.0
196,64.0,0.0,90.0,0.0,0.0
197,69.0,96.0,90.0,0.0,0.0
198,69.0,96.0,90.0,0.0,0.0
199,64.0,0.0,90.0,0.0,0.0
200,64.0,0.0,90.0,0.0,0.0
201,69.0,2.0,90.0,0.0,0.0
202,69.0,50.0,90.0,0.0,0.0
203,64.0,0.0,90.0,0.0,0.0
204,59.0,46.0,150.0,0.0,0.0
205,64.0,0.0,90.0,0.0,0.0
206,69.0,2.0,90.0,0.0,0.0
207,72.0,0.0,390.0,0.0,0.0
208,57.0,94.0,15.0,0.0,0.0
209,60.0,0.0,90.0,0.0,0.0
210,65.0,96.0,90.0,0.0,0.0
211,60.0,96.0,90.0,0.0,0.0
212,65.0,0.0,90.0,0.0,0.0
213,65.0,26.0,90.0,0.0,0.0
214,60.0,0.0,90.0,0.0,0.0
215,60.0,0.0,90.0,0.0,0.0
216,65.0,2.0,90.0,0.0,0.0
217,56.0,24.0,20.0,0.0,0.0
218,59.0,22.0,20.0,0.0,0.0
219,57.0,94.0,20.0,0.0,0.0
220,65.0,0.0,90.0,0.0,0.0
221,71.0,46.0,150.0,0.0,0.0
222,60.0,50.0,90.0,0.0,0.0
223,55.0,0.0,150.0,0.0,0.0
224,65.0,0.0,90.0,0.0,0.0
225,60.0,0.0,90.0,0.0,0.0
226,53.0,2.0,40.0,0.0,0.0
227,69.0,94.0,40.0,0.0,0.0
228,31.0,48.0,90.0,0.0,0.0
229,65.0,0.0,90.0,0.0,0.0
230,59.0,2.0,90.0,0.0,0.0
231,69.0,48.0,390.0,0.0,0.0
232,38.0,46.0,40.0,0.0,0.0
233,59.0,2.0,90.0,0.0,0.0
234,65.0,0.0,90.0,0.0,0.0
235,43.0,48.0,40.0,0.0,0.0
236,59.0,0.0,90.0,0.0,0.0
237,47.0,46.0,40.0,0.0,0.0
238,65.0,2.0,90.0,0.0,0.0
239,50.0,48.0,40.0,0.0,0.0
240,59.0,0.0,90.0,0.0,0.0
241,65.0,2.0,90.0,0.0,0.0
242,53.0,46.0,40.0,0.0,0.0
243,55.0,0.0,40.0,0.0,0.0
244,67.0,0.0,180.0,0.0,0.0
245,65.0,2.0,90.0,0.0,0.0
246,59.0,46.0,40.0,0.0,0.0
247,57.0,32.0,40.0,0.0,0.0
248,62.0,2.0,90.0,0.0,0.0
249,59.0,0.0,90.0,0.0,0.0
250,57.0,32.0,30.0,0.0,0.0
251,55.0,30.0,30.0,0.0,0.0
252,53.0,94.0,30.0,0.0,0.0
253,52.0,32.0,300.0,0.0,0.0
254,62.0,0.0,90.0,0.0,0.0
255,67.0,46.0,330.0,0.0,0.0
256,58.0,96.0,90.0,0.0,0.0
257,62.0,96.0,90.0,0.0,0.0
258,58.0,0.0,90.0,0.0,0.0
259,58.0,0.0,90.0,0.0,0.0
260,61.0,18.0,90.0,0.0,0.0
261,58.0,0.0,90.0,0.0,0.0
262,61.0,2.0,90.0,0.0,0.0
263,52.0,8.0,40.0,0.0,0.0
264,55.0,86.0,15.0,0.0,0.0
265,61.0,50.0,90.0,0.0,0.0
266,57.0,0.0,90.0,0.0,0.0
267,53.0,46.0,150.0,0.0,0.0
268,61.0,2.0,90.0,0.0,0.0
269,57.0,0.0,90.0,0.0,0.0
270,67.0,0.0,15.0,0.0,0.0
271,52.0,0.0,40.0,0.0,0.0
272,67.0,94.0,15.0,0.0,0.0
273,57.0,0.0,90.0,0.0,0.0
274,62.0,66.0,90.0,0.0,0.0
275,52.0,30.0,150.0,0.0,0.0
276,62.0,2.0,90.0,0.0,0.0
277,57.0,0.0,90.0,0.0,0.0
278,38.0,46.0,150.0,0.0,0.0
279,65.0,46.0,1500.0,0.0,0.0
280,57.0,50.0,90.0,0.0,0.0
281,62.0,0.0,90.0,0.0,0.0
282,57.0,0.0,90.0,0.0,0.0
283,62.0,2.0,90.0,0.0,0.0
284,45.0,48.0,40.0,0.0,0.0
285,57.0,0.0,90.0,0.0,0.0
286,62.0,2.0,90.0,0.0,0.0
287,50.0,46.0,40.0,0.0,0.0
288,52.0,48.0,40.0,0.0,0.0
289,57.0,0.0,90.0,0.0,0.0
290,62.0,2.0,90.0,0.0,0.0
291,53.0,46.0,40.0,0.0,0.0
292,55.0,48.0,40.0,0.0,0.0
293,62.0,2.0,90.0,0.0,0.0
294,60.0,0.0,90.0,0.0,0.0
295,56.0,46.0,40.0,0.0,0.0
296,52.0,48.0,40.0,0.0,0.0
297,53.0,46.0,40.0,0.0,0.0
298,60.0,0.0,90.0,0.0,0.0
299,62.0,2.0,90.0,0.0,0.0
300,55.0,48.0,40.0,0.0,0.0
301,60.0,2.0,90.0,0.0,0.0
302,62.0,0.0,90.0,0.0,0.0
303,56.0,46.0,40.0,0.0,0.0
304,53.0,48.0,40.0,0.0,0.0
305,54.0,46.0,40.0,0.0,0.0
306,62.0,2.0,90.0,0.0,0.0
307,60.0,0.0,90.0,0.0,0.0
308,55.0,94.0,40.0,0.0,0.0
309,56.0,46.0,240.0,0.0,0.0
310,60.0,0.0,90.0,0.0,0.0
311,62.0,96.0,90.0,0.0,0.0
312,62.0,50.0,90.0,0.0,0.0
313,60.0,0.0,90.0,0.0,0.0
314,60.0,0.0,90.0,0.0,0.0
315,62.0,2.0,90.0,0.0,0.0
316,55.0,48.0,40.0,0.0,0.0
317,62.0,0.0,90.0,0.0,0.0
318,58.0,46.0,40.0,0.0,0.0
319,60.0,2.0,90.0,0.0,0.0
320,56.0,48.0,40.0,0.0,0.0
321,62.0,2.0,90.0,0.0,0.0
322,55.0,46.0,40.0,0.0,0.0
323,60.0,0.0,90.0,0.0,0.0
324,52.0,48.0,40.0,0.0,0.0
325,55.0,46.0,40.0,0.0,0.0
326,60.0,2.0,90.0,0.0,0.0
327,62.0,0.0,90.0,0.0,0.0
328,53.0,48.0,40.0,0.0,0.0
329,56.0,46.0,40.0,0.0,0.0
330,62.0,2.0,90.0,0.0,0.0
331,60.0,0.0,90.0,0.0,0.0
332,53.0,48.0,40.0,0.0,0.0
333,62.0,2.0,90.0,0.0,0.0
334,48.0,0.0,40.0,0.0,0.0
335,60.0,0.0,90.0,0.0,0.0
336,44.0,48.0,40.0,0.0,0.0
337,53.0,46.0,40.0,0.0,0.0
338,68.0,2.0,540.0,0.0,0.0
339,60.0,0.0,90.0,0.0,0.0
340,62.0,2.0,90.0,0.0,0.0
341,52.0,48.0,40.0,0.0,0.0
342,60.0,0.0,90.0,0.0,0.0
343,62.0,2.0,90.0,0.0,0.0
344,55.0,46.0,40.0,0.0,0.0
345,53.0,48.0,40.0,0.0,0.0
346,60.0,0.0,90.0,0.0,0.0
347,50.0,46.0,40.0,0.0,0.0
348,65.0,2.0,90.0,0.0,0.0
349,49.0,48.0,40.0,0.0,0.0
350,65.0,0.0,90.0,0.0,0.0
351,51.0,46.0,40.0,0.0,0.0
352,60.0,2.0,90.0,0.0,0.0
353,50.0,48.0,40.0,0.0,0.0
354,60.0,0.0,90.0,0.0,0.0
355,53.0,46.0,40.0,0.0,0.0
356,62.0,2.0,90.0,0.0,0.0
357,50.0,46.0,40.0,0.0,0.0
358,62.0,0.0,90.0,0.0,0.0
359,44.0,46.0,40.0,0.0,0.0
360,60.0,48.0,90.0,0.0,0.0
361,68.0,0.0,40.0,0.0,0.0
362,41.0,0.0,40.0,0.0,0.0
363,43.0,48.0,40.0,0.0,0.0
364,64.0,0.0,90.0,0.0,0.0
365,60.0,0.0,90.0,0.0,0.0
366,68.0,30.0,150.0,0.0,0.0
367,48.0,48.0,40.0,0.0,0.0
368,64.0,0.0,90.0,0.0,0.0
369,60.0,0.0,90.0,0.0,0.0
370,52.0,18.0,40.0,0.0,0.0
371,48.0,96.0,40.0,0.0,0.0
372,55.0,30.0,270.0,0.0,0.0
373,67.0,30.0,150.0,0.0,0.0
374,60.0,0.0,90.0,0.0,0.0
375,64.0,66.0,90.0,0.0,0.0
376,60.0,0.0,90.0,0.0,0.0
377,64.0,66.0,90.0,0.0,0.0
378,60.0,0.0,90.0,0.0,0.0
379,64.0,96.0,90.0,0.0,0.0
380,64.0,0.0,90.0,0.0,0.0
381,52.0,48.0,90.0,0.0,0.0
382,60.0,0.0,90.0,0.0,0.0
383,60.0,48.0,40.0,0.0,0.0
384,55.0,72.0,40.0,0.0,0.0
385,57.0,24.0,60.0,0.0,0.0
386,60.0,96.0,90.0,0.0,0.0
387,64.0,0.0,90.0,0.0,0.0
388,52.0,0.0,20.0,0.0,0.0
389,55.0,46.0,180.0,0.0,0.0
390,64.0,0.0,90.0,0.0,0.0
391,60.0,96.0,90.0,0.0,0.0
392,64.0,2.0,90.0,0.0,0.0
393,60.0,0.0,90.0,0.0,0.0
394,60.0,0.0,90.0,0.0,0.0
395,64.0,72.0,90.0,0.0,0.0
396,57.0,48.0,40.0,0.0,0.0
397,52.0,0.0,40.0,0.0,0.0
398,64.0,96.0,90.0,0.0,0.0
399,60.0,0.0,90.0,0.0,0.0
400,55.0,24.0,60.0,0.0,0.0
401,48.0,0.0,20.0,0.0,0.0
402,52.0,48.0,240.0,0.0,0.0
403,67.0,46.0,330.0,0.0,0.0
404,55.0,0.0,90.0,0.0,0.0
405,60.0,96.0,90.0,0.0,0.0
406,55.0,0.0,90.0,0.0,0.0
407,60.0,48.0,90.0,0.0,0.0
408,60.0,0.0,90.0,0.0,0.0
409,55.0,0.0,90.0,0.0,0.0
410,42.0,48.0,40.0,0.0,0.0
411,45.0,2.0,40.0,0.0,0.0
412,55.0,0.0,90.0,0.0,0.0
413,60.0,96.0,90.0,0.0,0.0
414,43.0,0.0,40.0,0.0,0.0
415,50.0,18.0,150.0,0.0,0.0
416,67.0,30.0,150.0,0.0,0.0
417,55.0,0.0,90.0,0.0,0.0
418,59.0,48.0,90.0,0.0,0.0
419,59.0,0.0,90.0,0.0,0.0
420,55.0,0.0,90.0,0.0,0.0
421,48.0,96.0,40.0,0.0,0.0
422,67.0,0.0,90.0,0.0,0.0
423,60.0,0.0,90.0,0.0,0.0
424,64.0,34.0,90.0,0.0,0.0
425,55.0,0.0,90.0,0.0,0.0
426,48.0,64.0,150.0,0.0,0.0
427,60.0,0.0,30.0,0.0,0.0
428,55.0,0.0,30.0,0.0,0.0
429,64.0,32.0,30.0,0.0,0.0
430,60.0,0.0,30.0,0.0,0.0
431,64.0,0.0,30.0,0.0,0.0
432,67.0,96.0,30.0,0.0,0.0
433,72.0,96.0,30.0,0.0,0.0
434,64.0,0.0,30.0,0.0,0.0
435,67.0,0.0,30.0,0.0,0.0
436,67.0,0.0,30.0,0.0,0.0
437,72.0,0.0,30.0,0.0,0.0
438,76.0,96.0,30.0,0.0,0.0
439,64.0,0.0,30.0,0.0,0.0
440,67.0,158.0,30.0,0.0,0.0
441,72.0,0.0,30.0,0.0,0.0
442,66.0,96.0,90.0,0.0,0.0
443,60.0,94.0,180.0,0.0,0.0
444,63.0,0.0,90.0,0.0,0.0
445,69.0,0.0,180.0,0.0,0.0
446,63.0,0.0,90.0,0.0,0.0
447,66.0,2.0,90.0,0.0,0.0
448,59.0,0.0,180.0,0.0,0.0
449,63.0,18.0,90.0,0.0,0.0
450,66.0,0.0,90.0,0.0,0.0
451,63.0,0.0,90.0,0.0,0.0
452,66.0,2.0,90.0,0.0,0.0
453,71.0,16.0,15.0,0.0,0.0
454,72.0,16.0,15.0,0.0,0.0
455,71.0,16.0,15.0,0.0,0.0
456,70.0,14.0,15.0,0.0,0.0
457,71.0,94.0,15.0,0.0,0.0
458,63.0,50.0,90.0,0.0,0.0
459,69.0,0.0,90.0,0.0,0.0
460,54.0,94.0,180.0,0.0,0.0
461,74.0,46.0,150.0,0.0,0.0
462,63.0,2.0,90.0,0.0,0.0
463,69.0,0.0,90.0,0.0,0.0
464,72.0,0.0,40.0,0.0,0.0
465,66.0,0.0,90.0,0.0,0.0
466,71.0,48.0,90.0,0.0,0.0
467,57.0,24.0,150.0,0.0,0.0
468,63.0,2.0,90.0,0.0,0.0
469,64.0,0.0,90.0,0.0,0.0
470,76.0,30.0,150.0,0.0,0.0
471,71.0,2.0,90.0,0.0,0.0
472,55.0,22.0,20.0,0.0,0.0
473,59.0,24.0,20.0,0.0,0.0
474,64.0,0.0,90.0,0.0,0.0
475,57.0,40.0,20.0,0.0,0.0
476,71.0,26.0,90.0,0.0,0.0
477,55.0,0.0,60.0,0.0,0.0
478,39.0,24.0,20.0,0.0,0.0
479,71.0,2.0,90.0,0.0,0.0
480,67.0,0.0,90.0,0.0,0.0
481,64.0,0.0,90.0,0.0,0.0
482,40.0,24.0,20.0,0.0,0.0
483,42.0,22.0,20.0,0.0,0.0
484,43.0,24.0,20.0,0.0,0.0
485,67.0,2.0,90.0,0.0,0.0
486,71.0,0.0,90.0,0.0,0.0
487,46.0,24.0,20.0,0.0,0.0
488,64.0,0.0,90.0,0.0,0.0
489,47.0,24.0,20.0,0.0,0.0
490,51.0,22.0,20.0,0.0,0.0
491,52.0,16.0,20.0,0.0,0.0
492,71.0,2.0,90.0,0.0,0.0
493,67.0,0.0,90.0,0.0,0.0
494,64.0,0.0,90.0,0.0,0.0
495,54.0,16.0,15.0,0.0,0.0
496,55.0,16.0,15.0,0.0,0.0
497,58.0,16.0,15.0,0.0,0.0
498,59.0,16.0,15.0,0.0,0.0
499,60.0,14.0,15.0,0.0,0.0
500,61.0,94.0,15.0,0.0,0.0
501,65.0,0.0,90.0,0.0,0.0
502,62.0,72.0,180.0,0.0,0.0
503,71.0,0.0,180.0,0.0,0.0
504,68.0,96.0,90.0,0.0,0.0
505,65.0,2.0,90.0,0.0,0.0
506,68.0,0.0,90.0,0.0,0.0
507,65.0,0.0,90.0,0.0,0.0
508,71.0,2.0,90.0,0.0,0.0
509,73.0,94.0,180.0,0.0,0.0
510,61.0,22.0,60.0,0.0,0.0
511,62.0,32.0,20.0,0.0,0.0
512,71.0,2.0,90.0,0.0,0.0
513,61.0,32.0,30.0,0.0,0.0
514,65.0,0.0,90.0,0.0,0.0
515,60.0,30.0,30.0,0.0,0.0
516,61.0,0.0,30.0,0.0,0.0
517,74.0,0.0,180.0,0.0,0.0
518,65.0,0.0,90.0,0.0,0.0
519,71.0,50.0,90.0,0.0,0.0
520,68.0,46.0,150.0,0.0,0.0
521,65.0,0.0,90.0,0.0,0.0
522,71.0,2.0,90.0,0.0,0.0
523,59.0,94.0,15.0,0.0,0.0
524,74.0,48.0,90.0,0.0,0.0
525,64.0,2.0,90.0,0.0,0.0
526,67.0,0.0,90.0,0.0,0.0
527,73.0,24.0,90.0,0.0,0.0
528,67.0,0.0,90.0,0.0,0.0
529,64.0,2.0,90.0,0.0,0.0
530,58.0,22.0,20.0,0.0,0.0
531,61.0,0.0,20.0,0.0,0.0
532,59.0,70.0,20.0,0.0,0.0
533,78.0,6.0,150.0,0.0,0.0
534,64.0,24.0,90.0,0.0,0.0
535,66.0,0.0,90.0,0.0,0.0
536,73.0,0.0,90.0,0.0,0.0
537,58.0,0.0,60.0,0.0,0.0
538,66.0,0.0,90.0,0.0,0.0
539,64.0,0.0,90.0,0.0,0.0
540,41.0,24.0,20.0,0.0,0.0
541,73.0,24.0,90.0,0.0,0.0
542,42.0,18.0,20.0,0.0,0.0
543,45.0,24.0,20.0,0.0,0.0
544,46.0,0.0,20.0,0.0,0.0
545,48.0,24.0,20.0,0.0,0.0
546,64.0,0.0,90.0,0.0,0.0
547,66.0,16.0,90.0,0.0,0.0
548,73.0,0.0,90.0,0.0,0.0
549,49.0,24.0,20.0,0.0,0.0
550,53.0,24.0,20.0,0.0,0.0
551,54.0,0.0,20.0,0.0,0.0
552,57.0,16.0,15.0,0.0,0.0
553,64.0,0.0,90.0,0.0,0.0
554,73.0,0.0,90.0,0.0,0.0
555,58.0,16.0,15.0,0.0,0.0
556,60.0,16.0,15.0,0.0,0.0
557,61.0,16.0,15.0,0.0,0.0
558,65.0,16.0,15.0,0.0,0.0
559,66.0,0.0,15.0,0.0,0.0
560,70.0,72.0,90.0,0.0,0.0
561,73.0,94.0,180.0,0.0,0.0
562,67.0,24.0,180.0,0.0,0.0
563,64.0,0.0,90.0,0.0,0.0
564,70.0,2.0,90.0,0.0,0.0
565,64.0,0.0,90.0,0.0,0.0
566,55.0,0.0,20.0,0.0,0.0
567,65.0,0.0,90.0,0.0,0.0
568,71.0,66.0,90.0,0.0,0.0
569,74.0,6.0,180.0,0.0,0.0
570,55.0,30.0,150.0,0.0,0.0
571,71.0,2.0,90.0,0.0,0.0
572,65.0,0.0,90.0,0.0,0.0
573,71.0,0.0,90.0,0.0,0.0
574,65.0,0.0,90.0,0.0,0.0
575,75.0,10.0,180.0,0.0,0.0
576,54.0,8.0,15.0,0.0,0.0
577,55.0,8.0,15.0,0.0,0.0
578,57.0,8.0,15.0,0.0,0.0
579,55.0,8.0,15.0,0.0,0.0
580,57.0,8.0,15.0,0.0,0.0
581,55.0,8.0,15.0,0.0,0.0
582,57.0,8.0,15.0,0.0,0.0
583,55.0,8.0,15.0,0.0,0.0
584,57.0,8.0,15.0,0.0,0.0
585,55.0,8.0,15.0,0.0,0.0
586,57.0,8.0,15.0,0.0,0.0
587,55.0,8.0,15.0,0.0,0.0
588,71.0,0.0,90.0,0.0,0.0
589,65.0,2.0,90.0,0.0,0.0
590,57.0,8.0,15.0,0.0,0.0
591,55.0,8.0,15.0,0.0,0.0
592,57.0,8.0,15.0,0.0,0.0
593,55.0,8.0,15.0,0.0,0.0
594,57.0,8.0,15.0,0.0,0.0
595,55.0,8.0,15.0,0.0,0.0
596,57.0,8.0,15.0,0.0,0.0
597,55.0,8.0,15.0,0.0,0.0
598,57.0,8.0,15.0,0.0,0.0
599,55.0,8.0,15.0,0.0,0.0
600,57.0,8.0,15.0,0.0,0.0
601,55.0,0.0,15.0,0.0,0.0
602,76.0,22.0,180.0,0.0,0.0
603,64.0,16.0,90.0,0.0,0.0
604,72.0,0.0,90.0,0.0,0.0
605,54.0,12.0,15.0,0.0,0.0
606,55.0,12.0,15.0,0.0,0.0
607,57.0,12.0,15.0,0.0,0.0
608,55.0,16.0,15.0,0.0,0.0
609,53.0,16.0,15.0,0.0,0.0
610,52.0,16.0,15.0,0.0,0.0
611,51.0,0.0,15.0,0.0,0.0
612,64.0,0.0,90.0,0.0,0.0
613,72.0,0.0,90.0,0.0,0.0
614,53.0,16.0,15.0,0.0,0.0
615,52.0,16.0,15.0,0.0,0.0
616,50.0,16.0,15.0,0.0,0.0
617,48.0,16.0,15.0,0.0,0.0
618,47.0,16.0,15.0,0.0,0.0
619,45.0,2.0,15.0,0.0,0.0
620,44.0,24.0,20.0,0.0,0.0
621,71.0,24.0,90.0,0.0,0.0
622,65.0,0.0,90.0,0.0,0.0
623,77.0,16.0,390.0,0.0,0.0
624,74.0,0.0,390.0,0.0,0.0
625,43.0,24.0,20.0,0.0,0.0
626,42.0,24.0,20.0,0.0,0.0
627,43.0,0.0,20.0,0.0,0.0
628,42.0,24.0,20.0,0.0,0.0
629,65.0,16.0,90.0,0.0,0.0
630,71.0,0.0,90.0,0.0,0.0
631,41.0,24.0,20.0,0.0,0.0
632,40.0,24.0,20.0,0.0,0.0
633,41.0,0.0,20.0,0.0,0.0
634,65.0,0.0,90.0,0.0,0.0
635,71.0,0.0,90.0,0.0,0.0
636,40.0,16.0,15.0,0.0,0.0
637,39.0,16.0,15.0,0.0,0.0
638,38.0,16.0,15.0,0.0,0.0
639,39.0,16.0,15.0,0.0,0.0
640,38.0,16.0,15.0,0.0,0.0
641,37.0,16.0,15.0,0.0,0.0
642,36.0,16.0,15.0,0.0,0.0
643,65.0,0.0,90.0,0.0,0.0
644,71.0,2.0,90.0,0.0,0.0
645,35.0,16.0,15.0,0.0,0.0
646,34.0,16.0,15.0,0.0,0.0
647,33.0,16.0,15.0,0.0,0.0
648,32.0,16.0,15.0,0.0,0.0
649,31.0,0.0,15.0,0.0,0.0
650,30.0,16.0,15.0,0.0,0.0
651,66.0,0.0,150.0,0.0,0.0
652,71.0,16.0,150.0,0.0,0.0
653,75.0,16.0,390.0,0.0,0.0
654,78.0,0.0,390.0,0.0,0.0
655,29.0,16.0,15.0,0.0,0.0
656,30.0,16.0,15.0,0.0,0.0
657,32.0,16.0,15.0,0.0,0.0
658,34.0,16.0,15.0,0.0,0.0
659,35.0,16.0,15.0,0.0,0.0
660,37.0,16.0,15.0,0.0,0.0
661,39.0,16.0,15.0,0.0,0.0
662,40.0,16.0,15.0,0.0,0.0
663,42.0,0.0,15.0,0.0,0.0
664,44.0,16.0,15.0,0.0,0.0
665,46.0,16.0,15.0,0.0,0.0
666,71.0,0.0,150.0,0.0,0.0
667,66.0,16.0,150.0,0.0,0.0
668,47.0,16.0,15.0,0.0,0.0
669,49.0,16.0,15.0,0.0,0.0
670,51.0,16.0,15.0,0.0,0.0
671,52.0,16.0,15.0,0.0,0.0
672,54.0,16.0,15.0,0.0,0.0
673,56.0,16.0,15.0,0.0,0.0
674,58.0,16.0,15.0,0.0,0.0
675,59.0,16.0,15.0,0.0,0.0
676,61.0,16.0,15.0,0.0,0.0
677,63.0,0.0,15.0,0.0,0.0
678,61.0,16.0,15.0,0.0,0.0
679,59.0,0.0,15.0,0.0,0.0
680,58.0,16.0,15.0,0.0,0.0
681,63.0,8.0,150.0,0.0,0.0
682,75.0,8.0,360.0,0.0,0.0
683,66.0,0.0,150.0,0.0,0.0
684,71.0,0.0,360.0,0.0,0.0
685,56.0,16.0,15.0,0.0,0.0
686,54.0,16.0,15.0,0.0,0.0
687,53.0,16.0,15.0,0.0,0.0
688,56.0,16.0,15.0,0.0,0.0
689,54.0,24.0,15.0,0.0,0.0
690,52.0,24.0,20.0,0.0,0.0
691,51.0,16.0,20.0,0.0,0.0
692,49.0,24.0,20.0,0.0,0.0
693,47.0,24.0,20.0,0.0,0.0
694,66.0,0.0,150.0,0.0,0.0
695,63.0,0.0,150.0,0.0,0.0
696,46.0,24.0,20.0,0.0,0.0
697,45.0,24.0,20.0,0.0,0.0
698,42.0,24.0,20.0,0.0,0.0
699,41.0,24.0,20.0,0.0,0.0
700,43.0,24.0,20.0,0.0,0.0
701,42.0,16.0,20.0,0.0,0.0
702,44.0,24.0,20.0,0.0,0.0
703,43.0,24.0,20.0,0.0,0.0
704,64.0,0.0,150.0,0.0,0.0
705,46.0,24.0,20.0,0.0,0.0
706,66.0,8.0,150.0,0.0,0.0
707,73.0,24.0,180.0,0.0,0.0
708,44.0,24.0,20.0,0.0,0.0
709,42.0,24.0,20.0,0.0,0.0
710,41.0,24.0,20.0,0.0,0.0
711,44.0,24.0,20.0,0.0,0.0
712,42.0,16.0,20.0,0.0,0.0
713,40.0,24.0,20.0,0.0,0.0
714,39.0,0.0,20.0,0.0,0.0
715,37.0,24.0,20.0,0.0,0.0
716,64.0,8.0,150.0,0.0,0.0
717,58.0,0.0,150.0,0.0,0.0
718,66.0,0.0,180.0,0.0,0.0
719,35.0,24.0,20.0,0.0,0.0
720,34.0,24.0,20.0,0.0,0.0
721,32.0,24.0,20.0,0.0,0.0
722,30.0,24.0,20.0,0.0,0.0
723,28.0,16.0,20.0,0.0,0.0
724,27.0,24.0,20.0,0.0,0.0
725,25.0,94.0,20.0,0.0,0.0
726,59.0,66.0,90.0,0.0,0.0
727,71.0,46.0,330.0,0.0,0.0
728,63.0,0.0,90.0,0.0,0.0
729,23.0,30.0,150.0,0.0,0.0
730,59.0,96.0,90.0,0.0,0.0
731,59.0,50.0,90.0,0.0,0.0
732,59.0,98.0,90.0,0.0,0.0
733,59.0,48.0,150.0,0.0,0.0
734,71.0,48.0,15.0,0.0,0.0
735,57.0,0.0,40.0,0.0,0.0
736,55.0,48.0,40.0,0.0,0.0
737,71.0,48.0,15.0,0.0,0.0
738,50.0,48.0,40.0,0.0,0.0
739,59.0,0.0,90.0,0.0,0.0
740,62.0,2.0,90.0,0.0,0.0
741,43.0,46.0,40.0,0.0,0.0
742,45.0,48.0,40.0,0.0,0.0
743,59.0,0.0,90.0,0.0,0.0
744,62.0,2.0,90.0,0.0,0.0
745,47.0,46.0,40.0,0.0,0.0
746,38.0,46.0,40.0,0.0,0.0
747,31.0,48.0,40.0,0.0,0.0
748,59.0,0.0,90.0,0.0,0.0
749,62.0,2.0,90.0,0.0,0.0
750,59.0,0.0,150.0,0.0,0.0
751,71.0,144.0,15.0,0.0,0.0
752,62.0,2.0,90.0,0.0,0.0
753,67.0,0.0,90.0,0.0,0.0
754,72.0,0.0,40.0,0.0,0.0
755,57.0,48.0,40.0,0.0,0.0
756,74.0,142.0,330.0,0.0,0.0
757,55.0,48.0,40.0,0.0,0.0
758,50.0,48.0,40.0,0.0,0.0
759,71.0,2.0,90.0,0.0,0.0
760,67.0,0.0,90.0,0.0,0.0
761,62.0,0.0,90.0,0.0,0.0
762,43.0,46.0,40.0,0.0,0.0
763,45.0,48.0,40.0,0.0,0.0
764,71.0,0.0,90.0,0.0,0.0
765,62.0,0.0,90.0,0.0,0.0
766,47.0,46.0,40.0,0.0,0.0
767,67.0,2.0,90.0,0.0,0.0
768,38.0,46.0,40.0,0.0,0.0
769,67.0,0.0,180.0,0.0,0.0
770,71.0,0.0,180.0,0.0,0.0
771,31.0,2.0,40.0,0.0,0.0
772,62.0,50.0,180.0,0.0,0.0
773,74.0,24.0,180.0,0.0,0.0
774,59.0,24.0,150.0,0.0,0.0
775,71.0,2.0,180.0,0.0,0.0
776,67.0,0.0,180.0,0.0,0.0
777,62.0,0.0,180.0,0.0,0.0
778,57.0,48.0,40.0,0.0,0.0
779,76.0,0.0,15.0,0.0,0.0
780,55.0,46.0,40.0,0.0,0.0
781,50.0,48.0,40.0,0.0,0.0
782,62.0,0.0,90.0,0.0,0.0
783,67.0,0.0,90.0,0.0,0.0
784,71.0,2.0,90.0,0.0,0.0
785,43.0,46.0,40.0,0.0,0.0
786,45.0,48.0,40.0,0.0,0.0
787,62.0,2.0,90.0,0.0,0.0
788,67.0,0.0,90.0,0.0,0.0
789,71.0,0.0,90.0,0.0,0.0
790,47.0,46.0,40.0,0.0,0.0
791,38.0,46.0,40.0,0.0,0.0
792,31.0,48.0,40.0,0.0,0.0
793,67.0,50.0,180.0,0.0,0.0
794,62.0,0.0,180.0,0.0,0.0
795,71.0,2.0,90.0,0.0,0.0
796,59.0,24.0,150.0,0.0,0.0
797,74.0,22.0,180.0,0.0,0.0
798,62.0,2.0,90.0,0.0,0.0
799,67.0,0.0,180.0,0.0,0.0
800,57.0,48.0,40.0,0.0,0.0
801,71.0,0.0,15.0,0.0,0.0
802,63.0,0.0,90.0,0.0,0.0
803,60.0,2.0,90.0,0.0,0.0
804,55.0,46.0,40.0,0.0,0.0
805,51.0,48.0,40.0,0.0,0.0
806,48.0,46.0,40.0,0.0,0.0
807,63.0,0.0,90.0,0.0,0.0
808,67.0,0.0,90.0,0.0,0.0
809,60.0,2.0,90.0,0.0,0.0
810,50.0,48.0,40.0,0.0,0.0
811,51.0,46.0,40.0,0.0,0.0
812,67.0,0.0,90.0,0.0,0.0
813,63.0,0.0,90.0,0.0,0.0
814,60.0,2.0,90.0,0.0,0.0
815,43.0,46.0,40.0,0.0,0.0
816,69.0,94.0,90.0,0.0,0.0
817,60.0,0.0,180.0,0.0,0.0
818,63.0,50.0,180.0,0.0,0.0
819,31.0,50.0,40.0,0.0,0.0
820,67.0,0.0,150.0,0.0,0.0
821,59.0,46.0,150.0,0.0,0.0
822,60.0,0.0,90.0,0.0,0.0
823,63.0,2.0,90.0,0.0,0.0
824,57.0,0.0,40.0,0.0,0.0
825,69.0,48.0,40.0,0.0,0.0
826,71.0,46.0,330.0,0.0,0.0
827,55.0,46.0,40.0,0.0,0.0
828,50.0,48.0,40.0,0.0,0.0
829,59.0,0.0,90.0,0.0,0.0
830,43.0,46.0,40.0,0.0,0.0
831,62.0,2.0,90.0,0.0,0.0
832,45.0,48.0,40.0,0.0,0.0
833,47.0,46.0,40.0,0.0,0.0
834,62.0,0.0,90.0,0.0,0.0
835,59.0,2.0,90.0,0.0,0.0
836,38.0,46.0,40.0,0.0,0.0
837,59.0,146.0,90.0,0.0,0.0
838,62.0,0.0,90.0,0.0,0.0
839,31.0,2.0,40.0,0.0,0.0
840,71.0,22.0,180.0,0.0,0.0
841,59.0,24.0,150.0,0.0,0.0
842,62.0,2.0,90.0,0.0,0.0
843,67.0,0.0,90.0,0.0,0.0
844,57.0,48.0,40.0,0.0,0.0
845,72.0,0.0,20.0,0.0,0.0
846,55.0,46.0,40.0,0.0,0.0
847,67.0,0.0,90.0,0.0,0.0
848,62.0,2.0,90.0,0.0,0.0
849,50.0,48.0,40.0,0.0,0.0
850,62.0,0.0,90.0,0.0,0.0
851,67.0,0.0,90.0,0.0,0.0
852,43.0,46.0,40.0,0.0,0.0
853,71.0,2.0,90.0,0.0,0.0
854,45.0,48.0,40.0,0.0,0.0
855,47.0,46.0,40.0,0.0,0.0
856,62.0,2.0,90.0,0.0,0.0
857,67.0,0.0,90.0,0.0,0.0
858,71.0,0.0,90.0,0.0,0.0
859,38.0,46.0,40.0,0.0,0.0
860,62.0,50.0,180.0,0.0,0.0
861,31.0,50.0,40.0,0.0,0.0
862,67.0,0.0,180.0,0.0,0.0
863,71.0,0.0,180.0,0.0,0.0
864,59.0,24.0,150.0,0.0,0.0
865,74.0,94.0,15.0,0.0,0.0
866,67.0,0.0,90.0,0.0,0.0
867,71.0,0.0,90.0,0.0,0.0
868,62.0,2.0,90.0,0.0,0.0
869,57.0,0.0,40.0,0.0,0.0
870,76.0,48.0,20.0,0.0,0.0
871,62.0,2.0,90.0,0.0,0.0
872,55.0,46.0,40.0,0.0,0.0
873,67.0,0.0,90.0,0.0,0.0
874,71.0,0.0,90.0,0.0,0.0
875,77.0,2.0,180.0,0.0,0.0
876,50.0,48.0,40.0,0.0,0.0
877,67.0,0.0,180.0,0.0,0.0
878,43.0,46.0,40.0,0.0,0.0
879,62.0,0.0,180.0,0.0,0.0
880,45.0,48.0,40.0,0.0,0.0
881,47.0,48.0,40.0,0.0,0.0
882,38.0,46.0,40.0,0.0,0.0
883,71.0,0.0,15.0,0.0,0.0
884,31.0,146.0,40.0,0.0,0.0
885,62.0,0.0,180.0,0.0,0.0
886,59.0,48.0,150.0,0.0,0.0
887,67.0,48.0,15.0,0.0,0.0
888,57.0,0.0,40.0,0.0,0.0
889,55.0,48.0,40.0,0.0,0.0
890,71.0,48.0,15.0,0.0,0.0
891,67.0,0.0,15.0,0.0,0.0
892,62.0,0.0,15.0,0.0,0.0
893,50.0,48.0,40.0,0.0,0.0
894,43.0,48.0,40.0,0.0,0.0
895,45.0,48.0,40.0,0.0,0.0
896,47.0,48.0,40.0,0.0,0.0
897,38.0,46.0,40.0,0.0,0.0
898,31.0,48.0,40.0,0.0,0.0
899,55.0,46.0,150.0,0.0,0.0
900,67.0,0.0,90.0,0.0,0.0
901,71.0,94.0,90.0,0.0,0.0
902,62.0,2.0,90.0,0.0,0.0
903,53.0,0.0,40.0,0.0,0.0
904,60.0,96.0,90.0,0.0,0.0
905,67.0,0.0,90.0,0.0,0.0
906,53.0,94.0,180.0,0.0,0.0
907,67.0,2.0,90.0,0.0,0.0
908,60.0,0.0,90.0,0.0,0.0
909,60.0,0.0,90.0,0.0,0.0
910,67.0,96.0,90.0,0.0,0.0
911,51.0,0.0,180.0,0.0,0.0
912,60.0,0.0,90.0,0.0,0.0
913,67.0,2.0,90.0,0.0,0.0
914,52.0,8.0,15.0,0.0,0.0
915,72.0,8.0,15.0,0.0,0.0
916,60.0,2.0,90.0,0.0,0.0
917,67.0,0.0,90.0,0.0,0.0
918,53.0,8.0,15.0,0.0,0.0
919,52.0,8.0,15.0,0.0,0.0
920,53.0,8.0,15.0,0.0,0.0
921,52.0,8.0,15.0,0.0,0.0
922,53.0,8.0,15.0,0.0,0.0
923,52.0,8.0,15.0,0.0,0.0
924,53.0,8.0,15.0,0.0,0.0
925,52.0,8.0,15.0,0.0,0.0
926,53.0,8.0,15.0,0.0,0.0
927,52.0,6.0,15.0,0.0,0.0
928,53.0,8.0,15.0,0.0,0.0
929,52.0,8.0,15.0,0.0,0.0
930,67.0,0.0,90.0,0.0,0.0
931,60.0,2.0,90.0,0.0,0.0
932,53.0,8.0,15.0,0.0,0.0
933,52.0,8.0,15.0,0.0,0.0
934,53.0,8.0,15.0,0.0,0.0
935,52.0,8.0,15.0,0.0,0.0
936,53.0,8.0,15.0,0.0,0.0
937,52.0,8.0,15.0,0.0,0.0
938,53.0,8.0,15.0,0.0,0.0
939,52.0,0.0,15.0,0.0,0.0
940,53.0,8.0,15.0,0.0,0.0
941,70.0,94.0,20.0,0.0,0.0
942,51.0,6.0,15.0,0.0,0.0
943,52.0,0.0,15.0,0.0,0.0
944,53.0,94.0,180.0,0.0,0.0
945,70.0,46.0,150.0,0.0,0.0
946,60.0,0.0,90.0,0.0,0.0
947,65.0,50.0,90.0,0.0,0.0
948,60.0,0.0,90.0,0.0,0.0
949,65.0,2.0,90.0,0.0,0.0
950,68.0,0.0,40.0,0.0,0.0
951,67.0,30.0,150.0,0.0,0.0
952,64.0,66.0,90.0,0.0,0.0
953,60.0,0.0,90.0,0.0,0.0
954,48.0,0.0,150.0,0.0,0.0
955,60.0,0.0,90.0,0.0,0.0
956,64.0,96.0,90.0,0.0,0.0
957,70.0,46.0,150.0,0.0,0.0
958,53.0,94.0,180.0,0.0,0.0
959,60.0,0.0,90.0,0.0,0.0
960,65.0,50.0,90.0,0.0,0.0
961,60.0,0.0,90.0,0.0,0.0
962,65.0,2.0,90.0,0.0,0.0
963,68.0,0.0,40.0,0.0,0.0
964,67.0,0.0,180.0,0.0,0.0
965,48.0,96.0,180.0,0.0,0.0
966,63.0,96.0,90.0,0.0,0.0
967,60.0,0.0,90.0,0.0,0.0
968,60.0,0.0,90.0,0.0,0.0
969,63.0,2.0,90.0,0.0,0.0
970,67.0,46.0,90.0,0.0,0.0
971,49.0,144.0,180.0,0.0,0.0
972,61.0,32.0,150.0,0.0,0.0
973,56.0,0.0,150.0,0.0,0.0
974,65.0,18.0,40.0,0.0,0.0
975,44.0,48.0,150.0,0.0,0.0
976,42.0,48.0,40.0,0.0,0.0
977,41.0,48.0,40.0,0.0,0.0
978,44.0,48.0,40.0,0.0,0.0
979,49.0,48.0,40.0,0.0,0.0
980,44.0,160.0,40.0,0.0,0.0
981,53.0,272.0,150.0,0.0,0.0
982,43.0,48.0,40.0,0.0,0.0
983,48.0,48.0,40.0,0.0,0.0
984,64.0,2.0,90.0,0.0,0.0
985,60.0,0.0,90.0,0.0,0.0
986,52.0,46.0,40.0,0.0,0.0
987,48.0,94.0,40.0,0.0,0.0
988,60.0,0.0,90.0,0.0,0.0
989,64.0,96.0,90.0,0.0,0.0
990,55.0,94.0,300.0,0.0,0.0
991,60.0,0.0,90.0,0.0,0.0
992,64.0,96.0,90.0,0.0,0.0
993,60.0,2.0,90.0,0.0,0.0
994,64.0,0.0,90.0,0.0,0.0
995,60.0,0.0,90.0,0.0,0.0
996,64.0,2.0,90.0,0.0,0.0
997,52.0,48.0,90.0,0.0,0.0
998,60.0,48.0,40.0,0.0,0.0
999,55.0,48.0,40.0,0.0,0.0
1000,60.0,2.0,90.0,0.0,0.0
1001,64.0,0.0,90.0,0.0,0.0
1002,57.0,46.0,40.0,0.0,0.0
1003,52.0,94.0,40.0,0.0,0.0
1004,64.0,96.0,90.0,0.0,0.0
1005,55.0,48.0,180.0,0.0,0.0
1006,60.0,0.0,90.0,0.0,0.0
1007,60.0,2.0,90.0,0.0,0.0
1008,64.0,0.0,90.0,0.0,0.0
1009,57.0,46.0,40.0,0.0,0.0
1010,64.0,0.0,90.0,0.0,0.0
1011,60.0,2.0,90.0,0.0,0.0
1012,52.0,72.0,40.0,0.0,0.0
1013,64.0,0.0,90.0,0.0,0.0
1014,55.0,22.0,60.0,0.0,0.0
1015,60.0,2.0,90.0,0.0,0.0
1016,48.0,94.0,20.0,0.0,0.0
1017,60.0,0.0,90.0,0.0,0.0
1018,55.0,96.0,90.0,0.0,0.0
1019,52.0,46.0,240.0,0.0,0.0
1020,55.0,50.0,90.0,0.0,0.0
1021,60.0,0.0,90.0,0.0,0.0
1022,55.0,2.0,90.0,0.0,0.0
1023,60.0,0.0,90.0,0.0,0.0
1024,42.0,48.0,40.0,0.0,0.0
1025,55.0,0.0,90.0,0.0,0.0
1026,60.0,2.0,90.0,0.0,0.0
1027,45.0,46.0,40.0,0.0,0.0
1028,43.0,94.0,40.0,0.0,0.0
1029,50.0,46.0,150.0,0.0,0.0
1030,67.0,0.0,15.0,0.0,0.0
1031,59.0,0.0,90.0,0.0,0.0
1032,65.0,0.0,90.0,0.0,0.0
1033,55.0,50.0,90.0,0.0,0.0
1034,55.0,0.0,90.0,0.0,0.0
1035,59.0,0.0,90.0,0.0,0.0
1036,65.0,2.0,90.0,0.0,0.0
1037,55.0,0.0,90.0,0.0,0.0
1038,60.0,96.0,90.0,0.0,0.0
1039,48.0,0.0,15.0,0.0,0.0
1040,67.0,94.0,390.0,0.0,0.0
1041,64.0,0.0,90.0,0.0,0.0
1042,55.0,0.0,90.0,0.0,0.0
1043,60.0,0.0,90.0,0.0,0.0
1044,64.0,50.0,90.0,0.0,0.0
1045,64.0,0.0,90.0,0.0,0.0
1046,60.0,2.0,90.0,0.0,0.0
1047,55.0,0.0,90.0,0.0,0.0
1048,39.0,48.0,40.0,0.0,0.0
1049,60.0,0.0,90.0,0.0,0.0
1050,55.0,2.0,90.0,0.0,0.0
1051,64.0,0.0,90.0,0.0,0.0
1052,41.0,46.0,40.0,0.0,0.0
1053,40.0,0.0,40.0,0.0,0.0
1054,47.0,24.0,150.0,0.0,0.0
1055,64.0,50.0,90.0,0.0,0.0
1056,62.0,0.0,90.0,0.0,0.0
1057,56.0,0.0,90.0,0.0,0.0
1058,68.0,22.0,180.0,0.0,0.0
1059,56.0,0.0,90.0,0.0,0.0
1060,62.0,10.0,90.0,0.0,0.0
1061,64.0,0.0,90.0,0.0,0.0
1062,45.0,0.0,40.0,0.0,0.0
1063,69.0,0.0,20.0,0.0,0.0
1064,33.0,8.0,15.0,0.0,0.0
1065,45.0,174.0,15.0,0.0,0.0
1066,60.0,30.0,330.0,0.0,0.0
1067,69.0,0.0,90.0,0.0,0.0
1068,64.0,96.0,90.0,0.0,0.0
1069,69.0,0.0,90.0,0.0,0.0
1070,64.0,66.0,90.0,0.0,0.0
1071,69.0,0.0,90.0,0.0,0.0
1072,64.0,96.0,90.0,0.0,0.0
1073,69.0,48.0,90.0,0.0,0.0
1074,64.0,0.0,90.0,0.0,0.0
1075,59.0,48.0,150.0,0.0,0.0
1076,64.0,0.0,90.0,0.0,0.0
1077,69.0,0.0,90.0,0.0,0.0
1078,57.0,96.0,40.0,0.0,0.0
1079,60.0,0.0,90.0,0.0,0.0
1080,57.0,54.0,300.0,0.0,0.0
1081,65.0,96.0,90.0,0.0,0.0
1082,72.0,94.0,390.0,0.0,0.0
1083,65.0,0.0,90.0,0.0,0.0
1084,60.0,96.0,90.0,0.0,0.0
1085,65.0,18.0,90.0,0.0,0.0
1086,60.0,0.0,90.0,0.0,0.0
1087,60.0,2.0,90.0,0.0,0.0
1088,65.0,0.0,90.0,0.0,0.0
1089,59.0,24.0,20.0,0.0,0.0
1090,57.0,0.0,20.0,0.0,0.0
1091,55.0,2.0,150.0,0.0,0.0
1092,65.0,0.0,90.0,0.0,0.0
1093,60.0,48.0,90.0,0.0,0.0
1094,71.0,46.0,150.0,0.0,0.0
1095,65.0,2.0,90.0,0.0,0.0
1096,60.0,0.0,90.0,0.0,0.0
1097,69.0,94.0,40.0,0.0,0.0
1098,53.0,0.0,40.0,0.0,0.0
1099,53.0,48.0,240.0,0.0,0.0
1100,69.0,46.0,180.0,0.0,0.0
1101,59.0,0.0,90.0,0.0,0.0
1102,62.0,96.0,90.0,0.0,0.0
1103,59.0,0.0,90.0,0.0,0.0
1104,62.0,2.0,90.0,0.0,0.0
1105,59.0,0.0,90.0,0.0,0.0
1106,62.0,0.0,90.0,0.0,0.0
1107,68.0,46.0,180.0,0.0,0.0
1108,52.0,48.0,40.0,0.0,0.0
1109,59.0,2.0,90.0,0.0,0.0
1110,51.0,48.0,40.0,0.0,0.0
1111,62.0,0.0,90.0,0.0,0.0
1112,52.0,0.0,40.0,0.0,0.0
1113,55.0,48.0,40.0,0.0,0.0
1114,69.0,94.0,180.0,0.0,0.0
1115,59.0,0.0,90.0,0.0,0.0
1116,62.0,48.0,90.0,0.0,0.0
1117,53.0,0.0,40.0,0.0,0.0
1118,50.0,48.0,40.0,0.0,0.0
1119,59.0,0.0,90.0,0.0,0.0
1120,62.0,2.0,90.0,0.0,0.0
1121,47.0,0.0,40.0,0.0,0.0
1122,44.0,30.0,150.0,0.0,0.0
1123,59.0,66.0,90.0,0.0,0.0
1124,62.0,0.0,90.0,0.0,0.0
1125,71.0,94.0,180.0,0.0,0.0
1126,59.0,0.0,90.0,0.0,0.0
1127,62.0,2.0,90.0,0.0,0.0
1128,62.0,0.0,90.0,0.0,0.0
1129,59.0,48.0,90.0,0.0,0.0
1130,64.0,30.0,300.0,0.0,0.0
1131,59.0,10.0,90.0,0.0,0.0
1132,39.0,48.0,40.0,0.0,0.0
1133,62.0,0.0,90.0,0.0,0.0
1134,40.0,0.0,40.0,0.0,0.0
1135,56.0,0.0,90.0,0.0,0.0
1136,62.0,18.0,90.0,0.0,0.0
1137,43.0,38.0,15.0,0.0,0.0
1138,41.0,48.0,40.0,0.0,0.0
1139,40.0,0.0,40.0,0.0,0.0
1140,56.0,0.0,90.0,0.0,0.0
1141,62.0,162.0,90.0,0.0,0.0
1142,45.0,48.0,40.0,0.0,0.0
1143,47.0,0.0,40.0,0.0,0.0
1144,64.0,0.0,40.0,0.0,0.0
1145,64.0,0.0,150.0,0.0,0.0
1146,48.0,30.0,150.0,0.0,0.0
1147,57.0,96.0,90.0,0.0,0.0
1148,60.0,66.0,90.0,0.0,0.0
1149,57.0,0.0,90.0,0.0,0.0
1150,69.0,30.0,150.0,0.0,0.0
1151,33.0,0.0,150.0,0.0,0.0
1152,60.0,0.0,90.0,0.0,0.0
1153,57.0,96.0,90.0,0.0,0.0
1154,60.0,48.0,90.0,0.0,0.0
1155,57.0,0.0,90.0,0.0,0.0
1156,67.0,30.0,150.0,0.0,0.0
1157,52.0,18.0,150.0,0.0,0.0
1158,57.0,0.0,90.0,0.0,0.0
1159,60.0,0.0,90.0,0.0,0.0
1160,52.0,96.0,40.0,0.0,0.0
1161,57.0,0.0,90.0,0.0,0.0
1162,52.0,30.0,150.0,0.0,0.0
1163,60.0,66.0,90.0,0.0,0.0
1164,67.0,0.0,150.0,0.0,0.0
1165,57.0,10.0,90.0,0.0,0.0
1166,60.0,0.0,90.0,0.0,0.0
1167,26.0,52.0,15.0,0.0,0.0
1168,57.0,0.0,90.0,0.0,0.0
1169,60.0,38.0,90.0,0.0,0.0
1170,65.0,30.0,150.0,0.0,0.0
1171,38.0,34.0,60.0,0.0,0.0
1172,45.0,28.0,60.0,0.0,0.0
1173,57.0,2.0,90.0,0.0,0.0
1174,60.0,0.0,90.0,0.0,0.0
1175,50.0,62.0,60.0,0.0,0.0
1176,64.0,30.0,150.0,0.0,0.0
1177,57.0,0.0,90.0,0.0,0.0
1178,60.0,32.0,90.0,0.0,0.0
1179,52.0,32.0,60.0,0.0,0.0
1180,55.0,34.0,60.0,0.0,0.0
1181,60.0,0.0,90.0,0.0,0.0
1182,57.0,0.0,90.0,0.0,0.0
1183,53.0,96.0,60.0,0.0,0.0
1184,53.0,30.0,150.0,0.0,0.0
1185,59.0,66.0,90.0,0.0,0.0
1186,64.0,0.0,150.0,0.0,0.0
1187,57.0,0.0,90.0,0.0,0.0
1188,59.0,0.0,90.0,0.0,0.0
1189,57.0,96.0,90.0,0.0,0.0
1190,53.0,66.0,90.0,0.0,0.0
1191,62.0,0.0,150.0,0.0,0.0
1192,59.0,0.0,90.0,0.0,0.0
1193,44.0,30.0,150.0,0.0,0.0
1194,59.0,8.0,90.0,0.0,0.0
1195,52.0,0.0,90.0,0.0,0.0
1196,45.0,8.0,15.0,0.0,0.0
1197,57.0,0.0,90.0,0.0,0.0
1198,52.0,0.0,90.0,0.0,0.0
1199,62.0,0.0,90.0,0.0,0.0
1200,47.0,8.0,15.0,0.0,0.0
1201,45.0,8.0,15.0,0.0,0.0
1202,47.0,8.0,15.0,0.0,0.0
1203,45.0,8.0,15.0,0.0,0.0
1204,47.0,8.0,15.0,0.0,0.0
1205,45.0,8.0,15.0,0.0,0.0
1206,47.0,8.0,15.0,0.0,0.0
1207,45.0,8.0,15.0,0.0,0.0
1208,47.0,8.0,15.0,0.0,0.0
1209,45.0,8.0,15.0,0.0,0.0
1210,47.0,24.0,15.0,0.0,0.0
1211,44.0,24.0,20.0,0.0,0.0
1212,52.0,0.0,90.0,0.0,0.0
1213,57.0,0.0,90.0,0.0,0.0
1214,60.0,96.0,90.0,0.0,0.0
1215,45.0,24.0,20.0,0.0,0.0
1216,47.0,24.0,20.0,0.0,0.0
1217,48.0,0.0,20.0,0.0,0.0
1218,56.0,66.0,90.0,0.0,0.0
1219,52.0,0.0,90.0,0.0,0.0
1220,60.0,0.0,90.0,0.0,0.0
1221,40.0,30.0,150.0,0.0,0.0
1222,52.0,0.0,90.0,0.0,0.0
1223,56.0,0.0,90.0,0.0,0.0
1224,59.0,10.0,90.0,0.0,0.0
1225,27.0,8.0,15.0,0.0,0.0
1226,64.0,2.0,90.0,0.0,0.0
1227,52.0,0.0,90.0,0.0,0.0
1228,28.0,8.0,15.0,0.0,0.0
1229,29.0,12.0,15.0,0.0,0.0
1230,30.0,12.0,15.0,0.0,0.0
1231,31.0,12.0,15.0,0.0,0.0
1232,32.0,12.0,15.0,0.0,0.0
1233,33.0,12.0,15.0,0.0,0.0
1234,34.0,10.0,15.0,0.0,0.0
1235,35.0,12.0,15.0,0.0,0.0
1236,36.0,12.0,15.0,0.0,0.0
1237,52.0,2.0,90.0,0.0,0.0
1238,64.0,0.0,90.0,0.0,0.0
1239,37.0,12.0,15.0,0.0,0.0
1240,38.0,12.0,15.0,0.0,0.0
1241,39.0,12.0,15.0,0.0,0.0
1242,40.0,12.0,15.0,0.0,0.0
1243,41.0,12.0,15.0,0.0,0.0
1244,42.0,10.0,15.0,0.0,0.0
1245,43.0,12.0,15.0,0.0,0.0
1246,59.0,0.0,90.0,0.0,0.0
1247,62.0,0.0,90.0,0.0,0.0
1248,64.0,2.0,90.0,0.0,0.0
1249,52.0,0.0,90.0,0.0,0.0
1250,44.0,12.0,15.0,0.0,0.0
1251,45.0,12.0,15.0,0.0,0.0
1252,46.0,12.0,15.0,0.0,0.0
1253,47.0,12.0,15.0,0.0,0.0
1254,48.0,12.0,15.0,0.0,0.0
1255,49.0,12.0,15.0,0.0,0.0
1256,50.0,10.0,15.0,0.0,0.0
1257,51.0,12.0,15.0,0.0,0.0
1258,62.0,0.0,90.0,0.0,0.0
1259,52.0,12.0,15.0,0.0,0.0
1260,64.0,192.0,90.0,0.0,0.0
1261,53.0,12.0,15.0,0.0,0.0
1262,54.0,12.0,15.0,0.0,0.0
1263,55.0,12.0,15.0,0.0,0.0
1264,56.0,12.0,15.0,0.0,0.0
1265,57.0,12.0,15.0,0.0,0.0
1266,58.0,10.0,15.0,0.0,0.0
1267,59.0,0.0,15.0,0.0,0.0
1268,60.0,94.0,390.0,0.0,0.0
1269,64.0,96.0,90.0,0.0,0.0
1270,69.0,0.0,90.0,0.0,0.0
1271,69.0,96.0,90.0,0.0,0.0
1272,64.0,0.0,90.0,0.0,0.0
1273,64.0,0.0,90.0,0.0,0.0
1274,69.0,2.0,90.0,0.0,0.0
1275,59.0,46.0,150.0,0.0,0.0
1276,69.0,0.0,90.0,0.0,0.0
1277,64.0,50.0,90.0,0.0,0.0
1278,64.0,0.0,90.0,0.0,0.0
1279,69.0,2.0,90.0,0.0,0.0
1280,57.0,94.0,15.0,0.0,0.0
1281,72.0,94.0,390.0,0.0,0.0
1282,60.0,0.0,90.0,0.0,0.0
1283,65.0,96.0,90.0,0.0,0.0
1284,60.0,96.0,90.0,0.0,0.0
1285,65.0,0.0,90.0,0.0,0.0
1286,60.0,0.0,90.0,0.0,0.0
1287,65.0,26.0,90.0,0.0,0.0
1288,60.0,2.0,90.0,0.0,0.0
1289,65.0,0.0,90.0,0.0,0.0
1290,56.0,24.0,20.0,0.0,0.0
1291,59.0,22.0,20.0,0.0,0.0
1292,57.0,0.0,20.0,0.0,0.0
1293,55.0,46.0,150.0,0.0,0.0
1294,60.0,0.0,90.0,0.0,0.0
1295,65.0,50.0,90.0,0.0,0.0
1296,71.0,0.0,150.0,0.0,0.0
1297,65.0,0.0,90.0,0.0,0.0
1298,60.0,2.0,90.0,0.0,0.0
1299,69.0,94.0,40.0,0.0,0.0
1300,53.0,0.0,40.0,0.0,0.0
1301,53.0,0.0,180.0,0.0,0.0
1302,69.0,94.0,180.0,0.0,0.0
1303,61.0,0.0,90.0,0.0,0.0
1304,58.0,96.0,90.0,0.0,0.0
1305,58.0,0.0,90.0,0.0,0.0
1306,61.0,2.0,90.0,0.0,0.0
1307,52.0,8.0,180.0,0.0,0.0
1308,67.0,0.0,180.0,0.0,0.0
1309,58.0,96.0,90.0,0.0,0.0
1310,61.0,0.0,90.0,0.0,0.0
1311,61.0,0.0,90.0,0.0,0.0
1312,58.0,2.0,90.0,0.0,0.0
1313,49.0,8.0,15.0,0.0,0.0
1314,58.0,2.0,90.0,0.0,0.0
1315,62.0,0.0,90.0,0.0,0.0
1316,50.0,8.0,15.0,0.0,0.0
1317,52.0,8.0,15.0,0.0,0.0
1318,50.0,8.0,15.0,0.0,0.0
1319,52.0,8.0,15.0,0.0,0.0
1320,50.0,8.0,15.0,0.0,0.0
1321,52.0,8.0,15.0,0.0,0.0
1322,50.0,8.0,15.0,0.0,0.0
1323,52.0,8.0,15.0,0.0,0.0
1324,50.0,8.0,15.0,0.0,0.0
1325,52.0,6.0,15.0,0.0,0.0
1326,50.0,8.0,15.0,0.0,0.0
1327,58.0,2.0,90.0,0.0,0.0
1328,62.0,0.0,90.0,0.0,0.0
1329,52.0,8.0,15.0,0.0,0.0
1330,50.0,8.0,15.0,0.0,0.0
1331,52.0,8.0,15.0,0.0,0.0
1332,50.0,8.0,15.0,0.0,0.0
1333,52.0,8.0,15.0,0.0,0.0
1334,50.0,8.0,15.0,0.0,0.0
1335,52.0,8.0,15.0,0.0,0.0
1336,50.0,8.0,15.0,0.0,0.0
1337,52.0,8.0,15.0,0.0,0.0
1338,50.0,8.0,15.0,0.0,0.0
1339,52.0,6.0,15.0,0.0,0.0
1340,50.0,94.0,15.0,0.0,0.0
1341,58.0,0.0,90.0,0.0,0.0
1342,64.0,96.0,90.0,0.0,0.0
1343,67.0,0.0,15.0,0.0,0.0
1344,49.0,94.0,180.0,0.0,0.0
1345,64.0,0.0,90.0,0.0,0.0
1346,58.0,2.0,90.0,0.0,0.0
1347,58.0,66.0,90.0,0.0,0.0
1348,64.0,30.0,150.0,0.0,0.0
1349,58.0,2.0,90.0,0.0,0.0
1350,37.0,48.0,180.0,0.0,0.0
1351,69.0,46.0,150.0,0.0,0.0
1352,57.0,0.0,90.0,0.0,0.0
1353,64.0,50.0,90.0,0.0,0.0
1354,57.0,0.0,90.0,0.0,0.0
1355,64.0,2.0,90.0,0.0,0.0
1356,38.0,46.0,40.0,0.0,0.0
1357,67.0,0.0,15.0,0.0,0.0
1358,57.0,0.0,90.0,0.0,0.0
1359,62.0,2.0,90.0,0.0,0.0
1360,40.0,48.0,40.0,0.0,0.0
1361,38.0,46.0,40.0,0.0,0.0
1362,57.0,0.0,90.0,0.0,0.0
1363,62.0,2.0,90.0,0.0,0.0
1364,37.0,0.0,40.0,0.0,0.0
1365,38.0,46.0,40.0,0.0,0.0
1366,65.0,0.0,720.0,0.0,0.0
1367,62.0,0.0,90.0,0.0,0.0
1368,57.0,2.0,90.0,0.0,0.0
1369,40.0,48.0,40.0,0.0,0.0
1370,62.0,0.0,90.0,0.0,0.0
1371,57.0,2.0,90.0,0.0,0.0
1372,41.0,46.0,40.0,0.0,0.0
1373,40.0,48.0,40.0,0.0,0.0
1374,43.0,46.0,40.0,0.0,0.0
1375,62.0,2.0,90.0,0.0,0.0
1376,57.0,0.0,90.0,0.0,0.0
1377,41.0,48.0,40.0,0.0,0.0
1378,40.0,46.0,40.0,0.0,0.0
1379,62.0,0.0,90.0,0.0,0.0
1380,57.0,2.0,90.0,0.0,0.0
1381,38.0,48.0,40.0,0.0,0.0
1382,62.0,0.0,90.0,0.0,0.0
1383,57.0,2.0,90.0,0.0,0.0
1384,48.0,46.0,40.0,0.0,0.0
1385,47.0,48.0,40.0,0.0,0.0
1386,62.0,0.0,90.0,0.0,0.0
1387,57.0,2.0,90.0,0.0,0.0
1388,46.0,46.0,40.0,0.0,0.0
1389,47.0,48.0,40.0,0.0,0.0
1390,62.0,2.0,90.0,0.0,0.0
1391,55.0,46.0,40.0,0.0,0.0
1392,57.0,0.0,90.0,0.0,0.0
1393,53.0,48.0,40.0,0.0,0.0
1394,52.0,46.0,40.0,0.0,0.0
1395,57.0,2.0,90.0,0.0,0.0
1396,62.0,0.0,90.0,0.0,0.0
1397,50.0,48.0,40.0,0.0,0.0
1398,48.0,46.0,40.0,0.0,0.0
1399,62.0,2.0,90.0,0.0,0.0
1400,57.0,0.0,90.0,0.0,0.0
1401,65.0,46.0,150.0,0.0,0.0
1402,47.0,48.0,40.0,0.0,0.0
1403,57.0,2.0,90.0,0.0,0.0
1404,50.0,0.0,40.0,0.0,0.0
1405,62.0,0.0,90.0,0.0,0.0
1406,53.0,0.0,40.0,0.0,0.0
1407,65.0,48.0,40.0,0.0,0.0
1408,40.0,46.0,40.0,0.0,0.0
1409,57.0,0.0,90.0,0.0,0.0
1410,60.0,2.0,90.0,0.0,0.0
1411,65.0,0.0,180.0,0.0,0.0
1412,45.0,48.0,40.0,0.0,0.0
1413,48.0,46.0,40.0,0.0,0.0
1414,60.0,2.0,90.0,0.0,0.0
1415,57.0,0.0,90.0,0.0,0.0
1416,45.0,94.0,40.0,0.0,0.0
1417,57.0,0.0,90.0,0.0,0.0
1418,60.0,96.0,90.0,0.0,0.0
1419,64.0,46.0,330.0,0.0,0.0
1420,52.0,48.0,300.0,0.0,0.0
1421,57.0,96.0,90.0,0.0,0.0
1422,60.0,0.0,90.0,0.0,0.0
1423,60.0,0.0,90.0,0.0,0.0
1424,57.0,2.0,90.0,0.0,0.0
1425,60.0,0.0,90.0,0.0,0.0
1426,57.0,0.0,90.0,0.0,0.0
1427,48.0,50.0,90.0,0.0,0.0
1428,60.0,0.0,90.0,0.0,0.0
1429,57.0,46.0,40.0,0.0,0.0
1430,69.0,2.0,90.0,0.0,0.0
1431,52.0,48.0,40.0,0.0,0.0
1432,69.0,0.0,90.0,0.0,0.0
1433,60.0,2.0,90.0,0.0,0.0
1434,53.0,46.0,40.0,0.0,0.0
1435,48.0,94.0,40.0,0.0,0.0
1436,60.0,0.0,90.0,0.0,0.0
1437,52.0,48.0,180.0,0.0,0.0
1438,69.0,96.0,90.0,0.0,0.0
1439,60.0,0.0,90.0,0.0,0.0
1440,69.0,2.0,90.0,0.0,0.0
1441,72.0,0.0,15.0,0.0,0.0
1442,57.0,46.0,40.0,0.0,0.0
1443,69.0,2.0,90.0,0.0,0.0
1444,60.0,0.0,90.0,0.0,0.0
1445,52.0,48.0,40.0,0.0,0.0
1446,60.0,2.0,90.0,0.0,0.0
1447,53.0,46.0,40.0,0.0,0.0
1448,69.0,0.0,90.0,0.0,0.0
1449,48.0,94.0,40.0,0.0,0.0
1450,52.0,48.0,180.0,0.0,0.0
1451,69.0,0.0,90.0,0.0,0.0
1452,60.0,96.0,90.0,0.0,0.0
1453,69.0,0.0,90.0,0.0,0.0
1454,60.0,2.0,90.0,0.0,0.0
1455,57.0,0.0,90.0,0.0,0.0
1456,60.0,2.0,90.0,0.0,0.0
1457,69.0,94.0,390.0,0.0,0.0
1458,53.0,46.0,40.0,0.0,0.0
1459,48.0,72.0,40.0,0.0,0.0
1460,60.0,0.0,90.0,0.0,0.0
1461,52.0,22.0,60.0,0.0,0.0
1462,57.0,2.0,90.0,0.0,0.0
1463,45.0,94.0,20.0,0.0,0.0
1464,57.0,0.0,90.0,0.0,0.0
1465,64.0,96.0,90.0,0.0,0.0
1466,48.0,48.0,420.0,0.0,0.0
1467,64.0,2.0,90.0,0.0,0.0
1468,57.0,0.0,90.0,0.0,0.0
1469,64.0,46.0,330.0,0.0,0.0
1470,52.0,0.0,90.0,0.0,0.0
1471,57.0,96.0,90.0,0.0,0.0
1472,57.0,0.0,90.0,0.0,0.0
1473,52.0,48.0,90.0,0.0,0.0
1474,60.0,0.0,90.0,0.0,0.0
1475,52.0,2.0,90.0,0.0,0.0
1476,57.0,0.0,90.0,0.0,0.0
1477,39.0,48.0,40.0,0.0,0.0
1478,60.0,2.0,90.0,0.0,0.0
1479,57.0,0.0,90.0,0.0,0.0
1480,52.0,0.0,90.0,0.0,0.0
1481,41.0,0.0,40.0,0.0,0.0
1482,40.0,94.0,40.0,0.0,0.0
1483,52.0,50.0,90.0,0.0,0.0
1484,56.0,0.0,90.0,0.0,0.0
1485,62.0,0.0,90.0,0.0,0.0
1486,64.0,94.0,180.0,0.0,0.0
1487,47.0,46.0,150.0,0.0,0.0
1488,56.0,0.0,90.0,0.0,0.0
1489,62.0,2.0,90.0,0.0,0.0
1490,52.0,0.0,90.0,0.0,0.0
1491,45.0,0.0,40.0,0.0,0.0
1492,45.0,48.0,240.0,0.0,0.0
1493,52.0,0.0,90.0,0.0,0.0
1494,55.0,0.0,90.0,0.0,0.0
1495,61.0,96.0,90.0,0.0,0.0
1496,64.0,46.0,180.0,0.0,0.0
1497,52.0,2.0,90.0,0.0,0.0
1498,55.0,0.0,90.0,0.0,0.0
1499,61.0,0.0,90.0,0.0,0.0
1500,50.0,0.0,90.0,0.0,0.0
1501,60.0,0.0,90.0,0.0,0.0
1502,54.0,2.0,90.0,0.0,0.0
1503,62.0,48.0,390.0,0.0,0.0
1504,37.0,48.0,40.0,0.0,0.0
1505,50.0,0.0,90.0,0.0,0.0
1506,54.0,0.0,90.0,0.0,0.0
1507,60.0,2.0,90.0,0.0,0.0
1508,40.0,46.0,40.0,0.0,0.0
1509,38.0,94.0,40.0,0.0,0.0
1510,43.0,46.0,240.0,0.0,0.0
1511,59.0,0.0,90.0,0.0,0.0
1512,53.0,0.0,90.0,0.0,0.0
1513,50.0,96.0,90.0,0.0,0.0
1514,59.0,0.0,90.0,0.0,0.0
1515,53.0,2.0,90.0,0.0,0.0
1516,50.0,0.0,90.0,0.0,0.0
1517,59.0,0.0,90.0,0.0,0.0
1518,52.0,2.0,90.0,0.0,0.0
1519,48.0,0.0,90.0,0.0,0.0
1520,60.0,48.0,180.0,0.0,0.0
1521,35.0,48.0,40.0,0.0,0.0
1522,59.0,0.0,90.0,0.0,0.0
1523,38.0,46.0,40.0,0.0,0.0
1524,48.0,0.0,90.0,0.0,0.0
1525,52.0,2.0,90.0,0.0,0.0
1526,36.0,0.0,40.0,0.0,0.0
1527,52.0,2.0,90.0,0.0,0.0
1528,42.0,46.0,40.0,0.0,0.0
1529,48.0,0.0,90.0,0.0,0.0
1530,57.0,0.0,90.0,0.0,0.0
1531,60.0,0.0,90.0,0.0,0.0
1532,34.0,48.0,40.0,0.0,0.0
1533,59.0,94.0,90.0,0.0,0.0
1534,47.0,0.0,90.0,0.0,0.0
1535,51.0,0.0,90.0,0.0,0.0
1536,57.0,2.0,90.0,0.0,0.0
1537,36.0,46.0,40.0,0.0,0.0
1538,35.0,0.0,40.0,0.0,0.0
1539,47.0,50.0,90.0,0.0,0.0
1540,57.0,0.0,90.0,0.0,0.0
1541,41.0,24.0,150.0,0.0,0.0
1542,50.0,0.0,90.0,0.0,0.0
1543,59.0,22.0,180.0,0.0,0.0
1544,56.0,0.0,90.0,0.0,0.0
1545,50.0,0.0,90.0,0.0,0.0
1546,47.0,2.0,90.0,0.0,0.0
1547,40.0,0.0,40.0,0.0,0.0
1548,33.0,50.0,240.0,0.0,0.0
1549,57.0,94.0,15.0,0.0,0.0
1550,48.0,0.0,90.0,0.0,0.0
1551,57.0,0.0,90.0,0.0,0.0
1552,52.0,0.0,90.0,0.0,0.0
1553,57.0,0.0,90.0,0.0,0.0
1554,60.0,46.0,90.0,0.0,0.0
1555,57.0,0.0,90.0,0.0,0.0
1556,60.0,0.0,90.0,0.0,0.0
1557,35.0,0.0,40.0,0.0,0.0
1558,38.0,48.0,40.0,0.0,0.0
1559,52.0,48.0,15.0,0.0,0.0
1560,60.0,0.0,90.0,0.0,0.0
1561,36.0,0.0,40.0,0.0,0.0
1562,50.0,0.0,90.0,0.0,0.0
1563,57.0,96.0,15.0,0.0,0.0
1564,41.0,48.0,150.0,0.0,0.0
1565,50.0,0.0,90.0,0.0,0.0
1566,59.0,48.0,15.0,0.0,0.0
1567,56.0,0.0,90.0,0.0,0.0
1568,40.0,48.0,40.0,0.0,0.0
1569,60.0,0.0,90.0,0.0,0.0
1570,48.0,0.0,90.0,0.0,0.0
1571,33.0,48.0,40.0,0.0,0.0
1572,35.0,0.0,40.0,0.0,0.0
1573,38.0,48.0,40.0,0.0,0.0
1574,52.0,0.0,90.0,0.0,0.0
1575,57.0,48.0,15.0,0.0,0.0
1576,60.0,94.0,90.0,0.0,0.0
1577,36.0,0.0,40.0,0.0,0.0
1578,41.0,0.0,90.0,0.0,0.0
1579,59.0,0.0,90.0,0.0,0.0
1580,50.0,0.0,90.0,0.0,0.0
1581,57.0,290.0,90.0,0.0,0.0
1582,50.0,160.0,90.0,0.0,0.0
1583,56.0,0.0,90.0,0.0,0.0
1584,59.0,0.0,90.0,0.0,0.0
1585,40.0,0.0,90.0,0.0,0.0
1586,57.0,0.0,150.0,0.0,0.0
1587,33.0,0.0,150.0,0.0,0.0
1588,48.0,344.0,150.0,0.0,0.0
1589,57.0,0.0,120.0,0.0,0.0
1590,40.0,216.0,120.0,0.0,0.0
1591,48.0,0.0,120.0,0.0,0.0
1592,33.0,0.0,120.0,0.0,0.0
1593,57.0,0.0,150.0,0.0,0.0
1594,40.0,0.0,150.0,0.0,0.0
1595,48.0,432.0,150.0,0.0,0.0
1596,33.0,0.0,150.0,0.0,0.0
