,note,step,duration,channel,velocity
0,47.0,0.0,480.0,0.0,0.0
1,59.0,0.0,480.0,0.0,0.0
2,23.0,360.0,480.0,0.0,0.0
3,35.0,0.0,480.0,0.0,0.0
4,53.0,0.0,120.0,0.0,0.0
5,45.0,120.0,120.0,0.0,0.0
6,48.0,0.0,120.0,0.0,0.0
7,46.0,0.0,120.0,0.0,0.0
8,54.0,120.0,120.0,0.0,0.0
9,49.0,0.0,120.0,0.0,0.0
10,55.0,120.0,120.0,0.0,0.0
11,50.0,0.0,120.0,0.0,0.0
12,47.0,0.0,120.0,0.0,0.0
13,51.0,0.0,120.0,0.0,0.0
14,56.0,120.0,120.0,0.0,0.0
15,48.0,0.0,120.0,0.0,0.0
16,52.0,0.0,120.0,0.0,0.0
17,57.0,120.0,120.0,0.0,0.0
18,58.0,0.0,120.0,0.0,0.0
19,53.0,0.0,120.0,0.0,0.0
20,49.0,0.0,15.0,0.0,0.0
21,51.0,0.0,120.0,0.0,0.0
22,54.0,480.0,120.0,0.0,0.0
23,59.0,0.0,120.0,0.0,0.0
24,35.0,0.0,120.0,0.0,0.0
25,51.0,840.0,120.0,0.0,0.0
26,54.0,0.0,120.0,0.0,0.0
27,42.0,0.0,120.0,0.0,0.0
28,52.0,0.0,480.0,0.0,0.0
29,60.0,0.0,480.0,0.0,0.0
30,64.0,0.0,480.0,0.0,0.0
31,55.0,240.0,480.0,0.0,0.0
32,46.0,0.0,480.0,0.0,0.0
33,54.0,370.0,240.0,0.0,0.0
34,51.0,0.0,240.0,0.0,0.0
35,59.0,0.0,240.0,0.0,0.0
36,63.0,0.0,240.0,0.0,0.0
37,47.0,0.0,240.0,0.0,0.0
38,40.0,120.0,120.0,0.0,0.0
39,55.0,0.0,120.0,0.0,0.0
40,39.0,0.0,120.0,0.0,0.0
41,54.0,120.0,120.0,0.0,0.0
42,34.0,120.0,120.0,0.0,0.0
43,48.0,0.0,120.0,0.0,0.0
44,47.0,120.0,120.0,0.0,0.0
45,35.0,0.0,120.0,0.0,0.0
46,40.0,0.0,120.0,0.0,0.0
47,55.0,120.0,120.0,0.0,0.0
48,39.0,0.0,120.0,0.0,0.0
49,54.0,120.0,120.0,0.0,0.0
50,34.0,0.0,120.0,0.0,0.0
51,48.0,120.0,120.0,0.0,0.0
52,35.0,0.0,120.0,0.0,0.0
53,47.0,120.0,120.0,0.0,0.0
54,40.0,0.0,120.0,0.0,0.0
55,55.0,120.0,120.0,0.0,0.0
56,39.0,0.0,120.0,0.0,0.0
57,54.0,120.0,120.0,0.0,0.0
58,34.0,0.0,120.0,0.0,0.0
59,48.0,120.0,120.0,0.0,0.0
60,35.0,120.0,120.0,0.0,0.0
61,47.0,0.0,120.0,0.0,0.0
62,40.0,0.0,120.0,0.0,0.0
63,55.0,120.0,120.0,0.0,0.0
64,39.0,120.0,120.0,0.0,0.0
65,54.0,0.0,120.0,0.0,0.0
66,48.0,0.0,120.0,0.0,0.0
67,34.0,120.0,120.0,0.0,0.0
68,47.0,0.0,120.0,0.0,0.0
69,35.0,120.0,120.0,0.0,0.0
70,55.0,120.0,120.0,0.0,0.0
71,40.0,0.0,120.0,0.0,0.0
72,39.0,0.0,120.0,0.0,0.0
73,54.0,120.0,120.0,0.0,0.0
74,34.0,0.0,120.0,0.0,0.0
75,48.0,110.0,120.0,0.0,0.0
76,47.0,0.0,120.0,0.0,0.0
77,35.0,480.0,15.0,0.0,0.0
78,47.0,0.0,480.0,0.0,0.0
79,60.0,0.0,480.0,0.0,0.0
80,48.0,360.0,480.0,0.0,0.0
81,52.0,0.0,480.0,0.0,0.0
82,55.0,0.0,480.0,0.0,0.0
83,40.0,0.0,480.0,0.0,0.0
84,46.0,0.0,120.0,0.0,0.0
85,54.0,120.0,120.0,0.0,0.0
86,49.0,0.0,120.0,0.0,0.0
87,50.0,0.0,120.0,0.0,0.0
88,55.0,0.0,120.0,0.0,0.0
89,47.0,120.0,120.0,0.0,0.0
90,56.0,0.0,120.0,0.0,0.0
91,48.0,0.0,120.0,0.0,0.0
92,51.0,120.0,120.0,0.0,0.0
93,57.0,120.0,120.0,0.0,0.0
94,52.0,0.0,120.0,0.0,0.0
95,49.0,0.0,120.0,0.0,0.0
96,58.0,0.0,120.0,0.0,0.0
97,53.0,120.0,120.0,0.0,0.0
98,50.0,0.0,120.0,0.0,0.0
99,59.0,0.0,120.0,0.0,0.0
100,54.0,0.0,120.0,0.0,0.0
101,50.0,120.0,120.0,0.0,0.0
102,55.0,480.0,120.0,0.0,0.0
103,60.0,0.0,120.0,0.0,0.0
104,52.0,0.0,120.0,0.0,0.0
105,55.0,840.0,120.0,0.0,0.0
106,35.0,0.0,120.0,0.0,0.0
107,48.0,0.0,120.0,0.0,0.0
108,52.0,0.0,120.0,0.0,0.0
109,43.0,0.0,120.0,0.0,0.0
110,54.0,0.0,480.0,0.0,0.0
111,51.0,0.0,480.0,0.0,0.0
112,57.0,0.0,480.0,0.0,0.0
113,69.0,240.0,480.0,0.0,0.0
114,66.0,0.0,480.0,0.0,0.0
115,60.0,0.0,15.0,0.0,0.0
116,55.0,0.0,240.0,0.0,0.0
117,52.0,370.0,240.0,0.0,0.0
118,67.0,0.0,240.0,0.0,0.0
119,64.0,0.0,240.0,0.0,0.0
120,42.0,120.0,120.0,0.0,0.0
121,57.0,0.0,120.0,0.0,0.0
122,40.0,0.0,120.0,0.0,0.0
123,55.0,120.0,120.0,0.0,0.0
124,50.0,120.0,120.0,0.0,0.0
125,35.0,0.0,120.0,0.0,0.0
126,40.0,0.0,120.0,0.0,0.0
127,48.0,120.0,120.0,0.0,0.0
128,42.0,0.0,120.0,0.0,0.0
129,57.0,120.0,120.0,0.0,0.0
130,40.0,0.0,120.0,0.0,0.0
131,55.0,120.0,120.0,0.0,0.0
132,35.0,0.0,120.0,0.0,0.0
133,50.0,120.0,120.0,0.0,0.0
134,40.0,0.0,120.0,0.0,0.0
135,48.0,120.0,120.0,0.0,0.0
136,57.0,120.0,120.0,0.0,0.0
137,42.0,0.0,120.0,0.0,0.0
138,40.0,120.0,120.0,0.0,0.0
139,55.0,0.0,120.0,0.0,0.0
140,50.0,0.0,120.0,0.0,0.0
141,35.0,120.0,120.0,0.0,0.0
142,48.0,0.0,120.0,0.0,0.0
143,40.0,120.0,120.0,0.0,0.0
144,57.0,0.0,120.0,0.0,0.0
145,42.0,120.0,120.0,0.0,0.0
146,55.0,120.0,120.0,0.0,0.0
147,40.0,0.0,120.0,0.0,0.0
148,50.0,120.0,120.0,0.0,0.0
149,35.0,0.0,120.0,0.0,0.0
150,40.0,0.0,120.0,0.0,0.0
151,48.0,120.0,120.0,0.0,0.0
152,42.0,120.0,120.0,0.0,0.0
153,57.0,0.0,120.0,0.0,0.0
154,40.0,120.0,120.0,0.0,0.0
155,55.0,0.0,120.0,0.0,0.0
156,35.0,110.0,120.0,0.0,0.0
157,50.0,0.0,120.0,0.0,0.0
158,40.0,0.0,120.0,0.0,0.0
159,48.0,480.0,120.0,0.0,0.0
160,61.0,0.0,480.0,0.0,0.0
161,49.0,0.0,480.0,0.0,0.0
162,53.0,0.0,480.0,0.0,0.0
163,56.0,0.0,480.0,0.0,0.0
164,47.0,0.0,480.0,0.0,0.0
165,35.0,360.0,480.0,0.0,0.0
166,41.0,0.0,480.0,0.0,0.0
167,53.0,0.0,120.0,0.0,0.0
168,58.0,120.0,120.0,0.0,0.0
169,50.0,0.0,120.0,0.0,0.0
170,51.0,0.0,120.0,0.0,0.0
171,59.0,120.0,120.0,0.0,0.0
172,54.0,0.0,120.0,0.0,0.0
173,52.0,120.0,120.0,0.0,0.0
174,60.0,0.0,120.0,0.0,0.0
175,55.0,0.0,120.0,0.0,0.0
176,56.0,0.0,120.0,0.0,0.0
177,61.0,120.0,120.0,0.0,0.0
178,53.0,0.0,120.0,0.0,0.0
179,57.0,120.0,120.0,0.0,0.0
180,63.0,0.0,120.0,0.0,0.0
181,54.0,0.0,120.0,0.0,0.0
182,64.0,0.0,120.0,0.0,0.0
183,58.0,0.0,120.0,0.0,0.0
184,55.0,120.0,120.0,0.0,0.0
185,56.0,0.0,120.0,0.0,0.0
186,65.0,480.0,120.0,0.0,0.0
187,59.0,0.0,120.0,0.0,0.0
188,61.0,840.0,120.0,0.0,0.0
189,49.0,0.0,120.0,0.0,0.0
190,53.0,0.0,120.0,0.0,0.0
191,56.0,0.0,120.0,0.0,0.0
192,35.0,0.0,120.0,0.0,0.0
193,47.0,0.0,120.0,0.0,0.0
194,53.0,0.0,480.0,0.0,0.0
195,56.0,0.0,480.0,0.0,0.0
196,61.0,0.0,480.0,0.0,0.0
197,68.0,240.0,480.0,0.0,0.0
198,47.0,0.0,480.0,0.0,0.0
199,59.0,0.0,480.0,0.0,0.0
200,66.0,0.0,240.0,0.0,0.0
201,54.0,0.0,240.0,0.0,0.0
202,23.0,600.0,240.0,0.0,0.0
203,35.0,0.0,240.0,0.0,0.0
204,58.0,0.0,240.0,0.0,0.0
205,52.0,0.0,240.0,0.0,0.0
206,61.0,0.0,240.0,0.0,0.0
207,52.0,0.0,120.0,0.0,0.0
208,55.0,120.0,120.0,0.0,0.0
209,60.0,0.0,120.0,0.0,0.0
210,61.0,120.0,120.0,0.0,0.0
211,53.0,0.0,120.0,0.0,0.0
212,56.0,0.0,120.0,0.0,0.0
213,57.0,0.0,120.0,0.0,0.0
214,62.0,120.0,120.0,0.0,0.0
215,54.0,0.0,120.0,0.0,0.0
216,63.0,120.0,120.0,0.0,0.0
217,58.0,0.0,120.0,0.0,0.0
218,55.0,0.0,120.0,0.0,0.0
219,64.0,0.0,120.0,0.0,0.0
220,56.0,0.0,120.0,0.0,0.0
221,59.0,120.0,120.0,0.0,0.0
222,57.0,0.0,120.0,0.0,0.0
223,65.0,0.0,120.0,0.0,0.0
224,60.0,120.0,120.0,0.0,0.0
225,66.0,480.0,120.0,0.0,0.0
226,61.0,0.0,120.0,0.0,0.0
227,58.0,0.0,120.0,0.0,0.0
228,54.0,0.0,120.0,0.0,0.0
229,49.0,840.0,120.0,0.0,0.0
230,35.0,0.0,120.0,0.0,0.0
231,47.0,0.0,120.0,0.0,0.0
232,61.0,0.0,120.0,0.0,0.0
233,58.0,0.0,120.0,0.0,0.0
234,61.0,0.0,480.0,0.0,0.0
235,66.0,0.0,480.0,0.0,0.0
236,73.0,0.0,480.0,0.0,0.0
237,58.0,240.0,480.0,0.0,0.0
238,52.0,0.0,480.0,0.0,0.0
239,64.0,0.0,480.0,0.0,0.0
240,54.0,0.0,480.0,0.0,0.0
241,63.0,360.0,240.0,0.0,0.0
242,35.0,0.0,240.0,0.0,0.0
243,23.0,0.0,240.0,0.0,0.0
244,57.0,0.0,240.0,0.0,0.0
245,59.0,0.0,240.0,0.0,0.0
246,66.0,0.0,240.0,0.0,0.0
247,71.0,0.0,240.0,0.0,0.0
248,73.0,120.0,120.0,0.0,0.0
249,69.0,0.0,120.0,0.0,0.0
250,30.0,0.0,120.0,0.0,0.0
251,42.0,0.0,120.0,0.0,0.0
252,64.0,60.0,120.0,0.0,0.0
253,35.0,0.0,60.0,0.0,0.0
254,63.0,60.0,120.0,0.0,0.0
255,47.0,60.0,60.0,0.0,0.0
256,37.0,60.0,60.0,0.0,0.0
257,71.0,60.0,120.0,0.0,0.0
258,49.0,0.0,60.0,0.0,0.0
259,39.0,60.0,60.0,0.0,0.0
260,69.0,60.0,120.0,0.0,0.0
261,73.0,0.0,120.0,0.0,0.0
262,51.0,0.0,60.0,0.0,0.0
263,52.0,60.0,60.0,0.0,0.0
264,40.0,0.0,60.0,0.0,0.0
265,64.0,60.0,120.0,0.0,0.0
266,54.0,0.0,60.0,0.0,0.0
267,42.0,60.0,60.0,0.0,0.0
268,63.0,60.0,120.0,0.0,0.0
269,71.0,60.0,120.0,0.0,0.0
270,44.0,60.0,60.0,0.0,0.0
271,56.0,0.0,60.0,0.0,0.0
272,57.0,60.0,60.0,0.0,0.0
273,45.0,0.0,60.0,0.0,0.0
274,73.0,0.0,120.0,0.0,0.0
275,66.0,120.0,120.0,0.0,0.0
276,63.0,120.0,120.0,0.0,0.0
277,59.0,120.0,120.0,0.0,0.0
278,71.0,60.0,120.0,0.0,0.0
279,47.0,60.0,60.0,0.0,0.0
280,35.0,0.0,60.0,0.0,0.0
281,68.0,120.0,120.0,0.0,0.0
282,73.0,0.0,120.0,0.0,0.0
283,63.0,120.0,120.0,0.0,0.0
284,59.0,120.0,120.0,0.0,0.0
285,71.0,120.0,120.0,0.0,0.0
286,51.0,0.0,480.0,0.0,0.0
287,73.0,0.0,120.0,0.0,0.0
288,63.0,0.0,600.0,0.0,0.0
289,69.0,120.0,120.0,0.0,0.0
290,66.0,120.0,120.0,0.0,0.0
291,59.0,120.0,120.0,0.0,0.0
292,71.0,120.0,120.0,0.0,0.0
293,69.0,120.0,120.0,0.0,0.0
294,73.0,0.0,120.0,0.0,0.0
295,57.0,120.0,120.0,0.0,0.0
296,66.0,0.0,120.0,0.0,0.0
297,59.0,0.0,120.0,0.0,0.0
298,54.0,120.0,120.0,0.0,0.0
299,71.0,0.0,120.0,0.0,0.0
300,47.0,120.0,120.0,0.0,0.0
301,73.0,0.0,120.0,0.0,0.0
302,69.0,120.0,120.0,0.0,0.0
303,63.0,0.0,120.0,0.0,0.0
304,57.0,120.0,120.0,0.0,0.0
305,66.0,0.0,120.0,0.0,0.0
306,59.0,120.0,120.0,0.0,0.0
307,54.0,0.0,120.0,0.0,0.0
308,47.0,0.0,120.0,0.0,0.0
309,71.0,120.0,120.0,0.0,0.0
310,63.0,0.0,120.0,0.0,0.0
311,73.0,0.0,120.0,0.0,0.0
312,69.0,120.0,120.0,0.0,0.0
313,57.0,0.0,120.0,0.0,0.0
314,66.0,120.0,120.0,0.0,0.0
315,54.0,120.0,120.0,0.0,0.0
316,59.0,0.0,120.0,0.0,0.0
317,71.0,120.0,120.0,0.0,0.0
318,47.0,0.0,120.0,0.0,0.0
319,63.0,0.0,120.0,0.0,0.0
320,69.0,0.0,120.0,0.0,0.0
321,73.0,120.0,120.0,0.0,0.0
322,66.0,0.0,120.0,0.0,0.0
323,57.0,120.0,120.0,0.0,0.0
324,59.0,120.0,120.0,0.0,0.0
325,54.0,0.0,120.0,0.0,0.0
326,47.0,120.0,120.0,0.0,0.0
327,71.0,0.0,120.0,0.0,0.0
328,73.0,120.0,120.0,0.0,0.0
329,69.0,0.0,120.0,0.0,0.0
330,57.0,0.0,120.0,0.0,0.0
331,66.0,120.0,120.0,0.0,0.0
332,51.0,0.0,120.0,0.0,0.0
333,47.0,0.0,120.0,0.0,0.0
334,59.0,120.0,120.0,0.0,0.0
335,71.0,120.0,120.0,0.0,0.0
336,42.0,0.0,120.0,0.0,0.0
337,51.0,120.0,120.0,0.0,0.0
338,69.0,0.0,120.0,0.0,0.0
339,73.0,0.0,120.0,0.0,0.0
340,66.0,120.0,120.0,0.0,0.0
341,45.0,0.0,120.0,0.0,0.0
342,59.0,120.0,120.0,0.0,0.0
343,42.0,0.0,120.0,0.0,0.0
344,71.0,120.0,120.0,0.0,0.0
345,35.0,0.0,120.0,0.0,0.0
346,28.0,0.0,120.0,0.0,0.0
347,73.0,0.0,360.0,0.0,0.0
348,69.0,120.0,360.0,0.0,0.0
349,40.0,240.0,120.0,0.0,0.0
350,59.0,0.0,240.0,0.0,0.0
351,47.0,0.0,240.0,0.0,0.0
352,64.0,60.0,240.0,0.0,0.0
353,56.0,0.0,240.0,0.0,0.0
354,52.0,0.0,240.0,0.0,0.0
355,68.0,240.0,15.0,0.0,0.0
356,71.0,0.0,15.0,0.0,0.0
357,35.0,0.0,60.0,0.0,0.0
358,47.0,180.0,60.0,0.0,0.0
359,40.0,240.0,120.0,0.0,0.0
360,52.0,0.0,120.0,0.0,0.0
361,23.0,0.0,240.0,0.0,0.0
362,35.0,120.0,240.0,0.0,0.0
363,64.0,0.0,120.0,0.0,0.0
364,68.0,120.0,120.0,0.0,0.0
365,69.0,0.0,120.0,0.0,0.0
366,66.0,0.0,120.0,0.0,0.0
367,69.0,0.0,120.0,0.0,0.0
368,40.0,0.0,240.0,0.0,0.0
369,28.0,0.0,240.0,0.0,0.0
370,73.0,120.0,120.0,0.0,0.0
371,68.0,120.0,240.0,0.0,0.0
372,73.0,120.0,60.0,0.0,0.0
373,71.0,0.0,15.0,0.0,0.0
374,59.0,0.0,240.0,0.0,0.0
375,47.0,0.0,240.0,0.0,0.0
376,70.0,240.0,120.0,0.0,0.0
377,67.0,0.0,120.0,0.0,0.0
378,71.0,0.0,480.0,0.0,0.0
379,68.0,120.0,480.0,0.0,0.0
380,64.0,60.0,240.0,0.0,0.0
381,56.0,0.0,240.0,0.0,0.0
382,52.0,0.0,240.0,0.0,0.0
383,35.0,180.0,60.0,0.0,0.0
384,47.0,0.0,60.0,0.0,0.0
385,40.0,0.0,120.0,0.0,0.0
386,52.0,240.0,120.0,0.0,0.0
387,64.0,120.0,120.0,0.0,0.0
388,68.0,0.0,120.0,0.0,0.0
389,35.0,0.0,240.0,0.0,0.0
390,23.0,0.0,240.0,0.0,0.0
391,66.0,0.0,120.0,0.0,0.0
392,69.0,120.0,15.0,0.0,0.0
393,73.0,120.0,120.0,0.0,0.0
394,40.0,0.0,240.0,0.0,0.0
395,28.0,0.0,240.0,0.0,0.0
396,68.0,120.0,240.0,0.0,0.0
397,71.0,120.0,120.0,0.0,0.0
398,73.0,0.0,60.0,0.0,0.0
399,59.0,0.0,240.0,0.0,0.0
400,47.0,120.0,240.0,0.0,0.0
401,71.0,0.0,120.0,0.0,0.0
402,67.0,0.0,120.0,0.0,0.0
403,70.0,0.0,120.0,0.0,0.0
404,64.0,120.0,240.0,0.0,0.0
405,56.0,0.0,240.0,0.0,0.0
406,52.0,0.0,240.0,0.0,0.0
407,73.0,120.0,120.0,0.0,0.0
408,69.0,0.0,120.0,0.0,0.0
409,68.0,120.0,240.0,0.0,0.0
410,71.0,0.0,120.0,0.0,0.0
411,73.0,0.0,60.0,0.0,0.0
412,71.0,0.0,120.0,0.0,0.0
413,47.0,0.0,120.0,0.0,0.0
414,35.0,0.0,120.0,0.0,0.0
415,70.0,120.0,120.0,0.0,0.0
416,67.0,0.0,120.0,0.0,0.0
417,71.0,0.0,180.0,0.0,0.0
418,68.0,210.0,180.0,0.0,0.0
419,52.0,0.0,120.0,0.0,0.0
420,40.0,60.0,120.0,0.0,0.0
421,35.0,0.0,210.0,0.0,0.0
422,59.0,150.0,300.0,0.0,0.0
423,66.0,0.0,270.0,0.0,0.0
424,42.0,90.0,180.0,0.0,0.0
425,50.0,0.0,150.0,0.0,0.0
426,74.0,0.0,240.0,0.0,0.0
427,37.0,0.0,240.0,0.0,0.0
428,47.0,0.0,180.0,0.0,0.0
429,53.0,90.0,150.0,0.0,0.0
430,59.0,0.0,240.0,0.0,0.0
431,73.0,0.0,240.0,0.0,0.0
432,65.0,0.0,240.0,0.0,0.0
433,44.0,150.0,90.0,0.0,0.0
434,49.0,0.0,210.0,0.0,0.0
435,53.0,0.0,180.0,0.0,0.0
436,65.0,0.0,240.0,0.0,0.0
437,59.0,90.0,150.0,0.0,0.0
438,68.0,0.0,240.0,0.0,0.0
439,61.0,240.0,240.0,0.0,0.0
440,42.0,0.0,330.0,0.0,0.0
441,49.0,0.0,300.0,0.0,0.0
442,54.0,0.0,270.0,0.0,0.0
443,57.0,0.0,240.0,0.0,0.0
444,66.0,0.0,240.0,0.0,0.0
445,69.0,0.0,240.0,0.0,0.0
446,61.0,80.0,240.0,0.0,0.0
447,38.0,240.0,240.0,0.0,0.0
448,26.0,0.0,240.0,0.0,0.0
449,62.0,80.0,90.0,0.0,0.0
450,50.0,80.0,90.0,0.0,0.0
451,62.0,0.0,90.0,0.0,0.0
452,49.0,0.0,240.0,0.0,0.0
453,61.0,0.0,240.0,0.0,0.0
454,37.0,180.0,240.0,0.0,0.0
455,25.0,0.0,240.0,0.0,0.0
456,57.0,60.0,180.0,0.0,0.0
457,45.0,0.0,240.0,0.0,0.0
458,33.0,0.0,240.0,0.0,0.0
459,62.0,120.0,60.0,0.0,0.0
460,42.0,0.0,120.0,0.0,0.0
461,71.0,0.0,360.0,0.0,0.0
462,74.0,120.0,360.0,0.0,0.0
463,30.0,240.0,120.0,0.0,0.0
464,61.0,0.0,240.0,0.0,0.0
465,49.0,0.0,240.0,0.0,0.0
466,54.0,60.0,240.0,0.0,0.0
467,73.0,240.0,15.0,0.0,0.0
468,69.0,0.0,15.0,0.0,0.0
469,57.0,0.0,240.0,0.0,0.0
470,66.0,0.0,240.0,0.0,0.0
471,37.0,180.0,60.0,0.0,0.0
472,49.0,0.0,60.0,0.0,0.0
473,42.0,0.0,120.0,0.0,0.0
474,54.0,240.0,120.0,0.0,0.0
475,66.0,0.0,120.0,0.0,0.0
476,69.0,120.0,120.0,0.0,0.0
477,37.0,0.0,240.0,0.0,0.0
478,25.0,0.0,240.0,0.0,0.0
479,68.0,0.0,120.0,0.0,0.0
480,30.0,120.0,240.0,0.0,0.0
481,42.0,0.0,240.0,0.0,0.0
482,71.0,120.0,15.0,0.0,0.0
483,74.0,0.0,120.0,0.0,0.0
484,69.0,120.0,240.0,0.0,0.0
485,73.0,0.0,120.0,0.0,0.0
486,74.0,0.0,60.0,0.0,0.0
487,61.0,0.0,240.0,0.0,0.0
488,73.0,0.0,120.0,0.0,0.0
489,49.0,0.0,240.0,0.0,0.0
490,72.0,0.0,120.0,0.0,0.0
491,68.0,240.0,120.0,0.0,0.0
492,54.0,60.0,240.0,0.0,0.0
493,57.0,0.0,240.0,0.0,0.0
494,66.0,0.0,240.0,0.0,0.0
495,73.0,0.0,480.0,0.0,0.0
496,69.0,120.0,480.0,0.0,0.0
497,37.0,0.0,60.0,0.0,0.0
498,49.0,180.0,60.0,0.0,0.0
499,54.0,0.0,120.0,0.0,0.0
500,42.0,240.0,120.0,0.0,0.0
501,63.0,0.0,120.0,0.0,0.0
502,69.0,120.0,120.0,0.0,0.0
503,75.0,0.0,120.0,0.0,0.0
504,42.0,120.0,240.0,0.0,0.0
505,30.0,0.0,240.0,0.0,0.0
506,76.0,0.0,120.0,0.0,0.0
507,64.0,0.0,120.0,0.0,0.0
508,80.0,0.0,120.0,0.0,0.0
509,68.0,0.0,120.0,0.0,0.0
510,35.0,0.0,120.0,0.0,0.0
511,23.0,120.0,120.0,0.0,0.0
512,71.0,0.0,120.0,0.0,0.0
513,75.0,120.0,120.0,0.0,0.0
514,57.0,0.0,120.0,0.0,0.0
515,63.0,0.0,120.0,0.0,0.0
516,59.0,0.0,120.0,0.0,0.0
517,68.0,0.0,120.0,0.0,0.0
518,80.0,120.0,120.0,0.0,0.0
519,78.0,0.0,60.0,0.0,0.0
520,66.0,120.0,15.0,0.0,0.0
521,47.0,0.0,120.0,0.0,0.0
522,35.0,120.0,120.0,0.0,0.0
523,78.0,0.0,120.0,0.0,0.0
524,68.0,0.0,120.0,0.0,0.0
525,71.0,120.0,120.0,0.0,0.0
526,56.0,0.0,120.0,0.0,0.0
527,78.0,120.0,120.0,0.0,0.0
528,66.0,0.0,120.0,0.0,0.0
529,59.0,0.0,120.0,0.0,0.0
530,64.0,120.0,60.0,0.0,0.0
531,76.0,0.0,15.0,0.0,0.0
532,64.0,0.0,120.0,0.0,0.0
533,35.0,0.0,120.0,0.0,0.0
534,47.0,0.0,120.0,0.0,0.0
535,66.0,120.0,120.0,0.0,0.0
536,71.0,0.0,120.0,0.0,0.0
537,76.0,0.0,120.0,0.0,0.0
538,64.0,0.0,120.0,0.0,0.0
539,54.0,120.0,120.0,0.0,0.0
540,59.0,0.0,120.0,0.0,0.0
541,42.0,120.0,120.0,0.0,0.0
542,63.0,0.0,15.0,0.0,0.0
543,75.0,120.0,15.0,0.0,0.0
544,30.0,0.0,120.0,0.0,0.0
545,70.0,0.0,120.0,0.0,0.0
546,66.0,120.0,120.0,0.0,0.0
547,63.0,0.0,120.0,0.0,0.0
548,52.0,120.0,120.0,0.0,0.0
549,58.0,0.0,120.0,0.0,0.0
550,54.0,0.0,120.0,0.0,0.0
551,75.0,0.0,120.0,0.0,0.0
552,73.0,120.0,60.0,0.0,0.0
553,61.0,0.0,60.0,0.0,0.0
554,35.0,0.0,120.0,0.0,0.0
555,47.0,120.0,120.0,0.0,0.0
556,61.0,0.0,120.0,0.0,0.0
557,73.0,0.0,120.0,0.0,0.0
558,63.0,0.0,120.0,0.0,0.0
559,66.0,120.0,120.0,0.0,0.0
560,61.0,0.0,120.0,0.0,0.0
561,73.0,0.0,120.0,0.0,0.0
562,54.0,0.0,120.0,0.0,0.0
563,51.0,120.0,120.0,0.0,0.0
564,59.0,0.0,60.0,0.0,0.0
565,71.0,120.0,60.0,0.0,0.0
566,49.0,240.0,480.0,0.0,0.0
567,69.0,120.0,120.0,0.0,0.0
568,57.0,0.0,120.0,0.0,0.0
569,37.0,0.0,240.0,0.0,0.0
570,64.0,0.0,120.0,0.0,0.0
571,61.0,120.0,120.0,0.0,0.0
572,69.0,0.0,120.0,0.0,0.0
573,57.0,120.0,120.0,0.0,0.0
574,52.0,0.0,240.0,0.0,0.0
575,56.0,0.0,60.0,0.0,0.0
576,68.0,0.0,60.0,0.0,0.0
577,61.0,0.0,480.0,0.0,0.0
578,33.0,240.0,240.0,0.0,0.0
579,45.0,0.0,240.0,0.0,0.0
580,49.0,0.0,240.0,0.0,0.0
581,54.0,60.0,240.0,0.0,0.0
582,63.0,60.0,60.0,0.0,0.0
583,32.0,0.0,240.0,0.0,0.0
584,44.0,120.0,240.0,0.0,0.0
585,64.0,60.0,60.0,0.0,0.0
586,63.0,60.0,60.0,0.0,0.0
587,64.0,0.0,60.0,0.0,0.0
588,54.0,0.0,240.0,0.0,0.0
589,61.0,120.0,120.0,0.0,0.0
590,56.0,0.0,240.0,0.0,0.0
591,48.0,0.0,240.0,0.0,0.0
592,63.0,60.0,120.0,0.0,0.0
593,25.0,0.0,240.0,0.0,0.0
594,64.0,60.0,60.0,0.0,0.0
595,37.0,0.0,240.0,0.0,0.0
596,66.0,60.0,60.0,0.0,0.0
597,64.0,60.0,60.0,0.0,0.0
598,66.0,120.0,60.0,0.0,0.0
599,49.0,0.0,240.0,0.0,0.0
600,52.0,0.0,240.0,0.0,0.0
601,56.0,0.0,240.0,0.0,0.0
602,63.0,120.0,120.0,0.0,0.0
603,64.0,120.0,120.0,0.0,0.0
604,47.0,0.0,120.0,0.0,0.0
605,35.0,120.0,120.0,0.0,0.0
606,65.0,0.0,120.0,0.0,0.0
607,66.0,0.0,120.0,0.0,0.0
608,68.0,120.0,120.0,0.0,0.0
609,63.0,120.0,15.0,0.0,0.0
610,57.0,0.0,15.0,0.0,0.0
611,54.0,240.0,240.0,0.0,0.0
612,47.0,0.0,240.0,0.0,0.0
613,69.0,0.0,120.0,0.0,0.0
614,40.0,0.0,240.0,0.0,0.0
615,47.0,0.0,240.0,0.0,0.0
616,52.0,0.0,240.0,0.0,0.0
617,68.0,0.0,240.0,0.0,0.0
618,56.0,0.0,240.0,0.0,0.0
619,55.0,0.0,180.0,0.0,0.0
620,58.0,60.0,180.0,0.0,0.0
621,61.0,0.0,180.0,0.0,0.0
622,64.0,180.0,15.0,0.0,0.0
623,73.0,0.0,180.0,0.0,0.0
624,64.0,120.0,60.0,0.0,0.0
625,71.0,0.0,60.0,0.0,0.0
626,59.0,0.0,60.0,0.0,0.0
627,56.0,0.0,60.0,0.0,0.0
628,56.0,0.0,120.0,0.0,0.0
629,59.0,0.0,120.0,0.0,0.0
630,71.0,240.0,120.0,0.0,0.0
631,64.0,0.0,15.0,0.0,0.0
632,76.0,0.0,120.0,0.0,0.0
633,52.0,0.0,240.0,0.0,0.0
634,40.0,0.0,240.0,0.0,0.0
635,75.0,0.0,60.0,0.0,0.0
636,63.0,240.0,60.0,0.0,0.0
637,61.0,120.0,480.0,0.0,0.0
638,73.0,0.0,480.0,0.0,0.0
639,33.0,240.0,240.0,0.0,0.0
640,45.0,0.0,240.0,0.0,0.0
641,49.0,0.0,240.0,0.0,0.0
642,54.0,0.0,240.0,0.0,0.0
643,32.0,0.0,240.0,0.0,0.0
644,44.0,0.0,240.0,0.0,0.0
645,63.0,40.0,120.0,0.0,0.0
646,75.0,40.0,40.0,0.0,0.0
647,76.0,40.0,40.0,0.0,0.0
648,75.0,120.0,40.0,0.0,0.0
649,61.0,120.0,120.0,0.0,0.0
650,56.0,0.0,240.0,0.0,0.0
651,60.0,0.0,240.0,0.0,0.0
652,54.0,120.0,240.0,0.0,0.0
653,73.0,0.0,120.0,0.0,0.0
654,63.0,0.0,120.0,0.0,0.0
655,75.0,0.0,120.0,0.0,0.0
656,64.0,40.0,120.0,0.0,0.0
657,25.0,120.0,240.0,0.0,0.0
658,37.0,0.0,240.0,0.0,0.0
659,76.0,40.0,40.0,0.0,0.0
660,78.0,40.0,40.0,0.0,0.0
661,76.0,0.0,40.0,0.0,0.0
662,75.0,0.0,120.0,0.0,0.0
663,61.0,120.0,240.0,0.0,0.0
664,56.0,0.0,240.0,0.0,0.0
665,63.0,120.0,120.0,0.0,0.0
666,52.0,0.0,240.0,0.0,0.0
667,64.0,0.0,120.0,0.0,0.0
668,76.0,0.0,120.0,0.0,0.0
669,47.0,0.0,120.0,0.0,0.0
670,35.0,0.0,120.0,0.0,0.0
671,65.0,120.0,120.0,0.0,0.0
672,71.0,0.0,120.0,0.0,0.0
673,77.0,0.0,120.0,0.0,0.0
674,66.0,120.0,120.0,0.0,0.0
675,78.0,0.0,120.0,0.0,0.0
676,54.0,0.0,240.0,0.0,0.0
677,63.0,0.0,240.0,0.0,0.0
678,59.0,0.0,240.0,0.0,0.0
679,57.0,0.0,240.0,0.0,0.0
680,75.0,0.0,120.0,0.0,0.0
681,80.0,120.0,120.0,0.0,0.0
682,68.0,0.0,120.0,0.0,0.0
683,69.0,120.0,120.0,0.0,0.0
684,81.0,0.0,120.0,0.0,0.0
685,52.0,0.0,120.0,0.0,0.0
686,59.0,0.0,120.0,0.0,0.0
687,64.0,0.0,120.0,0.0,0.0
688,80.0,0.0,120.0,0.0,0.0
689,76.0,300.0,120.0,0.0,0.0
690,68.0,0.0,120.0,0.0,0.0
691,58.0,0.0,180.0,0.0,0.0
692,67.0,60.0,180.0,0.0,0.0
693,76.0,0.0,180.0,0.0,0.0
694,55.0,0.0,180.0,0.0,0.0
695,85.0,0.0,180.0,0.0,0.0
696,73.0,0.0,180.0,0.0,0.0
697,76.0,0.0,60.0,0.0,0.0
698,59.0,0.0,60.0,0.0,0.0
699,64.0,0.0,15.0,0.0,0.0
700,64.0,0.0,15.0,0.0,0.0
701,68.0,0.0,15.0,0.0,0.0
702,83.0,120.0,15.0,0.0,0.0
703,56.0,0.0,15.0,0.0,0.0
704,76.0,120.0,120.0,0.0,0.0
705,71.0,0.0,15.0,0.0,0.0
706,59.0,0.0,120.0,0.0,0.0
707,71.0,180.0,60.0,0.0,0.0
708,83.0,0.0,60.0,0.0,0.0
709,49.0,0.0,240.0,0.0,0.0
710,59.0,0.0,210.0,0.0,0.0
711,81.0,0.0,180.0,0.0,0.0
712,69.0,60.0,180.0,0.0,0.0
713,77.0,0.0,180.0,0.0,0.0
714,65.0,0.0,180.0,0.0,0.0
715,80.0,120.0,60.0,0.0,0.0
716,42.0,0.0,240.0,0.0,0.0
717,68.0,0.0,60.0,0.0,0.0
718,49.0,240.0,210.0,0.0,0.0
719,66.0,60.0,120.0,0.0,0.0
720,78.0,0.0,120.0,0.0,0.0
721,57.0,0.0,180.0,0.0,0.0
722,35.0,60.0,240.0,0.0,0.0
723,42.0,0.0,210.0,0.0,0.0
724,50.0,0.0,180.0,0.0,0.0
725,54.0,0.0,180.0,0.0,0.0
726,66.0,0.0,180.0,0.0,0.0
727,62.0,0.0,180.0,0.0,0.0
728,56.0,0.0,60.0,0.0,0.0
729,30.0,0.0,240.0,0.0,0.0
730,68.0,180.0,60.0,0.0,0.0
731,37.0,30.0,240.0,0.0,0.0
732,57.0,0.0,240.0,0.0,0.0
733,45.0,30.0,180.0,0.0,0.0
734,61.0,180.0,240.0,0.0,0.0
735,69.0,0.0,240.0,0.0,0.0
736,35.0,60.0,180.0,0.0,0.0
737,23.0,0.0,180.0,0.0,0.0
738,57.0,0.0,180.0,0.0,0.0
739,59.0,0.0,180.0,0.0,0.0
740,62.0,0.0,180.0,0.0,0.0
741,69.0,0.0,180.0,0.0,0.0
742,30.0,0.0,240.0,0.0,0.0
743,68.0,180.0,60.0,0.0,0.0
744,56.0,0.0,60.0,0.0,0.0
745,37.0,0.0,210.0,0.0,0.0
746,66.0,0.0,240.0,0.0,0.0
747,54.0,180.0,240.0,0.0,0.0
748,45.0,60.0,180.0,0.0,0.0
749,61.0,0.0,240.0,0.0,0.0
750,35.0,60.0,240.0,0.0,0.0
751,42.0,0.0,210.0,0.0,0.0
752,52.0,0.0,180.0,0.0,0.0
753,54.0,0.0,180.0,0.0,0.0
754,59.0,0.0,180.0,0.0,0.0
755,64.0,0.0,180.0,0.0,0.0
756,47.0,0.0,180.0,0.0,0.0
757,50.0,120.0,60.0,0.0,0.0
758,62.0,0.0,60.0,0.0,0.0
759,30.0,0.0,240.0,0.0,0.0
760,37.0,0.0,210.0,0.0,0.0
761,57.0,0.0,120.0,0.0,0.0
762,61.0,60.0,120.0,0.0,0.0
763,49.0,0.0,120.0,0.0,0.0
764,45.0,120.0,180.0,0.0,0.0
765,29.0,60.0,60.0,0.0,0.0
766,41.0,0.0,60.0,0.0,0.0
767,42.0,60.0,60.0,0.0,0.0
768,30.0,0.0,60.0,0.0,0.0
769,44.0,0.0,60.0,0.0,0.0
770,32.0,60.0,60.0,0.0,0.0
771,33.0,60.0,60.0,0.0,0.0
772,45.0,0.0,60.0,0.0,0.0
773,47.0,60.0,60.0,0.0,0.0
774,35.0,0.0,60.0,0.0,0.0
775,37.0,60.0,60.0,0.0,0.0
776,49.0,0.0,60.0,0.0,0.0
777,39.0,0.0,60.0,0.0,0.0
778,51.0,60.0,60.0,0.0,0.0
779,53.0,60.0,60.0,0.0,0.0
780,41.0,0.0,60.0,0.0,0.0
781,42.0,0.0,60.0,0.0,0.0
782,54.0,60.0,60.0,0.0,0.0
783,44.0,60.0,60.0,0.0,0.0
784,56.0,0.0,60.0,0.0,0.0
785,45.0,0.0,60.0,0.0,0.0
786,57.0,60.0,60.0,0.0,0.0
787,47.0,60.0,60.0,0.0,0.0
788,59.0,0.0,60.0,0.0,0.0
789,49.0,60.0,60.0,0.0,0.0
790,61.0,0.0,60.0,0.0,0.0
791,63.0,0.0,60.0,0.0,0.0
792,51.0,60.0,60.0,0.0,0.0
793,65.0,60.0,60.0,0.0,0.0
794,53.0,0.0,60.0,0.0,0.0
795,54.0,60.0,60.0,0.0,0.0
796,66.0,0.0,60.0,0.0,0.0
797,68.0,0.0,60.0,0.0,0.0
798,56.0,60.0,60.0,0.0,0.0
799,69.0,60.0,60.0,0.0,0.0
800,57.0,0.0,60.0,0.0,0.0
801,59.0,60.0,60.0,0.0,0.0
802,71.0,0.0,60.0,0.0,0.0
803,73.0,0.0,60.0,0.0,0.0
804,61.0,60.0,60.0,0.0,0.0
805,75.0,0.0,60.0,0.0,0.0
806,63.0,60.0,60.0,0.0,0.0
807,77.0,120.0,60.0,0.0,0.0
808,65.0,0.0,60.0,0.0,0.0
809,78.0,120.0,120.0,0.0,0.0
810,66.0,0.0,120.0,0.0,0.0
811,80.0,120.0,60.0,0.0,0.0
812,69.0,0.0,120.0,0.0,0.0
813,78.0,0.0,120.0,0.0,0.0
814,23.0,120.0,120.0,0.0,0.0
815,35.0,0.0,120.0,0.0,0.0
816,75.0,0.0,120.0,0.0,0.0
817,77.0,120.0,120.0,0.0,0.0
818,74.0,0.0,120.0,0.0,0.0
819,68.0,0.0,120.0,0.0,0.0
820,35.0,120.0,120.0,0.0,0.0
821,47.0,0.0,120.0,0.0,0.0
822,78.0,240.0,240.0,0.0,0.0
823,69.0,0.0,240.0,0.0,0.0
824,75.0,0.0,15.0,0.0,0.0
825,80.0,0.0,240.0,0.0,0.0
826,47.0,240.0,240.0,0.0,0.0
827,59.0,0.0,240.0,0.0,0.0
828,76.0,0.0,240.0,0.0,0.0
829,68.0,0.0,15.0,0.0,0.0
830,64.0,0.0,240.0,0.0,0.0
831,49.0,240.0,240.0,0.0,0.0
832,56.0,0.0,240.0,0.0,0.0
833,61.0,0.0,240.0,0.0,0.0
834,56.0,0.0,240.0,0.0,0.0
835,71.0,240.0,240.0,0.0,0.0
836,59.0,0.0,240.0,0.0,0.0
837,52.0,0.0,240.0,0.0,0.0
838,44.0,0.0,240.0,0.0,0.0
839,52.0,0.0,240.0,0.0,0.0
840,57.0,0.0,240.0,0.0,0.0
841,73.0,0.0,240.0,0.0,0.0
842,64.0,0.0,15.0,0.0,0.0
843,61.0,0.0,240.0,0.0,0.0
844,45.0,0.0,240.0,0.0,0.0
845,64.0,240.0,15.0,0.0,0.0
846,68.0,240.0,240.0,0.0,0.0
847,76.0,0.0,240.0,0.0,0.0
848,37.0,0.0,240.0,0.0,0.0
849,49.0,0.0,240.0,0.0,0.0
850,66.0,0.0,240.0,0.0,0.0
851,42.0,0.0,240.0,0.0,0.0
852,49.0,0.0,240.0,0.0,0.0
853,54.0,0.0,240.0,0.0,0.0
854,57.0,0.0,240.0,0.0,0.0
855,69.0,0.0,240.0,0.0,0.0
856,30.0,240.0,240.0,0.0,0.0
857,42.0,0.0,240.0,0.0,0.0
858,69.0,0.0,240.0,0.0,0.0
859,64.0,0.0,240.0,0.0,0.0
860,61.0,240.0,15.0,0.0,0.0
861,73.0,0.0,240.0,0.0,0.0
862,47.0,0.0,240.0,0.0,0.0
863,35.0,0.0,240.0,0.0,0.0
864,66.0,240.0,240.0,0.0,0.0
865,54.0,0.0,240.0,0.0,0.0
866,59.0,0.0,240.0,0.0,0.0
867,64.0,0.0,240.0,0.0,0.0
868,23.0,0.0,240.0,0.0,0.0
869,35.0,0.0,240.0,0.0,0.0
870,57.0,0.0,240.0,0.0,0.0
871,71.0,0.0,240.0,0.0,0.0
872,66.0,0.0,240.0,0.0,0.0
873,59.0,0.0,240.0,0.0,0.0
874,63.0,120.0,240.0,0.0,0.0
875,28.0,240.0,120.0,0.0,0.0
876,40.0,0.0,120.0,0.0,0.0
877,73.0,0.0,360.0,0.0,0.0
878,81.0,120.0,360.0,0.0,0.0
879,85.0,0.0,360.0,0.0,0.0
880,47.0,0.0,240.0,0.0,0.0
881,59.0,0.0,240.0,0.0,0.0
882,71.0,0.0,120.0,0.0,0.0
883,80.0,0.0,120.0,0.0,0.0
884,52.0,0.0,240.0,0.0,0.0
885,80.0,0.0,480.0,0.0,0.0
886,56.0,0.0,15.0,0.0,0.0
887,64.0,0.0,240.0,0.0,0.0
888,71.0,0.0,480.0,0.0,0.0
889,83.0,240.0,15.0,0.0,0.0
890,35.0,0.0,60.0,0.0,0.0
891,47.0,36.0,60.0,0.0,0.0
892,59.0,48.0,15.0,0.0,0.0
893,61.0,48.0,40.0,0.0,0.0
894,59.0,48.0,40.0,0.0,0.0
895,58.0,48.0,40.0,0.0,0.0
896,59.0,120.0,40.0,0.0,0.0
897,52.0,120.0,120.0,0.0,0.0
898,40.0,0.0,120.0,0.0,0.0
899,64.0,120.0,240.0,0.0,0.0
900,35.0,0.0,240.0,0.0,0.0
901,23.0,0.0,240.0,0.0,0.0
902,68.0,120.0,120.0,0.0,0.0
903,76.0,0.0,120.0,0.0,0.0
904,80.0,0.0,120.0,0.0,0.0
905,69.0,120.0,120.0,0.0,0.0
906,78.0,0.0,120.0,0.0,0.0
907,81.0,0.0,15.0,0.0,0.0
908,28.0,0.0,240.0,0.0,0.0
909,40.0,0.0,240.0,0.0,0.0
910,85.0,0.0,120.0,0.0,0.0
911,73.0,120.0,120.0,0.0,0.0
912,83.0,0.0,15.0,0.0,0.0
913,80.0,120.0,15.0,0.0,0.0
914,71.0,0.0,15.0,0.0,0.0
915,59.0,0.0,240.0,0.0,0.0
916,47.0,0.0,240.0,0.0,0.0
917,79.0,0.0,120.0,0.0,0.0
918,70.0,0.0,120.0,0.0,0.0
919,82.0,0.0,120.0,0.0,0.0
920,71.0,0.0,480.0,0.0,0.0
921,64.0,0.0,240.0,0.0,0.0
922,56.0,240.0,15.0,0.0,0.0
923,52.0,48.0,240.0,0.0,0.0
924,80.0,120.0,480.0,0.0,0.0
925,83.0,0.0,480.0,0.0,0.0
926,59.0,0.0,60.0,0.0,0.0
927,59.0,12.0,40.0,0.0,0.0
928,47.0,0.0,60.0,0.0,0.0
929,35.0,36.0,60.0,0.0,0.0
930,61.0,48.0,40.0,0.0,0.0
931,59.0,48.0,40.0,0.0,0.0
932,58.0,48.0,40.0,0.0,0.0
933,59.0,0.0,40.0,0.0,0.0
934,40.0,120.0,120.0,0.0,0.0
935,52.0,0.0,120.0,0.0,0.0
936,64.0,120.0,240.0,0.0,0.0
937,80.0,0.0,120.0,0.0,0.0
938,68.0,0.0,120.0,0.0,0.0
939,35.0,0.0,240.0,0.0,0.0
940,76.0,120.0,120.0,0.0,0.0
941,23.0,0.0,240.0,0.0,0.0
942,69.0,120.0,120.0,0.0,0.0
943,78.0,0.0,120.0,0.0,0.0
944,81.0,0.0,15.0,0.0,0.0
945,85.0,0.0,120.0,0.0,0.0
946,73.0,0.0,120.0,0.0,0.0
947,40.0,120.0,240.0,0.0,0.0
948,28.0,0.0,240.0,0.0,0.0
949,80.0,0.0,240.0,0.0,0.0
950,71.0,0.0,240.0,0.0,0.0
951,85.0,0.0,60.0,0.0,0.0
952,83.0,0.0,15.0,0.0,0.0
953,47.0,0.0,240.0,0.0,0.0
954,56.0,0.0,240.0,0.0,0.0
955,59.0,0.0,240.0,0.0,0.0
956,70.0,0.0,120.0,0.0,0.0
957,82.0,0.0,120.0,0.0,0.0
958,79.0,120.0,120.0,0.0,0.0
959,56.0,0.0,240.0,0.0,0.0
960,52.0,0.0,240.0,0.0,0.0
961,81.0,0.0,120.0,0.0,0.0
962,85.0,0.0,120.0,0.0,0.0
963,73.0,120.0,120.0,0.0,0.0
964,64.0,0.0,240.0,0.0,0.0
965,80.0,0.0,240.0,0.0,0.0
966,83.0,0.0,120.0,0.0,0.0
967,71.0,0.0,240.0,0.0,0.0
968,85.0,120.0,60.0,0.0,0.0
969,83.0,120.0,120.0,0.0,0.0
970,35.0,0.0,120.0,0.0,0.0
971,47.0,0.0,120.0,0.0,0.0
972,82.0,0.0,120.0,0.0,0.0
973,79.0,0.0,120.0,0.0,0.0
974,70.0,120.0,120.0,0.0,0.0
975,80.0,0.0,180.0,0.0,0.0
976,83.0,210.0,180.0,0.0,0.0
977,40.0,0.0,120.0,0.0,0.0
978,52.0,60.0,120.0,0.0,0.0
979,71.0,0.0,15.0,0.0,0.0
980,35.0,30.0,210.0,0.0,0.0
981,78.0,210.0,210.0,0.0,0.0
982,42.0,0.0,180.0,0.0,0.0
983,86.0,0.0,180.0,0.0,0.0
984,50.0,0.0,150.0,0.0,0.0
985,37.0,30.0,240.0,0.0,0.0
986,44.0,150.0,300.0,0.0,0.0
987,71.0,0.0,15.0,0.0,0.0
988,77.0,0.0,210.0,0.0,0.0
989,47.0,0.0,180.0,0.0,0.0
990,53.0,0.0,150.0,0.0,0.0
991,85.0,0.0,180.0,0.0,0.0
992,68.0,240.0,270.0,0.0,0.0
993,49.0,0.0,240.0,0.0,0.0
994,71.0,60.0,15.0,0.0,0.0
995,56.0,0.0,210.0,0.0,0.0
996,73.0,0.0,210.0,0.0,0.0
997,59.0,0.0,180.0,0.0,0.0
998,65.0,30.0,150.0,0.0,0.0
999,80.0,0.0,180.0,0.0,0.0
1000,66.0,0.0,240.0,0.0,0.0
1001,42.0,0.0,300.0,0.0,0.0
1002,73.0,60.0,210.0,0.0,0.0
1003,49.0,0.0,270.0,0.0,0.0
1004,81.0,0.0,180.0,0.0,0.0
1005,57.0,80.0,240.0,0.0,0.0
1006,50.0,0.0,240.0,0.0,0.0
1007,38.0,0.0,240.0,0.0,0.0
1008,74.0,80.0,90.0,0.0,0.0
1009,62.0,80.0,90.0,0.0,0.0
1010,74.0,240.0,90.0,0.0,0.0
1011,37.0,0.0,240.0,0.0,0.0
1012,61.0,0.0,240.0,0.0,0.0
1013,73.0,0.0,240.0,0.0,0.0
1014,49.0,240.0,240.0,0.0,0.0
1015,45.0,0.0,240.0,0.0,0.0
1016,69.0,0.0,240.0,0.0,0.0
1017,57.0,120.0,240.0,0.0,0.0
1018,33.0,0.0,240.0,0.0,0.0
1019,42.0,0.0,120.0,0.0,0.0
1020,83.0,0.0,360.0,0.0,0.0
1021,74.0,120.0,360.0,0.0,0.0
1022,86.0,0.0,360.0,0.0,0.0
1023,30.0,240.0,120.0,0.0,0.0
1024,61.0,0.0,240.0,0.0,0.0
1025,49.0,0.0,240.0,0.0,0.0
1026,57.0,0.0,240.0,0.0,0.0
1027,73.0,240.0,120.0,0.0,0.0
1028,81.0,0.0,15.0,0.0,0.0
1029,57.0,0.0,240.0,0.0,0.0
1030,54.0,48.0,240.0,0.0,0.0
1031,85.0,0.0,15.0,0.0,0.0
1032,73.0,0.0,480.0,0.0,0.0
1033,66.0,0.0,240.0,0.0,0.0
1034,61.0,0.0,15.0,0.0,0.0
1035,49.0,36.0,60.0,0.0,0.0
1036,37.0,0.0,60.0,0.0,0.0
1037,62.0,48.0,40.0,0.0,0.0
1038,61.0,48.0,40.0,0.0,0.0
1039,60.0,48.0,40.0,0.0,0.0
1040,61.0,120.0,40.0,0.0,0.0
1041,66.0,120.0,240.0,0.0,0.0
1042,54.0,120.0,120.0,0.0,0.0
1043,42.0,0.0,120.0,0.0,0.0
1044,25.0,0.0,240.0,0.0,0.0
1045,78.0,0.0,120.0,0.0,0.0
1046,81.0,0.0,120.0,0.0,0.0
1047,69.0,120.0,120.0,0.0,0.0
1048,37.0,0.0,240.0,0.0,0.0
1049,80.0,120.0,120.0,0.0,0.0
1050,71.0,0.0,120.0,0.0,0.0
1051,83.0,0.0,15.0,0.0,0.0
1052,74.0,120.0,120.0,0.0,0.0
1053,86.0,0.0,120.0,0.0,0.0
1054,42.0,0.0,240.0,0.0,0.0
1055,30.0,0.0,240.0,0.0,0.0
1056,73.0,120.0,60.0,0.0,0.0
1057,81.0,0.0,60.0,0.0,0.0
1058,85.0,0.0,60.0,0.0,0.0
1059,49.0,0.0,240.0,0.0,0.0
1060,61.0,0.0,240.0,0.0,0.0
1061,81.0,0.0,120.0,0.0,0.0
1062,73.0,0.0,120.0,0.0,0.0
1063,85.0,120.0,120.0,0.0,0.0
1064,80.0,0.0,120.0,0.0,0.0
1065,84.0,0.0,120.0,0.0,0.0
1066,72.0,240.0,120.0,0.0,0.0
1067,54.0,0.0,240.0,0.0,0.0
1068,57.0,0.0,15.0,0.0,0.0
1069,66.0,0.0,240.0,0.0,0.0
1070,73.0,0.0,480.0,0.0,0.0
1071,81.0,120.0,480.0,0.0,0.0
1072,85.0,0.0,480.0,0.0,0.0
1073,61.0,48.0,15.0,0.0,0.0
1074,37.0,36.0,60.0,0.0,0.0
1075,49.0,0.0,60.0,0.0,0.0
1076,62.0,48.0,40.0,0.0,0.0
1077,61.0,48.0,40.0,0.0,0.0
1078,60.0,48.0,40.0,0.0,0.0
1079,61.0,0.0,40.0,0.0,0.0
1080,54.0,120.0,120.0,0.0,0.0
1081,42.0,0.0,120.0,0.0,0.0
1082,66.0,120.0,240.0,0.0,0.0
1083,81.0,0.0,120.0,0.0,0.0
1084,87.0,120.0,120.0,0.0,0.0
1085,75.0,0.0,120.0,0.0,0.0
1086,30.0,0.0,240.0,0.0,0.0
1087,42.0,0.0,240.0,0.0,0.0
1088,76.0,0.0,120.0,0.0,0.0
1089,88.0,120.0,120.0,0.0,0.0
1090,35.0,0.0,120.0,0.0,0.0
1091,23.0,120.0,120.0,0.0,0.0
1092,80.0,0.0,120.0,0.0,0.0
1093,92.0,0.0,120.0,0.0,0.0
1094,83.0,120.0,120.0,0.0,0.0
1095,87.0,0.0,120.0,0.0,0.0
1096,57.0,0.0,240.0,0.0,0.0
1097,80.0,0.0,120.0,0.0,0.0
1098,92.0,120.0,120.0,0.0,0.0
1099,68.0,0.0,120.0,0.0,0.0
1100,59.0,0.0,240.0,0.0,0.0
1101,63.0,0.0,240.0,0.0,0.0
1102,66.0,0.0,120.0,0.0,0.0
1103,90.0,120.0,60.0,0.0,0.0
1104,78.0,0.0,60.0,0.0,0.0
1105,47.0,0.0,120.0,0.0,0.0
1106,90.0,0.0,120.0,0.0,0.0
1107,78.0,120.0,120.0,0.0,0.0
1108,80.0,0.0,120.0,0.0,0.0
1109,83.0,120.0,120.0,0.0,0.0
1110,90.0,0.0,120.0,0.0,0.0
1111,56.0,0.0,240.0,0.0,0.0
1112,59.0,0.0,240.0,0.0,0.0
1113,78.0,0.0,120.0,0.0,0.0
1114,66.0,120.0,120.0,0.0,0.0
1115,64.0,0.0,120.0,0.0,0.0
1116,88.0,0.0,60.0,0.0,0.0
1117,76.0,120.0,15.0,0.0,0.0
1118,47.0,120.0,120.0,0.0,0.0
1119,88.0,0.0,120.0,0.0,0.0
1120,83.0,0.0,120.0,0.0,0.0
1121,78.0,120.0,120.0,0.0,0.0
1122,88.0,120.0,120.0,0.0,0.0
1123,54.0,120.0,240.0,0.0,0.0
1124,59.0,0.0,240.0,0.0,0.0
1125,64.0,0.0,120.0,0.0,0.0
1126,76.0,0.0,120.0,0.0,0.0
1127,63.0,0.0,120.0,0.0,0.0
1128,87.0,0.0,60.0,0.0,0.0
1129,75.0,0.0,60.0,0.0,0.0
1130,75.0,0.0,120.0,0.0,0.0
1131,87.0,120.0,120.0,0.0,0.0
1132,42.0,0.0,120.0,0.0,0.0
1133,78.0,120.0,120.0,0.0,0.0
1134,82.0,0.0,120.0,0.0,0.0
1135,54.0,0.0,240.0,0.0,0.0
1136,52.0,0.0,240.0,0.0,0.0
1137,58.0,0.0,240.0,0.0,0.0
1138,87.0,0.0,120.0,0.0,0.0
1139,63.0,0.0,120.0,0.0,0.0
1140,75.0,120.0,120.0,0.0,0.0
1141,61.0,120.0,120.0,0.0,0.0
1142,47.0,0.0,120.0,0.0,0.0
1143,73.0,0.0,15.0,0.0,0.0
1144,85.0,0.0,15.0,0.0,0.0
1145,78.0,0.0,120.0,0.0,0.0
1146,75.0,120.0,120.0,0.0,0.0
1147,54.0,0.0,240.0,0.0,0.0
1148,61.0,120.0,120.0,0.0,0.0
1149,51.0,120.0,240.0,0.0,0.0
1150,85.0,0.0,120.0,0.0,0.0
1151,73.0,0.0,120.0,0.0,0.0
1152,59.0,0.0,120.0,0.0,0.0
1153,83.0,0.0,60.0,0.0,0.0
1154,71.0,0.0,60.0,0.0,0.0
1155,81.0,0.0,120.0,0.0,0.0
1156,69.0,120.0,120.0,0.0,0.0
1157,37.0,0.0,240.0,0.0,0.0
1158,49.0,0.0,480.0,0.0,0.0
1159,73.0,0.0,120.0,0.0,0.0
1160,76.0,120.0,120.0,0.0,0.0
1161,57.0,0.0,120.0,0.0,0.0
1162,52.0,240.0,240.0,0.0,0.0
1163,69.0,0.0,120.0,0.0,0.0
1164,81.0,120.0,120.0,0.0,0.0
1165,56.0,0.0,120.0,0.0,0.0
1166,80.0,0.0,60.0,0.0,0.0
1167,68.0,0.0,60.0,0.0,0.0
1168,33.0,0.0,240.0,0.0,0.0
1169,61.0,0.0,480.0,0.0,0.0
1170,45.0,240.0,240.0,0.0,0.0
1171,49.0,60.0,240.0,0.0,0.0
1172,54.0,0.0,240.0,0.0,0.0
1173,32.0,0.0,240.0,0.0,0.0
1174,44.0,0.0,240.0,0.0,0.0
1175,63.0,60.0,60.0,0.0,0.0
1176,64.0,60.0,60.0,0.0,0.0
1177,63.0,60.0,60.0,0.0,0.0
1178,64.0,120.0,60.0,0.0,0.0
1179,61.0,120.0,120.0,0.0,0.0
1180,48.0,60.0,240.0,0.0,0.0
1181,56.0,0.0,240.0,0.0,0.0
1182,54.0,0.0,240.0,0.0,0.0
1183,63.0,0.0,120.0,0.0,0.0
1184,64.0,60.0,60.0,0.0,0.0
1185,37.0,0.0,240.0,0.0,0.0
1186,25.0,120.0,240.0,0.0,0.0
1187,66.0,60.0,60.0,0.0,0.0
1188,64.0,60.0,60.0,0.0,0.0
1189,66.0,0.0,60.0,0.0,0.0
1190,49.0,0.0,240.0,0.0,0.0
1191,56.0,120.0,240.0,0.0,0.0
1192,63.0,120.0,120.0,0.0,0.0
1193,52.0,0.0,240.0,0.0,0.0
1194,64.0,0.0,120.0,0.0,0.0
1195,65.0,0.0,120.0,0.0,0.0
1196,47.0,0.0,120.0,0.0,0.0
1197,35.0,120.0,120.0,0.0,0.0
1198,63.0,0.0,240.0,0.0,0.0
1199,66.0,120.0,120.0,0.0,0.0
1200,68.0,120.0,120.0,0.0,0.0
1201,54.0,0.0,240.0,0.0,0.0
1202,57.0,0.0,15.0,0.0,0.0
1203,63.0,0.0,240.0,0.0,0.0
1204,69.0,0.0,120.0,0.0,0.0
1205,56.0,0.0,240.0,0.0,0.0
1206,68.0,0.0,240.0,0.0,0.0
1207,40.0,0.0,240.0,0.0,0.0
1208,47.0,240.0,15.0,0.0,0.0
1209,52.0,180.0,240.0,0.0,0.0
1210,64.0,0.0,15.0,0.0,0.0
1211,61.0,0.0,180.0,0.0,0.0
1212,58.0,0.0,180.0,0.0,0.0
1213,73.0,0.0,180.0,0.0,0.0
1214,55.0,0.0,180.0,0.0,0.0
1215,59.0,0.0,60.0,0.0,0.0
1216,56.0,0.0,60.0,0.0,0.0
1217,64.0,60.0,15.0,0.0,0.0
1218,64.0,0.0,120.0,0.0,0.0
1219,56.0,0.0,120.0,0.0,0.0
1220,71.0,120.0,15.0,0.0,0.0
1221,59.0,240.0,120.0,0.0,0.0
1222,64.0,120.0,240.0,0.0,0.0
1223,76.0,0.0,120.0,0.0,0.0
1224,40.0,0.0,240.0,0.0,0.0
1225,52.0,0.0,240.0,0.0,0.0
1226,63.0,0.0,60.0,0.0,0.0
1227,75.0,240.0,60.0,0.0,0.0
1228,45.0,0.0,240.0,0.0,0.0
1229,33.0,240.0,240.0,0.0,0.0
1230,73.0,0.0,480.0,0.0,0.0
1231,61.0,0.0,480.0,0.0,0.0
1232,49.0,120.0,240.0,0.0,0.0
1233,54.0,0.0,240.0,0.0,0.0
1234,63.0,40.0,120.0,0.0,0.0
1235,44.0,0.0,240.0,0.0,0.0
1236,32.0,0.0,240.0,0.0,0.0
1237,75.0,40.0,40.0,0.0,0.0
1238,76.0,40.0,40.0,0.0,0.0
1239,75.0,120.0,40.0,0.0,0.0
1240,54.0,0.0,240.0,0.0,0.0
1241,73.0,120.0,120.0,0.0,0.0
1242,60.0,0.0,240.0,0.0,0.0
1243,61.0,0.0,120.0,0.0,0.0
1244,56.0,120.0,240.0,0.0,0.0
1245,63.0,0.0,120.0,0.0,0.0
1246,75.0,0.0,120.0,0.0,0.0
1247,25.0,0.0,240.0,0.0,0.0
1248,37.0,120.0,240.0,0.0,0.0
1249,64.0,40.0,120.0,0.0,0.0
1250,76.0,40.0,40.0,0.0,0.0
1251,78.0,40.0,40.0,0.0,0.0
1252,76.0,0.0,40.0,0.0,0.0
1253,52.0,120.0,240.0,0.0,0.0
1254,56.0,0.0,240.0,0.0,0.0
1255,63.0,120.0,120.0,0.0,0.0
1256,75.0,0.0,120.0,0.0,0.0
1257,61.0,0.0,240.0,0.0,0.0
1258,64.0,0.0,120.0,0.0,0.0
1259,76.0,0.0,120.0,0.0,0.0
1260,47.0,0.0,120.0,0.0,0.0
1261,35.0,0.0,120.0,0.0,0.0
1262,77.0,0.0,120.0,0.0,0.0
1263,71.0,0.0,120.0,0.0,0.0
1264,65.0,120.0,120.0,0.0,0.0
1265,66.0,0.0,120.0,0.0,0.0
1266,78.0,120.0,120.0,0.0,0.0
1267,68.0,0.0,120.0,0.0,0.0
1268,63.0,0.0,240.0,0.0,0.0
1269,80.0,120.0,120.0,0.0,0.0
1270,75.0,0.0,120.0,0.0,0.0
1271,57.0,0.0,240.0,0.0,0.0
1272,54.0,0.0,240.0,0.0,0.0
1273,81.0,0.0,120.0,0.0,0.0
1274,69.0,0.0,120.0,0.0,0.0
1275,59.0,120.0,15.0,0.0,0.0
1276,80.0,0.0,120.0,0.0,0.0
1277,76.0,0.0,120.0,0.0,0.0
1278,52.0,300.0,120.0,0.0,0.0
1279,68.0,0.0,120.0,0.0,0.0
1280,64.0,0.0,120.0,0.0,0.0
1281,55.0,0.0,180.0,0.0,0.0
1282,58.0,0.0,180.0,0.0,0.0
1283,67.0,0.0,180.0,0.0,0.0
1284,73.0,60.0,180.0,0.0,0.0
1285,85.0,0.0,180.0,0.0,0.0
1286,76.0,0.0,15.0,0.0,0.0
1287,71.0,0.0,60.0,0.0,0.0
1288,64.0,0.0,15.0,0.0,0.0
1289,59.0,0.0,60.0,0.0,0.0
1290,59.0,0.0,120.0,0.0,0.0
1291,56.0,0.0,15.0,0.0,0.0
1292,68.0,0.0,15.0,0.0,0.0
1293,64.0,0.0,15.0,0.0,0.0
1294,71.0,120.0,120.0,0.0,0.0
1295,76.0,120.0,15.0,0.0,0.0
1296,83.0,0.0,15.0,0.0,0.0
1297,49.0,0.0,270.0,0.0,0.0
1298,71.0,180.0,60.0,0.0,0.0
1299,83.0,0.0,60.0,0.0,0.0
1300,56.0,0.0,240.0,0.0,0.0
1301,59.0,60.0,210.0,0.0,0.0
1302,69.0,0.0,180.0,0.0,0.0
1303,81.0,0.0,180.0,0.0,0.0
1304,65.0,0.0,180.0,0.0,0.0
1305,77.0,0.0,180.0,0.0,0.0
1306,68.0,120.0,60.0,0.0,0.0
1307,80.0,0.0,60.0,0.0,0.0
1308,42.0,240.0,240.0,0.0,0.0
1309,49.0,0.0,210.0,0.0,0.0
1310,78.0,60.0,120.0,0.0,0.0
1311,57.0,0.0,180.0,0.0,0.0
1312,66.0,0.0,120.0,0.0,0.0
1313,47.0,0.0,240.0,0.0,0.0
1314,54.0,0.0,210.0,0.0,0.0
1315,78.0,0.0,180.0,0.0,0.0
1316,74.0,0.0,180.0,0.0,0.0
1317,62.0,60.0,180.0,0.0,0.0
1318,66.0,0.0,180.0,0.0,0.0
1319,42.0,0.0,240.0,0.0,0.0
1320,68.0,180.0,60.0,0.0,0.0
1321,80.0,0.0,60.0,0.0,0.0
1322,49.0,0.0,210.0,0.0,0.0
1323,57.0,60.0,180.0,0.0,0.0
1324,73.0,0.0,240.0,0.0,0.0
1325,35.0,0.0,240.0,0.0,0.0
1326,42.0,0.0,210.0,0.0,0.0
1327,71.0,60.0,180.0,0.0,0.0
1328,69.0,180.0,15.0,0.0,0.0
1329,81.0,0.0,15.0,0.0,0.0
1330,74.0,0.0,180.0,0.0,0.0
1331,50.0,0.0,180.0,0.0,0.0
1332,30.0,60.0,240.0,0.0,0.0
1333,68.0,0.0,60.0,0.0,0.0
1334,80.0,180.0,60.0,0.0,0.0
1335,37.0,0.0,210.0,0.0,0.0
1336,78.0,180.0,240.0,0.0,0.0
1337,73.0,0.0,240.0,0.0,0.0
1338,45.0,0.0,180.0,0.0,0.0
1339,66.0,0.0,240.0,0.0,0.0
1340,35.0,0.0,240.0,0.0,0.0
1341,42.0,0.0,210.0,0.0,0.0
1342,50.0,0.0,180.0,0.0,0.0
1343,71.0,60.0,180.0,0.0,0.0
1344,76.0,0.0,180.0,0.0,0.0
1345,64.0,0.0,180.0,0.0,0.0
1346,66.0,0.0,180.0,0.0,0.0
1347,42.0,120.0,240.0,0.0,0.0
1348,62.0,120.0,60.0,0.0,0.0
1349,74.0,0.0,60.0,0.0,0.0
1350,49.0,0.0,210.0,0.0,0.0
1351,69.0,0.0,120.0,0.0,0.0
1352,57.0,0.0,180.0,0.0,0.0
1353,73.0,0.0,120.0,0.0,0.0
1354,61.0,60.0,120.0,0.0,0.0
1355,29.0,0.0,60.0,0.0,0.0
1356,41.0,60.0,60.0,0.0,0.0
1357,42.0,0.0,60.0,0.0,0.0
1358,30.0,60.0,60.0,0.0,0.0
1359,44.0,0.0,60.0,0.0,0.0
1360,32.0,60.0,60.0,0.0,0.0
1361,33.0,0.0,60.0,0.0,0.0
1362,45.0,60.0,60.0,0.0,0.0
1363,47.0,60.0,60.0,0.0,0.0
1364,35.0,0.0,60.0,0.0,0.0
1365,49.0,0.0,60.0,0.0,0.0
1366,37.0,60.0,60.0,0.0,0.0
1367,51.0,0.0,60.0,0.0,0.0
1368,39.0,60.0,60.0,0.0,0.0
1369,53.0,0.0,60.0,0.0,0.0
1370,41.0,60.0,60.0,0.0,0.0
1371,54.0,60.0,60.0,0.0,0.0
1372,42.0,0.0,60.0,0.0,0.0
1373,44.0,0.0,60.0,0.0,0.0
1374,56.0,60.0,60.0,0.0,0.0
1375,45.0,60.0,60.0,0.0,0.0
1376,57.0,0.0,60.0,0.0,0.0
1377,47.0,0.0,60.0,0.0,0.0
1378,59.0,60.0,60.0,0.0,0.0
1379,49.0,0.0,60.0,0.0,0.0
1380,61.0,60.0,60.0,0.0,0.0
1381,63.0,0.0,60.0,0.0,0.0
1382,51.0,60.0,60.0,0.0,0.0
1383,53.0,60.0,60.0,0.0,0.0
1384,65.0,0.0,60.0,0.0,0.0
1385,66.0,60.0,60.0,0.0,0.0
1386,54.0,0.0,60.0,0.0,0.0
1387,68.0,0.0,60.0,0.0,0.0
1388,56.0,60.0,60.0,0.0,0.0
1389,57.0,60.0,60.0,0.0,0.0
1390,69.0,0.0,60.0,0.0,0.0
1391,71.0,0.0,60.0,0.0,0.0
1392,59.0,60.0,60.0,0.0,0.0
1393,73.0,60.0,60.0,0.0,0.0
1394,61.0,0.0,60.0,0.0,0.0
1395,75.0,60.0,60.0,0.0,0.0
1396,63.0,0.0,60.0,0.0,0.0
1397,77.0,60.0,60.0,0.0,0.0
1398,65.0,0.0,60.0,0.0,0.0
1399,66.0,0.0,60.0,0.0,0.0
1400,78.0,60.0,60.0,0.0,0.0
1401,68.0,0.0,60.0,0.0,0.0
1402,80.0,60.0,60.0,0.0,0.0
1403,81.0,60.0,60.0,0.0,0.0
1404,69.0,0.0,60.0,0.0,0.0
1405,71.0,60.0,60.0,0.0,0.0
1406,83.0,0.0,60.0,0.0,0.0
1407,73.0,90.0,60.0,0.0,0.0
1408,85.0,0.0,60.0,0.0,0.0
1409,87.0,0.0,90.0,0.0,0.0
1410,75.0,60.0,90.0,0.0,0.0
1411,89.0,120.0,90.0,0.0,0.0
1412,77.0,30.0,60.0,0.0,0.0
1413,90.0,120.0,120.0,0.0,0.0
1414,78.0,0.0,120.0,0.0,0.0
1415,92.0,120.0,60.0,0.0,0.0
1416,35.0,0.0,120.0,0.0,0.0
1417,23.0,0.0,120.0,0.0,0.0
1418,90.0,0.0,120.0,0.0,0.0
1419,87.0,0.0,120.0,0.0,0.0
1420,81.0,120.0,120.0,0.0,0.0
1421,86.0,120.0,120.0,0.0,0.0
1422,80.0,0.0,120.0,0.0,0.0
1423,89.0,0.0,120.0,0.0,0.0
1424,59.0,120.0,120.0,0.0,0.0
1425,47.0,0.0,120.0,0.0,0.0
1426,81.0,240.0,240.0,0.0,0.0
1427,87.0,0.0,240.0,0.0,0.0
1428,90.0,0.0,240.0,0.0,0.0
1429,59.0,0.0,240.0,0.0,0.0
1430,63.0,0.0,240.0,0.0,0.0
1431,71.0,0.0,240.0,0.0,0.0
1432,87.0,0.0,240.0,0.0,0.0
1433,92.0,240.0,240.0,0.0,0.0
1434,61.0,0.0,240.0,0.0,0.0
1435,68.0,0.0,15.0,0.0,0.0
1436,73.0,240.0,240.0,0.0,0.0
1437,88.0,0.0,240.0,0.0,0.0
1438,80.0,0.0,15.0,0.0,0.0
1439,76.0,0.0,240.0,0.0,0.0
1440,56.0,0.0,240.0,0.0,0.0
1441,83.0,0.0,240.0,0.0,0.0
1442,76.0,0.0,240.0,0.0,0.0
1443,71.0,120.0,240.0,0.0,0.0
1444,68.0,0.0,240.0,0.0,0.0
1445,64.0,0.0,15.0,0.0,0.0
1446,57.0,300.0,120.0,0.0,0.0
1447,69.0,0.0,120.0,0.0,0.0
1448,73.0,0.0,120.0,0.0,0.0
1449,76.0,0.0,120.0,0.0,0.0
1450,85.0,0.0,120.0,0.0,0.0
1451,57.0,60.0,180.0,0.0,0.0
1452,59.0,0.0,480.0,0.0,0.0
1453,47.0,0.0,480.0,0.0,0.0
1454,35.0,120.0,480.0,0.0,0.0
1455,51.0,0.0,15.0,0.0,0.0
1456,57.0,0.0,60.0,0.0,0.0
1457,66.0,120.0,480.0,0.0,0.0
1458,51.0,240.0,15.0,0.0,0.0
1459,57.0,0.0,480.0,0.0,0.0
1460,23.0,120.0,120.0,0.0,0.0
1461,35.0,0.0,120.0,0.0,0.0
1462,28.0,0.0,120.0,0.0,0.0
1463,40.0,120.0,120.0,0.0,0.0
1464,56.0,0.0,240.0,0.0,0.0
1465,52.0,0.0,240.0,0.0,0.0
1466,64.0,360.0,240.0,0.0,0.0
1467,20.0,0.0,120.0,0.0,0.0
1468,80.0,0.0,120.0,0.0,0.0
1469,68.0,0.0,120.0,0.0,0.0
1470,32.0,240.0,120.0,0.0,0.0
1471,44.0,0.0,120.0,0.0,0.0
1472,32.0,0.0,120.0,0.0,0.0
1473,56.0,0.0,120.0,0.0,0.0
1474,68.0,120.0,120.0,0.0,0.0
1475,56.0,0.0,60.0,0.0,0.0
1476,32.0,0.0,60.0,0.0,0.0
1477,44.0,0.0,60.0,0.0,0.0
1478,36.0,0.0,240.0,0.0,0.0
1479,45.0,120.0,240.0,0.0,0.0
1480,57.0,0.0,240.0,0.0,0.0
1481,68.0,240.0,15.0,0.0,0.0
1482,68.0,0.0,15.0,0.0,0.0
1483,56.0,120.0,120.0,0.0,0.0
1484,36.0,0.0,120.0,0.0,0.0
1485,24.0,0.0,120.0,0.0,0.0
1486,44.0,0.0,60.0,0.0,0.0
1487,36.0,240.0,60.0,0.0,0.0
1488,56.0,0.0,60.0,0.0,0.0
1489,68.0,0.0,15.0,0.0,0.0
1490,59.0,120.0,240.0,0.0,0.0
1491,37.0,0.0,240.0,0.0,0.0
1492,47.0,0.0,240.0,0.0,0.0
1493,56.0,0.0,120.0,0.0,0.0
1494,37.0,0.0,120.0,0.0,0.0
1495,68.0,120.0,120.0,0.0,0.0
1496,25.0,0.0,120.0,0.0,0.0
1497,37.0,0.0,60.0,0.0,0.0
1498,68.0,0.0,60.0,0.0,0.0
1499,45.0,0.0,60.0,0.0,0.0
1500,57.0,240.0,60.0,0.0,0.0
1501,61.0,0.0,240.0,0.0,0.0
1502,49.0,0.0,240.0,0.0,0.0
1503,56.0,0.0,120.0,0.0,0.0
1504,68.0,0.0,15.0,0.0,0.0
1505,39.0,120.0,15.0,0.0,0.0
1506,27.0,0.0,120.0,0.0,0.0
1507,48.0,0.0,60.0,0.0,0.0
1508,39.0,0.0,60.0,0.0,0.0
1509,60.0,240.0,60.0,0.0,0.0
1510,40.0,120.0,240.0,0.0,0.0
1511,51.0,0.0,240.0,0.0,0.0
1512,68.0,0.0,15.0,0.0,0.0
1513,63.0,0.0,240.0,0.0,0.0
1514,56.0,120.0,120.0,0.0,0.0
1515,28.0,0.0,120.0,0.0,0.0
1516,68.0,0.0,120.0,0.0,0.0
1517,40.0,0.0,120.0,0.0,0.0
1518,61.0,240.0,60.0,0.0,0.0
1519,49.0,0.0,60.0,0.0,0.0
1520,40.0,0.0,60.0,0.0,0.0
1521,68.0,0.0,15.0,0.0,0.0
1522,52.0,0.0,240.0,0.0,0.0
1523,40.0,0.0,240.0,0.0,0.0
1524,64.0,120.0,240.0,0.0,0.0
1525,28.0,0.0,120.0,0.0,0.0
1526,40.0,0.0,120.0,0.0,0.0
1527,56.0,0.0,120.0,0.0,0.0
1528,68.0,120.0,120.0,0.0,0.0
1529,40.0,240.0,60.0,0.0,0.0
1530,62.0,0.0,60.0,0.0,0.0
1531,68.0,0.0,60.0,0.0,0.0
1532,50.0,0.0,60.0,0.0,0.0
1533,51.0,0.0,240.0,0.0,0.0
1534,60.0,60.0,240.0,0.0,0.0
1535,68.0,0.0,240.0,0.0,0.0
1536,39.0,0.0,240.0,0.0,0.0
1537,51.0,120.0,60.0,0.0,0.0
1538,63.0,0.0,15.0,0.0,0.0
1539,84.0,0.0,480.0,0.0,0.0
1540,72.0,0.0,15.0,0.0,0.0
1541,80.0,60.0,480.0,0.0,0.0
1542,51.0,0.0,60.0,0.0,0.0
1543,63.0,180.0,60.0,0.0,0.0
1544,65.0,0.0,120.0,0.0,0.0
1545,53.0,120.0,120.0,0.0,0.0
1546,51.0,0.0,120.0,0.0,0.0
1547,63.0,0.0,120.0,0.0,0.0
1548,51.0,0.0,60.0,0.0,0.0
1549,82.0,60.0,120.0,0.0,0.0
1550,79.0,0.0,120.0,0.0,0.0
1551,63.0,60.0,60.0,0.0,0.0
1552,70.0,0.0,120.0,0.0,0.0
1553,63.0,60.0,60.0,0.0,0.0
1554,80.0,0.0,120.0,0.0,0.0
1555,51.0,0.0,60.0,0.0,0.0
1556,84.0,120.0,120.0,0.0,0.0
1557,72.0,0.0,120.0,0.0,0.0
1558,73.0,0.0,240.0,0.0,0.0
1559,82.0,0.0,240.0,0.0,0.0
1560,85.0,180.0,240.0,0.0,0.0
1561,63.0,0.0,120.0,0.0,0.0
1562,51.0,120.0,120.0,0.0,0.0
1563,67.0,0.0,240.0,0.0,0.0
1564,61.0,240.0,240.0,0.0,0.0
1565,84.0,0.0,180.0,0.0,0.0
1566,75.0,60.0,180.0,0.0,0.0
1567,72.0,0.0,180.0,0.0,0.0
1568,58.0,0.0,240.0,0.0,0.0
1569,70.0,0.0,60.0,0.0,0.0
1570,82.0,0.0,60.0,0.0,0.0
1571,63.0,0.0,15.0,0.0,0.0
1572,72.0,60.0,240.0,0.0,0.0
1573,68.0,0.0,240.0,0.0,0.0
1574,84.0,0.0,240.0,0.0,0.0
1575,80.0,0.0,240.0,0.0,0.0
1576,56.0,0.0,15.0,0.0,0.0
1577,44.0,60.0,60.0,0.0,0.0
1578,48.0,60.0,60.0,0.0,0.0
1579,60.0,0.0,60.0,0.0,0.0
1580,63.0,0.0,60.0,0.0,0.0
1581,51.0,60.0,60.0,0.0,0.0
1582,67.0,0.0,60.0,0.0,0.0
1583,55.0,60.0,60.0,0.0,0.0
1584,68.0,0.0,60.0,0.0,0.0
1585,56.0,60.0,60.0,0.0,0.0
1586,72.0,0.0,60.0,0.0,0.0
1587,60.0,60.0,60.0,0.0,0.0
1588,75.0,60.0,60.0,0.0,0.0
1589,63.0,0.0,60.0,0.0,0.0
1590,79.0,0.0,60.0,0.0,0.0
1591,67.0,60.0,60.0,0.0,0.0
1592,68.0,60.0,120.0,0.0,0.0
1593,80.0,60.0,60.0,0.0,0.0
1594,84.0,0.0,60.0,0.0,0.0
1595,56.0,0.0,120.0,0.0,0.0
1596,87.0,60.0,60.0,0.0,0.0
1597,92.0,240.0,60.0,0.0,0.0
1598,81.0,240.0,240.0,0.0,0.0
1599,93.0,0.0,240.0,0.0,0.0
1600,69.0,0.0,240.0,0.0,0.0
1601,57.0,0.0,240.0,0.0,0.0
1602,82.0,120.0,240.0,0.0,0.0
1603,70.0,0.0,240.0,0.0,0.0
1604,58.0,0.0,240.0,0.0,0.0
1605,94.0,0.0,240.0,0.0,0.0
1606,71.0,0.0,120.0,0.0,0.0
1607,59.0,240.0,120.0,0.0,0.0
1608,95.0,0.0,120.0,0.0,0.0
1609,83.0,0.0,120.0,0.0,0.0
1610,47.0,0.0,120.0,0.0,0.0
1611,35.0,0.0,120.0,0.0,0.0
1612,59.0,120.0,120.0,0.0,0.0
1613,71.0,0.0,120.0,0.0,0.0
1614,47.0,0.0,60.0,0.0,0.0
1615,35.0,0.0,60.0,0.0,0.0
1616,59.0,240.0,60.0,0.0,0.0
1617,71.0,0.0,60.0,0.0,0.0
1618,48.0,120.0,240.0,0.0,0.0
1619,39.0,0.0,240.0,0.0,0.0
1620,60.0,0.0,240.0,0.0,0.0
1621,59.0,120.0,120.0,0.0,0.0
1622,71.0,0.0,15.0,0.0,0.0
1623,27.0,0.0,120.0,0.0,0.0
1624,39.0,0.0,120.0,0.0,0.0
1625,39.0,240.0,60.0,0.0,0.0
1626,71.0,0.0,60.0,0.0,0.0
1627,47.0,0.0,60.0,0.0,0.0
1628,59.0,0.0,60.0,0.0,0.0
1629,62.0,0.0,240.0,0.0,0.0
1630,71.0,0.0,240.0,0.0,0.0
1631,50.0,0.0,240.0,0.0,0.0
1632,59.0,120.0,120.0,0.0,0.0
1633,71.0,0.0,120.0,0.0,0.0
1634,40.0,120.0,15.0,0.0,0.0
1635,28.0,0.0,120.0,0.0,0.0
1636,48.0,0.0,60.0,0.0,0.0
1637,40.0,0.0,60.0,0.0,0.0
1638,60.0,240.0,60.0,0.0,0.0
1639,71.0,0.0,15.0,0.0,0.0
1640,64.0,120.0,240.0,0.0,0.0
1641,52.0,0.0,240.0,0.0,0.0
1642,42.0,0.0,240.0,0.0,0.0
1643,71.0,0.0,15.0,0.0,0.0
1644,42.0,0.0,120.0,0.0,0.0
1645,30.0,0.0,120.0,0.0,0.0
1646,59.0,120.0,120.0,0.0,0.0
1647,63.0,0.0,60.0,0.0,0.0
1648,51.0,0.0,60.0,0.0,0.0
1649,42.0,0.0,60.0,0.0,0.0
1650,66.0,0.0,240.0,0.0,0.0
1651,71.0,240.0,15.0,0.0,0.0
1652,54.0,0.0,240.0,0.0,0.0
1653,43.0,0.0,15.0,0.0,0.0
1654,31.0,0.0,120.0,0.0,0.0
1655,71.0,120.0,15.0,0.0,0.0
1656,59.0,120.0,120.0,0.0,0.0
1657,52.0,0.0,60.0,0.0,0.0
1658,71.0,0.0,60.0,0.0,0.0
1659,64.0,0.0,60.0,0.0,0.0
1660,43.0,240.0,60.0,0.0,0.0
1661,67.0,120.0,240.0,0.0,0.0
1662,43.0,0.0,240.0,0.0,0.0
1663,55.0,0.0,240.0,0.0,0.0
1664,31.0,0.0,120.0,0.0,0.0
1665,43.0,0.0,120.0,0.0,0.0
1666,71.0,0.0,15.0,0.0,0.0
1667,59.0,0.0,120.0,0.0,0.0
1668,71.0,0.0,60.0,0.0,0.0
1669,65.0,0.0,60.0,0.0,0.0
1670,53.0,240.0,60.0,0.0,0.0
1671,43.0,0.0,60.0,0.0,0.0
1672,54.0,0.0,240.0,0.0,0.0
1673,42.0,0.0,240.0,0.0,0.0
1674,71.0,0.0,240.0,0.0,0.0
1675,63.0,0.0,240.0,0.0,0.0
1676,87.0,0.0,480.0,0.0,0.0
1677,75.0,60.0,15.0,0.0,0.0
1678,54.0,120.0,60.0,0.0,0.0
1679,66.0,0.0,15.0,0.0,0.0
1680,83.0,0.0,480.0,0.0,0.0
1681,54.0,180.0,60.0,0.0,0.0
1682,66.0,0.0,60.0,0.0,0.0
1683,68.0,120.0,120.0,0.0,0.0
1684,56.0,0.0,120.0,0.0,0.0
1685,54.0,60.0,120.0,0.0,0.0
1686,66.0,0.0,120.0,0.0,0.0
1687,74.0,60.0,120.0,0.0,0.0
1688,82.0,0.0,120.0,0.0,0.0
1689,86.0,0.0,120.0,0.0,0.0
1690,66.0,0.0,60.0,0.0,0.0
1691,54.0,60.0,60.0,0.0,0.0
1692,75.0,120.0,120.0,0.0,0.0
1693,54.0,60.0,60.0,0.0,0.0
1694,83.0,0.0,120.0,0.0,0.0
1695,87.0,0.0,120.0,0.0,0.0
1696,66.0,0.0,60.0,0.0,0.0
1697,66.0,120.0,120.0,0.0,0.0
1698,88.0,0.0,240.0,0.0,0.0
1699,76.0,0.0,240.0,0.0,0.0
1700,54.0,0.0,120.0,0.0,0.0
1701,54.0,0.0,330.0,0.0,0.0
1702,61.0,0.0,300.0,0.0,0.0
1703,64.0,0.0,270.0,0.0,0.0
1704,87.0,0.0,180.0,0.0,0.0
1705,82.0,180.0,15.0,0.0,0.0
1706,70.0,0.0,240.0,0.0,0.0
1707,75.0,60.0,180.0,0.0,0.0
1708,85.0,0.0,60.0,0.0,0.0
1709,73.0,240.0,60.0,0.0,0.0
1710,83.0,0.0,240.0,0.0,0.0
1711,63.0,0.0,240.0,0.0,0.0
1712,87.0,180.0,240.0,0.0,0.0
1713,71.0,0.0,240.0,0.0,0.0
1714,59.0,0.0,15.0,0.0,0.0
1715,55.0,0.0,240.0,0.0,0.0
1716,47.0,0.0,240.0,0.0,0.0
1717,75.0,0.0,15.0,0.0,0.0
1718,64.0,0.0,240.0,0.0,0.0
1719,73.0,0.0,60.0,0.0,0.0
1720,71.0,0.0,240.0,0.0,0.0
1721,59.0,240.0,15.0,0.0,0.0
1722,63.0,0.0,240.0,0.0,0.0
1723,54.0,0.0,240.0,0.0,0.0
1724,43.0,0.0,240.0,0.0,0.0
1725,47.0,180.0,15.0,0.0,0.0
1726,52.0,0.0,240.0,0.0,0.0
1727,63.0,60.0,180.0,0.0,0.0
1728,35.0,0.0,240.0,0.0,0.0
1729,61.0,240.0,60.0,0.0,0.0
1730,47.0,0.0,15.0,0.0,0.0
1731,42.0,0.0,240.0,0.0,0.0
1732,59.0,0.0,240.0,0.0,0.0
1733,51.0,120.0,240.0,0.0,0.0
1734,35.0,0.0,15.0,0.0,0.0
1735,23.0,240.0,120.0,0.0,0.0
1736,33.0,0.0,120.0,0.0,0.0
1737,21.0,240.0,120.0,0.0,0.0
1738,61.0,0.0,960.0,0.0,0.0
1739,49.0,0.0,120.0,0.0,0.0
1740,51.0,120.0,15.0,0.0,0.0
1741,49.0,240.0,120.0,0.0,0.0
1742,51.0,240.0,240.0,0.0,0.0
1743,49.0,0.0,15.0,0.0,0.0
1744,54.0,0.0,480.0,0.0,0.0
1745,51.0,240.0,15.0,0.0,0.0
1746,49.0,0.0,15.0,0.0,0.0
1747,51.0,240.0,15.0,0.0,0.0
1748,49.0,0.0,240.0,0.0,0.0
1749,44.0,60.0,960.0,0.0,0.0
1750,32.0,120.0,240.0,0.0,0.0
1751,48.0,0.0,120.0,0.0,0.0
1752,48.0,240.0,120.0,0.0,0.0
1753,51.0,120.0,15.0,0.0,0.0
1754,48.0,180.0,15.0,0.0,0.0
1755,51.0,0.0,15.0,0.0,0.0
1756,56.0,0.0,15.0,0.0,0.0
1757,57.0,0.0,15.0,0.0,0.0
1758,30.0,0.0,240.0,0.0,0.0
1759,42.0,0.0,240.0,0.0,0.0
1760,59.0,60.0,60.0,0.0,0.0
1761,57.0,60.0,60.0,0.0,0.0
1762,59.0,48.0,60.0,0.0,0.0
1763,49.0,0.0,240.0,0.0,0.0
1764,57.0,48.0,40.0,0.0,0.0
1765,51.0,0.0,240.0,0.0,0.0
1766,59.0,48.0,40.0,0.0,0.0
1767,57.0,48.0,40.0,0.0,0.0
1768,56.0,48.0,40.0,0.0,0.0
1769,57.0,240.0,40.0,0.0,0.0
1770,56.0,0.0,720.0,0.0,0.0
1771,32.0,120.0,240.0,0.0,0.0
1772,44.0,0.0,960.0,0.0,0.0
1773,51.0,120.0,15.0,0.0,0.0
1774,48.0,0.0,15.0,0.0,0.0
1775,48.0,240.0,15.0,0.0,0.0
1776,51.0,180.0,240.0,0.0,0.0
1777,56.0,60.0,180.0,0.0,0.0
1778,48.0,0.0,240.0,0.0,0.0
1779,51.0,0.0,240.0,0.0,0.0
1780,57.0,60.0,60.0,0.0,0.0
1781,30.0,0.0,240.0,0.0,0.0
1782,42.0,0.0,240.0,0.0,0.0
1783,57.0,60.0,60.0,0.0,0.0
1784,59.0,60.0,60.0,0.0,0.0
1785,57.0,60.0,60.0,0.0,0.0
1786,59.0,48.0,60.0,0.0,0.0
1787,49.0,240.0,240.0,0.0,0.0
1788,51.0,0.0,240.0,0.0,0.0
1789,57.0,48.0,40.0,0.0,0.0
1790,59.0,48.0,40.0,0.0,0.0
1791,57.0,48.0,40.0,0.0,0.0
1792,56.0,48.0,40.0,0.0,0.0
1793,57.0,0.0,40.0,0.0,0.0
1794,44.0,120.0,240.0,0.0,0.0
1795,56.0,0.0,240.0,0.0,0.0
1796,32.0,0.0,240.0,0.0,0.0
1797,58.0,0.0,120.0,0.0,0.0
1798,54.0,0.0,120.0,0.0,0.0
1799,51.0,0.0,120.0,0.0,0.0
1800,60.0,240.0,120.0,0.0,0.0
1801,56.0,120.0,15.0,0.0,0.0
1802,54.0,0.0,120.0,0.0,0.0
1803,51.0,0.0,120.0,0.0,0.0
1804,54.0,0.0,240.0,0.0,0.0
1805,56.0,240.0,240.0,0.0,0.0
1806,61.0,0.0,240.0,0.0,0.0
1807,63.0,0.0,240.0,0.0,0.0
1808,51.0,0.0,15.0,0.0,0.0
1809,56.0,0.0,240.0,0.0,0.0
1810,54.0,120.0,240.0,0.0,0.0
1811,66.0,120.0,120.0,0.0,0.0
1812,37.0,0.0,240.0,0.0,0.0
1813,49.0,0.0,480.0,0.0,0.0
1814,64.0,120.0,120.0,0.0,0.0
1815,52.0,0.0,240.0,0.0,0.0
1816,56.0,0.0,240.0,0.0,0.0
1817,63.0,60.0,120.0,0.0,0.0
1818,61.0,30.0,60.0,0.0,0.0
1819,61.0,30.0,30.0,0.0,0.0
1820,61.0,240.0,30.0,0.0,0.0
1821,73.0,0.0,960.0,0.0,0.0
1822,45.0,0.0,240.0,0.0,0.0
1823,33.0,120.0,240.0,0.0,0.0
1824,54.0,120.0,120.0,0.0,0.0
1825,51.0,0.0,120.0,0.0,0.0
1826,61.0,0.0,120.0,0.0,0.0
1827,61.0,0.0,120.0,0.0,0.0
1828,51.0,0.0,15.0,0.0,0.0
1829,54.0,240.0,15.0,0.0,0.0
1830,61.0,240.0,15.0,0.0,0.0
1831,51.0,0.0,240.0,0.0,0.0
1832,54.0,0.0,15.0,0.0,0.0
1833,61.0,240.0,15.0,0.0,0.0
1834,51.0,240.0,240.0,0.0,0.0
1835,66.0,0.0,480.0,0.0,0.0
1836,61.0,0.0,240.0,0.0,0.0
1837,51.0,240.0,240.0,0.0,0.0
1838,56.0,180.0,720.0,0.0,0.0
1839,68.0,0.0,720.0,0.0,0.0
1840,44.0,0.0,240.0,0.0,0.0
1841,32.0,120.0,240.0,0.0,0.0
1842,51.0,0.0,120.0,0.0,0.0
1843,60.0,120.0,15.0,0.0,0.0
1844,60.0,0.0,240.0,0.0,0.0
1845,51.0,240.0,15.0,0.0,0.0
1846,51.0,0.0,240.0,0.0,0.0
1847,60.0,0.0,240.0,0.0,0.0
1848,68.0,30.0,180.0,0.0,0.0
1849,69.0,30.0,30.0,0.0,0.0
1850,57.0,60.0,30.0,0.0,0.0
1851,30.0,0.0,240.0,0.0,0.0
1852,69.0,60.0,60.0,0.0,0.0
1853,42.0,48.0,240.0,0.0,0.0
1854,71.0,60.0,60.0,0.0,0.0
1855,69.0,60.0,60.0,0.0,0.0
1856,71.0,0.0,60.0,0.0,0.0
1857,69.0,48.0,40.0,0.0,0.0
1858,61.0,0.0,240.0,0.0,0.0
1859,49.0,240.0,240.0,0.0,0.0
1860,52.0,0.0,240.0,0.0,0.0
1861,71.0,48.0,40.0,0.0,0.0
1862,69.0,48.0,40.0,0.0,0.0
1863,68.0,48.0,40.0,0.0,0.0
1864,69.0,0.0,40.0,0.0,0.0
1865,32.0,120.0,240.0,0.0,0.0
1866,56.0,0.0,720.0,0.0,0.0
1867,44.0,0.0,240.0,0.0,0.0
1868,60.0,0.0,120.0,0.0,0.0
1869,51.0,120.0,15.0,0.0,0.0
1870,51.0,0.0,15.0,0.0,0.0
1871,60.0,240.0,15.0,0.0,0.0
1872,51.0,0.0,15.0,0.0,0.0
1873,68.0,180.0,15.0,0.0,0.0
1874,60.0,60.0,240.0,0.0,0.0
1875,69.0,30.0,30.0,0.0,0.0
1876,57.0,0.0,30.0,0.0,0.0
1877,69.0,60.0,60.0,0.0,0.0
1878,30.0,48.0,240.0,0.0,0.0
1879,42.0,0.0,240.0,0.0,0.0
1880,71.0,60.0,60.0,0.0,0.0
1881,69.0,60.0,60.0,0.0,0.0
1882,71.0,0.0,60.0,0.0,0.0
1883,69.0,48.0,40.0,0.0,0.0
1884,52.0,0.0,240.0,0.0,0.0
1885,61.0,0.0,240.0,0.0,0.0
1886,49.0,60.0,240.0,0.0,0.0
1887,71.0,48.0,40.0,0.0,0.0
1888,69.0,48.0,40.0,0.0,0.0
1889,68.0,48.0,40.0,0.0,0.0
1890,69.0,0.0,40.0,0.0,0.0
1891,70.0,60.0,60.0,0.0,0.0
1892,42.0,0.0,240.0,0.0,0.0
1893,30.0,0.0,240.0,0.0,0.0
1894,71.0,60.0,60.0,0.0,0.0
1895,70.0,60.0,60.0,0.0,0.0
1896,71.0,48.0,60.0,0.0,0.0
1897,70.0,48.0,40.0,0.0,0.0
1898,52.0,0.0,240.0,0.0,0.0
1899,58.0,0.0,240.0,0.0,0.0
1900,64.0,0.0,240.0,0.0,0.0
1901,54.0,60.0,240.0,0.0,0.0
1902,71.0,48.0,40.0,0.0,0.0
1903,70.0,48.0,40.0,0.0,0.0
1904,69.0,48.0,40.0,0.0,0.0
1905,70.0,0.0,40.0,0.0,0.0
1906,71.0,60.0,60.0,0.0,0.0
1907,23.0,0.0,240.0,0.0,0.0
1908,35.0,0.0,240.0,0.0,0.0
1909,73.0,60.0,60.0,0.0,0.0
1910,71.0,60.0,60.0,0.0,0.0
1911,73.0,60.0,60.0,0.0,0.0
1912,71.0,60.0,60.0,0.0,0.0
1913,51.0,0.0,240.0,0.0,0.0
1914,73.0,60.0,60.0,0.0,0.0
1915,71.0,60.0,60.0,0.0,0.0
1916,73.0,0.0,60.0,0.0,0.0
1917,59.0,60.0,15.0,0.0,0.0
1918,57.0,0.0,15.0,0.0,0.0
1919,54.0,0.0,15.0,0.0,0.0
1920,71.0,60.0,60.0,0.0,0.0
1921,73.0,60.0,60.0,0.0,0.0
1922,71.0,60.0,60.0,0.0,0.0
1923,70.0,0.0,60.0,0.0,0.0
1924,69.0,0.0,480.0,0.0,0.0
1925,63.0,0.0,15.0,0.0,0.0
1926,59.0,0.0,15.0,0.0,0.0
1927,57.0,60.0,15.0,0.0,0.0
1928,71.0,60.0,60.0,0.0,0.0
1929,73.0,60.0,60.0,0.0,0.0
1930,75.0,60.0,60.0,0.0,0.0
1931,76.0,60.0,60.0,0.0,0.0
1932,78.0,60.0,60.0,0.0,0.0
1933,80.0,60.0,60.0,0.0,0.0
1934,81.0,60.0,60.0,0.0,0.0
1935,83.0,0.0,60.0,0.0,0.0
1936,81.0,0.0,360.0,0.0,0.0
1937,85.0,120.0,360.0,0.0,0.0
1938,28.0,240.0,120.0,0.0,0.0
1939,40.0,0.0,120.0,0.0,0.0
1940,73.0,0.0,360.0,0.0,0.0
1941,59.0,0.0,240.0,0.0,0.0
1942,47.0,0.0,240.0,0.0,0.0
1943,56.0,0.0,240.0,0.0,0.0
1944,71.0,0.0,120.0,0.0,0.0
1945,64.0,0.0,240.0,0.0,0.0
1946,56.0,0.0,240.0,0.0,0.0
1947,80.0,240.0,15.0,0.0,0.0
1948,83.0,0.0,15.0,0.0,0.0
1949,52.0,0.0,240.0,0.0,0.0
1950,71.0,120.0,480.0,0.0,0.0
1951,59.0,48.0,60.0,0.0,0.0
1952,35.0,0.0,60.0,0.0,0.0
1953,47.0,36.0,60.0,0.0,0.0
1954,59.0,12.0,40.0,0.0,0.0
1955,61.0,48.0,40.0,0.0,0.0
1956,59.0,48.0,40.0,0.0,0.0
1957,58.0,48.0,40.0,0.0,0.0
1958,59.0,0.0,40.0,0.0,0.0
1959,64.0,120.0,240.0,0.0,0.0
1960,52.0,120.0,120.0,0.0,0.0
1961,40.0,0.0,120.0,0.0,0.0
1962,35.0,0.0,240.0,0.0,0.0
1963,23.0,120.0,240.0,0.0,0.0
1964,68.0,0.0,120.0,0.0,0.0
1965,76.0,0.0,120.0,0.0,0.0
1966,80.0,120.0,120.0,0.0,0.0
1967,69.0,0.0,120.0,0.0,0.0
1968,78.0,0.0,120.0,0.0,0.0
1969,81.0,0.0,120.0,0.0,0.0
1970,40.0,0.0,240.0,0.0,0.0
1971,85.0,0.0,120.0,0.0,0.0
1972,28.0,120.0,240.0,0.0,0.0
1973,73.0,120.0,120.0,0.0,0.0
1974,81.0,0.0,120.0,0.0,0.0
1975,83.0,0.0,15.0,0.0,0.0
1976,80.0,0.0,15.0,0.0,0.0
1977,71.0,0.0,15.0,0.0,0.0
1978,59.0,0.0,240.0,0.0,0.0
1979,56.0,0.0,240.0,0.0,0.0
1980,47.0,0.0,240.0,0.0,0.0
1981,82.0,0.0,120.0,0.0,0.0
1982,79.0,0.0,120.0,0.0,0.0
1983,70.0,240.0,120.0,0.0,0.0
1984,64.0,0.0,240.0,0.0,0.0
1985,56.0,0.0,240.0,0.0,0.0
1986,52.0,48.0,240.0,0.0,0.0
1987,83.0,0.0,480.0,0.0,0.0
1988,80.0,120.0,480.0,0.0,0.0
1989,71.0,0.0,480.0,0.0,0.0
1990,59.0,0.0,15.0,0.0,0.0
1991,47.0,36.0,60.0,0.0,0.0
1992,35.0,0.0,60.0,0.0,0.0
1993,61.0,48.0,40.0,0.0,0.0
1994,59.0,48.0,40.0,0.0,0.0
1995,58.0,48.0,40.0,0.0,0.0
1996,59.0,0.0,40.0,0.0,0.0
1997,64.0,120.0,240.0,0.0,0.0
1998,40.0,120.0,120.0,0.0,0.0
1999,52.0,0.0,120.0,0.0,0.0
2000,23.0,0.0,240.0,0.0,0.0
2001,80.0,120.0,120.0,0.0,0.0
2002,35.0,0.0,240.0,0.0,0.0
2003,68.0,0.0,120.0,0.0,0.0
2004,76.0,0.0,120.0,0.0,0.0
2005,81.0,120.0,120.0,0.0,0.0
2006,69.0,0.0,120.0,0.0,0.0
2007,78.0,0.0,120.0,0.0,0.0
2008,40.0,0.0,240.0,0.0,0.0
2009,28.0,120.0,240.0,0.0,0.0
2010,73.0,0.0,120.0,0.0,0.0
2011,81.0,0.0,120.0,0.0,0.0
2012,85.0,120.0,120.0,0.0,0.0
2013,83.0,0.0,120.0,0.0,0.0
2014,80.0,0.0,240.0,0.0,0.0
2015,71.0,0.0,240.0,0.0,0.0
2016,85.0,0.0,60.0,0.0,0.0
2017,47.0,0.0,240.0,0.0,0.0
2018,59.0,0.0,240.0,0.0,0.0
2019,56.0,0.0,240.0,0.0,0.0
2020,83.0,120.0,120.0,0.0,0.0
2021,82.0,0.0,120.0,0.0,0.0
2022,79.0,120.0,120.0,0.0,0.0
2023,70.0,0.0,120.0,0.0,0.0
2024,64.0,0.0,240.0,0.0,0.0
2025,56.0,0.0,240.0,0.0,0.0
2026,52.0,120.0,240.0,0.0,0.0
2027,81.0,120.0,120.0,0.0,0.0
2028,85.0,0.0,120.0,0.0,0.0
2029,73.0,0.0,120.0,0.0,0.0
2030,80.0,0.0,240.0,0.0,0.0
2031,71.0,0.0,240.0,0.0,0.0
2032,85.0,0.0,60.0,0.0,0.0
2033,35.0,0.0,120.0,0.0,0.0
2034,83.0,0.0,15.0,0.0,0.0
2035,47.0,0.0,120.0,0.0,0.0
2036,79.0,0.0,120.0,0.0,0.0
2037,82.0,0.0,120.0,0.0,0.0
2038,70.0,120.0,120.0,0.0,0.0
2039,40.0,60.0,120.0,0.0,0.0
2040,71.0,0.0,180.0,0.0,0.0
2041,80.0,0.0,180.0,0.0,0.0
2042,83.0,210.0,180.0,0.0,0.0
2043,52.0,0.0,120.0,0.0,0.0
2044,35.0,0.0,210.0,0.0,0.0
2045,71.0,0.0,240.0,0.0,0.0
2046,42.0,0.0,180.0,0.0,0.0
2047,78.0,210.0,210.0,0.0,0.0
2048,50.0,30.0,150.0,0.0,0.0
2049,86.0,0.0,180.0,0.0,0.0
2050,37.0,0.0,240.0,0.0,0.0
2051,44.0,150.0,300.0,0.0,0.0
2052,47.0,30.0,180.0,0.0,0.0
2053,77.0,0.0,210.0,0.0,0.0
2054,53.0,0.0,150.0,0.0,0.0
2055,85.0,0.0,180.0,0.0,0.0
2056,68.0,0.0,270.0,0.0,0.0
2057,49.0,0.0,240.0,0.0,0.0
2058,56.0,0.0,210.0,0.0,0.0
2059,71.0,60.0,15.0,0.0,0.0
2060,59.0,0.0,180.0,0.0,0.0
2061,73.0,240.0,210.0,0.0,0.0
2062,80.0,0.0,180.0,0.0,0.0
2063,65.0,30.0,150.0,0.0,0.0
2064,66.0,0.0,240.0,0.0,0.0
2065,42.0,80.0,300.0,0.0,0.0
2066,73.0,0.0,210.0,0.0,0.0
2067,49.0,0.0,270.0,0.0,0.0
2068,57.0,0.0,240.0,0.0,0.0
2069,81.0,60.0,180.0,0.0,0.0
2070,38.0,0.0,240.0,0.0,0.0
2071,50.0,0.0,240.0,0.0,0.0
2072,74.0,80.0,90.0,0.0,0.0
2073,62.0,80.0,90.0,0.0,0.0
2074,74.0,240.0,90.0,0.0,0.0
2075,61.0,240.0,240.0,0.0,0.0
2076,49.0,0.0,240.0,0.0,0.0
2077,37.0,0.0,240.0,0.0,0.0
2078,73.0,0.0,240.0,0.0,0.0
2079,45.0,0.0,240.0,0.0,0.0
2080,33.0,120.0,240.0,0.0,0.0
2081,57.0,0.0,240.0,0.0,0.0
2082,69.0,0.0,240.0,0.0,0.0
2083,74.0,0.0,360.0,0.0,0.0
2084,86.0,120.0,360.0,0.0,0.0
2085,42.0,0.0,120.0,0.0,0.0
2086,30.0,240.0,120.0,0.0,0.0
2087,83.0,0.0,360.0,0.0,0.0
2088,49.0,240.0,240.0,0.0,0.0
2089,61.0,0.0,240.0,0.0,0.0
2090,81.0,0.0,120.0,0.0,0.0
2091,85.0,0.0,120.0,0.0,0.0
2092,54.0,0.0,240.0,0.0,0.0
2093,57.0,0.0,15.0,0.0,0.0
2094,73.0,0.0,15.0,0.0,0.0
2095,66.0,0.0,240.0,0.0,0.0
2096,81.0,0.0,480.0,0.0,0.0
2097,85.0,0.0,480.0,0.0,0.0
2098,61.0,48.0,15.0,0.0,0.0
2099,49.0,36.0,60.0,0.0,0.0
2100,37.0,0.0,60.0,0.0,0.0
2101,62.0,48.0,40.0,0.0,0.0
2102,61.0,48.0,40.0,0.0,0.0
2103,60.0,48.0,40.0,0.0,0.0
2104,61.0,120.0,40.0,0.0,0.0
2105,66.0,120.0,240.0,0.0,0.0
2106,42.0,0.0,120.0,0.0,0.0
2107,54.0,120.0,120.0,0.0,0.0
2108,25.0,0.0,240.0,0.0,0.0
2109,81.0,120.0,120.0,0.0,0.0
2110,78.0,0.0,120.0,0.0,0.0
2111,69.0,0.0,120.0,0.0,0.0
2112,37.0,120.0,240.0,0.0,0.0
2113,71.0,0.0,120.0,0.0,0.0
2114,80.0,0.0,120.0,0.0,0.0
2115,83.0,0.0,120.0,0.0,0.0
2116,30.0,0.0,240.0,0.0,0.0
2117,86.0,120.0,120.0,0.0,0.0
2118,74.0,0.0,120.0,0.0,0.0
2119,83.0,0.0,120.0,0.0,0.0
2120,42.0,0.0,240.0,0.0,0.0
2121,81.0,0.0,60.0,0.0,0.0
2122,57.0,0.0,240.0,0.0,0.0
2123,61.0,0.0,240.0,0.0,0.0
2124,49.0,0.0,240.0,0.0,0.0
2125,85.0,120.0,15.0,0.0,0.0
2126,73.0,0.0,15.0,0.0,0.0
2127,81.0,0.0,120.0,0.0,0.0
2128,80.0,0.0,120.0,0.0,0.0
2129,72.0,0.0,120.0,0.0,0.0
2130,84.0,240.0,120.0,0.0,0.0
2131,57.0,48.0,240.0,0.0,0.0
2132,54.0,0.0,240.0,0.0,0.0
2133,66.0,0.0,240.0,0.0,0.0
2134,85.0,0.0,480.0,0.0,0.0
2135,81.0,0.0,480.0,0.0,0.0
2136,73.0,120.0,480.0,0.0,0.0
2137,37.0,0.0,60.0,0.0,0.0
2138,49.0,36.0,60.0,0.0,0.0
2139,61.0,0.0,15.0,0.0,0.0
2140,62.0,48.0,40.0,0.0,0.0
2141,61.0,48.0,40.0,0.0,0.0
2142,60.0,48.0,40.0,0.0,0.0
2143,61.0,0.0,40.0,0.0,0.0
2144,54.0,0.0,120.0,0.0,0.0
2145,42.0,120.0,120.0,0.0,0.0
2146,66.0,120.0,240.0,0.0,0.0
2147,87.0,0.0,120.0,0.0,0.0
2148,81.0,0.0,120.0,0.0,0.0
2149,42.0,0.0,240.0,0.0,0.0
2150,30.0,0.0,240.0,0.0,0.0
2151,75.0,120.0,120.0,0.0,0.0
2152,76.0,0.0,120.0,0.0,0.0
2153,88.0,120.0,120.0,0.0,0.0
2154,92.0,0.0,120.0,0.0,0.0
2155,23.0,120.0,120.0,0.0,0.0
2156,35.0,0.0,120.0,0.0,0.0
2157,80.0,0.0,120.0,0.0,0.0
2158,87.0,120.0,120.0,0.0,0.0
2159,83.0,0.0,120.0,0.0,0.0
2160,63.0,0.0,240.0,0.0,0.0
2161,57.0,0.0,240.0,0.0,0.0
2162,68.0,0.0,120.0,0.0,0.0
2163,92.0,120.0,120.0,0.0,0.0
2164,80.0,0.0,120.0,0.0,0.0
2165,59.0,0.0,240.0,0.0,0.0
2166,66.0,120.0,120.0,0.0,0.0
2167,90.0,0.0,60.0,0.0,0.0
2168,78.0,0.0,15.0,0.0,0.0
2169,47.0,120.0,120.0,0.0,0.0
2170,90.0,0.0,120.0,0.0,0.0
2171,83.0,120.0,120.0,0.0,0.0
2172,80.0,0.0,120.0,0.0,0.0
2173,56.0,0.0,240.0,0.0,0.0
2174,59.0,0.0,240.0,0.0,0.0
2175,78.0,120.0,120.0,0.0,0.0
2176,90.0,0.0,120.0,0.0,0.0
2177,66.0,0.0,120.0,0.0,0.0
2178,64.0,0.0,120.0,0.0,0.0
2179,88.0,0.0,60.0,0.0,0.0
2180,76.0,120.0,15.0,0.0,0.0
2181,88.0,0.0,120.0,0.0,0.0
2182,47.0,120.0,120.0,0.0,0.0
2183,83.0,0.0,120.0,0.0,0.0
2184,78.0,120.0,120.0,0.0,0.0
2185,64.0,120.0,120.0,0.0,0.0
2186,54.0,0.0,240.0,0.0,0.0
2187,59.0,0.0,240.0,0.0,0.0
2188,76.0,0.0,120.0,0.0,0.0
2189,88.0,0.0,120.0,0.0,0.0
2190,63.0,0.0,120.0,0.0,0.0
2191,75.0,0.0,60.0,0.0,0.0
2192,42.0,120.0,120.0,0.0,0.0
2193,75.0,0.0,120.0,0.0,0.0
2194,87.0,120.0,15.0,0.0,0.0
2195,82.0,120.0,120.0,0.0,0.0
2196,78.0,0.0,120.0,0.0,0.0
2197,75.0,120.0,120.0,0.0,0.0
2198,87.0,0.0,120.0,0.0,0.0
2199,63.0,0.0,120.0,0.0,0.0
2200,54.0,0.0,240.0,0.0,0.0
2201,58.0,0.0,240.0,0.0,0.0
2202,52.0,0.0,240.0,0.0,0.0
2203,61.0,0.0,120.0,0.0,0.0
2204,73.0,120.0,60.0,0.0,0.0
2205,85.0,0.0,15.0,0.0,0.0
2206,47.0,0.0,120.0,0.0,0.0
2207,73.0,120.0,120.0,0.0,0.0
2208,75.0,0.0,120.0,0.0,0.0
2209,78.0,120.0,120.0,0.0,0.0
2210,85.0,0.0,120.0,0.0,0.0
2211,73.0,120.0,120.0,0.0,0.0
2212,54.0,120.0,240.0,0.0,0.0
2213,51.0,0.0,240.0,0.0,0.0
2214,61.0,0.0,120.0,0.0,0.0
2215,59.0,0.0,120.0,0.0,0.0
2216,71.0,0.0,60.0,0.0,0.0
2217,83.0,0.0,60.0,0.0,0.0
2218,69.0,0.0,120.0,0.0,0.0
2219,81.0,120.0,120.0,0.0,0.0
2220,37.0,0.0,240.0,0.0,0.0
2221,49.0,240.0,480.0,0.0,0.0
2222,73.0,120.0,120.0,0.0,0.0
2223,76.0,0.0,120.0,0.0,0.0
2224,57.0,120.0,120.0,0.0,0.0
2225,52.0,0.0,240.0,0.0,0.0
2226,69.0,0.0,120.0,0.0,0.0
2227,81.0,0.0,120.0,0.0,0.0
2228,56.0,0.0,120.0,0.0,0.0
2229,68.0,0.0,60.0,0.0,0.0
2230,80.0,0.0,60.0,0.0,0.0
2231,61.0,60.0,480.0,0.0,0.0
2232,33.0,240.0,240.0,0.0,0.0
2233,45.0,0.0,240.0,0.0,0.0
2234,54.0,0.0,240.0,0.0,0.0
2235,49.0,0.0,240.0,0.0,0.0
2236,32.0,0.0,240.0,0.0,0.0
2237,63.0,60.0,60.0,0.0,0.0
2238,44.0,0.0,240.0,0.0,0.0
2239,64.0,60.0,60.0,0.0,0.0
2240,63.0,60.0,60.0,0.0,0.0
2241,64.0,120.0,60.0,0.0,0.0
2242,48.0,0.0,240.0,0.0,0.0
2243,61.0,120.0,120.0,0.0,0.0
2244,56.0,0.0,240.0,0.0,0.0
2245,54.0,0.0,240.0,0.0,0.0
2246,63.0,60.0,120.0,0.0,0.0
2247,37.0,0.0,240.0,0.0,0.0
2248,64.0,60.0,60.0,0.0,0.0
2249,25.0,0.0,240.0,0.0,0.0
2250,66.0,60.0,60.0,0.0,0.0
2251,64.0,60.0,60.0,0.0,0.0
2252,66.0,120.0,60.0,0.0,0.0
2253,49.0,0.0,240.0,0.0,0.0
2254,56.0,0.0,240.0,0.0,0.0
2255,63.0,120.0,120.0,0.0,0.0
2256,52.0,120.0,240.0,0.0,0.0
2257,64.0,0.0,120.0,0.0,0.0
2258,47.0,0.0,120.0,0.0,0.0
2259,35.0,0.0,120.0,0.0,0.0
2260,65.0,120.0,120.0,0.0,0.0
2261,63.0,0.0,240.0,0.0,0.0
2262,57.0,120.0,240.0,0.0,0.0
2263,66.0,0.0,120.0,0.0,0.0
2264,57.0,0.0,240.0,0.0,0.0
2265,63.0,0.0,240.0,0.0,0.0
2266,68.0,120.0,120.0,0.0,0.0
2267,54.0,0.0,240.0,0.0,0.0
2268,69.0,240.0,120.0,0.0,0.0
2269,68.0,0.0,240.0,0.0,0.0
2270,64.0,0.0,240.0,0.0,0.0
2271,56.0,0.0,240.0,0.0,0.0
2272,52.0,0.0,240.0,0.0,0.0
2273,47.0,0.0,15.0,0.0,0.0
2274,40.0,180.0,240.0,0.0,0.0
2275,73.0,0.0,180.0,0.0,0.0
2276,55.0,60.0,180.0,0.0,0.0
2277,58.0,0.0,180.0,0.0,0.0
2278,61.0,0.0,180.0,0.0,0.0
2279,64.0,0.0,180.0,0.0,0.0
2280,64.0,0.0,15.0,0.0,0.0
2281,59.0,0.0,15.0,0.0,0.0
2282,71.0,120.0,15.0,0.0,0.0
2283,56.0,0.0,15.0,0.0,0.0
2284,64.0,0.0,240.0,0.0,0.0
2285,52.0,0.0,240.0,0.0,0.0
2286,40.0,0.0,240.0,0.0,0.0
2287,76.0,120.0,120.0,0.0,0.0
2288,63.0,0.0,60.0,0.0,0.0
2289,75.0,240.0,60.0,0.0,0.0
2290,45.0,0.0,240.0,0.0,0.0
2291,33.0,240.0,240.0,0.0,0.0
2292,73.0,0.0,480.0,0.0,0.0
2293,61.0,0.0,480.0,0.0,0.0
2294,49.0,120.0,240.0,0.0,0.0
2295,54.0,0.0,240.0,0.0,0.0
2296,44.0,120.0,240.0,0.0,0.0
2297,63.0,40.0,120.0,0.0,0.0
2298,32.0,0.0,240.0,0.0,0.0
2299,75.0,40.0,40.0,0.0,0.0
2300,76.0,40.0,40.0,0.0,0.0
2301,75.0,0.0,40.0,0.0,0.0
2302,60.0,0.0,240.0,0.0,0.0
2303,54.0,120.0,240.0,0.0,0.0
2304,61.0,0.0,120.0,0.0,0.0
2305,73.0,120.0,120.0,0.0,0.0
2306,56.0,0.0,240.0,0.0,0.0
2307,75.0,0.0,120.0,0.0,0.0
2308,63.0,0.0,120.0,0.0,0.0
2309,64.0,40.0,120.0,0.0,0.0
2310,37.0,0.0,240.0,0.0,0.0
2311,25.0,0.0,240.0,0.0,0.0
2312,76.0,40.0,40.0,0.0,0.0
2313,78.0,40.0,40.0,0.0,0.0
2314,76.0,120.0,40.0,0.0,0.0
2315,61.0,120.0,240.0,0.0,0.0
2316,56.0,0.0,240.0,0.0,0.0
2317,52.0,0.0,240.0,0.0,0.0
2318,63.0,120.0,120.0,0.0,0.0
2319,75.0,0.0,120.0,0.0,0.0
2320,64.0,0.0,120.0,0.0,0.0
2321,76.0,0.0,120.0,0.0,0.0
2322,47.0,0.0,120.0,0.0,0.0
2323,35.0,0.0,120.0,0.0,0.0
2324,65.0,120.0,120.0,0.0,0.0
2325,71.0,0.0,120.0,0.0,0.0
2326,77.0,0.0,120.0,0.0,0.0
2327,66.0,0.0,120.0,0.0,0.0
2328,78.0,120.0,120.0,0.0,0.0
2329,75.0,0.0,120.0,0.0,0.0
2330,68.0,120.0,120.0,0.0,0.0
2331,80.0,0.0,120.0,0.0,0.0
2332,63.0,0.0,240.0,0.0,0.0
2333,59.0,0.0,240.0,0.0,0.0
2334,54.0,0.0,240.0,0.0,0.0
2335,57.0,0.0,240.0,0.0,0.0
2336,69.0,120.0,120.0,0.0,0.0
2337,81.0,0.0,120.0,0.0,0.0
2338,52.0,0.0,120.0,0.0,0.0
2339,59.0,0.0,120.0,0.0,0.0
2340,64.0,0.0,120.0,0.0,0.0
2341,68.0,0.0,120.0,0.0,0.0
2342,76.0,300.0,120.0,0.0,0.0
2343,80.0,0.0,120.0,0.0,0.0
2344,64.0,0.0,180.0,0.0,0.0
2345,55.0,0.0,180.0,0.0,0.0
2346,58.0,0.0,180.0,0.0,0.0
2347,67.0,0.0,180.0,0.0,0.0
2348,85.0,0.0,180.0,0.0,0.0
2349,73.0,0.0,180.0,0.0,0.0
2350,68.0,0.0,60.0,0.0,0.0
2351,59.0,0.0,60.0,0.0,0.0
2352,64.0,0.0,60.0,0.0,0.0
2353,76.0,60.0,15.0,0.0,0.0
2354,83.0,0.0,60.0,0.0,0.0
2355,71.0,120.0,60.0,0.0,0.0
2356,64.0,0.0,120.0,0.0,0.0
2357,68.0,0.0,120.0,0.0,0.0
2358,56.0,0.0,15.0,0.0,0.0
2359,59.0,0.0,120.0,0.0,0.0
2360,71.0,0.0,120.0,0.0,0.0
2361,76.0,0.0,120.0,0.0,0.0
2362,83.0,0.0,120.0,0.0,0.0
2363,49.0,0.0,270.0,0.0,0.0
2364,83.0,0.0,60.0,0.0,0.0
2365,56.0,0.0,240.0,0.0,0.0
2366,71.0,180.0,60.0,0.0,0.0
2367,59.0,0.0,210.0,0.0,0.0
2368,65.0,0.0,180.0,0.0,0.0
2369,81.0,60.0,180.0,0.0,0.0
2370,77.0,0.0,180.0,0.0,0.0
2371,69.0,0.0,180.0,0.0,0.0
2372,42.0,240.0,240.0,0.0,0.0
2373,68.0,120.0,60.0,0.0,0.0
2374,80.0,0.0,60.0,0.0,0.0
2375,49.0,0.0,210.0,0.0,0.0
2376,66.0,60.0,120.0,0.0,0.0
2377,57.0,0.0,180.0,0.0,0.0
2378,78.0,0.0,120.0,0.0,0.0
2379,47.0,0.0,240.0,0.0,0.0
2380,54.0,0.0,210.0,0.0,0.0
2381,62.0,0.0,180.0,0.0,0.0
2382,66.0,60.0,180.0,0.0,0.0
2383,74.0,0.0,180.0,0.0,0.0
2384,78.0,0.0,180.0,0.0,0.0
2385,80.0,180.0,60.0,0.0,0.0
2386,42.0,60.0,240.0,0.0,0.0
2387,68.0,0.0,60.0,0.0,0.0
2388,49.0,0.0,210.0,0.0,0.0
2389,73.0,0.0,240.0,0.0,0.0
2390,57.0,0.0,180.0,0.0,0.0
2391,35.0,0.0,240.0,0.0,0.0
2392,42.0,0.0,210.0,0.0,0.0
2393,74.0,60.0,180.0,0.0,0.0
2394,81.0,180.0,15.0,0.0,0.0
2395,69.0,0.0,15.0,0.0,0.0
2396,50.0,0.0,180.0,0.0,0.0
2397,71.0,0.0,180.0,0.0,0.0
2398,30.0,0.0,240.0,0.0,0.0
2399,80.0,180.0,60.0,0.0,0.0
2400,68.0,0.0,60.0,0.0,0.0
2401,37.0,0.0,210.0,0.0,0.0
2402,78.0,0.0,240.0,0.0,0.0
2403,73.0,0.0,240.0,0.0,0.0
2404,45.0,60.0,180.0,0.0,0.0
2405,35.0,0.0,240.0,0.0,0.0
2406,42.0,0.0,210.0,0.0,0.0
2407,66.0,180.0,15.0,0.0,0.0
2408,50.0,0.0,180.0,0.0,0.0
2409,76.0,0.0,180.0,0.0,0.0
2410,71.0,0.0,180.0,0.0,0.0
2411,64.0,0.0,180.0,0.0,0.0
2412,62.0,120.0,60.0,0.0,0.0
2413,74.0,0.0,60.0,0.0,0.0
2414,42.0,0.0,240.0,0.0,0.0
2415,49.0,0.0,210.0,0.0,0.0
2416,57.0,120.0,180.0,0.0,0.0
2417,69.0,0.0,120.0,0.0,0.0
2418,61.0,60.0,120.0,0.0,0.0
2419,73.0,0.0,120.0,0.0,0.0
2420,29.0,60.0,60.0,0.0,0.0
2421,41.0,0.0,60.0,0.0,0.0
2422,42.0,0.0,60.0,0.0,0.0
2423,30.0,60.0,60.0,0.0,0.0
2424,44.0,60.0,60.0,0.0,0.0
2425,32.0,0.0,60.0,0.0,0.0
2426,33.0,0.0,60.0,0.0,0.0
2427,45.0,60.0,60.0,0.0,0.0
2428,35.0,60.0,60.0,0.0,0.0
2429,47.0,0.0,60.0,0.0,0.0
2430,49.0,0.0,60.0,0.0,0.0
2431,37.0,60.0,60.0,0.0,0.0
2432,51.0,0.0,60.0,0.0,0.0
2433,39.0,60.0,60.0,0.0,0.0
2434,41.0,60.0,60.0,0.0,0.0
2435,53.0,0.0,60.0,0.0,0.0
2436,54.0,60.0,60.0,0.0,0.0
2437,42.0,0.0,60.0,0.0,0.0
2438,44.0,60.0,60.0,0.0,0.0
2439,56.0,0.0,60.0,0.0,0.0
2440,57.0,0.0,60.0,0.0,0.0
2441,45.0,60.0,60.0,0.0,0.0
2442,47.0,60.0,60.0,0.0,0.0
2443,59.0,0.0,60.0,0.0,0.0
2444,49.0,0.0,60.0,0.0,0.0
2445,61.0,60.0,60.0,0.0,0.0
2446,51.0,0.0,60.0,0.0,0.0
2447,63.0,60.0,60.0,0.0,0.0
2448,53.0,0.0,60.0,0.0,0.0
2449,65.0,60.0,60.0,0.0,0.0
2450,66.0,0.0,60.0,0.0,0.0
2451,54.0,60.0,60.0,0.0,0.0
2452,68.0,0.0,60.0,0.0,0.0
2453,56.0,60.0,60.0,0.0,0.0
2454,69.0,0.0,60.0,0.0,0.0
2455,57.0,60.0,60.0,0.0,0.0
2456,59.0,60.0,60.0,0.0,0.0
2457,71.0,0.0,60.0,0.0,0.0
2458,73.0,0.0,60.0,0.0,0.0
2459,61.0,60.0,60.0,0.0,0.0
2460,75.0,0.0,60.0,0.0,0.0
2461,63.0,60.0,60.0,0.0,0.0
2462,65.0,60.0,60.0,0.0,0.0
2463,77.0,0.0,60.0,0.0,0.0
2464,78.0,60.0,60.0,0.0,0.0
2465,66.0,0.0,60.0,0.0,0.0
2466,68.0,0.0,60.0,0.0,0.0
2467,80.0,60.0,60.0,0.0,0.0
2468,69.0,0.0,60.0,0.0,0.0
2469,81.0,60.0,60.0,0.0,0.0
2470,83.0,60.0,60.0,0.0,0.0
2471,71.0,0.0,60.0,0.0,0.0
2472,73.0,0.0,60.0,0.0,0.0
2473,85.0,90.0,60.0,0.0,0.0
2474,87.0,0.0,90.0,0.0,0.0
2475,75.0,60.0,90.0,0.0,0.0
2476,89.0,120.0,90.0,0.0,0.0
2477,77.0,30.0,60.0,0.0,0.0
2478,78.0,0.0,120.0,0.0,0.0
2479,90.0,120.0,120.0,0.0,0.0
2480,92.0,120.0,60.0,0.0,0.0
2481,35.0,0.0,120.0,0.0,0.0
2482,23.0,0.0,120.0,0.0,0.0
2483,81.0,0.0,120.0,0.0,0.0
2484,90.0,120.0,120.0,0.0,0.0
2485,87.0,0.0,120.0,0.0,0.0
2486,89.0,0.0,120.0,0.0,0.0
2487,80.0,0.0,120.0,0.0,0.0
2488,86.0,120.0,120.0,0.0,0.0
2489,47.0,120.0,120.0,0.0,0.0
2490,59.0,0.0,120.0,0.0,0.0
2491,81.0,240.0,240.0,0.0,0.0
2492,90.0,0.0,240.0,0.0,0.0
2493,68.0,0.0,240.0,0.0,0.0
2494,63.0,0.0,240.0,0.0,0.0
2495,92.0,0.0,240.0,0.0,0.0
2496,59.0,240.0,240.0,0.0,0.0
2497,71.0,0.0,240.0,0.0,0.0
2498,87.0,0.0,15.0,0.0,0.0
2499,80.0,0.0,240.0,0.0,0.0
2500,88.0,240.0,240.0,0.0,0.0
2501,73.0,0.0,240.0,0.0,0.0
2502,68.0,0.0,240.0,0.0,0.0
2503,80.0,0.0,240.0,0.0,0.0
2504,61.0,0.0,240.0,0.0,0.0
2505,83.0,0.0,240.0,0.0,0.0
2506,64.0,0.0,240.0,0.0,0.0
2507,56.0,0.0,240.0,0.0,0.0
2508,68.0,0.0,240.0,0.0,0.0
2509,76.0,0.0,15.0,0.0,0.0
2510,71.0,0.0,240.0,0.0,0.0
2511,69.0,0.0,120.0,0.0,0.0
2512,64.0,0.0,120.0,0.0,0.0
2513,76.0,120.0,15.0,0.0,0.0
2514,57.0,0.0,120.0,0.0,0.0
2515,85.0,0.0,120.0,0.0,0.0
2516,73.0,300.0,120.0,0.0,0.0
2517,47.0,0.0,480.0,0.0,0.0
2518,51.0,60.0,180.0,0.0,0.0
2519,35.0,0.0,480.0,0.0,0.0
2520,59.0,120.0,480.0,0.0,0.0
2521,57.0,0.0,180.0,0.0,0.0
2522,57.0,0.0,60.0,0.0,0.0
2523,51.0,240.0,60.0,0.0,0.0
2524,51.0,0.0,480.0,0.0,0.0
2525,57.0,120.0,480.0,0.0,0.0
2526,66.0,0.0,480.0,0.0,0.0
2527,35.0,120.0,120.0,0.0,0.0
2528,23.0,0.0,120.0,0.0,0.0
2529,56.0,0.0,240.0,0.0,0.0
2530,52.0,0.0,240.0,0.0,0.0
2531,64.0,630.0,240.0,0.0,0.0
2532,40.0,120.0,120.0,0.0,0.0
2533,28.0,0.0,120.0,0.0,0.0
2534,55.0,0.0,450.0,0.0,0.0
2535,36.0,480.0,450.0,0.0,0.0
2536,60.0,0.0,420.0,0.0,0.0
2537,43.0,0.0,420.0,0.0,0.0
2538,64.0,0.0,390.0,0.0,0.0
2539,48.0,0.0,390.0,0.0,0.0
2540,52.0,0.0,15.0,0.0,0.0
2541,36.0,0.0,450.0,0.0,0.0
2542,55.0,0.0,450.0,0.0,0.0
2543,43.0,0.0,420.0,0.0,0.0
2544,60.0,480.0,420.0,0.0,0.0
2545,48.0,0.0,390.0,0.0,0.0
2546,64.0,0.0,390.0,0.0,0.0
2547,55.0,480.0,450.0,0.0,0.0
2548,36.0,0.0,450.0,0.0,0.0
2549,60.0,0.0,420.0,0.0,0.0
2550,43.0,0.0,420.0,0.0,0.0
2551,64.0,0.0,390.0,0.0,0.0
2552,48.0,0.0,390.0,0.0,0.0
2553,52.0,0.0,15.0,0.0,0.0
2554,55.0,0.0,450.0,0.0,0.0
2555,36.0,0.0,450.0,0.0,0.0
2556,60.0,0.0,420.0,0.0,0.0
2557,43.0,0.0,420.0,0.0,0.0
2558,64.0,0.0,390.0,0.0,0.0
2559,48.0,0.0,390.0,0.0,0.0
2560,52.0,480.0,15.0,0.0,0.0
2561,55.0,0.0,450.0,0.0,0.0
2562,36.0,570.0,450.0,0.0,0.0
2563,60.0,0.0,420.0,0.0,0.0
2564,43.0,0.0,420.0,0.0,0.0
2565,64.0,0.0,390.0,0.0,0.0
2566,48.0,0.0,390.0,0.0,0.0
2567,52.0,0.0,15.0,0.0,0.0
2568,36.0,0.0,540.0,0.0,0.0
2569,64.0,0.0,15.0,0.0,0.0
2570,60.0,0.0,15.0,0.0,0.0
2571,55.0,0.0,15.0,0.0,0.0
2572,52.0,0.0,15.0,0.0,0.0
2573,48.0,0.0,15.0,0.0,0.0
2574,43.0,60.0,15.0,0.0,0.0
2575,36.0,0.0,60.0,0.0,0.0
2576,47.0,120.0,60.0,0.0,0.0
2577,35.0,0.0,60.0,0.0,0.0
2578,45.0,120.0,60.0,0.0,0.0
2579,33.0,0.0,60.0,0.0,0.0
2580,31.0,0.0,60.0,0.0,0.0
2581,43.0,120.0,60.0,0.0,0.0
2582,36.0,120.0,60.0,0.0,0.0
2583,48.0,0.0,60.0,0.0,0.0
2584,35.0,120.0,60.0,0.0,0.0
2585,47.0,0.0,60.0,0.0,0.0
2586,33.0,0.0,60.0,0.0,0.0
2587,45.0,120.0,60.0,0.0,0.0
2588,43.0,0.0,60.0,0.0,0.0
2589,31.0,120.0,60.0,0.0,0.0
2590,36.0,120.0,60.0,0.0,0.0
2591,48.0,0.0,60.0,0.0,0.0
2592,35.0,120.0,60.0,0.0,0.0
2593,47.0,0.0,60.0,0.0,0.0
2594,33.0,0.0,60.0,0.0,0.0
2595,45.0,120.0,60.0,0.0,0.0
2596,31.0,120.0,60.0,0.0,0.0
2597,43.0,0.0,60.0,0.0,0.0
2598,36.0,120.0,60.0,0.0,0.0
2599,48.0,0.0,60.0,0.0,0.0
2600,35.0,120.0,60.0,0.0,0.0
2601,47.0,0.0,60.0,0.0,0.0
2602,33.0,120.0,60.0,0.0,0.0
2603,45.0,0.0,60.0,0.0,0.0
2604,31.0,120.0,60.0,0.0,0.0
2605,43.0,0.0,60.0,0.0,0.0
2606,36.0,120.0,60.0,0.0,0.0
2607,48.0,0.0,60.0,0.0,0.0
2608,35.0,120.0,60.0,0.0,0.0
2609,47.0,0.0,60.0,0.0,0.0
2610,33.0,120.0,60.0,0.0,0.0
2611,45.0,0.0,60.0,0.0,0.0
2612,31.0,120.0,60.0,0.0,0.0
2613,43.0,0.0,60.0,0.0,0.0
2614,48.0,120.0,60.0,0.0,0.0
2615,36.0,0.0,60.0,0.0,0.0
2616,35.0,120.0,60.0,0.0,0.0
2617,47.0,0.0,60.0,0.0,0.0
2618,45.0,120.0,60.0,0.0,0.0
2619,33.0,0.0,60.0,0.0,0.0
2620,43.0,120.0,60.0,0.0,0.0
2621,31.0,0.0,60.0,0.0,0.0
2622,36.0,120.0,60.0,0.0,0.0
2623,52.0,0.0,960.0,0.0,0.0
2624,48.0,0.0,60.0,0.0,0.0
2625,47.0,0.0,60.0,0.0,0.0
2626,35.0,120.0,60.0,0.0,0.0
2627,33.0,120.0,60.0,0.0,0.0
2628,45.0,0.0,60.0,0.0,0.0
2629,31.0,120.0,60.0,0.0,0.0
2630,43.0,0.0,60.0,0.0,0.0
2631,36.0,120.0,60.0,0.0,0.0
2632,48.0,0.0,60.0,0.0,0.0
2633,47.0,120.0,60.0,0.0,0.0
2634,35.0,0.0,60.0,0.0,0.0
2635,33.0,0.0,60.0,0.0,0.0
2636,45.0,120.0,60.0,0.0,0.0
2637,43.0,0.0,60.0,0.0,0.0
2638,31.0,60.0,60.0,0.0,0.0
2639,48.0,120.0,60.0,0.0,0.0
2640,36.0,0.0,60.0,0.0,0.0
2641,55.0,60.0,15.0,0.0,0.0
2642,47.0,0.0,60.0,0.0,0.0
2643,35.0,120.0,60.0,0.0,0.0
2644,33.0,60.0,60.0,0.0,0.0
2645,45.0,0.0,60.0,0.0,0.0
2646,43.0,0.0,60.0,0.0,0.0
2647,31.0,60.0,60.0,0.0,0.0
2648,53.0,60.0,15.0,0.0,0.0
2649,55.0,0.0,15.0,0.0,0.0
2650,36.0,120.0,60.0,0.0,0.0
2651,48.0,0.0,60.0,0.0,0.0
2652,47.0,0.0,60.0,0.0,0.0
2653,35.0,120.0,60.0,0.0,0.0
2654,33.0,60.0,60.0,0.0,0.0
2655,45.0,0.0,60.0,0.0,0.0
2656,60.0,0.0,120.0,0.0,0.0
2657,52.0,0.0,15.0,0.0,0.0
2658,43.0,60.0,60.0,0.0,0.0
2659,31.0,0.0,60.0,0.0,0.0
2660,48.0,120.0,60.0,0.0,0.0
2661,52.0,60.0,480.0,0.0,0.0
2662,55.0,0.0,480.0,0.0,0.0
2663,64.0,0.0,480.0,0.0,0.0
2664,36.0,0.0,60.0,0.0,0.0
2665,35.0,120.0,60.0,0.0,0.0
2666,47.0,0.0,60.0,0.0,0.0
2667,33.0,120.0,60.0,0.0,0.0
2668,45.0,0.0,60.0,0.0,0.0
2669,43.0,0.0,60.0,0.0,0.0
2670,31.0,60.0,60.0,0.0,0.0
2671,36.0,120.0,60.0,0.0,0.0
2672,48.0,0.0,60.0,0.0,0.0
2673,62.0,0.0,480.0,0.0,0.0
2674,53.0,60.0,480.0,0.0,0.0
2675,47.0,120.0,60.0,0.0,0.0
2676,35.0,0.0,60.0,0.0,0.0
2677,33.0,120.0,60.0,0.0,0.0
2678,45.0,0.0,60.0,0.0,0.0
2679,31.0,0.0,60.0,0.0,0.0
2680,43.0,60.0,60.0,0.0,0.0
2681,36.0,0.0,60.0,0.0,0.0
2682,48.0,120.0,60.0,0.0,0.0
2683,55.0,0.0,15.0,0.0,0.0
2684,52.0,60.0,360.0,0.0,0.0
2685,47.0,120.0,60.0,0.0,0.0
2686,35.0,0.0,60.0,0.0,0.0
2687,45.0,60.0,60.0,0.0,0.0
2688,33.0,0.0,60.0,0.0,0.0
2689,43.0,60.0,60.0,0.0,0.0
2690,31.0,0.0,60.0,0.0,0.0
2691,52.0,0.0,120.0,0.0,0.0
2692,60.0,60.0,120.0,0.0,0.0
2693,36.0,120.0,60.0,0.0,0.0
2694,48.0,0.0,60.0,0.0,0.0
2695,55.0,0.0,240.0,0.0,0.0
2696,64.0,60.0,240.0,0.0,0.0
2697,52.0,0.0,240.0,0.0,0.0
2698,47.0,0.0,60.0,0.0,0.0
2699,35.0,60.0,60.0,0.0,0.0
2700,45.0,120.0,60.0,0.0,0.0
2701,33.0,0.0,60.0,0.0,0.0
2702,59.0,60.0,120.0,0.0,0.0
2703,53.0,0.0,120.0,0.0,0.0
2704,31.0,0.0,60.0,0.0,0.0
2705,43.0,60.0,60.0,0.0,0.0
2706,36.0,0.0,60.0,0.0,0.0
2707,48.0,120.0,60.0,0.0,0.0
2708,52.0,60.0,240.0,0.0,0.0
2709,35.0,0.0,60.0,0.0,0.0
2710,47.0,60.0,60.0,0.0,0.0
2711,33.0,120.0,60.0,0.0,0.0
2712,45.0,0.0,60.0,0.0,0.0
2713,60.0,0.0,15.0,0.0,0.0
2714,52.0,0.0,240.0,0.0,0.0
2715,43.0,0.0,60.0,0.0,0.0
2716,31.0,60.0,60.0,0.0,0.0
2717,36.0,120.0,60.0,0.0,0.0
2718,64.0,60.0,15.0,0.0,0.0
2719,55.0,0.0,240.0,0.0,0.0
2720,48.0,0.0,60.0,0.0,0.0
2721,67.0,60.0,240.0,0.0,0.0
2722,35.0,60.0,60.0,0.0,0.0
2723,47.0,0.0,60.0,0.0,0.0
2724,57.0,120.0,60.0,0.0,0.0
2725,64.0,0.0,15.0,0.0,0.0
2726,69.0,0.0,60.0,0.0,0.0
2727,33.0,0.0,60.0,0.0,0.0
2728,45.0,0.0,60.0,0.0,0.0
2729,31.0,0.0,60.0,0.0,0.0
2730,43.0,0.0,60.0,0.0,0.0
2731,59.0,0.0,60.0,0.0,0.0
2732,64.0,120.0,60.0,0.0,0.0
2733,71.0,0.0,60.0,0.0,0.0
2734,60.0,0.0,120.0,0.0,0.0
2735,64.0,0.0,120.0,0.0,0.0
2736,72.0,60.0,120.0,0.0,0.0
2737,36.0,0.0,60.0,0.0,0.0
2738,48.0,60.0,60.0,0.0,0.0
2739,35.0,0.0,60.0,0.0,0.0
2740,47.0,120.0,60.0,0.0,0.0
2741,33.0,0.0,60.0,0.0,0.0
2742,67.0,60.0,120.0,0.0,0.0
2743,64.0,0.0,120.0,0.0,0.0
2744,55.0,0.0,120.0,0.0,0.0
2745,45.0,60.0,60.0,0.0,0.0
2746,43.0,0.0,60.0,0.0,0.0
2747,31.0,120.0,60.0,0.0,0.0
2748,36.0,120.0,60.0,0.0,0.0
2749,76.0,0.0,480.0,0.0,0.0
2750,64.0,0.0,480.0,0.0,0.0
2751,48.0,0.0,60.0,0.0,0.0
2752,35.0,120.0,60.0,0.0,0.0
2753,47.0,0.0,60.0,0.0,0.0
2754,33.0,120.0,60.0,0.0,0.0
2755,45.0,0.0,60.0,0.0,0.0
2756,43.0,0.0,60.0,0.0,0.0
2757,31.0,60.0,60.0,0.0,0.0
2758,48.0,0.0,60.0,0.0,0.0
2759,36.0,120.0,60.0,0.0,0.0
2760,67.0,60.0,15.0,0.0,0.0
2761,65.0,60.0,720.0,0.0,0.0
2762,62.0,0.0,720.0,0.0,0.0
2763,55.0,0.0,720.0,0.0,0.0
2764,35.0,120.0,60.0,0.0,0.0
2765,47.0,0.0,60.0,0.0,0.0
2766,33.0,120.0,60.0,0.0,0.0
2767,45.0,0.0,60.0,0.0,0.0
2768,43.0,120.0,60.0,0.0,0.0
2769,31.0,0.0,60.0,0.0,0.0
2770,48.0,120.0,60.0,0.0,0.0
2771,36.0,0.0,60.0,0.0,0.0
2772,35.0,0.0,60.0,0.0,0.0
2773,47.0,60.0,60.0,0.0,0.0
2774,55.0,0.0,60.0,0.0,0.0
2775,65.0,0.0,60.0,0.0,0.0
2776,33.0,0.0,60.0,0.0,0.0
2777,45.0,120.0,60.0,0.0,0.0
2778,67.0,0.0,60.0,0.0,0.0
2779,31.0,0.0,60.0,0.0,0.0
2780,43.0,0.0,60.0,0.0,0.0
2781,55.0,0.0,60.0,0.0,0.0
2782,65.0,120.0,60.0,0.0,0.0
2783,67.0,0.0,60.0,0.0,0.0
2784,65.0,0.0,120.0,0.0,0.0
2785,36.0,60.0,60.0,0.0,0.0
2786,67.0,0.0,120.0,0.0,0.0
2787,48.0,0.0,60.0,0.0,0.0
2788,55.0,60.0,120.0,0.0,0.0
2789,35.0,120.0,60.0,0.0,0.0
2790,47.0,0.0,60.0,0.0,0.0
2791,67.0,0.0,120.0,0.0,0.0
2792,45.0,0.0,60.0,0.0,0.0
2793,65.0,0.0,120.0,0.0,0.0
2794,55.0,60.0,120.0,0.0,0.0
2795,33.0,60.0,60.0,0.0,0.0
2796,43.0,120.0,60.0,0.0,0.0
2797,31.0,0.0,60.0,0.0,0.0
2798,48.0,120.0,60.0,0.0,0.0
2799,36.0,0.0,60.0,0.0,0.0
2800,55.0,0.0,360.0,0.0,0.0
2801,67.0,0.0,360.0,0.0,0.0
2802,35.0,120.0,60.0,0.0,0.0
2803,47.0,0.0,60.0,0.0,0.0
2804,33.0,60.0,60.0,0.0,0.0
2805,45.0,0.0,60.0,0.0,0.0
2806,43.0,0.0,60.0,0.0,0.0
2807,64.0,60.0,15.0,0.0,0.0
2808,31.0,60.0,60.0,0.0,0.0
2809,36.0,120.0,60.0,0.0,0.0
2810,48.0,0.0,60.0,0.0,0.0
2811,72.0,60.0,15.0,0.0,0.0
2812,64.0,60.0,480.0,0.0,0.0
2813,60.0,0.0,15.0,0.0,0.0
2814,47.0,120.0,60.0,0.0,0.0
2815,35.0,0.0,60.0,0.0,0.0
2816,45.0,120.0,60.0,0.0,0.0
2817,33.0,0.0,60.0,0.0,0.0
2818,43.0,0.0,60.0,0.0,0.0
2819,31.0,60.0,60.0,0.0,0.0
2820,36.0,120.0,60.0,0.0,0.0
2821,48.0,0.0,60.0,0.0,0.0
2822,64.0,0.0,480.0,0.0,0.0
2823,60.0,60.0,480.0,0.0,0.0
2824,35.0,120.0,60.0,0.0,0.0
2825,47.0,0.0,60.0,0.0,0.0
2826,33.0,120.0,60.0,0.0,0.0
2827,45.0,0.0,60.0,0.0,0.0
2828,43.0,60.0,60.0,0.0,0.0
2829,31.0,0.0,60.0,0.0,0.0
2830,62.0,60.0,720.0,0.0,0.0
2831,55.0,0.0,15.0,0.0,0.0
2832,53.0,60.0,240.0,0.0,0.0
2833,48.0,120.0,60.0,0.0,0.0
2834,36.0,0.0,60.0,0.0,0.0
2835,35.0,60.0,60.0,0.0,0.0
2836,47.0,0.0,60.0,0.0,0.0
2837,33.0,0.0,60.0,0.0,0.0
2838,53.0,120.0,60.0,0.0,0.0
2839,55.0,0.0,60.0,0.0,0.0
2840,45.0,0.0,60.0,0.0,0.0
2841,43.0,120.0,60.0,0.0,0.0
2842,31.0,0.0,60.0,0.0,0.0
2843,55.0,0.0,60.0,0.0,0.0
2844,53.0,0.0,60.0,0.0,0.0
2845,55.0,60.0,120.0,0.0,0.0
2846,53.0,0.0,120.0,0.0,0.0
2847,48.0,60.0,60.0,0.0,0.0
2848,36.0,0.0,60.0,0.0,0.0
2849,47.0,60.0,60.0,0.0,0.0
2850,35.0,0.0,60.0,0.0,0.0
2851,33.0,0.0,60.0,0.0,0.0
2852,45.0,120.0,60.0,0.0,0.0
2853,62.0,0.0,240.0,0.0,0.0
2854,55.0,60.0,240.0,0.0,0.0
2855,53.0,0.0,240.0,0.0,0.0
2856,31.0,60.0,60.0,0.0,0.0
2857,43.0,0.0,60.0,0.0,0.0
2858,36.0,0.0,60.0,0.0,0.0
2859,48.0,0.0,60.0,0.0,0.0
2860,64.0,120.0,60.0,0.0,0.0
2861,55.0,0.0,60.0,0.0,0.0
2862,53.0,0.0,60.0,0.0,0.0
2863,55.0,120.0,60.0,0.0,0.0
2864,47.0,0.0,60.0,0.0,0.0
2865,35.0,0.0,60.0,0.0,0.0
2866,53.0,0.0,60.0,0.0,0.0
2867,62.0,0.0,60.0,0.0,0.0
2868,55.0,0.0,60.0,0.0,0.0
2869,33.0,0.0,60.0,0.0,0.0
2870,60.0,0.0,60.0,0.0,0.0
2871,45.0,0.0,60.0,0.0,0.0
2872,53.0,120.0,60.0,0.0,0.0
2873,43.0,120.0,60.0,0.0,0.0
2874,62.0,0.0,60.0,0.0,0.0
2875,55.0,0.0,60.0,0.0,0.0
2876,53.0,0.0,60.0,0.0,0.0
2877,31.0,0.0,60.0,0.0,0.0
2878,59.0,0.0,60.0,0.0,0.0
2879,48.0,120.0,60.0,0.0,0.0
2880,52.0,60.0,360.0,0.0,0.0
2881,60.0,60.0,840.0,0.0,0.0
2882,64.0,0.0,840.0,0.0,0.0
2883,36.0,0.0,60.0,0.0,0.0
2884,35.0,0.0,60.0,0.0,0.0
2885,47.0,120.0,60.0,0.0,0.0
2886,45.0,60.0,60.0,0.0,0.0
2887,33.0,0.0,60.0,0.0,0.0
2888,43.0,0.0,60.0,0.0,0.0
2889,31.0,60.0,60.0,0.0,0.0
2890,57.0,60.0,120.0,0.0,0.0
2891,55.0,0.0,960.0,0.0,0.0
2892,36.0,120.0,60.0,0.0,0.0
2893,48.0,0.0,60.0,0.0,0.0
2894,47.0,120.0,60.0,0.0,0.0
2895,35.0,0.0,60.0,0.0,0.0
2896,33.0,0.0,60.0,0.0,0.0
2897,45.0,60.0,60.0,0.0,0.0
2898,43.0,0.0,60.0,0.0,0.0
2899,31.0,60.0,60.0,0.0,0.0
2900,67.0,0.0,15.0,0.0,0.0
2901,48.0,120.0,60.0,0.0,0.0
2902,36.0,0.0,60.0,0.0,0.0
2903,64.0,60.0,15.0,0.0,0.0
2904,47.0,120.0,60.0,0.0,0.0
2905,35.0,0.0,60.0,0.0,0.0
2906,45.0,0.0,60.0,0.0,0.0
2907,33.0,120.0,60.0,0.0,0.0
2908,43.0,60.0,60.0,0.0,0.0
2909,31.0,0.0,60.0,0.0,0.0
2910,55.0,0.0,720.0,0.0,0.0
2911,52.0,60.0,720.0,0.0,0.0
2912,48.0,120.0,60.0,0.0,0.0
2913,36.0,0.0,60.0,0.0,0.0
2914,47.0,120.0,60.0,0.0,0.0
2915,35.0,0.0,60.0,0.0,0.0
2916,45.0,0.0,60.0,0.0,0.0
2917,33.0,120.0,60.0,0.0,0.0
2918,43.0,0.0,60.0,0.0,0.0
2919,31.0,120.0,60.0,0.0,0.0
2920,36.0,0.0,60.0,0.0,0.0
2921,48.0,120.0,60.0,0.0,0.0
2922,35.0,60.0,60.0,0.0,0.0
2923,47.0,0.0,60.0,0.0,0.0
2924,33.0,0.0,60.0,0.0,0.0
2925,45.0,0.0,60.0,0.0,0.0
2926,55.0,120.0,60.0,0.0,0.0
2927,51.0,0.0,60.0,0.0,0.0
2928,52.0,0.0,60.0,0.0,0.0
2929,31.0,0.0,60.0,0.0,0.0
2930,43.0,0.0,60.0,0.0,0.0
2931,55.0,120.0,60.0,0.0,0.0
2932,55.0,60.0,120.0,0.0,0.0
2933,53.0,0.0,120.0,0.0,0.0
2934,48.0,60.0,60.0,0.0,0.0
2935,36.0,0.0,60.0,0.0,0.0
2936,47.0,0.0,60.0,0.0,0.0
2937,35.0,120.0,60.0,0.0,0.0
2938,45.0,120.0,60.0,0.0,0.0
2939,57.0,0.0,60.0,0.0,0.0
2940,53.0,0.0,60.0,0.0,0.0
2941,33.0,0.0,60.0,0.0,0.0
2942,59.0,0.0,60.0,0.0,0.0
2943,43.0,0.0,60.0,0.0,0.0
2944,31.0,0.0,60.0,0.0,0.0
2945,53.0,120.0,60.0,0.0,0.0
2946,48.0,0.0,60.0,0.0,0.0
2947,36.0,120.0,60.0,0.0,0.0
2948,60.0,0.0,360.0,0.0,0.0
2949,47.0,120.0,60.0,0.0,0.0
2950,35.0,0.0,60.0,0.0,0.0
2951,45.0,60.0,60.0,0.0,0.0
2952,33.0,0.0,60.0,0.0,0.0
2953,52.0,60.0,15.0,0.0,0.0
2954,55.0,60.0,120.0,0.0,0.0
2955,43.0,0.0,60.0,0.0,0.0
2956,31.0,60.0,60.0,0.0,0.0
2957,36.0,0.0,60.0,0.0,0.0
2958,48.0,120.0,60.0,0.0,0.0
2959,52.0,60.0,480.0,0.0,0.0
2960,55.0,0.0,480.0,0.0,0.0
2961,64.0,0.0,480.0,0.0,0.0
2962,35.0,120.0,60.0,0.0,0.0
2963,47.0,0.0,60.0,0.0,0.0
2964,33.0,120.0,60.0,0.0,0.0
2965,45.0,0.0,60.0,0.0,0.0
2966,31.0,0.0,60.0,0.0,0.0
2967,43.0,60.0,60.0,0.0,0.0
2968,53.0,60.0,480.0,0.0,0.0
2969,55.0,0.0,480.0,0.0,0.0
2970,48.0,120.0,60.0,0.0,0.0
2971,36.0,0.0,60.0,0.0,0.0
2972,62.0,0.0,480.0,0.0,0.0
2973,47.0,120.0,60.0,0.0,0.0
2974,35.0,0.0,60.0,0.0,0.0
2975,45.0,120.0,60.0,0.0,0.0
2976,33.0,0.0,60.0,0.0,0.0
2977,43.0,0.0,60.0,0.0,0.0
2978,31.0,60.0,60.0,0.0,0.0
2979,36.0,0.0,60.0,0.0,0.0
2980,52.0,60.0,360.0,0.0,0.0
2981,55.0,0.0,360.0,0.0,0.0
2982,48.0,120.0,60.0,0.0,0.0
2983,47.0,120.0,60.0,0.0,0.0
2984,35.0,0.0,60.0,0.0,0.0
2985,33.0,60.0,60.0,0.0,0.0
2986,45.0,0.0,60.0,0.0,0.0
2987,31.0,60.0,60.0,0.0,0.0
2988,43.0,0.0,60.0,0.0,0.0
2989,60.0,0.0,120.0,0.0,0.0
2990,52.0,60.0,120.0,0.0,0.0
2991,48.0,120.0,60.0,0.0,0.0
2992,36.0,0.0,60.0,0.0,0.0
2993,52.0,0.0,240.0,0.0,0.0
2994,64.0,60.0,240.0,0.0,0.0
2995,55.0,0.0,240.0,0.0,0.0
2996,35.0,60.0,60.0,0.0,0.0
2997,47.0,0.0,60.0,0.0,0.0
2998,45.0,120.0,60.0,0.0,0.0
2999,33.0,0.0,60.0,0.0,0.0
3000,53.0,60.0,120.0,0.0,0.0
3001,59.0,0.0,120.0,0.0,0.0
3002,43.0,0.0,60.0,0.0,0.0
3003,31.0,60.0,60.0,0.0,0.0
3004,36.0,120.0,60.0,0.0,0.0
3005,48.0,0.0,60.0,0.0,0.0
3006,52.0,0.0,240.0,0.0,0.0
3007,60.0,60.0,240.0,0.0,0.0
3008,35.0,0.0,60.0,0.0,0.0
3009,47.0,60.0,60.0,0.0,0.0
3010,33.0,120.0,60.0,0.0,0.0
3011,45.0,0.0,60.0,0.0,0.0
3012,52.0,0.0,240.0,0.0,0.0
3013,60.0,60.0,240.0,0.0,0.0
3014,64.0,0.0,240.0,0.0,0.0
3015,31.0,0.0,60.0,0.0,0.0
3016,43.0,60.0,60.0,0.0,0.0
3017,36.0,0.0,60.0,0.0,0.0
3018,55.0,60.0,480.0,0.0,0.0
3019,64.0,0.0,480.0,0.0,0.0
3020,67.0,0.0,480.0,0.0,0.0
3021,48.0,120.0,60.0,0.0,0.0
3022,47.0,0.0,60.0,0.0,0.0
3023,35.0,120.0,60.0,0.0,0.0
3024,33.0,120.0,60.0,0.0,0.0
3025,45.0,0.0,60.0,0.0,0.0
3026,43.0,0.0,60.0,0.0,0.0
3027,31.0,60.0,60.0,0.0,0.0
3028,69.0,0.0,120.0,0.0,0.0
3029,36.0,60.0,60.0,0.0,0.0
3030,57.0,60.0,120.0,0.0,0.0
3031,48.0,0.0,60.0,0.0,0.0
3032,64.0,0.0,15.0,0.0,0.0
3033,59.0,0.0,120.0,0.0,0.0
3034,35.0,0.0,60.0,0.0,0.0
3035,71.0,0.0,120.0,0.0,0.0
3036,47.0,60.0,60.0,0.0,0.0
3037,60.0,0.0,120.0,0.0,0.0
3038,64.0,60.0,15.0,0.0,0.0
3039,72.0,0.0,120.0,0.0,0.0
3040,45.0,60.0,60.0,0.0,0.0
3041,33.0,0.0,60.0,0.0,0.0
3042,74.0,60.0,120.0,0.0,0.0
3043,67.0,0.0,120.0,0.0,0.0
3044,62.0,0.0,120.0,0.0,0.0
3045,31.0,0.0,60.0,0.0,0.0
3046,43.0,60.0,60.0,0.0,0.0
3047,48.0,0.0,60.0,0.0,0.0
3048,36.0,120.0,60.0,0.0,0.0
3049,76.0,60.0,480.0,0.0,0.0
3050,67.0,60.0,360.0,0.0,0.0
3051,64.0,0.0,480.0,0.0,0.0
3052,72.0,0.0,480.0,0.0,0.0
3053,35.0,120.0,60.0,0.0,0.0
3054,47.0,0.0,60.0,0.0,0.0
3055,36.0,60.0,60.0,0.0,0.0
3056,48.0,0.0,60.0,0.0,0.0
3057,34.0,60.0,60.0,0.0,0.0
3058,46.0,0.0,60.0,0.0,0.0
3059,66.0,0.0,840.0,0.0,0.0
3060,63.0,0.0,720.0,0.0,0.0
3061,71.0,60.0,720.0,0.0,0.0
3062,75.0,0.0,720.0,0.0,0.0
3063,35.0,0.0,60.0,0.0,0.0
3064,47.0,120.0,60.0,0.0,0.0
3065,46.0,120.0,60.0,0.0,0.0
3066,34.0,0.0,60.0,0.0,0.0
3067,44.0,0.0,60.0,0.0,0.0
3068,32.0,120.0,60.0,0.0,0.0
3069,30.0,120.0,60.0,0.0,0.0
3070,42.0,0.0,60.0,0.0,0.0
3071,47.0,120.0,60.0,0.0,0.0
3072,35.0,0.0,60.0,0.0,0.0
3073,46.0,0.0,60.0,0.0,0.0
3074,34.0,60.0,60.0,0.0,0.0
3075,54.0,0.0,240.0,0.0,0.0
3076,44.0,120.0,60.0,0.0,0.0
3077,32.0,0.0,60.0,0.0,0.0
3078,66.0,0.0,480.0,0.0,0.0
3079,42.0,0.0,60.0,0.0,0.0
3080,30.0,60.0,60.0,0.0,0.0
3081,71.0,0.0,480.0,0.0,0.0
3082,63.0,60.0,15.0,0.0,0.0
3083,59.0,60.0,240.0,0.0,0.0
3084,47.0,120.0,60.0,0.0,0.0
3085,35.0,0.0,60.0,0.0,0.0
3086,46.0,60.0,60.0,0.0,0.0
3087,34.0,0.0,60.0,0.0,0.0
3088,44.0,120.0,60.0,0.0,0.0
3089,63.0,0.0,240.0,0.0,0.0
3090,75.0,0.0,240.0,0.0,0.0
3091,32.0,0.0,60.0,0.0,0.0
3092,42.0,0.0,60.0,0.0,0.0
3093,30.0,60.0,60.0,0.0,0.0
3094,78.0,60.0,360.0,0.0,0.0
3095,35.0,120.0,60.0,0.0,0.0
3096,47.0,0.0,60.0,0.0,0.0
3097,66.0,60.0,15.0,0.0,0.0
3098,46.0,120.0,60.0,0.0,0.0
3099,34.0,0.0,60.0,0.0,0.0
3100,32.0,0.0,60.0,0.0,0.0
3101,44.0,60.0,60.0,0.0,0.0
3102,75.0,0.0,15.0,0.0,0.0
3103,83.0,60.0,840.0,0.0,0.0
3104,42.0,60.0,60.0,0.0,0.0
3105,30.0,0.0,60.0,0.0,0.0
3106,47.0,0.0,60.0,0.0,0.0
3107,35.0,120.0,60.0,0.0,0.0
3108,75.0,60.0,15.0,0.0,0.0
3109,71.0,0.0,15.0,0.0,0.0
3110,46.0,0.0,60.0,0.0,0.0
3111,34.0,120.0,60.0,0.0,0.0
3112,44.0,0.0,60.0,0.0,0.0
3113,32.0,60.0,60.0,0.0,0.0
3114,30.0,60.0,60.0,0.0,0.0
3115,42.0,0.0,60.0,0.0,0.0
3116,75.0,0.0,15.0,0.0,0.0
3117,71.0,60.0,15.0,0.0,0.0
3118,63.0,60.0,120.0,0.0,0.0
3119,71.0,0.0,15.0,0.0,0.0
3120,35.0,0.0,60.0,0.0,0.0
3121,47.0,120.0,60.0,0.0,0.0
3122,63.0,0.0,240.0,0.0,0.0
3123,46.0,0.0,60.0,0.0,0.0
3124,34.0,60.0,60.0,0.0,0.0
3125,68.0,60.0,120.0,0.0,0.0
3126,75.0,0.0,120.0,0.0,0.0
3127,32.0,0.0,60.0,0.0,0.0
3128,44.0,60.0,60.0,0.0,0.0
3129,80.0,0.0,120.0,0.0,0.0
3130,42.0,0.0,60.0,0.0,0.0
3131,30.0,120.0,60.0,0.0,0.0
3132,78.0,0.0,480.0,0.0,0.0
3133,66.0,60.0,480.0,0.0,0.0
3134,75.0,0.0,480.0,0.0,0.0
3135,35.0,120.0,60.0,0.0,0.0
3136,47.0,0.0,60.0,0.0,0.0
3137,34.0,0.0,60.0,0.0,0.0
3138,46.0,120.0,60.0,0.0,0.0
3139,44.0,0.0,60.0,0.0,0.0
3140,32.0,120.0,60.0,0.0,0.0
3141,30.0,60.0,60.0,0.0,0.0
3142,42.0,0.0,60.0,0.0,0.0
3143,35.0,120.0,60.0,0.0,0.0
3144,47.0,0.0,60.0,0.0,0.0
3145,34.0,120.0,60.0,0.0,0.0
3146,46.0,0.0,60.0,0.0,0.0
3147,66.0,0.0,60.0,0.0,0.0
3148,54.0,0.0,60.0,0.0,0.0
3149,32.0,0.0,60.0,0.0,0.0
3150,44.0,120.0,60.0,0.0,0.0
3151,66.0,0.0,60.0,0.0,0.0
3152,54.0,0.0,60.0,0.0,0.0
3153,42.0,0.0,60.0,0.0,0.0
3154,30.0,120.0,60.0,0.0,0.0
3155,64.0,60.0,120.0,0.0,0.0
3156,66.0,0.0,120.0,0.0,0.0
3157,54.0,0.0,120.0,0.0,0.0
3158,35.0,0.0,60.0,0.0,0.0
3159,47.0,60.0,60.0,0.0,0.0
3160,34.0,120.0,60.0,0.0,0.0
3161,46.0,0.0,60.0,0.0,0.0
3162,61.0,0.0,120.0,0.0,0.0
3163,73.0,60.0,120.0,0.0,0.0
3164,66.0,0.0,120.0,0.0,0.0
3165,64.0,0.0,120.0,0.0,0.0
3166,44.0,0.0,60.0,0.0,0.0
3167,32.0,60.0,60.0,0.0,0.0
3168,42.0,120.0,60.0,0.0,0.0
3169,30.0,0.0,60.0,0.0,0.0
3170,59.0,0.0,120.0,0.0,0.0
3171,63.0,0.0,120.0,0.0,0.0
3172,47.0,60.0,60.0,0.0,0.0
3173,71.0,270.0,120.0,0.0,0.0
3174,35.0,0.0,60.0,0.0,0.0
3175,53.0,0.0,210.0,0.0,0.0
3176,38.0,0.0,210.0,0.0,0.0
3177,55.0,0.0,180.0,0.0,0.0
3178,59.0,0.0,150.0,0.0,0.0
3179,43.0,0.0,180.0,0.0,0.0
3180,47.0,30.0,15.0,0.0,0.0
3181,31.0,210.0,15.0,0.0,0.0
3182,53.0,0.0,210.0,0.0,0.0
3183,55.0,30.0,180.0,0.0,0.0
3184,38.0,0.0,210.0,0.0,0.0
3185,43.0,0.0,180.0,0.0,0.0
3186,59.0,0.0,150.0,0.0,0.0
3187,47.0,0.0,15.0,0.0,0.0
3188,53.0,0.0,210.0,0.0,0.0
3189,31.0,0.0,240.0,0.0,0.0
3190,55.0,30.0,180.0,0.0,0.0
3191,38.0,210.0,210.0,0.0,0.0
3192,59.0,0.0,150.0,0.0,0.0
3193,43.0,0.0,180.0,0.0,0.0
3194,53.0,0.0,210.0,0.0,0.0
3195,38.0,300.0,210.0,0.0,0.0
3196,55.0,30.0,180.0,0.0,0.0
3197,59.0,0.0,150.0,0.0,0.0
3198,43.0,0.0,180.0,0.0,0.0
3199,47.0,0.0,15.0,0.0,0.0
3200,31.0,0.0,15.0,0.0,0.0
3201,53.0,0.0,300.0,0.0,0.0
3202,38.0,0.0,270.0,0.0,0.0
3203,55.0,0.0,270.0,0.0,0.0
3204,43.0,120.0,240.0,0.0,0.0
3205,59.0,0.0,240.0,0.0,0.0
3206,60.0,0.0,120.0,0.0,0.0
3207,52.0,0.0,120.0,0.0,0.0
3208,48.0,0.0,120.0,0.0,0.0
3209,24.0,0.0,120.0,0.0,0.0
3210,36.0,750.0,120.0,0.0,0.0
3211,52.0,0.0,480.0,0.0,0.0
3212,36.0,0.0,450.0,0.0,0.0
3213,55.0,0.0,450.0,0.0,0.0
3214,43.0,0.0,420.0,0.0,0.0
3215,60.0,480.0,420.0,0.0,0.0
3216,64.0,0.0,390.0,0.0,0.0
3217,48.0,0.0,390.0,0.0,0.0
3218,52.0,0.0,480.0,0.0,0.0
3219,36.0,480.0,450.0,0.0,0.0
3220,55.0,0.0,450.0,0.0,0.0
3221,43.0,0.0,420.0,0.0,0.0
3222,60.0,0.0,420.0,0.0,0.0
3223,48.0,0.0,390.0,0.0,0.0
3224,64.0,0.0,390.0,0.0,0.0
3225,55.0,0.0,450.0,0.0,0.0
3226,36.0,0.0,450.0,0.0,0.0
3227,43.0,0.0,420.0,0.0,0.0
3228,60.0,480.0,420.0,0.0,0.0
3229,48.0,0.0,390.0,0.0,0.0
3230,64.0,0.0,390.0,0.0,0.0
3231,52.0,0.0,15.0,0.0,0.0
3232,36.0,0.0,450.0,0.0,0.0
3233,55.0,570.0,450.0,0.0,0.0
3234,43.0,0.0,420.0,0.0,0.0
3235,60.0,0.0,420.0,0.0,0.0
3236,48.0,0.0,390.0,0.0,0.0
3237,64.0,0.0,390.0,0.0,0.0
3238,55.0,0.0,540.0,0.0,0.0
3239,36.0,60.0,540.0,0.0,0.0
3240,43.0,0.0,510.0,0.0,0.0
3241,48.0,0.0,480.0,0.0,0.0
3242,64.0,0.0,15.0,0.0,0.0
3243,60.0,0.0,15.0,0.0,0.0
3244,55.0,0.0,60.0,0.0,0.0
3245,52.0,0.0,15.0,0.0,0.0
3246,36.0,0.0,60.0,0.0,0.0
3247,43.0,0.0,60.0,0.0,0.0
3248,48.0,0.0,60.0,0.0,0.0
3249,47.0,120.0,60.0,0.0,0.0
3250,35.0,0.0,60.0,0.0,0.0
3251,45.0,0.0,60.0,0.0,0.0
3252,33.0,120.0,60.0,0.0,0.0
3253,31.0,0.0,60.0,0.0,0.0
3254,43.0,120.0,60.0,0.0,0.0
3255,48.0,120.0,60.0,0.0,0.0
3256,36.0,0.0,60.0,0.0,0.0
3257,47.0,120.0,60.0,0.0,0.0
3258,35.0,0.0,60.0,0.0,0.0
3259,33.0,120.0,60.0,0.0,0.0
3260,45.0,0.0,60.0,0.0,0.0
3261,43.0,0.0,60.0,0.0,0.0
3262,31.0,120.0,60.0,0.0,0.0
3263,36.0,0.0,60.0,0.0,0.0
3264,48.0,120.0,60.0,0.0,0.0
3265,47.0,120.0,60.0,0.0,0.0
3266,35.0,0.0,60.0,0.0,0.0
3267,33.0,120.0,60.0,0.0,0.0
3268,45.0,0.0,60.0,0.0,0.0
3269,43.0,120.0,60.0,0.0,0.0
3270,31.0,0.0,60.0,0.0,0.0
3271,36.0,0.0,60.0,0.0,0.0
3272,48.0,120.0,60.0,0.0,0.0
3273,47.0,120.0,60.0,0.0,0.0
3274,35.0,0.0,60.0,0.0,0.0
3275,33.0,120.0,60.0,0.0,0.0
3276,45.0,0.0,60.0,0.0,0.0
3277,31.0,120.0,60.0,0.0,0.0
3278,43.0,0.0,60.0,0.0,0.0
3279,36.0,120.0,60.0,0.0,0.0
3280,48.0,0.0,60.0,0.0,0.0
3281,47.0,0.0,60.0,0.0,0.0
3282,35.0,120.0,60.0,0.0,0.0
3283,33.0,0.0,60.0,0.0,0.0
3284,45.0,120.0,60.0,0.0,0.0
3285,31.0,120.0,60.0,0.0,0.0
3286,43.0,0.0,60.0,0.0,0.0
3287,36.0,0.0,60.0,0.0,0.0
3288,48.0,120.0,60.0,0.0,0.0
3289,35.0,120.0,60.0,0.0,0.0
3290,47.0,0.0,60.0,0.0,0.0
3291,45.0,120.0,60.0,0.0,0.0
3292,33.0,0.0,60.0,0.0,0.0
3293,43.0,0.0,60.0,0.0,0.0
3294,31.0,120.0,60.0,0.0,0.0
3295,55.0,0.0,960.0,0.0,0.0
3296,52.0,60.0,960.0,0.0,0.0
3297,36.0,120.0,60.0,0.0,0.0
3298,48.0,0.0,60.0,0.0,0.0
3299,35.0,120.0,60.0,0.0,0.0
3300,47.0,0.0,60.0,0.0,0.0
3301,45.0,0.0,60.0,0.0,0.0
3302,33.0,120.0,60.0,0.0,0.0
3303,43.0,0.0,60.0,0.0,0.0
3304,31.0,120.0,60.0,0.0,0.0
3305,36.0,120.0,60.0,0.0,0.0
3306,48.0,0.0,60.0,0.0,0.0
3307,35.0,120.0,60.0,0.0,0.0
3308,47.0,0.0,60.0,0.0,0.0
3309,33.0,120.0,60.0,0.0,0.0
3310,45.0,0.0,60.0,0.0,0.0
3311,31.0,0.0,60.0,0.0,0.0
3312,43.0,60.0,60.0,0.0,0.0
3313,53.0,0.0,360.0,0.0,0.0
3314,36.0,120.0,60.0,0.0,0.0
3315,48.0,0.0,60.0,0.0,0.0
3316,35.0,120.0,60.0,0.0,0.0
3317,47.0,0.0,60.0,0.0,0.0
3318,33.0,60.0,60.0,0.0,0.0
3319,45.0,0.0,60.0,0.0,0.0
3320,53.0,60.0,120.0,0.0,0.0
3321,55.0,60.0,15.0,0.0,0.0
3322,43.0,60.0,60.0,0.0,0.0
3323,31.0,0.0,60.0,0.0,0.0
3324,52.0,0.0,360.0,0.0,0.0
3325,36.0,120.0,60.0,0.0,0.0
3326,55.0,60.0,360.0,0.0,0.0
3327,48.0,0.0,60.0,0.0,0.0
3328,35.0,120.0,60.0,0.0,0.0
3329,47.0,0.0,60.0,0.0,0.0
3330,33.0,60.0,60.0,0.0,0.0
3331,45.0,0.0,60.0,0.0,0.0
3332,52.0,0.0,120.0,0.0,0.0
3333,60.0,60.0,120.0,0.0,0.0
3334,31.0,60.0,60.0,0.0,0.0
3335,43.0,0.0,60.0,0.0,0.0
3336,64.0,0.0,480.0,0.0,0.0
3337,36.0,0.0,60.0,0.0,0.0
3338,48.0,120.0,60.0,0.0,0.0
3339,52.0,60.0,480.0,0.0,0.0
3340,55.0,0.0,480.0,0.0,0.0
3341,47.0,0.0,60.0,0.0,0.0
3342,35.0,120.0,60.0,0.0,0.0
3343,33.0,0.0,60.0,0.0,0.0
3344,45.0,120.0,60.0,0.0,0.0
3345,31.0,60.0,60.0,0.0,0.0
3346,43.0,0.0,60.0,0.0,0.0
3347,36.0,120.0,60.0,0.0,0.0
3348,48.0,0.0,60.0,0.0,0.0
3349,53.0,60.0,480.0,0.0,0.0
3350,62.0,0.0,480.0,0.0,0.0
3351,55.0,0.0,480.0,0.0,0.0
3352,35.0,0.0,60.0,0.0,0.0
3353,47.0,120.0,60.0,0.0,0.0
3354,45.0,0.0,60.0,0.0,0.0
3355,33.0,120.0,60.0,0.0,0.0
3356,43.0,60.0,60.0,0.0,0.0
3357,31.0,0.0,60.0,0.0,0.0
3358,48.0,120.0,60.0,0.0,0.0
3359,36.0,0.0,60.0,0.0,0.0
3360,55.0,60.0,360.0,0.0,0.0
3361,35.0,120.0,60.0,0.0,0.0
3362,47.0,0.0,60.0,0.0,0.0
3363,45.0,60.0,60.0,0.0,0.0
3364,33.0,0.0,60.0,0.0,0.0
3365,43.0,0.0,60.0,0.0,0.0
3366,31.0,60.0,60.0,0.0,0.0
3367,52.0,0.0,15.0,0.0,0.0
3368,60.0,60.0,120.0,0.0,0.0
3369,36.0,120.0,60.0,0.0,0.0
3370,48.0,0.0,60.0,0.0,0.0
3371,64.0,0.0,240.0,0.0,0.0
3372,55.0,60.0,240.0,0.0,0.0
3373,52.0,0.0,240.0,0.0,0.0
3374,35.0,0.0,60.0,0.0,0.0
3375,47.0,60.0,60.0,0.0,0.0
3376,45.0,120.0,60.0,0.0,0.0
3377,33.0,0.0,60.0,0.0,0.0
3378,59.0,0.0,120.0,0.0,0.0
3379,31.0,60.0,60.0,0.0,0.0
3380,43.0,0.0,60.0,0.0,0.0
3381,53.0,60.0,120.0,0.0,0.0
3382,36.0,0.0,60.0,0.0,0.0
3383,48.0,120.0,60.0,0.0,0.0
3384,35.0,0.0,60.0,0.0,0.0
3385,47.0,60.0,60.0,0.0,0.0
3386,52.0,60.0,15.0,0.0,0.0
3387,60.0,0.0,15.0,0.0,0.0
3388,45.0,0.0,60.0,0.0,0.0
3389,33.0,120.0,60.0,0.0,0.0
3390,31.0,60.0,60.0,0.0,0.0
3391,43.0,0.0,60.0,0.0,0.0
3392,55.0,60.0,240.0,0.0,0.0
3393,64.0,60.0,15.0,0.0,0.0
3394,67.0,0.0,240.0,0.0,0.0
3395,36.0,120.0,60.0,0.0,0.0
3396,48.0,0.0,60.0,0.0,0.0
3397,35.0,0.0,60.0,0.0,0.0
3398,47.0,60.0,60.0,0.0,0.0
3399,33.0,120.0,60.0,0.0,0.0
3400,57.0,0.0,60.0,0.0,0.0
3401,64.0,0.0,60.0,0.0,0.0
3402,69.0,0.0,60.0,0.0,0.0
3403,45.0,0.0,60.0,0.0,0.0
3404,59.0,0.0,60.0,0.0,0.0
3405,64.0,0.0,60.0,0.0,0.0
3406,71.0,120.0,60.0,0.0,0.0
3407,31.0,0.0,60.0,0.0,0.0
3408,43.0,0.0,60.0,0.0,0.0
3409,36.0,60.0,60.0,0.0,0.0
3410,48.0,0.0,60.0,0.0,0.0
3411,72.0,60.0,120.0,0.0,0.0
3412,64.0,0.0,120.0,0.0,0.0
3413,60.0,0.0,120.0,0.0,0.0
3414,35.0,120.0,60.0,0.0,0.0
3415,47.0,0.0,60.0,0.0,0.0
3416,64.0,0.0,120.0,0.0,0.0
3417,67.0,0.0,120.0,0.0,0.0
3418,55.0,60.0,120.0,0.0,0.0
3419,33.0,0.0,60.0,0.0,0.0
3420,45.0,60.0,60.0,0.0,0.0
3421,43.0,0.0,60.0,0.0,0.0
3422,31.0,120.0,60.0,0.0,0.0
3423,48.0,120.0,60.0,0.0,0.0
3424,67.0,0.0,480.0,0.0,0.0
3425,36.0,0.0,60.0,0.0,0.0
3426,76.0,60.0,480.0,0.0,0.0
3427,64.0,0.0,480.0,0.0,0.0
3428,47.0,120.0,60.0,0.0,0.0
3429,35.0,0.0,60.0,0.0,0.0
3430,45.0,120.0,60.0,0.0,0.0
3431,33.0,0.0,60.0,0.0,0.0
3432,31.0,60.0,60.0,0.0,0.0
3433,43.0,0.0,60.0,0.0,0.0
3434,62.0,0.0,720.0,0.0,0.0
3435,65.0,0.0,720.0,0.0,0.0
3436,36.0,120.0,60.0,0.0,0.0
3437,48.0,0.0,60.0,0.0,0.0
3438,35.0,120.0,60.0,0.0,0.0
3439,47.0,0.0,60.0,0.0,0.0
3440,45.0,120.0,60.0,0.0,0.0
3441,33.0,0.0,60.0,0.0,0.0
3442,43.0,0.0,60.0,0.0,0.0
3443,31.0,120.0,60.0,0.0,0.0
3444,36.0,120.0,60.0,0.0,0.0
3445,48.0,0.0,60.0,0.0,0.0
3446,35.0,0.0,60.0,0.0,0.0
3447,47.0,60.0,60.0,0.0,0.0
3448,55.0,0.0,15.0,0.0,0.0
3449,67.0,60.0,15.0,0.0,0.0
3450,65.0,0.0,60.0,0.0,0.0
3451,45.0,0.0,60.0,0.0,0.0
3452,33.0,0.0,60.0,0.0,0.0
3453,55.0,120.0,60.0,0.0,0.0
3454,65.0,0.0,60.0,0.0,0.0
3455,31.0,0.0,60.0,0.0,0.0
3456,43.0,0.0,60.0,0.0,0.0
3457,67.0,0.0,60.0,0.0,0.0
3458,55.0,60.0,120.0,0.0,0.0
3459,67.0,0.0,120.0,0.0,0.0
3460,36.0,60.0,60.0,0.0,0.0
3461,65.0,0.0,120.0,0.0,0.0
3462,48.0,0.0,60.0,0.0,0.0
3463,35.0,120.0,60.0,0.0,0.0
3464,47.0,0.0,60.0,0.0,0.0
3465,65.0,0.0,120.0,0.0,0.0
3466,67.0,60.0,120.0,0.0,0.0
3467,33.0,0.0,60.0,0.0,0.0
3468,45.0,60.0,60.0,0.0,0.0
3469,55.0,0.0,120.0,0.0,0.0
3470,31.0,120.0,60.0,0.0,0.0
3471,43.0,0.0,60.0,0.0,0.0
3472,67.0,0.0,360.0,0.0,0.0
3473,55.0,60.0,360.0,0.0,0.0
3474,64.0,0.0,360.0,0.0,0.0
3475,48.0,120.0,60.0,0.0,0.0
3476,36.0,0.0,60.0,0.0,0.0
3477,35.0,0.0,60.0,0.0,0.0
3478,47.0,120.0,60.0,0.0,0.0
3479,45.0,60.0,60.0,0.0,0.0
3480,33.0,0.0,60.0,0.0,0.0
3481,31.0,60.0,60.0,0.0,0.0
3482,43.0,0.0,60.0,0.0,0.0
3483,36.0,0.0,60.0,0.0,0.0
3484,48.0,120.0,60.0,0.0,0.0
3485,60.0,0.0,15.0,0.0,0.0
3486,72.0,0.0,15.0,0.0,0.0
3487,64.0,60.0,15.0,0.0,0.0
3488,47.0,0.0,60.0,0.0,0.0
3489,35.0,120.0,60.0,0.0,0.0
3490,45.0,120.0,60.0,0.0,0.0
3491,33.0,0.0,60.0,0.0,0.0
3492,43.0,0.0,60.0,0.0,0.0
3493,31.0,60.0,60.0,0.0,0.0
3494,64.0,0.0,15.0,0.0,0.0
3495,60.0,0.0,15.0,0.0,0.0
3496,48.0,120.0,60.0,0.0,0.0
3497,36.0,0.0,60.0,0.0,0.0
3498,55.0,60.0,480.0,0.0,0.0
3499,35.0,120.0,60.0,0.0,0.0
3500,47.0,0.0,60.0,0.0,0.0
3501,33.0,0.0,60.0,0.0,0.0
3502,45.0,120.0,60.0,0.0,0.0
3503,31.0,60.0,60.0,0.0,0.0
3504,43.0,0.0,60.0,0.0,0.0
3505,36.0,120.0,60.0,0.0,0.0
3506,55.0,60.0,240.0,0.0,0.0
3507,62.0,60.0,720.0,0.0,0.0
3508,48.0,0.0,60.0,0.0,0.0
3509,35.0,60.0,60.0,0.0,0.0
3510,47.0,0.0,60.0,0.0,0.0
3511,53.0,0.0,15.0,0.0,0.0
3512,33.0,0.0,60.0,0.0,0.0
3513,45.0,0.0,60.0,0.0,0.0
3514,55.0,120.0,60.0,0.0,0.0
3515,43.0,120.0,60.0,0.0,0.0
3516,31.0,0.0,60.0,0.0,0.0
3517,55.0,0.0,60.0,0.0,0.0
3518,53.0,0.0,60.0,0.0,0.0
3519,55.0,60.0,120.0,0.0,0.0
3520,53.0,0.0,120.0,0.0,0.0
3521,36.0,60.0,60.0,0.0,0.0
3522,48.0,0.0,60.0,0.0,0.0
3523,35.0,0.0,60.0,0.0,0.0
3524,47.0,60.0,60.0,0.0,0.0
3525,33.0,120.0,60.0,0.0,0.0
3526,45.0,0.0,60.0,0.0,0.0
3527,62.0,60.0,240.0,0.0,0.0
3528,43.0,0.0,60.0,0.0,0.0
3529,31.0,60.0,60.0,0.0,0.0
3530,64.0,0.0,60.0,0.0,0.0
3531,55.0,0.0,15.0,0.0,0.0
3532,53.0,0.0,15.0,0.0,0.0
3533,48.0,0.0,60.0,0.0,0.0
3534,36.0,0.0,60.0,0.0,0.0
3535,35.0,0.0,60.0,0.0,0.0
3536,47.0,120.0,60.0,0.0,0.0
3537,55.0,0.0,60.0,0.0,0.0
3538,62.0,0.0,60.0,0.0,0.0
3539,53.0,0.0,60.0,0.0,0.0
3540,45.0,0.0,60.0,0.0,0.0
3541,53.0,0.0,60.0,0.0,0.0
3542,55.0,120.0,60.0,0.0,0.0
3543,33.0,0.0,60.0,0.0,0.0
3544,60.0,0.0,60.0,0.0,0.0
3545,55.0,0.0,60.0,0.0,0.0
3546,59.0,0.0,60.0,0.0,0.0
3547,31.0,0.0,60.0,0.0,0.0
3548,43.0,0.0,60.0,0.0,0.0
3549,53.0,0.0,60.0,0.0,0.0
3550,62.0,120.0,60.0,0.0,0.0
3551,36.0,0.0,60.0,0.0,0.0
3552,48.0,120.0,60.0,0.0,0.0
3553,60.0,60.0,840.0,0.0,0.0
3554,52.0,60.0,360.0,0.0,0.0
3555,47.0,120.0,60.0,0.0,0.0
3556,35.0,0.0,60.0,0.0,0.0
3557,45.0,0.0,60.0,0.0,0.0
3558,33.0,60.0,60.0,0.0,0.0
3559,31.0,60.0,60.0,0.0,0.0
3560,43.0,0.0,60.0,0.0,0.0
3561,57.0,60.0,120.0,0.0,0.0
3562,55.0,60.0,960.0,0.0,0.0
3563,36.0,120.0,60.0,0.0,0.0
3564,48.0,0.0,60.0,0.0,0.0
3565,35.0,120.0,60.0,0.0,0.0
3566,47.0,0.0,60.0,0.0,0.0
3567,33.0,60.0,60.0,0.0,0.0
3568,45.0,0.0,60.0,0.0,0.0
3569,43.0,0.0,60.0,0.0,0.0
3570,64.0,0.0,15.0,0.0,0.0
3571,31.0,60.0,60.0,0.0,0.0
3572,36.0,0.0,60.0,0.0,0.0
3573,48.0,120.0,60.0,0.0,0.0
3574,64.0,60.0,15.0,0.0,0.0
3575,67.0,0.0,15.0,0.0,0.0
3576,35.0,120.0,60.0,0.0,0.0
3577,47.0,0.0,60.0,0.0,0.0
3578,45.0,120.0,60.0,0.0,0.0
3579,33.0,0.0,60.0,0.0,0.0
3580,31.0,60.0,60.0,0.0,0.0
3581,43.0,0.0,60.0,0.0,0.0
3582,55.0,60.0,720.0,0.0,0.0
3583,52.0,0.0,720.0,0.0,0.0
3584,36.0,120.0,60.0,0.0,0.0
3585,48.0,0.0,60.0,0.0,0.0
3586,47.0,0.0,60.0,0.0,0.0
3587,35.0,120.0,60.0,0.0,0.0
3588,45.0,0.0,60.0,0.0,0.0
3589,33.0,120.0,60.0,0.0,0.0
3590,31.0,120.0,60.0,0.0,0.0
3591,43.0,0.0,60.0,0.0,0.0
3592,36.0,0.0,60.0,0.0,0.0
3593,48.0,120.0,60.0,0.0,0.0
3594,35.0,60.0,60.0,0.0,0.0
3595,47.0,0.0,60.0,0.0,0.0
3596,51.0,0.0,60.0,0.0,0.0
3597,55.0,0.0,60.0,0.0,0.0
3598,45.0,0.0,60.0,0.0,0.0
3599,33.0,120.0,60.0,0.0,0.0
3600,55.0,0.0,60.0,0.0,0.0
3601,52.0,0.0,60.0,0.0,0.0
3602,43.0,120.0,60.0,0.0,0.0
3603,31.0,0.0,60.0,0.0,0.0
3604,36.0,60.0,60.0,0.0,0.0
3605,48.0,0.0,60.0,0.0,0.0
3606,53.0,60.0,120.0,0.0,0.0
3607,55.0,0.0,120.0,0.0,0.0
3608,47.0,0.0,60.0,0.0,0.0
3609,35.0,120.0,60.0,0.0,0.0
3610,57.0,0.0,60.0,0.0,0.0
3611,53.0,0.0,60.0,0.0,0.0
3612,33.0,120.0,60.0,0.0,0.0
3613,45.0,0.0,60.0,0.0,0.0
3614,59.0,0.0,60.0,0.0,0.0
3615,31.0,0.0,60.0,0.0,0.0
3616,53.0,120.0,60.0,0.0,0.0
3617,43.0,0.0,60.0,0.0,0.0
3618,60.0,60.0,360.0,0.0,0.0
3619,36.0,120.0,60.0,0.0,0.0
3620,48.0,0.0,60.0,0.0,0.0
3621,35.0,120.0,60.0,0.0,0.0
3622,47.0,0.0,60.0,0.0,0.0
3623,45.0,0.0,60.0,0.0,0.0
3624,33.0,60.0,60.0,0.0,0.0
3625,52.0,0.0,15.0,0.0,0.0
3626,55.0,0.0,120.0,0.0,0.0
3627,43.0,60.0,60.0,0.0,0.0
3628,31.0,0.0,60.0,0.0,0.0
3629,36.0,120.0,60.0,0.0,0.0
3630,48.0,0.0,60.0,0.0,0.0
3631,52.0,0.0,480.0,0.0,0.0
3632,55.0,0.0,480.0,0.0,0.0
3633,64.0,60.0,480.0,0.0,0.0
3634,35.0,120.0,60.0,0.0,0.0
3635,47.0,0.0,60.0,0.0,0.0
3636,33.0,120.0,60.0,0.0,0.0
3637,45.0,0.0,60.0,0.0,0.0
3638,31.0,60.0,60.0,0.0,0.0
3639,43.0,0.0,60.0,0.0,0.0
3640,48.0,120.0,60.0,0.0,0.0
3641,36.0,0.0,60.0,0.0,0.0
3642,53.0,0.0,480.0,0.0,0.0
3643,62.0,0.0,480.0,0.0,0.0
3644,47.0,120.0,60.0,0.0,0.0
3645,35.0,0.0,60.0,0.0,0.0
3646,45.0,120.0,60.0,0.0,0.0
3647,33.0,0.0,60.0,0.0,0.0
3648,43.0,60.0,60.0,0.0,0.0
3649,31.0,0.0,60.0,0.0,0.0
3650,52.0,60.0,360.0,0.0,0.0
3651,55.0,60.0,15.0,0.0,0.0
3652,48.0,0.0,60.0,0.0,0.0
3653,36.0,120.0,60.0,0.0,0.0
3654,35.0,120.0,60.0,0.0,0.0
3655,47.0,0.0,60.0,0.0,0.0
3656,45.0,0.0,60.0,0.0,0.0
3657,33.0,60.0,60.0,0.0,0.0
3658,31.0,60.0,60.0,0.0,0.0
3659,43.0,0.0,60.0,0.0,0.0
3660,60.0,0.0,120.0,0.0,0.0
3661,36.0,120.0,60.0,0.0,0.0
3662,64.0,0.0,240.0,0.0,0.0
3663,55.0,60.0,240.0,0.0,0.0
3664,48.0,0.0,60.0,0.0,0.0
3665,52.0,60.0,15.0,0.0,0.0
3666,35.0,0.0,60.0,0.0,0.0
3667,47.0,60.0,60.0,0.0,0.0
3668,45.0,0.0,60.0,0.0,0.0
3669,33.0,120.0,60.0,0.0,0.0
3670,53.0,60.0,120.0,0.0,0.0
3671,59.0,0.0,120.0,0.0,0.0
3672,31.0,0.0,60.0,0.0,0.0
3673,43.0,60.0,60.0,0.0,0.0
3674,36.0,0.0,60.0,0.0,0.0
3675,48.0,120.0,60.0,0.0,0.0
3676,52.0,0.0,240.0,0.0,0.0
3677,47.0,0.0,60.0,0.0,0.0
3678,35.0,60.0,60.0,0.0,0.0
3679,45.0,120.0,60.0,0.0,0.0
3680,52.0,0.0,240.0,0.0,0.0
3681,60.0,60.0,15.0,0.0,0.0
3682,33.0,0.0,60.0,0.0,0.0
3683,43.0,60.0,60.0,0.0,0.0
3684,31.0,0.0,60.0,0.0,0.0
3685,64.0,60.0,15.0,0.0,0.0
3686,48.0,120.0,60.0,0.0,0.0
3687,36.0,0.0,60.0,0.0,0.0
3688,55.0,0.0,480.0,0.0,0.0
3689,67.0,0.0,480.0,0.0,0.0
3690,47.0,120.0,60.0,0.0,0.0
3691,35.0,0.0,60.0,0.0,0.0
3692,45.0,120.0,60.0,0.0,0.0
3693,33.0,0.0,60.0,0.0,0.0
3694,43.0,60.0,60.0,0.0,0.0
3695,31.0,0.0,60.0,0.0,0.0
3696,57.0,60.0,120.0,0.0,0.0
3697,48.0,60.0,60.0,0.0,0.0
3698,36.0,0.0,60.0,0.0,0.0
3699,64.0,60.0,15.0,0.0,0.0
3700,69.0,0.0,120.0,0.0,0.0
3701,59.0,0.0,120.0,0.0,0.0
3702,64.0,0.0,120.0,0.0,0.0
3703,47.0,0.0,60.0,0.0,0.0
3704,71.0,60.0,120.0,0.0,0.0
3705,35.0,60.0,60.0,0.0,0.0
3706,33.0,0.0,60.0,0.0,0.0
3707,45.0,60.0,60.0,0.0,0.0
3708,60.0,60.0,120.0,0.0,0.0
3709,72.0,0.0,120.0,0.0,0.0
3710,64.0,0.0,120.0,0.0,0.0
3711,31.0,60.0,60.0,0.0,0.0
3712,67.0,0.0,120.0,0.0,0.0
3713,43.0,0.0,60.0,0.0,0.0
3714,62.0,60.0,120.0,0.0,0.0
3715,74.0,0.0,120.0,0.0,0.0
3716,67.0,60.0,360.0,0.0,0.0
3717,36.0,120.0,60.0,0.0,0.0
3718,48.0,0.0,60.0,0.0,0.0
3719,64.0,0.0,480.0,0.0,0.0
3720,72.0,60.0,480.0,0.0,0.0
3721,76.0,0.0,480.0,0.0,0.0
3722,35.0,120.0,60.0,0.0,0.0
3723,47.0,0.0,60.0,0.0,0.0
3724,36.0,60.0,60.0,0.0,0.0
3725,48.0,0.0,60.0,0.0,0.0
3726,34.0,60.0,60.0,0.0,0.0
3727,46.0,0.0,60.0,0.0,0.0
3728,66.0,0.0,840.0,0.0,0.0
3729,75.0,0.0,720.0,0.0,0.0
3730,35.0,120.0,60.0,0.0,0.0
3731,63.0,0.0,720.0,0.0,0.0
3732,71.0,60.0,720.0,0.0,0.0
3733,47.0,0.0,60.0,0.0,0.0
3734,46.0,120.0,60.0,0.0,0.0
3735,34.0,0.0,60.0,0.0,0.0
3736,44.0,0.0,60.0,0.0,0.0
3737,32.0,120.0,60.0,0.0,0.0
3738,30.0,120.0,60.0,0.0,0.0
3739,42.0,0.0,60.0,0.0,0.0
3740,35.0,120.0,60.0,0.0,0.0
3741,47.0,0.0,60.0,0.0,0.0
3742,34.0,60.0,60.0,0.0,0.0
3743,46.0,0.0,60.0,0.0,0.0
3744,44.0,0.0,60.0,0.0,0.0
3745,32.0,120.0,60.0,0.0,0.0
3746,54.0,60.0,240.0,0.0,0.0
3747,30.0,0.0,60.0,0.0,0.0
3748,42.0,60.0,60.0,0.0,0.0
3749,59.0,0.0,240.0,0.0,0.0
3750,63.0,0.0,15.0,0.0,0.0
3751,71.0,0.0,480.0,0.0,0.0
3752,35.0,120.0,60.0,0.0,0.0
3753,47.0,0.0,60.0,0.0,0.0
3754,34.0,0.0,60.0,0.0,0.0
3755,46.0,60.0,60.0,0.0,0.0
3756,66.0,0.0,15.0,0.0,0.0
3757,44.0,120.0,60.0,0.0,0.0
3758,32.0,0.0,60.0,0.0,0.0
3759,63.0,60.0,15.0,0.0,0.0
3760,30.0,60.0,60.0,0.0,0.0
3761,42.0,0.0,60.0,0.0,0.0
3762,35.0,120.0,60.0,0.0,0.0
3763,47.0,0.0,60.0,0.0,0.0
3764,78.0,60.0,360.0,0.0,0.0
3765,75.0,0.0,15.0,0.0,0.0
3766,66.0,0.0,360.0,0.0,0.0
3767,34.0,0.0,60.0,0.0,0.0
3768,46.0,120.0,60.0,0.0,0.0
3769,44.0,0.0,60.0,0.0,0.0
3770,32.0,60.0,60.0,0.0,0.0
3771,30.0,0.0,60.0,0.0,0.0
3772,42.0,60.0,60.0,0.0,0.0
3773,71.0,60.0,120.0,0.0,0.0
3774,75.0,0.0,120.0,0.0,0.0
3775,83.0,0.0,840.0,0.0,0.0
3776,47.0,120.0,60.0,0.0,0.0
3777,35.0,0.0,60.0,0.0,0.0
3778,75.0,0.0,360.0,0.0,0.0
3779,46.0,0.0,60.0,0.0,0.0
3780,34.0,120.0,60.0,0.0,0.0
3781,44.0,60.0,60.0,0.0,0.0
3782,32.0,0.0,60.0,0.0,0.0
3783,42.0,60.0,60.0,0.0,0.0
3784,30.0,0.0,60.0,0.0,0.0
3785,75.0,0.0,360.0,0.0,0.0
3786,63.0,0.0,120.0,0.0,0.0
3787,71.0,60.0,15.0,0.0,0.0
3788,47.0,0.0,60.0,0.0,0.0
3789,35.0,120.0,60.0,0.0,0.0
3790,63.0,60.0,240.0,0.0,0.0
3791,71.0,0.0,240.0,0.0,0.0
3792,46.0,60.0,60.0,0.0,0.0
3793,34.0,0.0,60.0,0.0,0.0
3794,32.0,60.0,60.0,0.0,0.0
3795,44.0,0.0,60.0,0.0,0.0
3796,68.0,60.0,120.0,0.0,0.0
3797,80.0,0.0,120.0,0.0,0.0
3798,75.0,0.0,120.0,0.0,0.0
3799,30.0,120.0,60.0,0.0,0.0
3800,42.0,0.0,60.0,0.0,0.0
3801,35.0,120.0,60.0,0.0,0.0
3802,66.0,0.0,480.0,0.0,0.0
3803,75.0,0.0,480.0,0.0,0.0
3804,78.0,60.0,480.0,0.0,0.0
3805,47.0,0.0,60.0,0.0,0.0
3806,34.0,0.0,60.0,0.0,0.0
3807,46.0,120.0,60.0,0.0,0.0
3808,32.0,120.0,60.0,0.0,0.0
3809,44.0,0.0,60.0,0.0,0.0
3810,30.0,60.0,60.0,0.0,0.0
3811,42.0,0.0,60.0,0.0,0.0
3812,35.0,120.0,60.0,0.0,0.0
3813,47.0,0.0,60.0,0.0,0.0
3814,34.0,120.0,60.0,0.0,0.0
3815,46.0,0.0,60.0,0.0,0.0
3816,44.0,0.0,60.0,0.0,0.0
3817,32.0,0.0,60.0,0.0,0.0
3818,66.0,120.0,60.0,0.0,0.0
3819,54.0,0.0,60.0,0.0,0.0
3820,42.0,0.0,60.0,0.0,0.0
3821,30.0,120.0,60.0,0.0,0.0
3822,66.0,0.0,60.0,0.0,0.0
3823,54.0,0.0,60.0,0.0,0.0
3824,54.0,60.0,120.0,0.0,0.0
3825,66.0,0.0,120.0,0.0,0.0
3826,64.0,0.0,120.0,0.0,0.0
3827,35.0,60.0,60.0,0.0,0.0
3828,47.0,0.0,60.0,0.0,0.0
3829,34.0,120.0,60.0,0.0,0.0
3830,46.0,0.0,60.0,0.0,0.0
3831,66.0,0.0,120.0,0.0,0.0
3832,44.0,0.0,60.0,0.0,0.0
3833,32.0,60.0,60.0,0.0,0.0
3834,61.0,0.0,120.0,0.0,0.0
3835,64.0,60.0,120.0,0.0,0.0
3836,73.0,0.0,120.0,0.0,0.0
3837,30.0,0.0,60.0,0.0,0.0
3838,42.0,120.0,60.0,0.0,0.0
3839,59.0,0.0,120.0,0.0,0.0
3840,63.0,0.0,120.0,0.0,0.0
3841,71.0,180.0,120.0,0.0,0.0
3842,47.0,0.0,60.0,0.0,0.0
3843,35.0,60.0,60.0,0.0,0.0
3844,71.0,0.0,60.0,0.0,0.0
3845,59.0,0.0,60.0,0.0,0.0
3846,47.0,0.0,60.0,0.0,0.0
3847,35.0,120.0,60.0,0.0,0.0
3848,47.0,0.0,60.0,0.0,0.0
3849,35.0,300.0,60.0,0.0,0.0
3850,59.0,0.0,60.0,0.0,0.0
3851,71.0,0.0,60.0,0.0,0.0
3852,59.0,60.0,240.0,0.0,0.0
3853,36.0,0.0,240.0,0.0,0.0
3854,71.0,0.0,240.0,0.0,0.0
3855,48.0,0.0,15.0,0.0,0.0
3856,36.0,0.0,60.0,0.0,0.0
3857,59.0,120.0,60.0,0.0,0.0
3858,71.0,0.0,60.0,0.0,0.0
3859,36.0,0.0,60.0,0.0,0.0
3860,48.0,0.0,60.0,0.0,0.0
3861,59.0,300.0,60.0,0.0,0.0
3862,71.0,0.0,60.0,0.0,0.0
3863,37.0,0.0,240.0,0.0,0.0
3864,71.0,0.0,240.0,0.0,0.0
3865,59.0,60.0,240.0,0.0,0.0
3866,49.0,0.0,240.0,0.0,0.0
3867,37.0,0.0,60.0,0.0,0.0
3868,49.0,0.0,60.0,0.0,0.0
3869,59.0,120.0,60.0,0.0,0.0
3870,71.0,0.0,60.0,0.0,0.0
3871,49.0,0.0,60.0,0.0,0.0
3872,59.0,0.0,60.0,0.0,0.0
3873,71.0,300.0,60.0,0.0,0.0
3874,37.0,0.0,60.0,0.0,0.0
3875,38.0,0.0,240.0,0.0,0.0
3876,50.0,0.0,240.0,0.0,0.0
3877,71.0,240.0,480.0,0.0,0.0
3878,59.0,60.0,15.0,0.0,0.0
3879,57.0,0.0,15.0,0.0,0.0
3880,50.0,120.0,60.0,0.0,0.0
3881,59.0,60.0,60.0,0.0,0.0
3882,50.0,0.0,60.0,0.0,0.0
3883,57.0,0.0,60.0,0.0,0.0
3884,66.0,240.0,480.0,0.0,0.0
3885,59.0,60.0,240.0,0.0,0.0
3886,57.0,0.0,240.0,0.0,0.0
3887,50.0,0.0,15.0,0.0,0.0
3888,57.0,0.0,60.0,0.0,0.0
3889,59.0,0.0,60.0,0.0,0.0
3890,57.0,60.0,60.0,0.0,0.0
3891,50.0,0.0,60.0,0.0,0.0
3892,59.0,0.0,60.0,0.0,0.0
3893,68.0,60.0,240.0,0.0,0.0
3894,47.0,0.0,240.0,0.0,0.0
3895,40.0,0.0,240.0,0.0,0.0
3896,47.0,60.0,60.0,0.0,0.0
3897,52.0,0.0,15.0,0.0,0.0
3898,56.0,0.0,15.0,0.0,0.0
3899,73.0,60.0,120.0,0.0,0.0
3900,62.0,0.0,15.0,0.0,0.0
3901,56.0,60.0,60.0,0.0,0.0
3902,47.0,0.0,60.0,0.0,0.0
3903,52.0,0.0,60.0,0.0,0.0
3904,62.0,0.0,15.0,0.0,0.0
3905,61.0,0.0,240.0,0.0,0.0
3906,71.0,120.0,15.0,0.0,0.0
3907,56.0,0.0,240.0,0.0,0.0
3908,45.0,0.0,240.0,0.0,0.0
3909,69.0,0.0,120.0,0.0,0.0
3910,52.0,60.0,15.0,0.0,0.0
3911,61.0,60.0,60.0,0.0,0.0
3912,69.0,0.0,60.0,0.0,0.0
3913,45.0,60.0,120.0,0.0,0.0
3914,52.0,0.0,120.0,0.0,0.0
3915,57.0,0.0,15.0,0.0,0.0
3916,68.0,60.0,60.0,0.0,0.0
3917,61.0,0.0,60.0,0.0,0.0
3918,61.0,0.0,240.0,0.0,0.0
3919,57.0,240.0,15.0,0.0,0.0
3920,51.0,0.0,240.0,0.0,0.0
3921,45.0,0.0,15.0,0.0,0.0
3922,66.0,0.0,480.0,0.0,0.0
3923,57.0,120.0,15.0,0.0,0.0
3924,51.0,0.0,15.0,0.0,0.0
3925,45.0,0.0,15.0,0.0,0.0
3926,57.0,0.0,15.0,0.0,0.0
3927,61.0,120.0,15.0,0.0,0.0
3928,56.0,0.0,240.0,0.0,0.0
3929,60.0,0.0,240.0,0.0,0.0
3930,51.0,240.0,15.0,0.0,0.0
3931,68.0,0.0,480.0,0.0,0.0
3932,54.0,120.0,15.0,0.0,0.0
3933,51.0,0.0,15.0,0.0,0.0
3934,44.0,0.0,15.0,0.0,0.0
3935,56.0,0.0,120.0,0.0,0.0
3936,51.0,0.0,15.0,0.0,0.0
3937,60.0,120.0,15.0,0.0,0.0
3938,44.0,120.0,120.0,0.0,0.0
3939,54.0,0.0,120.0,0.0,0.0
3940,66.0,120.0,120.0,0.0,0.0
3941,56.0,0.0,15.0,0.0,0.0
3942,61.0,0.0,240.0,0.0,0.0
3943,52.0,0.0,240.0,0.0,0.0
3944,49.0,0.0,15.0,0.0,0.0
3945,64.0,60.0,15.0,0.0,0.0
3946,56.0,0.0,15.0,0.0,0.0
3947,63.0,0.0,60.0,0.0,0.0
3948,56.0,60.0,60.0,0.0,0.0
3949,47.0,240.0,120.0,0.0,0.0
3950,52.0,60.0,15.0,0.0,0.0
3951,61.0,0.0,480.0,0.0,0.0
3952,56.0,120.0,240.0,0.0,0.0
3953,52.0,0.0,15.0,0.0,0.0
3954,46.0,0.0,15.0,0.0,0.0
3955,56.0,0.0,120.0,0.0,0.0
3956,52.0,0.0,15.0,0.0,0.0
3957,46.0,0.0,15.0,0.0,0.0
3958,56.0,0.0,120.0,0.0,0.0
3959,58.0,120.0,15.0,0.0,0.0
3960,51.0,0.0,240.0,0.0,0.0
3961,46.0,0.0,15.0,0.0,0.0
3962,39.0,0.0,240.0,0.0,0.0
3963,58.0,240.0,15.0,0.0,0.0
3964,63.0,60.0,480.0,0.0,0.0
3965,51.0,0.0,120.0,0.0,0.0
3966,55.0,120.0,15.0,0.0,0.0
3967,58.0,0.0,120.0,0.0,0.0
3968,46.0,0.0,15.0,0.0,0.0
3969,39.0,0.0,15.0,0.0,0.0
3970,55.0,0.0,120.0,0.0,0.0
3971,58.0,0.0,120.0,0.0,0.0
3972,51.0,0.0,120.0,0.0,0.0
3973,44.0,120.0,240.0,0.0,0.0
3974,51.0,0.0,240.0,0.0,0.0
3975,59.0,60.0,60.0,0.0,0.0
3976,56.0,0.0,240.0,0.0,0.0
3977,61.0,120.0,60.0,0.0,0.0
3978,59.0,0.0,120.0,0.0,0.0
3979,51.0,0.0,120.0,0.0,0.0
3980,58.0,0.0,120.0,0.0,0.0
3981,55.0,0.0,120.0,0.0,0.0
3982,56.0,0.0,120.0,0.0,0.0
3983,59.0,0.0,120.0,0.0,0.0
3984,44.0,120.0,15.0,0.0,0.0
3985,51.0,60.0,120.0,0.0,0.0
3986,58.0,0.0,240.0,0.0,0.0
3987,61.0,60.0,60.0,0.0,0.0
3988,52.0,120.0,240.0,0.0,0.0
3989,42.0,0.0,240.0,0.0,0.0
3990,63.0,120.0,60.0,0.0,0.0
3991,61.0,0.0,120.0,0.0,0.0
3992,56.0,0.0,120.0,0.0,0.0
3993,59.0,0.0,120.0,0.0,0.0
3994,52.0,120.0,120.0,0.0,0.0
3995,42.0,0.0,15.0,0.0,0.0
3996,58.0,0.0,120.0,0.0,0.0
3997,52.0,0.0,120.0,0.0,0.0
3998,61.0,240.0,120.0,0.0,0.0
3999,35.0,0.0,240.0,0.0,0.0
4000,59.0,0.0,15.0,0.0,0.0
4001,42.0,0.0,15.0,0.0,0.0
4002,47.0,0.0,15.0,0.0,0.0
4003,51.0,120.0,15.0,0.0,0.0
4004,47.0,0.0,15.0,0.0,0.0
4005,35.0,0.0,15.0,0.0,0.0
4006,42.0,0.0,15.0,0.0,0.0
4007,51.0,240.0,120.0,0.0,0.0
4008,59.0,0.0,120.0,0.0,0.0
4009,31.0,0.0,240.0,0.0,0.0
4010,75.0,240.0,480.0,0.0,0.0
4011,63.0,0.0,15.0,0.0,0.0
4012,70.0,0.0,240.0,0.0,0.0
4013,55.0,0.0,120.0,0.0,0.0
4014,43.0,0.0,15.0,0.0,0.0
4015,61.0,0.0,15.0,0.0,0.0
4016,63.0,120.0,15.0,0.0,0.0
4017,51.0,0.0,15.0,0.0,0.0
4018,43.0,0.0,15.0,0.0,0.0
4019,55.0,0.0,120.0,0.0,0.0
4020,63.0,120.0,15.0,0.0,0.0
4021,61.0,0.0,120.0,0.0,0.0
4022,43.0,0.0,15.0,0.0,0.0
4023,63.0,0.0,240.0,0.0,0.0
4024,70.0,240.0,480.0,0.0,0.0
4025,51.0,0.0,15.0,0.0,0.0
4026,55.0,120.0,15.0,0.0,0.0
4027,43.0,0.0,15.0,0.0,0.0
4028,61.0,0.0,15.0,0.0,0.0
4029,63.0,0.0,120.0,0.0,0.0
4030,63.0,0.0,120.0,0.0,0.0
4031,61.0,0.0,120.0,0.0,0.0
4032,51.0,0.0,120.0,0.0,0.0
4033,55.0,0.0,120.0,0.0,0.0
4034,43.0,120.0,15.0,0.0,0.0
4035,60.0,0.0,240.0,0.0,0.0
4036,68.0,0.0,240.0,0.0,0.0
4037,72.0,0.0,480.0,0.0,0.0
4038,66.0,0.0,240.0,0.0,0.0
4039,66.0,120.0,120.0,0.0,0.0
4040,60.0,0.0,120.0,0.0,0.0
4041,51.0,0.0,15.0,0.0,0.0
4042,44.0,120.0,15.0,0.0,0.0
4043,56.0,0.0,15.0,0.0,0.0
4044,51.0,0.0,120.0,0.0,0.0
4045,68.0,0.0,15.0,0.0,0.0
4046,56.0,0.0,120.0,0.0,0.0
4047,66.0,0.0,120.0,0.0,0.0
4048,44.0,0.0,120.0,0.0,0.0
4049,60.0,120.0,15.0,0.0,0.0
4050,75.0,120.0,120.0,0.0,0.0
4051,49.0,0.0,240.0,0.0,0.0
4052,56.0,0.0,240.0,0.0,0.0
4053,68.0,0.0,15.0,0.0,0.0
4054,73.0,0.0,120.0,0.0,0.0
4055,68.0,0.0,15.0,0.0,0.0
4056,61.0,0.0,120.0,0.0,0.0
4057,64.0,60.0,15.0,0.0,0.0
4058,73.0,60.0,60.0,0.0,0.0
4059,56.0,0.0,15.0,0.0,0.0
4060,61.0,0.0,120.0,0.0,0.0
4061,49.0,60.0,15.0,0.0,0.0
4062,71.0,60.0,60.0,0.0,0.0
4063,64.0,0.0,60.0,0.0,0.0
4064,68.0,0.0,60.0,0.0,0.0
4065,64.0,0.0,240.0,0.0,0.0
4066,68.0,0.0,240.0,0.0,0.0
4067,49.0,240.0,15.0,0.0,0.0
4068,56.0,0.0,240.0,0.0,0.0
4069,58.0,0.0,240.0,0.0,0.0
4070,70.0,0.0,480.0,0.0,0.0
4071,49.0,120.0,15.0,0.0,0.0
4072,68.0,120.0,120.0,0.0,0.0
4073,64.0,0.0,120.0,0.0,0.0
4074,61.0,0.0,15.0,0.0,0.0
4075,56.0,0.0,120.0,0.0,0.0
4076,58.0,0.0,120.0,0.0,0.0
4077,49.0,0.0,120.0,0.0,0.0
4078,58.0,0.0,120.0,0.0,0.0
4079,61.0,0.0,15.0,0.0,0.0
4080,68.0,0.0,120.0,0.0,0.0
4081,64.0,0.0,120.0,0.0,0.0
4082,68.0,0.0,240.0,0.0,0.0
4083,72.0,0.0,480.0,0.0,0.0
4084,56.0,240.0,15.0,0.0,0.0
4085,66.0,0.0,15.0,0.0,0.0
4086,60.0,0.0,15.0,0.0,0.0
4087,51.0,120.0,15.0,0.0,0.0
4088,56.0,0.0,15.0,0.0,0.0
4089,68.0,0.0,15.0,0.0,0.0
4090,66.0,0.0,15.0,0.0,0.0
4091,51.0,0.0,120.0,0.0,0.0
4092,56.0,0.0,120.0,0.0,0.0
4093,75.0,120.0,120.0,0.0,0.0
4094,68.0,0.0,15.0,0.0,0.0
4095,52.0,0.0,240.0,0.0,0.0
4096,56.0,0.0,240.0,0.0,0.0
4097,60.0,120.0,15.0,0.0,0.0
4098,61.0,0.0,120.0,0.0,0.0
4099,73.0,0.0,15.0,0.0,0.0
4100,68.0,60.0,15.0,0.0,0.0
4101,64.0,0.0,15.0,0.0,0.0
4102,52.0,60.0,120.0,0.0,0.0
4103,56.0,0.0,120.0,0.0,0.0
4104,52.0,0.0,120.0,0.0,0.0
4105,64.0,0.0,60.0,0.0,0.0
4106,71.0,60.0,60.0,0.0,0.0
4107,68.0,0.0,60.0,0.0,0.0
4108,61.0,120.0,15.0,0.0,0.0
4109,71.0,120.0,120.0,0.0,0.0
4110,56.0,0.0,15.0,0.0,0.0
4111,49.0,0.0,240.0,0.0,0.0
4112,61.0,0.0,15.0,0.0,0.0
4113,56.0,0.0,15.0,0.0,0.0
4114,64.0,0.0,15.0,0.0,0.0
4115,70.0,60.0,15.0,0.0,0.0
4116,49.0,0.0,15.0,0.0,0.0
4117,64.0,0.0,60.0,0.0,0.0
4118,68.0,0.0,60.0,0.0,0.0
4119,61.0,60.0,60.0,0.0,0.0
4120,68.0,120.0,120.0,0.0,0.0
4121,46.0,0.0,240.0,0.0,0.0
4122,52.0,0.0,240.0,0.0,0.0
4123,56.0,120.0,15.0,0.0,0.0
4124,66.0,0.0,120.0,0.0,0.0
4125,61.0,60.0,15.0,0.0,0.0
4126,51.0,0.0,120.0,0.0,0.0
4127,56.0,0.0,120.0,0.0,0.0
4128,58.0,60.0,60.0,0.0,0.0
4129,66.0,0.0,60.0,0.0,0.0
4130,58.0,60.0,60.0,0.0,0.0
4131,61.0,0.0,60.0,0.0,0.0
4132,64.0,0.0,60.0,0.0,0.0
4133,56.0,0.0,120.0,0.0,0.0
4134,49.0,0.0,120.0,0.0,0.0
4135,46.0,60.0,15.0,0.0,0.0
4136,51.0,0.0,120.0,0.0,0.0
4137,46.0,120.0,15.0,0.0,0.0
4138,55.0,240.0,120.0,0.0,0.0
4139,39.0,0.0,120.0,0.0,0.0
4140,58.0,0.0,120.0,0.0,0.0
4141,63.0,0.0,120.0,0.0,0.0
4142,59.0,0.0,120.0,0.0,0.0
4143,44.0,120.0,120.0,0.0,0.0
4144,51.0,0.0,120.0,0.0,0.0
4145,56.0,0.0,15.0,0.0,0.0
4146,53.0,0.0,120.0,0.0,0.0
4147,63.0,0.0,15.0,0.0,0.0
4148,39.0,0.0,15.0,0.0,0.0
4149,47.0,0.0,120.0,0.0,0.0
4150,55.0,0.0,120.0,0.0,0.0
4151,58.0,0.0,120.0,0.0,0.0
4152,63.0,0.0,120.0,0.0,0.0
4153,39.0,0.0,120.0,0.0,0.0
4154,46.0,240.0,120.0,0.0,0.0
4155,51.0,120.0,15.0,0.0,0.0
4156,44.0,0.0,120.0,0.0,0.0
4157,59.0,0.0,120.0,0.0,0.0
4158,56.0,0.0,120.0,0.0,0.0
4159,63.0,0.0,120.0,0.0,0.0
4160,53.0,0.0,120.0,0.0,0.0
4161,56.0,0.0,120.0,0.0,0.0
4162,51.0,0.0,15.0,0.0,0.0
4163,39.0,120.0,15.0,0.0,0.0
4164,47.0,0.0,120.0,0.0,0.0
4165,39.0,0.0,15.0,0.0,0.0
4166,46.0,0.0,120.0,0.0,0.0
4167,51.0,0.0,15.0,0.0,0.0
4168,55.0,480.0,120.0,0.0,0.0
4169,63.0,120.0,15.0,0.0,0.0
4170,58.0,0.0,120.0,0.0,0.0
4171,70.0,120.0,360.0,0.0,0.0
4172,68.0,120.0,120.0,0.0,0.0
4173,58.0,0.0,15.0,0.0,0.0
4174,67.0,120.0,120.0,0.0,0.0
4175,65.0,120.0,120.0,0.0,0.0
4176,56.0,120.0,240.0,0.0,0.0
4177,64.0,120.0,120.0,0.0,0.0
4178,50.0,0.0,240.0,0.0,0.0
4179,65.0,0.0,120.0,0.0,0.0
4180,67.0,120.0,120.0,0.0,0.0
4181,58.0,0.0,15.0,0.0,0.0
4182,46.0,0.0,240.0,0.0,0.0
4183,68.0,120.0,120.0,0.0,0.0
4184,55.0,120.0,240.0,0.0,0.0
4185,51.0,0.0,240.0,0.0,0.0
4186,69.0,120.0,120.0,0.0,0.0
4187,70.0,0.0,120.0,0.0,0.0
4188,46.0,0.0,240.0,0.0,0.0
4189,58.0,120.0,240.0,0.0,0.0
4190,75.0,120.0,120.0,0.0,0.0
4191,72.0,0.0,120.0,0.0,0.0
4192,34.0,0.0,120.0,0.0,0.0
4193,69.0,120.0,120.0,0.0,0.0
4194,70.0,120.0,120.0,0.0,0.0
4195,58.0,0.0,240.0,0.0,0.0
4196,46.0,120.0,240.0,0.0,0.0
4197,74.0,120.0,120.0,0.0,0.0
4198,72.0,0.0,120.0,0.0,0.0
4199,70.0,120.0,120.0,0.0,0.0
4200,56.0,0.0,240.0,0.0,0.0
4201,53.0,0.0,240.0,0.0,0.0
4202,68.0,120.0,120.0,0.0,0.0
4203,58.0,30.0,240.0,0.0,0.0
4204,46.0,0.0,240.0,0.0,0.0
4205,60.0,120.0,120.0,0.0,0.0
4206,62.0,0.0,120.0,0.0,0.0
4207,51.0,0.0,240.0,0.0,0.0
4208,63.0,30.0,30.0,0.0,0.0
4209,55.0,120.0,240.0,0.0,0.0
4210,65.0,60.0,30.0,0.0,0.0
4211,63.0,120.0,60.0,0.0,0.0
4212,62.0,0.0,120.0,0.0,0.0
4213,58.0,0.0,240.0,0.0,0.0
4214,46.0,0.0,240.0,0.0,0.0
4215,63.0,120.0,120.0,0.0,0.0
4216,64.0,120.0,120.0,0.0,0.0
4217,50.0,0.0,240.0,0.0,0.0
4218,53.0,120.0,240.0,0.0,0.0
4219,65.0,120.0,120.0,0.0,0.0
4220,74.0,0.0,120.0,0.0,0.0
4221,72.0,120.0,120.0,0.0,0.0
4222,46.0,0.0,240.0,0.0,0.0
4223,58.0,0.0,240.0,0.0,0.0
4224,70.0,120.0,120.0,0.0,0.0
4225,51.0,0.0,240.0,0.0,0.0
4226,54.0,120.0,240.0,0.0,0.0
4227,69.0,120.0,120.0,0.0,0.0
4228,74.0,0.0,120.0,0.0,0.0
4229,58.0,0.0,480.0,0.0,0.0
4230,75.0,120.0,120.0,0.0,0.0
4231,46.0,0.0,480.0,0.0,0.0
4232,77.0,120.0,120.0,0.0,0.0
4233,80.0,120.0,120.0,0.0,0.0
4234,78.0,120.0,120.0,0.0,0.0
4235,58.0,0.0,240.0,0.0,0.0
4236,46.0,0.0,240.0,0.0,0.0
4237,75.0,120.0,120.0,0.0,0.0
4238,69.0,180.0,120.0,0.0,0.0
4239,53.0,0.0,240.0,0.0,0.0
4240,50.0,180.0,240.0,0.0,0.0
4241,70.0,60.0,180.0,0.0,0.0
4242,72.0,0.0,60.0,0.0,0.0
4243,46.0,0.0,240.0,0.0,0.0
4244,58.0,0.0,240.0,0.0,0.0
4245,70.0,60.0,180.0,0.0,0.0
4246,71.0,180.0,60.0,0.0,0.0
4247,51.0,180.0,240.0,0.0,0.0
4248,54.0,0.0,240.0,0.0,0.0
4249,70.0,60.0,180.0,0.0,0.0
4250,72.0,0.0,60.0,0.0,0.0
4251,70.0,60.0,180.0,0.0,0.0
4252,58.0,0.0,240.0,0.0,0.0
4253,46.0,0.0,240.0,0.0,0.0
4254,71.0,180.0,60.0,0.0,0.0
4255,55.0,180.0,240.0,0.0,0.0
4256,52.0,0.0,240.0,0.0,0.0
4257,70.0,60.0,180.0,0.0,0.0
4258,72.0,0.0,60.0,0.0,0.0
4259,70.0,60.0,180.0,0.0,0.0
4260,46.0,0.0,240.0,0.0,0.0
4261,58.0,0.0,240.0,0.0,0.0
4262,71.0,120.0,60.0,0.0,0.0
4263,70.0,120.0,120.0,0.0,0.0
4264,53.0,0.0,240.0,0.0,0.0
4265,56.0,120.0,240.0,0.0,0.0
4266,68.0,0.0,120.0,0.0,0.0
4267,66.0,120.0,120.0,0.0,0.0
4268,65.0,120.0,120.0,0.0,0.0
4269,64.0,120.0,120.0,0.0,0.0
4270,65.0,120.0,120.0,0.0,0.0
4271,58.0,0.0,15.0,0.0,0.0
4272,46.0,0.0,15.0,0.0,0.0
4273,66.0,120.0,120.0,0.0,0.0
4274,68.0,120.0,120.0,0.0,0.0
4275,51.0,0.0,240.0,0.0,0.0
4276,54.0,0.0,240.0,0.0,0.0
4277,69.0,120.0,120.0,0.0,0.0
4278,70.0,60.0,120.0,0.0,0.0
4279,46.0,60.0,240.0,0.0,0.0
4280,58.0,0.0,240.0,0.0,0.0
4281,75.0,120.0,60.0,0.0,0.0
4282,74.0,60.0,60.0,0.0,0.0
4283,73.0,60.0,60.0,0.0,0.0
4284,34.0,60.0,120.0,0.0,0.0
4285,72.0,120.0,60.0,0.0,0.0
4286,71.0,120.0,60.0,0.0,0.0
4287,46.0,120.0,240.0,0.0,0.0
4288,58.0,0.0,240.0,0.0,0.0
4289,70.0,60.0,60.0,0.0,0.0
4290,69.0,120.0,120.0,0.0,0.0
4291,50.0,0.0,240.0,0.0,0.0
4292,56.0,120.0,240.0,0.0,0.0
4293,68.0,0.0,120.0,0.0,0.0
4294,65.0,120.0,120.0,0.0,0.0
4295,58.0,30.0,240.0,0.0,0.0
4296,46.0,0.0,240.0,0.0,0.0
4297,66.0,0.0,120.0,0.0,0.0
4298,63.0,30.0,30.0,0.0,0.0
4299,51.0,0.0,240.0,0.0,0.0
4300,54.0,120.0,240.0,0.0,0.0
4301,65.0,60.0,30.0,0.0,0.0
4302,63.0,120.0,60.0,0.0,0.0
4303,62.0,0.0,120.0,0.0,0.0
4304,63.0,120.0,120.0,0.0,0.0
4305,46.0,0.0,240.0,0.0,0.0
4306,58.0,120.0,240.0,0.0,0.0
4307,65.0,0.0,120.0,0.0,0.0
4308,51.0,0.0,240.0,0.0,0.0
4309,54.0,120.0,240.0,0.0,0.0
4310,66.0,120.0,120.0,0.0,0.0
4311,78.0,0.0,120.0,0.0,0.0
4312,59.0,0.0,480.0,0.0,0.0
4313,77.0,120.0,120.0,0.0,0.0
4314,75.0,120.0,120.0,0.0,0.0
4315,77.0,120.0,120.0,0.0,0.0
4316,75.0,120.0,120.0,0.0,0.0
4317,46.0,0.0,15.0,0.0,0.0
4318,59.0,0.0,240.0,0.0,0.0
4319,73.0,120.0,120.0,0.0,0.0
4320,71.0,120.0,120.0,0.0,0.0
4321,54.0,0.0,240.0,0.0,0.0
4322,73.0,120.0,120.0,0.0,0.0
4323,51.0,0.0,240.0,0.0,0.0
4324,71.0,120.0,120.0,0.0,0.0
4325,46.0,0.0,240.0,0.0,0.0
4326,59.0,0.0,240.0,0.0,0.0
4327,66.0,120.0,120.0,0.0,0.0
4328,68.0,60.0,120.0,0.0,0.0
4329,53.0,60.0,240.0,0.0,0.0
4330,50.0,0.0,240.0,0.0,0.0
4331,70.0,60.0,60.0,0.0,0.0
4332,58.0,0.0,240.0,0.0,0.0
4333,71.0,60.0,60.0,0.0,0.0
4334,70.0,60.0,60.0,0.0,0.0
4335,71.0,0.0,60.0,0.0,0.0
4336,70.0,60.0,60.0,0.0,0.0
4337,46.0,0.0,240.0,0.0,0.0
4338,71.0,40.0,60.0,0.0,0.0
4339,70.0,40.0,40.0,0.0,0.0
4340,69.0,40.0,40.0,0.0,0.0
4341,70.0,60.0,40.0,0.0,0.0
4342,59.0,0.0,240.0,0.0,0.0
4343,54.0,0.0,240.0,0.0,0.0
4344,51.0,60.0,240.0,0.0,0.0
4345,71.0,60.0,60.0,0.0,0.0
4346,73.0,60.0,60.0,0.0,0.0
4347,71.0,60.0,60.0,0.0,0.0
4348,73.0,0.0,60.0,0.0,0.0
4349,71.0,60.0,60.0,0.0,0.0
4350,45.0,60.0,240.0,0.0,0.0
4351,73.0,40.0,60.0,0.0,0.0
4352,71.0,40.0,40.0,0.0,0.0
4353,70.0,40.0,40.0,0.0,0.0
4354,71.0,0.0,40.0,0.0,0.0
4355,72.0,60.0,60.0,0.0,0.0
4356,51.0,60.0,240.0,0.0,0.0
4357,54.0,0.0,240.0,0.0,0.0
4358,60.0,0.0,240.0,0.0,0.0
4359,73.0,60.0,60.0,0.0,0.0
4360,72.0,60.0,60.0,0.0,0.0
4361,73.0,0.0,60.0,0.0,0.0
4362,72.0,60.0,60.0,0.0,0.0
4363,44.0,120.0,240.0,0.0,0.0
4364,73.0,40.0,60.0,0.0,0.0
4365,72.0,40.0,40.0,0.0,0.0
4366,71.0,40.0,40.0,0.0,0.0
4367,72.0,0.0,40.0,0.0,0.0
4368,73.0,0.0,120.0,0.0,0.0
4369,37.0,120.0,120.0,0.0,0.0
4370,71.0,120.0,120.0,0.0,0.0
4371,69.0,120.0,120.0,0.0,0.0
4372,68.0,120.0,120.0,0.0,0.0
4373,67.0,120.0,120.0,0.0,0.0
4374,68.0,120.0,120.0,0.0,0.0
4375,61.0,0.0,15.0,0.0,0.0
4376,49.0,0.0,15.0,0.0,0.0
4377,69.0,120.0,120.0,0.0,0.0
4378,71.0,0.0,120.0,0.0,0.0
4379,72.0,120.0,120.0,0.0,0.0
4380,54.0,120.0,240.0,0.0,0.0
4381,57.0,0.0,240.0,0.0,0.0
4382,73.0,0.0,120.0,0.0,0.0
4383,78.0,120.0,120.0,0.0,0.0
4384,61.0,0.0,240.0,0.0,0.0
4385,49.0,0.0,240.0,0.0,0.0
4386,77.0,120.0,120.0,0.0,0.0
4387,25.0,120.0,120.0,0.0,0.0
4388,76.0,0.0,120.0,0.0,0.0
4389,75.0,120.0,120.0,0.0,0.0
4390,61.0,0.0,240.0,0.0,0.0
4391,74.0,120.0,120.0,0.0,0.0
4392,49.0,0.0,240.0,0.0,0.0
4393,73.0,120.0,120.0,0.0,0.0
4394,53.0,0.0,240.0,0.0,0.0
4395,59.0,0.0,240.0,0.0,0.0
4396,72.0,120.0,120.0,0.0,0.0
4397,71.0,120.0,120.0,0.0,0.0
4398,61.0,0.0,240.0,0.0,0.0
4399,49.0,30.0,240.0,0.0,0.0
4400,69.0,120.0,120.0,0.0,0.0
4401,68.0,0.0,120.0,0.0,0.0
4402,57.0,120.0,240.0,0.0,0.0
4403,66.0,30.0,30.0,0.0,0.0
4404,54.0,0.0,240.0,0.0,0.0
4405,68.0,60.0,30.0,0.0,0.0
4406,66.0,120.0,60.0,0.0,0.0
4407,65.0,0.0,120.0,0.0,0.0
4408,66.0,120.0,120.0,0.0,0.0
4409,61.0,0.0,240.0,0.0,0.0
4410,49.0,120.0,240.0,0.0,0.0
4411,68.0,0.0,120.0,0.0,0.0
4412,54.0,0.0,240.0,0.0,0.0
4413,57.0,120.0,240.0,0.0,0.0
4414,69.0,120.0,120.0,0.0,0.0
4415,81.0,0.0,120.0,0.0,0.0
4416,49.0,0.0,480.0,0.0,0.0
4417,80.0,120.0,120.0,0.0,0.0
4418,78.0,120.0,120.0,0.0,0.0
4419,80.0,120.0,120.0,0.0,0.0
4420,78.0,0.0,120.0,0.0,0.0
4421,76.0,120.0,120.0,0.0,0.0
4422,49.0,0.0,240.0,0.0,0.0
4423,62.0,120.0,15.0,0.0,0.0
4424,74.0,0.0,120.0,0.0,0.0
4425,54.0,0.0,240.0,0.0,0.0
4426,57.0,120.0,240.0,0.0,0.0
4427,76.0,120.0,120.0,0.0,0.0
4428,74.0,0.0,120.0,0.0,0.0
4429,69.0,120.0,120.0,0.0,0.0
4430,62.0,80.0,240.0,0.0,0.0
4431,49.0,0.0,240.0,0.0,0.0
4432,71.0,0.0,120.0,0.0,0.0
4433,56.0,0.0,240.0,0.0,0.0
4434,53.0,80.0,240.0,0.0,0.0
4435,73.0,80.0,90.0,0.0,0.0
4436,74.0,80.0,90.0,0.0,0.0
4437,73.0,0.0,90.0,0.0,0.0
4438,61.0,0.0,240.0,0.0,0.0
4439,72.0,80.0,90.0,0.0,0.0
4440,49.0,0.0,240.0,0.0,0.0
4441,73.0,80.0,90.0,0.0,0.0
4442,74.0,80.0,90.0,0.0,0.0
4443,73.0,80.0,90.0,0.0,0.0
4444,54.0,0.0,240.0,0.0,0.0
4445,57.0,80.0,240.0,0.0,0.0
4446,74.0,80.0,90.0,0.0,0.0
4447,73.0,0.0,90.0,0.0,0.0
4448,72.0,80.0,90.0,0.0,0.0
4449,49.0,0.0,240.0,0.0,0.0
4450,61.0,80.0,240.0,0.0,0.0
4451,73.0,80.0,90.0,0.0,0.0
4452,74.0,0.0,90.0,0.0,0.0
4453,55.0,0.0,240.0,0.0,0.0
4454,58.0,0.0,240.0,0.0,0.0
4455,73.0,80.0,90.0,0.0,0.0
4456,74.0,80.0,90.0,0.0,0.0
4457,73.0,80.0,90.0,0.0,0.0
4458,61.0,120.0,240.0,0.0,0.0
4459,49.0,0.0,240.0,0.0,0.0
4460,72.0,80.0,90.0,0.0,0.0
4461,73.0,80.0,90.0,0.0,0.0
4462,74.0,0.0,90.0,0.0,0.0
4463,73.0,120.0,120.0,0.0,0.0
4464,59.0,120.0,240.0,0.0,0.0
4465,56.0,0.0,240.0,0.0,0.0
4466,71.0,0.0,120.0,0.0,0.0
4467,61.0,0.0,480.0,0.0,0.0
4468,69.0,120.0,120.0,0.0,0.0
4469,49.0,120.0,480.0,0.0,0.0
4470,68.0,120.0,120.0,0.0,0.0
4471,67.0,120.0,120.0,0.0,0.0
4472,68.0,0.0,120.0,0.0,0.0
4473,69.0,120.0,120.0,0.0,0.0
4474,49.0,0.0,240.0,0.0,0.0
4475,61.0,120.0,240.0,0.0,0.0
4476,71.0,0.0,120.0,0.0,0.0
4477,72.0,120.0,120.0,0.0,0.0
4478,57.0,0.0,240.0,0.0,0.0
4479,54.0,0.0,240.0,0.0,0.0
4480,73.0,60.0,120.0,0.0,0.0
4481,78.0,180.0,60.0,0.0,0.0
4482,49.0,60.0,240.0,0.0,0.0
4483,61.0,0.0,240.0,0.0,0.0
4484,77.0,0.0,60.0,0.0,0.0
4485,76.0,60.0,60.0,0.0,0.0
4486,25.0,60.0,120.0,0.0,0.0
4487,75.0,120.0,60.0,0.0,0.0
4488,74.0,120.0,60.0,0.0,0.0
4489,49.0,120.0,240.0,0.0,0.0
4490,61.0,0.0,240.0,0.0,0.0
4491,73.0,60.0,60.0,0.0,0.0
4492,53.0,0.0,240.0,0.0,0.0
4493,59.0,0.0,240.0,0.0,0.0
4494,72.0,120.0,120.0,0.0,0.0
4495,71.0,120.0,120.0,0.0,0.0
4496,49.0,30.0,240.0,0.0,0.0
4497,61.0,0.0,240.0,0.0,0.0
4498,68.0,120.0,120.0,0.0,0.0
4499,69.0,0.0,120.0,0.0,0.0
4500,66.0,30.0,30.0,0.0,0.0
4501,54.0,0.0,240.0,0.0,0.0
4502,57.0,120.0,240.0,0.0,0.0
4503,68.0,60.0,30.0,0.0,0.0
4504,66.0,120.0,60.0,0.0,0.0
4505,65.0,0.0,120.0,0.0,0.0
4506,66.0,120.0,120.0,0.0,0.0
4507,61.0,0.0,240.0,0.0,0.0
4508,49.0,0.0,240.0,0.0,0.0
4509,69.0,120.0,120.0,0.0,0.0
4510,68.0,0.0,120.0,0.0,0.0
4511,37.0,120.0,120.0,0.0,0.0
4512,66.0,120.0,120.0,0.0,0.0
4513,64.0,120.0,120.0,0.0,0.0
4514,63.0,120.0,120.0,0.0,0.0
4515,62.0,120.0,120.0,0.0,0.0
4516,63.0,120.0,120.0,0.0,0.0
4517,56.0,0.0,15.0,0.0,0.0
4518,44.0,0.0,15.0,0.0,0.0
4519,64.0,120.0,120.0,0.0,0.0
4520,66.0,120.0,120.0,0.0,0.0
4521,52.0,0.0,240.0,0.0,0.0
4522,49.0,0.0,240.0,0.0,0.0
4523,67.0,120.0,120.0,0.0,0.0
4524,68.0,120.0,120.0,0.0,0.0
4525,44.0,0.0,240.0,0.0,0.0
4526,56.0,120.0,240.0,0.0,0.0
4527,73.0,120.0,120.0,0.0,0.0
4528,69.0,0.0,120.0,0.0,0.0
4529,68.0,120.0,120.0,0.0,0.0
4530,35.0,0.0,120.0,0.0,0.0
4531,66.0,120.0,120.0,0.0,0.0
4532,64.0,120.0,120.0,0.0,0.0
4533,63.0,120.0,120.0,0.0,0.0
4534,62.0,120.0,120.0,0.0,0.0
4535,63.0,120.0,120.0,0.0,0.0
4536,44.0,0.0,15.0,0.0,0.0
4537,56.0,0.0,15.0,0.0,0.0
4538,68.0,120.0,120.0,0.0,0.0
4539,67.0,0.0,120.0,0.0,0.0
4540,66.0,120.0,120.0,0.0,0.0
4541,33.0,0.0,120.0,0.0,0.0
4542,64.0,120.0,120.0,0.0,0.0
4543,45.0,0.0,240.0,0.0,0.0
4544,56.0,120.0,240.0,0.0,0.0
4545,63.0,120.0,120.0,0.0,0.0
4546,61.0,0.0,120.0,0.0,0.0
4547,60.0,0.0,120.0,0.0,0.0
4548,32.0,120.0,120.0,0.0,0.0
4549,68.0,120.0,120.0,0.0,0.0
4550,44.0,0.0,480.0,0.0,0.0
4551,66.0,120.0,120.0,0.0,0.0
4552,64.0,120.0,120.0,0.0,0.0
4553,62.0,120.0,120.0,0.0,0.0
4554,63.0,120.0,120.0,0.0,0.0
4555,56.0,0.0,15.0,0.0,0.0
4556,64.0,120.0,120.0,0.0,0.0
4557,44.0,0.0,240.0,0.0,0.0
4558,66.0,120.0,120.0,0.0,0.0
4559,49.0,0.0,240.0,0.0,0.0
4560,67.0,120.0,120.0,0.0,0.0
4561,52.0,0.0,240.0,0.0,0.0
4562,68.0,120.0,120.0,0.0,0.0
4563,44.0,0.0,240.0,0.0,0.0
4564,56.0,120.0,240.0,0.0,0.0
4565,73.0,120.0,120.0,0.0,0.0
4566,69.0,0.0,120.0,0.0,0.0
4567,68.0,120.0,120.0,0.0,0.0
4568,35.0,0.0,120.0,0.0,0.0
4569,66.0,120.0,120.0,0.0,0.0
4570,56.0,0.0,480.0,0.0,0.0
4571,64.0,120.0,120.0,0.0,0.0
4572,63.0,120.0,120.0,0.0,0.0
4573,62.0,120.0,120.0,0.0,0.0
4574,63.0,0.0,120.0,0.0,0.0
4575,44.0,120.0,15.0,0.0,0.0
4576,68.0,120.0,120.0,0.0,0.0
4577,56.0,120.0,240.0,0.0,0.0
4578,67.0,0.0,120.0,0.0,0.0
4579,33.0,120.0,120.0,0.0,0.0
4580,66.0,0.0,120.0,0.0,0.0
4581,64.0,120.0,120.0,0.0,0.0
4582,56.0,0.0,240.0,0.0,0.0
4583,63.0,120.0,120.0,0.0,0.0
4584,45.0,0.0,240.0,0.0,0.0
4585,61.0,120.0,120.0,0.0,0.0
4586,32.0,120.0,120.0,0.0,0.0
4587,60.0,0.0,120.0,0.0,0.0
4588,68.0,120.0,120.0,0.0,0.0
4589,66.0,120.0,120.0,0.0,0.0
4590,44.0,120.0,480.0,0.0,0.0
4591,64.0,120.0,120.0,0.0,0.0
4592,62.0,120.0,120.0,0.0,0.0
4593,63.0,0.0,120.0,0.0,0.0
4594,56.0,0.0,15.0,0.0,0.0
4595,64.0,120.0,120.0,0.0,0.0
4596,44.0,0.0,240.0,0.0,0.0
4597,66.0,0.0,120.0,0.0,0.0
4598,49.0,0.0,240.0,0.0,0.0
4599,67.0,120.0,120.0,0.0,0.0
4600,52.0,120.0,240.0,0.0,0.0
4601,68.0,0.0,120.0,0.0,0.0
4602,71.0,120.0,120.0,0.0,0.0
4603,56.0,0.0,240.0,0.0,0.0
4604,44.0,0.0,240.0,0.0,0.0
4605,69.0,120.0,120.0,0.0,0.0
4606,51.0,0.0,240.0,0.0,0.0
4607,47.0,0.0,240.0,0.0,0.0
4608,68.0,120.0,120.0,0.0,0.0
4609,66.0,120.0,120.0,0.0,0.0
4610,56.0,0.0,480.0,0.0,0.0
4611,44.0,120.0,480.0,0.0,0.0
4612,64.0,120.0,120.0,0.0,0.0
4613,63.0,120.0,120.0,0.0,0.0
4614,62.0,120.0,120.0,0.0,0.0
4615,63.0,0.0,120.0,0.0,0.0
4616,64.0,120.0,120.0,0.0,0.0
4617,44.0,0.0,240.0,0.0,0.0
4618,56.0,0.0,240.0,0.0,0.0
4619,66.0,120.0,120.0,0.0,0.0
4620,45.0,0.0,240.0,0.0,0.0
4621,49.0,120.0,240.0,0.0,0.0
4622,67.0,120.0,120.0,0.0,0.0
4623,68.0,0.0,120.0,0.0,0.0
4624,69.0,120.0,120.0,0.0,0.0
4625,56.0,0.0,240.0,0.0,0.0
4626,44.0,120.0,240.0,0.0,0.0
4627,67.0,0.0,120.0,0.0,0.0
4628,68.0,120.0,120.0,0.0,0.0
4629,48.0,120.0,240.0,0.0,0.0
4630,66.0,0.0,120.0,0.0,0.0
4631,44.0,120.0,480.0,0.0,0.0
4632,56.0,0.0,480.0,0.0,0.0
4633,64.0,120.0,120.0,0.0,0.0
4634,63.0,120.0,120.0,0.0,0.0
4635,62.0,120.0,120.0,0.0,0.0
4636,63.0,0.0,120.0,0.0,0.0
4637,64.0,120.0,120.0,0.0,0.0
4638,44.0,120.0,240.0,0.0,0.0
4639,56.0,0.0,240.0,0.0,0.0
4640,66.0,0.0,120.0,0.0,0.0
4641,49.0,0.0,240.0,0.0,0.0
4642,67.0,120.0,120.0,0.0,0.0
4643,52.0,120.0,240.0,0.0,0.0
4644,68.0,0.0,120.0,0.0,0.0
4645,56.0,0.0,240.0,0.0,0.0
4646,44.0,0.0,240.0,0.0,0.0
4647,71.0,120.0,120.0,0.0,0.0
4648,69.0,120.0,120.0,0.0,0.0
4649,51.0,0.0,240.0,0.0,0.0
4650,47.0,0.0,240.0,0.0,0.0
4651,68.0,120.0,120.0,0.0,0.0
4652,66.0,120.0,120.0,0.0,0.0
4653,44.0,0.0,480.0,0.0,0.0
4654,64.0,120.0,120.0,0.0,0.0
4655,63.0,120.0,120.0,0.0,0.0
4656,62.0,120.0,120.0,0.0,0.0
4657,63.0,0.0,120.0,0.0,0.0
4658,64.0,120.0,120.0,0.0,0.0
4659,44.0,0.0,240.0,0.0,0.0
4660,56.0,120.0,15.0,0.0,0.0
4661,66.0,0.0,120.0,0.0,0.0
4662,49.0,0.0,240.0,0.0,0.0
4663,45.0,120.0,240.0,0.0,0.0
4664,67.0,120.0,120.0,0.0,0.0
4665,68.0,0.0,120.0,0.0,0.0
4666,69.0,120.0,120.0,0.0,0.0
4667,44.0,120.0,480.0,0.0,0.0
4668,56.0,0.0,480.0,0.0,0.0
4669,67.0,120.0,120.0,0.0,0.0
4670,68.0,120.0,120.0,0.0,0.0
4671,48.0,0.0,240.0,0.0,0.0
4672,66.0,0.0,120.0,0.0,0.0
4673,64.0,120.0,120.0,0.0,0.0
4674,63.0,120.0,120.0,0.0,0.0
4675,62.0,120.0,120.0,0.0,0.0
4676,50.0,0.0,120.0,0.0,0.0
4677,63.0,0.0,120.0,0.0,0.0
4678,51.0,120.0,120.0,0.0,0.0
4679,64.0,120.0,120.0,0.0,0.0
4680,52.0,0.0,120.0,0.0,0.0
4681,66.0,0.0,120.0,0.0,0.0
4682,54.0,120.0,120.0,0.0,0.0
4683,64.0,120.0,120.0,0.0,0.0
4684,52.0,0.0,120.0,0.0,0.0
4685,51.0,120.0,120.0,0.0,0.0
4686,63.0,0.0,120.0,0.0,0.0
4687,49.0,0.0,120.0,0.0,0.0
4688,61.0,120.0,120.0,0.0,0.0
4689,48.0,120.0,120.0,0.0,0.0
4690,60.0,0.0,120.0,0.0,0.0
4691,59.0,120.0,120.0,0.0,0.0
4692,47.0,0.0,120.0,0.0,0.0
4693,60.0,0.0,120.0,0.0,0.0
4694,48.0,120.0,120.0,0.0,0.0
4695,61.0,120.0,120.0,0.0,0.0
4696,49.0,0.0,120.0,0.0,0.0
4697,51.0,0.0,120.0,0.0,0.0
4698,63.0,240.0,120.0,0.0,0.0
4699,45.0,0.0,240.0,0.0,0.0
4700,57.0,240.0,240.0,0.0,0.0
4701,63.0,0.0,120.0,0.0,0.0
4702,51.0,0.0,120.0,0.0,0.0
4703,56.0,0.0,240.0,0.0,0.0
4704,44.0,0.0,240.0,0.0,0.0
4705,63.0,0.0,120.0,0.0,0.0
4706,51.0,120.0,120.0,0.0,0.0
4707,55.0,120.0,120.0,0.0,0.0
4708,43.0,0.0,120.0,0.0,0.0
4709,44.0,120.0,120.0,0.0,0.0
4710,56.0,0.0,120.0,0.0,0.0
4711,45.0,0.0,120.0,0.0,0.0
4712,57.0,120.0,120.0,0.0,0.0
4713,47.0,0.0,120.0,0.0,0.0
4714,59.0,120.0,120.0,0.0,0.0
4715,45.0,0.0,120.0,0.0,0.0
4716,57.0,120.0,120.0,0.0,0.0
4717,44.0,120.0,120.0,0.0,0.0
4718,56.0,0.0,120.0,0.0,0.0
4719,42.0,120.0,120.0,0.0,0.0
4720,54.0,0.0,120.0,0.0,0.0
4721,52.0,0.0,120.0,0.0,0.0
4722,40.0,240.0,120.0,0.0,0.0
4723,51.0,120.0,360.0,0.0,0.0
4724,39.0,0.0,360.0,0.0,0.0
4725,56.0,0.0,120.0,0.0,0.0
4726,44.0,120.0,120.0,0.0,0.0
4727,42.0,0.0,120.0,0.0,0.0
4728,54.0,0.0,120.0,0.0,0.0
4729,38.0,240.0,120.0,0.0,0.0
4730,50.0,0.0,120.0,0.0,0.0
4731,49.0,120.0,360.0,0.0,0.0
4732,37.0,0.0,360.0,0.0,0.0
4733,56.0,0.0,120.0,0.0,0.0
4734,44.0,120.0,120.0,0.0,0.0
4735,54.0,0.0,120.0,0.0,0.0
4736,42.0,0.0,120.0,0.0,0.0
4737,36.0,0.0,120.0,0.0,0.0
4738,48.0,240.0,120.0,0.0,0.0
4739,35.0,0.0,360.0,0.0,0.0
4740,47.0,0.0,360.0,0.0,0.0
4741,40.0,0.0,120.0,0.0,0.0
4742,52.0,120.0,120.0,0.0,0.0
4743,39.0,120.0,120.0,0.0,0.0
4744,51.0,0.0,120.0,0.0,0.0
4745,35.0,240.0,120.0,0.0,0.0
4746,47.0,0.0,120.0,0.0,0.0
4747,45.0,0.0,360.0,0.0,0.0
4748,39.0,0.0,120.0,0.0,0.0
4749,51.0,120.0,120.0,0.0,0.0
4750,37.0,120.0,120.0,0.0,0.0
4751,49.0,0.0,120.0,0.0,0.0
4752,33.0,0.0,15.0,0.0,0.0
4753,45.0,0.0,120.0,0.0,0.0
4754,44.0,0.0,240.0,0.0,0.0
4755,32.0,0.0,240.0,0.0,0.0
4756,47.0,240.0,120.0,0.0,0.0
4757,35.0,0.0,120.0,0.0,0.0
4758,30.0,0.0,240.0,0.0,0.0
4759,42.0,120.0,240.0,0.0,0.0
4760,35.0,0.0,120.0,0.0,0.0
4761,47.0,0.0,120.0,0.0,0.0
4762,40.0,0.0,120.0,0.0,0.0
4763,28.0,240.0,120.0,0.0,0.0
4764,85.0,0.0,360.0,0.0,0.0
4765,73.0,120.0,360.0,0.0,0.0
4766,81.0,0.0,360.0,0.0,0.0
4767,56.0,0.0,240.0,0.0,0.0
4768,47.0,0.0,240.0,0.0,0.0
4769,59.0,0.0,240.0,0.0,0.0
4770,80.0,0.0,120.0,0.0,0.0
4771,71.0,0.0,120.0,0.0,0.0
4772,64.0,0.0,240.0,0.0,0.0
4773,83.0,240.0,15.0,0.0,0.0
4774,71.0,0.0,480.0,0.0,0.0
4775,56.0,0.0,240.0,0.0,0.0
4776,80.0,120.0,480.0,0.0,0.0
4777,52.0,0.0,240.0,0.0,0.0
4778,59.0,48.0,60.0,0.0,0.0
4779,47.0,0.0,60.0,0.0,0.0
4780,35.0,36.0,60.0,0.0,0.0
4781,59.0,12.0,40.0,0.0,0.0
4782,61.0,48.0,40.0,0.0,0.0
4783,59.0,48.0,40.0,0.0,0.0
4784,58.0,48.0,40.0,0.0,0.0
4785,59.0,0.0,40.0,0.0,0.0
4786,64.0,120.0,240.0,0.0,0.0
4787,52.0,120.0,120.0,0.0,0.0
4788,40.0,0.0,120.0,0.0,0.0
4789,80.0,0.0,120.0,0.0,0.0
4790,76.0,120.0,120.0,0.0,0.0
4791,35.0,0.0,240.0,0.0,0.0
4792,23.0,0.0,240.0,0.0,0.0
4793,68.0,0.0,120.0,0.0,0.0
4794,69.0,0.0,120.0,0.0,0.0
4795,78.0,0.0,120.0,0.0,0.0
4796,28.0,0.0,240.0,0.0,0.0
4797,85.0,120.0,120.0,0.0,0.0
4798,40.0,0.0,240.0,0.0,0.0
4799,81.0,120.0,15.0,0.0,0.0
4800,73.0,0.0,120.0,0.0,0.0
4801,71.0,0.0,60.0,0.0,0.0
4802,80.0,120.0,60.0,0.0,0.0
4803,56.0,0.0,240.0,0.0,0.0
4804,59.0,0.0,240.0,0.0,0.0
4805,47.0,0.0,240.0,0.0,0.0
4806,83.0,0.0,15.0,0.0,0.0
4807,80.0,0.0,120.0,0.0,0.0
4808,71.0,120.0,120.0,0.0,0.0
4809,79.0,0.0,120.0,0.0,0.0
4810,70.0,240.0,120.0,0.0,0.0
4811,82.0,0.0,120.0,0.0,0.0
4812,64.0,48.0,240.0,0.0,0.0
4813,56.0,0.0,240.0,0.0,0.0
4814,52.0,0.0,240.0,0.0,0.0
4815,80.0,0.0,480.0,0.0,0.0
4816,71.0,120.0,480.0,0.0,0.0
4817,83.0,0.0,480.0,0.0,0.0
4818,47.0,0.0,60.0,0.0,0.0
4819,35.0,36.0,60.0,0.0,0.0
4820,59.0,0.0,15.0,0.0,0.0
4821,61.0,48.0,40.0,0.0,0.0
4822,59.0,48.0,40.0,0.0,0.0
4823,58.0,48.0,40.0,0.0,0.0
4824,59.0,0.0,40.0,0.0,0.0
4825,64.0,120.0,240.0,0.0,0.0
4826,40.0,120.0,120.0,0.0,0.0
4827,52.0,0.0,120.0,0.0,0.0
4828,68.0,0.0,120.0,0.0,0.0
4829,80.0,120.0,120.0,0.0,0.0
4830,76.0,0.0,120.0,0.0,0.0
4831,23.0,0.0,240.0,0.0,0.0
4832,35.0,0.0,240.0,0.0,0.0
4833,69.0,0.0,120.0,0.0,0.0
4834,78.0,120.0,120.0,0.0,0.0
4835,28.0,120.0,240.0,0.0,0.0
4836,40.0,0.0,240.0,0.0,0.0
4837,73.0,0.0,120.0,0.0,0.0
4838,81.0,0.0,15.0,0.0,0.0
4839,85.0,120.0,120.0,0.0,0.0
4840,71.0,0.0,240.0,0.0,0.0
4841,80.0,120.0,240.0,0.0,0.0
4842,83.0,0.0,120.0,0.0,0.0
4843,85.0,0.0,60.0,0.0,0.0
4844,47.0,0.0,240.0,0.0,0.0
4845,83.0,0.0,120.0,0.0,0.0
4846,59.0,0.0,240.0,0.0,0.0
4847,70.0,0.0,120.0,0.0,0.0
4848,82.0,0.0,120.0,0.0,0.0
4849,79.0,0.0,120.0,0.0,0.0
4850,73.0,0.0,120.0,0.0,0.0
4851,85.0,120.0,120.0,0.0,0.0
4852,81.0,0.0,120.0,0.0,0.0
4853,64.0,0.0,240.0,0.0,0.0
4854,52.0,0.0,240.0,0.0,0.0
4855,56.0,120.0,15.0,0.0,0.0
4856,80.0,120.0,240.0,0.0,0.0
4857,71.0,0.0,240.0,0.0,0.0
4858,85.0,0.0,60.0,0.0,0.0
4859,47.0,0.0,120.0,0.0,0.0
4860,83.0,120.0,15.0,0.0,0.0
4861,35.0,0.0,120.0,0.0,0.0
4862,70.0,0.0,120.0,0.0,0.0
4863,79.0,0.0,120.0,0.0,0.0
4864,82.0,120.0,120.0,0.0,0.0
4865,71.0,0.0,180.0,0.0,0.0
4866,80.0,0.0,180.0,0.0,0.0
4867,52.0,0.0,120.0,0.0,0.0
4868,83.0,210.0,180.0,0.0,0.0
4869,40.0,60.0,120.0,0.0,0.0
4870,35.0,30.0,210.0,0.0,0.0
4871,71.0,0.0,240.0,0.0,0.0
4872,78.0,0.0,210.0,0.0,0.0
4873,42.0,0.0,180.0,0.0,0.0
4874,86.0,210.0,180.0,0.0,0.0
4875,50.0,0.0,150.0,0.0,0.0
4876,37.0,30.0,240.0,0.0,0.0
4877,71.0,0.0,240.0,0.0,0.0
4878,44.0,150.0,300.0,0.0,0.0
4879,47.0,0.0,180.0,0.0,0.0
4880,77.0,0.0,210.0,0.0,0.0
4881,85.0,60.0,180.0,0.0,0.0
4882,53.0,0.0,150.0,0.0,0.0
4883,68.0,0.0,270.0,0.0,0.0
4884,49.0,0.0,240.0,0.0,0.0
4885,56.0,30.0,210.0,0.0,0.0
4886,71.0,0.0,240.0,0.0,0.0
4887,59.0,0.0,180.0,0.0,0.0
4888,73.0,0.0,210.0,0.0,0.0
4889,80.0,240.0,180.0,0.0,0.0
4890,65.0,0.0,150.0,0.0,0.0
4891,42.0,0.0,300.0,0.0,0.0
4892,66.0,0.0,240.0,0.0,0.0
4893,49.0,0.0,270.0,0.0,0.0
4894,73.0,0.0,210.0,0.0,0.0
4895,57.0,80.0,240.0,0.0,0.0
4896,81.0,60.0,180.0,0.0,0.0
4897,50.0,0.0,240.0,0.0,0.0
4898,38.0,0.0,240.0,0.0,0.0
4899,74.0,80.0,90.0,0.0,0.0
4900,62.0,80.0,90.0,0.0,0.0
4901,74.0,240.0,90.0,0.0,0.0
4902,61.0,240.0,240.0,0.0,0.0
4903,73.0,0.0,240.0,0.0,0.0
4904,37.0,0.0,240.0,0.0,0.0
4905,49.0,0.0,240.0,0.0,0.0
4906,69.0,0.0,240.0,0.0,0.0
4907,57.0,0.0,240.0,0.0,0.0
4908,33.0,120.0,240.0,0.0,0.0
4909,45.0,0.0,240.0,0.0,0.0
4910,86.0,0.0,360.0,0.0,0.0
4911,83.0,0.0,360.0,0.0,0.0
4912,74.0,120.0,360.0,0.0,0.0
4913,30.0,240.0,120.0,0.0,0.0
4914,42.0,0.0,120.0,0.0,0.0
4915,61.0,0.0,240.0,0.0,0.0
4916,49.0,0.0,240.0,0.0,0.0
4917,57.0,0.0,240.0,0.0,0.0
4918,73.0,0.0,120.0,0.0,0.0
4919,81.0,0.0,120.0,0.0,0.0
4920,73.0,120.0,480.0,0.0,0.0
4921,81.0,0.0,480.0,0.0,0.0
4922,85.0,240.0,15.0,0.0,0.0
4923,66.0,48.0,240.0,0.0,0.0
4924,54.0,0.0,240.0,0.0,0.0
4925,57.0,0.0,240.0,0.0,0.0
4926,61.0,0.0,15.0,0.0,0.0
4927,49.0,0.0,60.0,0.0,0.0
4928,37.0,36.0,60.0,0.0,0.0
4929,62.0,48.0,40.0,0.0,0.0
4930,61.0,48.0,40.0,0.0,0.0
4931,60.0,48.0,40.0,0.0,0.0
4932,61.0,0.0,40.0,0.0,0.0
4933,54.0,120.0,120.0,0.0,0.0
4934,42.0,0.0,120.0,0.0,0.0
4935,66.0,120.0,240.0,0.0,0.0
4936,78.0,120.0,120.0,0.0,0.0
4937,81.0,0.0,120.0,0.0,0.0
4938,69.0,0.0,120.0,0.0,0.0
4939,37.0,120.0,240.0,0.0,0.0
4940,25.0,0.0,240.0,0.0,0.0
4941,80.0,0.0,120.0,0.0,0.0
4942,83.0,0.0,120.0,0.0,0.0
4943,71.0,0.0,120.0,0.0,0.0
4944,30.0,0.0,240.0,0.0,0.0
4945,86.0,0.0,120.0,0.0,0.0
4946,74.0,0.0,120.0,0.0,0.0
4947,83.0,120.0,120.0,0.0,0.0
4948,42.0,120.0,240.0,0.0,0.0
4949,81.0,0.0,60.0,0.0,0.0
4950,49.0,0.0,240.0,0.0,0.0
4951,85.0,0.0,15.0,0.0,0.0
4952,73.0,0.0,15.0,0.0,0.0
4953,81.0,0.0,120.0,0.0,0.0
4954,57.0,0.0,240.0,0.0,0.0
4955,61.0,0.0,240.0,0.0,0.0
4956,80.0,0.0,120.0,0.0,0.0
4957,84.0,240.0,120.0,0.0,0.0
4958,72.0,0.0,120.0,0.0,0.0
4959,73.0,120.0,480.0,0.0,0.0
4960,81.0,0.0,480.0,0.0,0.0
4961,85.0,0.0,480.0,0.0,0.0
4962,66.0,0.0,240.0,0.0,0.0
4963,57.0,0.0,240.0,0.0,0.0
4964,54.0,48.0,240.0,0.0,0.0
4965,61.0,0.0,60.0,0.0,0.0
4966,37.0,36.0,60.0,0.0,0.0
4967,49.0,0.0,60.0,0.0,0.0
4968,61.0,12.0,40.0,0.0,0.0
4969,62.0,48.0,40.0,0.0,0.0
4970,61.0,48.0,40.0,0.0,0.0
4971,60.0,48.0,40.0,0.0,0.0
4972,61.0,0.0,40.0,0.0,0.0
4973,54.0,120.0,120.0,0.0,0.0
4974,66.0,120.0,240.0,0.0,0.0
4975,42.0,0.0,120.0,0.0,0.0
4976,75.0,120.0,120.0,0.0,0.0
4977,87.0,0.0,120.0,0.0,0.0
4978,81.0,0.0,120.0,0.0,0.0
4979,30.0,0.0,240.0,0.0,0.0
4980,42.0,120.0,240.0,0.0,0.0
4981,76.0,0.0,120.0,0.0,0.0
4982,88.0,0.0,120.0,0.0,0.0
4983,35.0,0.0,120.0,0.0,0.0
4984,23.0,120.0,120.0,0.0,0.0
4985,80.0,0.0,120.0,0.0,0.0
4986,92.0,0.0,120.0,0.0,0.0
4987,87.0,0.0,120.0,0.0,0.0
4988,83.0,120.0,120.0,0.0,0.0
4989,59.0,0.0,240.0,0.0,0.0
4990,68.0,120.0,120.0,0.0,0.0
4991,63.0,0.0,240.0,0.0,0.0
4992,57.0,0.0,240.0,0.0,0.0
4993,92.0,0.0,120.0,0.0,0.0
4994,80.0,0.0,120.0,0.0,0.0
4995,66.0,120.0,120.0,0.0,0.0
4996,90.0,0.0,60.0,0.0,0.0
4997,47.0,0.0,120.0,0.0,0.0
4998,78.0,0.0,15.0,0.0,0.0
4999,90.0,0.0,120.0,0.0,0.0
5000,83.0,120.0,120.0,0.0,0.0
5001,80.0,0.0,120.0,0.0,0.0
5002,90.0,0.0,120.0,0.0,0.0
5003,56.0,0.0,240.0,0.0,0.0
5004,78.0,0.0,120.0,0.0,0.0
5005,59.0,0.0,240.0,0.0,0.0
5006,66.0,120.0,120.0,0.0,0.0
5007,64.0,0.0,120.0,0.0,0.0
5008,88.0,120.0,60.0,0.0,0.0
5009,47.0,120.0,120.0,0.0,0.0
5010,76.0,0.0,15.0,0.0,0.0
5011,88.0,0.0,120.0,0.0,0.0
5012,78.0,0.0,120.0,0.0,0.0
5013,83.0,120.0,120.0,0.0,0.0
5014,64.0,120.0,120.0,0.0,0.0
5015,54.0,0.0,240.0,0.0,0.0
5016,59.0,0.0,240.0,0.0,0.0
5017,88.0,0.0,120.0,0.0,0.0
5018,76.0,0.0,120.0,0.0,0.0
5019,63.0,0.0,120.0,0.0,0.0
5020,87.0,0.0,60.0,0.0,0.0
5021,42.0,120.0,120.0,0.0,0.0
5022,75.0,120.0,15.0,0.0,0.0
5023,87.0,0.0,120.0,0.0,0.0
5024,78.0,0.0,120.0,0.0,0.0
5025,82.0,120.0,120.0,0.0,0.0
5026,75.0,0.0,120.0,0.0,0.0
5027,87.0,120.0,120.0,0.0,0.0
5028,58.0,120.0,240.0,0.0,0.0
5029,52.0,0.0,240.0,0.0,0.0
5030,54.0,0.0,240.0,0.0,0.0
5031,63.0,0.0,120.0,0.0,0.0
5032,61.0,0.0,120.0,0.0,0.0
5033,85.0,0.0,60.0,0.0,0.0
5034,73.0,0.0,15.0,0.0,0.0
5035,85.0,120.0,120.0,0.0,0.0
5036,47.0,0.0,120.0,0.0,0.0
5037,75.0,120.0,120.0,0.0,0.0
5038,78.0,0.0,120.0,0.0,0.0
5039,54.0,0.0,240.0,0.0,0.0
5040,51.0,0.0,240.0,0.0,0.0
5041,61.0,0.0,120.0,0.0,0.0
5042,85.0,120.0,120.0,0.0,0.0
5043,73.0,0.0,120.0,0.0,0.0
5044,59.0,0.0,120.0,0.0,0.0
5045,71.0,0.0,60.0,0.0,0.0
5046,83.0,120.0,60.0,0.0,0.0
5047,69.0,120.0,120.0,0.0,0.0
5048,81.0,0.0,120.0,0.0,0.0
5049,49.0,0.0,480.0,0.0,0.0
5050,37.0,0.0,240.0,0.0,0.0
5051,76.0,0.0,120.0,0.0,0.0
5052,73.0,120.0,120.0,0.0,0.0
5053,57.0,0.0,120.0,0.0,0.0
5054,52.0,0.0,240.0,0.0,0.0
5055,81.0,120.0,120.0,0.0,0.0
5056,69.0,0.0,120.0,0.0,0.0
5057,56.0,240.0,120.0,0.0,0.0
5058,68.0,0.0,60.0,0.0,0.0
5059,80.0,0.0,60.0,0.0,0.0
5060,45.0,0.0,240.0,0.0,0.0
5061,33.0,240.0,240.0,0.0,0.0
5062,61.0,0.0,480.0,0.0,0.0
5063,49.0,0.0,240.0,0.0,0.0
5064,54.0,60.0,240.0,0.0,0.0
5065,63.0,60.0,60.0,0.0,0.0
5066,44.0,0.0,240.0,0.0,0.0
5067,32.0,0.0,240.0,0.0,0.0
5068,64.0,60.0,60.0,0.0,0.0
5069,63.0,60.0,60.0,0.0,0.0
5070,64.0,120.0,60.0,0.0,0.0
5071,48.0,0.0,240.0,0.0,0.0
5072,56.0,0.0,240.0,0.0,0.0
5073,54.0,60.0,240.0,0.0,0.0
5074,61.0,120.0,120.0,0.0,0.0
5075,63.0,0.0,120.0,0.0,0.0
5076,25.0,0.0,240.0,0.0,0.0
5077,64.0,60.0,60.0,0.0,0.0
5078,37.0,0.0,240.0,0.0,0.0
5079,66.0,60.0,60.0,0.0,0.0
5080,64.0,60.0,60.0,0.0,0.0
5081,66.0,120.0,60.0,0.0,0.0
5082,52.0,120.0,240.0,0.0,0.0
5083,56.0,0.0,240.0,0.0,0.0
5084,49.0,0.0,240.0,0.0,0.0
5085,63.0,120.0,120.0,0.0,0.0
5086,64.0,0.0,120.0,0.0,0.0
5087,63.0,0.0,240.0,0.0,0.0
5088,65.0,0.0,120.0,0.0,0.0
5089,35.0,0.0,120.0,0.0,0.0
5090,47.0,120.0,120.0,0.0,0.0
5091,66.0,0.0,120.0,0.0,0.0
5092,57.0,120.0,15.0,0.0,0.0
5093,68.0,120.0,120.0,0.0,0.0
5094,54.0,0.0,240.0,0.0,0.0
5095,63.0,0.0,240.0,0.0,0.0
5096,69.0,0.0,120.0,0.0,0.0
5097,52.0,0.0,240.0,0.0,0.0
5098,47.0,240.0,15.0,0.0,0.0
5099,68.0,180.0,240.0,0.0,0.0
5100,56.0,0.0,240.0,0.0,0.0
5101,40.0,0.0,240.0,0.0,0.0
5102,64.0,0.0,15.0,0.0,0.0
5103,58.0,0.0,180.0,0.0,0.0
5104,55.0,0.0,180.0,0.0,0.0
5105,73.0,0.0,180.0,0.0,0.0
5106,61.0,60.0,180.0,0.0,0.0
5107,59.0,0.0,60.0,0.0,0.0
5108,56.0,0.0,60.0,0.0,0.0
5109,71.0,0.0,15.0,0.0,0.0
5110,56.0,0.0,120.0,0.0,0.0
5111,64.0,120.0,15.0,0.0,0.0
5112,59.0,0.0,120.0,0.0,0.0
5113,64.0,240.0,15.0,0.0,0.0
5114,52.0,240.0,240.0,0.0,0.0
5115,40.0,0.0,240.0,0.0,0.0
5116,76.0,0.0,120.0,0.0,0.0
5117,63.0,0.0,60.0,0.0,0.0
5118,75.0,0.0,60.0,0.0,0.0
5119,45.0,240.0,240.0,0.0,0.0
5120,33.0,0.0,240.0,0.0,0.0
5121,73.0,120.0,480.0,0.0,0.0
5122,61.0,0.0,480.0,0.0,0.0
5123,54.0,0.0,240.0,0.0,0.0
5124,49.0,0.0,240.0,0.0,0.0
5125,44.0,0.0,240.0,0.0,0.0
5126,63.0,40.0,120.0,0.0,0.0
5127,32.0,0.0,240.0,0.0,0.0
5128,75.0,40.0,40.0,0.0,0.0
5129,76.0,40.0,40.0,0.0,0.0
5130,75.0,120.0,40.0,0.0,0.0
5131,54.0,0.0,240.0,0.0,0.0
5132,56.0,120.0,240.0,0.0,0.0
5133,61.0,0.0,120.0,0.0,0.0
5134,60.0,0.0,240.0,0.0,0.0
5135,73.0,120.0,120.0,0.0,0.0
5136,75.0,0.0,120.0,0.0,0.0
5137,63.0,0.0,120.0,0.0,0.0
5138,64.0,40.0,120.0,0.0,0.0
5139,25.0,120.0,240.0,0.0,0.0
5140,37.0,0.0,240.0,0.0,0.0
5141,76.0,40.0,40.0,0.0,0.0
5142,78.0,40.0,40.0,0.0,0.0
5143,76.0,0.0,40.0,0.0,0.0
5144,52.0,0.0,240.0,0.0,0.0
5145,63.0,120.0,120.0,0.0,0.0
5146,61.0,0.0,240.0,0.0,0.0
5147,75.0,0.0,120.0,0.0,0.0
5148,49.0,0.0,240.0,0.0,0.0
5149,56.0,120.0,240.0,0.0,0.0
5150,64.0,0.0,120.0,0.0,0.0
5151,76.0,0.0,120.0,0.0,0.0
5152,77.0,0.0,120.0,0.0,0.0
5153,71.0,0.0,120.0,0.0,0.0
5154,65.0,0.0,120.0,0.0,0.0
5155,35.0,0.0,120.0,0.0,0.0
5156,47.0,120.0,120.0,0.0,0.0
5157,66.0,0.0,120.0,0.0,0.0
5158,78.0,120.0,120.0,0.0,0.0
5159,63.0,0.0,240.0,0.0,0.0
5160,54.0,0.0,240.0,0.0,0.0
5161,57.0,0.0,240.0,0.0,0.0
5162,75.0,0.0,120.0,0.0,0.0
5163,68.0,120.0,120.0,0.0,0.0
5164,80.0,0.0,120.0,0.0,0.0
5165,69.0,0.0,120.0,0.0,0.0
5166,81.0,120.0,120.0,0.0,0.0
5167,59.0,0.0,15.0,0.0,0.0
5168,52.0,0.0,120.0,0.0,0.0
5169,64.0,0.0,120.0,0.0,0.0
5170,80.0,300.0,120.0,0.0,0.0
5171,76.0,0.0,120.0,0.0,0.0
5172,68.0,0.0,120.0,0.0,0.0
5173,73.0,0.0,180.0,0.0,0.0
5174,64.0,0.0,180.0,0.0,0.0
5175,55.0,0.0,180.0,0.0,0.0
5176,85.0,60.0,180.0,0.0,0.0
5177,67.0,0.0,180.0,0.0,0.0
5178,58.0,0.0,180.0,0.0,0.0
5179,76.0,0.0,180.0,0.0,0.0
5180,64.0,0.0,60.0,0.0,0.0
5181,68.0,0.0,60.0,0.0,0.0
5182,56.0,0.0,60.0,0.0,0.0
5183,59.0,0.0,60.0,0.0,0.0
5184,83.0,0.0,60.0,0.0,0.0
5185,76.0,0.0,60.0,0.0,0.0
5186,71.0,120.0,60.0,0.0,0.0
5187,76.0,0.0,120.0,0.0,0.0
5188,64.0,0.0,120.0,0.0,0.0
5189,68.0,0.0,120.0,0.0,0.0
5190,56.0,0.0,120.0,0.0,0.0
5191,59.0,0.0,120.0,0.0,0.0
5192,83.0,0.0,120.0,0.0,0.0
5193,71.0,120.0,120.0,0.0,0.0
5194,49.0,60.0,270.0,0.0,0.0
5195,56.0,0.0,240.0,0.0,0.0
5196,71.0,180.0,60.0,0.0,0.0
5197,83.0,0.0,60.0,0.0,0.0
5198,59.0,0.0,210.0,0.0,0.0
5199,81.0,0.0,180.0,0.0,0.0
5200,77.0,0.0,180.0,0.0,0.0
5201,69.0,0.0,180.0,0.0,0.0
5202,65.0,0.0,180.0,0.0,0.0
5203,68.0,120.0,60.0,0.0,0.0
5204,80.0,0.0,60.0,0.0,0.0
5205,42.0,0.0,240.0,0.0,0.0
5206,49.0,0.0,210.0,0.0,0.0
5207,57.0,240.0,180.0,0.0,0.0
5208,66.0,0.0,120.0,0.0,0.0
5209,78.0,60.0,120.0,0.0,0.0
5210,47.0,60.0,240.0,0.0,0.0
5211,54.0,0.0,210.0,0.0,0.0
5212,78.0,0.0,180.0,0.0,0.0
5213,74.0,0.0,180.0,0.0,0.0
5214,66.0,0.0,180.0,0.0,0.0
5215,62.0,0.0,180.0,0.0,0.0
5216,80.0,180.0,60.0,0.0,0.0
5217,68.0,0.0,60.0,0.0,0.0
5218,42.0,0.0,240.0,0.0,0.0
5219,49.0,0.0,210.0,0.0,0.0
5220,81.0,0.0,240.0,0.0,0.0
5221,57.0,60.0,180.0,0.0,0.0
5222,73.0,180.0,240.0,0.0,0.0
5223,35.0,60.0,240.0,0.0,0.0
5224,42.0,0.0,210.0,0.0,0.0
5225,69.0,0.0,15.0,0.0,0.0
5226,71.0,0.0,180.0,0.0,0.0
5227,74.0,0.0,180.0,0.0,0.0
5228,50.0,0.0,180.0,0.0,0.0
5229,81.0,0.0,180.0,0.0,0.0
5230,30.0,60.0,240.0,0.0,0.0
5231,80.0,180.0,60.0,0.0,0.0
5232,68.0,0.0,60.0,0.0,0.0
5233,37.0,0.0,210.0,0.0,0.0
5234,66.0,0.0,240.0,0.0,0.0
5235,78.0,180.0,240.0,0.0,0.0
5236,45.0,0.0,180.0,0.0,0.0
5237,73.0,0.0,240.0,0.0,0.0
5238,35.0,0.0,240.0,0.0,0.0
5239,42.0,0.0,210.0,0.0,0.0
5240,76.0,0.0,180.0,0.0,0.0
5241,64.0,0.0,180.0,0.0,0.0
5242,71.0,0.0,180.0,0.0,0.0
5243,66.0,60.0,180.0,0.0,0.0
5244,50.0,0.0,180.0,0.0,0.0
5245,42.0,0.0,240.0,0.0,0.0
5246,74.0,0.0,60.0,0.0,0.0
5247,62.0,120.0,60.0,0.0,0.0
5248,49.0,0.0,210.0,0.0,0.0
5249,73.0,0.0,120.0,0.0,0.0
5250,61.0,60.0,120.0,0.0,0.0
5251,69.0,0.0,120.0,0.0,0.0
5252,57.0,120.0,180.0,0.0,0.0
5253,29.0,60.0,60.0,0.0,0.0
5254,41.0,0.0,60.0,0.0,0.0
5255,42.0,60.0,60.0,0.0,0.0
5256,30.0,0.0,60.0,0.0,0.0
5257,44.0,60.0,60.0,0.0,0.0
5258,32.0,0.0,60.0,0.0,0.0
5259,33.0,60.0,60.0,0.0,0.0
5260,45.0,0.0,60.0,0.0,0.0
5261,35.0,60.0,60.0,0.0,0.0
5262,47.0,0.0,60.0,0.0,0.0
5263,49.0,0.0,60.0,0.0,0.0
5264,37.0,60.0,60.0,0.0,0.0
5265,39.0,0.0,60.0,0.0,0.0
5266,51.0,60.0,60.0,0.0,0.0
5267,41.0,60.0,60.0,0.0,0.0
5268,53.0,0.0,60.0,0.0,0.0
5269,54.0,0.0,60.0,0.0,0.0
5270,42.0,60.0,60.0,0.0,0.0
5271,56.0,60.0,60.0,0.0,0.0
5272,44.0,0.0,60.0,0.0,0.0
5273,45.0,0.0,60.0,0.0,0.0
5274,57.0,60.0,60.0,0.0,0.0
5275,59.0,0.0,60.0,0.0,0.0
5276,47.0,60.0,60.0,0.0,0.0
5277,61.0,60.0,60.0,0.0,0.0
5278,49.0,0.0,60.0,0.0,0.0
5279,63.0,0.0,60.0,0.0,0.0
5280,51.0,60.0,60.0,0.0,0.0
5281,65.0,60.0,60.0,0.0,0.0
5282,53.0,0.0,60.0,0.0,0.0
5283,66.0,0.0,60.0,0.0,0.0
5284,54.0,60.0,60.0,0.0,0.0
5285,68.0,0.0,60.0,0.0,0.0
5286,56.0,60.0,60.0,0.0,0.0
5287,57.0,0.0,60.0,0.0,0.0
5288,69.0,60.0,60.0,0.0,0.0
5289,59.0,0.0,60.0,0.0,0.0
5290,71.0,60.0,60.0,0.0,0.0
5291,61.0,60.0,60.0,0.0,0.0
5292,73.0,0.0,60.0,0.0,0.0
5293,75.0,60.0,60.0,0.0,0.0
5294,63.0,0.0,60.0,0.0,0.0
5295,77.0,0.0,60.0,0.0,0.0
5296,65.0,60.0,60.0,0.0,0.0
5297,78.0,0.0,60.0,0.0,0.0
5298,66.0,60.0,60.0,0.0,0.0
5299,80.0,60.0,60.0,0.0,0.0
5300,68.0,0.0,60.0,0.0,0.0
5301,81.0,60.0,60.0,0.0,0.0
5302,69.0,0.0,60.0,0.0,0.0
5303,71.0,0.0,60.0,0.0,0.0
5304,83.0,60.0,60.0,0.0,0.0
5305,73.0,90.0,60.0,0.0,0.0
5306,85.0,0.0,60.0,0.0,0.0
5307,87.0,0.0,90.0,0.0,0.0
5308,75.0,60.0,90.0,0.0,0.0
5309,89.0,120.0,90.0,0.0,0.0
5310,77.0,30.0,60.0,0.0,0.0
5311,90.0,0.0,120.0,0.0,0.0
5312,78.0,120.0,120.0,0.0,0.0
5313,92.0,120.0,60.0,0.0,0.0
5314,35.0,120.0,120.0,0.0,0.0
5315,23.0,0.0,120.0,0.0,0.0
5316,81.0,0.0,120.0,0.0,0.0
5317,87.0,0.0,120.0,0.0,0.0
5318,90.0,0.0,120.0,0.0,0.0
5319,86.0,0.0,120.0,0.0,0.0
5320,80.0,0.0,120.0,0.0,0.0
5321,89.0,120.0,120.0,0.0,0.0
5322,59.0,0.0,120.0,0.0,0.0
5323,47.0,120.0,120.0,0.0,0.0
5324,90.0,0.0,240.0,0.0,0.0
5325,81.0,240.0,240.0,0.0,0.0
5326,92.0,0.0,240.0,0.0,0.0
5327,63.0,0.0,240.0,0.0,0.0
5328,59.0,0.0,240.0,0.0,0.0
5329,71.0,0.0,240.0,0.0,0.0
5330,87.0,0.0,15.0,0.0,0.0
5331,80.0,0.0,240.0,0.0,0.0
5332,68.0,0.0,240.0,0.0,0.0
5333,88.0,0.0,240.0,0.0,0.0
5334,61.0,0.0,240.0,0.0,0.0
5335,76.0,0.0,240.0,0.0,0.0
5336,80.0,240.0,240.0,0.0,0.0
5337,68.0,0.0,240.0,0.0,0.0
5338,73.0,0.0,240.0,0.0,0.0
5339,64.0,0.0,240.0,0.0,0.0
5340,68.0,0.0,240.0,0.0,0.0
5341,71.0,240.0,240.0,0.0,0.0
5342,83.0,0.0,240.0,0.0,0.0
5343,76.0,0.0,240.0,0.0,0.0
5344,56.0,0.0,240.0,0.0,0.0
5345,73.0,240.0,240.0,0.0,0.0
5346,69.0,0.0,240.0,0.0,0.0
5347,57.0,0.0,240.0,0.0,0.0
5348,85.0,0.0,240.0,0.0,0.0
5349,76.0,0.0,240.0,0.0,0.0
5350,64.0,0.0,15.0,0.0,0.0
5351,56.0,0.0,240.0,0.0,0.0
5352,68.0,0.0,240.0,0.0,0.0
5353,71.0,0.0,240.0,0.0,0.0
5354,76.0,0.0,240.0,0.0,0.0
5355,83.0,240.0,240.0,0.0,0.0
5356,80.0,0.0,240.0,0.0,0.0
5357,52.0,0.0,240.0,0.0,0.0
5358,59.0,0.0,240.0,0.0,0.0
5359,71.0,0.0,240.0,0.0,0.0
5360,68.0,0.0,240.0,0.0,0.0
5361,64.0,240.0,15.0,0.0,0.0
5362,68.0,0.0,240.0,0.0,0.0
5363,76.0,240.0,240.0,0.0,0.0
5364,49.0,0.0,240.0,0.0,0.0
5365,61.0,0.0,15.0,0.0,0.0
5366,64.0,0.0,15.0,0.0,0.0
5367,73.0,0.0,240.0,0.0,0.0
5368,45.0,240.0,240.0,0.0,0.0
5369,52.0,0.0,240.0,0.0,0.0
5370,57.0,0.0,240.0,0.0,0.0
5371,47.0,0.0,240.0,0.0,0.0
5372,57.0,120.0,240.0,0.0,0.0
5373,59.0,0.0,240.0,0.0,0.0
5374,54.0,0.0,240.0,0.0,0.0
5375,71.0,0.0,240.0,0.0,0.0
5376,63.0,0.0,240.0,0.0,0.0
5377,56.0,0.0,120.0,0.0,0.0
5378,64.0,0.0,120.0,0.0,0.0
5379,68.0,0.0,120.0,0.0,0.0
5380,28.0,180.0,120.0,0.0,0.0
5381,40.0,0.0,120.0,0.0,0.0
5382,56.0,0.0,240.0,0.0,0.0
5383,59.0,60.0,60.0,0.0,0.0
5384,47.0,0.0,240.0,0.0,0.0
5385,61.0,60.0,60.0,0.0,0.0
5386,59.0,60.0,60.0,0.0,0.0
5387,61.0,0.0,60.0,0.0,0.0
5388,52.0,240.0,15.0,0.0,0.0
5389,49.0,0.0,240.0,0.0,0.0
5390,55.0,0.0,240.0,0.0,0.0
5391,58.0,80.0,240.0,0.0,0.0
5392,37.0,40.0,120.0,0.0,0.0
5393,49.0,0.0,120.0,0.0,0.0
5394,61.0,40.0,90.0,0.0,0.0
5395,64.0,80.0,90.0,0.0,0.0
5396,67.0,80.0,90.0,0.0,0.0
5397,37.0,0.0,120.0,0.0,0.0
5398,25.0,40.0,120.0,0.0,0.0
5399,70.0,40.0,90.0,0.0,0.0
5400,73.0,80.0,90.0,0.0,0.0
5401,76.0,80.0,90.0,0.0,0.0
5402,24.0,120.0,240.0,0.0,0.0
5403,36.0,0.0,240.0,0.0,0.0
5404,79.0,80.0,90.0,0.0,0.0
5405,82.0,80.0,90.0,0.0,0.0
5406,94.0,0.0,90.0,0.0,0.0
5407,83.0,0.0,120.0,0.0,0.0
5408,95.0,0.0,120.0,0.0,0.0
5409,23.0,0.0,120.0,0.0,0.0
5410,35.0,180.0,120.0,0.0,0.0
5411,63.0,0.0,60.0,0.0,0.0
5412,54.0,0.0,60.0,0.0,0.0
5413,71.0,0.0,60.0,0.0,0.0
5414,78.0,0.0,60.0,0.0,0.0
5415,66.0,0.0,60.0,0.0,0.0
5416,57.0,120.0,60.0,0.0,0.0
5417,59.0,0.0,60.0,0.0,0.0
5418,57.0,0.0,60.0,0.0,0.0
5419,66.0,0.0,60.0,0.0,0.0
5420,78.0,0.0,60.0,0.0,0.0
5421,71.0,0.0,60.0,0.0,0.0
5422,54.0,0.0,60.0,0.0,0.0
5423,59.0,180.0,60.0,0.0,0.0
5424,63.0,0.0,60.0,0.0,0.0
5425,54.0,240.0,120.0,0.0,0.0
5426,57.0,0.0,120.0,0.0,0.0
5427,63.0,0.0,120.0,0.0,0.0
5428,59.0,0.0,120.0,0.0,0.0
5429,66.0,0.0,120.0,0.0,0.0
5430,78.0,0.0,120.0,0.0,0.0
5431,71.0,0.0,120.0,0.0,0.0
5432,62.0,0.0,120.0,0.0,0.0
5433,77.0,0.0,120.0,0.0,0.0
5434,65.0,0.0,120.0,0.0,0.0
5435,59.0,0.0,120.0,0.0,0.0
5436,57.0,0.0,15.0,0.0,0.0
5437,54.0,0.0,15.0,0.0,0.0
5438,63.0,0.0,120.0,0.0,0.0
5439,71.0,120.0,15.0,0.0,0.0
5440,66.0,0.0,120.0,0.0,0.0
5441,78.0,240.0,120.0,0.0,0.0
5442,68.0,0.0,240.0,0.0,0.0
5443,64.0,0.0,240.0,0.0,0.0
5444,80.0,0.0,240.0,0.0,0.0
5445,59.0,0.0,15.0,0.0,0.0
5446,71.0,0.0,15.0,0.0,0.0
5447,63.0,120.0,240.0,0.0,0.0
5448,69.0,0.0,240.0,0.0,0.0
5449,75.0,0.0,240.0,0.0,0.0
5450,54.0,0.0,15.0,0.0,0.0
5451,57.0,0.0,15.0,0.0,0.0
5452,66.0,0.0,240.0,0.0,0.0
5453,59.0,240.0,15.0,0.0,0.0
5454,68.0,0.0,120.0,0.0,0.0
5455,64.0,0.0,120.0,0.0,0.0
5456,52.0,0.0,120.0,0.0,0.0
5457,76.0,0.0,120.0,0.0,0.0
5458,40.0,180.0,120.0,0.0,0.0
5459,47.0,0.0,240.0,0.0,0.0
5460,52.0,0.0,240.0,0.0,0.0
5461,56.0,240.0,240.0,0.0,0.0
5462,59.0,60.0,60.0,0.0,0.0
5463,61.0,60.0,60.0,0.0,0.0
5464,59.0,60.0,60.0,0.0,0.0
5465,61.0,0.0,60.0,0.0,0.0
5466,58.0,0.0,240.0,0.0,0.0
5467,52.0,0.0,240.0,0.0,0.0
5468,55.0,80.0,240.0,0.0,0.0
5469,61.0,40.0,90.0,0.0,0.0
5470,49.0,0.0,15.0,0.0,0.0
5471,37.0,40.0,120.0,0.0,0.0
5472,64.0,80.0,90.0,0.0,0.0
5473,67.0,80.0,90.0,0.0,0.0
5474,25.0,0.0,120.0,0.0,0.0
5475,37.0,40.0,120.0,0.0,0.0
5476,70.0,40.0,90.0,0.0,0.0
5477,73.0,80.0,90.0,0.0,0.0
5478,76.0,80.0,90.0,0.0,0.0
5479,24.0,0.0,240.0,0.0,0.0
5480,36.0,0.0,240.0,0.0,0.0
5481,79.0,80.0,90.0,0.0,0.0
5482,82.0,80.0,90.0,0.0,0.0
5483,94.0,120.0,90.0,0.0,0.0
5484,23.0,0.0,120.0,0.0,0.0
5485,35.0,0.0,120.0,0.0,0.0
5486,95.0,180.0,120.0,0.0,0.0
5487,83.0,0.0,120.0,0.0,0.0
5488,54.0,0.0,60.0,0.0,0.0
5489,63.0,0.0,60.0,0.0,0.0
5490,57.0,0.0,60.0,0.0,0.0
5491,59.0,0.0,60.0,0.0,0.0
5492,66.0,0.0,60.0,0.0,0.0
5493,78.0,0.0,60.0,0.0,0.0
5494,71.0,120.0,60.0,0.0,0.0
5495,54.0,0.0,60.0,0.0,0.0
5496,59.0,180.0,60.0,0.0,0.0
5497,63.0,0.0,60.0,0.0,0.0
5498,71.0,0.0,60.0,0.0,0.0
5499,78.0,0.0,60.0,0.0,0.0
5500,66.0,0.0,60.0,0.0,0.0
5501,57.0,0.0,60.0,0.0,0.0
5502,57.0,0.0,120.0,0.0,0.0
5503,63.0,120.0,120.0,0.0,0.0
5504,66.0,0.0,120.0,0.0,0.0
5505,71.0,0.0,120.0,0.0,0.0
5506,78.0,0.0,120.0,0.0,0.0
5507,59.0,0.0,15.0,0.0,0.0
5508,57.0,0.0,120.0,0.0,0.0
5509,54.0,0.0,15.0,0.0,0.0
5510,64.0,120.0,120.0,0.0,0.0
5511,80.0,0.0,120.0,0.0,0.0
5512,68.0,0.0,120.0,0.0,0.0
5513,54.0,0.0,15.0,0.0,0.0
5514,57.0,0.0,120.0,0.0,0.0
5515,59.0,0.0,15.0,0.0,0.0
5516,62.0,0.0,120.0,0.0,0.0
5517,71.0,0.0,15.0,0.0,0.0
5518,65.0,120.0,120.0,0.0,0.0
5519,77.0,0.0,120.0,0.0,0.0
5520,78.0,0.0,120.0,0.0,0.0
5521,54.0,0.0,120.0,0.0,0.0
5522,66.0,240.0,120.0,0.0,0.0
5523,71.0,0.0,120.0,0.0,0.0
5524,57.0,0.0,120.0,0.0,0.0
5525,59.0,0.0,120.0,0.0,0.0
5526,63.0,0.0,120.0,0.0,0.0
5527,59.0,0.0,240.0,0.0,0.0
5528,68.0,240.0,240.0,0.0,0.0
5529,71.0,0.0,240.0,0.0,0.0
5530,80.0,0.0,240.0,0.0,0.0
5531,64.0,0.0,240.0,0.0,0.0
5532,54.0,0.0,240.0,0.0,0.0
5533,57.0,0.0,15.0,0.0,0.0
5534,69.0,0.0,240.0,0.0,0.0
5535,63.0,0.0,240.0,0.0,0.0
5536,54.0,0.0,240.0,0.0,0.0
5537,59.0,0.0,240.0,0.0,0.0
5538,66.0,0.0,240.0,0.0,0.0
5539,71.0,120.0,240.0,0.0,0.0
5540,75.0,0.0,240.0,0.0,0.0
5541,40.0,240.0,120.0,0.0,0.0
5542,28.0,0.0,120.0,0.0,0.0
5543,73.0,120.0,360.0,0.0,0.0
5544,64.0,0.0,360.0,0.0,0.0
5545,68.0,0.0,360.0,0.0,0.0
5546,76.0,0.0,360.0,0.0,0.0
5547,47.0,0.0,120.0,0.0,0.0
5548,35.0,0.0,120.0,0.0,0.0
5549,68.0,0.0,480.0,0.0,0.0
5550,71.0,120.0,15.0,0.0,0.0
5551,40.0,180.0,120.0,0.0,0.0
5552,52.0,0.0,120.0,0.0,0.0
5553,59.0,0.0,60.0,0.0,0.0
5554,47.0,180.0,60.0,0.0,0.0
5555,52.0,240.0,120.0,0.0,0.0
5556,64.0,0.0,120.0,0.0,0.0
5557,68.0,0.0,120.0,0.0,0.0
5558,59.0,0.0,120.0,0.0,0.0
5559,71.0,0.0,120.0,0.0,0.0
5560,76.0,120.0,120.0,0.0,0.0
5561,80.0,0.0,120.0,0.0,0.0
5562,69.0,120.0,120.0,0.0,0.0
5563,78.0,0.0,120.0,0.0,0.0
5564,81.0,0.0,120.0,0.0,0.0
5565,81.0,0.0,360.0,0.0,0.0
5566,40.0,0.0,120.0,0.0,0.0
5567,28.0,240.0,120.0,0.0,0.0
5568,73.0,120.0,360.0,0.0,0.0
5569,85.0,0.0,360.0,0.0,0.0
5570,35.0,0.0,120.0,0.0,0.0
5571,47.0,0.0,120.0,0.0,0.0
5572,71.0,0.0,120.0,0.0,0.0
5573,80.0,0.0,15.0,0.0,0.0
5574,83.0,120.0,15.0,0.0,0.0
5575,40.0,180.0,120.0,0.0,0.0
5576,52.0,0.0,120.0,0.0,0.0
5577,71.0,120.0,480.0,0.0,0.0
5578,59.0,180.0,60.0,0.0,0.0
5579,47.0,0.0,60.0,0.0,0.0
5580,64.0,0.0,120.0,0.0,0.0
5581,52.0,240.0,120.0,0.0,0.0
5582,71.0,0.0,120.0,0.0,0.0
5583,59.0,120.0,120.0,0.0,0.0
5584,76.0,0.0,120.0,0.0,0.0
5585,80.0,0.0,120.0,0.0,0.0
5586,68.0,0.0,120.0,0.0,0.0
5587,69.0,0.0,120.0,0.0,0.0
5588,78.0,0.0,120.0,0.0,0.0
5589,85.0,0.0,360.0,0.0,0.0
5590,81.0,120.0,15.0,0.0,0.0
5591,73.0,0.0,360.0,0.0,0.0
5592,40.0,240.0,120.0,0.0,0.0
5593,28.0,0.0,120.0,0.0,0.0
5594,47.0,120.0,120.0,0.0,0.0
5595,35.0,0.0,120.0,0.0,0.0
5596,71.0,0.0,120.0,0.0,0.0
5597,83.0,120.0,120.0,0.0,0.0
5598,80.0,0.0,120.0,0.0,0.0
5599,52.0,180.0,120.0,0.0,0.0
5600,40.0,0.0,120.0,0.0,0.0
5601,85.0,0.0,360.0,0.0,0.0
5602,81.0,0.0,360.0,0.0,0.0
5603,73.0,120.0,360.0,0.0,0.0
5604,59.0,60.0,60.0,0.0,0.0
5605,47.0,0.0,60.0,0.0,0.0
5606,71.0,120.0,120.0,0.0,0.0
5607,80.0,0.0,120.0,0.0,0.0
5608,83.0,0.0,120.0,0.0,0.0
5609,85.0,0.0,360.0,0.0,0.0
5610,73.0,120.0,360.0,0.0,0.0
5611,81.0,0.0,360.0,0.0,0.0
5612,52.0,240.0,120.0,0.0,0.0
5613,64.0,0.0,120.0,0.0,0.0
5614,47.0,0.0,120.0,0.0,0.0
5615,59.0,0.0,120.0,0.0,0.0
5616,71.0,0.0,120.0,0.0,0.0
5617,80.0,0.0,120.0,0.0,0.0
5618,83.0,120.0,120.0,0.0,0.0
5619,73.0,120.0,360.0,0.0,0.0
5620,81.0,0.0,360.0,0.0,0.0
5621,40.0,240.0,120.0,0.0,0.0
5622,52.0,0.0,120.0,0.0,0.0
5623,85.0,0.0,360.0,0.0,0.0
5624,35.0,0.0,120.0,0.0,0.0
5625,47.0,0.0,120.0,0.0,0.0
5626,83.0,60.0,15.0,0.0,0.0
5627,80.0,0.0,15.0,0.0,0.0
5628,71.0,0.0,15.0,0.0,0.0
5629,28.0,0.0,60.0,0.0,0.0
5630,40.0,120.0,60.0,0.0,0.0
5631,39.0,120.0,60.0,0.0,0.0
5632,27.0,0.0,60.0,0.0,0.0
5633,25.0,120.0,60.0,0.0,0.0
5634,37.0,0.0,60.0,0.0,0.0
5635,23.0,0.0,60.0,0.0,0.0
5636,35.0,60.0,60.0,0.0,0.0
5637,40.0,120.0,60.0,0.0,0.0
5638,85.0,0.0,60.0,0.0,0.0
5639,28.0,0.0,60.0,0.0,0.0
5640,73.0,0.0,60.0,0.0,0.0
5641,80.0,0.0,60.0,0.0,0.0
5642,27.0,0.0,60.0,0.0,0.0
5643,75.0,0.0,120.0,0.0,0.0
5644,87.0,60.0,120.0,0.0,0.0
5645,39.0,60.0,60.0,0.0,0.0
5646,25.0,0.0,60.0,0.0,0.0
5647,88.0,0.0,120.0,0.0,0.0
5648,80.0,0.0,15.0,0.0,0.0
5649,76.0,0.0,120.0,0.0,0.0
5650,37.0,60.0,60.0,0.0,0.0
5651,90.0,120.0,120.0,0.0,0.0
5652,78.0,0.0,120.0,0.0,0.0
5653,83.0,120.0,240.0,0.0,0.0
5654,23.0,60.0,60.0,0.0,0.0
5655,35.0,0.0,60.0,0.0,0.0
5656,88.0,0.0,240.0,0.0,0.0
5657,80.0,540.0,240.0,0.0,0.0
5658,40.0,0.0,240.0,0.0,0.0
5659,92.0,0.0,240.0,0.0,0.0
5660,28.0,0.0,240.0,0.0,0.0
5661,39.0,0.0,60.0,0.0,0.0
5662,32.0,0.0,60.0,0.0,0.0
5663,44.0,120.0,60.0,0.0,0.0
5664,51.0,0.0,60.0,0.0,0.0
5665,56.0,0.0,60.0,0.0,0.0
5666,60.0,0.0,60.0,0.0,0.0
5667,48.0,0.0,60.0,0.0,0.0
5668,32.0,0.0,60.0,0.0,0.0
5669,60.0,0.0,60.0,0.0,0.0
5670,56.0,0.0,60.0,0.0,0.0
5671,44.0,0.0,60.0,0.0,0.0
5672,48.0,180.0,60.0,0.0,0.0
5673,51.0,0.0,60.0,0.0,0.0
5674,39.0,0.0,60.0,0.0,0.0
5675,60.0,0.0,120.0,0.0,0.0
5676,56.0,0.0,120.0,0.0,0.0
5677,51.0,0.0,120.0,0.0,0.0
5678,48.0,0.0,120.0,0.0,0.0
5679,44.0,0.0,120.0,0.0,0.0
5680,39.0,0.0,120.0,0.0,0.0
5681,32.0,240.0,120.0,0.0,0.0
5682,39.0,0.0,120.0,0.0,0.0
5683,44.0,0.0,120.0,0.0,0.0
5684,32.0,0.0,120.0,0.0,0.0
5685,56.0,0.0,120.0,0.0,0.0
5686,51.0,0.0,120.0,0.0,0.0
5687,60.0,360.0,120.0,0.0,0.0
5688,48.0,0.0,120.0,0.0,0.0
5689,48.0,0.0,330.0,0.0,0.0
5690,51.0,0.0,300.0,0.0,0.0
5691,32.0,0.0,300.0,0.0,0.0
5692,39.0,480.0,270.0,0.0,0.0
5693,56.0,0.0,270.0,0.0,0.0
5694,60.0,0.0,240.0,0.0,0.0
5695,44.0,0.0,240.0,0.0,0.0
5696,48.0,480.0,330.0,0.0,0.0
5697,32.0,0.0,300.0,0.0,0.0
5698,51.0,0.0,300.0,0.0,0.0
5699,56.0,0.0,270.0,0.0,0.0
5700,39.0,0.0,270.0,0.0,0.0
5701,44.0,0.0,240.0,0.0,0.0
5702,60.0,0.0,240.0,0.0,0.0
5703,47.0,0.0,330.0,0.0,0.0
5704,51.0,0.0,300.0,0.0,0.0
5705,35.0,0.0,300.0,0.0,0.0
5706,57.0,0.0,270.0,0.0,0.0
5707,59.0,480.0,240.0,0.0,0.0
5708,42.0,0.0,240.0,0.0,0.0
5709,64.0,0.0,240.0,0.0,0.0
5710,56.0,0.0,240.0,0.0,0.0
5711,28.0,0.0,240.0,0.0,0.0
5712,52.0,0.0,240.0,0.0,0.0
5713,40.0,6480.0,240.0,0.0,0.0
