,note,step,duration,channel,velocity
0,66.0,160.0,15.0,0.0,0.0
1,35.0,160.0,150.0,0.0,0.0
2,54.0,0.0,150.0,0.0,0.0
3,51.0,160.0,150.0,0.0,0.0
4,63.0,0.0,150.0,0.0,0.0
5,42.0,160.0,150.0,0.0,0.0
6,35.0,160.0,150.0,0.0,0.0
7,71.0,0.0,150.0,0.0,0.0
8,59.0,0.0,150.0,0.0,0.0
9,51.0,160.0,150.0,0.0,0.0
10,42.0,0.0,150.0,0.0,0.0
11,66.0,160.0,150.0,0.0,0.0
12,35.0,160.0,150.0,0.0,0.0
13,75.0,0.0,150.0,0.0,0.0
14,54.0,160.0,150.0,0.0,0.0
15,63.0,0.0,150.0,0.0,0.0
16,71.0,160.0,150.0,0.0,0.0
17,42.0,0.0,150.0,0.0,0.0
18,78.0,0.0,150.0,0.0,0.0
19,35.0,160.0,150.0,0.0,0.0
20,59.0,0.0,150.0,0.0,0.0
21,66.0,160.0,150.0,0.0,0.0
22,51.0,160.0,150.0,0.0,0.0
23,75.0,0.0,150.0,0.0,0.0
24,83.0,160.0,150.0,0.0,0.0
25,42.0,0.0,150.0,0.0,0.0
26,63.0,0.0,150.0,0.0,0.0
27,71.0,160.0,150.0,0.0,0.0
28,54.0,160.0,150.0,0.0,0.0
29,78.0,0.0,150.0,0.0,0.0
30,87.0,160.0,150.0,0.0,0.0
31,47.0,0.0,150.0,0.0,0.0
32,66.0,0.0,150.0,0.0,0.0
33,75.0,160.0,150.0,0.0,0.0
34,54.0,160.0,150.0,0.0,0.0
35,78.0,0.0,150.0,0.0,0.0
36,85.0,0.0,150.0,0.0,0.0
37,47.0,160.0,150.0,0.0,0.0
38,67.0,0.0,150.0,0.0,0.0
39,70.0,160.0,150.0,0.0,0.0
40,55.0,0.0,150.0,0.0,0.0
41,76.0,160.0,150.0,0.0,0.0
42,47.0,160.0,150.0,0.0,0.0
43,83.0,0.0,150.0,0.0,0.0
44,71.0,0.0,150.0,0.0,0.0
45,68.0,160.0,150.0,0.0,0.0
46,76.0,160.0,150.0,0.0,0.0
47,56.0,0.0,150.0,0.0,0.0
48,47.0,0.0,150.0,0.0,0.0
49,80.0,160.0,150.0,0.0,0.0
50,64.0,0.0,150.0,0.0,0.0
51,68.0,160.0,150.0,0.0,0.0
52,58.0,160.0,150.0,0.0,0.0
53,76.0,0.0,150.0,0.0,0.0
54,80.0,0.0,150.0,0.0,0.0
55,47.0,160.0,150.0,0.0,0.0
56,68.0,160.0,150.0,0.0,0.0
57,63.0,0.0,150.0,0.0,0.0
58,59.0,0.0,150.0,0.0,0.0
59,75.0,160.0,150.0,0.0,0.0
60,54.0,160.0,150.0,0.0,0.0
61,78.0,0.0,150.0,0.0,0.0
62,63.0,0.0,150.0,0.0,0.0
63,66.0,160.0,150.0,0.0,0.0
64,59.0,0.0,150.0,0.0,0.0
65,71.0,160.0,150.0,0.0,0.0
66,47.0,160.0,150.0,0.0,0.0
67,75.0,0.0,150.0,0.0,0.0
68,59.0,160.0,150.0,0.0,0.0
69,63.0,0.0,150.0,0.0,0.0
70,66.0,0.0,150.0,0.0,0.0
71,51.0,160.0,150.0,0.0,0.0
72,71.0,160.0,150.0,0.0,0.0
73,37.0,0.0,150.0,0.0,0.0
74,59.0,0.0,150.0,0.0,0.0
75,56.0,160.0,150.0,0.0,0.0
76,65.0,0.0,150.0,0.0,0.0
77,49.0,160.0,150.0,0.0,0.0
78,70.0,0.0,150.0,0.0,0.0
79,44.0,160.0,150.0,0.0,0.0
80,58.0,160.0,150.0,0.0,0.0
81,56.0,0.0,150.0,0.0,0.0
82,49.0,0.0,150.0,0.0,0.0
83,65.0,160.0,150.0,0.0,0.0
84,71.0,0.0,150.0,0.0,0.0
85,37.0,160.0,150.0,0.0,0.0
86,59.0,0.0,150.0,0.0,0.0
87,56.0,160.0,150.0,0.0,0.0
88,65.0,0.0,150.0,0.0,0.0
89,49.0,160.0,150.0,0.0,0.0
90,75.0,160.0,150.0,0.0,0.0
91,42.0,0.0,150.0,0.0,0.0
92,63.0,0.0,150.0,0.0,0.0
93,59.0,160.0,150.0,0.0,0.0
94,66.0,0.0,150.0,0.0,0.0
95,49.0,160.0,150.0,0.0,0.0
96,46.0,0.0,150.0,0.0,0.0
97,73.0,160.0,150.0,0.0,0.0
98,58.0,0.0,150.0,0.0,0.0
99,61.0,160.0,150.0,0.0,0.0
100,66.0,0.0,150.0,0.0,0.0
101,49.0,160.0,150.0,0.0,0.0
102,70.0,0.0,150.0,0.0,0.0
103,42.0,160.0,150.0,0.0,0.0
104,54.0,160.0,150.0,0.0,0.0
105,58.0,0.0,150.0,0.0,0.0
106,61.0,0.0,150.0,0.0,0.0
107,49.0,160.0,150.0,0.0,0.0
108,71.0,160.0,150.0,0.0,0.0
109,37.0,0.0,150.0,0.0,0.0
110,56.0,160.0,150.0,0.0,0.0
111,59.0,0.0,150.0,0.0,0.0
112,65.0,0.0,150.0,0.0,0.0
113,49.0,160.0,150.0,0.0,0.0
114,70.0,0.0,150.0,0.0,0.0
115,44.0,160.0,150.0,0.0,0.0
116,58.0,160.0,150.0,0.0,0.0
117,55.0,0.0,150.0,0.0,0.0
118,49.0,160.0,150.0,0.0,0.0
119,65.0,0.0,150.0,0.0,0.0
120,71.0,0.0,150.0,0.0,0.0
121,37.0,160.0,150.0,0.0,0.0
122,56.0,0.0,150.0,0.0,0.0
123,59.0,160.0,150.0,0.0,0.0
124,49.0,0.0,150.0,0.0,0.0
125,65.0,160.0,150.0,0.0,0.0
126,42.0,0.0,150.0,0.0,0.0
127,75.0,160.0,150.0,0.0,0.0
128,63.0,0.0,150.0,0.0,0.0
129,59.0,160.0,150.0,0.0,0.0
130,68.0,160.0,150.0,0.0,0.0
131,52.0,0.0,150.0,0.0,0.0
132,73.0,0.0,150.0,0.0,0.0
133,49.0,160.0,150.0,0.0,0.0
134,61.0,0.0,150.0,0.0,0.0
135,58.0,160.0,150.0,0.0,0.0
136,64.0,160.0,150.0,0.0,0.0
137,49.0,0.0,150.0,0.0,0.0
138,42.0,0.0,150.0,0.0,0.0
139,68.0,160.0,150.0,0.0,0.0
140,52.0,160.0,150.0,0.0,0.0
141,56.0,0.0,150.0,0.0,0.0
142,61.0,160.0,150.0,0.0,0.0
143,46.0,0.0,150.0,0.0,0.0
144,35.0,0.0,150.0,0.0,0.0
145,66.0,160.0,150.0,0.0,0.0
146,51.0,0.0,150.0,0.0,0.0
147,54.0,160.0,150.0,0.0,0.0
148,42.0,0.0,150.0,0.0,0.0
149,63.0,160.0,150.0,0.0,0.0
150,71.0,160.0,150.0,0.0,0.0
151,35.0,0.0,150.0,0.0,0.0
152,59.0,160.0,150.0,0.0,0.0
153,51.0,0.0,150.0,0.0,0.0
154,42.0,0.0,150.0,0.0,0.0
155,66.0,160.0,150.0,0.0,0.0
156,35.0,160.0,150.0,0.0,0.0
157,75.0,0.0,150.0,0.0,0.0
158,63.0,0.0,150.0,0.0,0.0
159,54.0,160.0,150.0,0.0,0.0
160,42.0,160.0,150.0,0.0,0.0
161,71.0,0.0,150.0,0.0,0.0
162,78.0,160.0,150.0,0.0,0.0
163,35.0,0.0,150.0,0.0,0.0
164,59.0,160.0,150.0,0.0,0.0
165,66.0,0.0,150.0,0.0,0.0
166,75.0,160.0,150.0,0.0,0.0
167,51.0,0.0,150.0,0.0,0.0
168,83.0,0.0,150.0,0.0,0.0
169,42.0,160.0,150.0,0.0,0.0
170,71.0,0.0,150.0,0.0,0.0
171,63.0,160.0,150.0,0.0,0.0
172,78.0,0.0,150.0,0.0,0.0
173,54.0,160.0,150.0,0.0,0.0
174,47.0,160.0,150.0,0.0,0.0
175,87.0,0.0,150.0,0.0,0.0
176,66.0,160.0,150.0,0.0,0.0
177,75.0,0.0,150.0,0.0,0.0
178,78.0,0.0,150.0,0.0,0.0
179,54.0,160.0,150.0,0.0,0.0
180,47.0,160.0,150.0,0.0,0.0
181,85.0,0.0,150.0,0.0,0.0
182,67.0,160.0,150.0,0.0,0.0
183,70.0,0.0,150.0,0.0,0.0
184,76.0,160.0,150.0,0.0,0.0
185,55.0,0.0,150.0,0.0,0.0
186,47.0,160.0,150.0,0.0,0.0
187,83.0,0.0,150.0,0.0,0.0
188,71.0,160.0,150.0,0.0,0.0
189,68.0,0.0,150.0,0.0,0.0
190,76.0,160.0,150.0,0.0,0.0
191,56.0,0.0,150.0,0.0,0.0
192,47.0,160.0,150.0,0.0,0.0
193,80.0,0.0,150.0,0.0,0.0
194,68.0,0.0,150.0,0.0,0.0
195,64.0,160.0,150.0,0.0,0.0
196,76.0,160.0,150.0,0.0,0.0
197,58.0,0.0,150.0,0.0,0.0
198,80.0,160.0,150.0,0.0,0.0
199,47.0,0.0,150.0,0.0,0.0
200,68.0,160.0,150.0,0.0,0.0
201,63.0,0.0,150.0,0.0,0.0
202,59.0,160.0,150.0,0.0,0.0
203,75.0,0.0,150.0,0.0,0.0
204,78.0,160.0,150.0,0.0,0.0
205,54.0,0.0,150.0,0.0,0.0
206,63.0,0.0,150.0,0.0,0.0
207,66.0,160.0,150.0,0.0,0.0
208,59.0,160.0,150.0,0.0,0.0
209,71.0,0.0,150.0,0.0,0.0
210,75.0,0.0,150.0,0.0,0.0
211,47.0,160.0,150.0,0.0,0.0
212,59.0,0.0,150.0,0.0,0.0
213,63.0,160.0,150.0,0.0,0.0
214,51.0,160.0,150.0,0.0,0.0
215,71.0,0.0,150.0,0.0,0.0
216,74.0,0.0,150.0,0.0,0.0
217,43.0,160.0,150.0,0.0,0.0
218,62.0,160.0,150.0,0.0,0.0
219,59.0,0.0,150.0,0.0,0.0
220,53.0,0.0,150.0,0.0,0.0
221,71.0,160.0,150.0,0.0,0.0
222,73.0,0.0,150.0,0.0,0.0
223,47.0,160.0,150.0,0.0,0.0
224,59.0,0.0,150.0,0.0,0.0
225,61.0,160.0,150.0,0.0,0.0
226,71.0,160.0,150.0,0.0,0.0
227,53.0,0.0,150.0,0.0,0.0
228,43.0,0.0,150.0,0.0,0.0
229,74.0,160.0,150.0,0.0,0.0
230,59.0,160.0,150.0,0.0,0.0
231,62.0,0.0,150.0,0.0,0.0
232,71.0,160.0,150.0,0.0,0.0
233,53.0,0.0,150.0,0.0,0.0
234,75.0,0.0,150.0,0.0,0.0
235,42.0,160.0,150.0,0.0,0.0
236,63.0,0.0,150.0,0.0,0.0
237,58.0,160.0,150.0,0.0,0.0
238,70.0,160.0,150.0,0.0,0.0
239,51.0,0.0,150.0,0.0,0.0
240,41.0,160.0,150.0,0.0,0.0
241,77.0,0.0,150.0,0.0,0.0
242,58.0,160.0,150.0,0.0,0.0
243,65.0,0.0,150.0,0.0,0.0
244,70.0,160.0,150.0,0.0,0.0
245,50.0,0.0,150.0,0.0,0.0
246,78.0,160.0,150.0,0.0,0.0
247,39.0,0.0,150.0,0.0,0.0
248,66.0,0.0,150.0,0.0,0.0
249,58.0,160.0,150.0,0.0,0.0
250,70.0,160.0,150.0,0.0,0.0
251,51.0,0.0,150.0,0.0,0.0
252,37.0,0.0,150.0,0.0,0.0
253,80.0,160.0,150.0,0.0,0.0
254,66.0,0.0,150.0,0.0,0.0
255,68.0,160.0,150.0,0.0,0.0
256,59.0,0.0,150.0,0.0,0.0
257,73.0,160.0,150.0,0.0,0.0
258,49.0,160.0,150.0,0.0,0.0
259,82.0,0.0,150.0,0.0,0.0
260,70.0,0.0,150.0,0.0,0.0
261,66.0,160.0,150.0,0.0,0.0
262,73.0,0.0,150.0,0.0,0.0
263,59.0,160.0,150.0,0.0,0.0
264,77.0,0.0,150.0,0.0,0.0
265,56.0,160.0,150.0,0.0,0.0
266,65.0,0.0,150.0,0.0,0.0
267,61.0,160.0,150.0,0.0,0.0
268,59.0,0.0,150.0,0.0,0.0
269,73.0,160.0,150.0,0.0,0.0
270,42.0,160.0,150.0,0.0,0.0
271,80.0,0.0,150.0,0.0,0.0
272,68.0,160.0,150.0,0.0,0.0
273,59.0,0.0,150.0,0.0,0.0
274,73.0,0.0,150.0,0.0,0.0
275,49.0,160.0,150.0,0.0,0.0
276,42.0,0.0,150.0,0.0,0.0
277,78.0,160.0,150.0,0.0,0.0
278,58.0,0.0,150.0,0.0,0.0
279,66.0,160.0,150.0,0.0,0.0
280,49.0,160.0,150.0,0.0,0.0
281,73.0,0.0,15.0,0.0,0.0
282,42.0,0.0,150.0,0.0,0.0
283,61.0,0.0,150.0,0.0,0.0
284,57.0,160.0,150.0,0.0,0.0
285,66.0,160.0,150.0,0.0,0.0
286,49.0,0.0,150.0,0.0,0.0
287,40.0,0.0,150.0,0.0,0.0
288,73.0,160.0,150.0,0.0,0.0
289,61.0,160.0,150.0,0.0,0.0
290,55.0,0.0,150.0,0.0,0.0
291,49.0,160.0,150.0,0.0,0.0
292,67.0,0.0,150.0,0.0,0.0
293,71.0,160.0,150.0,0.0,0.0
294,45.0,0.0,150.0,0.0,0.0
295,59.0,160.0,150.0,0.0,0.0
296,55.0,0.0,150.0,0.0,0.0
297,49.0,160.0,150.0,0.0,0.0
298,66.0,0.0,150.0,0.0,0.0
299,33.0,160.0,150.0,0.0,0.0
300,73.0,0.0,150.0,0.0,0.0
301,55.0,160.0,150.0,0.0,0.0
302,57.0,0.0,150.0,0.0,0.0
303,64.0,0.0,150.0,0.0,0.0
304,49.0,160.0,150.0,0.0,0.0
305,76.0,0.0,150.0,0.0,0.0
306,38.0,160.0,150.0,0.0,0.0
307,57.0,0.0,150.0,0.0,0.0
308,54.0,160.0,150.0,0.0,0.0
309,66.0,0.0,150.0,0.0,0.0
310,50.0,160.0,150.0,0.0,0.0
311,74.0,160.0,150.0,0.0,0.0
312,45.0,0.0,150.0,0.0,0.0
313,57.0,160.0,150.0,0.0,0.0
314,54.0,0.0,150.0,0.0,0.0
315,50.0,0.0,150.0,0.0,0.0
316,66.0,160.0,150.0,0.0,0.0
317,38.0,160.0,150.0,0.0,0.0
318,69.0,0.0,150.0,0.0,0.0
319,57.0,0.0,150.0,0.0,0.0
320,54.0,160.0,150.0,0.0,0.0
321,66.0,0.0,150.0,0.0,0.0
322,45.0,160.0,150.0,0.0,0.0
323,73.0,0.0,150.0,0.0,0.0
324,33.0,160.0,150.0,0.0,0.0
325,57.0,0.0,150.0,0.0,0.0
326,55.0,160.0,150.0,0.0,0.0
327,49.0,160.0,150.0,0.0,0.0
328,67.0,0.0,150.0,0.0,0.0
329,71.0,0.0,150.0,0.0,0.0
330,40.0,160.0,150.0,0.0,0.0
331,57.0,160.0,150.0,0.0,0.0
332,55.0,0.0,150.0,0.0,0.0
333,66.0,160.0,150.0,0.0,0.0
334,49.0,0.0,150.0,0.0,0.0
335,33.0,160.0,150.0,0.0,0.0
336,73.0,0.0,150.0,0.0,0.0
337,55.0,160.0,150.0,0.0,0.0
338,57.0,0.0,150.0,0.0,0.0
339,49.0,160.0,150.0,0.0,0.0
340,64.0,0.0,150.0,0.0,0.0
341,38.0,0.0,150.0,0.0,0.0
342,76.0,160.0,150.0,0.0,0.0
343,54.0,160.0,150.0,0.0,0.0
344,57.0,0.0,150.0,0.0,0.0
345,66.0,0.0,150.0,0.0,0.0
346,50.0,160.0,150.0,0.0,0.0
347,45.0,160.0,150.0,0.0,0.0
348,74.0,0.0,150.0,0.0,0.0
349,57.0,160.0,150.0,0.0,0.0
350,54.0,0.0,150.0,0.0,0.0
351,50.0,160.0,150.0,0.0,0.0
352,66.0,0.0,150.0,0.0,0.0
353,38.0,0.0,150.0,0.0,0.0
354,69.0,160.0,150.0,0.0,0.0
355,54.0,0.0,150.0,0.0,0.0
356,57.0,160.0,150.0,0.0,0.0
357,66.0,160.0,150.0,0.0,0.0
358,45.0,0.0,150.0,0.0,0.0
359,38.0,0.0,150.0,0.0,0.0
360,72.0,160.0,150.0,0.0,0.0
361,54.0,0.0,150.0,0.0,0.0
362,60.0,160.0,150.0,0.0,0.0
363,66.0,0.0,150.0,0.0,0.0
364,45.0,160.0,150.0,0.0,0.0
365,78.0,160.0,150.0,0.0,0.0
366,38.0,0.0,150.0,0.0,0.0
367,57.0,0.0,150.0,0.0,0.0
368,60.0,160.0,150.0,0.0,0.0
369,69.0,0.0,150.0,0.0,0.0
370,50.0,160.0,150.0,0.0,0.0
371,81.0,160.0,150.0,0.0,0.0
372,38.0,0.0,150.0,0.0,0.0
373,66.0,160.0,150.0,0.0,0.0
374,60.0,0.0,150.0,0.0,0.0
375,54.0,160.0,150.0,0.0,0.0
376,72.0,0.0,150.0,0.0,0.0
377,82.0,0.0,150.0,0.0,0.0
378,37.0,160.0,150.0,0.0,0.0
379,66.0,0.0,150.0,0.0,0.0
380,61.0,160.0,150.0,0.0,0.0
381,73.0,160.0,150.0,0.0,0.0
382,54.0,0.0,150.0,0.0,0.0
383,49.0,160.0,150.0,0.0,0.0
384,83.0,0.0,150.0,0.0,0.0
385,66.0,0.0,150.0,0.0,0.0
386,63.0,160.0,150.0,0.0,0.0
387,75.0,160.0,150.0,0.0,0.0
388,54.0,0.0,150.0,0.0,0.0
389,49.0,0.0,150.0,0.0,0.0
390,79.0,160.0,150.0,0.0,0.0
391,64.0,160.0,150.0,0.0,0.0
392,61.0,0.0,150.0,0.0,0.0
393,55.0,0.0,150.0,0.0,0.0
394,70.0,160.0,150.0,0.0,0.0
395,49.0,0.0,150.0,0.0,0.0
396,80.0,160.0,150.0,0.0,0.0
397,65.0,0.0,150.0,0.0,0.0
398,61.0,160.0,150.0,0.0,0.0
399,71.0,0.0,150.0,0.0,0.0
400,56.0,160.0,150.0,0.0,0.0
401,82.0,0.0,150.0,0.0,0.0
402,49.0,160.0,150.0,0.0,0.0
403,61.0,160.0,150.0,0.0,0.0
404,65.0,0.0,150.0,0.0,0.0
405,73.0,0.0,150.0,0.0,0.0
406,59.0,160.0,150.0,0.0,0.0
407,49.0,0.0,150.0,0.0,0.0
408,77.0,160.0,150.0,0.0,0.0
409,59.0,0.0,150.0,0.0,0.0
410,65.0,160.0,150.0,0.0,0.0
411,53.0,160.0,150.0,0.0,0.0
412,68.0,0.0,150.0,0.0,0.0
413,80.0,0.0,150.0,0.0,0.0
414,42.0,160.0,150.0,0.0,0.0
415,59.0,160.0,150.0,0.0,0.0
416,61.0,0.0,150.0,0.0,0.0
417,71.0,0.0,150.0,0.0,0.0
418,49.0,160.0,150.0,0.0,0.0
419,78.0,0.0,150.0,0.0,0.0
420,42.0,160.0,150.0,0.0,0.0
421,58.0,0.0,150.0,0.0,0.0
422,61.0,160.0,150.0,0.0,0.0
423,49.0,0.0,150.0,0.0,0.0
424,70.0,160.0,150.0,0.0,0.0
425,42.0,0.0,150.0,0.0,0.0
426,73.0,160.0,150.0,0.0,0.0
427,61.0,0.0,150.0,0.0,0.0
428,57.0,160.0,150.0,0.0,0.0
429,66.0,160.0,150.0,0.0,0.0
430,49.0,0.0,150.0,0.0,0.0
431,40.0,160.0,150.0,0.0,0.0
432,73.0,0.0,150.0,0.0,0.0
433,61.0,160.0,150.0,0.0,0.0
434,55.0,0.0,150.0,0.0,0.0
435,67.0,0.0,150.0,0.0,0.0
436,49.0,160.0,150.0,0.0,0.0
437,71.0,0.0,150.0,0.0,0.0
438,45.0,160.0,150.0,0.0,0.0
439,55.0,160.0,150.0,0.0,0.0
440,59.0,0.0,150.0,0.0,0.0
441,49.0,0.0,150.0,0.0,0.0
442,66.0,160.0,150.0,0.0,0.0
443,33.0,0.0,150.0,0.0,0.0
444,73.0,160.0,150.0,0.0,0.0
445,57.0,160.0,150.0,0.0,0.0
446,55.0,0.0,150.0,0.0,0.0
447,64.0,0.0,150.0,0.0,0.0
448,49.0,160.0,150.0,0.0,0.0
449,38.0,0.0,150.0,0.0,0.0
450,76.0,160.0,150.0,0.0,0.0
451,57.0,160.0,150.0,0.0,0.0
452,54.0,0.0,150.0,0.0,0.0
453,66.0,160.0,150.0,0.0,0.0
454,50.0,0.0,150.0,0.0,0.0
455,45.0,0.0,150.0,0.0,0.0
456,74.0,160.0,150.0,0.0,0.0
457,54.0,0.0,150.0,0.0,0.0
458,57.0,160.0,150.0,0.0,0.0
459,66.0,160.0,150.0,0.0,0.0
460,50.0,0.0,150.0,0.0,0.0
461,69.0,0.0,150.0,0.0,0.0
462,38.0,160.0,150.0,0.0,0.0
463,57.0,160.0,150.0,0.0,0.0
464,54.0,0.0,150.0,0.0,0.0
465,45.0,0.0,150.0,0.0,0.0
466,66.0,160.0,150.0,0.0,0.0
467,33.0,0.0,150.0,0.0,0.0
468,73.0,160.0,150.0,0.0,0.0
469,57.0,0.0,150.0,0.0,0.0
470,55.0,160.0,150.0,0.0,0.0
471,67.0,160.0,150.0,0.0,0.0
472,49.0,0.0,150.0,0.0,0.0
473,40.0,0.0,150.0,0.0,0.0
474,71.0,160.0,150.0,0.0,0.0
475,57.0,160.0,150.0,0.0,0.0
476,55.0,0.0,150.0,0.0,0.0
477,66.0,0.0,150.0,0.0,0.0
478,49.0,160.0,150.0,0.0,0.0
479,33.0,160.0,150.0,0.0,0.0
480,73.0,0.0,150.0,0.0,0.0
481,57.0,0.0,150.0,0.0,0.0
482,55.0,160.0,150.0,0.0,0.0
483,49.0,0.0,150.0,0.0,0.0
484,64.0,160.0,150.0,0.0,0.0
485,38.0,0.0,150.0,0.0,0.0
486,76.0,160.0,150.0,0.0,0.0
487,57.0,160.0,150.0,0.0,0.0
488,54.0,0.0,150.0,0.0,0.0
489,66.0,0.0,150.0,0.0,0.0
490,50.0,160.0,150.0,0.0,0.0
491,74.0,0.0,150.0,0.0,0.0
492,45.0,160.0,150.0,0.0,0.0
493,57.0,160.0,150.0,0.0,0.0
494,54.0,0.0,150.0,0.0,0.0
495,50.0,0.0,150.0,0.0,0.0
496,66.0,160.0,150.0,0.0,0.0
497,38.0,0.0,150.0,0.0,0.0
498,73.0,160.0,150.0,0.0,0.0
499,54.0,160.0,150.0,0.0,0.0
500,57.0,0.0,150.0,0.0,0.0
501,66.0,0.0,150.0,0.0,0.0
502,45.0,160.0,150.0,0.0,0.0
503,72.0,160.0,150.0,0.0,0.0
504,39.0,0.0,150.0,0.0,0.0
505,57.0,0.0,150.0,0.0,0.0
506,54.0,160.0,150.0,0.0,0.0
507,66.0,0.0,150.0,0.0,0.0
508,48.0,160.0,150.0,0.0,0.0
509,75.0,0.0,150.0,0.0,0.0
510,42.0,160.0,150.0,0.0,0.0
511,60.0,0.0,150.0,0.0,0.0
512,57.0,160.0,150.0,0.0,0.0
513,69.0,0.0,150.0,0.0,0.0
514,48.0,160.0,150.0,0.0,0.0
515,74.0,0.0,150.0,0.0,0.0
516,41.0,160.0,150.0,0.0,0.0
517,59.0,0.0,150.0,0.0,0.0
518,56.0,160.0,150.0,0.0,0.0
519,47.0,0.0,150.0,0.0,0.0
520,68.0,160.0,150.0,0.0,0.0
521,77.0,0.0,150.0,0.0,0.0
522,44.0,160.0,150.0,0.0,0.0
523,62.0,160.0,150.0,0.0,0.0
524,59.0,0.0,150.0,0.0,0.0
525,50.0,0.0,150.0,0.0,0.0
526,71.0,160.0,150.0,0.0,0.0
527,43.0,160.0,150.0,0.0,0.0
528,76.0,0.0,150.0,0.0,0.0
529,58.0,0.0,150.0,0.0,0.0
530,61.0,160.0,150.0,0.0,0.0
531,70.0,0.0,150.0,0.0,0.0
532,49.0,160.0,150.0,0.0,0.0
533,46.0,160.0,150.0,0.0,0.0
534,79.0,0.0,150.0,0.0,0.0
535,64.0,160.0,150.0,0.0,0.0
536,61.0,0.0,150.0,0.0,0.0
537,73.0,160.0,150.0,0.0,0.0
538,52.0,0.0,150.0,0.0,0.0
539,45.0,160.0,150.0,0.0,0.0
540,78.0,0.0,150.0,0.0,0.0
541,60.0,0.0,150.0,0.0,0.0
542,63.0,160.0,150.0,0.0,0.0
543,51.0,0.0,150.0,0.0,0.0
544,72.0,160.0,150.0,0.0,0.0
545,48.0,0.0,150.0,0.0,0.0
546,81.0,160.0,150.0,0.0,0.0
547,63.0,160.0,150.0,0.0,0.0
548,66.0,0.0,150.0,0.0,0.0
549,75.0,160.0,150.0,0.0,0.0
550,54.0,0.0,150.0,0.0,0.0
551,47.0,160.0,150.0,0.0,0.0
552,80.0,0.0,150.0,0.0,0.0
553,65.0,0.0,150.0,0.0,0.0
554,62.0,160.0,150.0,0.0,0.0
555,74.0,0.0,150.0,0.0,0.0
556,53.0,160.0,150.0,0.0,0.0
557,50.0,160.0,150.0,0.0,0.0
558,83.0,0.0,150.0,0.0,0.0
559,65.0,160.0,150.0,0.0,0.0
560,68.0,0.0,150.0,0.0,0.0
561,56.0,160.0,150.0,0.0,0.0
562,77.0,0.0,150.0,0.0,0.0
563,82.0,0.0,150.0,0.0,0.0
564,49.0,160.0,150.0,0.0,0.0
565,64.0,0.0,150.0,0.0,0.0
566,67.0,160.0,150.0,0.0,0.0
567,55.0,0.0,150.0,0.0,0.0
568,76.0,240.0,150.0,0.0,0.0
569,85.0,400.0,240.0,0.0,0.0
570,54.0,0.0,240.0,0.0,0.0
571,66.0,160.0,150.0,0.0,0.0
572,35.0,0.0,150.0,0.0,0.0
573,54.0,160.0,150.0,0.0,0.0
574,51.0,0.0,150.0,0.0,0.0
575,63.0,160.0,150.0,0.0,0.0
576,42.0,0.0,150.0,0.0,0.0
577,35.0,0.0,150.0,0.0,0.0
578,71.0,160.0,150.0,0.0,0.0
579,51.0,160.0,150.0,0.0,0.0
580,59.0,0.0,150.0,0.0,0.0
581,66.0,160.0,150.0,0.0,0.0
582,42.0,0.0,150.0,0.0,0.0
583,35.0,160.0,150.0,0.0,0.0
584,75.0,0.0,150.0,0.0,0.0
585,63.0,160.0,150.0,0.0,0.0
586,54.0,0.0,150.0,0.0,0.0
587,71.0,160.0,150.0,0.0,0.0
588,42.0,0.0,150.0,0.0,0.0
589,35.0,0.0,150.0,0.0,0.0
590,78.0,160.0,150.0,0.0,0.0
591,59.0,0.0,150.0,0.0,0.0
592,66.0,160.0,150.0,0.0,0.0
593,75.0,160.0,150.0,0.0,0.0
594,51.0,0.0,150.0,0.0,0.0
595,42.0,0.0,150.0,0.0,0.0
596,83.0,160.0,150.0,0.0,0.0
597,63.0,0.0,150.0,0.0,0.0
598,71.0,160.0,150.0,0.0,0.0
599,78.0,160.0,150.0,0.0,0.0
600,54.0,0.0,150.0,0.0,0.0
601,47.0,160.0,150.0,0.0,0.0
602,87.0,0.0,150.0,0.0,0.0
603,75.0,160.0,150.0,0.0,0.0
604,66.0,0.0,150.0,0.0,0.0
605,54.0,160.0,150.0,0.0,0.0
606,78.0,0.0,150.0,0.0,0.0
607,47.0,160.0,150.0,0.0,0.0
608,85.0,0.0,150.0,0.0,0.0
609,70.0,160.0,150.0,0.0,0.0
610,67.0,0.0,150.0,0.0,0.0
611,76.0,160.0,150.0,0.0,0.0
612,55.0,0.0,150.0,0.0,0.0
613,47.0,160.0,150.0,0.0,0.0
614,83.0,0.0,150.0,0.0,0.0
615,71.0,160.0,150.0,0.0,0.0
616,68.0,0.0,150.0,0.0,0.0
617,56.0,0.0,150.0,0.0,0.0
618,76.0,160.0,150.0,0.0,0.0
619,47.0,0.0,150.0,0.0,0.0
620,80.0,160.0,150.0,0.0,0.0
621,64.0,0.0,150.0,0.0,0.0
622,68.0,160.0,150.0,0.0,0.0
623,58.0,0.0,150.0,0.0,0.0
624,76.0,160.0,150.0,0.0,0.0
625,47.0,160.0,150.0,0.0,0.0
626,80.0,0.0,150.0,0.0,0.0
627,68.0,0.0,150.0,0.0,0.0
628,63.0,160.0,150.0,0.0,0.0
629,75.0,0.0,150.0,0.0,0.0
630,59.0,160.0,150.0,0.0,0.0
631,78.0,160.0,150.0,0.0,0.0
632,54.0,0.0,150.0,0.0,0.0
633,66.0,0.0,150.0,0.0,0.0
634,63.0,160.0,150.0,0.0,0.0
635,71.0,0.0,150.0,0.0,0.0
636,59.0,160.0,150.0,0.0,0.0
637,75.0,0.0,150.0,0.0,0.0
638,47.0,160.0,150.0,0.0,0.0
639,63.0,0.0,150.0,0.0,0.0
640,59.0,160.0,150.0,0.0,0.0
641,51.0,0.0,150.0,0.0,0.0
642,66.0,160.0,150.0,0.0,0.0
643,37.0,0.0,150.0,0.0,0.0
644,71.0,160.0,150.0,0.0,0.0
645,56.0,160.0,150.0,0.0,0.0
646,59.0,0.0,150.0,0.0,0.0
647,49.0,0.0,150.0,0.0,0.0
648,65.0,160.0,150.0,0.0,0.0
649,70.0,160.0,150.0,0.0,0.0
650,44.0,0.0,150.0,0.0,0.0
651,58.0,160.0,150.0,0.0,0.0
652,56.0,0.0,150.0,0.0,0.0
653,65.0,160.0,150.0,0.0,0.0
654,49.0,0.0,150.0,0.0,0.0
655,37.0,160.0,150.0,0.0,0.0
656,71.0,0.0,150.0,0.0,0.0
657,59.0,160.0,150.0,0.0,0.0
658,56.0,0.0,150.0,0.0,0.0
659,49.0,0.0,150.0,0.0,0.0
660,65.0,160.0,150.0,0.0,0.0
661,42.0,0.0,150.0,0.0,0.0
662,75.0,160.0,150.0,0.0,0.0
663,63.0,0.0,150.0,0.0,0.0
664,59.0,160.0,150.0,0.0,0.0
665,66.0,0.0,150.0,0.0,0.0
666,49.0,160.0,150.0,0.0,0.0
667,73.0,0.0,150.0,0.0,0.0
668,46.0,160.0,150.0,0.0,0.0
669,61.0,160.0,150.0,0.0,0.0
670,58.0,0.0,150.0,0.0,0.0
671,49.0,0.0,150.0,0.0,0.0
672,66.0,160.0,150.0,0.0,0.0
673,42.0,0.0,150.0,0.0,0.0
674,70.0,160.0,150.0,0.0,0.0
675,54.0,160.0,150.0,0.0,0.0
676,58.0,0.0,150.0,0.0,0.0
677,61.0,160.0,150.0,0.0,0.0
678,49.0,0.0,150.0,0.0,0.0
679,37.0,0.0,150.0,0.0,0.0
680,71.0,160.0,150.0,0.0,0.0
681,59.0,0.0,150.0,0.0,0.0
682,56.0,160.0,150.0,0.0,0.0
683,49.0,0.0,150.0,0.0,0.0
684,65.0,160.0,150.0,0.0,0.0
685,44.0,160.0,150.0,0.0,0.0
686,70.0,0.0,150.0,0.0,0.0
687,58.0,0.0,150.0,0.0,0.0
688,55.0,160.0,150.0,0.0,0.0
689,65.0,0.0,150.0,0.0,0.0
690,49.0,160.0,150.0,0.0,0.0
691,71.0,0.0,150.0,0.0,0.0
692,37.0,160.0,150.0,0.0,0.0
693,56.0,0.0,150.0,0.0,0.0
694,59.0,160.0,150.0,0.0,0.0
695,49.0,0.0,150.0,0.0,0.0
696,65.0,160.0,150.0,0.0,0.0
697,75.0,160.0,150.0,0.0,0.0
698,42.0,0.0,150.0,0.0,0.0
699,59.0,160.0,150.0,0.0,0.0
700,63.0,0.0,150.0,0.0,0.0
701,52.0,0.0,150.0,0.0,0.0
702,68.0,160.0,150.0,0.0,0.0
703,73.0,160.0,150.0,0.0,0.0
704,49.0,0.0,150.0,0.0,0.0
705,58.0,0.0,150.0,0.0,0.0
706,61.0,160.0,150.0,0.0,0.0
707,49.0,0.0,150.0,0.0,0.0
708,64.0,160.0,150.0,0.0,0.0
709,68.0,0.0,150.0,0.0,0.0
710,42.0,160.0,150.0,0.0,0.0
711,56.0,0.0,150.0,0.0,0.0
712,52.0,160.0,150.0,0.0,0.0
713,46.0,0.0,150.0,0.0,0.0
714,61.0,160.0,150.0,0.0,0.0
715,35.0,160.0,150.0,0.0,0.0
716,66.0,0.0,150.0,0.0,0.0
717,51.0,160.0,150.0,0.0,0.0
718,54.0,0.0,150.0,0.0,0.0
719,63.0,160.0,150.0,0.0,0.0
720,42.0,0.0,150.0,0.0,0.0
721,35.0,0.0,150.0,0.0,0.0
722,71.0,160.0,150.0,0.0,0.0
723,51.0,160.0,150.0,0.0,0.0
724,59.0,0.0,150.0,0.0,0.0
725,66.0,0.0,150.0,0.0,0.0
726,42.0,160.0,150.0,0.0,0.0
727,35.0,0.0,150.0,0.0,0.0
728,75.0,160.0,150.0,0.0,0.0
729,54.0,160.0,150.0,0.0,0.0
730,63.0,0.0,150.0,0.0,0.0
731,71.0,0.0,150.0,0.0,0.0
732,42.0,160.0,150.0,0.0,0.0
733,78.0,0.0,150.0,0.0,0.0
734,35.0,160.0,150.0,0.0,0.0
735,66.0,160.0,150.0,0.0,0.0
736,59.0,0.0,150.0,0.0,0.0
737,51.0,0.0,150.0,0.0,0.0
738,75.0,160.0,150.0,0.0,0.0
739,42.0,160.0,150.0,0.0,0.0
740,83.0,0.0,150.0,0.0,0.0
741,71.0,160.0,150.0,0.0,0.0
742,63.0,0.0,150.0,0.0,0.0
743,54.0,160.0,150.0,0.0,0.0
744,78.0,0.0,150.0,0.0,0.0
745,47.0,0.0,150.0,0.0,0.0
746,87.0,160.0,150.0,0.0,0.0
747,66.0,0.0,150.0,0.0,0.0
748,75.0,160.0,150.0,0.0,0.0
749,54.0,160.0,150.0,0.0,0.0
750,78.0,0.0,150.0,0.0,0.0
751,86.0,0.0,150.0,0.0,0.0
752,41.0,160.0,150.0,0.0,0.0
753,56.0,0.0,150.0,0.0,0.0
754,71.0,160.0,150.0,0.0,0.0
755,77.0,160.0,150.0,0.0,0.0
756,50.0,0.0,150.0,0.0,0.0
757,43.0,0.0,150.0,0.0,0.0
758,85.0,160.0,150.0,0.0,0.0
759,58.0,160.0,150.0,0.0,0.0
760,70.0,0.0,150.0,0.0,0.0
761,76.0,0.0,150.0,0.0,0.0
762,52.0,160.0,150.0,0.0,0.0
763,84.0,0.0,150.0,0.0,0.0
764,45.0,160.0,150.0,0.0,0.0
765,60.0,0.0,150.0,0.0,0.0
766,69.0,160.0,150.0,0.0,0.0
767,75.0,0.0,150.0,0.0,0.0
768,54.0,160.0,150.0,0.0,0.0
769,83.0,0.0,150.0,0.0,0.0
770,47.0,160.0,150.0,0.0,0.0
771,62.0,0.0,150.0,0.0,0.0
772,68.0,160.0,150.0,0.0,0.0
773,56.0,160.0,150.0,0.0,0.0
774,74.0,0.0,150.0,0.0,0.0
775,49.0,0.0,150.0,0.0,0.0
776,82.0,160.0,150.0,0.0,0.0
777,64.0,0.0,150.0,0.0,0.0
778,67.0,160.0,150.0,0.0,0.0
779,58.0,0.0,150.0,0.0,0.0
780,73.0,160.0,150.0,0.0,0.0
781,81.0,0.0,150.0,0.0,0.0
782,51.0,160.0,150.0,0.0,0.0
783,69.0,0.0,150.0,0.0,0.0
784,66.0,160.0,150.0,0.0,0.0
785,60.0,160.0,150.0,0.0,0.0
786,75.0,0.0,150.0,0.0,0.0
787,80.0,160.0,150.0,0.0,0.0
788,52.0,0.0,150.0,0.0,0.0
789,68.0,0.0,150.0,0.0,0.0
790,64.0,160.0,150.0,0.0,0.0
791,61.0,160.0,150.0,0.0,0.0
792,73.0,0.0,150.0,0.0,0.0
793,82.0,0.0,150.0,0.0,0.0
794,56.0,160.0,150.0,0.0,0.0
795,64.0,0.0,150.0,0.0,0.0
796,68.0,160.0,150.0,0.0,0.0
797,61.0,160.0,150.0,0.0,0.0
798,73.0,0.0,150.0,0.0,0.0
799,52.0,0.0,150.0,0.0,0.0
800,83.0,160.0,150.0,0.0,0.0
801,68.0,0.0,150.0,0.0,0.0
802,64.0,160.0,150.0,0.0,0.0
803,61.0,160.0,150.0,0.0,0.0
804,73.0,0.0,150.0,0.0,0.0
805,49.0,0.0,150.0,0.0,0.0
806,85.0,160.0,150.0,0.0,0.0
807,71.0,0.0,150.0,0.0,0.0
808,73.0,160.0,150.0,0.0,0.0
809,64.0,0.0,150.0,0.0,0.0
810,80.0,160.0,150.0,0.0,0.0
811,87.0,0.0,150.0,0.0,0.0
812,59.0,160.0,150.0,0.0,0.0
813,71.0,160.0,150.0,0.0,0.0
814,75.0,0.0,150.0,0.0,0.0
815,80.0,160.0,150.0,0.0,0.0
816,64.0,0.0,150.0,0.0,0.0
817,85.0,0.0,150.0,0.0,0.0
818,52.0,160.0,150.0,0.0,0.0
819,73.0,0.0,150.0,0.0,0.0
820,71.0,160.0,150.0,0.0,0.0
821,76.0,0.0,150.0,0.0,0.0
822,64.0,160.0,150.0,0.0,0.0
823,80.0,0.0,150.0,0.0,0.0
824,40.0,160.0,150.0,0.0,0.0
825,68.0,160.0,150.0,0.0,0.0
826,64.0,0.0,150.0,0.0,0.0
827,61.0,160.0,150.0,0.0,0.0
828,73.0,0.0,150.0,0.0,0.0
829,82.0,160.0,150.0,0.0,0.0
830,56.0,0.0,150.0,0.0,0.0
831,64.0,0.0,150.0,0.0,0.0
832,70.0,160.0,150.0,0.0,0.0
833,61.0,0.0,150.0,0.0,0.0
834,73.0,160.0,150.0,0.0,0.0
835,49.0,0.0,150.0,0.0,0.0
836,80.0,160.0,150.0,0.0,0.0
837,64.0,0.0,150.0,0.0,0.0
838,68.0,160.0,150.0,0.0,0.0
839,59.0,0.0,150.0,0.0,0.0
840,73.0,160.0,150.0,0.0,0.0
841,42.0,0.0,150.0,0.0,0.0
842,73.0,160.0,150.0,0.0,0.0
843,59.0,160.0,150.0,0.0,0.0
844,61.0,0.0,150.0,0.0,0.0
845,68.0,0.0,150.0,0.0,0.0
846,52.0,160.0,150.0,0.0,0.0
847,75.0,160.0,150.0,0.0,0.0
848,49.0,0.0,150.0,0.0,0.0
849,58.0,0.0,150.0,0.0,0.0
850,61.0,160.0,150.0,0.0,0.0
851,68.0,0.0,150.0,0.0,0.0
852,52.0,160.0,150.0,0.0,0.0
853,42.0,160.0,150.0,0.0,0.0
854,70.0,0.0,150.0,0.0,0.0
855,58.0,0.0,150.0,0.0,0.0
856,54.0,160.0,150.0,0.0,0.0
857,66.0,160.0,150.0,0.0,0.0
858,52.0,0.0,150.0,0.0,0.0
859,71.0,0.0,150.0,0.0,0.0
860,35.0,160.0,150.0,0.0,0.0
861,59.0,160.0,150.0,0.0,0.0
862,51.0,0.0,150.0,0.0,0.0
863,42.0,0.0,150.0,0.0,0.0
864,66.0,160.0,150.0,0.0,0.0
865,35.0,160.0,150.0,0.0,0.0
866,78.0,0.0,150.0,0.0,0.0
867,63.0,160.0,150.0,0.0,0.0
868,54.0,0.0,150.0,0.0,0.0
869,42.0,160.0,150.0,0.0,0.0
870,71.0,0.0,150.0,0.0,0.0
871,79.0,0.0,150.0,0.0,0.0
872,35.0,160.0,150.0,0.0,0.0
873,63.0,0.0,150.0,0.0,0.0
874,54.0,160.0,150.0,0.0,0.0
875,71.0,160.0,150.0,0.0,0.0
876,42.0,0.0,150.0,0.0,0.0
877,35.0,0.0,150.0,0.0,0.0
878,78.0,160.0,150.0,0.0,0.0
879,64.0,0.0,150.0,0.0,0.0
880,52.0,160.0,150.0,0.0,0.0
881,42.0,160.0,150.0,0.0,0.0
882,70.0,0.0,150.0,0.0,0.0
883,77.0,0.0,150.0,0.0,0.0
884,35.0,160.0,150.0,0.0,0.0
885,64.0,0.0,150.0,0.0,0.0
886,54.0,160.0,150.0,0.0,0.0
887,70.0,160.0,150.0,0.0,0.0
888,42.0,0.0,150.0,0.0,0.0
889,35.0,160.0,150.0,0.0,0.0
890,76.0,0.0,150.0,0.0,0.0
891,64.0,0.0,150.0,0.0,0.0
892,54.0,160.0,150.0,0.0,0.0
893,42.0,0.0,150.0,0.0,0.0
894,70.0,160.0,150.0,0.0,0.0
895,35.0,0.0,150.0,0.0,0.0
896,75.0,160.0,150.0,0.0,0.0
897,54.0,0.0,150.0,0.0,0.0
898,63.0,160.0,150.0,0.0,0.0
899,71.0,0.0,150.0,0.0,0.0
900,42.0,160.0,150.0,0.0,0.0
901,78.0,160.0,150.0,0.0,0.0
902,35.0,0.0,150.0,0.0,0.0
903,63.0,160.0,150.0,0.0,0.0
904,54.0,0.0,150.0,0.0,0.0
905,42.0,0.0,150.0,0.0,0.0
906,71.0,160.0,150.0,0.0,0.0
907,35.0,0.0,150.0,0.0,0.0
908,80.0,160.0,150.0,0.0,0.0
909,54.0,0.0,150.0,0.0,0.0
910,63.0,160.0,150.0,0.0,0.0
911,42.0,160.0,150.0,0.0,0.0
912,71.0,0.0,150.0,0.0,0.0
913,78.0,0.0,150.0,0.0,0.0
914,35.0,160.0,150.0,0.0,0.0
915,64.0,0.0,150.0,0.0,0.0
916,52.0,160.0,150.0,0.0,0.0
917,70.0,0.0,150.0,0.0,0.0
918,42.0,160.0,150.0,0.0,0.0
919,35.0,160.0,150.0,0.0,0.0
920,77.0,0.0,150.0,0.0,0.0
921,64.0,160.0,150.0,0.0,0.0
922,54.0,0.0,150.0,0.0,0.0
923,70.0,0.0,150.0,0.0,0.0
924,42.0,160.0,150.0,0.0,0.0
925,76.0,0.0,150.0,0.0,0.0
926,35.0,160.0,150.0,0.0,0.0
927,64.0,0.0,150.0,0.0,0.0
928,54.0,160.0,150.0,0.0,0.0
929,70.0,0.0,150.0,0.0,0.0
930,42.0,160.0,150.0,0.0,0.0
931,75.0,0.0,150.0,0.0,0.0
932,35.0,160.0,150.0,0.0,0.0
933,63.0,160.0,150.0,0.0,0.0
934,54.0,0.0,150.0,0.0,0.0
935,71.0,160.0,150.0,0.0,0.0
936,42.0,0.0,150.0,0.0,0.0
937,35.0,0.0,150.0,0.0,0.0
938,78.0,160.0,150.0,0.0,0.0
939,54.0,0.0,150.0,0.0,0.0
940,63.0,160.0,150.0,0.0,0.0
941,75.0,0.0,150.0,0.0,0.0
942,42.0,160.0,150.0,0.0,0.0
943,83.0,0.0,150.0,0.0,0.0
944,39.0,160.0,150.0,0.0,0.0
945,71.0,0.0,150.0,0.0,0.0
946,54.0,160.0,150.0,0.0,0.0
947,78.0,160.0,150.0,0.0,0.0
948,47.0,0.0,150.0,0.0,0.0
949,87.0,160.0,150.0,0.0,0.0
950,39.0,0.0,150.0,0.0,0.0
951,61.0,160.0,150.0,0.0,0.0
952,70.0,0.0,150.0,0.0,0.0
953,79.0,0.0,150.0,0.0,0.0
954,55.0,160.0,150.0,0.0,0.0
955,85.0,0.0,150.0,0.0,0.0
956,46.0,160.0,150.0,0.0,0.0
957,70.0,0.0,150.0,0.0,0.0
958,61.0,160.0,150.0,0.0,0.0
959,75.0,160.0,150.0,0.0,0.0
960,55.0,0.0,150.0,0.0,0.0
961,44.0,160.0,150.0,0.0,0.0
962,83.0,0.0,150.0,0.0,0.0
963,59.0,160.0,150.0,0.0,0.0
964,68.0,0.0,150.0,0.0,0.0
965,75.0,160.0,150.0,0.0,0.0
966,51.0,0.0,150.0,0.0,0.0
967,83.0,160.0,150.0,0.0,0.0
968,41.0,0.0,150.0,0.0,0.0
969,59.0,0.0,150.0,0.0,0.0
970,68.0,160.0,150.0,0.0,0.0
971,74.0,0.0,150.0,0.0,0.0
972,50.0,160.0,150.0,0.0,0.0
973,82.0,0.0,150.0,0.0,0.0
974,47.0,160.0,150.0,0.0,0.0
975,59.0,0.0,150.0,0.0,0.0
976,67.0,160.0,150.0,0.0,0.0
977,50.0,160.0,150.0,0.0,0.0
978,74.0,0.0,150.0,0.0,0.0
979,80.0,0.0,150.0,0.0,0.0
980,40.0,160.0,150.0,0.0,0.0
981,68.0,0.0,150.0,0.0,0.0
982,59.0,160.0,150.0,0.0,0.0
983,74.0,0.0,150.0,0.0,0.0
984,50.0,160.0,150.0,0.0,0.0
985,80.0,0.0,150.0,0.0,0.0
986,42.0,160.0,150.0,0.0,0.0
987,64.0,0.0,150.0,0.0,0.0
988,58.0,160.0,150.0,0.0,0.0
989,52.0,160.0,150.0,0.0,0.0
990,73.0,0.0,150.0,0.0,0.0
991,49.0,160.0,150.0,0.0,0.0
992,78.0,0.0,150.0,0.0,0.0
993,63.0,160.0,150.0,0.0,0.0
994,58.0,0.0,150.0,0.0,0.0
995,68.0,160.0,150.0,0.0,0.0
996,52.0,0.0,150.0,0.0,0.0
997,76.0,0.0,150.0,0.0,0.0
998,42.0,160.0,150.0,0.0,0.0
999,61.0,160.0,150.0,0.0,0.0
1000,54.0,0.0,150.0,0.0,0.0
1001,70.0,0.0,150.0,0.0,0.0
1002,52.0,160.0,150.0,0.0,0.0
1003,75.0,0.0,150.0,0.0,0.0
1004,35.0,160.0,150.0,0.0,0.0
1005,51.0,0.0,150.0,0.0,0.0
1006,59.0,160.0,150.0,0.0,0.0
1007,42.0,0.0,150.0,0.0,0.0
1008,71.0,160.0,150.0,0.0,0.0
1009,78.0,0.0,150.0,0.0,0.0
1010,35.0,160.0,150.0,0.0,0.0
1011,54.0,160.0,150.0,0.0,0.0
1012,63.0,0.0,150.0,0.0,0.0
1013,71.0,160.0,150.0,0.0,0.0
1014,42.0,0.0,150.0,0.0,0.0
1015,35.0,160.0,150.0,0.0,0.0
1016,79.0,0.0,150.0,0.0,0.0
1017,63.0,160.0,150.0,0.0,0.0
1018,54.0,0.0,150.0,0.0,0.0
1019,42.0,0.0,150.0,0.0,0.0
1020,71.0,160.0,150.0,0.0,0.0
1021,78.0,160.0,150.0,0.0,0.0
1022,35.0,0.0,150.0,0.0,0.0
1023,64.0,160.0,150.0,0.0,0.0
1024,52.0,0.0,150.0,0.0,0.0
1025,42.0,160.0,150.0,0.0,0.0
1026,70.0,0.0,150.0,0.0,0.0
1027,35.0,0.0,150.0,0.0,0.0
1028,77.0,160.0,150.0,0.0,0.0
1029,54.0,0.0,150.0,0.0,0.0
1030,64.0,160.0,150.0,0.0,0.0
1031,42.0,160.0,150.0,0.0,0.0
1032,70.0,0.0,150.0,0.0,0.0
1033,76.0,160.0,150.0,0.0,0.0
1034,35.0,0.0,150.0,0.0,0.0
1035,54.0,0.0,150.0,0.0,0.0
1036,64.0,160.0,150.0,0.0,0.0
1037,42.0,160.0,150.0,0.0,0.0
1038,70.0,0.0,150.0,0.0,0.0
1039,35.0,0.0,150.0,0.0,0.0
1040,75.0,160.0,150.0,0.0,0.0
1041,54.0,0.0,150.0,0.0,0.0
1042,63.0,160.0,150.0,0.0,0.0
1043,71.0,0.0,150.0,0.0,0.0
1044,42.0,160.0,150.0,0.0,0.0
1045,78.0,0.0,150.0,0.0,0.0
1046,35.0,160.0,150.0,0.0,0.0
1047,63.0,160.0,150.0,0.0,0.0
1048,54.0,0.0,150.0,0.0,0.0
1049,42.0,160.0,150.0,0.0,0.0
1050,71.0,0.0,150.0,0.0,0.0
1051,35.0,160.0,150.0,0.0,0.0
1052,80.0,0.0,150.0,0.0,0.0
1053,63.0,160.0,150.0,0.0,0.0
1054,54.0,0.0,150.0,0.0,0.0
1055,42.0,160.0,150.0,0.0,0.0
1056,71.0,0.0,150.0,0.0,0.0
1057,35.0,160.0,150.0,0.0,0.0
1058,78.0,0.0,150.0,0.0,0.0
1059,64.0,0.0,150.0,0.0,0.0
1060,52.0,160.0,150.0,0.0,0.0
1061,70.0,0.0,150.0,0.0,0.0
1062,42.0,160.0,150.0,0.0,0.0
1063,77.0,0.0,150.0,0.0,0.0
1064,35.0,160.0,150.0,0.0,0.0
1065,64.0,160.0,150.0,0.0,0.0
1066,54.0,0.0,150.0,0.0,0.0
1067,42.0,0.0,150.0,0.0,0.0
1068,70.0,160.0,150.0,0.0,0.0
1069,76.0,160.0,150.0,0.0,0.0
1070,35.0,0.0,150.0,0.0,0.0
1071,64.0,0.0,150.0,0.0,0.0
1072,54.0,160.0,150.0,0.0,0.0
1073,70.0,0.0,150.0,0.0,0.0
1074,42.0,160.0,150.0,0.0,0.0
1075,75.0,160.0,150.0,0.0,0.0
1076,35.0,0.0,150.0,0.0,0.0
1077,63.0,0.0,150.0,0.0,0.0
1078,54.0,160.0,150.0,0.0,0.0
1079,71.0,160.0,150.0,0.0,0.0
1080,42.0,0.0,150.0,0.0,0.0
1081,78.0,0.0,150.0,0.0,0.0
1082,35.0,160.0,150.0,0.0,0.0
1083,54.0,0.0,150.0,0.0,0.0
1084,66.0,160.0,150.0,0.0,0.0
1085,75.0,160.0,150.0,0.0,0.0
1086,42.0,0.0,150.0,0.0,0.0
1087,35.0,160.0,150.0,0.0,0.0
1088,83.0,0.0,150.0,0.0,0.0
1089,54.0,0.0,150.0,0.0,0.0
1090,71.0,160.0,150.0,0.0,0.0
1091,47.0,0.0,150.0,0.0,0.0
1092,78.0,160.0,150.0,0.0,0.0
1093,87.0,160.0,150.0,0.0,0.0
1094,27.0,0.0,150.0,0.0,0.0
1095,70.0,0.0,150.0,0.0,0.0
1096,55.0,160.0,150.0,0.0,0.0
1097,79.0,160.0,150.0,0.0,0.0
1098,49.0,0.0,150.0,0.0,0.0
1099,39.0,160.0,150.0,0.0,0.0
1100,85.0,0.0,150.0,0.0,0.0
1101,55.0,0.0,150.0,0.0,0.0
1102,70.0,160.0,150.0,0.0,0.0
1103,49.0,0.0,150.0,0.0,0.0
1104,79.0,160.0,150.0,0.0,0.0
1105,84.0,0.0,150.0,0.0,0.0
1106,40.0,160.0,150.0,0.0,0.0
1107,70.0,160.0,150.0,0.0,0.0
1108,55.0,0.0,150.0,0.0,0.0
1109,48.0,0.0,150.0,0.0,0.0
1110,79.0,160.0,150.0,0.0,0.0
1111,84.0,0.0,150.0,0.0,0.0
1112,41.0,160.0,150.0,0.0,0.0
1113,69.0,160.0,150.0,0.0,0.0
1114,57.0,0.0,150.0,0.0,0.0
1115,77.0,160.0,150.0,0.0,0.0
1116,48.0,0.0,150.0,0.0,0.0
1117,41.0,160.0,150.0,0.0,0.0
1118,83.0,0.0,150.0,0.0,0.0
1119,68.0,0.0,150.0,0.0,0.0
1120,56.0,160.0,150.0,0.0,0.0
1121,49.0,0.0,150.0,0.0,0.0
1122,77.0,160.0,150.0,0.0,0.0
1123,80.0,0.0,150.0,0.0,0.0
1124,41.0,160.0,150.0,0.0,0.0
1125,65.0,160.0,150.0,0.0,0.0
1126,59.0,0.0,150.0,0.0,0.0
1127,50.0,0.0,150.0,0.0,0.0
1128,71.0,160.0,150.0,0.0,0.0
1129,42.0,160.0,150.0,0.0,0.0
1130,80.0,0.0,150.0,0.0,0.0
1131,65.0,0.0,150.0,0.0,0.0
1132,59.0,160.0,150.0,0.0,0.0
1133,71.0,160.0,150.0,0.0,0.0
1134,50.0,0.0,150.0,0.0,0.0
1135,42.0,160.0,150.0,0.0,0.0
1136,78.0,0.0,150.0,0.0,0.0
1137,66.0,0.0,150.0,0.0,0.0
1138,59.0,160.0,150.0,0.0,0.0
1139,71.0,160.0,150.0,0.0,0.0
1140,51.0,0.0,150.0,0.0,0.0
1141,30.0,160.0,150.0,0.0,0.0
1142,70.0,0.0,150.0,0.0,0.0
1143,52.0,160.0,150.0,0.0,0.0
1144,58.0,0.0,150.0,0.0,0.0
1145,66.0,0.0,150.0,0.0,0.0
1146,42.0,160.0,150.0,0.0,0.0
1147,71.0,160.0,150.0,0.0,0.0
1148,35.0,0.0,150.0,0.0,0.0
1149,51.0,160.0,150.0,0.0,0.0
1150,59.0,0.0,150.0,0.0,0.0
1151,42.0,0.0,150.0,0.0,0.0
1152,66.0,160.0,150.0,0.0,0.0
1153,35.0,160.0,150.0,0.0,0.0
1154,78.0,0.0,150.0,0.0,0.0
1155,59.0,160.0,150.0,0.0,0.0
1156,54.0,0.0,150.0,0.0,0.0
1157,66.0,160.0,150.0,0.0,0.0
1158,42.0,0.0,150.0,0.0,0.0
1159,35.0,0.0,150.0,0.0,0.0
1160,71.0,160.0,150.0,0.0,0.0
1161,51.0,160.0,150.0,0.0,0.0
1162,59.0,0.0,150.0,0.0,0.0
1163,66.0,0.0,150.0,0.0,0.0
1164,42.0,160.0,150.0,0.0,0.0
1165,77.0,160.0,150.0,0.0,0.0
1166,35.0,0.0,150.0,0.0,0.0
1167,59.0,0.0,150.0,0.0,0.0
1168,54.0,160.0,150.0,0.0,0.0
1169,66.0,160.0,150.0,0.0,0.0
1170,42.0,0.0,150.0,0.0,0.0
1171,71.0,0.0,150.0,0.0,0.0
1172,35.0,160.0,150.0,0.0,0.0
1173,51.0,0.0,150.0,0.0,0.0
1174,59.0,160.0,150.0,0.0,0.0
1175,66.0,160.0,150.0,0.0,0.0
1176,42.0,0.0,150.0,0.0,0.0
1177,76.0,0.0,150.0,0.0,0.0
1178,35.0,160.0,150.0,0.0,0.0
1179,59.0,0.0,150.0,0.0,0.0
1180,54.0,160.0,150.0,0.0,0.0
1181,66.0,160.0,150.0,0.0,0.0
1182,42.0,0.0,150.0,0.0,0.0
1183,35.0,160.0,150.0,0.0,0.0
1184,71.0,0.0,150.0,0.0,0.0
1185,59.0,0.0,150.0,0.0,0.0
1186,51.0,160.0,150.0,0.0,0.0
1187,66.0,160.0,150.0,0.0,0.0
1188,42.0,0.0,150.0,0.0,0.0
1189,35.0,160.0,150.0,0.0,0.0
1190,75.0,0.0,150.0,0.0,0.0
1191,59.0,0.0,150.0,0.0,0.0
1192,54.0,160.0,150.0,0.0,0.0
1193,66.0,0.0,150.0,0.0,0.0
1194,42.0,160.0,150.0,0.0,0.0
1195,35.0,160.0,150.0,0.0,0.0
1196,71.0,0.0,150.0,0.0,0.0
1197,51.0,160.0,150.0,0.0,0.0
1198,59.0,0.0,150.0,0.0,0.0
1199,66.0,160.0,150.0,0.0,0.0
1200,42.0,0.0,150.0,0.0,0.0
1201,35.0,0.0,150.0,0.0,0.0
1202,74.0,160.0,150.0,0.0,0.0
1203,54.0,0.0,150.0,0.0,0.0
1204,59.0,160.0,150.0,0.0,0.0
1205,66.0,0.0,150.0,0.0,0.0
1206,42.0,160.0,150.0,0.0,0.0
1207,71.0,0.0,150.0,0.0,0.0
1208,35.0,160.0,150.0,0.0,0.0
1209,59.0,160.0,150.0,0.0,0.0
1210,51.0,0.0,150.0,0.0,0.0
1211,42.0,160.0,150.0,0.0,0.0
1212,66.0,0.0,150.0,0.0,0.0
1213,75.0,160.0,150.0,0.0,0.0
1214,35.0,0.0,150.0,0.0,0.0
1215,59.0,160.0,150.0,0.0,0.0
1216,54.0,0.0,150.0,0.0,0.0
1217,42.0,480.0,150.0,0.0,0.0
1218,66.0,0.0,150.0,0.0,0.0
1219,71.0,0.0,480.0,0.0,0.0
1220,35.0,1440.0,480.0,0.0,0.0
1221,63.0,0.0,480.0,0.0,0.0
1222,66.0,0.0,480.0,0.0,0.0
1223,71.0,0.0,480.0,0.0,0.0
1224,75.0,2400.0,480.0,0.0,0.0
1225,95.0,0.0,480.0,0.0,0.0
1226,83.0,0.0,480.0,0.0,0.0
1227,90.0,0.0,480.0,0.0,0.0
1228,35.0,0.0,1440.0,0.0,0.0
1229,42.0,0.0,1440.0,0.0,0.0
1230,47.0,0.0,1440.0,0.0,0.0
1231,59.0,0.0,1440.0,0.0,0.0
1232,54.0,1440.0,1440.0,0.0,0.0
1233,51.0,0.0,1440.0,0.0,0.0
1234,63.0,0.0,1440.0,0.0,0.0
