,note,step,duration,channel,velocity
0,65.0,52.0,120.0,0.0,0.0
1,46.0,9.0,120.0,0.0,0.0
2,62.0,27.0,60.0,0.0,0.0
3,69.0,17.0,30.0,0.0,0.0
4,58.0,73.0,15.0,0.0,0.0
5,53.0,1.0,15.0,0.0,0.0
6,50.0,0.0,15.0,0.0,0.0
7,70.0,37.0,90.0,0.0,0.0
8,72.0,26.0,60.0,0.0,0.0
9,50.0,1.0,15.0,0.0,0.0
10,58.0,0.0,15.0,0.0,0.0
11,53.0,1.0,15.0,0.0,0.0
12,74.0,47.0,40.0,0.0,0.0
13,75.0,41.0,30.0,0.0,0.0
14,74.0,32.0,30.0,0.0,0.0
15,41.0,17.0,15.0,0.0,0.0
16,75.0,72.0,40.0,0.0,0.0
17,74.0,43.0,120.0,0.0,0.0
18,53.0,1.0,15.0,0.0,0.0
19,48.0,1.0,15.0,0.0,0.0
20,72.0,59.0,60.0,0.0,0.0
21,57.0,19.0,15.0,0.0,0.0
22,70.0,3.0,60.0,0.0,0.0
23,69.0,67.0,60.0,0.0,0.0
24,57.0,0.0,15.0,0.0,0.0
25,48.0,34.0,20.0,0.0,0.0
26,53.0,7.0,15.0,0.0,0.0
27,67.0,28.0,60.0,0.0,0.0
28,65.0,13.0,90.0,0.0,0.0
29,34.0,54.0,30.0,0.0,0.0
30,70.0,36.0,30.0,0.0,0.0
31,53.0,20.0,15.0,0.0,0.0
32,46.0,0.0,15.0,0.0,0.0
33,70.0,36.0,30.0,0.0,0.0
34,58.0,0.0,30.0,0.0,0.0
35,72.0,43.0,40.0,0.0,0.0
36,70.0,0.0,60.0,0.0,0.0
37,69.0,81.0,60.0,0.0,0.0
38,46.0,56.0,15.0,0.0,0.0
39,58.0,2.0,15.0,0.0,0.0
40,53.0,1.0,15.0,0.0,0.0
41,67.0,27.0,90.0,0.0,0.0
42,69.0,46.0,270.0,0.0,0.0
43,41.0,113.0,40.0,0.0,0.0
44,65.0,0.0,30.0,0.0,0.0
45,60.0,0.0,30.0,0.0,0.0
46,53.0,102.0,30.0,0.0,0.0
47,65.0,97.0,120.0,0.0,0.0
48,63.0,3.0,60.0,0.0,0.0
49,60.0,0.0,60.0,0.0,0.0
50,53.0,57.0,60.0,0.0,0.0
51,65.0,21.0,90.0,0.0,0.0
52,46.0,20.0,90.0,0.0,0.0
53,69.0,14.0,60.0,0.0,0.0
54,50.0,69.0,15.0,0.0,0.0
55,58.0,0.0,15.0,0.0,0.0
56,53.0,0.0,15.0,0.0,0.0
57,70.0,43.0,90.0,0.0,0.0
58,72.0,0.0,60.0,0.0,0.0
59,58.0,1.0,15.0,0.0,0.0
60,50.0,3.0,15.0,0.0,0.0
61,74.0,58.0,30.0,0.0,0.0
62,53.0,21.0,15.0,0.0,0.0
63,75.0,46.0,20.0,0.0,0.0
64,39.0,3.0,20.0,0.0,0.0
65,74.0,39.0,20.0,0.0,0.0
66,75.0,73.0,30.0,0.0,0.0
67,74.0,44.0,90.0,0.0,0.0
68,60.0,10.0,15.0,0.0,0.0
69,55.0,0.0,15.0,0.0,0.0
70,72.0,60.0,60.0,0.0,0.0
71,70.0,3.0,60.0,0.0,0.0
72,69.0,59.0,60.0,0.0,0.0
73,60.0,20.0,15.0,0.0,0.0
74,55.0,18.0,30.0,0.0,0.0
75,51.0,8.0,40.0,0.0,0.0
76,67.0,27.0,60.0,0.0,0.0
77,65.0,11.0,90.0,0.0,0.0
78,41.0,55.0,30.0,0.0,0.0
79,69.0,32.0,30.0,0.0,0.0
80,60.0,1.0,15.0,0.0,0.0
81,53.0,16.0,15.0,0.0,0.0
82,69.0,42.0,20.0,0.0,0.0
83,70.0,64.0,40.0,0.0,0.0
84,69.0,12.0,90.0,0.0,0.0
85,67.0,70.0,60.0,0.0,0.0
86,60.0,1.0,15.0,0.0,0.0
87,53.0,37.0,20.0,0.0,0.0
88,65.0,34.0,60.0,0.0,0.0
89,70.0,63.0,360.0,0.0,0.0
90,34.0,106.0,40.0,0.0,0.0
91,58.0,13.0,30.0,0.0,0.0
92,53.0,1.0,30.0,0.0,0.0
93,62.0,201.0,40.0,0.0,0.0
94,46.0,10.0,15.0,0.0,0.0
95,46.0,2.0,180.0,0.0,0.0
96,62.0,0.0,180.0,0.0,0.0
97,58.0,17.0,180.0,0.0,0.0
98,53.0,0.0,180.0,0.0,0.0
99,65.0,22.0,60.0,0.0,0.0
100,69.0,30.0,30.0,0.0,0.0
101,53.0,3.0,15.0,0.0,0.0
102,58.0,15.0,15.0,0.0,0.0
103,46.0,25.0,30.0,0.0,0.0
104,70.0,46.0,40.0,0.0,0.0
105,72.0,24.0,40.0,0.0,0.0
106,58.0,1.0,15.0,0.0,0.0
107,74.0,44.0,60.0,0.0,0.0
108,46.0,33.0,20.0,0.0,0.0
109,53.0,7.0,15.0,0.0,0.0
110,75.0,29.0,30.0,0.0,0.0
111,41.0,19.0,20.0,0.0,0.0
112,74.0,13.0,15.0,0.0,0.0
113,75.0,97.0,30.0,0.0,0.0
114,74.0,29.0,120.0,0.0,0.0
115,53.0,2.0,15.0,0.0,0.0
116,48.0,2.0,15.0,0.0,0.0
117,57.0,8.0,15.0,0.0,0.0
118,72.0,69.0,40.0,0.0,0.0
119,70.0,14.0,60.0,0.0,0.0
120,69.0,56.0,60.0,0.0,0.0
121,48.0,19.0,40.0,0.0,0.0
122,57.0,19.0,15.0,0.0,0.0
123,53.0,2.0,15.0,0.0,0.0
124,67.0,31.0,60.0,0.0,0.0
125,34.0,58.0,30.0,0.0,0.0
126,65.0,40.0,90.0,0.0,0.0
127,70.0,9.0,15.0,0.0,0.0
128,46.0,0.0,30.0,0.0,0.0
129,53.0,19.0,15.0,0.0,0.0
130,58.0,33.0,30.0,0.0,0.0
131,72.0,61.0,40.0,0.0,0.0
132,70.0,11.0,60.0,0.0,0.0
133,69.0,80.0,60.0,0.0,0.0
134,58.0,4.0,30.0,0.0,0.0
135,53.0,15.0,15.0,0.0,0.0
136,46.0,23.0,30.0,0.0,0.0
137,67.0,25.0,60.0,0.0,0.0
138,69.0,54.0,240.0,0.0,0.0
139,41.0,138.0,40.0,0.0,0.0
140,65.0,0.0,60.0,0.0,0.0
141,53.0,65.0,60.0,0.0,0.0
142,57.0,0.0,60.0,0.0,0.0
143,60.0,0.0,60.0,0.0,0.0
144,53.0,7.0,240.0,0.0,0.0
145,63.0,139.0,60.0,0.0,0.0
146,65.0,1.0,60.0,0.0,0.0
147,65.0,32.0,60.0,0.0,0.0
148,46.0,53.0,120.0,0.0,0.0
149,69.0,9.0,40.0,0.0,0.0
150,58.0,4.0,60.0,0.0,0.0
151,70.0,54.0,90.0,0.0,0.0
152,53.0,15.0,60.0,0.0,0.0
153,72.0,9.0,60.0,0.0,0.0
154,58.0,3.0,30.0,0.0,0.0
155,74.0,23.0,60.0,0.0,0.0
156,46.0,6.0,20.0,0.0,0.0
157,53.0,37.0,30.0,0.0,0.0
158,75.0,39.0,30.0,0.0,0.0
159,39.0,23.0,30.0,0.0,0.0
160,74.0,15.0,15.0,0.0,0.0
161,75.0,101.0,30.0,0.0,0.0
162,74.0,35.0,120.0,0.0,0.0
163,72.0,66.0,60.0,0.0,0.0
164,55.0,0.0,20.0,0.0,0.0
165,60.0,1.0,20.0,0.0,0.0
166,70.0,3.0,60.0,0.0,0.0
167,51.0,24.0,40.0,0.0,0.0
168,55.0,11.0,30.0,0.0,0.0
169,60.0,14.0,15.0,0.0,0.0
170,69.0,57.0,60.0,0.0,0.0
171,67.0,28.0,60.0,0.0,0.0
172,65.0,11.0,90.0,0.0,0.0
173,41.0,57.0,30.0,0.0,0.0
174,69.0,32.0,40.0,0.0,0.0
175,69.0,50.0,15.0,0.0,0.0
176,53.0,6.0,15.0,0.0,0.0
177,60.0,0.0,15.0,0.0,0.0
178,70.0,54.0,40.0,0.0,0.0
179,69.0,5.0,60.0,0.0,0.0
180,67.0,65.0,60.0,0.0,0.0
181,53.0,43.0,20.0,0.0,0.0
182,60.0,1.0,15.0,0.0,0.0
183,65.0,29.0,60.0,0.0,0.0
184,70.0,12.0,270.0,0.0,0.0
185,34.0,96.0,30.0,0.0,0.0
186,53.0,8.0,15.0,0.0,0.0
187,58.0,0.0,15.0,0.0,0.0
188,62.0,128.0,15.0,0.0,0.0
189,46.0,4.0,20.0,0.0,0.0
190,53.0,2.0,20.0,0.0,0.0
191,62.0,147.0,40.0,0.0,0.0
192,60.0,53.0,60.0,0.0,0.0
193,41.0,3.0,120.0,0.0,0.0
194,64.0,12.0,40.0,0.0,0.0
195,48.0,1.0,15.0,0.0,0.0
196,53.0,66.0,15.0,0.0,0.0
197,65.0,55.0,60.0,0.0,0.0
198,67.0,1.0,60.0,0.0,0.0
199,69.0,20.0,60.0,0.0,0.0
200,48.0,0.0,20.0,0.0,0.0
201,53.0,8.0,15.0,0.0,0.0
202,41.0,49.0,20.0,0.0,0.0
203,70.0,35.0,30.0,0.0,0.0
204,69.0,15.0,15.0,0.0,0.0
205,36.0,26.0,20.0,0.0,0.0
206,70.0,89.0,30.0,0.0,0.0
207,69.0,31.0,120.0,0.0,0.0
208,67.0,71.0,40.0,0.0,0.0
209,55.0,4.0,15.0,0.0,0.0
210,48.0,1.0,15.0,0.0,0.0
211,65.0,59.0,60.0,0.0,0.0
212,53.0,4.0,15.0,0.0,0.0
213,48.0,2.0,15.0,0.0,0.0
214,41.0,1.0,15.0,0.0,0.0
215,64.0,49.0,60.0,0.0,0.0
216,62.0,18.0,60.0,0.0,0.0
217,60.0,21.0,60.0,0.0,0.0
218,36.0,46.0,15.0,0.0,0.0
219,65.0,37.0,20.0,0.0,0.0
220,53.0,1.0,15.0,0.0,0.0
221,57.0,52.0,15.0,0.0,0.0
222,65.0,1.0,15.0,0.0,0.0
223,48.0,0.0,15.0,0.0,0.0
224,67.0,60.0,30.0,0.0,0.0
225,65.0,3.0,90.0,0.0,0.0
226,48.0,0.0,15.0,0.0,0.0
227,57.0,50.0,15.0,0.0,0.0
228,64.0,74.0,60.0,0.0,0.0
229,53.0,2.0,15.0,0.0,0.0
230,62.0,16.0,60.0,0.0,0.0
231,36.0,127.0,20.0,0.0,0.0
232,64.0,62.0,240.0,0.0,0.0
233,48.0,0.0,30.0,0.0,0.0
234,55.0,0.0,30.0,0.0,0.0
235,60.0,92.0,30.0,0.0,0.0
236,60.0,72.0,120.0,0.0,0.0
237,55.0,0.0,60.0,0.0,0.0
238,58.0,2.0,60.0,0.0,0.0
239,48.0,58.0,60.0,0.0,0.0
240,60.0,37.0,60.0,0.0,0.0
241,41.0,21.0,120.0,0.0,0.0
242,64.0,5.0,40.0,0.0,0.0
243,53.0,0.0,15.0,0.0,0.0
244,57.0,45.0,30.0,0.0,0.0
245,65.0,55.0,60.0,0.0,0.0
246,48.0,20.0,15.0,0.0,0.0
247,67.0,19.0,60.0,0.0,0.0
248,41.0,1.0,15.0,0.0,0.0
249,69.0,43.0,40.0,0.0,0.0
250,48.0,0.0,15.0,0.0,0.0
251,57.0,13.0,30.0,0.0,0.0
252,53.0,0.0,15.0,0.0,0.0
253,70.0,58.0,30.0,0.0,0.0
254,69.0,10.0,20.0,0.0,0.0
255,34.0,25.0,30.0,0.0,0.0
256,70.0,72.0,30.0,0.0,0.0
257,69.0,3.0,120.0,0.0,0.0
258,46.0,19.0,30.0,0.0,0.0
259,50.0,16.0,15.0,0.0,0.0
260,67.0,74.0,60.0,0.0,0.0
261,55.0,4.0,15.0,0.0,0.0
262,65.0,8.0,60.0,0.0,0.0
263,64.0,52.0,60.0,0.0,0.0
264,55.0,14.0,15.0,0.0,0.0
265,50.0,4.0,20.0,0.0,0.0
266,46.0,39.0,30.0,0.0,0.0
267,62.0,20.0,60.0,0.0,0.0
268,36.0,39.0,20.0,0.0,0.0
269,60.0,20.0,60.0,0.0,0.0
270,64.0,45.0,20.0,0.0,0.0
271,64.0,2.0,15.0,0.0,0.0
272,48.0,14.0,15.0,0.0,0.0
273,58.0,38.0,20.0,0.0,0.0
274,55.0,0.0,15.0,0.0,0.0
275,65.0,61.0,30.0,0.0,0.0
276,64.0,5.0,60.0,0.0,0.0
277,58.0,29.0,20.0,0.0,0.0
278,55.0,0.0,15.0,0.0,0.0
279,62.0,70.0,60.0,0.0,0.0
280,48.0,7.0,15.0,0.0,0.0
281,60.0,35.0,60.0,0.0,0.0
282,65.0,48.0,390.0,0.0,0.0
283,29.0,101.0,30.0,0.0,0.0
284,48.0,1.0,15.0,0.0,0.0
285,41.0,19.0,15.0,0.0,0.0
286,53.0,0.0,15.0,0.0,0.0
287,57.0,112.0,30.0,0.0,0.0
288,41.0,1.0,20.0,0.0,0.0
289,48.0,2.0,20.0,0.0,0.0
290,53.0,35.0,20.0,0.0,0.0
291,57.0,73.0,60.0,0.0,0.0
292,41.0,7.0,120.0,0.0,0.0
293,60.0,42.0,40.0,0.0,0.0
294,64.0,27.0,30.0,0.0,0.0
295,48.0,7.0,15.0,0.0,0.0
296,65.0,50.0,60.0,0.0,0.0
297,53.0,47.0,15.0,0.0,0.0
298,67.0,23.0,60.0,0.0,0.0
299,69.0,56.0,40.0,0.0,0.0
300,41.0,10.0,30.0,0.0,0.0
301,53.0,5.0,15.0,0.0,0.0
302,48.0,7.0,15.0,0.0,0.0
303,70.0,35.0,40.0,0.0,0.0
304,69.0,9.0,20.0,0.0,0.0
305,36.0,27.0,30.0,0.0,0.0
306,70.0,80.0,30.0,0.0,0.0
307,69.0,25.0,120.0,0.0,0.0
308,48.0,0.0,15.0,0.0,0.0
309,55.0,16.0,15.0,0.0,0.0
310,67.0,69.0,40.0,0.0,0.0
311,65.0,9.0,60.0,0.0,0.0
312,55.0,5.0,15.0,0.0,0.0
313,48.0,49.0,20.0,0.0,0.0
314,64.0,40.0,60.0,0.0,0.0
315,62.0,45.0,60.0,0.0,0.0
316,41.0,19.0,120.0,0.0,0.0
317,60.0,35.0,40.0,0.0,0.0
318,65.0,29.0,20.0,0.0,0.0
319,53.0,14.0,15.0,0.0,0.0
320,65.0,36.0,20.0,0.0,0.0
321,48.0,1.0,15.0,0.0,0.0
322,67.0,75.0,30.0,0.0,0.0
323,65.0,62.0,90.0,0.0,0.0
324,64.0,66.0,90.0,0.0,0.0
325,53.0,2.0,15.0,0.0,0.0
326,48.0,1.0,15.0,0.0,0.0
327,41.0,3.0,15.0,0.0,0.0
328,62.0,19.0,60.0,0.0,0.0
329,36.0,100.0,30.0,0.0,0.0
330,64.0,14.0,240.0,0.0,0.0
331,48.0,112.0,15.0,0.0,0.0
332,60.0,0.0,15.0,0.0,0.0
333,55.0,0.0,15.0,0.0,0.0
334,58.0,3.0,20.0,0.0,0.0
335,48.0,58.0,30.0,0.0,0.0
336,55.0,10.0,20.0,0.0,0.0
337,60.0,102.0,90.0,0.0,0.0
338,41.0,6.0,120.0,0.0,0.0
339,60.0,35.0,60.0,0.0,0.0
340,64.0,10.0,40.0,0.0,0.0
341,53.0,2.0,15.0,0.0,0.0
342,48.0,60.0,15.0,0.0,0.0
343,65.0,56.0,60.0,0.0,0.0
344,67.0,1.0,60.0,0.0,0.0
345,53.0,3.0,15.0,0.0,0.0
346,41.0,50.0,20.0,0.0,0.0
347,69.0,22.0,60.0,0.0,0.0
348,48.0,9.0,15.0,0.0,0.0
349,70.0,32.0,40.0,0.0,0.0
350,69.0,11.0,15.0,0.0,0.0
351,34.0,31.0,20.0,0.0,0.0
352,70.0,88.0,30.0,0.0,0.0
353,69.0,1.0,120.0,0.0,0.0
354,50.0,30.0,30.0,0.0,0.0
355,55.0,1.0,15.0,0.0,0.0
356,67.0,68.0,60.0,0.0,0.0
357,58.0,8.0,15.0,0.0,0.0
358,65.0,7.0,60.0,0.0,0.0
359,50.0,7.0,40.0,0.0,0.0
360,64.0,49.0,60.0,0.0,0.0
361,57.0,12.0,15.0,0.0,0.0
362,55.0,15.0,20.0,0.0,0.0
363,46.0,27.0,40.0,0.0,0.0
364,62.0,27.0,60.0,0.0,0.0
365,36.0,45.0,30.0,0.0,0.0
366,60.0,17.0,60.0,0.0,0.0
367,64.0,39.0,30.0,0.0,0.0
368,48.0,7.0,15.0,0.0,0.0
369,64.0,61.0,15.0,0.0,0.0
370,55.0,2.0,15.0,0.0,0.0
371,65.0,46.0,40.0,0.0,0.0
372,64.0,4.0,60.0,0.0,0.0
373,62.0,81.0,60.0,0.0,0.0
374,48.0,1.0,15.0,0.0,0.0
375,55.0,43.0,15.0,0.0,0.0
376,60.0,26.0,60.0,0.0,0.0
377,65.0,47.0,360.0,0.0,0.0
378,29.0,148.0,20.0,0.0,0.0
379,53.0,0.0,60.0,0.0,0.0
380,57.0,97.0,60.0,0.0,0.0
381,60.0,0.0,60.0,0.0,0.0
382,63.0,1.0,30.0,0.0,0.0
383,60.0,62.0,60.0,0.0,0.0
384,53.0,0.0,30.0,0.0,0.0
385,57.0,29.0,30.0,0.0,0.0
386,46.0,45.0,60.0,0.0,0.0
387,62.0,4.0,40.0,0.0,0.0
388,69.0,24.0,30.0,0.0,0.0
389,58.0,17.0,15.0,0.0,0.0
390,53.0,3.0,15.0,0.0,0.0
391,46.0,44.0,30.0,0.0,0.0
392,70.0,64.0,60.0,0.0,0.0
393,50.0,1.0,15.0,0.0,0.0
394,72.0,1.0,60.0,0.0,0.0
395,50.0,0.0,20.0,0.0,0.0
396,74.0,41.0,60.0,0.0,0.0
397,53.0,0.0,15.0,0.0,0.0
398,46.0,30.0,20.0,0.0,0.0
399,58.0,8.0,15.0,0.0,0.0
400,75.0,41.0,30.0,0.0,0.0
401,74.0,7.0,20.0,0.0,0.0
402,41.0,37.0,30.0,0.0,0.0
403,75.0,69.0,30.0,0.0,0.0
404,74.0,44.0,90.0,0.0,0.0
405,57.0,5.0,20.0,0.0,0.0
406,53.0,0.0,15.0,0.0,0.0
407,48.0,5.0,15.0,0.0,0.0
408,72.0,65.0,60.0,0.0,0.0
409,70.0,12.0,60.0,0.0,0.0
410,57.0,21.0,20.0,0.0,0.0
411,69.0,58.0,60.0,0.0,0.0
412,53.0,16.0,40.0,0.0,0.0
413,48.0,6.0,60.0,0.0,0.0
414,67.0,27.0,60.0,0.0,0.0
415,34.0,51.0,30.0,0.0,0.0
416,65.0,18.0,90.0,0.0,0.0
417,70.0,30.0,30.0,0.0,0.0
418,53.0,0.0,15.0,0.0,0.0
419,46.0,3.0,15.0,0.0,0.0
420,58.0,6.0,15.0,0.0,0.0
421,70.0,64.0,15.0,0.0,0.0
422,72.0,44.0,40.0,0.0,0.0
423,70.0,43.0,60.0,0.0,0.0
424,69.0,79.0,60.0,0.0,0.0
425,46.0,2.0,15.0,0.0,0.0
426,58.0,0.0,15.0,0.0,0.0
427,53.0,0.0,15.0,0.0,0.0
428,67.0,22.0,90.0,0.0,0.0
429,69.0,5.0,240.0,0.0,0.0
430,41.0,97.0,30.0,0.0,0.0
431,53.0,0.0,15.0,0.0,0.0
432,60.0,20.0,15.0,0.0,0.0
433,65.0,98.0,30.0,0.0,0.0
434,63.0,134.0,60.0,0.0,0.0
435,65.0,3.0,60.0,0.0,0.0
436,60.0,1.0,15.0,0.0,0.0
437,57.0,29.0,20.0,0.0,0.0
438,53.0,8.0,15.0,0.0,0.0
439,46.0,13.0,60.0,0.0,0.0
440,65.0,33.0,60.0,0.0,0.0
441,69.0,13.0,40.0,0.0,0.0
442,58.0,0.0,15.0,0.0,0.0
443,50.0,74.0,15.0,0.0,0.0
444,53.0,0.0,15.0,0.0,0.0
445,70.0,50.0,60.0,0.0,0.0
446,72.0,5.0,60.0,0.0,0.0
447,46.0,0.0,15.0,0.0,0.0
448,74.0,26.0,60.0,0.0,0.0
449,58.0,2.0,15.0,0.0,0.0
450,50.0,47.0,20.0,0.0,0.0
451,53.0,5.0,15.0,0.0,0.0
452,75.0,34.0,40.0,0.0,0.0
453,74.0,23.0,15.0,0.0,0.0
454,39.0,15.0,30.0,0.0,0.0
455,75.0,103.0,30.0,0.0,0.0
456,74.0,6.0,120.0,0.0,0.0
457,55.0,30.0,40.0,0.0,0.0
458,72.0,55.0,60.0,0.0,0.0
459,60.0,3.0,30.0,0.0,0.0
460,70.0,17.0,60.0,0.0,0.0
461,60.0,4.0,15.0,0.0,0.0
462,55.0,13.0,30.0,0.0,0.0
463,69.0,56.0,60.0,0.0,0.0
464,51.0,25.0,40.0,0.0,0.0
465,67.0,31.0,60.0,0.0,0.0
466,41.0,56.0,30.0,0.0,0.0
467,65.0,14.0,90.0,0.0,0.0
468,69.0,28.0,40.0,0.0,0.0
469,53.0,1.0,15.0,0.0,0.0
470,60.0,9.0,15.0,0.0,0.0
471,69.0,52.0,15.0,0.0,0.0
472,70.0,48.0,40.0,0.0,0.0
473,69.0,2.0,60.0,0.0,0.0
474,67.0,76.0,60.0,0.0,0.0
475,53.0,27.0,20.0,0.0,0.0
476,60.0,10.0,15.0,0.0,0.0
477,65.0,36.0,60.0,0.0,0.0
478,34.0,91.0,40.0,0.0,0.0
479,70.0,65.0,360.0,0.0,0.0
480,46.0,3.0,15.0,0.0,0.0
481,53.0,14.0,15.0,0.0,0.0
482,58.0,3.0,15.0,0.0,0.0
483,62.0,100.0,30.0,0.0,0.0
484,50.0,3.0,15.0,0.0,0.0
485,62.0,31.0,210.0,0.0,0.0
486,58.0,0.0,15.0,0.0,0.0
487,46.0,0.0,15.0,0.0,0.0
488,53.0,113.0,15.0,0.0,0.0
489,65.0,18.0,60.0,0.0,0.0
490,46.0,11.0,120.0,0.0,0.0
491,69.0,10.0,40.0,0.0,0.0
492,58.0,0.0,15.0,0.0,0.0
493,50.0,2.0,15.0,0.0,0.0
494,70.0,69.0,60.0,0.0,0.0
495,53.0,38.0,15.0,0.0,0.0
496,72.0,9.0,60.0,0.0,0.0
497,46.0,7.0,20.0,0.0,0.0
498,50.0,30.0,30.0,0.0,0.0
499,58.0,5.0,15.0,0.0,0.0
500,74.0,37.0,60.0,0.0,0.0
501,53.0,0.0,15.0,0.0,0.0
502,75.0,36.0,30.0,0.0,0.0
503,74.0,17.0,15.0,0.0,0.0
504,41.0,14.0,30.0,0.0,0.0
505,75.0,101.0,15.0,0.0,0.0
506,74.0,29.0,120.0,0.0,0.0
507,72.0,71.0,40.0,0.0,0.0
508,48.0,3.0,15.0,0.0,0.0
509,53.0,1.0,15.0,0.0,0.0
510,57.0,0.0,15.0,0.0,0.0
511,70.0,18.0,60.0,0.0,0.0
512,69.0,57.0,60.0,0.0,0.0
513,57.0,15.0,20.0,0.0,0.0
514,48.0,22.0,30.0,0.0,0.0
515,53.0,0.0,15.0,0.0,0.0
516,67.0,26.0,60.0,0.0,0.0
517,34.0,46.0,20.0,0.0,0.0
518,65.0,29.0,60.0,0.0,0.0
519,70.0,33.0,30.0,0.0,0.0
520,53.0,23.0,15.0,0.0,0.0
521,70.0,44.0,30.0,0.0,0.0
522,72.0,55.0,40.0,0.0,0.0
523,70.0,4.0,60.0,0.0,0.0
524,69.0,79.0,60.0,0.0,0.0
525,46.0,25.0,30.0,0.0,0.0
526,53.0,12.0,15.0,0.0,0.0
527,67.0,26.0,60.0,0.0,0.0
528,69.0,14.0,270.0,0.0,0.0
529,41.0,100.0,30.0,0.0,0.0
530,60.0,106.0,30.0,0.0,0.0
531,53.0,11.0,20.0,0.0,0.0
532,65.0,1.0,15.0,0.0,0.0
533,57.0,3.0,15.0,0.0,0.0
534,63.0,0.0,30.0,0.0,0.0
535,60.0,2.0,30.0,0.0,0.0
536,65.0,137.0,40.0,0.0,0.0
537,57.0,9.0,30.0,0.0,0.0
538,53.0,5.0,30.0,0.0,0.0
539,46.0,15.0,90.0,0.0,0.0
540,65.0,35.0,60.0,0.0,0.0
541,69.0,17.0,40.0,0.0,0.0
542,58.0,69.0,15.0,0.0,0.0
543,53.0,2.0,15.0,0.0,0.0
544,70.0,52.0,90.0,0.0,0.0
545,72.0,10.0,60.0,0.0,0.0
546,74.0,32.0,60.0,0.0,0.0
547,46.0,0.0,15.0,0.0,0.0
548,58.0,5.0,15.0,0.0,0.0
549,53.0,41.0,20.0,0.0,0.0
550,75.0,24.0,40.0,0.0,0.0
551,74.0,26.0,15.0,0.0,0.0
552,39.0,15.0,40.0,0.0,0.0
553,75.0,108.0,30.0,0.0,0.0
554,74.0,10.0,120.0,0.0,0.0
555,72.0,56.0,60.0,0.0,0.0
556,55.0,3.0,40.0,0.0,0.0
557,60.0,20.0,40.0,0.0,0.0
558,70.0,15.0,60.0,0.0,0.0
559,60.0,3.0,15.0,0.0,0.0
560,69.0,47.0,60.0,0.0,0.0
561,51.0,36.0,30.0,0.0,0.0
562,55.0,8.0,20.0,0.0,0.0
563,67.0,23.0,60.0,0.0,0.0
564,41.0,60.0,30.0,0.0,0.0
565,65.0,12.0,90.0,0.0,0.0
566,69.0,24.0,40.0,0.0,0.0
567,60.0,4.0,15.0,0.0,0.0
568,53.0,17.0,15.0,0.0,0.0
569,69.0,53.0,30.0,0.0,0.0
570,70.0,59.0,40.0,0.0,0.0
571,69.0,10.0,90.0,0.0,0.0
572,67.0,73.0,60.0,0.0,0.0
573,53.0,33.0,20.0,0.0,0.0
574,60.0,3.0,15.0,0.0,0.0
575,65.0,20.0,60.0,0.0,0.0
576,34.0,110.0,30.0,0.0,0.0
577,70.0,21.0,360.0,0.0,0.0
578,46.0,107.0,30.0,0.0,0.0
579,58.0,0.0,30.0,0.0,0.0
580,53.0,16.0,15.0,0.0,0.0
581,62.0,1.0,30.0,0.0,0.0
582,46.0,97.0,20.0,0.0,0.0
583,62.0,4.0,120.0,0.0,0.0
584,58.0,4.0,15.0,0.0,0.0
585,53.0,1.0,15.0,0.0,0.0
586,61.0,91.0,150.0,0.0,0.0
587,42.0,83.0,15.0,0.0,0.0
588,70.0,39.0,20.0,0.0,0.0
589,54.0,2.0,15.0,0.0,0.0
590,49.0,4.0,15.0,0.0,0.0
591,71.0,16.0,120.0,0.0,0.0
592,58.0,5.0,15.0,0.0,0.0
593,72.0,27.0,120.0,0.0,0.0
594,66.0,27.0,90.0,0.0,0.0
595,58.0,4.0,15.0,0.0,0.0
596,54.0,68.0,15.0,0.0,0.0
597,49.0,1.0,15.0,0.0,0.0
598,75.0,27.0,90.0,0.0,0.0
599,37.0,73.0,20.0,0.0,0.0
600,73.0,7.0,40.0,0.0,0.0
601,65.0,60.0,60.0,0.0,0.0
602,59.0,0.0,15.0,0.0,0.0
603,68.0,25.0,30.0,0.0,0.0
604,49.0,17.0,15.0,0.0,0.0
605,56.0,0.0,15.0,0.0,0.0
606,63.0,19.0,60.0,0.0,0.0
607,61.0,39.0,240.0,0.0,0.0
608,59.0,19.0,15.0,0.0,0.0
609,68.0,126.0,30.0,0.0,0.0
610,56.0,2.0,15.0,0.0,0.0
611,49.0,3.0,15.0,0.0,0.0
612,70.0,11.0,40.0,0.0,0.0
613,66.0,28.0,60.0,0.0,0.0
614,42.0,26.0,20.0,0.0,0.0
615,70.0,6.0,15.0,0.0,0.0
616,54.0,12.0,15.0,0.0,0.0
617,71.0,70.0,60.0,0.0,0.0
618,61.0,27.0,30.0,0.0,0.0
619,66.0,2.0,30.0,0.0,0.0
620,49.0,2.0,15.0,0.0,0.0
621,58.0,0.0,15.0,0.0,0.0
622,49.0,0.0,30.0,0.0,0.0
623,54.0,0.0,30.0,0.0,0.0
624,66.0,110.0,30.0,0.0,0.0
625,72.0,1.0,30.0,0.0,0.0
626,61.0,25.0,210.0,0.0,0.0
627,58.0,15.0,15.0,0.0,0.0
628,68.0,20.0,60.0,0.0,0.0
629,75.0,9.0,90.0,0.0,0.0
630,41.0,42.0,20.0,0.0,0.0
631,73.0,72.0,30.0,0.0,0.0
632,61.0,75.0,60.0,0.0,0.0
633,68.0,1.0,60.0,0.0,0.0
634,53.0,13.0,150.0,0.0,0.0
635,56.0,14.0,150.0,0.0,0.0
636,39.0,2.0,40.0,0.0,0.0
637,68.0,30.0,60.0,0.0,0.0
638,37.0,18.0,40.0,0.0,0.0
639,73.0,46.0,90.0,0.0,0.0
640,65.0,0.0,60.0,0.0,0.0
641,78.0,4.0,40.0,0.0,0.0
642,32.0,13.0,15.0,0.0,0.0
643,44.0,26.0,20.0,0.0,0.0
644,66.0,9.0,40.0,0.0,0.0
645,72.0,38.0,60.0,0.0,0.0
646,72.0,5.0,15.0,0.0,0.0
647,66.0,35.0,20.0,0.0,0.0
648,78.0,1.0,15.0,0.0,0.0
649,66.0,6.0,20.0,0.0,0.0
650,63.0,3.0,20.0,0.0,0.0
651,78.0,1.0,30.0,0.0,0.0
652,56.0,105.0,30.0,0.0,0.0
653,72.0,5.0,15.0,0.0,0.0
654,78.0,116.0,20.0,0.0,0.0
655,66.0,3.0,20.0,0.0,0.0
656,72.0,5.0,15.0,0.0,0.0
657,78.0,68.0,30.0,0.0,0.0
658,66.0,2.0,20.0,0.0,0.0
659,73.0,3.0,20.0,0.0,0.0
660,39.0,0.0,15.0,0.0,0.0
661,78.0,13.0,20.0,0.0,0.0
662,66.0,3.0,15.0,0.0,0.0
663,73.0,4.0,15.0,0.0,0.0
664,55.0,46.0,30.0,0.0,0.0
665,56.0,35.0,90.0,0.0,0.0
666,78.0,3.0,40.0,0.0,0.0
667,66.0,49.0,40.0,0.0,0.0
668,73.0,3.0,30.0,0.0,0.0
669,58.0,18.0,40.0,0.0,0.0
670,56.0,88.0,40.0,0.0,0.0
671,77.0,23.0,20.0,0.0,0.0
672,65.0,7.0,15.0,0.0,0.0
673,66.0,1.0,30.0,0.0,0.0
674,77.0,72.0,30.0,0.0,0.0
675,72.0,2.0,20.0,0.0,0.0
676,44.0,5.0,15.0,0.0,0.0
677,66.0,18.0,20.0,0.0,0.0
678,77.0,0.0,20.0,0.0,0.0
679,55.0,47.0,40.0,0.0,0.0
680,72.0,5.0,15.0,0.0,0.0
681,77.0,18.0,60.0,0.0,0.0
682,56.0,37.0,90.0,0.0,0.0
683,66.0,9.0,60.0,0.0,0.0
684,72.0,14.0,40.0,0.0,0.0
685,58.0,6.0,40.0,0.0,0.0
686,75.0,58.0,15.0,0.0,0.0
687,56.0,56.0,60.0,0.0,0.0
688,75.0,4.0,20.0,0.0,0.0
689,49.0,68.0,30.0,0.0,0.0
690,66.0,5.0,15.0,0.0,0.0
691,71.0,3.0,15.0,0.0,0.0
692,75.0,0.0,20.0,0.0,0.0
693,66.0,2.0,15.0,0.0,0.0
694,55.0,45.0,30.0,0.0,0.0
695,71.0,17.0,15.0,0.0,0.0
696,75.0,45.0,90.0,0.0,0.0
697,56.0,10.0,60.0,0.0,0.0
698,66.0,22.0,40.0,0.0,0.0
699,71.0,12.0,30.0,0.0,0.0
700,60.0,9.0,40.0,0.0,0.0
701,73.0,5.0,15.0,0.0,0.0
702,61.0,110.0,30.0,0.0,0.0
703,65.0,13.0,15.0,0.0,0.0
704,42.0,10.0,20.0,0.0,0.0
705,70.0,58.0,30.0,0.0,0.0
706,70.0,55.0,15.0,0.0,0.0
707,54.0,0.0,30.0,0.0,0.0
708,71.0,15.0,120.0,0.0,0.0
709,49.0,106.0,20.0,0.0,0.0
710,58.0,3.0,20.0,0.0,0.0
711,72.0,10.0,30.0,0.0,0.0
712,54.0,1.0,40.0,0.0,0.0
713,58.0,3.0,30.0,0.0,0.0
714,49.0,95.0,40.0,0.0,0.0
715,74.0,50.0,60.0,0.0,0.0
716,41.0,40.0,20.0,0.0,0.0
717,73.0,20.0,40.0,0.0,0.0
718,49.0,48.0,20.0,0.0,0.0
719,59.0,0.0,15.0,0.0,0.0
720,56.0,3.0,15.0,0.0,0.0
721,68.0,71.0,60.0,0.0,0.0
722,68.0,3.0,30.0,0.0,0.0
723,59.0,4.0,20.0,0.0,0.0
724,49.0,112.0,20.0,0.0,0.0
725,56.0,6.0,15.0,0.0,0.0
726,42.0,30.0,20.0,0.0,0.0
727,69.0,53.0,40.0,0.0,0.0
728,69.0,22.0,20.0,0.0,0.0
729,57.0,4.0,20.0,0.0,0.0
730,54.0,56.0,20.0,0.0,0.0
731,49.0,3.0,15.0,0.0,0.0
732,71.0,68.0,60.0,0.0,0.0
733,69.0,1.0,15.0,0.0,0.0
734,72.0,4.0,20.0,0.0,0.0
735,57.0,14.0,30.0,0.0,0.0
736,49.0,93.0,40.0,0.0,0.0
737,54.0,2.0,40.0,0.0,0.0
738,40.0,35.0,20.0,0.0,0.0
739,74.0,32.0,60.0,0.0,0.0
740,73.0,61.0,15.0,0.0,0.0
741,61.0,1.0,40.0,0.0,0.0
742,76.0,2.0,30.0,0.0,0.0
743,52.0,67.0,40.0,0.0,0.0
744,69.0,17.0,30.0,0.0,0.0
745,49.0,1.0,40.0,0.0,0.0
746,57.0,4.0,40.0,0.0,0.0
747,42.0,29.0,30.0,0.0,0.0
748,40.0,6.0,30.0,0.0,0.0
749,52.0,8.0,60.0,0.0,0.0
750,81.0,9.0,30.0,0.0,0.0
751,61.0,1.0,20.0,0.0,0.0
752,57.0,9.0,40.0,0.0,0.0
753,49.0,92.0,60.0,0.0,0.0
754,69.0,7.0,30.0,0.0,0.0
755,74.0,1.0,30.0,0.0,0.0
756,28.0,8.0,20.0,0.0,0.0
757,62.0,4.0,30.0,0.0,0.0
758,68.0,75.0,30.0,0.0,0.0
759,68.0,56.0,30.0,0.0,0.0
760,74.0,5.0,20.0,0.0,0.0
761,62.0,8.0,15.0,0.0,0.0
762,62.0,72.0,60.0,0.0,0.0
763,74.0,2.0,60.0,0.0,0.0
764,68.0,5.0,40.0,0.0,0.0
765,59.0,1.0,40.0,0.0,0.0
766,52.0,0.0,40.0,0.0,0.0
767,74.0,113.0,20.0,0.0,0.0
768,62.0,4.0,20.0,0.0,0.0
769,68.0,4.0,15.0,0.0,0.0
770,62.0,2.0,15.0,0.0,0.0
771,74.0,80.0,20.0,0.0,0.0
772,33.0,2.0,20.0,0.0,0.0
773,69.0,2.0,20.0,0.0,0.0
774,74.0,16.0,20.0,0.0,0.0
775,62.0,2.0,15.0,0.0,0.0
776,51.0,51.0,30.0,0.0,0.0
777,69.0,5.0,15.0,0.0,0.0
778,52.0,51.0,60.0,0.0,0.0
779,74.0,3.0,60.0,0.0,0.0
780,62.0,10.0,60.0,0.0,0.0
781,69.0,3.0,40.0,0.0,0.0
782,53.0,23.0,30.0,0.0,0.0
783,52.0,56.0,60.0,0.0,0.0
784,73.0,43.0,30.0,0.0,0.0
785,61.0,6.0,20.0,0.0,0.0
786,73.0,75.0,20.0,0.0,0.0
787,62.0,4.0,15.0,0.0,0.0
788,40.0,3.0,15.0,0.0,0.0
789,68.0,3.0,15.0,0.0,0.0
790,51.0,69.0,30.0,0.0,0.0
791,73.0,0.0,15.0,0.0,0.0
792,62.0,19.0,15.0,0.0,0.0
793,68.0,0.0,15.0,0.0,0.0
794,52.0,26.0,90.0,0.0,0.0
795,62.0,13.0,60.0,0.0,0.0
796,73.0,3.0,60.0,0.0,0.0
797,68.0,14.0,90.0,0.0,0.0
798,54.0,19.0,40.0,0.0,0.0
799,52.0,84.0,40.0,0.0,0.0
800,62.0,7.0,20.0,0.0,0.0
801,71.0,16.0,30.0,0.0,0.0
802,71.0,13.0,20.0,0.0,0.0
803,45.0,61.0,30.0,0.0,0.0
804,62.0,5.0,15.0,0.0,0.0
805,64.0,1.0,15.0,0.0,0.0
806,51.0,82.0,30.0,0.0,0.0
807,71.0,8.0,20.0,0.0,0.0
808,62.0,6.0,15.0,0.0,0.0
809,64.0,3.0,15.0,0.0,0.0
810,52.0,10.0,90.0,0.0,0.0
811,62.0,1.0,60.0,0.0,0.0
812,71.0,41.0,90.0,0.0,0.0
813,64.0,4.0,60.0,0.0,0.0
814,56.0,36.0,40.0,0.0,0.0
815,57.0,15.0,40.0,0.0,0.0
816,69.0,48.0,60.0,0.0,0.0
817,61.0,11.0,30.0,0.0,0.0
818,70.0,24.0,60.0,0.0,0.0
819,64.0,12.0,40.0,0.0,0.0
820,37.0,23.0,20.0,0.0,0.0
821,58.0,15.0,40.0,0.0,0.0
822,64.0,21.0,30.0,0.0,0.0
823,70.0,6.0,20.0,0.0,0.0
824,49.0,0.0,15.0,0.0,0.0
825,55.0,86.0,15.0,0.0,0.0
826,70.0,32.0,90.0,0.0,0.0
827,58.0,5.0,90.0,0.0,0.0
828,58.0,6.0,20.0,0.0,0.0
829,70.0,106.0,20.0,0.0,0.0
830,49.0,9.0,15.0,0.0,0.0
831,55.0,0.0,15.0,0.0,0.0
832,65.0,11.0,40.0,0.0,0.0
833,70.0,33.0,60.0,0.0,0.0
834,38.0,31.0,15.0,0.0,0.0
835,58.0,2.0,40.0,0.0,0.0
836,70.0,14.0,30.0,0.0,0.0
837,65.0,20.0,15.0,0.0,0.0
838,50.0,1.0,15.0,0.0,0.0
839,53.0,102.0,15.0,0.0,0.0
840,70.0,24.0,120.0,0.0,0.0
841,65.0,51.0,210.0,0.0,0.0
842,58.0,4.0,120.0,0.0,0.0
843,50.0,62.0,20.0,0.0,0.0
844,53.0,2.0,15.0,0.0,0.0
845,69.0,5.0,20.0,0.0,0.0
846,57.0,6.0,15.0,0.0,0.0
847,37.0,25.0,20.0,0.0,0.0
848,64.0,13.0,40.0,0.0,0.0
849,70.0,28.0,60.0,0.0,0.0
850,58.0,7.0,40.0,0.0,0.0
851,70.0,29.0,20.0,0.0,0.0
852,64.0,6.0,15.0,0.0,0.0
853,55.0,86.0,15.0,0.0,0.0
854,49.0,0.0,15.0,0.0,0.0
855,58.0,5.0,90.0,0.0,0.0
856,64.0,32.0,90.0,0.0,0.0
857,70.0,0.0,90.0,0.0,0.0
858,58.0,5.0,20.0,0.0,0.0
859,64.0,1.0,20.0,0.0,0.0
860,70.0,106.0,20.0,0.0,0.0
861,49.0,9.0,15.0,0.0,0.0
862,55.0,0.0,15.0,0.0,0.0
863,70.0,27.0,60.0,0.0,0.0
864,65.0,17.0,40.0,0.0,0.0
865,38.0,31.0,15.0,0.0,0.0
866,58.0,2.0,40.0,0.0,0.0
867,65.0,34.0,15.0,0.0,0.0
868,50.0,1.0,15.0,0.0,0.0
869,53.0,102.0,15.0,0.0,0.0
870,70.0,24.0,120.0,0.0,0.0
871,65.0,11.0,180.0,0.0,0.0
872,58.0,4.0,120.0,0.0,0.0
873,53.0,2.0,15.0,0.0,0.0
874,50.0,51.0,20.0,0.0,0.0
875,69.0,53.0,20.0,0.0,0.0
876,57.0,6.0,15.0,0.0,0.0
877,36.0,14.0,20.0,0.0,0.0
878,64.0,18.0,30.0,0.0,0.0
879,70.0,36.0,40.0,0.0,0.0
880,58.0,9.0,40.0,0.0,0.0
881,64.0,1.0,20.0,0.0,0.0
882,70.0,30.0,20.0,0.0,0.0
883,48.0,1.0,15.0,0.0,0.0
884,55.0,85.0,15.0,0.0,0.0
885,70.0,2.0,90.0,0.0,0.0
886,58.0,0.0,90.0,0.0,0.0
887,64.0,28.0,90.0,0.0,0.0
888,48.0,3.0,15.0,0.0,0.0
889,70.0,139.0,30.0,0.0,0.0
890,64.0,3.0,30.0,0.0,0.0
891,55.0,11.0,15.0,0.0,0.0
892,58.0,2.0,20.0,0.0,0.0
893,70.0,35.0,40.0,0.0,0.0
894,41.0,8.0,120.0,0.0,0.0
895,65.0,1.0,40.0,0.0,0.0
896,58.0,5.0,40.0,0.0,0.0
897,70.0,20.0,20.0,0.0,0.0
898,65.0,4.0,15.0,0.0,0.0
899,53.0,1.0,15.0,0.0,0.0
900,48.0,47.0,15.0,0.0,0.0
901,70.0,44.0,90.0,0.0,0.0
902,58.0,36.0,60.0,0.0,0.0
903,65.0,21.0,180.0,0.0,0.0
904,53.0,2.0,15.0,0.0,0.0
905,48.0,41.0,15.0,0.0,0.0
906,57.0,2.0,20.0,0.0,0.0
907,69.0,55.0,20.0,0.0,0.0
908,36.0,18.0,20.0,0.0,0.0
909,70.0,33.0,60.0,0.0,0.0
910,64.0,17.0,30.0,0.0,0.0
911,58.0,5.0,40.0,0.0,0.0
912,70.0,5.0,20.0,0.0,0.0
913,64.0,34.0,20.0,0.0,0.0
914,64.0,0.0,60.0,0.0,0.0
915,70.0,57.0,60.0,0.0,0.0
916,48.0,61.0,15.0,0.0,0.0
917,58.0,5.0,60.0,0.0,0.0
918,55.0,0.0,15.0,0.0,0.0
919,58.0,6.0,15.0,0.0,0.0
920,70.0,143.0,20.0,0.0,0.0
921,48.0,6.0,15.0,0.0,0.0
922,55.0,2.0,15.0,0.0,0.0
923,64.0,0.0,15.0,0.0,0.0
924,70.0,26.0,60.0,0.0,0.0
925,63.0,12.0,40.0,0.0,0.0
926,41.0,8.0,30.0,0.0,0.0
927,58.0,8.0,40.0,0.0,0.0
928,70.0,1.0,15.0,0.0,0.0
929,63.0,51.0,15.0,0.0,0.0
930,60.0,6.0,20.0,0.0,0.0
931,70.0,21.0,120.0,0.0,0.0
932,58.0,90.0,30.0,0.0,0.0
933,53.0,0.0,20.0,0.0,0.0
934,63.0,39.0,180.0,0.0,0.0
935,57.0,28.0,30.0,0.0,0.0
936,60.0,6.0,20.0,0.0,0.0
937,53.0,0.0,20.0,0.0,0.0
938,69.0,88.0,30.0,0.0,0.0
939,65.0,31.0,60.0,0.0,0.0
940,46.0,8.0,120.0,0.0,0.0
941,69.0,25.0,30.0,0.0,0.0
942,50.0,3.0,15.0,0.0,0.0
943,58.0,51.0,15.0,0.0,0.0
944,53.0,0.0,15.0,0.0,0.0
945,70.0,24.0,60.0,0.0,0.0
946,72.0,27.0,30.0,0.0,0.0
947,58.0,2.0,15.0,0.0,0.0
948,50.0,9.0,20.0,0.0,0.0
949,53.0,9.0,15.0,0.0,0.0
950,74.0,55.0,20.0,0.0,0.0
951,75.0,53.0,20.0,0.0,0.0
952,41.0,8.0,15.0,0.0,0.0
953,74.0,39.0,20.0,0.0,0.0
954,75.0,73.0,30.0,0.0,0.0
955,74.0,29.0,90.0,0.0,0.0
956,57.0,0.0,15.0,0.0,0.0
957,53.0,16.0,15.0,0.0,0.0
958,72.0,64.0,60.0,0.0,0.0
959,70.0,4.0,60.0,0.0,0.0
960,57.0,11.0,15.0,0.0,0.0
961,53.0,36.0,30.0,0.0,0.0
962,48.0,3.0,20.0,0.0,0.0
963,69.0,55.0,60.0,0.0,0.0
964,67.0,36.0,60.0,0.0,0.0
965,65.0,19.0,90.0,0.0,0.0
966,34.0,50.0,30.0,0.0,0.0
967,70.0,24.0,40.0,0.0,0.0
968,46.0,0.0,15.0,0.0,0.0
969,58.0,1.0,15.0,0.0,0.0
970,53.0,8.0,15.0,0.0,0.0
971,70.0,55.0,15.0,0.0,0.0
972,72.0,55.0,40.0,0.0,0.0
973,70.0,3.0,60.0,0.0,0.0
974,46.0,1.0,15.0,0.0,0.0
975,69.0,87.0,60.0,0.0,0.0
976,53.0,0.0,15.0,0.0,0.0
977,58.0,42.0,15.0,0.0,0.0
978,67.0,27.0,90.0,0.0,0.0
979,69.0,16.0,270.0,0.0,0.0
980,41.0,97.0,40.0,0.0,0.0
981,65.0,2.0,15.0,0.0,0.0
982,53.0,0.0,15.0,0.0,0.0
983,60.0,111.0,15.0,0.0,0.0
984,65.0,144.0,60.0,0.0,0.0
985,63.0,22.0,20.0,0.0,0.0
986,53.0,10.0,15.0,0.0,0.0
987,60.0,0.0,15.0,0.0,0.0
988,46.0,8.0,90.0,0.0,0.0
989,65.0,27.0,60.0,0.0,0.0
990,69.0,18.0,40.0,0.0,0.0
991,70.0,49.0,60.0,0.0,0.0
992,53.0,1.0,15.0,0.0,0.0
993,58.0,63.0,15.0,0.0,0.0
994,72.0,0.0,60.0,0.0,0.0
995,58.0,3.0,15.0,0.0,0.0
996,50.0,34.0,15.0,0.0,0.0
997,74.0,35.0,40.0,0.0,0.0
998,53.0,3.0,15.0,0.0,0.0
999,75.0,45.0,30.0,0.0,0.0
1000,39.0,24.0,30.0,0.0,0.0
1001,74.0,14.0,15.0,0.0,0.0
1002,75.0,88.0,30.0,0.0,0.0
1003,74.0,28.0,120.0,0.0,0.0
1004,60.0,0.0,15.0,0.0,0.0
1005,72.0,75.0,60.0,0.0,0.0
1006,55.0,16.0,15.0,0.0,0.0
1007,70.0,0.0,60.0,0.0,0.0
1008,60.0,17.0,15.0,0.0,0.0
1009,55.0,9.0,30.0,0.0,0.0
1010,69.0,56.0,60.0,0.0,0.0
1011,51.0,25.0,40.0,0.0,0.0
1012,67.0,25.0,60.0,0.0,0.0
1013,41.0,47.0,30.0,0.0,0.0
1014,65.0,20.0,60.0,0.0,0.0
1015,69.0,37.0,30.0,0.0,0.0
1016,53.0,4.0,15.0,0.0,0.0
1017,69.0,17.0,15.0,0.0,0.0
1018,63.0,33.0,30.0,0.0,0.0
1019,60.0,1.0,15.0,0.0,0.0
1020,70.0,64.0,40.0,0.0,0.0
1021,69.0,4.0,90.0,0.0,0.0
1022,53.0,34.0,20.0,0.0,0.0
1023,67.0,0.0,60.0,0.0,0.0
1024,63.0,60.0,60.0,0.0,0.0
1025,60.0,12.0,15.0,0.0,0.0
1026,65.0,55.0,40.0,0.0,0.0
1027,70.0,148.0,300.0,0.0,0.0
1028,34.0,86.0,30.0,0.0,0.0
1029,46.0,19.0,30.0,0.0,0.0
1030,58.0,0.0,30.0,0.0,0.0
1031,53.0,18.0,15.0,0.0,0.0
1032,62.0,82.0,40.0,0.0,0.0
1033,46.0,5.0,15.0,0.0,0.0
1034,58.0,1.0,15.0,0.0,0.0
1035,53.0,4.0,15.0,0.0,0.0
1036,62.0,20.0,20.0,0.0,0.0
1037,46.0,10.0,90.0,0.0,0.0
1038,65.0,18.0,60.0,0.0,0.0
1039,69.0,38.0,30.0,0.0,0.0
1040,58.0,47.0,15.0,0.0,0.0
1041,70.0,48.0,60.0,0.0,0.0
1042,50.0,1.0,15.0,0.0,0.0
1043,53.0,2.0,15.0,0.0,0.0
1044,46.0,1.0,15.0,0.0,0.0
1045,72.0,7.0,60.0,0.0,0.0
1046,50.0,4.0,15.0,0.0,0.0
1047,53.0,2.0,15.0,0.0,0.0
1048,74.0,45.0,60.0,0.0,0.0
1049,58.0,36.0,15.0,0.0,0.0
1050,46.0,1.0,15.0,0.0,0.0
1051,75.0,35.0,40.0,0.0,0.0
1052,41.0,2.0,15.0,0.0,0.0
1053,74.0,39.0,15.0,0.0,0.0
1054,75.0,84.0,30.0,0.0,0.0
1055,74.0,30.0,120.0,0.0,0.0
1056,57.0,5.0,20.0,0.0,0.0
1057,53.0,2.0,30.0,0.0,0.0
1058,48.0,5.0,15.0,0.0,0.0
1059,72.0,66.0,60.0,0.0,0.0
1060,70.0,4.0,60.0,0.0,0.0
1061,48.0,27.0,40.0,0.0,0.0
1062,57.0,5.0,15.0,0.0,0.0
1063,69.0,61.0,60.0,0.0,0.0
1064,53.0,17.0,15.0,0.0,0.0
1065,67.0,32.0,60.0,0.0,0.0
1066,34.0,50.0,30.0,0.0,0.0
1067,65.0,18.0,90.0,0.0,0.0
1068,70.0,32.0,40.0,0.0,0.0
1069,46.0,1.0,15.0,0.0,0.0
1070,58.0,0.0,15.0,0.0,0.0
1071,53.0,4.0,15.0,0.0,0.0
1072,70.0,50.0,15.0,0.0,0.0
1073,72.0,58.0,30.0,0.0,0.0
1074,70.0,7.0,60.0,0.0,0.0
1075,69.0,77.0,40.0,0.0,0.0
1076,46.0,27.0,15.0,0.0,0.0
1077,53.0,3.0,15.0,0.0,0.0
1078,58.0,0.0,15.0,0.0,0.0
1079,67.0,30.0,60.0,0.0,0.0
1080,69.0,5.0,270.0,0.0,0.0
1081,41.0,107.0,30.0,0.0,0.0
1082,57.0,1.0,15.0,0.0,0.0
1083,65.0,115.0,30.0,0.0,0.0
1084,53.0,1.0,15.0,0.0,0.0
1085,60.0,7.0,15.0,0.0,0.0
1086,65.0,150.0,40.0,0.0,0.0
1087,63.0,7.0,20.0,0.0,0.0
1088,60.0,6.0,20.0,0.0,0.0
1089,57.0,5.0,30.0,0.0,0.0
1090,53.0,2.0,30.0,0.0,0.0
1091,46.0,29.0,60.0,0.0,0.0
1092,65.0,12.0,60.0,0.0,0.0
1093,69.0,24.0,40.0,0.0,0.0
1094,70.0,56.0,60.0,0.0,0.0
1095,58.0,54.0,15.0,0.0,0.0
1096,53.0,0.0,15.0,0.0,0.0
1097,72.0,8.0,60.0,0.0,0.0
1098,46.0,28.0,20.0,0.0,0.0
1099,58.0,4.0,15.0,0.0,0.0
1100,53.0,0.0,15.0,0.0,0.0
1101,74.0,32.0,40.0,0.0,0.0
1102,75.0,48.0,20.0,0.0,0.0
1103,74.0,8.0,15.0,0.0,0.0
1104,39.0,34.0,20.0,0.0,0.0
1105,75.0,93.0,40.0,0.0,0.0
1106,74.0,29.0,120.0,0.0,0.0
1107,55.0,6.0,20.0,0.0,0.0
1108,60.0,1.0,20.0,0.0,0.0
1109,72.0,67.0,60.0,0.0,0.0
1110,70.0,1.0,60.0,0.0,0.0
1111,60.0,5.0,15.0,0.0,0.0
1112,51.0,44.0,30.0,0.0,0.0
1113,69.0,51.0,60.0,0.0,0.0
1114,55.0,14.0,15.0,0.0,0.0
1115,67.0,19.0,60.0,0.0,0.0
1116,41.0,58.0,20.0,0.0,0.0
1117,65.0,16.0,90.0,0.0,0.0
1118,69.0,32.0,30.0,0.0,0.0
1119,60.0,4.0,15.0,0.0,0.0
1120,53.0,5.0,15.0,0.0,0.0
1121,69.0,54.0,15.0,0.0,0.0
1122,70.0,59.0,40.0,0.0,0.0
1123,69.0,0.0,90.0,0.0,0.0
1124,67.0,55.0,60.0,0.0,0.0
1125,60.0,6.0,15.0,0.0,0.0
1126,53.0,49.0,15.0,0.0,0.0
1127,65.0,32.0,60.0,0.0,0.0
1128,34.0,101.0,30.0,0.0,0.0
1129,70.0,1.0,270.0,0.0,0.0
1130,46.0,2.0,20.0,0.0,0.0
1131,53.0,3.0,15.0,0.0,0.0
1132,62.0,102.0,40.0,0.0,0.0
1133,58.0,21.0,20.0,0.0,0.0
1134,46.0,2.0,20.0,0.0,0.0
1135,58.0,3.0,20.0,0.0,0.0
1136,53.0,162.0,20.0,0.0,0.0
1137,62.0,0.0,20.0,0.0,0.0
1138,60.0,21.0,60.0,0.0,0.0
1139,41.0,32.0,60.0,0.0,0.0
1140,64.0,20.0,40.0,0.0,0.0
1141,57.0,51.0,20.0,0.0,0.0
1142,48.0,2.0,15.0,0.0,0.0
1143,41.0,0.0,15.0,0.0,0.0
1144,53.0,4.0,15.0,0.0,0.0
1145,65.0,57.0,60.0,0.0,0.0
1146,67.0,1.0,60.0,0.0,0.0
1147,41.0,6.0,20.0,0.0,0.0
1148,48.0,3.0,15.0,0.0,0.0
1149,53.0,2.0,15.0,0.0,0.0
1150,57.0,45.0,20.0,0.0,0.0
1151,69.0,23.0,60.0,0.0,0.0
1152,70.0,35.0,30.0,0.0,0.0
1153,69.0,10.0,15.0,0.0,0.0
1154,36.0,28.0,20.0,0.0,0.0
1155,70.0,82.0,30.0,0.0,0.0
1156,69.0,37.0,120.0,0.0,0.0
1157,55.0,2.0,15.0,0.0,0.0
1158,48.0,0.0,15.0,0.0,0.0
1159,67.0,70.0,60.0,0.0,0.0
1160,58.0,10.0,15.0,0.0,0.0
1161,65.0,2.0,60.0,0.0,0.0
1162,55.0,1.0,15.0,0.0,0.0
1163,48.0,43.0,20.0,0.0,0.0
1164,64.0,63.0,60.0,0.0,0.0
1165,58.0,9.0,15.0,0.0,0.0
1166,62.0,31.0,60.0,0.0,0.0
1167,29.0,14.0,30.0,0.0,0.0
1168,60.0,45.0,40.0,0.0,0.0
1169,65.0,33.0,30.0,0.0,0.0
1170,48.0,5.0,15.0,0.0,0.0
1171,41.0,0.0,15.0,0.0,0.0
1172,65.0,16.0,15.0,0.0,0.0
1173,53.0,19.0,30.0,0.0,0.0
1174,57.0,11.0,40.0,0.0,0.0
1175,67.0,65.0,30.0,0.0,0.0
1176,65.0,42.0,90.0,0.0,0.0
1177,64.0,69.0,60.0,0.0,0.0
1178,48.0,2.0,15.0,0.0,0.0
1179,41.0,0.0,15.0,0.0,0.0
1180,53.0,0.0,15.0,0.0,0.0
1181,57.0,9.0,40.0,0.0,0.0
1182,62.0,20.0,60.0,0.0,0.0
1183,64.0,151.0,270.0,0.0,0.0
1184,36.0,104.0,20.0,0.0,0.0
1185,48.0,119.0,20.0,0.0,0.0
1186,48.0,16.0,15.0,0.0,0.0
1187,55.0,3.0,15.0,0.0,0.0
1188,58.0,2.0,30.0,0.0,0.0
1189,60.0,11.0,30.0,0.0,0.0
1190,41.0,6.0,120.0,0.0,0.0
1191,60.0,40.0,60.0,0.0,0.0
1192,64.0,30.0,40.0,0.0,0.0
1193,48.0,48.0,20.0,0.0,0.0
1194,65.0,43.0,60.0,0.0,0.0
1195,53.0,2.0,20.0,0.0,0.0
1196,67.0,4.0,60.0,0.0,0.0
1197,41.0,37.0,20.0,0.0,0.0
1198,53.0,4.0,15.0,0.0,0.0
1199,48.0,2.0,15.0,0.0,0.0
1200,69.0,27.0,40.0,0.0,0.0
1201,70.0,45.0,20.0,0.0,0.0
1202,69.0,4.0,30.0,0.0,0.0
1203,34.0,33.0,20.0,0.0,0.0
1204,70.0,90.0,30.0,0.0,0.0
1205,69.0,37.0,120.0,0.0,0.0
1206,50.0,2.0,15.0,0.0,0.0
1207,55.0,18.0,15.0,0.0,0.0
1208,67.0,67.0,60.0,0.0,0.0
1209,65.0,9.0,60.0,0.0,0.0
1210,50.0,1.0,20.0,0.0,0.0
1211,55.0,3.0,15.0,0.0,0.0
1212,46.0,48.0,20.0,0.0,0.0
1213,64.0,50.0,60.0,0.0,0.0
1214,62.0,14.0,60.0,0.0,0.0
1215,36.0,40.0,20.0,0.0,0.0
1216,60.0,22.0,60.0,0.0,0.0
1217,64.0,51.0,20.0,0.0,0.0
1218,55.0,6.0,15.0,0.0,0.0
1219,48.0,0.0,15.0,0.0,0.0
1220,64.0,48.0,15.0,0.0,0.0
1221,65.0,69.0,30.0,0.0,0.0
1222,64.0,3.0,90.0,0.0,0.0
1223,62.0,69.0,60.0,0.0,0.0
1224,48.0,37.0,20.0,0.0,0.0
1225,55.0,5.0,15.0,0.0,0.0
1226,60.0,29.0,60.0,0.0,0.0
1227,65.0,163.0,270.0,0.0,0.0
1228,29.0,104.0,30.0,0.0,0.0
1229,48.0,5.0,20.0,0.0,0.0
1230,53.0,22.0,20.0,0.0,0.0
1231,41.0,1.0,15.0,0.0,0.0
1232,57.0,96.0,40.0,0.0,0.0
1233,41.0,0.0,20.0,0.0,0.0
1234,48.0,2.0,20.0,0.0,0.0
1235,57.0,7.0,15.0,0.0,0.0
1236,53.0,1.0,15.0,0.0,0.0
1237,60.0,46.0,60.0,0.0,0.0
1238,41.0,5.0,120.0,0.0,0.0
1239,64.0,10.0,40.0,0.0,0.0
1240,48.0,6.0,15.0,0.0,0.0
1241,53.0,44.0,15.0,0.0,0.0
1242,65.0,69.0,60.0,0.0,0.0
1243,67.0,7.0,60.0,0.0,0.0
1244,53.0,13.0,15.0,0.0,0.0
1245,41.0,1.0,30.0,0.0,0.0
1246,48.0,20.0,20.0,0.0,0.0
1247,69.0,58.0,40.0,0.0,0.0
1248,70.0,23.0,40.0,0.0,0.0
1249,69.0,19.0,20.0,0.0,0.0
1250,36.0,16.0,30.0,0.0,0.0
1251,70.0,96.0,30.0,0.0,0.0
1252,69.0,24.0,120.0,0.0,0.0
1253,48.0,3.0,15.0,0.0,0.0
1254,67.0,64.0,40.0,0.0,0.0
1255,55.0,6.0,15.0,0.0,0.0
1256,65.0,14.0,60.0,0.0,0.0
1257,64.0,47.0,60.0,0.0,0.0
1258,55.0,1.0,15.0,0.0,0.0
1259,48.0,44.0,20.0,0.0,0.0
1260,62.0,50.0,60.0,0.0,0.0
1261,41.0,8.0,120.0,0.0,0.0
1262,60.0,26.0,40.0,0.0,0.0
1263,65.0,38.0,15.0,0.0,0.0
1264,48.0,5.0,15.0,0.0,0.0
1265,53.0,9.0,15.0,0.0,0.0
1266,65.0,43.0,15.0,0.0,0.0
1267,67.0,63.0,30.0,0.0,0.0
1268,65.0,8.0,60.0,0.0,0.0
1269,53.0,1.0,15.0,0.0,0.0
1270,41.0,1.0,15.0,0.0,0.0
1271,64.0,59.0,60.0,0.0,0.0
1272,48.0,62.0,15.0,0.0,0.0
1273,62.0,29.0,60.0,0.0,0.0
1274,64.0,77.0,360.0,0.0,0.0
1275,36.0,124.0,30.0,0.0,0.0
1276,48.0,96.0,40.0,0.0,0.0
1277,60.0,87.0,40.0,0.0,0.0
1278,58.0,3.0,20.0,0.0,0.0
1279,55.0,4.0,20.0,0.0,0.0
1280,48.0,7.0,30.0,0.0,0.0
1281,41.0,6.0,120.0,0.0,0.0
1282,60.0,46.0,60.0,0.0,0.0
1283,64.0,8.0,40.0,0.0,0.0
1284,53.0,0.0,15.0,0.0,0.0
1285,48.0,58.0,15.0,0.0,0.0
1286,65.0,60.0,60.0,0.0,0.0
1287,67.0,0.0,60.0,0.0,0.0
1288,53.0,0.0,15.0,0.0,0.0
1289,41.0,3.0,15.0,0.0,0.0
1290,48.0,57.0,15.0,0.0,0.0
1291,69.0,23.0,60.0,0.0,0.0
1292,70.0,36.0,30.0,0.0,0.0
1293,69.0,15.0,15.0,0.0,0.0
1294,34.0,23.0,30.0,0.0,0.0
1295,70.0,89.0,30.0,0.0,0.0
1296,69.0,0.0,120.0,0.0,0.0
1297,50.0,34.0,20.0,0.0,0.0
1298,55.0,7.0,15.0,0.0,0.0
1299,67.0,70.0,60.0,0.0,0.0
1300,65.0,10.0,60.0,0.0,0.0
1301,50.0,9.0,30.0,0.0,0.0
1302,64.0,57.0,60.0,0.0,0.0
1303,46.0,27.0,30.0,0.0,0.0
1304,55.0,14.0,15.0,0.0,0.0
1305,62.0,24.0,60.0,0.0,0.0
1306,36.0,42.0,30.0,0.0,0.0
1307,60.0,23.0,60.0,0.0,0.0
1308,64.0,36.0,30.0,0.0,0.0
1309,48.0,3.0,15.0,0.0,0.0
1310,55.0,6.0,15.0,0.0,0.0
1311,64.0,51.0,15.0,0.0,0.0
1312,65.0,67.0,30.0,0.0,0.0
1313,64.0,5.0,90.0,0.0,0.0
1314,62.0,64.0,60.0,0.0,0.0
1315,48.0,39.0,20.0,0.0,0.0
1316,55.0,2.0,15.0,0.0,0.0
1317,60.0,29.0,60.0,0.0,0.0
1318,29.0,109.0,30.0,0.0,0.0
1319,65.0,5.0,240.0,0.0,0.0
1320,57.0,113.0,20.0,0.0,0.0
1321,57.0,14.0,15.0,0.0,0.0
1322,63.0,97.0,30.0,0.0,0.0
1323,53.0,41.0,120.0,0.0,0.0
1324,46.0,5.0,120.0,0.0,0.0
1325,62.0,57.0,40.0,0.0,0.0
1326,69.0,24.0,30.0,0.0,0.0
1327,50.0,0.0,15.0,0.0,0.0
1328,53.0,5.0,15.0,0.0,0.0
1329,70.0,54.0,60.0,0.0,0.0
1330,58.0,60.0,15.0,0.0,0.0
1331,72.0,0.0,60.0,0.0,0.0
1332,46.0,2.0,20.0,0.0,0.0
1333,50.0,32.0,20.0,0.0,0.0
1334,74.0,47.0,60.0,0.0,0.0
1335,58.0,9.0,15.0,0.0,0.0
1336,53.0,3.0,15.0,0.0,0.0
1337,75.0,27.0,40.0,0.0,0.0
1338,74.0,17.0,15.0,0.0,0.0
1339,41.0,26.0,30.0,0.0,0.0
1340,75.0,87.0,30.0,0.0,0.0
1341,74.0,38.0,120.0,0.0,0.0
1342,48.0,3.0,20.0,0.0,0.0
1343,57.0,9.0,30.0,0.0,0.0
1344,53.0,0.0,20.0,0.0,0.0
1345,72.0,62.0,60.0,0.0,0.0
1346,70.0,3.0,60.0,0.0,0.0
1347,57.0,15.0,20.0,0.0,0.0
1348,48.0,18.0,40.0,0.0,0.0
1349,69.0,57.0,60.0,0.0,0.0
1350,53.0,13.0,30.0,0.0,0.0
1351,67.0,26.0,60.0,0.0,0.0
1352,34.0,51.0,30.0,0.0,0.0
1353,65.0,19.0,90.0,0.0,0.0
1354,70.0,31.0,40.0,0.0,0.0
1355,46.0,3.0,15.0,0.0,0.0
1356,58.0,1.0,15.0,0.0,0.0
1357,70.0,54.0,15.0,0.0,0.0
1358,53.0,0.0,15.0,0.0,0.0
1359,72.0,55.0,40.0,0.0,0.0
1360,70.0,9.0,60.0,0.0,0.0
1361,69.0,82.0,60.0,0.0,0.0
1362,53.0,4.0,30.0,0.0,0.0
1363,46.0,10.0,30.0,0.0,0.0
1364,58.0,18.0,15.0,0.0,0.0
1365,67.0,32.0,90.0,0.0,0.0
1366,69.0,152.0,300.0,0.0,0.0
1367,41.0,102.0,40.0,0.0,0.0
1368,53.0,1.0,30.0,0.0,0.0
1369,65.0,113.0,30.0,0.0,0.0
1370,65.0,19.0,40.0,0.0,0.0
1371,60.0,11.0,20.0,0.0,0.0
1372,53.0,1.0,30.0,0.0,0.0
1373,63.0,6.0,15.0,0.0,0.0
1374,46.0,8.0,120.0,0.0,0.0
1375,65.0,43.0,60.0,0.0,0.0
1376,69.0,7.0,40.0,0.0,0.0
1377,58.0,53.0,15.0,0.0,0.0
1378,53.0,3.0,15.0,0.0,0.0
1379,70.0,59.0,60.0,0.0,0.0
1380,72.0,7.0,60.0,0.0,0.0
1381,46.0,27.0,30.0,0.0,0.0
1382,58.0,2.0,15.0,0.0,0.0
1383,53.0,3.0,15.0,0.0,0.0
1384,74.0,51.0,40.0,0.0,0.0
1385,75.0,24.0,40.0,0.0,0.0
1386,74.0,25.0,20.0,0.0,0.0
1387,39.0,17.0,40.0,0.0,0.0
1388,75.0,99.0,40.0,0.0,0.0
1389,74.0,3.0,120.0,0.0,0.0
1390,55.0,24.0,40.0,0.0,0.0
1391,60.0,6.0,30.0,0.0,0.0
1392,72.0,58.0,60.0,0.0,0.0
1393,70.0,6.0,60.0,0.0,0.0
1394,69.0,62.0,60.0,0.0,0.0
1395,51.0,18.0,40.0,0.0,0.0
1396,60.0,17.0,15.0,0.0,0.0
1397,55.0,15.0,30.0,0.0,0.0
1398,67.0,25.0,60.0,0.0,0.0
1399,41.0,49.0,40.0,0.0,0.0
1400,65.0,10.0,60.0,0.0,0.0
1401,69.0,37.0,30.0,0.0,0.0
1402,60.0,2.0,15.0,0.0,0.0
1403,53.0,6.0,15.0,0.0,0.0
1404,69.0,51.0,15.0,0.0,0.0
1405,70.0,59.0,30.0,0.0,0.0
1406,69.0,4.0,60.0,0.0,0.0
1407,67.0,63.0,60.0,0.0,0.0
1408,53.0,32.0,20.0,0.0,0.0
1409,60.0,14.0,15.0,0.0,0.0
1410,65.0,25.0,60.0,0.0,0.0
1411,34.0,106.0,30.0,0.0,0.0
1412,70.0,178.0,270.0,0.0,0.0
1413,58.0,20.0,15.0,0.0,0.0
1414,53.0,6.0,15.0,0.0,0.0
1415,62.0,100.0,30.0,0.0,0.0
1416,50.0,1.0,15.0,0.0,0.0
1417,62.0,6.0,15.0,0.0,0.0
1418,46.0,0.0,15.0,0.0,0.0
1419,58.0,0.0,15.0,0.0,0.0
1420,53.0,4.0,15.0,0.0,0.0
1421,46.0,5.0,120.0,0.0,0.0
1422,65.0,29.0,60.0,0.0,0.0
1423,69.0,15.0,40.0,0.0,0.0
1424,58.0,72.0,20.0,0.0,0.0
1425,50.0,3.0,15.0,0.0,0.0
1426,53.0,2.0,15.0,0.0,0.0
1427,70.0,45.0,90.0,0.0,0.0
1428,72.0,5.0,60.0,0.0,0.0
1429,50.0,0.0,30.0,0.0,0.0
1430,46.0,35.0,20.0,0.0,0.0
1431,58.0,1.0,15.0,0.0,0.0
1432,53.0,6.0,15.0,0.0,0.0
1433,74.0,56.0,60.0,0.0,0.0
1434,75.0,23.0,60.0,0.0,0.0
1435,74.0,12.0,20.0,0.0,0.0
1436,41.0,24.0,30.0,0.0,0.0
1437,75.0,87.0,30.0,0.0,0.0
1438,74.0,35.0,120.0,0.0,0.0
1439,72.0,61.0,60.0,0.0,0.0
1440,53.0,1.0,15.0,0.0,0.0
1441,57.0,7.0,15.0,0.0,0.0
1442,48.0,2.0,15.0,0.0,0.0
1443,70.0,9.0,60.0,0.0,0.0
1444,57.0,18.0,20.0,0.0,0.0
1445,69.0,54.0,60.0,0.0,0.0
1446,48.0,29.0,40.0,0.0,0.0
1447,53.0,2.0,15.0,0.0,0.0
1448,67.0,28.0,60.0,0.0,0.0
1449,34.0,43.0,30.0,0.0,0.0
1450,65.0,22.0,60.0,0.0,0.0
1451,70.0,36.0,30.0,0.0,0.0
1452,53.0,4.0,15.0,0.0,0.0
1453,70.0,51.0,15.0,0.0,0.0
1454,72.0,67.0,30.0,0.0,0.0
1455,70.0,14.0,90.0,0.0,0.0
1456,69.0,85.0,40.0,0.0,0.0
1457,46.0,6.0,40.0,0.0,0.0
1458,53.0,8.0,30.0,0.0,0.0
1459,58.0,10.0,15.0,0.0,0.0
1460,67.0,24.0,90.0,0.0,0.0
1461,69.0,152.0,300.0,0.0,0.0
1462,41.0,96.0,30.0,0.0,0.0
1463,65.0,128.0,20.0,0.0,0.0
1464,57.0,4.0,15.0,0.0,0.0
1465,53.0,0.0,15.0,0.0,0.0
1466,53.0,3.0,20.0,0.0,0.0
1467,60.0,4.0,20.0,0.0,0.0
1468,65.0,8.0,40.0,0.0,0.0
1469,57.0,7.0,20.0,0.0,0.0
1470,63.0,11.0,30.0,0.0,0.0
1471,65.0,34.0,60.0,0.0,0.0
1472,46.0,5.0,120.0,0.0,0.0
1473,69.0,7.0,40.0,0.0,0.0
1474,53.0,4.0,15.0,0.0,0.0
1475,58.0,63.0,15.0,0.0,0.0
1476,70.0,51.0,60.0,0.0,0.0
1477,72.0,2.0,60.0,0.0,0.0
1478,46.0,29.0,30.0,0.0,0.0
1479,58.0,1.0,15.0,0.0,0.0
1480,74.0,48.0,60.0,0.0,0.0
1481,53.0,14.0,15.0,0.0,0.0
1482,75.0,23.0,40.0,0.0,0.0
1483,74.0,16.0,20.0,0.0,0.0
1484,39.0,23.0,30.0,0.0,0.0
1485,75.0,103.0,30.0,0.0,0.0
1486,74.0,2.0,120.0,0.0,0.0
1487,60.0,12.0,30.0,0.0,0.0
1488,55.0,23.0,40.0,0.0,0.0
1489,72.0,59.0,60.0,0.0,0.0
1490,70.0,15.0,60.0,0.0,0.0
1491,55.0,19.0,20.0,0.0,0.0
1492,51.0,36.0,40.0,0.0,0.0
1493,69.0,53.0,90.0,0.0,0.0
1494,67.0,14.0,60.0,0.0,0.0
1495,41.0,56.0,30.0,0.0,0.0
1496,65.0,9.0,90.0,0.0,0.0
1497,69.0,37.0,30.0,0.0,0.0
1498,53.0,6.0,15.0,0.0,0.0
1499,69.0,46.0,20.0,0.0,0.0
1500,60.0,7.0,15.0,0.0,0.0
1501,70.0,64.0,40.0,0.0,0.0
1502,69.0,10.0,90.0,0.0,0.0
1503,53.0,33.0,20.0,0.0,0.0
1504,67.0,63.0,60.0,0.0,0.0
1505,65.0,22.0,60.0,0.0,0.0
1506,34.0,102.0,30.0,0.0,0.0
1507,70.0,170.0,270.0,0.0,0.0
1508,53.0,3.0,15.0,0.0,0.0
1509,58.0,26.0,15.0,0.0,0.0
1510,46.0,0.0,15.0,0.0,0.0
1511,62.0,101.0,30.0,0.0,0.0
1512,62.0,1.0,15.0,0.0,0.0
1513,53.0,1.0,15.0,0.0,0.0
1514,62.0,29.0,60.0,0.0,0.0
1515,70.0,11.0,120.0,0.0,0.0
1516,46.0,0.0,120.0,0.0,0.0
1517,53.0,2.0,120.0,0.0,0.0
1518,65.0,41.0,20.0,0.0,0.0
1519,56.0,4.0,15.0,0.0,0.0
1520,65.0,64.0,15.0,0.0,0.0
1521,67.0,44.0,30.0,0.0,0.0
1522,65.0,6.0,60.0,0.0,0.0
1523,55.0,4.0,15.0,0.0,0.0
1524,46.0,46.0,15.0,0.0,0.0
1525,64.0,16.0,60.0,0.0,0.0
1526,61.0,108.0,15.0,0.0,0.0
1527,60.0,9.0,60.0,0.0,0.0
1528,46.0,0.0,120.0,0.0,0.0
1529,63.0,62.0,15.0,0.0,0.0
1530,54.0,9.0,20.0,0.0,0.0
1531,63.0,50.0,20.0,0.0,0.0
1532,51.0,1.0,15.0,0.0,0.0
1533,65.0,32.0,20.0,0.0,0.0
1534,63.0,24.0,30.0,0.0,0.0
1535,62.0,13.0,60.0,0.0,0.0
1536,53.0,2.0,20.0,0.0,0.0
1537,46.0,38.0,20.0,0.0,0.0
1538,58.0,109.0,15.0,0.0,0.0
1539,62.0,8.0,90.0,0.0,0.0
1540,46.0,12.0,60.0,0.0,0.0
1541,53.0,8.0,60.0,0.0,0.0
1542,65.0,48.0,20.0,0.0,0.0
1543,56.0,7.0,15.0,0.0,0.0
1544,65.0,51.0,30.0,0.0,0.0
1545,46.0,10.0,20.0,0.0,0.0
1546,67.0,18.0,20.0,0.0,0.0
1547,65.0,39.0,30.0,0.0,0.0
1548,64.0,17.0,60.0,0.0,0.0
1549,46.0,42.0,15.0,0.0,0.0
1550,55.0,2.0,15.0,0.0,0.0
1551,61.0,110.0,15.0,0.0,0.0
1552,70.0,3.0,60.0,0.0,0.0
1553,60.0,5.0,60.0,0.0,0.0
1554,51.0,9.0,120.0,0.0,0.0
1555,46.0,9.0,240.0,0.0,0.0
1556,63.0,64.0,15.0,0.0,0.0
1557,54.0,6.0,30.0,0.0,0.0
1558,63.0,55.0,30.0,0.0,0.0
1559,65.0,32.0,30.0,0.0,0.0
1560,63.0,0.0,40.0,0.0,0.0
1561,62.0,24.0,60.0,0.0,0.0
1562,53.0,41.0,15.0,0.0,0.0
1563,58.0,67.0,15.0,0.0,0.0
1564,50.0,2.0,120.0,0.0,0.0
1565,46.0,14.0,120.0,0.0,0.0
1566,58.0,55.0,20.0,0.0,0.0
1567,65.0,3.0,150.0,0.0,0.0
1568,62.0,53.0,15.0,0.0,0.0
1569,53.0,1.0,15.0,0.0,0.0
1570,62.0,1.0,30.0,0.0,0.0
1571,58.0,54.0,20.0,0.0,0.0
1572,63.0,37.0,30.0,0.0,0.0
1573,62.0,13.0,40.0,0.0,0.0
1574,52.0,32.0,20.0,0.0,0.0
1575,60.0,20.0,60.0,0.0,0.0
1576,46.0,4.0,15.0,0.0,0.0
1577,55.0,108.0,15.0,0.0,0.0
1578,48.0,4.0,150.0,0.0,0.0
1579,46.0,3.0,120.0,0.0,0.0
1580,65.0,7.0,180.0,0.0,0.0
1581,57.0,19.0,60.0,0.0,0.0
1582,60.0,58.0,15.0,0.0,0.0
1583,60.0,44.0,20.0,0.0,0.0
1584,51.0,2.0,15.0,0.0,0.0
1585,62.0,52.0,20.0,0.0,0.0
1586,60.0,2.0,15.0,0.0,0.0
1587,58.0,36.0,40.0,0.0,0.0
1588,50.0,2.0,15.0,0.0,0.0
1589,46.0,22.0,15.0,0.0,0.0
1590,53.0,121.0,15.0,0.0,0.0
1591,58.0,5.0,60.0,0.0,0.0
1592,50.0,1.0,150.0,0.0,0.0
1593,65.0,14.0,180.0,0.0,0.0
1594,46.0,24.0,180.0,0.0,0.0
1595,62.0,89.0,15.0,0.0,0.0
1596,62.0,0.0,40.0,0.0,0.0
1597,53.0,8.0,40.0,0.0,0.0
1598,63.0,27.0,30.0,0.0,0.0
1599,62.0,1.0,40.0,0.0,0.0
1600,60.0,12.0,15.0,0.0,0.0
1601,52.0,2.0,15.0,0.0,0.0
1602,46.0,58.0,15.0,0.0,0.0
1603,55.0,96.0,15.0,0.0,0.0
1604,48.0,1.0,180.0,0.0,0.0
1605,65.0,51.0,210.0,0.0,0.0
1606,46.0,8.0,150.0,0.0,0.0
1607,57.0,24.0,40.0,0.0,0.0
1608,60.0,74.0,15.0,0.0,0.0
1609,51.0,39.0,40.0,0.0,0.0
1610,60.0,9.0,20.0,0.0,0.0
1611,62.0,5.0,20.0,0.0,0.0
1612,60.0,1.0,15.0,0.0,0.0
1613,50.0,2.0,20.0,0.0,0.0
1614,46.0,2.0,15.0,0.0,0.0
1615,58.0,49.0,15.0,0.0,0.0
1616,53.0,110.0,15.0,0.0,0.0
1617,58.0,69.0,150.0,0.0,0.0
1618,50.0,9.0,60.0,0.0,0.0
1619,46.0,54.0,60.0,0.0,0.0
1620,34.0,36.0,240.0,0.0,0.0
1621,53.0,9.0,15.0,0.0,0.0
1622,53.0,7.0,15.0,0.0,0.0
1623,41.0,0.0,15.0,0.0,0.0
1624,55.0,31.0,30.0,0.0,0.0
1625,53.0,23.0,40.0,0.0,0.0
1626,52.0,21.0,60.0,0.0,0.0
1627,49.0,74.0,15.0,0.0,0.0
1628,58.0,10.0,60.0,0.0,0.0
1629,48.0,6.0,40.0,0.0,0.0
1630,43.0,22.0,20.0,0.0,0.0
1631,34.0,3.0,270.0,0.0,0.0
1632,51.0,82.0,15.0,0.0,0.0
1633,42.0,19.0,60.0,0.0,0.0
1634,51.0,35.0,30.0,0.0,0.0
1635,53.0,24.0,30.0,0.0,0.0
1636,51.0,42.0,30.0,0.0,0.0
1637,50.0,30.0,40.0,0.0,0.0
1638,39.0,11.0,30.0,0.0,0.0
1639,46.0,105.0,15.0,0.0,0.0
1640,58.0,8.0,60.0,0.0,0.0
1641,50.0,10.0,60.0,0.0,0.0
1642,41.0,29.0,60.0,0.0,0.0
1643,34.0,32.0,300.0,0.0,0.0
1644,53.0,55.0,20.0,0.0,0.0
1645,41.0,17.0,30.0,0.0,0.0
1646,53.0,42.0,40.0,0.0,0.0
1647,55.0,19.0,30.0,0.0,0.0
1648,53.0,32.0,30.0,0.0,0.0
1649,52.0,16.0,30.0,0.0,0.0
1650,43.0,16.0,15.0,0.0,0.0
1651,49.0,78.0,20.0,0.0,0.0
1652,58.0,8.0,60.0,0.0,0.0
1653,48.0,27.0,30.0,0.0,0.0
1654,34.0,44.0,150.0,0.0,0.0
1655,51.0,78.0,15.0,0.0,0.0
1656,42.0,0.0,40.0,0.0,0.0
1657,51.0,9.0,30.0,0.0,0.0
1658,53.0,32.0,30.0,0.0,0.0
1659,51.0,58.0,40.0,0.0,0.0
1660,50.0,3.0,60.0,0.0,0.0
1661,41.0,13.0,40.0,0.0,0.0
1662,46.0,74.0,15.0,0.0,0.0
1663,41.0,3.0,40.0,0.0,0.0
1664,50.0,19.0,15.0,0.0,0.0
1665,58.0,14.0,30.0,0.0,0.0
1666,34.0,74.0,40.0,0.0,0.0
1667,65.0,122.0,20.0,0.0,0.0
1668,70.0,37.0,30.0,0.0,0.0
1669,46.0,13.0,15.0,0.0,0.0
1670,53.0,2.0,15.0,0.0,0.0
1671,77.0,72.0,15.0,0.0,0.0
1672,82.0,47.0,15.0,0.0,0.0
1673,86.0,67.0,15.0,0.0,0.0
1674,88.0,62.0,15.0,0.0,0.0
1675,89.0,50.0,15.0,0.0,0.0
1676,91.0,49.0,15.0,0.0,0.0
1677,93.0,414.0,15.0,0.0,0.0
1678,94.0,0.0,360.0,0.0,0.0
