,note,step,duration,channel,velocity
0,40.0,41.0,40.0,0.0,64.0
1,52.0,42.0,40.0,0.0,64.0
2,59.0,41.0,40.0,0.0,64.0
3,64.0,41.0,40.0,0.0,64.0
4,68.0,40.0,40.0,0.0,64.0
5,64.0,41.0,40.0,0.0,64.0
6,71.0,41.0,40.0,0.0,64.0
7,76.0,41.0,40.0,0.0,64.0
8,80.0,42.0,40.0,0.0,64.0
9,76.0,41.0,40.0,0.0,64.0
10,83.0,39.0,40.0,0.0,64.0
11,88.0,42.0,40.0,0.0,64.0
12,92.0,41.0,40.0,0.0,64.0
13,88.0,42.0,40.0,0.0,64.0
14,95.0,41.0,40.0,0.0,64.0
15,100.0,41.0,40.0,0.0,64.0
16,104.0,40.0,40.0,0.0,64.0
17,100.0,41.0,40.0,0.0,64.0
18,95.0,41.0,40.0,0.0,64.0
19,88.0,41.0,40.0,0.0,64.0
20,92.0,42.0,40.0,0.0,64.0
21,88.0,39.0,40.0,0.0,64.0
22,83.0,41.0,40.0,0.0,64.0
23,76.0,42.0,40.0,0.0,64.0
24,80.0,41.0,40.0,0.0,64.0
25,76.0,41.0,40.0,0.0,64.0
26,71.0,41.0,40.0,0.0,64.0
27,64.0,40.0,40.0,0.0,64.0
28,68.0,42.0,40.0,0.0,64.0
29,64.0,41.0,40.0,0.0,64.0
30,59.0,41.0,40.0,0.0,64.0
31,52.0,41.0,40.0,0.0,64.0
32,45.0,19.0,510.0,0.0,64.0
33,33.0,42.0,30.0,0.0,64.0
34,52.0,39.0,40.0,0.0,64.0
35,61.0,41.0,40.0,0.0,64.0
36,64.0,42.0,40.0,0.0,64.0
37,69.0,41.0,40.0,0.0,64.0
38,64.0,41.0,40.0,0.0,64.0
39,73.0,39.0,40.0,0.0,64.0
40,76.0,42.0,40.0,0.0,64.0
41,81.0,42.0,40.0,0.0,64.0
42,76.0,40.0,40.0,0.0,64.0
43,85.0,27.0,40.0,0.0,64.0
44,88.0,22.0,40.0,0.0,64.0
45,93.0,40.0,40.0,0.0,64.0
46,88.0,41.0,40.0,0.0,64.0
47,97.0,41.0,40.0,0.0,64.0
48,100.0,42.0,40.0,0.0,64.0
49,104.0,41.0,40.0,0.0,64.0
50,34.0,13.0,390.0,0.0,64.0
51,46.0,17.0,420.0,0.0,64.0
52,100.0,41.0,40.0,0.0,64.0
53,97.0,40.0,40.0,0.0,64.0
54,88.0,41.0,40.0,0.0,64.0
55,92.0,41.0,40.0,0.0,64.0
56,88.0,41.0,40.0,0.0,64.0
57,85.0,42.0,40.0,0.0,64.0
58,76.0,39.0,40.0,0.0,64.0
59,80.0,28.0,40.0,0.0,64.0
60,76.0,25.0,40.0,0.0,64.0
61,73.0,41.0,40.0,0.0,64.0
62,64.0,42.0,40.0,0.0,64.0
63,66.0,40.0,40.0,0.0,64.0
64,64.0,40.0,40.0,0.0,64.0
65,61.0,41.0,40.0,0.0,64.0
66,52.0,42.0,40.0,0.0,64.0
67,35.0,41.0,30.0,0.0,64.0
68,47.0,2.0,120.0,0.0,64.0
69,51.0,41.0,40.0,0.0,64.0
70,59.0,23.0,40.0,0.0,64.0
71,63.0,39.0,40.0,0.0,64.0
72,66.0,41.0,40.0,0.0,64.0
73,63.0,42.0,40.0,0.0,64.0
74,71.0,41.0,40.0,0.0,64.0
75,75.0,28.0,40.0,0.0,64.0
76,46.0,6.0,40.0,0.0,64.0
77,34.0,7.0,40.0,0.0,64.0
78,78.0,39.0,40.0,0.0,64.0
79,75.0,42.0,40.0,0.0,64.0
80,83.0,41.0,40.0,0.0,64.0
81,87.0,32.0,40.0,0.0,64.0
82,44.0,6.0,40.0,0.0,64.0
83,32.0,4.0,40.0,0.0,64.0
84,90.0,41.0,40.0,0.0,64.0
85,87.0,41.0,40.0,0.0,64.0
86,95.0,40.0,40.0,0.0,64.0
87,99.0,41.0,40.0,0.0,64.0
88,102.0,0.0,40.0,0.0,64.0
89,30.0,41.0,40.0,0.0,64.0
90,42.0,4.0,390.0,0.0,64.0
91,97.0,42.0,40.0,0.0,64.0
92,94.0,41.0,40.0,0.0,64.0
93,88.0,41.0,40.0,0.0,64.0
94,90.0,39.0,40.0,0.0,64.0
95,85.0,42.0,40.0,0.0,64.0
96,82.0,41.0,40.0,0.0,64.0
97,76.0,41.0,40.0,0.0,64.0
98,78.0,16.0,40.0,0.0,64.0
99,73.0,39.0,40.0,0.0,64.0
100,70.0,42.0,40.0,0.0,64.0
101,64.0,40.0,40.0,0.0,64.0
102,66.0,42.0,40.0,0.0,64.0
103,61.0,41.0,40.0,0.0,64.0
104,58.0,42.0,40.0,0.0,64.0
105,52.0,41.0,40.0,0.0,64.0
106,35.0,41.0,20.0,0.0,64.0
107,47.0,26.0,1230.0,0.0,64.0
108,52.0,42.0,40.0,0.0,64.0
109,57.0,41.0,40.0,0.0,64.0
110,60.0,43.0,40.0,0.0,64.0
111,66.0,41.0,40.0,0.0,64.0
112,64.0,44.0,40.0,0.0,64.0
113,69.0,43.0,40.0,0.0,64.0
114,72.0,43.0,40.0,0.0,64.0
115,78.0,43.0,40.0,0.0,64.0
116,76.0,43.0,40.0,0.0,64.0
117,81.0,46.0,40.0,0.0,64.0
118,84.0,43.0,40.0,0.0,64.0
119,90.0,44.0,40.0,0.0,64.0
120,88.0,45.0,40.0,0.0,64.0
121,93.0,46.0,40.0,0.0,64.0
122,96.0,45.0,40.0,0.0,64.0
123,102.0,45.0,40.0,0.0,64.0
124,95.0,45.0,40.0,0.0,64.0
125,93.0,45.0,40.0,0.0,64.0
126,87.0,45.0,40.0,0.0,64.0
127,90.0,45.0,40.0,0.0,64.0
128,83.0,45.0,40.0,0.0,64.0
129,81.0,45.0,40.0,0.0,64.0
130,75.0,45.0,40.0,0.0,64.0
131,78.0,45.0,40.0,0.0,64.0
132,71.0,45.0,40.0,0.0,64.0
133,69.0,26.0,40.0,0.0,64.0
134,63.0,19.0,40.0,0.0,64.0
135,67.0,45.0,40.0,0.0,64.0
136,59.0,45.0,40.0,0.0,64.0
137,57.0,46.0,40.0,0.0,64.0
138,51.0,45.0,40.0,0.0,64.0
139,40.0,43.0,15.0,0.0,64.0
140,52.0,45.0,40.0,0.0,64.0
141,59.0,43.0,40.0,0.0,64.0
142,64.0,45.0,40.0,0.0,64.0
143,68.0,43.0,40.0,0.0,64.0
144,64.0,43.0,40.0,0.0,64.0
145,71.0,43.0,40.0,0.0,64.0
146,76.0,42.0,40.0,0.0,64.0
147,80.0,43.0,40.0,0.0,64.0
148,76.0,41.0,40.0,0.0,64.0
149,83.0,43.0,40.0,0.0,64.0
150,88.0,42.0,40.0,0.0,64.0
151,92.0,41.0,40.0,0.0,64.0
152,88.0,42.0,40.0,0.0,64.0
153,95.0,41.0,40.0,0.0,64.0
154,100.0,41.0,40.0,0.0,64.0
155,104.0,40.0,40.0,0.0,64.0
156,100.0,41.0,40.0,0.0,64.0
157,95.0,41.0,40.0,0.0,64.0
158,88.0,41.0,40.0,0.0,64.0
159,92.0,40.0,40.0,0.0,64.0
160,88.0,24.0,40.0,0.0,64.0
161,83.0,39.0,40.0,0.0,64.0
162,76.0,42.0,40.0,0.0,64.0
163,80.0,41.0,40.0,0.0,64.0
164,76.0,41.0,40.0,0.0,64.0
165,71.0,42.0,40.0,0.0,64.0
166,64.0,41.0,40.0,0.0,64.0
167,68.0,39.0,40.0,0.0,64.0
168,64.0,41.0,40.0,0.0,64.0
169,59.0,42.0,40.0,0.0,64.0
170,52.0,41.0,40.0,0.0,64.0
171,37.0,42.0,40.0,0.0,64.0
172,49.0,2.0,1020.0,0.0,64.0
173,52.0,39.0,40.0,0.0,64.0
174,57.0,41.0,40.0,0.0,64.0
175,64.0,42.0,40.0,0.0,64.0
176,69.0,41.0,40.0,0.0,64.0
177,64.0,41.0,40.0,0.0,64.0
178,69.0,42.0,40.0,0.0,64.0
179,76.0,39.0,40.0,0.0,64.0
180,81.0,42.0,40.0,0.0,64.0
181,76.0,40.0,40.0,0.0,64.0
182,81.0,42.0,40.0,0.0,64.0
183,88.0,41.0,40.0,0.0,64.0
184,93.0,41.0,40.0,0.0,64.0
185,88.0,40.0,40.0,0.0,64.0
186,93.0,41.0,40.0,0.0,64.0
187,100.0,42.0,40.0,0.0,64.0
188,104.0,41.0,40.0,0.0,64.0
189,100.0,41.0,40.0,0.0,64.0
190,94.0,40.0,40.0,0.0,64.0
191,88.0,41.0,40.0,0.0,64.0
192,92.0,41.0,40.0,0.0,64.0
193,88.0,41.0,40.0,0.0,64.0
194,82.0,42.0,40.0,0.0,64.0
195,76.0,39.0,40.0,0.0,64.0
196,80.0,10.0,40.0,0.0,64.0
197,76.0,42.0,40.0,0.0,64.0
198,70.0,41.0,40.0,0.0,64.0
199,64.0,42.0,40.0,0.0,64.0
200,68.0,40.0,40.0,0.0,64.0
201,64.0,42.0,40.0,0.0,64.0
202,58.0,39.0,40.0,0.0,64.0
203,52.0,42.0,40.0,0.0,64.0
204,47.0,28.0,930.0,0.0,64.0
205,35.0,41.0,40.0,0.0,64.0
206,52.0,41.0,40.0,0.0,64.0
207,59.0,42.0,40.0,0.0,64.0
208,64.0,39.0,40.0,0.0,64.0
209,66.0,41.0,40.0,0.0,64.0
210,64.0,42.0,40.0,0.0,64.0
211,71.0,41.0,40.0,0.0,64.0
212,76.0,41.0,40.0,0.0,64.0
213,78.0,41.0,40.0,0.0,64.0
214,76.0,40.0,40.0,0.0,64.0
215,83.0,41.0,40.0,0.0,64.0
216,88.0,41.0,40.0,0.0,64.0
217,90.0,42.0,40.0,0.0,64.0
218,88.0,41.0,40.0,0.0,64.0
219,95.0,42.0,40.0,0.0,64.0
220,100.0,39.0,40.0,0.0,64.0
221,102.0,41.0,40.0,0.0,64.0
222,99.0,41.0,40.0,0.0,64.0
223,95.0,42.0,40.0,0.0,64.0
224,87.0,41.0,40.0,0.0,64.0
225,90.0,11.0,40.0,0.0,64.0
226,87.0,13.0,40.0,0.0,64.0
227,83.0,41.0,40.0,0.0,64.0
228,75.0,41.0,40.0,0.0,64.0
229,78.0,42.0,40.0,0.0,64.0
230,75.0,41.0,40.0,0.0,64.0
231,71.0,40.0,40.0,0.0,64.0
232,63.0,41.0,40.0,0.0,64.0
233,66.0,41.0,40.0,0.0,64.0
234,63.0,41.0,40.0,0.0,64.0
235,59.0,41.0,40.0,0.0,64.0
236,51.0,42.0,40.0,0.0,64.0
237,40.0,40.0,30.0,0.0,64.0
238,52.0,28.0,1080.0,0.0,64.0
239,54.0,41.0,40.0,0.0,64.0
240,59.0,41.0,40.0,0.0,64.0
241,66.0,41.0,40.0,0.0,64.0
242,68.0,42.0,40.0,0.0,64.0
243,66.0,39.0,40.0,0.0,64.0
244,71.0,41.0,40.0,0.0,64.0
245,78.0,42.0,40.0,0.0,64.0
246,80.0,41.0,40.0,0.0,64.0
247,78.0,41.0,40.0,0.0,64.0
248,83.0,41.0,40.0,0.0,64.0
249,90.0,40.0,40.0,0.0,64.0
250,92.0,41.0,40.0,0.0,64.0
251,90.0,42.0,40.0,0.0,64.0
252,95.0,41.0,40.0,0.0,64.0
253,102.0,41.0,40.0,0.0,64.0
254,104.0,42.0,40.0,0.0,64.0
255,100.0,39.0,40.0,0.0,64.0
256,95.0,41.0,40.0,0.0,64.0
257,88.0,42.0,40.0,0.0,64.0
258,92.0,41.0,40.0,0.0,64.0
259,88.0,41.0,40.0,0.0,64.0
260,83.0,40.0,40.0,0.0,64.0
261,76.0,41.0,40.0,0.0,64.0
262,80.0,41.0,40.0,0.0,64.0
263,76.0,10.0,40.0,0.0,64.0
264,71.0,42.0,40.0,0.0,64.0
265,64.0,41.0,40.0,0.0,64.0
266,68.0,39.0,40.0,0.0,64.0
267,64.0,42.0,40.0,0.0,64.0
268,59.0,41.0,40.0,0.0,64.0
269,52.0,41.0,40.0,0.0,64.0
270,49.0,32.0,420.0,0.0,64.0
271,37.0,42.0,30.0,0.0,64.0
272,56.0,41.0,40.0,0.0,64.0
273,64.0,40.0,40.0,0.0,64.0
274,68.0,41.0,40.0,0.0,64.0
275,69.0,41.0,40.0,0.0,64.0
276,68.0,41.0,40.0,0.0,64.0
277,76.0,42.0,40.0,0.0,64.0
278,80.0,22.0,40.0,0.0,64.0
279,81.0,41.0,40.0,0.0,64.0
280,80.0,10.0,40.0,0.0,64.0
281,88.0,41.0,40.0,0.0,64.0
282,92.0,41.0,40.0,0.0,64.0
283,93.0,41.0,40.0,0.0,64.0
284,92.0,40.0,40.0,0.0,64.0
285,100.0,41.0,40.0,0.0,64.0
286,104.0,41.0,40.0,0.0,64.0
287,51.0,2.0,180.0,0.0,64.0
288,39.0,30.0,210.0,0.0,64.0
289,105.0,42.0,40.0,0.0,64.0
290,102.0,41.0,40.0,0.0,64.0
291,99.0,40.0,40.0,0.0,64.0
292,90.0,9.0,40.0,0.0,64.0
293,93.0,41.0,40.0,0.0,64.0
294,90.0,42.0,40.0,0.0,64.0
295,87.0,41.0,40.0,0.0,64.0
296,78.0,41.0,40.0,0.0,64.0
297,49.0,35.0,180.0,0.0,64.0
298,37.0,1.0,180.0,0.0,64.0
299,81.0,39.0,40.0,0.0,64.0
300,78.0,42.0,40.0,0.0,64.0
301,75.0,41.0,40.0,0.0,64.0
302,66.0,5.0,40.0,0.0,64.0
303,69.0,42.0,40.0,0.0,64.0
304,66.0,41.0,40.0,0.0,64.0
305,63.0,39.0,40.0,0.0,64.0
306,54.0,42.0,40.0,0.0,64.0
307,36.0,41.0,20.0,0.0,64.0
308,48.0,41.0,570.0,0.0,64.0
309,54.0,42.0,40.0,0.0,64.0
310,63.0,41.0,40.0,0.0,64.0
311,66.0,41.0,40.0,0.0,64.0
312,68.0,39.0,40.0,0.0,64.0
313,66.0,42.0,40.0,0.0,64.0
314,75.0,41.0,40.0,0.0,64.0
315,78.0,41.0,40.0,0.0,64.0
316,80.0,42.0,40.0,0.0,64.0
317,78.0,39.0,40.0,0.0,64.0
318,87.0,41.0,40.0,0.0,64.0
319,90.0,42.0,40.0,0.0,64.0
320,92.0,20.0,40.0,0.0,64.0
321,90.0,0.0,40.0,0.0,64.0
322,99.0,41.0,40.0,0.0,64.0
323,102.0,40.0,40.0,0.0,64.0
324,104.0,41.0,40.0,0.0,64.0
325,49.0,2.0,150.0,0.0,64.0
326,37.0,26.0,180.0,0.0,64.0
327,100.0,42.0,40.0,0.0,64.0
328,97.0,39.0,40.0,0.0,64.0
329,88.0,15.0,40.0,0.0,64.0
330,92.0,42.0,40.0,0.0,64.0
331,88.0,39.0,40.0,0.0,64.0
332,85.0,41.0,40.0,0.0,64.0
333,76.0,42.0,40.0,0.0,64.0
334,80.0,41.0,40.0,0.0,64.0
335,47.0,9.0,150.0,0.0,64.0
336,35.0,38.0,150.0,0.0,64.0
337,76.0,41.0,40.0,0.0,64.0
338,73.0,30.0,40.0,0.0,64.0
339,64.0,4.0,40.0,0.0,64.0
340,68.0,41.0,40.0,0.0,64.0
341,64.0,41.0,40.0,0.0,64.0
342,61.0,42.0,40.0,0.0,64.0
343,52.0,41.0,40.0,0.0,64.0
344,45.0,14.0,900.0,0.0,64.0
345,33.0,40.0,30.0,0.0,64.0
346,52.0,41.0,40.0,0.0,64.0
347,61.0,41.0,40.0,0.0,64.0
348,64.0,42.0,40.0,0.0,64.0
349,68.0,41.0,40.0,0.0,64.0
350,64.0,41.0,40.0,0.0,64.0
351,73.0,39.0,40.0,0.0,64.0
352,76.0,42.0,40.0,0.0,64.0
353,80.0,41.0,40.0,0.0,64.0
354,76.0,41.0,40.0,0.0,64.0
355,85.0,42.0,40.0,0.0,64.0
356,88.0,39.0,40.0,0.0,64.0
357,92.0,41.0,40.0,0.0,64.0
358,88.0,41.0,40.0,0.0,64.0
359,97.0,42.0,40.0,0.0,64.0
360,100.0,41.0,40.0,0.0,64.0
361,103.0,41.0,40.0,0.0,64.0
362,99.0,40.0,40.0,0.0,64.0
363,97.0,41.0,40.0,0.0,64.0
364,87.0,42.0,40.0,0.0,64.0
365,91.0,41.0,40.0,0.0,64.0
366,87.0,9.0,40.0,0.0,64.0
367,85.0,42.0,40.0,0.0,64.0
368,75.0,39.0,40.0,0.0,64.0
369,79.0,41.0,40.0,0.0,64.0
370,75.0,41.0,40.0,0.0,64.0
371,73.0,42.0,40.0,0.0,64.0
372,63.0,41.0,40.0,0.0,64.0
373,67.0,39.0,40.0,0.0,64.0
374,63.0,42.0,40.0,0.0,64.0
375,61.0,41.0,40.0,0.0,64.0
376,51.0,42.0,40.0,0.0,64.0
377,32.0,41.0,40.0,0.0,64.0
378,51.0,41.0,40.0,0.0,64.0
379,61.0,43.0,40.0,0.0,64.0
380,63.0,42.0,40.0,0.0,64.0
381,68.0,43.0,40.0,0.0,64.0
382,63.0,41.0,40.0,0.0,64.0
383,73.0,43.0,40.0,0.0,64.0
384,75.0,44.0,40.0,0.0,64.0
385,80.0,43.0,40.0,0.0,64.0
386,75.0,44.0,40.0,0.0,64.0
387,85.0,44.0,40.0,0.0,64.0
388,87.0,45.0,40.0,0.0,64.0
389,92.0,43.0,40.0,0.0,64.0
390,87.0,45.0,40.0,0.0,64.0
391,97.0,45.0,40.0,0.0,64.0
392,99.0,45.0,40.0,0.0,64.0
393,104.0,45.0,40.0,0.0,64.0
394,99.0,46.0,40.0,0.0,64.0
395,96.0,44.0,40.0,0.0,64.0
396,87.0,45.0,40.0,0.0,64.0
397,92.0,6.0,40.0,0.0,64.0
398,87.0,46.0,40.0,0.0,64.0
399,84.0,45.0,40.0,0.0,64.0
400,75.0,45.0,40.0,0.0,64.0
401,80.0,44.0,40.0,0.0,64.0
402,75.0,46.0,40.0,0.0,64.0
403,72.0,45.0,40.0,0.0,64.0
404,63.0,45.0,40.0,0.0,64.0
405,68.0,45.0,40.0,0.0,64.0
406,63.0,45.0,40.0,0.0,64.0
407,60.0,45.0,40.0,0.0,64.0
408,51.0,45.0,40.0,0.0,64.0
409,37.0,45.0,40.0,0.0,64.0
410,49.0,28.0,420.0,0.0,64.0
411,56.0,45.0,40.0,0.0,64.0
412,61.0,45.0,40.0,0.0,64.0
413,65.0,45.0,40.0,0.0,64.0
414,71.0,45.0,40.0,0.0,64.0
415,68.0,46.0,40.0,0.0,64.0
416,73.0,45.0,40.0,0.0,64.0
417,77.0,31.0,40.0,0.0,64.0
418,83.0,18.0,40.0,0.0,64.0
419,80.0,45.0,40.0,0.0,64.0
420,85.0,45.0,40.0,0.0,64.0
421,89.0,45.0,40.0,0.0,64.0
422,95.0,45.0,40.0,0.0,64.0
423,89.0,45.0,40.0,0.0,64.0
424,85.0,45.0,40.0,0.0,64.0
425,80.0,45.0,40.0,0.0,64.0
426,42.0,16.0,450.0,0.0,64.0
427,54.0,28.0,420.0,0.0,64.0
428,95.0,45.0,40.0,0.0,64.0
429,88.0,45.0,40.0,0.0,64.0
430,85.0,45.0,40.0,0.0,64.0
431,80.0,45.0,40.0,0.0,64.0
432,83.0,45.0,40.0,0.0,64.0
433,76.0,46.0,40.0,0.0,64.0
434,73.0,45.0,40.0,0.0,64.0
435,68.0,44.0,40.0,0.0,64.0
436,71.0,1.0,40.0,0.0,64.0
437,64.0,46.0,40.0,0.0,64.0
438,61.0,45.0,40.0,0.0,64.0
439,56.0,45.0,40.0,0.0,64.0
440,70.0,45.0,40.0,0.0,64.0
441,64.0,45.0,40.0,0.0,64.0
442,61.0,45.0,40.0,0.0,64.0
443,54.0,45.0,40.0,0.0,64.0
444,35.0,45.0,40.0,0.0,64.0
445,47.0,4.0,1110.0,0.0,64.0
446,54.0,45.0,40.0,0.0,64.0
447,59.0,45.0,40.0,0.0,64.0
448,64.0,45.0,40.0,0.0,64.0
449,69.0,45.0,40.0,0.0,64.0
450,66.0,45.0,40.0,0.0,64.0
451,71.0,47.0,40.0,0.0,64.0
452,76.0,45.0,40.0,0.0,64.0
453,81.0,45.0,40.0,0.0,64.0
454,78.0,45.0,40.0,0.0,64.0
455,83.0,46.0,40.0,0.0,64.0
456,88.0,45.0,40.0,0.0,64.0
457,93.0,45.0,40.0,0.0,64.0
458,90.0,44.0,40.0,0.0,64.0
459,95.0,46.0,40.0,0.0,64.0
460,100.0,45.0,40.0,0.0,64.0
461,105.0,45.0,40.0,0.0,64.0
462,99.0,45.0,40.0,0.0,64.0
463,95.0,45.0,40.0,0.0,64.0
464,90.0,45.0,40.0,0.0,64.0
465,93.0,45.0,40.0,0.0,64.0
466,87.0,45.0,40.0,0.0,64.0
467,83.0,45.0,40.0,0.0,64.0
468,78.0,4.0,40.0,0.0,64.0
469,81.0,45.0,40.0,0.0,64.0
470,75.0,45.0,40.0,0.0,64.0
471,71.0,45.0,40.0,0.0,64.0
472,66.0,46.0,40.0,0.0,64.0
473,69.0,44.0,40.0,0.0,64.0
474,63.0,45.0,40.0,0.0,64.0
475,59.0,45.0,40.0,0.0,64.0
476,54.0,46.0,40.0,0.0,64.0
477,40.0,45.0,40.0,0.0,64.0
478,52.0,45.0,40.0,0.0,64.0
479,59.0,45.0,40.0,0.0,64.0
480,62.0,45.0,40.0,0.0,64.0
481,68.0,45.0,40.0,0.0,64.0
482,64.0,45.0,40.0,0.0,64.0
483,71.0,45.0,40.0,0.0,64.0
484,74.0,15.0,40.0,0.0,64.0
485,80.0,45.0,40.0,0.0,64.0
486,76.0,45.0,40.0,0.0,64.0
487,83.0,45.0,40.0,0.0,64.0
488,86.0,45.0,40.0,0.0,64.0
489,92.0,45.0,40.0,0.0,64.0
490,88.0,45.0,40.0,0.0,64.0
491,95.0,45.0,40.0,0.0,64.0
492,34.0,13.0,540.0,0.0,64.0
493,100.0,46.0,40.0,0.0,64.0
494,46.0,38.0,540.0,0.0,64.0
495,103.0,45.0,40.0,0.0,64.0
496,98.0,45.0,40.0,0.0,64.0
497,91.0,45.0,40.0,0.0,64.0
498,88.0,45.0,40.0,0.0,64.0
499,91.0,45.0,40.0,0.0,64.0
500,86.0,45.0,40.0,0.0,64.0
501,79.0,45.0,40.0,0.0,64.0
502,76.0,45.0,40.0,0.0,64.0
503,79.0,45.0,40.0,0.0,64.0
504,74.0,32.0,40.0,0.0,64.0
505,67.0,7.0,40.0,0.0,64.0
506,64.0,45.0,40.0,0.0,64.0
507,67.0,45.0,40.0,0.0,64.0
508,62.0,45.0,40.0,0.0,64.0
509,55.0,45.0,40.0,0.0,64.0
510,52.0,46.0,40.0,0.0,64.0
511,45.0,38.0,450.0,0.0,64.0
512,33.0,45.0,40.0,0.0,64.0
513,52.0,44.0,40.0,0.0,64.0
514,55.0,45.0,40.0,0.0,64.0
515,61.0,46.0,40.0,0.0,64.0
516,67.0,45.0,40.0,0.0,64.0
517,64.0,45.0,40.0,0.0,64.0
518,67.0,45.0,40.0,0.0,64.0
519,73.0,2.0,40.0,0.0,64.0
520,79.0,7.0,40.0,0.0,64.0
521,76.0,45.0,40.0,0.0,64.0
522,79.0,45.0,40.0,0.0,64.0
523,85.0,45.0,40.0,0.0,64.0
524,91.0,45.0,40.0,0.0,64.0
525,88.0,45.0,40.0,0.0,64.0
526,91.0,45.0,40.0,0.0,64.0
527,97.0,45.0,40.0,0.0,64.0
528,51.0,22.0,450.0,0.0,64.0
529,39.0,0.0,450.0,0.0,64.0
530,103.0,46.0,40.0,0.0,64.0
531,96.0,44.0,40.0,0.0,64.0
532,91.0,45.0,40.0,0.0,64.0
533,87.0,45.0,40.0,0.0,64.0
534,91.0,46.0,40.0,0.0,64.0
535,84.0,45.0,40.0,0.0,64.0
536,79.0,45.0,40.0,0.0,64.0
537,75.0,45.0,40.0,0.0,64.0
538,79.0,23.0,40.0,0.0,64.0
539,72.0,45.0,40.0,0.0,64.0
540,67.0,45.0,40.0,0.0,64.0
541,63.0,45.0,40.0,0.0,64.0
542,67.0,45.0,40.0,0.0,64.0
543,60.0,45.0,40.0,0.0,64.0
544,55.0,45.0,40.0,0.0,64.0
545,51.0,45.0,40.0,0.0,64.0
546,38.0,46.0,40.0,0.0,64.0
547,50.0,45.0,40.0,0.0,64.0
548,57.0,44.0,40.0,0.0,64.0
549,60.0,45.0,40.0,0.0,64.0
550,66.0,46.0,40.0,0.0,64.0
551,62.0,45.0,40.0,0.0,64.0
552,66.0,45.0,40.0,0.0,64.0
553,72.0,45.0,40.0,0.0,64.0
554,78.0,45.0,40.0,0.0,64.0
555,74.0,45.0,40.0,0.0,64.0
556,81.0,45.0,40.0,0.0,64.0
557,84.0,45.0,40.0,0.0,64.0
558,90.0,45.0,40.0,0.0,64.0
559,86.0,45.0,40.0,0.0,64.0
560,93.0,45.0,40.0,0.0,64.0
561,96.0,45.0,40.0,0.0,64.0
562,50.0,9.0,450.0,0.0,64.0
563,102.0,45.0,40.0,0.0,64.0
564,96.0,45.0,40.0,0.0,64.0
565,92.0,45.0,40.0,0.0,64.0
566,86.0,45.0,40.0,0.0,64.0
567,90.0,46.0,40.0,0.0,64.0
568,84.0,45.0,40.0,0.0,64.0
569,80.0,45.0,40.0,0.0,64.0
570,74.0,44.0,40.0,0.0,64.0
571,78.0,22.0,40.0,0.0,64.0
572,72.0,45.0,40.0,0.0,64.0
573,68.0,45.0,40.0,0.0,64.0
574,62.0,45.0,40.0,0.0,64.0
575,66.0,45.0,40.0,0.0,64.0
576,60.0,45.0,40.0,0.0,64.0
577,56.0,45.0,40.0,0.0,64.0
578,50.0,45.0,40.0,0.0,64.0
579,37.0,45.0,40.0,0.0,64.0
580,49.0,45.0,40.0,0.0,64.0
581,56.0,45.0,40.0,0.0,64.0
582,61.0,45.0,40.0,0.0,64.0
583,65.0,45.0,40.0,0.0,64.0
584,61.0,46.0,40.0,0.0,64.0
585,68.0,44.0,40.0,0.0,64.0
586,73.0,45.0,40.0,0.0,64.0
587,77.0,45.0,40.0,0.0,64.0
588,73.0,46.0,40.0,0.0,64.0
589,80.0,45.0,40.0,0.0,64.0
590,85.0,45.0,40.0,0.0,64.0
591,89.0,45.0,40.0,0.0,64.0
592,85.0,45.0,40.0,0.0,64.0
593,92.0,45.0,40.0,0.0,64.0
594,97.0,45.0,40.0,0.0,64.0
595,101.0,45.0,40.0,0.0,64.0
596,97.0,45.0,40.0,0.0,64.0
597,92.0,45.0,40.0,0.0,64.0
598,85.0,45.0,40.0,0.0,64.0
599,89.0,45.0,40.0,0.0,64.0
600,85.0,46.0,40.0,0.0,64.0
601,80.0,44.0,40.0,0.0,64.0
602,73.0,45.0,40.0,0.0,64.0
603,77.0,45.0,40.0,0.0,64.0
604,73.0,46.0,40.0,0.0,64.0
605,68.0,45.0,40.0,0.0,64.0
606,61.0,45.0,40.0,0.0,64.0
607,65.0,45.0,40.0,0.0,64.0
608,61.0,45.0,40.0,0.0,64.0
609,56.0,45.0,40.0,0.0,64.0
610,49.0,9.0,40.0,0.0,64.0
611,42.0,45.0,40.0,0.0,64.0
612,49.0,45.0,40.0,0.0,64.0
613,54.0,45.0,40.0,0.0,64.0
614,58.0,45.0,40.0,0.0,64.0
615,64.0,45.0,40.0,0.0,64.0
616,61.0,45.0,40.0,0.0,64.0
617,66.0,36.0,40.0,0.0,64.0
618,70.0,45.0,40.0,0.0,64.0
619,76.0,45.0,40.0,0.0,64.0
620,73.0,46.0,40.0,0.0,64.0
621,78.0,45.0,40.0,0.0,64.0
622,82.0,45.0,40.0,0.0,64.0
623,88.0,44.0,40.0,0.0,64.0
624,85.0,46.0,40.0,0.0,64.0
625,90.0,45.0,40.0,0.0,64.0
626,94.0,45.0,40.0,0.0,64.0
627,35.0,7.0,750.0,0.0,64.0
628,100.0,45.0,40.0,0.0,64.0
629,47.0,0.0,40.0,0.0,64.0
630,93.0,47.0,40.0,0.0,64.0
631,90.0,45.0,40.0,0.0,64.0
632,83.0,45.0,40.0,0.0,64.0
633,88.0,45.0,40.0,0.0,64.0
634,81.0,45.0,40.0,0.0,64.0
635,78.0,45.0,40.0,0.0,64.0
636,71.0,45.0,40.0,0.0,64.0
637,76.0,45.0,40.0,0.0,64.0
638,69.0,45.0,40.0,0.0,64.0
639,66.0,46.0,40.0,0.0,64.0
640,59.0,44.0,40.0,0.0,64.0
641,63.0,45.0,40.0,0.0,64.0
642,57.0,45.0,40.0,0.0,64.0
643,54.0,46.0,40.0,0.0,64.0
644,47.0,24.0,40.0,0.0,64.0
645,40.0,45.0,30.0,0.0,64.0
646,47.0,45.0,40.0,0.0,64.0
647,52.0,45.0,40.0,0.0,64.0
648,56.0,45.0,40.0,0.0,64.0
649,63.0,45.0,40.0,0.0,64.0
650,59.0,45.0,40.0,0.0,64.0
651,64.0,45.0,40.0,0.0,64.0
652,68.0,45.0,40.0,0.0,64.0
653,75.0,30.0,40.0,0.0,64.0
654,71.0,45.0,40.0,0.0,64.0
655,76.0,45.0,40.0,0.0,64.0
656,80.0,45.0,40.0,0.0,64.0
657,87.0,45.0,40.0,0.0,64.0
658,83.0,45.0,40.0,0.0,64.0
659,88.0,45.0,40.0,0.0,64.0
660,92.0,46.0,40.0,0.0,64.0
661,99.0,45.0,40.0,0.0,64.0
662,33.0,2.0,660.0,0.0,64.0
663,45.0,0.0,40.0,0.0,64.0
664,92.0,45.0,40.0,0.0,64.0
665,88.0,44.0,40.0,0.0,64.0
666,81.0,46.0,40.0,0.0,64.0
667,87.0,45.0,40.0,0.0,64.0
668,80.0,45.0,40.0,0.0,64.0
669,76.0,45.0,40.0,0.0,64.0
670,69.0,45.0,40.0,0.0,64.0
671,75.0,45.0,40.0,0.0,64.0
672,68.0,45.0,40.0,0.0,64.0
673,64.0,45.0,40.0,0.0,64.0
674,57.0,45.0,40.0,0.0,64.0
675,61.0,45.0,40.0,0.0,64.0
676,56.0,43.0,40.0,0.0,64.0
677,52.0,38.0,40.0,0.0,64.0
678,45.0,7.0,40.0,0.0,64.0
679,39.0,45.0,40.0,0.0,64.0
680,45.0,44.0,40.0,0.0,64.0
681,51.0,45.0,40.0,0.0,64.0
682,54.0,46.0,40.0,0.0,64.0
683,61.0,45.0,40.0,0.0,64.0
684,57.0,45.0,40.0,0.0,64.0
685,63.0,45.0,40.0,0.0,64.0
686,66.0,45.0,40.0,0.0,64.0
687,73.0,45.0,40.0,0.0,64.0
688,69.0,45.0,40.0,0.0,64.0
689,75.0,34.0,40.0,0.0,64.0
690,78.0,45.0,40.0,0.0,64.0
691,85.0,46.0,40.0,0.0,64.0
692,81.0,44.0,40.0,0.0,64.0
693,87.0,45.0,40.0,0.0,64.0
694,90.0,46.0,40.0,0.0,64.0
695,44.0,38.0,120.0,0.0,64.0
696,32.0,26.0,90.0,0.0,64.0
697,95.0,18.0,40.0,0.0,64.0
698,90.0,8.0,40.0,0.0,64.0
699,87.0,44.0,40.0,0.0,64.0
700,80.0,46.0,40.0,0.0,64.0
701,83.0,45.0,40.0,0.0,64.0
702,78.0,45.0,40.0,0.0,64.0
703,75.0,45.0,40.0,0.0,64.0
704,68.0,45.0,40.0,0.0,64.0
705,73.0,7.0,40.0,0.0,64.0
706,49.0,10.0,40.0,0.0,64.0
707,37.0,28.0,60.0,0.0,64.0
708,76.0,45.0,40.0,0.0,64.0
709,83.0,45.0,40.0,0.0,64.0
710,80.0,45.0,40.0,0.0,64.0
711,85.0,45.0,40.0,0.0,64.0
712,88.0,45.0,40.0,0.0,64.0
713,95.0,45.0,40.0,0.0,64.0
714,92.0,45.0,40.0,0.0,64.0
715,93.0,12.0,40.0,0.0,64.0
716,42.0,33.0,40.0,0.0,64.0
717,30.0,0.0,40.0,0.0,64.0
718,88.0,45.0,40.0,0.0,64.0
719,85.0,45.0,40.0,0.0,64.0
720,78.0,45.0,40.0,0.0,64.0
721,81.0,46.0,40.0,0.0,64.0
722,76.0,45.0,40.0,0.0,64.0
723,73.0,45.0,40.0,0.0,64.0
724,66.0,41.0,40.0,0.0,64.0
725,71.0,12.0,40.0,0.0,64.0
726,47.0,3.0,40.0,0.0,64.0
727,35.0,34.0,60.0,0.0,64.0
728,75.0,45.0,40.0,0.0,64.0
729,81.0,45.0,40.0,0.0,64.0
730,78.0,45.0,40.0,0.0,64.0
731,83.0,45.0,40.0,0.0,64.0
732,87.0,45.0,40.0,0.0,64.0
733,93.0,45.0,40.0,0.0,64.0
734,90.0,45.0,40.0,0.0,64.0
735,92.0,2.0,40.0,0.0,64.0
736,40.0,35.0,40.0,0.0,64.0
737,28.0,8.0,30.0,0.0,64.0
738,87.0,45.0,40.0,0.0,64.0
739,83.0,45.0,40.0,0.0,64.0
740,76.0,45.0,40.0,0.0,64.0
741,80.0,46.0,40.0,0.0,64.0
742,75.0,45.0,40.0,0.0,64.0
743,71.0,44.0,40.0,0.0,64.0
744,64.0,38.0,40.0,0.0,64.0
745,45.0,2.0,40.0,0.0,64.0
746,33.0,5.0,40.0,0.0,64.0
747,69.0,46.0,40.0,0.0,64.0
748,73.0,45.0,40.0,0.0,64.0
749,80.0,45.0,40.0,0.0,64.0
750,76.0,45.0,40.0,0.0,64.0
751,81.0,45.0,40.0,0.0,64.0
752,85.0,45.0,40.0,0.0,64.0
753,92.0,45.0,40.0,0.0,64.0
754,88.0,45.0,40.0,0.0,64.0
755,51.0,43.0,390.0,0.0,64.0
756,90.0,45.0,40.0,0.0,64.0
757,85.0,45.0,40.0,0.0,64.0
758,81.0,45.0,40.0,0.0,64.0
759,75.0,45.0,40.0,0.0,64.0
760,78.0,46.0,40.0,0.0,64.0
761,73.0,44.0,40.0,0.0,64.0
762,69.0,45.0,40.0,0.0,64.0
763,63.0,2.0,40.0,0.0,64.0
764,66.0,46.0,40.0,0.0,64.0
765,61.0,45.0,40.0,0.0,64.0
766,57.0,45.0,40.0,0.0,64.0
767,51.0,225.0,40.0,0.0,64.0
768,39.0,71.0,720.0,0.0,64.0
769,91.0,45.0,40.0,0.0,64.0
770,85.0,45.0,40.0,0.0,64.0
771,82.0,45.0,40.0,0.0,64.0
772,75.0,45.0,40.0,0.0,64.0
773,79.0,45.0,40.0,0.0,64.0
774,73.0,45.0,40.0,0.0,64.0
775,70.0,45.0,40.0,0.0,64.0
776,63.0,45.0,40.0,0.0,64.0
777,67.0,45.0,40.0,0.0,64.0
778,61.0,46.0,40.0,0.0,64.0
779,58.0,45.0,40.0,0.0,64.0
780,51.0,0.0,40.0,0.0,64.0
781,39.0,73.0,60.0,0.0,64.0
782,32.0,6.0,840.0,0.0,64.0
783,44.0,9.0,780.0,0.0,64.0
784,51.0,45.0,40.0,0.0,64.0
785,56.0,45.0,40.0,0.0,64.0
786,60.0,45.0,40.0,0.0,64.0
787,68.0,45.0,40.0,0.0,64.0
788,63.0,45.0,40.0,0.0,64.0
789,68.0,45.0,40.0,0.0,64.0
790,72.0,45.0,40.0,0.0,64.0
791,80.0,45.0,40.0,0.0,64.0
792,75.0,46.0,40.0,0.0,64.0
793,80.0,45.0,40.0,0.0,64.0
794,84.0,44.0,40.0,0.0,64.0
795,92.0,45.0,40.0,0.0,64.0
796,87.0,46.0,40.0,0.0,64.0
797,92.0,45.0,40.0,0.0,64.0
798,96.0,47.0,40.0,0.0,64.0
799,104.0,36.0,40.0,0.0,64.0
800,96.0,39.0,40.0,0.0,64.0
801,92.0,47.0,40.0,0.0,64.0
802,87.0,47.0,40.0,0.0,64.0
803,92.0,47.0,40.0,0.0,64.0
804,84.0,49.0,40.0,0.0,64.0
805,80.0,46.0,40.0,0.0,64.0
806,75.0,49.0,40.0,0.0,64.0
807,80.0,47.0,40.0,0.0,64.0
808,72.0,49.0,40.0,0.0,64.0
809,68.0,41.0,40.0,0.0,64.0
810,63.0,5.0,40.0,0.0,64.0
811,42.0,8.0,30.0,0.0,64.0
812,30.0,42.0,40.0,0.0,64.0
813,69.0,49.0,40.0,0.0,64.0
814,63.0,48.0,40.0,0.0,64.0
815,59.0,47.0,40.0,0.0,64.0
816,54.0,96.0,40.0,0.0,64.0
817,40.0,34.0,210.0,0.0,64.0
818,28.0,13.0,180.0,0.0,64.0
819,52.0,47.0,40.0,0.0,64.0
820,59.0,47.0,40.0,0.0,64.0
821,64.0,32.0,40.0,0.0,64.0
822,68.0,13.0,40.0,0.0,64.0
823,64.0,45.0,40.0,0.0,64.0
824,71.0,45.0,40.0,0.0,64.0
825,76.0,45.0,40.0,0.0,64.0
826,80.0,43.0,40.0,0.0,64.0
827,76.0,45.0,40.0,0.0,64.0
828,83.0,43.0,40.0,0.0,64.0
829,88.0,43.0,40.0,0.0,64.0
830,92.0,44.0,40.0,0.0,64.0
831,88.0,43.0,40.0,0.0,64.0
832,95.0,43.0,40.0,0.0,64.0
833,100.0,41.0,40.0,0.0,64.0
834,104.0,44.0,40.0,0.0,64.0
835,40.0,43.0,330.0,0.0,64.0
836,52.0,34.0,300.0,0.0,64.0
837,100.0,41.0,40.0,0.0,64.0
838,95.0,43.0,40.0,0.0,64.0
839,88.0,43.0,40.0,0.0,64.0
840,92.0,41.0,40.0,0.0,64.0
841,88.0,44.0,40.0,0.0,64.0
842,83.0,7.0,40.0,0.0,64.0
843,76.0,0.0,40.0,0.0,64.0
844,80.0,43.0,40.0,0.0,64.0
845,76.0,42.0,40.0,0.0,64.0
846,71.0,43.0,40.0,0.0,64.0
847,64.0,41.0,40.0,0.0,64.0
848,68.0,43.0,40.0,0.0,64.0
849,64.0,44.0,40.0,0.0,64.0
850,59.0,41.0,40.0,0.0,64.0
851,52.0,84.0,40.0,0.0,64.0
852,45.0,17.0,390.0,0.0,64.0
853,33.0,13.0,360.0,0.0,64.0
854,52.0,43.0,40.0,0.0,64.0
855,61.0,44.0,40.0,0.0,64.0
856,64.0,41.0,40.0,0.0,64.0
857,69.0,43.0,40.0,0.0,64.0
858,64.0,41.0,40.0,0.0,64.0
859,73.0,44.0,40.0,0.0,64.0
860,76.0,30.0,40.0,0.0,64.0
861,81.0,24.0,40.0,0.0,64.0
862,76.0,43.0,40.0,0.0,64.0
863,85.0,42.0,40.0,0.0,64.0
864,88.0,43.0,40.0,0.0,64.0
865,93.0,43.0,40.0,0.0,64.0
866,88.0,41.0,40.0,0.0,64.0
867,97.0,43.0,40.0,0.0,64.0
868,100.0,42.0,40.0,0.0,64.0
869,34.0,37.0,420.0,0.0,64.0
870,46.0,4.0,480.0,0.0,64.0
871,104.0,43.0,40.0,0.0,64.0
872,100.0,41.0,40.0,0.0,64.0
873,97.0,43.0,40.0,0.0,64.0
874,88.0,44.0,40.0,0.0,64.0
875,92.0,41.0,40.0,0.0,64.0
876,88.0,43.0,40.0,0.0,64.0
877,85.0,41.0,40.0,0.0,64.0
878,76.0,44.0,40.0,0.0,64.0
879,80.0,43.0,40.0,0.0,64.0
880,76.0,0.0,40.0,0.0,64.0
881,73.0,43.0,40.0,0.0,64.0
882,64.0,42.0,40.0,0.0,64.0
883,66.0,43.0,40.0,0.0,64.0
884,64.0,43.0,40.0,0.0,64.0
885,61.0,41.0,40.0,0.0,64.0
886,52.0,85.0,40.0,0.0,64.0
887,47.0,4.0,180.0,0.0,64.0
888,35.0,12.0,300.0,0.0,64.0
889,51.0,43.0,40.0,0.0,64.0
890,59.0,39.0,40.0,0.0,64.0
891,63.0,41.0,40.0,0.0,64.0
892,66.0,44.0,40.0,0.0,64.0
893,63.0,29.0,40.0,0.0,64.0
894,71.0,43.0,40.0,0.0,64.0
895,75.0,43.0,40.0,0.0,64.0
896,78.0,32.0,40.0,0.0,64.0
897,34.0,25.0,90.0,0.0,64.0
898,46.0,10.0,60.0,0.0,64.0
899,75.0,18.0,40.0,0.0,64.0
900,83.0,41.0,40.0,0.0,64.0
901,87.0,43.0,40.0,0.0,64.0
902,90.0,26.0,40.0,0.0,64.0
903,32.0,34.0,60.0,0.0,64.0
904,44.0,17.0,40.0,0.0,64.0
905,87.0,8.0,40.0,0.0,64.0
906,95.0,43.0,40.0,0.0,64.0
907,99.0,41.0,40.0,0.0,64.0
908,102.0,43.0,40.0,0.0,64.0
909,30.0,11.0,480.0,0.0,64.0
910,42.0,23.0,510.0,0.0,64.0
911,97.0,44.0,40.0,0.0,64.0
912,94.0,43.0,40.0,0.0,64.0
913,88.0,43.0,40.0,0.0,64.0
914,92.0,43.0,40.0,0.0,64.0
915,85.0,43.0,40.0,0.0,64.0
916,82.0,45.0,40.0,0.0,64.0
917,76.0,43.0,40.0,0.0,64.0
918,78.0,45.0,40.0,0.0,64.0
919,73.0,44.0,40.0,0.0,64.0
920,70.0,34.0,40.0,0.0,64.0
921,64.0,22.0,40.0,0.0,64.0
922,66.0,43.0,40.0,0.0,64.0
923,61.0,45.0,40.0,0.0,64.0
924,58.0,45.0,40.0,0.0,64.0
925,52.0,90.0,40.0,0.0,64.0
926,35.0,23.0,1020.0,0.0,64.0
927,47.0,9.0,1080.0,0.0,64.0
928,52.0,45.0,40.0,0.0,64.0
929,57.0,43.0,40.0,0.0,64.0
930,60.0,45.0,40.0,0.0,64.0
931,66.0,44.0,40.0,0.0,64.0
932,64.0,45.0,40.0,0.0,64.0
933,69.0,43.0,40.0,0.0,64.0
934,72.0,43.0,40.0,0.0,64.0
935,78.0,43.0,40.0,0.0,64.0
936,76.0,44.0,40.0,0.0,64.0
937,81.0,43.0,40.0,0.0,64.0
938,84.0,43.0,40.0,0.0,64.0
939,90.0,43.0,40.0,0.0,64.0
940,88.0,41.0,40.0,0.0,64.0
941,93.0,44.0,40.0,0.0,64.0
942,96.0,40.0,40.0,0.0,64.0
943,102.0,44.0,40.0,0.0,64.0
944,95.0,43.0,40.0,0.0,64.0
945,93.0,41.0,40.0,0.0,64.0
946,87.0,43.0,40.0,0.0,64.0
947,90.0,42.0,40.0,0.0,64.0
948,83.0,43.0,40.0,0.0,64.0
949,81.0,20.0,40.0,0.0,64.0
950,75.0,32.0,40.0,0.0,64.0
951,78.0,43.0,40.0,0.0,64.0
952,71.0,42.0,40.0,0.0,64.0
953,69.0,43.0,40.0,0.0,64.0
954,63.0,55.0,40.0,0.0,64.0
955,67.0,56.0,60.0,0.0,64.0
956,59.0,55.0,60.0,0.0,64.0
957,57.0,56.0,60.0,0.0,64.0
958,51.0,107.0,60.0,0.0,64.0
959,40.0,13.0,930.0,0.0,64.0
960,52.0,49.0,60.0,0.0,64.0
961,59.0,48.0,40.0,0.0,64.0
962,64.0,45.0,40.0,0.0,64.0
963,68.0,45.0,40.0,0.0,64.0
964,64.0,44.0,40.0,0.0,64.0
965,71.0,41.0,40.0,0.0,64.0
966,76.0,41.0,40.0,0.0,64.0
967,80.0,41.0,40.0,0.0,64.0
968,76.0,42.0,40.0,0.0,64.0
969,83.0,39.0,40.0,0.0,64.0
970,88.0,41.0,40.0,0.0,64.0
971,92.0,42.0,40.0,0.0,64.0
972,88.0,41.0,40.0,0.0,64.0
973,95.0,41.0,40.0,0.0,64.0
974,100.0,42.0,40.0,0.0,64.0
975,104.0,39.0,40.0,0.0,64.0
976,100.0,42.0,40.0,0.0,64.0
977,95.0,41.0,40.0,0.0,64.0
978,88.0,9.0,40.0,0.0,64.0
979,92.0,41.0,40.0,0.0,64.0
980,88.0,40.0,40.0,0.0,64.0
981,83.0,41.0,40.0,0.0,64.0
982,76.0,41.0,40.0,0.0,64.0
983,80.0,42.0,40.0,0.0,64.0
984,76.0,41.0,40.0,0.0,64.0
985,71.0,41.0,40.0,0.0,64.0
986,64.0,40.0,40.0,0.0,64.0
987,68.0,41.0,40.0,0.0,64.0
988,64.0,41.0,40.0,0.0,64.0
989,59.0,41.0,40.0,0.0,64.0
990,52.0,83.0,40.0,0.0,64.0
991,37.0,4.0,870.0,0.0,64.0
992,49.0,27.0,930.0,0.0,64.0
993,52.0,40.0,40.0,0.0,64.0
994,57.0,41.0,40.0,0.0,64.0
995,64.0,41.0,40.0,0.0,64.0
996,69.0,42.0,40.0,0.0,64.0
997,64.0,41.0,40.0,0.0,64.0
998,69.0,39.0,40.0,0.0,64.0
999,76.0,42.0,40.0,0.0,64.0
1000,81.0,41.0,40.0,0.0,64.0
1001,76.0,41.0,40.0,0.0,64.0
1002,81.0,41.0,40.0,0.0,64.0
1003,88.0,42.0,40.0,0.0,64.0
1004,93.0,39.0,40.0,0.0,64.0
1005,88.0,41.0,40.0,0.0,64.0
1006,93.0,42.0,40.0,0.0,64.0
1007,100.0,41.0,40.0,0.0,64.0
1008,104.0,42.0,40.0,0.0,64.0
1009,100.0,41.0,40.0,0.0,64.0
1010,94.0,39.0,40.0,0.0,64.0
1011,88.0,38.0,40.0,0.0,64.0
1012,92.0,41.0,40.0,0.0,64.0
1013,88.0,15.0,40.0,0.0,64.0
1014,82.0,40.0,40.0,0.0,64.0
1015,76.0,40.0,40.0,0.0,64.0
1016,79.0,41.0,40.0,0.0,64.0
1017,76.0,41.0,40.0,0.0,64.0
1018,70.0,42.0,40.0,0.0,64.0
1019,64.0,41.0,40.0,0.0,64.0
1020,67.0,8.0,40.0,0.0,64.0
1021,48.0,5.0,40.0,0.0,64.0
1022,36.0,28.0,40.0,0.0,64.0
1023,64.0,40.0,40.0,0.0,64.0
1024,58.0,41.0,40.0,0.0,64.0
1025,52.0,82.0,40.0,0.0,64.0
1026,35.0,11.0,1020.0,0.0,64.0
1027,52.0,42.0,40.0,0.0,64.0
1028,47.0,34.0,1020.0,0.0,64.0
1029,59.0,40.0,40.0,0.0,64.0
1030,64.0,41.0,40.0,0.0,64.0
1031,66.0,41.0,40.0,0.0,64.0
1032,64.0,41.0,40.0,0.0,64.0
1033,71.0,42.0,40.0,0.0,64.0
1034,76.0,41.0,40.0,0.0,64.0
1035,78.0,39.0,40.0,0.0,64.0
1036,76.0,42.0,40.0,0.0,64.0
1037,83.0,41.0,40.0,0.0,64.0
1038,88.0,41.0,40.0,0.0,64.0
1039,90.0,41.0,40.0,0.0,64.0
1040,88.0,42.0,40.0,0.0,64.0
1041,95.0,39.0,40.0,0.0,64.0
1042,100.0,41.0,40.0,0.0,64.0
1043,102.0,42.0,40.0,0.0,64.0
1044,99.0,41.0,40.0,0.0,64.0
1045,95.0,42.0,40.0,0.0,64.0
1046,87.0,39.0,40.0,0.0,64.0
1047,90.0,41.0,40.0,0.0,64.0
1048,87.0,42.0,40.0,0.0,64.0
1049,83.0,41.0,40.0,0.0,64.0
1050,75.0,41.0,40.0,0.0,64.0
1051,78.0,30.0,40.0,0.0,64.0
1052,75.0,6.0,40.0,0.0,64.0
1053,71.0,41.0,40.0,0.0,64.0
1054,63.0,41.0,40.0,0.0,64.0
1055,66.0,42.0,40.0,0.0,64.0
1056,63.0,41.0,40.0,0.0,64.0
1057,59.0,41.0,40.0,0.0,64.0
1058,51.0,81.0,40.0,0.0,64.0
1059,46.0,27.0,480.0,0.0,64.0
1060,34.0,5.0,480.0,0.0,64.0
1061,52.0,42.0,40.0,0.0,64.0
1062,61.0,41.0,40.0,0.0,64.0
1063,64.0,41.0,40.0,0.0,64.0
1064,66.0,39.0,40.0,0.0,64.0
1065,64.0,42.0,40.0,0.0,64.0
1066,73.0,41.0,40.0,0.0,64.0
1067,76.0,41.0,40.0,0.0,64.0
1068,78.0,42.0,40.0,0.0,64.0
1069,76.0,41.0,40.0,0.0,64.0
1070,85.0,39.0,40.0,0.0,64.0
1071,88.0,10.0,40.0,0.0,64.0
1072,90.0,41.0,40.0,0.0,64.0
1073,88.0,41.0,40.0,0.0,64.0
1074,97.0,41.0,40.0,0.0,64.0
1075,100.0,42.0,40.0,0.0,64.0
1076,45.0,19.0,330.0,0.0,64.0
1077,33.0,21.0,360.0,0.0,64.0
1078,103.0,39.0,40.0,0.0,64.0
1079,100.0,41.0,40.0,0.0,64.0
1080,97.0,42.0,40.0,0.0,64.0
1081,88.0,41.0,40.0,0.0,64.0
1082,91.0,42.0,40.0,0.0,64.0
1083,88.0,39.0,40.0,0.0,64.0
1084,85.0,41.0,40.0,0.0,64.0
1085,76.0,2.0,40.0,0.0,64.0
1086,79.0,41.0,40.0,0.0,64.0
1087,75.0,41.0,40.0,0.0,64.0
1088,73.0,42.0,40.0,0.0,64.0
1089,63.0,39.0,40.0,0.0,64.0
1090,67.0,41.0,40.0,0.0,64.0
1091,63.0,41.0,40.0,0.0,64.0
1092,61.0,42.0,40.0,0.0,64.0
1093,51.0,82.0,40.0,0.0,64.0
1094,44.0,23.0,210.0,0.0,64.0
1095,32.0,27.0,150.0,0.0,64.0
1096,51.0,39.0,40.0,0.0,64.0
1097,60.0,42.0,40.0,0.0,64.0
1098,63.0,15.0,40.0,0.0,64.0
1099,68.0,18.0,40.0,0.0,64.0
1100,63.0,41.0,40.0,0.0,64.0
1101,72.0,39.0,40.0,0.0,64.0
1102,75.0,42.0,40.0,0.0,64.0
1103,80.0,41.0,40.0,0.0,64.0
1104,75.0,41.0,40.0,0.0,64.0
1105,76.0,0.0,40.0,0.0,64.0
1106,84.0,42.0,40.0,0.0,64.0
1107,87.0,41.0,40.0,0.0,64.0
1108,92.0,39.0,40.0,0.0,64.0
1109,87.0,41.0,40.0,0.0,64.0
1110,96.0,42.0,40.0,0.0,64.0
1111,99.0,41.0,40.0,0.0,64.0
1112,104.0,41.0,40.0,0.0,64.0
1113,44.0,2.0,360.0,0.0,64.0
1114,56.0,12.0,330.0,0.0,64.0
1115,99.0,42.0,40.0,0.0,64.0
1116,96.0,39.0,40.0,0.0,64.0
1117,87.0,42.0,40.0,0.0,64.0
1118,92.0,41.0,40.0,0.0,64.0
1119,87.0,41.0,40.0,0.0,64.0
1120,84.0,42.0,40.0,0.0,64.0
1121,75.0,25.0,40.0,0.0,64.0
1122,80.0,41.0,40.0,0.0,64.0
1123,75.0,42.0,40.0,0.0,64.0
1124,72.0,41.0,40.0,0.0,64.0
1125,63.0,41.0,40.0,0.0,64.0
1126,68.0,41.0,40.0,0.0,64.0
1127,63.0,40.0,40.0,0.0,64.0
1128,60.0,41.0,40.0,0.0,64.0
1129,51.0,41.0,40.0,0.0,64.0
1130,42.0,42.0,15.0,0.0,64.0
1131,54.0,41.0,40.0,0.0,64.0
1132,61.0,41.0,40.0,0.0,64.0
1133,64.0,40.0,40.0,0.0,64.0
1134,69.0,41.0,40.0,0.0,64.0
1135,66.0,41.0,40.0,0.0,64.0
1136,73.0,42.0,40.0,0.0,64.0
1137,76.0,41.0,40.0,0.0,64.0
1138,81.0,39.0,40.0,0.0,64.0
1139,78.0,27.0,40.0,0.0,64.0
1140,85.0,41.0,40.0,0.0,64.0
1141,88.0,41.0,40.0,0.0,64.0
1142,93.0,42.0,40.0,0.0,64.0
1143,90.0,41.0,40.0,0.0,64.0
1144,97.0,39.0,40.0,0.0,64.0
1145,100.0,41.0,40.0,0.0,64.0
1146,35.0,34.0,660.0,0.0,64.0
1147,105.0,42.0,40.0,0.0,64.0
1148,47.0,9.0,540.0,0.0,64.0
1149,99.0,41.0,40.0,0.0,64.0
1150,95.0,42.0,40.0,0.0,64.0
1151,90.0,41.0,40.0,0.0,64.0
1152,93.0,39.0,40.0,0.0,64.0
1153,87.0,42.0,40.0,0.0,64.0
1154,83.0,41.0,40.0,0.0,64.0
1155,78.0,41.0,40.0,0.0,64.0
1156,81.0,42.0,40.0,0.0,64.0
1157,75.0,39.0,40.0,0.0,64.0
1158,71.0,41.0,40.0,0.0,64.0
1159,66.0,41.0,40.0,0.0,64.0
1160,69.0,33.0,40.0,0.0,64.0
1161,63.0,41.0,40.0,0.0,64.0
1162,59.0,41.0,40.0,0.0,64.0
1163,54.0,6.0,40.0,0.0,64.0
1164,40.0,41.0,30.0,0.0,64.0
1165,52.0,42.0,40.0,0.0,64.0
1166,59.0,41.0,40.0,0.0,64.0
1167,64.0,41.0,40.0,0.0,64.0
1168,68.0,42.0,40.0,0.0,64.0
1169,64.0,39.0,40.0,0.0,64.0
1170,71.0,41.0,40.0,0.0,64.0
1171,76.0,41.0,40.0,0.0,64.0
1172,80.0,42.0,40.0,0.0,64.0
1173,76.0,41.0,40.0,0.0,64.0
1174,86.0,39.0,40.0,0.0,64.0
1175,88.0,42.0,40.0,0.0,64.0
1176,95.0,41.0,40.0,0.0,64.0
1177,88.0,41.0,40.0,0.0,64.0
1178,86.0,41.0,40.0,0.0,64.0
1179,80.0,42.0,40.0,0.0,64.0
1180,94.0,39.0,40.0,0.0,64.0
1181,52.0,1.0,210.0,0.0,64.0
1182,88.0,42.0,40.0,0.0,64.0
1183,85.0,41.0,40.0,0.0,64.0
1184,79.0,40.0,40.0,0.0,64.0
1185,82.0,26.0,40.0,0.0,64.0
1186,76.0,41.0,40.0,0.0,64.0
1187,73.0,39.0,40.0,0.0,64.0
1188,67.0,42.0,40.0,0.0,64.0
1189,81.0,41.0,40.0,0.0,64.0
1190,75.0,41.0,40.0,0.0,64.0
1191,72.0,41.0,40.0,0.0,64.0
1192,66.0,40.0,40.0,0.0,64.0
1193,69.0,41.0,40.0,0.0,64.0
1194,63.0,41.0,40.0,0.0,64.0
1195,60.0,42.0,40.0,0.0,64.0
1196,54.0,41.0,40.0,0.0,64.0
1197,40.0,41.0,40.0,0.0,64.0
1198,52.0,40.0,40.0,0.0,64.0
1199,59.0,41.0,40.0,0.0,64.0
1200,64.0,42.0,40.0,0.0,64.0
1201,68.0,41.0,40.0,0.0,64.0
1202,64.0,41.0,40.0,0.0,64.0
1203,71.0,36.0,40.0,0.0,64.0
1204,76.0,40.0,40.0,0.0,64.0
1205,80.0,41.0,40.0,0.0,64.0
1206,76.0,41.0,40.0,0.0,64.0
1207,83.0,42.0,40.0,0.0,64.0
1208,88.0,41.0,40.0,0.0,64.0
1209,92.0,39.0,40.0,0.0,64.0
1210,88.0,42.0,40.0,0.0,64.0
1211,83.0,41.0,40.0,0.0,64.0
1212,76.0,41.0,40.0,0.0,64.0
1213,47.0,22.0,570.0,0.0,64.0
1214,35.0,4.0,540.0,0.0,64.0
1215,91.0,41.0,40.0,0.0,64.0
1216,85.0,42.0,40.0,0.0,64.0
1217,82.0,40.0,40.0,0.0,64.0
1218,76.0,41.0,40.0,0.0,64.0
1219,79.0,41.0,40.0,0.0,64.0
1220,73.0,41.0,40.0,0.0,64.0
1221,70.0,42.0,40.0,0.0,64.0
1222,64.0,41.0,40.0,0.0,64.0
1223,78.0,39.0,40.0,0.0,64.0
1224,72.0,42.0,40.0,0.0,64.0
1225,69.0,41.0,40.0,0.0,64.0
1226,63.0,41.0,40.0,0.0,64.0
1227,66.0,15.0,40.0,0.0,64.0
1228,60.0,40.0,40.0,0.0,64.0
1229,57.0,41.0,40.0,0.0,64.0
1230,51.0,83.0,40.0,0.0,64.0
1231,35.0,25.0,1170.0,0.0,64.0
1232,47.0,9.0,1140.0,0.0,64.0
1233,50.0,41.0,40.0,0.0,64.0
1234,56.0,41.0,40.0,0.0,64.0
1235,59.0,40.0,40.0,0.0,64.0
1236,65.0,41.0,40.0,0.0,64.0
1237,62.0,42.0,40.0,0.0,64.0
1238,68.0,41.0,40.0,0.0,64.0
1239,71.0,41.0,40.0,0.0,64.0
1240,77.0,41.0,40.0,0.0,64.0
1241,74.0,40.0,40.0,0.0,64.0
1242,80.0,41.0,40.0,0.0,64.0
1243,83.0,41.0,40.0,0.0,64.0
1244,89.0,42.0,40.0,0.0,64.0
1245,86.0,41.0,40.0,0.0,64.0
1246,92.0,39.0,40.0,0.0,64.0
1247,95.0,42.0,40.0,0.0,64.0
1248,101.0,41.0,40.0,0.0,64.0
1249,94.0,41.0,40.0,0.0,64.0
1250,91.0,41.0,40.0,0.0,64.0
1251,85.0,42.0,40.0,0.0,64.0
1252,89.0,40.0,40.0,0.0,64.0
1253,82.0,41.0,40.0,0.0,64.0
1254,79.0,41.0,40.0,0.0,64.0
1255,73.0,41.0,40.0,0.0,64.0
1256,77.0,42.0,40.0,0.0,64.0
1257,70.0,41.0,40.0,0.0,64.0
1258,67.0,39.0,40.0,0.0,64.0
1259,61.0,8.0,40.0,0.0,64.0
1260,76.0,41.0,40.0,0.0,64.0
1261,69.0,41.0,40.0,0.0,64.0
1262,67.0,41.0,40.0,0.0,64.0
1263,61.0,81.0,40.0,0.0,64.0
1264,35.0,0.0,900.0,0.0,64.0
1265,47.0,19.0,900.0,0.0,64.0
1266,60.0,41.0,40.0,0.0,64.0
1267,66.0,42.0,40.0,0.0,64.0
1268,69.0,41.0,40.0,0.0,64.0
1269,76.0,41.0,40.0,0.0,64.0
1270,72.0,40.0,40.0,0.0,64.0
1271,78.0,41.0,40.0,0.0,64.0
1272,81.0,42.0,40.0,0.0,64.0
1273,88.0,41.0,40.0,0.0,64.0
1274,84.0,41.0,40.0,0.0,64.0
1275,90.0,41.0,40.0,0.0,64.0
1276,93.0,40.0,40.0,0.0,64.0
1277,100.0,41.0,40.0,0.0,64.0
1278,93.0,41.0,40.0,0.0,64.0
1279,90.0,42.0,40.0,0.0,64.0
1280,84.0,41.0,40.0,0.0,64.0
1281,99.0,39.0,40.0,0.0,64.0
1282,93.0,42.0,40.0,0.0,64.0
1283,90.0,41.0,40.0,0.0,64.0
1284,83.0,41.0,40.0,0.0,64.0
1285,87.0,42.0,40.0,0.0,64.0
1286,81.0,22.0,40.0,0.0,64.0
1287,78.0,39.0,40.0,0.0,64.0
1288,71.0,42.0,40.0,0.0,64.0
1289,75.0,41.0,40.0,0.0,64.0
1290,69.0,41.0,40.0,0.0,64.0
1291,66.0,42.0,40.0,0.0,64.0
1292,59.0,41.0,40.0,0.0,64.0
1293,63.0,39.0,40.0,0.0,64.0
1294,57.0,42.0,40.0,0.0,64.0
1295,54.0,41.0,40.0,0.0,64.0
1296,47.0,82.0,40.0,0.0,64.0
1297,40.0,29.0,1290.0,0.0,64.0
1298,28.0,32.0,1200.0,0.0,64.0
1299,47.0,40.0,40.0,0.0,64.0
1300,56.0,41.0,40.0,0.0,64.0
1301,59.0,41.0,40.0,0.0,64.0
1302,64.0,42.0,40.0,0.0,64.0
1303,59.0,41.0,40.0,0.0,64.0
1304,68.0,42.0,40.0,0.0,64.0
1305,71.0,39.0,40.0,0.0,64.0
1306,76.0,41.0,40.0,0.0,64.0
1307,71.0,42.0,40.0,0.0,64.0
1308,80.0,41.0,40.0,0.0,64.0
1309,83.0,41.0,40.0,0.0,64.0
1310,88.0,41.0,40.0,0.0,64.0
1311,83.0,40.0,40.0,0.0,64.0
1312,92.0,41.0,40.0,0.0,64.0
1313,95.0,41.0,40.0,0.0,64.0
1314,100.0,43.0,40.0,0.0,64.0
1315,95.0,46.0,40.0,0.0,64.0
1316,92.0,47.0,40.0,0.0,64.0
1317,83.0,47.0,40.0,0.0,64.0
1318,88.0,50.0,40.0,0.0,64.0
1319,83.0,53.0,40.0,0.0,64.0
1320,80.0,54.0,60.0,0.0,64.0
1321,71.0,55.0,60.0,0.0,64.0
1322,76.0,56.0,60.0,0.0,64.0
1323,71.0,54.0,60.0,0.0,64.0
1324,68.0,25.0,60.0,0.0,64.0
1325,59.0,50.0,60.0,0.0,64.0
1326,64.0,80.0,90.0,0.0,64.0
1327,59.0,79.0,90.0,0.0,64.0
1328,56.0,81.0,90.0,0.0,64.0
1329,47.0,1697.0,90.0,0.0,64.0
1330,40.0,0.0,1470.0,0.0,64.0
1331,28.0,1224.0,1470.0,0.0,64.0
