,note,step,duration,channel,velocity
0,42.0,240.0,120.0,0.0,0.0
1,49.0,120.0,480.0,0.0,0.0
2,57.0,120.0,120.0,0.0,0.0
3,42.0,120.0,120.0,0.0,0.0
4,61.0,120.0,240.0,0.0,0.0
5,42.0,240.0,120.0,0.0,0.0
6,49.0,120.0,480.0,0.0,0.0
7,57.0,120.0,120.0,0.0,0.0
8,42.0,120.0,120.0,0.0,0.0
9,61.0,120.0,240.0,0.0,0.0
10,42.0,240.0,120.0,0.0,0.0
11,49.0,120.0,480.0,0.0,0.0
12,57.0,120.0,120.0,0.0,0.0
13,42.0,120.0,120.0,0.0,0.0
14,61.0,120.0,240.0,0.0,0.0
15,42.0,240.0,120.0,0.0,0.0
16,49.0,120.0,480.0,0.0,0.0
17,57.0,120.0,120.0,0.0,0.0
18,42.0,120.0,120.0,0.0,0.0
19,61.0,120.0,240.0,0.0,0.0
20,73.0,120.0,480.0,0.0,0.0
21,42.0,240.0,120.0,0.0,0.0
22,49.0,120.0,480.0,0.0,0.0
23,57.0,120.0,120.0,0.0,0.0
24,42.0,0.0,120.0,0.0,0.0
25,61.0,120.0,240.0,0.0,0.0
26,69.0,0.0,240.0,0.0,0.0
27,66.0,120.0,1440.0,0.0,0.0
28,42.0,240.0,120.0,0.0,0.0
29,49.0,120.0,480.0,0.0,0.0
30,57.0,120.0,120.0,0.0,0.0
31,42.0,120.0,120.0,0.0,0.0
32,61.0,120.0,240.0,0.0,0.0
33,42.0,240.0,120.0,0.0,0.0
34,49.0,120.0,480.0,0.0,0.0
35,57.0,120.0,120.0,0.0,0.0
36,42.0,120.0,120.0,0.0,0.0
37,61.0,0.0,240.0,0.0,0.0
38,69.0,120.0,240.0,0.0,0.0
39,42.0,120.0,120.0,0.0,0.0
40,49.0,120.0,480.0,0.0,0.0
41,73.0,0.0,360.0,0.0,0.0
42,57.0,120.0,120.0,0.0,0.0
43,42.0,120.0,120.0,0.0,0.0
44,61.0,120.0,240.0,0.0,0.0
45,78.0,0.0,120.0,0.0,0.0
46,76.0,120.0,1320.0,0.0,0.0
47,42.0,240.0,120.0,0.0,0.0
48,49.0,120.0,480.0,0.0,0.0
49,57.0,120.0,120.0,0.0,0.0
50,42.0,120.0,120.0,0.0,0.0
51,61.0,120.0,240.0,0.0,0.0
52,42.0,240.0,120.0,0.0,0.0
53,49.0,0.0,480.0,0.0,0.0
54,57.0,120.0,120.0,0.0,0.0
55,42.0,120.0,120.0,0.0,0.0
56,61.0,0.0,240.0,0.0,0.0
57,74.0,120.0,120.0,0.0,0.0
58,42.0,240.0,120.0,0.0,0.0
59,73.0,120.0,720.0,0.0,0.0
60,49.0,120.0,480.0,0.0,0.0
61,57.0,120.0,120.0,0.0,0.0
62,42.0,120.0,120.0,0.0,0.0
63,61.0,0.0,240.0,0.0,0.0
64,42.0,240.0,120.0,0.0,0.0
65,49.0,120.0,480.0,0.0,0.0
66,57.0,120.0,120.0,0.0,0.0
67,42.0,120.0,120.0,0.0,0.0
68,61.0,0.0,240.0,0.0,0.0
69,73.0,120.0,120.0,0.0,0.0
70,42.0,240.0,120.0,0.0,0.0
71,73.0,0.0,480.0,0.0,0.0
72,49.0,40.0,480.0,0.0,0.0
73,57.0,120.0,120.0,0.0,0.0
74,42.0,120.0,120.0,0.0,0.0
75,61.0,120.0,240.0,0.0,0.0
76,69.0,24.0,30.0,0.0,0.0
77,66.0,28.0,30.0,0.0,0.0
78,68.0,28.0,30.0,0.0,0.0
79,69.0,0.0,30.0,0.0,0.0
80,68.0,120.0,240.0,0.0,0.0
81,42.0,120.0,120.0,0.0,0.0
82,49.0,120.0,480.0,0.0,0.0
83,57.0,120.0,120.0,0.0,0.0
84,66.0,0.0,240.0,0.0,0.0
85,42.0,120.0,120.0,0.0,0.0
86,61.0,120.0,240.0,0.0,0.0
87,42.0,240.0,120.0,0.0,0.0
88,49.0,120.0,480.0,0.0,0.0
89,57.0,120.0,120.0,0.0,0.0
90,42.0,120.0,120.0,0.0,0.0
91,61.0,0.0,240.0,0.0,0.0
92,69.0,120.0,240.0,0.0,0.0
93,42.0,120.0,120.0,0.0,0.0
94,73.0,120.0,240.0,0.0,0.0
95,49.0,0.0,480.0,0.0,0.0
96,78.0,120.0,360.0,0.0,0.0
97,57.0,120.0,120.0,0.0,0.0
98,42.0,120.0,120.0,0.0,0.0
99,61.0,0.0,240.0,0.0,0.0
100,81.0,120.0,120.0,0.0,0.0
101,80.0,120.0,1320.0,0.0,0.0
102,42.0,240.0,120.0,0.0,0.0
103,49.0,120.0,480.0,0.0,0.0
104,57.0,120.0,120.0,0.0,0.0
105,42.0,120.0,120.0,0.0,0.0
106,61.0,120.0,240.0,0.0,0.0
107,42.0,240.0,120.0,0.0,0.0
108,49.0,0.0,480.0,0.0,0.0
109,57.0,120.0,120.0,0.0,0.0
110,42.0,120.0,120.0,0.0,0.0
111,61.0,0.0,240.0,0.0,0.0
112,78.0,120.0,120.0,0.0,0.0
113,42.0,240.0,120.0,0.0,0.0
114,49.0,0.0,480.0,0.0,0.0
115,57.0,60.0,120.0,0.0,0.0
116,73.0,0.0,15.0,0.0,0.0
117,42.0,60.0,120.0,0.0,0.0
118,75.0,0.0,60.0,0.0,0.0
119,61.0,0.0,240.0,0.0,0.0
120,76.0,60.0,60.0,0.0,0.0
121,75.0,60.0,60.0,0.0,0.0
122,76.0,60.0,60.0,0.0,0.0
123,75.0,60.0,60.0,0.0,0.0
124,42.0,0.0,120.0,0.0,0.0
125,76.0,60.0,60.0,0.0,0.0
126,75.0,60.0,60.0,0.0,0.0
127,76.0,60.0,60.0,0.0,0.0
128,47.0,0.0,480.0,0.0,0.0
129,75.0,60.0,60.0,0.0,0.0
130,57.0,0.0,120.0,0.0,0.0
131,76.0,60.0,60.0,0.0,0.0
132,75.0,60.0,60.0,0.0,0.0
133,76.0,60.0,60.0,0.0,0.0
134,42.0,60.0,120.0,0.0,0.0
135,75.0,0.0,60.0,0.0,0.0
136,59.0,120.0,240.0,0.0,0.0
137,76.0,60.0,60.0,0.0,0.0
138,75.0,60.0,60.0,0.0,0.0
139,73.0,60.0,60.0,0.0,0.0
140,75.0,0.0,60.0,0.0,0.0
141,76.0,120.0,720.0,0.0,0.0
142,40.0,240.0,120.0,0.0,0.0
143,49.0,120.0,480.0,0.0,0.0
144,57.0,120.0,120.0,0.0,0.0
145,40.0,120.0,120.0,0.0,0.0
146,61.0,0.0,240.0,0.0,0.0
147,74.0,120.0,480.0,0.0,0.0
148,40.0,240.0,120.0,0.0,0.0
149,49.0,120.0,480.0,0.0,0.0
150,57.0,120.0,120.0,0.0,0.0
151,40.0,0.0,120.0,0.0,0.0
152,61.0,60.0,240.0,0.0,0.0
153,73.0,0.0,240.0,0.0,0.0
154,40.0,0.0,120.0,0.0,0.0
155,71.0,60.0,60.0,0.0,0.0
156,73.0,60.0,60.0,0.0,0.0
157,47.0,0.0,120.0,0.0,0.0
158,71.0,60.0,60.0,0.0,0.0
159,73.0,60.0,60.0,0.0,0.0
160,57.0,60.0,120.0,0.0,0.0
161,71.0,60.0,60.0,0.0,0.0
162,73.0,0.0,60.0,0.0,0.0
163,40.0,0.0,120.0,0.0,0.0
164,71.0,60.0,60.0,0.0,0.0
165,73.0,60.0,60.0,0.0,0.0
166,71.0,60.0,60.0,0.0,0.0
167,59.0,0.0,240.0,0.0,0.0
168,73.0,60.0,60.0,0.0,0.0
169,69.0,60.0,60.0,0.0,0.0
170,71.0,120.0,60.0,0.0,0.0
171,73.0,240.0,480.0,0.0,0.0
172,40.0,120.0,120.0,0.0,0.0
173,47.0,120.0,120.0,0.0,0.0
174,57.0,120.0,120.0,0.0,0.0
175,40.0,0.0,120.0,0.0,0.0
176,59.0,0.0,240.0,0.0,0.0
177,69.0,120.0,120.0,0.0,0.0
178,40.0,120.0,120.0,0.0,0.0
179,64.0,0.0,1440.0,0.0,0.0
180,50.0,120.0,120.0,0.0,0.0
181,57.0,120.0,120.0,0.0,0.0
182,40.0,240.0,120.0,0.0,0.0
183,59.0,120.0,240.0,0.0,0.0
184,40.0,120.0,120.0,0.0,0.0
185,50.0,120.0,120.0,0.0,0.0
186,57.0,120.0,120.0,0.0,0.0
187,40.0,240.0,120.0,0.0,0.0
188,59.0,120.0,240.0,0.0,0.0
189,64.0,48.0,150.0,0.0,0.0
190,40.0,24.0,120.0,0.0,0.0
191,50.0,48.0,120.0,0.0,0.0
192,66.0,48.0,60.0,0.0,0.0
193,64.0,0.0,60.0,0.0,0.0
194,63.0,48.0,60.0,0.0,0.0
195,56.0,24.0,120.0,0.0,0.0
196,64.0,24.0,60.0,0.0,0.0
197,66.0,48.0,60.0,0.0,0.0
198,40.0,0.0,120.0,0.0,0.0
199,68.0,48.0,60.0,0.0,0.0
200,69.0,48.0,60.0,0.0,0.0
201,71.0,48.0,60.0,0.0,0.0
202,59.0,48.0,240.0,0.0,0.0
203,73.0,48.0,60.0,0.0,0.0
204,74.0,48.0,60.0,0.0,0.0
205,76.0,48.0,60.0,0.0,0.0
206,78.0,0.0,60.0,0.0,0.0
207,80.0,48.0,60.0,0.0,0.0
208,40.0,24.0,120.0,0.0,0.0
209,81.0,24.0,60.0,0.0,0.0
210,83.0,48.0,60.0,0.0,0.0
211,50.0,0.0,120.0,0.0,0.0
212,85.0,48.0,60.0,0.0,0.0
213,86.0,48.0,60.0,0.0,0.0
214,88.0,48.0,60.0,0.0,0.0
215,56.0,24.0,120.0,0.0,0.0
216,90.0,24.0,60.0,0.0,0.0
217,92.0,48.0,60.0,0.0,0.0
218,40.0,0.0,120.0,0.0,0.0
219,93.0,48.0,60.0,0.0,0.0
220,95.0,48.0,60.0,0.0,0.0
221,97.0,48.0,60.0,0.0,0.0
222,59.0,0.0,240.0,0.0,0.0
223,98.0,48.0,60.0,0.0,0.0
224,100.0,48.0,60.0,0.0,0.0
225,102.0,48.0,60.0,0.0,0.0
226,104.0,120.0,60.0,0.0,0.0
227,45.0,120.0,120.0,0.0,0.0
228,105.0,240.0,480.0,0.0,0.0
229,52.0,120.0,120.0,0.0,0.0
230,61.0,120.0,120.0,0.0,0.0
231,45.0,0.0,120.0,0.0,0.0
232,64.0,120.0,240.0,0.0,0.0
233,45.0,120.0,120.0,0.0,0.0
234,52.0,120.0,120.0,0.0,0.0
235,61.0,120.0,120.0,0.0,0.0
236,45.0,240.0,120.0,0.0,0.0
237,64.0,60.0,240.0,0.0,0.0
238,45.0,60.0,120.0,0.0,0.0
239,75.0,60.0,60.0,0.0,0.0
240,76.0,0.0,60.0,0.0,0.0
241,75.0,60.0,60.0,0.0,0.0
242,55.0,0.0,120.0,0.0,0.0
243,76.0,60.0,60.0,0.0,0.0
244,61.0,0.0,120.0,0.0,0.0
245,75.0,60.0,60.0,0.0,0.0
246,76.0,60.0,60.0,0.0,0.0
247,75.0,60.0,60.0,0.0,0.0
248,45.0,60.0,120.0,0.0,0.0
249,76.0,0.0,60.0,0.0,0.0
250,63.0,0.0,240.0,0.0,0.0
251,75.0,60.0,60.0,0.0,0.0
252,76.0,60.0,60.0,0.0,0.0
253,73.0,60.0,60.0,0.0,0.0
254,75.0,120.0,60.0,0.0,0.0
255,76.0,240.0,480.0,0.0,0.0
256,45.0,120.0,120.0,0.0,0.0
257,51.0,120.0,120.0,0.0,0.0
258,61.0,120.0,120.0,0.0,0.0
259,45.0,0.0,120.0,0.0,0.0
260,63.0,0.0,240.0,0.0,0.0
261,73.0,120.0,120.0,0.0,0.0
262,68.0,240.0,480.0,0.0,0.0
263,44.0,120.0,120.0,0.0,0.0
264,52.0,120.0,120.0,0.0,0.0
265,61.0,120.0,120.0,0.0,0.0
266,44.0,0.0,120.0,0.0,0.0
267,93.0,37.0,510.0,0.0,0.0
268,64.0,120.0,240.0,0.0,0.0
269,44.0,120.0,120.0,0.0,0.0
270,52.0,36.0,120.0,0.0,0.0
271,61.0,27.0,120.0,0.0,0.0
272,92.0,37.0,30.0,0.0,0.0
273,88.0,10.0,30.0,0.0,0.0
274,85.0,37.0,30.0,0.0,0.0
275,44.0,18.0,120.0,0.0,0.0
276,81.0,37.0,30.0,0.0,0.0
277,80.0,19.0,30.0,0.0,0.0
278,76.0,37.0,30.0,0.0,0.0
279,73.0,37.0,30.0,0.0,0.0
280,69.0,37.0,30.0,0.0,0.0
281,68.0,37.0,30.0,0.0,0.0
282,64.0,37.0,30.0,0.0,0.0
283,61.0,37.0,30.0,0.0,0.0
284,57.0,120.0,30.0,0.0,0.0
285,44.0,120.0,120.0,0.0,0.0
286,56.0,96.0,480.0,0.0,0.0
287,54.0,120.0,120.0,0.0,0.0
288,60.0,120.0,120.0,0.0,0.0
289,44.0,0.0,120.0,0.0,0.0
290,63.0,16.0,240.0,0.0,0.0
291,56.0,32.0,90.0,0.0,0.0
292,57.0,32.0,30.0,0.0,0.0
293,56.0,32.0,30.0,0.0,0.0
294,55.0,32.0,30.0,0.0,0.0
295,56.0,16.0,30.0,0.0,0.0
296,58.0,32.0,30.0,0.0,0.0
297,44.0,24.0,120.0,0.0,0.0
298,60.0,32.0,30.0,0.0,0.0
299,61.0,32.0,30.0,0.0,0.0
300,63.0,8.0,30.0,0.0,0.0
301,64.0,32.0,30.0,0.0,0.0
302,54.0,0.0,120.0,0.0,0.0
303,66.0,32.0,30.0,0.0,0.0
304,68.0,32.0,30.0,0.0,0.0
305,70.0,32.0,30.0,0.0,0.0
306,60.0,8.0,120.0,0.0,0.0
307,72.0,32.0,30.0,0.0,0.0
308,73.0,32.0,30.0,0.0,0.0
309,75.0,24.0,30.0,0.0,0.0
310,76.0,32.0,30.0,0.0,0.0
311,44.0,16.0,120.0,0.0,0.0
312,78.0,32.0,30.0,0.0,0.0
313,80.0,32.0,30.0,0.0,0.0
314,82.0,16.0,30.0,0.0,0.0
315,84.0,32.0,30.0,0.0,0.0
316,63.0,0.0,240.0,0.0,0.0
317,85.0,32.0,30.0,0.0,0.0
318,87.0,32.0,30.0,0.0,0.0
319,88.0,32.0,30.0,0.0,0.0
320,90.0,32.0,30.0,0.0,0.0
321,92.0,32.0,30.0,0.0,0.0
322,94.0,32.0,30.0,0.0,0.0
323,96.0,120.0,30.0,0.0,0.0
324,37.0,120.0,120.0,0.0,0.0
325,97.0,0.0,480.0,0.0,0.0
326,44.0,120.0,120.0,0.0,0.0
327,52.0,120.0,120.0,0.0,0.0
328,37.0,240.0,120.0,0.0,0.0
329,56.0,120.0,240.0,0.0,0.0
330,37.0,120.0,120.0,0.0,0.0
331,44.0,120.0,120.0,0.0,0.0
332,52.0,120.0,120.0,0.0,0.0
333,37.0,240.0,120.0,0.0,0.0
334,56.0,120.0,240.0,0.0,0.0
335,37.0,120.0,120.0,0.0,0.0
336,44.0,120.0,120.0,0.0,0.0
337,52.0,120.0,120.0,0.0,0.0
338,37.0,240.0,120.0,0.0,0.0
339,56.0,120.0,240.0,0.0,0.0
340,37.0,120.0,120.0,0.0,0.0
341,44.0,120.0,120.0,0.0,0.0
342,52.0,120.0,120.0,0.0,0.0
343,37.0,240.0,120.0,0.0,0.0
344,56.0,120.0,240.0,0.0,0.0
345,68.0,0.0,480.0,0.0,0.0
346,37.0,120.0,120.0,0.0,0.0
347,44.0,120.0,120.0,0.0,0.0
348,52.0,120.0,120.0,0.0,0.0
349,37.0,240.0,120.0,0.0,0.0
350,64.0,0.0,240.0,0.0,0.0
351,56.0,120.0,240.0,0.0,0.0
352,37.0,120.0,120.0,0.0,0.0
353,61.0,120.0,1440.0,0.0,0.0
354,44.0,120.0,120.0,0.0,0.0
355,52.0,120.0,120.0,0.0,0.0
356,37.0,240.0,120.0,0.0,0.0
357,56.0,120.0,240.0,0.0,0.0
358,37.0,120.0,120.0,0.0,0.0
359,44.0,120.0,120.0,0.0,0.0
360,52.0,120.0,120.0,0.0,0.0
361,37.0,240.0,120.0,0.0,0.0
362,56.0,0.0,240.0,0.0,0.0
363,37.0,120.0,120.0,0.0,0.0
364,64.0,0.0,240.0,0.0,0.0
365,44.0,120.0,120.0,0.0,0.0
366,68.0,120.0,360.0,0.0,0.0
367,52.0,120.0,120.0,0.0,0.0
368,37.0,120.0,120.0,0.0,0.0
369,56.0,120.0,240.0,0.0,0.0
370,73.0,0.0,120.0,0.0,0.0
371,71.0,120.0,1320.0,0.0,0.0
372,37.0,120.0,120.0,0.0,0.0
373,44.0,120.0,120.0,0.0,0.0
374,52.0,120.0,120.0,0.0,0.0
375,37.0,240.0,120.0,0.0,0.0
376,56.0,120.0,240.0,0.0,0.0
377,37.0,120.0,120.0,0.0,0.0
378,44.0,120.0,120.0,0.0,0.0
379,52.0,120.0,120.0,0.0,0.0
380,37.0,120.0,120.0,0.0,0.0
381,56.0,120.0,240.0,0.0,0.0
382,69.0,0.0,120.0,0.0,0.0
383,68.0,120.0,720.0,0.0,0.0
384,37.0,120.0,120.0,0.0,0.0
385,44.0,120.0,120.0,0.0,0.0
386,52.0,120.0,120.0,0.0,0.0
387,37.0,240.0,120.0,0.0,0.0
388,56.0,0.0,240.0,0.0,0.0
389,37.0,120.0,120.0,0.0,0.0
390,44.0,120.0,120.0,0.0,0.0
391,52.0,120.0,120.0,0.0,0.0
392,37.0,240.0,120.0,0.0,0.0
393,56.0,0.0,240.0,0.0,0.0
394,68.0,120.0,15.0,0.0,0.0
395,37.0,120.0,120.0,0.0,0.0
396,44.0,120.0,120.0,0.0,0.0
397,52.0,120.0,120.0,0.0,0.0
398,37.0,0.0,120.0,0.0,0.0
399,56.0,120.0,240.0,0.0,0.0
400,64.0,24.0,30.0,0.0,0.0
401,61.0,28.0,30.0,0.0,0.0
402,63.0,28.0,30.0,0.0,0.0
403,64.0,0.0,30.0,0.0,0.0
404,37.0,120.0,120.0,0.0,0.0
405,63.0,0.0,240.0,0.0,0.0
406,44.0,120.0,120.0,0.0,0.0
407,52.0,120.0,120.0,0.0,0.0
408,61.0,0.0,240.0,0.0,0.0
409,37.0,240.0,120.0,0.0,0.0
410,56.0,120.0,240.0,0.0,0.0
411,37.0,120.0,120.0,0.0,0.0
412,44.0,120.0,120.0,0.0,0.0
413,52.0,120.0,120.0,0.0,0.0
414,37.0,240.0,120.0,0.0,0.0
415,56.0,0.0,240.0,0.0,0.0
416,64.0,120.0,240.0,0.0,0.0
417,37.0,120.0,120.0,0.0,0.0
418,68.0,120.0,240.0,0.0,0.0
419,44.0,0.0,120.0,0.0,0.0
420,52.0,120.0,120.0,0.0,0.0
421,73.0,120.0,360.0,0.0,0.0
422,37.0,120.0,120.0,0.0,0.0
423,56.0,120.0,240.0,0.0,0.0
424,76.0,0.0,120.0,0.0,0.0
425,75.0,120.0,1320.0,0.0,0.0
426,37.0,120.0,120.0,0.0,0.0
427,44.0,120.0,120.0,0.0,0.0
428,52.0,120.0,120.0,0.0,0.0
429,37.0,240.0,120.0,0.0,0.0
430,56.0,120.0,240.0,0.0,0.0
431,37.0,120.0,120.0,0.0,0.0
432,44.0,120.0,120.0,0.0,0.0
433,52.0,120.0,120.0,0.0,0.0
434,37.0,120.0,120.0,0.0,0.0
435,56.0,120.0,240.0,0.0,0.0
436,73.0,0.0,120.0,0.0,0.0
437,68.0,0.0,360.0,0.0,0.0
438,37.0,120.0,120.0,0.0,0.0
439,44.0,120.0,120.0,0.0,0.0
440,52.0,60.0,120.0,0.0,0.0
441,68.0,60.0,60.0,0.0,0.0
442,37.0,0.0,120.0,0.0,0.0
443,70.0,60.0,60.0,0.0,0.0
444,71.0,60.0,60.0,0.0,0.0
445,56.0,0.0,240.0,0.0,0.0
446,70.0,60.0,60.0,0.0,0.0
447,71.0,60.0,60.0,0.0,0.0
448,70.0,60.0,60.0,0.0,0.0
449,37.0,60.0,120.0,0.0,0.0
450,71.0,60.0,60.0,0.0,0.0
451,70.0,0.0,60.0,0.0,0.0
452,42.0,60.0,120.0,0.0,0.0
453,71.0,60.0,60.0,0.0,0.0
454,70.0,0.0,60.0,0.0,0.0
455,52.0,0.0,120.0,0.0,0.0
456,71.0,60.0,60.0,0.0,0.0
457,70.0,60.0,60.0,0.0,0.0
458,37.0,60.0,120.0,0.0,0.0
459,71.0,60.0,60.0,0.0,0.0
460,70.0,0.0,60.0,0.0,0.0
461,71.0,60.0,60.0,0.0,0.0
462,54.0,0.0,240.0,0.0,0.0
463,70.0,60.0,60.0,0.0,0.0
464,68.0,60.0,60.0,0.0,0.0
465,70.0,120.0,60.0,0.0,0.0
466,35.0,120.0,120.0,0.0,0.0
467,71.0,0.0,720.0,0.0,0.0
468,44.0,120.0,120.0,0.0,0.0
469,52.0,120.0,120.0,0.0,0.0
470,35.0,240.0,120.0,0.0,0.0
471,56.0,120.0,240.0,0.0,0.0
472,35.0,120.0,120.0,0.0,0.0
473,69.0,240.0,480.0,0.0,0.0
474,44.0,120.0,120.0,0.0,0.0
475,52.0,120.0,120.0,0.0,0.0
476,35.0,0.0,120.0,0.0,0.0
477,68.0,60.0,240.0,0.0,0.0
478,56.0,0.0,240.0,0.0,0.0
479,35.0,0.0,120.0,0.0,0.0
480,66.0,60.0,60.0,0.0,0.0
481,68.0,60.0,60.0,0.0,0.0
482,66.0,60.0,60.0,0.0,0.0
483,42.0,0.0,120.0,0.0,0.0
484,68.0,60.0,60.0,0.0,0.0
485,66.0,60.0,60.0,0.0,0.0
486,52.0,60.0,120.0,0.0,0.0
487,68.0,0.0,60.0,0.0,0.0
488,66.0,60.0,60.0,0.0,0.0
489,35.0,0.0,120.0,0.0,0.0
490,68.0,60.0,60.0,0.0,0.0
491,54.0,120.0,240.0,0.0,0.0
492,66.0,60.0,60.0,0.0,0.0
493,68.0,60.0,60.0,0.0,0.0
494,64.0,60.0,60.0,0.0,0.0
495,66.0,0.0,60.0,0.0,0.0
496,68.0,0.0,480.0,0.0,0.0
497,35.0,120.0,120.0,0.0,0.0
498,42.0,120.0,120.0,0.0,0.0
499,52.0,120.0,120.0,0.0,0.0
500,35.0,240.0,120.0,0.0,0.0
501,54.0,120.0,240.0,0.0,0.0
502,64.0,0.0,120.0,0.0,0.0
503,35.0,120.0,120.0,0.0,0.0
504,42.0,120.0,120.0,0.0,0.0
505,52.0,120.0,120.0,0.0,0.0
506,35.0,240.0,120.0,0.0,0.0
507,54.0,120.0,240.0,0.0,0.0
508,35.0,120.0,120.0,0.0,0.0
509,42.0,120.0,120.0,0.0,0.0
510,52.0,120.0,120.0,0.0,0.0
511,35.0,240.0,120.0,0.0,0.0
512,54.0,0.0,240.0,0.0,0.0
513,59.0,120.0,15.0,0.0,0.0
514,35.0,24.0,120.0,0.0,0.0
515,45.0,0.0,120.0,0.0,0.0
516,61.0,48.0,60.0,0.0,0.0
517,59.0,48.0,60.0,0.0,0.0
518,51.0,24.0,120.0,0.0,0.0
519,58.0,48.0,60.0,0.0,0.0
520,59.0,24.0,60.0,0.0,0.0
521,61.0,48.0,60.0,0.0,0.0
522,35.0,0.0,120.0,0.0,0.0
523,63.0,48.0,60.0,0.0,0.0
524,64.0,48.0,60.0,0.0,0.0
525,66.0,48.0,60.0,0.0,0.0
526,54.0,0.0,240.0,0.0,0.0
527,68.0,48.0,60.0,0.0,0.0
528,69.0,48.0,60.0,0.0,0.0
529,71.0,48.0,60.0,0.0,0.0
530,73.0,48.0,60.0,0.0,0.0
531,75.0,48.0,60.0,0.0,0.0
532,35.0,24.0,120.0,0.0,0.0
533,76.0,24.0,60.0,0.0,0.0
534,78.0,48.0,60.0,0.0,0.0
535,45.0,48.0,120.0,0.0,0.0
536,80.0,48.0,60.0,0.0,0.0
537,81.0,0.0,60.0,0.0,0.0
538,51.0,24.0,120.0,0.0,0.0
539,83.0,48.0,60.0,0.0,0.0
540,85.0,24.0,60.0,0.0,0.0
541,87.0,48.0,60.0,0.0,0.0
542,35.0,0.0,120.0,0.0,0.0
543,88.0,48.0,60.0,0.0,0.0
544,90.0,48.0,60.0,0.0,0.0
545,54.0,0.0,240.0,0.0,0.0
546,92.0,48.0,60.0,0.0,0.0
547,93.0,48.0,60.0,0.0,0.0
548,95.0,48.0,60.0,0.0,0.0
549,97.0,48.0,60.0,0.0,0.0
550,99.0,120.0,60.0,0.0,0.0
551,40.0,120.0,120.0,0.0,0.0
552,100.0,0.0,480.0,0.0,0.0
553,47.0,120.0,120.0,0.0,0.0
554,56.0,120.0,120.0,0.0,0.0
555,40.0,240.0,120.0,0.0,0.0
556,59.0,120.0,240.0,0.0,0.0
557,40.0,120.0,120.0,0.0,0.0
558,47.0,120.0,120.0,0.0,0.0
559,56.0,120.0,120.0,0.0,0.0
560,40.0,240.0,120.0,0.0,0.0
561,59.0,60.0,240.0,0.0,0.0
562,40.0,60.0,120.0,0.0,0.0
563,70.0,60.0,60.0,0.0,0.0
564,71.0,0.0,60.0,0.0,0.0
565,70.0,60.0,60.0,0.0,0.0
566,46.0,0.0,120.0,0.0,0.0
567,71.0,60.0,60.0,0.0,0.0
568,70.0,60.0,60.0,0.0,0.0
569,56.0,0.0,120.0,0.0,0.0
570,71.0,60.0,60.0,0.0,0.0
571,40.0,0.0,120.0,0.0,0.0
572,70.0,60.0,60.0,0.0,0.0
573,71.0,60.0,60.0,0.0,0.0
574,58.0,120.0,240.0,0.0,0.0
575,70.0,60.0,60.0,0.0,0.0
576,71.0,60.0,60.0,0.0,0.0
577,68.0,60.0,60.0,0.0,0.0
578,70.0,0.0,60.0,0.0,0.0
579,71.0,0.0,480.0,0.0,0.0
580,40.0,120.0,120.0,0.0,0.0
581,46.0,120.0,120.0,0.0,0.0
582,56.0,120.0,120.0,0.0,0.0
583,40.0,240.0,120.0,0.0,0.0
584,58.0,120.0,240.0,0.0,0.0
585,68.0,0.0,120.0,0.0,0.0
586,63.0,0.0,480.0,0.0,0.0
587,39.0,120.0,120.0,0.0,0.0
588,47.0,120.0,120.0,0.0,0.0
589,56.0,120.0,120.0,0.0,0.0
590,39.0,240.0,120.0,0.0,0.0
591,88.0,56.0,300.0,0.0,0.0
592,59.0,48.0,240.0,0.0,0.0
593,39.0,40.0,120.0,0.0,0.0
594,87.0,16.0,60.0,0.0,0.0
595,83.0,56.0,60.0,0.0,0.0
596,47.0,32.0,120.0,0.0,0.0
597,80.0,24.0,60.0,0.0,0.0
598,76.0,56.0,60.0,0.0,0.0
599,56.0,24.0,120.0,0.0,0.0
600,75.0,32.0,60.0,0.0,0.0
601,71.0,56.0,60.0,0.0,0.0
602,39.0,16.0,120.0,0.0,0.0
603,68.0,40.0,60.0,0.0,0.0
604,64.0,56.0,60.0,0.0,0.0
605,63.0,56.0,60.0,0.0,0.0
606,59.0,56.0,60.0,0.0,0.0
607,56.0,56.0,60.0,0.0,0.0
608,52.0,120.0,60.0,0.0,0.0
609,39.0,120.0,120.0,0.0,0.0
610,51.0,36.0,780.0,0.0,0.0
611,49.0,120.0,120.0,0.0,0.0
612,55.0,120.0,120.0,0.0,0.0
613,39.0,240.0,120.0,0.0,0.0
614,58.0,72.0,240.0,0.0,0.0
615,39.0,24.0,120.0,0.0,0.0
616,52.0,12.0,30.0,0.0,0.0
617,55.0,36.0,30.0,0.0,0.0
618,49.0,12.0,120.0,0.0,0.0
619,58.0,36.0,30.0,0.0,0.0
620,61.0,24.0,30.0,0.0,0.0
621,64.0,36.0,30.0,0.0,0.0
622,55.0,0.0,120.0,0.0,0.0
623,67.0,36.0,30.0,0.0,0.0
624,70.0,36.0,30.0,0.0,0.0
625,73.0,36.0,30.0,0.0,0.0
626,39.0,24.0,120.0,0.0,0.0
627,76.0,36.0,30.0,0.0,0.0
628,79.0,36.0,30.0,0.0,0.0
629,82.0,12.0,30.0,0.0,0.0
630,85.0,36.0,30.0,0.0,0.0
631,58.0,120.0,240.0,0.0,0.0
632,88.0,36.0,30.0,0.0,0.0
633,91.0,36.0,30.0,0.0,0.0
634,94.0,36.0,30.0,0.0,0.0
635,97.0,36.0,30.0,0.0,0.0
636,100.0,36.0,30.0,0.0,0.0
637,103.0,0.0,30.0,0.0,0.0
638,104.0,0.0,480.0,0.0,0.0
639,44.0,120.0,120.0,0.0,0.0
640,51.0,120.0,120.0,0.0,0.0
641,59.0,120.0,120.0,0.0,0.0
642,44.0,240.0,120.0,0.0,0.0
643,63.0,120.0,240.0,0.0,0.0
644,44.0,120.0,120.0,0.0,0.0
645,51.0,120.0,120.0,0.0,0.0
646,59.0,120.0,120.0,0.0,0.0
647,44.0,240.0,120.0,0.0,0.0
648,63.0,120.0,240.0,0.0,0.0
649,43.0,120.0,120.0,0.0,0.0
650,51.0,120.0,120.0,0.0,0.0
651,59.0,120.0,120.0,0.0,0.0
652,43.0,0.0,120.0,0.0,0.0
653,63.0,0.0,240.0,0.0,0.0
654,71.0,160.0,15.0,0.0,0.0
655,71.0,40.0,15.0,0.0,0.0
656,74.0,120.0,30.0,0.0,0.0
657,42.0,120.0,120.0,0.0,0.0
658,72.0,240.0,480.0,0.0,0.0
659,51.0,120.0,120.0,0.0,0.0
660,57.0,120.0,120.0,0.0,0.0
661,42.0,0.0,120.0,0.0,0.0
662,59.0,120.0,240.0,0.0,0.0
663,71.0,0.0,120.0,0.0,0.0
664,71.0,240.0,480.0,0.0,0.0
665,40.0,120.0,120.0,0.0,0.0
666,47.0,120.0,120.0,0.0,0.0
667,55.0,120.0,120.0,0.0,0.0
668,40.0,0.0,120.0,0.0,0.0
669,67.0,0.0,240.0,0.0,0.0
670,59.0,120.0,240.0,0.0,0.0
671,64.0,120.0,1440.0,0.0,0.0
672,40.0,120.0,120.0,0.0,0.0
673,47.0,120.0,120.0,0.0,0.0
674,55.0,120.0,120.0,0.0,0.0
675,40.0,240.0,120.0,0.0,0.0
676,59.0,120.0,240.0,0.0,0.0
677,40.0,120.0,120.0,0.0,0.0
678,47.0,120.0,120.0,0.0,0.0
679,55.0,120.0,120.0,0.0,0.0
680,40.0,240.0,120.0,0.0,0.0
681,59.0,0.0,240.0,0.0,0.0
682,40.0,120.0,120.0,0.0,0.0
683,67.0,0.0,240.0,0.0,0.0
684,47.0,120.0,120.0,0.0,0.0
685,71.0,120.0,360.0,0.0,0.0
686,55.0,120.0,120.0,0.0,0.0
687,40.0,120.0,120.0,0.0,0.0
688,59.0,120.0,240.0,0.0,0.0
689,76.0,0.0,120.0,0.0,0.0
690,74.0,240.0,480.0,0.0,0.0
691,40.0,120.0,120.0,0.0,0.0
692,48.0,120.0,120.0,0.0,0.0
693,55.0,120.0,120.0,0.0,0.0
694,40.0,0.0,120.0,0.0,0.0
695,60.0,120.0,240.0,0.0,0.0
696,72.0,0.0,240.0,0.0,0.0
697,40.0,120.0,120.0,0.0,0.0
698,67.0,84.0,990.0,0.0,0.0
699,48.0,120.0,120.0,0.0,0.0
700,55.0,120.0,120.0,0.0,0.0
701,40.0,240.0,120.0,0.0,0.0
702,60.0,120.0,240.0,0.0,0.0
703,40.0,120.0,120.0,0.0,0.0
704,48.0,36.0,120.0,0.0,0.0
705,58.0,120.0,120.0,0.0,0.0
706,40.0,120.0,120.0,0.0,0.0
707,60.0,120.0,240.0,0.0,0.0
708,72.0,120.0,15.0,0.0,0.0
709,72.0,0.0,15.0,0.0,0.0
710,40.0,120.0,120.0,0.0,0.0
711,48.0,120.0,120.0,0.0,0.0
712,69.0,0.0,120.0,0.0,0.0
713,70.0,0.0,120.0,0.0,0.0
714,58.0,120.0,120.0,0.0,0.0
715,67.0,120.0,120.0,0.0,0.0
716,40.0,0.0,120.0,0.0,0.0
717,70.0,120.0,120.0,0.0,0.0
718,60.0,0.0,120.0,0.0,0.0
719,72.0,0.0,15.0,0.0,0.0
720,41.0,120.0,120.0,0.0,0.0
721,48.0,120.0,120.0,0.0,0.0
722,57.0,120.0,120.0,0.0,0.0
723,41.0,240.0,120.0,0.0,0.0
724,60.0,120.0,240.0,0.0,0.0
725,69.0,0.0,240.0,0.0,0.0
726,65.0,0.0,1200.0,0.0,0.0
727,41.0,120.0,120.0,0.0,0.0
728,48.0,120.0,120.0,0.0,0.0
729,57.0,120.0,120.0,0.0,0.0
730,41.0,240.0,120.0,0.0,0.0
731,60.0,120.0,240.0,0.0,0.0
732,41.0,120.0,120.0,0.0,0.0
733,48.0,120.0,120.0,0.0,0.0
734,57.0,120.0,120.0,0.0,0.0
735,41.0,240.0,120.0,0.0,0.0
736,69.0,0.0,240.0,0.0,0.0
737,60.0,120.0,240.0,0.0,0.0
738,72.0,0.0,240.0,0.0,0.0
739,41.0,120.0,120.0,0.0,0.0
740,48.0,120.0,120.0,0.0,0.0
741,77.0,120.0,360.0,0.0,0.0
742,57.0,120.0,120.0,0.0,0.0
743,41.0,120.0,120.0,0.0,0.0
744,60.0,0.0,240.0,0.0,0.0
745,81.0,120.0,120.0,0.0,0.0
746,79.0,240.0,480.0,0.0,0.0
747,41.0,120.0,120.0,0.0,0.0
748,48.0,120.0,120.0,0.0,0.0
749,57.0,120.0,120.0,0.0,0.0
750,41.0,0.0,120.0,0.0,0.0
751,60.0,0.0,240.0,0.0,0.0
752,77.0,120.0,240.0,0.0,0.0
753,41.0,120.0,120.0,0.0,0.0
754,72.0,0.0,720.0,0.0,0.0
755,48.0,120.0,120.0,0.0,0.0
756,57.0,120.0,120.0,0.0,0.0
757,41.0,240.0,120.0,0.0,0.0
758,60.0,120.0,240.0,0.0,0.0
759,41.0,120.0,120.0,0.0,0.0
760,48.0,120.0,120.0,0.0,0.0
761,57.0,120.0,120.0,0.0,0.0
762,41.0,240.0,120.0,0.0,0.0
763,60.0,120.0,240.0,0.0,0.0
764,69.0,0.0,240.0,0.0,0.0
765,72.0,120.0,240.0,0.0,0.0
766,41.0,120.0,120.0,0.0,0.0
767,48.0,0.0,120.0,0.0,0.0
768,57.0,120.0,120.0,0.0,0.0
769,77.0,120.0,360.0,0.0,0.0
770,41.0,120.0,120.0,0.0,0.0
771,60.0,120.0,240.0,0.0,0.0
772,81.0,0.0,120.0,0.0,0.0
773,79.0,240.0,480.0,0.0,0.0
774,41.0,120.0,120.0,0.0,0.0
775,49.0,120.0,120.0,0.0,0.0
776,57.0,120.0,120.0,0.0,0.0
777,41.0,0.0,120.0,0.0,0.0
778,61.0,120.0,240.0,0.0,0.0
779,77.0,0.0,240.0,0.0,0.0
780,41.0,120.0,120.0,0.0,0.0
781,49.0,120.0,120.0,0.0,0.0
782,57.0,120.0,120.0,0.0,0.0
783,41.0,240.0,120.0,0.0,0.0
784,61.0,120.0,240.0,0.0,0.0
785,41.0,120.0,120.0,0.0,0.0
786,49.0,0.0,120.0,0.0,0.0
787,73.0,120.0,15.0,0.0,0.0
788,57.0,120.0,120.0,0.0,0.0
789,41.0,240.0,120.0,0.0,0.0
790,61.0,120.0,240.0,0.0,0.0
791,73.0,0.0,240.0,0.0,0.0
792,41.0,120.0,120.0,0.0,0.0
793,73.0,120.0,240.0,0.0,0.0
794,49.0,0.0,120.0,0.0,0.0
795,69.0,240.0,240.0,0.0,0.0
796,57.0,120.0,120.0,0.0,0.0
797,41.0,0.0,120.0,0.0,0.0
798,61.0,120.0,240.0,0.0,0.0
799,71.0,0.0,120.0,0.0,0.0
800,73.0,0.0,1680.0,0.0,0.0
801,41.0,120.0,120.0,0.0,0.0
802,49.0,120.0,120.0,0.0,0.0
803,57.0,120.0,120.0,0.0,0.0
804,41.0,240.0,120.0,0.0,0.0
805,61.0,120.0,240.0,0.0,0.0
806,41.0,120.0,120.0,0.0,0.0
807,49.0,120.0,120.0,0.0,0.0
808,57.0,120.0,120.0,0.0,0.0
809,41.0,240.0,120.0,0.0,0.0
810,61.0,120.0,240.0,0.0,0.0
811,41.0,120.0,120.0,0.0,0.0
812,49.0,120.0,120.0,0.0,0.0
813,57.0,120.0,120.0,0.0,0.0
814,73.0,0.0,240.0,0.0,0.0
815,41.0,240.0,120.0,0.0,0.0
816,73.0,0.0,240.0,0.0,0.0
817,85.0,0.0,15.0,0.0,0.0
818,61.0,0.0,240.0,0.0,0.0
819,41.0,60.0,120.0,0.0,0.0
820,73.0,60.0,180.0,0.0,0.0
821,85.0,0.0,180.0,0.0,0.0
822,49.0,0.0,120.0,0.0,0.0
823,88.0,120.0,60.0,0.0,0.0
824,76.0,0.0,60.0,0.0,0.0
825,57.0,120.0,120.0,0.0,0.0
826,74.0,120.0,360.0,0.0,0.0
827,86.0,0.0,360.0,0.0,0.0
828,41.0,120.0,120.0,0.0,0.0
829,61.0,0.0,240.0,0.0,0.0
830,73.0,0.0,120.0,0.0,0.0
831,42.0,120.0,120.0,0.0,0.0
832,85.0,120.0,15.0,0.0,0.0
833,73.0,0.0,480.0,0.0,0.0
834,49.0,120.0,120.0,0.0,0.0
835,57.0,120.0,120.0,0.0,0.0
836,42.0,0.0,120.0,0.0,0.0
837,69.0,0.0,240.0,0.0,0.0
838,61.0,120.0,240.0,0.0,0.0
839,81.0,0.0,240.0,0.0,0.0
840,78.0,20.0,1170.0,0.0,0.0
841,42.0,120.0,120.0,0.0,0.0
842,66.0,20.0,1170.0,0.0,0.0
843,49.0,120.0,120.0,0.0,0.0
844,57.0,120.0,120.0,0.0,0.0
845,42.0,240.0,120.0,0.0,0.0
846,61.0,120.0,240.0,0.0,0.0
847,42.0,120.0,120.0,0.0,0.0
848,49.0,120.0,120.0,0.0,0.0
849,57.0,80.0,120.0,0.0,0.0
850,42.0,240.0,120.0,0.0,0.0
851,69.0,0.0,240.0,0.0,0.0
852,61.0,120.0,240.0,0.0,0.0
853,81.0,0.0,240.0,0.0,0.0
854,85.0,0.0,240.0,0.0,0.0
855,73.0,0.0,240.0,0.0,0.0
856,42.0,120.0,120.0,0.0,0.0
857,49.0,120.0,120.0,0.0,0.0
858,78.0,0.0,360.0,0.0,0.0
859,90.0,120.0,360.0,0.0,0.0
860,57.0,120.0,120.0,0.0,0.0
861,42.0,120.0,120.0,0.0,0.0
862,61.0,120.0,240.0,0.0,0.0
863,93.0,0.0,120.0,0.0,0.0
864,81.0,0.0,120.0,0.0,0.0
865,38.0,120.0,120.0,0.0,0.0
866,92.0,0.0,480.0,0.0,0.0
867,80.0,0.0,480.0,0.0,0.0
868,47.0,120.0,120.0,0.0,0.0
869,54.0,120.0,120.0,0.0,0.0
870,38.0,240.0,120.0,0.0,0.0
871,56.0,0.0,240.0,0.0,0.0
872,90.0,0.0,240.0,0.0,0.0
873,78.0,120.0,240.0,0.0,0.0
874,71.0,0.0,240.0,0.0,0.0
875,83.0,0.0,240.0,0.0,0.0
876,38.0,120.0,120.0,0.0,0.0
877,47.0,120.0,120.0,0.0,0.0
878,78.0,0.0,360.0,0.0,0.0
879,90.0,120.0,360.0,0.0,0.0
880,54.0,120.0,120.0,0.0,0.0
881,38.0,120.0,120.0,0.0,0.0
882,56.0,0.0,240.0,0.0,0.0
883,93.0,120.0,120.0,0.0,0.0
884,81.0,0.0,120.0,0.0,0.0
885,38.0,120.0,120.0,0.0,0.0
886,80.0,0.0,480.0,0.0,0.0
887,92.0,0.0,480.0,0.0,0.0
888,48.0,120.0,120.0,0.0,0.0
889,54.0,120.0,120.0,0.0,0.0
890,38.0,240.0,120.0,0.0,0.0
891,90.0,0.0,240.0,0.0,0.0
892,78.0,0.0,240.0,0.0,0.0
893,57.0,120.0,240.0,0.0,0.0
894,84.0,0.0,240.0,0.0,0.0
895,72.0,0.0,240.0,0.0,0.0
896,38.0,120.0,120.0,0.0,0.0
897,48.0,120.0,120.0,0.0,0.0
898,54.0,120.0,120.0,0.0,0.0
899,90.0,0.0,240.0,0.0,0.0
900,78.0,240.0,240.0,0.0,0.0
901,38.0,0.0,120.0,0.0,0.0
902,57.0,0.0,240.0,0.0,0.0
903,81.0,0.0,240.0,0.0,0.0
904,93.0,80.0,240.0,0.0,0.0
905,102.0,40.0,90.0,0.0,0.0
906,105.0,0.0,90.0,0.0,0.0
907,38.0,40.0,120.0,0.0,0.0
908,104.0,0.0,90.0,0.0,0.0
909,101.0,80.0,90.0,0.0,0.0
910,48.0,80.0,120.0,0.0,0.0
911,100.0,0.0,90.0,0.0,0.0
912,103.0,0.0,90.0,0.0,0.0
913,102.0,40.0,90.0,0.0,0.0
914,99.0,0.0,90.0,0.0,0.0
915,54.0,40.0,120.0,0.0,0.0
916,101.0,80.0,90.0,0.0,0.0
917,98.0,0.0,90.0,0.0,0.0
918,38.0,80.0,120.0,0.0,0.0
919,97.0,0.0,90.0,0.0,0.0
920,100.0,0.0,90.0,0.0,0.0
921,99.0,80.0,90.0,0.0,0.0
922,96.0,0.0,90.0,0.0,0.0
923,57.0,0.0,240.0,0.0,0.0
924,95.0,0.0,90.0,0.0,0.0
925,98.0,80.0,90.0,0.0,0.0
926,94.0,0.0,90.0,0.0,0.0
927,97.0,80.0,90.0,0.0,0.0
928,93.0,40.0,90.0,0.0,0.0
929,38.0,40.0,120.0,0.0,0.0
930,96.0,0.0,90.0,0.0,0.0
931,92.0,0.0,90.0,0.0,0.0
932,95.0,80.0,90.0,0.0,0.0
933,48.0,0.0,120.0,0.0,0.0
934,94.0,0.0,90.0,0.0,0.0
935,91.0,80.0,90.0,0.0,0.0
936,54.0,40.0,120.0,0.0,0.0
937,93.0,40.0,90.0,0.0,0.0
938,90.0,0.0,90.0,0.0,0.0
939,89.0,0.0,90.0,0.0,0.0
940,92.0,80.0,90.0,0.0,0.0
941,38.0,0.0,120.0,0.0,0.0
942,88.0,0.0,90.0,0.0,0.0
943,91.0,80.0,90.0,0.0,0.0
944,90.0,0.0,90.0,0.0,0.0
945,87.0,80.0,90.0,0.0,0.0
946,57.0,80.0,240.0,0.0,0.0
947,89.0,80.0,90.0,0.0,0.0
948,86.0,0.0,90.0,0.0,0.0
949,88.0,0.0,90.0,0.0,0.0
950,85.0,0.0,90.0,0.0,0.0
951,38.0,40.0,120.0,0.0,0.0
952,87.0,40.0,90.0,0.0,0.0
953,84.0,0.0,90.0,0.0,0.0
954,86.0,0.0,90.0,0.0,0.0
955,83.0,80.0,90.0,0.0,0.0
956,48.0,0.0,120.0,0.0,0.0
957,85.0,0.0,90.0,0.0,0.0
958,82.0,80.0,90.0,0.0,0.0
959,54.0,40.0,120.0,0.0,0.0
960,84.0,40.0,90.0,0.0,0.0
961,81.0,0.0,90.0,0.0,0.0
962,83.0,80.0,90.0,0.0,0.0
963,80.0,0.0,90.0,0.0,0.0
964,38.0,80.0,120.0,0.0,0.0
965,79.0,0.0,90.0,0.0,0.0
966,82.0,0.0,90.0,0.0,0.0
967,57.0,80.0,240.0,0.0,0.0
968,81.0,80.0,90.0,0.0,0.0
969,78.0,0.0,90.0,0.0,0.0
970,80.0,0.0,90.0,0.0,0.0
971,77.0,80.0,90.0,0.0,0.0
972,79.0,0.0,90.0,0.0,0.0
973,76.0,0.0,90.0,0.0,0.0
974,78.0,40.0,90.0,0.0,0.0
975,75.0,0.0,90.0,0.0,0.0
976,38.0,40.0,120.0,0.0,0.0
977,74.0,80.0,90.0,0.0,0.0
978,77.0,0.0,90.0,0.0,0.0
979,48.0,0.0,120.0,0.0,0.0
980,73.0,0.0,90.0,0.0,0.0
981,76.0,80.0,90.0,0.0,0.0
982,72.0,40.0,90.0,0.0,0.0
983,75.0,0.0,90.0,0.0,0.0
984,54.0,40.0,120.0,0.0,0.0
985,71.0,80.0,90.0,0.0,0.0
986,74.0,0.0,90.0,0.0,0.0
987,38.0,80.0,120.0,0.0,0.0
988,70.0,0.0,90.0,0.0,0.0
989,73.0,0.0,90.0,0.0,0.0
990,72.0,0.0,90.0,0.0,0.0
991,57.0,0.0,240.0,0.0,0.0
992,69.0,80.0,90.0,0.0,0.0
993,68.0,0.0,90.0,0.0,0.0
994,71.0,80.0,15.0,0.0,0.0
995,66.0,120.0,90.0,0.0,0.0
996,61.0,240.0,480.0,0.0,0.0
997,37.0,120.0,120.0,0.0,0.0
998,45.0,120.0,120.0,0.0,0.0
999,54.0,120.0,120.0,0.0,0.0
1000,37.0,0.0,120.0,0.0,0.0
1001,57.0,120.0,240.0,0.0,0.0
1002,73.0,0.0,120.0,0.0,0.0
1003,37.0,120.0,120.0,0.0,0.0
1004,73.0,0.0,960.0,0.0,0.0
1005,45.0,120.0,120.0,0.0,0.0
1006,54.0,120.0,120.0,0.0,0.0
1007,37.0,240.0,120.0,0.0,0.0
1008,57.0,120.0,240.0,0.0,0.0
1009,37.0,120.0,120.0,0.0,0.0
1010,45.0,120.0,120.0,0.0,0.0
1011,71.0,120.0,360.0,0.0,0.0
1012,54.0,120.0,120.0,0.0,0.0
1013,37.0,120.0,120.0,0.0,0.0
1014,57.0,120.0,240.0,0.0,0.0
1015,69.0,0.0,120.0,0.0,0.0
1016,68.0,100.0,120.0,0.0,0.0
1017,37.0,0.0,120.0,0.0,0.0
1018,45.0,80.0,120.0,0.0,0.0
1019,69.0,20.0,90.0,0.0,0.0
1020,68.0,40.0,90.0,0.0,0.0
1021,54.0,60.0,120.0,0.0,0.0
1022,66.0,60.0,90.0,0.0,0.0
1023,37.0,40.0,120.0,0.0,0.0
1024,68.0,100.0,90.0,0.0,0.0
1025,57.0,120.0,240.0,0.0,0.0
1026,69.0,100.0,90.0,0.0,0.0
1027,66.0,0.0,90.0,0.0,0.0
1028,73.0,0.0,240.0,0.0,0.0
1029,61.0,0.0,240.0,0.0,0.0
1030,37.0,120.0,120.0,0.0,0.0
1031,45.0,120.0,120.0,0.0,0.0
1032,54.0,120.0,120.0,0.0,0.0
1033,37.0,120.0,120.0,0.0,0.0
1034,85.0,0.0,120.0,0.0,0.0
1035,57.0,120.0,240.0,0.0,0.0
1036,97.0,120.0,120.0,0.0,0.0
1037,97.0,0.0,960.0,0.0,0.0
1038,85.0,0.0,960.0,0.0,0.0
1039,37.0,120.0,120.0,0.0,0.0
1040,45.0,120.0,120.0,0.0,0.0
1041,54.0,120.0,120.0,0.0,0.0
1042,37.0,240.0,120.0,0.0,0.0
1043,57.0,120.0,240.0,0.0,0.0
1044,37.0,120.0,120.0,0.0,0.0
1045,45.0,120.0,120.0,0.0,0.0
1046,95.0,0.0,360.0,0.0,0.0
1047,83.0,120.0,360.0,0.0,0.0
1048,54.0,120.0,120.0,0.0,0.0
1049,37.0,120.0,120.0,0.0,0.0
1050,57.0,0.0,240.0,0.0,0.0
1051,81.0,120.0,120.0,0.0,0.0
1052,93.0,0.0,120.0,0.0,0.0
1053,37.0,100.0,120.0,0.0,0.0
1054,80.0,0.0,120.0,0.0,0.0
1055,92.0,0.0,120.0,0.0,0.0
1056,93.0,20.0,90.0,0.0,0.0
1057,45.0,80.0,120.0,0.0,0.0
1058,81.0,0.0,90.0,0.0,0.0
1059,92.0,40.0,90.0,0.0,0.0
1060,80.0,0.0,90.0,0.0,0.0
1061,54.0,60.0,120.0,0.0,0.0
1062,90.0,60.0,90.0,0.0,0.0
1063,78.0,0.0,90.0,0.0,0.0
1064,37.0,40.0,120.0,0.0,0.0
1065,80.0,100.0,90.0,0.0,0.0
1066,92.0,0.0,90.0,0.0,0.0
1067,57.0,0.0,240.0,0.0,0.0
1068,81.0,100.0,90.0,0.0,0.0
1069,93.0,0.0,90.0,0.0,0.0
1070,90.0,120.0,60.0,0.0,0.0
1071,78.0,0.0,60.0,0.0,0.0
1072,37.0,120.0,120.0,0.0,0.0
1073,86.0,0.0,240.0,0.0,0.0
1074,98.0,120.0,240.0,0.0,0.0
1075,47.0,0.0,120.0,0.0,0.0
1076,80.0,0.0,240.0,0.0,0.0
1077,54.0,120.0,120.0,0.0,0.0
1078,92.0,240.0,240.0,0.0,0.0
1079,37.0,0.0,120.0,0.0,0.0
1080,56.0,120.0,240.0,0.0,0.0
1081,93.0,0.0,240.0,0.0,0.0
1082,81.0,0.0,240.0,0.0,0.0
1083,85.0,0.0,240.0,0.0,0.0
1084,97.0,120.0,240.0,0.0,0.0
1085,37.0,120.0,120.0,0.0,0.0
1086,47.0,0.0,120.0,0.0,0.0
1087,95.0,240.0,240.0,0.0,0.0
1088,54.0,120.0,120.0,0.0,0.0
1089,83.0,0.0,240.0,0.0,0.0
1090,37.0,0.0,120.0,0.0,0.0
1091,56.0,0.0,240.0,0.0,0.0
1092,74.0,120.0,240.0,0.0,0.0
1093,86.0,0.0,240.0,0.0,0.0
1094,37.0,120.0,120.0,0.0,0.0
1095,78.0,0.0,240.0,0.0,0.0
1096,90.0,0.0,240.0,0.0,0.0
1097,47.0,120.0,120.0,0.0,0.0
1098,83.0,240.0,240.0,0.0,0.0
1099,71.0,0.0,240.0,0.0,0.0
1100,54.0,120.0,120.0,0.0,0.0
1101,37.0,0.0,120.0,0.0,0.0
1102,56.0,0.0,240.0,0.0,0.0
1103,85.0,120.0,240.0,0.0,0.0
1104,73.0,0.0,240.0,0.0,0.0
1105,88.0,0.0,240.0,0.0,0.0
1106,76.0,120.0,240.0,0.0,0.0
1107,37.0,120.0,120.0,0.0,0.0
1108,47.0,0.0,120.0,0.0,0.0
1109,74.0,0.0,240.0,0.0,0.0
1110,86.0,0.0,240.0,0.0,0.0
1111,54.0,120.0,120.0,0.0,0.0
1112,37.0,240.0,120.0,0.0,0.0
1113,56.0,120.0,240.0,0.0,0.0
1114,80.0,0.0,120.0,0.0,0.0
1115,68.0,0.0,120.0,0.0,0.0
1116,83.0,0.0,240.0,0.0,0.0
1117,71.0,120.0,240.0,0.0,0.0
1118,37.0,120.0,120.0,0.0,0.0
1119,47.0,0.0,120.0,0.0,0.0
1120,74.0,240.0,240.0,0.0,0.0
1121,62.0,0.0,240.0,0.0,0.0
1122,54.0,120.0,120.0,0.0,0.0
1123,37.0,0.0,120.0,0.0,0.0
1124,64.0,0.0,240.0,0.0,0.0
1125,56.0,120.0,240.0,0.0,0.0
1126,76.0,0.0,240.0,0.0,0.0
1127,68.0,0.0,240.0,0.0,0.0
1128,80.0,120.0,240.0,0.0,0.0
1129,37.0,120.0,120.0,0.0,0.0
1130,47.0,0.0,120.0,0.0,0.0
1131,54.0,120.0,120.0,0.0,0.0
1132,78.0,0.0,240.0,0.0,0.0
1133,66.0,0.0,240.0,0.0,0.0
1134,37.0,240.0,120.0,0.0,0.0
1135,71.0,0.0,240.0,0.0,0.0
1136,59.0,120.0,240.0,0.0,0.0
1137,56.0,0.0,240.0,0.0,0.0
1138,37.0,120.0,120.0,0.0,0.0
1139,74.0,0.0,720.0,0.0,0.0
1140,62.0,0.0,720.0,0.0,0.0
1141,47.0,120.0,120.0,0.0,0.0
1142,54.0,120.0,120.0,0.0,0.0
1143,37.0,240.0,120.0,0.0,0.0
1144,56.0,120.0,240.0,0.0,0.0
1145,65.0,0.0,720.0,0.0,0.0
1146,37.0,120.0,120.0,0.0,0.0
1147,53.0,120.0,720.0,0.0,0.0
1148,47.0,120.0,120.0,0.0,0.0
1149,49.0,120.0,120.0,0.0,0.0
1150,37.0,240.0,120.0,0.0,0.0
1151,56.0,0.0,240.0,0.0,0.0
1152,42.0,120.0,120.0,0.0,0.0
1153,66.0,240.0,480.0,0.0,0.0
1154,54.0,0.0,480.0,0.0,0.0
1155,49.0,120.0,120.0,0.0,0.0
1156,57.0,120.0,120.0,0.0,0.0
1157,42.0,0.0,120.0,0.0,0.0
1158,61.0,120.0,240.0,0.0,0.0
1159,42.0,120.0,120.0,0.0,0.0
1160,49.0,120.0,120.0,0.0,0.0
1161,57.0,120.0,120.0,0.0,0.0
1162,42.0,240.0,120.0,0.0,0.0
1163,61.0,120.0,240.0,0.0,0.0
1164,93.0,120.0,480.0,0.0,0.0
1165,105.0,40.0,600.0,0.0,0.0
1166,42.0,120.0,120.0,0.0,0.0
1167,48.0,120.0,120.0,0.0,0.0
1168,57.0,120.0,120.0,0.0,0.0
1169,42.0,0.0,120.0,0.0,0.0
1170,60.0,40.0,240.0,0.0,0.0
1171,104.0,40.0,30.0,0.0,0.0
1172,102.0,40.0,30.0,0.0,0.0
1173,99.0,0.0,30.0,0.0,0.0
1174,42.0,40.0,120.0,0.0,0.0
1175,95.0,40.0,30.0,0.0,0.0
1176,93.0,40.0,30.0,0.0,0.0
1177,92.0,0.0,30.0,0.0,0.0
1178,48.0,40.0,120.0,0.0,0.0
1179,90.0,40.0,30.0,0.0,0.0
1180,87.0,40.0,30.0,0.0,0.0
1181,83.0,0.0,30.0,0.0,0.0
1182,81.0,40.0,30.0,0.0,0.0
1183,57.0,40.0,120.0,0.0,0.0
1184,80.0,40.0,30.0,0.0,0.0
1185,78.0,0.0,30.0,0.0,0.0
1186,42.0,40.0,120.0,0.0,0.0
1187,75.0,40.0,30.0,0.0,0.0
1188,71.0,40.0,30.0,0.0,0.0
1189,69.0,0.0,30.0,0.0,0.0
1190,68.0,40.0,30.0,0.0,0.0
1191,60.0,120.0,240.0,0.0,0.0
1192,66.0,40.0,30.0,0.0,0.0
1193,63.0,40.0,30.0,0.0,0.0
1194,59.0,40.0,30.0,0.0,0.0
1195,57.0,40.0,30.0,0.0,0.0
1196,56.0,0.0,30.0,0.0,0.0
1197,54.0,120.0,960.0,0.0,0.0
1198,42.0,120.0,120.0,0.0,0.0
1199,49.0,120.0,120.0,0.0,0.0
1200,57.0,120.0,120.0,0.0,0.0
1201,42.0,240.0,120.0,0.0,0.0
1202,61.0,120.0,240.0,0.0,0.0
1203,42.0,120.0,120.0,0.0,0.0
1204,49.0,0.0,120.0,0.0,0.0
1205,57.0,120.0,120.0,0.0,0.0
1206,42.0,240.0,120.0,0.0,0.0
1207,61.0,120.0,240.0,0.0,0.0
1208,42.0,120.0,120.0,0.0,0.0
1209,75.0,0.0,720.0,0.0,0.0
1210,63.0,120.0,720.0,0.0,0.0
1211,48.0,120.0,120.0,0.0,0.0
1212,57.0,120.0,120.0,0.0,0.0
1213,42.0,240.0,120.0,0.0,0.0
1214,60.0,0.0,240.0,0.0,0.0
1215,62.0,120.0,720.0,0.0,0.0
1216,74.0,0.0,720.0,0.0,0.0
1217,42.0,120.0,120.0,0.0,0.0
1218,48.0,120.0,120.0,0.0,0.0
1219,57.0,120.0,120.0,0.0,0.0
1220,42.0,240.0,120.0,0.0,0.0
1221,60.0,0.0,240.0,0.0,0.0
1222,69.0,0.0,15.0,0.0,0.0
1223,61.0,0.0,480.0,0.0,0.0
1224,42.0,120.0,120.0,0.0,0.0
1225,73.0,0.0,480.0,0.0,0.0
1226,49.0,120.0,120.0,0.0,0.0
1227,57.0,120.0,120.0,0.0,0.0
1228,42.0,0.0,120.0,0.0,0.0
1229,61.0,120.0,240.0,0.0,0.0
1230,42.0,120.0,120.0,0.0,0.0
1231,49.0,120.0,120.0,0.0,0.0
1232,57.0,120.0,120.0,0.0,0.0
1233,42.0,240.0,120.0,0.0,0.0
1234,61.0,120.0,240.0,0.0,0.0
1235,42.0,120.0,120.0,0.0,0.0
1236,105.0,40.0,600.0,0.0,0.0
1237,93.0,120.0,480.0,0.0,0.0
1238,48.0,120.0,120.0,0.0,0.0
1239,57.0,120.0,120.0,0.0,0.0
1240,42.0,0.0,120.0,0.0,0.0
1241,60.0,40.0,240.0,0.0,0.0
1242,104.0,40.0,30.0,0.0,0.0
1243,102.0,40.0,30.0,0.0,0.0
1244,99.0,0.0,30.0,0.0,0.0
1245,95.0,40.0,30.0,0.0,0.0
1246,42.0,40.0,120.0,0.0,0.0
1247,93.0,40.0,30.0,0.0,0.0
1248,92.0,0.0,30.0,0.0,0.0
1249,48.0,40.0,120.0,0.0,0.0
1250,90.0,40.0,30.0,0.0,0.0
1251,87.0,40.0,30.0,0.0,0.0
1252,83.0,0.0,30.0,0.0,0.0
1253,81.0,40.0,30.0,0.0,0.0
1254,57.0,0.0,120.0,0.0,0.0
1255,80.0,40.0,30.0,0.0,0.0
1256,78.0,40.0,30.0,0.0,0.0
1257,75.0,40.0,30.0,0.0,0.0
1258,42.0,40.0,120.0,0.0,0.0
1259,71.0,40.0,30.0,0.0,0.0
1260,69.0,0.0,30.0,0.0,0.0
1261,68.0,40.0,30.0,0.0,0.0
1262,60.0,120.0,240.0,0.0,0.0
1263,66.0,40.0,30.0,0.0,0.0
1264,63.0,40.0,30.0,0.0,0.0
1265,59.0,40.0,30.0,0.0,0.0
1266,57.0,40.0,30.0,0.0,0.0
1267,56.0,0.0,30.0,0.0,0.0
1268,42.0,120.0,120.0,0.0,0.0
1269,54.0,120.0,960.0,0.0,0.0
1270,49.0,120.0,120.0,0.0,0.0
1271,57.0,120.0,120.0,0.0,0.0
1272,42.0,240.0,120.0,0.0,0.0
1273,61.0,120.0,240.0,0.0,0.0
1274,42.0,120.0,120.0,0.0,0.0
1275,49.0,0.0,120.0,0.0,0.0
1276,57.0,120.0,120.0,0.0,0.0
1277,42.0,240.0,120.0,0.0,0.0
1278,61.0,120.0,240.0,0.0,0.0
1279,69.0,0.0,150.0,0.0,0.0
1280,42.0,24.0,120.0,0.0,0.0
1281,48.0,48.0,120.0,0.0,0.0
1282,63.0,96.0,15.0,0.0,0.0
1283,75.0,0.0,15.0,0.0,0.0
1284,57.0,72.0,120.0,0.0,0.0
1285,69.0,0.0,15.0,0.0,0.0
1286,63.0,72.0,15.0,0.0,0.0
1287,75.0,0.0,15.0,0.0,0.0
1288,42.0,96.0,120.0,0.0,0.0
1289,63.0,48.0,15.0,0.0,0.0
1290,60.0,120.0,240.0,0.0,0.0
1291,69.0,0.0,15.0,0.0,0.0
1292,63.0,0.0,150.0,0.0,0.0
1293,75.0,144.0,15.0,0.0,0.0
1294,62.0,0.0,150.0,0.0,0.0
1295,42.0,24.0,120.0,0.0,0.0
1296,69.0,0.0,150.0,0.0,0.0
1297,48.0,48.0,120.0,0.0,0.0
1298,74.0,96.0,15.0,0.0,0.0
1299,57.0,72.0,120.0,0.0,0.0
1300,69.0,0.0,15.0,0.0,0.0
1301,62.0,0.0,15.0,0.0,0.0
1302,74.0,72.0,15.0,0.0,0.0
1303,42.0,96.0,120.0,0.0,0.0
1304,74.0,48.0,15.0,0.0,0.0
1305,62.0,0.0,150.0,0.0,0.0
1306,69.0,144.0,150.0,0.0,0.0
1307,60.0,0.0,240.0,0.0,0.0
1308,69.0,0.0,150.0,0.0,0.0
1309,74.0,0.0,150.0,0.0,0.0
1310,62.0,240.0,150.0,0.0,0.0
1311,42.0,960.0,480.0,0.0,0.0
1312,49.0,30.0,210.0,0.0,0.0
1313,57.0,0.0,180.0,0.0,0.0
1314,61.0,0.0,150.0,0.0,0.0
1315,69.0,0.0,120.0,0.0,0.0
1316,73.0,210.0,90.0,0.0,0.0
1317,69.0,0.0,720.0,0.0,0.0
1318,73.0,0.0,720.0,0.0,0.0
1319,78.0,0.0,720.0,0.0,0.0
1320,81.0,0.0,720.0,0.0,0.0
1321,90.0,0.0,720.0,0.0,0.0
1322,102.0,60.0,720.0,0.0,0.0
1323,98.0,60.0,60.0,0.0,0.0
1324,97.0,60.0,60.0,0.0,0.0
1325,93.0,60.0,60.0,0.0,0.0
1326,90.0,60.0,60.0,0.0,0.0
1327,86.0,60.0,60.0,0.0,0.0
1328,85.0,60.0,60.0,0.0,0.0
1329,81.0,60.0,60.0,0.0,0.0
1330,78.0,60.0,60.0,0.0,0.0
1331,74.0,60.0,60.0,0.0,0.0
1332,73.0,60.0,60.0,0.0,0.0
1333,69.0,60.0,60.0,0.0,0.0
1334,66.0,60.0,60.0,0.0,0.0
1335,62.0,60.0,60.0,0.0,0.0
1336,61.0,60.0,60.0,0.0,0.0
1337,57.0,60.0,60.0,0.0,0.0
1338,54.0,60.0,60.0,0.0,0.0
1339,50.0,60.0,60.0,0.0,0.0
1340,49.0,60.0,60.0,0.0,0.0
1341,45.0,60.0,60.0,0.0,0.0
1342,42.0,60.0,60.0,0.0,0.0
1343,38.0,60.0,60.0,0.0,0.0
1344,37.0,60.0,60.0,0.0,0.0
1345,33.0,60.0,60.0,0.0,0.0
1346,32.0,1200.0,60.0,0.0,0.0
1347,30.0,1440.0,1200.0,0.0,0.0
1348,30.0,1440.0,1200.0,0.0,0.0
1349,30.0,1.0,1200.0,0.0,0.0
