,note,step,duration,channel,velocity
0,47.0,0.0,120.0,0.0,0.0
1,32.0,120.0,120.0,0.0,0.0
2,51.0,0.0,120.0,0.0,0.0
3,39.0,120.0,120.0,0.0,0.0
4,59.0,120.0,120.0,0.0,0.0
5,44.0,0.0,120.0,0.0,0.0
6,44.0,120.0,120.0,0.0,0.0
7,59.0,0.0,120.0,0.0,0.0
8,63.0,0.0,120.0,0.0,0.0
9,51.0,120.0,120.0,0.0,0.0
10,71.0,0.0,120.0,0.0,0.0
11,56.0,120.0,120.0,0.0,0.0
12,56.0,0.0,120.0,0.0,0.0
13,71.0,120.0,120.0,0.0,0.0
14,75.0,0.0,120.0,0.0,0.0
15,63.0,120.0,120.0,0.0,0.0
16,68.0,0.0,120.0,0.0,0.0
17,83.0,120.0,120.0,0.0,0.0
18,63.0,120.0,120.0,0.0,0.0
19,75.0,0.0,120.0,0.0,0.0
20,56.0,0.0,120.0,0.0,0.0
21,71.0,120.0,120.0,0.0,0.0
22,56.0,0.0,120.0,0.0,0.0
23,71.0,120.0,120.0,0.0,0.0
24,51.0,0.0,120.0,0.0,0.0
25,63.0,120.0,120.0,0.0,0.0
26,44.0,0.0,120.0,0.0,0.0
27,59.0,120.0,120.0,0.0,0.0
28,44.0,0.0,120.0,0.0,0.0
29,59.0,120.0,120.0,0.0,0.0
30,51.0,0.0,120.0,0.0,0.0
31,39.0,120.0,120.0,0.0,0.0
32,46.0,120.0,120.0,0.0,0.0
33,32.0,0.0,120.0,0.0,0.0
34,37.0,120.0,120.0,0.0,0.0
35,52.0,0.0,120.0,0.0,0.0
36,44.0,0.0,120.0,0.0,0.0
37,58.0,120.0,120.0,0.0,0.0
38,58.0,0.0,120.0,0.0,0.0
39,44.0,120.0,120.0,0.0,0.0
40,64.0,0.0,120.0,0.0,0.0
41,49.0,120.0,120.0,0.0,0.0
42,70.0,120.0,120.0,0.0,0.0
43,56.0,0.0,120.0,0.0,0.0
44,70.0,120.0,120.0,0.0,0.0
45,56.0,0.0,120.0,0.0,0.0
46,76.0,0.0,120.0,0.0,0.0
47,61.0,120.0,120.0,0.0,0.0
48,68.0,120.0,120.0,0.0,0.0
49,82.0,0.0,120.0,0.0,0.0
50,61.0,120.0,120.0,0.0,0.0
51,76.0,0.0,120.0,0.0,0.0
52,70.0,0.0,120.0,0.0,0.0
53,56.0,120.0,120.0,0.0,0.0
54,56.0,120.0,120.0,0.0,0.0
55,70.0,0.0,120.0,0.0,0.0
56,64.0,120.0,120.0,0.0,0.0
57,49.0,0.0,120.0,0.0,0.0
58,44.0,0.0,120.0,0.0,0.0
59,58.0,120.0,120.0,0.0,0.0
60,58.0,120.0,120.0,0.0,0.0
61,44.0,0.0,120.0,0.0,0.0
62,37.0,0.0,120.0,0.0,0.0
63,52.0,120.0,120.0,0.0,0.0
64,49.0,120.0,120.0,0.0,0.0
65,32.0,0.0,120.0,0.0,0.0
66,56.0,120.0,120.0,0.0,0.0
67,40.0,0.0,120.0,0.0,0.0
68,61.0,120.0,120.0,0.0,0.0
69,44.0,0.0,120.0,0.0,0.0
70,44.0,120.0,120.0,0.0,0.0
71,61.0,0.0,120.0,0.0,0.0
72,68.0,0.0,120.0,0.0,0.0
73,52.0,120.0,120.0,0.0,0.0
74,73.0,0.0,120.0,0.0,0.0
75,56.0,120.0,120.0,0.0,0.0
76,73.0,0.0,120.0,0.0,0.0
77,56.0,120.0,120.0,0.0,0.0
78,80.0,0.0,120.0,0.0,0.0
79,64.0,120.0,120.0,0.0,0.0
80,85.0,0.0,120.0,0.0,0.0
81,68.0,120.0,120.0,0.0,0.0
82,80.0,0.0,120.0,0.0,0.0
83,64.0,120.0,120.0,0.0,0.0
84,73.0,0.0,120.0,0.0,0.0
85,56.0,120.0,120.0,0.0,0.0
86,73.0,0.0,120.0,0.0,0.0
87,56.0,120.0,120.0,0.0,0.0
88,68.0,0.0,120.0,0.0,0.0
89,52.0,120.0,120.0,0.0,0.0
90,61.0,120.0,120.0,0.0,0.0
91,44.0,0.0,120.0,0.0,0.0
92,44.0,0.0,120.0,0.0,0.0
93,61.0,120.0,120.0,0.0,0.0
94,40.0,0.0,120.0,0.0,0.0
95,56.0,120.0,120.0,0.0,0.0
96,47.0,0.0,120.0,0.0,0.0
97,32.0,120.0,120.0,0.0,0.0
98,51.0,0.0,120.0,0.0,0.0
99,39.0,120.0,120.0,0.0,0.0
100,44.0,120.0,120.0,0.0,0.0
101,59.0,0.0,120.0,0.0,0.0
102,44.0,0.0,120.0,0.0,0.0
103,59.0,120.0,120.0,0.0,0.0
104,51.0,0.0,120.0,0.0,0.0
105,63.0,120.0,120.0,0.0,0.0
106,71.0,0.0,120.0,0.0,0.0
107,56.0,120.0,120.0,0.0,0.0
108,56.0,0.0,120.0,0.0,0.0
109,71.0,120.0,120.0,0.0,0.0
110,63.0,0.0,120.0,0.0,0.0
111,75.0,120.0,120.0,0.0,0.0
112,83.0,0.0,120.0,0.0,0.0
113,68.0,120.0,120.0,0.0,0.0
114,75.0,0.0,120.0,0.0,0.0
115,63.0,120.0,120.0,0.0,0.0
116,71.0,120.0,120.0,0.0,0.0
117,56.0,0.0,120.0,0.0,0.0
118,56.0,120.0,120.0,0.0,0.0
119,71.0,0.0,120.0,0.0,0.0
120,63.0,0.0,120.0,0.0,0.0
121,51.0,120.0,120.0,0.0,0.0
122,44.0,120.0,120.0,0.0,0.0
123,59.0,0.0,120.0,0.0,0.0
124,44.0,120.0,120.0,0.0,0.0
125,59.0,0.0,120.0,0.0,0.0
126,39.0,0.0,120.0,0.0,0.0
127,51.0,120.0,120.0,0.0,0.0
128,32.0,0.0,120.0,0.0,0.0
129,46.0,120.0,120.0,0.0,0.0
130,37.0,0.0,120.0,0.0,0.0
131,52.0,120.0,120.0,0.0,0.0
132,44.0,0.0,120.0,0.0,0.0
133,58.0,120.0,120.0,0.0,0.0
134,44.0,0.0,120.0,0.0,0.0
135,58.0,120.0,120.0,0.0,0.0
136,49.0,0.0,120.0,0.0,0.0
137,64.0,120.0,120.0,0.0,0.0
138,56.0,120.0,120.0,0.0,0.0
139,70.0,0.0,120.0,0.0,0.0
140,56.0,0.0,120.0,0.0,0.0
141,70.0,120.0,120.0,0.0,0.0
142,61.0,120.0,120.0,0.0,0.0
143,76.0,0.0,120.0,0.0,0.0
144,68.0,120.0,120.0,0.0,0.0
145,82.0,0.0,120.0,0.0,0.0
146,76.0,0.0,120.0,0.0,0.0
147,61.0,120.0,120.0,0.0,0.0
148,56.0,120.0,120.0,0.0,0.0
149,70.0,0.0,120.0,0.0,0.0
150,56.0,0.0,120.0,0.0,0.0
151,70.0,120.0,120.0,0.0,0.0
152,49.0,120.0,120.0,0.0,0.0
153,64.0,0.0,120.0,0.0,0.0
154,58.0,120.0,120.0,0.0,0.0
155,44.0,0.0,120.0,0.0,0.0
156,58.0,0.0,120.0,0.0,0.0
157,44.0,120.0,120.0,0.0,0.0
158,37.0,120.0,120.0,0.0,0.0
159,52.0,0.0,120.0,0.0,0.0
160,47.0,120.0,120.0,0.0,0.0
161,32.0,0.0,120.0,0.0,0.0
162,52.0,120.0,120.0,0.0,0.0
163,37.0,0.0,120.0,0.0,0.0
164,59.0,0.0,120.0,0.0,0.0
165,43.0,120.0,120.0,0.0,0.0
166,59.0,0.0,120.0,0.0,0.0
167,44.0,120.0,120.0,0.0,0.0
168,52.0,120.0,120.0,0.0,0.0
169,64.0,0.0,120.0,0.0,0.0
170,71.0,120.0,120.0,0.0,0.0
171,55.0,0.0,120.0,0.0,0.0
172,56.0,0.0,120.0,0.0,0.0
173,71.0,120.0,120.0,0.0,0.0
174,61.0,120.0,120.0,0.0,0.0
175,76.0,0.0,120.0,0.0,0.0
176,83.0,0.0,120.0,0.0,0.0
177,67.0,120.0,120.0,0.0,0.0
178,76.0,0.0,120.0,0.0,0.0
179,61.0,120.0,120.0,0.0,0.0
180,56.0,120.0,120.0,0.0,0.0
181,71.0,0.0,120.0,0.0,0.0
182,71.0,0.0,120.0,0.0,0.0
183,55.0,120.0,120.0,0.0,0.0
184,64.0,0.0,120.0,0.0,0.0
185,49.0,120.0,120.0,0.0,0.0
186,59.0,0.0,120.0,0.0,0.0
187,44.0,120.0,120.0,0.0,0.0
188,59.0,120.0,120.0,0.0,0.0
189,43.0,0.0,120.0,0.0,0.0
190,52.0,120.0,120.0,0.0,0.0
191,37.0,0.0,120.0,0.0,0.0
192,32.0,0.0,120.0,0.0,0.0
193,44.0,120.0,120.0,0.0,0.0
194,39.0,120.0,120.0,0.0,0.0
195,47.0,0.0,120.0,0.0,0.0
196,56.0,0.0,120.0,0.0,0.0
197,44.0,120.0,120.0,0.0,0.0
198,56.0,0.0,120.0,0.0,0.0
199,44.0,120.0,120.0,0.0,0.0
200,51.0,120.0,120.0,0.0,0.0
201,59.0,0.0,120.0,0.0,0.0
202,56.0,120.0,120.0,0.0,0.0
203,68.0,119.0,480.0,0.0,0.0
204,51.0,0.0,120.0,0.0,0.0
205,59.0,120.0,120.0,0.0,0.0
206,44.0,120.0,120.0,0.0,0.0
207,56.0,0.0,120.0,0.0,0.0
208,51.0,1.0,120.0,0.0,0.0
209,59.0,0.0,120.0,0.0,0.0
210,56.0,120.0,120.0,0.0,0.0
211,66.0,119.0,480.0,0.0,0.0
212,51.0,0.0,120.0,0.0,0.0
213,59.0,120.0,120.0,0.0,0.0
214,44.0,0.0,120.0,0.0,0.0
215,56.0,120.0,120.0,0.0,0.0
216,51.0,0.0,120.0,0.0,0.0
217,59.0,1.0,120.0,0.0,0.0
218,64.0,119.0,480.0,0.0,0.0
219,56.0,120.0,120.0,0.0,0.0
220,51.0,0.0,120.0,0.0,0.0
221,59.0,120.0,120.0,0.0,0.0
222,44.0,0.0,120.0,0.0,0.0
223,56.0,120.0,120.0,0.0,0.0
224,51.0,1.0,120.0,0.0,0.0
225,58.0,0.0,120.0,0.0,0.0
226,63.0,119.0,480.0,0.0,0.0
227,55.0,120.0,120.0,0.0,0.0
228,58.0,0.0,120.0,0.0,0.0
229,51.0,120.0,120.0,0.0,0.0
230,55.0,120.0,120.0,0.0,0.0
231,44.0,0.0,120.0,0.0,0.0
232,51.0,0.0,120.0,0.0,0.0
233,57.0,1.0,120.0,0.0,0.0
234,54.0,120.0,120.0,0.0,0.0
235,63.0,119.0,480.0,0.0,0.0
236,51.0,120.0,120.0,0.0,0.0
237,57.0,0.0,120.0,0.0,0.0
238,54.0,120.0,120.0,0.0,0.0
239,44.0,0.0,120.0,0.0,0.0
240,56.0,1.0,120.0,0.0,0.0
241,49.0,0.0,120.0,0.0,0.0
242,53.0,120.0,120.0,0.0,0.0
243,61.0,119.0,480.0,0.0,0.0
244,56.0,0.0,120.0,0.0,0.0
245,49.0,120.0,120.0,0.0,0.0
246,53.0,0.0,120.0,0.0,0.0
247,44.0,120.0,120.0,0.0,0.0
248,55.0,1.0,120.0,0.0,0.0
249,49.0,0.0,120.0,0.0,0.0
250,61.0,119.0,480.0,0.0,0.0
251,52.0,120.0,120.0,0.0,0.0
252,49.0,0.0,120.0,0.0,0.0
253,55.0,120.0,120.0,0.0,0.0
254,52.0,0.0,120.0,0.0,0.0
255,44.0,120.0,120.0,0.0,0.0
256,32.0,0.0,120.0,0.0,0.0
257,47.0,1.0,120.0,0.0,0.0
258,51.0,120.0,120.0,0.0,0.0
259,39.0,0.0,120.0,0.0,0.0
260,44.0,120.0,120.0,0.0,0.0
261,59.0,0.0,120.0,0.0,0.0
262,59.0,0.0,120.0,0.0,0.0
263,44.0,120.0,120.0,0.0,0.0
264,51.0,0.0,120.0,0.0,0.0
265,63.0,120.0,120.0,0.0,0.0
266,56.0,0.0,120.0,0.0,0.0
267,71.0,120.0,120.0,0.0,0.0
268,71.0,0.0,120.0,0.0,0.0
269,56.0,120.0,120.0,0.0,0.0
270,75.0,0.0,120.0,0.0,0.0
271,63.0,120.0,120.0,0.0,0.0
272,68.0,120.0,120.0,0.0,0.0
273,83.0,0.0,120.0,0.0,0.0
274,75.0,0.0,120.0,0.0,0.0
275,63.0,120.0,120.0,0.0,0.0
276,56.0,0.0,120.0,0.0,0.0
277,71.0,120.0,120.0,0.0,0.0
278,56.0,0.0,120.0,0.0,0.0
279,71.0,120.0,120.0,0.0,0.0
280,51.0,0.0,120.0,0.0,0.0
281,63.0,120.0,120.0,0.0,0.0
282,44.0,120.0,120.0,0.0,0.0
283,59.0,0.0,120.0,0.0,0.0
284,44.0,120.0,120.0,0.0,0.0
285,59.0,0.0,120.0,0.0,0.0
286,51.0,0.0,120.0,0.0,0.0
287,39.0,120.0,120.0,0.0,0.0
288,46.0,0.0,120.0,0.0,0.0
289,32.0,120.0,120.0,0.0,0.0
290,52.0,0.0,120.0,0.0,0.0
291,37.0,120.0,120.0,0.0,0.0
292,58.0,120.0,120.0,0.0,0.0
293,44.0,0.0,120.0,0.0,0.0
294,44.0,120.0,120.0,0.0,0.0
295,58.0,0.0,120.0,0.0,0.0
296,64.0,0.0,120.0,0.0,0.0
297,49.0,120.0,120.0,0.0,0.0
298,56.0,120.0,120.0,0.0,0.0
299,70.0,0.0,120.0,0.0,0.0
300,70.0,120.0,120.0,0.0,0.0
301,56.0,0.0,120.0,0.0,0.0
302,61.0,0.0,120.0,0.0,0.0
303,76.0,120.0,120.0,0.0,0.0
304,68.0,120.0,120.0,0.0,0.0
305,82.0,0.0,120.0,0.0,0.0
306,61.0,120.0,120.0,0.0,0.0
307,76.0,0.0,120.0,0.0,0.0
308,70.0,0.0,120.0,0.0,0.0
309,56.0,120.0,120.0,0.0,0.0
310,56.0,120.0,120.0,0.0,0.0
311,70.0,0.0,120.0,0.0,0.0
312,64.0,0.0,120.0,0.0,0.0
313,49.0,120.0,120.0,0.0,0.0
314,44.0,120.0,120.0,0.0,0.0
315,58.0,0.0,120.0,0.0,0.0
316,44.0,120.0,120.0,0.0,0.0
317,58.0,0.0,120.0,0.0,0.0
318,37.0,120.0,120.0,0.0,0.0
319,52.0,0.0,120.0,0.0,0.0
320,32.0,0.0,120.0,0.0,0.0
321,49.0,120.0,120.0,0.0,0.0
322,56.0,0.0,120.0,0.0,0.0
323,40.0,120.0,120.0,0.0,0.0
324,61.0,0.0,120.0,0.0,0.0
325,44.0,120.0,120.0,0.0,0.0
326,44.0,120.0,120.0,0.0,0.0
327,61.0,0.0,120.0,0.0,0.0
328,52.0,0.0,120.0,0.0,0.0
329,68.0,120.0,120.0,0.0,0.0
330,73.0,120.0,120.0,0.0,0.0
331,56.0,0.0,120.0,0.0,0.0
332,56.0,0.0,120.0,0.0,0.0
333,73.0,120.0,120.0,0.0,0.0
334,80.0,0.0,120.0,0.0,0.0
335,64.0,120.0,120.0,0.0,0.0
336,68.0,120.0,120.0,0.0,0.0
337,85.0,0.0,120.0,0.0,0.0
338,64.0,120.0,120.0,0.0,0.0
339,80.0,0.0,120.0,0.0,0.0
340,56.0,0.0,120.0,0.0,0.0
341,73.0,120.0,120.0,0.0,0.0
342,56.0,0.0,120.0,0.0,0.0
343,73.0,120.0,120.0,0.0,0.0
344,52.0,0.0,120.0,0.0,0.0
345,68.0,120.0,120.0,0.0,0.0
346,44.0,120.0,120.0,0.0,0.0
347,61.0,0.0,120.0,0.0,0.0
348,61.0,0.0,120.0,0.0,0.0
349,44.0,120.0,120.0,0.0,0.0
350,40.0,120.0,120.0,0.0,0.0
351,56.0,0.0,120.0,0.0,0.0
352,48.0,120.0,120.0,0.0,0.0
353,32.0,0.0,120.0,0.0,0.0
354,39.0,120.0,120.0,0.0,0.0
355,56.0,0.0,120.0,0.0,0.0
356,60.0,120.0,120.0,0.0,0.0
357,44.0,0.0,120.0,0.0,0.0
358,60.0,0.0,120.0,0.0,0.0
359,44.0,120.0,120.0,0.0,0.0
360,68.0,120.0,120.0,0.0,0.0
361,51.0,0.0,120.0,0.0,0.0
362,72.0,0.0,120.0,0.0,0.0
363,56.0,120.0,120.0,0.0,0.0
364,72.0,0.0,120.0,0.0,0.0
365,56.0,120.0,120.0,0.0,0.0
366,80.0,120.0,120.0,0.0,0.0
367,63.0,0.0,120.0,0.0,0.0
368,84.0,0.0,120.0,0.0,0.0
369,68.0,120.0,120.0,0.0,0.0
370,63.0,0.0,120.0,0.0,0.0
371,80.0,120.0,120.0,0.0,0.0
372,56.0,0.0,120.0,0.0,0.0
373,72.0,120.0,120.0,0.0,0.0
374,72.0,0.0,120.0,0.0,0.0
375,56.0,120.0,120.0,0.0,0.0
376,51.0,0.0,120.0,0.0,0.0
377,68.0,120.0,120.0,0.0,0.0
378,60.0,120.0,120.0,0.0,0.0
379,44.0,0.0,120.0,0.0,0.0
380,60.0,0.0,120.0,0.0,0.0
381,44.0,120.0,120.0,0.0,0.0
382,56.0,0.0,120.0,0.0,0.0
383,39.0,120.0,120.0,0.0,0.0
384,52.0,0.0,120.0,0.0,0.0
385,37.0,120.0,120.0,0.0,0.0
386,57.0,120.0,120.0,0.0,0.0
387,45.0,0.0,120.0,0.0,0.0
388,49.0,0.0,120.0,0.0,0.0
389,64.0,120.0,120.0,0.0,0.0
390,49.0,120.0,120.0,0.0,0.0
391,64.0,0.0,120.0,0.0,0.0
392,49.0,120.0,120.0,0.0,0.0
393,69.0,0.0,120.0,0.0,0.0
394,57.0,0.0,120.0,0.0,0.0
395,76.0,120.0,120.0,0.0,0.0
396,76.0,0.0,120.0,0.0,0.0
397,61.0,120.0,120.0,0.0,0.0
398,81.0,0.0,120.0,0.0,0.0
399,69.0,120.0,120.0,0.0,0.0
400,88.0,0.0,120.0,0.0,0.0
401,73.0,120.0,120.0,0.0,0.0
402,69.0,120.0,120.0,0.0,0.0
403,81.0,0.0,120.0,0.0,0.0
404,76.0,0.0,120.0,0.0,0.0
405,61.0,120.0,120.0,0.0,0.0
406,76.0,0.0,120.0,0.0,0.0
407,61.0,120.0,120.0,0.0,0.0
408,57.0,120.0,120.0,0.0,0.0
409,69.0,0.0,120.0,0.0,0.0
410,64.0,0.0,120.0,0.0,0.0
411,49.0,120.0,120.0,0.0,0.0
412,64.0,0.0,120.0,0.0,0.0
413,49.0,120.0,120.0,0.0,0.0
414,57.0,0.0,120.0,0.0,0.0
415,45.0,120.0,120.0,0.0,0.0
416,51.0,120.0,120.0,0.0,0.0
417,39.0,0.0,120.0,0.0,0.0
418,46.0,0.0,120.0,0.0,0.0
419,55.0,120.0,120.0,0.0,0.0
420,49.0,120.0,120.0,0.0,0.0
421,63.0,0.0,120.0,0.0,0.0
422,51.0,120.0,120.0,0.0,0.0
423,63.0,0.0,120.0,0.0,0.0
424,67.0,120.0,120.0,0.0,0.0
425,58.0,0.0,120.0,0.0,0.0
426,61.0,0.0,120.0,0.0,0.0
427,75.0,120.0,120.0,0.0,0.0
428,63.0,0.0,120.0,0.0,0.0
429,75.0,120.0,120.0,0.0,0.0
430,79.0,0.0,120.0,0.0,0.0
431,67.0,120.0,120.0,0.0,0.0
432,73.0,0.0,120.0,0.0,0.0
433,87.0,120.0,120.0,0.0,0.0
434,67.0,0.0,120.0,0.0,0.0
435,79.0,120.0,120.0,0.0,0.0
436,63.0,0.0,120.0,0.0,0.0
437,75.0,120.0,120.0,0.0,0.0
438,75.0,120.0,120.0,0.0,0.0
439,61.0,0.0,120.0,0.0,0.0
440,67.0,120.0,120.0,0.0,0.0
441,58.0,0.0,120.0,0.0,0.0
442,63.0,120.0,120.0,0.0,0.0
443,51.0,0.0,120.0,0.0,0.0
444,46.0,0.0,120.0,0.0,0.0
445,63.0,120.0,120.0,0.0,0.0
446,55.0,120.0,120.0,0.0,0.0
447,39.0,0.0,120.0,0.0,0.0
448,32.0,120.0,120.0,0.0,0.0
449,48.0,0.0,120.0,0.0,0.0
450,51.0,120.0,120.0,0.0,0.0
451,39.0,0.0,120.0,0.0,0.0
452,60.0,120.0,120.0,0.0,0.0
453,44.0,0.0,120.0,0.0,0.0
454,44.0,120.0,120.0,0.0,0.0
455,60.0,0.0,120.0,0.0,0.0
456,63.0,120.0,120.0,0.0,0.0
457,51.0,0.0,120.0,0.0,0.0
458,56.0,0.0,120.0,0.0,0.0
459,72.0,120.0,120.0,0.0,0.0
460,56.0,0.0,120.0,0.0,0.0
461,72.0,120.0,120.0,0.0,0.0
462,63.0,120.0,120.0,0.0,0.0
463,75.0,0.0,120.0,0.0,0.0
464,84.0,120.0,120.0,0.0,0.0
465,68.0,0.0,120.0,0.0,0.0
466,68.0,0.0,120.0,0.0,0.0
467,84.0,120.0,120.0,0.0,0.0
468,87.0,120.0,120.0,0.0,0.0
469,75.0,0.0,120.0,0.0,0.0
470,80.0,0.0,120.0,0.0,0.0
471,96.0,120.0,120.0,0.0,0.0
472,87.0,0.0,120.0,0.0,0.0
473,75.0,120.0,120.0,0.0,0.0
474,68.0,120.0,120.0,0.0,0.0
475,84.0,0.0,120.0,0.0,0.0
476,84.0,0.0,120.0,0.0,0.0
477,68.0,120.0,120.0,0.0,0.0
478,75.0,120.0,120.0,0.0,0.0
479,63.0,0.0,120.0,0.0,0.0
480,72.0,0.0,120.0,0.0,0.0
481,56.0,120.0,120.0,0.0,0.0
482,72.0,0.0,120.0,0.0,0.0
483,56.0,120.0,120.0,0.0,0.0
484,63.0,0.0,120.0,0.0,0.0
485,51.0,120.0,120.0,0.0,0.0
486,60.0,0.0,120.0,0.0,0.0
487,44.0,120.0,120.0,0.0,0.0
488,44.0,120.0,120.0,0.0,0.0
489,60.0,119.0,480.0,0.0,0.0
490,39.0,0.0,120.0,0.0,0.0
491,51.0,120.0,120.0,0.0,0.0
492,48.0,0.0,120.0,0.0,0.0
493,32.0,120.0,120.0,0.0,0.0
494,51.0,0.0,120.0,0.0,0.0
495,39.0,1.0,120.0,0.0,0.0
496,46.0,0.0,120.0,0.0,0.0
497,43.0,120.0,120.0,0.0,0.0
498,39.0,0.0,120.0,0.0,0.0
499,51.0,120.0,120.0,0.0,0.0
500,32.0,0.0,120.0,0.0,0.0
501,58.0,120.0,120.0,0.0,0.0
502,39.0,120.0,120.0,0.0,0.0
503,51.0,0.0,120.0,0.0,0.0
504,49.0,120.0,120.0,0.0,0.0
505,46.0,0.0,120.0,0.0,0.0
506,39.0,0.0,120.0,0.0,0.0
507,51.0,120.0,120.0,0.0,0.0
508,63.0,0.0,120.0,0.0,0.0
509,32.0,120.0,120.0,0.0,0.0
510,51.0,0.0,120.0,0.0,0.0
511,39.0,120.0,120.0,0.0,0.0
512,32.0,0.0,120.0,0.0,0.0
513,48.0,120.0,120.0,0.0,0.0
514,51.0,120.0,120.0,0.0,0.0
515,39.0,0.0,120.0,0.0,0.0
516,44.0,0.0,120.0,0.0,0.0
517,60.0,120.0,120.0,0.0,0.0
518,44.0,120.0,120.0,0.0,0.0
519,60.0,119.0,240.0,0.0,0.0
520,51.0,1.0,120.0,0.0,0.0
521,63.0,0.0,120.0,0.0,0.0
522,56.0,120.0,120.0,0.0,0.0
523,72.0,0.0,120.0,0.0,0.0
524,56.0,120.0,120.0,0.0,0.0
525,72.0,0.0,120.0,0.0,0.0
526,63.0,120.0,120.0,0.0,0.0
527,75.0,0.0,120.0,0.0,0.0
528,68.0,120.0,120.0,0.0,0.0
529,84.0,0.0,120.0,0.0,0.0
530,84.0,120.0,120.0,0.0,0.0
531,68.0,0.0,120.0,0.0,0.0
532,87.0,0.0,120.0,0.0,0.0
533,75.0,120.0,120.0,0.0,0.0
534,96.0,120.0,120.0,0.0,0.0
535,80.0,0.0,120.0,0.0,0.0
536,87.0,0.0,120.0,0.0,0.0
537,75.0,120.0,120.0,0.0,0.0
538,84.0,120.0,120.0,0.0,0.0
539,68.0,0.0,120.0,0.0,0.0
540,68.0,0.0,120.0,0.0,0.0
541,84.0,120.0,120.0,0.0,0.0
542,63.0,120.0,120.0,0.0,0.0
543,75.0,0.0,120.0,0.0,0.0
544,72.0,0.0,120.0,0.0,0.0
545,56.0,120.0,120.0,0.0,0.0
546,72.0,120.0,120.0,0.0,0.0
547,56.0,0.0,120.0,0.0,0.0
548,51.0,120.0,120.0,0.0,0.0
549,63.0,0.0,120.0,0.0,0.0
550,44.0,0.0,120.0,0.0,0.0
551,60.0,120.0,120.0,0.0,0.0
552,60.0,119.0,480.0,0.0,0.0
553,44.0,120.0,120.0,0.0,0.0
554,39.0,0.0,120.0,0.0,0.0
555,51.0,120.0,120.0,0.0,0.0
556,32.0,120.0,120.0,0.0,0.0
557,48.0,0.0,120.0,0.0,0.0
558,51.0,0.0,120.0,0.0,0.0
559,39.0,1.0,120.0,0.0,0.0
560,46.0,120.0,120.0,0.0,0.0
561,43.0,0.0,120.0,0.0,0.0
562,51.0,0.0,120.0,0.0,0.0
563,39.0,120.0,120.0,0.0,0.0
564,58.0,119.0,480.0,0.0,0.0
565,32.0,120.0,120.0,0.0,0.0
566,51.0,120.0,120.0,0.0,0.0
567,39.0,0.0,120.0,0.0,0.0
568,41.0,120.0,120.0,0.0,0.0
569,44.0,0.0,120.0,0.0,0.0
570,51.0,0.0,120.0,0.0,0.0
571,39.0,1.0,120.0,0.0,0.0
572,32.0,120.0,120.0,0.0,0.0
573,56.0,119.0,240.0,0.0,0.0
574,39.0,0.0,120.0,0.0,0.0
575,51.0,1.0,120.0,0.0,0.0
576,46.0,120.0,120.0,0.0,0.0
577,32.0,0.0,120.0,0.0,0.0
578,39.0,0.0,120.0,0.0,0.0
579,51.0,120.0,120.0,0.0,0.0
580,43.0,120.0,120.0,0.0,0.0
581,58.0,0.0,120.0,0.0,0.0
582,58.0,119.0,240.0,0.0,0.0
583,43.0,120.0,120.0,0.0,0.0
584,63.0,0.0,120.0,0.0,0.0
585,51.0,1.0,120.0,0.0,0.0
586,70.0,120.0,120.0,0.0,0.0
587,55.0,0.0,120.0,0.0,0.0
588,56.0,120.0,120.0,0.0,0.0
589,70.0,0.0,120.0,0.0,0.0
590,63.0,0.0,120.0,0.0,0.0
591,75.0,120.0,120.0,0.0,0.0
592,82.0,120.0,120.0,0.0,0.0
593,67.0,0.0,120.0,0.0,0.0
594,82.0,0.0,120.0,0.0,0.0
595,68.0,120.0,120.0,0.0,0.0
596,87.0,0.0,120.0,0.0,0.0
597,75.0,120.0,120.0,0.0,0.0
598,94.0,120.0,120.0,0.0,0.0
599,79.0,0.0,120.0,0.0,0.0
600,75.0,120.0,120.0,0.0,0.0
601,87.0,0.0,120.0,0.0,0.0
602,68.0,120.0,120.0,0.0,0.0
603,82.0,0.0,120.0,0.0,0.0
604,67.0,0.0,120.0,0.0,0.0
605,82.0,120.0,120.0,0.0,0.0
606,63.0,0.0,120.0,0.0,0.0
607,75.0,120.0,120.0,0.0,0.0
608,70.0,0.0,120.0,0.0,0.0
609,56.0,120.0,120.0,0.0,0.0
610,70.0,0.0,120.0,0.0,0.0
611,55.0,120.0,120.0,0.0,0.0
612,63.0,0.0,120.0,0.0,0.0
613,51.0,120.0,120.0,0.0,0.0
614,58.0,0.0,120.0,0.0,0.0
615,44.0,120.0,120.0,0.0,0.0
616,58.0,119.0,480.0,0.0,0.0
617,43.0,120.0,120.0,0.0,0.0
618,39.0,120.0,120.0,0.0,0.0
619,51.0,0.0,120.0,0.0,0.0
620,46.0,0.0,120.0,0.0,0.0
621,32.0,120.0,120.0,0.0,0.0
622,39.0,1.0,120.0,0.0,0.0
623,51.0,0.0,120.0,0.0,0.0
624,44.0,0.0,120.0,0.0,0.0
625,41.0,120.0,120.0,0.0,0.0
626,49.0,120.0,120.0,0.0,0.0
627,37.0,0.0,120.0,0.0,0.0
628,32.0,120.0,120.0,0.0,0.0
629,56.0,119.0,480.0,0.0,0.0
630,49.0,0.0,120.0,0.0,0.0
631,37.0,120.0,120.0,0.0,0.0
632,44.0,0.0,120.0,0.0,0.0
633,41.0,120.0,120.0,0.0,0.0
634,37.0,1.0,120.0,0.0,0.0
635,49.0,0.0,120.0,0.0,0.0
636,32.0,120.0,120.0,0.0,0.0
637,53.0,119.0,240.0,0.0,0.0
638,49.0,0.0,120.0,0.0,0.0
639,37.0,1.0,120.0,0.0,0.0
640,44.0,120.0,120.0,0.0,0.0
641,32.0,0.0,120.0,0.0,0.0
642,40.0,0.0,120.0,0.0,0.0
643,49.0,120.0,120.0,0.0,0.0
644,44.0,120.0,120.0,0.0,0.0
645,56.0,0.0,120.0,0.0,0.0
646,44.0,120.0,120.0,0.0,0.0
647,56.0,0.0,120.0,0.0,0.0
648,61.0,0.0,120.0,0.0,0.0
649,52.0,120.0,120.0,0.0,0.0
650,68.0,120.0,120.0,0.0,0.0
651,56.0,0.0,120.0,0.0,0.0
652,56.0,120.0,120.0,0.0,0.0
653,68.0,0.0,120.0,0.0,0.0
654,73.0,0.0,120.0,0.0,0.0
655,64.0,120.0,120.0,0.0,0.0
656,80.0,0.0,120.0,0.0,0.0
657,68.0,120.0,120.0,0.0,0.0
658,73.0,120.0,120.0,0.0,0.0
659,64.0,0.0,120.0,0.0,0.0
660,68.0,0.0,120.0,0.0,0.0
661,56.0,120.0,120.0,0.0,0.0
662,68.0,0.0,120.0,0.0,0.0
663,56.0,120.0,120.0,0.0,0.0
664,61.0,0.0,120.0,0.0,0.0
665,52.0,120.0,120.0,0.0,0.0
666,56.0,0.0,120.0,0.0,0.0
667,44.0,120.0,120.0,0.0,0.0
668,44.0,0.0,120.0,0.0,0.0
669,56.0,120.0,120.0,0.0,0.0
670,40.0,0.0,120.0,0.0,0.0
671,49.0,120.0,120.0,0.0,0.0
672,32.0,120.0,120.0,0.0,0.0
673,44.0,0.0,120.0,0.0,0.0
674,39.0,0.0,120.0,0.0,0.0
675,48.0,120.0,120.0,0.0,0.0
676,44.0,120.0,120.0,0.0,0.0
677,56.0,0.0,120.0,0.0,0.0
678,56.0,120.0,120.0,0.0,0.0
679,44.0,0.0,120.0,0.0,0.0
680,51.0,120.0,120.0,0.0,0.0
681,60.0,0.0,120.0,0.0,0.0
682,56.0,120.0,120.0,0.0,0.0
683,68.0,0.0,120.0,0.0,0.0
684,68.0,120.0,120.0,0.0,0.0
685,56.0,0.0,120.0,0.0,0.0
686,63.0,0.0,120.0,0.0,0.0
687,72.0,120.0,120.0,0.0,0.0
688,80.0,120.0,120.0,0.0,0.0
689,68.0,0.0,120.0,0.0,0.0
690,63.0,0.0,120.0,0.0,0.0
691,72.0,120.0,120.0,0.0,0.0
692,68.0,0.0,120.0,0.0,0.0
693,56.0,120.0,120.0,0.0,0.0
694,68.0,0.0,120.0,0.0,0.0
695,56.0,120.0,120.0,0.0,0.0
696,60.0,0.0,120.0,0.0,0.0
697,51.0,120.0,120.0,0.0,0.0
698,56.0,0.0,120.0,0.0,0.0
699,44.0,120.0,120.0,0.0,0.0
700,44.0,120.0,120.0,0.0,0.0
701,56.0,0.0,120.0,0.0,0.0
702,48.0,0.0,120.0,0.0,0.0
703,39.0,120.0,120.0,0.0,0.0
704,44.0,120.0,120.0,0.0,0.0
705,28.0,0.0,120.0,0.0,0.0
706,35.0,120.0,120.0,0.0,0.0
707,47.0,0.0,120.0,0.0,0.0
708,56.0,120.0,120.0,0.0,0.0
709,40.0,0.0,120.0,0.0,0.0
710,56.0,0.0,120.0,0.0,0.0
711,40.0,120.0,120.0,0.0,0.0
712,59.0,120.0,120.0,0.0,0.0
713,47.0,0.0,120.0,0.0,0.0
714,68.0,120.0,120.0,0.0,0.0
715,52.0,0.0,120.0,0.0,0.0
716,68.0,0.0,120.0,0.0,0.0
717,52.0,120.0,120.0,0.0,0.0
718,59.0,120.0,120.0,0.0,0.0
719,71.0,0.0,120.0,0.0,0.0
720,64.0,0.0,120.0,0.0,0.0
721,80.0,120.0,120.0,0.0,0.0
722,71.0,0.0,120.0,0.0,0.0
723,80.0,120.0,120.0,0.0,0.0
724,83.0,120.0,120.0,0.0,0.0
725,76.0,0.0,120.0,0.0,0.0
726,92.0,120.0,120.0,0.0,0.0
727,76.0,0.0,120.0,0.0,0.0
728,71.0,120.0,120.0,0.0,0.0
729,83.0,0.0,120.0,0.0,0.0
730,80.0,120.0,120.0,0.0,0.0
731,64.0,0.0,120.0,0.0,0.0
732,80.0,120.0,120.0,0.0,0.0
733,64.0,0.0,120.0,0.0,0.0
734,59.0,0.0,120.0,0.0,0.0
735,71.0,120.0,120.0,0.0,0.0
736,68.0,120.0,120.0,0.0,0.0
737,52.0,0.0,120.0,0.0,0.0
738,52.0,0.0,120.0,0.0,0.0
739,68.0,120.0,120.0,0.0,0.0
740,59.0,120.0,120.0,0.0,0.0
741,47.0,0.0,120.0,0.0,0.0
742,40.0,120.0,120.0,0.0,0.0
743,56.0,0.0,120.0,0.0,0.0
744,40.0,120.0,120.0,0.0,0.0
745,56.0,119.0,480.0,0.0,0.0
746,35.0,0.0,120.0,0.0,0.0
747,47.0,120.0,120.0,0.0,0.0
748,28.0,120.0,120.0,0.0,0.0
749,44.0,0.0,120.0,0.0,0.0
750,47.0,0.0,120.0,0.0,0.0
751,35.0,1.0,120.0,0.0,0.0
752,39.0,120.0,120.0,0.0,0.0
753,42.0,0.0,120.0,0.0,0.0
754,47.0,120.0,120.0,0.0,0.0
755,35.0,0.0,120.0,0.0,0.0
756,52.0,120.0,120.0,0.0,0.0
757,28.0,0.0,120.0,0.0,0.0
758,35.0,120.0,120.0,0.0,0.0
759,47.0,0.0,120.0,0.0,0.0
760,45.0,120.0,120.0,0.0,0.0
761,42.0,0.0,120.0,0.0,0.0
762,35.0,120.0,120.0,0.0,0.0
763,47.0,0.0,120.0,0.0,0.0
764,59.0,0.0,120.0,0.0,0.0
765,28.0,120.0,120.0,0.0,0.0
766,47.0,0.0,120.0,0.0,0.0
767,35.0,120.0,120.0,0.0,0.0
768,28.0,120.0,120.0,0.0,0.0
769,44.0,0.0,120.0,0.0,0.0
770,35.0,120.0,120.0,0.0,0.0
771,47.0,0.0,120.0,0.0,0.0
772,56.0,0.0,120.0,0.0,0.0
773,40.0,120.0,120.0,0.0,0.0
774,56.0,119.0,240.0,0.0,0.0
775,40.0,120.0,120.0,0.0,0.0
776,47.0,1.0,120.0,0.0,0.0
777,59.0,0.0,120.0,0.0,0.0
778,68.0,0.0,120.0,0.0,0.0
779,52.0,120.0,120.0,0.0,0.0
780,68.0,0.0,120.0,0.0,0.0
781,52.0,120.0,120.0,0.0,0.0
782,71.0,120.0,120.0,0.0,0.0
783,59.0,0.0,120.0,0.0,0.0
784,64.0,0.0,120.0,0.0,0.0
785,80.0,120.0,120.0,0.0,0.0
786,80.0,0.0,120.0,0.0,0.0
787,64.0,120.0,120.0,0.0,0.0
788,71.0,0.0,120.0,0.0,0.0
789,83.0,120.0,120.0,0.0,0.0
790,92.0,120.0,120.0,0.0,0.0
791,76.0,0.0,120.0,0.0,0.0
792,71.0,120.0,120.0,0.0,0.0
793,83.0,0.0,120.0,0.0,0.0
794,80.0,0.0,120.0,0.0,0.0
795,64.0,120.0,120.0,0.0,0.0
796,64.0,0.0,120.0,0.0,0.0
797,80.0,120.0,120.0,0.0,0.0
798,59.0,0.0,120.0,0.0,0.0
799,71.0,120.0,120.0,0.0,0.0
800,52.0,0.0,120.0,0.0,0.0
801,68.0,120.0,120.0,0.0,0.0
802,52.0,0.0,120.0,0.0,0.0
803,68.0,120.0,120.0,0.0,0.0
804,47.0,0.0,120.0,0.0,0.0
805,59.0,120.0,120.0,0.0,0.0
806,56.0,0.0,120.0,0.0,0.0
807,40.0,120.0,120.0,0.0,0.0
808,56.0,119.0,480.0,0.0,0.0
809,40.0,120.0,120.0,0.0,0.0
810,35.0,120.0,120.0,0.0,0.0
811,47.0,0.0,120.0,0.0,0.0
812,44.0,120.0,120.0,0.0,0.0
813,28.0,0.0,120.0,0.0,0.0
814,35.0,0.0,120.0,0.0,0.0
815,47.0,1.0,120.0,0.0,0.0
816,39.0,0.0,120.0,0.0,0.0
817,42.0,120.0,120.0,0.0,0.0
818,47.0,0.0,120.0,0.0,0.0
819,35.0,120.0,120.0,0.0,0.0
820,52.0,120.0,120.0,0.0,0.0
821,28.0,0.0,120.0,0.0,0.0
822,47.0,120.0,120.0,0.0,0.0
823,35.0,0.0,120.0,0.0,0.0
824,37.0,120.0,120.0,0.0,0.0
825,40.0,0.0,120.0,0.0,0.0
826,47.0,0.0,120.0,0.0,0.0
827,35.0,120.0,120.0,0.0,0.0
828,52.0,120.0,120.0,0.0,0.0
829,28.0,0.0,120.0,0.0,0.0
830,35.0,120.0,120.0,0.0,0.0
831,47.0,0.0,120.0,0.0,0.0
832,42.0,0.0,120.0,0.0,0.0
833,28.0,120.0,120.0,0.0,0.0
834,47.0,0.0,120.0,0.0,0.0
835,35.0,120.0,120.0,0.0,0.0
836,54.0,120.0,120.0,0.0,0.0
837,39.0,0.0,120.0,0.0,0.0
838,40.0,120.0,120.0,0.0,0.0
839,54.0,119.0,240.0,0.0,0.0
840,47.0,0.0,120.0,0.0,0.0
841,59.0,1.0,120.0,0.0,0.0
842,51.0,120.0,120.0,0.0,0.0
843,66.0,0.0,120.0,0.0,0.0
844,66.0,120.0,120.0,0.0,0.0
845,52.0,0.0,120.0,0.0,0.0
846,59.0,0.0,120.0,0.0,0.0
847,71.0,120.0,120.0,0.0,0.0
848,63.0,120.0,120.0,0.0,0.0
849,78.0,0.0,120.0,0.0,0.0
850,64.0,0.0,120.0,0.0,0.0
851,78.0,120.0,120.0,0.0,0.0
852,71.0,120.0,120.0,0.0,0.0
853,83.0,0.0,120.0,0.0,0.0
854,90.0,0.0,120.0,0.0,0.0
855,75.0,120.0,120.0,0.0,0.0
856,83.0,120.0,120.0,0.0,0.0
857,71.0,0.0,120.0,0.0,0.0
858,64.0,120.0,120.0,0.0,0.0
859,78.0,0.0,120.0,0.0,0.0
860,78.0,120.0,120.0,0.0,0.0
861,63.0,0.0,120.0,0.0,0.0
862,59.0,0.0,120.0,0.0,0.0
863,71.0,120.0,120.0,0.0,0.0
864,66.0,0.0,120.0,0.0,0.0
865,52.0,120.0,120.0,0.0,0.0
866,51.0,120.0,120.0,0.0,0.0
867,66.0,0.0,120.0,0.0,0.0
868,59.0,0.0,120.0,0.0,0.0
869,47.0,120.0,120.0,0.0,0.0
870,54.0,0.0,120.0,0.0,0.0
871,40.0,120.0,120.0,0.0,0.0
872,54.0,119.0,480.0,0.0,0.0
873,39.0,120.0,120.0,0.0,0.0
874,35.0,120.0,120.0,0.0,0.0
875,47.0,0.0,120.0,0.0,0.0
876,28.0,0.0,120.0,0.0,0.0
877,42.0,120.0,120.0,0.0,0.0
878,47.0,1.0,120.0,0.0,0.0
879,35.0,0.0,120.0,0.0,0.0
880,40.0,0.0,120.0,0.0,0.0
881,37.0,120.0,120.0,0.0,0.0
882,33.0,120.0,120.0,0.0,0.0
883,45.0,0.0,120.0,0.0,0.0
884,52.0,119.0,480.0,0.0,0.0
885,28.0,120.0,120.0,0.0,0.0
886,45.0,120.0,120.0,0.0,0.0
887,33.0,0.0,120.0,0.0,0.0
888,37.0,0.0,120.0,0.0,0.0
889,40.0,120.0,120.0,0.0,0.0
890,45.0,0.0,120.0,0.0,0.0
891,33.0,1.0,120.0,0.0,0.0
892,49.0,119.0,240.0,0.0,0.0
893,28.0,120.0,120.0,0.0,0.0
894,33.0,0.0,120.0,0.0,0.0
895,45.0,1.0,120.0,0.0,0.0
896,28.0,120.0,120.0,0.0,0.0
897,40.0,0.0,120.0,0.0,0.0
898,45.0,0.0,120.0,0.0,0.0
899,36.0,120.0,120.0,0.0,0.0
900,52.0,0.0,120.0,0.0,0.0
901,40.0,120.0,120.0,0.0,0.0
902,52.0,0.0,120.0,0.0,0.0
903,40.0,120.0,120.0,0.0,0.0
904,48.0,120.0,120.0,0.0,0.0
905,57.0,0.0,120.0,0.0,0.0
906,64.0,0.0,120.0,0.0,0.0
907,52.0,120.0,120.0,0.0,0.0
908,64.0,0.0,120.0,0.0,0.0
909,52.0,120.0,120.0,0.0,0.0
910,60.0,120.0,120.0,0.0,0.0
911,69.0,0.0,120.0,0.0,0.0
912,76.0,0.0,120.0,0.0,0.0
913,64.0,120.0,120.0,0.0,0.0
914,69.0,0.0,120.0,0.0,0.0
915,60.0,120.0,120.0,0.0,0.0
916,52.0,0.0,120.0,0.0,0.0
917,64.0,120.0,120.0,0.0,0.0
918,52.0,0.0,120.0,0.0,0.0
919,64.0,120.0,120.0,0.0,0.0
920,48.0,0.0,120.0,0.0,0.0
921,57.0,120.0,120.0,0.0,0.0
922,40.0,0.0,120.0,0.0,0.0
923,52.0,120.0,120.0,0.0,0.0
924,52.0,0.0,120.0,0.0,0.0
925,40.0,120.0,120.0,0.0,0.0
926,45.0,0.0,120.0,0.0,0.0
927,36.0,120.0,120.0,0.0,0.0
928,40.0,120.0,120.0,0.0,0.0
929,28.0,0.0,120.0,0.0,0.0
930,35.0,0.0,120.0,0.0,0.0
931,44.0,120.0,120.0,0.0,0.0
932,52.0,0.0,120.0,0.0,0.0
933,40.0,120.0,120.0,0.0,0.0
934,40.0,0.0,120.0,0.0,0.0
935,52.0,120.0,120.0,0.0,0.0
936,47.0,120.0,120.0,0.0,0.0
937,56.0,0.0,120.0,0.0,0.0
938,52.0,120.0,120.0,0.0,0.0
939,64.0,0.0,120.0,0.0,0.0
940,56.0,0.0,120.0,0.0,0.0
941,47.0,120.0,120.0,0.0,0.0
942,52.0,120.0,120.0,0.0,0.0
943,40.0,0.0,120.0,0.0,0.0
944,28.0,0.0,120.0,0.0,0.0
945,38.0,120.0,120.0,0.0,0.0
946,44.0,120.0,120.0,0.0,0.0
947,34.0,0.0,120.0,0.0,0.0
948,40.0,0.0,120.0,0.0,0.0
949,50.0,120.0,120.0,0.0,0.0
950,40.0,120.0,120.0,0.0,0.0
951,50.0,0.0,120.0,0.0,0.0
952,56.0,120.0,120.0,0.0,0.0
953,46.0,0.0,120.0,0.0,0.0
954,52.0,0.0,120.0,0.0,0.0
955,62.0,120.0,120.0,0.0,0.0
956,56.0,119.0,240.0,0.0,0.0
957,46.0,120.0,120.0,0.0,0.0
958,50.0,0.0,120.0,0.0,0.0
959,40.0,1.0,120.0,0.0,0.0
960,39.0,0.0,120.0,0.0,0.0
961,27.0,120.0,120.0,0.0,0.0
962,34.0,120.0,120.0,0.0,0.0
963,43.0,0.0,120.0,0.0,0.0
964,51.0,0.0,120.0,0.0,0.0
965,39.0,120.0,120.0,0.0,0.0
966,39.0,0.0,120.0,0.0,0.0
967,51.0,120.0,120.0,0.0,0.0
968,46.0,0.0,120.0,0.0,0.0
969,55.0,120.0,120.0,0.0,0.0
970,51.0,120.0,120.0,0.0,0.0
971,63.0,0.0,120.0,0.0,0.0
972,51.0,120.0,120.0,0.0,0.0
973,63.0,0.0,120.0,0.0,0.0
974,67.0,0.0,120.0,0.0,0.0
975,58.0,120.0,120.0,0.0,0.0
976,75.0,0.0,120.0,0.0,0.0
977,63.0,120.0,120.0,0.0,0.0
978,67.0,0.0,120.0,0.0,0.0
979,58.0,120.0,120.0,0.0,0.0
980,63.0,0.0,120.0,0.0,0.0
981,51.0,120.0,120.0,0.0,0.0
982,63.0,0.0,120.0,0.0,0.0
983,51.0,120.0,120.0,0.0,0.0
984,46.0,0.0,120.0,0.0,0.0
985,55.0,120.0,120.0,0.0,0.0
986,39.0,0.0,120.0,0.0,0.0
987,51.0,120.0,120.0,0.0,0.0
988,51.0,0.0,120.0,0.0,0.0
989,39.0,120.0,120.0,0.0,0.0
990,34.0,120.0,120.0,0.0,0.0
991,43.0,0.0,120.0,0.0,0.0
992,27.0,0.0,120.0,0.0,0.0
993,40.0,120.0,120.0,0.0,0.0
994,44.0,120.0,120.0,0.0,0.0
995,35.0,0.0,120.0,0.0,0.0
996,39.0,0.0,120.0,0.0,0.0
997,52.0,120.0,120.0,0.0,0.0
998,39.0,120.0,120.0,0.0,0.0
999,52.0,0.0,120.0,0.0,0.0
1000,56.0,0.0,120.0,0.0,0.0
1001,47.0,120.0,120.0,0.0,0.0
1002,64.0,120.0,120.0,0.0,0.0
1003,51.0,0.0,120.0,0.0,0.0
1004,51.0,120.0,120.0,0.0,0.0
1005,64.0,0.0,120.0,0.0,0.0
1006,68.0,120.0,120.0,0.0,0.0
1007,59.0,0.0,120.0,0.0,0.0
1008,76.0,0.0,120.0,0.0,0.0
1009,63.0,120.0,120.0,0.0,0.0
1010,68.0,120.0,120.0,0.0,0.0
1011,59.0,0.0,120.0,0.0,0.0
1012,51.0,120.0,120.0,0.0,0.0
1013,64.0,0.0,120.0,0.0,0.0
1014,64.0,120.0,120.0,0.0,0.0
1015,51.0,0.0,120.0,0.0,0.0
1016,47.0,120.0,120.0,0.0,0.0
1017,56.0,0.0,120.0,0.0,0.0
1018,52.0,120.0,120.0,0.0,0.0
1019,39.0,0.0,120.0,0.0,0.0
1020,39.0,0.0,120.0,0.0,0.0
1021,52.0,120.0,120.0,0.0,0.0
1022,35.0,0.0,120.0,0.0,0.0
1023,44.0,120.0,120.0,0.0,0.0
1024,44.0,0.0,120.0,0.0,0.0
1025,27.0,120.0,120.0,0.0,0.0
1026,34.0,0.0,120.0,0.0,0.0
1027,49.0,120.0,120.0,0.0,0.0
1028,56.0,0.0,120.0,0.0,0.0
1029,40.0,120.0,120.0,0.0,0.0
1030,56.0,120.0,120.0,0.0,0.0
1031,40.0,0.0,120.0,0.0,0.0
1032,46.0,120.0,120.0,0.0,0.0
1033,61.0,0.0,120.0,0.0,0.0
1034,52.0,120.0,120.0,0.0,0.0
1035,68.0,0.0,120.0,0.0,0.0
1036,68.0,120.0,120.0,0.0,0.0
1037,52.0,0.0,120.0,0.0,0.0
1038,58.0,120.0,120.0,0.0,0.0
1039,73.0,0.0,120.0,0.0,0.0
1040,80.0,120.0,120.0,0.0,0.0
1041,64.0,0.0,120.0,0.0,0.0
1042,73.0,120.0,120.0,0.0,0.0
1043,58.0,0.0,120.0,0.0,0.0
1044,52.0,120.0,120.0,0.0,0.0
1045,68.0,0.0,120.0,0.0,0.0
1046,68.0,120.0,120.0,0.0,0.0
1047,52.0,0.0,120.0,0.0,0.0
1048,46.0,0.0,120.0,0.0,0.0
1049,61.0,120.0,120.0,0.0,0.0
1050,56.0,0.0,120.0,0.0,0.0
1051,40.0,120.0,120.0,0.0,0.0
1052,40.0,120.0,120.0,0.0,0.0
1053,56.0,0.0,120.0,0.0,0.0
1054,49.0,120.0,120.0,0.0,0.0
1055,34.0,0.0,120.0,0.0,0.0
1056,43.0,0.0,120.0,0.0,0.0
1057,27.0,120.0,120.0,0.0,0.0
1058,34.0,120.0,120.0,0.0,0.0
1059,49.0,0.0,120.0,0.0,0.0
1060,39.0,120.0,120.0,0.0,0.0
1061,55.0,0.0,120.0,0.0,0.0
1062,55.0,120.0,120.0,0.0,0.0
1063,39.0,0.0,120.0,0.0,0.0
1064,46.0,0.0,120.0,0.0,0.0
1065,61.0,120.0,120.0,0.0,0.0
1066,51.0,0.0,120.0,0.0,0.0
1067,67.0,120.0,120.0,0.0,0.0
1068,51.0,0.0,120.0,0.0,0.0
1069,67.0,120.0,120.0,0.0,0.0
1070,58.0,0.0,120.0,0.0,0.0
1071,73.0,120.0,120.0,0.0,0.0
1072,79.0,0.0,120.0,0.0,0.0
1073,63.0,120.0,120.0,0.0,0.0
1074,58.0,0.0,120.0,0.0,0.0
1075,73.0,120.0,120.0,0.0,0.0
1076,51.0,0.0,120.0,0.0,0.0
1077,67.0,120.0,120.0,0.0,0.0
1078,67.0,0.0,120.0,0.0,0.0
1079,51.0,120.0,120.0,0.0,0.0
1080,46.0,0.0,120.0,0.0,0.0
1081,61.0,120.0,120.0,0.0,0.0
1082,39.0,0.0,120.0,0.0,0.0
1083,55.0,120.0,120.0,0.0,0.0
1084,39.0,0.0,120.0,0.0,0.0
1085,55.0,120.0,120.0,0.0,0.0
1086,34.0,120.0,120.0,0.0,0.0
1087,49.0,0.0,120.0,0.0,0.0
1088,43.0,0.0,120.0,0.0,0.0
1089,27.0,120.0,120.0,0.0,0.0
1090,49.0,120.0,120.0,0.0,0.0
1091,34.0,0.0,120.0,0.0,0.0
1092,55.0,0.0,120.0,0.0,0.0
1093,39.0,120.0,120.0,0.0,0.0
1094,39.0,120.0,120.0,0.0,0.0
1095,55.0,0.0,120.0,0.0,0.0
1096,61.0,120.0,120.0,0.0,0.0
1097,46.0,0.0,120.0,0.0,0.0
1098,67.0,0.0,120.0,0.0,0.0
1099,51.0,120.0,120.0,0.0,0.0
1100,51.0,120.0,120.0,0.0,0.0
1101,67.0,0.0,120.0,0.0,0.0
1102,73.0,120.0,120.0,0.0,0.0
1103,58.0,0.0,120.0,0.0,0.0
1104,79.0,120.0,120.0,0.0,0.0
1105,63.0,0.0,120.0,0.0,0.0
1106,58.0,120.0,120.0,0.0,0.0
1107,73.0,0.0,120.0,0.0,0.0
1108,67.0,0.0,120.0,0.0,0.0
1109,51.0,120.0,120.0,0.0,0.0
1110,67.0,0.0,120.0,0.0,0.0
1111,51.0,120.0,120.0,0.0,0.0
1112,61.0,120.0,120.0,0.0,0.0
1113,46.0,0.0,120.0,0.0,0.0
1114,39.0,0.0,120.0,0.0,0.0
1115,55.0,120.0,120.0,0.0,0.0
1116,55.0,0.0,120.0,0.0,0.0
1117,39.0,120.0,120.0,0.0,0.0
1118,34.0,120.0,120.0,0.0,0.0
1119,49.0,0.0,120.0,0.0,0.0
1120,28.0,0.0,120.0,0.0,0.0
1121,44.0,120.0,120.0,0.0,0.0
1122,37.0,120.0,120.0,0.0,0.0
1123,49.0,0.0,120.0,0.0,0.0
1124,56.0,120.0,120.0,0.0,0.0
1125,40.0,0.0,120.0,0.0,0.0
1126,56.0,120.0,120.0,0.0,0.0
1127,40.0,0.0,120.0,0.0,0.0
1128,61.0,0.0,120.0,0.0,0.0
1129,49.0,120.0,120.0,0.0,0.0
1130,68.0,0.0,120.0,0.0,0.0
1131,52.0,120.0,120.0,0.0,0.0
1132,68.0,0.0,120.0,0.0,0.0
1133,52.0,120.0,120.0,0.0,0.0
1134,61.0,0.0,120.0,0.0,0.0
1135,73.0,120.0,120.0,0.0,0.0
1136,64.0,120.0,120.0,0.0,0.0
1137,80.0,0.0,120.0,0.0,0.0
1138,73.0,120.0,120.0,0.0,0.0
1139,61.0,0.0,120.0,0.0,0.0
1140,52.0,120.0,120.0,0.0,0.0
1141,68.0,0.0,120.0,0.0,0.0
1142,52.0,120.0,120.0,0.0,0.0
1143,68.0,0.0,120.0,0.0,0.0
1144,49.0,120.0,120.0,0.0,0.0
1145,61.0,0.0,120.0,0.0,0.0
1146,56.0,0.0,120.0,0.0,0.0
1147,40.0,120.0,120.0,0.0,0.0
1148,40.0,120.0,120.0,0.0,0.0
1149,56.0,0.0,120.0,0.0,0.0
1150,37.0,0.0,120.0,0.0,0.0
1151,49.0,120.0,120.0,0.0,0.0
1152,29.0,120.0,120.0,0.0,0.0
1153,47.0,0.0,120.0,0.0,0.0
1154,38.0,120.0,120.0,0.0,0.0
1155,50.0,0.0,120.0,0.0,0.0
1156,59.0,120.0,120.0,0.0,0.0
1157,41.0,0.0,120.0,0.0,0.0
1158,59.0,0.0,120.0,0.0,0.0
1159,41.0,120.0,120.0,0.0,0.0
1160,50.0,0.0,120.0,0.0,0.0
1161,62.0,120.0,120.0,0.0,0.0
1162,71.0,0.0,120.0,0.0,0.0
1163,53.0,120.0,120.0,0.0,0.0
1164,53.0,120.0,120.0,0.0,0.0
1165,71.0,0.0,120.0,0.0,0.0
1166,74.0,0.0,120.0,0.0,0.0
1167,62.0,120.0,120.0,0.0,0.0
1168,83.0,0.0,120.0,0.0,0.0
1169,65.0,120.0,120.0,0.0,0.0
1170,62.0,120.0,120.0,0.0,0.0
1171,74.0,0.0,120.0,0.0,0.0
1172,71.0,120.0,120.0,0.0,0.0
1173,53.0,0.0,120.0,0.0,0.0
1174,53.0,120.0,120.0,0.0,0.0
1175,71.0,0.0,120.0,0.0,0.0
1176,62.0,120.0,120.0,0.0,0.0
1177,50.0,0.0,120.0,0.0,0.0
1178,59.0,120.0,120.0,0.0,0.0
1179,41.0,0.0,120.0,0.0,0.0
1180,59.0,0.0,120.0,0.0,0.0
1181,41.0,120.0,120.0,0.0,0.0
1182,38.0,120.0,120.0,0.0,0.0
1183,50.0,0.0,120.0,0.0,0.0
1184,46.0,0.0,120.0,0.0,0.0
1185,30.0,120.0,120.0,0.0,0.0
1186,39.0,120.0,120.0,0.0,0.0
1187,51.0,0.0,120.0,0.0,0.0
1188,58.0,120.0,120.0,0.0,0.0
1189,42.0,0.0,120.0,0.0,0.0
1190,58.0,0.0,120.0,0.0,0.0
1191,42.0,120.0,120.0,0.0,0.0
1192,63.0,120.0,120.0,0.0,0.0
1193,51.0,0.0,120.0,0.0,0.0
1194,70.0,0.0,120.0,0.0,0.0
1195,54.0,120.0,120.0,0.0,0.0
1196,70.0,0.0,120.0,0.0,0.0
1197,54.0,120.0,120.0,0.0,0.0
1198,75.0,0.0,120.0,0.0,0.0
1199,63.0,120.0,120.0,0.0,0.0
1200,66.0,0.0,120.0,0.0,0.0
1201,82.0,120.0,120.0,0.0,0.0
1202,63.0,0.0,120.0,0.0,0.0
1203,75.0,120.0,120.0,0.0,0.0
1204,54.0,0.0,120.0,0.0,0.0
1205,70.0,120.0,120.0,0.0,0.0
1206,70.0,120.0,120.0,0.0,0.0
1207,54.0,0.0,120.0,0.0,0.0
1208,63.0,0.0,120.0,0.0,0.0
1209,51.0,120.0,120.0,0.0,0.0
1210,58.0,0.0,120.0,0.0,0.0
1211,42.0,120.0,120.0,0.0,0.0
1212,58.0,120.0,120.0,0.0,0.0
1213,42.0,0.0,120.0,0.0,0.0
1214,51.0,120.0,120.0,0.0,0.0
1215,39.0,0.0,120.0,0.0,0.0
1216,46.0,120.0,120.0,0.0,0.0
1217,31.0,0.0,120.0,0.0,0.0
1218,37.0,120.0,120.0,0.0,0.0
1219,52.0,0.0,120.0,0.0,0.0
1220,43.0,0.0,120.0,0.0,0.0
1221,58.0,120.0,120.0,0.0,0.0
1222,58.0,0.0,120.0,0.0,0.0
1223,43.0,120.0,120.0,0.0,0.0
1224,64.0,120.0,120.0,0.0,0.0
1225,49.0,0.0,120.0,0.0,0.0
1226,70.0,120.0,120.0,0.0,0.0
1227,55.0,0.0,120.0,0.0,0.0
1228,55.0,0.0,120.0,0.0,0.0
1229,70.0,120.0,120.0,0.0,0.0
1230,61.0,0.0,120.0,0.0,0.0
1231,76.0,120.0,120.0,0.0,0.0
1232,67.0,0.0,120.0,0.0,0.0
1233,82.0,120.0,120.0,0.0,0.0
1234,76.0,0.0,120.0,0.0,0.0
1235,61.0,120.0,120.0,0.0,0.0
1236,55.0,0.0,120.0,0.0,0.0
1237,70.0,120.0,120.0,0.0,0.0
1238,70.0,0.0,120.0,0.0,0.0
1239,55.0,120.0,120.0,0.0,0.0
1240,49.0,0.0,120.0,0.0,0.0
1241,64.0,120.0,120.0,0.0,0.0
1242,43.0,0.0,120.0,0.0,0.0
1243,58.0,120.0,120.0,0.0,0.0
1244,43.0,0.0,120.0,0.0,0.0
1245,58.0,120.0,120.0,0.0,0.0
1246,52.0,0.0,120.0,0.0,0.0
1247,37.0,120.0,120.0,0.0,0.0
1248,47.0,0.0,120.0,0.0,0.0
1249,32.0,120.0,120.0,0.0,0.0
1250,37.0,0.0,120.0,0.0,0.0
1251,52.0,120.0,120.0,0.0,0.0
1252,59.0,0.0,120.0,0.0,0.0
1253,44.0,120.0,120.0,0.0,0.0
1254,59.0,120.0,120.0,0.0,0.0
1255,44.0,0.0,120.0,0.0,0.0
1256,64.0,0.0,120.0,0.0,0.0
1257,49.0,120.0,120.0,0.0,0.0
1258,56.0,0.0,120.0,0.0,0.0
1259,71.0,120.0,120.0,0.0,0.0
1260,56.0,120.0,120.0,0.0,0.0
1261,71.0,0.0,120.0,0.0,0.0
1262,61.0,0.0,120.0,0.0,0.0
1263,76.0,120.0,120.0,0.0,0.0
1264,68.0,120.0,120.0,0.0,0.0
1265,83.0,0.0,120.0,0.0,0.0
1266,76.0,0.0,120.0,0.0,0.0
1267,61.0,120.0,120.0,0.0,0.0
1268,71.0,0.0,120.0,0.0,0.0
1269,56.0,120.0,120.0,0.0,0.0
1270,56.0,120.0,120.0,0.0,0.0
1271,71.0,0.0,120.0,0.0,0.0
1272,49.0,120.0,120.0,0.0,0.0
1273,64.0,0.0,120.0,0.0,0.0
1274,44.0,120.0,120.0,0.0,0.0
1275,59.0,0.0,120.0,0.0,0.0
1276,44.0,0.0,120.0,0.0,0.0
1277,59.0,120.0,120.0,0.0,0.0
1278,52.0,120.0,120.0,0.0,0.0
1279,37.0,0.0,120.0,0.0,0.0
1280,51.0,0.0,120.0,0.0,0.0
1281,35.0,120.0,120.0,0.0,0.0
1282,56.0,120.0,120.0,0.0,0.0
1283,40.0,0.0,120.0,0.0,0.0
1284,63.0,120.0,120.0,0.0,0.0
1285,47.0,0.0,120.0,0.0,0.0
1286,47.0,120.0,120.0,0.0,0.0
1287,63.0,0.0,120.0,0.0,0.0
1288,68.0,0.0,120.0,0.0,0.0
1289,52.0,120.0,120.0,0.0,0.0
1290,75.0,120.0,120.0,0.0,0.0
1291,59.0,0.0,120.0,0.0,0.0
1292,75.0,0.0,120.0,0.0,0.0
1293,59.0,120.0,120.0,0.0,0.0
1294,80.0,0.0,120.0,0.0,0.0
1295,64.0,120.0,120.0,0.0,0.0
1296,87.0,120.0,120.0,0.0,0.0
1297,71.0,0.0,120.0,0.0,0.0
1298,80.0,0.0,120.0,0.0,0.0
1299,64.0,120.0,120.0,0.0,0.0
1300,75.0,0.0,120.0,0.0,0.0
1301,59.0,120.0,120.0,0.0,0.0
1302,75.0,0.0,120.0,0.0,0.0
1303,59.0,120.0,120.0,0.0,0.0
1304,68.0,120.0,120.0,0.0,0.0
1305,52.0,0.0,120.0,0.0,0.0
1306,63.0,120.0,120.0,0.0,0.0
1307,47.0,0.0,120.0,0.0,0.0
1308,63.0,0.0,120.0,0.0,0.0
1309,47.0,120.0,120.0,0.0,0.0
1310,40.0,120.0,120.0,0.0,0.0
1311,56.0,0.0,120.0,0.0,0.0
1312,34.0,0.0,120.0,0.0,0.0
1313,49.0,120.0,120.0,0.0,0.0
1314,56.0,120.0,120.0,0.0,0.0
1315,40.0,0.0,120.0,0.0,0.0
1316,61.0,120.0,120.0,0.0,0.0
1317,46.0,0.0,120.0,0.0,0.0
1318,46.0,0.0,120.0,0.0,0.0
1319,61.0,120.0,120.0,0.0,0.0
1320,68.0,0.0,120.0,0.0,0.0
1321,52.0,120.0,120.0,0.0,0.0
1322,58.0,120.0,120.0,0.0,0.0
1323,73.0,0.0,120.0,0.0,0.0
1324,58.0,120.0,120.0,0.0,0.0
1325,73.0,0.0,120.0,0.0,0.0
1326,80.0,120.0,120.0,0.0,0.0
1327,64.0,0.0,120.0,0.0,0.0
1328,70.0,120.0,120.0,0.0,0.0
1329,85.0,0.0,120.0,0.0,0.0
1330,64.0,0.0,120.0,0.0,0.0
1331,79.0,120.0,120.0,0.0,0.0
1332,58.0,0.0,120.0,0.0,0.0
1333,73.0,120.0,120.0,0.0,0.0
1334,73.0,120.0,120.0,0.0,0.0
1335,58.0,0.0,120.0,0.0,0.0
1336,52.0,0.0,120.0,0.0,0.0
1337,67.0,120.0,120.0,0.0,0.0
1338,61.0,0.0,120.0,0.0,0.0
1339,46.0,120.0,120.0,0.0,0.0
1340,61.0,120.0,120.0,0.0,0.0
1341,46.0,0.0,120.0,0.0,0.0
1342,40.0,0.0,120.0,0.0,0.0
1343,55.0,120.0,120.0,0.0,0.0
1344,52.0,120.0,120.0,0.0,0.0
1345,39.0,0.0,120.0,0.0,0.0
1346,55.0,0.0,120.0,0.0,0.0
1347,46.0,120.0,120.0,0.0,0.0
1348,64.0,0.0,120.0,0.0,0.0
1349,49.0,120.0,120.0,0.0,0.0
1350,51.0,0.0,120.0,0.0,0.0
1351,64.0,120.0,120.0,0.0,0.0
1352,58.0,120.0,120.0,0.0,0.0
1353,67.0,0.0,120.0,0.0,0.0
1354,61.0,0.0,120.0,0.0,0.0
1355,76.0,120.0,120.0,0.0,0.0
1356,63.0,0.0,120.0,0.0,0.0
1357,76.0,120.0,120.0,0.0,0.0
1358,70.0,120.0,120.0,0.0,0.0
1359,79.0,0.0,120.0,0.0,0.0
1360,88.0,0.0,120.0,0.0,0.0
1361,73.0,120.0,120.0,0.0,0.0
1362,70.0,120.0,120.0,0.0,0.0
1363,79.0,0.0,120.0,0.0,0.0
1364,76.0,0.0,120.0,0.0,0.0
1365,63.0,120.0,120.0,0.0,0.0
1366,61.0,120.0,120.0,0.0,0.0
1367,76.0,0.0,120.0,0.0,0.0
1368,58.0,0.0,120.0,0.0,0.0
1369,67.0,120.0,120.0,0.0,0.0
1370,51.0,0.0,120.0,0.0,0.0
1371,64.0,120.0,120.0,0.0,0.0
1372,49.0,120.0,120.0,0.0,0.0
1373,64.0,0.0,120.0,0.0,0.0
1374,55.0,0.0,120.0,0.0,0.0
1375,46.0,120.0,120.0,0.0,0.0
1376,51.0,120.0,120.0,0.0,0.0
1377,39.0,0.0,120.0,0.0,0.0
1378,55.0,120.0,120.0,0.0,0.0
1379,46.0,0.0,120.0,0.0,0.0
1380,63.0,0.0,120.0,0.0,0.0
1381,49.0,120.0,120.0,0.0,0.0
1382,63.0,120.0,120.0,0.0,0.0
1383,51.0,0.0,120.0,0.0,0.0
1384,58.0,120.0,120.0,0.0,0.0
1385,67.0,0.0,120.0,0.0,0.0
1386,61.0,120.0,120.0,0.0,0.0
1387,75.0,0.0,120.0,0.0,0.0
1388,63.0,120.0,120.0,0.0,0.0
1389,75.0,0.0,120.0,0.0,0.0
1390,79.0,120.0,120.0,0.0,0.0
1391,70.0,0.0,120.0,0.0,0.0
1392,73.0,0.0,120.0,0.0,0.0
1393,87.0,120.0,120.0,0.0,0.0
1394,79.0,0.0,120.0,0.0,0.0
1395,70.0,120.0,120.0,0.0,0.0
1396,75.0,0.0,120.0,0.0,0.0
1397,63.0,120.0,120.0,0.0,0.0
1398,61.0,0.0,120.0,0.0,0.0
1399,75.0,120.0,120.0,0.0,0.0
1400,67.0,0.0,120.0,0.0,0.0
1401,58.0,120.0,120.0,0.0,0.0
1402,51.0,120.0,120.0,0.0,0.0
1403,63.0,0.0,120.0,0.0,0.0
1404,49.0,120.0,120.0,0.0,0.0
1405,63.0,0.0,120.0,0.0,0.0
1406,55.0,120.0,120.0,0.0,0.0
1407,46.0,0.0,120.0,0.0,0.0
1408,27.0,120.0,120.0,0.0,0.0
1409,39.0,0.0,120.0,0.0,0.0
1410,34.0,120.0,120.0,0.0,0.0
1411,43.0,0.0,120.0,0.0,0.0
1412,39.0,0.0,120.0,0.0,0.0
1413,51.0,120.0,120.0,0.0,0.0
1414,39.0,120.0,120.0,0.0,0.0
1415,51.0,0.0,120.0,0.0,0.0
1416,46.0,0.0,120.0,0.0,0.0
1417,55.0,120.0,120.0,0.0,0.0
1418,51.0,0.0,120.0,0.0,0.0
1419,63.0,120.0,120.0,0.0,0.0
1420,46.0,120.0,120.0,0.0,0.0
1421,55.0,0.0,120.0,0.0,0.0
1422,39.0,120.0,120.0,0.0,0.0
1423,51.0,0.0,120.0,0.0,0.0
1424,39.0,0.0,120.0,0.0,0.0
1425,28.0,120.0,120.0,0.0,0.0
1426,32.0,120.0,120.0,0.0,0.0
1427,44.0,0.0,120.0,0.0,0.0
1428,40.0,0.0,120.0,0.0,0.0
1429,51.0,120.0,120.0,0.0,0.0
1430,40.0,120.0,120.0,0.0,0.0
1431,51.0,0.0,120.0,0.0,0.0
1432,56.0,0.0,120.0,0.0,0.0
1433,44.0,120.0,120.0,0.0,0.0
1434,63.0,0.0,120.0,0.0,0.0
1435,52.0,120.0,120.0,0.0,0.0
1436,44.0,0.0,120.0,0.0,0.0
1437,56.0,120.0,120.0,0.0,0.0
1438,40.0,0.0,120.0,0.0,0.0
1439,51.0,120.0,120.0,0.0,0.0
1440,29.0,120.0,120.0,0.0,0.0
1441,39.0,0.0,120.0,0.0,0.0
1442,45.0,120.0,120.0,0.0,0.0
1443,33.0,0.0,120.0,0.0,0.0
1444,41.0,120.0,120.0,0.0,0.0
1445,51.0,0.0,120.0,0.0,0.0
1446,41.0,0.0,120.0,0.0,0.0
1447,51.0,120.0,120.0,0.0,0.0
1448,57.0,0.0,120.0,0.0,0.0
1449,45.0,120.0,120.0,0.0,0.0
1450,53.0,120.0,120.0,0.0,0.0
1451,63.0,0.0,120.0,0.0,0.0
1452,45.0,0.0,120.0,0.0,0.0
1453,57.0,120.0,120.0,0.0,0.0
1454,51.0,120.0,120.0,0.0,0.0
1455,41.0,0.0,120.0,0.0,0.0
1456,30.0,0.0,120.0,0.0,0.0
1457,39.0,120.0,120.0,0.0,0.0
1458,45.0,120.0,120.0,0.0,0.0
1459,33.0,0.0,120.0,0.0,0.0
1460,42.0,0.0,120.0,0.0,0.0
1461,51.0,120.0,120.0,0.0,0.0
1462,45.0,0.0,120.0,0.0,0.0
1463,33.0,120.0,120.0,0.0,0.0
1464,39.0,0.0,120.0,0.0,0.0
1465,31.0,120.0,120.0,0.0,0.0
1466,34.0,0.0,120.0,0.0,0.0
1467,46.0,120.0,120.0,0.0,0.0
1468,43.0,120.0,120.0,0.0,0.0
1469,51.0,0.0,120.0,0.0,0.0
1470,46.0,0.0,120.0,0.0,0.0
1471,34.0,120.0,120.0,0.0,0.0
1472,47.0,0.0,120.0,0.0,0.0
1473,32.0,120.0,120.0,0.0,0.0
1474,39.0,0.0,120.0,0.0,0.0
1475,51.0,120.0,120.0,0.0,0.0
1476,44.0,0.0,120.0,0.0,0.0
1477,59.0,120.0,120.0,0.0,0.0
1478,59.0,0.0,120.0,0.0,0.0
1479,44.0,120.0,120.0,0.0,0.0
1480,63.0,0.0,120.0,0.0,0.0
1481,51.0,120.0,120.0,0.0,0.0
1482,56.0,0.0,120.0,0.0,0.0
1483,71.0,120.0,120.0,0.0,0.0
1484,56.0,0.0,120.0,0.0,0.0
1485,71.0,120.0,120.0,0.0,0.0
1486,63.0,0.0,120.0,0.0,0.0
1487,75.0,120.0,120.0,0.0,0.0
1488,68.0,120.0,120.0,0.0,0.0
1489,83.0,0.0,120.0,0.0,0.0
1490,75.0,120.0,120.0,0.0,0.0
1491,63.0,0.0,120.0,0.0,0.0
1492,56.0,120.0,120.0,0.0,0.0
1493,71.0,0.0,120.0,0.0,0.0
1494,71.0,120.0,120.0,0.0,0.0
1495,56.0,0.0,120.0,0.0,0.0
1496,63.0,0.0,120.0,0.0,0.0
1497,51.0,120.0,120.0,0.0,0.0
1498,44.0,0.0,120.0,0.0,0.0
1499,59.0,120.0,120.0,0.0,0.0
1500,44.0,120.0,120.0,0.0,0.0
1501,59.0,0.0,120.0,0.0,0.0
1502,39.0,0.0,120.0,0.0,0.0
1503,51.0,120.0,120.0,0.0,0.0
1504,46.0,0.0,120.0,0.0,0.0
1505,32.0,120.0,120.0,0.0,0.0
1506,52.0,120.0,120.0,0.0,0.0
1507,37.0,0.0,120.0,0.0,0.0
1508,58.0,0.0,120.0,0.0,0.0
1509,44.0,120.0,120.0,0.0,0.0
1510,58.0,0.0,120.0,0.0,0.0
1511,44.0,120.0,120.0,0.0,0.0
1512,64.0,0.0,120.0,0.0,0.0
1513,49.0,120.0,120.0,0.0,0.0
1514,56.0,0.0,120.0,0.0,0.0
1515,70.0,120.0,120.0,0.0,0.0
1516,56.0,0.0,120.0,0.0,0.0
1517,70.0,120.0,120.0,0.0,0.0
1518,76.0,120.0,120.0,0.0,0.0
1519,61.0,0.0,120.0,0.0,0.0
1520,82.0,120.0,120.0,0.0,0.0
1521,68.0,0.0,120.0,0.0,0.0
1522,61.0,120.0,120.0,0.0,0.0
1523,76.0,0.0,120.0,0.0,0.0
1524,70.0,120.0,120.0,0.0,0.0
1525,56.0,0.0,120.0,0.0,0.0
1526,56.0,0.0,120.0,0.0,0.0
1527,70.0,120.0,120.0,0.0,0.0
1528,64.0,120.0,120.0,0.0,0.0
1529,49.0,0.0,120.0,0.0,0.0
1530,58.0,0.0,120.0,0.0,0.0
1531,44.0,120.0,120.0,0.0,0.0
1532,44.0,0.0,120.0,0.0,0.0
1533,58.0,120.0,120.0,0.0,0.0
1534,37.0,120.0,120.0,0.0,0.0
1535,52.0,0.0,120.0,0.0,0.0
1536,49.0,120.0,120.0,0.0,0.0
1537,32.0,0.0,120.0,0.0,0.0
1538,40.0,0.0,120.0,0.0,0.0
1539,56.0,120.0,120.0,0.0,0.0
1540,44.0,0.0,120.0,0.0,0.0
1541,61.0,120.0,120.0,0.0,0.0
1542,61.0,0.0,120.0,0.0,0.0
1543,44.0,120.0,120.0,0.0,0.0
1544,68.0,0.0,120.0,0.0,0.0
1545,52.0,120.0,120.0,0.0,0.0
1546,56.0,0.0,120.0,0.0,0.0
1547,73.0,120.0,120.0,0.0,0.0
1548,56.0,120.0,120.0,0.0,0.0
1549,73.0,0.0,120.0,0.0,0.0
1550,80.0,120.0,120.0,0.0,0.0
1551,64.0,0.0,120.0,0.0,0.0
1552,68.0,120.0,120.0,0.0,0.0
1553,85.0,0.0,120.0,0.0,0.0
1554,64.0,120.0,120.0,0.0,0.0
1555,80.0,0.0,120.0,0.0,0.0
1556,56.0,120.0,120.0,0.0,0.0
1557,73.0,0.0,120.0,0.0,0.0
1558,73.0,0.0,120.0,0.0,0.0
1559,56.0,120.0,120.0,0.0,0.0
1560,52.0,0.0,120.0,0.0,0.0
1561,68.0,120.0,120.0,0.0,0.0
1562,44.0,0.0,120.0,0.0,0.0
1563,61.0,120.0,120.0,0.0,0.0
1564,61.0,120.0,120.0,0.0,0.0
1565,44.0,0.0,120.0,0.0,0.0
1566,40.0,0.0,120.0,0.0,0.0
1567,56.0,120.0,120.0,0.0,0.0
1568,32.0,120.0,120.0,0.0,0.0
1569,47.0,0.0,120.0,0.0,0.0
1570,39.0,120.0,120.0,0.0,0.0
1571,51.0,0.0,120.0,0.0,0.0
1572,44.0,0.0,120.0,0.0,0.0
1573,59.0,120.0,120.0,0.0,0.0
1574,59.0,0.0,120.0,0.0,0.0
1575,44.0,120.0,120.0,0.0,0.0
1576,51.0,120.0,120.0,0.0,0.0
1577,63.0,0.0,120.0,0.0,0.0
1578,71.0,120.0,120.0,0.0,0.0
1579,56.0,0.0,120.0,0.0,0.0
1580,71.0,120.0,120.0,0.0,0.0
1581,56.0,0.0,120.0,0.0,0.0
1582,75.0,0.0,120.0,0.0,0.0
1583,63.0,120.0,120.0,0.0,0.0
1584,83.0,120.0,120.0,0.0,0.0
1585,68.0,0.0,120.0,0.0,0.0
1586,63.0,0.0,120.0,0.0,0.0
1587,75.0,120.0,120.0,0.0,0.0
1588,71.0,120.0,120.0,0.0,0.0
1589,56.0,0.0,120.0,0.0,0.0
1590,56.0,0.0,120.0,0.0,0.0
1591,71.0,120.0,120.0,0.0,0.0
1592,63.0,0.0,120.0,0.0,0.0
1593,51.0,120.0,120.0,0.0,0.0
1594,59.0,0.0,120.0,0.0,0.0
1595,44.0,120.0,120.0,0.0,0.0
1596,44.0,0.0,120.0,0.0,0.0
1597,59.0,120.0,120.0,0.0,0.0
1598,51.0,0.0,120.0,0.0,0.0
1599,39.0,120.0,120.0,0.0,0.0
1600,46.0,0.0,120.0,0.0,0.0
1601,32.0,120.0,120.0,0.0,0.0
1602,37.0,0.0,120.0,0.0,0.0
1603,52.0,120.0,120.0,0.0,0.0
1604,44.0,120.0,120.0,0.0,0.0
1605,58.0,0.0,120.0,0.0,0.0
1606,44.0,0.0,120.0,0.0,0.0
1607,58.0,120.0,120.0,0.0,0.0
1608,64.0,0.0,120.0,0.0,0.0
1609,49.0,120.0,120.0,0.0,0.0
1610,56.0,120.0,120.0,0.0,0.0
1611,70.0,0.0,120.0,0.0,0.0
1612,70.0,0.0,120.0,0.0,0.0
1613,56.0,120.0,120.0,0.0,0.0
1614,61.0,0.0,120.0,0.0,0.0
1615,76.0,120.0,120.0,0.0,0.0
1616,68.0,120.0,120.0,0.0,0.0
1617,82.0,0.0,120.0,0.0,0.0
1618,61.0,0.0,120.0,0.0,0.0
1619,76.0,120.0,120.0,0.0,0.0
1620,56.0,0.0,120.0,0.0,0.0
1621,70.0,120.0,120.0,0.0,0.0
1622,56.0,0.0,120.0,0.0,0.0
1623,70.0,120.0,120.0,0.0,0.0
1624,49.0,0.0,120.0,0.0,0.0
1625,64.0,120.0,120.0,0.0,0.0
1626,44.0,0.0,120.0,0.0,0.0
1627,58.0,120.0,120.0,0.0,0.0
1628,44.0,120.0,120.0,0.0,0.0
1629,58.0,0.0,120.0,0.0,0.0
1630,37.0,120.0,120.0,0.0,0.0
1631,52.0,0.0,120.0,0.0,0.0
1632,47.0,0.0,120.0,0.0,0.0
1633,32.0,120.0,120.0,0.0,0.0
1634,37.0,120.0,120.0,0.0,0.0
1635,52.0,0.0,120.0,0.0,0.0
1636,43.0,0.0,120.0,0.0,0.0
1637,59.0,120.0,120.0,0.0,0.0
1638,59.0,120.0,120.0,0.0,0.0
1639,44.0,0.0,120.0,0.0,0.0
1640,52.0,120.0,120.0,0.0,0.0
1641,64.0,0.0,120.0,0.0,0.0
1642,71.0,0.0,120.0,0.0,0.0
1643,55.0,120.0,120.0,0.0,0.0
1644,56.0,120.0,120.0,0.0,0.0
1645,71.0,0.0,120.0,0.0,0.0
1646,76.0,0.0,120.0,0.0,0.0
1647,61.0,120.0,120.0,0.0,0.0
1648,83.0,0.0,120.0,0.0,0.0
1649,67.0,120.0,120.0,0.0,0.0
1650,76.0,120.0,120.0,0.0,0.0
1651,61.0,0.0,120.0,0.0,0.0
1652,56.0,120.0,120.0,0.0,0.0
1653,71.0,0.0,120.0,0.0,0.0
1654,71.0,120.0,120.0,0.0,0.0
1655,55.0,0.0,120.0,0.0,0.0
1656,49.0,120.0,120.0,0.0,0.0
1657,64.0,0.0,120.0,0.0,0.0
1658,44.0,0.0,120.0,0.0,0.0
1659,59.0,120.0,120.0,0.0,0.0
1660,59.0,120.0,120.0,0.0,0.0
1661,43.0,0.0,120.0,0.0,0.0
1662,37.0,0.0,120.0,0.0,0.0
1663,52.0,120.0,120.0,0.0,0.0
1664,32.0,0.0,120.0,0.0,0.0
1665,44.0,120.0,120.0,0.0,0.0
1666,39.0,120.0,120.0,0.0,0.0
1667,47.0,0.0,120.0,0.0,0.0
1668,56.0,120.0,120.0,0.0,0.0
1669,44.0,0.0,120.0,0.0,0.0
1670,44.0,0.0,120.0,0.0,0.0
1671,56.0,120.0,120.0,0.0,0.0
1672,51.0,120.0,120.0,0.0,0.0
1673,59.0,0.0,120.0,0.0,0.0
1674,68.0,119.0,480.0,0.0,0.0
1675,56.0,120.0,120.0,0.0,0.0
1676,59.0,0.0,120.0,0.0,0.0
1677,51.0,120.0,120.0,0.0,0.0
1678,44.0,0.0,120.0,0.0,0.0
1679,56.0,120.0,120.0,0.0,0.0
1680,51.0,1.0,120.0,0.0,0.0
1681,59.0,0.0,120.0,0.0,0.0
1682,56.0,120.0,120.0,0.0,0.0
1683,66.0,119.0,480.0,0.0,0.0
1684,51.0,120.0,120.0,0.0,0.0
1685,59.0,0.0,120.0,0.0,0.0
1686,56.0,0.0,120.0,0.0,0.0
1687,44.0,120.0,120.0,0.0,0.0
1688,59.0,1.0,120.0,0.0,0.0
1689,51.0,0.0,120.0,0.0,0.0
1690,56.0,120.0,120.0,0.0,0.0
1691,64.0,119.0,480.0,0.0,0.0
1692,51.0,0.0,120.0,0.0,0.0
1693,59.0,120.0,120.0,0.0,0.0
1694,44.0,120.0,120.0,0.0,0.0
1695,56.0,0.0,120.0,0.0,0.0
1696,51.0,1.0,120.0,0.0,0.0
1697,58.0,0.0,120.0,0.0,0.0
1698,55.0,120.0,120.0,0.0,0.0
1699,51.0,120.0,120.0,0.0,0.0
1700,58.0,0.0,120.0,0.0,0.0
1701,55.0,0.0,120.0,0.0,0.0
1702,44.0,120.0,120.0,0.0,0.0
1703,57.0,1.0,120.0,0.0,0.0
1704,51.0,0.0,120.0,0.0,0.0
1705,54.0,120.0,120.0,0.0,0.0
1706,63.0,119.0,15.0,0.0,0.0
1707,51.0,0.0,120.0,0.0,0.0
1708,57.0,120.0,120.0,0.0,0.0
1709,44.0,0.0,120.0,0.0,0.0
1710,54.0,120.0,120.0,0.0,0.0
1711,49.0,1.0,120.0,0.0,0.0
1712,56.0,0.0,120.0,0.0,0.0
1713,53.0,120.0,120.0,0.0,0.0
1714,61.0,119.0,480.0,0.0,0.0
1715,49.0,120.0,120.0,0.0,0.0
1716,56.0,0.0,120.0,0.0,0.0
1717,53.0,0.0,120.0,0.0,0.0
1718,44.0,120.0,120.0,0.0,0.0
1719,55.0,0.0,120.0,0.0,0.0
1720,49.0,1.0,120.0,0.0,0.0
1721,61.0,119.0,480.0,0.0,0.0
1722,52.0,120.0,120.0,0.0,0.0
1723,49.0,0.0,120.0,0.0,0.0
1724,55.0,120.0,120.0,0.0,0.0
1725,52.0,0.0,120.0,0.0,0.0
1726,44.0,120.0,120.0,0.0,0.0
1727,47.0,0.0,120.0,0.0,0.0
1728,32.0,1.0,120.0,0.0,0.0
1729,39.0,0.0,120.0,0.0,0.0
1730,51.0,120.0,120.0,0.0,0.0
1731,59.0,0.0,120.0,0.0,0.0
1732,44.0,120.0,120.0,0.0,0.0
1733,44.0,0.0,120.0,0.0,0.0
1734,59.0,120.0,120.0,0.0,0.0
1735,51.0,0.0,120.0,0.0,0.0
1736,63.0,120.0,120.0,0.0,0.0
1737,71.0,120.0,120.0,0.0,0.0
1738,56.0,0.0,120.0,0.0,0.0
1739,56.0,0.0,120.0,0.0,0.0
1740,71.0,120.0,120.0,0.0,0.0
1741,63.0,0.0,120.0,0.0,0.0
1742,75.0,120.0,120.0,0.0,0.0
1743,83.0,0.0,120.0,0.0,0.0
1744,68.0,120.0,120.0,0.0,0.0
1745,63.0,0.0,120.0,0.0,0.0
1746,75.0,120.0,120.0,0.0,0.0
1747,56.0,0.0,120.0,0.0,0.0
1748,71.0,120.0,120.0,0.0,0.0
1749,56.0,0.0,120.0,0.0,0.0
1750,71.0,120.0,120.0,0.0,0.0
1751,51.0,0.0,120.0,0.0,0.0
1752,63.0,120.0,120.0,0.0,0.0
1753,59.0,120.0,120.0,0.0,0.0
1754,44.0,0.0,120.0,0.0,0.0
1755,59.0,0.0,120.0,0.0,0.0
1756,44.0,120.0,120.0,0.0,0.0
1757,39.0,120.0,120.0,0.0,0.0
1758,51.0,0.0,120.0,0.0,0.0
1759,46.0,120.0,120.0,0.0,0.0
1760,32.0,0.0,120.0,0.0,0.0
1761,37.0,0.0,120.0,0.0,0.0
1762,52.0,120.0,120.0,0.0,0.0
1763,44.0,0.0,120.0,0.0,0.0
1764,58.0,120.0,120.0,0.0,0.0
1765,58.0,0.0,120.0,0.0,0.0
1766,44.0,120.0,120.0,0.0,0.0
1767,64.0,0.0,120.0,0.0,0.0
1768,49.0,120.0,120.0,0.0,0.0
1769,56.0,0.0,120.0,0.0,0.0
1770,70.0,120.0,120.0,0.0,0.0
1771,70.0,120.0,120.0,0.0,0.0
1772,56.0,0.0,120.0,0.0,0.0
1773,61.0,0.0,120.0,0.0,0.0
1774,76.0,120.0,120.0,0.0,0.0
1775,68.0,0.0,120.0,0.0,0.0
1776,82.0,120.0,120.0,0.0,0.0
1777,76.0,0.0,120.0,0.0,0.0
1778,61.0,120.0,120.0,0.0,0.0
1779,70.0,0.0,120.0,0.0,0.0
1780,56.0,120.0,120.0,0.0,0.0
1781,70.0,120.0,120.0,0.0,0.0
1782,56.0,0.0,120.0,0.0,0.0
1783,64.0,0.0,120.0,0.0,0.0
1784,49.0,120.0,120.0,0.0,0.0
1785,58.0,120.0,120.0,0.0,0.0
1786,44.0,0.0,120.0,0.0,0.0
1787,58.0,0.0,120.0,0.0,0.0
1788,44.0,120.0,120.0,0.0,0.0
1789,37.0,0.0,120.0,0.0,0.0
1790,52.0,120.0,120.0,0.0,0.0
1791,32.0,0.0,120.0,0.0,0.0
1792,48.0,120.0,120.0,0.0,0.0
1793,39.0,120.0,120.0,0.0,0.0
1794,54.0,0.0,120.0,0.0,0.0
1795,44.0,120.0,120.0,0.0,0.0
1796,60.0,0.0,120.0,0.0,0.0
1797,44.0,0.0,120.0,0.0,0.0
1798,60.0,120.0,120.0,0.0,0.0
1799,51.0,120.0,120.0,0.0,0.0
1800,66.0,0.0,120.0,0.0,0.0
1801,56.0,120.0,120.0,0.0,0.0
1802,72.0,0.0,120.0,0.0,0.0
1803,56.0,0.0,120.0,0.0,0.0
1804,72.0,120.0,120.0,0.0,0.0
1805,78.0,0.0,120.0,0.0,0.0
1806,63.0,120.0,120.0,0.0,0.0
1807,68.0,120.0,120.0,0.0,0.0
1808,84.0,0.0,120.0,0.0,0.0
1809,63.0,120.0,120.0,0.0,0.0
1810,78.0,0.0,120.0,0.0,0.0
1811,56.0,0.0,120.0,0.0,0.0
1812,72.0,120.0,120.0,0.0,0.0
1813,56.0,0.0,120.0,0.0,0.0
1814,72.0,120.0,120.0,0.0,0.0
1815,66.0,0.0,120.0,0.0,0.0
1816,51.0,120.0,120.0,0.0,0.0
1817,60.0,0.0,120.0,0.0,0.0
1818,44.0,120.0,120.0,0.0,0.0
1819,60.0,0.0,120.0,0.0,0.0
1820,44.0,240.0,120.0,0.0,0.0
1821,39.0,119.0,240.0,0.0,0.0
1822,55.0,0.0,240.0,0.0,0.0
1823,49.0,1.0,120.0,0.0,0.0
1824,33.0,0.0,120.0,0.0,0.0
1825,40.0,0.0,120.0,0.0,0.0
1826,52.0,120.0,120.0,0.0,0.0
1827,45.0,0.0,120.0,0.0,0.0
1828,61.0,120.0,120.0,0.0,0.0
1829,61.0,0.0,120.0,0.0,0.0
1830,45.0,120.0,120.0,0.0,0.0
1831,52.0,120.0,120.0,0.0,0.0
1832,64.0,0.0,120.0,0.0,0.0
1833,73.0,0.0,120.0,0.0,0.0
1834,57.0,120.0,120.0,0.0,0.0
1835,57.0,0.0,120.0,0.0,0.0
1836,73.0,120.0,120.0,0.0,0.0
1837,64.0,120.0,120.0,0.0,0.0
1838,76.0,0.0,120.0,0.0,0.0
1839,85.0,0.0,120.0,0.0,0.0
1840,69.0,120.0,120.0,0.0,0.0
1841,76.0,120.0,120.0,0.0,0.0
1842,64.0,0.0,120.0,0.0,0.0
1843,57.0,120.0,120.0,0.0,0.0
1844,73.0,0.0,120.0,0.0,0.0
1845,57.0,120.0,120.0,0.0,0.0
1846,73.0,0.0,120.0,0.0,0.0
1847,64.0,120.0,120.0,0.0,0.0
1848,52.0,0.0,120.0,0.0,0.0
1849,61.0,0.0,120.0,0.0,0.0
1850,45.0,120.0,120.0,0.0,0.0
1851,45.0,120.0,120.0,0.0,0.0
1852,61.0,0.0,120.0,0.0,0.0
1853,52.0,0.0,120.0,0.0,0.0
1854,40.0,120.0,120.0,0.0,0.0
1855,33.0,120.0,120.0,0.0,0.0
1856,49.0,0.0,120.0,0.0,0.0
1857,52.0,0.0,120.0,0.0,0.0
1858,40.0,120.0,120.0,0.0,0.0
1859,45.0,0.0,120.0,0.0,0.0
1860,61.0,120.0,120.0,0.0,0.0
1861,45.0,120.0,120.0,0.0,0.0
1862,61.0,0.0,120.0,0.0,0.0
1863,64.0,120.0,120.0,0.0,0.0
1864,52.0,0.0,120.0,0.0,0.0
1865,73.0,0.0,120.0,0.0,0.0
1866,57.0,120.0,120.0,0.0,0.0
1867,73.0,120.0,120.0,0.0,0.0
1868,57.0,0.0,120.0,0.0,0.0
1869,64.0,0.0,120.0,0.0,0.0
1870,76.0,120.0,120.0,0.0,0.0
1871,69.0,0.0,120.0,0.0,0.0
1872,85.0,120.0,120.0,0.0,0.0
1873,64.0,120.0,120.0,0.0,0.0
1874,76.0,0.0,120.0,0.0,0.0
1875,73.0,0.0,120.0,0.0,0.0
1876,57.0,120.0,120.0,0.0,0.0
1877,73.0,0.0,120.0,0.0,0.0
1878,57.0,120.0,120.0,0.0,0.0
1879,52.0,0.0,120.0,0.0,0.0
1880,64.0,120.0,120.0,0.0,0.0
1881,45.0,120.0,120.0,0.0,0.0
1882,61.0,0.0,120.0,0.0,0.0
1883,45.0,120.0,120.0,0.0,0.0
1884,61.0,0.0,120.0,0.0,0.0
1885,40.0,0.0,120.0,0.0,0.0
1886,52.0,120.0,120.0,0.0,0.0
1887,48.0,120.0,120.0,0.0,0.0
1888,33.0,0.0,120.0,0.0,0.0
1889,54.0,0.0,120.0,0.0,0.0
1890,39.0,120.0,120.0,0.0,0.0
1891,45.0,120.0,120.0,0.0,0.0
1892,60.0,0.0,120.0,0.0,0.0
1893,45.0,0.0,120.0,0.0,0.0
1894,60.0,120.0,120.0,0.0,0.0
1895,66.0,120.0,120.0,0.0,0.0
1896,51.0,0.0,120.0,0.0,0.0
1897,57.0,120.0,120.0,0.0,0.0
1898,72.0,0.0,120.0,0.0,0.0
1899,72.0,0.0,120.0,0.0,0.0
1900,57.0,120.0,120.0,0.0,0.0
1901,63.0,0.0,120.0,0.0,0.0
1902,78.0,120.0,120.0,0.0,0.0
1903,84.0,0.0,120.0,0.0,0.0
1904,69.0,120.0,120.0,0.0,0.0
1905,78.0,0.0,120.0,0.0,0.0
1906,63.0,120.0,120.0,0.0,0.0
1907,72.0,0.0,120.0,0.0,0.0
1908,57.0,120.0,120.0,0.0,0.0
1909,57.0,0.0,120.0,0.0,0.0
1910,72.0,120.0,120.0,0.0,0.0
1911,51.0,120.0,120.0,0.0,0.0
1912,66.0,0.0,120.0,0.0,0.0
1913,45.0,0.0,120.0,0.0,0.0
1914,60.0,120.0,120.0,0.0,0.0
1915,60.0,120.0,120.0,0.0,0.0
1916,45.0,0.0,120.0,0.0,0.0
1917,54.0,0.0,120.0,0.0,0.0
1918,39.0,120.0,120.0,0.0,0.0
1919,49.0,0.0,120.0,0.0,0.0
1920,33.0,120.0,120.0,0.0,0.0
1921,40.0,0.0,120.0,0.0,0.0
1922,55.0,120.0,120.0,0.0,0.0
1923,45.0,0.0,120.0,0.0,0.0
1924,61.0,120.0,120.0,0.0,0.0
1925,45.0,120.0,120.0,0.0,0.0
1926,61.0,0.0,120.0,0.0,0.0
1927,67.0,120.0,120.0,0.0,0.0
1928,52.0,0.0,120.0,0.0,0.0
1929,73.0,0.0,120.0,0.0,0.0
1930,57.0,120.0,120.0,0.0,0.0
1931,73.0,0.0,120.0,0.0,0.0
1932,57.0,120.0,120.0,0.0,0.0
1933,64.0,120.0,120.0,0.0,0.0
1934,79.0,0.0,120.0,0.0,0.0
1935,85.0,0.0,120.0,0.0,0.0
1936,69.0,120.0,120.0,0.0,0.0
1937,79.0,120.0,120.0,0.0,0.0
1938,64.0,0.0,120.0,0.0,0.0
1939,73.0,120.0,120.0,0.0,0.0
1940,57.0,0.0,120.0,0.0,0.0
1941,57.0,120.0,120.0,0.0,0.0
1942,73.0,0.0,120.0,0.0,0.0
1943,52.0,0.0,120.0,0.0,0.0
1944,67.0,120.0,120.0,0.0,0.0
1945,61.0,0.0,120.0,0.0,0.0
1946,45.0,120.0,120.0,0.0,0.0
1947,45.0,0.0,120.0,0.0,0.0
1948,61.0,120.0,120.0,0.0,0.0
1949,40.0,119.0,240.0,0.0,0.0
1950,55.0,120.0,120.0,0.0,0.0
1951,34.0,1.0,120.0,0.0,0.0
1952,51.0,0.0,120.0,0.0,0.0
1953,55.0,0.0,120.0,0.0,0.0
1954,39.0,120.0,120.0,0.0,0.0
1955,46.0,0.0,120.0,0.0,0.0
1956,63.0,120.0,120.0,0.0,0.0
1957,46.0,0.0,120.0,0.0,0.0
1958,63.0,120.0,120.0,0.0,0.0
1959,51.0,0.0,120.0,0.0,0.0
1960,67.0,120.0,120.0,0.0,0.0
1961,75.0,0.0,120.0,0.0,0.0
1962,58.0,120.0,120.0,0.0,0.0
1963,67.0,0.0,120.0,0.0,0.0
1964,51.0,120.0,120.0,0.0,0.0
1965,46.0,0.0,120.0,0.0,0.0
1966,63.0,120.0,120.0,0.0,0.0
1967,52.0,120.0,120.0,0.0,0.0
1968,34.0,0.0,120.0,0.0,0.0
1969,37.0,0.0,120.0,0.0,0.0
1970,55.0,120.0,120.0,0.0,0.0
1971,46.0,0.0,120.0,0.0,0.0
1972,64.0,120.0,120.0,0.0,0.0
1973,64.0,0.0,120.0,0.0,0.0
1974,46.0,120.0,120.0,0.0,0.0
1975,49.0,0.0,120.0,0.0,0.0
1976,67.0,120.0,120.0,0.0,0.0
1977,58.0,0.0,120.0,0.0,0.0
1978,76.0,120.0,120.0,0.0,0.0
1979,67.0,0.0,120.0,0.0,0.0
1980,49.0,120.0,120.0,0.0,0.0
1981,64.0,120.0,120.0,0.0,0.0
1982,46.0,0.0,120.0,0.0,0.0
1983,51.0,120.0,120.0,0.0,0.0
1984,35.0,0.0,120.0,0.0,0.0
1985,56.0,0.0,120.0,0.0,0.0
1986,44.0,120.0,120.0,0.0,0.0
1987,47.0,120.0,120.0,0.0,0.0
1988,63.0,0.0,120.0,0.0,0.0
1989,47.0,120.0,120.0,0.0,0.0
1990,63.0,0.0,120.0,0.0,0.0
1991,68.0,120.0,120.0,0.0,0.0
1992,56.0,0.0,120.0,0.0,0.0
1993,75.0,0.0,120.0,0.0,0.0
1994,59.0,120.0,120.0,0.0,0.0
1995,59.0,0.0,120.0,0.0,0.0
1996,75.0,120.0,120.0,0.0,0.0
1997,68.0,120.0,120.0,0.0,0.0
1998,80.0,0.0,120.0,0.0,0.0
1999,71.0,0.0,120.0,0.0,0.0
2000,87.0,120.0,120.0,0.0,0.0
2001,80.0,120.0,120.0,0.0,0.0
2002,68.0,0.0,120.0,0.0,0.0
2003,59.0,120.0,120.0,0.0,0.0
2004,75.0,0.0,120.0,0.0,0.0
2005,59.0,120.0,120.0,0.0,0.0
2006,75.0,0.0,120.0,0.0,0.0
2007,56.0,120.0,120.0,0.0,0.0
2008,68.0,0.0,120.0,0.0,0.0
2009,63.0,0.0,120.0,0.0,0.0
2010,47.0,120.0,120.0,0.0,0.0
2011,47.0,0.0,120.0,0.0,0.0
2012,63.0,119.0,120.0,0.0,0.0
2013,44.0,120.0,120.0,0.0,0.0
2014,56.0,1.0,120.0,0.0,0.0
2015,36.0,120.0,120.0,0.0,0.0
2016,56.0,0.0,120.0,0.0,0.0
2017,44.0,120.0,120.0,0.0,0.0
2018,63.0,0.0,120.0,0.0,0.0
2019,48.0,120.0,120.0,0.0,0.0
2020,68.0,0.0,120.0,0.0,0.0
2021,68.0,0.0,120.0,0.0,0.0
2022,48.0,120.0,120.0,0.0,0.0
2023,75.0,0.0,120.0,0.0,0.0
2024,56.0,120.0,120.0,0.0,0.0
2025,80.0,120.0,120.0,0.0,0.0
2026,60.0,0.0,120.0,0.0,0.0
2027,80.0,0.0,120.0,0.0,0.0
2028,60.0,120.0,120.0,0.0,0.0
2029,87.0,0.0,120.0,0.0,0.0
2030,68.0,120.0,120.0,0.0,0.0
2031,72.0,120.0,120.0,0.0,0.0
2032,92.0,0.0,120.0,0.0,0.0
2033,87.0,0.0,120.0,0.0,0.0
2034,68.0,120.0,120.0,0.0,0.0
2035,80.0,0.0,120.0,0.0,0.0
2036,60.0,120.0,120.0,0.0,0.0
2037,80.0,0.0,120.0,0.0,0.0
2038,60.0,120.0,120.0,0.0,0.0
2039,75.0,0.0,120.0,0.0,0.0
2040,56.0,120.0,120.0,0.0,0.0
2041,48.0,120.0,120.0,0.0,0.0
2042,68.0,0.0,120.0,0.0,0.0
2043,48.0,0.0,120.0,0.0,0.0
2044,68.0,120.0,120.0,0.0,0.0
2045,44.0,120.0,120.0,0.0,0.0
2046,63.0,0.0,120.0,0.0,0.0
2047,54.0,0.0,120.0,0.0,0.0
2048,37.0,120.0,120.0,0.0,0.0
2049,56.0,120.0,120.0,0.0,0.0
2050,44.0,0.0,120.0,0.0,0.0
2051,66.0,0.0,120.0,0.0,0.0
2052,49.0,120.0,120.0,0.0,0.0
2053,66.0,120.0,120.0,0.0,0.0
2054,49.0,0.0,120.0,0.0,0.0
2055,68.0,0.0,120.0,0.0,0.0
2056,56.0,120.0,120.0,0.0,0.0
2057,78.0,0.0,120.0,0.0,0.0
2058,61.0,120.0,120.0,0.0,0.0
2059,68.0,0.0,120.0,0.0,0.0
2060,56.0,120.0,120.0,0.0,0.0
2061,49.0,0.0,120.0,0.0,0.0
2062,66.0,120.0,120.0,0.0,0.0
2063,37.0,0.0,120.0,0.0,0.0
2064,52.0,120.0,120.0,0.0,0.0
2065,44.0,0.0,120.0,0.0,0.0
2066,56.0,120.0,120.0,0.0,0.0
2067,49.0,0.0,120.0,0.0,0.0
2068,64.0,120.0,120.0,0.0,0.0
2069,49.0,0.0,120.0,0.0,0.0
2070,64.0,120.0,120.0,0.0,0.0
2071,56.0,0.0,120.0,0.0,0.0
2072,68.0,120.0,120.0,0.0,0.0
2073,61.0,120.0,120.0,0.0,0.0
2074,76.0,0.0,120.0,0.0,0.0
2075,68.0,119.0,120.0,0.0,0.0
2076,56.0,0.0,120.0,0.0,0.0
2077,49.0,1.0,120.0,0.0,0.0
2078,64.0,120.0,120.0,0.0,0.0
2079,49.0,0.0,120.0,0.0,0.0
2080,37.0,120.0,120.0,0.0,0.0
2081,44.0,0.0,120.0,0.0,0.0
2082,52.0,120.0,120.0,0.0,0.0
2083,49.0,0.0,120.0,0.0,0.0
2084,61.0,120.0,120.0,0.0,0.0
2085,49.0,0.0,120.0,0.0,0.0
2086,61.0,120.0,120.0,0.0,0.0
2087,56.0,120.0,120.0,0.0,0.0
2088,64.0,0.0,120.0,0.0,0.0
2089,73.0,0.0,120.0,0.0,0.0
2090,61.0,120.0,120.0,0.0,0.0
2091,64.0,0.0,120.0,0.0,0.0
2092,56.0,120.0,120.0,0.0,0.0
2093,49.0,0.0,120.0,0.0,0.0
2094,61.0,120.0,120.0,0.0,0.0
2095,46.0,0.0,120.0,0.0,0.0
2096,37.0,120.0,120.0,0.0,0.0
2097,52.0,0.0,120.0,0.0,0.0
2098,44.0,120.0,120.0,0.0,0.0
2099,49.0,120.0,120.0,0.0,0.0
2100,58.0,0.0,120.0,0.0,0.0
2101,49.0,0.0,120.0,0.0,0.0
2102,58.0,120.0,120.0,0.0,0.0
2103,56.0,120.0,120.0,0.0,0.0
2104,64.0,0.0,120.0,0.0,0.0
2105,70.0,0.0,120.0,0.0,0.0
2106,61.0,120.0,120.0,0.0,0.0
2107,64.0,120.0,120.0,0.0,0.0
2108,56.0,0.0,120.0,0.0,0.0
2109,58.0,120.0,120.0,0.0,0.0
2110,49.0,0.0,120.0,0.0,0.0
2111,39.0,120.0,120.0,0.0,0.0
2112,51.0,0.0,120.0,0.0,0.0
2113,56.0,120.0,120.0,0.0,0.0
2114,47.0,0.0,120.0,0.0,0.0
2115,51.0,0.0,120.0,0.0,0.0
2116,63.0,120.0,120.0,0.0,0.0
2117,63.0,0.0,120.0,0.0,0.0
2118,51.0,120.0,120.0,0.0,0.0
2119,59.0,120.0,120.0,0.0,0.0
2120,68.0,0.0,120.0,0.0,0.0
2121,63.0,120.0,120.0,0.0,0.0
2122,75.0,0.0,120.0,0.0,0.0
2123,75.0,0.0,120.0,0.0,0.0
2124,63.0,120.0,120.0,0.0,0.0
2125,80.0,120.0,120.0,0.0,0.0
2126,71.0,0.0,120.0,0.0,0.0
2127,75.0,0.0,120.0,0.0,0.0
2128,87.0,120.0,120.0,0.0,0.0
2129,80.0,120.0,120.0,0.0,0.0
2130,71.0,0.0,120.0,0.0,0.0
2131,75.0,0.0,120.0,0.0,0.0
2132,63.0,120.0,120.0,0.0,0.0
2133,75.0,0.0,120.0,0.0,0.0
2134,63.0,120.0,120.0,0.0,0.0
2135,68.0,0.0,120.0,0.0,0.0
2136,59.0,120.0,120.0,0.0,0.0
2137,63.0,120.0,120.0,0.0,0.0
2138,51.0,0.0,120.0,0.0,0.0
2139,51.0,0.0,120.0,0.0,0.0
2140,63.0,120.0,120.0,0.0,0.0
2141,56.0,0.0,120.0,0.0,0.0
2142,47.0,120.0,120.0,0.0,0.0
2143,39.0,120.0,120.0,0.0,0.0
2144,52.0,0.0,120.0,0.0,0.0
2145,47.0,120.0,120.0,0.0,0.0
2146,56.0,0.0,120.0,0.0,0.0
2147,64.0,120.0,120.0,0.0,0.0
2148,51.0,0.0,120.0,0.0,0.0
2149,51.0,0.0,120.0,0.0,0.0
2150,64.0,120.0,120.0,0.0,0.0
2151,68.0,0.0,120.0,0.0,0.0
2152,59.0,120.0,120.0,0.0,0.0
2153,76.0,0.0,120.0,0.0,0.0
2154,63.0,120.0,120.0,0.0,0.0
2155,76.0,120.0,120.0,0.0,0.0
2156,63.0,0.0,120.0,0.0,0.0
2157,71.0,120.0,120.0,0.0,0.0
2158,80.0,0.0,120.0,0.0,0.0
2159,88.0,0.0,120.0,0.0,0.0
2160,75.0,120.0,120.0,0.0,0.0
2161,71.0,120.0,120.0,0.0,0.0
2162,80.0,0.0,120.0,0.0,0.0
2163,63.0,0.0,120.0,0.0,0.0
2164,76.0,120.0,120.0,0.0,0.0
2165,63.0,120.0,120.0,0.0,0.0
2166,76.0,0.0,120.0,0.0,0.0
2167,59.0,0.0,120.0,0.0,0.0
2168,68.0,120.0,120.0,0.0,0.0
2169,51.0,0.0,120.0,0.0,0.0
2170,64.0,120.0,120.0,0.0,0.0
2171,51.0,0.0,120.0,0.0,0.0
2172,64.0,120.0,120.0,0.0,0.0
2173,47.0,0.0,120.0,0.0,0.0
2174,56.0,120.0,120.0,0.0,0.0
2175,39.0,0.0,120.0,0.0,0.0
2176,52.0,120.0,120.0,0.0,0.0
2177,46.0,120.0,120.0,0.0,0.0
2178,55.0,0.0,120.0,0.0,0.0
2179,49.0,120.0,120.0,0.0,0.0
2180,64.0,0.0,120.0,0.0,0.0
2181,51.0,0.0,120.0,0.0,0.0
2182,64.0,120.0,120.0,0.0,0.0
2183,67.0,120.0,120.0,0.0,0.0
2184,58.0,0.0,120.0,0.0,0.0
2185,61.0,0.0,120.0,0.0,0.0
2186,76.0,120.0,120.0,0.0,0.0
2187,76.0,120.0,120.0,0.0,0.0
2188,63.0,0.0,120.0,0.0,0.0
2189,79.0,0.0,120.0,0.0,0.0
2190,70.0,120.0,120.0,0.0,0.0
2191,73.0,0.0,120.0,0.0,0.0
2192,88.0,120.0,120.0,0.0,0.0
2193,79.0,120.0,120.0,0.0,0.0
2194,70.0,0.0,120.0,0.0,0.0
2195,76.0,120.0,120.0,0.0,0.0
2196,63.0,0.0,120.0,0.0,0.0
2197,76.0,0.0,120.0,0.0,0.0
2198,61.0,120.0,120.0,0.0,0.0
2199,67.0,0.0,120.0,0.0,0.0
2200,58.0,120.0,120.0,0.0,0.0
2201,51.0,0.0,120.0,0.0,0.0
2202,64.0,120.0,120.0,0.0,0.0
2203,49.0,0.0,120.0,0.0,0.0
2204,64.0,120.0,120.0,0.0,0.0
2205,46.0,120.0,120.0,0.0,0.0
2206,55.0,0.0,120.0,0.0,0.0
2207,39.0,120.0,120.0,0.0,0.0
2208,51.0,0.0,120.0,0.0,0.0
2209,55.0,120.0,120.0,0.0,0.0
2210,46.0,0.0,120.0,0.0,0.0
2211,49.0,120.0,120.0,0.0,0.0
2212,63.0,0.0,120.0,0.0,0.0
2213,51.0,0.0,120.0,0.0,0.0
2214,63.0,120.0,120.0,0.0,0.0
2215,58.0,0.0,120.0,0.0,0.0
2216,67.0,120.0,120.0,0.0,0.0
2217,61.0,0.0,120.0,0.0,0.0
2218,75.0,120.0,120.0,0.0,0.0
2219,63.0,0.0,120.0,0.0,0.0
2220,75.0,120.0,120.0,0.0,0.0
2221,70.0,0.0,120.0,0.0,0.0
2222,79.0,120.0,120.0,0.0,0.0
2223,87.0,120.0,120.0,0.0,0.0
2224,73.0,0.0,120.0,0.0,0.0
2225,79.0,0.0,120.0,0.0,0.0
2226,70.0,120.0,120.0,0.0,0.0
2227,75.0,120.0,120.0,0.0,0.0
2228,63.0,0.0,120.0,0.0,0.0
2229,61.0,0.0,120.0,0.0,0.0
2230,75.0,120.0,120.0,0.0,0.0
2231,67.0,120.0,120.0,0.0,0.0
2232,58.0,0.0,120.0,0.0,0.0
2233,51.0,0.0,120.0,0.0,0.0
2234,63.0,120.0,120.0,0.0,0.0
2235,63.0,0.0,120.0,0.0,0.0
2236,46.0,120.0,120.0,0.0,0.0
2237,55.0,120.0,120.0,0.0,0.0
2238,39.0,0.0,120.0,0.0,0.0
2239,32.0,120.0,120.0,0.0,0.0
2240,48.0,0.0,120.0,0.0,0.0
2241,51.0,120.0,120.0,0.0,0.0
2242,39.0,0.0,120.0,0.0,0.0
2243,44.0,120.0,120.0,0.0,0.0
2244,60.0,0.0,120.0,0.0,0.0
2245,60.0,120.0,120.0,0.0,0.0
2246,44.0,0.0,120.0,0.0,0.0
2247,63.0,120.0,120.0,0.0,0.0
2248,51.0,0.0,120.0,0.0,0.0
2249,72.0,0.0,120.0,0.0,0.0
2250,56.0,120.0,120.0,0.0,0.0
2251,72.0,0.0,120.0,0.0,0.0
2252,56.0,120.0,120.0,0.0,0.0
2253,63.0,120.0,120.0,0.0,0.0
2254,75.0,0.0,120.0,0.0,0.0
2255,68.0,120.0,120.0,0.0,0.0
2256,84.0,0.0,120.0,0.0,0.0
2257,84.0,0.0,120.0,0.0,0.0
2258,68.0,120.0,120.0,0.0,0.0
2259,87.0,0.0,120.0,0.0,0.0
2260,75.0,120.0,120.0,0.0,0.0
2261,80.0,0.0,120.0,0.0,0.0
2262,96.0,120.0,120.0,0.0,0.0
2263,75.0,0.0,120.0,0.0,0.0
2264,87.0,120.0,120.0,0.0,0.0
2265,68.0,0.0,120.0,0.0,0.0
2266,84.0,120.0,120.0,0.0,0.0
2267,84.0,120.0,120.0,0.0,0.0
2268,68.0,0.0,120.0,0.0,0.0
2269,75.0,120.0,120.0,0.0,0.0
2270,63.0,0.0,120.0,0.0,0.0
2271,72.0,0.0,120.0,0.0,0.0
2272,56.0,120.0,120.0,0.0,0.0
2273,72.0,120.0,120.0,0.0,0.0
2274,56.0,0.0,120.0,0.0,0.0
2275,51.0,0.0,120.0,0.0,0.0
2276,63.0,120.0,120.0,0.0,0.0
2277,60.0,0.0,120.0,0.0,0.0
2278,44.0,120.0,120.0,0.0,0.0
2279,60.0,119.0,480.0,0.0,0.0
2280,44.0,120.0,120.0,0.0,0.0
2281,39.0,0.0,120.0,0.0,0.0
2282,51.0,120.0,120.0,0.0,0.0
2283,32.0,120.0,120.0,0.0,0.0
2284,48.0,0.0,120.0,0.0,0.0
2285,51.0,1.0,120.0,0.0,0.0
2286,39.0,0.0,120.0,0.0,0.0
2287,46.0,120.0,120.0,0.0,0.0
2288,43.0,0.0,120.0,0.0,0.0
2289,51.0,120.0,120.0,0.0,0.0
2290,39.0,0.0,120.0,0.0,0.0
2291,58.0,0.0,120.0,0.0,0.0
2292,32.0,120.0,120.0,0.0,0.0
2293,51.0,0.0,120.0,0.0,0.0
2294,39.0,120.0,120.0,0.0,0.0
2295,46.0,0.0,120.0,0.0,0.0
2296,49.0,120.0,120.0,0.0,0.0
2297,39.0,120.0,120.0,0.0,0.0
2298,51.0,0.0,120.0,0.0,0.0
2299,63.0,119.0,240.0,0.0,0.0
2300,32.0,120.0,120.0,0.0,0.0
2301,39.0,1.0,120.0,0.0,0.0
2302,51.0,0.0,120.0,0.0,0.0
2303,48.0,0.0,120.0,0.0,0.0
2304,32.0,120.0,120.0,0.0,0.0
2305,39.0,0.0,120.0,0.0,0.0
2306,51.0,120.0,120.0,0.0,0.0
2307,60.0,0.0,120.0,0.0,0.0
2308,44.0,120.0,120.0,0.0,0.0
2309,44.0,120.0,120.0,0.0,0.0
2310,60.0,0.0,120.0,0.0,0.0
2311,51.0,120.0,120.0,0.0,0.0
2312,63.0,0.0,120.0,0.0,0.0
2313,72.0,120.0,120.0,0.0,0.0
2314,56.0,0.0,120.0,0.0,0.0
2315,56.0,120.0,120.0,0.0,0.0
2316,72.0,0.0,120.0,0.0,0.0
2317,75.0,120.0,120.0,0.0,0.0
2318,63.0,0.0,120.0,0.0,0.0
2319,68.0,0.0,120.0,0.0,0.0
2320,84.0,120.0,120.0,0.0,0.0
2321,68.0,0.0,120.0,0.0,0.0
2322,84.0,120.0,120.0,0.0,0.0
2323,87.0,120.0,120.0,0.0,0.0
2324,75.0,0.0,120.0,0.0,0.0
2325,80.0,0.0,120.0,0.0,0.0
2326,96.0,120.0,120.0,0.0,0.0
2327,75.0,0.0,120.0,0.0,0.0
2328,87.0,120.0,120.0,0.0,0.0
2329,84.0,120.0,120.0,0.0,0.0
2330,68.0,0.0,120.0,0.0,0.0
2331,84.0,120.0,120.0,0.0,0.0
2332,68.0,0.0,120.0,0.0,0.0
2333,63.0,0.0,120.0,0.0,0.0
2334,75.0,120.0,120.0,0.0,0.0
2335,72.0,0.0,120.0,0.0,0.0
2336,56.0,120.0,120.0,0.0,0.0
2337,72.0,0.0,120.0,0.0,0.0
2338,56.0,120.0,120.0,0.0,0.0
2339,63.0,0.0,120.0,0.0,0.0
2340,51.0,120.0,120.0,0.0,0.0
2341,44.0,120.0,120.0,0.0,0.0
2342,60.0,0.0,120.0,0.0,0.0
2343,44.0,120.0,120.0,0.0,0.0
2344,60.0,119.0,480.0,0.0,0.0
2345,39.0,0.0,120.0,0.0,0.0
2346,51.0,120.0,120.0,0.0,0.0
2347,32.0,0.0,120.0,0.0,0.0
2348,48.0,120.0,120.0,0.0,0.0
2349,39.0,1.0,120.0,0.0,0.0
2350,51.0,0.0,120.0,0.0,0.0
2351,43.0,0.0,120.0,0.0,0.0
2352,46.0,120.0,120.0,0.0,0.0
2353,39.0,0.0,120.0,0.0,0.0
2354,51.0,120.0,120.0,0.0,0.0
2355,58.0,119.0,480.0,0.0,0.0
2356,32.0,120.0,120.0,0.0,0.0
2357,51.0,0.0,120.0,0.0,0.0
2358,39.0,120.0,120.0,0.0,0.0
2359,41.0,0.0,120.0,0.0,0.0
2360,44.0,120.0,120.0,0.0,0.0
2361,39.0,1.0,120.0,0.0,0.0
2362,51.0,0.0,120.0,0.0,0.0
2363,32.0,120.0,120.0,0.0,0.0
2364,56.0,119.0,240.0,0.0,0.0
2365,39.0,1.0,120.0,0.0,0.0
2366,51.0,0.0,120.0,0.0,0.0
2367,46.0,0.0,120.0,0.0,0.0
2368,32.0,120.0,120.0,0.0,0.0
2369,39.0,0.0,120.0,0.0,0.0
2370,51.0,120.0,120.0,0.0,0.0
2371,58.0,120.0,120.0,0.0,0.0
2372,43.0,0.0,120.0,0.0,0.0
2373,58.0,119.0,240.0,0.0,0.0
2374,44.0,120.0,120.0,0.0,0.0
2375,63.0,0.0,120.0,0.0,0.0
2376,51.0,1.0,120.0,0.0,0.0
2377,70.0,0.0,120.0,0.0,0.0
2378,55.0,120.0,120.0,0.0,0.0
2379,56.0,0.0,120.0,0.0,0.0
2380,70.0,120.0,120.0,0.0,0.0
2381,63.0,120.0,120.0,0.0,0.0
2382,75.0,0.0,120.0,0.0,0.0
2383,67.0,120.0,120.0,0.0,0.0
2384,82.0,0.0,120.0,0.0,0.0
2385,82.0,0.0,120.0,0.0,0.0
2386,68.0,120.0,120.0,0.0,0.0
2387,87.0,0.0,120.0,0.0,0.0
2388,75.0,120.0,120.0,0.0,0.0
2389,94.0,120.0,120.0,0.0,0.0
2390,79.0,0.0,120.0,0.0,0.0
2391,87.0,120.0,120.0,0.0,0.0
2392,75.0,0.0,120.0,0.0,0.0
2393,68.0,0.0,120.0,0.0,0.0
2394,82.0,120.0,120.0,0.0,0.0
2395,82.0,120.0,120.0,0.0,0.0
2396,67.0,0.0,120.0,0.0,0.0
2397,63.0,0.0,120.0,0.0,0.0
2398,75.0,120.0,120.0,0.0,0.0
2399,56.0,0.0,120.0,0.0,0.0
2400,70.0,120.0,120.0,0.0,0.0
2401,55.0,120.0,120.0,0.0,0.0
2402,70.0,0.0,120.0,0.0,0.0
2403,51.0,0.0,120.0,0.0,0.0
2404,63.0,120.0,120.0,0.0,0.0
2405,44.0,0.0,120.0,0.0,0.0
2406,58.0,120.0,120.0,0.0,0.0
2407,43.0,120.0,120.0,0.0,0.0
2408,58.0,119.0,480.0,0.0,0.0
2409,39.0,120.0,120.0,0.0,0.0
2410,51.0,0.0,120.0,0.0,0.0
2411,46.0,0.0,120.0,0.0,0.0
2412,32.0,120.0,120.0,0.0,0.0
2413,51.0,1.0,120.0,0.0,0.0
2414,39.0,0.0,120.0,0.0,0.0
2415,41.0,0.0,120.0,0.0,0.0
2416,44.0,120.0,120.0,0.0,0.0
2417,49.0,120.0,120.0,0.0,0.0
2418,37.0,0.0,120.0,0.0,0.0
2419,56.0,119.0,480.0,0.0,0.0
2420,32.0,120.0,120.0,0.0,0.0
2421,37.0,0.0,120.0,0.0,0.0
2422,49.0,120.0,120.0,0.0,0.0
2423,41.0,0.0,120.0,0.0,0.0
2424,44.0,120.0,120.0,0.0,0.0
2425,37.0,0.0,120.0,0.0,0.0
2426,49.0,1.0,120.0,0.0,0.0
2427,53.0,119.0,240.0,0.0,0.0
2428,32.0,120.0,120.0,0.0,0.0
2429,37.0,1.0,120.0,0.0,0.0
2430,49.0,0.0,120.0,0.0,0.0
2431,44.0,120.0,120.0,0.0,0.0
2432,32.0,0.0,120.0,0.0,0.0
2433,49.0,120.0,120.0,0.0,0.0
2434,40.0,0.0,120.0,0.0,0.0
2435,56.0,0.0,120.0,0.0,0.0
2436,44.0,120.0,120.0,0.0,0.0
2437,56.0,120.0,120.0,0.0,0.0
2438,44.0,0.0,120.0,0.0,0.0
2439,52.0,0.0,120.0,0.0,0.0
2440,61.0,120.0,120.0,0.0,0.0
2441,68.0,0.0,120.0,0.0,0.0
2442,56.0,120.0,120.0,0.0,0.0
2443,56.0,120.0,120.0,0.0,0.0
2444,68.0,0.0,120.0,0.0,0.0
2445,73.0,0.0,120.0,0.0,0.0
2446,64.0,120.0,120.0,0.0,0.0
2447,80.0,120.0,120.0,0.0,0.0
2448,68.0,0.0,120.0,0.0,0.0
2449,80.0,0.0,120.0,0.0,0.0
2450,68.0,120.0,120.0,0.0,0.0
2451,76.0,0.0,120.0,0.0,0.0
2452,85.0,120.0,120.0,0.0,0.0
2453,80.0,0.0,120.0,0.0,0.0
2454,92.0,120.0,120.0,0.0,0.0
2455,85.0,0.0,120.0,0.0,0.0
2456,76.0,120.0,120.0,0.0,0.0
2457,68.0,0.0,120.0,0.0,0.0
2458,80.0,120.0,120.0,0.0,0.0
2459,68.0,120.0,120.0,0.0,0.0
2460,80.0,0.0,120.0,0.0,0.0
2461,73.0,0.0,120.0,0.0,0.0
2462,64.0,120.0,120.0,0.0,0.0
2463,68.0,120.0,120.0,0.0,0.0
2464,56.0,0.0,120.0,0.0,0.0
2465,68.0,120.0,120.0,0.0,0.0
2466,56.0,0.0,120.0,0.0,0.0
2467,61.0,0.0,120.0,0.0,0.0
2468,52.0,120.0,120.0,0.0,0.0
2469,56.0,0.0,120.0,0.0,0.0
2470,44.0,120.0,120.0,0.0,0.0
2471,56.0,119.0,480.0,0.0,0.0
2472,44.0,120.0,120.0,0.0,0.0
2473,40.0,120.0,120.0,0.0,0.0
2474,49.0,0.0,120.0,0.0,0.0
2475,32.0,0.0,120.0,0.0,0.0
2476,44.0,120.0,120.0,0.0,0.0
2477,40.0,1.0,120.0,0.0,0.0
2478,49.0,0.0,120.0,0.0,0.0
2479,32.0,120.0,120.0,0.0,0.0
2480,44.0,0.0,120.0,0.0,0.0
2481,49.0,120.0,120.0,0.0,0.0
2482,40.0,0.0,120.0,0.0,0.0
2483,44.0,120.0,120.0,0.0,0.0
2484,56.0,119.0,480.0,0.0,0.0
2485,40.0,0.0,120.0,0.0,0.0
2486,49.0,120.0,120.0,0.0,0.0
2487,44.0,0.0,120.0,0.0,0.0
2488,32.0,120.0,120.0,0.0,0.0
2489,49.0,0.0,120.0,0.0,0.0
2490,40.0,1.0,120.0,0.0,0.0
2491,44.0,120.0,120.0,0.0,0.0
2492,58.0,119.0,240.0,0.0,0.0
2493,49.0,1.0,120.0,0.0,0.0
2494,40.0,0.0,120.0,0.0,0.0
2495,44.0,0.0,120.0,0.0,0.0
2496,32.0,120.0,120.0,0.0,0.0
2497,49.0,0.0,120.0,0.0,0.0
2498,40.0,120.0,120.0,0.0,0.0
2499,56.0,0.0,120.0,0.0,0.0
2500,44.0,120.0,120.0,0.0,0.0
2501,44.0,0.0,120.0,0.0,0.0
2502,56.0,120.0,120.0,0.0,0.0
2503,61.0,120.0,120.0,0.0,0.0
2504,52.0,0.0,120.0,0.0,0.0
2505,56.0,0.0,120.0,0.0,0.0
2506,68.0,120.0,120.0,0.0,0.0
2507,68.0,0.0,120.0,0.0,0.0
2508,56.0,120.0,120.0,0.0,0.0
2509,64.0,120.0,120.0,0.0,0.0
2510,73.0,0.0,120.0,0.0,0.0
2511,80.0,0.0,120.0,0.0,0.0
2512,68.0,120.0,120.0,0.0,0.0
2513,68.0,120.0,120.0,0.0,0.0
2514,80.0,0.0,120.0,0.0,0.0
2515,85.0,120.0,120.0,0.0,0.0
2516,76.0,0.0,120.0,0.0,0.0
2517,92.0,120.0,120.0,0.0,0.0
2518,80.0,0.0,120.0,0.0,0.0
2519,85.0,120.0,120.0,0.0,0.0
2520,76.0,0.0,120.0,0.0,0.0
2521,80.0,0.0,120.0,0.0,0.0
2522,68.0,120.0,120.0,0.0,0.0
2523,80.0,0.0,120.0,0.0,0.0
2524,68.0,120.0,120.0,0.0,0.0
2525,64.0,0.0,120.0,0.0,0.0
2526,73.0,120.0,120.0,0.0,0.0
2527,56.0,0.0,120.0,0.0,0.0
2528,68.0,120.0,120.0,0.0,0.0
2529,68.0,0.0,120.0,0.0,0.0
2530,56.0,120.0,120.0,0.0,0.0
2531,52.0,120.0,120.0,0.0,0.0
2532,61.0,0.0,120.0,0.0,0.0
2533,56.0,0.0,120.0,0.0,0.0
2534,44.0,120.0,120.0,0.0,0.0
2535,56.0,119.0,480.0,0.0,0.0
2536,44.0,120.0,120.0,0.0,0.0
2537,49.0,120.0,120.0,0.0,0.0
2538,40.0,0.0,120.0,0.0,0.0
2539,32.0,120.0,120.0,0.0,0.0
2540,44.0,0.0,120.0,0.0,0.0
2541,40.0,1.0,120.0,0.0,0.0
2542,49.0,0.0,120.0,0.0,0.0
2543,32.0,0.0,120.0,0.0,0.0
2544,44.0,120.0,120.0,0.0,0.0
2545,49.0,0.0,120.0,0.0,0.0
2546,40.0,120.0,120.0,0.0,0.0
2547,44.0,120.0,120.0,0.0,0.0
2548,56.0,119.0,480.0,0.0,0.0
2549,40.0,0.0,120.0,0.0,0.0
2550,49.0,120.0,120.0,0.0,0.0
2551,32.0,0.0,120.0,0.0,0.0
2552,44.0,120.0,120.0,0.0,0.0
2553,49.0,0.0,120.0,0.0,0.0
2554,40.0,1.0,120.0,0.0,0.0
2555,44.0,120.0,120.0,0.0,0.0
2556,58.0,119.0,240.0,0.0,0.0
2557,40.0,1.0,120.0,0.0,0.0
2558,49.0,0.0,120.0,0.0,0.0
2559,48.0,120.0,120.0,0.0,0.0
2560,32.0,0.0,120.0,0.0,0.0
2561,39.0,0.0,120.0,0.0,0.0
2562,51.0,120.0,120.0,0.0,0.0
2563,44.0,120.0,120.0,0.0,0.0
2564,60.0,0.0,120.0,0.0,0.0
2565,51.0,120.0,120.0,0.0,0.0
2566,39.0,0.0,120.0,0.0,0.0
2567,48.0,120.0,120.0,0.0,0.0
2568,27.0,0.0,120.0,0.0,0.0
2569,39.0,0.0,120.0,0.0,0.0
2570,51.0,120.0,120.0,0.0,0.0
2571,60.0,120.0,120.0,0.0,0.0
2572,44.0,0.0,120.0,0.0,0.0
2573,39.0,0.0,120.0,0.0,0.0
2574,51.0,120.0,120.0,0.0,0.0
2575,48.0,0.0,120.0,0.0,0.0
2576,32.0,120.0,120.0,0.0,0.0
2577,51.0,0.0,120.0,0.0,0.0
2578,39.0,120.0,120.0,0.0,0.0
2579,60.0,0.0,120.0,0.0,0.0
2580,44.0,120.0,120.0,0.0,0.0
2581,51.0,120.0,120.0,0.0,0.0
2582,39.0,0.0,120.0,0.0,0.0
2583,48.0,0.0,120.0,0.0,0.0
2584,27.0,120.0,120.0,0.0,0.0
2585,51.0,0.0,120.0,0.0,0.0
2586,39.0,120.0,120.0,0.0,0.0
2587,44.0,120.0,120.0,0.0,0.0
2588,60.0,0.0,120.0,0.0,0.0
2589,39.0,120.0,120.0,0.0,0.0
2590,51.0,0.0,120.0,0.0,0.0
2591,32.0,0.0,120.0,0.0,0.0
2592,48.0,120.0,120.0,0.0,0.0
2593,51.0,120.0,120.0,0.0,0.0
2594,39.0,0.0,120.0,0.0,0.0
2595,60.0,0.0,120.0,0.0,0.0
2596,44.0,120.0,120.0,0.0,0.0
2597,39.0,0.0,120.0,0.0,0.0
2598,51.0,120.0,120.0,0.0,0.0
2599,48.0,120.0,120.0,0.0,0.0
2600,27.0,0.0,120.0,0.0,0.0
2601,51.0,0.0,120.0,0.0,0.0
2602,39.0,120.0,120.0,0.0,0.0
2603,60.0,120.0,120.0,0.0,0.0
2604,44.0,0.0,120.0,0.0,0.0
2605,51.0,120.0,120.0,0.0,0.0
2606,39.0,0.0,120.0,0.0,0.0
2607,48.0,120.0,120.0,0.0,0.0
2608,32.0,0.0,120.0,0.0,0.0
2609,39.0,120.0,120.0,0.0,0.0
2610,51.0,0.0,120.0,0.0,0.0
2611,60.0,0.0,120.0,0.0,0.0
2612,44.0,120.0,120.0,0.0,0.0
2613,51.0,0.0,120.0,0.0,0.0
2614,39.0,120.0,120.0,0.0,0.0
2615,48.0,120.0,120.0,0.0,0.0
2616,27.0,0.0,120.0,0.0,0.0
2617,51.0,120.0,120.0,0.0,0.0
2618,39.0,0.0,120.0,0.0,0.0
2619,44.0,0.0,120.0,0.0,0.0
2620,60.0,120.0,120.0,0.0,0.0
2621,39.0,0.0,120.0,0.0,0.0
2622,51.0,481.0,120.0,0.0,0.0
2623,20.0,1440.0,480.0,0.0,0.0
2624,48.0,0.0,480.0,0.0,0.0
2625,32.0,0.0,480.0,0.0,0.0
2626,44.0,0.0,960.0,0.0,0.0
2627,68.0,0.0,960.0,0.0,0.0
2628,56.0,0.0,960.0,0.0,0.0
2629,60.0,0.0,960.0,0.0,0.0
2630,51.0,0.0,960.0,0.0,0.0
2631,63.0,0.0,960.0,0.0,0.0
2632,72.0,0.0,960.0,0.0,0.0
