,note,step,duration,channel,velocity
0,65.0,0.0,240.0,0.0,0.0
1,77.0,240.0,240.0,0.0,0.0
2,70.0,240.0,240.0,0.0,0.0
3,58.0,0.0,240.0,0.0,0.0
4,61.0,0.0,240.0,0.0,0.0
5,53.0,240.0,240.0,0.0,0.0
6,72.0,0.0,240.0,0.0,0.0
7,60.0,0.0,240.0,0.0,0.0
8,65.0,126.0,20.0,0.0,0.0
9,51.0,120.0,120.0,0.0,0.0
10,63.0,0.0,120.0,0.0,0.0
11,49.0,0.0,120.0,0.0,0.0
12,61.0,6.0,120.0,0.0,0.0
13,60.0,0.0,120.0,0.0,0.0
14,48.0,120.0,120.0,0.0,0.0
15,46.0,234.0,120.0,0.0,0.0
16,58.0,0.0,120.0,0.0,0.0
17,48.0,240.0,240.0,0.0,0.0
18,60.0,0.0,240.0,0.0,0.0
19,41.0,456.0,240.0,0.0,0.0
20,53.0,12.0,690.0,0.0,0.0
21,57.0,252.0,450.0,0.0,0.0
22,65.0,0.0,450.0,0.0,0.0
23,41.0,0.0,450.0,0.0,0.0
24,48.0,0.0,450.0,0.0,0.0
25,46.0,0.0,450.0,0.0,0.0
26,65.0,12.0,450.0,0.0,0.0
27,58.0,220.0,240.0,0.0,0.0
28,56.0,8.0,30.0,0.0,0.0
29,54.0,252.0,20.0,0.0,0.0
30,65.0,0.0,930.0,0.0,0.0
31,48.0,0.0,930.0,0.0,0.0
32,41.0,0.0,930.0,0.0,0.0
33,53.0,252.0,930.0,0.0,0.0
34,61.0,0.0,240.0,0.0,0.0
35,65.0,240.0,240.0,0.0,0.0
36,53.0,0.0,240.0,0.0,0.0
37,65.0,0.0,240.0,1.0,0.0
38,46.0,0.0,240.0,0.0,0.0
39,54.0,0.0,240.0,0.0,0.0
40,45.0,0.0,240.0,0.0,0.0
41,63.0,240.0,240.0,0.0,0.0
42,63.0,0.0,240.0,1.0,0.0
43,60.0,0.0,240.0,0.0,0.0
44,61.0,0.0,240.0,0.0,0.0
45,58.0,0.0,240.0,0.0,0.0
46,53.0,0.0,240.0,0.0,0.0
47,46.0,240.0,240.0,0.0,0.0
48,61.0,0.0,240.0,1.0,0.0
49,60.0,0.0,240.0,1.0,0.0
50,60.0,0.0,240.0,0.0,0.0
51,57.0,0.0,240.0,0.0,0.0
52,41.0,240.0,240.0,0.0,0.0
53,51.0,0.0,240.0,0.0,0.0
54,42.0,0.0,240.0,0.0,0.0
55,49.0,0.0,240.0,0.0,0.0
56,58.0,126.0,240.0,1.0,0.0
57,58.0,0.0,240.0,0.0,0.0
58,41.0,114.0,120.0,0.0,0.0
59,57.0,6.0,240.0,0.0,0.0
60,60.0,0.0,240.0,0.0,0.0
61,60.0,0.0,240.0,1.0,0.0
62,39.0,120.0,120.0,0.0,0.0
63,61.0,0.0,240.0,0.0,0.0
64,58.0,6.0,240.0,0.0,0.0
65,37.0,114.0,120.0,0.0,0.0
66,61.0,0.0,240.0,1.0,0.0
67,36.0,234.0,120.0,0.0,0.0
68,61.0,0.0,240.0,0.0,0.0
69,34.0,0.0,240.0,0.0,0.0
70,61.0,240.0,240.0,1.0,0.0
71,53.0,0.0,240.0,0.0,0.0
72,58.0,0.0,240.0,0.0,0.0
73,63.0,0.0,450.0,0.0,0.0
74,44.0,0.0,450.0,0.0,0.0
75,60.0,12.0,450.0,0.0,0.0
76,56.0,0.0,240.0,0.0,0.0
77,51.0,228.0,240.0,0.0,0.0
78,32.0,0.0,450.0,0.0,0.0
79,63.0,0.0,240.0,1.0,0.0
80,63.0,240.0,240.0,1.0,0.0
81,58.0,0.0,240.0,0.0,0.0
82,54.0,0.0,240.0,0.0,0.0
83,53.0,0.0,450.0,0.0,0.0
84,65.0,228.0,240.0,1.0,0.0
85,37.0,12.0,450.0,0.0,0.0
86,61.0,0.0,450.0,0.0,0.0
87,56.0,0.0,450.0,0.0,0.0
88,65.0,126.0,240.0,1.0,0.0
89,61.0,6.0,240.0,0.0,0.0
90,54.0,12.0,450.0,0.0,0.0
91,65.0,114.0,120.0,1.0,0.0
92,39.0,0.0,450.0,0.0,0.0
93,63.0,120.0,120.0,1.0,0.0
94,60.0,6.0,240.0,0.0,0.0
95,61.0,102.0,120.0,1.0,0.0
96,60.0,234.0,120.0,1.0,0.0
97,58.0,0.0,240.0,0.0,0.0
98,41.0,0.0,450.0,0.0,0.0
99,53.0,12.0,450.0,0.0,0.0
100,58.0,228.0,240.0,1.0,0.0
101,57.0,240.0,240.0,0.0,0.0
102,57.0,0.0,240.0,1.0,0.0
103,65.0,228.0,240.0,1.0,0.0
104,44.0,0.0,450.0,0.0,0.0
105,53.0,0.0,450.0,0.0,0.0
106,49.0,0.0,450.0,0.0,0.0
107,37.0,0.0,450.0,0.0,0.0
108,56.0,12.0,450.0,0.0,0.0
109,63.0,240.0,240.0,1.0,0.0
110,61.0,0.0,240.0,1.0,0.0
111,37.0,0.0,240.0,0.0,0.0
112,49.0,0.0,240.0,0.0,0.0
113,53.0,240.0,240.0,0.0,0.0
114,56.0,0.0,240.0,0.0,0.0
115,44.0,0.0,240.0,0.0,0.0
116,53.0,0.0,240.0,0.0,0.0
117,56.0,240.0,240.0,0.0,0.0
118,60.0,0.0,240.0,1.0,0.0
119,37.0,0.0,240.0,0.0,0.0
120,44.0,0.0,240.0,0.0,0.0
121,54.0,0.0,240.0,0.0,0.0
122,56.0,0.0,240.0,0.0,0.0
123,58.0,0.0,240.0,1.0,0.0
124,37.0,240.0,240.0,0.0,0.0
125,44.0,0.0,240.0,0.0,0.0
126,60.0,0.0,240.0,1.0,0.0
127,56.0,240.0,240.0,0.0,0.0
128,54.0,0.0,240.0,0.0,0.0
129,51.0,0.0,240.0,0.0,0.0
130,37.0,0.0,240.0,0.0,0.0
131,61.0,0.0,240.0,1.0,0.0
132,37.0,240.0,240.0,0.0,0.0
133,53.0,0.0,240.0,0.0,0.0
134,56.0,0.0,240.0,0.0,0.0
135,49.0,0.0,240.0,0.0,0.0
136,63.0,240.0,240.0,1.0,0.0
137,60.0,126.0,240.0,1.0,0.0
138,48.0,0.0,450.0,0.0,0.0
139,57.0,18.0,450.0,0.0,0.0
140,41.0,0.0,450.0,0.0,0.0
141,53.0,0.0,450.0,0.0,0.0
142,61.0,102.0,120.0,1.0,0.0
143,60.0,234.0,120.0,1.0,0.0
144,58.0,126.0,240.0,1.0,0.0
145,41.0,0.0,450.0,0.0,0.0
146,49.0,0.0,450.0,0.0,0.0
147,53.0,18.0,450.0,0.0,0.0
148,58.0,0.0,450.0,0.0,0.0
149,61.0,102.0,120.0,1.0,0.0
150,63.0,234.0,120.0,1.0,0.0
151,57.0,12.0,450.0,0.0,0.0
152,48.0,0.0,240.0,0.0,0.0
153,41.0,0.0,240.0,0.0,0.0
154,65.0,0.0,240.0,1.0,0.0
155,53.0,228.0,240.0,0.0,0.0
156,39.0,0.0,240.0,0.0,0.0
157,48.0,0.0,240.0,0.0,0.0
158,54.0,0.0,240.0,0.0,0.0
159,60.0,240.0,240.0,1.0,0.0
160,37.0,12.0,450.0,0.0,0.0
161,65.0,228.0,240.0,1.0,0.0
162,53.0,0.0,450.0,0.0,0.0
163,49.0,0.0,450.0,0.0,0.0
164,58.0,0.0,450.0,0.0,0.0
165,61.0,240.0,240.0,1.0,0.0
166,63.0,126.0,240.0,1.0,0.0
167,51.0,0.0,240.0,0.0,0.0
168,36.0,0.0,240.0,0.0,0.0
169,57.0,6.0,240.0,0.0,0.0
170,61.0,114.0,120.0,1.0,0.0
171,54.0,0.0,240.0,0.0,0.0
172,60.0,234.0,120.0,1.0,0.0
173,58.0,228.0,240.0,1.0,0.0
174,58.0,12.0,450.0,0.0,0.0
175,53.0,0.0,240.0,0.0,0.0
176,37.0,0.0,240.0,0.0,0.0
177,54.0,0.0,240.0,0.0,0.0
178,39.0,0.0,240.0,0.0,0.0
179,66.0,126.0,240.0,1.0,0.0
180,41.0,0.0,450.0,0.0,0.0
181,65.0,114.0,120.0,1.0,0.0
182,58.0,6.0,240.0,0.0,0.0
183,48.0,12.0,450.0,0.0,0.0
184,53.0,0.0,450.0,0.0,0.0
185,63.0,120.0,120.0,1.0,0.0
186,61.0,102.0,120.0,1.0,0.0
187,57.0,6.0,240.0,0.0,0.0
188,60.0,234.0,120.0,1.0,0.0
189,34.0,12.0,450.0,0.0,0.0
190,60.0,228.0,240.0,1.0,0.0
191,49.0,0.0,450.0,0.0,0.0
192,53.0,0.0,450.0,0.0,0.0
193,58.0,0.0,450.0,0.0,0.0
194,58.0,240.0,240.0,1.0,0.0
195,65.0,240.0,240.0,0.0,0.0
196,77.0,0.0,240.0,0.0,0.0
197,61.0,240.0,240.0,0.0,0.0
198,58.0,0.0,240.0,0.0,0.0
199,70.0,0.0,240.0,0.0,0.0
200,53.0,0.0,240.0,0.0,0.0
201,72.0,240.0,240.0,0.0,0.0
202,60.0,0.0,240.0,0.0,0.0
203,65.0,126.0,20.0,0.0,0.0
204,51.0,120.0,120.0,0.0,0.0
205,63.0,0.0,120.0,0.0,0.0
206,49.0,6.0,120.0,0.0,0.0
207,61.0,0.0,120.0,0.0,0.0
208,48.0,0.0,120.0,0.0,0.0
209,60.0,120.0,120.0,0.0,0.0
210,46.0,234.0,120.0,0.0,0.0
211,58.0,0.0,120.0,0.0,0.0
212,48.0,240.0,240.0,0.0,0.0
213,60.0,0.0,240.0,0.0,0.0
214,53.0,12.0,690.0,0.0,0.0
215,41.0,456.0,240.0,0.0,0.0
216,65.0,0.0,450.0,0.0,0.0
217,48.0,252.0,450.0,0.0,0.0
218,57.0,0.0,450.0,0.0,0.0
219,41.0,0.0,450.0,0.0,0.0
220,46.0,12.0,450.0,0.0,0.0
221,65.0,0.0,450.0,0.0,0.0
222,58.0,220.0,240.0,0.0,0.0
223,56.0,8.0,30.0,0.0,0.0
224,54.0,252.0,20.0,0.0,0.0
225,41.0,252.0,930.0,0.0,0.0
226,53.0,0.0,930.0,0.0,0.0
227,65.0,0.0,930.0,0.0,0.0
228,48.0,0.0,930.0,0.0,0.0
229,65.0,0.0,240.0,0.0,0.0
230,61.0,0.0,240.0,0.0,0.0
231,46.0,0.0,240.0,0.0,0.0
232,53.0,0.0,240.0,0.0,0.0
233,65.0,240.0,240.0,1.0,0.0
234,45.0,0.0,240.0,0.0,0.0
235,63.0,0.0,240.0,1.0,0.0
236,54.0,0.0,240.0,0.0,0.0
237,60.0,0.0,240.0,0.0,0.0
238,63.0,240.0,240.0,0.0,0.0
239,53.0,0.0,240.0,0.0,0.0
240,46.0,0.0,240.0,0.0,0.0
241,61.0,240.0,240.0,1.0,0.0
242,61.0,0.0,240.0,0.0,0.0
243,58.0,0.0,240.0,0.0,0.0
244,60.0,240.0,240.0,1.0,0.0
245,60.0,0.0,240.0,0.0,0.0
246,57.0,0.0,240.0,0.0,0.0
247,41.0,0.0,240.0,0.0,0.0
248,51.0,0.0,240.0,0.0,0.0
249,58.0,0.0,240.0,1.0,0.0
250,58.0,126.0,240.0,0.0,0.0
251,42.0,0.0,240.0,0.0,0.0
252,49.0,0.0,240.0,0.0,0.0
253,60.0,6.0,240.0,0.0,0.0
254,60.0,0.0,240.0,1.0,0.0
255,41.0,114.0,120.0,0.0,0.0
256,57.0,0.0,240.0,0.0,0.0
257,39.0,120.0,120.0,0.0,0.0
258,61.0,0.0,240.0,0.0,0.0
259,58.0,6.0,240.0,0.0,0.0
260,37.0,114.0,120.0,0.0,0.0
261,61.0,0.0,240.0,1.0,0.0
262,36.0,234.0,120.0,0.0,0.0
263,61.0,240.0,240.0,0.0,0.0
264,58.0,0.0,240.0,0.0,0.0
265,34.0,0.0,240.0,0.0,0.0
266,53.0,0.0,240.0,0.0,0.0
267,61.0,0.0,240.0,1.0,0.0
268,56.0,228.0,240.0,0.0,0.0
269,51.0,0.0,240.0,0.0,0.0
270,44.0,12.0,450.0,0.0,0.0
271,60.0,0.0,450.0,0.0,0.0
272,63.0,0.0,240.0,1.0,0.0
273,63.0,0.0,450.0,0.0,0.0
274,32.0,0.0,450.0,0.0,0.0
275,54.0,0.0,240.0,0.0,0.0
276,58.0,0.0,240.0,0.0,0.0
277,63.0,240.0,240.0,1.0,0.0
278,65.0,228.0,240.0,1.0,0.0
279,37.0,0.0,450.0,0.0,0.0
280,56.0,12.0,450.0,0.0,0.0
281,61.0,0.0,450.0,0.0,0.0
282,53.0,0.0,450.0,0.0,0.0
283,65.0,126.0,240.0,1.0,0.0
284,65.0,114.0,120.0,1.0,0.0
285,61.0,6.0,240.0,0.0,0.0
286,54.0,0.0,450.0,0.0,0.0
287,39.0,12.0,450.0,0.0,0.0
288,63.0,120.0,120.0,1.0,0.0
289,60.0,6.0,240.0,0.0,0.0
290,61.0,102.0,120.0,1.0,0.0
291,60.0,234.0,120.0,1.0,0.0
292,58.0,0.0,240.0,1.0,0.0
293,53.0,0.0,450.0,0.0,0.0
294,58.0,228.0,240.0,0.0,0.0
295,41.0,12.0,450.0,0.0,0.0
296,57.0,0.0,240.0,1.0,0.0
297,57.0,240.0,240.0,0.0,0.0
298,37.0,0.0,450.0,0.0,0.0
299,44.0,0.0,450.0,0.0,0.0
300,65.0,228.0,240.0,1.0,0.0
301,53.0,0.0,450.0,0.0,0.0
302,56.0,12.0,450.0,0.0,0.0
303,49.0,0.0,450.0,0.0,0.0
304,63.0,240.0,240.0,1.0,0.0
305,61.0,0.0,240.0,1.0,0.0
306,56.0,0.0,240.0,0.0,0.0
307,49.0,0.0,240.0,0.0,0.0
308,53.0,240.0,240.0,0.0,0.0
309,44.0,0.0,240.0,0.0,0.0
310,37.0,0.0,240.0,0.0,0.0
311,60.0,240.0,240.0,1.0,0.0
312,44.0,0.0,240.0,0.0,0.0
313,37.0,0.0,240.0,0.0,0.0
314,53.0,0.0,240.0,0.0,0.0
315,56.0,0.0,240.0,0.0,0.0
316,37.0,0.0,240.0,0.0,0.0
317,54.0,0.0,240.0,0.0,0.0
318,44.0,0.0,240.0,0.0,0.0
319,58.0,240.0,240.0,1.0,0.0
320,56.0,0.0,240.0,0.0,0.0
321,37.0,0.0,240.0,0.0,0.0
322,56.0,0.0,240.0,0.0,0.0
323,54.0,0.0,240.0,0.0,0.0
324,51.0,240.0,240.0,0.0,0.0
325,60.0,0.0,240.0,1.0,0.0
326,37.0,0.0,240.0,0.0,0.0
327,49.0,0.0,240.0,0.0,0.0
328,53.0,0.0,240.0,0.0,0.0
329,61.0,0.0,240.0,1.0,0.0
330,56.0,240.0,240.0,0.0,0.0
331,63.0,240.0,240.0,1.0,0.0
332,57.0,18.0,450.0,0.0,0.0
333,53.0,0.0,450.0,0.0,0.0
334,48.0,0.0,450.0,0.0,0.0
335,41.0,0.0,450.0,0.0,0.0
336,60.0,126.0,240.0,1.0,0.0
337,61.0,102.0,120.0,1.0,0.0
338,60.0,234.0,120.0,1.0,0.0
339,58.0,126.0,240.0,1.0,0.0
340,41.0,0.0,450.0,0.0,0.0
341,49.0,0.0,450.0,0.0,0.0
342,53.0,0.0,450.0,0.0,0.0
343,58.0,18.0,450.0,0.0,0.0
344,61.0,102.0,120.0,1.0,0.0
345,63.0,234.0,120.0,1.0,0.0
346,48.0,0.0,240.0,0.0,0.0
347,65.0,0.0,240.0,1.0,0.0
348,41.0,228.0,240.0,0.0,0.0
349,53.0,0.0,240.0,0.0,0.0
350,57.0,12.0,450.0,0.0,0.0
351,60.0,0.0,240.0,1.0,0.0
352,39.0,240.0,240.0,0.0,0.0
353,48.0,0.0,240.0,0.0,0.0
354,54.0,0.0,240.0,0.0,0.0
355,53.0,0.0,450.0,0.0,0.0
356,58.0,0.0,450.0,0.0,0.0
357,37.0,12.0,450.0,0.0,0.0
358,65.0,228.0,240.0,1.0,0.0
359,49.0,0.0,450.0,0.0,0.0
360,61.0,240.0,240.0,1.0,0.0
361,63.0,126.0,240.0,1.0,0.0
362,36.0,6.0,240.0,0.0,0.0
363,51.0,0.0,240.0,0.0,0.0
364,54.0,0.0,240.0,0.0,0.0
365,57.0,0.0,240.0,0.0,0.0
366,61.0,114.0,120.0,1.0,0.0
367,60.0,234.0,120.0,1.0,0.0
368,58.0,12.0,450.0,0.0,0.0
369,58.0,228.0,240.0,1.0,0.0
370,37.0,0.0,240.0,0.0,0.0
371,53.0,0.0,240.0,0.0,0.0
372,39.0,0.0,240.0,0.0,0.0
373,54.0,126.0,240.0,0.0,0.0
374,66.0,0.0,240.0,1.0,0.0
375,65.0,114.0,120.0,1.0,0.0
376,58.0,6.0,240.0,0.0,0.0
377,48.0,12.0,450.0,0.0,0.0
378,53.0,0.0,450.0,0.0,0.0
379,41.0,0.0,450.0,0.0,0.0
380,63.0,120.0,120.0,1.0,0.0
381,61.0,102.0,120.0,1.0,0.0
382,57.0,6.0,240.0,0.0,0.0
383,60.0,234.0,120.0,1.0,0.0
384,53.0,0.0,450.0,0.0,0.0
385,49.0,12.0,450.0,0.0,0.0
386,34.0,0.0,450.0,0.0,0.0
387,58.0,0.0,450.0,0.0,0.0
388,60.0,228.0,240.0,1.0,0.0
389,58.0,240.0,240.0,1.0,0.0
390,77.0,240.0,240.0,0.0,0.0
391,65.0,0.0,240.0,0.0,0.0
392,61.0,0.0,240.0,0.0,0.0
393,58.0,0.0,240.0,0.0,0.0
394,70.0,240.0,240.0,0.0,0.0
395,53.0,240.0,240.0,0.0,0.0
396,60.0,0.0,240.0,0.0,0.0
397,72.0,0.0,240.0,0.0,0.0
398,65.0,126.0,20.0,0.0,0.0
399,63.0,120.0,120.0,0.0,0.0
400,51.0,0.0,120.0,0.0,0.0
401,49.0,6.0,120.0,0.0,0.0
402,61.0,0.0,120.0,0.0,0.0
403,48.0,0.0,120.0,0.0,0.0
404,60.0,120.0,120.0,0.0,0.0
405,46.0,234.0,120.0,0.0,0.0
406,58.0,0.0,120.0,0.0,0.0
407,48.0,240.0,240.0,0.0,0.0
408,60.0,0.0,240.0,0.0,0.0
409,53.0,12.0,690.0,0.0,0.0
410,41.0,456.0,240.0,0.0,0.0
411,57.0,252.0,450.0,0.0,0.0
412,65.0,0.0,450.0,0.0,0.0
413,41.0,0.0,450.0,0.0,0.0
414,48.0,0.0,450.0,0.0,0.0
415,58.0,220.0,240.0,0.0,0.0
416,46.0,12.0,450.0,0.0,0.0
417,65.0,0.0,450.0,0.0,0.0
418,56.0,8.0,30.0,0.0,0.0
419,54.0,252.0,20.0,0.0,0.0
420,65.0,0.0,930.0,0.0,0.0
421,48.0,0.0,930.0,0.0,0.0
422,53.0,252.0,930.0,0.0,0.0
423,41.0,0.0,930.0,0.0,0.0
424,65.0,0.0,240.0,1.0,0.0
425,61.0,240.0,240.0,0.0,0.0
426,46.0,0.0,240.0,0.0,0.0
427,53.0,0.0,240.0,0.0,0.0
428,65.0,0.0,240.0,0.0,0.0
429,63.0,0.0,240.0,0.0,0.0
430,60.0,0.0,240.0,0.0,0.0
431,63.0,240.0,240.0,1.0,0.0
432,54.0,0.0,240.0,0.0,0.0
433,45.0,0.0,240.0,0.0,0.0
434,61.0,0.0,240.0,1.0,0.0
435,46.0,240.0,240.0,0.0,0.0
436,53.0,0.0,240.0,0.0,0.0
437,58.0,0.0,240.0,0.0,0.0
438,61.0,0.0,240.0,0.0,0.0
439,60.0,0.0,240.0,0.0,0.0
440,57.0,240.0,240.0,0.0,0.0
441,41.0,0.0,240.0,0.0,0.0
442,51.0,0.0,240.0,0.0,0.0
443,60.0,0.0,240.0,1.0,0.0
444,58.0,0.0,240.0,0.0,0.0
445,42.0,126.0,240.0,0.0,0.0
446,49.0,0.0,240.0,0.0,0.0
447,58.0,0.0,240.0,1.0,0.0
448,60.0,6.0,240.0,1.0,0.0
449,60.0,0.0,240.0,0.0,0.0
450,41.0,114.0,120.0,0.0,0.0
451,57.0,0.0,240.0,0.0,0.0
452,39.0,120.0,120.0,0.0,0.0
453,58.0,0.0,240.0,0.0,0.0
454,61.0,6.0,240.0,0.0,0.0
455,61.0,0.0,240.0,1.0,0.0
456,37.0,114.0,120.0,0.0,0.0
457,36.0,234.0,120.0,0.0,0.0
458,58.0,0.0,240.0,0.0,0.0
459,61.0,0.0,240.0,1.0,0.0
460,61.0,0.0,240.0,0.0,0.0
461,34.0,240.0,240.0,0.0,0.0
462,53.0,0.0,240.0,0.0,0.0
463,63.0,0.0,240.0,1.0,0.0
464,60.0,12.0,450.0,0.0,0.0
465,63.0,0.0,450.0,0.0,0.0
466,44.0,0.0,450.0,0.0,0.0
467,32.0,0.0,450.0,0.0,0.0
468,56.0,0.0,240.0,0.0,0.0
469,51.0,228.0,240.0,0.0,0.0
470,63.0,0.0,240.0,1.0,0.0
471,58.0,0.0,240.0,0.0,0.0
472,54.0,240.0,240.0,0.0,0.0
473,61.0,0.0,450.0,0.0,0.0
474,56.0,0.0,450.0,0.0,0.0
475,53.0,0.0,450.0,0.0,0.0
476,37.0,12.0,450.0,0.0,0.0
477,65.0,228.0,240.0,1.0,0.0
478,65.0,126.0,240.0,1.0,0.0
479,39.0,0.0,450.0,0.0,0.0
480,54.0,12.0,450.0,0.0,0.0
481,61.0,6.0,240.0,0.0,0.0
482,65.0,114.0,120.0,1.0,0.0
483,63.0,120.0,120.0,1.0,0.0
484,60.0,6.0,240.0,0.0,0.0
485,61.0,102.0,120.0,1.0,0.0
486,60.0,234.0,120.0,1.0,0.0
487,58.0,0.0,240.0,0.0,0.0
488,58.0,228.0,240.0,1.0,0.0
489,41.0,0.0,450.0,0.0,0.0
490,53.0,12.0,450.0,0.0,0.0
491,57.0,0.0,240.0,0.0,0.0
492,57.0,240.0,240.0,1.0,0.0
493,37.0,0.0,450.0,0.0,0.0
494,49.0,0.0,450.0,0.0,0.0
495,44.0,0.0,450.0,0.0,0.0
496,56.0,12.0,450.0,0.0,0.0
497,65.0,228.0,240.0,1.0,0.0
498,53.0,0.0,450.0,0.0,0.0
499,63.0,240.0,240.0,1.0,0.0
500,37.0,0.0,240.0,0.0,0.0
501,44.0,0.0,240.0,0.0,0.0
502,53.0,0.0,240.0,0.0,0.0
503,61.0,240.0,240.0,1.0,0.0
504,56.0,0.0,240.0,0.0,0.0
505,49.0,0.0,240.0,0.0,0.0
506,44.0,240.0,240.0,0.0,0.0
507,37.0,0.0,240.0,0.0,0.0
508,53.0,0.0,240.0,0.0,0.0
509,56.0,0.0,240.0,0.0,0.0
510,60.0,0.0,240.0,1.0,0.0
511,56.0,0.0,240.0,0.0,0.0
512,37.0,0.0,240.0,0.0,0.0
513,58.0,240.0,240.0,1.0,0.0
514,44.0,0.0,240.0,0.0,0.0
515,54.0,0.0,240.0,0.0,0.0
516,56.0,0.0,240.0,0.0,0.0
517,37.0,240.0,240.0,0.0,0.0
518,51.0,0.0,240.0,0.0,0.0
519,54.0,0.0,240.0,0.0,0.0
520,60.0,0.0,240.0,1.0,0.0
521,61.0,0.0,240.0,1.0,0.0
522,37.0,240.0,240.0,0.0,0.0
523,49.0,0.0,240.0,0.0,0.0
524,53.0,0.0,240.0,0.0,0.0
525,56.0,0.0,240.0,0.0,0.0
526,63.0,240.0,240.0,1.0,0.0
527,57.0,18.0,450.0,0.0,0.0
528,48.0,0.0,450.0,0.0,0.0
529,41.0,0.0,450.0,0.0,0.0
530,53.0,0.0,450.0,0.0,0.0
531,60.0,126.0,240.0,1.0,0.0
532,61.0,102.0,120.0,1.0,0.0
533,60.0,234.0,120.0,1.0,0.0
534,58.0,0.0,450.0,0.0,0.0
535,53.0,0.0,450.0,0.0,0.0
536,41.0,18.0,450.0,0.0,0.0
537,49.0,0.0,450.0,0.0,0.0
538,58.0,126.0,240.0,1.0,0.0
539,61.0,102.0,120.0,1.0,0.0
540,63.0,234.0,120.0,1.0,0.0
541,57.0,12.0,450.0,0.0,0.0
542,53.0,0.0,240.0,0.0,0.0
543,41.0,0.0,240.0,0.0,0.0
544,48.0,0.0,240.0,0.0,0.0
545,65.0,228.0,240.0,1.0,0.0
546,54.0,0.0,240.0,0.0,0.0
547,60.0,240.0,240.0,1.0,0.0
548,39.0,0.0,240.0,0.0,0.0
549,48.0,0.0,240.0,0.0,0.0
550,65.0,228.0,240.0,1.0,0.0
551,58.0,0.0,450.0,0.0,0.0
552,53.0,12.0,450.0,0.0,0.0
553,49.0,0.0,450.0,0.0,0.0
554,37.0,0.0,450.0,0.0,0.0
555,61.0,240.0,240.0,1.0,0.0
556,63.0,126.0,240.0,1.0,0.0
557,36.0,0.0,240.0,0.0,0.0
558,61.0,114.0,120.0,1.0,0.0
559,51.0,0.0,240.0,0.0,0.0
560,54.0,0.0,240.0,0.0,0.0
561,57.0,6.0,240.0,0.0,0.0
562,60.0,234.0,120.0,1.0,0.0
563,53.0,228.0,240.0,0.0,0.0
564,37.0,0.0,240.0,0.0,0.0
565,58.0,0.0,240.0,1.0,0.0
566,58.0,12.0,450.0,0.0,0.0
567,66.0,126.0,240.0,1.0,0.0
568,54.0,0.0,240.0,0.0,0.0
569,39.0,0.0,240.0,0.0,0.0
570,65.0,114.0,120.0,1.0,0.0
571,48.0,0.0,450.0,0.0,0.0
572,53.0,0.0,450.0,0.0,0.0
573,41.0,12.0,450.0,0.0,0.0
574,58.0,6.0,240.0,0.0,0.0
575,63.0,120.0,120.0,1.0,0.0
576,61.0,102.0,120.0,1.0,0.0
577,57.0,6.0,240.0,0.0,0.0
578,60.0,234.0,120.0,1.0,0.0
579,49.0,12.0,450.0,0.0,0.0
580,60.0,228.0,240.0,1.0,0.0
581,34.0,0.0,450.0,0.0,0.0
582,58.0,0.0,450.0,0.0,0.0
583,53.0,0.0,450.0,0.0,0.0
584,58.0,240.0,240.0,1.0,0.0
585,65.0,0.0,240.0,0.0,0.0
586,77.0,240.0,240.0,0.0,0.0
587,58.0,0.0,240.0,0.0,0.0
588,70.0,240.0,240.0,0.0,0.0
589,61.0,0.0,240.0,0.0,0.0
590,72.0,0.0,240.0,0.0,0.0
591,60.0,0.0,240.0,0.0,0.0
592,53.0,240.0,240.0,0.0,0.0
593,65.0,126.0,20.0,0.0,0.0
594,51.0,120.0,120.0,0.0,0.0
595,63.0,0.0,120.0,0.0,0.0
596,49.0,6.0,120.0,0.0,0.0
597,61.0,0.0,120.0,0.0,0.0
598,48.0,120.0,120.0,0.0,0.0
599,60.0,0.0,120.0,0.0,0.0
600,46.0,234.0,120.0,0.0,0.0
601,58.0,0.0,120.0,0.0,0.0
602,60.0,240.0,240.0,0.0,0.0
603,48.0,0.0,240.0,0.0,0.0
604,41.0,456.0,240.0,0.0,0.0
605,53.0,12.0,690.0,0.0,0.0
606,57.0,252.0,450.0,0.0,0.0
607,65.0,0.0,450.0,0.0,0.0
608,41.0,0.0,450.0,0.0,0.0
609,48.0,0.0,450.0,0.0,0.0
610,46.0,12.0,450.0,0.0,0.0
611,65.0,0.0,450.0,0.0,0.0
612,58.0,220.0,240.0,0.0,0.0
613,56.0,8.0,30.0,0.0,0.0
614,54.0,252.0,20.0,0.0,0.0
615,48.0,0.0,930.0,0.0,0.0
616,41.0,252.0,930.0,0.0,0.0
617,53.0,0.0,930.0,0.0,0.0
618,65.0,0.0,930.0,0.0,0.0
619,65.0,0.0,240.0,1.0,0.0
620,65.0,240.0,240.0,0.0,0.0
621,61.0,0.0,240.0,0.0,0.0
622,46.0,0.0,240.0,0.0,0.0
623,53.0,0.0,240.0,0.0,0.0
624,63.0,0.0,240.0,0.0,0.0
625,60.0,0.0,240.0,0.0,0.0
626,45.0,0.0,240.0,0.0,0.0
627,54.0,240.0,240.0,0.0,0.0
628,63.0,0.0,240.0,1.0,0.0
629,53.0,0.0,240.0,0.0,0.0
630,58.0,0.0,240.0,0.0,0.0
631,61.0,0.0,240.0,0.0,0.0
632,46.0,240.0,240.0,0.0,0.0
633,61.0,0.0,240.0,1.0,0.0
634,60.0,0.0,240.0,0.0,0.0
635,57.0,0.0,240.0,0.0,0.0
636,41.0,240.0,240.0,0.0,0.0
637,51.0,0.0,240.0,0.0,0.0
638,60.0,0.0,240.0,1.0,0.0
639,58.0,0.0,240.0,0.0,0.0
640,49.0,0.0,240.0,0.0,0.0
641,42.0,0.0,240.0,0.0,0.0
642,58.0,126.0,240.0,1.0,0.0
643,41.0,114.0,120.0,0.0,0.0
644,60.0,0.0,240.0,1.0,0.0
645,60.0,0.0,240.0,0.0,0.0
646,57.0,6.0,240.0,0.0,0.0
647,39.0,120.0,120.0,0.0,0.0
648,37.0,114.0,120.0,0.0,0.0
649,61.0,6.0,240.0,1.0,0.0
650,61.0,0.0,240.0,0.0,0.0
651,58.0,0.0,240.0,0.0,0.0
652,36.0,234.0,120.0,0.0,0.0
653,61.0,0.0,240.0,0.0,0.0
654,58.0,0.0,240.0,0.0,0.0
655,34.0,0.0,240.0,0.0,0.0
656,53.0,240.0,240.0,0.0,0.0
657,61.0,0.0,240.0,1.0,0.0
658,44.0,0.0,450.0,0.0,0.0
659,32.0,0.0,450.0,0.0,0.0
660,56.0,0.0,240.0,0.0,0.0
661,51.0,0.0,240.0,0.0,0.0
662,60.0,12.0,450.0,0.0,0.0
663,63.0,228.0,240.0,1.0,0.0
664,63.0,0.0,450.0,0.0,0.0
665,63.0,240.0,240.0,1.0,0.0
666,58.0,0.0,240.0,0.0,0.0
667,54.0,0.0,240.0,0.0,0.0
668,56.0,0.0,450.0,0.0,0.0
669,61.0,0.0,450.0,0.0,0.0
670,65.0,228.0,240.0,1.0,0.0
671,37.0,12.0,450.0,0.0,0.0
672,53.0,0.0,450.0,0.0,0.0
673,65.0,126.0,240.0,1.0,0.0
674,65.0,114.0,120.0,1.0,0.0
675,54.0,12.0,450.0,0.0,0.0
676,61.0,6.0,240.0,0.0,0.0
677,39.0,0.0,450.0,0.0,0.0
678,63.0,120.0,120.0,1.0,0.0
679,60.0,6.0,240.0,0.0,0.0
680,61.0,102.0,120.0,1.0,0.0
681,60.0,234.0,120.0,1.0,0.0
682,58.0,0.0,240.0,0.0,0.0
683,58.0,228.0,240.0,1.0,0.0
684,41.0,0.0,450.0,0.0,0.0
685,53.0,12.0,450.0,0.0,0.0
686,57.0,0.0,240.0,0.0,0.0
687,57.0,240.0,240.0,1.0,0.0
688,44.0,0.0,450.0,0.0,0.0
689,49.0,0.0,450.0,0.0,0.0
690,53.0,0.0,450.0,0.0,0.0
691,56.0,0.0,450.0,0.0,0.0
692,65.0,228.0,240.0,1.0,0.0
693,37.0,12.0,450.0,0.0,0.0
694,63.0,240.0,240.0,1.0,0.0
695,37.0,0.0,240.0,0.0,0.0
696,44.0,0.0,240.0,0.0,0.0
697,49.0,0.0,240.0,0.0,0.0
698,61.0,0.0,240.0,1.0,0.0
699,56.0,0.0,240.0,0.0,0.0
700,53.0,240.0,240.0,0.0,0.0
701,44.0,240.0,240.0,0.0,0.0
702,37.0,0.0,240.0,0.0,0.0
703,56.0,0.0,240.0,0.0,0.0
704,60.0,0.0,240.0,1.0,0.0
705,53.0,0.0,240.0,0.0,0.0
706,58.0,240.0,240.0,1.0,0.0
707,54.0,0.0,240.0,0.0,0.0
708,56.0,0.0,240.0,0.0,0.0
709,44.0,0.0,240.0,0.0,0.0
710,37.0,0.0,240.0,0.0,0.0
711,37.0,0.0,240.0,0.0,0.0
712,51.0,240.0,240.0,0.0,0.0
713,54.0,0.0,240.0,0.0,0.0
714,60.0,0.0,240.0,1.0,0.0
715,56.0,0.0,240.0,0.0,0.0
716,56.0,240.0,240.0,0.0,0.0
717,53.0,0.0,240.0,0.0,0.0
718,37.0,0.0,240.0,0.0,0.0
719,49.0,0.0,240.0,0.0,0.0
720,61.0,0.0,240.0,1.0,0.0
721,63.0,240.0,240.0,1.0,0.0
722,41.0,0.0,450.0,0.0,0.0
723,48.0,0.0,450.0,0.0,0.0
724,53.0,0.0,450.0,0.0,0.0
725,57.0,18.0,450.0,0.0,0.0
726,60.0,126.0,240.0,1.0,0.0
727,61.0,102.0,120.0,1.0,0.0
728,60.0,234.0,120.0,1.0,0.0
729,58.0,0.0,450.0,0.0,0.0
730,58.0,126.0,240.0,1.0,0.0
731,41.0,0.0,450.0,0.0,0.0
732,49.0,18.0,450.0,0.0,0.0
733,53.0,0.0,450.0,0.0,0.0
734,61.0,102.0,120.0,1.0,0.0
735,63.0,234.0,120.0,1.0,0.0
736,65.0,0.0,240.0,1.0,0.0
737,53.0,0.0,240.0,0.0,0.0
738,48.0,0.0,240.0,0.0,0.0
739,57.0,12.0,450.0,0.0,0.0
740,41.0,228.0,240.0,0.0,0.0
741,60.0,240.0,240.0,1.0,0.0
742,48.0,0.0,240.0,0.0,0.0
743,54.0,0.0,240.0,0.0,0.0
744,39.0,0.0,240.0,0.0,0.0
745,53.0,0.0,450.0,0.0,0.0
746,65.0,228.0,240.0,1.0,0.0
747,37.0,0.0,450.0,0.0,0.0
748,58.0,0.0,450.0,0.0,0.0
749,49.0,12.0,450.0,0.0,0.0
750,61.0,240.0,240.0,1.0,0.0
751,63.0,126.0,240.0,1.0,0.0
752,54.0,6.0,240.0,0.0,0.0
753,57.0,0.0,240.0,0.0,0.0
754,51.0,0.0,240.0,0.0,0.0
755,36.0,0.0,240.0,0.0,0.0
756,61.0,114.0,120.0,1.0,0.0
757,60.0,234.0,120.0,1.0,0.0
758,37.0,0.0,240.0,0.0,0.0
759,53.0,0.0,240.0,0.0,0.0
760,58.0,12.0,450.0,0.0,0.0
761,58.0,228.0,240.0,1.0,0.0
762,39.0,0.0,240.0,0.0,0.0
763,54.0,0.0,240.0,0.0,0.0
764,66.0,126.0,240.0,1.0,0.0
765,48.0,12.0,450.0,0.0,0.0
766,65.0,114.0,120.0,1.0,0.0
767,53.0,0.0,450.0,0.0,0.0
768,41.0,0.0,450.0,0.0,0.0
769,58.0,6.0,240.0,0.0,0.0
770,63.0,120.0,120.0,1.0,0.0
771,61.0,102.0,120.0,1.0,0.0
772,57.0,6.0,240.0,0.0,0.0
773,60.0,234.0,120.0,1.0,0.0
774,34.0,0.0,450.0,0.0,0.0
775,58.0,0.0,450.0,0.0,0.0
776,53.0,0.0,450.0,0.0,0.0
777,60.0,228.0,240.0,1.0,0.0
778,49.0,12.0,450.0,0.0,0.0
779,58.0,240.0,240.0,1.0,0.0
780,65.0,240.0,240.0,0.0,0.0
781,77.0,0.0,240.0,0.0,0.0
782,61.0,240.0,240.0,0.0,0.0
783,58.0,0.0,240.0,0.0,0.0
784,70.0,0.0,240.0,0.0,0.0
785,72.0,240.0,240.0,0.0,0.0
786,53.0,0.0,240.0,0.0,0.0
787,60.0,0.0,240.0,0.0,0.0
788,65.0,126.0,20.0,0.0,0.0
789,51.0,120.0,120.0,0.0,0.0
790,63.0,0.0,120.0,0.0,0.0
791,61.0,0.0,120.0,0.0,0.0
792,49.0,6.0,120.0,0.0,0.0
793,48.0,120.0,120.0,0.0,0.0
794,60.0,0.0,120.0,0.0,0.0
795,58.0,234.0,120.0,0.0,0.0
796,46.0,0.0,120.0,0.0,0.0
797,48.0,240.0,240.0,0.0,0.0
798,60.0,0.0,240.0,0.0,0.0
799,41.0,456.0,240.0,0.0,0.0
800,53.0,12.0,690.0,0.0,0.0
801,48.0,0.0,450.0,0.0,0.0
802,41.0,252.0,450.0,0.0,0.0
803,65.0,0.0,450.0,0.0,0.0
804,57.0,0.0,450.0,0.0,0.0
805,58.0,220.0,240.0,0.0,0.0
806,46.0,12.0,450.0,0.0,0.0
807,65.0,0.0,450.0,0.0,0.0
808,56.0,8.0,30.0,0.0,0.0
809,54.0,252.0,20.0,0.0,0.0
810,41.0,0.0,930.0,0.0,0.0
811,48.0,0.0,930.0,0.0,0.0
812,53.0,252.0,930.0,0.0,0.0
813,65.0,0.0,930.0,0.0,0.0
814,65.0,0.0,240.0,0.0,0.0
815,61.0,0.0,240.0,0.0,0.0
816,53.0,0.0,240.0,0.0,0.0
817,65.0,0.0,240.0,1.0,0.0
818,46.0,240.0,240.0,0.0,0.0
819,63.0,0.0,240.0,0.0,0.0
820,60.0,0.0,240.0,0.0,0.0
821,45.0,240.0,240.0,0.0,0.0
822,54.0,0.0,240.0,0.0,0.0
823,63.0,0.0,240.0,1.0,0.0
824,61.0,0.0,240.0,0.0,0.0
825,58.0,0.0,240.0,0.0,0.0
826,46.0,240.0,240.0,0.0,0.0
827,53.0,0.0,240.0,0.0,0.0
828,61.0,0.0,240.0,1.0,0.0
829,51.0,0.0,240.0,0.0,0.0
830,60.0,0.0,240.0,0.0,0.0
831,41.0,0.0,240.0,0.0,0.0
832,60.0,0.0,240.0,1.0,0.0
833,57.0,240.0,240.0,0.0,0.0
834,58.0,0.0,240.0,1.0,0.0
835,49.0,126.0,240.0,0.0,0.0
836,42.0,0.0,240.0,0.0,0.0
837,58.0,0.0,240.0,0.0,0.0
838,41.0,114.0,120.0,0.0,0.0
839,57.0,0.0,240.0,0.0,0.0
840,60.0,6.0,240.0,1.0,0.0
841,60.0,0.0,240.0,0.0,0.0
842,39.0,120.0,120.0,0.0,0.0
843,61.0,6.0,240.0,0.0,0.0
844,58.0,0.0,240.0,0.0,0.0
845,37.0,114.0,120.0,0.0,0.0
846,61.0,0.0,240.0,1.0,0.0
847,36.0,234.0,120.0,0.0,0.0
848,53.0,0.0,240.0,0.0,0.0
849,34.0,0.0,240.0,0.0,0.0
850,58.0,0.0,240.0,0.0,0.0
851,61.0,0.0,240.0,1.0,0.0
852,61.0,240.0,240.0,0.0,0.0
853,63.0,0.0,450.0,0.0,0.0
854,44.0,0.0,450.0,0.0,0.0
855,32.0,12.0,450.0,0.0,0.0
856,60.0,0.0,450.0,0.0,0.0
857,51.0,228.0,240.0,0.0,0.0
858,63.0,0.0,240.0,1.0,0.0
859,56.0,0.0,240.0,0.0,0.0
860,63.0,240.0,240.0,1.0,0.0
861,58.0,0.0,240.0,0.0,0.0
862,54.0,0.0,240.0,0.0,0.0
863,37.0,0.0,450.0,0.0,0.0
864,56.0,12.0,450.0,0.0,0.0
865,53.0,0.0,450.0,0.0,0.0
866,65.0,228.0,240.0,1.0,0.0
867,61.0,0.0,450.0,0.0,0.0
868,65.0,126.0,240.0,1.0,0.0
869,61.0,6.0,240.0,0.0,0.0
870,54.0,0.0,450.0,0.0,0.0
871,65.0,114.0,120.0,1.0,0.0
872,39.0,12.0,450.0,0.0,0.0
873,63.0,120.0,120.0,1.0,0.0
874,60.0,6.0,240.0,0.0,0.0
875,61.0,102.0,120.0,1.0,0.0
876,60.0,234.0,120.0,1.0,0.0
877,58.0,228.0,240.0,0.0,0.0
878,41.0,12.0,450.0,0.0,0.0
879,53.0,0.0,450.0,0.0,0.0
880,58.0,0.0,240.0,1.0,0.0
881,57.0,0.0,240.0,0.0,0.0
882,57.0,240.0,240.0,1.0,0.0
883,65.0,228.0,240.0,1.0,0.0
884,37.0,12.0,450.0,0.0,0.0
885,44.0,0.0,450.0,0.0,0.0
886,49.0,0.0,450.0,0.0,0.0
887,56.0,0.0,450.0,0.0,0.0
888,53.0,0.0,450.0,0.0,0.0
889,63.0,240.0,240.0,1.0,0.0
890,49.0,0.0,240.0,0.0,0.0
891,53.0,0.0,240.0,0.0,0.0
892,56.0,0.0,240.0,0.0,0.0
893,44.0,240.0,240.0,0.0,0.0
894,37.0,0.0,240.0,0.0,0.0
895,61.0,0.0,240.0,1.0,0.0
896,44.0,0.0,240.0,0.0,0.0
897,37.0,240.0,240.0,0.0,0.0
898,53.0,0.0,240.0,0.0,0.0
899,56.0,0.0,240.0,0.0,0.0
900,60.0,0.0,240.0,1.0,0.0
901,56.0,0.0,240.0,0.0,0.0
902,44.0,0.0,240.0,0.0,0.0
903,37.0,0.0,240.0,0.0,0.0
904,58.0,240.0,240.0,1.0,0.0
905,54.0,0.0,240.0,0.0,0.0
906,60.0,0.0,240.0,1.0,0.0
907,51.0,0.0,240.0,0.0,0.0
908,37.0,0.0,240.0,0.0,0.0
909,54.0,240.0,240.0,0.0,0.0
910,56.0,0.0,240.0,0.0,0.0
911,61.0,0.0,240.0,1.0,0.0
912,56.0,240.0,240.0,0.0,0.0
913,37.0,0.0,240.0,0.0,0.0
914,49.0,0.0,240.0,0.0,0.0
915,53.0,0.0,240.0,0.0,0.0
916,63.0,240.0,240.0,1.0,0.0
917,53.0,0.0,450.0,0.0,0.0
918,57.0,0.0,450.0,0.0,0.0
919,48.0,0.0,450.0,0.0,0.0
920,41.0,18.0,450.0,0.0,0.0
921,60.0,126.0,240.0,1.0,0.0
922,61.0,102.0,120.0,1.0,0.0
923,60.0,234.0,120.0,1.0,0.0
924,58.0,126.0,240.0,1.0,0.0
925,53.0,0.0,450.0,0.0,0.0
926,58.0,18.0,450.0,0.0,0.0
927,49.0,0.0,450.0,0.0,0.0
928,41.0,0.0,450.0,0.0,0.0
929,61.0,102.0,120.0,1.0,0.0
930,63.0,234.0,120.0,1.0,0.0
931,65.0,0.0,240.0,1.0,0.0
932,48.0,228.0,240.0,0.0,0.0
933,57.0,12.0,450.0,0.0,0.0
934,53.0,0.0,240.0,0.0,0.0
935,41.0,0.0,240.0,0.0,0.0
936,39.0,0.0,240.0,0.0,0.0
937,48.0,240.0,240.0,0.0,0.0
938,54.0,0.0,240.0,0.0,0.0
939,60.0,0.0,240.0,1.0,0.0
940,49.0,12.0,450.0,0.0,0.0
941,58.0,0.0,450.0,0.0,0.0
942,53.0,0.0,450.0,0.0,0.0
943,37.0,0.0,450.0,0.0,0.0
944,65.0,228.0,240.0,1.0,0.0
945,61.0,240.0,240.0,1.0,0.0
946,63.0,126.0,240.0,1.0,0.0
947,61.0,114.0,120.0,1.0,0.0
948,36.0,0.0,240.0,0.0,0.0
949,51.0,6.0,240.0,0.0,0.0
950,54.0,0.0,240.0,0.0,0.0
951,57.0,0.0,240.0,0.0,0.0
952,60.0,234.0,120.0,1.0,0.0
953,53.0,228.0,240.0,0.0,0.0
954,37.0,0.0,240.0,0.0,0.0
955,58.0,0.0,240.0,1.0,0.0
956,58.0,12.0,450.0,0.0,0.0
957,54.0,126.0,240.0,0.0,0.0
958,39.0,0.0,240.0,0.0,0.0
959,66.0,0.0,240.0,1.0,0.0
960,41.0,12.0,450.0,0.0,0.0
961,53.0,0.0,450.0,0.0,0.0
962,48.0,0.0,450.0,0.0,0.0
963,58.0,6.0,240.0,0.0,0.0
964,65.0,114.0,120.0,1.0,0.0
965,63.0,120.0,120.0,1.0,0.0
966,61.0,102.0,120.0,1.0,0.0
967,57.0,6.0,240.0,0.0,0.0
968,60.0,234.0,120.0,1.0,0.0
969,60.0,228.0,240.0,1.0,0.0
970,49.0,12.0,450.0,0.0,0.0
971,34.0,0.0,450.0,0.0,0.0
972,53.0,0.0,450.0,0.0,0.0
973,58.0,0.0,450.0,0.0,0.0
974,58.0,240.0,240.0,1.0,0.0
975,77.0,0.0,240.0,0.0,0.0
976,65.0,240.0,240.0,0.0,0.0
977,61.0,240.0,240.0,0.0,0.0
978,58.0,0.0,240.0,0.0,0.0
979,70.0,0.0,240.0,0.0,0.0
980,60.0,0.0,240.0,0.0,0.0
981,53.0,0.0,240.0,0.0,0.0
982,72.0,240.0,240.0,0.0,0.0
983,65.0,126.0,20.0,0.0,0.0
984,51.0,0.0,120.0,0.0,0.0
985,63.0,120.0,120.0,0.0,0.0
986,49.0,6.0,120.0,0.0,0.0
987,61.0,0.0,120.0,0.0,0.0
988,48.0,120.0,120.0,0.0,0.0
989,60.0,0.0,120.0,0.0,0.0
990,46.0,234.0,120.0,0.0,0.0
991,58.0,0.0,120.0,0.0,0.0
992,48.0,0.0,240.0,0.0,0.0
993,60.0,240.0,240.0,0.0,0.0
994,41.0,456.0,240.0,0.0,0.0
995,53.0,12.0,690.0,0.0,0.0
996,57.0,0.0,450.0,0.0,0.0
997,65.0,0.0,450.0,0.0,0.0
998,41.0,252.0,450.0,0.0,0.0
999,48.0,0.0,450.0,0.0,0.0
1000,58.0,220.0,240.0,0.0,0.0
1001,65.0,0.0,450.0,0.0,0.0
1002,46.0,12.0,450.0,0.0,0.0
1003,56.0,8.0,30.0,0.0,0.0
1004,54.0,252.0,20.0,0.0,0.0
1005,53.0,252.0,930.0,0.0,0.0
1006,65.0,0.0,930.0,0.0,0.0
1007,48.0,0.0,930.0,0.0,0.0
1008,41.0,0.0,930.0,0.0,0.0
1009,65.0,0.0,240.0,1.0,0.0
1010,53.0,0.0,240.0,0.0,0.0
1011,46.0,0.0,240.0,0.0,0.0
1012,61.0,0.0,240.0,0.0,0.0
1013,65.0,240.0,240.0,0.0,0.0
1014,63.0,0.0,240.0,1.0,0.0
1015,63.0,240.0,240.0,0.0,0.0
1016,60.0,0.0,240.0,0.0,0.0
1017,45.0,0.0,240.0,0.0,0.0
1018,54.0,0.0,240.0,0.0,0.0
1019,61.0,0.0,240.0,0.0,0.0
1020,58.0,0.0,240.0,0.0,0.0
1021,53.0,240.0,240.0,0.0,0.0
1022,46.0,0.0,240.0,0.0,0.0
1023,61.0,0.0,240.0,1.0,0.0
1024,60.0,0.0,240.0,1.0,0.0
1025,60.0,240.0,240.0,0.0,0.0
1026,57.0,0.0,240.0,0.0,0.0
1027,41.0,0.0,240.0,0.0,0.0
1028,51.0,0.0,240.0,0.0,0.0
1029,42.0,126.0,240.0,0.0,0.0
1030,58.0,0.0,240.0,0.0,0.0
1031,49.0,0.0,240.0,0.0,0.0
1032,58.0,0.0,240.0,1.0,0.0
1033,57.0,0.0,240.0,0.0,0.0
1034,60.0,0.0,240.0,0.0,0.0
1035,41.0,114.0,120.0,0.0,0.0
1036,60.0,6.0,240.0,1.0,0.0
1037,39.0,120.0,120.0,0.0,0.0
1038,61.0,6.0,240.0,0.0,0.0
1039,58.0,0.0,240.0,0.0,0.0
1040,37.0,114.0,120.0,0.0,0.0
1041,61.0,0.0,240.0,1.0,0.0
1042,36.0,234.0,120.0,0.0,0.0
1043,53.0,0.0,240.0,0.0,0.0
1044,61.0,0.0,240.0,1.0,0.0
1045,61.0,240.0,240.0,0.0,0.0
1046,58.0,0.0,240.0,0.0,0.0
1047,34.0,0.0,240.0,0.0,0.0
1048,60.0,0.0,450.0,0.0,0.0
1049,63.0,0.0,450.0,0.0,0.0
1050,44.0,12.0,450.0,0.0,0.0
1051,32.0,0.0,450.0,0.0,0.0
1052,56.0,0.0,240.0,0.0,0.0
1053,51.0,228.0,240.0,0.0,0.0
1054,63.0,0.0,240.0,1.0,0.0
1055,54.0,0.0,240.0,0.0,0.0
1056,58.0,0.0,240.0,0.0,0.0
1057,63.0,240.0,240.0,1.0,0.0
1058,65.0,228.0,240.0,1.0,0.0
1059,61.0,0.0,450.0,0.0,0.0
1060,56.0,12.0,450.0,0.0,0.0
1061,37.0,0.0,450.0,0.0,0.0
1062,53.0,0.0,450.0,0.0,0.0
1063,65.0,126.0,240.0,1.0,0.0
1064,61.0,6.0,240.0,0.0,0.0
1065,39.0,0.0,450.0,0.0,0.0
1066,54.0,12.0,450.0,0.0,0.0
1067,65.0,114.0,120.0,1.0,0.0
1068,63.0,120.0,120.0,1.0,0.0
1069,60.0,6.0,240.0,0.0,0.0
1070,61.0,102.0,120.0,1.0,0.0
1071,60.0,234.0,120.0,1.0,0.0
1072,41.0,0.0,450.0,0.0,0.0
1073,58.0,228.0,240.0,0.0,0.0
1074,58.0,0.0,240.0,1.0,0.0
1075,53.0,12.0,450.0,0.0,0.0
1076,57.0,240.0,240.0,1.0,0.0
1077,57.0,0.0,240.0,0.0,0.0
1078,65.0,228.0,240.0,1.0,0.0
1079,56.0,12.0,450.0,0.0,0.0
1080,53.0,0.0,450.0,0.0,0.0
1081,49.0,0.0,450.0,0.0,0.0
1082,44.0,0.0,450.0,0.0,0.0
1083,37.0,0.0,450.0,0.0,0.0
1084,63.0,240.0,240.0,1.0,0.0
1085,49.0,0.0,240.0,0.0,0.0
1086,61.0,0.0,240.0,1.0,0.0
1087,53.0,0.0,240.0,0.0,0.0
1088,56.0,0.0,240.0,0.0,0.0
1089,44.0,0.0,240.0,0.0,0.0
1090,37.0,240.0,240.0,0.0,0.0
1091,53.0,0.0,240.0,0.0,0.0
1092,60.0,240.0,240.0,1.0,0.0
1093,44.0,0.0,240.0,0.0,0.0
1094,37.0,0.0,240.0,0.0,0.0
1095,56.0,0.0,240.0,0.0,0.0
1096,58.0,0.0,240.0,1.0,0.0
1097,54.0,0.0,240.0,0.0,0.0
1098,56.0,0.0,240.0,0.0,0.0
1099,44.0,240.0,240.0,0.0,0.0
1100,37.0,0.0,240.0,0.0,0.0
1101,60.0,240.0,240.0,1.0,0.0
1102,37.0,0.0,240.0,0.0,0.0
1103,51.0,0.0,240.0,0.0,0.0
1104,54.0,0.0,240.0,0.0,0.0
1105,56.0,0.0,240.0,0.0,0.0
1106,61.0,240.0,240.0,1.0,0.0
1107,56.0,0.0,240.0,0.0,0.0
1108,53.0,0.0,240.0,0.0,0.0
1109,49.0,0.0,240.0,0.0,0.0
1110,37.0,0.0,240.0,0.0,0.0
1111,63.0,240.0,240.0,1.0,0.0
1112,57.0,0.0,450.0,0.0,0.0
1113,53.0,0.0,450.0,0.0,0.0
1114,48.0,0.0,450.0,0.0,0.0
1115,41.0,18.0,450.0,0.0,0.0
1116,60.0,126.0,240.0,1.0,0.0
1117,61.0,102.0,120.0,1.0,0.0
1118,60.0,234.0,120.0,1.0,0.0
1119,49.0,0.0,450.0,0.0,0.0
1120,53.0,18.0,450.0,0.0,0.0
1121,41.0,0.0,450.0,0.0,0.0
1122,58.0,126.0,240.0,1.0,0.0
1123,58.0,0.0,450.0,0.0,0.0
1124,61.0,102.0,120.0,1.0,0.0
1125,63.0,234.0,120.0,1.0,0.0
1126,41.0,0.0,240.0,0.0,0.0
1127,57.0,12.0,450.0,0.0,0.0
1128,48.0,0.0,240.0,0.0,0.0
1129,65.0,228.0,240.0,1.0,0.0
1130,53.0,0.0,240.0,0.0,0.0
1131,48.0,0.0,240.0,0.0,0.0
1132,54.0,0.0,240.0,0.0,0.0
1133,39.0,240.0,240.0,0.0,0.0
1134,60.0,0.0,240.0,1.0,0.0
1135,58.0,12.0,450.0,0.0,0.0
1136,53.0,0.0,450.0,0.0,0.0
1137,49.0,0.0,450.0,0.0,0.0
1138,37.0,0.0,450.0,0.0,0.0
1139,65.0,228.0,240.0,1.0,0.0
1140,61.0,240.0,240.0,1.0,0.0
1141,63.0,126.0,240.0,1.0,0.0
1142,54.0,0.0,240.0,0.0,0.0
1143,61.0,114.0,120.0,1.0,0.0
1144,36.0,0.0,240.0,0.0,0.0
1145,57.0,6.0,240.0,0.0,0.0
1146,51.0,0.0,240.0,0.0,0.0
1147,60.0,234.0,120.0,1.0,0.0
1148,37.0,0.0,240.0,0.0,0.0
1149,58.0,12.0,450.0,0.0,0.0
1150,58.0,0.0,240.0,1.0,0.0
1151,53.0,228.0,240.0,0.0,0.0
1152,39.0,0.0,240.0,0.0,0.0
1153,54.0,126.0,240.0,0.0,0.0
1154,66.0,0.0,240.0,1.0,0.0
1155,41.0,0.0,450.0,0.0,0.0
1156,53.0,0.0,450.0,0.0,0.0
1157,58.0,6.0,240.0,0.0,0.0
1158,48.0,12.0,450.0,0.0,0.0
1159,65.0,114.0,120.0,1.0,0.0
1160,63.0,120.0,120.0,1.0,0.0
1161,57.0,6.0,240.0,0.0,0.0
1162,61.0,102.0,120.0,1.0,0.0
1163,60.0,234.0,120.0,1.0,0.0
1164,60.0,228.0,240.0,1.0,0.0
1165,34.0,0.0,450.0,0.0,0.0
1166,53.0,0.0,450.0,0.0,0.0
1167,49.0,0.0,450.0,0.0,0.0
1168,58.0,12.0,450.0,0.0,0.0
1169,58.0,240.0,240.0,1.0,0.0
1170,65.0,240.0,240.0,0.0,0.0
1171,77.0,0.0,240.0,0.0,0.0
1172,58.0,0.0,240.0,0.0,0.0
1173,70.0,240.0,240.0,0.0,0.0
1174,61.0,0.0,240.0,0.0,0.0
1175,53.0,240.0,240.0,0.0,0.0
1176,72.0,0.0,240.0,0.0,0.0
1177,60.0,0.0,240.0,0.0,0.0
1178,65.0,126.0,20.0,0.0,0.0
1179,63.0,120.0,120.0,0.0,0.0
1180,51.0,0.0,120.0,0.0,0.0
1181,49.0,0.0,120.0,0.0,0.0
1182,61.0,6.0,120.0,0.0,0.0
1183,48.0,0.0,120.0,0.0,0.0
1184,60.0,120.0,120.0,0.0,0.0
1185,58.0,234.0,120.0,0.0,0.0
1186,46.0,0.0,120.0,0.0,0.0
1187,48.0,240.0,240.0,0.0,0.0
1188,60.0,0.0,240.0,0.0,0.0
1189,41.0,456.0,240.0,0.0,0.0
1190,53.0,12.0,690.0,0.0,0.0
1191,48.0,0.0,450.0,0.0,0.0
1192,41.0,0.0,450.0,0.0,0.0
1193,65.0,0.0,450.0,0.0,0.0
1194,57.0,252.0,450.0,0.0,0.0
1195,58.0,220.0,240.0,0.0,0.0
1196,46.0,12.0,450.0,0.0,0.0
1197,65.0,0.0,450.0,0.0,0.0
1198,56.0,8.0,30.0,0.0,0.0
1199,54.0,252.0,20.0,0.0,0.0
1200,53.0,252.0,930.0,0.0,0.0
1201,65.0,0.0,930.0,0.0,0.0
1202,48.0,0.0,930.0,0.0,0.0
1203,41.0,0.0,930.0,0.0,0.0
1204,61.0,0.0,240.0,0.0,0.0
1205,65.0,0.0,240.0,0.0,0.0
1206,53.0,0.0,240.0,0.0,0.0
1207,65.0,240.0,240.0,1.0,0.0
1208,46.0,0.0,240.0,0.0,0.0
1209,54.0,0.0,240.0,0.0,0.0
1210,63.0,240.0,240.0,1.0,0.0
1211,60.0,0.0,240.0,0.0,0.0
1212,45.0,0.0,240.0,0.0,0.0
1213,63.0,0.0,240.0,0.0,0.0
1214,61.0,0.0,240.0,1.0,0.0
1215,46.0,0.0,240.0,0.0,0.0
1216,58.0,0.0,240.0,0.0,0.0
1217,61.0,0.0,240.0,0.0,0.0
1218,53.0,240.0,240.0,0.0,0.0
1219,60.0,0.0,240.0,1.0,0.0
1220,41.0,0.0,240.0,0.0,0.0
1221,51.0,240.0,240.0,0.0,0.0
1222,57.0,0.0,240.0,0.0,0.0
1223,60.0,0.0,240.0,0.0,0.0
1224,42.0,0.0,240.0,0.0,0.0
1225,58.0,0.0,240.0,0.0,0.0
1226,58.0,126.0,240.0,1.0,0.0
1227,49.0,0.0,240.0,0.0,0.0
1228,60.0,6.0,240.0,1.0,0.0
1229,60.0,0.0,240.0,0.0,0.0
1230,41.0,114.0,120.0,0.0,0.0
1231,57.0,0.0,240.0,0.0,0.0
1232,39.0,120.0,120.0,0.0,0.0
1233,61.0,0.0,240.0,1.0,0.0
1234,61.0,6.0,240.0,0.0,0.0
1235,37.0,114.0,120.0,0.0,0.0
1236,58.0,0.0,240.0,0.0,0.0
1237,36.0,234.0,120.0,0.0,0.0
1238,34.0,0.0,240.0,0.0,0.0
1239,61.0,0.0,240.0,1.0,0.0
1240,61.0,240.0,240.0,0.0,0.0
1241,58.0,0.0,240.0,0.0,0.0
1242,53.0,0.0,240.0,0.0,0.0
1243,60.0,0.0,450.0,0.0,0.0
1244,63.0,12.0,450.0,0.0,0.0
1245,44.0,0.0,450.0,0.0,0.0
1246,32.0,0.0,450.0,0.0,0.0
1247,51.0,0.0,240.0,0.0,0.0
1248,56.0,228.0,240.0,0.0,0.0
1249,63.0,0.0,240.0,1.0,0.0
1250,63.0,0.0,240.0,1.0,0.0
1251,54.0,240.0,240.0,0.0,0.0
1252,58.0,0.0,240.0,0.0,0.0
1253,37.0,12.0,450.0,0.0,0.0
1254,53.0,0.0,450.0,0.0,0.0
1255,56.0,0.0,450.0,0.0,0.0
1256,61.0,0.0,450.0,0.0,0.0
1257,65.0,228.0,240.0,1.0,0.0
1258,65.0,126.0,240.0,1.0,0.0
1259,65.0,114.0,120.0,1.0,0.0
1260,39.0,0.0,450.0,0.0,0.0
1261,61.0,6.0,240.0,0.0,0.0
1262,54.0,12.0,450.0,0.0,0.0
1263,63.0,120.0,120.0,1.0,0.0
1264,61.0,102.0,120.0,1.0,0.0
1265,60.0,6.0,240.0,0.0,0.0
1266,60.0,234.0,120.0,1.0,0.0
1267,41.0,12.0,450.0,0.0,0.0
1268,58.0,0.0,240.0,0.0,0.0
1269,58.0,228.0,240.0,1.0,0.0
1270,53.0,0.0,450.0,0.0,0.0
1271,57.0,240.0,240.0,0.0,0.0
1272,57.0,0.0,240.0,1.0,0.0
1273,65.0,228.0,240.0,1.0,0.0
1274,56.0,0.0,450.0,0.0,0.0
1275,53.0,12.0,450.0,0.0,0.0
1276,49.0,0.0,450.0,0.0,0.0
1277,44.0,0.0,450.0,0.0,0.0
1278,37.0,0.0,450.0,0.0,0.0
1279,63.0,240.0,240.0,1.0,0.0
1280,61.0,0.0,240.0,1.0,0.0
1281,56.0,0.0,240.0,0.0,0.0
1282,49.0,0.0,240.0,0.0,0.0
1283,53.0,0.0,240.0,0.0,0.0
1284,44.0,0.0,240.0,0.0,0.0
1285,37.0,240.0,240.0,0.0,0.0
1286,44.0,0.0,240.0,0.0,0.0
1287,37.0,0.0,240.0,0.0,0.0
1288,53.0,0.0,240.0,0.0,0.0
1289,56.0,240.0,240.0,0.0,0.0
1290,60.0,0.0,240.0,1.0,0.0
1291,58.0,240.0,240.0,1.0,0.0
1292,37.0,0.0,240.0,0.0,0.0
1293,44.0,0.0,240.0,0.0,0.0
1294,56.0,0.0,240.0,0.0,0.0
1295,54.0,0.0,240.0,0.0,0.0
1296,51.0,0.0,240.0,0.0,0.0
1297,37.0,0.0,240.0,0.0,0.0
1298,54.0,0.0,240.0,0.0,0.0
1299,56.0,0.0,240.0,0.0,0.0
1300,60.0,240.0,240.0,1.0,0.0
1301,56.0,0.0,240.0,0.0,0.0
1302,53.0,240.0,240.0,0.0,0.0
1303,37.0,0.0,240.0,0.0,0.0
1304,61.0,0.0,240.0,1.0,0.0
1305,49.0,0.0,240.0,0.0,0.0
1306,63.0,240.0,240.0,1.0,0.0
1307,41.0,0.0,450.0,0.0,0.0
1308,48.0,0.0,450.0,0.0,0.0
1309,57.0,0.0,450.0,0.0,0.0
1310,60.0,126.0,240.0,1.0,0.0
1311,53.0,18.0,450.0,0.0,0.0
1312,61.0,102.0,120.0,1.0,0.0
1313,60.0,234.0,120.0,1.0,0.0
1314,58.0,18.0,450.0,0.0,0.0
1315,53.0,0.0,450.0,0.0,0.0
1316,49.0,0.0,450.0,0.0,0.0
1317,41.0,0.0,450.0,0.0,0.0
1318,58.0,126.0,240.0,1.0,0.0
1319,61.0,102.0,120.0,1.0,0.0
1320,63.0,234.0,120.0,1.0,0.0
1321,41.0,0.0,240.0,0.0,0.0
1322,48.0,0.0,240.0,0.0,0.0
1323,57.0,12.0,450.0,0.0,0.0
1324,53.0,0.0,240.0,0.0,0.0
1325,65.0,228.0,240.0,1.0,0.0
1326,60.0,240.0,240.0,1.0,0.0
1327,48.0,0.0,240.0,0.0,0.0
1328,39.0,0.0,240.0,0.0,0.0
1329,54.0,0.0,240.0,0.0,0.0
1330,65.0,228.0,240.0,1.0,0.0
1331,37.0,0.0,450.0,0.0,0.0
1332,58.0,0.0,450.0,0.0,0.0
1333,53.0,0.0,450.0,0.0,0.0
1334,49.0,12.0,450.0,0.0,0.0
1335,61.0,240.0,240.0,1.0,0.0
1336,63.0,126.0,240.0,1.0,0.0
1337,61.0,114.0,120.0,1.0,0.0
1338,54.0,0.0,240.0,0.0,0.0
1339,36.0,0.0,240.0,0.0,0.0
1340,57.0,6.0,240.0,0.0,0.0
1341,51.0,0.0,240.0,0.0,0.0
1342,60.0,234.0,120.0,1.0,0.0
1343,58.0,0.0,240.0,1.0,0.0
1344,37.0,0.0,240.0,0.0,0.0
1345,53.0,228.0,240.0,0.0,0.0
1346,58.0,12.0,450.0,0.0,0.0
1347,66.0,126.0,240.0,1.0,0.0
1348,39.0,0.0,240.0,0.0,0.0
1349,54.0,0.0,240.0,0.0,0.0
1350,65.0,114.0,120.0,1.0,0.0
1351,58.0,6.0,240.0,0.0,0.0
1352,48.0,12.0,450.0,0.0,0.0
1353,53.0,0.0,450.0,0.0,0.0
1354,41.0,0.0,450.0,0.0,0.0
1355,63.0,120.0,120.0,1.0,0.0
1356,61.0,102.0,120.0,1.0,0.0
1357,57.0,6.0,240.0,0.0,0.0
1358,60.0,234.0,120.0,1.0,0.0
1359,53.0,0.0,450.0,0.0,0.0
1360,34.0,12.0,450.0,0.0,0.0
1361,58.0,0.0,450.0,0.0,0.0
1362,60.0,228.0,240.0,1.0,0.0
1363,49.0,0.0,450.0,0.0,0.0
1364,58.0,240.0,240.0,1.0,0.0
1365,65.0,240.0,240.0,0.0,0.0
1366,77.0,0.0,240.0,0.0,0.0
1367,70.0,0.0,240.0,0.0,0.0
1368,58.0,240.0,240.0,0.0,0.0
1369,61.0,0.0,240.0,0.0,0.0
1370,72.0,0.0,240.0,0.0,0.0
1371,60.0,240.0,240.0,0.0,0.0
1372,53.0,0.0,240.0,0.0,0.0
1373,65.0,126.0,20.0,0.0,0.0
1374,63.0,120.0,120.0,0.0,0.0
1375,51.0,0.0,120.0,0.0,0.0
1376,49.0,6.0,120.0,0.0,0.0
1377,61.0,0.0,120.0,0.0,0.0
1378,48.0,120.0,120.0,0.0,0.0
1379,60.0,0.0,120.0,0.0,0.0
1380,58.0,0.0,120.0,0.0,0.0
1381,46.0,234.0,120.0,0.0,0.0
1382,48.0,0.0,240.0,0.0,0.0
1383,60.0,240.0,240.0,0.0,0.0
1384,53.0,468.0,240.0,0.0,0.0
1385,41.0,0.0,240.0,0.0,0.0
1386,65.0,0.0,930.0,0.0,0.0
1387,41.0,960.0,930.0,0.0,0.0
1388,48.0,0.0,450.0,0.0,0.0
1389,57.0,480.0,450.0,0.0,0.0
1390,49.0,0.0,450.0,0.0,0.0
1391,58.0,0.0,450.0,0.0,0.0
1392,61.0,0.0,930.0,0.0,0.0
1393,70.0,24.0,930.0,0.0,0.0
1394,41.0,0.0,930.0,0.0,0.0
1395,34.0,0.0,930.0,0.0,0.0
