,note,step,duration,channel,velocity
0,33.0,240.0,1680.0,0.0,0.0
1,45.0,0.0,1680.0,0.0,0.0
2,36.0,0.0,240.0,0.0,0.0
3,36.0,120.0,1920.0,0.0,0.0
4,24.0,1920.0,15.0,0.0,0.0
5,57.0,0.0,960.0,0.0,0.0
6,52.0,0.0,960.0,0.0,0.0
7,45.0,0.0,15.0,0.0,0.0
8,45.0,1800.0,15.0,0.0,0.0
9,47.0,0.0,3600.0,0.0,0.0
10,53.0,0.0,3480.0,0.0,0.0
11,25.0,120.0,3360.0,0.0,0.0
12,37.0,0.0,3360.0,0.0,0.0
13,57.0,1920.0,1440.0,0.0,0.0
14,44.0,0.0,1920.0,0.0,0.0
15,56.0,0.0,1920.0,0.0,0.0
16,42.0,0.0,120.0,0.0,0.0
17,30.0,120.0,120.0,0.0,0.0
18,49.0,120.0,120.0,0.0,0.0
19,54.0,0.0,120.0,0.0,0.0
20,45.0,0.0,120.0,0.0,0.0
21,57.0,120.0,120.0,0.0,0.0
22,37.0,120.0,120.0,0.0,0.0
23,30.0,120.0,120.0,0.0,0.0
24,42.0,0.0,120.0,0.0,0.0
25,49.0,120.0,120.0,0.0,0.0
26,45.0,0.0,120.0,0.0,0.0
27,57.0,120.0,120.0,0.0,0.0
28,54.0,0.0,120.0,0.0,0.0
29,37.0,120.0,120.0,0.0,0.0
30,30.0,120.0,120.0,0.0,0.0
31,42.0,0.0,120.0,0.0,0.0
32,49.0,120.0,120.0,0.0,0.0
33,45.0,0.0,120.0,0.0,0.0
34,57.0,120.0,120.0,0.0,0.0
35,54.0,0.0,120.0,0.0,0.0
36,37.0,120.0,120.0,0.0,0.0
37,30.0,0.0,120.0,0.0,0.0
38,42.0,120.0,120.0,0.0,0.0
39,49.0,120.0,120.0,0.0,0.0
40,45.0,120.0,120.0,0.0,0.0
41,54.0,0.0,120.0,0.0,0.0
42,57.0,0.0,120.0,0.0,0.0
43,37.0,120.0,120.0,0.0,0.0
44,42.0,0.0,120.0,0.0,0.0
45,30.0,120.0,120.0,0.0,0.0
46,49.0,120.0,120.0,0.0,0.0
47,57.0,120.0,120.0,0.0,0.0
48,45.0,0.0,120.0,0.0,0.0
49,54.0,0.0,120.0,0.0,0.0
50,37.0,120.0,120.0,0.0,0.0
51,42.0,0.0,120.0,0.0,0.0
52,30.0,120.0,120.0,0.0,0.0
53,49.0,120.0,120.0,0.0,0.0
54,54.0,120.0,120.0,0.0,0.0
55,57.0,0.0,120.0,0.0,0.0
56,45.0,0.0,120.0,0.0,0.0
57,37.0,120.0,120.0,0.0,0.0
58,42.0,0.0,120.0,0.0,0.0
59,30.0,120.0,120.0,0.0,0.0
60,49.0,120.0,120.0,0.0,0.0
61,45.0,0.0,120.0,0.0,0.0
62,57.0,0.0,120.0,0.0,0.0
63,54.0,120.0,120.0,0.0,0.0
64,37.0,120.0,120.0,0.0,0.0
65,42.0,120.0,120.0,0.0,0.0
66,30.0,0.0,120.0,0.0,0.0
67,49.0,120.0,120.0,0.0,0.0
68,54.0,0.0,120.0,0.0,0.0
69,57.0,0.0,120.0,0.0,0.0
70,45.0,120.0,120.0,0.0,0.0
71,49.0,120.0,120.0,0.0,0.0
72,69.0,0.0,120.0,0.0,0.0
73,42.0,60.0,120.0,0.0,0.0
74,66.0,60.0,60.0,0.0,0.0
75,49.0,120.0,120.0,0.0,0.0
76,57.0,120.0,120.0,0.0,0.0
77,54.0,0.0,120.0,0.0,0.0
78,49.0,0.0,120.0,0.0,0.0
79,68.0,120.0,120.0,0.0,0.0
80,42.0,60.0,120.0,0.0,0.0
81,69.0,0.0,120.0,0.0,0.0
82,49.0,120.0,120.0,0.0,0.0
83,66.0,60.0,60.0,0.0,0.0
84,57.0,120.0,120.0,0.0,0.0
85,54.0,0.0,120.0,0.0,0.0
86,49.0,120.0,120.0,0.0,0.0
87,69.0,0.0,120.0,0.0,0.0
88,42.0,60.0,120.0,0.0,0.0
89,66.0,60.0,60.0,0.0,0.0
90,49.0,120.0,120.0,0.0,0.0
91,54.0,120.0,120.0,0.0,0.0
92,57.0,0.0,120.0,0.0,0.0
93,68.0,0.0,120.0,0.0,0.0
94,49.0,120.0,120.0,0.0,0.0
95,42.0,60.0,120.0,0.0,0.0
96,69.0,0.0,120.0,0.0,0.0
97,66.0,60.0,60.0,0.0,0.0
98,49.0,120.0,120.0,0.0,0.0
99,57.0,0.0,120.0,0.0,0.0
100,54.0,120.0,120.0,0.0,0.0
101,49.0,120.0,120.0,0.0,0.0
102,42.0,0.0,120.0,0.0,0.0
103,69.0,60.0,120.0,0.0,0.0
104,66.0,60.0,60.0,0.0,0.0
105,49.0,120.0,120.0,0.0,0.0
106,57.0,0.0,120.0,0.0,0.0
107,54.0,120.0,120.0,0.0,0.0
108,49.0,120.0,120.0,0.0,0.0
109,68.0,0.0,120.0,0.0,0.0
110,69.0,60.0,120.0,0.0,0.0
111,42.0,0.0,120.0,0.0,0.0
112,78.0,60.0,60.0,0.0,0.0
113,49.0,120.0,120.0,0.0,0.0
114,54.0,0.0,120.0,0.0,0.0
115,57.0,120.0,120.0,0.0,0.0
116,49.0,120.0,120.0,0.0,0.0
117,44.0,0.0,120.0,0.0,0.0
118,77.0,60.0,120.0,0.0,0.0
119,50.0,120.0,120.0,0.0,0.0
120,68.0,60.0,60.0,0.0,0.0
121,53.0,0.0,120.0,0.0,0.0
122,59.0,120.0,120.0,0.0,0.0
123,50.0,0.0,120.0,0.0,0.0
124,69.0,120.0,120.0,0.0,0.0
125,71.0,60.0,120.0,0.0,0.0
126,44.0,0.0,120.0,0.0,0.0
127,68.0,60.0,60.0,0.0,0.0
128,50.0,120.0,120.0,0.0,0.0
129,59.0,120.0,120.0,0.0,0.0
130,53.0,0.0,120.0,0.0,0.0
131,50.0,120.0,120.0,0.0,0.0
132,74.0,60.0,120.0,0.0,0.0
133,44.0,0.0,120.0,0.0,0.0
134,47.0,120.0,120.0,0.0,0.0
135,68.0,60.0,60.0,0.0,0.0
136,59.0,0.0,120.0,0.0,0.0
137,53.0,120.0,120.0,0.0,0.0
138,69.0,120.0,120.0,0.0,0.0
139,47.0,0.0,120.0,0.0,0.0
140,71.0,60.0,120.0,0.0,0.0
141,44.0,0.0,120.0,0.0,0.0
142,50.0,120.0,120.0,0.0,0.0
143,68.0,60.0,60.0,0.0,0.0
144,53.0,0.0,120.0,0.0,0.0
145,59.0,120.0,120.0,0.0,0.0
146,50.0,120.0,120.0,0.0,0.0
147,74.0,0.0,120.0,0.0,0.0
148,44.0,60.0,120.0,0.0,0.0
149,68.0,60.0,60.0,0.0,0.0
150,47.0,120.0,120.0,0.0,0.0
151,59.0,120.0,120.0,0.0,0.0
152,53.0,0.0,120.0,0.0,0.0
153,47.0,120.0,120.0,0.0,0.0
154,69.0,0.0,120.0,0.0,0.0
155,71.0,60.0,120.0,0.0,0.0
156,44.0,0.0,120.0,0.0,0.0
157,50.0,120.0,120.0,0.0,0.0
158,68.0,60.0,60.0,0.0,0.0
159,59.0,0.0,120.0,0.0,0.0
160,53.0,120.0,120.0,0.0,0.0
161,50.0,120.0,120.0,0.0,0.0
162,74.0,0.0,120.0,0.0,0.0
163,44.0,60.0,120.0,0.0,0.0
164,68.0,60.0,60.0,0.0,0.0
165,47.0,120.0,120.0,0.0,0.0
166,53.0,0.0,120.0,0.0,0.0
167,59.0,120.0,120.0,0.0,0.0
168,47.0,0.0,120.0,0.0,0.0
169,69.0,120.0,120.0,0.0,0.0
170,44.0,60.0,120.0,0.0,0.0
171,71.0,0.0,120.0,0.0,0.0
172,50.0,120.0,120.0,0.0,0.0
173,80.0,60.0,60.0,0.0,0.0
174,59.0,0.0,120.0,0.0,0.0
175,53.0,120.0,120.0,0.0,0.0
176,50.0,120.0,120.0,0.0,0.0
177,80.0,120.0,240.0,0.0,0.0
178,45.0,60.0,120.0,0.0,0.0
179,49.0,0.0,120.0,0.0,0.0
180,69.0,60.0,60.0,0.0,0.0
181,61.0,0.0,120.0,0.0,0.0
182,53.0,120.0,120.0,0.0,0.0
183,49.0,120.0,120.0,0.0,0.0
184,71.0,0.0,120.0,0.0,0.0
185,78.0,120.0,240.0,0.0,0.0
186,73.0,0.0,120.0,0.0,0.0
187,45.0,60.0,120.0,0.0,0.0
188,49.0,0.0,120.0,0.0,0.0
189,69.0,60.0,60.0,0.0,0.0
190,61.0,120.0,120.0,0.0,0.0
191,54.0,0.0,120.0,0.0,0.0
192,49.0,120.0,120.0,0.0,0.0
193,48.0,0.0,120.0,0.0,0.0
194,81.0,0.0,120.0,0.0,0.0
195,69.0,60.0,120.0,0.0,0.0
196,57.0,120.0,120.0,0.0,0.0
197,80.0,60.0,60.0,0.0,0.0
198,75.0,0.0,60.0,0.0,0.0
199,63.0,120.0,120.0,0.0,0.0
200,69.0,120.0,120.0,0.0,0.0
201,48.0,0.0,120.0,0.0,0.0
202,78.0,0.0,120.0,0.0,0.0
203,49.0,0.0,120.0,0.0,0.0
204,77.0,60.0,120.0,0.0,0.0
205,73.0,0.0,120.0,0.0,0.0
206,56.0,120.0,120.0,0.0,0.0
207,80.0,0.0,60.0,0.0,0.0
208,68.0,60.0,60.0,0.0,0.0
209,65.0,120.0,120.0,0.0,0.0
210,49.0,120.0,120.0,0.0,0.0
211,74.0,60.0,120.0,0.0,0.0
212,62.0,0.0,120.0,0.0,0.0
213,41.0,0.0,120.0,0.0,0.0
214,50.0,120.0,120.0,0.0,0.0
215,73.0,0.0,60.0,0.0,0.0
216,68.0,60.0,60.0,0.0,0.0
217,59.0,120.0,120.0,0.0,0.0
218,62.0,0.0,120.0,0.0,0.0
219,71.0,120.0,120.0,0.0,0.0
220,41.0,0.0,120.0,0.0,0.0
221,42.0,0.0,120.0,0.0,0.0
222,69.0,60.0,120.0,0.0,0.0
223,66.0,0.0,120.0,0.0,0.0
224,49.0,120.0,120.0,0.0,0.0
225,73.0,0.0,60.0,0.0,0.0
226,61.0,60.0,60.0,0.0,0.0
227,57.0,120.0,120.0,0.0,0.0
228,42.0,120.0,120.0,0.0,0.0
229,81.0,0.0,120.0,0.0,0.0
230,69.0,0.0,120.0,0.0,0.0
231,48.0,60.0,120.0,0.0,0.0
232,75.0,0.0,60.0,0.0,0.0
233,57.0,120.0,120.0,0.0,0.0
234,80.0,60.0,60.0,0.0,0.0
235,63.0,120.0,120.0,0.0,0.0
236,69.0,120.0,120.0,0.0,0.0
237,78.0,0.0,120.0,0.0,0.0
238,48.0,0.0,120.0,0.0,0.0
239,49.0,60.0,120.0,0.0,0.0
240,73.0,0.0,120.0,0.0,0.0
241,77.0,0.0,120.0,0.0,0.0
242,68.0,0.0,60.0,0.0,0.0
243,80.0,60.0,60.0,0.0,0.0
244,56.0,120.0,120.0,0.0,0.0
245,65.0,120.0,120.0,0.0,0.0
246,49.0,120.0,120.0,0.0,0.0
247,41.0,0.0,120.0,0.0,0.0
248,74.0,0.0,120.0,0.0,0.0
249,62.0,60.0,120.0,0.0,0.0
250,68.0,0.0,60.0,0.0,0.0
251,50.0,120.0,120.0,0.0,0.0
252,73.0,60.0,60.0,0.0,0.0
253,59.0,120.0,120.0,0.0,0.0
254,62.0,120.0,120.0,0.0,0.0
255,71.0,0.0,120.0,0.0,0.0
256,41.0,0.0,120.0,0.0,0.0
257,42.0,60.0,120.0,0.0,0.0
258,70.0,0.0,120.0,0.0,0.0
259,66.0,0.0,120.0,0.0,0.0
260,73.0,60.0,60.0,0.0,0.0
261,69.0,0.0,60.0,0.0,0.0
262,61.0,0.0,60.0,0.0,0.0
263,49.0,120.0,120.0,0.0,0.0
264,57.0,120.0,120.0,0.0,0.0
265,42.0,120.0,120.0,0.0,0.0
266,39.0,0.0,120.0,0.0,0.0
267,85.0,60.0,120.0,0.0,0.0
268,73.0,0.0,120.0,0.0,0.0
269,78.0,0.0,120.0,0.0,0.0
270,72.0,60.0,60.0,0.0,0.0
271,84.0,0.0,60.0,0.0,0.0
272,44.0,120.0,120.0,0.0,0.0
273,45.0,120.0,120.0,0.0,0.0
274,54.0,0.0,120.0,0.0,0.0
275,81.0,120.0,120.0,0.0,0.0
276,69.0,0.0,120.0,0.0,0.0
277,39.0,0.0,120.0,0.0,0.0
278,80.0,0.0,120.0,0.0,0.0
279,72.0,0.0,120.0,0.0,0.0
280,68.0,60.0,120.0,0.0,0.0
281,66.0,0.0,60.0,0.0,0.0
282,78.0,60.0,60.0,0.0,0.0
283,44.0,120.0,120.0,0.0,0.0
284,45.0,120.0,120.0,0.0,0.0
285,54.0,120.0,120.0,0.0,0.0
286,78.0,0.0,120.0,0.0,0.0
287,66.0,60.0,120.0,0.0,0.0
288,39.0,0.0,120.0,0.0,0.0
289,76.0,60.0,60.0,0.0,0.0
290,72.0,0.0,60.0,0.0,0.0
291,44.0,120.0,120.0,0.0,0.0
292,45.0,120.0,120.0,0.0,0.0
293,63.0,0.0,120.0,0.0,0.0
294,75.0,120.0,120.0,0.0,0.0
295,54.0,0.0,120.0,0.0,0.0
296,71.0,0.0,120.0,0.0,0.0
297,74.0,0.0,120.0,0.0,0.0
298,41.0,60.0,120.0,0.0,0.0
299,62.0,60.0,60.0,0.0,0.0
300,46.0,120.0,120.0,0.0,0.0
301,68.0,0.0,60.0,0.0,0.0
302,47.0,120.0,120.0,0.0,0.0
303,56.0,120.0,120.0,0.0,0.0
304,64.0,0.0,120.0,0.0,0.0
305,43.0,60.0,120.0,0.0,0.0
306,76.0,0.0,120.0,0.0,0.0
307,75.0,0.0,60.0,0.0,0.0
308,70.0,60.0,60.0,0.0,0.0
309,48.0,120.0,120.0,0.0,0.0
310,49.0,120.0,120.0,0.0,0.0
311,73.0,0.0,120.0,0.0,0.0
312,58.0,120.0,120.0,0.0,0.0
313,61.0,0.0,120.0,0.0,0.0
314,71.0,0.0,120.0,0.0,0.0
315,68.0,0.0,120.0,0.0,0.0
316,44.0,60.0,120.0,0.0,0.0
317,50.0,120.0,120.0,0.0,0.0
318,59.0,60.0,60.0,0.0,0.0
319,63.0,0.0,60.0,0.0,0.0
320,51.0,120.0,120.0,0.0,0.0
321,59.0,120.0,120.0,0.0,0.0
322,71.0,0.0,120.0,0.0,0.0
323,68.0,0.0,120.0,0.0,0.0
324,42.0,60.0,120.0,0.0,0.0
325,49.0,120.0,120.0,0.0,0.0
326,62.0,60.0,60.0,0.0,0.0
327,59.0,0.0,60.0,0.0,0.0
328,50.0,120.0,120.0,0.0,0.0
329,59.0,120.0,120.0,0.0,0.0
330,41.0,60.0,120.0,0.0,0.0
331,71.0,0.0,120.0,0.0,0.0
332,68.0,0.0,120.0,0.0,0.0
333,48.0,120.0,120.0,0.0,0.0
334,61.0,60.0,60.0,0.0,0.0
335,59.0,0.0,60.0,0.0,0.0
336,49.0,120.0,120.0,0.0,0.0
337,59.0,120.0,120.0,0.0,0.0
338,69.0,120.0,120.0,0.0,0.0
339,42.0,0.0,120.0,0.0,0.0
340,66.0,0.0,120.0,0.0,0.0
341,49.0,120.0,120.0,0.0,0.0
342,61.0,0.0,120.0,0.0,0.0
343,57.0,0.0,120.0,0.0,0.0
344,54.0,120.0,120.0,0.0,0.0
345,68.0,0.0,120.0,0.0,0.0
346,37.0,120.0,120.0,0.0,0.0
347,42.0,120.0,120.0,0.0,0.0
348,69.0,0.0,120.0,0.0,0.0
349,57.0,0.0,120.0,0.0,0.0
350,61.0,0.0,120.0,0.0,0.0
351,49.0,120.0,120.0,0.0,0.0
352,66.0,0.0,120.0,0.0,0.0
353,54.0,120.0,120.0,0.0,0.0
354,37.0,120.0,120.0,0.0,0.0
355,69.0,120.0,120.0,0.0,0.0
356,42.0,0.0,120.0,0.0,0.0
357,61.0,120.0,120.0,0.0,0.0
358,57.0,0.0,120.0,0.0,0.0
359,66.0,0.0,120.0,0.0,0.0
360,49.0,0.0,120.0,0.0,0.0
361,54.0,120.0,120.0,0.0,0.0
362,37.0,0.0,120.0,0.0,0.0
363,68.0,120.0,120.0,0.0,0.0
364,69.0,120.0,120.0,0.0,0.0
365,42.0,0.0,120.0,0.0,0.0
366,66.0,0.0,120.0,0.0,0.0
367,57.0,0.0,120.0,0.0,0.0
368,61.0,0.0,120.0,0.0,0.0
369,49.0,120.0,120.0,0.0,0.0
370,54.0,120.0,120.0,0.0,0.0
371,37.0,120.0,120.0,0.0,0.0
372,69.0,120.0,120.0,0.0,0.0
373,42.0,0.0,120.0,0.0,0.0
374,49.0,0.0,120.0,0.0,0.0
375,57.0,120.0,120.0,0.0,0.0
376,61.0,0.0,120.0,0.0,0.0
377,66.0,0.0,120.0,0.0,0.0
378,54.0,120.0,120.0,0.0,0.0
379,37.0,120.0,120.0,0.0,0.0
380,68.0,0.0,120.0,0.0,0.0
381,42.0,0.0,120.0,0.0,0.0
382,69.0,120.0,120.0,0.0,0.0
383,49.0,0.0,120.0,0.0,0.0
384,66.0,0.0,120.0,0.0,0.0
385,73.0,120.0,120.0,0.0,0.0
386,78.0,0.0,120.0,0.0,0.0
387,57.0,120.0,120.0,0.0,0.0
388,45.0,120.0,120.0,0.0,0.0
389,77.0,0.0,120.0,0.0,0.0
390,44.0,120.0,120.0,0.0,0.0
391,68.0,120.0,120.0,0.0,0.0
392,65.0,0.0,120.0,0.0,0.0
393,50.0,0.0,120.0,0.0,0.0
394,59.0,120.0,120.0,0.0,0.0
395,44.0,0.0,120.0,0.0,0.0
396,69.0,120.0,120.0,0.0,0.0
397,50.0,0.0,120.0,0.0,0.0
398,71.0,120.0,120.0,0.0,0.0
399,53.0,120.0,120.0,0.0,0.0
400,62.0,0.0,120.0,0.0,0.0
401,65.0,0.0,120.0,0.0,0.0
402,68.0,0.0,120.0,0.0,0.0
403,59.0,120.0,120.0,0.0,0.0
404,44.0,120.0,120.0,0.0,0.0
405,47.0,0.0,120.0,0.0,0.0
406,74.0,120.0,120.0,0.0,0.0
407,53.0,0.0,120.0,0.0,0.0
408,65.0,120.0,120.0,0.0,0.0
409,62.0,0.0,120.0,0.0,0.0
410,68.0,0.0,120.0,0.0,0.0
411,59.0,120.0,120.0,0.0,0.0
412,69.0,0.0,120.0,0.0,0.0
413,44.0,120.0,120.0,0.0,0.0
414,71.0,120.0,120.0,0.0,0.0
415,50.0,0.0,120.0,0.0,0.0
416,62.0,0.0,120.0,0.0,0.0
417,65.0,0.0,120.0,0.0,0.0
418,53.0,120.0,120.0,0.0,0.0
419,68.0,0.0,120.0,0.0,0.0
420,59.0,120.0,120.0,0.0,0.0
421,44.0,120.0,120.0,0.0,0.0
422,47.0,0.0,120.0,0.0,0.0
423,74.0,120.0,120.0,0.0,0.0
424,68.0,120.0,120.0,0.0,0.0
425,65.0,0.0,120.0,0.0,0.0
426,62.0,0.0,120.0,0.0,0.0
427,53.0,0.0,120.0,0.0,0.0
428,59.0,120.0,120.0,0.0,0.0
429,44.0,120.0,120.0,0.0,0.0
430,69.0,0.0,120.0,0.0,0.0
431,71.0,120.0,120.0,0.0,0.0
432,50.0,0.0,120.0,0.0,0.0
433,53.0,0.0,120.0,0.0,0.0
434,68.0,0.0,120.0,0.0,0.0
435,62.0,0.0,120.0,0.0,0.0
436,65.0,120.0,120.0,0.0,0.0
437,59.0,120.0,120.0,0.0,0.0
438,44.0,120.0,120.0,0.0,0.0
439,74.0,120.0,120.0,0.0,0.0
440,47.0,0.0,120.0,0.0,0.0
441,68.0,0.0,120.0,0.0,0.0
442,62.0,120.0,120.0,0.0,0.0
443,53.0,0.0,120.0,0.0,0.0
444,65.0,0.0,120.0,0.0,0.0
445,59.0,120.0,120.0,0.0,0.0
446,69.0,120.0,120.0,0.0,0.0
447,44.0,0.0,120.0,0.0,0.0
448,50.0,120.0,120.0,0.0,0.0
449,71.0,0.0,120.0,0.0,0.0
450,80.0,0.0,120.0,0.0,0.0
451,68.0,0.0,120.0,0.0,0.0
452,53.0,0.0,120.0,0.0,0.0
453,74.0,120.0,120.0,0.0,0.0
454,59.0,120.0,120.0,0.0,0.0
455,44.0,120.0,120.0,0.0,0.0
456,45.0,0.0,120.0,0.0,0.0
457,80.0,120.0,120.0,0.0,0.0
458,68.0,0.0,120.0,0.0,0.0
459,69.0,120.0,120.0,0.0,0.0
460,53.0,0.0,120.0,0.0,0.0
461,61.0,120.0,120.0,0.0,0.0
462,49.0,0.0,120.0,0.0,0.0
463,71.0,120.0,120.0,0.0,0.0
464,73.0,120.0,120.0,0.0,0.0
465,54.0,0.0,120.0,0.0,0.0
466,57.0,0.0,120.0,0.0,0.0
467,69.0,0.0,120.0,0.0,0.0
468,78.0,0.0,120.0,0.0,0.0
469,66.0,120.0,120.0,0.0,0.0
470,61.0,120.0,120.0,0.0,0.0
471,45.0,120.0,120.0,0.0,0.0
472,48.0,120.0,120.0,0.0,0.0
473,81.0,0.0,120.0,0.0,0.0
474,75.0,0.0,120.0,0.0,0.0
475,57.0,0.0,120.0,0.0,0.0
476,80.0,120.0,120.0,0.0,0.0
477,69.0,0.0,120.0,0.0,0.0
478,63.0,120.0,120.0,0.0,0.0
479,78.0,120.0,120.0,0.0,0.0
480,48.0,0.0,120.0,0.0,0.0
481,49.0,120.0,120.0,0.0,0.0
482,77.0,0.0,120.0,0.0,0.0
483,80.0,0.0,120.0,0.0,0.0
484,68.0,0.0,120.0,0.0,0.0
485,73.0,0.0,120.0,0.0,0.0
486,56.0,120.0,120.0,0.0,0.0
487,65.0,120.0,120.0,0.0,0.0
488,49.0,120.0,120.0,0.0,0.0
489,74.0,0.0,120.0,0.0,0.0
490,41.0,120.0,120.0,0.0,0.0
491,50.0,0.0,120.0,0.0,0.0
492,68.0,120.0,120.0,0.0,0.0
493,73.0,0.0,120.0,0.0,0.0
494,62.0,0.0,120.0,0.0,0.0
495,59.0,120.0,120.0,0.0,0.0
496,71.0,120.0,120.0,0.0,0.0
497,41.0,0.0,120.0,0.0,0.0
498,42.0,0.0,120.0,0.0,0.0
499,70.0,120.0,120.0,0.0,0.0
500,66.0,0.0,120.0,0.0,0.0
501,73.0,0.0,120.0,0.0,0.0
502,69.0,0.0,120.0,0.0,0.0
503,61.0,0.0,120.0,0.0,0.0
504,49.0,120.0,120.0,0.0,0.0
505,57.0,120.0,120.0,0.0,0.0
506,42.0,120.0,120.0,0.0,0.0
507,81.0,0.0,120.0,0.0,0.0
508,48.0,120.0,120.0,0.0,0.0
509,80.0,120.0,120.0,0.0,0.0
510,69.0,0.0,120.0,0.0,0.0
511,57.0,0.0,120.0,0.0,0.0
512,75.0,0.0,120.0,0.0,0.0
513,63.0,120.0,120.0,0.0,0.0
514,48.0,0.0,120.0,0.0,0.0
515,78.0,120.0,120.0,0.0,0.0
516,49.0,0.0,120.0,0.0,0.0
517,77.0,120.0,120.0,0.0,0.0
518,56.0,0.0,120.0,0.0,0.0
519,68.0,0.0,120.0,0.0,0.0
520,80.0,0.0,120.0,0.0,0.0
521,73.0,120.0,120.0,0.0,0.0
522,65.0,120.0,120.0,0.0,0.0
523,49.0,120.0,120.0,0.0,0.0
524,46.0,120.0,120.0,0.0,0.0
525,79.0,0.0,120.0,0.0,0.0
526,73.0,0.0,120.0,0.0,0.0
527,78.0,120.0,120.0,0.0,0.0
528,67.0,0.0,120.0,0.0,0.0
529,55.0,0.0,120.0,0.0,0.0
530,61.0,120.0,120.0,0.0,0.0
531,46.0,0.0,120.0,0.0,0.0
532,76.0,120.0,120.0,0.0,0.0
533,75.0,120.0,120.0,0.0,0.0
534,47.0,0.0,120.0,0.0,0.0
535,54.0,120.0,120.0,0.0,0.0
536,74.0,0.0,120.0,0.0,0.0
537,66.0,0.0,120.0,0.0,0.0
538,78.0,0.0,120.0,0.0,0.0
539,62.0,120.0,120.0,0.0,0.0
540,47.0,120.0,120.0,0.0,0.0
541,35.0,120.0,120.0,0.0,0.0
542,77.0,0.0,240.0,0.0,0.0
543,65.0,120.0,240.0,0.0,0.0
544,74.0,0.0,720.0,0.0,0.0
545,42.0,0.0,120.0,0.0,0.0
546,66.0,0.0,240.0,0.0,0.0
547,54.0,120.0,120.0,0.0,0.0
548,78.0,0.0,240.0,0.0,0.0
549,42.0,120.0,120.0,0.0,0.0
550,65.0,0.0,240.0,0.0,0.0
551,77.0,0.0,240.0,0.0,0.0
552,37.0,120.0,120.0,0.0,0.0
553,42.0,120.0,120.0,0.0,0.0
554,78.0,0.0,240.0,0.0,0.0
555,66.0,0.0,240.0,0.0,0.0
556,54.0,120.0,120.0,0.0,0.0
557,42.0,120.0,120.0,0.0,0.0
558,73.0,0.0,15.0,0.0,0.0
559,65.0,0.0,240.0,0.0,0.0
560,77.0,0.0,240.0,0.0,0.0
561,38.0,120.0,120.0,0.0,0.0
562,42.0,120.0,120.0,0.0,0.0
563,78.0,0.0,240.0,0.0,0.0
564,66.0,0.0,240.0,0.0,0.0
565,71.0,0.0,480.0,0.0,0.0
566,54.0,120.0,120.0,0.0,0.0
567,42.0,120.0,120.0,0.0,0.0
568,77.0,0.0,240.0,0.0,0.0
569,65.0,0.0,240.0,0.0,0.0
570,39.0,120.0,120.0,0.0,0.0
571,47.0,120.0,120.0,0.0,0.0
572,66.0,0.0,240.0,0.0,0.0
573,69.0,0.0,240.0,0.0,0.0
574,59.0,120.0,120.0,0.0,0.0
575,78.0,120.0,240.0,0.0,0.0
576,47.0,0.0,120.0,0.0,0.0
577,40.0,0.0,120.0,0.0,0.0
578,47.0,240.0,120.0,0.0,0.0
579,54.0,0.0,120.0,0.0,0.0
580,69.0,0.0,120.0,0.0,0.0
581,57.0,0.0,120.0,0.0,0.0
582,62.0,0.0,120.0,0.0,0.0
583,47.0,0.0,120.0,0.0,0.0
584,56.0,0.0,120.0,0.0,0.0
585,62.0,0.0,120.0,0.0,0.0
586,68.0,0.0,120.0,0.0,0.0
587,40.0,600.0,120.0,0.0,0.0
588,52.0,0.0,120.0,0.0,0.0
589,42.0,0.0,240.0,0.0,0.0
590,57.0,0.0,240.0,0.0,0.0
591,30.0,0.0,240.0,0.0,0.0
592,52.0,480.0,240.0,0.0,0.0
593,31.0,0.0,480.0,0.0,0.0
594,43.0,0.0,480.0,0.0,0.0
595,62.0,0.0,15.0,0.0,0.0
596,58.0,0.0,480.0,0.0,0.0
597,66.0,0.0,15.0,0.0,0.0
598,32.0,0.0,360.0,0.0,0.0
599,44.0,0.0,360.0,0.0,0.0
600,62.0,0.0,15.0,0.0,0.0
601,52.0,0.0,15.0,0.0,0.0
602,59.0,120.0,360.0,0.0,0.0
603,64.0,0.0,360.0,0.0,0.0
604,49.0,960.0,120.0,0.0,0.0
605,33.0,480.0,960.0,0.0,0.0
606,45.0,480.0,1440.0,0.0,0.0
607,49.0,0.0,960.0,0.0,0.0
608,64.0,0.0,960.0,0.0,0.0
609,61.0,0.0,480.0,0.0,0.0
610,57.0,0.0,15.0,0.0,0.0
611,52.0,0.0,480.0,0.0,0.0
612,54.0,960.0,480.0,0.0,0.0
613,62.0,0.0,480.0,0.0,0.0
614,38.0,0.0,480.0,0.0,0.0
615,59.0,0.0,480.0,0.0,0.0
616,61.0,240.0,960.0,0.0,0.0
617,56.0,0.0,1920.0,0.0,0.0
618,40.0,240.0,1200.0,0.0,0.0
619,50.0,0.0,1920.0,0.0,0.0
620,59.0,480.0,960.0,0.0,0.0
621,41.0,240.0,240.0,0.0,0.0
622,42.0,240.0,240.0,0.0,0.0
623,40.0,0.0,240.0,0.0,0.0
624,49.0,0.0,600.0,0.0,0.0
625,33.0,0.0,960.0,0.0,0.0
626,64.0,480.0,480.0,0.0,0.0
627,61.0,0.0,480.0,0.0,0.0
628,52.0,0.0,480.0,0.0,0.0
629,45.0,0.0,480.0,0.0,0.0
630,57.0,240.0,15.0,0.0,0.0
631,62.0,240.0,240.0,0.0,0.0
632,54.0,0.0,240.0,0.0,0.0
633,52.0,0.0,240.0,0.0,0.0
634,61.0,240.0,240.0,0.0,0.0
635,38.0,960.0,480.0,0.0,0.0
636,59.0,0.0,480.0,0.0,0.0
637,56.0,240.0,240.0,0.0,0.0
638,64.0,0.0,240.0,0.0,0.0
639,54.0,0.0,240.0,0.0,0.0
640,62.0,0.0,240.0,0.0,0.0
641,50.0,0.0,1920.0,0.0,0.0
642,40.0,240.0,1200.0,0.0,0.0
643,56.0,0.0,1920.0,0.0,0.0
644,61.0,240.0,960.0,0.0,0.0
645,59.0,0.0,960.0,0.0,0.0
646,41.0,160.0,240.0,0.0,0.0
647,44.0,160.0,150.0,0.0,0.0
648,42.0,160.0,150.0,0.0,0.0
649,40.0,480.0,150.0,0.0,0.0
650,33.0,480.0,480.0,0.0,0.0
651,64.0,0.0,480.0,0.0,0.0
652,57.0,0.0,960.0,0.0,0.0
653,49.0,0.0,480.0,0.0,0.0
654,60.0,0.0,480.0,0.0,0.0
655,66.0,0.0,480.0,0.0,0.0
656,51.0,480.0,480.0,0.0,0.0
657,68.0,0.0,480.0,0.0,0.0
658,59.0,0.0,480.0,0.0,0.0
659,40.0,0.0,960.0,0.0,0.0
660,50.0,360.0,480.0,0.0,0.0
661,54.0,0.0,360.0,0.0,0.0
662,69.0,120.0,360.0,0.0,0.0
663,62.0,0.0,480.0,0.0,0.0
664,71.0,0.0,120.0,0.0,0.0
665,68.0,0.0,120.0,0.0,0.0
666,69.0,480.0,480.0,0.0,0.0
667,73.0,0.0,480.0,0.0,0.0
668,52.0,480.0,15.0,0.0,0.0
669,45.0,0.0,480.0,0.0,0.0
670,61.0,0.0,480.0,0.0,0.0
671,51.0,420.0,480.0,0.0,0.0
672,60.0,0.0,480.0,0.0,0.0
673,57.0,0.0,480.0,0.0,0.0
674,66.0,0.0,480.0,0.0,0.0
675,59.0,0.0,960.0,0.0,0.0
676,50.0,0.0,960.0,0.0,0.0
677,68.0,60.0,420.0,0.0,0.0
678,40.0,360.0,480.0,0.0,0.0
679,56.0,0.0,420.0,0.0,0.0
680,54.0,0.0,540.0,0.0,0.0
681,69.0,60.0,360.0,0.0,0.0
682,38.0,60.0,420.0,0.0,0.0
683,71.0,480.0,120.0,0.0,0.0
684,37.0,0.0,540.0,0.0,0.0
685,53.0,480.0,480.0,0.0,0.0
686,73.0,0.0,480.0,0.0,0.0
687,68.0,0.0,960.0,0.0,0.0
688,61.0,0.0,15.0,0.0,0.0
689,71.0,0.0,480.0,0.0,0.0
690,41.0,480.0,480.0,0.0,0.0
691,29.0,0.0,480.0,0.0,0.0
692,66.0,360.0,480.0,0.0,0.0
693,69.0,0.0,480.0,0.0,0.0
694,57.0,0.0,480.0,0.0,0.0
695,30.0,0.0,480.0,0.0,0.0
696,42.0,0.0,480.0,0.0,0.0
697,68.0,120.0,360.0,0.0,0.0
698,64.0,0.0,360.0,0.0,0.0
699,60.0,0.0,360.0,0.0,0.0
700,32.0,0.0,360.0,0.0,0.0
701,44.0,0.0,360.0,0.0,0.0
702,33.0,480.0,120.0,0.0,0.0
703,45.0,0.0,120.0,0.0,0.0
704,66.0,0.0,120.0,0.0,0.0
705,61.0,0.0,120.0,0.0,0.0
706,34.0,0.0,480.0,0.0,0.0
707,46.0,360.0,480.0,0.0,0.0
708,64.0,0.0,480.0,0.0,0.0
709,61.0,0.0,480.0,0.0,0.0
710,55.0,0.0,480.0,0.0,0.0
711,59.0,0.0,360.0,0.0,0.0
712,50.0,0.0,360.0,0.0,0.0
713,54.0,120.0,360.0,0.0,0.0
714,62.0,0.0,360.0,0.0,0.0
715,47.0,0.0,360.0,0.0,0.0
716,35.0,0.0,360.0,0.0,0.0
717,49.0,480.0,120.0,0.0,0.0
718,57.0,0.0,120.0,0.0,0.0
719,61.0,0.0,120.0,0.0,0.0
720,37.0,0.0,120.0,0.0,0.0
721,52.0,0.0,120.0,0.0,0.0
722,38.0,0.0,480.0,0.0,0.0
723,59.0,120.0,720.0,0.0,0.0
724,54.0,240.0,480.0,0.0,0.0
725,57.0,0.0,480.0,0.0,0.0
726,50.0,0.0,15.0,0.0,0.0
727,56.0,0.0,360.0,0.0,0.0
728,40.0,160.0,480.0,0.0,0.0
729,60.0,120.0,120.0,0.0,0.0
730,61.0,0.0,1080.0,0.0,0.0
731,69.0,160.0,1020.0,0.0,0.0
732,76.0,0.0,960.0,0.0,0.0
733,33.0,160.0,150.0,0.0,0.0
734,51.0,160.0,150.0,0.0,0.0
735,52.0,160.0,150.0,0.0,0.0
736,54.0,160.0,150.0,0.0,0.0
737,52.0,160.0,150.0,0.0,0.0
738,40.0,0.0,150.0,0.0,0.0
739,45.0,160.0,150.0,0.0,0.0
740,64.0,0.0,480.0,0.0,0.0
741,73.0,0.0,480.0,0.0,0.0
742,69.0,0.0,480.0,0.0,0.0
743,51.0,160.0,150.0,0.0,0.0
744,52.0,160.0,150.0,0.0,0.0
745,54.0,80.0,150.0,0.0,0.0
746,61.0,80.0,240.0,0.0,0.0
747,64.0,0.0,240.0,0.0,0.0
748,52.0,160.0,150.0,0.0,0.0
749,74.0,0.0,240.0,0.0,0.0
750,66.0,0.0,240.0,0.0,0.0
751,71.0,0.0,240.0,0.0,0.0
752,40.0,160.0,150.0,0.0,0.0
753,47.0,160.0,150.0,0.0,0.0
754,73.0,80.0,720.0,0.0,0.0
755,62.0,160.0,960.0,0.0,0.0
756,68.0,0.0,960.0,0.0,0.0
757,51.0,160.0,150.0,0.0,0.0
758,52.0,160.0,150.0,0.0,0.0
759,54.0,80.0,150.0,0.0,0.0
760,52.0,160.0,150.0,0.0,0.0
761,71.0,0.0,240.0,0.0,0.0
762,40.0,0.0,150.0,0.0,0.0
763,66.0,80.0,240.0,0.0,0.0
764,50.0,80.0,150.0,0.0,0.0
765,51.0,160.0,150.0,0.0,0.0
766,64.0,160.0,240.0,0.0,0.0
767,52.0,0.0,150.0,0.0,0.0
768,54.0,80.0,150.0,0.0,0.0
769,57.0,80.0,240.0,0.0,0.0
770,52.0,40.0,150.0,0.0,0.0
771,59.0,120.0,120.0,0.0,0.0
772,40.0,0.0,150.0,0.0,0.0
773,61.0,120.0,120.0,0.0,0.0
774,45.0,240.0,120.0,0.0,0.0
775,76.0,0.0,480.0,0.0,0.0
776,61.0,120.0,480.0,0.0,0.0
777,51.0,120.0,120.0,0.0,0.0
778,52.0,0.0,120.0,0.0,0.0
779,54.0,120.0,120.0,0.0,0.0
780,64.0,0.0,480.0,0.0,0.0
781,73.0,0.0,480.0,0.0,0.0
782,52.0,120.0,120.0,0.0,0.0
783,52.0,120.0,120.0,0.0,0.0
784,40.0,0.0,120.0,0.0,0.0
785,45.0,120.0,120.0,0.0,0.0
786,66.0,120.0,240.0,0.0,0.0
787,69.0,120.0,15.0,0.0,0.0
788,74.0,0.0,240.0,0.0,0.0
789,51.0,120.0,120.0,0.0,0.0
790,73.0,0.0,240.0,0.0,0.0
791,52.0,0.0,120.0,0.0,0.0
792,54.0,40.0,120.0,0.0,0.0
793,73.0,80.0,150.0,0.0,0.0
794,64.0,120.0,15.0,0.0,0.0
795,52.0,80.0,120.0,0.0,0.0
796,68.0,40.0,150.0,0.0,0.0
797,76.0,0.0,150.0,0.0,0.0
798,52.0,120.0,120.0,0.0,0.0
799,66.0,0.0,150.0,0.0,0.0
800,74.0,0.0,150.0,0.0,0.0
801,40.0,120.0,120.0,0.0,0.0
802,73.0,0.0,720.0,0.0,0.0
803,62.0,0.0,960.0,0.0,0.0
804,68.0,0.0,960.0,0.0,0.0
805,47.0,240.0,120.0,0.0,0.0
806,51.0,120.0,120.0,0.0,0.0
807,52.0,120.0,120.0,0.0,0.0
808,54.0,120.0,120.0,0.0,0.0
809,52.0,120.0,120.0,0.0,0.0
810,71.0,0.0,240.0,0.0,0.0
811,52.0,120.0,120.0,0.0,0.0
812,40.0,160.0,120.0,0.0,0.0
813,66.0,80.0,150.0,0.0,0.0
814,50.0,80.0,240.0,0.0,0.0
815,64.0,40.0,150.0,0.0,0.0
816,51.0,120.0,120.0,0.0,0.0
817,66.0,0.0,150.0,0.0,0.0
818,52.0,120.0,120.0,0.0,0.0
819,64.0,80.0,150.0,0.0,0.0
820,54.0,40.0,120.0,0.0,0.0
821,57.0,40.0,150.0,0.0,0.0
822,52.0,80.0,15.0,0.0,0.0
823,59.0,0.0,150.0,0.0,0.0
824,40.0,120.0,120.0,0.0,0.0
825,69.0,0.0,960.0,0.0,0.0
826,64.0,120.0,480.0,0.0,0.0
827,76.0,0.0,960.0,0.0,0.0
828,45.0,120.0,120.0,0.0,0.0
829,52.0,120.0,120.0,0.0,0.0
830,54.0,120.0,120.0,0.0,0.0
831,52.0,0.0,120.0,0.0,0.0
832,61.0,120.0,120.0,0.0,0.0
833,78.0,0.0,480.0,0.0,0.0
834,66.0,120.0,480.0,0.0,0.0
835,52.0,120.0,120.0,0.0,0.0
836,54.0,120.0,120.0,0.0,0.0
837,52.0,0.0,120.0,0.0,0.0
838,40.0,120.0,120.0,0.0,0.0
839,80.0,0.0,480.0,0.0,0.0
840,76.0,0.0,960.0,0.0,0.0
841,68.0,120.0,480.0,0.0,0.0
842,74.0,0.0,960.0,0.0,0.0
843,52.0,120.0,120.0,0.0,0.0
844,54.0,120.0,120.0,0.0,0.0
845,52.0,0.0,120.0,0.0,0.0
846,81.0,0.0,360.0,0.0,0.0
847,62.0,120.0,120.0,0.0,0.0
848,69.0,0.0,360.0,0.0,0.0
849,52.0,120.0,120.0,0.0,0.0
850,54.0,120.0,120.0,0.0,0.0
851,71.0,120.0,120.0,0.0,0.0
852,83.0,0.0,120.0,0.0,0.0
853,52.0,0.0,120.0,0.0,0.0
854,45.0,120.0,120.0,0.0,0.0
855,85.0,0.0,480.0,0.0,0.0
856,73.0,0.0,960.0,0.0,0.0
857,76.0,0.0,960.0,0.0,0.0
858,52.0,120.0,120.0,0.0,0.0
859,54.0,120.0,120.0,0.0,0.0
860,52.0,120.0,120.0,0.0,0.0
861,66.0,0.0,480.0,0.0,0.0
862,78.0,120.0,480.0,0.0,0.0
863,61.0,120.0,120.0,0.0,0.0
864,52.0,120.0,120.0,0.0,0.0
865,54.0,120.0,120.0,0.0,0.0
866,52.0,0.0,120.0,0.0,0.0
867,74.0,0.0,480.0,0.0,0.0
868,76.0,0.0,480.0,0.0,0.0
869,68.0,0.0,480.0,0.0,0.0
870,80.0,0.0,480.0,0.0,0.0
871,40.0,120.0,120.0,0.0,0.0
872,52.0,120.0,120.0,0.0,0.0
873,54.0,120.0,120.0,0.0,0.0
874,52.0,120.0,120.0,0.0,0.0
875,62.0,120.0,120.0,0.0,0.0
876,69.0,0.0,360.0,0.0,0.0
877,81.0,0.0,360.0,0.0,0.0
878,52.0,120.0,120.0,0.0,0.0
879,54.0,120.0,120.0,0.0,0.0
880,71.0,0.0,120.0,0.0,0.0
881,83.0,0.0,120.0,0.0,0.0
882,52.0,120.0,120.0,0.0,0.0
883,80.0,0.0,960.0,0.0,0.0
884,85.0,120.0,480.0,0.0,0.0
885,73.0,0.0,480.0,0.0,0.0
886,41.0,120.0,120.0,0.0,0.0
887,83.0,0.0,960.0,0.0,0.0
888,48.0,120.0,120.0,0.0,0.0
889,49.0,120.0,120.0,0.0,0.0
890,56.0,0.0,120.0,0.0,0.0
891,53.0,120.0,120.0,0.0,0.0
892,86.0,0.0,720.0,0.0,0.0
893,74.0,0.0,720.0,0.0,0.0
894,60.0,120.0,120.0,0.0,0.0
895,61.0,120.0,120.0,0.0,0.0
896,68.0,120.0,120.0,0.0,0.0
897,81.0,0.0,960.0,0.0,0.0
898,78.0,120.0,960.0,0.0,0.0
899,42.0,120.0,120.0,0.0,0.0
900,48.0,120.0,120.0,0.0,0.0
901,49.0,120.0,120.0,0.0,0.0
902,73.0,120.0,240.0,0.0,0.0
903,85.0,0.0,240.0,0.0,0.0
904,57.0,0.0,120.0,0.0,0.0
905,72.0,120.0,240.0,0.0,0.0
906,84.0,0.0,240.0,0.0,0.0
907,54.0,120.0,120.0,0.0,0.0
908,60.0,0.0,120.0,0.0,0.0
909,61.0,120.0,120.0,0.0,0.0
910,85.0,0.0,240.0,0.0,0.0
911,73.0,0.0,240.0,0.0,0.0
912,69.0,0.0,120.0,0.0,0.0
913,44.0,120.0,120.0,0.0,0.0
914,88.0,120.0,480.0,0.0,0.0
915,86.0,120.0,960.0,0.0,0.0
916,83.0,0.0,960.0,0.0,0.0
917,76.0,0.0,480.0,0.0,0.0
918,51.0,120.0,120.0,0.0,0.0
919,52.0,120.0,120.0,0.0,0.0
920,59.0,0.0,120.0,0.0,0.0
921,56.0,120.0,120.0,0.0,0.0
922,78.0,0.0,720.0,0.0,0.0
923,90.0,0.0,720.0,0.0,0.0
924,63.0,120.0,120.0,0.0,0.0
925,64.0,120.0,120.0,0.0,0.0
926,71.0,0.0,120.0,0.0,0.0
927,85.0,120.0,480.0,0.0,0.0
928,46.0,120.0,120.0,0.0,0.0
929,53.0,120.0,120.0,0.0,0.0
930,88.0,0.0,240.0,0.0,0.0
931,76.0,0.0,240.0,0.0,0.0
932,54.0,120.0,120.0,0.0,0.0
933,61.0,0.0,120.0,0.0,0.0
934,58.0,120.0,120.0,0.0,0.0
935,86.0,0.0,360.0,0.0,0.0
936,74.0,0.0,360.0,0.0,0.0
937,65.0,120.0,120.0,0.0,0.0
938,66.0,120.0,120.0,0.0,0.0
939,73.0,0.0,120.0,0.0,0.0
940,85.0,0.0,120.0,0.0,0.0
941,35.0,120.0,120.0,0.0,0.0
942,88.0,120.0,240.0,0.0,0.0
943,76.0,0.0,240.0,0.0,0.0
944,78.0,120.0,15.0,0.0,0.0
945,42.0,0.0,120.0,0.0,0.0
946,74.0,0.0,240.0,0.0,0.0
947,47.0,120.0,120.0,0.0,0.0
948,86.0,120.0,240.0,0.0,0.0
949,54.0,0.0,120.0,0.0,0.0
950,37.0,120.0,120.0,0.0,0.0
951,73.0,0.0,240.0,0.0,0.0
952,85.0,120.0,240.0,0.0,0.0
953,42.0,0.0,120.0,0.0,0.0
954,46.0,120.0,120.0,0.0,0.0
955,70.0,0.0,240.0,0.0,0.0
956,82.0,120.0,240.0,0.0,0.0
957,52.0,0.0,120.0,0.0,0.0
958,73.0,0.0,240.0,0.0,0.0
959,85.0,120.0,240.0,0.0,0.0
960,38.0,120.0,120.0,0.0,0.0
961,78.0,0.0,15.0,0.0,0.0
962,42.0,0.0,120.0,0.0,0.0
963,71.0,120.0,240.0,0.0,0.0
964,47.0,120.0,120.0,0.0,0.0
965,83.0,0.0,240.0,0.0,0.0
966,54.0,0.0,120.0,0.0,0.0
967,39.0,120.0,120.0,0.0,0.0
968,72.0,0.0,480.0,0.0,0.0
969,78.0,120.0,240.0,0.0,0.0
970,66.0,0.0,240.0,0.0,0.0
971,45.0,0.0,120.0,0.0,0.0
972,48.0,120.0,120.0,0.0,0.0
973,81.0,0.0,240.0,0.0,0.0
974,69.0,0.0,240.0,0.0,0.0
975,54.0,120.0,120.0,0.0,0.0
976,73.0,120.0,480.0,0.0,0.0
977,78.0,0.0,240.0,0.0,0.0
978,66.0,120.0,240.0,0.0,0.0
979,40.0,120.0,120.0,0.0,0.0
980,45.0,0.0,120.0,0.0,0.0
981,64.0,0.0,240.0,0.0,0.0
982,76.0,0.0,240.0,0.0,0.0
983,49.0,120.0,120.0,0.0,0.0
984,57.0,0.0,120.0,0.0,0.0
985,62.0,0.0,240.0,0.0,0.0
986,57.0,120.0,240.0,0.0,0.0
987,42.0,120.0,120.0,0.0,0.0
988,45.0,0.0,120.0,0.0,0.0
989,50.0,120.0,120.0,0.0,0.0
990,74.0,120.0,240.0,0.0,0.0
991,57.0,0.0,120.0,0.0,0.0
992,69.0,0.0,15.0,0.0,0.0
993,62.0,0.0,15.0,0.0,0.0
994,71.0,0.0,480.0,0.0,0.0
995,40.0,120.0,120.0,0.0,0.0
996,47.0,120.0,120.0,0.0,0.0
997,52.0,120.0,120.0,0.0,0.0
998,57.0,0.0,120.0,0.0,0.0
999,68.0,0.0,480.0,0.0,0.0
1000,73.0,0.0,240.0,0.0,0.0
1001,61.0,0.0,240.0,0.0,0.0
1002,38.0,120.0,120.0,0.0,0.0
1003,44.0,120.0,120.0,0.0,0.0
1004,74.0,0.0,240.0,0.0,0.0
1005,62.0,0.0,240.0,0.0,0.0
1006,47.0,120.0,120.0,0.0,0.0
1007,52.0,120.0,120.0,0.0,0.0
1008,66.0,0.0,240.0,0.0,0.0
1009,78.0,0.0,240.0,0.0,0.0
1010,37.0,120.0,120.0,0.0,0.0
1011,40.0,120.0,120.0,0.0,0.0
1012,65.0,0.0,240.0,0.0,0.0
1013,45.0,120.0,120.0,0.0,0.0
1014,77.0,0.0,240.0,0.0,0.0
1015,52.0,0.0,120.0,0.0,0.0
1016,64.0,80.0,150.0,0.0,0.0
1017,69.0,120.0,15.0,0.0,0.0
1018,76.0,0.0,150.0,0.0,0.0
1019,42.0,40.0,120.0,0.0,0.0
1020,45.0,80.0,120.0,0.0,0.0
1021,69.0,0.0,15.0,0.0,0.0
1022,57.0,40.0,150.0,0.0,0.0
1023,50.0,120.0,120.0,0.0,0.0
1024,74.0,0.0,150.0,0.0,0.0
1025,62.0,0.0,150.0,0.0,0.0
1026,57.0,0.0,120.0,0.0,0.0
1027,41.0,120.0,120.0,0.0,0.0
1028,69.0,120.0,15.0,0.0,0.0
1029,71.0,0.0,240.0,0.0,0.0
1030,62.0,0.0,480.0,0.0,0.0
1031,59.0,120.0,240.0,0.0,0.0
1032,45.0,0.0,120.0,0.0,0.0
1033,61.0,120.0,120.0,0.0,0.0
1034,73.0,0.0,120.0,0.0,0.0
1035,50.0,0.0,120.0,0.0,0.0
1036,57.0,120.0,120.0,0.0,0.0
1037,71.0,0.0,120.0,0.0,0.0
1038,59.0,0.0,120.0,0.0,0.0
1039,70.0,0.0,120.0,0.0,0.0
1040,68.0,0.0,480.0,0.0,0.0
1041,40.0,0.0,120.0,0.0,0.0
1042,58.0,120.0,120.0,0.0,0.0
1043,47.0,0.0,120.0,0.0,0.0
1044,59.0,120.0,120.0,0.0,0.0
1045,71.0,0.0,120.0,0.0,0.0
1046,56.0,0.0,120.0,0.0,0.0
1047,61.0,120.0,120.0,0.0,0.0
1048,73.0,0.0,120.0,0.0,0.0
1049,74.0,120.0,120.0,0.0,0.0
1050,38.0,0.0,120.0,0.0,0.0
1051,62.0,0.0,120.0,0.0,0.0
1052,37.0,40.0,120.0,0.0,0.0
1053,63.0,0.0,150.0,0.0,0.0
1054,75.0,80.0,150.0,0.0,0.0
1055,69.0,0.0,330.0,0.0,0.0
1056,40.0,80.0,120.0,0.0,0.0
1057,64.0,40.0,150.0,0.0,0.0
1058,76.0,0.0,150.0,0.0,0.0
1059,44.0,120.0,120.0,0.0,0.0
1060,73.0,0.0,150.0,0.0,0.0
1061,85.0,0.0,150.0,0.0,0.0
1062,52.0,120.0,120.0,0.0,0.0
1063,42.0,40.0,120.0,0.0,0.0
1064,71.0,0.0,150.0,0.0,0.0
1065,83.0,80.0,150.0,0.0,0.0
1066,45.0,80.0,120.0,0.0,0.0
1067,81.0,0.0,150.0,0.0,0.0
1068,69.0,0.0,150.0,0.0,0.0
1069,50.0,120.0,120.0,0.0,0.0
1070,69.0,120.0,150.0,0.0,0.0
1071,74.0,40.0,15.0,0.0,0.0
1072,62.0,0.0,150.0,0.0,0.0
1073,57.0,0.0,120.0,0.0,0.0
1074,40.0,120.0,120.0,0.0,0.0
1075,59.0,0.0,480.0,0.0,0.0
1076,71.0,60.0,900.0,0.0,0.0
1077,64.0,0.0,720.0,0.0,0.0
1078,69.0,120.0,480.0,0.0,0.0
1079,47.0,120.0,120.0,0.0,0.0
1080,52.0,120.0,120.0,0.0,0.0
1081,57.0,0.0,120.0,0.0,0.0
1082,62.0,0.0,240.0,0.0,0.0
1083,40.0,120.0,120.0,0.0,0.0
1084,68.0,120.0,240.0,0.0,0.0
1085,47.0,0.0,120.0,0.0,0.0
1086,52.0,60.0,120.0,0.0,0.0
1087,56.0,0.0,120.0,0.0,0.0
1088,52.0,80.0,150.0,0.0,0.0
1089,45.0,0.0,150.0,0.0,0.0
1090,69.0,160.0,15.0,0.0,0.0
1091,61.0,0.0,150.0,0.0,0.0
1092,57.0,0.0,15.0,0.0,0.0
1093,66.0,0.0,90.0,0.0,0.0
1094,59.0,160.0,90.0,0.0,0.0
1095,47.0,0.0,90.0,0.0,0.0
1096,51.0,0.0,90.0,0.0,0.0
1097,51.0,0.0,90.0,0.0,0.0
1098,59.0,0.0,90.0,0.0,0.0
1099,66.0,0.0,90.0,0.0,0.0
1100,47.0,0.0,90.0,0.0,0.0
1101,57.0,240.0,90.0,0.0,0.0
1102,51.0,80.0,150.0,0.0,0.0
1103,47.0,0.0,150.0,0.0,0.0
1104,57.0,0.0,150.0,0.0,0.0
1105,59.0,0.0,150.0,0.0,0.0
1106,66.0,0.0,150.0,0.0,0.0
1107,52.0,0.0,90.0,0.0,0.0
1108,64.0,0.0,90.0,0.0,0.0
1109,56.0,160.0,90.0,0.0,0.0
1110,52.0,0.0,90.0,0.0,0.0
1111,64.0,240.0,90.0,0.0,0.0
1112,59.0,0.0,90.0,0.0,0.0
1113,68.0,0.0,90.0,0.0,0.0
1114,74.0,0.0,90.0,0.0,0.0
1115,52.0,80.0,150.0,0.0,0.0
1116,59.0,0.0,150.0,0.0,0.0
1117,74.0,0.0,150.0,0.0,0.0
1118,68.0,0.0,150.0,0.0,0.0
1119,69.0,160.0,90.0,0.0,0.0
1120,73.0,0.0,90.0,0.0,0.0
1121,64.0,0.0,15.0,0.0,0.0
1122,57.0,0.0,90.0,0.0,0.0
1123,71.0,0.0,90.0,0.0,0.0
1124,78.0,0.0,90.0,0.0,0.0
1125,63.0,240.0,90.0,0.0,0.0
1126,59.0,0.0,90.0,0.0,0.0
1127,69.0,0.0,90.0,0.0,0.0
1128,78.0,80.0,150.0,0.0,0.0
1129,69.0,0.0,150.0,0.0,0.0
1130,71.0,0.0,150.0,0.0,0.0
1131,59.0,0.0,150.0,0.0,0.0
1132,63.0,0.0,150.0,0.0,0.0
1133,76.0,0.0,90.0,0.0,0.0
1134,64.0,160.0,90.0,0.0,0.0
1135,68.0,0.0,90.0,0.0,0.0
1136,71.0,240.0,90.0,0.0,0.0
1137,76.0,0.0,90.0,0.0,0.0
1138,64.0,0.0,90.0,0.0,0.0
1139,86.0,0.0,90.0,0.0,0.0
1140,80.0,0.0,90.0,0.0,0.0
1141,71.0,80.0,150.0,0.0,0.0
1142,80.0,0.0,150.0,0.0,0.0
1143,86.0,0.0,150.0,0.0,0.0
1144,64.0,0.0,150.0,0.0,0.0
1145,76.0,0.0,150.0,0.0,0.0
1146,85.0,0.0,90.0,0.0,0.0
1147,81.0,160.0,90.0,0.0,0.0
1148,76.0,0.0,90.0,0.0,0.0
1149,69.0,0.0,90.0,0.0,0.0
1150,59.0,0.0,90.0,0.0,0.0
1151,69.0,0.0,90.0,0.0,0.0
1152,63.0,0.0,90.0,0.0,0.0
1153,71.0,0.0,90.0,0.0,0.0
1154,78.0,240.0,90.0,0.0,0.0
1155,71.0,80.0,150.0,0.0,0.0
1156,69.0,0.0,150.0,0.0,0.0
1157,63.0,0.0,150.0,0.0,0.0
1158,59.0,0.0,150.0,0.0,0.0
1159,78.0,0.0,150.0,0.0,0.0
1160,64.0,0.0,90.0,0.0,0.0
1161,68.0,0.0,90.0,0.0,0.0
1162,76.0,160.0,90.0,0.0,0.0
1163,64.0,0.0,90.0,0.0,0.0
1164,74.0,0.0,90.0,0.0,0.0
1165,68.0,240.0,90.0,0.0,0.0
1166,59.0,0.0,90.0,0.0,0.0
1167,52.0,0.0,90.0,0.0,0.0
1168,74.0,0.0,150.0,0.0,0.0
1169,52.0,0.0,150.0,0.0,0.0
1170,59.0,0.0,150.0,0.0,0.0
1171,68.0,0.0,150.0,0.0,0.0
1172,73.0,0.0,90.0,0.0,0.0
1173,69.0,0.0,90.0,0.0,0.0
1174,64.0,80.0,15.0,0.0,0.0
1175,57.0,160.0,90.0,0.0,0.0
1176,51.0,0.0,90.0,0.0,0.0
1177,47.0,0.0,90.0,0.0,0.0
1178,57.0,0.0,90.0,0.0,0.0
1179,66.0,240.0,90.0,0.0,0.0
1180,59.0,0.0,90.0,0.0,0.0
1181,57.0,0.0,150.0,0.0,0.0
1182,47.0,0.0,150.0,0.0,0.0
1183,51.0,0.0,150.0,0.0,0.0
1184,66.0,80.0,150.0,0.0,0.0
1185,59.0,0.0,150.0,0.0,0.0
1186,64.0,160.0,90.0,0.0,0.0
1187,56.0,0.0,90.0,0.0,0.0
1188,52.0,0.0,90.0,0.0,0.0
1189,52.0,0.0,90.0,0.0,0.0
1190,40.0,0.0,90.0,0.0,0.0
1191,47.0,0.0,90.0,0.0,0.0
1192,56.0,240.0,90.0,0.0,0.0
1193,62.0,0.0,90.0,0.0,0.0
1194,56.0,80.0,150.0,0.0,0.0
1195,62.0,0.0,150.0,0.0,0.0
1196,40.0,0.0,150.0,0.0,0.0
1197,47.0,0.0,150.0,0.0,0.0
1198,45.0,0.0,90.0,0.0,0.0
1199,52.0,0.0,15.0,0.0,0.0
1200,61.0,160.0,90.0,0.0,0.0
1201,57.0,0.0,90.0,0.0,0.0
1202,57.0,240.0,90.0,0.0,0.0
1203,60.0,0.0,90.0,0.0,0.0
1204,65.0,0.0,90.0,0.0,0.0
1205,51.0,0.0,90.0,0.0,0.0
1206,65.0,0.0,150.0,0.0,0.0
1207,60.0,80.0,150.0,0.0,0.0
1208,51.0,0.0,150.0,0.0,0.0
1209,57.0,0.0,150.0,0.0,0.0
1210,56.0,0.0,90.0,0.0,0.0
1211,64.0,0.0,90.0,0.0,0.0
1212,59.0,160.0,90.0,0.0,0.0
1213,52.0,0.0,90.0,0.0,0.0
1214,59.0,0.0,90.0,0.0,0.0
1215,52.0,0.0,90.0,0.0,0.0
1216,68.0,0.0,90.0,0.0,0.0
1217,74.0,0.0,90.0,0.0,0.0
1218,64.0,240.0,90.0,0.0,0.0
1219,74.0,0.0,150.0,0.0,0.0
1220,59.0,0.0,150.0,0.0,0.0
1221,52.0,0.0,150.0,0.0,0.0
1222,68.0,80.0,150.0,0.0,0.0
1223,64.0,0.0,15.0,0.0,0.0
1224,57.0,160.0,90.0,0.0,0.0
1225,69.0,0.0,90.0,0.0,0.0
1226,73.0,0.0,90.0,0.0,0.0
1227,77.0,0.0,90.0,0.0,0.0
1228,63.0,240.0,90.0,0.0,0.0
1229,69.0,0.0,90.0,0.0,0.0
1230,72.0,0.0,90.0,0.0,0.0
1231,69.0,80.0,150.0,0.0,0.0
1232,72.0,0.0,150.0,0.0,0.0
1233,77.0,0.0,150.0,0.0,0.0
1234,63.0,0.0,150.0,0.0,0.0
1235,76.0,0.0,90.0,0.0,0.0
1236,71.0,0.0,90.0,0.0,0.0
1237,68.0,0.0,90.0,0.0,0.0
1238,64.0,160.0,90.0,0.0,0.0
1239,64.0,0.0,90.0,0.0,0.0
1240,71.0,0.0,90.0,0.0,0.0
1241,76.0,0.0,90.0,0.0,0.0
1242,80.0,240.0,90.0,0.0,0.0
1243,86.0,0.0,90.0,0.0,0.0
1244,76.0,0.0,150.0,0.0,0.0
1245,64.0,80.0,150.0,0.0,0.0
1246,80.0,0.0,150.0,0.0,0.0
1247,86.0,0.0,150.0,0.0,0.0
1248,71.0,0.0,150.0,0.0,0.0
1249,85.0,0.0,90.0,0.0,0.0
1250,81.0,160.0,90.0,0.0,0.0
1251,69.0,0.0,90.0,0.0,0.0
1252,76.0,0.0,90.0,0.0,0.0
1253,69.0,0.0,90.0,0.0,0.0
1254,63.0,0.0,90.0,0.0,0.0
1255,72.0,240.0,90.0,0.0,0.0
1256,77.0,0.0,90.0,0.0,0.0
1257,63.0,80.0,150.0,0.0,0.0
1258,69.0,0.0,150.0,0.0,0.0
1259,72.0,0.0,150.0,0.0,0.0
1260,77.0,0.0,150.0,0.0,0.0
1261,71.0,0.0,90.0,0.0,0.0
1262,76.0,0.0,90.0,0.0,0.0
1263,64.0,0.0,90.0,0.0,0.0
1264,68.0,160.0,90.0,0.0,0.0
1265,52.0,0.0,90.0,0.0,0.0
1266,59.0,0.0,90.0,0.0,0.0
1267,64.0,240.0,90.0,0.0,0.0
1268,68.0,0.0,90.0,0.0,0.0
1269,74.0,0.0,90.0,0.0,0.0
1270,64.0,80.0,150.0,0.0,0.0
1271,74.0,0.0,150.0,0.0,0.0
1272,68.0,0.0,150.0,0.0,0.0
1273,59.0,0.0,150.0,0.0,0.0
1274,52.0,0.0,150.0,0.0,0.0
1275,73.0,0.0,90.0,0.0,0.0
1276,69.0,160.0,90.0,0.0,0.0
1277,57.0,0.0,90.0,0.0,0.0
1278,64.0,0.0,90.0,0.0,0.0
1279,65.0,0.0,90.0,0.0,0.0
1280,57.0,0.0,90.0,0.0,0.0
1281,60.0,0.0,90.0,0.0,0.0
1282,51.0,240.0,90.0,0.0,0.0
1283,60.0,0.0,150.0,0.0,0.0
1284,65.0,80.0,150.0,0.0,0.0
1285,57.0,0.0,150.0,0.0,0.0
1286,51.0,0.0,150.0,0.0,0.0
1287,64.0,0.0,90.0,0.0,0.0
1288,59.0,0.0,90.0,0.0,0.0
1289,52.0,0.0,90.0,0.0,0.0
1290,56.0,160.0,90.0,0.0,0.0
1291,62.0,240.0,90.0,0.0,0.0
1292,52.0,0.0,90.0,0.0,0.0
1293,40.0,0.0,90.0,0.0,0.0
1294,59.0,0.0,90.0,0.0,0.0
1295,56.0,0.0,90.0,0.0,0.0
1296,62.0,0.0,150.0,0.0,0.0
1297,56.0,0.0,150.0,0.0,0.0
1298,59.0,80.0,150.0,0.0,0.0
1299,40.0,0.0,150.0,0.0,0.0
1300,52.0,0.0,150.0,0.0,0.0
1301,51.0,160.0,90.0,0.0,0.0
1302,39.0,0.0,90.0,0.0,0.0
1303,60.0,0.0,90.0,0.0,0.0
1304,56.0,0.0,90.0,0.0,0.0
1305,63.0,0.0,90.0,0.0,0.0
1306,53.0,0.0,90.0,0.0,0.0
1307,68.0,240.0,90.0,0.0,0.0
1308,58.0,0.0,90.0,0.0,0.0
1309,62.0,0.0,90.0,0.0,0.0
1310,51.0,0.0,90.0,0.0,0.0
1311,51.0,0.0,150.0,0.0,0.0
1312,62.0,0.0,150.0,0.0,0.0
1313,58.0,0.0,150.0,0.0,0.0
1314,53.0,80.0,150.0,0.0,0.0
1315,68.0,0.0,150.0,0.0,0.0
1316,58.0,0.0,90.0,0.0,0.0
1317,51.0,160.0,90.0,0.0,0.0
1318,55.0,0.0,90.0,0.0,0.0
1319,63.0,0.0,90.0,0.0,0.0
1320,67.0,0.0,90.0,0.0,0.0
1321,61.0,0.0,90.0,0.0,0.0
1322,63.0,0.0,90.0,0.0,0.0
1323,67.0,240.0,90.0,0.0,0.0
1324,58.0,0.0,90.0,0.0,0.0
1325,51.0,0.0,90.0,0.0,0.0
1326,73.0,0.0,90.0,0.0,0.0
1327,61.0,0.0,150.0,0.0,0.0
1328,58.0,0.0,150.0,0.0,0.0
1329,73.0,80.0,150.0,0.0,0.0
1330,67.0,0.0,150.0,0.0,0.0
1331,72.0,0.0,90.0,0.0,0.0
1332,68.0,0.0,90.0,0.0,0.0
1333,56.0,160.0,90.0,0.0,0.0
1334,51.0,0.0,15.0,0.0,0.0
1335,60.0,0.0,90.0,0.0,0.0
1336,63.0,0.0,15.0,0.0,0.0
1337,65.0,0.0,90.0,0.0,0.0
1338,68.0,0.0,90.0,0.0,0.0
1339,70.0,0.0,90.0,0.0,0.0
1340,74.0,0.0,90.0,0.0,0.0
1341,58.0,0.0,90.0,0.0,0.0
1342,51.0,240.0,90.0,0.0,0.0
1343,80.0,0.0,90.0,0.0,0.0
1344,58.0,0.0,150.0,0.0,0.0
1345,65.0,0.0,150.0,0.0,0.0
1346,68.0,80.0,150.0,0.0,0.0
1347,80.0,0.0,150.0,0.0,0.0
1348,70.0,0.0,150.0,0.0,0.0
1349,74.0,0.0,150.0,0.0,0.0
1350,75.0,0.0,90.0,0.0,0.0
1351,79.0,160.0,90.0,0.0,0.0
1352,67.0,0.0,90.0,0.0,0.0
1353,51.0,0.0,15.0,0.0,0.0
1354,58.0,0.0,90.0,0.0,0.0
1355,63.0,0.0,90.0,0.0,0.0
1356,85.0,0.0,90.0,0.0,0.0
1357,75.0,0.0,90.0,0.0,0.0
1358,73.0,0.0,90.0,0.0,0.0
1359,79.0,240.0,90.0,0.0,0.0
1360,58.0,0.0,90.0,0.0,0.0
1361,51.0,0.0,90.0,0.0,0.0
1362,63.0,0.0,90.0,0.0,0.0
1363,85.0,0.0,150.0,0.0,0.0
1364,79.0,0.0,150.0,0.0,0.0
1365,75.0,0.0,150.0,0.0,0.0
1366,63.0,160.0,150.0,0.0,0.0
1367,51.0,0.0,150.0,0.0,0.0
1368,73.0,0.0,150.0,0.0,0.0
1369,70.0,160.0,150.0,0.0,0.0
1370,66.0,0.0,150.0,0.0,0.0
1371,58.0,0.0,15.0,0.0,0.0
1372,64.0,0.0,150.0,0.0,0.0
1373,67.0,0.0,150.0,0.0,0.0
1374,49.0,160.0,150.0,0.0,0.0
1375,76.0,0.0,150.0,0.0,0.0
1376,69.0,160.0,150.0,0.0,0.0
1377,52.0,0.0,150.0,0.0,0.0
1378,61.0,0.0,150.0,0.0,0.0
1379,73.0,0.0,150.0,0.0,0.0
1380,70.0,160.0,150.0,0.0,0.0
1381,79.0,0.0,150.0,0.0,0.0
1382,46.0,0.0,150.0,0.0,0.0
1383,72.0,0.0,150.0,0.0,0.0
1384,76.0,0.0,150.0,0.0,0.0
1385,58.0,0.0,150.0,0.0,0.0
1386,52.0,160.0,150.0,0.0,0.0
1387,73.0,160.0,150.0,0.0,0.0
1388,82.0,0.0,150.0,0.0,0.0
1389,43.0,0.0,150.0,0.0,0.0
1390,49.0,0.0,150.0,0.0,0.0
1391,55.0,160.0,150.0,0.0,0.0
1392,79.0,0.0,150.0,0.0,0.0
1393,75.0,0.0,150.0,0.0,0.0
1394,85.0,160.0,150.0,0.0,0.0
1395,40.0,0.0,150.0,0.0,0.0
1396,76.0,0.0,150.0,0.0,0.0
1397,78.0,160.0,150.0,0.0,0.0
1398,82.0,0.0,150.0,0.0,0.0
1399,52.0,0.0,150.0,0.0,0.0
1400,46.0,0.0,150.0,0.0,0.0
1401,88.0,160.0,150.0,0.0,0.0
1402,79.0,0.0,150.0,0.0,0.0
1403,37.0,0.0,15.0,0.0,0.0
1404,25.0,0.0,150.0,0.0,0.0
1405,79.0,160.0,150.0,0.0,0.0
1406,91.0,0.0,150.0,0.0,0.0
1407,92.0,0.0,150.0,0.0,0.0
1408,24.0,160.0,150.0,0.0,0.0
1409,48.0,0.0,150.0,0.0,0.0
1410,36.0,0.0,150.0,0.0,0.0
1411,80.0,0.0,150.0,0.0,0.0
1412,68.0,160.0,150.0,0.0,0.0
1413,36.0,0.0,150.0,0.0,0.0
1414,48.0,0.0,150.0,0.0,0.0
1415,63.0,0.0,150.0,0.0,0.0
1416,56.0,0.0,150.0,0.0,0.0
1417,48.0,0.0,150.0,0.0,0.0
1418,36.0,0.0,150.0,0.0,0.0
1419,63.0,0.0,150.0,0.0,0.0
1420,36.0,0.0,150.0,0.0,0.0
1421,68.0,160.0,15.0,0.0,0.0
1422,64.0,0.0,150.0,0.0,0.0
1423,56.0,0.0,15.0,0.0,0.0
1424,48.0,0.0,15.0,0.0,0.0
1425,36.0,0.0,150.0,0.0,0.0
1426,56.0,0.0,150.0,0.0,0.0
1427,64.0,0.0,150.0,0.0,0.0
1428,68.0,160.0,15.0,0.0,0.0
1429,56.0,160.0,150.0,0.0,0.0
1430,64.0,0.0,150.0,0.0,0.0
1431,48.0,0.0,15.0,0.0,0.0
1432,36.0,0.0,15.0,0.0,0.0
1433,35.0,0.0,150.0,0.0,0.0
1434,68.0,160.0,15.0,0.0,0.0
1435,47.0,0.0,150.0,0.0,0.0
1436,64.0,0.0,15.0,0.0,0.0
1437,56.0,0.0,15.0,0.0,0.0
1438,35.0,160.0,150.0,0.0,0.0
1439,56.0,0.0,150.0,0.0,0.0
1440,64.0,160.0,15.0,0.0,0.0
1441,68.0,0.0,150.0,0.0,0.0
1442,47.0,0.0,150.0,0.0,0.0
1443,35.0,0.0,150.0,0.0,0.0
1444,47.0,160.0,150.0,0.0,0.0
1445,68.0,0.0,150.0,0.0,0.0
1446,56.0,0.0,150.0,0.0,0.0
1447,64.0,0.0,150.0,0.0,0.0
1448,48.0,0.0,15.0,0.0,0.0
1449,64.0,0.0,15.0,0.0,0.0
1450,36.0,0.0,15.0,0.0,0.0
1451,68.0,0.0,15.0,0.0,0.0
1452,56.0,160.0,15.0,0.0,0.0
1453,68.0,0.0,15.0,0.0,0.0
1454,56.0,0.0,15.0,0.0,0.0
1455,64.0,0.0,15.0,0.0,0.0
1456,36.0,0.0,90.0,0.0,0.0
1457,48.0,80.0,15.0,0.0,0.0
1458,48.0,0.0,90.0,0.0,0.0
1459,36.0,160.0,90.0,0.0,0.0
1460,56.0,0.0,90.0,0.0,0.0
1461,65.0,0.0,90.0,0.0,0.0
1462,68.0,0.0,90.0,0.0,0.0
1463,36.0,0.0,90.0,0.0,0.0
1464,48.0,0.0,90.0,0.0,0.0
1465,68.0,160.0,90.0,0.0,0.0
1466,65.0,0.0,90.0,0.0,0.0
1467,56.0,0.0,90.0,0.0,0.0
1468,65.0,0.0,90.0,0.0,0.0
1469,68.0,0.0,90.0,0.0,0.0
1470,56.0,0.0,90.0,0.0,0.0
1471,48.0,0.0,90.0,0.0,0.0
1472,36.0,160.0,90.0,0.0,0.0
1473,48.0,0.0,90.0,0.0,0.0
1474,65.0,0.0,90.0,0.0,0.0
1475,36.0,160.0,90.0,0.0,0.0
1476,57.0,0.0,90.0,0.0,0.0
1477,69.0,0.0,90.0,0.0,0.0
1478,57.0,160.0,90.0,0.0,0.0
1479,65.0,0.0,90.0,0.0,0.0
1480,69.0,0.0,90.0,0.0,0.0
1481,36.0,0.0,90.0,0.0,0.0
1482,48.0,0.0,90.0,0.0,0.0
1483,36.0,0.0,90.0,0.0,0.0
1484,69.0,160.0,90.0,0.0,0.0
1485,65.0,0.0,90.0,0.0,0.0
1486,57.0,0.0,90.0,0.0,0.0
1487,48.0,0.0,90.0,0.0,0.0
1488,47.0,160.0,90.0,0.0,0.0
1489,69.0,0.0,90.0,0.0,0.0
1490,57.0,0.0,90.0,0.0,0.0
1491,65.0,0.0,90.0,0.0,0.0
1492,35.0,0.0,90.0,0.0,0.0
1493,57.0,0.0,90.0,0.0,0.0
1494,47.0,0.0,90.0,0.0,0.0
1495,35.0,0.0,90.0,0.0,0.0
1496,65.0,160.0,90.0,0.0,0.0
1497,69.0,0.0,90.0,0.0,0.0
1498,47.0,0.0,90.0,0.0,0.0
1499,35.0,0.0,90.0,0.0,0.0
1500,57.0,160.0,90.0,0.0,0.0
1501,65.0,0.0,90.0,0.0,0.0
1502,69.0,0.0,90.0,0.0,0.0
1503,48.0,0.0,90.0,0.0,0.0
1504,36.0,0.0,90.0,0.0,0.0
1505,57.0,0.0,90.0,0.0,0.0
1506,64.0,0.0,90.0,0.0,0.0
1507,69.0,160.0,90.0,0.0,0.0
1508,48.0,0.0,90.0,0.0,0.0
1509,69.0,0.0,90.0,0.0,0.0
1510,57.0,0.0,90.0,0.0,0.0
1511,63.0,0.0,90.0,0.0,0.0
1512,36.0,160.0,90.0,0.0,0.0
1513,37.0,0.0,90.0,0.0,0.0
1514,49.0,0.0,90.0,0.0,0.0
1515,69.0,0.0,90.0,0.0,0.0
1516,64.0,0.0,90.0,0.0,0.0
1517,57.0,240.0,90.0,0.0,0.0
1518,73.0,0.0,150.0,0.0,0.0
1519,64.0,0.0,150.0,0.0,0.0
1520,61.0,0.0,150.0,0.0,0.0
1521,52.0,0.0,150.0,0.0,0.0
1522,57.0,0.0,150.0,0.0,0.0
1523,45.0,160.0,15.0,0.0,0.0
1524,57.0,0.0,150.0,0.0,0.0
1525,73.0,160.0,15.0,0.0,0.0
1526,64.0,0.0,15.0,0.0,0.0
1527,61.0,0.0,15.0,0.0,0.0
1528,57.0,0.0,150.0,0.0,0.0
1529,52.0,0.0,15.0,0.0,0.0
1530,45.0,0.0,15.0,0.0,0.0
1531,59.0,0.0,150.0,0.0,0.0
1532,71.0,160.0,150.0,0.0,0.0
1533,69.0,160.0,150.0,0.0,0.0
1534,57.0,0.0,150.0,0.0,0.0
1535,26.0,160.0,150.0,0.0,0.0
1536,38.0,0.0,150.0,0.0,0.0
1537,73.0,0.0,150.0,0.0,0.0
1538,45.0,0.0,150.0,0.0,0.0
1539,57.0,0.0,150.0,0.0,0.0
1540,66.0,160.0,150.0,0.0,0.0
1541,50.0,0.0,15.0,0.0,0.0
1542,57.0,0.0,150.0,0.0,0.0
1543,45.0,0.0,150.0,0.0,0.0
1544,61.0,0.0,15.0,0.0,0.0
1545,45.0,0.0,150.0,0.0,0.0
1546,50.0,0.0,150.0,0.0,0.0
1547,73.0,160.0,15.0,0.0,0.0
1548,66.0,0.0,15.0,0.0,0.0
1549,61.0,0.0,15.0,0.0,0.0
1550,57.0,0.0,150.0,0.0,0.0
1551,71.0,0.0,150.0,0.0,0.0
1552,59.0,160.0,150.0,0.0,0.0
1553,69.0,0.0,150.0,0.0,0.0
1554,57.0,160.0,150.0,0.0,0.0
1555,28.0,0.0,150.0,0.0,0.0
1556,40.0,160.0,150.0,0.0,0.0
1557,73.0,0.0,150.0,0.0,0.0
1558,45.0,0.0,150.0,0.0,0.0
1559,52.0,0.0,150.0,0.0,0.0
1560,61.0,160.0,150.0,0.0,0.0
1561,64.0,0.0,150.0,0.0,0.0
1562,52.0,0.0,150.0,0.0,0.0
1563,45.0,0.0,150.0,0.0,0.0
1564,57.0,0.0,15.0,0.0,0.0
1565,73.0,160.0,150.0,0.0,0.0
1566,57.0,0.0,15.0,0.0,0.0
1567,45.0,0.0,150.0,0.0,0.0
1568,61.0,0.0,15.0,0.0,0.0
1569,64.0,0.0,15.0,0.0,0.0
1570,73.0,0.0,150.0,0.0,0.0
1571,52.0,160.0,150.0,0.0,0.0
1572,71.0,160.0,150.0,0.0,0.0
1573,59.0,0.0,150.0,0.0,0.0
1574,57.0,0.0,150.0,0.0,0.0
1575,69.0,160.0,150.0,0.0,0.0
1576,42.0,0.0,150.0,0.0,0.0
1577,30.0,160.0,150.0,0.0,0.0
1578,57.0,0.0,15.0,0.0,0.0
1579,54.0,0.0,15.0,0.0,0.0
1580,73.0,160.0,15.0,0.0,0.0
1581,63.0,0.0,15.0,0.0,0.0
1582,47.0,0.0,15.0,0.0,0.0
1583,61.0,0.0,15.0,0.0,0.0
1584,57.0,0.0,15.0,0.0,0.0
1585,63.0,0.0,15.0,0.0,0.0
1586,61.0,0.0,15.0,0.0,0.0
1587,73.0,160.0,15.0,0.0,0.0
1588,54.0,0.0,15.0,0.0,0.0
1589,47.0,0.0,150.0,0.0,0.0
1590,71.0,0.0,150.0,0.0,0.0
1591,59.0,160.0,150.0,0.0,0.0
1592,69.0,0.0,150.0,0.0,0.0
1593,57.0,1920.0,15.0,0.0,0.0
1594,51.0,0.0,1920.0,0.0,0.0
1595,47.0,0.0,1920.0,0.0,0.0
1596,59.0,1920.0,1920.0,0.0,0.0
1597,23.0,0.0,1920.0,0.0,0.0
1598,35.0,0.0,1920.0,0.0,0.0
1599,28.0,0.0,1920.0,0.0,0.0
1600,40.0,120.0,1920.0,0.0,0.0
1601,50.0,0.0,1920.0,0.0,0.0
1602,61.0,0.0,1920.0,0.0,0.0
1603,56.0,0.0,1920.0,0.0,0.0
1604,30.0,120.0,120.0,0.0,0.0
1605,42.0,0.0,120.0,0.0,0.0
1606,49.0,120.0,120.0,0.0,0.0
1607,57.0,0.0,120.0,0.0,0.0
1608,45.0,0.0,120.0,0.0,0.0
1609,54.0,120.0,120.0,0.0,0.0
1610,37.0,120.0,120.0,0.0,0.0
1611,30.0,120.0,120.0,0.0,0.0
1612,42.0,0.0,120.0,0.0,0.0
1613,49.0,120.0,120.0,0.0,0.0
1614,45.0,0.0,120.0,0.0,0.0
1615,57.0,120.0,120.0,0.0,0.0
1616,54.0,0.0,120.0,0.0,0.0
1617,37.0,120.0,120.0,0.0,0.0
1618,42.0,120.0,120.0,0.0,0.0
1619,30.0,0.0,120.0,0.0,0.0
1620,49.0,120.0,120.0,0.0,0.0
1621,54.0,120.0,120.0,0.0,0.0
1622,57.0,0.0,120.0,0.0,0.0
1623,45.0,0.0,120.0,0.0,0.0
1624,37.0,120.0,120.0,0.0,0.0
1625,30.0,0.0,120.0,0.0,0.0
1626,42.0,120.0,120.0,0.0,0.0
1627,49.0,120.0,120.0,0.0,0.0
1628,57.0,0.0,120.0,0.0,0.0
1629,54.0,120.0,120.0,0.0,0.0
1630,45.0,0.0,120.0,0.0,0.0
1631,37.0,120.0,120.0,0.0,0.0
1632,42.0,0.0,120.0,0.0,0.0
1633,30.0,120.0,120.0,0.0,0.0
1634,49.0,120.0,120.0,0.0,0.0
1635,45.0,0.0,120.0,0.0,0.0
1636,57.0,0.0,120.0,0.0,0.0
1637,54.0,120.0,120.0,0.0,0.0
1638,37.0,120.0,120.0,0.0,0.0
1639,42.0,0.0,120.0,0.0,0.0
1640,30.0,120.0,120.0,0.0,0.0
1641,49.0,120.0,120.0,0.0,0.0
1642,45.0,120.0,120.0,0.0,0.0
1643,57.0,0.0,120.0,0.0,0.0
1644,54.0,0.0,120.0,0.0,0.0
1645,37.0,120.0,120.0,0.0,0.0
1646,42.0,0.0,120.0,0.0,0.0
1647,30.0,120.0,120.0,0.0,0.0
1648,49.0,120.0,120.0,0.0,0.0
1649,57.0,0.0,120.0,0.0,0.0
1650,45.0,120.0,120.0,0.0,0.0
1651,54.0,0.0,120.0,0.0,0.0
1652,37.0,120.0,120.0,0.0,0.0
1653,30.0,120.0,120.0,0.0,0.0
1654,42.0,0.0,120.0,0.0,0.0
1655,49.0,120.0,120.0,0.0,0.0
1656,45.0,120.0,120.0,0.0,0.0
1657,57.0,0.0,120.0,0.0,0.0
1658,54.0,0.0,120.0,0.0,0.0
1659,49.0,120.0,120.0,0.0,0.0
1660,69.0,0.0,120.0,0.0,0.0
1661,42.0,60.0,120.0,0.0,0.0
1662,49.0,120.0,120.0,0.0,0.0
1663,66.0,60.0,60.0,0.0,0.0
1664,57.0,0.0,120.0,0.0,0.0
1665,54.0,120.0,120.0,0.0,0.0
1666,68.0,120.0,120.0,0.0,0.0
1667,49.0,0.0,120.0,0.0,0.0
1668,42.0,0.0,120.0,0.0,0.0
1669,69.0,60.0,120.0,0.0,0.0
1670,66.0,60.0,60.0,0.0,0.0
1671,49.0,120.0,120.0,0.0,0.0
1672,54.0,120.0,120.0,0.0,0.0
1673,57.0,0.0,120.0,0.0,0.0
1674,49.0,120.0,120.0,0.0,0.0
1675,42.0,0.0,120.0,0.0,0.0
1676,69.0,60.0,120.0,0.0,0.0
1677,66.0,60.0,60.0,0.0,0.0
1678,49.0,120.0,120.0,0.0,0.0
1679,57.0,120.0,120.0,0.0,0.0
1680,54.0,0.0,120.0,0.0,0.0
1681,68.0,0.0,120.0,0.0,0.0
1682,49.0,120.0,120.0,0.0,0.0
1683,69.0,60.0,120.0,0.0,0.0
1684,42.0,0.0,120.0,0.0,0.0
1685,49.0,120.0,120.0,0.0,0.0
1686,66.0,60.0,60.0,0.0,0.0
1687,57.0,0.0,120.0,0.0,0.0
1688,54.0,120.0,120.0,0.0,0.0
1689,49.0,120.0,120.0,0.0,0.0
1690,42.0,0.0,120.0,0.0,0.0
1691,69.0,60.0,120.0,0.0,0.0
1692,66.0,60.0,60.0,0.0,0.0
1693,49.0,120.0,120.0,0.0,0.0
1694,54.0,120.0,120.0,0.0,0.0
1695,57.0,0.0,120.0,0.0,0.0
1696,68.0,0.0,120.0,0.0,0.0
1697,49.0,120.0,120.0,0.0,0.0
1698,69.0,60.0,120.0,0.0,0.0
1699,42.0,0.0,120.0,0.0,0.0
1700,78.0,60.0,60.0,0.0,0.0
1701,49.0,120.0,120.0,0.0,0.0
1702,54.0,0.0,120.0,0.0,0.0
1703,57.0,120.0,120.0,0.0,0.0
1704,49.0,120.0,120.0,0.0,0.0
1705,44.0,0.0,120.0,0.0,0.0
1706,77.0,60.0,120.0,0.0,0.0
1707,50.0,120.0,120.0,0.0,0.0
1708,68.0,60.0,60.0,0.0,0.0
1709,59.0,0.0,120.0,0.0,0.0
1710,53.0,120.0,120.0,0.0,0.0
1711,69.0,0.0,120.0,0.0,0.0
1712,50.0,120.0,120.0,0.0,0.0
1713,44.0,60.0,120.0,0.0,0.0
1714,71.0,0.0,120.0,0.0,0.0
1715,68.0,60.0,60.0,0.0,0.0
1716,50.0,120.0,120.0,0.0,0.0
1717,59.0,120.0,120.0,0.0,0.0
1718,53.0,0.0,120.0,0.0,0.0
1719,50.0,120.0,120.0,0.0,0.0
1720,44.0,0.0,120.0,0.0,0.0
1721,74.0,60.0,120.0,0.0,0.0
1722,47.0,120.0,120.0,0.0,0.0
1723,68.0,60.0,60.0,0.0,0.0
1724,53.0,0.0,120.0,0.0,0.0
1725,59.0,120.0,120.0,0.0,0.0
1726,47.0,120.0,120.0,0.0,0.0
1727,69.0,0.0,120.0,0.0,0.0
1728,71.0,0.0,120.0,0.0,0.0
1729,44.0,60.0,120.0,0.0,0.0
1730,68.0,60.0,60.0,0.0,0.0
1731,50.0,120.0,120.0,0.0,0.0
1732,59.0,120.0,120.0,0.0,0.0
1733,53.0,0.0,120.0,0.0,0.0
1734,50.0,120.0,120.0,0.0,0.0
1735,44.0,60.0,120.0,0.0,0.0
1736,74.0,0.0,120.0,0.0,0.0
1737,68.0,60.0,60.0,0.0,0.0
1738,47.0,120.0,120.0,0.0,0.0
1739,59.0,120.0,120.0,0.0,0.0
1740,53.0,0.0,120.0,0.0,0.0
1741,47.0,120.0,120.0,0.0,0.0
1742,69.0,0.0,120.0,0.0,0.0
1743,44.0,60.0,120.0,0.0,0.0
1744,71.0,0.0,120.0,0.0,0.0
1745,68.0,60.0,60.0,0.0,0.0
1746,50.0,120.0,120.0,0.0,0.0
1747,53.0,120.0,120.0,0.0,0.0
1748,59.0,0.0,120.0,0.0,0.0
1749,50.0,120.0,120.0,0.0,0.0
1750,74.0,60.0,120.0,0.0,0.0
1751,44.0,0.0,120.0,0.0,0.0
1752,47.0,120.0,120.0,0.0,0.0
1753,68.0,60.0,60.0,0.0,0.0
1754,53.0,120.0,120.0,0.0,0.0
1755,59.0,0.0,120.0,0.0,0.0
1756,69.0,0.0,120.0,0.0,0.0
1757,47.0,120.0,120.0,0.0,0.0
1758,44.0,60.0,120.0,0.0,0.0
1759,71.0,0.0,120.0,0.0,0.0
1760,50.0,120.0,120.0,0.0,0.0
1761,80.0,60.0,60.0,0.0,0.0
1762,59.0,120.0,120.0,0.0,0.0
1763,53.0,0.0,120.0,0.0,0.0
1764,50.0,120.0,120.0,0.0,0.0
1765,45.0,60.0,120.0,0.0,0.0
1766,80.0,120.0,240.0,0.0,0.0
1767,49.0,0.0,120.0,0.0,0.0
1768,69.0,60.0,60.0,0.0,0.0
1769,61.0,0.0,120.0,0.0,0.0
1770,53.0,120.0,120.0,0.0,0.0
1771,49.0,120.0,120.0,0.0,0.0
1772,71.0,0.0,120.0,0.0,0.0
1773,78.0,120.0,240.0,0.0,0.0
1774,73.0,0.0,120.0,0.0,0.0
1775,45.0,60.0,120.0,0.0,0.0
1776,49.0,0.0,120.0,0.0,0.0
1777,69.0,60.0,60.0,0.0,0.0
1778,54.0,0.0,120.0,0.0,0.0
1779,61.0,120.0,120.0,0.0,0.0
1780,49.0,120.0,120.0,0.0,0.0
1781,81.0,0.0,120.0,0.0,0.0
1782,69.0,0.0,120.0,0.0,0.0
1783,48.0,60.0,120.0,0.0,0.0
1784,80.0,60.0,60.0,0.0,0.0
1785,75.0,0.0,60.0,0.0,0.0
1786,57.0,120.0,120.0,0.0,0.0
1787,63.0,120.0,120.0,0.0,0.0
1788,78.0,0.0,120.0,0.0,0.0
1789,69.0,120.0,120.0,0.0,0.0
1790,48.0,0.0,120.0,0.0,0.0
1791,77.0,60.0,120.0,0.0,0.0
1792,49.0,0.0,120.0,0.0,0.0
1793,73.0,0.0,120.0,0.0,0.0
1794,56.0,120.0,120.0,0.0,0.0
1795,80.0,60.0,60.0,0.0,0.0
1796,68.0,0.0,60.0,0.0,0.0
1797,65.0,120.0,120.0,0.0,0.0
1798,49.0,120.0,120.0,0.0,0.0
1799,62.0,0.0,120.0,0.0,0.0
1800,74.0,0.0,120.0,0.0,0.0
1801,41.0,60.0,120.0,0.0,0.0
1802,73.0,60.0,60.0,0.0,0.0
1803,68.0,0.0,60.0,0.0,0.0
1804,50.0,120.0,120.0,0.0,0.0
1805,59.0,120.0,120.0,0.0,0.0
1806,62.0,0.0,120.0,0.0,0.0
1807,71.0,0.0,120.0,0.0,0.0
1808,41.0,120.0,120.0,0.0,0.0
1809,66.0,0.0,120.0,0.0,0.0
1810,69.0,60.0,120.0,0.0,0.0
1811,42.0,0.0,120.0,0.0,0.0
1812,49.0,120.0,120.0,0.0,0.0
1813,61.0,60.0,60.0,0.0,0.0
1814,73.0,0.0,60.0,0.0,0.0
1815,57.0,120.0,120.0,0.0,0.0
1816,42.0,120.0,120.0,0.0,0.0
1817,48.0,0.0,120.0,0.0,0.0
1818,69.0,0.0,120.0,0.0,0.0
1819,81.0,60.0,120.0,0.0,0.0
1820,80.0,60.0,60.0,0.0,0.0
1821,57.0,120.0,120.0,0.0,0.0
1822,75.0,0.0,60.0,0.0,0.0
1823,63.0,120.0,120.0,0.0,0.0
1824,48.0,0.0,120.0,0.0,0.0
1825,69.0,0.0,120.0,0.0,0.0
1826,78.0,120.0,120.0,0.0,0.0
1827,73.0,60.0,120.0,0.0,0.0
1828,49.0,0.0,120.0,0.0,0.0
1829,77.0,0.0,120.0,0.0,0.0
1830,68.0,60.0,60.0,0.0,0.0
1831,56.0,120.0,120.0,0.0,0.0
1832,80.0,0.0,60.0,0.0,0.0
1833,65.0,120.0,120.0,0.0,0.0
1834,49.0,120.0,120.0,0.0,0.0
1835,41.0,0.0,120.0,0.0,0.0
1836,74.0,60.0,120.0,0.0,0.0
1837,62.0,0.0,120.0,0.0,0.0
1838,73.0,60.0,60.0,0.0,0.0
1839,68.0,0.0,60.0,0.0,0.0
1840,50.0,120.0,120.0,0.0,0.0
1841,59.0,120.0,120.0,0.0,0.0
1842,71.0,0.0,120.0,0.0,0.0
1843,41.0,120.0,120.0,0.0,0.0
1844,62.0,0.0,120.0,0.0,0.0
1845,70.0,0.0,120.0,0.0,0.0
1846,66.0,0.0,120.0,0.0,0.0
1847,42.0,60.0,120.0,0.0,0.0
1848,73.0,0.0,60.0,0.0,0.0
1849,61.0,0.0,60.0,0.0,0.0
1850,69.0,60.0,60.0,0.0,0.0
1851,49.0,120.0,120.0,0.0,0.0
1852,57.0,120.0,120.0,0.0,0.0
1853,42.0,120.0,120.0,0.0,0.0
1854,73.0,0.0,120.0,0.0,0.0
1855,85.0,0.0,120.0,0.0,0.0
1856,39.0,0.0,120.0,0.0,0.0
1857,78.0,60.0,120.0,0.0,0.0
1858,84.0,60.0,60.0,0.0,0.0
1859,44.0,120.0,120.0,0.0,0.0
1860,72.0,0.0,60.0,0.0,0.0
1861,45.0,120.0,120.0,0.0,0.0
1862,69.0,120.0,120.0,0.0,0.0
1863,54.0,0.0,120.0,0.0,0.0
1864,81.0,0.0,120.0,0.0,0.0
1865,71.0,60.0,120.0,0.0,0.0
1866,68.0,0.0,120.0,0.0,0.0
1867,80.0,0.0,120.0,0.0,0.0
1868,39.0,0.0,120.0,0.0,0.0
1869,44.0,120.0,120.0,0.0,0.0
1870,66.0,60.0,60.0,0.0,0.0
1871,78.0,0.0,60.0,0.0,0.0
1872,45.0,120.0,120.0,0.0,0.0
1873,54.0,120.0,120.0,0.0,0.0
1874,39.0,0.0,120.0,0.0,0.0
1875,78.0,60.0,120.0,0.0,0.0
1876,66.0,0.0,120.0,0.0,0.0
1877,44.0,120.0,120.0,0.0,0.0
1878,72.0,60.0,60.0,0.0,0.0
1879,76.0,0.0,60.0,0.0,0.0
1880,45.0,120.0,120.0,0.0,0.0
1881,75.0,0.0,120.0,0.0,0.0
1882,63.0,0.0,120.0,0.0,0.0
1883,54.0,120.0,120.0,0.0,0.0
1884,71.0,60.0,120.0,0.0,0.0
1885,74.0,0.0,120.0,0.0,0.0
1886,41.0,0.0,120.0,0.0,0.0
1887,62.0,60.0,60.0,0.0,0.0
1888,46.0,120.0,120.0,0.0,0.0
1889,68.0,0.0,60.0,0.0,0.0
1890,47.0,120.0,120.0,0.0,0.0
1891,56.0,120.0,120.0,0.0,0.0
1892,64.0,0.0,120.0,0.0,0.0
1893,76.0,0.0,120.0,0.0,0.0
1894,43.0,60.0,120.0,0.0,0.0
1895,48.0,120.0,120.0,0.0,0.0
1896,75.0,0.0,60.0,0.0,0.0
1897,70.0,60.0,60.0,0.0,0.0
1898,49.0,120.0,120.0,0.0,0.0
1899,58.0,0.0,120.0,0.0,0.0
1900,73.0,120.0,120.0,0.0,0.0
1901,61.0,0.0,120.0,0.0,0.0
1902,44.0,60.0,120.0,0.0,0.0
1903,71.0,0.0,120.0,0.0,0.0
1904,68.0,0.0,120.0,0.0,0.0
1905,59.0,60.0,60.0,0.0,0.0
1906,63.0,0.0,60.0,0.0,0.0
1907,50.0,120.0,120.0,0.0,0.0
1908,51.0,120.0,120.0,0.0,0.0
1909,59.0,120.0,120.0,0.0,0.0
1910,68.0,0.0,120.0,0.0,0.0
1911,71.0,0.0,120.0,0.0,0.0
1912,42.0,60.0,120.0,0.0,0.0
1913,49.0,120.0,120.0,0.0,0.0
1914,62.0,0.0,60.0,0.0,0.0
1915,59.0,60.0,60.0,0.0,0.0
1916,50.0,120.0,120.0,0.0,0.0
1917,59.0,120.0,120.0,0.0,0.0
1918,71.0,60.0,120.0,0.0,0.0
1919,68.0,0.0,120.0,0.0,0.0
1920,41.0,0.0,120.0,0.0,0.0
1921,48.0,120.0,120.0,0.0,0.0
1922,59.0,60.0,60.0,0.0,0.0
1923,61.0,0.0,60.0,0.0,0.0
1924,49.0,120.0,120.0,0.0,0.0
1925,59.0,120.0,120.0,0.0,0.0
1926,69.0,120.0,120.0,0.0,0.0
1927,42.0,0.0,120.0,0.0,0.0
1928,61.0,0.0,120.0,0.0,0.0
1929,57.0,120.0,120.0,0.0,0.0
1930,66.0,0.0,120.0,0.0,0.0
1931,49.0,0.0,120.0,0.0,0.0
1932,54.0,120.0,120.0,0.0,0.0
1933,37.0,120.0,120.0,0.0,0.0
1934,68.0,0.0,120.0,0.0,0.0
1935,69.0,120.0,120.0,0.0,0.0
1936,42.0,0.0,120.0,0.0,0.0
1937,49.0,0.0,120.0,0.0,0.0
1938,57.0,0.0,120.0,0.0,0.0
1939,66.0,120.0,120.0,0.0,0.0
1940,61.0,0.0,120.0,0.0,0.0
1941,54.0,120.0,120.0,0.0,0.0
1942,37.0,120.0,120.0,0.0,0.0
1943,69.0,0.0,120.0,0.0,0.0
1944,42.0,120.0,120.0,0.0,0.0
1945,57.0,0.0,120.0,0.0,0.0
1946,61.0,0.0,120.0,0.0,0.0
1947,66.0,0.0,120.0,0.0,0.0
1948,49.0,120.0,120.0,0.0,0.0
1949,54.0,120.0,120.0,0.0,0.0
1950,68.0,0.0,120.0,0.0,0.0
1951,37.0,120.0,120.0,0.0,0.0
1952,69.0,0.0,120.0,0.0,0.0
1953,42.0,120.0,120.0,0.0,0.0
1954,57.0,120.0,120.0,0.0,0.0
1955,66.0,0.0,120.0,0.0,0.0
1956,61.0,0.0,120.0,0.0,0.0
1957,49.0,0.0,120.0,0.0,0.0
1958,54.0,120.0,120.0,0.0,0.0
1959,37.0,120.0,120.0,0.0,0.0
1960,42.0,120.0,120.0,0.0,0.0
1961,69.0,0.0,120.0,0.0,0.0
1962,61.0,0.0,120.0,0.0,0.0
1963,57.0,0.0,120.0,0.0,0.0
1964,66.0,0.0,120.0,0.0,0.0
1965,49.0,120.0,120.0,0.0,0.0
1966,54.0,120.0,120.0,0.0,0.0
1967,68.0,0.0,120.0,0.0,0.0
1968,37.0,120.0,120.0,0.0,0.0
1969,69.0,120.0,120.0,0.0,0.0
1970,42.0,0.0,120.0,0.0,0.0
1971,49.0,0.0,120.0,0.0,0.0
1972,66.0,0.0,120.0,0.0,0.0
1973,73.0,0.0,120.0,0.0,0.0
1974,78.0,120.0,120.0,0.0,0.0
1975,57.0,120.0,120.0,0.0,0.0
1976,45.0,120.0,120.0,0.0,0.0
1977,77.0,0.0,120.0,0.0,0.0
1978,44.0,120.0,120.0,0.0,0.0
1979,50.0,120.0,120.0,0.0,0.0
1980,68.0,0.0,120.0,0.0,0.0
1981,65.0,0.0,120.0,0.0,0.0
1982,59.0,120.0,120.0,0.0,0.0
1983,44.0,0.0,120.0,0.0,0.0
1984,69.0,120.0,120.0,0.0,0.0
1985,71.0,0.0,120.0,0.0,0.0
1986,50.0,120.0,120.0,0.0,0.0
1987,65.0,0.0,120.0,0.0,0.0
1988,62.0,0.0,120.0,0.0,0.0
1989,68.0,120.0,120.0,0.0,0.0
1990,53.0,0.0,120.0,0.0,0.0
1991,59.0,120.0,120.0,0.0,0.0
1992,44.0,120.0,120.0,0.0,0.0
1993,47.0,120.0,120.0,0.0,0.0
1994,74.0,0.0,120.0,0.0,0.0
1995,53.0,0.0,120.0,0.0,0.0
1996,62.0,0.0,120.0,0.0,0.0
1997,65.0,0.0,120.0,0.0,0.0
1998,68.0,120.0,120.0,0.0,0.0
1999,59.0,120.0,120.0,0.0,0.0
2000,44.0,120.0,120.0,0.0,0.0
2001,69.0,0.0,120.0,0.0,0.0
2002,50.0,120.0,120.0,0.0,0.0
2003,71.0,0.0,120.0,0.0,0.0
2004,62.0,0.0,120.0,0.0,0.0
2005,65.0,0.0,120.0,0.0,0.0
2006,53.0,120.0,120.0,0.0,0.0
2007,68.0,0.0,120.0,0.0,0.0
2008,59.0,120.0,120.0,0.0,0.0
2009,44.0,120.0,120.0,0.0,0.0
2010,74.0,0.0,120.0,0.0,0.0
2011,47.0,120.0,120.0,0.0,0.0
2012,68.0,0.0,120.0,0.0,0.0
2013,65.0,0.0,120.0,0.0,0.0
2014,62.0,0.0,120.0,0.0,0.0
2015,53.0,120.0,120.0,0.0,0.0
2016,59.0,120.0,120.0,0.0,0.0
2017,44.0,0.0,120.0,0.0,0.0
2018,69.0,120.0,120.0,0.0,0.0
2019,71.0,0.0,120.0,0.0,0.0
2020,50.0,120.0,120.0,0.0,0.0
2021,62.0,120.0,120.0,0.0,0.0
2022,65.0,0.0,120.0,0.0,0.0
2023,68.0,0.0,120.0,0.0,0.0
2024,53.0,0.0,120.0,0.0,0.0
2025,59.0,120.0,120.0,0.0,0.0
2026,44.0,120.0,120.0,0.0,0.0
2027,74.0,120.0,120.0,0.0,0.0
2028,47.0,0.0,120.0,0.0,0.0
2029,53.0,0.0,120.0,0.0,0.0
2030,62.0,0.0,120.0,0.0,0.0
2031,65.0,0.0,120.0,0.0,0.0
2032,68.0,120.0,120.0,0.0,0.0
2033,59.0,120.0,120.0,0.0,0.0
2034,44.0,120.0,120.0,0.0,0.0
2035,69.0,0.0,120.0,0.0,0.0
2036,50.0,0.0,120.0,0.0,0.0
2037,71.0,120.0,120.0,0.0,0.0
2038,74.0,0.0,120.0,0.0,0.0
2039,68.0,0.0,120.0,0.0,0.0
2040,53.0,0.0,120.0,0.0,0.0
2041,80.0,120.0,120.0,0.0,0.0
2042,59.0,120.0,120.0,0.0,0.0
2043,44.0,120.0,120.0,0.0,0.0
2044,80.0,0.0,120.0,0.0,0.0
2045,45.0,120.0,120.0,0.0,0.0
2046,53.0,0.0,120.0,0.0,0.0
2047,68.0,120.0,120.0,0.0,0.0
2048,69.0,0.0,120.0,0.0,0.0
2049,61.0,120.0,120.0,0.0,0.0
2050,49.0,0.0,120.0,0.0,0.0
2051,71.0,120.0,120.0,0.0,0.0
2052,54.0,0.0,120.0,0.0,0.0
2053,73.0,120.0,120.0,0.0,0.0
2054,57.0,0.0,120.0,0.0,0.0
2055,78.0,0.0,120.0,0.0,0.0
2056,69.0,120.0,120.0,0.0,0.0
2057,66.0,0.0,120.0,0.0,0.0
2058,61.0,120.0,120.0,0.0,0.0
2059,45.0,120.0,120.0,0.0,0.0
2060,48.0,0.0,120.0,0.0,0.0
2061,81.0,120.0,120.0,0.0,0.0
2062,57.0,0.0,120.0,0.0,0.0
2063,69.0,0.0,120.0,0.0,0.0
2064,75.0,0.0,120.0,0.0,0.0
2065,80.0,120.0,120.0,0.0,0.0
2066,63.0,120.0,120.0,0.0,0.0
2067,48.0,120.0,120.0,0.0,0.0
2068,78.0,0.0,120.0,0.0,0.0
2069,49.0,120.0,120.0,0.0,0.0
2070,77.0,0.0,120.0,0.0,0.0
2071,68.0,0.0,120.0,0.0,0.0
2072,73.0,0.0,120.0,0.0,0.0
2073,56.0,120.0,120.0,0.0,0.0
2074,80.0,0.0,120.0,0.0,0.0
2075,65.0,120.0,120.0,0.0,0.0
2076,49.0,120.0,120.0,0.0,0.0
2077,41.0,120.0,120.0,0.0,0.0
2078,74.0,0.0,120.0,0.0,0.0
2079,62.0,120.0,120.0,0.0,0.0
2080,73.0,0.0,120.0,0.0,0.0
2081,68.0,0.0,120.0,0.0,0.0
2082,50.0,0.0,120.0,0.0,0.0
2083,59.0,120.0,120.0,0.0,0.0
2084,71.0,0.0,120.0,0.0,0.0
2085,41.0,120.0,120.0,0.0,0.0
2086,70.0,0.0,120.0,0.0,0.0
2087,42.0,120.0,120.0,0.0,0.0
2088,61.0,120.0,120.0,0.0,0.0
2089,73.0,0.0,120.0,0.0,0.0
2090,49.0,0.0,120.0,0.0,0.0
2091,69.0,0.0,120.0,0.0,0.0
2092,66.0,0.0,120.0,0.0,0.0
2093,57.0,120.0,120.0,0.0,0.0
2094,42.0,120.0,120.0,0.0,0.0
2095,81.0,120.0,120.0,0.0,0.0
2096,48.0,0.0,120.0,0.0,0.0
2097,75.0,0.0,120.0,0.0,0.0
2098,57.0,0.0,120.0,0.0,0.0
2099,80.0,0.0,120.0,0.0,0.0
2100,69.0,120.0,120.0,0.0,0.0
2101,63.0,120.0,120.0,0.0,0.0
2102,78.0,0.0,120.0,0.0,0.0
2103,48.0,120.0,120.0,0.0,0.0
2104,77.0,0.0,120.0,0.0,0.0
2105,49.0,120.0,120.0,0.0,0.0
2106,80.0,0.0,120.0,0.0,0.0
2107,73.0,0.0,120.0,0.0,0.0
2108,56.0,120.0,120.0,0.0,0.0
2109,68.0,0.0,120.0,0.0,0.0
2110,65.0,120.0,120.0,0.0,0.0
2111,49.0,120.0,120.0,0.0,0.0
2112,46.0,120.0,120.0,0.0,0.0
2113,79.0,0.0,120.0,0.0,0.0
2114,67.0,0.0,120.0,0.0,0.0
2115,78.0,120.0,120.0,0.0,0.0
2116,73.0,0.0,120.0,0.0,0.0
2117,55.0,0.0,120.0,0.0,0.0
2118,61.0,120.0,120.0,0.0,0.0
2119,46.0,0.0,120.0,0.0,0.0
2120,76.0,120.0,120.0,0.0,0.0
2121,75.0,120.0,120.0,0.0,0.0
2122,47.0,0.0,120.0,0.0,0.0
2123,54.0,0.0,120.0,0.0,0.0
2124,66.0,0.0,120.0,0.0,0.0
2125,78.0,120.0,120.0,0.0,0.0
2126,74.0,0.0,120.0,0.0,0.0
2127,62.0,120.0,120.0,0.0,0.0
2128,47.0,120.0,120.0,0.0,0.0
2129,35.0,120.0,120.0,0.0,0.0
2130,74.0,0.0,720.0,0.0,0.0
2131,65.0,120.0,240.0,0.0,0.0
2132,77.0,0.0,240.0,0.0,0.0
2133,42.0,0.0,120.0,0.0,0.0
2134,54.0,120.0,120.0,0.0,0.0
2135,66.0,0.0,240.0,0.0,0.0
2136,78.0,120.0,240.0,0.0,0.0
2137,42.0,0.0,120.0,0.0,0.0
2138,37.0,120.0,120.0,0.0,0.0
2139,77.0,0.0,240.0,0.0,0.0
2140,65.0,120.0,240.0,0.0,0.0
2141,42.0,0.0,120.0,0.0,0.0
2142,54.0,120.0,120.0,0.0,0.0
2143,73.0,0.0,240.0,0.0,0.0
2144,78.0,0.0,240.0,0.0,0.0
2145,66.0,0.0,240.0,0.0,0.0
2146,42.0,120.0,120.0,0.0,0.0
2147,77.0,120.0,240.0,0.0,0.0
2148,65.0,0.0,240.0,0.0,0.0
2149,38.0,120.0,120.0,0.0,0.0
2150,73.0,0.0,240.0,0.0,0.0
2151,42.0,0.0,120.0,0.0,0.0
2152,71.0,120.0,480.0,0.0,0.0
2153,66.0,0.0,240.0,0.0,0.0
2154,78.0,0.0,240.0,0.0,0.0
2155,54.0,120.0,120.0,0.0,0.0
2156,42.0,120.0,120.0,0.0,0.0
2157,65.0,0.0,240.0,0.0,0.0
2158,77.0,0.0,240.0,0.0,0.0
2159,39.0,120.0,120.0,0.0,0.0
2160,47.0,0.0,120.0,0.0,0.0
2161,59.0,120.0,120.0,0.0,0.0
2162,66.0,0.0,240.0,0.0,0.0
2163,78.0,120.0,240.0,0.0,0.0
2164,47.0,0.0,120.0,0.0,0.0
2165,40.0,0.0,120.0,0.0,0.0
2166,47.0,0.0,120.0,0.0,0.0
2167,54.0,0.0,120.0,0.0,0.0
2168,69.0,0.0,15.0,0.0,0.0
2169,62.0,240.0,120.0,0.0,0.0
2170,57.0,0.0,120.0,0.0,0.0
2171,68.0,0.0,120.0,0.0,0.0
2172,56.0,0.0,120.0,0.0,0.0
2173,52.0,0.0,120.0,0.0,0.0
2174,47.0,0.0,120.0,0.0,0.0
2175,62.0,600.0,120.0,0.0,0.0
2176,40.0,0.0,120.0,0.0,0.0
2177,42.0,0.0,240.0,0.0,0.0
2178,30.0,0.0,240.0,0.0,0.0
2179,66.0,0.0,240.0,0.0,0.0
2180,57.0,0.0,240.0,0.0,0.0
2181,62.0,0.0,15.0,0.0,0.0
2182,66.0,0.0,480.0,0.0,0.0
2183,58.0,360.0,480.0,0.0,0.0
2184,52.0,480.0,15.0,0.0,0.0
2185,31.0,0.0,480.0,0.0,0.0
2186,43.0,0.0,480.0,0.0,0.0
2187,59.0,0.0,360.0,0.0,0.0
2188,52.0,0.0,15.0,0.0,0.0
2189,44.0,0.0,360.0,0.0,0.0
2190,62.0,120.0,360.0,0.0,0.0
2191,32.0,0.0,360.0,0.0,0.0
2192,64.0,0.0,360.0,0.0,0.0
2193,45.0,480.0,1440.0,0.0,0.0
2194,33.0,0.0,960.0,0.0,0.0
2195,64.0,480.0,960.0,0.0,0.0
2196,49.0,960.0,15.0,0.0,0.0
2197,61.0,0.0,480.0,0.0,0.0
2198,57.0,0.0,15.0,0.0,0.0
2199,52.0,0.0,480.0,0.0,0.0
2200,59.0,0.0,480.0,0.0,0.0
2201,54.0,0.0,480.0,0.0,0.0
2202,62.0,960.0,480.0,0.0,0.0
2203,38.0,0.0,480.0,0.0,0.0
2204,50.0,0.0,1920.0,0.0,0.0
2205,56.0,480.0,1920.0,0.0,0.0
2206,61.0,240.0,960.0,0.0,0.0
2207,40.0,240.0,1200.0,0.0,0.0
2208,59.0,0.0,960.0,0.0,0.0
2209,41.0,240.0,240.0,0.0,0.0
2210,42.0,240.0,240.0,0.0,0.0
2211,40.0,0.0,240.0,0.0,0.0
2212,49.0,480.0,600.0,0.0,0.0
2213,57.0,0.0,1020.0,0.0,0.0
2214,45.0,0.0,1440.0,0.0,0.0
2215,64.0,0.0,480.0,0.0,0.0
2216,33.0,0.0,960.0,0.0,0.0
2217,52.0,0.0,480.0,0.0,0.0
2218,61.0,240.0,480.0,0.0,0.0
2219,54.0,240.0,240.0,0.0,0.0
2220,57.0,0.0,480.0,0.0,0.0
2221,62.0,0.0,240.0,0.0,0.0
2222,52.0,0.0,240.0,0.0,0.0
2223,61.0,240.0,240.0,0.0,0.0
2224,38.0,960.0,480.0,0.0,0.0
2225,64.0,0.0,240.0,0.0,0.0
2226,56.0,240.0,240.0,0.0,0.0
2227,59.0,0.0,480.0,0.0,0.0
2228,54.0,0.0,240.0,0.0,0.0
2229,62.0,0.0,240.0,0.0,0.0
2230,50.0,480.0,1920.0,0.0,0.0
2231,56.0,0.0,1920.0,0.0,0.0
2232,61.0,240.0,960.0,0.0,0.0
2233,40.0,240.0,1200.0,0.0,0.0
2234,59.0,0.0,960.0,0.0,0.0
2235,41.0,160.0,240.0,0.0,0.0
2236,44.0,160.0,150.0,0.0,0.0
2237,42.0,160.0,150.0,0.0,0.0
2238,40.0,0.0,150.0,0.0,0.0
2239,64.0,480.0,480.0,0.0,0.0
2240,57.0,0.0,960.0,0.0,0.0
2241,33.0,0.0,480.0,0.0,0.0
2242,49.0,0.0,480.0,0.0,0.0
2243,51.0,480.0,480.0,0.0,0.0
2244,66.0,0.0,480.0,0.0,0.0
2245,60.0,0.0,480.0,0.0,0.0
2246,59.0,0.0,480.0,0.0,0.0
2247,68.0,0.0,480.0,0.0,0.0
2248,50.0,360.0,480.0,0.0,0.0
2249,40.0,0.0,960.0,0.0,0.0
2250,62.0,0.0,480.0,0.0,0.0
2251,69.0,0.0,360.0,0.0,0.0
2252,54.0,120.0,360.0,0.0,0.0
2253,52.0,0.0,120.0,0.0,0.0
2254,71.0,0.0,120.0,0.0,0.0
2255,68.0,480.0,120.0,0.0,0.0
2256,45.0,480.0,480.0,0.0,0.0
2257,61.0,0.0,480.0,0.0,0.0
2258,69.0,0.0,480.0,0.0,0.0
2259,73.0,0.0,480.0,0.0,0.0
2260,52.0,0.0,480.0,0.0,0.0
2261,51.0,420.0,480.0,0.0,0.0
2262,57.0,0.0,480.0,0.0,0.0
2263,60.0,0.0,480.0,0.0,0.0
2264,66.0,0.0,480.0,0.0,0.0
2265,50.0,480.0,960.0,0.0,0.0
2266,56.0,0.0,420.0,0.0,0.0
2267,59.0,0.0,960.0,0.0,0.0
2268,68.0,60.0,420.0,0.0,0.0
2269,40.0,360.0,480.0,0.0,0.0
2270,54.0,0.0,540.0,0.0,0.0
2271,38.0,60.0,420.0,0.0,0.0
2272,69.0,60.0,360.0,0.0,0.0
2273,71.0,0.0,120.0,0.0,0.0
2274,37.0,0.0,540.0,0.0,0.0
2275,61.0,0.0,480.0,0.0,0.0
2276,73.0,480.0,480.0,0.0,0.0
2277,68.0,0.0,960.0,0.0,0.0
2278,53.0,0.0,480.0,0.0,0.0
2279,41.0,480.0,480.0,0.0,0.0
2280,29.0,0.0,480.0,0.0,0.0
2281,71.0,0.0,480.0,0.0,0.0
2282,61.0,360.0,960.0,0.0,0.0
2283,57.0,0.0,480.0,0.0,0.0
2284,66.0,0.0,480.0,0.0,0.0
2285,69.0,0.0,480.0,0.0,0.0
2286,30.0,0.0,480.0,0.0,0.0
2287,42.0,0.0,480.0,0.0,0.0
2288,68.0,0.0,360.0,0.0,0.0
2289,64.0,0.0,360.0,0.0,0.0
2290,60.0,0.0,360.0,0.0,0.0
2291,44.0,120.0,360.0,0.0,0.0
2292,32.0,0.0,360.0,0.0,0.0
2293,66.0,0.0,120.0,0.0,0.0
2294,45.0,0.0,120.0,0.0,0.0
2295,33.0,480.0,120.0,0.0,0.0
2296,64.0,0.0,480.0,0.0,0.0
2297,61.0,0.0,15.0,0.0,0.0
2298,55.0,0.0,480.0,0.0,0.0
2299,46.0,0.0,480.0,0.0,0.0
2300,34.0,0.0,480.0,0.0,0.0
2301,35.0,0.0,360.0,0.0,0.0
2302,47.0,0.0,360.0,0.0,0.0
2303,59.0,0.0,360.0,0.0,0.0
2304,50.0,120.0,360.0,0.0,0.0
2305,62.0,0.0,360.0,0.0,0.0
2306,54.0,0.0,360.0,0.0,0.0
2307,52.0,0.0,120.0,0.0,0.0
2308,49.0,0.0,120.0,0.0,0.0
2309,37.0,0.0,120.0,0.0,0.0
2310,61.0,0.0,120.0,0.0,0.0
2311,59.0,120.0,720.0,0.0,0.0
2312,54.0,240.0,480.0,0.0,0.0
2313,57.0,480.0,15.0,0.0,0.0
2314,38.0,0.0,480.0,0.0,0.0
2315,50.0,0.0,480.0,0.0,0.0
2316,40.0,160.0,480.0,0.0,0.0
2317,50.0,120.0,360.0,0.0,0.0
2318,56.0,0.0,360.0,0.0,0.0
2319,60.0,0.0,120.0,0.0,0.0
2320,61.0,160.0,1080.0,0.0,0.0
2321,69.0,0.0,1020.0,0.0,0.0
2322,76.0,0.0,960.0,0.0,0.0
2323,33.0,160.0,150.0,0.0,0.0
2324,51.0,160.0,150.0,0.0,0.0
2325,52.0,160.0,150.0,0.0,0.0
2326,54.0,160.0,150.0,0.0,0.0
2327,52.0,160.0,150.0,0.0,0.0
2328,40.0,0.0,150.0,0.0,0.0
2329,45.0,160.0,150.0,0.0,0.0
2330,64.0,0.0,480.0,0.0,0.0
2331,69.0,0.0,480.0,0.0,0.0
2332,73.0,160.0,480.0,0.0,0.0
2333,51.0,160.0,150.0,0.0,0.0
2334,52.0,0.0,150.0,0.0,0.0
2335,54.0,80.0,150.0,0.0,0.0
2336,61.0,0.0,240.0,0.0,0.0
2337,64.0,80.0,240.0,0.0,0.0
2338,52.0,160.0,150.0,0.0,0.0
2339,74.0,160.0,240.0,0.0,0.0
2340,71.0,0.0,240.0,0.0,0.0
2341,66.0,0.0,240.0,0.0,0.0
2342,40.0,0.0,150.0,0.0,0.0
2343,47.0,160.0,150.0,0.0,0.0
2344,73.0,80.0,720.0,0.0,0.0
2345,62.0,0.0,960.0,0.0,0.0
2346,68.0,0.0,960.0,0.0,0.0
2347,51.0,160.0,150.0,0.0,0.0
2348,52.0,160.0,150.0,0.0,0.0
2349,54.0,80.0,150.0,0.0,0.0
2350,52.0,160.0,150.0,0.0,0.0
2351,71.0,160.0,240.0,0.0,0.0
2352,40.0,0.0,150.0,0.0,0.0
2353,66.0,80.0,240.0,0.0,0.0
2354,50.0,80.0,150.0,0.0,0.0
2355,51.0,160.0,150.0,0.0,0.0
2356,64.0,0.0,240.0,0.0,0.0
2357,52.0,160.0,150.0,0.0,0.0
2358,57.0,80.0,240.0,0.0,0.0
2359,54.0,80.0,150.0,0.0,0.0
2360,52.0,40.0,150.0,0.0,0.0
2361,59.0,120.0,120.0,0.0,0.0
2362,40.0,0.0,150.0,0.0,0.0
2363,69.0,0.0,960.0,0.0,0.0
2364,61.0,120.0,15.0,0.0,0.0
2365,45.0,240.0,120.0,0.0,0.0
2366,76.0,120.0,480.0,0.0,0.0
2367,51.0,120.0,120.0,0.0,0.0
2368,52.0,0.0,120.0,0.0,0.0
2369,54.0,120.0,120.0,0.0,0.0
2370,64.0,120.0,480.0,0.0,0.0
2371,73.0,0.0,480.0,0.0,0.0
2372,52.0,120.0,120.0,0.0,0.0
2373,52.0,120.0,120.0,0.0,0.0
2374,40.0,0.0,120.0,0.0,0.0
2375,45.0,120.0,120.0,0.0,0.0
2376,74.0,0.0,240.0,0.0,0.0
2377,66.0,120.0,240.0,0.0,0.0
2378,69.0,0.0,480.0,0.0,0.0
2379,51.0,120.0,120.0,0.0,0.0
2380,64.0,0.0,240.0,0.0,0.0
2381,52.0,0.0,120.0,0.0,0.0
2382,64.0,80.0,150.0,0.0,0.0
2383,73.0,120.0,15.0,0.0,0.0
2384,54.0,40.0,120.0,0.0,0.0
2385,52.0,80.0,120.0,0.0,0.0
2386,68.0,0.0,150.0,0.0,0.0
2387,76.0,40.0,150.0,0.0,0.0
2388,52.0,120.0,120.0,0.0,0.0
2389,74.0,120.0,150.0,0.0,0.0
2390,66.0,0.0,150.0,0.0,0.0
2391,40.0,0.0,120.0,0.0,0.0
2392,47.0,240.0,120.0,0.0,0.0
2393,62.0,0.0,960.0,0.0,0.0
2394,73.0,0.0,720.0,0.0,0.0
2395,68.0,160.0,960.0,0.0,0.0
2396,51.0,120.0,120.0,0.0,0.0
2397,52.0,120.0,120.0,0.0,0.0
2398,54.0,120.0,120.0,0.0,0.0
2399,71.0,0.0,240.0,0.0,0.0
2400,52.0,120.0,15.0,0.0,0.0
2401,40.0,0.0,120.0,0.0,0.0
2402,50.0,80.0,240.0,0.0,0.0
2403,66.0,80.0,150.0,0.0,0.0
2404,64.0,40.0,150.0,0.0,0.0
2405,51.0,120.0,120.0,0.0,0.0
2406,66.0,120.0,150.0,0.0,0.0
2407,52.0,0.0,120.0,0.0,0.0
2408,64.0,80.0,150.0,0.0,0.0
2409,54.0,40.0,120.0,0.0,0.0
2410,52.0,80.0,120.0,0.0,0.0
2411,57.0,40.0,150.0,0.0,0.0
2412,52.0,120.0,120.0,0.0,0.0
2413,59.0,120.0,150.0,0.0,0.0
2414,40.0,0.0,120.0,0.0,0.0
2415,64.0,120.0,480.0,0.0,0.0
2416,76.0,0.0,960.0,0.0,0.0
2417,69.0,0.0,960.0,0.0,0.0
2418,45.0,120.0,120.0,0.0,0.0
2419,52.0,120.0,120.0,0.0,0.0
2420,54.0,120.0,120.0,0.0,0.0
2421,52.0,0.0,120.0,0.0,0.0
2422,61.0,120.0,120.0,0.0,0.0
2423,66.0,120.0,480.0,0.0,0.0
2424,78.0,0.0,480.0,0.0,0.0
2425,52.0,120.0,120.0,0.0,0.0
2426,54.0,120.0,120.0,0.0,0.0
2427,52.0,0.0,120.0,0.0,0.0
2428,76.0,0.0,960.0,0.0,0.0
2429,74.0,0.0,960.0,0.0,0.0
2430,68.0,0.0,480.0,0.0,0.0
2431,80.0,0.0,480.0,0.0,0.0
2432,40.0,120.0,120.0,0.0,0.0
2433,52.0,120.0,120.0,0.0,0.0
2434,54.0,120.0,120.0,0.0,0.0
2435,52.0,120.0,120.0,0.0,0.0
2436,62.0,120.0,120.0,0.0,0.0
2437,81.0,0.0,360.0,0.0,0.0
2438,69.0,0.0,360.0,0.0,0.0
2439,52.0,120.0,120.0,0.0,0.0
2440,54.0,120.0,120.0,0.0,0.0
2441,83.0,120.0,120.0,0.0,0.0
2442,52.0,0.0,120.0,0.0,0.0
2443,71.0,0.0,120.0,0.0,0.0
2444,85.0,0.0,480.0,0.0,0.0
2445,73.0,0.0,960.0,0.0,0.0
2446,45.0,120.0,120.0,0.0,0.0
2447,76.0,0.0,960.0,0.0,0.0
2448,52.0,120.0,120.0,0.0,0.0
2449,54.0,120.0,120.0,0.0,0.0
2450,52.0,120.0,120.0,0.0,0.0
2451,66.0,120.0,480.0,0.0,0.0
2452,78.0,0.0,480.0,0.0,0.0
2453,61.0,120.0,120.0,0.0,0.0
2454,52.0,120.0,120.0,0.0,0.0
2455,54.0,120.0,120.0,0.0,0.0
2456,52.0,0.0,120.0,0.0,0.0
2457,80.0,0.0,480.0,0.0,0.0
2458,68.0,0.0,480.0,0.0,0.0
2459,74.0,120.0,480.0,0.0,0.0
2460,40.0,120.0,120.0,0.0,0.0
2461,76.0,0.0,480.0,0.0,0.0
2462,52.0,120.0,120.0,0.0,0.0
2463,54.0,120.0,120.0,0.0,0.0
2464,52.0,0.0,120.0,0.0,0.0
2465,81.0,0.0,360.0,0.0,0.0
2466,62.0,120.0,120.0,0.0,0.0
2467,69.0,120.0,360.0,0.0,0.0
2468,52.0,120.0,120.0,0.0,0.0
2469,54.0,0.0,120.0,0.0,0.0
2470,52.0,0.0,120.0,0.0,0.0
2471,71.0,0.0,120.0,0.0,0.0
2472,85.0,0.0,480.0,0.0,0.0
2473,80.0,0.0,960.0,0.0,0.0
2474,83.0,120.0,15.0,0.0,0.0
2475,73.0,120.0,480.0,0.0,0.0
2476,41.0,120.0,120.0,0.0,0.0
2477,48.0,120.0,120.0,0.0,0.0
2478,49.0,120.0,120.0,0.0,0.0
2479,56.0,0.0,120.0,0.0,0.0
2480,53.0,120.0,120.0,0.0,0.0
2481,86.0,120.0,720.0,0.0,0.0
2482,74.0,0.0,720.0,0.0,0.0
2483,60.0,120.0,120.0,0.0,0.0
2484,61.0,120.0,120.0,0.0,0.0
2485,68.0,0.0,120.0,0.0,0.0
2486,78.0,0.0,960.0,0.0,0.0
2487,42.0,120.0,120.0,0.0,0.0
2488,81.0,0.0,960.0,0.0,0.0
2489,48.0,0.0,120.0,0.0,0.0
2490,73.0,120.0,240.0,0.0,0.0
2491,49.0,120.0,120.0,0.0,0.0
2492,85.0,0.0,240.0,0.0,0.0
2493,57.0,0.0,120.0,0.0,0.0
2494,84.0,120.0,240.0,0.0,0.0
2495,72.0,0.0,240.0,0.0,0.0
2496,54.0,120.0,120.0,0.0,0.0
2497,60.0,0.0,120.0,0.0,0.0
2498,85.0,120.0,240.0,0.0,0.0
2499,73.0,0.0,240.0,0.0,0.0
2500,61.0,120.0,120.0,0.0,0.0
2501,69.0,0.0,120.0,0.0,0.0
2502,76.0,0.0,480.0,0.0,0.0
2503,88.0,0.0,480.0,0.0,0.0
2504,86.0,0.0,960.0,0.0,0.0
2505,83.0,0.0,960.0,0.0,0.0
2506,44.0,120.0,120.0,0.0,0.0
2507,51.0,120.0,120.0,0.0,0.0
2508,52.0,120.0,120.0,0.0,0.0
2509,59.0,120.0,120.0,0.0,0.0
2510,78.0,0.0,720.0,0.0,0.0
2511,90.0,0.0,720.0,0.0,0.0
2512,56.0,120.0,120.0,0.0,0.0
2513,63.0,120.0,120.0,0.0,0.0
2514,64.0,120.0,120.0,0.0,0.0
2515,71.0,120.0,120.0,0.0,0.0
2516,46.0,120.0,120.0,0.0,0.0
2517,85.0,120.0,480.0,0.0,0.0
2518,53.0,120.0,120.0,0.0,0.0
2519,76.0,0.0,240.0,0.0,0.0
2520,88.0,0.0,240.0,0.0,0.0
2521,54.0,120.0,120.0,0.0,0.0
2522,61.0,0.0,120.0,0.0,0.0
2523,74.0,0.0,360.0,0.0,0.0
2524,86.0,120.0,360.0,0.0,0.0
2525,78.0,120.0,480.0,0.0,0.0
2526,58.0,120.0,120.0,0.0,0.0
2527,65.0,120.0,120.0,0.0,0.0
2528,66.0,0.0,120.0,0.0,0.0
2529,85.0,0.0,120.0,0.0,0.0
2530,73.0,0.0,120.0,0.0,0.0
2531,78.0,0.0,480.0,0.0,0.0
2532,76.0,0.0,240.0,0.0,0.0
2533,35.0,120.0,120.0,0.0,0.0
2534,88.0,0.0,240.0,0.0,0.0
2535,42.0,120.0,120.0,0.0,0.0
2536,86.0,120.0,240.0,0.0,0.0
2537,47.0,120.0,120.0,0.0,0.0
2538,74.0,0.0,240.0,0.0,0.0
2539,54.0,0.0,120.0,0.0,0.0
2540,37.0,120.0,120.0,0.0,0.0
2541,85.0,0.0,240.0,0.0,0.0
2542,73.0,120.0,240.0,0.0,0.0
2543,42.0,0.0,120.0,0.0,0.0
2544,70.0,0.0,240.0,0.0,0.0
2545,82.0,120.0,240.0,0.0,0.0
2546,46.0,120.0,120.0,0.0,0.0
2547,52.0,0.0,120.0,0.0,0.0
2548,85.0,0.0,240.0,0.0,0.0
2549,78.0,0.0,15.0,0.0,0.0
2550,38.0,120.0,120.0,0.0,0.0
2551,73.0,0.0,240.0,0.0,0.0
2552,42.0,120.0,120.0,0.0,0.0
2553,83.0,0.0,240.0,0.0,0.0
2554,71.0,120.0,240.0,0.0,0.0
2555,47.0,120.0,120.0,0.0,0.0
2556,54.0,0.0,120.0,0.0,0.0
2557,66.0,0.0,240.0,0.0,0.0
2558,78.0,0.0,15.0,0.0,0.0
2559,39.0,120.0,120.0,0.0,0.0
2560,72.0,0.0,480.0,0.0,0.0
2561,45.0,120.0,120.0,0.0,0.0
2562,81.0,0.0,240.0,0.0,0.0
2563,48.0,120.0,120.0,0.0,0.0
2564,69.0,0.0,240.0,0.0,0.0
2565,54.0,120.0,120.0,0.0,0.0
2566,73.0,0.0,480.0,0.0,0.0
2567,66.0,120.0,240.0,0.0,0.0
2568,78.0,0.0,240.0,0.0,0.0
2569,40.0,120.0,120.0,0.0,0.0
2570,45.0,0.0,120.0,0.0,0.0
2571,64.0,120.0,240.0,0.0,0.0
2572,76.0,0.0,240.0,0.0,0.0
2573,49.0,120.0,120.0,0.0,0.0
2574,57.0,0.0,120.0,0.0,0.0
2575,42.0,120.0,120.0,0.0,0.0
2576,57.0,0.0,240.0,0.0,0.0
2577,45.0,120.0,120.0,0.0,0.0
2578,62.0,0.0,15.0,0.0,0.0
2579,74.0,0.0,240.0,0.0,0.0
2580,50.0,120.0,120.0,0.0,0.0
2581,71.0,120.0,480.0,0.0,0.0
2582,69.0,0.0,15.0,0.0,0.0
2583,62.0,0.0,15.0,0.0,0.0
2584,57.0,120.0,15.0,0.0,0.0
2585,40.0,120.0,120.0,0.0,0.0
2586,47.0,120.0,120.0,0.0,0.0
2587,52.0,120.0,120.0,0.0,0.0
2588,57.0,0.0,120.0,0.0,0.0
2589,38.0,120.0,120.0,0.0,0.0
2590,61.0,0.0,240.0,0.0,0.0
2591,68.0,0.0,480.0,0.0,0.0
2592,73.0,0.0,240.0,0.0,0.0
2593,44.0,120.0,120.0,0.0,0.0
2594,47.0,120.0,120.0,0.0,0.0
2595,74.0,0.0,240.0,0.0,0.0
2596,62.0,120.0,240.0,0.0,0.0
2597,52.0,0.0,120.0,0.0,0.0
2598,37.0,120.0,120.0,0.0,0.0
2599,66.0,120.0,240.0,0.0,0.0
2600,78.0,0.0,240.0,0.0,0.0
2601,40.0,0.0,120.0,0.0,0.0
2602,77.0,0.0,240.0,0.0,0.0
2603,45.0,120.0,120.0,0.0,0.0
2604,65.0,0.0,240.0,0.0,0.0
2605,52.0,0.0,120.0,0.0,0.0
2606,42.0,40.0,120.0,0.0,0.0
2607,64.0,80.0,150.0,0.0,0.0
2608,76.0,0.0,150.0,0.0,0.0
2609,69.0,120.0,15.0,0.0,0.0
2610,45.0,80.0,120.0,0.0,0.0
2611,57.0,40.0,150.0,0.0,0.0
2612,69.0,0.0,330.0,0.0,0.0
2613,50.0,120.0,120.0,0.0,0.0
2614,74.0,0.0,150.0,0.0,0.0
2615,62.0,120.0,150.0,0.0,0.0
2616,57.0,0.0,120.0,0.0,0.0
2617,41.0,120.0,120.0,0.0,0.0
2618,59.0,120.0,240.0,0.0,0.0
2619,71.0,0.0,240.0,0.0,0.0
2620,62.0,0.0,480.0,0.0,0.0
2621,69.0,0.0,480.0,0.0,0.0
2622,45.0,0.0,120.0,0.0,0.0
2623,50.0,0.0,120.0,0.0,0.0
2624,61.0,0.0,120.0,0.0,0.0
2625,73.0,120.0,120.0,0.0,0.0
2626,71.0,0.0,120.0,0.0,0.0
2627,59.0,120.0,120.0,0.0,0.0
2628,57.0,0.0,120.0,0.0,0.0
2629,40.0,120.0,120.0,0.0,0.0
2630,68.0,0.0,480.0,0.0,0.0
2631,58.0,0.0,120.0,0.0,0.0
2632,70.0,0.0,120.0,0.0,0.0
2633,47.0,0.0,120.0,0.0,0.0
2634,71.0,0.0,120.0,0.0,0.0
2635,59.0,120.0,120.0,0.0,0.0
2636,56.0,0.0,120.0,0.0,0.0
2637,61.0,120.0,120.0,0.0,0.0
2638,73.0,0.0,120.0,0.0,0.0
2639,38.0,120.0,120.0,0.0,0.0
2640,62.0,0.0,120.0,0.0,0.0
2641,74.0,0.0,120.0,0.0,0.0
2642,75.0,0.0,150.0,0.0,0.0
2643,37.0,40.0,120.0,0.0,0.0
2644,63.0,80.0,150.0,0.0,0.0
2645,69.0,40.0,330.0,0.0,0.0
2646,40.0,80.0,120.0,0.0,0.0
2647,64.0,0.0,150.0,0.0,0.0
2648,76.0,0.0,150.0,0.0,0.0
2649,44.0,120.0,120.0,0.0,0.0
2650,85.0,0.0,150.0,0.0,0.0
2651,73.0,0.0,150.0,0.0,0.0
2652,52.0,120.0,120.0,0.0,0.0
2653,83.0,0.0,150.0,0.0,0.0
2654,71.0,80.0,150.0,0.0,0.0
2655,74.0,40.0,330.0,0.0,0.0
2656,42.0,40.0,120.0,0.0,0.0
2657,45.0,80.0,120.0,0.0,0.0
2658,69.0,0.0,150.0,0.0,0.0
2659,81.0,0.0,150.0,0.0,0.0
2660,50.0,120.0,120.0,0.0,0.0
2661,69.0,0.0,150.0,0.0,0.0
2662,74.0,0.0,150.0,0.0,0.0
2663,62.0,0.0,150.0,0.0,0.0
2664,57.0,120.0,120.0,0.0,0.0
2665,64.0,0.0,720.0,0.0,0.0
2666,59.0,0.0,480.0,0.0,0.0
2667,71.0,60.0,900.0,0.0,0.0
2668,40.0,120.0,120.0,0.0,0.0
2669,69.0,0.0,480.0,0.0,0.0
2670,47.0,120.0,120.0,0.0,0.0
2671,52.0,120.0,120.0,0.0,0.0
2672,57.0,120.0,120.0,0.0,0.0
2673,62.0,0.0,240.0,0.0,0.0
2674,68.0,0.0,240.0,0.0,0.0
2675,40.0,120.0,120.0,0.0,0.0
2676,47.0,120.0,120.0,0.0,0.0
2677,52.0,60.0,120.0,0.0,0.0
2678,56.0,160.0,120.0,0.0,0.0
2679,69.0,0.0,60.0,0.0,0.0
2680,61.0,0.0,150.0,0.0,0.0
2681,69.0,0.0,150.0,0.0,0.0
2682,45.0,0.0,150.0,0.0,0.0
2683,52.0,0.0,150.0,0.0,0.0
2684,47.0,0.0,90.0,0.0,0.0
2685,51.0,0.0,90.0,0.0,0.0
2686,57.0,80.0,15.0,0.0,0.0
2687,59.0,160.0,90.0,0.0,0.0
2688,66.0,0.0,90.0,0.0,0.0
2689,47.0,0.0,90.0,0.0,0.0
2690,51.0,0.0,90.0,0.0,0.0
2691,66.0,0.0,90.0,0.0,0.0
2692,57.0,0.0,90.0,0.0,0.0
2693,59.0,240.0,90.0,0.0,0.0
2694,59.0,80.0,150.0,0.0,0.0
2695,66.0,0.0,150.0,0.0,0.0
2696,57.0,0.0,150.0,0.0,0.0
2697,51.0,0.0,150.0,0.0,0.0
2698,47.0,0.0,150.0,0.0,0.0
2699,64.0,0.0,90.0,0.0,0.0
2700,56.0,160.0,90.0,0.0,0.0
2701,52.0,0.0,90.0,0.0,0.0
2702,64.0,240.0,90.0,0.0,0.0
2703,52.0,0.0,90.0,0.0,0.0
2704,68.0,0.0,90.0,0.0,0.0
2705,74.0,0.0,90.0,0.0,0.0
2706,59.0,0.0,90.0,0.0,0.0
2707,68.0,80.0,150.0,0.0,0.0
2708,74.0,0.0,150.0,0.0,0.0
2709,52.0,0.0,150.0,0.0,0.0
2710,59.0,0.0,150.0,0.0,0.0
2711,73.0,0.0,90.0,0.0,0.0
2712,64.0,0.0,15.0,0.0,0.0
2713,57.0,160.0,90.0,0.0,0.0
2714,69.0,0.0,90.0,0.0,0.0
2715,69.0,0.0,90.0,0.0,0.0
2716,71.0,0.0,90.0,0.0,0.0
2717,78.0,0.0,90.0,0.0,0.0
2718,63.0,240.0,90.0,0.0,0.0
2719,59.0,0.0,90.0,0.0,0.0
2720,71.0,0.0,150.0,0.0,0.0
2721,69.0,80.0,150.0,0.0,0.0
2722,59.0,0.0,150.0,0.0,0.0
2723,78.0,0.0,150.0,0.0,0.0
2724,63.0,0.0,150.0,0.0,0.0
2725,76.0,0.0,90.0,0.0,0.0
2726,64.0,0.0,90.0,0.0,0.0
2727,68.0,160.0,90.0,0.0,0.0
2728,76.0,0.0,90.0,0.0,0.0
2729,71.0,0.0,90.0,0.0,0.0
2730,64.0,0.0,90.0,0.0,0.0
2731,86.0,240.0,90.0,0.0,0.0
2732,80.0,0.0,90.0,0.0,0.0
2733,80.0,0.0,150.0,0.0,0.0
2734,86.0,0.0,150.0,0.0,0.0
2735,71.0,0.0,150.0,0.0,0.0
2736,64.0,0.0,150.0,0.0,0.0
2737,85.0,0.0,90.0,0.0,0.0
2738,81.0,160.0,90.0,0.0,0.0
2739,69.0,0.0,90.0,0.0,0.0
2740,76.0,80.0,15.0,0.0,0.0
2741,69.0,0.0,90.0,0.0,0.0
2742,71.0,0.0,90.0,0.0,0.0
2743,78.0,0.0,90.0,0.0,0.0
2744,59.0,0.0,90.0,0.0,0.0
2745,63.0,240.0,90.0,0.0,0.0
2746,71.0,80.0,150.0,0.0,0.0
2747,78.0,0.0,150.0,0.0,0.0
2748,59.0,0.0,150.0,0.0,0.0
2749,69.0,0.0,150.0,0.0,0.0
2750,63.0,0.0,150.0,0.0,0.0
2751,76.0,0.0,90.0,0.0,0.0
2752,64.0,160.0,90.0,0.0,0.0
2753,68.0,0.0,90.0,0.0,0.0
2754,68.0,240.0,90.0,0.0,0.0
2755,74.0,0.0,90.0,0.0,0.0
2756,52.0,0.0,90.0,0.0,0.0
2757,59.0,0.0,90.0,0.0,0.0
2758,64.0,0.0,90.0,0.0,0.0
2759,59.0,0.0,150.0,0.0,0.0
2760,52.0,0.0,150.0,0.0,0.0
2761,68.0,80.0,150.0,0.0,0.0
2762,74.0,0.0,150.0,0.0,0.0
2763,57.0,0.0,90.0,0.0,0.0
2764,64.0,0.0,15.0,0.0,0.0
2765,73.0,0.0,90.0,0.0,0.0
2766,69.0,0.0,90.0,0.0,0.0
2767,59.0,0.0,90.0,0.0,0.0
2768,57.0,0.0,90.0,0.0,0.0
2769,47.0,0.0,90.0,0.0,0.0
2770,51.0,240.0,90.0,0.0,0.0
2771,66.0,0.0,90.0,0.0,0.0
2772,57.0,0.0,150.0,0.0,0.0
2773,47.0,0.0,150.0,0.0,0.0
2774,51.0,0.0,150.0,0.0,0.0
2775,59.0,80.0,150.0,0.0,0.0
2776,66.0,0.0,150.0,0.0,0.0
2777,56.0,160.0,90.0,0.0,0.0
2778,52.0,0.0,90.0,0.0,0.0
2779,64.0,0.0,90.0,0.0,0.0
2780,56.0,0.0,90.0,0.0,0.0
2781,62.0,240.0,90.0,0.0,0.0
2782,40.0,0.0,90.0,0.0,0.0
2783,52.0,0.0,90.0,0.0,0.0
2784,47.0,0.0,90.0,0.0,0.0
2785,40.0,0.0,150.0,0.0,0.0
2786,47.0,0.0,150.0,0.0,0.0
2787,52.0,80.0,150.0,0.0,0.0
2788,56.0,0.0,150.0,0.0,0.0
2789,62.0,0.0,150.0,0.0,0.0
2790,61.0,160.0,90.0,0.0,0.0
2791,45.0,0.0,90.0,0.0,0.0
2792,52.0,0.0,90.0,0.0,0.0
2793,57.0,0.0,90.0,0.0,0.0
2794,57.0,0.0,90.0,0.0,0.0
2795,65.0,0.0,90.0,0.0,0.0
2796,60.0,0.0,90.0,0.0,0.0
2797,51.0,240.0,90.0,0.0,0.0
2798,51.0,0.0,150.0,0.0,0.0
2799,57.0,0.0,150.0,0.0,0.0
2800,60.0,80.0,150.0,0.0,0.0
2801,65.0,0.0,150.0,0.0,0.0
2802,56.0,160.0,90.0,0.0,0.0
2803,52.0,0.0,90.0,0.0,0.0
2804,59.0,0.0,90.0,0.0,0.0
2805,64.0,0.0,90.0,0.0,0.0
2806,74.0,0.0,90.0,0.0,0.0
2807,68.0,0.0,90.0,0.0,0.0
2808,52.0,240.0,90.0,0.0,0.0
2809,64.0,0.0,90.0,0.0,0.0
2810,59.0,0.0,90.0,0.0,0.0
2811,74.0,0.0,150.0,0.0,0.0
2812,52.0,0.0,150.0,0.0,0.0
2813,59.0,0.0,150.0,0.0,0.0
2814,68.0,0.0,150.0,0.0,0.0
2815,64.0,80.0,15.0,0.0,0.0
2816,73.0,0.0,90.0,0.0,0.0
2817,69.0,0.0,90.0,0.0,0.0
2818,57.0,160.0,90.0,0.0,0.0
2819,63.0,0.0,90.0,0.0,0.0
2820,69.0,0.0,90.0,0.0,0.0
2821,72.0,0.0,90.0,0.0,0.0
2822,77.0,240.0,90.0,0.0,0.0
2823,63.0,80.0,150.0,0.0,0.0
2824,69.0,0.0,150.0,0.0,0.0
2825,77.0,0.0,150.0,0.0,0.0
2826,72.0,0.0,150.0,0.0,0.0
2827,76.0,0.0,90.0,0.0,0.0
2828,71.0,160.0,90.0,0.0,0.0
2829,68.0,0.0,90.0,0.0,0.0
2830,64.0,0.0,90.0,0.0,0.0
2831,71.0,0.0,90.0,0.0,0.0
2832,76.0,0.0,90.0,0.0,0.0
2833,80.0,240.0,90.0,0.0,0.0
2834,86.0,0.0,90.0,0.0,0.0
2835,64.0,0.0,90.0,0.0,0.0
2836,71.0,0.0,150.0,0.0,0.0
2837,86.0,80.0,150.0,0.0,0.0
2838,64.0,0.0,150.0,0.0,0.0
2839,80.0,0.0,150.0,0.0,0.0
2840,81.0,160.0,90.0,0.0,0.0
2841,76.0,0.0,15.0,0.0,0.0
2842,69.0,0.0,90.0,0.0,0.0
2843,85.0,0.0,90.0,0.0,0.0
2844,77.0,0.0,90.0,0.0,0.0
2845,69.0,240.0,90.0,0.0,0.0
2846,63.0,0.0,90.0,0.0,0.0
2847,72.0,0.0,90.0,0.0,0.0
2848,69.0,80.0,150.0,0.0,0.0
2849,63.0,0.0,150.0,0.0,0.0
2850,77.0,0.0,150.0,0.0,0.0
2851,72.0,0.0,150.0,0.0,0.0
2852,64.0,0.0,90.0,0.0,0.0
2853,71.0,0.0,90.0,0.0,0.0
2854,76.0,0.0,90.0,0.0,0.0
2855,68.0,160.0,90.0,0.0,0.0
2856,52.0,0.0,90.0,0.0,0.0
2857,68.0,0.0,90.0,0.0,0.0
2858,64.0,0.0,90.0,0.0,0.0
2859,74.0,240.0,90.0,0.0,0.0
2860,59.0,0.0,90.0,0.0,0.0
2861,52.0,0.0,150.0,0.0,0.0
2862,59.0,0.0,150.0,0.0,0.0
2863,68.0,0.0,150.0,0.0,0.0
2864,74.0,0.0,150.0,0.0,0.0
2865,69.0,0.0,90.0,0.0,0.0
2866,73.0,0.0,90.0,0.0,0.0
2867,57.0,160.0,90.0,0.0,0.0
2868,64.0,80.0,15.0,0.0,0.0
2869,65.0,0.0,90.0,0.0,0.0
2870,60.0,0.0,90.0,0.0,0.0
2871,57.0,240.0,90.0,0.0,0.0
2872,51.0,0.0,90.0,0.0,0.0
2873,51.0,0.0,150.0,0.0,0.0
2874,60.0,0.0,150.0,0.0,0.0
2875,65.0,0.0,150.0,0.0,0.0
2876,57.0,80.0,150.0,0.0,0.0
2877,64.0,0.0,90.0,0.0,0.0
2878,59.0,0.0,90.0,0.0,0.0
2879,52.0,0.0,90.0,0.0,0.0
2880,56.0,160.0,90.0,0.0,0.0
2881,40.0,0.0,90.0,0.0,0.0
2882,52.0,240.0,90.0,0.0,0.0
2883,59.0,0.0,90.0,0.0,0.0
2884,56.0,0.0,90.0,0.0,0.0
2885,62.0,0.0,90.0,0.0,0.0
2886,62.0,0.0,150.0,0.0,0.0
2887,40.0,0.0,150.0,0.0,0.0
2888,59.0,80.0,150.0,0.0,0.0
2889,52.0,0.0,150.0,0.0,0.0
2890,56.0,0.0,150.0,0.0,0.0
2891,51.0,0.0,90.0,0.0,0.0
2892,39.0,0.0,90.0,0.0,0.0
2893,60.0,0.0,90.0,0.0,0.0
2894,56.0,0.0,90.0,0.0,0.0
2895,63.0,160.0,90.0,0.0,0.0
2896,53.0,0.0,90.0,0.0,0.0
2897,58.0,0.0,90.0,0.0,0.0
2898,51.0,240.0,90.0,0.0,0.0
2899,62.0,0.0,90.0,0.0,0.0
2900,68.0,0.0,90.0,0.0,0.0
2901,68.0,0.0,150.0,0.0,0.0
2902,62.0,0.0,150.0,0.0,0.0
2903,58.0,0.0,150.0,0.0,0.0
2904,53.0,0.0,150.0,0.0,0.0
2905,55.0,0.0,90.0,0.0,0.0
2906,58.0,0.0,90.0,0.0,0.0
2907,51.0,80.0,15.0,0.0,0.0
2908,63.0,0.0,90.0,0.0,0.0
2909,67.0,0.0,90.0,0.0,0.0
2910,58.0,0.0,90.0,0.0,0.0
2911,51.0,0.0,90.0,0.0,0.0
2912,61.0,0.0,90.0,0.0,0.0
2913,67.0,0.0,90.0,0.0,0.0
2914,63.0,240.0,90.0,0.0,0.0
2915,73.0,0.0,90.0,0.0,0.0
2916,61.0,80.0,150.0,0.0,0.0
2917,58.0,0.0,150.0,0.0,0.0
2918,73.0,0.0,150.0,0.0,0.0
2919,67.0,0.0,150.0,0.0,0.0
2920,51.0,0.0,150.0,0.0,0.0
2921,51.0,0.0,90.0,0.0,0.0
2922,68.0,0.0,90.0,0.0,0.0
2923,63.0,0.0,15.0,0.0,0.0
2924,72.0,0.0,90.0,0.0,0.0
2925,60.0,0.0,90.0,0.0,0.0
2926,56.0,0.0,90.0,0.0,0.0
2927,68.0,0.0,90.0,0.0,0.0
2928,58.0,240.0,90.0,0.0,0.0
2929,74.0,0.0,90.0,0.0,0.0
2930,65.0,0.0,90.0,0.0,0.0
2931,70.0,0.0,90.0,0.0,0.0
2932,80.0,0.0,90.0,0.0,0.0
2933,51.0,0.0,90.0,0.0,0.0
2934,65.0,0.0,150.0,0.0,0.0
2935,80.0,0.0,150.0,0.0,0.0
2936,74.0,0.0,150.0,0.0,0.0
2937,70.0,0.0,150.0,0.0,0.0
2938,68.0,0.0,150.0,0.0,0.0
2939,58.0,0.0,15.0,0.0,0.0
2940,63.0,0.0,90.0,0.0,0.0
2941,51.0,80.0,15.0,0.0,0.0
2942,79.0,0.0,90.0,0.0,0.0
2943,75.0,0.0,90.0,0.0,0.0
2944,67.0,160.0,90.0,0.0,0.0
2945,75.0,240.0,90.0,0.0,0.0
2946,58.0,0.0,90.0,0.0,0.0
2947,73.0,0.0,90.0,0.0,0.0
2948,51.0,0.0,90.0,0.0,0.0
2949,63.0,0.0,90.0,0.0,0.0
2950,85.0,0.0,90.0,0.0,0.0
2951,79.0,0.0,90.0,0.0,0.0
2952,79.0,0.0,150.0,0.0,0.0
2953,75.0,0.0,150.0,0.0,0.0
2954,73.0,160.0,150.0,0.0,0.0
2955,63.0,0.0,150.0,0.0,0.0
2956,51.0,0.0,150.0,0.0,0.0
2957,85.0,0.0,150.0,0.0,0.0
2958,58.0,0.0,15.0,0.0,0.0
2959,64.0,0.0,150.0,0.0,0.0
2960,66.0,0.0,150.0,0.0,0.0
2961,70.0,160.0,150.0,0.0,0.0
2962,49.0,0.0,150.0,0.0,0.0
2963,67.0,160.0,150.0,0.0,0.0
2964,76.0,0.0,150.0,0.0,0.0
2965,61.0,0.0,150.0,0.0,0.0
2966,69.0,160.0,150.0,0.0,0.0
2967,73.0,0.0,150.0,0.0,0.0
2968,52.0,0.0,150.0,0.0,0.0
2969,46.0,160.0,150.0,0.0,0.0
2970,79.0,0.0,150.0,0.0,0.0
2971,70.0,0.0,150.0,0.0,0.0
2972,76.0,160.0,150.0,0.0,0.0
2973,72.0,0.0,150.0,0.0,0.0
2974,58.0,0.0,150.0,0.0,0.0
2975,52.0,0.0,150.0,0.0,0.0
2976,43.0,160.0,150.0,0.0,0.0
2977,82.0,0.0,150.0,0.0,0.0
2978,73.0,0.0,150.0,0.0,0.0
2979,79.0,0.0,150.0,0.0,0.0
2980,75.0,0.0,150.0,0.0,0.0
2981,49.0,0.0,150.0,0.0,0.0
2982,55.0,160.0,150.0,0.0,0.0
2983,40.0,160.0,150.0,0.0,0.0
2984,85.0,0.0,150.0,0.0,0.0
2985,76.0,0.0,150.0,0.0,0.0
2986,78.0,160.0,150.0,0.0,0.0
2987,82.0,0.0,150.0,0.0,0.0
2988,46.0,0.0,150.0,0.0,0.0
2989,52.0,0.0,150.0,0.0,0.0
2990,88.0,160.0,150.0,0.0,0.0
2991,37.0,0.0,15.0,0.0,0.0
2992,25.0,0.0,150.0,0.0,0.0
2993,79.0,0.0,15.0,0.0,0.0
2994,91.0,0.0,150.0,0.0,0.0
2995,24.0,0.0,150.0,0.0,0.0
2996,92.0,0.0,150.0,0.0,0.0
2997,80.0,160.0,150.0,0.0,0.0
2998,48.0,0.0,15.0,0.0,0.0
2999,36.0,0.0,15.0,0.0,0.0
3000,56.0,0.0,150.0,0.0,0.0
3001,63.0,0.0,15.0,0.0,0.0
3002,68.0,0.0,15.0,0.0,0.0
3003,48.0,0.0,15.0,0.0,0.0
3004,68.0,0.0,15.0,0.0,0.0
3005,64.0,0.0,150.0,0.0,0.0
3006,56.0,0.0,15.0,0.0,0.0
3007,36.0,0.0,15.0,0.0,0.0
3008,56.0,0.0,150.0,0.0,0.0
3009,64.0,0.0,150.0,0.0,0.0
3010,68.0,0.0,15.0,0.0,0.0
3011,56.0,160.0,150.0,0.0,0.0
3012,68.0,0.0,15.0,0.0,0.0
3013,36.0,0.0,15.0,0.0,0.0
3014,48.0,160.0,15.0,0.0,0.0
3015,36.0,160.0,150.0,0.0,0.0
3016,48.0,0.0,150.0,0.0,0.0
3017,64.0,0.0,15.0,0.0,0.0
3018,68.0,0.0,150.0,0.0,0.0
3019,56.0,0.0,15.0,0.0,0.0
3020,56.0,0.0,15.0,0.0,0.0
3021,64.0,160.0,15.0,0.0,0.0
3022,68.0,0.0,15.0,0.0,0.0
3023,35.0,0.0,15.0,0.0,0.0
3024,47.0,0.0,15.0,0.0,0.0
3025,56.0,0.0,150.0,0.0,0.0
3026,64.0,160.0,15.0,0.0,0.0
3027,35.0,0.0,150.0,0.0,0.0
3028,47.0,160.0,150.0,0.0,0.0
3029,68.0,0.0,15.0,0.0,0.0
3030,64.0,0.0,150.0,0.0,0.0
3031,48.0,0.0,150.0,0.0,0.0
3032,56.0,0.0,15.0,0.0,0.0
3033,68.0,0.0,15.0,0.0,0.0
3034,48.0,0.0,150.0,0.0,0.0
3035,36.0,160.0,15.0,0.0,0.0
3036,48.0,0.0,90.0,0.0,0.0
3037,64.0,80.0,15.0,0.0,0.0
3038,68.0,0.0,90.0,0.0,0.0
3039,56.0,0.0,15.0,0.0,0.0
3040,36.0,0.0,90.0,0.0,0.0
3041,56.0,0.0,90.0,0.0,0.0
3042,65.0,160.0,90.0,0.0,0.0
3043,68.0,0.0,90.0,0.0,0.0
3044,48.0,0.0,90.0,0.0,0.0
3045,36.0,0.0,90.0,0.0,0.0
3046,65.0,0.0,90.0,0.0,0.0
3047,68.0,0.0,90.0,0.0,0.0
3048,36.0,0.0,90.0,0.0,0.0
3049,48.0,0.0,90.0,0.0,0.0
3050,56.0,160.0,90.0,0.0,0.0
3051,56.0,0.0,90.0,0.0,0.0
3052,65.0,0.0,90.0,0.0,0.0
3053,48.0,160.0,90.0,0.0,0.0
3054,36.0,0.0,90.0,0.0,0.0
3055,68.0,0.0,90.0,0.0,0.0
3056,57.0,0.0,90.0,0.0,0.0
3057,65.0,160.0,90.0,0.0,0.0
3058,69.0,0.0,90.0,0.0,0.0
3059,48.0,0.0,90.0,0.0,0.0
3060,36.0,0.0,90.0,0.0,0.0
3061,69.0,0.0,90.0,0.0,0.0
3062,36.0,0.0,90.0,0.0,0.0
3063,48.0,160.0,90.0,0.0,0.0
3064,65.0,0.0,90.0,0.0,0.0
3065,57.0,0.0,90.0,0.0,0.0
3066,36.0,0.0,90.0,0.0,0.0
3067,48.0,0.0,90.0,0.0,0.0
3068,57.0,0.0,90.0,0.0,0.0
3069,65.0,160.0,90.0,0.0,0.0
3070,69.0,0.0,90.0,0.0,0.0
3071,47.0,0.0,90.0,0.0,0.0
3072,65.0,160.0,90.0,0.0,0.0
3073,57.0,0.0,90.0,0.0,0.0
3074,69.0,0.0,90.0,0.0,0.0
3075,35.0,0.0,90.0,0.0,0.0
3076,57.0,0.0,90.0,0.0,0.0
3077,69.0,0.0,90.0,0.0,0.0
3078,65.0,160.0,90.0,0.0,0.0
3079,35.0,0.0,90.0,0.0,0.0
3080,47.0,0.0,90.0,0.0,0.0
3081,47.0,0.0,90.0,0.0,0.0
3082,35.0,0.0,90.0,0.0,0.0
3083,57.0,0.0,90.0,0.0,0.0
3084,69.0,0.0,90.0,0.0,0.0
3085,65.0,160.0,90.0,0.0,0.0
3086,36.0,0.0,90.0,0.0,0.0
3087,57.0,0.0,90.0,0.0,0.0
3088,64.0,0.0,90.0,0.0,0.0
3089,69.0,0.0,90.0,0.0,0.0
3090,48.0,160.0,90.0,0.0,0.0
3091,57.0,0.0,90.0,0.0,0.0
3092,63.0,0.0,90.0,0.0,0.0
3093,48.0,0.0,90.0,0.0,0.0
3094,36.0,160.0,90.0,0.0,0.0
3095,69.0,0.0,90.0,0.0,0.0
3096,37.0,0.0,90.0,0.0,0.0
3097,64.0,0.0,90.0,0.0,0.0
3098,49.0,240.0,90.0,0.0,0.0
3099,57.0,0.0,90.0,0.0,0.0
3100,69.0,0.0,90.0,0.0,0.0
3101,61.0,0.0,150.0,0.0,0.0
3102,64.0,0.0,150.0,0.0,0.0
3103,73.0,0.0,150.0,0.0,0.0
3104,57.0,160.0,15.0,0.0,0.0
3105,52.0,0.0,15.0,0.0,0.0
3106,45.0,0.0,15.0,0.0,0.0
3107,64.0,0.0,15.0,0.0,0.0
3108,45.0,160.0,15.0,0.0,0.0
3109,52.0,0.0,150.0,0.0,0.0
3110,57.0,0.0,150.0,0.0,0.0
3111,73.0,0.0,15.0,0.0,0.0
3112,61.0,0.0,15.0,0.0,0.0
3113,71.0,0.0,150.0,0.0,0.0
3114,59.0,160.0,150.0,0.0,0.0
3115,57.0,160.0,150.0,0.0,0.0
3116,69.0,0.0,150.0,0.0,0.0
3117,26.0,0.0,150.0,0.0,0.0
3118,38.0,160.0,150.0,0.0,0.0
3119,66.0,0.0,150.0,0.0,0.0
3120,50.0,0.0,150.0,0.0,0.0
3121,45.0,160.0,150.0,0.0,0.0
3122,57.0,0.0,150.0,0.0,0.0
3123,61.0,0.0,150.0,0.0,0.0
3124,61.0,0.0,150.0,0.0,0.0
3125,73.0,0.0,15.0,0.0,0.0
3126,50.0,0.0,150.0,0.0,0.0
3127,45.0,0.0,150.0,0.0,0.0
3128,66.0,0.0,15.0,0.0,0.0
3129,45.0,0.0,150.0,0.0,0.0
3130,50.0,0.0,150.0,0.0,0.0
3131,57.0,0.0,15.0,0.0,0.0
3132,61.0,0.0,150.0,0.0,0.0
3133,73.0,160.0,15.0,0.0,0.0
3134,59.0,0.0,150.0,0.0,0.0
3135,71.0,160.0,150.0,0.0,0.0
3136,69.0,160.0,150.0,0.0,0.0
3137,57.0,0.0,150.0,0.0,0.0
3138,40.0,0.0,150.0,0.0,0.0
3139,28.0,160.0,150.0,0.0,0.0
3140,52.0,0.0,150.0,0.0,0.0
3141,45.0,0.0,15.0,0.0,0.0
3142,73.0,0.0,15.0,0.0,0.0
3143,61.0,0.0,15.0,0.0,0.0
3144,64.0,0.0,15.0,0.0,0.0
3145,57.0,160.0,15.0,0.0,0.0
3146,61.0,0.0,150.0,0.0,0.0
3147,64.0,0.0,150.0,0.0,0.0
3148,73.0,160.0,15.0,0.0,0.0
3149,57.0,0.0,15.0,0.0,0.0
3150,52.0,0.0,15.0,0.0,0.0
3151,45.0,0.0,150.0,0.0,0.0
3152,59.0,160.0,150.0,0.0,0.0
3153,71.0,0.0,150.0,0.0,0.0
3154,69.0,0.0,150.0,0.0,0.0
3155,57.0,160.0,150.0,0.0,0.0
3156,42.0,160.0,150.0,0.0,0.0
3157,30.0,0.0,150.0,0.0,0.0
3158,61.0,0.0,150.0,0.0,0.0
3159,63.0,0.0,150.0,0.0,0.0
3160,73.0,0.0,150.0,0.0,0.0
3161,54.0,0.0,15.0,0.0,0.0
3162,47.0,160.0,15.0,0.0,0.0
3163,57.0,0.0,15.0,0.0,0.0
3164,73.0,0.0,15.0,0.0,0.0
3165,63.0,0.0,15.0,0.0,0.0
3166,57.0,0.0,15.0,0.0,0.0
3167,61.0,160.0,15.0,0.0,0.0
3168,54.0,0.0,15.0,0.0,0.0
3169,47.0,0.0,150.0,0.0,0.0
3170,59.0,160.0,150.0,0.0,0.0
3171,71.0,0.0,150.0,0.0,0.0
3172,57.0,0.0,150.0,0.0,0.0
3173,69.0,1920.0,150.0,0.0,0.0
3174,47.0,0.0,1920.0,0.0,0.0
3175,51.0,1860.0,1920.0,0.0,0.0
3176,59.0,0.0,1920.0,0.0,0.0
3177,57.0,0.0,1920.0,0.0,0.0
3178,35.0,0.0,1920.0,0.0,0.0
3179,23.0,0.0,1920.0,0.0,0.0
3180,56.0,120.0,1920.0,0.0,0.0
3181,61.0,60.0,1860.0,0.0,0.0
3182,50.0,0.0,1920.0,0.0,0.0
3183,28.0,0.0,1920.0,0.0,0.0
3184,40.0,0.0,1920.0,0.0,0.0
3185,62.0,0.0,60.0,0.0,0.0
3186,29.0,120.0,120.0,0.0,0.0
3187,41.0,0.0,120.0,0.0,0.0
3188,50.0,120.0,960.0,0.0,0.0
3189,57.0,0.0,960.0,0.0,0.0
3190,62.0,0.0,960.0,0.0,0.0
3191,26.0,0.0,120.0,0.0,0.0
3192,38.0,240.0,120.0,0.0,0.0
3193,28.0,120.0,120.0,0.0,0.0
3194,40.0,0.0,120.0,0.0,0.0
3195,29.0,120.0,120.0,0.0,0.0
3196,41.0,0.0,120.0,0.0,0.0
3197,26.0,240.0,120.0,0.0,0.0
3198,38.0,0.0,120.0,0.0,0.0
3199,29.0,120.0,120.0,0.0,0.0
3200,41.0,0.0,120.0,0.0,0.0
3201,38.0,0.0,120.0,0.0,0.0
3202,26.0,240.0,120.0,0.0,0.0
3203,28.0,0.0,120.0,0.0,0.0
3204,40.0,120.0,120.0,0.0,0.0
3205,41.0,0.0,120.0,0.0,0.0
3206,29.0,120.0,120.0,0.0,0.0
3207,38.0,0.0,120.0,0.0,0.0
3208,26.0,360.0,120.0,0.0,0.0
3209,41.0,120.0,120.0,0.0,0.0
3210,29.0,0.0,120.0,0.0,0.0
3211,38.0,0.0,120.0,0.0,0.0
3212,26.0,240.0,120.0,0.0,0.0
3213,28.0,0.0,120.0,0.0,0.0
3214,40.0,120.0,120.0,0.0,0.0
3215,29.0,120.0,120.0,0.0,0.0
3216,41.0,0.0,120.0,0.0,0.0
3217,38.0,720.0,120.0,0.0,0.0
3218,50.0,0.0,120.0,0.0,0.0
3219,50.0,480.0,480.0,0.0,0.0
3220,65.0,0.0,480.0,0.0,0.0
3221,56.0,360.0,960.0,0.0,0.0
3222,66.0,0.0,480.0,0.0,0.0
3223,34.0,0.0,480.0,0.0,0.0
3224,51.0,0.0,960.0,0.0,0.0
3225,46.0,0.0,960.0,0.0,0.0
3226,39.0,360.0,960.0,0.0,0.0
3227,55.0,0.0,960.0,0.0,0.0
3228,67.0,0.0,360.0,0.0,0.0
3229,58.0,120.0,15.0,0.0,0.0
3230,58.0,480.0,15.0,0.0,0.0
3231,34.0,120.0,360.0,0.0,0.0
3232,46.0,0.0,360.0,0.0,0.0
3233,27.0,480.0,120.0,0.0,0.0
3234,39.0,0.0,120.0,0.0,0.0
3235,39.0,120.0,480.0,0.0,0.0
3236,27.0,0.0,480.0,0.0,0.0
3237,34.0,120.0,120.0,0.0,0.0
3238,27.0,240.0,120.0,0.0,0.0
3239,29.0,120.0,120.0,0.0,0.0
3240,31.0,120.0,120.0,0.0,0.0
3241,27.0,360.0,120.0,0.0,0.0
3242,46.0,120.0,120.0,0.0,0.0
3243,34.0,0.0,120.0,0.0,0.0
3244,39.0,240.0,120.0,0.0,0.0
3245,27.0,0.0,120.0,0.0,0.0
3246,41.0,0.0,120.0,0.0,0.0
3247,29.0,120.0,120.0,0.0,0.0
3248,31.0,0.0,120.0,0.0,0.0
3249,43.0,120.0,120.0,0.0,0.0
3250,39.0,360.0,120.0,0.0,0.0
3251,27.0,0.0,120.0,0.0,0.0
3252,34.0,120.0,120.0,0.0,0.0
3253,46.0,0.0,120.0,0.0,0.0
3254,28.0,240.0,120.0,0.0,0.0
3255,40.0,0.0,120.0,0.0,0.0
3256,29.0,120.0,120.0,0.0,0.0
3257,41.0,0.0,120.0,0.0,0.0
3258,43.0,120.0,120.0,0.0,0.0
3259,31.0,0.0,120.0,0.0,0.0
3260,40.0,360.0,120.0,0.0,0.0
3261,28.0,0.0,120.0,0.0,0.0
3262,34.0,0.0,120.0,0.0,0.0
3263,46.0,120.0,120.0,0.0,0.0
3264,28.0,0.0,120.0,0.0,0.0
3265,40.0,240.0,120.0,0.0,0.0
3266,41.0,120.0,120.0,0.0,0.0
3267,29.0,0.0,120.0,0.0,0.0
3268,43.0,0.0,120.0,0.0,0.0
3269,31.0,120.0,120.0,0.0,0.0
3270,28.0,360.0,120.0,0.0,0.0
3271,40.0,0.0,120.0,0.0,0.0
3272,46.0,120.0,120.0,0.0,0.0
3273,34.0,0.0,120.0,0.0,0.0
3274,31.0,0.0,120.0,0.0,0.0
3275,43.0,240.0,120.0,0.0,0.0
3276,45.0,120.0,120.0,0.0,0.0
3277,33.0,0.0,120.0,0.0,0.0
3278,34.0,120.0,120.0,0.0,0.0
3279,46.0,0.0,120.0,0.0,0.0
3280,55.0,720.0,120.0,0.0,0.0
3281,43.0,0.0,120.0,0.0,0.0
3282,52.0,480.0,480.0,0.0,0.0
3283,67.0,0.0,480.0,0.0,0.0
3284,60.0,120.0,1320.0,0.0,0.0
3285,58.0,360.0,960.0,0.0,0.0
3286,68.0,0.0,480.0,0.0,0.0
3287,36.0,0.0,480.0,0.0,0.0
3288,48.0,480.0,480.0,0.0,0.0
3289,53.0,0.0,960.0,0.0,0.0
3290,57.0,0.0,1920.0,0.0,0.0
3291,69.0,0.0,360.0,0.0,0.0
3292,41.0,120.0,960.0,0.0,0.0
3293,61.0,0.0,15.0,0.0,0.0
3294,29.0,120.0,120.0,0.0,0.0
3295,41.0,0.0,120.0,0.0,0.0
3296,37.0,0.0,120.0,0.0,0.0
3297,25.0,240.0,120.0,0.0,0.0
3298,39.0,0.0,120.0,0.0,0.0
3299,27.0,120.0,120.0,0.0,0.0
3300,29.0,120.0,120.0,0.0,0.0
3301,41.0,0.0,120.0,0.0,0.0
3302,37.0,240.0,120.0,0.0,0.0
3303,25.0,0.0,120.0,0.0,0.0
3304,61.0,0.0,360.0,0.0,0.0
3305,69.0,120.0,360.0,0.0,0.0
3306,57.0,0.0,960.0,0.0,0.0
3307,49.0,360.0,15.0,0.0,0.0
3308,41.0,0.0,960.0,0.0,0.0
3309,62.0,480.0,120.0,0.0,0.0
3310,50.0,0.0,480.0,0.0,0.0
3311,58.0,0.0,960.0,0.0,0.0
3312,62.0,360.0,15.0,0.0,0.0
3313,43.0,0.0,960.0,0.0,0.0
3314,50.0,480.0,480.0,0.0,0.0
3315,70.0,120.0,360.0,0.0,0.0
3316,63.0,0.0,15.0,0.0,0.0
3317,51.0,0.0,480.0,0.0,0.0
3318,31.0,0.0,120.0,0.0,0.0
3319,43.0,120.0,120.0,0.0,0.0
3320,71.0,230.0,720.0,0.0,0.0
3321,63.0,120.0,15.0,0.0,0.0
3322,61.0,120.0,960.0,0.0,0.0
3323,27.0,240.0,120.0,0.0,0.0
3324,39.0,0.0,120.0,0.0,0.0
3325,41.0,120.0,120.0,0.0,0.0
3326,29.0,0.0,120.0,0.0,0.0
3327,31.0,120.0,120.0,0.0,0.0
3328,43.0,0.0,120.0,0.0,0.0
3329,27.0,0.0,120.0,0.0,0.0
3330,39.0,10.0,120.0,0.0,0.0
3331,70.0,0.0,240.0,0.0,0.0
3332,63.0,0.0,15.0,0.0,0.0
3333,44.0,120.0,120.0,0.0,0.0
3334,32.0,0.0,120.0,0.0,0.0
3335,70.0,110.0,360.0,0.0,0.0
3336,59.0,0.0,480.0,0.0,0.0
3337,39.0,0.0,120.0,0.0,0.0
3338,27.0,130.0,120.0,0.0,0.0
3339,32.0,120.0,120.0,0.0,0.0
3340,44.0,0.0,120.0,0.0,0.0
3341,68.0,120.0,480.0,0.0,0.0
3342,34.0,0.0,120.0,0.0,0.0
3343,61.0,120.0,480.0,0.0,0.0
3344,46.0,120.0,120.0,0.0,0.0
3345,39.0,120.0,120.0,0.0,0.0
3346,27.0,0.0,120.0,0.0,0.0
3347,66.0,0.0,120.0,0.0,0.0
3348,66.0,110.0,360.0,0.0,0.0
3349,59.0,0.0,960.0,0.0,0.0
3350,56.0,10.0,960.0,0.0,0.0
3351,35.0,0.0,120.0,0.0,0.0
3352,47.0,120.0,120.0,0.0,0.0
3353,27.0,130.0,120.0,0.0,0.0
3354,39.0,0.0,120.0,0.0,0.0
3355,34.0,120.0,120.0,0.0,0.0
3356,46.0,0.0,120.0,0.0,0.0
3357,64.0,0.0,15.0,0.0,0.0
3358,47.0,50.0,120.0,0.0,0.0
3359,35.0,0.0,120.0,0.0,0.0
3360,40.0,90.0,120.0,0.0,0.0
3361,52.0,0.0,120.0,0.0,0.0
3362,68.0,150.0,180.0,0.0,0.0
3363,66.0,110.0,180.0,0.0,0.0
3364,49.0,0.0,120.0,0.0,0.0
3365,55.0,0.0,960.0,0.0,0.0
3366,64.0,110.0,480.0,0.0,0.0
3367,37.0,120.0,120.0,0.0,0.0
3368,34.0,240.0,120.0,0.0,0.0
3369,46.0,0.0,120.0,0.0,0.0
3370,35.0,10.0,120.0,0.0,0.0
3371,47.0,0.0,120.0,0.0,0.0
3372,37.0,120.0,120.0,0.0,0.0
3373,49.0,0.0,120.0,0.0,0.0
3374,58.0,0.0,120.0,0.0,0.0
3375,46.0,240.0,120.0,0.0,0.0
3376,63.0,0.0,15.0,0.0,0.0
3377,75.0,120.0,240.0,0.0,0.0
3378,36.0,80.0,150.0,0.0,0.0
3379,54.0,40.0,120.0,0.0,0.0
3380,66.0,0.0,120.0,0.0,0.0
3381,57.0,0.0,120.0,0.0,0.0
3382,65.0,240.0,120.0,0.0,0.0
3383,41.0,0.0,330.0,0.0,0.0
3384,51.0,0.0,150.0,0.0,0.0
3385,53.0,0.0,120.0,0.0,0.0
3386,63.0,120.0,120.0,0.0,0.0
3387,58.0,40.0,120.0,0.0,0.0
3388,50.0,80.0,150.0,0.0,0.0
3389,62.0,0.0,120.0,0.0,0.0
3390,53.0,80.0,120.0,0.0,0.0
3391,65.0,0.0,120.0,0.0,0.0
3392,41.0,160.0,150.0,0.0,0.0
3393,34.0,0.0,150.0,0.0,0.0
3394,37.0,80.0,150.0,0.0,0.0
3395,68.0,0.0,15.0,0.0,0.0
3396,56.0,120.0,15.0,0.0,0.0
3397,59.0,0.0,120.0,0.0,0.0
3398,67.0,240.0,120.0,0.0,0.0
3399,43.0,120.0,330.0,0.0,0.0
3400,53.0,0.0,150.0,0.0,0.0
3401,55.0,0.0,120.0,0.0,0.0
3402,65.0,0.0,120.0,0.0,0.0
3403,52.0,80.0,150.0,0.0,0.0
3404,64.0,40.0,120.0,0.0,0.0
3405,60.0,0.0,120.0,0.0,0.0
3406,55.0,80.0,120.0,0.0,0.0
3407,67.0,0.0,120.0,0.0,0.0
3408,43.0,160.0,150.0,0.0,0.0
3409,36.0,120.0,150.0,0.0,0.0
3410,58.0,0.0,15.0,0.0,0.0
3411,70.0,0.0,15.0,0.0,0.0
3412,39.0,80.0,150.0,0.0,0.0
3413,69.0,0.0,120.0,0.0,0.0
3414,61.0,80.0,120.0,0.0,0.0
3415,45.0,160.0,150.0,0.0,0.0
3416,55.0,0.0,150.0,0.0,0.0
3417,67.0,0.0,120.0,0.0,0.0
3418,57.0,160.0,120.0,0.0,0.0
3419,38.0,0.0,150.0,0.0,0.0
3420,66.0,0.0,150.0,0.0,0.0
3421,62.0,160.0,150.0,0.0,0.0
3422,57.0,0.0,150.0,0.0,0.0
3423,69.0,0.0,150.0,0.0,0.0
3424,45.0,160.0,150.0,0.0,0.0
3425,66.0,0.0,150.0,0.0,0.0
3426,69.0,0.0,150.0,0.0,0.0
3427,54.0,160.0,150.0,0.0,0.0
3428,60.0,0.0,150.0,0.0,0.0
3429,39.0,0.0,150.0,0.0,0.0
3430,72.0,160.0,15.0,0.0,0.0
3431,48.0,160.0,150.0,0.0,0.0
3432,69.0,0.0,150.0,0.0,0.0
3433,66.0,160.0,150.0,0.0,0.0
3434,78.0,0.0,150.0,0.0,0.0
3435,57.0,0.0,150.0,0.0,0.0
3436,76.0,0.0,150.0,0.0,0.0
3437,40.0,160.0,150.0,0.0,0.0
3438,81.0,0.0,150.0,0.0,0.0
3439,84.0,0.0,150.0,0.0,0.0
3440,48.0,160.0,150.0,0.0,0.0
3441,72.0,0.0,150.0,0.0,0.0
3442,57.0,0.0,150.0,0.0,0.0
3443,84.0,0.0,150.0,0.0,0.0
3444,96.0,120.0,150.0,0.0,0.0
3445,28.0,120.0,120.0,0.0,0.0
3446,40.0,0.0,120.0,0.0,0.0
3447,60.0,120.0,960.0,0.0,0.0
3448,68.0,230.0,720.0,0.0,0.0
3449,36.0,0.0,120.0,0.0,0.0
3450,24.0,240.0,120.0,0.0,0.0
3451,26.0,120.0,120.0,0.0,0.0
3452,38.0,0.0,120.0,0.0,0.0
3453,40.0,0.0,120.0,0.0,0.0
3454,28.0,120.0,120.0,0.0,0.0
3455,24.0,10.0,120.0,0.0,0.0
3456,36.0,0.0,120.0,0.0,0.0
3457,66.0,0.0,240.0,0.0,0.0
3458,54.0,0.0,240.0,0.0,0.0
3459,28.0,120.0,120.0,0.0,0.0
3460,40.0,0.0,120.0,0.0,0.0
3461,66.0,0.0,480.0,0.0,0.0
3462,61.0,0.0,960.0,0.0,0.0
3463,56.0,0.0,15.0,0.0,0.0
3464,54.0,120.0,480.0,0.0,0.0
3465,25.0,0.0,120.0,0.0,0.0
3466,37.0,240.0,120.0,0.0,0.0
3467,39.0,0.0,120.0,0.0,0.0
3468,27.0,0.0,120.0,0.0,0.0
3469,40.0,0.0,120.0,0.0,0.0
3470,28.0,120.0,120.0,0.0,0.0
3471,52.0,0.0,360.0,0.0,0.0
3472,25.0,120.0,120.0,0.0,0.0
3473,37.0,0.0,120.0,0.0,0.0
3474,64.0,120.0,15.0,0.0,0.0
3475,52.0,120.0,120.0,0.0,0.0
3476,30.0,120.0,120.0,0.0,0.0
3477,64.0,0.0,15.0,0.0,0.0
3478,52.0,0.0,360.0,0.0,0.0
3479,60.0,10.0,810.0,0.0,0.0
3480,42.0,0.0,120.0,0.0,0.0
3481,57.0,0.0,480.0,0.0,0.0
3482,39.0,0.0,120.0,0.0,0.0
3483,27.0,120.0,120.0,0.0,0.0
3484,63.0,0.0,120.0,0.0,0.0
3485,28.0,120.0,120.0,0.0,0.0
3486,40.0,0.0,120.0,0.0,0.0
3487,51.0,50.0,120.0,0.0,0.0
3488,63.0,70.0,180.0,0.0,0.0
3489,42.0,0.0,120.0,0.0,0.0
3490,30.0,0.0,120.0,0.0,0.0
3491,51.0,80.0,120.0,0.0,0.0
3492,39.0,0.0,120.0,0.0,0.0
3493,49.0,0.0,150.0,0.0,0.0
3494,61.0,150.0,180.0,0.0,0.0
3495,48.0,120.0,150.0,0.0,0.0
3496,60.0,0.0,150.0,0.0,0.0
3497,51.0,0.0,480.0,0.0,0.0
3498,63.0,110.0,480.0,0.0,0.0
3499,32.0,120.0,120.0,0.0,0.0
3500,44.0,0.0,120.0,0.0,0.0
3501,59.0,120.0,960.0,0.0,0.0
3502,29.0,240.0,120.0,0.0,0.0
3503,41.0,0.0,120.0,0.0,0.0
3504,30.0,10.0,120.0,0.0,0.0
3505,42.0,0.0,120.0,0.0,0.0
3506,50.0,240.0,240.0,0.0,0.0
3507,62.0,0.0,240.0,0.0,0.0
3508,32.0,120.0,120.0,0.0,0.0
3509,44.0,0.0,120.0,0.0,0.0
3510,44.0,0.0,120.0,0.0,0.0
3511,56.0,0.0,120.0,0.0,0.0
3512,65.0,0.0,240.0,0.0,0.0
3513,77.0,0.0,240.0,0.0,0.0
3514,56.0,0.0,120.0,0.0,0.0
3515,68.0,40.0,120.0,0.0,0.0
3516,35.0,80.0,150.0,0.0,0.0
3517,67.0,240.0,120.0,0.0,0.0
3518,62.0,0.0,120.0,0.0,0.0
3519,43.0,0.0,330.0,0.0,0.0
3520,53.0,0.0,150.0,0.0,0.0
3521,65.0,0.0,120.0,0.0,0.0
3522,55.0,120.0,120.0,0.0,0.0
3523,52.0,80.0,150.0,0.0,0.0
3524,60.0,40.0,120.0,0.0,0.0
3525,64.0,0.0,120.0,0.0,0.0
3526,55.0,0.0,120.0,0.0,0.0
3527,67.0,80.0,120.0,0.0,0.0
3528,43.0,160.0,150.0,0.0,0.0
3529,36.0,0.0,150.0,0.0,0.0
3530,58.0,0.0,120.0,0.0,0.0
3531,37.0,80.0,150.0,0.0,0.0
3532,58.0,0.0,120.0,0.0,0.0
3533,70.0,120.0,15.0,0.0,0.0
3534,69.0,0.0,120.0,0.0,0.0
3535,64.0,240.0,120.0,0.0,0.0
3536,45.0,120.0,330.0,0.0,0.0
3537,55.0,0.0,150.0,0.0,0.0
3538,67.0,0.0,120.0,0.0,0.0
3539,57.0,0.0,120.0,0.0,0.0
3540,54.0,80.0,150.0,0.0,0.0
3541,62.0,40.0,120.0,0.0,0.0
3542,66.0,0.0,120.0,0.0,0.0
3543,69.0,80.0,120.0,0.0,0.0
3544,57.0,0.0,120.0,0.0,0.0
3545,45.0,160.0,150.0,0.0,0.0
3546,38.0,120.0,150.0,0.0,0.0
3547,60.0,0.0,120.0,0.0,0.0
3548,72.0,0.0,120.0,0.0,0.0
3549,60.0,40.0,120.0,0.0,0.0
3550,72.0,0.0,120.0,0.0,0.0
3551,39.0,80.0,150.0,0.0,0.0
3552,71.0,0.0,120.0,0.0,0.0
3553,66.0,240.0,120.0,0.0,0.0
3554,47.0,160.0,330.0,0.0,0.0
3555,57.0,0.0,150.0,0.0,0.0
3556,59.0,0.0,120.0,0.0,0.0
3557,69.0,0.0,120.0,0.0,0.0
3558,64.0,0.0,150.0,0.0,0.0
3559,68.0,0.0,150.0,0.0,0.0
3560,40.0,160.0,150.0,0.0,0.0
3561,59.0,0.0,150.0,0.0,0.0
3562,47.0,160.0,150.0,0.0,0.0
3563,68.0,0.0,150.0,0.0,0.0
3564,71.0,0.0,15.0,0.0,0.0
3565,56.0,160.0,150.0,0.0,0.0
3566,62.0,160.0,150.0,0.0,0.0
3567,41.0,0.0,150.0,0.0,0.0
3568,74.0,0.0,150.0,0.0,0.0
3569,71.0,160.0,150.0,0.0,0.0
3570,74.0,0.0,150.0,0.0,0.0
3571,50.0,0.0,150.0,0.0,0.0
3572,59.0,0.0,150.0,0.0,0.0
3573,65.0,160.0,150.0,0.0,0.0
3574,77.0,0.0,150.0,0.0,0.0
3575,44.0,0.0,150.0,0.0,0.0
3576,74.0,0.0,150.0,0.0,0.0
3577,77.0,160.0,150.0,0.0,0.0
3578,82.0,0.0,150.0,0.0,0.0
3579,50.0,160.0,150.0,0.0,0.0
3580,70.0,0.0,150.0,0.0,0.0
3581,58.0,120.0,150.0,0.0,0.0
3582,74.0,0.0,150.0,0.0,0.0
3583,86.0,0.0,150.0,0.0,0.0
3584,82.0,0.0,120.0,0.0,0.0
3585,87.0,40.0,120.0,0.0,0.0
3586,30.0,80.0,150.0,0.0,0.0
3587,42.0,0.0,150.0,0.0,0.0
3588,78.0,80.0,120.0,0.0,0.0
3589,75.0,0.0,120.0,0.0,0.0
3590,54.0,160.0,150.0,0.0,0.0
3591,46.0,0.0,150.0,0.0,0.0
3592,51.0,0.0,150.0,0.0,0.0
3593,58.0,0.0,150.0,0.0,0.0
3594,77.0,0.0,120.0,0.0,0.0
3595,80.0,120.0,120.0,0.0,0.0
3596,63.0,80.0,150.0,0.0,0.0
3597,54.0,0.0,150.0,0.0,0.0
3598,82.0,40.0,120.0,0.0,0.0
3599,78.0,0.0,120.0,0.0,0.0
3600,70.0,80.0,120.0,0.0,0.0
3601,75.0,0.0,120.0,0.0,0.0
3602,58.0,160.0,150.0,0.0,0.0
3603,51.0,0.0,150.0,0.0,0.0
3604,22.0,120.0,90.0,0.0,0.0
3605,34.0,0.0,90.0,0.0,0.0
3606,22.0,80.0,150.0,0.0,0.0
3607,78.0,0.0,120.0,0.0,0.0
3608,34.0,0.0,150.0,0.0,0.0
3609,82.0,40.0,120.0,0.0,0.0
3610,70.0,0.0,120.0,0.0,0.0
3611,75.0,80.0,120.0,0.0,0.0
3612,46.0,160.0,150.0,0.0,0.0
3613,54.0,0.0,150.0,0.0,0.0
3614,51.0,0.0,150.0,0.0,0.0
3615,58.0,0.0,150.0,0.0,0.0
3616,74.0,120.0,120.0,0.0,0.0
3617,77.0,0.0,120.0,0.0,0.0
3618,75.0,40.0,120.0,0.0,0.0
3619,78.0,0.0,120.0,0.0,0.0
3620,63.0,80.0,150.0,0.0,0.0
3621,54.0,0.0,150.0,0.0,0.0
3622,82.0,80.0,120.0,0.0,0.0
3623,87.0,0.0,120.0,0.0,0.0
3624,58.0,160.0,150.0,0.0,0.0
3625,51.0,0.0,150.0,0.0,0.0
3626,46.0,120.0,150.0,0.0,0.0
3627,85.0,0.0,120.0,0.0,0.0
3628,81.0,40.0,120.0,0.0,0.0
3629,54.0,0.0,15.0,0.0,0.0
3630,42.0,80.0,150.0,0.0,0.0
3631,73.0,80.0,120.0,0.0,0.0
3632,78.0,0.0,120.0,0.0,0.0
3633,49.0,0.0,150.0,0.0,0.0
3634,57.0,160.0,150.0,0.0,0.0
3635,61.0,120.0,150.0,0.0,0.0
3636,54.0,0.0,150.0,0.0,0.0
3637,80.0,0.0,120.0,0.0,0.0
3638,77.0,0.0,120.0,0.0,0.0
3639,66.0,0.0,150.0,0.0,0.0
3640,57.0,80.0,150.0,0.0,0.0
3641,78.0,0.0,120.0,0.0,0.0
3642,81.0,40.0,120.0,0.0,0.0
3643,69.0,80.0,120.0,0.0,0.0
3644,73.0,0.0,120.0,0.0,0.0
3645,61.0,160.0,150.0,0.0,0.0
3646,54.0,0.0,150.0,0.0,0.0
3647,45.0,0.0,90.0,0.0,0.0
3648,33.0,120.0,90.0,0.0,0.0
3649,33.0,80.0,150.0,0.0,0.0
3650,45.0,0.0,150.0,0.0,0.0
3651,85.0,40.0,120.0,0.0,0.0
3652,81.0,0.0,120.0,0.0,0.0
3653,78.0,80.0,120.0,0.0,0.0
3654,73.0,0.0,120.0,0.0,0.0
3655,49.0,160.0,150.0,0.0,0.0
3656,57.0,0.0,150.0,0.0,0.0
3657,54.0,0.0,150.0,0.0,0.0
3658,61.0,120.0,150.0,0.0,0.0
3659,80.0,0.0,120.0,0.0,0.0
3660,77.0,0.0,120.0,0.0,0.0
3661,57.0,0.0,150.0,0.0,0.0
3662,78.0,40.0,120.0,0.0,0.0
3663,66.0,80.0,150.0,0.0,0.0
3664,81.0,0.0,120.0,0.0,0.0
3665,90.0,80.0,120.0,0.0,0.0
3666,85.0,0.0,120.0,0.0,0.0
3667,61.0,160.0,150.0,0.0,0.0
3668,54.0,0.0,150.0,0.0,0.0
3669,57.0,0.0,150.0,0.0,0.0
3670,49.0,120.0,150.0,0.0,0.0
3671,85.0,0.0,120.0,0.0,0.0
3672,80.0,40.0,120.0,0.0,0.0
3673,40.0,0.0,150.0,0.0,0.0
3674,28.0,80.0,150.0,0.0,0.0
3675,76.0,80.0,120.0,0.0,0.0
3676,73.0,0.0,120.0,0.0,0.0
3677,49.0,0.0,150.0,0.0,0.0
3678,56.0,160.0,150.0,0.0,0.0
3679,61.0,0.0,150.0,0.0,0.0
3680,52.0,120.0,150.0,0.0,0.0
3681,78.0,0.0,120.0,0.0,0.0
3682,75.0,0.0,120.0,0.0,0.0
3683,80.0,40.0,120.0,0.0,0.0
3684,64.0,0.0,150.0,0.0,0.0
3685,56.0,80.0,150.0,0.0,0.0
3686,76.0,0.0,120.0,0.0,0.0
3687,68.0,0.0,120.0,0.0,0.0
3688,73.0,80.0,120.0,0.0,0.0
3689,52.0,180.0,150.0,0.0,0.0
3690,61.0,0.0,150.0,0.0,0.0
3691,20.0,100.0,20.0,0.0,0.0
3692,32.0,0.0,20.0,0.0,0.0
3693,76.0,40.0,120.0,0.0,0.0
3694,80.0,0.0,120.0,0.0,0.0
3695,73.0,0.0,120.0,0.0,0.0
3696,68.0,80.0,120.0,0.0,0.0
3697,56.0,0.0,150.0,0.0,0.0
3698,49.0,160.0,150.0,0.0,0.0
3699,52.0,0.0,150.0,0.0,0.0
3700,61.0,120.0,150.0,0.0,0.0
3701,75.0,0.0,120.0,0.0,0.0
3702,72.0,0.0,120.0,0.0,0.0
3703,76.0,40.0,120.0,0.0,0.0
3704,73.0,0.0,120.0,0.0,0.0
3705,64.0,80.0,150.0,0.0,0.0
3706,56.0,0.0,150.0,0.0,0.0
3707,80.0,80.0,120.0,0.0,0.0
3708,85.0,0.0,120.0,0.0,0.0
3709,61.0,160.0,150.0,0.0,0.0
3710,52.0,0.0,150.0,0.0,0.0
3711,56.0,120.0,150.0,0.0,0.0
3712,49.0,0.0,150.0,0.0,0.0
3713,80.0,40.0,120.0,0.0,0.0
3714,84.0,0.0,120.0,0.0,0.0
3715,52.0,80.0,150.0,0.0,0.0
3716,40.0,0.0,150.0,0.0,0.0
3717,72.0,80.0,120.0,0.0,0.0
3718,76.0,0.0,120.0,0.0,0.0
3719,48.0,160.0,150.0,0.0,0.0
3720,56.0,0.0,150.0,0.0,0.0
3721,52.0,0.0,150.0,0.0,0.0
3722,60.0,0.0,150.0,0.0,0.0
3723,78.0,0.0,120.0,0.0,0.0
3724,75.0,120.0,120.0,0.0,0.0
3725,56.0,80.0,150.0,0.0,0.0
3726,64.0,0.0,150.0,0.0,0.0
3727,80.0,40.0,120.0,0.0,0.0
3728,76.0,0.0,120.0,0.0,0.0
3729,72.0,0.0,120.0,0.0,0.0
3730,68.0,80.0,120.0,0.0,0.0
3731,52.0,180.0,150.0,0.0,0.0
3732,60.0,0.0,150.0,0.0,0.0
3733,76.0,0.0,120.0,0.0,0.0
3734,80.0,40.0,120.0,0.0,0.0
3735,44.0,0.0,20.0,0.0,0.0
3736,32.0,100.0,20.0,0.0,0.0
3737,68.0,80.0,120.0,0.0,0.0
3738,72.0,0.0,120.0,0.0,0.0
3739,48.0,0.0,150.0,0.0,0.0
3740,56.0,160.0,150.0,0.0,0.0
3741,52.0,0.0,150.0,0.0,0.0
3742,60.0,120.0,150.0,0.0,0.0
3743,75.0,0.0,120.0,0.0,0.0
3744,64.0,80.0,150.0,0.0,0.0
3745,56.0,0.0,150.0,0.0,0.0
3746,76.0,0.0,120.0,0.0,0.0
3747,72.0,0.0,15.0,0.0,0.0
3748,84.0,0.0,120.0,0.0,0.0
3749,80.0,80.0,120.0,0.0,0.0
3750,60.0,160.0,150.0,0.0,0.0
3751,52.0,0.0,150.0,0.0,0.0
3752,56.0,120.0,150.0,0.0,0.0
3753,48.0,0.0,150.0,0.0,0.0
3754,84.0,0.0,120.0,0.0,0.0
3755,39.0,0.0,150.0,0.0,0.0
3756,79.0,40.0,120.0,0.0,0.0
3757,72.0,80.0,120.0,0.0,0.0
3758,75.0,0.0,120.0,0.0,0.0
3759,51.0,80.0,15.0,0.0,0.0
3760,60.0,0.0,150.0,0.0,0.0
3761,63.0,120.0,150.0,0.0,0.0
3762,55.0,0.0,150.0,0.0,0.0
3763,74.0,0.0,120.0,0.0,0.0
3764,77.0,0.0,120.0,0.0,0.0
3765,60.0,80.0,150.0,0.0,0.0
3766,79.0,40.0,120.0,0.0,0.0
3767,75.0,0.0,120.0,0.0,0.0
3768,67.0,0.0,40.0,0.0,0.0
3769,72.0,80.0,120.0,0.0,0.0
3770,55.0,0.0,150.0,0.0,0.0
3771,63.0,180.0,150.0,0.0,0.0
3772,43.0,0.0,20.0,0.0,0.0
3773,79.0,40.0,120.0,0.0,0.0
3774,75.0,0.0,120.0,0.0,0.0
3775,31.0,100.0,20.0,0.0,0.0
3776,72.0,80.0,120.0,0.0,0.0
3777,67.0,0.0,120.0,0.0,0.0
3778,60.0,160.0,150.0,0.0,0.0
3779,51.0,0.0,150.0,0.0,0.0
3780,63.0,0.0,150.0,0.0,0.0
3781,55.0,0.0,150.0,0.0,0.0
3782,74.0,0.0,120.0,0.0,0.0
3783,71.0,120.0,120.0,0.0,0.0
3784,72.0,0.0,120.0,0.0,0.0
3785,60.0,0.0,150.0,0.0,0.0
3786,67.0,80.0,150.0,0.0,0.0
3787,75.0,40.0,120.0,0.0,0.0
3788,84.0,80.0,120.0,0.0,0.0
3789,79.0,0.0,120.0,0.0,0.0
3790,55.0,0.0,150.0,0.0,0.0
3791,63.0,160.0,150.0,0.0,0.0
3792,60.0,120.0,150.0,0.0,0.0
3793,79.0,40.0,120.0,0.0,0.0
3794,82.0,0.0,120.0,0.0,0.0
3795,51.0,0.0,15.0,0.0,0.0
3796,39.0,0.0,150.0,0.0,0.0
3797,75.0,80.0,120.0,0.0,0.0
3798,70.0,0.0,120.0,0.0,0.0
3799,55.0,0.0,150.0,0.0,0.0
3800,46.0,160.0,150.0,0.0,0.0
3801,51.0,0.0,150.0,0.0,0.0
3802,58.0,0.0,150.0,0.0,0.0
3803,77.0,0.0,120.0,0.0,0.0
3804,74.0,120.0,120.0,0.0,0.0
3805,63.0,0.0,150.0,0.0,0.0
3806,55.0,80.0,150.0,0.0,0.0
3807,75.0,40.0,120.0,0.0,0.0
3808,79.0,0.0,120.0,0.0,0.0
3809,70.0,0.0,120.0,0.0,0.0
3810,67.0,80.0,120.0,0.0,0.0
3811,58.0,180.0,150.0,0.0,0.0
3812,51.0,0.0,150.0,0.0,0.0
3813,39.0,100.0,20.0,0.0,0.0
3814,79.0,40.0,120.0,0.0,0.0
3815,82.0,0.0,120.0,0.0,0.0
3816,27.0,0.0,20.0,0.0,0.0
3817,75.0,0.0,120.0,0.0,0.0
3818,70.0,80.0,120.0,0.0,0.0
3819,55.0,160.0,150.0,0.0,0.0
3820,46.0,0.0,150.0,0.0,0.0
3821,51.0,0.0,150.0,0.0,0.0
3822,58.0,0.0,150.0,0.0,0.0
3823,77.0,0.0,120.0,0.0,0.0
3824,74.0,120.0,120.0,0.0,0.0
3825,63.0,0.0,150.0,0.0,0.0
3826,55.0,80.0,150.0,0.0,0.0
3827,79.0,0.0,120.0,0.0,0.0
3828,75.0,40.0,120.0,0.0,0.0
3829,82.0,0.0,120.0,0.0,0.0
3830,87.0,80.0,120.0,0.0,0.0
3831,51.0,0.0,150.0,0.0,0.0
3832,58.0,160.0,150.0,0.0,0.0
3833,46.0,0.0,150.0,0.0,0.0
3834,55.0,120.0,150.0,0.0,0.0
3835,82.0,0.0,120.0,0.0,0.0
3836,77.0,40.0,120.0,0.0,0.0
3837,50.0,80.0,150.0,0.0,0.0
3838,38.0,0.0,150.0,0.0,0.0
3839,70.0,0.0,120.0,0.0,0.0
3840,74.0,80.0,120.0,0.0,0.0
3841,53.0,0.0,150.0,0.0,0.0
3842,46.0,160.0,150.0,0.0,0.0
3843,50.0,0.0,150.0,0.0,0.0
3844,58.0,120.0,150.0,0.0,0.0
3845,75.0,0.0,120.0,0.0,0.0
3846,72.0,0.0,120.0,0.0,0.0
3847,74.0,0.0,120.0,0.0,0.0
3848,77.0,40.0,120.0,0.0,0.0
3849,53.0,0.0,150.0,0.0,0.0
3850,62.0,80.0,150.0,0.0,0.0
3851,65.0,0.0,120.0,0.0,0.0
3852,70.0,80.0,120.0,0.0,0.0
3853,50.0,160.0,150.0,0.0,0.0
3854,58.0,0.0,150.0,0.0,0.0
3855,46.0,120.0,150.0,0.0,0.0
3856,53.0,0.0,150.0,0.0,0.0
3857,49.0,0.0,150.0,0.0,0.0
3858,37.0,80.0,150.0,0.0,0.0
3859,77.0,40.0,120.0,0.0,0.0
3860,73.0,0.0,120.0,0.0,0.0
3861,70.0,80.0,120.0,0.0,0.0
3862,65.0,0.0,120.0,0.0,0.0
3863,46.0,160.0,150.0,0.0,0.0
3864,53.0,0.0,150.0,0.0,0.0
3865,58.0,0.0,150.0,0.0,0.0
3866,49.0,0.0,150.0,0.0,0.0
3867,69.0,120.0,120.0,0.0,0.0
3868,72.0,0.0,120.0,0.0,0.0
3869,61.0,80.0,150.0,0.0,0.0
3870,73.0,40.0,120.0,0.0,0.0
3871,70.0,0.0,120.0,0.0,0.0
3872,53.0,0.0,150.0,0.0,0.0
3873,82.0,0.0,120.0,0.0,0.0
3874,77.0,80.0,120.0,0.0,0.0
3875,49.0,0.0,150.0,0.0,0.0
3876,58.0,160.0,150.0,0.0,0.0
3877,46.0,0.0,150.0,0.0,0.0
3878,53.0,160.0,150.0,0.0,0.0
3879,85.0,0.0,150.0,0.0,0.0
3880,80.0,0.0,150.0,0.0,0.0
3881,77.0,0.0,150.0,0.0,0.0
3882,37.0,0.0,150.0,0.0,0.0
3883,49.0,160.0,150.0,0.0,0.0
3884,74.0,160.0,150.0,0.0,0.0
3885,44.0,0.0,150.0,0.0,0.0
3886,53.0,0.0,150.0,0.0,0.0
3887,56.0,160.0,150.0,0.0,0.0
3888,80.0,0.0,150.0,0.0,0.0
3889,77.0,0.0,150.0,0.0,0.0
3890,49.0,0.0,150.0,0.0,0.0
3891,73.0,0.0,15.0,0.0,0.0
3892,68.0,0.0,150.0,0.0,0.0
3893,61.0,0.0,150.0,0.0,0.0
3894,53.0,0.0,150.0,0.0,0.0
3895,49.0,0.0,150.0,0.0,0.0
3896,56.0,160.0,150.0,0.0,0.0
3897,77.0,0.0,150.0,0.0,0.0
3898,73.0,160.0,15.0,0.0,0.0
3899,68.0,0.0,150.0,0.0,0.0
3900,25.0,0.0,90.0,0.0,0.0
3901,68.0,0.0,150.0,0.0,0.0
3902,25.0,0.0,150.0,0.0,0.0
3903,37.0,160.0,15.0,0.0,0.0
3904,65.0,0.0,15.0,0.0,0.0
3905,73.0,0.0,150.0,0.0,0.0
3906,44.0,0.0,150.0,0.0,0.0
3907,62.0,0.0,150.0,0.0,0.0
3908,53.0,160.0,150.0,0.0,0.0
3909,65.0,157.0,150.0,0.0,0.0
3910,68.0,0.0,150.0,0.0,0.0
3911,61.0,0.0,150.0,0.0,0.0
3912,49.0,0.0,150.0,0.0,0.0
3913,56.0,0.0,150.0,0.0,0.0
3914,53.0,3.0,150.0,0.0,0.0
3915,37.0,160.0,150.0,0.0,0.0
3916,61.0,0.0,150.0,0.0,0.0
3917,56.0,160.0,15.0,0.0,0.0
3918,53.0,0.0,150.0,0.0,0.0
3919,49.0,0.0,150.0,0.0,0.0
3920,25.0,0.0,150.0,0.0,0.0
3921,61.0,120.0,150.0,0.0,0.0
3922,23.0,0.0,240.0,0.0,0.0
3923,35.0,0.0,240.0,0.0,0.0
3924,50.0,120.0,120.0,0.0,0.0
3925,62.0,0.0,120.0,0.0,0.0
3926,59.0,120.0,120.0,0.0,0.0
3927,57.0,120.0,120.0,0.0,0.0
3928,55.0,120.0,120.0,0.0,0.0
3929,62.0,0.0,120.0,0.0,0.0
3930,35.0,120.0,120.0,0.0,0.0
3931,67.0,0.0,120.0,0.0,0.0
3932,38.0,0.0,120.0,0.0,0.0
3933,55.0,120.0,120.0,0.0,0.0
3934,59.0,0.0,120.0,0.0,0.0
3935,50.0,120.0,120.0,0.0,0.0
3936,43.0,0.0,120.0,0.0,0.0
3937,57.0,0.0,120.0,0.0,0.0
3938,60.0,120.0,120.0,0.0,0.0
3939,38.0,120.0,120.0,0.0,0.0
3940,59.0,0.0,120.0,0.0,0.0
3941,62.0,0.0,120.0,0.0,0.0
3942,71.0,120.0,120.0,0.0,0.0
3943,67.0,0.0,120.0,0.0,0.0
3944,43.0,0.0,120.0,0.0,0.0
3945,55.0,120.0,120.0,0.0,0.0
3946,47.0,120.0,120.0,0.0,0.0
3947,43.0,120.0,120.0,0.0,0.0
3948,74.0,0.0,120.0,0.0,0.0
3949,71.0,0.0,120.0,0.0,0.0
3950,67.0,0.0,120.0,0.0,0.0
3951,62.0,0.0,120.0,0.0,0.0
3952,47.0,120.0,120.0,0.0,0.0
3953,59.0,120.0,120.0,0.0,0.0
3954,69.0,0.0,120.0,0.0,0.0
3955,66.0,120.0,120.0,0.0,0.0
3956,50.0,0.0,120.0,0.0,0.0
3957,47.0,120.0,120.0,0.0,0.0
3958,67.0,0.0,120.0,0.0,0.0
3959,71.0,0.0,120.0,0.0,0.0
3960,79.0,0.0,120.0,0.0,0.0
3961,50.0,120.0,120.0,0.0,0.0
3962,74.0,0.0,120.0,0.0,0.0
3963,62.0,120.0,120.0,0.0,0.0
3964,55.0,120.0,120.0,0.0,0.0
3965,50.0,120.0,120.0,0.0,0.0
3966,79.0,0.0,120.0,0.0,0.0
3967,83.0,0.0,120.0,0.0,0.0
3968,74.0,0.0,120.0,0.0,0.0
3969,55.0,0.0,120.0,0.0,0.0
3970,71.0,120.0,120.0,0.0,0.0
3971,67.0,120.0,120.0,0.0,0.0
3972,72.0,0.0,120.0,0.0,0.0
3973,78.0,120.0,120.0,0.0,0.0
3974,59.0,0.0,120.0,0.0,0.0
3975,79.0,0.0,120.0,0.0,0.0
3976,74.0,0.0,120.0,0.0,0.0
3977,55.0,120.0,120.0,0.0,0.0
3978,86.0,0.0,120.0,0.0,0.0
3979,83.0,120.0,120.0,0.0,0.0
3980,59.0,0.0,120.0,0.0,0.0
3981,71.0,120.0,120.0,0.0,0.0
3982,62.0,120.0,120.0,0.0,0.0
3983,78.0,80.0,150.0,0.0,0.0
3984,48.0,40.0,120.0,0.0,0.0
3985,54.0,80.0,120.0,0.0,0.0
3986,81.0,0.0,150.0,0.0,0.0
3987,75.0,0.0,15.0,0.0,0.0
3988,63.0,120.0,120.0,0.0,0.0
3989,81.0,120.0,150.0,0.0,0.0
3990,87.0,40.0,15.0,0.0,0.0
3991,75.0,0.0,150.0,0.0,0.0
3992,57.0,0.0,120.0,0.0,0.0
3993,47.0,0.0,120.0,0.0,0.0
3994,87.0,0.0,15.0,0.0,0.0
3995,75.0,0.0,120.0,0.0,0.0
3996,79.0,0.0,120.0,0.0,0.0
3997,50.0,0.0,120.0,0.0,0.0
3998,74.0,120.0,120.0,0.0,0.0
3999,86.0,0.0,120.0,0.0,0.0
4000,62.0,120.0,120.0,0.0,0.0
4001,55.0,120.0,120.0,0.0,0.0
4002,35.0,0.0,120.0,0.0,0.0
4003,67.0,0.0,120.0,0.0,0.0
4004,62.0,120.0,120.0,0.0,0.0
4005,55.0,0.0,120.0,0.0,0.0
4006,59.0,120.0,120.0,0.0,0.0
4007,38.0,0.0,120.0,0.0,0.0
4008,50.0,120.0,120.0,0.0,0.0
4009,43.0,0.0,120.0,0.0,0.0
4010,60.0,0.0,120.0,0.0,0.0
4011,57.0,120.0,120.0,0.0,0.0
4012,38.0,120.0,120.0,0.0,0.0
4013,62.0,0.0,120.0,0.0,0.0
4014,59.0,0.0,120.0,0.0,0.0
4015,67.0,0.0,120.0,0.0,0.0
4016,43.0,120.0,120.0,0.0,0.0
4017,71.0,0.0,120.0,0.0,0.0
4018,55.0,120.0,120.0,0.0,0.0
4019,47.0,120.0,120.0,0.0,0.0
4020,74.0,0.0,120.0,0.0,0.0
4021,71.0,120.0,120.0,0.0,0.0
4022,43.0,0.0,120.0,0.0,0.0
4023,62.0,120.0,120.0,0.0,0.0
4024,47.0,0.0,120.0,0.0,0.0
4025,67.0,0.0,120.0,0.0,0.0
4026,59.0,120.0,120.0,0.0,0.0
4027,66.0,0.0,120.0,0.0,0.0
4028,69.0,120.0,120.0,0.0,0.0
4029,50.0,0.0,120.0,0.0,0.0
4030,47.0,120.0,120.0,0.0,0.0
4031,71.0,0.0,120.0,0.0,0.0
4032,67.0,0.0,120.0,0.0,0.0
4033,50.0,0.0,120.0,0.0,0.0
4034,79.0,0.0,120.0,0.0,0.0
4035,74.0,120.0,120.0,0.0,0.0
4036,62.0,120.0,120.0,0.0,0.0
4037,55.0,120.0,120.0,0.0,0.0
4038,79.0,0.0,120.0,0.0,0.0
4039,83.0,0.0,120.0,0.0,0.0
4040,50.0,120.0,120.0,0.0,0.0
4041,71.0,0.0,120.0,0.0,0.0
4042,74.0,120.0,120.0,0.0,0.0
4043,55.0,0.0,120.0,0.0,0.0
4044,67.0,120.0,120.0,0.0,0.0
4045,78.0,120.0,120.0,0.0,0.0
4046,72.0,0.0,120.0,0.0,0.0
4047,59.0,0.0,120.0,0.0,0.0
4048,55.0,0.0,120.0,0.0,0.0
4049,79.0,0.0,120.0,0.0,0.0
4050,74.0,120.0,120.0,0.0,0.0
4051,59.0,0.0,120.0,0.0,0.0
4052,83.0,120.0,120.0,0.0,0.0
4053,86.0,0.0,120.0,0.0,0.0
4054,71.0,120.0,120.0,0.0,0.0
4055,62.0,120.0,120.0,0.0,0.0
4056,48.0,40.0,120.0,0.0,0.0
4057,75.0,80.0,150.0,0.0,0.0
4058,78.0,0.0,150.0,0.0,0.0
4059,54.0,80.0,120.0,0.0,0.0
4060,75.0,0.0,150.0,0.0,0.0
4061,81.0,0.0,150.0,0.0,0.0
4062,63.0,120.0,120.0,0.0,0.0
4063,87.0,40.0,15.0,0.0,0.0
4064,75.0,0.0,150.0,0.0,0.0
4065,81.0,0.0,150.0,0.0,0.0
4066,57.0,0.0,120.0,0.0,0.0
4067,37.0,160.0,150.0,0.0,0.0
4068,88.0,0.0,150.0,0.0,0.0
4069,80.0,0.0,150.0,0.0,0.0
4070,76.0,0.0,150.0,0.0,0.0
4071,77.0,0.0,150.0,0.0,0.0
4072,83.0,0.0,150.0,0.0,0.0
4073,44.0,160.0,150.0,0.0,0.0
4074,89.0,0.0,150.0,0.0,0.0
4075,50.0,0.0,330.0,0.0,0.0
4076,45.0,160.0,150.0,0.0,0.0
4077,66.0,0.0,150.0,0.0,0.0
4078,54.0,0.0,150.0,0.0,0.0
4079,44.0,0.0,150.0,0.0,0.0
4080,65.0,160.0,150.0,0.0,0.0
4081,53.0,0.0,150.0,0.0,0.0
4082,37.0,0.0,150.0,0.0,0.0
4083,62.0,160.0,150.0,0.0,0.0
4084,59.0,0.0,150.0,0.0,0.0
4085,57.0,0.0,150.0,0.0,0.0
4086,69.0,160.0,150.0,0.0,0.0
4087,54.0,0.0,150.0,0.0,0.0
4088,47.0,0.0,330.0,0.0,0.0
4089,56.0,0.0,150.0,0.0,0.0
4090,68.0,0.0,150.0,0.0,0.0
4091,53.0,160.0,150.0,0.0,0.0
4092,59.0,0.0,150.0,0.0,0.0
4093,37.0,160.0,150.0,0.0,0.0
4094,62.0,0.0,150.0,0.0,0.0
4095,54.0,0.0,150.0,0.0,0.0
4096,66.0,0.0,150.0,0.0,0.0
4097,45.0,160.0,150.0,0.0,0.0
4098,50.0,0.0,330.0,0.0,0.0
4099,65.0,0.0,150.0,0.0,0.0
4100,53.0,0.0,150.0,0.0,0.0
4101,44.0,160.0,150.0,0.0,0.0
4102,59.0,0.0,150.0,0.0,0.0
4103,62.0,160.0,150.0,0.0,0.0
4104,37.0,0.0,150.0,0.0,0.0
4105,54.0,0.0,150.0,0.0,0.0
4106,69.0,0.0,150.0,0.0,0.0
4107,47.0,0.0,330.0,0.0,0.0
4108,57.0,160.0,150.0,0.0,0.0
4109,53.0,160.0,150.0,0.0,0.0
4110,56.0,0.0,150.0,0.0,0.0
4111,68.0,0.0,150.0,0.0,0.0
4112,62.0,0.0,150.0,0.0,0.0
4113,37.0,0.0,150.0,0.0,0.0
4114,59.0,160.0,15.0,0.0,0.0
4115,54.0,160.0,150.0,0.0,0.0
4116,62.0,0.0,150.0,0.0,0.0
4117,74.0,0.0,150.0,0.0,0.0
4118,73.0,0.0,150.0,0.0,0.0
4119,53.0,0.0,150.0,0.0,0.0
4120,61.0,0.0,150.0,0.0,0.0
4121,68.0,0.0,150.0,0.0,0.0
4122,71.0,160.0,150.0,0.0,0.0
4123,49.0,0.0,150.0,0.0,0.0
4124,57.0,160.0,150.0,0.0,0.0
4125,62.0,160.0,330.0,0.0,0.0
4126,66.0,0.0,150.0,0.0,0.0
4127,78.0,0.0,150.0,0.0,0.0
4128,56.0,0.0,150.0,0.0,0.0
4129,65.0,0.0,150.0,0.0,0.0
4130,77.0,0.0,150.0,0.0,0.0
4131,74.0,160.0,150.0,0.0,0.0
4132,71.0,0.0,150.0,0.0,0.0
4133,49.0,0.0,150.0,0.0,0.0
4134,66.0,0.0,150.0,0.0,0.0
4135,59.0,0.0,330.0,0.0,0.0
4136,81.0,0.0,150.0,0.0,0.0
4137,69.0,160.0,150.0,0.0,0.0
4138,80.0,160.0,150.0,0.0,0.0
4139,68.0,0.0,150.0,0.0,0.0
4140,65.0,0.0,150.0,0.0,0.0
4141,49.0,0.0,150.0,0.0,0.0
4142,71.0,0.0,150.0,0.0,0.0
4143,74.0,160.0,15.0,0.0,0.0
4144,86.0,0.0,330.0,0.0,0.0
4145,66.0,160.0,150.0,0.0,0.0
4146,71.0,0.0,330.0,0.0,0.0
4147,65.0,160.0,150.0,0.0,0.0
4148,85.0,160.0,150.0,0.0,0.0
4149,80.0,0.0,150.0,0.0,0.0
4150,74.0,160.0,150.0,0.0,0.0
4151,84.0,0.0,150.0,0.0,0.0
4152,80.0,0.0,150.0,0.0,0.0
4153,83.0,160.0,150.0,0.0,0.0
4154,82.0,160.0,150.0,0.0,0.0
4155,74.0,0.0,150.0,0.0,0.0
4156,81.0,160.0,150.0,0.0,0.0
4157,77.0,0.0,150.0,0.0,0.0
4158,80.0,0.0,150.0,0.0,0.0
4159,71.0,160.0,150.0,0.0,0.0
4160,61.0,0.0,480.0,0.0,0.0
4161,74.0,160.0,150.0,0.0,0.0
4162,79.0,0.0,150.0,0.0,0.0
4163,71.0,0.0,150.0,0.0,0.0
4164,78.0,160.0,150.0,0.0,0.0
4165,77.0,0.0,150.0,0.0,0.0
4166,74.0,160.0,150.0,0.0,0.0
4167,61.0,0.0,480.0,0.0,0.0
4168,68.0,0.0,150.0,0.0,0.0
4169,76.0,160.0,150.0,0.0,0.0
4170,71.0,0.0,150.0,0.0,0.0
4171,75.0,160.0,150.0,0.0,0.0
4172,65.0,0.0,150.0,0.0,0.0
4173,74.0,160.0,150.0,0.0,0.0
4174,61.0,160.0,960.0,0.0,0.0
4175,73.0,0.0,150.0,0.0,0.0
4176,68.0,160.0,150.0,0.0,0.0
4177,72.0,160.0,150.0,0.0,0.0
4178,65.0,0.0,150.0,0.0,0.0
4179,68.0,0.0,150.0,0.0,0.0
4180,71.0,160.0,150.0,0.0,0.0
4181,59.0,160.0,150.0,0.0,0.0
4182,70.0,0.0,150.0,0.0,0.0
4183,65.0,0.0,150.0,0.0,0.0
4184,69.0,0.0,150.0,0.0,0.0
4185,59.0,0.0,150.0,0.0,0.0
4186,68.0,160.0,150.0,0.0,0.0
4187,49.0,0.0,480.0,0.0,0.0
4188,67.0,160.0,150.0,0.0,0.0
4189,65.0,0.0,150.0,0.0,0.0
4190,70.0,0.0,150.0,0.0,0.0
4191,59.0,160.0,150.0,0.0,0.0
4192,68.0,160.0,150.0,0.0,0.0
4193,49.0,0.0,420.0,0.0,0.0
4194,65.0,0.0,15.0,0.0,0.0
4195,75.0,100.0,150.0,0.0,0.0
4196,73.0,60.0,90.0,0.0,0.0
4197,71.0,0.0,90.0,0.0,0.0
4198,30.0,0.0,60.0,0.0,0.0
4199,58.0,960.0,15.0,0.0,0.0
4200,73.0,480.0,960.0,0.0,0.0
4201,42.0,0.0,1440.0,0.0,0.0
4202,49.0,0.0,960.0,0.0,0.0
4203,54.0,0.0,960.0,0.0,0.0
4204,66.0,0.0,15.0,0.0,0.0
4205,61.0,0.0,480.0,0.0,0.0
4206,70.0,480.0,480.0,0.0,0.0
4207,68.0,0.0,480.0,0.0,0.0
4208,63.0,960.0,480.0,0.0,0.0
4209,71.0,0.0,480.0,0.0,0.0
4210,47.0,0.0,480.0,0.0,0.0
4211,37.0,0.0,1980.0,0.0,0.0
4212,49.0,240.0,1200.0,0.0,0.0
4213,70.0,240.0,960.0,0.0,0.0
4214,59.0,480.0,1920.0,0.0,0.0
4215,68.0,0.0,960.0,0.0,0.0
4216,50.0,240.0,240.0,0.0,0.0
4217,51.0,240.0,240.0,0.0,0.0
4218,49.0,0.0,240.0,0.0,0.0
4219,42.0,0.0,960.0,0.0,0.0
4220,58.0,480.0,480.0,0.0,0.0
4221,73.0,0.0,480.0,0.0,0.0
4222,61.0,0.0,480.0,0.0,0.0
4223,70.0,0.0,480.0,0.0,0.0
4224,66.0,0.0,15.0,0.0,0.0
4225,63.0,0.0,240.0,0.0,0.0
4226,54.0,0.0,480.0,0.0,0.0
4227,66.0,0.0,480.0,0.0,0.0
4228,71.0,240.0,240.0,0.0,0.0
4229,70.0,240.0,240.0,0.0,0.0
4230,61.0,0.0,240.0,0.0,0.0
4231,67.0,240.0,240.0,0.0,0.0
4232,64.0,0.0,240.0,0.0,0.0
4233,73.0,0.0,240.0,0.0,0.0
4234,47.0,0.0,480.0,0.0,0.0
4235,68.0,240.0,240.0,0.0,0.0
4236,63.0,0.0,240.0,0.0,0.0
4237,71.0,0.0,240.0,0.0,0.0
4238,49.0,240.0,240.0,0.0,0.0
4239,59.0,240.0,1920.0,0.0,0.0
4240,65.0,0.0,1920.0,0.0,0.0
4241,70.0,0.0,960.0,0.0,0.0
4242,50.0,160.0,240.0,0.0,0.0
4243,53.0,160.0,150.0,0.0,0.0
4244,51.0,160.0,150.0,0.0,0.0
4245,49.0,240.0,150.0,0.0,0.0
4246,68.0,0.0,960.0,0.0,0.0
4247,37.0,240.0,240.0,0.0,0.0
4248,38.0,160.0,240.0,0.0,0.0
4249,41.0,160.0,150.0,0.0,0.0
4250,39.0,160.0,150.0,0.0,0.0
4251,37.0,0.0,150.0,0.0,0.0
4252,30.0,240.0,240.0,0.0,0.0
4253,58.0,480.0,480.0,0.0,0.0
4254,73.0,0.0,480.0,0.0,0.0
4255,66.0,0.0,15.0,0.0,0.0
4256,63.0,480.0,480.0,0.0,0.0
4257,60.0,0.0,480.0,0.0,0.0
4258,57.0,0.0,480.0,0.0,0.0
4259,75.0,0.0,480.0,0.0,0.0
4260,71.0,0.0,960.0,0.0,0.0
4261,59.0,0.0,480.0,0.0,0.0
4262,77.0,0.0,480.0,0.0,0.0
4263,56.0,0.0,960.0,0.0,0.0
4264,65.0,360.0,480.0,0.0,0.0
4265,63.0,0.0,360.0,0.0,0.0
4266,66.0,60.0,360.0,0.0,0.0
4267,78.0,0.0,360.0,0.0,0.0
4268,61.0,60.0,60.0,0.0,0.0
4269,80.0,0.0,120.0,0.0,0.0
4270,77.0,0.0,120.0,0.0,0.0
4271,68.0,0.0,120.0,0.0,0.0
4272,42.0,0.0,540.0,0.0,0.0
4273,49.0,480.0,30.0,0.0,0.0
4274,82.0,0.0,480.0,0.0,0.0
4275,78.0,0.0,480.0,0.0,0.0
4276,61.0,0.0,480.0,0.0,0.0
4277,70.0,480.0,480.0,0.0,0.0
4278,75.0,0.0,480.0,0.0,0.0
4279,60.0,0.0,480.0,0.0,0.0
4280,63.0,0.0,480.0,0.0,0.0
4281,66.0,420.0,480.0,0.0,0.0
4282,69.0,0.0,480.0,0.0,0.0
4283,49.0,0.0,480.0,0.0,0.0
4284,59.0,0.0,480.0,0.0,0.0
4285,61.0,0.0,480.0,0.0,0.0
4286,65.0,0.0,420.0,0.0,0.0
4287,77.0,60.0,420.0,0.0,0.0
4288,63.0,480.0,540.0,0.0,0.0
4289,68.0,360.0,30.0,0.0,0.0
4290,78.0,120.0,360.0,0.0,0.0
4291,56.0,0.0,15.0,0.0,0.0
4292,51.0,0.0,480.0,0.0,0.0
4293,47.0,0.0,480.0,0.0,0.0
4294,59.0,0.0,480.0,0.0,0.0
4295,80.0,0.0,120.0,0.0,0.0
4296,82.0,0.0,480.0,0.0,0.0
4297,62.0,0.0,480.0,0.0,0.0
4298,46.0,0.0,480.0,0.0,0.0
4299,53.0,0.0,480.0,0.0,0.0
4300,56.0,0.0,15.0,0.0,0.0
4301,77.0,0.0,480.0,0.0,0.0
4302,38.0,0.0,480.0,0.0,0.0
4303,26.0,0.0,480.0,0.0,0.0
4304,70.0,480.0,15.0,0.0,0.0
4305,68.0,0.0,480.0,0.0,0.0
4306,77.0,0.0,480.0,0.0,0.0
4307,80.0,0.0,480.0,0.0,0.0
4308,39.0,0.0,480.0,0.0,0.0
4309,27.0,0.0,480.0,0.0,0.0
4310,78.0,360.0,480.0,0.0,0.0
4311,70.0,0.0,480.0,0.0,0.0
4312,66.0,0.0,480.0,0.0,0.0
4313,75.0,0.0,480.0,0.0,0.0
4314,29.0,0.0,360.0,0.0,0.0
4315,41.0,0.0,360.0,0.0,0.0
4316,77.0,120.0,360.0,0.0,0.0
4317,69.0,0.0,360.0,0.0,0.0
4318,73.0,0.0,360.0,0.0,0.0
4319,30.0,0.0,120.0,0.0,0.0
4320,42.0,480.0,120.0,0.0,0.0
4321,75.0,0.0,120.0,0.0,0.0
4322,63.0,0.0,15.0,0.0,0.0
4323,31.0,0.0,480.0,0.0,0.0
4324,43.0,0.0,480.0,0.0,0.0
4325,61.0,360.0,480.0,0.0,0.0
4326,70.0,0.0,15.0,0.0,0.0
4327,73.0,0.0,480.0,0.0,0.0
4328,32.0,0.0,360.0,0.0,0.0
4329,44.0,0.0,360.0,0.0,0.0
4330,59.0,120.0,360.0,0.0,0.0
4331,63.0,0.0,360.0,0.0,0.0
4332,68.0,0.0,360.0,0.0,0.0
4333,71.0,0.0,360.0,0.0,0.0
4334,66.0,0.0,120.0,0.0,0.0
4335,70.0,480.0,120.0,0.0,0.0
4336,46.0,0.0,120.0,0.0,0.0
4337,34.0,0.0,120.0,0.0,0.0
4338,62.0,0.0,120.0,0.0,0.0
4339,63.0,240.0,480.0,0.0,0.0
4340,68.0,0.0,960.0,0.0,0.0
4341,56.0,0.0,960.0,0.0,0.0
4342,47.0,0.0,480.0,0.0,0.0
4343,66.0,0.0,480.0,0.0,0.0
4344,35.0,0.0,480.0,0.0,0.0
4345,37.0,0.0,480.0,0.0,0.0
4346,49.0,160.0,480.0,0.0,0.0
4347,65.0,0.0,240.0,0.0,0.0
4348,61.0,240.0,240.0,0.0,0.0
4349,59.0,0.0,240.0,0.0,0.0
4350,63.0,0.0,240.0,0.0,0.0
4351,73.0,160.0,960.0,0.0,0.0
4352,66.0,0.0,960.0,0.0,0.0
4353,58.0,0.0,960.0,0.0,0.0
4354,30.0,160.0,150.0,0.0,0.0
4355,48.0,160.0,150.0,0.0,0.0
4356,49.0,160.0,150.0,0.0,0.0
4357,51.0,160.0,150.0,0.0,0.0
4358,49.0,160.0,150.0,0.0,0.0
4359,37.0,0.0,150.0,0.0,0.0
4360,70.0,0.0,480.0,0.0,0.0
4361,61.0,160.0,480.0,0.0,0.0
4362,42.0,160.0,150.0,0.0,0.0
4363,66.0,0.0,480.0,0.0,0.0
4364,48.0,160.0,150.0,0.0,0.0
4365,49.0,0.0,150.0,0.0,0.0
4366,58.0,0.0,240.0,0.0,0.0
4367,61.0,80.0,240.0,0.0,0.0
4368,51.0,80.0,150.0,0.0,0.0
4369,49.0,160.0,150.0,0.0,0.0
4370,63.0,160.0,240.0,0.0,0.0
4371,71.0,0.0,240.0,0.0,0.0
4372,68.0,0.0,240.0,0.0,0.0
4373,37.0,0.0,150.0,0.0,0.0
4374,70.0,80.0,720.0,0.0,0.0
4375,59.0,0.0,960.0,0.0,0.0
4376,44.0,160.0,150.0,0.0,0.0
4377,65.0,160.0,960.0,0.0,0.0
4378,48.0,160.0,150.0,0.0,0.0
4379,49.0,160.0,150.0,0.0,0.0
4380,51.0,80.0,150.0,0.0,0.0
4381,49.0,160.0,150.0,0.0,0.0
4382,68.0,0.0,240.0,0.0,0.0
4383,37.0,0.0,150.0,0.0,0.0
4384,47.0,80.0,150.0,0.0,0.0
4385,63.0,80.0,240.0,0.0,0.0
4386,48.0,160.0,150.0,0.0,0.0
4387,61.0,160.0,240.0,0.0,0.0
4388,49.0,0.0,150.0,0.0,0.0
4389,51.0,80.0,150.0,0.0,0.0
4390,54.0,80.0,240.0,0.0,0.0
4391,49.0,160.0,150.0,0.0,0.0
4392,56.0,0.0,240.0,0.0,0.0
4393,37.0,240.0,150.0,0.0,0.0
4394,66.0,0.0,960.0,0.0,0.0
4395,30.0,120.0,240.0,0.0,0.0
4396,58.0,0.0,480.0,0.0,0.0
4397,73.0,120.0,480.0,0.0,0.0
4398,48.0,120.0,120.0,0.0,0.0
4399,49.0,0.0,120.0,0.0,0.0
4400,51.0,120.0,120.0,0.0,0.0
4401,61.0,0.0,480.0,0.0,0.0
4402,70.0,240.0,480.0,0.0,0.0
4403,49.0,120.0,120.0,0.0,0.0
4404,49.0,120.0,120.0,0.0,0.0
4405,37.0,0.0,120.0,0.0,0.0
4406,71.0,0.0,240.0,0.0,0.0
4407,63.0,120.0,240.0,0.0,0.0
4408,66.0,0.0,960.0,0.0,0.0
4409,42.0,0.0,240.0,0.0,0.0
4410,48.0,120.0,120.0,0.0,0.0
4411,49.0,120.0,120.0,0.0,0.0
4412,51.0,40.0,120.0,0.0,0.0
4413,70.0,0.0,15.0,0.0,0.0
4414,61.0,0.0,15.0,0.0,0.0
4415,49.0,80.0,120.0,0.0,0.0
4416,65.0,40.0,150.0,0.0,0.0
4417,73.0,0.0,150.0,0.0,0.0
4418,49.0,120.0,120.0,0.0,0.0
4419,63.0,0.0,150.0,0.0,0.0
4420,71.0,240.0,150.0,0.0,0.0
4421,37.0,0.0,120.0,0.0,0.0
4422,25.0,120.0,240.0,0.0,0.0
4423,65.0,160.0,960.0,0.0,0.0
4424,70.0,0.0,720.0,0.0,0.0
4425,59.0,0.0,960.0,0.0,0.0
4426,48.0,120.0,120.0,0.0,0.0
4427,49.0,120.0,120.0,0.0,0.0
4428,51.0,120.0,120.0,0.0,0.0
4429,49.0,120.0,120.0,0.0,0.0
4430,68.0,0.0,240.0,0.0,0.0
4431,49.0,120.0,120.0,0.0,0.0
4432,37.0,0.0,120.0,0.0,0.0
4433,47.0,80.0,240.0,0.0,0.0
4434,63.0,80.0,150.0,0.0,0.0
4435,61.0,40.0,150.0,0.0,0.0
4436,48.0,120.0,120.0,0.0,0.0
4437,63.0,0.0,150.0,0.0,0.0
4438,49.0,120.0,120.0,0.0,0.0
4439,61.0,80.0,150.0,0.0,0.0
4440,51.0,40.0,120.0,0.0,0.0
4441,49.0,80.0,120.0,0.0,0.0
4442,54.0,40.0,150.0,0.0,0.0
4443,49.0,60.0,120.0,0.0,0.0
4444,56.0,60.0,90.0,0.0,0.0
4445,37.0,120.0,120.0,0.0,0.0
4446,58.0,0.0,540.0,0.0,0.0
4447,66.0,0.0,990.0,0.0,0.0
4448,42.0,120.0,120.0,0.0,0.0
4449,73.0,120.0,480.0,0.0,0.0
4450,49.0,120.0,120.0,0.0,0.0
4451,51.0,120.0,120.0,0.0,0.0
4452,49.0,0.0,120.0,0.0,0.0
4453,58.0,120.0,120.0,0.0,0.0
4454,75.0,120.0,480.0,0.0,0.0
4455,63.0,0.0,480.0,0.0,0.0
4456,49.0,120.0,120.0,0.0,0.0
4457,51.0,120.0,120.0,0.0,0.0
4458,49.0,0.0,120.0,0.0,0.0
4459,73.0,0.0,960.0,0.0,0.0
4460,71.0,0.0,960.0,0.0,0.0
4461,65.0,0.0,480.0,0.0,0.0
4462,77.0,120.0,480.0,0.0,0.0
4463,37.0,120.0,120.0,0.0,0.0
4464,49.0,120.0,120.0,0.0,0.0
4465,51.0,120.0,120.0,0.0,0.0
4466,49.0,0.0,120.0,0.0,0.0
4467,78.0,0.0,360.0,0.0,0.0
4468,66.0,120.0,360.0,0.0,0.0
4469,59.0,120.0,120.0,0.0,0.0
4470,49.0,120.0,120.0,0.0,0.0
4471,51.0,0.0,120.0,0.0,0.0
4472,68.0,0.0,120.0,0.0,0.0
4473,80.0,0.0,120.0,0.0,0.0
4474,49.0,0.0,120.0,0.0,0.0
4475,42.0,120.0,120.0,0.0,0.0
4476,82.0,0.0,480.0,0.0,0.0
4477,70.0,120.0,960.0,0.0,0.0
4478,73.0,120.0,15.0,0.0,0.0
4479,49.0,120.0,120.0,0.0,0.0
4480,51.0,120.0,120.0,0.0,0.0
4481,49.0,0.0,120.0,0.0,0.0
4482,58.0,120.0,120.0,0.0,0.0
4483,75.0,0.0,480.0,0.0,0.0
4484,63.0,0.0,480.0,0.0,0.0
4485,49.0,120.0,120.0,0.0,0.0
4486,51.0,120.0,120.0,0.0,0.0
4487,49.0,0.0,120.0,0.0,0.0
4488,37.0,120.0,120.0,0.0,0.0
4489,77.0,0.0,480.0,0.0,0.0
4490,65.0,120.0,480.0,0.0,0.0
4491,71.0,0.0,960.0,0.0,0.0
4492,73.0,0.0,960.0,0.0,0.0
4493,49.0,120.0,120.0,0.0,0.0
4494,51.0,120.0,120.0,0.0,0.0
4495,49.0,0.0,120.0,0.0,0.0
4496,59.0,120.0,120.0,0.0,0.0
4497,66.0,0.0,360.0,0.0,0.0
4498,78.0,120.0,360.0,0.0,0.0
4499,49.0,120.0,120.0,0.0,0.0
4500,51.0,0.0,120.0,0.0,0.0
4501,49.0,120.0,120.0,0.0,0.0
4502,68.0,0.0,120.0,0.0,0.0
4503,80.0,0.0,120.0,0.0,0.0
4504,82.0,0.0,480.0,0.0,0.0
4505,77.0,0.0,960.0,0.0,0.0
4506,80.0,0.0,960.0,0.0,0.0
4507,70.0,0.0,480.0,0.0,0.0
4508,38.0,120.0,120.0,0.0,0.0
4509,45.0,120.0,120.0,0.0,0.0
4510,46.0,120.0,120.0,0.0,0.0
4511,53.0,120.0,120.0,0.0,0.0
4512,83.0,0.0,720.0,0.0,0.0
4513,50.0,120.0,120.0,0.0,0.0
4514,71.0,120.0,720.0,0.0,0.0
4515,57.0,120.0,120.0,0.0,0.0
4516,58.0,120.0,120.0,0.0,0.0
4517,65.0,120.0,120.0,0.0,0.0
4518,78.0,0.0,960.0,0.0,0.0
4519,75.0,0.0,960.0,0.0,0.0
4520,39.0,120.0,120.0,0.0,0.0
4521,45.0,0.0,120.0,0.0,0.0
4522,46.0,120.0,120.0,0.0,0.0
4523,82.0,0.0,240.0,0.0,0.0
4524,70.0,0.0,240.0,0.0,0.0
4525,54.0,120.0,120.0,0.0,0.0
4526,69.0,0.0,240.0,0.0,0.0
4527,81.0,0.0,240.0,0.0,0.0
4528,51.0,120.0,120.0,0.0,0.0
4529,57.0,120.0,120.0,0.0,0.0
4530,70.0,0.0,240.0,0.0,0.0
4531,82.0,0.0,240.0,0.0,0.0
4532,58.0,120.0,120.0,0.0,0.0
4533,66.0,120.0,120.0,0.0,0.0
4534,73.0,0.0,480.0,0.0,0.0
4535,85.0,120.0,480.0,0.0,0.0
4536,80.0,0.0,960.0,0.0,0.0
4537,77.0,0.0,960.0,0.0,0.0
4538,83.0,120.0,960.0,0.0,0.0
4539,41.0,120.0,120.0,0.0,0.0
4540,48.0,120.0,120.0,0.0,0.0
4541,49.0,120.0,120.0,0.0,0.0
4542,56.0,0.0,120.0,0.0,0.0
4543,75.0,0.0,720.0,0.0,0.0
4544,87.0,0.0,720.0,0.0,0.0
4545,53.0,120.0,120.0,0.0,0.0
4546,60.0,120.0,120.0,0.0,0.0
4547,61.0,120.0,120.0,0.0,0.0
4548,68.0,0.0,120.0,0.0,0.0
4549,82.0,0.0,480.0,0.0,0.0
4550,43.0,120.0,120.0,0.0,0.0
4551,50.0,120.0,120.0,0.0,0.0
4552,73.0,120.0,240.0,0.0,0.0
4553,85.0,0.0,240.0,0.0,0.0
4554,51.0,120.0,120.0,0.0,0.0
4555,58.0,0.0,120.0,0.0,0.0
4556,83.0,0.0,360.0,0.0,0.0
4557,55.0,120.0,120.0,0.0,0.0
4558,71.0,120.0,360.0,0.0,0.0
4559,62.0,120.0,120.0,0.0,0.0
4560,63.0,0.0,120.0,0.0,0.0
4561,82.0,120.0,120.0,0.0,0.0
4562,70.0,0.0,120.0,0.0,0.0
4563,73.0,0.0,240.0,0.0,0.0
4564,75.0,0.0,15.0,0.0,0.0
4565,32.0,120.0,120.0,0.0,0.0
4566,85.0,0.0,240.0,0.0,0.0
4567,39.0,120.0,120.0,0.0,0.0
4568,44.0,120.0,120.0,0.0,0.0
4569,71.0,0.0,240.0,0.0,0.0
4570,83.0,0.0,240.0,0.0,0.0
4571,51.0,0.0,120.0,0.0,0.0
4572,34.0,120.0,120.0,0.0,0.0
4573,75.0,120.0,15.0,0.0,0.0
4574,82.0,120.0,240.0,0.0,0.0
4575,70.0,0.0,240.0,0.0,0.0
4576,39.0,0.0,120.0,0.0,0.0
4577,79.0,120.0,240.0,0.0,0.0
4578,46.0,120.0,120.0,0.0,0.0
4579,67.0,0.0,240.0,0.0,0.0
4580,51.0,0.0,120.0,0.0,0.0
4581,35.0,120.0,120.0,0.0,0.0
4582,82.0,0.0,240.0,0.0,0.0
4583,75.0,0.0,15.0,0.0,0.0
4584,70.0,120.0,240.0,0.0,0.0
4585,39.0,0.0,120.0,0.0,0.0
4586,80.0,0.0,240.0,0.0,0.0
4587,68.0,0.0,240.0,0.0,0.0
4588,44.0,120.0,120.0,0.0,0.0
4589,51.0,120.0,120.0,0.0,0.0
4590,69.0,120.0,480.0,0.0,0.0
4591,75.0,0.0,240.0,0.0,0.0
4592,63.0,0.0,240.0,0.0,0.0
4593,36.0,120.0,120.0,0.0,0.0
4594,42.0,120.0,120.0,0.0,0.0
4595,78.0,0.0,480.0,0.0,0.0
4596,66.0,0.0,480.0,0.0,0.0
4597,45.0,120.0,120.0,0.0,0.0
4598,51.0,0.0,120.0,0.0,0.0
4599,37.0,120.0,120.0,0.0,0.0
4600,68.0,0.0,480.0,0.0,0.0
4601,71.0,0.0,480.0,0.0,0.0
4602,44.0,120.0,120.0,0.0,0.0
4603,47.0,120.0,120.0,0.0,0.0
4604,65.0,120.0,480.0,0.0,0.0
4605,77.0,0.0,480.0,0.0,0.0
4606,53.0,120.0,120.0,0.0,0.0
4607,71.0,120.0,480.0,0.0,0.0
4608,66.0,0.0,480.0,0.0,0.0
4609,39.0,120.0,120.0,0.0,0.0
4610,42.0,0.0,120.0,0.0,0.0
4611,47.0,120.0,120.0,0.0,0.0
4612,63.0,120.0,480.0,0.0,0.0
4613,75.0,0.0,480.0,0.0,0.0
4614,54.0,0.0,120.0,0.0,0.0
4615,41.0,120.0,120.0,0.0,0.0
4616,68.0,0.0,480.0,0.0,0.0
4617,44.0,0.0,120.0,0.0,0.0
4618,74.0,120.0,480.0,0.0,0.0
4619,47.0,120.0,120.0,0.0,0.0
4620,62.0,0.0,480.0,0.0,0.0
4621,56.0,120.0,120.0,0.0,0.0
4622,71.0,0.0,15.0,0.0,0.0
4623,65.0,0.0,480.0,0.0,0.0
4624,44.0,120.0,120.0,0.0,0.0
4625,47.0,0.0,120.0,0.0,0.0
4626,61.0,0.0,480.0,0.0,0.0
4627,73.0,0.0,480.0,0.0,0.0
4628,53.0,120.0,120.0,0.0,0.0
4629,59.0,240.0,120.0,0.0,0.0
4630,66.0,0.0,240.0,0.0,0.0
4631,54.0,0.0,240.0,0.0,0.0
4632,58.0,0.0,240.0,0.0,0.0
4633,46.0,240.0,240.0,0.0,0.0
4634,74.0,0.0,240.0,0.0,0.0
4635,62.0,0.0,240.0,0.0,0.0
4636,66.0,0.0,240.0,0.0,0.0
4637,58.0,240.0,240.0,0.0,0.0
4638,54.0,0.0,240.0,0.0,0.0
4639,46.0,0.0,240.0,0.0,0.0
4640,75.0,0.0,240.0,0.0,0.0
4641,63.0,0.0,240.0,0.0,0.0
4642,59.0,0.0,240.0,0.0,0.0
4643,47.0,0.0,240.0,0.0,0.0
4644,73.0,240.0,240.0,0.0,0.0
4645,66.0,0.0,15.0,0.0,0.0
4646,61.0,0.0,240.0,0.0,0.0
4647,58.0,0.0,240.0,0.0,0.0
4648,54.0,240.0,15.0,0.0,0.0
4649,49.0,0.0,240.0,0.0,0.0
4650,68.0,0.0,240.0,0.0,0.0
4651,65.0,0.0,240.0,0.0,0.0
4652,59.0,240.0,240.0,0.0,0.0
4653,50.0,0.0,240.0,0.0,0.0
4654,61.0,0.0,240.0,0.0,0.0
4655,70.0,0.0,240.0,0.0,0.0
4656,64.0,0.0,240.0,0.0,0.0
4657,43.0,0.0,240.0,0.0,0.0
4658,55.0,240.0,240.0,0.0,0.0
4659,59.0,0.0,240.0,0.0,0.0
4660,63.0,0.0,240.0,0.0,0.0
4661,71.0,0.0,240.0,0.0,0.0
4662,56.0,240.0,240.0,0.0,0.0
4663,44.0,0.0,240.0,0.0,0.0
4664,65.0,0.0,240.0,0.0,0.0
4665,62.0,0.0,240.0,0.0,0.0
4666,47.0,0.0,240.0,0.0,0.0
4667,59.0,240.0,240.0,0.0,0.0
4668,61.0,240.0,240.0,0.0,0.0
4669,49.0,0.0,240.0,0.0,0.0
4670,66.0,0.0,240.0,0.0,0.0
4671,58.0,0.0,240.0,0.0,0.0
4672,46.0,0.0,240.0,0.0,0.0
4673,54.0,0.0,240.0,0.0,0.0
4674,41.0,0.0,240.0,0.0,0.0
4675,53.0,240.0,240.0,0.0,0.0
4676,68.0,0.0,240.0,0.0,0.0
4677,59.0,0.0,240.0,0.0,0.0
4678,62.0,0.0,240.0,0.0,0.0
4679,42.0,0.0,240.0,0.0,0.0
4680,54.0,180.0,240.0,0.0,0.0
4681,58.0,0.0,240.0,0.0,0.0
4682,61.0,0.0,240.0,0.0,0.0
4683,70.0,0.0,240.0,0.0,0.0
4684,63.0,0.0,180.0,0.0,0.0
4685,48.0,240.0,240.0,0.0,0.0
4686,54.0,60.0,180.0,0.0,0.0
4687,57.0,0.0,180.0,0.0,0.0
4688,51.0,0.0,60.0,0.0,0.0
4689,56.0,0.0,960.0,0.0,0.0
4690,54.0,240.0,480.0,0.0,0.0
4691,59.0,0.0,960.0,0.0,0.0
4692,36.0,0.0,15.0,0.0,0.0
4693,24.0,0.0,240.0,0.0,0.0
4694,66.0,0.0,480.0,0.0,0.0
4695,25.0,240.0,480.0,0.0,0.0
4696,37.0,0.0,720.0,0.0,0.0
4697,51.0,0.0,240.0,0.0,0.0
4698,53.0,160.0,480.0,0.0,0.0
4699,65.0,0.0,480.0,0.0,0.0
4700,49.0,0.0,390.0,0.0,0.0
4701,42.0,0.0,150.0,0.0,0.0
4702,58.0,0.0,150.0,0.0,0.0
4703,66.0,6.0,150.0,0.0,0.0
4704,48.0,160.0,90.0,0.0,0.0
4705,54.0,74.0,15.0,0.0,0.0
4706,57.0,0.0,90.0,0.0,0.0
4707,62.0,0.0,90.0,0.0,0.0
4708,54.0,0.0,90.0,0.0,0.0
4709,48.0,0.0,90.0,0.0,0.0
4710,57.0,0.0,90.0,0.0,0.0
4711,62.0,240.0,90.0,0.0,0.0
4712,48.0,0.0,150.0,0.0,0.0
4713,54.0,80.0,150.0,0.0,0.0
4714,62.0,0.0,150.0,0.0,0.0
4715,57.0,0.0,150.0,0.0,0.0
4716,49.0,0.0,90.0,0.0,0.0
4717,53.0,160.0,90.0,0.0,0.0
4718,61.0,0.0,90.0,0.0,0.0
4719,56.0,0.0,90.0,0.0,0.0
4720,71.0,0.0,90.0,0.0,0.0
4721,65.0,240.0,90.0,0.0,0.0
4722,61.0,0.0,90.0,0.0,0.0
4723,49.0,0.0,90.0,0.0,0.0
4724,56.0,0.0,90.0,0.0,0.0
4725,49.0,0.0,150.0,0.0,0.0
4726,56.0,0.0,150.0,0.0,0.0
4727,65.0,0.0,150.0,0.0,0.0
4728,71.0,80.0,150.0,0.0,0.0
4729,66.0,0.0,90.0,0.0,0.0
4730,54.0,0.0,90.0,0.0,0.0
4731,61.0,0.0,15.0,0.0,0.0
4732,70.0,160.0,90.0,0.0,0.0
4733,74.0,0.0,90.0,0.0,0.0
4734,69.0,0.0,90.0,0.0,0.0
4735,66.0,240.0,90.0,0.0,0.0
4736,60.0,0.0,90.0,0.0,0.0
4737,74.0,0.0,150.0,0.0,0.0
4738,66.0,0.0,150.0,0.0,0.0
4739,60.0,0.0,150.0,0.0,0.0
4740,69.0,80.0,150.0,0.0,0.0
4741,65.0,160.0,90.0,0.0,0.0
4742,61.0,0.0,90.0,0.0,0.0
4743,73.0,0.0,90.0,0.0,0.0
4744,68.0,0.0,90.0,0.0,0.0
4745,77.0,240.0,90.0,0.0,0.0
4746,61.0,0.0,90.0,0.0,0.0
4747,83.0,0.0,90.0,0.0,0.0
4748,73.0,0.0,90.0,0.0,0.0
4749,68.0,0.0,90.0,0.0,0.0
4750,61.0,80.0,150.0,0.0,0.0
4751,68.0,0.0,150.0,0.0,0.0
4752,83.0,0.0,150.0,0.0,0.0
4753,77.0,0.0,150.0,0.0,0.0
4754,78.0,0.0,90.0,0.0,0.0
4755,66.0,0.0,90.0,0.0,0.0
4756,82.0,0.0,90.0,0.0,0.0
4757,73.0,0.0,15.0,0.0,0.0
4758,66.0,240.0,90.0,0.0,0.0
4759,60.0,0.0,90.0,0.0,0.0
4760,69.0,0.0,90.0,0.0,0.0
4761,74.0,0.0,90.0,0.0,0.0
4762,69.0,80.0,150.0,0.0,0.0
4763,74.0,0.0,150.0,0.0,0.0
4764,66.0,0.0,150.0,0.0,0.0
4765,60.0,0.0,150.0,0.0,0.0
4766,65.0,0.0,90.0,0.0,0.0
4767,61.0,0.0,90.0,0.0,0.0
4768,68.0,160.0,90.0,0.0,0.0
4769,73.0,0.0,90.0,0.0,0.0
4770,49.0,0.0,90.0,0.0,0.0
4771,65.0,0.0,90.0,0.0,0.0
4772,61.0,240.0,90.0,0.0,0.0
4773,56.0,0.0,90.0,0.0,0.0
4774,71.0,0.0,90.0,0.0,0.0
4775,65.0,0.0,150.0,0.0,0.0
4776,56.0,0.0,150.0,0.0,0.0
4777,49.0,80.0,150.0,0.0,0.0
4778,71.0,0.0,150.0,0.0,0.0
4779,54.0,0.0,90.0,0.0,0.0
4780,61.0,0.0,15.0,0.0,0.0
4781,66.0,160.0,90.0,0.0,0.0
4782,70.0,0.0,90.0,0.0,0.0
4783,62.0,0.0,90.0,0.0,0.0
4784,57.0,0.0,90.0,0.0,0.0
4785,48.0,0.0,90.0,0.0,0.0
4786,54.0,240.0,90.0,0.0,0.0
4787,54.0,80.0,150.0,0.0,0.0
4788,62.0,0.0,150.0,0.0,0.0
4789,57.0,0.0,150.0,0.0,0.0
4790,48.0,0.0,150.0,0.0,0.0
4791,61.0,0.0,90.0,0.0,0.0
4792,56.0,0.0,90.0,0.0,0.0
4793,53.0,160.0,90.0,0.0,0.0
4794,49.0,0.0,90.0,0.0,0.0
4795,53.0,0.0,90.0,0.0,0.0
4796,37.0,0.0,90.0,0.0,0.0
4797,59.0,0.0,90.0,0.0,0.0
4798,44.0,240.0,90.0,0.0,0.0
4799,49.0,0.0,90.0,0.0,0.0
4800,44.0,0.0,150.0,0.0,0.0
4801,59.0,0.0,150.0,0.0,0.0
4802,53.0,0.0,150.0,0.0,0.0
4803,37.0,80.0,150.0,0.0,0.0
4804,49.0,0.0,15.0,0.0,0.0
4805,54.0,160.0,90.0,0.0,0.0
4806,58.0,0.0,90.0,0.0,0.0
4807,42.0,0.0,90.0,0.0,0.0
4808,44.0,0.0,90.0,0.0,0.0
4809,48.0,0.0,90.0,0.0,0.0
4810,54.0,0.0,90.0,0.0,0.0
4811,56.0,240.0,90.0,0.0,0.0
4812,63.0,0.0,90.0,0.0,0.0
4813,48.0,80.0,150.0,0.0,0.0
4814,54.0,0.0,150.0,0.0,0.0
4815,44.0,0.0,150.0,0.0,0.0
4816,63.0,0.0,150.0,0.0,0.0
4817,56.0,0.0,150.0,0.0,0.0
4818,53.0,160.0,90.0,0.0,0.0
4819,61.0,0.0,90.0,0.0,0.0
4820,49.0,0.0,90.0,0.0,0.0
4821,56.0,0.0,90.0,0.0,0.0
4822,49.0,0.0,90.0,0.0,0.0
4823,65.0,240.0,90.0,0.0,0.0
4824,71.0,0.0,90.0,0.0,0.0
4825,61.0,0.0,90.0,0.0,0.0
4826,65.0,0.0,150.0,0.0,0.0
4827,71.0,0.0,150.0,0.0,0.0
4828,61.0,0.0,150.0,0.0,0.0
4829,49.0,80.0,150.0,0.0,0.0
4830,56.0,0.0,150.0,0.0,0.0
4831,70.0,0.0,90.0,0.0,0.0
4832,66.0,160.0,90.0,0.0,0.0
4833,54.0,0.0,90.0,0.0,0.0
4834,61.0,0.0,90.0,0.0,0.0
4835,56.0,0.0,90.0,0.0,0.0
4836,66.0,240.0,90.0,0.0,0.0
4837,60.0,0.0,90.0,0.0,0.0
4838,75.0,0.0,90.0,0.0,0.0
4839,68.0,0.0,90.0,0.0,0.0
4840,68.0,80.0,150.0,0.0,0.0
4841,75.0,0.0,150.0,0.0,0.0
4842,60.0,0.0,150.0,0.0,0.0
4843,56.0,0.0,150.0,0.0,0.0
4844,66.0,0.0,150.0,0.0,0.0
4845,61.0,0.0,90.0,0.0,0.0
4846,65.0,0.0,90.0,0.0,0.0
4847,73.0,160.0,90.0,0.0,0.0
4848,61.0,240.0,90.0,0.0,0.0
4849,83.0,0.0,90.0,0.0,0.0
4850,68.0,0.0,90.0,0.0,0.0
4851,73.0,0.0,90.0,0.0,0.0
4852,77.0,0.0,90.0,0.0,0.0
4853,83.0,0.0,150.0,0.0,0.0
4854,77.0,0.0,150.0,0.0,0.0
4855,61.0,0.0,150.0,0.0,0.0
4856,68.0,80.0,150.0,0.0,0.0
4857,66.0,160.0,90.0,0.0,0.0
4858,73.0,0.0,15.0,0.0,0.0
4859,78.0,0.0,90.0,0.0,0.0
4860,82.0,0.0,90.0,0.0,0.0
4861,60.0,0.0,90.0,0.0,0.0
4862,66.0,0.0,90.0,0.0,0.0
4863,56.0,240.0,90.0,0.0,0.0
4864,68.0,0.0,90.0,0.0,0.0
4865,75.0,0.0,90.0,0.0,0.0
4866,60.0,0.0,150.0,0.0,0.0
4867,75.0,0.0,150.0,0.0,0.0
4868,68.0,80.0,150.0,0.0,0.0
4869,66.0,0.0,150.0,0.0,0.0
4870,56.0,0.0,150.0,0.0,0.0
4871,61.0,0.0,90.0,0.0,0.0
4872,65.0,0.0,90.0,0.0,0.0
4873,73.0,160.0,90.0,0.0,0.0
4874,71.0,0.0,90.0,0.0,0.0
4875,56.0,240.0,90.0,0.0,0.0
4876,49.0,0.0,90.0,0.0,0.0
4877,65.0,0.0,90.0,0.0,0.0
4878,61.0,0.0,90.0,0.0,0.0
4879,71.0,0.0,150.0,0.0,0.0
4880,65.0,0.0,150.0,0.0,0.0
4881,56.0,0.0,150.0,0.0,0.0
4882,49.0,0.0,150.0,0.0,0.0
4883,70.0,160.0,90.0,0.0,0.0
4884,66.0,0.0,90.0,0.0,0.0
4885,61.0,80.0,15.0,0.0,0.0
4886,54.0,0.0,90.0,0.0,0.0
4887,56.0,0.0,90.0,0.0,0.0
4888,44.0,0.0,90.0,0.0,0.0
4889,48.0,0.0,90.0,0.0,0.0
4890,54.0,0.0,90.0,0.0,0.0
4891,63.0,240.0,90.0,0.0,0.0
4892,54.0,0.0,150.0,0.0,0.0
4893,44.0,0.0,150.0,0.0,0.0
4894,56.0,0.0,150.0,0.0,0.0
4895,63.0,80.0,150.0,0.0,0.0
4896,48.0,0.0,150.0,0.0,0.0
4897,49.0,160.0,90.0,0.0,0.0
4898,53.0,0.0,90.0,0.0,0.0
4899,61.0,0.0,90.0,0.0,0.0
4900,53.0,0.0,90.0,0.0,0.0
4901,59.0,0.0,90.0,0.0,0.0
4902,56.0,240.0,90.0,0.0,0.0
4903,49.0,0.0,90.0,0.0,0.0
4904,37.0,0.0,90.0,0.0,0.0
4905,37.0,0.0,150.0,0.0,0.0
4906,49.0,0.0,150.0,0.0,0.0
4907,56.0,80.0,150.0,0.0,0.0
4908,53.0,0.0,150.0,0.0,0.0
4909,59.0,0.0,150.0,0.0,0.0
4910,60.0,0.0,90.0,0.0,0.0
4911,48.0,0.0,90.0,0.0,0.0
4912,36.0,0.0,90.0,0.0,0.0
4913,57.0,160.0,90.0,0.0,0.0
4914,53.0,0.0,90.0,0.0,0.0
4915,53.0,0.0,90.0,0.0,0.0
4916,59.0,0.0,90.0,0.0,0.0
4917,55.0,0.0,90.0,0.0,0.0
4918,50.0,0.0,90.0,0.0,0.0
4919,65.0,240.0,90.0,0.0,0.0
4920,48.0,0.0,90.0,0.0,0.0
4921,50.0,80.0,150.0,0.0,0.0
4922,59.0,0.0,150.0,0.0,0.0
4923,65.0,0.0,150.0,0.0,0.0
4924,53.0,0.0,150.0,0.0,0.0
4925,48.0,0.0,15.0,0.0,0.0
4926,55.0,0.0,15.0,0.0,0.0
4927,64.0,160.0,90.0,0.0,0.0
4928,52.0,0.0,90.0,0.0,0.0
4929,60.0,0.0,90.0,0.0,0.0
4930,48.0,0.0,90.0,0.0,0.0
4931,58.0,0.0,90.0,0.0,0.0
4932,60.0,0.0,90.0,0.0,0.0
4933,64.0,0.0,90.0,0.0,0.0
4934,70.0,0.0,90.0,0.0,0.0
4935,55.0,240.0,90.0,0.0,0.0
4936,55.0,0.0,150.0,0.0,0.0
4937,64.0,0.0,150.0,0.0,0.0
4938,58.0,0.0,150.0,0.0,0.0
4939,70.0,80.0,150.0,0.0,0.0
4940,48.0,0.0,15.0,0.0,0.0
4941,53.0,0.0,90.0,0.0,0.0
4942,60.0,0.0,15.0,0.0,0.0
4943,69.0,0.0,90.0,0.0,0.0
4944,65.0,0.0,90.0,0.0,0.0
4945,57.0,160.0,90.0,0.0,0.0
4946,65.0,0.0,90.0,0.0,0.0
4947,67.0,0.0,90.0,0.0,0.0
4948,71.0,0.0,90.0,0.0,0.0
4949,77.0,240.0,90.0,0.0,0.0
4950,48.0,0.0,90.0,0.0,0.0
4951,55.0,0.0,90.0,0.0,0.0
4952,62.0,0.0,90.0,0.0,0.0
4953,65.0,0.0,150.0,0.0,0.0
4954,67.0,0.0,150.0,0.0,0.0
4955,71.0,0.0,150.0,0.0,0.0
4956,77.0,80.0,150.0,0.0,0.0
4957,62.0,0.0,150.0,0.0,0.0
4958,60.0,0.0,90.0,0.0,0.0
4959,55.0,0.0,15.0,0.0,0.0
4960,48.0,0.0,15.0,0.0,0.0
4961,76.0,0.0,90.0,0.0,0.0
4962,72.0,0.0,90.0,0.0,0.0
4963,64.0,160.0,90.0,0.0,0.0
4964,48.0,0.0,90.0,0.0,0.0
4965,60.0,0.0,90.0,0.0,0.0
4966,55.0,0.0,90.0,0.0,0.0
4967,58.0,240.0,90.0,0.0,0.0
4968,70.0,0.0,90.0,0.0,0.0
4969,72.0,0.0,90.0,0.0,0.0
4970,76.0,0.0,90.0,0.0,0.0
4971,82.0,0.0,90.0,0.0,0.0
4972,60.0,160.0,150.0,0.0,0.0
4973,48.0,0.0,150.0,0.0,0.0
4974,58.0,0.0,150.0,0.0,0.0
4975,72.0,0.0,150.0,0.0,0.0
4976,76.0,0.0,150.0,0.0,0.0
4977,70.0,0.0,150.0,0.0,0.0
4978,82.0,0.0,150.0,0.0,0.0
4979,61.0,0.0,150.0,0.0,0.0
4980,55.0,0.0,15.0,0.0,0.0
4981,67.0,0.0,150.0,0.0,0.0
4982,63.0,0.0,150.0,0.0,0.0
4983,46.0,160.0,150.0,0.0,0.0
4984,64.0,0.0,150.0,0.0,0.0
4985,73.0,0.0,150.0,0.0,0.0
4986,70.0,0.0,150.0,0.0,0.0
4987,66.0,0.0,150.0,0.0,0.0
4988,58.0,0.0,150.0,0.0,0.0
4989,49.0,160.0,150.0,0.0,0.0
4990,67.0,0.0,150.0,0.0,0.0
4991,76.0,0.0,150.0,0.0,0.0
4992,43.0,160.0,150.0,0.0,0.0
4993,73.0,160.0,150.0,0.0,0.0
4994,69.0,0.0,150.0,0.0,0.0
4995,55.0,0.0,150.0,0.0,0.0
4996,49.0,0.0,150.0,0.0,0.0
4997,70.0,0.0,150.0,0.0,0.0
4998,40.0,0.0,150.0,0.0,0.0
4999,79.0,160.0,150.0,0.0,0.0
5000,43.0,0.0,150.0,0.0,0.0
5001,72.0,160.0,150.0,0.0,0.0
5002,76.0,0.0,150.0,0.0,0.0
5003,52.0,0.0,150.0,0.0,0.0
5004,73.0,160.0,150.0,0.0,0.0
5005,82.0,0.0,150.0,0.0,0.0
5006,37.0,0.0,150.0,0.0,0.0
5007,75.0,160.0,150.0,0.0,0.0
5008,79.0,0.0,150.0,0.0,0.0
5009,49.0,0.0,150.0,0.0,0.0
5010,43.0,0.0,150.0,0.0,0.0
5011,76.0,160.0,150.0,0.0,0.0
5012,85.0,0.0,150.0,0.0,0.0
5013,34.0,0.0,150.0,0.0,0.0
5014,22.0,0.0,150.0,0.0,0.0
5015,76.0,0.0,150.0,0.0,0.0
5016,88.0,160.0,150.0,0.0,0.0
5017,34.0,0.0,150.0,0.0,0.0
5018,21.0,0.0,150.0,0.0,0.0
5019,33.0,0.0,150.0,0.0,0.0
5020,89.0,160.0,150.0,0.0,0.0
5021,77.0,0.0,150.0,0.0,0.0
5022,84.0,0.0,150.0,0.0,0.0
5023,53.0,0.0,150.0,0.0,0.0
5024,33.0,0.0,150.0,0.0,0.0
5025,65.0,0.0,15.0,0.0,0.0
5026,60.0,0.0,15.0,0.0,0.0
5027,45.0,160.0,15.0,0.0,0.0
5028,53.0,0.0,150.0,0.0,0.0
5029,33.0,0.0,150.0,0.0,0.0
5030,65.0,0.0,15.0,0.0,0.0
5031,60.0,160.0,15.0,0.0,0.0
5032,45.0,0.0,15.0,0.0,0.0
5033,65.0,0.0,15.0,0.0,0.0
5034,53.0,0.0,15.0,0.0,0.0
5035,45.0,160.0,15.0,0.0,0.0
5036,33.0,0.0,15.0,0.0,0.0
5037,45.0,0.0,15.0,0.0,0.0
5038,33.0,0.0,15.0,0.0,0.0
5039,53.0,160.0,150.0,0.0,0.0
5040,60.0,160.0,15.0,0.0,0.0
5041,65.0,0.0,150.0,0.0,0.0
5042,33.0,0.0,150.0,0.0,0.0
5043,45.0,0.0,150.0,0.0,0.0
5044,53.0,0.0,150.0,0.0,0.0
5045,65.0,0.0,150.0,0.0,0.0
5046,61.0,160.0,15.0,0.0,0.0
5047,32.0,0.0,150.0,0.0,0.0
5048,44.0,0.0,150.0,0.0,0.0
5049,44.0,0.0,150.0,0.0,0.0
5050,65.0,160.0,15.0,0.0,0.0
5051,61.0,0.0,15.0,0.0,0.0
5052,53.0,0.0,15.0,0.0,0.0
5053,32.0,160.0,15.0,0.0,0.0
5054,44.0,0.0,150.0,0.0,0.0
5055,53.0,0.0,150.0,0.0,0.0
5056,61.0,0.0,15.0,0.0,0.0
5057,65.0,0.0,15.0,0.0,0.0
5058,45.0,0.0,150.0,0.0,0.0
5059,61.0,0.0,15.0,0.0,0.0
5060,53.0,0.0,15.0,0.0,0.0
5061,33.0,160.0,15.0,0.0,0.0
5062,45.0,0.0,150.0,0.0,0.0
5063,65.0,0.0,15.0,0.0,0.0
5064,61.0,0.0,15.0,0.0,0.0
5065,53.0,80.0,15.0,0.0,0.0
5066,33.0,0.0,90.0,0.0,0.0
5067,45.0,160.0,90.0,0.0,0.0
5068,33.0,0.0,90.0,0.0,0.0
5069,45.0,0.0,90.0,0.0,0.0
5070,61.0,0.0,90.0,0.0,0.0
5071,66.0,160.0,90.0,0.0,0.0
5072,54.0,0.0,90.0,0.0,0.0
5073,61.0,0.0,90.0,0.0,0.0
5074,54.0,0.0,90.0,0.0,0.0
5075,33.0,160.0,90.0,0.0,0.0
5076,45.0,0.0,90.0,0.0,0.0
5077,66.0,0.0,90.0,0.0,0.0
5078,61.0,0.0,90.0,0.0,0.0
5079,54.0,0.0,90.0,0.0,0.0
5080,66.0,0.0,90.0,0.0,0.0
5081,33.0,0.0,90.0,0.0,0.0
5082,45.0,160.0,90.0,0.0,0.0
5083,45.0,0.0,90.0,0.0,0.0
5084,33.0,160.0,90.0,0.0,0.0
5085,54.0,0.0,90.0,0.0,0.0
5086,66.0,0.0,90.0,0.0,0.0
5087,62.0,0.0,90.0,0.0,0.0
5088,45.0,0.0,90.0,0.0,0.0
5089,54.0,160.0,90.0,0.0,0.0
5090,62.0,0.0,90.0,0.0,0.0
5091,66.0,0.0,90.0,0.0,0.0
5092,33.0,0.0,90.0,0.0,0.0
5093,54.0,160.0,90.0,0.0,0.0
5094,45.0,0.0,90.0,0.0,0.0
5095,66.0,0.0,90.0,0.0,0.0
5096,33.0,0.0,90.0,0.0,0.0
5097,62.0,0.0,90.0,0.0,0.0
5098,54.0,0.0,90.0,0.0,0.0
5099,66.0,0.0,90.0,0.0,0.0
5100,62.0,0.0,90.0,0.0,0.0
5101,44.0,160.0,90.0,0.0,0.0
5102,32.0,0.0,90.0,0.0,0.0
5103,44.0,0.0,90.0,0.0,0.0
5104,32.0,160.0,90.0,0.0,0.0
5105,54.0,0.0,90.0,0.0,0.0
5106,62.0,0.0,90.0,0.0,0.0
5107,66.0,0.0,90.0,0.0,0.0
5108,66.0,0.0,90.0,0.0,0.0
5109,32.0,0.0,90.0,0.0,0.0
5110,44.0,160.0,90.0,0.0,0.0
5111,54.0,0.0,90.0,0.0,0.0
5112,62.0,0.0,90.0,0.0,0.0
5113,45.0,0.0,90.0,0.0,0.0
5114,33.0,0.0,90.0,0.0,0.0
5115,54.0,0.0,90.0,0.0,0.0
5116,61.0,0.0,90.0,0.0,0.0
5117,66.0,160.0,90.0,0.0,0.0
5118,54.0,160.0,90.0,0.0,0.0
5119,60.0,0.0,90.0,0.0,0.0
5120,45.0,0.0,90.0,0.0,0.0
5121,33.0,0.0,90.0,0.0,0.0
5122,66.0,0.0,90.0,0.0,0.0
5123,34.0,240.0,90.0,0.0,0.0
5124,46.0,0.0,90.0,0.0,0.0
5125,66.0,0.0,90.0,0.0,0.0
5126,61.0,0.0,90.0,0.0,0.0
5127,54.0,0.0,90.0,0.0,0.0
5128,49.0,0.0,150.0,0.0,0.0
5129,54.0,0.0,150.0,0.0,0.0
5130,42.0,0.0,150.0,0.0,0.0
5131,70.0,160.0,150.0,0.0,0.0
5132,42.0,0.0,150.0,0.0,0.0
5133,54.0,0.0,150.0,0.0,0.0
5134,61.0,0.0,15.0,0.0,0.0
5135,58.0,0.0,15.0,0.0,0.0
5136,70.0,0.0,150.0,0.0,0.0
5137,49.0,0.0,15.0,0.0,0.0
5138,54.0,0.0,150.0,0.0,0.0
5139,42.0,0.0,150.0,0.0,0.0
5140,70.0,160.0,150.0,0.0,0.0
5141,61.0,160.0,15.0,0.0,0.0
5142,58.0,0.0,150.0,0.0,0.0
5143,68.0,160.0,150.0,0.0,0.0
5144,56.0,0.0,150.0,0.0,0.0
5145,66.0,0.0,150.0,0.0,0.0
5146,54.0,160.0,150.0,0.0,0.0
5147,23.0,160.0,150.0,0.0,0.0
5148,35.0,0.0,150.0,0.0,0.0
5149,70.0,160.0,150.0,0.0,0.0
5150,54.0,0.0,15.0,0.0,0.0
5151,42.0,0.0,15.0,0.0,0.0
5152,47.0,0.0,15.0,0.0,0.0
5153,62.0,0.0,15.0,0.0,0.0
5154,58.0,0.0,15.0,0.0,0.0
5155,70.0,0.0,150.0,0.0,0.0
5156,58.0,0.0,15.0,0.0,0.0
5157,70.0,160.0,150.0,0.0,0.0
5158,62.0,0.0,150.0,0.0,0.0
5159,54.0,0.0,150.0,0.0,0.0
5160,42.0,0.0,150.0,0.0,0.0
5161,47.0,0.0,150.0,0.0,0.0
5162,56.0,160.0,150.0,0.0,0.0
5163,68.0,0.0,150.0,0.0,0.0
5164,54.0,0.0,150.0,0.0,0.0
5165,66.0,160.0,150.0,0.0,0.0
5166,25.0,160.0,150.0,0.0,0.0
5167,37.0,0.0,150.0,0.0,0.0
5168,54.0,0.0,150.0,0.0,0.0
5169,49.0,0.0,150.0,0.0,0.0
5170,61.0,0.0,150.0,0.0,0.0
5171,58.0,0.0,150.0,0.0,0.0
5172,42.0,160.0,150.0,0.0,0.0
5173,70.0,0.0,15.0,0.0,0.0
5174,54.0,160.0,15.0,0.0,0.0
5175,70.0,0.0,15.0,0.0,0.0
5176,61.0,0.0,15.0,0.0,0.0
5177,58.0,0.0,15.0,0.0,0.0
5178,49.0,0.0,15.0,0.0,0.0
5179,42.0,0.0,15.0,0.0,0.0
5180,56.0,160.0,150.0,0.0,0.0
5181,68.0,0.0,150.0,0.0,0.0
5182,54.0,160.0,150.0,0.0,0.0
5183,66.0,0.0,150.0,0.0,0.0
5184,38.0,0.0,150.0,0.0,0.0
5185,26.0,160.0,150.0,0.0,0.0
5186,70.0,0.0,150.0,0.0,0.0
5187,47.0,0.0,150.0,0.0,0.0
5188,42.0,0.0,150.0,0.0,0.0
5189,54.0,0.0,150.0,0.0,0.0
5190,47.0,0.0,150.0,0.0,0.0
5191,42.0,0.0,150.0,0.0,0.0
5192,54.0,0.0,150.0,0.0,0.0
5193,59.0,160.0,15.0,0.0,0.0
5194,54.0,0.0,150.0,0.0,0.0
5195,42.0,0.0,150.0,0.0,0.0
5196,47.0,160.0,150.0,0.0,0.0
5197,70.0,0.0,15.0,0.0,0.0
5198,59.0,60.0,480.0,0.0,0.0
5199,68.0,160.0,150.0,0.0,0.0
5200,27.0,0.0,120.0,0.0,0.0
5201,39.0,0.0,120.0,0.0,0.0
5202,40.0,120.0,60.0,0.0,0.0
5203,28.0,0.0,60.0,0.0,0.0
5204,61.0,0.0,960.0,0.0,0.0
5205,70.0,120.0,960.0,0.0,0.0
5206,66.0,0.0,15.0,0.0,0.0
5207,25.0,240.0,60.0,0.0,0.0
5208,37.0,0.0,60.0,0.0,0.0
5209,27.0,0.0,60.0,0.0,0.0
5210,39.0,120.0,60.0,0.0,0.0
5211,28.0,120.0,60.0,0.0,0.0
5212,40.0,0.0,60.0,0.0,0.0
5213,25.0,300.0,60.0,0.0,0.0
5214,37.0,0.0,60.0,0.0,0.0
5215,58.0,0.0,15.0,0.0,0.0
5216,40.0,0.0,120.0,0.0,0.0
5217,61.0,0.0,480.0,0.0,0.0
5218,28.0,60.0,120.0,0.0,0.0
5219,66.0,0.0,480.0,0.0,0.0
5220,37.0,300.0,60.0,0.0,0.0
5221,25.0,0.0,60.0,0.0,0.0
5222,39.0,0.0,120.0,0.0,0.0
5223,27.0,0.0,120.0,0.0,0.0
5224,40.0,0.0,120.0,0.0,0.0
5225,70.0,120.0,15.0,0.0,0.0
5226,67.0,0.0,480.0,0.0,0.0
5227,58.0,0.0,15.0,0.0,0.0
5228,28.0,60.0,120.0,0.0,0.0
5229,25.0,0.0,60.0,0.0,0.0
5230,37.0,300.0,60.0,0.0,0.0
5231,70.0,120.0,15.0,0.0,0.0
5232,66.0,120.0,480.0,0.0,0.0
5233,40.0,0.0,120.0,0.0,0.0
5234,61.0,0.0,15.0,0.0,0.0
5235,58.0,0.0,15.0,0.0,0.0
5236,28.0,60.0,120.0,0.0,0.0
5237,37.0,0.0,60.0,0.0,0.0
5238,25.0,300.0,60.0,0.0,0.0
5239,39.0,0.0,120.0,0.0,0.0
5240,27.0,0.0,120.0,0.0,0.0
5241,40.0,0.0,120.0,0.0,0.0
5242,28.0,60.0,120.0,0.0,0.0
5243,58.0,0.0,480.0,0.0,0.0
5244,61.0,0.0,480.0,0.0,0.0
5245,70.0,0.0,480.0,0.0,0.0
5246,37.0,300.0,60.0,0.0,0.0
5247,25.0,0.0,60.0,0.0,0.0
5248,29.0,60.0,120.0,0.0,0.0
5249,41.0,0.0,120.0,0.0,0.0
5250,67.0,120.0,15.0,0.0,0.0
5251,26.0,300.0,60.0,0.0,0.0
5252,38.0,0.0,60.0,0.0,0.0
5253,39.0,0.0,120.0,0.0,0.0
5254,27.0,0.0,120.0,0.0,0.0
5255,59.0,0.0,15.0,0.0,0.0
5256,62.0,0.0,15.0,0.0,0.0
5257,71.0,0.0,15.0,0.0,0.0
5258,29.0,0.0,120.0,0.0,0.0
5259,41.0,60.0,120.0,0.0,0.0
5260,38.0,300.0,60.0,0.0,0.0
5261,50.0,0.0,60.0,0.0,0.0
5262,72.0,120.0,480.0,0.0,0.0
5263,68.0,0.0,15.0,0.0,0.0
5264,63.0,0.0,480.0,0.0,0.0
5265,60.0,0.0,480.0,0.0,0.0
5266,42.0,60.0,120.0,0.0,0.0
5267,30.0,0.0,120.0,0.0,0.0
5268,39.0,0.0,60.0,0.0,0.0
5269,27.0,300.0,60.0,0.0,0.0
5270,29.0,0.0,120.0,0.0,0.0
5271,41.0,0.0,120.0,0.0,0.0
5272,30.0,0.0,120.0,0.0,0.0
5273,60.0,0.0,480.0,0.0,0.0
5274,63.0,0.0,480.0,0.0,0.0
5275,69.0,0.0,480.0,0.0,0.0
5276,72.0,120.0,480.0,0.0,0.0
5277,42.0,60.0,120.0,0.0,0.0
5278,51.0,300.0,60.0,0.0,0.0
5279,39.0,0.0,60.0,0.0,0.0
5280,64.0,0.0,480.0,0.0,0.0
5281,61.0,0.0,480.0,0.0,0.0
5282,31.0,0.0,120.0,0.0,0.0
5283,69.0,0.0,480.0,0.0,0.0
5284,55.0,300.0,60.0,0.0,0.0
5285,43.0,60.0,15.0,0.0,0.0
5286,32.0,160.0,150.0,0.0,0.0
5287,44.0,0.0,150.0,0.0,0.0
5288,61.0,480.0,480.0,0.0,0.0
5289,65.0,0.0,480.0,0.0,0.0
5290,71.0,0.0,480.0,0.0,0.0
5291,73.0,160.0,15.0,0.0,0.0
5292,44.0,160.0,150.0,0.0,0.0
5293,56.0,0.0,150.0,0.0,0.0
5294,57.0,0.0,150.0,0.0,0.0
5295,45.0,0.0,150.0,0.0,0.0
5296,46.0,0.0,480.0,0.0,0.0
5297,54.0,0.0,480.0,0.0,0.0
5298,58.0,0.0,480.0,0.0,0.0
5299,66.0,0.0,480.0,0.0,0.0
5300,73.0,480.0,480.0,0.0,0.0
5301,61.0,0.0,480.0,0.0,0.0
5302,47.0,480.0,480.0,0.0,0.0
5303,59.0,0.0,480.0,0.0,0.0
5304,62.0,0.0,480.0,0.0,0.0
5305,74.0,0.0,480.0,0.0,0.0
5306,54.0,0.0,480.0,0.0,0.0
5307,71.0,0.0,480.0,0.0,0.0
5308,68.0,0.0,480.0,0.0,0.0
5309,66.0,0.0,15.0,0.0,0.0
5310,50.0,0.0,480.0,0.0,0.0
5311,54.0,0.0,480.0,0.0,0.0
5312,78.0,0.0,480.0,0.0,0.0
5313,59.0,0.0,480.0,0.0,0.0
5314,62.0,0.0,480.0,0.0,0.0
5315,49.0,0.0,480.0,0.0,0.0
5316,56.0,0.0,15.0,0.0,0.0
5317,59.0,480.0,480.0,0.0,0.0
5318,61.0,0.0,480.0,0.0,0.0
5319,65.0,0.0,480.0,0.0,0.0
5320,68.0,0.0,480.0,0.0,0.0
5321,71.0,0.0,480.0,0.0,0.0
5322,77.0,0.0,480.0,0.0,0.0
5323,42.0,480.0,480.0,0.0,0.0
5324,54.0,0.0,480.0,0.0,0.0
5325,70.0,0.0,480.0,0.0,0.0
5326,66.0,0.0,15.0,0.0,0.0
5327,71.0,480.0,480.0,0.0,0.0
5328,78.0,0.0,15.0,0.0,0.0
5329,74.0,0.0,480.0,0.0,0.0
5330,47.0,0.0,480.0,0.0,0.0
5331,35.0,0.0,480.0,0.0,0.0
5332,30.0,0.0,480.0,0.0,0.0
5333,42.0,0.0,480.0,0.0,0.0
5334,70.0,0.0,480.0,0.0,0.0
5335,73.0,480.0,480.0,0.0,0.0
5336,78.0,0.0,15.0,0.0,0.0
5337,35.0,0.0,480.0,0.0,0.0
5338,23.0,960.0,480.0,0.0,0.0
5339,66.0,0.0,15.0,0.0,0.0
5340,71.0,0.0,480.0,0.0,0.0
5341,74.0,0.0,480.0,0.0,0.0
5342,73.0,0.0,960.0,0.0,0.0
5343,78.0,0.0,15.0,0.0,0.0
5344,66.0,0.0,15.0,0.0,0.0
5345,70.0,0.0,960.0,0.0,0.0
5346,30.0,0.0,960.0,0.0,0.0
5347,42.0,0.0,960.0,0.0,0.0
5348,70.0,0.0,960.0,0.0,0.0
5349,66.0,0.0,960.0,0.0,0.0
5350,61.0,0.0,960.0,0.0,0.0
5351,78.0,0.0,960.0,0.0,0.0
5352,90.0,960.0,960.0,0.0,0.0
5353,58.0,0.0,15.0,0.0,0.0
5354,54.0,0.0,960.0,0.0,0.0
5355,49.0,0.0,960.0,0.0,0.0
5356,46.0,0.0,960.0,0.0,0.0
5357,37.0,0.0,960.0,0.0,0.0
5358,30.0,0.0,960.0,0.0,0.0
5359,42.0,0.0,960.0,0.0,0.0
