,note,step,duration,channel,velocity
0,62.0,12.0,40.0,0.0,0.0
1,43.0,24.0,20.0,0.0,0.0
2,71.0,12.0,15.0,0.0,0.0
3,50.0,8.0,40.0,0.0,0.0
4,70.0,16.0,15.0,0.0,0.0
5,62.0,0.0,15.0,0.0,0.0
6,71.0,12.0,20.0,0.0,0.0
7,43.0,24.0,20.0,0.0,0.0
8,70.0,12.0,15.0,0.0,0.0
9,49.0,0.0,40.0,0.0,0.0
10,69.0,16.0,15.0,0.0,0.0
11,61.0,6.0,15.0,0.0,0.0
12,70.0,26.0,20.0,0.0,0.0
13,43.0,40.0,20.0,0.0,0.0
14,69.0,2.0,90.0,0.0,0.0
15,48.0,0.0,40.0,0.0,0.0
16,60.0,30.0,15.0,0.0,0.0
17,43.0,24.0,20.0,0.0,0.0
18,71.0,16.0,20.0,0.0,0.0
19,51.0,8.0,40.0,0.0,0.0
20,72.0,24.0,20.0,0.0,0.0
21,63.0,0.0,15.0,0.0,0.0
22,43.0,0.0,20.0,0.0,0.0
23,74.0,36.0,20.0,0.0,0.0
24,76.0,4.0,40.0,0.0,0.0
25,53.0,8.0,40.0,0.0,0.0
26,65.0,0.0,15.0,0.0,0.0
27,74.0,12.0,15.0,0.0,0.0
28,43.0,36.0,20.0,0.0,0.0
29,73.0,12.0,15.0,0.0,0.0
30,74.0,4.0,40.0,0.0,0.0
31,52.0,8.0,40.0,0.0,0.0
32,64.0,0.0,15.0,0.0,0.0
33,73.0,24.0,15.0,0.0,0.0
34,72.0,18.0,120.0,0.0,0.0
35,43.0,40.0,20.0,0.0,0.0
36,51.0,0.0,40.0,0.0,0.0
37,63.0,32.0,15.0,0.0,0.0
38,43.0,22.0,20.0,0.0,0.0
39,50.0,6.0,40.0,0.0,0.0
40,71.0,26.0,20.0,0.0,0.0
41,62.0,0.0,15.0,0.0,0.0
42,69.0,14.0,30.0,0.0,0.0
43,43.0,10.0,20.0,0.0,0.0
44,48.0,8.0,40.0,0.0,0.0
45,67.0,16.0,15.0,0.0,0.0
46,60.0,0.0,15.0,0.0,0.0
47,69.0,22.0,20.0,0.0,0.0
48,43.0,24.0,20.0,0.0,0.0
49,71.0,2.0,20.0,0.0,0.0
50,50.0,0.0,40.0,0.0,0.0
51,69.0,16.0,15.0,0.0,0.0
52,62.0,8.0,15.0,0.0,0.0
53,71.0,16.0,20.0,0.0,0.0
54,33.0,0.0,15.0,0.0,0.0
55,74.0,32.0,15.0,0.0,0.0
56,72.0,8.0,90.0,0.0,0.0
57,45.0,24.0,20.0,0.0,0.0
58,52.0,24.0,20.0,0.0,0.0
59,57.0,16.0,20.0,0.0,0.0
60,52.0,16.0,20.0,0.0,0.0
61,72.0,24.0,40.0,0.0,0.0
62,60.0,32.0,15.0,0.0,0.0
63,45.0,6.0,90.0,0.0,0.0
64,48.0,22.0,20.0,0.0,0.0
65,64.0,0.0,20.0,0.0,0.0
66,66.0,2.0,20.0,0.0,0.0
67,55.0,8.0,20.0,0.0,0.0
68,52.0,10.0,20.0,0.0,0.0
69,67.0,8.0,15.0,0.0,0.0
70,69.0,0.0,15.0,0.0,0.0
71,67.0,2.0,15.0,0.0,0.0
72,60.0,16.0,20.0,0.0,0.0
73,66.0,12.0,15.0,0.0,0.0
74,67.0,2.0,15.0,0.0,0.0
75,71.0,0.0,15.0,0.0,0.0
76,55.0,6.0,15.0,0.0,0.0
77,69.0,26.0,15.0,0.0,0.0
78,38.0,24.0,20.0,0.0,0.0
79,66.0,10.0,90.0,0.0,0.0
80,45.0,24.0,20.0,0.0,0.0
81,54.0,24.0,20.0,0.0,0.0
82,50.0,6.0,20.0,0.0,0.0
83,60.0,0.0,20.0,0.0,0.0
84,61.0,8.0,15.0,0.0,0.0
85,62.0,6.0,15.0,0.0,0.0
86,54.0,2.0,20.0,0.0,0.0
87,64.0,6.0,15.0,0.0,0.0
88,66.0,6.0,15.0,0.0,0.0
89,67.0,4.0,15.0,0.0,0.0
90,69.0,15.0,15.0,0.0,0.0
91,43.0,13.0,15.0,0.0,0.0
92,71.0,1.0,15.0,0.0,0.0
93,73.0,14.0,15.0,0.0,0.0
94,50.0,0.0,40.0,0.0,0.0
95,72.0,14.0,15.0,0.0,0.0
96,70.0,7.0,15.0,0.0,0.0
97,62.0,8.0,15.0,0.0,0.0
98,71.0,15.0,15.0,0.0,0.0
99,70.0,1.0,15.0,0.0,0.0
100,43.0,13.0,15.0,0.0,0.0
101,72.0,14.0,15.0,0.0,0.0
102,49.0,0.0,40.0,0.0,0.0
103,71.0,14.0,15.0,0.0,0.0
104,69.0,7.0,15.0,0.0,0.0
105,61.0,8.0,15.0,0.0,0.0
106,70.0,16.0,15.0,0.0,0.0
107,69.0,5.0,90.0,0.0,0.0
108,43.0,48.0,15.0,0.0,0.0
109,48.0,19.0,40.0,0.0,0.0
110,60.0,0.0,15.0,0.0,0.0
111,43.0,5.0,15.0,0.0,0.0
112,68.0,10.0,15.0,0.0,0.0
113,69.0,10.0,15.0,0.0,0.0
114,51.0,8.0,40.0,0.0,0.0
115,70.0,10.0,15.0,0.0,0.0
116,71.0,10.0,15.0,0.0,0.0
117,63.0,0.0,15.0,0.0,0.0
118,72.0,3.0,15.0,0.0,0.0
119,73.0,8.0,15.0,0.0,0.0
120,74.0,8.0,15.0,0.0,0.0
121,43.0,8.0,15.0,0.0,0.0
122,75.0,0.0,15.0,0.0,0.0
123,76.0,8.0,15.0,0.0,0.0
124,53.0,0.0,40.0,0.0,0.0
125,77.0,8.0,15.0,0.0,0.0
126,78.0,8.0,15.0,0.0,0.0
127,79.0,8.0,15.0,0.0,0.0
128,65.0,8.0,15.0,0.0,0.0
129,80.0,8.0,15.0,0.0,0.0
130,77.0,0.0,15.0,0.0,0.0
131,74.0,8.0,15.0,0.0,0.0
132,43.0,8.0,15.0,0.0,0.0
133,73.0,8.0,15.0,0.0,0.0
134,74.0,0.0,15.0,0.0,0.0
135,75.0,8.0,15.0,0.0,0.0
136,76.0,8.0,15.0,0.0,0.0
137,52.0,0.0,40.0,0.0,0.0
138,77.0,8.0,15.0,0.0,0.0
139,78.0,8.0,15.0,0.0,0.0
140,79.0,8.0,15.0,0.0,0.0
141,64.0,0.0,15.0,0.0,0.0
142,76.0,8.0,15.0,0.0,0.0
143,73.0,16.0,15.0,0.0,0.0
144,72.0,16.0,120.0,0.0,0.0
145,43.0,48.0,15.0,0.0,0.0
146,51.0,0.0,40.0,0.0,0.0
147,63.0,24.0,15.0,0.0,0.0
148,43.0,32.0,15.0,0.0,0.0
149,50.0,8.0,40.0,0.0,0.0
150,62.0,0.0,15.0,0.0,0.0
151,71.0,24.0,20.0,0.0,0.0
152,69.0,0.0,20.0,0.0,0.0
153,37.0,24.0,20.0,0.0,0.0
154,45.0,0.0,20.0,0.0,0.0
155,71.0,24.0,20.0,0.0,0.0
156,55.0,0.0,20.0,0.0,0.0
157,69.0,24.0,20.0,0.0,0.0
158,49.0,24.0,20.0,0.0,0.0
159,64.0,0.0,40.0,0.0,0.0
160,57.0,12.0,20.0,0.0,0.0
161,69.0,12.0,15.0,0.0,0.0
162,45.0,0.0,20.0,0.0,0.0
163,69.0,24.0,15.0,0.0,0.0
164,78.0,18.0,60.0,0.0,0.0
165,38.0,24.0,20.0,0.0,0.0
166,45.0,24.0,20.0,0.0,0.0
167,54.0,0.0,20.0,0.0,0.0
168,50.0,12.0,20.0,0.0,0.0
169,76.0,6.0,20.0,0.0,0.0
170,74.0,12.0,20.0,0.0,0.0
171,57.0,6.0,20.0,0.0,0.0
172,73.0,18.0,20.0,0.0,0.0
173,45.0,0.0,20.0,0.0,0.0
174,71.0,24.0,20.0,0.0,0.0
175,37.0,24.0,20.0,0.0,0.0
176,69.0,0.0,20.0,0.0,0.0
177,45.0,12.0,20.0,0.0,0.0
178,71.0,12.0,40.0,0.0,0.0
179,55.0,0.0,20.0,0.0,0.0
180,69.0,24.0,15.0,0.0,0.0
181,64.0,0.0,40.0,0.0,0.0
182,49.0,24.0,20.0,0.0,0.0
183,57.0,16.0,20.0,0.0,0.0
184,45.0,0.0,20.0,0.0,0.0
185,69.0,8.0,15.0,0.0,0.0
186,62.0,24.0,15.0,0.0,0.0
187,69.0,0.0,15.0,0.0,0.0
188,38.0,24.0,20.0,0.0,0.0
189,78.0,0.0,20.0,0.0,0.0
190,45.0,12.0,20.0,0.0,0.0
191,79.0,12.0,40.0,0.0,0.0
192,54.0,0.0,20.0,0.0,0.0
193,78.0,18.0,15.0,0.0,0.0
194,50.0,12.0,20.0,0.0,0.0
195,76.0,6.0,20.0,0.0,0.0
196,74.0,12.0,20.0,0.0,0.0
197,57.0,6.0,20.0,0.0,0.0
198,73.0,18.0,20.0,0.0,0.0
199,45.0,14.0,20.0,0.0,0.0
200,71.0,0.0,20.0,0.0,0.0
201,37.0,24.0,20.0,0.0,0.0
202,69.0,5.0,15.0,0.0,0.0
203,71.0,5.0,15.0,0.0,0.0
204,73.0,0.0,15.0,0.0,0.0
205,71.0,4.0,40.0,0.0,0.0
206,45.0,12.0,20.0,0.0,0.0
207,55.0,0.0,20.0,0.0,0.0
208,69.0,8.0,15.0,0.0,0.0
209,69.0,24.0,15.0,0.0,0.0
210,49.0,24.0,20.0,0.0,0.0
211,64.0,0.0,40.0,0.0,0.0
212,57.0,24.0,20.0,0.0,0.0
213,45.0,0.0,20.0,0.0,0.0
214,69.0,24.0,20.0,0.0,0.0
215,72.0,2.0,150.0,0.0,0.0
216,38.0,24.0,20.0,0.0,0.0
217,45.0,24.0,20.0,0.0,0.0
218,55.0,24.0,20.0,0.0,0.0
219,51.0,24.0,20.0,0.0,0.0
220,60.0,22.0,20.0,0.0,0.0
221,55.0,24.0,20.0,0.0,0.0
222,38.0,6.0,20.0,0.0,0.0
223,62.0,12.0,15.0,0.0,0.0
224,45.0,6.0,20.0,0.0,0.0
225,64.0,6.0,15.0,0.0,0.0
226,54.0,24.0,20.0,0.0,0.0
227,66.0,12.0,15.0,0.0,0.0
228,67.0,6.0,15.0,0.0,0.0
229,69.0,24.0,20.0,0.0,0.0
230,50.0,0.0,20.0,0.0,0.0
231,60.0,24.0,20.0,0.0,0.0
232,71.0,24.0,20.0,0.0,0.0
233,54.0,0.0,20.0,0.0,0.0
234,67.0,24.0,90.0,0.0,0.0
235,43.0,24.0,20.0,0.0,0.0
236,50.0,24.0,20.0,0.0,0.0
237,59.0,24.0,20.0,0.0,0.0
238,55.0,0.0,20.0,0.0,0.0
239,62.0,24.0,20.0,0.0,0.0
240,50.0,12.0,20.0,0.0,0.0
241,71.0,12.0,15.0,0.0,0.0
242,43.0,24.0,20.0,0.0,0.0
243,50.0,8.0,40.0,0.0,0.0
244,70.0,16.0,15.0,0.0,0.0
245,62.0,0.0,15.0,0.0,0.0
246,71.0,12.0,20.0,0.0,0.0
247,70.0,12.0,15.0,0.0,0.0
248,43.0,24.0,20.0,0.0,0.0
249,49.0,6.0,40.0,0.0,0.0
250,69.0,16.0,15.0,0.0,0.0
251,70.0,26.0,20.0,0.0,0.0
252,61.0,0.0,15.0,0.0,0.0
253,69.0,2.0,90.0,0.0,0.0
254,43.0,40.0,20.0,0.0,0.0
255,48.0,0.0,40.0,0.0,0.0
256,60.0,30.0,15.0,0.0,0.0
257,43.0,24.0,20.0,0.0,0.0
258,71.0,16.0,20.0,0.0,0.0
259,51.0,0.0,40.0,0.0,0.0
260,72.0,12.0,20.0,0.0,0.0
261,63.0,8.0,15.0,0.0,0.0
262,43.0,30.0,20.0,0.0,0.0
263,74.0,12.0,15.0,0.0,0.0
264,53.0,0.0,40.0,0.0,0.0
265,76.0,6.0,30.0,0.0,0.0
266,65.0,2.0,15.0,0.0,0.0
267,74.0,4.0,15.0,0.0,0.0
268,76.0,6.0,15.0,0.0,0.0
269,74.0,24.0,15.0,0.0,0.0
270,73.0,12.0,20.0,0.0,0.0
271,43.0,0.0,20.0,0.0,0.0
272,52.0,0.0,40.0,0.0,0.0
273,74.0,12.0,15.0,0.0,0.0
274,73.0,12.0,15.0,0.0,0.0
275,64.0,8.0,15.0,0.0,0.0
276,79.0,4.0,15.0,0.0,0.0
277,73.0,24.0,15.0,0.0,0.0
278,43.0,40.0,20.0,0.0,0.0
279,72.0,12.0,120.0,0.0,0.0
280,51.0,0.0,40.0,0.0,0.0
281,63.0,32.0,15.0,0.0,0.0
282,43.0,22.0,20.0,0.0,0.0
283,50.0,0.0,40.0,0.0,0.0
284,62.0,1.0,15.0,0.0,0.0
285,71.0,6.0,15.0,0.0,0.0
286,69.0,3.0,15.0,0.0,0.0
287,71.0,3.0,15.0,0.0,0.0
288,69.0,3.0,15.0,0.0,0.0
289,71.0,22.0,15.0,0.0,0.0
290,43.0,10.0,20.0,0.0,0.0
291,69.0,14.0,30.0,0.0,0.0
292,48.0,0.0,40.0,0.0,0.0
293,67.0,16.0,15.0,0.0,0.0
294,69.0,22.0,20.0,0.0,0.0
295,60.0,8.0,15.0,0.0,0.0
296,43.0,24.0,20.0,0.0,0.0
297,71.0,2.0,20.0,0.0,0.0
298,50.0,0.0,40.0,0.0,0.0
299,69.0,16.0,15.0,0.0,0.0
300,71.0,16.0,20.0,0.0,0.0
301,62.0,8.0,15.0,0.0,0.0
302,33.0,0.0,15.0,0.0,0.0
303,74.0,32.0,15.0,0.0,0.0
304,72.0,8.0,90.0,0.0,0.0
305,45.0,24.0,20.0,0.0,0.0
306,52.0,24.0,20.0,0.0,0.0
307,57.0,16.0,20.0,0.0,0.0
308,52.0,16.0,20.0,0.0,0.0
309,60.0,28.0,15.0,0.0,0.0
310,72.0,10.0,40.0,0.0,0.0
311,45.0,4.0,90.0,0.0,0.0
312,64.0,6.0,15.0,0.0,0.0
313,48.0,4.0,20.0,0.0,0.0
314,66.0,6.0,15.0,0.0,0.0
315,64.0,5.0,15.0,0.0,0.0
316,63.0,1.0,15.0,0.0,0.0
317,64.0,4.0,15.0,0.0,0.0
318,55.0,4.0,20.0,0.0,0.0
319,66.0,4.0,15.0,0.0,0.0
320,67.0,4.0,15.0,0.0,0.0
321,69.0,4.0,15.0,0.0,0.0
322,71.0,4.0,15.0,0.0,0.0
323,72.0,0.0,15.0,0.0,0.0
324,52.0,0.0,20.0,0.0,0.0
325,74.0,4.0,15.0,0.0,0.0
326,75.0,4.0,15.0,0.0,0.0
327,78.0,4.0,15.0,0.0,0.0
328,76.0,0.0,15.0,0.0,0.0
329,74.0,4.0,15.0,0.0,0.0
330,72.0,5.0,15.0,0.0,0.0
331,71.0,5.0,15.0,0.0,0.0
332,60.0,0.0,20.0,0.0,0.0
333,72.0,4.0,15.0,0.0,0.0
334,71.0,5.0,15.0,0.0,0.0
335,69.0,5.0,15.0,0.0,0.0
336,71.0,6.0,15.0,0.0,0.0
337,55.0,2.0,15.0,0.0,0.0
338,72.0,6.0,15.0,0.0,0.0
339,64.0,4.0,15.0,0.0,0.0
340,71.0,7.0,15.0,0.0,0.0
341,69.0,23.0,15.0,0.0,0.0
342,66.0,10.0,90.0,0.0,0.0
343,38.0,24.0,20.0,0.0,0.0
344,45.0,24.0,20.0,0.0,0.0
345,54.0,24.0,20.0,0.0,0.0
346,50.0,6.0,20.0,0.0,0.0
347,60.0,6.0,20.0,0.0,0.0
348,61.0,8.0,15.0,0.0,0.0
349,62.0,0.0,15.0,0.0,0.0
350,54.0,2.0,20.0,0.0,0.0
351,64.0,6.0,15.0,0.0,0.0
352,66.0,6.0,15.0,0.0,0.0
353,67.0,4.0,15.0,0.0,0.0
354,69.0,12.0,15.0,0.0,0.0
355,43.0,20.0,15.0,0.0,0.0
356,71.0,4.0,15.0,0.0,0.0
357,73.0,12.0,15.0,0.0,0.0
358,50.0,0.0,40.0,0.0,0.0
359,72.0,12.0,15.0,0.0,0.0
360,62.0,8.0,15.0,0.0,0.0
361,70.0,4.0,15.0,0.0,0.0
362,71.0,12.0,15.0,0.0,0.0
363,70.0,4.0,15.0,0.0,0.0
364,43.0,20.0,15.0,0.0,0.0
365,49.0,8.0,40.0,0.0,0.0
366,72.0,12.0,15.0,0.0,0.0
367,71.0,12.0,15.0,0.0,0.0
368,61.0,0.0,15.0,0.0,0.0
369,69.0,4.0,15.0,0.0,0.0
370,70.0,16.0,15.0,0.0,0.0
371,69.0,16.0,90.0,0.0,0.0
372,43.0,48.0,15.0,0.0,0.0
373,48.0,24.0,40.0,0.0,0.0
374,60.0,0.0,15.0,0.0,0.0
375,43.0,4.0,15.0,0.0,0.0
376,68.0,12.0,15.0,0.0,0.0
377,51.0,8.0,40.0,0.0,0.0
378,69.0,12.0,15.0,0.0,0.0
379,63.0,0.0,15.0,0.0,0.0
380,71.0,4.0,15.0,0.0,0.0
381,72.0,9.0,15.0,0.0,0.0
382,73.0,7.0,15.0,0.0,0.0
383,43.0,2.0,15.0,0.0,0.0
384,74.0,9.0,15.0,0.0,0.0
385,76.0,9.0,15.0,0.0,0.0
386,53.0,7.0,40.0,0.0,0.0
387,74.0,7.0,15.0,0.0,0.0
388,79.0,11.0,15.0,0.0,0.0
389,80.0,6.0,15.0,0.0,0.0
390,65.0,0.0,15.0,0.0,0.0
391,92.0,4.0,15.0,0.0,0.0
392,74.0,10.0,15.0,0.0,0.0
393,43.0,2.0,15.0,0.0,0.0
394,72.0,7.0,15.0,0.0,0.0
395,73.0,9.0,15.0,0.0,0.0
396,74.0,9.0,15.0,0.0,0.0
397,52.0,0.0,40.0,0.0,0.0
398,73.0,9.0,15.0,0.0,0.0
399,78.0,9.0,15.0,0.0,0.0
400,79.0,8.0,15.0,0.0,0.0
401,64.0,8.0,15.0,0.0,0.0
402,91.0,2.0,15.0,0.0,0.0
403,73.0,16.0,15.0,0.0,0.0
404,72.0,16.0,120.0,0.0,0.0
405,43.0,48.0,15.0,0.0,0.0
406,51.0,0.0,40.0,0.0,0.0
407,63.0,24.0,15.0,0.0,0.0
408,43.0,32.0,15.0,0.0,0.0
409,50.0,0.0,40.0,0.0,0.0
410,62.0,8.0,15.0,0.0,0.0
411,71.0,24.0,20.0,0.0,0.0
412,69.0,0.0,20.0,0.0,0.0
413,37.0,24.0,20.0,0.0,0.0
414,45.0,0.0,20.0,0.0,0.0
415,71.0,24.0,20.0,0.0,0.0
416,69.0,0.0,20.0,0.0,0.0
417,55.0,24.0,20.0,0.0,0.0
418,49.0,24.0,20.0,0.0,0.0
419,64.0,20.0,40.0,0.0,0.0
420,57.0,0.0,20.0,0.0,0.0
421,45.0,24.0,20.0,0.0,0.0
422,69.0,4.0,20.0,0.0,0.0
423,38.0,24.0,20.0,0.0,0.0
424,78.0,0.0,60.0,0.0,0.0
425,45.0,24.0,20.0,0.0,0.0
426,54.0,18.0,20.0,0.0,0.0
427,76.0,6.0,20.0,0.0,0.0
428,50.0,12.0,20.0,0.0,0.0
429,74.0,12.0,20.0,0.0,0.0
430,57.0,6.0,20.0,0.0,0.0
431,73.0,18.0,20.0,0.0,0.0
432,45.0,24.0,20.0,0.0,0.0
433,71.0,0.0,20.0,0.0,0.0
434,37.0,24.0,20.0,0.0,0.0
435,69.0,0.0,20.0,0.0,0.0
436,71.0,4.0,40.0,0.0,0.0
437,45.0,12.0,20.0,0.0,0.0
438,55.0,0.0,20.0,0.0,0.0
439,69.0,8.0,15.0,0.0,0.0
440,69.0,24.0,15.0,0.0,0.0
441,49.0,24.0,20.0,0.0,0.0
442,64.0,0.0,40.0,0.0,0.0
443,57.0,16.0,20.0,0.0,0.0
444,69.0,8.0,15.0,0.0,0.0
445,45.0,24.0,20.0,0.0,0.0
446,62.0,0.0,15.0,0.0,0.0
447,69.0,0.0,15.0,0.0,0.0
448,38.0,0.0,20.0,0.0,0.0
449,78.0,24.0,20.0,0.0,0.0
450,79.0,12.0,40.0,0.0,0.0
451,45.0,12.0,20.0,0.0,0.0
452,54.0,18.0,20.0,0.0,0.0
453,78.0,0.0,15.0,0.0,0.0
454,76.0,6.0,20.0,0.0,0.0
455,50.0,12.0,20.0,0.0,0.0
456,74.0,12.0,20.0,0.0,0.0
457,57.0,6.0,20.0,0.0,0.0
458,73.0,18.0,20.0,0.0,0.0
459,45.0,14.0,20.0,0.0,0.0
460,71.0,0.0,20.0,0.0,0.0
461,69.0,5.0,15.0,0.0,0.0
462,37.0,24.0,20.0,0.0,0.0
463,71.0,5.0,15.0,0.0,0.0
464,73.0,0.0,15.0,0.0,0.0
465,71.0,4.0,40.0,0.0,0.0
466,45.0,12.0,20.0,0.0,0.0
467,55.0,24.0,20.0,0.0,0.0
468,69.0,8.0,15.0,0.0,0.0
469,69.0,0.0,15.0,0.0,0.0
470,64.0,0.0,40.0,0.0,0.0
471,49.0,24.0,20.0,0.0,0.0
472,57.0,24.0,20.0,0.0,0.0
473,45.0,24.0,20.0,0.0,0.0
474,69.0,0.0,20.0,0.0,0.0
475,72.0,2.0,150.0,0.0,0.0
476,38.0,24.0,20.0,0.0,0.0
477,45.0,24.0,20.0,0.0,0.0
478,55.0,24.0,20.0,0.0,0.0
479,51.0,24.0,20.0,0.0,0.0
480,60.0,22.0,20.0,0.0,0.0
481,55.0,24.0,20.0,0.0,0.0
482,38.0,6.0,20.0,0.0,0.0
483,62.0,12.0,15.0,0.0,0.0
484,45.0,6.0,20.0,0.0,0.0
485,64.0,6.0,15.0,0.0,0.0
486,66.0,12.0,15.0,0.0,0.0
487,54.0,24.0,20.0,0.0,0.0
488,67.0,6.0,15.0,0.0,0.0
489,69.0,24.0,20.0,0.0,0.0
490,50.0,0.0,20.0,0.0,0.0
491,60.0,24.0,20.0,0.0,0.0
492,54.0,0.0,20.0,0.0,0.0
493,71.0,24.0,20.0,0.0,0.0
494,67.0,12.0,90.0,0.0,0.0
495,43.0,24.0,20.0,0.0,0.0
496,50.0,24.0,20.0,0.0,0.0
497,59.0,12.0,20.0,0.0,0.0
498,55.0,24.0,20.0,0.0,0.0
499,62.0,0.0,20.0,0.0,0.0
500,66.0,24.0,20.0,0.0,0.0
501,67.0,0.0,20.0,0.0,0.0
502,50.0,24.0,20.0,0.0,0.0
503,69.0,0.0,60.0,0.0,0.0
504,42.0,24.0,20.0,0.0,0.0
505,45.0,24.0,20.0,0.0,0.0
506,50.0,24.0,20.0,0.0,0.0
507,74.0,0.0,40.0,0.0,0.0
508,45.0,24.0,20.0,0.0,0.0
509,57.0,24.0,20.0,0.0,0.0
510,71.0,0.0,20.0,0.0,0.0
511,50.0,24.0,20.0,0.0,0.0
512,69.0,24.0,60.0,0.0,0.0
513,40.0,24.0,20.0,0.0,0.0
514,47.0,24.0,20.0,0.0,0.0
515,50.0,0.0,20.0,0.0,0.0
516,47.0,24.0,20.0,0.0,0.0
517,67.0,12.0,60.0,0.0,0.0
518,55.0,12.0,20.0,0.0,0.0
519,50.0,24.0,20.0,0.0,0.0
520,40.0,12.0,20.0,0.0,0.0
521,79.0,12.0,40.0,0.0,0.0
522,45.0,12.0,20.0,0.0,0.0
523,78.0,0.0,15.0,0.0,0.0
524,49.0,12.0,20.0,0.0,0.0
525,76.0,12.0,15.0,0.0,0.0
526,74.0,0.0,15.0,0.0,0.0
527,45.0,12.0,20.0,0.0,0.0
528,73.0,12.0,15.0,0.0,0.0
529,74.0,0.0,15.0,0.0,0.0
530,55.0,0.0,20.0,0.0,0.0
531,76.0,12.0,15.0,0.0,0.0
532,67.0,12.0,15.0,0.0,0.0
533,69.0,12.0,15.0,0.0,0.0
534,49.0,24.0,20.0,0.0,0.0
535,64.0,0.0,15.0,0.0,0.0
536,66.0,12.0,210.0,0.0,0.0
537,38.0,24.0,20.0,0.0,0.0
538,45.0,24.0,20.0,0.0,0.0
539,49.0,24.0,20.0,0.0,0.0
540,45.0,24.0,20.0,0.0,0.0
541,54.0,24.0,20.0,0.0,0.0
542,49.0,24.0,20.0,0.0,0.0
543,38.0,24.0,20.0,0.0,0.0
544,43.0,12.0,20.0,0.0,0.0
545,47.0,24.0,20.0,0.0,0.0
546,71.0,24.0,40.0,0.0,0.0
547,43.0,24.0,20.0,0.0,0.0
548,54.0,0.0,20.0,0.0,0.0
549,47.0,0.0,20.0,0.0,0.0
550,67.0,24.0,20.0,0.0,0.0
551,66.0,22.0,40.0,0.0,0.0
552,37.0,24.0,20.0,0.0,0.0
553,43.0,0.0,20.0,0.0,0.0
554,47.0,24.0,20.0,0.0,0.0
555,64.0,2.0,20.0,0.0,0.0
556,43.0,24.0,20.0,0.0,0.0
557,76.0,12.0,90.0,0.0,0.0
558,52.0,24.0,20.0,0.0,0.0
559,47.0,12.0,20.0,0.0,0.0
560,37.0,12.0,20.0,0.0,0.0
561,74.0,0.0,15.0,0.0,0.0
562,73.0,12.0,15.0,0.0,0.0
563,42.0,0.0,20.0,0.0,0.0
564,71.0,12.0,15.0,0.0,0.0
565,46.0,0.0,20.0,0.0,0.0
566,70.0,12.0,15.0,0.0,0.0
567,71.0,12.0,15.0,0.0,0.0
568,42.0,12.0,20.0,0.0,0.0
569,72.0,12.0,15.0,0.0,0.0
570,73.0,0.0,15.0,0.0,0.0
571,65.0,12.0,15.0,0.0,0.0
572,52.0,0.0,20.0,0.0,0.0
573,66.0,16.0,15.0,0.0,0.0
574,46.0,0.0,20.0,0.0,0.0
575,67.0,0.0,15.0,0.0,0.0
576,61.0,8.0,15.0,0.0,0.0
577,66.0,24.0,15.0,0.0,0.0
578,64.0,12.0,60.0,0.0,0.0
579,35.0,24.0,20.0,0.0,0.0
580,42.0,12.0,20.0,0.0,0.0
581,50.0,24.0,20.0,0.0,0.0
582,47.0,24.0,20.0,0.0,0.0
583,62.0,6.0,60.0,0.0,0.0
584,54.0,12.0,20.0,0.0,0.0
585,50.0,24.0,20.0,0.0,0.0
586,61.0,6.0,15.0,0.0,0.0
587,42.0,12.0,20.0,0.0,0.0
588,61.0,12.0,40.0,0.0,0.0
589,49.0,24.0,20.0,0.0,0.0
590,66.0,12.0,60.0,0.0,0.0
591,58.0,24.0,20.0,0.0,0.0
592,54.0,12.0,20.0,0.0,0.0
593,61.0,12.0,20.0,0.0,0.0
594,66.0,12.0,15.0,0.0,0.0
595,49.0,24.0,20.0,0.0,0.0
596,42.0,24.0,20.0,0.0,0.0
597,66.0,0.0,20.0,0.0,0.0
598,67.0,0.0,20.0,0.0,0.0
599,50.0,24.0,20.0,0.0,0.0
600,59.0,24.0,20.0,0.0,0.0
601,53.0,24.0,20.0,0.0,0.0
602,62.0,24.0,20.0,0.0,0.0
603,50.0,24.0,20.0,0.0,0.0
604,42.0,12.0,20.0,0.0,0.0
605,67.0,12.0,40.0,0.0,0.0
606,51.0,0.0,20.0,0.0,0.0
607,68.0,8.0,15.0,0.0,0.0
608,60.0,24.0,20.0,0.0,0.0
609,71.0,8.0,15.0,0.0,0.0
610,69.0,4.0,15.0,0.0,0.0
611,68.0,4.0,15.0,0.0,0.0
612,68.0,24.0,20.0,0.0,0.0
613,54.0,0.0,20.0,0.0,0.0
614,63.0,12.0,20.0,0.0,0.0
615,68.0,12.0,15.0,0.0,0.0
616,51.0,12.0,20.0,0.0,0.0
617,68.0,12.0,15.0,0.0,0.0
618,42.0,24.0,20.0,0.0,0.0
619,52.0,24.0,20.0,0.0,0.0
620,69.0,24.0,60.0,0.0,0.0
621,61.0,24.0,20.0,0.0,0.0
622,55.0,0.0,20.0,0.0,0.0
623,64.0,12.0,20.0,0.0,0.0
624,69.0,12.0,15.0,0.0,0.0
625,52.0,12.0,20.0,0.0,0.0
626,69.0,12.0,15.0,0.0,0.0
627,42.0,24.0,20.0,0.0,0.0
628,70.0,0.0,60.0,0.0,0.0
629,52.0,24.0,20.0,0.0,0.0
630,61.0,24.0,20.0,0.0,0.0
631,54.0,24.0,20.0,0.0,0.0
632,64.0,12.0,20.0,0.0,0.0
633,70.0,12.0,15.0,0.0,0.0
634,52.0,24.0,20.0,0.0,0.0
635,70.0,24.0,40.0,0.0,0.0
636,42.0,24.0,20.0,0.0,0.0
637,50.0,0.0,20.0,0.0,0.0
638,59.0,24.0,20.0,0.0,0.0
639,71.0,0.0,20.0,0.0,0.0
640,86.0,12.0,90.0,0.0,0.0
641,54.0,24.0,20.0,0.0,0.0
642,62.0,24.0,20.0,0.0,0.0
643,50.0,12.0,20.0,0.0,0.0
644,42.0,10.0,20.0,0.0,0.0
645,85.0,0.0,15.0,0.0,0.0
646,83.0,10.0,15.0,0.0,0.0
647,50.0,5.0,20.0,0.0,0.0
648,81.0,4.0,15.0,0.0,0.0
649,79.0,9.0,15.0,0.0,0.0
650,59.0,0.0,20.0,0.0,0.0
651,83.0,10.0,15.0,0.0,0.0
652,78.0,6.0,15.0,0.0,0.0
653,77.0,6.0,15.0,0.0,0.0
654,53.0,3.0,20.0,0.0,0.0
655,74.0,5.0,15.0,0.0,0.0
656,73.0,5.0,15.0,0.0,0.0
657,71.0,2.0,15.0,0.0,0.0
658,70.0,5.0,15.0,0.0,0.0
659,62.0,4.0,20.0,0.0,0.0
660,73.0,5.0,15.0,0.0,0.0
661,71.0,5.0,15.0,0.0,0.0
662,69.0,5.0,15.0,0.0,0.0
663,67.0,1.0,15.0,0.0,0.0
664,66.0,5.0,15.0,0.0,0.0
665,50.0,12.0,20.0,0.0,0.0
666,65.0,5.0,15.0,0.0,0.0
667,62.0,5.0,15.0,0.0,0.0
668,61.0,5.0,15.0,0.0,0.0
669,59.0,0.0,15.0,0.0,0.0
670,42.0,14.0,15.0,0.0,0.0
671,58.0,3.0,15.0,0.0,0.0
672,49.0,14.0,15.0,0.0,0.0
673,66.0,6.0,90.0,0.0,0.0
674,54.0,14.0,15.0,0.0,0.0
675,58.0,15.0,15.0,0.0,0.0
676,54.0,30.0,15.0,0.0,0.0
677,61.0,18.0,30.0,0.0,0.0
678,67.0,12.0,15.0,0.0,0.0
679,68.0,30.0,15.0,0.0,0.0
680,69.0,24.0,20.0,0.0,0.0
681,37.0,0.0,20.0,0.0,0.0
682,45.0,12.0,20.0,0.0,0.0
683,71.0,12.0,40.0,0.0,0.0
684,55.0,24.0,20.0,0.0,0.0
685,69.0,0.0,15.0,0.0,0.0
686,64.0,20.0,40.0,0.0,0.0
687,49.0,24.0,20.0,0.0,0.0
688,57.0,0.0,20.0,0.0,0.0
689,45.0,24.0,20.0,0.0,0.0
690,69.0,4.0,20.0,0.0,0.0
691,38.0,24.0,20.0,0.0,0.0
692,78.0,0.0,60.0,0.0,0.0
693,45.0,24.0,20.0,0.0,0.0
694,54.0,18.0,20.0,0.0,0.0
695,76.0,6.0,20.0,0.0,0.0
696,50.0,12.0,20.0,0.0,0.0
697,74.0,12.0,20.0,0.0,0.0
698,57.0,6.0,20.0,0.0,0.0
699,73.0,18.0,20.0,0.0,0.0
700,45.0,0.0,20.0,0.0,0.0
701,71.0,14.0,20.0,0.0,0.0
702,37.0,24.0,20.0,0.0,0.0
703,69.0,5.0,15.0,0.0,0.0
704,71.0,5.0,15.0,0.0,0.0
705,73.0,0.0,15.0,0.0,0.0
706,71.0,4.0,40.0,0.0,0.0
707,45.0,12.0,20.0,0.0,0.0
708,55.0,0.0,20.0,0.0,0.0
709,69.0,8.0,15.0,0.0,0.0
710,69.0,24.0,15.0,0.0,0.0
711,49.0,24.0,20.0,0.0,0.0
712,64.0,0.0,40.0,0.0,0.0
713,57.0,16.0,20.0,0.0,0.0
714,69.0,8.0,15.0,0.0,0.0
715,45.0,0.0,20.0,0.0,0.0
716,62.0,0.0,15.0,0.0,0.0
717,69.0,24.0,15.0,0.0,0.0
718,78.0,0.0,20.0,0.0,0.0
719,38.0,24.0,20.0,0.0,0.0
720,79.0,12.0,40.0,0.0,0.0
721,45.0,12.0,20.0,0.0,0.0
722,54.0,18.0,20.0,0.0,0.0
723,78.0,0.0,15.0,0.0,0.0
724,76.0,6.0,20.0,0.0,0.0
725,50.0,12.0,20.0,0.0,0.0
726,74.0,12.0,20.0,0.0,0.0
727,57.0,6.0,20.0,0.0,0.0
728,73.0,18.0,20.0,0.0,0.0
729,45.0,24.0,20.0,0.0,0.0
730,71.0,0.0,20.0,0.0,0.0
731,37.0,24.0,20.0,0.0,0.0
732,69.0,0.0,20.0,0.0,0.0
733,71.0,0.0,20.0,0.0,0.0
734,45.0,10.0,20.0,0.0,0.0
735,69.0,14.0,15.0,0.0,0.0
736,55.0,0.0,20.0,0.0,0.0
737,69.0,24.0,15.0,0.0,0.0
738,49.0,24.0,20.0,0.0,0.0
739,64.0,0.0,40.0,0.0,0.0
740,57.0,24.0,20.0,0.0,0.0
741,69.0,24.0,20.0,0.0,0.0
742,45.0,0.0,20.0,0.0,0.0
743,38.0,24.0,20.0,0.0,0.0
744,72.0,2.0,150.0,0.0,0.0
745,45.0,24.0,20.0,0.0,0.0
746,55.0,24.0,20.0,0.0,0.0
747,51.0,24.0,20.0,0.0,0.0
748,60.0,22.0,20.0,0.0,0.0
749,55.0,24.0,20.0,0.0,0.0
750,38.0,6.0,20.0,0.0,0.0
751,45.0,6.0,20.0,0.0,0.0
752,62.0,12.0,15.0,0.0,0.0
753,64.0,6.0,15.0,0.0,0.0
754,54.0,24.0,20.0,0.0,0.0
755,66.0,12.0,15.0,0.0,0.0
756,67.0,6.0,15.0,0.0,0.0
757,50.0,24.0,20.0,0.0,0.0
758,69.0,0.0,20.0,0.0,0.0
759,60.0,24.0,20.0,0.0,0.0
760,71.0,24.0,20.0,0.0,0.0
761,54.0,0.0,20.0,0.0,0.0
762,43.0,24.0,20.0,0.0,0.0
763,67.0,12.0,90.0,0.0,0.0
764,50.0,24.0,20.0,0.0,0.0
765,59.0,12.0,20.0,0.0,0.0
766,55.0,24.0,20.0,0.0,0.0
767,66.0,0.0,20.0,0.0,0.0
768,62.0,24.0,20.0,0.0,0.0
769,67.0,0.0,20.0,0.0,0.0
770,50.0,24.0,20.0,0.0,0.0
771,69.0,0.0,60.0,0.0,0.0
772,42.0,24.0,20.0,0.0,0.0
773,45.0,24.0,20.0,0.0,0.0
774,50.0,24.0,20.0,0.0,0.0
775,74.0,24.0,40.0,0.0,0.0
776,45.0,24.0,20.0,0.0,0.0
777,57.0,0.0,20.0,0.0,0.0
778,50.0,24.0,20.0,0.0,0.0
779,71.0,0.0,20.0,0.0,0.0
780,69.0,12.0,60.0,0.0,0.0
781,40.0,24.0,20.0,0.0,0.0
782,47.0,12.0,20.0,0.0,0.0
783,50.0,12.0,20.0,0.0,0.0
784,67.0,12.0,15.0,0.0,0.0
785,47.0,0.0,20.0,0.0,0.0
786,67.0,24.0,15.0,0.0,0.0
787,55.0,12.0,20.0,0.0,0.0
788,79.0,12.0,40.0,0.0,0.0
789,50.0,12.0,20.0,0.0,0.0
790,40.0,0.0,20.0,0.0,0.0
791,79.0,12.0,15.0,0.0,0.0
792,78.0,12.0,15.0,0.0,0.0
793,45.0,0.0,20.0,0.0,0.0
794,76.0,6.0,15.0,0.0,0.0
795,74.0,3.0,15.0,0.0,0.0
796,73.0,3.0,15.0,0.0,0.0
797,74.0,12.0,15.0,0.0,0.0
798,49.0,12.0,20.0,0.0,0.0
799,73.0,12.0,15.0,0.0,0.0
800,71.0,0.0,15.0,0.0,0.0
801,73.0,12.0,15.0,0.0,0.0
802,45.0,0.0,20.0,0.0,0.0
803,74.0,12.0,15.0,0.0,0.0
804,55.0,0.0,20.0,0.0,0.0
805,76.0,12.0,15.0,0.0,0.0
806,67.0,12.0,15.0,0.0,0.0
807,69.0,12.0,15.0,0.0,0.0
808,49.0,0.0,20.0,0.0,0.0
809,64.0,24.0,15.0,0.0,0.0
810,38.0,24.0,20.0,0.0,0.0
811,66.0,11.0,180.0,0.0,0.0
812,45.0,24.0,20.0,0.0,0.0
813,49.0,24.0,20.0,0.0,0.0
814,45.0,24.0,20.0,0.0,0.0
815,54.0,24.0,20.0,0.0,0.0
816,49.0,24.0,20.0,0.0,0.0
817,38.0,4.0,20.0,0.0,0.0
818,43.0,2.0,20.0,0.0,0.0
819,67.0,9.0,15.0,0.0,0.0
820,66.0,11.0,15.0,0.0,0.0
821,47.0,24.0,20.0,0.0,0.0
822,65.0,11.0,15.0,0.0,0.0
823,66.0,0.0,15.0,0.0,0.0
824,71.0,7.0,30.0,0.0,0.0
825,43.0,9.0,20.0,0.0,0.0
826,54.0,6.0,20.0,0.0,0.0
827,70.0,7.0,15.0,0.0,0.0
828,69.0,1.0,15.0,0.0,0.0
829,68.0,18.0,15.0,0.0,0.0
830,47.0,0.0,20.0,0.0,0.0
831,67.0,24.0,20.0,0.0,0.0
832,37.0,24.0,20.0,0.0,0.0
833,66.0,24.0,40.0,0.0,0.0
834,43.0,0.0,20.0,0.0,0.0
835,47.0,0.0,20.0,0.0,0.0
836,64.0,24.0,20.0,0.0,0.0
837,76.0,9.0,90.0,0.0,0.0
838,43.0,24.0,20.0,0.0,0.0
839,52.0,24.0,20.0,0.0,0.0
840,47.0,9.0,20.0,0.0,0.0
841,37.0,3.0,20.0,0.0,0.0
842,74.0,6.0,15.0,0.0,0.0
843,73.0,9.0,15.0,0.0,0.0
844,42.0,6.0,20.0,0.0,0.0
845,71.0,9.0,15.0,0.0,0.0
846,70.0,3.0,15.0,0.0,0.0
847,71.0,9.0,15.0,0.0,0.0
848,46.0,0.0,20.0,0.0,0.0
849,70.0,9.0,15.0,0.0,0.0
850,69.0,8.0,15.0,0.0,0.0
851,70.0,8.0,15.0,0.0,0.0
852,42.0,8.0,20.0,0.0,0.0
853,71.0,8.0,15.0,0.0,0.0
854,72.0,0.0,15.0,0.0,0.0
855,73.0,8.0,15.0,0.0,0.0
856,52.0,0.0,20.0,0.0,0.0
857,65.0,8.0,15.0,0.0,0.0
858,66.0,16.0,15.0,0.0,0.0
859,46.0,24.0,20.0,0.0,0.0
860,67.0,8.0,15.0,0.0,0.0
861,61.0,0.0,15.0,0.0,0.0
862,66.0,0.0,15.0,0.0,0.0
863,64.0,24.0,60.0,0.0,0.0
864,35.0,24.0,20.0,0.0,0.0
865,42.0,24.0,20.0,0.0,0.0
866,50.0,0.0,20.0,0.0,0.0
867,47.0,24.0,20.0,0.0,0.0
868,62.0,0.0,40.0,0.0,0.0
869,54.0,18.0,20.0,0.0,0.0
870,50.0,12.0,20.0,0.0,0.0
871,61.0,6.0,15.0,0.0,0.0
872,61.0,12.0,15.0,0.0,0.0
873,42.0,24.0,20.0,0.0,0.0
874,66.0,24.0,60.0,0.0,0.0
875,49.0,24.0,20.0,0.0,0.0
876,58.0,24.0,20.0,0.0,0.0
877,54.0,0.0,20.0,0.0,0.0
878,61.0,12.0,20.0,0.0,0.0
879,66.0,12.0,15.0,0.0,0.0
880,49.0,24.0,20.0,0.0,0.0
881,66.0,0.0,20.0,0.0,0.0
882,42.0,24.0,20.0,0.0,0.0
883,67.0,24.0,20.0,0.0,0.0
884,50.0,0.0,20.0,0.0,0.0
885,59.0,24.0,20.0,0.0,0.0
886,53.0,24.0,20.0,0.0,0.0
887,62.0,24.0,20.0,0.0,0.0
888,67.0,12.0,40.0,0.0,0.0
889,50.0,12.0,20.0,0.0,0.0
890,42.0,24.0,20.0,0.0,0.0
891,51.0,8.0,20.0,0.0,0.0
892,68.0,0.0,15.0,0.0,0.0
893,71.0,8.0,15.0,0.0,0.0
894,60.0,24.0,20.0,0.0,0.0
895,69.0,4.0,15.0,0.0,0.0
896,68.0,4.0,15.0,0.0,0.0
897,54.0,0.0,20.0,0.0,0.0
898,68.0,24.0,20.0,0.0,0.0
899,63.0,12.0,20.0,0.0,0.0
900,51.0,12.0,20.0,0.0,0.0
901,68.0,12.0,15.0,0.0,0.0
902,68.0,12.0,15.0,0.0,0.0
903,42.0,24.0,20.0,0.0,0.0
904,52.0,24.0,20.0,0.0,0.0
905,69.0,0.0,60.0,0.0,0.0
906,61.0,24.0,20.0,0.0,0.0
907,55.0,24.0,20.0,0.0,0.0
908,64.0,12.0,20.0,0.0,0.0
909,69.0,12.0,15.0,0.0,0.0
910,52.0,12.0,20.0,0.0,0.0
911,69.0,12.0,15.0,0.0,0.0
912,42.0,24.0,20.0,0.0,0.0
913,52.0,24.0,20.0,0.0,0.0
914,70.0,24.0,60.0,0.0,0.0
915,61.0,24.0,20.0,0.0,0.0
916,54.0,0.0,20.0,0.0,0.0
917,64.0,12.0,20.0,0.0,0.0
918,70.0,12.0,15.0,0.0,0.0
919,52.0,24.0,20.0,0.0,0.0
920,70.0,24.0,40.0,0.0,0.0
921,42.0,24.0,20.0,0.0,0.0
922,50.0,0.0,20.0,0.0,0.0
923,71.0,24.0,20.0,0.0,0.0
924,59.0,0.0,20.0,0.0,0.0
925,86.0,6.0,90.0,0.0,0.0
926,54.0,24.0,20.0,0.0,0.0
927,62.0,24.0,20.0,0.0,0.0
928,50.0,6.0,20.0,0.0,0.0
929,42.0,6.0,20.0,0.0,0.0
930,85.0,6.0,15.0,0.0,0.0
931,83.0,6.0,15.0,0.0,0.0
932,86.0,0.0,15.0,0.0,0.0
933,81.0,6.0,15.0,0.0,0.0
934,50.0,6.0,20.0,0.0,0.0
935,79.0,6.0,15.0,0.0,0.0
936,83.0,6.0,15.0,0.0,0.0
937,78.0,0.0,15.0,0.0,0.0
938,59.0,0.0,20.0,0.0,0.0
939,77.0,6.0,15.0,0.0,0.0
940,83.0,6.0,15.0,0.0,0.0
941,76.0,6.0,15.0,0.0,0.0
942,74.0,6.0,15.0,0.0,0.0
943,53.0,0.0,20.0,0.0,0.0
944,77.0,6.0,15.0,0.0,0.0
945,73.0,6.0,15.0,0.0,0.0
946,71.0,6.0,15.0,0.0,0.0
947,74.0,6.0,15.0,0.0,0.0
948,69.0,6.0,15.0,0.0,0.0
949,62.0,6.0,20.0,0.0,0.0
950,67.0,6.0,15.0,0.0,0.0
951,71.0,6.0,15.0,0.0,0.0
952,66.0,0.0,15.0,0.0,0.0
953,65.0,6.0,15.0,0.0,0.0
954,50.0,0.0,20.0,0.0,0.0
955,62.0,6.0,15.0,0.0,0.0
956,61.0,6.0,15.0,0.0,0.0
957,59.0,12.0,15.0,0.0,0.0
958,58.0,3.0,15.0,0.0,0.0
959,42.0,14.0,15.0,0.0,0.0
960,49.0,14.0,15.0,0.0,0.0
961,66.0,6.0,90.0,0.0,0.0
962,54.0,14.0,15.0,0.0,0.0
963,58.0,15.0,15.0,0.0,0.0
964,54.0,30.0,15.0,0.0,0.0
965,61.0,18.0,30.0,0.0,0.0
966,67.0,12.0,15.0,0.0,0.0
967,68.0,30.0,15.0,0.0,0.0
968,37.0,0.0,20.0,0.0,0.0
969,69.0,24.0,20.0,0.0,0.0
970,45.0,12.0,20.0,0.0,0.0
971,71.0,12.0,40.0,0.0,0.0
972,55.0,24.0,20.0,0.0,0.0
973,69.0,0.0,15.0,0.0,0.0
974,64.0,20.0,40.0,0.0,0.0
975,49.0,24.0,20.0,0.0,0.0
976,57.0,0.0,20.0,0.0,0.0
977,45.0,24.0,20.0,0.0,0.0
978,69.0,4.0,20.0,0.0,0.0
979,38.0,24.0,20.0,0.0,0.0
980,78.0,0.0,60.0,0.0,0.0
981,45.0,24.0,20.0,0.0,0.0
982,54.0,18.0,20.0,0.0,0.0
983,76.0,6.0,20.0,0.0,0.0
984,50.0,12.0,20.0,0.0,0.0
985,74.0,12.0,20.0,0.0,0.0
986,57.0,6.0,20.0,0.0,0.0
987,73.0,18.0,20.0,0.0,0.0
988,45.0,14.0,20.0,0.0,0.0
989,71.0,0.0,20.0,0.0,0.0
990,37.0,24.0,20.0,0.0,0.0
991,69.0,5.0,15.0,0.0,0.0
992,71.0,5.0,15.0,0.0,0.0
993,73.0,0.0,15.0,0.0,0.0
994,45.0,12.0,20.0,0.0,0.0
995,71.0,12.0,40.0,0.0,0.0
996,55.0,0.0,20.0,0.0,0.0
997,69.0,24.0,15.0,0.0,0.0
998,64.0,0.0,40.0,0.0,0.0
999,49.0,24.0,20.0,0.0,0.0
1000,57.0,16.0,20.0,0.0,0.0
1001,69.0,8.0,15.0,0.0,0.0
1002,45.0,0.0,20.0,0.0,0.0
1003,62.0,0.0,15.0,0.0,0.0
1004,69.0,24.0,15.0,0.0,0.0
1005,38.0,24.0,20.0,0.0,0.0
1006,78.0,0.0,20.0,0.0,0.0
1007,79.0,12.0,40.0,0.0,0.0
1008,45.0,12.0,20.0,0.0,0.0
1009,54.0,0.0,20.0,0.0,0.0
1010,78.0,18.0,15.0,0.0,0.0
1011,50.0,12.0,20.0,0.0,0.0
1012,76.0,6.0,20.0,0.0,0.0
1013,74.0,12.0,20.0,0.0,0.0
1014,57.0,6.0,20.0,0.0,0.0
1015,73.0,18.0,20.0,0.0,0.0
1016,45.0,24.0,20.0,0.0,0.0
1017,71.0,0.0,20.0,0.0,0.0
1018,69.0,0.0,20.0,0.0,0.0
1019,37.0,24.0,20.0,0.0,0.0
1020,71.0,0.0,20.0,0.0,0.0
1021,45.0,10.0,20.0,0.0,0.0
1022,69.0,14.0,15.0,0.0,0.0
1023,55.0,24.0,20.0,0.0,0.0
1024,69.0,0.0,15.0,0.0,0.0
1025,49.0,24.0,20.0,0.0,0.0
1026,64.0,0.0,40.0,0.0,0.0
1027,57.0,24.0,20.0,0.0,0.0
1028,69.0,0.0,20.0,0.0,0.0
1029,45.0,24.0,20.0,0.0,0.0
1030,72.0,2.0,150.0,0.0,0.0
1031,38.0,24.0,20.0,0.0,0.0
1032,45.0,24.0,20.0,0.0,0.0
1033,55.0,24.0,20.0,0.0,0.0
1034,51.0,24.0,20.0,0.0,0.0
1035,60.0,22.0,20.0,0.0,0.0
1036,55.0,24.0,20.0,0.0,0.0
1037,38.0,6.0,20.0,0.0,0.0
1038,45.0,6.0,20.0,0.0,0.0
1039,62.0,12.0,15.0,0.0,0.0
1040,64.0,6.0,15.0,0.0,0.0
1041,54.0,24.0,20.0,0.0,0.0
1042,66.0,12.0,15.0,0.0,0.0
1043,67.0,6.0,15.0,0.0,0.0
1044,69.0,24.0,20.0,0.0,0.0
1045,50.0,0.0,20.0,0.0,0.0
1046,60.0,24.0,20.0,0.0,0.0
1047,70.0,16.0,20.0,0.0,0.0
1048,54.0,0.0,20.0,0.0,0.0
1049,43.0,16.0,15.0,0.0,0.0
1050,67.0,12.0,120.0,0.0,0.0
1051,49.0,16.0,15.0,0.0,0.0
1052,58.0,0.0,40.0,0.0,0.0
1053,62.0,4.0,40.0,0.0,0.0
1054,50.0,12.0,15.0,0.0,0.0
1055,51.0,16.0,15.0,0.0,0.0
1056,50.0,4.0,15.0,0.0,0.0
1057,62.0,12.0,15.0,0.0,0.0
1058,58.0,0.0,15.0,0.0,0.0
1059,38.0,12.0,15.0,0.0,0.0
1060,58.0,0.0,15.0,0.0,0.0
1061,43.0,16.0,15.0,0.0,0.0
1062,62.0,4.0,15.0,0.0,0.0
1063,49.0,4.0,15.0,0.0,0.0
1064,62.0,0.0,40.0,0.0,0.0
1065,58.0,4.0,40.0,0.0,0.0
1066,50.0,12.0,15.0,0.0,0.0
1067,51.0,16.0,15.0,0.0,0.0
1068,66.0,0.0,40.0,0.0,0.0
1069,50.0,4.0,15.0,0.0,0.0
1070,58.0,0.0,15.0,0.0,0.0
1071,62.0,12.0,15.0,0.0,0.0
1072,38.0,16.0,15.0,0.0,0.0
1073,67.0,0.0,15.0,0.0,0.0
1074,70.0,0.0,90.0,0.0,0.0
1075,43.0,16.0,15.0,0.0,0.0
1076,50.0,16.0,15.0,0.0,0.0
1077,67.0,0.0,40.0,0.0,0.0
1078,60.0,4.0,40.0,0.0,0.0
1079,63.0,0.0,40.0,0.0,0.0
1080,51.0,12.0,15.0,0.0,0.0
1081,53.0,16.0,15.0,0.0,0.0
1082,51.0,4.0,15.0,0.0,0.0
1083,67.0,0.0,15.0,0.0,0.0
1084,63.0,0.0,15.0,0.0,0.0
1085,60.0,12.0,15.0,0.0,0.0
1086,43.0,12.0,15.0,0.0,0.0
1087,69.0,0.0,90.0,0.0,0.0
1088,48.0,16.0,15.0,0.0,0.0
1089,67.0,4.0,15.0,0.0,0.0
1090,60.0,0.0,15.0,0.0,0.0
1091,63.0,0.0,15.0,0.0,0.0
1092,50.0,16.0,15.0,0.0,0.0
1093,60.0,0.0,40.0,0.0,0.0
1094,63.0,0.0,40.0,0.0,0.0
1095,67.0,4.0,40.0,0.0,0.0
1096,51.0,12.0,15.0,0.0,0.0
1097,53.0,15.0,15.0,0.0,0.0
1098,51.0,5.0,15.0,0.0,0.0
1099,60.0,0.0,15.0,0.0,0.0
1100,67.0,12.0,15.0,0.0,0.0
1101,63.0,0.0,15.0,0.0,0.0
1102,43.0,12.0,15.0,0.0,0.0
1103,59.0,0.0,15.0,0.0,0.0
1104,65.0,0.0,15.0,0.0,0.0
1105,67.0,4.0,15.0,0.0,0.0
1106,71.0,12.0,120.0,0.0,0.0
1107,50.0,16.0,15.0,0.0,0.0
1108,54.0,16.0,15.0,0.0,0.0
1109,59.0,4.0,40.0,0.0,0.0
1110,65.0,0.0,40.0,0.0,0.0
1111,67.0,0.0,40.0,0.0,0.0
1112,55.0,12.0,15.0,0.0,0.0
1113,56.0,16.0,15.0,0.0,0.0
1114,55.0,16.0,15.0,0.0,0.0
1115,67.0,0.0,40.0,0.0,0.0
1116,59.0,4.0,40.0,0.0,0.0
1117,65.0,0.0,40.0,0.0,0.0
1118,43.0,12.0,15.0,0.0,0.0
1119,50.0,16.0,15.0,0.0,0.0
1120,54.0,4.0,15.0,0.0,0.0
1121,65.0,0.0,40.0,0.0,0.0
1122,59.0,0.0,40.0,0.0,0.0
1123,67.0,4.0,40.0,0.0,0.0
1124,55.0,12.0,15.0,0.0,0.0
1125,70.0,8.0,20.0,0.0,0.0
1126,56.0,8.0,15.0,0.0,0.0
1127,55.0,4.0,15.0,0.0,0.0
1128,67.0,12.0,15.0,0.0,0.0
1129,59.0,0.0,15.0,0.0,0.0
1130,65.0,0.0,15.0,0.0,0.0
1131,71.0,0.0,15.0,0.0,0.0
1132,43.0,16.0,15.0,0.0,0.0
1133,74.0,16.0,90.0,0.0,0.0
1134,48.0,16.0,15.0,0.0,0.0
1135,54.0,16.0,15.0,0.0,0.0
1136,63.0,0.0,40.0,0.0,0.0
1137,67.0,4.0,40.0,0.0,0.0
1138,55.0,12.0,15.0,0.0,0.0
1139,56.0,16.0,15.0,0.0,0.0
1140,55.0,16.0,15.0,0.0,0.0
1141,63.0,12.0,60.0,0.0,0.0
1142,67.0,0.0,60.0,0.0,0.0
1143,43.0,0.0,15.0,0.0,0.0
1144,72.0,0.0,40.0,0.0,0.0
1145,48.0,16.0,15.0,0.0,0.0
1146,54.0,4.0,15.0,0.0,0.0
1147,55.0,16.0,15.0,0.0,0.0
1148,67.0,12.0,90.0,0.0,0.0
1149,79.0,12.0,40.0,0.0,0.0
1150,56.0,16.0,15.0,0.0,0.0
1151,55.0,4.0,15.0,0.0,0.0
1152,43.0,16.0,15.0,0.0,0.0
1153,63.0,0.0,40.0,0.0,0.0
1154,48.0,16.0,15.0,0.0,0.0
1155,72.0,0.0,40.0,0.0,0.0
1156,54.0,4.0,15.0,0.0,0.0
1157,55.0,17.0,15.0,0.0,0.0
1158,72.0,0.0,40.0,0.0,0.0
1159,57.0,16.0,15.0,0.0,0.0
1160,67.0,0.0,40.0,0.0,0.0
1161,63.0,12.0,40.0,0.0,0.0
1162,55.0,3.0,15.0,0.0,0.0
1163,43.0,16.0,15.0,0.0,0.0
1164,74.0,0.0,15.0,0.0,0.0
1165,70.0,0.0,40.0,0.0,0.0
1166,62.0,0.0,40.0,0.0,0.0
1167,67.0,12.0,40.0,0.0,0.0
1168,50.0,16.0,15.0,0.0,0.0
1169,54.0,4.0,15.0,0.0,0.0
1170,55.0,16.0,15.0,0.0,0.0
1171,67.0,0.0,40.0,0.0,0.0
1172,62.0,12.0,40.0,0.0,0.0
1173,57.0,17.0,15.0,0.0,0.0
1174,70.0,0.0,40.0,0.0,0.0
1175,55.0,3.0,15.0,0.0,0.0
1176,43.0,0.0,15.0,0.0,0.0
1177,72.0,12.0,15.0,0.0,0.0
1178,60.0,4.0,15.0,0.0,0.0
1179,69.0,0.0,15.0,0.0,0.0
1180,67.0,0.0,15.0,0.0,0.0
1181,51.0,16.0,15.0,0.0,0.0
1182,54.0,16.0,15.0,0.0,0.0
1183,55.0,16.0,15.0,0.0,0.0
1184,79.0,16.0,40.0,0.0,0.0
1185,57.0,16.0,15.0,0.0,0.0
1186,67.0,0.0,40.0,0.0,0.0
1187,55.0,16.0,15.0,0.0,0.0
1188,43.0,0.0,15.0,0.0,0.0
1189,50.0,16.0,15.0,0.0,0.0
1190,54.0,16.0,15.0,0.0,0.0
1191,55.0,16.0,15.0,0.0,0.0
1192,67.0,12.0,40.0,0.0,0.0
1193,57.0,16.0,15.0,0.0,0.0
1194,70.0,0.0,40.0,0.0,0.0
1195,62.0,0.0,40.0,0.0,0.0
1196,55.0,4.0,15.0,0.0,0.0
1197,43.0,16.0,15.0,0.0,0.0
1198,69.0,12.0,40.0,0.0,0.0
1199,67.0,0.0,90.0,0.0,0.0
1200,63.0,6.0,90.0,0.0,0.0
1201,48.0,16.0,15.0,0.0,0.0
1202,54.0,4.0,15.0,0.0,0.0
1203,55.0,16.0,15.0,0.0,0.0
1204,69.0,8.0,20.0,0.0,0.0
1205,57.0,8.0,15.0,0.0,0.0
1206,55.0,4.0,15.0,0.0,0.0
1207,43.0,16.0,15.0,0.0,0.0
1208,69.0,6.0,15.0,0.0,0.0
1209,50.0,16.0,15.0,0.0,0.0
1210,67.0,0.0,90.0,0.0,0.0
1211,69.0,12.0,40.0,0.0,0.0
1212,62.0,12.0,90.0,0.0,0.0
1213,54.0,4.0,15.0,0.0,0.0
1214,55.0,0.0,15.0,0.0,0.0
1215,72.0,16.0,15.0,0.0,0.0
1216,70.0,0.0,40.0,0.0,0.0
1217,57.0,16.0,15.0,0.0,0.0
1218,55.0,4.0,15.0,0.0,0.0
1219,43.0,0.0,15.0,0.0,0.0
1220,69.0,16.0,15.0,0.0,0.0
1221,67.0,0.0,90.0,0.0,0.0
1222,61.0,0.0,90.0,0.0,0.0
1223,52.0,16.0,15.0,0.0,0.0
1224,54.0,16.0,15.0,0.0,0.0
1225,55.0,16.0,15.0,0.0,0.0
1226,57.0,16.0,15.0,0.0,0.0
1227,55.0,4.0,15.0,0.0,0.0
1228,43.0,16.0,15.0,0.0,0.0
1229,66.0,6.0,90.0,0.0,0.0
1230,69.0,0.0,90.0,0.0,0.0
1231,51.0,16.0,15.0,0.0,0.0
1232,60.0,15.0,90.0,0.0,0.0
1233,54.0,16.0,15.0,0.0,0.0
1234,55.0,16.0,15.0,0.0,0.0
1235,57.0,16.0,15.0,0.0,0.0
1236,55.0,8.0,15.0,0.0,0.0
1237,43.0,1.0,15.0,0.0,0.0
1238,67.0,2.0,15.0,0.0,0.0
1239,43.0,16.0,15.0,0.0,0.0
1240,67.0,12.0,120.0,0.0,0.0
1241,49.0,16.0,15.0,0.0,0.0
1242,58.0,4.0,40.0,0.0,0.0
1243,62.0,0.0,40.0,0.0,0.0
1244,50.0,12.0,15.0,0.0,0.0
1245,51.0,16.0,15.0,0.0,0.0
1246,50.0,4.0,15.0,0.0,0.0
1247,62.0,12.0,15.0,0.0,0.0
1248,58.0,0.0,15.0,0.0,0.0
1249,38.0,12.0,15.0,0.0,0.0
1250,43.0,16.0,15.0,0.0,0.0
1251,58.0,4.0,15.0,0.0,0.0
1252,62.0,0.0,15.0,0.0,0.0
1253,49.0,4.0,15.0,0.0,0.0
1254,62.0,4.0,40.0,0.0,0.0
1255,58.0,0.0,40.0,0.0,0.0
1256,50.0,12.0,15.0,0.0,0.0
1257,66.0,12.0,40.0,0.0,0.0
1258,51.0,16.0,15.0,0.0,0.0
1259,50.0,4.0,15.0,0.0,0.0
1260,58.0,0.0,15.0,0.0,0.0
1261,62.0,0.0,15.0,0.0,0.0
1262,38.0,16.0,15.0,0.0,0.0
1263,67.0,0.0,15.0,0.0,0.0
1264,70.0,0.0,90.0,0.0,0.0
1265,43.0,16.0,15.0,0.0,0.0
1266,50.0,16.0,15.0,0.0,0.0
1267,60.0,4.0,40.0,0.0,0.0
1268,63.0,0.0,40.0,0.0,0.0
1269,67.0,0.0,40.0,0.0,0.0
1270,51.0,12.0,15.0,0.0,0.0
1271,53.0,16.0,15.0,0.0,0.0
1272,51.0,4.0,15.0,0.0,0.0
1273,67.0,0.0,15.0,0.0,0.0
1274,63.0,12.0,15.0,0.0,0.0
1275,60.0,0.0,15.0,0.0,0.0
1276,43.0,12.0,15.0,0.0,0.0
1277,63.0,4.0,15.0,0.0,0.0
1278,60.0,0.0,15.0,0.0,0.0
1279,67.0,0.0,15.0,0.0,0.0
1280,48.0,16.0,15.0,0.0,0.0
1281,69.0,0.0,90.0,0.0,0.0
1282,50.0,16.0,15.0,0.0,0.0
1283,63.0,4.0,40.0,0.0,0.0
1284,60.0,0.0,40.0,0.0,0.0
1285,67.0,0.0,40.0,0.0,0.0
1286,51.0,12.0,15.0,0.0,0.0
1287,53.0,15.0,15.0,0.0,0.0
1288,51.0,5.0,15.0,0.0,0.0
1289,63.0,0.0,15.0,0.0,0.0
1290,67.0,0.0,15.0,0.0,0.0
1291,60.0,12.0,15.0,0.0,0.0
1292,43.0,12.0,15.0,0.0,0.0
1293,50.0,16.0,15.0,0.0,0.0
1294,71.0,12.0,120.0,0.0,0.0
1295,67.0,4.0,15.0,0.0,0.0
1296,65.0,0.0,15.0,0.0,0.0
1297,59.0,0.0,15.0,0.0,0.0
1298,54.0,16.0,15.0,0.0,0.0
1299,65.0,0.0,40.0,0.0,0.0
1300,67.0,4.0,40.0,0.0,0.0
1301,59.0,0.0,40.0,0.0,0.0
1302,55.0,12.0,15.0,0.0,0.0
1303,56.0,16.0,15.0,0.0,0.0
1304,55.0,16.0,15.0,0.0,0.0
1305,59.0,0.0,40.0,0.0,0.0
1306,65.0,4.0,40.0,0.0,0.0
1307,67.0,0.0,40.0,0.0,0.0
1308,43.0,12.0,15.0,0.0,0.0
1309,50.0,16.0,15.0,0.0,0.0
1310,54.0,4.0,15.0,0.0,0.0
1311,59.0,4.0,40.0,0.0,0.0
1312,67.0,0.0,40.0,0.0,0.0
1313,65.0,0.0,40.0,0.0,0.0
1314,55.0,12.0,15.0,0.0,0.0
1315,56.0,8.0,15.0,0.0,0.0
1316,70.0,8.0,20.0,0.0,0.0
1317,55.0,4.0,15.0,0.0,0.0
1318,59.0,0.0,15.0,0.0,0.0
1319,65.0,12.0,15.0,0.0,0.0
1320,67.0,0.0,15.0,0.0,0.0
1321,71.0,0.0,15.0,0.0,0.0
1322,43.0,12.0,15.0,0.0,0.0
1323,72.0,16.0,90.0,0.0,0.0
1324,60.0,0.0,15.0,0.0,0.0
1325,44.0,16.0,15.0,0.0,0.0
1326,63.0,4.0,15.0,0.0,0.0
1327,50.0,16.0,15.0,0.0,0.0
1328,60.0,16.0,40.0,0.0,0.0
1329,63.0,0.0,40.0,0.0,0.0
1330,51.0,16.0,15.0,0.0,0.0
1331,53.0,0.0,15.0,0.0,0.0
1332,51.0,16.0,15.0,0.0,0.0
1333,63.0,0.0,60.0,0.0,0.0
1334,60.0,12.0,60.0,0.0,0.0
1335,39.0,0.0,15.0,0.0,0.0
1336,44.0,16.0,15.0,0.0,0.0
1337,50.0,4.0,15.0,0.0,0.0
1338,51.0,16.0,15.0,0.0,0.0
1339,63.0,12.0,90.0,0.0,0.0
1340,53.0,16.0,15.0,0.0,0.0
1341,60.0,0.0,90.0,0.0,0.0
1342,51.0,16.0,15.0,0.0,0.0
1343,39.0,16.0,15.0,0.0,0.0
1344,68.0,0.0,40.0,0.0,0.0
1345,44.0,16.0,15.0,0.0,0.0
1346,50.0,4.0,15.0,0.0,0.0
1347,51.0,16.0,15.0,0.0,0.0
1348,68.0,12.0,40.0,0.0,0.0
1349,63.0,0.0,40.0,0.0,0.0
1350,60.0,0.0,40.0,0.0,0.0
1351,53.0,16.0,15.0,0.0,0.0
1352,51.0,4.0,15.0,0.0,0.0
1353,39.0,16.0,15.0,0.0,0.0
1354,70.0,0.0,15.0,0.0,0.0
1355,67.0,12.0,40.0,0.0,0.0
1356,58.0,0.0,40.0,0.0,0.0
1357,46.0,16.0,15.0,0.0,0.0
1358,63.0,0.0,40.0,0.0,0.0
1359,50.0,4.0,15.0,0.0,0.0
1360,51.0,16.0,15.0,0.0,0.0
1361,53.0,16.0,15.0,0.0,0.0
1362,67.0,12.0,40.0,0.0,0.0
1363,58.0,0.0,40.0,0.0,0.0
1364,63.0,0.0,40.0,0.0,0.0
1365,51.0,4.0,15.0,0.0,0.0
1366,39.0,12.0,15.0,0.0,0.0
1367,68.0,0.0,15.0,0.0,0.0
1368,63.0,0.0,15.0,0.0,0.0
1369,56.0,0.0,15.0,0.0,0.0
1370,65.0,4.0,15.0,0.0,0.0
1371,48.0,16.0,15.0,0.0,0.0
1372,50.0,16.0,15.0,0.0,0.0
1373,51.0,16.0,15.0,0.0,0.0
1374,65.0,0.0,40.0,0.0,0.0
1375,63.0,16.0,40.0,0.0,0.0
1376,53.0,16.0,15.0,0.0,0.0
1377,75.0,0.0,40.0,0.0,0.0
1378,51.0,16.0,15.0,0.0,0.0
1379,39.0,0.0,15.0,0.0,0.0
1380,46.0,16.0,15.0,0.0,0.0
1381,50.0,16.0,15.0,0.0,0.0
1382,51.0,16.0,15.0,0.0,0.0
1383,53.0,16.0,15.0,0.0,0.0
1384,58.0,12.0,40.0,0.0,0.0
1385,63.0,0.0,40.0,0.0,0.0
1386,67.0,0.0,40.0,0.0,0.0
1387,51.0,4.0,15.0,0.0,0.0
1388,39.0,16.0,15.0,0.0,0.0
1389,60.0,0.0,40.0,0.0,0.0
1390,63.0,0.0,40.0,0.0,0.0
1391,68.0,12.0,40.0,0.0,0.0
1392,44.0,16.0,15.0,0.0,0.0
1393,50.0,4.0,15.0,0.0,0.0
1394,51.0,16.0,15.0,0.0,0.0
1395,60.0,6.0,40.0,0.0,0.0
1396,68.0,8.0,20.0,0.0,0.0
1397,63.0,0.0,40.0,0.0,0.0
1398,53.0,8.0,15.0,0.0,0.0
1399,51.0,4.0,15.0,0.0,0.0
1400,39.0,16.0,15.0,0.0,0.0
1401,70.0,6.0,15.0,0.0,0.0
1402,58.0,0.0,40.0,0.0,0.0
1403,63.0,0.0,40.0,0.0,0.0
1404,67.0,12.0,40.0,0.0,0.0
1405,46.0,16.0,15.0,0.0,0.0
1406,50.0,4.0,15.0,0.0,0.0
1407,51.0,16.0,15.0,0.0,0.0
1408,63.0,0.0,40.0,0.0,0.0
1409,67.0,12.0,40.0,0.0,0.0
1410,53.0,16.0,15.0,0.0,0.0
1411,58.0,0.0,40.0,0.0,0.0
1412,51.0,4.0,15.0,0.0,0.0
1413,39.0,16.0,15.0,0.0,0.0
1414,68.0,0.0,15.0,0.0,0.0
1415,57.0,12.0,90.0,0.0,0.0
1416,63.0,16.0,150.0,0.0,0.0
1417,66.0,0.0,150.0,0.0,0.0
1418,48.0,16.0,15.0,0.0,0.0
1419,50.0,16.0,15.0,0.0,0.0
1420,48.0,16.0,15.0,0.0,0.0
1421,50.0,16.0,15.0,0.0,0.0
1422,48.0,4.0,15.0,0.0,0.0
1423,46.0,16.0,15.0,0.0,0.0
1424,60.0,0.0,40.0,0.0,0.0
1425,45.0,16.0,15.0,0.0,0.0
1426,46.0,16.0,15.0,0.0,0.0
1427,45.0,0.0,15.0,0.0,0.0
1428,46.0,16.0,15.0,0.0,0.0
1429,45.0,16.0,15.0,0.0,0.0
1430,38.0,16.0,15.0,0.0,0.0
1431,70.0,8.0,90.0,0.0,0.0
1432,43.0,16.0,15.0,0.0,0.0
1433,62.0,0.0,90.0,0.0,0.0
1434,58.0,0.0,90.0,0.0,0.0
1435,49.0,16.0,15.0,0.0,0.0
1436,50.0,16.0,15.0,0.0,0.0
1437,51.0,16.0,15.0,0.0,0.0
1438,50.0,8.0,15.0,0.0,0.0
1439,38.0,16.0,15.0,0.0,0.0
1440,60.0,6.0,90.0,0.0,0.0
1441,62.0,0.0,90.0,0.0,0.0
1442,70.0,0.0,40.0,0.0,0.0
1443,42.0,16.0,15.0,0.0,0.0
1444,49.0,16.0,15.0,0.0,0.0
1445,50.0,16.0,15.0,0.0,0.0
1446,51.0,16.0,15.0,0.0,0.0
1447,69.0,0.0,40.0,0.0,0.0
1448,50.0,4.0,15.0,0.0,0.0
1449,38.0,16.0,15.0,0.0,0.0
1450,67.0,6.0,15.0,0.0,0.0
1451,58.0,0.0,90.0,0.0,0.0
1452,67.0,0.0,90.0,0.0,0.0
1453,62.0,0.0,90.0,0.0,0.0
1454,43.0,16.0,15.0,0.0,0.0
1455,49.0,16.0,15.0,0.0,0.0
1456,50.0,16.0,15.0,0.0,0.0
1457,51.0,16.0,15.0,0.0,0.0
1458,50.0,16.0,15.0,0.0,0.0
1459,38.0,16.0,15.0,0.0,0.0
1460,43.0,16.0,15.0,0.0,0.0
1461,49.0,16.0,15.0,0.0,0.0
1462,50.0,16.0,15.0,0.0,0.0
1463,51.0,16.0,15.0,0.0,0.0
1464,50.0,16.0,15.0,0.0,0.0
1465,38.0,16.0,15.0,0.0,0.0
1466,64.0,0.0,90.0,0.0,0.0
1467,57.0,12.0,90.0,0.0,0.0
1468,37.0,16.0,15.0,0.0,0.0
1469,67.0,0.0,90.0,0.0,0.0
1470,69.0,0.0,90.0,0.0,0.0
1471,44.0,16.0,15.0,0.0,0.0
1472,45.0,16.0,15.0,0.0,0.0
1473,46.0,16.0,15.0,0.0,0.0
1474,45.0,4.0,15.0,0.0,0.0
1475,37.0,16.0,15.0,0.0,0.0
1476,65.0,0.0,90.0,0.0,0.0
1477,69.0,4.0,60.0,0.0,0.0
1478,62.0,0.0,90.0,0.0,0.0
1479,57.0,0.0,90.0,0.0,0.0
1480,38.0,16.0,15.0,0.0,0.0
1481,44.0,16.0,15.0,0.0,0.0
1482,45.0,12.0,15.0,0.0,0.0
1483,46.0,16.0,15.0,0.0,0.0
1484,45.0,4.0,15.0,0.0,0.0
1485,69.0,12.0,15.0,0.0,0.0
1486,38.0,16.0,15.0,0.0,0.0
1487,39.0,16.0,15.0,0.0,0.0
1488,60.0,0.0,180.0,0.0,0.0
1489,72.0,0.0,240.0,0.0,0.0
1490,69.0,8.0,180.0,0.0,0.0
1491,66.0,12.0,90.0,0.0,0.0
1492,47.0,16.0,15.0,0.0,0.0
1493,48.0,16.0,15.0,0.0,0.0
1494,50.0,16.0,15.0,0.0,0.0
1495,48.0,4.0,15.0,0.0,0.0
1496,39.0,16.0,15.0,0.0,0.0
1497,40.0,16.0,15.0,0.0,0.0
1498,64.0,0.0,90.0,0.0,0.0
1499,47.0,16.0,15.0,0.0,0.0
1500,48.0,16.0,15.0,0.0,0.0
1501,50.0,16.0,15.0,0.0,0.0
1502,48.0,8.0,15.0,0.0,0.0
1503,40.0,16.0,15.0,0.0,0.0
1504,41.0,16.0,15.0,0.0,0.0
1505,63.0,12.0,40.0,0.0,0.0
1506,52.0,4.0,15.0,0.0,0.0
1507,53.0,16.0,15.0,0.0,0.0
1508,65.0,0.0,40.0,0.0,0.0
1509,72.0,0.0,40.0,0.0,0.0
1510,63.0,12.0,40.0,0.0,0.0
1511,54.0,16.0,15.0,0.0,0.0
1512,53.0,4.0,15.0,0.0,0.0
1513,41.0,0.0,15.0,0.0,0.0
1514,73.0,16.0,15.0,0.0,0.0
1515,61.0,12.0,40.0,0.0,0.0
1516,65.0,0.0,40.0,0.0,0.0
1517,70.0,0.0,40.0,0.0,0.0
1518,46.0,16.0,15.0,0.0,0.0
1519,52.0,4.0,15.0,0.0,0.0
1520,53.0,16.0,15.0,0.0,0.0
1521,54.0,16.0,15.0,0.0,0.0
1522,65.0,0.0,40.0,0.0,0.0
1523,61.0,12.0,40.0,0.0,0.0
1524,70.0,0.0,40.0,0.0,0.0
1525,53.0,4.0,15.0,0.0,0.0
1526,41.0,12.0,15.0,0.0,0.0
1527,72.0,0.0,15.0,0.0,0.0
1528,65.0,0.0,15.0,0.0,0.0
1529,60.0,4.0,15.0,0.0,0.0
1530,69.0,0.0,15.0,0.0,0.0
1531,48.0,16.0,15.0,0.0,0.0
1532,52.0,16.0,15.0,0.0,0.0
1533,53.0,16.0,15.0,0.0,0.0
1534,54.0,16.0,15.0,0.0,0.0
1535,77.0,16.0,40.0,0.0,0.0
1536,65.0,0.0,40.0,0.0,0.0
1537,53.0,16.0,15.0,0.0,0.0
1538,48.0,0.0,15.0,0.0,0.0
1539,41.0,16.0,15.0,0.0,0.0
1540,47.0,16.0,15.0,0.0,0.0
1541,48.0,16.0,15.0,0.0,0.0
1542,63.0,12.0,40.0,0.0,0.0
1543,50.0,16.0,15.0,0.0,0.0
1544,69.0,0.0,40.0,0.0,0.0
1545,48.0,4.0,15.0,0.0,0.0
1546,41.0,16.0,15.0,0.0,0.0
1547,68.0,12.0,40.0,0.0,0.0
1548,64.0,0.0,40.0,0.0,0.0
1549,40.0,16.0,15.0,0.0,0.0
1550,46.0,4.0,15.0,0.0,0.0
1551,47.0,16.0,15.0,0.0,0.0
1552,59.0,12.0,40.0,0.0,0.0
1553,49.0,16.0,15.0,0.0,0.0
1554,68.0,0.0,40.0,0.0,0.0
1555,47.0,4.0,15.0,0.0,0.0
1556,35.0,16.0,15.0,0.0,0.0
1557,69.0,0.0,15.0,0.0,0.0
1558,57.0,12.0,40.0,0.0,0.0
1559,39.0,16.0,15.0,0.0,0.0
1560,66.0,0.0,40.0,0.0,0.0
1561,46.0,4.0,15.0,0.0,0.0
1562,47.0,16.0,15.0,0.0,0.0
1563,66.0,12.0,40.0,0.0,0.0
1564,57.0,0.0,40.0,0.0,0.0
1565,48.0,16.0,15.0,0.0,0.0
1566,59.0,0.0,40.0,0.0,0.0
1567,47.0,4.0,15.0,0.0,0.0
1568,35.0,12.0,15.0,0.0,0.0
1569,68.0,0.0,15.0,0.0,0.0
1570,64.0,4.0,15.0,0.0,0.0
1571,56.0,0.0,15.0,0.0,0.0
1572,40.0,16.0,15.0,0.0,0.0
1573,46.0,16.0,15.0,0.0,0.0
1574,47.0,16.0,15.0,0.0,0.0
1575,48.0,16.0,15.0,0.0,0.0
1576,76.0,16.0,40.0,0.0,0.0
1577,64.0,0.0,40.0,0.0,0.0
1578,47.0,16.0,15.0,0.0,0.0
1579,35.0,0.0,15.0,0.0,0.0
1580,40.0,16.0,15.0,0.0,0.0
1581,46.0,16.0,15.0,0.0,0.0
1582,47.0,16.0,15.0,0.0,0.0
1583,48.0,16.0,15.0,0.0,0.0
1584,47.0,16.0,15.0,0.0,0.0
1585,40.0,16.0,15.0,0.0,0.0
1586,39.0,16.0,15.0,0.0,0.0
1587,66.0,0.0,90.0,0.0,0.0
1588,69.0,0.0,90.0,0.0,0.0
1589,71.0,12.0,90.0,0.0,0.0
1590,59.0,0.0,90.0,0.0,0.0
1591,46.0,16.0,15.0,0.0,0.0
1592,47.0,16.0,15.0,0.0,0.0
1593,48.0,16.0,15.0,0.0,0.0
1594,47.0,4.0,15.0,0.0,0.0
1595,39.0,16.0,15.0,0.0,0.0
1596,59.0,0.0,90.0,0.0,0.0
1597,40.0,16.0,15.0,0.0,0.0
1598,71.0,4.0,60.0,0.0,0.0
1599,67.0,0.0,90.0,0.0,0.0
1600,64.0,12.0,90.0,0.0,0.0
1601,46.0,16.0,15.0,0.0,0.0
1602,47.0,12.0,15.0,0.0,0.0
1603,48.0,16.0,15.0,0.0,0.0
1604,47.0,4.0,15.0,0.0,0.0
1605,71.0,0.0,15.0,0.0,0.0
1606,40.0,16.0,15.0,0.0,0.0
1607,41.0,16.0,15.0,0.0,0.0
1608,74.0,0.0,240.0,0.0,0.0
1609,71.0,8.0,180.0,0.0,0.0
1610,68.0,12.0,90.0,0.0,0.0
1611,62.0,0.0,180.0,0.0,0.0
1612,49.0,16.0,15.0,0.0,0.0
1613,50.0,16.0,15.0,0.0,0.0
1614,52.0,16.0,15.0,0.0,0.0
1615,50.0,4.0,15.0,0.0,0.0
1616,41.0,16.0,15.0,0.0,0.0
1617,66.0,0.0,90.0,0.0,0.0
1618,42.0,16.0,15.0,0.0,0.0
1619,49.0,16.0,15.0,0.0,0.0
1620,50.0,16.0,15.0,0.0,0.0
1621,52.0,16.0,15.0,0.0,0.0
1622,50.0,8.0,15.0,0.0,0.0
1623,42.0,16.0,15.0,0.0,0.0
1624,65.0,12.0,40.0,0.0,0.0
1625,43.0,16.0,15.0,0.0,0.0
1626,54.0,4.0,15.0,0.0,0.0
1627,55.0,16.0,15.0,0.0,0.0
1628,56.0,16.0,15.0,0.0,0.0
1629,65.0,0.0,40.0,0.0,0.0
1630,74.0,12.0,40.0,0.0,0.0
1631,55.0,4.0,15.0,0.0,0.0
1632,43.0,0.0,15.0,0.0,0.0
1633,75.0,16.0,15.0,0.0,0.0
1634,72.0,12.0,40.0,0.0,0.0
1635,63.0,0.0,40.0,0.0,0.0
1636,48.0,16.0,15.0,0.0,0.0
1637,54.0,4.0,15.0,0.0,0.0
1638,55.0,16.0,15.0,0.0,0.0
1639,63.0,0.0,40.0,0.0,0.0
1640,67.0,0.0,40.0,0.0,0.0
1641,56.0,16.0,15.0,0.0,0.0
1642,72.0,12.0,40.0,0.0,0.0
1643,55.0,4.0,15.0,0.0,0.0
1644,43.0,12.0,15.0,0.0,0.0
1645,74.0,0.0,15.0,0.0,0.0
1646,71.0,0.0,15.0,0.0,0.0
1647,62.0,4.0,15.0,0.0,0.0
1648,67.0,0.0,15.0,0.0,0.0
1649,50.0,16.0,15.0,0.0,0.0
1650,54.0,16.0,15.0,0.0,0.0
1651,55.0,16.0,15.0,0.0,0.0
1652,67.0,0.0,40.0,0.0,0.0
1653,79.0,0.0,40.0,0.0,0.0
1654,56.0,16.0,15.0,0.0,0.0
1655,55.0,16.0,15.0,0.0,0.0
1656,43.0,16.0,15.0,0.0,0.0
1657,37.0,16.0,15.0,0.0,0.0
1658,46.0,16.0,15.0,0.0,0.0
1659,47.0,16.0,15.0,0.0,0.0
1660,58.0,0.0,40.0,0.0,0.0
1661,64.0,12.0,40.0,0.0,0.0
1662,67.0,0.0,40.0,0.0,0.0
1663,48.0,16.0,15.0,0.0,0.0
1664,47.0,4.0,15.0,0.0,0.0
1665,37.0,16.0,15.0,0.0,0.0
1666,57.0,0.0,40.0,0.0,0.0
1667,66.0,12.0,40.0,0.0,0.0
1668,38.0,16.0,15.0,0.0,0.0
1669,44.0,4.0,15.0,0.0,0.0
1670,45.0,16.0,15.0,0.0,0.0
1671,47.0,16.0,15.0,0.0,0.0
1672,66.0,0.0,40.0,0.0,0.0
1673,57.0,12.0,40.0,0.0,0.0
1674,45.0,4.0,15.0,0.0,0.0
1675,33.0,16.0,15.0,0.0,0.0
1676,67.0,0.0,15.0,0.0,0.0
1677,55.0,12.0,40.0,0.0,0.0
1678,37.0,16.0,15.0,0.0,0.0
1679,64.0,0.0,40.0,0.0,0.0
1680,44.0,4.0,15.0,0.0,0.0
1681,45.0,16.0,15.0,0.0,0.0
1682,64.0,12.0,40.0,0.0,0.0
1683,57.0,0.0,40.0,0.0,0.0
1684,55.0,0.0,40.0,0.0,0.0
1685,46.0,16.0,15.0,0.0,0.0
1686,45.0,4.0,15.0,0.0,0.0
1687,33.0,16.0,15.0,0.0,0.0
1688,66.0,0.0,15.0,0.0,0.0
1689,62.0,0.0,20.0,0.0,0.0
1690,54.0,8.0,20.0,0.0,0.0
1691,38.0,8.0,15.0,0.0,0.0
1692,44.0,16.0,15.0,0.0,0.0
1693,45.0,16.0,15.0,0.0,0.0
1694,47.0,16.0,15.0,0.0,0.0
1695,57.0,0.0,40.0,0.0,0.0
1696,66.0,12.0,40.0,0.0,0.0
1697,45.0,4.0,15.0,0.0,0.0
1698,33.0,16.0,15.0,0.0,0.0
1699,67.0,0.0,15.0,0.0,0.0
1700,37.0,16.0,15.0,0.0,0.0
1701,55.0,0.0,40.0,0.0,0.0
1702,64.0,12.0,40.0,0.0,0.0
1703,44.0,4.0,15.0,0.0,0.0
1704,45.0,16.0,15.0,0.0,0.0
1705,57.0,0.0,40.0,0.0,0.0
1706,55.0,12.0,40.0,0.0,0.0
1707,46.0,16.0,15.0,0.0,0.0
1708,64.0,0.0,40.0,0.0,0.0
1709,45.0,4.0,15.0,0.0,0.0
1710,33.0,16.0,15.0,0.0,0.0
1711,66.0,0.0,15.0,0.0,0.0
1712,62.0,0.0,40.0,0.0,0.0
1713,54.0,0.0,40.0,0.0,0.0
1714,38.0,16.0,15.0,0.0,0.0
1715,44.0,16.0,15.0,0.0,0.0
1716,45.0,16.0,15.0,0.0,0.0
1717,46.0,16.0,15.0,0.0,0.0
1718,45.0,16.0,15.0,0.0,0.0
1719,33.0,16.0,15.0,0.0,0.0
1720,38.0,16.0,15.0,0.0,0.0
1721,44.0,16.0,15.0,0.0,0.0
1722,45.0,16.0,15.0,0.0,0.0
1723,46.0,16.0,15.0,0.0,0.0
1724,45.0,16.0,15.0,0.0,0.0
1725,33.0,16.0,15.0,0.0,0.0
1726,38.0,16.0,15.0,0.0,0.0
1727,44.0,16.0,15.0,0.0,0.0
1728,45.0,16.0,15.0,0.0,0.0
1729,46.0,16.0,15.0,0.0,0.0
1730,45.0,16.0,15.0,0.0,0.0
1731,38.0,16.0,15.0,0.0,0.0
1732,48.0,16.0,15.0,0.0,0.0
1733,46.0,16.0,15.0,0.0,0.0
1734,38.0,16.0,15.0,0.0,0.0
1735,50.0,16.0,15.0,0.0,0.0
1736,48.0,16.0,15.0,0.0,0.0
1737,38.0,16.0,15.0,0.0,0.0
1738,43.0,16.0,15.0,0.0,0.0
1739,67.0,12.0,120.0,0.0,0.0
1740,49.0,16.0,15.0,0.0,0.0
1741,62.0,4.0,40.0,0.0,0.0
1742,58.0,0.0,40.0,0.0,0.0
1743,50.0,12.0,15.0,0.0,0.0
1744,51.0,16.0,15.0,0.0,0.0
1745,50.0,4.0,15.0,0.0,0.0
1746,62.0,0.0,15.0,0.0,0.0
1747,58.0,12.0,15.0,0.0,0.0
1748,38.0,12.0,15.0,0.0,0.0
1749,43.0,16.0,15.0,0.0,0.0
1750,62.0,4.0,15.0,0.0,0.0
1751,58.0,0.0,15.0,0.0,0.0
1752,49.0,4.0,15.0,0.0,0.0
1753,58.0,0.0,40.0,0.0,0.0
1754,62.0,4.0,40.0,0.0,0.0
1755,50.0,12.0,15.0,0.0,0.0
1756,51.0,16.0,15.0,0.0,0.0
1757,66.0,0.0,40.0,0.0,0.0
1758,50.0,4.0,15.0,0.0,0.0
1759,58.0,12.0,15.0,0.0,0.0
1760,62.0,0.0,15.0,0.0,0.0
1761,38.0,16.0,15.0,0.0,0.0
1762,67.0,0.0,15.0,0.0,0.0
1763,70.0,0.0,90.0,0.0,0.0
1764,43.0,16.0,15.0,0.0,0.0
1765,50.0,16.0,15.0,0.0,0.0
1766,60.0,0.0,40.0,0.0,0.0
1767,67.0,0.0,40.0,0.0,0.0
1768,63.0,4.0,40.0,0.0,0.0
1769,51.0,12.0,15.0,0.0,0.0
1770,53.0,16.0,15.0,0.0,0.0
1771,51.0,4.0,15.0,0.0,0.0
1772,60.0,12.0,15.0,0.0,0.0
1773,63.0,0.0,15.0,0.0,0.0
1774,67.0,0.0,15.0,0.0,0.0
1775,43.0,12.0,15.0,0.0,0.0
1776,60.0,4.0,15.0,0.0,0.0
1777,63.0,0.0,15.0,0.0,0.0
1778,67.0,0.0,15.0,0.0,0.0
1779,69.0,0.0,90.0,0.0,0.0
1780,48.0,16.0,15.0,0.0,0.0
1781,50.0,16.0,15.0,0.0,0.0
1782,63.0,0.0,40.0,0.0,0.0
1783,67.0,0.0,40.0,0.0,0.0
1784,60.0,4.0,40.0,0.0,0.0
1785,51.0,12.0,15.0,0.0,0.0
1786,53.0,15.0,15.0,0.0,0.0
1787,51.0,5.0,15.0,0.0,0.0
1788,60.0,0.0,15.0,0.0,0.0
1789,63.0,12.0,15.0,0.0,0.0
1790,67.0,0.0,15.0,0.0,0.0
1791,43.0,12.0,15.0,0.0,0.0
1792,71.0,12.0,120.0,0.0,0.0
1793,50.0,16.0,15.0,0.0,0.0
1794,59.0,4.0,15.0,0.0,0.0
1795,65.0,0.0,15.0,0.0,0.0
1796,67.0,0.0,15.0,0.0,0.0
1797,54.0,16.0,15.0,0.0,0.0
1798,67.0,4.0,40.0,0.0,0.0
1799,65.0,0.0,40.0,0.0,0.0
1800,59.0,0.0,40.0,0.0,0.0
1801,55.0,12.0,15.0,0.0,0.0
1802,56.0,16.0,15.0,0.0,0.0
1803,55.0,16.0,15.0,0.0,0.0
1804,59.0,0.0,40.0,0.0,0.0
1805,65.0,4.0,40.0,0.0,0.0
1806,67.0,0.0,40.0,0.0,0.0
1807,43.0,12.0,15.0,0.0,0.0
1808,50.0,16.0,15.0,0.0,0.0
1809,54.0,4.0,15.0,0.0,0.0
1810,67.0,0.0,40.0,0.0,0.0
1811,59.0,4.0,40.0,0.0,0.0
1812,65.0,0.0,40.0,0.0,0.0
1813,55.0,12.0,15.0,0.0,0.0
1814,56.0,8.0,15.0,0.0,0.0
1815,70.0,8.0,20.0,0.0,0.0
1816,55.0,4.0,15.0,0.0,0.0
1817,71.0,0.0,15.0,0.0,0.0
1818,59.0,12.0,15.0,0.0,0.0
1819,65.0,0.0,15.0,0.0,0.0
1820,67.0,0.0,15.0,0.0,0.0
1821,43.0,12.0,15.0,0.0,0.0
1822,60.0,4.0,15.0,0.0,0.0
1823,63.0,0.0,15.0,0.0,0.0
1824,72.0,0.0,90.0,0.0,0.0
1825,44.0,16.0,15.0,0.0,0.0
1826,50.0,16.0,15.0,0.0,0.0
1827,63.0,16.0,40.0,0.0,0.0
1828,60.0,0.0,40.0,0.0,0.0
1829,51.0,16.0,15.0,0.0,0.0
1830,53.0,0.0,15.0,0.0,0.0
1831,51.0,16.0,15.0,0.0,0.0
1832,63.0,0.0,60.0,0.0,0.0
1833,60.0,12.0,60.0,0.0,0.0
1834,39.0,16.0,15.0,0.0,0.0
1835,44.0,16.0,15.0,0.0,0.0
1836,50.0,4.0,15.0,0.0,0.0
1837,51.0,16.0,15.0,0.0,0.0
1838,53.0,16.0,15.0,0.0,0.0
1839,63.0,12.0,90.0,0.0,0.0
1840,60.0,0.0,90.0,0.0,0.0
1841,51.0,16.0,15.0,0.0,0.0
1842,39.0,16.0,15.0,0.0,0.0
1843,44.0,16.0,15.0,0.0,0.0
1844,68.0,0.0,40.0,0.0,0.0
1845,50.0,4.0,15.0,0.0,0.0
1846,51.0,16.0,15.0,0.0,0.0
1847,60.0,0.0,40.0,0.0,0.0
1848,68.0,12.0,40.0,0.0,0.0
1849,53.0,16.0,15.0,0.0,0.0
1850,63.0,0.0,40.0,0.0,0.0
1851,51.0,4.0,15.0,0.0,0.0
1852,39.0,16.0,15.0,0.0,0.0
1853,70.0,0.0,15.0,0.0,0.0
1854,58.0,0.0,40.0,0.0,0.0
1855,63.0,0.0,40.0,0.0,0.0
1856,67.0,12.0,40.0,0.0,0.0
1857,46.0,16.0,15.0,0.0,0.0
1858,50.0,4.0,15.0,0.0,0.0
1859,51.0,16.0,15.0,0.0,0.0
1860,67.0,0.0,40.0,0.0,0.0
1861,63.0,0.0,40.0,0.0,0.0
1862,58.0,12.0,40.0,0.0,0.0
1863,53.0,16.0,15.0,0.0,0.0
1864,51.0,4.0,15.0,0.0,0.0
1865,39.0,0.0,15.0,0.0,0.0
1866,68.0,12.0,15.0,0.0,0.0
1867,65.0,0.0,15.0,0.0,0.0
1868,63.0,0.0,15.0,0.0,0.0
1869,48.0,16.0,15.0,0.0,0.0
1870,56.0,4.0,15.0,0.0,0.0
1871,50.0,16.0,15.0,0.0,0.0
1872,51.0,16.0,15.0,0.0,0.0
1873,53.0,16.0,15.0,0.0,0.0
1874,65.0,0.0,40.0,0.0,0.0
1875,63.0,16.0,40.0,0.0,0.0
1876,75.0,0.0,40.0,0.0,0.0
1877,51.0,16.0,15.0,0.0,0.0
1878,39.0,0.0,15.0,0.0,0.0
1879,46.0,16.0,15.0,0.0,0.0
1880,50.0,16.0,15.0,0.0,0.0
1881,51.0,16.0,15.0,0.0,0.0
1882,53.0,16.0,15.0,0.0,0.0
1883,63.0,12.0,40.0,0.0,0.0
1884,58.0,0.0,40.0,0.0,0.0
1885,67.0,0.0,40.0,0.0,0.0
1886,51.0,4.0,15.0,0.0,0.0
1887,39.0,16.0,15.0,0.0,0.0
1888,68.0,12.0,40.0,0.0,0.0
1889,63.0,0.0,40.0,0.0,0.0
1890,44.0,16.0,15.0,0.0,0.0
1891,60.0,0.0,40.0,0.0,0.0
1892,50.0,4.0,15.0,0.0,0.0
1893,51.0,16.0,15.0,0.0,0.0
1894,60.0,0.0,40.0,0.0,0.0
1895,68.0,8.0,20.0,0.0,0.0
1896,53.0,8.0,15.0,0.0,0.0
1897,63.0,6.0,40.0,0.0,0.0
1898,51.0,4.0,15.0,0.0,0.0
1899,39.0,16.0,15.0,0.0,0.0
1900,70.0,6.0,15.0,0.0,0.0
1901,46.0,16.0,15.0,0.0,0.0
1902,67.0,12.0,40.0,0.0,0.0
1903,63.0,0.0,40.0,0.0,0.0
1904,58.0,0.0,40.0,0.0,0.0
1905,50.0,4.0,15.0,0.0,0.0
1906,51.0,16.0,15.0,0.0,0.0
1907,67.0,0.0,40.0,0.0,0.0
1908,63.0,12.0,40.0,0.0,0.0
1909,53.0,16.0,15.0,0.0,0.0
1910,58.0,0.0,40.0,0.0,0.0
1911,51.0,4.0,15.0,0.0,0.0
1912,39.0,0.0,15.0,0.0,0.0
1913,68.0,16.0,15.0,0.0,0.0
1914,48.0,16.0,15.0,0.0,0.0
1915,57.0,12.0,90.0,0.0,0.0
1916,63.0,16.0,150.0,0.0,0.0
1917,66.0,0.0,150.0,0.0,0.0
1918,50.0,16.0,15.0,0.0,0.0
1919,48.0,16.0,15.0,0.0,0.0
1920,50.0,16.0,15.0,0.0,0.0
1921,48.0,4.0,15.0,0.0,0.0
1922,46.0,16.0,15.0,0.0,0.0
1923,60.0,0.0,40.0,0.0,0.0
1924,45.0,16.0,15.0,0.0,0.0
1925,46.0,16.0,15.0,0.0,0.0
1926,45.0,0.0,15.0,0.0,0.0
1927,46.0,16.0,15.0,0.0,0.0
1928,45.0,16.0,15.0,0.0,0.0
1929,38.0,16.0,15.0,0.0,0.0
1930,43.0,16.0,15.0,0.0,0.0
1931,58.0,0.0,90.0,0.0,0.0
1932,62.0,0.0,90.0,0.0,0.0
1933,70.0,8.0,90.0,0.0,0.0
1934,49.0,16.0,15.0,0.0,0.0
1935,50.0,16.0,15.0,0.0,0.0
1936,51.0,16.0,15.0,0.0,0.0
1937,50.0,8.0,15.0,0.0,0.0
1938,38.0,16.0,15.0,0.0,0.0
1939,60.0,0.0,90.0,0.0,0.0
1940,62.0,0.0,90.0,0.0,0.0
1941,42.0,16.0,15.0,0.0,0.0
1942,49.0,16.0,15.0,0.0,0.0
1943,50.0,0.0,15.0,0.0,0.0
1944,51.0,16.0,15.0,0.0,0.0
1945,70.0,16.0,15.0,0.0,0.0
1946,50.0,4.0,15.0,0.0,0.0
1947,38.0,16.0,15.0,0.0,0.0
1948,69.0,6.0,15.0,0.0,0.0
1949,69.0,0.0,60.0,0.0,0.0
1950,37.0,16.0,15.0,0.0,0.0
1951,76.0,0.0,60.0,0.0,0.0
1952,64.0,0.0,60.0,0.0,0.0
1953,67.0,8.0,60.0,0.0,0.0
1954,45.0,16.0,15.0,0.0,0.0
1955,55.0,16.0,15.0,0.0,0.0
1956,52.0,8.0,15.0,0.0,0.0
1957,57.0,16.0,15.0,0.0,0.0
1958,55.0,84.0,15.0,0.0,0.0
1959,64.0,36.0,90.0,0.0,0.0
1960,72.0,2.0,150.0,0.0,0.0
1961,38.0,24.0,20.0,0.0,0.0
1962,45.0,24.0,20.0,0.0,0.0
1963,55.0,24.0,20.0,0.0,0.0
1964,51.0,24.0,20.0,0.0,0.0
1965,60.0,22.0,20.0,0.0,0.0
1966,55.0,24.0,20.0,0.0,0.0
1967,38.0,6.0,20.0,0.0,0.0
1968,45.0,6.0,20.0,0.0,0.0
1969,62.0,12.0,15.0,0.0,0.0
1970,64.0,6.0,15.0,0.0,0.0
1971,54.0,24.0,20.0,0.0,0.0
1972,66.0,12.0,15.0,0.0,0.0
1973,67.0,6.0,15.0,0.0,0.0
1974,69.0,24.0,20.0,0.0,0.0
1975,50.0,0.0,20.0,0.0,0.0
1976,60.0,24.0,20.0,0.0,0.0
1977,54.0,12.0,20.0,0.0,0.0
1978,70.0,0.0,20.0,0.0,0.0
1979,71.0,12.0,15.0,0.0,0.0
1980,43.0,24.0,20.0,0.0,0.0
1981,50.0,8.0,40.0,0.0,0.0
1982,70.0,16.0,15.0,0.0,0.0
1983,71.0,12.0,20.0,0.0,0.0
1984,62.0,0.0,15.0,0.0,0.0
1985,43.0,24.0,20.0,0.0,0.0
1986,70.0,12.0,15.0,0.0,0.0
1987,49.0,6.0,40.0,0.0,0.0
1988,69.0,16.0,15.0,0.0,0.0
1989,70.0,26.0,20.0,0.0,0.0
1990,61.0,0.0,15.0,0.0,0.0
1991,69.0,2.0,90.0,0.0,0.0
1992,43.0,40.0,20.0,0.0,0.0
1993,48.0,30.0,40.0,0.0,0.0
1994,60.0,0.0,15.0,0.0,0.0
1995,43.0,24.0,20.0,0.0,0.0
1996,71.0,16.0,20.0,0.0,0.0
1997,51.0,8.0,40.0,0.0,0.0
1998,72.0,24.0,20.0,0.0,0.0
1999,63.0,0.0,15.0,0.0,0.0
2000,43.0,36.0,20.0,0.0,0.0
2001,74.0,0.0,20.0,0.0,0.0
2002,53.0,8.0,40.0,0.0,0.0
2003,76.0,4.0,40.0,0.0,0.0
2004,65.0,0.0,15.0,0.0,0.0
2005,74.0,12.0,15.0,0.0,0.0
2006,73.0,12.0,15.0,0.0,0.0
2007,43.0,36.0,20.0,0.0,0.0
2008,52.0,8.0,40.0,0.0,0.0
2009,74.0,4.0,40.0,0.0,0.0
2010,64.0,0.0,15.0,0.0,0.0
2011,73.0,24.0,15.0,0.0,0.0
2012,72.0,12.0,120.0,0.0,0.0
2013,43.0,40.0,20.0,0.0,0.0
2014,51.0,32.0,40.0,0.0,0.0
2015,63.0,0.0,15.0,0.0,0.0
2016,43.0,22.0,20.0,0.0,0.0
2017,50.0,0.0,40.0,0.0,0.0
2018,62.0,1.0,15.0,0.0,0.0
2019,71.0,6.0,15.0,0.0,0.0
2020,69.0,3.0,15.0,0.0,0.0
2021,71.0,3.0,15.0,0.0,0.0
2022,69.0,3.0,15.0,0.0,0.0
2023,71.0,22.0,15.0,0.0,0.0
2024,69.0,14.0,30.0,0.0,0.0
2025,43.0,10.0,20.0,0.0,0.0
2026,48.0,8.0,40.0,0.0,0.0
2027,67.0,16.0,15.0,0.0,0.0
2028,69.0,22.0,20.0,0.0,0.0
2029,60.0,0.0,15.0,0.0,0.0
2030,43.0,24.0,20.0,0.0,0.0
2031,71.0,2.0,20.0,0.0,0.0
2032,50.0,8.0,40.0,0.0,0.0
2033,69.0,16.0,15.0,0.0,0.0
2034,62.0,0.0,15.0,0.0,0.0
2035,71.0,16.0,20.0,0.0,0.0
2036,33.0,0.0,15.0,0.0,0.0
2037,74.0,32.0,15.0,0.0,0.0
2038,45.0,24.0,20.0,0.0,0.0
2039,72.0,8.0,90.0,0.0,0.0
2040,52.0,24.0,20.0,0.0,0.0
2041,57.0,16.0,20.0,0.0,0.0
2042,52.0,16.0,20.0,0.0,0.0
2043,60.0,32.0,15.0,0.0,0.0
2044,72.0,12.0,40.0,0.0,0.0
2045,45.0,2.0,90.0,0.0,0.0
2046,83.0,12.0,15.0,0.0,0.0
2047,48.0,12.0,20.0,0.0,0.0
2048,81.0,0.0,15.0,0.0,0.0
2049,79.0,12.0,15.0,0.0,0.0
2050,55.0,0.0,20.0,0.0,0.0
2051,76.0,9.0,15.0,0.0,0.0
2052,52.0,3.0,20.0,0.0,0.0
2053,72.0,7.0,15.0,0.0,0.0
2054,69.0,6.0,15.0,0.0,0.0
2055,67.0,9.0,15.0,0.0,0.0
2056,60.0,6.0,20.0,0.0,0.0
2057,64.0,9.0,15.0,0.0,0.0
2058,66.0,3.0,15.0,0.0,0.0
2059,67.0,9.0,15.0,0.0,0.0
2060,55.0,8.0,15.0,0.0,0.0
2061,71.0,1.0,15.0,0.0,0.0
2062,69.0,24.0,15.0,0.0,0.0
2063,66.0,10.0,90.0,0.0,0.0
2064,38.0,24.0,20.0,0.0,0.0
2065,45.0,24.0,20.0,0.0,0.0
2066,54.0,24.0,20.0,0.0,0.0
2067,50.0,6.0,20.0,0.0,0.0
2068,60.0,0.0,20.0,0.0,0.0
2069,61.0,8.0,15.0,0.0,0.0
2070,62.0,6.0,15.0,0.0,0.0
2071,54.0,2.0,20.0,0.0,0.0
2072,64.0,6.0,15.0,0.0,0.0
2073,66.0,6.0,15.0,0.0,0.0
2074,67.0,4.0,15.0,0.0,0.0
2075,69.0,15.0,15.0,0.0,0.0
2076,43.0,13.0,15.0,0.0,0.0
2077,71.0,1.0,15.0,0.0,0.0
2078,73.0,14.0,15.0,0.0,0.0
2079,50.0,0.0,40.0,0.0,0.0
2080,72.0,14.0,15.0,0.0,0.0
2081,70.0,7.0,15.0,0.0,0.0
2082,62.0,8.0,15.0,0.0,0.0
2083,71.0,15.0,15.0,0.0,0.0
2084,70.0,1.0,15.0,0.0,0.0
2085,43.0,13.0,15.0,0.0,0.0
2086,72.0,14.0,15.0,0.0,0.0
2087,49.0,8.0,40.0,0.0,0.0
2088,71.0,14.0,15.0,0.0,0.0
2089,69.0,7.0,15.0,0.0,0.0
2090,61.0,0.0,15.0,0.0,0.0
2091,70.0,16.0,15.0,0.0,0.0
2092,43.0,48.0,15.0,0.0,0.0
2093,69.0,5.0,90.0,0.0,0.0
2094,48.0,0.0,40.0,0.0,0.0
2095,60.0,19.0,15.0,0.0,0.0
2096,43.0,5.0,15.0,0.0,0.0
2097,68.0,10.0,15.0,0.0,0.0
2098,69.0,10.0,15.0,0.0,0.0
2099,51.0,0.0,40.0,0.0,0.0
2100,70.0,10.0,15.0,0.0,0.0
2101,71.0,10.0,15.0,0.0,0.0
2102,63.0,8.0,15.0,0.0,0.0
2103,72.0,3.0,15.0,0.0,0.0
2104,73.0,8.0,15.0,0.0,0.0
2105,74.0,8.0,15.0,0.0,0.0
2106,43.0,0.0,15.0,0.0,0.0
2107,75.0,8.0,15.0,0.0,0.0
2108,76.0,8.0,15.0,0.0,0.0
2109,53.0,0.0,40.0,0.0,0.0
2110,77.0,8.0,15.0,0.0,0.0
2111,78.0,8.0,15.0,0.0,0.0
2112,79.0,8.0,15.0,0.0,0.0
2113,80.0,8.0,15.0,0.0,0.0
2114,65.0,0.0,15.0,0.0,0.0
2115,77.0,8.0,15.0,0.0,0.0
2116,74.0,8.0,15.0,0.0,0.0
2117,43.0,0.0,15.0,0.0,0.0
2118,73.0,8.0,15.0,0.0,0.0
2119,74.0,8.0,15.0,0.0,0.0
2120,75.0,8.0,15.0,0.0,0.0
2121,52.0,0.0,40.0,0.0,0.0
2122,76.0,8.0,15.0,0.0,0.0
2123,77.0,8.0,15.0,0.0,0.0
2124,78.0,8.0,15.0,0.0,0.0
2125,64.0,8.0,15.0,0.0,0.0
2126,79.0,8.0,15.0,0.0,0.0
2127,76.0,0.0,15.0,0.0,0.0
2128,73.0,16.0,15.0,0.0,0.0
2129,43.0,48.0,15.0,0.0,0.0
2130,72.0,16.0,120.0,0.0,0.0
2131,51.0,24.0,40.0,0.0,0.0
2132,63.0,0.0,15.0,0.0,0.0
2133,43.0,32.0,15.0,0.0,0.0
2134,50.0,8.0,40.0,0.0,0.0
2135,62.0,0.0,15.0,0.0,0.0
2136,71.0,24.0,20.0,0.0,0.0
2137,37.0,24.0,20.0,0.0,0.0
2138,69.0,0.0,20.0,0.0,0.0
2139,71.0,12.0,40.0,0.0,0.0
2140,45.0,12.0,20.0,0.0,0.0
2141,55.0,0.0,20.0,0.0,0.0
2142,69.0,24.0,15.0,0.0,0.0
2143,49.0,24.0,20.0,0.0,0.0
2144,64.0,24.0,40.0,0.0,0.0
2145,57.0,0.0,20.0,0.0,0.0
2146,45.0,0.0,20.0,0.0,0.0
2147,69.0,24.0,20.0,0.0,0.0
2148,38.0,24.0,20.0,0.0,0.0
2149,78.0,0.0,60.0,0.0,0.0
2150,45.0,24.0,20.0,0.0,0.0
2151,54.0,18.0,20.0,0.0,0.0
2152,50.0,12.0,20.0,0.0,0.0
2153,76.0,6.0,20.0,0.0,0.0
2154,74.0,12.0,20.0,0.0,0.0
2155,57.0,6.0,20.0,0.0,0.0
2156,73.0,18.0,20.0,0.0,0.0
2157,45.0,14.0,20.0,0.0,0.0
2158,71.0,0.0,20.0,0.0,0.0
2159,69.0,5.0,15.0,0.0,0.0
2160,37.0,0.0,20.0,0.0,0.0
2161,71.0,5.0,15.0,0.0,0.0
2162,73.0,24.0,15.0,0.0,0.0
2163,71.0,4.0,40.0,0.0,0.0
2164,45.0,12.0,20.0,0.0,0.0
2165,55.0,24.0,20.0,0.0,0.0
2166,69.0,8.0,15.0,0.0,0.0
2167,69.0,0.0,15.0,0.0,0.0
2168,49.0,24.0,20.0,0.0,0.0
2169,64.0,0.0,40.0,0.0,0.0
2170,57.0,16.0,20.0,0.0,0.0
2171,69.0,8.0,15.0,0.0,0.0
2172,45.0,0.0,20.0,0.0,0.0
2173,62.0,0.0,15.0,0.0,0.0
2174,69.0,24.0,15.0,0.0,0.0
2175,78.0,24.0,20.0,0.0,0.0
2176,38.0,0.0,20.0,0.0,0.0
2177,45.0,12.0,20.0,0.0,0.0
2178,79.0,12.0,40.0,0.0,0.0
2179,54.0,18.0,20.0,0.0,0.0
2180,78.0,0.0,15.0,0.0,0.0
2181,76.0,6.0,20.0,0.0,0.0
2182,50.0,12.0,20.0,0.0,0.0
2183,74.0,12.0,20.0,0.0,0.0
2184,57.0,6.0,20.0,0.0,0.0
2185,73.0,14.0,20.0,0.0,0.0
2186,45.0,0.0,20.0,0.0,0.0
2187,71.0,28.0,15.0,0.0,0.0
2188,37.0,0.0,20.0,0.0,0.0
2189,69.0,24.0,20.0,0.0,0.0
2190,71.0,24.0,20.0,0.0,0.0
2191,45.0,0.0,20.0,0.0,0.0
2192,55.0,0.0,20.0,0.0,0.0
2193,69.0,24.0,20.0,0.0,0.0
2194,64.0,0.0,40.0,0.0,0.0
2195,49.0,24.0,20.0,0.0,0.0
2196,57.0,24.0,20.0,0.0,0.0
2197,45.0,0.0,20.0,0.0,0.0
2198,69.0,24.0,20.0,0.0,0.0
2199,72.0,2.0,150.0,0.0,0.0
2200,38.0,24.0,20.0,0.0,0.0
2201,45.0,24.0,20.0,0.0,0.0
2202,55.0,24.0,20.0,0.0,0.0
2203,51.0,24.0,20.0,0.0,0.0
2204,60.0,22.0,20.0,0.0,0.0
2205,55.0,24.0,20.0,0.0,0.0
2206,38.0,12.0,20.0,0.0,0.0
2207,45.0,8.0,20.0,0.0,0.0
2208,62.0,12.0,15.0,0.0,0.0
2209,64.0,0.0,15.0,0.0,0.0
2210,54.0,8.0,20.0,0.0,0.0
2211,66.0,8.0,15.0,0.0,0.0
2212,67.0,8.0,15.0,0.0,0.0
2213,69.0,0.0,15.0,0.0,0.0
2214,71.0,8.0,15.0,0.0,0.0
2215,50.0,0.0,20.0,0.0,0.0
2216,72.0,8.0,15.0,0.0,0.0
2217,74.0,8.0,15.0,0.0,0.0
2218,76.0,8.0,15.0,0.0,0.0
2219,60.0,8.0,20.0,0.0,0.0
2220,78.0,8.0,15.0,0.0,0.0
2221,79.0,0.0,15.0,0.0,0.0
2222,54.0,0.0,20.0,0.0,0.0
2223,81.0,16.0,15.0,0.0,0.0
2224,83.0,24.0,15.0,0.0,0.0
2225,40.0,48.0,20.0,0.0,0.0
2226,79.0,0.0,60.0,0.0,0.0
2227,47.0,24.0,40.0,0.0,0.0
2228,55.0,0.0,20.0,0.0,0.0
2229,40.0,24.0,20.0,0.0,0.0
2230,78.0,24.0,40.0,0.0,0.0
2231,48.0,0.0,40.0,0.0,0.0
2232,76.0,0.0,20.0,0.0,0.0
2233,55.0,48.0,20.0,0.0,0.0
2234,74.0,48.0,60.0,0.0,0.0
2235,42.0,24.0,40.0,0.0,0.0
2236,50.0,0.0,40.0,0.0,0.0
2237,57.0,0.0,20.0,0.0,0.0
2238,72.0,0.0,40.0,0.0,0.0
2239,43.0,24.0,40.0,0.0,0.0
2240,50.0,0.0,40.0,0.0,0.0
2241,71.0,24.0,20.0,0.0,0.0
2242,59.0,0.0,20.0,0.0,0.0
2243,45.0,24.0,20.0,0.0,0.0
2244,69.0,0.0,20.0,0.0,0.0
2245,71.0,0.0,20.0,0.0,0.0
2246,54.0,24.0,20.0,0.0,0.0
2247,60.0,24.0,20.0,0.0,0.0
2248,69.0,0.0,20.0,0.0,0.0
2249,47.0,24.0,20.0,0.0,0.0
2250,67.0,0.0,40.0,0.0,0.0
2251,57.0,0.0,20.0,0.0,0.0
2252,66.0,0.0,20.0,0.0,0.0
2253,63.0,24.0,15.0,0.0,0.0
2254,64.0,4.0,15.0,0.0,0.0
2255,48.0,4.0,20.0,0.0,0.0
2256,66.0,4.0,15.0,0.0,0.0
2257,64.0,4.0,15.0,0.0,0.0
2258,66.0,4.0,15.0,0.0,0.0
2259,64.0,4.0,15.0,0.0,0.0
2260,66.0,0.0,15.0,0.0,0.0
2261,64.0,4.0,15.0,0.0,0.0
2262,55.0,0.0,20.0,0.0,0.0
2263,66.0,4.0,15.0,0.0,0.0
2264,64.0,4.0,15.0,0.0,0.0
2265,66.0,4.0,15.0,0.0,0.0
2266,64.0,4.0,15.0,0.0,0.0
2267,66.0,4.0,15.0,0.0,0.0
2268,60.0,0.0,20.0,0.0,0.0
2269,64.0,4.0,15.0,0.0,0.0
2270,66.0,4.0,15.0,0.0,0.0
2271,64.0,6.0,15.0,0.0,0.0
2272,63.0,6.0,15.0,0.0,0.0
2273,64.0,24.0,15.0,0.0,0.0
2274,49.0,24.0,20.0,0.0,0.0
2275,66.0,20.0,40.0,0.0,0.0
2276,52.0,0.0,20.0,0.0,0.0
2277,58.0,6.0,20.0,0.0,0.0
2278,67.0,4.0,20.0,0.0,0.0
2279,38.0,24.0,20.0,0.0,0.0
2280,67.0,18.0,15.0,0.0,0.0
2281,62.0,0.0,120.0,0.0,0.0
2282,45.0,24.0,20.0,0.0,0.0
2283,50.0,24.0,20.0,0.0,0.0
2284,55.0,24.0,20.0,0.0,0.0
2285,60.0,24.0,20.0,0.0,0.0
2286,67.0,8.0,20.0,0.0,0.0
2287,69.0,8.0,15.0,0.0,0.0
2288,72.0,8.0,15.0,0.0,0.0
2289,74.0,8.0,15.0,0.0,0.0
2290,79.0,8.0,15.0,0.0,0.0
2291,81.0,8.0,15.0,0.0,0.0
2292,83.0,4.0,15.0,0.0,0.0
2293,84.0,4.0,15.0,0.0,0.0
2294,81.0,4.0,15.0,0.0,0.0
2295,86.0,4.0,15.0,0.0,0.0
2296,87.0,4.0,15.0,0.0,0.0
2297,81.0,4.0,15.0,0.0,0.0
2298,83.0,4.0,15.0,0.0,0.0
2299,84.0,4.0,15.0,0.0,0.0
2300,81.0,4.0,15.0,0.0,0.0
2301,86.0,4.0,15.0,0.0,0.0
2302,87.0,4.0,15.0,0.0,0.0
2303,81.0,4.0,15.0,0.0,0.0
2304,83.0,4.0,15.0,0.0,0.0
2305,84.0,4.0,15.0,0.0,0.0
2306,81.0,4.0,15.0,0.0,0.0
2307,86.0,4.0,15.0,0.0,0.0
2308,87.0,4.0,15.0,0.0,0.0
2309,81.0,4.0,15.0,0.0,0.0
2310,83.0,4.0,15.0,0.0,0.0
2311,84.0,4.0,15.0,0.0,0.0
2312,81.0,4.0,15.0,0.0,0.0
2313,86.0,4.0,15.0,0.0,0.0
2314,87.0,10.0,15.0,0.0,0.0
2315,81.0,4.0,15.0,0.0,0.0
2316,38.0,6.0,15.0,0.0,0.0
2317,83.0,16.0,15.0,0.0,0.0
2318,45.0,2.0,15.0,0.0,0.0
2319,50.0,2.0,15.0,0.0,0.0
2320,54.0,16.0,180.0,0.0,0.0
2321,84.0,4.0,15.0,0.0,0.0
2322,60.0,0.0,180.0,0.0,0.0
2323,90.0,0.0,15.0,0.0,0.0
2324,93.0,4.0,15.0,0.0,0.0
2325,88.0,4.0,15.0,0.0,0.0
2326,89.0,0.0,15.0,0.0,0.0
2327,92.0,4.0,15.0,0.0,0.0
2328,87.0,4.0,15.0,0.0,0.0
2329,91.0,0.0,15.0,0.0,0.0
2330,88.0,4.0,15.0,0.0,0.0
2331,86.0,4.0,15.0,0.0,0.0
2332,87.0,4.0,15.0,0.0,0.0
2333,90.0,0.0,15.0,0.0,0.0
2334,85.0,4.0,15.0,0.0,0.0
2335,86.0,0.0,15.0,0.0,0.0
2336,89.0,4.0,15.0,0.0,0.0
2337,84.0,4.0,15.0,0.0,0.0
2338,85.0,0.0,15.0,0.0,0.0
2339,88.0,4.0,15.0,0.0,0.0
2340,83.0,4.0,15.0,0.0,0.0
2341,87.0,0.0,15.0,0.0,0.0
2342,84.0,4.0,15.0,0.0,0.0
2343,82.0,4.0,15.0,0.0,0.0
2344,83.0,4.0,15.0,0.0,0.0
2345,86.0,0.0,15.0,0.0,0.0
2346,81.0,4.0,15.0,0.0,0.0
2347,82.0,4.0,15.0,0.0,0.0
2348,85.0,0.0,15.0,0.0,0.0
2349,80.0,4.0,15.0,0.0,0.0
2350,81.0,4.0,15.0,0.0,0.0
2351,84.0,0.0,15.0,0.0,0.0
2352,79.0,4.0,15.0,0.0,0.0
2353,83.0,4.0,15.0,0.0,0.0
2354,80.0,0.0,15.0,0.0,0.0
2355,78.0,4.0,15.0,0.0,0.0
2356,79.0,0.0,15.0,0.0,0.0
2357,82.0,4.0,15.0,0.0,0.0
2358,77.0,4.0,15.0,0.0,0.0
2359,78.0,0.0,15.0,0.0,0.0
2360,81.0,4.0,15.0,0.0,0.0
2361,76.0,4.0,15.0,0.0,0.0
2362,80.0,0.0,15.0,0.0,0.0
2363,77.0,4.0,15.0,0.0,0.0
2364,75.0,4.0,15.0,0.0,0.0
2365,76.0,0.0,15.0,0.0,0.0
2366,79.0,4.0,15.0,0.0,0.0
2367,74.0,4.0,15.0,0.0,0.0
2368,75.0,0.0,15.0,0.0,0.0
2369,78.0,4.0,15.0,0.0,0.0
2370,73.0,4.0,15.0,0.0,0.0
2371,74.0,4.0,15.0,0.0,0.0
2372,77.0,0.0,15.0,0.0,0.0
2373,72.0,4.0,15.0,0.0,0.0
2374,73.0,0.0,15.0,0.0,0.0
2375,76.0,4.0,15.0,0.0,0.0
2376,71.0,4.0,15.0,0.0,0.0
2377,75.0,0.0,15.0,0.0,0.0
2378,72.0,4.0,15.0,0.0,0.0
2379,70.0,4.0,15.0,0.0,0.0
2380,71.0,0.0,15.0,0.0,0.0
2381,74.0,4.0,15.0,0.0,0.0
2382,69.0,4.0,15.0,0.0,0.0
2383,73.0,0.0,15.0,0.0,0.0
2384,70.0,0.0,15.0,0.0,0.0
2385,68.0,16.0,15.0,0.0,0.0
2386,72.0,12.0,40.0,0.0,0.0
2387,69.0,16.0,15.0,0.0,0.0
2388,67.0,12.0,15.0,0.0,0.0
2389,66.0,24.0,40.0,0.0,0.0
2390,50.0,36.0,120.0,0.0,0.0
2391,71.0,12.0,15.0,0.0,0.0
2392,69.0,0.0,15.0,0.0,0.0
2393,60.0,60.0,20.0,0.0,0.0
2394,43.0,0.0,60.0,0.0,0.0
2395,67.0,0.0,60.0,0.0,0.0
2396,59.0,0.0,60.0,0.0,0.0
2397,88.0,12.0,20.0,0.0,0.0
2398,31.0,0.0,20.0,0.0,0.0
2399,38.0,12.0,15.0,0.0,0.0
2400,86.0,0.0,15.0,0.0,0.0
2401,43.0,0.0,15.0,0.0,0.0
2402,81.0,12.0,15.0,0.0,0.0
2403,79.0,12.0,15.0,0.0,0.0
2404,50.0,0.0,15.0,0.0,0.0
2405,55.0,0.0,15.0,0.0,0.0
2406,74.0,12.0,15.0,0.0,0.0
2407,57.0,12.0,15.0,0.0,0.0
2408,69.0,0.0,15.0,0.0,0.0
2409,67.0,0.0,15.0,0.0,0.0
2410,59.0,12.0,15.0,0.0,0.0
2411,62.0,12.0,15.0,0.0,0.0
2412,57.0,0.0,15.0,0.0,0.0
2413,67.0,0.0,15.0,0.0,0.0
2414,55.0,12.0,15.0,0.0,0.0
2415,50.0,0.0,15.0,0.0,0.0
2416,74.0,12.0,15.0,0.0,0.0
2417,47.0,0.0,15.0,0.0,0.0
2418,79.0,24.0,15.0,0.0,0.0
2419,45.0,24.0,20.0,0.0,0.0
2420,86.0,0.0,20.0,0.0,0.0
2421,91.0,0.0,20.0,0.0,0.0
2422,43.0,24.0,20.0,0.0,0.0
2423,38.0,0.0,20.0,0.0,0.0
2424,93.0,144.0,20.0,0.0,0.0
2425,95.0,48.0,150.0,0.0,0.0
2426,31.0,0.0,150.0,0.0,0.0
