,note,step,duration,channel,velocity
0,86.0,16.0,120.0,0.0,0.0
1,74.0,28.0,20.0,0.0,0.0
2,83.0,47.0,60.0,0.0,0.0
3,43.0,13.0,15.0,0.0,0.0
4,91.0,40.0,30.0,0.0,0.0
5,55.0,32.0,30.0,0.0,0.0
6,62.0,7.0,60.0,0.0,0.0
7,74.0,6.0,20.0,0.0,0.0
8,71.0,17.0,15.0,0.0,0.0
9,83.0,48.0,30.0,0.0,0.0
10,86.0,12.0,90.0,0.0,0.0
11,55.0,1.0,30.0,0.0,0.0
12,74.0,9.0,20.0,0.0,0.0
13,62.0,19.0,60.0,0.0,0.0
14,83.0,5.0,30.0,0.0,0.0
15,71.0,10.0,15.0,0.0,0.0
16,85.0,10.0,30.0,0.0,0.0
17,55.0,15.0,15.0,0.0,0.0
18,74.0,15.0,20.0,0.0,0.0
19,62.0,23.0,30.0,0.0,0.0
20,83.0,4.0,30.0,0.0,0.0
21,71.0,11.0,15.0,0.0,0.0
22,86.0,6.0,30.0,0.0,0.0
23,55.0,2.0,15.0,0.0,0.0
24,74.0,30.0,15.0,0.0,0.0
25,62.0,8.0,30.0,0.0,0.0
26,83.0,6.0,20.0,0.0,0.0
27,71.0,4.0,15.0,0.0,0.0
28,88.0,26.0,20.0,0.0,0.0
29,55.0,12.0,15.0,0.0,0.0
30,74.0,0.0,15.0,0.0,0.0
31,62.0,19.0,15.0,0.0,0.0
32,83.0,42.0,20.0,0.0,0.0
33,71.0,12.0,15.0,0.0,0.0
34,86.0,4.0,60.0,0.0,0.0
35,54.0,12.0,30.0,0.0,0.0
36,74.0,5.0,15.0,0.0,0.0
37,62.0,33.0,15.0,0.0,0.0
38,84.0,2.0,15.0,0.0,0.0
39,72.0,5.0,15.0,0.0,0.0
40,93.0,47.0,15.0,0.0,0.0
41,54.0,27.0,15.0,0.0,0.0
42,74.0,1.0,20.0,0.0,0.0
43,62.0,22.0,15.0,0.0,0.0
44,84.0,22.0,30.0,0.0,0.0
45,72.0,7.0,15.0,0.0,0.0
46,86.0,11.0,30.0,0.0,0.0
47,54.0,12.0,15.0,0.0,0.0
48,74.0,7.0,15.0,0.0,0.0
49,62.0,22.0,15.0,0.0,0.0
50,84.0,4.0,30.0,0.0,0.0
51,85.0,21.0,60.0,0.0,0.0
52,72.0,33.0,15.0,0.0,0.0
53,54.0,9.0,15.0,0.0,0.0
54,74.0,1.0,20.0,0.0,0.0
55,62.0,12.0,15.0,0.0,0.0
56,84.0,29.0,30.0,0.0,0.0
57,72.0,2.0,15.0,0.0,0.0
58,86.0,0.0,30.0,0.0,0.0
59,54.0,6.0,15.0,0.0,0.0
60,74.0,15.0,15.0,0.0,0.0
61,62.0,16.0,15.0,0.0,0.0
62,84.0,10.0,30.0,0.0,0.0
63,72.0,6.0,15.0,0.0,0.0
64,88.0,26.0,20.0,0.0,0.0
65,54.0,8.0,15.0,0.0,0.0
66,74.0,6.0,15.0,0.0,0.0
67,62.0,14.0,15.0,0.0,0.0
68,84.0,34.0,20.0,0.0,0.0
69,86.0,8.0,60.0,0.0,0.0
70,72.0,4.0,15.0,0.0,0.0
71,55.0,4.0,20.0,0.0,0.0
72,74.0,4.0,15.0,0.0,0.0
73,83.0,16.0,15.0,0.0,0.0
74,62.0,16.0,20.0,0.0,0.0
75,71.0,8.0,15.0,0.0,0.0
76,95.0,50.0,15.0,0.0,0.0
77,57.0,6.0,20.0,0.0,0.0
78,78.0,12.0,15.0,0.0,0.0
79,62.0,14.0,20.0,0.0,0.0
80,86.0,4.0,20.0,0.0,0.0
81,90.0,4.0,15.0,0.0,0.0
82,66.0,4.0,15.0,0.0,0.0
83,72.0,28.0,15.0,0.0,0.0
84,74.0,36.0,15.0,0.0,0.0
85,59.0,38.0,60.0,0.0,0.0
86,62.0,1.0,60.0,0.0,0.0
87,67.0,7.0,20.0,0.0,0.0
88,86.0,5.0,15.0,0.0,0.0
89,71.0,4.0,15.0,0.0,0.0
90,91.0,5.0,15.0,0.0,0.0
91,47.0,6.0,15.0,0.0,0.0
92,75.0,12.0,15.0,0.0,0.0
93,55.0,12.0,15.0,0.0,0.0
94,79.0,2.0,15.0,0.0,0.0
95,63.0,10.0,15.0,0.0,0.0
96,90.0,44.0,15.0,0.0,0.0
97,48.0,6.0,30.0,0.0,0.0
98,76.0,6.0,15.0,0.0,0.0
99,55.0,23.0,30.0,0.0,0.0
100,79.0,12.0,15.0,0.0,0.0
101,88.0,11.0,30.0,0.0,0.0
102,64.0,2.0,15.0,0.0,0.0
103,76.0,1.0,20.0,0.0,0.0
104,49.0,9.0,15.0,0.0,0.0
105,81.0,5.0,15.0,0.0,0.0
106,57.0,23.0,15.0,0.0,0.0
107,67.0,41.0,15.0,0.0,0.0
108,93.0,1.0,15.0,0.0,0.0
109,50.0,36.0,20.0,0.0,0.0
110,74.0,2.0,15.0,0.0,0.0
111,59.0,3.0,30.0,0.0,0.0
112,83.0,11.0,60.0,0.0,0.0
113,67.0,13.0,15.0,0.0,0.0
114,91.0,2.0,30.0,0.0,0.0
115,50.0,7.0,15.0,0.0,0.0
116,76.0,19.0,15.0,0.0,0.0
117,58.0,7.0,30.0,0.0,0.0
118,82.0,7.0,15.0,0.0,0.0
119,61.0,5.0,15.0,0.0,0.0
120,85.0,17.0,30.0,0.0,0.0
121,91.0,11.0,15.0,0.0,0.0
122,67.0,3.0,15.0,0.0,0.0
123,50.0,8.0,15.0,0.0,0.0
124,74.0,12.0,15.0,0.0,0.0
125,57.0,2.0,15.0,0.0,0.0
126,81.0,20.0,15.0,0.0,0.0
127,86.0,23.0,30.0,0.0,0.0
128,62.0,1.0,30.0,0.0,0.0
129,90.0,0.0,15.0,0.0,0.0
130,66.0,12.0,15.0,0.0,0.0
131,52.0,2.0,15.0,0.0,0.0
132,74.0,16.0,15.0,0.0,0.0
133,59.0,7.0,30.0,0.0,0.0
134,80.0,10.0,15.0,0.0,0.0
135,83.0,1.0,30.0,0.0,0.0
136,89.0,12.0,20.0,0.0,0.0
137,62.0,16.0,30.0,0.0,0.0
138,68.0,3.0,15.0,0.0,0.0
139,52.0,20.0,15.0,0.0,0.0
140,72.0,2.0,15.0,0.0,0.0
141,60.0,11.0,60.0,0.0,0.0
142,81.0,18.0,15.0,0.0,0.0
143,84.0,6.0,20.0,0.0,0.0
144,88.0,4.0,30.0,0.0,0.0
145,69.0,13.0,15.0,0.0,0.0
146,76.0,14.0,15.0,0.0,0.0
147,52.0,23.0,15.0,0.0,0.0
148,83.0,9.0,30.0,0.0,0.0
149,86.0,3.0,60.0,0.0,0.0
150,64.0,10.0,15.0,0.0,0.0
151,92.0,9.0,20.0,0.0,0.0
152,71.0,31.0,15.0,0.0,0.0
153,76.0,65.0,20.0,0.0,0.0
154,84.0,40.0,90.0,0.0,0.0
155,45.0,12.0,30.0,0.0,0.0
156,93.0,10.0,30.0,0.0,0.0
157,57.0,7.0,15.0,0.0,0.0
158,76.0,11.0,15.0,0.0,0.0
159,64.0,28.0,15.0,0.0,0.0
160,84.0,21.0,60.0,0.0,0.0
161,72.0,21.0,15.0,0.0,0.0
162,88.0,9.0,30.0,0.0,0.0
163,75.0,18.0,15.0,0.0,0.0
164,64.0,12.0,15.0,0.0,0.0
165,84.0,23.0,30.0,0.0,0.0
166,87.0,12.0,30.0,0.0,0.0
167,72.0,0.0,15.0,0.0,0.0
168,57.0,6.0,15.0,0.0,0.0
169,76.0,28.0,15.0,0.0,0.0
170,64.0,1.0,30.0,0.0,0.0
171,84.0,28.0,30.0,0.0,0.0
172,88.0,6.0,60.0,0.0,0.0
173,72.0,4.0,15.0,0.0,0.0
174,57.0,3.0,15.0,0.0,0.0
175,77.0,22.0,15.0,0.0,0.0
176,64.0,6.0,20.0,0.0,0.0
177,84.0,3.0,30.0,0.0,0.0
178,89.0,8.0,30.0,0.0,0.0
179,72.0,28.0,15.0,0.0,0.0
180,57.0,9.0,15.0,0.0,0.0
181,76.0,16.0,15.0,0.0,0.0
182,64.0,3.0,20.0,0.0,0.0
183,84.0,41.0,20.0,0.0,0.0
184,72.0,6.0,15.0,0.0,0.0
185,88.0,5.0,60.0,0.0,0.0
186,56.0,16.0,30.0,0.0,0.0
187,76.0,3.0,15.0,0.0,0.0
188,62.0,4.0,20.0,0.0,0.0
189,83.0,1.0,15.0,0.0,0.0
190,86.0,7.0,15.0,0.0,0.0
191,64.0,29.0,15.0,0.0,0.0
192,71.0,44.0,15.0,0.0,0.0
193,95.0,0.0,15.0,0.0,0.0
194,56.0,14.0,20.0,0.0,0.0
195,62.0,9.0,15.0,0.0,0.0
196,76.0,11.0,15.0,0.0,0.0
197,64.0,4.0,15.0,0.0,0.0
198,83.0,10.0,15.0,0.0,0.0
199,86.0,14.0,15.0,0.0,0.0
200,71.0,0.0,15.0,0.0,0.0
201,88.0,22.0,20.0,0.0,0.0
202,56.0,12.0,15.0,0.0,0.0
203,62.0,2.0,15.0,0.0,0.0
204,75.0,22.0,15.0,0.0,0.0
205,86.0,0.0,20.0,0.0,0.0
206,64.0,6.0,15.0,0.0,0.0
207,83.0,2.0,15.0,0.0,0.0
208,87.0,8.0,30.0,0.0,0.0
209,71.0,26.0,15.0,0.0,0.0
210,56.0,12.0,15.0,0.0,0.0
211,76.0,4.0,15.0,0.0,0.0
212,62.0,11.0,15.0,0.0,0.0
213,83.0,6.0,15.0,0.0,0.0
214,64.0,5.0,15.0,0.0,0.0
215,86.0,27.0,20.0,0.0,0.0
216,88.0,9.0,30.0,0.0,0.0
217,71.0,2.0,15.0,0.0,0.0
218,77.0,7.0,15.0,0.0,0.0
219,56.0,4.0,15.0,0.0,0.0
220,83.0,20.0,15.0,0.0,0.0
221,62.0,3.0,15.0,0.0,0.0
222,86.0,27.0,20.0,0.0,0.0
223,89.0,10.0,30.0,0.0,0.0
224,71.0,1.0,15.0,0.0,0.0
225,56.0,9.0,15.0,0.0,0.0
226,62.0,12.0,20.0,0.0,0.0
227,76.0,5.0,15.0,0.0,0.0
228,83.0,8.0,15.0,0.0,0.0
229,86.0,8.0,15.0,0.0,0.0
230,88.0,0.0,60.0,0.0,0.0
231,71.0,25.0,15.0,0.0,0.0
232,57.0,14.0,20.0,0.0,0.0
233,76.0,11.0,15.0,0.0,0.0
234,60.0,4.0,30.0,0.0,0.0
235,84.0,6.0,15.0,0.0,0.0
236,88.0,12.0,15.0,0.0,0.0
237,64.0,22.0,15.0,0.0,0.0
238,72.0,46.0,15.0,0.0,0.0
239,96.0,6.0,15.0,0.0,0.0
240,59.0,9.0,30.0,0.0,0.0
241,79.0,24.0,15.0,0.0,0.0
242,62.0,22.0,90.0,0.0,0.0
243,86.0,23.0,20.0,0.0,0.0
244,67.0,0.0,30.0,0.0,0.0
245,91.0,13.0,30.0,0.0,0.0
246,95.0,6.0,20.0,0.0,0.0
247,74.0,4.0,20.0,0.0,0.0
248,60.0,9.0,30.0,0.0,0.0
249,79.0,7.0,15.0,0.0,0.0
250,67.0,1.0,20.0,0.0,0.0
251,88.0,17.0,15.0,0.0,0.0
252,91.0,24.0,30.0,0.0,0.0
253,93.0,9.0,20.0,0.0,0.0
254,76.0,8.0,15.0,0.0,0.0
255,79.0,17.0,15.0,0.0,0.0
256,60.0,6.0,15.0,0.0,0.0
257,87.0,9.0,15.0,0.0,0.0
258,91.0,3.0,30.0,0.0,0.0
259,69.0,12.0,15.0,0.0,0.0
260,93.0,36.0,20.0,0.0,0.0
261,75.0,4.0,15.0,0.0,0.0
262,62.0,1.0,60.0,0.0,0.0
263,78.0,26.0,15.0,0.0,0.0
264,86.0,21.0,30.0,0.0,0.0
265,69.0,4.0,20.0,0.0,0.0
266,74.0,7.0,20.0,0.0,0.0
267,93.0,7.0,15.0,0.0,0.0
268,62.0,20.0,90.0,0.0,0.0
269,78.0,12.0,15.0,0.0,0.0
270,84.0,8.0,15.0,0.0,0.0
271,69.0,14.0,15.0,0.0,0.0
272,72.0,6.0,30.0,0.0,0.0
273,95.0,20.0,15.0,0.0,0.0
274,67.0,28.0,15.0,0.0,0.0
275,79.0,8.0,60.0,0.0,0.0
276,83.0,5.0,60.0,0.0,0.0
277,71.0,28.0,15.0,0.0,0.0
278,91.0,35.0,30.0,0.0,0.0
279,61.0,4.0,60.0,0.0,0.0
280,70.0,0.0,60.0,0.0,0.0
281,79.0,1.0,60.0,0.0,0.0
282,76.0,20.0,20.0,0.0,0.0
283,82.0,1.0,30.0,0.0,0.0
284,91.0,36.0,20.0,0.0,0.0
285,62.0,5.0,20.0,0.0,0.0
286,78.0,5.0,15.0,0.0,0.0
287,69.0,2.0,15.0,0.0,0.0
288,74.0,10.0,15.0,0.0,0.0
289,81.0,9.0,30.0,0.0,0.0
290,90.0,25.0,15.0,0.0,0.0
291,56.0,20.0,15.0,0.0,0.0
292,74.0,22.0,15.0,0.0,0.0
293,65.0,3.0,30.0,0.0,0.0
294,83.0,28.0,30.0,0.0,0.0
295,71.0,6.0,20.0,0.0,0.0
296,89.0,11.0,15.0,0.0,0.0
297,57.0,11.0,30.0,0.0,0.0
298,72.0,20.0,15.0,0.0,0.0
299,64.0,11.0,30.0,0.0,0.0
300,84.0,4.0,30.0,0.0,0.0
301,69.0,2.0,15.0,0.0,0.0
302,88.0,46.0,20.0,0.0,0.0
303,50.0,1.0,30.0,0.0,0.0
304,72.0,16.0,15.0,0.0,0.0
305,57.0,8.0,60.0,0.0,0.0
306,81.0,25.0,15.0,0.0,0.0
307,60.0,50.0,60.0,0.0,0.0
308,90.0,14.0,15.0,0.0,0.0
309,66.0,12.0,15.0,0.0,0.0
310,71.0,26.0,30.0,0.0,0.0
311,43.0,53.0,30.0,0.0,0.0
312,79.0,9.0,30.0,0.0,0.0
313,91.0,55.0,30.0,0.0,0.0
314,55.0,35.0,30.0,0.0,0.0
315,62.0,4.0,30.0,0.0,0.0
316,74.0,7.0,30.0,0.0,0.0
317,79.0,8.0,15.0,0.0,0.0
318,71.0,40.0,15.0,0.0,0.0
319,86.0,8.0,30.0,0.0,0.0
320,55.0,6.0,15.0,0.0,0.0
321,74.0,10.0,15.0,0.0,0.0
322,62.0,10.0,15.0,0.0,0.0
323,79.0,12.0,15.0,0.0,0.0
324,85.0,12.0,60.0,0.0,0.0
325,71.0,36.0,15.0,0.0,0.0
326,74.0,8.0,15.0,0.0,0.0
327,55.0,0.0,15.0,0.0,0.0
328,62.0,12.0,20.0,0.0,0.0
329,79.0,2.0,15.0,0.0,0.0
330,86.0,0.0,60.0,0.0,0.0
331,71.0,30.0,15.0,0.0,0.0
332,74.0,14.0,15.0,0.0,0.0
333,55.0,8.0,15.0,0.0,0.0
334,79.0,1.0,15.0,0.0,0.0
335,62.0,21.0,15.0,0.0,0.0
336,88.0,26.0,20.0,0.0,0.0
337,71.0,8.0,15.0,0.0,0.0
338,55.0,12.0,15.0,0.0,0.0
339,74.0,8.0,15.0,0.0,0.0
340,62.0,8.0,15.0,0.0,0.0
341,79.0,14.0,15.0,0.0,0.0
342,71.0,46.0,15.0,0.0,0.0
343,86.0,28.0,90.0,0.0,0.0
344,54.0,4.0,30.0,0.0,0.0
345,74.0,14.0,15.0,0.0,0.0
346,62.0,6.0,15.0,0.0,0.0
347,84.0,0.0,15.0,0.0,0.0
348,72.0,18.0,15.0,0.0,0.0
349,93.0,34.0,15.0,0.0,0.0
350,54.0,26.0,15.0,0.0,0.0
351,74.0,20.0,20.0,0.0,0.0
352,62.0,4.0,15.0,0.0,0.0
353,84.0,32.0,20.0,0.0,0.0
354,72.0,4.0,15.0,0.0,0.0
355,86.0,8.0,30.0,0.0,0.0
356,54.0,10.0,15.0,0.0,0.0
357,74.0,25.0,20.0,0.0,0.0
358,62.0,5.0,15.0,0.0,0.0
359,84.0,42.0,30.0,0.0,0.0
360,72.0,0.0,15.0,0.0,0.0
361,85.0,1.0,60.0,0.0,0.0
362,74.0,24.0,20.0,0.0,0.0
363,54.0,7.0,15.0,0.0,0.0
364,62.0,2.0,15.0,0.0,0.0
365,84.0,32.0,30.0,0.0,0.0
366,86.0,8.0,60.0,0.0,0.0
367,72.0,4.0,15.0,0.0,0.0
368,74.0,2.0,15.0,0.0,0.0
369,54.0,2.0,15.0,0.0,0.0
370,62.0,26.0,15.0,0.0,0.0
371,84.0,0.0,30.0,0.0,0.0
372,72.0,16.0,15.0,0.0,0.0
373,88.0,20.0,30.0,0.0,0.0
374,54.0,18.0,15.0,0.0,0.0
375,74.0,2.0,15.0,0.0,0.0
376,62.0,18.0,15.0,0.0,0.0
377,84.0,8.0,15.0,0.0,0.0
378,72.0,36.0,15.0,0.0,0.0
379,86.0,12.0,60.0,0.0,0.0
380,55.0,8.0,15.0,0.0,0.0
381,74.0,2.0,20.0,0.0,0.0
382,62.0,4.0,15.0,0.0,0.0
383,83.0,12.0,15.0,0.0,0.0
384,86.0,14.0,15.0,0.0,0.0
385,71.0,18.0,15.0,0.0,0.0
386,95.0,34.0,15.0,0.0,0.0
387,57.0,20.0,15.0,0.0,0.0
388,62.0,10.0,15.0,0.0,0.0
389,78.0,12.0,20.0,0.0,0.0
390,86.0,0.0,20.0,0.0,0.0
391,66.0,10.0,15.0,0.0,0.0
392,90.0,5.0,60.0,0.0,0.0
393,72.0,40.0,15.0,0.0,0.0
394,59.0,10.0,20.0,0.0,0.0
395,79.0,1.0,20.0,0.0,0.0
396,62.0,1.0,15.0,0.0,0.0
397,67.0,3.0,15.0,0.0,0.0
398,86.0,20.0,15.0,0.0,0.0
399,91.0,1.0,15.0,0.0,0.0
400,74.0,42.0,15.0,0.0,0.0
401,75.0,11.0,15.0,0.0,0.0
402,47.0,6.0,15.0,0.0,0.0
403,79.0,12.0,15.0,0.0,0.0
404,55.0,8.0,15.0,0.0,0.0
405,90.0,50.0,15.0,0.0,0.0
406,63.0,2.0,15.0,0.0,0.0
407,48.0,2.0,30.0,0.0,0.0
408,76.0,12.0,15.0,0.0,0.0
409,55.0,14.0,30.0,0.0,0.0
410,79.0,10.0,15.0,0.0,0.0
411,64.0,2.0,15.0,0.0,0.0
412,88.0,18.0,30.0,0.0,0.0
413,49.0,5.0,15.0,0.0,0.0
414,76.0,5.0,20.0,0.0,0.0
415,81.0,14.0,15.0,0.0,0.0
416,57.0,10.0,15.0,0.0,0.0
417,93.0,6.0,15.0,0.0,0.0
418,67.0,42.0,15.0,0.0,0.0
419,50.0,14.0,20.0,0.0,0.0
420,74.0,4.0,15.0,0.0,0.0
421,59.0,8.0,15.0,0.0,0.0
422,83.0,2.0,60.0,0.0,0.0
423,67.0,28.0,15.0,0.0,0.0
424,91.0,4.0,30.0,0.0,0.0
425,50.0,20.0,15.0,0.0,0.0
426,76.0,12.0,15.0,0.0,0.0
427,58.0,4.0,30.0,0.0,0.0
428,82.0,6.0,15.0,0.0,0.0
429,85.0,17.0,30.0,0.0,0.0
430,61.0,10.0,15.0,0.0,0.0
431,91.0,10.0,15.0,0.0,0.0
432,67.0,4.0,15.0,0.0,0.0
433,50.0,3.0,15.0,0.0,0.0
434,74.0,14.0,15.0,0.0,0.0
435,57.0,2.0,20.0,0.0,0.0
436,81.0,18.0,15.0,0.0,0.0
437,62.0,14.0,20.0,0.0,0.0
438,66.0,0.0,15.0,0.0,0.0
439,86.0,18.0,30.0,0.0,0.0
440,90.0,8.0,15.0,0.0,0.0
441,52.0,2.0,15.0,0.0,0.0
442,74.0,16.0,15.0,0.0,0.0
443,59.0,4.0,30.0,0.0,0.0
444,80.0,12.0,15.0,0.0,0.0
445,83.0,10.0,30.0,0.0,0.0
446,62.0,0.0,30.0,0.0,0.0
447,89.0,10.0,20.0,0.0,0.0
448,68.0,10.0,15.0,0.0,0.0
449,52.0,6.0,15.0,0.0,0.0
450,72.0,24.0,15.0,0.0,0.0
451,60.0,38.0,30.0,0.0,0.0
452,81.0,9.0,15.0,0.0,0.0
453,84.0,3.0,15.0,0.0,0.0
454,69.0,4.0,15.0,0.0,0.0
455,88.0,4.0,60.0,0.0,0.0
456,52.0,11.0,20.0,0.0,0.0
457,76.0,7.0,15.0,0.0,0.0
458,83.0,20.0,20.0,0.0,0.0
459,59.0,6.0,15.0,0.0,0.0
460,86.0,2.0,60.0,0.0,0.0
461,64.0,4.0,15.0,0.0,0.0
462,92.0,12.0,15.0,0.0,0.0
463,71.0,36.0,15.0,0.0,0.0
464,76.0,54.0,20.0,0.0,0.0
465,84.0,6.0,60.0,0.0,0.0
466,45.0,12.0,30.0,0.0,0.0
467,93.0,42.0,15.0,0.0,0.0
468,57.0,24.0,15.0,0.0,0.0
469,76.0,3.0,20.0,0.0,0.0
470,64.0,21.0,15.0,0.0,0.0
471,84.0,24.0,30.0,0.0,0.0
472,72.0,10.0,15.0,0.0,0.0
473,88.0,6.0,20.0,0.0,0.0
474,57.0,10.0,15.0,0.0,0.0
475,75.0,14.0,15.0,0.0,0.0
476,64.0,14.0,15.0,0.0,0.0
477,84.0,24.0,30.0,0.0,0.0
478,72.0,4.0,15.0,0.0,0.0
479,87.0,8.0,30.0,0.0,0.0
480,57.0,10.0,15.0,0.0,0.0
481,76.0,24.0,15.0,0.0,0.0
482,84.0,21.0,30.0,0.0,0.0
483,64.0,4.0,20.0,0.0,0.0
484,72.0,2.0,15.0,0.0,0.0
485,88.0,13.0,30.0,0.0,0.0
486,57.0,14.0,15.0,0.0,0.0
487,77.0,16.0,20.0,0.0,0.0
488,64.0,4.0,20.0,0.0,0.0
489,84.0,24.0,20.0,0.0,0.0
490,89.0,6.0,30.0,0.0,0.0
491,72.0,2.0,15.0,0.0,0.0
492,57.0,20.0,15.0,0.0,0.0
493,64.0,8.0,30.0,0.0,0.0
494,76.0,16.0,15.0,0.0,0.0
495,72.0,2.0,15.0,0.0,0.0
496,84.0,40.0,20.0,0.0,0.0
497,88.0,0.0,60.0,0.0,0.0
498,56.0,2.0,30.0,0.0,0.0
499,76.0,15.0,20.0,0.0,0.0
500,83.0,5.0,15.0,0.0,0.0
501,62.0,5.0,30.0,0.0,0.0
502,86.0,15.0,15.0,0.0,0.0
503,64.0,12.0,20.0,0.0,0.0
504,95.0,5.0,15.0,0.0,0.0
505,71.0,40.0,15.0,0.0,0.0
506,56.0,15.0,15.0,0.0,0.0
507,76.0,8.0,20.0,0.0,0.0
508,62.0,4.0,15.0,0.0,0.0
509,83.0,13.0,15.0,0.0,0.0
510,64.0,0.0,20.0,0.0,0.0
511,86.0,7.0,20.0,0.0,0.0
512,88.0,18.0,20.0,0.0,0.0
513,71.0,8.0,15.0,0.0,0.0
514,56.0,16.0,15.0,0.0,0.0
515,75.0,18.0,20.0,0.0,0.0
516,62.0,5.0,15.0,0.0,0.0
517,83.0,7.0,30.0,0.0,0.0
518,86.0,15.0,30.0,0.0,0.0
519,71.0,12.0,15.0,0.0,0.0
520,87.0,1.0,30.0,0.0,0.0
521,56.0,12.0,15.0,0.0,0.0
522,76.0,6.0,15.0,0.0,0.0
523,62.0,20.0,15.0,0.0,0.0
524,83.0,0.0,20.0,0.0,0.0
525,64.0,5.0,30.0,0.0,0.0
526,86.0,4.0,30.0,0.0,0.0
527,88.0,18.0,30.0,0.0,0.0
528,71.0,10.0,15.0,0.0,0.0
529,56.0,11.0,15.0,0.0,0.0
530,77.0,4.0,30.0,0.0,0.0
531,62.0,4.0,15.0,0.0,0.0
532,83.0,12.0,15.0,0.0,0.0
533,86.0,20.0,30.0,0.0,0.0
534,89.0,6.0,30.0,0.0,0.0
535,71.0,12.0,15.0,0.0,0.0
536,56.0,11.0,15.0,0.0,0.0
537,76.0,5.0,15.0,0.0,0.0
538,62.0,14.0,20.0,0.0,0.0
539,83.0,6.0,15.0,0.0,0.0
540,88.0,6.0,60.0,0.0,0.0
541,71.0,4.0,15.0,0.0,0.0
542,86.0,36.0,15.0,0.0,0.0
543,57.0,9.0,30.0,0.0,0.0
544,76.0,4.0,20.0,0.0,0.0
545,60.0,2.0,30.0,0.0,0.0
546,84.0,9.0,20.0,0.0,0.0
547,88.0,5.0,15.0,0.0,0.0
548,64.0,27.0,15.0,0.0,0.0
549,96.0,4.0,15.0,0.0,0.0
550,72.0,52.0,15.0,0.0,0.0
551,59.0,20.0,30.0,0.0,0.0
552,62.0,7.0,90.0,0.0,0.0
553,86.0,4.0,15.0,0.0,0.0
554,91.0,3.0,30.0,0.0,0.0
555,67.0,1.0,30.0,0.0,0.0
556,95.0,14.0,15.0,0.0,0.0
557,74.0,21.0,20.0,0.0,0.0
558,79.0,4.0,15.0,0.0,0.0
559,60.0,11.0,15.0,0.0,0.0
560,88.0,1.0,15.0,0.0,0.0
561,91.0,18.0,60.0,0.0,0.0
562,67.0,18.0,15.0,0.0,0.0
563,93.0,10.0,20.0,0.0,0.0
564,76.0,8.0,15.0,0.0,0.0
565,79.0,5.0,15.0,0.0,0.0
566,60.0,20.0,15.0,0.0,0.0
567,91.0,39.0,30.0,0.0,0.0
568,69.0,7.0,15.0,0.0,0.0
569,87.0,4.0,20.0,0.0,0.0
570,93.0,4.0,20.0,0.0,0.0
571,75.0,8.0,15.0,0.0,0.0
572,62.0,12.0,60.0,0.0,0.0
573,78.0,15.0,15.0,0.0,0.0
574,69.0,2.0,30.0,0.0,0.0
575,86.0,6.0,30.0,0.0,0.0
576,74.0,23.0,30.0,0.0,0.0
577,93.0,1.0,20.0,0.0,0.0
578,78.0,15.0,15.0,0.0,0.0
579,62.0,5.0,150.0,0.0,0.0
580,84.0,25.0,15.0,0.0,0.0
581,95.0,24.0,15.0,0.0,0.0
582,72.0,46.0,30.0,0.0,0.0
583,79.0,11.0,60.0,0.0,0.0
584,67.0,24.0,20.0,0.0,0.0
585,83.0,4.0,60.0,0.0,0.0
586,71.0,12.0,15.0,0.0,0.0
587,91.0,60.0,30.0,0.0,0.0
588,55.0,6.0,60.0,0.0,0.0
589,62.0,7.0,30.0,0.0,0.0
590,79.0,6.0,30.0,0.0,0.0
591,82.0,0.0,30.0,0.0,0.0
592,70.0,4.0,15.0,0.0,0.0
593,91.0,57.0,15.0,0.0,0.0
594,55.0,5.0,60.0,0.0,0.0
595,75.0,10.0,20.0,0.0,0.0
596,63.0,4.0,60.0,0.0,0.0
597,82.0,14.0,15.0,0.0,0.0
598,70.0,5.0,15.0,0.0,0.0
599,91.0,65.0,15.0,0.0,0.0
600,56.0,58.0,60.0,0.0,0.0
601,65.0,12.0,20.0,0.0,0.0
602,80.0,1.0,15.0,0.0,0.0
603,68.0,7.0,15.0,0.0,0.0
604,89.0,11.0,15.0,0.0,0.0
605,58.0,5.0,60.0,0.0,0.0
606,70.0,4.0,30.0,0.0,0.0
607,63.0,6.0,30.0,0.0,0.0
608,79.0,16.0,30.0,0.0,0.0
609,67.0,21.0,30.0,0.0,0.0
610,82.0,0.0,60.0,0.0,0.0
611,58.0,13.0,60.0,0.0,0.0
612,70.0,19.0,20.0,0.0,0.0
613,65.0,15.0,20.0,0.0,0.0
614,77.0,12.0,60.0,0.0,0.0
615,68.0,9.0,15.0,0.0,0.0
616,86.0,39.0,20.0,0.0,0.0
617,70.0,28.0,15.0,0.0,0.0
618,51.0,42.0,30.0,0.0,0.0
619,79.0,2.0,60.0,0.0,0.0
620,58.0,14.0,60.0,0.0,0.0
621,87.0,65.0,20.0,0.0,0.0
622,67.0,1.0,15.0,0.0,0.0
623,51.0,31.0,15.0,0.0,0.0
624,70.0,6.0,30.0,0.0,0.0
625,79.0,5.0,15.0,0.0,0.0
626,58.0,17.0,20.0,0.0,0.0
627,67.0,35.0,15.0,0.0,0.0
628,82.0,14.0,60.0,0.0,0.0
629,51.0,8.0,15.0,0.0,0.0
630,69.0,24.0,15.0,0.0,0.0
631,58.0,20.0,15.0,0.0,0.0
632,79.0,37.0,30.0,0.0,0.0
633,81.0,9.0,60.0,0.0,0.0
634,67.0,1.0,15.0,0.0,0.0
635,70.0,16.0,20.0,0.0,0.0
636,51.0,3.0,15.0,0.0,0.0
637,79.0,15.0,15.0,0.0,0.0
638,58.0,2.0,15.0,0.0,0.0
639,82.0,12.0,90.0,0.0,0.0
640,67.0,80.0,15.0,0.0,0.0
641,70.0,20.0,60.0,0.0,0.0
642,49.0,1.0,30.0,0.0,0.0
643,79.0,15.0,180.0,0.0,0.0
644,58.0,41.0,30.0,0.0,0.0
645,84.0,37.0,30.0,0.0,0.0
646,67.0,5.0,20.0,0.0,0.0
647,70.0,4.0,15.0,0.0,0.0
648,49.0,28.0,15.0,0.0,0.0
649,77.0,36.0,60.0,0.0,0.0
650,58.0,4.0,15.0,0.0,0.0
651,65.0,22.0,20.0,0.0,0.0
652,85.0,7.0,15.0,0.0,0.0
653,48.0,20.0,30.0,0.0,0.0
654,70.0,12.0,30.0,0.0,0.0
655,58.0,20.0,60.0,0.0,0.0
656,76.0,24.0,30.0,0.0,0.0
657,85.0,5.0,30.0,0.0,0.0
658,64.0,41.0,30.0,0.0,0.0
659,48.0,6.0,15.0,0.0,0.0
660,70.0,18.0,15.0,0.0,0.0
661,76.0,10.0,15.0,0.0,0.0
662,58.0,6.0,20.0,0.0,0.0
663,84.0,21.0,30.0,0.0,0.0
664,64.0,15.0,15.0,0.0,0.0
665,48.0,3.0,15.0,0.0,0.0
666,70.0,29.0,15.0,0.0,0.0
667,76.0,2.0,30.0,0.0,0.0
668,58.0,4.0,15.0,0.0,0.0
669,83.0,18.0,30.0,0.0,0.0
670,64.0,16.0,15.0,0.0,0.0
671,70.0,2.0,15.0,0.0,0.0
672,48.0,12.0,15.0,0.0,0.0
673,76.0,14.0,15.0,0.0,0.0
674,58.0,14.0,15.0,0.0,0.0
675,84.0,5.0,60.0,0.0,0.0
676,64.0,25.0,15.0,0.0,0.0
677,52.0,8.0,20.0,0.0,0.0
678,72.0,6.0,15.0,0.0,0.0
679,60.0,0.0,15.0,0.0,0.0
680,82.0,27.0,15.0,0.0,0.0
681,89.0,26.0,15.0,0.0,0.0
682,70.0,1.0,15.0,0.0,0.0
683,72.0,10.0,15.0,0.0,0.0
684,52.0,12.0,15.0,0.0,0.0
685,60.0,3.0,15.0,0.0,0.0
686,82.0,18.0,15.0,0.0,0.0
687,91.0,6.0,15.0,0.0,0.0
688,70.0,40.0,15.0,0.0,0.0
689,72.0,14.0,15.0,0.0,0.0
690,53.0,10.0,90.0,0.0,0.0
691,80.0,70.0,15.0,0.0,0.0
692,60.0,34.0,90.0,0.0,0.0
693,92.0,2.0,30.0,0.0,0.0
694,68.0,0.0,30.0,0.0,0.0
695,53.0,20.0,20.0,0.0,0.0
696,72.0,2.0,30.0,0.0,0.0
697,60.0,10.0,15.0,0.0,0.0
698,80.0,8.0,15.0,0.0,0.0
699,68.0,32.0,15.0,0.0,0.0
700,84.0,14.0,30.0,0.0,0.0
701,53.0,14.0,15.0,0.0,0.0
702,71.0,2.0,15.0,0.0,0.0
703,60.0,16.0,15.0,0.0,0.0
704,80.0,0.0,15.0,0.0,0.0
705,68.0,46.0,15.0,0.0,0.0
706,83.0,10.0,30.0,0.0,0.0
707,53.0,2.0,15.0,0.0,0.0
708,72.0,14.0,20.0,0.0,0.0
709,60.0,2.0,15.0,0.0,0.0
710,80.0,6.0,15.0,0.0,0.0
711,68.0,46.0,15.0,0.0,0.0
712,84.0,8.0,60.0,0.0,0.0
713,72.0,6.0,30.0,0.0,0.0
714,51.0,6.0,15.0,0.0,0.0
715,60.0,52.0,15.0,0.0,0.0
716,80.0,37.0,120.0,0.0,0.0
717,86.0,1.0,30.0,0.0,0.0
718,68.0,37.0,30.0,0.0,0.0
719,72.0,15.0,15.0,0.0,0.0
720,79.0,45.0,90.0,0.0,0.0
721,60.0,10.0,30.0,0.0,0.0
722,87.0,14.0,20.0,0.0,0.0
723,67.0,22.0,20.0,0.0,0.0
724,72.0,5.0,60.0,0.0,0.0
725,50.0,25.0,30.0,0.0,0.0
726,78.0,5.0,60.0,0.0,0.0
727,60.0,22.0,60.0,0.0,0.0
728,87.0,46.0,30.0,0.0,0.0
729,66.0,2.0,30.0,0.0,0.0
730,72.0,4.0,20.0,0.0,0.0
731,50.0,16.0,15.0,0.0,0.0
732,78.0,22.0,20.0,0.0,0.0
733,60.0,14.0,60.0,0.0,0.0
734,86.0,10.0,30.0,0.0,0.0
735,66.0,6.0,15.0,0.0,0.0
736,72.0,12.0,15.0,0.0,0.0
737,50.0,14.0,15.0,0.0,0.0
738,78.0,24.0,20.0,0.0,0.0
739,85.0,2.0,30.0,0.0,0.0
740,60.0,16.0,30.0,0.0,0.0
741,66.0,2.0,15.0,0.0,0.0
742,72.0,4.0,15.0,0.0,0.0
743,50.0,12.0,15.0,0.0,0.0
744,78.0,34.0,15.0,0.0,0.0
745,86.0,8.0,60.0,0.0,0.0
746,66.0,18.0,15.0,0.0,0.0
747,74.0,12.0,15.0,0.0,0.0
748,54.0,0.0,20.0,0.0,0.0
749,84.0,16.0,20.0,0.0,0.0
750,62.0,4.0,15.0,0.0,0.0
751,91.0,18.0,15.0,0.0,0.0
752,72.0,18.0,15.0,0.0,0.0
753,74.0,18.0,15.0,0.0,0.0
754,54.0,2.0,15.0,0.0,0.0
755,84.0,14.0,15.0,0.0,0.0
756,62.0,8.0,15.0,0.0,0.0
757,93.0,18.0,15.0,0.0,0.0
758,72.0,20.0,15.0,0.0,0.0
759,74.0,27.0,15.0,0.0,0.0
760,55.0,6.0,60.0,0.0,0.0
761,82.0,53.0,15.0,0.0,0.0
762,62.0,2.0,60.0,0.0,0.0
763,94.0,26.0,30.0,0.0,0.0
764,70.0,4.0,30.0,0.0,0.0
765,55.0,16.0,15.0,0.0,0.0
766,74.0,24.0,15.0,0.0,0.0
767,62.0,4.0,30.0,0.0,0.0
768,82.0,28.0,30.0,0.0,0.0
769,70.0,6.0,15.0,0.0,0.0
770,86.0,10.0,30.0,0.0,0.0
771,55.0,12.0,15.0,0.0,0.0
772,74.0,16.0,20.0,0.0,0.0
773,62.0,10.0,30.0,0.0,0.0
774,82.0,34.0,30.0,0.0,0.0
775,70.0,4.0,15.0,0.0,0.0
776,85.0,28.0,60.0,0.0,0.0
777,55.0,1.0,15.0,0.0,0.0
778,74.0,1.0,15.0,0.0,0.0
779,62.0,36.0,30.0,0.0,0.0
780,82.0,6.0,30.0,0.0,0.0
781,86.0,4.0,60.0,0.0,0.0
782,70.0,2.0,15.0,0.0,0.0
783,74.0,2.0,30.0,0.0,0.0
784,53.0,16.0,30.0,0.0,0.0
785,80.0,8.0,30.0,0.0,0.0
786,62.0,24.0,30.0,0.0,0.0
787,87.0,2.0,60.0,0.0,0.0
788,68.0,8.0,15.0,0.0,0.0
789,74.0,8.0,15.0,0.0,0.0
790,53.0,4.0,15.0,0.0,0.0
791,80.0,16.0,15.0,0.0,0.0
792,62.0,12.0,20.0,0.0,0.0
793,89.0,40.0,20.0,0.0,0.0
794,68.0,6.0,15.0,0.0,0.0
795,51.0,7.0,30.0,0.0,0.0
796,70.0,8.0,20.0,0.0,0.0
797,79.0,33.0,15.0,0.0,0.0
798,58.0,8.0,60.0,0.0,0.0
799,91.0,4.0,15.0,0.0,0.0
800,67.0,34.0,20.0,0.0,0.0
801,51.0,20.0,15.0,0.0,0.0
802,70.0,9.0,20.0,0.0,0.0
803,58.0,17.0,15.0,0.0,0.0
804,79.0,24.0,30.0,0.0,0.0
805,82.0,6.0,30.0,0.0,0.0
806,67.0,2.0,15.0,0.0,0.0
807,51.0,10.0,15.0,0.0,0.0
808,69.0,18.0,15.0,0.0,0.0
809,79.0,28.0,30.0,0.0,0.0
810,58.0,14.0,15.0,0.0,0.0
811,81.0,10.0,60.0,0.0,0.0
812,67.0,2.0,15.0,0.0,0.0
813,70.0,18.0,30.0,0.0,0.0
814,51.0,6.0,15.0,0.0,0.0
815,79.0,6.0,30.0,0.0,0.0
816,58.0,8.0,15.0,0.0,0.0
817,82.0,30.0,60.0,0.0,0.0
818,67.0,30.0,15.0,0.0,0.0
819,70.0,2.0,30.0,0.0,0.0
820,50.0,6.0,15.0,0.0,0.0
821,79.0,8.0,90.0,0.0,0.0
822,58.0,6.0,30.0,0.0,0.0
823,84.0,22.0,30.0,0.0,0.0
824,67.0,4.0,15.0,0.0,0.0
825,70.0,10.0,15.0,0.0,0.0
826,50.0,6.0,15.0,0.0,0.0
827,77.0,2.0,15.0,0.0,0.0
828,58.0,10.0,15.0,0.0,0.0
829,86.0,12.0,15.0,0.0,0.0
830,65.0,42.0,15.0,0.0,0.0
831,67.0,12.0,15.0,0.0,0.0
832,48.0,4.0,90.0,0.0,0.0
833,75.0,56.0,15.0,0.0,0.0
834,55.0,32.0,60.0,0.0,0.0
835,63.0,2.0,30.0,0.0,0.0
836,87.0,4.0,20.0,0.0,0.0
837,48.0,22.0,20.0,0.0,0.0
838,67.0,8.0,20.0,0.0,0.0
839,55.0,14.0,30.0,0.0,0.0
840,75.0,6.0,15.0,0.0,0.0
841,63.0,10.0,15.0,0.0,0.0
842,79.0,24.0,30.0,0.0,0.0
843,48.0,17.0,15.0,0.0,0.0
844,66.0,2.0,15.0,0.0,0.0
845,54.0,11.0,15.0,0.0,0.0
846,75.0,40.0,20.0,0.0,0.0
847,78.0,9.0,30.0,0.0,0.0
848,67.0,6.0,30.0,0.0,0.0
849,48.0,13.0,15.0,0.0,0.0
850,55.0,4.0,60.0,0.0,0.0
851,75.0,15.0,15.0,0.0,0.0
852,79.0,16.0,30.0,0.0,0.0
853,63.0,17.0,15.0,0.0,0.0
854,68.0,7.0,15.0,0.0,0.0
855,48.0,11.0,20.0,0.0,0.0
856,56.0,6.0,60.0,0.0,0.0
857,75.0,16.0,15.0,0.0,0.0
858,80.0,30.0,20.0,0.0,0.0
859,63.0,3.0,15.0,0.0,0.0
860,67.0,14.0,30.0,0.0,0.0
861,48.0,6.0,15.0,0.0,0.0
862,75.0,13.0,20.0,0.0,0.0
863,55.0,4.0,30.0,0.0,0.0
864,79.0,19.0,30.0,0.0,0.0
865,63.0,13.0,15.0,0.0,0.0
866,48.0,13.0,20.0,0.0,0.0
867,68.0,7.0,15.0,0.0,0.0
868,75.0,15.0,20.0,0.0,0.0
869,56.0,18.0,30.0,0.0,0.0
870,80.0,17.0,60.0,0.0,0.0
871,63.0,14.0,15.0,0.0,0.0
872,69.0,2.0,30.0,0.0,0.0
873,48.0,12.0,30.0,0.0,0.0
874,75.0,6.0,30.0,0.0,0.0
875,57.0,29.0,30.0,0.0,0.0
876,81.0,12.0,20.0,0.0,0.0
877,63.0,4.0,15.0,0.0,0.0
878,48.0,0.0,20.0,0.0,0.0
879,68.0,15.0,20.0,0.0,0.0
880,75.0,4.0,30.0,0.0,0.0
881,56.0,12.0,30.0,0.0,0.0
882,80.0,16.0,30.0,0.0,0.0
883,63.0,18.0,15.0,0.0,0.0
884,69.0,14.0,30.0,0.0,0.0
885,48.0,4.0,20.0,0.0,0.0
886,75.0,12.0,30.0,0.0,0.0
887,57.0,21.0,30.0,0.0,0.0
888,81.0,19.0,60.0,0.0,0.0
889,63.0,6.0,15.0,0.0,0.0
890,49.0,12.0,30.0,0.0,0.0
891,70.0,8.0,30.0,0.0,0.0
892,75.0,14.0,30.0,0.0,0.0
893,58.0,16.0,60.0,0.0,0.0
894,82.0,12.0,30.0,0.0,0.0
895,63.0,6.0,15.0,0.0,0.0
896,49.0,16.0,15.0,0.0,0.0
897,67.0,5.0,20.0,0.0,0.0
898,55.0,17.0,15.0,0.0,0.0
899,75.0,6.0,20.0,0.0,0.0
900,79.0,88.0,30.0,0.0,0.0
901,63.0,16.0,15.0,0.0,0.0
902,74.0,40.0,60.0,0.0,0.0
903,78.0,22.0,30.0,0.0,0.0
904,66.0,0.0,30.0,0.0,0.0
905,38.0,8.0,30.0,0.0,0.0
906,50.0,50.0,20.0,0.0,0.0
907,72.0,8.0,15.0,0.0,0.0
908,66.0,45.0,15.0,0.0,0.0
909,81.0,17.0,60.0,0.0,0.0
910,86.0,5.0,15.0,0.0,0.0
911,50.0,15.0,20.0,0.0,0.0
912,57.0,7.0,15.0,0.0,0.0
913,72.0,7.0,20.0,0.0,0.0
914,66.0,28.0,15.0,0.0,0.0
915,80.0,9.0,60.0,0.0,0.0
916,86.0,12.0,15.0,0.0,0.0
917,50.0,11.0,15.0,0.0,0.0
918,72.0,3.0,15.0,0.0,0.0
919,57.0,9.0,15.0,0.0,0.0
920,66.0,31.0,15.0,0.0,0.0
921,81.0,5.0,30.0,0.0,0.0
922,86.0,18.0,30.0,0.0,0.0
923,50.0,2.0,15.0,0.0,0.0
924,72.0,3.0,15.0,0.0,0.0
925,57.0,14.0,15.0,0.0,0.0
926,83.0,3.0,30.0,0.0,0.0
927,67.0,26.0,15.0,0.0,0.0
928,86.0,6.0,15.0,0.0,0.0
929,50.0,22.0,15.0,0.0,0.0
930,72.0,12.0,20.0,0.0,0.0
931,57.0,4.0,15.0,0.0,0.0
932,78.0,0.0,90.0,0.0,0.0
933,69.0,22.0,15.0,0.0,0.0
934,86.0,42.0,15.0,0.0,0.0
935,50.0,9.0,30.0,0.0,0.0
936,71.0,9.0,20.0,0.0,0.0
937,79.0,10.0,90.0,0.0,0.0
938,59.0,38.0,15.0,0.0,0.0
939,86.0,22.0,30.0,0.0,0.0
940,67.0,12.0,15.0,0.0,0.0
941,50.0,25.0,20.0,0.0,0.0
942,73.0,7.0,15.0,0.0,0.0
943,79.0,2.0,30.0,0.0,0.0
944,58.0,28.0,15.0,0.0,0.0
945,88.0,2.0,20.0,0.0,0.0
946,67.0,42.0,15.0,0.0,0.0
947,50.0,20.0,15.0,0.0,0.0
948,79.0,17.0,15.0,0.0,0.0
949,58.0,3.0,30.0,0.0,0.0
950,87.0,29.0,20.0,0.0,0.0
951,67.0,4.0,15.0,0.0,0.0
952,73.0,7.0,15.0,0.0,0.0
953,50.0,14.0,15.0,0.0,0.0
954,79.0,12.0,15.0,0.0,0.0
955,58.0,6.0,20.0,0.0,0.0
956,88.0,3.0,15.0,0.0,0.0
957,67.0,25.0,15.0,0.0,0.0
958,73.0,12.0,15.0,0.0,0.0
959,50.0,5.0,15.0,0.0,0.0
960,79.0,31.0,15.0,0.0,0.0
961,57.0,34.0,60.0,0.0,0.0
962,90.0,15.0,20.0,0.0,0.0
963,67.0,4.0,15.0,0.0,0.0
964,50.0,10.0,15.0,0.0,0.0
965,79.0,13.0,15.0,0.0,0.0
966,57.0,29.0,15.0,0.0,0.0
967,88.0,1.0,60.0,0.0,0.0
968,67.0,27.0,15.0,0.0,0.0
969,78.0,70.0,15.0,0.0,0.0
970,86.0,5.0,60.0,0.0,0.0
971,38.0,11.0,30.0,0.0,0.0
972,93.0,63.0,20.0,0.0,0.0
973,50.0,12.0,30.0,0.0,0.0
974,57.0,26.0,15.0,0.0,0.0
975,72.0,35.0,20.0,0.0,0.0
976,66.0,5.0,15.0,0.0,0.0
977,81.0,2.0,90.0,0.0,0.0
978,86.0,23.0,15.0,0.0,0.0
979,50.0,14.0,30.0,0.0,0.0
980,72.0,7.0,15.0,0.0,0.0
981,65.0,32.0,15.0,0.0,0.0
982,80.0,36.0,60.0,0.0,0.0
983,86.0,25.0,20.0,0.0,0.0
984,50.0,2.0,15.0,0.0,0.0
985,57.0,3.0,15.0,0.0,0.0
986,72.0,6.0,15.0,0.0,0.0
987,66.0,2.0,15.0,0.0,0.0
988,81.0,10.0,30.0,0.0,0.0
989,86.0,17.0,30.0,0.0,0.0
990,50.0,3.0,30.0,0.0,0.0
991,72.0,20.0,15.0,0.0,0.0
992,57.0,16.0,30.0,0.0,0.0
993,83.0,13.0,30.0,0.0,0.0
994,67.0,5.0,15.0,0.0,0.0
995,86.0,25.0,20.0,0.0,0.0
996,72.0,5.0,15.0,0.0,0.0
997,50.0,14.0,15.0,0.0,0.0
998,84.0,26.0,60.0,0.0,0.0
999,57.0,6.0,15.0,0.0,0.0
1000,86.0,26.0,15.0,0.0,0.0
1001,72.0,1.0,15.0,0.0,0.0
1002,69.0,11.0,15.0,0.0,0.0
1003,78.0,15.0,30.0,0.0,0.0
1004,86.0,12.0,15.0,0.0,0.0
1005,50.0,24.0,30.0,0.0,0.0
1006,71.0,27.0,15.0,0.0,0.0
1007,79.0,42.0,60.0,0.0,0.0
1008,59.0,22.0,20.0,0.0,0.0
1009,86.0,2.0,20.0,0.0,0.0
1010,67.0,2.0,15.0,0.0,0.0
1011,73.0,21.0,20.0,0.0,0.0
1012,50.0,21.0,30.0,0.0,0.0
1013,79.0,1.0,30.0,0.0,0.0
1014,58.0,15.0,15.0,0.0,0.0
1015,88.0,3.0,15.0,0.0,0.0
1016,67.0,43.0,15.0,0.0,0.0
1017,73.0,16.0,20.0,0.0,0.0
1018,50.0,5.0,15.0,0.0,0.0
1019,79.0,13.0,15.0,0.0,0.0
1020,58.0,5.0,30.0,0.0,0.0
1021,87.0,30.0,20.0,0.0,0.0
1022,67.0,4.0,15.0,0.0,0.0
1023,73.0,4.0,15.0,0.0,0.0
1024,50.0,8.0,15.0,0.0,0.0
1025,79.0,15.0,15.0,0.0,0.0
1026,58.0,29.0,30.0,0.0,0.0
1027,88.0,9.0,15.0,0.0,0.0
1028,67.0,6.0,15.0,0.0,0.0
1029,73.0,11.0,15.0,0.0,0.0
1030,50.0,1.0,15.0,0.0,0.0
1031,79.0,21.0,15.0,0.0,0.0
1032,57.0,6.0,20.0,0.0,0.0
1033,90.0,7.0,15.0,0.0,0.0
1034,67.0,37.0,15.0,0.0,0.0
1035,73.0,14.0,15.0,0.0,0.0
1036,50.0,4.0,15.0,0.0,0.0
1037,79.0,13.0,15.0,0.0,0.0
1038,57.0,22.0,15.0,0.0,0.0
1039,88.0,16.0,30.0,0.0,0.0
1040,67.0,14.0,15.0,0.0,0.0
1041,78.0,76.0,15.0,0.0,0.0
1042,86.0,6.0,60.0,0.0,0.0
1043,38.0,14.0,30.0,0.0,0.0
1044,93.0,64.0,20.0,0.0,0.0
1045,50.0,9.0,30.0,0.0,0.0
1046,57.0,27.0,15.0,0.0,0.0
1047,72.0,9.0,15.0,0.0,0.0
1048,66.0,44.0,15.0,0.0,0.0
1049,81.0,6.0,30.0,0.0,0.0
1050,86.0,15.0,20.0,0.0,0.0
1051,50.0,6.0,30.0,0.0,0.0
1052,57.0,14.0,15.0,0.0,0.0
1053,72.0,11.0,15.0,0.0,0.0
1054,65.0,30.0,15.0,0.0,0.0
1055,80.0,0.0,30.0,0.0,0.0
1056,86.0,6.0,15.0,0.0,0.0
1057,50.0,22.0,15.0,0.0,0.0
1058,57.0,6.0,15.0,0.0,0.0
1059,72.0,3.0,15.0,0.0,0.0
1060,66.0,38.0,15.0,0.0,0.0
1061,81.0,6.0,30.0,0.0,0.0
1062,86.0,21.0,30.0,0.0,0.0
1063,50.0,2.0,15.0,0.0,0.0
1064,57.0,15.0,20.0,0.0,0.0
1065,72.0,1.0,15.0,0.0,0.0
1066,83.0,5.0,30.0,0.0,0.0
1067,67.0,19.0,15.0,0.0,0.0
1068,86.0,12.0,15.0,0.0,0.0
1069,50.0,13.0,15.0,0.0,0.0
1070,72.0,15.0,15.0,0.0,0.0
1071,57.0,5.0,30.0,0.0,0.0
1072,81.0,14.0,30.0,0.0,0.0
1073,66.0,18.0,15.0,0.0,0.0
1074,86.0,21.0,30.0,0.0,0.0
1075,50.0,11.0,30.0,0.0,0.0
1076,73.0,25.0,30.0,0.0,0.0
1077,58.0,6.0,60.0,0.0,0.0
1078,82.0,6.0,60.0,0.0,0.0
1079,67.0,11.0,15.0,0.0,0.0
1080,87.0,15.0,30.0,0.0,0.0
1081,50.0,16.0,15.0,0.0,0.0
1082,73.0,27.0,15.0,0.0,0.0
1083,58.0,10.0,60.0,0.0,0.0
1084,82.0,4.0,60.0,0.0,0.0
1085,67.0,9.0,15.0,0.0,0.0
1086,87.0,14.0,20.0,0.0,0.0
1087,50.0,14.0,15.0,0.0,0.0
1088,73.0,10.0,20.0,0.0,0.0
1089,58.0,14.0,30.0,0.0,0.0
1090,66.0,12.0,15.0,0.0,0.0
1091,81.0,4.0,90.0,0.0,0.0
1092,87.0,11.0,20.0,0.0,0.0
1093,50.0,22.0,15.0,0.0,0.0
1094,73.0,7.0,20.0,0.0,0.0
1095,58.0,20.0,30.0,0.0,0.0
1096,82.0,4.0,60.0,0.0,0.0
1097,67.0,2.0,15.0,0.0,0.0
1098,87.0,10.0,20.0,0.0,0.0
1099,50.0,15.0,15.0,0.0,0.0
1100,73.0,28.0,20.0,0.0,0.0
1101,58.0,5.0,15.0,0.0,0.0
1102,84.0,8.0,60.0,0.0,0.0
1103,69.0,14.0,20.0,0.0,0.0
1104,87.0,17.0,20.0,0.0,0.0
1105,50.0,9.0,15.0,0.0,0.0
1106,73.0,24.0,20.0,0.0,0.0
1107,58.0,1.0,30.0,0.0,0.0
1108,82.0,34.0,30.0,0.0,0.0
1109,67.0,9.0,15.0,0.0,0.0
1110,87.0,2.0,60.0,0.0,0.0
1111,50.0,2.0,20.0,0.0,0.0
1112,74.0,5.0,20.0,0.0,0.0
1113,59.0,19.0,15.0,0.0,0.0
1114,83.0,9.0,30.0,0.0,0.0
1115,68.0,9.0,15.0,0.0,0.0
1116,88.0,23.0,20.0,0.0,0.0
1117,50.0,7.0,15.0,0.0,0.0
1118,74.0,12.0,15.0,0.0,0.0
1119,59.0,12.0,15.0,0.0,0.0
1120,83.0,5.0,30.0,0.0,0.0
1121,68.0,17.0,15.0,0.0,0.0
1122,88.0,16.0,20.0,0.0,0.0
1123,50.0,12.0,15.0,0.0,0.0
1124,74.0,19.0,15.0,0.0,0.0
1125,59.0,6.0,30.0,0.0,0.0
1126,82.0,6.0,30.0,0.0,0.0
1127,67.0,9.0,15.0,0.0,0.0
1128,88.0,14.0,20.0,0.0,0.0
1129,50.0,18.0,15.0,0.0,0.0
1130,74.0,9.0,20.0,0.0,0.0
1131,83.0,28.0,60.0,0.0,0.0
1132,59.0,12.0,20.0,0.0,0.0
1133,68.0,12.0,15.0,0.0,0.0
1134,88.0,24.0,20.0,0.0,0.0
1135,50.0,5.0,20.0,0.0,0.0
1136,74.0,2.0,20.0,0.0,0.0
1137,59.0,4.0,15.0,0.0,0.0
1138,85.0,4.0,60.0,0.0,0.0
1139,69.0,12.0,15.0,0.0,0.0
1140,88.0,26.0,20.0,0.0,0.0
1141,50.0,2.0,15.0,0.0,0.0
1142,74.0,22.0,20.0,0.0,0.0
1143,83.0,9.0,30.0,0.0,0.0
1144,59.0,11.0,15.0,0.0,0.0
1145,88.0,45.0,20.0,0.0,0.0
1146,68.0,9.0,15.0,0.0,0.0
1147,50.0,13.0,30.0,0.0,0.0
1148,76.0,8.0,60.0,0.0,0.0
1149,81.0,0.0,30.0,0.0,0.0
1150,57.0,17.0,15.0,0.0,0.0
1151,85.0,4.0,30.0,0.0,0.0
1152,61.0,4.0,15.0,0.0,0.0
1153,88.0,0.0,60.0,0.0,0.0
1154,67.0,40.0,15.0,0.0,0.0
1155,78.0,12.0,20.0,0.0,0.0
1156,50.0,1.0,15.0,0.0,0.0
1157,84.0,6.0,15.0,0.0,0.0
1158,57.0,18.0,15.0,0.0,0.0
1159,93.0,4.0,15.0,0.0,0.0
1160,60.0,31.0,30.0,0.0,0.0
1161,66.0,6.0,15.0,0.0,0.0
1162,77.0,11.0,20.0,0.0,0.0
1163,50.0,14.0,30.0,0.0,0.0
1164,57.0,1.0,30.0,0.0,0.0
1165,84.0,5.0,30.0,0.0,0.0
1166,60.0,22.0,30.0,0.0,0.0
1167,92.0,8.0,20.0,0.0,0.0
1168,66.0,8.0,15.0,0.0,0.0
1169,78.0,2.0,15.0,0.0,0.0
1170,50.0,18.0,15.0,0.0,0.0
1171,84.0,14.0,20.0,0.0,0.0
1172,57.0,4.0,15.0,0.0,0.0
1173,93.0,6.0,15.0,0.0,0.0
1174,60.0,1.0,20.0,0.0,0.0
1175,66.0,45.0,15.0,0.0,0.0
1176,78.0,18.0,20.0,0.0,0.0
1177,50.0,12.0,30.0,0.0,0.0
1178,57.0,21.0,30.0,0.0,0.0
1179,88.0,1.0,30.0,0.0,0.0
1180,60.0,18.0,15.0,0.0,0.0
1181,96.0,60.0,15.0,0.0,0.0
1182,78.0,12.0,15.0,0.0,0.0
1183,50.0,4.0,20.0,0.0,0.0
1184,86.0,30.0,15.0,0.0,0.0
1185,95.0,20.0,15.0,0.0,0.0
1186,60.0,26.0,15.0,0.0,0.0
1187,66.0,86.0,15.0,0.0,0.0
1188,74.0,13.0,90.0,0.0,0.0
1189,83.0,17.0,60.0,0.0,0.0
1190,43.0,59.0,60.0,0.0,0.0
1191,91.0,52.0,60.0,0.0,0.0
1192,55.0,18.0,30.0,0.0,0.0
1193,62.0,37.0,20.0,0.0,0.0
1194,74.0,23.0,30.0,0.0,0.0
1195,83.0,48.0,30.0,0.0,0.0
1196,71.0,12.0,20.0,0.0,0.0
1197,86.0,2.0,60.0,0.0,0.0
1198,55.0,10.0,20.0,0.0,0.0
1199,74.0,10.0,15.0,0.0,0.0
1200,62.0,16.0,15.0,0.0,0.0
1201,83.0,8.0,15.0,0.0,0.0
1202,71.0,26.0,15.0,0.0,0.0
1203,85.0,22.0,30.0,0.0,0.0
1204,55.0,3.0,15.0,0.0,0.0
1205,74.0,1.0,15.0,0.0,0.0
1206,62.0,26.0,15.0,0.0,0.0
1207,83.0,8.0,15.0,0.0,0.0
1208,86.0,6.0,15.0,0.0,0.0
1209,71.0,42.0,15.0,0.0,0.0
1210,74.0,10.0,15.0,0.0,0.0
1211,55.0,26.0,20.0,0.0,0.0
1212,83.0,14.0,30.0,0.0,0.0
1213,62.0,8.0,15.0,0.0,0.0
1214,90.0,10.0,15.0,0.0,0.0
1215,71.0,40.0,15.0,0.0,0.0
1216,88.0,23.0,30.0,0.0,0.0
1217,55.0,17.0,15.0,0.0,0.0
1218,62.0,12.0,15.0,0.0,0.0
1219,74.0,12.0,15.0,0.0,0.0
1220,71.0,2.0,15.0,0.0,0.0
1221,83.0,52.0,15.0,0.0,0.0
1222,86.0,6.0,60.0,0.0,0.0
1223,54.0,14.0,20.0,0.0,0.0
1224,74.0,0.0,15.0,0.0,0.0
1225,62.0,4.0,15.0,0.0,0.0
1226,84.0,32.0,15.0,0.0,0.0
1227,72.0,16.0,15.0,0.0,0.0
1228,93.0,44.0,15.0,0.0,0.0
1229,54.0,20.0,15.0,0.0,0.0
1230,74.0,27.0,15.0,0.0,0.0
1231,62.0,2.0,15.0,0.0,0.0
1232,84.0,3.0,20.0,0.0,0.0
1233,72.0,34.0,15.0,0.0,0.0
1234,86.0,6.0,30.0,0.0,0.0
1235,54.0,12.0,15.0,0.0,0.0
1236,74.0,11.0,15.0,0.0,0.0
1237,62.0,22.0,15.0,0.0,0.0
1238,84.0,26.0,30.0,0.0,0.0
1239,85.0,8.0,30.0,0.0,0.0
1240,72.0,3.0,15.0,0.0,0.0
1241,54.0,8.0,15.0,0.0,0.0
1242,74.0,12.0,15.0,0.0,0.0
1243,62.0,13.0,15.0,0.0,0.0
1244,84.0,9.0,20.0,0.0,0.0
1245,86.0,2.0,60.0,0.0,0.0
1246,72.0,30.0,15.0,0.0,0.0
1247,74.0,28.0,15.0,0.0,0.0
1248,54.0,0.0,15.0,0.0,0.0
1249,84.0,12.0,30.0,0.0,0.0
1250,62.0,16.0,15.0,0.0,0.0
1251,90.0,14.0,30.0,0.0,0.0
1252,72.0,22.0,15.0,0.0,0.0
1253,88.0,16.0,30.0,0.0,0.0
1254,54.0,14.0,15.0,0.0,0.0
1255,62.0,30.0,15.0,0.0,0.0
1256,74.0,2.0,20.0,0.0,0.0
1257,72.0,9.0,15.0,0.0,0.0
1258,84.0,53.0,15.0,0.0,0.0
1259,86.0,2.0,60.0,0.0,0.0
1260,55.0,6.0,30.0,0.0,0.0
1261,74.0,14.0,20.0,0.0,0.0
1262,62.0,8.0,30.0,0.0,0.0
1263,83.0,14.0,20.0,0.0,0.0
1264,67.0,4.0,15.0,0.0,0.0
1265,86.0,8.0,15.0,0.0,0.0
1266,71.0,20.0,15.0,0.0,0.0
1267,95.0,68.0,15.0,0.0,0.0
1268,57.0,6.0,60.0,0.0,0.0
1269,62.0,2.0,60.0,0.0,0.0
1270,78.0,12.0,30.0,0.0,0.0
1271,66.0,22.0,30.0,0.0,0.0
1272,86.0,4.0,20.0,0.0,0.0
1273,90.0,8.0,15.0,0.0,0.0
1274,72.0,6.0,15.0,0.0,0.0
1275,74.0,16.0,15.0,0.0,0.0
1276,59.0,10.0,30.0,0.0,0.0
1277,79.0,18.0,15.0,0.0,0.0
1278,62.0,14.0,30.0,0.0,0.0
1279,86.0,24.0,30.0,0.0,0.0
1280,67.0,4.0,15.0,0.0,0.0
1281,71.0,4.0,15.0,0.0,0.0
1282,91.0,2.0,15.0,0.0,0.0
1283,47.0,14.0,15.0,0.0,0.0
1284,75.0,4.0,15.0,0.0,0.0
1285,79.0,8.0,15.0,0.0,0.0
1286,55.0,12.0,15.0,0.0,0.0
1287,90.0,52.0,15.0,0.0,0.0
1288,63.0,8.0,15.0,0.0,0.0
1289,48.0,6.0,30.0,0.0,0.0
1290,76.0,2.0,20.0,0.0,0.0
1291,55.0,2.0,30.0,0.0,0.0
1292,79.0,16.0,15.0,0.0,0.0
1293,88.0,12.0,20.0,0.0,0.0
1294,64.0,12.0,15.0,0.0,0.0
1295,76.0,8.0,15.0,0.0,0.0
1296,49.0,4.0,15.0,0.0,0.0
1297,81.0,16.0,15.0,0.0,0.0
1298,57.0,10.0,15.0,0.0,0.0
1299,93.0,12.0,15.0,0.0,0.0
1300,67.0,36.0,15.0,0.0,0.0
1301,74.0,12.0,15.0,0.0,0.0
1302,50.0,22.0,20.0,0.0,0.0
1303,59.0,4.0,60.0,0.0,0.0
1304,83.0,6.0,30.0,0.0,0.0
1305,67.0,16.0,15.0,0.0,0.0
1306,91.0,2.0,30.0,0.0,0.0
1307,83.0,24.0,15.0,0.0,0.0
1308,50.0,12.0,30.0,0.0,0.0
1309,76.0,6.0,15.0,0.0,0.0
1310,58.0,1.0,60.0,0.0,0.0
1311,82.0,22.0,15.0,0.0,0.0
1312,61.0,8.0,30.0,0.0,0.0
1313,85.0,16.0,30.0,0.0,0.0
1314,91.0,4.0,15.0,0.0,0.0
1315,67.0,1.0,15.0,0.0,0.0
1316,74.0,5.0,15.0,0.0,0.0
1317,50.0,13.0,15.0,0.0,0.0
1318,57.0,16.0,20.0,0.0,0.0
1319,81.0,6.0,15.0,0.0,0.0
1320,86.0,23.0,30.0,0.0,0.0
1321,90.0,4.0,15.0,0.0,0.0
1322,66.0,4.0,15.0,0.0,0.0
1323,62.0,12.0,15.0,0.0,0.0
1324,52.0,2.0,20.0,0.0,0.0
1325,74.0,9.0,15.0,0.0,0.0
1326,59.0,6.0,30.0,0.0,0.0
1327,80.0,20.0,15.0,0.0,0.0
1328,83.0,18.0,30.0,0.0,0.0
1329,89.0,8.0,20.0,0.0,0.0
1330,62.0,2.0,30.0,0.0,0.0
1331,68.0,4.0,15.0,0.0,0.0
1332,52.0,1.0,15.0,0.0,0.0
1333,72.0,25.0,15.0,0.0,0.0
1334,60.0,18.0,60.0,0.0,0.0
1335,81.0,6.0,15.0,0.0,0.0
1336,84.0,14.0,15.0,0.0,0.0
1337,88.0,2.0,60.0,0.0,0.0
1338,69.0,18.0,15.0,0.0,0.0
1339,76.0,4.0,20.0,0.0,0.0
1340,52.0,16.0,15.0,0.0,0.0
1341,83.0,1.0,30.0,0.0,0.0
1342,59.0,25.0,15.0,0.0,0.0
1343,86.0,48.0,90.0,0.0,0.0
1344,92.0,20.0,15.0,0.0,0.0
1345,71.0,12.0,15.0,0.0,0.0
1346,76.0,26.0,15.0,0.0,0.0
1347,84.0,10.0,60.0,0.0,0.0
1348,45.0,8.0,30.0,0.0,0.0
1349,93.0,52.0,20.0,0.0,0.0
1350,57.0,7.0,20.0,0.0,0.0
1351,76.0,15.0,15.0,0.0,0.0
1352,64.0,22.0,15.0,0.0,0.0
1353,84.0,29.0,30.0,0.0,0.0
1354,88.0,0.0,30.0,0.0,0.0
1355,72.0,9.0,15.0,0.0,0.0
1356,57.0,1.0,15.0,0.0,0.0
1357,75.0,33.0,15.0,0.0,0.0
1358,84.0,1.0,30.0,0.0,0.0
1359,64.0,3.0,30.0,0.0,0.0
1360,87.0,6.0,30.0,0.0,0.0
1361,72.0,26.0,15.0,0.0,0.0
1362,76.0,6.0,15.0,0.0,0.0
1363,57.0,22.0,15.0,0.0,0.0
1364,84.0,7.0,20.0,0.0,0.0
1365,64.0,4.0,20.0,0.0,0.0
1366,88.0,30.0,20.0,0.0,0.0
1367,72.0,1.0,15.0,0.0,0.0
1368,77.0,3.0,15.0,0.0,0.0
1369,57.0,23.0,15.0,0.0,0.0
1370,84.0,3.0,90.0,0.0,0.0
1371,64.0,10.0,15.0,0.0,0.0
1372,91.0,14.0,60.0,0.0,0.0
1373,72.0,33.0,15.0,0.0,0.0
1374,89.0,36.0,30.0,0.0,0.0
1375,57.0,7.0,15.0,0.0,0.0
1376,64.0,3.0,30.0,0.0,0.0
1377,76.0,3.0,15.0,0.0,0.0
1378,72.0,18.0,15.0,0.0,0.0
1379,84.0,40.0,20.0,0.0,0.0
1380,88.0,14.0,60.0,0.0,0.0
1381,56.0,1.0,30.0,0.0,0.0
1382,76.0,6.0,15.0,0.0,0.0
1383,62.0,17.0,30.0,0.0,0.0
1384,83.0,7.0,15.0,0.0,0.0
1385,64.0,5.0,15.0,0.0,0.0
1386,86.0,3.0,15.0,0.0,0.0
1387,71.0,7.0,15.0,0.0,0.0
1388,95.0,40.0,15.0,0.0,0.0
1389,56.0,15.0,15.0,0.0,0.0
1390,76.0,12.0,20.0,0.0,0.0
1391,62.0,4.0,15.0,0.0,0.0
1392,64.0,14.0,20.0,0.0,0.0
1393,83.0,8.0,15.0,0.0,0.0
1394,86.0,4.0,30.0,0.0,0.0
1395,71.0,0.0,15.0,0.0,0.0
1396,88.0,18.0,20.0,0.0,0.0
1397,56.0,8.0,15.0,0.0,0.0
1398,75.0,10.0,15.0,0.0,0.0
1399,62.0,20.0,20.0,0.0,0.0
1400,83.0,4.0,30.0,0.0,0.0
1401,64.0,2.0,30.0,0.0,0.0
1402,86.0,22.0,30.0,0.0,0.0
1403,71.0,4.0,15.0,0.0,0.0
1404,87.0,7.0,30.0,0.0,0.0
1405,56.0,3.0,15.0,0.0,0.0
1406,76.0,15.0,15.0,0.0,0.0
1407,62.0,7.0,20.0,0.0,0.0
1408,83.0,6.0,15.0,0.0,0.0
1409,86.0,20.0,20.0,0.0,0.0
1410,64.0,4.0,15.0,0.0,0.0
1411,88.0,8.0,30.0,0.0,0.0
1412,71.0,4.0,15.0,0.0,0.0
1413,77.0,4.0,20.0,0.0,0.0
1414,56.0,14.0,15.0,0.0,0.0
1415,83.0,8.0,20.0,0.0,0.0
1416,62.0,14.0,30.0,0.0,0.0
1417,86.0,2.0,30.0,0.0,0.0
1418,64.0,18.0,30.0,0.0,0.0
1419,91.0,5.0,30.0,0.0,0.0
1420,71.0,8.0,15.0,0.0,0.0
1421,89.0,24.0,30.0,0.0,0.0
1422,56.0,3.0,15.0,0.0,0.0
1423,62.0,8.0,30.0,0.0,0.0
1424,76.0,2.0,15.0,0.0,0.0
1425,64.0,1.0,30.0,0.0,0.0
1426,83.0,12.0,20.0,0.0,0.0
1427,71.0,10.0,15.0,0.0,0.0
1428,86.0,24.0,20.0,0.0,0.0
1429,88.0,22.0,30.0,0.0,0.0
1430,57.0,0.0,30.0,0.0,0.0
1431,76.0,5.0,15.0,0.0,0.0
1432,60.0,2.0,30.0,0.0,0.0
1433,84.0,2.0,20.0,0.0,0.0
1434,88.0,3.0,15.0,0.0,0.0
1435,64.0,31.0,15.0,0.0,0.0
1436,72.0,4.0,20.0,0.0,0.0
1437,96.0,48.0,15.0,0.0,0.0
1438,59.0,27.0,30.0,0.0,0.0
1439,62.0,6.0,60.0,0.0,0.0
1440,86.0,1.0,15.0,0.0,0.0
1441,67.0,5.0,30.0,0.0,0.0
1442,91.0,12.0,30.0,0.0,0.0
1443,95.0,6.0,15.0,0.0,0.0
1444,74.0,1.0,20.0,0.0,0.0
1445,79.0,15.0,15.0,0.0,0.0
1446,60.0,3.0,20.0,0.0,0.0
1447,88.0,21.0,15.0,0.0,0.0
1448,67.0,3.0,15.0,0.0,0.0
1449,91.0,16.0,60.0,0.0,0.0
1450,93.0,17.0,20.0,0.0,0.0
1451,76.0,8.0,15.0,0.0,0.0
1452,79.0,12.0,20.0,0.0,0.0
1453,60.0,10.0,30.0,0.0,0.0
1454,87.0,3.0,30.0,0.0,0.0
1455,69.0,6.0,20.0,0.0,0.0
1456,91.0,1.0,20.0,0.0,0.0
1457,93.0,5.0,15.0,0.0,0.0
1458,75.0,36.0,15.0,0.0,0.0
1459,62.0,10.0,30.0,0.0,0.0
1460,78.0,10.0,20.0,0.0,0.0
1461,86.0,8.0,30.0,0.0,0.0
1462,69.0,8.0,20.0,0.0,0.0
1463,74.0,21.0,20.0,0.0,0.0
1464,93.0,9.0,30.0,0.0,0.0
1465,62.0,4.0,20.0,0.0,0.0
1466,81.0,16.0,20.0,0.0,0.0
1467,69.0,14.0,30.0,0.0,0.0
1468,90.0,22.0,90.0,0.0,0.0
1469,72.0,25.0,60.0,0.0,0.0
1470,78.0,23.0,15.0,0.0,0.0
1471,95.0,18.0,60.0,0.0,0.0
1472,62.0,2.0,30.0,0.0,0.0
1473,68.0,2.0,30.0,0.0,0.0
1474,80.0,26.0,20.0,0.0,0.0
1475,71.0,12.0,30.0,0.0,0.0
1476,90.0,38.0,60.0,0.0,0.0
1477,78.0,24.0,20.0,0.0,0.0
1478,95.0,11.0,30.0,0.0,0.0
1479,62.0,34.0,60.0,0.0,0.0
1480,80.0,9.0,20.0,0.0,0.0
1481,68.0,5.0,60.0,0.0,0.0
1482,89.0,24.0,60.0,0.0,0.0
1483,71.0,5.0,30.0,0.0,0.0
1484,95.0,20.0,30.0,0.0,0.0
1485,77.0,1.0,20.0,0.0,0.0
1486,61.0,29.0,20.0,0.0,0.0
1487,80.0,2.0,15.0,0.0,0.0
1488,68.0,15.0,30.0,0.0,0.0
1489,89.0,28.0,60.0,0.0,0.0
1490,71.0,1.0,20.0,0.0,0.0
1491,95.0,4.0,15.0,0.0,0.0
1492,77.0,14.0,15.0,0.0,0.0
1493,61.0,1.0,15.0,0.0,0.0
1494,79.0,10.0,15.0,0.0,0.0
1495,67.0,18.0,15.0,0.0,0.0
1496,89.0,11.0,30.0,0.0,0.0
1497,70.0,14.0,15.0,0.0,0.0
1498,94.0,18.0,30.0,0.0,0.0
1499,77.0,2.0,15.0,0.0,0.0
1500,61.0,9.0,15.0,0.0,0.0
1501,79.0,8.0,15.0,0.0,0.0
1502,67.0,29.0,15.0,0.0,0.0
1503,89.0,11.0,30.0,0.0,0.0
1504,70.0,2.0,30.0,0.0,0.0
1505,77.0,4.0,15.0,0.0,0.0
1506,94.0,23.0,30.0,0.0,0.0
1507,60.0,22.0,20.0,0.0,0.0
1508,79.0,7.0,15.0,0.0,0.0
1509,67.0,12.0,30.0,0.0,0.0
1510,88.0,0.0,30.0,0.0,0.0
1511,70.0,23.0,30.0,0.0,0.0
1512,76.0,8.0,15.0,0.0,0.0
1513,94.0,2.0,20.0,0.0,0.0
1514,79.0,1.0,15.0,0.0,0.0
1515,60.0,21.0,15.0,0.0,0.0
1516,67.0,14.0,20.0,0.0,0.0
1517,88.0,3.0,30.0,0.0,0.0
1518,70.0,27.0,30.0,0.0,0.0
1519,94.0,4.0,20.0,0.0,0.0
1520,76.0,5.0,15.0,0.0,0.0
1521,60.0,1.0,15.0,0.0,0.0
1522,78.0,20.0,15.0,0.0,0.0
1523,66.0,19.0,20.0,0.0,0.0
1524,69.0,5.0,30.0,0.0,0.0
1525,88.0,4.0,30.0,0.0,0.0
1526,76.0,5.0,15.0,0.0,0.0
1527,93.0,21.0,20.0,0.0,0.0
1528,60.0,6.0,15.0,0.0,0.0
1529,78.0,5.0,15.0,0.0,0.0
1530,66.0,23.0,15.0,0.0,0.0
1531,69.0,1.0,30.0,0.0,0.0
1532,88.0,32.0,30.0,0.0,0.0
1533,76.0,9.0,15.0,0.0,0.0
1534,93.0,1.0,15.0,0.0,0.0
1535,59.0,26.0,20.0,0.0,0.0
1536,78.0,3.0,15.0,0.0,0.0
1537,66.0,2.0,30.0,0.0,0.0
1538,87.0,6.0,20.0,0.0,0.0
1539,69.0,26.0,30.0,0.0,0.0
1540,75.0,4.0,15.0,0.0,0.0
1541,93.0,6.0,15.0,0.0,0.0
1542,59.0,10.0,15.0,0.0,0.0
1543,78.0,22.0,15.0,0.0,0.0
1544,66.0,5.0,30.0,0.0,0.0
1545,87.0,3.0,20.0,0.0,0.0
1546,69.0,2.0,20.0,0.0,0.0
1547,93.0,6.0,15.0,0.0,0.0
1548,75.0,34.0,15.0,0.0,0.0
1549,59.0,4.0,15.0,0.0,0.0
1550,77.0,23.0,15.0,0.0,0.0
1551,65.0,9.0,30.0,0.0,0.0
1552,87.0,4.0,20.0,0.0,0.0
1553,68.0,26.0,30.0,0.0,0.0
1554,75.0,4.0,15.0,0.0,0.0
1555,92.0,2.0,15.0,0.0,0.0
1556,77.0,2.0,15.0,0.0,0.0
1557,59.0,28.0,15.0,0.0,0.0
1558,65.0,8.0,20.0,0.0,0.0
1559,87.0,7.0,30.0,0.0,0.0
1560,68.0,25.0,30.0,0.0,0.0
1561,92.0,3.0,20.0,0.0,0.0
1562,75.0,3.0,15.0,0.0,0.0
1563,77.0,12.0,15.0,0.0,0.0
1564,58.0,21.0,30.0,0.0,0.0
1565,86.0,3.0,30.0,0.0,0.0
1566,65.0,6.0,30.0,0.0,0.0
1567,92.0,3.0,20.0,0.0,0.0
1568,68.0,20.0,20.0,0.0,0.0
1569,74.0,1.0,15.0,0.0,0.0
1570,77.0,8.0,15.0,0.0,0.0
1571,58.0,30.0,15.0,0.0,0.0
1572,86.0,4.0,30.0,0.0,0.0
1573,65.0,24.0,30.0,0.0,0.0
1574,92.0,6.0,15.0,0.0,0.0
1575,68.0,1.0,15.0,0.0,0.0
1576,74.0,1.0,15.0,0.0,0.0
1577,76.0,6.0,15.0,0.0,0.0
1578,58.0,26.0,15.0,0.0,0.0
1579,86.0,3.0,30.0,0.0,0.0
1580,64.0,8.0,20.0,0.0,0.0
1581,67.0,22.0,15.0,0.0,0.0
1582,91.0,1.0,15.0,0.0,0.0
1583,74.0,2.0,15.0,0.0,0.0
1584,76.0,10.0,15.0,0.0,0.0
1585,58.0,29.0,15.0,0.0,0.0
1586,64.0,7.0,30.0,0.0,0.0
1587,86.0,2.0,30.0,0.0,0.0
1588,67.0,1.0,15.0,0.0,0.0
1589,74.0,4.0,15.0,0.0,0.0
1590,91.0,38.0,15.0,0.0,0.0
1591,76.0,4.0,15.0,0.0,0.0
1592,57.0,21.0,20.0,0.0,0.0
1593,78.0,6.0,15.0,0.0,0.0
1594,85.0,3.0,30.0,0.0,0.0
1595,64.0,10.0,30.0,0.0,0.0
1596,67.0,9.0,30.0,0.0,0.0
1597,91.0,10.0,20.0,0.0,0.0
1598,73.0,2.0,15.0,0.0,0.0
1599,76.0,13.0,15.0,0.0,0.0
1600,57.0,22.0,15.0,0.0,0.0
1601,85.0,5.0,20.0,0.0,0.0
1602,64.0,3.0,20.0,0.0,0.0
1603,67.0,2.0,20.0,0.0,0.0
1604,91.0,2.0,15.0,0.0,0.0
1605,73.0,38.0,15.0,0.0,0.0
1606,73.0,14.0,15.0,0.0,0.0
1607,57.0,2.0,20.0,0.0,0.0
1608,79.0,12.0,15.0,0.0,0.0
1609,64.0,14.0,15.0,0.0,0.0
1610,69.0,1.0,15.0,0.0,0.0
1611,88.0,63.0,15.0,0.0,0.0
1612,50.0,2.0,30.0,0.0,0.0
1613,72.0,6.0,30.0,0.0,0.0
1614,57.0,14.0,30.0,0.0,0.0
1615,78.0,24.0,15.0,0.0,0.0
1616,60.0,44.0,30.0,0.0,0.0
1617,88.0,6.0,15.0,0.0,0.0
1618,66.0,2.0,15.0,0.0,0.0
1619,50.0,10.0,20.0,0.0,0.0
1620,72.0,8.0,20.0,0.0,0.0
1621,57.0,4.0,15.0,0.0,0.0
1622,78.0,20.0,15.0,0.0,0.0
1623,60.0,14.0,20.0,0.0,0.0
1624,86.0,24.0,30.0,0.0,0.0
1625,66.0,2.0,15.0,0.0,0.0
1626,72.0,12.0,20.0,0.0,0.0
1627,50.0,10.0,15.0,0.0,0.0
1628,78.0,6.0,15.0,0.0,0.0
1629,57.0,8.0,15.0,0.0,0.0
1630,84.0,0.0,90.0,0.0,0.0
1631,60.0,6.0,15.0,0.0,0.0
1632,66.0,38.0,15.0,0.0,0.0
1633,72.0,18.0,30.0,0.0,0.0
1634,50.0,4.0,15.0,0.0,0.0
1635,78.0,8.0,20.0,0.0,0.0
1636,57.0,8.0,15.0,0.0,0.0
1637,60.0,20.0,15.0,0.0,0.0
1638,81.0,60.0,60.0,0.0,0.0
1639,66.0,36.0,15.0,0.0,0.0
1640,43.0,32.0,60.0,0.0,0.0
1641,71.0,20.0,15.0,0.0,0.0
1642,79.0,24.0,60.0,0.0,0.0
1643,55.0,52.0,15.0,0.0,0.0
1644,62.0,0.0,360.0,0.0,0.0
1645,65.0,38.0,30.0,0.0,0.0
1646,71.0,10.0,15.0,0.0,0.0
1647,77.0,4.0,15.0,0.0,0.0
1648,86.0,22.0,90.0,0.0,0.0
1649,55.0,4.0,15.0,0.0,0.0
1650,91.0,32.0,15.0,0.0,0.0
1651,77.0,12.0,20.0,0.0,0.0
1652,65.0,0.0,15.0,0.0,0.0
1653,71.0,6.0,15.0,0.0,0.0
1654,85.0,20.0,60.0,0.0,0.0
1655,91.0,2.0,15.0,0.0,0.0
1656,55.0,10.0,15.0,0.0,0.0
1657,77.0,10.0,15.0,0.0,0.0
1658,71.0,0.0,15.0,0.0,0.0
1659,65.0,34.0,15.0,0.0,0.0
1660,86.0,10.0,90.0,0.0,0.0
1661,91.0,4.0,20.0,0.0,0.0
1662,55.0,19.0,15.0,0.0,0.0
1663,77.0,11.0,15.0,0.0,0.0
1664,71.0,4.0,15.0,0.0,0.0
1665,65.0,18.0,15.0,0.0,0.0
1666,88.0,16.0,60.0,0.0,0.0
1667,91.0,8.0,15.0,0.0,0.0
1668,55.0,16.0,15.0,0.0,0.0
1669,77.0,6.0,15.0,0.0,0.0
1670,65.0,2.0,15.0,0.0,0.0
1671,71.0,28.0,15.0,0.0,0.0
1672,83.0,14.0,60.0,0.0,0.0
1673,91.0,28.0,15.0,0.0,0.0
1674,55.0,2.0,30.0,0.0,0.0
1675,76.0,40.0,15.0,0.0,0.0
1676,64.0,10.0,60.0,0.0,0.0
1677,84.0,24.0,60.0,0.0,0.0
1678,72.0,6.0,15.0,0.0,0.0
1679,91.0,2.0,20.0,0.0,0.0
1680,78.0,14.0,15.0,0.0,0.0
1681,55.0,12.0,20.0,0.0,0.0
1682,84.0,22.0,15.0,0.0,0.0
1683,63.0,24.0,30.0,0.0,0.0
1684,72.0,8.0,15.0,0.0,0.0
1685,93.0,6.0,15.0,0.0,0.0
1686,55.0,4.0,15.0,0.0,0.0
1687,78.0,16.0,15.0,0.0,0.0
1688,84.0,20.0,15.0,0.0,0.0
1689,63.0,24.0,30.0,0.0,0.0
1690,92.0,2.0,20.0,0.0,0.0
1691,72.0,2.0,15.0,0.0,0.0
1692,55.0,2.0,15.0,0.0,0.0
1693,78.0,14.0,15.0,0.0,0.0
1694,84.0,21.0,15.0,0.0,0.0
1695,63.0,18.0,30.0,0.0,0.0
1696,72.0,7.0,15.0,0.0,0.0
1697,93.0,8.0,20.0,0.0,0.0
1698,78.0,12.0,15.0,0.0,0.0
1699,55.0,2.0,20.0,0.0,0.0
1700,84.0,24.0,15.0,0.0,0.0
1701,62.0,18.0,60.0,0.0,0.0
1702,95.0,10.0,15.0,0.0,0.0
1703,72.0,14.0,15.0,0.0,0.0
1704,78.0,10.0,15.0,0.0,0.0
1705,55.0,4.0,15.0,0.0,0.0
1706,84.0,36.0,15.0,0.0,0.0
1707,62.0,6.0,30.0,0.0,0.0
1708,93.0,6.0,30.0,0.0,0.0
1709,72.0,21.0,15.0,0.0,0.0
1710,83.0,0.0,15.0,0.0,0.0
1711,62.0,63.0,15.0,0.0,0.0
1712,91.0,16.0,60.0,0.0,0.0
1713,43.0,18.0,30.0,0.0,0.0
1714,98.0,44.0,30.0,0.0,0.0
1715,55.0,44.0,20.0,0.0,0.0
1716,62.0,34.0,300.0,0.0,0.0
1717,65.0,10.0,15.0,0.0,0.0
1718,71.0,8.0,15.0,0.0,0.0
1719,77.0,42.0,15.0,0.0,0.0
1720,86.0,7.0,60.0,0.0,0.0
1721,91.0,2.0,15.0,0.0,0.0
1722,55.0,29.0,15.0,0.0,0.0
1723,77.0,4.0,20.0,0.0,0.0
1724,65.0,26.0,20.0,0.0,0.0
1725,71.0,6.0,15.0,0.0,0.0
1726,85.0,14.0,60.0,0.0,0.0
1727,91.0,4.0,15.0,0.0,0.0
1728,55.0,8.0,15.0,0.0,0.0
1729,77.0,14.0,15.0,0.0,0.0
1730,71.0,6.0,15.0,0.0,0.0
1731,86.0,8.0,30.0,0.0,0.0
1732,65.0,14.0,15.0,0.0,0.0
1733,91.0,8.0,15.0,0.0,0.0
1734,55.0,16.0,15.0,0.0,0.0
1735,77.0,26.0,15.0,0.0,0.0
1736,88.0,8.0,20.0,0.0,0.0
1737,65.0,6.0,30.0,0.0,0.0
1738,71.0,2.0,15.0,0.0,0.0
1739,91.0,0.0,15.0,0.0,0.0
1740,55.0,0.0,15.0,0.0,0.0
1741,77.0,24.0,15.0,0.0,0.0
1742,62.0,2.0,60.0,0.0,0.0
1743,89.0,36.0,60.0,0.0,0.0
1744,91.0,14.0,15.0,0.0,0.0
1745,65.0,7.0,15.0,0.0,0.0
1746,71.0,1.0,15.0,0.0,0.0
1747,77.0,12.0,15.0,0.0,0.0
1748,83.0,16.0,30.0,0.0,0.0
1749,55.0,40.0,60.0,0.0,0.0
1750,76.0,16.0,15.0,0.0,0.0
1751,64.0,36.0,60.0,0.0,0.0
1752,84.0,12.0,90.0,0.0,0.0
1753,72.0,8.0,15.0,0.0,0.0
1754,91.0,4.0,15.0,0.0,0.0
1755,55.0,21.0,30.0,0.0,0.0
1756,78.0,5.0,20.0,0.0,0.0
1757,84.0,4.0,20.0,0.0,0.0
1758,63.0,16.0,20.0,0.0,0.0
1759,72.0,0.0,15.0,0.0,0.0
1760,93.0,38.0,15.0,0.0,0.0
1761,78.0,4.0,15.0,0.0,0.0
1762,55.0,22.0,15.0,0.0,0.0
1763,84.0,14.0,15.0,0.0,0.0
1764,63.0,22.0,30.0,0.0,0.0
1765,92.0,7.0,20.0,0.0,0.0
1766,72.0,7.0,15.0,0.0,0.0
1767,78.0,2.0,15.0,0.0,0.0
1768,55.0,13.0,15.0,0.0,0.0
1769,84.0,13.0,15.0,0.0,0.0
1770,63.0,19.0,60.0,0.0,0.0
1771,93.0,12.0,15.0,0.0,0.0
1772,72.0,11.0,15.0,0.0,0.0
1773,78.0,5.0,20.0,0.0,0.0
1774,55.0,3.0,15.0,0.0,0.0
1775,84.0,29.0,15.0,0.0,0.0
1776,62.0,31.0,30.0,0.0,0.0
1777,72.0,10.0,15.0,0.0,0.0
1778,95.0,2.0,15.0,0.0,0.0
1779,55.0,9.0,15.0,0.0,0.0
1780,78.0,3.0,15.0,0.0,0.0
1781,84.0,27.0,15.0,0.0,0.0
1782,62.0,25.0,30.0,0.0,0.0
1783,93.0,4.0,30.0,0.0,0.0
1784,72.0,8.0,15.0,0.0,0.0
1785,83.0,4.0,15.0,0.0,0.0
1786,55.0,28.0,15.0,0.0,0.0
1787,91.0,16.0,20.0,0.0,0.0
1788,62.0,15.0,30.0,0.0,0.0
1789,71.0,7.0,30.0,0.0,0.0
1790,98.0,22.0,30.0,0.0,0.0
1791,60.0,20.0,30.0,0.0,0.0
1792,84.0,4.0,15.0,0.0,0.0
1793,67.0,8.0,30.0,0.0,0.0
1794,91.0,2.0,20.0,0.0,0.0
1795,75.0,4.0,15.0,0.0,0.0
1796,99.0,28.0,20.0,0.0,0.0
1797,59.0,6.0,15.0,0.0,0.0
1798,83.0,26.0,15.0,0.0,0.0
1799,66.0,20.0,60.0,0.0,0.0
1800,90.0,4.0,30.0,0.0,0.0
1801,99.0,4.0,15.0,0.0,0.0
1802,69.0,8.0,20.0,0.0,0.0
1803,75.0,2.0,15.0,0.0,0.0
1804,83.0,10.0,15.0,0.0,0.0
1805,64.0,4.0,30.0,0.0,0.0
1806,92.0,16.0,15.0,0.0,0.0
1807,68.0,4.0,30.0,0.0,0.0
1808,74.0,2.0,15.0,0.0,0.0
1809,100.0,28.0,15.0,0.0,0.0
1810,57.0,6.0,15.0,0.0,0.0
1811,85.0,12.0,15.0,0.0,0.0
1812,91.0,8.0,15.0,0.0,0.0
1813,64.0,6.0,15.0,0.0,0.0
1814,67.0,10.0,15.0,0.0,0.0
1815,73.0,40.0,20.0,0.0,0.0
1816,100.0,4.0,15.0,0.0,0.0
1817,62.0,10.0,20.0,0.0,0.0
1818,86.0,10.0,30.0,0.0,0.0
1819,69.0,2.0,15.0,0.0,0.0
1820,90.0,20.0,60.0,0.0,0.0
1821,72.0,10.0,15.0,0.0,0.0
1822,98.0,12.0,20.0,0.0,0.0
1823,78.0,6.0,15.0,0.0,0.0
1824,67.0,30.0,60.0,0.0,0.0
1825,83.0,22.0,15.0,0.0,0.0
1826,71.0,5.0,30.0,0.0,0.0
1827,91.0,2.0,30.0,0.0,0.0
1828,79.0,3.0,15.0,0.0,0.0
1829,95.0,6.0,60.0,0.0,0.0
1830,84.0,9.0,15.0,0.0,0.0
1831,60.0,15.0,20.0,0.0,0.0
1832,91.0,4.0,30.0,0.0,0.0
1833,67.0,5.0,30.0,0.0,0.0
1834,99.0,0.0,15.0,0.0,0.0
1835,75.0,34.0,15.0,0.0,0.0
1836,83.0,16.0,20.0,0.0,0.0
1837,59.0,7.0,15.0,0.0,0.0
1838,90.0,8.0,20.0,0.0,0.0
1839,66.0,15.0,60.0,0.0,0.0
1840,69.0,9.0,30.0,0.0,0.0
1841,99.0,3.0,15.0,0.0,0.0
1842,75.0,11.0,15.0,0.0,0.0
1843,83.0,11.0,15.0,0.0,0.0
1844,64.0,3.0,60.0,0.0,0.0
1845,68.0,3.0,30.0,0.0,0.0
1846,92.0,22.0,15.0,0.0,0.0
1847,74.0,30.0,20.0,0.0,0.0
1848,100.0,1.0,15.0,0.0,0.0
1849,85.0,9.0,15.0,0.0,0.0
1850,57.0,3.0,15.0,0.0,0.0
1851,64.0,22.0,15.0,0.0,0.0
1852,91.0,6.0,15.0,0.0,0.0
1853,67.0,10.0,20.0,0.0,0.0
1854,73.0,30.0,30.0,0.0,0.0
1855,100.0,6.0,20.0,0.0,0.0
1856,62.0,3.0,30.0,0.0,0.0
1857,86.0,5.0,20.0,0.0,0.0
1858,69.0,19.0,15.0,0.0,0.0
1859,90.0,17.0,30.0,0.0,0.0
1860,72.0,0.0,15.0,0.0,0.0
1861,98.0,1.0,30.0,0.0,0.0
1862,78.0,80.0,20.0,0.0,0.0
1863,67.0,55.0,90.0,0.0,0.0
1864,71.0,8.0,60.0,0.0,0.0
1865,95.0,2.0,270.0,0.0,0.0
1866,83.0,10.0,300.0,0.0,0.0
1867,91.0,38.0,300.0,0.0,0.0
1868,79.0,5.0,20.0,0.0,0.0
1869,62.0,15.0,30.0,0.0,0.0
1870,71.0,8.0,15.0,0.0,0.0
1871,79.0,40.0,15.0,0.0,0.0
1872,61.0,32.0,15.0,0.0,0.0
1873,70.0,18.0,15.0,0.0,0.0
1874,79.0,44.0,15.0,0.0,0.0
1875,62.0,31.0,30.0,0.0,0.0
1876,71.0,2.0,30.0,0.0,0.0
1877,79.0,3.0,15.0,0.0,0.0
1878,63.0,22.0,30.0,0.0,0.0
1879,95.0,28.0,180.0,0.0,0.0
1880,84.0,2.0,180.0,0.0,0.0
1881,72.0,24.0,20.0,0.0,0.0
1882,79.0,51.0,15.0,0.0,0.0
1883,62.0,25.0,15.0,0.0,0.0
1884,72.0,24.0,15.0,0.0,0.0
1885,78.0,13.0,15.0,0.0,0.0
1886,93.0,36.0,30.0,0.0,0.0
1887,67.0,71.0,60.0,0.0,0.0
1888,91.0,6.0,240.0,0.0,0.0
1889,71.0,9.0,30.0,0.0,0.0
1890,83.0,3.0,150.0,0.0,0.0
1891,79.0,10.0,15.0,0.0,0.0
1892,50.0,39.0,15.0,0.0,0.0
1893,59.0,2.0,30.0,0.0,0.0
1894,67.0,33.0,15.0,0.0,0.0
1895,49.0,42.0,15.0,0.0,0.0
1896,58.0,2.0,30.0,0.0,0.0
1897,83.0,46.0,15.0,0.0,0.0
1898,67.0,4.0,15.0,0.0,0.0
1899,50.0,34.0,30.0,0.0,0.0
1900,59.0,6.0,30.0,0.0,0.0
1901,67.0,65.0,15.0,0.0,0.0
1902,83.0,28.0,210.0,0.0,0.0
1903,72.0,8.0,300.0,0.0,0.0
1904,51.0,26.0,30.0,0.0,0.0
1905,60.0,23.0,15.0,0.0,0.0
1906,67.0,90.0,15.0,0.0,0.0
1907,50.0,30.0,60.0,0.0,0.0
1908,60.0,12.0,30.0,0.0,0.0
1909,81.0,18.0,60.0,0.0,0.0
1910,66.0,26.0,15.0,0.0,0.0
1911,79.0,84.0,30.0,0.0,0.0
1912,79.0,10.0,150.0,0.0,0.0
1913,71.0,1.0,30.0,0.0,0.0
1914,43.0,65.0,30.0,0.0,0.0
1915,67.0,3.0,15.0,0.0,0.0
1916,47.0,17.0,15.0,0.0,0.0
1917,74.0,4.0,15.0,0.0,0.0
1918,55.0,13.0,15.0,0.0,0.0
1919,83.0,6.0,30.0,0.0,0.0
1920,62.0,32.0,15.0,0.0,0.0
1921,50.0,14.0,20.0,0.0,0.0
1922,71.0,5.0,15.0,0.0,0.0
1923,59.0,28.0,15.0,0.0,0.0
1924,79.0,5.0,15.0,0.0,0.0
1925,86.0,1.0,30.0,0.0,0.0
1926,67.0,21.0,20.0,0.0,0.0
1927,74.0,3.0,15.0,0.0,0.0
1928,55.0,15.0,15.0,0.0,0.0
1929,83.0,5.0,15.0,0.0,0.0
1930,62.0,16.0,15.0,0.0,0.0
1931,91.0,11.0,30.0,0.0,0.0
1932,71.0,23.0,15.0,0.0,0.0
1933,79.0,4.0,15.0,0.0,0.0
1934,86.0,4.0,15.0,0.0,0.0
1935,67.0,29.0,15.0,0.0,0.0
1936,95.0,12.0,20.0,0.0,0.0
1937,74.0,5.0,15.0,0.0,0.0
1938,83.0,12.0,15.0,0.0,0.0
1939,62.0,4.0,15.0,0.0,0.0
1940,91.0,36.0,15.0,0.0,0.0
1941,98.0,18.0,30.0,0.0,0.0
1942,79.0,14.0,15.0,0.0,0.0
1943,86.0,3.0,15.0,0.0,0.0
1944,67.0,1.0,20.0,0.0,0.0
1945,95.0,14.0,15.0,0.0,0.0
1946,74.0,31.0,15.0,0.0,0.0
1947,103.0,215.0,20.0,0.0,0.0
1948,83.0,7.0,15.0,0.0,0.0
1949,72.0,1.0,15.0,0.0,0.0
1950,86.0,2.0,30.0,0.0,0.0
1951,69.0,12.0,15.0,0.0,0.0
1952,78.0,1.0,15.0,0.0,0.0
1953,62.0,67.0,20.0,0.0,0.0
1954,98.0,71.0,90.0,0.0,0.0
1955,50.0,42.0,30.0,0.0,0.0
1956,55.0,8.0,20.0,0.0,0.0
1957,62.0,7.0,20.0,0.0,0.0
1958,91.0,79.0,30.0,0.0,0.0
1959,83.0,12.0,15.0,0.0,0.0
1960,71.0,4.0,15.0,0.0,0.0
1961,103.0,1.0,20.0,0.0,0.0
1962,43.0,436.0,15.0,0.0,0.0
