,note,step,duration,channel,velocity
0,58.0,0.0,60.0,0.0,0.0
1,46.0,0.0,60.0,0.0,0.0
2,34.0,64.0,60.0,0.0,0.0
3,70.0,0.0,60.0,0.0,0.0
4,69.0,0.0,60.0,0.0,0.0
5,45.0,0.0,60.0,0.0,0.0
6,33.0,64.0,60.0,0.0,0.0
7,57.0,0.0,60.0,0.0,0.0
8,70.0,0.0,60.0,0.0,0.0
9,58.0,0.0,60.0,0.0,0.0
10,46.0,64.0,60.0,0.0,0.0
11,34.0,0.0,60.0,0.0,0.0
12,35.0,0.0,60.0,0.0,0.0
13,59.0,0.0,60.0,0.0,0.0
14,71.0,64.0,60.0,0.0,0.0
15,47.0,0.0,60.0,0.0,0.0
16,72.0,64.0,60.0,0.0,0.0
17,36.0,0.0,60.0,0.0,0.0
18,48.0,0.0,60.0,0.0,0.0
19,60.0,0.0,60.0,0.0,0.0
20,37.0,64.0,60.0,0.0,0.0
21,61.0,0.0,60.0,0.0,0.0
22,73.0,0.0,60.0,0.0,0.0
23,49.0,0.0,60.0,0.0,0.0
24,60.0,0.0,60.0,0.0,0.0
25,72.0,0.0,60.0,0.0,0.0
26,36.0,0.0,60.0,0.0,0.0
27,48.0,64.0,60.0,0.0,0.0
28,59.0,0.0,60.0,0.0,0.0
29,71.0,0.0,60.0,0.0,0.0
30,35.0,64.0,60.0,0.0,0.0
31,47.0,0.0,60.0,0.0,0.0
32,36.0,0.0,60.0,0.0,0.0
33,48.0,0.0,60.0,0.0,0.0
34,60.0,64.0,60.0,0.0,0.0
35,72.0,0.0,60.0,0.0,0.0
36,37.0,0.0,60.0,0.0,0.0
37,49.0,0.0,60.0,0.0,0.0
38,61.0,64.0,60.0,0.0,0.0
39,73.0,0.0,60.0,0.0,0.0
40,62.0,64.0,60.0,0.0,0.0
41,74.0,0.0,60.0,0.0,0.0
42,38.0,0.0,60.0,0.0,0.0
43,50.0,0.0,60.0,0.0,0.0
44,39.0,0.0,60.0,0.0,0.0
45,51.0,0.0,60.0,0.0,0.0
46,75.0,64.0,60.0,0.0,0.0
47,63.0,0.0,60.0,0.0,0.0
48,74.0,0.0,60.0,0.0,0.0
49,50.0,0.0,60.0,0.0,0.0
50,38.0,64.0,60.0,0.0,0.0
51,62.0,0.0,60.0,0.0,0.0
52,37.0,64.0,60.0,0.0,0.0
53,73.0,0.0,60.0,0.0,0.0
54,49.0,0.0,60.0,0.0,0.0
55,61.0,0.0,60.0,0.0,0.0
56,50.0,64.0,60.0,0.0,0.0
57,74.0,0.0,60.0,0.0,0.0
58,38.0,0.0,60.0,0.0,0.0
59,62.0,0.0,60.0,0.0,0.0
60,63.0,0.0,60.0,0.0,0.0
61,75.0,0.0,60.0,0.0,0.0
62,39.0,64.0,60.0,0.0,0.0
63,51.0,0.0,60.0,0.0,0.0
64,64.0,0.0,60.0,0.0,0.0
65,76.0,0.0,60.0,0.0,0.0
66,40.0,64.0,60.0,0.0,0.0
67,52.0,0.0,60.0,0.0,0.0
68,41.0,0.0,60.0,0.0,0.0
69,53.0,0.0,60.0,0.0,0.0
70,65.0,64.0,60.0,0.0,0.0
71,77.0,0.0,60.0,0.0,0.0
72,40.0,0.0,60.0,0.0,0.0
73,52.0,0.0,60.0,0.0,0.0
74,64.0,64.0,60.0,0.0,0.0
75,76.0,0.0,60.0,0.0,0.0
76,51.0,0.0,60.0,0.0,0.0
77,39.0,0.0,60.0,0.0,0.0
78,63.0,0.0,60.0,0.0,0.0
79,75.0,64.0,60.0,0.0,0.0
80,52.0,0.0,60.0,0.0,0.0
81,64.0,64.0,60.0,0.0,0.0
82,76.0,0.0,60.0,0.0,0.0
83,40.0,0.0,60.0,0.0,0.0
84,41.0,0.0,60.0,0.0,0.0
85,53.0,0.0,60.0,0.0,0.0
86,65.0,64.0,60.0,0.0,0.0
87,77.0,0.0,60.0,0.0,0.0
88,66.0,64.0,60.0,0.0,0.0
89,42.0,0.0,60.0,0.0,0.0
90,78.0,0.0,60.0,0.0,0.0
91,54.0,0.0,60.0,0.0,0.0
92,79.0,64.0,60.0,0.0,0.0
93,55.0,0.0,60.0,0.0,0.0
94,43.0,0.0,60.0,0.0,0.0
95,67.0,0.0,60.0,0.0,0.0
96,78.0,0.0,60.0,0.0,0.0
97,42.0,64.0,60.0,0.0,0.0
98,66.0,0.0,60.0,0.0,0.0
99,54.0,0.0,60.0,0.0,0.0
100,79.0,0.0,60.0,0.0,0.0
101,67.0,0.0,60.0,0.0,0.0
102,43.0,0.0,60.0,0.0,0.0
103,55.0,64.0,60.0,0.0,0.0
104,80.0,64.0,60.0,0.0,0.0
105,68.0,0.0,60.0,0.0,0.0
106,56.0,0.0,60.0,0.0,0.0
107,44.0,0.0,60.0,0.0,0.0
108,43.0,0.0,60.0,0.0,0.0
109,55.0,0.0,60.0,0.0,0.0
110,67.0,0.0,60.0,0.0,0.0
111,79.0,64.0,60.0,0.0,0.0
112,44.0,0.0,60.0,0.0,0.0
113,56.0,64.0,60.0,0.0,0.0
114,68.0,0.0,60.0,0.0,0.0
115,80.0,0.0,60.0,0.0,0.0
116,69.0,0.0,60.0,0.0,0.0
117,81.0,0.0,60.0,0.0,0.0
118,45.0,64.0,60.0,0.0,0.0
119,57.0,0.0,60.0,0.0,0.0
120,68.0,64.0,60.0,0.0,0.0
121,80.0,0.0,60.0,0.0,0.0
122,44.0,0.0,60.0,0.0,0.0
123,56.0,0.0,60.0,0.0,0.0
124,81.0,0.0,60.0,0.0,0.0
125,69.0,64.0,60.0,0.0,0.0
126,57.0,0.0,60.0,0.0,0.0
127,45.0,0.0,60.0,0.0,0.0
128,70.0,0.0,60.0,0.0,0.0
129,82.0,0.0,60.0,0.0,0.0
130,46.0,0.0,60.0,0.0,0.0
131,58.0,64.0,60.0,0.0,0.0
132,69.0,64.0,60.0,0.0,0.0
133,81.0,0.0,60.0,0.0,0.0
134,45.0,0.0,60.0,0.0,0.0
135,57.0,0.0,60.0,0.0,0.0
136,58.0,0.0,60.0,0.0,0.0
137,46.0,64.0,60.0,0.0,0.0
138,70.0,0.0,60.0,0.0,0.0
139,82.0,0.0,60.0,0.0,0.0
140,59.0,0.0,60.0,0.0,0.0
141,71.0,0.0,60.0,0.0,0.0
142,83.0,64.0,60.0,0.0,0.0
143,47.0,0.0,60.0,0.0,0.0
144,82.0,0.0,60.0,0.0,0.0
145,46.0,0.0,60.0,0.0,0.0
146,58.0,64.0,60.0,0.0,0.0
147,70.0,0.0,60.0,0.0,0.0
148,83.0,0.0,60.0,0.0,0.0
149,71.0,0.0,60.0,0.0,0.0
150,59.0,0.0,60.0,0.0,0.0
151,47.0,64.0,60.0,0.0,0.0
152,72.0,0.0,60.0,0.0,0.0
153,48.0,0.0,60.0,0.0,0.0
154,60.0,64.0,60.0,0.0,0.0
155,84.0,0.0,60.0,0.0,0.0
156,47.0,64.0,60.0,0.0,0.0
157,71.0,0.0,60.0,0.0,0.0
158,59.0,0.0,60.0,0.0,0.0
159,83.0,0.0,60.0,0.0,0.0
160,60.0,0.0,60.0,0.0,0.0
161,48.0,0.0,60.0,0.0,0.0
162,72.0,64.0,60.0,0.0,0.0
163,84.0,0.0,60.0,0.0,0.0
164,73.0,0.0,60.0,0.0,0.0
165,61.0,0.0,60.0,0.0,0.0
166,85.0,0.0,60.0,0.0,0.0
167,49.0,64.0,60.0,0.0,0.0
168,83.0,0.0,60.0,0.0,0.0
169,71.0,64.0,60.0,0.0,0.0
170,47.0,0.0,60.0,0.0,0.0
171,59.0,0.0,60.0,0.0,0.0
172,84.0,0.0,60.0,0.0,0.0
173,48.0,64.0,60.0,0.0,0.0
174,60.0,0.0,60.0,0.0,0.0
175,72.0,0.0,60.0,0.0,0.0
176,73.0,0.0,60.0,0.0,0.0
177,61.0,0.0,60.0,0.0,0.0
178,49.0,0.0,60.0,0.0,0.0
179,85.0,64.0,60.0,0.0,0.0
180,48.0,64.0,60.0,0.0,0.0
181,60.0,0.0,60.0,0.0,0.0
182,84.0,0.0,60.0,0.0,0.0
183,72.0,0.0,60.0,0.0,0.0
184,73.0,0.0,60.0,0.0,0.0
185,85.0,0.0,60.0,0.0,0.0
186,61.0,0.0,60.0,0.0,0.0
187,49.0,64.0,60.0,0.0,0.0
188,74.0,0.0,60.0,0.0,0.0
189,86.0,0.0,60.0,0.0,0.0
190,50.0,0.0,60.0,0.0,0.0
191,62.0,64.0,60.0,0.0,0.0
192,75.0,0.0,60.0,0.0,0.0
193,78.0,0.0,390.0,0.0,0.0
194,63.0,0.0,60.0,0.0,0.0
195,51.0,64.0,60.0,0.0,0.0
196,87.0,0.0,60.0,0.0,0.0
197,74.0,0.0,60.0,0.0,0.0
198,86.0,0.0,60.0,0.0,0.0
199,62.0,64.0,60.0,0.0,0.0
200,50.0,0.0,60.0,0.0,0.0
201,87.0,0.0,60.0,0.0,0.0
202,75.0,0.0,60.0,0.0,0.0
203,63.0,64.0,60.0,0.0,0.0
204,51.0,0.0,60.0,0.0,0.0
205,86.0,0.0,60.0,0.0,0.0
206,74.0,64.0,60.0,0.0,0.0
207,50.0,0.0,60.0,0.0,0.0
208,62.0,0.0,60.0,0.0,0.0
209,73.0,0.0,60.0,0.0,0.0
210,49.0,0.0,60.0,0.0,0.0
211,61.0,0.0,60.0,0.0,0.0
212,85.0,64.0,60.0,0.0,0.0
213,60.0,0.0,60.0,0.0,0.0
214,72.0,0.0,60.0,0.0,0.0
215,84.0,0.0,60.0,0.0,0.0
216,48.0,0.0,60.0,0.0,0.0
217,78.0,0.0,390.0,0.0,0.0
218,61.0,64.0,60.0,0.0,0.0
219,54.0,64.0,15.0,0.0,0.0
220,49.0,0.0,60.0,0.0,0.0
221,73.0,0.0,60.0,0.0,0.0
222,85.0,0.0,60.0,0.0,0.0
223,72.0,64.0,60.0,0.0,0.0
224,84.0,0.0,60.0,0.0,0.0
225,60.0,0.0,60.0,0.0,0.0
226,48.0,0.0,60.0,0.0,0.0
227,49.0,0.0,60.0,0.0,0.0
228,61.0,64.0,60.0,0.0,0.0
229,85.0,0.0,60.0,0.0,0.0
230,73.0,0.0,60.0,0.0,0.0
231,72.0,0.0,60.0,0.0,0.0
232,84.0,0.0,60.0,0.0,0.0
233,48.0,0.0,60.0,0.0,0.0
234,60.0,64.0,60.0,0.0,0.0
235,59.0,0.0,60.0,0.0,0.0
236,47.0,0.0,60.0,0.0,0.0
237,83.0,64.0,60.0,0.0,0.0
238,71.0,0.0,60.0,0.0,0.0
239,46.0,0.0,60.0,0.0,0.0
240,58.0,0.0,60.0,0.0,0.0
241,70.0,64.0,60.0,0.0,0.0
242,82.0,0.0,60.0,0.0,0.0
243,71.0,0.0,60.0,0.0,0.0
244,59.0,0.0,60.0,0.0,0.0
245,83.0,64.0,60.0,0.0,0.0
246,51.0,64.0,180.0,0.0,0.0
247,47.0,0.0,60.0,0.0,0.0
248,75.0,0.0,180.0,0.0,0.0
249,46.0,0.0,60.0,0.0,0.0
250,70.0,64.0,60.0,0.0,0.0
251,58.0,0.0,60.0,0.0,0.0
252,82.0,0.0,60.0,0.0,0.0
253,47.0,0.0,60.0,0.0,0.0
254,59.0,0.0,60.0,0.0,0.0
255,83.0,0.0,60.0,0.0,0.0
256,71.0,0.0,60.0,0.0,0.0
257,70.0,64.0,60.0,0.0,0.0
258,75.0,0.0,180.0,0.0,0.0
259,82.0,0.0,60.0,0.0,0.0
260,46.0,0.0,60.0,0.0,0.0
261,58.0,0.0,60.0,0.0,0.0
262,51.0,0.0,180.0,0.0,0.0
263,81.0,64.0,60.0,0.0,0.0
264,69.0,0.0,60.0,0.0,0.0
265,57.0,0.0,60.0,0.0,0.0
266,45.0,0.0,60.0,0.0,0.0
267,56.0,0.0,60.0,0.0,0.0
268,44.0,64.0,60.0,0.0,0.0
269,80.0,0.0,60.0,0.0,0.0
270,68.0,0.0,60.0,0.0,0.0
271,67.0,64.0,60.0,0.0,0.0
272,55.0,0.0,60.0,0.0,0.0
273,43.0,0.0,60.0,0.0,0.0
274,70.0,0.0,180.0,0.0,0.0
275,79.0,0.0,60.0,0.0,0.0
276,66.0,64.0,60.0,0.0,0.0
277,78.0,0.0,60.0,0.0,0.0
278,42.0,0.0,60.0,0.0,0.0
279,54.0,0.0,60.0,0.0,0.0
280,77.0,192.0,60.0,0.0,0.0
281,65.0,0.0,60.0,0.0,0.0
282,41.0,0.0,60.0,0.0,0.0
283,53.0,0.0,60.0,0.0,0.0
284,46.0,0.0,15.0,0.0,0.0
285,70.0,0.0,180.0,0.0,0.0
286,63.0,0.0,15.0,0.0,0.0
287,71.0,0.0,390.0,0.0,0.0
288,75.0,0.0,15.0,0.0,0.0
289,51.0,0.0,15.0,0.0,0.0
290,39.0,64.0,15.0,0.0,0.0
291,47.0,0.0,390.0,0.0,0.0
292,62.0,0.0,60.0,0.0,0.0
293,38.0,64.0,60.0,0.0,0.0
294,50.0,0.0,60.0,0.0,0.0
295,74.0,0.0,60.0,0.0,0.0
296,75.0,0.0,60.0,0.0,0.0
297,63.0,0.0,60.0,0.0,0.0
298,51.0,64.0,60.0,0.0,0.0
299,39.0,0.0,60.0,0.0,0.0
300,65.0,64.0,60.0,0.0,0.0
301,41.0,0.0,60.0,0.0,0.0
302,53.0,0.0,60.0,0.0,0.0
303,77.0,0.0,60.0,0.0,0.0
304,78.0,0.0,60.0,0.0,0.0
305,66.0,64.0,60.0,0.0,0.0
306,54.0,0.0,60.0,0.0,0.0
307,42.0,0.0,60.0,0.0,0.0
308,68.0,0.0,60.0,0.0,0.0
309,80.0,0.0,60.0,0.0,0.0
310,56.0,64.0,60.0,0.0,0.0
311,44.0,0.0,60.0,0.0,0.0
312,78.0,64.0,60.0,0.0,0.0
313,70.0,0.0,180.0,0.0,0.0
314,46.0,64.0,180.0,0.0,0.0
315,66.0,0.0,60.0,0.0,0.0
316,54.0,0.0,60.0,0.0,0.0
317,42.0,0.0,60.0,0.0,0.0
318,53.0,0.0,60.0,0.0,0.0
319,77.0,0.0,60.0,0.0,0.0
320,65.0,0.0,60.0,0.0,0.0
321,41.0,64.0,60.0,0.0,0.0
322,63.0,0.0,60.0,0.0,0.0
323,51.0,0.0,60.0,0.0,0.0
324,39.0,0.0,60.0,0.0,0.0
325,75.0,0.0,60.0,0.0,0.0
326,50.0,0.0,60.0,0.0,0.0
327,74.0,0.0,60.0,0.0,0.0
328,62.0,0.0,60.0,0.0,0.0
329,38.0,64.0,60.0,0.0,0.0
330,75.0,0.0,60.0,0.0,0.0
331,51.0,0.0,60.0,0.0,0.0
332,39.0,64.0,60.0,0.0,0.0
333,63.0,0.0,60.0,0.0,0.0
334,77.0,64.0,60.0,0.0,0.0
335,65.0,0.0,60.0,0.0,0.0
336,53.0,0.0,60.0,0.0,0.0
337,41.0,0.0,60.0,0.0,0.0
338,39.0,0.0,60.0,0.0,0.0
339,51.0,0.0,60.0,0.0,0.0
340,47.0,0.0,390.0,0.0,0.0
341,71.0,0.0,390.0,0.0,0.0
342,75.0,0.0,60.0,0.0,0.0
343,63.0,64.0,60.0,0.0,0.0
344,38.0,0.0,60.0,0.0,0.0
345,50.0,0.0,60.0,0.0,0.0
346,74.0,0.0,60.0,0.0,0.0
347,62.0,64.0,60.0,0.0,0.0
348,63.0,0.0,60.0,0.0,0.0
349,75.0,0.0,60.0,0.0,0.0
350,51.0,64.0,60.0,0.0,0.0
351,39.0,0.0,60.0,0.0,0.0
352,53.0,0.0,60.0,0.0,0.0
353,41.0,64.0,60.0,0.0,0.0
354,77.0,0.0,60.0,0.0,0.0
355,65.0,0.0,60.0,0.0,0.0
356,66.0,0.0,60.0,0.0,0.0
357,54.0,0.0,60.0,0.0,0.0
358,42.0,64.0,60.0,0.0,0.0
359,78.0,0.0,60.0,0.0,0.0
360,56.0,0.0,60.0,0.0,0.0
361,44.0,0.0,60.0,0.0,0.0
362,80.0,64.0,60.0,0.0,0.0
363,68.0,0.0,60.0,0.0,0.0
364,46.0,0.0,180.0,0.0,0.0
365,42.0,0.0,60.0,0.0,0.0
366,54.0,64.0,60.0,0.0,0.0
367,70.0,64.0,180.0,0.0,0.0
368,78.0,0.0,60.0,0.0,0.0
369,66.0,0.0,60.0,0.0,0.0
370,77.0,0.0,60.0,0.0,0.0
371,65.0,0.0,60.0,0.0,0.0
372,41.0,0.0,60.0,0.0,0.0
373,53.0,64.0,60.0,0.0,0.0
374,39.0,0.0,60.0,0.0,0.0
375,75.0,0.0,60.0,0.0,0.0
376,63.0,0.0,60.0,0.0,0.0
377,51.0,0.0,60.0,0.0,0.0
378,62.0,0.0,60.0,0.0,0.0
379,50.0,0.0,60.0,0.0,0.0
380,38.0,64.0,60.0,0.0,0.0
381,74.0,0.0,60.0,0.0,0.0
382,51.0,0.0,60.0,0.0,0.0
383,63.0,0.0,60.0,0.0,0.0
384,75.0,0.0,60.0,0.0,0.0
385,39.0,64.0,60.0,0.0,0.0
386,65.0,64.0,60.0,0.0,0.0
387,53.0,0.0,60.0,0.0,0.0
388,41.0,0.0,60.0,0.0,0.0
389,77.0,0.0,60.0,0.0,0.0
390,50.0,0.0,390.0,0.0,0.0
391,42.0,0.0,60.0,0.0,0.0
392,78.0,0.0,60.0,0.0,0.0
393,74.0,0.0,390.0,0.0,0.0
394,66.0,64.0,60.0,0.0,0.0
395,54.0,0.0,60.0,0.0,0.0
396,77.0,0.0,60.0,0.0,0.0
397,65.0,0.0,60.0,0.0,0.0
398,53.0,64.0,60.0,0.0,0.0
399,41.0,0.0,60.0,0.0,0.0
400,78.0,64.0,60.0,0.0,0.0
401,66.0,0.0,60.0,0.0,0.0
402,42.0,0.0,60.0,0.0,0.0
403,54.0,0.0,60.0,0.0,0.0
404,56.0,0.0,60.0,0.0,0.0
405,80.0,0.0,60.0,0.0,0.0
406,68.0,64.0,60.0,0.0,0.0
407,44.0,0.0,60.0,0.0,0.0
408,57.0,64.0,60.0,0.0,0.0
409,45.0,0.0,60.0,0.0,0.0
410,69.0,0.0,60.0,0.0,0.0
411,81.0,0.0,60.0,0.0,0.0
412,71.0,0.0,60.0,0.0,0.0
413,47.0,0.0,60.0,0.0,0.0
414,83.0,0.0,60.0,0.0,0.0
415,59.0,64.0,60.0,0.0,0.0
416,69.0,0.0,60.0,0.0,0.0
417,73.0,0.0,180.0,0.0,0.0
418,81.0,64.0,60.0,0.0,0.0
419,45.0,0.0,60.0,0.0,0.0
420,49.0,0.0,180.0,0.0,0.0
421,57.0,0.0,60.0,0.0,0.0
422,68.0,0.0,60.0,0.0,0.0
423,44.0,0.0,60.0,0.0,0.0
424,56.0,64.0,60.0,0.0,0.0
425,80.0,0.0,60.0,0.0,0.0
426,78.0,0.0,60.0,0.0,0.0
427,66.0,64.0,60.0,0.0,0.0
428,42.0,0.0,60.0,0.0,0.0
429,54.0,0.0,60.0,0.0,0.0
430,77.0,0.0,60.0,0.0,0.0
431,53.0,64.0,60.0,0.0,0.0
432,65.0,0.0,60.0,0.0,0.0
433,41.0,0.0,60.0,0.0,0.0
434,78.0,0.0,60.0,0.0,0.0
435,66.0,0.0,60.0,0.0,0.0
436,54.0,64.0,60.0,0.0,0.0
437,42.0,0.0,60.0,0.0,0.0
438,68.0,0.0,60.0,0.0,0.0
439,80.0,0.0,60.0,0.0,0.0
440,44.0,0.0,60.0,0.0,0.0
441,56.0,64.0,60.0,0.0,0.0
442,78.0,64.0,60.0,0.0,0.0
443,74.0,0.0,390.0,0.0,0.0
444,66.0,0.0,60.0,0.0,0.0
445,42.0,0.0,60.0,0.0,0.0
446,50.0,0.0,390.0,0.0,0.0
447,54.0,0.0,60.0,0.0,0.0
448,41.0,0.0,60.0,0.0,0.0
449,53.0,0.0,60.0,0.0,0.0
450,65.0,0.0,60.0,0.0,0.0
451,77.0,64.0,60.0,0.0,0.0
452,78.0,0.0,60.0,0.0,0.0
453,42.0,0.0,60.0,0.0,0.0
454,54.0,0.0,60.0,0.0,0.0
455,66.0,64.0,60.0,0.0,0.0
456,80.0,0.0,60.0,0.0,0.0
457,68.0,64.0,60.0,0.0,0.0
458,56.0,0.0,60.0,0.0,0.0
459,44.0,0.0,60.0,0.0,0.0
460,45.0,0.0,60.0,0.0,0.0
461,69.0,0.0,60.0,0.0,0.0
462,81.0,64.0,60.0,0.0,0.0
463,57.0,0.0,60.0,0.0,0.0
464,71.0,64.0,60.0,0.0,0.0
465,47.0,0.0,60.0,0.0,0.0
466,59.0,0.0,60.0,0.0,0.0
467,83.0,0.0,60.0,0.0,0.0
468,81.0,0.0,60.0,0.0,0.0
469,73.0,0.0,180.0,0.0,0.0
470,69.0,0.0,60.0,0.0,0.0
471,57.0,64.0,60.0,0.0,0.0
472,49.0,0.0,180.0,0.0,0.0
473,45.0,0.0,60.0,0.0,0.0
474,68.0,0.0,60.0,0.0,0.0
475,80.0,0.0,60.0,0.0,0.0
476,44.0,0.0,60.0,0.0,0.0
477,56.0,64.0,60.0,0.0,0.0
478,78.0,0.0,60.0,0.0,0.0
479,66.0,0.0,60.0,0.0,0.0
480,42.0,0.0,60.0,0.0,0.0
481,54.0,64.0,60.0,0.0,0.0
482,41.0,0.0,60.0,0.0,0.0
483,53.0,0.0,60.0,0.0,0.0
484,65.0,64.0,60.0,0.0,0.0
485,77.0,0.0,60.0,0.0,0.0
486,42.0,64.0,60.0,0.0,0.0
487,54.0,0.0,60.0,0.0,0.0
488,78.0,0.0,60.0,0.0,0.0
489,66.0,0.0,60.0,0.0,0.0
490,80.0,64.0,60.0,0.0,0.0
491,68.0,0.0,60.0,0.0,0.0
492,56.0,0.0,60.0,0.0,0.0
493,44.0,0.0,60.0,0.0,0.0
494,74.0,0.0,180.0,0.0,0.0
495,59.0,0.0,60.0,0.0,0.0
496,47.0,0.0,60.0,0.0,0.0
497,68.0,64.0,60.0,0.0,0.0
498,77.0,0.0,180.0,0.0,0.0
499,80.0,0.0,60.0,0.0,0.0
500,79.0,0.0,60.0,0.0,0.0
501,67.0,64.0,60.0,0.0,0.0
502,46.0,0.0,60.0,0.0,0.0
503,58.0,0.0,60.0,0.0,0.0
504,59.0,0.0,60.0,0.0,0.0
505,47.0,64.0,60.0,0.0,0.0
506,80.0,0.0,60.0,0.0,0.0
507,68.0,0.0,60.0,0.0,0.0
508,81.0,64.0,60.0,0.0,0.0
509,69.0,0.0,60.0,0.0,0.0
510,60.0,0.0,60.0,0.0,0.0
511,48.0,0.0,60.0,0.0,0.0
512,61.0,0.0,60.0,0.0,0.0
513,49.0,64.0,60.0,0.0,0.0
514,82.0,0.0,60.0,0.0,0.0
515,70.0,0.0,60.0,0.0,0.0
516,71.0,0.0,60.0,0.0,0.0
517,50.0,0.0,60.0,0.0,0.0
518,83.0,64.0,60.0,0.0,0.0
519,62.0,0.0,60.0,0.0,0.0
520,70.0,0.0,60.0,0.0,0.0
521,61.0,64.0,60.0,0.0,0.0
522,49.0,0.0,60.0,0.0,0.0
523,79.0,0.0,180.0,0.0,0.0
524,82.0,0.0,60.0,0.0,0.0
525,76.0,0.0,180.0,0.0,0.0
526,81.0,0.0,60.0,0.0,0.0
527,69.0,64.0,60.0,0.0,0.0
528,60.0,0.0,60.0,0.0,0.0
529,48.0,0.0,60.0,0.0,0.0
530,70.0,64.0,60.0,0.0,0.0
531,61.0,0.0,60.0,0.0,0.0
532,82.0,0.0,60.0,0.0,0.0
533,49.0,0.0,60.0,0.0,0.0
534,71.0,0.0,60.0,0.0,0.0
535,83.0,0.0,60.0,0.0,0.0
536,62.0,64.0,60.0,0.0,0.0
537,50.0,0.0,60.0,0.0,0.0
538,84.0,0.0,60.0,0.0,0.0
539,72.0,0.0,60.0,0.0,0.0
540,51.0,0.0,60.0,0.0,0.0
541,63.0,64.0,60.0,0.0,0.0
542,85.0,0.0,60.0,0.0,0.0
543,73.0,0.0,60.0,0.0,0.0
544,52.0,0.0,60.0,0.0,0.0
545,64.0,64.0,60.0,0.0,0.0
546,86.0,64.0,60.0,0.0,0.0
547,80.0,0.0,180.0,0.0,0.0
548,74.0,0.0,60.0,0.0,0.0
549,65.0,0.0,60.0,0.0,0.0
550,53.0,0.0,60.0,0.0,0.0
551,87.0,0.0,60.0,0.0,0.0
552,54.0,0.0,60.0,0.0,0.0
553,66.0,64.0,60.0,0.0,0.0
554,75.0,0.0,60.0,0.0,0.0
555,67.0,0.0,60.0,0.0,0.0
556,76.0,0.0,60.0,0.0,0.0
557,88.0,0.0,60.0,0.0,0.0
558,55.0,0.0,60.0,0.0,0.0
559,89.0,0.0,60.0,0.0,0.0
560,56.0,64.0,60.0,0.0,0.0
561,68.0,0.0,60.0,0.0,0.0
562,77.0,0.0,60.0,0.0,0.0
563,83.0,64.0,15.0,0.0,0.0
564,90.0,0.0,60.0,0.0,0.0
565,69.0,0.0,60.0,0.0,0.0
566,57.0,0.0,60.0,0.0,0.0
567,78.0,64.0,60.0,0.0,0.0
568,58.0,0.0,60.0,0.0,0.0
569,70.0,0.0,60.0,0.0,0.0
570,79.0,64.0,60.0,0.0,0.0
571,91.0,0.0,60.0,0.0,0.0
572,71.0,0.0,60.0,0.0,0.0
573,59.0,0.0,60.0,0.0,0.0
574,92.0,0.0,60.0,0.0,0.0
575,80.0,64.0,60.0,0.0,0.0
576,86.0,0.0,15.0,0.0,0.0
577,72.0,64.0,60.0,0.0,0.0
578,60.0,0.0,60.0,0.0,0.0
579,93.0,0.0,60.0,0.0,0.0
580,81.0,0.0,60.0,0.0,0.0
581,73.0,0.0,60.0,0.0,0.0
582,82.0,64.0,60.0,0.0,0.0
583,94.0,0.0,60.0,0.0,0.0
584,61.0,0.0,60.0,0.0,0.0
585,62.0,0.0,60.0,0.0,0.0
586,92.0,0.0,180.0,0.0,0.0
587,89.0,0.0,15.0,0.0,0.0
588,74.0,0.0,60.0,0.0,0.0
589,75.0,0.0,60.0,0.0,0.0
590,63.0,0.0,60.0,0.0,0.0
591,95.0,0.0,15.0,0.0,0.0
592,83.0,64.0,15.0,0.0,0.0
593,65.0,0.0,60.0,0.0,0.0
594,77.0,0.0,60.0,0.0,0.0
595,94.0,0.0,60.0,0.0,0.0
596,82.0,0.0,60.0,0.0,0.0
597,63.0,64.0,60.0,0.0,0.0
598,66.0,0.0,390.0,0.0,0.0
599,75.0,0.0,60.0,0.0,0.0
600,87.0,0.0,60.0,0.0,0.0
601,99.0,0.0,60.0,0.0,0.0
602,90.0,0.0,390.0,0.0,0.0
603,62.0,0.0,60.0,0.0,0.0
604,98.0,0.0,60.0,0.0,0.0
605,86.0,64.0,60.0,0.0,0.0
606,74.0,0.0,60.0,0.0,0.0
607,63.0,64.0,60.0,0.0,0.0
608,75.0,0.0,60.0,0.0,0.0
609,87.0,0.0,60.0,0.0,0.0
610,99.0,0.0,60.0,0.0,0.0
611,74.0,0.0,60.0,0.0,0.0
612,62.0,0.0,60.0,0.0,0.0
613,86.0,64.0,60.0,0.0,0.0
614,98.0,0.0,60.0,0.0,0.0
615,85.0,0.0,60.0,0.0,0.0
616,97.0,0.0,60.0,0.0,0.0
617,73.0,0.0,60.0,0.0,0.0
618,61.0,64.0,60.0,0.0,0.0
619,60.0,0.0,60.0,0.0,0.0
620,72.0,64.0,60.0,0.0,0.0
621,84.0,0.0,60.0,0.0,0.0
622,96.0,0.0,60.0,0.0,0.0
623,97.0,0.0,60.0,0.0,0.0
624,90.0,0.0,390.0,0.0,0.0
625,85.0,64.0,60.0,0.0,0.0
626,61.0,0.0,60.0,0.0,0.0
627,66.0,0.0,390.0,0.0,0.0
628,73.0,0.0,60.0,0.0,0.0
629,60.0,0.0,60.0,0.0,0.0
630,96.0,0.0,60.0,0.0,0.0
631,84.0,64.0,60.0,0.0,0.0
632,72.0,0.0,60.0,0.0,0.0
633,73.0,64.0,60.0,0.0,0.0
634,97.0,0.0,60.0,0.0,0.0
635,61.0,0.0,60.0,0.0,0.0
636,85.0,0.0,60.0,0.0,0.0
637,72.0,0.0,60.0,0.0,0.0
638,60.0,0.0,60.0,0.0,0.0
639,96.0,0.0,60.0,0.0,0.0
640,84.0,64.0,60.0,0.0,0.0
641,83.0,0.0,60.0,0.0,0.0
642,71.0,0.0,60.0,0.0,0.0
643,95.0,64.0,60.0,0.0,0.0
644,59.0,0.0,60.0,0.0,0.0
645,70.0,0.0,60.0,0.0,0.0
646,82.0,0.0,60.0,0.0,0.0
647,94.0,0.0,60.0,0.0,0.0
648,58.0,64.0,60.0,0.0,0.0
649,95.0,0.0,60.0,0.0,0.0
650,59.0,64.0,60.0,0.0,0.0
651,71.0,0.0,60.0,0.0,0.0
652,83.0,0.0,60.0,0.0,0.0
653,94.0,0.0,60.0,0.0,0.0
654,58.0,0.0,60.0,0.0,0.0
655,70.0,64.0,60.0,0.0,0.0
656,82.0,0.0,60.0,0.0,0.0
657,83.0,0.0,60.0,0.0,0.0
658,95.0,0.0,60.0,0.0,0.0
659,59.0,0.0,60.0,0.0,0.0
660,71.0,0.0,60.0,0.0,0.0
661,63.0,64.0,15.0,0.0,0.0
662,58.0,0.0,60.0,0.0,0.0
663,94.0,64.0,60.0,0.0,0.0
664,87.0,0.0,15.0,0.0,0.0
665,82.0,0.0,60.0,0.0,0.0
666,70.0,0.0,60.0,0.0,0.0
667,93.0,0.0,60.0,0.0,0.0
668,69.0,64.0,60.0,0.0,0.0
669,57.0,0.0,60.0,0.0,0.0
670,81.0,0.0,60.0,0.0,0.0
671,92.0,0.0,60.0,0.0,0.0
672,56.0,0.0,60.0,0.0,0.0
673,68.0,0.0,60.0,0.0,0.0
674,80.0,64.0,60.0,0.0,0.0
675,91.0,0.0,60.0,0.0,0.0
676,55.0,0.0,60.0,0.0,0.0
677,67.0,64.0,60.0,0.0,0.0
678,82.0,0.0,180.0,0.0,0.0
679,79.0,0.0,60.0,0.0,0.0
680,66.0,0.0,60.0,0.0,0.0
681,90.0,0.0,60.0,0.0,0.0
682,78.0,0.0,60.0,0.0,0.0
683,54.0,64.0,60.0,0.0,0.0
684,89.0,0.0,60.0,0.0,0.0
685,77.0,0.0,60.0,0.0,0.0
686,53.0,0.0,60.0,0.0,0.0
687,65.0,0.0,60.0,0.0,0.0
688,58.0,192.0,15.0,0.0,0.0
689,63.0,64.0,180.0,0.0,0.0
690,75.0,0.0,180.0,0.0,0.0
691,82.0,0.0,180.0,0.0,0.0
692,51.0,0.0,180.0,0.0,0.0
693,87.0,0.0,15.0,0.0,0.0
694,83.0,0.0,390.0,0.0,0.0
695,51.0,64.0,60.0,0.0,0.0
696,59.0,0.0,390.0,0.0,0.0
697,63.0,0.0,60.0,0.0,0.0
698,75.0,0.0,60.0,0.0,0.0
699,50.0,0.0,60.0,0.0,0.0
700,62.0,64.0,60.0,0.0,0.0
701,86.0,0.0,60.0,0.0,0.0
702,74.0,0.0,60.0,0.0,0.0
703,63.0,0.0,60.0,0.0,0.0
704,87.0,0.0,60.0,0.0,0.0
705,75.0,0.0,60.0,0.0,0.0
706,51.0,64.0,60.0,0.0,0.0
707,53.0,64.0,60.0,0.0,0.0
708,65.0,0.0,60.0,0.0,0.0
709,77.0,0.0,60.0,0.0,0.0
710,89.0,0.0,60.0,0.0,0.0
711,90.0,64.0,60.0,0.0,0.0
712,78.0,0.0,60.0,0.0,0.0
713,66.0,0.0,60.0,0.0,0.0
714,54.0,0.0,60.0,0.0,0.0
715,56.0,0.0,60.0,0.0,0.0
716,92.0,0.0,60.0,0.0,0.0
717,68.0,64.0,60.0,0.0,0.0
718,80.0,0.0,60.0,0.0,0.0
719,78.0,64.0,60.0,0.0,0.0
720,90.0,0.0,60.0,0.0,0.0
721,82.0,0.0,180.0,0.0,0.0
722,54.0,0.0,60.0,0.0,0.0
723,66.0,0.0,60.0,0.0,0.0
724,58.0,0.0,180.0,0.0,0.0
725,89.0,64.0,60.0,0.0,0.0
726,77.0,0.0,60.0,0.0,0.0
727,65.0,0.0,60.0,0.0,0.0
728,53.0,0.0,60.0,0.0,0.0
729,63.0,0.0,60.0,0.0,0.0
730,51.0,64.0,60.0,0.0,0.0
731,75.0,0.0,60.0,0.0,0.0
732,87.0,0.0,60.0,0.0,0.0
733,74.0,0.0,60.0,0.0,0.0
734,86.0,0.0,60.0,0.0,0.0
735,50.0,64.0,60.0,0.0,0.0
736,62.0,0.0,60.0,0.0,0.0
737,51.0,0.0,60.0,0.0,0.0
738,75.0,0.0,60.0,0.0,0.0
739,63.0,64.0,60.0,0.0,0.0
740,87.0,0.0,60.0,0.0,0.0
741,53.0,0.0,60.0,0.0,0.0
742,65.0,64.0,60.0,0.0,0.0
743,89.0,0.0,60.0,0.0,0.0
744,77.0,0.0,60.0,0.0,0.0
745,75.0,64.0,60.0,0.0,0.0
746,83.0,0.0,390.0,0.0,0.0
747,87.0,0.0,60.0,0.0,0.0
748,63.0,0.0,60.0,0.0,0.0
749,51.0,0.0,60.0,0.0,0.0
750,59.0,0.0,390.0,0.0,0.0
751,74.0,64.0,60.0,0.0,0.0
752,62.0,0.0,60.0,0.0,0.0
753,50.0,0.0,60.0,0.0,0.0
754,86.0,0.0,60.0,0.0,0.0
755,87.0,0.0,60.0,0.0,0.0
756,51.0,0.0,60.0,0.0,0.0
757,63.0,64.0,60.0,0.0,0.0
758,75.0,0.0,60.0,0.0,0.0
759,89.0,0.0,60.0,0.0,0.0
760,77.0,0.0,60.0,0.0,0.0
761,53.0,0.0,60.0,0.0,0.0
762,65.0,64.0,60.0,0.0,0.0
763,78.0,0.0,60.0,0.0,0.0
764,90.0,64.0,60.0,0.0,0.0
765,54.0,0.0,60.0,0.0,0.0
766,66.0,0.0,60.0,0.0,0.0
767,92.0,0.0,60.0,0.0,0.0
768,56.0,0.0,60.0,0.0,0.0
769,68.0,64.0,60.0,0.0,0.0
770,80.0,0.0,60.0,0.0,0.0
771,90.0,0.0,60.0,0.0,0.0
772,82.0,0.0,180.0,0.0,0.0
773,78.0,0.0,60.0,0.0,0.0
774,66.0,0.0,60.0,0.0,0.0
775,54.0,64.0,60.0,0.0,0.0
776,58.0,0.0,180.0,0.0,0.0
777,77.0,0.0,60.0,0.0,0.0
778,89.0,64.0,60.0,0.0,0.0
779,53.0,0.0,60.0,0.0,0.0
780,65.0,0.0,60.0,0.0,0.0
781,51.0,0.0,60.0,0.0,0.0
782,87.0,0.0,60.0,0.0,0.0
783,75.0,0.0,60.0,0.0,0.0
784,63.0,64.0,60.0,0.0,0.0
785,86.0,0.0,60.0,0.0,0.0
786,50.0,0.0,60.0,0.0,0.0
787,62.0,64.0,60.0,0.0,0.0
788,74.0,0.0,60.0,0.0,0.0
789,75.0,0.0,60.0,0.0,0.0
790,87.0,0.0,60.0,0.0,0.0
791,51.0,0.0,60.0,0.0,0.0
792,63.0,64.0,60.0,0.0,0.0
793,53.0,64.0,60.0,0.0,0.0
794,65.0,0.0,60.0,0.0,0.0
795,89.0,0.0,60.0,0.0,0.0
796,77.0,0.0,60.0,0.0,0.0
797,87.0,64.0,60.0,0.0,0.0
798,83.0,64.0,390.0,0.0,0.0
799,81.0,0.0,390.0,0.0,0.0
800,75.0,0.0,60.0,0.0,0.0
801,59.0,0.0,390.0,0.0,0.0
802,51.0,0.0,60.0,0.0,0.0
803,63.0,0.0,60.0,0.0,0.0
804,74.0,0.0,60.0,0.0,0.0
805,86.0,0.0,60.0,0.0,0.0
806,62.0,64.0,60.0,0.0,0.0
807,50.0,0.0,60.0,0.0,0.0
808,51.0,64.0,60.0,0.0,0.0
809,63.0,0.0,60.0,0.0,0.0
810,87.0,0.0,60.0,0.0,0.0
811,75.0,0.0,60.0,0.0,0.0
812,76.0,0.0,60.0,0.0,0.0
813,52.0,0.0,60.0,0.0,0.0
814,64.0,0.0,60.0,0.0,0.0
815,88.0,64.0,60.0,0.0,0.0
816,89.0,0.0,60.0,0.0,0.0
817,65.0,64.0,60.0,0.0,0.0
818,77.0,0.0,60.0,0.0,0.0
819,53.0,0.0,60.0,0.0,0.0
820,54.0,0.0,60.0,0.0,0.0
821,90.0,0.0,60.0,0.0,0.0
822,78.0,0.0,60.0,0.0,0.0
823,66.0,0.0,60.0,0.0,0.0
824,53.0,64.0,60.0,0.0,0.0
825,57.0,0.0,15.0,0.0,0.0
826,65.0,0.0,60.0,0.0,0.0
827,77.0,0.0,60.0,0.0,0.0
828,81.0,0.0,180.0,0.0,0.0
829,89.0,0.0,60.0,0.0,0.0
830,88.0,0.0,60.0,0.0,0.0
831,76.0,64.0,60.0,0.0,0.0
832,52.0,0.0,60.0,0.0,0.0
833,64.0,0.0,60.0,0.0,0.0
834,51.0,0.0,60.0,0.0,0.0
835,63.0,64.0,60.0,0.0,0.0
836,75.0,0.0,60.0,0.0,0.0
837,87.0,0.0,60.0,0.0,0.0
838,62.0,0.0,60.0,0.0,0.0
839,59.0,0.0,15.0,0.0,0.0
840,86.0,0.0,60.0,0.0,0.0
841,83.0,0.0,15.0,0.0,0.0
842,50.0,0.0,60.0,0.0,0.0
843,74.0,64.0,60.0,0.0,0.0
844,51.0,64.0,60.0,0.0,0.0
845,63.0,0.0,60.0,0.0,0.0
846,87.0,0.0,60.0,0.0,0.0
847,75.0,0.0,60.0,0.0,0.0
848,89.0,0.0,60.0,0.0,0.0
849,77.0,0.0,60.0,0.0,0.0
850,53.0,0.0,60.0,0.0,0.0
851,65.0,0.0,60.0,0.0,0.0
852,57.0,0.0,15.0,0.0,0.0
853,51.0,0.0,60.0,0.0,0.0
854,59.0,64.0,15.0,0.0,0.0
855,63.0,0.0,60.0,0.0,0.0
856,87.0,0.0,60.0,0.0,0.0
857,83.0,0.0,15.0,0.0,0.0
858,81.0,0.0,15.0,0.0,0.0
859,75.0,64.0,60.0,0.0,0.0
860,86.0,64.0,60.0,0.0,0.0
861,74.0,0.0,60.0,0.0,0.0
862,62.0,0.0,60.0,0.0,0.0
863,50.0,0.0,60.0,0.0,0.0
864,87.0,64.0,60.0,0.0,0.0
865,63.0,0.0,60.0,0.0,0.0
866,51.0,0.0,60.0,0.0,0.0
867,75.0,0.0,60.0,0.0,0.0
868,52.0,0.0,60.0,0.0,0.0
869,64.0,64.0,60.0,0.0,0.0
870,76.0,0.0,60.0,0.0,0.0
871,81.0,0.0,60.0,0.0,0.0
872,83.0,0.0,60.0,0.0,0.0
873,88.0,0.0,60.0,0.0,0.0
874,59.0,0.0,60.0,0.0,0.0
875,57.0,0.0,60.0,0.0,0.0
876,77.0,0.0,60.0,0.0,0.0
877,89.0,0.0,60.0,0.0,0.0
878,53.0,64.0,60.0,0.0,0.0
879,65.0,0.0,60.0,0.0,0.0
880,78.0,64.0,60.0,0.0,0.0
881,90.0,0.0,60.0,0.0,0.0
882,83.0,0.0,60.0,0.0,0.0
883,54.0,0.0,60.0,0.0,0.0
884,57.0,0.0,60.0,0.0,0.0
885,66.0,0.0,60.0,0.0,0.0
886,77.0,0.0,60.0,0.0,0.0
887,81.0,0.0,15.0,0.0,0.0
888,83.0,0.0,180.0,0.0,0.0
889,89.0,64.0,60.0,0.0,0.0
890,59.0,0.0,15.0,0.0,0.0
891,57.0,0.0,180.0,0.0,0.0
892,53.0,0.0,60.0,0.0,0.0
893,65.0,0.0,60.0,0.0,0.0
894,88.0,0.0,60.0,0.0,0.0
895,64.0,64.0,60.0,0.0,0.0
896,52.0,0.0,60.0,0.0,0.0
897,76.0,0.0,60.0,0.0,0.0
898,75.0,0.0,60.0,0.0,0.0
899,87.0,0.0,60.0,0.0,0.0
900,63.0,0.0,60.0,0.0,0.0
901,51.0,64.0,60.0,0.0,0.0
902,50.0,0.0,60.0,0.0,0.0
903,74.0,0.0,60.0,0.0,0.0
904,86.0,0.0,60.0,0.0,0.0
905,62.0,64.0,60.0,0.0,0.0
906,87.0,64.0,60.0,0.0,0.0
907,51.0,0.0,60.0,0.0,0.0
908,75.0,0.0,60.0,0.0,0.0
909,63.0,0.0,60.0,0.0,0.0
910,51.0,0.0,60.0,0.0,0.0
911,59.0,0.0,60.0,0.0,0.0
912,77.0,0.0,60.0,0.0,0.0
913,75.0,0.0,60.0,0.0,0.0
914,69.0,64.0,60.0,0.0,0.0
915,81.0,0.0,60.0,0.0,0.0
916,47.0,0.0,60.0,0.0,0.0
917,82.0,64.0,60.0,0.0,0.0
918,70.0,0.0,60.0,0.0,0.0
919,58.0,0.0,60.0,0.0,0.0
920,53.0,0.0,15.0,0.0,0.0
921,46.0,0.0,60.0,0.0,0.0
922,77.0,0.0,390.0,0.0,0.0
923,71.0,64.0,60.0,0.0,0.0
924,45.0,0.0,60.0,0.0,0.0
925,83.0,0.0,60.0,0.0,0.0
926,57.0,0.0,60.0,0.0,0.0
927,46.0,0.0,60.0,0.0,0.0
928,58.0,0.0,60.0,0.0,0.0
929,82.0,0.0,60.0,0.0,0.0
930,70.0,64.0,60.0,0.0,0.0
931,59.0,64.0,60.0,0.0,0.0
932,81.0,0.0,60.0,0.0,0.0
933,69.0,0.0,60.0,0.0,0.0
934,47.0,0.0,60.0,0.0,0.0
935,82.0,64.0,60.0,0.0,0.0
936,70.0,0.0,60.0,0.0,0.0
937,58.0,0.0,60.0,0.0,0.0
938,46.0,0.0,60.0,0.0,0.0
939,57.0,0.0,60.0,0.0,0.0
940,45.0,0.0,60.0,0.0,0.0
941,71.0,0.0,60.0,0.0,0.0
942,83.0,0.0,60.0,0.0,0.0
943,58.0,0.0,60.0,0.0,0.0
944,53.0,0.0,15.0,0.0,0.0
945,51.0,0.0,15.0,0.0,0.0
946,46.0,0.0,60.0,0.0,0.0
947,70.0,64.0,60.0,0.0,0.0
948,75.0,64.0,15.0,0.0,0.0
949,77.0,0.0,180.0,0.0,0.0
950,82.0,0.0,60.0,0.0,0.0
951,59.0,64.0,60.0,0.0,0.0
952,47.0,0.0,60.0,0.0,0.0
953,69.0,0.0,60.0,0.0,0.0
954,81.0,0.0,60.0,0.0,0.0
955,70.0,0.0,60.0,0.0,0.0
956,82.0,0.0,60.0,0.0,0.0
957,46.0,0.0,60.0,0.0,0.0
958,58.0,0.0,60.0,0.0,0.0
959,45.0,64.0,60.0,0.0,0.0
960,57.0,0.0,60.0,0.0,0.0
961,51.0,0.0,180.0,0.0,0.0
962,53.0,0.0,180.0,0.0,0.0
963,71.0,0.0,60.0,0.0,0.0
964,75.0,64.0,15.0,0.0,0.0
965,77.0,0.0,180.0,0.0,0.0
966,83.0,0.0,60.0,0.0,0.0
967,70.0,0.0,60.0,0.0,0.0
968,82.0,0.0,60.0,0.0,0.0
969,46.0,64.0,60.0,0.0,0.0
970,58.0,0.0,60.0,0.0,0.0
971,81.0,0.0,60.0,0.0,0.0
972,69.0,0.0,60.0,0.0,0.0
973,47.0,0.0,60.0,0.0,0.0
974,59.0,0.0,60.0,0.0,0.0
975,70.0,0.0,60.0,0.0,0.0
976,82.0,64.0,60.0,0.0,0.0
977,46.0,0.0,60.0,0.0,0.0
978,58.0,0.0,60.0,0.0,0.0
979,83.0,0.0,60.0,0.0,0.0
980,63.0,0.0,60.0,0.0,0.0
981,51.0,0.0,60.0,0.0,0.0
982,71.0,64.0,60.0,0.0,0.0
983,62.0,0.0,60.0,0.0,0.0
984,50.0,0.0,60.0,0.0,0.0
985,82.0,64.0,60.0,0.0,0.0
986,70.0,0.0,60.0,0.0,0.0
987,69.0,64.0,60.0,0.0,0.0
988,81.0,0.0,60.0,0.0,0.0
989,49.0,0.0,60.0,0.0,0.0
990,61.0,0.0,60.0,0.0,0.0
991,50.0,0.0,60.0,0.0,0.0
992,62.0,0.0,60.0,0.0,0.0
993,82.0,64.0,60.0,0.0,0.0
994,70.0,0.0,60.0,0.0,0.0
995,51.0,64.0,60.0,0.0,0.0
996,63.0,0.0,60.0,0.0,0.0
997,83.0,0.0,60.0,0.0,0.0
998,71.0,0.0,60.0,0.0,0.0
999,64.0,0.0,60.0,0.0,0.0
1000,82.0,64.0,60.0,0.0,0.0
1001,70.0,0.0,60.0,0.0,0.0
1002,52.0,0.0,60.0,0.0,0.0
1003,53.0,0.0,60.0,0.0,0.0
1004,65.0,0.0,60.0,0.0,0.0
1005,69.0,64.0,60.0,0.0,0.0
1006,81.0,0.0,60.0,0.0,0.0
1007,54.0,64.0,60.0,0.0,0.0
1008,70.0,0.0,60.0,0.0,0.0
1009,66.0,0.0,60.0,0.0,0.0
1010,82.0,0.0,60.0,0.0,0.0
1011,83.0,0.0,60.0,0.0,0.0
1012,71.0,0.0,60.0,0.0,0.0
1013,67.0,64.0,60.0,0.0,0.0
1014,55.0,0.0,60.0,0.0,0.0
1015,70.0,0.0,60.0,0.0,0.0
1016,82.0,0.0,60.0,0.0,0.0
1017,56.0,64.0,60.0,0.0,0.0
1018,68.0,0.0,60.0,0.0,0.0
1019,67.0,0.0,60.0,0.0,0.0
1020,55.0,0.0,60.0,0.0,0.0
1021,83.0,0.0,60.0,0.0,0.0
1022,71.0,64.0,60.0,0.0,0.0
1023,70.0,0.0,60.0,0.0,0.0
1024,82.0,0.0,60.0,0.0,0.0
1025,68.0,0.0,60.0,0.0,0.0
1026,56.0,64.0,60.0,0.0,0.0
1027,67.0,0.0,60.0,0.0,0.0
1028,71.0,0.0,60.0,0.0,0.0
1029,83.0,0.0,60.0,0.0,0.0
1030,55.0,64.0,60.0,0.0,0.0
1031,72.0,0.0,60.0,0.0,0.0
1032,84.0,0.0,60.0,0.0,0.0
1033,66.0,0.0,60.0,0.0,0.0
1034,54.0,64.0,60.0,0.0,0.0
1035,71.0,0.0,60.0,0.0,0.0
1036,83.0,0.0,60.0,0.0,0.0
1037,55.0,64.0,60.0,0.0,0.0
1038,67.0,0.0,60.0,0.0,0.0
1039,66.0,0.0,60.0,0.0,0.0
1040,72.0,0.0,60.0,0.0,0.0
1041,54.0,0.0,60.0,0.0,0.0
1042,84.0,64.0,60.0,0.0,0.0
1043,85.0,0.0,60.0,0.0,0.0
1044,65.0,0.0,60.0,0.0,0.0
1045,73.0,64.0,60.0,0.0,0.0
1046,53.0,0.0,60.0,0.0,0.0
1047,54.0,0.0,60.0,0.0,0.0
1048,66.0,64.0,60.0,0.0,0.0
1049,84.0,0.0,60.0,0.0,0.0
1050,72.0,0.0,60.0,0.0,0.0
1051,85.0,0.0,60.0,0.0,0.0
1052,73.0,0.0,60.0,0.0,0.0
1053,53.0,64.0,60.0,0.0,0.0
1054,65.0,0.0,60.0,0.0,0.0
1055,52.0,0.0,60.0,0.0,0.0
1056,74.0,0.0,60.0,0.0,0.0
1057,86.0,0.0,60.0,0.0,0.0
1058,64.0,64.0,60.0,0.0,0.0
1059,73.0,0.0,60.0,0.0,0.0
1060,85.0,0.0,60.0,0.0,0.0
1061,53.0,0.0,60.0,0.0,0.0
1062,65.0,64.0,60.0,0.0,0.0
1063,86.0,0.0,60.0,0.0,0.0
1064,52.0,0.0,60.0,0.0,0.0
1065,64.0,64.0,60.0,0.0,0.0
1066,74.0,0.0,60.0,0.0,0.0
1067,51.0,0.0,60.0,0.0,0.0
1068,75.0,0.0,60.0,0.0,0.0
1069,87.0,64.0,60.0,0.0,0.0
1070,63.0,0.0,60.0,0.0,0.0
1071,64.0,64.0,60.0,0.0,0.0
1072,52.0,0.0,60.0,0.0,0.0
1073,74.0,0.0,60.0,0.0,0.0
1074,86.0,0.0,60.0,0.0,0.0
1075,75.0,0.0,60.0,0.0,0.0
1076,51.0,64.0,60.0,0.0,0.0
1077,63.0,0.0,60.0,0.0,0.0
1078,87.0,0.0,60.0,0.0,0.0
1079,76.0,0.0,60.0,0.0,0.0
1080,88.0,64.0,60.0,0.0,0.0
1081,50.0,0.0,60.0,0.0,0.0
1082,62.0,0.0,60.0,0.0,0.0
1083,77.0,64.0,60.0,0.0,0.0
1084,89.0,0.0,60.0,0.0,0.0
1085,61.0,0.0,60.0,0.0,0.0
1086,49.0,0.0,60.0,0.0,0.0
1087,60.0,0.0,60.0,0.0,0.0
1088,90.0,0.0,60.0,0.0,0.0
1089,78.0,0.0,60.0,0.0,0.0
1090,48.0,64.0,60.0,0.0,0.0
1091,47.0,0.0,60.0,0.0,0.0
1092,59.0,0.0,60.0,0.0,0.0
1093,91.0,64.0,60.0,0.0,0.0
1094,79.0,0.0,60.0,0.0,0.0
1095,58.0,64.0,60.0,0.0,0.0
1096,46.0,0.0,60.0,0.0,0.0
1097,92.0,0.0,60.0,0.0,0.0
1098,80.0,0.0,60.0,0.0,0.0
1099,93.0,0.0,60.0,0.0,0.0
1100,45.0,64.0,60.0,0.0,0.0
1101,57.0,0.0,60.0,0.0,0.0
1102,81.0,0.0,60.0,0.0,0.0
1103,82.0,0.0,60.0,0.0,0.0
1104,94.0,0.0,60.0,0.0,0.0
1105,44.0,64.0,60.0,0.0,0.0
1106,56.0,0.0,60.0,0.0,0.0
1107,43.0,0.0,60.0,0.0,0.0
1108,55.0,0.0,60.0,0.0,0.0
1109,95.0,64.0,60.0,0.0,0.0
1110,83.0,0.0,60.0,0.0,0.0
1111,96.0,0.0,60.0,0.0,0.0
1112,84.0,0.0,60.0,0.0,0.0
1113,42.0,0.0,60.0,0.0,0.0
1114,54.0,64.0,60.0,0.0,0.0
1115,53.0,96.0,60.0,0.0,0.0
1116,98.0,0.0,60.0,0.0,0.0
1117,41.0,0.0,60.0,0.0,0.0
1118,86.0,0.0,60.0,0.0,0.0
1119,90.0,0.0,90.0,0.0,0.0
1120,93.0,0.0,90.0,0.0,0.0
1121,96.0,0.0,90.0,0.0,0.0
1122,99.0,48.0,90.0,0.0,0.0
1123,87.0,0.0,90.0,0.0,0.0
1124,39.0,0.0,90.0,0.0,0.0
1125,45.0,0.0,90.0,0.0,0.0
1126,48.0,0.0,90.0,0.0,0.0
1127,51.0,0.0,90.0,0.0,0.0
1128,84.0,0.0,40.0,0.0,0.0
1129,87.0,48.0,40.0,0.0,0.0
1130,72.0,0.0,40.0,0.0,0.0
1131,99.0,0.0,40.0,0.0,0.0
1132,71.0,0.0,40.0,0.0,0.0
1133,83.0,0.0,40.0,0.0,0.0
1134,88.0,64.0,40.0,0.0,0.0
1135,100.0,0.0,40.0,0.0,0.0
1136,89.0,64.0,60.0,0.0,0.0
1137,70.0,0.0,60.0,0.0,0.0
1138,82.0,0.0,60.0,0.0,0.0
1139,101.0,0.0,60.0,0.0,0.0
1140,81.0,64.0,60.0,0.0,0.0
1141,69.0,0.0,60.0,0.0,0.0
1142,102.0,0.0,60.0,0.0,0.0
1143,90.0,0.0,60.0,0.0,0.0
1144,72.0,0.0,60.0,0.0,0.0
1145,100.0,64.0,60.0,0.0,0.0
1146,88.0,0.0,60.0,0.0,0.0
1147,84.0,0.0,60.0,0.0,0.0
1148,69.0,0.0,60.0,0.0,0.0
1149,84.0,0.0,60.0,0.0,0.0
1150,96.0,0.0,60.0,0.0,0.0
1151,81.0,64.0,60.0,0.0,0.0
1152,93.0,0.0,60.0,0.0,0.0
1153,66.0,64.0,60.0,0.0,0.0
1154,78.0,0.0,60.0,0.0,0.0
1155,81.0,0.0,60.0,0.0,0.0
1156,82.0,0.0,60.0,0.0,0.0
1157,94.0,0.0,60.0,0.0,0.0
1158,65.0,0.0,60.0,0.0,0.0
1159,77.0,64.0,60.0,0.0,0.0
1160,95.0,64.0,60.0,0.0,0.0
1161,83.0,0.0,60.0,0.0,0.0
1162,64.0,0.0,60.0,0.0,0.0
1163,76.0,0.0,60.0,0.0,0.0
1164,84.0,0.0,60.0,0.0,0.0
1165,96.0,0.0,60.0,0.0,0.0
1166,63.0,0.0,60.0,0.0,0.0
1167,75.0,64.0,60.0,0.0,0.0
1168,81.0,64.0,60.0,0.0,0.0
1169,93.0,0.0,60.0,0.0,0.0
1170,78.0,0.0,60.0,0.0,0.0
1171,66.0,0.0,60.0,0.0,0.0
1172,78.0,0.0,60.0,0.0,0.0
1173,75.0,0.0,60.0,0.0,0.0
1174,90.0,0.0,60.0,0.0,0.0
1175,63.0,64.0,60.0,0.0,0.0
1176,87.0,0.0,60.0,0.0,0.0
1177,60.0,0.0,60.0,0.0,0.0
1178,72.0,64.0,60.0,0.0,0.0
1179,75.0,0.0,60.0,0.0,0.0
1180,59.0,0.0,60.0,0.0,0.0
1181,71.0,0.0,60.0,0.0,0.0
1182,76.0,0.0,60.0,0.0,0.0
1183,88.0,64.0,60.0,0.0,0.0
1184,70.0,0.0,60.0,0.0,0.0
1185,58.0,0.0,60.0,0.0,0.0
1186,77.0,64.0,60.0,0.0,0.0
1187,89.0,0.0,60.0,0.0,0.0
1188,78.0,64.0,60.0,0.0,0.0
1189,69.0,0.0,60.0,0.0,0.0
1190,57.0,0.0,60.0,0.0,0.0
1191,90.0,0.0,60.0,0.0,0.0
1192,60.0,0.0,60.0,0.0,0.0
1193,72.0,64.0,60.0,0.0,0.0
1194,75.0,0.0,60.0,0.0,0.0
1195,87.0,0.0,60.0,0.0,0.0
1196,83.0,0.0,60.0,0.0,0.0
1197,71.0,0.0,60.0,0.0,0.0
1198,52.0,64.0,60.0,0.0,0.0
1199,64.0,0.0,60.0,0.0,0.0
1200,84.0,0.0,60.0,0.0,0.0
1201,72.0,0.0,60.0,0.0,0.0
1202,51.0,64.0,60.0,0.0,0.0
1203,63.0,0.0,60.0,0.0,0.0
1204,81.0,0.0,60.0,0.0,0.0
1205,69.0,0.0,60.0,0.0,0.0
1206,54.0,64.0,60.0,0.0,0.0
1207,66.0,0.0,60.0,0.0,0.0
1208,47.0,64.0,60.0,0.0,0.0
1209,59.0,0.0,60.0,0.0,0.0
1210,65.0,0.0,60.0,0.0,0.0
1211,77.0,0.0,60.0,0.0,0.0
1212,66.0,0.0,60.0,0.0,0.0
1213,78.0,0.0,60.0,0.0,0.0
1214,57.0,0.0,60.0,0.0,0.0
1215,45.0,64.0,60.0,0.0,0.0
1216,48.0,64.0,60.0,0.0,0.0
1217,60.0,0.0,60.0,0.0,0.0
1218,75.0,64.0,120.0,0.0,0.0
1219,63.0,0.0,120.0,0.0,0.0
1220,46.0,0.0,120.0,0.0,0.0
1221,34.0,0.0,120.0,0.0,0.0
1222,58.0,64.0,60.0,0.0,0.0
1223,70.0,0.0,60.0,0.0,0.0
1224,74.0,0.0,60.0,0.0,0.0
1225,62.0,0.0,60.0,0.0,0.0
1226,38.0,0.0,60.0,0.0,0.0
1227,50.0,64.0,60.0,0.0,0.0
1228,41.0,0.0,60.0,0.0,0.0
1229,53.0,64.0,60.0,0.0,0.0
1230,65.0,0.0,60.0,0.0,0.0
1231,77.0,0.0,60.0,0.0,0.0
1232,38.0,0.0,60.0,0.0,0.0
1233,62.0,0.0,60.0,0.0,0.0
1234,74.0,64.0,60.0,0.0,0.0
1235,50.0,0.0,60.0,0.0,0.0
1236,54.0,64.0,60.0,0.0,0.0
1237,66.0,0.0,60.0,0.0,0.0
1238,42.0,0.0,60.0,0.0,0.0
1239,78.0,0.0,60.0,0.0,0.0
1240,74.0,0.0,60.0,0.0,0.0
1241,62.0,64.0,60.0,0.0,0.0
1242,38.0,0.0,60.0,0.0,0.0
1243,50.0,0.0,60.0,0.0,0.0
1244,39.0,0.0,60.0,0.0,0.0
1245,51.0,0.0,60.0,0.0,0.0
1246,75.0,64.0,60.0,0.0,0.0
1247,63.0,0.0,60.0,0.0,0.0
1248,44.0,64.0,60.0,0.0,0.0
1249,56.0,0.0,60.0,0.0,0.0
1250,68.0,0.0,60.0,0.0,0.0
1251,80.0,0.0,60.0,0.0,0.0
1252,65.0,0.0,60.0,0.0,0.0
1253,77.0,0.0,60.0,0.0,0.0
1254,53.0,64.0,60.0,0.0,0.0
1255,41.0,0.0,60.0,0.0,0.0
1256,66.0,64.0,60.0,0.0,0.0
1257,54.0,0.0,60.0,0.0,0.0
1258,78.0,0.0,60.0,0.0,0.0
1259,42.0,0.0,60.0,0.0,0.0
1260,47.0,0.0,60.0,0.0,0.0
1261,59.0,0.0,60.0,0.0,0.0
1262,71.0,0.0,60.0,0.0,0.0
1263,83.0,64.0,60.0,0.0,0.0
1264,45.0,0.0,60.0,0.0,0.0
1265,57.0,0.0,60.0,0.0,0.0
1266,69.0,64.0,60.0,0.0,0.0
1267,81.0,0.0,60.0,0.0,0.0
1268,70.0,0.0,60.0,0.0,0.0
1269,82.0,64.0,60.0,0.0,0.0
1270,58.0,0.0,60.0,0.0,0.0
1271,46.0,0.0,60.0,0.0,0.0
1272,50.0,0.0,60.0,0.0,0.0
1273,62.0,0.0,60.0,0.0,0.0
1274,86.0,64.0,60.0,0.0,0.0
1275,74.0,0.0,60.0,0.0,0.0
1276,53.0,0.0,60.0,0.0,0.0
1277,77.0,0.0,60.0,0.0,0.0
1278,89.0,64.0,60.0,0.0,0.0
1279,65.0,0.0,60.0,0.0,0.0
1280,74.0,0.0,60.0,0.0,0.0
1281,86.0,0.0,60.0,0.0,0.0
1282,50.0,0.0,60.0,0.0,0.0
1283,62.0,64.0,60.0,0.0,0.0
1284,78.0,0.0,60.0,0.0,0.0
1285,90.0,0.0,60.0,0.0,0.0
1286,54.0,64.0,60.0,0.0,0.0
1287,66.0,0.0,60.0,0.0,0.0
1288,62.0,0.0,60.0,0.0,0.0
1289,50.0,64.0,60.0,0.0,0.0
1290,86.0,0.0,60.0,0.0,0.0
1291,74.0,0.0,60.0,0.0,0.0
1292,51.0,0.0,60.0,0.0,0.0
1293,75.0,64.0,60.0,0.0,0.0
1294,63.0,0.0,60.0,0.0,0.0
1295,87.0,0.0,60.0,0.0,0.0
1296,56.0,0.0,60.0,0.0,0.0
1297,68.0,64.0,60.0,0.0,0.0
1298,92.0,0.0,60.0,0.0,0.0
1299,80.0,0.0,60.0,0.0,0.0
1300,77.0,64.0,60.0,0.0,0.0
1301,89.0,0.0,60.0,0.0,0.0
1302,53.0,0.0,60.0,0.0,0.0
1303,65.0,0.0,60.0,0.0,0.0
1304,90.0,0.0,60.0,0.0,0.0
1305,66.0,64.0,60.0,0.0,0.0
1306,78.0,0.0,60.0,0.0,0.0
1307,54.0,0.0,60.0,0.0,0.0
1308,95.0,0.0,60.0,0.0,0.0
1309,59.0,0.0,60.0,0.0,0.0
1310,71.0,0.0,60.0,0.0,0.0
1311,83.0,64.0,60.0,0.0,0.0
1312,57.0,0.0,60.0,0.0,0.0
1313,93.0,0.0,60.0,0.0,0.0
1314,81.0,64.0,60.0,0.0,0.0
1315,69.0,0.0,60.0,0.0,0.0
1316,70.0,0.0,60.0,0.0,0.0
1317,94.0,0.0,60.0,0.0,0.0
1318,82.0,64.0,60.0,0.0,0.0
1319,58.0,0.0,60.0,0.0,0.0
1320,98.0,0.0,60.0,0.0,0.0
1321,86.0,0.0,60.0,0.0,0.0
1322,74.0,0.0,60.0,0.0,0.0
1323,62.0,64.0,60.0,0.0,0.0
1324,89.0,0.0,60.0,0.0,0.0
1325,101.0,0.0,60.0,0.0,0.0
1326,77.0,0.0,60.0,0.0,0.0
1327,65.0,64.0,60.0,0.0,0.0
1328,62.0,0.0,60.0,0.0,0.0
1329,74.0,0.0,60.0,0.0,0.0
1330,98.0,0.0,60.0,0.0,0.0
1331,86.0,64.0,60.0,0.0,0.0
1332,78.0,384.0,60.0,0.0,0.0
1333,102.0,0.0,60.0,0.0,0.0
1334,90.0,0.0,60.0,0.0,0.0
1335,66.0,0.0,60.0,0.0,0.0
1336,45.0,0.0,390.0,0.0,0.0
1337,75.0,0.0,390.0,0.0,0.0
1338,71.0,0.0,390.0,0.0,0.0
1339,66.0,0.0,390.0,0.0,0.0
1340,63.0,0.0,390.0,0.0,0.0
1341,33.0,64.0,390.0,0.0,0.0
1342,32.0,0.0,60.0,0.0,0.0
1343,44.0,0.0,60.0,0.0,0.0
1344,64.0,0.0,60.0,0.0,0.0
1345,71.0,64.0,60.0,0.0,0.0
1346,76.0,0.0,60.0,0.0,0.0
1347,45.0,0.0,60.0,0.0,0.0
1348,33.0,0.0,60.0,0.0,0.0
1349,67.0,0.0,60.0,0.0,0.0
1350,73.0,64.0,60.0,0.0,0.0
1351,74.0,96.0,60.0,0.0,0.0
1352,65.0,0.0,150.0,0.0,0.0
1353,62.0,0.0,60.0,0.0,0.0
1354,34.0,0.0,60.0,0.0,0.0
1355,46.0,0.0,60.0,0.0,0.0
1356,38.0,0.0,90.0,0.0,0.0
1357,50.0,0.0,90.0,0.0,0.0
1358,58.0,0.0,90.0,0.0,0.0
1359,68.0,0.0,90.0,0.0,0.0
1360,70.0,1248.0,90.0,0.0,0.0
1361,80.0,192.0,780.0,0.0,0.0
1362,68.0,0.0,780.0,0.0,0.0
1363,70.0,192.0,180.0,0.0,0.0
1364,82.0,0.0,180.0,0.0,0.0
1365,65.0,0.0,180.0,0.0,0.0
1366,77.0,96.0,180.0,0.0,0.0
1367,58.0,0.0,390.0,0.0,0.0
1368,51.0,0.0,390.0,0.0,0.0
1369,67.0,0.0,90.0,0.0,0.0
1370,79.0,96.0,90.0,0.0,0.0
1371,68.0,0.0,90.0,0.0,0.0
1372,80.0,96.0,90.0,0.0,0.0
1373,79.0,96.0,90.0,0.0,0.0
1374,67.0,0.0,90.0,0.0,0.0
1375,65.0,0.0,90.0,0.0,0.0
1376,77.0,96.0,90.0,0.0,0.0
1377,60.0,96.0,180.0,0.0,0.0
1378,44.0,0.0,180.0,0.0,0.0
1379,67.0,0.0,90.0,0.0,0.0
1380,79.0,96.0,90.0,0.0,0.0
1381,80.0,0.0,90.0,0.0,0.0
1382,68.0,0.0,90.0,0.0,0.0
1383,79.0,96.0,90.0,0.0,0.0
1384,46.0,0.0,180.0,0.0,0.0
1385,56.0,96.0,180.0,0.0,0.0
1386,62.0,0.0,180.0,0.0,0.0
1387,67.0,0.0,90.0,0.0,0.0
1388,65.0,0.0,90.0,0.0,0.0
1389,77.0,0.0,90.0,0.0,0.0
1390,75.0,0.0,90.0,0.0,0.0
1391,63.0,96.0,90.0,0.0,0.0
1392,58.0,0.0,390.0,0.0,0.0
1393,77.0,0.0,90.0,0.0,0.0
1394,65.0,96.0,90.0,0.0,0.0
1395,51.0,0.0,180.0,0.0,0.0
1396,67.0,0.0,90.0,0.0,0.0
1397,79.0,96.0,90.0,0.0,0.0
1398,63.0,96.0,90.0,0.0,0.0
1399,75.0,0.0,90.0,0.0,0.0
1400,79.0,96.0,90.0,0.0,0.0
1401,67.0,0.0,90.0,0.0,0.0
1402,80.0,0.0,90.0,0.0,0.0
1403,68.0,96.0,90.0,0.0,0.0
1404,63.0,0.0,390.0,0.0,0.0
1405,55.0,0.0,180.0,0.0,0.0
1406,81.0,96.0,90.0,0.0,0.0
1407,69.0,0.0,90.0,0.0,0.0
1408,82.0,0.0,90.0,0.0,0.0
1409,70.0,96.0,90.0,0.0,0.0
1410,74.0,96.0,90.0,0.0,0.0
1411,86.0,0.0,90.0,0.0,0.0
1412,56.0,96.0,180.0,0.0,0.0
1413,65.0,0.0,180.0,0.0,0.0
1414,72.0,0.0,90.0,0.0,0.0
1415,84.0,0.0,90.0,0.0,0.0
1416,70.0,96.0,90.0,0.0,0.0
1417,82.0,0.0,90.0,0.0,0.0
1418,80.0,0.0,90.0,0.0,0.0
1419,68.0,96.0,90.0,0.0,0.0
1420,79.0,96.0,90.0,0.0,0.0
1421,67.0,0.0,90.0,0.0,0.0
1422,62.0,96.0,180.0,0.0,0.0
1423,56.0,0.0,180.0,0.0,0.0
1424,46.0,0.0,180.0,0.0,0.0
1425,65.0,0.0,90.0,0.0,0.0
1426,77.0,0.0,90.0,0.0,0.0
1427,79.0,96.0,90.0,0.0,0.0
1428,67.0,0.0,90.0,0.0,0.0
1429,51.0,0.0,180.0,0.0,0.0
1430,55.0,0.0,180.0,0.0,0.0
1431,75.0,0.0,90.0,0.0,0.0
1432,77.0,96.0,90.0,0.0,0.0
1433,65.0,0.0,90.0,0.0,0.0
1434,63.0,96.0,15.0,0.0,0.0
1435,48.0,0.0,180.0,0.0,0.0
1436,57.0,0.0,180.0,0.0,0.0
1437,79.0,96.0,90.0,0.0,0.0
1438,67.0,0.0,90.0,0.0,0.0
1439,65.0,96.0,90.0,0.0,0.0
1440,77.0,0.0,90.0,0.0,0.0
1441,41.0,96.0,180.0,0.0,0.0
1442,72.0,0.0,90.0,0.0,0.0
1443,84.0,0.0,90.0,0.0,0.0
1444,87.0,96.0,90.0,0.0,0.0
1445,75.0,0.0,90.0,0.0,0.0
1446,63.0,0.0,180.0,0.0,0.0
1447,69.0,0.0,180.0,0.0,0.0
1448,79.0,0.0,90.0,0.0,0.0
1449,91.0,96.0,90.0,0.0,0.0
1450,58.0,0.0,180.0,0.0,0.0
1451,62.0,0.0,180.0,0.0,0.0
1452,70.0,96.0,180.0,0.0,0.0
1453,77.0,96.0,90.0,0.0,0.0
1454,89.0,0.0,90.0,0.0,0.0
1455,79.0,0.0,90.0,0.0,0.0
1456,91.0,0.0,90.0,0.0,0.0
1457,89.0,96.0,90.0,0.0,0.0
1458,77.0,0.0,90.0,0.0,0.0
1459,50.0,0.0,180.0,0.0,0.0
1460,65.0,0.0,180.0,0.0,0.0
1461,74.0,0.0,90.0,0.0,0.0
1462,86.0,0.0,90.0,0.0,0.0
1463,72.0,0.0,90.0,0.0,0.0
1464,51.0,0.0,180.0,0.0,0.0
1465,58.0,96.0,15.0,0.0,0.0
1466,67.0,0.0,180.0,0.0,0.0
1467,84.0,96.0,90.0,0.0,0.0
1468,74.0,0.0,90.0,0.0,0.0
1469,86.0,0.0,90.0,0.0,0.0
1470,72.0,96.0,90.0,0.0,0.0
1471,84.0,0.0,90.0,0.0,0.0
1472,82.0,96.0,90.0,0.0,0.0
1473,70.0,0.0,90.0,0.0,0.0
1474,67.0,96.0,90.0,0.0,0.0
1475,63.0,0.0,180.0,0.0,0.0
1476,79.0,0.0,90.0,0.0,0.0
1477,70.0,0.0,90.0,0.0,0.0
1478,82.0,96.0,90.0,0.0,0.0
1479,62.0,0.0,180.0,0.0,0.0
1480,79.0,0.0,90.0,0.0,0.0
1481,67.0,96.0,90.0,0.0,0.0
1482,65.0,0.0,90.0,0.0,0.0
1483,77.0,0.0,90.0,0.0,0.0
1484,60.0,0.0,180.0,0.0,0.0
1485,57.0,192.0,180.0,0.0,0.0
1486,53.0,192.0,15.0,0.0,0.0
1487,72.0,0.0,180.0,0.0,0.0
1488,74.0,0.0,390.0,0.0,0.0
1489,62.0,96.0,390.0,0.0,0.0
1490,46.0,0.0,390.0,0.0,0.0
1491,53.0,0.0,390.0,0.0,0.0
1492,70.0,192.0,180.0,0.0,0.0
1493,68.0,0.0,180.0,0.0,0.0
1494,58.0,0.0,390.0,0.0,0.0
1495,67.0,0.0,90.0,0.0,0.0
1496,70.0,96.0,90.0,0.0,0.0
1497,51.0,0.0,180.0,0.0,0.0
1498,62.0,0.0,90.0,0.0,0.0
1499,74.0,96.0,90.0,0.0,0.0
1500,75.0,0.0,90.0,0.0,0.0
1501,63.0,96.0,90.0,0.0,0.0
1502,77.0,96.0,90.0,0.0,0.0
1503,65.0,0.0,90.0,0.0,0.0
1504,67.0,24.0,90.0,0.0,0.0
1505,79.0,0.0,90.0,0.0,0.0
1506,44.0,0.0,180.0,0.0,0.0
1507,60.0,0.0,180.0,0.0,0.0
1508,82.0,0.0,20.0,0.0,0.0
1509,70.0,72.0,20.0,0.0,0.0
1510,80.0,0.0,60.0,0.0,0.0
1511,68.0,96.0,60.0,0.0,0.0
1512,62.0,0.0,180.0,0.0,0.0
1513,46.0,0.0,180.0,0.0,0.0
1514,56.0,96.0,180.0,0.0,0.0
1515,79.0,0.0,90.0,0.0,0.0
1516,67.0,96.0,90.0,0.0,0.0
1517,77.0,0.0,90.0,0.0,0.0
1518,65.0,0.0,90.0,0.0,0.0
1519,63.0,0.0,90.0,0.0,0.0
1520,58.0,0.0,390.0,0.0,0.0
1521,75.0,96.0,90.0,0.0,0.0
1522,65.0,0.0,90.0,0.0,0.0
1523,77.0,96.0,90.0,0.0,0.0
1524,51.0,0.0,180.0,0.0,0.0
1525,79.0,0.0,90.0,0.0,0.0
1526,67.0,96.0,90.0,0.0,0.0
1527,75.0,96.0,90.0,0.0,0.0
1528,63.0,0.0,90.0,0.0,0.0
1529,67.0,0.0,90.0,0.0,0.0
1530,79.0,96.0,90.0,0.0,0.0
1531,68.0,0.0,90.0,0.0,0.0
1532,80.0,96.0,90.0,0.0,0.0
1533,69.0,0.0,90.0,0.0,0.0
1534,81.0,96.0,90.0,0.0,0.0
1535,55.0,0.0,180.0,0.0,0.0
1536,63.0,0.0,390.0,0.0,0.0
1537,70.0,0.0,90.0,0.0,0.0
1538,82.0,96.0,90.0,0.0,0.0
1539,74.0,96.0,90.0,0.0,0.0
1540,65.0,0.0,180.0,0.0,0.0
1541,56.0,96.0,180.0,0.0,0.0
1542,86.0,0.0,90.0,0.0,0.0
1543,84.0,0.0,90.0,0.0,0.0
1544,72.0,0.0,90.0,0.0,0.0
1545,70.0,96.0,90.0,0.0,0.0
1546,82.0,0.0,90.0,0.0,0.0
1547,80.0,96.0,90.0,0.0,0.0
1548,68.0,0.0,90.0,0.0,0.0
1549,67.0,96.0,90.0,0.0,0.0
1550,79.0,0.0,90.0,0.0,0.0
1551,46.0,96.0,180.0,0.0,0.0
1552,56.0,0.0,180.0,0.0,0.0
1553,62.0,0.0,180.0,0.0,0.0
1554,65.0,0.0,90.0,0.0,0.0
1555,77.0,0.0,90.0,0.0,0.0
1556,63.0,0.0,180.0,0.0,0.0
1557,79.0,96.0,90.0,0.0,0.0
1558,67.0,0.0,90.0,0.0,0.0
1559,55.0,96.0,180.0,0.0,0.0
1560,51.0,0.0,180.0,0.0,0.0
1561,75.0,0.0,90.0,0.0,0.0
1562,58.0,96.0,180.0,0.0,0.0
1563,52.0,0.0,390.0,0.0,0.0
1564,78.0,0.0,90.0,0.0,0.0
1565,66.0,96.0,90.0,0.0,0.0
1566,61.0,0.0,180.0,0.0,0.0
1567,67.0,0.0,90.0,0.0,0.0
1568,79.0,0.0,90.0,0.0,0.0
1569,68.0,0.0,90.0,0.0,0.0
1570,60.0,96.0,180.0,0.0,0.0
1571,80.0,96.0,90.0,0.0,0.0
1572,67.0,0.0,90.0,0.0,0.0
1573,79.0,0.0,90.0,0.0,0.0
1574,70.0,0.0,90.0,0.0,0.0
1575,82.0,96.0,90.0,0.0,0.0
1576,53.0,96.0,180.0,0.0,0.0
1577,68.0,0.0,90.0,0.0,0.0
1578,80.0,0.0,90.0,0.0,0.0
1579,61.0,0.0,180.0,0.0,0.0
1580,69.0,0.0,90.0,0.0,0.0
1581,64.0,0.0,180.0,0.0,0.0
1582,81.0,96.0,90.0,0.0,0.0
1583,55.0,0.0,390.0,0.0,0.0
1584,82.0,96.0,90.0,0.0,0.0
1585,70.0,0.0,90.0,0.0,0.0
1586,63.0,0.0,180.0,0.0,0.0
1587,72.0,0.0,90.0,0.0,0.0
1588,84.0,96.0,90.0,0.0,0.0
1589,70.0,96.0,90.0,0.0,0.0
1590,82.0,0.0,90.0,0.0,0.0
1591,73.0,0.0,90.0,0.0,0.0
1592,85.0,96.0,90.0,0.0,0.0
1593,56.0,0.0,180.0,0.0,0.0
1594,72.0,96.0,90.0,0.0,0.0
1595,84.0,0.0,90.0,0.0,0.0
1596,83.0,96.0,90.0,0.0,0.0
1597,71.0,0.0,90.0,0.0,0.0
1598,66.0,0.0,180.0,0.0,0.0
1599,57.0,0.0,1110.0,0.0,0.0
1600,63.0,0.0,180.0,0.0,0.0
1601,72.0,96.0,90.0,0.0,0.0
1602,84.0,0.0,90.0,0.0,0.0
1603,65.0,96.0,90.0,0.0,0.0
1604,74.0,0.0,90.0,0.0,0.0
1605,86.0,0.0,90.0,0.0,0.0
1606,72.0,144.0,90.0,0.0,0.0
1607,84.0,0.0,90.0,0.0,0.0
1608,63.0,0.0,90.0,0.0,0.0
1609,87.0,48.0,150.0,0.0,0.0
1610,75.0,0.0,150.0,0.0,0.0
1611,66.0,0.0,150.0,0.0,0.0
1612,86.0,0.0,15.0,0.0,0.0
1613,74.0,0.0,15.0,0.0,0.0
1614,65.0,96.0,15.0,0.0,0.0
1615,63.0,0.0,90.0,0.0,0.0
1616,84.0,0.0,90.0,0.0,0.0
1617,72.0,96.0,90.0,0.0,0.0
1618,83.0,0.0,90.0,0.0,0.0
1619,71.0,96.0,90.0,0.0,0.0
1620,62.0,0.0,90.0,0.0,0.0
1621,72.0,0.0,90.0,0.0,0.0
1622,84.0,0.0,90.0,0.0,0.0
1623,63.0,144.0,90.0,0.0,0.0
1624,75.0,0.0,150.0,0.0,0.0
1625,87.0,0.0,150.0,0.0,0.0
1626,66.0,144.0,150.0,0.0,0.0
1627,79.0,96.0,90.0,0.0,0.0
1628,71.0,0.0,180.0,0.0,0.0
1629,91.0,0.0,90.0,0.0,0.0
1630,68.0,96.0,180.0,0.0,0.0
1631,89.0,0.0,90.0,0.0,0.0
1632,77.0,0.0,90.0,0.0,0.0
1633,70.0,0.0,90.0,0.0,0.0
1634,67.0,0.0,90.0,0.0,0.0
1635,75.0,0.0,90.0,0.0,0.0
1636,87.0,96.0,90.0,0.0,0.0
1637,74.0,96.0,90.0,0.0,0.0
1638,66.0,0.0,90.0,0.0,0.0
1639,69.0,0.0,90.0,0.0,0.0
1640,86.0,0.0,90.0,0.0,0.0
1641,70.0,96.0,90.0,0.0,0.0
1642,87.0,0.0,90.0,0.0,0.0
1643,75.0,0.0,90.0,0.0,0.0
1644,67.0,0.0,90.0,0.0,0.0
1645,72.0,0.0,90.0,0.0,0.0
1646,84.0,96.0,90.0,0.0,0.0
1647,63.0,0.0,90.0,0.0,0.0
1648,66.0,0.0,90.0,0.0,0.0
1649,74.0,0.0,90.0,0.0,0.0
1650,68.0,96.0,180.0,0.0,0.0
1651,65.0,0.0,180.0,0.0,0.0
1652,86.0,96.0,90.0,0.0,0.0
1653,72.0,0.0,90.0,0.0,0.0
1654,84.0,0.0,90.0,0.0,0.0
1655,82.0,0.0,90.0,0.0,0.0
1656,70.0,0.0,90.0,0.0,0.0
1657,62.0,0.0,90.0,0.0,0.0
1658,65.0,96.0,90.0,0.0,0.0
1659,61.0,0.0,90.0,0.0,0.0
1660,69.0,0.0,90.0,0.0,0.0
1661,64.0,96.0,90.0,0.0,0.0
1662,81.0,0.0,90.0,0.0,0.0
1663,82.0,0.0,90.0,0.0,0.0
1664,62.0,0.0,90.0,0.0,0.0
1665,65.0,0.0,90.0,0.0,0.0
1666,70.0,96.0,90.0,0.0,0.0
1667,61.0,0.0,90.0,0.0,0.0
1668,58.0,0.0,90.0,0.0,0.0
1669,79.0,96.0,90.0,0.0,0.0
1670,52.0,0.0,180.0,0.0,0.0
1671,60.0,0.0,390.0,0.0,0.0
1672,67.0,0.0,15.0,0.0,0.0
1673,84.0,96.0,90.0,0.0,0.0
1674,72.0,0.0,90.0,0.0,0.0
1675,70.0,96.0,90.0,0.0,0.0
1676,82.0,0.0,90.0,0.0,0.0
1677,65.0,96.0,180.0,0.0,0.0
1678,53.0,0.0,180.0,0.0,0.0
1679,80.0,0.0,90.0,0.0,0.0
1680,68.0,96.0,90.0,0.0,0.0
1681,67.0,0.0,90.0,0.0,0.0
1682,79.0,0.0,90.0,0.0,0.0
1683,59.0,192.0,180.0,0.0,0.0
1684,56.0,0.0,180.0,0.0,0.0
1685,68.0,0.0,90.0,0.0,0.0
1686,80.0,96.0,90.0,0.0,0.0
1687,77.0,0.0,90.0,0.0,0.0
1688,65.0,0.0,90.0,0.0,0.0
1689,46.0,96.0,180.0,0.0,0.0
1690,68.0,0.0,180.0,0.0,0.0
1691,74.0,0.0,180.0,0.0,0.0
1692,58.0,0.0,960.0,0.0,0.0
1693,62.0,0.0,180.0,0.0,0.0
1694,67.0,0.0,90.0,0.0,0.0
1695,63.0,0.0,90.0,0.0,0.0
1696,51.0,288.0,90.0,0.0,0.0
1697,75.0,0.0,90.0,0.0,0.0
1698,76.0,24.0,180.0,0.0,0.0
1699,64.0,0.0,180.0,0.0,0.0
1700,77.0,24.0,20.0,0.0,0.0
1701,49.0,0.0,390.0,0.0,0.0
1702,79.0,144.0,20.0,0.0,0.0
1703,65.0,96.0,150.0,0.0,0.0
1704,77.0,0.0,150.0,0.0,0.0
1705,64.0,0.0,90.0,0.0,0.0
1706,76.0,96.0,90.0,0.0,0.0
1707,77.0,96.0,90.0,0.0,0.0
1708,65.0,0.0,90.0,0.0,0.0
1709,46.0,0.0,180.0,0.0,0.0
1710,61.0,96.0,300.0,0.0,0.0
1711,80.0,96.0,90.0,0.0,0.0
1712,73.0,0.0,300.0,0.0,0.0
1713,68.0,0.0,90.0,0.0,0.0
1714,79.0,96.0,90.0,0.0,0.0
1715,67.0,0.0,90.0,0.0,0.0
1716,48.0,0.0,390.0,0.0,0.0
1717,65.0,0.0,90.0,0.0,0.0
1718,77.0,0.0,90.0,0.0,0.0
1719,76.0,0.0,90.0,0.0,0.0
1720,72.0,96.0,90.0,0.0,0.0
1721,64.0,0.0,90.0,0.0,0.0
1722,60.0,0.0,90.0,0.0,0.0
1723,74.0,0.0,90.0,0.0,0.0
1724,62.0,96.0,90.0,0.0,0.0
1725,59.0,0.0,90.0,0.0,0.0
1726,58.0,96.0,90.0,0.0,0.0
1727,76.0,0.0,90.0,0.0,0.0
1728,64.0,0.0,90.0,0.0,0.0
1729,77.0,96.0,90.0,0.0,0.0
1730,65.0,0.0,90.0,0.0,0.0
1731,53.0,0.0,180.0,0.0,0.0
1732,56.0,0.0,180.0,0.0,0.0
1733,67.0,0.0,90.0,0.0,0.0
1734,79.0,96.0,90.0,0.0,0.0
1735,52.0,96.0,180.0,0.0,0.0
1736,61.0,0.0,390.0,0.0,0.0
1737,68.0,0.0,90.0,0.0,0.0
1738,80.0,96.0,90.0,0.0,0.0
1739,70.0,0.0,90.0,0.0,0.0
1740,82.0,0.0,90.0,0.0,0.0
1741,49.0,0.0,390.0,0.0,0.0
1742,67.0,0.0,90.0,0.0,0.0
1743,79.0,96.0,90.0,0.0,0.0
1744,68.0,96.0,90.0,0.0,0.0
1745,80.0,0.0,90.0,0.0,0.0
1746,64.0,96.0,300.0,0.0,0.0
1747,76.0,0.0,300.0,0.0,0.0
1748,72.0,0.0,90.0,0.0,0.0
1749,84.0,96.0,90.0,0.0,0.0
1750,70.0,96.0,90.0,0.0,0.0
1751,82.0,0.0,90.0,0.0,0.0
1752,51.0,0.0,390.0,0.0,0.0
1753,80.0,0.0,90.0,0.0,0.0
1754,68.0,0.0,90.0,0.0,0.0
1755,67.0,96.0,90.0,0.0,0.0
1756,75.0,0.0,90.0,0.0,0.0
1757,79.0,0.0,90.0,0.0,0.0
1758,63.0,0.0,90.0,0.0,0.0
1759,77.0,96.0,90.0,0.0,0.0
1760,62.0,0.0,90.0,0.0,0.0
1761,65.0,0.0,90.0,0.0,0.0
1762,79.0,0.0,90.0,0.0,0.0
1763,67.0,96.0,90.0,0.0,0.0
1764,61.0,0.0,90.0,0.0,0.0
1765,68.0,96.0,90.0,0.0,0.0
1766,80.0,0.0,90.0,0.0,0.0
1767,56.0,0.0,180.0,0.0,0.0
1768,60.0,0.0,90.0,0.0,0.0
1769,61.0,96.0,90.0,0.0,0.0
1770,70.0,0.0,90.0,0.0,0.0
1771,82.0,0.0,90.0,0.0,0.0
1772,84.0,96.0,90.0,0.0,0.0
1773,78.0,0.0,390.0,0.0,0.0
1774,72.0,0.0,90.0,0.0,0.0
1775,56.0,96.0,390.0,0.0,0.0
1776,63.0,0.0,90.0,0.0,0.0
1777,71.0,0.0,90.0,0.0,0.0
1778,83.0,0.0,90.0,0.0,0.0
1779,62.0,96.0,90.0,0.0,0.0
1780,74.0,0.0,90.0,0.0,0.0
1781,86.0,96.0,90.0,0.0,0.0
1782,65.0,0.0,90.0,0.0,0.0
1783,63.0,96.0,180.0,0.0,0.0
1784,72.0,0.0,90.0,0.0,0.0
1785,84.0,0.0,90.0,0.0,0.0
1786,72.0,0.0,90.0,0.0,0.0
1787,79.0,0.0,180.0,0.0,0.0
1788,84.0,0.0,90.0,0.0,0.0
1789,83.0,0.0,90.0,0.0,0.0
1790,62.0,0.0,90.0,0.0,0.0
1791,67.0,96.0,90.0,0.0,0.0
1792,83.0,0.0,90.0,0.0,0.0
1793,77.0,0.0,390.0,0.0,0.0
1794,71.0,96.0,15.0,0.0,0.0
1795,82.0,96.0,90.0,0.0,0.0
1796,70.0,0.0,90.0,0.0,0.0
1797,61.0,0.0,90.0,0.0,0.0
1798,64.0,0.0,90.0,0.0,0.0
1799,55.0,0.0,15.0,0.0,0.0
1800,73.0,0.0,90.0,0.0,0.0
1801,85.0,96.0,90.0,0.0,0.0
1802,62.0,96.0,180.0,0.0,0.0
1803,83.0,96.0,15.0,0.0,0.0
1804,71.0,0.0,15.0,0.0,0.0
1805,78.0,0.0,180.0,0.0,0.0
1806,54.0,0.0,180.0,0.0,0.0
1807,61.0,0.0,90.0,0.0,0.0
1808,70.0,0.0,90.0,0.0,0.0
1809,70.0,0.0,90.0,0.0,0.0
1810,76.0,0.0,180.0,0.0,0.0
1811,82.0,96.0,15.0,0.0,0.0
1812,54.0,0.0,480.0,0.0,0.0
1813,66.0,96.0,90.0,0.0,0.0
1814,60.0,0.0,90.0,0.0,0.0
1815,60.0,0.0,90.0,0.0,0.0
1816,69.0,0.0,15.0,0.0,0.0
1817,81.0,96.0,15.0,0.0,0.0
1818,76.0,96.0,90.0,0.0,0.0
1819,75.0,0.0,90.0,0.0,0.0
1820,81.0,0.0,15.0,0.0,0.0
1821,59.0,96.0,15.0,0.0,0.0
1822,69.0,96.0,90.0,0.0,0.0
1823,53.0,0.0,180.0,0.0,0.0
1824,68.0,0.0,90.0,0.0,0.0
1825,80.0,0.0,15.0,0.0,0.0
1826,75.0,0.0,15.0,0.0,0.0
1827,68.0,0.0,180.0,0.0,0.0
1828,59.0,0.0,180.0,0.0,0.0
1829,74.0,0.0,90.0,0.0,0.0
1830,58.0,0.0,780.0,0.0,0.0
1831,68.0,96.0,90.0,0.0,0.0
1832,74.0,0.0,180.0,0.0,0.0
1833,80.0,0.0,90.0,0.0,0.0
1834,79.0,24.0,90.0,0.0,0.0
1835,67.0,0.0,90.0,0.0,0.0
1836,80.0,72.0,20.0,0.0,0.0
1837,46.0,0.0,180.0,0.0,0.0
1838,67.0,96.0,60.0,0.0,0.0
1839,74.0,0.0,180.0,0.0,0.0
1840,79.0,0.0,60.0,0.0,0.0
1841,66.0,96.0,90.0,0.0,0.0
1842,78.0,0.0,90.0,0.0,0.0
1843,67.0,0.0,90.0,0.0,0.0
1844,75.0,0.0,180.0,0.0,0.0
1845,79.0,96.0,90.0,0.0,0.0
1846,51.0,96.0,390.0,0.0,0.0
1847,68.0,0.0,90.0,0.0,0.0
1848,80.0,96.0,90.0,0.0,0.0
1849,74.0,0.0,180.0,0.0,0.0
1850,79.0,96.0,90.0,0.0,0.0
1851,67.0,0.0,90.0,0.0,0.0
1852,77.0,0.0,90.0,0.0,0.0
1853,65.0,0.0,90.0,0.0,0.0
1854,60.0,96.0,180.0,0.0,0.0
1855,44.0,0.0,180.0,0.0,0.0
1856,67.0,0.0,90.0,0.0,0.0
1857,79.0,96.0,90.0,0.0,0.0
1858,68.0,0.0,90.0,0.0,0.0
1859,80.0,0.0,90.0,0.0,0.0
1860,67.0,0.0,90.0,0.0,0.0
1861,72.0,0.0,15.0,0.0,0.0
1862,79.0,96.0,90.0,0.0,0.0
1863,46.0,0.0,180.0,0.0,0.0
1864,56.0,96.0,180.0,0.0,0.0
1865,62.0,0.0,180.0,0.0,0.0
1866,65.0,0.0,90.0,0.0,0.0
1867,77.0,0.0,90.0,0.0,0.0
1868,75.0,0.0,90.0,0.0,0.0
1869,58.0,0.0,390.0,0.0,0.0
1870,63.0,0.0,90.0,0.0,0.0
1871,65.0,0.0,90.0,0.0,0.0
1872,77.0,96.0,90.0,0.0,0.0
1873,70.0,0.0,90.0,0.0,0.0
1874,79.0,96.0,90.0,0.0,0.0
1875,51.0,0.0,180.0,0.0,0.0
1876,63.0,0.0,90.0,0.0,0.0
1877,75.0,0.0,90.0,0.0,0.0
1878,67.0,96.0,15.0,0.0,0.0
1879,79.0,0.0,90.0,0.0,0.0
1880,68.0,0.0,90.0,0.0,0.0
1881,80.0,96.0,90.0,0.0,0.0
1882,69.0,96.0,90.0,0.0,0.0
1883,81.0,0.0,90.0,0.0,0.0
1884,63.0,0.0,390.0,0.0,0.0
1885,55.0,96.0,180.0,0.0,0.0
1886,82.0,0.0,90.0,0.0,0.0
1887,70.0,0.0,90.0,0.0,0.0
1888,86.0,0.0,90.0,0.0,0.0
1889,65.0,0.0,180.0,0.0,0.0
1890,56.0,0.0,180.0,0.0,0.0
1891,74.0,96.0,90.0,0.0,0.0
1892,72.0,0.0,90.0,0.0,0.0
1893,84.0,96.0,90.0,0.0,0.0
1894,82.0,96.0,90.0,0.0,0.0
1895,70.0,0.0,90.0,0.0,0.0
1896,80.0,0.0,90.0,0.0,0.0
1897,68.0,96.0,90.0,0.0,0.0
1898,79.0,0.0,90.0,0.0,0.0
1899,46.0,0.0,180.0,0.0,0.0
1900,56.0,0.0,180.0,0.0,0.0
1901,62.0,96.0,180.0,0.0,0.0
1902,67.0,96.0,90.0,0.0,0.0
1903,77.0,0.0,90.0,0.0,0.0
1904,65.0,0.0,90.0,0.0,0.0
1905,79.0,96.0,90.0,0.0,0.0
1906,67.0,0.0,90.0,0.0,0.0
1907,55.0,0.0,180.0,0.0,0.0
1908,51.0,0.0,180.0,0.0,0.0
1909,63.0,0.0,90.0,0.0,0.0
1910,75.0,96.0,90.0,0.0,0.0
1911,52.0,0.0,390.0,0.0,0.0
1912,58.0,0.0,180.0,0.0,0.0
1913,66.0,0.0,90.0,0.0,0.0
1914,78.0,96.0,90.0,0.0,0.0
1915,61.0,96.0,180.0,0.0,0.0
1916,67.0,0.0,90.0,0.0,0.0
1917,79.0,0.0,90.0,0.0,0.0
1918,80.0,96.0,90.0,0.0,0.0
1919,60.0,96.0,180.0,0.0,0.0
1920,68.0,0.0,90.0,0.0,0.0
1921,67.0,0.0,90.0,0.0,0.0
1922,79.0,0.0,90.0,0.0,0.0
1923,70.0,0.0,90.0,0.0,0.0
1924,82.0,96.0,90.0,0.0,0.0
1925,53.0,0.0,180.0,0.0,0.0
1926,68.0,96.0,90.0,0.0,0.0
1927,80.0,0.0,90.0,0.0,0.0
1928,69.0,0.0,90.0,0.0,0.0
1929,81.0,96.0,90.0,0.0,0.0
1930,55.0,0.0,390.0,0.0,0.0
1931,64.0,0.0,180.0,0.0,0.0
1932,61.0,0.0,180.0,0.0,0.0
1933,70.0,0.0,90.0,0.0,0.0
1934,82.0,96.0,90.0,0.0,0.0
1935,72.0,0.0,90.0,0.0,0.0
1936,84.0,96.0,90.0,0.0,0.0
1937,63.0,0.0,180.0,0.0,0.0
1938,70.0,0.0,90.0,0.0,0.0
1939,82.0,96.0,90.0,0.0,0.0
1940,56.0,0.0,180.0,0.0,0.0
1941,73.0,96.0,90.0,0.0,0.0
1942,85.0,0.0,90.0,0.0,0.0
1943,84.0,96.0,90.0,0.0,0.0
1944,72.0,0.0,90.0,0.0,0.0
1945,63.0,0.0,180.0,0.0,0.0
1946,66.0,0.0,180.0,0.0,0.0
1947,71.0,96.0,90.0,0.0,0.0
1948,83.0,0.0,90.0,0.0,0.0
1949,57.0,0.0,1110.0,0.0,0.0
1950,84.0,0.0,90.0,0.0,0.0
1951,72.0,96.0,90.0,0.0,0.0
1952,65.0,96.0,90.0,0.0,0.0
1953,86.0,0.0,90.0,0.0,0.0
1954,74.0,0.0,90.0,0.0,0.0
1955,72.0,144.0,90.0,0.0,0.0
1956,84.0,0.0,90.0,0.0,0.0
1957,63.0,0.0,90.0,0.0,0.0
1958,87.0,0.0,150.0,0.0,0.0
1959,75.0,0.0,150.0,0.0,0.0
1960,66.0,48.0,150.0,0.0,0.0
1961,65.0,0.0,40.0,0.0,0.0
1962,65.0,96.0,90.0,0.0,0.0
1963,86.0,96.0,15.0,0.0,0.0
1964,74.0,0.0,15.0,0.0,0.0
1965,72.0,0.0,90.0,0.0,0.0
1966,84.0,96.0,90.0,0.0,0.0
1967,63.0,0.0,90.0,0.0,0.0
1968,62.0,0.0,90.0,0.0,0.0
1969,71.0,0.0,90.0,0.0,0.0
1970,83.0,96.0,90.0,0.0,0.0
1971,72.0,0.0,90.0,0.0,0.0
1972,63.0,144.0,90.0,0.0,0.0
1973,84.0,0.0,90.0,0.0,0.0
1974,75.0,0.0,150.0,0.0,0.0
1975,87.0,144.0,150.0,0.0,0.0
1976,66.0,0.0,150.0,0.0,0.0
1977,91.0,0.0,90.0,0.0,0.0
1978,79.0,96.0,90.0,0.0,0.0
1979,68.0,0.0,180.0,0.0,0.0
1980,71.0,0.0,180.0,0.0,0.0
1981,77.0,96.0,90.0,0.0,0.0
1982,89.0,0.0,90.0,0.0,0.0
1983,87.0,0.0,90.0,0.0,0.0
1984,75.0,0.0,90.0,0.0,0.0
1985,67.0,0.0,90.0,0.0,0.0
1986,70.0,96.0,90.0,0.0,0.0
1987,86.0,0.0,90.0,0.0,0.0
1988,74.0,0.0,90.0,0.0,0.0
1989,69.0,0.0,90.0,0.0,0.0
1990,66.0,96.0,90.0,0.0,0.0
1991,87.0,96.0,90.0,0.0,0.0
1992,75.0,0.0,90.0,0.0,0.0
1993,67.0,0.0,90.0,0.0,0.0
1994,70.0,0.0,90.0,0.0,0.0
1995,72.0,0.0,90.0,0.0,0.0
1996,84.0,0.0,90.0,0.0,0.0
1997,63.0,96.0,90.0,0.0,0.0
1998,66.0,0.0,90.0,0.0,0.0
1999,74.0,96.0,90.0,0.0,0.0
2000,86.0,0.0,90.0,0.0,0.0
2001,68.0,96.0,180.0,0.0,0.0
2002,65.0,0.0,180.0,0.0,0.0
2003,84.0,0.0,90.0,0.0,0.0
2004,72.0,0.0,90.0,0.0,0.0
2005,82.0,0.0,90.0,0.0,0.0
2006,70.0,0.0,90.0,0.0,0.0
2007,62.0,96.0,90.0,0.0,0.0
2008,65.0,0.0,90.0,0.0,0.0
2009,64.0,0.0,90.0,0.0,0.0
2010,61.0,0.0,90.0,0.0,0.0
2011,69.0,96.0,90.0,0.0,0.0
2012,81.0,0.0,90.0,0.0,0.0
2013,70.0,0.0,90.0,0.0,0.0
2014,82.0,96.0,90.0,0.0,0.0
2015,62.0,0.0,90.0,0.0,0.0
2016,65.0,0.0,90.0,0.0,0.0
2017,61.0,0.0,90.0,0.0,0.0
2018,58.0,96.0,90.0,0.0,0.0
2019,79.0,0.0,90.0,0.0,0.0
2020,67.0,0.0,90.0,0.0,0.0
2021,84.0,0.0,90.0,0.0,0.0
2022,52.0,0.0,180.0,0.0,0.0
2023,72.0,96.0,90.0,0.0,0.0
2024,67.0,0.0,180.0,0.0,0.0
2025,60.0,0.0,390.0,0.0,0.0
2026,82.0,96.0,90.0,0.0,0.0
2027,70.0,0.0,90.0,0.0,0.0
2028,65.0,0.0,180.0,0.0,0.0
2029,53.0,0.0,180.0,0.0,0.0
2030,68.0,0.0,90.0,0.0,0.0
2031,80.0,96.0,90.0,0.0,0.0
2032,67.0,96.0,90.0,0.0,0.0
2033,79.0,0.0,90.0,0.0,0.0
2034,59.0,0.0,180.0,0.0,0.0
2035,80.0,96.0,90.0,0.0,0.0
2036,56.0,0.0,180.0,0.0,0.0
2037,68.0,0.0,90.0,0.0,0.0
2038,65.0,0.0,90.0,0.0,0.0
2039,77.0,192.0,90.0,0.0,0.0
2040,58.0,0.0,960.0,0.0,0.0
2041,46.0,0.0,180.0,0.0,0.0
2042,62.0,96.0,180.0,0.0,0.0
2043,74.0,0.0,180.0,0.0,0.0
2044,68.0,0.0,180.0,0.0,0.0
2045,51.0,0.0,90.0,0.0,0.0
2046,63.0,0.0,90.0,0.0,0.0
2047,67.0,0.0,90.0,0.0,0.0
2048,75.0,288.0,90.0,0.0,0.0
2049,64.0,24.0,180.0,0.0,0.0
2050,76.0,0.0,180.0,0.0,0.0
2051,49.0,0.0,390.0,0.0,0.0
2052,77.0,24.0,20.0,0.0,0.0
2053,79.0,144.0,20.0,0.0,0.0
2054,77.0,0.0,150.0,0.0,0.0
2055,65.0,96.0,150.0,0.0,0.0
2056,76.0,96.0,90.0,0.0,0.0
2057,64.0,0.0,90.0,0.0,0.0
2058,65.0,96.0,90.0,0.0,0.0
2059,77.0,0.0,90.0,0.0,0.0
2060,46.0,96.0,180.0,0.0,0.0
2061,61.0,0.0,300.0,0.0,0.0
2062,80.0,96.0,90.0,0.0,0.0
2063,73.0,0.0,300.0,0.0,0.0
2064,68.0,0.0,90.0,0.0,0.0
2065,67.0,0.0,90.0,0.0,0.0
2066,79.0,0.0,90.0,0.0,0.0
2067,65.0,96.0,90.0,0.0,0.0
2068,77.0,0.0,90.0,0.0,0.0
2069,48.0,0.0,390.0,0.0,0.0
2070,60.0,0.0,90.0,0.0,0.0
2071,76.0,0.0,90.0,0.0,0.0
2072,72.0,96.0,90.0,0.0,0.0
2073,64.0,0.0,90.0,0.0,0.0
2074,62.0,0.0,90.0,0.0,0.0
2075,74.0,96.0,90.0,0.0,0.0
2076,59.0,0.0,90.0,0.0,0.0
2077,58.0,0.0,90.0,0.0,0.0
2078,64.0,0.0,90.0,0.0,0.0
2079,76.0,96.0,90.0,0.0,0.0
2080,53.0,96.0,180.0,0.0,0.0
2081,56.0,0.0,180.0,0.0,0.0
2082,77.0,0.0,90.0,0.0,0.0
2083,65.0,96.0,90.0,0.0,0.0
2084,79.0,0.0,90.0,0.0,0.0
2085,67.0,0.0,90.0,0.0,0.0
2086,52.0,0.0,180.0,0.0,0.0
2087,61.0,0.0,390.0,0.0,0.0
2088,80.0,96.0,90.0,0.0,0.0
2089,68.0,0.0,90.0,0.0,0.0
2090,70.0,0.0,90.0,0.0,0.0
2091,82.0,96.0,90.0,0.0,0.0
2092,67.0,96.0,90.0,0.0,0.0
2093,49.0,0.0,390.0,0.0,0.0
2094,79.0,0.0,90.0,0.0,0.0
2095,80.0,96.0,90.0,0.0,0.0
2096,68.0,0.0,90.0,0.0,0.0
2097,64.0,96.0,300.0,0.0,0.0
2098,84.0,0.0,90.0,0.0,0.0
2099,72.0,96.0,90.0,0.0,0.0
2100,76.0,0.0,300.0,0.0,0.0
2101,82.0,0.0,90.0,0.0,0.0
2102,70.0,96.0,90.0,0.0,0.0
2103,51.0,0.0,390.0,0.0,0.0
2104,68.0,0.0,90.0,0.0,0.0
2105,80.0,0.0,90.0,0.0,0.0
2106,79.0,0.0,90.0,0.0,0.0
2107,67.0,96.0,90.0,0.0,0.0
2108,75.0,0.0,90.0,0.0,0.0
2109,63.0,0.0,90.0,0.0,0.0
2110,62.0,0.0,90.0,0.0,0.0
2111,77.0,96.0,90.0,0.0,0.0
2112,65.0,0.0,90.0,0.0,0.0
2113,61.0,0.0,90.0,0.0,0.0
2114,79.0,0.0,90.0,0.0,0.0
2115,67.0,96.0,90.0,0.0,0.0
2116,68.0,96.0,90.0,0.0,0.0
2117,80.0,0.0,90.0,0.0,0.0
2118,60.0,0.0,90.0,0.0,0.0
2119,61.0,0.0,90.0,0.0,0.0
2120,82.0,0.0,90.0,0.0,0.0
2121,70.0,96.0,90.0,0.0,0.0
2122,56.0,0.0,15.0,0.0,0.0
2123,84.0,0.0,90.0,0.0,0.0
2124,78.0,0.0,390.0,0.0,0.0
2125,72.0,96.0,90.0,0.0,0.0
2126,63.0,0.0,90.0,0.0,0.0
2127,62.0,96.0,90.0,0.0,0.0
2128,71.0,0.0,90.0,0.0,0.0
2129,83.0,0.0,90.0,0.0,0.0
2130,86.0,96.0,90.0,0.0,0.0
2131,74.0,0.0,90.0,0.0,0.0
2132,65.0,0.0,90.0,0.0,0.0
2133,63.0,0.0,180.0,0.0,0.0
2134,84.0,96.0,90.0,0.0,0.0
2135,72.0,0.0,15.0,0.0,0.0
2136,79.0,0.0,180.0,0.0,0.0
2137,84.0,96.0,90.0,0.0,0.0
2138,62.0,0.0,90.0,0.0,0.0
2139,71.0,0.0,90.0,0.0,0.0
2140,71.0,0.0,90.0,0.0,0.0
2141,77.0,0.0,390.0,0.0,0.0
2142,83.0,96.0,15.0,0.0,0.0
2143,67.0,96.0,90.0,0.0,0.0
2144,70.0,0.0,90.0,0.0,0.0
2145,82.0,0.0,90.0,0.0,0.0
2146,61.0,0.0,90.0,0.0,0.0
2147,55.0,96.0,15.0,0.0,0.0
2148,64.0,0.0,90.0,0.0,0.0
2149,73.0,0.0,90.0,0.0,0.0
2150,85.0,96.0,90.0,0.0,0.0
2151,62.0,96.0,180.0,0.0,0.0
2152,83.0,0.0,15.0,0.0,0.0
2153,71.0,96.0,15.0,0.0,0.0
2154,78.0,0.0,180.0,0.0,0.0
2155,82.0,0.0,90.0,0.0,0.0
2156,61.0,0.0,90.0,0.0,0.0
2157,70.0,0.0,15.0,0.0,0.0
2158,66.0,96.0,90.0,0.0,0.0
2159,82.0,0.0,90.0,0.0,0.0
2160,54.0,96.0,15.0,0.0,0.0
2161,69.0,0.0,90.0,0.0,0.0
2162,81.0,0.0,90.0,0.0,0.0
2163,76.0,0.0,15.0,0.0,0.0
2164,60.0,96.0,15.0,0.0,0.0
2165,59.0,96.0,15.0,0.0,0.0
2166,81.0,0.0,15.0,0.0,0.0
2167,75.0,0.0,15.0,0.0,0.0
2168,69.0,0.0,15.0,0.0,0.0
2169,53.0,0.0,180.0,0.0,0.0
2170,68.0,0.0,15.0,0.0,0.0
2171,75.0,0.0,15.0,0.0,0.0
2172,80.0,96.0,15.0,0.0,0.0
2173,59.0,0.0,15.0,0.0,0.0
2174,74.0,96.0,90.0,0.0,0.0
2175,58.0,0.0,780.0,0.0,0.0
2176,68.0,0.0,90.0,0.0,0.0
2177,74.0,24.0,180.0,0.0,0.0
2178,80.0,96.0,90.0,0.0,0.0
2179,67.0,0.0,90.0,0.0,0.0
2180,79.0,0.0,90.0,0.0,0.0
2181,80.0,72.0,20.0,0.0,0.0
2182,46.0,0.0,180.0,0.0,0.0
2183,67.0,0.0,60.0,0.0,0.0
2184,74.0,0.0,180.0,0.0,0.0
2185,79.0,96.0,60.0,0.0,0.0
2186,66.0,96.0,90.0,0.0,0.0
2187,78.0,0.0,90.0,0.0,0.0
2188,51.0,0.0,390.0,0.0,0.0
2189,79.0,96.0,90.0,0.0,0.0
2190,67.0,0.0,90.0,0.0,0.0
2191,75.0,96.0,180.0,0.0,0.0
2192,68.0,0.0,90.0,0.0,0.0
2193,80.0,0.0,90.0,0.0,0.0
2194,79.0,0.0,90.0,0.0,0.0
2195,67.0,96.0,90.0,0.0,0.0
2196,74.0,96.0,180.0,0.0,0.0
2197,77.0,0.0,90.0,0.0,0.0
2198,65.0,0.0,90.0,0.0,0.0
2199,60.0,0.0,180.0,0.0,0.0
2200,44.0,0.0,180.0,0.0,0.0
2201,79.0,0.0,90.0,0.0,0.0
2202,67.0,96.0,90.0,0.0,0.0
2203,68.0,0.0,90.0,0.0,0.0
2204,80.0,96.0,90.0,0.0,0.0
2205,62.0,0.0,180.0,0.0,0.0
2206,46.0,0.0,180.0,0.0,0.0
2207,56.0,0.0,180.0,0.0,0.0
2208,72.0,0.0,15.0,0.0,0.0
2209,67.0,0.0,90.0,0.0,0.0
2210,79.0,96.0,90.0,0.0,0.0
2211,65.0,96.0,90.0,0.0,0.0
2212,77.0,0.0,90.0,0.0,0.0
2213,75.0,96.0,90.0,0.0,0.0
2214,58.0,96.0,390.0,0.0,0.0
2215,63.0,0.0,90.0,0.0,0.0
2216,65.0,0.0,90.0,0.0,0.0
2217,70.0,0.0,90.0,0.0,0.0
2218,77.0,96.0,90.0,0.0,0.0
2219,51.0,0.0,180.0,0.0,0.0
2220,67.0,0.0,180.0,0.0,0.0
2221,79.0,96.0,90.0,0.0,0.0
2222,75.0,0.0,90.0,0.0,0.0
2223,79.0,96.0,90.0,0.0,0.0
2224,67.0,0.0,90.0,0.0,0.0
2225,68.0,96.0,90.0,0.0,0.0
2226,80.0,0.0,90.0,0.0,0.0
2227,63.0,96.0,180.0,0.0,0.0
2228,54.0,0.0,90.0,0.0,0.0
2229,81.0,0.0,90.0,0.0,0.0
2230,69.0,96.0,90.0,0.0,0.0
2231,70.0,0.0,90.0,0.0,0.0
2232,82.0,0.0,90.0,0.0,0.0
2233,55.0,0.0,90.0,0.0,0.0
2234,74.0,0.0,90.0,0.0,0.0
2235,86.0,96.0,90.0,0.0,0.0
2236,56.0,0.0,180.0,0.0,0.0
2237,64.0,0.0,90.0,0.0,0.0
2238,65.0,0.0,90.0,0.0,0.0
2239,84.0,0.0,90.0,0.0,0.0
2240,72.0,96.0,90.0,0.0,0.0
2241,82.0,0.0,90.0,0.0,0.0
2242,70.0,96.0,90.0,0.0,0.0
2243,80.0,96.0,90.0,0.0,0.0
2244,68.0,0.0,90.0,0.0,0.0
2245,46.0,0.0,180.0,0.0,0.0
2246,56.0,0.0,180.0,0.0,0.0
2247,62.0,0.0,180.0,0.0,0.0
2248,67.0,0.0,90.0,0.0,0.0
2249,79.0,96.0,90.0,0.0,0.0
2250,77.0,0.0,90.0,0.0,0.0
2251,65.0,96.0,90.0,0.0,0.0
2252,55.0,0.0,180.0,0.0,0.0
2253,51.0,96.0,180.0,0.0,0.0
2254,67.0,96.0,90.0,0.0,0.0
2255,79.0,0.0,90.0,0.0,0.0
2256,63.0,0.0,90.0,0.0,0.0
2257,75.0,0.0,90.0,0.0,0.0
2258,78.0,0.0,90.0,0.0,0.0
2259,61.0,0.0,180.0,0.0,0.0
2260,66.0,96.0,90.0,0.0,0.0
2261,58.0,0.0,180.0,0.0,0.0
2262,79.0,0.0,90.0,0.0,0.0
2263,67.0,96.0,90.0,0.0,0.0
2264,80.0,0.0,90.0,0.0,0.0
2265,68.0,96.0,90.0,0.0,0.0
2266,60.0,0.0,180.0,0.0,0.0
2267,79.0,0.0,90.0,0.0,0.0
2268,67.0,96.0,90.0,0.0,0.0
2269,52.0,0.0,15.0,0.0,0.0
2270,70.0,0.0,90.0,0.0,0.0
2271,82.0,0.0,90.0,0.0,0.0
2272,53.0,0.0,90.0,0.0,0.0
2273,80.0,0.0,90.0,0.0,0.0
2274,68.0,96.0,90.0,0.0,0.0
2275,64.0,0.0,180.0,0.0,0.0
2276,61.0,0.0,180.0,0.0,0.0
2277,54.0,0.0,90.0,0.0,0.0
2278,69.0,96.0,90.0,0.0,0.0
2279,81.0,0.0,90.0,0.0,0.0
2280,55.0,0.0,90.0,0.0,0.0
2281,82.0,0.0,90.0,0.0,0.0
2282,70.0,96.0,90.0,0.0,0.0
2283,72.0,96.0,90.0,0.0,0.0
2284,63.0,0.0,180.0,0.0,0.0
2285,84.0,0.0,90.0,0.0,0.0
2286,82.0,96.0,90.0,0.0,0.0
2287,70.0,0.0,90.0,0.0,0.0
2288,85.0,0.0,90.0,0.0,0.0
2289,55.0,96.0,90.0,0.0,0.0
2290,73.0,0.0,90.0,0.0,0.0
2291,72.0,0.0,90.0,0.0,0.0
2292,84.0,0.0,90.0,0.0,0.0
2293,56.0,96.0,90.0,0.0,0.0
2294,83.0,96.0,90.0,0.0,0.0
2295,71.0,0.0,90.0,0.0,0.0
2296,57.0,144.0,1110.0,0.0,0.0
2297,63.0,0.0,180.0,0.0,0.0
2298,66.0,0.0,180.0,0.0,0.0
2299,72.0,0.0,90.0,0.0,0.0
2300,84.0,96.0,90.0,0.0,0.0
2301,65.0,0.0,90.0,0.0,0.0
2302,86.0,0.0,90.0,0.0,0.0
2303,74.0,96.0,90.0,0.0,0.0
2304,84.0,0.0,90.0,0.0,0.0
2305,63.0,0.0,90.0,0.0,0.0
2306,72.0,144.0,90.0,0.0,0.0
2307,75.0,0.0,150.0,0.0,0.0
2308,87.0,0.0,150.0,0.0,0.0
2309,66.0,48.0,150.0,0.0,0.0
2310,74.0,0.0,40.0,0.0,0.0
2311,86.0,0.0,15.0,0.0,0.0
2312,74.0,0.0,90.0,0.0,0.0
2313,65.0,96.0,15.0,0.0,0.0
2314,72.0,0.0,90.0,0.0,0.0
2315,84.0,96.0,90.0,0.0,0.0
2316,63.0,0.0,90.0,0.0,0.0
2317,62.0,0.0,90.0,0.0,0.0
2318,71.0,96.0,90.0,0.0,0.0
2319,83.0,0.0,90.0,0.0,0.0
2320,84.0,0.0,90.0,0.0,0.0
2321,72.0,0.0,90.0,0.0,0.0
2322,63.0,144.0,90.0,0.0,0.0
2323,75.0,0.0,150.0,0.0,0.0
2324,87.0,0.0,150.0,0.0,0.0
2325,66.0,0.0,150.0,0.0,0.0
2326,71.0,0.0,180.0,0.0,0.0
2327,68.0,0.0,180.0,0.0,0.0
2328,91.0,0.0,90.0,0.0,0.0
2329,79.0,96.0,90.0,0.0,0.0
2330,77.0,96.0,90.0,0.0,0.0
2331,89.0,0.0,90.0,0.0,0.0
2332,67.0,96.0,90.0,0.0,0.0
2333,70.0,0.0,90.0,0.0,0.0
2334,75.0,0.0,90.0,0.0,0.0
2335,87.0,0.0,90.0,0.0,0.0
2336,86.0,0.0,90.0,0.0,0.0
2337,74.0,0.0,90.0,0.0,0.0
2338,69.0,96.0,90.0,0.0,0.0
2339,66.0,0.0,90.0,0.0,0.0
2340,87.0,0.0,90.0,0.0,0.0
2341,75.0,0.0,90.0,0.0,0.0
2342,70.0,0.0,90.0,0.0,0.0
2343,67.0,96.0,90.0,0.0,0.0
2344,72.0,96.0,90.0,0.0,0.0
2345,63.0,0.0,90.0,0.0,0.0
2346,66.0,0.0,90.0,0.0,0.0
2347,84.0,0.0,90.0,0.0,0.0
2348,68.0,0.0,180.0,0.0,0.0
2349,86.0,96.0,90.0,0.0,0.0
2350,74.0,0.0,90.0,0.0,0.0
2351,72.0,0.0,90.0,0.0,0.0
2352,84.0,0.0,90.0,0.0,0.0
2353,65.0,96.0,15.0,0.0,0.0
2354,62.0,0.0,90.0,0.0,0.0
2355,82.0,96.0,90.0,0.0,0.0
2356,70.0,0.0,90.0,0.0,0.0
2357,61.0,96.0,90.0,0.0,0.0
2358,81.0,0.0,90.0,0.0,0.0
2359,69.0,0.0,90.0,0.0,0.0
2360,64.0,0.0,90.0,0.0,0.0
2361,70.0,0.0,90.0,0.0,0.0
2362,82.0,0.0,90.0,0.0,0.0
2363,62.0,96.0,90.0,0.0,0.0
2364,65.0,0.0,90.0,0.0,0.0
2365,67.0,0.0,90.0,0.0,0.0
2366,79.0,0.0,90.0,0.0,0.0
2367,61.0,0.0,90.0,0.0,0.0
2368,58.0,96.0,90.0,0.0,0.0
2369,52.0,0.0,180.0,0.0,0.0
2370,72.0,96.0,90.0,0.0,0.0
2371,67.0,96.0,180.0,0.0,0.0
2372,60.0,0.0,390.0,0.0,0.0
2373,84.0,0.0,90.0,0.0,0.0
2374,70.0,0.0,90.0,0.0,0.0
2375,82.0,0.0,90.0,0.0,0.0
2376,80.0,0.0,90.0,0.0,0.0
2377,68.0,96.0,90.0,0.0,0.0
2378,65.0,0.0,180.0,0.0,0.0
2379,53.0,0.0,180.0,0.0,0.0
2380,79.0,96.0,90.0,0.0,0.0
2381,67.0,0.0,90.0,0.0,0.0
2382,80.0,96.0,90.0,0.0,0.0
2383,59.0,96.0,300.0,0.0,0.0
2384,56.0,94.0,180.0,0.0,0.0
2385,68.0,0.0,90.0,0.0,0.0
2386,65.0,0.0,90.0,0.0,0.0
2387,77.0,0.0,90.0,0.0,0.0
2388,68.0,94.0,2310.0,0.0,0.0
2389,74.0,0.0,1740.0,0.0,0.0
2390,46.0,46.0,5700.0,0.0,0.0
2391,62.0,94.0,1740.0,0.0,0.0
2392,58.0,96.0,90.0,0.0,0.0
2393,56.0,96.0,90.0,0.0,0.0
2394,55.0,96.0,90.0,0.0,0.0
2395,56.0,96.0,90.0,0.0,0.0
2396,53.0,96.0,90.0,0.0,0.0
2397,59.0,96.0,90.0,0.0,0.0
2398,58.0,96.0,90.0,0.0,0.0
2399,56.0,96.0,90.0,0.0,0.0
2400,55.0,96.0,90.0,0.0,0.0
2401,56.0,96.0,90.0,0.0,0.0
2402,53.0,96.0,90.0,0.0,0.0
2403,59.0,96.0,90.0,0.0,0.0
2404,58.0,96.0,90.0,0.0,0.0
2405,56.0,96.0,90.0,0.0,0.0
2406,55.0,96.0,90.0,0.0,0.0
2407,56.0,96.0,90.0,0.0,0.0
2408,53.0,2.0,90.0,0.0,0.0
2409,75.0,0.0,390.0,0.0,0.0
2410,63.0,94.0,390.0,0.0,0.0
2411,59.0,96.0,90.0,0.0,0.0
2412,58.0,96.0,90.0,0.0,0.0
2413,56.0,96.0,90.0,0.0,0.0
2414,55.0,2.0,90.0,0.0,0.0
2415,56.0,96.0,90.0,0.0,0.0
2416,65.0,0.0,180.0,0.0,0.0
2417,77.0,0.0,180.0,0.0,0.0
2418,53.0,2.0,90.0,0.0,0.0
2419,65.0,0.0,480.0,0.0,0.0
2420,74.0,94.0,480.0,0.0,0.0
2421,77.0,0.0,480.0,0.0,0.0
2422,59.0,96.0,90.0,0.0,0.0
2423,58.0,96.0,90.0,0.0,0.0
2424,56.0,96.0,90.0,0.0,0.0
2425,55.0,96.0,90.0,0.0,0.0
2426,56.0,2.0,90.0,0.0,0.0
2427,53.0,2.0,90.0,0.0,0.0
2428,66.0,94.0,90.0,0.0,0.0
2429,75.0,0.0,90.0,0.0,0.0
2430,78.0,0.0,90.0,0.0,0.0
2431,59.0,96.0,90.0,0.0,0.0
2432,65.0,0.0,570.0,0.0,0.0
2433,74.0,0.0,570.0,0.0,0.0
2434,77.0,94.0,570.0,0.0,0.0
2435,58.0,96.0,90.0,0.0,0.0
2436,56.0,96.0,90.0,0.0,0.0
2437,55.0,96.0,90.0,0.0,0.0
2438,56.0,96.0,90.0,0.0,0.0
2439,53.0,2.0,90.0,0.0,0.0
2440,59.0,96.0,90.0,0.0,0.0
2441,62.0,0.0,570.0,0.0,0.0
2442,68.0,0.0,540.0,0.0,0.0
2443,77.0,0.0,510.0,0.0,0.0
2444,58.0,96.0,90.0,0.0,0.0
2445,56.0,96.0,90.0,0.0,0.0
2446,55.0,96.0,90.0,0.0,0.0
2447,56.0,96.0,90.0,0.0,0.0
2448,53.0,2.0,90.0,0.0,0.0
2449,74.0,94.0,15.0,0.0,0.0
2450,59.0,2.0,90.0,0.0,0.0
2451,78.0,0.0,390.0,0.0,0.0
2452,68.0,94.0,90.0,0.0,0.0
2453,58.0,96.0,90.0,0.0,0.0
2454,70.0,94.0,300.0,0.0,0.0
2455,56.0,96.0,90.0,0.0,0.0
2456,55.0,2.0,90.0,0.0,0.0
2457,71.0,0.0,180.0,0.0,0.0
2458,80.0,94.0,180.0,0.0,0.0
2459,56.0,96.0,90.0,0.0,0.0
2460,53.0,2.0,90.0,0.0,0.0
2461,59.0,96.0,90.0,0.0,0.0
2462,65.0,94.0,570.0,0.0,0.0
2463,74.0,0.0,1320.0,0.0,0.0
2464,80.0,96.0,1290.0,0.0,0.0
2465,58.0,96.0,90.0,0.0,0.0
2466,56.0,96.0,90.0,0.0,0.0
2467,55.0,96.0,90.0,0.0,0.0
2468,56.0,96.0,90.0,0.0,0.0
2469,53.0,2.0,90.0,0.0,0.0
2470,89.0,0.0,780.0,0.0,0.0
2471,59.0,96.0,90.0,0.0,0.0
2472,58.0,96.0,90.0,0.0,0.0
2473,56.0,96.0,90.0,0.0,0.0
2474,55.0,96.0,90.0,0.0,0.0
2475,56.0,50.0,90.0,0.0,0.0
2476,53.0,98.0,90.0,0.0,0.0
2477,47.0,96.0,90.0,0.0,0.0
2478,59.0,0.0,90.0,0.0,0.0
2479,46.0,0.0,90.0,0.0,0.0
2480,58.0,0.0,90.0,0.0,0.0
2481,44.0,0.0,90.0,0.0,0.0
2482,56.0,96.0,90.0,0.0,0.0
2483,55.0,96.0,90.0,0.0,0.0
2484,43.0,0.0,90.0,0.0,0.0
2485,44.0,96.0,90.0,0.0,0.0
2486,56.0,0.0,90.0,0.0,0.0
2487,41.0,0.0,90.0,0.0,0.0
2488,53.0,96.0,90.0,0.0,0.0
2489,47.0,0.0,90.0,0.0,0.0
2490,59.0,96.0,90.0,0.0,0.0
2491,46.0,0.0,90.0,0.0,0.0
2492,58.0,96.0,90.0,0.0,0.0
2493,44.0,0.0,90.0,0.0,0.0
2494,56.0,96.0,90.0,0.0,0.0
2495,43.0,96.0,90.0,0.0,0.0
2496,55.0,0.0,90.0,0.0,0.0
2497,44.0,94.0,90.0,0.0,0.0
2498,56.0,0.0,90.0,0.0,0.0
2499,41.0,0.0,90.0,0.0,0.0
2500,53.0,98.0,90.0,0.0,0.0
2501,59.0,96.0,90.0,0.0,0.0
2502,47.0,0.0,90.0,0.0,0.0
2503,71.0,0.0,90.0,0.0,0.0
2504,83.0,0.0,90.0,0.0,0.0
2505,46.0,0.0,90.0,0.0,0.0
2506,58.0,96.0,90.0,0.0,0.0
2507,82.0,0.0,90.0,0.0,0.0
2508,70.0,0.0,90.0,0.0,0.0
2509,68.0,96.0,90.0,0.0,0.0
2510,80.0,0.0,90.0,0.0,0.0
2511,56.0,0.0,90.0,0.0,0.0
2512,44.0,0.0,90.0,0.0,0.0
2513,67.0,0.0,90.0,0.0,0.0
2514,55.0,96.0,90.0,0.0,0.0
2515,43.0,0.0,90.0,0.0,0.0
2516,79.0,0.0,90.0,0.0,0.0
2517,56.0,0.0,90.0,0.0,0.0
2518,80.0,0.0,90.0,0.0,0.0
2519,68.0,0.0,90.0,0.0,0.0
2520,44.0,96.0,90.0,0.0,0.0
2521,65.0,0.0,90.0,0.0,0.0
2522,77.0,96.0,90.0,0.0,0.0
2523,53.0,0.0,90.0,0.0,0.0
2524,41.0,0.0,90.0,0.0,0.0
2525,71.0,0.0,90.0,0.0,0.0
2526,47.0,0.0,90.0,0.0,0.0
2527,59.0,0.0,90.0,0.0,0.0
2528,83.0,96.0,90.0,0.0,0.0
2529,70.0,0.0,90.0,0.0,0.0
2530,82.0,0.0,90.0,0.0,0.0
2531,58.0,0.0,90.0,0.0,0.0
2532,46.0,96.0,90.0,0.0,0.0
2533,68.0,96.0,90.0,0.0,0.0
2534,80.0,0.0,90.0,0.0,0.0
2535,56.0,0.0,90.0,0.0,0.0
2536,44.0,0.0,90.0,0.0,0.0
2537,79.0,0.0,90.0,0.0,0.0
2538,67.0,0.0,90.0,0.0,0.0
2539,43.0,0.0,90.0,0.0,0.0
2540,55.0,96.0,90.0,0.0,0.0
2541,68.0,0.0,90.0,0.0,0.0
2542,44.0,94.0,90.0,0.0,0.0
2543,56.0,0.0,90.0,0.0,0.0
2544,80.0,0.0,90.0,0.0,0.0
2545,65.0,0.0,90.0,0.0,0.0
2546,77.0,64.0,90.0,0.0,0.0
2547,41.0,2.0,90.0,0.0,0.0
2548,53.0,0.0,90.0,0.0,0.0
2549,47.0,0.0,60.0,0.0,0.0
2550,83.0,0.0,60.0,0.0,0.0
2551,71.0,0.0,60.0,0.0,0.0
2552,59.0,64.0,60.0,0.0,0.0
2553,82.0,64.0,60.0,0.0,0.0
2554,46.0,0.0,60.0,0.0,0.0
2555,58.0,0.0,60.0,0.0,0.0
2556,70.0,0.0,60.0,0.0,0.0
2557,56.0,0.0,60.0,0.0,0.0
2558,80.0,0.0,60.0,0.0,0.0
2559,68.0,0.0,60.0,0.0,0.0
2560,44.0,64.0,60.0,0.0,0.0
2561,79.0,0.0,60.0,0.0,0.0
2562,67.0,64.0,60.0,0.0,0.0
2563,55.0,0.0,60.0,0.0,0.0
2564,43.0,0.0,60.0,0.0,0.0
2565,44.0,62.0,60.0,0.0,0.0
2566,56.0,0.0,60.0,0.0,0.0
2567,68.0,0.0,60.0,0.0,0.0
2568,80.0,0.0,60.0,0.0,0.0
2569,77.0,0.0,60.0,0.0,0.0
2570,53.0,0.0,60.0,0.0,0.0
2571,41.0,2.0,60.0,0.0,0.0
2572,65.0,64.0,60.0,0.0,0.0
2573,84.0,0.0,60.0,0.0,0.0
2574,72.0,0.0,60.0,0.0,0.0
2575,60.0,0.0,60.0,0.0,0.0
2576,48.0,64.0,60.0,0.0,0.0
2577,58.0,0.0,60.0,0.0,0.0
2578,82.0,0.0,60.0,0.0,0.0
2579,46.0,0.0,60.0,0.0,0.0
2580,70.0,64.0,60.0,0.0,0.0
2581,80.0,0.0,60.0,0.0,0.0
2582,56.0,0.0,60.0,0.0,0.0
2583,68.0,0.0,60.0,0.0,0.0
2584,44.0,64.0,60.0,0.0,0.0
2585,79.0,0.0,60.0,0.0,0.0
2586,67.0,64.0,60.0,0.0,0.0
2587,55.0,0.0,60.0,0.0,0.0
2588,43.0,0.0,60.0,0.0,0.0
2589,44.0,0.0,60.0,0.0,0.0
2590,56.0,0.0,60.0,0.0,0.0
2591,68.0,0.0,60.0,0.0,0.0
2592,80.0,62.0,60.0,0.0,0.0
2593,77.0,0.0,60.0,0.0,0.0
2594,65.0,64.0,60.0,0.0,0.0
2595,53.0,2.0,60.0,0.0,0.0
2596,41.0,0.0,60.0,0.0,0.0
2597,49.0,64.0,60.0,0.0,0.0
2598,85.0,0.0,60.0,0.0,0.0
2599,73.0,0.0,60.0,0.0,0.0
2600,61.0,0.0,60.0,0.0,0.0
2601,84.0,0.0,60.0,0.0,0.0
2602,72.0,64.0,60.0,0.0,0.0
2603,60.0,0.0,60.0,0.0,0.0
2604,48.0,0.0,60.0,0.0,0.0
2605,71.0,0.0,60.0,0.0,0.0
2606,83.0,0.0,60.0,0.0,0.0
2607,47.0,64.0,60.0,0.0,0.0
2608,59.0,0.0,60.0,0.0,0.0
2609,70.0,0.0,60.0,0.0,0.0
2610,82.0,64.0,60.0,0.0,0.0
2611,46.0,0.0,60.0,0.0,0.0
2612,58.0,0.0,60.0,0.0,0.0
2613,47.0,0.0,60.0,0.0,0.0
2614,59.0,64.0,60.0,0.0,0.0
2615,71.0,0.0,60.0,0.0,0.0
2616,83.0,0.0,60.0,0.0,0.0
2617,67.0,0.0,60.0,0.0,0.0
2618,79.0,0.0,60.0,0.0,0.0
2619,43.0,0.0,60.0,0.0,0.0
2620,55.0,64.0,60.0,0.0,0.0
2621,56.0,0.0,60.0,0.0,0.0
2622,44.0,0.0,60.0,0.0,0.0
2623,80.0,64.0,60.0,0.0,0.0
2624,68.0,0.0,60.0,0.0,0.0
2625,57.0,0.0,60.0,0.0,0.0
2626,45.0,64.0,60.0,0.0,0.0
2627,69.0,0.0,60.0,0.0,0.0
2628,81.0,0.0,60.0,0.0,0.0
2629,82.0,0.0,60.0,0.0,0.0
2630,70.0,0.0,60.0,0.0,0.0
2631,58.0,64.0,60.0,0.0,0.0
2632,46.0,0.0,60.0,0.0,0.0
2633,57.0,0.0,60.0,0.0,0.0
2634,45.0,0.0,60.0,0.0,0.0
2635,81.0,0.0,60.0,0.0,0.0
2636,69.0,64.0,60.0,0.0,0.0
2637,46.0,0.0,60.0,0.0,0.0
2638,58.0,0.0,60.0,0.0,0.0
2639,82.0,0.0,60.0,0.0,0.0
2640,70.0,64.0,60.0,0.0,0.0
2641,47.0,0.0,60.0,0.0,0.0
2642,59.0,0.0,60.0,0.0,0.0
2643,83.0,64.0,60.0,0.0,0.0
2644,71.0,0.0,60.0,0.0,0.0
2645,57.0,0.0,60.0,0.0,0.0
2646,69.0,0.0,60.0,0.0,0.0
2647,81.0,0.0,60.0,0.0,0.0
2648,45.0,64.0,60.0,0.0,0.0
2649,46.0,0.0,60.0,0.0,0.0
2650,58.0,0.0,60.0,0.0,0.0
2651,82.0,64.0,60.0,0.0,0.0
2652,70.0,0.0,60.0,0.0,0.0
2653,71.0,64.0,60.0,0.0,0.0
2654,59.0,0.0,60.0,0.0,0.0
2655,47.0,0.0,60.0,0.0,0.0
2656,83.0,0.0,60.0,0.0,0.0
2657,58.0,0.0,60.0,0.0,0.0
2658,82.0,0.0,60.0,0.0,0.0
2659,70.0,64.0,60.0,0.0,0.0
2660,46.0,0.0,60.0,0.0,0.0
2661,83.0,0.0,60.0,0.0,0.0
2662,71.0,64.0,60.0,0.0,0.0
2663,59.0,0.0,60.0,0.0,0.0
2664,47.0,0.0,60.0,0.0,0.0
2665,72.0,0.0,60.0,0.0,0.0
2666,48.0,0.0,60.0,0.0,0.0
2667,60.0,64.0,60.0,0.0,0.0
2668,84.0,0.0,60.0,0.0,0.0
2669,59.0,0.0,60.0,0.0,0.0
2670,47.0,0.0,60.0,0.0,0.0
2671,71.0,0.0,60.0,0.0,0.0
2672,83.0,64.0,60.0,0.0,0.0
2673,60.0,0.0,60.0,0.0,0.0
2674,72.0,0.0,60.0,0.0,0.0
2675,84.0,64.0,60.0,0.0,0.0
2676,48.0,0.0,60.0,0.0,0.0
2677,49.0,0.0,60.0,0.0,0.0
2678,61.0,0.0,60.0,0.0,0.0
2679,85.0,0.0,60.0,0.0,0.0
2680,73.0,64.0,60.0,0.0,0.0
2681,60.0,0.0,60.0,0.0,0.0
2682,48.0,0.0,60.0,0.0,0.0
2683,72.0,0.0,60.0,0.0,0.0
2684,84.0,64.0,60.0,0.0,0.0
2685,49.0,0.0,60.0,0.0,0.0
2686,61.0,0.0,60.0,0.0,0.0
2687,73.0,0.0,60.0,0.0,0.0
2688,85.0,64.0,60.0,0.0,0.0
2689,62.0,0.0,60.0,0.0,0.0
2690,50.0,0.0,60.0,0.0,0.0
2691,74.0,0.0,60.0,0.0,0.0
2692,86.0,64.0,60.0,0.0,0.0
2693,51.0,0.0,60.0,0.0,0.0
2694,63.0,0.0,60.0,0.0,0.0
2695,87.0,0.0,60.0,0.0,0.0
2696,78.0,0.0,390.0,0.0,0.0
2697,75.0,64.0,60.0,0.0,0.0
2698,74.0,0.0,60.0,0.0,0.0
2699,62.0,0.0,60.0,0.0,0.0
2700,50.0,0.0,60.0,0.0,0.0
2701,86.0,64.0,60.0,0.0,0.0
2702,75.0,64.0,60.0,0.0,0.0
2703,51.0,0.0,60.0,0.0,0.0
2704,63.0,0.0,60.0,0.0,0.0
2705,87.0,0.0,60.0,0.0,0.0
2706,74.0,0.0,60.0,0.0,0.0
2707,86.0,64.0,60.0,0.0,0.0
2708,50.0,0.0,60.0,0.0,0.0
2709,62.0,0.0,60.0,0.0,0.0
2710,85.0,0.0,60.0,0.0,0.0
2711,61.0,64.0,60.0,0.0,0.0
2712,49.0,0.0,60.0,0.0,0.0
2713,73.0,0.0,60.0,0.0,0.0
2714,72.0,0.0,60.0,0.0,0.0
2715,60.0,0.0,60.0,0.0,0.0
2716,48.0,0.0,60.0,0.0,0.0
2717,84.0,64.0,60.0,0.0,0.0
2718,61.0,0.0,60.0,0.0,0.0
2719,54.0,0.0,15.0,0.0,0.0
2720,49.0,64.0,60.0,0.0,0.0
2721,73.0,0.0,60.0,0.0,0.0
2722,78.0,0.0,390.0,0.0,0.0
2723,85.0,0.0,60.0,0.0,0.0
2724,48.0,0.0,60.0,0.0,0.0
2725,72.0,64.0,60.0,0.0,0.0
2726,84.0,0.0,60.0,0.0,0.0
2727,60.0,0.0,60.0,0.0,0.0
2728,73.0,0.0,60.0,0.0,0.0
2729,49.0,64.0,60.0,0.0,0.0
2730,85.0,0.0,60.0,0.0,0.0
2731,61.0,0.0,60.0,0.0,0.0
2732,48.0,0.0,60.0,0.0,0.0
2733,60.0,0.0,60.0,0.0,0.0
2734,84.0,64.0,60.0,0.0,0.0
2735,72.0,0.0,60.0,0.0,0.0
2736,47.0,64.0,60.0,0.0,0.0
2737,59.0,0.0,60.0,0.0,0.0
2738,83.0,0.0,60.0,0.0,0.0
2739,71.0,0.0,60.0,0.0,0.0
2740,58.0,0.0,60.0,0.0,0.0
2741,70.0,64.0,60.0,0.0,0.0
2742,82.0,0.0,60.0,0.0,0.0
2743,46.0,0.0,60.0,0.0,0.0
2744,47.0,0.0,60.0,0.0,0.0
2745,51.0,0.0,180.0,0.0,0.0
2746,83.0,0.0,60.0,0.0,0.0
2747,75.0,0.0,180.0,0.0,0.0
2748,59.0,64.0,60.0,0.0,0.0
2749,71.0,0.0,60.0,0.0,0.0
2750,70.0,0.0,60.0,0.0,0.0
2751,58.0,0.0,60.0,0.0,0.0
2752,82.0,0.0,60.0,0.0,0.0
2753,46.0,64.0,60.0,0.0,0.0
2754,59.0,0.0,60.0,0.0,0.0
2755,47.0,64.0,60.0,0.0,0.0
2756,71.0,0.0,60.0,0.0,0.0
2757,83.0,0.0,60.0,0.0,0.0
2758,46.0,0.0,60.0,0.0,0.0
2759,51.0,0.0,180.0,0.0,0.0
2760,58.0,0.0,60.0,0.0,0.0
2761,82.0,0.0,60.0,0.0,0.0
2762,70.0,64.0,60.0,0.0,0.0
2763,75.0,0.0,180.0,0.0,0.0
2764,45.0,64.0,60.0,0.0,0.0
2765,57.0,0.0,60.0,0.0,0.0
2766,69.0,0.0,60.0,0.0,0.0
2767,81.0,0.0,60.0,0.0,0.0
2768,56.0,0.0,60.0,0.0,0.0
2769,68.0,64.0,60.0,0.0,0.0
2770,80.0,0.0,60.0,0.0,0.0
2771,44.0,0.0,60.0,0.0,0.0
2772,55.0,0.0,60.0,0.0,0.0
2773,67.0,0.0,60.0,0.0,0.0
2774,79.0,0.0,60.0,0.0,0.0
2775,43.0,64.0,60.0,0.0,0.0
2776,46.0,0.0,180.0,0.0,0.0
2777,66.0,0.0,60.0,0.0,0.0
2778,42.0,64.0,60.0,0.0,0.0
2779,54.0,0.0,60.0,0.0,0.0
2780,78.0,0.0,60.0,0.0,0.0
2781,77.0,0.0,60.0,0.0,0.0
2782,65.0,0.0,60.0,0.0,0.0
2783,53.0,160.0,60.0,0.0,0.0
2784,41.0,0.0,60.0,0.0,0.0
2785,75.0,0.0,180.0,0.0,0.0
2786,70.0,0.0,15.0,0.0,0.0
2787,39.0,0.0,150.0,0.0,0.0
2788,46.0,32.0,150.0,0.0,0.0
2789,51.0,0.0,150.0,0.0,0.0
2790,63.0,0.0,15.0,0.0,0.0
2791,71.0,0.0,390.0,0.0,0.0
2792,75.0,64.0,60.0,0.0,0.0
2793,39.0,0.0,60.0,0.0,0.0
2794,47.0,0.0,390.0,0.0,0.0
2795,51.0,0.0,60.0,0.0,0.0
2796,62.0,0.0,60.0,0.0,0.0
2797,74.0,0.0,60.0,0.0,0.0
2798,38.0,0.0,60.0,0.0,0.0
2799,50.0,64.0,60.0,0.0,0.0
2800,63.0,0.0,60.0,0.0,0.0
2801,75.0,0.0,60.0,0.0,0.0
2802,39.0,64.0,60.0,0.0,0.0
2803,51.0,0.0,60.0,0.0,0.0
2804,41.0,0.0,60.0,0.0,0.0
2805,77.0,0.0,60.0,0.0,0.0
2806,53.0,0.0,60.0,0.0,0.0
2807,65.0,64.0,60.0,0.0,0.0
2808,66.0,0.0,60.0,0.0,0.0
2809,42.0,0.0,60.0,0.0,0.0
2810,54.0,0.0,60.0,0.0,0.0
2811,78.0,64.0,60.0,0.0,0.0
2812,68.0,0.0,60.0,0.0,0.0
2813,80.0,0.0,60.0,0.0,0.0
2814,44.0,64.0,60.0,0.0,0.0
2815,56.0,0.0,60.0,0.0,0.0
2816,70.0,64.0,180.0,0.0,0.0
2817,46.0,0.0,180.0,0.0,0.0
2818,54.0,0.0,60.0,0.0,0.0
2819,42.0,0.0,60.0,0.0,0.0
2820,78.0,0.0,60.0,0.0,0.0
2821,66.0,64.0,60.0,0.0,0.0
2822,77.0,0.0,60.0,0.0,0.0
2823,65.0,0.0,60.0,0.0,0.0
2824,41.0,0.0,60.0,0.0,0.0
2825,53.0,64.0,60.0,0.0,0.0
2826,51.0,0.0,60.0,0.0,0.0
2827,63.0,0.0,60.0,0.0,0.0
2828,75.0,0.0,60.0,0.0,0.0
2829,39.0,0.0,60.0,0.0,0.0
2830,50.0,64.0,60.0,0.0,0.0
2831,38.0,0.0,60.0,0.0,0.0
2832,62.0,0.0,60.0,0.0,0.0
2833,74.0,0.0,60.0,0.0,0.0
2834,39.0,0.0,60.0,0.0,0.0
2835,51.0,62.0,60.0,0.0,0.0
2836,63.0,0.0,60.0,0.0,0.0
2837,75.0,0.0,60.0,0.0,0.0
2838,53.0,2.0,60.0,0.0,0.0
2839,65.0,0.0,60.0,0.0,0.0
2840,77.0,64.0,60.0,0.0,0.0
2841,41.0,0.0,60.0,0.0,0.0
2842,63.0,0.0,60.0,0.0,0.0
2843,71.0,64.0,390.0,0.0,0.0
2844,75.0,64.0,60.0,0.0,0.0
2845,39.0,0.0,60.0,0.0,0.0
2846,47.0,0.0,390.0,0.0,0.0
2847,51.0,0.0,60.0,0.0,0.0
2848,38.0,0.0,60.0,0.0,0.0
2849,50.0,0.0,60.0,0.0,0.0
2850,74.0,0.0,60.0,0.0,0.0
2851,62.0,64.0,60.0,0.0,0.0
2852,51.0,0.0,60.0,0.0,0.0
2853,39.0,0.0,60.0,0.0,0.0
2854,63.0,64.0,60.0,0.0,0.0
2855,75.0,0.0,60.0,0.0,0.0
2856,77.0,0.0,60.0,0.0,0.0
2857,53.0,0.0,60.0,0.0,0.0
2858,41.0,0.0,60.0,0.0,0.0
2859,65.0,64.0,60.0,0.0,0.0
2860,54.0,0.0,60.0,0.0,0.0
2861,42.0,0.0,60.0,0.0,0.0
2862,66.0,0.0,60.0,0.0,0.0
2863,78.0,64.0,60.0,0.0,0.0
2864,80.0,0.0,60.0,0.0,0.0
2865,68.0,0.0,60.0,0.0,0.0
2866,44.0,0.0,60.0,0.0,0.0
2867,56.0,0.0,60.0,0.0,0.0
2868,66.0,0.0,60.0,0.0,0.0
2869,70.0,0.0,180.0,0.0,0.0
2870,78.0,0.0,60.0,0.0,0.0
2871,42.0,64.0,60.0,0.0,0.0
2872,46.0,0.0,180.0,0.0,0.0
2873,54.0,0.0,60.0,0.0,0.0
2874,41.0,0.0,60.0,0.0,0.0
2875,53.0,64.0,60.0,0.0,0.0
2876,77.0,0.0,60.0,0.0,0.0
2877,65.0,0.0,60.0,0.0,0.0
2878,63.0,0.0,60.0,0.0,0.0
2879,75.0,0.0,60.0,0.0,0.0
2880,39.0,64.0,60.0,0.0,0.0
2881,51.0,0.0,60.0,0.0,0.0
2882,38.0,0.0,60.0,0.0,0.0
2883,62.0,0.0,60.0,0.0,0.0
2884,74.0,0.0,60.0,0.0,0.0
2885,50.0,64.0,60.0,0.0,0.0
2886,75.0,62.0,60.0,0.0,0.0
2887,63.0,0.0,60.0,0.0,0.0
2888,39.0,0.0,60.0,0.0,0.0
2889,51.0,0.0,60.0,0.0,0.0
2890,53.0,2.0,60.0,0.0,0.0
2891,77.0,64.0,60.0,0.0,0.0
2892,65.0,0.0,60.0,0.0,0.0
2893,41.0,0.0,60.0,0.0,0.0
2894,66.0,0.0,60.0,0.0,0.0
2895,78.0,0.0,60.0,0.0,0.0
2896,42.0,0.0,60.0,0.0,0.0
2897,50.0,0.0,390.0,0.0,0.0
2898,54.0,64.0,60.0,0.0,0.0
2899,74.0,0.0,390.0,0.0,0.0
2900,65.0,0.0,60.0,0.0,0.0
2901,77.0,0.0,60.0,0.0,0.0
2902,53.0,64.0,60.0,0.0,0.0
2903,41.0,0.0,60.0,0.0,0.0
2904,66.0,64.0,60.0,0.0,0.0
2905,42.0,0.0,60.0,0.0,0.0
2906,78.0,0.0,60.0,0.0,0.0
2907,54.0,0.0,60.0,0.0,0.0
2908,80.0,64.0,60.0,0.0,0.0
2909,68.0,0.0,60.0,0.0,0.0
2910,56.0,0.0,60.0,0.0,0.0
2911,44.0,0.0,60.0,0.0,0.0
2912,57.0,0.0,60.0,0.0,0.0
2913,69.0,0.0,60.0,0.0,0.0
2914,45.0,64.0,60.0,0.0,0.0
2915,81.0,0.0,60.0,0.0,0.0
2916,59.0,0.0,60.0,0.0,0.0
2917,47.0,0.0,60.0,0.0,0.0
2918,71.0,0.0,60.0,0.0,0.0
2919,83.0,64.0,60.0,0.0,0.0
2920,49.0,0.0,180.0,0.0,0.0
2921,69.0,0.0,60.0,0.0,0.0
2922,73.0,0.0,180.0,0.0,0.0
2923,81.0,64.0,60.0,0.0,0.0
2924,45.0,0.0,60.0,0.0,0.0
2925,57.0,0.0,60.0,0.0,0.0
2926,56.0,0.0,60.0,0.0,0.0
2927,44.0,0.0,60.0,0.0,0.0
2928,68.0,0.0,60.0,0.0,0.0
2929,80.0,64.0,60.0,0.0,0.0
2930,54.0,64.0,60.0,0.0,0.0
2931,42.0,0.0,60.0,0.0,0.0
2932,78.0,0.0,60.0,0.0,0.0
2933,66.0,0.0,60.0,0.0,0.0
2934,65.0,0.0,60.0,0.0,0.0
2935,77.0,0.0,60.0,0.0,0.0
2936,41.0,0.0,60.0,0.0,0.0
2937,53.0,64.0,60.0,0.0,0.0
2938,78.0,0.0,60.0,0.0,0.0
2939,66.0,0.0,60.0,0.0,0.0
2940,42.0,0.0,60.0,0.0,0.0
2941,54.0,62.0,60.0,0.0,0.0
2942,44.0,0.0,60.0,0.0,0.0
2943,80.0,64.0,60.0,0.0,0.0
2944,56.0,2.0,60.0,0.0,0.0
2945,68.0,0.0,60.0,0.0,0.0
2946,66.0,0.0,60.0,0.0,0.0
2947,74.0,0.0,390.0,0.0,0.0
2948,78.0,64.0,60.0,0.0,0.0
2949,42.0,0.0,60.0,0.0,0.0
2950,54.0,0.0,60.0,0.0,0.0
2951,50.0,0.0,390.0,0.0,0.0
2952,41.0,0.0,60.0,0.0,0.0
2953,65.0,0.0,60.0,0.0,0.0
2954,77.0,0.0,60.0,0.0,0.0
2955,53.0,64.0,60.0,0.0,0.0
2956,78.0,0.0,60.0,0.0,0.0
2957,66.0,0.0,60.0,0.0,0.0
2958,42.0,0.0,60.0,0.0,0.0
2959,54.0,64.0,60.0,0.0,0.0
2960,56.0,0.0,60.0,0.0,0.0
2961,44.0,0.0,60.0,0.0,0.0
2962,68.0,64.0,60.0,0.0,0.0
2963,80.0,0.0,60.0,0.0,0.0
2964,69.0,0.0,60.0,0.0,0.0
2965,81.0,64.0,60.0,0.0,0.0
2966,57.0,0.0,60.0,0.0,0.0
2967,45.0,0.0,60.0,0.0,0.0
2968,83.0,0.0,60.0,0.0,0.0
2969,71.0,0.0,60.0,0.0,0.0
2970,47.0,64.0,60.0,0.0,0.0
2971,59.0,0.0,60.0,0.0,0.0
2972,57.0,0.0,60.0,0.0,0.0
2973,49.0,64.0,180.0,0.0,0.0
2974,45.0,0.0,60.0,0.0,0.0
2975,73.0,0.0,180.0,0.0,0.0
2976,81.0,0.0,60.0,0.0,0.0
2977,69.0,64.0,60.0,0.0,0.0
2978,80.0,64.0,60.0,0.0,0.0
2979,68.0,0.0,60.0,0.0,0.0
2980,56.0,0.0,60.0,0.0,0.0
2981,44.0,0.0,60.0,0.0,0.0
2982,54.0,0.0,60.0,0.0,0.0
2983,66.0,0.0,60.0,0.0,0.0
2984,42.0,0.0,60.0,0.0,0.0
2985,78.0,0.0,60.0,0.0,0.0
2986,45.0,0.0,60.0,0.0,0.0
2987,53.0,0.0,180.0,0.0,0.0
2988,57.0,0.0,60.0,0.0,0.0
2989,77.0,0.0,180.0,0.0,0.0
2990,81.0,64.0,60.0,0.0,0.0
2991,69.0,0.0,60.0,0.0,0.0
2992,59.0,64.0,60.0,0.0,0.0
2993,47.0,0.0,60.0,0.0,0.0
2994,71.0,0.0,60.0,0.0,0.0
2995,83.0,0.0,60.0,0.0,0.0
2996,62.0,64.0,60.0,0.0,0.0
2997,50.0,0.0,60.0,0.0,0.0
2998,74.0,0.0,60.0,0.0,0.0
2999,86.0,0.0,60.0,0.0,0.0
3000,52.0,0.0,180.0,0.0,0.0
3001,60.0,0.0,60.0,0.0,0.0
3002,84.0,0.0,60.0,0.0,0.0
3003,76.0,64.0,180.0,0.0,0.0
3004,72.0,64.0,60.0,0.0,0.0
3005,48.0,0.0,60.0,0.0,0.0
3006,59.0,0.0,60.0,0.0,0.0
3007,71.0,0.0,60.0,0.0,0.0
3008,47.0,0.0,60.0,0.0,0.0
3009,83.0,64.0,60.0,0.0,0.0
3010,45.0,0.0,60.0,0.0,0.0
3011,57.0,0.0,60.0,0.0,0.0
3012,69.0,0.0,60.0,0.0,0.0
3013,81.0,0.0,60.0,0.0,0.0
3014,48.0,64.0,60.0,0.0,0.0
3015,56.0,0.0,180.0,0.0,0.0
3016,60.0,0.0,60.0,0.0,0.0
3017,84.0,0.0,60.0,0.0,0.0
3018,80.0,0.0,180.0,0.0,0.0
3019,72.0,0.0,60.0,0.0,0.0
3020,50.0,0.0,60.0,0.0,0.0
3021,86.0,64.0,60.0,0.0,0.0
3022,62.0,0.0,60.0,0.0,0.0
3023,74.0,0.0,60.0,0.0,0.0
3024,77.0,0.0,60.0,0.0,0.0
3025,89.0,64.0,60.0,0.0,0.0
3026,53.0,0.0,60.0,0.0,0.0
3027,65.0,0.0,60.0,0.0,0.0
3028,51.0,0.0,60.0,0.0,0.0
3029,55.0,0.0,180.0,0.0,0.0
3030,63.0,0.0,60.0,0.0,0.0
3031,75.0,0.0,60.0,0.0,0.0
3032,79.0,0.0,180.0,0.0,0.0
3033,87.0,64.0,60.0,0.0,0.0
3034,86.0,0.0,60.0,0.0,0.0
3035,50.0,0.0,60.0,0.0,0.0
3036,62.0,64.0,60.0,0.0,0.0
3037,74.0,0.0,60.0,0.0,0.0
3038,48.0,64.0,60.0,0.0,0.0
3039,72.0,0.0,60.0,0.0,0.0
3040,84.0,0.0,60.0,0.0,0.0
3041,60.0,0.0,60.0,0.0,0.0
3042,51.0,64.0,60.0,0.0,0.0
3043,59.0,0.0,180.0,0.0,0.0
3044,63.0,0.0,60.0,0.0,0.0
3045,75.0,0.0,60.0,0.0,0.0
3046,87.0,0.0,60.0,0.0,0.0
3047,83.0,0.0,180.0,0.0,0.0
3048,89.0,0.0,60.0,0.0,0.0
3049,65.0,0.0,60.0,0.0,0.0
3050,53.0,64.0,60.0,0.0,0.0
3051,77.0,0.0,60.0,0.0,0.0
3052,56.0,0.0,60.0,0.0,0.0
3053,68.0,0.0,60.0,0.0,0.0
3054,80.0,64.0,60.0,0.0,0.0
3055,92.0,0.0,60.0,0.0,0.0
3056,90.0,0.0,60.0,0.0,0.0
3057,54.0,64.0,60.0,0.0,0.0
3058,58.0,64.0,180.0,0.0,0.0
3059,66.0,0.0,60.0,0.0,0.0
3060,78.0,0.0,60.0,0.0,0.0
3061,82.0,0.0,180.0,0.0,0.0
3062,65.0,0.0,60.0,0.0,0.0
3063,89.0,64.0,60.0,0.0,0.0
3064,77.0,0.0,60.0,0.0,0.0
3065,53.0,0.0,60.0,0.0,0.0
3066,51.0,0.0,60.0,0.0,0.0
3067,75.0,0.0,60.0,0.0,0.0
3068,87.0,0.0,60.0,0.0,0.0
3069,63.0,0.0,60.0,0.0,0.0
3070,50.0,0.0,60.0,0.0,0.0
3071,62.0,0.0,60.0,0.0,0.0
3072,86.0,0.0,60.0,0.0,0.0
3073,81.0,0.0,60.0,0.0,0.0
3074,74.0,0.0,60.0,0.0,0.0
3075,78.0,64.0,60.0,0.0,0.0
3076,60.0,64.0,60.0,0.0,0.0
3077,48.0,0.0,60.0,0.0,0.0
3078,75.0,0.0,60.0,0.0,0.0
3079,87.0,0.0,60.0,0.0,0.0
3080,78.0,0.0,60.0,0.0,0.0
3081,45.0,0.0,60.0,0.0,0.0
3082,57.0,64.0,60.0,0.0,0.0
3083,90.0,0.0,60.0,0.0,0.0
3084,81.0,0.0,60.0,0.0,0.0
3085,93.0,0.0,60.0,0.0,0.0
3086,54.0,64.0,60.0,0.0,0.0
3087,42.0,0.0,60.0,0.0,0.0
3088,86.0,0.0,60.0,0.0,0.0
3089,53.0,0.0,60.0,0.0,0.0
3090,41.0,64.0,60.0,0.0,0.0
3091,98.0,0.0,60.0,0.0,0.0
3092,87.0,0.0,60.0,0.0,0.0
3093,99.0,0.0,60.0,0.0,0.0
3094,39.0,64.0,60.0,0.0,0.0
3095,51.0,0.0,60.0,0.0,0.0
3096,87.0,0.0,60.0,0.0,0.0
3097,49.0,0.0,60.0,0.0,0.0
3098,37.0,64.0,60.0,0.0,0.0
3099,99.0,0.0,15.0,0.0,0.0
3100,36.0,0.0,60.0,0.0,0.0
3101,48.0,0.0,60.0,0.0,0.0
3102,99.0,64.0,15.0,0.0,0.0
3103,35.0,0.0,60.0,0.0,0.0
3104,47.0,0.0,60.0,0.0,0.0
3105,87.0,0.0,15.0,0.0,0.0
3106,87.0,64.0,15.0,0.0,0.0
3107,90.0,0.0,180.0,0.0,0.0
3108,34.0,0.0,60.0,0.0,0.0
3109,94.0,0.0,180.0,0.0,0.0
3110,99.0,0.0,60.0,0.0,0.0
3111,46.0,64.0,60.0,0.0,0.0
3112,86.0,0.0,60.0,0.0,0.0
3113,98.0,64.0,60.0,0.0,0.0
3114,38.0,0.0,60.0,0.0,0.0
3115,50.0,0.0,60.0,0.0,0.0
3116,87.0,64.0,60.0,0.0,0.0
3117,51.0,0.0,60.0,0.0,0.0
3118,39.0,0.0,60.0,0.0,0.0
3119,99.0,0.0,60.0,0.0,0.0
3120,98.0,0.0,60.0,0.0,0.0
3121,86.0,0.0,60.0,0.0,0.0
3122,52.0,64.0,60.0,0.0,0.0
3123,40.0,0.0,60.0,0.0,0.0
3124,53.0,0.0,60.0,0.0,0.0
3125,85.0,64.0,60.0,0.0,0.0
3126,97.0,0.0,60.0,0.0,0.0
3127,41.0,0.0,60.0,0.0,0.0
3128,42.0,0.0,60.0,0.0,0.0
3129,54.0,0.0,60.0,0.0,0.0
3130,96.0,0.0,60.0,0.0,0.0
3131,84.0,64.0,60.0,0.0,0.0
3132,85.0,64.0,60.0,0.0,0.0
3133,92.0,0.0,180.0,0.0,0.0
3134,97.0,0.0,60.0,0.0,0.0
3135,41.0,0.0,60.0,0.0,0.0
3136,53.0,0.0,60.0,0.0,0.0
3137,52.0,0.0,60.0,0.0,0.0
3138,40.0,64.0,60.0,0.0,0.0
3139,96.0,0.0,60.0,0.0,0.0
3140,84.0,0.0,60.0,0.0,0.0
3141,41.0,0.0,60.0,0.0,0.0
3142,53.0,64.0,60.0,0.0,0.0
3143,85.0,0.0,60.0,0.0,0.0
3144,97.0,0.0,60.0,0.0,0.0
3145,84.0,0.0,60.0,0.0,0.0
3146,96.0,0.0,60.0,0.0,0.0
3147,42.0,64.0,60.0,0.0,0.0
3148,54.0,0.0,60.0,0.0,0.0
3149,83.0,64.0,60.0,0.0,0.0
3150,55.0,0.0,60.0,0.0,0.0
3151,43.0,0.0,60.0,0.0,0.0
3152,95.0,0.0,60.0,0.0,0.0
3153,44.0,0.0,60.0,0.0,0.0
3154,56.0,0.0,60.0,0.0,0.0
3155,82.0,64.0,60.0,0.0,0.0
3156,94.0,0.0,60.0,0.0,0.0
3157,95.0,64.0,60.0,0.0,0.0
3158,83.0,0.0,60.0,0.0,0.0
3159,55.0,0.0,60.0,0.0,0.0
3160,43.0,0.0,60.0,0.0,0.0
3161,42.0,64.0,60.0,0.0,0.0
3162,82.0,0.0,60.0,0.0,0.0
3163,94.0,0.0,60.0,0.0,0.0
3164,54.0,0.0,60.0,0.0,0.0
3165,83.0,0.0,60.0,0.0,0.0
3166,95.0,0.0,60.0,0.0,0.0
3167,43.0,64.0,60.0,0.0,0.0
3168,55.0,0.0,60.0,0.0,0.0
3169,82.0,0.0,60.0,0.0,0.0
3170,94.0,0.0,60.0,0.0,0.0
3171,44.0,0.0,60.0,0.0,0.0
3172,56.0,64.0,60.0,0.0,0.0
3173,57.0,64.0,60.0,0.0,0.0
3174,93.0,0.0,60.0,0.0,0.0
3175,81.0,0.0,60.0,0.0,0.0
3176,45.0,0.0,60.0,0.0,0.0
3177,58.0,0.0,60.0,0.0,0.0
3178,92.0,0.0,60.0,0.0,0.0
3179,80.0,0.0,60.0,0.0,0.0
3180,46.0,0.0,60.0,0.0,0.0
3181,57.0,0.0,60.0,0.0,0.0
3182,93.0,0.0,60.0,0.0,0.0
3183,45.0,64.0,60.0,0.0,0.0
3184,86.0,0.0,15.0,0.0,0.0
3185,81.0,0.0,60.0,0.0,0.0
3186,89.0,64.0,15.0,0.0,0.0
3187,80.0,64.0,60.0,0.0,0.0
3188,92.0,0.0,60.0,0.0,0.0
3189,56.0,0.0,60.0,0.0,0.0
3190,44.0,0.0,60.0,0.0,0.0
3191,45.0,0.0,60.0,0.0,0.0
3192,57.0,64.0,60.0,0.0,0.0
3193,93.0,0.0,60.0,0.0,0.0
3194,81.0,0.0,60.0,0.0,0.0
3195,80.0,0.0,60.0,0.0,0.0
3196,58.0,0.0,60.0,0.0,0.0
3197,92.0,0.0,60.0,0.0,0.0
3198,46.0,64.0,60.0,0.0,0.0
3199,59.0,0.0,60.0,0.0,0.0
3200,47.0,64.0,60.0,0.0,0.0
3201,91.0,0.0,60.0,0.0,0.0
3202,79.0,0.0,60.0,0.0,0.0
3203,90.0,64.0,60.0,0.0,0.0
3204,78.0,0.0,60.0,0.0,0.0
3205,60.0,0.0,60.0,0.0,0.0
3206,48.0,0.0,60.0,0.0,0.0
3207,80.0,0.0,60.0,0.0,0.0
3208,47.0,64.0,60.0,0.0,0.0
3209,59.0,0.0,60.0,0.0,0.0
3210,86.0,0.0,390.0,0.0,0.0
3211,89.0,0.0,180.0,0.0,0.0
3212,92.0,0.0,60.0,0.0,0.0
3213,79.0,0.0,60.0,0.0,0.0
3214,91.0,0.0,60.0,0.0,0.0
3215,46.0,0.0,60.0,0.0,0.0
3216,58.0,64.0,60.0,0.0,0.0
3217,92.0,64.0,60.0,0.0,0.0
3218,80.0,0.0,60.0,0.0,0.0
3219,47.0,0.0,60.0,0.0,0.0
3220,59.0,0.0,60.0,0.0,0.0
3221,79.0,0.0,60.0,0.0,0.0
3222,91.0,64.0,60.0,0.0,0.0
3223,48.0,0.0,60.0,0.0,0.0
3224,60.0,0.0,60.0,0.0,0.0
3225,49.0,0.0,60.0,0.0,0.0
3226,61.0,0.0,60.0,0.0,0.0
3227,90.0,0.0,60.0,0.0,0.0
3228,78.0,64.0,60.0,0.0,0.0
3229,50.0,0.0,60.0,0.0,0.0
3230,89.0,0.0,60.0,0.0,0.0
3231,77.0,0.0,60.0,0.0,0.0
3232,62.0,64.0,60.0,0.0,0.0
3233,81.0,384.0,390.0,0.0,0.0
3234,90.0,0.0,60.0,0.0,0.0
3235,78.0,0.0,60.0,0.0,0.0
3236,84.0,0.0,390.0,0.0,0.0
3237,51.0,0.0,60.0,0.0,0.0
3238,63.0,64.0,60.0,0.0,0.0
3239,89.0,64.0,60.0,0.0,0.0
3240,77.0,0.0,60.0,0.0,0.0
3241,62.0,0.0,60.0,0.0,0.0
3242,50.0,0.0,60.0,0.0,0.0
3243,78.0,64.0,60.0,0.0,0.0
3244,90.0,0.0,60.0,0.0,0.0
3245,63.0,0.0,60.0,0.0,0.0
3246,51.0,0.0,60.0,0.0,0.0
3247,64.0,0.0,60.0,0.0,0.0
3248,52.0,0.0,60.0,0.0,0.0
3249,89.0,64.0,60.0,0.0,0.0
3250,77.0,0.0,60.0,0.0,0.0
3251,53.0,0.0,60.0,0.0,0.0
3252,76.0,0.0,60.0,0.0,0.0
3253,88.0,0.0,60.0,0.0,0.0
3254,65.0,64.0,60.0,0.0,0.0
3255,75.0,0.0,60.0,0.0,0.0
3256,87.0,0.0,60.0,0.0,0.0
3257,54.0,0.0,60.0,0.0,0.0
3258,66.0,0.0,60.0,0.0,0.0
3259,65.0,0.0,390.0,0.0,0.0
3260,70.0,0.0,390.0,0.0,0.0
3261,75.0,0.0,390.0,0.0,0.0
3262,77.0,0.0,390.0,0.0,0.0
3263,87.0,384.0,390.0,0.0,0.0
3264,58.0,0.0,15.0,0.0,0.0
3265,53.0,0.0,390.0,0.0,0.0
3266,46.0,0.0,390.0,0.0,0.0
3267,82.0,0.0,15.0,0.0,0.0
3268,74.0,0.0,390.0,0.0,0.0
3269,77.0,0.0,390.0,0.0,0.0
3270,86.0,1488.0,390.0,0.0,0.0
3271,46.0,0.0,1500.0,0.0,0.0
3272,39.0,0.0,1500.0,0.0,0.0
3273,75.0,0.0,1530.0,0.0,0.0
3274,78.0,0.0,1530.0,0.0,0.0
3275,82.0,0.0,1530.0,0.0,0.0
3276,87.0,0.0,1530.0,0.0,0.0
3277,51.0,48.0,1500.0,0.0,0.0
