,note,step,duration,channel,velocity
0,67.0,0.0,15.0,0.0,0.0
1,60.0,0.0,15.0,0.0,0.0
2,55.0,0.0,15.0,0.0,0.0
3,64.0,240.0,15.0,0.0,0.0
4,55.0,0.0,15.0,0.0,0.0
5,60.0,0.0,15.0,0.0,0.0
6,64.0,240.0,240.0,0.0,0.0
7,67.0,240.0,15.0,0.0,0.0
8,67.0,0.0,15.0,0.0,0.0
9,55.0,0.0,15.0,0.0,0.0
10,67.0,0.0,15.0,0.0,0.0
11,60.0,0.0,15.0,0.0,0.0
12,64.0,240.0,15.0,0.0,0.0
13,67.0,0.0,15.0,0.0,0.0
14,55.0,0.0,15.0,0.0,0.0
15,64.0,240.0,15.0,0.0,0.0
16,60.0,0.0,15.0,0.0,0.0
17,55.0,0.0,15.0,0.0,0.0
18,64.0,0.0,15.0,0.0,0.0
19,60.0,0.0,15.0,0.0,0.0
20,67.0,240.0,15.0,0.0,0.0
21,64.0,0.0,15.0,0.0,0.0
22,60.0,240.0,15.0,0.0,0.0
23,55.0,0.0,15.0,0.0,0.0
24,67.0,0.0,240.0,0.0,0.0
25,55.0,240.0,15.0,0.0,0.0
26,67.0,0.0,15.0,0.0,0.0
27,64.0,0.0,15.0,0.0,0.0
28,60.0,0.0,15.0,0.0,0.0
29,55.0,0.0,240.0,0.0,0.0
30,55.0,0.0,240.0,0.0,0.0
31,60.0,0.0,15.0,0.0,0.0
32,67.0,240.0,240.0,0.0,0.0
33,64.0,0.0,240.0,0.0,0.0
34,43.0,0.0,240.0,0.0,0.0
35,65.0,240.0,15.0,0.0,0.0
36,71.0,0.0,240.0,0.0,0.0
37,62.0,0.0,240.0,0.0,0.0
38,67.0,0.0,240.0,0.0,0.0
39,76.0,240.0,240.0,0.0,0.0
40,55.0,240.0,15.0,0.0,0.0
41,65.0,0.0,240.0,0.0,0.0
42,62.0,0.0,240.0,0.0,0.0
43,67.0,0.0,15.0,0.0,0.0
44,65.0,0.0,240.0,0.0,0.0
45,55.0,0.0,15.0,0.0,0.0
46,77.0,0.0,240.0,0.0,0.0
47,62.0,240.0,15.0,0.0,0.0
48,55.0,0.0,240.0,0.0,0.0
49,67.0,0.0,240.0,0.0,0.0
50,69.0,0.0,240.0,0.0,0.0
51,55.0,0.0,240.0,0.0,0.0
52,62.0,0.0,240.0,0.0,0.0
53,67.0,240.0,240.0,0.0,0.0
54,71.0,0.0,240.0,0.0,0.0
55,65.0,240.0,15.0,0.0,0.0
56,74.0,240.0,720.0,0.0,0.0
57,48.0,240.0,240.0,0.0,0.0
58,67.0,0.0,240.0,0.0,0.0
59,60.0,0.0,240.0,0.0,0.0
60,70.0,0.0,15.0,0.0,0.0
61,64.0,240.0,15.0,0.0,0.0
62,60.0,0.0,240.0,0.0,0.0
63,67.0,0.0,15.0,0.0,0.0
64,72.0,0.0,960.0,0.0,0.0
65,70.0,0.0,240.0,0.0,0.0
66,60.0,0.0,240.0,0.0,0.0
67,60.0,0.0,240.0,0.0,0.0
68,64.0,240.0,15.0,0.0,0.0
69,70.0,0.0,15.0,0.0,0.0
70,64.0,0.0,240.0,0.0,0.0
71,60.0,0.0,240.0,0.0,0.0
72,67.0,240.0,15.0,0.0,0.0
73,53.0,240.0,240.0,0.0,0.0
74,77.0,0.0,240.0,0.0,0.0
75,69.0,0.0,240.0,0.0,0.0
76,65.0,0.0,15.0,0.0,0.0
77,60.0,240.0,15.0,0.0,0.0
78,72.0,0.0,15.0,0.0,0.0
79,83.0,240.0,240.0,0.0,0.0
80,69.0,0.0,15.0,0.0,0.0
81,65.0,0.0,15.0,0.0,0.0
82,60.0,0.0,15.0,0.0,0.0
83,86.0,0.0,240.0,0.0,0.0
84,84.0,0.0,240.0,0.0,0.0
85,72.0,240.0,15.0,0.0,0.0
86,69.0,0.0,15.0,0.0,0.0
87,65.0,240.0,240.0,0.0,0.0
88,60.0,0.0,240.0,0.0,0.0
89,81.0,0.0,240.0,0.0,0.0
90,72.0,0.0,240.0,0.0,0.0
91,69.0,0.0,240.0,0.0,0.0
92,65.0,0.0,240.0,0.0,0.0
93,60.0,240.0,240.0,0.0,0.0
94,55.0,240.0,240.0,0.0,0.0
95,79.0,0.0,720.0,0.0,0.0
96,65.0,0.0,240.0,0.0,0.0
97,74.0,0.0,15.0,0.0,0.0
98,67.0,0.0,15.0,0.0,0.0
99,71.0,240.0,15.0,0.0,0.0
100,62.0,0.0,15.0,0.0,0.0
101,65.0,0.0,240.0,0.0,0.0
102,81.0,240.0,960.0,0.0,0.0
103,53.0,240.0,240.0,0.0,0.0
104,77.0,0.0,240.0,0.0,0.0
105,60.0,0.0,240.0,0.0,0.0
106,65.0,0.0,240.0,0.0,0.0
107,69.0,240.0,15.0,0.0,0.0
108,60.0,0.0,240.0,0.0,0.0
109,65.0,0.0,240.0,0.0,0.0
110,72.0,0.0,15.0,0.0,0.0
111,77.0,0.0,240.0,0.0,0.0
112,55.0,0.0,240.0,0.0,0.0
113,62.0,0.0,240.0,0.0,0.0
114,62.0,0.0,240.0,0.0,0.0
115,65.0,0.0,15.0,0.0,0.0
116,71.0,0.0,15.0,0.0,0.0
117,74.0,240.0,15.0,0.0,0.0
118,67.0,0.0,240.0,0.0,0.0
119,79.0,0.0,240.0,0.0,0.0
120,74.0,0.0,15.0,0.0,0.0
121,83.0,0.0,240.0,0.0,0.0
122,65.0,240.0,15.0,0.0,0.0
123,71.0,0.0,240.0,0.0,0.0
124,62.0,0.0,15.0,0.0,0.0
125,65.0,240.0,15.0,0.0,0.0
126,71.0,0.0,240.0,0.0,0.0
127,81.0,0.0,240.0,0.0,0.0
128,77.0,0.0,240.0,0.0,0.0
129,74.0,0.0,15.0,0.0,0.0
130,62.0,240.0,15.0,0.0,0.0
131,65.0,0.0,15.0,0.0,0.0
132,71.0,0.0,240.0,0.0,0.0
133,57.0,0.0,720.0,0.0,0.0
134,76.0,0.0,720.0,0.0,0.0
135,67.0,0.0,240.0,0.0,0.0
136,64.0,0.0,240.0,0.0,0.0
137,73.0,0.0,15.0,0.0,0.0
138,67.0,0.0,240.0,0.0,0.0
139,64.0,0.0,240.0,0.0,0.0
140,69.0,240.0,15.0,0.0,0.0
141,50.0,240.0,240.0,0.0,0.0
142,77.0,240.0,960.0,0.0,0.0
143,72.0,240.0,240.0,0.0,0.0
144,57.0,0.0,240.0,0.0,0.0
145,69.0,0.0,15.0,0.0,0.0
146,62.0,0.0,15.0,0.0,0.0
147,65.0,0.0,15.0,0.0,0.0
148,72.0,0.0,240.0,0.0,0.0
149,57.0,240.0,240.0,0.0,0.0
150,55.0,0.0,720.0,0.0,0.0
151,69.0,240.0,240.0,0.0,0.0
152,62.0,0.0,240.0,0.0,0.0
153,72.0,0.0,240.0,0.0,0.0
154,65.0,0.0,15.0,0.0,0.0
155,74.0,240.0,240.0,0.0,0.0
156,62.0,0.0,240.0,0.0,0.0
157,67.0,0.0,240.0,0.0,0.0
158,71.0,0.0,240.0,0.0,0.0
159,48.0,0.0,240.0,0.0,0.0
160,77.0,240.0,240.0,0.0,0.0
161,67.0,0.0,240.0,0.0,0.0
162,76.0,240.0,240.0,0.0,0.0
163,55.0,0.0,15.0,0.0,0.0
164,60.0,0.0,15.0,0.0,0.0
165,69.0,240.0,240.0,0.0,0.0
166,64.0,0.0,15.0,0.0,0.0
167,72.0,0.0,15.0,0.0,0.0
168,67.0,0.0,240.0,0.0,0.0
169,43.0,240.0,240.0,0.0,0.0
170,74.0,0.0,1680.0,0.0,0.0
171,62.0,240.0,240.0,0.0,0.0
172,71.0,0.0,240.0,0.0,0.0
173,67.0,0.0,240.0,0.0,0.0
174,55.0,0.0,15.0,0.0,0.0
175,71.0,0.0,240.0,0.0,0.0
176,55.0,240.0,240.0,0.0,0.0
177,67.0,240.0,15.0,0.0,0.0
178,62.0,0.0,15.0,0.0,0.0
179,71.0,0.0,240.0,0.0,0.0
180,62.0,240.0,240.0,0.0,0.0
181,71.0,0.0,240.0,0.0,0.0
182,55.0,0.0,240.0,0.0,0.0
183,67.0,0.0,15.0,0.0,0.0
184,62.0,240.0,240.0,0.0,0.0
185,71.0,0.0,240.0,0.0,0.0
186,55.0,0.0,240.0,0.0,0.0
187,43.0,240.0,240.0,0.0,0.0
188,67.0,0.0,240.0,0.0,0.0
189,65.0,0.0,15.0,0.0,0.0
190,71.0,240.0,240.0,0.0,0.0
191,55.0,0.0,240.0,0.0,0.0
192,62.0,0.0,240.0,0.0,0.0
193,76.0,0.0,240.0,0.0,0.0
194,67.0,0.0,240.0,0.0,0.0
195,55.0,240.0,240.0,0.0,0.0
196,71.0,0.0,240.0,0.0,0.0
197,65.0,0.0,15.0,0.0,0.0
198,62.0,0.0,15.0,0.0,0.0
199,77.0,0.0,240.0,0.0,0.0
200,71.0,0.0,240.0,0.0,0.0
201,62.0,0.0,15.0,0.0,0.0
202,55.0,0.0,15.0,0.0,0.0
203,69.0,0.0,240.0,0.0,0.0
204,67.0,240.0,15.0,0.0,0.0
205,55.0,0.0,15.0,0.0,0.0
206,62.0,240.0,240.0,0.0,0.0
207,67.0,0.0,240.0,0.0,0.0
208,65.0,240.0,15.0,0.0,0.0
209,71.0,0.0,240.0,0.0,0.0
210,48.0,240.0,240.0,0.0,0.0
211,74.0,0.0,720.0,0.0,0.0
212,67.0,240.0,240.0,0.0,0.0
213,70.0,0.0,15.0,0.0,0.0
214,64.0,0.0,15.0,0.0,0.0
215,60.0,0.0,15.0,0.0,0.0
216,55.0,0.0,15.0,0.0,0.0
217,70.0,0.0,15.0,0.0,0.0
218,64.0,0.0,15.0,0.0,0.0
219,67.0,240.0,15.0,0.0,0.0
220,55.0,0.0,15.0,0.0,0.0
221,70.0,240.0,240.0,0.0,0.0
222,67.0,240.0,15.0,0.0,0.0
223,60.0,0.0,15.0,0.0,0.0
224,64.0,0.0,240.0,0.0,0.0
225,55.0,0.0,15.0,0.0,0.0
226,67.0,0.0,15.0,0.0,0.0
227,60.0,0.0,240.0,0.0,0.0
228,70.0,0.0,240.0,0.0,0.0
229,64.0,240.0,240.0,0.0,0.0
230,41.0,0.0,240.0,0.0,0.0
231,65.0,0.0,240.0,0.0,0.0
232,60.0,240.0,240.0,0.0,0.0
233,57.0,0.0,240.0,0.0,0.0
234,72.0,240.0,15.0,0.0,0.0
235,77.0,0.0,240.0,0.0,0.0
236,83.0,0.0,240.0,0.0,0.0
237,69.0,0.0,15.0,0.0,0.0
238,72.0,0.0,15.0,0.0,0.0
239,86.0,0.0,240.0,0.0,0.0
240,77.0,0.0,15.0,0.0,0.0
241,65.0,0.0,15.0,0.0,0.0
242,60.0,0.0,15.0,0.0,0.0
243,57.0,240.0,15.0,0.0,0.0
244,77.0,0.0,15.0,0.0,0.0
245,69.0,0.0,15.0,0.0,0.0
246,65.0,240.0,15.0,0.0,0.0
247,60.0,0.0,15.0,0.0,0.0
248,72.0,0.0,240.0,0.0,0.0
249,84.0,0.0,240.0,0.0,0.0
250,57.0,0.0,15.0,0.0,0.0
251,65.0,0.0,15.0,0.0,0.0
252,69.0,0.0,15.0,0.0,0.0
253,60.0,0.0,240.0,0.0,0.0
254,72.0,0.0,240.0,0.0,0.0
255,77.0,0.0,240.0,0.0,0.0
256,81.0,240.0,240.0,0.0,0.0
257,55.0,240.0,240.0,0.0,0.0
258,79.0,0.0,720.0,0.0,0.0
259,71.0,0.0,240.0,0.0,0.0
260,65.0,0.0,240.0,0.0,0.0
261,62.0,0.0,240.0,0.0,0.0
262,74.0,240.0,15.0,0.0,0.0
263,67.0,0.0,15.0,0.0,0.0
264,62.0,240.0,240.0,0.0,0.0
265,65.0,0.0,240.0,0.0,0.0
266,71.0,0.0,240.0,0.0,0.0
267,81.0,0.0,960.0,0.0,0.0
268,53.0,240.0,240.0,0.0,0.0
269,65.0,0.0,240.0,0.0,0.0
270,69.0,0.0,240.0,0.0,0.0
271,77.0,0.0,240.0,0.0,0.0
272,72.0,240.0,15.0,0.0,0.0
273,65.0,0.0,240.0,0.0,0.0
274,60.0,0.0,15.0,0.0,0.0
275,69.0,0.0,240.0,0.0,0.0
276,77.0,0.0,240.0,0.0,0.0
277,55.0,240.0,240.0,0.0,0.0
278,65.0,0.0,240.0,0.0,0.0
279,71.0,240.0,15.0,0.0,0.0
280,74.0,0.0,15.0,0.0,0.0
281,67.0,0.0,240.0,0.0,0.0
282,79.0,0.0,240.0,0.0,0.0
283,62.0,0.0,15.0,0.0,0.0
284,65.0,0.0,240.0,0.0,0.0
285,83.0,0.0,240.0,0.0,0.0
286,74.0,0.0,15.0,0.0,0.0
287,62.0,0.0,15.0,0.0,0.0
288,71.0,240.0,15.0,0.0,0.0
289,81.0,0.0,240.0,0.0,0.0
290,74.0,0.0,15.0,0.0,0.0
291,71.0,0.0,15.0,0.0,0.0
292,65.0,0.0,15.0,0.0,0.0
293,62.0,240.0,15.0,0.0,0.0
294,67.0,0.0,15.0,0.0,0.0
295,71.0,0.0,15.0,0.0,0.0
296,65.0,0.0,15.0,0.0,0.0
297,62.0,0.0,15.0,0.0,0.0
298,67.0,0.0,240.0,0.0,0.0
299,77.0,0.0,240.0,0.0,0.0
300,74.0,240.0,15.0,0.0,0.0
301,76.0,0.0,720.0,0.0,0.0
302,45.0,240.0,240.0,0.0,0.0
303,73.0,0.0,240.0,0.0,0.0
304,69.0,0.0,240.0,0.0,0.0
305,67.0,0.0,240.0,0.0,0.0
306,57.0,0.0,15.0,0.0,0.0
307,67.0,240.0,240.0,0.0,0.0
308,73.0,0.0,240.0,0.0,0.0
309,69.0,0.0,240.0,0.0,0.0
310,64.0,240.0,15.0,0.0,0.0
311,50.0,240.0,240.0,0.0,0.0
312,77.0,0.0,960.0,0.0,0.0
313,65.0,0.0,240.0,0.0,0.0
314,69.0,0.0,240.0,0.0,0.0
315,57.0,240.0,240.0,0.0,0.0
316,62.0,0.0,240.0,0.0,0.0
317,72.0,0.0,15.0,0.0,0.0
318,57.0,240.0,240.0,0.0,0.0
319,62.0,0.0,240.0,0.0,0.0
320,69.0,0.0,240.0,0.0,0.0
321,65.0,0.0,240.0,0.0,0.0
322,55.0,240.0,240.0,0.0,0.0
323,62.0,0.0,240.0,0.0,0.0
324,57.0,240.0,240.0,0.0,0.0
325,72.0,0.0,240.0,0.0,0.0
326,69.0,0.0,15.0,0.0,0.0
327,65.0,0.0,15.0,0.0,0.0
328,57.0,0.0,240.0,0.0,0.0
329,62.0,0.0,240.0,0.0,0.0
330,43.0,0.0,240.0,0.0,0.0
331,76.0,240.0,240.0,0.0,0.0
332,55.0,0.0,240.0,0.0,0.0
333,62.0,0.0,240.0,0.0,0.0
334,74.0,120.0,360.0,0.0,0.0
335,71.0,120.0,240.0,0.0,0.0
336,67.0,0.0,15.0,0.0,0.0
337,65.0,0.0,15.0,0.0,0.0
338,55.0,0.0,240.0,0.0,0.0
339,62.0,0.0,240.0,0.0,0.0
340,71.0,0.0,240.0,0.0,0.0
341,72.0,0.0,120.0,0.0,0.0
342,48.0,240.0,240.0,0.0,0.0
343,72.0,240.0,1440.0,0.0,0.0
344,64.0,240.0,240.0,0.0,0.0
345,60.0,0.0,240.0,0.0,0.0
346,55.0,0.0,240.0,0.0,0.0
347,67.0,0.0,240.0,0.0,0.0
348,60.0,0.0,240.0,0.0,0.0
349,55.0,0.0,240.0,0.0,0.0
350,67.0,0.0,15.0,0.0,0.0
351,64.0,240.0,15.0,0.0,0.0
352,55.0,0.0,240.0,0.0,0.0
353,60.0,240.0,15.0,0.0,0.0
354,67.0,0.0,15.0,0.0,0.0
355,64.0,0.0,240.0,0.0,0.0
356,55.0,0.0,240.0,0.0,0.0
357,60.0,0.0,240.0,0.0,0.0
358,55.0,0.0,240.0,0.0,0.0
359,67.0,240.0,15.0,0.0,0.0
360,64.0,0.0,240.0,0.0,0.0
361,44.0,240.0,240.0,0.0,0.0
362,72.0,0.0,720.0,0.0,0.0
363,63.0,0.0,240.0,0.0,0.0
364,68.0,0.0,15.0,0.0,0.0
365,66.0,0.0,15.0,0.0,0.0
366,56.0,0.0,15.0,0.0,0.0
367,60.0,240.0,15.0,0.0,0.0
368,68.0,0.0,15.0,0.0,0.0
369,63.0,240.0,15.0,0.0,0.0
370,56.0,0.0,15.0,0.0,0.0
371,60.0,0.0,15.0,0.0,0.0
372,72.0,235.0,240.0,0.0,0.0
373,66.0,0.0,15.0,0.0,0.0
374,68.0,0.0,15.0,0.0,0.0
375,63.0,0.0,240.0,0.0,0.0
376,60.0,0.0,15.0,0.0,0.0
377,66.0,240.0,240.0,0.0,0.0
378,70.0,0.0,240.0,0.0,0.0
379,56.0,0.0,15.0,0.0,0.0
380,68.0,0.0,240.0,0.0,0.0
381,60.0,0.0,15.0,0.0,0.0
382,66.0,0.0,240.0,0.0,0.0
383,63.0,0.0,240.0,0.0,0.0
384,49.0,240.0,240.0,0.0,0.0
385,77.0,0.0,1440.0,0.0,0.0
386,56.0,0.0,240.0,0.0,0.0
387,61.0,0.0,240.0,0.0,0.0
388,68.0,0.0,240.0,0.0,0.0
389,65.0,240.0,240.0,0.0,0.0
390,73.0,0.0,15.0,0.0,0.0
391,57.0,0.0,240.0,0.0,0.0
392,69.0,240.0,240.0,0.0,0.0
393,73.0,0.0,15.0,0.0,0.0
394,65.0,0.0,15.0,0.0,0.0
395,61.0,0.0,15.0,0.0,0.0
396,57.0,0.0,240.0,0.0,0.0
397,69.0,240.0,240.0,0.0,0.0
398,73.0,0.0,15.0,0.0,0.0
399,65.0,0.0,15.0,0.0,0.0
400,58.0,0.0,240.0,0.0,0.0
401,70.0,0.0,240.0,0.0,0.0
402,61.0,0.0,15.0,0.0,0.0
403,59.0,0.0,240.0,0.0,0.0
404,71.0,0.0,240.0,0.0,0.0
405,65.0,0.0,240.0,0.0,0.0
406,73.0,0.0,240.0,0.0,0.0
407,77.0,0.0,720.0,0.0,0.0
408,48.0,240.0,240.0,0.0,0.0
409,72.0,0.0,240.0,0.0,0.0
410,65.0,0.0,240.0,0.0,0.0
411,64.0,0.0,240.0,0.0,0.0
412,76.0,0.0,240.0,0.0,0.0
413,70.0,240.0,15.0,0.0,0.0
414,67.0,0.0,15.0,0.0,0.0
415,60.0,0.0,15.0,0.0,0.0
416,72.0,0.0,15.0,0.0,0.0
417,76.0,0.0,240.0,0.0,0.0
418,70.0,240.0,15.0,0.0,0.0
419,67.0,0.0,15.0,0.0,0.0
420,60.0,0.0,15.0,0.0,0.0
421,64.0,0.0,15.0,0.0,0.0
422,74.0,0.0,240.0,0.0,0.0
423,70.0,240.0,15.0,0.0,0.0
424,67.0,0.0,15.0,0.0,0.0
425,60.0,0.0,15.0,0.0,0.0
426,64.0,0.0,15.0,0.0,0.0
427,72.0,0.0,240.0,0.0,0.0
428,67.0,240.0,240.0,0.0,0.0
429,60.0,0.0,15.0,0.0,0.0
430,70.0,240.0,15.0,0.0,0.0
431,53.0,240.0,240.0,0.0,0.0
432,59.0,0.0,240.0,0.0,0.0
433,65.0,0.0,240.0,0.0,0.0
434,71.0,0.0,240.0,0.0,0.0
435,68.0,240.0,240.0,0.0,0.0
436,77.0,0.0,15.0,0.0,0.0
437,72.0,0.0,240.0,0.0,0.0
438,60.0,0.0,240.0,0.0,0.0
439,68.0,240.0,240.0,0.0,0.0
440,65.0,0.0,240.0,0.0,0.0
441,60.0,0.0,240.0,0.0,0.0
442,72.0,0.0,240.0,0.0,0.0
443,68.0,240.0,240.0,0.0,0.0
444,77.0,0.0,240.0,0.0,0.0
445,65.0,0.0,15.0,0.0,0.0
446,68.0,240.0,240.0,0.0,0.0
447,77.0,0.0,240.0,0.0,0.0
448,73.0,0.0,240.0,0.0,0.0
449,61.0,0.0,240.0,0.0,0.0
450,62.0,0.0,240.0,0.0,0.0
451,74.0,0.0,240.0,0.0,0.0
452,64.0,240.0,240.0,0.0,0.0
453,68.0,0.0,240.0,0.0,0.0
454,76.0,0.0,240.0,0.0,0.0
455,51.0,240.0,240.0,0.0,0.0
456,80.0,0.0,15.0,0.0,0.0
457,63.0,0.0,240.0,0.0,0.0
458,70.0,0.0,240.0,0.0,0.0
459,73.0,0.0,240.0,0.0,0.0
460,68.0,240.0,240.0,0.0,0.0
461,70.0,240.0,240.0,0.0,0.0
462,63.0,0.0,240.0,0.0,0.0
463,79.0,0.0,240.0,0.0,0.0
464,75.0,0.0,15.0,0.0,0.0
465,73.0,0.0,240.0,0.0,0.0
466,79.0,0.0,240.0,0.0,0.0
467,75.0,0.0,15.0,0.0,0.0
468,67.0,0.0,15.0,0.0,0.0
469,75.0,0.0,15.0,0.0,0.0
470,77.0,0.0,240.0,0.0,0.0
471,73.0,240.0,15.0,0.0,0.0
472,63.0,0.0,15.0,0.0,0.0
473,70.0,0.0,15.0,0.0,0.0
474,65.0,0.0,240.0,0.0,0.0
475,67.0,0.0,240.0,0.0,0.0
476,73.0,0.0,240.0,0.0,0.0
477,63.0,0.0,240.0,0.0,0.0
478,75.0,240.0,240.0,0.0,0.0
479,70.0,0.0,240.0,0.0,0.0
480,56.0,240.0,240.0,0.0,0.0
481,63.0,0.0,240.0,0.0,0.0
482,75.0,0.0,240.0,0.0,0.0
483,68.0,0.0,240.0,0.0,0.0
484,72.0,0.0,240.0,0.0,0.0
485,74.0,0.0,240.0,0.0,0.0
486,68.0,0.0,240.0,0.0,0.0
487,78.0,240.0,15.0,0.0,0.0
488,62.0,0.0,240.0,0.0,0.0
489,84.0,0.0,15.0,0.0,0.0
490,72.0,0.0,240.0,0.0,0.0
491,55.0,0.0,240.0,0.0,0.0
492,84.0,240.0,240.0,0.0,0.0
493,67.0,0.0,240.0,0.0,0.0
494,83.0,0.0,240.0,0.0,0.0
495,71.0,0.0,240.0,0.0,0.0
496,74.0,0.0,240.0,0.0,0.0
497,79.0,0.0,15.0,0.0,0.0
498,71.0,0.0,240.0,0.0,0.0
499,67.0,0.0,240.0,0.0,0.0
500,62.0,240.0,15.0,0.0,0.0
501,74.0,0.0,240.0,0.0,0.0
502,54.0,240.0,240.0,0.0,0.0
503,82.0,0.0,480.0,0.0,0.0
504,76.0,0.0,240.0,0.0,0.0
505,70.0,0.0,240.0,0.0,0.0
506,61.0,0.0,240.0,0.0,0.0
507,66.0,240.0,240.0,0.0,0.0
508,73.0,0.0,240.0,0.0,0.0
509,76.0,0.0,240.0,0.0,0.0
510,70.0,0.0,240.0,0.0,0.0
511,60.0,0.0,240.0,0.0,0.0
512,66.0,0.0,240.0,0.0,0.0
513,72.0,0.0,240.0,0.0,0.0
514,82.0,240.0,15.0,0.0,0.0
515,53.0,240.0,240.0,0.0,0.0
516,77.0,0.0,240.0,0.0,0.0
517,81.0,0.0,240.0,0.0,0.0
518,69.0,0.0,240.0,0.0,0.0
519,65.0,0.0,15.0,0.0,0.0
520,72.0,240.0,15.0,0.0,0.0
521,69.0,0.0,240.0,0.0,0.0
522,77.0,240.0,240.0,0.0,0.0
523,60.0,0.0,15.0,0.0,0.0
524,52.0,0.0,240.0,0.0,0.0
525,80.0,240.0,240.0,0.0,0.0
526,64.0,0.0,240.0,0.0,0.0
527,71.0,0.0,240.0,0.0,0.0
528,59.0,0.0,240.0,0.0,0.0
529,67.0,240.0,240.0,0.0,0.0
530,74.0,0.0,240.0,0.0,0.0
531,79.0,0.0,240.0,0.0,0.0
532,58.0,240.0,240.0,0.0,0.0
533,64.0,0.0,240.0,0.0,0.0
534,70.0,0.0,240.0,0.0,0.0
535,68.0,0.0,240.0,0.0,0.0
536,80.0,0.0,240.0,0.0,0.0
537,74.0,0.0,240.0,0.0,0.0
538,84.0,0.0,480.0,0.0,0.0
539,51.0,240.0,240.0,0.0,0.0
540,75.0,0.0,240.0,0.0,0.0
541,68.0,0.0,240.0,0.0,0.0
542,63.0,0.0,240.0,0.0,0.0
543,80.0,0.0,240.0,0.0,0.0
544,72.0,240.0,240.0,0.0,0.0
545,82.0,0.0,240.0,0.0,0.0
546,63.0,0.0,240.0,0.0,0.0
547,73.0,0.0,240.0,0.0,0.0
548,67.0,0.0,240.0,0.0,0.0
549,75.0,0.0,240.0,0.0,0.0
550,70.0,240.0,240.0,0.0,0.0
551,44.0,240.0,240.0,0.0,0.0
552,80.0,240.0,1680.0,0.0,0.0
553,68.0,0.0,240.0,0.0,0.0
554,72.0,0.0,15.0,0.0,0.0
555,63.0,0.0,15.0,0.0,0.0
556,60.0,0.0,15.0,0.0,0.0
557,68.0,240.0,240.0,0.0,0.0
558,75.0,240.0,15.0,0.0,0.0
559,75.0,0.0,15.0,0.0,0.0
560,72.0,0.0,15.0,0.0,0.0
561,63.0,0.0,15.0,0.0,0.0
562,60.0,0.0,240.0,0.0,0.0
563,63.0,0.0,15.0,0.0,0.0
564,72.0,0.0,15.0,0.0,0.0
565,68.0,240.0,15.0,0.0,0.0
566,75.0,0.0,15.0,0.0,0.0
567,60.0,0.0,240.0,0.0,0.0
568,72.0,240.0,240.0,0.0,0.0
569,63.0,0.0,240.0,0.0,0.0
570,60.0,0.0,240.0,0.0,0.0
571,75.0,240.0,15.0,0.0,0.0
572,68.0,0.0,240.0,0.0,0.0
573,56.0,0.0,240.0,0.0,0.0
574,80.0,0.0,240.0,0.0,0.0
575,76.0,0.0,240.0,0.0,0.0
576,68.0,0.0,240.0,0.0,0.0
577,73.0,0.0,15.0,0.0,0.0
578,64.0,240.0,15.0,0.0,0.0
579,61.0,0.0,15.0,0.0,0.0
580,67.0,0.0,240.0,0.0,0.0
581,79.0,0.0,240.0,0.0,0.0
582,76.0,0.0,240.0,0.0,0.0
583,64.0,0.0,240.0,0.0,0.0
584,73.0,0.0,15.0,0.0,0.0
585,70.0,0.0,240.0,0.0,0.0
586,82.0,0.0,240.0,0.0,0.0
587,61.0,240.0,15.0,0.0,0.0
588,68.0,240.0,240.0,0.0,0.0
589,76.0,0.0,15.0,0.0,0.0
590,61.0,240.0,15.0,0.0,0.0
591,80.0,0.0,240.0,0.0,0.0
592,64.0,0.0,240.0,0.0,0.0
593,73.0,0.0,15.0,0.0,0.0
594,61.0,0.0,240.0,0.0,0.0
595,64.0,240.0,240.0,0.0,0.0
596,68.0,0.0,240.0,0.0,0.0
597,76.0,0.0,240.0,0.0,0.0
598,44.0,240.0,240.0,0.0,0.0
599,80.0,0.0,1680.0,0.0,0.0
600,72.0,0.0,240.0,0.0,0.0
601,63.0,0.0,240.0,0.0,0.0
602,75.0,0.0,15.0,0.0,0.0
603,68.0,0.0,15.0,0.0,0.0
604,63.0,0.0,240.0,0.0,0.0
605,72.0,240.0,240.0,0.0,0.0
606,60.0,240.0,15.0,0.0,0.0
607,60.0,0.0,240.0,0.0,0.0
608,63.0,0.0,240.0,0.0,0.0
609,68.0,0.0,15.0,0.0,0.0
610,75.0,0.0,15.0,0.0,0.0
611,72.0,240.0,15.0,0.0,0.0
612,68.0,0.0,15.0,0.0,0.0
613,72.0,240.0,15.0,0.0,0.0
614,75.0,0.0,15.0,0.0,0.0
615,60.0,0.0,15.0,0.0,0.0
616,63.0,0.0,15.0,0.0,0.0
617,56.0,240.0,240.0,0.0,0.0
618,76.0,0.0,240.0,0.0,0.0
619,68.0,0.0,240.0,0.0,0.0
620,80.0,0.0,240.0,0.0,0.0
621,61.0,0.0,240.0,0.0,0.0
622,73.0,0.0,240.0,0.0,0.0
623,76.0,0.0,240.0,0.0,0.0
624,79.0,0.0,240.0,0.0,0.0
625,67.0,0.0,240.0,0.0,0.0
626,64.0,240.0,15.0,0.0,0.0
627,64.0,0.0,15.0,0.0,0.0
628,73.0,0.0,15.0,0.0,0.0
629,76.0,0.0,240.0,0.0,0.0
630,70.0,0.0,240.0,0.0,0.0
631,82.0,0.0,240.0,0.0,0.0
632,61.0,240.0,15.0,0.0,0.0
633,68.0,0.0,240.0,0.0,0.0
634,76.0,0.0,240.0,0.0,0.0
635,80.0,240.0,240.0,0.0,0.0
636,61.0,0.0,240.0,0.0,0.0
637,64.0,0.0,240.0,0.0,0.0
638,73.0,0.0,240.0,0.0,0.0
639,73.0,240.0,240.0,0.0,0.0
640,64.0,0.0,240.0,0.0,0.0
641,76.0,0.0,240.0,0.0,0.0
642,68.0,0.0,240.0,0.0,0.0
643,61.0,0.0,240.0,0.0,0.0
644,80.0,240.0,2160.0,0.0,0.0
645,44.0,240.0,240.0,0.0,0.0
646,68.0,0.0,240.0,0.0,0.0
647,75.0,0.0,240.0,0.0,0.0
648,60.0,0.0,15.0,0.0,0.0
649,63.0,0.0,15.0,0.0,0.0
650,72.0,240.0,15.0,0.0,0.0
651,72.0,0.0,15.0,0.0,0.0
652,75.0,240.0,15.0,0.0,0.0
653,68.0,0.0,15.0,0.0,0.0
654,68.0,0.0,15.0,0.0,0.0
655,72.0,240.0,15.0,0.0,0.0
656,63.0,0.0,15.0,0.0,0.0
657,60.0,0.0,15.0,0.0,0.0
658,63.0,0.0,240.0,0.0,0.0
659,60.0,0.0,15.0,0.0,0.0
660,72.0,240.0,15.0,0.0,0.0
661,75.0,0.0,15.0,0.0,0.0
662,68.0,0.0,15.0,0.0,0.0
663,60.0,240.0,240.0,0.0,0.0
664,72.0,240.0,15.0,0.0,0.0
665,75.0,0.0,15.0,0.0,0.0
666,68.0,0.0,15.0,0.0,0.0
667,75.0,0.0,15.0,0.0,0.0
668,68.0,0.0,240.0,0.0,0.0
669,63.0,0.0,15.0,0.0,0.0
670,72.0,0.0,240.0,0.0,0.0
671,68.0,0.0,240.0,0.0,0.0
672,75.0,0.0,240.0,0.0,0.0
673,60.0,240.0,15.0,0.0,0.0
674,63.0,0.0,240.0,0.0,0.0
675,72.0,0.0,240.0,0.0,0.0
676,60.0,0.0,240.0,0.0,0.0
677,63.0,0.0,240.0,0.0,0.0
678,72.0,0.0,240.0,0.0,0.0
679,67.0,240.0,15.0,0.0,0.0
680,75.0,0.0,15.0,0.0,0.0
681,67.0,0.0,240.0,0.0,0.0
682,79.0,0.0,15.0,0.0,0.0
683,75.0,240.0,15.0,0.0,0.0
684,72.0,0.0,15.0,0.0,0.0
685,60.0,0.0,15.0,0.0,0.0
686,63.0,0.0,15.0,0.0,0.0
687,79.0,0.0,1440.0,0.0,0.0
688,67.0,0.0,240.0,0.0,0.0
689,75.0,0.0,240.0,0.0,0.0
690,72.0,240.0,15.0,0.0,0.0
691,63.0,0.0,15.0,0.0,0.0
692,60.0,0.0,15.0,0.0,0.0
693,75.0,240.0,240.0,0.0,0.0
694,67.0,0.0,240.0,0.0,0.0
695,60.0,0.0,240.0,0.0,0.0
696,63.0,0.0,240.0,0.0,0.0
697,72.0,0.0,240.0,0.0,0.0
698,72.0,0.0,240.0,0.0,0.0
699,60.0,240.0,240.0,0.0,0.0
700,63.0,0.0,240.0,0.0,0.0
701,75.0,0.0,240.0,0.0,0.0
702,67.0,0.0,240.0,0.0,0.0
703,75.0,0.0,240.0,0.0,0.0
704,60.0,0.0,240.0,0.0,0.0
705,72.0,240.0,15.0,0.0,0.0
706,63.0,0.0,15.0,0.0,0.0
707,60.0,0.0,240.0,0.0,0.0
708,67.0,0.0,15.0,0.0,0.0
709,75.0,0.0,15.0,0.0,0.0
710,67.0,240.0,15.0,0.0,0.0
711,63.0,0.0,15.0,0.0,0.0
712,60.0,240.0,15.0,0.0,0.0
713,72.0,0.0,15.0,0.0,0.0
714,75.0,0.0,15.0,0.0,0.0
715,78.0,0.0,1440.0,0.0,0.0
716,57.0,0.0,240.0,0.0,0.0
717,45.0,240.0,240.0,0.0,0.0
718,66.0,0.0,15.0,0.0,0.0
719,75.0,240.0,15.0,0.0,0.0
720,75.0,0.0,15.0,0.0,0.0
721,72.0,0.0,15.0,0.0,0.0
722,66.0,0.0,15.0,0.0,0.0
723,42.0,0.0,240.0,0.0,0.0
724,54.0,240.0,240.0,0.0,0.0
725,75.0,0.0,15.0,0.0,0.0
726,72.0,0.0,240.0,0.0,0.0
727,66.0,0.0,240.0,0.0,0.0
728,51.0,240.0,240.0,0.0,0.0
729,39.0,0.0,240.0,0.0,0.0
730,75.0,0.0,15.0,0.0,0.0
731,48.0,0.0,240.0,0.0,0.0
732,36.0,0.0,240.0,0.0,0.0
733,45.0,0.0,240.0,0.0,0.0
734,66.0,0.0,15.0,0.0,0.0
735,72.0,240.0,15.0,0.0,0.0
736,75.0,0.0,240.0,0.0,0.0
737,33.0,240.0,240.0,0.0,0.0
738,31.0,240.0,240.0,0.0,0.0
739,43.0,0.0,240.0,0.0,0.0
740,65.0,0.0,240.0,0.0,0.0
741,71.0,0.0,15.0,0.0,0.0
742,65.0,0.0,240.0,0.0,0.0
743,71.0,240.0,15.0,0.0,0.0
744,67.0,0.0,15.0,0.0,0.0
745,62.0,0.0,15.0,0.0,0.0
746,55.0,0.0,15.0,0.0,0.0
747,76.0,0.0,240.0,0.0,0.0
748,65.0,0.0,240.0,0.0,0.0
749,77.0,0.0,240.0,0.0,0.0
750,62.0,0.0,15.0,0.0,0.0
751,67.0,240.0,15.0,0.0,0.0
752,65.0,240.0,240.0,0.0,0.0
753,71.0,0.0,240.0,0.0,0.0
754,67.0,0.0,15.0,0.0,0.0
755,55.0,0.0,15.0,0.0,0.0
756,65.0,0.0,240.0,0.0,0.0
757,69.0,240.0,240.0,0.0,0.0
758,55.0,0.0,15.0,0.0,0.0
759,67.0,0.0,15.0,0.0,0.0
760,62.0,0.0,15.0,0.0,0.0
761,65.0,0.0,240.0,0.0,0.0
762,71.0,0.0,240.0,0.0,0.0
763,74.0,0.0,720.0,0.0,0.0
764,48.0,0.0,240.0,0.0,0.0
765,36.0,240.0,240.0,0.0,0.0
766,67.0,0.0,240.0,0.0,0.0
767,55.0,0.0,240.0,0.0,0.0
768,60.0,0.0,240.0,0.0,0.0
769,70.0,0.0,240.0,0.0,0.0
770,64.0,240.0,15.0,0.0,0.0
771,55.0,0.0,240.0,0.0,0.0
772,60.0,0.0,240.0,0.0,0.0
773,67.0,0.0,240.0,0.0,0.0
774,72.0,0.0,960.0,0.0,0.0
775,64.0,240.0,15.0,0.0,0.0
776,70.0,0.0,15.0,0.0,0.0
777,67.0,240.0,15.0,0.0,0.0
778,60.0,0.0,15.0,0.0,0.0
779,55.0,0.0,15.0,0.0,0.0
780,70.0,0.0,15.0,0.0,0.0
781,64.0,0.0,15.0,0.0,0.0
782,67.0,0.0,15.0,0.0,0.0
783,60.0,0.0,15.0,0.0,0.0
784,55.0,240.0,15.0,0.0,0.0
785,29.0,0.0,240.0,0.0,0.0
786,41.0,240.0,240.0,0.0,0.0
787,57.0,0.0,240.0,0.0,0.0
788,60.0,0.0,15.0,0.0,0.0
789,72.0,0.0,15.0,0.0,0.0
790,83.0,0.0,240.0,0.0,0.0
791,77.0,0.0,15.0,0.0,0.0
792,65.0,240.0,15.0,0.0,0.0
793,69.0,0.0,15.0,0.0,0.0
794,57.0,0.0,240.0,0.0,0.0
795,60.0,0.0,15.0,0.0,0.0
796,69.0,0.0,15.0,0.0,0.0
797,86.0,0.0,240.0,0.0,0.0
798,65.0,0.0,15.0,0.0,0.0
799,60.0,0.0,15.0,0.0,0.0
800,57.0,0.0,15.0,0.0,0.0
801,72.0,240.0,15.0,0.0,0.0
802,77.0,0.0,15.0,0.0,0.0
803,84.0,0.0,240.0,0.0,0.0
804,69.0,0.0,15.0,0.0,0.0
805,65.0,0.0,15.0,0.0,0.0
806,60.0,0.0,15.0,0.0,0.0
807,57.0,0.0,15.0,0.0,0.0
808,81.0,0.0,240.0,0.0,0.0
809,77.0,240.0,15.0,0.0,0.0
810,72.0,0.0,240.0,0.0,0.0
811,43.0,0.0,240.0,0.0,0.0
812,31.0,240.0,240.0,0.0,0.0
813,79.0,0.0,720.0,0.0,0.0
814,62.0,0.0,240.0,0.0,0.0
815,67.0,240.0,15.0,0.0,0.0
816,74.0,0.0,15.0,0.0,0.0
817,71.0,0.0,15.0,0.0,0.0
818,62.0,0.0,240.0,0.0,0.0
819,59.0,0.0,15.0,0.0,0.0
820,45.0,240.0,240.0,0.0,0.0
821,81.0,0.0,960.0,0.0,0.0
822,33.0,0.0,240.0,0.0,0.0
823,69.0,0.0,240.0,0.0,0.0
824,60.0,0.0,240.0,0.0,0.0
825,57.0,0.0,240.0,0.0,0.0
826,65.0,240.0,240.0,0.0,0.0
827,69.0,0.0,240.0,0.0,0.0
828,77.0,0.0,15.0,0.0,0.0
829,72.0,0.0,15.0,0.0,0.0
830,57.0,0.0,240.0,0.0,0.0
831,60.0,0.0,240.0,0.0,0.0
832,65.0,0.0,240.0,0.0,0.0
833,31.0,0.0,240.0,0.0,0.0
834,43.0,240.0,240.0,0.0,0.0
835,74.0,240.0,240.0,0.0,0.0
836,59.0,0.0,240.0,0.0,0.0
837,65.0,0.0,240.0,0.0,0.0
838,71.0,0.0,240.0,0.0,0.0
839,62.0,0.0,15.0,0.0,0.0
840,65.0,0.0,240.0,0.0,0.0
841,79.0,240.0,240.0,0.0,0.0
842,67.0,0.0,15.0,0.0,0.0
843,59.0,0.0,15.0,0.0,0.0
844,62.0,0.0,240.0,0.0,0.0
845,71.0,0.0,15.0,0.0,0.0
846,83.0,0.0,240.0,0.0,0.0
847,74.0,0.0,15.0,0.0,0.0
848,74.0,0.0,240.0,0.0,0.0
849,81.0,0.0,240.0,0.0,0.0
850,65.0,240.0,15.0,0.0,0.0
851,67.0,0.0,240.0,0.0,0.0
852,59.0,0.0,240.0,0.0,0.0
853,62.0,240.0,15.0,0.0,0.0
854,71.0,0.0,15.0,0.0,0.0
855,59.0,0.0,240.0,0.0,0.0
856,65.0,0.0,240.0,0.0,0.0
857,67.0,0.0,240.0,0.0,0.0
858,77.0,0.0,240.0,0.0,0.0
859,74.0,0.0,240.0,0.0,0.0
860,76.0,240.0,720.0,0.0,0.0
861,33.0,240.0,240.0,0.0,0.0
862,45.0,0.0,240.0,0.0,0.0
863,69.0,0.0,15.0,0.0,0.0
864,64.0,0.0,15.0,0.0,0.0
865,57.0,240.0,15.0,0.0,0.0
866,73.0,0.0,15.0,0.0,0.0
867,67.0,0.0,15.0,0.0,0.0
868,50.0,0.0,240.0,0.0,0.0
869,77.0,0.0,960.0,0.0,0.0
870,38.0,240.0,240.0,0.0,0.0
871,62.0,0.0,240.0,0.0,0.0
872,72.0,240.0,15.0,0.0,0.0
873,65.0,0.0,15.0,0.0,0.0
874,69.0,0.0,15.0,0.0,0.0
875,57.0,0.0,15.0,0.0,0.0
876,62.0,0.0,240.0,0.0,0.0
877,55.0,0.0,240.0,0.0,0.0
878,43.0,240.0,240.0,0.0,0.0
879,57.0,0.0,240.0,0.0,0.0
880,62.0,0.0,240.0,0.0,0.0
881,69.0,0.0,240.0,0.0,0.0
882,72.0,0.0,240.0,0.0,0.0
883,55.0,0.0,240.0,0.0,0.0
884,62.0,0.0,240.0,0.0,0.0
885,67.0,0.0,240.0,0.0,0.0
886,74.0,0.0,240.0,0.0,0.0
887,71.0,240.0,240.0,0.0,0.0
888,65.0,240.0,15.0,0.0,0.0
889,48.0,0.0,240.0,0.0,0.0
890,77.0,0.0,240.0,0.0,0.0
891,65.0,0.0,15.0,0.0,0.0
892,72.0,240.0,15.0,0.0,0.0
893,60.0,0.0,240.0,0.0,0.0
894,67.0,0.0,240.0,0.0,0.0
895,76.0,0.0,240.0,0.0,0.0
896,64.0,240.0,240.0,0.0,0.0
897,55.0,0.0,15.0,0.0,0.0
898,69.0,0.0,240.0,0.0,0.0
899,60.0,0.0,240.0,0.0,0.0
900,67.0,240.0,240.0,0.0,0.0
901,72.0,0.0,240.0,0.0,0.0
902,64.0,0.0,240.0,0.0,0.0
903,43.0,240.0,240.0,0.0,0.0
904,74.0,0.0,1440.0,0.0,0.0
905,62.0,0.0,240.0,0.0,0.0
906,55.0,240.0,240.0,0.0,0.0
907,71.0,0.0,15.0,0.0,0.0
908,62.0,0.0,240.0,0.0,0.0
909,67.0,0.0,15.0,0.0,0.0
910,55.0,240.0,15.0,0.0,0.0
911,62.0,0.0,240.0,0.0,0.0
912,71.0,0.0,240.0,0.0,0.0
913,67.0,0.0,240.0,0.0,0.0
914,62.0,0.0,240.0,0.0,0.0
915,55.0,240.0,15.0,0.0,0.0
916,71.0,0.0,15.0,0.0,0.0
917,62.0,0.0,240.0,0.0,0.0
918,67.0,0.0,15.0,0.0,0.0
919,55.0,0.0,240.0,0.0,0.0
920,43.0,240.0,240.0,0.0,0.0
921,63.0,0.0,240.0,0.0,0.0
922,61.0,0.0,15.0,0.0,0.0
923,55.0,0.0,15.0,0.0,0.0
924,67.0,120.0,15.0,0.0,0.0
925,70.0,0.0,15.0,0.0,0.0
926,75.0,60.0,15.0,0.0,0.0
927,77.0,0.0,60.0,0.0,0.0
928,70.0,0.0,15.0,0.0,0.0
929,63.0,0.0,15.0,0.0,0.0
930,75.0,0.0,240.0,0.0,0.0
931,61.0,240.0,15.0,0.0,0.0
932,67.0,0.0,15.0,0.0,0.0
933,55.0,0.0,15.0,0.0,0.0
934,70.0,0.0,15.0,0.0,0.0
935,61.0,0.0,240.0,0.0,0.0
936,62.0,0.0,240.0,0.0,0.0
937,74.0,0.0,240.0,0.0,0.0
938,55.0,0.0,15.0,0.0,0.0
939,67.0,0.0,15.0,0.0,0.0
940,61.0,0.0,240.0,0.0,0.0
941,75.0,0.0,240.0,0.0,0.0
942,63.0,240.0,240.0,0.0,0.0
943,70.0,240.0,15.0,0.0,0.0
944,44.0,240.0,240.0,0.0,0.0
945,77.0,0.0,720.0,0.0,0.0
946,68.0,0.0,240.0,0.0,0.0
947,60.0,0.0,240.0,0.0,0.0
948,56.0,240.0,15.0,0.0,0.0
949,65.0,0.0,15.0,0.0,0.0
950,72.0,0.0,15.0,0.0,0.0
951,75.0,240.0,480.0,0.0,0.0
952,72.0,0.0,15.0,0.0,0.0
953,63.0,0.0,240.0,0.0,0.0
954,68.0,240.0,15.0,0.0,0.0
955,60.0,0.0,15.0,0.0,0.0
956,56.0,0.0,15.0,0.0,0.0
957,72.0,0.0,15.0,0.0,0.0
958,60.0,0.0,240.0,0.0,0.0
959,67.0,0.0,240.0,0.0,0.0
960,60.0,0.0,240.0,0.0,0.0
961,56.0,0.0,15.0,0.0,0.0
962,65.0,0.0,240.0,0.0,0.0
963,72.0,0.0,15.0,0.0,0.0
964,39.0,240.0,240.0,0.0,0.0
965,51.0,0.0,240.0,0.0,0.0
966,75.0,0.0,15.0,0.0,0.0
967,70.0,0.0,240.0,0.0,0.0
968,73.0,0.0,240.0,0.0,0.0
969,67.0,0.0,15.0,0.0,0.0
970,63.0,0.0,15.0,0.0,0.0
971,77.0,0.0,240.0,0.0,0.0
972,73.0,0.0,15.0,0.0,0.0
973,67.0,0.0,15.0,0.0,0.0
974,63.0,0.0,15.0,0.0,0.0
975,75.0,0.0,15.0,0.0,0.0
976,79.0,0.0,240.0,0.0,0.0
977,70.0,240.0,15.0,0.0,0.0
978,70.0,240.0,15.0,0.0,0.0
979,65.0,0.0,240.0,0.0,0.0
980,73.0,0.0,240.0,0.0,0.0
981,80.0,0.0,240.0,0.0,0.0
982,75.0,0.0,240.0,0.0,0.0
983,63.0,240.0,15.0,0.0,0.0
984,67.0,0.0,240.0,0.0,0.0
985,73.0,0.0,240.0,0.0,0.0
986,75.0,0.0,240.0,0.0,0.0
987,82.0,0.0,240.0,0.0,0.0
988,70.0,0.0,240.0,0.0,0.0
989,84.0,0.0,1680.0,0.0,0.0
990,56.0,0.0,240.0,0.0,0.0
991,44.0,240.0,240.0,0.0,0.0
992,63.0,0.0,240.0,0.0,0.0
993,68.0,0.0,15.0,0.0,0.0
994,80.0,0.0,15.0,0.0,0.0
995,72.0,0.0,15.0,0.0,0.0
996,75.0,240.0,15.0,0.0,0.0
997,80.0,0.0,15.0,0.0,0.0
998,72.0,0.0,15.0,0.0,0.0
999,63.0,240.0,15.0,0.0,0.0
1000,68.0,0.0,240.0,0.0,0.0
1001,72.0,0.0,15.0,0.0,0.0
1002,75.0,0.0,15.0,0.0,0.0
1003,80.0,0.0,15.0,0.0,0.0
1004,55.0,240.0,240.0,0.0,0.0
1005,43.0,0.0,240.0,0.0,0.0
1006,80.0,0.0,15.0,0.0,0.0
1007,75.0,0.0,15.0,0.0,0.0
1008,72.0,0.0,15.0,0.0,0.0
1009,54.0,0.0,240.0,0.0,0.0
1010,42.0,240.0,240.0,0.0,0.0
1011,41.0,240.0,240.0,0.0,0.0
1012,53.0,0.0,240.0,0.0,0.0
1013,63.0,0.0,240.0,0.0,0.0
1014,57.0,0.0,240.0,0.0,0.0
1015,57.0,240.0,240.0,0.0,0.0
1016,63.0,0.0,240.0,0.0,0.0
1017,69.0,180.0,15.0,0.0,0.0
1018,65.0,0.0,15.0,0.0,0.0
1019,77.0,60.0,60.0,0.0,0.0
1020,79.0,0.0,60.0,0.0,0.0
1021,77.0,0.0,15.0,0.0,0.0
1022,65.0,0.0,15.0,0.0,0.0
1023,72.0,0.0,15.0,0.0,0.0
1024,57.0,240.0,240.0,0.0,0.0
1025,72.0,0.0,15.0,0.0,0.0
1026,69.0,0.0,15.0,0.0,0.0
1027,63.0,0.0,15.0,0.0,0.0
1028,64.0,240.0,240.0,0.0,0.0
1029,76.0,0.0,240.0,0.0,0.0
1030,72.0,0.0,15.0,0.0,0.0
1031,77.0,0.0,240.0,0.0,0.0
1032,63.0,0.0,15.0,0.0,0.0
1033,57.0,0.0,15.0,0.0,0.0
1034,69.0,0.0,15.0,0.0,0.0
1035,65.0,0.0,240.0,0.0,0.0
1036,79.0,0.0,720.0,0.0,0.0
1037,46.0,240.0,240.0,0.0,0.0
1038,58.0,0.0,240.0,0.0,0.0
1039,70.0,0.0,240.0,0.0,0.0
1040,62.0,240.0,15.0,0.0,0.0
1041,70.0,0.0,240.0,0.0,0.0
1042,58.0,0.0,240.0,0.0,0.0
1043,74.0,0.0,15.0,0.0,0.0
1044,65.0,0.0,15.0,0.0,0.0
1045,62.0,0.0,15.0,0.0,0.0
1046,70.0,0.0,240.0,0.0,0.0
1047,65.0,0.0,15.0,0.0,0.0
1048,74.0,240.0,15.0,0.0,0.0
1049,65.0,0.0,15.0,0.0,0.0
1050,74.0,0.0,15.0,0.0,0.0
1051,62.0,0.0,15.0,0.0,0.0
1052,58.0,240.0,15.0,0.0,0.0
1053,69.0,0.0,240.0,0.0,0.0
1054,65.0,0.0,15.0,0.0,0.0
1055,74.0,0.0,15.0,0.0,0.0
1056,62.0,0.0,240.0,0.0,0.0
1057,58.0,0.0,240.0,0.0,0.0
1058,67.0,0.0,240.0,0.0,0.0
1059,41.0,0.0,240.0,0.0,0.0
1060,53.0,0.0,240.0,0.0,0.0
1061,77.0,0.0,15.0,0.0,0.0
1062,72.0,0.0,240.0,0.0,0.0
1063,63.0,0.0,240.0,0.0,0.0
1064,69.0,240.0,240.0,0.0,0.0
1065,77.0,240.0,15.0,0.0,0.0
1066,75.0,0.0,240.0,0.0,0.0
1067,65.0,0.0,240.0,0.0,0.0
1068,60.0,0.0,15.0,0.0,0.0
1069,79.0,0.0,240.0,0.0,0.0
1070,75.0,0.0,240.0,0.0,0.0
1071,69.0,240.0,240.0,0.0,0.0
1072,65.0,0.0,240.0,0.0,0.0
1073,72.0,0.0,15.0,0.0,0.0
1074,63.0,0.0,15.0,0.0,0.0
1075,60.0,0.0,15.0,0.0,0.0
1076,81.0,240.0,240.0,0.0,0.0
1077,69.0,0.0,240.0,0.0,0.0
1078,75.0,0.0,240.0,0.0,0.0
1079,60.0,0.0,15.0,0.0,0.0
1080,65.0,0.0,15.0,0.0,0.0
1081,82.0,0.0,240.0,0.0,0.0
1082,75.0,0.0,240.0,0.0,0.0
1083,77.0,0.0,240.0,0.0,0.0
1084,70.0,0.0,240.0,0.0,0.0
1085,67.0,0.0,240.0,0.0,0.0
1086,84.0,0.0,240.0,0.0,0.0
1087,75.0,0.0,240.0,0.0,0.0
1088,77.0,0.0,240.0,0.0,0.0
1089,72.0,0.0,240.0,0.0,0.0
1090,63.0,0.0,15.0,0.0,0.0
1091,69.0,0.0,240.0,0.0,0.0
1092,60.0,240.0,15.0,0.0,0.0
1093,65.0,0.0,15.0,0.0,0.0
1094,86.0,0.0,1440.0,0.0,0.0
1095,46.0,240.0,240.0,0.0,0.0
1096,82.0,0.0,240.0,0.0,0.0
1097,74.0,0.0,240.0,0.0,0.0
1098,65.0,0.0,240.0,0.0,0.0
1099,58.0,240.0,240.0,0.0,0.0
1100,70.0,0.0,240.0,0.0,0.0
1101,82.0,0.0,240.0,0.0,0.0
1102,65.0,0.0,240.0,0.0,0.0
1103,70.0,0.0,240.0,0.0,0.0
1104,58.0,0.0,15.0,0.0,0.0
1105,46.0,0.0,240.0,0.0,0.0
1106,74.0,240.0,15.0,0.0,0.0
1107,77.0,0.0,240.0,0.0,0.0
1108,82.0,0.0,240.0,0.0,0.0
1109,74.0,0.0,240.0,0.0,0.0
1110,77.0,0.0,240.0,0.0,0.0
1111,82.0,0.0,240.0,0.0,0.0
1112,57.0,240.0,240.0,0.0,0.0
1113,45.0,0.0,240.0,0.0,0.0
1114,56.0,0.0,240.0,0.0,0.0
1115,74.0,0.0,240.0,0.0,0.0
1116,77.0,240.0,240.0,0.0,0.0
1117,82.0,0.0,240.0,0.0,0.0
1118,44.0,0.0,240.0,0.0,0.0
1119,87.0,0.0,720.0,0.0,0.0
1120,43.0,0.0,240.0,0.0,0.0
1121,55.0,240.0,240.0,0.0,0.0
1122,75.0,0.0,240.0,0.0,0.0
1123,82.0,0.0,240.0,0.0,0.0
1124,73.0,0.0,240.0,0.0,0.0
1125,63.0,0.0,15.0,0.0,0.0
1126,70.0,240.0,15.0,0.0,0.0
1127,75.0,0.0,240.0,0.0,0.0
1128,82.0,0.0,240.0,0.0,0.0
1129,73.0,0.0,240.0,0.0,0.0
1130,84.0,240.0,720.0,0.0,0.0
1131,56.0,240.0,240.0,0.0,0.0
1132,72.0,0.0,15.0,0.0,0.0
1133,80.0,0.0,15.0,0.0,0.0
1134,75.0,240.0,15.0,0.0,0.0
1135,68.0,0.0,15.0,0.0,0.0
1136,63.0,0.0,15.0,0.0,0.0
1137,54.0,240.0,240.0,0.0,0.0
1138,86.0,0.0,720.0,0.0,0.0
1139,69.0,0.0,240.0,0.0,0.0
1140,81.0,0.0,240.0,0.0,0.0
1141,62.0,0.0,240.0,0.0,0.0
1142,74.0,0.0,15.0,0.0,0.0
1143,81.0,0.0,240.0,0.0,0.0
1144,72.0,240.0,15.0,0.0,0.0
1145,62.0,0.0,240.0,0.0,0.0
1146,69.0,0.0,240.0,0.0,0.0
1147,55.0,240.0,240.0,0.0,0.0
1148,83.0,0.0,720.0,0.0,0.0
1149,67.0,0.0,240.0,0.0,0.0
1150,74.0,240.0,15.0,0.0,0.0
1151,71.0,0.0,15.0,0.0,0.0
1152,79.0,0.0,15.0,0.0,0.0
1153,62.0,0.0,15.0,0.0,0.0
1154,67.0,0.0,240.0,0.0,0.0
1155,53.0,240.0,240.0,0.0,0.0
1156,85.0,0.0,720.0,0.0,0.0
1157,80.0,0.0,240.0,0.0,0.0
1158,71.0,0.0,240.0,0.0,0.0
1159,61.0,0.0,240.0,0.0,0.0
1160,73.0,0.0,240.0,0.0,0.0
1161,71.0,0.0,240.0,0.0,0.0
1162,73.0,0.0,240.0,0.0,0.0
1163,61.0,0.0,240.0,0.0,0.0
1164,68.0,240.0,15.0,0.0,0.0
1165,80.0,240.0,240.0,0.0,0.0
1166,82.0,0.0,2160.0,0.0,0.0
1167,54.0,240.0,240.0,0.0,0.0
1168,66.0,0.0,240.0,0.0,0.0
1169,78.0,0.0,240.0,0.0,0.0
1170,61.0,0.0,15.0,0.0,0.0
1171,73.0,240.0,15.0,0.0,0.0
1172,70.0,0.0,15.0,0.0,0.0
1173,77.0,0.0,240.0,0.0,0.0
1174,73.0,240.0,15.0,0.0,0.0
1175,66.0,0.0,15.0,0.0,0.0
1176,61.0,0.0,15.0,0.0,0.0
1177,70.0,0.0,15.0,0.0,0.0
1178,73.0,0.0,15.0,0.0,0.0
1179,70.0,240.0,240.0,0.0,0.0
1180,76.0,0.0,15.0,0.0,0.0
1181,54.0,0.0,240.0,0.0,0.0
1182,42.0,0.0,240.0,0.0,0.0
1183,41.0,0.0,240.0,0.0,0.0
1184,70.0,0.0,240.0,0.0,0.0
1185,73.0,0.0,240.0,0.0,0.0
1186,53.0,240.0,240.0,0.0,0.0
1187,77.0,0.0,240.0,0.0,0.0
1188,73.0,0.0,240.0,0.0,0.0
1189,70.0,0.0,240.0,0.0,0.0
1190,78.0,0.0,240.0,0.0,0.0
1191,40.0,0.0,240.0,0.0,0.0
1192,40.0,240.0,240.0,0.0,0.0
1193,52.0,240.0,15.0,0.0,0.0
1194,73.0,0.0,240.0,0.0,0.0
1195,70.0,0.0,240.0,0.0,0.0
1196,78.0,0.0,240.0,0.0,0.0
1197,73.0,0.0,240.0,0.0,0.0
1198,70.0,0.0,240.0,0.0,0.0
1199,39.0,0.0,240.0,0.0,0.0
1200,51.0,240.0,240.0,0.0,0.0
1201,79.0,0.0,240.0,0.0,0.0
1202,83.0,0.0,960.0,0.0,0.0
1203,50.0,240.0,240.0,0.0,0.0
1204,38.0,0.0,240.0,0.0,0.0
1205,67.0,0.0,240.0,0.0,0.0
1206,62.0,0.0,240.0,0.0,0.0
1207,79.0,0.0,15.0,0.0,0.0
1208,71.0,0.0,15.0,0.0,0.0
1209,67.0,0.0,240.0,0.0,0.0
1210,74.0,240.0,15.0,0.0,0.0
1211,62.0,0.0,15.0,0.0,0.0
1212,71.0,0.0,240.0,0.0,0.0
1213,77.0,0.0,240.0,0.0,0.0
1214,77.0,0.0,240.0,0.0,0.0
1215,84.0,0.0,240.0,0.0,0.0
1216,74.0,240.0,15.0,0.0,0.0
1217,68.0,0.0,15.0,0.0,0.0
1218,62.0,0.0,15.0,0.0,0.0
1219,71.0,0.0,240.0,0.0,0.0
1220,74.0,240.0,15.0,0.0,0.0
1221,68.0,0.0,15.0,0.0,0.0
1222,62.0,0.0,240.0,0.0,0.0
1223,77.0,0.0,240.0,0.0,0.0
1224,71.0,0.0,240.0,0.0,0.0
1225,80.0,120.0,240.0,0.0,0.0
1226,50.0,0.0,240.0,0.0,0.0
1227,83.0,60.0,120.0,0.0,0.0
1228,81.0,60.0,60.0,0.0,0.0
1229,83.0,240.0,60.0,0.0,0.0
1230,81.0,240.0,240.0,0.0,0.0
1231,78.0,0.0,240.0,0.0,0.0
1232,74.0,0.0,15.0,0.0,0.0
1233,69.0,0.0,15.0,0.0,0.0
1234,62.0,0.0,15.0,0.0,0.0
1235,72.0,0.0,15.0,0.0,0.0
1236,80.0,0.0,240.0,0.0,0.0
1237,78.0,0.0,240.0,0.0,0.0
1238,74.0,0.0,15.0,0.0,0.0
1239,62.0,0.0,240.0,0.0,0.0
1240,69.0,0.0,240.0,0.0,0.0
1241,81.0,240.0,240.0,0.0,0.0
1242,69.0,0.0,240.0,0.0,0.0
1243,74.0,0.0,240.0,0.0,0.0
1244,78.0,0.0,15.0,0.0,0.0
1245,83.0,0.0,240.0,0.0,0.0
1246,72.0,0.0,15.0,0.0,0.0
1247,62.0,0.0,15.0,0.0,0.0
1248,69.0,0.0,240.0,0.0,0.0
1249,74.0,0.0,240.0,0.0,0.0
1250,72.0,240.0,15.0,0.0,0.0
1251,78.0,0.0,240.0,0.0,0.0
1252,79.0,0.0,1680.0,0.0,0.0
1253,43.0,240.0,240.0,0.0,0.0
1254,59.0,0.0,240.0,0.0,0.0
1255,62.0,0.0,240.0,0.0,0.0
1256,59.0,0.0,240.0,0.0,0.0
1257,71.0,240.0,15.0,0.0,0.0
1258,74.0,0.0,15.0,0.0,0.0
1259,67.0,0.0,15.0,0.0,0.0
1260,62.0,0.0,15.0,0.0,0.0
1261,59.0,0.0,240.0,0.0,0.0
1262,71.0,0.0,240.0,0.0,0.0
1263,74.0,0.0,15.0,0.0,0.0
1264,67.0,0.0,15.0,0.0,0.0
1265,62.0,240.0,15.0,0.0,0.0
1266,71.0,240.0,15.0,0.0,0.0
1267,74.0,0.0,240.0,0.0,0.0
1268,59.0,0.0,15.0,0.0,0.0
1269,62.0,0.0,15.0,0.0,0.0
1270,67.0,0.0,15.0,0.0,0.0
1271,55.0,240.0,240.0,0.0,0.0
1272,79.0,0.0,240.0,0.0,0.0
1273,75.0,0.0,15.0,0.0,0.0
1274,67.0,0.0,240.0,0.0,0.0
1275,60.0,0.0,240.0,0.0,0.0
1276,63.0,0.0,240.0,0.0,0.0
1277,60.0,0.0,240.0,0.0,0.0
1278,78.0,0.0,240.0,0.0,0.0
1279,66.0,0.0,240.0,0.0,0.0
1280,63.0,0.0,240.0,0.0,0.0
1281,72.0,240.0,15.0,0.0,0.0
1282,69.0,0.0,240.0,0.0,0.0
1283,81.0,0.0,240.0,0.0,0.0
1284,75.0,240.0,15.0,0.0,0.0
1285,60.0,240.0,240.0,0.0,0.0
1286,79.0,0.0,240.0,0.0,0.0
1287,72.0,0.0,15.0,0.0,0.0
1288,63.0,0.0,15.0,0.0,0.0
1289,60.0,0.0,240.0,0.0,0.0
1290,72.0,240.0,15.0,0.0,0.0
1291,75.0,0.0,15.0,0.0,0.0
1292,67.0,0.0,15.0,0.0,0.0
1293,63.0,0.0,15.0,0.0,0.0
1294,60.0,0.0,240.0,0.0,0.0
1295,43.0,240.0,240.0,0.0,0.0
1296,71.0,240.0,240.0,0.0,0.0
1297,67.0,0.0,240.0,0.0,0.0
1298,74.0,0.0,240.0,0.0,0.0
1299,74.0,0.0,240.0,0.0,0.0
1300,67.0,240.0,240.0,0.0,0.0
1301,62.0,0.0,15.0,0.0,0.0
1302,59.0,0.0,15.0,0.0,0.0
1303,71.0,0.0,15.0,0.0,0.0
1304,67.0,0.0,240.0,0.0,0.0
1305,74.0,0.0,240.0,0.0,0.0
1306,62.0,0.0,15.0,0.0,0.0
1307,59.0,0.0,15.0,0.0,0.0
1308,67.0,0.0,15.0,0.0,0.0
1309,74.0,0.0,15.0,0.0,0.0
1310,62.0,0.0,15.0,0.0,0.0
1311,59.0,0.0,240.0,0.0,0.0
1312,71.0,240.0,15.0,0.0,0.0
1313,75.0,0.0,240.0,0.0,0.0
1314,55.0,0.0,240.0,0.0,0.0
1315,67.0,240.0,240.0,0.0,0.0
1316,79.0,0.0,15.0,0.0,0.0
1317,75.0,0.0,240.0,0.0,0.0
1318,67.0,0.0,240.0,0.0,0.0
1319,78.0,0.0,240.0,0.0,0.0
1320,66.0,240.0,240.0,0.0,0.0
1321,75.0,0.0,240.0,0.0,0.0
1322,72.0,240.0,15.0,0.0,0.0
1323,63.0,0.0,15.0,0.0,0.0
1324,60.0,0.0,15.0,0.0,0.0
1325,72.0,0.0,15.0,0.0,0.0
1326,81.0,0.0,240.0,0.0,0.0
1327,75.0,0.0,240.0,0.0,0.0
1328,69.0,0.0,240.0,0.0,0.0
1329,63.0,0.0,15.0,0.0,0.0
1330,60.0,0.0,15.0,0.0,0.0
1331,75.0,0.0,240.0,0.0,0.0
1332,67.0,0.0,240.0,0.0,0.0
1333,79.0,0.0,240.0,0.0,0.0
1334,63.0,0.0,240.0,0.0,0.0
1335,72.0,0.0,240.0,0.0,0.0
1336,72.0,0.0,240.0,0.0,0.0
1337,60.0,240.0,15.0,0.0,0.0
1338,63.0,0.0,240.0,0.0,0.0
1339,75.0,240.0,240.0,0.0,0.0
1340,67.0,0.0,240.0,0.0,0.0
1341,43.0,240.0,240.0,0.0,0.0
1342,79.0,0.0,2880.0,0.0,0.0
1343,59.0,240.0,240.0,0.0,0.0
1344,71.0,0.0,240.0,0.0,0.0
1345,74.0,0.0,240.0,0.0,0.0
1346,67.0,0.0,240.0,0.0,0.0
1347,62.0,0.0,15.0,0.0,0.0
1348,67.0,0.0,240.0,0.0,0.0
1349,71.0,0.0,240.0,0.0,0.0
1350,59.0,0.0,240.0,0.0,0.0
1351,59.0,0.0,240.0,0.0,0.0
1352,62.0,0.0,240.0,0.0,0.0
1353,71.0,0.0,240.0,0.0,0.0
1354,74.0,240.0,15.0,0.0,0.0
1355,67.0,240.0,240.0,0.0,0.0
1356,67.0,0.0,240.0,0.0,0.0
1357,74.0,240.0,240.0,0.0,0.0
1358,71.0,0.0,240.0,0.0,0.0
1359,59.0,0.0,240.0,0.0,0.0
1360,62.0,0.0,15.0,0.0,0.0
1361,74.0,0.0,240.0,0.0,0.0
1362,59.0,0.0,240.0,0.0,0.0
1363,71.0,0.0,240.0,0.0,0.0
1364,59.0,240.0,240.0,0.0,0.0
1365,62.0,0.0,240.0,0.0,0.0
1366,71.0,0.0,240.0,0.0,0.0
1367,67.0,240.0,15.0,0.0,0.0
1368,74.0,0.0,240.0,0.0,0.0
1369,67.0,0.0,15.0,0.0,0.0
1370,74.0,0.0,240.0,0.0,0.0
1371,59.0,0.0,240.0,0.0,0.0
1372,62.0,0.0,15.0,0.0,0.0
1373,71.0,240.0,15.0,0.0,0.0
1374,74.0,240.0,15.0,0.0,0.0
1375,67.0,0.0,15.0,0.0,0.0
1376,59.0,0.0,15.0,0.0,0.0
1377,71.0,0.0,15.0,0.0,0.0
1378,62.0,0.0,15.0,0.0,0.0
1379,59.0,0.0,15.0,0.0,0.0
1380,74.0,0.0,240.0,0.0,0.0
1381,67.0,0.0,240.0,0.0,0.0
1382,62.0,0.0,240.0,0.0,0.0
1383,71.0,240.0,15.0,0.0,0.0
1384,74.0,0.0,240.0,0.0,0.0
1385,71.0,0.0,15.0,0.0,0.0
1386,62.0,0.0,15.0,0.0,0.0
1387,59.0,0.0,15.0,0.0,0.0
1388,74.0,240.0,240.0,0.0,0.0
1389,67.0,240.0,15.0,0.0,0.0
1390,71.0,0.0,240.0,0.0,0.0
1391,74.0,0.0,15.0,0.0,0.0
1392,67.0,0.0,15.0,0.0,0.0
1393,59.0,0.0,15.0,0.0,0.0
1394,62.0,240.0,15.0,0.0,0.0
1395,74.0,0.0,15.0,0.0,0.0
1396,59.0,0.0,15.0,0.0,0.0
1397,62.0,0.0,15.0,0.0,0.0
1398,71.0,240.0,15.0,0.0,0.0
1399,74.0,240.0,15.0,0.0,0.0
1400,67.0,0.0,15.0,0.0,0.0
1401,71.0,0.0,15.0,0.0,0.0
1402,59.0,240.0,15.0,0.0,0.0
1403,62.0,0.0,15.0,0.0,0.0
1404,67.0,0.0,240.0,0.0,0.0
1405,62.0,0.0,15.0,0.0,0.0
1406,59.0,0.0,15.0,0.0,0.0
1407,74.0,0.0,15.0,0.0,0.0
1408,67.0,0.0,240.0,0.0,0.0
1409,59.0,0.0,240.0,0.0,0.0
1410,62.0,0.0,15.0,0.0,0.0
1411,71.0,240.0,15.0,0.0,0.0
1412,67.0,0.0,15.0,0.0,0.0
1413,74.0,240.0,15.0,0.0,0.0
1414,59.0,0.0,240.0,0.0,0.0
1415,62.0,0.0,240.0,0.0,0.0
1416,71.0,0.0,240.0,0.0,0.0
1417,59.0,0.0,240.0,0.0,0.0
1418,67.0,0.0,15.0,0.0,0.0
1419,62.0,0.0,240.0,0.0,0.0
1420,71.0,0.0,240.0,0.0,0.0
1421,67.0,240.0,240.0,0.0,0.0
1422,74.0,240.0,15.0,0.0,0.0
1423,71.0,0.0,15.0,0.0,0.0
1424,59.0,0.0,15.0,0.0,0.0
1425,62.0,0.0,15.0,0.0,0.0
1426,67.0,240.0,480.0,0.0,0.0
1427,74.0,0.0,480.0,0.0,0.0
1428,36.0,0.0,1440.0,0.0,0.0
1429,74.0,240.0,240.0,0.0,0.0
1430,67.0,0.0,240.0,0.0,0.0
1431,55.0,0.0,15.0,0.0,0.0
1432,48.0,0.0,15.0,0.0,0.0
1433,76.0,0.0,240.0,0.0,0.0
1434,67.0,0.0,240.0,0.0,0.0
1435,67.0,0.0,240.0,0.0,0.0
1436,77.0,0.0,240.0,0.0,0.0
1437,48.0,0.0,240.0,0.0,0.0
1438,55.0,240.0,15.0,0.0,0.0
1439,69.0,0.0,240.0,0.0,0.0
1440,62.0,0.0,15.0,0.0,0.0
1441,55.0,240.0,15.0,0.0,0.0
1442,71.0,240.0,240.0,0.0,0.0
1443,65.0,0.0,15.0,0.0,0.0
1444,55.0,240.0,15.0,0.0,0.0
1445,62.0,0.0,240.0,0.0,0.0
1446,60.0,0.0,240.0,0.0,0.0
1447,55.0,0.0,15.0,0.0,0.0
1448,74.0,0.0,720.0,0.0,0.0
1449,64.0,0.0,240.0,0.0,0.0
1450,67.0,0.0,240.0,0.0,0.0
1451,55.0,0.0,240.0,0.0,0.0
1452,60.0,0.0,240.0,0.0,0.0
1453,64.0,0.0,15.0,0.0,0.0
1454,67.0,240.0,15.0,0.0,0.0
1455,64.0,0.0,15.0,0.0,0.0
1456,72.0,0.0,720.0,0.0,0.0
1457,55.0,0.0,15.0,0.0,0.0
1458,60.0,0.0,15.0,0.0,0.0
1459,67.0,0.0,240.0,0.0,0.0
1460,60.0,0.0,15.0,0.0,0.0
1461,64.0,0.0,240.0,0.0,0.0
1462,55.0,0.0,240.0,0.0,0.0
1463,55.0,0.0,240.0,0.0,0.0
1464,60.0,0.0,240.0,0.0,0.0
1465,67.0,240.0,15.0,0.0,0.0
1466,64.0,0.0,240.0,0.0,0.0
1467,36.0,0.0,1440.0,0.0,0.0
1468,77.0,0.0,240.0,0.0,0.0
1469,72.0,0.0,240.0,0.0,0.0
1470,60.0,0.0,240.0,0.0,0.0
1471,65.0,0.0,240.0,0.0,0.0
1472,69.0,0.0,240.0,0.0,0.0
1473,57.0,240.0,240.0,0.0,0.0
1474,83.0,0.0,240.0,0.0,0.0
1475,77.0,0.0,240.0,0.0,0.0
1476,57.0,0.0,240.0,0.0,0.0
1477,72.0,0.0,15.0,0.0,0.0
1478,77.0,0.0,240.0,0.0,0.0
1479,86.0,0.0,240.0,0.0,0.0
1480,69.0,240.0,15.0,0.0,0.0
1481,65.0,0.0,15.0,0.0,0.0
1482,60.0,0.0,15.0,0.0,0.0
1483,84.0,0.0,240.0,0.0,0.0
1484,69.0,240.0,15.0,0.0,0.0
1485,65.0,0.0,240.0,0.0,0.0
1486,60.0,0.0,15.0,0.0,0.0
1487,57.0,0.0,15.0,0.0,0.0
1488,72.0,0.0,240.0,0.0,0.0
1489,72.0,0.0,240.0,0.0,0.0
1490,77.0,240.0,15.0,0.0,0.0
1491,81.0,240.0,240.0,0.0,0.0
1492,57.0,0.0,240.0,0.0,0.0
1493,60.0,0.0,240.0,0.0,0.0
1494,65.0,0.0,240.0,0.0,0.0
1495,69.0,0.0,240.0,0.0,0.0
1496,62.0,0.0,240.0,0.0,0.0
1497,65.0,0.0,240.0,0.0,0.0
1498,71.0,0.0,240.0,0.0,0.0
1499,74.0,0.0,240.0,0.0,0.0
1500,79.0,0.0,720.0,0.0,0.0
1501,59.0,0.0,15.0,0.0,0.0
1502,67.0,240.0,15.0,0.0,0.0
1503,71.0,240.0,15.0,0.0,0.0
1504,65.0,0.0,15.0,0.0,0.0
1505,62.0,0.0,15.0,0.0,0.0
1506,59.0,0.0,15.0,0.0,0.0
1507,67.0,0.0,15.0,0.0,0.0
1508,74.0,0.0,15.0,0.0,0.0
1509,81.0,480.0,720.0,0.0,0.0
1510,69.0,0.0,240.0,0.0,0.0
1511,72.0,0.0,240.0,0.0,0.0
1512,77.0,0.0,240.0,0.0,0.0
1513,69.0,0.0,240.0,0.0,0.0
1514,60.0,0.0,15.0,0.0,0.0
1515,65.0,240.0,15.0,0.0,0.0
1516,65.0,0.0,15.0,0.0,0.0
1517,72.0,0.0,15.0,0.0,0.0
1518,60.0,0.0,240.0,0.0,0.0
1519,77.0,240.0,15.0,0.0,0.0
1520,69.0,0.0,240.0,0.0,0.0
1521,36.0,0.0,1440.0,0.0,0.0
1522,59.0,0.0,240.0,0.0,0.0
1523,62.0,0.0,240.0,0.0,0.0
1524,71.0,0.0,240.0,0.0,0.0
1525,74.0,240.0,240.0,0.0,0.0
1526,62.0,0.0,240.0,0.0,0.0
1527,79.0,0.0,240.0,0.0,0.0
1528,67.0,0.0,15.0,0.0,0.0
1529,74.0,0.0,240.0,0.0,0.0
1530,71.0,0.0,15.0,0.0,0.0
1531,65.0,0.0,240.0,0.0,0.0
1532,62.0,0.0,240.0,0.0,0.0
1533,59.0,0.0,15.0,0.0,0.0
1534,67.0,240.0,15.0,0.0,0.0
1535,83.0,0.0,240.0,0.0,0.0
1536,74.0,0.0,240.0,0.0,0.0
1537,81.0,0.0,240.0,0.0,0.0
1538,74.0,0.0,240.0,0.0,0.0
1539,71.0,240.0,15.0,0.0,0.0
1540,71.0,240.0,15.0,0.0,0.0
1541,65.0,0.0,15.0,0.0,0.0
1542,62.0,0.0,15.0,0.0,0.0
1543,59.0,0.0,15.0,0.0,0.0
1544,67.0,0.0,15.0,0.0,0.0
1545,77.0,0.0,240.0,0.0,0.0
1546,74.0,0.0,240.0,0.0,0.0
1547,76.0,0.0,720.0,0.0,0.0
1548,67.0,0.0,15.0,0.0,0.0
1549,72.0,0.0,240.0,0.0,0.0
1550,64.0,0.0,240.0,0.0,0.0
1551,70.0,240.0,15.0,0.0,0.0
1552,60.0,0.0,15.0,0.0,0.0
1553,64.0,0.0,240.0,0.0,0.0
1554,72.0,0.0,15.0,0.0,0.0
1555,60.0,0.0,15.0,0.0,0.0
1556,67.0,240.0,15.0,0.0,0.0
1557,64.0,0.0,240.0,0.0,0.0
1558,70.0,240.0,240.0,0.0,0.0
1559,60.0,0.0,15.0,0.0,0.0
1560,57.0,0.0,240.0,0.0,0.0
1561,77.0,0.0,720.0,0.0,0.0
1562,72.0,0.0,15.0,0.0,0.0
1563,69.0,0.0,15.0,0.0,0.0
1564,65.0,240.0,15.0,0.0,0.0
1565,60.0,0.0,240.0,0.0,0.0
1566,69.0,0.0,240.0,0.0,0.0
1567,60.0,0.0,240.0,0.0,0.0
1568,57.0,240.0,15.0,0.0,0.0
1569,72.0,480.0,240.0,0.0,0.0
1570,65.0,0.0,240.0,0.0,0.0
1571,36.0,0.0,1440.0,0.0,0.0
1572,60.0,0.0,240.0,0.0,0.0
1573,67.0,0.0,240.0,0.0,0.0
1574,60.0,0.0,240.0,0.0,0.0
1575,55.0,0.0,15.0,0.0,0.0
1576,65.0,240.0,15.0,0.0,0.0
1577,67.0,0.0,240.0,0.0,0.0
1578,74.0,0.0,240.0,0.0,0.0
1579,64.0,240.0,240.0,0.0,0.0
1580,72.0,0.0,240.0,0.0,0.0
1581,77.0,0.0,240.0,0.0,0.0
1582,55.0,0.0,240.0,0.0,0.0
1583,60.0,0.0,240.0,0.0,0.0
1584,67.0,0.0,15.0,0.0,0.0
1585,72.0,240.0,240.0,0.0,0.0
1586,64.0,0.0,240.0,0.0,0.0
1587,76.0,0.0,240.0,0.0,0.0
1588,67.0,0.0,15.0,0.0,0.0
1589,60.0,0.0,15.0,0.0,0.0
1590,55.0,0.0,15.0,0.0,0.0
1591,64.0,0.0,240.0,0.0,0.0
1592,72.0,0.0,240.0,0.0,0.0
1593,69.0,0.0,240.0,0.0,0.0
1594,62.0,0.0,240.0,0.0,0.0
1595,67.0,0.0,15.0,0.0,0.0
1596,55.0,240.0,15.0,0.0,0.0
1597,74.0,0.0,1440.0,0.0,0.0
1598,71.0,240.0,240.0,0.0,0.0
1599,55.0,0.0,240.0,0.0,0.0
1600,67.0,240.0,240.0,0.0,0.0
1601,71.0,0.0,240.0,0.0,0.0
1602,62.0,0.0,15.0,0.0,0.0
1603,55.0,0.0,240.0,0.0,0.0
1604,55.0,0.0,240.0,0.0,0.0
1605,71.0,0.0,15.0,0.0,0.0
1606,62.0,0.0,15.0,0.0,0.0
1607,67.0,240.0,15.0,0.0,0.0
1608,67.0,0.0,15.0,0.0,0.0
1609,55.0,0.0,240.0,0.0,0.0
1610,62.0,0.0,15.0,0.0,0.0
1611,71.0,240.0,240.0,0.0,0.0
1612,55.0,0.0,240.0,0.0,0.0
1613,62.0,0.0,240.0,0.0,0.0
1614,67.0,0.0,240.0,0.0,0.0
1615,71.0,480.0,240.0,0.0,0.0
1616,36.0,0.0,1440.0,0.0,0.0
1617,71.0,0.0,240.0,0.0,0.0
1618,74.0,0.0,240.0,0.0,0.0
1619,67.0,0.0,15.0,0.0,0.0
1620,55.0,0.0,15.0,0.0,0.0
1621,76.0,240.0,240.0,0.0,0.0
1622,65.0,240.0,15.0,0.0,0.0
1623,77.0,240.0,240.0,0.0,0.0
1624,65.0,0.0,15.0,0.0,0.0
1625,71.0,0.0,15.0,0.0,0.0
1626,55.0,0.0,15.0,0.0,0.0
1627,55.0,0.0,15.0,0.0,0.0
1628,67.0,0.0,15.0,0.0,0.0
1629,69.0,0.0,240.0,0.0,0.0
1630,65.0,240.0,15.0,0.0,0.0
1631,71.0,0.0,240.0,0.0,0.0
1632,67.0,0.0,15.0,0.0,0.0
1633,55.0,0.0,15.0,0.0,0.0
1634,74.0,240.0,720.0,0.0,0.0
1635,65.0,240.0,15.0,0.0,0.0
1636,60.0,0.0,15.0,0.0,0.0
1637,55.0,0.0,15.0,0.0,0.0
1638,70.0,0.0,15.0,0.0,0.0
1639,65.0,240.0,15.0,0.0,0.0
1640,67.0,0.0,15.0,0.0,0.0
1641,70.0,0.0,15.0,0.0,0.0
1642,65.0,240.0,15.0,0.0,0.0
1643,60.0,0.0,15.0,0.0,0.0
1644,55.0,0.0,15.0,0.0,0.0
1645,72.0,0.0,720.0,0.0,0.0
1646,55.0,240.0,240.0,0.0,0.0
1647,60.0,0.0,240.0,0.0,0.0
1648,67.0,0.0,15.0,0.0,0.0
1649,64.0,0.0,15.0,0.0,0.0
1650,70.0,240.0,15.0,0.0,0.0
1651,64.0,0.0,240.0,0.0,0.0
1652,70.0,0.0,240.0,0.0,0.0
1653,55.0,0.0,240.0,0.0,0.0
1654,60.0,0.0,240.0,0.0,0.0
1655,67.0,480.0,240.0,0.0,0.0
1656,36.0,0.0,1440.0,0.0,0.0
1657,77.0,0.0,240.0,0.0,0.0
1658,65.0,0.0,15.0,0.0,0.0
1659,72.0,240.0,15.0,0.0,0.0
1660,77.0,0.0,240.0,0.0,0.0
1661,83.0,0.0,240.0,0.0,0.0
1662,60.0,0.0,15.0,0.0,0.0
1663,57.0,0.0,15.0,0.0,0.0
1664,69.0,0.0,15.0,0.0,0.0
1665,69.0,0.0,240.0,0.0,0.0
1666,77.0,0.0,240.0,0.0,0.0
1667,72.0,0.0,240.0,0.0,0.0
1668,86.0,240.0,240.0,0.0,0.0
1669,57.0,240.0,15.0,0.0,0.0
1670,69.0,0.0,240.0,0.0,0.0
1671,65.0,0.0,15.0,0.0,0.0
1672,60.0,0.0,15.0,0.0,0.0
1673,72.0,240.0,240.0,0.0,0.0
1674,84.0,0.0,240.0,0.0,0.0
1675,77.0,0.0,240.0,0.0,0.0
1676,60.0,0.0,15.0,0.0,0.0
1677,57.0,0.0,15.0,0.0,0.0
1678,69.0,0.0,240.0,0.0,0.0
1679,72.0,0.0,240.0,0.0,0.0
1680,77.0,0.0,240.0,0.0,0.0
1681,81.0,0.0,240.0,0.0,0.0
1682,79.0,0.0,720.0,0.0,0.0
1683,71.0,0.0,240.0,0.0,0.0
1684,65.0,240.0,15.0,0.0,0.0
1685,59.0,0.0,240.0,0.0,0.0
1686,74.0,0.0,240.0,0.0,0.0
1687,67.0,0.0,240.0,0.0,0.0
1688,62.0,240.0,15.0,0.0,0.0
1689,74.0,0.0,240.0,0.0,0.0
1690,67.0,0.0,240.0,0.0,0.0
1691,65.0,0.0,15.0,0.0,0.0
1692,65.0,240.0,15.0,0.0,0.0
1693,71.0,0.0,15.0,0.0,0.0
1694,59.0,0.0,15.0,0.0,0.0
1695,67.0,0.0,240.0,0.0,0.0
1696,74.0,0.0,240.0,0.0,0.0
1697,62.0,240.0,240.0,0.0,0.0
1698,72.0,0.0,240.0,0.0,0.0
1699,77.0,0.0,240.0,0.0,0.0
1700,81.0,0.0,720.0,0.0,0.0
1701,69.0,0.0,240.0,0.0,0.0
1702,65.0,0.0,240.0,0.0,0.0
1703,60.0,240.0,15.0,0.0,0.0
1704,72.0,0.0,240.0,0.0,0.0
1705,65.0,0.0,15.0,0.0,0.0
1706,60.0,0.0,240.0,0.0,0.0
1707,72.0,0.0,240.0,0.0,0.0
1708,77.0,240.0,15.0,0.0,0.0
1709,69.0,0.0,15.0,0.0,0.0
1710,36.0,0.0,1440.0,0.0,0.0
1711,62.0,0.0,240.0,0.0,0.0
1712,71.0,0.0,240.0,0.0,0.0
1713,67.0,240.0,240.0,0.0,0.0
1714,59.0,0.0,240.0,0.0,0.0
1715,74.0,0.0,15.0,0.0,0.0
1716,79.0,240.0,240.0,0.0,0.0
1717,71.0,0.0,240.0,0.0,0.0
1718,67.0,0.0,240.0,0.0,0.0
1719,62.0,0.0,15.0,0.0,0.0
1720,59.0,0.0,15.0,0.0,0.0
1721,67.0,0.0,240.0,0.0,0.0
1722,83.0,0.0,240.0,0.0,0.0
1723,74.0,0.0,240.0,0.0,0.0
1724,81.0,0.0,240.0,0.0,0.0
1725,74.0,240.0,240.0,0.0,0.0
1726,65.0,0.0,15.0,0.0,0.0
1727,71.0,0.0,15.0,0.0,0.0
1728,62.0,0.0,15.0,0.0,0.0
1729,59.0,240.0,15.0,0.0,0.0
1730,67.0,0.0,240.0,0.0,0.0
1731,65.0,0.0,15.0,0.0,0.0
1732,59.0,0.0,240.0,0.0,0.0
1733,62.0,0.0,240.0,0.0,0.0
1734,71.0,0.0,240.0,0.0,0.0
1735,77.0,0.0,240.0,0.0,0.0
1736,74.0,0.0,240.0,0.0,0.0
1737,67.0,0.0,15.0,0.0,0.0
1738,70.0,0.0,240.0,0.0,0.0
1739,76.0,240.0,720.0,0.0,0.0
1740,60.0,240.0,240.0,0.0,0.0
1741,64.0,0.0,15.0,0.0,0.0
1742,72.0,0.0,15.0,0.0,0.0
1743,67.0,0.0,15.0,0.0,0.0
1744,70.0,0.0,240.0,0.0,0.0
1745,60.0,0.0,240.0,0.0,0.0
1746,64.0,0.0,240.0,0.0,0.0
1747,70.0,0.0,240.0,0.0,0.0
1748,72.0,240.0,15.0,0.0,0.0
1749,67.0,0.0,15.0,0.0,0.0
1750,60.0,0.0,15.0,0.0,0.0
1751,77.0,0.0,720.0,0.0,0.0
1752,69.0,0.0,15.0,0.0,0.0
1753,60.0,0.0,15.0,0.0,0.0
1754,57.0,0.0,15.0,0.0,0.0
1755,65.0,0.0,15.0,0.0,0.0
1756,72.0,240.0,15.0,0.0,0.0
1757,65.0,0.0,240.0,0.0,0.0
1758,57.0,0.0,240.0,0.0,0.0
1759,60.0,0.0,240.0,0.0,0.0
1760,69.0,0.0,240.0,0.0,0.0
1761,72.0,480.0,240.0,0.0,0.0
1762,36.0,0.0,1440.0,0.0,0.0
1763,65.0,0.0,240.0,0.0,0.0
1764,68.0,0.0,240.0,0.0,0.0
1765,72.0,0.0,240.0,0.0,0.0
1766,68.0,0.0,240.0,0.0,0.0
1767,56.0,0.0,15.0,0.0,0.0
1768,60.0,240.0,15.0,0.0,0.0
1769,65.0,240.0,240.0,0.0,0.0
1770,56.0,240.0,240.0,0.0,0.0
1771,60.0,0.0,240.0,0.0,0.0
1772,65.0,0.0,240.0,0.0,0.0
1773,76.0,0.0,240.0,0.0,0.0
1774,68.0,0.0,15.0,0.0,0.0
1775,56.0,0.0,240.0,0.0,0.0
1776,60.0,0.0,240.0,0.0,0.0
1777,65.0,0.0,240.0,0.0,0.0
1778,74.0,240.0,240.0,0.0,0.0
1779,56.0,0.0,240.0,0.0,0.0
1780,68.0,0.0,240.0,0.0,0.0
1781,72.0,0.0,240.0,0.0,0.0
1782,65.0,240.0,240.0,0.0,0.0
1783,60.0,0.0,15.0,0.0,0.0
1784,67.0,0.0,240.0,0.0,0.0
1785,76.0,0.0,1920.0,0.0,0.0
1786,64.0,0.0,240.0,0.0,0.0
1787,60.0,0.0,240.0,0.0,0.0
1788,55.0,240.0,15.0,0.0,0.0
1789,60.0,0.0,240.0,0.0,0.0
1790,55.0,0.0,240.0,0.0,0.0
1791,67.0,0.0,15.0,0.0,0.0
1792,64.0,240.0,15.0,0.0,0.0
1793,60.0,240.0,240.0,0.0,0.0
1794,55.0,0.0,240.0,0.0,0.0
1795,67.0,240.0,15.0,0.0,0.0
1796,64.0,0.0,240.0,0.0,0.0
1797,60.0,0.0,240.0,0.0,0.0
1798,60.0,0.0,240.0,0.0,0.0
1799,55.0,0.0,15.0,0.0,0.0
1800,67.0,0.0,15.0,0.0,0.0
1801,64.0,240.0,15.0,0.0,0.0
1802,36.0,0.0,1440.0,0.0,0.0
1803,65.0,240.0,240.0,0.0,0.0
1804,56.0,0.0,240.0,0.0,0.0
1805,60.0,0.0,240.0,0.0,0.0
1806,68.0,0.0,240.0,0.0,0.0
1807,65.0,240.0,240.0,0.0,0.0
1808,72.0,240.0,240.0,0.0,0.0
1809,68.0,0.0,15.0,0.0,0.0
1810,60.0,0.0,15.0,0.0,0.0
1811,56.0,0.0,15.0,0.0,0.0
1812,65.0,0.0,15.0,0.0,0.0
1813,76.0,0.0,240.0,0.0,0.0
1814,74.0,240.0,240.0,0.0,0.0
1815,68.0,240.0,15.0,0.0,0.0
1816,60.0,0.0,15.0,0.0,0.0
1817,56.0,0.0,15.0,0.0,0.0
1818,65.0,0.0,240.0,0.0,0.0
1819,68.0,0.0,15.0,0.0,0.0
1820,56.0,240.0,240.0,0.0,0.0
1821,65.0,0.0,240.0,0.0,0.0
1822,72.0,0.0,240.0,0.0,0.0
1823,76.0,0.0,960.0,0.0,0.0
1824,64.0,0.0,240.0,0.0,0.0
1825,67.0,0.0,240.0,0.0,0.0
1826,60.0,0.0,15.0,0.0,0.0
1827,55.0,240.0,240.0,0.0,0.0
1828,60.0,0.0,240.0,0.0,0.0
1829,64.0,0.0,15.0,0.0,0.0
1830,67.0,240.0,15.0,0.0,0.0
1831,55.0,0.0,15.0,0.0,0.0
1832,60.0,0.0,240.0,0.0,0.0
1833,65.0,0.0,240.0,0.0,0.0
1834,68.0,0.0,15.0,0.0,0.0
1835,56.0,0.0,15.0,0.0,0.0
1836,74.0,0.0,240.0,0.0,0.0
1837,60.0,240.0,15.0,0.0,0.0
1838,65.0,0.0,15.0,0.0,0.0
1839,72.0,0.0,240.0,0.0,0.0
1840,56.0,0.0,240.0,0.0,0.0
1841,60.0,0.0,240.0,0.0,0.0
1842,68.0,240.0,240.0,0.0,0.0
1843,76.0,240.0,960.0,0.0,0.0
1844,64.0,240.0,240.0,0.0,0.0
1845,55.0,0.0,240.0,0.0,0.0
1846,60.0,0.0,240.0,0.0,0.0
1847,67.0,0.0,240.0,0.0,0.0
1848,64.0,0.0,240.0,0.0,0.0
1849,55.0,0.0,240.0,0.0,0.0
1850,67.0,240.0,15.0,0.0,0.0
1851,60.0,0.0,15.0,0.0,0.0
1852,55.0,0.0,240.0,0.0,0.0
1853,64.0,0.0,15.0,0.0,0.0
1854,60.0,0.0,15.0,0.0,0.0
1855,67.0,240.0,15.0,0.0,0.0
1856,55.0,0.0,240.0,0.0,0.0
1857,64.0,0.0,15.0,0.0,0.0
1858,67.0,0.0,15.0,0.0,0.0
1859,60.0,0.0,15.0,0.0,0.0
1860,55.0,0.0,240.0,0.0,0.0
1861,74.0,0.0,240.0,0.0,0.0
1862,72.0,0.0,240.0,0.0,0.0
1863,55.0,0.0,240.0,0.0,0.0
1864,60.0,240.0,15.0,0.0,0.0
1865,67.0,0.0,240.0,0.0,0.0
1866,64.0,480.0,240.0,0.0,0.0
1867,36.0,0.0,1440.0,0.0,0.0
1868,72.0,0.0,1440.0,0.0,0.0
1869,64.0,0.0,15.0,0.0,0.0
1870,67.0,240.0,15.0,0.0,0.0
1871,55.0,0.0,15.0,0.0,0.0
1872,60.0,0.0,15.0,0.0,0.0
1873,67.0,0.0,15.0,0.0,0.0
1874,60.0,240.0,15.0,0.0,0.0
1875,55.0,0.0,15.0,0.0,0.0
1876,64.0,0.0,240.0,0.0,0.0
1877,65.0,0.0,240.0,0.0,0.0
1878,60.0,0.0,15.0,0.0,0.0
1879,55.0,240.0,15.0,0.0,0.0
1880,62.0,0.0,240.0,0.0,0.0
1881,60.0,0.0,15.0,0.0,0.0
1882,69.0,0.0,240.0,0.0,0.0
1883,55.0,0.0,240.0,0.0,0.0
1884,65.0,0.0,240.0,0.0,0.0
1885,60.0,240.0,15.0,0.0,0.0
1886,55.0,0.0,240.0,0.0,0.0
1887,64.0,0.0,15.0,0.0,0.0
1888,67.0,240.0,15.0,0.0,0.0
1889,60.0,0.0,240.0,0.0,0.0
1890,55.0,0.0,240.0,0.0,0.0
1891,64.0,0.0,240.0,0.0,0.0
1892,60.0,0.0,15.0,0.0,0.0
1893,67.0,0.0,15.0,0.0,0.0
1894,55.0,240.0,15.0,0.0,0.0
1895,64.0,0.0,240.0,0.0,0.0
1896,62.0,240.0,240.0,0.0,0.0
1897,55.0,0.0,240.0,0.0,0.0
1898,60.0,0.0,240.0,0.0,0.0
1899,65.0,0.0,15.0,0.0,0.0
1900,69.0,0.0,240.0,0.0,0.0
1901,55.0,240.0,240.0,0.0,0.0
1902,60.0,0.0,240.0,0.0,0.0
1903,72.0,0.0,15.0,0.0,0.0
1904,64.0,0.0,480.0,0.0,0.0
1905,67.0,0.0,15.0,0.0,0.0
1906,55.0,0.0,15.0,0.0,0.0
1907,60.0,240.0,15.0,0.0,0.0
1908,55.0,0.0,15.0,0.0,0.0
1909,59.0,0.0,240.0,0.0,0.0
1910,67.0,0.0,15.0,0.0,0.0
1911,62.0,240.0,240.0,0.0,0.0
1912,60.0,0.0,240.0,0.0,0.0
1913,72.0,240.0,480.0,0.0,0.0
1914,64.0,0.0,480.0,0.0,0.0
1915,67.0,0.0,15.0,0.0,0.0
1916,60.0,0.0,240.0,0.0,0.0
1917,55.0,240.0,15.0,0.0,0.0
1918,67.0,0.0,15.0,0.0,0.0
1919,55.0,0.0,15.0,0.0,0.0
1920,59.0,0.0,240.0,0.0,0.0
1921,62.0,0.0,240.0,0.0,0.0
1922,72.0,0.0,480.0,0.0,0.0
1923,64.0,0.0,480.0,0.0,0.0
1924,55.0,240.0,240.0,0.0,0.0
1925,60.0,0.0,240.0,0.0,0.0
1926,67.0,0.0,240.0,0.0,0.0
1927,60.0,240.0,240.0,0.0,0.0
1928,55.0,0.0,240.0,0.0,0.0
1929,67.0,0.0,240.0,0.0,0.0
1930,62.0,0.0,240.0,0.0,0.0
1931,59.0,240.0,240.0,0.0,0.0
1932,55.0,0.0,240.0,0.0,0.0
1933,67.0,0.0,240.0,0.0,0.0
1934,72.0,0.0,480.0,0.0,0.0
1935,64.0,240.0,480.0,0.0,0.0
1936,60.0,0.0,240.0,0.0,0.0
1937,55.0,0.0,15.0,0.0,0.0
1938,67.0,240.0,15.0,0.0,0.0
1939,60.0,0.0,240.0,0.0,0.0
1940,62.0,480.0,240.0,0.0,0.0
1941,55.0,0.0,240.0,0.0,0.0
1942,67.0,0.0,240.0,0.0,0.0
1943,59.0,0.0,240.0,0.0,0.0
1944,36.0,0.0,1440.0,0.0,0.0
1945,64.0,240.0,240.0,0.0,0.0
1946,67.0,0.0,240.0,0.0,0.0
1947,60.0,0.0,240.0,0.0,0.0
1948,55.0,0.0,15.0,0.0,0.0
1949,64.0,0.0,240.0,0.0,0.0
1950,67.0,0.0,15.0,0.0,0.0
1951,60.0,240.0,15.0,0.0,0.0
1952,55.0,0.0,240.0,0.0,0.0
1953,64.0,240.0,15.0,0.0,0.0
1954,55.0,0.0,240.0,0.0,0.0
1955,67.0,240.0,15.0,0.0,0.0
1956,60.0,0.0,15.0,0.0,0.0
1957,55.0,0.0,240.0,0.0,0.0
1958,55.0,0.0,240.0,0.0,0.0
1959,60.0,0.0,240.0,0.0,0.0
1960,67.0,0.0,240.0,0.0,0.0
1961,64.0,240.0,15.0,0.0,0.0
1962,60.0,0.0,240.0,0.0,0.0
1963,67.0,0.0,240.0,0.0,0.0
1964,55.0,240.0,240.0,0.0,0.0
1965,64.0,240.0,15.0,0.0,0.0
1966,64.0,0.0,15.0,0.0,0.0
1967,64.0,0.0,15.0,0.0,0.0
1968,67.0,0.0,15.0,0.0,0.0
1969,60.0,180.0,15.0,0.0,0.0
1970,55.0,0.0,15.0,0.0,0.0
1971,67.0,0.0,60.0,0.0,0.0
1972,65.0,0.0,240.0,0.0,0.0
1973,60.0,240.0,15.0,0.0,0.0
1974,55.0,0.0,15.0,0.0,0.0
1975,64.0,0.0,15.0,0.0,0.0
1976,67.0,1440.0,15.0,0.0,0.0
1977,60.0,0.0,15.0,0.0,0.0
1978,55.0,0.0,1440.0,0.0,0.0
