,note,step,duration,channel,velocity
0,69.0,0.0,240.0,0.0,0.0
1,45.0,240.0,240.0,0.0,0.0
2,69.0,480.0,120.0,0.0,0.0
3,67.0,480.0,480.0,0.0,0.0
4,71.0,0.0,480.0,0.0,0.0
5,57.0,0.0,15.0,0.0,0.0
6,64.0,0.0,15.0,0.0,0.0
7,67.0,0.0,480.0,0.0,0.0
8,73.0,0.0,480.0,0.0,0.0
9,50.0,0.0,240.0,0.0,0.0
10,74.0,240.0,240.0,0.0,0.0
11,76.0,480.0,120.0,0.0,0.0
12,78.0,0.0,480.0,0.0,0.0
13,66.0,0.0,480.0,0.0,0.0
14,62.0,0.0,480.0,0.0,0.0
15,57.0,240.0,480.0,0.0,0.0
16,79.0,240.0,240.0,0.0,0.0
17,50.0,0.0,240.0,0.0,0.0
18,81.0,120.0,240.0,0.0,0.0
19,43.0,90.0,390.0,0.0,0.0
20,83.0,270.0,120.0,0.0,0.0
21,55.0,0.0,390.0,0.0,0.0
22,85.0,60.0,120.0,0.0,0.0
23,59.0,0.0,570.0,0.0,0.0
24,62.0,0.0,540.0,0.0,0.0
25,67.0,240.0,510.0,0.0,0.0
26,86.0,60.0,60.0,0.0,0.0
27,71.0,0.0,480.0,0.0,0.0
28,88.0,60.0,60.0,0.0,0.0
29,86.0,60.0,60.0,0.0,0.0
30,88.0,60.0,60.0,0.0,0.0
31,86.0,60.0,60.0,0.0,0.0
32,88.0,60.0,60.0,0.0,0.0
33,86.0,60.0,60.0,0.0,0.0
34,88.0,0.0,60.0,0.0,0.0
35,85.0,180.0,240.0,0.0,0.0
36,83.0,60.0,180.0,0.0,0.0
37,81.0,120.0,60.0,0.0,0.0
38,50.0,240.0,240.0,0.0,0.0
39,86.0,120.0,120.0,0.0,0.0
40,86.0,480.0,120.0,0.0,0.0
41,62.0,0.0,480.0,0.0,0.0
42,66.0,420.0,480.0,0.0,0.0
43,78.0,60.0,900.0,0.0,0.0
44,57.0,0.0,480.0,0.0,0.0
45,66.0,0.0,480.0,0.0,0.0
46,62.0,0.0,480.0,0.0,0.0
47,57.0,120.0,480.0,0.0,0.0
48,79.0,0.0,60.0,0.0,0.0
49,45.0,240.0,240.0,0.0,0.0
50,83.0,120.0,120.0,0.0,0.0
51,83.0,480.0,120.0,0.0,0.0
52,64.0,0.0,480.0,0.0,0.0
53,73.0,60.0,900.0,0.0,0.0
54,67.0,420.0,15.0,0.0,0.0
55,57.0,0.0,15.0,0.0,0.0
56,64.0,0.0,480.0,0.0,0.0
57,74.0,0.0,60.0,0.0,0.0
58,78.0,120.0,120.0,0.0,0.0
59,50.0,240.0,240.0,0.0,0.0
60,78.0,480.0,120.0,0.0,0.0
61,62.0,480.0,480.0,0.0,0.0
62,68.0,0.0,960.0,0.0,0.0
63,57.0,0.0,480.0,0.0,0.0
64,66.0,0.0,15.0,0.0,0.0
65,62.0,0.0,480.0,0.0,0.0
66,57.0,0.0,480.0,0.0,0.0
67,69.0,120.0,120.0,0.0,0.0
68,45.0,240.0,240.0,0.0,0.0
69,73.0,240.0,120.0,0.0,0.0
70,57.0,0.0,480.0,0.0,0.0
71,76.0,240.0,240.0,0.0,0.0
72,67.0,0.0,480.0,0.0,0.0
73,79.0,360.0,240.0,0.0,0.0
74,57.0,0.0,480.0,0.0,0.0
75,61.0,0.0,480.0,0.0,0.0
76,67.0,0.0,480.0,0.0,0.0
77,83.0,60.0,360.0,0.0,0.0
78,81.0,60.0,60.0,0.0,0.0
79,81.0,120.0,60.0,0.0,0.0
80,50.0,240.0,240.0,0.0,0.0
81,90.0,120.0,120.0,0.0,0.0
82,88.0,60.0,120.0,0.0,0.0
83,62.0,0.0,480.0,0.0,0.0
84,57.0,0.0,480.0,0.0,0.0
85,66.0,0.0,480.0,0.0,0.0
86,86.0,60.0,60.0,0.0,0.0
87,88.0,120.0,60.0,0.0,0.0
88,86.0,240.0,120.0,0.0,0.0
89,83.0,480.0,240.0,0.0,0.0
90,57.0,0.0,480.0,0.0,0.0
91,62.0,0.0,480.0,0.0,0.0
92,81.0,0.0,480.0,0.0,0.0
93,66.0,0.0,480.0,0.0,0.0
94,83.0,120.0,60.0,0.0,0.0
95,50.0,240.0,240.0,0.0,0.0
96,86.0,120.0,120.0,0.0,0.0
97,86.0,480.0,120.0,0.0,0.0
98,73.0,60.0,840.0,0.0,0.0
99,67.0,0.0,480.0,0.0,0.0
100,57.0,0.0,480.0,0.0,0.0
101,64.0,360.0,15.0,0.0,0.0
102,67.0,120.0,480.0,0.0,0.0
103,57.0,0.0,480.0,0.0,0.0
104,74.0,60.0,60.0,0.0,0.0
105,78.0,0.0,60.0,0.0,0.0
106,81.0,120.0,120.0,0.0,0.0
107,50.0,240.0,240.0,0.0,0.0
108,81.0,480.0,120.0,0.0,0.0
109,68.0,0.0,960.0,0.0,0.0
110,66.0,0.0,480.0,0.0,0.0
111,57.0,480.0,15.0,0.0,0.0
112,62.0,0.0,15.0,0.0,0.0
113,66.0,120.0,480.0,0.0,0.0
114,45.0,240.0,240.0,0.0,0.0
115,69.0,120.0,120.0,0.0,0.0
116,73.0,240.0,120.0,0.0,0.0
117,57.0,0.0,480.0,0.0,0.0
118,76.0,240.0,240.0,0.0,0.0
119,79.0,0.0,240.0,0.0,0.0
120,67.0,60.0,15.0,0.0,0.0
121,61.0,0.0,480.0,0.0,0.0
122,78.0,60.0,60.0,0.0,0.0
123,57.0,0.0,480.0,0.0,0.0
124,79.0,120.0,60.0,0.0,0.0
125,78.0,240.0,120.0,0.0,0.0
126,76.0,0.0,240.0,0.0,0.0
127,78.0,120.0,120.0,0.0,0.0
128,50.0,240.0,240.0,0.0,0.0
129,69.0,480.0,120.0,0.0,0.0
130,74.0,240.0,480.0,0.0,0.0
131,57.0,0.0,480.0,0.0,0.0
132,62.0,0.0,480.0,0.0,0.0
133,66.0,0.0,480.0,0.0,0.0
134,73.0,240.0,240.0,0.0,0.0
135,71.0,240.0,240.0,0.0,0.0
136,69.0,0.0,240.0,0.0,0.0
137,45.0,240.0,240.0,0.0,0.0
138,69.0,480.0,120.0,0.0,0.0
139,64.0,0.0,480.0,0.0,0.0
140,71.0,0.0,480.0,0.0,0.0
141,73.0,0.0,480.0,0.0,0.0
142,67.0,480.0,15.0,0.0,0.0
143,64.0,0.0,480.0,0.0,0.0
144,57.0,0.0,15.0,0.0,0.0
145,50.0,240.0,240.0,0.0,0.0
146,74.0,0.0,240.0,0.0,0.0
147,76.0,480.0,120.0,0.0,0.0
148,62.0,0.0,480.0,0.0,0.0
149,78.0,0.0,480.0,0.0,0.0
150,66.0,0.0,480.0,0.0,0.0
151,57.0,240.0,480.0,0.0,0.0
152,50.0,240.0,240.0,0.0,0.0
153,79.0,0.0,240.0,0.0,0.0
154,81.0,120.0,240.0,0.0,0.0
155,43.0,90.0,390.0,0.0,0.0
156,55.0,0.0,390.0,0.0,0.0
157,83.0,270.0,120.0,0.0,0.0
158,85.0,60.0,120.0,0.0,0.0
159,59.0,240.0,570.0,0.0,0.0
160,62.0,0.0,540.0,0.0,0.0
161,67.0,0.0,510.0,0.0,0.0
162,86.0,60.0,60.0,0.0,0.0
163,71.0,0.0,480.0,0.0,0.0
164,88.0,60.0,60.0,0.0,0.0
165,86.0,60.0,60.0,0.0,0.0
166,88.0,60.0,60.0,0.0,0.0
167,86.0,60.0,60.0,0.0,0.0
168,88.0,60.0,60.0,0.0,0.0
169,86.0,60.0,60.0,0.0,0.0
170,88.0,0.0,60.0,0.0,0.0
171,85.0,180.0,240.0,0.0,0.0
172,83.0,60.0,180.0,0.0,0.0
173,81.0,120.0,60.0,0.0,0.0
174,50.0,240.0,240.0,0.0,0.0
175,86.0,120.0,120.0,0.0,0.0
176,86.0,480.0,120.0,0.0,0.0
177,78.0,60.0,900.0,0.0,0.0
178,57.0,420.0,480.0,0.0,0.0
179,62.0,0.0,480.0,0.0,0.0
180,66.0,0.0,480.0,0.0,0.0
181,62.0,0.0,480.0,0.0,0.0
182,57.0,0.0,480.0,0.0,0.0
183,66.0,0.0,480.0,0.0,0.0
184,79.0,120.0,60.0,0.0,0.0
185,83.0,120.0,120.0,0.0,0.0
186,45.0,240.0,240.0,0.0,0.0
187,83.0,480.0,120.0,0.0,0.0
188,67.0,0.0,480.0,0.0,0.0
189,64.0,0.0,480.0,0.0,0.0
190,73.0,60.0,900.0,0.0,0.0
191,57.0,420.0,15.0,0.0,0.0
192,64.0,0.0,480.0,0.0,0.0
193,67.0,120.0,480.0,0.0,0.0
194,74.0,0.0,60.0,0.0,0.0
195,78.0,120.0,120.0,0.0,0.0
196,50.0,240.0,240.0,0.0,0.0
197,78.0,480.0,120.0,0.0,0.0
198,62.0,0.0,480.0,0.0,0.0
199,68.0,0.0,960.0,0.0,0.0
200,66.0,0.0,480.0,0.0,0.0
201,66.0,120.0,480.0,0.0,0.0
202,62.0,0.0,480.0,0.0,0.0
203,57.0,480.0,15.0,0.0,0.0
204,45.0,240.0,240.0,0.0,0.0
205,69.0,120.0,120.0,0.0,0.0
206,73.0,240.0,120.0,0.0,0.0
207,76.0,240.0,240.0,0.0,0.0
208,79.0,360.0,240.0,0.0,0.0
209,67.0,0.0,15.0,0.0,0.0
210,61.0,0.0,480.0,0.0,0.0
211,57.0,0.0,15.0,0.0,0.0
212,83.0,60.0,360.0,0.0,0.0
213,81.0,60.0,60.0,0.0,0.0
214,81.0,120.0,60.0,0.0,0.0
215,50.0,240.0,240.0,0.0,0.0
216,90.0,120.0,120.0,0.0,0.0
217,88.0,60.0,120.0,0.0,0.0
218,57.0,480.0,480.0,0.0,0.0
219,62.0,0.0,480.0,0.0,0.0
220,66.0,0.0,480.0,0.0,0.0
221,86.0,60.0,60.0,0.0,0.0
222,88.0,120.0,60.0,0.0,0.0
223,86.0,240.0,120.0,0.0,0.0
224,83.0,0.0,240.0,0.0,0.0
225,81.0,0.0,480.0,0.0,0.0
226,57.0,0.0,480.0,0.0,0.0
227,62.0,0.0,480.0,0.0,0.0
228,66.0,0.0,480.0,0.0,0.0
229,83.0,120.0,60.0,0.0,0.0
230,50.0,240.0,240.0,0.0,0.0
231,86.0,120.0,120.0,0.0,0.0
232,86.0,480.0,120.0,0.0,0.0
233,57.0,0.0,480.0,0.0,0.0
234,67.0,0.0,480.0,0.0,0.0
235,73.0,60.0,840.0,0.0,0.0
236,64.0,360.0,15.0,0.0,0.0
237,57.0,0.0,480.0,0.0,0.0
238,67.0,0.0,480.0,0.0,0.0
239,74.0,60.0,60.0,0.0,0.0
240,78.0,0.0,60.0,0.0,0.0
241,50.0,240.0,240.0,0.0,0.0
242,81.0,120.0,120.0,0.0,0.0
243,81.0,480.0,120.0,0.0,0.0
244,68.0,0.0,960.0,0.0,0.0
245,66.0,0.0,480.0,0.0,0.0
246,57.0,0.0,480.0,0.0,0.0
247,62.0,480.0,15.0,0.0,0.0
248,66.0,0.0,480.0,0.0,0.0
249,57.0,120.0,480.0,0.0,0.0
250,45.0,240.0,240.0,0.0,0.0
251,69.0,120.0,120.0,0.0,0.0
252,73.0,240.0,120.0,0.0,0.0
253,57.0,0.0,480.0,0.0,0.0
254,76.0,240.0,240.0,0.0,0.0
255,79.0,60.0,240.0,0.0,0.0
256,78.0,60.0,60.0,0.0,0.0
257,67.0,0.0,15.0,0.0,0.0
258,57.0,0.0,480.0,0.0,0.0
259,61.0,0.0,480.0,0.0,0.0
260,79.0,120.0,60.0,0.0,0.0
261,78.0,240.0,120.0,0.0,0.0
262,76.0,0.0,240.0,0.0,0.0
263,78.0,120.0,120.0,0.0,0.0
264,50.0,240.0,240.0,0.0,0.0
265,69.0,480.0,120.0,0.0,0.0
266,62.0,0.0,480.0,0.0,0.0
267,74.0,240.0,480.0,0.0,0.0
268,66.0,0.0,480.0,0.0,0.0
269,57.0,0.0,480.0,0.0,0.0
270,73.0,240.0,240.0,0.0,0.0
271,74.0,360.0,240.0,0.0,0.0
272,45.0,480.0,480.0,0.0,0.0
273,76.0,120.0,360.0,0.0,0.0
274,78.0,0.0,120.0,0.0,0.0
275,76.0,240.0,480.0,0.0,0.0
276,61.0,0.0,15.0,0.0,0.0
277,52.0,0.0,15.0,0.0,0.0
278,80.0,240.0,240.0,0.0,0.0
279,81.0,0.0,240.0,0.0,0.0
280,83.0,120.0,360.0,0.0,0.0
281,45.0,0.0,480.0,0.0,0.0
282,85.0,480.0,120.0,0.0,0.0
283,83.0,0.0,480.0,0.0,0.0
284,54.0,0.0,15.0,0.0,0.0
285,62.0,240.0,15.0,0.0,0.0
286,81.0,240.0,240.0,0.0,0.0
287,78.0,0.0,240.0,0.0,0.0
288,76.0,240.0,240.0,0.0,0.0
289,45.0,480.0,480.0,0.0,0.0
290,78.0,0.0,240.0,0.0,0.0
291,76.0,240.0,480.0,0.0,0.0
292,61.0,0.0,480.0,0.0,0.0
293,52.0,0.0,15.0,0.0,0.0
294,80.0,240.0,240.0,0.0,0.0
295,61.0,0.0,480.0,0.0,0.0
296,81.0,0.0,120.0,0.0,0.0
297,83.0,80.0,150.0,0.0,0.0
298,45.0,80.0,240.0,0.0,0.0
299,85.0,160.0,150.0,0.0,0.0
300,83.0,240.0,150.0,0.0,0.0
301,81.0,0.0,720.0,0.0,0.0
302,54.0,0.0,240.0,0.0,0.0
303,62.0,480.0,240.0,0.0,0.0
304,45.0,240.0,240.0,0.0,0.0
305,78.0,240.0,240.0,0.0,0.0
306,76.0,0.0,240.0,0.0,0.0
307,52.0,240.0,240.0,0.0,0.0
308,61.0,0.0,240.0,0.0,0.0
309,78.0,240.0,240.0,0.0,0.0
310,76.0,240.0,480.0,0.0,0.0
311,45.0,240.0,240.0,0.0,0.0
312,80.0,0.0,240.0,0.0,0.0
313,52.0,240.0,240.0,0.0,0.0
314,61.0,0.0,240.0,0.0,0.0
315,81.0,240.0,240.0,0.0,0.0
316,45.0,240.0,240.0,0.0,0.0
317,83.0,0.0,240.0,0.0,0.0
318,85.0,60.0,240.0,0.0,0.0
319,62.0,60.0,240.0,0.0,0.0
320,83.0,60.0,60.0,0.0,0.0
321,54.0,0.0,240.0,0.0,0.0
322,85.0,60.0,60.0,0.0,0.0
323,83.0,60.0,60.0,0.0,0.0
324,85.0,0.0,60.0,0.0,0.0
325,83.0,60.0,60.0,0.0,0.0
326,85.0,60.0,60.0,0.0,0.0
327,83.0,60.0,60.0,0.0,0.0
328,85.0,240.0,60.0,0.0,0.0
329,45.0,0.0,240.0,0.0,0.0
330,81.0,240.0,240.0,0.0,0.0
331,78.0,240.0,240.0,0.0,0.0
332,52.0,0.0,240.0,0.0,0.0
333,61.0,0.0,240.0,0.0,0.0
334,76.0,240.0,240.0,0.0,0.0
335,78.0,240.0,240.0,0.0,0.0
336,45.0,240.0,240.0,0.0,0.0
337,76.0,240.0,480.0,0.0,0.0
338,80.0,240.0,240.0,0.0,0.0
339,61.0,0.0,480.0,0.0,0.0
340,52.0,0.0,960.0,0.0,0.0
341,81.0,160.0,240.0,0.0,0.0
342,56.0,0.0,480.0,0.0,0.0
343,83.0,160.0,150.0,0.0,0.0
344,62.0,360.0,480.0,0.0,0.0
345,85.0,160.0,150.0,0.0,0.0
346,83.0,0.0,150.0,0.0,0.0
347,81.0,120.0,360.0,0.0,0.0
348,61.0,160.0,480.0,0.0,0.0
349,57.0,0.0,480.0,0.0,0.0
350,71.0,0.0,120.0,0.0,0.0
351,81.0,160.0,150.0,0.0,0.0
352,70.0,100.0,150.0,0.0,0.0
353,81.0,60.0,90.0,0.0,0.0
354,81.0,240.0,60.0,0.0,0.0
355,45.0,0.0,240.0,0.0,0.0
356,69.0,240.0,240.0,0.0,0.0
357,69.0,480.0,120.0,0.0,0.0
358,57.0,480.0,480.0,0.0,0.0
359,71.0,0.0,480.0,0.0,0.0
360,73.0,0.0,480.0,0.0,0.0
361,64.0,0.0,15.0,0.0,0.0
362,67.0,0.0,15.0,0.0,0.0
363,57.0,0.0,480.0,0.0,0.0
364,74.0,0.0,240.0,0.0,0.0
365,50.0,240.0,240.0,0.0,0.0
366,76.0,480.0,120.0,0.0,0.0
367,78.0,0.0,480.0,0.0,0.0
368,66.0,0.0,480.0,0.0,0.0
369,62.0,240.0,480.0,0.0,0.0
370,57.0,0.0,480.0,0.0,0.0
371,50.0,240.0,240.0,0.0,0.0
372,79.0,0.0,240.0,0.0,0.0
373,81.0,120.0,240.0,0.0,0.0
374,83.0,270.0,120.0,0.0,0.0
375,43.0,90.0,390.0,0.0,0.0
376,55.0,0.0,390.0,0.0,0.0
377,85.0,60.0,120.0,0.0,0.0
378,59.0,0.0,570.0,0.0,0.0
379,62.0,0.0,540.0,0.0,0.0
380,67.0,0.0,510.0,0.0,0.0
381,86.0,60.0,60.0,0.0,0.0
382,71.0,0.0,480.0,0.0,0.0
383,88.0,60.0,60.0,0.0,0.0
384,86.0,60.0,60.0,0.0,0.0
385,88.0,60.0,60.0,0.0,0.0
386,86.0,60.0,60.0,0.0,0.0
387,88.0,60.0,60.0,0.0,0.0
388,86.0,60.0,60.0,0.0,0.0
389,88.0,240.0,60.0,0.0,0.0
390,85.0,180.0,240.0,0.0,0.0
391,83.0,60.0,180.0,0.0,0.0
392,81.0,120.0,60.0,0.0,0.0
393,86.0,120.0,120.0,0.0,0.0
394,50.0,240.0,240.0,0.0,0.0
395,86.0,480.0,120.0,0.0,0.0
396,78.0,60.0,900.0,0.0,0.0
397,66.0,0.0,480.0,0.0,0.0
398,66.0,0.0,480.0,0.0,0.0
399,62.0,420.0,15.0,0.0,0.0
400,57.0,0.0,15.0,0.0,0.0
401,79.0,0.0,60.0,0.0,0.0
402,45.0,240.0,240.0,0.0,0.0
403,83.0,120.0,120.0,0.0,0.0
404,83.0,480.0,120.0,0.0,0.0
405,67.0,420.0,480.0,0.0,0.0
406,57.0,0.0,480.0,0.0,0.0
407,64.0,0.0,480.0,0.0,0.0
408,73.0,60.0,900.0,0.0,0.0
409,67.0,0.0,480.0,0.0,0.0
410,64.0,0.0,480.0,0.0,0.0
411,57.0,120.0,480.0,0.0,0.0
412,74.0,0.0,60.0,0.0,0.0
413,50.0,240.0,240.0,0.0,0.0
414,78.0,120.0,120.0,0.0,0.0
415,78.0,480.0,120.0,0.0,0.0
416,62.0,0.0,480.0,0.0,0.0
417,57.0,0.0,480.0,0.0,0.0
418,68.0,0.0,960.0,0.0,0.0
419,57.0,0.0,480.0,0.0,0.0
420,62.0,0.0,480.0,0.0,0.0
421,66.0,480.0,15.0,0.0,0.0
422,69.0,120.0,120.0,0.0,0.0
423,45.0,240.0,240.0,0.0,0.0
424,73.0,240.0,120.0,0.0,0.0
425,67.0,0.0,480.0,0.0,0.0
426,76.0,240.0,240.0,0.0,0.0
427,79.0,360.0,240.0,0.0,0.0
428,57.0,0.0,15.0,0.0,0.0
429,83.0,60.0,360.0,0.0,0.0
430,67.0,0.0,480.0,0.0,0.0
431,61.0,0.0,480.0,0.0,0.0
432,81.0,60.0,60.0,0.0,0.0
433,81.0,120.0,60.0,0.0,0.0
434,50.0,240.0,240.0,0.0,0.0
435,90.0,120.0,120.0,0.0,0.0
436,88.0,60.0,120.0,0.0,0.0
437,86.0,60.0,60.0,0.0,0.0
438,66.0,480.0,480.0,0.0,0.0
439,88.0,120.0,60.0,0.0,0.0
440,86.0,240.0,120.0,0.0,0.0
441,83.0,0.0,240.0,0.0,0.0
442,81.0,0.0,480.0,0.0,0.0
443,62.0,0.0,15.0,0.0,0.0
444,57.0,0.0,15.0,0.0,0.0
445,66.0,0.0,480.0,0.0,0.0
446,83.0,120.0,60.0,0.0,0.0
447,50.0,240.0,240.0,0.0,0.0
448,86.0,120.0,120.0,0.0,0.0
449,86.0,480.0,120.0,0.0,0.0
450,67.0,0.0,480.0,0.0,0.0
451,73.0,60.0,840.0,0.0,0.0
452,64.0,360.0,15.0,0.0,0.0
453,57.0,0.0,15.0,0.0,0.0
454,67.0,0.0,480.0,0.0,0.0
455,74.0,60.0,60.0,0.0,0.0
456,78.0,120.0,60.0,0.0,0.0
457,50.0,240.0,240.0,0.0,0.0
458,81.0,120.0,120.0,0.0,0.0
459,81.0,480.0,120.0,0.0,0.0
460,68.0,120.0,960.0,0.0,0.0
461,57.0,0.0,480.0,0.0,0.0
462,62.0,480.0,15.0,0.0,0.0
463,66.0,0.0,15.0,0.0,0.0
464,57.0,0.0,480.0,0.0,0.0
465,45.0,240.0,240.0,0.0,0.0
466,69.0,120.0,120.0,0.0,0.0
467,73.0,240.0,120.0,0.0,0.0
468,76.0,240.0,240.0,0.0,0.0
469,79.0,0.0,240.0,0.0,0.0
470,57.0,0.0,15.0,0.0,0.0
471,78.0,60.0,60.0,0.0,0.0
472,67.0,60.0,15.0,0.0,0.0
473,61.0,0.0,480.0,0.0,0.0
474,79.0,120.0,60.0,0.0,0.0
475,78.0,240.0,120.0,0.0,0.0
476,76.0,120.0,240.0,0.0,0.0
477,78.0,120.0,120.0,0.0,0.0
478,50.0,240.0,240.0,0.0,0.0
479,69.0,480.0,120.0,0.0,0.0
480,74.0,0.0,480.0,0.0,0.0
481,57.0,0.0,480.0,0.0,0.0
482,66.0,240.0,480.0,0.0,0.0
483,62.0,0.0,480.0,0.0,0.0
484,73.0,240.0,240.0,0.0,0.0
485,74.0,360.0,240.0,0.0,0.0
486,45.0,0.0,480.0,0.0,0.0
487,76.0,120.0,360.0,0.0,0.0
488,78.0,480.0,120.0,0.0,0.0
489,76.0,0.0,480.0,0.0,0.0
490,61.0,240.0,15.0,0.0,0.0
491,52.0,0.0,15.0,0.0,0.0
492,80.0,240.0,240.0,0.0,0.0
493,81.0,360.0,240.0,0.0,0.0
494,45.0,480.0,480.0,0.0,0.0
495,83.0,120.0,360.0,0.0,0.0
496,85.0,0.0,120.0,0.0,0.0
497,83.0,0.0,480.0,0.0,0.0
498,54.0,0.0,480.0,0.0,0.0
499,81.0,240.0,240.0,0.0,0.0
500,54.0,0.0,480.0,0.0,0.0
501,62.0,240.0,15.0,0.0,0.0
502,78.0,240.0,240.0,0.0,0.0
503,45.0,480.0,480.0,0.0,0.0
504,76.0,240.0,240.0,0.0,0.0
505,78.0,0.0,240.0,0.0,0.0
506,76.0,0.0,480.0,0.0,0.0
507,61.0,0.0,480.0,0.0,0.0
508,52.0,240.0,480.0,0.0,0.0
509,80.0,240.0,240.0,0.0,0.0
510,61.0,0.0,480.0,0.0,0.0
511,52.0,0.0,480.0,0.0,0.0
512,81.0,160.0,120.0,0.0,0.0
513,45.0,80.0,240.0,0.0,0.0
514,83.0,80.0,150.0,0.0,0.0
515,85.0,160.0,150.0,0.0,0.0
516,83.0,240.0,150.0,0.0,0.0
517,62.0,480.0,240.0,0.0,0.0
518,54.0,0.0,240.0,0.0,0.0
519,81.0,0.0,720.0,0.0,0.0
520,45.0,240.0,240.0,0.0,0.0
521,78.0,240.0,240.0,0.0,0.0
522,61.0,0.0,240.0,0.0,0.0
523,52.0,240.0,240.0,0.0,0.0
524,76.0,0.0,240.0,0.0,0.0
525,78.0,240.0,240.0,0.0,0.0
526,76.0,240.0,480.0,0.0,0.0
527,45.0,240.0,240.0,0.0,0.0
528,61.0,0.0,240.0,0.0,0.0
529,52.0,240.0,240.0,0.0,0.0
530,80.0,0.0,240.0,0.0,0.0
531,81.0,240.0,240.0,0.0,0.0
532,83.0,0.0,240.0,0.0,0.0
533,45.0,240.0,240.0,0.0,0.0
534,85.0,60.0,240.0,0.0,0.0
535,62.0,60.0,240.0,0.0,0.0
536,54.0,0.0,240.0,0.0,0.0
537,83.0,60.0,60.0,0.0,0.0
538,85.0,60.0,60.0,0.0,0.0
539,83.0,60.0,60.0,0.0,0.0
540,85.0,0.0,60.0,0.0,0.0
541,83.0,60.0,60.0,0.0,0.0
542,85.0,60.0,60.0,0.0,0.0
543,83.0,60.0,60.0,0.0,0.0
544,85.0,240.0,60.0,0.0,0.0
545,81.0,0.0,240.0,0.0,0.0
546,45.0,240.0,240.0,0.0,0.0
547,78.0,240.0,240.0,0.0,0.0
548,52.0,240.0,240.0,0.0,0.0
549,61.0,0.0,240.0,0.0,0.0
550,76.0,0.0,240.0,0.0,0.0
551,78.0,240.0,240.0,0.0,0.0
552,76.0,240.0,480.0,0.0,0.0
553,45.0,240.0,240.0,0.0,0.0
554,61.0,0.0,480.0,0.0,0.0
555,80.0,240.0,240.0,0.0,0.0
556,52.0,0.0,960.0,0.0,0.0
557,81.0,160.0,240.0,0.0,0.0
558,83.0,160.0,150.0,0.0,0.0
559,56.0,0.0,480.0,0.0,0.0
560,62.0,0.0,480.0,0.0,0.0
561,85.0,160.0,150.0,0.0,0.0
562,83.0,360.0,150.0,0.0,0.0
563,61.0,160.0,480.0,0.0,0.0
564,81.0,120.0,360.0,0.0,0.0
565,57.0,0.0,480.0,0.0,0.0
566,71.0,0.0,120.0,0.0,0.0
567,81.0,160.0,150.0,0.0,0.0
568,70.0,100.0,150.0,0.0,0.0
569,81.0,60.0,15.0,0.0,0.0
570,69.0,0.0,240.0,0.0,0.0
571,45.0,240.0,240.0,0.0,0.0
572,69.0,480.0,120.0,0.0,0.0
573,71.0,0.0,480.0,0.0,0.0
574,64.0,0.0,15.0,0.0,0.0
575,57.0,0.0,15.0,0.0,0.0
576,67.0,480.0,15.0,0.0,0.0
577,73.0,0.0,480.0,0.0,0.0
578,74.0,240.0,240.0,0.0,0.0
579,50.0,0.0,240.0,0.0,0.0
580,76.0,480.0,120.0,0.0,0.0
581,78.0,240.0,480.0,0.0,0.0
582,66.0,0.0,480.0,0.0,0.0
583,62.0,0.0,480.0,0.0,0.0
584,57.0,0.0,480.0,0.0,0.0
585,79.0,0.0,240.0,0.0,0.0
586,50.0,240.0,240.0,0.0,0.0
587,81.0,120.0,240.0,0.0,0.0
588,83.0,270.0,120.0,0.0,0.0
589,55.0,0.0,390.0,0.0,0.0
590,43.0,90.0,390.0,0.0,0.0
591,85.0,60.0,120.0,0.0,0.0
592,59.0,0.0,570.0,0.0,0.0
593,62.0,0.0,540.0,0.0,0.0
594,67.0,240.0,510.0,0.0,0.0
595,71.0,0.0,480.0,0.0,0.0
596,86.0,60.0,60.0,0.0,0.0
597,88.0,60.0,60.0,0.0,0.0
598,86.0,60.0,60.0,0.0,0.0
599,88.0,60.0,60.0,0.0,0.0
600,86.0,60.0,60.0,0.0,0.0
601,88.0,60.0,60.0,0.0,0.0
602,86.0,60.0,60.0,0.0,0.0
603,88.0,0.0,60.0,0.0,0.0
604,85.0,180.0,240.0,0.0,0.0
605,83.0,60.0,180.0,0.0,0.0
606,81.0,120.0,60.0,0.0,0.0
607,86.0,120.0,120.0,0.0,0.0
608,50.0,240.0,240.0,0.0,0.0
609,86.0,480.0,120.0,0.0,0.0
610,66.0,0.0,480.0,0.0,0.0
611,78.0,60.0,900.0,0.0,0.0
612,66.0,120.0,480.0,0.0,0.0
613,62.0,0.0,15.0,0.0,0.0
614,57.0,420.0,15.0,0.0,0.0
615,79.0,0.0,60.0,0.0,0.0
616,83.0,120.0,120.0,0.0,0.0
617,45.0,240.0,240.0,0.0,0.0
618,83.0,480.0,120.0,0.0,0.0
619,73.0,60.0,900.0,0.0,0.0
620,57.0,0.0,15.0,0.0,0.0
621,64.0,0.0,15.0,0.0,0.0
622,67.0,420.0,15.0,0.0,0.0
623,74.0,0.0,60.0,0.0,0.0
624,50.0,240.0,240.0,0.0,0.0
625,78.0,120.0,120.0,0.0,0.0
626,78.0,480.0,120.0,0.0,0.0
627,68.0,120.0,960.0,0.0,0.0
628,57.0,480.0,15.0,0.0,0.0
629,62.0,0.0,15.0,0.0,0.0
630,66.0,0.0,15.0,0.0,0.0
631,45.0,240.0,240.0,0.0,0.0
632,69.0,120.0,120.0,0.0,0.0
633,73.0,240.0,120.0,0.0,0.0
634,76.0,240.0,240.0,0.0,0.0
635,57.0,0.0,480.0,0.0,0.0
636,79.0,0.0,240.0,0.0,0.0
637,61.0,0.0,480.0,0.0,0.0
638,67.0,360.0,15.0,0.0,0.0
639,83.0,60.0,360.0,0.0,0.0
640,57.0,0.0,480.0,0.0,0.0
641,81.0,60.0,60.0,0.0,0.0
642,81.0,120.0,60.0,0.0,0.0
643,50.0,240.0,240.0,0.0,0.0
644,90.0,120.0,120.0,0.0,0.0
645,88.0,60.0,120.0,0.0,0.0
646,86.0,60.0,60.0,0.0,0.0
647,66.0,0.0,480.0,0.0,0.0
648,57.0,480.0,480.0,0.0,0.0
649,88.0,120.0,60.0,0.0,0.0
650,86.0,240.0,120.0,0.0,0.0
651,83.0,0.0,240.0,0.0,0.0
652,81.0,0.0,480.0,0.0,0.0
653,62.0,0.0,15.0,0.0,0.0
654,57.0,0.0,480.0,0.0,0.0
655,66.0,0.0,480.0,0.0,0.0
656,83.0,0.0,60.0,0.0,0.0
657,86.0,120.0,120.0,0.0,0.0
658,50.0,240.0,240.0,0.0,0.0
659,86.0,480.0,120.0,0.0,0.0
660,73.0,60.0,840.0,0.0,0.0
661,57.0,0.0,480.0,0.0,0.0
662,67.0,360.0,480.0,0.0,0.0
663,64.0,0.0,15.0,0.0,0.0
664,67.0,120.0,480.0,0.0,0.0
665,57.0,0.0,480.0,0.0,0.0
666,74.0,60.0,60.0,0.0,0.0
667,78.0,0.0,60.0,0.0,0.0
668,50.0,240.0,240.0,0.0,0.0
669,81.0,120.0,120.0,0.0,0.0
670,81.0,480.0,120.0,0.0,0.0
671,57.0,0.0,480.0,0.0,0.0
672,68.0,0.0,960.0,0.0,0.0
673,66.0,480.0,15.0,0.0,0.0
674,62.0,0.0,15.0,0.0,0.0
675,57.0,0.0,480.0,0.0,0.0
676,69.0,120.0,120.0,0.0,0.0
677,45.0,240.0,240.0,0.0,0.0
678,73.0,240.0,120.0,0.0,0.0
679,76.0,240.0,240.0,0.0,0.0
680,67.0,0.0,480.0,0.0,0.0
681,79.0,0.0,240.0,0.0,0.0
682,61.0,0.0,480.0,0.0,0.0
683,57.0,60.0,15.0,0.0,0.0
684,78.0,60.0,60.0,0.0,0.0
685,67.0,0.0,480.0,0.0,0.0
686,79.0,120.0,60.0,0.0,0.0
687,78.0,240.0,120.0,0.0,0.0
688,76.0,120.0,240.0,0.0,0.0
689,78.0,120.0,120.0,0.0,0.0
690,50.0,240.0,240.0,0.0,0.0
691,69.0,480.0,120.0,0.0,0.0
692,62.0,0.0,480.0,0.0,0.0
693,74.0,0.0,480.0,0.0,0.0
694,57.0,0.0,480.0,0.0,0.0
695,66.0,480.0,480.0,0.0,0.0
696,50.0,120.0,480.0,0.0,0.0
697,46.0,0.0,480.0,0.0,0.0
698,81.0,360.0,120.0,0.0,0.0
699,81.0,0.0,120.0,0.0,0.0
700,53.0,480.0,15.0,0.0,0.0
701,80.0,240.0,480.0,0.0,0.0
702,53.0,0.0,15.0,0.0,0.0
703,46.0,0.0,15.0,0.0,0.0
704,77.0,240.0,240.0,0.0,0.0
705,76.0,240.0,240.0,0.0,0.0
706,53.0,0.0,480.0,0.0,0.0
707,46.0,0.0,15.0,0.0,0.0
708,74.0,240.0,240.0,0.0,0.0
709,77.0,60.0,120.0,0.0,0.0
710,53.0,0.0,480.0,0.0,0.0
711,76.0,60.0,60.0,0.0,0.0
712,46.0,240.0,480.0,0.0,0.0
713,77.0,360.0,60.0,0.0,0.0
714,76.0,0.0,360.0,0.0,0.0
715,74.0,240.0,240.0,0.0,0.0
716,68.0,0.0,120.0,0.0,0.0
717,46.0,120.0,15.0,0.0,0.0
718,53.0,0.0,15.0,0.0,0.0
719,81.0,360.0,120.0,0.0,0.0
720,81.0,0.0,120.0,0.0,0.0
721,80.0,0.0,480.0,0.0,0.0
722,53.0,0.0,15.0,0.0,0.0
723,53.0,0.0,480.0,0.0,0.0
724,46.0,240.0,15.0,0.0,0.0
725,77.0,240.0,240.0,0.0,0.0
726,76.0,0.0,240.0,0.0,0.0
727,74.0,160.0,150.0,0.0,0.0
728,76.0,160.0,150.0,0.0,0.0
729,74.0,0.0,150.0,0.0,0.0
730,53.0,480.0,15.0,0.0,0.0
731,46.0,0.0,15.0,0.0,0.0
732,68.0,120.0,960.0,0.0,0.0
733,53.0,480.0,15.0,0.0,0.0
734,53.0,0.0,15.0,0.0,0.0
735,46.0,0.0,15.0,0.0,0.0
736,81.0,360.0,120.0,0.0,0.0
737,81.0,0.0,120.0,0.0,0.0
738,80.0,0.0,480.0,0.0,0.0
739,46.0,0.0,480.0,0.0,0.0
740,77.0,240.0,240.0,0.0,0.0
741,53.0,240.0,15.0,0.0,0.0
742,76.0,0.0,240.0,0.0,0.0
743,46.0,240.0,15.0,0.0,0.0
744,53.0,0.0,15.0,0.0,0.0
745,74.0,240.0,240.0,0.0,0.0
746,77.0,0.0,120.0,0.0,0.0
747,46.0,60.0,15.0,0.0,0.0
748,53.0,0.0,15.0,0.0,0.0
749,76.0,60.0,60.0,0.0,0.0
750,77.0,60.0,60.0,0.0,0.0
751,76.0,60.0,60.0,0.0,0.0
752,77.0,60.0,60.0,0.0,0.0
753,76.0,60.0,60.0,0.0,0.0
754,77.0,60.0,60.0,0.0,0.0
755,76.0,60.0,60.0,0.0,0.0
756,77.0,0.0,60.0,0.0,0.0
757,53.0,240.0,15.0,0.0,0.0
758,74.0,240.0,240.0,0.0,0.0
759,46.0,0.0,480.0,0.0,0.0
760,68.0,120.0,120.0,0.0,0.0
761,81.0,360.0,120.0,0.0,0.0
762,53.0,480.0,480.0,0.0,0.0
763,81.0,0.0,120.0,0.0,0.0
764,46.0,0.0,15.0,0.0,0.0
765,80.0,360.0,480.0,0.0,0.0
766,53.0,0.0,480.0,0.0,0.0
767,77.0,120.0,360.0,0.0,0.0
768,46.0,0.0,480.0,0.0,0.0
769,76.0,0.0,120.0,0.0,0.0
770,74.0,160.0,150.0,0.0,0.0
771,53.0,160.0,15.0,0.0,0.0
772,45.0,240.0,1440.0,0.0,0.0
773,76.0,160.0,150.0,0.0,0.0
774,74.0,0.0,150.0,0.0,0.0
775,73.0,240.0,720.0,0.0,0.0
776,52.0,0.0,960.0,0.0,0.0
777,71.0,0.0,240.0,0.0,0.0
778,69.0,0.0,240.0,0.0,0.0
779,45.0,240.0,240.0,0.0,0.0
780,69.0,480.0,120.0,0.0,0.0
781,71.0,0.0,480.0,0.0,0.0
782,57.0,0.0,480.0,0.0,0.0
783,64.0,0.0,480.0,0.0,0.0
784,64.0,0.0,480.0,0.0,0.0
785,67.0,480.0,15.0,0.0,0.0
786,57.0,0.0,480.0,0.0,0.0
787,73.0,240.0,480.0,0.0,0.0
788,50.0,0.0,240.0,0.0,0.0
789,74.0,240.0,240.0,0.0,0.0
790,76.0,480.0,120.0,0.0,0.0
791,78.0,240.0,480.0,0.0,0.0
792,57.0,0.0,480.0,0.0,0.0
793,66.0,0.0,480.0,0.0,0.0
794,62.0,0.0,480.0,0.0,0.0
795,50.0,240.0,240.0,0.0,0.0
796,79.0,0.0,240.0,0.0,0.0
797,81.0,120.0,240.0,0.0,0.0
798,43.0,90.0,390.0,0.0,0.0
799,55.0,0.0,390.0,0.0,0.0
800,83.0,270.0,120.0,0.0,0.0
801,85.0,60.0,120.0,0.0,0.0
802,59.0,0.0,570.0,0.0,0.0
803,62.0,0.0,540.0,0.0,0.0
804,67.0,0.0,510.0,0.0,0.0
805,71.0,0.0,480.0,0.0,0.0
806,86.0,60.0,60.0,0.0,0.0
807,88.0,60.0,60.0,0.0,0.0
808,86.0,60.0,60.0,0.0,0.0
809,88.0,60.0,60.0,0.0,0.0
810,86.0,60.0,60.0,0.0,0.0
811,88.0,60.0,60.0,0.0,0.0
812,86.0,60.0,60.0,0.0,0.0
813,88.0,240.0,60.0,0.0,0.0
814,85.0,180.0,240.0,0.0,0.0
815,83.0,60.0,180.0,0.0,0.0
816,81.0,120.0,60.0,0.0,0.0
817,50.0,240.0,240.0,0.0,0.0
818,86.0,120.0,120.0,0.0,0.0
819,86.0,480.0,120.0,0.0,0.0
820,78.0,60.0,900.0,0.0,0.0
821,57.0,0.0,480.0,0.0,0.0
822,62.0,0.0,480.0,0.0,0.0
823,66.0,420.0,15.0,0.0,0.0
824,62.0,0.0,480.0,0.0,0.0
825,57.0,120.0,480.0,0.0,0.0
826,79.0,0.0,60.0,0.0,0.0
827,83.0,120.0,120.0,0.0,0.0
828,45.0,240.0,240.0,0.0,0.0
829,83.0,480.0,120.0,0.0,0.0
830,73.0,60.0,900.0,0.0,0.0
831,57.0,420.0,15.0,0.0,0.0
832,67.0,0.0,15.0,0.0,0.0
833,64.0,0.0,15.0,0.0,0.0
834,74.0,0.0,60.0,0.0,0.0
835,78.0,120.0,120.0,0.0,0.0
836,50.0,240.0,240.0,0.0,0.0
837,78.0,480.0,120.0,0.0,0.0
838,68.0,0.0,960.0,0.0,0.0
839,66.0,0.0,480.0,0.0,0.0
840,62.0,0.0,480.0,0.0,0.0
841,62.0,0.0,480.0,0.0,0.0
842,57.0,480.0,15.0,0.0,0.0
843,66.0,120.0,480.0,0.0,0.0
844,69.0,120.0,120.0,0.0,0.0
845,45.0,240.0,240.0,0.0,0.0
846,73.0,240.0,120.0,0.0,0.0
847,67.0,0.0,480.0,0.0,0.0
848,61.0,0.0,480.0,0.0,0.0
849,76.0,240.0,240.0,0.0,0.0
850,79.0,360.0,240.0,0.0,0.0
851,57.0,120.0,480.0,0.0,0.0
852,61.0,0.0,480.0,0.0,0.0
853,67.0,0.0,480.0,0.0,0.0
854,83.0,60.0,360.0,0.0,0.0
855,81.0,60.0,15.0,0.0,0.0
856,90.0,120.0,120.0,0.0,0.0
857,50.0,240.0,240.0,0.0,0.0
858,88.0,60.0,120.0,0.0,0.0
859,66.0,0.0,480.0,0.0,0.0
860,86.0,60.0,60.0,0.0,0.0
861,88.0,120.0,60.0,0.0,0.0
862,86.0,240.0,120.0,0.0,0.0
863,83.0,0.0,240.0,0.0,0.0
864,81.0,0.0,480.0,0.0,0.0
865,66.0,0.0,480.0,0.0,0.0
866,62.0,480.0,15.0,0.0,0.0
867,57.0,0.0,15.0,0.0,0.0
868,83.0,120.0,60.0,0.0,0.0
869,86.0,120.0,120.0,0.0,0.0
870,50.0,240.0,240.0,0.0,0.0
871,86.0,480.0,120.0,0.0,0.0
872,73.0,60.0,840.0,0.0,0.0
873,64.0,0.0,15.0,0.0,0.0
874,57.0,0.0,15.0,0.0,0.0
875,67.0,360.0,15.0,0.0,0.0
876,74.0,60.0,60.0,0.0,0.0
877,78.0,120.0,60.0,0.0,0.0
878,81.0,120.0,120.0,0.0,0.0
879,50.0,240.0,240.0,0.0,0.0
880,81.0,480.0,120.0,0.0,0.0
881,66.0,480.0,480.0,0.0,0.0
882,68.0,120.0,960.0,0.0,0.0
883,57.0,0.0,15.0,0.0,0.0
884,62.0,0.0,15.0,0.0,0.0
885,66.0,0.0,480.0,0.0,0.0
886,45.0,240.0,240.0,0.0,0.0
887,69.0,120.0,120.0,0.0,0.0
888,73.0,240.0,120.0,0.0,0.0
889,76.0,240.0,240.0,0.0,0.0
890,79.0,0.0,240.0,0.0,0.0
891,57.0,0.0,15.0,0.0,0.0
892,78.0,60.0,60.0,0.0,0.0
893,67.0,60.0,15.0,0.0,0.0
894,61.0,0.0,480.0,0.0,0.0
895,79.0,240.0,60.0,0.0,0.0
896,78.0,120.0,240.0,0.0,0.0
897,76.0,0.0,120.0,0.0,0.0
898,50.0,240.0,240.0,0.0,0.0
899,78.0,120.0,120.0,0.0,0.0
900,69.0,480.0,120.0,0.0,0.0
901,66.0,0.0,480.0,0.0,0.0
902,74.0,480.0,480.0,0.0,0.0
903,57.0,0.0,480.0,0.0,0.0
904,62.0,0.0,480.0,0.0,0.0
905,50.0,120.0,480.0,0.0,0.0
906,81.0,360.0,120.0,0.0,0.0
907,46.0,0.0,480.0,0.0,0.0
908,53.0,0.0,480.0,0.0,0.0
909,81.0,480.0,120.0,0.0,0.0
910,80.0,0.0,480.0,0.0,0.0
911,46.0,240.0,15.0,0.0,0.0
912,77.0,240.0,240.0,0.0,0.0
913,53.0,0.0,15.0,0.0,0.0
914,76.0,240.0,240.0,0.0,0.0
915,53.0,0.0,15.0,0.0,0.0
916,46.0,0.0,15.0,0.0,0.0
917,74.0,240.0,240.0,0.0,0.0
918,77.0,0.0,120.0,0.0,0.0
919,53.0,60.0,15.0,0.0,0.0
920,76.0,60.0,60.0,0.0,0.0
921,46.0,0.0,15.0,0.0,0.0
922,77.0,360.0,60.0,0.0,0.0
923,76.0,240.0,360.0,0.0,0.0
924,46.0,0.0,15.0,0.0,0.0
925,74.0,240.0,240.0,0.0,0.0
926,68.0,0.0,120.0,0.0,0.0
927,46.0,0.0,15.0,0.0,0.0
928,53.0,120.0,15.0,0.0,0.0
929,81.0,360.0,120.0,0.0,0.0
930,81.0,480.0,120.0,0.0,0.0
931,53.0,0.0,15.0,0.0,0.0
932,46.0,0.0,15.0,0.0,0.0
933,80.0,0.0,480.0,0.0,0.0
934,77.0,240.0,240.0,0.0,0.0
935,76.0,160.0,240.0,0.0,0.0
936,53.0,0.0,15.0,0.0,0.0
937,46.0,0.0,15.0,0.0,0.0
938,74.0,160.0,150.0,0.0,0.0
939,76.0,160.0,150.0,0.0,0.0
940,74.0,480.0,150.0,0.0,0.0
941,53.0,0.0,480.0,0.0,0.0
942,68.0,120.0,960.0,0.0,0.0
943,46.0,480.0,15.0,0.0,0.0
944,53.0,0.0,480.0,0.0,0.0
945,46.0,0.0,15.0,0.0,0.0
946,81.0,360.0,120.0,0.0,0.0
947,81.0,480.0,120.0,0.0,0.0
948,53.0,0.0,15.0,0.0,0.0
949,46.0,0.0,15.0,0.0,0.0
950,80.0,240.0,480.0,0.0,0.0
951,53.0,0.0,15.0,0.0,0.0
952,46.0,240.0,480.0,0.0,0.0
953,77.0,240.0,240.0,0.0,0.0
954,76.0,0.0,240.0,0.0,0.0
955,74.0,240.0,240.0,0.0,0.0
956,53.0,0.0,15.0,0.0,0.0
957,46.0,0.0,480.0,0.0,0.0
958,77.0,60.0,120.0,0.0,0.0
959,76.0,60.0,60.0,0.0,0.0
960,77.0,60.0,60.0,0.0,0.0
961,76.0,60.0,60.0,0.0,0.0
962,77.0,60.0,60.0,0.0,0.0
963,76.0,60.0,60.0,0.0,0.0
964,77.0,60.0,60.0,0.0,0.0
965,76.0,60.0,60.0,0.0,0.0
966,77.0,240.0,60.0,0.0,0.0
967,46.0,0.0,15.0,0.0,0.0
968,53.0,0.0,15.0,0.0,0.0
969,74.0,240.0,240.0,0.0,0.0
970,68.0,120.0,120.0,0.0,0.0
971,81.0,360.0,120.0,0.0,0.0
972,53.0,0.0,15.0,0.0,0.0
973,46.0,0.0,15.0,0.0,0.0
974,81.0,480.0,120.0,0.0,0.0
975,53.0,360.0,480.0,0.0,0.0
976,80.0,0.0,480.0,0.0,0.0
977,46.0,0.0,480.0,0.0,0.0
978,77.0,120.0,360.0,0.0,0.0
979,46.0,160.0,480.0,0.0,0.0
980,53.0,0.0,480.0,0.0,0.0
981,76.0,0.0,120.0,0.0,0.0
982,74.0,160.0,150.0,0.0,0.0
983,53.0,720.0,480.0,0.0,0.0
984,76.0,160.0,150.0,0.0,0.0
985,74.0,0.0,150.0,0.0,0.0
986,52.0,240.0,960.0,0.0,0.0
987,73.0,240.0,720.0,0.0,0.0
988,71.0,0.0,240.0,0.0,0.0
989,69.0,0.0,240.0,0.0,0.0
990,45.0,0.0,15.0,0.0,0.0
991,69.0,480.0,120.0,0.0,0.0
992,71.0,0.0,480.0,0.0,0.0
993,67.0,0.0,480.0,0.0,0.0
994,64.0,480.0,480.0,0.0,0.0
995,57.0,0.0,480.0,0.0,0.0
996,73.0,240.0,480.0,0.0,0.0
997,57.0,0.0,480.0,0.0,0.0
998,64.0,0.0,480.0,0.0,0.0
999,67.0,0.0,480.0,0.0,0.0
1000,50.0,240.0,240.0,0.0,0.0
1001,74.0,0.0,240.0,0.0,0.0
1002,76.0,480.0,120.0,0.0,0.0
1003,66.0,240.0,480.0,0.0,0.0
1004,78.0,0.0,480.0,0.0,0.0
1005,57.0,0.0,480.0,0.0,0.0
1006,62.0,0.0,480.0,0.0,0.0
1007,79.0,240.0,240.0,0.0,0.0
1008,50.0,0.0,240.0,0.0,0.0
1009,81.0,120.0,240.0,0.0,0.0
1010,43.0,0.0,390.0,0.0,0.0
1011,83.0,270.0,120.0,0.0,0.0
1012,55.0,90.0,390.0,0.0,0.0
1013,85.0,60.0,120.0,0.0,0.0
1014,59.0,0.0,570.0,0.0,0.0
1015,62.0,240.0,540.0,0.0,0.0
1016,67.0,0.0,510.0,0.0,0.0
1017,71.0,0.0,480.0,0.0,0.0
1018,86.0,60.0,60.0,0.0,0.0
1019,88.0,60.0,60.0,0.0,0.0
1020,86.0,60.0,60.0,0.0,0.0
1021,88.0,60.0,60.0,0.0,0.0
1022,86.0,60.0,60.0,0.0,0.0
1023,88.0,60.0,60.0,0.0,0.0
1024,86.0,60.0,60.0,0.0,0.0
1025,88.0,0.0,60.0,0.0,0.0
1026,85.0,180.0,240.0,0.0,0.0
1027,83.0,60.0,180.0,0.0,0.0
1028,81.0,120.0,60.0,0.0,0.0
1029,86.0,120.0,120.0,0.0,0.0
1030,50.0,240.0,240.0,0.0,0.0
1031,86.0,480.0,120.0,0.0,0.0
1032,78.0,60.0,900.0,0.0,0.0
1033,62.0,0.0,480.0,0.0,0.0
1034,57.0,420.0,15.0,0.0,0.0
1035,66.0,0.0,15.0,0.0,0.0
1036,62.0,0.0,480.0,0.0,0.0
1037,79.0,0.0,60.0,0.0,0.0
1038,45.0,240.0,240.0,0.0,0.0
1039,83.0,120.0,120.0,0.0,0.0
1040,83.0,480.0,120.0,0.0,0.0
1041,73.0,60.0,900.0,0.0,0.0
1042,67.0,0.0,15.0,0.0,0.0
1043,57.0,420.0,15.0,0.0,0.0
1044,64.0,0.0,15.0,0.0,0.0
1045,74.0,0.0,60.0,0.0,0.0
1046,78.0,120.0,120.0,0.0,0.0
1047,50.0,240.0,240.0,0.0,0.0
1048,78.0,480.0,120.0,0.0,0.0
1049,68.0,0.0,960.0,0.0,0.0
1050,62.0,0.0,15.0,0.0,0.0
1051,66.0,0.0,15.0,0.0,0.0
1052,57.0,480.0,15.0,0.0,0.0
1053,45.0,240.0,240.0,0.0,0.0
1054,69.0,120.0,120.0,0.0,0.0
1055,73.0,240.0,120.0,0.0,0.0
1056,61.0,360.0,480.0,0.0,0.0
1057,67.0,0.0,480.0,0.0,0.0
1058,76.0,240.0,240.0,0.0,0.0
1059,79.0,0.0,240.0,0.0,0.0
1060,83.0,60.0,360.0,0.0,0.0
1061,67.0,0.0,480.0,0.0,0.0
1062,61.0,0.0,480.0,0.0,0.0
1063,57.0,0.0,480.0,0.0,0.0
1064,81.0,60.0,60.0,0.0,0.0
1065,81.0,120.0,60.0,0.0,0.0
1066,50.0,240.0,240.0,0.0,0.0
1067,90.0,120.0,120.0,0.0,0.0
1068,88.0,60.0,120.0,0.0,0.0
1069,86.0,60.0,60.0,0.0,0.0
1070,66.0,0.0,480.0,0.0,0.0
1071,62.0,0.0,480.0,0.0,0.0
1072,57.0,480.0,480.0,0.0,0.0
1073,88.0,120.0,60.0,0.0,0.0
1074,86.0,240.0,120.0,0.0,0.0
1075,83.0,0.0,240.0,0.0,0.0
1076,81.0,0.0,480.0,0.0,0.0
1077,66.0,120.0,480.0,0.0,0.0
1078,62.0,0.0,480.0,0.0,0.0
1079,57.0,0.0,480.0,0.0,0.0
1080,83.0,0.0,60.0,0.0,0.0
1081,86.0,120.0,120.0,0.0,0.0
1082,50.0,240.0,240.0,0.0,0.0
1083,86.0,480.0,120.0,0.0,0.0
1084,73.0,60.0,840.0,0.0,0.0
1085,57.0,360.0,15.0,0.0,0.0
1086,64.0,0.0,15.0,0.0,0.0
1087,67.0,0.0,15.0,0.0,0.0
1088,74.0,60.0,60.0,0.0,0.0
1089,78.0,0.0,60.0,0.0,0.0
1090,50.0,240.0,240.0,0.0,0.0
1091,81.0,120.0,120.0,0.0,0.0
1092,81.0,480.0,120.0,0.0,0.0
1093,68.0,120.0,960.0,0.0,0.0
1094,57.0,480.0,15.0,0.0,0.0
1095,62.0,0.0,15.0,0.0,0.0
1096,66.0,0.0,15.0,0.0,0.0
1097,45.0,240.0,240.0,0.0,0.0
1098,69.0,120.0,120.0,0.0,0.0
1099,73.0,240.0,120.0,0.0,0.0
1100,67.0,0.0,480.0,0.0,0.0
1101,76.0,240.0,240.0,0.0,0.0
1102,79.0,60.0,240.0,0.0,0.0
1103,57.0,0.0,15.0,0.0,0.0
1104,61.0,0.0,480.0,0.0,0.0
1105,67.0,0.0,480.0,0.0,0.0
1106,78.0,60.0,60.0,0.0,0.0
1107,79.0,240.0,60.0,0.0,0.0
1108,78.0,120.0,240.0,0.0,0.0
1109,76.0,0.0,120.0,0.0,0.0
1110,78.0,240.0,240.0,0.0,0.0
1111,69.0,0.0,240.0,0.0,0.0
1112,66.0,1440.0,960.0,0.0,0.0
1113,74.0,0.0,960.0,0.0,0.0
1114,50.0,960.0,15.0,0.0,0.0
1115,86.0,0.0,960.0,0.0,0.0
1116,57.0,0.0,960.0,0.0,0.0
