,note,step,duration,channel,velocity
0,39.0,0,480,0.0,75.0
1,51.0,0,480,0.0,74.0
2,63.0,0,480,0.0,88.0
3,27.0,0,480,0.0,63.0
4,57.0,720,120,0.0,53.0
5,52.0,0,120,0.0,45.0
6,49.0,0,120,0.0,45.0
7,50.0,120,120,0.0,47.0
8,53.0,0,120,0.0,47.0
9,58.0,0,120,0.0,56.0
10,51.0,0,120,0.0,50.0
11,54.0,0,120,0.0,50.0
12,59.0,120,120,0.0,59.0
13,52.0,0,120,0.0,52.0
14,55.0,120,120,0.0,52.0
15,60.0,0,120,0.0,62.0
16,53.0,0,0,0.0,57.0
17,56.0,120,120,0.0,55.0
18,61.0,0,120,0.0,65.0
19,57.0,0,120,0.0,68.0
20,62.0,120,120,0.0,68.0
21,55.0,120,120,0.0,71.0
22,63.0,0,120,0.0,76.0
23,58.0,0,120,0.0,64.0
24,39.0,480,120,0.0,47.0
25,58.0,0,120,0.0,68.0
26,46.0,0,120,0.0,56.0
27,55.0,0,120,0.0,57.0
28,68.0,0,480,0.0,54.0
29,64.0,0,480,0.0,45.0
30,56.0,480,480,0.0,45.0
31,50.0,0,480,0.0,40.0
32,59.0,0,480,0.0,47.0
33,51.0,0,240,0.0,34.0
34,55.0,0,240,0.0,40.0
35,63.0,0,240,0.0,40.0
36,67.0,0,240,0.0,47.0
37,58.0,480,240,0.0,40.0
38,59.0,0,130,0.0,42.0
39,44.0,480,130,0.0,36.0
40,43.0,120,130,0.0,33.0
41,58.0,0,130,0.0,39.0
42,52.0,0,130,0.0,40.0
43,38.0,120,130,0.0,33.0
44,39.0,0,130,0.0,35.0
45,51.0,120,130,0.0,42.0
46,44.0,120,130,0.0,39.0
47,59.0,0,130,0.0,47.0
48,43.0,120,130,0.0,38.0
49,58.0,0,130,0.0,45.0
50,38.0,120,130,0.0,39.0
51,52.0,0,130,0.0,47.0
52,39.0,120,130,0.0,40.0
53,51.0,0,130,0.0,47.0
54,44.0,120,130,0.0,44.0
55,59.0,0,130,0.0,53.0
56,43.0,120,130,0.0,43.0
57,58.0,0,130,0.0,50.0
58,38.0,120,130,0.0,44.0
59,52.0,0,130,0.0,53.0
60,51.0,0,130,0.0,55.0
61,39.0,120,130,0.0,46.0
62,44.0,120,130,0.0,52.0
63,59.0,0,130,0.0,61.0
64,58.0,0,130,0.0,58.0
65,43.0,120,130,0.0,49.0
66,52.0,120,130,0.0,59.0
67,38.0,0,130,0.0,49.0
68,51.0,120,130,0.0,61.0
69,39.0,0,130,0.0,52.0
70,44.0,0,130,0.0,58.0
71,59.0,120,130,0.0,70.0
72,43.0,120,130,0.0,55.0
73,58.0,0,130,0.0,64.0
74,38.0,120,130,0.0,55.0
75,52.0,0,130,0.0,66.0
76,51.0,120,120,0.0,68.0
77,39.0,120,0,0.0,63.0
78,56.0,0,480,0.0,74.0
79,59.0,0,480,0.0,74.0
80,64.0,0,480,0.0,88.0
81,44.0,0,480,0.0,63.0
82,51.0,0,480,0.0,75.0
83,52.0,0,480,0.0,74.0
84,53.0,0,120,0.0,45.0
85,50.0,720,120,0.0,45.0
86,58.0,0,120,0.0,53.0
87,59.0,0,120,0.0,56.0
88,54.0,120,120,0.0,47.0
89,51.0,0,120,0.0,47.0
90,60.0,120,120,0.0,59.0
91,52.0,0,120,0.0,50.0
92,55.0,0,120,0.0,50.0
93,53.0,0,120,0.0,52.0
94,56.0,0,120,0.0,52.0
95,61.0,120,120,0.0,62.0
96,62.0,120,120,0.0,65.0
97,54.0,0,120,0.0,55.0
98,57.0,0,120,0.0,55.0
99,58.0,0,120,0.0,68.0
100,63.0,120,120,0.0,68.0
101,54.0,0,120,0.0,57.0
102,64.0,0,120,0.0,76.0
103,56.0,0,120,0.0,71.0
104,59.0,120,120,0.0,64.0
105,47.0,0,120,0.0,56.0
106,39.0,0,120,0.0,47.0
107,52.0,0,120,0.0,57.0
108,56.0,0,120,0.0,57.0
109,59.0,480,120,0.0,68.0
110,61.0,0,480,0.0,45.0
111,58.0,0,480,0.0,40.0
112,70.0,0,480,0.0,45.0
113,64.0,480,0,0.0,40.0
114,55.0,0,480,0.0,40.0
115,73.0,0,480,0.0,54.0
116,68.0,0,240,0.0,40.0
117,71.0,0,240,0.0,47.0
118,59.0,0,240,0.0,34.0
119,56.0,0,240,0.0,34.0
120,61.0,0,130,0.0,42.0
121,46.0,480,130,0.0,36.0
122,44.0,120,130,0.0,33.0
123,59.0,0,130,0.0,39.0
124,39.0,0,130,0.0,33.0
125,54.0,120,130,0.0,40.0
126,44.0,120,130,0.0,35.0
127,52.0,0,130,0.0,42.0
128,46.0,120,130,0.0,39.0
129,61.0,0,130,0.0,47.0
130,44.0,120,130,0.0,38.0
131,59.0,0,130,0.0,45.0
132,39.0,120,130,0.0,39.0
133,54.0,0,130,0.0,47.0
134,44.0,120,130,0.0,40.0
135,52.0,0,130,0.0,47.0
136,46.0,0,130,0.0,44.0
137,61.0,120,130,0.0,53.0
138,59.0,0,130,0.0,50.0
139,44.0,120,130,0.0,43.0
140,54.0,120,130,0.0,53.0
141,39.0,0,130,0.0,44.0
142,52.0,120,130,0.0,55.0
143,44.0,0,130,0.0,46.0
144,61.0,120,130,0.0,61.0
145,46.0,0,130,0.0,52.0
146,44.0,0,130,0.0,49.0
147,59.0,120,130,0.0,58.0
148,39.0,0,130,0.0,49.0
149,54.0,120,130,0.0,59.0
150,44.0,120,130,0.0,52.0
151,52.0,0,130,0.0,61.0
152,61.0,0,130,0.0,70.0
153,46.0,120,130,0.0,58.0
154,59.0,0,130,0.0,64.0
155,44.0,120,130,0.0,55.0
156,54.0,0,130,0.0,66.0
157,39.0,120,130,0.0,55.0
158,44.0,120,120,0.0,57.0
159,52.0,0,120,0.0,68.0
160,51.0,0,480,0.0,75.0
161,53.0,0,480,0.0,74.0
162,57.0,0,480,0.0,74.0
163,60.0,0,480,0.0,74.0
164,65.0,120,480,0.0,88.0
165,45.0,0,480,0.0,63.0
166,39.0,0,480,0.0,63.0
167,54.0,0,120,0.0,45.0
168,57.0,720,120,0.0,45.0
169,62.0,0,120,0.0,53.0
170,58.0,0,120,0.0,47.0
171,55.0,120,120,0.0,47.0
172,63.0,0,120,0.0,56.0
173,64.0,0,120,0.0,59.0
174,59.0,0,120,0.0,50.0
175,56.0,120,120,0.0,50.0
176,60.0,120,120,0.0,52.0
177,57.0,0,120,0.0,52.0
178,65.0,0,120,0.0,59.0
179,67.0,0,120,0.0,65.0
180,58.0,0,120,0.0,55.0
181,61.0,120,120,0.0,55.0
182,62.0,0,120,0.0,68.0
183,68.0,120,120,0.0,68.0
184,59.0,0,120,0.0,57.0
185,60.0,120,120,0.0,71.0
186,63.0,0,120,0.0,64.0
187,69.0,0,120,0.0,76.0
188,39.0,0,120,0.0,54.0
189,53.0,0,120,0.0,62.0
190,57.0,0,120,0.0,62.0
191,60.0,0,120,0.0,62.0
192,51.0,0,120,0.0,64.0
193,65.0,480,120,0.0,74.0
194,63.0,0,480,0.0,67.0
195,51.0,0,480,0.0,56.0
196,57.0,480,480,0.0,67.0
197,65.0,0,480,0.0,66.0
198,60.0,0,480,0.0,66.0
199,72.0,0,480,0.0,78.0
200,70.0,480,240,0.0,73.0
201,62.0,0,240,0.0,62.0
202,56.0,0,240,0.0,62.0
203,58.0,0,240,0.0,62.0
204,65.0,0,240,0.0,62.0
205,39.0,0,240,0.0,62.0
206,27.0,0,240,0.0,52.0
207,64.0,0,120,0.0,58.0
208,56.0,720,120,0.0,49.0
209,59.0,0,120,0.0,49.0
210,60.0,0,120,0.0,51.0
211,57.0,0,120,0.0,51.0
212,65.0,120,120,0.0,61.0
213,61.0,120,120,0.0,55.0
214,58.0,0,120,0.0,55.0
215,66.0,0,120,0.0,64.0
216,59.0,0,120,0.0,57.0
217,62.0,0,120,0.0,57.0
218,67.0,120,120,0.0,64.0
219,68.0,120,120,0.0,71.0
220,60.0,0,120,0.0,60.0
221,63.0,0,120,0.0,60.0
222,61.0,120,120,0.0,62.0
223,69.0,0,120,0.0,74.0
224,64.0,0,120,0.0,74.0
225,62.0,0,120,0.0,71.0
226,65.0,0,120,0.0,64.0
227,70.0,120,120,0.0,76.0
228,62.0,0,120,0.0,75.0
229,58.0,480,120,0.0,63.0
230,65.0,0,120,0.0,75.0
231,51.0,0,120,0.0,64.0
232,39.0,0,120,0.0,54.0
233,53.0,0,120,0.0,63.0
234,70.0,0,480,0.0,70.0
235,65.0,480,480,0.0,70.0
236,58.0,0,480,0.0,58.0
237,68.0,0,480,0.0,70.0
238,77.0,0,480,0.0,82.0
239,56.0,0,480,0.0,58.0
240,62.0,0,480,0.0,70.0
241,27.0,0,240,0.0,54.0
242,39.0,0,240,0.0,65.0
243,63.0,0,240,0.0,65.0
244,61.0,0,240,0.0,65.0
245,70.0,0,240,0.0,65.0
246,75.0,0,240,0.0,77.0
247,67.0,480,240,0.0,65.0
248,46.0,0,120,0.0,64.0
249,34.0,0,120,0.0,54.0
250,73.0,0,120,0.0,77.0
251,77.0,480,120,0.0,77.0
252,68.0,120,120,0.0,72.0
253,39.0,120,60,0.0,46.0
254,51.0,0,60,0.0,55.0
255,67.0,0,120,0.0,72.0
256,53.0,0,60,0.0,58.0
257,41.0,120,60,0.0,49.0
258,75.0,0,120,0.0,72.0
259,55.0,0,60,0.0,60.0
260,43.0,120,60,0.0,51.0
261,77.0,0,120,0.0,77.0
262,73.0,0,120,0.0,77.0
263,44.0,0,60,0.0,52.0
264,56.0,120,60,0.0,62.0
265,68.0,0,120,0.0,70.0
266,58.0,120,60,0.0,65.0
267,46.0,0,60,0.0,55.0
268,67.0,0,120,0.0,70.0
269,60.0,0,60,0.0,67.0
270,48.0,0,60,0.0,56.0
271,75.0,120,120,0.0,70.0
272,49.0,0,60,0.0,59.0
273,61.0,120,60,0.0,70.0
274,77.0,0,120,0.0,77.0
275,70.0,0,120,0.0,77.0
276,67.0,120,120,0.0,71.0
277,63.0,120,120,0.0,71.0
278,75.0,120,120,0.0,71.0
279,39.0,0,60,0.0,54.0
280,51.0,120,60,0.0,64.0
281,77.0,0,120,0.0,77.0
282,72.0,0,120,0.0,77.0
283,67.0,120,120,0.0,72.0
284,63.0,120,120,0.0,72.0
285,75.0,120,120,0.0,72.0
286,77.0,0,120,0.0,77.0
287,73.0,0,120,0.0,77.0
288,70.0,120,120,0.0,71.0
289,63.0,120,120,0.0,71.0
290,55.0,120,480,0.0,59.0
291,75.0,120,120,0.0,71.0
292,67.0,0,600,0.0,70.0
293,77.0,0,120,0.0,73.0
294,73.0,120,120,0.0,73.0
295,70.0,0,120,0.0,67.0
296,61.0,120,120,0.0,53.0
297,63.0,120,120,0.0,68.0
298,58.0,0,120,0.0,53.0
299,75.0,120,120,0.0,68.0
300,51.0,0,120,0.0,54.0
301,67.0,0,120,0.0,63.0
302,77.0,120,120,0.0,75.0
303,73.0,0,120,0.0,75.0
304,70.0,0,120,0.0,70.0
305,61.0,120,120,0.0,58.0
306,58.0,0,120,0.0,58.0
307,63.0,120,120,0.0,71.0
308,51.0,120,120,0.0,58.0
309,75.0,0,120,0.0,71.0
310,67.0,120,120,0.0,63.0
311,77.0,0,120,0.0,77.0
312,73.0,0,120,0.0,77.0
313,61.0,120,120,0.0,58.0
314,70.0,0,120,0.0,72.0
315,63.0,0,120,0.0,73.0
316,58.0,120,120,0.0,58.0
317,51.0,0,120,0.0,59.0
318,75.0,120,120,0.0,73.0
319,67.0,120,120,0.0,68.0
320,73.0,0,120,0.0,80.0
321,77.0,0,120,0.0,80.0
322,70.0,120,120,0.0,74.0
323,61.0,0,120,0.0,60.0
324,58.0,0,120,0.0,61.0
325,63.0,120,120,0.0,75.0
326,75.0,0,120,0.0,77.0
327,51.0,120,120,0.0,62.0
328,61.0,0,120,0.0,70.0
329,73.0,0,120,0.0,83.0
330,77.0,120,120,0.0,83.0
331,55.0,0,120,0.0,63.0
332,70.0,120,120,0.0,78.0
333,51.0,120,120,0.0,63.0
334,63.0,0,120,0.0,79.0
335,46.0,0,120,0.0,63.0
336,75.0,120,120,0.0,79.0
337,73.0,0,120,0.0,85.0
338,77.0,0,120,0.0,85.0
339,55.0,120,120,0.0,72.0
340,49.0,0,120,0.0,66.0
341,70.0,120,120,0.0,80.0
342,46.0,0,120,0.0,65.0
343,63.0,120,120,0.0,81.0
344,39.0,0,120,0.0,66.0
345,75.0,120,120,0.0,82.0
346,32.0,120,120,0.0,61.0
347,44.0,0,120,0.0,72.0
348,77.0,0,360,0.0,89.0
349,73.0,0,360,0.0,75.0
350,51.0,0,240,0.0,61.0
351,63.0,240,240,0.0,72.0
352,75.0,0,0,0.0,85.0
353,72.0,0,0,0.0,72.0
354,56.0,0,240,0.0,59.0
355,60.0,0,240,0.0,70.0
356,68.0,120,240,0.0,70.0
357,39.0,240,60,0.0,66.0
358,51.0,0,60,0.0,78.0
359,56.0,0,120,0.0,79.0
360,44.0,240,120,0.0,67.0
361,68.0,0,120,0.0,68.0
362,72.0,0,120,0.0,80.0
363,70.0,0,120,0.0,67.0
364,73.0,120,120,0.0,79.0
365,27.0,240,240,0.0,56.0
366,39.0,0,240,0.0,67.0
367,73.0,120,120,0.0,72.0
368,77.0,0,120,0.0,85.0
369,75.0,60,0,0.0,85.0
370,44.0,0,240,0.0,72.0
371,32.0,0,240,0.0,61.0
372,77.0,60,60,0.0,74.0
373,72.0,120,240,0.0,68.0
374,51.0,0,240,0.0,56.0
375,63.0,0,240,0.0,67.0
376,71.0,0,120,0.0,68.0
377,74.0,120,120,0.0,80.0
378,56.0,0,240,0.0,58.0
379,60.0,0,240,0.0,69.0
380,68.0,0,240,0.0,69.0
381,51.0,0,60,0.0,73.0
382,39.0,240,60,0.0,61.0
383,75.0,120,480,0.0,80.0
384,72.0,0,480,0.0,68.0
385,44.0,240,120,0.0,67.0
386,56.0,0,120,0.0,79.0
387,72.0,0,120,0.0,80.0
388,68.0,240,120,0.0,68.0
389,27.0,0,240,0.0,56.0
390,70.0,120,120,0.0,67.0
391,39.0,0,240,0.0,67.0
392,73.0,120,0,0.0,72.0
393,77.0,0,120,0.0,85.0
394,44.0,0,240,0.0,72.0
395,32.0,0,240,0.0,61.0
396,77.0,60,60,0.0,74.0
397,75.0,0,120,0.0,80.0
398,75.0,0,120,0.0,85.0
399,72.0,120,240,0.0,68.0
400,63.0,60,240,0.0,67.0
401,71.0,120,120,0.0,68.0
402,74.0,0,120,0.0,80.0
403,51.0,0,240,0.0,56.0
404,73.0,0,120,0.0,72.0
405,77.0,0,120,0.0,85.0
406,77.0,60,60,0.0,74.0
407,75.0,0,120,0.0,80.0
408,60.0,0,240,0.0,69.0
409,56.0,0,240,0.0,58.0
410,68.0,120,240,0.0,69.0
411,51.0,0,120,0.0,67.0
412,39.0,0,120,0.0,56.0
413,75.0,60,120,0.0,85.0
414,72.0,120,240,0.0,68.0
415,71.0,0,120,0.0,68.0
416,74.0,120,120,0.0,80.0
417,56.0,0,120,0.0,70.0
418,44.0,0,120,0.0,59.0
419,75.0,120,180,0.0,80.0
420,72.0,0,180,0.0,68.0
421,39.0,180,210,0.0,57.0
422,54.0,30,150,0.0,68.0
423,46.0,0,180,0.0,57.0
424,78.0,0,240,0.0,78.0
425,70.0,30,270,0.0,66.0
426,63.0,0,300,0.0,66.0
427,41.0,150,240,0.0,57.0
428,51.0,30,180,0.0,68.0
429,57.0,30,150,0.0,68.0
430,63.0,0,240,0.0,64.0
431,69.0,0,240,0.0,64.0
432,77.0,0,240,0.0,76.0
433,48.0,150,90,0.0,56.0
434,53.0,30,210,0.0,56.0
435,57.0,30,180,0.0,67.0
436,63.0,0,150,0.0,67.0
437,72.0,0,240,0.0,76.0
438,69.0,30,240,0.0,64.0
439,65.0,0,240,0.0,64.0
440,58.0,30,270,0.0,69.0
441,53.0,30,300,0.0,58.0
442,46.0,150,330,0.0,58.0
443,61.0,30,240,0.0,69.0
444,73.0,0,240,0.0,76.0
445,70.0,0,240,0.0,64.0
446,65.0,0,240,0.0,64.0
447,66.0,0,80,0.0,73.0
448,54.0,80,80,0.0,73.0
449,30.0,0,240,0.0,55.0
450,66.0,80,80,0.0,73.0
451,42.0,240,240,0.0,65.0
452,53.0,80,240,0.0,65.0
453,65.0,0,240,0.0,77.0
454,29.0,0,240,0.0,55.0
455,41.0,0,240,0.0,65.0
456,61.0,240,180,0.0,72.0
457,37.0,0,240,0.0,53.0
458,49.0,0,240,0.0,63.0
459,66.0,180,60,0.0,78.0
460,46.0,60,120,0.0,72.0
461,34.0,0,120,0.0,61.0
462,75.0,0,360,0.0,75.0
463,78.0,0,360,0.0,89.0
464,53.0,0,240,0.0,61.0
465,65.0,240,240,0.0,72.0
466,73.0,0,0,0.0,72.0
467,77.0,0,0,0.0,85.0
468,61.0,0,240,0.0,70.0
469,70.0,0,240,0.0,70.0
470,58.0,120,240,0.0,59.0
471,53.0,0,60,0.0,78.0
472,41.0,240,60,0.0,66.0
473,46.0,240,120,0.0,67.0
474,58.0,0,120,0.0,79.0
475,70.0,240,120,0.0,68.0
476,73.0,0,120,0.0,80.0
477,41.0,0,240,0.0,67.0
478,29.0,0,240,0.0,56.0
479,72.0,0,120,0.0,67.0
480,75.0,0,0,0.0,72.0
481,78.0,0,120,0.0,85.0
482,77.0,0,120,0.0,80.0
483,78.0,60,60,0.0,74.0
484,46.0,0,240,0.0,72.0
485,34.0,120,240,0.0,61.0
486,77.0,0,120,0.0,85.0
487,73.0,120,240,0.0,68.0
488,65.0,60,240,0.0,67.0
489,53.0,0,240,0.0,56.0
490,76.0,120,120,0.0,80.0
491,72.0,0,120,0.0,68.0
492,61.0,0,240,0.0,69.0
493,70.0,0,240,0.0,69.0
494,58.0,120,240,0.0,58.0
495,41.0,240,60,0.0,61.0
496,53.0,0,60,0.0,73.0
497,77.0,0,480,0.0,80.0
498,73.0,0,480,0.0,68.0
499,58.0,240,120,0.0,79.0
500,46.0,0,120,0.0,67.0
501,67.0,240,120,0.0,68.0
502,79.0,0,120,0.0,80.0
503,73.0,0,120,0.0,68.0
504,68.0,0,120,0.0,67.0
505,80.0,120,120,0.0,79.0
506,34.0,0,240,0.0,56.0
507,46.0,0,240,0.0,67.0
508,84.0,120,120,0.0,84.0
509,72.0,0,120,0.0,71.0
510,39.0,0,120,0.0,72.0
511,27.0,0,120,0.0,61.0
512,75.0,120,120,0.0,62.0
513,79.0,0,120,0.0,73.0
514,67.0,0,120,0.0,66.0
515,61.0,120,120,0.0,55.0
516,72.0,0,120,0.0,66.0
517,63.0,0,120,0.0,55.0
518,84.0,0,120,0.0,78.0
519,82.0,0,60,0.0,77.0
520,70.0,60,0,0.0,68.0
521,82.0,0,120,0.0,81.0
522,51.0,0,120,0.0,69.0
523,39.0,0,120,0.0,59.0
524,72.0,120,120,0.0,59.0
525,75.0,0,120,0.0,70.0
526,63.0,0,120,0.0,63.0
527,60.0,120,120,0.0,53.0
528,70.0,0,120,0.0,63.0
529,82.0,0,120,0.0,75.0
530,80.0,60,0,0.0,78.0
531,68.0,180,60,0.0,57.0
532,68.0,0,120,0.0,66.0
533,51.0,0,120,0.0,67.0
534,39.0,0,120,0.0,57.0
535,75.0,0,120,0.0,66.0
536,70.0,120,120,0.0,56.0
537,63.0,0,120,0.0,61.0
538,80.0,120,120,0.0,73.0
539,68.0,0,120,0.0,62.0
540,58.0,0,120,0.0,51.0
541,67.0,0,0,0.0,63.0
542,79.0,0,0,0.0,75.0
543,34.0,0,120,0.0,54.0
544,46.0,60,120,0.0,64.0
545,74.0,120,120,0.0,65.0
546,70.0,0,120,0.0,55.0
547,67.0,120,120,0.0,60.0
548,79.0,0,120,0.0,71.0
549,58.0,0,120,0.0,50.0
550,62.0,0,120,0.0,60.0
551,56.0,0,120,0.0,50.0
552,65.0,0,60,0.0,57.0
553,77.0,180,60,0.0,68.0
554,77.0,0,120,0.0,73.0
555,65.0,0,120,0.0,61.0
556,39.0,60,120,0.0,56.0
557,51.0,0,120,0.0,66.0
558,67.0,120,120,0.0,54.0
559,70.0,0,120,0.0,63.0
560,77.0,0,120,0.0,69.0
561,65.0,120,120,0.0,58.0
562,58.0,0,120,0.0,62.0
563,55.0,0,120,0.0,52.0
564,63.0,180,60,0.0,54.0
565,75.0,0,60,0.0,63.0
566,61.0,0,120,0.0,63.0
567,73.0,0,120,0.0,75.0
568,68.0,120,120,0.0,63.0
569,41.0,0,240,0.0,57.0
570,65.0,0,120,0.0,54.0
571,73.0,120,120,0.0,70.0
572,61.0,0,120,0.0,59.0
573,60.0,180,60,0.0,53.0
574,72.0,0,60,0.0,62.0
575,56.0,0,240,0.0,62.0
576,53.0,60,480,0.0,68.0
577,49.0,0,240,0.0,68.0
578,37.0,0,240,0.0,57.0
579,53.0,240,240,0.0,50.0
580,65.0,60,480,0.0,70.0
581,58.0,0,240,0.0,59.0
582,67.0,240,60,0.0,64.0
583,68.0,60,60,0.0,65.0
584,67.0,60,60,0.0,65.0
585,68.0,60,60,0.0,66.0
586,36.0,0,240,0.0,58.0
587,48.0,0,240,0.0,69.0
588,65.0,0,120,0.0,66.0
589,58.0,60,240,0.0,52.0
590,60.0,0,240,0.0,62.0
591,52.0,0,240,0.0,52.0
592,67.0,120,120,0.0,67.0
593,68.0,0,60,0.0,69.0
594,70.0,60,60,0.0,69.0
595,68.0,60,60,0.0,70.0
596,41.0,0,240,0.0,71.0
597,29.0,120,240,0.0,60.0
598,70.0,60,60,0.0,70.0
599,67.0,0,120,0.0,71.0
600,53.0,60,240,0.0,67.0
601,56.0,0,240,0.0,67.0
602,60.0,0,240,0.0,67.0
603,68.0,120,120,0.0,72.0
604,51.0,120,120,0.0,70.0
605,69.0,0,120,0.0,75.0
606,39.0,0,120,0.0,59.0
607,70.0,120,120,0.0,70.0
608,61.0,0,0,0.0,59.0
609,67.0,0,0,0.0,59.0
610,72.0,120,120,0.0,70.0
611,51.0,0,240,0.0,55.0
612,73.0,120,120,0.0,70.0
613,58.0,0,240,0.0,65.0
614,56.0,0,240,0.0,65.0
615,44.0,120,240,0.0,55.0
616,72.0,0,240,0.0,75.0
617,60.0,0,240,0.0,63.0
618,51.0,0,240,0.0,55.0
619,68.0,0,0,0.0,64.0
620,77.0,0,180,0.0,76.0
621,65.0,0,180,0.0,64.0
622,59.0,240,180,0.0,64.0
623,62.0,0,180,0.0,64.0
624,75.0,0,60,0.0,69.0
625,60.0,0,60,0.0,58.0
626,63.0,0,60,0.0,58.0
627,68.0,180,60,0.0,58.0
628,68.0,120,0,0.0,72.0
629,60.0,60,120,0.0,65.0
630,63.0,0,120,0.0,65.0
631,75.0,0,120,0.0,77.0
632,80.0,120,120,0.0,76.0
633,79.0,180,60,0.0,70.0
634,56.0,0,240,0.0,66.0
635,44.0,0,240,0.0,56.0
636,67.0,0,60,0.0,59.0
637,49.0,0,240,0.0,68.0
638,37.0,0,240,0.0,57.0
639,58.0,0,240,0.0,59.0
640,53.0,240,240,0.0,50.0
641,77.0,0,480,0.0,70.0
642,65.0,60,480,0.0,59.0
643,67.0,0,120,0.0,64.0
644,79.0,120,40,0.0,65.0
645,80.0,40,40,0.0,66.0
646,36.0,240,240,0.0,58.0
647,48.0,0,240,0.0,69.0
648,79.0,40,40,0.0,65.0
649,77.0,0,120,0.0,66.0
650,65.0,40,120,0.0,56.0
651,60.0,0,240,0.0,52.0
652,67.0,120,120,0.0,56.0
653,79.0,0,120,0.0,67.0
654,64.0,0,240,0.0,62.0
655,58.0,0,240,0.0,52.0
656,68.0,120,120,0.0,64.0
657,80.0,120,40,0.0,65.0
658,82.0,40,40,0.0,65.0
659,80.0,40,40,0.0,65.0
660,41.0,0,240,0.0,71.0
661,29.0,0,240,0.0,60.0
662,79.0,40,120,0.0,71.0
663,67.0,0,120,0.0,60.0
664,56.0,0,240,0.0,67.0
665,60.0,0,240,0.0,67.0
666,80.0,0,120,0.0,72.0
667,68.0,120,120,0.0,61.0
668,65.0,0,240,0.0,67.0
669,39.0,0,120,0.0,59.0
670,51.0,120,120,0.0,70.0
671,81.0,0,120,0.0,75.0
672,75.0,0,120,0.0,63.0
673,69.0,0,120,0.0,63.0
674,82.0,0,120,0.0,70.0
675,70.0,120,120,0.0,63.0
676,79.0,0,120,0.0,59.0
677,72.0,0,120,0.0,59.0
678,84.0,0,120,0.0,70.0
679,67.0,0,240,0.0,65.0
680,61.0,0,240,0.0,55.0
681,63.0,0,240,0.0,55.0
682,58.0,120,240,0.0,55.0
683,85.0,0,120,0.0,70.0
684,73.0,120,120,0.0,59.0
685,84.0,0,120,0.0,75.0
686,63.0,0,120,0.0,55.0
687,68.0,0,120,0.0,65.0
688,72.0,0,120,0.0,63.0
689,56.0,120,120,0.0,55.0
690,80.0,0,120,0.0,63.0
691,77.0,0,180,0.0,64.0
692,80.0,0,180,0.0,64.0
693,89.0,0,180,0.0,76.0
694,62.0,240,180,0.0,64.0
695,59.0,0,180,0.0,64.0
696,68.0,0,0,0.0,58.0
697,71.0,0,180,0.0,64.0
698,72.0,0,0,0.0,65.0
699,60.0,0,0,0.0,65.0
700,80.0,0,60,0.0,58.0
701,63.0,0,60,0.0,58.0
702,75.0,0,0,0.0,65.0
703,68.0,60,0,0.0,65.0
704,87.0,0,0,0.0,77.0
705,63.0,0,120,0.0,65.0
706,80.0,0,120,0.0,65.0
707,87.0,0,60,0.0,60.0
708,75.0,180,60,0.0,60.0
709,63.0,30,210,0.0,56.0
710,53.0,0,240,0.0,56.0
711,69.0,0,180,0.0,66.0
712,85.0,30,180,0.0,76.0
713,81.0,0,180,0.0,64.0
714,73.0,0,180,0.0,64.0
715,72.0,0,60,0.0,59.0
716,84.0,180,60,0.0,70.0
717,82.0,0,120,0.0,76.0
718,70.0,30,120,0.0,64.0
719,61.0,0,180,0.0,71.0
720,46.0,0,240,0.0,60.0
721,53.0,30,210,0.0,60.0
722,58.0,0,180,0.0,59.0
723,66.0,0,180,0.0,59.0
724,70.0,0,180,0.0,70.0
725,54.0,30,180,0.0,66.0
726,46.0,30,210,0.0,56.0
727,39.0,180,240,0.0,56.0
728,60.0,180,60,0.0,59.0
729,72.0,0,60,0.0,70.0
730,34.0,0,240,0.0,52.0
731,49.0,0,180,0.0,62.0
732,41.0,30,240,0.0,52.0
733,73.0,0,240,0.0,74.0
734,61.0,30,240,0.0,62.0
735,65.0,0,240,0.0,62.0
736,27.0,0,180,0.0,52.0
737,73.0,0,180,0.0,72.0
738,66.0,0,180,0.0,61.0
739,63.0,0,180,0.0,61.0
740,61.0,0,180,0.0,61.0
741,39.0,240,180,0.0,62.0
742,60.0,0,60,0.0,58.0
743,72.0,0,60,0.0,69.0
744,41.0,30,210,0.0,52.0
745,34.0,180,240,0.0,52.0
746,49.0,0,180,0.0,62.0
747,70.0,30,240,0.0,75.0
748,65.0,0,240,0.0,63.0
749,58.0,0,240,0.0,63.0
750,51.0,0,180,0.0,61.0
751,46.0,30,210,0.0,51.0
752,63.0,0,180,0.0,61.0
753,58.0,0,180,0.0,61.0
754,56.0,30,180,0.0,61.0
755,68.0,0,180,0.0,72.0
756,39.0,180,240,0.0,51.0
757,66.0,0,60,0.0,68.0
758,54.0,180,60,0.0,57.0
759,61.0,30,120,0.0,60.0
760,53.0,0,120,0.0,60.0
761,65.0,0,120,0.0,71.0
762,41.0,30,210,0.0,56.0
763,34.0,0,240,0.0,56.0
764,49.0,0,180,0.0,66.0
765,45.0,0,60,0.0,59.0
766,33.0,240,60,0.0,50.0
767,34.0,0,60,0.0,50.0
768,46.0,60,60,0.0,59.0
769,48.0,60,60,0.0,60.0
770,36.0,0,60,0.0,51.0
771,49.0,0,60,0.0,61.0
772,37.0,60,60,0.0,51.0
773,39.0,0,60,0.0,51.0
774,51.0,60,60,0.0,61.0
775,53.0,0,60,0.0,62.0
776,41.0,60,60,0.0,52.0
777,43.0,60,60,0.0,53.0
778,55.0,0,60,0.0,63.0
779,45.0,0,60,0.0,53.0
780,57.0,60,60,0.0,63.0
781,46.0,60,60,0.0,54.0
782,58.0,0,60,0.0,64.0
783,60.0,0,60,0.0,65.0
784,48.0,60,60,0.0,55.0
785,49.0,60,60,0.0,55.0
786,61.0,0,60,0.0,65.0
787,63.0,0,60,0.0,66.0
788,51.0,60,60,0.0,56.0
789,65.0,0,60,0.0,67.0
790,53.0,60,60,0.0,56.0
791,67.0,60,60,0.0,67.0
792,55.0,0,60,0.0,56.0
793,57.0,0,60,0.0,57.0
794,69.0,60,60,0.0,68.0
795,70.0,0,60,0.0,68.0
796,58.0,60,60,0.0,57.0
797,72.0,60,60,0.0,69.0
798,60.0,0,60,0.0,58.0
799,61.0,0,60,0.0,59.0
800,73.0,60,60,0.0,70.0
801,75.0,0,60,0.0,70.0
802,63.0,60,60,0.0,59.0
803,77.0,60,60,0.0,71.0
804,65.0,0,60,0.0,60.0
805,79.0,60,60,0.0,72.0
806,67.0,0,60,0.0,61.0
807,69.0,0,60,0.0,61.0
808,81.0,60,60,0.0,72.0
809,70.0,0,120,0.0,77.0
810,82.0,60,120,0.0,77.0
811,84.0,180,60,0.0,71.0
812,79.0,0,120,0.0,76.0
813,82.0,0,120,0.0,76.0
814,73.0,60,120,0.0,64.0
815,39.0,0,120,0.0,73.0
816,27.0,0,120,0.0,62.0
817,72.0,0,120,0.0,60.0
818,78.0,0,120,0.0,71.0
819,81.0,120,120,0.0,71.0
820,51.0,0,120,0.0,66.0
821,39.0,120,120,0.0,56.0
822,73.0,0,240,0.0,63.0
823,79.0,240,0,0.0,71.0
824,82.0,0,240,0.0,75.0
825,63.0,0,240,0.0,72.0
826,72.0,0,0,0.0,62.0
827,84.0,0,240,0.0,71.0
828,51.0,0,240,0.0,61.0
829,60.0,0,240,0.0,59.0
830,65.0,0,240,0.0,70.0
831,68.0,0,240,0.0,62.0
832,80.0,240,240,0.0,73.0
833,53.0,0,240,0.0,59.0
834,56.0,0,240,0.0,56.0
835,63.0,0,240,0.0,60.0
836,68.0,0,0,0.0,65.0
837,48.0,0,240,0.0,56.0
838,60.0,240,240,0.0,66.0
839,75.0,0,240,0.0,71.0
840,56.0,240,240,0.0,72.0
841,49.0,0,240,0.0,61.0
842,65.0,0,240,0.0,65.0
843,77.0,0,240,0.0,77.0
844,61.0,0,240,0.0,72.0
845,68.0,240,0,0.0,61.0
846,53.0,0,240,0.0,66.0
847,41.0,0,240,0.0,56.0
848,80.0,0,240,0.0,72.0
849,72.0,0,240,0.0,61.0
850,73.0,0,240,0.0,81.0
851,61.0,0,240,0.0,69.0
852,58.0,0,240,0.0,72.0
853,53.0,0,240,0.0,72.0
854,46.0,0,240,0.0,60.0
855,70.0,240,240,0.0,81.0
856,65.0,0,0,0.0,66.0
857,46.0,0,240,0.0,69.0
858,73.0,0,240,0.0,78.0
859,68.0,0,240,0.0,66.0
860,77.0,0,240,0.0,78.0
861,34.0,240,240,0.0,58.0
862,51.0,240,240,0.0,77.0
863,39.0,0,240,0.0,65.0
864,68.0,0,240,0.0,87.0
865,63.0,0,240,0.0,74.0
866,58.0,0,240,0.0,74.0
867,70.0,0,240,0.0,87.0
868,39.0,0,240,0.0,71.0
869,27.0,240,240,0.0,60.0
870,61.0,0,240,0.0,69.0
871,63.0,0,240,0.0,69.0
872,70.0,0,240,0.0,82.0
873,75.0,0,240,0.0,82.0
874,67.0,0,240,0.0,69.0
875,44.0,0,120,0.0,79.0
876,32.0,240,120,0.0,67.0
877,77.0,0,360,0.0,82.0
878,89.0,0,360,0.0,97.0
879,85.0,0,360,0.0,82.0
880,84.0,0,120,0.0,79.0
881,75.0,120,120,0.0,79.0
882,60.0,0,0,0.0,77.0
883,63.0,0,240,0.0,79.0
884,51.0,240,240,0.0,67.0
885,87.0,0,0,0.0,93.0
886,56.0,120,240,0.0,64.0
887,68.0,0,240,0.0,77.0
888,63.0,0,0,0.0,71.0
889,39.0,60,60,0.0,72.0
890,51.0,0,60,0.0,85.0
891,65.0,48,48,0.0,71.0
892,63.0,48,48,0.0,71.0
893,62.0,48,48,0.0,71.0
894,75.0,0,480,0.0,79.0
895,84.0,0,480,0.0,79.0
896,63.0,48,48,0.0,71.0
897,44.0,0,120,0.0,73.0
898,56.0,48,120,0.0,86.0
899,68.0,0,240,0.0,87.0
900,84.0,0,120,0.0,88.0
901,80.0,0,120,0.0,74.0
902,72.0,0,120,0.0,74.0
903,27.0,0,240,0.0,61.0
904,82.0,0,120,0.0,73.0
905,85.0,120,0,0.0,79.0
906,39.0,240,240,0.0,73.0
907,73.0,120,120,0.0,73.0
908,89.0,0,120,0.0,93.0
909,77.0,0,120,0.0,79.0
910,32.0,0,240,0.0,67.0
911,75.0,0,0,0.0,74.0
912,44.0,0,240,0.0,79.0
913,87.0,60,0,0.0,93.0
914,84.0,0,0,0.0,74.0
915,83.0,120,120,0.0,74.0
916,74.0,0,120,0.0,74.0
917,63.0,0,240,0.0,73.0
918,51.0,0,240,0.0,61.0
919,86.0,0,120,0.0,88.0
920,60.0,0,0,0.0,75.0
921,63.0,180,60,0.0,70.0
922,68.0,0,240,0.0,75.0
923,56.0,0,240,0.0,63.0
924,63.0,60,48,0.0,70.0
925,51.0,0,60,0.0,80.0
926,39.0,0,60,0.0,67.0
927,65.0,48,48,0.0,70.0
928,63.0,48,48,0.0,70.0
929,62.0,48,48,0.0,70.0
930,75.0,120,480,0.0,74.0
931,63.0,48,48,0.0,70.0
932,87.0,0,480,0.0,88.0
933,84.0,0,480,0.0,74.0
934,56.0,0,120,0.0,86.0
935,44.0,48,120,0.0,73.0
936,68.0,0,240,0.0,87.0
937,84.0,240,120,0.0,88.0
938,72.0,0,120,0.0,74.0
939,80.0,0,120,0.0,74.0
940,82.0,0,120,0.0,73.0
941,27.0,0,240,0.0,61.0
942,39.0,0,240,0.0,73.0
943,85.0,120,0,0.0,79.0
944,73.0,120,120,0.0,73.0
945,89.0,0,120,0.0,93.0
946,77.0,0,120,0.0,79.0
947,89.0,60,60,0.0,81.0
948,87.0,60,0,0.0,93.0
949,32.0,0,240,0.0,67.0
950,44.0,0,240,0.0,79.0
951,75.0,0,240,0.0,74.0
952,84.0,120,240,0.0,74.0
953,51.0,0,240,0.0,61.0
954,63.0,0,240,0.0,73.0
955,60.0,0,240,0.0,61.0
956,74.0,120,120,0.0,74.0
957,86.0,0,120,0.0,88.0
958,83.0,0,120,0.0,74.0
959,89.0,0,120,0.0,93.0
960,85.0,0,120,0.0,79.0
961,77.0,0,120,0.0,79.0
962,87.0,0,120,0.0,88.0
963,56.0,0,240,0.0,63.0
964,60.0,120,240,0.0,75.0
965,68.0,0,240,0.0,75.0
966,89.0,60,60,0.0,81.0
967,51.0,0,120,0.0,73.0
968,39.0,0,120,0.0,61.0
969,84.0,120,240,0.0,74.0
970,75.0,0,240,0.0,74.0
971,87.0,60,120,0.0,93.0
972,83.0,0,120,0.0,74.0
973,86.0,120,120,0.0,88.0
974,74.0,0,120,0.0,74.0
975,44.0,0,120,0.0,64.0
976,56.0,0,120,0.0,77.0
977,75.0,180,0,0.0,72.0
978,84.0,120,180,0.0,74.0
979,87.0,0,180,0.0,88.0
980,54.0,0,150,0.0,74.0
981,46.0,0,180,0.0,62.0
982,39.0,0,210,0.0,62.0
983,90.0,30,180,0.0,85.0
984,75.0,0,0,0.0,70.0
985,82.0,30,210,0.0,72.0
986,57.0,30,150,0.0,74.0
987,51.0,0,180,0.0,74.0
988,41.0,150,240,0.0,62.0
989,89.0,0,180,0.0,83.0
990,81.0,30,210,0.0,70.0
991,75.0,30,0,0.0,70.0
992,48.0,30,300,0.0,62.0
993,63.0,0,180,0.0,73.0
994,60.0,0,210,0.0,61.0
995,53.0,0,240,0.0,61.0
996,69.0,30,150,0.0,73.0
997,77.0,30,210,0.0,70.0
998,84.0,0,180,0.0,83.0
999,72.0,150,270,0.0,70.0
1000,70.0,180,240,0.0,70.0
1001,85.0,30,180,0.0,83.0
1002,77.0,30,210,0.0,70.0
1003,46.0,0,300,0.0,63.0
1004,53.0,0,270,0.0,75.0
1005,61.0,0,240,0.0,75.0
1006,78.0,0,80,0.0,80.0
1007,66.0,80,80,0.0,80.0
1008,54.0,240,240,0.0,71.0
1009,42.0,0,240,0.0,60.0
1010,78.0,80,80,0.0,80.0
1011,41.0,80,240,0.0,60.0
1012,65.0,0,240,0.0,71.0
1013,77.0,0,240,0.0,84.0
1014,53.0,0,240,0.0,71.0
1015,49.0,240,240,0.0,69.0
1016,37.0,0,240,0.0,58.0
1017,73.0,0,240,0.0,79.0
1018,61.0,0,240,0.0,74.0
1019,46.0,240,120,0.0,79.0
1020,34.0,0,120,0.0,67.0
1021,90.0,0,360,0.0,97.0
1022,87.0,0,360,0.0,82.0
1023,78.0,0,360,0.0,82.0
1024,65.0,240,240,0.0,79.0
1025,53.0,0,240,0.0,67.0
1026,61.0,0,240,0.0,79.0
1027,89.0,0,0,0.0,93.0
1028,85.0,120,0,0.0,79.0
1029,77.0,120,120,0.0,79.0
1030,65.0,60,0,0.0,71.0
1031,61.0,0,240,0.0,77.0
1032,70.0,0,240,0.0,77.0
1033,58.0,0,240,0.0,64.0
1034,41.0,0,60,0.0,72.0
1035,53.0,0,60,0.0,85.0
1036,66.0,48,48,0.0,71.0
1037,65.0,48,48,0.0,71.0
1038,64.0,48,48,0.0,71.0
1039,77.0,0,480,0.0,79.0
1040,65.0,48,48,0.0,71.0
1041,46.0,0,120,0.0,73.0
1042,58.0,0,120,0.0,86.0
1043,70.0,48,240,0.0,87.0
1044,82.0,0,120,0.0,74.0
1045,85.0,0,120,0.0,88.0
1046,73.0,0,120,0.0,74.0
1047,75.0,0,120,0.0,73.0
1048,29.0,240,240,0.0,61.0
1049,41.0,0,240,0.0,73.0
1050,87.0,120,0,0.0,79.0
1051,84.0,120,120,0.0,73.0
1052,90.0,0,120,0.0,93.0
1053,78.0,0,120,0.0,79.0
1054,34.0,0,240,0.0,67.0
1055,46.0,0,240,0.0,79.0
1056,89.0,0,60,0.0,88.0
1057,85.0,0,60,0.0,74.0
1058,77.0,180,60,0.0,74.0
1059,85.0,0,120,0.0,74.0
1060,77.0,0,120,0.0,74.0
1061,89.0,0,120,0.0,93.0
1062,88.0,0,120,0.0,88.0
1063,61.0,0,0,0.0,75.0
1064,65.0,0,240,0.0,73.0
1065,53.0,60,240,0.0,61.0
1066,84.0,120,120,0.0,74.0
1067,76.0,0,120,0.0,74.0
1068,58.0,120,240,0.0,63.0
1069,70.0,0,240,0.0,75.0
1070,65.0,60,0,0.0,71.0
1071,53.0,0,60,0.0,80.0
1072,41.0,0,60,0.0,67.0
1073,66.0,48,48,0.0,71.0
1074,65.0,48,48,0.0,71.0
1075,64.0,48,48,0.0,71.0
1076,77.0,0,480,0.0,88.0
1077,89.0,0,480,0.0,88.0
1078,65.0,48,48,0.0,71.0
1079,85.0,0,480,0.0,74.0
1080,46.0,0,120,0.0,73.0
1081,58.0,48,120,0.0,86.0
1082,70.0,0,240,0.0,87.0
1083,79.0,0,120,0.0,81.0
1084,85.0,240,120,0.0,81.0
1085,91.0,0,120,0.0,96.0
1086,46.0,0,240,0.0,73.0
1087,34.0,0,240,0.0,61.0
1088,80.0,120,120,0.0,80.0
1089,92.0,0,120,0.0,94.0
1090,39.0,120,120,0.0,79.0
1091,96.0,0,120,0.0,101.0
1092,84.0,0,120,0.0,85.0
1093,27.0,0,120,0.0,67.0
1094,91.0,0,120,0.0,88.0
1095,87.0,120,120,0.0,74.0
1096,72.0,0,120,0.0,72.0
1097,84.0,0,120,0.0,79.0
1098,96.0,0,120,0.0,93.0
1099,70.0,120,120,0.0,70.0
1100,63.0,0,240,0.0,60.0
1101,61.0,120,240,0.0,60.0
1102,67.0,0,240,0.0,60.0
1103,82.0,0,60,0.0,78.0
1104,94.0,60,60,0.0,92.0
1105,51.0,60,120,0.0,75.0
1106,94.0,0,120,0.0,97.0
1107,82.0,0,120,0.0,81.0
1108,84.0,120,120,0.0,70.0
1109,87.0,0,120,0.0,84.0
1110,82.0,0,120,0.0,75.0
1111,94.0,120,120,0.0,90.0
1112,70.0,0,120,0.0,72.0
1113,68.0,120,120,0.0,70.0
1114,63.0,0,240,0.0,69.0
1115,92.0,0,60,0.0,80.0
1116,60.0,0,240,0.0,58.0
1117,80.0,60,0,0.0,79.0
1118,92.0,0,120,0.0,93.0
1119,51.0,0,120,0.0,73.0
1120,87.0,120,120,0.0,79.0
1121,82.0,0,120,0.0,67.0
1122,80.0,0,120,0.0,74.0
1123,68.0,0,120,0.0,72.0
1124,92.0,120,120,0.0,88.0
1125,79.0,0,60,0.0,67.0
1126,91.0,60,60,0.0,79.0
1127,67.0,120,120,0.0,70.0
1128,63.0,0,240,0.0,67.0
1129,58.0,0,240,0.0,56.0
1130,46.0,0,120,0.0,70.0
1131,79.0,60,120,0.0,75.0
1132,91.0,0,120,0.0,90.0
1133,86.0,0,120,0.0,78.0
1134,82.0,120,120,0.0,66.0
1135,91.0,0,120,0.0,85.0
1136,67.0,0,120,0.0,72.0
1137,79.0,0,120,0.0,72.0
1138,62.0,0,240,0.0,66.0
1139,56.0,0,240,0.0,55.0
1140,58.0,120,240,0.0,55.0
1141,89.0,0,0,0.0,88.0
1142,77.0,0,0,0.0,73.0
1143,65.0,120,120,0.0,70.0
1144,51.0,60,120,0.0,72.0
1145,82.0,120,120,0.0,75.0
1146,79.0,0,120,0.0,64.0
1147,77.0,0,120,0.0,69.0
1148,89.0,0,120,0.0,82.0
1149,65.0,0,120,0.0,72.0
1150,58.0,120,240,0.0,68.0
1151,87.0,60,60,0.0,75.0
1152,63.0,120,120,0.0,70.0
1153,75.0,0,60,0.0,64.0
1154,55.0,0,240,0.0,57.0
1155,85.0,60,120,0.0,90.0
1156,73.0,0,120,0.0,75.0
1157,41.0,0,240,0.0,62.0
1158,77.0,120,120,0.0,64.0
1159,80.0,0,120,0.0,75.0
1160,73.0,0,120,0.0,70.0
1161,61.0,120,120,0.0,72.0
1162,85.0,0,120,0.0,84.0
1163,60.0,120,120,0.0,70.0
1164,53.0,0,480,0.0,74.0
1165,72.0,0,60,0.0,63.0
1166,84.0,60,60,0.0,74.0
1167,56.0,0,240,0.0,68.0
1168,37.0,60,240,0.0,62.0
1169,49.0,0,240,0.0,74.0
1170,65.0,0,480,0.0,92.0
1171,58.0,0,240,0.0,64.0
1172,53.0,240,240,0.0,55.0
1173,67.0,0,60,0.0,70.0
1174,68.0,60,60,0.0,71.0
1175,67.0,60,60,0.0,71.0
1176,36.0,240,240,0.0,63.0
1177,48.0,0,240,0.0,75.0
1178,68.0,60,60,0.0,72.0
1179,65.0,60,120,0.0,72.0
1180,60.0,0,240,0.0,68.0
1181,58.0,0,240,0.0,57.0
1182,67.0,120,120,0.0,73.0
1183,52.0,0,240,0.0,57.0
1184,68.0,120,60,0.0,75.0
1185,70.0,60,60,0.0,75.0
1186,68.0,60,60,0.0,77.0
1187,41.0,0,240,0.0,78.0
1188,70.0,60,60,0.0,77.0
1189,29.0,0,240,0.0,66.0
1190,67.0,0,120,0.0,78.0
1191,68.0,120,120,0.0,79.0
1192,53.0,60,240,0.0,73.0
1193,56.0,0,240,0.0,73.0
1194,60.0,0,240,0.0,73.0
1195,51.0,0,120,0.0,77.0
1196,69.0,120,120,0.0,82.0
1197,39.0,0,120,0.0,64.0
1198,61.0,0,0,0.0,64.0
1199,67.0,0,240,0.0,69.0
1200,70.0,120,120,0.0,77.0
1201,72.0,0,120,0.0,77.0
1202,73.0,120,120,0.0,77.0
1203,67.0,0,240,0.0,64.0
1204,58.0,0,240,0.0,71.0
1205,51.0,0,0,0.0,60.0
1206,44.0,0,240,0.0,60.0
1207,60.0,120,240,0.0,69.0
1208,68.0,240,0,0.0,70.0
1209,72.0,0,240,0.0,82.0
1210,56.0,0,240,0.0,71.0
1211,59.0,0,180,0.0,70.0
1212,65.0,0,180,0.0,70.0
1213,62.0,0,180,0.0,70.0
1214,77.0,0,180,0.0,83.0
1215,68.0,0,0,0.0,63.0
1216,63.0,180,60,0.0,63.0
1217,60.0,0,60,0.0,63.0
1218,75.0,0,0,0.0,84.0
1219,68.0,60,120,0.0,71.0
1220,60.0,0,120,0.0,71.0
1221,63.0,0,120,0.0,71.0
1222,80.0,120,120,0.0,83.0
1223,68.0,120,240,0.0,79.0
1224,44.0,0,240,0.0,61.0
1225,67.0,180,60,0.0,64.0
1226,56.0,0,240,0.0,72.0
1227,79.0,0,60,0.0,77.0
1228,49.0,60,240,0.0,74.0
1229,37.0,0,240,0.0,62.0
1230,65.0,0,480,0.0,64.0
1231,77.0,0,480,0.0,77.0
1232,58.0,0,240,0.0,64.0
1233,53.0,240,240,0.0,55.0
1234,67.0,240,120,0.0,70.0
1235,79.0,120,40,0.0,71.0
1236,80.0,40,40,0.0,72.0
1237,36.0,0,240,0.0,63.0
1238,48.0,0,240,0.0,75.0
1239,79.0,40,40,0.0,71.0
1240,65.0,0,120,0.0,61.0
1241,77.0,0,120,0.0,72.0
1242,58.0,40,240,0.0,57.0
1243,79.0,0,120,0.0,73.0
1244,67.0,120,120,0.0,61.0
1245,64.0,0,240,0.0,68.0
1246,60.0,0,240,0.0,57.0
1247,68.0,0,120,0.0,70.0
1248,80.0,120,40,0.0,71.0
1249,82.0,40,40,0.0,71.0
1250,29.0,120,240,0.0,66.0
1251,80.0,40,40,0.0,71.0
1252,41.0,0,240,0.0,78.0
1253,79.0,0,120,0.0,78.0
1254,67.0,0,120,0.0,66.0
1255,68.0,120,120,0.0,67.0
1256,60.0,0,240,0.0,73.0
1257,65.0,0,240,0.0,73.0
1258,80.0,0,120,0.0,79.0
1259,56.0,40,240,0.0,73.0
1260,75.0,0,120,0.0,69.0
1261,39.0,0,120,0.0,64.0
1262,51.0,120,120,0.0,77.0
1263,81.0,0,120,0.0,82.0
1264,69.0,0,120,0.0,69.0
1265,70.0,120,120,0.0,69.0
1266,82.0,0,120,0.0,77.0
1267,72.0,120,120,0.0,64.0
1268,79.0,0,120,0.0,64.0
1269,84.0,0,120,0.0,77.0
1270,73.0,0,120,0.0,64.0
1271,85.0,120,120,0.0,77.0
1272,67.0,0,240,0.0,71.0
1273,58.0,0,240,0.0,60.0
1274,61.0,0,240,0.0,60.0
1275,63.0,120,0,0.0,60.0
1276,68.0,0,120,0.0,71.0
1277,84.0,0,120,0.0,82.0
1278,80.0,0,120,0.0,69.0
1279,72.0,0,120,0.0,69.0
1280,56.0,0,120,0.0,60.0
1281,89.0,0,180,0.0,83.0
1282,80.0,180,0,0.0,63.0
1283,71.0,0,180,0.0,70.0
1284,59.0,0,180,0.0,70.0
1285,62.0,0,180,0.0,70.0
1286,68.0,0,0,0.0,63.0
1287,77.0,0,180,0.0,70.0
1288,63.0,0,60,0.0,63.0
1289,60.0,0,0,0.0,71.0
1290,72.0,0,0,0.0,71.0
1291,75.0,0,60,0.0,63.0
1292,68.0,0,0,0.0,71.0
1293,87.0,0,0,0.0,84.0
1294,80.0,0,0,0.0,71.0
1295,63.0,60,120,0.0,71.0
1296,75.0,0,120,0.0,71.0
1297,87.0,0,60,0.0,66.0
1298,75.0,30,60,0.0,66.0
1299,69.0,0,180,0.0,72.0
1300,73.0,30,180,0.0,70.0
1301,60.0,0,240,0.0,61.0
1302,53.0,150,270,0.0,61.0
1303,81.0,0,180,0.0,70.0
1304,85.0,0,180,0.0,83.0
1305,63.0,30,210,0.0,61.0
1306,84.0,0,60,0.0,77.0
1307,72.0,180,60,0.0,64.0
1308,70.0,0,120,0.0,70.0
1309,82.0,30,120,0.0,83.0
1310,53.0,30,210,0.0,66.0
1311,61.0,0,180,0.0,78.0
1312,46.0,0,240,0.0,66.0
1313,58.0,30,210,0.0,61.0
1314,51.0,180,240,0.0,61.0
1315,82.0,30,180,0.0,77.0
1316,78.0,0,180,0.0,64.0
1317,70.0,0,180,0.0,64.0
1318,66.0,0,180,0.0,72.0
1319,84.0,0,60,0.0,77.0
1320,72.0,0,60,0.0,64.0
1321,53.0,30,210,0.0,57.0
1322,46.0,180,240,0.0,57.0
1323,61.0,0,180,0.0,68.0
1324,85.0,0,0,0.0,79.0
1325,77.0,0,240,0.0,68.0
1326,73.0,0,0,0.0,67.0
1327,39.0,180,240,0.0,57.0
1328,46.0,30,210,0.0,57.0
1329,78.0,0,180,0.0,67.0
1330,54.0,0,180,0.0,68.0
1331,75.0,30,180,0.0,67.0
1332,72.0,0,60,0.0,63.0
1333,84.0,0,60,0.0,75.0
1334,49.0,0,180,0.0,68.0
1335,41.0,30,210,0.0,57.0
1336,34.0,180,240,0.0,57.0
1337,70.0,0,240,0.0,69.0
1338,77.0,0,240,0.0,69.0
1339,82.0,30,240,0.0,82.0
1340,39.0,180,240,0.0,56.0
1341,54.0,30,180,0.0,67.0
1342,46.0,30,210,0.0,56.0
1343,70.0,0,180,0.0,67.0
1344,80.0,0,180,0.0,79.0
1345,68.0,0,180,0.0,67.0
1346,75.0,0,180,0.0,67.0
1347,78.0,0,60,0.0,74.0
1348,66.0,0,60,0.0,62.0
1349,77.0,0,120,0.0,78.0
1350,73.0,30,120,0.0,66.0
1351,65.0,0,120,0.0,66.0
1352,53.0,30,210,0.0,61.0
1353,61.0,0,180,0.0,72.0
1354,46.0,180,240,0.0,61.0
1355,33.0,240,60,0.0,55.0
1356,45.0,0,60,0.0,64.0
1357,46.0,60,60,0.0,64.0
1358,34.0,0,60,0.0,55.0
1359,48.0,60,60,0.0,66.0
1360,36.0,0,60,0.0,56.0
1361,37.0,60,60,0.0,56.0
1362,49.0,0,60,0.0,67.0
1363,39.0,0,60,0.0,56.0
1364,51.0,60,60,0.0,67.0
1365,53.0,60,60,0.0,68.0
1366,41.0,0,60,0.0,57.0
1367,55.0,60,60,0.0,69.0
1368,43.0,0,60,0.0,58.0
1369,57.0,60,60,0.0,69.0
1370,45.0,0,60,0.0,58.0
1371,46.0,0,60,0.0,59.0
1372,58.0,60,60,0.0,70.0
1373,48.0,60,60,0.0,60.0
1374,60.0,0,60,0.0,71.0
1375,61.0,0,60,0.0,71.0
1376,49.0,60,60,0.0,60.0
1377,51.0,60,60,0.0,61.0
1378,63.0,0,60,0.0,72.0
1379,53.0,60,60,0.0,61.0
1380,65.0,0,60,0.0,73.0
1381,67.0,60,60,0.0,73.0
1382,55.0,0,60,0.0,61.0
1383,69.0,0,60,0.0,74.0
1384,57.0,60,60,0.0,62.0
1385,58.0,0,60,0.0,62.0
1386,70.0,60,60,0.0,74.0
1387,72.0,60,60,0.0,75.0
1388,60.0,0,60,0.0,63.0
1389,73.0,0,60,0.0,77.0
1390,61.0,60,60,0.0,64.0
1391,75.0,60,60,0.0,77.0
1392,63.0,0,60,0.0,64.0
1393,65.0,0,60,0.0,66.0
1394,77.0,60,60,0.0,78.0
1395,67.0,0,60,0.0,67.0
1396,79.0,60,60,0.0,77.0
1397,69.0,0,60,0.0,65.0
1398,81.0,60,60,0.0,77.0
1399,70.0,60,60,0.0,66.0
1400,82.0,0,60,0.0,78.0
1401,72.0,60,60,0.0,67.0
1402,84.0,0,60,0.0,79.0
1403,73.0,0,60,0.0,68.0
1404,85.0,60,60,0.0,80.0
1405,87.0,0,60,0.0,80.0
1406,75.0,60,60,0.0,69.0
1407,89.0,0,60,0.0,81.0
1408,77.0,60,60,0.0,70.0
1409,91.0,60,90,0.0,82.0
1410,79.0,0,90,0.0,71.0
1411,81.0,0,60,0.0,72.0
1412,93.0,90,90,0.0,83.0
1413,82.0,0,120,0.0,92.0
1414,94.0,90,120,0.0,92.0
1415,96.0,180,60,0.0,85.0
1416,27.0,0,120,0.0,68.0
1417,39.0,60,120,0.0,80.0
1418,91.0,0,120,0.0,91.0
1419,94.0,0,120,0.0,91.0
1420,85.0,0,120,0.0,77.0
1421,93.0,0,120,0.0,85.0
1422,84.0,0,120,0.0,72.0
1423,90.0,120,120,0.0,85.0
1424,51.0,0,120,0.0,61.0
1425,63.0,120,120,0.0,72.0
1426,94.0,0,240,0.0,90.0
1427,91.0,0,240,0.0,90.0
1428,85.0,0,240,0.0,75.0
1429,67.0,0,240,0.0,67.0
1430,72.0,0,0,0.0,64.0
1431,75.0,0,240,0.0,79.0
1432,63.0,240,240,0.0,67.0
1433,84.0,0,0,0.0,74.0
1434,91.0,0,240,0.0,85.0
1435,96.0,0,240,0.0,85.0
1436,92.0,0,240,0.0,88.0
1437,65.0,240,240,0.0,64.0
1438,80.0,0,240,0.0,74.0
1439,77.0,0,240,0.0,77.0
1440,60.0,240,240,0.0,61.0
1441,68.0,240,0,0.0,61.0
1442,72.0,0,240,0.0,72.0
1443,87.0,0,240,0.0,85.0
1444,80.0,0,240,0.0,72.0
1445,75.0,0,240,0.0,72.0
1446,89.0,0,120,0.0,85.0
1447,80.0,0,120,0.0,72.0
1448,73.0,0,120,0.0,72.0
1449,77.0,0,120,0.0,72.0
1450,61.0,0,120,0.0,61.0
1451,55.0,180,0,0.0,56.0
1452,61.0,240,180,0.0,67.0
1453,61.0,0,60,0.0,67.0
1454,55.0,0,0,0.0,61.0
1455,63.0,0,480,0.0,67.0
1456,51.0,0,480,0.0,69.0
1457,39.0,0,480,0.0,58.0
1458,39.0,0,120,0.0,61.0
1459,27.0,240,120,0.0,51.0
1460,61.0,0,480,0.0,72.0
1461,70.0,60,480,0.0,72.0
1462,32.0,240,120,0.0,51.0
1463,44.0,0,120,0.0,61.0
1464,60.0,0,240,0.0,56.0
1465,56.0,0,240,0.0,56.0
1466,68.0,0,240,0.0,67.0
1467,72.0,0,120,0.0,66.0
1468,84.0,0,120,0.0,78.0
1469,24.0,480,120,0.0,47.0
1470,36.0,0,120,0.0,55.0
1471,60.0,0,120,0.0,50.0
1472,48.0,240,120,0.0,49.0
1473,36.0,0,120,0.0,41.0
1474,72.0,0,120,0.0,60.0
1475,36.0,0,60,0.0,39.0
1476,48.0,0,60,0.0,47.0
1477,60.0,0,60,0.0,48.0
1478,72.0,0,0,0.0,65.0
1479,61.0,0,240,0.0,54.0
1480,72.0,240,0,0.0,60.0
1481,40.0,60,240,0.0,52.0
1482,49.0,0,240,0.0,52.0
1483,28.0,0,120,0.0,42.0
1484,40.0,0,120,0.0,50.0
1485,60.0,0,120,0.0,49.0
1486,72.0,60,0,0.0,69.0
1487,60.0,0,60,0.0,47.0
1488,48.0,180,60,0.0,52.0
1489,40.0,0,60,0.0,43.0
1490,41.0,0,240,0.0,48.0
1491,51.0,0,240,0.0,58.0
1492,63.0,0,240,0.0,58.0
1493,41.0,0,120,0.0,56.0
1494,29.0,0,120,0.0,47.0
1495,60.0,240,120,0.0,55.0
1496,72.0,0,120,0.0,65.0
1497,49.0,0,60,0.0,53.0
1498,41.0,180,60,0.0,44.0
1499,72.0,0,60,0.0,62.0
1500,61.0,0,60,0.0,52.0
1501,53.0,0,240,0.0,61.0
1502,65.0,0,240,0.0,61.0
1503,72.0,0,0,0.0,69.0
1504,43.0,0,0,0.0,57.0
1505,60.0,240,120,0.0,58.0
1506,31.0,0,120,0.0,47.0
1507,43.0,0,60,0.0,46.0
1508,52.0,0,60,0.0,54.0
1509,72.0,0,0,0.0,79.0
1510,64.0,0,60,0.0,56.0
1511,67.0,0,240,0.0,65.0
1512,55.0,0,240,0.0,61.0
1513,44.0,60,240,0.0,61.0
1514,32.0,0,120,0.0,50.0
1515,72.0,0,120,0.0,72.0
1516,44.0,0,120,0.0,61.0
1517,60.0,240,120,0.0,60.0
1518,44.0,0,60,0.0,51.0
1519,53.0,0,60,0.0,61.0
1520,72.0,60,0,0.0,81.0
1521,65.0,180,60,0.0,57.0
1522,56.0,0,240,0.0,67.0
1523,44.0,0,240,0.0,57.0
1524,68.0,0,240,0.0,67.0
1525,32.0,240,120,0.0,56.0
1526,44.0,0,120,0.0,66.0
1527,60.0,0,120,0.0,65.0
1528,72.0,0,120,0.0,78.0
1529,66.0,0,60,0.0,61.0
1530,72.0,0,60,0.0,72.0
1531,54.0,0,60,0.0,62.0
1532,44.0,180,60,0.0,53.0
1533,55.0,0,240,0.0,65.0
1534,43.0,0,240,0.0,55.0
1535,76.0,0,0,0.0,84.0
1536,67.0,0,0,0.0,62.0
1537,72.0,0,240,0.0,80.0
1538,64.0,0,240,0.0,65.0
1539,55.0,240,60,0.0,62.0
1540,55.0,120,60,0.0,64.0
1541,67.0,0,60,0.0,64.0
1542,69.0,120,120,0.0,71.0
1543,57.0,0,120,0.0,71.0
1544,55.0,120,120,0.0,66.0
1545,67.0,0,120,0.0,66.0
1546,88.0,0,480,0.0,84.0
1547,84.0,0,480,0.0,84.0
1548,55.0,120,60,0.0,66.0
1549,67.0,0,60,0.0,66.0
1550,74.0,0,120,0.0,78.0
1551,83.0,0,120,0.0,78.0
1552,86.0,0,120,0.0,78.0
1553,55.0,0,60,0.0,66.0
1554,67.0,120,60,0.0,66.0
1555,76.0,0,120,0.0,82.0
1556,84.0,0,120,0.0,82.0
1557,88.0,0,120,0.0,82.0
1558,67.0,0,120,0.0,77.0
1559,55.0,0,120,0.0,77.0
1560,77.0,120,240,0.0,84.0
1561,86.0,0,240,0.0,84.0
1562,89.0,0,240,0.0,84.0
1563,76.0,0,180,0.0,84.0
1564,88.0,0,180,0.0,84.0
1565,79.0,0,180,0.0,84.0
1566,67.0,60,0,0.0,58.0
1567,86.0,0,60,0.0,80.0
1568,74.0,180,60,0.0,80.0
1569,71.0,240,240,0.0,63.0
1570,62.0,0,240,0.0,63.0
1571,65.0,0,240,0.0,63.0
1572,84.0,0,240,0.0,80.0
1573,88.0,0,240,0.0,80.0
1574,60.0,240,0,0.0,70.0
1575,72.0,0,240,0.0,58.0
1576,76.0,0,240,0.0,80.0
1577,48.0,0,60,0.0,59.0
1578,64.0,0,60,0.0,72.0
1579,52.0,60,60,0.0,61.0
1580,67.0,60,60,0.0,73.0
1581,55.0,0,60,0.0,62.0
1582,71.0,60,60,0.0,75.0
1583,59.0,0,60,0.0,63.0
1584,72.0,60,60,0.0,76.0
1585,60.0,0,60,0.0,64.0
1586,76.0,60,60,0.0,78.0
1587,64.0,0,60,0.0,66.0
1588,67.0,0,60,0.0,68.0
1589,79.0,60,60,0.0,80.0
1590,83.0,60,60,0.0,81.0
1591,71.0,0,60,0.0,68.0
1592,84.0,0,60,0.0,83.0
1593,88.0,60,60,0.0,85.0
1594,72.0,60,120,0.0,74.0
1595,91.0,0,60,0.0,86.0
1596,60.0,60,120,0.0,66.0
1597,96.0,60,60,0.0,88.0
1598,61.0,0,240,0.0,58.0
1599,73.0,0,240,0.0,69.0
1600,97.0,0,240,0.0,89.0
1601,85.0,60,240,0.0,75.0
1602,62.0,0,240,0.0,62.0
1603,74.0,0,240,0.0,73.0
1604,98.0,0,240,0.0,94.0
1605,86.0,240,240,0.0,79.0
1606,99.0,0,120,0.0,97.0
1607,87.0,0,120,0.0,82.0
1608,75.0,240,120,0.0,77.0
1609,63.0,0,120,0.0,65.0
1610,51.0,240,120,0.0,49.0
1611,39.0,0,120,0.0,41.0
1612,75.0,0,120,0.0,60.0
1613,63.0,0,120,0.0,50.0
1614,75.0,0,60,0.0,56.0
1615,39.0,0,60,0.0,39.0
1616,51.0,180,60,0.0,47.0
1617,63.0,0,60,0.0,48.0
1618,64.0,0,240,0.0,54.0
1619,75.0,0,0,0.0,60.0
1620,43.0,0,240,0.0,52.0
1621,52.0,60,240,0.0,52.0
1622,43.0,0,120,0.0,50.0
1623,31.0,0,120,0.0,42.0
1624,63.0,240,120,0.0,49.0
1625,75.0,0,60,0.0,56.0
1626,63.0,0,60,0.0,47.0
1627,51.0,0,60,0.0,52.0
1628,43.0,180,60,0.0,43.0
1629,66.0,60,240,0.0,58.0
1630,75.0,0,240,0.0,69.0
1631,54.0,0,240,0.0,58.0
1632,44.0,0,0,0.0,56.0
1633,75.0,0,120,0.0,65.0
1634,32.0,0,120,0.0,47.0
1635,63.0,240,120,0.0,55.0
1636,52.0,180,60,0.0,53.0
1637,44.0,0,60,0.0,44.0
1638,75.0,60,0,0.0,73.0
1639,64.0,0,60,0.0,52.0
1640,46.0,0,240,0.0,52.0
1641,56.0,0,240,0.0,61.0
1642,75.0,240,0,0.0,69.0
1643,68.0,0,240,0.0,61.0
1644,34.0,0,120,0.0,47.0
1645,46.0,0,120,0.0,57.0
1646,63.0,0,120,0.0,58.0
1647,67.0,180,60,0.0,56.0
1648,55.0,0,60,0.0,54.0
1649,46.0,0,60,0.0,45.0
1650,75.0,0,0,0.0,79.0
1651,47.0,240,0,0.0,61.0
1652,58.0,0,240,0.0,61.0
1653,70.0,60,240,0.0,65.0
1654,75.0,0,0,0.0,72.0
1655,35.0,0,120,0.0,50.0
1656,63.0,0,120,0.0,60.0
1657,68.0,0,60,0.0,57.0
1658,75.0,0,60,0.0,67.0
1659,56.0,180,60,0.0,61.0
1660,47.0,0,60,0.0,51.0
1661,59.0,0,240,0.0,67.0
1662,47.0,0,240,0.0,57.0
1663,75.0,0,0,0.0,78.0
1664,71.0,60,240,0.0,67.0
1665,47.0,0,120,0.0,66.0
1666,35.0,240,120,0.0,56.0
1667,63.0,0,120,0.0,65.0
1668,75.0,180,60,0.0,72.0
1669,69.0,0,60,0.0,61.0
1670,47.0,0,60,0.0,53.0
1671,57.0,0,60,0.0,62.0
1672,58.0,60,240,0.0,65.0
1673,46.0,0,240,0.0,55.0
1674,75.0,0,240,0.0,80.0
1675,67.0,0,240,0.0,65.0
1676,70.0,0,0,0.0,62.0
1677,79.0,0,0,0.0,84.0
1678,58.0,0,60,0.0,62.0
1679,70.0,0,60,0.0,64.0
1680,58.0,120,60,0.0,64.0
1681,60.0,0,120,0.0,71.0
1682,72.0,120,120,0.0,71.0
1683,70.0,0,120,0.0,66.0
1684,91.0,240,480,0.0,84.0
1685,87.0,0,480,0.0,84.0
1686,58.0,120,120,0.0,66.0
1687,70.0,0,60,0.0,66.0
1688,58.0,0,60,0.0,66.0
1689,90.0,0,120,0.0,78.0
1690,86.0,0,120,0.0,78.0
1691,78.0,120,120,0.0,78.0
1692,70.0,0,60,0.0,66.0
1693,58.0,0,60,0.0,66.0
1694,91.0,0,120,0.0,82.0
1695,87.0,0,120,0.0,82.0
1696,79.0,120,120,0.0,82.0
1697,58.0,0,120,0.0,77.0
1698,70.0,120,120,0.0,77.0
1699,80.0,0,240,0.0,84.0
1700,92.0,0,240,0.0,84.0
1701,86.0,0,0,0.0,84.0
1702,91.0,30,180,0.0,84.0
1703,79.0,0,180,0.0,84.0
1704,68.0,30,270,0.0,63.0
1705,65.0,30,300,0.0,63.0
1706,74.0,0,240,0.0,63.0
1707,58.0,150,330,0.0,63.0
1708,89.0,180,60,0.0,80.0
1709,77.0,0,60,0.0,80.0
1710,67.0,0,240,0.0,58.0
1711,75.0,0,240,0.0,58.0
1712,63.0,240,0,0.0,57.0
1713,79.0,0,0,0.0,79.0
1714,87.0,0,240,0.0,80.0
1715,91.0,0,240,0.0,80.0
1716,77.0,180,60,0.0,75.0
1717,59.0,0,240,0.0,48.0
1718,51.0,0,240,0.0,48.0
1719,68.0,0,240,0.0,67.0
1720,63.0,0,0,0.0,54.0
1721,58.0,0,240,0.0,45.0
1722,67.0,0,240,0.0,59.0
1723,75.0,60,240,0.0,70.0
1724,51.0,0,0,0.0,57.0
1725,67.0,0,180,0.0,79.0
1726,39.0,0,240,0.0,48.0
1727,47.0,240,240,0.0,48.0
1728,51.0,60,0,0.0,54.0
1729,56.0,0,240,0.0,67.0
1730,65.0,180,60,0.0,75.0
1731,46.0,0,240,0.0,45.0
1732,39.0,240,0,0.0,54.0
1733,63.0,0,240,0.0,70.0
1734,55.0,0,240,0.0,59.0
1735,27.0,0,120,0.0,54.0
1736,37.0,240,120,0.0,69.0
1737,25.0,0,120,0.0,58.0
1738,53.0,0,120,0.0,45.0
1739,55.0,120,0,0.0,56.0
1740,53.0,0,120,0.0,47.0
1741,53.0,240,0,0.0,45.0
1742,55.0,0,240,0.0,58.0
1743,65.0,0,960,0.0,81.0
1744,53.0,0,0,0.0,45.0
1745,55.0,0,0,0.0,54.0
1746,55.0,240,0,0.0,54.0
1747,58.0,240,480,0.0,75.0
1748,53.0,0,240,0.0,45.0
1749,36.0,0,240,0.0,53.0
1750,52.0,240,120,0.0,47.0
1751,55.0,0,0,0.0,56.0
1752,52.0,120,120,0.0,47.0
1753,60.0,0,0,0.0,76.0
1754,55.0,0,0,0.0,54.0
1755,52.0,240,0,0.0,45.0
1756,61.0,60,0,0.0,63.0
1757,48.0,0,960,0.0,63.0
1758,63.0,60,60,0.0,64.0
1759,61.0,60,60,0.0,66.0
1760,34.0,0,240,0.0,55.0
1761,46.0,0,240,0.0,65.0
1762,63.0,60,60,0.0,67.0
1763,61.0,0,48,0.0,68.0
1764,63.0,48,48,0.0,68.0
1765,61.0,48,48,0.0,67.0
1766,60.0,48,48,0.0,66.0
1767,53.0,60,240,0.0,45.0
1768,55.0,0,240,0.0,54.0
1769,61.0,48,48,0.0,65.0
1770,36.0,0,240,0.0,53.0
1771,52.0,0,0,0.0,47.0
1772,55.0,120,0,0.0,56.0
1773,52.0,120,0,0.0,50.0
1774,60.0,48,720,0.0,79.0
1775,55.0,0,240,0.0,59.0
1776,60.0,240,180,0.0,76.0
1777,55.0,0,240,0.0,54.0
1778,52.0,0,240,0.0,45.0
1779,48.0,0,960,0.0,63.0
1780,61.0,180,60,0.0,73.0
1781,61.0,0,60,0.0,63.0
1782,63.0,60,60,0.0,64.0
1783,61.0,60,60,0.0,66.0
1784,46.0,0,240,0.0,65.0
1785,34.0,60,240,0.0,55.0
1786,63.0,60,60,0.0,67.0
1787,61.0,0,48,0.0,68.0
1788,63.0,48,48,0.0,68.0
1789,61.0,48,48,0.0,67.0
1790,60.0,48,48,0.0,66.0
1791,61.0,48,48,0.0,65.0
1792,55.0,0,240,0.0,54.0
1793,53.0,60,240,0.0,45.0
1794,60.0,0,240,0.0,76.0
1795,36.0,0,240,0.0,53.0
1796,48.0,48,240,0.0,63.0
1797,62.0,240,120,0.0,67.0
1798,58.0,0,120,0.0,47.0
1799,55.0,0,120,0.0,47.0
1800,60.0,0,0,0.0,56.0
1801,58.0,0,120,0.0,47.0
1802,55.0,0,120,0.0,47.0
1803,64.0,120,120,0.0,69.0
1804,65.0,0,240,0.0,72.0
1805,55.0,0,0,0.0,45.0
1806,58.0,0,240,0.0,50.0
1807,60.0,0,240,0.0,59.0
1808,67.0,240,240,0.0,76.0
1809,60.0,0,240,0.0,54.0
1810,58.0,0,240,0.0,45.0
1811,70.0,240,120,0.0,75.0
1812,41.0,0,240,0.0,55.0
1813,68.0,120,120,0.0,73.0
1814,67.0,0,120,0.0,72.0
1815,65.0,120,60,0.0,70.0
1816,65.0,60,30,0.0,58.0
1817,53.0,0,480,0.0,65.0
1818,56.0,120,240,0.0,45.0
1819,60.0,0,240,0.0,54.0
1820,65.0,30,30,0.0,57.0
1821,49.0,0,240,0.0,69.0
1822,37.0,0,240,0.0,58.0
1823,55.0,0,120,0.0,45.0
1824,65.0,0,120,0.0,54.0
1825,58.0,240,120,0.0,45.0
1826,55.0,120,0,0.0,49.0
1827,65.0,0,120,0.0,56.0
1828,58.0,0,0,0.0,49.0
1829,65.0,240,0,0.0,54.0
1830,58.0,240,0,0.0,63.0
1831,55.0,0,240,0.0,45.0
1832,77.0,30,960,0.0,81.0
1833,65.0,0,0,0.0,54.0
1834,55.0,0,240,0.0,45.0
1835,70.0,0,480,0.0,75.0
1836,65.0,240,240,0.0,54.0
1837,55.0,0,240,0.0,45.0
1838,48.0,0,240,0.0,63.0
1839,36.0,0,240,0.0,53.0
1840,55.0,0,120,0.0,47.0
1841,64.0,120,0,0.0,56.0
1842,55.0,0,0,0.0,50.0
1843,64.0,120,240,0.0,59.0
1844,72.0,0,720,0.0,79.0
1845,60.0,240,720,0.0,67.0
1846,72.0,0,180,0.0,76.0
1847,73.0,180,30,0.0,73.0
1848,55.0,240,240,0.0,45.0
1849,64.0,0,240,0.0,54.0
1850,61.0,30,30,0.0,58.0
1851,73.0,0,60,0.0,63.0
1852,75.0,60,60,0.0,64.0
1853,73.0,60,60,0.0,66.0
1854,75.0,60,60,0.0,67.0
1855,34.0,30,240,0.0,55.0
1856,46.0,0,240,0.0,65.0
1857,73.0,60,48,0.0,68.0
1858,75.0,48,48,0.0,68.0
1859,73.0,48,48,0.0,67.0
1860,72.0,48,48,0.0,66.0
1861,65.0,0,240,0.0,54.0
1862,73.0,48,48,0.0,65.0
1863,56.0,0,240,0.0,45.0
1864,53.0,0,240,0.0,45.0
1865,48.0,0,240,0.0,63.0
1866,36.0,48,240,0.0,53.0
1867,64.0,240,120,0.0,56.0
1868,55.0,120,0,0.0,47.0
1869,55.0,120,0,0.0,50.0
1870,64.0,0,0,0.0,59.0
1871,55.0,240,0,0.0,45.0
1872,60.0,0,720,0.0,67.0
1873,72.0,0,0,0.0,76.0
1874,73.0,180,30,0.0,73.0
1875,61.0,30,30,0.0,58.0
1876,64.0,0,240,0.0,54.0
1877,73.0,30,60,0.0,63.0
1878,75.0,60,60,0.0,64.0
1879,73.0,60,60,0.0,66.0
1880,75.0,60,60,0.0,67.0
1881,46.0,0,240,0.0,65.0
1882,34.0,0,240,0.0,55.0
1883,73.0,60,48,0.0,68.0
1884,75.0,48,48,0.0,68.0
1885,73.0,48,48,0.0,67.0
1886,72.0,48,48,0.0,66.0
1887,73.0,48,48,0.0,65.0
1888,56.0,0,240,0.0,45.0
1889,65.0,0,240,0.0,54.0
1890,53.0,0,240,0.0,45.0
1891,74.0,48,60,0.0,63.0
1892,75.0,60,60,0.0,64.0
1893,74.0,60,60,0.0,66.0
1894,46.0,0,240,0.0,65.0
1895,34.0,0,240,0.0,55.0
1896,75.0,60,60,0.0,67.0
1897,74.0,60,48,0.0,68.0
1898,75.0,48,48,0.0,68.0
1899,74.0,48,48,0.0,67.0
1900,73.0,48,48,0.0,66.0
1901,74.0,48,48,0.0,65.0
1902,68.0,0,240,0.0,55.0
1903,62.0,0,240,0.0,46.0
1904,56.0,0,240,0.0,46.0
1905,58.0,0,240,0.0,46.0
1906,75.0,48,60,0.0,64.0
1907,77.0,60,60,0.0,64.0
1908,75.0,60,60,0.0,65.0
1909,39.0,0,240,0.0,68.0
1910,27.0,0,240,0.0,58.0
1911,77.0,60,60,0.0,66.0
1912,75.0,60,60,0.0,67.0
1913,77.0,60,60,0.0,68.0
1914,75.0,60,60,0.0,68.0
1915,58.0,0,0,0.0,61.0
1916,61.0,0,0,0.0,61.0
1917,55.0,0,240,0.0,49.0
1918,77.0,60,60,0.0,69.0
1919,63.0,0,0,0.0,61.0
1920,75.0,0,60,0.0,70.0
1921,77.0,60,60,0.0,71.0
1922,75.0,60,60,0.0,72.0
1923,63.0,0,0,0.0,51.0
1924,67.0,0,0,0.0,51.0
1925,74.0,60,60,0.0,72.0
1926,61.0,0,0,0.0,51.0
1927,75.0,0,60,0.0,70.0
1928,77.0,60,60,0.0,71.0
1929,79.0,60,60,0.0,72.0
1930,80.0,60,60,0.0,73.0
1931,82.0,60,60,0.0,74.0
1932,84.0,60,60,0.0,75.0
1933,85.0,60,60,0.0,76.0
1934,73.0,60,480,0.0,61.0
1935,87.0,60,60,0.0,77.0
1936,44.0,0,120,0.0,79.0
1937,32.0,0,120,0.0,67.0
1938,77.0,0,360,0.0,82.0
1939,85.0,60,360,0.0,82.0
1940,89.0,0,360,0.0,97.0
1941,63.0,240,240,0.0,79.0
1942,51.0,0,240,0.0,67.0
1943,60.0,0,240,0.0,67.0
1944,75.0,0,120,0.0,79.0
1945,87.0,0,0,0.0,93.0
1946,84.0,0,0,0.0,79.0
1947,56.0,0,240,0.0,64.0
1948,60.0,0,240,0.0,77.0
1949,68.0,120,240,0.0,77.0
1950,63.0,180,60,0.0,71.0
1951,63.0,0,48,0.0,71.0
1952,39.0,60,60,0.0,72.0
1953,51.0,0,60,0.0,85.0
1954,65.0,48,48,0.0,71.0
1955,63.0,48,48,0.0,71.0
1956,62.0,48,48,0.0,71.0
1957,63.0,48,48,0.0,71.0
1958,75.0,0,480,0.0,79.0
1959,44.0,0,120,0.0,73.0
1960,56.0,0,120,0.0,86.0
1961,68.0,48,240,0.0,87.0
1962,80.0,0,120,0.0,74.0
1963,72.0,0,120,0.0,74.0
1964,84.0,0,120,0.0,88.0
1965,85.0,0,120,0.0,86.0
1966,82.0,0,120,0.0,73.0
1967,73.0,120,120,0.0,73.0
1968,39.0,240,240,0.0,73.0
1969,27.0,0,240,0.0,61.0
1970,89.0,0,120,0.0,93.0
1971,85.0,0,120,0.0,79.0
1972,77.0,0,120,0.0,79.0
1973,75.0,0,0,0.0,74.0
1974,84.0,0,0,0.0,74.0
1975,87.0,60,0,0.0,93.0
1976,44.0,120,240,0.0,79.0
1977,32.0,0,240,0.0,67.0
1978,63.0,0,240,0.0,73.0
1979,60.0,0,240,0.0,61.0
1980,83.0,0,120,0.0,74.0
1981,86.0,120,120,0.0,88.0
1982,51.0,0,240,0.0,61.0
1983,74.0,0,120,0.0,74.0
1984,63.0,60,0,0.0,70.0
1985,68.0,120,240,0.0,75.0
1986,60.0,0,240,0.0,75.0
1987,56.0,0,240,0.0,63.0
1988,39.0,0,60,0.0,67.0
1989,51.0,0,60,0.0,80.0
1990,65.0,48,48,0.0,70.0
1991,63.0,48,48,0.0,70.0
1992,62.0,48,48,0.0,70.0
1993,63.0,48,48,0.0,70.0
1994,87.0,0,480,0.0,88.0
1995,75.0,0,480,0.0,74.0
1996,84.0,0,480,0.0,74.0
1997,56.0,0,120,0.0,86.0
1998,44.0,0,120,0.0,73.0
1999,68.0,48,240,0.0,87.0
2000,80.0,0,120,0.0,74.0
2001,72.0,0,120,0.0,74.0
2002,84.0,0,120,0.0,88.0
2003,27.0,240,240,0.0,61.0
2004,39.0,0,240,0.0,73.0
2005,73.0,0,120,0.0,73.0
2006,82.0,0,120,0.0,73.0
2007,85.0,120,120,0.0,86.0
2008,77.0,0,120,0.0,79.0
2009,85.0,0,120,0.0,79.0
2010,89.0,0,120,0.0,93.0
2011,87.0,120,120,0.0,88.0
2012,89.0,60,60,0.0,81.0
2013,44.0,120,240,0.0,79.0
2014,32.0,0,240,0.0,67.0
2015,75.0,0,240,0.0,74.0
2016,84.0,0,240,0.0,74.0
2017,87.0,0,120,0.0,93.0
2018,51.0,60,240,0.0,61.0
2019,63.0,0,240,0.0,73.0
2020,60.0,0,240,0.0,61.0
2021,86.0,120,120,0.0,88.0
2022,74.0,0,120,0.0,74.0
2023,83.0,0,120,0.0,74.0
2024,77.0,0,120,0.0,79.0
2025,89.0,0,120,0.0,93.0
2026,85.0,0,120,0.0,79.0
2027,87.0,0,0,0.0,93.0
2028,89.0,60,60,0.0,81.0
2029,60.0,0,240,0.0,75.0
2030,68.0,120,240,0.0,75.0
2031,56.0,0,240,0.0,63.0
2032,51.0,0,120,0.0,73.0
2033,39.0,60,120,0.0,61.0
2034,75.0,0,240,0.0,74.0
2035,84.0,120,240,0.0,74.0
2036,86.0,0,120,0.0,88.0
2037,83.0,120,120,0.0,74.0
2038,74.0,0,120,0.0,74.0
2039,56.0,0,120,0.0,77.0
2040,44.0,120,120,0.0,64.0
2041,75.0,0,180,0.0,74.0
2042,84.0,0,180,0.0,74.0
2043,87.0,0,180,0.0,88.0
2044,39.0,180,210,0.0,62.0
2045,46.0,30,180,0.0,62.0
2046,54.0,30,150,0.0,74.0
2047,75.0,0,240,0.0,72.0
2048,90.0,0,180,0.0,85.0
2049,82.0,0,210,0.0,72.0
2050,57.0,30,150,0.0,74.0
2051,41.0,150,240,0.0,62.0
2052,51.0,30,180,0.0,74.0
2053,81.0,0,210,0.0,70.0
2054,89.0,0,180,0.0,83.0
2055,75.0,0,0,0.0,70.0
2056,48.0,30,300,0.0,62.0
2057,53.0,0,240,0.0,61.0
2058,60.0,30,210,0.0,61.0
2059,63.0,30,180,0.0,73.0
2060,69.0,0,150,0.0,73.0
2061,84.0,30,180,0.0,83.0
2062,72.0,150,270,0.0,70.0
2063,77.0,0,210,0.0,70.0
2064,70.0,180,240,0.0,70.0
2065,77.0,30,210,0.0,70.0
2066,85.0,0,180,0.0,83.0
2067,61.0,30,240,0.0,75.0
2068,53.0,0,270,0.0,75.0
2069,46.0,0,300,0.0,63.0
2070,78.0,0,80,0.0,80.0
2071,66.0,80,80,0.0,80.0
2072,42.0,240,240,0.0,60.0
2073,54.0,0,240,0.0,71.0
2074,78.0,80,80,0.0,80.0
2075,77.0,0,240,0.0,84.0
2076,41.0,0,240,0.0,60.0
2077,53.0,0,240,0.0,71.0
2078,65.0,80,240,0.0,71.0
2079,73.0,0,240,0.0,79.0
2080,61.0,0,240,0.0,74.0
2081,49.0,240,240,0.0,69.0
2082,37.0,0,240,0.0,58.0
2083,46.0,0,120,0.0,79.0
2084,34.0,0,120,0.0,67.0
2085,78.0,240,360,0.0,82.0
2086,87.0,0,360,0.0,82.0
2087,90.0,0,360,0.0,97.0
2088,65.0,0,240,0.0,79.0
2089,77.0,0,0,0.0,79.0
2090,85.0,0,120,0.0,79.0
2091,89.0,0,120,0.0,93.0
2092,61.0,0,0,0.0,77.0
2093,53.0,240,240,0.0,67.0
2094,70.0,0,240,0.0,77.0
2095,58.0,120,240,0.0,64.0
2096,65.0,60,0,0.0,71.0
2097,41.0,0,60,0.0,72.0
2098,53.0,0,60,0.0,85.0
2099,66.0,48,48,0.0,71.0
2100,65.0,48,48,0.0,71.0
2101,64.0,48,48,0.0,71.0
2102,85.0,0,480,0.0,79.0
2103,89.0,0,480,0.0,93.0
2104,65.0,48,48,0.0,71.0
2105,46.0,0,120,0.0,73.0
2106,58.0,0,120,0.0,86.0
2107,70.0,48,240,0.0,87.0
2108,73.0,0,120,0.0,74.0
2109,82.0,0,120,0.0,74.0
2110,85.0,0,120,0.0,88.0
2111,87.0,0,120,0.0,86.0
2112,84.0,0,120,0.0,73.0
2113,75.0,120,120,0.0,73.0
2114,29.0,240,240,0.0,61.0
2115,41.0,0,240,0.0,73.0
2116,87.0,0,120,0.0,79.0
2117,78.0,0,120,0.0,79.0
2118,90.0,0,120,0.0,93.0
2119,85.0,0,60,0.0,74.0
2120,46.0,0,240,0.0,79.0
2121,77.0,0,0,0.0,74.0
2122,34.0,120,240,0.0,67.0
2123,89.0,0,0,0.0,93.0
2124,85.0,0,120,0.0,74.0
2125,53.0,0,240,0.0,61.0
2126,65.0,0,240,0.0,73.0
2127,61.0,60,240,0.0,61.0
2128,84.0,120,120,0.0,74.0
2129,76.0,0,120,0.0,74.0
2130,88.0,0,120,0.0,88.0
2131,58.0,0,240,0.0,63.0
2132,70.0,0,240,0.0,75.0
2133,65.0,0,0,0.0,71.0
2134,61.0,120,240,0.0,75.0
2135,41.0,60,60,0.0,67.0
2136,53.0,0,60,0.0,80.0
2137,66.0,48,48,0.0,71.0
2138,65.0,48,48,0.0,71.0
2139,64.0,48,48,0.0,71.0
2140,65.0,48,48,0.0,71.0
2141,89.0,0,480,0.0,88.0
2142,85.0,0,480,0.0,74.0
2143,77.0,0,480,0.0,88.0
2144,58.0,48,120,0.0,86.0
2145,46.0,0,120,0.0,73.0
2146,70.0,0,240,0.0,87.0
2147,85.0,0,120,0.0,81.0
2148,91.0,240,120,0.0,96.0
2149,79.0,0,120,0.0,81.0
2150,46.0,0,240,0.0,73.0
2151,34.0,0,240,0.0,61.0
2152,80.0,120,120,0.0,80.0
2153,92.0,0,120,0.0,94.0
2154,39.0,0,120,0.0,79.0
2155,96.0,120,120,0.0,101.0
2156,84.0,0,120,0.0,85.0
2157,27.0,0,120,0.0,67.0
2158,87.0,0,120,0.0,74.0
2159,91.0,120,120,0.0,88.0
2160,84.0,0,120,0.0,79.0
2161,72.0,0,120,0.0,72.0
2162,96.0,0,120,0.0,93.0
2163,94.0,60,60,0.0,92.0
2164,67.0,120,240,0.0,60.0
2165,61.0,0,240,0.0,60.0
2166,63.0,0,240,0.0,60.0
2167,82.0,60,0,0.0,81.0
2168,70.0,120,120,0.0,70.0
2169,94.0,0,120,0.0,97.0
2170,51.0,0,120,0.0,75.0
2171,84.0,0,120,0.0,70.0
2172,87.0,120,120,0.0,84.0
2173,94.0,0,120,0.0,90.0
2174,70.0,0,120,0.0,72.0
2175,82.0,0,120,0.0,75.0
2176,92.0,60,60,0.0,80.0
2177,68.0,120,120,0.0,70.0
2178,63.0,0,240,0.0,69.0
2179,60.0,120,240,0.0,58.0
2180,80.0,60,0,0.0,79.0
2181,92.0,0,120,0.0,93.0
2182,51.0,0,120,0.0,73.0
2183,87.0,120,120,0.0,79.0
2184,82.0,0,120,0.0,67.0
2185,80.0,0,120,0.0,74.0
2186,92.0,0,120,0.0,88.0
2187,68.0,120,120,0.0,72.0
2188,63.0,0,240,0.0,67.0
2189,58.0,0,240,0.0,56.0
2190,67.0,120,120,0.0,70.0
2191,79.0,60,60,0.0,67.0
2192,91.0,0,0,0.0,90.0
2193,79.0,0,120,0.0,75.0
2194,46.0,60,120,0.0,70.0
2195,82.0,0,120,0.0,66.0
2196,86.0,120,120,0.0,78.0
2197,67.0,0,120,0.0,72.0
2198,91.0,0,120,0.0,85.0
2199,79.0,120,120,0.0,72.0
2200,65.0,120,120,0.0,70.0
2201,58.0,0,240,0.0,55.0
2202,62.0,0,240,0.0,66.0
2203,56.0,0,240,0.0,55.0
2204,89.0,60,0,0.0,88.0
2205,77.0,60,60,0.0,68.0
2206,51.0,0,120,0.0,72.0
2207,77.0,0,120,0.0,73.0
2208,79.0,120,120,0.0,64.0
2209,82.0,0,120,0.0,75.0
2210,65.0,0,120,0.0,72.0
2211,89.0,120,120,0.0,82.0
2212,77.0,0,120,0.0,69.0
2213,55.0,0,240,0.0,57.0
2214,87.0,0,60,0.0,75.0
2215,75.0,60,60,0.0,64.0
2216,63.0,120,120,0.0,70.0
2217,58.0,0,240,0.0,68.0
2218,73.0,60,120,0.0,75.0
2219,85.0,0,120,0.0,90.0
2220,41.0,0,240,0.0,62.0
2221,80.0,0,120,0.0,75.0
2222,77.0,120,120,0.0,64.0
2223,85.0,0,120,0.0,84.0
2224,73.0,0,120,0.0,70.0
2225,61.0,120,120,0.0,72.0
2226,56.0,0,240,0.0,68.0
2227,60.0,120,120,0.0,70.0
2228,84.0,0,60,0.0,74.0
2229,72.0,60,60,0.0,63.0
2230,53.0,0,480,0.0,74.0
2231,49.0,0,240,0.0,74.0
2232,37.0,0,240,0.0,62.0
2233,58.0,240,240,0.0,64.0
2234,53.0,0,240,0.0,55.0
2235,65.0,60,480,0.0,92.0
2236,67.0,0,60,0.0,70.0
2237,68.0,60,60,0.0,71.0
2238,67.0,60,60,0.0,71.0
2239,48.0,0,240,0.0,75.0
2240,36.0,240,240,0.0,63.0
2241,68.0,60,60,0.0,72.0
2242,65.0,0,120,0.0,72.0
2243,58.0,0,240,0.0,57.0
2244,60.0,0,240,0.0,68.0
2245,52.0,60,240,0.0,57.0
2246,67.0,120,120,0.0,73.0
2247,68.0,0,60,0.0,75.0
2248,70.0,60,60,0.0,75.0
2249,68.0,60,60,0.0,77.0
2250,29.0,0,240,0.0,66.0
2251,41.0,120,240,0.0,78.0
2252,70.0,60,60,0.0,77.0
2253,67.0,0,120,0.0,78.0
2254,53.0,60,240,0.0,73.0
2255,68.0,120,120,0.0,79.0
2256,60.0,0,240,0.0,73.0
2257,56.0,0,240,0.0,73.0
2258,51.0,120,120,0.0,77.0
2259,39.0,0,120,0.0,64.0
2260,69.0,0,120,0.0,82.0
2261,70.0,120,120,0.0,77.0
2262,67.0,0,240,0.0,69.0
2263,61.0,0,240,0.0,69.0
2264,72.0,0,120,0.0,77.0
2265,61.0,0,240,0.0,64.0
2266,67.0,0,240,0.0,64.0
2267,51.0,0,0,0.0,60.0
2268,58.0,0,240,0.0,71.0
2269,73.0,120,120,0.0,77.0
2270,72.0,120,240,0.0,82.0
2271,68.0,0,240,0.0,69.0
2272,60.0,0,240,0.0,69.0
2273,56.0,0,240,0.0,71.0
2274,44.0,0,240,0.0,60.0
2275,77.0,240,180,0.0,83.0
2276,65.0,0,180,0.0,70.0
2277,62.0,0,180,0.0,70.0
2278,68.0,0,180,0.0,70.0
2279,59.0,0,180,0.0,70.0
2280,68.0,60,0,0.0,71.0
2281,63.0,0,0,0.0,71.0
2282,60.0,0,0,0.0,71.0
2283,75.0,0,0,0.0,84.0
2284,68.0,120,240,0.0,79.0
2285,80.0,0,120,0.0,83.0
2286,67.0,180,60,0.0,64.0
2287,44.0,0,240,0.0,61.0
2288,56.0,120,240,0.0,72.0
2289,79.0,0,60,0.0,77.0
2290,49.0,60,240,0.0,74.0
2291,37.0,0,240,0.0,62.0
2292,77.0,0,480,0.0,77.0
2293,65.0,0,480,0.0,64.0
2294,58.0,0,240,0.0,64.0
2295,53.0,240,240,0.0,55.0
2296,67.0,0,120,0.0,70.0
2297,79.0,120,40,0.0,71.0
2298,80.0,40,40,0.0,72.0
2299,36.0,0,240,0.0,63.0
2300,79.0,40,40,0.0,71.0
2301,48.0,240,240,0.0,75.0
2302,65.0,0,120,0.0,61.0
2303,77.0,0,120,0.0,72.0
2304,79.0,120,120,0.0,73.0
2305,67.0,0,120,0.0,61.0
2306,64.0,40,240,0.0,68.0
2307,60.0,0,240,0.0,57.0
2308,58.0,0,240,0.0,57.0
2309,68.0,120,120,0.0,70.0
2310,80.0,120,40,0.0,71.0
2311,82.0,40,40,0.0,71.0
2312,41.0,0,240,0.0,78.0
2313,29.0,0,240,0.0,66.0
2314,80.0,40,40,0.0,71.0
2315,79.0,0,120,0.0,78.0
2316,67.0,0,120,0.0,66.0
2317,80.0,0,120,0.0,79.0
2318,60.0,0,240,0.0,73.0
2319,56.0,0,240,0.0,73.0
2320,68.0,120,120,0.0,67.0
2321,65.0,40,240,0.0,73.0
2322,51.0,120,120,0.0,77.0
2323,39.0,0,120,0.0,64.0
2324,81.0,0,120,0.0,82.0
2325,75.0,0,120,0.0,69.0
2326,69.0,0,120,0.0,69.0
2327,70.0,120,120,0.0,69.0
2328,82.0,0,120,0.0,77.0
2329,84.0,0,120,0.0,77.0
2330,79.0,120,120,0.0,64.0
2331,72.0,0,120,0.0,64.0
2332,61.0,0,240,0.0,60.0
2333,63.0,0,240,0.0,60.0
2334,58.0,0,240,0.0,60.0
2335,67.0,0,240,0.0,71.0
2336,85.0,0,120,0.0,77.0
2337,73.0,120,120,0.0,64.0
2338,72.0,0,120,0.0,69.0
2339,68.0,0,120,0.0,71.0
2340,63.0,0,120,0.0,60.0
2341,84.0,0,120,0.0,82.0
2342,56.0,120,120,0.0,60.0
2343,80.0,0,120,0.0,69.0
2344,68.0,240,180,0.0,70.0
2345,59.0,0,180,0.0,70.0
2346,71.0,0,180,0.0,70.0
2347,62.0,0,180,0.0,70.0
2348,89.0,0,180,0.0,83.0
2349,77.0,0,180,0.0,70.0
2350,80.0,0,0,0.0,63.0
2351,63.0,0,60,0.0,63.0
2352,68.0,0,60,0.0,63.0
2353,72.0,0,60,0.0,63.0
2354,60.0,0,0,0.0,71.0
2355,87.0,0,60,0.0,75.0
2356,75.0,0,60,0.0,63.0
2357,72.0,0,120,0.0,71.0
2358,68.0,60,120,0.0,71.0
2359,63.0,0,120,0.0,71.0
2360,87.0,0,120,0.0,84.0
2361,80.0,0,120,0.0,71.0
2362,75.0,0,120,0.0,71.0
2363,87.0,30,60,0.0,66.0
2364,75.0,0,60,0.0,66.0
2365,81.0,0,180,0.0,70.0
2366,69.0,30,180,0.0,72.0
2367,53.0,150,270,0.0,61.0
2368,60.0,0,240,0.0,61.0
2369,63.0,30,210,0.0,61.0
2370,73.0,0,180,0.0,70.0
2371,85.0,0,180,0.0,83.0
2372,84.0,0,60,0.0,77.0
2373,72.0,0,60,0.0,64.0
2374,82.0,0,120,0.0,83.0
2375,70.0,30,120,0.0,70.0
2376,53.0,30,210,0.0,66.0
2377,61.0,0,180,0.0,78.0
2378,46.0,180,240,0.0,66.0
2379,78.0,0,180,0.0,64.0
2380,82.0,0,180,0.0,77.0
2381,51.0,180,240,0.0,61.0
2382,58.0,30,210,0.0,61.0
2383,66.0,30,180,0.0,72.0
2384,70.0,0,180,0.0,64.0
2385,72.0,0,60,0.0,64.0
2386,84.0,180,60,0.0,77.0
2387,53.0,30,210,0.0,57.0
2388,61.0,0,180,0.0,68.0
2389,46.0,0,240,0.0,57.0
2390,73.0,0,0,0.0,67.0
2391,77.0,0,240,0.0,68.0
2392,85.0,0,0,0.0,79.0
2393,39.0,180,240,0.0,57.0
2394,46.0,30,210,0.0,57.0
2395,54.0,0,180,0.0,68.0
2396,75.0,0,180,0.0,67.0
2397,78.0,30,180,0.0,67.0
2398,72.0,0,60,0.0,63.0
2399,84.0,0,60,0.0,75.0
2400,34.0,180,240,0.0,57.0
2401,41.0,30,210,0.0,57.0
2402,49.0,0,180,0.0,68.0
2403,77.0,0,240,0.0,69.0
2404,82.0,30,240,0.0,82.0
2405,70.0,30,0,0.0,67.0
2406,75.0,0,180,0.0,67.0
2407,80.0,0,180,0.0,79.0
2408,39.0,180,240,0.0,56.0
2409,46.0,30,210,0.0,56.0
2410,54.0,0,180,0.0,67.0
2411,68.0,0,180,0.0,67.0
2412,78.0,0,60,0.0,74.0
2413,66.0,180,60,0.0,62.0
2414,73.0,0,120,0.0,66.0
2415,77.0,0,120,0.0,78.0
2416,65.0,0,120,0.0,66.0
2417,46.0,0,240,0.0,61.0
2418,53.0,30,210,0.0,61.0
2419,61.0,30,180,0.0,72.0
2420,45.0,0,60,0.0,64.0
2421,33.0,240,60,0.0,55.0
2422,46.0,60,60,0.0,64.0
2423,34.0,0,60,0.0,55.0
2424,36.0,0,60,0.0,56.0
2425,48.0,60,60,0.0,66.0
2426,37.0,60,60,0.0,56.0
2427,49.0,0,60,0.0,67.0
2428,51.0,0,60,0.0,67.0
2429,39.0,60,60,0.0,56.0
2430,53.0,60,60,0.0,68.0
2431,41.0,0,60,0.0,57.0
2432,55.0,60,60,0.0,69.0
2433,43.0,0,60,0.0,58.0
2434,57.0,0,60,0.0,69.0
2435,45.0,60,60,0.0,58.0
2436,46.0,0,60,0.0,59.0
2437,58.0,60,60,0.0,70.0
2438,60.0,0,60,0.0,71.0
2439,48.0,60,60,0.0,60.0
2440,61.0,60,60,0.0,71.0
2441,49.0,0,60,0.0,60.0
2442,63.0,0,60,0.0,72.0
2443,51.0,60,60,0.0,61.0
2444,53.0,60,60,0.0,61.0
2445,65.0,0,60,0.0,73.0
2446,55.0,60,60,0.0,61.0
2447,67.0,0,60,0.0,73.0
2448,57.0,60,60,0.0,62.0
2449,69.0,0,60,0.0,74.0
2450,70.0,60,60,0.0,74.0
2451,58.0,0,60,0.0,62.0
2452,72.0,60,60,0.0,75.0
2453,60.0,0,60,0.0,63.0
2454,73.0,60,60,0.0,77.0
2455,61.0,0,60,0.0,64.0
2456,75.0,0,60,0.0,77.0
2457,63.0,60,60,0.0,64.0
2458,77.0,60,60,0.0,78.0
2459,65.0,0,60,0.0,66.0
2460,79.0,60,60,0.0,77.0
2461,67.0,0,60,0.0,67.0
2462,81.0,0,60,0.0,77.0
2463,69.0,60,60,0.0,65.0
2464,70.0,0,60,0.0,66.0
2465,82.0,60,60,0.0,78.0
2466,72.0,60,60,0.0,67.0
2467,84.0,0,60,0.0,79.0
2468,73.0,60,60,0.0,68.0
2469,85.0,0,60,0.0,80.0
2470,75.0,0,60,0.0,69.0
2471,87.0,60,60,0.0,80.0
2472,77.0,60,60,0.0,70.0
2473,89.0,0,60,0.0,81.0
2474,91.0,60,90,0.0,82.0
2475,79.0,0,90,0.0,71.0
2476,81.0,0,60,0.0,72.0
2477,93.0,90,90,0.0,83.0
2478,82.0,90,120,0.0,92.0
2479,94.0,0,120,0.0,92.0
2480,96.0,180,60,0.0,85.0
2481,39.0,60,120,0.0,80.0
2482,27.0,0,120,0.0,68.0
2483,85.0,0,120,0.0,77.0
2484,91.0,0,120,0.0,91.0
2485,94.0,0,120,0.0,91.0
2486,93.0,120,120,0.0,85.0
2487,84.0,0,120,0.0,72.0
2488,90.0,0,120,0.0,85.0
2489,63.0,0,120,0.0,72.0
2490,51.0,120,120,0.0,61.0
2491,91.0,0,0,0.0,85.0
2492,94.0,0,240,0.0,90.0
2493,85.0,0,240,0.0,75.0
2494,96.0,0,240,0.0,85.0
2495,84.0,0,240,0.0,72.0
2496,67.0,0,240,0.0,67.0
2497,75.0,0,240,0.0,79.0
2498,72.0,240,240,0.0,67.0
2499,63.0,0,240,0.0,67.0
2500,77.0,0,240,0.0,77.0
2501,72.0,0,240,0.0,64.0
2502,65.0,0,240,0.0,64.0
2503,80.0,0,0,0.0,72.0
2504,84.0,0,240,0.0,74.0
2505,92.0,240,240,0.0,88.0
2506,68.0,0,240,0.0,61.0
2507,72.0,0,240,0.0,72.0
2508,60.0,0,240,0.0,61.0
2509,75.0,0,240,0.0,72.0
2510,87.0,240,240,0.0,85.0
2511,80.0,0,0,0.0,72.0
2512,61.0,0,120,0.0,61.0
2513,68.0,0,120,0.0,61.0
2514,73.0,240,120,0.0,72.0
2515,89.0,0,120,0.0,85.0
2516,77.0,0,120,0.0,72.0
2517,61.0,0,180,0.0,67.0
2518,55.0,0,180,0.0,56.0
2519,61.0,180,60,0.0,67.0
2520,55.0,0,60,0.0,56.0
2521,39.0,0,480,0.0,58.0
2522,51.0,240,480,0.0,69.0
2523,63.0,0,480,0.0,67.0
2524,27.0,0,120,0.0,51.0
2525,39.0,240,120,0.0,61.0
2526,70.0,0,480,0.0,72.0
2527,55.0,60,480,0.0,61.0
2528,61.0,0,480,0.0,72.0
2529,32.0,0,120,0.0,51.0
2530,44.0,0,120,0.0,61.0
2531,56.0,0,240,0.0,56.0
2532,60.0,240,240,0.0,56.0
2533,68.0,0,240,0.0,67.0
2534,64.0,30,420,0.0,83.0
2535,59.0,30,450,0.0,78.0
2536,56.0,390,0,0.0,75.0
2537,68.0,30,390,0.0,89.0
2538,52.0,0,390,0.0,67.0
2539,47.0,0,420,0.0,63.0
2540,40.0,0,450,0.0,59.0
2541,47.0,30,420,0.0,63.0
2542,68.0,0,390,0.0,88.0
2543,59.0,0,450,0.0,78.0
2544,40.0,30,450,0.0,59.0
2545,52.0,30,390,0.0,67.0
2546,64.0,0,420,0.0,83.0
2547,68.0,30,390,0.0,87.0
2548,56.0,390,0,0.0,75.0
2549,40.0,0,450,0.0,59.0
2550,47.0,0,420,0.0,63.0
2551,52.0,0,390,0.0,67.0
2552,64.0,30,420,0.0,81.0
2553,59.0,30,450,0.0,77.0
2554,40.0,0,450,0.0,59.0
2555,47.0,0,420,0.0,63.0
2556,64.0,30,420,0.0,83.0
2557,59.0,30,450,0.0,78.0
2558,52.0,0,390,0.0,67.0
2559,68.0,30,390,0.0,88.0
2560,56.0,390,0,0.0,75.0
2561,52.0,0,390,0.0,67.0
2562,59.0,30,450,0.0,78.0
2563,64.0,30,420,0.0,83.0
2564,56.0,390,0,0.0,75.0
2565,68.0,30,390,0.0,88.0
2566,47.0,0,420,0.0,63.0
2567,40.0,0,450,0.0,59.0
2568,40.0,30,540,0.0,59.0
2569,64.0,0,0,0.0,83.0
2570,59.0,0,0,0.0,73.0
2571,56.0,0,0,0.0,73.0
2572,68.0,480,0,0.0,89.0
2573,52.0,0,0,0.0,70.0
2574,47.0,0,0,0.0,59.0
2575,40.0,0,60,0.0,59.0
2576,39.0,0,60,0.0,34.0
2577,51.0,120,60,0.0,40.0
2578,37.0,0,60,0.0,34.0
2579,49.0,120,60,0.0,40.0
2580,35.0,120,60,0.0,34.0
2581,47.0,0,60,0.0,40.0
2582,52.0,0,60,0.0,49.0
2583,40.0,120,60,0.0,41.0
2584,51.0,0,60,0.0,45.0
2585,39.0,120,60,0.0,38.0
2586,37.0,120,60,0.0,34.0
2587,49.0,0,60,0.0,41.0
2588,47.0,120,60,0.0,41.0
2589,35.0,0,60,0.0,34.0
2590,52.0,0,60,0.0,49.0
2591,40.0,120,60,0.0,41.0
2592,51.0,0,60,0.0,40.0
2593,39.0,120,60,0.0,34.0
2594,37.0,120,60,0.0,34.0
2595,49.0,0,60,0.0,40.0
2596,47.0,0,60,0.0,40.0
2597,35.0,120,60,0.0,34.0
2598,52.0,0,60,0.0,49.0
2599,40.0,120,60,0.0,41.0
2600,51.0,0,60,0.0,40.0
2601,39.0,120,60,0.0,34.0
2602,49.0,0,60,0.0,40.0
2603,37.0,120,60,0.0,34.0
2604,47.0,0,60,0.0,40.0
2605,35.0,120,60,0.0,34.0
2606,52.0,0,60,0.0,49.0
2607,40.0,120,60,0.0,41.0
2608,51.0,0,60,0.0,45.0
2609,39.0,120,60,0.0,38.0
2610,49.0,0,60,0.0,41.0
2611,37.0,120,60,0.0,34.0
2612,47.0,0,60,0.0,41.0
2613,35.0,120,60,0.0,34.0
2614,40.0,0,60,0.0,41.0
2615,52.0,120,60,0.0,49.0
2616,51.0,0,60,0.0,40.0
2617,39.0,120,60,0.0,34.0
2618,37.0,0,60,0.0,34.0
2619,49.0,120,60,0.0,40.0
2620,35.0,0,60,0.0,34.0
2621,47.0,120,60,0.0,40.0
2622,52.0,0,60,0.0,51.0
2623,40.0,120,60,0.0,43.0
2624,51.0,120,60,0.0,42.0
2625,39.0,0,60,0.0,35.0
2626,49.0,0,60,0.0,42.0
2627,37.0,120,60,0.0,35.0
2628,47.0,0,60,0.0,42.0
2629,35.0,120,60,0.0,35.0
2630,52.0,0,60,0.0,51.0
2631,40.0,120,60,0.0,43.0
2632,39.0,0,60,0.0,39.0
2633,51.0,120,60,0.0,47.0
2634,37.0,120,60,0.0,35.0
2635,49.0,0,60,0.0,43.0
2636,47.0,120,60,0.0,43.0
2637,35.0,0,60,0.0,35.0
2638,56.0,0,960,0.0,52.0
2639,59.0,0,0,0.0,58.0
2640,40.0,0,60,0.0,43.0
2641,52.0,0,60,0.0,51.0
2642,51.0,120,60,0.0,42.0
2643,39.0,0,60,0.0,35.0
2644,49.0,0,60,0.0,42.0
2645,37.0,120,60,0.0,36.0
2646,57.0,0,0,0.0,51.0
2647,47.0,120,60,0.0,42.0
2648,35.0,0,60,0.0,36.0
2649,59.0,120,0,0.0,60.0
2650,52.0,0,60,0.0,51.0
2651,40.0,0,60,0.0,43.0
2652,51.0,120,60,0.0,42.0
2653,39.0,0,60,0.0,36.0
2654,49.0,0,60,0.0,42.0
2655,37.0,120,60,0.0,36.0
2656,56.0,0,0,0.0,49.0
2657,35.0,0,60,0.0,36.0
2658,47.0,0,60,0.0,42.0
2659,64.0,120,120,0.0,58.0
2660,40.0,0,60,0.0,43.0
2661,52.0,120,60,0.0,51.0
2662,51.0,0,60,0.0,47.0
2663,39.0,120,60,0.0,40.0
2664,49.0,0,60,0.0,43.0
2665,37.0,120,60,0.0,36.0
2666,47.0,120,60,0.0,43.0
2667,35.0,0,60,0.0,36.0
2668,68.0,0,480,0.0,64.0
2669,59.0,0,480,0.0,54.0
2670,56.0,0,480,0.0,54.0
2671,52.0,0,60,0.0,52.0
2672,40.0,120,60,0.0,43.0
2673,39.0,0,60,0.0,36.0
2674,51.0,120,60,0.0,42.0
2675,49.0,0,60,0.0,42.0
2676,37.0,120,60,0.0,36.0
2677,35.0,120,60,0.0,36.0
2678,47.0,0,60,0.0,42.0
2679,66.0,0,480,0.0,56.0
2680,59.0,0,0,0.0,58.0
2681,57.0,0,480,0.0,47.0
2682,40.0,120,60,0.0,43.0
2683,52.0,0,60,0.0,52.0
2684,39.0,0,60,0.0,36.0
2685,51.0,120,60,0.0,42.0
2686,37.0,0,60,0.0,36.0
2687,49.0,120,60,0.0,42.0
2688,56.0,0,360,0.0,49.0
2689,35.0,0,60,0.0,36.0
2690,47.0,120,60,0.0,42.0
2691,56.0,0,120,0.0,48.0
2692,64.0,0,120,0.0,57.0
2693,52.0,0,60,0.0,53.0
2694,40.0,120,60,0.0,44.0
2695,51.0,120,60,0.0,49.0
2696,39.0,0,60,0.0,42.0
2697,56.0,0,240,0.0,51.0
2698,59.0,0,240,0.0,51.0
2699,68.0,0,240,0.0,61.0
2700,37.0,0,60,0.0,37.0
2701,49.0,120,60,0.0,46.0
2702,35.0,0,60,0.0,37.0
2703,47.0,0,60,0.0,46.0
2704,57.0,0,120,0.0,47.0
2705,63.0,120,120,0.0,56.0
2706,40.0,120,60,0.0,46.0
2707,52.0,0,60,0.0,55.0
2708,39.0,120,60,0.0,38.0
2709,51.0,0,60,0.0,45.0
2710,64.0,0,0,0.0,49.0
2711,56.0,0,240,0.0,48.0
2712,49.0,0,60,0.0,46.0
2713,37.0,120,60,0.0,38.0
2714,47.0,120,60,0.0,46.0
2715,35.0,0,60,0.0,39.0
2716,56.0,0,240,0.0,49.0
2717,68.0,0,0,0.0,54.0
2718,52.0,0,60,0.0,57.0
2719,40.0,120,60,0.0,48.0
2720,51.0,0,60,0.0,47.0
2721,39.0,120,60,0.0,39.0
2722,59.0,0,240,0.0,54.0
2723,68.0,0,0,0.0,55.0
2724,71.0,0,240,0.0,64.0
2725,49.0,0,60,0.0,47.0
2726,73.0,0,60,0.0,65.0
2727,37.0,0,60,0.0,39.0
2728,61.0,120,60,0.0,55.0
2729,35.0,120,60,0.0,40.0
2730,47.0,0,60,0.0,47.0
2731,75.0,0,60,0.0,67.0
2732,63.0,0,60,0.0,56.0
2733,68.0,0,60,0.0,56.0
2734,40.0,0,60,0.0,49.0
2735,52.0,0,60,0.0,57.0
2736,64.0,120,120,0.0,59.0
2737,68.0,0,120,0.0,59.0
2738,76.0,0,120,0.0,70.0
2739,39.0,120,60,0.0,44.0
2740,51.0,0,60,0.0,53.0
2741,37.0,120,60,0.0,40.0
2742,49.0,0,60,0.0,49.0
2743,59.0,0,120,0.0,53.0
2744,68.0,0,120,0.0,53.0
2745,71.0,0,120,0.0,63.0
2746,47.0,120,60,0.0,49.0
2747,35.0,0,60,0.0,40.0
2748,52.0,0,60,0.0,57.0
2749,40.0,120,60,0.0,49.0
2750,51.0,0,60,0.0,47.0
2751,39.0,120,60,0.0,40.0
2752,49.0,0,60,0.0,47.0
2753,37.0,120,60,0.0,40.0
2754,47.0,120,60,0.0,47.0
2755,35.0,0,60,0.0,40.0
2756,68.0,0,480,0.0,62.0
2757,80.0,0,480,0.0,73.0
2758,71.0,0,0,0.0,67.0
2759,52.0,120,60,0.0,57.0
2760,40.0,0,60,0.0,49.0
2761,51.0,0,60,0.0,48.0
2762,39.0,120,60,0.0,40.0
2763,49.0,0,60,0.0,48.0
2764,37.0,120,60,0.0,40.0
2765,35.0,0,60,0.0,40.0
2766,47.0,120,60,0.0,48.0
2767,40.0,0,60,0.0,49.0
2768,52.0,120,60,0.0,58.0
2769,39.0,120,60,0.0,45.0
2770,51.0,0,60,0.0,53.0
2771,59.0,0,720,0.0,56.0
2772,66.0,0,720,0.0,56.0
2773,69.0,0,720,0.0,56.0
2774,71.0,0,60,0.0,68.0
2775,69.0,0,60,0.0,57.0
2776,59.0,120,60,0.0,57.0
2777,37.0,0,60,0.0,40.0
2778,49.0,0,60,0.0,49.0
2779,59.0,0,60,0.0,57.0
2780,47.0,0,60,0.0,49.0
2781,35.0,120,60,0.0,40.0
2782,71.0,0,60,0.0,68.0
2783,69.0,0,60,0.0,57.0
2784,52.0,0,60,0.0,58.0
2785,40.0,0,60,0.0,49.0
2786,71.0,0,120,0.0,70.0
2787,69.0,120,120,0.0,59.0
2788,59.0,0,120,0.0,59.0
2789,51.0,0,60,0.0,48.0
2790,39.0,120,60,0.0,40.0
2791,49.0,0,60,0.0,48.0
2792,37.0,0,60,0.0,41.0
2793,69.0,0,120,0.0,56.0
2794,71.0,120,120,0.0,67.0
2795,59.0,0,120,0.0,56.0
2796,35.0,0,60,0.0,41.0
2797,47.0,120,60,0.0,48.0
2798,40.0,0,60,0.0,49.0
2799,52.0,120,60,0.0,58.0
2800,51.0,0,60,0.0,48.0
2801,39.0,120,60,0.0,41.0
2802,49.0,0,60,0.0,48.0
2803,37.0,120,60,0.0,41.0
2804,71.0,0,360,0.0,72.0
2805,59.0,0,360,0.0,61.0
2806,68.0,0,0,0.0,57.0
2807,47.0,0,60,0.0,48.0
2808,35.0,0,60,0.0,41.0
2809,64.0,0,0,0.0,61.0
2810,76.0,0,0,0.0,72.0
2811,52.0,0,60,0.0,58.0
2812,40.0,120,60,0.0,49.0
2813,39.0,0,60,0.0,45.0
2814,51.0,120,60,0.0,54.0
2815,37.0,0,60,0.0,41.0
2816,49.0,120,60,0.0,49.0
2817,47.0,120,60,0.0,49.0
2818,35.0,0,60,0.0,41.0
2819,68.0,0,480,0.0,61.0
2820,52.0,0,60,0.0,59.0
2821,40.0,120,60,0.0,50.0
2822,51.0,0,60,0.0,49.0
2823,39.0,120,60,0.0,41.0
2824,49.0,0,60,0.0,49.0
2825,37.0,120,60,0.0,41.0
2826,35.0,0,60,0.0,41.0
2827,47.0,120,60,0.0,49.0
2828,68.0,0,480,0.0,67.0
2829,59.0,0,0,0.0,62.0
2830,64.0,0,480,0.0,56.0
2831,40.0,0,60,0.0,50.0
2832,52.0,0,60,0.0,59.0
2833,51.0,0,60,0.0,49.0
2834,39.0,120,60,0.0,41.0
2835,57.0,0,240,0.0,62.0
2836,37.0,120,60,0.0,41.0
2837,59.0,0,60,0.0,71.0
2838,49.0,0,60,0.0,49.0
2839,57.0,0,60,0.0,60.0
2840,35.0,0,60,0.0,41.0
2841,57.0,0,60,0.0,60.0
2842,59.0,0,60,0.0,71.0
2843,47.0,120,60,0.0,49.0
2844,40.0,0,60,0.0,50.0
2845,52.0,0,60,0.0,59.0
2846,57.0,0,120,0.0,62.0
2847,59.0,120,120,0.0,74.0
2848,39.0,0,60,0.0,45.0
2849,51.0,120,60,0.0,54.0
2850,66.0,120,720,0.0,73.0
2851,37.0,120,60,0.0,41.0
2852,49.0,0,60,0.0,50.0
2853,47.0,0,60,0.0,50.0
2854,35.0,120,60,0.0,41.0
2855,66.0,0,240,0.0,72.0
2856,57.0,0,240,0.0,61.0
2857,59.0,0,240,0.0,61.0
2858,40.0,120,60,0.0,50.0
2859,52.0,0,60,0.0,59.0
2860,57.0,0,60,0.0,60.0
2861,59.0,0,60,0.0,60.0
2862,68.0,0,60,0.0,71.0
2863,39.0,0,60,0.0,41.0
2864,66.0,0,60,0.0,70.0
2865,51.0,0,60,0.0,49.0
2866,57.0,0,60,0.0,59.0
2867,59.0,120,60,0.0,59.0
2868,37.0,0,60,0.0,41.0
2869,49.0,0,60,0.0,49.0
2870,64.0,0,60,0.0,69.0
2871,59.0,120,60,0.0,58.0
2872,57.0,0,60,0.0,58.0
2873,66.0,0,60,0.0,67.0
2874,63.0,0,60,0.0,56.0
2875,57.0,0,60,0.0,56.0
2876,59.0,0,60,0.0,56.0
2877,35.0,0,60,0.0,41.0
2878,47.0,120,60,0.0,49.0
2879,40.0,0,60,0.0,50.0
2880,52.0,120,60,0.0,59.0
2881,39.0,120,60,0.0,41.0
2882,51.0,0,60,0.0,49.0
2883,37.0,0,60,0.0,41.0
2884,49.0,120,60,0.0,49.0
2885,56.0,0,360,0.0,71.0
2886,47.0,120,60,0.0,49.0
2887,35.0,0,60,0.0,41.0
2888,61.0,0,120,0.0,69.0
2889,52.0,0,60,0.0,60.0
2890,40.0,0,60,0.0,51.0
2891,39.0,0,60,0.0,46.0
2892,51.0,120,60,0.0,55.0
2893,37.0,120,60,0.0,42.0
2894,49.0,0,60,0.0,51.0
2895,68.0,0,840,0.0,71.0
2896,64.0,0,840,0.0,60.0
2897,47.0,120,60,0.0,51.0
2898,35.0,0,60,0.0,42.0
2899,71.0,120,0,0.0,70.0
2900,68.0,0,0,0.0,59.0
2901,40.0,0,60,0.0,51.0
2902,52.0,0,60,0.0,60.0
2903,39.0,0,60,0.0,42.0
2904,51.0,120,60,0.0,50.0
2905,49.0,120,60,0.0,50.0
2906,37.0,0,60,0.0,42.0
2907,35.0,0,60,0.0,42.0
2908,47.0,120,60,0.0,50.0
2909,59.0,120,960,0.0,73.0
2910,40.0,0,60,0.0,51.0
2911,52.0,0,60,0.0,60.0
2912,39.0,0,60,0.0,42.0
2913,51.0,120,60,0.0,50.0
2914,49.0,120,60,0.0,50.0
2915,37.0,0,60,0.0,42.0
2916,47.0,120,60,0.0,50.0
2917,35.0,0,60,0.0,42.0
2918,40.0,120,60,0.0,51.0
2919,52.0,0,60,0.0,60.0
2920,51.0,0,60,0.0,56.0
2921,39.0,120,60,0.0,47.0
2922,59.0,120,720,0.0,72.0
2923,56.0,0,720,0.0,61.0
2924,55.0,0,60,0.0,60.0
2925,49.0,0,60,0.0,51.0
2926,37.0,120,60,0.0,42.0
2927,59.0,0,60,0.0,71.0
2928,47.0,0,60,0.0,51.0
2929,35.0,0,60,0.0,42.0
2930,56.0,120,60,0.0,60.0
2931,59.0,0,60,0.0,71.0
2932,40.0,0,60,0.0,52.0
2933,52.0,0,60,0.0,62.0
2934,57.0,0,120,0.0,62.0
2935,59.0,120,120,0.0,73.0
2936,51.0,120,60,0.0,52.0
2937,39.0,0,60,0.0,43.0
2938,61.0,0,60,0.0,70.0
2939,37.0,0,60,0.0,43.0
2940,57.0,0,60,0.0,59.0
2941,49.0,120,60,0.0,52.0
2942,47.0,0,60,0.0,53.0
2943,35.0,0,60,0.0,44.0
2944,63.0,120,60,0.0,73.0
2945,57.0,0,60,0.0,62.0
2946,52.0,120,60,0.0,64.0
2947,40.0,0,60,0.0,54.0
2948,39.0,0,60,0.0,44.0
2949,51.0,120,60,0.0,54.0
2950,37.0,0,60,0.0,45.0
2951,49.0,120,60,0.0,54.0
2952,64.0,0,360,0.0,76.0
2953,56.0,120,0,0.0,61.0
2954,47.0,0,60,0.0,54.0
2955,35.0,0,60,0.0,46.0
2956,59.0,0,120,0.0,61.0
2957,40.0,120,60,0.0,55.0
2958,52.0,0,60,0.0,65.0
2959,51.0,0,60,0.0,60.0
2960,39.0,120,60,0.0,50.0
2961,49.0,0,60,0.0,57.0
2962,37.0,120,60,0.0,46.0
2963,35.0,120,60,0.0,46.0
2964,47.0,0,60,0.0,57.0
2965,68.0,0,480,0.0,76.0
2966,59.0,0,480,0.0,63.0
2967,56.0,0,480,0.0,63.0
2968,40.0,0,60,0.0,57.0
2969,52.0,0,60,0.0,68.0
2970,39.0,0,60,0.0,46.0
2971,51.0,120,60,0.0,56.0
2972,37.0,0,60,0.0,47.0
2973,49.0,120,60,0.0,56.0
2974,47.0,120,60,0.0,56.0
2975,35.0,0,60,0.0,48.0
2976,66.0,0,480,0.0,76.0
2977,59.0,0,480,0.0,64.0
2978,57.0,120,480,0.0,64.0
2979,40.0,120,60,0.0,59.0
2980,52.0,0,60,0.0,69.0
2981,39.0,0,60,0.0,48.0
2982,51.0,120,60,0.0,58.0
2983,49.0,0,60,0.0,58.0
2984,37.0,120,60,0.0,48.0
2985,59.0,0,360,0.0,78.0
2986,56.0,0,360,0.0,66.0
2987,47.0,0,60,0.0,59.0
2988,35.0,120,60,0.0,49.0
2989,64.0,0,120,0.0,82.0
2990,56.0,0,120,0.0,69.0
2991,40.0,0,60,0.0,60.0
2992,52.0,120,60,0.0,71.0
2993,51.0,0,60,0.0,66.0
2994,39.0,120,60,0.0,55.0
2995,59.0,0,240,0.0,71.0
2996,56.0,0,240,0.0,71.0
2997,68.0,0,240,0.0,83.0
2998,37.0,0,60,0.0,50.0
2999,49.0,120,60,0.0,62.0
3000,47.0,0,60,0.0,63.0
3001,35.0,0,60,0.0,51.0
3002,63.0,0,120,0.0,80.0
3003,57.0,120,120,0.0,67.0
3004,52.0,0,60,0.0,73.0
3005,40.0,120,60,0.0,63.0
3006,39.0,120,60,0.0,51.0
3007,51.0,0,60,0.0,60.0
3008,56.0,0,240,0.0,68.0
3009,64.0,0,240,0.0,81.0
3010,49.0,0,60,0.0,60.0
3011,37.0,120,60,0.0,51.0
3012,35.0,120,60,0.0,52.0
3013,47.0,0,60,0.0,63.0
3014,68.0,0,240,0.0,83.0
3015,56.0,0,240,0.0,70.0
3016,64.0,0,240,0.0,70.0
3017,40.0,120,60,0.0,64.0
3018,52.0,0,60,0.0,75.0
3019,51.0,120,60,0.0,63.0
3020,39.0,0,60,0.0,52.0
3021,49.0,0,60,0.0,63.0
3022,37.0,120,60,0.0,52.0
3023,47.0,120,60,0.0,63.0
3024,35.0,0,60,0.0,52.0
3025,68.0,0,480,0.0,72.0
3026,71.0,0,480,0.0,85.0
3027,59.0,0,480,0.0,72.0
3028,52.0,0,60,0.0,78.0
3029,40.0,0,60,0.0,66.0
3030,73.0,120,120,0.0,77.0
3031,68.0,120,0,0.0,67.0
3032,61.0,0,120,0.0,65.0
3033,39.0,0,60,0.0,59.0
3034,51.0,0,60,0.0,71.0
3035,63.0,0,120,0.0,67.0
3036,75.0,0,120,0.0,79.0
3037,68.0,0,0,0.0,68.0
3038,37.0,0,60,0.0,55.0
3039,49.0,0,60,0.0,66.0
3040,76.0,0,120,0.0,81.0
3041,64.0,120,120,0.0,68.0
3042,35.0,0,60,0.0,55.0
3043,47.0,0,60,0.0,66.0
3044,66.0,0,120,0.0,71.0
3045,71.0,0,120,0.0,71.0
3046,78.0,120,120,0.0,85.0
3047,52.0,120,60,0.0,80.0
3048,40.0,0,60,0.0,67.0
3049,51.0,0,60,0.0,66.0
3050,39.0,120,60,0.0,56.0
3051,52.0,0,60,0.0,66.0
3052,40.0,120,60,0.0,56.0
3053,71.0,0,360,0.0,88.0
3054,50.0,0,60,0.0,67.0
3055,38.0,120,60,0.0,57.0
3056,76.0,0,480,0.0,74.0
3057,68.0,0,480,0.0,74.0
3058,80.0,0,480,0.0,88.0
3059,39.0,0,60,0.0,66.0
3060,51.0,0,60,0.0,77.0
3061,38.0,0,60,0.0,54.0
3062,50.0,120,60,0.0,65.0
3063,48.0,120,60,0.0,65.0
3064,36.0,0,60,0.0,54.0
3065,46.0,0,60,0.0,65.0
3066,34.0,120,60,0.0,54.0
3067,39.0,0,60,0.0,67.0
3068,51.0,120,60,0.0,79.0
3069,50.0,120,60,0.0,75.0
3070,38.0,0,60,0.0,62.0
3071,67.0,120,720,0.0,74.0
3072,79.0,0,720,0.0,88.0
3073,70.0,0,840,0.0,83.0
3074,75.0,0,720,0.0,74.0
3075,36.0,0,60,0.0,58.0
3076,48.0,0,60,0.0,69.0
3077,46.0,120,60,0.0,69.0
3078,34.0,0,60,0.0,58.0
3079,58.0,120,240,0.0,72.0
3080,67.0,0,0,0.0,76.0
3081,39.0,0,60,0.0,69.0
3082,51.0,0,60,0.0,84.0
3083,38.0,0,60,0.0,58.0
3084,50.0,120,60,0.0,68.0
3085,70.0,0,480,0.0,86.0
3086,63.0,0,240,0.0,76.0
3087,36.0,0,60,0.0,59.0
3088,48.0,120,60,0.0,70.0
3089,46.0,120,60,0.0,71.0
3090,34.0,0,60,0.0,61.0
3091,79.0,0,240,0.0,96.0
3092,67.0,0,240,0.0,81.0
3093,75.0,120,480,0.0,90.0
3094,70.0,0,0,0.0,85.0
3095,51.0,0,60,0.0,82.0
3096,39.0,0,60,0.0,71.0
3097,38.0,0,60,0.0,57.0
3098,50.0,120,60,0.0,68.0
3099,36.0,120,60,0.0,58.0
3100,48.0,0,60,0.0,69.0
3101,79.0,120,0,0.0,83.0
3102,82.0,120,360,0.0,101.0
3103,34.0,0,60,0.0,58.0
3104,46.0,0,60,0.0,69.0
3105,75.0,0,0,0.0,84.0
3106,79.0,0,0,0.0,100.0
3107,51.0,120,60,0.0,85.0
3108,39.0,0,60,0.0,72.0
3109,50.0,120,60,0.0,78.0
3110,38.0,0,60,0.0,64.0
3111,48.0,120,60,0.0,73.0
3112,36.0,0,60,0.0,60.0
3113,79.0,0,0,0.0,96.0
3114,75.0,0,0,0.0,81.0
3115,46.0,0,60,0.0,73.0
3116,34.0,120,60,0.0,60.0
3117,75.0,120,0,0.0,81.0
3118,67.0,0,120,0.0,81.0
3119,39.0,0,60,0.0,73.0
3120,51.0,0,60,0.0,87.0
3121,50.0,120,60,0.0,72.0
3122,38.0,0,60,0.0,60.0
3123,67.0,0,240,0.0,81.0
3124,87.0,0,840,0.0,99.0
3125,36.0,0,60,0.0,60.0
3126,48.0,0,60,0.0,72.0
3127,79.0,0,120,0.0,78.0
3128,84.0,0,120,0.0,92.0
3129,72.0,120,120,0.0,78.0
3130,46.0,120,60,0.0,74.0
3131,34.0,0,60,0.0,62.0
3132,51.0,0,60,0.0,84.0
3133,39.0,0,60,0.0,73.0
3134,38.0,120,60,0.0,59.0
3135,50.0,0,60,0.0,70.0
3136,48.0,120,60,0.0,70.0
3137,36.0,0,60,0.0,59.0
3138,46.0,0,60,0.0,71.0
3139,34.0,120,60,0.0,59.0
3140,82.0,120,480,0.0,102.0
3141,79.0,0,480,0.0,85.0
3142,70.0,0,480,0.0,85.0
3143,51.0,0,60,0.0,87.0
3144,39.0,120,60,0.0,74.0
3145,50.0,0,60,0.0,80.0
3146,38.0,120,60,0.0,66.0
3147,36.0,0,60,0.0,62.0
3148,58.0,0,60,0.0,83.0
3149,70.0,120,60,0.0,98.0
3150,48.0,0,60,0.0,74.0
3151,58.0,0,60,0.0,83.0
3152,70.0,120,60,0.0,98.0
3153,46.0,0,60,0.0,74.0
3154,34.0,0,60,0.0,62.0
3155,39.0,0,60,0.0,75.0
3156,51.0,0,60,0.0,89.0
3157,58.0,0,120,0.0,89.0
3158,70.0,0,120,0.0,106.0
3159,68.0,120,120,0.0,89.0
3160,50.0,0,60,0.0,74.0
3161,38.0,120,60,0.0,62.0
3162,48.0,0,60,0.0,74.0
3163,36.0,0,60,0.0,62.0
3164,70.0,0,120,0.0,86.0
3165,68.0,0,120,0.0,86.0
3166,65.0,120,120,0.0,86.0
3167,77.0,0,120,0.0,101.0
3168,34.0,0,60,0.0,63.0
3169,46.0,120,60,0.0,75.0
3170,39.0,0,60,0.0,76.0
3171,51.0,0,60,0.0,90.0
3172,63.0,120,120,0.0,94.0
3173,67.0,0,120,0.0,94.0
3174,75.0,0,120,0.0,111.0
3175,63.0,30,150,0.0,77.0
3176,59.0,0,180,0.0,74.0
3177,57.0,30,210,0.0,72.0
3178,51.0,150,0,0.0,72.0
3179,42.0,30,210,0.0,61.0
3180,47.0,0,180,0.0,63.0
3181,35.0,30,0,0.0,60.0
3182,63.0,0,150,0.0,81.0
3183,51.0,150,0,0.0,74.0
3184,57.0,0,210,0.0,75.0
3185,59.0,30,180,0.0,78.0
3186,47.0,30,180,0.0,66.0
3187,42.0,0,210,0.0,63.0
3188,63.0,30,150,0.0,83.0
3189,57.0,30,210,0.0,78.0
3190,59.0,30,180,0.0,80.0
3191,35.0,0,240,0.0,63.0
3192,47.0,0,180,0.0,69.0
3193,42.0,0,210,0.0,65.0
3194,63.0,30,150,0.0,86.0
3195,51.0,150,0,0.0,80.0
3196,57.0,30,210,0.0,80.0
3197,59.0,0,180,0.0,82.0
3198,47.0,0,180,0.0,71.0
3199,35.0,30,0,0.0,66.0
3200,42.0,30,210,0.0,68.0
3201,59.0,0,270,0.0,85.0
3202,57.0,0,300,0.0,83.0
3203,63.0,0,240,0.0,89.0
3204,42.0,30,270,0.0,70.0
3205,47.0,30,240,0.0,73.0
3206,64.0,240,120,0.0,99.0
3207,52.0,0,120,0.0,84.0
3208,56.0,0,120,0.0,84.0
3209,28.0,0,120,0.0,59.0
3210,40.0,0,120,0.0,70.0
3211,52.0,0,390,0.0,71.0
3212,47.0,30,420,0.0,67.0
3213,40.0,30,450,0.0,63.0
3214,59.0,0,450,0.0,83.0
3215,56.0,390,480,0.0,79.0
3216,68.0,30,390,0.0,93.0
3217,64.0,0,420,0.0,88.0
3218,68.0,0,390,0.0,92.0
3219,56.0,390,480,0.0,78.0
3220,59.0,0,450,0.0,82.0
3221,64.0,0,420,0.0,86.0
3222,52.0,30,390,0.0,71.0
3223,47.0,30,420,0.0,67.0
3224,40.0,30,450,0.0,63.0
3225,52.0,30,390,0.0,71.0
3226,40.0,0,450,0.0,63.0
3227,59.0,30,450,0.0,83.0
3228,47.0,30,420,0.0,67.0
3229,56.0,390,0,0.0,79.0
3230,68.0,0,390,0.0,93.0
3231,64.0,0,420,0.0,88.0
3232,64.0,0,420,0.0,88.0
3233,47.0,30,420,0.0,67.0
3234,40.0,30,450,0.0,63.0
3235,52.0,30,390,0.0,71.0
3236,68.0,0,390,0.0,93.0
3237,59.0,0,450,0.0,83.0
3238,59.0,30,540,0.0,83.0
3239,47.0,0,510,0.0,67.0
3240,64.0,0,0,0.0,83.0
3241,68.0,480,0,0.0,89.0
3242,56.0,0,0,0.0,73.0
3243,52.0,30,480,0.0,71.0
3244,40.0,0,540,0.0,63.0
3245,40.0,0,60,0.0,59.0
3246,47.0,0,60,0.0,59.0
3247,52.0,0,60,0.0,70.0
3248,59.0,0,60,0.0,73.0
3249,39.0,0,60,0.0,34.0
3250,51.0,120,60,0.0,40.0
3251,49.0,120,60,0.0,40.0
3252,37.0,0,60,0.0,34.0
3253,35.0,120,60,0.0,34.0
3254,47.0,0,60,0.0,40.0
3255,40.0,0,60,0.0,41.0
3256,52.0,120,60,0.0,49.0
3257,39.0,0,60,0.0,38.0
3258,51.0,120,60,0.0,45.0
3259,49.0,0,60,0.0,41.0
3260,37.0,120,60,0.0,34.0
3261,47.0,120,60,0.0,41.0
3262,35.0,0,60,0.0,34.0
3263,40.0,120,60,0.0,41.0
3264,52.0,0,60,0.0,49.0
3265,39.0,0,60,0.0,34.0
3266,51.0,120,60,0.0,40.0
3267,49.0,0,60,0.0,40.0
3268,37.0,120,60,0.0,34.0
3269,35.0,0,60,0.0,34.0
3270,47.0,120,60,0.0,40.0
3271,40.0,120,60,0.0,41.0
3272,52.0,0,60,0.0,49.0
3273,39.0,0,60,0.0,34.0
3274,51.0,120,60,0.0,40.0
3275,49.0,0,60,0.0,40.0
3276,37.0,120,60,0.0,34.0
3277,47.0,0,60,0.0,40.0
3278,35.0,120,60,0.0,34.0
3279,52.0,0,60,0.0,49.0
3280,40.0,120,60,0.0,41.0
3281,51.0,120,60,0.0,45.0
3282,39.0,0,60,0.0,38.0
3283,37.0,120,60,0.0,34.0
3284,49.0,0,60,0.0,41.0
3285,47.0,0,60,0.0,41.0
3286,35.0,120,60,0.0,34.0
3287,40.0,120,60,0.0,41.0
3288,52.0,0,60,0.0,49.0
3289,51.0,0,60,0.0,40.0
3290,39.0,120,60,0.0,34.0
3291,37.0,0,60,0.0,34.0
3292,49.0,120,60,0.0,40.0
3293,47.0,120,60,0.0,40.0
3294,35.0,0,60,0.0,34.0
3295,52.0,0,60,0.0,51.0
3296,40.0,0,60,0.0,43.0
3297,51.0,0,60,0.0,42.0
3298,39.0,120,60,0.0,35.0
3299,49.0,120,60,0.0,42.0
3300,37.0,0,60,0.0,35.0
3301,47.0,120,60,0.0,42.0
3302,35.0,0,60,0.0,35.0
3303,52.0,0,60,0.0,51.0
3304,40.0,120,60,0.0,43.0
3305,51.0,0,60,0.0,47.0
3306,39.0,120,60,0.0,39.0
3307,49.0,0,60,0.0,43.0
3308,37.0,120,60,0.0,35.0
3309,35.0,120,60,0.0,35.0
3310,47.0,0,60,0.0,43.0
3311,59.0,120,960,0.0,62.0
3312,56.0,0,960,0.0,52.0
3313,52.0,0,60,0.0,51.0
3314,40.0,0,60,0.0,43.0
3315,51.0,0,60,0.0,42.0
3316,39.0,120,60,0.0,35.0
3317,49.0,0,60,0.0,42.0
3318,37.0,120,60,0.0,36.0
3319,57.0,120,360,0.0,49.0
3320,59.0,0,0,0.0,60.0
3321,35.0,0,60,0.0,36.0
3322,47.0,0,60,0.0,42.0
3323,57.0,120,120,0.0,51.0
3324,52.0,0,60,0.0,51.0
3325,40.0,0,60,0.0,43.0
3326,51.0,0,60,0.0,42.0
3327,39.0,120,60,0.0,36.0
3328,49.0,0,60,0.0,42.0
3329,37.0,120,60,0.0,36.0
3330,56.0,120,360,0.0,51.0
3331,59.0,0,360,0.0,60.0
3332,47.0,0,60,0.0,42.0
3333,35.0,0,60,0.0,36.0
3334,56.0,120,120,0.0,49.0
3335,64.0,0,120,0.0,58.0
3336,40.0,0,60,0.0,43.0
3337,52.0,0,60,0.0,51.0
3338,51.0,120,60,0.0,47.0
3339,39.0,0,60,0.0,40.0
3340,37.0,120,60,0.0,36.0
3341,49.0,0,60,0.0,43.0
3342,47.0,0,60,0.0,43.0
3343,35.0,120,60,0.0,36.0
3344,68.0,120,480,0.0,64.0
3345,59.0,0,480,0.0,54.0
3346,56.0,0,480,0.0,54.0
3347,52.0,0,60,0.0,52.0
3348,40.0,120,60,0.0,43.0
3349,39.0,120,60,0.0,36.0
3350,51.0,0,60,0.0,42.0
3351,49.0,120,60,0.0,42.0
3352,37.0,0,60,0.0,36.0
3353,35.0,0,60,0.0,36.0
3354,47.0,120,60,0.0,42.0
3355,66.0,0,480,0.0,56.0
3356,59.0,0,480,0.0,47.0
3357,57.0,0,480,0.0,47.0
3358,40.0,0,60,0.0,43.0
3359,52.0,120,60,0.0,52.0
3360,51.0,0,60,0.0,42.0
3361,39.0,120,60,0.0,36.0
3362,37.0,0,60,0.0,36.0
3363,49.0,120,60,0.0,42.0
3364,56.0,0,0,0.0,48.0
3365,59.0,0,360,0.0,58.0
3366,47.0,120,60,0.0,42.0
3367,35.0,0,60,0.0,36.0
3368,64.0,0,120,0.0,57.0
3369,52.0,0,60,0.0,53.0
3370,40.0,120,60,0.0,44.0
3371,39.0,120,60,0.0,42.0
3372,51.0,0,60,0.0,49.0
3373,56.0,0,240,0.0,51.0
3374,68.0,0,240,0.0,61.0
3375,59.0,0,240,0.0,51.0
3376,37.0,0,60,0.0,37.0
3377,49.0,120,60,0.0,46.0
3378,47.0,0,60,0.0,46.0
3379,35.0,0,60,0.0,37.0
3380,63.0,120,120,0.0,56.0
3381,57.0,0,120,0.0,47.0
3382,40.0,0,60,0.0,46.0
3383,52.0,0,60,0.0,55.0
3384,39.0,120,60,0.0,38.0
3385,51.0,0,60,0.0,45.0
3386,64.0,0,0,0.0,49.0
3387,56.0,120,0,0.0,49.0
3388,49.0,0,60,0.0,46.0
3389,37.0,0,60,0.0,38.0
3390,47.0,0,60,0.0,46.0
3391,35.0,120,60,0.0,39.0
3392,68.0,0,0,0.0,54.0
3393,52.0,0,60,0.0,57.0
3394,40.0,0,60,0.0,48.0
3395,39.0,120,60,0.0,39.0
3396,51.0,0,60,0.0,47.0
3397,71.0,0,240,0.0,64.0
3398,59.0,120,240,0.0,54.0
3399,61.0,0,60,0.0,55.0
3400,73.0,0,60,0.0,65.0
3401,68.0,0,60,0.0,55.0
3402,49.0,0,60,0.0,47.0
3403,37.0,120,60,0.0,39.0
3404,63.0,120,60,0.0,56.0
3405,35.0,0,60,0.0,40.0
3406,47.0,0,60,0.0,47.0
3407,68.0,0,60,0.0,56.0
3408,75.0,0,60,0.0,67.0
3409,52.0,0,60,0.0,57.0
3410,40.0,120,60,0.0,49.0
3411,64.0,0,120,0.0,59.0
3412,68.0,0,120,0.0,59.0
3413,76.0,0,120,0.0,70.0
3414,51.0,0,60,0.0,53.0
3415,39.0,120,60,0.0,44.0
3416,37.0,0,60,0.0,40.0
3417,49.0,0,60,0.0,49.0
3418,68.0,120,120,0.0,53.0
3419,71.0,0,120,0.0,63.0
3420,59.0,0,120,0.0,53.0
3421,47.0,120,60,0.0,49.0
3422,35.0,0,60,0.0,40.0
3423,40.0,0,60,0.0,49.0
3424,52.0,120,60,0.0,57.0
3425,39.0,0,60,0.0,40.0
3426,51.0,120,60,0.0,47.0
3427,37.0,0,60,0.0,40.0
3428,49.0,120,60,0.0,47.0
3429,47.0,0,60,0.0,47.0
3430,35.0,120,60,0.0,40.0
3431,68.0,0,480,0.0,62.0
3432,71.0,0,480,0.0,62.0
3433,80.0,0,480,0.0,73.0
3434,52.0,0,60,0.0,57.0
3435,40.0,0,60,0.0,49.0
3436,51.0,0,60,0.0,48.0
3437,39.0,120,60,0.0,40.0
3438,37.0,0,60,0.0,40.0
3439,49.0,120,60,0.0,48.0
3440,47.0,120,60,0.0,48.0
3441,35.0,0,60,0.0,40.0
3442,52.0,0,60,0.0,58.0
3443,40.0,120,60,0.0,49.0
3444,39.0,120,60,0.0,45.0
3445,51.0,0,60,0.0,53.0
3446,69.0,0,720,0.0,56.0
3447,66.0,120,720,0.0,56.0
3448,59.0,120,0,0.0,57.0
3449,71.0,0,0,0.0,68.0
3450,37.0,0,60,0.0,40.0
3451,49.0,0,60,0.0,49.0
3452,69.0,0,60,0.0,57.0
3453,71.0,0,60,0.0,68.0
3454,69.0,0,60,0.0,57.0
3455,47.0,0,60,0.0,49.0
3456,35.0,0,60,0.0,40.0
3457,59.0,120,60,0.0,57.0
3458,52.0,0,60,0.0,58.0
3459,40.0,0,60,0.0,49.0
3460,71.0,0,120,0.0,70.0
3461,69.0,0,120,0.0,59.0
3462,59.0,120,120,0.0,59.0
3463,51.0,0,60,0.0,48.0
3464,39.0,120,60,0.0,40.0
3465,37.0,0,60,0.0,41.0
3466,49.0,0,60,0.0,48.0
3467,59.0,0,120,0.0,56.0
3468,69.0,120,120,0.0,56.0
3469,71.0,0,120,0.0,67.0
3470,47.0,0,60,0.0,48.0
3471,35.0,120,60,0.0,41.0
3472,40.0,0,60,0.0,49.0
3473,52.0,0,60,0.0,58.0
3474,39.0,120,60,0.0,41.0
3475,51.0,0,60,0.0,48.0
3476,37.0,0,60,0.0,41.0
3477,49.0,120,60,0.0,48.0
3478,68.0,0,360,0.0,61.0
3479,71.0,120,360,0.0,72.0
3480,59.0,0,360,0.0,61.0
3481,47.0,0,60,0.0,48.0
3482,35.0,0,60,0.0,41.0
3483,64.0,0,0,0.0,61.0
3484,76.0,0,0,0.0,72.0
3485,68.0,0,0,0.0,61.0
3486,40.0,120,60,0.0,49.0
3487,52.0,0,60,0.0,58.0
3488,51.0,120,60,0.0,54.0
3489,39.0,0,60,0.0,45.0
3490,37.0,0,60,0.0,41.0
3491,49.0,120,60,0.0,49.0
3492,47.0,120,60,0.0,49.0
3493,35.0,0,60,0.0,41.0
3494,64.0,0,0,0.0,56.0
3495,68.0,120,0,0.0,67.0
3496,40.0,0,60,0.0,50.0
3497,52.0,0,60,0.0,59.0
3498,51.0,0,60,0.0,49.0
3499,39.0,120,60,0.0,41.0
3500,37.0,120,60,0.0,41.0
3501,49.0,0,60,0.0,49.0
3502,47.0,0,60,0.0,49.0
3503,35.0,120,60,0.0,41.0
3504,59.0,0,480,0.0,56.0
3505,52.0,0,60,0.0,59.0
3506,40.0,120,60,0.0,50.0
3507,51.0,0,60,0.0,49.0
3508,39.0,120,60,0.0,41.0
3509,57.0,120,0,0.0,60.0
3510,59.0,0,240,0.0,62.0
3511,49.0,0,60,0.0,49.0
3512,37.0,0,60,0.0,41.0
3513,59.0,0,60,0.0,71.0
3514,57.0,0,60,0.0,60.0
3515,35.0,0,60,0.0,41.0
3516,59.0,0,60,0.0,71.0
3517,47.0,120,60,0.0,49.0
3518,52.0,0,60,0.0,59.0
3519,40.0,0,60,0.0,50.0
3520,57.0,0,120,0.0,62.0
3521,59.0,120,120,0.0,74.0
3522,39.0,120,60,0.0,45.0
3523,51.0,0,60,0.0,54.0
3524,66.0,0,720,0.0,73.0
3525,49.0,0,60,0.0,50.0
3526,37.0,120,60,0.0,41.0
3527,47.0,120,60,0.0,50.0
3528,35.0,0,60,0.0,41.0
3529,59.0,0,0,0.0,60.0
3530,57.0,0,0,0.0,60.0
3531,66.0,0,240,0.0,72.0
3532,52.0,0,60,0.0,59.0
3533,40.0,0,60,0.0,50.0
3534,68.0,120,60,0.0,71.0
3535,39.0,120,60,0.0,41.0
3536,57.0,0,60,0.0,59.0
3537,59.0,0,60,0.0,59.0
3538,66.0,0,60,0.0,70.0
3539,51.0,0,60,0.0,49.0
3540,57.0,0,60,0.0,58.0
3541,49.0,120,60,0.0,49.0
3542,37.0,0,60,0.0,41.0
3543,64.0,0,60,0.0,69.0
3544,59.0,0,60,0.0,58.0
3545,63.0,0,60,0.0,56.0
3546,57.0,0,60,0.0,56.0
3547,35.0,0,60,0.0,41.0
3548,59.0,120,60,0.0,56.0
3549,47.0,0,60,0.0,49.0
3550,66.0,0,60,0.0,67.0
3551,40.0,120,60,0.0,50.0
3552,52.0,0,60,0.0,59.0
3553,39.0,0,60,0.0,41.0
3554,51.0,120,60,0.0,49.0
3555,49.0,120,60,0.0,49.0
3556,37.0,0,60,0.0,41.0
3557,56.0,0,360,0.0,71.0
3558,47.0,0,60,0.0,49.0
3559,35.0,120,60,0.0,41.0
3560,61.0,0,120,0.0,69.0
3561,52.0,0,60,0.0,60.0
3562,40.0,0,60,0.0,51.0
3563,51.0,0,60,0.0,55.0
3564,39.0,120,60,0.0,46.0
3565,49.0,0,60,0.0,51.0
3566,37.0,120,60,0.0,42.0
3567,68.0,0,0,0.0,59.0
3568,64.0,0,840,0.0,60.0
3569,47.0,120,60,0.0,51.0
3570,35.0,0,60,0.0,42.0
3571,71.0,0,0,0.0,70.0
3572,68.0,0,0,0.0,59.0
3573,40.0,120,60,0.0,51.0
3574,52.0,0,60,0.0,60.0
3575,51.0,0,60,0.0,50.0
3576,39.0,120,60,0.0,42.0
3577,37.0,0,60,0.0,42.0
3578,49.0,120,60,0.0,50.0
3579,47.0,0,60,0.0,50.0
3580,35.0,120,60,0.0,42.0
3581,59.0,120,960,0.0,73.0
3582,52.0,0,60,0.0,60.0
3583,40.0,0,60,0.0,51.0
3584,51.0,120,60,0.0,50.0
3585,39.0,0,60,0.0,42.0
3586,49.0,120,60,0.0,50.0
3587,37.0,0,60,0.0,42.0
3588,47.0,0,60,0.0,50.0
3589,35.0,120,60,0.0,42.0
3590,40.0,120,60,0.0,51.0
3591,52.0,0,60,0.0,60.0
3592,51.0,0,60,0.0,56.0
3593,39.0,120,60,0.0,47.0
3594,56.0,0,720,0.0,61.0
3595,59.0,120,720,0.0,72.0
3596,55.0,120,60,0.0,60.0
3597,59.0,0,60,0.0,71.0
3598,49.0,0,60,0.0,51.0
3599,37.0,0,60,0.0,42.0
3600,56.0,0,60,0.0,60.0
3601,35.0,0,60,0.0,42.0
3602,59.0,120,60,0.0,71.0
3603,47.0,0,60,0.0,51.0
3604,52.0,0,60,0.0,62.0
3605,40.0,120,60,0.0,52.0
3606,59.0,0,120,0.0,73.0
3607,57.0,0,120,0.0,62.0
3608,51.0,120,60,0.0,52.0
3609,39.0,0,60,0.0,43.0
3610,57.0,0,60,0.0,59.0
3611,61.0,120,60,0.0,70.0
3612,49.0,0,60,0.0,52.0
3613,37.0,0,60,0.0,43.0
3614,35.0,0,60,0.0,44.0
3615,47.0,0,60,0.0,53.0
3616,63.0,120,60,0.0,73.0
3617,57.0,0,60,0.0,62.0
3618,52.0,0,60,0.0,64.0
3619,40.0,0,60,0.0,54.0
3620,51.0,0,60,0.0,54.0
3621,39.0,120,60,0.0,44.0
3622,49.0,120,60,0.0,54.0
3623,37.0,0,60,0.0,45.0
3624,56.0,120,0,0.0,61.0
3625,64.0,120,360,0.0,76.0
3626,35.0,0,60,0.0,46.0
3627,47.0,0,60,0.0,54.0
3628,59.0,0,120,0.0,61.0
3629,52.0,0,60,0.0,65.0
3630,40.0,120,60,0.0,55.0
3631,51.0,0,60,0.0,60.0
3632,39.0,120,60,0.0,50.0
3633,49.0,0,60,0.0,57.0
3634,37.0,120,60,0.0,46.0
3635,47.0,0,60,0.0,57.0
3636,35.0,120,60,0.0,46.0
3637,56.0,0,480,0.0,63.0
3638,59.0,0,480,0.0,63.0
3639,68.0,0,480,0.0,76.0
3640,40.0,0,60,0.0,57.0
3641,52.0,120,60,0.0,68.0
3642,39.0,0,60,0.0,46.0
3643,51.0,120,60,0.0,56.0
3644,37.0,0,60,0.0,47.0
3645,49.0,120,60,0.0,56.0
3646,35.0,0,60,0.0,48.0
3647,47.0,120,60,0.0,56.0
3648,66.0,0,480,0.0,76.0
3649,57.0,0,480,0.0,64.0
3650,59.0,0,0,0.0,78.0
3651,52.0,0,60,0.0,69.0
3652,40.0,0,60,0.0,59.0
3653,51.0,0,60,0.0,58.0
3654,39.0,120,60,0.0,48.0
3655,49.0,120,60,0.0,58.0
3656,37.0,0,60,0.0,48.0
3657,56.0,120,360,0.0,66.0
3658,47.0,0,60,0.0,59.0
3659,35.0,120,60,0.0,49.0
3660,64.0,0,120,0.0,82.0
3661,56.0,0,0,0.0,71.0
3662,52.0,0,60,0.0,71.0
3663,40.0,120,60,0.0,60.0
3664,39.0,120,60,0.0,55.0
3665,51.0,0,60,0.0,66.0
3666,68.0,0,240,0.0,83.0
3667,59.0,0,240,0.0,71.0
3668,49.0,120,60,0.0,62.0
3669,37.0,0,60,0.0,50.0
3670,35.0,0,60,0.0,51.0
3671,47.0,0,60,0.0,63.0
3672,63.0,0,120,0.0,80.0
3673,57.0,120,120,0.0,67.0
3674,40.0,0,60,0.0,63.0
3675,52.0,0,60,0.0,73.0
3676,51.0,120,60,0.0,60.0
3677,39.0,0,60,0.0,51.0
3678,56.0,0,240,0.0,68.0
3679,64.0,0,0,0.0,70.0
3680,37.0,0,60,0.0,51.0
3681,49.0,120,60,0.0,60.0
3682,35.0,0,60,0.0,52.0
3683,47.0,120,60,0.0,63.0
3684,56.0,0,240,0.0,70.0
3685,68.0,120,0,0.0,72.0
3686,40.0,0,60,0.0,64.0
3687,52.0,0,60,0.0,75.0
3688,39.0,0,60,0.0,52.0
3689,51.0,120,60,0.0,63.0
3690,37.0,0,60,0.0,52.0
3691,49.0,120,60,0.0,63.0
3692,35.0,0,60,0.0,52.0
3693,47.0,120,60,0.0,63.0
3694,71.0,0,480,0.0,85.0
3695,59.0,0,480,0.0,72.0
3696,68.0,0,0,0.0,65.0
3697,40.0,0,60,0.0,66.0
3698,52.0,0,60,0.0,78.0
3699,73.0,0,120,0.0,77.0
3700,61.0,120,120,0.0,65.0
3701,51.0,0,60,0.0,71.0
3702,39.0,0,60,0.0,59.0
3703,68.0,0,120,0.0,67.0
3704,63.0,120,120,0.0,67.0
3705,75.0,0,120,0.0,79.0
3706,37.0,120,60,0.0,55.0
3707,49.0,0,60,0.0,66.0
3708,68.0,0,120,0.0,68.0
3709,76.0,0,120,0.0,81.0
3710,64.0,0,120,0.0,68.0
3711,47.0,0,60,0.0,66.0
3712,35.0,120,60,0.0,55.0
3713,78.0,0,120,0.0,85.0
3714,71.0,0,120,0.0,71.0
3715,66.0,0,120,0.0,71.0
3716,52.0,0,60,0.0,80.0
3717,40.0,0,60,0.0,67.0
3718,51.0,0,60,0.0,66.0
3719,39.0,120,60,0.0,56.0
3720,52.0,0,60,0.0,66.0
3721,40.0,120,60,0.0,56.0
3722,71.0,120,360,0.0,88.0
3723,50.0,0,60,0.0,67.0
3724,38.0,120,60,0.0,57.0
3725,68.0,0,480,0.0,74.0
3726,80.0,0,480,0.0,88.0
3727,76.0,0,480,0.0,74.0
3728,51.0,0,60,0.0,77.0
3729,39.0,0,60,0.0,66.0
3730,38.0,0,60,0.0,54.0
3731,50.0,120,60,0.0,65.0
3732,48.0,120,60,0.0,65.0
3733,36.0,0,60,0.0,54.0
3734,46.0,0,60,0.0,65.0
3735,34.0,120,60,0.0,54.0
3736,51.0,0,60,0.0,79.0
3737,39.0,120,60,0.0,67.0
3738,50.0,0,60,0.0,75.0
3739,38.0,120,60,0.0,62.0
3740,79.0,120,720,0.0,88.0
3741,70.0,0,840,0.0,83.0
3742,67.0,0,720,0.0,74.0
3743,75.0,0,720,0.0,74.0
3744,48.0,120,60,0.0,69.0
3745,36.0,0,60,0.0,58.0
3746,34.0,120,60,0.0,58.0
3747,46.0,0,60,0.0,69.0
3748,67.0,0,0,0.0,76.0
3749,58.0,0,240,0.0,72.0
3750,51.0,0,60,0.0,84.0
3751,39.0,0,60,0.0,69.0
3752,38.0,120,60,0.0,58.0
3753,50.0,0,60,0.0,68.0
3754,63.0,120,240,0.0,76.0
3755,70.0,120,0,0.0,81.0
3756,67.0,0,0,0.0,81.0
3757,36.0,0,60,0.0,59.0
3758,48.0,0,60,0.0,70.0
3759,46.0,0,60,0.0,71.0
3760,34.0,120,60,0.0,61.0
3761,75.0,0,480,0.0,90.0
3762,79.0,0,0,0.0,85.0
3763,51.0,0,60,0.0,82.0
3764,39.0,120,60,0.0,71.0
3765,38.0,120,60,0.0,57.0
3766,50.0,0,60,0.0,68.0
3767,48.0,120,60,0.0,69.0
3768,36.0,0,60,0.0,58.0
3769,70.0,0,360,0.0,85.0
3770,82.0,0,360,0.0,101.0
3771,34.0,120,60,0.0,58.0
3772,46.0,0,60,0.0,69.0
3773,79.0,0,120,0.0,83.0
3774,75.0,0,120,0.0,83.0
3775,39.0,0,60,0.0,72.0
3776,51.0,120,60,0.0,85.0
3777,50.0,120,60,0.0,78.0
3778,38.0,0,60,0.0,64.0
3779,36.0,0,60,0.0,60.0
3780,48.0,120,60,0.0,73.0
3781,79.0,0,360,0.0,100.0
3782,75.0,0,0,0.0,81.0
3783,34.0,0,60,0.0,60.0
3784,46.0,120,60,0.0,73.0
3785,67.0,0,120,0.0,81.0
3786,51.0,120,60,0.0,87.0
3787,39.0,0,60,0.0,73.0
3788,38.0,0,60,0.0,60.0
3789,50.0,120,60,0.0,72.0
3790,79.0,0,360,0.0,96.0
3791,75.0,0,240,0.0,81.0
3792,87.0,0,840,0.0,99.0
3793,67.0,0,240,0.0,81.0
3794,48.0,0,60,0.0,72.0
3795,36.0,120,60,0.0,60.0
3796,79.0,0,120,0.0,78.0
3797,84.0,0,120,0.0,92.0
3798,72.0,0,120,0.0,78.0
3799,46.0,0,60,0.0,74.0
3800,34.0,120,60,0.0,62.0
3801,51.0,0,60,0.0,84.0
3802,39.0,120,60,0.0,73.0
3803,38.0,120,60,0.0,59.0
3804,50.0,0,60,0.0,70.0
3805,48.0,0,60,0.0,70.0
3806,36.0,120,60,0.0,59.0
3807,46.0,0,60,0.0,71.0
3808,34.0,120,60,0.0,59.0
3809,70.0,0,480,0.0,85.0
3810,79.0,0,480,0.0,85.0
3811,82.0,0,480,0.0,102.0
3812,51.0,0,60,0.0,87.0
3813,39.0,120,60,0.0,74.0
3814,50.0,0,60,0.0,80.0
3815,38.0,120,60,0.0,66.0
3816,36.0,0,60,0.0,62.0
3817,48.0,120,60,0.0,74.0
3818,58.0,0,60,0.0,83.0
3819,70.0,0,60,0.0,98.0
3820,70.0,0,60,0.0,98.0
3821,58.0,0,60,0.0,83.0
3822,46.0,120,60,0.0,74.0
3823,34.0,0,60,0.0,62.0
3824,51.0,0,60,0.0,89.0
3825,39.0,0,60,0.0,75.0
3826,70.0,0,120,0.0,106.0
3827,68.0,0,120,0.0,89.0
3828,58.0,120,120,0.0,89.0
3829,50.0,0,60,0.0,74.0
3830,38.0,120,60,0.0,62.0
3831,48.0,0,60,0.0,74.0
3832,36.0,0,60,0.0,62.0
3833,65.0,0,120,0.0,86.0
3834,77.0,0,120,0.0,101.0
3835,70.0,120,120,0.0,86.0
3836,68.0,0,120,0.0,86.0
3837,34.0,120,60,0.0,63.0
3838,46.0,0,60,0.0,75.0
3839,51.0,0,60,0.0,84.0
3840,39.0,0,60,0.0,76.0
3841,63.0,120,120,0.0,83.0
3842,67.0,0,120,0.0,94.0
3843,75.0,0,120,0.0,111.0
3844,75.0,240,60,0.0,93.0
3845,63.0,0,60,0.0,79.0
3846,51.0,0,60,0.0,76.0
3847,39.0,0,60,0.0,64.0
3848,63.0,0,60,0.0,75.0
3849,75.0,0,60,0.0,89.0
3850,51.0,120,60,0.0,69.0
3851,39.0,0,60,0.0,58.0
3852,52.0,240,0,0.0,72.0
3853,40.0,0,240,0.0,63.0
3854,75.0,0,240,0.0,96.0
3855,63.0,120,240,0.0,81.0
3856,40.0,0,60,0.0,61.0
3857,75.0,0,60,0.0,92.0
3858,63.0,0,60,0.0,78.0
3859,52.0,0,60,0.0,70.0
3860,40.0,120,60,0.0,59.0
3861,75.0,0,60,0.0,87.0
3862,63.0,0,60,0.0,73.0
3863,53.0,0,240,0.0,77.0
3864,41.0,120,240,0.0,65.0
3865,75.0,0,240,0.0,94.0
3866,63.0,0,240,0.0,79.0
3867,53.0,0,60,0.0,74.0
3868,41.0,240,60,0.0,62.0
3869,75.0,0,60,0.0,88.0
3870,63.0,0,60,0.0,74.0
3871,63.0,0,60,0.0,71.0
3872,53.0,120,60,0.0,71.0
3873,41.0,0,60,0.0,60.0
3874,75.0,0,60,0.0,84.0
3875,54.0,0,240,0.0,60.0
3876,42.0,0,240,0.0,51.0
3877,61.0,0,0,0.0,60.0
3878,63.0,240,0,0.0,65.0
3879,54.0,0,60,0.0,51.0
3880,61.0,0,60,0.0,60.0
3881,54.0,0,60,0.0,51.0
3882,63.0,120,60,0.0,64.0
3883,75.0,0,480,0.0,96.0
3884,61.0,0,240,0.0,60.0
3885,54.0,240,0,0.0,51.0
3886,63.0,0,240,0.0,64.0
3887,61.0,0,60,0.0,60.0
3888,63.0,0,60,0.0,64.0
3889,54.0,0,60,0.0,51.0
3890,63.0,0,60,0.0,63.0
3891,61.0,120,60,0.0,60.0
3892,70.0,120,480,0.0,84.0
3893,44.0,0,240,0.0,48.0
3894,51.0,0,240,0.0,48.0
3895,56.0,0,0,0.0,48.0
3896,60.0,0,0,0.0,57.0
3897,66.0,0,0,0.0,66.0
3898,72.0,120,240,0.0,81.0
3899,51.0,240,60,0.0,48.0
3900,66.0,0,0,0.0,64.0
3901,77.0,0,120,0.0,78.0
3902,51.0,0,60,0.0,48.0
3903,56.0,0,60,0.0,48.0
3904,60.0,120,60,0.0,57.0
3905,75.0,0,0,0.0,80.0
3906,60.0,0,240,0.0,62.0
3907,49.0,0,240,0.0,53.0
3908,73.0,120,120,0.0,76.0
3909,65.0,120,240,0.0,68.0
3910,56.0,120,0,0.0,48.0
3911,73.0,0,60,0.0,76.0
3912,65.0,0,60,0.0,64.0
3913,61.0,0,0,0.0,57.0
3914,49.0,0,120,0.0,48.0
3915,65.0,0,60,0.0,58.0
3916,72.0,0,60,0.0,70.0
3917,49.0,0,0,0.0,54.0
3918,56.0,120,120,0.0,48.0
3919,61.0,0,0,0.0,64.0
3920,65.0,120,240,0.0,62.0
3921,55.0,0,240,0.0,54.0
3922,61.0,0,0,0.0,60.0
3923,49.0,0,0,0.0,51.0
3924,55.0,120,0,0.0,51.0
3925,61.0,0,0,0.0,60.0
3926,65.0,0,0,0.0,63.0
3927,70.0,0,480,0.0,74.0
3928,55.0,0,0,0.0,54.0
3929,64.0,0,240,0.0,64.0
3930,60.0,120,240,0.0,64.0
3931,48.0,0,0,0.0,51.0
3932,55.0,0,0,0.0,51.0
3933,58.0,240,0,0.0,60.0
3934,60.0,0,120,0.0,64.0
3935,55.0,120,0,0.0,51.0
3936,64.0,0,0,0.0,63.0
3937,72.0,0,480,0.0,76.0
3938,60.0,0,0,0.0,68.0
3939,58.0,0,120,0.0,60.0
3940,48.0,0,120,0.0,51.0
3941,70.0,0,120,0.0,80.0
3942,53.0,120,0,0.0,48.0
3943,56.0,0,240,0.0,62.0
3944,65.0,0,240,0.0,68.0
3945,60.0,0,0,0.0,64.0
3946,68.0,0,0,0.0,76.0
3947,56.0,0,0,0.0,57.0
3948,67.0,120,60,0.0,70.0
3949,60.0,0,60,0.0,58.0
3950,51.0,0,120,0.0,48.0
3951,50.0,0,0,0.0,48.0
3952,56.0,240,0,0.0,57.0
3953,60.0,0,240,0.0,62.0
3954,56.0,120,0,0.0,57.0
3955,50.0,0,0,0.0,48.0
3956,60.0,0,120,0.0,59.0
3957,62.0,0,0,0.0,59.0
3958,50.0,0,0,0.0,54.0
3959,65.0,120,480,0.0,74.0
3960,60.0,0,120,0.0,59.0
3961,62.0,0,0,0.0,64.0
3962,55.0,120,240,0.0,64.0
3963,43.0,0,240,0.0,54.0
3964,59.0,0,0,0.0,60.0
3965,43.0,0,0,0.0,48.0
3966,50.0,120,0,0.0,48.0
3967,55.0,0,120,0.0,57.0
3968,62.0,0,120,0.0,60.0
3969,59.0,0,120,0.0,59.0
3970,62.0,0,120,0.0,59.0
3971,55.0,0,120,0.0,57.0
3972,67.0,0,480,0.0,76.0
3973,63.0,0,60,0.0,66.0
3974,65.0,60,60,0.0,66.0
3975,60.0,0,240,0.0,56.0
3976,63.0,60,120,0.0,73.0
3977,55.0,0,240,0.0,58.0
3978,48.0,120,240,0.0,50.0
3979,59.0,0,120,0.0,58.0
3980,62.0,0,120,0.0,69.0
3981,55.0,0,120,0.0,54.0
3982,48.0,0,0,0.0,45.0
3983,60.0,120,120,0.0,58.0
3984,63.0,0,120,0.0,70.0
3985,55.0,0,120,0.0,54.0
3986,65.0,0,60,0.0,66.0
3987,67.0,60,60,0.0,66.0
3988,65.0,60,120,0.0,73.0
3989,62.0,120,240,0.0,56.0
3990,46.0,0,240,0.0,50.0
3991,56.0,0,240,0.0,58.0
3992,46.0,120,0,0.0,45.0
3993,60.0,120,120,0.0,58.0
3994,63.0,0,120,0.0,69.0
3995,56.0,0,120,0.0,54.0
3996,62.0,0,120,0.0,70.0
3997,56.0,0,120,0.0,54.0
3998,65.0,0,120,0.0,70.0
3999,39.0,0,240,0.0,54.0
4000,46.0,0,0,0.0,48.0
4001,51.0,0,0,0.0,57.0
4002,63.0,240,0,0.0,60.0
4003,55.0,0,0,0.0,60.0
4004,46.0,0,0,0.0,48.0
4005,51.0,120,0,0.0,57.0
4006,39.0,0,0,0.0,48.0
4007,63.0,0,120,0.0,59.0
4008,67.0,0,0,0.0,60.0
4009,55.0,0,120,0.0,59.0
4010,35.0,120,240,0.0,51.0
4011,47.0,0,0,0.0,51.0
4012,65.0,0,0,0.0,65.0
4013,74.0,0,240,0.0,60.0
4014,67.0,0,0,0.0,65.0
4015,59.0,240,120,0.0,60.0
4016,55.0,120,0,0.0,51.0
4017,47.0,0,0,0.0,51.0
4018,67.0,0,0,0.0,64.0
4019,59.0,0,120,0.0,60.0
4020,47.0,0,0,0.0,51.0
4021,65.0,0,120,0.0,64.0
4022,79.0,0,480,0.0,96.0
4023,55.0,240,0,0.0,51.0
4024,65.0,0,0,0.0,64.0
4025,67.0,0,240,0.0,64.0
4026,47.0,0,0,0.0,51.0
4027,59.0,0,0,0.0,60.0
4028,67.0,0,120,0.0,64.0
4029,47.0,0,0,0.0,51.0
4030,67.0,120,120,0.0,63.0
4031,65.0,0,120,0.0,63.0
4032,59.0,0,120,0.0,60.0
4033,55.0,0,120,0.0,51.0
4034,74.0,0,480,0.0,84.0
4035,64.0,120,240,0.0,69.0
4036,70.0,0,240,0.0,69.0
4037,72.0,0,240,0.0,69.0
4038,55.0,0,0,0.0,48.0
4039,60.0,0,0,0.0,57.0
4040,48.0,0,0,0.0,48.0
4041,72.0,0,0,0.0,68.0
4042,64.0,0,120,0.0,66.0
4043,70.0,240,120,0.0,67.0
4044,55.0,120,120,0.0,48.0
4045,48.0,0,120,0.0,48.0
4046,60.0,0,120,0.0,57.0
4047,76.0,0,480,0.0,81.0
4048,70.0,0,120,0.0,68.0
4049,72.0,0,0,0.0,68.0
4050,64.0,120,0,0.0,62.0
4051,79.0,0,120,0.0,80.0
4052,60.0,0,240,0.0,53.0
4053,53.0,0,240,0.0,53.0
4054,77.0,120,120,0.0,76.0
4055,72.0,120,0,0.0,64.0
4056,68.0,0,0,0.0,64.0
4057,77.0,0,60,0.0,76.0
4058,60.0,120,0,0.0,48.0
4059,65.0,0,120,0.0,57.0
4060,53.0,0,0,0.0,48.0
4061,68.0,0,60,0.0,58.0
4062,72.0,0,60,0.0,58.0
4063,75.0,0,60,0.0,70.0
4064,65.0,0,120,0.0,57.0
4065,53.0,0,0,0.0,54.0
4066,62.0,0,240,0.0,64.0
4067,72.0,0,240,0.0,62.0
4068,60.0,0,240,0.0,54.0
4069,68.0,120,240,0.0,62.0
4070,65.0,0,0,0.0,63.0
4071,53.0,240,0,0.0,51.0
4072,62.0,0,120,0.0,60.0
4073,60.0,0,120,0.0,51.0
4074,65.0,0,0,0.0,63.0
4075,68.0,0,120,0.0,63.0
4076,72.0,0,120,0.0,63.0
4077,74.0,0,480,0.0,74.0
4078,72.0,0,120,0.0,63.0
4079,53.0,120,120,0.0,51.0
4080,68.0,0,120,0.0,63.0
4081,62.0,0,120,0.0,60.0
4082,60.0,0,0,0.0,54.0
4083,72.0,0,240,0.0,64.0
4084,70.0,0,0,0.0,64.0
4085,64.0,0,0,0.0,60.0
4086,60.0,0,0,0.0,51.0
4087,55.0,0,0,0.0,51.0
4088,70.0,0,0,0.0,63.0
4089,72.0,120,0,0.0,63.0
4090,55.0,0,120,0.0,51.0
4091,76.0,0,480,0.0,76.0
4092,60.0,0,120,0.0,51.0
4093,72.0,0,0,0.0,64.0
4094,64.0,0,0,0.0,58.0
4095,79.0,120,120,0.0,76.0
4096,68.0,0,0,0.0,60.0
4097,77.0,0,0,0.0,71.0
4098,60.0,0,240,0.0,50.0
4099,56.0,0,240,0.0,50.0
4100,72.0,0,0,0.0,60.0
4101,65.0,120,120,0.0,53.0
4102,60.0,0,120,0.0,45.0
4103,56.0,0,120,0.0,45.0
4104,68.0,0,60,0.0,52.0
4105,72.0,0,60,0.0,52.0
4106,75.0,0,60,0.0,64.0
4107,56.0,120,120,0.0,43.0
4108,60.0,0,0,0.0,47.0
4109,65.0,120,0,0.0,56.0
4110,75.0,0,120,0.0,72.0
4111,53.0,0,240,0.0,47.0
4112,60.0,0,0,0.0,49.0
4113,65.0,120,0,0.0,55.0
4114,68.0,0,0,0.0,55.0
4115,74.0,0,0,0.0,66.0
4116,53.0,120,0,0.0,42.0
4117,72.0,0,60,0.0,61.0
4118,68.0,0,60,0.0,50.0
4119,65.0,0,60,0.0,50.0
4120,60.0,0,0,0.0,53.0
4121,72.0,0,120,0.0,68.0
4122,56.0,0,240,0.0,45.0
4123,50.0,0,240,0.0,45.0
4124,70.0,120,120,0.0,64.0
4125,65.0,120,0,0.0,52.0
4126,70.0,0,60,0.0,63.0
4127,62.0,0,60,0.0,52.0
4128,60.0,0,120,0.0,47.0
4129,55.0,0,120,0.0,39.0
4130,50.0,0,0,0.0,39.0
4131,68.0,0,60,0.0,57.0
4132,65.0,0,60,0.0,47.0
4133,62.0,120,60,0.0,47.0
4134,60.0,0,120,0.0,47.0
4135,53.0,0,120,0.0,39.0
4136,50.0,0,0,0.0,43.0
4137,55.0,120,120,0.0,51.0
4138,43.0,0,120,0.0,43.0
4139,67.0,0,120,0.0,60.0
4140,62.0,0,120,0.0,51.0
4141,59.0,0,120,0.0,51.0
4142,63.0,0,120,0.0,51.0
4143,55.0,0,120,0.0,48.0
4144,60.0,120,0,0.0,50.0
4145,67.0,0,0,0.0,50.0
4146,43.0,0,0,0.0,40.0
4147,48.0,0,120,0.0,40.0
4148,57.0,0,120,0.0,50.0
4149,51.0,0,120,0.0,40.0
4150,55.0,0,0,0.0,51.0
4151,59.0,120,120,0.0,51.0
4152,62.0,0,120,0.0,51.0
4153,67.0,0,120,0.0,60.0
4154,43.0,0,120,0.0,43.0
4155,50.0,0,120,0.0,43.0
4156,67.0,0,120,0.0,51.0
4157,60.0,0,120,0.0,51.0
4158,63.0,0,120,0.0,51.0
4159,55.0,0,0,0.0,48.0
4160,48.0,0,120,0.0,40.0
4161,43.0,0,0,0.0,40.0
4162,57.0,120,120,0.0,50.0
4163,43.0,120,0,0.0,40.0
4164,51.0,0,120,0.0,40.0
4165,55.0,0,0,0.0,48.0
4166,60.0,0,120,0.0,50.0
4167,67.0,0,0,0.0,51.0
4168,50.0,0,120,0.0,40.0
4169,62.0,0,120,0.0,51.0
4170,59.0,0,120,0.0,51.0
4171,74.0,0,360,0.0,70.0
4172,62.0,120,0,0.0,48.0
4173,72.0,360,120,0.0,58.0
4174,71.0,0,120,0.0,57.0
4175,69.0,120,120,0.0,56.0
4176,68.0,0,120,0.0,54.0
4177,69.0,120,120,0.0,54.0
4178,62.0,0,0,0.0,44.0
4179,54.0,0,240,0.0,40.0
4180,60.0,120,240,0.0,48.0
4181,71.0,120,120,0.0,54.0
4182,50.0,0,240,0.0,37.0
4183,72.0,120,120,0.0,55.0
4184,73.0,0,120,0.0,55.0
4185,55.0,0,240,0.0,40.0
4186,74.0,120,120,0.0,55.0
4187,59.0,120,240,0.0,48.0
4188,79.0,0,120,0.0,61.0
4189,50.0,120,240,0.0,36.0
4190,76.0,120,120,0.0,54.0
4191,62.0,0,240,0.0,43.0
4192,38.0,120,120,0.0,70.0
4193,73.0,0,120,0.0,55.0
4194,74.0,120,120,0.0,57.0
4195,78.0,0,120,0.0,60.0
4196,62.0,120,240,0.0,43.0
4197,76.0,120,120,0.0,57.0
4198,50.0,0,240,0.0,36.0
4199,74.0,120,120,0.0,55.0
4200,57.0,0,240,0.0,40.0
4201,60.0,0,240,0.0,48.0
4202,72.0,120,120,0.0,55.0
4203,64.0,0,120,0.0,53.0
4204,50.0,0,240,0.0,36.0
4205,66.0,120,120,0.0,53.0
4206,62.0,120,240,0.0,43.0
4207,67.0,0,30,0.0,49.0
4208,69.0,30,30,0.0,49.0
4209,67.0,30,60,0.0,53.0
4210,66.0,60,120,0.0,53.0
4211,55.0,120,240,0.0,40.0
4212,59.0,0,240,0.0,48.0
4213,67.0,0,120,0.0,52.0
4214,62.0,120,240,0.0,44.0
4215,50.0,0,240,0.0,37.0
4216,68.0,120,120,0.0,53.0
4217,69.0,0,120,0.0,54.0
4218,78.0,120,120,0.0,60.0
4219,54.0,120,240,0.0,40.0
4220,57.0,0,240,0.0,48.0
4221,76.0,120,120,0.0,56.0
4222,50.0,0,240,0.0,36.0
4223,62.0,0,240,0.0,43.0
4224,74.0,120,120,0.0,54.0
4225,73.0,0,120,0.0,57.0
4226,78.0,120,120,0.0,56.0
4227,55.0,120,240,0.0,40.0
4228,58.0,0,240,0.0,48.0
4229,79.0,0,120,0.0,58.0
4230,81.0,120,120,0.0,60.0
4231,84.0,120,120,0.0,63.0
4232,50.0,0,480,0.0,40.0
4233,62.0,120,480,0.0,48.0
4234,82.0,120,120,0.0,60.0
4235,79.0,0,120,0.0,57.0
4236,62.0,120,240,0.0,47.0
4237,50.0,0,240,0.0,39.0
4238,73.0,120,120,0.0,53.0
4239,74.0,0,180,0.0,66.0
4240,76.0,180,60,0.0,54.0
4241,57.0,120,240,0.0,48.0
4242,54.0,0,240,0.0,40.0
4243,74.0,0,180,0.0,65.0
4244,62.0,0,240,0.0,43.0
4245,50.0,60,240,0.0,36.0
4246,75.0,180,60,0.0,55.0
4247,74.0,0,180,0.0,65.0
4248,76.0,180,60,0.0,55.0
4249,58.0,0,240,0.0,48.0
4250,55.0,60,240,0.0,40.0
4251,74.0,60,180,0.0,65.0
4252,50.0,0,240,0.0,36.0
4253,62.0,0,240,0.0,43.0
4254,75.0,180,60,0.0,55.0
4255,74.0,0,180,0.0,66.0
4256,56.0,0,240,0.0,40.0
4257,76.0,180,60,0.0,55.0
4258,59.0,60,240,0.0,48.0
4259,74.0,60,180,0.0,66.0
4260,62.0,0,240,0.0,43.0
4261,50.0,0,240,0.0,36.0
4262,75.0,180,60,0.0,54.0
4263,74.0,60,120,0.0,60.0
4264,72.0,120,120,0.0,58.0
4265,57.0,0,240,0.0,40.0
4266,60.0,0,240,0.0,44.0
4267,70.0,120,120,0.0,57.0
4268,69.0,120,120,0.0,53.0
4269,68.0,120,120,0.0,54.0
4270,50.0,0,0,0.0,37.0
4271,62.0,120,0,0.0,44.0
4272,69.0,120,120,0.0,54.0
4273,70.0,0,120,0.0,54.0
4274,72.0,120,120,0.0,55.0
4275,73.0,0,120,0.0,55.0
4276,55.0,120,240,0.0,40.0
4277,58.0,0,240,0.0,48.0
4278,74.0,120,120,0.0,55.0
4279,79.0,0,60,0.0,61.0
4280,78.0,120,60,0.0,59.0
4281,62.0,0,240,0.0,43.0
4282,50.0,120,240,0.0,36.0
4283,77.0,120,60,0.0,61.0
4284,38.0,0,120,0.0,70.0
4285,76.0,120,60,0.0,60.0
4286,75.0,120,60,0.0,58.0
4287,74.0,120,60,0.0,57.0
4288,62.0,0,240,0.0,43.0
4289,50.0,0,240,0.0,36.0
4290,73.0,120,120,0.0,55.0
4291,72.0,120,120,0.0,55.0
4292,54.0,0,240,0.0,40.0
4293,60.0,0,240,0.0,48.0
4294,69.0,120,120,0.0,53.0
4295,70.0,120,120,0.0,53.0
4296,50.0,0,240,0.0,36.0
4297,62.0,0,240,0.0,43.0
4298,67.0,120,30,0.0,49.0
4299,69.0,30,30,0.0,49.0
4300,67.0,30,60,0.0,53.0
4301,66.0,60,120,0.0,53.0
4302,55.0,0,240,0.0,40.0
4303,58.0,0,240,0.0,48.0
4304,67.0,120,120,0.0,52.0
4305,69.0,120,120,0.0,53.0
4306,50.0,0,240,0.0,37.0
4307,62.0,0,240,0.0,44.0
4308,70.0,0,120,0.0,63.0
4309,55.0,120,240,0.0,40.0
4310,82.0,120,120,0.0,64.0
4311,58.0,0,240,0.0,48.0
4312,81.0,0,120,0.0,60.0
4313,79.0,120,120,0.0,58.0
4314,81.0,120,120,0.0,66.0
4315,50.0,120,0,0.0,40.0
4316,63.0,120,480,0.0,43.0
4317,79.0,120,120,0.0,65.0
4318,77.0,0,120,0.0,63.0
4319,63.0,0,240,0.0,48.0
4320,75.0,120,120,0.0,60.0
4321,77.0,0,120,0.0,63.0
4322,58.0,120,240,0.0,47.0
4323,55.0,0,240,0.0,39.0
4324,75.0,120,120,0.0,60.0
4325,70.0,0,120,0.0,57.0
4326,50.0,120,240,0.0,39.0
4327,63.0,0,240,0.0,47.0
4328,72.0,120,120,0.0,53.0
4329,74.0,0,60,0.0,55.0
4330,75.0,60,60,0.0,51.0
4331,74.0,60,60,0.0,55.0
4332,54.0,0,240,0.0,35.0
4333,75.0,60,60,0.0,52.0
4334,62.0,0,240,0.0,42.0
4335,57.0,120,240,0.0,35.0
4336,74.0,60,60,0.0,55.0
4337,75.0,60,60,0.0,53.0
4338,74.0,60,40,0.0,55.0
4339,73.0,40,40,0.0,53.0
4340,50.0,0,240,0.0,43.0
4341,74.0,40,40,0.0,53.0
4342,75.0,0,60,0.0,57.0
4343,77.0,60,60,0.0,54.0
4344,75.0,60,60,0.0,58.0
4345,77.0,60,60,0.0,54.0
4346,58.0,0,240,0.0,37.0
4347,63.0,40,240,0.0,44.0
4348,55.0,0,240,0.0,37.0
4349,75.0,60,60,0.0,58.0
4350,77.0,60,60,0.0,55.0
4351,75.0,60,40,0.0,59.0
4352,74.0,40,40,0.0,56.0
4353,75.0,40,40,0.0,56.0
4354,49.0,0,240,0.0,45.0
4355,76.0,40,60,0.0,63.0
4356,77.0,60,60,0.0,57.0
4357,76.0,60,60,0.0,61.0
4358,58.0,0,240,0.0,39.0
4359,64.0,0,240,0.0,47.0
4360,77.0,60,60,0.0,57.0
4361,55.0,0,240,0.0,39.0
4362,76.0,60,60,0.0,64.0
4363,77.0,60,60,0.0,58.0
4364,76.0,60,40,0.0,64.0
4365,75.0,40,40,0.0,59.0
4366,76.0,40,40,0.0,59.0
4367,48.0,0,240,0.0,47.0
4368,77.0,40,120,0.0,60.0
4369,41.0,0,120,0.0,44.0
4370,75.0,120,120,0.0,58.0
4371,73.0,120,120,0.0,57.0
4372,72.0,120,120,0.0,56.0
4373,71.0,120,120,0.0,54.0
4374,53.0,0,0,0.0,37.0
4375,65.0,120,0,0.0,44.0
4376,72.0,120,120,0.0,54.0
4377,73.0,0,120,0.0,54.0
4378,75.0,120,120,0.0,55.0
4379,76.0,120,120,0.0,55.0
4380,77.0,120,120,0.0,55.0
4381,61.0,0,240,0.0,48.0
4382,58.0,0,240,0.0,40.0
4383,82.0,120,120,0.0,61.0
4384,53.0,0,240,0.0,36.0
4385,65.0,0,240,0.0,43.0
4386,81.0,120,120,0.0,59.0
4387,80.0,0,120,0.0,53.0
4388,29.0,120,120,0.0,61.0
4389,79.0,120,120,0.0,57.0
4390,78.0,0,120,0.0,60.0
4391,65.0,120,240,0.0,43.0
4392,53.0,0,240,0.0,36.0
4393,77.0,120,120,0.0,57.0
4394,76.0,0,120,0.0,55.0
4395,57.0,120,240,0.0,40.0
4396,63.0,0,240,0.0,48.0
4397,75.0,120,120,0.0,51.0
4398,73.0,0,120,0.0,53.0
4399,72.0,120,120,0.0,53.0
4400,65.0,120,240,0.0,43.0
4401,53.0,0,240,0.0,36.0
4402,70.0,0,30,0.0,49.0
4403,72.0,30,30,0.0,49.0
4404,70.0,30,60,0.0,53.0
4405,58.0,0,240,0.0,40.0
4406,69.0,60,120,0.0,53.0
4407,61.0,120,240,0.0,48.0
4408,70.0,120,120,0.0,52.0
4409,72.0,120,120,0.0,53.0
4410,65.0,0,240,0.0,44.0
4411,53.0,0,240,0.0,37.0
4412,73.0,0,120,0.0,58.0
4413,85.0,120,120,0.0,64.0
4414,58.0,120,240,0.0,40.0
4415,61.0,0,240,0.0,48.0
4416,84.0,0,120,0.0,60.0
4417,82.0,120,120,0.0,58.0
4418,84.0,120,120,0.0,66.0
4419,82.0,120,120,0.0,65.0
4420,53.0,120,480,0.0,36.0
4421,66.0,0,0,0.0,48.0
4422,80.0,120,120,0.0,63.0
4423,53.0,0,240,0.0,40.0
4424,78.0,120,120,0.0,60.0
4425,80.0,0,120,0.0,63.0
4426,78.0,120,120,0.0,60.0
4427,58.0,120,240,0.0,39.0
4428,61.0,0,240,0.0,47.0
4429,73.0,120,120,0.0,57.0
4430,53.0,0,240,0.0,39.0
4431,75.0,120,120,0.0,53.0
4432,66.0,0,240,0.0,47.0
4433,77.0,0,80,0.0,55.0
4434,78.0,80,80,0.0,52.0
4435,60.0,120,240,0.0,42.0
4436,77.0,80,80,0.0,52.0
4437,57.0,0,240,0.0,35.0
4438,76.0,0,80,0.0,55.0
4439,77.0,80,80,0.0,52.0
4440,65.0,80,240,0.0,43.0
4441,53.0,0,240,0.0,37.0
4442,78.0,80,80,0.0,53.0
4443,77.0,80,80,0.0,55.0
4444,78.0,80,80,0.0,55.0
4445,77.0,80,80,0.0,52.0
4446,58.0,0,240,0.0,37.0
4447,61.0,0,240,0.0,44.0
4448,76.0,80,80,0.0,56.0
4449,77.0,80,80,0.0,52.0
4450,78.0,80,80,0.0,52.0
4451,53.0,0,240,0.0,37.0
4452,65.0,0,240,0.0,45.0
4453,77.0,0,80,0.0,56.0
4454,78.0,80,80,0.0,52.0
4455,59.0,80,240,0.0,39.0
4456,62.0,0,240,0.0,47.0
4457,77.0,80,80,0.0,51.0
4458,76.0,0,80,0.0,56.0
4459,77.0,80,80,0.0,54.0
4460,78.0,80,80,0.0,54.0
4461,53.0,0,240,0.0,37.0
4462,65.0,80,240,0.0,47.0
4463,77.0,80,120,0.0,60.0
4464,60.0,0,240,0.0,40.0
4465,75.0,120,120,0.0,58.0
4466,63.0,0,240,0.0,44.0
4467,73.0,0,120,0.0,57.0
4468,72.0,120,120,0.0,56.0
4469,71.0,120,120,0.0,54.0
4470,72.0,120,120,0.0,54.0
4471,65.0,120,480,0.0,48.0
4472,53.0,0,480,0.0,37.0
4473,73.0,120,120,0.0,54.0
4474,75.0,120,120,0.0,55.0
4475,53.0,0,240,0.0,37.0
4476,65.0,0,240,0.0,44.0
4477,76.0,120,120,0.0,55.0
4478,58.0,0,240,0.0,40.0
4479,61.0,0,240,0.0,48.0
4480,77.0,120,120,0.0,55.0
4481,82.0,120,60,0.0,61.0
4482,65.0,0,240,0.0,43.0
4483,81.0,180,60,0.0,59.0
4484,53.0,0,240,0.0,36.0
4485,80.0,60,60,0.0,69.0
4486,29.0,0,120,0.0,61.0
4487,79.0,120,60,0.0,60.0
4488,78.0,120,60,0.0,58.0
4489,77.0,120,60,0.0,57.0
4490,65.0,0,240,0.0,43.0
4491,53.0,0,240,0.0,36.0
4492,76.0,0,120,0.0,55.0
4493,63.0,0,240,0.0,48.0
4494,57.0,120,240,0.0,40.0
4495,75.0,120,120,0.0,55.0
4496,72.0,0,120,0.0,53.0
4497,73.0,120,120,0.0,53.0
4498,65.0,0,240,0.0,43.0
4499,53.0,120,240,0.0,36.0
4500,70.0,120,30,0.0,49.0
4501,72.0,30,30,0.0,49.0
4502,70.0,30,60,0.0,53.0
4503,69.0,60,120,0.0,53.0
4504,58.0,0,240,0.0,40.0
4505,61.0,0,240,0.0,48.0
4506,70.0,120,120,0.0,52.0
4507,65.0,0,240,0.0,44.0
4508,53.0,0,240,0.0,37.0
4509,73.0,120,120,0.0,53.0
4510,72.0,120,120,0.0,67.0
4511,41.0,0,120,0.0,71.0
4512,70.0,120,120,0.0,58.0
4513,68.0,0,120,0.0,57.0
4514,67.0,120,120,0.0,56.0
4515,66.0,120,120,0.0,54.0
4516,48.0,0,0,0.0,37.0
4517,60.0,120,0,0.0,44.0
4518,67.0,120,120,0.0,54.0
4519,68.0,0,120,0.0,54.0
4520,70.0,120,120,0.0,55.0
4521,71.0,0,120,0.0,55.0
4522,53.0,0,240,0.0,40.0
4523,56.0,120,240,0.0,48.0
4524,72.0,120,120,0.0,67.0
4525,77.0,0,120,0.0,61.0
4526,73.0,120,120,0.0,59.0
4527,48.0,120,240,0.0,36.0
4528,60.0,0,240,0.0,43.0
4529,39.0,0,120,0.0,67.0
4530,72.0,120,120,0.0,66.0
4531,70.0,120,120,0.0,58.0
4532,68.0,120,120,0.0,57.0
4533,67.0,120,120,0.0,56.0
4534,66.0,120,120,0.0,54.0
4535,60.0,0,0,0.0,44.0
4536,48.0,120,0,0.0,37.0
4537,67.0,120,120,0.0,63.0
4538,72.0,0,120,0.0,67.0
4539,71.0,120,120,0.0,55.0
4540,37.0,0,120,0.0,68.0
4541,70.0,120,120,0.0,56.0
4542,68.0,120,120,0.0,55.0
4543,67.0,0,120,0.0,55.0
4544,65.0,120,120,0.0,54.0
4545,49.0,120,240,0.0,36.0
4546,60.0,0,240,0.0,43.0
4547,64.0,120,120,0.0,60.0
4548,36.0,0,120,0.0,69.0
4549,72.0,120,120,0.0,69.0
4550,70.0,0,120,0.0,57.0
4551,68.0,120,120,0.0,56.0
4552,66.0,120,120,0.0,54.0
4553,48.0,120,480,0.0,37.0
4554,60.0,120,0,0.0,44.0
4555,67.0,120,120,0.0,54.0
4556,68.0,0,120,0.0,54.0
4557,48.0,0,240,0.0,37.0
4558,70.0,120,120,0.0,55.0
4559,71.0,0,120,0.0,55.0
4560,56.0,0,240,0.0,48.0
4561,53.0,120,240,0.0,40.0
4562,72.0,120,120,0.0,69.0
4563,77.0,0,120,0.0,61.0
4564,73.0,120,120,0.0,59.0
4565,48.0,120,240,0.0,36.0
4566,60.0,0,240,0.0,43.0
4567,39.0,0,120,0.0,70.0
4568,72.0,120,120,0.0,68.0
4569,70.0,120,120,0.0,58.0
4570,68.0,0,120,0.0,57.0
4571,67.0,120,120,0.0,56.0
4572,66.0,120,120,0.0,54.0
4573,67.0,120,120,0.0,54.0
4574,60.0,120,480,0.0,48.0
4575,48.0,120,0,0.0,37.0
4576,72.0,0,120,0.0,64.0
4577,71.0,120,120,0.0,55.0
4578,60.0,0,240,0.0,44.0
4579,70.0,0,120,0.0,56.0
4580,37.0,120,120,0.0,72.0
4581,68.0,120,120,0.0,55.0
4582,67.0,0,120,0.0,55.0
4583,60.0,120,240,0.0,43.0
4584,49.0,0,240,0.0,36.0
4585,65.0,120,120,0.0,54.0
4586,64.0,0,120,0.0,60.0
4587,36.0,120,120,0.0,69.0
4588,72.0,120,120,0.0,65.0
4589,70.0,120,120,0.0,57.0
4590,68.0,120,120,0.0,56.0
4591,66.0,120,120,0.0,54.0
4592,67.0,120,120,0.0,54.0
4593,60.0,120,0,0.0,44.0
4594,48.0,0,480,0.0,37.0
4595,68.0,0,120,0.0,54.0
4596,48.0,0,240,0.0,37.0
4597,70.0,120,120,0.0,55.0
4598,71.0,0,120,0.0,55.0
4599,53.0,120,240,0.0,40.0
4600,72.0,120,120,0.0,69.0
4601,56.0,0,240,0.0,48.0
4602,75.0,120,120,0.0,61.0
4603,48.0,0,240,0.0,36.0
4604,60.0,0,240,0.0,43.0
4605,73.0,120,120,0.0,59.0
4606,72.0,0,120,0.0,70.0
4607,51.0,0,240,0.0,40.0
4608,55.0,120,240,0.0,55.0
4609,70.0,120,120,0.0,58.0
4610,68.0,0,120,0.0,57.0
4611,67.0,120,120,0.0,56.0
4612,66.0,120,120,0.0,51.0
4613,67.0,120,120,0.0,52.0
4614,60.0,120,480,0.0,48.0
4615,48.0,0,480,0.0,37.0
4616,68.0,120,120,0.0,53.0
4617,60.0,0,240,0.0,44.0
4618,48.0,0,240,0.0,37.0
4619,70.0,120,120,0.0,55.0
4620,71.0,0,120,0.0,56.0
4621,72.0,120,120,0.0,68.0
4622,49.0,120,240,0.0,40.0
4623,53.0,0,240,0.0,48.0
4624,73.0,120,120,0.0,57.0
4625,60.0,0,240,0.0,43.0
4626,71.0,120,120,0.0,54.0
4627,48.0,0,240,0.0,36.0
4628,72.0,120,120,0.0,69.0
4629,70.0,120,120,0.0,58.0
4630,52.0,0,240,0.0,55.0
4631,68.0,0,120,0.0,57.0
4632,67.0,120,120,0.0,56.0
4633,66.0,120,120,0.0,51.0
4634,67.0,120,120,0.0,52.0
4635,60.0,0,480,0.0,48.0
4636,48.0,120,480,0.0,37.0
4637,68.0,120,120,0.0,53.0
4638,60.0,0,240,0.0,44.0
4639,70.0,120,120,0.0,55.0
4640,48.0,0,240,0.0,37.0
4641,71.0,0,120,0.0,56.0
4642,53.0,120,240,0.0,40.0
4643,72.0,120,120,0.0,70.0
4644,56.0,0,240,0.0,48.0
4645,75.0,0,120,0.0,57.0
4646,60.0,120,240,0.0,43.0
4647,48.0,0,240,0.0,36.0
4648,73.0,120,120,0.0,54.0
4649,72.0,0,120,0.0,69.0
4650,51.0,0,240,0.0,40.0
4651,55.0,120,240,0.0,55.0
4652,70.0,120,120,0.0,58.0
4653,68.0,0,120,0.0,57.0
4654,67.0,120,120,0.0,56.0
4655,66.0,120,120,0.0,51.0
4656,48.0,120,480,0.0,37.0
4657,67.0,120,120,0.0,52.0
4658,60.0,0,0,0.0,44.0
4659,68.0,120,120,0.0,53.0
4660,70.0,120,120,0.0,55.0
4661,48.0,0,240,0.0,37.0
4662,71.0,0,120,0.0,56.0
4663,72.0,120,120,0.0,70.0
4664,53.0,120,240,0.0,48.0
4665,49.0,0,240,0.0,40.0
4666,73.0,120,120,0.0,57.0
4667,71.0,120,120,0.0,54.0
4668,72.0,120,120,0.0,70.0
4669,60.0,0,480,0.0,43.0
4670,70.0,120,120,0.0,62.0
4671,52.0,0,240,0.0,48.0
4672,48.0,0,480,0.0,36.0
4673,68.0,120,120,0.0,59.0
4674,67.0,120,120,0.0,57.0
4675,54.0,0,120,0.0,50.0
4676,66.0,120,120,0.0,59.0
4677,67.0,120,120,0.0,59.0
4678,55.0,0,120,0.0,50.0
4679,56.0,0,120,0.0,54.0
4680,68.0,120,120,0.0,63.0
4681,70.0,120,120,0.0,67.0
4682,58.0,0,120,0.0,56.0
4683,56.0,0,120,0.0,56.0
4684,68.0,120,120,0.0,66.0
4685,67.0,0,120,0.0,64.0
4686,55.0,120,120,0.0,55.0
4687,53.0,120,120,0.0,53.0
4688,65.0,0,120,0.0,63.0
4689,64.0,0,120,0.0,63.0
4690,52.0,120,120,0.0,53.0
4691,51.0,0,120,0.0,49.0
4692,63.0,120,120,0.0,59.0
4693,64.0,120,120,0.0,61.0
4694,52.0,0,120,0.0,51.0
4695,53.0,0,120,0.0,53.0
4696,65.0,120,120,0.0,63.0
4697,55.0,120,120,0.0,55.0
4698,67.0,0,120,0.0,65.0
4699,55.0,0,120,0.0,56.0
4700,49.0,120,240,0.0,62.0
4701,67.0,120,120,0.0,66.0
4702,61.0,0,240,0.0,74.0
4703,60.0,120,240,0.0,71.0
4704,67.0,120,120,0.0,63.0
4705,48.0,0,240,0.0,60.0
4706,55.0,0,120,0.0,53.0
4707,47.0,0,120,0.0,51.0
4708,59.0,120,120,0.0,60.0
4709,60.0,0,120,0.0,63.0
4710,48.0,120,120,0.0,53.0
4711,49.0,120,120,0.0,54.0
4712,61.0,0,120,0.0,65.0
4713,51.0,120,120,0.0,57.0
4714,63.0,0,120,0.0,68.0
4715,49.0,120,120,0.0,60.0
4716,61.0,0,120,0.0,70.0
4717,60.0,0,120,0.0,68.0
4718,48.0,120,120,0.0,58.0
4719,58.0,0,120,0.0,67.0
4720,46.0,120,120,0.0,56.0
4721,56.0,120,120,0.0,65.0
4722,44.0,0,120,0.0,55.0
4723,60.0,120,120,0.0,69.0
4724,48.0,0,120,0.0,58.0
4725,46.0,120,120,0.0,58.0
4726,43.0,0,360,0.0,64.0
4727,58.0,0,120,0.0,70.0
4728,55.0,120,360,0.0,76.0
4729,54.0,0,120,0.0,70.0
4730,42.0,120,120,0.0,59.0
4731,60.0,120,120,0.0,70.0
4732,48.0,0,120,0.0,58.0
4733,58.0,120,120,0.0,70.0
4734,41.0,0,360,0.0,62.0
4735,46.0,0,120,0.0,58.0
4736,53.0,120,360,0.0,73.0
4737,40.0,120,120,0.0,59.0
4738,52.0,0,120,0.0,70.0
4739,44.0,120,120,0.0,60.0
4740,56.0,0,120,0.0,72.0
4741,39.0,120,360,0.0,66.0
4742,55.0,0,120,0.0,74.0
4743,51.0,0,360,0.0,79.0
4744,43.0,120,120,0.0,61.0
4745,51.0,0,120,0.0,75.0
4746,39.0,120,120,0.0,63.0
4747,43.0,120,120,0.0,65.0
4748,55.0,0,120,0.0,78.0
4749,53.0,0,120,0.0,81.0
4750,49.0,0,360,0.0,82.0
4751,37.0,120,0,0.0,68.0
4752,41.0,120,120,0.0,68.0
4753,49.0,0,120,0.0,82.0
4754,36.0,0,240,0.0,74.0
4755,39.0,0,120,0.0,70.0
4756,48.0,120,240,0.0,88.0
4757,51.0,120,120,0.0,82.0
4758,34.0,120,240,0.0,71.0
4759,39.0,120,120,0.0,73.0
4760,51.0,0,120,0.0,86.0
4761,46.0,0,240,0.0,84.0
4762,44.0,120,120,0.0,84.0
4763,32.0,0,120,0.0,70.0
4764,89.0,0,360,0.0,102.0
4765,85.0,0,360,0.0,88.0
4766,77.0,0,360,0.0,82.0
4767,60.0,240,240,0.0,67.0
4768,51.0,0,240,0.0,67.0
4769,63.0,0,240,0.0,79.0
4770,75.0,0,120,0.0,79.0
4771,84.0,120,120,0.0,79.0
4772,87.0,0,0,0.0,93.0
4773,68.0,120,240,0.0,77.0
4774,60.0,0,240,0.0,77.0
4775,56.0,0,240,0.0,64.0
4776,63.0,180,60,0.0,71.0
4777,63.0,0,48,0.0,71.0
4778,51.0,60,60,0.0,85.0
4779,39.0,0,60,0.0,72.0
4780,65.0,48,48,0.0,71.0
4781,63.0,48,48,0.0,71.0
4782,62.0,48,48,0.0,71.0
4783,75.0,0,480,0.0,79.0
4784,63.0,48,48,0.0,71.0
4785,84.0,0,480,0.0,79.0
4786,44.0,0,120,0.0,73.0
4787,56.0,0,120,0.0,86.0
4788,68.0,48,240,0.0,87.0
4789,72.0,0,120,0.0,74.0
4790,84.0,240,120,0.0,88.0
4791,80.0,0,120,0.0,74.0
4792,73.0,120,120,0.0,73.0
4793,39.0,0,240,0.0,73.0
4794,27.0,0,240,0.0,61.0
4795,82.0,0,120,0.0,73.0
4796,85.0,0,0,0.0,79.0
4797,77.0,0,120,0.0,79.0
4798,89.0,0,120,0.0,93.0
4799,32.0,120,240,0.0,67.0
4800,44.0,0,240,0.0,79.0
4801,75.0,180,60,0.0,74.0
4802,87.0,0,0,0.0,93.0
4803,84.0,0,60,0.0,74.0
4804,84.0,0,120,0.0,74.0
4805,75.0,0,120,0.0,74.0
4806,60.0,60,240,0.0,61.0
4807,63.0,0,240,0.0,73.0
4808,51.0,0,240,0.0,61.0
4809,83.0,120,120,0.0,74.0
4810,86.0,0,120,0.0,88.0
4811,74.0,0,120,0.0,74.0
4812,60.0,0,240,0.0,75.0
4813,56.0,0,240,0.0,63.0
4814,63.0,0,0,0.0,70.0
4815,68.0,120,240,0.0,75.0
4816,51.0,60,60,0.0,80.0
4817,39.0,0,60,0.0,67.0
4818,65.0,48,48,0.0,70.0
4819,63.0,48,48,0.0,70.0
4820,62.0,48,48,0.0,70.0
4821,84.0,0,480,0.0,74.0
4822,87.0,0,480,0.0,88.0
4823,63.0,48,48,0.0,70.0
4824,75.0,0,480,0.0,74.0
4825,56.0,0,120,0.0,86.0
4826,44.0,0,120,0.0,73.0
4827,68.0,48,240,0.0,87.0
4828,80.0,0,120,0.0,74.0
4829,72.0,240,120,0.0,74.0
4830,84.0,0,120,0.0,88.0
4831,39.0,0,240,0.0,73.0
4832,27.0,0,240,0.0,61.0
4833,85.0,0,0,0.0,79.0
4834,73.0,0,120,0.0,73.0
4835,82.0,0,120,0.0,73.0
4836,77.0,0,120,0.0,79.0
4837,89.0,0,120,0.0,93.0
4838,87.0,0,120,0.0,88.0
4839,44.0,0,240,0.0,79.0
4840,89.0,60,60,0.0,81.0
4841,32.0,120,240,0.0,67.0
4842,87.0,0,120,0.0,93.0
4843,75.0,120,240,0.0,74.0
4844,84.0,0,240,0.0,74.0
4845,83.0,0,120,0.0,74.0
4846,86.0,0,120,0.0,88.0
4847,74.0,120,120,0.0,74.0
4848,63.0,0,240,0.0,73.0
4849,51.0,60,240,0.0,61.0
4850,60.0,0,0,0.0,75.0
4851,77.0,120,120,0.0,79.0
4852,85.0,0,120,0.0,79.0
4853,89.0,0,120,0.0,93.0
4854,56.0,0,240,0.0,63.0
4855,68.0,0,240,0.0,75.0
4856,89.0,60,60,0.0,81.0
4857,87.0,0,0,0.0,93.0
4858,39.0,0,120,0.0,61.0
4859,51.0,60,120,0.0,73.0
4860,75.0,0,240,0.0,74.0
4861,84.0,0,240,0.0,74.0
4862,83.0,0,120,0.0,74.0
4863,74.0,120,120,0.0,74.0
4864,86.0,0,120,0.0,88.0
4865,56.0,0,120,0.0,77.0
4866,44.0,0,120,0.0,64.0
4867,75.0,120,180,0.0,74.0
4868,84.0,0,180,0.0,74.0
4869,87.0,0,180,0.0,88.0
4870,54.0,0,150,0.0,74.0
4871,46.0,0,180,0.0,62.0
4872,39.0,180,210,0.0,62.0
4873,75.0,0,240,0.0,72.0
4874,82.0,30,210,0.0,72.0
4875,90.0,30,180,0.0,85.0
4876,57.0,0,150,0.0,74.0
4877,51.0,30,180,0.0,74.0
4878,41.0,150,240,0.0,62.0
4879,75.0,30,240,0.0,70.0
4880,81.0,0,210,0.0,70.0
4881,89.0,30,180,0.0,83.0
4882,48.0,0,300,0.0,62.0
4883,53.0,0,240,0.0,61.0
4884,63.0,30,180,0.0,73.0
4885,69.0,0,150,0.0,73.0
4886,60.0,30,210,0.0,61.0
4887,72.0,150,270,0.0,70.0
4888,75.0,0,240,0.0,70.0
4889,77.0,0,210,0.0,70.0
4890,84.0,30,180,0.0,83.0
4891,77.0,0,210,0.0,70.0
4892,70.0,0,240,0.0,70.0
4893,85.0,0,180,0.0,83.0
4894,53.0,30,270,0.0,75.0
4895,46.0,180,300,0.0,63.0
4896,61.0,30,240,0.0,75.0
4897,78.0,0,80,0.0,80.0
4898,66.0,80,80,0.0,80.0
4899,54.0,240,240,0.0,71.0
4900,42.0,0,240,0.0,60.0
4901,78.0,80,80,0.0,80.0
4902,41.0,0,240,0.0,60.0
4903,53.0,0,240,0.0,71.0
4904,77.0,0,240,0.0,84.0
4905,65.0,80,240,0.0,71.0
4906,61.0,0,240,0.0,74.0
4907,73.0,240,240,0.0,79.0
4908,49.0,0,240,0.0,69.0
4909,37.0,0,240,0.0,58.0
4910,46.0,0,120,0.0,79.0
4911,34.0,0,120,0.0,67.0
4912,90.0,240,360,0.0,97.0
4913,87.0,0,360,0.0,82.0
4914,78.0,0,360,0.0,82.0
4915,85.0,0,120,0.0,79.0
4916,77.0,120,120,0.0,79.0
4917,65.0,240,240,0.0,79.0
4918,53.0,0,240,0.0,67.0
4919,61.0,0,240,0.0,79.0
4920,89.0,0,0,0.0,93.0
4921,61.0,0,240,0.0,77.0
4922,65.0,60,0,0.0,71.0
4923,58.0,0,240,0.0,64.0
4924,70.0,0,240,0.0,77.0
4925,53.0,0,60,0.0,85.0
4926,41.0,0,60,0.0,72.0
4927,66.0,48,48,0.0,71.0
4928,65.0,48,48,0.0,71.0
4929,64.0,48,48,0.0,71.0
4930,65.0,48,48,0.0,71.0
4931,85.0,0,480,0.0,79.0
4932,77.0,120,480,0.0,79.0
4933,46.0,0,120,0.0,73.0
4934,58.0,48,120,0.0,86.0
4935,70.0,0,240,0.0,87.0
4936,85.0,0,120,0.0,88.0
4937,73.0,0,120,0.0,74.0
4938,82.0,240,120,0.0,74.0
4939,87.0,0,120,0.0,86.0
4940,84.0,120,120,0.0,73.0
4941,75.0,0,120,0.0,73.0
4942,29.0,0,240,0.0,61.0
4943,41.0,0,240,0.0,73.0
4944,90.0,0,120,0.0,93.0
4945,78.0,0,120,0.0,79.0
4946,87.0,0,120,0.0,79.0
4947,34.0,120,240,0.0,67.0
4948,85.0,180,60,0.0,74.0
4949,77.0,0,0,0.0,74.0
4950,89.0,0,0,0.0,93.0
4951,46.0,0,240,0.0,79.0
4952,85.0,0,120,0.0,74.0
4953,76.0,0,120,0.0,74.0
4954,65.0,0,240,0.0,73.0
4955,61.0,0,240,0.0,61.0
4956,53.0,60,240,0.0,61.0
4957,84.0,120,120,0.0,74.0
4958,88.0,0,120,0.0,88.0
4959,70.0,0,240,0.0,75.0
4960,61.0,0,240,0.0,75.0
4961,65.0,180,60,0.0,71.0
4962,58.0,0,240,0.0,63.0
4963,65.0,0,48,0.0,71.0
4964,53.0,0,60,0.0,80.0
4965,41.0,60,60,0.0,67.0
4966,66.0,48,48,0.0,71.0
4967,65.0,48,48,0.0,71.0
4968,64.0,48,48,0.0,71.0
4969,65.0,48,48,0.0,71.0
4970,89.0,0,480,0.0,88.0
4971,85.0,0,480,0.0,74.0
4972,77.0,120,480,0.0,88.0
4973,46.0,0,120,0.0,73.0
4974,58.0,48,120,0.0,86.0
4975,70.0,0,240,0.0,87.0
4976,85.0,0,120,0.0,81.0
4977,91.0,0,120,0.0,96.0
4978,79.0,240,120,0.0,81.0
4979,34.0,0,240,0.0,61.0
4980,80.0,120,120,0.0,80.0
4981,92.0,0,120,0.0,94.0
4982,46.0,0,240,0.0,73.0
4983,96.0,0,120,0.0,101.0
4984,84.0,0,120,0.0,85.0
4985,39.0,120,120,0.0,79.0
4986,27.0,0,120,0.0,67.0
4987,91.0,120,120,0.0,88.0
4988,87.0,0,120,0.0,74.0
4989,96.0,0,120,0.0,93.0
4990,84.0,0,120,0.0,79.0
4991,72.0,0,120,0.0,72.0
4992,67.0,0,240,0.0,60.0
4993,61.0,0,240,0.0,60.0
4994,63.0,120,240,0.0,60.0
4995,94.0,60,60,0.0,92.0
4996,82.0,0,0,0.0,81.0
4997,70.0,120,120,0.0,70.0
4998,51.0,60,120,0.0,75.0
4999,94.0,0,120,0.0,97.0
5000,84.0,0,120,0.0,70.0
5001,87.0,120,120,0.0,84.0
5002,94.0,120,120,0.0,90.0
5003,82.0,0,120,0.0,75.0
5004,70.0,0,120,0.0,72.0
5005,60.0,0,240,0.0,58.0
5006,63.0,0,240,0.0,69.0
5007,68.0,120,120,0.0,70.0
5008,80.0,0,0,0.0,79.0
5009,92.0,0,60,0.0,80.0
5010,92.0,0,120,0.0,93.0
5011,51.0,60,120,0.0,73.0
5012,82.0,120,120,0.0,67.0
5013,87.0,0,120,0.0,79.0
5014,80.0,0,120,0.0,74.0
5015,92.0,0,120,0.0,88.0
5016,68.0,120,120,0.0,72.0
5017,63.0,0,240,0.0,67.0
5018,67.0,120,120,0.0,70.0
5019,58.0,0,240,0.0,56.0
5020,91.0,60,60,0.0,79.0
5021,79.0,0,0,0.0,75.0
5022,91.0,0,120,0.0,90.0
5023,46.0,60,120,0.0,70.0
5024,82.0,120,120,0.0,66.0
5025,86.0,0,120,0.0,78.0
5026,67.0,0,120,0.0,72.0
5027,79.0,120,120,0.0,72.0
5028,91.0,0,120,0.0,85.0
5029,58.0,0,240,0.0,55.0
5030,77.0,60,0,0.0,73.0
5031,65.0,120,120,0.0,70.0
5032,89.0,60,60,0.0,81.0
5033,56.0,0,240,0.0,55.0
5034,62.0,0,240,0.0,66.0
5035,51.0,0,120,0.0,72.0
5036,89.0,0,120,0.0,88.0
5037,82.0,0,120,0.0,75.0
5038,79.0,120,120,0.0,64.0
5039,65.0,0,120,0.0,72.0
5040,77.0,0,120,0.0,69.0
5041,89.0,0,120,0.0,82.0
5042,75.0,60,60,0.0,64.0
5043,55.0,0,240,0.0,57.0
5044,58.0,120,240,0.0,68.0
5045,63.0,120,120,0.0,70.0
5046,87.0,0,60,0.0,75.0
5047,85.0,0,120,0.0,90.0
5048,73.0,60,120,0.0,75.0
5049,80.0,120,120,0.0,75.0
5050,41.0,0,240,0.0,62.0
5051,77.0,0,120,0.0,64.0
5052,61.0,120,120,0.0,72.0
5053,73.0,0,120,0.0,70.0
5054,85.0,0,120,0.0,84.0
5055,84.0,0,60,0.0,74.0
5056,72.0,60,60,0.0,63.0
5057,53.0,0,480,0.0,74.0
5058,56.0,0,240,0.0,68.0
5059,60.0,120,120,0.0,70.0
5060,49.0,60,240,0.0,74.0
5061,37.0,0,240,0.0,62.0
5062,65.0,0,480,0.0,92.0
5063,53.0,240,240,0.0,55.0
5064,58.0,0,240,0.0,64.0
5065,67.0,240,60,0.0,70.0
5066,68.0,60,60,0.0,71.0
5067,67.0,60,60,0.0,71.0
5068,48.0,0,240,0.0,75.0
5069,36.0,0,240,0.0,63.0
5070,68.0,60,60,0.0,72.0
5071,65.0,0,120,0.0,72.0
5072,67.0,120,120,0.0,73.0
5073,52.0,60,240,0.0,57.0
5074,60.0,0,240,0.0,68.0
5075,58.0,0,240,0.0,57.0
5076,68.0,0,60,0.0,75.0
5077,70.0,60,60,0.0,75.0
5078,68.0,60,60,0.0,77.0
5079,29.0,120,240,0.0,66.0
5080,41.0,0,240,0.0,78.0
5081,70.0,60,60,0.0,77.0
5082,67.0,0,120,0.0,78.0
5083,68.0,120,120,0.0,79.0
5084,53.0,0,240,0.0,73.0
5085,60.0,0,240,0.0,73.0
5086,56.0,60,240,0.0,73.0
5087,69.0,0,120,0.0,82.0
5088,39.0,0,120,0.0,64.0
5089,51.0,0,120,0.0,77.0
5090,70.0,120,120,0.0,77.0
5091,67.0,0,240,0.0,69.0
5092,61.0,120,0,0.0,64.0
5093,72.0,0,120,0.0,77.0
5094,67.0,0,240,0.0,64.0
5095,58.0,0,240,0.0,71.0
5096,73.0,120,120,0.0,77.0
5097,51.0,0,0,0.0,60.0
5098,44.0,0,240,0.0,60.0
5099,56.0,120,240,0.0,71.0
5100,60.0,0,240,0.0,69.0
5101,68.0,240,0,0.0,70.0
5102,72.0,0,240,0.0,82.0
5103,62.0,0,180,0.0,70.0
5104,77.0,0,180,0.0,83.0
5105,59.0,0,180,0.0,70.0
5106,65.0,0,180,0.0,70.0
5107,60.0,0,60,0.0,63.0
5108,75.0,60,0,0.0,84.0
5109,63.0,0,60,0.0,63.0
5110,68.0,0,0,0.0,71.0
5111,63.0,0,120,0.0,71.0
5112,60.0,0,120,0.0,71.0
5113,68.0,120,0,0.0,79.0
5114,80.0,0,120,0.0,83.0
5115,67.0,180,60,0.0,64.0
5116,79.0,0,60,0.0,77.0
5117,44.0,0,240,0.0,61.0
5118,56.0,120,240,0.0,72.0
5119,37.0,0,240,0.0,62.0
5120,49.0,60,240,0.0,74.0
5121,58.0,240,240,0.0,64.0
5122,65.0,0,480,0.0,64.0
5123,53.0,0,240,0.0,55.0
5124,77.0,0,480,0.0,77.0
5125,67.0,0,120,0.0,70.0
5126,79.0,120,40,0.0,71.0
5127,80.0,40,40,0.0,72.0
5128,48.0,240,240,0.0,75.0
5129,36.0,0,240,0.0,63.0
5130,79.0,40,40,0.0,71.0
5131,65.0,0,120,0.0,61.0
5132,77.0,0,120,0.0,72.0
5133,67.0,0,120,0.0,61.0
5134,79.0,120,120,0.0,73.0
5135,64.0,0,240,0.0,68.0
5136,58.0,40,240,0.0,57.0
5137,60.0,0,240,0.0,57.0
5138,68.0,120,120,0.0,70.0
5139,80.0,120,40,0.0,71.0
5140,82.0,40,40,0.0,71.0
5141,80.0,40,40,0.0,71.0
5142,41.0,0,240,0.0,78.0
5143,29.0,0,240,0.0,66.0
5144,79.0,0,120,0.0,78.0
5145,67.0,0,120,0.0,66.0
5146,80.0,0,120,0.0,79.0
5147,68.0,120,120,0.0,67.0
5148,65.0,0,240,0.0,73.0
5149,53.0,0,240,0.0,68.0
5150,56.0,40,240,0.0,70.0
5151,60.0,0,240,0.0,73.0
5152,69.0,0,120,0.0,69.0
5153,75.0,0,120,0.0,69.0
5154,81.0,120,120,0.0,82.0
5155,39.0,0,120,0.0,64.0
5156,51.0,0,120,0.0,77.0
5157,70.0,120,120,0.0,69.0
5158,82.0,0,120,0.0,77.0
5159,79.0,0,120,0.0,64.0
5160,84.0,0,120,0.0,77.0
5161,72.0,0,120,0.0,64.0
5162,67.0,0,240,0.0,71.0
5163,58.0,0,240,0.0,60.0
5164,61.0,0,240,0.0,60.0
5165,63.0,120,0,0.0,60.0
5166,73.0,120,120,0.0,64.0
5167,85.0,0,120,0.0,77.0
5168,56.0,0,120,0.0,60.0
5169,68.0,0,120,0.0,71.0
5170,72.0,0,120,0.0,69.0
5171,80.0,0,120,0.0,69.0
5172,84.0,0,120,0.0,82.0
5173,68.0,0,180,0.0,70.0
5174,59.0,0,180,0.0,70.0
5175,62.0,0,180,0.0,70.0
5176,71.0,0,180,0.0,70.0
5177,80.0,0,180,0.0,70.0
5178,77.0,240,180,0.0,70.0
5179,89.0,0,180,0.0,83.0
5180,68.0,180,60,0.0,63.0
5181,80.0,0,60,0.0,63.0
5182,87.0,0,60,0.0,75.0
5183,63.0,0,60,0.0,63.0
5184,60.0,0,60,0.0,63.0
5185,72.0,0,60,0.0,63.0
5186,75.0,0,60,0.0,63.0
5187,87.0,0,120,0.0,84.0
5188,80.0,60,120,0.0,71.0
5189,60.0,0,120,0.0,71.0
5190,63.0,0,120,0.0,71.0
5191,68.0,0,120,0.0,71.0
5192,72.0,0,120,0.0,71.0
5193,75.0,0,120,0.0,71.0
5194,87.0,0,60,0.0,66.0
5195,75.0,0,60,0.0,66.0
5196,69.0,0,180,0.0,72.0
5197,60.0,30,240,0.0,61.0
5198,63.0,30,210,0.0,61.0
5199,73.0,0,180,0.0,70.0
5200,81.0,0,180,0.0,70.0
5201,85.0,30,180,0.0,83.0
5202,53.0,150,270,0.0,61.0
5203,84.0,0,60,0.0,77.0
5204,72.0,180,60,0.0,64.0
5205,70.0,0,120,0.0,70.0
5206,82.0,0,120,0.0,83.0
5207,46.0,0,240,0.0,66.0
5208,53.0,30,210,0.0,66.0
5209,61.0,30,180,0.0,78.0
5210,70.0,0,180,0.0,64.0
5211,78.0,0,180,0.0,64.0
5212,82.0,30,180,0.0,77.0
5213,66.0,0,180,0.0,72.0
5214,58.0,30,210,0.0,61.0
5215,51.0,180,240,0.0,61.0
5216,72.0,0,60,0.0,64.0
5217,84.0,180,60,0.0,77.0
5218,53.0,30,210,0.0,57.0
5219,46.0,0,240,0.0,57.0
5220,61.0,0,180,0.0,68.0
5221,85.0,0,240,0.0,81.0
5222,73.0,30,0,0.0,67.0
5223,77.0,0,240,0.0,68.0
5224,78.0,0,180,0.0,67.0
5225,75.0,0,180,0.0,67.0
5226,85.0,0,180,0.0,79.0
5227,54.0,0,180,0.0,68.0
5228,46.0,30,210,0.0,57.0
5229,39.0,180,240,0.0,57.0
5230,72.0,0,60,0.0,63.0
5231,84.0,0,60,0.0,75.0
5232,49.0,0,180,0.0,68.0
5233,41.0,30,210,0.0,57.0
5234,34.0,180,240,0.0,57.0
5235,77.0,0,240,0.0,69.0
5236,70.0,30,240,0.0,69.0
5237,82.0,0,240,0.0,82.0
5238,54.0,0,180,0.0,67.0
5239,46.0,30,210,0.0,56.0
5240,39.0,180,240,0.0,56.0
5241,75.0,0,180,0.0,67.0
5242,80.0,30,180,0.0,79.0
5243,68.0,0,180,0.0,67.0
5244,70.0,0,180,0.0,67.0
5245,78.0,0,60,0.0,74.0
5246,66.0,0,60,0.0,62.0
5247,77.0,30,120,0.0,78.0
5248,73.0,0,120,0.0,66.0
5249,65.0,0,120,0.0,66.0
5250,46.0,180,240,0.0,61.0
5251,53.0,30,210,0.0,61.0
5252,61.0,0,180,0.0,72.0
5253,45.0,0,60,0.0,64.0
5254,33.0,240,60,0.0,55.0
5255,34.0,0,60,0.0,55.0
5256,46.0,60,60,0.0,64.0
5257,36.0,0,60,0.0,56.0
5258,48.0,60,60,0.0,66.0
5259,49.0,0,60,0.0,67.0
5260,37.0,60,60,0.0,56.0
5261,51.0,0,60,0.0,67.0
5262,39.0,60,60,0.0,56.0
5263,53.0,60,60,0.0,68.0
5264,41.0,0,60,0.0,57.0
5265,43.0,60,60,0.0,58.0
5266,55.0,0,60,0.0,69.0
5267,57.0,0,60,0.0,69.0
5268,45.0,60,60,0.0,58.0
5269,58.0,60,60,0.0,70.0
5270,46.0,0,60,0.0,59.0
5271,48.0,0,60,0.0,60.0
5272,60.0,60,60,0.0,71.0
5273,49.0,60,60,0.0,60.0
5274,61.0,0,60,0.0,71.0
5275,63.0,60,60,0.0,72.0
5276,51.0,0,60,0.0,61.0
5277,53.0,0,60,0.0,61.0
5278,65.0,60,60,0.0,73.0
5279,67.0,60,60,0.0,73.0
5280,55.0,0,60,0.0,61.0
5281,57.0,0,60,0.0,62.0
5282,69.0,60,60,0.0,74.0
5283,70.0,60,60,0.0,74.0
5284,58.0,0,60,0.0,62.0
5285,72.0,60,60,0.0,75.0
5286,60.0,0,60,0.0,63.0
5287,61.0,60,60,0.0,64.0
5288,73.0,0,60,0.0,77.0
5289,63.0,60,60,0.0,64.0
5290,75.0,0,60,0.0,77.0
5291,77.0,0,60,0.0,78.0
5292,65.0,60,60,0.0,66.0
5293,67.0,0,60,0.0,67.0
5294,79.0,60,60,0.0,77.0
5295,81.0,60,60,0.0,77.0
5296,69.0,0,60,0.0,65.0
5297,82.0,60,60,0.0,78.0
5298,70.0,0,60,0.0,66.0
5299,72.0,0,60,0.0,67.0
5300,84.0,60,60,0.0,79.0
5301,73.0,0,60,0.0,68.0
5302,85.0,60,60,0.0,80.0
5303,75.0,60,60,0.0,69.0
5304,87.0,0,60,0.0,80.0
5305,89.0,0,60,0.0,81.0
5306,77.0,60,60,0.0,70.0
5307,91.0,60,90,0.0,82.0
5308,79.0,0,90,0.0,71.0
5309,81.0,0,60,0.0,72.0
5310,93.0,90,90,0.0,83.0
5311,94.0,90,120,0.0,92.0
5312,82.0,0,120,0.0,92.0
5313,96.0,180,60,0.0,85.0
5314,91.0,0,120,0.0,91.0
5315,94.0,0,120,0.0,91.0
5316,85.0,0,120,0.0,77.0
5317,27.0,0,120,0.0,68.0
5318,39.0,60,120,0.0,80.0
5319,90.0,120,120,0.0,85.0
5320,84.0,0,120,0.0,72.0
5321,93.0,0,120,0.0,85.0
5322,63.0,120,120,0.0,72.0
5323,51.0,0,120,0.0,61.0
5324,91.0,0,0,0.0,85.0
5325,94.0,0,240,0.0,90.0
5326,85.0,0,240,0.0,75.0
5327,63.0,0,240,0.0,67.0
5328,67.0,0,240,0.0,67.0
5329,72.0,0,240,0.0,67.0
5330,75.0,0,240,0.0,79.0
5331,84.0,0,240,0.0,72.0
5332,96.0,240,240,0.0,85.0
5333,65.0,0,240,0.0,64.0
5334,72.0,0,240,0.0,64.0
5335,77.0,0,240,0.0,77.0
5336,80.0,0,240,0.0,74.0
5337,92.0,240,240,0.0,88.0
5338,84.0,0,240,0.0,74.0
5339,80.0,0,240,0.0,72.0
5340,87.0,0,240,0.0,85.0
5341,72.0,0,240,0.0,72.0
5342,68.0,240,240,0.0,61.0
5343,60.0,0,240,0.0,61.0
5344,75.0,0,240,0.0,72.0
5345,73.0,0,240,0.0,77.0
5346,61.0,0,240,0.0,64.0
5347,89.0,0,240,0.0,88.0
5348,68.0,240,0,0.0,61.0
5349,80.0,0,240,0.0,74.0
5350,77.0,240,240,0.0,74.0
5351,75.0,0,240,0.0,72.0
5352,72.0,0,240,0.0,72.0
5353,60.0,0,240,0.0,61.0
5354,80.0,0,240,0.0,72.0
5355,87.0,0,240,0.0,85.0
5356,72.0,0,240,0.0,70.0
5357,75.0,0,240,0.0,70.0
5358,84.0,240,240,0.0,83.0
5359,56.0,0,240,0.0,60.0
5360,63.0,0,240,0.0,60.0
5361,68.0,240,0,0.0,68.0
5362,68.0,0,0,0.0,70.0
5363,53.0,0,240,0.0,57.0
5364,65.0,240,0,0.0,70.0
5365,72.0,0,240,0.0,68.0
5366,80.0,0,240,0.0,80.0
5367,77.0,0,240,0.0,83.0
5368,61.0,0,240,0.0,73.0
5369,56.0,0,240,0.0,60.0
5370,49.0,0,240,0.0,60.0
5371,75.0,0,240,0.0,80.0
5372,67.0,0,240,0.0,68.0
5373,63.0,0,240,0.0,68.0
5374,51.0,240,240,0.0,57.0
5375,58.0,0,240,0.0,57.0
5376,61.0,0,240,0.0,68.0
5377,72.0,0,120,0.0,80.0
5378,68.0,0,120,0.0,68.0
5379,60.0,240,120,0.0,68.0
5380,44.0,0,120,0.0,68.0
5381,32.0,0,120,0.0,57.0
5382,63.0,0,60,0.0,66.0
5383,65.0,60,60,0.0,61.0
5384,63.0,60,60,0.0,65.0
5385,60.0,240,240,0.0,68.0
5386,51.0,0,240,0.0,57.0
5387,65.0,60,60,0.0,61.0
5388,56.0,60,0,0.0,62.0
5389,59.0,0,240,0.0,73.0
5390,53.0,0,240,0.0,62.0
5391,62.0,0,240,0.0,81.0
5392,65.0,0,80,0.0,71.0
5393,53.0,0,120,0.0,68.0
5394,41.0,240,120,0.0,57.0
5395,68.0,80,80,0.0,73.0
5396,71.0,80,80,0.0,75.0
5397,74.0,0,80,0.0,77.0
5398,41.0,80,120,0.0,73.0
5399,29.0,0,120,0.0,62.0
5400,77.0,80,80,0.0,79.0
5401,80.0,80,80,0.0,81.0
5402,83.0,0,80,0.0,83.0
5403,86.0,80,80,0.0,85.0
5404,40.0,0,240,0.0,75.0
5405,98.0,80,80,0.0,87.0
5406,28.0,80,240,0.0,63.0
5407,27.0,0,120,0.0,64.0
5408,87.0,80,120,0.0,89.0
5409,99.0,0,120,0.0,89.0
5410,39.0,0,120,0.0,76.0
5411,63.0,0,60,0.0,60.0
5412,75.0,0,60,0.0,75.0
5413,82.0,0,60,0.0,89.0
5414,70.0,0,60,0.0,75.0
5415,67.0,240,60,0.0,71.0
5416,58.0,0,60,0.0,60.0
5417,61.0,0,60,0.0,60.0
5418,70.0,0,60,0.0,70.0
5419,82.0,0,60,0.0,83.0
5420,75.0,0,60,0.0,70.0
5421,67.0,0,60,0.0,67.0
5422,58.0,0,60,0.0,56.0
5423,61.0,120,60,0.0,56.0
5424,63.0,0,60,0.0,56.0
5425,82.0,0,120,0.0,89.0
5426,75.0,0,120,0.0,75.0
5427,70.0,0,120,0.0,75.0
5428,67.0,0,120,0.0,71.0
5429,63.0,0,120,0.0,60.0
5430,61.0,0,120,0.0,60.0
5431,58.0,120,120,0.0,60.0
5432,66.0,240,120,0.0,65.0
5433,63.0,0,120,0.0,55.0
5434,61.0,120,0,0.0,58.0
5435,58.0,0,0,0.0,58.0
5436,81.0,0,120,0.0,83.0
5437,69.0,0,120,0.0,70.0
5438,75.0,0,0,0.0,73.0
5439,70.0,0,120,0.0,73.0
5440,63.0,0,0,0.0,61.0
5441,67.0,0,120,0.0,69.0
5442,82.0,0,120,0.0,87.0
5443,84.0,0,240,0.0,91.0
5444,75.0,240,0,0.0,75.0
5445,72.0,120,240,0.0,77.0
5446,68.0,0,240,0.0,72.0
5447,58.0,0,0,0.0,59.0
5448,61.0,0,0,0.0,59.0
5449,63.0,0,0,0.0,59.0
5450,73.0,0,240,0.0,75.0
5451,70.0,0,240,0.0,70.0
5452,79.0,0,240,0.0,89.0
5453,67.0,0,240,0.0,75.0
5454,72.0,240,120,0.0,74.0
5455,68.0,0,120,0.0,74.0
5456,80.0,0,120,0.0,88.0
5457,56.0,0,120,0.0,74.0
5458,44.0,0,120,0.0,62.0
5459,63.0,0,60,0.0,66.0
5460,65.0,60,60,0.0,61.0
5461,63.0,60,60,0.0,65.0
5462,65.0,60,60,0.0,61.0
5463,51.0,240,240,0.0,57.0
5464,56.0,0,240,0.0,57.0
5465,60.0,0,240,0.0,68.0
5466,62.0,60,240,0.0,81.0
5467,53.0,0,0,0.0,68.0
5468,56.0,0,240,0.0,62.0
5469,59.0,0,240,0.0,73.0
5470,65.0,240,80,0.0,71.0
5471,41.0,0,120,0.0,57.0
5472,68.0,80,80,0.0,73.0
5473,71.0,80,80,0.0,75.0
5474,74.0,0,80,0.0,77.0
5475,29.0,80,120,0.0,62.0
5476,41.0,0,120,0.0,73.0
5477,77.0,80,80,0.0,79.0
5478,80.0,80,80,0.0,81.0
5479,83.0,0,80,0.0,83.0
5480,86.0,80,80,0.0,85.0
5481,40.0,0,240,0.0,75.0
5482,28.0,80,240,0.0,63.0
5483,98.0,80,80,0.0,87.0
5484,39.0,0,120,0.0,76.0
5485,27.0,80,120,0.0,64.0
5486,87.0,0,120,0.0,89.0
5487,99.0,0,120,0.0,89.0
5488,63.0,0,60,0.0,60.0
5489,61.0,0,60,0.0,60.0
5490,58.0,240,60,0.0,60.0
5491,67.0,0,60,0.0,71.0
5492,82.0,0,60,0.0,89.0
5493,70.0,0,60,0.0,75.0
5494,75.0,0,60,0.0,75.0
5495,70.0,0,60,0.0,70.0
5496,82.0,0,60,0.0,83.0
5497,75.0,0,60,0.0,70.0
5498,67.0,0,60,0.0,67.0
5499,58.0,120,60,0.0,56.0
5500,61.0,0,60,0.0,56.0
5501,63.0,0,60,0.0,56.0
5502,82.0,0,120,0.0,89.0
5503,61.0,120,120,0.0,60.0
5504,75.0,0,120,0.0,75.0
5505,63.0,120,0,0.0,51.0
5506,70.0,0,120,0.0,75.0
5507,58.0,0,0,0.0,51.0
5508,67.0,0,120,0.0,71.0
5509,61.0,0,120,0.0,51.0
5510,58.0,120,0,0.0,55.0
5511,63.0,0,0,0.0,55.0
5512,84.0,0,120,0.0,75.0
5513,75.0,0,0,0.0,70.0
5514,72.0,0,120,0.0,63.0
5515,68.0,0,120,0.0,60.0
5516,66.0,0,120,0.0,65.0
5517,61.0,0,120,0.0,55.0
5518,81.0,0,120,0.0,83.0
5519,69.0,0,120,0.0,70.0
5520,63.0,0,120,0.0,58.0
5521,61.0,0,120,0.0,58.0
5522,67.0,0,120,0.0,69.0
5523,58.0,0,120,0.0,58.0
5524,82.0,120,120,0.0,87.0
5525,75.0,0,120,0.0,73.0
5526,70.0,0,120,0.0,73.0
5527,75.0,0,240,0.0,77.0
5528,84.0,0,240,0.0,91.0
5529,68.0,0,240,0.0,72.0
5530,58.0,0,240,0.0,61.0
5531,61.0,240,0,0.0,59.0
5532,63.0,120,240,0.0,61.0
5533,72.0,0,240,0.0,77.0
5534,73.0,0,240,0.0,75.0
5535,63.0,0,240,0.0,59.0
5536,58.0,0,240,0.0,59.0
5537,70.0,0,240,0.0,70.0
5538,67.0,0,240,0.0,75.0
5539,79.0,0,240,0.0,89.0
5540,75.0,0,240,0.0,75.0
5541,32.0,0,120,0.0,70.0
5542,44.0,240,120,0.0,84.0
5543,39.0,0,120,0.0,67.0
5544,51.0,240,120,0.0,79.0
5545,80.0,0,360,0.0,102.0
5546,72.0,0,360,0.0,84.0
5547,68.0,0,360,0.0,78.0
5548,77.0,0,360,0.0,85.0
5549,75.0,0,0,0.0,93.0
5550,56.0,0,120,0.0,77.0
5551,44.0,0,120,0.0,64.0
5552,63.0,240,60,0.0,85.0
5553,51.0,0,60,0.0,72.0
5554,72.0,120,480,0.0,79.0
5555,68.0,0,120,0.0,86.0
5556,56.0,240,120,0.0,73.0
5557,72.0,240,120,0.0,74.0
5558,84.0,0,120,0.0,88.0
5559,75.0,0,120,0.0,73.0
5560,63.0,0,120,0.0,61.0
5561,80.0,0,120,0.0,74.0
5562,85.0,0,120,0.0,86.0
5563,82.0,0,120,0.0,73.0
5564,73.0,120,120,0.0,73.0
5565,44.0,0,120,0.0,84.0
5566,32.0,0,120,0.0,70.0
5567,51.0,0,120,0.0,79.0
5568,39.0,240,120,0.0,67.0
5569,89.0,0,360,0.0,102.0
5570,85.0,120,360,0.0,88.0
5571,77.0,0,360,0.0,82.0
5572,75.0,0,120,0.0,79.0
5573,84.0,120,0,0.0,79.0
5574,87.0,0,0,0.0,93.0
5575,56.0,0,120,0.0,77.0
5576,44.0,0,120,0.0,64.0
5577,51.0,0,60,0.0,72.0
5578,63.0,240,60,0.0,85.0
5579,75.0,0,480,0.0,79.0
5580,68.0,240,120,0.0,86.0
5581,56.0,0,120,0.0,73.0
5582,84.0,0,120,0.0,88.0
5583,80.0,0,120,0.0,74.0
5584,72.0,0,120,0.0,74.0
5585,75.0,240,120,0.0,73.0
5586,63.0,0,120,0.0,61.0
5587,73.0,120,120,0.0,73.0
5588,82.0,0,120,0.0,73.0
5589,85.0,0,0,0.0,88.0
5590,32.0,0,120,0.0,70.0
5591,44.0,0,120,0.0,84.0
5592,89.0,120,360,0.0,102.0
5593,39.0,0,120,0.0,67.0
5594,77.0,0,360,0.0,82.0
5595,51.0,240,120,0.0,79.0
5596,75.0,120,120,0.0,79.0
5597,84.0,0,120,0.0,79.0
5598,87.0,0,120,0.0,93.0
5599,44.0,0,120,0.0,64.0
5600,56.0,120,120,0.0,77.0
5601,51.0,0,60,0.0,72.0
5602,63.0,240,60,0.0,85.0
5603,89.0,0,360,0.0,102.0
5604,85.0,0,360,0.0,88.0
5605,77.0,0,360,0.0,82.0
5606,87.0,0,120,0.0,93.0
5607,84.0,0,120,0.0,79.0
5608,75.0,120,120,0.0,79.0
5609,68.0,0,120,0.0,86.0
5610,56.0,0,120,0.0,73.0
5611,63.0,0,120,0.0,73.0
5612,51.0,240,120,0.0,61.0
5613,89.0,120,360,0.0,102.0
5614,85.0,0,360,0.0,88.0
5615,77.0,0,360,0.0,82.0
5616,75.0,120,120,0.0,79.0
5617,84.0,0,120,0.0,79.0
5618,87.0,0,120,0.0,93.0
5619,56.0,0,120,0.0,84.0
5620,44.0,0,120,0.0,70.0
5621,51.0,0,120,0.0,79.0
5622,39.0,240,120,0.0,67.0
5623,89.0,0,360,0.0,102.0
5624,85.0,0,360,0.0,88.0
5625,77.0,120,360,0.0,82.0
5626,75.0,0,0,0.0,79.0
5627,84.0,0,0,0.0,79.0
5628,87.0,120,0,0.0,93.0
5629,32.0,0,60,0.0,71.0
5630,44.0,0,60,0.0,84.0
5631,31.0,0,60,0.0,68.0
5632,43.0,120,60,0.0,80.0
5633,41.0,0,60,0.0,81.0
5634,29.0,120,60,0.0,68.0
5635,27.0,120,60,0.0,68.0
5636,39.0,0,60,0.0,81.0
5637,89.0,0,60,0.0,93.0
5638,84.0,0,60,0.0,79.0
5639,77.0,0,60,0.0,79.0
5640,32.0,0,60,0.0,64.0
5641,44.0,120,60,0.0,77.0
5642,31.0,120,60,0.0,68.0
5643,43.0,0,60,0.0,80.0
5644,79.0,0,120,0.0,81.0
5645,84.0,0,0,0.0,85.0
5646,91.0,0,120,0.0,96.0
5647,29.0,120,60,0.0,70.0
5648,41.0,0,60,0.0,83.0
5649,92.0,0,120,0.0,100.0
5650,80.0,0,120,0.0,85.0
5651,39.0,0,60,0.0,86.0
5652,27.0,0,60,0.0,73.0
5653,82.0,0,120,0.0,89.0
5654,94.0,120,120,0.0,105.0
5655,87.0,0,240,0.0,89.0
5656,96.0,0,240,0.0,110.0
5657,44.0,0,240,0.0,89.0
5658,32.0,0,240,0.0,74.0
5659,92.0,120,240,0.0,110.0
5660,84.0,0,240,0.0,93.0
5661,64.0,0,60,0.0,93.0
5662,52.0,0,60,0.0,79.0
5663,55.0,0,60,0.0,79.0
5664,60.0,0,60,0.0,93.0
5665,36.0,0,60,0.0,65.0
5666,43.0,720,60,0.0,65.0
5667,48.0,0,60,0.0,77.0
5668,48.0,0,60,0.0,72.0
5669,36.0,120,60,0.0,61.0
5670,43.0,0,60,0.0,61.0
5671,55.0,0,60,0.0,75.0
5672,64.0,0,60,0.0,89.0
5673,60.0,0,60,0.0,89.0
5674,52.0,0,60,0.0,75.0
5675,43.0,0,120,0.0,65.0
5676,48.0,0,120,0.0,77.0
5677,64.0,120,120,0.0,93.0
5678,52.0,0,120,0.0,79.0
5679,55.0,0,120,0.0,79.0
5680,60.0,0,120,0.0,93.0
5681,36.0,0,120,0.0,65.0
5682,60.0,0,120,0.0,88.0
5683,52.0,0,120,0.0,74.0
5684,55.0,0,120,0.0,74.0
5685,36.0,0,120,0.0,60.0
5686,43.0,240,120,0.0,60.0
5687,48.0,0,120,0.0,71.0
5688,64.0,0,120,0.0,88.0
5689,64.0,30,240,0.0,92.0
5690,52.0,150,330,0.0,78.0
5691,55.0,30,300,0.0,78.0
5692,60.0,0,270,0.0,92.0
5693,48.0,0,240,0.0,71.0
5694,36.0,0,300,0.0,60.0
5695,43.0,30,270,0.0,60.0
5696,48.0,30,240,0.0,71.0
5697,43.0,0,270,0.0,60.0
5698,36.0,30,300,0.0,60.0
5699,60.0,30,270,0.0,93.0
5700,55.0,0,300,0.0,79.0
5701,64.0,0,240,0.0,93.0
5702,52.0,390,330,0.0,79.0
5703,55.0,30,300,0.0,79.0
5704,61.0,30,270,0.0,93.0
5705,51.0,390,330,0.0,79.0
5706,39.0,0,300,0.0,60.0
5707,46.0,0,240,0.0,71.0
5708,63.0,30,240,0.0,93.0
5709,68.0,480,240,0.0,102.0
5710,60.0,0,240,0.0,86.0
5711,56.0,0,240,0.0,86.0
5712,32.0,0,240,0.0,67.0
5713,44.0,0,240,0.0,79.0
