,note,step,duration,channel,velocity
0,56.0,5,60,0.0,0.0
1,44.0,4,60,0.0,0.0
2,68.0,1,60,0.0,0.0
3,80.0,19,30,0.0,0.0
4,78.0,22,30,0.0,0.0
5,76.0,30,30,0.0,0.0
6,75.0,25,30,0.0,0.0
7,73.0,1,30,0.0,0.0
8,49.0,20,30,0.0,0.0
9,85.0,0,30,0.0,0.0
10,37.0,9,30,0.0,0.0
11,75.0,38,30,0.0,0.0
12,72.0,27,30,0.0,0.0
13,73.0,25,30,0.0,0.0
14,75.0,1,30,0.0,0.0
15,69.0,24,30,0.0,0.0
16,66.0,15,240,0.0,0.0
17,76.0,37,30,0.0,0.0
18,73.0,26,30,0.0,0.0
19,75.0,28,30,0.0,0.0
20,68.0,1,30,0.0,0.0
21,76.0,23,30,0.0,0.0
22,64.0,0,30,0.0,0.0
23,78.0,33,20,0.0,0.0
24,75.0,32,30,0.0,0.0
25,76.0,13,30,0.0,0.0
26,78.0,21,30,0.0,0.0
27,63.0,4,30,0.0,0.0
28,80.0,39,30,0.0,0.0
29,76.0,29,30,0.0,0.0
30,78.0,32,30,0.0,0.0
31,80.0,23,30,0.0,0.0
32,64.0,0,90,0.0,0.0
33,61.0,13,90,0.0,0.0
34,81.0,18,30,0.0,0.0
35,80.0,33,30,0.0,0.0
36,85.0,33,30,0.0,0.0
37,66.0,2,60,0.0,0.0
38,57.0,0,60,0.0,0.0
39,78.0,19,30,0.0,0.0
40,61.0,24,60,0.0,0.0
41,80.0,6,20,0.0,0.0
42,78.0,39,30,0.0,0.0
43,85.0,29,30,0.0,0.0
44,64.0,0,60,0.0,0.0
45,76.0,23,30,0.0,0.0
46,56.0,1,60,0.0,0.0
47,61.0,1,60,0.0,0.0
48,78.0,27,30,0.0,0.0
49,76.0,40,30,0.0,0.0
50,85.0,23,30,0.0,0.0
51,63.0,1,60,0.0,0.0
52,75.0,25,30,0.0,0.0
53,54.0,0,60,0.0,0.0
54,61.0,27,60,0.0,0.0
55,76.0,5,30,0.0,0.0
56,75.0,33,30,0.0,0.0
57,85.0,12,30,0.0,0.0
58,49.0,34,30,0.0,0.0
59,56.0,16,60,0.0,0.0
60,73.0,28,60,0.0,0.0
61,64.0,0,30,0.0,0.0
62,80.0,3,60,0.0,0.0
63,88.0,29,30,0.0,0.0
64,81.0,33,30,0.0,0.0
65,44.0,17,60,0.0,0.0
66,54.0,8,60,0.0,0.0
67,60.0,2,60,0.0,0.0
68,72.0,28,60,0.0,0.0
69,78.0,31,60,0.0,0.0
70,87.0,1,30,0.0,0.0
71,80.0,55,30,0.0,0.0
72,61.0,0,60,0.0,0.0
73,49.0,2,60,0.0,0.0
74,52.0,0,60,0.0,0.0
75,68.0,27,60,0.0,0.0
76,76.0,29,60,0.0,0.0
77,85.0,4,30,0.0,0.0
78,78.0,58,30,0.0,0.0
79,56.0,1,60,0.0,0.0
80,68.0,0,60,0.0,0.0
81,44.0,1,60,0.0,0.0
82,75.0,26,30,0.0,0.0
83,84.0,29,30,0.0,0.0
84,76.0,20,30,0.0,0.0
85,61.0,0,60,0.0,0.0
86,85.0,32,60,0.0,0.0
87,73.0,7,60,0.0,0.0
88,49.0,8,60,0.0,0.0
89,37.0,32,15,0.0,0.0
90,69.0,1,30,0.0,0.0
91,57.0,0,30,0.0,0.0
92,45.0,25,30,0.0,0.0
93,81.0,40,30,0.0,0.0
94,68.0,19,30,0.0,0.0
95,56.0,1,30,0.0,0.0
96,44.0,6,30,0.0,0.0
97,80.0,29,30,0.0,0.0
98,67.0,3,30,0.0,0.0
99,55.0,0,30,0.0,0.0
100,43.0,25,30,0.0,0.0
101,79.0,37,30,0.0,0.0
102,56.0,1,60,0.0,0.0
103,68.0,23,60,0.0,0.0
104,44.0,28,30,0.0,0.0
105,80.0,1,30,0.0,0.0
106,37.0,9,20,0.0,0.0
107,49.0,6,30,0.0,0.0
108,61.0,23,30,0.0,0.0
109,73.0,46,30,0.0,0.0
110,75.0,2,60,0.0,0.0
111,63.0,8,60,0.0,0.0
112,67.0,1,60,0.0,0.0
113,61.0,10,60,0.0,0.0
114,70.0,3,60,0.0,0.0
115,51.0,19,30,0.0,0.0
116,49.0,6,30,0.0,0.0
117,47.0,32,30,0.0,0.0
118,46.0,24,30,0.0,0.0
119,59.0,1,20,0.0,0.0
120,44.0,3,20,0.0,0.0
121,71.0,9,30,0.0,0.0
122,68.0,1,30,0.0,0.0
123,63.0,15,30,0.0,0.0
124,46.0,32,20,0.0,0.0
125,43.0,31,30,0.0,0.0
126,44.0,26,30,0.0,0.0
127,46.0,35,30,0.0,0.0
128,61.0,0,60,0.0,0.0
129,63.0,1,60,0.0,0.0
130,67.0,26,60,0.0,0.0
131,47.0,0,30,0.0,0.0
132,44.0,30,30,0.0,0.0
133,46.0,28,30,0.0,0.0
134,68.0,0,60,0.0,0.0
135,47.0,34,30,0.0,0.0
136,59.0,1,60,0.0,0.0
137,63.0,21,60,0.0,0.0
138,49.0,1,30,0.0,0.0
139,46.0,34,20,0.0,0.0
140,47.0,29,30,0.0,0.0
141,68.0,0,60,0.0,0.0
142,61.0,0,60,0.0,0.0
143,64.0,0,60,0.0,0.0
144,49.0,33,30,0.0,0.0
145,51.0,22,30,0.0,0.0
146,47.0,37,20,0.0,0.0
147,49.0,31,30,0.0,0.0
148,68.0,0,60,0.0,0.0
149,63.0,18,60,0.0,0.0
150,51.0,18,30,0.0,0.0
151,59.0,1,60,0.0,0.0
152,52.0,16,20,0.0,0.0
153,51.0,29,30,0.0,0.0
154,56.0,31,30,0.0,0.0
155,68.0,1,60,0.0,0.0
156,61.0,0,60,0.0,0.0
157,64.0,25,60,0.0,0.0
158,49.0,31,20,0.0,0.0
159,51.0,2,30,0.0,0.0
160,49.0,24,30,0.0,0.0
161,56.0,36,20,0.0,0.0
162,68.0,1,60,0.0,0.0
163,63.0,16,60,0.0,0.0
164,47.0,28,30,0.0,0.0
165,49.0,5,30,0.0,0.0
166,47.0,28,20,0.0,0.0
167,56.0,32,20,0.0,0.0
168,70.0,2,60,0.0,0.0
169,46.0,36,20,0.0,0.0
170,63.0,0,60,0.0,0.0
171,61.0,20,60,0.0,0.0
172,47.0,2,30,0.0,0.0
173,46.0,25,30,0.0,0.0
174,55.0,40,20,0.0,0.0
175,71.0,2,60,0.0,0.0
176,44.0,10,30,0.0,0.0
177,68.0,0,60,0.0,0.0
178,63.0,59,60,0.0,0.0
179,59.0,15,30,0.0,0.0
180,52.0,3,30,0.0,0.0
181,59.0,30,60,0.0,0.0
182,51.0,1,30,0.0,0.0
183,87.0,1,120,0.0,0.0
184,82.0,25,120,0.0,0.0
185,75.0,14,120,0.0,0.0
186,43.0,34,30,0.0,0.0
187,52.0,42,30,0.0,0.0
188,58.0,2,60,0.0,0.0
189,51.0,3,30,0.0,0.0
190,44.0,32,30,0.0,0.0
191,75.0,0,60,0.0,0.0
192,83.0,54,60,0.0,0.0
193,52.0,1,30,0.0,0.0
194,59.0,22,60,0.0,0.0
195,51.0,3,30,0.0,0.0
196,63.0,17,60,0.0,0.0
197,75.0,27,90,0.0,0.0
198,70.0,56,120,0.0,0.0
199,43.0,40,20,0.0,0.0
200,52.0,10,30,0.0,0.0
201,58.0,7,60,0.0,0.0
202,51.0,3,30,0.0,0.0
203,71.0,2,60,0.0,0.0
204,44.0,0,60,0.0,0.0
205,63.0,49,60,0.0,0.0
206,56.0,0,60,0.0,0.0
207,64.0,7,30,0.0,0.0
208,61.0,12,60,0.0,0.0
209,67.0,30,30,0.0,0.0
210,63.0,29,30,0.0,0.0
211,59.0,1,30,0.0,0.0
212,68.0,37,30,0.0,0.0
213,67.0,25,30,0.0,0.0
214,64.0,6,60,0.0,0.0
215,70.0,22,30,0.0,0.0
216,66.0,0,30,0.0,0.0
217,63.0,26,30,0.0,0.0
218,71.0,66,30,0.0,0.0
219,69.0,1,60,0.0,0.0
220,66.0,1,60,0.0,0.0
221,72.0,24,30,0.0,0.0
222,68.0,27,30,0.0,0.0
223,64.0,0,30,0.0,0.0
224,73.0,31,30,0.0,0.0
225,66.0,9,30,0.0,0.0
226,56.0,1,60,0.0,0.0
227,72.0,24,30,0.0,0.0
228,63.0,5,60,0.0,0.0
229,75.0,29,30,0.0,0.0
230,61.0,26,60,0.0,0.0
231,64.0,0,60,0.0,0.0
232,73.0,23,30,0.0,0.0
233,75.0,7,30,0.0,0.0
234,72.0,27,30,0.0,0.0
235,73.0,28,30,0.0,0.0
236,75.0,27,30,0.0,0.0
237,66.0,0,60,0.0,0.0
238,69.0,27,60,0.0,0.0
239,76.0,8,20,0.0,0.0
240,73.0,28,30,0.0,0.0
241,75.0,29,30,0.0,0.0
242,68.0,3,60,0.0,0.0
243,76.0,30,30,0.0,0.0
244,64.0,29,60,0.0,0.0
245,78.0,1,30,0.0,0.0
246,75.0,33,30,0.0,0.0
247,76.0,36,30,0.0,0.0
248,78.0,17,30,0.0,0.0
249,66.0,1,60,0.0,0.0
250,63.0,30,60,0.0,0.0
251,80.0,9,20,0.0,0.0
252,76.0,35,30,0.0,0.0
253,78.0,26,30,0.0,0.0
254,80.0,26,30,0.0,0.0
255,64.0,0,60,0.0,0.0
256,61.0,31,60,0.0,0.0
257,81.0,5,30,0.0,0.0
258,80.0,58,30,0.0,0.0
259,85.0,26,60,0.0,0.0
260,57.0,0,60,0.0,0.0
261,78.0,2,30,0.0,0.0
262,61.0,0,60,0.0,0.0
263,66.0,26,60,0.0,0.0
264,80.0,6,30,0.0,0.0
265,78.0,59,30,0.0,0.0
266,85.0,3,60,0.0,0.0
267,76.0,23,30,0.0,0.0
268,64.0,1,60,0.0,0.0
269,56.0,30,60,0.0,0.0
270,61.0,0,60,0.0,0.0
271,78.0,2,30,0.0,0.0
272,76.0,54,30,0.0,0.0
273,85.0,16,60,0.0,0.0
274,75.0,16,30,0.0,0.0
275,63.0,1,60,0.0,0.0
276,61.0,1,60,0.0,0.0
277,54.0,31,60,0.0,0.0
278,76.0,2,30,0.0,0.0
279,75.0,61,30,0.0,0.0
280,85.0,30,60,0.0,0.0
281,49.0,0,90,0.0,0.0
282,56.0,1,60,0.0,0.0
283,73.0,6,60,0.0,0.0
284,64.0,21,60,0.0,0.0
285,80.0,30,60,0.0,0.0
286,88.0,3,60,0.0,0.0
287,81.0,37,30,0.0,0.0
288,44.0,10,60,0.0,0.0
289,54.0,8,60,0.0,0.0
290,60.0,1,60,0.0,0.0
291,72.0,30,60,0.0,0.0
292,78.0,29,60,0.0,0.0
293,87.0,27,60,0.0,0.0
294,80.0,6,60,0.0,0.0
295,45.0,14,60,0.0,0.0
296,52.0,10,60,0.0,0.0
297,69.0,1,60,0.0,0.0
298,61.0,30,60,0.0,0.0
299,75.0,29,60,0.0,0.0
300,85.0,25,60,0.0,0.0
301,76.0,33,60,0.0,0.0
302,65.0,1,60,0.0,0.0
303,62.0,1,60,0.0,0.0
304,68.0,3,60,0.0,0.0
305,59.0,21,60,0.0,0.0
306,53.0,1,60,0.0,0.0
307,73.0,29,60,0.0,0.0
308,83.0,31,60,0.0,0.0
309,74.0,28,60,0.0,0.0
310,66.0,1,60,0.0,0.0
311,69.0,20,90,0.0,0.0
312,61.0,1,60,0.0,0.0
313,57.0,5,60,0.0,0.0
314,54.0,0,60,0.0,0.0
315,73.0,18,30,0.0,0.0
316,50.0,2,30,0.0,0.0
317,81.0,3,30,0.0,0.0
318,78.0,37,30,0.0,0.0
319,61.0,1,30,0.0,0.0
320,81.0,1,90,0.0,0.0
321,49.0,25,30,0.0,0.0
322,85.0,31,30,0.0,0.0
323,57.0,1,30,0.0,0.0
324,93.0,1,30,0.0,0.0
325,45.0,30,30,0.0,0.0
326,90.0,24,30,0.0,0.0
327,54.0,1,30,0.0,0.0
328,42.0,1,30,0.0,0.0
329,85.0,27,30,0.0,0.0
330,81.0,28,30,0.0,0.0
331,37.0,7,30,0.0,0.0
332,49.0,0,30,0.0,0.0
333,78.0,22,30,0.0,0.0
334,73.0,33,30,0.0,0.0
335,50.0,49,60,0.0,0.0
336,38.0,58,120,0.0,0.0
337,69.0,13,30,0.0,0.0
338,66.0,15,60,0.0,0.0
339,62.0,11,30,0.0,0.0
340,57.0,7,30,0.0,0.0
341,41.0,2,60,0.0,0.0
342,68.0,40,150,0.0,0.0
343,59.0,7,360,0.0,0.0
344,62.0,10,330,0.0,0.0
345,42.0,28,30,0.0,0.0
346,40.0,32,30,0.0,0.0
347,41.0,30,30,0.0,0.0
348,42.0,0,30,0.0,0.0
349,66.0,1,120,0.0,0.0
350,44.0,27,30,0.0,0.0
351,41.0,31,30,0.0,0.0
352,42.0,26,30,0.0,0.0
353,65.0,33,120,0.0,0.0
354,44.0,33,30,0.0,0.0
355,45.0,22,30,0.0,0.0
356,42.0,20,30,0.0,0.0
357,44.0,2,30,0.0,0.0
358,66.0,30,90,0.0,0.0
359,45.0,33,30,0.0,0.0
360,62.0,3,90,0.0,0.0
361,57.0,6,90,0.0,0.0
362,47.0,18,30,0.0,0.0
363,45.0,3,30,0.0,0.0
364,47.0,33,30,0.0,0.0
365,41.0,28,30,0.0,0.0
366,59.0,28,360,0.0,0.0
367,62.0,25,300,0.0,0.0
368,68.0,15,120,0.0,0.0
369,42.0,31,30,0.0,0.0
370,40.0,30,30,0.0,0.0
371,41.0,13,30,0.0,0.0
372,42.0,32,30,0.0,0.0
373,66.0,7,120,0.0,0.0
374,44.0,30,30,0.0,0.0
375,41.0,23,30,0.0,0.0
376,42.0,25,30,0.0,0.0
377,65.0,5,120,0.0,0.0
378,44.0,33,30,0.0,0.0
379,45.0,4,30,0.0,0.0
380,42.0,29,30,0.0,0.0
381,44.0,1,30,0.0,0.0
382,66.0,4,120,0.0,0.0
383,61.0,0,120,0.0,0.0
384,45.0,30,30,0.0,0.0
385,47.0,30,30,0.0,0.0
386,45.0,28,30,0.0,0.0
387,47.0,32,30,0.0,0.0
388,48.0,29,30,0.0,0.0
389,75.0,16,120,0.0,0.0
390,66.0,5,330,0.0,0.0
391,69.0,20,300,0.0,0.0
392,49.0,30,30,0.0,0.0
393,46.0,32,30,0.0,0.0
394,48.0,10,30,0.0,0.0
395,73.0,19,120,0.0,0.0
396,49.0,25,30,0.0,0.0
397,51.0,31,20,0.0,0.0
398,48.0,35,30,0.0,0.0
399,49.0,1,30,0.0,0.0
400,51.0,35,20,0.0,0.0
401,72.0,24,120,0.0,0.0
402,52.0,5,30,0.0,0.0
403,49.0,28,30,0.0,0.0
404,51.0,4,30,0.0,0.0
405,52.0,37,30,0.0,0.0
406,73.0,23,240,0.0,0.0
407,64.0,3,90,0.0,0.0
408,68.0,2,90,0.0,0.0
409,54.0,20,30,0.0,0.0
410,51.0,30,30,0.0,0.0
411,52.0,31,30,0.0,0.0
412,54.0,30,30,0.0,0.0
413,69.0,18,60,0.0,0.0
414,63.0,24,210,0.0,0.0
415,56.0,11,30,0.0,0.0
416,52.0,35,30,0.0,0.0
417,54.0,5,30,0.0,0.0
418,72.0,35,120,0.0,0.0
419,68.0,21,60,0.0,0.0
420,56.0,30,30,0.0,0.0
421,57.0,8,30,0.0,0.0
422,56.0,0,30,0.0,0.0
423,54.0,2,30,0.0,0.0
424,73.0,25,90,0.0,0.0
425,68.0,7,90,0.0,0.0
426,52.0,28,30,0.0,0.0
427,64.0,0,90,0.0,0.0
428,51.0,21,30,0.0,0.0
429,49.0,6,30,0.0,0.0
430,47.0,25,30,0.0,0.0
431,64.0,1,120,0.0,0.0
432,68.0,6,120,0.0,0.0
433,85.0,11,60,0.0,0.0
434,73.0,31,120,0.0,0.0
435,45.0,33,30,0.0,0.0
436,44.0,3,30,0.0,0.0
437,42.0,34,20,0.0,0.0
438,40.0,1,30,0.0,0.0
439,39.0,24,30,0.0,0.0
440,67.0,1,30,0.0,0.0
441,68.0,40,30,0.0,0.0
442,65.0,25,30,0.0,0.0
443,67.0,32,30,0.0,0.0
444,63.0,5,30,0.0,0.0
445,68.0,6,30,0.0,0.0
446,59.0,9,30,0.0,0.0
447,70.0,37,20,0.0,0.0
448,67.0,28,30,0.0,0.0
449,68.0,31,30,0.0,0.0
450,61.0,11,30,0.0,0.0
451,70.0,3,30,0.0,0.0
452,58.0,11,30,0.0,0.0
453,71.0,36,30,0.0,0.0
454,68.0,26,30,0.0,0.0
455,70.0,30,30,0.0,0.0
456,56.0,16,60,0.0,0.0
457,59.0,11,30,0.0,0.0
458,71.0,3,30,0.0,0.0
459,73.0,32,30,0.0,0.0
460,70.0,31,30,0.0,0.0
461,71.0,29,30,0.0,0.0
462,58.0,38,60,0.0,0.0
463,51.0,16,30,0.0,0.0
464,73.0,3,30,0.0,0.0
465,55.0,1,60,0.0,0.0
466,75.0,0,20,0.0,0.0
467,73.0,23,30,0.0,0.0
468,82.0,31,30,0.0,0.0
469,56.0,24,30,0.0,0.0
470,59.0,4,30,0.0,0.0
471,71.0,2,30,0.0,0.0
472,51.0,2,30,0.0,0.0
473,73.0,29,30,0.0,0.0
474,71.0,30,30,0.0,0.0
475,80.0,30,30,0.0,0.0
476,70.0,3,30,0.0,0.0
477,61.0,6,30,0.0,0.0
478,51.0,2,30,0.0,0.0
479,58.0,21,30,0.0,0.0
480,71.0,30,30,0.0,0.0
481,70.0,22,30,0.0,0.0
482,79.0,41,30,0.0,0.0
483,64.0,11,90,0.0,0.0
484,52.0,15,90,0.0,0.0
485,68.0,32,30,0.0,0.0
486,70.0,7,30,0.0,0.0
487,68.0,18,30,0.0,0.0
488,80.0,35,30,0.0,0.0
489,43.0,27,30,0.0,0.0
490,73.0,0,60,0.0,0.0
491,70.0,2,60,0.0,0.0
492,64.0,18,60,0.0,0.0
493,44.0,13,30,0.0,0.0
494,42.0,34,30,0.0,0.0
495,43.0,27,30,0.0,0.0
496,63.0,23,60,0.0,0.0
497,68.0,4,60,0.0,0.0
498,71.0,0,60,0.0,0.0
499,44.0,30,30,0.0,0.0
500,46.0,2,30,0.0,0.0
501,43.0,33,20,0.0,0.0
502,44.0,28,30,0.0,0.0
503,70.0,2,60,0.0,0.0
504,46.0,32,30,0.0,0.0
505,61.0,0,60,0.0,0.0
506,67.0,27,60,0.0,0.0
507,47.0,0,30,0.0,0.0
508,44.0,29,30,0.0,0.0
509,46.0,27,30,0.0,0.0
510,68.0,2,60,0.0,0.0
511,63.0,8,60,0.0,0.0
512,47.0,26,20,0.0,0.0
513,59.0,24,60,0.0,0.0
514,49.0,1,30,0.0,0.0
515,46.0,33,30,0.0,0.0
516,47.0,33,30,0.0,0.0
517,67.0,2,90,0.0,0.0
518,49.0,27,30,0.0,0.0
519,64.0,32,90,0.0,0.0
520,58.0,13,60,0.0,0.0
521,51.0,18,30,0.0,0.0
522,49.0,30,60,0.0,0.0
523,58.0,1,30,0.0,0.0
524,68.0,1,90,0.0,0.0
525,47.0,30,30,0.0,0.0
526,63.0,1,90,0.0,0.0
527,59.0,15,90,0.0,0.0
528,49.0,32,30,0.0,0.0
529,47.0,35,60,0.0,0.0
530,56.0,33,60,0.0,0.0
531,46.0,8,20,0.0,0.0
532,70.0,2,90,0.0,0.0
533,61.0,1,90,0.0,0.0
534,63.0,15,90,0.0,0.0
535,47.0,27,30,0.0,0.0
536,46.0,44,60,0.0,0.0
537,55.0,1,60,0.0,0.0
538,63.0,7,150,0.0,0.0
539,75.0,5,150,0.0,0.0
540,87.0,37,60,0.0,0.0
541,45.0,25,30,0.0,0.0
542,46.0,11,30,0.0,0.0
543,45.0,31,60,0.0,0.0
544,54.0,15,30,0.0,0.0
545,53.0,6,60,0.0,0.0
546,69.0,23,30,0.0,0.0
547,41.0,21,60,0.0,0.0
548,70.0,3,20,0.0,0.0
549,68.0,30,20,0.0,0.0
550,69.0,29,30,0.0,0.0
551,70.0,24,30,0.0,0.0
552,61.0,3,60,0.0,0.0
553,65.0,21,60,0.0,0.0
554,72.0,8,20,0.0,0.0
555,69.0,30,30,0.0,0.0
556,70.0,30,30,0.0,0.0
557,72.0,22,30,0.0,0.0
558,60.0,24,60,0.0,0.0
559,63.0,0,60,0.0,0.0
560,73.0,11,20,0.0,0.0
561,70.0,34,30,0.0,0.0
562,72.0,27,30,0.0,0.0
563,58.0,1,60,0.0,0.0
564,61.0,31,60,0.0,0.0
565,73.0,21,30,0.0,0.0
566,75.0,6,20,0.0,0.0
567,72.0,33,30,0.0,0.0
568,73.0,23,30,0.0,0.0
569,60.0,2,60,0.0,0.0
570,57.0,3,60,0.0,0.0
571,75.0,23,30,0.0,0.0
572,53.0,19,60,0.0,0.0
573,77.0,10,20,0.0,0.0
574,75.0,37,20,0.0,0.0
575,84.0,29,30,0.0,0.0
576,61.0,0,60,0.0,0.0
577,53.0,29,60,0.0,0.0
578,58.0,0,60,0.0,0.0
579,73.0,29,30,0.0,0.0
580,75.0,1,30,0.0,0.0
581,73.0,28,30,0.0,0.0
582,82.0,34,30,0.0,0.0
583,72.0,25,30,0.0,0.0
584,63.0,0,60,0.0,0.0
585,60.0,2,60,0.0,0.0
586,53.0,25,60,0.0,0.0
587,73.0,4,30,0.0,0.0
588,72.0,30,30,0.0,0.0
589,81.0,34,30,0.0,0.0
590,66.0,1,60,0.0,0.0
591,70.0,28,30,0.0,0.0
592,54.0,1,60,0.0,0.0
593,72.0,26,30,0.0,0.0
594,70.0,29,30,0.0,0.0
595,82.0,31,30,0.0,0.0
596,45.0,29,30,0.0,0.0
597,75.0,25,60,0.0,0.0
598,66.0,0,60,0.0,0.0
599,46.0,5,30,0.0,0.0
600,44.0,29,30,0.0,0.0
601,45.0,29,30,0.0,0.0
602,70.0,1,90,0.0,0.0
603,46.0,27,30,0.0,0.0
604,73.0,0,90,0.0,0.0
605,65.0,25,90,0.0,0.0
606,48.0,32,20,0.0,0.0
607,45.0,5,30,0.0,0.0
608,46.0,28,30,0.0,0.0
609,69.0,29,90,0.0,0.0
610,72.0,0,90,0.0,0.0
611,48.0,30,30,0.0,0.0
612,63.0,0,90,0.0,0.0
613,49.0,29,30,0.0,0.0
614,46.0,5,30,0.0,0.0
615,48.0,27,30,0.0,0.0
616,70.0,2,120,0.0,0.0
617,49.0,28,30,0.0,0.0
618,61.0,30,90,0.0,0.0
619,65.0,0,90,0.0,0.0
620,51.0,29,30,0.0,0.0
621,48.0,3,30,0.0,0.0
622,49.0,26,30,0.0,0.0
623,65.0,0,90,0.0,0.0
624,50.0,36,20,0.0,0.0
625,59.0,5,90,0.0,0.0
626,68.0,0,90,0.0,0.0
627,51.0,29,30,0.0,0.0
628,49.0,31,30,0.0,0.0
629,50.0,29,30,0.0,0.0
630,66.0,33,90,0.0,0.0
631,63.0,0,90,0.0,0.0
632,58.0,0,90,0.0,0.0
633,51.0,30,30,0.0,0.0
634,53.0,30,30,0.0,0.0
635,50.0,1,30,0.0,0.0
636,51.0,25,30,0.0,0.0
637,61.0,0,90,0.0,0.0
638,65.0,30,90,0.0,0.0
639,58.0,0,90,0.0,0.0
640,53.0,28,20,0.0,0.0
641,54.0,34,20,0.0,0.0
642,52.0,2,30,0.0,0.0
643,53.0,27,30,0.0,0.0
644,54.0,31,30,0.0,0.0
645,60.0,26,60,0.0,0.0
646,64.0,0,60,0.0,0.0
647,58.0,0,60,0.0,0.0
648,56.0,2,30,0.0,0.0
649,53.0,22,30,0.0,0.0
650,54.0,43,20,0.0,0.0
651,65.0,29,30,0.0,0.0
652,53.0,0,30,0.0,0.0
653,57.0,0,30,0.0,0.0
654,60.0,0,30,0.0,0.0
655,66.0,36,30,0.0,0.0
656,64.0,30,30,0.0,0.0
657,65.0,28,30,0.0,0.0
658,61.0,1,30,0.0,0.0
659,52.0,0,30,0.0,0.0
660,66.0,1,30,0.0,0.0
661,58.0,30,30,0.0,0.0
662,68.0,35,30,0.0,0.0
663,65.0,27,30,0.0,0.0
664,66.0,26,30,0.0,0.0
665,61.0,6,30,0.0,0.0
666,51.0,1,30,0.0,0.0
667,58.0,0,30,0.0,0.0
668,67.0,27,30,0.0,0.0
669,68.0,25,30,0.0,0.0
670,66.0,34,30,0.0,0.0
671,67.0,34,30,0.0,0.0
672,80.0,3,90,0.0,0.0
673,68.0,31,30,0.0,0.0
674,56.0,0,90,0.0,0.0
675,44.0,0,90,0.0,0.0
676,70.0,27,30,0.0,0.0
677,67.0,49,30,0.0,0.0
678,68.0,23,60,0.0,0.0
679,60.0,1,20,0.0,0.0
680,56.0,1,20,0.0,0.0
681,63.0,10,20,0.0,0.0
682,70.0,37,20,0.0,0.0
683,67.0,26,30,0.0,0.0
684,68.0,30,30,0.0,0.0
685,69.0,24,30,0.0,0.0
686,61.0,2,60,0.0,0.0
687,64.0,0,60,0.0,0.0
688,55.0,25,60,0.0,0.0
689,70.0,6,30,0.0,0.0
690,68.0,33,30,0.0,0.0
691,69.0,26,30,0.0,0.0
692,70.0,24,30,0.0,0.0
693,54.0,1,60,0.0,0.0
694,61.0,0,60,0.0,0.0
695,64.0,30,60,0.0,0.0
696,71.0,6,20,0.0,0.0
697,69.0,28,30,0.0,0.0
698,70.0,36,30,0.0,0.0
699,83.0,9,120,0.0,0.0
700,59.0,7,120,0.0,0.0
701,71.0,26,30,0.0,0.0
702,47.0,33,120,0.0,0.0
703,72.0,30,30,0.0,0.0
704,70.0,13,30,0.0,0.0
705,71.0,26,60,0.0,0.0
706,63.0,1,60,0.0,0.0
707,59.0,0,60,0.0,0.0
708,66.0,20,60,0.0,0.0
709,72.0,4,30,0.0,0.0
710,70.0,31,30,0.0,0.0
711,71.0,38,30,0.0,0.0
712,59.0,2,60,0.0,0.0
713,72.0,23,30,0.0,0.0
714,67.0,0,60,0.0,0.0
715,64.0,28,60,0.0,0.0
716,73.0,3,30,0.0,0.0
717,71.0,27,30,0.0,0.0
718,72.0,28,30,0.0,0.0
719,73.0,31,30,0.0,0.0
720,65.0,30,60,0.0,0.0
721,59.0,0,60,0.0,0.0
722,68.0,0,60,0.0,0.0
723,74.0,1,30,0.0,0.0
724,72.0,26,30,0.0,0.0
725,73.0,28,30,0.0,0.0
726,66.0,1,60,0.0,0.0
727,69.0,3,60,0.0,0.0
728,74.0,29,30,0.0,0.0
729,59.0,27,60,0.0,0.0
730,75.0,1,30,0.0,0.0
731,73.0,35,30,0.0,0.0
732,74.0,32,30,0.0,0.0
733,70.0,22,60,0.0,0.0
734,75.0,20,30,0.0,0.0
735,59.0,1,60,0.0,0.0
736,67.0,10,60,0.0,0.0
737,76.0,6,20,0.0,0.0
738,74.0,39,30,0.0,0.0
739,75.0,20,30,0.0,0.0
740,76.0,28,30,0.0,0.0
741,71.0,0,60,0.0,0.0
742,68.0,1,60,0.0,0.0
743,59.0,33,60,0.0,0.0
744,77.0,2,30,0.0,0.0
745,75.0,24,30,0.0,0.0
746,76.0,30,30,0.0,0.0
747,59.0,0,60,0.0,0.0
748,72.0,26,90,0.0,0.0
749,69.0,6,60,0.0,0.0
750,77.0,30,30,0.0,0.0
751,78.0,24,30,0.0,0.0
752,76.0,0,30,0.0,0.0
753,77.0,32,30,0.0,0.0
754,70.0,1,60,0.0,0.0
755,59.0,3,60,0.0,0.0
756,78.0,28,30,0.0,0.0
757,73.0,23,120,0.0,0.0
758,79.0,33,30,0.0,0.0
759,78.0,26,30,0.0,0.0
760,76.0,6,30,0.0,0.0
761,71.0,22,90,0.0,0.0
762,59.0,5,90,0.0,0.0
763,75.0,37,30,0.0,0.0
764,76.0,23,30,0.0,0.0
765,74.0,6,30,0.0,0.0
766,75.0,33,30,0.0,0.0
767,76.0,18,30,0.0,0.0
768,67.0,5,30,0.0,0.0
769,71.0,32,90,0.0,0.0
770,78.0,17,30,0.0,0.0
771,66.0,9,30,0.0,0.0
772,67.0,5,20,0.0,0.0
773,75.0,6,60,0.0,0.0
774,76.0,16,60,0.0,0.0
775,59.0,9,30,0.0,0.0
776,81.0,30,30,0.0,0.0
777,60.0,2,90,0.0,0.0
778,83.0,24,30,0.0,0.0
779,80.0,30,30,0.0,0.0
780,81.0,35,30,0.0,0.0
781,74.0,16,30,0.0,0.0
782,69.0,3,90,0.0,0.0
783,66.0,1,30,0.0,0.0
784,76.0,23,30,0.0,0.0
785,65.0,10,20,0.0,0.0
786,66.0,3,30,0.0,0.0
787,73.0,19,30,0.0,0.0
788,74.0,13,20,0.0,0.0
789,57.0,58,30,0.0,0.0
790,79.0,4,60,0.0,0.0
791,74.0,0,90,0.0,0.0
792,59.0,4,90,0.0,0.0
793,81.0,26,30,0.0,0.0
794,78.0,31,30,0.0,0.0
795,79.0,25,30,0.0,0.0
796,72.0,6,30,0.0,0.0
797,67.0,14,60,0.0,0.0
798,64.0,15,30,0.0,0.0
799,74.0,7,30,0.0,0.0
800,63.0,13,20,0.0,0.0
801,71.0,0,30,0.0,0.0
802,64.0,33,30,0.0,0.0
803,72.0,5,30,0.0,0.0
804,55.0,26,30,0.0,0.0
805,57.0,29,60,0.0,0.0
806,73.0,29,90,0.0,0.0
807,78.0,19,30,0.0,0.0
808,79.0,6,60,0.0,0.0
809,77.0,5,30,0.0,0.0
810,78.0,28,30,0.0,0.0
811,66.0,2,90,0.0,0.0
812,63.0,3,30,0.0,0.0
813,71.0,15,30,0.0,0.0
814,62.0,13,15,0.0,0.0
815,72.0,26,30,0.0,0.0
816,70.0,4,30,0.0,0.0
817,63.0,10,30,0.0,0.0
818,54.0,25,30,0.0,0.0
819,71.0,21,15,0.0,0.0
820,76.0,24,120,0.0,0.0
821,71.0,29,30,0.0,0.0
822,55.0,17,60,0.0,0.0
823,57.0,0,30,0.0,0.0
824,72.0,9,30,0.0,0.0
825,54.0,8,30,0.0,0.0
826,69.0,25,30,0.0,0.0
827,55.0,1,30,0.0,0.0
828,71.0,0,30,0.0,0.0
829,74.0,12,90,0.0,0.0
830,69.0,24,30,0.0,0.0
831,54.0,2,20,0.0,0.0
832,55.0,32,30,0.0,0.0
833,71.0,1,20,0.0,0.0
834,67.0,4,30,0.0,0.0
835,52.0,4,30,0.0,0.0
836,69.0,13,20,0.0,0.0
837,54.0,27,30,0.0,0.0
838,72.0,4,90,0.0,0.0
839,52.0,1,30,0.0,0.0
840,67.0,24,30,0.0,0.0
841,54.0,1,20,0.0,0.0
842,69.0,27,20,0.0,0.0
843,50.0,6,30,0.0,0.0
844,66.0,28,30,0.0,0.0
845,52.0,27,30,0.0,0.0
846,67.0,0,30,0.0,0.0
847,71.0,4,90,0.0,0.0
848,66.0,21,30,0.0,0.0
849,50.0,0,30,0.0,0.0
850,67.0,13,20,0.0,0.0
851,52.0,26,30,0.0,0.0
852,48.0,6,30,0.0,0.0
853,64.0,15,30,0.0,0.0
854,50.0,29,30,0.0,0.0
855,66.0,9,20,0.0,0.0
856,64.0,2,60,0.0,0.0
857,69.0,35,120,0.0,0.0
858,48.0,24,30,0.0,0.0
859,66.0,30,30,0.0,0.0
860,50.0,6,20,0.0,0.0
861,62.0,14,30,0.0,0.0
862,47.0,9,30,0.0,0.0
863,64.0,3,20,0.0,0.0
864,48.0,2,15,0.0,0.0
865,47.0,4,30,0.0,0.0
866,62.0,26,30,0.0,0.0
867,67.0,0,90,0.0,0.0
868,64.0,31,30,0.0,0.0
869,48.0,0,30,0.0,0.0
870,45.0,3,30,0.0,0.0
871,60.0,28,30,0.0,0.0
872,62.0,0,30,0.0,0.0
873,47.0,28,30,0.0,0.0
874,60.0,35,30,0.0,0.0
875,45.0,1,30,0.0,0.0
876,66.0,3,90,0.0,0.0
877,62.0,3,60,0.0,0.0
878,47.0,24,30,0.0,0.0
879,43.0,1,20,0.0,0.0
880,59.0,23,30,0.0,0.0
881,60.0,8,20,0.0,0.0
882,45.0,25,30,0.0,0.0
883,43.0,6,30,0.0,0.0
884,59.0,31,30,0.0,0.0
885,64.0,1,90,0.0,0.0
886,45.0,10,30,0.0,0.0
887,60.0,15,30,0.0,0.0
888,57.0,0,30,0.0,0.0
889,42.0,30,30,0.0,0.0
890,43.0,96,30,0.0,0.0
891,59.0,8,20,0.0,0.0
892,68.0,1,90,0.0,0.0
893,59.0,0,90,0.0,0.0
894,56.0,0,90,0.0,0.0
895,41.0,0,90,0.0,0.0
896,62.0,54,90,0.0,0.0
897,68.0,1,180,0.0,0.0
898,71.0,0,180,0.0,0.0
899,59.0,18,180,0.0,0.0
900,49.0,22,20,0.0,0.0
901,50.0,38,20,0.0,0.0
902,48.0,15,30,0.0,0.0
903,49.0,42,15,0.0,0.0
904,49.0,25,30,0.0,0.0
905,50.0,13,30,0.0,0.0
906,48.0,23,30,0.0,0.0
907,49.0,35,20,0.0,0.0
908,68.0,0,180,0.0,0.0
909,80.0,20,180,0.0,0.0
910,71.0,0,180,0.0,0.0
911,49.0,25,20,0.0,0.0
912,50.0,36,30,0.0,0.0
913,48.0,22,30,0.0,0.0
914,49.0,39,20,0.0,0.0
915,49.0,25,30,0.0,0.0
916,50.0,15,30,0.0,0.0
917,48.0,23,30,0.0,0.0
918,49.0,33,20,0.0,0.0
919,83.0,0,60,0.0,0.0
920,80.0,0,60,0.0,0.0
921,71.0,17,60,0.0,0.0
922,49.0,25,20,0.0,0.0
923,50.0,12,20,0.0,0.0
924,48.0,21,20,0.0,0.0
925,49.0,42,15,0.0,0.0
926,92.0,7,120,0.0,0.0
927,83.0,3,150,0.0,0.0
928,80.0,0,150,0.0,0.0
929,49.0,21,30,0.0,0.0
930,50.0,34,20,0.0,0.0
931,48.0,8,30,0.0,0.0
932,49.0,40,15,0.0,0.0
933,49.0,20,30,0.0,0.0
934,50.0,32,20,0.0,0.0
935,48.0,5,30,0.0,0.0
936,83.0,1,30,0.0,0.0
937,90.0,33,30,0.0,0.0
938,78.0,0,30,0.0,0.0
939,49.0,44,30,0.0,0.0
940,89.0,0,90,0.0,0.0
941,83.0,61,90,0.0,0.0
942,77.0,0,90,0.0,0.0
943,50.0,54,60,0.0,0.0
944,80.0,8,30,0.0,0.0
945,83.0,22,30,0.0,0.0
946,74.0,1,30,0.0,0.0
947,85.0,21,30,0.0,0.0
948,71.0,3,30,0.0,0.0
949,83.0,30,30,0.0,0.0
950,92.0,1,30,0.0,0.0
951,65.0,32,30,0.0,0.0
952,77.0,21,30,0.0,0.0
953,80.0,2,30,0.0,0.0
954,82.0,4,30,0.0,0.0
955,71.0,28,30,0.0,0.0
956,68.0,28,30,0.0,0.0
957,80.0,0,30,0.0,0.0
958,62.0,0,30,0.0,0.0
959,89.0,30,30,0.0,0.0
960,77.0,9,30,0.0,0.0
961,74.0,16,30,0.0,0.0
962,78.0,6,30,0.0,0.0
963,68.0,23,30,0.0,0.0
964,77.0,1,30,0.0,0.0
965,65.0,25,30,0.0,0.0
966,86.0,1,30,0.0,0.0
967,59.0,30,30,0.0,0.0
968,74.0,25,30,0.0,0.0
969,71.0,0,60,0.0,0.0
970,65.0,18,30,0.0,0.0
971,76.0,7,30,0.0,0.0
972,62.0,3,30,0.0,0.0
973,74.0,30,30,0.0,0.0
974,56.0,30,30,0.0,0.0
975,83.0,11,60,0.0,0.0
976,71.0,7,30,0.0,0.0
977,68.0,17,30,0.0,0.0
978,73.0,5,30,0.0,0.0
979,62.0,17,30,0.0,0.0
980,59.0,5,20,0.0,0.0
981,71.0,34,30,0.0,0.0
982,80.0,9,60,0.0,0.0
983,53.0,29,30,0.0,0.0
984,68.0,2,30,0.0,0.0
985,65.0,22,30,0.0,0.0
986,70.0,0,30,0.0,0.0
987,59.0,27,30,0.0,0.0
988,56.0,0,30,0.0,0.0
989,68.0,31,30,0.0,0.0
990,77.0,2,60,0.0,0.0
991,50.0,30,30,0.0,0.0
992,65.0,8,30,0.0,0.0
993,62.0,22,30,0.0,0.0
994,56.0,22,30,0.0,0.0
995,66.0,5,30,0.0,0.0
996,65.0,1,30,0.0,0.0
997,53.0,30,30,0.0,0.0
998,47.0,94,30,0.0,0.0
999,74.0,1,30,0.0,0.0
1000,70.0,0,90,0.0,0.0
1001,73.0,2,90,0.0,0.0
1002,61.0,0,90,0.0,0.0
1003,43.0,71,90,0.0,0.0
1004,61.0,7,180,0.0,0.0
1005,73.0,6,210,0.0,0.0
1006,70.0,11,180,0.0,0.0
1007,51.0,30,30,0.0,0.0
1008,52.0,33,30,0.0,0.0
1009,50.0,15,30,0.0,0.0
1010,51.0,44,15,0.0,0.0
1011,51.0,30,30,0.0,0.0
1012,52.0,4,30,0.0,0.0
1013,50.0,18,30,0.0,0.0
1014,51.0,47,15,0.0,0.0
1015,82.0,20,180,0.0,0.0
1016,70.0,0,180,0.0,0.0
1017,73.0,0,180,0.0,0.0
1018,51.0,26,30,0.0,0.0
1019,52.0,33,20,0.0,0.0
1020,50.0,10,30,0.0,0.0
1021,51.0,52,15,0.0,0.0
1022,51.0,29,30,0.0,0.0
1023,52.0,10,30,0.0,0.0
1024,50.0,16,30,0.0,0.0
1025,51.0,45,15,0.0,0.0
1026,73.0,20,60,0.0,0.0
1027,85.0,0,60,0.0,0.0
1028,82.0,0,60,0.0,0.0
1029,51.0,25,20,0.0,0.0
1030,52.0,10,20,0.0,0.0
1031,50.0,18,20,0.0,0.0
1032,51.0,45,15,0.0,0.0
1033,82.0,21,150,0.0,0.0
1034,94.0,1,150,0.0,0.0
1035,51.0,32,30,0.0,0.0
1036,85.0,4,150,0.0,0.0
1037,52.0,27,30,0.0,0.0
1038,50.0,10,30,0.0,0.0
1039,51.0,47,15,0.0,0.0
1040,51.0,1,30,0.0,0.0
1041,52.0,35,20,0.0,0.0
1042,50.0,19,30,0.0,0.0
1043,92.0,22,60,0.0,0.0
1044,80.0,1,60,0.0,0.0
1045,85.0,6,60,0.0,0.0
1046,51.0,48,30,0.0,0.0
1047,91.0,55,120,0.0,0.0
1048,85.0,8,90,0.0,0.0
1049,79.0,0,90,0.0,0.0
1050,52.0,45,60,0.0,0.0
1051,85.0,8,30,0.0,0.0
1052,79.0,16,30,0.0,0.0
1053,87.0,22,30,0.0,0.0
1054,73.0,1,30,0.0,0.0
1055,70.0,3,30,0.0,0.0
1056,85.0,29,30,0.0,0.0
1057,94.0,1,30,0.0,0.0
1058,64.0,27,30,0.0,0.0
1059,82.0,10,30,0.0,0.0
1060,76.0,15,30,0.0,0.0
1061,70.0,26,30,0.0,0.0
1062,84.0,4,30,0.0,0.0
1063,82.0,0,30,0.0,0.0
1064,67.0,28,30,0.0,0.0
1065,61.0,34,30,0.0,0.0
1066,91.0,0,30,0.0,0.0
1067,73.0,19,30,0.0,0.0
1068,79.0,8,30,0.0,0.0
1069,67.0,5,30,0.0,0.0
1070,80.0,15,30,0.0,0.0
1071,64.0,6,30,0.0,0.0
1072,79.0,16,30,0.0,0.0
1073,58.0,12,20,0.0,0.0
1074,88.0,35,30,0.0,0.0
1075,70.0,27,60,0.0,0.0
1076,76.0,21,30,0.0,0.0
1077,78.0,2,30,0.0,0.0
1078,64.0,0,30,0.0,0.0
1079,76.0,10,30,0.0,0.0
1080,61.0,22,30,0.0,0.0
1081,55.0,30,30,0.0,0.0
1082,85.0,0,30,0.0,0.0
1083,67.0,21,30,0.0,0.0
1084,73.0,5,30,0.0,0.0
1085,61.0,21,30,0.0,0.0
1086,75.0,3,30,0.0,0.0
1087,58.0,7,30,0.0,0.0
1088,73.0,26,30,0.0,0.0
1089,52.0,1,30,0.0,0.0
1090,82.0,29,30,0.0,0.0
1091,70.0,4,30,0.0,0.0
1092,64.0,23,30,0.0,0.0
1093,72.0,3,30,0.0,0.0
1094,58.0,26,30,0.0,0.0
1095,70.0,27,30,0.0,0.0
1096,55.0,2,30,0.0,0.0
1097,79.0,0,30,0.0,0.0
1098,49.0,34,30,0.0,0.0
1099,61.0,21,30,0.0,0.0
1100,67.0,5,30,0.0,0.0
1101,68.0,7,30,0.0,0.0
1102,55.0,20,30,0.0,0.0
1103,52.0,1,30,0.0,0.0
1104,67.0,28,30,0.0,0.0
1105,76.0,1,30,0.0,0.0
1106,46.0,50,30,0.0,0.0
1107,63.0,0,60,0.0,0.0
1108,47.0,12,30,0.0,0.0
1109,75.0,30,30,0.0,0.0
1110,51.0,1,30,0.0,0.0
1111,76.0,4,30,0.0,0.0
1112,55.0,29,30,0.0,0.0
1113,75.0,19,30,0.0,0.0
1114,56.0,8,30,0.0,0.0
1115,58.0,30,30,0.0,0.0
1116,73.0,3,30,0.0,0.0
1117,71.0,2,30,0.0,0.0
1118,59.0,25,30,0.0,0.0
1119,61.0,5,30,0.0,0.0
1120,70.0,22,30,0.0,0.0
1121,63.0,4,20,0.0,0.0
1122,68.0,40,30,0.0,0.0
1123,64.0,10,60,0.0,0.0
1124,67.0,14,30,0.0,0.0
1125,58.0,25,30,0.0,0.0
1126,68.0,4,30,0.0,0.0
1127,55.0,0,30,0.0,0.0
1128,67.0,27,30,0.0,0.0
1129,49.0,3,30,0.0,0.0
1130,76.0,36,30,0.0,0.0
1131,61.0,23,30,0.0,0.0
1132,64.0,4,30,0.0,0.0
1133,55.0,14,30,0.0,0.0
1134,66.0,12,30,0.0,0.0
1135,52.0,1,30,0.0,0.0
1136,64.0,33,30,0.0,0.0
1137,46.0,0,30,0.0,0.0
1138,73.0,63,30,0.0,0.0
1139,63.0,0,60,0.0,0.0
1140,47.0,2,60,0.0,0.0
1141,51.0,2,30,0.0,0.0
1142,75.0,32,30,0.0,0.0
1143,76.0,29,30,0.0,0.0
1144,55.0,2,30,0.0,0.0
1145,75.0,23,30,0.0,0.0
1146,56.0,6,30,0.0,0.0
1147,58.0,1,30,0.0,0.0
1148,73.0,23,30,0.0,0.0
1149,71.0,29,30,0.0,0.0
1150,59.0,6,30,0.0,0.0
1151,70.0,2,30,0.0,0.0
1152,61.0,23,30,0.0,0.0
1153,68.0,5,30,0.0,0.0
1154,63.0,39,30,0.0,0.0
1155,69.0,25,30,0.0,0.0
1156,66.0,4,90,0.0,0.0
1157,60.0,21,30,0.0,0.0
1158,70.0,4,30,0.0,0.0
1159,57.0,0,30,0.0,0.0
1160,69.0,30,30,0.0,0.0
1161,78.0,0,30,0.0,0.0
1162,51.0,33,30,0.0,0.0
1163,66.0,26,30,0.0,0.0
1164,63.0,4,60,0.0,0.0
1165,68.0,17,30,0.0,0.0
1166,57.0,17,60,0.0,0.0
1167,54.0,20,30,0.0,0.0
1168,66.0,4,30,0.0,0.0
1169,48.0,0,30,0.0,0.0
1170,75.0,32,30,0.0,0.0
1171,65.0,33,30,0.0,0.0
1172,49.0,0,30,0.0,0.0
1173,77.0,25,30,0.0,0.0
1174,53.0,3,30,0.0,0.0
1175,57.0,8,30,0.0,0.0
1176,78.0,19,30,0.0,0.0
1177,77.0,20,30,0.0,0.0
1178,58.0,12,30,0.0,0.0
1179,75.0,15,30,0.0,0.0
1180,60.0,11,30,0.0,0.0
1181,73.0,8,30,0.0,0.0
1182,61.0,22,30,0.0,0.0
1183,63.0,16,30,0.0,0.0
1184,72.0,4,30,0.0,0.0
1185,70.0,8,20,0.0,0.0
1186,65.0,39,30,0.0,0.0
1187,71.0,1,30,0.0,0.0
1188,68.0,27,30,0.0,0.0
1189,62.0,15,30,0.0,0.0
1190,73.0,0,30,0.0,0.0
1191,59.0,7,20,0.0,0.0
1192,71.0,29,30,0.0,0.0
1193,80.0,5,60,0.0,0.0
1194,53.0,29,30,0.0,0.0
1195,68.0,8,30,0.0,0.0
1196,65.0,16,30,0.0,0.0
1197,59.0,3,30,0.0,0.0
1198,70.0,23,30,0.0,0.0
1199,56.0,32,30,0.0,0.0
1200,68.0,3,30,0.0,0.0
1201,50.0,30,30,0.0,0.0
1202,77.0,3,60,0.0,0.0
1203,72.0,6,30,0.0,0.0
1204,69.0,22,30,0.0,0.0
1205,73.0,22,30,0.0,0.0
1206,63.0,3,30,0.0,0.0
1207,60.0,4,30,0.0,0.0
1208,72.0,28,30,0.0,0.0
1209,81.0,10,60,0.0,0.0
1210,54.0,26,30,0.0,0.0
1211,66.0,18,30,0.0,0.0
1212,69.0,4,30,0.0,0.0
1213,60.0,22,30,0.0,0.0
1214,70.0,2,30,0.0,0.0
1215,69.0,1,30,0.0,0.0
1216,57.0,29,30,0.0,0.0
1217,78.0,11,60,0.0,0.0
1218,51.0,28,30,0.0,0.0
1219,73.0,6,30,0.0,0.0
1220,70.0,21,30,0.0,0.0
1221,75.0,20,30,0.0,0.0
1222,64.0,4,30,0.0,0.0
1223,73.0,3,30,0.0,0.0
1224,61.0,27,30,0.0,0.0
1225,55.0,30,30,0.0,0.0
1226,82.0,4,60,0.0,0.0
1227,70.0,29,30,0.0,0.0
1228,67.0,3,60,0.0,0.0
1229,72.0,4,30,0.0,0.0
1230,61.0,18,30,0.0,0.0
1231,70.0,0,30,0.0,0.0
1232,58.0,32,30,0.0,0.0
1233,52.0,30,30,0.0,0.0
1234,79.0,35,60,0.0,0.0
1235,66.0,3,360,0.0,0.0
1236,69.0,4,60,0.0,0.0
1237,56.0,0,360,0.0,0.0
1238,63.0,0,360,0.0,0.0
1239,72.0,17,60,0.0,0.0
1240,75.0,17,30,0.0,0.0
1241,78.0,25,30,0.0,0.0
1242,81.0,68,30,0.0,0.0
1243,84.0,14,60,0.0,0.0
1244,68.0,1,240,0.0,0.0
1245,87.0,16,60,0.0,0.0
1246,90.0,21,30,0.0,0.0
1247,93.0,59,30,0.0,0.0
1248,96.0,6,60,0.0,0.0
1249,87.0,24,30,0.0,0.0
1250,88.0,33,30,0.0,0.0
1251,92.0,30,30,0.0,0.0
1252,90.0,23,30,0.0,0.0
1253,84.0,27,30,0.0,0.0
1254,72.0,7,30,0.0,0.0
1255,85.0,31,30,0.0,0.0
1256,88.0,27,30,0.0,0.0
1257,76.0,5,30,0.0,0.0
1258,87.0,1,30,0.0,0.0
1259,75.0,36,30,0.0,0.0
1260,66.0,2,30,0.0,0.0
1261,78.0,20,30,0.0,0.0
1262,80.0,37,30,0.0,0.0
1263,68.0,3,30,0.0,0.0
1264,71.0,2,30,0.0,0.0
1265,83.0,14,30,0.0,0.0
1266,81.0,32,30,0.0,0.0
1267,69.0,8,20,0.0,0.0
1268,72.0,1,30,0.0,0.0
1269,60.0,26,30,0.0,0.0
1270,73.0,3,30,0.0,0.0
1271,61.0,29,30,0.0,0.0
1272,64.0,7,30,0.0,0.0
1273,76.0,25,30,0.0,0.0
1274,63.0,35,30,0.0,0.0
1275,75.0,0,30,0.0,0.0
1276,54.0,20,30,0.0,0.0
1277,66.0,2,30,0.0,0.0
1278,68.0,34,30,0.0,0.0
1279,56.0,5,20,0.0,0.0
1280,59.0,1,30,0.0,0.0
1281,71.0,22,30,0.0,0.0
1282,57.0,7,30,0.0,0.0
1283,69.0,25,30,0.0,0.0
1284,54.0,1,30,0.0,0.0
1285,66.0,26,30,0.0,0.0
1286,50.0,37,30,0.0,0.0
1287,62.0,3,30,0.0,0.0
1288,61.0,0,30,0.0,0.0
1289,49.0,61,30,0.0,0.0
1290,36.0,0,60,0.0,0.0
1291,68.0,0,60,0.0,0.0
1292,66.0,32,60,0.0,0.0
1293,63.0,0,60,0.0,0.0
1294,56.0,0,60,0.0,0.0
1295,48.0,7,60,0.0,0.0
1296,63.0,29,20,0.0,0.0
1297,64.0,26,30,0.0,0.0
1298,65.0,24,20,0.0,0.0
1299,66.0,32,20,0.0,0.0
1300,65.0,26,30,0.0,0.0
1301,66.0,28,30,0.0,0.0
1302,67.0,28,30,0.0,0.0
1303,68.0,28,30,0.0,0.0
1304,66.0,30,30,0.0,0.0
1305,67.0,28,30,0.0,0.0
1306,68.0,32,30,0.0,0.0
1307,69.0,19,30,0.0,0.0
1308,63.0,26,20,0.0,0.0
1309,64.0,1,20,0.0,0.0
1310,44.0,11,15,0.0,0.0
1311,51.0,2,15,0.0,0.0
1312,54.0,3,15,0.0,0.0
1313,65.0,26,30,0.0,0.0
1314,60.0,22,15,0.0,0.0
1315,66.0,32,30,0.0,0.0
1316,64.0,25,30,0.0,0.0
1317,65.0,36,30,0.0,0.0
1318,66.0,25,30,0.0,0.0
1319,67.0,36,20,0.0,0.0
1320,65.0,29,30,0.0,0.0
1321,66.0,35,30,0.0,0.0
1322,67.0,25,30,0.0,0.0
1323,68.0,28,30,0.0,0.0
1324,66.0,37,30,0.0,0.0
1325,67.0,33,30,0.0,0.0
1326,68.0,24,30,0.0,0.0
1327,69.0,26,30,0.0,0.0
1328,63.0,31,30,0.0,0.0
1329,64.0,3,30,0.0,0.0
1330,44.0,13,30,0.0,0.0
1331,51.0,16,30,0.0,0.0
1332,54.0,1,30,0.0,0.0
1333,60.0,36,30,0.0,0.0
1334,65.0,1,30,0.0,0.0
1335,66.0,35,30,0.0,0.0
1336,64.0,30,30,0.0,0.0
1337,65.0,31,30,0.0,0.0
1338,66.0,25,30,0.0,0.0
1339,67.0,39,20,0.0,0.0
1340,65.0,28,30,0.0,0.0
1341,66.0,37,30,0.0,0.0
1342,67.0,23,30,0.0,0.0
1343,68.0,34,30,0.0,0.0
1344,66.0,36,30,0.0,0.0
1345,67.0,29,30,0.0,0.0
1346,68.0,16,30,0.0,0.0
1347,69.0,45,20,0.0,0.0
1348,67.0,25,30,0.0,0.0
1349,68.0,30,30,0.0,0.0
1350,69.0,24,30,0.0,0.0
1351,70.0,34,30,0.0,0.0
1352,68.0,30,30,0.0,0.0
1353,69.0,29,30,0.0,0.0
1354,70.0,19,30,0.0,0.0
1355,71.0,41,20,0.0,0.0
1356,69.0,26,30,0.0,0.0
1357,70.0,25,30,0.0,0.0
1358,71.0,27,30,0.0,0.0
1359,72.0,31,30,0.0,0.0
1360,70.0,31,30,0.0,0.0
1361,71.0,27,30,0.0,0.0
1362,72.0,2,30,0.0,0.0
1363,44.0,24,30,0.0,0.0
1364,42.0,8,30,0.0,0.0
1365,73.0,29,30,0.0,0.0
1366,71.0,4,30,0.0,0.0
1367,40.0,26,30,0.0,0.0
1368,72.0,26,30,0.0,0.0
1369,39.0,2,30,0.0,0.0
1370,37.0,7,30,0.0,0.0
1371,73.0,20,30,0.0,0.0
1372,75.0,41,30,0.0,0.0
1373,72.0,28,30,0.0,0.0
1374,73.0,24,30,0.0,0.0
1375,66.0,3,30,0.0,0.0
1376,75.0,24,30,0.0,0.0
1377,69.0,2,30,0.0,0.0
1378,76.0,38,30,0.0,0.0
1379,73.0,26,30,0.0,0.0
1380,75.0,27,30,0.0,0.0
1381,76.0,24,30,0.0,0.0
1382,64.0,1,30,0.0,0.0
1383,68.0,1,30,0.0,0.0
1384,78.0,38,30,0.0,0.0
1385,75.0,31,30,0.0,0.0
1386,76.0,20,30,0.0,0.0
1387,66.0,1,30,0.0,0.0
1388,63.0,12,30,0.0,0.0
1389,78.0,15,30,0.0,0.0
1390,80.0,36,20,0.0,0.0
1391,76.0,36,30,0.0,0.0
1392,78.0,24,30,0.0,0.0
1393,64.0,12,30,0.0,0.0
1394,61.0,0,30,0.0,0.0
1395,80.0,10,30,0.0,0.0
1396,81.0,38,30,0.0,0.0
1397,80.0,38,30,0.0,0.0
1398,85.0,13,30,0.0,0.0
1399,78.0,18,30,0.0,0.0
1400,66.0,0,30,0.0,0.0
1401,57.0,6,30,0.0,0.0
1402,61.0,5,20,0.0,0.0
1403,80.0,33,20,0.0,0.0
1404,78.0,39,30,0.0,0.0
1405,85.0,17,30,0.0,0.0
1406,56.0,2,30,0.0,0.0
1407,76.0,25,30,0.0,0.0
1408,64.0,0,30,0.0,0.0
1409,61.0,5,30,0.0,0.0
1410,78.0,29,30,0.0,0.0
1411,76.0,44,30,0.0,0.0
1412,85.0,15,30,0.0,0.0
1413,75.0,3,30,0.0,0.0
1414,63.0,1,30,0.0,0.0
1415,54.0,0,30,0.0,0.0
1416,61.0,24,30,0.0,0.0
1417,76.0,33,30,0.0,0.0
1418,75.0,31,30,0.0,0.0
1419,85.0,49,30,0.0,0.0
1420,56.0,8,60,0.0,0.0
1421,64.0,9,30,0.0,0.0
1422,73.0,0,60,0.0,0.0
1423,49.0,28,60,0.0,0.0
1424,80.0,3,60,0.0,0.0
1425,88.0,23,30,0.0,0.0
1426,81.0,33,30,0.0,0.0
1427,44.0,0,30,0.0,0.0
1428,72.0,51,30,0.0,0.0
1429,54.0,0,30,0.0,0.0
1430,60.0,3,30,0.0,0.0
1431,78.0,4,60,0.0,0.0
1432,87.0,30,30,0.0,0.0
1433,80.0,26,30,0.0,0.0
1434,61.0,0,30,0.0,0.0
1435,68.0,0,30,0.0,0.0
1436,52.0,45,30,0.0,0.0
1437,49.0,0,30,0.0,0.0
1438,76.0,14,60,0.0,0.0
1439,85.0,37,30,0.0,0.0
1440,78.0,24,30,0.0,0.0
1441,68.0,26,30,0.0,0.0
1442,44.0,8,30,0.0,0.0
1443,56.0,0,30,0.0,0.0
1444,75.0,31,30,0.0,0.0
1445,84.0,29,30,0.0,0.0
1446,76.0,59,30,0.0,0.0
1447,37.0,0,60,0.0,0.0
1448,49.0,0,60,0.0,0.0
1449,85.0,35,60,0.0,0.0
1450,73.0,6,120,0.0,0.0
1451,69.0,26,30,0.0,0.0
1452,57.0,0,30,0.0,0.0
1453,45.0,0,30,0.0,0.0
1454,81.0,30,30,0.0,0.0
1455,68.0,14,60,0.0,0.0
1456,56.0,10,30,0.0,0.0
1457,44.0,5,30,0.0,0.0
1458,80.0,32,30,0.0,0.0
1459,67.0,28,30,0.0,0.0
1460,43.0,2,30,0.0,0.0
1461,55.0,0,30,0.0,0.0
1462,79.0,34,30,0.0,0.0
1463,68.0,22,30,0.0,0.0
1464,56.0,7,30,0.0,0.0
1465,44.0,0,30,0.0,0.0
1466,80.0,32,30,0.0,0.0
1467,49.0,0,30,0.0,0.0
1468,37.0,1,30,0.0,0.0
1469,61.0,29,30,0.0,0.0
1470,73.0,39,30,0.0,0.0
1471,75.0,0,60,0.0,0.0
1472,61.0,21,60,0.0,0.0
1473,51.0,21,30,0.0,0.0
1474,63.0,7,60,0.0,0.0
1475,67.0,2,60,0.0,0.0
1476,70.0,2,60,0.0,0.0
1477,49.0,2,30,0.0,0.0
1478,47.0,31,30,0.0,0.0
1479,46.0,16,30,0.0,0.0
1480,71.0,4,20,0.0,0.0
1481,68.0,2,30,0.0,0.0
1482,44.0,3,30,0.0,0.0
1483,59.0,5,15,0.0,0.0
1484,63.0,22,30,0.0,0.0
1485,46.0,36,20,0.0,0.0
1486,43.0,29,30,0.0,0.0
1487,44.0,27,30,0.0,0.0
1488,61.0,1,60,0.0,0.0
1489,63.0,1,60,0.0,0.0
1490,67.0,28,60,0.0,0.0
1491,46.0,32,30,0.0,0.0
1492,47.0,1,30,0.0,0.0
1493,44.0,23,30,0.0,0.0
1494,46.0,29,30,0.0,0.0
1495,68.0,1,60,0.0,0.0
1496,47.0,35,30,0.0,0.0
1497,63.0,0,60,0.0,0.0
1498,59.0,20,60,0.0,0.0
1499,49.0,0,30,0.0,0.0
1500,46.0,33,20,0.0,0.0
1501,47.0,32,30,0.0,0.0
1502,68.0,1,60,0.0,0.0
1503,64.0,2,60,0.0,0.0
1504,61.0,0,60,0.0,0.0
1505,49.0,29,30,0.0,0.0
1506,51.0,23,30,0.0,0.0
1507,47.0,39,20,0.0,0.0
1508,49.0,23,30,0.0,0.0
1509,51.0,22,30,0.0,0.0
1510,68.0,11,60,0.0,0.0
1511,59.0,12,60,0.0,0.0
1512,63.0,0,60,0.0,0.0
1513,52.0,10,20,0.0,0.0
1514,51.0,29,30,0.0,0.0
1515,56.0,28,30,0.0,0.0
1516,68.0,0,60,0.0,0.0
1517,64.0,29,60,0.0,0.0
1518,61.0,0,60,0.0,0.0
1519,49.0,30,30,0.0,0.0
1520,51.0,4,30,0.0,0.0
1521,49.0,21,30,0.0,0.0
1522,56.0,39,20,0.0,0.0
1523,63.0,0,60,0.0,0.0
1524,68.0,24,60,0.0,0.0
1525,47.0,30,30,0.0,0.0
1526,49.0,0,30,0.0,0.0
1527,47.0,29,20,0.0,0.0
1528,56.0,33,20,0.0,0.0
1529,61.0,0,60,0.0,0.0
1530,63.0,0,60,0.0,0.0
1531,70.0,2,60,0.0,0.0
1532,46.0,34,30,0.0,0.0
1533,47.0,18,30,0.0,0.0
1534,46.0,32,20,0.0,0.0
1535,55.0,38,30,0.0,0.0
1536,44.0,5,30,0.0,0.0
1537,59.0,15,30,0.0,0.0
1538,63.0,2,60,0.0,0.0
1539,68.0,3,60,0.0,0.0
1540,71.0,31,60,0.0,0.0
1541,52.0,2,30,0.0,0.0
1542,59.0,20,30,0.0,0.0
1543,51.0,34,20,0.0,0.0
1544,82.0,9,90,0.0,0.0
1545,75.0,0,90,0.0,0.0
1546,87.0,0,90,0.0,0.0
1547,43.0,33,30,0.0,0.0
1548,52.0,28,30,0.0,0.0
1549,58.0,15,30,0.0,0.0
1550,51.0,35,30,0.0,0.0
1551,83.0,0,90,0.0,0.0
1552,75.0,1,90,0.0,0.0
1553,80.0,23,90,0.0,0.0
1554,44.0,25,30,0.0,0.0
1555,52.0,33,30,0.0,0.0
1556,59.0,1,30,0.0,0.0
1557,51.0,27,30,0.0,0.0
1558,75.0,0,120,0.0,0.0
1559,63.0,8,120,0.0,0.0
1560,70.0,5,120,0.0,0.0
1561,43.0,35,20,0.0,0.0
1562,52.0,33,30,0.0,0.0
1563,58.0,15,30,0.0,0.0
1564,51.0,61,30,0.0,0.0
1565,71.0,1,60,0.0,0.0
1566,63.0,4,60,0.0,0.0
1567,56.0,41,60,0.0,0.0
1568,44.0,0,60,0.0,0.0
1569,64.0,18,30,0.0,0.0
1570,61.0,13,60,0.0,0.0
1571,67.0,24,30,0.0,0.0
1572,63.0,18,30,0.0,0.0
1573,59.0,5,30,0.0,0.0
1574,68.0,47,20,0.0,0.0
1575,64.0,25,30,0.0,0.0
1576,67.0,2,30,0.0,0.0
1577,70.0,15,30,0.0,0.0
1578,63.0,8,30,0.0,0.0
1579,66.0,18,30,0.0,0.0
1580,71.0,49,20,0.0,0.0
1581,69.0,17,30,0.0,0.0
1582,66.0,3,60,0.0,0.0
1583,72.0,26,30,0.0,0.0
1584,64.0,3,30,0.0,0.0
1585,68.0,19,30,0.0,0.0
1586,73.0,37,20,0.0,0.0
1587,72.0,19,30,0.0,0.0
1588,66.0,5,30,0.0,0.0
1589,56.0,5,60,0.0,0.0
1590,63.0,9,60,0.0,0.0
1591,75.0,42,30,0.0,0.0
1592,61.0,0,60,0.0,0.0
1593,73.0,7,60,0.0,0.0
1594,64.0,11,60,0.0,0.0
1595,75.0,39,30,0.0,0.0
1596,72.0,26,30,0.0,0.0
1597,73.0,25,30,0.0,0.0
1598,69.0,1,30,0.0,0.0
1599,75.0,19,30,0.0,0.0
1600,66.0,5,30,0.0,0.0
1601,76.0,42,20,0.0,0.0
1602,73.0,24,30,0.0,0.0
1603,75.0,29,30,0.0,0.0
1604,76.0,22,30,0.0,0.0
1605,68.0,3,30,0.0,0.0
1606,64.0,0,30,0.0,0.0
1607,78.0,39,30,0.0,0.0
1608,75.0,31,30,0.0,0.0
1609,76.0,22,30,0.0,0.0
1610,66.0,4,30,0.0,0.0
1611,63.0,4,30,0.0,0.0
1612,78.0,20,30,0.0,0.0
1613,80.0,41,20,0.0,0.0
1614,76.0,32,30,0.0,0.0
1615,78.0,8,30,0.0,0.0
1616,61.0,15,20,0.0,0.0
1617,64.0,3,15,0.0,0.0
1618,80.0,22,30,0.0,0.0
1619,81.0,37,30,0.0,0.0
1620,80.0,50,30,0.0,0.0
1621,85.0,5,60,0.0,0.0
1622,57.0,0,30,0.0,0.0
1623,66.0,5,30,0.0,0.0
1624,78.0,32,30,0.0,0.0
1625,61.0,2,30,0.0,0.0
1626,80.0,23,30,0.0,0.0
1627,78.0,52,30,0.0,0.0
1628,85.0,15,60,0.0,0.0
1629,76.0,24,30,0.0,0.0
1630,56.0,0,60,0.0,0.0
1631,64.0,1,60,0.0,0.0
1632,61.0,28,60,0.0,0.0
1633,78.0,0,30,0.0,0.0
1634,76.0,59,30,0.0,0.0
1635,85.0,15,60,0.0,0.0
1636,75.0,14,30,0.0,0.0
1637,54.0,0,60,0.0,0.0
1638,63.0,35,60,0.0,0.0
1639,61.0,0,60,0.0,0.0
1640,76.0,4,30,0.0,0.0
1641,75.0,73,30,0.0,0.0
1642,85.0,8,90,0.0,0.0
1643,49.0,7,60,0.0,0.0
1644,56.0,0,60,0.0,0.0
1645,64.0,0,60,0.0,0.0
1646,73.0,3,60,0.0,0.0
1647,80.0,29,30,0.0,0.0
1648,88.0,29,30,0.0,0.0
1649,81.0,61,30,0.0,0.0
1650,54.0,1,60,0.0,0.0
1651,45.0,0,60,0.0,0.0
1652,63.0,2,60,0.0,0.0
1653,72.0,30,60,0.0,0.0
1654,78.0,25,60,0.0,0.0
1655,87.0,60,60,0.0,0.0
1656,80.0,3,30,0.0,0.0
1657,45.0,7,60,0.0,0.0
1658,52.0,8,60,0.0,0.0
1659,61.0,4,60,0.0,0.0
1660,69.0,0,60,0.0,0.0
1661,75.0,38,60,0.0,0.0
1662,85.0,40,60,0.0,0.0
1663,76.0,3,30,0.0,0.0
1664,62.0,1,60,0.0,0.0
1665,68.0,0,60,0.0,0.0
1666,65.0,1,60,0.0,0.0
1667,53.0,17,30,0.0,0.0
1668,59.0,56,60,0.0,0.0
1669,73.0,1,30,0.0,0.0
1670,83.0,42,60,0.0,0.0
1671,74.0,3,30,0.0,0.0
1672,69.0,14,60,0.0,0.0
1673,54.0,0,30,0.0,0.0
1674,66.0,18,30,0.0,0.0
1675,61.0,1,30,0.0,0.0
1676,73.0,12,60,0.0,0.0
1677,81.0,1,30,0.0,0.0
1678,50.0,18,30,0.0,0.0
1679,62.0,0,30,0.0,0.0
1680,78.0,38,20,0.0,0.0
1681,81.0,15,60,0.0,0.0
1682,61.0,1,30,0.0,0.0
1683,49.0,28,30,0.0,0.0
1684,85.0,10,30,0.0,0.0
1685,45.0,32,30,0.0,0.0
1686,57.0,0,30,0.0,0.0
1687,93.0,0,60,0.0,0.0
1688,90.0,23,30,0.0,0.0
1689,54.0,1,30,0.0,0.0
1690,42.0,2,30,0.0,0.0
1691,85.0,24,30,0.0,0.0
1692,81.0,28,30,0.0,0.0
1693,37.0,0,30,0.0,0.0
1694,49.0,10,30,0.0,0.0
1695,78.0,20,30,0.0,0.0
1696,73.0,33,30,0.0,0.0
1697,50.0,32,60,0.0,0.0
1698,38.0,27,120,0.0,0.0
1699,69.0,38,30,0.0,0.0
1700,66.0,11,90,0.0,0.0
1701,62.0,6,30,0.0,0.0
1702,57.0,11,15,0.0,0.0
1703,41.0,29,30,0.0,0.0
1704,62.0,22,330,0.0,0.0
1705,68.0,18,120,0.0,0.0
1706,59.0,1,330,0.0,0.0
1707,42.0,37,30,0.0,0.0
1708,40.0,33,30,0.0,0.0
1709,41.0,9,30,0.0,0.0
1710,42.0,32,30,0.0,0.0
1711,66.0,25,120,0.0,0.0
1712,44.0,26,30,0.0,0.0
1713,41.0,31,30,0.0,0.0
1714,42.0,4,30,0.0,0.0
1715,65.0,32,120,0.0,0.0
1716,44.0,33,30,0.0,0.0
1717,45.0,29,30,0.0,0.0
1718,42.0,4,30,0.0,0.0
1719,44.0,2,30,0.0,0.0
1720,66.0,2,120,0.0,0.0
1721,45.0,34,30,0.0,0.0
1722,57.0,0,120,0.0,0.0
1723,62.0,13,120,0.0,0.0
1724,47.0,24,30,0.0,0.0
1725,45.0,17,30,0.0,0.0
1726,47.0,34,30,0.0,0.0
1727,41.0,32,30,0.0,0.0
1728,59.0,2,450,0.0,0.0
1729,68.0,4,150,0.0,0.0
1730,62.0,12,330,0.0,0.0
1731,42.0,28,30,0.0,0.0
1732,40.0,33,30,0.0,0.0
1733,41.0,29,30,0.0,0.0
1734,66.0,1,120,0.0,0.0
1735,42.0,27,30,0.0,0.0
1736,44.0,26,30,0.0,0.0
1737,41.0,34,20,0.0,0.0
1738,42.0,25,30,0.0,0.0
1739,44.0,32,30,0.0,0.0
1740,65.0,26,120,0.0,0.0
1741,45.0,32,30,0.0,0.0
1742,42.0,15,30,0.0,0.0
1743,44.0,4,20,0.0,0.0
1744,45.0,31,30,0.0,0.0
1745,66.0,1,90,0.0,0.0
1746,61.0,19,90,0.0,0.0
1747,47.0,29,30,0.0,0.0
1748,45.0,8,30,0.0,0.0
1749,47.0,63,30,0.0,0.0
1750,75.0,29,150,0.0,0.0
1751,66.0,18,330,0.0,0.0
1752,69.0,23,300,0.0,0.0
1753,48.0,30,60,0.0,0.0
1754,49.0,3,30,0.0,0.0
1755,47.0,31,30,0.0,0.0
1756,48.0,25,30,0.0,0.0
1757,49.0,2,30,0.0,0.0
1758,73.0,23,120,0.0,0.0
1759,51.0,28,30,0.0,0.0
1760,48.0,32,30,0.0,0.0
1761,49.0,0,30,0.0,0.0
1762,51.0,34,30,0.0,0.0
1763,72.0,33,120,0.0,0.0
1764,52.0,6,30,0.0,0.0
1765,49.0,7,30,0.0,0.0
1766,51.0,1,30,0.0,0.0
1767,64.0,0,90,0.0,0.0
1768,69.0,8,90,0.0,0.0
1769,52.0,31,30,0.0,0.0
1770,73.0,18,90,0.0,0.0
1771,54.0,26,30,0.0,0.0
1772,52.0,6,30,0.0,0.0
1773,54.0,29,30,0.0,0.0
1774,66.0,0,330,0.0,0.0
1775,69.0,2,330,0.0,0.0
1776,48.0,33,30,0.0,0.0
1777,75.0,0,150,0.0,0.0
1778,49.0,32,30,0.0,0.0
1779,47.0,36,30,0.0,0.0
1780,48.0,25,30,0.0,0.0
1781,73.0,27,120,0.0,0.0
1782,49.0,35,30,0.0,0.0
1783,51.0,24,30,0.0,0.0
1784,48.0,31,30,0.0,0.0
1785,49.0,1,30,0.0,0.0
1786,72.0,26,90,0.0,0.0
1787,51.0,33,30,0.0,0.0
1788,52.0,28,30,0.0,0.0
1789,49.0,1,30,0.0,0.0
1790,51.0,34,30,0.0,0.0
1791,73.0,2,120,0.0,0.0
1792,71.0,1,120,0.0,0.0
1793,61.0,0,120,0.0,0.0
1794,68.0,19,120,0.0,0.0
1795,53.0,32,30,0.0,0.0
1796,54.0,29,30,0.0,0.0
1797,52.0,11,30,0.0,0.0
1798,53.0,27,30,0.0,0.0
1799,66.0,31,90,0.0,0.0
1800,61.0,2,90,0.0,0.0
1801,54.0,28,30,0.0,0.0
1802,69.0,2,90,0.0,0.0
1803,73.0,1,90,0.0,0.0
1804,56.0,27,30,0.0,0.0
1805,53.0,3,30,0.0,0.0
1806,54.0,27,30,0.0,0.0
1807,73.0,1,90,0.0,0.0
1808,71.0,0,90,0.0,0.0
1809,65.0,19,90,0.0,0.0
1810,56.0,27,30,0.0,0.0
1811,57.0,30,30,0.0,0.0
1812,54.0,10,30,0.0,0.0
1813,56.0,26,30,0.0,0.0
1814,73.0,5,90,0.0,0.0
1815,66.0,1,90,0.0,0.0
1816,57.0,32,30,0.0,0.0
1817,69.0,6,90,0.0,0.0
1818,59.0,23,30,0.0,0.0
1819,56.0,23,30,0.0,0.0
1820,57.0,31,30,0.0,0.0
1821,66.0,0,90,0.0,0.0
1822,69.0,3,90,0.0,0.0
1823,75.0,23,90,0.0,0.0
1824,60.0,25,30,0.0,0.0
1825,61.0,33,20,0.0,0.0
1826,59.0,4,30,0.0,0.0
1827,60.0,25,30,0.0,0.0
1828,64.0,3,90,0.0,0.0
1829,61.0,30,30,0.0,0.0
1830,68.0,0,90,0.0,0.0
1831,76.0,27,90,0.0,0.0
1832,63.0,30,30,0.0,0.0
1833,60.0,8,30,0.0,0.0
1834,61.0,27,30,0.0,0.0
1835,68.0,7,90,0.0,0.0
1836,72.0,0,90,0.0,0.0
1837,78.0,2,90,0.0,0.0
1838,63.0,32,30,0.0,0.0
1839,64.0,26,30,0.0,0.0
1840,61.0,20,30,0.0,0.0
1841,63.0,30,30,0.0,0.0
1842,64.0,27,30,0.0,0.0
1843,80.0,2,90,0.0,0.0
1844,73.0,0,90,0.0,0.0
1845,68.0,19,90,0.0,0.0
1846,66.0,34,20,0.0,0.0
1847,63.0,7,30,0.0,0.0
1848,64.0,30,30,0.0,0.0
1849,75.0,2,90,0.0,0.0
1850,81.0,18,120,0.0,0.0
1851,73.0,15,90,0.0,0.0
1852,66.0,28,30,0.0,0.0
1853,68.0,29,30,0.0,0.0
1854,64.0,0,30,0.0,0.0
1855,66.0,36,30,0.0,0.0
1856,68.0,31,30,0.0,0.0
1857,76.0,1,210,0.0,0.0
1858,80.0,12,210,0.0,0.0
1859,73.0,3,210,0.0,0.0
1860,69.0,28,30,0.0,0.0
1861,68.0,24,30,0.0,0.0
1862,66.0,40,30,0.0,0.0
1863,64.0,25,30,0.0,0.0
1864,63.0,11,30,0.0,0.0
1865,61.0,34,30,0.0,0.0
1866,59.0,33,30,0.0,0.0
1867,57.0,21,30,0.0,0.0
1868,76.0,0,90,0.0,0.0
1869,80.0,7,90,0.0,0.0
1870,85.0,0,90,0.0,0.0
1871,73.0,0,90,0.0,0.0
1872,56.0,24,30,0.0,0.0
1873,54.0,29,30,0.0,0.0
1874,52.0,38,30,0.0,0.0
1875,88.0,0,90,0.0,0.0
1876,85.0,34,90,0.0,0.0
1877,80.0,0,90,0.0,0.0
1878,76.0,0,90,0.0,0.0
1879,51.0,20,30,0.0,0.0
1880,49.0,26,30,0.0,0.0
1881,47.0,6,30,0.0,0.0
1882,45.0,27,30,0.0,0.0
1883,85.0,0,90,0.0,0.0
1884,80.0,2,90,0.0,0.0
1885,88.0,1,90,0.0,0.0
1886,44.0,25,30,0.0,0.0
1887,92.0,0,90,0.0,0.0
1888,42.0,25,30,0.0,0.0
1889,40.0,30,30,0.0,0.0
1890,39.0,30,30,0.0,0.0
1891,37.0,35,30,0.0,0.0
1892,92.0,1,90,0.0,0.0
1893,97.0,0,90,0.0,0.0
1894,88.0,29,90,0.0,0.0
1895,85.0,0,90,0.0,0.0
1896,35.0,24,30,0.0,0.0
1897,33.0,3,30,0.0,0.0
1898,32.0,79,30,0.0,0.0
1899,81.0,0,90,0.0,0.0
1900,93.0,0,90,0.0,0.0
1901,85.0,0,90,0.0,0.0
1902,87.0,123,90,0.0,0.0
1903,30.0,5,60,0.0,0.0
1904,42.0,13,90,0.0,0.0
1905,66.0,100,90,0.0,0.0
1906,68.0,0,90,0.0,0.0
1907,60.0,0,90,0.0,0.0
1908,72.0,0,90,0.0,0.0
1909,32.0,1,60,0.0,0.0
1910,44.0,19,60,0.0,0.0
1911,73.0,4,90,0.0,0.0
1912,61.0,4,60,0.0,0.0
1913,64.0,4,60,0.0,0.0
1914,68.0,4,60,0.0,0.0
1915,25.0,2,60,0.0,0.0
1916,37.0,84,90,0.0,0.0
1917,80.0,28,30,0.0,0.0
1918,56.0,0,60,0.0,0.0
1919,44.0,32,60,0.0,0.0
1920,81.0,5,30,0.0,0.0
1921,80.0,23,30,0.0,0.0
1922,37.0,2,60,0.0,0.0
1923,88.0,25,30,0.0,0.0
1924,58.0,1,60,0.0,0.0
1925,79.0,25,30,0.0,0.0
1926,46.0,21,60,0.0,0.0
1927,80.0,4,30,0.0,0.0
1928,37.0,10,60,0.0,0.0
1929,79.0,28,30,0.0,0.0
1930,88.0,4,30,0.0,0.0
1931,80.0,14,30,0.0,0.0
1932,45.0,2,60,0.0,0.0
1933,57.0,0,60,0.0,0.0
1934,78.0,31,30,0.0,0.0
1935,80.0,33,30,0.0,0.0
1936,78.0,20,30,0.0,0.0
1937,37.0,24,60,0.0,0.0
1938,87.0,1,60,0.0,0.0
1939,77.0,25,30,0.0,0.0
1940,56.0,16,60,0.0,0.0
1941,44.0,0,60,0.0,0.0
1942,78.0,5,30,0.0,0.0
1943,77.0,32,20,0.0,0.0
1944,37.0,28,60,0.0,0.0
1945,86.0,6,30,0.0,0.0
1946,76.0,23,30,0.0,0.0
1947,44.0,19,60,0.0,0.0
1948,55.0,0,60,0.0,0.0
1949,78.0,5,30,0.0,0.0
1950,37.0,22,60,0.0,0.0
1951,76.0,33,20,0.0,0.0
1952,85.0,3,30,0.0,0.0
1953,54.0,21,60,0.0,0.0
1954,44.0,0,60,0.0,0.0
1955,75.0,25,30,0.0,0.0
1956,76.0,8,30,0.0,0.0
1957,37.0,27,60,0.0,0.0
1958,75.0,29,30,0.0,0.0
1959,85.0,1,30,0.0,0.0
1960,51.0,19,60,0.0,0.0
1961,75.0,20,30,0.0,0.0
1962,44.0,0,60,0.0,0.0
1963,76.0,12,20,0.0,0.0
1964,37.0,30,60,0.0,0.0
1965,75.0,30,30,0.0,0.0
1966,84.0,4,30,0.0,0.0
1967,44.0,0,60,0.0,0.0
1968,52.0,46,60,0.0,0.0
1969,73.0,26,30,0.0,0.0
1970,75.0,10,30,0.0,0.0
1971,37.0,1,60,0.0,0.0
1972,73.0,29,60,0.0,0.0
1973,85.0,6,60,0.0,0.0
1974,56.0,0,60,0.0,0.0
1975,44.0,30,60,0.0,0.0
1976,80.0,26,30,0.0,0.0
1977,81.0,0,30,0.0,0.0
1978,80.0,28,30,0.0,0.0
1979,37.0,30,60,0.0,0.0
1980,88.0,0,60,0.0,0.0
1981,58.0,1,60,0.0,0.0
1982,79.0,25,30,0.0,0.0
1983,46.0,20,60,0.0,0.0
1984,80.0,5,30,0.0,0.0
1985,37.0,25,60,0.0,0.0
1986,79.0,34,30,0.0,0.0
1987,88.0,4,60,0.0,0.0
1988,57.0,2,60,0.0,0.0
1989,78.0,29,30,0.0,0.0
1990,45.0,0,60,0.0,0.0
1991,80.0,29,30,0.0,0.0
1992,37.0,29,60,0.0,0.0
1993,78.0,25,30,0.0,0.0
1994,87.0,1,60,0.0,0.0
1995,77.0,28,30,0.0,0.0
1996,44.0,30,90,0.0,0.0
1997,56.0,0,90,0.0,0.0
1998,78.0,20,30,0.0,0.0
1999,37.0,23,60,0.0,0.0
2000,77.0,7,20,0.0,0.0
2001,86.0,6,60,0.0,0.0
2002,44.0,1,60,0.0,0.0
2003,55.0,20,60,0.0,0.0
2004,76.0,24,30,0.0,0.0
2005,78.0,4,30,0.0,0.0
2006,37.0,25,60,0.0,0.0
2007,76.0,35,20,0.0,0.0
2008,85.0,1,60,0.0,0.0
2009,44.0,1,60,0.0,0.0
2010,75.0,27,30,0.0,0.0
2011,54.0,20,60,0.0,0.0
2012,76.0,2,30,0.0,0.0
2013,75.0,37,20,0.0,0.0
2014,37.0,25,60,0.0,0.0
2015,85.0,22,60,0.0,0.0
2016,75.0,2,30,0.0,0.0
2017,44.0,19,60,0.0,0.0
2018,51.0,0,60,0.0,0.0
2019,76.0,6,30,0.0,0.0
2020,75.0,4,30,0.0,0.0
2021,37.0,57,30,0.0,0.0
2022,84.0,9,60,0.0,0.0
2023,37.0,1,60,0.0,0.0
2024,52.0,0,60,0.0,0.0
2025,73.0,21,30,0.0,0.0
2026,44.0,22,60,0.0,0.0
2027,75.0,6,20,0.0,0.0
2028,73.0,56,30,0.0,0.0
2029,85.0,19,60,0.0,0.0
2030,80.0,3,30,0.0,0.0
2031,68.0,2,20,0.0,0.0
2032,81.0,22,20,0.0,0.0
2033,67.0,4,20,0.0,0.0
2034,80.0,1,20,0.0,0.0
2035,68.0,61,20,0.0,0.0
2036,56.0,1,60,0.0,0.0
2037,88.0,18,60,0.0,0.0
2038,67.0,2,30,0.0,0.0
2039,79.0,1,30,0.0,0.0
2040,66.0,0,20,0.0,0.0
2041,80.0,20,20,0.0,0.0
2042,67.0,8,20,0.0,0.0
2043,79.0,52,30,0.0,0.0
2044,56.0,0,60,0.0,0.0
2045,88.0,3,60,0.0,0.0
2046,66.0,7,20,0.0,0.0
2047,78.0,18,30,0.0,0.0
2048,80.0,26,30,0.0,0.0
2049,65.0,1,30,0.0,0.0
2050,78.0,58,30,0.0,0.0
2051,66.0,0,30,0.0,0.0
2052,56.0,1,60,0.0,0.0
2053,87.0,0,60,0.0,0.0
2054,65.0,4,30,0.0,0.0
2055,77.0,22,30,0.0,0.0
2056,64.0,1,30,0.0,0.0
2057,78.0,19,30,0.0,0.0
2058,77.0,64,20,0.0,0.0
2059,65.0,2,20,0.0,0.0
2060,56.0,22,90,0.0,0.0
2061,86.0,2,90,0.0,0.0
2062,76.0,12,30,0.0,0.0
2063,64.0,7,30,0.0,0.0
2064,63.0,8,30,0.0,0.0
2065,78.0,1,30,0.0,0.0
2066,64.0,1,30,0.0,0.0
2067,76.0,43,30,0.0,0.0
2068,85.0,1,60,0.0,0.0
2069,56.0,17,60,0.0,0.0
2070,63.0,5,20,0.0,0.0
2071,75.0,9,30,0.0,0.0
2072,62.0,4,30,0.0,0.0
2073,76.0,21,30,0.0,0.0
2074,75.0,1,30,0.0,0.0
2075,63.0,53,30,0.0,0.0
2076,56.0,0,60,0.0,0.0
2077,84.0,18,60,0.0,0.0
2078,74.0,4,30,0.0,0.0
2079,62.0,3,30,0.0,0.0
2080,61.0,22,30,0.0,0.0
2081,75.0,5,30,0.0,0.0
2082,74.0,6,30,0.0,0.0
2083,62.0,41,30,0.0,0.0
2084,83.0,8,60,0.0,0.0
2085,56.0,0,60,0.0,0.0
2086,73.0,7,30,0.0,0.0
2087,61.0,8,20,0.0,0.0
2088,60.0,12,20,0.0,0.0
2089,74.0,23,30,0.0,0.0
2090,61.0,48,30,0.0,0.0
2091,73.0,1,30,0.0,0.0
2092,82.0,0,60,0.0,0.0
2093,44.0,1,60,0.0,0.0
2094,60.0,12,20,0.0,0.0
2095,72.0,14,30,0.0,0.0
2096,59.0,10,20,0.0,0.0
2097,73.0,8,30,0.0,0.0
2098,60.0,14,15,0.0,0.0
2099,72.0,28,30,0.0,0.0
2100,81.0,22,30,0.0,0.0
2101,44.0,1,60,0.0,0.0
2102,71.0,16,30,0.0,0.0
2103,59.0,8,20,0.0,0.0
2104,58.0,7,20,0.0,0.0
2105,72.0,22,30,0.0,0.0
2106,59.0,25,30,0.0,0.0
2107,71.0,4,20,0.0,0.0
2108,80.0,20,30,0.0,0.0
2109,44.0,8,60,0.0,0.0
2110,58.0,8,20,0.0,0.0
2111,70.0,4,30,0.0,0.0
2112,57.0,12,15,0.0,0.0
2113,71.0,14,30,0.0,0.0
2114,58.0,10,15,0.0,0.0
2115,70.0,29,30,0.0,0.0
2116,79.0,24,30,0.0,0.0
2117,44.0,19,60,0.0,0.0
2118,57.0,2,30,0.0,0.0
2119,69.0,5,30,0.0,0.0
2120,70.0,0,30,0.0,0.0
2121,56.0,12,30,0.0,0.0
2122,69.0,34,20,0.0,0.0
2123,57.0,9,15,0.0,0.0
2124,78.0,18,30,0.0,0.0
2125,44.0,6,60,0.0,0.0
2126,68.0,8,20,0.0,0.0
2127,56.0,4,20,0.0,0.0
2128,55.0,2,15,0.0,0.0
2129,69.0,35,15,0.0,0.0
2130,68.0,23,30,0.0,0.0
2131,56.0,5,30,0.0,0.0
2132,44.0,0,60,0.0,0.0
2133,77.0,24,30,0.0,0.0
2134,67.0,22,30,0.0,0.0
2135,55.0,5,30,0.0,0.0
2136,68.0,16,30,0.0,0.0
2137,54.0,3,30,0.0,0.0
2138,67.0,32,20,0.0,0.0
2139,55.0,2,20,0.0,0.0
2140,44.0,0,30,0.0,0.0
2141,76.0,21,30,0.0,0.0
2142,54.0,7,20,0.0,0.0
2143,66.0,22,30,0.0,0.0
2144,53.0,2,30,0.0,0.0
2145,68.0,19,30,0.0,0.0
2146,54.0,7,20,0.0,0.0
2147,66.0,22,30,0.0,0.0
2148,44.0,3,30,0.0,0.0
2149,75.0,29,30,0.0,0.0
2150,37.0,3,30,0.0,0.0
2151,64.0,2,30,0.0,0.0
2152,73.0,6,30,0.0,0.0
2153,44.0,10,30,0.0,0.0
2154,52.0,35,30,0.0,0.0
2155,56.0,27,30,0.0,0.0
2156,64.0,8,30,0.0,0.0
2157,61.0,42,15,0.0,0.0
2158,61.0,20,30,0.0,0.0
2159,68.0,28,30,0.0,0.0
2160,76.0,25,60,0.0,0.0
2161,73.0,20,15,0.0,0.0
2162,73.0,31,30,0.0,0.0
2163,80.0,15,30,0.0,0.0
2164,88.0,8,90,0.0,0.0
2165,85.0,40,15,0.0,0.0
2166,85.0,24,20,0.0,0.0
2167,92.0,33,30,0.0,0.0
2168,97.0,44,30,0.0,0.0
2169,49.0,4,60,0.0,0.0
2170,56.0,5,60,0.0,0.0
2171,100.0,0,60,0.0,0.0
2172,64.0,0,60,0.0,0.0
2173,92.0,19,60,0.0,0.0
2174,85.0,26,15,0.0,0.0
2175,85.0,50,30,0.0,0.0
2176,88.0,25,60,0.0,0.0
2177,80.0,14,60,0.0,0.0
2178,73.0,4,15,0.0,0.0
2179,73.0,51,30,0.0,0.0
2180,76.0,25,60,0.0,0.0
2181,68.0,20,60,0.0,0.0
2182,61.0,4,15,0.0,0.0
2183,61.0,52,30,0.0,0.0
2184,64.0,26,60,0.0,0.0
2185,56.0,94,60,0.0,0.0
2186,49.0,0,15,0.0,0.0
2187,49.0,1,15,0.0,0.0
2188,37.0,7,60,0.0,0.0
2189,49.0,175,60,0.0,0.0
2190,73.0,0,120,0.0,0.0
2191,56.0,0,120,0.0,0.0
2192,80.0,0,120,0.0,0.0
2193,76.0,2,120,0.0,0.0
2194,64.0,0,120,0.0,0.0
2195,49.0,0,120,0.0,0.0
2196,85.0,34,120,0.0,0.0
2197,61.0,165,15,0.0,0.0
2198,37.0,0,15,0.0,0.0
2199,49.0,1,15,0.0,0.0
2200,49.0,0,150,0.0,0.0
2201,61.0,0,150,0.0,0.0
2202,37.0,1,150,0.0,0.0
2203,25.0,6,150,0.0,0.0
