,note,step,duration,channel,velocity
0,66.0,77,120,0.0,0.0
1,51.0,112,690,0.0,0.0
2,58.0,59,60,0.0,0.0
3,66.0,56,600,0.0,0.0
4,59.0,62,60,0.0,0.0
5,57.0,61,60,0.0,0.0
6,59.0,53,60,0.0,0.0
7,58.0,64,60,0.0,0.0
8,54.0,58,60,0.0,0.0
9,58.0,59,60,0.0,0.0
10,59.0,66,60,0.0,0.0
11,57.0,52,60,0.0,0.0
12,59.0,10,60,0.0,0.0
13,58.0,4,90,0.0,0.0
14,65.0,8,60,0.0,0.0
15,63.0,8,720,0.0,0.0
16,53.0,101,690,0.0,0.0
17,70.0,27,360,0.0,0.0
18,59.0,43,60,0.0,0.0
19,61.0,73,60,0.0,0.0
20,58.0,62,60,0.0,0.0
21,61.0,58,60,0.0,0.0
22,59.0,39,60,0.0,0.0
23,56.0,66,90,0.0,0.0
24,59.0,36,90,0.0,0.0
25,68.0,25,300,0.0,0.0
26,61.0,69,60,0.0,0.0
27,58.0,66,60,0.0,0.0
28,61.0,40,60,0.0,0.0
29,59.0,0,60,0.0,0.0
30,56.0,62,120,0.0,0.0
31,65.0,35,690,0.0,0.0
32,50.0,32,690,0.0,0.0
33,71.0,2,630,0.0,0.0
34,58.0,62,60,0.0,0.0
35,55.0,74,60,0.0,0.0
36,58.0,35,90,0.0,0.0
37,56.0,80,60,0.0,0.0
38,53.0,45,90,0.0,0.0
39,56.0,53,60,0.0,0.0
40,58.0,77,60,0.0,0.0
41,55.0,57,90,0.0,0.0
42,58.0,13,60,0.0,0.0
43,56.0,3,60,0.0,0.0
44,70.0,24,60,0.0,0.0
45,65.0,76,60,0.0,0.0
46,49.0,64,690,0.0,0.0
47,64.0,23,660,0.0,0.0
48,70.0,12,690,0.0,0.0
49,55.0,57,90,0.0,0.0
50,56.0,60,60,0.0,0.0
51,54.0,82,60,0.0,0.0
52,56.0,27,90,0.0,0.0
53,55.0,87,60,0.0,0.0
54,52.0,47,90,0.0,0.0
55,55.0,57,90,0.0,0.0
56,56.0,59,60,0.0,0.0
57,54.0,69,60,0.0,0.0
58,56.0,45,90,0.0,0.0
59,55.0,76,180,0.0,0.0
60,63.0,2,660,0.0,0.0
61,47.0,4,660,0.0,0.0
62,75.0,62,480,0.0,0.0
63,56.0,60,60,0.0,0.0
64,54.0,70,60,0.0,0.0
65,56.0,42,60,0.0,0.0
66,55.0,79,60,0.0,0.0
67,51.0,56,60,0.0,0.0
68,56.0,54,60,0.0,0.0
69,58.0,1,60,0.0,0.0
70,55.0,25,60,0.0,0.0
71,73.0,37,90,0.0,0.0
72,58.0,7,60,0.0,0.0
73,71.0,49,90,0.0,0.0
74,56.0,61,180,0.0,0.0
75,68.0,69,60,0.0,0.0
76,63.0,38,90,0.0,0.0
77,46.0,17,360,0.0,0.0
78,62.0,6,300,0.0,0.0
79,66.0,38,300,0.0,0.0
80,58.0,68,60,0.0,0.0
81,55.0,83,60,0.0,0.0
82,58.0,30,90,0.0,0.0
83,56.0,4,60,0.0,0.0
84,65.0,13,60,0.0,0.0
85,53.0,57,90,0.0,0.0
86,54.0,49,60,0.0,0.0
87,63.0,32,300,0.0,0.0
88,47.0,26,330,0.0,0.0
89,56.0,69,60,0.0,0.0
90,53.0,73,60,0.0,0.0
91,56.0,34,90,0.0,0.0
92,54.0,7,60,0.0,0.0
93,51.0,61,60,0.0,0.0
94,56.0,61,60,0.0,0.0
95,64.0,8,390,0.0,0.0
96,59.0,0,390,0.0,0.0
97,44.0,44,330,0.0,0.0
98,58.0,62,60,0.0,0.0
99,55.0,94,60,0.0,0.0
100,58.0,29,90,0.0,0.0
101,56.0,22,60,0.0,0.0
102,52.0,49,90,0.0,0.0
103,54.0,53,60,0.0,0.0
104,45.0,18,330,0.0,0.0
105,60.0,39,300,0.0,0.0
106,63.0,9,300,0.0,0.0
107,56.0,72,60,0.0,0.0
108,53.0,78,90,0.0,0.0
109,56.0,17,90,0.0,0.0
110,54.0,7,120,0.0,0.0
111,59.0,38,60,0.0,0.0
112,46.0,8,660,0.0,0.0
113,63.0,25,40,0.0,0.0
114,58.0,3,330,0.0,0.0
115,53.0,51,60,0.0,0.0
116,62.0,22,300,0.0,0.0
117,54.0,68,60,0.0,0.0
118,52.0,67,60,0.0,0.0
119,54.0,43,90,0.0,0.0
120,53.0,35,60,0.0,0.0
121,56.0,68,60,0.0,0.0
122,54.0,48,60,0.0,0.0
123,63.0,7,120,0.0,0.0
124,59.0,30,150,0.0,0.0
125,57.0,28,60,0.0,0.0
126,60.0,11,120,0.0,0.0
127,55.0,69,60,0.0,0.0
128,64.0,35,150,0.0,0.0
129,58.0,4,60,0.0,0.0
130,56.0,23,60,0.0,0.0
131,61.0,6,60,0.0,0.0
132,65.0,40,90,0.0,0.0
133,59.0,6,40,0.0,0.0
134,62.0,55,90,0.0,0.0
135,58.0,46,90,0.0,0.0
136,63.0,37,330,0.0,0.0
137,66.0,10,630,0.0,0.0
138,51.0,1,660,0.0,0.0
139,59.0,57,60,0.0,0.0
140,57.0,76,60,0.0,0.0
141,59.0,50,90,0.0,0.0
142,58.0,35,60,0.0,0.0
143,54.0,60,90,0.0,0.0
144,58.0,44,90,0.0,0.0
145,59.0,66,60,0.0,0.0
146,57.0,70,60,0.0,0.0
147,59.0,39,90,0.0,0.0
148,58.0,111,90,0.0,0.0
149,65.0,11,60,0.0,0.0
150,63.0,0,720,0.0,0.0
151,59.0,49,60,0.0,0.0
152,53.0,77,720,0.0,0.0
153,70.0,65,360,0.0,0.0
154,61.0,72,60,0.0,0.0
155,58.0,64,60,0.0,0.0
156,61.0,46,60,0.0,0.0
157,59.0,70,60,0.0,0.0
158,56.0,2,60,0.0,0.0
159,59.0,33,90,0.0,0.0
160,68.0,43,300,0.0,0.0
161,61.0,82,60,0.0,0.0
162,58.0,57,60,0.0,0.0
163,61.0,51,60,0.0,0.0
164,59.0,5,60,0.0,0.0
165,65.0,46,690,0.0,0.0
166,56.0,67,120,0.0,0.0
167,71.0,5,630,0.0,0.0
168,50.0,20,720,0.0,0.0
169,58.0,60,60,0.0,0.0
170,55.0,71,60,0.0,0.0
171,58.0,44,90,0.0,0.0
172,56.0,69,60,0.0,0.0
173,53.0,58,90,0.0,0.0
174,56.0,54,90,0.0,0.0
175,58.0,75,60,0.0,0.0
176,55.0,51,90,0.0,0.0
177,58.0,7,90,0.0,0.0
178,56.0,9,60,0.0,0.0
179,70.0,36,90,0.0,0.0
180,65.0,44,90,0.0,0.0
181,49.0,43,720,0.0,0.0
182,70.0,1,660,0.0,0.0
183,55.0,70,60,0.0,0.0
184,64.0,73,660,0.0,0.0
185,56.0,50,60,0.0,0.0
186,54.0,72,60,0.0,0.0
187,56.0,48,60,0.0,0.0
188,55.0,67,60,0.0,0.0
189,52.0,47,60,0.0,0.0
190,55.0,68,60,0.0,0.0
191,56.0,60,60,0.0,0.0
192,54.0,63,60,0.0,0.0
193,56.0,49,60,0.0,0.0
194,55.0,75,180,0.0,0.0
195,63.0,16,720,0.0,0.0
196,47.0,19,720,0.0,0.0
197,75.0,23,480,0.0,0.0
198,56.0,62,60,0.0,0.0
199,54.0,70,60,0.0,0.0
200,56.0,38,90,0.0,0.0
201,55.0,75,60,0.0,0.0
202,51.0,52,60,0.0,0.0
203,56.0,43,60,0.0,0.0
204,58.0,49,60,0.0,0.0
205,55.0,11,60,0.0,0.0
206,73.0,57,60,0.0,0.0
207,58.0,46,60,0.0,0.0
208,71.0,4,60,0.0,0.0
209,68.0,36,60,0.0,0.0
210,56.0,92,150,0.0,0.0
211,63.0,26,60,0.0,0.0
212,62.0,5,330,0.0,0.0
213,46.0,23,360,0.0,0.0
214,66.0,15,330,0.0,0.0
215,58.0,53,60,0.0,0.0
216,55.0,85,60,0.0,0.0
217,58.0,37,90,0.0,0.0
218,56.0,27,60,0.0,0.0
219,53.0,8,60,0.0,0.0
220,65.0,40,90,0.0,0.0
221,63.0,13,330,0.0,0.0
222,54.0,72,60,0.0,0.0
223,47.0,65,360,0.0,0.0
224,56.0,51,60,0.0,0.0
225,53.0,80,60,0.0,0.0
226,56.0,38,90,0.0,0.0
227,54.0,31,60,0.0,0.0
228,51.0,16,40,0.0,0.0
229,59.0,63,360,0.0,0.0
230,56.0,64,60,0.0,0.0
231,44.0,1,360,0.0,0.0
232,64.0,1,360,0.0,0.0
233,58.0,57,60,0.0,0.0
234,55.0,53,60,0.0,0.0
235,58.0,62,60,0.0,0.0
236,56.0,45,60,0.0,0.0
237,52.0,13,40,0.0,0.0
238,53.0,65,60,0.0,0.0
239,46.0,8,300,0.0,0.0
240,56.0,15,330,0.0,0.0
241,62.0,10,330,0.0,0.0
242,54.0,61,60,0.0,0.0
243,52.0,84,60,0.0,0.0
244,54.0,16,90,0.0,0.0
245,53.0,21,60,0.0,0.0
246,63.0,51,40,0.0,0.0
247,46.0,93,90,0.0,0.0
248,63.0,1,330,0.0,0.0
249,39.0,13,330,0.0,0.0
250,54.0,0,330,0.0,0.0
251,48.0,62,60,0.0,0.0
252,45.0,79,60,0.0,0.0
253,48.0,34,90,0.0,0.0
254,46.0,34,60,0.0,0.0
255,42.0,84,60,0.0,0.0
256,39.0,46,60,0.0,0.0
257,41.0,66,60,0.0,0.0
258,38.0,56,60,0.0,0.0
259,41.0,57,60,0.0,0.0
260,39.0,40,60,0.0,0.0
261,35.0,88,40,0.0,0.0
262,63.0,6,330,0.0,0.0
263,58.0,57,60,0.0,0.0
264,46.0,3,330,0.0,0.0
265,34.0,2,330,0.0,0.0
266,65.0,41,330,0.0,0.0
267,59.0,50,60,0.0,0.0
268,57.0,89,60,0.0,0.0
269,59.0,45,90,0.0,0.0
270,58.0,13,60,0.0,0.0
271,53.0,54,60,0.0,0.0
272,46.0,8,300,0.0,0.0
273,58.0,60,60,0.0,0.0
274,65.0,6,240,0.0,0.0
275,62.0,13,210,0.0,0.0
276,59.0,48,60,0.0,0.0
277,57.0,49,60,0.0,0.0
278,59.0,50,60,0.0,0.0
279,58.0,12,60,0.0,0.0
280,67.0,104,90,0.0,0.0
281,61.0,2,60,0.0,0.0
282,53.0,62,120,0.0,0.0
283,41.0,14,330,0.0,0.0
284,68.0,15,330,0.0,0.0
285,56.0,5,330,0.0,0.0
286,67.0,2,330,0.0,0.0
287,60.0,2,330,0.0,0.0
288,55.0,71,60,0.0,0.0
289,52.0,66,60,0.0,0.0
290,55.0,43,90,0.0,0.0
291,53.0,16,60,0.0,0.0
292,48.0,67,60,0.0,0.0
293,47.0,72,60,0.0,0.0
294,68.0,1,330,0.0,0.0
295,65.0,0,330,0.0,0.0
296,62.0,6,330,0.0,0.0
297,56.0,1,360,0.0,0.0
298,48.0,52,90,0.0,0.0
299,46.0,64,60,0.0,0.0
300,48.0,53,60,0.0,0.0
301,47.0,34,60,0.0,0.0
302,35.0,71,40,0.0,0.0
303,36.0,7,330,0.0,0.0
304,65.0,3,330,0.0,0.0
305,62.0,72,60,0.0,0.0
306,67.0,18,330,0.0,0.0
307,63.0,55,60,0.0,0.0
308,61.0,66,60,0.0,0.0
309,63.0,50,60,0.0,0.0
310,62.0,21,60,0.0,0.0
311,55.0,78,60,0.0,0.0
312,67.0,42,270,0.0,0.0
313,64.0,1,240,0.0,0.0
314,48.0,77,330,0.0,0.0
315,60.0,61,60,0.0,0.0
316,62.0,59,60,0.0,0.0
317,59.0,56,60,0.0,0.0
318,62.0,10,60,0.0,0.0
319,63.0,0,60,0.0,0.0
320,60.0,13,60,0.0,0.0
321,69.0,15,60,0.0,0.0
322,55.0,85,90,0.0,0.0
323,43.0,18,330,0.0,0.0
324,69.0,5,330,0.0,0.0
325,70.0,6,330,0.0,0.0
326,58.0,3,330,0.0,0.0
327,62.0,4,330,0.0,0.0
328,57.0,65,60,0.0,0.0
329,54.0,57,60,0.0,0.0
330,57.0,55,60,0.0,0.0
331,55.0,17,60,0.0,0.0
332,50.0,75,60,0.0,0.0
333,58.0,0,210,0.0,0.0
334,49.0,54,60,0.0,0.0
335,64.0,4,300,0.0,0.0
336,67.0,39,210,0.0,0.0
337,70.0,6,210,0.0,0.0
338,50.0,56,60,0.0,0.0
339,48.0,26,60,0.0,0.0
340,50.0,47,60,0.0,0.0
341,49.0,44,60,0.0,0.0
342,58.0,0,60,0.0,0.0
343,70.0,3,60,0.0,0.0
344,43.0,74,60,0.0,0.0
345,44.0,4,330,0.0,0.0
346,59.0,49,90,0.0,0.0
347,64.0,18,60,0.0,0.0
348,71.0,37,330,0.0,0.0
349,66.0,58,60,0.0,0.0
350,63.0,72,60,0.0,0.0
351,66.0,45,90,0.0,0.0
352,64.0,29,60,0.0,0.0
353,59.0,42,90,0.0,0.0
354,69.0,19,270,0.0,0.0
355,49.0,9,300,0.0,0.0
356,37.0,11,270,0.0,0.0
357,64.0,70,60,0.0,0.0
358,66.0,51,60,0.0,0.0
359,63.0,84,60,0.0,0.0
360,66.0,2,90,0.0,0.0
361,64.0,29,60,0.0,0.0
362,68.0,32,90,0.0,0.0
363,59.0,64,60,0.0,0.0
364,61.0,58,60,0.0,0.0
365,68.0,32,330,0.0,0.0
366,42.0,0,330,0.0,0.0
367,30.0,13,330,0.0,0.0
368,64.0,2,330,0.0,0.0
369,63.0,54,60,0.0,0.0
370,60.0,70,60,0.0,0.0
371,63.0,56,60,0.0,0.0
372,61.0,17,60,0.0,0.0
373,57.0,48,60,0.0,0.0
374,66.0,12,240,0.0,0.0
375,64.0,1,240,0.0,0.0
376,32.0,21,210,0.0,0.0
377,61.0,70,60,0.0,0.0
378,44.0,0,210,0.0,0.0
379,63.0,51,60,0.0,0.0
380,60.0,37,60,0.0,0.0
381,63.0,50,60,0.0,0.0
382,45.0,9,90,0.0,0.0
383,33.0,5,90,0.0,0.0
384,61.0,32,60,0.0,0.0
385,54.0,80,40,0.0,0.0
386,64.0,1,330,0.0,0.0
387,69.0,17,330,0.0,0.0
388,61.0,64,60,0.0,0.0
389,47.0,6,330,0.0,0.0
390,35.0,9,660,0.0,0.0
391,63.0,47,60,0.0,0.0
392,60.0,82,60,0.0,0.0
393,63.0,46,90,0.0,0.0
394,61.0,22,60,0.0,0.0
395,54.0,76,60,0.0,0.0
396,68.0,8,210,0.0,0.0
397,59.0,58,60,0.0,0.0
398,47.0,9,180,0.0,0.0
399,63.0,46,210,0.0,0.0
400,61.0,54,60,0.0,0.0
401,57.0,15,60,0.0,0.0
402,61.0,38,90,0.0,0.0
403,47.0,7,90,0.0,0.0
404,63.0,19,90,0.0,0.0
405,66.0,0,90,0.0,0.0
406,59.0,18,60,0.0,0.0
407,54.0,77,60,0.0,0.0
408,63.0,38,270,0.0,0.0
409,66.0,1,270,0.0,0.0
410,59.0,60,60,0.0,0.0
411,40.0,7,690,0.0,0.0
412,47.0,21,690,0.0,0.0
413,61.0,59,60,0.0,0.0
414,57.0,68,60,0.0,0.0
415,61.0,6,60,0.0,0.0
416,59.0,25,60,0.0,0.0
417,68.0,0,90,0.0,0.0
418,64.0,42,90,0.0,0.0
419,56.0,48,60,0.0,0.0
420,68.0,1,330,0.0,0.0
421,64.0,8,330,0.0,0.0
422,59.0,72,60,0.0,0.0
423,61.0,54,60,0.0,0.0
424,57.0,87,60,0.0,0.0
425,61.0,23,90,0.0,0.0
426,59.0,34,60,0.0,0.0
427,56.0,67,60,0.0,0.0
428,66.0,0,360,0.0,0.0
429,68.0,12,360,0.0,0.0
430,63.0,60,60,0.0,0.0
431,48.0,28,330,0.0,0.0
432,36.0,5,330,0.0,0.0
433,64.0,60,60,0.0,0.0
434,62.0,79,60,0.0,0.0
435,64.0,41,90,0.0,0.0
436,63.0,9,60,0.0,0.0
437,56.0,65,60,0.0,0.0
438,37.0,9,360,0.0,0.0
439,49.0,9,330,0.0,0.0
440,61.0,54,60,0.0,0.0
441,64.0,5,210,0.0,0.0
442,68.0,31,210,0.0,0.0
443,63.0,77,60,0.0,0.0
444,60.0,12,90,0.0,0.0
445,63.0,68,60,0.0,0.0
446,68.0,1,90,0.0,0.0
447,61.0,27,60,0.0,0.0
448,64.0,1,90,0.0,0.0
449,56.0,66,60,0.0,0.0
450,68.0,7,360,0.0,0.0
451,73.0,23,360,0.0,0.0
452,44.0,26,690,0.0,0.0
453,63.0,61,60,0.0,0.0
454,64.0,54,60,0.0,0.0
455,62.0,86,60,0.0,0.0
456,64.0,41,90,0.0,0.0
457,63.0,46,60,0.0,0.0
458,56.0,41,90,0.0,0.0
459,68.0,21,240,0.0,0.0
460,63.0,66,60,0.0,0.0
461,72.0,7,240,0.0,0.0
462,64.0,52,60,0.0,0.0
463,62.0,44,60,0.0,0.0
464,64.0,53,60,0.0,0.0
465,63.0,18,60,0.0,0.0
466,56.0,73,60,0.0,0.0
467,68.0,50,330,0.0,0.0
468,66.0,2,330,0.0,0.0
469,63.0,57,60,0.0,0.0
470,48.0,8,330,0.0,0.0
471,36.0,1,330,0.0,0.0
472,64.0,65,60,0.0,0.0
473,62.0,63,60,0.0,0.0
474,64.0,58,60,0.0,0.0
475,63.0,12,60,0.0,0.0
476,56.0,44,90,0.0,0.0
477,64.0,8,210,0.0,0.0
478,68.0,29,210,0.0,0.0
479,61.0,53,60,0.0,0.0
480,37.0,25,330,0.0,0.0
481,49.0,15,300,0.0,0.0
482,63.0,69,60,0.0,0.0
483,60.0,21,60,0.0,0.0
484,63.0,61,60,0.0,0.0
485,61.0,1,60,0.0,0.0
486,64.0,3,90,0.0,0.0
487,68.0,4,90,0.0,0.0
488,56.0,76,60,0.0,0.0
489,44.0,1,660,0.0,0.0
490,76.0,37,330,0.0,0.0
491,32.0,13,660,0.0,0.0
492,72.0,10,330,0.0,0.0
493,68.0,57,60,0.0,0.0
494,69.0,58,60,0.0,0.0
495,67.0,72,60,0.0,0.0
496,69.0,50,90,0.0,0.0
497,68.0,22,60,0.0,0.0
498,63.0,56,90,0.0,0.0
499,68.0,56,60,0.0,0.0
500,75.0,5,330,0.0,0.0
501,72.0,18,330,0.0,0.0
502,69.0,64,60,0.0,0.0
503,67.0,57,60,0.0,0.0
504,69.0,46,60,0.0,0.0
505,68.0,13,60,0.0,0.0
506,63.0,86,40,0.0,0.0
507,36.0,7,300,0.0,0.0
508,48.0,20,300,0.0,0.0
509,63.0,53,60,0.0,0.0
510,66.0,5,330,0.0,0.0
511,68.0,19,330,0.0,0.0
512,64.0,58,60,0.0,0.0
513,62.0,67,60,0.0,0.0
514,64.0,51,60,0.0,0.0
515,63.0,2,60,0.0,0.0
516,56.0,67,60,0.0,0.0
517,65.0,65,60,0.0,0.0
518,39.0,7,330,0.0,0.0
519,51.0,4,330,0.0,0.0
520,71.0,2,210,0.0,0.0
521,68.0,48,210,0.0,0.0
522,66.0,66,60,0.0,0.0
523,64.0,11,60,0.0,0.0
524,66.0,53,60,0.0,0.0
525,68.0,10,90,0.0,0.0
526,71.0,0,90,0.0,0.0
527,65.0,21,60,0.0,0.0
528,59.0,74,40,0.0,0.0
529,65.0,65,60,0.0,0.0
530,68.0,45,210,0.0,0.0
531,71.0,4,210,0.0,0.0
532,38.0,10,300,0.0,0.0
533,50.0,21,300,0.0,0.0
534,66.0,59,60,0.0,0.0
535,64.0,24,60,0.0,0.0
536,66.0,42,90,0.0,0.0
537,70.0,24,90,0.0,0.0
538,65.0,3,60,0.0,0.0
539,68.0,3,90,0.0,0.0
540,58.0,54,60,0.0,0.0
541,67.0,74,60,0.0,0.0
542,53.0,2,300,0.0,0.0
543,41.0,12,330,0.0,0.0
544,70.0,5,180,0.0,0.0
545,73.0,54,180,0.0,0.0
546,68.0,56,60,0.0,0.0
547,66.0,5,60,0.0,0.0
548,68.0,55,60,0.0,0.0
549,73.0,25,90,0.0,0.0
550,67.0,10,60,0.0,0.0
551,70.0,2,90,0.0,0.0
552,61.0,61,60,0.0,0.0
553,70.0,8,210,0.0,0.0
554,73.0,35,240,0.0,0.0
555,67.0,74,60,0.0,0.0
556,52.0,7,330,0.0,0.0
557,40.0,1,300,0.0,0.0
558,68.0,56,60,0.0,0.0
559,66.0,32,60,0.0,0.0
560,68.0,44,90,0.0,0.0
561,67.0,14,60,0.0,0.0
562,70.0,6,90,0.0,0.0
563,72.0,17,90,0.0,0.0
564,60.0,73,60,0.0,0.0
565,55.0,37,210,0.0,0.0
566,75.0,6,210,0.0,0.0
567,72.0,0,210,0.0,0.0
568,43.0,5,210,0.0,0.0
569,69.0,66,60,0.0,0.0
570,70.0,55,60,0.0,0.0
571,68.0,22,60,0.0,0.0
572,70.0,42,90,0.0,0.0
573,75.0,1,90,0.0,0.0
574,69.0,20,60,0.0,0.0
575,72.0,23,120,0.0,0.0
576,54.0,23,60,0.0,0.0
577,42.0,14,90,0.0,0.0
578,63.0,44,90,0.0,0.0
579,51.0,0,660,0.0,0.0
580,39.0,43,660,0.0,0.0
581,69.0,68,60,0.0,0.0
582,72.0,18,330,0.0,0.0
583,78.0,3,330,0.0,0.0
584,70.0,56,60,0.0,0.0
585,68.0,87,60,0.0,0.0
586,70.0,35,90,0.0,0.0
587,69.0,28,60,0.0,0.0
588,66.0,71,60,0.0,0.0
589,72.0,5,300,0.0,0.0
590,77.0,2,300,0.0,0.0
591,69.0,59,60,0.0,0.0
592,70.0,57,60,0.0,0.0
593,68.0,72,60,0.0,0.0
594,70.0,37,60,0.0,0.0
595,69.0,5,60,0.0,0.0
596,66.0,79,40,0.0,0.0
597,65.0,54,60,0.0,0.0
598,38.0,34,330,0.0,0.0
599,50.0,6,330,0.0,0.0
600,70.0,1,330,0.0,0.0
601,68.0,8,330,0.0,0.0
602,66.0,60,60,0.0,0.0
603,64.0,83,60,0.0,0.0
604,66.0,35,90,0.0,0.0
605,65.0,18,60,0.0,0.0
606,58.0,56,60,0.0,0.0
607,64.0,69,60,0.0,0.0
608,68.0,1,210,0.0,0.0
609,70.0,51,210,0.0,0.0
610,49.0,3,360,0.0,0.0
611,37.0,1,360,0.0,0.0
612,66.0,61,60,0.0,0.0
613,63.0,18,60,0.0,0.0
614,66.0,42,90,0.0,0.0
615,70.0,10,90,0.0,0.0
616,67.0,5,90,0.0,0.0
617,64.0,32,60,0.0,0.0
618,58.0,75,60,0.0,0.0
619,70.0,22,360,0.0,0.0
620,67.0,7,360,0.0,0.0
621,64.0,57,60,0.0,0.0
622,36.0,1,720,0.0,0.0
623,48.0,20,660,0.0,0.0
624,65.0,56,60,0.0,0.0
625,62.0,88,60,0.0,0.0
626,65.0,31,90,0.0,0.0
627,64.0,47,60,0.0,0.0
628,58.0,46,90,0.0,0.0
629,66.0,6,330,0.0,0.0
630,69.0,28,330,0.0,0.0
631,63.0,62,60,0.0,0.0
632,65.0,63,60,0.0,0.0
633,62.0,74,60,0.0,0.0
634,65.0,40,90,0.0,0.0
635,63.0,0,60,0.0,0.0
636,57.0,75,60,0.0,0.0
637,47.0,7,690,0.0,0.0
638,35.0,8,720,0.0,0.0
639,69.0,25,330,0.0,0.0
640,63.0,58,60,0.0,0.0
641,66.0,4,330,0.0,0.0
642,65.0,56,60,0.0,0.0
643,62.0,63,60,0.0,0.0
644,65.0,56,60,0.0,0.0
645,63.0,27,60,0.0,0.0
646,57.0,56,60,0.0,0.0
647,68.0,2,210,0.0,0.0
648,65.0,40,210,0.0,0.0
649,62.0,69,60,0.0,0.0
650,63.0,58,60,0.0,0.0
651,61.0,32,60,0.0,0.0
652,63.0,38,90,0.0,0.0
653,68.0,1,90,0.0,0.0
654,65.0,12,90,0.0,0.0
655,62.0,38,60,0.0,0.0
656,56.0,61,60,0.0,0.0
657,34.0,27,720,0.0,0.0
658,68.0,2,330,0.0,0.0
659,61.0,56,60,0.0,0.0
660,46.0,12,690,0.0,0.0
661,64.0,27,330,0.0,0.0
662,63.0,64,60,0.0,0.0
663,60.0,72,60,0.0,0.0
664,63.0,52,90,0.0,0.0
665,61.0,28,60,0.0,0.0
666,56.0,64,60,0.0,0.0
667,61.0,56,60,0.0,0.0
668,67.0,19,330,0.0,0.0
669,64.0,2,330,0.0,0.0
670,63.0,62,60,0.0,0.0
671,60.0,66,60,0.0,0.0
672,63.0,48,60,0.0,0.0
673,61.0,21,60,0.0,0.0
674,55.0,44,90,0.0,0.0
675,45.0,3,1380,0.0,0.0
676,61.0,56,60,0.0,0.0
677,33.0,3,1440,0.0,0.0
678,64.0,3,330,0.0,0.0
679,67.0,22,330,0.0,0.0
680,63.0,66,60,0.0,0.0
681,60.0,58,60,0.0,0.0
682,63.0,53,60,0.0,0.0
683,61.0,28,60,0.0,0.0
684,55.0,71,60,0.0,0.0
685,64.0,29,210,0.0,0.0
686,60.0,64,60,0.0,0.0
687,67.0,7,210,0.0,0.0
688,62.0,68,60,0.0,0.0
689,59.0,18,90,0.0,0.0
690,62.0,52,60,0.0,0.0
691,60.0,30,60,0.0,0.0
692,64.0,18,90,0.0,0.0
693,67.0,7,90,0.0,0.0
694,55.0,70,60,0.0,0.0
695,63.0,34,330,0.0,0.0
696,67.0,33,390,0.0,0.0
697,59.0,58,60,0.0,0.0
698,60.0,72,60,0.0,0.0
699,58.0,54,60,0.0,0.0
700,60.0,50,60,0.0,0.0
701,59.0,35,60,0.0,0.0
702,54.0,13,60,0.0,0.0
703,59.0,68,60,0.0,0.0
704,63.0,2,240,0.0,0.0
705,66.0,38,240,0.0,0.0
706,60.0,65,60,0.0,0.0
707,58.0,57,60,0.0,0.0
708,60.0,8,60,0.0,0.0
709,59.0,55,60,0.0,0.0
710,54.0,78,60,0.0,0.0
711,34.0,20,1380,0.0,0.0
712,62.0,32,330,0.0,0.0
713,66.0,4,330,0.0,0.0
714,58.0,54,60,0.0,0.0
715,46.0,6,1380,0.0,0.0
716,59.0,58,60,0.0,0.0
717,57.0,68,60,0.0,0.0
718,59.0,48,60,0.0,0.0
719,58.0,32,60,0.0,0.0
720,53.0,50,60,0.0,0.0
721,58.0,71,60,0.0,0.0
722,65.0,1,210,0.0,0.0
723,62.0,43,210,0.0,0.0
724,59.0,55,60,0.0,0.0
725,57.0,20,60,0.0,0.0
726,59.0,54,60,0.0,0.0
727,62.0,6,120,0.0,0.0
728,65.0,2,120,0.0,0.0
729,58.0,44,60,0.0,0.0
730,53.0,67,60,0.0,0.0
731,65.0,38,330,0.0,0.0
732,60.0,13,360,0.0,0.0
733,57.0,65,60,0.0,0.0
734,58.0,59,60,0.0,0.0
735,56.0,79,60,0.0,0.0
736,58.0,36,90,0.0,0.0
737,57.0,21,60,0.0,0.0
738,53.0,65,60,0.0,0.0
739,58.0,46,90,0.0,0.0
740,62.0,4,330,0.0,0.0
741,65.0,10,330,0.0,0.0
742,59.0,65,60,0.0,0.0
743,57.0,58,60,0.0,0.0
744,59.0,40,60,0.0,0.0
745,58.0,25,60,0.0,0.0
746,53.0,78,60,0.0,0.0
747,58.0,61,60,0.0,0.0
748,51.0,99,690,0.0,0.0
749,66.0,38,600,0.0,0.0
750,59.0,60,60,0.0,0.0
751,57.0,70,60,0.0,0.0
752,59.0,45,90,0.0,0.0
753,58.0,72,60,0.0,0.0
754,54.0,47,90,0.0,0.0
755,58.0,66,60,0.0,0.0
756,59.0,53,60,0.0,0.0
757,57.0,65,60,0.0,0.0
758,59.0,8,60,0.0,0.0
759,58.0,6,60,0.0,0.0
760,65.0,20,60,0.0,0.0
761,63.0,56,750,0.0,0.0
762,53.0,35,750,0.0,0.0
763,59.0,71,60,0.0,0.0
764,70.0,32,390,0.0,0.0
765,61.0,58,60,0.0,0.0
766,58.0,64,60,0.0,0.0
767,61.0,43,60,0.0,0.0
768,59.0,79,60,0.0,0.0
769,56.0,8,60,0.0,0.0
770,59.0,71,60,0.0,0.0
771,68.0,15,300,0.0,0.0
772,61.0,67,60,0.0,0.0
773,58.0,66,60,0.0,0.0
774,61.0,41,90,0.0,0.0
775,59.0,12,60,0.0,0.0
776,65.0,15,690,0.0,0.0
777,56.0,65,120,0.0,0.0
778,71.0,3,600,0.0,0.0
779,50.0,13,720,0.0,0.0
780,58.0,58,60,0.0,0.0
781,55.0,73,60,0.0,0.0
782,58.0,47,60,0.0,0.0
783,56.0,73,60,0.0,0.0
784,53.0,44,60,0.0,0.0
785,56.0,71,60,0.0,0.0
786,58.0,50,60,0.0,0.0
787,55.0,59,60,0.0,0.0
788,58.0,38,60,0.0,0.0
789,56.0,25,60,0.0,0.0
790,70.0,49,90,0.0,0.0
791,65.0,36,90,0.0,0.0
792,49.0,43,720,0.0,0.0
793,64.0,53,660,0.0,0.0
794,70.0,6,660,0.0,0.0
795,55.0,68,60,0.0,0.0
796,56.0,64,60,0.0,0.0
797,54.0,64,60,0.0,0.0
798,56.0,49,60,0.0,0.0
799,55.0,70,60,0.0,0.0
800,52.0,42,60,0.0,0.0
801,55.0,69,60,0.0,0.0
802,56.0,59,60,0.0,0.0
803,54.0,66,60,0.0,0.0
804,56.0,59,60,0.0,0.0
805,55.0,78,180,0.0,0.0
806,63.0,25,690,0.0,0.0
807,47.0,1,750,0.0,0.0
808,75.0,16,480,0.0,0.0
809,56.0,63,60,0.0,0.0
810,54.0,67,60,0.0,0.0
811,56.0,40,60,0.0,0.0
812,55.0,70,60,0.0,0.0
813,51.0,52,60,0.0,0.0
814,56.0,54,60,0.0,0.0
815,58.0,59,60,0.0,0.0
816,55.0,21,60,0.0,0.0
817,73.0,43,90,0.0,0.0
818,71.0,0,60,0.0,0.0
819,58.0,32,60,0.0,0.0
820,68.0,75,60,0.0,0.0
821,56.0,77,150,0.0,0.0
822,63.0,20,90,0.0,0.0
823,66.0,6,330,0.0,0.0
824,62.0,24,330,0.0,0.0
825,46.0,16,360,0.0,0.0
826,58.0,64,60,0.0,0.0
827,55.0,65,60,0.0,0.0
828,58.0,46,60,0.0,0.0
829,56.0,25,60,0.0,0.0
830,65.0,54,60,0.0,0.0
831,53.0,3,60,0.0,0.0
832,54.0,62,60,0.0,0.0
833,63.0,3,360,0.0,0.0
834,47.0,59,360,0.0,0.0
835,56.0,61,60,0.0,0.0
836,53.0,61,60,0.0,0.0
837,56.0,56,60,0.0,0.0
838,54.0,53,60,0.0,0.0
839,51.0,9,60,0.0,0.0
840,44.0,55,360,0.0,0.0
841,64.0,6,360,0.0,0.0
842,56.0,62,60,0.0,0.0
843,59.0,13,330,0.0,0.0
844,58.0,54,60,0.0,0.0
845,55.0,67,60,0.0,0.0
846,58.0,57,60,0.0,0.0
847,56.0,30,60,0.0,0.0
848,52.0,5,60,0.0,0.0
849,46.0,7,300,0.0,0.0
850,53.0,69,60,0.0,0.0
851,58.0,14,330,0.0,0.0
852,62.0,0,330,0.0,0.0
853,54.0,57,60,0.0,0.0
854,52.0,74,60,0.0,0.0
855,54.0,33,90,0.0,0.0
856,53.0,46,60,0.0,0.0
857,46.0,17,60,0.0,0.0
858,63.0,51,40,0.0,0.0
859,44.0,3,360,0.0,0.0
860,56.0,63,60,0.0,0.0
861,59.0,6,360,0.0,0.0
862,64.0,53,360,0.0,0.0
863,58.0,60,60,0.0,0.0
864,55.0,74,60,0.0,0.0
865,58.0,45,90,0.0,0.0
866,56.0,40,60,0.0,0.0
867,52.0,13,60,0.0,0.0
868,46.0,17,300,0.0,0.0
869,53.0,62,60,0.0,0.0
870,62.0,8,330,0.0,0.0
871,58.0,16,330,0.0,0.0
872,54.0,56,60,0.0,0.0
873,52.0,75,60,0.0,0.0
874,54.0,33,90,0.0,0.0
875,53.0,32,60,0.0,0.0
876,46.0,17,60,0.0,0.0
877,63.0,43,40,0.0,0.0
878,56.0,67,60,0.0,0.0
879,59.0,8,330,0.0,0.0
880,64.0,26,330,0.0,0.0
881,44.0,66,360,0.0,0.0
882,58.0,64,60,0.0,0.0
883,55.0,61,60,0.0,0.0
884,58.0,56,60,0.0,0.0
885,56.0,12,60,0.0,0.0
886,52.0,3,60,0.0,0.0
887,61.0,1,90,0.0,0.0
888,45.0,46,120,0.0,0.0
889,57.0,25,60,0.0,0.0
890,73.0,2,90,0.0,0.0
891,64.0,38,90,0.0,0.0
892,52.0,6,60,0.0,0.0
893,47.0,47,120,0.0,0.0
894,59.0,22,60,0.0,0.0
895,68.0,1,90,0.0,0.0
896,64.0,40,90,0.0,0.0
897,52.0,11,60,0.0,0.0
898,64.0,20,90,0.0,0.0
899,49.0,51,120,0.0,0.0
900,61.0,21,60,0.0,0.0
901,69.0,13,90,0.0,0.0
902,52.0,30,120,0.0,0.0
903,44.0,77,360,0.0,0.0
904,68.0,41,90,0.0,0.0
905,59.0,9,360,0.0,0.0
906,52.0,19,60,0.0,0.0
907,66.0,59,90,0.0,0.0
908,51.0,55,90,0.0,0.0
909,64.0,2,240,0.0,0.0
910,52.0,59,60,0.0,0.0
911,54.0,39,60,0.0,0.0
912,56.0,13,60,0.0,0.0
913,46.0,84,420,0.0,0.0
914,59.0,41,90,0.0,0.0
915,63.0,55,240,0.0,0.0
916,58.0,57,60,0.0,0.0
917,57.0,59,60,0.0,0.0
918,58.0,2,180,0.0,0.0
919,62.0,56,120,0.0,0.0
920,53.0,45,60,0.0,0.0
921,54.0,14,300,0.0,0.0
922,39.0,1,2610,0.0,0.0
923,63.0,24,2580,0.0,0.0
924,47.0,66,60,0.0,0.0
925,46.0,49,60,0.0,0.0
926,50.0,51,60,0.0,0.0
927,51.0,45,60,0.0,0.0
928,53.0,43,60,0.0,0.0
929,54.0,55,60,0.0,0.0
930,47.0,63,60,0.0,0.0
931,46.0,58,60,0.0,0.0
932,50.0,51,60,0.0,0.0
933,51.0,47,60,0.0,0.0
934,53.0,33,60,0.0,0.0
935,54.0,71,40,0.0,0.0
936,47.0,66,60,0.0,0.0
937,46.0,73,90,0.0,0.0
938,50.0,52,90,0.0,0.0
939,51.0,71,90,0.0,0.0
940,53.0,73,90,0.0,0.0
941,54.0,62,90,0.0,0.0
942,47.0,204,90,0.0,0.0
943,46.0,64,1440,0.0,0.0
944,50.0,122,120,0.0,0.0
945,51.0,183,150,0.0,0.0
946,53.0,891,210,0.0,0.0
947,55.0,0,930,0.0,0.0
