,note,step,duration,channel,velocity
0,67.0,50,39,0.0,0.0
1,64.0,1,27,0.0,0.0
2,67.0,0,27,0.0,0.0
3,48.0,0,27,0.0,0.0
4,36.0,29,27,0.0,0.0
5,64.0,30,27,0.0,0.0
6,72.0,0,27,0.0,0.0
7,65.0,0,27,0.0,0.0
8,68.0,30,27,0.0,0.0
9,65.0,0,27,0.0,0.0
10,74.0,30,27,0.0,0.0
11,62.0,30,27,0.0,0.0
12,65.0,0,27,0.0,0.0
13,56.0,28,58,0.0,0.0
14,71.0,2,27,0.0,0.0
15,62.0,0,27,0.0,0.0
16,62.0,30,27,0.0,0.0
17,59.0,0,27,0.0,0.0
18,55.0,22,64,0.0,0.0
19,59.0,8,27,0.0,0.0
20,67.0,0,27,0.0,0.0
21,54.0,20,60,0.0,0.0
22,60.0,0,27,0.0,0.0
23,63.0,30,27,0.0,0.0
24,60.0,2,27,0.0,0.0
25,69.0,0,27,0.0,0.0
26,53.0,8,20,0.0,0.0
27,62.0,0,27,0.0,0.0
28,68.0,30,27,0.0,0.0
29,71.0,19,27,0.0,0.0
30,62.0,0,27,0.0,0.0
31,36.0,11,17,0.0,0.0
32,67.0,30,27,0.0,0.0
33,64.0,0,27,0.0,0.0
34,72.0,0,27,0.0,0.0
35,64.0,30,27,0.0,0.0
36,48.0,4,301,0.0,0.0
37,68.0,30,27,0.0,0.0
38,65.0,0,27,0.0,0.0
39,65.0,0,27,0.0,0.0
40,74.0,30,27,0.0,0.0
41,65.0,30,27,0.0,0.0
42,56.0,22,64,0.0,0.0
43,71.0,0,27,0.0,0.0
44,62.0,8,27,0.0,0.0
45,62.0,30,27,0.0,0.0
46,59.0,0,27,0.0,0.0
47,55.0,23,64,0.0,0.0
48,67.0,7,27,0.0,0.0
49,59.0,0,27,0.0,0.0
50,54.0,29,58,0.0,0.0
51,63.0,30,27,0.0,0.0
52,60.0,0,27,0.0,0.0
53,60.0,1,27,0.0,0.0
54,69.0,0,27,0.0,0.0
55,68.0,0,27,0.0,0.0
56,62.0,30,27,0.0,0.0
57,53.0,23,63,0.0,0.0
58,71.0,0,27,0.0,0.0
59,62.0,3,27,0.0,0.0
60,52.0,21,67,0.0,0.0
61,67.0,30,27,0.0,0.0
62,64.0,0,27,0.0,0.0
63,72.0,0,27,0.0,0.0
64,64.0,9,27,0.0,0.0
65,50.0,24,64,0.0,0.0
66,71.0,30,27,0.0,0.0
67,65.0,0,27,0.0,0.0
68,65.0,6,27,0.0,0.0
69,74.0,0,27,0.0,0.0
70,49.0,14,104,0.0,0.0
71,67.0,0,27,0.0,0.0
72,70.0,30,27,0.0,0.0
73,67.0,30,27,0.0,0.0
74,76.0,0,27,0.0,0.0
75,61.0,0,44,0.0,0.0
76,70.0,16,27,0.0,0.0
77,76.0,0,27,0.0,0.0
78,70.0,30,27,0.0,0.0
79,79.0,0,27,0.0,0.0
80,62.0,20,38,0.0,0.0
81,50.0,1,37,0.0,0.0
82,74.0,9,27,0.0,0.0
83,69.0,0,27,0.0,0.0
84,69.0,30,27,0.0,0.0
85,77.0,0,27,0.0,0.0
86,52.0,13,45,0.0,0.0
87,60.0,4,41,0.0,0.0
88,67.0,13,27,0.0,0.0
89,69.0,0,27,0.0,0.0
90,67.0,0,27,0.0,0.0
91,76.0,30,27,0.0,0.0
92,61.0,1,30,0.0,0.0
93,52.0,27,31,0.0,0.0
94,69.0,0,27,0.0,0.0
95,67.0,2,27,0.0,0.0
96,67.0,30,27,0.0,0.0
97,76.0,0,27,0.0,0.0
98,69.0,30,27,0.0,0.0
99,65.0,0,27,0.0,0.0
100,53.0,22,64,0.0,0.0
101,62.0,8,56,0.0,0.0
102,65.0,0,27,0.0,0.0
103,74.0,0,27,0.0,0.0
104,54.0,28,60,0.0,0.0
105,63.0,30,27,0.0,0.0
106,69.0,0,27,0.0,0.0
107,72.0,0,27,0.0,0.0
108,63.0,2,27,0.0,0.0
109,55.0,20,68,0.0,0.0
110,67.0,0,27,0.0,0.0
111,64.0,30,27,0.0,0.0
112,64.0,10,27,0.0,0.0
113,72.0,0,27,0.0,0.0
114,43.0,0,58,0.0,0.0
115,63.0,30,27,0.0,0.0
116,66.0,0,27,0.0,0.0
117,72.0,0,27,0.0,0.0
118,63.0,30,27,0.0,0.0
119,62.0,30,27,0.0,0.0
120,65.0,0,27,0.0,0.0
121,55.0,23,63,0.0,0.0
122,62.0,7,27,0.0,0.0
123,71.0,0,27,0.0,0.0
124,48.0,12,314,0.0,0.0
125,64.0,30,27,0.0,0.0
126,67.0,0,27,0.0,0.0
127,64.0,30,27,0.0,0.0
128,72.0,0,27,0.0,0.0
129,56.0,23,125,0.0,0.0
130,65.0,30,27,0.0,0.0
131,68.0,0,27,0.0,0.0
132,65.0,30,27,0.0,0.0
133,74.0,0,27,0.0,0.0
134,65.0,30,27,0.0,0.0
135,62.0,0,27,0.0,0.0
136,62.0,7,27,0.0,0.0
137,71.0,0,27,0.0,0.0
138,62.0,30,27,0.0,0.0
139,59.0,0,27,0.0,0.0
140,55.0,19,67,0.0,0.0
141,59.0,11,27,0.0,0.0
142,67.0,0,27,0.0,0.0
143,63.0,0,27,0.0,0.0
144,60.0,30,27,0.0,0.0
145,54.0,8,64,0.0,0.0
146,69.0,0,27,0.0,0.0
147,60.0,8,27,0.0,0.0
148,62.0,0,27,0.0,0.0
149,68.0,30,27,0.0,0.0
150,53.0,2,24,0.0,0.0
151,62.0,21,27,0.0,0.0
152,71.0,0,27,0.0,0.0
153,67.0,0,27,0.0,0.0
154,64.0,30,27,0.0,0.0
155,36.0,9,17,0.0,0.0
156,64.0,30,27,0.0,0.0
157,72.0,0,27,0.0,0.0
158,68.0,0,27,0.0,0.0
159,65.0,30,27,0.0,0.0
160,48.0,12,254,0.0,0.0
161,65.0,0,27,0.0,0.0
162,74.0,30,27,0.0,0.0
163,62.0,29,27,0.0,0.0
164,65.0,0,27,0.0,0.0
165,56.0,1,55,0.0,0.0
166,71.0,30,27,0.0,0.0
167,62.0,0,27,0.0,0.0
168,55.0,23,64,0.0,0.0
169,59.0,0,27,0.0,0.0
170,62.0,30,27,0.0,0.0
171,67.0,7,27,0.0,0.0
172,59.0,0,27,0.0,0.0
173,60.0,30,27,0.0,0.0
174,63.0,0,27,0.0,0.0
175,54.0,10,64,0.0,0.0
176,60.0,0,27,0.0,0.0
177,69.0,8,27,0.0,0.0
178,68.0,30,27,0.0,0.0
179,62.0,0,27,0.0,0.0
180,53.0,14,73,0.0,0.0
181,62.0,0,27,0.0,0.0
182,71.0,16,27,0.0,0.0
183,52.0,20,68,0.0,0.0
184,64.0,30,27,0.0,0.0
185,67.0,0,27,0.0,0.0
186,64.0,10,27,0.0,0.0
187,72.0,0,27,0.0,0.0
188,70.0,30,27,0.0,0.0
189,67.0,0,27,0.0,0.0
190,48.0,25,61,0.0,0.0
191,67.0,5,27,0.0,0.0
192,76.0,0,27,0.0,0.0
193,47.0,25,63,0.0,0.0
194,67.0,0,27,0.0,0.0
195,71.0,30,27,0.0,0.0
196,67.0,5,27,0.0,0.0
197,76.0,0,27,0.0,0.0
198,73.0,0,27,0.0,0.0
199,67.0,30,27,0.0,0.0
200,46.0,26,60,0.0,0.0
201,67.0,0,27,0.0,0.0
202,76.0,4,27,0.0,0.0
203,47.0,2,56,0.0,0.0
204,71.0,0,27,0.0,0.0
205,76.0,28,27,0.0,0.0
206,71.0,30,27,0.0,0.0
207,79.0,0,27,0.0,0.0
208,59.0,4,54,0.0,0.0
209,71.0,26,27,0.0,0.0
210,69.0,0,27,0.0,0.0
211,69.0,30,27,0.0,0.0
212,78.0,0,27,0.0,0.0
213,52.0,20,38,0.0,0.0
214,67.0,0,27,0.0,0.0
215,71.0,10,27,0.0,0.0
216,76.0,0,27,0.0,0.0
217,67.0,30,27,0.0,0.0
218,76.0,0,27,0.0,0.0
219,71.0,30,27,0.0,0.0
220,79.0,0,27,0.0,0.0
221,71.0,30,27,0.0,0.0
222,79.0,30,27,0.0,0.0
223,76.0,0,27,0.0,0.0
224,83.0,0,27,0.0,0.0
225,76.0,30,27,0.0,0.0
226,79.0,30,27,0.0,0.0
227,83.0,0,27,0.0,0.0
228,64.0,23,63,0.0,0.0
229,79.0,7,27,0.0,0.0
230,88.0,0,27,0.0,0.0
231,65.0,25,63,0.0,0.0
232,81.0,0,27,0.0,0.0
233,77.0,30,27,0.0,0.0
234,86.0,5,27,0.0,0.0
235,77.0,0,27,0.0,0.0
236,67.0,18,70,0.0,0.0
237,79.0,30,27,0.0,0.0
238,77.0,0,27,0.0,0.0
239,77.0,0,27,0.0,0.0
240,83.0,12,27,0.0,0.0
241,60.0,24,64,0.0,0.0
242,79.0,0,27,0.0,0.0
243,76.0,30,27,0.0,0.0
244,76.0,6,27,0.0,0.0
245,84.0,0,27,0.0,0.0
246,68.0,16,132,0.0,0.0
247,80.0,30,27,0.0,0.0
248,77.0,0,27,0.0,0.0
249,86.0,30,27,0.0,0.0
250,77.0,0,27,0.0,0.0
251,77.0,30,27,0.0,0.0
252,74.0,0,27,0.0,0.0
253,74.0,0,27,0.0,0.0
254,83.0,14,27,0.0,0.0
255,71.0,0,27,0.0,0.0
256,74.0,30,27,0.0,0.0
257,67.0,19,67,0.0,0.0
258,79.0,11,27,0.0,0.0
259,71.0,0,27,0.0,0.0
260,72.0,30,27,0.0,0.0
261,75.0,0,27,0.0,0.0
262,66.0,21,62,0.0,0.0
263,72.0,0,27,0.0,0.0
264,81.0,6,27,0.0,0.0
265,65.0,3,25,0.0,0.0
266,80.0,30,27,0.0,0.0
267,74.0,0,27,0.0,0.0
268,83.0,0,27,0.0,0.0
269,74.0,19,27,0.0,0.0
270,48.0,11,17,0.0,0.0
271,76.0,30,27,0.0,0.0
272,79.0,0,27,0.0,0.0
273,84.0,0,27,0.0,0.0
274,76.0,30,27,0.0,0.0
275,80.0,30,27,0.0,0.0
276,77.0,0,27,0.0,0.0
277,60.0,28,269,0.0,0.0
278,77.0,30,27,0.0,0.0
279,86.0,0,27,0.0,0.0
280,74.0,30,27,0.0,0.0
281,77.0,0,27,0.0,0.0
282,68.0,28,58,0.0,0.0
283,74.0,2,27,0.0,0.0
284,83.0,0,27,0.0,0.0
285,74.0,0,27,0.0,0.0
286,71.0,30,27,0.0,0.0
287,67.0,24,62,0.0,0.0
288,79.0,0,27,0.0,0.0
289,71.0,6,27,0.0,0.0
290,72.0,29,27,0.0,0.0
291,75.0,0,27,0.0,0.0
292,66.0,1,56,0.0,0.0
293,81.0,0,27,0.0,0.0
294,72.0,30,27,0.0,0.0
295,65.0,22,66,0.0,0.0
296,80.0,2,27,0.0,0.0
297,74.0,0,27,0.0,0.0
298,83.0,8,27,0.0,0.0
299,74.0,0,27,0.0,0.0
300,64.0,18,70,0.0,0.0
301,76.0,0,27,0.0,0.0
302,79.0,30,27,0.0,0.0
303,84.0,12,27,0.0,0.0
304,76.0,0,27,0.0,0.0
305,62.0,24,64,0.0,0.0
306,83.0,0,27,0.0,0.0
307,77.0,30,27,0.0,0.0
308,86.0,6,27,0.0,0.0
309,77.0,0,27,0.0,0.0
310,61.0,0,88,0.0,0.0
311,82.0,30,27,0.0,0.0
312,79.0,0,27,0.0,0.0
313,88.0,0,27,0.0,0.0
314,79.0,30,27,0.0,0.0
315,70.0,5,51,0.0,0.0
316,73.0,2,56,0.0,0.0
317,67.0,2,49,0.0,0.0
318,88.0,21,27,0.0,0.0
319,82.0,0,27,0.0,0.0
320,82.0,0,27,0.0,0.0
321,91.0,30,27,0.0,0.0
322,74.0,6,52,0.0,0.0
323,62.0,0,49,0.0,0.0
324,69.0,2,50,0.0,0.0
325,81.0,21,27,0.0,0.0
326,86.0,0,27,0.0,0.0
327,65.0,1,48,0.0,0.0
328,81.0,0,27,0.0,0.0
329,89.0,30,27,0.0,0.0
330,73.0,9,48,0.0,0.0
331,79.0,0,27,0.0,0.0
332,81.0,16,27,0.0,0.0
333,69.0,0,43,0.0,0.0
334,64.0,1,42,0.0,0.0
335,67.0,4,43,0.0,0.0
336,79.0,28,27,0.0,0.0
337,88.0,0,27,0.0,0.0
338,81.0,0,27,0.0,0.0
339,79.0,10,27,0.0,0.0
340,73.0,17,39,0.0,0.0
341,67.0,0,36,0.0,0.0
342,64.0,2,24,0.0,0.0
343,69.0,3,36,0.0,0.0
344,79.0,30,27,0.0,0.0
345,88.0,0,27,0.0,0.0
346,81.0,8,27,0.0,0.0
347,77.0,0,27,0.0,0.0
348,69.0,18,38,0.0,0.0
349,74.0,1,34,0.0,0.0
350,65.0,3,35,0.0,0.0
351,77.0,0,27,0.0,0.0
352,86.0,30,27,0.0,0.0
353,81.0,30,27,0.0,0.0
354,75.0,0,27,0.0,0.0
355,69.0,2,65,0.0,0.0
356,66.0,19,67,0.0,0.0
357,75.0,9,27,0.0,0.0
358,84.0,0,27,0.0,0.0
359,79.0,30,27,0.0,0.0
360,76.0,0,27,0.0,0.0
361,67.0,17,69,0.0,0.0
362,76.0,13,27,0.0,0.0
363,84.0,0,27,0.0,0.0
364,78.0,30,27,0.0,0.0
365,75.0,0,27,0.0,0.0
366,55.0,16,57,0.0,0.0
367,75.0,1,27,0.0,0.0
368,84.0,0,27,0.0,0.0
369,67.0,13,15,0.0,0.0
370,74.0,30,27,0.0,0.0
371,77.0,0,27,0.0,0.0
372,83.0,0,27,0.0,0.0
373,74.0,8,27,0.0,0.0
374,48.0,22,17,0.0,0.0
375,76.0,0,27,0.0,0.0
376,79.0,30,27,0.0,0.0
377,60.0,2,330,0.0,0.0
378,76.0,30,27,0.0,0.0
379,84.0,0,27,0.0,0.0
380,68.0,29,118,0.0,0.0
381,80.0,30,27,0.0,0.0
382,77.0,0,27,0.0,0.0
383,86.0,30,27,0.0,0.0
384,77.0,0,27,0.0,0.0
385,77.0,30,27,0.0,0.0
386,74.0,0,27,0.0,0.0
387,74.0,0,27,0.0,0.0
388,83.0,1,27,0.0,0.0
389,67.0,22,66,0.0,0.0
390,74.0,30,27,0.0,0.0
391,71.0,0,27,0.0,0.0
392,79.0,8,27,0.0,0.0
393,71.0,0,27,0.0,0.0
394,66.0,3,55,0.0,0.0
395,72.0,0,27,0.0,0.0
396,75.0,27,27,0.0,0.0
397,81.0,0,27,0.0,0.0
398,72.0,30,27,0.0,0.0
399,65.0,25,33,0.0,0.0
400,80.0,3,27,0.0,0.0
401,74.0,0,27,0.0,0.0
402,74.0,30,27,0.0,0.0
403,83.0,0,27,0.0,0.0
404,79.0,2,27,0.0,0.0
405,76.0,0,27,0.0,0.0
406,48.0,28,28,0.0,0.0
407,76.0,30,27,0.0,0.0
408,84.0,0,27,0.0,0.0
409,80.0,30,27,0.0,0.0
410,77.0,0,27,0.0,0.0
411,60.0,30,267,0.0,0.0
412,86.0,30,27,0.0,0.0
413,77.0,0,27,0.0,0.0
414,77.0,30,27,0.0,0.0
415,74.0,0,27,0.0,0.0
416,68.0,26,60,0.0,0.0
417,74.0,0,27,0.0,0.0
418,83.0,4,27,0.0,0.0
419,67.0,21,67,0.0,0.0
420,71.0,30,27,0.0,0.0
421,74.0,0,27,0.0,0.0
422,79.0,0,27,0.0,0.0
423,71.0,9,27,0.0,0.0
424,75.0,25,27,0.0,0.0
425,72.0,0,27,0.0,0.0
426,66.0,5,52,0.0,0.0
427,81.0,30,27,0.0,0.0
428,72.0,0,27,0.0,0.0
429,65.0,21,67,0.0,0.0
430,74.0,0,27,0.0,0.0
431,80.0,0,27,0.0,0.0
432,74.0,0,27,0.0,0.0
433,83.0,9,27,0.0,0.0
434,64.0,15,73,0.0,0.0
435,76.0,30,27,0.0,0.0
436,79.0,0,27,0.0,0.0
437,76.0,15,27,0.0,0.0
438,84.0,0,27,0.0,0.0
439,60.0,27,61,0.0,0.0
440,82.0,30,27,0.0,0.0
441,79.0,0,27,0.0,0.0
442,79.0,0,27,0.0,0.0
443,88.0,3,27,0.0,0.0
444,59.0,24,64,0.0,0.0
445,79.0,0,27,0.0,0.0
446,83.0,30,27,0.0,0.0
447,79.0,6,27,0.0,0.0
448,88.0,0,27,0.0,0.0
449,58.0,0,58,0.0,0.0
450,85.0,30,27,0.0,0.0
451,79.0,0,27,0.0,0.0
452,88.0,30,27,0.0,0.0
453,79.0,0,27,0.0,0.0
454,59.0,13,75,0.0,0.0
455,83.0,0,27,0.0,0.0
456,88.0,30,27,0.0,0.0
457,83.0,17,27,0.0,0.0
458,91.0,0,27,0.0,0.0
459,81.0,30,27,0.0,0.0
460,83.0,0,27,0.0,0.0
461,47.0,22,56,0.0,0.0
462,90.0,0,27,0.0,0.0
463,81.0,0,27,0.0,0.0
464,40.0,8,20,0.0,0.0
465,79.0,30,27,0.0,0.0
466,83.0,0,27,0.0,0.0
467,88.0,30,27,0.0,0.0
468,79.0,0,27,0.0,0.0
469,55.0,25,63,0.0,0.0
470,83.0,0,27,0.0,0.0
471,79.0,30,27,0.0,0.0
472,79.0,5,27,0.0,0.0
473,88.0,0,27,0.0,0.0
474,52.0,11,47,0.0,0.0
475,79.0,0,27,0.0,0.0
476,83.0,19,27,0.0,0.0
477,88.0,30,27,0.0,0.0
478,79.0,0,27,0.0,0.0
479,79.0,30,27,0.0,0.0
480,83.0,0,27,0.0,0.0
481,67.0,0,116,0.0,0.0
482,79.0,0,27,0.0,0.0
483,88.0,30,27,0.0,0.0
484,79.0,30,27,0.0,0.0
485,83.0,0,27,0.0,0.0
486,79.0,0,27,0.0,0.0
487,88.0,30,27,0.0,0.0
488,62.0,18,40,0.0,0.0
489,82.0,12,27,0.0,0.0
490,79.0,0,27,0.0,0.0
491,88.0,0,27,0.0,0.0
492,79.0,16,27,0.0,0.0
493,79.0,0,27,0.0,0.0
494,81.0,30,27,0.0,0.0
495,45.0,14,12,0.0,0.0
496,79.0,0,27,0.0,0.0
497,88.0,30,27,0.0,0.0
498,79.0,1,27,0.0,0.0
499,81.0,0,27,0.0,0.0
500,61.0,29,27,0.0,0.0
501,52.0,26,32,0.0,0.0
502,79.0,4,27,0.0,0.0
503,88.0,0,27,0.0,0.0
504,45.0,25,33,0.0,0.0
505,79.0,5,27,0.0,0.0
506,81.0,0,27,0.0,0.0
507,79.0,0,27,0.0,0.0
508,88.0,11,27,0.0,0.0
509,79.0,0,27,0.0,0.0
510,81.0,30,27,0.0,0.0
511,33.0,19,7,0.0,0.0
512,88.0,30,27,0.0,0.0
513,79.0,0,27,0.0,0.0
514,61.0,30,28,0.0,0.0
515,79.0,0,27,0.0,0.0
516,81.0,0,27,0.0,0.0
517,52.0,23,33,0.0,0.0
518,79.0,5,27,0.0,0.0
519,89.0,0,27,0.0,0.0
520,45.0,2,26,0.0,0.0
521,79.0,30,27,0.0,0.0
522,81.0,0,27,0.0,0.0
523,79.0,11,27,0.0,0.0
524,88.0,0,27,0.0,0.0
525,79.0,0,27,0.0,0.0
526,81.0,30,27,0.0,0.0
527,38.0,19,8,0.0,0.0
528,88.0,0,27,0.0,0.0
529,79.0,30,27,0.0,0.0
530,81.0,3,27,0.0,0.0
531,76.0,0,27,0.0,0.0
532,69.0,27,29,0.0,0.0
533,57.0,20,31,0.0,0.0
534,76.0,0,27,0.0,0.0
535,85.0,3,27,0.0,0.0
536,50.0,7,21,0.0,0.0
537,81.0,30,27,0.0,0.0
538,77.0,0,27,0.0,0.0
539,86.0,0,27,0.0,0.0
540,77.0,30,27,0.0,0.0
541,65.0,13,131,0.0,0.0
542,81.0,30,27,0.0,0.0
543,77.0,0,27,0.0,0.0
544,77.0,0,27,0.0,0.0
545,86.0,30,27,0.0,0.0
546,81.0,0,27,0.0,0.0
547,77.0,30,27,0.0,0.0
548,77.0,0,27,0.0,0.0
549,86.0,13,27,0.0,0.0
550,60.0,4,24,0.0,0.0
551,80.0,0,27,0.0,0.0
552,77.0,30,27,0.0,0.0
553,86.0,14,27,0.0,0.0
554,77.0,0,27,0.0,0.0
555,77.0,0,27,0.0,0.0
556,43.0,16,11,0.0,0.0
557,79.0,30,27,0.0,0.0
558,77.0,30,27,0.0,0.0
559,86.0,0,27,0.0,0.0
560,59.0,24,34,0.0,0.0
561,79.0,6,27,0.0,0.0
562,77.0,0,27,0.0,0.0
563,50.0,9,33,0.0,0.0
564,77.0,5,27,0.0,0.0
565,86.0,0,27,0.0,0.0
566,43.0,16,12,0.0,0.0
567,79.0,0,27,0.0,0.0
568,77.0,30,27,0.0,0.0
569,77.0,11,27,0.0,0.0
570,86.0,0,27,0.0,0.0
571,31.0,19,9,0.0,0.0
572,79.0,30,27,0.0,0.0
573,77.0,0,27,0.0,0.0
574,86.0,0,27,0.0,0.0
575,77.0,30,27,0.0,0.0
576,79.0,4,27,0.0,0.0
577,77.0,0,27,0.0,0.0
578,59.0,26,30,0.0,0.0
579,88.0,8,27,0.0,0.0
580,77.0,0,27,0.0,0.0
581,50.0,11,34,0.0,0.0
582,43.0,11,16,0.0,0.0
583,77.0,0,27,0.0,0.0
584,79.0,30,27,0.0,0.0
585,77.0,15,27,0.0,0.0
586,86.0,0,27,0.0,0.0
587,36.0,15,13,0.0,0.0
588,77.0,0,27,0.0,0.0
589,79.0,30,27,0.0,0.0
590,86.0,0,27,0.0,0.0
591,77.0,30,27,0.0,0.0
592,67.0,30,28,0.0,0.0
593,79.0,0,27,0.0,0.0
594,74.0,0,27,0.0,0.0
595,55.0,16,30,0.0,0.0
596,83.0,0,27,0.0,0.0
597,74.0,2,27,0.0,0.0
598,48.0,12,16,0.0,0.0
599,79.0,30,27,0.0,0.0
600,76.0,0,27,0.0,0.0
601,76.0,30,27,0.0,0.0
602,84.0,0,27,0.0,0.0
603,64.0,21,126,0.0,0.0
604,76.0,30,27,0.0,0.0
605,79.0,0,27,0.0,0.0
606,76.0,30,27,0.0,0.0
607,84.0,0,27,0.0,0.0
608,79.0,0,27,0.0,0.0
609,76.0,30,27,0.0,0.0
610,76.0,8,27,0.0,0.0
611,84.0,0,27,0.0,0.0
612,57.0,1,27,0.0,0.0
613,79.0,30,27,0.0,0.0
614,74.0,0,27,0.0,0.0
615,83.0,21,27,0.0,0.0
616,74.0,0,27,0.0,0.0
617,38.0,9,19,0.0,0.0
618,72.0,0,27,0.0,0.0
619,74.0,30,27,0.0,0.0
620,72.0,30,27,0.0,0.0
621,81.0,0,27,0.0,0.0
622,66.0,30,28,0.0,0.0
623,72.0,0,27,0.0,0.0
624,74.0,0,27,0.0,0.0
625,57.0,13,29,0.0,0.0
626,72.0,1,27,0.0,0.0
627,81.0,0,27,0.0,0.0
628,74.0,30,27,0.0,0.0
629,50.0,16,11,0.0,0.0
630,72.0,0,27,0.0,0.0
631,72.0,10,27,0.0,0.0
632,81.0,0,27,0.0,0.0
633,38.0,20,8,0.0,0.0
634,72.0,30,27,0.0,0.0
635,74.0,0,27,0.0,0.0
636,81.0,0,27,0.0,0.0
637,72.0,28,27,0.0,0.0
638,74.0,0,27,0.0,0.0
639,72.0,30,27,0.0,0.0
640,66.0,2,24,0.0,0.0
641,57.0,13,29,0.0,0.0
642,72.0,0,27,0.0,0.0
643,83.0,1,27,0.0,0.0
644,50.0,16,12,0.0,0.0
645,72.0,30,27,0.0,0.0
646,74.0,0,27,0.0,0.0
647,72.0,0,27,0.0,0.0
648,81.0,30,27,0.0,0.0
649,43.0,19,99,0.0,0.0
650,71.0,30,27,0.0,0.0
651,74.0,0,27,0.0,0.0
652,71.0,0,27,0.0,0.0
653,75.0,30,27,0.0,0.0
654,71.0,11,27,0.0,0.0
655,74.0,0,27,0.0,0.0
656,50.0,28,30,0.0,0.0
657,71.0,2,27,0.0,0.0
658,76.0,0,27,0.0,0.0
659,55.0,24,34,0.0,0.0
660,71.0,0,27,0.0,0.0
661,74.0,6,27,0.0,0.0
662,57.0,27,31,0.0,0.0
663,71.0,3,27,0.0,0.0
664,77.0,0,27,0.0,0.0
665,59.0,23,95,0.0,0.0
666,71.0,0,27,0.0,0.0
667,74.0,30,27,0.0,0.0
668,71.0,30,27,0.0,0.0
669,78.0,0,27,0.0,0.0
670,74.0,0,27,0.0,0.0
671,71.0,7,27,0.0,0.0
672,71.0,0,27,0.0,0.0
673,79.0,30,27,0.0,0.0
674,57.0,0,26,0.0,0.0
675,74.0,8,27,0.0,0.0
676,71.0,0,27,0.0,0.0
677,55.0,11,35,0.0,0.0
678,71.0,15,27,0.0,0.0
679,80.0,0,27,0.0,0.0
680,50.0,11,16,0.0,0.0
681,74.0,30,27,0.0,0.0
682,38.0,15,12,0.0,0.0
683,72.0,0,27,0.0,0.0
684,72.0,30,27,0.0,0.0
685,81.0,0,27,0.0,0.0
686,66.0,29,29,0.0,0.0
687,72.0,0,27,0.0,0.0
688,74.0,1,27,0.0,0.0
689,57.0,14,31,0.0,0.0
690,72.0,3,27,0.0,0.0
691,81.0,0,27,0.0,0.0
692,72.0,30,27,0.0,0.0
693,50.0,13,14,0.0,0.0
694,74.0,0,27,0.0,0.0
695,81.0,12,27,0.0,0.0
696,72.0,0,27,0.0,0.0
697,74.0,30,27,0.0,0.0
698,72.0,0,27,0.0,0.0
699,38.0,18,9,0.0,0.0
700,72.0,24,27,0.0,0.0
701,81.0,0,27,0.0,0.0
702,74.0,30,27,0.0,0.0
703,72.0,0,27,0.0,0.0
704,66.0,6,20,0.0,0.0
705,57.0,11,31,0.0,0.0
706,83.0,0,27,0.0,0.0
707,72.0,3,27,0.0,0.0
708,50.0,16,12,0.0,0.0
709,74.0,30,27,0.0,0.0
710,72.0,0,27,0.0,0.0
711,72.0,28,27,0.0,0.0
712,81.0,0,27,0.0,0.0
713,67.0,25,33,0.0,0.0
714,55.0,2,26,0.0,0.0
715,59.0,2,31,0.0,0.0
716,71.0,0,27,0.0,0.0
717,74.0,3,27,0.0,0.0
718,71.0,2,27,0.0,0.0
719,79.0,0,27,0.0,0.0
720,53.0,28,18,0.0,0.0
721,60.0,3,45,0.0,0.0
722,63.0,0,44,0.0,0.0
723,75.0,7,27,0.0,0.0
724,72.0,0,27,0.0,0.0
725,68.0,20,32,0.0,0.0
726,80.0,0,27,0.0,0.0
727,72.0,30,27,0.0,0.0
728,72.0,30,27,0.0,0.0
729,68.0,0,27,0.0,0.0
730,68.0,0,27,0.0,0.0
731,77.0,30,27,0.0,0.0
732,68.0,30,27,0.0,0.0
733,65.0,0,27,0.0,0.0
734,74.0,30,27,0.0,0.0
735,65.0,0,27,0.0,0.0
736,41.0,7,81,0.0,0.0
737,65.0,0,27,0.0,0.0
738,68.0,18,27,0.0,0.0
739,53.0,12,45,0.0,0.0
740,65.0,0,27,0.0,0.0
741,74.0,23,27,0.0,0.0
742,69.0,0,27,0.0,0.0
743,63.0,26,27,0.0,0.0
744,42.0,3,53,0.0,0.0
745,54.0,1,52,0.0,0.0
746,63.0,28,27,0.0,0.0
747,72.0,0,27,0.0,0.0
748,55.0,22,31,0.0,0.0
749,43.0,2,26,0.0,0.0
750,62.0,3,27,0.0,0.0
751,67.0,0,27,0.0,0.0
752,71.0,0,27,0.0,0.0
753,62.0,18,27,0.0,0.0
754,41.0,5,17,0.0,0.0
755,48.0,9,32,0.0,0.0
756,51.0,0,25,0.0,0.0
757,60.0,30,27,0.0,0.0
758,63.0,0,27,0.0,0.0
759,56.0,3,13,0.0,0.0
760,68.0,30,27,0.0,0.0
761,60.0,0,27,0.0,0.0
762,60.0,30,27,0.0,0.0
763,56.0,0,27,0.0,0.0
764,65.0,30,27,0.0,0.0
765,56.0,0,27,0.0,0.0
766,53.0,30,27,0.0,0.0
767,56.0,0,27,0.0,0.0
768,53.0,0,27,0.0,0.0
769,62.0,30,27,0.0,0.0
770,41.0,9,49,0.0,0.0
771,29.0,26,91,0.0,0.0
772,56.0,21,27,0.0,0.0
773,53.0,0,27,0.0,0.0
774,62.0,30,27,0.0,0.0
775,53.0,0,27,0.0,0.0
776,57.0,3,27,0.0,0.0
777,51.0,0,27,0.0,0.0
778,30.0,1,55,0.0,0.0
779,42.0,25,61,0.0,0.0
780,51.0,5,27,0.0,0.0
781,60.0,0,27,0.0,0.0
782,50.0,30,27,0.0,0.0
783,55.0,0,27,0.0,0.0
784,31.0,12,1064,0.0,0.0
785,43.0,0,1064,0.0,0.0
786,59.0,30,27,0.0,0.0
787,50.0,0,27,0.0,0.0
788,57.0,0,27,0.0,0.0
789,53.0,30,27,0.0,0.0
790,62.0,30,27,0.0,0.0
791,53.0,0,27,0.0,0.0
792,52.0,30,27,0.0,0.0
793,55.0,0,27,0.0,0.0
794,52.0,30,27,0.0,0.0
795,60.0,0,27,0.0,0.0
796,59.0,30,27,0.0,0.0
797,55.0,0,27,0.0,0.0
798,55.0,30,27,0.0,0.0
799,64.0,0,27,0.0,0.0
800,57.0,30,27,0.0,0.0
801,53.0,0,27,0.0,0.0
802,62.0,0,27,0.0,0.0
803,53.0,30,27,0.0,0.0
804,57.0,30,27,0.0,0.0
805,60.0,0,27,0.0,0.0
806,65.0,30,27,0.0,0.0
807,57.0,0,27,0.0,0.0
808,55.0,30,27,0.0,0.0
809,59.0,0,27,0.0,0.0
810,55.0,0,27,0.0,0.0
811,64.0,30,27,0.0,0.0
812,62.0,0,27,0.0,0.0
813,59.0,30,27,0.0,0.0
814,67.0,0,27,0.0,0.0
815,59.0,30,27,0.0,0.0
816,60.0,0,27,0.0,0.0
817,57.0,30,27,0.0,0.0
818,65.0,30,27,0.0,0.0
819,57.0,0,27,0.0,0.0
820,64.0,30,27,0.0,0.0
821,60.0,0,27,0.0,0.0
822,60.0,30,27,0.0,0.0
823,69.0,0,27,0.0,0.0
824,59.0,0,27,0.0,0.0
825,62.0,30,27,0.0,0.0
826,67.0,30,27,0.0,0.0
827,59.0,0,27,0.0,0.0
828,65.0,30,27,0.0,0.0
829,62.0,0,27,0.0,0.0
830,71.0,30,27,0.0,0.0
831,62.0,0,27,0.0,0.0
832,64.0,30,27,0.0,0.0
833,60.0,0,27,0.0,0.0
834,60.0,30,27,0.0,0.0
835,69.0,0,27,0.0,0.0
836,65.0,0,27,0.0,0.0
837,62.0,30,27,0.0,0.0
838,62.0,0,27,0.0,0.0
839,71.0,30,27,0.0,0.0
840,67.0,30,27,0.0,0.0
841,64.0,0,27,0.0,0.0
842,72.0,30,27,0.0,0.0
843,64.0,0,27,0.0,0.0
844,65.0,0,27,0.0,0.0
845,69.0,30,27,0.0,0.0
846,74.0,30,27,0.0,0.0
847,65.0,0,27,0.0,0.0
848,67.0,0,27,0.0,0.0
849,71.0,30,27,0.0,0.0
850,67.0,30,27,0.0,0.0
851,76.0,0,27,0.0,0.0
852,72.0,0,27,0.0,0.0
853,69.0,18,27,0.0,0.0
854,69.0,0,27,0.0,0.0
855,77.0,30,27,0.0,0.0
856,74.0,30,27,0.0,0.0
857,71.0,0,27,0.0,0.0
858,79.0,30,27,0.0,0.0
859,71.0,0,27,0.0,0.0
860,72.0,30,27,0.0,0.0
861,74.0,0,27,0.0,0.0
862,66.0,22,184,0.0,0.0
863,72.0,30,27,0.0,0.0
864,81.0,0,27,0.0,0.0
865,72.0,0,27,0.0,0.0
866,74.0,30,27,0.0,0.0
867,72.0,30,27,0.0,0.0
868,81.0,0,27,0.0,0.0
869,74.0,30,27,0.0,0.0
870,72.0,0,27,0.0,0.0
871,72.0,0,27,0.0,0.0
872,81.0,8,27,0.0,0.0
873,74.0,30,27,0.0,0.0
874,72.0,0,27,0.0,0.0
875,64.0,13,73,0.0,0.0
876,72.0,17,27,0.0,0.0
877,83.0,0,27,0.0,0.0
878,72.0,30,27,0.0,0.0
879,74.0,0,27,0.0,0.0
880,66.0,22,64,0.0,0.0
881,81.0,0,27,0.0,0.0
882,72.0,8,27,0.0,0.0
883,71.0,0,27,0.0,0.0
884,74.0,30,27,0.0,0.0
885,67.0,26,240,0.0,0.0
886,71.0,30,27,0.0,0.0
887,79.0,0,27,0.0,0.0
888,74.0,30,27,0.0,0.0
889,71.0,0,27,0.0,0.0
890,71.0,0,27,0.0,0.0
891,79.0,30,27,0.0,0.0
892,74.0,30,27,0.0,0.0
893,71.0,0,27,0.0,0.0
894,71.0,30,27,0.0,0.0
895,79.0,0,27,0.0,0.0
896,74.0,30,27,0.0,0.0
897,70.0,0,27,0.0,0.0
898,79.0,0,27,0.0,0.0
899,70.0,4,27,0.0,0.0
900,62.0,20,68,0.0,0.0
901,70.0,30,27,0.0,0.0
902,74.0,0,27,0.0,0.0
903,79.0,10,27,0.0,0.0
904,70.0,0,27,0.0,0.0
905,64.0,21,67,0.0,0.0
906,72.0,30,27,0.0,0.0
907,70.0,0,27,0.0,0.0
908,70.0,0,27,0.0,0.0
909,79.0,9,27,0.0,0.0
910,69.0,30,27,0.0,0.0
911,72.0,0,27,0.0,0.0
912,65.0,18,248,0.0,0.0
913,77.0,0,27,0.0,0.0
914,69.0,30,27,0.0,0.0
915,72.0,30,27,0.0,0.0
916,69.0,0,27,0.0,0.0
917,69.0,30,27,0.0,0.0
918,77.0,0,27,0.0,0.0
919,69.0,30,27,0.0,0.0
920,72.0,0,27,0.0,0.0
921,69.0,30,27,0.0,0.0
922,77.0,0,27,0.0,0.0
923,72.0,30,27,0.0,0.0
924,69.0,0,27,0.0,0.0
925,77.0,0,27,0.0,0.0
926,69.0,12,27,0.0,0.0
927,60.0,14,74,0.0,0.0
928,72.0,0,27,0.0,0.0
929,69.0,30,27,0.0,0.0
930,69.0,16,27,0.0,0.0
931,77.0,0,27,0.0,0.0
932,69.0,30,27,0.0,0.0
933,71.0,0,27,0.0,0.0
934,62.0,22,64,0.0,0.0
935,69.0,8,27,0.0,0.0
936,77.0,0,27,0.0,0.0
937,71.0,30,27,0.0,0.0
938,68.0,0,27,0.0,0.0
939,64.0,22,64,0.0,0.0
940,68.0,8,27,0.0,0.0
941,76.0,0,27,0.0,0.0
942,67.0,0,27,0.0,0.0
943,71.0,30,27,0.0,0.0
944,59.0,17,69,0.0,0.0
945,76.0,0,27,0.0,0.0
946,67.0,13,27,0.0,0.0
947,67.0,0,27,0.0,0.0
948,69.0,30,27,0.0,0.0
949,61.0,20,66,0.0,0.0
950,67.0,0,27,0.0,0.0
951,76.0,10,27,0.0,0.0
952,69.0,0,27,0.0,0.0
953,66.0,30,27,0.0,0.0
954,62.0,25,61,0.0,0.0
955,74.0,5,27,0.0,0.0
956,66.0,0,27,0.0,0.0
957,57.0,14,74,0.0,0.0
958,69.0,0,27,0.0,0.0
959,65.0,30,27,0.0,0.0
960,65.0,16,27,0.0,0.0
961,74.0,0,27,0.0,0.0
962,59.0,26,61,0.0,0.0
963,65.0,30,27,0.0,0.0
964,67.0,0,27,0.0,0.0
965,65.0,4,27,0.0,0.0
966,74.0,0,27,0.0,0.0
967,67.0,0,27,0.0,0.0
968,64.0,30,27,0.0,0.0
969,60.0,19,67,0.0,0.0
970,64.0,11,27,0.0,0.0
971,72.0,0,27,0.0,0.0
972,63.0,30,27,0.0,0.0
973,68.0,0,27,0.0,0.0
974,56.0,21,65,0.0,0.0
975,72.0,9,27,0.0,0.0
976,63.0,0,27,0.0,0.0
977,69.0,30,27,0.0,0.0
978,63.0,0,27,0.0,0.0
979,54.0,23,64,0.0,0.0
980,63.0,0,27,0.0,0.0
981,72.0,7,27,0.0,0.0
982,67.0,30,27,0.0,0.0
983,64.0,0,27,0.0,0.0
984,55.0,24,62,0.0,0.0
985,64.0,0,27,0.0,0.0
986,72.0,6,27,0.0,0.0
987,66.0,0,27,0.0,0.0
988,43.0,7,70,0.0,0.0
989,63.0,30,27,0.0,0.0
990,72.0,0,27,0.0,0.0
991,63.0,13,27,0.0,0.0
992,62.0,30,27,0.0,0.0
993,65.0,0,27,0.0,0.0
994,55.0,10,16,0.0,0.0
995,71.0,0,27,0.0,0.0
996,62.0,14,27,0.0,0.0
997,36.0,16,16,0.0,0.0
998,48.0,4,300,0.0,0.0
999,67.0,0,27,0.0,0.0
1000,64.0,30,27,0.0,0.0
1001,64.0,30,27,0.0,0.0
1002,72.0,0,27,0.0,0.0
1003,68.0,0,27,0.0,0.0
1004,65.0,30,27,0.0,0.0
1005,56.0,22,123,0.0,0.0
1006,65.0,30,27,0.0,0.0
1007,74.0,0,27,0.0,0.0
1008,62.0,30,27,0.0,0.0
1009,65.0,0,27,0.0,0.0
1010,71.0,0,27,0.0,0.0
1011,62.0,8,27,0.0,0.0
1012,59.0,0,27,0.0,0.0
1013,62.0,30,27,0.0,0.0
1014,55.0,18,68,0.0,0.0
1015,67.0,0,27,0.0,0.0
1016,59.0,12,27,0.0,0.0
1017,60.0,0,27,0.0,0.0
1018,63.0,30,27,0.0,0.0
1019,54.0,23,63,0.0,0.0
1020,60.0,3,27,0.0,0.0
1021,69.0,0,27,0.0,0.0
1022,53.0,14,44,0.0,0.0
1023,62.0,16,27,0.0,0.0
1024,68.0,0,27,0.0,0.0
1025,62.0,0,27,0.0,0.0
1026,71.0,30,27,0.0,0.0
1027,67.0,4,27,0.0,0.0
1028,64.0,0,27,0.0,0.0
1029,36.0,26,30,0.0,0.0
1030,64.0,30,27,0.0,0.0
1031,72.0,0,27,0.0,0.0
1032,68.0,0,27,0.0,0.0
1033,65.0,30,27,0.0,0.0
1034,48.0,4,304,0.0,0.0
1035,74.0,30,27,0.0,0.0
1036,65.0,0,27,0.0,0.0
1037,65.0,30,27,0.0,0.0
1038,62.0,0,27,0.0,0.0
1039,56.0,26,59,0.0,0.0
1040,71.0,0,27,0.0,0.0
1041,62.0,4,27,0.0,0.0
1042,59.0,0,27,0.0,0.0
1043,62.0,30,27,0.0,0.0
1044,55.0,22,64,0.0,0.0
1045,67.0,0,27,0.0,0.0
1046,59.0,8,27,0.0,0.0
1047,63.0,28,27,0.0,0.0
1048,60.0,0,27,0.0,0.0
1049,54.0,2,54,0.0,0.0
1050,60.0,30,27,0.0,0.0
1051,69.0,0,27,0.0,0.0
1052,53.0,18,70,0.0,0.0
1053,62.0,30,27,0.0,0.0
1054,68.0,0,27,0.0,0.0
1055,62.0,8,27,0.0,0.0
1056,71.0,0,27,0.0,0.0
1057,52.0,22,66,0.0,0.0
1058,67.0,30,27,0.0,0.0
1059,64.0,0,27,0.0,0.0
1060,64.0,8,27,0.0,0.0
1061,72.0,0,27,0.0,0.0
1062,50.0,21,67,0.0,0.0
1063,65.0,30,27,0.0,0.0
1064,71.0,0,27,0.0,0.0
1065,65.0,0,27,0.0,0.0
1066,74.0,9,27,0.0,0.0
1067,49.0,4,114,0.0,0.0
1068,70.0,30,27,0.0,0.0
1069,67.0,0,27,0.0,0.0
1070,76.0,30,27,0.0,0.0
1071,67.0,0,27,0.0,0.0
1072,76.0,0,27,0.0,0.0
1073,70.0,23,27,0.0,0.0
1074,61.0,3,49,0.0,0.0
1075,79.0,0,27,0.0,0.0
1076,70.0,30,27,0.0,0.0
1077,69.0,11,27,0.0,0.0
1078,74.0,0,27,0.0,0.0
1079,62.0,16,40,0.0,0.0
1080,50.0,3,37,0.0,0.0
1081,77.0,30,27,0.0,0.0
1082,69.0,0,27,0.0,0.0
1083,67.0,17,27,0.0,0.0
1084,69.0,0,27,0.0,0.0
1085,61.0,13,44,0.0,0.0
1086,52.0,0,43,0.0,0.0
1087,67.0,0,27,0.0,0.0
1088,76.0,30,27,0.0,0.0
1089,67.0,19,27,0.0,0.0
1090,69.0,0,27,0.0,0.0
1091,52.0,0,45,0.0,0.0
1092,61.0,11,45,0.0,0.0
1093,76.0,0,27,0.0,0.0
1094,67.0,30,27,0.0,0.0
1095,65.0,0,27,0.0,0.0
1096,69.0,21,27,0.0,0.0
1097,53.0,4,52,0.0,0.0
1098,62.0,5,47,0.0,0.0
1099,74.0,0,27,0.0,0.0
1100,65.0,30,27,0.0,0.0
1101,69.0,0,27,0.0,0.0
1102,63.0,19,27,0.0,0.0
1103,54.0,11,45,0.0,0.0
1104,63.0,30,27,0.0,0.0
1105,72.0,0,27,0.0,0.0
1106,64.0,20,27,0.0,0.0
1107,67.0,0,27,0.0,0.0
1108,55.0,10,47,0.0,0.0
1109,64.0,0,27,0.0,0.0
1110,72.0,30,27,0.0,0.0
1111,43.0,8,50,0.0,0.0
1112,63.0,0,27,0.0,0.0
1113,66.0,22,27,0.0,0.0
1114,72.0,28,27,0.0,0.0
1115,63.0,0,27,0.0,0.0
1116,55.0,2,26,0.0,0.0
1117,62.0,0,27,0.0,0.0
1118,65.0,30,27,0.0,0.0
1119,62.0,21,27,0.0,0.0
1120,71.0,0,27,0.0,0.0
1121,64.0,30,27,0.0,0.0
1122,67.0,0,27,0.0,0.0
1123,36.0,9,17,0.0,0.0
1124,64.0,30,27,0.0,0.0
1125,72.0,0,27,0.0,0.0
1126,48.0,4,264,0.0,0.0
1127,65.0,0,27,0.0,0.0
1128,68.0,30,27,0.0,0.0
1129,65.0,0,27,0.0,0.0
1130,74.0,30,27,0.0,0.0
1131,65.0,30,27,0.0,0.0
1132,62.0,0,27,0.0,0.0
1133,56.0,23,63,0.0,0.0
1134,62.0,7,27,0.0,0.0
1135,71.0,0,27,0.0,0.0
1136,59.0,0,27,0.0,0.0
1137,62.0,30,27,0.0,0.0
1138,55.0,24,62,0.0,0.0
1139,59.0,6,27,0.0,0.0
1140,67.0,0,27,0.0,0.0
1141,54.0,20,64,0.0,0.0
1142,63.0,0,27,0.0,0.0
1143,60.0,30,27,0.0,0.0
1144,69.0,6,27,0.0,0.0
1145,60.0,0,27,0.0,0.0
1146,53.0,23,35,0.0,0.0
1147,68.0,7,27,0.0,0.0
1148,62.0,0,27,0.0,0.0
1149,62.0,0,27,0.0,0.0
1150,71.0,19,27,0.0,0.0
1151,67.0,0,27,0.0,0.0
1152,64.0,30,27,0.0,0.0
1153,36.0,11,15,0.0,0.0
1154,64.0,0,27,0.0,0.0
1155,72.0,30,27,0.0,0.0
1156,48.0,4,294,0.0,0.0
1157,65.0,0,27,0.0,0.0
1158,68.0,30,27,0.0,0.0
1159,65.0,0,27,0.0,0.0
1160,74.0,30,27,0.0,0.0
1161,62.0,0,27,0.0,0.0
1162,56.0,25,62,0.0,0.0
1163,65.0,30,27,0.0,0.0
1164,62.0,0,27,0.0,0.0
1165,71.0,5,27,0.0,0.0
1166,59.0,30,27,0.0,0.0
1167,62.0,0,27,0.0,0.0
1168,55.0,24,62,0.0,0.0
1169,59.0,0,27,0.0,0.0
1170,67.0,6,27,0.0,0.0
1171,54.0,2,56,0.0,0.0
1172,60.0,0,27,0.0,0.0
1173,63.0,28,27,0.0,0.0
1174,60.0,30,27,0.0,0.0
1175,69.0,0,27,0.0,0.0
1176,53.0,0,54,0.0,0.0
1177,62.0,0,27,0.0,0.0
1178,68.0,26,27,0.0,0.0
1179,71.0,30,27,0.0,0.0
1180,62.0,0,27,0.0,0.0
1181,52.0,18,40,0.0,0.0
1182,64.0,12,27,0.0,0.0
1183,67.0,0,27,0.0,0.0
1184,64.0,0,27,0.0,0.0
1185,72.0,30,27,0.0,0.0
1186,49.0,4,54,0.0,0.0
1187,67.0,24,27,0.0,0.0
1188,69.0,0,27,0.0,0.0
1189,57.0,2,51,0.0,0.0
1190,61.0,0,50,0.0,0.0
1191,67.0,30,27,0.0,0.0
1192,76.0,0,27,0.0,0.0
1193,65.0,0,27,0.0,0.0
1194,57.0,0,28,0.0,0.0
1195,69.0,1,27,0.0,0.0
1196,62.0,29,27,0.0,0.0
1197,50.0,0,26,0.0,0.0
1198,65.0,30,27,0.0,0.0
1199,74.0,0,27,0.0,0.0
1200,70.0,0,27,0.0,0.0
1201,72.0,19,27,0.0,0.0
1202,52.0,2,45,0.0,0.0
1203,64.0,2,47,0.0,0.0
1204,60.0,7,49,0.0,0.0
1205,79.0,0,27,0.0,0.0
1206,70.0,30,27,0.0,0.0
1207,60.0,27,30,0.0,0.0
1208,72.0,1,27,0.0,0.0
1209,69.0,0,27,0.0,0.0
1210,65.0,1,28,0.0,0.0
1211,53.0,1,27,0.0,0.0
1212,69.0,30,27,0.0,0.0
1213,77.0,0,27,0.0,0.0
1214,72.0,25,27,0.0,0.0
1215,74.0,0,27,0.0,0.0
1216,62.0,1,51,0.0,0.0
1217,54.0,4,52,0.0,0.0
1218,66.0,0,52,0.0,0.0
1219,72.0,0,27,0.0,0.0
1220,81.0,29,27,0.0,0.0
1221,74.0,0,27,0.0,0.0
1222,71.0,1,27,0.0,0.0
1223,62.0,2,27,0.0,0.0
1224,55.0,1,25,0.0,0.0
1225,67.0,27,29,0.0,0.0
1226,79.0,30,27,0.0,0.0
1227,71.0,0,27,0.0,0.0
1228,74.0,0,27,0.0,0.0
1229,76.0,21,27,0.0,0.0
1230,56.0,8,48,0.0,0.0
1231,68.0,0,48,0.0,0.0
1232,64.0,1,47,0.0,0.0
1233,83.0,30,27,0.0,0.0
1234,74.0,0,27,0.0,0.0
1235,72.0,1,27,0.0,0.0
1236,76.0,0,27,0.0,0.0
1237,64.0,28,29,0.0,0.0
1238,57.0,0,27,0.0,0.0
1239,69.0,1,27,0.0,0.0
1240,72.0,30,27,0.0,0.0
1241,81.0,0,27,0.0,0.0
1242,77.0,18,27,0.0,0.0
1243,79.0,0,27,0.0,0.0
1244,59.0,2,45,0.0,0.0
1245,71.0,2,46,0.0,0.0
1246,67.0,8,48,0.0,0.0
1247,86.0,0,27,0.0,0.0
1248,77.0,29,27,0.0,0.0
1249,76.0,3,27,0.0,0.0
1250,79.0,0,27,0.0,0.0
1251,67.0,1,29,0.0,0.0
1252,72.0,26,30,0.0,0.0
1253,60.0,1,25,0.0,0.0
1254,76.0,30,27,0.0,0.0
1255,84.0,0,27,0.0,0.0
1256,81.0,0,27,0.0,0.0
1257,79.0,1,27,0.0,0.0
1258,61.0,1,30,0.0,0.0
1259,69.0,26,31,0.0,0.0
1260,73.0,2,27,0.0,0.0
1261,88.0,30,27,0.0,0.0
1262,79.0,0,27,0.0,0.0
1263,81.0,0,27,0.0,0.0
1264,79.0,30,27,0.0,0.0
1265,73.0,19,188,0.0,0.0
1266,62.0,3,323,0.0,0.0
1267,69.0,4,319,0.0,0.0
1268,88.0,30,27,0.0,0.0
1269,79.0,0,27,0.0,0.0
1270,79.0,30,27,0.0,0.0
1271,81.0,0,27,0.0,0.0
1272,79.0,30,27,0.0,0.0
1273,88.0,0,27,0.0,0.0
1274,81.0,30,27,0.0,0.0
1275,79.0,0,27,0.0,0.0
1276,79.0,11,27,0.0,0.0
1277,88.0,0,27,0.0,0.0
1278,81.0,30,27,0.0,0.0
1279,79.0,0,27,0.0,0.0
1280,74.0,27,149,0.0,0.0
1281,79.0,0,27,0.0,0.0
1282,88.0,30,27,0.0,0.0
1283,81.0,0,27,0.0,0.0
1284,77.0,30,27,0.0,0.0
1285,86.0,23,27,0.0,0.0
1286,77.0,0,27,0.0,0.0
1287,81.0,3,27,0.0,0.0
1288,77.0,0,27,0.0,0.0
1289,77.0,30,27,0.0,0.0
1290,84.0,0,27,0.0,0.0
1291,81.0,21,27,0.0,0.0
1292,77.0,0,27,0.0,0.0
1293,43.0,9,47,0.0,0.0
1294,77.0,0,27,0.0,0.0
1295,83.0,30,27,0.0,0.0
1296,55.0,25,33,0.0,0.0
1297,77.0,5,27,0.0,0.0
1298,81.0,0,27,0.0,0.0
1299,77.0,30,27,0.0,0.0
1300,83.0,0,27,0.0,0.0
1301,65.0,22,66,0.0,0.0
1302,62.0,3,63,0.0,0.0
1303,77.0,30,27,0.0,0.0
1304,81.0,0,27,0.0,0.0
1305,77.0,0,27,0.0,0.0
1306,83.0,5,27,0.0,0.0
1307,71.0,19,39,0.0,0.0
1308,81.0,0,27,0.0,0.0
1309,77.0,11,27,0.0,0.0
1310,77.0,30,27,0.0,0.0
1311,83.0,0,27,0.0,0.0
1312,76.0,30,27,0.0,0.0
1313,79.0,0,27,0.0,0.0
1314,76.0,30,27,0.0,0.0
1315,83.0,0,27,0.0,0.0
1316,74.0,30,27,0.0,0.0
1317,77.0,0,27,0.0,0.0
1318,74.0,30,27,0.0,0.0
1319,83.0,0,27,0.0,0.0
1320,60.0,2,408,0.0,0.0
1321,76.0,30,27,0.0,0.0
1322,79.0,0,27,0.0,0.0
1323,76.0,0,27,0.0,0.0
1324,84.0,30,27,0.0,0.0
1325,77.0,0,27,0.0,0.0
1326,81.0,23,27,0.0,0.0
1327,72.0,2,49,0.0,0.0
1328,69.0,5,51,0.0,0.0
1329,77.0,30,27,0.0,0.0
1330,86.0,0,27,0.0,0.0
1331,83.0,0,27,0.0,0.0
1332,79.0,23,27,0.0,0.0
1333,71.0,6,50,0.0,0.0
1334,67.0,1,49,0.0,0.0
1335,79.0,0,27,0.0,0.0
1336,88.0,30,27,0.0,0.0
1337,84.0,0,27,0.0,0.0
1338,81.0,22,27,0.0,0.0
1339,65.0,22,64,0.0,0.0
1340,69.0,8,48,0.0,0.0
1341,89.0,8,27,0.0,0.0
1342,81.0,0,27,0.0,0.0
1343,67.0,9,49,0.0,0.0
1344,79.0,0,27,0.0,0.0
1345,83.0,13,27,0.0,0.0
1346,71.0,8,39,0.0,0.0
1347,88.0,30,27,0.0,0.0
1348,79.0,0,27,0.0,0.0
1349,69.0,0,40,0.0,0.0
1350,72.0,18,40,0.0,0.0
1351,77.0,0,27,0.0,0.0
1352,81.0,12,27,0.0,0.0
1353,77.0,30,27,0.0,0.0
1354,86.0,0,27,0.0,0.0
1355,77.0,0,27,0.0,0.0
1356,79.0,20,27,0.0,0.0
1357,74.0,8,48,0.0,0.0
1358,71.0,21,65,0.0,0.0
1359,86.0,9,27,0.0,0.0
1360,77.0,0,27,0.0,0.0
1361,79.0,30,27,0.0,0.0
1362,77.0,0,27,0.0,0.0
1363,60.0,1,165,0.0,0.0
1364,77.0,30,27,0.0,0.0
1365,86.0,0,27,0.0,0.0
1366,81.0,0,27,0.0,0.0
1367,77.0,13,27,0.0,0.0
1368,69.0,15,41,0.0,0.0
1369,72.0,2,39,0.0,0.0
1370,86.0,0,27,0.0,0.0
1371,77.0,30,27,0.0,0.0
1372,77.0,0,27,0.0,0.0
1373,79.0,19,27,0.0,0.0
1374,71.0,28,57,0.0,0.0
1375,74.0,10,45,0.0,0.0
1376,77.0,0,27,0.0,0.0
1377,86.0,2,27,0.0,0.0
1378,79.0,0,27,0.0,0.0
1379,77.0,30,27,0.0,0.0
1380,60.0,8,101,0.0,0.0
1381,77.0,30,27,0.0,0.0
1382,88.0,0,27,0.0,0.0
1383,79.0,15,27,0.0,0.0
1384,77.0,0,27,0.0,0.0
1385,71.0,7,49,0.0,0.0
1386,67.0,23,63,0.0,0.0
1387,77.0,7,27,0.0,0.0
1388,86.0,0,27,0.0,0.0
1389,76.0,30,27,0.0,0.0
1390,79.0,0,27,0.0,0.0
1391,60.0,8,400,0.0,0.0
1392,84.0,30,27,0.0,0.0
1393,76.0,0,27,0.0,0.0
1394,81.0,18,27,0.0,0.0
1395,77.0,0,27,0.0,0.0
1396,69.0,7,49,0.0,0.0
1397,72.0,5,44,0.0,0.0
1398,77.0,0,27,0.0,0.0
1399,86.0,30,27,0.0,0.0
1400,67.0,5,53,0.0,0.0
1401,83.0,0,27,0.0,0.0
1402,79.0,23,27,0.0,0.0
1403,71.0,2,50,0.0,0.0
1404,79.0,0,27,0.0,0.0
1405,88.0,30,27,0.0,0.0
1406,84.0,15,27,0.0,0.0
1407,81.0,0,27,0.0,0.0
1408,65.0,23,63,0.0,0.0
1409,69.0,15,41,0.0,0.0
1410,89.0,7,27,0.0,0.0
1411,81.0,0,27,0.0,0.0
1412,67.0,10,48,0.0,0.0
1413,83.0,0,27,0.0,0.0
1414,79.0,15,27,0.0,0.0
1415,71.0,5,41,0.0,0.0
1416,79.0,0,27,0.0,0.0
1417,88.0,30,27,0.0,0.0
1418,77.0,0,27,0.0,0.0
1419,81.0,13,27,0.0,0.0
1420,69.0,17,39,0.0,0.0
1421,72.0,0,39,0.0,0.0
1422,77.0,30,27,0.0,0.0
1423,86.0,0,27,0.0,0.0
1424,77.0,14,27,0.0,0.0
1425,79.0,0,27,0.0,0.0
1426,71.0,21,65,0.0,0.0
1427,74.0,8,48,0.0,0.0
1428,77.0,9,27,0.0,0.0
1429,86.0,0,27,0.0,0.0
1430,79.0,0,27,0.0,0.0
1431,77.0,30,27,0.0,0.0
1432,60.0,7,167,0.0,0.0
1433,77.0,0,27,0.0,0.0
1434,86.0,30,27,0.0,0.0
1435,81.0,13,27,0.0,0.0
1436,77.0,0,27,0.0,0.0
1437,72.0,14,42,0.0,0.0
1438,69.0,3,39,0.0,0.0
1439,77.0,30,27,0.0,0.0
1440,86.0,0,27,0.0,0.0
1441,77.0,20,27,0.0,0.0
1442,79.0,0,27,0.0,0.0
1443,71.0,2,54,0.0,0.0
1444,74.0,1,45,0.0,0.0
1445,86.0,30,27,0.0,0.0
1446,77.0,0,27,0.0,0.0
1447,77.0,0,27,0.0,0.0
1448,79.0,30,27,0.0,0.0
1449,60.0,2,96,0.0,0.0
1450,77.0,0,27,0.0,0.0
1451,88.0,30,27,0.0,0.0
1452,77.0,9,27,0.0,0.0
1453,79.0,0,27,0.0,0.0
1454,67.0,17,38,0.0,0.0
1455,71.0,2,33,0.0,0.0
1456,86.0,0,27,0.0,0.0
1457,77.0,30,27,0.0,0.0
1458,79.0,8,27,0.0,0.0
1459,60.0,20,37,0.0,0.0
1460,76.0,0,27,0.0,0.0
1461,72.0,2,34,0.0,0.0
1462,76.0,0,27,0.0,0.0
1463,84.0,30,27,0.0,0.0
1464,54.0,2,56,0.0,0.0
1465,66.0,29,59,0.0,0.0
1466,75.0,28,27,0.0,0.0
1467,80.0,0,27,0.0,0.0
1468,84.0,0,27,0.0,0.0
1469,75.0,1,27,0.0,0.0
1470,55.0,15,43,0.0,0.0
1471,67.0,3,40,0.0,0.0
1472,79.0,12,27,0.0,0.0
1473,74.0,0,27,0.0,0.0
1474,83.0,0,27,0.0,0.0
1475,74.0,30,27,0.0,0.0
1476,63.0,12,46,0.0,0.0
1477,73.0,0,27,0.0,0.0
1478,79.0,16,27,0.0,0.0
1479,51.0,2,43,0.0,0.0
1480,73.0,0,27,0.0,0.0
1481,82.0,30,27,0.0,0.0
1482,68.0,0,35,0.0,0.0
1483,56.0,23,35,0.0,0.0
1484,72.0,7,27,0.0,0.0
1485,76.0,0,27,0.0,0.0
1486,80.0,30,27,0.0,0.0
1487,72.0,0,27,0.0,0.0
1488,70.0,21,27,0.0,0.0
1489,76.0,0,27,0.0,0.0
1490,49.0,3,47,0.0,0.0
1491,61.0,6,50,0.0,0.0
1492,79.0,30,27,0.0,0.0
1493,70.0,0,27,0.0,0.0
1494,50.0,23,35,0.0,0.0
1495,62.0,0,35,0.0,0.0
1496,74.0,0,27,0.0,0.0
1497,69.0,7,27,0.0,0.0
1498,69.0,0,27,0.0,0.0
1499,78.0,30,27,0.0,0.0
1500,74.0,0,27,0.0,0.0
1501,68.0,23,27,0.0,0.0
1502,47.0,5,51,0.0,0.0
1503,59.0,2,49,0.0,0.0
1504,77.0,0,27,0.0,0.0
1505,68.0,30,27,0.0,0.0
1506,72.0,6,27,0.0,0.0
1507,67.0,0,27,0.0,0.0
1508,60.0,8,32,0.0,0.0
1509,48.0,16,40,0.0,0.0
1510,76.0,30,27,0.0,0.0
1511,67.0,0,27,0.0,0.0
1512,56.0,14,44,0.0,0.0
1513,68.0,16,27,0.0,0.0
1514,72.0,0,27,0.0,0.0
1515,44.0,20,67,0.0,0.0
1516,75.0,0,27,0.0,0.0
1517,68.0,10,27,0.0,0.0
1518,69.0,0,27,0.0,0.0
1519,72.0,30,27,0.0,0.0
1520,54.0,30,56,0.0,0.0
1521,42.0,0,56,0.0,0.0
1522,69.0,0,27,0.0,0.0
1523,74.0,0,27,0.0,0.0
1524,65.0,0,27,0.0,0.0
1525,67.0,12,27,0.0,0.0
1526,43.0,0,38,0.0,0.0
1527,55.0,18,38,0.0,0.0
1528,65.0,30,27,0.0,0.0
1529,71.0,0,27,0.0,0.0
1530,67.0,5,27,0.0,0.0
1531,64.0,0,27,0.0,0.0
1532,48.0,21,35,0.0,0.0
1533,36.0,4,31,0.0,0.0
1534,72.0,30,27,0.0,0.0
1535,64.0,0,27,0.0,0.0
1536,69.0,29,27,0.0,0.0
1537,63.0,0,27,0.0,0.0
1538,54.0,24,62,0.0,0.0
1539,42.0,1,54,0.0,0.0
1540,72.0,0,27,0.0,0.0
1541,63.0,6,27,0.0,0.0
1542,67.0,0,27,0.0,0.0
1543,62.0,8,27,0.0,0.0
1544,43.0,20,36,0.0,0.0
1545,55.0,2,34,0.0,0.0
1546,62.0,30,27,0.0,0.0
1547,71.0,0,27,0.0,0.0
1548,61.0,0,27,0.0,0.0
1549,67.0,10,27,0.0,0.0
1550,39.0,2,36,0.0,0.0
1551,51.0,18,38,0.0,0.0
1552,70.0,0,27,0.0,0.0
1553,61.0,30,27,0.0,0.0
1554,64.0,18,27,0.0,0.0
1555,60.0,0,27,0.0,0.0
1556,44.0,1,44,0.0,0.0
1557,56.0,11,45,0.0,0.0
1558,68.0,30,27,0.0,0.0
1559,60.0,0,27,0.0,0.0
1560,58.0,0,27,0.0,0.0
1561,64.0,26,27,0.0,0.0
1562,37.0,4,52,0.0,0.0
1563,49.0,28,57,0.0,0.0
1564,58.0,2,27,0.0,0.0
1565,67.0,0,27,0.0,0.0
1566,62.0,6,27,0.0,0.0
1567,57.0,0,27,0.0,0.0
1568,38.0,22,34,0.0,0.0
1569,50.0,2,32,0.0,0.0
1570,66.0,0,27,0.0,0.0
1571,57.0,30,27,0.0,0.0
1572,47.0,5,51,0.0,0.0
1573,35.0,2,56,0.0,0.0
1574,62.0,23,27,0.0,0.0
1575,56.0,0,27,0.0,0.0
1576,56.0,0,27,0.0,0.0
1577,65.0,30,27,0.0,0.0
1578,60.0,0,27,0.0,0.0
1579,55.0,6,27,0.0,0.0
1580,36.0,9,47,0.0,0.0
1581,48.0,15,32,0.0,0.0
1582,55.0,0,27,0.0,0.0
1583,64.0,30,27,0.0,0.0
1584,56.0,19,27,0.0,0.0
1585,60.0,0,27,0.0,0.0
1586,44.0,11,45,0.0,0.0
1587,32.0,23,63,0.0,0.0
1588,56.0,7,27,0.0,0.0
1589,63.0,0,27,0.0,0.0
1590,57.0,30,27,0.0,0.0
1591,60.0,0,27,0.0,0.0
1592,42.0,20,66,0.0,0.0
1593,30.0,7,59,0.0,0.0
1594,62.0,0,27,0.0,0.0
1595,57.0,3,27,0.0,0.0
1596,53.0,22,27,0.0,0.0
1597,55.0,0,27,0.0,0.0
1598,31.0,2,48,0.0,0.0
1599,43.0,6,49,0.0,0.0
1600,53.0,30,27,0.0,0.0
1601,59.0,0,27,0.0,0.0
1602,55.0,30,27,0.0,0.0
1603,52.0,0,27,0.0,0.0
1604,43.0,28,118,0.0,0.0
1605,36.0,2,114,0.0,0.0
1606,52.0,0,27,0.0,0.0
1607,60.0,30,27,0.0,0.0
1608,53.0,28,27,0.0,0.0
1609,57.0,0,27,0.0,0.0
1610,62.0,2,27,0.0,0.0
1611,53.0,0,27,0.0,0.0
1612,59.0,0,27,0.0,0.0
1613,55.0,30,27,0.0,0.0
1614,55.0,30,27,0.0,0.0
1615,64.0,0,27,0.0,0.0
1616,60.0,30,27,0.0,0.0
1617,57.0,0,27,0.0,0.0
1618,57.0,30,27,0.0,0.0
1619,65.0,0,27,0.0,0.0
1620,57.0,30,27,0.0,0.0
1621,53.0,0,27,0.0,0.0
1622,53.0,0,27,0.0,0.0
1623,62.0,30,27,0.0,0.0
1624,31.0,6,52,0.0,0.0
1625,43.0,6,46,0.0,0.0
1626,59.0,18,27,0.0,0.0
1627,55.0,0,27,0.0,0.0
1628,55.0,30,27,0.0,0.0
1629,64.0,0,27,0.0,0.0
1630,43.0,3,112,0.0,0.0
1631,36.0,3,115,0.0,0.0
1632,55.0,0,27,0.0,0.0
1633,52.0,30,27,0.0,0.0
1634,52.0,0,27,0.0,0.0
1635,60.0,30,27,0.0,0.0
1636,53.0,24,27,0.0,0.0
1637,57.0,0,27,0.0,0.0
1638,53.0,30,27,0.0,0.0
1639,62.0,0,27,0.0,0.0
1640,55.0,30,27,0.0,0.0
1641,59.0,0,27,0.0,0.0
1642,64.0,30,27,0.0,0.0
1643,55.0,0,27,0.0,0.0
1644,57.0,30,27,0.0,0.0
1645,60.0,0,27,0.0,0.0
1646,65.0,0,27,0.0,0.0
1647,57.0,30,27,0.0,0.0
1648,57.0,30,27,0.0,0.0
1649,53.0,0,27,0.0,0.0
1650,62.0,30,27,0.0,0.0
1651,53.0,0,27,0.0,0.0
1652,31.0,6,51,0.0,0.0
1653,59.0,22,27,0.0,0.0
1654,55.0,0,27,0.0,0.0
1655,43.0,2,48,0.0,0.0
1656,64.0,30,27,0.0,0.0
1657,55.0,0,27,0.0,0.0
1658,55.0,18,27,0.0,0.0
1659,52.0,0,27,0.0,0.0
1660,36.0,1,44,0.0,0.0
1661,43.0,11,45,0.0,0.0
1662,52.0,0,27,0.0,0.0
1663,60.0,30,27,0.0,0.0
1664,53.0,16,27,0.0,0.0
1665,55.0,0,27,0.0,0.0
1666,35.0,1,42,0.0,0.0
1667,43.0,13,43,0.0,0.0
1668,53.0,0,27,0.0,0.0
1669,62.0,30,27,0.0,0.0
1670,36.0,1,43,0.0,0.0
1671,43.0,14,44,0.0,0.0
1672,52.0,15,27,0.0,0.0
1673,55.0,0,27,0.0,0.0
1674,60.0,30,27,0.0,0.0
1675,52.0,0,27,0.0,0.0
1676,35.0,1,45,0.0,0.0
1677,43.0,12,46,0.0,0.0
1678,55.0,17,27,0.0,0.0
1679,53.0,0,27,0.0,0.0
1680,53.0,30,27,0.0,0.0
1681,62.0,0,27,0.0,0.0
1682,55.0,16,27,0.0,0.0
1683,52.0,0,27,0.0,0.0
1684,43.0,0,43,0.0,0.0
1685,36.0,14,43,0.0,0.0
1686,60.0,30,27,0.0,0.0
1687,52.0,0,27,0.0,0.0
1688,43.0,15,43,0.0,0.0
1689,53.0,15,27,0.0,0.0
1690,35.0,0,42,0.0,0.0
1691,55.0,0,27,0.0,0.0
1692,53.0,0,27,0.0,0.0
1693,62.0,30,27,0.0,0.0
1694,52.0,16,27,0.0,0.0
1695,55.0,0,27,0.0,0.0
1696,43.0,13,43,0.0,0.0
1697,36.0,1,42,0.0,0.0
1698,52.0,0,27,0.0,0.0
1699,60.0,30,27,0.0,0.0
1700,35.0,13,44,0.0,0.0
1701,55.0,0,27,0.0,0.0
1702,53.0,17,27,0.0,0.0
1703,43.0,0,44,0.0,0.0
1704,62.0,30,27,0.0,0.0
1705,53.0,0,27,0.0,0.0
1706,43.0,0,47,0.0,0.0
1707,36.0,11,47,0.0,0.0
1708,52.0,19,27,0.0,0.0
1709,55.0,0,27,0.0,0.0
1710,60.0,0,27,0.0,0.0
1711,52.0,30,27,0.0,0.0
1712,43.0,9,49,0.0,0.0
1713,53.0,20,27,0.0,0.0
1714,55.0,0,27,0.0,0.0
1715,35.0,1,47,0.0,0.0
1716,53.0,30,27,0.0,0.0
1717,62.0,0,27,0.0,0.0
1718,55.0,20,27,0.0,0.0
1719,52.0,0,27,0.0,0.0
1720,36.0,1,46,0.0,0.0
1721,43.0,9,47,0.0,0.0
1722,52.0,30,27,0.0,0.0
1723,60.0,0,27,0.0,0.0
1724,55.0,14,27,0.0,0.0
1725,53.0,0,27,0.0,0.0
1726,43.0,1,40,0.0,0.0
1727,35.0,15,41,0.0,0.0
1728,62.0,0,27,0.0,0.0
1729,53.0,42,27,0.0,0.0
1730,60.0,48,39,0.0,0.0
1731,52.0,0,39,0.0,0.0
1732,36.0,29,297,0.0,0.0
1733,43.0,0,296,0.0,0.0
1734,60.0,30,27,0.0,0.0
1735,52.0,0,27,0.0,0.0
1736,52.0,30,27,0.0,0.0
1737,55.0,30,27,0.0,0.0
1738,64.0,0,27,0.0,0.0
1739,55.0,30,27,0.0,0.0
1740,60.0,30,27,0.0,0.0
1741,67.0,0,27,0.0,0.0
1742,60.0,30,27,0.0,0.0
1743,72.0,0,27,0.0,0.0
1744,64.0,30,27,0.0,0.0
1745,64.0,1,27,0.0,0.0
1746,67.0,29,27,0.0,0.0
1747,76.0,0,27,0.0,0.0
1748,67.0,30,27,0.0,0.0
1749,48.0,1,14,0.0,0.0
1750,55.0,1,221,0.0,0.0
1751,72.0,30,27,0.0,0.0
1752,79.0,0,27,0.0,0.0
1753,64.0,22,213,0.0,0.0
1754,72.0,30,27,0.0,0.0
1755,84.0,0,27,0.0,0.0
1756,76.0,30,27,0.0,0.0
1757,76.0,30,27,0.0,0.0
1758,79.0,0,27,0.0,0.0
1759,88.0,30,27,0.0,0.0
1760,79.0,30,27,0.0,0.0
1761,84.0,7,27,0.0,0.0
1762,91.0,0,27,0.0,0.0
1763,84.0,30,27,0.0,0.0
1764,96.0,30,27,0.0,0.0
1765,88.0,0,27,0.0,0.0
1766,88.0,30,27,0.0,0.0
1767,100.0,54,27,0.0,0.0
1768,91.0,0,27,0.0,0.0
1769,100.0,17,19,0.0,0.0
1770,91.0,14,40,0.0,0.0
1771,60.0,6,13,0.0,0.0
1772,67.0,2,25,0.0,0.0
1773,84.0,0,23,0.0,0.0
1774,76.0,292,14,0.0,0.0
1775,84.0,3,119,0.0,0.0
1776,76.0,2,115,0.0,0.0
1777,88.0,818,122,0.0,0.0
1778,60.0,0,122,0.0,0.0
1779,72.0,2,111,0.0,0.0
1780,67.0,0,113,0.0,0.0
1781,79.0,2,115,0.0,0.0
1782,60.0,5,697,0.0,0.0
1783,36.0,390,700,0.0,0.0
1784,48.0,2,691,0.0,0.0
